0, 0, Header, 1, 2, 384
1, 0, Start_track
1, 0, Tempo, 500000
1, 0, Time_signature, 4, 2, 24, 8
1, 1, End_track
2,0,Start_track
2,0, Note_on_c, 0, 62, 39
2,172, Control_c, 0, 64, 61
2,420, Note_on_c, 0, 64, 46
2,499, Note_on_c, 0, 62, 0
2,696, Control_c, 0, 64, 61
2,741, Control_c, 0, 64, 60
2,788, Control_c, 0, 64, 60
2,802, Control_c, 0, 64, 59
2,819, Control_c, 0, 64, 58
2,821, Note_on_c, 0, 65, 52
2,834, Control_c, 0, 64, 58
2,879, Control_c, 0, 64, 57
2,894, Control_c, 0, 64, 56
2,909, Control_c, 0, 64, 55
2,924, Control_c, 0, 64, 54
2,951, Note_on_c, 0, 64, 0
2,955, Control_c, 0, 64, 54
2,970, Control_c, 0, 64, 53
2,985, Control_c, 0, 64, 50
2,1001, Control_c, 0, 64, 48
2,1016, Control_c, 0, 64, 47
2,1091, Control_c, 0, 64, 46
2,1137, Control_c, 0, 64, 46
2,1167, Control_c, 0, 64, 45
2,1182, Control_c, 0, 64, 44
2,1198, Control_c, 0, 64, 44
2,1212, Note_on_c, 0, 67, 52
2,1228, Control_c, 0, 64, 43
2,1243, Control_c, 0, 64, 43
2,1258, Control_c, 0, 64, 42
2,1258, Note_on_c, 0, 65, 0
2,1274, Control_c, 0, 64, 41
2,1289, Control_c, 0, 64, 41
2,1463, Control_c, 0, 64, 41
2,1479, Control_c, 0, 64, 42
2,1494, Control_c, 0, 64, 43
2,1509, Control_c, 0, 64, 43
2,1539, Control_c, 0, 64, 44
2,1555, Control_c, 0, 64, 44
2,1584, Control_c, 0, 64, 45
2,1600, Control_c, 0, 64, 45
2,1603, Note_on_c, 0, 64, 50
2,1621, Note_on_c, 0, 67, 0
2,1708, Control_c, 0, 64, 46
2,1783, Control_c, 0, 64, 46
2,1814, Control_c, 0, 64, 47
2,1844, Note_on_c, 0, 64, 0
2,1961, Note_on_c, 0, 65, 48
2,2123, Note_on_c, 0, 65, 0
2,2142, Note_on_c, 0, 62, 48
2,2319, Note_on_c, 0, 62, 0
2,2324, Note_on_c, 0, 61, 54
2,2368, Control_c, 0, 64, 47
2,2478, Note_on_c, 0, 62, 55
2,2484, Note_on_c, 0, 61, 0
2,2567, Control_c, 0, 64, 48
2,2572, Note_on_c, 0, 62, 0
2,2682, Note_on_c, 0, 70, 54
2,3046, Control_c, 0, 64, 48
2,3103, Note_on_c, 0, 70, 0
2,3152, Control_c, 0, 64, 48
2,3396, Control_c, 0, 64, 48
2,3429, Note_on_c, 0, 69, 42
2,3496, Note_on_c, 0, 69, 0
2,3505, Note_on_c, 0, 67, 59
2,3568, Note_on_c, 0, 67, 0
2,3584, Note_on_c, 0, 69, 61
2,3654, Note_on_c, 0, 69, 0
2,3678, Note_on_c, 0, 67, 60
2,3725, Note_on_c, 0, 67, 0
2,3762, Note_on_c, 0, 69, 58
2,3822, Note_on_c, 0, 69, 0
2,3844, Note_on_c, 0, 67, 58
2,3912, Note_on_c, 0, 67, 0
2,3936, Note_on_c, 0, 65, 55
2,4006, Note_on_c, 0, 65, 0
2,4009, Note_on_c, 0, 67, 52
2,4111, Note_on_c, 0, 67, 0
2,4126, Note_on_c, 0, 69, 54
2,4511, Note_on_c, 0, 57, 48
2,4872, Note_on_c, 0, 59, 58
2,4956, Note_on_c, 0, 57, 0
2,4963, Control_c, 0, 64, 48
2,5040, Note_on_c, 0, 67, 50
2,5160, Note_on_c, 0, 69, 0
2,5213, Note_on_c, 0, 60, 56
2,5214, Note_on_c, 0, 67, 0
2,5223, Note_on_c, 0, 65, 47
2,5274, Control_c, 0, 64, 47
2,5318, Note_on_c, 0, 59, 0
2,5358, Note_on_c, 0, 65, 0
2,5394, Note_on_c, 0, 64, 42
2,5562, Note_on_c, 0, 64, 0
2,5573, Note_on_c, 0, 67, 56
2,5580, Note_on_c, 0, 62, 56
2,5661, Note_on_c, 0, 60, 0
2,5730, Note_on_c, 0, 67, 0
2,5731, Note_on_c, 0, 65, 56
2,5917, Note_on_c, 0, 65, 0
2,5934, Note_on_c, 0, 59, 57
2,5935, Note_on_c, 0, 64, 49
2,5974, Note_on_c, 0, 62, 0
2,6116, Note_on_c, 0, 62, 50
2,6143, Note_on_c, 0, 64, 0
2,6287, Note_on_c, 0, 62, 0
2,6303, Note_on_c, 0, 59, 0
2,6303, Note_on_c, 0, 60, 55
2,6305, Note_on_c, 0, 64, 49
2,6462, Note_on_c, 0, 57, 60
2,6492, Note_on_c, 0, 60, 0
2,6543, Control_c, 0, 64, 48
2,6638, Note_on_c, 0, 56, 64
2,6640, Note_on_c, 0, 64, 0
2,6642, Note_on_c, 0, 72, 63
2,6651, Note_on_c, 0, 57, 0
2,6761, Note_on_c, 0, 56, 0
2,6795, Note_on_c, 0, 57, 71
2,6824, Control_c, 0, 64, 48
2,6864, Note_on_c, 0, 57, 0
2,6917, Control_c, 0, 64, 49
2,6962, Control_c, 0, 64, 49
2,7002, Note_on_c, 0, 65, 68
2,7159, Note_on_c, 0, 71, 56
2,7195, Note_on_c, 0, 72, 0
2,7219, Control_c, 0, 64, 50
2,7277, Note_on_c, 0, 65, 0
2,7326, Control_c, 0, 64, 51
2,7341, Control_c, 0, 64, 52
2,7344, Note_on_c, 0, 69, 57
2,7344, Note_on_c, 0, 71, 0
2,7357, Control_c, 0, 64, 54
2,7372, Control_c, 0, 64, 55
2,7388, Control_c, 0, 64, 56
2,7403, Control_c, 0, 64, 58
2,7418, Control_c, 0, 64, 61
2,7434, Control_c, 0, 64, 63
2,7449, Control_c, 0, 64, 65
2,7463, Control_c, 0, 64, 67
2,7479, Control_c, 0, 64, 69
2,7494, Control_c, 0, 64, 71
2,7510, Control_c, 0, 64, 73
2,7516, Note_on_c, 0, 71, 57
2,7525, Control_c, 0, 64, 74
2,7559, Note_on_c, 0, 69, 0
2,7577, Control_c, 0, 64, 74
2,7614, Note_on_c, 0, 71, 0
2,7623, Control_c, 0, 64, 73
2,7639, Control_c, 0, 64, 72
2,7653, Control_c, 0, 64, 71
2,7669, Control_c, 0, 64, 68
2,7684, Control_c, 0, 64, 65
2,7688, Note_on_c, 0, 71, 54
2,7697, Note_on_c, 0, 64, 39
2,7699, Control_c, 0, 64, 61
2,7715, Control_c, 0, 64, 58
2,7730, Control_c, 0, 64, 56
2,7744, Control_c, 0, 64, 55
2,7760, Control_c, 0, 64, 54
2,7769, Note_on_c, 0, 64, 0
2,7774, Control_c, 0, 64, 52
2,7775, Note_on_c, 0, 62, 57
2,7790, Control_c, 0, 64, 52
2,7805, Control_c, 0, 64, 51
2,7816, Note_on_c, 0, 62, 0
2,7835, Control_c, 0, 64, 52
2,7843, Note_on_c, 0, 71, 0
2,7848, Note_on_c, 0, 64, 52
2,7856, Note_on_c, 0, 69, 59
2,7928, Note_on_c, 0, 62, 53
2,7928, Note_on_c, 0, 64, 0
2,7957, Control_c, 0, 64, 52
2,7980, Note_on_c, 0, 69, 0
2,7999, Note_on_c, 0, 62, 0
2,8005, Note_on_c, 0, 68, 59
2,8014, Note_on_c, 0, 64, 51
2,8048, Control_c, 0, 64, 53
2,8068, Note_on_c, 0, 64, 0
2,8079, Control_c, 0, 64, 53
2,8091, Note_on_c, 0, 62, 47
2,8094, Control_c, 0, 64, 54
2,8109, Control_c, 0, 64, 55
2,8124, Control_c, 0, 64, 56
2,8139, Control_c, 0, 64, 58
2,8150, Note_on_c, 0, 62, 0
2,8155, Control_c, 0, 64, 60
2,8168, Note_on_c, 0, 60, 55
2,8170, Control_c, 0, 64, 62
2,8171, Note_on_c, 0, 69, 68
2,8185, Control_c, 0, 64, 63
2,8201, Control_c, 0, 64, 64
2,8207, Note_on_c, 0, 68, 0
2,8216, Control_c, 0, 64, 65
2,8232, Control_c, 0, 64, 66
2,8247, Control_c, 0, 64, 67
2,8247, Note_on_c, 0, 60, 0
2,8261, Control_c, 0, 64, 66
2,8261, Note_on_c, 0, 62, 57
2,8292, Control_c, 0, 64, 66
2,8292, Note_on_c, 0, 69, 0
2,8308, Control_c, 0, 64, 65
2,8323, Control_c, 0, 64, 64
2,8343, Note_on_c, 0, 62, 0
2,8344, Control_c, 0, 64, 62
2,8354, Note_on_c, 0, 69, 68
2,8358, Note_on_c, 0, 64, 56
2,8360, Control_c, 0, 64, 60
2,8375, Control_c, 0, 64, 58
2,8391, Control_c, 0, 64, 55
2,8406, Control_c, 0, 64, 53
2,8420, Control_c, 0, 64, 51
2,8436, Control_c, 0, 64, 50
2,8482, Control_c, 0, 64, 49
2,8531, Note_on_c, 0, 67, 70
2,8543, Control_c, 0, 64, 50
2,8589, Note_on_c, 0, 69, 0
2,8682, Control_c, 0, 64, 50
2,8697, Control_c, 0, 64, 51
2,8711, Note_on_c, 0, 66, 73
2,8719, Note_on_c, 0, 67, 0
2,8728, Control_c, 0, 64, 51
2,8758, Control_c, 0, 64, 52
2,8789, Control_c, 0, 64, 53
2,8804, Control_c, 0, 64, 53
2,8819, Control_c, 0, 64, 54
2,8834, Control_c, 0, 64, 54
2,8849, Control_c, 0, 64, 55
2,8865, Control_c, 0, 64, 55
2,8868, Note_on_c, 0, 67, 73
2,8879, Control_c, 0, 64, 56
2,8894, Control_c, 0, 64, 57
2,8910, Control_c, 0, 64, 57
2,8924, Note_on_c, 0, 66, 0
2,9017, Control_c, 0, 64, 57
2,9033, Control_c, 0, 64, 56
2,9047, Note_on_c, 0, 67, 0
2,9056, Note_on_c, 0, 76, 66
2,9063, Control_c, 0, 64, 55
2,9078, Control_c, 0, 64, 55
2,9131, Control_c, 0, 64, 54
2,9147, Control_c, 0, 64, 54
2,9162, Control_c, 0, 64, 53
2,9223, Control_c, 0, 64, 53
2,9241, Note_on_c, 0, 62, 47
2,9253, Control_c, 0, 64, 52
2,9266, Note_on_c, 0, 64, 0
2,9283, Control_c, 0, 64, 52
2,9314, Control_c, 0, 64, 51
2,9328, Control_c, 0, 64, 50
2,9350, Note_on_c, 0, 76, 0
2,9390, Control_c, 0, 64, 49
2,9397, Note_on_c, 0, 61, 48
2,9398, Note_on_c, 0, 62, 0
2,9419, Control_c, 0, 64, 49
2,9435, Control_c, 0, 64, 48
2,9450, Control_c, 0, 64, 48
2,9466, Control_c, 0, 64, 47
2,9526, Control_c, 0, 64, 47
2,9551, Note_on_c, 0, 61, 0
2,9563, Note_on_c, 0, 59, 52
2,9572, Control_c, 0, 64, 46
2,9588, Control_c, 0, 64, 46
2,9742, Note_on_c, 0, 67, 62
2,9755, Note_on_c, 0, 62, 48
2,9779, Note_on_c, 0, 59, 0
2,9915, Note_on_c, 0, 61, 51
2,9917, Note_on_c, 0, 62, 0
2,10093, Note_on_c, 0, 59, 50
2,10097, Control_c, 0, 64, 46
2,10106, Note_on_c, 0, 61, 0
2,10143, Control_c, 0, 64, 47
2,10218, Control_c, 0, 64, 47
2,10244, Note_on_c, 0, 59, 0
2,10255, Note_on_c, 0, 57, 46
2,10310, Control_c, 0, 64, 48
2,10478, Note_on_c, 0, 65, 44
2,10483, Note_on_c, 0, 62, 36
2,10495, Note_on_c, 0, 57, 0
2,10516, Note_on_c, 0, 67, 0
2,10553, Control_c, 0, 64, 48
2,10697, Control_c, 0, 64, 49
2,10833, Note_on_c, 0, 74, 49
2,10835, Note_on_c, 0, 50, 50
2,10866, Control_c, 0, 64, 49
2,11047, Control_c, 0, 64, 50
2,11176, Note_on_c, 0, 52, 61
2,11301, Note_on_c, 0, 50, 0
2,11322, Note_on_c, 0, 62, 0
2,11367, Note_on_c, 0, 72, 49
2,11408, Note_on_c, 0, 74, 0
2,11418, Note_on_c, 0, 65, 0
2,11535, Note_on_c, 0, 53, 65
2,11555, Note_on_c, 0, 70, 52
2,11561, Note_on_c, 0, 72, 0
2,11650, Note_on_c, 0, 52, 0
2,11693, Note_on_c, 0, 70, 0
2,11710, Note_on_c, 0, 69, 50
2,11798, Control_c, 0, 64, 49
2,11813, Control_c, 0, 64, 48
2,11829, Control_c, 0, 64, 47
2,11844, Control_c, 0, 64, 45
2,11859, Control_c, 0, 64, 43
2,11875, Control_c, 0, 64, 40
2,11879, Note_on_c, 0, 69, 0
2,11885, Note_on_c, 0, 55, 56
2,11890, Control_c, 0, 64, 34
2,11895, Note_on_c, 0, 72, 56
2,11906, Control_c, 0, 64, 28
2,11921, Control_c, 0, 64, 25
2,11935, Control_c, 0, 64, 21
2,11951, Control_c, 0, 64, 16
2,11960, Note_on_c, 0, 53, 0
2,11966, Control_c, 0, 64, 0
2,12052, Note_on_c, 0, 72, 0
2,12062, Note_on_c, 0, 70, 46
2,12243, Note_on_c, 0, 52, 58
2,12252, Note_on_c, 0, 69, 49
2,12258, Note_on_c, 0, 70, 0
2,12327, Note_on_c, 0, 55, 0
2,12404, Note_on_c, 0, 69, 0
2,12419, Note_on_c, 0, 67, 39
2,12597, Note_on_c, 0, 69, 56
2,12611, Note_on_c, 0, 53, 46
2,12638, Note_on_c, 0, 52, 0
2,12648, Note_on_c, 0, 67, 0
2,12781, Note_on_c, 0, 50, 59
2,12810, Note_on_c, 0, 53, 0
2,12949, Note_on_c, 0, 49, 58
2,12955, Note_on_c, 0, 65, 63
2,12971, Note_on_c, 0, 50, 0
2,13120, Note_on_c, 0, 50, 72
2,13133, Note_on_c, 0, 49, 0
2,13151, Note_on_c, 0, 69, 0
2,13167, Note_on_c, 0, 50, 0
2,13257, Control_c, 0, 64, 9
2,13273, Control_c, 0, 64, 11
2,13288, Control_c, 0, 64, 12
2,13300, Note_on_c, 0, 67, 60
2,13303, Control_c, 0, 64, 13
2,13317, Note_on_c, 0, 58, 67
2,13379, Control_c, 0, 64, 15
2,13409, Control_c, 0, 64, 16
2,13424, Control_c, 0, 64, 17
2,13440, Control_c, 0, 64, 18
2,13454, Control_c, 0, 64, 20
2,13470, Control_c, 0, 64, 22
2,13481, Note_on_c, 0, 64, 54
2,13485, Control_c, 0, 64, 23
2,13500, Control_c, 0, 64, 24
2,13515, Note_on_c, 0, 65, 0
2,13516, Control_c, 0, 64, 26
2,13530, Control_c, 0, 64, 26
2,13545, Control_c, 0, 64, 27
2,13561, Control_c, 0, 64, 28
2,13576, Control_c, 0, 64, 29
2,13592, Control_c, 0, 64, 30
2,13606, Control_c, 0, 64, 30
2,13616, Note_on_c, 0, 58, 0
2,13621, Control_c, 0, 64, 31
2,13637, Control_c, 0, 64, 32
2,13652, Note_on_c, 0, 64, 0
2,13672, Note_on_c, 0, 62, 45
2,13751, Control_c, 0, 64, 32
2,13797, Control_c, 0, 64, 33
2,13818, Note_on_c, 0, 62, 0
2,13823, Note_on_c, 0, 64, 50
2,13917, Note_on_c, 0, 64, 0
2,13950, Control_c, 0, 64, 33
2,14004, Note_on_c, 0, 57, 50
2,14010, Note_on_c, 0, 64, 48
2,14084, Note_on_c, 0, 57, 0
2,14097, Note_on_c, 0, 55, 54
2,14101, Control_c, 0, 64, 34
2,14144, Note_on_c, 0, 55, 0
2,14148, Note_on_c, 0, 64, 0
2,14169, Note_on_c, 0, 62, 53
2,14175, Note_on_c, 0, 57, 56
2,14177, Control_c, 0, 64, 34
2,14229, Note_on_c, 0, 57, 0
2,14251, Note_on_c, 0, 55, 51
2,14297, Note_on_c, 0, 55, 0
2,14303, Note_on_c, 0, 62, 0
2,14327, Note_on_c, 0, 57, 53
2,14342, Note_on_c, 0, 61, 39
2,14344, Control_c, 0, 64, 35
2,14370, Note_on_c, 0, 57, 0
2,14398, Note_on_c, 0, 55, 45
2,14405, Control_c, 0, 64, 35
2,14442, Note_on_c, 0, 61, 0
2,14455, Note_on_c, 0, 55, 0
2,14487, Note_on_c, 0, 53, 51
2,14515, Note_on_c, 0, 62, 51
2,14530, Note_on_c, 0, 53, 0
2,14563, Note_on_c, 0, 55, 50
2,14655, Note_on_c, 0, 62, 0
2,14677, Note_on_c, 0, 57, 44
2,14687, Note_on_c, 0, 61, 43
2,14715, Note_on_c, 0, 55, 0
2,14838, Control_c, 0, 64, 36
2,14853, Control_c, 0, 64, 37
2,14869, Control_c, 0, 64, 39
2,14884, Control_c, 0, 64, 40
2,14899, Control_c, 0, 64, 42
2,14915, Control_c, 0, 64, 44
2,14930, Control_c, 0, 64, 47
2,14944, Control_c, 0, 64, 48
2,14960, Control_c, 0, 64, 50
2,14975, Control_c, 0, 64, 51
2,14991, Control_c, 0, 64, 52
2,15006, Control_c, 0, 64, 53
2,15020, Control_c, 0, 64, 55
2,15023, Note_on_c, 0, 64, 57
2,15036, Control_c, 0, 64, 56
2,15051, Control_c, 0, 64, 57
2,15066, Control_c, 0, 64, 58
2,15081, Control_c, 0, 64, 59
2,15096, Control_c, 0, 64, 60
2,15112, Control_c, 0, 64, 61
2,15127, Control_c, 0, 64, 61
2,15142, Control_c, 0, 64, 62
2,15157, Control_c, 0, 64, 62
2,15172, Control_c, 0, 64, 63
2,15188, Control_c, 0, 64, 64
2,15203, Control_c, 0, 64, 64
2,15256, Control_c, 0, 64, 65
2,15261, Note_on_c, 0, 61, 0
2,15371, Note_on_c, 0, 65, 68
2,15392, Note_on_c, 0, 62, 44
2,15429, Note_on_c, 0, 64, 0
2,15440, Note_on_c, 0, 67, 0
2,15524, Note_on_c, 0, 55, 53
2,15594, Note_on_c, 0, 57, 0
2,15621, Control_c, 0, 64, 64
2,15652, Control_c, 0, 64, 64
2,15682, Control_c, 0, 64, 63
2,15697, Control_c, 0, 64, 63
2,15706, Note_on_c, 0, 67, 74
2,15709, Note_on_c, 0, 62, 0
2,15713, Control_c, 0, 64, 62
2,15713, Note_on_c, 0, 53, 46
2,15722, Note_on_c, 0, 64, 50
2,15728, Control_c, 0, 64, 62
2,15735, Note_on_c, 0, 65, 0
2,15743, Control_c, 0, 64, 61
2,15743, Note_on_c, 0, 55, 0
2,15759, Control_c, 0, 64, 60
2,15774, Control_c, 0, 64, 59
2,15789, Control_c, 0, 64, 57
2,15804, Control_c, 0, 64, 56
2,15819, Control_c, 0, 64, 56
2,15850, Control_c, 0, 64, 55
2,15864, Control_c, 0, 64, 55
2,15865, Note_on_c, 0, 52, 50
2,15869, Note_on_c, 0, 53, 0
2,15880, Control_c, 0, 64, 54
2,15895, Control_c, 0, 64, 54
2,15911, Control_c, 0, 64, 53
2,15956, Control_c, 0, 64, 53
2,15971, Control_c, 0, 64, 52
2,15986, Control_c, 0, 64, 52
2,16001, Control_c, 0, 64, 51
2,16040, Control_c, 0, 64, 51
2,16052, Note_on_c, 0, 55, 47
2,16055, Control_c, 0, 64, 50
2,16058, Note_on_c, 0, 69, 76
2,16068, Note_on_c, 0, 61, 50
2,16071, Control_c, 0, 64, 49
2,16077, Note_on_c, 0, 52, 0
2,16085, Control_c, 0, 64, 49
2,16100, Control_c, 0, 64, 48
2,16116, Control_c, 0, 64, 47
2,16130, Control_c, 0, 64, 46
2,16134, Note_on_c, 0, 64, 0
2,16137, Note_on_c, 0, 67, 0
2,16145, Control_c, 0, 64, 45
2,16161, Control_c, 0, 64, 44
2,16223, Note_on_c, 0, 55, 0
2,16226, Note_on_c, 0, 53, 51
2,16238, Control_c, 0, 64, 45
2,16269, Control_c, 0, 64, 45
2,16283, Control_c, 0, 64, 46
2,16314, Control_c, 0, 64, 46
2,16327, Note_on_c, 0, 61, 0
2,16375, Control_c, 0, 64, 47
2,16383, Note_on_c, 0, 65, 77
2,16396, Note_on_c, 0, 62, 54
2,16413, Note_on_c, 0, 52, 50
2,16415, Note_on_c, 0, 69, 0
2,16421, Note_on_c, 0, 53, 0
2,16466, Control_c, 0, 64, 47
2,16527, Control_c, 0, 64, 48
2,16551, Note_on_c, 0, 52, 0
2,16557, Control_c, 0, 64, 48
2,16563, Note_on_c, 0, 50, 51
2,16603, Control_c, 0, 64, 49
2,16751, Note_on_c, 0, 55, 51
2,16752, Note_on_c, 0, 70, 74
2,16753, Note_on_c, 0, 65, 0
2,16755, Control_c, 0, 64, 48
2,16757, Note_on_c, 0, 50, 0
2,16762, Note_on_c, 0, 63, 53
2,16808, Note_on_c, 0, 62, 0
2,16823, Control_c, 0, 64, 49
2,16839, Control_c, 0, 64, 51
2,16853, Control_c, 0, 64, 54
2,16869, Control_c, 0, 64, 58
2,16884, Control_c, 0, 64, 61
2,16899, Control_c, 0, 64, 63
2,16915, Control_c, 0, 64, 64
2,16925, Note_on_c, 0, 67, 80
2,16929, Control_c, 0, 64, 65
2,16944, Control_c, 0, 64, 65
2,16960, Control_c, 0, 64, 66
2,16966, Note_on_c, 0, 63, 0
2,16991, Control_c, 0, 64, 65
2,16997, Note_on_c, 0, 55, 0
2,17001, Note_on_c, 0, 70, 0
2,17006, Control_c, 0, 64, 65
2,17021, Control_c, 0, 64, 64
2,17037, Control_c, 0, 64, 63
2,17051, Control_c, 0, 64, 61
2,17066, Control_c, 0, 64, 60
2,17082, Control_c, 0, 64, 57
2,17093, Note_on_c, 0, 66, 75
2,17097, Control_c, 0, 64, 52
2,17105, Note_on_c, 0, 67, 0
2,17106, Note_on_c, 0, 58, 47
2,17113, Control_c, 0, 64, 46
2,17116, Note_on_c, 0, 62, 53
2,17127, Control_c, 0, 64, 38
2,17142, Control_c, 0, 64, 27
2,17158, Control_c, 0, 64, 15
2,17172, Control_c, 0, 64, 0
2,17188, Control_c, 0, 64, 16
2,17204, Control_c, 0, 64, 38
2,17219, Control_c, 0, 64, 56
2,17235, Control_c, 0, 64, 63
2,17250, Control_c, 0, 64, 67
2,17256, Note_on_c, 0, 67, 83
2,17265, Control_c, 0, 64, 71
2,17275, Note_on_c, 0, 66, 0
2,17280, Control_c, 0, 64, 77
2,17295, Control_c, 0, 64, 83
2,17311, Control_c, 0, 64, 89
2,17321, Note_on_c, 0, 62, 0
2,17321, Note_on_c, 0, 67, 0
2,17326, Control_c, 0, 64, 93
2,17371, Control_c, 0, 64, 92
2,17386, Control_c, 0, 64, 92
2,17401, Control_c, 0, 64, 91
2,17416, Control_c, 0, 64, 89
2,17432, Control_c, 0, 64, 87
2,17447, Control_c, 0, 64, 85
2,17462, Control_c, 0, 64, 82
2,17477, Control_c, 0, 64, 78
2,17492, Control_c, 0, 64, 75
2,17508, Control_c, 0, 64, 72
2,17519, Note_on_c, 0, 68, 66
2,17523, Control_c, 0, 64, 69
2,17529, Note_on_c, 0, 75, 78
2,17538, Control_c, 0, 64, 67
2,17561, Control_c, 0, 64, 65
2,17576, Control_c, 0, 64, 63
2,17584, Note_on_c, 0, 68, 0
2,17592, Control_c, 0, 64, 60
2,17607, Control_c, 0, 64, 57
2,17621, Control_c, 0, 64, 53
2,17637, Control_c, 0, 64, 50
2,17652, Control_c, 0, 64, 44
2,17668, Control_c, 0, 64, 32
2,17683, Control_c, 0, 64, 0
2,17758, Control_c, 0, 64, 40
2,17773, Control_c, 0, 64, 54
2,17778, Note_on_c, 0, 57, 50
2,17789, Control_c, 0, 64, 58
2,17804, Control_c, 0, 64, 59
2,17819, Control_c, 0, 64, 60
2,17822, Note_on_c, 0, 58, 0
2,17835, Control_c, 0, 64, 61
2,17850, Control_c, 0, 64, 62
2,17865, Control_c, 0, 64, 64
2,17880, Control_c, 0, 64, 65
2,17895, Control_c, 0, 64, 66
2,17911, Control_c, 0, 64, 67
2,17926, Control_c, 0, 64, 69
2,17929, Note_on_c, 0, 55, 35
2,17940, Control_c, 0, 64, 71
2,17944, Note_on_c, 0, 57, 0
2,17956, Control_c, 0, 64, 74
2,17971, Control_c, 0, 64, 77
2,17986, Control_c, 0, 64, 79
2,18002, Control_c, 0, 64, 80
2,18012, Note_on_c, 0, 75, 0
2,18077, Note_on_c, 0, 57, 52
2,18091, Note_on_c, 0, 55, 0
2,18124, Control_c, 0, 64, 80
2,18133, Note_on_c, 0, 57, 0
2,18139, Control_c, 0, 64, 79
2,18170, Control_c, 0, 64, 79
2,18185, Control_c, 0, 64, 78
2,18200, Control_c, 0, 64, 77
2,18215, Control_c, 0, 64, 76
2,18231, Control_c, 0, 64, 74
2,18245, Control_c, 0, 64, 71
2,18260, Control_c, 0, 64, 68
2,18262, Note_on_c, 0, 74, 68
2,18272, Note_on_c, 0, 57, 48
2,18276, Control_c, 0, 64, 65
2,18279, Note_on_c, 0, 64, 50
2,18291, Control_c, 0, 64, 61
2,18306, Control_c, 0, 64, 56
2,18329, Control_c, 0, 64, 50
2,18344, Control_c, 0, 64, 47
2,18354, Note_on_c, 0, 74, 0
2,18358, Note_on_c, 0, 73, 67
2,18360, Control_c, 0, 64, 44
2,18374, Control_c, 0, 64, 43
2,18403, Note_on_c, 0, 57, 0
2,18423, Note_on_c, 0, 55, 46
2,18428, Note_on_c, 0, 73, 0
2,18436, Note_on_c, 0, 74, 65
2,18451, Control_c, 0, 64, 43
2,18465, Control_c, 0, 64, 44
2,18481, Control_c, 0, 64, 45
2,18496, Control_c, 0, 64, 46
2,18511, Note_on_c, 0, 74, 0
2,18526, Note_on_c, 0, 73, 59
2,18552, Note_on_c, 0, 55, 0
2,18556, Control_c, 0, 64, 47
2,18571, Control_c, 0, 64, 48
2,18579, Note_on_c, 0, 53, 45
2,18583, Note_on_c, 0, 73, 0
2,18586, Control_c, 0, 64, 50
2,18602, Control_c, 0, 64, 51
2,18608, Note_on_c, 0, 74, 66
2,18617, Control_c, 0, 64, 52
2,18633, Control_c, 0, 64, 53
2,18648, Control_c, 0, 64, 53
2,18662, Control_c, 0, 64, 55
2,18678, Control_c, 0, 64, 56
2,18684, Note_on_c, 0, 74, 0
2,18693, Control_c, 0, 64, 57
2,18694, Note_on_c, 0, 73, 67
2,18709, Control_c, 0, 64, 57
2,18711, Note_on_c, 0, 53, 0
2,18739, Note_on_c, 0, 55, 50
2,18763, Note_on_c, 0, 73, 0
2,18770, Note_on_c, 0, 71, 68
2,18795, Note_on_c, 0, 55, 0
2,18857, Note_on_c, 0, 73, 64
2,18861, Note_on_c, 0, 71, 0
2,18906, Control_c, 0, 64, 57
2,18937, Control_c, 0, 64, 56
2,18940, Note_on_c, 0, 55, 37
2,18948, Note_on_c, 0, 73, 0
2,18949, Note_on_c, 0, 64, 0
2,18957, Note_on_c, 0, 74, 62
2,18967, Control_c, 0, 64, 56
2,18982, Control_c, 0, 64, 55
2,18998, Control_c, 0, 64, 54
2,19012, Control_c, 0, 64, 54
2,19028, Control_c, 0, 64, 53
2,19074, Control_c, 0, 64, 53
2,19096, Control_c, 0, 64, 52
2,19110, Note_on_c, 0, 55, 0
2,19133, Note_on_c, 0, 53, 39
2,19139, Note_on_c, 0, 69, 54
2,19217, Control_c, 0, 64, 52
2,19233, Control_c, 0, 64, 53
2,19248, Control_c, 0, 64, 53
2,19263, Control_c, 0, 64, 54
2,19279, Control_c, 0, 64, 54
2,19287, Note_on_c, 0, 69, 0
2,19293, Control_c, 0, 64, 55
2,19298, Note_on_c, 0, 52, 39
2,19309, Control_c, 0, 64, 56
2,19311, Note_on_c, 0, 53, 0
2,19312, Note_on_c, 0, 67, 48
2,19324, Control_c, 0, 64, 58
2,19339, Control_c, 0, 64, 60
2,19355, Control_c, 0, 64, 61
2,19369, Control_c, 0, 64, 63
2,19384, Control_c, 0, 64, 64
2,19400, Control_c, 0, 64, 65
2,19415, Control_c, 0, 64, 67
2,19431, Control_c, 0, 64, 68
2,19446, Control_c, 0, 64, 69
2,19449, Note_on_c, 0, 74, 0
2,19458, Note_on_c, 0, 52, 0
2,19458, Note_on_c, 0, 53, 41
2,19461, Control_c, 0, 64, 71
2,19468, Note_on_c, 0, 67, 0
2,19476, Control_c, 0, 64, 72
2,19477, Note_on_c, 0, 69, 51
2,19537, Control_c, 0, 64, 71
2,19568, Control_c, 0, 64, 71
2,19582, Control_c, 0, 64, 70
2,19598, Control_c, 0, 64, 69
2,19613, Control_c, 0, 64, 68
2,19628, Control_c, 0, 64, 67
2,19643, Control_c, 0, 64, 65
2,19658, Note_on_c, 0, 69, 0
2,19659, Control_c, 0, 64, 64
2,19664, Note_on_c, 0, 57, 39
2,19666, Note_on_c, 0, 74, 56
2,19670, Note_on_c, 0, 65, 46
2,19673, Note_on_c, 0, 53, 0
2,19675, Control_c, 0, 64, 62
2,19690, Control_c, 0, 64, 60
2,19705, Control_c, 0, 64, 57
2,19721, Control_c, 0, 64, 53
2,19735, Control_c, 0, 64, 48
2,19751, Control_c, 0, 64, 40
2,19766, Control_c, 0, 64, 26
2,19781, Control_c, 0, 64, 17
2,19797, Control_c, 0, 64, 16
2,19826, Control_c, 0, 64, 17
2,19842, Control_c, 0, 64, 20
2,19846, Note_on_c, 0, 55, 44
2,19846, Note_on_c, 0, 57, 0
2,19864, Control_c, 0, 64, 26
2,19880, Control_c, 0, 64, 35
2,19895, Control_c, 0, 64, 45
2,19911, Control_c, 0, 64, 52
2,19926, Control_c, 0, 64, 55
2,19940, Control_c, 0, 64, 57
2,19956, Control_c, 0, 64, 59
2,19971, Control_c, 0, 64, 61
2,19977, Note_on_c, 0, 55, 0
2,19986, Control_c, 0, 64, 63
2,19988, Note_on_c, 0, 74, 0
2,20002, Control_c, 0, 64, 65
2,20005, Note_on_c, 0, 53, 43
2,20016, Control_c, 0, 64, 66
2,20032, Control_c, 0, 64, 68
2,20048, Control_c, 0, 64, 70
2,20063, Control_c, 0, 64, 71
2,20065, Note_on_c, 0, 65, 0
2,20078, Control_c, 0, 64, 72
2,20144, Note_on_c, 0, 53, 0
2,20169, Note_on_c, 0, 55, 46
2,20184, Control_c, 0, 64, 71
2,20230, Control_c, 0, 64, 71
2,20234, Note_on_c, 0, 55, 0
2,20245, Control_c, 0, 64, 70
2,20260, Control_c, 0, 64, 70
2,20275, Control_c, 0, 64, 69
2,20290, Control_c, 0, 64, 68
2,20305, Control_c, 0, 64, 67
2,20321, Control_c, 0, 64, 66
2,20336, Control_c, 0, 64, 64
2,20341, Note_on_c, 0, 72, 55
2,20351, Control_c, 0, 64, 62
2,20358, Note_on_c, 0, 55, 45
2,20361, Note_on_c, 0, 62, 35
2,20366, Control_c, 0, 64, 60
2,20381, Control_c, 0, 64, 58
2,20397, Control_c, 0, 64, 56
2,20412, Control_c, 0, 64, 54
2,20421, Note_on_c, 0, 72, 0
2,20426, Control_c, 0, 64, 51
2,20430, Note_on_c, 0, 71, 57
2,20442, Control_c, 0, 64, 50
2,20457, Control_c, 0, 64, 49
2,20474, Control_c, 0, 64, 48
2,20489, Control_c, 0, 64, 48
2,20489, Note_on_c, 0, 55, 0
2,20503, Control_c, 0, 64, 47
2,20503, Note_on_c, 0, 71, 0
2,20516, Note_on_c, 0, 72, 61
2,20519, Control_c, 0, 64, 47
2,20519, Note_on_c, 0, 53, 46
2,20586, Note_on_c, 0, 72, 0
2,20606, Note_on_c, 0, 71, 56
2,20634, Control_c, 0, 64, 47
2,20638, Note_on_c, 0, 53, 0
2,20676, Note_on_c, 0, 71, 0
2,20679, Control_c, 0, 64, 48
2,20692, Note_on_c, 0, 52, 43
2,20694, Control_c, 0, 64, 49
2,20706, Note_on_c, 0, 72, 60
2,20709, Control_c, 0, 64, 51
2,20724, Control_c, 0, 64, 53
2,20739, Control_c, 0, 64, 54
2,20755, Control_c, 0, 64, 55
2,20766, Note_on_c, 0, 72, 0
2,20770, Control_c, 0, 64, 56
2,20784, Control_c, 0, 64, 57
2,20790, Note_on_c, 0, 71, 54
2,20832, Note_on_c, 0, 52, 0
2,20849, Note_on_c, 0, 53, 41
2,20850, Note_on_c, 0, 71, 0
2,20868, Note_on_c, 0, 69, 57
2,20898, Note_on_c, 0, 53, 0
2,20935, Note_on_c, 0, 69, 0
2,20946, Note_on_c, 0, 71, 55
2,20968, Control_c, 0, 64, 56
2,20998, Control_c, 0, 64, 56
2,21013, Control_c, 0, 64, 55
2,21021, Note_on_c, 0, 71, 0
2,21042, Note_on_c, 0, 53, 38
2,21043, Control_c, 0, 64, 55
2,21048, Note_on_c, 0, 72, 57
2,21058, Control_c, 0, 64, 54
2,21074, Control_c, 0, 64, 53
2,21089, Control_c, 0, 64, 52
2,21104, Control_c, 0, 64, 52
2,21134, Control_c, 0, 64, 51
2,21165, Control_c, 0, 64, 50
2,21175, Note_on_c, 0, 62, 0
2,21210, Control_c, 0, 64, 51
2,21210, Note_on_c, 0, 67, 42
2,21213, Note_on_c, 0, 52, 44
2,21221, Note_on_c, 0, 53, 0
2,21225, Control_c, 0, 64, 51
2,21240, Control_c, 0, 64, 52
2,21255, Control_c, 0, 64, 52
2,21271, Control_c, 0, 64, 54
2,21286, Control_c, 0, 64, 56
2,21302, Control_c, 0, 64, 57
2,21318, Control_c, 0, 64, 59
2,21333, Control_c, 0, 64, 60
2,21348, Control_c, 0, 64, 61
2,21363, Control_c, 0, 64, 62
2,21370, Note_on_c, 0, 52, 0
2,21370, Note_on_c, 0, 67, 0
2,21378, Control_c, 0, 64, 63
2,21400, Note_on_c, 0, 50, 39
2,21402, Control_c, 0, 64, 64
2,21405, Note_on_c, 0, 65, 40
2,21417, Control_c, 0, 64, 65
2,21432, Control_c, 0, 64, 65
2,21447, Control_c, 0, 64, 66
2,21462, Control_c, 0, 64, 67
2,21478, Control_c, 0, 64, 67
2,21508, Control_c, 0, 64, 68
2,21523, Control_c, 0, 64, 68
2,21538, Control_c, 0, 64, 69
2,21546, Note_on_c, 0, 65, 0
2,21553, Control_c, 0, 64, 69
2,21565, Note_on_c, 0, 52, 39
2,21568, Control_c, 0, 64, 70
2,21569, Note_on_c, 0, 67, 50
2,21569, Note_on_c, 0, 72, 0
2,21570, Note_on_c, 0, 50, 0
2,21631, Control_c, 0, 64, 69
2,21662, Control_c, 0, 64, 69
2,21677, Control_c, 0, 64, 68
2,21692, Control_c, 0, 64, 67
2,21708, Control_c, 0, 64, 66
2,21722, Control_c, 0, 64, 65
2,21737, Control_c, 0, 64, 64
2,21753, Control_c, 0, 64, 63
2,21757, Note_on_c, 0, 67, 0
2,21768, Control_c, 0, 64, 61
2,21768, Note_on_c, 0, 72, 55
2,21774, Note_on_c, 0, 55, 38
2,21777, Note_on_c, 0, 52, 0
2,21777, Note_on_c, 0, 63, 37
2,21784, Control_c, 0, 64, 59
2,21799, Control_c, 0, 64, 56
2,21814, Control_c, 0, 64, 52
2,21830, Control_c, 0, 64, 49
2,21844, Control_c, 0, 64, 46
2,21859, Control_c, 0, 64, 44
2,21875, Control_c, 0, 64, 44
2,21905, Control_c, 0, 64, 44
2,21920, Control_c, 0, 64, 45
2,21935, Control_c, 0, 64, 47
2,21939, Note_on_c, 0, 55, 0
2,21950, Note_on_c, 0, 53, 39
2,21951, Control_c, 0, 64, 50
2,21965, Control_c, 0, 64, 56
2,21981, Control_c, 0, 64, 59
2,21996, Control_c, 0, 64, 61
2,22011, Control_c, 0, 64, 63
2,22027, Control_c, 0, 64, 64
2,22041, Control_c, 0, 64, 65
2,22053, Note_on_c, 0, 72, 0
2,22056, Control_c, 0, 64, 67
2,22072, Control_c, 0, 64, 69
2,22086, Control_c, 0, 64, 70
2,22102, Control_c, 0, 64, 72
2,22110, Note_on_c, 0, 51, 51
2,22117, Note_on_c, 0, 53, 0
2,22119, Control_c, 0, 64, 74
2,22133, Control_c, 0, 64, 77
2,22134, Note_on_c, 0, 63, 0
2,22149, Control_c, 0, 64, 79
2,22172, Control_c, 0, 64, 80
2,22188, Control_c, 0, 64, 81
2,22202, Control_c, 0, 64, 81
2,22276, Note_on_c, 0, 51, 0
2,22278, Control_c, 0, 64, 81
2,22288, Note_on_c, 0, 53, 48
2,22309, Control_c, 0, 64, 80
2,22323, Control_c, 0, 64, 80
2,22332, Note_on_c, 0, 53, 0
2,22338, Control_c, 0, 64, 79
2,22354, Control_c, 0, 64, 78
2,22369, Control_c, 0, 64, 76
2,22385, Control_c, 0, 64, 73
2,22399, Control_c, 0, 64, 71
2,22414, Control_c, 0, 64, 69
2,22430, Control_c, 0, 64, 67
2,22445, Control_c, 0, 64, 65
2,22461, Control_c, 0, 64, 63
2,22474, Note_on_c, 0, 70, 49
2,22475, Control_c, 0, 64, 61
2,22482, Note_on_c, 0, 60, 28
2,22483, Note_on_c, 0, 53, 43
2,22490, Control_c, 0, 64, 59
2,22506, Control_c, 0, 64, 58
2,22521, Control_c, 0, 64, 57
2,22535, Control_c, 0, 64, 56
2,22543, Note_on_c, 0, 69, 65
2,22549, Note_on_c, 0, 70, 0
2,22551, Control_c, 0, 64, 55
2,22582, Note_on_c, 0, 53, 0
2,22612, Control_c, 0, 64, 55
2,22627, Note_on_c, 0, 69, 0
2,22630, Note_on_c, 0, 70, 65
2,22639, Note_on_c, 0, 51, 43
2,22704, Control_c, 0, 64, 55
2,22710, Note_on_c, 0, 70, 0
2,22714, Note_on_c, 0, 69, 61
2,22764, Control_c, 0, 64, 56
2,22766, Note_on_c, 0, 51, 0
2,22787, Note_on_c, 0, 69, 0
2,22795, Control_c, 0, 64, 56
2,22795, Note_on_c, 0, 70, 70
2,22796, Note_on_c, 0, 50, 44
2,22840, Control_c, 0, 64, 57
2,22870, Note_on_c, 0, 70, 0
2,22871, Control_c, 0, 64, 57
2,22875, Note_on_c, 0, 69, 61
2,22901, Control_c, 0, 64, 58
2,22952, Note_on_c, 0, 50, 0
2,22958, Note_on_c, 0, 51, 49
2,22963, Note_on_c, 0, 69, 0
2,22979, Note_on_c, 0, 67, 62
2,23008, Note_on_c, 0, 51, 0
2,23046, Control_c, 0, 64, 57
2,23047, Note_on_c, 0, 69, 60
2,23053, Note_on_c, 0, 67, 0
2,23092, Control_c, 0, 64, 57
2,23108, Control_c, 0, 64, 56
2,23118, Note_on_c, 0, 60, 0
2,23138, Note_on_c, 0, 69, 0
2,23145, Note_on_c, 0, 70, 70
2,23164, Note_on_c, 0, 51, 50
2,23273, Control_c, 0, 64, 57
2,23306, Note_on_c, 0, 50, 66
2,23311, Note_on_c, 0, 51, 0
2,23364, Control_c, 0, 64, 56
2,23480, Note_on_c, 0, 49, 64
2,23487, Note_on_c, 0, 69, 84
2,23518, Note_on_c, 0, 50, 0
2,23575, Control_c, 0, 64, 56
2,23606, Control_c, 0, 64, 55
2,23622, Control_c, 0, 64, 55
2,23637, Control_c, 0, 64, 54
2,23641, Note_on_c, 0, 50, 77
2,23663, Note_on_c, 0, 49, 0
2,23682, Control_c, 0, 64, 54
2,23703, Note_on_c, 0, 50, 0
2,23706, Control_c, 0, 64, 53
2,23721, Control_c, 0, 64, 53
2,23828, Control_c, 0, 64, 52
2,23835, Note_on_c, 0, 67, 70
2,23843, Control_c, 0, 64, 52
2,23852, Note_on_c, 0, 58, 77
2,23858, Control_c, 0, 64, 51
2,23874, Control_c, 0, 64, 50
2,23875, Note_on_c, 0, 69, 0
2,23889, Control_c, 0, 64, 50
2,24041, Control_c, 0, 64, 50
2,24086, Control_c, 0, 64, 51
2,24092, Note_on_c, 0, 58, 0
2,24173, Note_on_c, 0, 67, 0
2,24184, Note_on_c, 0, 65, 60
2,24315, Control_c, 0, 64, 51
2,24406, Control_c, 0, 64, 52
2,24421, Control_c, 0, 64, 52
2,24489, Control_c, 0, 64, 53
2,24545, Note_on_c, 0, 64, 63
2,24548, Note_on_c, 0, 65, 0
2,24550, Control_c, 0, 64, 53
2,24550, Note_on_c, 0, 57, 61
2,24630, Note_on_c, 0, 57, 0
2,24639, Note_on_c, 0, 55, 59
2,24691, Note_on_c, 0, 55, 0
2,24728, Note_on_c, 0, 57, 59
2,24779, Note_on_c, 0, 57, 0
2,24808, Note_on_c, 0, 55, 55
2,24850, Note_on_c, 0, 55, 0
2,24857, Note_on_c, 0, 67, 57
2,24859, Note_on_c, 0, 64, 0
2,24893, Note_on_c, 0, 57, 55
2,24934, Note_on_c, 0, 57, 0
2,24967, Note_on_c, 0, 55, 47
2,24991, Control_c, 0, 64, 54
2,25014, Note_on_c, 0, 55, 0
2,25046, Note_on_c, 0, 53, 49
2,25091, Note_on_c, 0, 53, 0
2,25116, Note_on_c, 0, 55, 50
2,25228, Note_on_c, 0, 61, 43
2,25244, Note_on_c, 0, 67, 0
2,25247, Note_on_c, 0, 57, 39
2,25250, Note_on_c, 0, 55, 0
2,25364, Control_c, 0, 64, 55
2,25379, Control_c, 0, 64, 56
2,25395, Control_c, 0, 64, 57
2,25410, Control_c, 0, 64, 57
2,25425, Control_c, 0, 64, 58
2,25440, Control_c, 0, 64, 59
2,25455, Control_c, 0, 64, 59
2,25471, Control_c, 0, 64, 60
2,25486, Control_c, 0, 64, 61
2,25500, Control_c, 0, 64, 61
2,25516, Control_c, 0, 64, 62
2,25547, Control_c, 0, 64, 62
2,25562, Control_c, 0, 64, 63
2,25576, Control_c, 0, 64, 63
2,25591, Note_on_c, 0, 69, 64
2,25592, Control_c, 0, 64, 64
2,25606, Note_on_c, 0, 70, 0
2,25607, Control_c, 0, 64, 65
2,25622, Control_c, 0, 64, 65
2,25637, Control_c, 0, 64, 67
2,25652, Control_c, 0, 64, 68
2,25668, Control_c, 0, 64, 70
2,25683, Control_c, 0, 64, 72
2,25697, Control_c, 0, 64, 75
2,25713, Control_c, 0, 64, 77
2,25728, Control_c, 0, 64, 79
2,25744, Control_c, 0, 64, 82
2,25759, Control_c, 0, 64, 83
2,25773, Control_c, 0, 64, 84
2,25804, Control_c, 0, 64, 83
2,25850, Control_c, 0, 64, 83
2,25866, Control_c, 0, 64, 82
2,25880, Control_c, 0, 64, 81
2,25895, Control_c, 0, 64, 81
2,25902, Note_on_c, 0, 61, 0
2,25911, Control_c, 0, 64, 80
2,25926, Control_c, 0, 64, 80
2,25935, Note_on_c, 0, 71, 70
2,25942, Control_c, 0, 64, 79
2,25946, Note_on_c, 0, 62, 50
2,25957, Control_c, 0, 64, 79
2,25971, Control_c, 0, 64, 78
2,26009, Control_c, 0, 64, 78
2,26114, Note_on_c, 0, 55, 52
2,26116, Control_c, 0, 64, 77
2,26134, Note_on_c, 0, 62, 0
2,26147, Control_c, 0, 64, 77
2,26162, Control_c, 0, 64, 76
2,26177, Control_c, 0, 64, 75
2,26192, Control_c, 0, 64, 74
2,26207, Control_c, 0, 64, 73
2,26223, Control_c, 0, 64, 73
2,26239, Note_on_c, 0, 57, 0
2,26284, Control_c, 0, 64, 72
2,26287, Note_on_c, 0, 73, 86
2,26299, Note_on_c, 0, 64, 57
2,26309, Note_on_c, 0, 53, 45
2,26315, Control_c, 0, 64, 73
2,26322, Note_on_c, 0, 55, 0
2,26336, Note_on_c, 0, 71, 0
2,26343, Note_on_c, 0, 69, 0
2,26375, Control_c, 0, 64, 73
2,26420, Control_c, 0, 64, 74
2,26434, Note_on_c, 0, 53, 0
2,26449, Note_on_c, 0, 52, 54
2,26557, Control_c, 0, 64, 73
2,26588, Control_c, 0, 64, 73
2,26603, Control_c, 0, 64, 72
2,26610, Note_on_c, 0, 57, 51
2,26611, Note_on_c, 0, 55, 52
2,26615, Note_on_c, 0, 52, 0
2,26617, Control_c, 0, 64, 71
2,26633, Control_c, 0, 64, 69
2,26648, Control_c, 0, 64, 67
2,26664, Control_c, 0, 64, 65
2,26673, Note_on_c, 0, 74, 85
2,26678, Control_c, 0, 64, 63
2,26693, Control_c, 0, 64, 60
2,26709, Control_c, 0, 64, 55
2,26724, Control_c, 0, 64, 47
2,26733, Note_on_c, 0, 73, 0
2,26739, Control_c, 0, 64, 26
2,26752, Note_on_c, 0, 64, 0
2,26755, Control_c, 0, 64, 0
2,26863, Note_on_c, 0, 53, 51
2,26869, Note_on_c, 0, 55, 0
2,27032, Note_on_c, 0, 71, 84
2,27039, Note_on_c, 0, 53, 0
2,27051, Note_on_c, 0, 52, 51
2,27094, Note_on_c, 0, 74, 0
2,27205, Note_on_c, 0, 52, 0
2,27223, Note_on_c, 0, 50, 48
2,27389, Note_on_c, 0, 52, 37
2,27393, Note_on_c, 0, 50, 0
2,27409, Note_on_c, 0, 73, 71
2,27437, Note_on_c, 0, 57, 0
2,27463, Note_on_c, 0, 71, 0
2,27584, Note_on_c, 0, 69, 74
2,27652, Note_on_c, 0, 73, 0
2,27736, Note_on_c, 0, 52, 0
2,27752, Note_on_c, 0, 64, 71
2,27759, Note_on_c, 0, 68, 67
2,27766, Note_on_c, 0, 49, 42
2,27797, Note_on_c, 0, 69, 0
2,27851, Control_c, 0, 64, 23
2,27867, Control_c, 0, 64, 46
2,27882, Control_c, 0, 64, 57
2,27897, Control_c, 0, 64, 62
2,27912, Control_c, 0, 64, 65
2,27920, Note_on_c, 0, 69, 82
2,27927, Control_c, 0, 64, 68
2,27943, Control_c, 0, 64, 72
2,27957, Control_c, 0, 64, 76
2,27968, Note_on_c, 0, 68, 0
2,27972, Control_c, 0, 64, 80
2,27974, Note_on_c, 0, 64, 0
2,27988, Control_c, 0, 64, 80
2,27989, Note_on_c, 0, 69, 0
2,27991, Note_on_c, 0, 49, 0
2,28003, Control_c, 0, 64, 79
2,28018, Control_c, 0, 64, 78
2,28033, Control_c, 0, 64, 77
2,28048, Control_c, 0, 64, 74
2,28064, Control_c, 0, 64, 71
2,28079, Control_c, 0, 64, 67
2,28094, Control_c, 0, 64, 64
2,28108, Note_on_c, 0, 50, 54
2,28110, Control_c, 0, 64, 61
2,28114, Note_on_c, 0, 62, 61
2,28117, Note_on_c, 0, 77, 78
2,28124, Control_c, 0, 64, 57
2,28139, Control_c, 0, 64, 50
2,28155, Control_c, 0, 64, 36
2,28170, Control_c, 0, 64, 0
2,28262, Control_c, 0, 64, 48
2,28277, Control_c, 0, 64, 60
2,28291, Control_c, 0, 64, 64
2,28314, Control_c, 0, 64, 65
2,28329, Control_c, 0, 64, 67
2,28345, Control_c, 0, 64, 69
2,28360, Control_c, 0, 64, 71
2,28363, Note_on_c, 0, 62, 0
2,28375, Control_c, 0, 64, 72
2,28391, Control_c, 0, 64, 73
2,28436, Control_c, 0, 64, 73
2,28451, Control_c, 0, 64, 74
2,28467, Control_c, 0, 64, 74
2,28469, Note_on_c, 0, 77, 0
2,28473, Note_on_c, 0, 52, 60
2,28476, Note_on_c, 0, 61, 73
2,28482, Control_c, 0, 64, 75
2,28496, Control_c, 0, 64, 76
2,28512, Control_c, 0, 64, 76
2,28527, Control_c, 0, 64, 77
2,28542, Note_on_c, 0, 50, 0
2,28543, Control_c, 0, 64, 78
2,28558, Control_c, 0, 64, 79
2,28572, Control_c, 0, 64, 80
2,28588, Control_c, 0, 64, 81
2,28634, Control_c, 0, 64, 80
2,28680, Control_c, 0, 64, 80
2,28695, Control_c, 0, 64, 79
2,28711, Control_c, 0, 64, 79
2,28717, Note_on_c, 0, 61, 0
2,28726, Control_c, 0, 64, 78
2,28740, Control_c, 0, 64, 77
2,28756, Control_c, 0, 64, 76
2,28771, Control_c, 0, 64, 73
2,28787, Control_c, 0, 64, 70
2,28794, Note_on_c, 0, 52, 0
2,28798, Note_on_c, 0, 76, 78
2,28801, Control_c, 0, 64, 66
2,28809, Note_on_c, 0, 59, 56
2,28810, Note_on_c, 0, 53, 59
2,28816, Control_c, 0, 64, 61
2,28832, Control_c, 0, 64, 51
2,28847, Control_c, 0, 64, 41
2,28863, Control_c, 0, 64, 35
2,28877, Control_c, 0, 64, 35
2,28887, Note_on_c, 0, 74, 75
2,28892, Control_c, 0, 64, 44
2,28898, Note_on_c, 0, 76, 0
2,28908, Control_c, 0, 64, 56
2,28922, Control_c, 0, 64, 62
2,28937, Control_c, 0, 64, 65
2,28953, Control_c, 0, 64, 66
2,28968, Control_c, 0, 64, 67
2,28968, Note_on_c, 0, 74, 0
2,28979, Note_on_c, 0, 76, 79
2,29011, Note_on_c, 0, 59, 0
2,29056, Note_on_c, 0, 76, 0
2,29060, Note_on_c, 0, 74, 79
2,29082, Control_c, 0, 64, 66
2,29097, Control_c, 0, 64, 66
2,29113, Control_c, 0, 64, 65
2,29128, Control_c, 0, 64, 62
2,29135, Note_on_c, 0, 74, 0
2,29143, Control_c, 0, 64, 55
2,29146, Note_on_c, 0, 50, 51
2,29151, Note_on_c, 0, 62, 58
2,29153, Note_on_c, 0, 76, 73
2,29158, Control_c, 0, 64, 42
2,29173, Control_c, 0, 64, 32
2,29176, Note_on_c, 0, 53, 0
2,29189, Control_c, 0, 64, 31
2,29204, Control_c, 0, 64, 33
2,29219, Control_c, 0, 64, 45
2,29234, Control_c, 0, 64, 56
2,29234, Note_on_c, 0, 74, 81
2,29242, Note_on_c, 0, 50, 0
2,29249, Control_c, 0, 64, 62
2,29265, Control_c, 0, 64, 64
2,29265, Note_on_c, 0, 76, 0
2,29280, Control_c, 0, 64, 66
2,29294, Control_c, 0, 64, 68
2,29310, Control_c, 0, 64, 69
2,29311, Note_on_c, 0, 74, 0
2,29318, Note_on_c, 0, 73, 80
2,29325, Control_c, 0, 64, 70
2,29386, Control_c, 0, 64, 69
2,29405, Note_on_c, 0, 73, 0
2,29411, Note_on_c, 0, 74, 81
2,29415, Control_c, 0, 64, 69
2,29431, Control_c, 0, 64, 68
2,29446, Control_c, 0, 64, 67
2,29462, Control_c, 0, 64, 65
2,29477, Control_c, 0, 64, 62
2,29493, Control_c, 0, 64, 52
2,29494, Note_on_c, 0, 76, 84
2,29499, Note_on_c, 0, 57, 48
2,29503, Note_on_c, 0, 61, 48
2,29508, Control_c, 0, 64, 38
2,29508, Note_on_c, 0, 74, 0
2,29515, Note_on_c, 0, 62, 0
2,29523, Control_c, 0, 64, 26
2,29538, Control_c, 0, 64, 13
2,29554, Control_c, 0, 64, 11
2,29568, Control_c, 0, 64, 22
2,29584, Control_c, 0, 64, 44
2,29599, Control_c, 0, 64, 60
2,29614, Control_c, 0, 64, 64
2,29630, Control_c, 0, 64, 66
2,29644, Control_c, 0, 64, 67
2,29659, Control_c, 0, 64, 69
2,29675, Control_c, 0, 64, 70
2,29675, Note_on_c, 0, 64, 64
2,29687, Note_on_c, 0, 61, 0
2,29690, Control_c, 0, 64, 71
2,29706, Control_c, 0, 64, 70
2,29728, Note_on_c, 0, 76, 0
2,29766, Control_c, 0, 64, 70
2,29797, Control_c, 0, 64, 69
2,29812, Control_c, 0, 64, 68
2,29828, Control_c, 0, 64, 66
2,29843, Control_c, 0, 64, 63
2,29853, Note_on_c, 0, 65, 57
2,29865, Control_c, 0, 64, 56
2,29869, Note_on_c, 0, 81, 89
2,29880, Control_c, 0, 64, 52
2,29895, Control_c, 0, 64, 53
2,29896, Note_on_c, 0, 64, 0
2,29911, Control_c, 0, 64, 56
2,29925, Control_c, 0, 64, 61
2,29940, Control_c, 0, 64, 64
2,29956, Control_c, 0, 64, 67
2,29971, Control_c, 0, 64, 70
2,29987, Control_c, 0, 64, 74
2,30002, Control_c, 0, 64, 77
2,30017, Control_c, 0, 64, 78
2,30022, Note_on_c, 0, 64, 72
2,30027, Note_on_c, 0, 65, 0
2,30033, Control_c, 0, 64, 79
2,30047, Control_c, 0, 64, 80
2,30067, Note_on_c, 0, 64, 0
2,30075, Note_on_c, 0, 57, 0
2,30078, Control_c, 0, 64, 80
2,30093, Control_c, 0, 64, 79
2,30109, Control_c, 0, 64, 78
2,30124, Control_c, 0, 64, 78
2,30138, Control_c, 0, 64, 76
2,30154, Control_c, 0, 64, 75
2,30169, Control_c, 0, 64, 74
2,30184, Control_c, 0, 64, 71
2,30199, Control_c, 0, 64, 68
2,30210, Note_on_c, 0, 57, 62
2,30214, Control_c, 0, 64, 65
2,30230, Control_c, 0, 64, 63
2,30237, Note_on_c, 0, 54, 56
2,30245, Control_c, 0, 64, 59
2,30259, Control_c, 0, 64, 52
2,30275, Control_c, 0, 64, 39
2,30290, Control_c, 0, 64, 29
2,30307, Control_c, 0, 64, 27
2,30322, Control_c, 0, 64, 34
2,30337, Control_c, 0, 64, 50
2,30353, Control_c, 0, 64, 60
2,30367, Control_c, 0, 64, 65
2,30383, Control_c, 0, 64, 67
2,30398, Control_c, 0, 64, 70
2,30399, Note_on_c, 0, 79, 84
2,30412, Control_c, 0, 64, 72
2,30418, Note_on_c, 0, 81, 0
2,30428, Control_c, 0, 64, 73
2,30474, Control_c, 0, 64, 73
2,30519, Control_c, 0, 64, 72
2,30534, Control_c, 0, 64, 72
2,30550, Control_c, 0, 64, 71
2,30561, Note_on_c, 0, 52, 55
2,30564, Control_c, 0, 64, 70
2,30586, Note_on_c, 0, 78, 87
2,30595, Control_c, 0, 64, 71
2,30607, Note_on_c, 0, 54, 0
2,30633, Control_c, 0, 64, 71
2,30679, Control_c, 0, 64, 72
2,30693, Control_c, 0, 64, 72
2,30699, Note_on_c, 0, 57, 0
2,30709, Control_c, 0, 64, 73
2,30710, Note_on_c, 0, 79, 0
2,30724, Control_c, 0, 64, 73
2,30739, Control_c, 0, 64, 74
2,30755, Control_c, 0, 64, 76
2,30757, Note_on_c, 0, 76, 92
2,30769, Control_c, 0, 64, 77
2,30788, Note_on_c, 0, 78, 0
2,30815, Control_c, 0, 64, 77
2,30831, Control_c, 0, 64, 76
2,30845, Control_c, 0, 64, 76
2,30860, Control_c, 0, 64, 75
2,30876, Control_c, 0, 64, 74
2,30891, Control_c, 0, 64, 73
2,30907, Control_c, 0, 64, 72
2,30916, Note_on_c, 0, 60, 51
2,30921, Note_on_c, 0, 50, 49
2,30922, Control_c, 0, 64, 71
2,30937, Control_c, 0, 64, 69
2,30945, Note_on_c, 0, 79, 79
2,30952, Control_c, 0, 64, 67
2,30953, Note_on_c, 0, 76, 0
2,30965, Note_on_c, 0, 52, 0
2,30967, Control_c, 0, 64, 65
2,30983, Control_c, 0, 64, 61
2,30998, Control_c, 0, 64, 53
2,31013, Control_c, 0, 64, 43
2,31028, Control_c, 0, 64, 36
2,31043, Control_c, 0, 64, 37
2,31058, Control_c, 0, 64, 45
2,31074, Control_c, 0, 64, 55
2,31089, Control_c, 0, 64, 62
2,31104, Control_c, 0, 64, 65
2,31108, Note_on_c, 0, 78, 86
2,31119, Control_c, 0, 64, 67
2,31135, Control_c, 0, 64, 69
2,31151, Control_c, 0, 64, 70
2,31166, Control_c, 0, 64, 72
2,31182, Control_c, 0, 64, 74
2,31197, Control_c, 0, 64, 74
2,31211, Control_c, 0, 64, 75
2,31257, Note_on_c, 0, 54, 48
2,31265, Note_on_c, 0, 50, 0
2,31272, Control_c, 0, 64, 75
2,31280, Note_on_c, 0, 76, 86
2,31323, Note_on_c, 0, 78, 0
2,31335, Note_on_c, 0, 79, 0
2,31348, Control_c, 0, 64, 75
2,31356, Note_on_c, 0, 54, 0
2,31387, Control_c, 0, 64, 74
2,31416, Control_c, 0, 64, 74
2,31447, Control_c, 0, 64, 73
2,31468, Note_on_c, 0, 74, 91
2,31477, Control_c, 0, 64, 73
2,31484, Note_on_c, 0, 76, 0
2,31553, Control_c, 0, 64, 72
2,31585, Control_c, 0, 64, 72
2,31599, Control_c, 0, 64, 71
2,31614, Control_c, 0, 64, 70
2,31630, Control_c, 0, 64, 69
2,31645, Control_c, 0, 64, 68
2,31652, Note_on_c, 0, 55, 41
2,31659, Control_c, 0, 64, 67
2,31663, Note_on_c, 0, 58, 43
2,31675, Control_c, 0, 64, 67
2,31687, Note_on_c, 0, 60, 0
2,31690, Control_c, 0, 64, 66
2,31706, Control_c, 0, 64, 64
2,31721, Control_c, 0, 64, 61
2,31721, Note_on_c, 0, 75, 87
2,31736, Control_c, 0, 64, 54
2,31751, Control_c, 0, 64, 44
2,31766, Control_c, 0, 64, 36
2,31771, Note_on_c, 0, 74, 0
2,31782, Control_c, 0, 64, 35
2,31796, Control_c, 0, 64, 45
2,31811, Control_c, 0, 64, 56
2,31827, Control_c, 0, 64, 62
2,31842, Control_c, 0, 64, 64
2,31857, Control_c, 0, 64, 66
2,31873, Control_c, 0, 64, 67
2,31904, Control_c, 0, 64, 68
2,31919, Control_c, 0, 64, 68
2,31934, Control_c, 0, 64, 69
2,31950, Control_c, 0, 64, 68
2,31965, Control_c, 0, 64, 67
2,31979, Control_c, 0, 64, 66
2,31995, Control_c, 0, 64, 64
2,31998, Note_on_c, 0, 84, 88
2,32010, Control_c, 0, 64, 64
2,32015, Note_on_c, 0, 62, 47
2,32026, Control_c, 0, 64, 66
2,32035, Note_on_c, 0, 75, 0
2,32041, Control_c, 0, 64, 67
2,32056, Control_c, 0, 64, 68
2,32063, Note_on_c, 0, 58, 0
2,32072, Control_c, 0, 64, 68
2,32132, Control_c, 0, 64, 68
2,32155, Control_c, 0, 64, 67
2,32170, Control_c, 0, 64, 66
2,32185, Control_c, 0, 64, 65
2,32200, Control_c, 0, 64, 64
2,32206, Note_on_c, 0, 63, 46
2,32215, Control_c, 0, 64, 62
2,32222, Note_on_c, 0, 82, 74
2,32231, Control_c, 0, 64, 61
2,32246, Control_c, 0, 64, 59
2,32252, Note_on_c, 0, 62, 0
2,32262, Control_c, 0, 64, 57
2,32276, Control_c, 0, 64, 54
2,32277, Note_on_c, 0, 84, 0
2,32291, Control_c, 0, 64, 51
2,32307, Control_c, 0, 64, 49
2,32322, Control_c, 0, 64, 48
2,32353, Control_c, 0, 64, 50
2,32368, Control_c, 0, 64, 52
2,32379, Note_on_c, 0, 63, 0
2,32383, Control_c, 0, 64, 55
2,32384, Note_on_c, 0, 62, 55
2,32398, Control_c, 0, 64, 58
2,32413, Control_c, 0, 64, 60
2,32429, Control_c, 0, 64, 61
2,32443, Control_c, 0, 64, 62
2,32458, Control_c, 0, 64, 63
2,32474, Control_c, 0, 64, 63
2,32515, Note_on_c, 0, 62, 0
2,32534, Control_c, 0, 64, 63
2,32554, Note_on_c, 0, 55, 0
2,32565, Control_c, 0, 64, 62
2,32571, Note_on_c, 0, 56, 53
2,32576, Note_on_c, 0, 59, 48
2,32580, Control_c, 0, 64, 62
2,32595, Control_c, 0, 64, 61
2,32610, Control_c, 0, 64, 60
2,32626, Control_c, 0, 64, 59
2,32640, Control_c, 0, 64, 58
2,32655, Control_c, 0, 64, 56
2,32671, Control_c, 0, 64, 56
2,32686, Control_c, 0, 64, 55
2,32702, Control_c, 0, 64, 55
2,32732, Control_c, 0, 64, 55
2,32745, Note_on_c, 0, 81, 68
2,32748, Control_c, 0, 64, 56
2,32778, Control_c, 0, 64, 55
2,32779, Note_on_c, 0, 82, 0
2,32839, Control_c, 0, 64, 55
2,32854, Control_c, 0, 64, 54
2,32870, Control_c, 0, 64, 54
2,32931, Note_on_c, 0, 54, 44
2,32939, Note_on_c, 0, 56, 0
2,32940, Note_on_c, 0, 80, 69
2,32964, Note_on_c, 0, 81, 0
2,32968, Control_c, 0, 64, 55
2,32984, Control_c, 0, 64, 57
2,32999, Control_c, 0, 64, 59
2,33014, Control_c, 0, 64, 61
2,33029, Control_c, 0, 64, 62
2,33044, Control_c, 0, 64, 63
2,33059, Control_c, 0, 64, 64
2,33075, Control_c, 0, 64, 65
2,33089, Control_c, 0, 64, 65
2,33105, Control_c, 0, 64, 66
2,33117, Note_on_c, 0, 78, 69
2,33127, Note_on_c, 0, 80, 0
2,33166, Control_c, 0, 64, 65
2,33197, Control_c, 0, 64, 65
2,33212, Control_c, 0, 64, 64
2,33227, Control_c, 0, 64, 64
2,33257, Control_c, 0, 64, 63
2,33273, Control_c, 0, 64, 63
2,33273, Note_on_c, 0, 52, 37
2,33287, Control_c, 0, 64, 62
2,33290, Note_on_c, 0, 64, 34
2,33298, Note_on_c, 0, 81, 59
2,33303, Control_c, 0, 64, 61
2,33303, Note_on_c, 0, 78, 0
2,33307, Note_on_c, 0, 54, 0
2,33333, Control_c, 0, 64, 61
2,33349, Control_c, 0, 64, 60
2,33363, Control_c, 0, 64, 58
2,33378, Control_c, 0, 64, 57
2,33386, Note_on_c, 0, 59, 0
2,33425, Control_c, 0, 64, 57
2,33439, Control_c, 0, 64, 56
2,33454, Control_c, 0, 64, 55
2,33475, Note_on_c, 0, 80, 64
2,33481, Note_on_c, 0, 81, 0
2,33530, Control_c, 0, 64, 54
2,33648, Note_on_c, 0, 56, 37
2,33657, Note_on_c, 0, 78, 57
2,33690, Note_on_c, 0, 80, 0
2,33751, Note_on_c, 0, 52, 0
2,33827, Note_on_c, 0, 78, 0
2,33830, Note_on_c, 0, 76, 52
2,33977, Note_on_c, 0, 56, 0
2,34013, Note_on_c, 0, 57, 34
2,34025, Note_on_c, 0, 74, 56
2,34054, Control_c, 0, 64, 55
2,34065, Note_on_c, 0, 76, 0
2,34069, Control_c, 0, 64, 56
2,34084, Control_c, 0, 64, 59
2,34099, Control_c, 0, 64, 62
2,34115, Control_c, 0, 64, 64
2,34129, Control_c, 0, 64, 65
2,34145, Control_c, 0, 64, 67
2,34160, Control_c, 0, 64, 68
2,34169, Note_on_c, 0, 64, 0
2,34175, Control_c, 0, 64, 70
2,34182, Note_on_c, 0, 57, 0
2,34191, Control_c, 0, 64, 71
2,34203, Note_on_c, 0, 74, 0
2,34205, Control_c, 0, 64, 72
2,34217, Note_on_c, 0, 72, 43
2,34297, Control_c, 0, 64, 72
2,34313, Control_c, 0, 64, 71
2,34327, Control_c, 0, 64, 71
2,34343, Control_c, 0, 64, 70
2,34358, Control_c, 0, 64, 70
2,34361, Note_on_c, 0, 72, 0
2,34373, Control_c, 0, 64, 69
2,34389, Control_c, 0, 64, 68
2,34398, Note_on_c, 0, 71, 45
2,34404, Control_c, 0, 64, 67
2,34419, Control_c, 0, 64, 66
2,34423, Note_on_c, 0, 45, 45
2,34457, Control_c, 0, 64, 66
2,34473, Control_c, 0, 64, 65
2,34488, Control_c, 0, 64, 64
2,34504, Control_c, 0, 64, 64
2,34518, Control_c, 0, 64, 65
2,34533, Control_c, 0, 64, 66
2,34549, Control_c, 0, 64, 66
2,34563, Control_c, 0, 64, 67
2,34578, Control_c, 0, 64, 68
2,34582, Note_on_c, 0, 71, 0
2,34585, Note_on_c, 0, 72, 54
2,34609, Control_c, 0, 64, 68
2,34640, Control_c, 0, 64, 68
2,34682, Note_on_c, 0, 72, 0
2,34685, Control_c, 0, 64, 67
2,34716, Control_c, 0, 64, 67
2,34731, Control_c, 0, 64, 66
2,34747, Control_c, 0, 64, 66
2,34747, Note_on_c, 0, 47, 63
2,34756, Note_on_c, 0, 72, 43
2,34761, Control_c, 0, 64, 65
2,34776, Control_c, 0, 64, 64
2,34792, Control_c, 0, 64, 63
2,34807, Control_c, 0, 64, 62
2,34823, Control_c, 0, 64, 61
2,34837, Control_c, 0, 64, 62
2,34840, Note_on_c, 0, 45, 0
2,34852, Control_c, 0, 64, 63
2,34868, Control_c, 0, 64, 64
2,34883, Control_c, 0, 64, 65
2,34897, Control_c, 0, 64, 65
2,34913, Control_c, 0, 64, 66
2,34915, Note_on_c, 0, 71, 50
2,34920, Note_on_c, 0, 72, 0
2,35019, Control_c, 0, 64, 65
2,35048, Note_on_c, 0, 71, 0
2,35065, Control_c, 0, 64, 65
2,35080, Control_c, 0, 64, 64
2,35083, Note_on_c, 0, 48, 67
2,35092, Note_on_c, 0, 69, 51
2,35095, Control_c, 0, 64, 64
2,35111, Control_c, 0, 64, 63
2,35126, Control_c, 0, 64, 61
2,35142, Control_c, 0, 64, 59
2,35157, Control_c, 0, 64, 57
2,35168, Note_on_c, 0, 47, 0
2,35171, Control_c, 0, 64, 58
2,35187, Control_c, 0, 64, 59
2,35202, Control_c, 0, 64, 61
2,35226, Control_c, 0, 64, 64
2,35241, Control_c, 0, 64, 65
2,35256, Control_c, 0, 64, 66
2,35272, Control_c, 0, 64, 67
2,35281, Note_on_c, 0, 69, 0
2,35281, Note_on_c, 0, 71, 51
2,35286, Control_c, 0, 64, 68
2,35348, Control_c, 0, 64, 68
2,35376, Note_on_c, 0, 71, 0
2,35393, Control_c, 0, 64, 67
2,35408, Control_c, 0, 64, 67
2,35424, Control_c, 0, 64, 65
2,35439, Control_c, 0, 64, 61
2,35444, Note_on_c, 0, 50, 70
2,35451, Note_on_c, 0, 71, 48
2,35454, Control_c, 0, 64, 56
2,35470, Control_c, 0, 64, 54
2,35484, Control_c, 0, 64, 56
2,35499, Control_c, 0, 64, 59
2,35511, Note_on_c, 0, 48, 0
2,35515, Control_c, 0, 64, 62
2,35529, Control_c, 0, 64, 65
2,35545, Control_c, 0, 64, 67
2,35560, Control_c, 0, 64, 68
2,35575, Control_c, 0, 64, 69
2,35591, Control_c, 0, 64, 68
2,35611, Note_on_c, 0, 69, 53
2,35667, Control_c, 0, 64, 68
2,35674, Note_on_c, 0, 71, 0
2,35697, Control_c, 0, 64, 67
2,35713, Control_c, 0, 64, 67
2,35728, Control_c, 0, 64, 66
2,35743, Control_c, 0, 64, 65
2,35752, Note_on_c, 0, 69, 0
2,35758, Control_c, 0, 64, 63
2,35773, Control_c, 0, 64, 59
2,35782, Note_on_c, 0, 47, 67
2,35787, Note_on_c, 0, 68, 55
2,35789, Control_c, 0, 64, 54
2,35804, Control_c, 0, 64, 51
2,35834, Control_c, 0, 64, 53
2,35849, Control_c, 0, 64, 57
2,35850, Note_on_c, 0, 50, 0
2,35865, Control_c, 0, 64, 61
2,35880, Control_c, 0, 64, 64
2,35894, Control_c, 0, 64, 67
2,35910, Control_c, 0, 64, 70
2,35925, Control_c, 0, 64, 73
2,35939, Control_c, 0, 64, 74
2,35946, Note_on_c, 0, 69, 63
2,35955, Control_c, 0, 64, 75
2,35970, Control_c, 0, 64, 76
2,35997, Note_on_c, 0, 68, 0
2,36009, Control_c, 0, 64, 76
2,36018, Note_on_c, 0, 69, 0
2,36039, Control_c, 0, 64, 75
2,36055, Control_c, 0, 64, 75
2,36071, Control_c, 0, 64, 74
2,36086, Control_c, 0, 64, 73
2,36102, Control_c, 0, 64, 70
2,36117, Control_c, 0, 64, 68
2,36131, Control_c, 0, 64, 66
2,36134, Note_on_c, 0, 67, 67
2,36135, Note_on_c, 0, 47, 0
2,36147, Control_c, 0, 64, 63
2,36150, Note_on_c, 0, 49, 54
2,36162, Control_c, 0, 64, 61
2,36175, Control_c, 0, 64, 58
2,36191, Control_c, 0, 64, 56
2,36206, Control_c, 0, 64, 54
2,36222, Control_c, 0, 64, 52
2,36237, Control_c, 0, 64, 51
2,36251, Control_c, 0, 64, 50
2,36282, Control_c, 0, 64, 49
2,36302, Note_on_c, 0, 44, 37
2,36313, Control_c, 0, 64, 49
2,36339, Note_on_c, 0, 44, 0
2,36343, Control_c, 0, 64, 48
2,36346, Note_on_c, 0, 45, 42
2,36356, Note_on_c, 0, 49, 0
2,36474, Note_on_c, 0, 57, 75
2,36480, Control_c, 0, 64, 49
2,36495, Control_c, 0, 64, 49
2,36502, Note_on_c, 0, 44, 46
2,36504, Note_on_c, 0, 45, 0
2,36511, Control_c, 0, 64, 51
2,36525, Control_c, 0, 64, 53
2,36540, Control_c, 0, 64, 56
2,36556, Control_c, 0, 64, 59
2,36571, Control_c, 0, 64, 62
2,36586, Control_c, 0, 64, 63
2,36601, Control_c, 0, 64, 65
2,36616, Control_c, 0, 64, 67
2,36632, Control_c, 0, 64, 69
2,36647, Control_c, 0, 64, 71
2,36648, Note_on_c, 0, 45, 50
2,36662, Control_c, 0, 64, 72
2,36671, Note_on_c, 0, 44, 0
2,36677, Control_c, 0, 64, 73
2,36723, Control_c, 0, 64, 73
2,36753, Control_c, 0, 64, 72
2,36770, Note_on_c, 0, 45, 0
2,36776, Control_c, 0, 64, 72
2,36791, Control_c, 0, 64, 71
2,36806, Control_c, 0, 64, 70
2,36822, Control_c, 0, 64, 69
2,36835, Note_on_c, 0, 59, 78
2,36837, Control_c, 0, 64, 67
2,36844, Note_on_c, 0, 53, 54
2,36851, Note_on_c, 0, 57, 0
2,36852, Control_c, 0, 64, 64
2,36869, Control_c, 0, 64, 59
2,36884, Control_c, 0, 64, 54
2,36898, Control_c, 0, 64, 52
2,36914, Control_c, 0, 64, 52
2,36929, Control_c, 0, 64, 55
2,36945, Control_c, 0, 64, 59
2,36960, Control_c, 0, 64, 64
2,36974, Control_c, 0, 64, 67
2,36990, Control_c, 0, 64, 70
2,36997, Note_on_c, 0, 65, 63
2,37005, Control_c, 0, 64, 73
2,37009, Note_on_c, 0, 67, 0
2,37019, Control_c, 0, 64, 75
2,37035, Control_c, 0, 64, 75
2,37081, Control_c, 0, 64, 75
2,37126, Control_c, 0, 64, 74
2,37142, Control_c, 0, 64, 74
2,37144, Note_on_c, 0, 53, 0
2,37157, Control_c, 0, 64, 73
2,37165, Note_on_c, 0, 61, 73
2,37169, Note_on_c, 0, 65, 0
2,37171, Control_c, 0, 64, 70
2,37172, Note_on_c, 0, 64, 62
2,37187, Control_c, 0, 64, 65
2,37202, Control_c, 0, 64, 60
2,37217, Control_c, 0, 64, 56
2,37233, Control_c, 0, 64, 57
2,37247, Control_c, 0, 64, 60
2,37263, Control_c, 0, 64, 63
2,37278, Control_c, 0, 64, 66
2,37293, Control_c, 0, 64, 70
2,37309, Control_c, 0, 64, 75
2,37324, Control_c, 0, 64, 78
2,37324, Note_on_c, 0, 64, 0
2,37336, Note_on_c, 0, 65, 57
2,37339, Control_c, 0, 64, 78
2,37385, Control_c, 0, 64, 78
2,37414, Control_c, 0, 64, 77
2,37430, Control_c, 0, 64, 77
2,37436, Note_on_c, 0, 65, 0
2,37445, Control_c, 0, 64, 76
2,37450, Note_on_c, 0, 61, 0
2,37460, Control_c, 0, 64, 75
2,37476, Control_c, 0, 64, 74
2,37491, Control_c, 0, 64, 71
2,37506, Control_c, 0, 64, 65
2,37517, Note_on_c, 0, 62, 69
2,37519, Note_on_c, 0, 52, 43
2,37521, Control_c, 0, 64, 56
2,37535, Note_on_c, 0, 65, 52
2,37545, Control_c, 0, 64, 53
2,37574, Control_c, 0, 64, 55
2,37587, Note_on_c, 0, 52, 0
2,37590, Control_c, 0, 64, 58
2,37605, Control_c, 0, 64, 62
2,37614, Note_on_c, 0, 50, 45
2,37620, Control_c, 0, 64, 65
2,37635, Control_c, 0, 64, 69
2,37650, Control_c, 0, 64, 72
2,37666, Control_c, 0, 64, 74
2,37672, Note_on_c, 0, 50, 0
2,37682, Control_c, 0, 64, 75
2,37689, Note_on_c, 0, 64, 58
2,37694, Note_on_c, 0, 62, 0
2,37704, Note_on_c, 0, 52, 55
2,37746, Note_on_c, 0, 52, 0
2,37758, Control_c, 0, 64, 74
2,37764, Note_on_c, 0, 59, 0
2,37773, Control_c, 0, 64, 74
2,37789, Control_c, 0, 64, 73
2,37792, Note_on_c, 0, 50, 38
2,37818, Control_c, 0, 64, 72
2,37832, Note_on_c, 0, 50, 0
2,37834, Control_c, 0, 64, 68
2,37849, Control_c, 0, 64, 63
2,37855, Note_on_c, 0, 52, 48
2,37864, Control_c, 0, 64, 58
2,37866, Note_on_c, 0, 59, 69
2,37878, Note_on_c, 0, 62, 42
2,37879, Control_c, 0, 64, 56
2,37890, Note_on_c, 0, 64, 0
2,37894, Control_c, 0, 64, 58
2,37897, Note_on_c, 0, 65, 0
2,37910, Control_c, 0, 64, 61
2,37910, Note_on_c, 0, 52, 0
2,37925, Control_c, 0, 64, 64
2,37939, Control_c, 0, 64, 67
2,37951, Note_on_c, 0, 49, 49
2,37955, Control_c, 0, 64, 71
2,37970, Control_c, 0, 64, 75
2,37986, Control_c, 0, 64, 78
2,38001, Control_c, 0, 64, 79
2,38015, Control_c, 0, 64, 79
2,38028, Note_on_c, 0, 69, 59
2,38046, Control_c, 0, 64, 80
2,38050, Note_on_c, 0, 49, 0
2,38070, Note_on_c, 0, 50, 57
2,38088, Note_on_c, 0, 62, 0
2,38091, Control_c, 0, 64, 79
2,38107, Control_c, 0, 64, 79
2,38122, Control_c, 0, 64, 78
2,38122, Note_on_c, 0, 69, 0
2,38137, Control_c, 0, 64, 77
2,38153, Control_c, 0, 64, 76
2,38168, Control_c, 0, 64, 74
2,38184, Control_c, 0, 64, 72
2,38191, Note_on_c, 0, 52, 54
2,38199, Control_c, 0, 64, 69
2,38203, Note_on_c, 0, 50, 0
2,38211, Note_on_c, 0, 59, 0
2,38213, Control_c, 0, 64, 64
2,38229, Control_c, 0, 64, 56
2,38230, Note_on_c, 0, 60, 59
2,38243, Note_on_c, 0, 69, 62
2,38244, Control_c, 0, 64, 48
2,38259, Control_c, 0, 64, 43
2,38274, Control_c, 0, 64, 41
2,38296, Control_c, 0, 64, 44
2,38312, Control_c, 0, 64, 52
2,38327, Control_c, 0, 64, 60
2,38343, Control_c, 0, 64, 65
2,38358, Control_c, 0, 64, 69
2,38372, Control_c, 0, 64, 73
2,38388, Control_c, 0, 64, 78
2,38395, Note_on_c, 0, 57, 66
2,38403, Control_c, 0, 64, 80
2,38418, Control_c, 0, 64, 81
2,38434, Control_c, 0, 64, 80
2,38449, Control_c, 0, 64, 80
2,38458, Note_on_c, 0, 60, 0
2,38465, Control_c, 0, 64, 79
2,38479, Control_c, 0, 64, 79
2,38494, Control_c, 0, 64, 78
2,38504, Note_on_c, 0, 52, 0
2,38511, Control_c, 0, 64, 77
2,38525, Control_c, 0, 64, 76
2,38540, Control_c, 0, 64, 74
2,38556, Control_c, 0, 64, 71
2,38559, Note_on_c, 0, 57, 0
2,38571, Control_c, 0, 64, 66
2,38571, Note_on_c, 0, 53, 50
2,38571, Note_on_c, 0, 56, 58
2,38587, Control_c, 0, 64, 59
2,38602, Control_c, 0, 64, 51
2,38617, Control_c, 0, 64, 48
2,38633, Control_c, 0, 64, 49
2,38648, Control_c, 0, 64, 52
2,38663, Control_c, 0, 64, 59
2,38678, Control_c, 0, 64, 64
2,38693, Control_c, 0, 64, 68
2,38708, Control_c, 0, 64, 73
2,38723, Control_c, 0, 64, 78
2,38735, Note_on_c, 0, 56, 0
2,38738, Control_c, 0, 64, 80
2,38739, Note_on_c, 0, 57, 65
2,38740, Note_on_c, 0, 53, 0
2,38799, Control_c, 0, 64, 80
2,38814, Control_c, 0, 64, 79
2,38829, Control_c, 0, 64, 79
2,38829, Note_on_c, 0, 57, 0
2,38844, Control_c, 0, 64, 77
2,38859, Control_c, 0, 64, 75
2,38875, Control_c, 0, 64, 73
2,38890, Control_c, 0, 64, 70
2,38905, Control_c, 0, 64, 67
2,38920, Control_c, 0, 64, 64
2,38932, Note_on_c, 0, 52, 46
2,38935, Control_c, 0, 64, 61
2,38935, Note_on_c, 0, 65, 62
2,38951, Control_c, 0, 64, 57
2,38966, Control_c, 0, 64, 52
2,38982, Control_c, 0, 64, 50
2,38997, Control_c, 0, 64, 49
2,39027, Control_c, 0, 64, 49
2,39080, Control_c, 0, 64, 49
2,39095, Control_c, 0, 64, 52
2,39095, Note_on_c, 0, 50, 49
2,39095, Note_on_c, 0, 52, 0
2,39111, Control_c, 0, 64, 54
2,39125, Control_c, 0, 64, 57
2,39140, Control_c, 0, 64, 57
2,39232, Control_c, 0, 64, 58
2,39247, Control_c, 0, 64, 60
2,39263, Control_c, 0, 64, 61
2,39263, Note_on_c, 0, 50, 0
2,39266, Note_on_c, 0, 48, 40
2,39278, Control_c, 0, 64, 63
2,39293, Control_c, 0, 64, 64
2,39309, Control_c, 0, 64, 65
2,39315, Note_on_c, 0, 65, 0
2,39325, Control_c, 0, 64, 67
2,39340, Control_c, 0, 64, 68
2,39355, Control_c, 0, 64, 69
2,39370, Control_c, 0, 64, 71
2,39386, Control_c, 0, 64, 72
2,39401, Control_c, 0, 64, 72
2,39416, Control_c, 0, 64, 73
2,39425, Note_on_c, 0, 50, 42
2,39455, Note_on_c, 0, 48, 0
2,39485, Note_on_c, 0, 50, 0
2,39491, Control_c, 0, 64, 72
2,39537, Control_c, 0, 64, 72
2,39553, Control_c, 0, 64, 71
2,39568, Control_c, 0, 64, 70
2,39584, Control_c, 0, 64, 69
2,39599, Control_c, 0, 64, 68
2,39614, Control_c, 0, 64, 65
2,39624, Note_on_c, 0, 64, 51
2,39629, Control_c, 0, 64, 63
2,39644, Control_c, 0, 64, 60
2,39647, Note_on_c, 0, 50, 31
2,39659, Control_c, 0, 64, 57
2,39674, Control_c, 0, 64, 54
2,39686, Note_on_c, 0, 64, 0
2,39689, Control_c, 0, 64, 50
2,39705, Control_c, 0, 64, 44
2,39715, Note_on_c, 0, 62, 53
2,39720, Control_c, 0, 64, 35
2,39735, Control_c, 0, 64, 15
2,39750, Control_c, 0, 64, 0
2,39773, Note_on_c, 0, 50, 0
2,39780, Note_on_c, 0, 62, 0
2,39783, Note_on_c, 0, 48, 44
2,39809, Note_on_c, 0, 64, 55
2,39858, Note_on_c, 0, 64, 0
2,39903, Note_on_c, 0, 62, 48
2,39923, Note_on_c, 0, 48, 0
2,39949, Note_on_c, 0, 62, 0
2,39959, Note_on_c, 0, 47, 42
2,39977, Note_on_c, 0, 64, 51
2,40031, Control_c, 0, 64, 17
2,40031, Note_on_c, 0, 64, 0
2,40045, Control_c, 0, 64, 41
2,40055, Note_on_c, 0, 62, 53
2,40060, Control_c, 0, 64, 52
2,40076, Control_c, 0, 64, 56
2,40091, Control_c, 0, 64, 58
2,40107, Control_c, 0, 64, 60
2,40121, Control_c, 0, 64, 61
2,40124, Note_on_c, 0, 47, 0
2,40126, Note_on_c, 0, 62, 0
2,40137, Control_c, 0, 64, 62
2,40149, Note_on_c, 0, 48, 44
2,40153, Control_c, 0, 64, 63
2,40153, Note_on_c, 0, 60, 50
2,40168, Control_c, 0, 64, 64
2,40183, Control_c, 0, 64, 65
2,40191, Note_on_c, 0, 48, 0
2,40198, Note_on_c, 0, 60, 0
2,40232, Note_on_c, 0, 62, 46
2,40289, Control_c, 0, 64, 64
2,40320, Control_c, 0, 64, 64
2,40335, Control_c, 0, 64, 63
2,40351, Control_c, 0, 64, 61
2,40354, Note_on_c, 0, 62, 0
2,40366, Control_c, 0, 64, 58
2,40371, Note_on_c, 0, 64, 47
2,40372, Note_on_c, 0, 48, 40
2,40382, Control_c, 0, 64, 51
2,40396, Control_c, 0, 64, 41
2,40411, Control_c, 0, 64, 28
2,40427, Control_c, 0, 64, 0
2,40802, Note_on_c, 0, 48, 0
2,40804, Note_on_c, 0, 65, 38
2,40807, Note_on_c, 0, 64, 0
2,40813, Control_c, 0, 64, 22
2,40814, Note_on_c, 0, 50, 36
2,40829, Control_c, 0, 64, 39
2,40844, Control_c, 0, 64, 49
2,40859, Control_c, 0, 64, 53
2,40875, Control_c, 0, 64, 57
2,40889, Control_c, 0, 64, 60
2,40905, Control_c, 0, 64, 62
2,40920, Control_c, 0, 64, 64
2,40934, Control_c, 0, 64, 66
2,40950, Control_c, 0, 64, 68
2,40966, Control_c, 0, 64, 70
2,40982, Control_c, 0, 64, 72
2,40997, Control_c, 0, 64, 74
2,41003, Note_on_c, 0, 50, 0
2,41012, Control_c, 0, 64, 76
2,41028, Control_c, 0, 64, 77
2,41042, Control_c, 0, 64, 78
2,41057, Control_c, 0, 64, 78
2,41068, Note_on_c, 0, 65, 0
2,41119, Note_on_c, 0, 69, 0
2,41133, Control_c, 0, 64, 78
2,41149, Control_c, 0, 64, 77
2,41164, Control_c, 0, 64, 77
2,41179, Control_c, 0, 64, 76
2,41195, Control_c, 0, 64, 75
2,41210, Control_c, 0, 64, 75
2,41216, Note_on_c, 0, 60, 49
2,41228, Note_on_c, 0, 52, 39
2,41314, Note_on_c, 0, 60, 0
2,41336, Note_on_c, 0, 59, 50
2,41397, Note_on_c, 0, 52, 0
2,41405, Note_on_c, 0, 75, 63
2,41419, Note_on_c, 0, 59, 0
2,41445, Control_c, 0, 64, 74
2,41454, Note_on_c, 0, 60, 49
2,41476, Control_c, 0, 64, 74
2,41491, Control_c, 0, 64, 73
2,41491, Note_on_c, 0, 60, 0
2,41506, Control_c, 0, 64, 72
2,41521, Control_c, 0, 64, 71
2,41533, Note_on_c, 0, 59, 42
2,41536, Control_c, 0, 64, 70
2,41552, Control_c, 0, 64, 68
2,41567, Control_c, 0, 64, 66
2,41578, Note_on_c, 0, 59, 0
2,41582, Control_c, 0, 64, 63
2,41597, Control_c, 0, 64, 60
2,41603, Note_on_c, 0, 60, 47
2,41608, Note_on_c, 0, 50, 44
2,41610, Note_on_c, 0, 76, 64
2,41612, Control_c, 0, 64, 57
2,41628, Control_c, 0, 64, 55
2,41643, Control_c, 0, 64, 53
2,41657, Control_c, 0, 64, 51
2,41688, Control_c, 0, 64, 52
2,41688, Note_on_c, 0, 60, 0
2,41698, Note_on_c, 0, 59, 53
2,41703, Control_c, 0, 64, 54
2,41707, Note_on_c, 0, 75, 0
2,41718, Control_c, 0, 64, 56
2,41733, Control_c, 0, 64, 59
2,41749, Control_c, 0, 64, 61
2,41750, Note_on_c, 0, 76, 0
2,41759, Note_on_c, 0, 59, 0
2,41764, Control_c, 0, 64, 62
2,41778, Note_on_c, 0, 69, 61
2,41780, Control_c, 0, 64, 64
2,41793, Note_on_c, 0, 60, 49
2,41796, Control_c, 0, 64, 65
2,41808, Note_on_c, 0, 50, 0
2,41810, Control_c, 0, 64, 65
2,41826, Control_c, 0, 64, 66
2,41845, Note_on_c, 0, 60, 0
2,41879, Note_on_c, 0, 59, 48
2,41917, Control_c, 0, 64, 65
2,41930, Note_on_c, 0, 59, 0
2,41932, Control_c, 0, 64, 65
2,41948, Control_c, 0, 64, 64
2,41962, Control_c, 0, 64, 63
2,41965, Note_on_c, 0, 60, 57
2,41969, Note_on_c, 0, 72, 67
2,41972, Note_on_c, 0, 69, 0
2,41977, Control_c, 0, 64, 60
2,41980, Note_on_c, 0, 52, 43
2,41993, Control_c, 0, 64, 57
2,42008, Control_c, 0, 64, 55
2,42024, Control_c, 0, 64, 54
2,42035, Note_on_c, 0, 60, 0
2,42039, Control_c, 0, 64, 53
2,42047, Note_on_c, 0, 59, 57
2,42069, Control_c, 0, 64, 52
2,42084, Control_c, 0, 64, 52
2,42099, Control_c, 0, 64, 51
2,42124, Note_on_c, 0, 59, 0
2,42157, Note_on_c, 0, 60, 53
2,42161, Note_on_c, 0, 71, 66
2,42201, Note_on_c, 0, 72, 0
2,42222, Note_on_c, 0, 60, 0
2,42240, Note_on_c, 0, 59, 57
2,42280, Note_on_c, 0, 59, 0
2,42320, Note_on_c, 0, 60, 53
2,42351, Note_on_c, 0, 69, 58
2,42365, Control_c, 0, 64, 52
2,42374, Note_on_c, 0, 60, 0
2,42393, Note_on_c, 0, 71, 0
2,42396, Control_c, 0, 64, 52
2,42402, Note_on_c, 0, 59, 50
2,42441, Control_c, 0, 64, 53
2,42456, Control_c, 0, 64, 53
2,42493, Note_on_c, 0, 59, 0
2,42509, Note_on_c, 0, 57, 54
2,42512, Note_on_c, 0, 69, 0
2,42528, Note_on_c, 0, 68, 59
2,42562, Note_on_c, 0, 68, 0
2,42599, Note_on_c, 0, 57, 0
2,42629, Note_on_c, 0, 59, 55
2,42685, Control_c, 0, 64, 52
2,42700, Control_c, 0, 64, 47
2,42702, Note_on_c, 0, 52, 0
2,42712, Note_on_c, 0, 59, 0
2,42716, Control_c, 0, 64, 28
2,42726, Note_on_c, 0, 57, 54
2,42730, Control_c, 0, 64, 0
2,42735, Note_on_c, 0, 69, 63
2,42763, Note_on_c, 0, 69, 0
2,42769, Note_on_c, 0, 68, 69
2,42818, Note_on_c, 0, 68, 0
2,42828, Note_on_c, 0, 69, 71
2,43109, Note_on_c, 0, 45, 53
2,43480, Note_on_c, 0, 47, 61
2,43547, Note_on_c, 0, 57, 0
2,43580, Note_on_c, 0, 45, 0
2,43654, Note_on_c, 0, 67, 48
2,43689, Note_on_c, 0, 69, 0
2,43839, Note_on_c, 0, 67, 0
2,43846, Note_on_c, 0, 49, 62
2,43851, Note_on_c, 0, 65, 42
2,43940, Note_on_c, 0, 47, 0
2,44009, Note_on_c, 0, 65, 0
2,44034, Note_on_c, 0, 64, 40
2,44145, Control_c, 0, 64, 9
2,44191, Note_on_c, 0, 64, 0
2,44197, Note_on_c, 0, 67, 53
2,44209, Note_on_c, 0, 50, 66
2,44264, Note_on_c, 0, 49, 0
2,44283, Control_c, 0, 64, 11
2,44359, Control_c, 0, 64, 12
2,44360, Note_on_c, 0, 67, 0
2,44371, Note_on_c, 0, 65, 44
2,44374, Control_c, 0, 64, 13
2,44390, Control_c, 0, 64, 15
2,44419, Control_c, 0, 64, 16
2,44442, Control_c, 0, 64, 17
2,44472, Control_c, 0, 64, 17
2,44487, Control_c, 0, 64, 18
2,44503, Control_c, 0, 64, 19
2,44518, Control_c, 0, 64, 20
2,44533, Control_c, 0, 64, 21
2,44547, Note_on_c, 0, 65, 0
2,44564, Control_c, 0, 64, 21
2,44564, Note_on_c, 0, 47, 68
2,44579, Control_c, 0, 64, 22
2,44579, Note_on_c, 0, 64, 51
2,44595, Control_c, 0, 64, 23
2,44609, Control_c, 0, 64, 25
2,44623, Control_c, 0, 64, 27
2,44627, Note_on_c, 0, 50, 0
2,44638, Control_c, 0, 64, 29
2,44653, Control_c, 0, 64, 30
2,44668, Control_c, 0, 64, 32
2,44683, Control_c, 0, 64, 33
2,44698, Control_c, 0, 64, 35
2,44714, Control_c, 0, 64, 36
2,44722, Note_on_c, 0, 64, 0
2,44729, Control_c, 0, 64, 38
2,44737, Note_on_c, 0, 62, 45
2,44745, Control_c, 0, 64, 38
2,44760, Control_c, 0, 64, 39
2,44790, Control_c, 0, 64, 40
2,44851, Control_c, 0, 64, 40
2,44867, Control_c, 0, 64, 41
2,44896, Control_c, 0, 64, 41
2,44910, Note_on_c, 0, 62, 0
2,44922, Note_on_c, 0, 49, 51
2,44927, Control_c, 0, 64, 42
2,44927, Note_on_c, 0, 64, 55
2,44929, Note_on_c, 0, 47, 0
2,44943, Control_c, 0, 64, 42
2,44957, Control_c, 0, 64, 43
2,44988, Control_c, 0, 64, 43
2,45002, Control_c, 0, 64, 44
2,45017, Control_c, 0, 64, 44
2,45033, Control_c, 0, 64, 45
2,45049, Control_c, 0, 64, 45
2,45065, Control_c, 0, 64, 46
2,45080, Control_c, 0, 64, 47
2,45081, Note_on_c, 0, 45, 52
2,45095, Control_c, 0, 64, 47
2,45108, Note_on_c, 0, 49, 0
2,45110, Control_c, 0, 64, 48
2,45140, Control_c, 0, 64, 48
2,45171, Control_c, 0, 64, 49
2,45201, Control_c, 0, 64, 49
2,45225, Control_c, 0, 64, 50
2,45240, Control_c, 0, 64, 51
2,45254, Control_c, 0, 64, 52
2,45270, Control_c, 0, 64, 53
2,45277, Note_on_c, 0, 76, 75
2,45285, Control_c, 0, 64, 54
2,45285, Note_on_c, 0, 44, 47
2,45297, Note_on_c, 0, 45, 0
2,45300, Control_c, 0, 64, 55
2,45315, Control_c, 0, 64, 57
2,45330, Control_c, 0, 64, 58
2,45346, Control_c, 0, 64, 59
2,45361, Control_c, 0, 64, 61
2,45376, Control_c, 0, 64, 62
2,45391, Control_c, 0, 64, 63
2,45406, Control_c, 0, 64, 64
2,45422, Control_c, 0, 64, 65
2,45436, Control_c, 0, 64, 65
2,45436, Note_on_c, 0, 45, 55
2,45467, Control_c, 0, 64, 66
2,45468, Note_on_c, 0, 44, 0
2,45497, Control_c, 0, 64, 65
2,45537, Note_on_c, 0, 45, 0
2,45558, Control_c, 0, 64, 65
2,45588, Control_c, 0, 64, 64
2,45618, Control_c, 0, 64, 64
2,45630, Note_on_c, 0, 74, 72
2,45634, Control_c, 0, 64, 63
2,45634, Note_on_c, 0, 53, 53
2,45649, Control_c, 0, 64, 63
2,45665, Control_c, 0, 64, 62
2,45677, Note_on_c, 0, 76, 0
2,45680, Control_c, 0, 64, 61
2,45695, Control_c, 0, 64, 60
2,45711, Control_c, 0, 64, 58
2,45725, Control_c, 0, 64, 57
2,45740, Control_c, 0, 64, 55
2,45756, Control_c, 0, 64, 53
2,45759, Note_on_c, 0, 64, 0
2,45771, Control_c, 0, 64, 51
2,45787, Control_c, 0, 64, 50
2,45801, Control_c, 0, 64, 49
2,45832, Control_c, 0, 64, 49
2,45846, Control_c, 0, 64, 47
2,45862, Control_c, 0, 64, 46
2,45879, Control_c, 0, 64, 45
2,45924, Control_c, 0, 64, 44
2,45939, Control_c, 0, 64, 43
2,45954, Control_c, 0, 64, 42
2,45989, Note_on_c, 0, 73, 77
2,45991, Note_on_c, 0, 53, 0
2,46007, Control_c, 0, 64, 42
2,46023, Control_c, 0, 64, 40
2,46035, Note_on_c, 0, 74, 0
2,46038, Control_c, 0, 64, 39
2,46052, Control_c, 0, 64, 39
2,46068, Control_c, 0, 64, 38
2,46083, Control_c, 0, 64, 38
2,46129, Control_c, 0, 64, 37
2,46342, Control_c, 0, 64, 38
2,46348, Note_on_c, 0, 71, 65
2,46350, Note_on_c, 0, 52, 50
2,46371, Control_c, 0, 64, 38
2,46389, Note_on_c, 0, 73, 0
2,46402, Control_c, 0, 64, 39
2,46405, Note_on_c, 0, 52, 0
2,46417, Control_c, 0, 64, 39
2,46431, Note_on_c, 0, 50, 55
2,46447, Control_c, 0, 64, 40
2,46493, Control_c, 0, 64, 40
2,46503, Note_on_c, 0, 50, 0
2,46509, Control_c, 0, 64, 41
2,46523, Note_on_c, 0, 52, 50
2,46538, Control_c, 0, 64, 41
2,46585, Control_c, 0, 64, 42
2,46585, Note_on_c, 0, 52, 0
2,46608, Note_on_c, 0, 50, 53
2,46658, Note_on_c, 0, 50, 0
2,46660, Control_c, 0, 64, 42
2,46666, Note_on_c, 0, 74, 63
2,46692, Note_on_c, 0, 71, 0
2,46704, Note_on_c, 0, 52, 54
2,46722, Control_c, 0, 64, 43
2,46759, Note_on_c, 0, 52, 0
2,46786, Note_on_c, 0, 50, 57
2,46805, Control_c, 0, 64, 43
2,46836, Control_c, 0, 64, 44
2,46851, Control_c, 0, 64, 44
2,46852, Note_on_c, 0, 50, 0
2,46868, Note_on_c, 0, 49, 58
2,46955, Note_on_c, 0, 49, 0
2,46989, Control_c, 0, 64, 45
2,47006, Note_on_c, 0, 74, 0
2,47043, Note_on_c, 0, 73, 68
2,47049, Note_on_c, 0, 57, 59
2,47201, Control_c, 0, 64, 45
2,47202, Note_on_c, 0, 76, 66
2,47229, Note_on_c, 0, 73, 0
2,47367, Control_c, 0, 64, 46
2,47379, Note_on_c, 0, 53, 43
2,47380, Note_on_c, 0, 57, 0
2,47386, Note_on_c, 0, 77, 67
2,47412, Note_on_c, 0, 76, 0
2,47413, Control_c, 0, 64, 46
2,47489, Control_c, 0, 64, 47
2,47555, Note_on_c, 0, 76, 70
2,47585, Note_on_c, 0, 77, 0
2,47589, Control_c, 0, 64, 47
2,47622, Note_on_c, 0, 76, 0
2,47722, Note_on_c, 0, 53, 0
2,47725, Control_c, 0, 64, 48
2,47735, Note_on_c, 0, 52, 40
2,47755, Note_on_c, 0, 67, 63
2,47771, Control_c, 0, 64, 48
2,47847, Control_c, 0, 64, 49
2,47909, Control_c, 0, 64, 49
2,48055, Note_on_c, 0, 67, 0
2,48063, Note_on_c, 0, 52, 0
2,48078, Note_on_c, 0, 50, 46
2,48166, Control_c, 0, 64, 50
2,48441, Note_on_c, 0, 70, 56
2,48446, Note_on_c, 0, 49, 36
2,48483, Note_on_c, 0, 50, 0
2,48524, Control_c, 0, 64, 50
2,48797, Note_on_c, 0, 52, 46
2,48819, Note_on_c, 0, 49, 0
2,48843, Control_c, 0, 64, 51
2,48979, Control_c, 0, 64, 51
2,49131, Note_on_c, 0, 52, 0
2,49145, Note_on_c, 0, 50, 40
2,49216, Control_c, 0, 64, 52
2,49313, Note_on_c, 0, 69, 59
2,49328, Note_on_c, 0, 53, 43
2,49374, Note_on_c, 0, 50, 0
2,49404, Note_on_c, 0, 70, 0
2,49429, Control_c, 0, 64, 52
2,49444, Control_c, 0, 64, 54
2,49458, Control_c, 0, 64, 56
2,49474, Control_c, 0, 64, 59
2,49484, Note_on_c, 0, 67, 62
2,49486, Note_on_c, 0, 69, 0
2,49487, Note_on_c, 0, 53, 0
2,49489, Control_c, 0, 64, 61
2,49492, Note_on_c, 0, 55, 48
2,49505, Control_c, 0, 64, 62
2,49520, Control_c, 0, 64, 63
2,49535, Control_c, 0, 64, 64
2,49551, Control_c, 0, 64, 65
2,49566, Control_c, 0, 64, 66
2,49580, Control_c, 0, 64, 68
2,49596, Control_c, 0, 64, 69
2,49611, Control_c, 0, 64, 70
2,49627, Control_c, 0, 64, 71
2,49642, Control_c, 0, 64, 71
2,49652, Note_on_c, 0, 53, 41
2,49653, Note_on_c, 0, 69, 65
2,49656, Control_c, 0, 64, 72
2,49659, Note_on_c, 0, 67, 0
2,49664, Note_on_c, 0, 55, 0
2,49687, Control_c, 0, 64, 71
2,49732, Control_c, 0, 64, 71
2,49748, Control_c, 0, 64, 70
2,49749, Note_on_c, 0, 69, 0
2,49763, Control_c, 0, 64, 70
2,49778, Control_c, 0, 64, 69
2,49793, Control_c, 0, 64, 68
2,49808, Control_c, 0, 64, 67
2,49822, Note_on_c, 0, 69, 56
2,49823, Note_on_c, 0, 53, 0
2,49832, Control_c, 0, 64, 65
2,49838, Note_on_c, 0, 45, 50
2,49847, Control_c, 0, 64, 63
2,49863, Control_c, 0, 64, 61
2,49877, Control_c, 0, 64, 58
2,49892, Control_c, 0, 64, 56
2,49908, Control_c, 0, 64, 53
2,49923, Control_c, 0, 64, 50
2,49938, Control_c, 0, 64, 48
2,49953, Control_c, 0, 64, 46
2,49969, Control_c, 0, 64, 45
2,49985, Control_c, 0, 64, 45
2,49999, Note_on_c, 0, 67, 59
2,50000, Note_on_c, 0, 69, 0
2,50030, Control_c, 0, 64, 44
2,50079, Note_on_c, 0, 45, 0
2,50136, Control_c, 0, 64, 45
2,50147, Note_on_c, 0, 67, 0
2,50152, Control_c, 0, 64, 46
2,50167, Control_c, 0, 64, 48
2,50174, Note_on_c, 0, 65, 49
2,50182, Control_c, 0, 64, 50
2,50197, Control_c, 0, 64, 51
2,50212, Control_c, 0, 64, 53
2,50227, Control_c, 0, 64, 54
2,50242, Control_c, 0, 64, 56
2,50257, Control_c, 0, 64, 59
2,50273, Control_c, 0, 64, 61
2,50288, Control_c, 0, 64, 62
2,50303, Control_c, 0, 64, 64
2,50318, Control_c, 0, 64, 65
2,50333, Control_c, 0, 64, 67
2,50349, Control_c, 0, 64, 68
2,50360, Note_on_c, 0, 67, 60
2,50364, Control_c, 0, 64, 69
2,50378, Control_c, 0, 64, 70
2,50394, Control_c, 0, 64, 71
2,50394, Note_on_c, 0, 65, 0
2,50437, Note_on_c, 0, 67, 0
2,50455, Control_c, 0, 64, 71
2,50471, Control_c, 0, 64, 70
2,50500, Control_c, 0, 64, 69
2,50502, Note_on_c, 0, 50, 55
2,50508, Note_on_c, 0, 67, 60
2,50516, Control_c, 0, 64, 68
2,50531, Control_c, 0, 64, 66
2,50547, Control_c, 0, 64, 65
2,50562, Control_c, 0, 64, 63
2,50569, Note_on_c, 0, 50, 0
2,50584, Control_c, 0, 64, 60
2,50598, Note_on_c, 0, 49, 46
2,50599, Control_c, 0, 64, 58
2,50614, Control_c, 0, 64, 55
2,50630, Control_c, 0, 64, 53
2,50645, Control_c, 0, 64, 51
2,50651, Note_on_c, 0, 49, 0
2,50660, Control_c, 0, 64, 50
2,50676, Control_c, 0, 64, 48
2,50676, Note_on_c, 0, 65, 56
2,50677, Note_on_c, 0, 50, 50
2,50690, Control_c, 0, 64, 47
2,50706, Control_c, 0, 64, 47
2,50721, Control_c, 0, 64, 46
2,50721, Note_on_c, 0, 67, 0
2,50730, Note_on_c, 0, 50, 0
2,50736, Control_c, 0, 64, 45
2,50752, Control_c, 0, 64, 45
2,50761, Note_on_c, 0, 49, 46
2,50766, Control_c, 0, 64, 44
2,50811, Note_on_c, 0, 49, 0
2,50823, Note_on_c, 0, 65, 0
2,50850, Note_on_c, 0, 64, 48
2,50852, Note_on_c, 0, 50, 45
2,50884, Note_on_c, 0, 50, 0
2,50918, Control_c, 0, 64, 46
2,50920, Note_on_c, 0, 49, 45
2,50933, Control_c, 0, 64, 48
2,50947, Control_c, 0, 64, 51
2,50963, Control_c, 0, 64, 54
2,50967, Note_on_c, 0, 49, 0
2,50978, Control_c, 0, 64, 56
2,50994, Control_c, 0, 64, 60
2,50998, Note_on_c, 0, 47, 43
2,51009, Control_c, 0, 64, 62
2,51018, Note_on_c, 0, 64, 0
2,51023, Control_c, 0, 64, 64
2,51032, Note_on_c, 0, 65, 47
2,51039, Control_c, 0, 64, 65
2,51054, Control_c, 0, 64, 66
2,51057, Note_on_c, 0, 47, 0
2,51069, Control_c, 0, 64, 67
2,51084, Control_c, 0, 64, 68
2,51092, Note_on_c, 0, 49, 41
2,51099, Control_c, 0, 64, 68
2,51149, Note_on_c, 0, 65, 0
2,51160, Control_c, 0, 64, 68
2,51175, Control_c, 0, 64, 67
2,51191, Control_c, 0, 64, 67
2,51206, Control_c, 0, 64, 66
2,51212, Note_on_c, 0, 49, 0
2,51220, Control_c, 0, 64, 65
2,51236, Control_c, 0, 64, 63
2,51251, Control_c, 0, 64, 61
2,51251, Note_on_c, 0, 50, 33
2,51252, Note_on_c, 0, 65, 36
2,51266, Control_c, 0, 64, 59
2,51282, Control_c, 0, 64, 54
2,51297, Control_c, 0, 64, 49
2,51313, Control_c, 0, 64, 43
2,51327, Control_c, 0, 64, 36
2,51350, Control_c, 0, 64, 34
2,51380, Control_c, 0, 64, 41
2,51396, Control_c, 0, 64, 51
2,51410, Control_c, 0, 64, 57
2,51425, Control_c, 0, 64, 61
2,51441, Control_c, 0, 64, 63
2,51456, Control_c, 0, 64, 64
2,51472, Control_c, 0, 64, 66
2,51486, Control_c, 0, 64, 67
2,51501, Control_c, 0, 64, 69
2,51517, Control_c, 0, 64, 70
2,51532, Control_c, 0, 64, 71
2,51547, Control_c, 0, 64, 72
2,51563, Control_c, 0, 64, 73
2,51578, Control_c, 0, 64, 75
2,51594, Control_c, 0, 64, 76
2,51609, Control_c, 0, 64, 77
2,51624, Control_c, 0, 64, 78
2,51635, Note_on_c, 0, 62, 54
2,51685, Control_c, 0, 64, 79
2,51700, Control_c, 0, 64, 80
2,51716, Control_c, 0, 64, 83
2,51731, Control_c, 0, 64, 85
2,51746, Control_c, 0, 64, 87
2,51762, Control_c, 0, 64, 89
2,51777, Control_c, 0, 64, 89
2,51822, Control_c, 0, 64, 89
2,51838, Control_c, 0, 64, 88
2,51853, Control_c, 0, 64, 87
2,51867, Control_c, 0, 64, 87
2,51883, Control_c, 0, 64, 86
2,51898, Control_c, 0, 64, 85
2,51913, Control_c, 0, 64, 84
2,51928, Control_c, 0, 64, 83
2,51943, Control_c, 0, 64, 82
2,51959, Control_c, 0, 64, 80
2,51972, Note_on_c, 0, 60, 63
2,51974, Control_c, 0, 64, 78
2,51989, Control_c, 0, 64, 77
2,52004, Control_c, 0, 64, 76
2,52019, Control_c, 0, 64, 75
2,52034, Control_c, 0, 64, 74
2,52049, Control_c, 0, 64, 72
2,52064, Control_c, 0, 64, 70
2,52080, Control_c, 0, 64, 69
2,52091, Note_on_c, 0, 65, 0
2,52118, Control_c, 0, 64, 69
2,52133, Control_c, 0, 64, 68
2,52147, Note_on_c, 0, 64, 40
2,52149, Control_c, 0, 64, 68
2,52164, Control_c, 0, 64, 67
2,52270, Control_c, 0, 64, 67
2,52300, Control_c, 0, 64, 66
2,52306, Note_on_c, 0, 58, 68
2,52316, Note_on_c, 0, 64, 0
2,52327, Note_on_c, 0, 66, 41
2,52345, Control_c, 0, 64, 66
2,52361, Control_c, 0, 64, 65
2,52365, Note_on_c, 0, 60, 0
2,52367, Note_on_c, 0, 62, 0
2,52376, Control_c, 0, 64, 65
2,52407, Control_c, 0, 64, 64
2,52422, Control_c, 0, 64, 64
2,52492, Note_on_c, 0, 67, 48
2,52498, Control_c, 0, 64, 63
2,52498, Note_on_c, 0, 66, 0
2,52591, Control_c, 0, 64, 63
2,52636, Control_c, 0, 64, 62
2,52651, Control_c, 0, 64, 62
2,52666, Control_c, 0, 64, 61
2,52666, Note_on_c, 0, 57, 58
2,52676, Note_on_c, 0, 67, 0
2,52681, Control_c, 0, 64, 61
2,52690, Note_on_c, 0, 66, 51
2,52696, Control_c, 0, 64, 60
2,52712, Control_c, 0, 64, 59
2,52727, Control_c, 0, 64, 57
2,52731, Note_on_c, 0, 58, 0
2,52742, Control_c, 0, 64, 55
2,52757, Control_c, 0, 64, 55
2,52787, Control_c, 0, 64, 56
2,52803, Control_c, 0, 64, 57
2,52818, Control_c, 0, 64, 59
2,52833, Control_c, 0, 64, 60
2,52848, Control_c, 0, 64, 62
2,52852, Note_on_c, 0, 67, 46
2,52863, Control_c, 0, 64, 63
2,52879, Control_c, 0, 64, 63
2,52917, Control_c, 0, 64, 64
2,52918, Note_on_c, 0, 66, 0
2,53008, Control_c, 0, 64, 63
2,53039, Control_c, 0, 64, 63
2,53049, Note_on_c, 0, 69, 57
2,53053, Control_c, 0, 64, 62
2,53054, Note_on_c, 0, 60, 52
2,53067, Note_on_c, 0, 67, 0
2,53068, Control_c, 0, 64, 61
2,53084, Control_c, 0, 64, 59
2,53086, Note_on_c, 0, 57, 0
2,53098, Control_c, 0, 64, 57
2,53114, Control_c, 0, 64, 56
2,53129, Control_c, 0, 64, 55
2,53160, Control_c, 0, 64, 55
2,53174, Control_c, 0, 64, 57
2,53190, Control_c, 0, 64, 61
2,53205, Control_c, 0, 64, 64
2,53212, Note_on_c, 0, 67, 52
2,53220, Control_c, 0, 64, 66
2,53236, Control_c, 0, 64, 68
2,53252, Control_c, 0, 64, 71
2,53266, Control_c, 0, 64, 73
2,53270, Note_on_c, 0, 69, 0
2,53282, Control_c, 0, 64, 74
2,53342, Control_c, 0, 64, 74
2,53346, Note_on_c, 0, 67, 0
2,53358, Control_c, 0, 64, 73
2,53373, Control_c, 0, 64, 73
2,53388, Control_c, 0, 64, 72
2,53404, Control_c, 0, 64, 70
2,53418, Control_c, 0, 64, 69
2,53421, Note_on_c, 0, 58, 47
2,53434, Control_c, 0, 64, 68
2,53436, Note_on_c, 0, 67, 24
2,53449, Control_c, 0, 64, 66
2,53451, Note_on_c, 0, 60, 0
2,53464, Control_c, 0, 64, 64
2,53480, Control_c, 0, 64, 61
2,53495, Control_c, 0, 64, 58
2,53511, Control_c, 0, 64, 56
2,53540, Control_c, 0, 64, 58
2,53545, Note_on_c, 0, 50, 0
2,53556, Control_c, 0, 64, 61
2,53571, Control_c, 0, 64, 64
2,53586, Control_c, 0, 64, 67
2,53601, Control_c, 0, 64, 70
2,53603, Note_on_c, 0, 69, 38
2,53616, Control_c, 0, 64, 72
2,53632, Control_c, 0, 64, 73
2,53658, Note_on_c, 0, 67, 0
2,53700, Control_c, 0, 64, 73
2,53716, Control_c, 0, 64, 72
2,53730, Control_c, 0, 64, 72
2,53758, Note_on_c, 0, 55, 65
2,53761, Control_c, 0, 64, 71
2,53776, Control_c, 0, 64, 70
2,53777, Note_on_c, 0, 69, 0
2,53778, Note_on_c, 0, 70, 50
2,53792, Control_c, 0, 64, 69
2,53807, Control_c, 0, 64, 67
2,53821, Control_c, 0, 64, 65
2,53837, Control_c, 0, 64, 64
2,53867, Control_c, 0, 64, 65
2,53883, Control_c, 0, 64, 66
2,53897, Control_c, 0, 64, 69
2,53913, Control_c, 0, 64, 71
2,53926, Note_on_c, 0, 69, 57
2,53928, Control_c, 0, 64, 74
2,53942, Control_c, 0, 64, 76
2,53947, Note_on_c, 0, 70, 0
2,53958, Control_c, 0, 64, 76
2,54043, Note_on_c, 0, 69, 0
2,54049, Control_c, 0, 64, 75
2,54065, Control_c, 0, 64, 75
2,54081, Control_c, 0, 64, 74
2,54096, Control_c, 0, 64, 73
2,54106, Note_on_c, 0, 54, 68
2,54111, Control_c, 0, 64, 71
2,54111, Note_on_c, 0, 62, 64
2,54126, Control_c, 0, 64, 68
2,54126, Note_on_c, 0, 69, 59
2,54141, Control_c, 0, 64, 63
2,54150, Note_on_c, 0, 55, 0
2,54156, Note_on_c, 0, 58, 0
2,54157, Control_c, 0, 64, 55
2,54171, Control_c, 0, 64, 48
2,54186, Control_c, 0, 64, 46
2,54202, Control_c, 0, 64, 48
2,54217, Control_c, 0, 64, 55
2,54233, Control_c, 0, 64, 62
2,54247, Control_c, 0, 64, 66
2,54262, Control_c, 0, 64, 70
2,54278, Control_c, 0, 64, 74
2,54284, Note_on_c, 0, 71, 70
2,54293, Control_c, 0, 64, 77
2,54308, Control_c, 0, 64, 79
2,54324, Control_c, 0, 64, 80
2,54331, Note_on_c, 0, 69, 0
2,54339, Control_c, 0, 64, 80
2,54384, Control_c, 0, 64, 80
2,54400, Control_c, 0, 64, 79
2,54422, Control_c, 0, 64, 79
2,54438, Control_c, 0, 64, 78
2,54452, Control_c, 0, 64, 76
2,54467, Control_c, 0, 64, 73
2,54470, Note_on_c, 0, 52, 75
2,54474, Note_on_c, 0, 72, 71
2,54483, Control_c, 0, 64, 69
2,54484, Note_on_c, 0, 71, 0
2,54487, Note_on_c, 0, 54, 0
2,54498, Control_c, 0, 64, 64
2,54514, Control_c, 0, 64, 59
2,54528, Control_c, 0, 64, 53
2,54543, Control_c, 0, 64, 52
2,54559, Control_c, 0, 64, 53
2,54574, Control_c, 0, 64, 58
2,54590, Control_c, 0, 64, 63
2,54605, Control_c, 0, 64, 66
2,54620, Control_c, 0, 64, 70
2,54633, Note_on_c, 0, 71, 77
2,54636, Control_c, 0, 64, 76
2,54651, Control_c, 0, 64, 79
2,54655, Note_on_c, 0, 72, 0
2,54666, Control_c, 0, 64, 80
2,54682, Control_c, 0, 64, 81
2,54696, Control_c, 0, 64, 81
2,54712, Control_c, 0, 64, 82
2,54758, Note_on_c, 0, 71, 0
2,54787, Control_c, 0, 64, 81
2,54803, Control_c, 0, 64, 81
2,54817, Note_on_c, 0, 71, 72
2,54818, Control_c, 0, 64, 80
2,54824, Note_on_c, 0, 50, 62
2,54834, Control_c, 0, 64, 78
2,54849, Control_c, 0, 64, 75
2,54863, Control_c, 0, 64, 69
2,54876, Note_on_c, 0, 52, 0
2,54880, Control_c, 0, 64, 61
2,54895, Control_c, 0, 64, 48
2,54911, Control_c, 0, 64, 42
2,54926, Control_c, 0, 64, 43
2,54941, Control_c, 0, 64, 49
2,54956, Control_c, 0, 64, 58
2,54971, Control_c, 0, 64, 63
2,54986, Control_c, 0, 64, 66
2,54995, Note_on_c, 0, 73, 84
2,55002, Control_c, 0, 64, 71
2,55016, Control_c, 0, 64, 76
2,55032, Control_c, 0, 64, 80
2,55047, Control_c, 0, 64, 84
2,55047, Note_on_c, 0, 71, 0
2,55062, Control_c, 0, 64, 87
2,55078, Control_c, 0, 64, 91
2,55092, Control_c, 0, 64, 94
2,55107, Control_c, 0, 64, 97
2,55168, Control_c, 0, 64, 96
2,55192, Control_c, 0, 64, 95
2,55204, Note_on_c, 0, 74, 88
2,55206, Note_on_c, 0, 53, 59
2,55207, Control_c, 0, 64, 93
2,55221, Control_c, 0, 64, 89
2,55228, Note_on_c, 0, 73, 0
2,55237, Control_c, 0, 64, 81
2,55252, Control_c, 0, 64, 69
2,55267, Control_c, 0, 64, 61
2,55283, Control_c, 0, 64, 59
2,55297, Control_c, 0, 64, 63
2,55313, Control_c, 0, 64, 66
2,55321, Note_on_c, 0, 50, 0
2,55328, Control_c, 0, 64, 70
2,55342, Control_c, 0, 64, 75
2,55358, Control_c, 0, 64, 82
2,55372, Control_c, 0, 64, 86
2,55387, Control_c, 0, 64, 88
2,55419, Note_on_c, 0, 73, 90
2,55456, Note_on_c, 0, 74, 0
2,55464, Control_c, 0, 64, 88
2,55480, Control_c, 0, 64, 90
2,55494, Control_c, 0, 64, 93
2,55510, Control_c, 0, 64, 97
2,55525, Control_c, 0, 64, 101
2,55540, Control_c, 0, 64, 105
2,55555, Control_c, 0, 64, 108
2,55570, Control_c, 0, 64, 109
2,55585, Control_c, 0, 64, 108
2,55601, Control_c, 0, 64, 105
2,55616, Control_c, 0, 64, 103
2,55631, Control_c, 0, 64, 102
2,55652, Note_on_c, 0, 73, 0
2,55661, Control_c, 0, 64, 100
2,55677, Control_c, 0, 64, 93
2,55692, Control_c, 0, 64, 86
2,55694, Note_on_c, 0, 52, 46
2,55705, Note_on_c, 0, 55, 46
2,55708, Control_c, 0, 64, 80
2,55723, Control_c, 0, 64, 76
2,55723, Note_on_c, 0, 62, 0
2,55738, Control_c, 0, 64, 73
2,55754, Control_c, 0, 64, 71
2,55754, Note_on_c, 0, 73, 71
2,55769, Control_c, 0, 64, 67
2,55784, Control_c, 0, 64, 63
2,55799, Control_c, 0, 64, 55
2,55807, Note_on_c, 0, 53, 0
2,55814, Control_c, 0, 64, 42
2,55830, Control_c, 0, 64, 0
2,55974, Control_c, 0, 64, 25
2,55988, Control_c, 0, 64, 49
2,56004, Control_c, 0, 64, 57
2,56019, Control_c, 0, 64, 60
2,56035, Control_c, 0, 64, 62
2,56050, Control_c, 0, 64, 63
2,56064, Control_c, 0, 64, 63
2,56080, Control_c, 0, 64, 64
2,56095, Control_c, 0, 64, 65
2,56111, Control_c, 0, 64, 66
2,56126, Control_c, 0, 64, 67
2,56139, Control_c, 0, 64, 69
2,56155, Control_c, 0, 64, 71
2,56170, Control_c, 0, 64, 72
2,56185, Control_c, 0, 64, 72
2,56200, Note_on_c, 0, 81, 77
2,56216, Control_c, 0, 64, 73
2,56232, Control_c, 0, 64, 74
2,56255, Note_on_c, 0, 73, 0
2,56391, Note_on_c, 0, 55, 0
2,56398, Control_c, 0, 64, 74
2,56474, Control_c, 0, 64, 73
2,56504, Control_c, 0, 64, 73
2,56552, Control_c, 0, 64, 72
2,56567, Control_c, 0, 64, 72
2,56571, Note_on_c, 0, 79, 79
2,56581, Control_c, 0, 64, 71
2,56597, Control_c, 0, 64, 71
2,56612, Control_c, 0, 64, 70
2,56624, Note_on_c, 0, 81, 0
2,56626, Control_c, 0, 64, 70
2,56642, Control_c, 0, 64, 69
2,56657, Control_c, 0, 64, 69
2,56673, Control_c, 0, 64, 68
2,56688, Control_c, 0, 64, 68
2,56702, Control_c, 0, 64, 67
2,56708, Note_on_c, 0, 52, 0
2,56726, Control_c, 0, 64, 66
2,56741, Control_c, 0, 64, 66
2,56757, Control_c, 0, 64, 65
2,56759, Note_on_c, 0, 50, 58
2,56786, Control_c, 0, 64, 65
2,56817, Control_c, 0, 64, 64
2,56847, Control_c, 0, 64, 64
2,56878, Control_c, 0, 64, 63
2,56893, Control_c, 0, 64, 63
2,56923, Control_c, 0, 64, 62
2,56938, Control_c, 0, 64, 62
2,56945, Note_on_c, 0, 77, 71
2,56947, Note_on_c, 0, 49, 40
2,56961, Note_on_c, 0, 50, 0
2,56969, Control_c, 0, 64, 61
2,56983, Control_c, 0, 64, 61
2,57014, Control_c, 0, 64, 60
2,57014, Note_on_c, 0, 79, 0
2,57030, Control_c, 0, 64, 59
2,57045, Control_c, 0, 64, 59
2,57063, Control_c, 0, 64, 58
2,57078, Control_c, 0, 64, 58
2,57092, Control_c, 0, 64, 57
2,57108, Control_c, 0, 64, 57
2,57120, Note_on_c, 0, 47, 44
2,57140, Note_on_c, 0, 49, 0
2,57184, Control_c, 0, 64, 56
2,57199, Control_c, 0, 64, 56
2,57230, Control_c, 0, 64, 55
2,57244, Control_c, 0, 64, 54
2,57275, Control_c, 0, 64, 54
2,57290, Note_on_c, 0, 76, 62
2,57314, Note_on_c, 0, 50, 34
2,57320, Control_c, 0, 64, 53
2,57336, Control_c, 0, 64, 53
2,57347, Note_on_c, 0, 47, 0
2,57351, Note_on_c, 0, 77, 0
2,57352, Control_c, 0, 64, 52
2,57367, Control_c, 0, 64, 52
2,57383, Control_c, 0, 64, 51
2,57412, Control_c, 0, 64, 51
2,57428, Control_c, 0, 64, 50
2,57443, Control_c, 0, 64, 49
2,57478, Note_on_c, 0, 50, 0
2,57481, Note_on_c, 0, 49, 43
2,57512, Control_c, 0, 64, 48
2,57557, Control_c, 0, 64, 48
2,57603, Control_c, 0, 64, 47
2,57656, Note_on_c, 0, 79, 59
2,57661, Note_on_c, 0, 49, 0
2,57665, Note_on_c, 0, 47, 39
2,57695, Note_on_c, 0, 76, 0
2,57821, Note_on_c, 0, 47, 0
2,57837, Note_on_c, 0, 45, 41
2,57997, Control_c, 0, 64, 48
2,58035, Note_on_c, 0, 45, 0
2,58035, Note_on_c, 0, 79, 0
2,58042, Control_c, 0, 64, 48
2,58044, Note_on_c, 0, 50, 29
2,58047, Note_on_c, 0, 77, 54
2,58073, Control_c, 0, 64, 49
2,58087, Control_c, 0, 64, 49
2,58103, Control_c, 0, 64, 50
2,58118, Control_c, 0, 64, 51
2,58133, Control_c, 0, 64, 52
2,58149, Control_c, 0, 64, 55
2,58165, Control_c, 0, 64, 60
2,58179, Control_c, 0, 64, 63
2,58195, Control_c, 0, 64, 64
2,58210, Control_c, 0, 64, 66
2,58216, Note_on_c, 0, 50, 0
2,58226, Control_c, 0, 64, 69
2,58241, Control_c, 0, 64, 71
2,58256, Control_c, 0, 64, 74
2,58267, Note_on_c, 0, 81, 43
2,58279, Control_c, 0, 64, 76
2,58294, Control_c, 0, 64, 77
2,58307, Note_on_c, 0, 77, 0
2,58310, Control_c, 0, 64, 77
2,58339, Control_c, 0, 64, 77
2,58355, Control_c, 0, 64, 76
2,58370, Control_c, 0, 64, 76
2,58386, Control_c, 0, 64, 75
2,58400, Control_c, 0, 64, 73
2,58415, Control_c, 0, 64, 72
2,58431, Control_c, 0, 64, 70
2,58438, Note_on_c, 0, 81, 0
2,58447, Control_c, 0, 64, 68
2,58453, Note_on_c, 0, 82, 58
2,58459, Note_on_c, 0, 62, 59
2,58463, Control_c, 0, 64, 67
2,58477, Control_c, 0, 64, 65
2,58492, Control_c, 0, 64, 62
2,58508, Control_c, 0, 64, 60
2,58522, Control_c, 0, 64, 61
2,58537, Control_c, 0, 64, 63
2,58553, Control_c, 0, 64, 66
2,58568, Control_c, 0, 64, 69
2,58584, Control_c, 0, 64, 73
2,58598, Control_c, 0, 64, 77
2,58612, Note_on_c, 0, 81, 47
2,58613, Control_c, 0, 64, 81
2,58629, Control_c, 0, 64, 84
2,58642, Note_on_c, 0, 82, 0
2,58644, Control_c, 0, 64, 87
2,58655, Note_on_c, 0, 81, 0
2,58658, Control_c, 0, 64, 89
2,58674, Control_c, 0, 64, 90
2,58689, Control_c, 0, 64, 90
2,58705, Control_c, 0, 64, 89
2,58719, Control_c, 0, 64, 88
2,58734, Control_c, 0, 64, 87
2,58750, Control_c, 0, 64, 85
2,58765, Control_c, 0, 64, 82
2,58780, Control_c, 0, 64, 79
2,58796, Control_c, 0, 64, 76
2,58811, Control_c, 0, 64, 72
2,58816, Note_on_c, 0, 64, 58
2,58827, Control_c, 0, 64, 66
2,58832, Note_on_c, 0, 73, 53
2,58842, Control_c, 0, 64, 61
2,58856, Control_c, 0, 64, 56
2,58872, Control_c, 0, 64, 50
2,58887, Control_c, 0, 64, 43
2,58903, Control_c, 0, 64, 28
2,58906, Note_on_c, 0, 62, 0
2,58918, Control_c, 0, 64, 0
2,59103, Note_on_c, 0, 73, 0
2,59183, Note_on_c, 0, 65, 65
2,59212, Control_c, 0, 64, 23
2,59227, Control_c, 0, 64, 26
2,59243, Control_c, 0, 64, 27
2,59258, Control_c, 0, 64, 27
2,59274, Control_c, 0, 64, 29
2,59286, Note_on_c, 0, 64, 0
2,59288, Control_c, 0, 64, 31
2,59303, Control_c, 0, 64, 33
2,59319, Control_c, 0, 64, 34
2,59350, Control_c, 0, 64, 34
2,59364, Control_c, 0, 64, 36
2,59379, Control_c, 0, 64, 37
2,59395, Control_c, 0, 64, 38
2,59425, Control_c, 0, 64, 38
2,59455, Control_c, 0, 64, 39
2,59471, Control_c, 0, 64, 40
2,59542, Note_on_c, 0, 76, 60
2,59552, Note_on_c, 0, 67, 64
2,59622, Control_c, 0, 64, 40
2,59631, Note_on_c, 0, 65, 0
2,59760, Control_c, 0, 64, 41
2,59774, Control_c, 0, 64, 43
2,59813, Control_c, 0, 64, 43
2,59828, Control_c, 0, 64, 44
2,59844, Control_c, 0, 64, 44
2,59859, Control_c, 0, 64, 45
2,59874, Control_c, 0, 64, 46
2,59889, Control_c, 0, 64, 47
2,59904, Control_c, 0, 64, 48
2,59915, Note_on_c, 0, 64, 61
2,59920, Control_c, 0, 64, 49
2,59934, Control_c, 0, 64, 51
2,59950, Control_c, 0, 64, 52
2,59961, Note_on_c, 0, 67, 0
2,59965, Control_c, 0, 64, 53
2,59980, Control_c, 0, 64, 54
2,59996, Control_c, 0, 64, 55
2,60010, Control_c, 0, 64, 57
2,60025, Control_c, 0, 64, 59
2,60041, Control_c, 0, 64, 60
2,60056, Control_c, 0, 64, 61
2,60072, Control_c, 0, 64, 63
2,60087, Control_c, 0, 64, 64
2,60102, Control_c, 0, 64, 65
2,60118, Control_c, 0, 64, 66
2,60132, Control_c, 0, 64, 67
2,60163, Control_c, 0, 64, 67
2,60178, Control_c, 0, 64, 68
2,60194, Control_c, 0, 64, 69
2,60194, Note_on_c, 0, 64, 0
2,60208, Control_c, 0, 64, 70
2,60223, Control_c, 0, 64, 71
2,60239, Control_c, 0, 64, 71
2,60250, Note_on_c, 0, 65, 64
2,60254, Control_c, 0, 64, 72
2,60270, Control_c, 0, 64, 73
2,60283, Note_on_c, 0, 76, 0
2,60284, Control_c, 0, 64, 74
2,60299, Control_c, 0, 64, 75
2,60315, Control_c, 0, 64, 76
2,60330, Control_c, 0, 64, 77
2,60344, Control_c, 0, 64, 78
2,60360, Control_c, 0, 64, 79
2,60375, Control_c, 0, 64, 79
2,60407, Note_on_c, 0, 65, 0
2,60415, Note_on_c, 0, 62, 65
2,60436, Control_c, 0, 64, 79
2,60451, Control_c, 0, 64, 78
2,60466, Control_c, 0, 64, 77
2,60482, Control_c, 0, 64, 77
2,60496, Control_c, 0, 64, 76
2,60512, Control_c, 0, 64, 75
2,60527, Control_c, 0, 64, 74
2,60542, Control_c, 0, 64, 71
2,60558, Control_c, 0, 64, 68
2,60580, Control_c, 0, 64, 66
2,60584, Note_on_c, 0, 57, 49
2,60596, Control_c, 0, 64, 63
2,60603, Note_on_c, 0, 61, 66
2,60607, Note_on_c, 0, 69, 64
2,60611, Control_c, 0, 64, 60
2,60612, Note_on_c, 0, 62, 0
2,60627, Control_c, 0, 64, 53
2,60642, Control_c, 0, 64, 43
2,60657, Control_c, 0, 64, 37
2,60673, Control_c, 0, 64, 32
2,60688, Control_c, 0, 64, 32
2,60718, Control_c, 0, 64, 39
2,60733, Control_c, 0, 64, 51
2,60748, Control_c, 0, 64, 60
2,60763, Note_on_c, 0, 62, 75
2,60764, Control_c, 0, 64, 64
2,60768, Note_on_c, 0, 69, 0
2,60776, Note_on_c, 0, 61, 0
2,60778, Control_c, 0, 64, 66
2,60794, Control_c, 0, 64, 69
2,60809, Control_c, 0, 64, 71
2,60824, Control_c, 0, 64, 72
2,60840, Control_c, 0, 64, 73
2,60850, Note_on_c, 0, 62, 0
2,60870, Control_c, 0, 64, 73
2,60885, Control_c, 0, 64, 72
2,60900, Control_c, 0, 64, 72
2,60916, Control_c, 0, 64, 71
2,60931, Control_c, 0, 64, 69
2,60945, Control_c, 0, 64, 67
2,60961, Control_c, 0, 64, 65
2,60968, Note_on_c, 0, 55, 44
2,60976, Control_c, 0, 64, 63
2,60988, Note_on_c, 0, 74, 67
2,60992, Control_c, 0, 64, 61
2,60992, Note_on_c, 0, 70, 59
2,60997, Note_on_c, 0, 57, 0
2,61007, Control_c, 0, 64, 58
2,61022, Control_c, 0, 64, 51
2,61038, Control_c, 0, 64, 41
2,61052, Control_c, 0, 64, 26
2,61067, Control_c, 0, 64, 0
2,61219, Control_c, 0, 64, 22
2,61235, Control_c, 0, 64, 39
2,61249, Control_c, 0, 64, 48
2,61264, Control_c, 0, 64, 53
2,61280, Control_c, 0, 64, 56
2,61295, Control_c, 0, 64, 58
2,61310, Control_c, 0, 64, 59
2,61325, Control_c, 0, 64, 60
2,61325, Note_on_c, 0, 55, 0
2,61344, Note_on_c, 0, 53, 47
2,61348, Control_c, 0, 64, 60
2,61350, Note_on_c, 0, 70, 0
2,61409, Control_c, 0, 64, 61
2,61424, Control_c, 0, 64, 61
2,61440, Control_c, 0, 64, 62
2,61456, Control_c, 0, 64, 62
2,61472, Control_c, 0, 64, 63
2,61501, Control_c, 0, 64, 63
2,61516, Control_c, 0, 64, 64
2,61546, Control_c, 0, 64, 64
2,61607, Control_c, 0, 64, 64
2,61691, Note_on_c, 0, 52, 37
2,61698, Control_c, 0, 64, 63
2,61714, Control_c, 0, 64, 63
2,61724, Note_on_c, 0, 69, 59
2,61724, Note_on_c, 0, 72, 61
2,61729, Control_c, 0, 64, 62
2,61743, Control_c, 0, 64, 61
2,61743, Note_on_c, 0, 53, 0
2,61756, Note_on_c, 0, 74, 0
2,61759, Control_c, 0, 64, 58
2,61770, Note_on_c, 0, 69, 0
2,61774, Control_c, 0, 64, 52
2,61790, Control_c, 0, 64, 43
2,61805, Control_c, 0, 64, 29
2,61805, Note_on_c, 0, 67, 63
2,61819, Control_c, 0, 64, 0
2,61866, Note_on_c, 0, 67, 0
2,61895, Note_on_c, 0, 69, 58
2,61933, Note_on_c, 0, 69, 0
2,61969, Note_on_c, 0, 67, 62
2,62009, Note_on_c, 0, 67, 0
2,62045, Note_on_c, 0, 55, 37
2,62055, Note_on_c, 0, 69, 56
2,62102, Note_on_c, 0, 69, 0
2,62116, Note_on_c, 0, 52, 0
2,62123, Note_on_c, 0, 67, 65
2,62197, Note_on_c, 0, 67, 0
2,62221, Note_on_c, 0, 65, 53
2,62266, Note_on_c, 0, 65, 0
2,62300, Note_on_c, 0, 67, 58
2,62348, Note_on_c, 0, 67, 0
2,62359, Note_on_c, 0, 54, 37
2,62359, Note_on_c, 0, 55, 0
2,62397, Note_on_c, 0, 69, 53
2,62437, Control_c, 0, 64, 11
2,62452, Control_c, 0, 64, 43
2,62466, Control_c, 0, 64, 52
2,62482, Control_c, 0, 64, 56
2,62497, Control_c, 0, 64, 60
2,62513, Control_c, 0, 64, 62
2,62528, Control_c, 0, 64, 64
2,62542, Control_c, 0, 64, 66
2,62558, Control_c, 0, 64, 69
2,62559, Note_on_c, 0, 72, 0
2,62562, Note_on_c, 0, 57, 43
2,62573, Control_c, 0, 64, 71
2,62587, Control_c, 0, 64, 74
2,62594, Note_on_c, 0, 54, 0
2,62603, Control_c, 0, 64, 77
2,62618, Control_c, 0, 64, 79
2,62634, Control_c, 0, 64, 81
2,62664, Control_c, 0, 64, 80
2,62680, Control_c, 0, 64, 80
2,62694, Control_c, 0, 64, 79
2,62710, Control_c, 0, 64, 78
2,62725, Control_c, 0, 64, 77
2,62732, Note_on_c, 0, 58, 48
2,62740, Control_c, 0, 64, 75
2,62741, Note_on_c, 0, 75, 76
2,62756, Control_c, 0, 64, 73
2,62771, Control_c, 0, 64, 71
2,62781, Note_on_c, 0, 57, 0
2,62785, Control_c, 0, 64, 69
2,62801, Control_c, 0, 64, 68
2,62816, Control_c, 0, 64, 67
2,62847, Control_c, 0, 64, 67
2,62868, Control_c, 0, 64, 66
2,62884, Control_c, 0, 64, 65
2,62899, Control_c, 0, 64, 65
2,62918, Note_on_c, 0, 58, 0
2,62921, Note_on_c, 0, 57, 46
2,62945, Control_c, 0, 64, 64
2,62961, Control_c, 0, 64, 64
2,62976, Control_c, 0, 64, 63
2,63037, Control_c, 0, 64, 62
2,63052, Control_c, 0, 64, 62
2,63067, Control_c, 0, 64, 61
2,63098, Control_c, 0, 64, 60
2,63111, Note_on_c, 0, 54, 48
2,63113, Note_on_c, 0, 50, 37
2,63114, Control_c, 0, 64, 59
2,63116, Note_on_c, 0, 57, 0
2,63129, Control_c, 0, 64, 58
2,63144, Control_c, 0, 64, 56
2,63160, Control_c, 0, 64, 55
2,63174, Control_c, 0, 64, 54
2,63190, Control_c, 0, 64, 54
2,63205, Control_c, 0, 64, 52
2,63220, Control_c, 0, 64, 51
2,63235, Control_c, 0, 64, 50
2,63250, Control_c, 0, 64, 50
2,63254, Note_on_c, 0, 74, 63
2,63288, Note_on_c, 0, 54, 0
2,63337, Note_on_c, 0, 75, 0
2,63341, Control_c, 0, 64, 51
2,63357, Control_c, 0, 64, 52
2,63372, Control_c, 0, 64, 53
2,63386, Control_c, 0, 64, 54
2,63402, Control_c, 0, 64, 55
2,63417, Control_c, 0, 64, 56
2,63432, Control_c, 0, 64, 58
2,63447, Control_c, 0, 64, 60
2,63448, Note_on_c, 0, 72, 64
2,63462, Control_c, 0, 64, 61
2,63464, Note_on_c, 0, 74, 0
2,63478, Control_c, 0, 64, 62
2,63493, Control_c, 0, 64, 64
2,63507, Control_c, 0, 64, 65
2,63523, Control_c, 0, 64, 66
2,63538, Control_c, 0, 64, 68
2,63554, Control_c, 0, 64, 70
2,63569, Control_c, 0, 64, 72
2,63584, Control_c, 0, 64, 74
2,63600, Control_c, 0, 64, 74
2,63620, Note_on_c, 0, 74, 59
2,63622, Note_on_c, 0, 72, 0
2,63667, Control_c, 0, 64, 74
2,63698, Control_c, 0, 64, 73
2,63713, Control_c, 0, 64, 73
2,63728, Control_c, 0, 64, 72
2,63735, Note_on_c, 0, 74, 0
2,63743, Control_c, 0, 64, 71
2,63759, Control_c, 0, 64, 70
2,63774, Control_c, 0, 64, 69
2,63790, Control_c, 0, 64, 67
2,63805, Control_c, 0, 64, 66
2,63813, Note_on_c, 0, 54, 39
2,63813, Note_on_c, 0, 74, 60
2,63814, Note_on_c, 0, 57, 33
2,63819, Control_c, 0, 64, 64
2,63822, Note_on_c, 0, 69, 0
2,63835, Control_c, 0, 64, 62
2,63850, Control_c, 0, 64, 60
2,63865, Control_c, 0, 64, 58
2,63871, Note_on_c, 0, 50, 0
2,63881, Control_c, 0, 64, 56
2,63896, Control_c, 0, 64, 57
2,63912, Control_c, 0, 64, 58
2,63927, Control_c, 0, 64, 60
2,63942, Control_c, 0, 64, 61
2,63958, Control_c, 0, 64, 62
2,63973, Control_c, 0, 64, 63
2,63987, Control_c, 0, 64, 64
2,63991, Note_on_c, 0, 74, 0
2,63997, Note_on_c, 0, 72, 62
2,64003, Control_c, 0, 64, 64
2,64018, Control_c, 0, 64, 65
2,64049, Control_c, 0, 64, 65
2,64064, Control_c, 0, 64, 66
2,64079, Control_c, 0, 64, 68
2,64094, Control_c, 0, 64, 69
2,64095, Note_on_c, 0, 54, 0
2,64110, Control_c, 0, 64, 69
2,64112, Note_on_c, 0, 57, 0
2,64125, Control_c, 0, 64, 70
2,64147, Note_on_c, 0, 72, 0
2,64162, Note_on_c, 0, 70, 55
2,64170, Control_c, 0, 64, 70
2,64201, Control_c, 0, 64, 71
2,64216, Control_c, 0, 64, 71
2,64231, Control_c, 0, 64, 72
2,64335, Note_on_c, 0, 72, 63
2,64337, Control_c, 0, 64, 71
2,64342, Note_on_c, 0, 70, 0
2,64352, Control_c, 0, 64, 71
2,64421, Control_c, 0, 64, 70
2,64436, Control_c, 0, 64, 70
2,64439, Note_on_c, 0, 72, 0
2,64451, Control_c, 0, 64, 69
2,64466, Control_c, 0, 64, 69
2,64496, Control_c, 0, 64, 68
2,64503, Note_on_c, 0, 43, 41
2,64507, Note_on_c, 0, 72, 57
2,64512, Control_c, 0, 64, 67
2,64527, Control_c, 0, 64, 66
2,64542, Control_c, 0, 64, 66
2,64558, Control_c, 0, 64, 65
2,64572, Control_c, 0, 64, 64
2,64587, Control_c, 0, 64, 63
2,64603, Control_c, 0, 64, 62
2,64617, Control_c, 0, 64, 60
2,64633, Control_c, 0, 64, 58
2,64648, Control_c, 0, 64, 57
2,64657, Note_on_c, 0, 43, 0
2,64663, Control_c, 0, 64, 56
2,64677, Note_on_c, 0, 70, 60
2,64679, Control_c, 0, 64, 54
2,64681, Note_on_c, 0, 72, 0
2,64694, Control_c, 0, 64, 51
2,64694, Note_on_c, 0, 55, 44
2,64710, Control_c, 0, 64, 49
2,64725, Control_c, 0, 64, 49
2,64785, Control_c, 0, 64, 48
2,64832, Control_c, 0, 64, 49
2,64832, Note_on_c, 0, 70, 0
2,64853, Note_on_c, 0, 54, 51
2,64854, Note_on_c, 0, 69, 58
2,64863, Note_on_c, 0, 55, 0
2,64908, Control_c, 0, 64, 49
2,64923, Control_c, 0, 64, 50
2,64984, Control_c, 0, 64, 50
2,64990, Note_on_c, 0, 54, 0
2,64999, Control_c, 0, 64, 51
2,65009, Note_on_c, 0, 55, 44
2,65017, Note_on_c, 0, 69, 0
2,65018, Note_on_c, 0, 70, 61
2,65075, Control_c, 0, 64, 52
2,65090, Control_c, 0, 64, 53
2,65166, Control_c, 0, 64, 53
2,65167, Note_on_c, 0, 55, 0
2,65204, Control_c, 0, 64, 54
2,65206, Note_on_c, 0, 48, 35
2,65206, Note_on_c, 0, 52, 30
2,65226, Note_on_c, 0, 74, 48
2,65251, Note_on_c, 0, 70, 0
2,65295, Control_c, 0, 64, 54
2,65326, Control_c, 0, 64, 55
2,65371, Note_on_c, 0, 72, 59
2,65380, Note_on_c, 0, 52, 0
2,65383, Note_on_c, 0, 74, 0
2,65386, Control_c, 0, 64, 55
2,65416, Control_c, 0, 64, 56
2,65447, Control_c, 0, 64, 56
2,65461, Control_c, 0, 64, 58
2,65477, Control_c, 0, 64, 59
2,65492, Control_c, 0, 64, 60
2,65507, Control_c, 0, 64, 61
2,65523, Control_c, 0, 64, 62
2,65539, Control_c, 0, 64, 63
2,65544, Note_on_c, 0, 70, 60
2,65554, Control_c, 0, 64, 65
2,65558, Note_on_c, 0, 72, 0
2,65569, Control_c, 0, 64, 66
2,65584, Control_c, 0, 64, 68
2,65600, Control_c, 0, 64, 70
2,65615, Control_c, 0, 64, 72
2,65630, Control_c, 0, 64, 74
2,65645, Control_c, 0, 64, 75
2,65660, Control_c, 0, 64, 77
2,65676, Control_c, 0, 64, 78
2,65691, Control_c, 0, 64, 79
2,65718, Note_on_c, 0, 72, 54
2,65722, Control_c, 0, 64, 79
2,65752, Control_c, 0, 64, 78
2,65761, Note_on_c, 0, 70, 0
2,65767, Control_c, 0, 64, 78
2,65782, Control_c, 0, 64, 77
2,65798, Control_c, 0, 64, 77
2,65813, Control_c, 0, 64, 76
2,65821, Note_on_c, 0, 72, 0
2,65828, Control_c, 0, 64, 76
2,65843, Control_c, 0, 64, 74
2,65858, Control_c, 0, 64, 73
2,65874, Control_c, 0, 64, 71
2,65888, Control_c, 0, 64, 69
2,65895, Note_on_c, 0, 72, 52
2,65903, Control_c, 0, 64, 67
2,65911, Note_on_c, 0, 52, 37
2,65917, Note_on_c, 0, 55, 27
2,65919, Control_c, 0, 64, 66
2,65941, Control_c, 0, 64, 64
2,65957, Control_c, 0, 64, 61
2,65960, Note_on_c, 0, 48, 0
2,65972, Control_c, 0, 64, 57
2,65987, Control_c, 0, 64, 54
2,66003, Control_c, 0, 64, 53
2,66032, Note_on_c, 0, 72, 0
2,66034, Control_c, 0, 64, 54
2,66048, Control_c, 0, 64, 55
2,66060, Note_on_c, 0, 70, 59
2,66063, Control_c, 0, 64, 58
2,66079, Control_c, 0, 64, 61
2,66094, Control_c, 0, 64, 63
2,66097, Note_on_c, 0, 55, 0
2,66108, Control_c, 0, 64, 64
2,66128, Control_c, 0, 64, 65
2,66144, Control_c, 0, 64, 66
2,66174, Control_c, 0, 64, 67
2,66189, Control_c, 0, 64, 68
2,66204, Control_c, 0, 64, 71
2,66220, Control_c, 0, 64, 74
2,66235, Control_c, 0, 64, 76
2,66242, Note_on_c, 0, 70, 0
2,66249, Note_on_c, 0, 52, 0
2,66250, Control_c, 0, 64, 76
2,66261, Note_on_c, 0, 69, 58
2,66265, Control_c, 0, 64, 78
2,66280, Control_c, 0, 64, 80
2,66296, Control_c, 0, 64, 83
2,66310, Control_c, 0, 64, 85
2,66325, Control_c, 0, 64, 86
2,66341, Control_c, 0, 64, 87
2,66357, Control_c, 0, 64, 87
2,66388, Control_c, 0, 64, 87
2,66418, Control_c, 0, 64, 86
2,66431, Note_on_c, 0, 70, 61
2,66433, Control_c, 0, 64, 85
2,66442, Note_on_c, 0, 69, 0
2,66448, Control_c, 0, 64, 85
2,66464, Control_c, 0, 64, 84
2,66478, Control_c, 0, 64, 83
2,66493, Control_c, 0, 64, 83
2,66509, Control_c, 0, 64, 82
2,66524, Control_c, 0, 64, 81
2,66530, Note_on_c, 0, 70, 0
2,66540, Control_c, 0, 64, 80
2,66554, Control_c, 0, 64, 78
2,66569, Control_c, 0, 64, 76
2,66585, Control_c, 0, 64, 74
2,66598, Note_on_c, 0, 41, 38
2,66600, Control_c, 0, 64, 71
2,66606, Note_on_c, 0, 70, 59
2,66616, Control_c, 0, 64, 69
2,66631, Control_c, 0, 64, 67
2,66646, Control_c, 0, 64, 64
2,66662, Control_c, 0, 64, 62
2,66677, Control_c, 0, 64, 60
2,66691, Control_c, 0, 64, 59
2,66714, Control_c, 0, 64, 58
2,66774, Control_c, 0, 64, 57
2,66780, Note_on_c, 0, 69, 62
2,66787, Note_on_c, 0, 41, 0
2,66788, Note_on_c, 0, 53, 44
2,66851, Note_on_c, 0, 70, 0
2,66931, Note_on_c, 0, 69, 0
2,66945, Note_on_c, 0, 52, 44
2,66946, Note_on_c, 0, 53, 0
2,66956, Control_c, 0, 64, 57
2,66956, Note_on_c, 0, 67, 58
2,67068, Note_on_c, 0, 52, 0
2,67093, Control_c, 0, 64, 57
2,67104, Note_on_c, 0, 53, 48
2,67105, Note_on_c, 0, 67, 0
2,67119, Note_on_c, 0, 69, 61
2,67123, Control_c, 0, 64, 58
2,67154, Control_c, 0, 64, 58
2,67287, Note_on_c, 0, 53, 0
2,67301, Note_on_c, 0, 50, 41
2,67304, Note_on_c, 0, 69, 0
2,67304, Note_on_c, 0, 72, 57
2,67311, Note_on_c, 0, 46, 40
2,67322, Control_c, 0, 64, 58
2,67466, Note_on_c, 0, 70, 62
2,67481, Control_c, 0, 64, 58
2,67493, Note_on_c, 0, 50, 0
2,67507, Note_on_c, 0, 72, 0
2,67648, Note_on_c, 0, 70, 0
2,67661, Note_on_c, 0, 69, 56
2,67664, Control_c, 0, 64, 59
2,67694, Control_c, 0, 64, 59
2,67710, Control_c, 0, 64, 61
2,67725, Control_c, 0, 64, 62
2,67740, Control_c, 0, 64, 63
2,67755, Control_c, 0, 64, 63
2,67770, Control_c, 0, 64, 64
2,67785, Control_c, 0, 64, 65
2,67800, Control_c, 0, 64, 66
2,67816, Control_c, 0, 64, 68
2,67831, Control_c, 0, 64, 69
2,67832, Note_on_c, 0, 70, 57
2,67837, Note_on_c, 0, 69, 0
2,67846, Control_c, 0, 64, 71
2,67861, Control_c, 0, 64, 72
2,67876, Control_c, 0, 64, 73
2,67891, Control_c, 0, 64, 74
2,67907, Control_c, 0, 64, 74
2,67934, Note_on_c, 0, 70, 0
2,67938, Control_c, 0, 64, 74
2,67952, Control_c, 0, 64, 73
2,67967, Control_c, 0, 64, 72
2,67983, Control_c, 0, 64, 71
2,67994, Note_on_c, 0, 70, 45
2,67999, Control_c, 0, 64, 69
2,68005, Note_on_c, 0, 46, 0
2,68014, Control_c, 0, 64, 67
2,68018, Note_on_c, 0, 53, 35
2,68021, Note_on_c, 0, 50, 40
2,68029, Control_c, 0, 64, 64
2,68044, Control_c, 0, 64, 62
2,68060, Control_c, 0, 64, 60
2,68075, Control_c, 0, 64, 57
2,68090, Control_c, 0, 64, 54
2,68105, Control_c, 0, 64, 52
2,68120, Control_c, 0, 64, 53
2,68136, Control_c, 0, 64, 54
2,68144, Note_on_c, 0, 53, 0
2,68151, Control_c, 0, 64, 56
2,68166, Control_c, 0, 64, 59
2,68181, Control_c, 0, 64, 62
2,68184, Note_on_c, 0, 69, 49
2,68196, Control_c, 0, 64, 64
2,68211, Control_c, 0, 64, 65
2,68227, Control_c, 0, 64, 67
2,68249, Control_c, 0, 64, 69
2,68251, Note_on_c, 0, 70, 0
2,68265, Control_c, 0, 64, 71
2,68280, Control_c, 0, 64, 73
2,68296, Control_c, 0, 64, 75
2,68310, Control_c, 0, 64, 78
2,68325, Control_c, 0, 64, 80
2,68341, Control_c, 0, 64, 81
2,68341, Note_on_c, 0, 69, 0
2,68342, Note_on_c, 0, 50, 0
2,68356, Control_c, 0, 64, 83
2,68371, Control_c, 0, 64, 85
2,68376, Note_on_c, 0, 67, 44
2,68386, Control_c, 0, 64, 87
2,68401, Control_c, 0, 64, 88
2,68417, Control_c, 0, 64, 89
2,68507, Control_c, 0, 64, 89
2,68536, Note_on_c, 0, 69, 50
2,68538, Control_c, 0, 64, 88
2,68542, Note_on_c, 0, 67, 0
2,68552, Control_c, 0, 64, 88
2,68567, Control_c, 0, 64, 87
2,68583, Control_c, 0, 64, 86
2,68598, Control_c, 0, 64, 85
2,68613, Control_c, 0, 64, 84
2,68624, Note_on_c, 0, 69, 0
2,68628, Control_c, 0, 64, 83
2,68643, Control_c, 0, 64, 81
2,68659, Control_c, 0, 64, 79
2,68674, Control_c, 0, 64, 76
2,68689, Control_c, 0, 64, 73
2,68703, Note_on_c, 0, 69, 48
2,68705, Control_c, 0, 64, 70
2,68707, Note_on_c, 0, 52, 40
2,68719, Control_c, 0, 64, 68
2,68734, Control_c, 0, 64, 66
2,68750, Control_c, 0, 64, 64
2,68765, Control_c, 0, 64, 62
2,68781, Control_c, 0, 64, 60
2,68795, Control_c, 0, 64, 59
2,68811, Control_c, 0, 64, 58
2,68827, Control_c, 0, 64, 56
2,68842, Control_c, 0, 64, 54
2,68857, Control_c, 0, 64, 53
2,68872, Note_on_c, 0, 67, 54
2,68887, Control_c, 0, 64, 53
2,68887, Note_on_c, 0, 69, 0
2,68903, Control_c, 0, 64, 52
2,68918, Control_c, 0, 64, 51
2,68933, Control_c, 0, 64, 50
2,69037, Note_on_c, 0, 67, 0
2,69061, Note_on_c, 0, 65, 52
2,69066, Note_on_c, 0, 53, 47
2,69106, Control_c, 0, 64, 51
2,69121, Control_c, 0, 64, 51
2,69166, Control_c, 0, 64, 53
2,69181, Control_c, 0, 64, 54
2,69197, Control_c, 0, 64, 57
2,69212, Control_c, 0, 64, 60
2,69218, Note_on_c, 0, 65, 0
2,69224, Note_on_c, 0, 67, 56
2,69228, Control_c, 0, 64, 62
2,69243, Control_c, 0, 64, 62
2,69281, Note_on_c, 0, 67, 0
2,69319, Control_c, 0, 64, 62
2,69334, Control_c, 0, 64, 61
2,69349, Control_c, 0, 64, 60
2,69364, Control_c, 0, 64, 59
2,69379, Control_c, 0, 64, 57
2,69394, Control_c, 0, 64, 54
2,69409, Control_c, 0, 64, 50
2,69420, Note_on_c, 0, 76, 63
2,69425, Control_c, 0, 64, 45
2,69427, Note_on_c, 0, 55, 52
2,69440, Control_c, 0, 64, 40
2,69454, Note_on_c, 0, 53, 0
2,69455, Control_c, 0, 64, 36
2,69470, Control_c, 0, 64, 28
2,69485, Control_c, 0, 64, 0
2,69780, Control_c, 0, 64, 42
2,69781, Note_on_c, 0, 57, 64
2,69793, Note_on_c, 0, 76, 0
2,69796, Control_c, 0, 64, 55
2,69811, Control_c, 0, 64, 59
2,69826, Control_c, 0, 64, 61
2,69841, Control_c, 0, 64, 62
2,69856, Control_c, 0, 64, 63
2,69872, Control_c, 0, 64, 64
2,69887, Control_c, 0, 64, 65
2,69901, Note_on_c, 0, 55, 0
2,69902, Control_c, 0, 64, 67
2,69917, Control_c, 0, 64, 68
2,69932, Control_c, 0, 64, 70
2,69947, Control_c, 0, 64, 72
2,69964, Control_c, 0, 64, 73
2,69979, Control_c, 0, 64, 75
2,69994, Control_c, 0, 64, 75
2,70024, Control_c, 0, 64, 75
2,70085, Control_c, 0, 64, 74
2,70100, Control_c, 0, 64, 74
2,70115, Control_c, 0, 64, 72
2,70130, Control_c, 0, 64, 71
2,70145, Control_c, 0, 64, 70
2,70159, Control_c, 0, 64, 70
2,70164, Note_on_c, 0, 74, 68
2,70166, Note_on_c, 0, 58, 55
2,70172, Note_on_c, 0, 57, 0
2,70174, Control_c, 0, 64, 69
2,70189, Control_c, 0, 64, 68
2,70205, Control_c, 0, 64, 65
2,70219, Control_c, 0, 64, 61
2,70234, Control_c, 0, 64, 54
2,70244, Note_on_c, 0, 73, 73
2,70244, Note_on_c, 0, 74, 0
2,70250, Control_c, 0, 64, 43
2,70265, Control_c, 0, 64, 23
2,70281, Control_c, 0, 64, 0
2,70330, Note_on_c, 0, 73, 0
2,70331, Note_on_c, 0, 74, 78
2,70412, Note_on_c, 0, 74, 0
2,70418, Note_on_c, 0, 73, 72
2,70484, Note_on_c, 0, 73, 0
2,70486, Note_on_c, 0, 55, 47
2,70504, Note_on_c, 0, 58, 0
2,70507, Note_on_c, 0, 74, 78
2,70589, Note_on_c, 0, 74, 0
2,70602, Note_on_c, 0, 73, 77
2,70623, Control_c, 0, 64, 24
2,70639, Control_c, 0, 64, 43
2,70654, Control_c, 0, 64, 54
2,70669, Control_c, 0, 64, 60
2,70675, Note_on_c, 0, 73, 0
2,70678, Note_on_c, 0, 55, 0
2,70684, Control_c, 0, 64, 63
2,70686, Note_on_c, 0, 71, 73
2,70699, Control_c, 0, 64, 65
2,70714, Control_c, 0, 64, 68
2,70730, Control_c, 0, 64, 70
2,70745, Control_c, 0, 64, 73
2,70760, Control_c, 0, 64, 75
2,70770, Note_on_c, 0, 73, 72
2,70771, Note_on_c, 0, 71, 0
2,70775, Control_c, 0, 64, 76
2,70789, Note_on_c, 0, 52, 0
2,70806, Control_c, 0, 64, 75
2,70811, Note_on_c, 0, 73, 0
2,70821, Control_c, 0, 64, 74
2,70835, Control_c, 0, 64, 73
2,70851, Control_c, 0, 64, 71
2,70866, Control_c, 0, 64, 68
2,70881, Control_c, 0, 64, 63
2,70896, Control_c, 0, 64, 56
2,70907, Note_on_c, 0, 74, 66
2,70911, Control_c, 0, 64, 40
2,70920, Note_on_c, 0, 53, 46
2,70927, Control_c, 0, 64, 0
2,70933, Note_on_c, 0, 57, 37
2,71003, Control_c, 0, 64, 43
2,71018, Control_c, 0, 64, 60
2,71032, Control_c, 0, 64, 65
2,71048, Control_c, 0, 64, 70
2,71063, Control_c, 0, 64, 75
2,71072, Note_on_c, 0, 57, 0
2,71075, Note_on_c, 0, 53, 0
2,71079, Control_c, 0, 64, 82
2,71094, Control_c, 0, 64, 92
2,71109, Control_c, 0, 64, 107
2,71125, Control_c, 0, 64, 127
2,71376, Control_c, 0, 64, 113
2,71390, Control_c, 0, 64, 104
2,71405, Note_on_c, 0, 53, 65
2,71406, Control_c, 0, 64, 94
2,71406, Note_on_c, 0, 50, 64
2,71421, Control_c, 0, 64, 83
2,71437, Control_c, 0, 64, 72
2,71452, Control_c, 0, 64, 65
2,71467, Control_c, 0, 64, 58
2,71483, Control_c, 0, 64, 49
2,71497, Control_c, 0, 64, 34
2,71512, Control_c, 0, 64, 0
2,71559, Control_c, 0, 64, 17
2,71574, Control_c, 0, 64, 44
2,71589, Control_c, 0, 64, 57
2,71604, Control_c, 0, 64, 62
2,71619, Control_c, 0, 64, 65
2,71634, Control_c, 0, 64, 67
2,71650, Control_c, 0, 64, 70
2,71665, Control_c, 0, 64, 72
2,71667, Note_on_c, 0, 53, 0
2,71680, Control_c, 0, 64, 74
2,71695, Control_c, 0, 64, 74
2,71740, Control_c, 0, 64, 74
2,71771, Control_c, 0, 64, 73
2,71786, Control_c, 0, 64, 72
2,71801, Control_c, 0, 64, 70
2,71805, Note_on_c, 0, 55, 59
2,71807, Note_on_c, 0, 52, 59
2,71816, Control_c, 0, 64, 67
2,71831, Control_c, 0, 64, 64
2,71847, Control_c, 0, 64, 61
2,71861, Control_c, 0, 64, 55
2,71877, Control_c, 0, 64, 48
2,71877, Note_on_c, 0, 50, 0
2,71892, Control_c, 0, 64, 43
2,71907, Control_c, 0, 64, 45
2,71923, Control_c, 0, 64, 52
2,71938, Control_c, 0, 64, 59
2,71953, Control_c, 0, 64, 63
2,71969, Control_c, 0, 64, 66
2,71974, Note_on_c, 0, 72, 76
2,71983, Control_c, 0, 64, 68
2,71999, Control_c, 0, 64, 70
2,72002, Note_on_c, 0, 74, 0
2,72014, Control_c, 0, 64, 70
2,72074, Control_c, 0, 64, 70
2,72113, Control_c, 0, 64, 69
2,72129, Control_c, 0, 64, 69
2,72144, Control_c, 0, 64, 68
2,72159, Control_c, 0, 64, 66
2,72164, Note_on_c, 0, 57, 48
2,72166, Note_on_c, 0, 70, 76
2,72174, Control_c, 0, 64, 64
2,72181, Note_on_c, 0, 54, 49
2,72189, Control_c, 0, 64, 60
2,72205, Control_c, 0, 64, 56
2,72220, Control_c, 0, 64, 55
2,72221, Note_on_c, 0, 55, 0
2,72224, Note_on_c, 0, 52, 0
2,72231, Note_on_c, 0, 72, 0
2,72234, Control_c, 0, 64, 56
2,72250, Control_c, 0, 64, 58
2,72265, Control_c, 0, 64, 61
2,72281, Control_c, 0, 64, 63
2,72296, Control_c, 0, 64, 65
2,72310, Control_c, 0, 64, 65
2,72333, Note_on_c, 0, 69, 73
2,72341, Control_c, 0, 64, 66
2,72364, Note_on_c, 0, 70, 0
2,72386, Control_c, 0, 64, 65
2,72432, Control_c, 0, 64, 65
2,72478, Control_c, 0, 64, 64
2,72492, Control_c, 0, 64, 62
2,72507, Control_c, 0, 64, 59
2,72512, Note_on_c, 0, 69, 0
2,72519, Note_on_c, 0, 72, 74
2,72523, Control_c, 0, 64, 55
2,72524, Note_on_c, 0, 55, 41
2,72538, Control_c, 0, 64, 53
2,72543, Note_on_c, 0, 54, 0
2,72553, Control_c, 0, 64, 54
2,72570, Control_c, 0, 64, 56
2,72585, Control_c, 0, 64, 61
2,72601, Control_c, 0, 64, 63
2,72610, Note_on_c, 0, 57, 0
2,72616, Control_c, 0, 64, 64
2,72632, Control_c, 0, 64, 65
2,72646, Control_c, 0, 64, 65
2,72677, Control_c, 0, 64, 66
2,72692, Control_c, 0, 64, 66
2,72702, Note_on_c, 0, 70, 68
2,72723, Control_c, 0, 64, 66
2,72738, Control_c, 0, 64, 65
2,72866, Control_c, 0, 64, 66
2,72876, Note_on_c, 0, 69, 71
2,72877, Note_on_c, 0, 52, 55
2,72914, Control_c, 0, 64, 66
2,72929, Control_c, 0, 64, 67
2,72933, Note_on_c, 0, 70, 0
2,72943, Control_c, 0, 64, 67
2,72943, Note_on_c, 0, 55, 0
2,72953, Note_on_c, 0, 72, 0
2,72959, Control_c, 0, 64, 68
2,72974, Control_c, 0, 64, 68
2,72990, Control_c, 0, 64, 69
2,73019, Control_c, 0, 64, 70
2,73040, Note_on_c, 0, 67, 71
2,73050, Control_c, 0, 64, 70
2,73059, Note_on_c, 0, 69, 0
2,73065, Control_c, 0, 64, 70
2,73111, Control_c, 0, 64, 69
2,73126, Control_c, 0, 64, 69
2,73141, Control_c, 0, 64, 68
2,73157, Control_c, 0, 64, 68
2,73172, Control_c, 0, 64, 67
2,73187, Control_c, 0, 64, 66
2,73203, Control_c, 0, 64, 64
2,73217, Control_c, 0, 64, 62
2,73233, Control_c, 0, 64, 60
2,73248, Control_c, 0, 64, 56
2,73252, Note_on_c, 0, 52, 0
2,73252, Note_on_c, 0, 69, 70
2,73259, Note_on_c, 0, 54, 52
2,73263, Control_c, 0, 64, 50
2,73263, Note_on_c, 0, 67, 0
2,73279, Control_c, 0, 64, 35
2,73293, Control_c, 0, 64, 0
2,73354, Control_c, 0, 64, 43
2,73369, Control_c, 0, 64, 59
2,73384, Control_c, 0, 64, 64
2,73400, Control_c, 0, 64, 66
2,73414, Control_c, 0, 64, 69
2,73430, Control_c, 0, 64, 73
2,73436, Note_on_c, 0, 50, 50
2,73444, Note_on_c, 0, 54, 0
2,73445, Control_c, 0, 64, 78
2,73460, Control_c, 0, 64, 82
2,73476, Control_c, 0, 64, 85
2,73505, Control_c, 0, 64, 84
2,73521, Control_c, 0, 64, 83
2,73536, Control_c, 0, 64, 83
2,73552, Control_c, 0, 64, 82
2,73567, Control_c, 0, 64, 80
2,73581, Control_c, 0, 64, 78
2,73597, Control_c, 0, 64, 75
2,73606, Note_on_c, 0, 50, 0
2,73612, Control_c, 0, 64, 72
2,73624, Note_on_c, 0, 66, 76
2,73634, Note_on_c, 0, 49, 47
2,73634, Note_on_c, 0, 57, 49
2,73635, Control_c, 0, 64, 67
2,73650, Control_c, 0, 64, 63
2,73665, Control_c, 0, 64, 54
2,73681, Control_c, 0, 64, 38
2,73681, Note_on_c, 0, 69, 0
2,73696, Control_c, 0, 64, 23
2,73711, Control_c, 0, 64, 21
2,73727, Control_c, 0, 64, 30
2,73742, Control_c, 0, 64, 48
2,73753, Note_on_c, 0, 49, 0
2,73758, Control_c, 0, 64, 60
2,73773, Control_c, 0, 64, 65
2,73787, Control_c, 0, 64, 69
2,73804, Control_c, 0, 64, 74
2,73818, Note_on_c, 0, 50, 48
2,73819, Control_c, 0, 64, 80
2,73819, Note_on_c, 0, 57, 0
2,73835, Control_c, 0, 64, 89
2,73850, Control_c, 0, 64, 99
2,73864, Control_c, 0, 64, 110
2,73880, Control_c, 0, 64, 117
2,73895, Control_c, 0, 64, 116
2,73911, Control_c, 0, 64, 115
2,73926, Control_c, 0, 64, 113
2,73940, Control_c, 0, 64, 111
2,73956, Control_c, 0, 64, 107
2,73971, Control_c, 0, 64, 102
2,73985, Control_c, 0, 64, 95
2,73986, Note_on_c, 0, 50, 0
2,74001, Control_c, 0, 64, 87
2,74016, Control_c, 0, 64, 80
2,74025, Note_on_c, 0, 67, 75
2,74027, Note_on_c, 0, 55, 47
2,74032, Control_c, 0, 64, 73
2,74033, Note_on_c, 0, 66, 0
2,74047, Control_c, 0, 64, 66
2,74048, Note_on_c, 0, 58, 38
2,74061, Control_c, 0, 64, 57
2,74077, Control_c, 0, 64, 39
2,74092, Control_c, 0, 64, 0
2,74123, Control_c, 0, 64, 22
2,74138, Control_c, 0, 64, 47
2,74154, Control_c, 0, 64, 61
2,74169, Control_c, 0, 64, 67
2,74183, Control_c, 0, 64, 73
2,74199, Control_c, 0, 64, 83
2,74214, Control_c, 0, 64, 97
2,74230, Control_c, 0, 64, 127
2,74275, Note_on_c, 0, 58, 0
2,74281, Note_on_c, 0, 67, 0
2,74331, Note_on_c, 0, 55, 0
2,74366, Control_c, 0, 64, 107
2,74388, Control_c, 0, 64, 97
2,74404, Control_c, 0, 64, 89
2,74412, Note_on_c, 0, 69, 73
2,74419, Control_c, 0, 64, 83
2,74419, Note_on_c, 0, 54, 46
2,74421, Note_on_c, 0, 57, 42
2,74435, Control_c, 0, 64, 75
2,74450, Control_c, 0, 64, 65
2,74464, Control_c, 0, 64, 49
2,74480, Control_c, 0, 64, 22
2,74495, Control_c, 0, 64, 16
2,74511, Control_c, 0, 64, 31
2,74526, Control_c, 0, 64, 50
2,74541, Control_c, 0, 64, 61
2,74557, Control_c, 0, 64, 66
2,74572, Control_c, 0, 64, 71
2,74587, Control_c, 0, 64, 79
2,74603, Control_c, 0, 64, 87
2,74618, Control_c, 0, 64, 96
2,74622, Note_on_c, 0, 54, 0
2,74633, Control_c, 0, 64, 105
2,74642, Note_on_c, 0, 69, 0
2,74648, Control_c, 0, 64, 115
2,74663, Control_c, 0, 64, 127
2,74664, Note_on_c, 0, 57, 0
2,74694, Control_c, 0, 64, 123
2,74708, Control_c, 0, 64, 119
2,74724, Control_c, 0, 64, 115
2,74739, Control_c, 0, 64, 110
2,74755, Control_c, 0, 64, 102
2,74770, Control_c, 0, 64, 95
2,74784, Control_c, 0, 64, 90
2,74800, Control_c, 0, 64, 86
2,74808, Note_on_c, 0, 70, 61
2,74815, Control_c, 0, 64, 83
2,74823, Note_on_c, 0, 52, 40
2,74823, Note_on_c, 0, 55, 35
2,74830, Control_c, 0, 64, 76
2,74845, Control_c, 0, 64, 66
2,74860, Control_c, 0, 64, 51
2,74876, Control_c, 0, 64, 17
2,74891, Control_c, 0, 64, 0
2,74905, Control_c, 0, 64, 27
2,74921, Control_c, 0, 64, 50
2,74936, Control_c, 0, 64, 62
2,74952, Control_c, 0, 64, 67
2,74967, Control_c, 0, 64, 75
2,74982, Control_c, 0, 64, 84
2,74998, Control_c, 0, 64, 97
2,75013, Control_c, 0, 64, 117
2,75016, Note_on_c, 0, 52, 0
2,75027, Control_c, 0, 64, 127
2,75055, Note_on_c, 0, 55, 0
2,75064, Note_on_c, 0, 70, 0
2,75186, Control_c, 0, 64, 114
2,75202, Control_c, 0, 64, 111
2,75217, Control_c, 0, 64, 109
2,75233, Control_c, 0, 64, 106
2,75239, Note_on_c, 0, 67, 57
2,75248, Control_c, 0, 64, 99
2,75254, Note_on_c, 0, 55, 31
2,75263, Control_c, 0, 64, 86
2,75272, Note_on_c, 0, 58, 35
2,75279, Control_c, 0, 64, 74
2,75294, Control_c, 0, 64, 65
2,75308, Control_c, 0, 64, 57
2,75324, Control_c, 0, 64, 52
2,75339, Control_c, 0, 64, 51
2,75355, Control_c, 0, 64, 53
2,75370, Control_c, 0, 64, 58
2,75385, Control_c, 0, 64, 63
2,75401, Control_c, 0, 64, 67
2,75416, Control_c, 0, 64, 71
2,75432, Control_c, 0, 64, 75
2,75447, Control_c, 0, 64, 80
2,75452, Note_on_c, 0, 58, 0
2,75456, Note_on_c, 0, 67, 0
2,75461, Control_c, 0, 64, 82
2,75477, Control_c, 0, 64, 85
2,75492, Control_c, 0, 64, 90
2,75507, Control_c, 0, 64, 94
2,75523, Control_c, 0, 64, 98
2,75537, Control_c, 0, 64, 99
2,75540, Note_on_c, 0, 55, 0
2,75553, Control_c, 0, 64, 99
2,75583, Control_c, 0, 64, 99
2,75599, Control_c, 0, 64, 100
2,75614, Control_c, 0, 64, 101
2,75628, Control_c, 0, 64, 102
2,75644, Control_c, 0, 64, 101
2,75659, Control_c, 0, 64, 100
2,75674, Control_c, 0, 64, 99
2,75689, Control_c, 0, 64, 97
2,75704, Control_c, 0, 64, 95
2,75720, Control_c, 0, 64, 92
2,75734, Note_on_c, 0, 57, 31
2,75735, Control_c, 0, 64, 89
2,75740, Note_on_c, 0, 54, 38
2,75743, Note_on_c, 0, 69, 49
2,75750, Control_c, 0, 64, 85
2,75765, Control_c, 0, 64, 79
2,75780, Control_c, 0, 64, 71
2,75796, Control_c, 0, 64, 64
2,75811, Control_c, 0, 64, 57
2,75825, Control_c, 0, 64, 56
2,75841, Control_c, 0, 64, 58
2,75856, Control_c, 0, 64, 62
2,75872, Control_c, 0, 64, 65
2,75887, Control_c, 0, 64, 70
2,75902, Control_c, 0, 64, 75
2,75908, Note_on_c, 0, 69, 0
2,75918, Control_c, 0, 64, 81
2,75940, Control_c, 0, 64, 85
2,75955, Control_c, 0, 64, 86
2,75970, Control_c, 0, 64, 86
2,75985, Control_c, 0, 64, 87
2,75994, Note_on_c, 0, 57, 0
2,76000, Control_c, 0, 64, 90
2,76001, Note_on_c, 0, 72, 58
2,76015, Control_c, 0, 64, 94
2,76031, Control_c, 0, 64, 100
2,76046, Control_c, 0, 64, 102
2,76077, Control_c, 0, 64, 103
2,76092, Control_c, 0, 64, 104
2,76107, Control_c, 0, 64, 106
2,76108, Note_on_c, 0, 54, 0
2,76123, Control_c, 0, 64, 107
2,76140, Note_on_c, 0, 72, 0
2,76168, Control_c, 0, 64, 106
2,76183, Control_c, 0, 64, 106
2,76199, Control_c, 0, 64, 104
2,76214, Control_c, 0, 64, 102
2,76230, Control_c, 0, 64, 99
2,76245, Control_c, 0, 64, 96
2,76260, Control_c, 0, 64, 92
2,76267, Note_on_c, 0, 75, 54
2,76276, Control_c, 0, 64, 87
2,76282, Note_on_c, 0, 58, 35
2,76285, Note_on_c, 0, 55, 34
2,76291, Control_c, 0, 64, 84
2,76305, Control_c, 0, 64, 81
2,76321, Control_c, 0, 64, 78
2,76336, Control_c, 0, 64, 73
2,76352, Control_c, 0, 64, 67
2,76367, Control_c, 0, 64, 60
2,76381, Control_c, 0, 64, 50
2,76397, Control_c, 0, 64, 39
2,76412, Control_c, 0, 64, 35
2,76427, Control_c, 0, 64, 37
2,76442, Control_c, 0, 64, 46
2,76457, Control_c, 0, 64, 57
2,76473, Control_c, 0, 64, 63
2,76488, Control_c, 0, 64, 67
2,76503, Control_c, 0, 64, 71
2,76518, Control_c, 0, 64, 76
2,76533, Control_c, 0, 64, 80
2,76548, Control_c, 0, 64, 82
2,76587, Note_on_c, 0, 58, 0
2,76594, Control_c, 0, 64, 82
2,76624, Control_c, 0, 64, 81
2,76639, Control_c, 0, 64, 81
2,76654, Control_c, 0, 64, 79
2,76670, Control_c, 0, 64, 78
2,76684, Note_on_c, 0, 54, 33
2,76685, Control_c, 0, 64, 76
2,76696, Note_on_c, 0, 57, 39
2,76697, Note_on_c, 0, 55, 0
2,76708, Control_c, 0, 64, 74
2,76723, Control_c, 0, 64, 72
2,76738, Control_c, 0, 64, 68
2,76754, Control_c, 0, 64, 63
2,76769, Control_c, 0, 64, 56
2,76784, Control_c, 0, 64, 53
2,76799, Control_c, 0, 64, 56
2,76814, Control_c, 0, 64, 60
2,76830, Control_c, 0, 64, 64
2,76845, Control_c, 0, 64, 67
2,76845, Note_on_c, 0, 74, 60
2,76859, Control_c, 0, 64, 71
2,76875, Control_c, 0, 64, 75
2,76879, Note_on_c, 0, 75, 0
2,76890, Control_c, 0, 64, 78
2,76905, Control_c, 0, 64, 78
2,76935, Control_c, 0, 64, 78
2,76966, Control_c, 0, 64, 77
2,76981, Control_c, 0, 64, 77
2,76997, Control_c, 0, 64, 76
2,77012, Control_c, 0, 64, 76
2,77027, Control_c, 0, 64, 75
2,77038, Note_on_c, 0, 72, 65
2,77043, Control_c, 0, 64, 73
2,77057, Note_on_c, 0, 55, 39
2,77058, Control_c, 0, 64, 70
2,77061, Note_on_c, 0, 52, 34
2,77073, Control_c, 0, 64, 65
2,77079, Note_on_c, 0, 74, 0
2,77087, Note_on_c, 0, 57, 0
2,77088, Control_c, 0, 64, 59
2,77103, Control_c, 0, 64, 50
2,77119, Control_c, 0, 64, 43
2,77120, Note_on_c, 0, 54, 0
2,77134, Control_c, 0, 64, 42
2,77148, Control_c, 0, 64, 43
2,77164, Control_c, 0, 64, 52
2,77179, Control_c, 0, 64, 60
2,77195, Control_c, 0, 64, 65
2,77208, Note_on_c, 0, 72, 0
2,77210, Control_c, 0, 64, 68
2,77214, Note_on_c, 0, 70, 62
2,77224, Control_c, 0, 64, 72
2,77240, Control_c, 0, 64, 76
2,77255, Control_c, 0, 64, 77
2,77271, Control_c, 0, 64, 78
2,77316, Control_c, 0, 64, 77
2,77331, Control_c, 0, 64, 77
2,77346, Control_c, 0, 64, 76
2,77361, Control_c, 0, 64, 76
2,77376, Control_c, 0, 64, 75
2,77382, Note_on_c, 0, 52, 0
2,77392, Control_c, 0, 64, 73
2,77407, Control_c, 0, 64, 68
2,77410, Note_on_c, 0, 54, 34
2,77412, Note_on_c, 0, 74, 61
2,77422, Control_c, 0, 64, 61
2,77423, Note_on_c, 0, 50, 34
2,77437, Control_c, 0, 64, 48
2,77438, Note_on_c, 0, 55, 0
2,77443, Note_on_c, 0, 70, 0
2,77452, Control_c, 0, 64, 37
2,77490, Control_c, 0, 64, 43
2,77505, Control_c, 0, 64, 54
2,77521, Control_c, 0, 64, 61
2,77536, Control_c, 0, 64, 66
2,77552, Control_c, 0, 64, 70
2,77566, Control_c, 0, 64, 75
2,77581, Control_c, 0, 64, 79
2,77595, Note_on_c, 0, 72, 70
2,77597, Control_c, 0, 64, 80
2,77626, Note_on_c, 0, 74, 0
2,77627, Control_c, 0, 64, 80
2,77631, Note_on_c, 0, 54, 0
2,77740, Note_on_c, 0, 50, 0
2,77748, Control_c, 0, 64, 80
2,77764, Note_on_c, 0, 54, 41
2,77769, Note_on_c, 0, 70, 72
2,77786, Note_on_c, 0, 57, 47
2,77795, Control_c, 0, 64, 81
2,77810, Control_c, 0, 64, 81
2,77826, Note_on_c, 0, 72, 0
2,77847, Note_on_c, 0, 54, 0
2,77856, Control_c, 0, 64, 82
2,77864, Note_on_c, 0, 57, 0
2,77887, Control_c, 0, 64, 82
2,77917, Control_c, 0, 64, 83
2,77932, Control_c, 0, 64, 83
2,77941, Note_on_c, 0, 70, 0
2,77944, Note_on_c, 0, 69, 75
2,78008, Control_c, 0, 64, 83
2,78023, Control_c, 0, 64, 82
2,78054, Control_c, 0, 64, 82
2,78068, Control_c, 0, 64, 81
2,78084, Control_c, 0, 64, 80
2,78099, Control_c, 0, 64, 79
2,78115, Control_c, 0, 64, 77
2,78129, Control_c, 0, 64, 75
2,78144, Control_c, 0, 64, 73
2,78159, Note_on_c, 0, 55, 45
2,78160, Control_c, 0, 64, 69
2,78165, Note_on_c, 0, 43, 41
2,78175, Control_c, 0, 64, 66
2,78191, Control_c, 0, 64, 62
2,78193, Note_on_c, 0, 70, 72
2,78205, Control_c, 0, 64, 55
2,78228, Control_c, 0, 64, 42
2,78228, Note_on_c, 0, 69, 0
2,78244, Control_c, 0, 64, 32
2,78275, Control_c, 0, 64, 41
2,78289, Control_c, 0, 64, 54
2,78304, Control_c, 0, 64, 61
2,78320, Control_c, 0, 64, 65
2,78334, Control_c, 0, 64, 68
2,78350, Control_c, 0, 64, 72
2,78352, Note_on_c, 0, 43, 0
2,78365, Control_c, 0, 64, 77
2,78380, Control_c, 0, 64, 81
2,78396, Control_c, 0, 64, 85
2,78396, Note_on_c, 0, 55, 0
2,78410, Control_c, 0, 64, 88
2,78425, Control_c, 0, 64, 89
2,78427, Note_on_c, 0, 74, 84
2,78438, Note_on_c, 0, 70, 0
2,78471, Control_c, 0, 64, 89
2,78486, Control_c, 0, 64, 90
2,78532, Control_c, 0, 64, 89
2,78546, Control_c, 0, 64, 88
2,78562, Control_c, 0, 64, 87
2,78577, Control_c, 0, 64, 85
2,78593, Control_c, 0, 64, 83
2,78604, Note_on_c, 0, 74, 0
2,78608, Control_c, 0, 64, 80
2,78614, Note_on_c, 0, 57, 48
2,78615, Note_on_c, 0, 60, 51
2,78623, Control_c, 0, 64, 75
2,78623, Note_on_c, 0, 77, 79
2,78639, Control_c, 0, 64, 68
2,78654, Control_c, 0, 64, 61
2,78669, Control_c, 0, 64, 52
2,78685, Control_c, 0, 64, 47
2,78715, Control_c, 0, 64, 51
2,78730, Control_c, 0, 64, 58
2,78745, Control_c, 0, 64, 63
2,78761, Control_c, 0, 64, 67
2,78776, Control_c, 0, 64, 71
2,78792, Control_c, 0, 64, 76
2,78807, Control_c, 0, 64, 80
2,78822, Control_c, 0, 64, 81
2,78838, Control_c, 0, 64, 82
2,78850, Note_on_c, 0, 60, 0
2,78867, Control_c, 0, 64, 81
2,78898, Control_c, 0, 64, 81
2,78913, Control_c, 0, 64, 80
2,78928, Control_c, 0, 64, 79
2,78943, Control_c, 0, 64, 78
2,78959, Control_c, 0, 64, 77
2,78973, Control_c, 0, 64, 76
2,78978, Note_on_c, 0, 59, 59
2,78996, Note_on_c, 0, 56, 56
2,78997, Control_c, 0, 64, 74
2,79012, Control_c, 0, 64, 72
2,79026, Control_c, 0, 64, 69
2,79042, Control_c, 0, 64, 67
2,79057, Control_c, 0, 64, 63
2,79073, Control_c, 0, 64, 56
2,79088, Control_c, 0, 64, 47
2,79102, Control_c, 0, 64, 48
2,79118, Control_c, 0, 64, 52
2,79122, Note_on_c, 0, 57, 0
2,79133, Control_c, 0, 64, 58
2,79148, Control_c, 0, 64, 64
2,79164, Control_c, 0, 64, 67
2,79171, Note_on_c, 0, 76, 79
2,79177, Control_c, 0, 64, 71
2,79193, Control_c, 0, 64, 74
2,79202, Note_on_c, 0, 77, 0
2,79208, Control_c, 0, 64, 74
2,79284, Control_c, 0, 64, 74
2,79299, Control_c, 0, 64, 73
2,79315, Control_c, 0, 64, 73
2,79330, Control_c, 0, 64, 72
2,79344, Control_c, 0, 64, 72
2,79360, Control_c, 0, 64, 70
2,79361, Note_on_c, 0, 54, 48
2,79364, Note_on_c, 0, 57, 48
2,79375, Control_c, 0, 64, 68
2,79375, Note_on_c, 0, 59, 0
2,79375, Note_on_c, 0, 74, 80
2,79391, Control_c, 0, 64, 65
2,79406, Control_c, 0, 64, 60
2,79421, Control_c, 0, 64, 52
2,79437, Control_c, 0, 64, 45
2,79444, Note_on_c, 0, 56, 0
2,79452, Control_c, 0, 64, 44
2,79467, Control_c, 0, 64, 49
2,79477, Note_on_c, 0, 76, 0
2,79483, Control_c, 0, 64, 58
2,79498, Control_c, 0, 64, 63
2,79513, Control_c, 0, 64, 67
2,79528, Control_c, 0, 64, 70
2,79543, Control_c, 0, 64, 75
2,79547, Note_on_c, 0, 73, 87
2,79559, Control_c, 0, 64, 78
2,79573, Note_on_c, 0, 74, 0
2,79574, Control_c, 0, 64, 78
2,79589, Control_c, 0, 64, 78
2,79605, Control_c, 0, 64, 77
2,79619, Control_c, 0, 64, 77
2,79665, Control_c, 0, 64, 76
2,79681, Control_c, 0, 64, 76
2,79695, Control_c, 0, 64, 75
2,79708, Note_on_c, 0, 57, 0
2,79711, Control_c, 0, 64, 73
2,79715, Note_on_c, 0, 52, 46
2,79716, Note_on_c, 0, 56, 53
2,79726, Control_c, 0, 64, 70
2,79733, Note_on_c, 0, 76, 85
2,79740, Control_c, 0, 64, 64
2,79756, Control_c, 0, 64, 55
2,79757, Note_on_c, 0, 54, 0
2,79769, Note_on_c, 0, 73, 0
2,79779, Control_c, 0, 64, 43
2,79795, Control_c, 0, 64, 39
2,79810, Control_c, 0, 64, 41
2,79824, Control_c, 0, 64, 49
2,79840, Control_c, 0, 64, 59
2,79855, Control_c, 0, 64, 64
2,79871, Control_c, 0, 64, 67
2,79886, Control_c, 0, 64, 69
2,79900, Control_c, 0, 64, 70
2,79916, Control_c, 0, 64, 71
2,79916, Note_on_c, 0, 74, 87
2,79938, Note_on_c, 0, 56, 0
2,79961, Control_c, 0, 64, 71
2,79969, Note_on_c, 0, 76, 0
2,79992, Control_c, 0, 64, 70
2,80021, Control_c, 0, 64, 70
2,80037, Control_c, 0, 64, 69
2,80052, Control_c, 0, 64, 68
2,80067, Control_c, 0, 64, 64
2,80068, Note_on_c, 0, 52, 0
2,80079, Note_on_c, 0, 56, 45
2,80082, Note_on_c, 0, 73, 87
2,80083, Control_c, 0, 64, 58
2,80085, Note_on_c, 0, 59, 54
2,80097, Control_c, 0, 64, 52
2,80107, Note_on_c, 0, 74, 0
2,80113, Control_c, 0, 64, 54
2,80128, Control_c, 0, 64, 59
2,80143, Control_c, 0, 64, 63
2,80158, Control_c, 0, 64, 66
2,80164, Note_on_c, 0, 56, 0
2,80173, Control_c, 0, 64, 70
2,80188, Control_c, 0, 64, 74
2,80204, Control_c, 0, 64, 78
2,80219, Control_c, 0, 64, 81
2,80219, Note_on_c, 0, 59, 0
2,80235, Control_c, 0, 64, 81
2,80257, Note_on_c, 0, 71, 87
2,80265, Control_c, 0, 64, 82
2,80281, Control_c, 0, 64, 82
2,80291, Note_on_c, 0, 73, 0
2,80296, Control_c, 0, 64, 83
2,80357, Control_c, 0, 64, 83
2,80387, Control_c, 0, 64, 82
2,80403, Control_c, 0, 64, 81
2,80418, Control_c, 0, 64, 79
2,80434, Control_c, 0, 64, 77
2,80449, Control_c, 0, 64, 74
2,80450, Note_on_c, 0, 45, 52
2,80454, Note_on_c, 0, 57, 52
2,80463, Control_c, 0, 64, 72
2,80476, Note_on_c, 0, 73, 83
2,80479, Control_c, 0, 64, 68
2,80490, Note_on_c, 0, 71, 0
2,80494, Control_c, 0, 64, 61
2,80509, Control_c, 0, 64, 39
2,80525, Control_c, 0, 64, 0
2,80562, Control_c, 0, 64, 30
2,80577, Control_c, 0, 64, 52
2,80593, Control_c, 0, 64, 63
2,80608, Control_c, 0, 64, 68
2,80623, Control_c, 0, 64, 73
2,80636, Note_on_c, 0, 45, 0
2,80638, Control_c, 0, 64, 78
2,80653, Control_c, 0, 64, 82
2,80668, Control_c, 0, 64, 85
2,80677, Note_on_c, 0, 73, 0
2,80695, Note_on_c, 0, 57, 0
2,80714, Note_on_c, 0, 76, 92
2,80715, Control_c, 0, 64, 85
2,80730, Control_c, 0, 64, 86
2,80744, Control_c, 0, 64, 88
2,80760, Control_c, 0, 64, 90
2,80775, Control_c, 0, 64, 92
2,80789, Control_c, 0, 64, 93
2,80805, Control_c, 0, 64, 95
2,80820, Control_c, 0, 64, 97
2,80836, Control_c, 0, 64, 98
2,80865, Control_c, 0, 64, 97
2,80881, Control_c, 0, 64, 97
2,80885, Note_on_c, 0, 76, 0
2,80896, Control_c, 0, 64, 96
2,80912, Control_c, 0, 64, 95
2,80927, Control_c, 0, 64, 94
2,80941, Control_c, 0, 64, 91
2,80957, Control_c, 0, 64, 88
2,80972, Control_c, 0, 64, 86
2,80972, Note_on_c, 0, 65, 52
2,80977, Note_on_c, 0, 62, 50
2,80986, Control_c, 0, 64, 84
2,81002, Control_c, 0, 64, 83
2,81017, Control_c, 0, 64, 82
2,81028, Note_on_c, 0, 82, 87
2,81033, Control_c, 0, 64, 79
2,81048, Control_c, 0, 64, 76
2,81063, Control_c, 0, 64, 71
2,81079, Control_c, 0, 64, 66
2,81094, Control_c, 0, 64, 60
2,81109, Control_c, 0, 64, 49
2,81125, Control_c, 0, 64, 35
2,81140, Control_c, 0, 64, 21
2,81170, Control_c, 0, 64, 32
2,81185, Control_c, 0, 64, 49
2,81201, Control_c, 0, 64, 60
2,81216, Control_c, 0, 64, 64
2,81232, Control_c, 0, 64, 67
2,81247, Control_c, 0, 64, 70
2,81262, Control_c, 0, 64, 74
2,81277, Control_c, 0, 64, 78
2,81283, Note_on_c, 0, 65, 0
2,81292, Control_c, 0, 64, 81
2,81315, Control_c, 0, 64, 82
2,81345, Control_c, 0, 64, 81
2,81376, Control_c, 0, 64, 81
2,81391, Control_c, 0, 64, 80
2,81406, Control_c, 0, 64, 79
2,81421, Control_c, 0, 64, 79
2,81436, Control_c, 0, 64, 78
2,81449, Note_on_c, 0, 61, 52
2,81451, Control_c, 0, 64, 76
2,81458, Note_on_c, 0, 62, 0
2,81458, Note_on_c, 0, 64, 52
2,81466, Control_c, 0, 64, 74
2,81482, Control_c, 0, 64, 69
2,81497, Control_c, 0, 64, 63
2,81513, Control_c, 0, 64, 56
2,81528, Control_c, 0, 64, 53
2,81543, Control_c, 0, 64, 56
2,81559, Control_c, 0, 64, 61
2,81574, Control_c, 0, 64, 64
2,81588, Control_c, 0, 64, 67
2,81604, Control_c, 0, 64, 71
2,81619, Control_c, 0, 64, 75
2,81629, Note_on_c, 0, 81, 75
2,81634, Control_c, 0, 64, 77
2,81664, Control_c, 0, 64, 76
2,81680, Control_c, 0, 64, 76
2,81685, Note_on_c, 0, 82, 0
2,81695, Control_c, 0, 64, 75
2,81725, Control_c, 0, 64, 75
2,81742, Control_c, 0, 64, 74
2,81758, Control_c, 0, 64, 74
2,81772, Control_c, 0, 64, 73
2,81788, Control_c, 0, 64, 72
2,81803, Control_c, 0, 64, 71
2,81818, Control_c, 0, 64, 68
2,81829, Note_on_c, 0, 59, 43
2,81830, Note_on_c, 0, 62, 48
2,81830, Note_on_c, 0, 79, 73
2,81833, Control_c, 0, 64, 64
2,81848, Control_c, 0, 64, 56
2,81849, Note_on_c, 0, 64, 0
2,81864, Control_c, 0, 64, 51
2,81870, Note_on_c, 0, 81, 0
2,81894, Control_c, 0, 64, 55
2,81899, Note_on_c, 0, 61, 0
2,81911, Control_c, 0, 64, 60
2,81926, Control_c, 0, 64, 63
2,81940, Control_c, 0, 64, 67
2,81956, Control_c, 0, 64, 70
2,81971, Control_c, 0, 64, 72
2,81987, Control_c, 0, 64, 74
2,82010, Note_on_c, 0, 77, 76
2,82016, Control_c, 0, 64, 73
2,82016, Note_on_c, 0, 79, 0
2,82032, Control_c, 0, 64, 73
2,82047, Control_c, 0, 64, 72
2,82070, Control_c, 0, 64, 72
2,82100, Control_c, 0, 64, 71
2,82116, Control_c, 0, 64, 71
2,82131, Control_c, 0, 64, 70
2,82146, Control_c, 0, 64, 69
2,82161, Control_c, 0, 64, 68
2,82163, Note_on_c, 0, 62, 0
2,82171, Note_on_c, 0, 59, 0
2,82176, Control_c, 0, 64, 67
2,82192, Control_c, 0, 64, 65
2,82192, Note_on_c, 0, 61, 35
2,82202, Note_on_c, 0, 81, 67
2,82205, Note_on_c, 0, 77, 0
2,82207, Control_c, 0, 64, 61
2,82214, Note_on_c, 0, 57, 40
2,82222, Control_c, 0, 64, 55
2,82237, Control_c, 0, 64, 51
2,82253, Control_c, 0, 64, 51
2,82269, Control_c, 0, 64, 54
2,82283, Control_c, 0, 64, 59
2,82298, Control_c, 0, 64, 63
2,82314, Control_c, 0, 64, 66
2,82329, Control_c, 0, 64, 70
2,82345, Control_c, 0, 64, 73
2,82359, Control_c, 0, 64, 74
2,82387, Note_on_c, 0, 79, 70
2,82398, Note_on_c, 0, 61, 0
2,82404, Control_c, 0, 64, 74
2,82432, Note_on_c, 0, 81, 0
2,82450, Control_c, 0, 64, 73
2,82481, Control_c, 0, 64, 73
2,82496, Control_c, 0, 64, 72
2,82512, Control_c, 0, 64, 70
2,82527, Control_c, 0, 64, 68
2,82542, Control_c, 0, 64, 64
2,82545, Note_on_c, 0, 61, 35
2,82551, Note_on_c, 0, 57, 0
2,82552, Note_on_c, 0, 64, 42
2,82557, Control_c, 0, 64, 58
2,82557, Note_on_c, 0, 77, 65
2,82572, Control_c, 0, 64, 53
2,82588, Control_c, 0, 64, 52
2,82588, Note_on_c, 0, 79, 0
2,82603, Control_c, 0, 64, 54
2,82617, Control_c, 0, 64, 59
2,82633, Control_c, 0, 64, 63
2,82648, Control_c, 0, 64, 66
2,82664, Control_c, 0, 64, 69
2,82679, Control_c, 0, 64, 73
2,82691, Note_on_c, 0, 77, 0
2,82693, Control_c, 0, 64, 75
2,82721, Note_on_c, 0, 76, 58
2,82750, Note_on_c, 0, 61, 0
2,82771, Control_c, 0, 64, 75
2,82801, Control_c, 0, 64, 74
2,82816, Control_c, 0, 64, 73
2,82839, Control_c, 0, 64, 72
2,82854, Control_c, 0, 64, 70
2,82869, Control_c, 0, 64, 68
2,82884, Control_c, 0, 64, 65
2,82899, Control_c, 0, 64, 58
2,82906, Note_on_c, 0, 76, 0
2,82914, Note_on_c, 0, 64, 0
2,82915, Control_c, 0, 64, 52
2,82916, Note_on_c, 0, 62, 43
2,82917, Note_on_c, 0, 79, 57
2,82930, Control_c, 0, 64, 53
2,82946, Control_c, 0, 64, 57
2,82961, Control_c, 0, 64, 61
2,82976, Control_c, 0, 64, 65
2,82991, Control_c, 0, 64, 68
2,83006, Control_c, 0, 64, 73
2,83020, Control_c, 0, 64, 76
2,83029, Note_on_c, 0, 62, 0
2,83036, Control_c, 0, 64, 78
2,83092, Note_on_c, 0, 77, 54
2,83098, Note_on_c, 0, 79, 0
2,83157, Control_c, 0, 64, 78
2,83188, Control_c, 0, 64, 77
2,83202, Control_c, 0, 64, 76
2,83217, Control_c, 0, 64, 75
2,83227, Note_on_c, 0, 77, 0
2,83233, Control_c, 0, 64, 73
2,83248, Control_c, 0, 64, 72
2,83257, Note_on_c, 0, 50, 57
2,83264, Control_c, 0, 64, 71
2,83271, Note_on_c, 0, 76, 47
2,83279, Control_c, 0, 64, 69
2,83294, Control_c, 0, 64, 66
2,83310, Control_c, 0, 64, 62
2,83324, Control_c, 0, 64, 58
2,83339, Control_c, 0, 64, 54
2,83355, Control_c, 0, 64, 54
2,83370, Control_c, 0, 64, 56
2,83386, Control_c, 0, 64, 59
2,83400, Control_c, 0, 64, 63
2,83415, Control_c, 0, 64, 66
2,83431, Control_c, 0, 64, 70
2,83446, Control_c, 0, 64, 73
2,83447, Note_on_c, 0, 76, 0
2,83450, Note_on_c, 0, 77, 54
2,83460, Control_c, 0, 64, 76
2,83476, Control_c, 0, 64, 77
2,83507, Control_c, 0, 64, 76
2,83553, Control_c, 0, 64, 76
2,83554, Note_on_c, 0, 77, 0
2,83568, Control_c, 0, 64, 75
2,83584, Control_c, 0, 64, 74
2,83599, Control_c, 0, 64, 73
2,83621, Control_c, 0, 64, 72
2,83633, Note_on_c, 0, 52, 69
2,83637, Control_c, 0, 64, 70
2,83637, Note_on_c, 0, 77, 56
2,83652, Control_c, 0, 64, 68
2,83668, Control_c, 0, 64, 64
2,83682, Control_c, 0, 64, 59
2,83692, Note_on_c, 0, 50, 0
2,83697, Control_c, 0, 64, 55
2,83713, Control_c, 0, 64, 55
2,83728, Control_c, 0, 64, 56
2,83744, Control_c, 0, 64, 59
2,83758, Control_c, 0, 64, 63
2,83773, Control_c, 0, 64, 65
2,83789, Control_c, 0, 64, 67
2,83804, Control_c, 0, 64, 69
2,83809, Note_on_c, 0, 76, 48
2,83809, Note_on_c, 0, 77, 0
2,83819, Control_c, 0, 64, 71
2,83834, Control_c, 0, 64, 71
2,83849, Control_c, 0, 64, 71
2,83880, Control_c, 0, 64, 70
2,83925, Control_c, 0, 64, 70
2,83940, Control_c, 0, 64, 69
2,83955, Note_on_c, 0, 76, 0
2,83956, Control_c, 0, 64, 69
2,83970, Control_c, 0, 64, 68
2,83986, Control_c, 0, 64, 67
2,83990, Note_on_c, 0, 53, 71
2,83997, Note_on_c, 0, 74, 47
2,84001, Control_c, 0, 64, 66
2,84016, Control_c, 0, 64, 65
2,84061, Control_c, 0, 64, 66
2,84065, Note_on_c, 0, 52, 0
2,84123, Control_c, 0, 64, 66
2,84172, Note_on_c, 0, 76, 46
2,84181, Note_on_c, 0, 74, 0
2,84260, Note_on_c, 0, 76, 0
2,84275, Control_c, 0, 64, 66
2,84305, Control_c, 0, 64, 65
2,84320, Control_c, 0, 64, 64
2,84331, Note_on_c, 0, 55, 66
2,84335, Control_c, 0, 64, 60
2,84351, Control_c, 0, 64, 56
2,84366, Control_c, 0, 64, 53
2,84367, Note_on_c, 0, 76, 50
2,84388, Note_on_c, 0, 53, 0
2,84390, Control_c, 0, 64, 53
2,84404, Control_c, 0, 64, 56
2,84419, Control_c, 0, 64, 60
2,84435, Control_c, 0, 64, 64
2,84450, Control_c, 0, 64, 66
2,84466, Control_c, 0, 64, 68
2,84480, Control_c, 0, 64, 70
2,84524, Note_on_c, 0, 74, 58
2,84526, Control_c, 0, 64, 69
2,84551, Note_on_c, 0, 76, 0
2,84588, Control_c, 0, 64, 69
2,84617, Control_c, 0, 64, 68
2,84633, Control_c, 0, 64, 68
2,84648, Control_c, 0, 64, 67
2,84664, Control_c, 0, 64, 66
2,84678, Control_c, 0, 64, 64
2,84693, Control_c, 0, 64, 61
2,84704, Note_on_c, 0, 74, 0
2,84705, Note_on_c, 0, 52, 65
2,84709, Control_c, 0, 64, 55
2,84721, Note_on_c, 0, 73, 54
2,84724, Control_c, 0, 64, 49
2,84738, Control_c, 0, 64, 45
2,84754, Control_c, 0, 64, 44
2,84765, Note_on_c, 0, 55, 0
2,84769, Control_c, 0, 64, 47
2,84785, Control_c, 0, 64, 54
2,84800, Control_c, 0, 64, 61
2,84814, Control_c, 0, 64, 65
2,84830, Control_c, 0, 64, 68
2,84845, Control_c, 0, 64, 71
2,84860, Control_c, 0, 64, 73
2,84876, Control_c, 0, 64, 74
2,84878, Note_on_c, 0, 74, 58
2,84909, Note_on_c, 0, 73, 0
2,84934, Note_on_c, 0, 74, 0
2,84981, Control_c, 0, 64, 74
2,84997, Control_c, 0, 64, 73
2,85012, Control_c, 0, 64, 73
2,85028, Control_c, 0, 64, 72
2,85043, Control_c, 0, 64, 71
2,85058, Control_c, 0, 64, 69
2,85061, Note_on_c, 0, 52, 0
2,85062, Note_on_c, 0, 72, 68
2,85069, Note_on_c, 0, 54, 55
2,85073, Control_c, 0, 64, 67
2,85088, Control_c, 0, 64, 66
2,85104, Control_c, 0, 64, 65
2,85119, Control_c, 0, 64, 64
2,85134, Control_c, 0, 64, 61
2,85156, Control_c, 0, 64, 59
2,85171, Control_c, 0, 64, 56
2,85187, Control_c, 0, 64, 55
2,85203, Control_c, 0, 64, 55
2,85218, Control_c, 0, 64, 53
2,85227, Note_on_c, 0, 50, 50
2,85234, Control_c, 0, 64, 51
2,85248, Control_c, 0, 64, 49
2,85249, Note_on_c, 0, 54, 0
2,85264, Control_c, 0, 64, 48
2,85294, Control_c, 0, 64, 48
2,85310, Control_c, 0, 64, 47
2,85324, Control_c, 0, 64, 46
2,85339, Control_c, 0, 64, 45
2,85401, Control_c, 0, 64, 45
2,85419, Note_on_c, 0, 49, 44
2,85425, Note_on_c, 0, 62, 73
2,85431, Control_c, 0, 64, 45
2,85437, Note_on_c, 0, 50, 0
2,85446, Control_c, 0, 64, 46
2,85461, Control_c, 0, 64, 49
2,85477, Control_c, 0, 64, 52
2,85492, Control_c, 0, 64, 55
2,85508, Control_c, 0, 64, 58
2,85523, Control_c, 0, 64, 60
2,85540, Control_c, 0, 64, 62
2,85555, Control_c, 0, 64, 63
2,85570, Control_c, 0, 64, 65
2,85585, Control_c, 0, 64, 67
2,85592, Note_on_c, 0, 50, 54
2,85600, Control_c, 0, 64, 69
2,85605, Note_on_c, 0, 49, 0
2,85615, Control_c, 0, 64, 71
2,85631, Control_c, 0, 64, 71
2,85646, Control_c, 0, 64, 72
2,85661, Control_c, 0, 64, 71
2,85666, Note_on_c, 0, 50, 0
2,85721, Control_c, 0, 64, 71
2,85752, Control_c, 0, 64, 70
2,85767, Control_c, 0, 64, 70
2,85782, Control_c, 0, 64, 69
2,85787, Note_on_c, 0, 64, 77
2,85797, Control_c, 0, 64, 67
2,85808, Note_on_c, 0, 58, 54
2,85812, Control_c, 0, 64, 64
2,85814, Note_on_c, 0, 62, 0
2,85828, Control_c, 0, 64, 59
2,85843, Control_c, 0, 64, 52
2,85859, Control_c, 0, 64, 49
2,85874, Control_c, 0, 64, 50
2,85889, Control_c, 0, 64, 55
2,85905, Control_c, 0, 64, 61
2,85926, Control_c, 0, 64, 64
2,85942, Control_c, 0, 64, 67
2,85957, Control_c, 0, 64, 69
2,85959, Note_on_c, 0, 70, 64
2,85972, Control_c, 0, 64, 70
2,86073, Note_on_c, 0, 58, 0
2,86080, Note_on_c, 0, 72, 0
2,86095, Control_c, 0, 64, 70
2,86111, Control_c, 0, 64, 69
2,86126, Control_c, 0, 64, 67
2,86130, Note_on_c, 0, 70, 0
2,86131, Note_on_c, 0, 66, 73
2,86142, Control_c, 0, 64, 63
2,86144, Note_on_c, 0, 69, 58
2,86157, Control_c, 0, 64, 59
2,86171, Control_c, 0, 64, 58
2,86187, Control_c, 0, 64, 60
2,86202, Control_c, 0, 64, 63
2,86218, Control_c, 0, 64, 66
2,86232, Control_c, 0, 64, 70
2,86247, Control_c, 0, 64, 75
2,86263, Control_c, 0, 64, 77
2,86278, Control_c, 0, 64, 78
2,86295, Note_on_c, 0, 70, 67
2,86311, Note_on_c, 0, 69, 0
2,86323, Control_c, 0, 64, 78
2,86369, Control_c, 0, 64, 77
2,86385, Control_c, 0, 64, 76
2,86386, Note_on_c, 0, 70, 0
2,86393, Note_on_c, 0, 66, 0
2,86399, Control_c, 0, 64, 76
2,86414, Control_c, 0, 64, 75
2,86430, Control_c, 0, 64, 73
2,86445, Control_c, 0, 64, 70
2,86461, Control_c, 0, 64, 65
2,86464, Note_on_c, 0, 57, 46
2,86470, Note_on_c, 0, 70, 68
2,86472, Note_on_c, 0, 67, 68
2,86476, Control_c, 0, 64, 58
2,86491, Control_c, 0, 64, 51
2,86510, Note_on_c, 0, 57, 0
2,86521, Control_c, 0, 64, 54
2,86537, Control_c, 0, 64, 60
2,86541, Note_on_c, 0, 55, 52
2,86551, Control_c, 0, 64, 64
2,86566, Control_c, 0, 64, 67
2,86582, Control_c, 0, 64, 70
2,86597, Control_c, 0, 64, 72
2,86600, Note_on_c, 0, 55, 0
2,86612, Control_c, 0, 64, 72
2,86622, Note_on_c, 0, 57, 53
2,86624, Note_on_c, 0, 67, 0
2,86625, Note_on_c, 0, 69, 64
2,86693, Note_on_c, 0, 64, 0
2,86697, Note_on_c, 0, 57, 0
2,86711, Control_c, 0, 64, 72
2,86735, Note_on_c, 0, 55, 38
2,86763, Note_on_c, 0, 55, 0
2,86798, Note_on_c, 0, 64, 73
2,86805, Note_on_c, 0, 67, 62
2,86808, Note_on_c, 0, 57, 45
2,86818, Control_c, 0, 64, 72
2,86831, Note_on_c, 0, 70, 0
2,86849, Control_c, 0, 64, 73
2,86849, Note_on_c, 0, 55, 51
2,86849, Note_on_c, 0, 57, 0
2,86864, Control_c, 0, 64, 74
2,86876, Note_on_c, 0, 69, 0
2,86879, Control_c, 0, 64, 76
2,86894, Control_c, 0, 64, 77
2,86910, Control_c, 0, 64, 78
2,86925, Control_c, 0, 64, 79
2,86931, Note_on_c, 0, 55, 0
2,86940, Control_c, 0, 64, 80
2,86944, Note_on_c, 0, 53, 37
2,86955, Control_c, 0, 64, 82
2,86963, Note_on_c, 0, 74, 71
2,86970, Control_c, 0, 64, 84
2,86984, Note_on_c, 0, 53, 0
2,87000, Control_c, 0, 64, 83
2,87010, Note_on_c, 0, 67, 0
2,87015, Control_c, 0, 64, 82
2,87026, Note_on_c, 0, 55, 47
2,87031, Control_c, 0, 64, 82
2,87046, Control_c, 0, 64, 81
2,87062, Control_c, 0, 64, 80
2,87076, Control_c, 0, 64, 79
2,87091, Control_c, 0, 64, 77
2,87093, Note_on_c, 0, 74, 0
2,87107, Control_c, 0, 64, 74
2,87120, Note_on_c, 0, 55, 0
2,87122, Control_c, 0, 64, 71
2,87125, Note_on_c, 0, 57, 49
2,87138, Control_c, 0, 64, 67
2,87152, Control_c, 0, 64, 63
2,87158, Note_on_c, 0, 74, 54
2,87162, Note_on_c, 0, 65, 65
2,87167, Control_c, 0, 64, 54
2,87167, Note_on_c, 0, 64, 0
2,87183, Control_c, 0, 64, 42
2,87197, Control_c, 0, 64, 19
2,87212, Control_c, 0, 64, 0
2,87243, Control_c, 0, 64, 32
2,87259, Control_c, 0, 64, 50
2,87274, Control_c, 0, 64, 59
2,87289, Control_c, 0, 64, 63
2,87305, Control_c, 0, 64, 64
2,87320, Control_c, 0, 64, 66
2,87335, Control_c, 0, 64, 69
2,87348, Note_on_c, 0, 62, 65
2,87350, Control_c, 0, 64, 72
2,87365, Control_c, 0, 64, 76
2,87381, Control_c, 0, 64, 78
2,87410, Control_c, 0, 64, 78
2,87424, Note_on_c, 0, 65, 0
2,87464, Control_c, 0, 64, 77
2,87479, Control_c, 0, 64, 76
2,87494, Control_c, 0, 64, 74
2,87497, Note_on_c, 0, 57, 0
2,87510, Control_c, 0, 64, 70
2,87522, Note_on_c, 0, 61, 56
2,87524, Control_c, 0, 64, 66
2,87527, Note_on_c, 0, 58, 51
2,87530, Note_on_c, 0, 62, 0
2,87540, Control_c, 0, 64, 60
2,87555, Control_c, 0, 64, 51
2,87570, Control_c, 0, 64, 42
2,87586, Control_c, 0, 64, 38
2,87601, Control_c, 0, 64, 38
2,87615, Control_c, 0, 64, 46
2,87630, Control_c, 0, 64, 57
2,87645, Control_c, 0, 64, 63
2,87662, Control_c, 0, 64, 66
2,87677, Control_c, 0, 64, 70
2,87692, Control_c, 0, 64, 72
2,87705, Note_on_c, 0, 62, 68
2,87707, Control_c, 0, 64, 74
2,87719, Note_on_c, 0, 61, 0
2,87722, Control_c, 0, 64, 76
2,87738, Control_c, 0, 64, 78
2,87742, Note_on_c, 0, 58, 0
2,87753, Control_c, 0, 64, 78
2,87768, Control_c, 0, 64, 78
2,87791, Note_on_c, 0, 62, 0
2,87828, Control_c, 0, 64, 77
2,87843, Control_c, 0, 64, 76
2,87859, Control_c, 0, 64, 74
2,87874, Control_c, 0, 64, 73
2,87889, Control_c, 0, 64, 71
2,87905, Control_c, 0, 64, 69
2,87919, Control_c, 0, 64, 66
2,87930, Note_on_c, 0, 70, 60
2,87934, Control_c, 0, 64, 63
2,87942, Note_on_c, 0, 57, 34
2,87950, Control_c, 0, 64, 59
2,87965, Control_c, 0, 64, 53
2,87981, Control_c, 0, 64, 45
2,87995, Control_c, 0, 64, 27
2,88010, Control_c, 0, 64, 0
2,88102, Note_on_c, 0, 55, 48
2,88133, Note_on_c, 0, 57, 0
2,88148, Control_c, 0, 64, 35
2,88163, Control_c, 0, 64, 51
2,88179, Control_c, 0, 64, 55
2,88193, Control_c, 0, 64, 56
2,88208, Control_c, 0, 64, 57
2,88231, Control_c, 0, 64, 59
2,88246, Control_c, 0, 64, 60
2,88262, Control_c, 0, 64, 62
2,88275, Note_on_c, 0, 55, 0
2,88277, Control_c, 0, 64, 63
2,88292, Control_c, 0, 64, 64
2,88292, Note_on_c, 0, 53, 40
2,88300, Note_on_c, 0, 70, 0
2,88308, Control_c, 0, 64, 65
2,88322, Control_c, 0, 64, 67
2,88338, Control_c, 0, 64, 69
2,88353, Control_c, 0, 64, 71
2,88368, Control_c, 0, 64, 73
2,88383, Control_c, 0, 64, 73
2,88459, Note_on_c, 0, 53, 0
2,88479, Note_on_c, 0, 55, 40
2,88490, Control_c, 0, 64, 73
2,88506, Control_c, 0, 64, 72
2,88520, Note_on_c, 0, 55, 0
2,88537, Control_c, 0, 64, 72
2,88551, Control_c, 0, 64, 71
2,88566, Control_c, 0, 64, 70
2,88582, Control_c, 0, 64, 69
2,88627, Control_c, 0, 64, 69
2,88642, Control_c, 0, 64, 68
2,88658, Control_c, 0, 64, 66
2,88660, Note_on_c, 0, 69, 53
2,88673, Control_c, 0, 64, 64
2,88684, Note_on_c, 0, 55, 28
2,88687, Control_c, 0, 64, 63
2,88703, Control_c, 0, 64, 61
2,88718, Control_c, 0, 64, 59
2,88732, Note_on_c, 0, 69, 0
2,88733, Control_c, 0, 64, 55
2,88749, Control_c, 0, 64, 52
2,88752, Note_on_c, 0, 67, 57
2,88763, Control_c, 0, 64, 47
2,88779, Control_c, 0, 64, 43
2,88794, Control_c, 0, 64, 38
2,88809, Control_c, 0, 64, 34
2,88825, Control_c, 0, 64, 31
2,88826, Note_on_c, 0, 53, 45
2,88830, Note_on_c, 0, 55, 0
2,88830, Note_on_c, 0, 67, 0
2,88839, Control_c, 0, 64, 29
2,88853, Note_on_c, 0, 69, 55
2,88854, Control_c, 0, 64, 25
2,88870, Control_c, 0, 64, 19
2,88885, Control_c, 0, 64, 12
2,88900, Note_on_c, 0, 69, 0
2,88901, Control_c, 0, 64, 0
2,88935, Note_on_c, 0, 67, 51
2,88964, Note_on_c, 0, 53, 0
2,88998, Note_on_c, 0, 52, 40
2,89001, Note_on_c, 0, 67, 0
2,89035, Note_on_c, 0, 69, 52
2,89075, Control_c, 0, 64, 23
2,89085, Note_on_c, 0, 69, 0
2,89090, Control_c, 0, 64, 36
2,89106, Control_c, 0, 64, 47
2,89119, Note_on_c, 0, 67, 57
2,89120, Control_c, 0, 64, 53
2,89135, Control_c, 0, 64, 57
2,89151, Control_c, 0, 64, 60
2,89151, Note_on_c, 0, 52, 0
2,89166, Control_c, 0, 64, 62
2,89169, Note_on_c, 0, 67, 0
2,89181, Control_c, 0, 64, 63
2,89196, Control_c, 0, 64, 64
2,89202, Note_on_c, 0, 65, 54
2,89206, Note_on_c, 0, 53, 40
2,89211, Control_c, 0, 64, 65
2,89226, Control_c, 0, 64, 67
2,89241, Control_c, 0, 64, 68
2,89247, Note_on_c, 0, 65, 0
2,89255, Note_on_c, 0, 53, 0
2,89257, Control_c, 0, 64, 70
2,89272, Control_c, 0, 64, 70
2,89294, Note_on_c, 0, 67, 52
2,89349, Control_c, 0, 64, 70
2,89380, Control_c, 0, 64, 69
2,89394, Control_c, 0, 64, 68
2,89409, Control_c, 0, 64, 66
2,89413, Note_on_c, 0, 67, 0
2,89425, Control_c, 0, 64, 64
2,89431, Note_on_c, 0, 53, 39
2,89435, Note_on_c, 0, 69, 47
2,89440, Control_c, 0, 64, 61
2,89455, Control_c, 0, 64, 57
2,89470, Control_c, 0, 64, 52
2,89485, Control_c, 0, 64, 46
2,89501, Control_c, 0, 64, 40
2,89515, Control_c, 0, 64, 32
2,89530, Control_c, 0, 64, 21
2,89546, Control_c, 0, 64, 0
2,89892, Note_on_c, 0, 70, 50
2,89904, Note_on_c, 0, 55, 39
2,89907, Note_on_c, 0, 53, 0
2,89910, Note_on_c, 0, 69, 0
2,89964, Control_c, 0, 64, 22
2,89980, Control_c, 0, 64, 48
2,89995, Control_c, 0, 64, 57
2,90009, Control_c, 0, 64, 62
2,90025, Control_c, 0, 64, 64
2,90040, Control_c, 0, 64, 66
2,90055, Control_c, 0, 64, 69
2,90070, Control_c, 0, 64, 74
2,90085, Control_c, 0, 64, 79
2,90089, Note_on_c, 0, 55, 0
2,90101, Control_c, 0, 64, 86
2,90117, Control_c, 0, 64, 96
2,90132, Control_c, 0, 64, 111
2,90148, Control_c, 0, 64, 127
2,90284, Control_c, 0, 64, 116
2,90299, Control_c, 0, 64, 107
2,90314, Control_c, 0, 64, 100
2,90322, Note_on_c, 0, 70, 0
2,90329, Control_c, 0, 64, 94
2,90337, Note_on_c, 0, 74, 0
2,90345, Control_c, 0, 64, 85
2,90360, Control_c, 0, 64, 75
2,90372, Note_on_c, 0, 57, 40
2,90374, Control_c, 0, 64, 66
2,90389, Note_on_c, 0, 65, 29
2,90390, Control_c, 0, 64, 59
2,90403, Control_c, 0, 64, 57
2,90418, Control_c, 0, 64, 59
2,90433, Control_c, 0, 64, 62
2,90448, Control_c, 0, 64, 66
2,90464, Control_c, 0, 64, 70
2,90479, Control_c, 0, 64, 75
2,90485, Note_on_c, 0, 65, 0
2,90494, Control_c, 0, 64, 81
2,90499, Note_on_c, 0, 64, 49
2,90517, Control_c, 0, 64, 85
2,90532, Control_c, 0, 64, 88
2,90548, Control_c, 0, 64, 90
2,90563, Control_c, 0, 64, 93
2,90564, Note_on_c, 0, 64, 0
2,90577, Control_c, 0, 64, 97
2,90593, Control_c, 0, 64, 99
2,90601, Note_on_c, 0, 80, 59
2,90611, Note_on_c, 0, 57, 0
2,90622, Note_on_c, 0, 65, 41
2,90653, Control_c, 0, 64, 99
2,90667, Note_on_c, 0, 65, 0
2,90669, Control_c, 0, 64, 98
2,90684, Control_c, 0, 64, 97
2,90695, Note_on_c, 0, 64, 45
2,90699, Control_c, 0, 64, 95
2,90714, Control_c, 0, 64, 94
2,90729, Control_c, 0, 64, 91
2,90735, Note_on_c, 0, 64, 0
2,90745, Control_c, 0, 64, 88
2,90760, Control_c, 0, 64, 83
2,90775, Control_c, 0, 64, 74
2,90781, Note_on_c, 0, 65, 48
2,90789, Note_on_c, 0, 81, 58
2,90791, Control_c, 0, 64, 65
2,90806, Control_c, 0, 64, 58
2,90809, Note_on_c, 0, 55, 31
2,90821, Control_c, 0, 64, 55
2,90837, Control_c, 0, 64, 57
2,90851, Control_c, 0, 64, 61
2,90862, Note_on_c, 0, 65, 0
2,90867, Control_c, 0, 64, 65
2,90872, Note_on_c, 0, 80, 0
2,90882, Control_c, 0, 64, 68
2,90893, Note_on_c, 0, 64, 42
2,90897, Control_c, 0, 64, 73
2,90912, Control_c, 0, 64, 79
2,90928, Control_c, 0, 64, 83
2,90944, Control_c, 0, 64, 85
2,90945, Note_on_c, 0, 81, 0
2,90947, Note_on_c, 0, 64, 0
2,90959, Control_c, 0, 64, 86
2,90974, Control_c, 0, 64, 88
2,90977, Note_on_c, 0, 74, 56
2,90990, Control_c, 0, 64, 89
2,90991, Note_on_c, 0, 55, 0
2,90996, Note_on_c, 0, 65, 47
2,91004, Control_c, 0, 64, 89
2,91046, Note_on_c, 0, 65, 0
2,91053, Note_on_c, 0, 64, 53
2,91080, Control_c, 0, 64, 89
2,91095, Control_c, 0, 64, 88
2,91111, Control_c, 0, 64, 87
2,91126, Control_c, 0, 64, 85
2,91135, Note_on_c, 0, 64, 0
2,91140, Control_c, 0, 64, 84
2,91156, Control_c, 0, 64, 82
2,91161, Note_on_c, 0, 65, 53
2,91171, Control_c, 0, 64, 80
2,91177, Note_on_c, 0, 77, 68
2,91181, Note_on_c, 0, 74, 0
2,91187, Control_c, 0, 64, 76
2,91193, Note_on_c, 0, 57, 47
2,91202, Control_c, 0, 64, 69
2,91216, Control_c, 0, 64, 64
2,91232, Control_c, 0, 64, 61
2,91247, Control_c, 0, 64, 60
2,91262, Control_c, 0, 64, 58
2,91267, Note_on_c, 0, 65, 0
2,91284, Note_on_c, 0, 64, 49
2,91285, Control_c, 0, 64, 56
2,91300, Control_c, 0, 64, 54
2,91316, Control_c, 0, 64, 51
2,91331, Control_c, 0, 64, 50
2,91368, Note_on_c, 0, 64, 0
2,91380, Note_on_c, 0, 76, 65
2,91392, Control_c, 0, 64, 49
2,91401, Note_on_c, 0, 65, 53
2,91407, Control_c, 0, 64, 49
2,91430, Note_on_c, 0, 77, 0
2,91474, Note_on_c, 0, 65, 0
2,91498, Note_on_c, 0, 64, 56
2,91528, Control_c, 0, 64, 48
2,91542, Control_c, 0, 64, 47
2,91556, Note_on_c, 0, 64, 0
2,91558, Control_c, 0, 64, 47
2,91573, Control_c, 0, 64, 45
2,91589, Control_c, 0, 64, 40
2,91592, Note_on_c, 0, 74, 52
2,91600, Note_on_c, 0, 65, 48
2,91600, Note_on_c, 0, 76, 0
2,91604, Control_c, 0, 64, 34
2,91619, Control_c, 0, 64, 29
2,91635, Control_c, 0, 64, 23
2,91650, Control_c, 0, 64, 16
2,91666, Control_c, 0, 64, 0
2,91666, Note_on_c, 0, 65, 0
2,91683, Note_on_c, 0, 64, 54
2,91797, Note_on_c, 0, 64, 0
2,91820, Note_on_c, 0, 73, 54
2,91821, Note_on_c, 0, 62, 42
2,91836, Note_on_c, 0, 74, 0
2,91848, Control_c, 0, 64, 22
2,91864, Control_c, 0, 64, 47
2,91879, Control_c, 0, 64, 57
2,91894, Control_c, 0, 64, 61
2,91910, Control_c, 0, 64, 63
2,91924, Control_c, 0, 64, 66
2,91939, Control_c, 0, 64, 69
2,91941, Note_on_c, 0, 62, 0
2,91955, Control_c, 0, 64, 74
2,91968, Note_on_c, 0, 64, 49
2,91970, Control_c, 0, 64, 83
2,91985, Control_c, 0, 64, 95
2,91985, Note_on_c, 0, 57, 0
2,92000, Control_c, 0, 64, 113
2,92002, Note_on_c, 0, 64, 0
2,92015, Control_c, 0, 64, 127
2,92130, Control_c, 0, 64, 109
2,92145, Control_c, 0, 64, 99
2,92160, Control_c, 0, 64, 90
2,92175, Control_c, 0, 64, 83
2,92190, Control_c, 0, 64, 77
2,92196, Note_on_c, 0, 74, 56
2,92205, Control_c, 0, 64, 71
2,92215, Note_on_c, 0, 50, 45
2,92220, Control_c, 0, 64, 67
2,92236, Control_c, 0, 64, 63
2,92251, Control_c, 0, 64, 59
2,92266, Control_c, 0, 64, 49
2,92267, Note_on_c, 0, 73, 0
2,92281, Control_c, 0, 64, 20
2,92296, Control_c, 0, 64, 0
2,92357, Control_c, 0, 64, 26
2,92372, Control_c, 0, 64, 49
2,92387, Control_c, 0, 64, 59
2,92402, Control_c, 0, 64, 63
2,92417, Control_c, 0, 64, 65
2,92433, Control_c, 0, 64, 68
2,92448, Control_c, 0, 64, 74
2,92464, Control_c, 0, 64, 82
2,92478, Control_c, 0, 64, 93
2,92484, Note_on_c, 0, 50, 0
2,92493, Control_c, 0, 64, 106
2,92509, Control_c, 0, 64, 127
2,92768, Control_c, 0, 64, 118
2,92784, Control_c, 0, 64, 110
2,92799, Control_c, 0, 64, 105
2,92806, Note_on_c, 0, 72, 57
2,92808, Note_on_c, 0, 50, 40
2,92814, Control_c, 0, 64, 98
2,92815, Note_on_c, 0, 69, 47
2,92830, Note_on_c, 0, 54, 45
2,92836, Control_c, 0, 64, 88
2,92851, Control_c, 0, 64, 79
2,92867, Control_c, 0, 64, 73
2,92882, Control_c, 0, 64, 70
2,92897, Control_c, 0, 64, 67
2,92913, Control_c, 0, 64, 63
2,92928, Control_c, 0, 64, 53
2,92944, Control_c, 0, 64, 37
2,92958, Control_c, 0, 64, 27
2,92973, Control_c, 0, 64, 32
2,92989, Control_c, 0, 64, 46
2,93004, Control_c, 0, 64, 57
2,93019, Control_c, 0, 64, 63
2,93034, Control_c, 0, 64, 65
2,93049, Control_c, 0, 64, 68
2,93065, Control_c, 0, 64, 71
2,93080, Control_c, 0, 64, 75
2,93095, Control_c, 0, 64, 78
2,93110, Control_c, 0, 64, 82
2,93125, Control_c, 0, 64, 87
2,93140, Control_c, 0, 64, 90
2,93155, Control_c, 0, 64, 91
2,93216, Control_c, 0, 64, 90
2,93231, Control_c, 0, 64, 89
2,93246, Control_c, 0, 64, 87
2,93258, Note_on_c, 0, 70, 71
2,93261, Control_c, 0, 64, 85
2,93274, Note_on_c, 0, 55, 45
2,93276, Note_on_c, 0, 67, 46
2,93277, Control_c, 0, 64, 83
2,93278, Note_on_c, 0, 52, 49
2,93292, Control_c, 0, 64, 79
2,93307, Control_c, 0, 64, 73
2,93322, Control_c, 0, 64, 66
2,93322, Note_on_c, 0, 69, 0
2,93337, Control_c, 0, 64, 58
2,93353, Control_c, 0, 64, 48
2,93360, Note_on_c, 0, 54, 0
2,93368, Control_c, 0, 64, 40
2,93384, Control_c, 0, 64, 39
2,93399, Control_c, 0, 64, 46
2,93414, Control_c, 0, 64, 56
2,93430, Control_c, 0, 64, 63
2,93445, Control_c, 0, 64, 68
2,93459, Control_c, 0, 64, 73
2,93466, Note_on_c, 0, 72, 0
2,93475, Control_c, 0, 64, 81
2,93490, Control_c, 0, 64, 94
2,93506, Control_c, 0, 64, 112
2,93521, Control_c, 0, 64, 127
2,93542, Note_on_c, 0, 67, 0
2,93649, Note_on_c, 0, 70, 0
2,93700, Note_on_c, 0, 52, 0
2,93738, Note_on_c, 0, 70, 26
2,93756, Control_c, 0, 64, 105
2,93771, Control_c, 0, 64, 92
2,93772, Note_on_c, 0, 69, 64
2,93774, Note_on_c, 0, 54, 47
2,93785, Note_on_c, 0, 66, 45
2,93787, Control_c, 0, 64, 81
2,93787, Note_on_c, 0, 57, 39
2,93788, Note_on_c, 0, 55, 0
2,93802, Control_c, 0, 64, 75
2,93817, Control_c, 0, 64, 71
2,93833, Control_c, 0, 64, 68
2,93848, Control_c, 0, 64, 64
2,93864, Control_c, 0, 64, 58
2,93878, Control_c, 0, 64, 37
2,93893, Control_c, 0, 64, 0
2,93985, Control_c, 0, 64, 44
2,93999, Control_c, 0, 64, 58
2,94014, Control_c, 0, 64, 63
2,94030, Control_c, 0, 64, 65
2,94045, Control_c, 0, 64, 68
2,94055, Note_on_c, 0, 57, 0
2,94060, Control_c, 0, 64, 72
2,94069, Note_on_c, 0, 66, 0
2,94075, Control_c, 0, 64, 79
2,94090, Control_c, 0, 64, 86
2,94106, Control_c, 0, 64, 92
2,94121, Control_c, 0, 64, 93
2,94166, Control_c, 0, 64, 92
2,94181, Control_c, 0, 64, 92
2,94198, Control_c, 0, 64, 90
2,94213, Control_c, 0, 64, 88
2,94228, Control_c, 0, 64, 87
2,94243, Control_c, 0, 64, 86
2,94258, Control_c, 0, 64, 85
2,94267, Note_on_c, 0, 54, 0
2,94274, Control_c, 0, 64, 82
2,94277, Note_on_c, 0, 67, 49
2,94282, Note_on_c, 0, 64, 39
2,94285, Note_on_c, 0, 55, 32
2,94288, Note_on_c, 0, 58, 38
2,94289, Control_c, 0, 64, 79
2,94304, Control_c, 0, 64, 75
2,94319, Control_c, 0, 64, 68
2,94328, Note_on_c, 0, 70, 0
2,94331, Note_on_c, 0, 69, 0
2,94334, Control_c, 0, 64, 59
2,94358, Control_c, 0, 64, 27
2,94373, Control_c, 0, 64, 0
2,94479, Control_c, 0, 64, 32
2,94494, Control_c, 0, 64, 52
2,94510, Control_c, 0, 64, 60
2,94524, Control_c, 0, 64, 64
2,94539, Control_c, 0, 64, 67
2,94555, Control_c, 0, 64, 71
2,94570, Control_c, 0, 64, 77
2,94586, Control_c, 0, 64, 82
2,94600, Control_c, 0, 64, 87
2,94615, Control_c, 0, 64, 90
2,94618, Note_on_c, 0, 55, 0
2,94624, Note_on_c, 0, 67, 0
2,94631, Control_c, 0, 64, 92
2,94646, Control_c, 0, 64, 94
2,94649, Note_on_c, 0, 58, 0
2,94661, Control_c, 0, 64, 96
2,94677, Control_c, 0, 64, 97
2,94692, Control_c, 0, 64, 99
2,94708, Control_c, 0, 64, 103
2,94722, Control_c, 0, 64, 107
2,94737, Control_c, 0, 64, 111
2,94753, Control_c, 0, 64, 113
2,94874, Control_c, 0, 64, 111
2,94889, Control_c, 0, 64, 110
2,94905, Control_c, 0, 64, 108
2,94919, Control_c, 0, 64, 107
2,94934, Control_c, 0, 64, 103
2,94939, Note_on_c, 0, 70, 49
2,94946, Note_on_c, 0, 67, 41
2,94948, Note_on_c, 0, 55, 33
2,94950, Control_c, 0, 64, 98
2,94955, Note_on_c, 0, 52, 35
2,94965, Control_c, 0, 64, 94
2,94980, Control_c, 0, 64, 90
2,94993, Control_c, 0, 64, 85
2,95008, Control_c, 0, 64, 77
2,95024, Control_c, 0, 64, 69
2,95040, Control_c, 0, 64, 63
2,95055, Control_c, 0, 64, 56
2,95069, Control_c, 0, 64, 43
2,95085, Control_c, 0, 64, 0
2,95087, Note_on_c, 0, 64, 0
2,95215, Control_c, 0, 64, 23
2,95229, Control_c, 0, 64, 49
2,95245, Control_c, 0, 64, 58
2,95260, Control_c, 0, 64, 61
2,95275, Control_c, 0, 64, 62
2,95290, Control_c, 0, 64, 64
2,95305, Control_c, 0, 64, 65
2,95321, Control_c, 0, 64, 67
2,95336, Control_c, 0, 64, 69
2,95339, Note_on_c, 0, 67, 0
2,95343, Note_on_c, 0, 55, 0
2,95351, Control_c, 0, 64, 71
2,95366, Control_c, 0, 64, 74
2,95381, Control_c, 0, 64, 77
2,95397, Control_c, 0, 64, 81
2,95412, Control_c, 0, 64, 86
2,95427, Control_c, 0, 64, 93
2,95442, Control_c, 0, 64, 100
2,95442, Note_on_c, 0, 52, 0
2,95457, Control_c, 0, 64, 107
2,95473, Control_c, 0, 64, 109
2,95482, Note_on_c, 0, 70, 0
2,95488, Control_c, 0, 64, 110
2,95503, Control_c, 0, 64, 112
2,95518, Control_c, 0, 64, 118
2,95521, Note_on_c, 0, 50, 0
2,95533, Control_c, 0, 64, 127
2,95543, Note_on_c, 0, 74, 0
2,96418, Note_on_c, 0, 74, 59
2,96423, Control_c, 0, 64, 121
2,96432, Note_on_c, 0, 66, 37
2,96439, Control_c, 0, 64, 111
2,96439, Note_on_c, 0, 50, 33
2,96441, Note_on_c, 0, 69, 48
2,96445, Note_on_c, 0, 54, 37
2,96445, Note_on_c, 0, 57, 33
2,96453, Control_c, 0, 64, 103
2,96468, Control_c, 0, 64, 96
2,96484, Control_c, 0, 64, 87
2,96499, Control_c, 0, 64, 80
2,96515, Control_c, 0, 64, 75
2,96529, Control_c, 0, 64, 71
2,96544, Control_c, 0, 64, 68
2,96560, Control_c, 0, 64, 65
2,96575, Control_c, 0, 64, 64
2,96591, Control_c, 0, 64, 63
2,96605, Control_c, 0, 64, 62
2,96620, Control_c, 0, 64, 62
2,96636, Control_c, 0, 64, 61
2,96651, Control_c, 0, 64, 60
2,96705, Control_c, 0, 64, 60
2,96735, Control_c, 0, 64, 59
2,96751, Control_c, 0, 64, 59
2,96883, Control_c, 0, 64, 58
2,96898, Control_c, 0, 64, 58
2,96959, Control_c, 0, 64, 57
2,96989, Control_c, 0, 64, 56
2,97050, Control_c, 0, 64, 56
2,97090, Control_c, 0, 64, 56
2,97175, Control_c, 0, 64, 57
2,97206, Control_c, 0, 64, 57
2,97221, Control_c, 0, 64, 58
2,97236, Control_c, 0, 64, 59
2,97252, Control_c, 0, 64, 60
2,97297, Control_c, 0, 64, 60
2,97328, Control_c, 0, 64, 61
2,97404, Control_c, 0, 64, 61
2,97548, Control_c, 0, 64, 62
2,97564, Control_c, 0, 64, 62
2,97592, Control_c, 0, 64, 63
2,97623, Control_c, 0, 64, 63
2,97654, Control_c, 0, 64, 64
2,97668, Control_c, 0, 64, 64
2,97683, Control_c, 0, 64, 65
2,97714, Control_c, 0, 64, 65
2,97759, Control_c, 0, 64, 66
2,97790, Control_c, 0, 64, 66
2,97805, Control_c, 0, 64, 67
2,97836, Control_c, 0, 64, 67
2,97852, Control_c, 0, 64, 68
2,97867, Control_c, 0, 64, 68
2,97881, Control_c, 0, 64, 69
2,97897, Control_c, 0, 64, 70
2,97912, Control_c, 0, 64, 72
2,97927, Control_c, 0, 64, 73
2,97942, Control_c, 0, 64, 74
2,97957, Control_c, 0, 64, 75
2,97973, Control_c, 0, 64, 76
2,97988, Control_c, 0, 64, 78
2,98002, Control_c, 0, 64, 79
2,98018, Control_c, 0, 64, 80
2,98033, Control_c, 0, 64, 82
2,98046, Control_c, 0, 64, 84
2,98062, Control_c, 0, 64, 86
2,98076, Control_c, 0, 64, 89
2,98091, Control_c, 0, 64, 92
2,98107, Control_c, 0, 64, 97
2,98121, Control_c, 0, 64, 102
2,98137, Control_c, 0, 64, 110
2,98152, Control_c, 0, 64, 127
2,98808, Note_on_c, 0, 74, 0
2,98920, Note_on_c, 0, 69, 0
2,99247, Note_on_c, 0, 66, 0
2,99293, Note_on_c, 0, 50, 0
2,99334, Note_on_c, 0, 54, 0
2,99464, Note_on_c, 0, 57, 0
2,99669, Control_c, 0, 64, 113
2,99683, Control_c, 0, 64, 107
2,99698, Control_c, 0, 64, 105
2,99722, Control_c, 0, 64, 105
2,99752, Control_c, 0, 64, 104
2,99767, Control_c, 0, 64, 102
2,99782, Control_c, 0, 64, 98
2,99798, Control_c, 0, 64, 98
2,99799, End_track
0, 0, End_of_file
