0, 0, Header, 1, 2, 384
1, 0, Start_track
1, 0, Tempo, 500000
1, 0, Time_signature, 4, 2, 24, 8
1, 1, End_track
2, 0, Start_track
2, 0, Program_c, 0, 0
2, 0, Control_c, 0, 64, 55
2, 0, Control_c, 0, 67, 127
2, 69, Control_c, 0, 64, 56
2, 114, Control_c, 0, 64, 56
2, 160, Control_c, 0, 64, 57
2, 221, Control_c, 0, 64, 57
2, 312, Control_c, 0, 64, 58
2, 677, Control_c, 0, 64, 57
2, 747, Control_c, 0, 64, 56
2, 762, Control_c, 0, 64, 52
2, 777, Control_c, 0, 64, 38
2, 793, Control_c, 0, 64, 0
2, 793, Note_on_c, 0, 50, 73
2, 820, Note_on_c, 0, 50, 0
2, 1105, Note_on_c, 0, 50, 63
2, 1134, Note_on_c, 0, 50, 0
2, 1325, Note_on_c, 0, 69, 60
2, 1407, Note_on_c, 0, 50, 58
2, 1410, Note_on_c, 0, 69, 0
2, 1418, Note_on_c, 0, 65, 61
2, 1440, Note_on_c, 0, 50, 0
2, 1487, Note_on_c, 0, 65, 0
2, 1525, Note_on_c, 0, 62, 50
2, 1600, Note_on_c, 0, 62, 0
2, 1627, Note_on_c, 0, 69, 59
2, 1713, Note_on_c, 0, 69, 0
2, 1724, Note_on_c, 0, 50, 52
2, 1728, Note_on_c, 0, 65, 60
2, 1755, Note_on_c, 0, 50, 0
2, 1789, Note_on_c, 0, 65, 0
2, 1831, Note_on_c, 0, 62, 54
2, 1913, Note_on_c, 0, 62, 0
2, 1935, Note_on_c, 0, 74, 56
2, 2016, Note_on_c, 0, 74, 0
2, 2037, Note_on_c, 0, 50, 53
2, 2038, Note_on_c, 0, 70, 57
2, 2068, Note_on_c, 0, 50, 0
2, 2102, Note_on_c, 0, 70, 0
2, 2138, Note_on_c, 0, 67, 62
2, 2210, Note_on_c, 0, 67, 0
2, 2232, Note_on_c, 0, 70, 61
2, 2335, Note_on_c, 0, 67, 66
2, 2342, Note_on_c, 0, 70, 0
2, 2344, Note_on_c, 0, 50, 59
2, 2373, Note_on_c, 0, 50, 0
2, 2413, Note_on_c, 0, 67, 0
2, 2458, Note_on_c, 0, 64, 59
2, 2516, Note_on_c, 0, 64, 0
2, 2562, Note_on_c, 0, 67, 44
2, 2588, Note_on_c, 0, 69, 29
2, 2626, Note_on_c, 0, 69, 0
2, 2643, Note_on_c, 0, 67, 0
2, 2650, Note_on_c, 0, 50, 69
2, 2652, Note_on_c, 0, 64, 61
2, 2680, Note_on_c, 0, 50, 0
2, 2736, Note_on_c, 0, 64, 0
2, 2749, Note_on_c, 0, 61, 61
2, 2837, Note_on_c, 0, 61, 0
2, 2844, Note_on_c, 0, 67, 66
2, 2932, Note_on_c, 0, 67, 0
2, 2952, Note_on_c, 0, 64, 65
2, 2960, Note_on_c, 0, 50, 62
2, 2991, Note_on_c, 0, 50, 0
2, 3034, Note_on_c, 0, 64, 0
2, 3051, Note_on_c, 0, 61, 68
2, 3125, Note_on_c, 0, 61, 0
2, 3161, Note_on_c, 0, 69, 60
2, 3245, Note_on_c, 0, 69, 0
2, 3263, Note_on_c, 0, 65, 55
2, 3278, Note_on_c, 0, 50, 58
2, 3303, Note_on_c, 0, 50, 0
2, 3330, Note_on_c, 0, 65, 0
2, 3376, Note_on_c, 0, 62, 50
2, 3441, Note_on_c, 0, 62, 0
2, 3474, Note_on_c, 0, 69, 58
2, 3550, Note_on_c, 0, 69, 0
2, 3572, Note_on_c, 0, 65, 62
2, 3574, Note_on_c, 0, 50, 60
2, 3604, Note_on_c, 0, 50, 0
2, 3635, Note_on_c, 0, 65, 0
2, 3673, Note_on_c, 0, 62, 59
2, 3704, Note_on_c, 0, 62, 0
2, 3787, Note_on_c, 0, 81, 63
2, 3874, Note_on_c, 0, 81, 0
2, 3875, Note_on_c, 0, 62, 60
2, 3879, Note_on_c, 0, 77, 74
2, 3907, Note_on_c, 0, 62, 0
2, 3970, Note_on_c, 0, 77, 0
2, 3990, Note_on_c, 0, 74, 69
2, 4072, Note_on_c, 0, 74, 0
2, 4090, Note_on_c, 0, 77, 68
2, 4178, Note_on_c, 0, 77, 0
2, 4180, Note_on_c, 0, 62, 61
2, 4187, Note_on_c, 0, 74, 69
2, 4211, Note_on_c, 0, 62, 0
2, 4250, Note_on_c, 0, 74, 0
2, 4292, Note_on_c, 0, 69, 61
2, 4356, Note_on_c, 0, 69, 0
2, 4382, Note_on_c, 0, 74, 66
2, 4476, Note_on_c, 0, 74, 0
2, 4488, Note_on_c, 0, 55, 51
2, 4488, Note_on_c, 0, 70, 61
2, 4538, Note_on_c, 0, 55, 0
2, 4558, Note_on_c, 0, 70, 0
2, 4594, Note_on_c, 0, 67, 56
2, 4648, Note_on_c, 0, 67, 0
2, 4681, Note_on_c, 0, 74, 58
2, 4759, Note_on_c, 0, 74, 0
2, 4790, Note_on_c, 0, 70, 60
2, 4796, Note_on_c, 0, 55, 50
2, 4840, Note_on_c, 0, 55, 0
2, 4861, Note_on_c, 0, 70, 0
2, 4904, Note_on_c, 0, 67, 52
2, 4978, Note_on_c, 0, 67, 0
2, 5002, Note_on_c, 0, 79, 51
2, 5065, Note_on_c, 0, 79, 0
2, 5103, Note_on_c, 0, 60, 46
2, 5103, Note_on_c, 0, 76, 52
2, 5131, Note_on_c, 0, 60, 0
2, 5191, Note_on_c, 0, 76, 0
2, 5215, Note_on_c, 0, 72, 51
2, 5282, Note_on_c, 0, 72, 0
2, 5312, Note_on_c, 0, 76, 56
2, 5376, Note_on_c, 0, 76, 0
2, 5398, Note_on_c, 0, 60, 43
2, 5410, Note_on_c, 0, 72, 60
2, 5425, Note_on_c, 0, 60, 0
2, 5470, Note_on_c, 0, 72, 0
2, 5519, Note_on_c, 0, 67, 56
2, 5572, Note_on_c, 0, 67, 0
2, 5610, Note_on_c, 0, 72, 56
2, 5695, Note_on_c, 0, 72, 0
2, 5710, Note_on_c, 0, 53, 48
2, 5711, Note_on_c, 0, 69, 58
2, 5760, Note_on_c, 0, 53, 0
2, 5763, Note_on_c, 0, 69, 0
2, 5820, Note_on_c, 0, 65, 46
2, 5872, Note_on_c, 0, 65, 0
2, 5910, Note_on_c, 0, 72, 59
2, 5968, Note_on_c, 0, 72, 0
2, 6014, Note_on_c, 0, 69, 51
2, 6021, Note_on_c, 0, 53, 43
2, 6069, Note_on_c, 0, 53, 0
2, 6081, Note_on_c, 0, 69, 0
2, 6123, Note_on_c, 0, 65, 50
2, 6182, Note_on_c, 0, 65, 0
2, 6215, Note_on_c, 0, 77, 62
2, 6307, Note_on_c, 0, 77, 0
2, 6316, Note_on_c, 0, 58, 53
2, 6326, Note_on_c, 0, 74, 53
2, 6344, Note_on_c, 0, 58, 0
2, 6410, Note_on_c, 0, 74, 0
2, 6432, Note_on_c, 0, 70, 57
2, 6512, Note_on_c, 0, 70, 0
2, 6531, Note_on_c, 0, 74, 61
2, 6600, Note_on_c, 0, 74, 0
2, 6610, Note_on_c, 0, 55, 56
2, 6625, Note_on_c, 0, 70, 67
2, 6649, Note_on_c, 0, 55, 0
2, 6693, Note_on_c, 0, 70, 0
2, 6719, Note_on_c, 0, 67, 70
2, 6803, Note_on_c, 0, 67, 0
2, 6808, Note_on_c, 0, 79, 75
2, 6913, Note_on_c, 0, 76, 74
2, 6917, Note_on_c, 0, 60, 55
2, 6917, Note_on_c, 0, 79, 0
2, 6949, Note_on_c, 0, 60, 0
2, 7020, Note_on_c, 0, 76, 0
2, 7021, Note_on_c, 0, 72, 74
2, 7108, Note_on_c, 0, 72, 0
2, 7114, Note_on_c, 0, 76, 76
2, 7197, Note_on_c, 0, 76, 0
2, 7215, Note_on_c, 0, 72, 71
2, 7221, Note_on_c, 0, 57, 52
2, 7252, Note_on_c, 0, 57, 0
2, 7278, Note_on_c, 0, 72, 0
2, 7322, Note_on_c, 0, 69, 64
2, 7387, Note_on_c, 0, 69, 0
2, 7416, Note_on_c, 0, 81, 59
2, 7494, Note_on_c, 0, 81, 0
2, 7514, Note_on_c, 0, 77, 64
2, 7518, Note_on_c, 0, 62, 51
2, 7552, Note_on_c, 0, 62, 0
2, 7599, Note_on_c, 0, 77, 0
2, 7620, Note_on_c, 0, 74, 59
2, 7705, Note_on_c, 0, 74, 0
2, 7719, Note_on_c, 0, 77, 62
2, 7800, Note_on_c, 0, 77, 0
2, 7833, Note_on_c, 0, 74, 59
2, 7843, Note_on_c, 0, 50, 37
2, 7883, Note_on_c, 0, 50, 0
2, 7903, Note_on_c, 0, 74, 0
2, 7951, Note_on_c, 0, 70, 55
2, 8019, Note_on_c, 0, 70, 0
2, 8047, Note_on_c, 0, 82, 50
2, 8135, Note_on_c, 0, 79, 63
2, 8135, Note_on_c, 0, 82, 0
2, 8139, Note_on_c, 0, 52, 46
2, 8178, Note_on_c, 0, 52, 0
2, 8216, Note_on_c, 0, 79, 0
2, 8258, Note_on_c, 0, 76, 35
2, 8318, Note_on_c, 0, 76, 0
2, 8340, Note_on_c, 0, 79, 57
2, 8386, Note_on_c, 0, 79, 0
2, 8431, Note_on_c, 0, 76, 61
2, 8438, Note_on_c, 0, 48, 42
2, 8472, Note_on_c, 0, 48, 0
2, 8495, Note_on_c, 0, 76, 0
2, 8543, Note_on_c, 0, 72, 62
2, 8639, Note_on_c, 0, 84, 73
2, 8652, Note_on_c, 0, 72, 0
2, 8733, Note_on_c, 0, 84, 0
2, 8742, Note_on_c, 0, 81, 71
2, 8745, Note_on_c, 0, 53, 61
2, 8776, Note_on_c, 0, 53, 0
2, 8836, Note_on_c, 0, 81, 0
2, 8848, Note_on_c, 0, 77, 72
2, 8940, Note_on_c, 0, 77, 0
2, 8950, Note_on_c, 0, 81, 70
2, 9035, Note_on_c, 0, 81, 0
2, 9041, Note_on_c, 0, 52, 61
2, 9047, Note_on_c, 0, 77, 76
2, 9072, Note_on_c, 0, 52, 0
2, 9116, Note_on_c, 0, 77, 0
2, 9154, Note_on_c, 0, 72, 70
2, 9210, Note_on_c, 0, 72, 0
2, 9251, Note_on_c, 0, 81, 62
2, 9347, Note_on_c, 0, 81, 0
2, 9355, Note_on_c, 0, 77, 66
2, 9358, Note_on_c, 0, 50, 54
2, 9383, Note_on_c, 0, 50, 0
2, 9445, Note_on_c, 0, 77, 0
2, 9458, Note_on_c, 0, 74, 63
2, 9542, Note_on_c, 0, 74, 0
2, 9559, Note_on_c, 0, 77, 68
2, 9643, Note_on_c, 0, 77, 0
2, 9658, Note_on_c, 0, 48, 51
2, 9665, Note_on_c, 0, 74, 60
2, 9686, Note_on_c, 0, 48, 0
2, 9711, Note_on_c, 0, 74, 0
2, 9758, Note_on_c, 0, 69, 59
2, 9802, Note_on_c, 0, 69, 0
2, 9854, Note_on_c, 0, 77, 64
2, 9924, Note_on_c, 0, 77, 0
2, 9949, Note_on_c, 0, 74, 61
2, 9954, Note_on_c, 0, 46, 49
2, 9981, Note_on_c, 0, 46, 0
2, 10015, Note_on_c, 0, 74, 0
2, 10040, Note_on_c, 0, 70, 60
2, 10124, Note_on_c, 0, 70, 0
2, 10151, Note_on_c, 0, 74, 54
2, 10240, Note_on_c, 0, 74, 0
2, 10250, Note_on_c, 0, 70, 59
2, 10265, Note_on_c, 0, 45, 48
2, 10295, Note_on_c, 0, 45, 0
2, 10297, Note_on_c, 0, 70, 0
2, 10353, Note_on_c, 0, 65, 54
2, 10398, Note_on_c, 0, 65, 0
2, 10449, Note_on_c, 0, 74, 53
2, 10523, Note_on_c, 0, 74, 0
2, 10541, Note_on_c, 0, 70, 66
2, 10550, Note_on_c, 0, 43, 51
2, 10580, Note_on_c, 0, 43, 0
2, 10636, Note_on_c, 0, 70, 0
2, 10648, Note_on_c, 0, 67, 66
2, 10728, Note_on_c, 0, 67, 0
2, 10751, Note_on_c, 0, 70, 63
2, 10846, Note_on_c, 0, 70, 0
2, 10852, Note_on_c, 0, 41, 60
2, 10855, Note_on_c, 0, 67, 66
2, 10887, Note_on_c, 0, 41, 0
2, 10919, Note_on_c, 0, 67, 0
2, 10957, Note_on_c, 0, 62, 60
2, 11021, Note_on_c, 0, 62, 0
2, 11047, Note_on_c, 0, 70, 70
2, 11141, Note_on_c, 0, 70, 0
2, 11162, Note_on_c, 0, 67, 63
2, 11172, Note_on_c, 0, 40, 50
2, 11205, Note_on_c, 0, 40, 0
2, 11239, Note_on_c, 0, 67, 0
2, 11263, Note_on_c, 0, 60, 66
2, 11334, Note_on_c, 0, 60, 0
2, 11353, Note_on_c, 0, 70, 71
2, 11444, Note_on_c, 0, 70, 0
2, 11452, Note_on_c, 0, 67, 78
2, 11469, Note_on_c, 0, 36, 56
2, 11520, Note_on_c, 0, 36, 0
2, 11531, Note_on_c, 0, 67, 0
2, 11563, Note_on_c, 0, 64, 72
2, 11645, Note_on_c, 0, 64, 0
2, 11658, Note_on_c, 0, 70, 73
2, 11762, Note_on_c, 0, 69, 81
2, 11770, Note_on_c, 0, 41, 56
2, 11783, Note_on_c, 0, 70, 0
2, 11805, Note_on_c, 0, 41, 0
2, 11830, Note_on_c, 0, 69, 0
2, 11873, Note_on_c, 0, 65, 57
2, 11909, Note_on_c, 0, 65, 0
2, 11964, Note_on_c, 0, 69, 59
2, 12059, Note_on_c, 0, 69, 0
2, 12070, Note_on_c, 0, 45, 44
2, 12076, Note_on_c, 0, 65, 48
2, 12122, Note_on_c, 0, 45, 0
2, 12123, Note_on_c, 0, 65, 0
2, 12170, Note_on_c, 0, 60, 49
2, 12211, Note_on_c, 0, 60, 0
2, 12267, Note_on_c, 0, 65, 60
2, 12351, Note_on_c, 0, 65, 0
2, 12360, Note_on_c, 0, 46, 45
2, 12380, Note_on_c, 0, 62, 60
2, 12407, Note_on_c, 0, 46, 0
2, 12452, Note_on_c, 0, 62, 0
2, 12497, Note_on_c, 0, 58, 42
2, 12528, Note_on_c, 0, 58, 0
2, 12578, Note_on_c, 0, 65, 52
2, 12657, Note_on_c, 0, 65, 0
2, 12670, Note_on_c, 0, 48, 40
2, 12671, Note_on_c, 0, 60, 55
2, 12706, Note_on_c, 0, 48, 0
2, 12745, Note_on_c, 0, 60, 0
2, 12768, Note_on_c, 0, 58, 53
2, 12835, Note_on_c, 0, 58, 0
2, 12880, Note_on_c, 0, 64, 45
2, 12968, Note_on_c, 0, 64, 0
2, 12973, Note_on_c, 0, 60, 56
2, 12975, Note_on_c, 0, 41, 37
2, 13047, Note_on_c, 0, 60, 0
2, 13077, Note_on_c, 0, 57, 53
2, 13171, Note_on_c, 0, 57, 0
2, 13181, Note_on_c, 0, 65, 58
2, 13260, Note_on_c, 0, 65, 0
2, 13272, Note_on_c, 0, 60, 66
2, 13337, Note_on_c, 0, 60, 0
2, 13380, Note_on_c, 0, 57, 63
2, 13421, Note_on_c, 0, 57, 0
2, 13459, Note_on_c, 0, 41, 0
2, 13466, Note_on_c, 0, 60, 68
2, 13563, Note_on_c, 0, 57, 69
2, 13564, Note_on_c, 0, 60, 0
2, 13631, Note_on_c, 0, 57, 0
2, 13668, Note_on_c, 0, 53, 63
2, 13722, Note_on_c, 0, 53, 0
2, 13769, Note_on_c, 0, 60, 70
2, 13856, Note_on_c, 0, 60, 0
2, 13859, Note_on_c, 0, 51, 90
2, 13859, Note_on_c, 0, 57, 74
2, 13921, Note_on_c, 0, 51, 0
2, 13937, Note_on_c, 0, 57, 0
2, 13964, Note_on_c, 0, 53, 64
2, 14022, Note_on_c, 0, 53, 0
2, 14069, Note_on_c, 0, 60, 59
2, 14179, Note_on_c, 0, 50, 67
2, 14182, Note_on_c, 0, 60, 0
2, 14197, Note_on_c, 0, 57, 59
2, 14217, Note_on_c, 0, 50, 0
2, 14274, Note_on_c, 0, 57, 0
2, 14293, Note_on_c, 0, 54, 56
2, 14339, Note_on_c, 0, 54, 0
2, 14409, Note_on_c, 0, 60, 57
2, 14472, Note_on_c, 0, 48, 70
2, 14502, Note_on_c, 0, 60, 0
2, 14506, Note_on_c, 0, 57, 67
2, 14510, Note_on_c, 0, 48, 0
2, 14577, Note_on_c, 0, 57, 0
2, 14603, Note_on_c, 0, 54, 65
2, 14685, Note_on_c, 0, 54, 0
2, 14700, Note_on_c, 0, 63, 76
2, 14789, Note_on_c, 0, 57, 54
2, 14807, Note_on_c, 0, 63, 0
2, 14818, Note_on_c, 0, 46, 40
2, 14855, Note_on_c, 0, 46, 0
2, 14878, Note_on_c, 0, 57, 0
2, 14890, Note_on_c, 0, 54, 51
2, 14955, Note_on_c, 0, 54, 0
2, 14982, Note_on_c, 0, 62, 56
2, 15060, Note_on_c, 0, 62, 0
2, 15072, Note_on_c, 0, 57, 57
2, 15109, Note_on_c, 0, 45, 43
2, 15149, Note_on_c, 0, 57, 0
2, 15162, Note_on_c, 0, 45, 0
2, 15171, Note_on_c, 0, 54, 55
2, 15288, Note_on_c, 0, 60, 51
2, 15295, Note_on_c, 0, 54, 0
2, 15381, Note_on_c, 0, 58, 56
2, 15387, Note_on_c, 0, 60, 0
2, 15401, Note_on_c, 0, 43, 43
2, 15466, Note_on_c, 0, 43, 0
2, 15466, Note_on_c, 0, 58, 0
2, 15475, Note_on_c, 0, 55, 53
2, 15588, Note_on_c, 0, 62, 47
2, 15591, Note_on_c, 0, 55, 0
2, 15680, Note_on_c, 0, 46, 52
2, 15682, Note_on_c, 0, 58, 59
2, 15688, Note_on_c, 0, 62, 0
2, 15724, Note_on_c, 0, 46, 0
2, 15752, Note_on_c, 0, 58, 0
2, 15776, Note_on_c, 0, 55, 47
2, 15845, Note_on_c, 0, 55, 0
2, 15889, Note_on_c, 0, 62, 51
2, 15970, Note_on_c, 0, 58, 63
2, 15971, Note_on_c, 0, 62, 0
2, 15978, Note_on_c, 0, 48, 53
2, 16012, Note_on_c, 0, 48, 0
2, 16039, Note_on_c, 0, 58, 0
2, 16063, Note_on_c, 0, 55, 61
2, 16138, Note_on_c, 0, 55, 0
2, 16165, Note_on_c, 0, 64, 68
2, 16268, Note_on_c, 0, 58, 72
2, 16269, Note_on_c, 0, 64, 0
2, 16295, Note_on_c, 0, 50, 60
2, 16342, Note_on_c, 0, 50, 0
2, 16343, Note_on_c, 0, 58, 0
2, 16369, Note_on_c, 0, 55, 66
2, 16455, Note_on_c, 0, 55, 0
2, 16479, Note_on_c, 0, 66, 75
2, 16576, Note_on_c, 0, 66, 0
2, 16581, Note_on_c, 0, 58, 63
2, 16592, Note_on_c, 0, 51, 59
2, 16629, Note_on_c, 0, 51, 0
2, 16641, Note_on_c, 0, 58, 0
2, 16680, Note_on_c, 0, 55, 57
2, 16753, Note_on_c, 0, 55, 0
2, 16783, Note_on_c, 0, 67, 65
2, 16870, Note_on_c, 0, 67, 0
2, 16891, Note_on_c, 0, 46, 42
2, 16898, Note_on_c, 0, 62, 53
2, 16939, Note_on_c, 0, 46, 0
2, 16956, Note_on_c, 0, 62, 0
2, 16984, Note_on_c, 0, 58, 56
2, 17056, Note_on_c, 0, 58, 0
2, 17091, Note_on_c, 0, 67, 59
2, 17168, Note_on_c, 0, 67, 0
2, 17185, Note_on_c, 0, 63, 57
2, 17216, Note_on_c, 0, 48, 37
2, 17249, Note_on_c, 0, 48, 0
2, 17269, Note_on_c, 0, 63, 0
2, 17305, Note_on_c, 0, 57, 36
2, 17356, Note_on_c, 0, 57, 0
2, 17387, Note_on_c, 0, 67, 49
2, 17441, Note_on_c, 0, 67, 0
2, 17478, Note_on_c, 0, 62, 52
2, 17549, Note_on_c, 0, 62, 0
2, 17583, Note_on_c, 0, 57, 44
2, 17662, Note_on_c, 0, 57, 0
2, 17679, Note_on_c, 0, 66, 50
2, 17791, Note_on_c, 0, 66, 0
2, 17794, Note_on_c, 0, 62, 54
2, 17797, Note_on_c, 0, 43, 24
2, 17882, Note_on_c, 0, 62, 0
2, 17895, Note_on_c, 0, 58, 54
2, 18002, Note_on_c, 0, 67, 56
2, 18016, Note_on_c, 0, 58, 0
2, 18100, Note_on_c, 0, 62, 60
2, 18100, Note_on_c, 0, 67, 0
2, 18185, Note_on_c, 0, 62, 0
2, 18189, Note_on_c, 0, 43, 0
2, 18214, Note_on_c, 0, 58, 66
2, 18246, Note_on_c, 0, 58, 0
2, 18311, Note_on_c, 0, 62, 69
2, 18411, Note_on_c, 0, 58, 72
2, 18418, Note_on_c, 0, 62, 0
2, 18481, Note_on_c, 0, 58, 0
2, 18525, Note_on_c, 0, 55, 63
2, 18593, Note_on_c, 0, 55, 0
2, 18616, Note_on_c, 0, 62, 70
2, 18703, Note_on_c, 0, 62, 0
2, 18713, Note_on_c, 0, 58, 71
2, 18717, Note_on_c, 0, 53, 79
2, 18756, Note_on_c, 0, 53, 0
2, 18787, Note_on_c, 0, 58, 0
2, 18805, Note_on_c, 0, 55, 67
2, 18888, Note_on_c, 0, 55, 0
2, 18916, Note_on_c, 0, 62, 62
2, 19016, Note_on_c, 0, 59, 64
2, 19024, Note_on_c, 0, 62, 0
2, 19027, Note_on_c, 0, 52, 69
2, 19066, Note_on_c, 0, 52, 0
2, 19108, Note_on_c, 0, 59, 0
2, 19126, Note_on_c, 0, 56, 66
2, 19217, Note_on_c, 0, 56, 0
2, 19248, Note_on_c, 0, 62, 55
2, 19343, Note_on_c, 0, 50, 56
2, 19347, Note_on_c, 0, 59, 63
2, 19349, Note_on_c, 0, 62, 0
2, 19376, Note_on_c, 0, 50, 0
2, 19431, Note_on_c, 0, 59, 0
2, 19452, Note_on_c, 0, 56, 56
2, 19539, Note_on_c, 0, 56, 0
2, 19552, Note_on_c, 0, 65, 62
2, 19638, Note_on_c, 0, 65, 0
2, 19651, Note_on_c, 0, 59, 59
2, 19655, Note_on_c, 0, 48, 58
2, 19692, Note_on_c, 0, 48, 0
2, 19732, Note_on_c, 0, 59, 0
2, 19756, Note_on_c, 0, 56, 56
2, 19861, Note_on_c, 0, 56, 0
2, 19866, Note_on_c, 0, 64, 56
2, 19959, Note_on_c, 0, 64, 0
2, 19967, Note_on_c, 0, 47, 53
2, 19967, Note_on_c, 0, 60, 43
2, 20010, Note_on_c, 0, 47, 0
2, 20072, Note_on_c, 0, 60, 0
2, 20109, Note_on_c, 0, 57, 36
2, 20138, Note_on_c, 0, 57, 0
2, 20147, Note_on_c, 0, 64, 56
2, 20246, Note_on_c, 0, 64, 0
2, 20256, Note_on_c, 0, 62, 53
2, 20281, Note_on_c, 0, 45, 50
2, 20314, Note_on_c, 0, 62, 0
2, 20338, Note_on_c, 0, 60, 52
2, 20369, Note_on_c, 0, 45, 0
2, 20399, Note_on_c, 0, 60, 0
2, 20405, Note_on_c, 0, 57, 43
2, 20485, Note_on_c, 0, 57, 0
2, 20497, Note_on_c, 0, 64, 76
2, 20589, Note_on_c, 0, 64, 0
2, 20595, Note_on_c, 0, 60, 71
2, 20599, Note_on_c, 0, 48, 35
2, 20653, Note_on_c, 0, 48, 0
2, 20653, Note_on_c, 0, 60, 0
2, 20684, Note_on_c, 0, 57, 63
2, 20748, Note_on_c, 0, 57, 0
2, 20797, Note_on_c, 0, 64, 62
2, 20887, Note_on_c, 0, 64, 0
2, 20903, Note_on_c, 0, 50, 57
2, 20911, Note_on_c, 0, 60, 47
2, 20938, Note_on_c, 0, 60, 0
2, 20962, Note_on_c, 0, 50, 0
2, 20966, Note_on_c, 0, 57, 48
2, 21056, Note_on_c, 0, 57, 0
2, 21066, Note_on_c, 0, 66, 68
2, 21155, Note_on_c, 0, 66, 0
2, 21156, Note_on_c, 0, 60, 68
2, 21177, Note_on_c, 0, 52, 38
2, 21232, Note_on_c, 0, 60, 0
2, 21257, Note_on_c, 0, 52, 0
2, 21266, Note_on_c, 0, 57, 59
2, 21327, Note_on_c, 0, 57, 0
2, 21361, Note_on_c, 0, 68, 74
2, 21446, Note_on_c, 0, 60, 73
2, 21454, Note_on_c, 0, 68, 0
2, 21471, Note_on_c, 0, 53, 58
2, 21514, Note_on_c, 0, 53, 0
2, 21515, Note_on_c, 0, 60, 0
2, 21552, Note_on_c, 0, 57, 71
2, 21640, Note_on_c, 0, 57, 0
2, 21668, Note_on_c, 0, 69, 77
2, 21769, Note_on_c, 0, 69, 0
2, 21776, Note_on_c, 0, 48, 64
2, 21788, Note_on_c, 0, 64, 59
2, 21829, Note_on_c, 0, 48, 0
2, 21851, Note_on_c, 0, 64, 0
2, 21888, Note_on_c, 0, 60, 62
2, 21931, Note_on_c, 0, 60, 0
2, 21979, Note_on_c, 0, 69, 67
2, 22063, Note_on_c, 0, 69, 0
2, 22078, Note_on_c, 0, 65, 66
2, 22079, Note_on_c, 0, 50, 51
2, 22121, Note_on_c, 0, 50, 0
2, 22136, Note_on_c, 0, 65, 0
2, 22182, Note_on_c, 0, 59, 60
2, 22232, Note_on_c, 0, 59, 0
2, 22280, Note_on_c, 0, 69, 63
2, 22367, Note_on_c, 0, 69, 0
2, 22381, Note_on_c, 0, 52, 48
2, 22382, Note_on_c, 0, 64, 63
2, 22417, Note_on_c, 0, 52, 0
2, 22439, Note_on_c, 0, 64, 0
2, 22480, Note_on_c, 0, 59, 62
2, 22543, Note_on_c, 0, 59, 0
2, 22579, Note_on_c, 0, 68, 67
2, 22676, Note_on_c, 0, 64, 69
2, 22682, Note_on_c, 0, 68, 0
2, 22683, Note_on_c, 0, 45, 48
2, 22735, Note_on_c, 0, 45, 0
2, 22750, Note_on_c, 0, 64, 0
2, 22780, Note_on_c, 0, 60, 71
2, 22850, Note_on_c, 0, 60, 0
2, 22884, Note_on_c, 0, 69, 76
2, 22970, Note_on_c, 0, 69, 0
2, 22974, Note_on_c, 0, 64, 74
2, 22979, Note_on_c, 0, 57, 61
2, 23022, Note_on_c, 0, 57, 0
2, 23042, Note_on_c, 0, 64, 0
2, 23078, Note_on_c, 0, 60, 76
2, 23161, Note_on_c, 0, 60, 0
2, 23184, Note_on_c, 0, 72, 79
2, 23281, Note_on_c, 0, 57, 58
2, 23283, Note_on_c, 0, 65, 71
2, 23285, Note_on_c, 0, 72, 0
2, 23316, Note_on_c, 0, 57, 0
2, 23350, Note_on_c, 0, 65, 0
2, 23382, Note_on_c, 0, 62, 69
2, 23454, Note_on_c, 0, 62, 0
2, 23485, Note_on_c, 0, 70, 73
2, 23581, Note_on_c, 0, 67, 72
2, 23588, Note_on_c, 0, 70, 0
2, 23600, Note_on_c, 0, 55, 54
2, 23629, Note_on_c, 0, 55, 0
2, 23646, Note_on_c, 0, 67, 0
2, 23686, Note_on_c, 0, 64, 68
2, 23764, Note_on_c, 0, 64, 0
2, 23786, Note_on_c, 0, 70, 67
2, 23894, Note_on_c, 0, 53, 61
2, 23899, Note_on_c, 0, 69, 53
2, 23916, Note_on_c, 0, 70, 0
2, 23935, Note_on_c, 0, 53, 0
2, 23935, Note_on_c, 0, 67, 33
2, 23939, Note_on_c, 0, 67, 0
2, 23953, Note_on_c, 0, 69, 0
2, 24000, Note_on_c, 0, 65, 63
2, 24050, Note_on_c, 0, 65, 0
2, 24089, Note_on_c, 0, 69, 64
2, 24183, Note_on_c, 0, 60, 69
2, 24187, Note_on_c, 0, 41, 61
2, 24187, Note_on_c, 0, 69, 0
2, 24233, Note_on_c, 0, 41, 0
2, 24244, Note_on_c, 0, 60, 0
2, 24285, Note_on_c, 0, 57, 66
2, 24340, Note_on_c, 0, 57, 0
2, 24383, Note_on_c, 0, 69, 61
2, 24471, Note_on_c, 0, 41, 57
2, 24475, Note_on_c, 0, 69, 0
2, 24481, Note_on_c, 0, 62, 63
2, 24515, Note_on_c, 0, 41, 0
2, 24537, Note_on_c, 0, 62, 0
2, 24578, Note_on_c, 0, 59, 63
2, 24646, Note_on_c, 0, 59, 0
2, 24687, Note_on_c, 0, 67, 64
2, 24764, Note_on_c, 0, 67, 0
2, 24782, Note_on_c, 0, 64, 60
2, 24794, Note_on_c, 0, 40, 46
2, 24827, Note_on_c, 0, 40, 0
2, 24863, Note_on_c, 0, 64, 0
2, 24885, Note_on_c, 0, 61, 61
2, 24954, Note_on_c, 0, 61, 0
2, 24976, Note_on_c, 0, 67, 63
2, 25044, Note_on_c, 0, 67, 0
2, 25074, Note_on_c, 0, 65, 72
2, 25083, Note_on_c, 0, 38, 52
2, 25123, Note_on_c, 0, 38, 0
2, 25148, Note_on_c, 0, 65, 0
2, 25173, Note_on_c, 0, 62, 69
2, 25254, Note_on_c, 0, 62, 0
2, 25260, Note_on_c, 0, 74, 77
2, 25349, Note_on_c, 0, 69, 81
2, 25367, Note_on_c, 0, 74, 0
2, 25369, Note_on_c, 0, 50, 56
2, 25407, Note_on_c, 0, 50, 0
2, 25429, Note_on_c, 0, 69, 0
2, 25455, Note_on_c, 0, 65, 75
2, 25538, Note_on_c, 0, 65, 0
2, 25554, Note_on_c, 0, 77, 84
2, 25655, Note_on_c, 0, 70, 74
2, 25658, Note_on_c, 0, 50, 63
2, 25664, Note_on_c, 0, 77, 0
2, 25697, Note_on_c, 0, 50, 0
2, 25728, Note_on_c, 0, 70, 0
2, 25751, Note_on_c, 0, 67, 69
2, 25831, Note_on_c, 0, 67, 0
2, 25855, Note_on_c, 0, 75, 74
2, 25953, Note_on_c, 0, 48, 58
2, 25953, Note_on_c, 0, 75, 0
2, 25954, Note_on_c, 0, 72, 71
2, 25992, Note_on_c, 0, 48, 0
2, 26013, Note_on_c, 0, 72, 0
2, 26056, Note_on_c, 0, 69, 66
2, 26132, Note_on_c, 0, 69, 0
2, 26141, Note_on_c, 0, 75, 72
2, 26251, Note_on_c, 0, 75, 0
2, 26255, Note_on_c, 0, 74, 60
2, 26267, Note_on_c, 0, 46, 53
2, 26308, Note_on_c, 0, 46, 0
2, 26328, Note_on_c, 0, 74, 0
2, 26333, Note_on_c, 0, 70, 69
2, 26411, Note_on_c, 0, 70, 0
2, 26444, Note_on_c, 0, 74, 65
2, 26532, Note_on_c, 0, 74, 0
2, 26551, Note_on_c, 0, 65, 70
2, 26557, Note_on_c, 0, 58, 62
2, 26588, Note_on_c, 0, 58, 0
2, 26620, Note_on_c, 0, 65, 0
2, 26654, Note_on_c, 0, 62, 62
2, 26731, Note_on_c, 0, 62, 0
2, 26756, Note_on_c, 0, 74, 65
2, 26841, Note_on_c, 0, 74, 0
2, 26851, Note_on_c, 0, 67, 64
2, 26859, Note_on_c, 0, 58, 65
2, 26891, Note_on_c, 0, 58, 0
2, 26916, Note_on_c, 0, 67, 0
2, 26957, Note_on_c, 0, 64, 64
2, 27039, Note_on_c, 0, 64, 0
2, 27071, Note_on_c, 0, 72, 64
2, 27142, Note_on_c, 0, 72, 0
2, 27165, Note_on_c, 0, 69, 58
2, 27174, Note_on_c, 0, 57, 59
2, 27206, Note_on_c, 0, 57, 0
2, 27249, Note_on_c, 0, 69, 0
2, 27266, Note_on_c, 0, 66, 58
2, 27339, Note_on_c, 0, 66, 0
2, 27368, Note_on_c, 0, 72, 58
2, 27456, Control_c, 0, 64, 13
2, 27457, Note_on_c, 0, 72, 0
2, 27467, Note_on_c, 0, 55, 49
2, 27473, Control_c, 0, 64, 31
2, 27488, Control_c, 0, 64, 39
2, 27503, Control_c, 0, 64, 45
2, 27519, Control_c, 0, 64, 51
2, 27534, Control_c, 0, 64, 56
2, 27549, Control_c, 0, 64, 60
2, 27564, Control_c, 0, 64, 63
2, 27571, Note_on_c, 0, 67, 65
2, 27579, Control_c, 0, 64, 65
2, 27594, Control_c, 0, 64, 68
2, 27609, Control_c, 0, 64, 71
2, 27624, Control_c, 0, 64, 77
2, 27640, Control_c, 0, 64, 84
2, 27655, Control_c, 0, 64, 92
2, 27671, Control_c, 0, 64, 96
2, 27672, Note_on_c, 0, 74, 67
2, 27673, Note_on_c, 0, 67, 0
2, 27685, Control_c, 0, 64, 97
2, 27700, Control_c, 0, 64, 93
2, 27716, Control_c, 0, 64, 79
2, 27739, Control_c, 0, 64, 61
2, 27755, Control_c, 0, 64, 0
2, 27778, Note_on_c, 0, 70, 71
2, 27782, Note_on_c, 0, 74, 0
2, 27855, Note_on_c, 0, 70, 0
2, 27860, Note_on_c, 0, 55, 0
2, 27881, Note_on_c, 0, 67, 66
2, 27962, Note_on_c, 0, 67, 0
2, 27978, Note_on_c, 0, 79, 75
2, 28058, Control_c, 0, 64, 25
2, 28070, Note_on_c, 0, 79, 0
2, 28072, Note_on_c, 0, 75, 78
2, 28074, Control_c, 0, 64, 44
2, 28088, Control_c, 0, 64, 0
2, 28160, Note_on_c, 0, 75, 0
2, 28178, Note_on_c, 0, 67, 73
2, 28252, Note_on_c, 0, 67, 0
2, 28268, Note_on_c, 0, 79, 81
2, 28367, Note_on_c, 0, 79, 0
2, 28369, Note_on_c, 0, 74, 74
2, 28370, Note_on_c, 0, 58, 78
2, 28411, Note_on_c, 0, 58, 0
2, 28438, Note_on_c, 0, 74, 0
2, 28472, Note_on_c, 0, 67, 75
2, 28561, Note_on_c, 0, 67, 0
2, 28572, Note_on_c, 0, 79, 78
2, 28674, Note_on_c, 0, 73, 81
2, 28679, Note_on_c, 0, 79, 0
2, 28690, Note_on_c, 0, 57, 65
2, 28727, Note_on_c, 0, 57, 0
2, 28755, Note_on_c, 0, 73, 0
2, 28777, Note_on_c, 0, 69, 78
2, 28859, Note_on_c, 0, 69, 0
2, 28877, Note_on_c, 0, 79, 80
2, 28975, Note_on_c, 0, 79, 0
2, 28980, Note_on_c, 0, 76, 75
2, 28987, Note_on_c, 0, 55, 64
2, 29026, Note_on_c, 0, 55, 0
2, 29058, Note_on_c, 0, 76, 0
2, 29069, Note_on_c, 0, 73, 85
2, 29156, Note_on_c, 0, 73, 0
2, 29169, Note_on_c, 0, 82, 89
2, 29247, Note_on_c, 0, 82, 0
2, 29276, Note_on_c, 0, 76, 73
2, 29302, Note_on_c, 0, 53, 63
2, 29349, Note_on_c, 0, 76, 0
2, 29350, Note_on_c, 0, 53, 0
2, 29378, Note_on_c, 0, 73, 71
2, 29470, Note_on_c, 0, 73, 0
2, 29477, Note_on_c, 0, 81, 76
2, 29566, Note_on_c, 0, 81, 0
2, 29587, Note_on_c, 0, 76, 63
2, 29604, Note_on_c, 0, 52, 56
2, 29639, Note_on_c, 0, 52, 0
2, 29682, Note_on_c, 0, 76, 0
2, 29694, Note_on_c, 0, 73, 63
2, 29792, Note_on_c, 0, 79, 70
2, 29793, Note_on_c, 0, 73, 0
2, 29900, Note_on_c, 0, 77, 74
2, 29902, Note_on_c, 0, 50, 48
2, 29914, Note_on_c, 0, 79, 0
2, 29960, Note_on_c, 0, 50, 0
2, 29994, Note_on_c, 0, 74, 72
2, 30039, Note_on_c, 0, 77, 0
2, 30075, Note_on_c, 0, 74, 0
2, 30103, Note_on_c, 0, 69, 71
2, 30179, Note_on_c, 0, 69, 0
2, 30200, Note_on_c, 0, 65, 75
2, 30213, Note_on_c, 0, 53, 50
2, 30251, Note_on_c, 0, 53, 0
2, 30284, Note_on_c, 0, 65, 0
2, 30287, Control_c, 0, 64, 9
2, 30302, Control_c, 0, 64, 11
2, 30306, Note_on_c, 0, 62, 67
2, 30332, Control_c, 0, 64, 12
2, 30381, Note_on_c, 0, 62, 0
2, 30403, Note_on_c, 0, 69, 71
2, 30500, Note_on_c, 0, 55, 62
2, 30500, Note_on_c, 0, 65, 74
2, 30504, Note_on_c, 0, 69, 0
2, 30530, Control_c, 0, 64, 13
2, 30540, Note_on_c, 0, 55, 0
2, 30566, Note_on_c, 0, 65, 0
2, 30575, Control_c, 0, 64, 15
2, 30603, Note_on_c, 0, 62, 69
2, 30605, Control_c, 0, 64, 16
2, 30636, Control_c, 0, 64, 17
2, 30673, Note_on_c, 0, 62, 0
2, 30681, Control_c, 0, 64, 17
2, 30708, Note_on_c, 0, 71, 82
2, 30797, Note_on_c, 0, 65, 78
2, 30797, Note_on_c, 0, 71, 0
2, 30821, Note_on_c, 0, 57, 55
2, 30843, Control_c, 0, 64, 18
2, 30858, Note_on_c, 0, 57, 0
2, 30864, Note_on_c, 0, 65, 0
2, 30888, Control_c, 0, 64, 19
2, 30903, Control_c, 0, 64, 20
2, 30910, Note_on_c, 0, 62, 70
2, 30918, Control_c, 0, 64, 21
2, 30933, Control_c, 0, 64, 22
2, 30949, Control_c, 0, 64, 23
2, 30964, Control_c, 0, 64, 23
2, 30977, Note_on_c, 0, 62, 0
2, 30993, Control_c, 0, 64, 24
2, 31006, Note_on_c, 0, 73, 81
2, 31100, Control_c, 0, 64, 24
2, 31100, Note_on_c, 0, 58, 63
2, 31100, Note_on_c, 0, 65, 70
2, 31106, Note_on_c, 0, 73, 0
2, 31142, Note_on_c, 0, 58, 0
2, 31146, Control_c, 0, 64, 25
2, 31155, Note_on_c, 0, 65, 0
2, 31161, Control_c, 0, 64, 25
2, 31190, Note_on_c, 0, 62, 74
2, 31259, Note_on_c, 0, 62, 0
2, 31288, Note_on_c, 0, 74, 75
2, 31379, Note_on_c, 0, 74, 0
2, 31388, Note_on_c, 0, 65, 76
2, 31396, Note_on_c, 0, 53, 61
2, 31448, Note_on_c, 0, 53, 0
2, 31457, Note_on_c, 0, 65, 0
2, 31491, Note_on_c, 0, 62, 66
2, 31579, Note_on_c, 0, 62, 0
2, 31610, Note_on_c, 0, 69, 79
2, 31709, Note_on_c, 0, 69, 0
2, 31717, Note_on_c, 0, 65, 70
2, 31723, Note_on_c, 0, 55, 51
2, 31748, Control_c, 0, 64, 26
2, 31763, Note_on_c, 0, 55, 0
2, 31781, Note_on_c, 0, 65, 0
2, 31817, Note_on_c, 0, 62, 64
2, 31890, Note_on_c, 0, 62, 0
2, 31898, Control_c, 0, 64, 26
2, 31914, Control_c, 0, 64, 27
2, 31918, Note_on_c, 0, 70, 72
2, 31929, Control_c, 0, 64, 28
2, 31944, Control_c, 0, 64, 28
2, 31959, Control_c, 0, 64, 29
2, 32005, Control_c, 0, 64, 29
2, 32012, Note_on_c, 0, 70, 0
2, 32032, Note_on_c, 0, 64, 45
2, 32033, Note_on_c, 0, 57, 61
2, 32036, Control_c, 0, 64, 30
2, 32073, Note_on_c, 0, 57, 0
2, 32101, Note_on_c, 0, 64, 0
2, 32114, Note_on_c, 0, 61, 64
2, 32204, Note_on_c, 0, 61, 0
2, 32210, Note_on_c, 0, 69, 69
2, 32300, Note_on_c, 0, 69, 0
2, 32315, Note_on_c, 0, 64, 62
2, 32327, Note_on_c, 0, 46, 56
2, 32348, Control_c, 0, 64, 29
2, 32375, Note_on_c, 0, 46, 0
2, 32399, Note_on_c, 0, 64, 0
2, 32414, Note_on_c, 0, 61, 63
2, 32470, Control_c, 0, 64, 29
2, 32519, Note_on_c, 0, 67, 65
2, 32522, Note_on_c, 0, 61, 0
2, 32576, Control_c, 0, 64, 28
2, 32592, Control_c, 0, 64, 28
2, 32616, Note_on_c, 0, 67, 0
2, 32619, Note_on_c, 0, 41, 62
2, 32619, Note_on_c, 0, 62, 67
2, 32637, Control_c, 0, 64, 27
2, 32663, Note_on_c, 0, 41, 0
2, 32690, Note_on_c, 0, 62, 0
2, 32734, Note_on_c, 0, 57, 59
2, 32758, Control_c, 0, 64, 27
2, 32794, Note_on_c, 0, 57, 0
2, 32827, Note_on_c, 0, 65, 66
2, 32910, Control_c, 0, 64, 26
2, 32925, Control_c, 0, 64, 26
2, 32928, Note_on_c, 0, 62, 68
2, 32928, Note_on_c, 0, 65, 0
2, 32931, Note_on_c, 0, 43, 54
2, 32967, Note_on_c, 0, 43, 0
2, 33033, Note_on_c, 0, 58, 69
2, 33034, Note_on_c, 0, 62, 0
2, 33127, Note_on_c, 0, 58, 0
2, 33140, Note_on_c, 0, 64, 67
2, 33176, Control_c, 0, 64, 25
2, 33227, Note_on_c, 0, 45, 62
2, 33239, Note_on_c, 0, 60, 76
2, 33241, Note_on_c, 0, 64, 0
2, 33285, Note_on_c, 0, 45, 0
2, 33311, Note_on_c, 0, 60, 0
2, 33341, Note_on_c, 0, 53, 68
2, 33430, Note_on_c, 0, 53, 0
2, 33436, Control_c, 0, 64, 25
2, 33441, Note_on_c, 0, 63, 71
2, 33532, Note_on_c, 0, 46, 60
2, 33539, Note_on_c, 0, 58, 68
2, 33546, Note_on_c, 0, 63, 0
2, 33578, Note_on_c, 0, 46, 0
2, 33607, Note_on_c, 0, 58, 0
2, 33635, Note_on_c, 0, 53, 69
2, 33711, Note_on_c, 0, 53, 0
2, 33738, Note_on_c, 0, 62, 63
2, 33821, Note_on_c, 0, 62, 0
2, 33827, Note_on_c, 0, 41, 58
2, 33833, Note_on_c, 0, 57, 61
2, 33864, Note_on_c, 0, 41, 0
2, 33890, Note_on_c, 0, 57, 0
2, 33934, Note_on_c, 0, 53, 60
2, 33993, Note_on_c, 0, 53, 0
2, 34033, Note_on_c, 0, 62, 57
2, 34100, Note_on_c, 0, 62, 0
2, 34125, Note_on_c, 0, 43, 52
2, 34130, Note_on_c, 0, 58, 61
2, 34164, Note_on_c, 0, 43, 0
2, 34197, Note_on_c, 0, 58, 0
2, 34234, Note_on_c, 0, 52, 53
2, 34296, Note_on_c, 0, 52, 0
2, 34326, Note_on_c, 0, 62, 55
2, 34401, Note_on_c, 0, 62, 0
2, 34415, Note_on_c, 0, 45, 63
2, 34421, Note_on_c, 0, 57, 61
2, 34447, Note_on_c, 0, 45, 0
2, 34478, Note_on_c, 0, 57, 0
2, 34515, Note_on_c, 0, 52, 53
2, 34580, Note_on_c, 0, 52, 0
2, 34597, Note_on_c, 0, 61, 58
2, 34705, Note_on_c, 0, 61, 0
2, 34721, Note_on_c, 0, 57, 68
2, 34724, Note_on_c, 0, 38, 87
2, 34809, Note_on_c, 0, 57, 0
2, 34821, Note_on_c, 0, 54, 76
2, 34910, Note_on_c, 0, 54, 0
2, 34915, Note_on_c, 0, 57, 73
2, 35018, Note_on_c, 0, 60, 78
2, 35020, Note_on_c, 0, 57, 0
2, 35115, Note_on_c, 0, 60, 0
2, 35121, Control_c, 0, 64, 25
2, 35128, Note_on_c, 0, 57, 77
2, 35180, Control_c, 0, 64, 26
2, 35217, Note_on_c, 0, 57, 0
2, 35219, Note_on_c, 0, 60, 85
2, 35321, Note_on_c, 0, 63, 86
2, 35332, Control_c, 0, 64, 26
2, 35335, Note_on_c, 0, 60, 0
2, 35412, Note_on_c, 0, 63, 0
2, 35418, Note_on_c, 0, 60, 84
2, 35515, Note_on_c, 0, 63, 87
2, 35528, Note_on_c, 0, 60, 0
2, 35583, Note_on_c, 0, 63, 0
2, 35616, Note_on_c, 0, 66, 92
2, 35706, Control_c, 0, 64, 27
2, 35718, Note_on_c, 0, 42, 85
2, 35729, Note_on_c, 0, 38, 0
2, 35798, Control_c, 0, 64, 27
2, 35815, Note_on_c, 0, 45, 84
2, 35833, Note_on_c, 0, 42, 0
2, 35858, Control_c, 0, 64, 28
2, 35868, Note_on_c, 0, 66, 0
2, 35898, Note_on_c, 0, 58, 87
2, 35906, Note_on_c, 0, 50, 86
2, 35907, Note_on_c, 0, 45, 0
2, 35977, Note_on_c, 0, 58, 0
2, 35994, Note_on_c, 0, 55, 80
2, 36095, Note_on_c, 0, 58, 81
2, 36106, Note_on_c, 0, 55, 0
2, 36147, Control_c, 0, 64, 28
2, 36209, Note_on_c, 0, 62, 78
2, 36210, Note_on_c, 0, 58, 0
2, 36246, Control_c, 0, 64, 29
2, 36261, Control_c, 0, 64, 29
2, 36292, Control_c, 0, 64, 30
2, 36305, Note_on_c, 0, 58, 84
2, 36307, Control_c, 0, 64, 30
2, 36307, Note_on_c, 0, 62, 0
2, 36338, Control_c, 0, 64, 31
2, 36354, Control_c, 0, 64, 32
2, 36369, Control_c, 0, 64, 33
2, 36384, Control_c, 0, 64, 33
2, 36402, Note_on_c, 0, 62, 84
2, 36413, Note_on_c, 0, 58, 0
2, 36414, Control_c, 0, 64, 34
2, 36429, Control_c, 0, 64, 34
2, 36444, Control_c, 0, 64, 35
2, 36459, Control_c, 0, 64, 36
2, 36475, Control_c, 0, 64, 37
2, 36491, Control_c, 0, 64, 38
2, 36501, Note_on_c, 0, 62, 0
2, 36501, Note_on_c, 0, 67, 82
2, 36506, Control_c, 0, 64, 39
2, 36551, Control_c, 0, 64, 39
2, 36567, Note_on_c, 0, 67, 0
2, 36598, Note_on_c, 0, 62, 83
2, 36643, Control_c, 0, 64, 39
2, 36694, Note_on_c, 0, 62, 0
2, 36695, Note_on_c, 0, 67, 83
2, 36719, Control_c, 0, 64, 38
2, 36734, Control_c, 0, 64, 38
2, 36748, Control_c, 0, 64, 38
2, 36764, Control_c, 0, 64, 47
2, 36779, Control_c, 0, 64, 58
2, 36783, Note_on_c, 0, 70, 86
2, 36795, Control_c, 0, 64, 63
2, 36797, Note_on_c, 0, 67, 0
2, 36810, Control_c, 0, 64, 67
2, 36824, Control_c, 0, 64, 74
2, 36840, Control_c, 0, 64, 86
2, 36855, Control_c, 0, 64, 127
2, 36884, Note_on_c, 0, 55, 85
2, 36894, Note_on_c, 0, 50, 0
2, 36996, Note_on_c, 0, 55, 0
2, 36998, Note_on_c, 0, 57, 87
2, 37019, Note_on_c, 0, 58, 35
2, 37055, Note_on_c, 0, 58, 0
2, 37091, Note_on_c, 0, 61, 101
2, 37115, Note_on_c, 0, 57, 0
2, 37121, Control_c, 0, 64, 81
2, 37136, Control_c, 0, 64, 34
2, 37151, Control_c, 0, 64, 0
2, 37151, Note_on_c, 0, 61, 0
2, 37191, Note_on_c, 0, 67, 76
2, 37195, Note_on_c, 0, 70, 0
2, 37278, Note_on_c, 0, 67, 0
2, 37281, Note_on_c, 0, 76, 75
2, 37386, Note_on_c, 0, 70, 80
2, 37387, Note_on_c, 0, 76, 0
2, 37394, Note_on_c, 0, 50, 67
2, 37441, Note_on_c, 0, 50, 0
2, 37467, Note_on_c, 0, 70, 0
2, 37482, Note_on_c, 0, 67, 76
2, 37561, Note_on_c, 0, 67, 0
2, 37577, Note_on_c, 0, 79, 89
2, 37680, Note_on_c, 0, 70, 79
2, 37685, Note_on_c, 0, 79, 0
2, 37687, Note_on_c, 0, 61, 70
2, 37728, Note_on_c, 0, 61, 0
2, 37761, Note_on_c, 0, 70, 0
2, 37783, Note_on_c, 0, 67, 69
2, 37859, Note_on_c, 0, 67, 0
2, 37885, Note_on_c, 0, 76, 83
2, 37986, Note_on_c, 0, 70, 72
2, 37986, Note_on_c, 0, 76, 0
2, 38005, Note_on_c, 0, 50, 51
2, 38046, Note_on_c, 0, 50, 0
2, 38060, Note_on_c, 0, 70, 0
2, 38080, Note_on_c, 0, 67, 66
2, 38162, Note_on_c, 0, 67, 0
2, 38187, Note_on_c, 0, 73, 78
2, 38286, Note_on_c, 0, 70, 73
2, 38299, Note_on_c, 0, 61, 63
2, 38299, Note_on_c, 0, 73, 0
2, 38342, Note_on_c, 0, 61, 0
2, 38358, Note_on_c, 0, 70, 0
2, 38384, Note_on_c, 0, 67, 70
2, 38455, Note_on_c, 0, 67, 0
2, 38497, Note_on_c, 0, 76, 78
2, 38593, Note_on_c, 0, 76, 0
2, 38597, Note_on_c, 0, 70, 69
2, 38620, Note_on_c, 0, 50, 52
2, 38675, Note_on_c, 0, 50, 0
2, 38675, Note_on_c, 0, 70, 0
2, 38697, Note_on_c, 0, 67, 69
2, 38775, Note_on_c, 0, 67, 0
2, 38797, Note_on_c, 0, 79, 74
2, 38890, Note_on_c, 0, 79, 0
2, 38911, Note_on_c, 0, 70, 63
2, 38920, Note_on_c, 0, 61, 52
2, 38956, Note_on_c, 0, 61, 0
2, 38983, Note_on_c, 0, 70, 0
2, 39005, Note_on_c, 0, 67, 65
2, 39073, Note_on_c, 0, 67, 0
2, 39105, Note_on_c, 0, 76, 69
2, 39214, Note_on_c, 0, 76, 0
2, 39216, Note_on_c, 0, 70, 65
2, 39230, Note_on_c, 0, 50, 46
2, 39278, Note_on_c, 0, 50, 0
2, 39296, Note_on_c, 0, 70, 0
2, 39321, Note_on_c, 0, 67, 61
2, 39401, Note_on_c, 0, 67, 0
2, 39425, Note_on_c, 0, 73, 59
2, 39535, Note_on_c, 0, 69, 51
2, 39554, Note_on_c, 0, 60, 57
2, 39564, Note_on_c, 0, 73, 0
2, 39592, Note_on_c, 0, 60, 0
2, 39619, Note_on_c, 0, 69, 0
2, 39630, Note_on_c, 0, 66, 52
2, 39726, Note_on_c, 0, 66, 0
2, 39745, Note_on_c, 0, 74, 53
2, 39843, Note_on_c, 0, 74, 0
2, 39848, Note_on_c, 0, 50, 50
2, 39849, Note_on_c, 0, 69, 61
2, 39886, Note_on_c, 0, 50, 0
2, 39931, Note_on_c, 0, 69, 0
2, 39959, Note_on_c, 0, 66, 51
2, 40045, Note_on_c, 0, 66, 0
2, 40054, Note_on_c, 0, 75, 66
2, 40161, Note_on_c, 0, 75, 0
2, 40165, Note_on_c, 0, 69, 58
2, 40179, Note_on_c, 0, 60, 59
2, 40214, Note_on_c, 0, 60, 0
2, 40252, Note_on_c, 0, 69, 0
2, 40271, Note_on_c, 0, 66, 54
2, 40371, Note_on_c, 0, 74, 65
2, 40372, Note_on_c, 0, 66, 0
2, 40462, Note_on_c, 0, 74, 0
2, 40479, Note_on_c, 0, 69, 60
2, 40483, Note_on_c, 0, 50, 47
2, 40516, Note_on_c, 0, 50, 0
2, 40562, Note_on_c, 0, 69, 0
2, 40583, Note_on_c, 0, 66, 54
2, 40683, Note_on_c, 0, 66, 0
2, 40699, Note_on_c, 0, 72, 59
2, 40800, Note_on_c, 0, 60, 60
2, 40805, Note_on_c, 0, 72, 0
2, 40806, Note_on_c, 0, 69, 57
2, 40837, Note_on_c, 0, 60, 0
2, 40890, Note_on_c, 0, 69, 0
2, 40901, Note_on_c, 0, 66, 52
2, 40997, Note_on_c, 0, 66, 0
2, 41008, Note_on_c, 0, 74, 52
2, 41099, Note_on_c, 0, 74, 0
2, 41103, Note_on_c, 0, 50, 36
2, 41113, Note_on_c, 0, 69, 55
2, 41139, Note_on_c, 0, 50, 0
2, 41181, Note_on_c, 0, 69, 0
2, 41213, Note_on_c, 0, 66, 45
2, 41283, Note_on_c, 0, 66, 0
2, 41285, Note_on_c, 0, 75, 64
2, 41393, Note_on_c, 0, 75, 0
2, 41402, Note_on_c, 0, 69, 56
2, 41406, Note_on_c, 0, 60, 55
2, 41441, Note_on_c, 0, 60, 0
2, 41477, Note_on_c, 0, 69, 0
2, 41506, Note_on_c, 0, 66, 47
2, 41588, Note_on_c, 0, 66, 0
2, 41598, Note_on_c, 0, 74, 55
2, 41699, Note_on_c, 0, 74, 0
2, 41707, Note_on_c, 0, 69, 55
2, 41718, Note_on_c, 0, 50, 46
2, 41770, Note_on_c, 0, 69, 0
2, 41782, Note_on_c, 0, 50, 0
2, 41802, Note_on_c, 0, 66, 55
2, 41849, Note_on_c, 0, 66, 0
2, 41917, Note_on_c, 0, 72, 52
2, 42013, Note_on_c, 0, 72, 0
2, 42020, Note_on_c, 0, 67, 61
2, 42030, Note_on_c, 0, 58, 30
2, 42062, Note_on_c, 0, 58, 0
2, 42085, Note_on_c, 0, 67, 0
2, 42133, Note_on_c, 0, 62, 49
2, 42205, Note_on_c, 0, 62, 0
2, 42212, Note_on_c, 0, 67, 63
2, 42332, Note_on_c, 0, 70, 66
2, 42333, Note_on_c, 0, 67, 0
2, 42341, Note_on_c, 0, 50, 27
2, 42381, Note_on_c, 0, 50, 0
2, 42401, Note_on_c, 0, 70, 0
2, 42431, Note_on_c, 0, 67, 71
2, 42520, Note_on_c, 0, 67, 0
2, 42522, Note_on_c, 0, 70, 76
2, 42621, Note_on_c, 0, 58, 46
2, 42623, Note_on_c, 0, 70, 0
2, 42631, Note_on_c, 0, 74, 79
2, 42649, Note_on_c, 0, 58, 0
2, 42666, Control_c, 0, 64, 9
2, 42681, Control_c, 0, 64, 13
2, 42696, Control_c, 0, 64, 16
2, 42711, Control_c, 0, 64, 18
2, 42716, Note_on_c, 0, 70, 86
2, 42716, Note_on_c, 0, 74, 0
2, 42726, Control_c, 0, 64, 20
2, 42741, Control_c, 0, 64, 21
2, 42757, Control_c, 0, 64, 21
2, 42772, Control_c, 0, 64, 22
2, 42802, Control_c, 0, 64, 23
2, 42809, Note_on_c, 0, 74, 84
2, 42817, Note_on_c, 0, 70, 0
2, 42832, Control_c, 0, 64, 23
2, 42862, Control_c, 0, 64, 24
2, 42904, Note_on_c, 0, 79, 87
2, 42907, Note_on_c, 0, 74, 0
2, 42909, Control_c, 0, 64, 24
2, 42912, Note_on_c, 0, 50, 48
2, 42954, Control_c, 0, 64, 25
2, 42973, Note_on_c, 0, 50, 0
2, 42979, Note_on_c, 0, 79, 0
2, 42999, Control_c, 0, 64, 25
2, 42999, Note_on_c, 0, 74, 89
2, 43014, Control_c, 0, 64, 26
2, 43030, Control_c, 0, 64, 26
2, 43046, Control_c, 0, 64, 27
2, 43060, Control_c, 0, 64, 27
2, 43099, Control_c, 0, 64, 28
2, 43103, Note_on_c, 0, 79, 86
2, 43116, Note_on_c, 0, 74, 0
2, 43130, Control_c, 0, 64, 28
2, 43160, Control_c, 0, 64, 29
2, 43175, Control_c, 0, 64, 29
2, 43186, Note_on_c, 0, 79, 0
2, 43191, Control_c, 0, 64, 30
2, 43205, Note_on_c, 0, 55, 55
2, 43206, Control_c, 0, 64, 30
2, 43206, Note_on_c, 0, 82, 83
2, 43254, Note_on_c, 0, 55, 0
2, 43306, Note_on_c, 0, 81, 80
2, 43347, Note_on_c, 0, 82, 0
2, 43378, Note_on_c, 0, 81, 0
2, 43402, Note_on_c, 0, 79, 71
2, 43476, Note_on_c, 0, 79, 0
2, 43479, Control_c, 0, 64, 31
2, 43488, Note_on_c, 0, 50, 51
2, 43495, Note_on_c, 0, 77, 79
2, 43531, Note_on_c, 0, 50, 0
2, 43584, Note_on_c, 0, 77, 0
2, 43595, Note_on_c, 0, 76, 76
2, 43671, Note_on_c, 0, 76, 0
2, 43703, Note_on_c, 0, 74, 67
2, 43762, Note_on_c, 0, 74, 0
2, 43781, Note_on_c, 0, 55, 56
2, 43796, Note_on_c, 0, 73, 73
2, 43818, Note_on_c, 0, 55, 0
2, 43868, Note_on_c, 0, 73, 0
2, 43904, Note_on_c, 0, 69, 68
2, 43959, Note_on_c, 0, 69, 0
2, 43993, Note_on_c, 0, 73, 69
2, 44078, Note_on_c, 0, 73, 0
2, 44081, Note_on_c, 0, 50, 47
2, 44098, Note_on_c, 0, 76, 66
2, 44133, Note_on_c, 0, 50, 0
2, 44166, Note_on_c, 0, 76, 0
2, 44188, Note_on_c, 0, 73, 66
2, 44277, Note_on_c, 0, 73, 0
2, 44283, Note_on_c, 0, 76, 67
2, 44373, Note_on_c, 0, 76, 0
2, 44388, Note_on_c, 0, 79, 59
2, 44400, Note_on_c, 0, 52, 27
2, 44439, Note_on_c, 0, 52, 0
2, 44463, Note_on_c, 0, 79, 0
2, 44473, Note_on_c, 0, 76, 65
2, 44536, Note_on_c, 0, 76, 0
2, 44576, Note_on_c, 0, 74, 60
2, 44649, Note_on_c, 0, 74, 0
2, 44660, Note_on_c, 0, 73, 68
2, 44676, Note_on_c, 0, 50, 54
2, 44723, Note_on_c, 0, 50, 0
2, 44761, Note_on_c, 0, 73, 0
2, 44776, Note_on_c, 0, 71, 48
2, 44815, Note_on_c, 0, 72, 12
2, 44829, Note_on_c, 0, 71, 0
2, 44857, Note_on_c, 0, 72, 0
2, 44864, Note_on_c, 0, 69, 63
2, 44915, Note_on_c, 0, 69, 0
2, 44958, Note_on_c, 0, 67, 70
2, 44964, Note_on_c, 0, 52, 55
2, 45001, Note_on_c, 0, 52, 0
2, 45030, Note_on_c, 0, 67, 0
2, 45046, Control_c, 0, 64, 31
2, 45069, Note_on_c, 0, 64, 61
2, 45124, Note_on_c, 0, 64, 0
2, 45157, Note_on_c, 0, 67, 67
2, 45247, Note_on_c, 0, 67, 0
2, 45258, Note_on_c, 0, 50, 46
2, 45261, Note_on_c, 0, 70, 66
2, 45294, Note_on_c, 0, 50, 0
2, 45322, Note_on_c, 0, 70, 0
2, 45358, Note_on_c, 0, 67, 66
2, 45416, Note_on_c, 0, 67, 0
2, 45453, Note_on_c, 0, 70, 68
2, 45539, Note_on_c, 0, 70, 0
2, 45559, Note_on_c, 0, 73, 68
2, 45561, Note_on_c, 0, 52, 50
2, 45597, Note_on_c, 0, 52, 0
2, 45626, Note_on_c, 0, 73, 0
2, 45659, Note_on_c, 0, 67, 66
2, 45742, Note_on_c, 0, 67, 0
2, 45759, Note_on_c, 0, 76, 63
2, 45848, Note_on_c, 0, 50, 49
2, 45848, Note_on_c, 0, 73, 68
2, 45848, Note_on_c, 0, 76, 0
2, 45859, Control_c, 0, 64, 32
2, 45890, Note_on_c, 0, 50, 0
2, 45935, Note_on_c, 0, 73, 0
2, 45943, Note_on_c, 0, 70, 71
2, 46044, Note_on_c, 0, 70, 0
2, 46047, Note_on_c, 0, 76, 68
2, 46139, Note_on_c, 0, 76, 0
2, 46142, Note_on_c, 0, 73, 69
2, 46155, Note_on_c, 0, 52, 58
2, 46200, Note_on_c, 0, 52, 0
2, 46227, Note_on_c, 0, 73, 0
2, 46257, Note_on_c, 0, 69, 69
2, 46347, Note_on_c, 0, 69, 0
2, 46368, Note_on_c, 0, 76, 59
2, 46443, Note_on_c, 0, 76, 0
2, 46459, Note_on_c, 0, 73, 66
2, 46475, Note_on_c, 0, 50, 46
2, 46525, Note_on_c, 0, 50, 0
2, 46530, Note_on_c, 0, 73, 0
2, 46568, Note_on_c, 0, 67, 61
2, 46659, Note_on_c, 0, 67, 0
2, 46673, Note_on_c, 0, 76, 54
2, 46767, Note_on_c, 0, 72, 65
2, 46771, Note_on_c, 0, 76, 0
2, 46773, Note_on_c, 0, 54, 49
2, 46816, Note_on_c, 0, 54, 0
2, 46860, Note_on_c, 0, 72, 0
2, 46870, Note_on_c, 0, 69, 63
2, 46959, Note_on_c, 0, 69, 0
2, 46974, Note_on_c, 0, 74, 50
2, 47057, Note_on_c, 0, 74, 0
2, 47062, Note_on_c, 0, 50, 46
2, 47068, Note_on_c, 0, 70, 60
2, 47111, Note_on_c, 0, 50, 0
2, 47127, Note_on_c, 0, 70, 0
2, 47172, Note_on_c, 0, 67, 59
2, 47229, Control_c, 0, 64, 32
2, 47247, Note_on_c, 0, 67, 0
2, 47259, Control_c, 0, 64, 33
2, 47268, Note_on_c, 0, 75, 66
2, 47335, Control_c, 0, 64, 33
2, 47341, Note_on_c, 0, 75, 0
2, 47354, Note_on_c, 0, 69, 62
2, 47385, Note_on_c, 0, 54, 54
2, 47423, Note_on_c, 0, 54, 0
2, 47439, Note_on_c, 0, 69, 0
2, 47472, Note_on_c, 0, 66, 58
2, 47549, Note_on_c, 0, 66, 0
2, 47555, Note_on_c, 0, 74, 55
2, 47649, Note_on_c, 0, 74, 0
2, 47669, Note_on_c, 0, 69, 59
2, 47674, Note_on_c, 0, 50, 46
2, 47753, Note_on_c, 0, 69, 0
2, 47779, Note_on_c, 0, 66, 57
2, 47869, Note_on_c, 0, 66, 0
2, 47876, Note_on_c, 0, 72, 57
2, 47991, Note_on_c, 0, 72, 0
2, 47995, Note_on_c, 0, 67, 54
2, 48000, Note_on_c, 0, 55, 54
2, 48089, Note_on_c, 0, 67, 0
2, 48103, Note_on_c, 0, 62, 56
2, 48203, Note_on_c, 0, 62, 0
2, 48209, Note_on_c, 0, 70, 57
2, 48304, Note_on_c, 0, 70, 0
2, 48307, Note_on_c, 0, 67, 59
2, 48316, Note_on_c, 0, 57, 61
2, 48377, Note_on_c, 0, 55, 0
2, 48399, Note_on_c, 0, 67, 0
2, 48419, Note_on_c, 0, 65, 58
2, 48510, Note_on_c, 0, 65, 0
2, 48518, Note_on_c, 0, 70, 58
2, 48606, Note_on_c, 0, 55, 64
2, 48613, Note_on_c, 0, 70, 0
2, 48617, Note_on_c, 0, 67, 58
2, 48656, Note_on_c, 0, 57, 0
2, 48711, Note_on_c, 0, 67, 0
2, 48741, Note_on_c, 0, 63, 51
2, 48762, Control_c, 0, 64, 34
2, 48794, Control_c, 0, 64, 34
2, 48809, Control_c, 0, 64, 35
2, 48814, Note_on_c, 0, 70, 58
2, 48821, Note_on_c, 0, 63, 0
2, 48823, Control_c, 0, 64, 35
2, 48854, Control_c, 0, 64, 36
2, 48870, Control_c, 0, 64, 36
2, 48912, Note_on_c, 0, 70, 0
2, 48915, Control_c, 0, 64, 37
2, 48921, Note_on_c, 0, 53, 66
2, 48921, Note_on_c, 0, 67, 53
2, 48945, Control_c, 0, 64, 37
2, 48961, Control_c, 0, 64, 38
2, 48962, Note_on_c, 0, 55, 0
2, 48992, Control_c, 0, 64, 38
2, 49007, Control_c, 0, 64, 39
2, 49022, Control_c, 0, 64, 40
2, 49029, Note_on_c, 0, 67, 0
2, 49046, Note_on_c, 0, 62, 49
2, 49052, Control_c, 0, 64, 40
2, 49068, Control_c, 0, 64, 41
2, 49098, Control_c, 0, 64, 41
2, 49102, Note_on_c, 0, 62, 0
2, 49128, Note_on_c, 0, 70, 58
2, 49222, Note_on_c, 0, 70, 0
2, 49240, Note_on_c, 0, 67, 57
2, 49247, Note_on_c, 0, 52, 53
2, 49273, Control_c, 0, 64, 42
2, 49288, Control_c, 0, 64, 45
2, 49290, Note_on_c, 0, 53, 0
2, 49303, Control_c, 0, 64, 49
2, 49318, Control_c, 0, 64, 52
2, 49323, Note_on_c, 0, 67, 0
2, 49333, Control_c, 0, 64, 56
2, 49340, Note_on_c, 0, 61, 49
2, 49349, Control_c, 0, 64, 59
2, 49364, Control_c, 0, 64, 61
2, 49379, Control_c, 0, 64, 62
2, 49394, Control_c, 0, 64, 63
2, 49409, Control_c, 0, 64, 64
2, 49424, Control_c, 0, 64, 64
2, 49459, Note_on_c, 0, 70, 43
2, 49471, Note_on_c, 0, 61, 0
2, 49485, Control_c, 0, 64, 64
2, 49500, Control_c, 0, 64, 63
2, 49515, Control_c, 0, 64, 62
2, 49530, Control_c, 0, 64, 56
2, 49535, Note_on_c, 0, 70, 0
2, 49545, Control_c, 0, 64, 47
2, 49548, Note_on_c, 0, 55, 59
2, 49553, Note_on_c, 0, 64, 54
2, 49563, Control_c, 0, 64, 39
2, 49595, Control_c, 0, 64, 45
2, 49610, Control_c, 0, 64, 55
2, 49620, Note_on_c, 0, 64, 0
2, 49621, Note_on_c, 0, 52, 0
2, 49625, Control_c, 0, 64, 61
2, 49640, Control_c, 0, 64, 65
2, 49651, Note_on_c, 0, 61, 60
2, 49655, Control_c, 0, 64, 67
2, 49671, Control_c, 0, 64, 71
2, 49685, Control_c, 0, 64, 77
2, 49701, Control_c, 0, 64, 84
2, 49715, Note_on_c, 0, 61, 0
2, 49716, Control_c, 0, 64, 91
2, 49731, Control_c, 0, 64, 93
2, 49746, Control_c, 0, 64, 92
2, 49750, Note_on_c, 0, 70, 54
2, 49761, Control_c, 0, 64, 91
2, 49776, Control_c, 0, 64, 90
2, 49792, Control_c, 0, 64, 88
2, 49807, Control_c, 0, 64, 86
2, 49823, Control_c, 0, 64, 82
2, 49838, Control_c, 0, 64, 76
2, 49839, Note_on_c, 0, 70, 0
2, 49852, Control_c, 0, 64, 69
2, 49855, Note_on_c, 0, 64, 60
2, 49864, Note_on_c, 0, 53, 57
2, 49868, Control_c, 0, 64, 63
2, 49883, Control_c, 0, 64, 56
2, 49892, Note_on_c, 0, 55, 0
2, 49898, Control_c, 0, 64, 51
2, 49914, Control_c, 0, 64, 51
2, 49929, Control_c, 0, 64, 55
2, 49945, Control_c, 0, 64, 60
2, 49958, Note_on_c, 0, 64, 0
2, 49959, Control_c, 0, 64, 65
2, 49968, Note_on_c, 0, 61, 59
2, 49974, Control_c, 0, 64, 69
2, 49990, Control_c, 0, 64, 73
2, 50012, Control_c, 0, 64, 78
2, 50028, Control_c, 0, 64, 81
2, 50042, Control_c, 0, 64, 83
2, 50057, Control_c, 0, 64, 84
2, 50064, Note_on_c, 0, 61, 0
2, 50067, Note_on_c, 0, 69, 63
2, 50073, Control_c, 0, 64, 83
2, 50088, Control_c, 0, 64, 83
2, 50104, Control_c, 0, 64, 82
2, 50119, Control_c, 0, 64, 80
2, 50134, Control_c, 0, 64, 78
2, 50150, Control_c, 0, 64, 73
2, 50152, Note_on_c, 0, 53, 0
2, 50160, Note_on_c, 0, 52, 65
2, 50164, Control_c, 0, 64, 66
2, 50172, Note_on_c, 0, 69, 0
2, 50180, Control_c, 0, 64, 58
2, 50190, Note_on_c, 0, 64, 60
2, 50195, Control_c, 0, 64, 53
2, 50210, Control_c, 0, 64, 56
2, 50226, Control_c, 0, 64, 60
2, 50240, Control_c, 0, 64, 64
2, 50255, Control_c, 0, 64, 69
2, 50266, Note_on_c, 0, 64, 0
2, 50271, Control_c, 0, 64, 75
2, 50283, Note_on_c, 0, 61, 59
2, 50285, Control_c, 0, 64, 83
2, 50287, Note_on_c, 0, 50, 0
2, 50301, Control_c, 0, 64, 92
2, 50316, Control_c, 0, 64, 98
2, 50331, Control_c, 0, 64, 103
2, 50347, Control_c, 0, 64, 107
2, 50361, Control_c, 0, 64, 107
2, 50373, Note_on_c, 0, 52, 0
2, 50376, Control_c, 0, 64, 107
2, 50385, Note_on_c, 0, 61, 0
2, 50391, Note_on_c, 0, 67, 58
2, 50392, Control_c, 0, 64, 106
2, 50407, Control_c, 0, 64, 104
2, 50424, Control_c, 0, 64, 102
2, 50439, Control_c, 0, 64, 99
2, 50454, Control_c, 0, 64, 96
2, 50469, Control_c, 0, 64, 92
2, 50484, Control_c, 0, 64, 88
2, 50500, Control_c, 0, 64, 84
2, 50513, Note_on_c, 0, 67, 0
2, 50515, Control_c, 0, 64, 80
2, 50523, Note_on_c, 0, 50, 60
2, 50528, Note_on_c, 0, 62, 60
2, 50530, Control_c, 0, 64, 75
2, 50534, Note_on_c, 0, 44, 60
2, 50546, Control_c, 0, 64, 70
2, 50561, Control_c, 0, 64, 66
2, 50576, Control_c, 0, 64, 62
2, 50591, Control_c, 0, 64, 58
2, 50606, Control_c, 0, 64, 51
2, 50622, Control_c, 0, 64, 40
2, 50631, Note_on_c, 0, 62, 0
2, 50637, Control_c, 0, 64, 30
2, 50652, Control_c, 0, 64, 23
2, 50664, Note_on_c, 0, 59, 53
2, 50668, Control_c, 0, 64, 21
2, 50697, Control_c, 0, 64, 19
2, 50713, Control_c, 0, 64, 0
2, 50751, Note_on_c, 0, 59, 0
2, 50767, Note_on_c, 0, 65, 47
2, 50852, Note_on_c, 0, 52, 70
2, 50858, Note_on_c, 0, 65, 0
2, 50868, Note_on_c, 0, 62, 60
2, 50927, Note_on_c, 0, 50, 0
2, 50947, Note_on_c, 0, 62, 0
2, 50968, Note_on_c, 0, 61, 55
2, 51068, Note_on_c, 0, 61, 0
2, 51087, Note_on_c, 0, 65, 45
2, 51180, Note_on_c, 0, 65, 0
2, 51186, Note_on_c, 0, 53, 68
2, 51200, Note_on_c, 0, 62, 52
2, 51204, Note_on_c, 0, 52, 0
2, 51296, Note_on_c, 0, 62, 0
2, 51331, Note_on_c, 0, 59, 48
2, 51440, Note_on_c, 0, 59, 0
2, 51452, Note_on_c, 0, 65, 35
2, 51518, Note_on_c, 0, 65, 0
2, 51528, Note_on_c, 0, 45, 51
2, 51544, Note_on_c, 0, 62, 52
2, 51578, Note_on_c, 0, 44, 0
2, 51629, Note_on_c, 0, 62, 0
2, 51660, Note_on_c, 0, 57, 44
2, 51769, Note_on_c, 0, 57, 0
2, 51778, Note_on_c, 0, 65, 32
2, 51892, Note_on_c, 0, 52, 49
2, 51897, Note_on_c, 0, 61, 52
2, 51900, Note_on_c, 0, 46, 48
2, 51911, Note_on_c, 0, 65, 0
2, 51920, Note_on_c, 0, 53, 0
2, 51958, Note_on_c, 0, 45, 0
2, 52007, Note_on_c, 0, 61, 0
2, 52030, Note_on_c, 0, 55, 39
2, 52096, Note_on_c, 0, 55, 0
2, 52130, Note_on_c, 0, 64, 51
2, 52225, Note_on_c, 0, 64, 0
2, 52226, Note_on_c, 0, 55, 63
2, 52238, Note_on_c, 0, 61, 54
2, 52311, Note_on_c, 0, 52, 0
2, 52335, Note_on_c, 0, 61, 0
2, 52348, Note_on_c, 0, 58, 51
2, 52430, Note_on_c, 0, 58, 0
2, 52442, Note_on_c, 0, 64, 49
2, 52526, Note_on_c, 0, 64, 0
2, 52534, Note_on_c, 0, 53, 66
2, 52534, Note_on_c, 0, 61, 59
2, 52589, Note_on_c, 0, 55, 0
2, 52614, Note_on_c, 0, 61, 0
2, 52642, Note_on_c, 0, 57, 56
2, 52729, Note_on_c, 0, 57, 0
2, 52741, Note_on_c, 0, 64, 56
2, 52836, Note_on_c, 0, 64, 0
2, 52838, Note_on_c, 0, 52, 70
2, 52842, Note_on_c, 0, 61, 62
2, 52852, Note_on_c, 0, 53, 0
2, 52928, Note_on_c, 0, 61, 0
2, 52953, Note_on_c, 0, 55, 52
2, 53038, Note_on_c, 0, 55, 0
2, 53060, Note_on_c, 0, 64, 46
2, 53084, Note_on_c, 0, 46, 0
2, 53131, Note_on_c, 0, 64, 0
2, 53152, Note_on_c, 0, 47, 55
2, 53155, Note_on_c, 0, 53, 70
2, 53164, Note_on_c, 0, 59, 57
2, 53186, Note_on_c, 0, 52, 0
2, 53267, Note_on_c, 0, 59, 0
2, 53279, Note_on_c, 0, 56, 62
2, 53390, Note_on_c, 0, 56, 0
2, 53390, Note_on_c, 0, 62, 53
2, 53486, Note_on_c, 0, 62, 0
2, 53488, Note_on_c, 0, 52, 61
2, 53493, Note_on_c, 0, 61, 57
2, 53513, Note_on_c, 0, 53, 0
2, 53594, Note_on_c, 0, 56, 53
2, 53595, Note_on_c, 0, 61, 0
2, 53681, Note_on_c, 0, 56, 0
2, 53702, Note_on_c, 0, 64, 43
2, 53797, Note_on_c, 0, 53, 48
2, 53799, Note_on_c, 0, 62, 61
2, 53800, Note_on_c, 0, 52, 0
2, 53825, Note_on_c, 0, 64, 0
2, 53900, Note_on_c, 0, 62, 0
2, 53914, Note_on_c, 0, 56, 51
2, 54011, Note_on_c, 0, 65, 45
2, 54013, Note_on_c, 0, 56, 0
2, 54080, Note_on_c, 0, 47, 0
2, 54103, Note_on_c, 0, 46, 44
2, 54109, Note_on_c, 0, 65, 0
2, 54116, Note_on_c, 0, 55, 55
2, 54137, Note_on_c, 0, 53, 0
2, 54210, Note_on_c, 0, 52, 60
2, 54256, Note_on_c, 0, 46, 0
2, 54269, Note_on_c, 0, 55, 0
2, 54279, Note_on_c, 0, 52, 0
2, 54300, Note_on_c, 0, 50, 67
2, 54335, Note_on_c, 0, 50, 0
2, 54404, Note_on_c, 0, 49, 58
2, 54407, Note_on_c, 0, 45, 58
2, 54507, Note_on_c, 0, 52, 57
2, 54523, Note_on_c, 0, 49, 0
2, 54582, Note_on_c, 0, 52, 0
2, 54588, Note_on_c, 0, 55, 63
2, 54680, Note_on_c, 0, 55, 0
2, 54709, Note_on_c, 0, 61, 61
2, 54717, Note_on_c, 0, 52, 66
2, 54775, Note_on_c, 0, 61, 0
2, 54804, Note_on_c, 0, 55, 72
2, 54829, Note_on_c, 0, 52, 0
2, 54889, Note_on_c, 0, 55, 0
2, 54911, Note_on_c, 0, 61, 68
2, 55001, Note_on_c, 0, 61, 0
2, 55003, Note_on_c, 0, 55, 70
2, 55011, Note_on_c, 0, 64, 77
2, 55085, Note_on_c, 0, 64, 0
2, 55097, Note_on_c, 0, 61, 77
2, 55128, Note_on_c, 0, 55, 0
2, 55180, Note_on_c, 0, 61, 0
2, 55189, Note_on_c, 0, 64, 77
2, 55234, Note_on_c, 0, 64, 0
2, 55293, Note_on_c, 0, 67, 74
2, 55297, Note_on_c, 0, 58, 65
2, 55397, Note_on_c, 0, 49, 59
2, 55406, Note_on_c, 0, 45, 0
2, 55416, Note_on_c, 0, 58, 0
2, 55494, Note_on_c, 0, 52, 70
2, 55496, Note_on_c, 0, 49, 0
2, 55562, Note_on_c, 0, 67, 0
2, 55573, Note_on_c, 0, 52, 0
2, 55601, Note_on_c, 0, 57, 68
2, 55602, Note_on_c, 0, 65, 78
2, 55675, Note_on_c, 0, 65, 0
2, 55698, Note_on_c, 0, 62, 75
2, 55763, Note_on_c, 0, 62, 0
2, 55788, Note_on_c, 0, 65, 84
2, 55844, Note_on_c, 0, 65, 0
2, 55880, Note_on_c, 0, 62, 75
2, 55886, Note_on_c, 0, 69, 86
2, 55953, Note_on_c, 0, 69, 0
2, 55977, Note_on_c, 0, 65, 88
2, 55997, Note_on_c, 0, 62, 0
2, 56039, Note_on_c, 0, 65, 0
2, 56074, Note_on_c, 0, 69, 89
2, 56167, Note_on_c, 0, 69, 0
2, 56176, Note_on_c, 0, 65, 84
2, 56180, Note_on_c, 0, 74, 86
2, 56243, Note_on_c, 0, 74, 0
2, 56262, Control_c, 0, 64, 12
2, 56278, Control_c, 0, 64, 13
2, 56279, Note_on_c, 0, 69, 85
2, 56292, Control_c, 0, 64, 15
2, 56323, Control_c, 0, 64, 16
2, 56337, Note_on_c, 0, 69, 0
2, 56338, Control_c, 0, 64, 17
2, 56343, Note_on_c, 0, 65, 0
2, 56354, Control_c, 0, 64, 18
2, 56368, Control_c, 0, 64, 20
2, 56375, Note_on_c, 0, 74, 87
2, 56383, Control_c, 0, 64, 21
2, 56414, Control_c, 0, 64, 21
2, 56434, Note_on_c, 0, 74, 0
2, 56459, Control_c, 0, 64, 22
2, 56475, Control_c, 0, 64, 23
2, 56479, Note_on_c, 0, 77, 97
2, 56485, Note_on_c, 0, 69, 84
2, 56489, Control_c, 0, 64, 24
2, 56504, Control_c, 0, 64, 26
2, 56520, Control_c, 0, 64, 27
2, 56535, Control_c, 0, 64, 28
2, 56551, Control_c, 0, 64, 31
2, 56565, Control_c, 0, 64, 34
2, 56580, Control_c, 0, 64, 38
2, 56589, Note_on_c, 0, 62, 85
2, 56596, Control_c, 0, 64, 40
2, 56610, Note_on_c, 0, 57, 0
2, 56611, Control_c, 0, 64, 41
2, 56627, Control_c, 0, 64, 42
2, 56641, Control_c, 0, 64, 43
2, 56662, Note_on_c, 0, 69, 0
2, 56672, Control_c, 0, 64, 43
2, 56687, Control_c, 0, 64, 44
2, 56690, Note_on_c, 0, 65, 89
2, 56702, Note_on_c, 0, 62, 0
2, 56763, Control_c, 0, 64, 44
2, 56805, Note_on_c, 0, 65, 0
2, 56816, Note_on_c, 0, 68, 94
2, 56922, Note_on_c, 0, 77, 0
2, 56940, Note_on_c, 0, 71, 85
2, 56984, Control_c, 0, 64, 46
2, 56999, Control_c, 0, 64, 47
2, 57014, Control_c, 0, 64, 48
2, 57022, Note_on_c, 0, 71, 0
2, 57038, Note_on_c, 0, 74, 86
2, 57090, Control_c, 0, 64, 48
2, 57105, Control_c, 0, 64, 47
2, 57128, Note_on_c, 0, 77, 92
2, 57139, Note_on_c, 0, 74, 0
2, 57159, Note_on_c, 0, 68, 0
2, 57167, Control_c, 0, 64, 47
2, 57209, Note_on_c, 0, 77, 0
2, 57220, Note_on_c, 0, 74, 92
2, 57228, Control_c, 0, 64, 46
2, 57320, Note_on_c, 0, 77, 96
2, 57333, Control_c, 0, 64, 46
2, 57335, Note_on_c, 0, 74, 0
2, 57364, Control_c, 0, 64, 45
2, 57411, Note_on_c, 0, 80, 93
2, 57424, Control_c, 0, 64, 45
2, 57430, Note_on_c, 0, 77, 0
2, 57502, Note_on_c, 0, 80, 0
2, 57507, Note_on_c, 0, 77, 107
2, 57516, Control_c, 0, 64, 45
2, 57530, Control_c, 0, 64, 46
2, 57545, Control_c, 0, 64, 47
2, 57576, Control_c, 0, 64, 47
2, 57604, Note_on_c, 0, 80, 92
2, 57619, Note_on_c, 0, 77, 0
2, 57669, Note_on_c, 0, 80, 0
2, 57705, Control_c, 0, 64, 46
2, 57721, Control_c, 0, 64, 45
2, 57735, Control_c, 0, 64, 44
2, 57738, Note_on_c, 0, 83, 98
2, 57751, Control_c, 0, 64, 44
2, 57781, Control_c, 0, 64, 43
2, 57798, Control_c, 0, 64, 43
2, 57856, Note_on_c, 0, 80, 79
2, 57864, Note_on_c, 0, 83, 0
2, 57923, Note_on_c, 0, 80, 0
2, 57940, Note_on_c, 0, 77, 89
2, 58041, Note_on_c, 0, 77, 0
2, 58045, Note_on_c, 0, 82, 92
2, 58159, Note_on_c, 0, 79, 76
2, 58168, Note_on_c, 0, 82, 0
2, 58224, Note_on_c, 0, 79, 0
2, 58248, Note_on_c, 0, 76, 82
2, 58312, Note_on_c, 0, 76, 0
2, 58356, Note_on_c, 0, 81, 88
2, 58420, Control_c, 0, 64, 42
2, 58470, Note_on_c, 0, 78, 81
2, 58471, Note_on_c, 0, 81, 0
2, 58560, Note_on_c, 0, 75, 82
2, 58564, Note_on_c, 0, 78, 0
2, 58595, Control_c, 0, 64, 42
2, 58611, Control_c, 0, 64, 41
2, 58640, Note_on_c, 0, 75, 0
2, 58643, Control_c, 0, 64, 41
2, 58658, Control_c, 0, 64, 40
2, 58662, Note_on_c, 0, 80, 85
2, 58674, Control_c, 0, 64, 40
2, 58688, Control_c, 0, 64, 39
2, 58703, Control_c, 0, 64, 38
2, 58719, Control_c, 0, 64, 38
2, 58733, Control_c, 0, 64, 37
2, 58749, Control_c, 0, 64, 37
2, 58772, Note_on_c, 0, 77, 74
2, 58779, Control_c, 0, 64, 36
2, 58781, Note_on_c, 0, 80, 0
2, 58845, Note_on_c, 0, 77, 0
2, 58872, Note_on_c, 0, 74, 71
2, 58952, Note_on_c, 0, 74, 0
2, 58970, Note_on_c, 0, 79, 78
2, 59069, Note_on_c, 0, 76, 75
2, 59071, Note_on_c, 0, 79, 0
2, 59158, Note_on_c, 0, 73, 84
2, 59159, Note_on_c, 0, 76, 0
2, 59260, Note_on_c, 0, 73, 0
2, 59270, Note_on_c, 0, 78, 89
2, 59372, Note_on_c, 0, 75, 83
2, 59397, Note_on_c, 0, 78, 0
2, 59410, Control_c, 0, 64, 37
2, 59470, Note_on_c, 0, 72, 84
2, 59473, Note_on_c, 0, 75, 0
2, 59533, Note_on_c, 0, 72, 0
2, 59566, Note_on_c, 0, 77, 92
2, 59671, Note_on_c, 0, 74, 82
2, 59680, Note_on_c, 0, 77, 0
2, 59741, Note_on_c, 0, 74, 0
2, 59766, Note_on_c, 0, 71, 86
2, 59823, Note_on_c, 0, 71, 0
2, 59867, Note_on_c, 0, 76, 94
2, 59958, Control_c, 0, 64, 36
2, 59964, Note_on_c, 0, 73, 85
2, 59972, Note_on_c, 0, 76, 0
2, 60067, Note_on_c, 0, 70, 91
2, 60086, Note_on_c, 0, 73, 0
2, 60154, Note_on_c, 0, 70, 0
2, 60166, Note_on_c, 0, 75, 98
2, 60206, Control_c, 0, 64, 37
2, 60273, Note_on_c, 0, 72, 94
2, 60290, Note_on_c, 0, 75, 0
2, 60298, Control_c, 0, 64, 36
2, 60362, Note_on_c, 0, 72, 0
2, 60376, Note_on_c, 0, 69, 93
2, 60455, Note_on_c, 0, 69, 0
2, 60512, Note_on_c, 0, 74, 97
2, 60558, Control_c, 0, 64, 35
2, 60572, Control_c, 0, 64, 35
2, 60618, Control_c, 0, 64, 34
2, 60724, Control_c, 0, 64, 33
2, 60739, Control_c, 0, 64, 31
2, 60762, Control_c, 0, 64, 29
2, 60777, Control_c, 0, 64, 25
2, 60793, Control_c, 0, 64, 19
2, 60808, Control_c, 0, 64, 0
2, 61184, Note_on_c, 0, 71, 83
2, 61196, Note_on_c, 0, 62, 65
2, 61196, Note_on_c, 0, 68, 71
2, 61197, Note_on_c, 0, 65, 65
2, 61200, Note_on_c, 0, 50, 60
2, 61203, Note_on_c, 0, 47, 49
2, 61206, Note_on_c, 0, 53, 59
2, 61208, Note_on_c, 0, 56, 60
2, 61264, Control_c, 0, 64, 44
2, 61279, Control_c, 0, 64, 60
2, 61294, Control_c, 0, 64, 65
2, 61310, Control_c, 0, 64, 69
2, 61325, Control_c, 0, 64, 75
2, 61340, Control_c, 0, 64, 84
2, 61356, Control_c, 0, 64, 101
2, 61370, Control_c, 0, 64, 127
2, 61380, Note_on_c, 0, 56, 0
2, 61404, Note_on_c, 0, 47, 0
2, 61413, Note_on_c, 0, 62, 0
2, 61444, Note_on_c, 0, 53, 0
2, 61493, Note_on_c, 0, 50, 0
2, 61518, Note_on_c, 0, 71, 0
2, 61554, Note_on_c, 0, 68, 0
2, 61647, Note_on_c, 0, 65, 0
2, 61899, Note_on_c, 0, 65, 64
2, 61899, Note_on_c, 0, 69, 78
2, 61905, Note_on_c, 0, 45, 58
2, 61909, Note_on_c, 0, 50, 57
2, 61913, Note_on_c, 0, 62, 59
2, 61914, Note_on_c, 0, 57, 53
2, 61916, Note_on_c, 0, 53, 52
2, 61926, Control_c, 0, 64, 85
2, 61941, Control_c, 0, 64, 62
2, 61957, Control_c, 0, 64, 0
2, 62078, Control_c, 0, 64, 42
2, 62093, Control_c, 0, 64, 53
2, 62109, Control_c, 0, 64, 57
2, 62123, Control_c, 0, 64, 60
2, 62138, Control_c, 0, 64, 63
2, 62154, Control_c, 0, 64, 65
2, 62163, Note_on_c, 0, 53, 0
2, 62169, Control_c, 0, 64, 69
2, 62184, Control_c, 0, 64, 75
2, 62199, Control_c, 0, 64, 85
2, 62214, Control_c, 0, 64, 100
2, 62230, Control_c, 0, 64, 127
2, 62277, Note_on_c, 0, 65, 0
2, 62302, Note_on_c, 0, 50, 0
2, 62364, Note_on_c, 0, 62, 0
2, 62700, Note_on_c, 0, 73, 86
2, 62710, Control_c, 0, 64, 94
2, 62710, Note_on_c, 0, 67, 61
2, 62713, Note_on_c, 0, 64, 61
2, 62715, Note_on_c, 0, 52, 56
2, 62719, Note_on_c, 0, 74, 0
2, 62725, Control_c, 0, 64, 66
2, 62740, Control_c, 0, 64, 0
2, 62891, Control_c, 0, 64, 35
2, 62907, Control_c, 0, 64, 55
2, 62922, Control_c, 0, 64, 62
2, 62937, Control_c, 0, 64, 65
2, 62953, Control_c, 0, 64, 69
2, 62967, Control_c, 0, 64, 76
2, 62982, Control_c, 0, 64, 85
2, 62990, Note_on_c, 0, 57, 0
2, 62998, Control_c, 0, 64, 105
2, 63013, Control_c, 0, 64, 127
2, 63043, Note_on_c, 0, 45, 0
2, 63061, Note_on_c, 0, 52, 0
2, 63153, Note_on_c, 0, 64, 0
2, 63210, Note_on_c, 0, 67, 0
2, 63279, Note_on_c, 0, 69, 0
2, 63352, Note_on_c, 0, 73, 0
2, 63806, Note_on_c, 0, 74, 81
2, 63813, Note_on_c, 0, 66, 62
2, 63813, Note_on_c, 0, 69, 63
2, 63816, Note_on_c, 0, 62, 64
2, 63818, Note_on_c, 0, 38, 58
2, 63818, Note_on_c, 0, 50, 56
2, 63850, Control_c, 0, 64, 83
2, 63865, Control_c, 0, 64, 63
2, 63880, Control_c, 0, 64, 39
2, 63895, Control_c, 0, 64, 0
2, 64062, Control_c, 0, 64, 17
2, 64078, Control_c, 0, 64, 40
2, 64092, Control_c, 0, 64, 49
2, 64108, Control_c, 0, 64, 54
2, 64123, Control_c, 0, 64, 59
2, 64137, Control_c, 0, 64, 62
2, 64153, Control_c, 0, 64, 64
2, 64168, Control_c, 0, 64, 68
2, 64183, Control_c, 0, 64, 74
2, 64199, Control_c, 0, 64, 86
2, 64214, Control_c, 0, 64, 104
2, 64230, Control_c, 0, 64, 127
2, 64446, Note_on_c, 0, 74, 0
2, 64482, Note_on_c, 0, 38, 0
2, 64492, Note_on_c, 0, 50, 0
2, 64697, Note_on_c, 0, 69, 0
2, 64752, Note_on_c, 0, 62, 0
2, 64852, Note_on_c, 0, 66, 0
2, 65780, Control_c, 0, 64, 116
2, 65796, Control_c, 0, 64, 113
2, 65811, Control_c, 0, 64, 111
2, 65825, Control_c, 0, 64, 109
2, 65841, Control_c, 0, 64, 106
2, 65856, Control_c, 0, 64, 101
2, 65872, Control_c, 0, 64, 98
2, 65887, Control_c, 0, 64, 97
2, 65901, Control_c, 0, 64, 97
2, 65932, Control_c, 0, 64, 95
2, 65948, Control_c, 0, 64, 92
2, 65963, Control_c, 0, 64, 89
2, 65978, Control_c, 0, 64, 88
2, 66009, Control_c, 0, 64, 87
2, 66024, Control_c, 0, 64, 87
2, 66040, Control_c, 0, 64, 84
2, 66054, Control_c, 0, 64, 80
2, 66070, Control_c, 0, 64, 77
2, 66085, Control_c, 0, 64, 76
2, 66100, Control_c, 0, 64, 76
2, 66116, Control_c, 0, 64, 75
2, 66138, Control_c, 0, 64, 75
2, 66154, Control_c, 0, 64, 74
2, 66169, Control_c, 0, 64, 73
2, 66183, Control_c, 0, 64, 72
2, 66199, Control_c, 0, 64, 71
2, 66214, Control_c, 0, 64, 70
2, 66230, Control_c, 0, 64, 68
2, 66245, Control_c, 0, 64, 67
2, 66259, Control_c, 0, 64, 66
2, 66275, Control_c, 0, 64, 65
2, 66290, Control_c, 0, 64, 65
2, 66305, Control_c, 0, 64, 64
2, 66366, Control_c, 0, 64, 64
2, 66397, Control_c, 0, 64, 63
2, 66412, Control_c, 0, 64, 63
2, 66534, Control_c, 0, 64, 62
2, 66853, Control_c, 0, 64, 63
2, 67438, Control_c, 0, 64, 63
2, 67887, Control_c, 0, 64, 63
2, 68403, Control_c, 0, 64, 62
2, 68959, Control_c, 0, 64, 62
2, 69188, Control_c, 0, 64, 61
2, 69515, Control_c, 0, 64, 62
2, 70080,End_track
0, 0, End_of_file
