0, 0, Header, 1, 2, 384
1, 0, Start_track
1, 0, Tempo, 500000
1, 0, Time_signature, 4, 2, 24, 8
1, 1, End_track
2,0,Start_track
2,0, Note_on_c, 0, 62, 38
2,60, Control_c, 0, 64, 35
2,91, Control_c, 0, 64, 35
2,137, Control_c, 0, 64, 36
2,151, Control_c, 0, 64, 36
2,160, Note_on_c, 0, 64, 51
2,182, Control_c, 0, 64, 37
2,197, Control_c, 0, 64, 37
2,228, Control_c, 0, 64, 38
2,232, Note_on_c, 0, 62, 0
2,288, Note_on_c, 0, 65, 52
2,311, Note_on_c, 0, 64, 0
2,415, Note_on_c, 0, 65, 0
2,421, Note_on_c, 0, 67, 52
2,439, Control_c, 0, 64, 37
2,455, Control_c, 0, 64, 37
2,484, Control_c, 0, 64, 36
2,539, Control_c, 0, 64, 36
2,554, Control_c, 0, 64, 35
2,561, Note_on_c, 0, 65, 54
2,577, Note_on_c, 0, 67, 0
2,695, Note_on_c, 0, 64, 66
2,708, Note_on_c, 0, 65, 0
2,821, Note_on_c, 0, 64, 0
2,827, Note_on_c, 0, 65, 68
2,946, Note_on_c, 0, 67, 70
2,973, Note_on_c, 0, 65, 0
2,1070, Note_on_c, 0, 69, 74
2,1079, Note_on_c, 0, 67, 0
2,1196, Note_on_c, 0, 70, 75
2,1208, Note_on_c, 0, 69, 0
2,1326, Note_on_c, 0, 69, 78
2,1352, Control_c, 0, 64, 35
2,1356, Note_on_c, 0, 70, 0
2,1368, Control_c, 0, 64, 34
2,1413, Control_c, 0, 64, 34
2,1463, Note_on_c, 0, 67, 75
2,1483, Note_on_c, 0, 69, 0
2,1535, Control_c, 0, 64, 33
2,1653, Note_on_c, 0, 69, 80
2,1668, Note_on_c, 0, 67, 0
2,2090, Control_c, 0, 64, 34
2,2124, Note_on_c, 0, 74, 73
2,2169, Note_on_c, 0, 69, 0
2,2470, Control_c, 0, 64, 34
2,2581, Note_on_c, 0, 73, 72
2,2622, Control_c, 0, 64, 35
2,2637, Control_c, 0, 64, 35
2,2660, Note_on_c, 0, 74, 0
2,3033, Note_on_c, 0, 72, 60
2,3074, Note_on_c, 0, 73, 0
2,3131, Control_c, 0, 64, 36
2,3268, Control_c, 0, 64, 36
2,3420, Control_c, 0, 64, 37
2,3475, Note_on_c, 0, 71, 55
2,3519, Note_on_c, 0, 72, 0
2,3686, Control_c, 0, 64, 37
2,3940, Note_on_c, 0, 70, 65
2,4015, Note_on_c, 0, 71, 0
2,4414, Note_on_c, 0, 69, 73
2,4472, Note_on_c, 0, 70, 0
2,4954, Note_on_c, 0, 67, 63
2,4993, Note_on_c, 0, 69, 0
2,5192, Control_c, 0, 64, 37
2,5208, Control_c, 0, 64, 34
2,5222, Control_c, 0, 64, 33
2,5236, Control_c, 0, 64, 32
2,5252, Control_c, 0, 64, 31
2,5267, Control_c, 0, 64, 30
2,5281, Control_c, 0, 64, 27
2,5297, Control_c, 0, 64, 25
2,5312, Control_c, 0, 64, 23
2,5328, Control_c, 0, 64, 21
2,5343, Control_c, 0, 64, 18
2,5358, Control_c, 0, 64, 12
2,5374, Control_c, 0, 64, 0
2,5902, Note_on_c, 0, 65, 51
2,5962, Note_on_c, 0, 67, 0
2,6353, Note_on_c, 0, 64, 45
2,6374, Note_on_c, 0, 65, 0
2,6857, Note_on_c, 0, 69, 48
2,6867, Note_on_c, 0, 64, 0
2,6925, Control_c, 0, 64, 16
2,6941, Control_c, 0, 64, 41
2,6956, Control_c, 0, 64, 50
2,6971, Control_c, 0, 64, 54
2,6986, Control_c, 0, 64, 57
2,7001, Control_c, 0, 64, 61
2,7017, Control_c, 0, 64, 64
2,7032, Control_c, 0, 64, 69
2,7047, Control_c, 0, 64, 76
2,7062, Control_c, 0, 64, 85
2,7077, Control_c, 0, 64, 96
2,7092, Control_c, 0, 64, 107
2,7107, Control_c, 0, 64, 127
2,7169, Note_on_c, 0, 69, 0
2,7336, Note_on_c, 0, 69, 45
2,7343, Note_on_c, 0, 65, 41
2,7367, Control_c, 0, 64, 115
2,7382, Control_c, 0, 64, 106
2,7397, Control_c, 0, 64, 95
2,7413, Control_c, 0, 64, 85
2,7435, Control_c, 0, 64, 78
2,7451, Control_c, 0, 64, 74
2,7466, Control_c, 0, 64, 71
2,7480, Control_c, 0, 64, 70
2,7496, Control_c, 0, 64, 68
2,7507, Note_on_c, 0, 71, 55
2,7511, Control_c, 0, 64, 66
2,7525, Control_c, 0, 64, 64
2,7541, Control_c, 0, 64, 62
2,7556, Control_c, 0, 64, 60
2,7572, Control_c, 0, 64, 59
2,7572, Note_on_c, 0, 69, 0
2,7587, Control_c, 0, 64, 57
2,7602, Control_c, 0, 64, 57
2,7618, Control_c, 0, 64, 56
2,7633, Control_c, 0, 64, 55
2,7647, Note_on_c, 0, 72, 56
2,7649, Control_c, 0, 64, 54
2,7654, Note_on_c, 0, 71, 0
2,7663, Control_c, 0, 64, 53
2,7678, Control_c, 0, 64, 53
2,7694, Control_c, 0, 64, 52
2,7709, Control_c, 0, 64, 52
2,7768, Note_on_c, 0, 72, 0
2,7770, Control_c, 0, 64, 51
2,7779, Note_on_c, 0, 62, 46
2,7786, Note_on_c, 0, 74, 57
2,7843, Note_on_c, 0, 65, 0
2,7921, Control_c, 0, 64, 51
2,7923, Note_on_c, 0, 72, 63
2,7927, Note_on_c, 0, 74, 0
2,8056, Note_on_c, 0, 71, 67
2,8058, Note_on_c, 0, 72, 0
2,8174, Note_on_c, 0, 62, 0
2,8196, Note_on_c, 0, 71, 0
2,8202, Note_on_c, 0, 69, 54
2,8211, Note_on_c, 0, 72, 63
2,8343, Note_on_c, 0, 74, 72
2,8356, Note_on_c, 0, 72, 0
2,8476, Control_c, 0, 64, 50
2,8476, Note_on_c, 0, 76, 75
2,8492, Note_on_c, 0, 74, 0
2,8507, Control_c, 0, 64, 50
2,8522, Control_c, 0, 64, 49
2,8538, Control_c, 0, 64, 49
2,8553, Control_c, 0, 64, 48
2,8569, Control_c, 0, 64, 47
2,8583, Control_c, 0, 64, 47
2,8590, Note_on_c, 0, 69, 0
2,8598, Control_c, 0, 64, 46
2,8600, Note_on_c, 0, 77, 77
2,8609, Note_on_c, 0, 76, 0
2,8614, Control_c, 0, 64, 44
2,8629, Control_c, 0, 64, 43
2,8644, Control_c, 0, 64, 40
2,8659, Control_c, 0, 64, 37
2,8674, Control_c, 0, 64, 32
2,8690, Control_c, 0, 64, 25
2,8705, Control_c, 0, 64, 16
2,8720, Control_c, 0, 64, 0
2,8730, Note_on_c, 0, 76, 75
2,8780, Note_on_c, 0, 77, 0
2,8864, Note_on_c, 0, 74, 78
2,8887, Note_on_c, 0, 76, 0
2,9042, Note_on_c, 0, 76, 80
2,9062, Note_on_c, 0, 74, 0
2,9237, Note_on_c, 0, 59, 63
2,9305, Control_c, 0, 64, 11
2,9320, Control_c, 0, 64, 13
2,9336, Control_c, 0, 64, 15
2,9351, Control_c, 0, 64, 17
2,9367, Control_c, 0, 64, 19
2,9382, Control_c, 0, 64, 20
2,9397, Control_c, 0, 64, 21
2,9413, Control_c, 0, 64, 21
2,9427, Control_c, 0, 64, 22
2,9458, Control_c, 0, 64, 23
2,9466, Note_on_c, 0, 81, 76
2,9472, Note_on_c, 0, 60, 62
2,9482, Note_on_c, 0, 76, 0
2,9514, Note_on_c, 0, 59, 0
2,9518, Control_c, 0, 64, 23
2,9579, Control_c, 0, 64, 24
2,9610, Control_c, 0, 64, 24
2,9624, Control_c, 0, 64, 25
2,9639, Control_c, 0, 64, 25
2,9658, Note_on_c, 0, 62, 61
2,9670, Control_c, 0, 64, 26
2,9685, Control_c, 0, 64, 26
2,9685, Note_on_c, 0, 60, 0
2,9700, Control_c, 0, 64, 27
2,9715, Control_c, 0, 64, 28
2,9740, Control_c, 0, 64, 29
2,9754, Control_c, 0, 64, 30
2,9770, Control_c, 0, 64, 30
2,9800, Control_c, 0, 64, 31
2,9847, Control_c, 0, 64, 31
2,9868, Note_on_c, 0, 62, 0
2,9874, Note_on_c, 0, 64, 55
2,9883, Note_on_c, 0, 80, 74
2,9939, Note_on_c, 0, 81, 0
2,9983, Control_c, 0, 64, 32
2,10013, Control_c, 0, 64, 33
2,10043, Control_c, 0, 64, 33
2,10083, Note_on_c, 0, 66, 50
2,10101, Note_on_c, 0, 64, 0
2,10119, Control_c, 0, 64, 34
2,10256, Control_c, 0, 64, 34
2,10299, Note_on_c, 0, 79, 59
2,10300, Note_on_c, 0, 67, 48
2,10324, Note_on_c, 0, 66, 0
2,10352, Note_on_c, 0, 80, 0
2,10362, Control_c, 0, 64, 35
2,10423, Control_c, 0, 64, 35
2,10504, Note_on_c, 0, 67, 0
2,10511, Note_on_c, 0, 64, 55
2,10721, Note_on_c, 0, 64, 0
2,10721, Note_on_c, 0, 69, 56
2,10722, Note_on_c, 0, 78, 72
2,10760, Note_on_c, 0, 79, 0
2,10916, Note_on_c, 0, 68, 70
2,10958, Note_on_c, 0, 69, 0
2,11130, Note_on_c, 0, 77, 80
2,11142, Note_on_c, 0, 69, 63
2,11147, Note_on_c, 0, 68, 0
2,11165, Note_on_c, 0, 78, 0
2,11349, Note_on_c, 0, 71, 74
2,11378, Note_on_c, 0, 69, 0
2,11561, Note_on_c, 0, 71, 0
2,11567, Note_on_c, 0, 76, 82
2,11571, Note_on_c, 0, 72, 70
2,11592, Note_on_c, 0, 77, 0
2,11797, Note_on_c, 0, 66, 71
2,11834, Note_on_c, 0, 72, 0
2,12069, Note_on_c, 0, 71, 63
2,12088, Note_on_c, 0, 74, 76
2,12112, Note_on_c, 0, 66, 0
2,12113, Note_on_c, 0, 76, 0
2,12322, Note_on_c, 0, 69, 69
2,12375, Note_on_c, 0, 71, 0
2,12531, Note_on_c, 0, 68, 66
2,12549, Note_on_c, 0, 69, 0
2,12742, Note_on_c, 0, 64, 58
2,12776, Note_on_c, 0, 68, 0
2,12989, Note_on_c, 0, 69, 54
2,12993, Note_on_c, 0, 72, 67
2,13005, Note_on_c, 0, 74, 0
2,13044, Note_on_c, 0, 64, 0
2,13432, Note_on_c, 0, 71, 61
2,13455, Note_on_c, 0, 72, 0
2,13887, Note_on_c, 0, 67, 44
2,13891, Note_on_c, 0, 76, 59
2,13901, Note_on_c, 0, 69, 0
2,13924, Note_on_c, 0, 71, 0
2,14306, Note_on_c, 0, 69, 55
2,14470, Note_on_c, 0, 65, 50
2,14524, Note_on_c, 0, 67, 0
2,14589, Note_on_c, 0, 64, 54
2,14600, Note_on_c, 0, 65, 0
2,14732, Note_on_c, 0, 64, 0
2,14742, Note_on_c, 0, 62, 53
2,14744, Note_on_c, 0, 76, 0
2,14755, Note_on_c, 0, 71, 63
2,14763, Note_on_c, 0, 69, 0
2,14880, Note_on_c, 0, 64, 57
2,14882, Note_on_c, 0, 62, 0
2,15012, Note_on_c, 0, 64, 0
2,15014, Note_on_c, 0, 65, 68
2,15167, Note_on_c, 0, 72, 74
2,15169, Note_on_c, 0, 65, 0
2,15171, Note_on_c, 0, 64, 58
2,15185, Note_on_c, 0, 71, 0
2,15319, Note_on_c, 0, 62, 68
2,15329, Note_on_c, 0, 64, 0
2,15443, Note_on_c, 0, 60, 72
2,15457, Note_on_c, 0, 62, 0
2,15584, Note_on_c, 0, 68, 80
2,15590, Note_on_c, 0, 72, 0
2,15595, Note_on_c, 0, 59, 65
2,15597, Note_on_c, 0, 60, 0
2,15722, Note_on_c, 0, 60, 70
2,15725, Note_on_c, 0, 59, 0
2,15799, Control_c, 0, 64, 36
2,15815, Control_c, 0, 64, 36
2,15882, Control_c, 0, 64, 37
2,15884, Note_on_c, 0, 60, 0
2,15884, Note_on_c, 0, 62, 70
2,15912, Control_c, 0, 64, 37
2,15928, Control_c, 0, 64, 38
2,15988, Control_c, 0, 64, 38
2,16019, Control_c, 0, 64, 39
2,16025, Note_on_c, 0, 69, 77
2,16032, Note_on_c, 0, 60, 68
2,16040, Note_on_c, 0, 62, 0
2,16043, Note_on_c, 0, 68, 0
2,16095, Control_c, 0, 64, 39
2,16169, Note_on_c, 0, 67, 75
2,16199, Note_on_c, 0, 69, 0
2,16301, Note_on_c, 0, 67, 0
2,16304, Note_on_c, 0, 65, 74
2,16440, Note_on_c, 0, 61, 59
2,16444, Note_on_c, 0, 64, 69
2,16453, Note_on_c, 0, 60, 0
2,16456, Note_on_c, 0, 65, 0
2,16570, Note_on_c, 0, 64, 0
2,16584, Note_on_c, 0, 65, 65
2,16679, Control_c, 0, 64, 39
2,16696, Note_on_c, 0, 65, 0
2,16714, Note_on_c, 0, 67, 64
2,16787, Control_c, 0, 64, 38
2,16855, Note_on_c, 0, 61, 0
2,16863, Note_on_c, 0, 65, 55
2,16869, Note_on_c, 0, 62, 48
2,16877, Note_on_c, 0, 67, 0
2,17008, Note_on_c, 0, 64, 60
2,17028, Note_on_c, 0, 65, 0
2,17065, Note_on_c, 0, 62, 0
2,17125, Note_on_c, 0, 64, 0
2,17143, Note_on_c, 0, 62, 50
2,17230, Control_c, 0, 64, 38
2,17246, Control_c, 0, 64, 37
2,17260, Control_c, 0, 64, 36
2,17290, Note_on_c, 0, 62, 0
2,17296, Note_on_c, 0, 61, 57
2,17303, Note_on_c, 0, 55, 47
2,17321, Control_c, 0, 64, 37
2,17336, Control_c, 0, 64, 38
2,17351, Control_c, 0, 64, 38
2,17382, Control_c, 0, 64, 39
2,17431, Note_on_c, 0, 61, 0
2,17436, Note_on_c, 0, 62, 52
2,17555, Note_on_c, 0, 62, 0
2,17594, Note_on_c, 0, 64, 49
2,17654, Note_on_c, 0, 55, 0
2,17712, Note_on_c, 0, 64, 0
2,17734, Note_on_c, 0, 62, 59
2,17745, Note_on_c, 0, 50, 55
2,17770, Note_on_c, 0, 53, 50
2,17877, Note_on_c, 0, 53, 0
2,17895, Note_on_c, 0, 52, 62
2,17898, Note_on_c, 0, 50, 0
2,18024, Note_on_c, 0, 53, 61
2,18037, Note_on_c, 0, 52, 0
2,18149, Note_on_c, 0, 62, 0
2,18151, Note_on_c, 0, 53, 0
2,18165, Note_on_c, 0, 55, 55
2,18166, Note_on_c, 0, 61, 59
2,18201, Note_on_c, 0, 58, 41
2,18310, Note_on_c, 0, 53, 63
2,18315, Note_on_c, 0, 55, 0
2,18438, Note_on_c, 0, 52, 63
2,18443, Note_on_c, 0, 53, 0
2,18477, Control_c, 0, 64, 39
2,18521, Note_on_c, 0, 58, 0
2,18586, Note_on_c, 0, 53, 64
2,18595, Note_on_c, 0, 62, 69
2,18598, Note_on_c, 0, 52, 0
2,18614, Control_c, 0, 64, 40
2,18614, Note_on_c, 0, 57, 54
2,18660, Control_c, 0, 64, 40
2,18675, Control_c, 0, 64, 41
2,18675, Note_on_c, 0, 61, 0
2,18690, Control_c, 0, 64, 41
2,18716, Note_on_c, 0, 53, 0
2,18727, Note_on_c, 0, 55, 71
2,18736, Control_c, 0, 64, 42
2,18741, Note_on_c, 0, 57, 0
2,18767, Control_c, 0, 64, 42
2,18810, Note_on_c, 0, 62, 0
2,18844, Control_c, 0, 64, 43
2,18862, Note_on_c, 0, 57, 71
2,18873, Note_on_c, 0, 55, 0
2,18918, Control_c, 0, 64, 43
2,19020, Note_on_c, 0, 57, 0
2,19020, Note_on_c, 0, 58, 74
2,19023, Note_on_c, 0, 67, 74
2,19028, Note_on_c, 0, 62, 60
2,19164, Note_on_c, 0, 57, 76
2,19188, Note_on_c, 0, 58, 0
2,19306, Control_c, 0, 64, 44
2,19312, Note_on_c, 0, 55, 78
2,19327, Note_on_c, 0, 57, 0
2,19386, Note_on_c, 0, 62, 0
2,19476, Note_on_c, 0, 57, 79
2,19485, Note_on_c, 0, 61, 65
2,19512, Note_on_c, 0, 55, 0
2,19683, Note_on_c, 0, 64, 76
2,19698, Note_on_c, 0, 67, 0
2,19722, Note_on_c, 0, 61, 0
2,19901, Note_on_c, 0, 64, 0
2,19912, Note_on_c, 0, 62, 76
2,19915, Note_on_c, 0, 65, 70
2,19921, Note_on_c, 0, 57, 0
2,20106, Note_on_c, 0, 67, 72
2,20129, Note_on_c, 0, 65, 0
2,20311, Note_on_c, 0, 61, 64
2,20316, Note_on_c, 0, 67, 0
2,20320, Note_on_c, 0, 69, 69
2,20332, Note_on_c, 0, 64, 49
2,20349, Note_on_c, 0, 62, 0
2,20508, Note_on_c, 0, 71, 65
2,20531, Note_on_c, 0, 69, 0
2,20711, Note_on_c, 0, 71, 0
2,20724, Note_on_c, 0, 60, 51
2,20725, Note_on_c, 0, 72, 62
2,20752, Note_on_c, 0, 61, 0
2,20812, Control_c, 0, 64, 43
2,20932, Note_on_c, 0, 72, 0
2,20937, Note_on_c, 0, 69, 61
2,20993, Control_c, 0, 64, 43
2,21111, Note_on_c, 0, 60, 0
2,21125, Note_on_c, 0, 62, 42
2,21131, Note_on_c, 0, 69, 0
2,21142, Note_on_c, 0, 74, 64
2,21145, Note_on_c, 0, 59, 50
2,21174, Note_on_c, 0, 64, 0
2,21322, Control_c, 0, 64, 42
2,21361, Note_on_c, 0, 73, 73
2,21379, Note_on_c, 0, 74, 0
2,21564, Note_on_c, 0, 58, 58
2,21565, Note_on_c, 0, 74, 79
2,21594, Note_on_c, 0, 59, 0
2,21618, Note_on_c, 0, 73, 0
2,21768, Note_on_c, 0, 76, 81
2,21816, Note_on_c, 0, 74, 0
2,21976, Note_on_c, 0, 77, 74
2,21980, Note_on_c, 0, 76, 0
2,21981, Note_on_c, 0, 57, 70
2,21998, Note_on_c, 0, 62, 0
2,22032, Note_on_c, 0, 58, 0
2,22224, Note_on_c, 0, 71, 77
2,22276, Note_on_c, 0, 77, 0
2,22288, Control_c, 0, 64, 43
2,22460, Note_on_c, 0, 55, 59
2,22467, Note_on_c, 0, 76, 75
2,22495, Note_on_c, 0, 71, 0
2,22501, Note_on_c, 0, 57, 0
2,22684, Note_on_c, 0, 74, 74
2,22722, Note_on_c, 0, 76, 0
2,22905, Note_on_c, 0, 73, 72
2,22931, Note_on_c, 0, 74, 0
2,23087, Note_on_c, 0, 73, 0
2,23093, Note_on_c, 0, 69, 65
2,23292, Note_on_c, 0, 53, 48
2,23295, Note_on_c, 0, 69, 0
2,23300, Note_on_c, 0, 74, 60
2,23304, Note_on_c, 0, 70, 52
2,23401, Note_on_c, 0, 55, 0
2,23495, Note_on_c, 0, 70, 0
2,23497, Note_on_c, 0, 69, 61
2,23564, Control_c, 0, 64, 43
2,23697, Note_on_c, 0, 69, 0
2,23707, Note_on_c, 0, 67, 55
2,23713, Note_on_c, 0, 52, 46
2,23716, Control_c, 0, 64, 44
2,23788, Note_on_c, 0, 53, 0
2,23866, Note_on_c, 0, 67, 0
2,23902, Note_on_c, 0, 70, 52
2,24112, Note_on_c, 0, 74, 0
2,24113, Note_on_c, 0, 72, 61
2,24114, Note_on_c, 0, 69, 40
2,24124, Note_on_c, 0, 57, 42
2,24128, Note_on_c, 0, 70, 0
2,24158, Note_on_c, 0, 52, 0
2,24336, Note_on_c, 0, 67, 48
2,24337, Note_on_c, 0, 69, 0
2,24553, Note_on_c, 0, 67, 0
2,24554, Note_on_c, 0, 66, 49
2,24572, Note_on_c, 0, 50, 28
2,24574, Note_on_c, 0, 57, 0
2,24769, Note_on_c, 0, 50, 0
2,24781, Note_on_c, 0, 62, 58
2,24984, Note_on_c, 0, 63, 54
2,24989, Note_on_c, 0, 70, 57
2,24992, Note_on_c, 0, 67, 44
2,25013, Note_on_c, 0, 62, 0
2,25030, Note_on_c, 0, 66, 0
2,25077, Note_on_c, 0, 72, 0
2,25195, Note_on_c, 0, 62, 59
2,25200, Note_on_c, 0, 63, 0
2,25408, Note_on_c, 0, 60, 54
2,25408, Note_on_c, 0, 69, 62
2,25429, Note_on_c, 0, 62, 0
2,25437, Note_on_c, 0, 70, 0
2,25609, Note_on_c, 0, 60, 0
2,25612, Note_on_c, 0, 63, 64
2,25821, Note_on_c, 0, 65, 46
2,25830, Note_on_c, 0, 62, 60
2,25843, Note_on_c, 0, 63, 0
2,25955, Note_on_c, 0, 67, 0
2,26041, Note_on_c, 0, 62, 0
2,26046, Note_on_c, 0, 60, 55
2,26157, Control_c, 0, 64, 43
2,26238, Note_on_c, 0, 69, 0
2,26253, Note_on_c, 0, 67, 64
2,26254, Note_on_c, 0, 60, 0
2,26275, Note_on_c, 0, 59, 54
2,26385, Control_c, 0, 64, 43
2,26495, Note_on_c, 0, 79, 71
2,26499, Note_on_c, 0, 59, 0
2,26507, Note_on_c, 0, 55, 50
2,26676, Note_on_c, 0, 67, 0
2,26731, Note_on_c, 0, 55, 0
2,26731, Note_on_c, 0, 60, 50
2,26732, Note_on_c, 0, 81, 71
2,26740, Note_on_c, 0, 65, 0
2,26742, Note_on_c, 0, 64, 51
2,26746, Note_on_c, 0, 79, 0
2,26863, Control_c, 0, 64, 42
2,26936, Note_on_c, 0, 79, 81
2,26978, Note_on_c, 0, 81, 0
2,27001, Control_c, 0, 64, 42
2,27135, Note_on_c, 0, 77, 82
2,27147, Note_on_c, 0, 62, 54
2,27166, Note_on_c, 0, 79, 0
2,27178, Note_on_c, 0, 64, 0
2,27328, Note_on_c, 0, 77, 0
2,27334, Note_on_c, 0, 81, 74
2,27529, Note_on_c, 0, 60, 0
2,27535, Note_on_c, 0, 58, 47
2,27540, Note_on_c, 0, 79, 70
2,27587, Note_on_c, 0, 81, 0
2,27745, Note_on_c, 0, 77, 71
2,27750, Note_on_c, 0, 79, 0
2,27814, Control_c, 0, 64, 42
2,27954, Note_on_c, 0, 76, 56
2,27957, Note_on_c, 0, 60, 38
2,27976, Note_on_c, 0, 62, 0
2,27979, Note_on_c, 0, 77, 0
2,28135, Note_on_c, 0, 60, 0
2,28169, Note_on_c, 0, 76, 0
2,28171, Note_on_c, 0, 72, 71
2,28376, Note_on_c, 0, 77, 69
2,28383, Note_on_c, 0, 72, 0
2,28384, Note_on_c, 0, 74, 58
2,28386, Note_on_c, 0, 57, 41
2,28401, Note_on_c, 0, 58, 0
2,28595, Note_on_c, 0, 74, 0
2,28604, Note_on_c, 0, 72, 58
2,28798, Note_on_c, 0, 70, 58
2,28802, Note_on_c, 0, 72, 0
2,28814, Note_on_c, 0, 55, 39
2,28838, Note_on_c, 0, 57, 0
2,29018, Note_on_c, 0, 70, 0
2,29019, Note_on_c, 0, 74, 53
2,29210, Note_on_c, 0, 55, 0
2,29222, Note_on_c, 0, 77, 0
2,29226, Note_on_c, 0, 76, 61
2,29232, Note_on_c, 0, 72, 47
2,29235, Note_on_c, 0, 60, 39
2,29242, Note_on_c, 0, 74, 0
2,29259, Control_c, 0, 64, 42
2,29443, Note_on_c, 0, 70, 54
2,29499, Note_on_c, 0, 72, 0
2,29564, Control_c, 0, 64, 42
2,29615, Note_on_c, 0, 70, 0
2,29638, Note_on_c, 0, 53, 50
2,29645, Note_on_c, 0, 69, 63
2,29795, Note_on_c, 0, 76, 0
2,29804, Note_on_c, 0, 60, 0
2,29825, Note_on_c, 0, 55, 61
2,29841, Note_on_c, 0, 53, 0
2,29871, Note_on_c, 0, 77, 71
2,29957, Note_on_c, 0, 57, 64
2,29963, Note_on_c, 0, 69, 0
2,29972, Note_on_c, 0, 55, 0
2,30091, Note_on_c, 0, 58, 79
2,30102, Note_on_c, 0, 57, 0
2,30103, Note_on_c, 0, 67, 75
2,30149, Control_c, 0, 64, 42
2,30211, Control_c, 0, 64, 41
2,30238, Note_on_c, 0, 57, 76
2,30259, Note_on_c, 0, 58, 0
2,30261, Note_on_c, 0, 76, 80
2,30282, Note_on_c, 0, 77, 0
2,30301, Note_on_c, 0, 67, 0
2,30302, Control_c, 0, 64, 41
2,30369, Note_on_c, 0, 55, 77
2,30398, Note_on_c, 0, 57, 0
2,30408, Control_c, 0, 64, 40
2,30502, Note_on_c, 0, 55, 0
2,30514, Note_on_c, 0, 57, 87
2,30532, Note_on_c, 0, 65, 72
2,30644, Note_on_c, 0, 76, 0
2,30673, Control_c, 0, 64, 41
2,30692, Note_on_c, 0, 74, 76
2,30765, Control_c, 0, 64, 41
2,30797, Note_on_c, 0, 65, 0
2,30856, Control_c, 0, 64, 39
2,30871, Control_c, 0, 64, 29
2,30886, Control_c, 0, 64, 0
2,30907, Note_on_c, 0, 45, 77
2,30912, Note_on_c, 0, 57, 0
2,30916, Note_on_c, 0, 64, 77
2,31008, Control_c, 0, 64, 28
2,31023, Control_c, 0, 64, 47
2,31038, Control_c, 0, 64, 55
2,31054, Control_c, 0, 64, 61
2,31069, Control_c, 0, 64, 64
2,31085, Control_c, 0, 64, 68
2,31100, Control_c, 0, 64, 74
2,31102, Note_on_c, 0, 64, 0
2,31105, Note_on_c, 0, 73, 85
2,31115, Control_c, 0, 64, 82
2,31124, Note_on_c, 0, 74, 0
2,31131, Control_c, 0, 64, 89
2,31146, Control_c, 0, 64, 97
2,31161, Control_c, 0, 64, 102
2,31176, Control_c, 0, 64, 104
2,31191, Control_c, 0, 64, 104
2,31195, Note_on_c, 0, 73, 0
2,31222, Control_c, 0, 64, 103
2,31244, Control_c, 0, 64, 101
2,31259, Control_c, 0, 64, 99
2,31274, Control_c, 0, 64, 94
2,31290, Control_c, 0, 64, 88
2,31305, Control_c, 0, 64, 79
2,31321, Control_c, 0, 64, 70
2,31331, Note_on_c, 0, 50, 63
2,31335, Control_c, 0, 64, 61
2,31338, Note_on_c, 0, 74, 75
2,31342, Note_on_c, 0, 65, 60
2,31350, Control_c, 0, 64, 44
2,31365, Control_c, 0, 64, 21
2,31380, Control_c, 0, 64, 20
2,31382, Note_on_c, 0, 45, 0
2,31411, Control_c, 0, 64, 25
2,31426, Control_c, 0, 64, 38
2,31441, Control_c, 0, 64, 49
2,31456, Control_c, 0, 64, 55
2,31471, Control_c, 0, 64, 58
2,31487, Control_c, 0, 64, 60
2,31489, Note_on_c, 0, 52, 70
2,31501, Control_c, 0, 64, 62
2,31510, Note_on_c, 0, 50, 0
2,31516, Control_c, 0, 64, 63
2,31532, Control_c, 0, 64, 64
2,31547, Control_c, 0, 64, 65
2,31563, Control_c, 0, 64, 65
2,31565, Note_on_c, 0, 65, 0
2,31577, Control_c, 0, 64, 66
2,31608, Control_c, 0, 64, 66
2,31616, Note_on_c, 0, 52, 0
2,31617, Note_on_c, 0, 74, 0
2,31620, Note_on_c, 0, 53, 76
2,31684, Control_c, 0, 64, 66
2,31714, Control_c, 0, 64, 65
2,31730, Control_c, 0, 64, 65
2,31745, Control_c, 0, 64, 63
2,31757, Note_on_c, 0, 70, 79
2,31761, Control_c, 0, 64, 59
2,31770, Note_on_c, 0, 55, 67
2,31775, Control_c, 0, 64, 53
2,31775, Note_on_c, 0, 61, 44
2,31788, Note_on_c, 0, 53, 0
2,31790, Control_c, 0, 64, 46
2,31806, Control_c, 0, 64, 39
2,31821, Control_c, 0, 64, 35
2,31852, Control_c, 0, 64, 37
2,31867, Control_c, 0, 64, 47
2,31883, Control_c, 0, 64, 54
2,31898, Control_c, 0, 64, 57
2,31910, Note_on_c, 0, 53, 72
2,31913, Control_c, 0, 64, 59
2,31926, Note_on_c, 0, 55, 0
2,31928, Control_c, 0, 64, 60
2,31943, Control_c, 0, 64, 61
2,31958, Control_c, 0, 64, 62
2,31974, Control_c, 0, 64, 63
2,31989, Control_c, 0, 64, 63
2,32049, Note_on_c, 0, 52, 67
2,32058, Note_on_c, 0, 70, 0
2,32059, Note_on_c, 0, 53, 0
2,32068, Note_on_c, 0, 61, 0
2,32148, Control_c, 0, 64, 63
2,32194, Control_c, 0, 64, 62
2,32194, Note_on_c, 0, 53, 70
2,32209, Note_on_c, 0, 69, 71
2,32222, Note_on_c, 0, 52, 0
2,32222, Note_on_c, 0, 62, 51
2,32224, Control_c, 0, 64, 62
2,32239, Control_c, 0, 64, 61
2,32255, Control_c, 0, 64, 61
2,32285, Control_c, 0, 64, 60
2,32300, Control_c, 0, 64, 59
2,32315, Control_c, 0, 64, 59
2,32338, Note_on_c, 0, 55, 69
2,32341, Note_on_c, 0, 67, 75
2,32345, Control_c, 0, 64, 58
2,32363, Note_on_c, 0, 53, 0
2,32367, Note_on_c, 0, 69, 0
2,32376, Control_c, 0, 64, 58
2,32436, Control_c, 0, 64, 57
2,32473, Note_on_c, 0, 55, 0
2,32473, Note_on_c, 0, 65, 76
2,32482, Note_on_c, 0, 57, 69
2,32497, Control_c, 0, 64, 57
2,32503, Note_on_c, 0, 67, 0
2,32558, Control_c, 0, 64, 56
2,32589, Control_c, 0, 64, 56
2,32605, Note_on_c, 0, 64, 77
2,32611, Note_on_c, 0, 58, 70
2,32621, Note_on_c, 0, 65, 0
2,32634, Control_c, 0, 64, 55
2,32635, Note_on_c, 0, 57, 0
2,32711, Control_c, 0, 64, 55
2,32740, Note_on_c, 0, 65, 73
2,32742, Control_c, 0, 64, 54
2,32746, Note_on_c, 0, 58, 0
2,32747, Note_on_c, 0, 57, 73
2,32758, Note_on_c, 0, 64, 0
2,32810, Control_c, 0, 64, 54
2,32841, Control_c, 0, 64, 53
2,32870, Control_c, 0, 64, 53
2,32874, Note_on_c, 0, 57, 0
2,32878, Note_on_c, 0, 55, 65
2,32883, Note_on_c, 0, 67, 73
2,32887, Note_on_c, 0, 65, 0
2,32901, Control_c, 0, 64, 52
2,32932, Control_c, 0, 64, 52
2,32962, Control_c, 0, 64, 51
2,32963, Note_on_c, 0, 62, 0
2,33008, Control_c, 0, 64, 51
2,33023, Note_on_c, 0, 57, 72
2,33026, Note_on_c, 0, 55, 0
2,33027, Note_on_c, 0, 65, 72
2,33051, Note_on_c, 0, 67, 0
2,33068, Control_c, 0, 64, 50
2,33114, Control_c, 0, 64, 50
2,33129, Control_c, 0, 64, 49
2,33144, Control_c, 0, 64, 49
2,33158, Note_on_c, 0, 64, 66
2,33179, Note_on_c, 0, 65, 0
2,33189, Control_c, 0, 64, 48
2,33235, Control_c, 0, 64, 48
2,33265, Control_c, 0, 64, 47
2,33273, Note_on_c, 0, 64, 0
2,33281, Control_c, 0, 64, 47
2,33293, Note_on_c, 0, 62, 59
2,33296, Control_c, 0, 64, 46
2,33310, Control_c, 0, 64, 45
2,33326, Control_c, 0, 64, 43
2,33341, Control_c, 0, 64, 40
2,33356, Control_c, 0, 64, 32
2,33372, Control_c, 0, 64, 0
2,33432, Note_on_c, 0, 57, 0
2,33435, Note_on_c, 0, 62, 0
2,33439, Note_on_c, 0, 61, 61
2,33442, Note_on_c, 0, 58, 58
2,33466, Note_on_c, 0, 55, 39
2,33494, Control_c, 0, 64, 32
2,33509, Control_c, 0, 64, 49
2,33525, Control_c, 0, 64, 56
2,33548, Control_c, 0, 64, 60
2,33564, Control_c, 0, 64, 64
2,33573, Note_on_c, 0, 62, 62
2,33574, Note_on_c, 0, 61, 0
2,33578, Control_c, 0, 64, 67
2,33593, Control_c, 0, 64, 74
2,33609, Control_c, 0, 64, 83
2,33623, Control_c, 0, 64, 95
2,33639, Control_c, 0, 64, 110
2,33643, Note_on_c, 0, 58, 0
2,33655, Control_c, 0, 64, 127
2,33671, Note_on_c, 0, 55, 0
2,33698, Note_on_c, 0, 62, 0
2,33706, Note_on_c, 0, 64, 59
2,33791, Control_c, 0, 64, 113
2,33807, Control_c, 0, 64, 103
2,33812, Note_on_c, 0, 64, 0
2,33821, Control_c, 0, 64, 93
2,33836, Control_c, 0, 64, 86
2,33846, Note_on_c, 0, 62, 63
2,33852, Control_c, 0, 64, 80
2,33867, Control_c, 0, 64, 76
2,33867, Note_on_c, 0, 57, 47
2,33870, Note_on_c, 0, 53, 46
2,33883, Control_c, 0, 64, 73
2,33898, Control_c, 0, 64, 70
2,33913, Control_c, 0, 64, 67
2,33928, Control_c, 0, 64, 64
2,33943, Control_c, 0, 64, 62
2,33958, Control_c, 0, 64, 60
2,33974, Control_c, 0, 64, 58
2,33989, Control_c, 0, 64, 57
2,33991, Note_on_c, 0, 64, 58
2,33993, Note_on_c, 0, 52, 53
2,34005, Control_c, 0, 64, 56
2,34011, Note_on_c, 0, 53, 0
2,34020, Control_c, 0, 64, 55
2,34034, Control_c, 0, 64, 55
2,34035, Note_on_c, 0, 62, 0
2,34096, Control_c, 0, 64, 54
2,34129, Note_on_c, 0, 65, 64
2,34134, Note_on_c, 0, 64, 0
2,34139, Note_on_c, 0, 50, 56
2,34145, Note_on_c, 0, 52, 0
2,34217, Control_c, 0, 64, 55
2,34256, Note_on_c, 0, 65, 0
2,34274, Note_on_c, 0, 67, 65
2,34277, Note_on_c, 0, 50, 0
2,34278, Note_on_c, 0, 49, 56
2,34409, Note_on_c, 0, 65, 69
2,34414, Note_on_c, 0, 49, 0
2,34420, Note_on_c, 0, 50, 61
2,34424, Note_on_c, 0, 67, 0
2,34454, Control_c, 0, 64, 55
2,34543, Note_on_c, 0, 52, 63
2,34549, Note_on_c, 0, 50, 0
2,34552, Note_on_c, 0, 64, 75
2,34562, Note_on_c, 0, 65, 0
2,34665, Control_c, 0, 64, 56
2,34684, Note_on_c, 0, 64, 0
2,34687, Note_on_c, 0, 65, 75
2,34699, Note_on_c, 0, 50, 59
2,34700, Note_on_c, 0, 52, 0
2,34744, Note_on_c, 0, 57, 0
2,34829, Note_on_c, 0, 55, 68
2,34832, Note_on_c, 0, 67, 77
2,34870, Note_on_c, 0, 65, 0
2,34962, Note_on_c, 0, 53, 70
2,34964, Note_on_c, 0, 69, 84
2,34981, Note_on_c, 0, 67, 0
2,34985, Control_c, 0, 64, 56
2,34997, Note_on_c, 0, 55, 0
2,35105, Note_on_c, 0, 70, 81
2,35107, Note_on_c, 0, 53, 0
2,35112, Note_on_c, 0, 52, 68
2,35127, Note_on_c, 0, 69, 0
2,35227, Note_on_c, 0, 69, 87
2,35236, Note_on_c, 0, 53, 69
2,35259, Note_on_c, 0, 52, 0
2,35278, Note_on_c, 0, 70, 0
2,35368, Note_on_c, 0, 53, 0
2,35373, Note_on_c, 0, 55, 73
2,35374, Note_on_c, 0, 67, 85
2,35399, Note_on_c, 0, 69, 0
2,35551, Note_on_c, 0, 69, 86
2,35553, Note_on_c, 0, 67, 0
2,35555, Note_on_c, 0, 53, 72
2,35584, Note_on_c, 0, 55, 0
2,35761, Note_on_c, 0, 50, 0
2,35767, Note_on_c, 0, 48, 72
2,35998, Note_on_c, 0, 74, 85
2,36002, Note_on_c, 0, 48, 0
2,36003, Note_on_c, 0, 46, 64
2,36041, Note_on_c, 0, 69, 0
2,36184, Note_on_c, 0, 55, 79
2,36185, Note_on_c, 0, 53, 0
2,36398, Control_c, 0, 64, 56
2,36402, Note_on_c, 0, 45, 64
2,36409, Note_on_c, 0, 55, 0
2,36410, Note_on_c, 0, 73, 86
2,36428, Control_c, 0, 64, 56
2,36441, Note_on_c, 0, 46, 0
2,36471, Note_on_c, 0, 74, 0
2,36616, Note_on_c, 0, 55, 79
2,36823, Note_on_c, 0, 54, 65
2,36829, Note_on_c, 0, 72, 83
2,36862, Note_on_c, 0, 55, 0
2,36863, Note_on_c, 0, 73, 0
2,36969, Control_c, 0, 64, 56
2,37018, Note_on_c, 0, 45, 0
2,37018, Note_on_c, 0, 50, 68
2,37135, Control_c, 0, 64, 55
2,37212, Control_c, 0, 64, 55
2,37220, Note_on_c, 0, 54, 0
2,37227, Note_on_c, 0, 71, 85
2,37232, Note_on_c, 0, 43, 65
2,37249, Note_on_c, 0, 50, 0
2,37249, Note_on_c, 0, 72, 0
2,37257, Control_c, 0, 64, 54
2,37288, Control_c, 0, 64, 54
2,37402, Control_c, 0, 64, 54
2,37429, Note_on_c, 0, 53, 80
2,37462, Control_c, 0, 64, 55
2,37627, Note_on_c, 0, 52, 60
2,37646, Control_c, 0, 64, 55
2,37652, Note_on_c, 0, 70, 88
2,37664, Note_on_c, 0, 71, 0
2,37681, Note_on_c, 0, 53, 0
2,37752, Control_c, 0, 64, 56
2,37822, Note_on_c, 0, 43, 0
2,37829, Note_on_c, 0, 48, 74
2,37934, Control_c, 0, 64, 56
2,38047, Note_on_c, 0, 41, 59
2,38049, Note_on_c, 0, 52, 0
2,38051, Note_on_c, 0, 69, 85
2,38063, Note_on_c, 0, 48, 0
2,38068, Note_on_c, 0, 70, 0
2,38071, Control_c, 0, 64, 57
2,38269, Note_on_c, 0, 51, 83
2,38514, Note_on_c, 0, 81, 87
2,38517, Note_on_c, 0, 50, 63
2,38543, Note_on_c, 0, 51, 0
2,38716, Note_on_c, 0, 46, 75
2,38728, Note_on_c, 0, 41, 0
2,38823, Control_c, 0, 64, 57
2,38919, Note_on_c, 0, 50, 0
2,38941, Note_on_c, 0, 80, 91
2,38946, Note_on_c, 0, 40, 68
2,38964, Note_on_c, 0, 46, 0
2,38971, Note_on_c, 0, 69, 0
2,38984, Note_on_c, 0, 81, 0
2,39014, Control_c, 0, 64, 57
2,39059, Control_c, 0, 64, 56
2,39104, Control_c, 0, 64, 56
2,39135, Note_on_c, 0, 50, 79
2,39166, Control_c, 0, 64, 55
2,39358, Note_on_c, 0, 49, 70
2,39364, Control_c, 0, 64, 55
2,39365, Note_on_c, 0, 79, 85
2,39390, Note_on_c, 0, 50, 0
2,39401, Note_on_c, 0, 80, 0
2,39425, Control_c, 0, 64, 54
2,39550, Note_on_c, 0, 40, 0
2,39563, Note_on_c, 0, 45, 69
2,39591, Control_c, 0, 64, 54
2,39736, Control_c, 0, 64, 52
2,39751, Control_c, 0, 64, 48
2,39767, Control_c, 0, 64, 38
2,39782, Control_c, 0, 64, 16
2,39796, Control_c, 0, 64, 0
2,39801, Note_on_c, 0, 49, 0
2,39823, Note_on_c, 0, 45, 0
2,39825, Note_on_c, 0, 50, 71
2,39828, Note_on_c, 0, 78, 87
2,39829, Note_on_c, 0, 38, 56
2,39867, Note_on_c, 0, 79, 0
2,39872, Control_c, 0, 64, 37
2,39888, Control_c, 0, 64, 53
2,39903, Control_c, 0, 64, 58
2,39917, Control_c, 0, 64, 61
2,39933, Control_c, 0, 64, 63
2,39948, Control_c, 0, 64, 65
2,39964, Control_c, 0, 64, 69
2,39979, Control_c, 0, 64, 76
2,39994, Control_c, 0, 64, 88
2,40009, Control_c, 0, 64, 103
2,40024, Control_c, 0, 64, 127
2,40068, Note_on_c, 0, 78, 0
2,40091, Note_on_c, 0, 50, 0
2,40101, Note_on_c, 0, 69, 79
2,40309, Note_on_c, 0, 38, 0
2,40310, Note_on_c, 0, 69, 0
2,40336, Note_on_c, 0, 77, 84
2,40343, Note_on_c, 0, 70, 66
2,40345, Control_c, 0, 64, 99
2,40345, Note_on_c, 0, 50, 63
2,40361, Control_c, 0, 64, 74
2,40375, Control_c, 0, 64, 60
2,40390, Control_c, 0, 64, 40
2,40406, Control_c, 0, 64, 48
2,40420, Control_c, 0, 64, 57
2,40435, Control_c, 0, 64, 62
2,40459, Control_c, 0, 64, 63
2,40474, Control_c, 0, 64, 65
2,40489, Control_c, 0, 64, 67
2,40504, Control_c, 0, 64, 69
2,40519, Control_c, 0, 64, 73
2,40535, Control_c, 0, 64, 79
2,40550, Control_c, 0, 64, 85
2,40557, Note_on_c, 0, 69, 58
2,40565, Control_c, 0, 64, 92
2,40580, Control_c, 0, 64, 97
2,40595, Control_c, 0, 64, 101
2,40611, Control_c, 0, 64, 101
2,40627, Note_on_c, 0, 70, 0
2,40672, Note_on_c, 0, 69, 0
2,40687, Control_c, 0, 64, 100
2,40702, Control_c, 0, 64, 100
2,40716, Control_c, 0, 64, 99
2,40732, Control_c, 0, 64, 97
2,40747, Control_c, 0, 64, 95
2,40749, Note_on_c, 0, 77, 0
2,40762, Control_c, 0, 64, 93
2,40764, Note_on_c, 0, 76, 63
2,40777, Control_c, 0, 64, 91
2,40779, Note_on_c, 0, 67, 57
2,40792, Control_c, 0, 64, 88
2,40808, Control_c, 0, 64, 84
2,40823, Control_c, 0, 64, 79
2,40837, Control_c, 0, 64, 75
2,40853, Control_c, 0, 64, 74
2,40869, Control_c, 0, 64, 74
2,40900, Control_c, 0, 64, 73
2,40915, Control_c, 0, 64, 71
2,40931, Control_c, 0, 64, 70
2,40945, Control_c, 0, 64, 68
2,40961, Control_c, 0, 64, 67
2,40967, Note_on_c, 0, 70, 67
2,40976, Control_c, 0, 64, 67
2,40981, Note_on_c, 0, 67, 0
2,40991, Control_c, 0, 64, 66
2,41006, Control_c, 0, 64, 65
2,41021, Control_c, 0, 64, 65
2,41036, Control_c, 0, 64, 64
2,41067, Control_c, 0, 64, 64
2,41083, Control_c, 0, 64, 63
2,41098, Control_c, 0, 64, 63
2,41128, Control_c, 0, 64, 62
2,41155, Note_on_c, 0, 70, 0
2,41158, Control_c, 0, 64, 62
2,41166, Note_on_c, 0, 49, 53
2,41171, Note_on_c, 0, 69, 65
2,41174, Control_c, 0, 64, 61
2,41226, Control_c, 0, 64, 61
2,41234, Note_on_c, 0, 50, 0
2,41302, Control_c, 0, 64, 60
2,41361, Note_on_c, 0, 69, 0
2,41379, Note_on_c, 0, 67, 62
2,41441, Control_c, 0, 64, 60
2,41455, Control_c, 0, 64, 59
2,41470, Control_c, 0, 64, 56
2,41486, Control_c, 0, 64, 48
2,41501, Control_c, 0, 64, 33
2,41516, Control_c, 0, 64, 17
2,41562, Control_c, 0, 64, 25
2,41575, Note_on_c, 0, 50, 45
2,41575, Note_on_c, 0, 67, 0
2,41577, Control_c, 0, 64, 41
2,41587, Note_on_c, 0, 65, 61
2,41592, Control_c, 0, 64, 52
2,41607, Control_c, 0, 64, 57
2,41610, Note_on_c, 0, 49, 0
2,41622, Control_c, 0, 64, 59
2,41637, Control_c, 0, 64, 61
2,41653, Control_c, 0, 64, 62
2,41668, Control_c, 0, 64, 63
2,41685, Control_c, 0, 64, 64
2,41700, Control_c, 0, 64, 65
2,41714, Control_c, 0, 64, 66
2,41730, Control_c, 0, 64, 67
2,41745, Control_c, 0, 64, 69
2,41761, Control_c, 0, 64, 69
2,41769, Note_on_c, 0, 50, 0
2,41782, Note_on_c, 0, 57, 74
2,41821, Control_c, 0, 64, 69
2,41851, Control_c, 0, 64, 68
2,41866, Control_c, 0, 64, 68
2,41882, Control_c, 0, 64, 67
2,41897, Control_c, 0, 64, 66
2,41911, Control_c, 0, 64, 65
2,41927, Control_c, 0, 64, 64
2,41942, Control_c, 0, 64, 63
2,41957, Control_c, 0, 64, 62
2,41973, Control_c, 0, 64, 61
2,41995, Control_c, 0, 64, 61
2,42011, Control_c, 0, 64, 60
2,42025, Note_on_c, 0, 74, 70
2,42032, Note_on_c, 0, 58, 61
2,42041, Control_c, 0, 64, 60
2,42052, Note_on_c, 0, 57, 0
2,42056, Control_c, 0, 64, 59
2,42071, Control_c, 0, 64, 59
2,42078, Note_on_c, 0, 76, 0
2,42086, Control_c, 0, 64, 58
2,42115, Control_c, 0, 64, 57
2,42131, Control_c, 0, 64, 57
2,42146, Control_c, 0, 64, 56
2,42162, Control_c, 0, 64, 56
2,42177, Control_c, 0, 64, 55
2,42192, Control_c, 0, 64, 54
2,42208, Control_c, 0, 64, 53
2,42223, Control_c, 0, 64, 52
2,42238, Control_c, 0, 64, 51
2,42239, Note_on_c, 0, 57, 68
2,42253, Control_c, 0, 64, 50
2,42268, Control_c, 0, 64, 50
2,42269, Note_on_c, 0, 58, 0
2,42284, Control_c, 0, 64, 49
2,42299, Control_c, 0, 64, 48
2,42314, Control_c, 0, 64, 47
2,42329, Control_c, 0, 64, 47
2,42344, Control_c, 0, 64, 46
2,42359, Control_c, 0, 64, 46
2,42375, Control_c, 0, 64, 45
2,42452, Note_on_c, 0, 64, 60
2,42453, Note_on_c, 0, 57, 0
2,42465, Control_c, 0, 64, 45
2,42467, Note_on_c, 0, 55, 51
2,42543, Control_c, 0, 64, 44
2,42672, Note_on_c, 0, 58, 49
2,42678, Note_on_c, 0, 55, 0
2,42866, Note_on_c, 0, 65, 0
2,42884, Note_on_c, 0, 57, 49
2,42892, Note_on_c, 0, 73, 57
2,42896, Note_on_c, 0, 58, 0
2,42913, Note_on_c, 0, 74, 0
2,42930, Control_c, 0, 64, 45
2,43006, Control_c, 0, 64, 45
2,43085, Note_on_c, 0, 57, 0
2,43097, Control_c, 0, 64, 46
2,43105, Note_on_c, 0, 55, 42
2,43204, Control_c, 0, 64, 46
2,43279, Note_on_c, 0, 73, 0
2,43354, Note_on_c, 0, 53, 39
2,43391, Note_on_c, 0, 55, 0
2,43552, Note_on_c, 0, 81, 56
2,43741, Note_on_c, 0, 64, 0
2,43754, Note_on_c, 0, 81, 0
2,43758, Note_on_c, 0, 62, 46
2,43768, Note_on_c, 0, 82, 66
2,43819, Control_c, 0, 64, 46
2,43834, Control_c, 0, 64, 45
2,43850, Control_c, 0, 64, 45
2,43864, Control_c, 0, 64, 44
2,43879, Control_c, 0, 64, 43
2,43895, Control_c, 0, 64, 42
2,43910, Control_c, 0, 64, 40
2,43926, Control_c, 0, 64, 39
2,43941, Control_c, 0, 64, 38
2,43956, Control_c, 0, 64, 38
2,43970, Note_on_c, 0, 81, 64
2,43976, Note_on_c, 0, 82, 0
2,44003, Control_c, 0, 64, 37
2,44017, Control_c, 0, 64, 37
2,44180, Note_on_c, 0, 81, 0
2,44194, Note_on_c, 0, 79, 59
2,44199, Note_on_c, 0, 52, 38
2,44201, Note_on_c, 0, 53, 0
2,44406, Control_c, 0, 64, 36
2,44408, Note_on_c, 0, 79, 0
2,44415, Note_on_c, 0, 82, 58
2,44451, Control_c, 0, 64, 36
2,44466, Control_c, 0, 64, 35
2,44482, Control_c, 0, 64, 35
2,44496, Control_c, 0, 64, 33
2,44511, Control_c, 0, 64, 30
2,44527, Control_c, 0, 64, 24
2,44542, Control_c, 0, 64, 0
2,44637, Note_on_c, 0, 61, 38
2,44643, Note_on_c, 0, 82, 0
2,44648, Note_on_c, 0, 81, 52
2,44652, Note_on_c, 0, 62, 0
2,44663, Control_c, 0, 64, 39
2,44678, Control_c, 0, 64, 52
2,44694, Control_c, 0, 64, 57
2,44708, Control_c, 0, 64, 60
2,44724, Control_c, 0, 64, 62
2,44739, Control_c, 0, 64, 64
2,44754, Control_c, 0, 64, 68
2,44770, Control_c, 0, 64, 73
2,44785, Control_c, 0, 64, 79
2,44801, Control_c, 0, 64, 87
2,44815, Control_c, 0, 64, 97
2,44830, Control_c, 0, 64, 108
2,44839, Note_on_c, 0, 61, 0
2,44843, Note_on_c, 0, 52, 0
2,44846, Control_c, 0, 64, 127
2,44859, Note_on_c, 0, 79, 52
2,44876, Note_on_c, 0, 81, 0
2,45014, Control_c, 0, 64, 94
2,45029, Control_c, 0, 64, 76
2,45045, Control_c, 0, 64, 67
2,45067, Control_c, 0, 64, 66
2,45083, Control_c, 0, 64, 70
2,45088, Note_on_c, 0, 50, 44
2,45092, Note_on_c, 0, 77, 58
2,45097, Control_c, 0, 64, 75
2,45107, Note_on_c, 0, 79, 0
2,45112, Control_c, 0, 64, 80
2,45115, Note_on_c, 0, 62, 32
2,45128, Control_c, 0, 64, 84
2,45142, Control_c, 0, 64, 87
2,45158, Control_c, 0, 64, 94
2,45171, Note_on_c, 0, 50, 0
2,45174, Control_c, 0, 64, 110
2,45189, Control_c, 0, 64, 127
2,45265, Note_on_c, 0, 77, 0
2,45292, Note_on_c, 0, 76, 59
2,45337, Note_on_c, 0, 64, 54
2,45354, Note_on_c, 0, 62, 0
2,45417, Control_c, 0, 64, 115
2,45428, Note_on_c, 0, 76, 0
2,45429, Note_on_c, 0, 64, 0
2,45429, Note_on_c, 0, 74, 54
2,45432, Control_c, 0, 64, 100
2,45446, Note_on_c, 0, 65, 54
2,45448, Control_c, 0, 64, 91
2,45463, Control_c, 0, 64, 83
2,45478, Control_c, 0, 64, 77
2,45493, Control_c, 0, 64, 72
2,45508, Control_c, 0, 64, 68
2,45524, Control_c, 0, 64, 65
2,45539, Control_c, 0, 64, 64
2,45553, Control_c, 0, 64, 62
2,45555, Note_on_c, 0, 74, 0
2,45568, Note_on_c, 0, 65, 0
2,45569, Control_c, 0, 64, 61
2,45582, Note_on_c, 0, 73, 61
2,45584, Control_c, 0, 64, 60
2,45595, Note_on_c, 0, 67, 57
2,45599, Control_c, 0, 64, 59
2,45615, Control_c, 0, 64, 59
2,45629, Control_c, 0, 64, 58
2,45645, Control_c, 0, 64, 57
2,45660, Control_c, 0, 64, 57
2,45675, Control_c, 0, 64, 56
2,45705, Note_on_c, 0, 73, 0
2,45716, Note_on_c, 0, 67, 0
2,45717, Note_on_c, 0, 74, 47
2,45721, Control_c, 0, 64, 56
2,45736, Control_c, 0, 64, 55
2,45742, Note_on_c, 0, 65, 44
2,45842, Note_on_c, 0, 74, 0
2,45864, Note_on_c, 0, 65, 0
2,45876, Note_on_c, 0, 76, 57
2,45892, Note_on_c, 0, 64, 48
2,46008, Note_on_c, 0, 76, 0
2,46024, Note_on_c, 0, 64, 0
2,46027, Note_on_c, 0, 69, 65
2,46034, Note_on_c, 0, 65, 56
2,46167, Note_on_c, 0, 65, 0
2,46167, Note_on_c, 0, 69, 0
2,46167, Note_on_c, 0, 71, 65
2,46168, Note_on_c, 0, 67, 58
2,46293, Note_on_c, 0, 67, 0
2,46300, Note_on_c, 0, 73, 71
2,46304, Note_on_c, 0, 69, 59
2,46305, Note_on_c, 0, 71, 0
2,46435, Note_on_c, 0, 74, 72
2,46444, Note_on_c, 0, 73, 0
2,46445, Note_on_c, 0, 70, 65
2,46460, Note_on_c, 0, 69, 0
2,46549, Control_c, 0, 64, 56
2,46568, Note_on_c, 0, 70, 0
2,46570, Note_on_c, 0, 73, 73
2,46573, Note_on_c, 0, 69, 71
2,46607, Note_on_c, 0, 74, 0
2,46701, Note_on_c, 0, 67, 71
2,46702, Note_on_c, 0, 69, 0
2,46704, Note_on_c, 0, 71, 79
2,46727, Note_on_c, 0, 73, 0
2,46845, Note_on_c, 0, 73, 78
2,46850, Note_on_c, 0, 69, 81
2,46858, Note_on_c, 0, 71, 0
2,46861, Note_on_c, 0, 67, 0
2,46968, Note_on_c, 0, 73, 0
2,46977, Note_on_c, 0, 74, 79
2,47013, Control_c, 0, 64, 55
2,47098, Note_on_c, 0, 76, 81
2,47103, Note_on_c, 0, 74, 0
2,47218, Note_on_c, 0, 76, 0
2,47235, Note_on_c, 0, 69, 0
2,47245, Note_on_c, 0, 77, 86
2,47247, Note_on_c, 0, 74, 74
2,47316, Control_c, 0, 64, 56
2,47347, Control_c, 0, 64, 56
2,47389, Note_on_c, 0, 76, 85
2,47398, Note_on_c, 0, 74, 0
2,47419, Note_on_c, 0, 77, 0
2,47507, Control_c, 0, 64, 57
2,47511, Note_on_c, 0, 76, 0
2,47529, Note_on_c, 0, 74, 83
2,47659, Control_c, 0, 64, 56
2,47694, Note_on_c, 0, 74, 0
2,47694, Note_on_c, 0, 76, 83
2,47698, Note_on_c, 0, 73, 74
2,47911, Note_on_c, 0, 47, 71
2,47965, Control_c, 0, 64, 57
2,48086, Control_c, 0, 64, 57
2,48118, Note_on_c, 0, 73, 0
2,48154, Note_on_c, 0, 81, 81
2,48157, Note_on_c, 0, 76, 0
2,48158, Note_on_c, 0, 48, 70
2,48160, Note_on_c, 0, 72, 73
2,48183, Note_on_c, 0, 47, 0
2,48307, Control_c, 0, 64, 58
2,48355, Note_on_c, 0, 50, 76
2,48383, Control_c, 0, 64, 58
2,48385, Note_on_c, 0, 48, 0
2,48471, Note_on_c, 0, 72, 0
2,48557, Note_on_c, 0, 52, 62
2,48559, Note_on_c, 0, 80, 85
2,48571, Note_on_c, 0, 50, 0
2,48574, Note_on_c, 0, 71, 64
2,48594, Note_on_c, 0, 81, 0
2,48752, Note_on_c, 0, 54, 67
2,48769, Note_on_c, 0, 52, 0
2,48792, Control_c, 0, 64, 59
2,48881, Note_on_c, 0, 80, 0
2,48971, Note_on_c, 0, 55, 54
2,48992, Note_on_c, 0, 70, 56
2,48992, Note_on_c, 0, 79, 73
2,48996, Note_on_c, 0, 54, 0
2,49040, Note_on_c, 0, 71, 0
2,49167, Control_c, 0, 64, 59
2,49182, Control_c, 0, 64, 60
2,49182, Note_on_c, 0, 52, 61
2,49183, Note_on_c, 0, 55, 0
2,49198, Control_c, 0, 64, 60
2,49213, Control_c, 0, 64, 61
2,49228, Control_c, 0, 64, 61
2,49258, Control_c, 0, 64, 62
2,49274, Control_c, 0, 64, 62
2,49288, Control_c, 0, 64, 63
2,49319, Control_c, 0, 64, 63
2,49379, Control_c, 0, 64, 63
2,49379, Note_on_c, 0, 52, 0
2,49383, Note_on_c, 0, 70, 0
2,49390, Note_on_c, 0, 78, 73
2,49395, Note_on_c, 0, 69, 50
2,49396, Note_on_c, 0, 57, 52
2,49410, Control_c, 0, 64, 62
2,49425, Control_c, 0, 64, 61
2,49441, Control_c, 0, 64, 60
2,49447, Note_on_c, 0, 79, 0
2,49470, Control_c, 0, 64, 61
2,49486, Control_c, 0, 64, 61
2,49501, Control_c, 0, 64, 62
2,49532, Control_c, 0, 64, 62
2,49547, Control_c, 0, 64, 63
2,49577, Control_c, 0, 64, 63
2,49587, Note_on_c, 0, 56, 72
2,49592, Control_c, 0, 64, 64
2,49608, Control_c, 0, 64, 64
2,49614, Note_on_c, 0, 57, 0
2,49623, Control_c, 0, 64, 65
2,49653, Control_c, 0, 64, 65
2,49751, Note_on_c, 0, 78, 0
2,49782, Control_c, 0, 64, 65
2,49798, Control_c, 0, 64, 64
2,49807, Note_on_c, 0, 77, 88
2,49810, Note_on_c, 0, 57, 68
2,49813, Control_c, 0, 64, 64
2,49818, Note_on_c, 0, 56, 0
2,49827, Control_c, 0, 64, 63
2,49843, Control_c, 0, 64, 62
2,49858, Control_c, 0, 64, 62
2,49905, Control_c, 0, 64, 61
2,49935, Control_c, 0, 64, 61
2,49950, Control_c, 0, 64, 60
2,49997, Control_c, 0, 64, 60
2,50000, Note_on_c, 0, 59, 80
2,50024, Note_on_c, 0, 57, 0
2,50147, Control_c, 0, 64, 59
2,50163, Control_c, 0, 64, 56
2,50178, Control_c, 0, 64, 51
2,50194, Control_c, 0, 64, 47
2,50194, Note_on_c, 0, 59, 0
2,50198, Note_on_c, 0, 60, 67
2,50200, Note_on_c, 0, 76, 86
2,50223, Control_c, 0, 64, 49
2,50231, Note_on_c, 0, 77, 0
2,50239, Control_c, 0, 64, 51
2,50254, Control_c, 0, 64, 54
2,50269, Control_c, 0, 64, 56
2,50284, Control_c, 0, 64, 58
2,50299, Control_c, 0, 64, 60
2,50315, Control_c, 0, 64, 62
2,50330, Control_c, 0, 64, 63
2,50345, Control_c, 0, 64, 64
2,50361, Control_c, 0, 64, 65
2,50376, Control_c, 0, 64, 67
2,50391, Control_c, 0, 64, 69
2,50406, Control_c, 0, 64, 71
2,50413, Note_on_c, 0, 54, 76
2,50421, Control_c, 0, 64, 73
2,50421, Note_on_c, 0, 76, 0
2,50444, Control_c, 0, 64, 75
2,50455, Note_on_c, 0, 60, 0
2,50459, Control_c, 0, 64, 75
2,50520, Control_c, 0, 64, 76
2,50596, Control_c, 0, 64, 75
2,50611, Control_c, 0, 64, 75
2,50626, Control_c, 0, 64, 74
2,50642, Control_c, 0, 64, 73
2,50657, Control_c, 0, 64, 72
2,50671, Control_c, 0, 64, 72
2,50684, Note_on_c, 0, 74, 82
2,50685, Note_on_c, 0, 59, 64
2,50687, Control_c, 0, 64, 71
2,50693, Note_on_c, 0, 54, 0
2,50703, Control_c, 0, 64, 69
2,50719, Control_c, 0, 64, 68
2,50719, Note_on_c, 0, 69, 0
2,50733, Control_c, 0, 64, 67
2,50748, Control_c, 0, 64, 66
2,50764, Control_c, 0, 64, 66
2,50795, Control_c, 0, 64, 65
2,50810, Control_c, 0, 64, 65
2,50825, Control_c, 0, 64, 64
2,50841, Control_c, 0, 64, 64
2,50855, Control_c, 0, 64, 63
2,50870, Control_c, 0, 64, 63
2,50886, Control_c, 0, 64, 62
2,50901, Control_c, 0, 64, 62
2,50917, Control_c, 0, 64, 61
2,50931, Control_c, 0, 64, 61
2,50943, Note_on_c, 0, 57, 62
2,50946, Control_c, 0, 64, 60
2,50950, Note_on_c, 0, 65, 76
2,50962, Control_c, 0, 64, 60
2,50972, Note_on_c, 0, 59, 0
2,50976, Control_c, 0, 64, 59
2,50991, Control_c, 0, 64, 59
2,51007, Control_c, 0, 64, 58
2,51038, Control_c, 0, 64, 57
2,51052, Control_c, 0, 64, 57
2,51067, Control_c, 0, 64, 56
2,51083, Control_c, 0, 64, 53
2,51097, Control_c, 0, 64, 48
2,51112, Control_c, 0, 64, 38
2,51128, Control_c, 0, 64, 19
2,51134, Note_on_c, 0, 56, 71
2,51143, Control_c, 0, 64, 0
2,51146, Note_on_c, 0, 57, 0
2,51155, Note_on_c, 0, 64, 77
2,51281, Note_on_c, 0, 74, 0
2,51303, Control_c, 0, 64, 29
2,51318, Control_c, 0, 64, 41
2,51326, Note_on_c, 0, 52, 72
2,51333, Control_c, 0, 64, 48
2,51344, Note_on_c, 0, 56, 0
2,51348, Control_c, 0, 64, 52
2,51350, Note_on_c, 0, 65, 0
2,51364, Control_c, 0, 64, 54
2,51379, Control_c, 0, 64, 56
2,51394, Control_c, 0, 64, 57
2,51409, Control_c, 0, 64, 59
2,51424, Control_c, 0, 64, 60
2,51440, Control_c, 0, 64, 62
2,51455, Control_c, 0, 64, 64
2,51470, Control_c, 0, 64, 66
2,51486, Control_c, 0, 64, 67
2,51501, Control_c, 0, 64, 68
2,51510, Note_on_c, 0, 72, 86
2,51517, Control_c, 0, 64, 67
2,51525, Note_on_c, 0, 57, 65
2,51532, Control_c, 0, 64, 66
2,51541, Note_on_c, 0, 52, 0
2,51547, Control_c, 0, 64, 64
2,51562, Control_c, 0, 64, 62
2,51573, Note_on_c, 0, 64, 0
2,51579, Control_c, 0, 64, 63
2,51595, Control_c, 0, 64, 64
2,51610, Control_c, 0, 64, 65
2,51625, Control_c, 0, 64, 65
2,51641, Control_c, 0, 64, 66
2,51656, Control_c, 0, 64, 67
2,51672, Control_c, 0, 64, 68
2,51701, Control_c, 0, 64, 68
2,51717, Note_on_c, 0, 64, 76
2,51751, Note_on_c, 0, 72, 0
2,51793, Control_c, 0, 64, 68
2,51838, Control_c, 0, 64, 67
2,51884, Control_c, 0, 64, 67
2,51929, Control_c, 0, 64, 66
2,51941, Note_on_c, 0, 71, 83
2,51956, Note_on_c, 0, 62, 68
2,51959, Control_c, 0, 64, 66
2,51963, Note_on_c, 0, 64, 0
2,51982, Control_c, 0, 64, 65
2,52028, Control_c, 0, 64, 65
2,52074, Control_c, 0, 64, 64
2,52134, Control_c, 0, 64, 64
2,52137, Note_on_c, 0, 50, 71
2,52161, Note_on_c, 0, 57, 0
2,52164, Control_c, 0, 64, 63
2,52225, Control_c, 0, 64, 63
2,52317, Control_c, 0, 64, 62
2,52363, Control_c, 0, 64, 62
2,52384, Note_on_c, 0, 70, 85
2,52386, Note_on_c, 0, 55, 64
2,52436, Note_on_c, 0, 50, 0
2,52436, Note_on_c, 0, 71, 0
2,52454, Control_c, 0, 64, 61
2,52509, Note_on_c, 0, 62, 0
2,52632, Note_on_c, 0, 62, 79
2,52637, Control_c, 0, 64, 62
2,52637, Note_on_c, 0, 53, 67
2,52704, Note_on_c, 0, 55, 0
2,52728, Control_c, 0, 64, 62
2,52811, Control_c, 0, 64, 63
2,52839, Note_on_c, 0, 60, 76
2,52841, Note_on_c, 0, 52, 70
2,52847, Note_on_c, 0, 62, 0
2,52863, Note_on_c, 0, 53, 0
2,52918, Control_c, 0, 64, 63
2,53025, Note_on_c, 0, 48, 81
2,53035, Note_on_c, 0, 70, 0
2,53066, Note_on_c, 0, 52, 0
2,53084, Control_c, 0, 64, 64
2,53130, Control_c, 0, 64, 64
2,53144, Control_c, 0, 64, 64
2,53176, Control_c, 0, 64, 63
2,53192, Control_c, 0, 64, 60
2,53207, Control_c, 0, 64, 56
2,53212, Note_on_c, 0, 69, 92
2,53222, Control_c, 0, 64, 53
2,53224, Note_on_c, 0, 53, 71
2,53237, Control_c, 0, 64, 53
2,53243, Note_on_c, 0, 60, 0
2,53252, Control_c, 0, 64, 55
2,53252, Note_on_c, 0, 48, 0
2,53268, Control_c, 0, 64, 58
2,53283, Control_c, 0, 64, 60
2,53298, Control_c, 0, 64, 61
2,53313, Control_c, 0, 64, 62
2,53328, Control_c, 0, 64, 63
2,53343, Control_c, 0, 64, 64
2,53359, Control_c, 0, 64, 65
2,53374, Control_c, 0, 64, 65
2,53415, Note_on_c, 0, 60, 79
2,53481, Control_c, 0, 64, 65
2,53571, Note_on_c, 0, 69, 0
2,53610, Control_c, 0, 64, 64
2,53625, Note_on_c, 0, 68, 87
2,53631, Note_on_c, 0, 59, 75
2,53639, Note_on_c, 0, 60, 0
2,53762, Control_c, 0, 64, 64
2,53830, Note_on_c, 0, 47, 76
2,53859, Note_on_c, 0, 53, 0
2,53928, Control_c, 0, 64, 63
2,53940, Note_on_c, 0, 68, 0
2,53959, Control_c, 0, 64, 63
2,53991, Control_c, 0, 64, 62
2,54020, Control_c, 0, 64, 62
2,54036, Control_c, 0, 64, 61
2,54050, Note_on_c, 0, 67, 85
2,54051, Note_on_c, 0, 52, 67
2,54066, Control_c, 0, 64, 61
2,54108, Note_on_c, 0, 47, 0
2,54112, Control_c, 0, 64, 60
2,54157, Control_c, 0, 64, 60
2,54257, Note_on_c, 0, 50, 70
2,54257, Note_on_c, 0, 58, 82
2,54286, Control_c, 0, 64, 59
2,54293, Note_on_c, 0, 59, 0
2,54301, Note_on_c, 0, 52, 0
2,54317, Control_c, 0, 64, 59
2,54362, Control_c, 0, 64, 58
2,54377, Control_c, 0, 64, 58
2,54408, Control_c, 0, 64, 57
2,54422, Control_c, 0, 64, 56
2,54438, Control_c, 0, 64, 55
2,54453, Control_c, 0, 64, 54
2,54469, Control_c, 0, 64, 51
2,54484, Control_c, 0, 64, 47
2,54495, Note_on_c, 0, 49, 70
2,54499, Control_c, 0, 64, 35
2,54505, Note_on_c, 0, 57, 79
2,54515, Control_c, 0, 64, 0
2,54518, Note_on_c, 0, 50, 0
2,54521, Note_on_c, 0, 58, 0
2,54696, Control_c, 0, 64, 37
2,54712, Control_c, 0, 64, 50
2,54727, Control_c, 0, 64, 57
2,54729, Note_on_c, 0, 67, 0
2,54742, Control_c, 0, 64, 61
2,54758, Control_c, 0, 64, 63
2,54765, Note_on_c, 0, 45, 78
2,54767, Note_on_c, 0, 57, 0
2,54772, Control_c, 0, 64, 65
2,54789, Control_c, 0, 64, 69
2,54804, Control_c, 0, 64, 74
2,54812, Note_on_c, 0, 49, 0
2,54819, Control_c, 0, 64, 80
2,54835, Control_c, 0, 64, 86
2,54849, Control_c, 0, 64, 90
2,54864, Control_c, 0, 64, 93
2,54880, Control_c, 0, 64, 96
2,54895, Control_c, 0, 64, 99
2,54911, Control_c, 0, 64, 102
2,54925, Control_c, 0, 64, 105
2,54940, Control_c, 0, 64, 108
2,54956, Control_c, 0, 64, 109
2,55023, Note_on_c, 0, 50, 72
2,55034, Note_on_c, 0, 67, 61
2,55044, Note_on_c, 0, 45, 0
2,55054, Control_c, 0, 64, 110
2,55081, Note_on_c, 0, 67, 0
2,55085, Control_c, 0, 64, 109
2,55093, Note_on_c, 0, 65, 73
2,55100, Control_c, 0, 64, 108
2,55116, Control_c, 0, 64, 106
2,55130, Control_c, 0, 64, 103
2,55131, Note_on_c, 0, 65, 0
2,55136, Note_on_c, 0, 67, 72
2,55141, Control_c, 0, 64, 99
2,55156, Control_c, 0, 64, 93
2,55172, Control_c, 0, 64, 85
2,55187, Control_c, 0, 64, 78
2,55193, Note_on_c, 0, 65, 82
2,55202, Control_c, 0, 64, 71
2,55211, Note_on_c, 0, 67, 0
2,55217, Control_c, 0, 64, 66
2,55232, Control_c, 0, 64, 63
2,55247, Control_c, 0, 64, 60
2,55262, Control_c, 0, 64, 57
2,55277, Control_c, 0, 64, 53
2,55293, Control_c, 0, 64, 48
2,55308, Control_c, 0, 64, 44
2,55324, Control_c, 0, 64, 40
2,55339, Control_c, 0, 64, 36
2,55354, Control_c, 0, 64, 31
2,55370, Control_c, 0, 64, 27
2,55384, Control_c, 0, 64, 26
2,55399, Control_c, 0, 64, 25
2,55415, Control_c, 0, 64, 23
2,55430, Control_c, 0, 64, 17
2,55446, Control_c, 0, 64, 11
2,55460, Control_c, 0, 64, 9
2,55506, Control_c, 0, 64, 23
2,55522, Control_c, 0, 64, 37
2,55536, Control_c, 0, 64, 48
2,55551, Control_c, 0, 64, 53
2,55567, Control_c, 0, 64, 55
2,55574, Note_on_c, 0, 69, 72
2,55576, Note_on_c, 0, 64, 59
2,55582, Control_c, 0, 64, 57
2,55597, Control_c, 0, 64, 59
2,55608, Note_on_c, 0, 65, 0
2,55614, Control_c, 0, 64, 60
2,55628, Control_c, 0, 64, 61
2,55644, Control_c, 0, 64, 62
2,55659, Control_c, 0, 64, 63
2,55674, Control_c, 0, 64, 64
2,55689, Control_c, 0, 64, 65
2,55704, Control_c, 0, 64, 66
2,55719, Control_c, 0, 64, 67
2,55735, Control_c, 0, 64, 68
2,55750, Control_c, 0, 64, 69
2,55754, Note_on_c, 0, 67, 77
2,55765, Control_c, 0, 64, 71
2,55780, Control_c, 0, 64, 71
2,55787, Note_on_c, 0, 64, 0
2,55795, Control_c, 0, 64, 72
2,55805, Note_on_c, 0, 69, 0
2,55903, Note_on_c, 0, 65, 71
2,55909, Control_c, 0, 64, 71
2,55940, Control_c, 0, 64, 71
2,55950, Note_on_c, 0, 67, 0
2,55970, Control_c, 0, 64, 70
2,55985, Control_c, 0, 64, 70
2,56000, Control_c, 0, 64, 69
2,56016, Control_c, 0, 64, 69
2,56031, Control_c, 0, 64, 68
2,56043, Note_on_c, 0, 49, 66
2,56046, Control_c, 0, 64, 67
2,56050, Note_on_c, 0, 64, 68
2,56061, Control_c, 0, 64, 65
2,56065, Note_on_c, 0, 65, 0
2,56076, Control_c, 0, 64, 62
2,56090, Note_on_c, 0, 50, 0
2,56091, Control_c, 0, 64, 56
2,56106, Control_c, 0, 64, 49
2,56137, Control_c, 0, 64, 51
2,56152, Control_c, 0, 64, 55
2,56168, Control_c, 0, 64, 58
2,56182, Control_c, 0, 64, 60
2,56188, Note_on_c, 0, 65, 68
2,56197, Control_c, 0, 64, 62
2,56210, Note_on_c, 0, 64, 0
2,56213, Control_c, 0, 64, 64
2,56228, Control_c, 0, 64, 65
2,56244, Control_c, 0, 64, 66
2,56259, Control_c, 0, 64, 67
2,56274, Control_c, 0, 64, 68
2,56334, Note_on_c, 0, 67, 70
2,56341, Note_on_c, 0, 65, 0
2,56411, Control_c, 0, 64, 67
2,56458, Control_c, 0, 64, 67
2,56470, Note_on_c, 0, 49, 0
2,56486, Note_on_c, 0, 50, 61
2,56488, Control_c, 0, 64, 66
2,56491, Note_on_c, 0, 65, 68
2,56503, Control_c, 0, 64, 66
2,56511, Note_on_c, 0, 67, 0
2,56518, Control_c, 0, 64, 65
2,56533, Control_c, 0, 64, 65
2,56548, Control_c, 0, 64, 64
2,56564, Control_c, 0, 64, 63
2,56586, Control_c, 0, 64, 63
2,56617, Control_c, 0, 64, 62
2,56636, Note_on_c, 0, 48, 62
2,56638, Note_on_c, 0, 65, 0
2,56639, Note_on_c, 0, 64, 69
2,56648, Control_c, 0, 64, 62
2,56662, Control_c, 0, 64, 61
2,56662, Note_on_c, 0, 50, 0
2,56677, Control_c, 0, 64, 61
2,56693, Control_c, 0, 64, 60
2,56708, Control_c, 0, 64, 60
2,56724, Control_c, 0, 64, 59
2,56753, Control_c, 0, 64, 59
2,56769, Control_c, 0, 64, 58
2,56776, Note_on_c, 0, 62, 66
2,56779, Note_on_c, 0, 46, 59
2,56794, Note_on_c, 0, 48, 0
2,56799, Control_c, 0, 64, 58
2,56810, Note_on_c, 0, 64, 0
2,56845, Control_c, 0, 64, 57
2,56916, Note_on_c, 0, 62, 0
2,56920, Control_c, 0, 64, 57
2,56922, Note_on_c, 0, 61, 68
2,56923, Note_on_c, 0, 45, 57
2,56936, Note_on_c, 0, 46, 0
2,56966, Control_c, 0, 64, 56
2,57026, Control_c, 0, 64, 56
2,57058, Note_on_c, 0, 62, 62
2,57060, Note_on_c, 0, 46, 64
2,57069, Note_on_c, 0, 45, 0
2,57072, Control_c, 0, 64, 55
2,57072, Note_on_c, 0, 61, 0
2,57148, Control_c, 0, 64, 55
2,57179, Control_c, 0, 64, 54
2,57196, Note_on_c, 0, 62, 0
2,57196, Note_on_c, 0, 64, 64
2,57202, Note_on_c, 0, 46, 0
2,57208, Note_on_c, 0, 48, 58
2,57256, Control_c, 0, 64, 54
2,57355, Note_on_c, 0, 62, 62
2,57370, Control_c, 0, 64, 53
2,57371, Note_on_c, 0, 46, 58
2,57371, Note_on_c, 0, 64, 0
2,57375, Note_on_c, 0, 48, 0
2,57506, Control_c, 0, 64, 53
2,57506, Note_on_c, 0, 46, 0
2,57511, Note_on_c, 0, 45, 58
2,57581, Control_c, 0, 64, 52
2,57659, Note_on_c, 0, 43, 56
2,57673, Note_on_c, 0, 45, 0
2,57802, Note_on_c, 0, 43, 0
2,57806, Note_on_c, 0, 42, 59
2,57821, Note_on_c, 0, 57, 67
2,57824, Note_on_c, 0, 62, 0
2,57962, Note_on_c, 0, 42, 0
2,57965, Note_on_c, 0, 43, 53
2,58092, Note_on_c, 0, 43, 0
2,58116, Note_on_c, 0, 45, 57
2,58275, Note_on_c, 0, 43, 54
2,58285, Note_on_c, 0, 58, 63
2,58286, Control_c, 0, 64, 53
2,58303, Note_on_c, 0, 45, 0
2,58309, Note_on_c, 0, 57, 0
2,58423, Control_c, 0, 64, 53
2,58451, Note_on_c, 0, 62, 57
2,58530, Control_c, 0, 64, 54
2,58584, Note_on_c, 0, 64, 55
2,58636, Note_on_c, 0, 62, 0
2,58726, Note_on_c, 0, 38, 56
2,58729, Note_on_c, 0, 59, 48
2,58730, Note_on_c, 0, 64, 0
2,58734, Note_on_c, 0, 58, 0
2,58745, Note_on_c, 0, 65, 59
2,58757, Control_c, 0, 64, 54
2,58791, Note_on_c, 0, 43, 0
2,58884, Note_on_c, 0, 64, 56
2,58887, Control_c, 0, 64, 55
2,58914, Note_on_c, 0, 65, 0
2,58975, Note_on_c, 0, 59, 0
2,58978, Control_c, 0, 64, 55
2,59034, Note_on_c, 0, 62, 61
2,59037, Note_on_c, 0, 64, 0
2,59069, Control_c, 0, 64, 56
2,59155, Note_on_c, 0, 62, 0
2,59172, Note_on_c, 0, 39, 65
2,59183, Note_on_c, 0, 60, 63
2,59219, Note_on_c, 0, 38, 0
2,59338, Note_on_c, 0, 69, 66
2,59421, Note_on_c, 0, 60, 0
2,59614, Note_on_c, 0, 69, 0
2,59619, Note_on_c, 0, 40, 69
2,59626, Note_on_c, 0, 67, 67
2,59629, Note_on_c, 0, 61, 56
2,59708, Note_on_c, 0, 39, 0
2,59715, Control_c, 0, 64, 56
2,59772, Note_on_c, 0, 69, 75
2,59818, Note_on_c, 0, 67, 0
2,59837, Note_on_c, 0, 61, 0
2,59882, Control_c, 0, 64, 57
2,59915, Note_on_c, 0, 70, 78
2,59931, Note_on_c, 0, 69, 0
2,59989, Control_c, 0, 64, 57
2,60041, Note_on_c, 0, 41, 66
2,60041, Note_on_c, 0, 70, 0
2,60065, Control_c, 0, 64, 57
2,60070, Note_on_c, 0, 62, 65
2,60080, Control_c, 0, 64, 56
2,60086, Note_on_c, 0, 40, 0
2,60110, Control_c, 0, 64, 56
2,60156, Control_c, 0, 64, 55
2,60186, Control_c, 0, 64, 55
2,60212, Note_on_c, 0, 69, 76
2,60246, Control_c, 0, 64, 54
2,60346, Note_on_c, 0, 70, 69
2,60353, Control_c, 0, 64, 54
2,60360, Note_on_c, 0, 69, 0
2,60422, Control_c, 0, 64, 52
2,60437, Control_c, 0, 64, 49
2,60452, Control_c, 0, 64, 40
2,60467, Control_c, 0, 64, 0
2,60489, Note_on_c, 0, 41, 0
2,60489, Note_on_c, 0, 70, 0
2,60503, Note_on_c, 0, 42, 56
2,60503, Note_on_c, 0, 72, 64
2,60576, Control_c, 0, 64, 43
2,60591, Control_c, 0, 64, 54
2,60606, Control_c, 0, 64, 58
2,60621, Control_c, 0, 64, 60
2,60636, Control_c, 0, 64, 62
2,60651, Note_on_c, 0, 70, 60
2,60652, Control_c, 0, 64, 64
2,60667, Control_c, 0, 64, 66
2,60681, Control_c, 0, 64, 68
2,60694, Note_on_c, 0, 72, 0
2,60697, Control_c, 0, 64, 71
2,60712, Control_c, 0, 64, 73
2,60730, Control_c, 0, 64, 75
2,60745, Control_c, 0, 64, 77
2,60759, Control_c, 0, 64, 78
2,60775, Control_c, 0, 64, 79
2,60779, Note_on_c, 0, 70, 0
2,60789, Note_on_c, 0, 69, 59
2,60790, Control_c, 0, 64, 80
2,60821, Control_c, 0, 64, 78
2,60835, Control_c, 0, 64, 76
2,60851, Control_c, 0, 64, 73
2,60866, Control_c, 0, 64, 69
2,60882, Control_c, 0, 64, 69
2,60909, Note_on_c, 0, 42, 0
2,60912, Control_c, 0, 64, 69
2,60914, Note_on_c, 0, 69, 0
2,60933, Note_on_c, 0, 70, 57
2,60943, Control_c, 0, 64, 69
2,60958, Note_on_c, 0, 43, 50
2,60973, Control_c, 0, 64, 68
2,61003, Control_c, 0, 64, 68
2,61018, Control_c, 0, 64, 67
2,61033, Control_c, 0, 64, 66
2,61064, Control_c, 0, 64, 66
2,61078, Control_c, 0, 64, 65
2,61093, Note_on_c, 0, 43, 0
2,61094, Control_c, 0, 64, 65
2,61109, Control_c, 0, 64, 64
2,61114, Note_on_c, 0, 45, 53
2,61125, Control_c, 0, 64, 64
2,61193, Control_c, 0, 64, 63
2,61238, Control_c, 0, 64, 63
2,61243, Note_on_c, 0, 45, 0
2,61264, Note_on_c, 0, 46, 65
2,61285, Control_c, 0, 64, 62
2,61330, Control_c, 0, 64, 62
2,61377, Control_c, 0, 64, 61
2,61395, Note_on_c, 0, 46, 0
2,61413, Note_on_c, 0, 48, 54
2,61422, Control_c, 0, 64, 61
2,61422, Note_on_c, 0, 66, 61
2,61442, Note_on_c, 0, 70, 0
2,61498, Control_c, 0, 64, 60
2,61550, Note_on_c, 0, 46, 55
2,61567, Note_on_c, 0, 48, 0
2,61640, Note_on_c, 0, 62, 0
2,61664, Control_c, 0, 64, 60
2,61701, Note_on_c, 0, 45, 59
2,61711, Note_on_c, 0, 46, 0
2,61817, Control_c, 0, 64, 59
2,61845, Note_on_c, 0, 66, 0
2,61851, Note_on_c, 0, 67, 68
2,61852, Note_on_c, 0, 46, 60
2,61869, Note_on_c, 0, 45, 0
2,61938, Control_c, 0, 64, 59
2,61991, Note_on_c, 0, 48, 64
2,62007, Note_on_c, 0, 69, 72
2,62017, Note_on_c, 0, 46, 0
2,62034, Note_on_c, 0, 67, 0
2,62112, Note_on_c, 0, 48, 0
2,62129, Note_on_c, 0, 50, 68
2,62144, Note_on_c, 0, 70, 78
2,62174, Note_on_c, 0, 69, 0
2,62277, Note_on_c, 0, 51, 76
2,62287, Note_on_c, 0, 72, 78
2,62304, Note_on_c, 0, 50, 0
2,62306, Note_on_c, 0, 70, 0
2,62419, Note_on_c, 0, 50, 77
2,62419, Note_on_c, 0, 70, 78
2,62429, Note_on_c, 0, 51, 0
2,62437, Note_on_c, 0, 72, 0
2,62551, Note_on_c, 0, 48, 75
2,62560, Note_on_c, 0, 69, 78
2,62568, Note_on_c, 0, 50, 0
2,62578, Note_on_c, 0, 70, 0
2,62586, Control_c, 0, 64, 58
2,62617, Control_c, 0, 64, 58
2,62699, Note_on_c, 0, 50, 80
2,62699, Note_on_c, 0, 70, 79
2,62723, Note_on_c, 0, 48, 0
2,62733, Note_on_c, 0, 69, 0
2,62833, Note_on_c, 0, 70, 0
2,62841, Note_on_c, 0, 72, 82
2,62955, Control_c, 0, 64, 57
2,62971, Control_c, 0, 64, 57
2,62986, Note_on_c, 0, 74, 81
2,63001, Control_c, 0, 64, 56
2,63012, Note_on_c, 0, 72, 0
2,63137, Note_on_c, 0, 74, 0
2,63139, Note_on_c, 0, 55, 75
2,63139, Note_on_c, 0, 75, 82
2,63172, Note_on_c, 0, 50, 0
2,63275, Control_c, 0, 64, 56
2,63276, Note_on_c, 0, 74, 75
2,63301, Note_on_c, 0, 75, 0
2,63335, Control_c, 0, 64, 55
2,63365, Control_c, 0, 64, 55
2,63396, Control_c, 0, 64, 54
2,63412, Note_on_c, 0, 73, 72
2,63423, Note_on_c, 0, 74, 0
2,63457, Control_c, 0, 64, 54
2,63570, Note_on_c, 0, 74, 70
2,63571, Control_c, 0, 64, 54
2,63583, Note_on_c, 0, 73, 0
2,63616, Control_c, 0, 64, 55
2,63646, Control_c, 0, 64, 55
2,63722, Control_c, 0, 64, 56
2,63724, Note_on_c, 0, 72, 56
2,63815, Control_c, 0, 64, 56
2,63842, Note_on_c, 0, 72, 0
2,63855, Note_on_c, 0, 70, 56
2,63964, Note_on_c, 0, 54, 53
2,63980, Note_on_c, 0, 70, 0
2,63991, Note_on_c, 0, 69, 61
2,63997, Note_on_c, 0, 55, 0
2,64116, Note_on_c, 0, 70, 55
2,64167, Note_on_c, 0, 69, 0
2,64178, Control_c, 0, 64, 56
2,64261, Note_on_c, 0, 72, 60
2,64261, Note_on_c, 0, 74, 0
2,64264, Note_on_c, 0, 70, 0
2,64396, Note_on_c, 0, 54, 0
2,64402, Note_on_c, 0, 70, 63
2,64417, Note_on_c, 0, 72, 0
2,64428, Note_on_c, 0, 55, 47
2,64506, Note_on_c, 0, 70, 0
2,64536, Control_c, 0, 64, 55
2,64548, Note_on_c, 0, 55, 0
2,64551, Note_on_c, 0, 53, 56
2,64673, Note_on_c, 0, 53, 0
2,64676, Note_on_c, 0, 52, 53
2,64735, Control_c, 0, 64, 55
2,64796, Note_on_c, 0, 52, 0
2,64815, Note_on_c, 0, 50, 50
2,64829, Note_on_c, 0, 74, 66
2,64872, Control_c, 0, 64, 54
2,64939, Note_on_c, 0, 50, 0
2,64949, Note_on_c, 0, 52, 52
2,64952, Note_on_c, 0, 74, 0
2,65077, Note_on_c, 0, 52, 0
2,65102, Note_on_c, 0, 53, 54
2,65251, Note_on_c, 0, 53, 0
2,65252, Note_on_c, 0, 52, 49
2,65255, Note_on_c, 0, 79, 64
2,65273, Note_on_c, 0, 67, 48
2,65386, Note_on_c, 0, 67, 0
2,65401, Note_on_c, 0, 77, 70
2,65457, Note_on_c, 0, 79, 0
2,65473, Note_on_c, 0, 52, 0
2,65535, Note_on_c, 0, 76, 66
2,65539, Note_on_c, 0, 77, 0
2,65665, Note_on_c, 0, 76, 0
2,65687, Note_on_c, 0, 74, 63
2,65692, Note_on_c, 0, 55, 52
2,65692, Note_on_c, 0, 71, 49
2,65829, Control_c, 0, 64, 55
2,65836, Note_on_c, 0, 76, 64
2,65863, Note_on_c, 0, 74, 0
2,65869, Note_on_c, 0, 55, 0
2,65873, Note_on_c, 0, 71, 0
2,65969, Note_on_c, 0, 76, 0
2,65973, Note_on_c, 0, 77, 71
2,66117, Note_on_c, 0, 76, 69
2,66117, Note_on_c, 0, 77, 0
2,66129, Note_on_c, 0, 60, 47
2,66138, Note_on_c, 0, 72, 53
2,66242, Note_on_c, 0, 72, 0
2,66258, Note_on_c, 0, 58, 61
2,66268, Note_on_c, 0, 76, 0
2,66299, Note_on_c, 0, 60, 0
2,66391, Note_on_c, 0, 57, 61
2,66398, Note_on_c, 0, 58, 0
2,66539, Note_on_c, 0, 57, 0
2,66545, Note_on_c, 0, 55, 58
2,66545, Note_on_c, 0, 79, 79
2,66567, Control_c, 0, 64, 55
2,66695, Note_on_c, 0, 57, 60
2,66696, Note_on_c, 0, 55, 0
2,66698, Note_on_c, 0, 79, 0
2,66825, Note_on_c, 0, 57, 0
2,66831, Note_on_c, 0, 58, 70
2,66986, Note_on_c, 0, 57, 62
2,66989, Note_on_c, 0, 72, 75
2,67034, Note_on_c, 0, 58, 0
2,67134, Note_on_c, 0, 70, 74
2,67144, Note_on_c, 0, 72, 0
2,67206, Control_c, 0, 64, 55
2,67242, Note_on_c, 0, 57, 0
2,67260, Note_on_c, 0, 69, 78
2,67291, Note_on_c, 0, 70, 0
2,67312, Control_c, 0, 64, 54
2,67407, Note_on_c, 0, 69, 0
2,67413, Note_on_c, 0, 67, 76
2,67417, Note_on_c, 0, 60, 74
2,67440, Control_c, 0, 64, 54
2,67533, Control_c, 0, 64, 53
2,67538, Note_on_c, 0, 69, 81
2,67574, Note_on_c, 0, 67, 0
2,67586, Note_on_c, 0, 60, 0
2,67670, Note_on_c, 0, 70, 82
2,67699, Note_on_c, 0, 69, 0
2,67821, Note_on_c, 0, 69, 82
2,67829, Note_on_c, 0, 53, 66
2,67857, Note_on_c, 0, 70, 0
2,67949, Note_on_c, 0, 51, 74
2,67950, Note_on_c, 0, 69, 0
2,67958, Control_c, 0, 64, 54
2,68010, Note_on_c, 0, 53, 0
2,68065, Control_c, 0, 64, 54
2,68104, Note_on_c, 0, 50, 72
2,68119, Note_on_c, 0, 51, 0
2,68243, Note_on_c, 0, 48, 70
2,68244, Note_on_c, 0, 72, 87
2,68252, Note_on_c, 0, 50, 0
2,68379, Note_on_c, 0, 50, 73
2,68383, Note_on_c, 0, 72, 0
2,68394, Note_on_c, 0, 48, 0
2,68519, Note_on_c, 0, 51, 83
2,68525, Note_on_c, 0, 50, 0
2,68558, Control_c, 0, 64, 55
2,68658, Note_on_c, 0, 50, 79
2,68660, Note_on_c, 0, 77, 93
2,68663, Note_on_c, 0, 65, 77
2,68691, Note_on_c, 0, 51, 0
2,68742, Control_c, 0, 64, 54
2,68798, Note_on_c, 0, 65, 0
2,68801, Note_on_c, 0, 75, 88
2,68847, Control_c, 0, 64, 54
2,68868, Note_on_c, 0, 77, 0
2,68899, Note_on_c, 0, 50, 0
2,68945, Note_on_c, 0, 74, 84
2,68976, Note_on_c, 0, 75, 0
2,69023, Control_c, 0, 64, 53
2,69081, Note_on_c, 0, 53, 77
2,69085, Note_on_c, 0, 69, 73
2,69090, Note_on_c, 0, 72, 85
2,69107, Note_on_c, 0, 74, 0
2,69159, Control_c, 0, 64, 54
2,69174, Control_c, 0, 64, 54
2,69189, Control_c, 0, 64, 55
2,69204, Control_c, 0, 64, 55
2,69228, Note_on_c, 0, 74, 83
2,69235, Control_c, 0, 64, 56
2,69272, Note_on_c, 0, 72, 0
2,69279, Note_on_c, 0, 69, 0
2,69287, Note_on_c, 0, 53, 0
2,69369, Note_on_c, 0, 75, 90
2,69400, Note_on_c, 0, 74, 0
2,69540, Note_on_c, 0, 74, 84
2,69541, Note_on_c, 0, 58, 72
2,69545, Note_on_c, 0, 70, 78
2,69572, Note_on_c, 0, 75, 0
2,69714, Note_on_c, 0, 57, 75
2,69722, Note_on_c, 0, 58, 0
2,69759, Control_c, 0, 64, 55
2,69843, Note_on_c, 0, 55, 73
2,69871, Note_on_c, 0, 57, 0
2,69963, Note_on_c, 0, 70, 0
2,69980, Note_on_c, 0, 69, 85
2,69985, Note_on_c, 0, 54, 75
2,70002, Note_on_c, 0, 55, 0
2,70051, Control_c, 0, 64, 55
2,70122, Note_on_c, 0, 55, 75
2,70136, Note_on_c, 0, 54, 0
2,70248, Control_c, 0, 64, 54
2,70269, Note_on_c, 0, 57, 76
2,70270, Note_on_c, 0, 55, 0
2,70324, Control_c, 0, 64, 54
2,70450, Note_on_c, 0, 73, 87
2,70455, Note_on_c, 0, 55, 72
2,70460, Note_on_c, 0, 57, 0
2,70466, Note_on_c, 0, 74, 0
2,70652, Note_on_c, 0, 53, 68
2,70652, Note_on_c, 0, 55, 0
2,70653, Note_on_c, 0, 74, 83
2,70693, Note_on_c, 0, 73, 0
2,70818, Note_on_c, 0, 52, 64
2,70821, Note_on_c, 0, 76, 87
2,70832, Note_on_c, 0, 53, 0
2,70866, Note_on_c, 0, 74, 0
2,70965, Note_on_c, 0, 50, 69
2,70966, Note_on_c, 0, 52, 0
2,70967, Note_on_c, 0, 77, 90
2,70976, Note_on_c, 0, 76, 0
2,71090, Note_on_c, 0, 52, 67
2,71105, Note_on_c, 0, 76, 86
2,71111, Note_on_c, 0, 50, 0
2,71133, Note_on_c, 0, 77, 0
2,71221, Note_on_c, 0, 52, 0
2,71229, Note_on_c, 0, 53, 69
2,71249, Note_on_c, 0, 74, 90
2,71274, Note_on_c, 0, 76, 0
2,71329, Control_c, 0, 64, 54
2,71369, Note_on_c, 0, 52, 71
2,71373, Note_on_c, 0, 76, 91
2,71374, Control_c, 0, 64, 55
2,71375, Note_on_c, 0, 53, 0
2,71420, Control_c, 0, 64, 55
2,71467, Note_on_c, 0, 74, 0
2,71480, Control_c, 0, 64, 56
2,71486, Note_on_c, 0, 52, 0
2,71495, Note_on_c, 0, 77, 95
2,71500, Note_on_c, 0, 50, 81
2,71530, Note_on_c, 0, 76, 0
2,71555, Control_c, 0, 64, 56
2,71614, Note_on_c, 0, 77, 0
2,71629, Note_on_c, 0, 79, 90
2,71631, Control_c, 0, 64, 57
2,71634, Note_on_c, 0, 49, 74
2,71676, Note_on_c, 0, 50, 0
2,71778, Note_on_c, 0, 47, 77
2,71783, Note_on_c, 0, 81, 92
2,71793, Note_on_c, 0, 49, 0
2,71811, Note_on_c, 0, 79, 0
2,71845, Control_c, 0, 64, 57
2,71924, Note_on_c, 0, 49, 77
2,71925, Note_on_c, 0, 79, 91
2,71949, Note_on_c, 0, 47, 0
2,71981, Note_on_c, 0, 81, 0
2,72087, Note_on_c, 0, 49, 0
2,72087, Note_on_c, 0, 77, 100
2,72088, Note_on_c, 0, 50, 77
2,72113, Note_on_c, 0, 79, 0
2,72264, Control_c, 0, 64, 57
2,72284, Note_on_c, 0, 49, 74
2,72289, Note_on_c, 0, 77, 0
2,72292, Note_on_c, 0, 79, 93
2,72324, Note_on_c, 0, 50, 0
2,72339, Note_on_c, 0, 69, 0
2,72520, Note_on_c, 0, 45, 75
2,72542, Note_on_c, 0, 69, 88
2,72558, Note_on_c, 0, 49, 0
2,72598, Control_c, 0, 64, 57
2,72628, Control_c, 0, 64, 58
2,72659, Control_c, 0, 64, 59
2,72674, Control_c, 0, 64, 59
2,72689, Control_c, 0, 64, 60
2,72712, Control_c, 0, 64, 60
2,72728, Control_c, 0, 64, 61
2,72788, Control_c, 0, 64, 58
2,72789, Note_on_c, 0, 79, 0
2,72795, Note_on_c, 0, 50, 65
2,72799, Note_on_c, 0, 45, 0
2,72799, Note_on_c, 0, 70, 77
2,72799, Note_on_c, 0, 77, 90
2,72804, Control_c, 0, 64, 52
2,72820, Control_c, 0, 64, 47
2,72832, Note_on_c, 0, 69, 0
2,72834, Control_c, 0, 64, 47
2,72850, Control_c, 0, 64, 50
2,72865, Control_c, 0, 64, 56
2,72880, Control_c, 0, 64, 61
2,72896, Control_c, 0, 64, 63
2,72911, Control_c, 0, 64, 65
2,72926, Control_c, 0, 64, 67
2,72941, Control_c, 0, 64, 71
2,72956, Control_c, 0, 64, 74
2,72972, Control_c, 0, 64, 77
2,72986, Control_c, 0, 64, 79
2,73002, Control_c, 0, 64, 81
2,73017, Control_c, 0, 64, 82
2,73022, Note_on_c, 0, 69, 80
2,73032, Control_c, 0, 64, 82
2,73063, Note_on_c, 0, 70, 0
2,73131, Note_on_c, 0, 69, 0
2,73169, Control_c, 0, 64, 82
2,73184, Control_c, 0, 64, 81
2,73199, Control_c, 0, 64, 80
2,73215, Control_c, 0, 64, 78
2,73225, Note_on_c, 0, 76, 84
2,73230, Control_c, 0, 64, 73
2,73230, Note_on_c, 0, 67, 76
2,73245, Control_c, 0, 64, 68
2,73252, Note_on_c, 0, 77, 0
2,73260, Control_c, 0, 64, 62
2,73275, Control_c, 0, 64, 56
2,73291, Control_c, 0, 64, 56
2,73306, Control_c, 0, 64, 58
2,73320, Control_c, 0, 64, 59
2,73336, Control_c, 0, 64, 60
2,73351, Control_c, 0, 64, 61
2,73366, Control_c, 0, 64, 61
2,73381, Control_c, 0, 64, 62
2,73412, Control_c, 0, 64, 62
2,73418, Note_on_c, 0, 70, 70
2,73438, Note_on_c, 0, 67, 0
2,73443, Control_c, 0, 64, 63
2,73572, Control_c, 0, 64, 62
2,73586, Control_c, 0, 64, 62
2,73602, Control_c, 0, 64, 61
2,73613, Note_on_c, 0, 70, 0
2,73616, Note_on_c, 0, 49, 58
2,73617, Control_c, 0, 64, 56
2,73626, Note_on_c, 0, 69, 74
2,73633, Control_c, 0, 64, 51
2,73649, Control_c, 0, 64, 50
2,73653, Note_on_c, 0, 50, 0
2,73679, Control_c, 0, 64, 52
2,73694, Control_c, 0, 64, 53
2,73709, Control_c, 0, 64, 55
2,73725, Control_c, 0, 64, 55
2,73816, Control_c, 0, 64, 55
2,73826, Note_on_c, 0, 69, 0
2,73828, Note_on_c, 0, 67, 70
2,73830, Control_c, 0, 64, 54
2,73876, Control_c, 0, 64, 54
2,73922, Control_c, 0, 64, 53
2,73937, Control_c, 0, 64, 50
2,73952, Control_c, 0, 64, 42
2,73967, Control_c, 0, 64, 0
2,74014, Note_on_c, 0, 49, 0
2,74014, Note_on_c, 0, 50, 48
2,74036, Note_on_c, 0, 65, 65
2,74043, Note_on_c, 0, 67, 0
2,74074, Control_c, 0, 64, 25
2,74089, Control_c, 0, 64, 51
2,74104, Control_c, 0, 64, 59
2,74119, Control_c, 0, 64, 62
2,74135, Control_c, 0, 64, 65
2,74150, Control_c, 0, 64, 69
2,74165, Control_c, 0, 64, 75
2,74180, Control_c, 0, 64, 88
2,74189, Note_on_c, 0, 76, 0
2,74195, Control_c, 0, 64, 106
2,74196, Note_on_c, 0, 50, 0
2,74210, Control_c, 0, 64, 127
2,74224, Note_on_c, 0, 74, 70
2,74312, Note_on_c, 0, 65, 0
2,74438, Note_on_c, 0, 75, 76
2,74443, Note_on_c, 0, 74, 0
2,74445, Control_c, 0, 64, 108
2,74456, Note_on_c, 0, 58, 59
2,74459, Note_on_c, 0, 55, 53
2,74462, Control_c, 0, 64, 96
2,74476, Control_c, 0, 64, 86
2,74492, Control_c, 0, 64, 80
2,74507, Control_c, 0, 64, 77
2,74523, Control_c, 0, 64, 75
2,74537, Control_c, 0, 64, 73
2,74552, Control_c, 0, 64, 71
2,74568, Control_c, 0, 64, 68
2,74583, Control_c, 0, 64, 66
2,74598, Control_c, 0, 64, 64
2,74613, Control_c, 0, 64, 63
2,74624, Note_on_c, 0, 74, 77
2,74628, Control_c, 0, 64, 63
2,74659, Control_c, 0, 64, 62
2,74674, Control_c, 0, 64, 62
2,74674, Note_on_c, 0, 75, 0
2,74689, Control_c, 0, 64, 61
2,74719, Control_c, 0, 64, 61
2,74811, Control_c, 0, 64, 60
2,74813, Note_on_c, 0, 58, 0
2,74835, Note_on_c, 0, 73, 76
2,74847, Note_on_c, 0, 74, 0
2,74850, Note_on_c, 0, 57, 61
2,74902, Control_c, 0, 64, 60
2,74933, Control_c, 0, 64, 60
2,75031, Control_c, 0, 64, 60
2,75051, Note_on_c, 0, 76, 74
2,75058, Note_on_c, 0, 73, 0
2,75092, Control_c, 0, 64, 59
2,75168, Control_c, 0, 64, 59
2,75183, Control_c, 0, 64, 58
2,75198, Control_c, 0, 64, 57
2,75213, Control_c, 0, 64, 55
2,75228, Control_c, 0, 64, 50
2,75244, Control_c, 0, 64, 39
2,75256, Note_on_c, 0, 54, 55
2,75259, Control_c, 0, 64, 25
2,75269, Note_on_c, 0, 74, 72
2,75275, Control_c, 0, 64, 17
2,75291, Control_c, 0, 64, 17
2,75308, Note_on_c, 0, 55, 0
2,75308, Note_on_c, 0, 76, 0
2,75320, Control_c, 0, 64, 19
2,75336, Control_c, 0, 64, 34
2,75351, Control_c, 0, 64, 47
2,75367, Control_c, 0, 64, 54
2,75381, Control_c, 0, 64, 58
2,75396, Control_c, 0, 64, 60
2,75412, Control_c, 0, 64, 62
2,75427, Control_c, 0, 64, 63
2,75443, Control_c, 0, 64, 65
2,75457, Control_c, 0, 64, 68
2,75472, Control_c, 0, 64, 71
2,75485, Note_on_c, 0, 72, 77
2,75488, Control_c, 0, 64, 74
2,75504, Control_c, 0, 64, 78
2,75520, Control_c, 0, 64, 81
2,75530, Note_on_c, 0, 74, 0
2,75535, Control_c, 0, 64, 82
2,75542, Note_on_c, 0, 57, 0
2,75657, Control_c, 0, 64, 81
2,75672, Control_c, 0, 64, 80
2,75688, Control_c, 0, 64, 78
2,75703, Control_c, 0, 64, 75
2,75718, Control_c, 0, 64, 72
2,75725, Note_on_c, 0, 55, 67
2,75725, Note_on_c, 0, 71, 73
2,75733, Control_c, 0, 64, 70
2,75743, Note_on_c, 0, 54, 0
2,75748, Control_c, 0, 64, 69
2,75748, Note_on_c, 0, 72, 0
2,75764, Control_c, 0, 64, 67
2,75785, Control_c, 0, 64, 66
2,75801, Control_c, 0, 64, 65
2,75816, Control_c, 0, 64, 64
2,75831, Control_c, 0, 64, 63
2,75847, Control_c, 0, 64, 62
2,75862, Control_c, 0, 64, 62
2,75923, Control_c, 0, 64, 61
2,75953, Control_c, 0, 64, 61
2,75969, Control_c, 0, 64, 60
2,76000, Control_c, 0, 64, 60
2,76000, Note_on_c, 0, 53, 73
2,76015, Control_c, 0, 64, 59
2,76045, Control_c, 0, 64, 59
2,76049, Note_on_c, 0, 55, 0
2,76091, Control_c, 0, 64, 58
2,76206, Note_on_c, 0, 70, 72
2,76211, Note_on_c, 0, 67, 60
2,76214, Note_on_c, 0, 52, 65
2,76224, Note_on_c, 0, 71, 0
2,76244, Control_c, 0, 64, 58
2,76257, Note_on_c, 0, 53, 0
2,76422, Note_on_c, 0, 50, 70
2,76433, Note_on_c, 0, 52, 0
2,76487, Control_c, 0, 64, 57
2,76638, Note_on_c, 0, 69, 68
2,76645, Note_on_c, 0, 49, 59
2,76676, Note_on_c, 0, 50, 0
2,76681, Note_on_c, 0, 70, 0
2,76737, Control_c, 0, 64, 57
2,76843, Note_on_c, 0, 52, 57
2,76852, Note_on_c, 0, 49, 0
2,76870, Note_on_c, 0, 67, 0
2,77054, Note_on_c, 0, 50, 57
2,77055, Note_on_c, 0, 65, 67
2,77091, Note_on_c, 0, 52, 0
2,77257, Note_on_c, 0, 48, 59
2,77259, Note_on_c, 0, 64, 65
2,77266, Note_on_c, 0, 65, 0
2,77296, Note_on_c, 0, 50, 0
2,77369, Control_c, 0, 64, 56
2,77384, Control_c, 0, 64, 54
2,77399, Control_c, 0, 64, 52
2,77414, Control_c, 0, 64, 51
2,77429, Control_c, 0, 64, 50
2,77475, Control_c, 0, 64, 51
2,77479, Note_on_c, 0, 62, 64
2,77482, Note_on_c, 0, 64, 0
2,77486, Note_on_c, 0, 47, 60
2,77490, Control_c, 0, 64, 51
2,77491, Note_on_c, 0, 48, 0
2,77535, Control_c, 0, 64, 52
2,77597, Control_c, 0, 64, 52
2,77695, Note_on_c, 0, 65, 61
2,77702, Control_c, 0, 64, 53
2,77710, Note_on_c, 0, 62, 0
2,77734, Control_c, 0, 64, 53
2,77901, Control_c, 0, 64, 54
2,77907, Note_on_c, 0, 67, 61
2,77910, Note_on_c, 0, 47, 0
2,77917, Note_on_c, 0, 65, 0
2,77918, Note_on_c, 0, 64, 44
2,77920, Note_on_c, 0, 46, 49
2,77924, Note_on_c, 0, 69, 0
2,78152, Note_on_c, 0, 62, 56
2,78155, Note_on_c, 0, 64, 0
2,78365, Note_on_c, 0, 62, 0
2,78366, Note_on_c, 0, 45, 44
2,78375, Note_on_c, 0, 61, 48
2,78384, Note_on_c, 0, 46, 0
2,78611, Note_on_c, 0, 45, 0
2,78613, Note_on_c, 0, 57, 60
2,78839, Note_on_c, 0, 58, 61
2,78846, Note_on_c, 0, 65, 57
2,78858, Note_on_c, 0, 62, 39
2,78861, Note_on_c, 0, 57, 0
2,78867, Note_on_c, 0, 61, 0
2,78889, Control_c, 0, 64, 54
2,78969, Note_on_c, 0, 67, 0
2,79075, Note_on_c, 0, 57, 58
2,79079, Note_on_c, 0, 58, 0
2,79296, Note_on_c, 0, 55, 52
2,79305, Note_on_c, 0, 64, 53
2,79320, Note_on_c, 0, 57, 0
2,79335, Note_on_c, 0, 65, 0
2,79451, Control_c, 0, 64, 54
2,79544, Note_on_c, 0, 58, 57
2,79558, Note_on_c, 0, 55, 0
2,79732, Control_c, 0, 64, 53
2,79773, Note_on_c, 0, 58, 0
2,79778, Control_c, 0, 64, 53
2,79790, Note_on_c, 0, 57, 48
2,79790, Note_on_c, 0, 62, 0
2,79793, Control_c, 0, 64, 52
2,79798, Note_on_c, 0, 61, 48
2,79824, Control_c, 0, 64, 51
2,79840, Control_c, 0, 64, 51
2,79854, Control_c, 0, 64, 50
2,79869, Control_c, 0, 64, 48
2,79885, Control_c, 0, 64, 46
2,79900, Control_c, 0, 64, 45
2,79961, Control_c, 0, 64, 47
2,79976, Control_c, 0, 64, 49
2,79991, Control_c, 0, 64, 51
2,80006, Control_c, 0, 64, 54
2,80020, Note_on_c, 0, 64, 0
2,80021, Control_c, 0, 64, 56
2,80037, Control_c, 0, 64, 58
2,80051, Control_c, 0, 64, 60
2,80064, Note_on_c, 0, 55, 48
2,80066, Control_c, 0, 64, 61
2,80078, Note_on_c, 0, 57, 0
2,80082, Control_c, 0, 64, 62
2,80097, Control_c, 0, 64, 63
2,80112, Control_c, 0, 64, 65
2,80128, Control_c, 0, 64, 66
2,80142, Control_c, 0, 64, 68
2,80158, Control_c, 0, 64, 69
2,80173, Control_c, 0, 64, 71
2,80189, Control_c, 0, 64, 72
2,80205, Control_c, 0, 64, 73
2,80220, Control_c, 0, 64, 73
2,80234, Control_c, 0, 64, 74
2,80295, Control_c, 0, 64, 73
2,80326, Control_c, 0, 64, 73
2,80341, Control_c, 0, 64, 72
2,80347, Note_on_c, 0, 55, 0
2,80350, Note_on_c, 0, 53, 48
2,80357, Control_c, 0, 64, 72
2,80361, Note_on_c, 0, 62, 61
2,80371, Control_c, 0, 64, 71
2,80391, Note_on_c, 0, 61, 0
2,80394, Control_c, 0, 64, 70
2,80410, Control_c, 0, 64, 69
2,80425, Control_c, 0, 64, 68
2,80441, Control_c, 0, 64, 67
2,80455, Control_c, 0, 64, 65
2,80470, Control_c, 0, 64, 64
2,80485, Control_c, 0, 64, 63
2,80500, Control_c, 0, 64, 63
2,80530, Control_c, 0, 64, 62
2,80545, Control_c, 0, 64, 61
2,80561, Control_c, 0, 64, 61
2,80576, Control_c, 0, 64, 60
2,80591, Control_c, 0, 64, 60
2,80607, Control_c, 0, 64, 59
2,80622, Control_c, 0, 64, 59
2,80638, Control_c, 0, 64, 58
2,80652, Control_c, 0, 64, 58
2,80658, Note_on_c, 0, 60, 56
2,80659, Note_on_c, 0, 53, 0
2,80665, Note_on_c, 0, 57, 43
2,80683, Control_c, 0, 64, 57
2,80697, Control_c, 0, 64, 57
2,80728, Control_c, 0, 64, 56
2,80773, Control_c, 0, 64, 56
2,80873, Note_on_c, 0, 57, 0
2,80897, Note_on_c, 0, 55, 43
2,80901, Note_on_c, 0, 58, 53
2,80914, Note_on_c, 0, 60, 0
2,80940, Control_c, 0, 64, 55
2,81017, Control_c, 0, 64, 55
2,81090, Note_on_c, 0, 55, 0
2,81104, Note_on_c, 0, 58, 0
2,81110, Note_on_c, 0, 53, 43
2,81113, Note_on_c, 0, 57, 53
2,81192, Control_c, 0, 64, 54
2,81343, Control_c, 0, 64, 54
2,81343, Note_on_c, 0, 52, 43
2,81352, Note_on_c, 0, 55, 44
2,81369, Note_on_c, 0, 53, 0
2,81380, Note_on_c, 0, 57, 0
2,81410, Note_on_c, 0, 62, 0
2,81465, Control_c, 0, 64, 53
2,81558, Note_on_c, 0, 50, 48
2,81564, Note_on_c, 0, 52, 0
2,81570, Note_on_c, 0, 58, 55
2,81571, Note_on_c, 0, 55, 0
2,81766, Note_on_c, 0, 50, 0
2,81771, Note_on_c, 0, 49, 46
2,81775, Note_on_c, 0, 57, 54
2,81822, Note_on_c, 0, 58, 0
2,81861, Control_c, 0, 64, 53
2,81967, Note_on_c, 0, 49, 0
2,81979, Note_on_c, 0, 57, 0
2,81982, Note_on_c, 0, 55, 48
2,81994, Note_on_c, 0, 52, 42
2,82206, Note_on_c, 0, 50, 47
2,82207, Note_on_c, 0, 55, 0
2,82215, Note_on_c, 0, 52, 0
2,82217, Note_on_c, 0, 53, 50
2,82410, Note_on_c, 0, 53, 0
2,82414, Note_on_c, 0, 57, 53
2,82415, Note_on_c, 0, 48, 53
2,82427, Note_on_c, 0, 50, 0
2,82627, Note_on_c, 0, 55, 56
2,82628, Note_on_c, 0, 46, 53
2,82648, Note_on_c, 0, 57, 0
2,82649, Note_on_c, 0, 48, 0
2,82833, Note_on_c, 0, 46, 0
2,82837, Note_on_c, 0, 45, 46
2,82837, Note_on_c, 0, 55, 0
2,82848, Note_on_c, 0, 53, 59
2,83051, Note_on_c, 0, 43, 46
2,83051, Note_on_c, 0, 45, 0
2,83054, Note_on_c, 0, 52, 53
2,83072, Note_on_c, 0, 53, 0
2,83270, Note_on_c, 0, 52, 0
2,83272, Note_on_c, 0, 50, 51
2,83273, Note_on_c, 0, 43, 0
2,83283, Note_on_c, 0, 46, 47
2,83518, Note_on_c, 0, 49, 51
2,83525, Note_on_c, 0, 50, 0
2,83534, Note_on_c, 0, 45, 39
2,83568, Note_on_c, 0, 46, 0
2,83760, Note_on_c, 0, 52, 48
2,83770, Note_on_c, 0, 43, 44
2,83775, Note_on_c, 0, 49, 0
2,83812, Note_on_c, 0, 45, 0
2,84040, Note_on_c, 0, 52, 0
2,84053, Note_on_c, 0, 41, 45
2,84057, Note_on_c, 0, 50, 50
2,84128, Note_on_c, 0, 43, 0
2,84252, Note_on_c, 0, 52, 52
2,84272, Note_on_c, 0, 50, 0
2,84385, Note_on_c, 0, 52, 0
2,84402, Note_on_c, 0, 53, 50
2,84442, Control_c, 0, 64, 52
2,84458, Control_c, 0, 64, 52
2,84488, Control_c, 0, 64, 51
2,84504, Control_c, 0, 64, 49
2,84518, Control_c, 0, 64, 44
2,84518, Note_on_c, 0, 53, 0
2,84534, Control_c, 0, 64, 31
2,84537, Note_on_c, 0, 41, 0
2,84549, Control_c, 0, 64, 0
2,84552, Note_on_c, 0, 46, 50
2,84554, Note_on_c, 0, 55, 55
2,84671, Control_c, 0, 64, 34
2,84686, Control_c, 0, 64, 49
2,84702, Control_c, 0, 64, 54
2,84704, Note_on_c, 0, 55, 0
2,84706, Note_on_c, 0, 53, 55
2,84716, Control_c, 0, 64, 56
2,84732, Control_c, 0, 64, 59
2,84747, Control_c, 0, 64, 61
2,84761, Control_c, 0, 64, 63
2,84777, Control_c, 0, 64, 65
2,84792, Control_c, 0, 64, 69
2,84807, Control_c, 0, 64, 73
2,84823, Control_c, 0, 64, 77
2,84837, Control_c, 0, 64, 82
2,84845, Note_on_c, 0, 53, 0
2,84850, Note_on_c, 0, 52, 59
2,84853, Control_c, 0, 64, 85
2,84868, Control_c, 0, 64, 87
2,84883, Control_c, 0, 64, 90
2,84899, Control_c, 0, 64, 90
2,84913, Control_c, 0, 64, 91
2,84914, Note_on_c, 0, 46, 0
2,84974, Note_on_c, 0, 52, 0
2,84975, Control_c, 0, 64, 90
2,84997, Control_c, 0, 64, 90
2,85001, Note_on_c, 0, 53, 58
2,85013, Control_c, 0, 64, 89
2,85016, Note_on_c, 0, 45, 51
2,85028, Control_c, 0, 64, 87
2,85043, Control_c, 0, 64, 85
2,85058, Control_c, 0, 64, 82
2,85073, Control_c, 0, 64, 79
2,85087, Control_c, 0, 64, 76
2,85104, Control_c, 0, 64, 74
2,85119, Control_c, 0, 64, 70
2,85135, Control_c, 0, 64, 67
2,85149, Control_c, 0, 64, 64
2,85155, Note_on_c, 0, 55, 58
2,85164, Control_c, 0, 64, 61
2,85172, Note_on_c, 0, 53, 0
2,85176, Note_on_c, 0, 43, 48
2,85180, Control_c, 0, 64, 59
2,85185, Note_on_c, 0, 45, 0
2,85195, Control_c, 0, 64, 59
2,85210, Control_c, 0, 64, 58
2,85225, Control_c, 0, 64, 56
2,85240, Control_c, 0, 64, 55
2,85256, Control_c, 0, 64, 55
2,85271, Control_c, 0, 64, 54
2,85302, Control_c, 0, 64, 53
2,85306, Note_on_c, 0, 57, 60
2,85307, Note_on_c, 0, 41, 60
2,85307, Note_on_c, 0, 55, 0
2,85313, Note_on_c, 0, 43, 0
2,85316, Control_c, 0, 64, 52
2,85347, Control_c, 0, 64, 52
2,85438, Control_c, 0, 64, 51
2,85460, Note_on_c, 0, 41, 0
2,85460, Note_on_c, 0, 57, 0
2,85467, Note_on_c, 0, 58, 64
2,85468, Note_on_c, 0, 40, 53
2,85469, Control_c, 0, 64, 51
2,85483, Control_c, 0, 64, 49
2,85499, Control_c, 0, 64, 45
2,85514, Control_c, 0, 64, 38
2,85530, Control_c, 0, 64, 28
2,85545, Control_c, 0, 64, 19
2,85559, Control_c, 0, 64, 18
2,85590, Control_c, 0, 64, 20
2,85597, Note_on_c, 0, 40, 0
2,85599, Note_on_c, 0, 41, 55
2,85603, Note_on_c, 0, 57, 64
2,85604, Control_c, 0, 64, 28
2,85618, Note_on_c, 0, 58, 0
2,85620, Control_c, 0, 64, 38
2,85635, Control_c, 0, 64, 47
2,85651, Control_c, 0, 64, 52
2,85666, Control_c, 0, 64, 54
2,85680, Control_c, 0, 64, 56
2,85696, Control_c, 0, 64, 58
2,85711, Control_c, 0, 64, 59
2,85726, Control_c, 0, 64, 60
2,85742, Control_c, 0, 64, 61
2,85745, Note_on_c, 0, 57, 0
2,85751, Note_on_c, 0, 55, 70
2,85763, Note_on_c, 0, 43, 62
2,85764, Control_c, 0, 64, 62
2,85766, Note_on_c, 0, 41, 0
2,85780, Control_c, 0, 64, 63
2,85795, Control_c, 0, 64, 63
2,85811, Control_c, 0, 64, 64
2,85816, Note_on_c, 0, 55, 0
2,85892, Note_on_c, 0, 43, 0
2,85905, Note_on_c, 0, 41, 56
2,85924, Note_on_c, 0, 62, 74
2,85928, Note_on_c, 0, 57, 54
2,85933, Control_c, 0, 64, 63
2,85963, Control_c, 0, 64, 63
2,85979, Control_c, 0, 64, 62
2,86008, Control_c, 0, 64, 62
2,86058, Note_on_c, 0, 64, 68
2,86069, Control_c, 0, 64, 61
2,86074, Note_on_c, 0, 40, 59
2,86097, Note_on_c, 0, 62, 0
2,86104, Note_on_c, 0, 41, 0
2,86213, Note_on_c, 0, 65, 75
2,86223, Note_on_c, 0, 40, 0
2,86225, Note_on_c, 0, 38, 61
2,86247, Note_on_c, 0, 64, 0
2,86313, Control_c, 0, 64, 61
2,86365, Note_on_c, 0, 67, 77
2,86374, Control_c, 0, 64, 60
2,86376, Note_on_c, 0, 65, 0
2,86378, Note_on_c, 0, 37, 62
2,86384, Note_on_c, 0, 38, 0
2,86419, Control_c, 0, 64, 60
2,86434, Control_c, 0, 64, 59
2,86439, Note_on_c, 0, 57, 0
2,86448, Control_c, 0, 64, 59
2,86479, Control_c, 0, 64, 58
2,86495, Control_c, 0, 64, 58
2,86510, Control_c, 0, 64, 57
2,86511, Note_on_c, 0, 65, 74
2,86515, Note_on_c, 0, 38, 62
2,86533, Control_c, 0, 64, 57
2,86534, Note_on_c, 0, 37, 0
2,86543, Note_on_c, 0, 67, 0
2,86548, Control_c, 0, 64, 56
2,86563, Control_c, 0, 64, 56
2,86594, Control_c, 0, 64, 55
2,86608, Control_c, 0, 64, 53
2,86624, Control_c, 0, 64, 50
2,86639, Control_c, 0, 64, 43
2,86654, Control_c, 0, 64, 17
2,86658, Note_on_c, 0, 38, 0
2,86661, Note_on_c, 0, 64, 79
2,86669, Control_c, 0, 64, 0
2,86672, Note_on_c, 0, 65, 0
2,86680, Note_on_c, 0, 40, 56
2,86792, Control_c, 0, 64, 39
2,86807, Control_c, 0, 64, 53
2,86810, Note_on_c, 0, 65, 78
2,86814, Note_on_c, 0, 38, 70
2,86823, Control_c, 0, 64, 60
2,86825, Note_on_c, 0, 40, 0
2,86830, Note_on_c, 0, 64, 0
2,86837, Control_c, 0, 64, 64
2,86853, Control_c, 0, 64, 68
2,86868, Control_c, 0, 64, 75
2,86878, Note_on_c, 0, 38, 0
2,86883, Control_c, 0, 64, 87
2,86898, Control_c, 0, 64, 102
2,86907, Note_on_c, 0, 65, 0
2,86913, Control_c, 0, 64, 127
2,86966, Note_on_c, 0, 67, 78
2,86972, Note_on_c, 0, 55, 74
2,87068, Control_c, 0, 64, 113
2,87083, Control_c, 0, 64, 102
2,87098, Control_c, 0, 64, 94
2,87113, Control_c, 0, 64, 89
2,87115, Note_on_c, 0, 53, 74
2,87119, Note_on_c, 0, 69, 81
2,87129, Control_c, 0, 64, 85
2,87133, Note_on_c, 0, 55, 0
2,87144, Control_c, 0, 64, 81
2,87157, Note_on_c, 0, 67, 0
2,87159, Control_c, 0, 64, 78
2,87176, Control_c, 0, 64, 74
2,87191, Control_c, 0, 64, 71
2,87207, Control_c, 0, 64, 68
2,87222, Control_c, 0, 64, 67
2,87238, Control_c, 0, 64, 65
2,87252, Control_c, 0, 64, 64
2,87265, Note_on_c, 0, 52, 74
2,87267, Control_c, 0, 64, 64
2,87269, Note_on_c, 0, 70, 86
2,87272, Note_on_c, 0, 53, 0
2,87283, Control_c, 0, 64, 63
2,87302, Note_on_c, 0, 69, 0
2,87305, Control_c, 0, 64, 62
2,87321, Control_c, 0, 64, 61
2,87336, Control_c, 0, 64, 61
2,87351, Control_c, 0, 64, 60
2,87397, Control_c, 0, 64, 60
2,87424, Note_on_c, 0, 69, 85
2,87425, Note_on_c, 0, 53, 77
2,87437, Note_on_c, 0, 52, 0
2,87458, Control_c, 0, 64, 59
2,87463, Note_on_c, 0, 70, 0
2,87489, Control_c, 0, 64, 59
2,87579, Note_on_c, 0, 67, 84
2,87580, Note_on_c, 0, 55, 78
2,87580, Note_on_c, 0, 69, 0
2,87583, Note_on_c, 0, 53, 0
2,87718, Control_c, 0, 64, 59
2,87750, Note_on_c, 0, 53, 74
2,87758, Note_on_c, 0, 55, 0
2,87766, Note_on_c, 0, 69, 88
2,88006, Note_on_c, 0, 67, 0
2,88020, Note_on_c, 0, 40, 81
2,88076, Control_c, 0, 64, 59
2,88106, Control_c, 0, 64, 58
2,88137, Control_c, 0, 64, 58
2,88144, Note_on_c, 0, 53, 0
2,88152, Control_c, 0, 64, 57
2,88167, Control_c, 0, 64, 57
2,88182, Control_c, 0, 64, 56
2,88198, Control_c, 0, 64, 56
2,88213, Control_c, 0, 64, 55
2,88227, Control_c, 0, 64, 54
2,88243, Control_c, 0, 64, 54
2,88258, Control_c, 0, 64, 53
2,88274, Control_c, 0, 64, 52
2,88289, Control_c, 0, 64, 51
2,88292, Note_on_c, 0, 74, 82
2,88294, Note_on_c, 0, 41, 67
2,88302, Note_on_c, 0, 65, 73
2,88304, Control_c, 0, 64, 49
2,88317, Note_on_c, 0, 69, 0
2,88320, Control_c, 0, 64, 48
2,88335, Control_c, 0, 64, 47
2,88351, Control_c, 0, 64, 46
2,88365, Control_c, 0, 64, 45
2,88371, Note_on_c, 0, 40, 0
2,88380, Control_c, 0, 64, 44
2,88396, Control_c, 0, 64, 43
2,88442, Control_c, 0, 64, 42
2,88515, Note_on_c, 0, 43, 79
2,88560, Note_on_c, 0, 41, 0
2,88564, Control_c, 0, 64, 43
2,88594, Control_c, 0, 64, 43
2,88609, Control_c, 0, 64, 44
2,88613, Note_on_c, 0, 65, 0
2,88624, Control_c, 0, 64, 44
2,88655, Control_c, 0, 64, 45
2,88670, Control_c, 0, 64, 45
2,88685, Control_c, 0, 64, 46
2,88700, Control_c, 0, 64, 46
2,88715, Control_c, 0, 64, 47
2,88726, Note_on_c, 0, 73, 83
2,88730, Control_c, 0, 64, 47
2,88738, Note_on_c, 0, 45, 64
2,88743, Note_on_c, 0, 64, 58
2,88745, Control_c, 0, 64, 48
2,88764, Note_on_c, 0, 43, 0
2,88766, Note_on_c, 0, 74, 0
2,88776, Control_c, 0, 64, 48
2,88791, Control_c, 0, 64, 49
2,88806, Control_c, 0, 64, 49
2,88821, Control_c, 0, 64, 50
2,88860, Control_c, 0, 64, 50
2,88890, Control_c, 0, 64, 51
2,88934, Control_c, 0, 64, 51
2,88946, Note_on_c, 0, 45, 0
2,88946, Note_on_c, 0, 47, 65
2,89107, Note_on_c, 0, 73, 0
2,89142, Note_on_c, 0, 72, 68
2,89158, Note_on_c, 0, 69, 51
2,89161, Note_on_c, 0, 48, 58
2,89186, Note_on_c, 0, 64, 0
2,89215, Note_on_c, 0, 47, 0
2,89240, Control_c, 0, 64, 52
2,89365, Note_on_c, 0, 45, 65
2,89380, Note_on_c, 0, 48, 0
2,89571, Note_on_c, 0, 50, 54
2,89573, Note_on_c, 0, 71, 74
2,89611, Note_on_c, 0, 45, 0
2,89619, Note_on_c, 0, 72, 0
2,89785, Note_on_c, 0, 49, 69
2,89819, Note_on_c, 0, 50, 0
2,89946, Control_c, 0, 64, 52
2,89992, Control_c, 0, 64, 52
2,90002, Note_on_c, 0, 50, 62
2,90007, Control_c, 0, 64, 49
2,90007, Note_on_c, 0, 70, 88
2,90008, Note_on_c, 0, 49, 0
2,90022, Control_c, 0, 64, 46
2,90038, Control_c, 0, 64, 45
2,90042, Note_on_c, 0, 71, 0
2,90069, Control_c, 0, 64, 47
2,90084, Control_c, 0, 64, 50
2,90099, Control_c, 0, 64, 52
2,90115, Control_c, 0, 64, 55
2,90129, Control_c, 0, 64, 57
2,90144, Control_c, 0, 64, 60
2,90160, Control_c, 0, 64, 62
2,90175, Control_c, 0, 64, 63
2,90191, Control_c, 0, 64, 64
2,90203, Note_on_c, 0, 52, 69
2,90205, Control_c, 0, 64, 65
2,90214, Note_on_c, 0, 69, 0
2,90219, Note_on_c, 0, 50, 0
2,90220, Control_c, 0, 64, 67
2,90221, Note_on_c, 0, 67, 77
2,90236, Control_c, 0, 64, 70
2,90251, Control_c, 0, 64, 72
2,90265, Control_c, 0, 64, 75
2,90281, Control_c, 0, 64, 76
2,90296, Control_c, 0, 64, 78
2,90312, Control_c, 0, 64, 79
2,90327, Control_c, 0, 64, 80
2,90331, Note_on_c, 0, 70, 0
2,90410, Control_c, 0, 64, 79
2,90425, Control_c, 0, 64, 78
2,90441, Control_c, 0, 64, 76
2,90447, Note_on_c, 0, 69, 89
2,90455, Note_on_c, 0, 53, 68
2,90456, Control_c, 0, 64, 74
2,90465, Note_on_c, 0, 52, 0
2,90471, Control_c, 0, 64, 72
2,90485, Control_c, 0, 64, 70
2,90500, Control_c, 0, 64, 68
2,90516, Control_c, 0, 64, 67
2,90531, Control_c, 0, 64, 66
2,90546, Control_c, 0, 64, 65
2,90592, Control_c, 0, 64, 64
2,90606, Control_c, 0, 64, 64
2,90637, Control_c, 0, 64, 63
2,90652, Control_c, 0, 64, 63
2,90667, Control_c, 0, 64, 62
2,90669, Note_on_c, 0, 67, 0
2,90683, Control_c, 0, 64, 62
2,90696, Control_c, 0, 64, 61
2,90700, Note_on_c, 0, 47, 69
2,90708, Note_on_c, 0, 65, 80
2,90711, Control_c, 0, 64, 61
2,90727, Control_c, 0, 64, 60
2,90730, Note_on_c, 0, 53, 0
2,90741, Control_c, 0, 64, 60
2,90757, Control_c, 0, 64, 59
2,90772, Control_c, 0, 64, 59
2,90803, Control_c, 0, 64, 58
2,90817, Control_c, 0, 64, 58
2,90849, Control_c, 0, 64, 57
2,90880, Control_c, 0, 64, 57
2,90895, Control_c, 0, 64, 56
2,90909, Control_c, 0, 64, 54
2,90925, Control_c, 0, 64, 51
2,90940, Control_c, 0, 64, 39
2,90956, Control_c, 0, 64, 0
2,90978, Note_on_c, 0, 52, 70
2,90978, Note_on_c, 0, 67, 90
2,90986, Note_on_c, 0, 47, 0
2,91011, Note_on_c, 0, 69, 0
2,91145, Control_c, 0, 64, 28
2,91161, Control_c, 0, 64, 40
2,91175, Control_c, 0, 64, 53
2,91190, Control_c, 0, 64, 60
2,91206, Control_c, 0, 64, 62
2,91206, Note_on_c, 0, 65, 0
2,91221, Control_c, 0, 64, 64
2,91237, Control_c, 0, 64, 64
2,91251, Control_c, 0, 64, 65
2,91266, Control_c, 0, 64, 66
2,91282, Control_c, 0, 64, 66
2,91297, Control_c, 0, 64, 66
2,91309, Note_on_c, 0, 50, 68
2,91322, Note_on_c, 0, 65, 83
2,91327, Control_c, 0, 64, 65
2,91357, Note_on_c, 0, 52, 0
2,91358, Control_c, 0, 64, 65
2,91433, Control_c, 0, 64, 64
2,91494, Control_c, 0, 64, 64
2,91525, Control_c, 0, 64, 62
2,91540, Control_c, 0, 64, 58
2,91549, Note_on_c, 0, 49, 69
2,91553, Note_on_c, 0, 64, 80
2,91556, Control_c, 0, 64, 50
2,91564, Note_on_c, 0, 50, 0
2,91570, Control_c, 0, 64, 46
2,91596, Note_on_c, 0, 65, 0
2,91601, Control_c, 0, 64, 49
2,91616, Control_c, 0, 64, 53
2,91631, Control_c, 0, 64, 57
2,91647, Control_c, 0, 64, 59
2,91662, Control_c, 0, 64, 61
2,91678, Control_c, 0, 64, 62
2,91693, Control_c, 0, 64, 63
2,91708, Control_c, 0, 64, 63
2,91716, Note_on_c, 0, 67, 0
2,91738, Control_c, 0, 64, 64
2,91769, Control_c, 0, 64, 64
2,91784, Control_c, 0, 64, 65
2,91786, Note_on_c, 0, 45, 69
2,91787, Note_on_c, 0, 67, 83
2,91800, Control_c, 0, 64, 65
2,91814, Control_c, 0, 64, 66
2,91820, Note_on_c, 0, 49, 0
2,91832, Note_on_c, 0, 64, 0
2,91876, Control_c, 0, 64, 66
2,91912, Control_c, 0, 64, 67
2,91928, Control_c, 0, 64, 67
2,91959, Control_c, 0, 64, 68
2,92050, Control_c, 0, 64, 67
2,92062, Note_on_c, 0, 50, 68
2,92062, Note_on_c, 0, 65, 86
2,92065, Control_c, 0, 64, 66
2,92072, Note_on_c, 0, 62, 71
2,92081, Control_c, 0, 64, 64
2,92095, Control_c, 0, 64, 60
2,92095, Note_on_c, 0, 67, 0
2,92110, Control_c, 0, 64, 55
2,92118, Note_on_c, 0, 45, 0
2,92126, Control_c, 0, 64, 55
2,92141, Control_c, 0, 64, 56
2,92157, Control_c, 0, 64, 57
2,92171, Control_c, 0, 64, 59
2,92186, Control_c, 0, 64, 61
2,92202, Control_c, 0, 64, 62
2,92216, Control_c, 0, 64, 63
2,92231, Control_c, 0, 64, 64
2,92247, Control_c, 0, 64, 65
2,92262, Control_c, 0, 64, 66
2,92278, Control_c, 0, 64, 68
2,92292, Control_c, 0, 64, 70
2,92307, Control_c, 0, 64, 71
2,92323, Control_c, 0, 64, 73
2,92368, Control_c, 0, 64, 72
2,92383, Control_c, 0, 64, 71
2,92399, Control_c, 0, 64, 70
2,92399, Note_on_c, 0, 55, 74
2,92400, Note_on_c, 0, 50, 0
2,92402, Note_on_c, 0, 64, 85
2,92414, Control_c, 0, 64, 67
2,92417, Note_on_c, 0, 65, 0
2,92429, Control_c, 0, 64, 63
2,92445, Control_c, 0, 64, 58
2,92460, Control_c, 0, 64, 55
2,92476, Control_c, 0, 64, 56
2,92491, Control_c, 0, 64, 58
2,92506, Control_c, 0, 64, 59
2,92521, Control_c, 0, 64, 61
2,92536, Control_c, 0, 64, 62
2,92551, Control_c, 0, 64, 63
2,92567, Control_c, 0, 64, 64
2,92582, Control_c, 0, 64, 65
2,92598, Control_c, 0, 64, 67
2,92613, Control_c, 0, 64, 67
2,92628, Control_c, 0, 64, 68
2,92643, Control_c, 0, 64, 69
2,92681, Control_c, 0, 64, 69
2,92757, Control_c, 0, 64, 70
2,92772, Control_c, 0, 64, 69
2,92818, Control_c, 0, 64, 69
2,92833, Control_c, 0, 64, 68
2,92837, Note_on_c, 0, 57, 70
2,92846, Note_on_c, 0, 65, 83
2,92848, Control_c, 0, 64, 68
2,92863, Control_c, 0, 64, 67
2,92863, Note_on_c, 0, 64, 0
2,92879, Control_c, 0, 64, 64
2,92880, Note_on_c, 0, 55, 0
2,92894, Control_c, 0, 64, 61
2,92909, Control_c, 0, 64, 57
2,92925, Control_c, 0, 64, 56
2,92939, Control_c, 0, 64, 56
2,92954, Control_c, 0, 64, 57
2,92970, Control_c, 0, 64, 57
2,93047, Note_on_c, 0, 64, 82
2,93059, Note_on_c, 0, 65, 0
2,93151, Control_c, 0, 64, 58
2,93179, Note_on_c, 0, 65, 82
2,93182, Control_c, 0, 64, 58
2,93185, Note_on_c, 0, 64, 0
2,93198, Control_c, 0, 64, 59
2,93227, Control_c, 0, 64, 59
2,93258, Control_c, 0, 64, 60
2,93273, Control_c, 0, 64, 60
2,93288, Note_on_c, 0, 65, 0
2,93294, Note_on_c, 0, 64, 77
2,93335, Control_c, 0, 64, 61
2,93350, Control_c, 0, 64, 61
2,93366, Note_on_c, 0, 64, 0
2,93380, Control_c, 0, 64, 62
2,93382, Note_on_c, 0, 65, 74
2,93396, Control_c, 0, 64, 62
2,93411, Control_c, 0, 64, 63
2,93426, Control_c, 0, 64, 63
2,93447, Note_on_c, 0, 65, 0
2,93449, Control_c, 0, 64, 64
2,93459, Note_on_c, 0, 64, 69
2,93480, Control_c, 0, 64, 64
2,93495, Control_c, 0, 64, 65
2,93500, Note_on_c, 0, 64, 0
2,93509, Control_c, 0, 64, 65
2,93524, Note_on_c, 0, 65, 74
2,93540, Control_c, 0, 64, 66
2,93568, Note_on_c, 0, 65, 0
2,93571, Control_c, 0, 64, 66
2,93586, Note_on_c, 0, 64, 64
2,93601, Control_c, 0, 64, 67
2,93616, Control_c, 0, 64, 67
2,93617, Note_on_c, 0, 64, 0
2,93628, Note_on_c, 0, 65, 69
2,93631, Control_c, 0, 64, 68
2,93647, Control_c, 0, 64, 69
2,93661, Control_c, 0, 64, 70
2,93677, Control_c, 0, 64, 71
2,93679, Note_on_c, 0, 65, 0
2,93692, Control_c, 0, 64, 71
2,93694, Note_on_c, 0, 64, 74
2,93707, Control_c, 0, 64, 73
2,93723, Control_c, 0, 64, 74
2,93728, Note_on_c, 0, 64, 0
2,93738, Control_c, 0, 64, 75
2,93738, Note_on_c, 0, 65, 65
2,93753, Control_c, 0, 64, 77
2,93769, Control_c, 0, 64, 78
2,93782, Note_on_c, 0, 65, 0
2,93783, Control_c, 0, 64, 79
2,93787, Note_on_c, 0, 64, 65
2,93799, Control_c, 0, 64, 79
2,93814, Control_c, 0, 64, 81
2,93827, Note_on_c, 0, 64, 0
2,93829, Control_c, 0, 64, 82
2,93832, Note_on_c, 0, 65, 62
2,93845, Control_c, 0, 64, 82
2,93853, Note_on_c, 0, 62, 0
2,93859, Control_c, 0, 64, 83
2,93874, Control_c, 0, 64, 84
2,93890, Control_c, 0, 64, 85
2,93903, Note_on_c, 0, 64, 86
2,93904, Control_c, 0, 64, 86
2,93920, Control_c, 0, 64, 87
2,93920, Note_on_c, 0, 65, 0
2,93935, Control_c, 0, 64, 87
2,93950, Control_c, 0, 64, 88
2,93980, Control_c, 0, 64, 89
2,94056, Control_c, 0, 64, 89
2,94071, Control_c, 0, 64, 90
2,94087, Control_c, 0, 64, 91
2,94179, Control_c, 0, 64, 90
2,94190, Note_on_c, 0, 57, 0
2,94194, Control_c, 0, 64, 90
2,94194, Note_on_c, 0, 61, 76
2,94196, Note_on_c, 0, 45, 68
2,94217, Control_c, 0, 64, 88
2,94232, Control_c, 0, 64, 86
2,94248, Control_c, 0, 64, 81
2,94263, Control_c, 0, 64, 73
2,94279, Control_c, 0, 64, 65
2,94293, Control_c, 0, 64, 56
2,94308, Control_c, 0, 64, 48
2,94324, Control_c, 0, 64, 49
2,94339, Control_c, 0, 64, 52
2,94353, Control_c, 0, 64, 56
2,94369, Control_c, 0, 64, 59
2,94384, Control_c, 0, 64, 61
2,94400, Control_c, 0, 64, 63
2,94415, Control_c, 0, 64, 65
2,94429, Control_c, 0, 64, 67
2,94445, Control_c, 0, 64, 70
2,94460, Control_c, 0, 64, 74
2,94474, Control_c, 0, 64, 79
2,94490, Control_c, 0, 64, 86
2,94505, Control_c, 0, 64, 94
2,94509, Note_on_c, 0, 64, 0
2,94521, Control_c, 0, 64, 105
2,94536, Control_c, 0, 64, 127
2,94990, Note_on_c, 0, 62, 78
2,95047, Control_c, 0, 64, 106
2,95061, Control_c, 0, 64, 86
2,95078, Control_c, 0, 64, 74
2,95092, Control_c, 0, 64, 67
2,95107, Control_c, 0, 64, 65
2,95123, Control_c, 0, 64, 67
2,95138, Control_c, 0, 64, 70
2,95153, Control_c, 0, 64, 74
2,95169, Control_c, 0, 64, 81
2,95183, Control_c, 0, 64, 90
2,95199, Control_c, 0, 64, 112
2,95214, Control_c, 0, 64, 127
2,95249, Note_on_c, 0, 45, 0
2,95314, Note_on_c, 0, 62, 0
2,95460, Note_on_c, 0, 61, 0
2,96372, Note_on_c, 0, 62, 78
2,96375, Note_on_c, 0, 38, 62
2,96483, Control_c, 0, 64, 119
2,96498, Control_c, 0, 64, 99
2,96521, Control_c, 0, 64, 89
2,96535, Control_c, 0, 64, 82
2,96550, Control_c, 0, 64, 77
2,96566, Control_c, 0, 64, 75
2,96582, Control_c, 0, 64, 72
2,96597, Control_c, 0, 64, 70
2,96612, Control_c, 0, 64, 67
2,96627, Control_c, 0, 64, 65
2,96643, Control_c, 0, 64, 64
2,96658, Control_c, 0, 64, 64
2,96673, Control_c, 0, 64, 63
2,96688, Control_c, 0, 64, 62
2,96703, Control_c, 0, 64, 61
2,96719, Control_c, 0, 64, 60
2,96734, Control_c, 0, 64, 59
2,96749, Control_c, 0, 64, 58
2,96765, Control_c, 0, 64, 57
2,96780, Control_c, 0, 64, 55
2,96796, Control_c, 0, 64, 54
2,96810, Control_c, 0, 64, 52
2,96825, Control_c, 0, 64, 51
2,96841, Control_c, 0, 64, 50
2,96856, Control_c, 0, 64, 47
2,96871, Control_c, 0, 64, 45
2,96886, Control_c, 0, 64, 44
2,96901, Control_c, 0, 64, 43
2,96917, Control_c, 0, 64, 42
2,96932, Control_c, 0, 64, 41
2,97068, Control_c, 0, 64, 42
2,97083, Control_c, 0, 64, 42
2,97098, Control_c, 0, 64, 43
2,97113, Control_c, 0, 64, 44
2,97129, Control_c, 0, 64, 44
2,97144, Control_c, 0, 64, 45
2,97160, Control_c, 0, 64, 46
2,97174, Control_c, 0, 64, 47
2,97205, Control_c, 0, 64, 48
2,97236, Control_c, 0, 64, 48
2,97251, Control_c, 0, 64, 49
2,97266, Control_c, 0, 64, 49
2,97303, Control_c, 0, 64, 50
2,97396, Control_c, 0, 64, 50
2,97411, Control_c, 0, 64, 51
2,97426, Control_c, 0, 64, 51
2,97471, Control_c, 0, 64, 52
2,97517, Control_c, 0, 64, 52
2,97532, Control_c, 0, 64, 53
2,97547, Control_c, 0, 64, 53
2,97578, Control_c, 0, 64, 54
2,97669, Control_c, 0, 64, 54
2,97821, Control_c, 0, 64, 55
2,98087, Control_c, 0, 64, 55
2,99113, Note_on_c, 0, 62, 0
2,99174, Note_on_c, 0, 38, 0
2,99237, Control_c, 0, 64, 55
2,99328, Control_c, 0, 64, 54
2,99449, Control_c, 0, 64, 54
2,99639, Control_c, 0, 64, 53
2,99775, Control_c, 0, 64, 53
2,99928, Control_c, 0, 64, 52
2,99929, End_track
0, 0, End_of_file
