0, 0, Header, 1, 2, 384
1, 0, Start_track
1, 0, Tempo, 500000
1, 0, Time_signature, 4, 2, 24, 8
1, 1, End_track
2, 0, Start_track
2, 0, Program_c, 0, 0
2, 0, Control_c, 0, 64, 41
2, 252, Control_c, 0, 64, 41
2, 334, Control_c, 0, 64, 42
2, 466, Control_c, 0, 64, 41
2, 472, Note_on_c, 0, 50, 77
2, 481, Control_c, 0, 64, 41
2, 481, Note_on_c, 0, 74, 90
2, 512, Control_c, 0, 64, 40
2, 515, Note_on_c, 0, 49, 78
2, 524, Note_on_c, 0, 50, 0
2, 582, Note_on_c, 0, 50, 73
2, 591, Note_on_c, 0, 49, 0
2, 691, Note_on_c, 0, 72, 85
2, 717, Note_on_c, 0, 74, 0
2, 724, Control_c, 0, 64, 41
2, 784, Note_on_c, 0, 70, 79
2, 799, Note_on_c, 0, 72, 0
2, 845, Control_c, 0, 64, 40
2, 861, Control_c, 0, 64, 40
2, 870, Note_on_c, 0, 50, 0
2, 876, Control_c, 0, 64, 39
2, 878, Note_on_c, 0, 69, 77
2, 884, Note_on_c, 0, 38, 77
2, 891, Control_c, 0, 64, 39
2, 903, Note_on_c, 0, 70, 0
2, 906, Control_c, 0, 64, 38
2, 921, Control_c, 0, 64, 38
2, 937, Control_c, 0, 64, 37
2, 952, Control_c, 0, 64, 35
2, 964, Note_on_c, 0, 69, 0
2, 966, Note_on_c, 0, 67, 78
2, 967, Control_c, 0, 64, 34
2, 990, Control_c, 0, 64, 32
2, 1004, Control_c, 0, 64, 30
2, 1020, Control_c, 0, 64, 29
2, 1036, Control_c, 0, 64, 28
2, 1051, Control_c, 0, 64, 27
2, 1058, Note_on_c, 0, 65, 82
2, 1073, Note_on_c, 0, 67, 0
2, 1083, Control_c, 0, 64, 27
2, 1146, Note_on_c, 0, 64, 81
2, 1163, Note_on_c, 0, 65, 0
2, 1230, Note_on_c, 0, 62, 81
2, 1233, Note_on_c, 0, 64, 0
2, 1280, Control_c, 0, 64, 27
2, 1288, Note_on_c, 0, 38, 0
2, 1313, Note_on_c, 0, 65, 78
2, 1326, Note_on_c, 0, 62, 0
2, 1341, Control_c, 0, 64, 28
2, 1356, Control_c, 0, 64, 28
2, 1371, Control_c, 0, 64, 29
2, 1386, Control_c, 0, 64, 30
2, 1399, Note_on_c, 0, 64, 76
2, 1401, Control_c, 0, 64, 30
2, 1404, Note_on_c, 0, 65, 0
2, 1432, Control_c, 0, 64, 31
2, 1447, Control_c, 0, 64, 31
2, 1463, Control_c, 0, 64, 32
2, 1467, Note_on_c, 0, 64, 0
2, 1477, Note_on_c, 0, 62, 76
2, 1493, Control_c, 0, 64, 32
2, 1563, Note_on_c, 0, 62, 0
2, 1570, Note_on_c, 0, 70, 66
2, 1639, Note_on_c, 0, 70, 0
2, 1659, Note_on_c, 0, 67, 59
2, 1716, Note_on_c, 0, 67, 0
2, 1754, Note_on_c, 0, 62, 64
2, 1770, Note_on_c, 0, 38, 62
2, 1811, Note_on_c, 0, 38, 0
2, 1844, Note_on_c, 0, 62, 0
2, 1849, Note_on_c, 0, 67, 55
2, 1880, Control_c, 0, 64, 32
2, 1895, Control_c, 0, 64, 31
2, 1911, Control_c, 0, 64, 29
2, 1921, Note_on_c, 0, 67, 0
2, 1926, Control_c, 0, 64, 26
2, 1942, Control_c, 0, 64, 23
2, 1944, Note_on_c, 0, 70, 68
2, 1952, Note_on_c, 0, 43, 69
2, 1956, Control_c, 0, 64, 17
2, 1971, Control_c, 0, 64, 11
2, 1981, Note_on_c, 0, 43, 0
2, 1987, Control_c, 0, 64, 0
2, 2013, Note_on_c, 0, 70, 0
2, 2040, Note_on_c, 0, 67, 61
2, 2105, Note_on_c, 0, 67, 0
2, 2123, Note_on_c, 0, 46, 75
2, 2123, Note_on_c, 0, 62, 61
2, 2157, Note_on_c, 0, 46, 0
2, 2198, Note_on_c, 0, 62, 0
2, 2210, Note_on_c, 0, 67, 50
2, 2276, Note_on_c, 0, 67, 0
2, 2297, Note_on_c, 0, 50, 79
2, 2313, Note_on_c, 0, 70, 74
2, 2345, Note_on_c, 0, 49, 74
2, 2351, Note_on_c, 0, 50, 0
2, 2385, Note_on_c, 0, 70, 0
2, 2389, Note_on_c, 0, 67, 74
2, 2417, Note_on_c, 0, 49, 0
2, 2419, Note_on_c, 0, 50, 75
2, 2464, Note_on_c, 0, 67, 0
2, 2478, Note_on_c, 0, 62, 67
2, 2590, Note_on_c, 0, 67, 64
2, 2592, Note_on_c, 0, 62, 0
2, 2602, Control_c, 0, 64, 9
2, 2615, Control_c, 0, 64, 11
2, 2625, Note_on_c, 0, 50, 0
2, 2667, Note_on_c, 0, 67, 0
2, 2669, Note_on_c, 0, 69, 68
2, 2678, Control_c, 0, 64, 12
2, 2762, Note_on_c, 0, 69, 0
2, 2769, Note_on_c, 0, 67, 66
2, 2841, Note_on_c, 0, 67, 0
2, 2847, Note_on_c, 0, 38, 70
2, 2860, Note_on_c, 0, 62, 68
2, 2887, Note_on_c, 0, 38, 0
2, 2890, Control_c, 0, 64, 13
2, 2906, Control_c, 0, 64, 15
2, 2937, Control_c, 0, 64, 16
2, 2956, Note_on_c, 0, 62, 0
2, 2958, Note_on_c, 0, 67, 64
2, 2967, Control_c, 0, 64, 17
2, 3026, Note_on_c, 0, 41, 87
2, 3039, Note_on_c, 0, 67, 0
2, 3040, Note_on_c, 0, 69, 79
2, 3065, Note_on_c, 0, 41, 0
2, 3117, Note_on_c, 0, 69, 0
2, 3121, Note_on_c, 0, 65, 72
2, 3133, Control_c, 0, 64, 17
2, 3196, Note_on_c, 0, 65, 0
2, 3205, Note_on_c, 0, 45, 84
2, 3210, Note_on_c, 0, 62, 68
2, 3238, Note_on_c, 0, 45, 0
2, 3278, Control_c, 0, 64, 18
2, 3293, Control_c, 0, 64, 20
2, 3301, Note_on_c, 0, 62, 0
2, 3301, Note_on_c, 0, 65, 63
2, 3377, Note_on_c, 0, 65, 0
2, 3394, Note_on_c, 0, 50, 83
2, 3395, Note_on_c, 0, 69, 76
2, 3440, Note_on_c, 0, 49, 77
2, 3448, Note_on_c, 0, 50, 0
2, 3471, Note_on_c, 0, 65, 75
2, 3474, Note_on_c, 0, 69, 0
2, 3507, Control_c, 0, 64, 19
2, 3511, Note_on_c, 0, 50, 81
2, 3520, Note_on_c, 0, 49, 0
2, 3522, Control_c, 0, 64, 20
2, 3538, Control_c, 0, 64, 19
2, 3557, Note_on_c, 0, 65, 0
2, 3564, Note_on_c, 0, 62, 71
2, 3650, Note_on_c, 0, 65, 78
2, 3670, Note_on_c, 0, 62, 0
2, 3674, Control_c, 0, 64, 20
2, 3688, Control_c, 0, 64, 19
2, 3734, Note_on_c, 0, 65, 0
2, 3744, Note_on_c, 0, 67, 85
2, 3747, Note_on_c, 0, 50, 0
2, 3823, Note_on_c, 0, 64, 78
2, 3834, Note_on_c, 0, 67, 0
2, 3857, Control_c, 0, 64, 20
2, 3908, Note_on_c, 0, 64, 0
2, 3920, Note_on_c, 0, 58, 94
2, 3927, Note_on_c, 0, 62, 75
2, 3978, Note_on_c, 0, 58, 0
2, 4006, Note_on_c, 0, 64, 72
2, 4011, Note_on_c, 0, 62, 0
2, 4095, Note_on_c, 0, 67, 77
2, 4097, Note_on_c, 0, 52, 82
2, 4101, Note_on_c, 0, 64, 0
2, 4141, Note_on_c, 0, 52, 0
2, 4183, Note_on_c, 0, 67, 0
2, 4202, Note_on_c, 0, 64, 66
2, 4272, Note_on_c, 0, 64, 0
2, 4276, Note_on_c, 0, 55, 86
2, 4284, Note_on_c, 0, 61, 70
2, 4325, Note_on_c, 0, 55, 0
2, 4351, Note_on_c, 0, 61, 0
2, 4367, Note_on_c, 0, 64, 68
2, 4466, Note_on_c, 0, 67, 72
2, 4467, Note_on_c, 0, 49, 69
2, 4468, Note_on_c, 0, 64, 0
2, 4504, Note_on_c, 0, 49, 0
2, 4548, Note_on_c, 0, 67, 0
2, 4563, Control_c, 0, 64, 21
2, 4569, Note_on_c, 0, 64, 65
2, 4579, Control_c, 0, 64, 22
2, 4594, Control_c, 0, 64, 23
2, 4608, Control_c, 0, 64, 23
2, 4624, Control_c, 0, 64, 24
2, 4639, Control_c, 0, 64, 25
2, 4639, Note_on_c, 0, 64, 0
2, 4644, Note_on_c, 0, 57, 69
2, 4654, Control_c, 0, 64, 25
2, 4661, Note_on_c, 0, 61, 64
2, 4670, Control_c, 0, 64, 26
2, 4679, Note_on_c, 0, 57, 0
2, 4694, Note_on_c, 0, 61, 0
2, 4701, Control_c, 0, 64, 26
2, 4734, Note_on_c, 0, 64, 67
2, 4792, Control_c, 0, 64, 26
2, 4796, Note_on_c, 0, 64, 0
2, 4807, Control_c, 0, 64, 25
2, 4829, Control_c, 0, 64, 24
2, 4831, Note_on_c, 0, 65, 82
2, 4832, Note_on_c, 0, 50, 66
2, 4844, Control_c, 0, 64, 24
2, 4860, Control_c, 0, 64, 23
2, 4875, Control_c, 0, 64, 22
2, 4914, Note_on_c, 0, 62, 85
2, 4937, Control_c, 0, 64, 21
2, 4982, Control_c, 0, 64, 22
2, 5009, Note_on_c, 0, 60, 76
2, 5021, Note_on_c, 0, 62, 0
2, 5043, Control_c, 0, 64, 23
2, 5059, Control_c, 0, 64, 26
2, 5073, Control_c, 0, 64, 28
2, 5088, Control_c, 0, 64, 31
2, 5097, Note_on_c, 0, 58, 81
2, 5104, Control_c, 0, 64, 32
2, 5112, Note_on_c, 0, 60, 0
2, 5119, Control_c, 0, 64, 33
2, 5134, Control_c, 0, 64, 33
2, 5150, Control_c, 0, 64, 34
2, 5174, Note_on_c, 0, 50, 0
2, 5182, Note_on_c, 0, 58, 0
2, 5184, Note_on_c, 0, 57, 79
2, 5257, Control_c, 0, 64, 33
2, 5269, Note_on_c, 0, 55, 73
2, 5272, Control_c, 0, 64, 33
2, 5275, Note_on_c, 0, 57, 0
2, 5287, Control_c, 0, 64, 32
2, 5303, Control_c, 0, 64, 32
2, 5358, Note_on_c, 0, 53, 72
2, 5361, Note_on_c, 0, 65, 0
2, 5363, Control_c, 0, 64, 31
2, 5373, Note_on_c, 0, 55, 0
2, 5378, Control_c, 0, 64, 31
2, 5393, Control_c, 0, 64, 30
2, 5424, Control_c, 0, 64, 30
2, 5445, Note_on_c, 0, 52, 63
2, 5453, Control_c, 0, 64, 29
2, 5480, Note_on_c, 0, 53, 0
2, 5484, Control_c, 0, 64, 28
2, 5500, Control_c, 0, 64, 28
2, 5515, Control_c, 0, 64, 27
2, 5529, Control_c, 0, 64, 25
2, 5543, Note_on_c, 0, 50, 61
2, 5545, Control_c, 0, 64, 23
2, 5560, Control_c, 0, 64, 21
2, 5575, Control_c, 0, 64, 17
2, 5598, Control_c, 0, 64, 13
2, 5600, Note_on_c, 0, 52, 0
2, 5613, Control_c, 0, 64, 0
2, 5633, Note_on_c, 0, 50, 0
2, 5651, Note_on_c, 0, 53, 63
2, 5731, Note_on_c, 0, 52, 53
2, 5755, Note_on_c, 0, 53, 0
2, 5812, Note_on_c, 0, 50, 61
2, 5812, Note_on_c, 0, 52, 0
2, 5888, Note_on_c, 0, 50, 0
2, 5918, Note_on_c, 0, 58, 67
2, 5981, Note_on_c, 0, 58, 0
2, 6001, Note_on_c, 0, 55, 55
2, 6089, Note_on_c, 0, 55, 0
2, 6101, Note_on_c, 0, 50, 61
2, 6108, Note_on_c, 0, 62, 73
2, 6135, Note_on_c, 0, 62, 0
2, 6181, Note_on_c, 0, 50, 0
2, 6224, Note_on_c, 0, 55, 49
2, 6281, Note_on_c, 0, 55, 0
2, 6298, Note_on_c, 0, 67, 73
2, 6302, Note_on_c, 0, 58, 61
2, 6324, Note_on_c, 0, 67, 0
2, 6366, Note_on_c, 0, 58, 0
2, 6416, Note_on_c, 0, 55, 44
2, 6474, Note_on_c, 0, 55, 0
2, 6480, Note_on_c, 0, 70, 74
2, 6493, Note_on_c, 0, 50, 58
2, 6511, Note_on_c, 0, 70, 0
2, 6578, Note_on_c, 0, 50, 0
2, 6615, Note_on_c, 0, 55, 40
2, 6665, Note_on_c, 0, 55, 0
2, 6674, Note_on_c, 0, 74, 70
2, 6685, Note_on_c, 0, 58, 57
2, 6703, Note_on_c, 0, 74, 0
2, 6717, Note_on_c, 0, 73, 73
2, 6732, Note_on_c, 0, 58, 0
2, 6768, Note_on_c, 0, 73, 0
2, 6770, Note_on_c, 0, 74, 77
2, 6776, Note_on_c, 0, 55, 52
2, 6843, Note_on_c, 0, 55, 0
2, 6864, Note_on_c, 0, 50, 60
2, 6969, Note_on_c, 0, 50, 0
2, 6970, Note_on_c, 0, 55, 58
2, 7004, Note_on_c, 0, 74, 0
2, 7045, Note_on_c, 0, 55, 0
2, 7054, Note_on_c, 0, 57, 65
2, 7149, Note_on_c, 0, 57, 0
2, 7155, Note_on_c, 0, 55, 60
2, 7194, Control_c, 0, 64, 9
2, 7225, Control_c, 0, 64, 11
2, 7232, Note_on_c, 0, 55, 0
2, 7252, Note_on_c, 0, 50, 60
2, 7252, Note_on_c, 0, 62, 78
2, 7270, Control_c, 0, 64, 12
2, 7281, Note_on_c, 0, 62, 0
2, 7285, Control_c, 0, 64, 13
2, 7301, Control_c, 0, 64, 15
2, 7316, Control_c, 0, 64, 16
2, 7344, Note_on_c, 0, 50, 0
2, 7347, Control_c, 0, 64, 17
2, 7363, Note_on_c, 0, 55, 59
2, 7428, Note_on_c, 0, 55, 0
2, 7442, Note_on_c, 0, 57, 69
2, 7448, Note_on_c, 0, 65, 90
2, 7481, Note_on_c, 0, 65, 0
2, 7523, Note_on_c, 0, 57, 0
2, 7541, Note_on_c, 0, 53, 59
2, 7616, Note_on_c, 0, 53, 0
2, 7623, Note_on_c, 0, 50, 69
2, 7625, Note_on_c, 0, 69, 86
2, 7660, Note_on_c, 0, 69, 0
2, 7710, Note_on_c, 0, 50, 0
2, 7733, Note_on_c, 0, 53, 57
2, 7743, Control_c, 0, 64, 17
2, 7774, Note_on_c, 0, 53, 0
2, 7791, Note_on_c, 0, 57, 66
2, 7814, Note_on_c, 0, 74, 81
2, 7849, Control_c, 0, 64, 18
2, 7852, Note_on_c, 0, 73, 85
2, 7854, Note_on_c, 0, 74, 0
2, 7860, Note_on_c, 0, 53, 72
2, 7871, Note_on_c, 0, 57, 0
2, 7917, Note_on_c, 0, 74, 86
2, 7936, Note_on_c, 0, 73, 0
2, 7965, Note_on_c, 0, 50, 69
2, 7968, Note_on_c, 0, 53, 0
2, 8064, Note_on_c, 0, 53, 76
2, 8068, Note_on_c, 0, 50, 0
2, 8107, Note_on_c, 0, 74, 0
2, 8130, Control_c, 0, 64, 19
2, 8139, Note_on_c, 0, 53, 0
2, 8146, Control_c, 0, 64, 20
2, 8148, Note_on_c, 0, 55, 84
2, 8176, Control_c, 0, 64, 21
2, 8191, Control_c, 0, 64, 21
2, 8206, Control_c, 0, 64, 22
2, 8222, Control_c, 0, 64, 23
2, 8231, Note_on_c, 0, 52, 78
2, 8242, Note_on_c, 0, 55, 0
2, 8267, Control_c, 0, 64, 24
2, 8313, Control_c, 0, 64, 24
2, 8322, Note_on_c, 0, 52, 0
2, 8323, Note_on_c, 0, 50, 69
2, 8327, Control_c, 0, 64, 25
2, 8343, Control_c, 0, 64, 26
2, 8357, Note_on_c, 0, 67, 90
2, 8358, Control_c, 0, 64, 26
2, 8373, Control_c, 0, 64, 27
2, 8406, Note_on_c, 0, 67, 0
2, 8421, Control_c, 0, 64, 27
2, 8434, Note_on_c, 0, 50, 0
2, 8438, Note_on_c, 0, 52, 62
2, 8524, Note_on_c, 0, 52, 0
2, 8531, Note_on_c, 0, 73, 97
2, 8534, Note_on_c, 0, 55, 69
2, 8578, Note_on_c, 0, 73, 0
2, 8602, Control_c, 0, 64, 28
2, 8640, Note_on_c, 0, 55, 0
2, 8641, Note_on_c, 0, 52, 64
2, 8729, Note_on_c, 0, 76, 99
2, 8743, Note_on_c, 0, 49, 67
2, 8745, Note_on_c, 0, 52, 0
2, 8747, Control_c, 0, 64, 27
2, 8762, Control_c, 0, 64, 26
2, 8778, Control_c, 0, 64, 26
2, 8778, Note_on_c, 0, 76, 0
2, 8808, Control_c, 0, 64, 25
2, 8851, Note_on_c, 0, 49, 0
2, 8856, Note_on_c, 0, 52, 68
2, 8922, Note_on_c, 0, 73, 94
2, 8924, Note_on_c, 0, 52, 0
2, 8934, Note_on_c, 0, 55, 68
2, 8968, Note_on_c, 0, 73, 0
2, 9039, Note_on_c, 0, 52, 66
2, 9048, Note_on_c, 0, 55, 0
2, 9111, Note_on_c, 0, 52, 0
2, 9115, Note_on_c, 0, 69, 83
2, 9117, Note_on_c, 0, 49, 65
2, 9158, Note_on_c, 0, 69, 0
2, 9231, Note_on_c, 0, 49, 0
2, 9231, Note_on_c, 0, 52, 61
2, 9298, Note_on_c, 0, 74, 85
2, 9299, Note_on_c, 0, 52, 0
2, 9311, Note_on_c, 0, 53, 69
2, 9408, Note_on_c, 0, 50, 64
2, 9437, Note_on_c, 0, 53, 0
2, 9512, Note_on_c, 0, 72, 81
2, 9513, Note_on_c, 0, 52, 69
2, 9542, Note_on_c, 0, 50, 0
2, 9543, Note_on_c, 0, 74, 0
2, 9604, Note_on_c, 0, 53, 67
2, 9604, Note_on_c, 0, 70, 79
2, 9627, Note_on_c, 0, 52, 0
2, 9628, Note_on_c, 0, 72, 0
2, 9692, Note_on_c, 0, 69, 84
2, 9699, Note_on_c, 0, 55, 70
2, 9716, Note_on_c, 0, 53, 0
2, 9722, Note_on_c, 0, 70, 0
2, 9773, Note_on_c, 0, 55, 0
2, 9779, Note_on_c, 0, 69, 0
2, 9780, Note_on_c, 0, 67, 87
2, 9785, Note_on_c, 0, 57, 72
2, 9866, Note_on_c, 0, 65, 85
2, 9877, Note_on_c, 0, 59, 70
2, 9883, Note_on_c, 0, 57, 0
2, 9889, Note_on_c, 0, 67, 0
2, 9949, Note_on_c, 0, 64, 81
2, 9962, Note_on_c, 0, 65, 0
2, 9968, Note_on_c, 0, 59, 0
2, 9972, Note_on_c, 0, 61, 64
2, 10032, Note_on_c, 0, 64, 0
2, 10040, Note_on_c, 0, 61, 0
2, 10044, Note_on_c, 0, 65, 91
2, 10059, Note_on_c, 0, 62, 71
2, 10078, Control_c, 0, 64, 25
2, 10082, Note_on_c, 0, 65, 0
2, 10140, Control_c, 0, 64, 24
2, 10154, Note_on_c, 0, 62, 0
2, 10158, Note_on_c, 0, 60, 69
2, 10192, Control_c, 0, 64, 24
2, 10238, Control_c, 0, 64, 23
2, 10252, Control_c, 0, 64, 23
2, 10258, Note_on_c, 0, 69, 94
2, 10260, Note_on_c, 0, 59, 68
2, 10267, Note_on_c, 0, 60, 0
2, 10345, Control_c, 0, 64, 22
2, 10356, Note_on_c, 0, 59, 0
2, 10359, Note_on_c, 0, 57, 70
2, 10455, Note_on_c, 0, 59, 73
2, 10460, Note_on_c, 0, 57, 0
2, 10512, Note_on_c, 0, 69, 0
2, 10526, Note_on_c, 0, 59, 0
2, 10532, Note_on_c, 0, 67, 80
2, 10536, Note_on_c, 0, 60, 68
2, 10557, Control_c, 0, 64, 23
2, 10572, Control_c, 0, 64, 24
2, 10587, Control_c, 0, 64, 24
2, 10602, Control_c, 0, 64, 25
2, 10618, Control_c, 0, 64, 25
2, 10627, Note_on_c, 0, 69, 82
2, 10634, Note_on_c, 0, 59, 71
2, 10644, Note_on_c, 0, 60, 0
2, 10650, Note_on_c, 0, 67, 0
2, 10678, Control_c, 0, 64, 26
2, 10713, Note_on_c, 0, 57, 75
2, 10716, Note_on_c, 0, 71, 87
2, 10744, Note_on_c, 0, 69, 0
2, 10758, Note_on_c, 0, 59, 0
2, 10769, Control_c, 0, 64, 26
2, 10774, Note_on_c, 0, 57, 0
2, 10789, Note_on_c, 0, 71, 0
2, 10793, Note_on_c, 0, 55, 72
2, 10802, Note_on_c, 0, 72, 93
2, 10815, Control_c, 0, 64, 27
2, 10876, Control_c, 0, 64, 27
2, 10882, Note_on_c, 0, 53, 72
2, 10892, Note_on_c, 0, 74, 92
2, 10901, Note_on_c, 0, 55, 0
2, 10910, Note_on_c, 0, 72, 0
2, 10922, Control_c, 0, 64, 28
2, 10960, Control_c, 0, 64, 28
2, 10980, Note_on_c, 0, 76, 88
2, 10982, Note_on_c, 0, 52, 69
2, 10991, Control_c, 0, 64, 29
2, 10993, Note_on_c, 0, 53, 0
2, 11013, Note_on_c, 0, 74, 0
2, 11065, Note_on_c, 0, 77, 90
2, 11079, Note_on_c, 0, 52, 0
2, 11081, Note_on_c, 0, 50, 74
2, 11112, Note_on_c, 0, 76, 0
2, 11157, Note_on_c, 0, 79, 89
2, 11163, Note_on_c, 0, 77, 0
2, 11172, Note_on_c, 0, 50, 0
2, 11175, Note_on_c, 0, 52, 79
2, 11202, Note_on_c, 0, 52, 0
2, 11259, Note_on_c, 0, 77, 84
2, 11283, Note_on_c, 0, 79, 0
2, 11324, Control_c, 0, 64, 28
2, 11340, Control_c, 0, 64, 27
2, 11352, Note_on_c, 0, 55, 78
2, 11353, Note_on_c, 0, 76, 75
2, 11354, Control_c, 0, 64, 27
2, 11364, Note_on_c, 0, 77, 0
2, 11369, Control_c, 0, 64, 26
2, 11385, Control_c, 0, 64, 25
2, 11385, Note_on_c, 0, 55, 0
2, 11400, Control_c, 0, 64, 25
2, 11415, Control_c, 0, 64, 24
2, 11445, Note_on_c, 0, 76, 0
2, 11451, Note_on_c, 0, 74, 72
2, 11538, Note_on_c, 0, 48, 80
2, 11543, Note_on_c, 0, 76, 84
2, 11552, Control_c, 0, 64, 24
2, 11552, Note_on_c, 0, 74, 0
2, 11628, Note_on_c, 0, 76, 0
2, 11646, Note_on_c, 0, 72, 75
2, 11736, Note_on_c, 0, 72, 0
2, 11757, Note_on_c, 0, 50, 71
2, 11757, Note_on_c, 0, 70, 80
2, 11778, Note_on_c, 0, 48, 0
2, 11842, Note_on_c, 0, 69, 79
2, 11850, Note_on_c, 0, 52, 67
2, 11864, Note_on_c, 0, 70, 0
2, 11865, Note_on_c, 0, 50, 0
2, 11943, Note_on_c, 0, 67, 80
2, 11950, Note_on_c, 0, 69, 0
2, 11956, Note_on_c, 0, 53, 68
2, 11964, Note_on_c, 0, 52, 0
2, 12027, Note_on_c, 0, 67, 0
2, 12029, Note_on_c, 0, 53, 0
2, 12038, Note_on_c, 0, 65, 76
2, 12042, Note_on_c, 0, 55, 68
2, 12127, Note_on_c, 0, 64, 75
2, 12131, Note_on_c, 0, 65, 0
2, 12135, Note_on_c, 0, 57, 65
2, 12152, Note_on_c, 0, 55, 0
2, 12204, Note_on_c, 0, 64, 0
2, 12212, Note_on_c, 0, 62, 72
2, 12213, Note_on_c, 0, 57, 0
2, 12220, Note_on_c, 0, 59, 66
2, 12278, Note_on_c, 0, 62, 0
2, 12281, Note_on_c, 0, 59, 0
2, 12306, Note_on_c, 0, 64, 81
2, 12307, Note_on_c, 0, 60, 64
2, 12331, Note_on_c, 0, 64, 0
2, 12405, Note_on_c, 0, 58, 56
2, 12411, Note_on_c, 0, 60, 0
2, 12489, Note_on_c, 0, 67, 71
2, 12514, Note_on_c, 0, 57, 59
2, 12514, Note_on_c, 0, 58, 0
2, 12579, Note_on_c, 0, 57, 0
2, 12590, Note_on_c, 0, 55, 57
2, 12693, Note_on_c, 0, 55, 0
2, 12704, Note_on_c, 0, 57, 61
2, 12771, Control_c, 0, 64, 23
2, 12774, Note_on_c, 0, 67, 0
2, 12784, Note_on_c, 0, 57, 0
2, 12784, Note_on_c, 0, 65, 70
2, 12798, Note_on_c, 0, 58, 68
2, 12863, Note_on_c, 0, 65, 0
2, 12878, Note_on_c, 0, 58, 0
2, 12880, Note_on_c, 0, 67, 79
2, 12881, Note_on_c, 0, 57, 67
2, 12933, Note_on_c, 0, 57, 0
2, 12952, Control_c, 0, 64, 24
2, 12961, Note_on_c, 0, 69, 79
2, 12968, Note_on_c, 0, 55, 71
2, 13047, Note_on_c, 0, 67, 0
2, 13058, Note_on_c, 0, 70, 73
2, 13059, Control_c, 0, 64, 24
2, 13062, Note_on_c, 0, 55, 0
2, 13062, Note_on_c, 0, 69, 0
2, 13071, Note_on_c, 0, 53, 61
2, 13119, Note_on_c, 0, 70, 0
2, 13141, Note_on_c, 0, 53, 0
2, 13141, Note_on_c, 0, 72, 73
2, 13144, Note_on_c, 0, 51, 67
2, 13234, Note_on_c, 0, 51, 0
2, 13234, Note_on_c, 0, 74, 66
2, 13235, Note_on_c, 0, 72, 0
2, 13241, Note_on_c, 0, 50, 59
2, 13310, Control_c, 0, 64, 23
2, 13312, Note_on_c, 0, 74, 0
2, 13318, Note_on_c, 0, 75, 70
2, 13326, Control_c, 0, 64, 21
2, 13338, Note_on_c, 0, 50, 0
2, 13342, Control_c, 0, 64, 17
2, 13346, Note_on_c, 0, 48, 58
2, 13356, Control_c, 0, 64, 0
2, 13395, Note_on_c, 0, 75, 0
2, 13419, Note_on_c, 0, 77, 72
2, 13436, Note_on_c, 0, 48, 0
2, 13455, Note_on_c, 0, 50, 55
2, 13479, Note_on_c, 0, 50, 0
2, 13494, Note_on_c, 0, 77, 0
2, 13515, Note_on_c, 0, 75, 64
2, 13606, Note_on_c, 0, 75, 0
2, 13618, Note_on_c, 0, 53, 62
2, 13618, Note_on_c, 0, 74, 62
2, 13648, Note_on_c, 0, 53, 0
2, 13675, Note_on_c, 0, 74, 0
2, 13711, Note_on_c, 0, 72, 57
2, 13757, Note_on_c, 0, 72, 0
2, 13802, Note_on_c, 0, 74, 63
2, 13803, Note_on_c, 0, 46, 62
2, 13812, Control_c, 0, 64, 53
2, 13827, Control_c, 0, 64, 60
2, 13842, Control_c, 0, 64, 65
2, 13843, Note_on_c, 0, 46, 0
2, 13858, Control_c, 0, 64, 71
2, 13872, Control_c, 0, 64, 87
2, 13876, Note_on_c, 0, 74, 0
2, 13887, Control_c, 0, 64, 127
2, 13902, Note_on_c, 0, 77, 60
2, 13958, Note_on_c, 0, 77, 0
2, 14001, Note_on_c, 0, 58, 68
2, 14003, Note_on_c, 0, 74, 59
2, 14063, Control_c, 0, 64, 94
2, 14066, Note_on_c, 0, 58, 0
2, 14073, Note_on_c, 0, 74, 0
2, 14078, Control_c, 0, 64, 67
2, 14093, Control_c, 0, 64, 44
2, 14098, Note_on_c, 0, 72, 61
2, 14108, Control_c, 0, 64, 0
2, 14115, Note_on_c, 0, 60, 67
2, 14169, Note_on_c, 0, 60, 0
2, 14178, Note_on_c, 0, 72, 0
2, 14204, Note_on_c, 0, 70, 60
2, 14215, Note_on_c, 0, 62, 66
2, 14243, Note_on_c, 0, 62, 0
2, 14264, Note_on_c, 0, 70, 0
2, 14299, Note_on_c, 0, 74, 58
2, 14365, Note_on_c, 0, 74, 0
2, 14394, Note_on_c, 0, 70, 59
2, 14400, Note_on_c, 0, 65, 72
2, 14428, Note_on_c, 0, 65, 0
2, 14462, Note_on_c, 0, 70, 0
2, 14500, Note_on_c, 0, 69, 51
2, 14541, Note_on_c, 0, 69, 0
2, 14585, Note_on_c, 0, 58, 64
2, 14593, Note_on_c, 0, 67, 62
2, 14614, Note_on_c, 0, 58, 0
2, 14633, Note_on_c, 0, 67, 0
2, 14675, Note_on_c, 0, 70, 59
2, 14742, Note_on_c, 0, 70, 0
2, 14776, Note_on_c, 0, 62, 66
2, 14787, Note_on_c, 0, 67, 61
2, 14815, Note_on_c, 0, 62, 0
2, 14836, Note_on_c, 0, 67, 0
2, 14878, Note_on_c, 0, 65, 56
2, 14920, Note_on_c, 0, 65, 0
2, 14953, Control_c, 0, 64, 30
2, 14968, Control_c, 0, 64, 52
2, 14973, Note_on_c, 0, 64, 67
2, 14981, Note_on_c, 0, 55, 50
2, 14984, Control_c, 0, 64, 58
2, 14999, Control_c, 0, 64, 62
2, 15000, Note_on_c, 0, 64, 0
2, 15015, Control_c, 0, 64, 66
2, 15029, Control_c, 0, 64, 72
2, 15044, Control_c, 0, 64, 80
2, 15048, Note_on_c, 0, 55, 0
2, 15060, Control_c, 0, 64, 90
2, 15075, Control_c, 0, 64, 103
2, 15078, Note_on_c, 0, 58, 61
2, 15089, Control_c, 0, 64, 127
2, 15155, Note_on_c, 0, 58, 0
2, 15166, Note_on_c, 0, 76, 76
2, 15168, Note_on_c, 0, 55, 61
2, 15196, Control_c, 0, 64, 102
2, 15212, Control_c, 0, 64, 85
2, 15212, Note_on_c, 0, 76, 0
2, 15227, Control_c, 0, 64, 71
2, 15241, Control_c, 0, 64, 65
2, 15254, Note_on_c, 0, 77, 83
2, 15257, Control_c, 0, 64, 60
2, 15267, Note_on_c, 0, 53, 59
2, 15269, Note_on_c, 0, 55, 0
2, 15272, Control_c, 0, 64, 56
2, 15287, Control_c, 0, 64, 51
2, 15301, Note_on_c, 0, 77, 0
2, 15303, Control_c, 0, 64, 45
2, 15317, Control_c, 0, 64, 39
2, 15333, Control_c, 0, 64, 35
2, 15340, Note_on_c, 0, 79, 86
2, 15348, Control_c, 0, 64, 31
2, 15352, Note_on_c, 0, 52, 70
2, 15363, Control_c, 0, 64, 29
2, 15366, Note_on_c, 0, 53, 0
2, 15379, Control_c, 0, 64, 27
2, 15381, Note_on_c, 0, 79, 0
2, 15394, Control_c, 0, 64, 26
2, 15423, Note_on_c, 0, 52, 0
2, 15464, Note_on_c, 0, 55, 64
2, 15470, Control_c, 0, 64, 27
2, 15485, Control_c, 0, 64, 28
2, 15500, Control_c, 0, 64, 30
2, 15515, Control_c, 0, 64, 30
2, 15529, Note_on_c, 0, 82, 92
2, 15531, Control_c, 0, 64, 31
2, 15541, Note_on_c, 0, 52, 67
2, 15546, Control_c, 0, 64, 32
2, 15548, Note_on_c, 0, 55, 0
2, 15584, Control_c, 0, 64, 32
2, 15587, Note_on_c, 0, 82, 0
2, 15646, Note_on_c, 0, 50, 61
2, 15651, Note_on_c, 0, 52, 0
2, 15705, Control_c, 0, 64, 32
2, 15734, Note_on_c, 0, 76, 82
2, 15736, Control_c, 0, 64, 31
2, 15736, Note_on_c, 0, 49, 61
2, 15739, Note_on_c, 0, 50, 0
2, 15751, Control_c, 0, 64, 30
2, 15766, Control_c, 0, 64, 30
2, 15772, Note_on_c, 0, 76, 0
2, 15783, Control_c, 0, 64, 29
2, 15787, Note_on_c, 0, 49, 0
2, 15797, Control_c, 0, 64, 28
2, 15813, Control_c, 0, 64, 28
2, 15816, Note_on_c, 0, 52, 55
2, 15828, Control_c, 0, 64, 26
2, 15843, Control_c, 0, 64, 26
2, 15859, Control_c, 0, 64, 25
2, 15873, Control_c, 0, 64, 24
2, 15888, Control_c, 0, 64, 21
2, 15904, Control_c, 0, 64, 19
2, 15905, Note_on_c, 0, 49, 64
2, 15914, Note_on_c, 0, 52, 0
2, 15914, Note_on_c, 0, 79, 72
2, 15919, Control_c, 0, 64, 15
2, 15934, Control_c, 0, 64, 0
2, 15945, Note_on_c, 0, 79, 0
2, 15991, Note_on_c, 0, 49, 0
2, 16015, Note_on_c, 0, 47, 54
2, 16088, Note_on_c, 0, 47, 0
2, 16104, Note_on_c, 0, 45, 66
2, 16110, Note_on_c, 0, 73, 67
2, 16116, Control_c, 0, 64, 50
2, 16131, Control_c, 0, 64, 61
2, 16145, Note_on_c, 0, 45, 0
2, 16146, Control_c, 0, 64, 65
2, 16161, Control_c, 0, 64, 70
2, 16177, Control_c, 0, 64, 83
2, 16178, Note_on_c, 0, 73, 0
2, 16192, Control_c, 0, 64, 116
2, 16207, Control_c, 0, 64, 127
2, 16207, Note_on_c, 0, 79, 55
2, 16296, Note_on_c, 0, 79, 0
2, 16302, Note_on_c, 0, 73, 65
2, 16307, Note_on_c, 0, 57, 72
2, 16351, Control_c, 0, 64, 102
2, 16366, Control_c, 0, 64, 75
2, 16380, Note_on_c, 0, 57, 0
2, 16380, Note_on_c, 0, 73, 0
2, 16382, Control_c, 0, 64, 63
2, 16397, Control_c, 0, 64, 45
2, 16411, Note_on_c, 0, 59, 72
2, 16412, Note_on_c, 0, 71, 42
2, 16413, Control_c, 0, 64, 15
2, 16428, Control_c, 0, 64, 0
2, 16441, Note_on_c, 0, 71, 0
2, 16478, Note_on_c, 0, 59, 0
2, 16500, Note_on_c, 0, 69, 63
2, 16511, Note_on_c, 0, 61, 70
2, 16541, Note_on_c, 0, 61, 0
2, 16561, Note_on_c, 0, 69, 0
2, 16587, Note_on_c, 0, 76, 57
2, 16691, Note_on_c, 0, 76, 0
2, 16700, Note_on_c, 0, 69, 62
2, 16719, Note_on_c, 0, 64, 41
2, 16722, Note_on_c, 0, 65, 28
2, 16749, Note_on_c, 0, 64, 0
2, 16757, Note_on_c, 0, 65, 0
2, 16760, Note_on_c, 0, 69, 0
2, 16791, Note_on_c, 0, 67, 63
2, 16875, Note_on_c, 0, 67, 0
2, 16891, Note_on_c, 0, 57, 69
2, 16891, Note_on_c, 0, 65, 64
2, 16925, Note_on_c, 0, 57, 0
2, 16954, Note_on_c, 0, 65, 0
2, 16982, Note_on_c, 0, 73, 70
2, 17076, Note_on_c, 0, 55, 71
2, 17078, Note_on_c, 0, 65, 67
2, 17081, Note_on_c, 0, 73, 0
2, 17115, Note_on_c, 0, 55, 0
2, 17157, Note_on_c, 0, 65, 0
2, 17171, Note_on_c, 0, 64, 73
2, 17224, Note_on_c, 0, 64, 0
2, 17257, Control_c, 0, 64, 37
2, 17268, Note_on_c, 0, 53, 74
2, 17271, Control_c, 0, 64, 58
2, 17274, Note_on_c, 0, 62, 87
2, 17286, Control_c, 0, 64, 62
2, 17302, Control_c, 0, 64, 65
2, 17314, Note_on_c, 0, 62, 0
2, 17317, Control_c, 0, 64, 71
2, 17333, Control_c, 0, 64, 87
2, 17344, Note_on_c, 0, 53, 0
2, 17348, Control_c, 0, 64, 127
2, 17388, Note_on_c, 0, 62, 69
2, 17439, Control_c, 0, 64, 107
2, 17455, Control_c, 0, 64, 83
2, 17460, Note_on_c, 0, 62, 0
2, 17467, Note_on_c, 0, 74, 88
2, 17470, Control_c, 0, 64, 70
2, 17473, Note_on_c, 0, 53, 73
2, 17485, Control_c, 0, 64, 62
2, 17501, Control_c, 0, 64, 55
2, 17513, Note_on_c, 0, 74, 0
2, 17516, Control_c, 0, 64, 51
2, 17532, Control_c, 0, 64, 50
2, 17546, Control_c, 0, 64, 48
2, 17561, Control_c, 0, 64, 46
2, 17561, Note_on_c, 0, 76, 84
2, 17564, Note_on_c, 0, 52, 66
2, 17577, Control_c, 0, 64, 43
2, 17578, Note_on_c, 0, 53, 0
2, 17592, Control_c, 0, 64, 41
2, 17607, Control_c, 0, 64, 39
2, 17612, Note_on_c, 0, 76, 0
2, 17622, Control_c, 0, 64, 37
2, 17637, Control_c, 0, 64, 36
2, 17647, Note_on_c, 0, 77, 96
2, 17660, Note_on_c, 0, 50, 71
2, 17689, Note_on_c, 0, 52, 0
2, 17696, Note_on_c, 0, 77, 0
2, 17713, Control_c, 0, 64, 37
2, 17724, Note_on_c, 0, 50, 0
2, 17752, Note_on_c, 0, 57, 77
2, 17819, Control_c, 0, 64, 37
2, 17834, Control_c, 0, 64, 38
2, 17845, Note_on_c, 0, 81, 97
2, 17846, Note_on_c, 0, 50, 76
2, 17846, Note_on_c, 0, 57, 0
2, 17903, Control_c, 0, 64, 37
2, 17904, Note_on_c, 0, 81, 0
2, 17918, Control_c, 0, 64, 37
2, 17949, Control_c, 0, 64, 36
2, 17949, Note_on_c, 0, 48, 70
2, 17959, Note_on_c, 0, 50, 0
2, 17963, Control_c, 0, 64, 36
2, 17979, Control_c, 0, 64, 35
2, 17994, Control_c, 0, 64, 34
2, 18009, Control_c, 0, 64, 31
2, 18025, Control_c, 0, 64, 26
2, 18039, Control_c, 0, 64, 16
2, 18041, Note_on_c, 0, 46, 79
2, 18047, Note_on_c, 0, 74, 97
2, 18053, Note_on_c, 0, 48, 0
2, 18055, Control_c, 0, 64, 0
2, 18088, Note_on_c, 0, 74, 0
2, 18127, Note_on_c, 0, 46, 0
2, 18147, Note_on_c, 0, 53, 79
2, 18228, Note_on_c, 0, 46, 79
2, 18236, Note_on_c, 0, 72, 91
2, 18240, Note_on_c, 0, 53, 0
2, 18287, Note_on_c, 0, 72, 0
2, 18323, Note_on_c, 0, 45, 74
2, 18341, Note_on_c, 0, 46, 0
2, 18432, Note_on_c, 0, 45, 0
2, 18435, Note_on_c, 0, 43, 87
2, 18436, Note_on_c, 0, 70, 97
2, 18466, Control_c, 0, 64, 50
2, 18481, Control_c, 0, 64, 70
2, 18497, Control_c, 0, 64, 78
2, 18501, Note_on_c, 0, 43, 0
2, 18512, Control_c, 0, 64, 99
2, 18527, Control_c, 0, 64, 127
2, 18532, Note_on_c, 0, 70, 0
2, 18544, Note_on_c, 0, 79, 84
2, 18654, Note_on_c, 0, 55, 93
2, 18658, Note_on_c, 0, 70, 85
2, 18658, Note_on_c, 0, 79, 0
2, 18740, Note_on_c, 0, 69, 85
2, 18745, Control_c, 0, 64, 89
2, 18745, Note_on_c, 0, 70, 0
2, 18750, Note_on_c, 0, 55, 0
2, 18760, Control_c, 0, 64, 65
2, 18761, Note_on_c, 0, 57, 81
2, 18775, Control_c, 0, 64, 25
2, 18791, Control_c, 0, 64, 0
2, 18819, Note_on_c, 0, 69, 0
2, 18839, Note_on_c, 0, 67, 89
2, 18851, Note_on_c, 0, 57, 0
2, 18853, Note_on_c, 0, 58, 94
2, 18898, Note_on_c, 0, 58, 0
2, 18929, Note_on_c, 0, 67, 0
2, 18939, Note_on_c, 0, 70, 82
2, 19035, Note_on_c, 0, 67, 85
2, 19040, Note_on_c, 0, 62, 91
2, 19040, Note_on_c, 0, 70, 0
2, 19084, Note_on_c, 0, 62, 0
2, 19100, Note_on_c, 0, 67, 0
2, 19132, Note_on_c, 0, 65, 76
2, 19193, Note_on_c, 0, 65, 0
2, 19227, Note_on_c, 0, 55, 82
2, 19234, Note_on_c, 0, 63, 87
2, 19278, Note_on_c, 0, 55, 0
2, 19325, Note_on_c, 0, 70, 82
2, 19326, Note_on_c, 0, 63, 0
2, 19428, Note_on_c, 0, 58, 83
2, 19437, Note_on_c, 0, 63, 79
2, 19443, Note_on_c, 0, 70, 0
2, 19462, Note_on_c, 0, 58, 0
2, 19501, Note_on_c, 0, 63, 0
2, 19515, Note_on_c, 0, 62, 76
2, 19569, Note_on_c, 0, 62, 0
2, 19618, Note_on_c, 0, 61, 89
2, 19620, Control_c, 0, 64, 28
2, 19627, Note_on_c, 0, 57, 83
2, 19634, Control_c, 0, 64, 61
2, 19649, Control_c, 0, 64, 65
2, 19665, Control_c, 0, 64, 70
2, 19670, Note_on_c, 0, 57, 0
2, 19680, Control_c, 0, 64, 81
2, 19695, Control_c, 0, 64, 127
2, 19710, Note_on_c, 0, 61, 0
2, 19715, Note_on_c, 0, 69, 85
2, 19816, Control_c, 0, 64, 79
2, 19825, Note_on_c, 0, 61, 76
2, 19832, Control_c, 0, 64, 61
2, 19833, Note_on_c, 0, 69, 0
2, 19835, Note_on_c, 0, 64, 78
2, 19846, Control_c, 0, 64, 0
2, 19871, Note_on_c, 0, 64, 0
2, 19917, Note_on_c, 0, 61, 0
2, 19926, Note_on_c, 0, 59, 77
2, 20024, Note_on_c, 0, 61, 82
2, 20028, Note_on_c, 0, 57, 81
2, 20039, Note_on_c, 0, 59, 0
2, 20062, Note_on_c, 0, 57, 0
2, 20110, Note_on_c, 0, 61, 0
2, 20120, Note_on_c, 0, 69, 80
2, 20220, Note_on_c, 0, 69, 0
2, 20222, Note_on_c, 0, 64, 79
2, 20225, Note_on_c, 0, 61, 81
2, 20265, Note_on_c, 0, 64, 0
2, 20317, Note_on_c, 0, 61, 0
2, 20328, Note_on_c, 0, 69, 80
2, 20400, Note_on_c, 0, 69, 0
2, 20415, Note_on_c, 0, 57, 81
2, 20415, Note_on_c, 0, 61, 85
2, 20461, Note_on_c, 0, 57, 0
2, 20513, Note_on_c, 0, 69, 81
2, 20514, Note_on_c, 0, 61, 0
2, 20599, Note_on_c, 0, 69, 0
2, 20601, Note_on_c, 0, 64, 80
2, 20608, Note_on_c, 0, 61, 83
2, 20641, Note_on_c, 0, 64, 0
2, 20684, Note_on_c, 0, 61, 0
2, 20709, Note_on_c, 0, 69, 70
2, 20772, Note_on_c, 0, 69, 0
2, 20805, Note_on_c, 0, 61, 62
2, 20809, Note_on_c, 0, 55, 59
2, 20858, Note_on_c, 0, 55, 0
2, 20885, Note_on_c, 0, 61, 0
2, 20908, Note_on_c, 0, 69, 53
2, 20995, Note_on_c, 0, 69, 0
2, 21014, Note_on_c, 0, 64, 59
2, 21025, Note_on_c, 0, 61, 51
2, 21054, Note_on_c, 0, 64, 0
2, 21070, Note_on_c, 0, 61, 0
2, 21109, Note_on_c, 0, 59, 57
2, 21210, Note_on_c, 0, 61, 58
2, 21215, Note_on_c, 0, 55, 49
2, 21215, Note_on_c, 0, 59, 0
2, 21253, Note_on_c, 0, 55, 0
2, 21279, Note_on_c, 0, 61, 0
2, 21308, Note_on_c, 0, 69, 51
2, 21368, Note_on_c, 0, 69, 0
2, 21402, Note_on_c, 0, 64, 60
2, 21409, Note_on_c, 0, 61, 58
2, 21436, Note_on_c, 0, 64, 0
2, 21461, Note_on_c, 0, 61, 0
2, 21504, Note_on_c, 0, 69, 53
2, 21589, Note_on_c, 0, 69, 0
2, 21600, Note_on_c, 0, 55, 47
2, 21601, Note_on_c, 0, 61, 52
2, 21635, Note_on_c, 0, 55, 0
2, 21654, Note_on_c, 0, 61, 0
2, 21704, Note_on_c, 0, 69, 50
2, 21768, Note_on_c, 0, 69, 0
2, 21788, Note_on_c, 0, 64, 57
2, 21791, Note_on_c, 0, 61, 55
2, 21819, Note_on_c, 0, 64, 0
2, 21849, Note_on_c, 0, 61, 0
2, 21884, Note_on_c, 0, 69, 62
2, 21959, Note_on_c, 0, 69, 0
2, 21981, Note_on_c, 0, 53, 52
2, 21984, Note_on_c, 0, 62, 61
2, 22033, Note_on_c, 0, 53, 0
2, 22044, Note_on_c, 0, 62, 0
2, 22096, Note_on_c, 0, 69, 40
2, 22143, Note_on_c, 0, 69, 0
2, 22168, Note_on_c, 0, 65, 51
2, 22176, Note_on_c, 0, 62, 50
2, 22212, Note_on_c, 0, 65, 0
2, 22238, Note_on_c, 0, 62, 0
2, 22272, Note_on_c, 0, 61, 54
2, 22349, Note_on_c, 0, 61, 0
2, 22367, Note_on_c, 0, 62, 55
2, 22368, Note_on_c, 0, 53, 54
2, 22413, Note_on_c, 0, 53, 0
2, 22432, Note_on_c, 0, 62, 0
2, 22467, Note_on_c, 0, 69, 57
2, 22526, Note_on_c, 0, 69, 0
2, 22572, Note_on_c, 0, 62, 55
2, 22580, Note_on_c, 0, 65, 52
2, 22607, Note_on_c, 0, 65, 0
2, 22613, Note_on_c, 0, 62, 0
2, 22653, Note_on_c, 0, 69, 62
2, 22718, Note_on_c, 0, 69, 0
2, 22760, Note_on_c, 0, 62, 57
2, 22771, Note_on_c, 0, 53, 46
2, 22802, Note_on_c, 0, 62, 0
2, 22810, Note_on_c, 0, 53, 0
2, 22845, Note_on_c, 0, 69, 54
2, 22907, Note_on_c, 0, 69, 0
2, 22953, Note_on_c, 0, 62, 40
2, 22963, Note_on_c, 0, 65, 45
2, 22993, Note_on_c, 0, 65, 0
2, 23001, Note_on_c, 0, 62, 0
2, 23032, Note_on_c, 0, 69, 56
2, 23106, Note_on_c, 0, 69, 0
2, 23136, Note_on_c, 0, 64, 58
2, 23146, Note_on_c, 0, 61, 49
2, 23180, Note_on_c, 0, 61, 0
2, 23186, Note_on_c, 0, 64, 0
2, 23234, Note_on_c, 0, 69, 55
2, 23324, Note_on_c, 0, 69, 0
2, 23344, Note_on_c, 0, 67, 48
2, 23372, Note_on_c, 0, 67, 0
2, 23439, Note_on_c, 0, 62, 51
2, 23490, Note_on_c, 0, 62, 0
2, 23521, Note_on_c, 0, 64, 59
2, 23531, Note_on_c, 0, 61, 54
2, 23573, Note_on_c, 0, 61, 0
2, 23592, Note_on_c, 0, 64, 0
2, 23628, Note_on_c, 0, 69, 56
2, 23674, Note_on_c, 0, 69, 0
2, 23720, Note_on_c, 0, 67, 52
2, 23723, Note_on_c, 0, 64, 55
2, 23754, Note_on_c, 0, 67, 0
2, 23767, Note_on_c, 0, 64, 0
2, 23818, Note_on_c, 0, 69, 49
2, 23864, Note_on_c, 0, 69, 0
2, 23915, Note_on_c, 0, 61, 50
2, 23921, Note_on_c, 0, 64, 50
2, 23962, Note_on_c, 0, 61, 0
2, 23965, Note_on_c, 0, 64, 0
2, 23998, Note_on_c, 0, 69, 49
2, 24052, Note_on_c, 0, 69, 0
2, 24109, Note_on_c, 0, 64, 48
2, 24115, Note_on_c, 0, 67, 43
2, 24142, Note_on_c, 0, 67, 0
2, 24158, Note_on_c, 0, 64, 0
2, 24191, Note_on_c, 0, 69, 55
2, 24229, Note_on_c, 0, 69, 0
2, 24284, Note_on_c, 0, 65, 55
2, 24334, Note_on_c, 0, 69, 70
2, 24398, Note_on_c, 0, 65, 0
2, 24407, Note_on_c, 0, 69, 0
2, 24425, Note_on_c, 0, 71, 34
2, 24429, Note_on_c, 0, 73, 64
2, 24458, Note_on_c, 0, 71, 0
2, 24490, Note_on_c, 0, 74, 64
2, 24502, Note_on_c, 0, 73, 0
2, 24546, Note_on_c, 0, 65, 37
2, 24571, Note_on_c, 0, 65, 0
2, 24576, Note_on_c, 0, 74, 0
2, 24586, Note_on_c, 0, 69, 67
2, 24639, Note_on_c, 0, 69, 0
2, 24674, Note_on_c, 0, 65, 57
2, 24690, Note_on_c, 0, 62, 49
2, 24723, Note_on_c, 0, 62, 0
2, 24759, Note_on_c, 0, 69, 67
2, 24760, Note_on_c, 0, 65, 0
2, 24821, Note_on_c, 0, 69, 0
2, 24875, Note_on_c, 0, 74, 63
2, 24904, Note_on_c, 0, 65, 33
2, 24930, Note_on_c, 0, 74, 0
2, 24938, Note_on_c, 0, 65, 0
2, 24967, Note_on_c, 0, 69, 59
2, 25016, Note_on_c, 0, 69, 0
2, 25068, Note_on_c, 0, 62, 52
2, 25069, Note_on_c, 0, 65, 50
2, 25105, Note_on_c, 0, 62, 0
2, 25117, Note_on_c, 0, 65, 0
2, 25153, Note_on_c, 0, 69, 62
2, 25198, Note_on_c, 0, 69, 0
2, 25258, Note_on_c, 0, 74, 66
2, 25259, Note_on_c, 0, 65, 55
2, 25291, Note_on_c, 0, 65, 0
2, 25352, Note_on_c, 0, 74, 0
2, 25355, Note_on_c, 0, 69, 55
2, 25390, Note_on_c, 0, 69, 0
2, 25466, Note_on_c, 0, 60, 59
2, 25474, Note_on_c, 0, 66, 70
2, 25506, Note_on_c, 0, 60, 0
2, 25541, Note_on_c, 0, 66, 0
2, 25578, Note_on_c, 0, 74, 66
2, 25652, Note_on_c, 0, 74, 0
2, 25666, Note_on_c, 0, 69, 58
2, 25671, Note_on_c, 0, 66, 68
2, 25700, Note_on_c, 0, 69, 0
2, 25743, Note_on_c, 0, 66, 0
2, 25768, Note_on_c, 0, 64, 63
2, 25837, Note_on_c, 0, 64, 0
2, 25861, Note_on_c, 0, 60, 62
2, 25865, Note_on_c, 0, 66, 68
2, 25899, Note_on_c, 0, 60, 0
2, 25927, Note_on_c, 0, 66, 0
2, 25966, Note_on_c, 0, 74, 64
2, 26005, Note_on_c, 0, 74, 0
2, 26060, Note_on_c, 0, 69, 70
2, 26062, Note_on_c, 0, 66, 73
2, 26099, Note_on_c, 0, 69, 0
2, 26100, Note_on_c, 0, 66, 0
2, 26163, Note_on_c, 0, 74, 66
2, 26206, Note_on_c, 0, 74, 0
2, 26253, Note_on_c, 0, 60, 67
2, 26263, Note_on_c, 0, 66, 73
2, 26291, Note_on_c, 0, 60, 0
2, 26309, Note_on_c, 0, 66, 0
2, 26371, Note_on_c, 0, 74, 69
2, 26432, Note_on_c, 0, 74, 0
2, 26456, Note_on_c, 0, 69, 71
2, 26463, Note_on_c, 0, 66, 71
2, 26493, Note_on_c, 0, 69, 0
2, 26542, Note_on_c, 0, 66, 0
2, 26551, Note_on_c, 0, 74, 72
2, 26625, Note_on_c, 0, 74, 0
2, 26631, Note_on_c, 0, 67, 72
2, 26641, Note_on_c, 0, 59, 63
2, 26694, Note_on_c, 0, 69, 71
2, 26700, Note_on_c, 0, 59, 0
2, 26713, Note_on_c, 0, 67, 0
2, 26746, Note_on_c, 0, 71, 74
2, 26765, Note_on_c, 0, 69, 0
2, 26790, Note_on_c, 0, 72, 68
2, 26824, Note_on_c, 0, 71, 0
2, 26826, Note_on_c, 0, 67, 68
2, 26830, Note_on_c, 0, 74, 85
2, 26852, Note_on_c, 0, 72, 0
2, 26855, Note_on_c, 0, 67, 0
2, 26884, Note_on_c, 0, 74, 0
2, 26945, Note_on_c, 0, 71, 74
2, 26986, Note_on_c, 0, 71, 0
2, 27028, Note_on_c, 0, 67, 68
2, 27074, Note_on_c, 0, 67, 0
2, 27125, Note_on_c, 0, 71, 76
2, 27171, Note_on_c, 0, 71, 0
2, 27219, Note_on_c, 0, 74, 83
2, 27225, Note_on_c, 0, 67, 73
2, 27261, Note_on_c, 0, 67, 0
2, 27291, Note_on_c, 0, 74, 0
2, 27311, Note_on_c, 0, 71, 75
2, 27373, Note_on_c, 0, 71, 0
2, 27411, Note_on_c, 0, 59, 75
2, 27416, Note_on_c, 0, 67, 79
2, 27466, Note_on_c, 0, 67, 0
2, 27468, Note_on_c, 0, 59, 0
2, 27504, Note_on_c, 0, 71, 83
2, 27578, Note_on_c, 0, 71, 0
2, 27597, Note_on_c, 0, 67, 81
2, 27612, Note_on_c, 0, 74, 85
2, 27640, Note_on_c, 0, 67, 0
2, 27693, Note_on_c, 0, 71, 72
2, 27703, Note_on_c, 0, 74, 0
2, 27765, Note_on_c, 0, 71, 0
2, 27784, Note_on_c, 0, 64, 83
2, 27793, Note_on_c, 0, 68, 91
2, 27845, Note_on_c, 0, 64, 0
2, 27883, Note_on_c, 0, 68, 0
2, 27883, Note_on_c, 0, 74, 84
2, 27983, Note_on_c, 0, 71, 85
2, 27991, Note_on_c, 0, 68, 81
2, 27994, Note_on_c, 0, 74, 0
2, 28034, Note_on_c, 0, 71, 0
2, 28065, Note_on_c, 0, 68, 0
2, 28070, Note_on_c, 0, 66, 79
2, 28147, Note_on_c, 0, 66, 0
2, 28169, Note_on_c, 0, 68, 83
2, 28174, Note_on_c, 0, 64, 67
2, 28178, Note_on_c, 0, 65, 72
2, 28205, Note_on_c, 0, 65, 0
2, 28214, Note_on_c, 0, 64, 0
2, 28240, Note_on_c, 0, 68, 0
2, 28253, Note_on_c, 0, 74, 82
2, 28335, Note_on_c, 0, 74, 0
2, 28354, Note_on_c, 0, 71, 82
2, 28355, Note_on_c, 0, 68, 87
2, 28391, Note_on_c, 0, 71, 0
2, 28415, Note_on_c, 0, 68, 0
2, 28449, Note_on_c, 0, 74, 81
2, 28514, Note_on_c, 0, 74, 0
2, 28543, Note_on_c, 0, 68, 90
2, 28545, Note_on_c, 0, 64, 78
2, 28597, Note_on_c, 0, 64, 0
2, 28614, Note_on_c, 0, 68, 0
2, 28635, Note_on_c, 0, 74, 85
2, 28713, Note_on_c, 0, 74, 0
2, 28728, Note_on_c, 0, 71, 89
2, 28731, Note_on_c, 0, 68, 83
2, 28773, Note_on_c, 0, 71, 0
2, 28820, Note_on_c, 0, 74, 77
2, 28825, Note_on_c, 0, 68, 0
2, 28916, Note_on_c, 0, 57, 75
2, 28918, Note_on_c, 0, 72, 90
2, 28931, Note_on_c, 0, 74, 0
2, 29011, Note_on_c, 0, 69, 91
2, 29113, Note_on_c, 0, 67, 78
2, 29114, Note_on_c, 0, 69, 0
2, 29205, Note_on_c, 0, 65, 77
2, 29222, Note_on_c, 0, 67, 0
2, 29264, Note_on_c, 0, 57, 0
2, 29284, Note_on_c, 0, 65, 0
2, 29285, Note_on_c, 0, 64, 70
2, 29380, Note_on_c, 0, 72, 0
2, 29383, Note_on_c, 0, 64, 0
2, 29394, Note_on_c, 0, 62, 70
2, 29486, Note_on_c, 0, 60, 66
2, 29513, Note_on_c, 0, 62, 0
2, 29570, Note_on_c, 0, 59, 67
2, 29604, Note_on_c, 0, 60, 0
2, 29672, Note_on_c, 0, 57, 66
2, 29724, Note_on_c, 0, 59, 0
2, 29761, Note_on_c, 0, 57, 0
2, 29785, Note_on_c, 0, 60, 59
2, 29888, Note_on_c, 0, 59, 45
2, 29891, Note_on_c, 0, 60, 0
2, 29970, Note_on_c, 0, 57, 60
2, 29976, Note_on_c, 0, 59, 0
2, 30016, Note_on_c, 0, 57, 0
2, 30065, Note_on_c, 0, 65, 58
2, 30130, Note_on_c, 0, 65, 0
2, 30162, Note_on_c, 0, 62, 56
2, 30241, Note_on_c, 0, 62, 0
2, 30250, Note_on_c, 0, 69, 71
2, 30262, Note_on_c, 0, 57, 58
2, 30276, Note_on_c, 0, 69, 0
2, 30314, Note_on_c, 0, 57, 0
2, 30375, Note_on_c, 0, 62, 52
2, 30429, Note_on_c, 0, 62, 0
2, 30444, Note_on_c, 0, 74, 68
2, 30455, Note_on_c, 0, 65, 58
2, 30473, Note_on_c, 0, 74, 0
2, 30512, Note_on_c, 0, 65, 0
2, 30565, Note_on_c, 0, 62, 50
2, 30620, Note_on_c, 0, 62, 0
2, 30636, Note_on_c, 0, 77, 75
2, 30645, Note_on_c, 0, 57, 58
2, 30665, Note_on_c, 0, 77, 0
2, 30696, Note_on_c, 0, 57, 0
2, 30760, Note_on_c, 0, 62, 47
2, 30802, Note_on_c, 0, 62, 0
2, 30832, Note_on_c, 0, 81, 67
2, 30836, Note_on_c, 0, 65, 49
2, 30865, Note_on_c, 0, 81, 0
2, 30878, Note_on_c, 0, 80, 75
2, 30888, Note_on_c, 0, 65, 0
2, 30911, Note_on_c, 0, 62, 52
2, 30947, Note_on_c, 0, 81, 71
2, 30949, Note_on_c, 0, 80, 0
2, 31008, Note_on_c, 0, 62, 0
2, 31028, Note_on_c, 0, 57, 54
2, 31093, Control_c, 0, 64, 9
2, 31108, Control_c, 0, 64, 11
2, 31116, Note_on_c, 0, 57, 0
2, 31123, Control_c, 0, 64, 13
2, 31134, Note_on_c, 0, 62, 58
2, 31145, Note_on_c, 0, 81, 0
2, 31154, Control_c, 0, 64, 15
2, 31184, Control_c, 0, 64, 16
2, 31195, Note_on_c, 0, 62, 0
2, 31213, Note_on_c, 0, 64, 62
2, 31214, Control_c, 0, 64, 17
2, 31301, Note_on_c, 0, 64, 0
2, 31324, Note_on_c, 0, 62, 53
2, 31336, Control_c, 0, 64, 17
2, 31367, Control_c, 0, 64, 18
2, 31394, Note_on_c, 0, 62, 0
2, 31397, Control_c, 0, 64, 19
2, 31400, Note_on_c, 0, 69, 79
2, 31412, Control_c, 0, 64, 20
2, 31413, Note_on_c, 0, 57, 56
2, 31431, Note_on_c, 0, 69, 0
2, 31443, Control_c, 0, 64, 21
2, 31459, Control_c, 0, 64, 22
2, 31474, Control_c, 0, 64, 23
2, 31495, Note_on_c, 0, 57, 0
2, 31526, Note_on_c, 0, 62, 55
2, 31571, Note_on_c, 0, 62, 0
2, 31593, Note_on_c, 0, 72, 90
2, 31599, Note_on_c, 0, 64, 59
2, 31636, Note_on_c, 0, 72, 0
2, 31666, Note_on_c, 0, 64, 0
2, 31709, Note_on_c, 0, 60, 50
2, 31784, Note_on_c, 0, 60, 0
2, 31786, Note_on_c, 0, 76, 87
2, 31789, Note_on_c, 0, 57, 68
2, 31824, Note_on_c, 0, 76, 0
2, 31865, Note_on_c, 0, 57, 0
2, 31877, Note_on_c, 0, 60, 52
2, 31907, Control_c, 0, 64, 23
2, 31922, Control_c, 0, 64, 25
2, 31937, Control_c, 0, 64, 26
2, 31945, Note_on_c, 0, 60, 0
2, 31952, Control_c, 0, 64, 28
2, 31966, Note_on_c, 0, 64, 62
2, 31967, Control_c, 0, 64, 30
2, 31983, Control_c, 0, 64, 31
2, 31985, Note_on_c, 0, 81, 85
2, 31998, Control_c, 0, 64, 31
2, 32036, Note_on_c, 0, 81, 0
2, 32037, Note_on_c, 0, 80, 81
2, 32048, Note_on_c, 0, 64, 0
2, 32061, Note_on_c, 0, 60, 64
2, 32086, Note_on_c, 0, 81, 80
2, 32088, Control_c, 0, 64, 31
2, 32113, Note_on_c, 0, 80, 0
2, 32119, Control_c, 0, 64, 30
2, 32133, Control_c, 0, 64, 30
2, 32142, Note_on_c, 0, 60, 0
2, 32146, Note_on_c, 0, 57, 66
2, 32166, Control_c, 0, 64, 29
2, 32251, Note_on_c, 0, 57, 0
2, 32257, Note_on_c, 0, 60, 67
2, 32300, Note_on_c, 0, 81, 0
2, 32335, Note_on_c, 0, 60, 0
2, 32352, Note_on_c, 0, 62, 83
2, 32451, Note_on_c, 0, 59, 73
2, 32454, Note_on_c, 0, 62, 0
2, 32545, Note_on_c, 0, 74, 88
2, 32551, Note_on_c, 0, 59, 0
2, 32553, Note_on_c, 0, 57, 66
2, 32591, Note_on_c, 0, 74, 0
2, 32629, Control_c, 0, 64, 30
2, 32644, Control_c, 0, 64, 30
2, 32656, Note_on_c, 0, 57, 0
2, 32673, Note_on_c, 0, 59, 66
2, 32706, Control_c, 0, 64, 31
2, 32740, Note_on_c, 0, 59, 0
2, 32743, Note_on_c, 0, 80, 94
2, 32752, Note_on_c, 0, 62, 68
2, 32791, Note_on_c, 0, 80, 0
2, 32851, Note_on_c, 0, 62, 0
2, 32863, Note_on_c, 0, 59, 67
2, 32950, Note_on_c, 0, 59, 0
2, 32950, Note_on_c, 0, 83, 99
2, 32954, Note_on_c, 0, 56, 69
2, 32996, Note_on_c, 0, 83, 0
2, 33060, Note_on_c, 0, 56, 0
2, 33073, Note_on_c, 0, 59, 65
2, 33129, Note_on_c, 0, 59, 0
2, 33148, Note_on_c, 0, 80, 92
2, 33152, Note_on_c, 0, 62, 65
2, 33161, Control_c, 0, 64, 31
2, 33195, Note_on_c, 0, 80, 0
2, 33260, Note_on_c, 0, 59, 64
2, 33272, Note_on_c, 0, 62, 0
2, 33331, Note_on_c, 0, 59, 0
2, 33339, Note_on_c, 0, 56, 73
2, 33343, Note_on_c, 0, 76, 85
2, 33366, Control_c, 0, 64, 31
2, 33390, Note_on_c, 0, 76, 0
2, 33397, Control_c, 0, 64, 30
2, 33411, Control_c, 0, 64, 30
2, 33439, Note_on_c, 0, 56, 0
2, 33442, Control_c, 0, 64, 29
2, 33457, Note_on_c, 0, 59, 62
2, 33473, Control_c, 0, 64, 29
2, 33525, Note_on_c, 0, 59, 0
2, 33528, Note_on_c, 0, 81, 88
2, 33541, Note_on_c, 0, 60, 83
2, 33570, Note_on_c, 0, 60, 0
2, 33595, Control_c, 0, 64, 28
2, 33746, Note_on_c, 0, 45, 80
2, 33748, Note_on_c, 0, 79, 82
2, 33755, Note_on_c, 0, 81, 0
2, 33805, Note_on_c, 0, 45, 0
2, 33841, Note_on_c, 0, 77, 73
2, 33846, Note_on_c, 0, 79, 0
2, 33934, Note_on_c, 0, 76, 80
2, 33936, Note_on_c, 0, 48, 80
2, 33949, Note_on_c, 0, 77, 0
2, 33982, Note_on_c, 0, 48, 0
2, 34035, Note_on_c, 0, 76, 0
2, 34045, Note_on_c, 0, 74, 74
2, 34089, Control_c, 0, 64, 28
2, 34105, Control_c, 0, 64, 26
2, 34120, Control_c, 0, 64, 25
2, 34123, Note_on_c, 0, 52, 79
2, 34130, Note_on_c, 0, 72, 85
2, 34134, Control_c, 0, 64, 22
2, 34135, Note_on_c, 0, 74, 0
2, 34150, Control_c, 0, 64, 20
2, 34155, Note_on_c, 0, 52, 0
2, 34165, Control_c, 0, 64, 19
2, 34196, Control_c, 0, 64, 18
2, 34227, Note_on_c, 0, 71, 83
2, 34232, Note_on_c, 0, 72, 0
2, 34308, Note_on_c, 0, 57, 84
2, 34310, Note_on_c, 0, 71, 0
2, 34320, Note_on_c, 0, 69, 84
2, 34354, Note_on_c, 0, 57, 0
2, 34400, Note_on_c, 0, 72, 77
2, 34407, Note_on_c, 0, 69, 0
2, 34491, Note_on_c, 0, 71, 76
2, 34495, Note_on_c, 0, 60, 80
2, 34501, Note_on_c, 0, 72, 0
2, 34533, Note_on_c, 0, 60, 0
2, 34563, Note_on_c, 0, 71, 0
2, 34582, Note_on_c, 0, 69, 74
2, 34676, Note_on_c, 0, 69, 0
2, 34678, Note_on_c, 0, 77, 83
2, 34682, Note_on_c, 0, 62, 84
2, 34723, Note_on_c, 0, 62, 0
2, 34779, Note_on_c, 0, 74, 73
2, 34782, Note_on_c, 0, 77, 0
2, 34869, Note_on_c, 0, 74, 0
2, 34876, Note_on_c, 0, 65, 79
2, 34877, Note_on_c, 0, 69, 73
2, 34901, Control_c, 0, 64, 19
2, 34931, Control_c, 0, 64, 18
2, 34934, Note_on_c, 0, 65, 0
2, 34968, Note_on_c, 0, 69, 0
2, 34970, Note_on_c, 0, 74, 72
2, 34977, Control_c, 0, 64, 19
2, 35066, Note_on_c, 0, 57, 69
2, 35066, Note_on_c, 0, 77, 85
2, 35069, Note_on_c, 0, 74, 0
2, 35099, Note_on_c, 0, 57, 0
2, 35152, Note_on_c, 0, 77, 0
2, 35158, Note_on_c, 0, 74, 75
2, 35244, Note_on_c, 0, 74, 0
2, 35255, Note_on_c, 0, 62, 79
2, 35255, Note_on_c, 0, 69, 72
2, 35290, Note_on_c, 0, 62, 0
2, 35342, Note_on_c, 0, 69, 0
2, 35342, Note_on_c, 0, 74, 72
2, 35434, Note_on_c, 0, 50, 77
2, 35436, Note_on_c, 0, 77, 86
2, 35440, Note_on_c, 0, 74, 0
2, 35474, Note_on_c, 0, 50, 0
2, 35546, Note_on_c, 0, 74, 76
2, 35546, Note_on_c, 0, 77, 0
2, 35594, Control_c, 0, 64, 20
2, 35609, Control_c, 0, 64, 21
2, 35624, Control_c, 0, 64, 21
2, 35631, Note_on_c, 0, 59, 94
2, 35632, Note_on_c, 0, 74, 0
2, 35639, Control_c, 0, 64, 22
2, 35639, Note_on_c, 0, 69, 78
2, 35654, Control_c, 0, 64, 23
2, 35670, Control_c, 0, 64, 23
2, 35676, Note_on_c, 0, 59, 0
2, 35684, Control_c, 0, 64, 24
2, 35726, Note_on_c, 0, 74, 76
2, 35730, Control_c, 0, 64, 24
2, 35736, Note_on_c, 0, 69, 0
2, 35791, Control_c, 0, 64, 25
2, 35800, Note_on_c, 0, 74, 0
2, 35822, Note_on_c, 0, 60, 74
2, 35823, Note_on_c, 0, 76, 72
2, 35855, Note_on_c, 0, 60, 0
2, 35903, Note_on_c, 0, 76, 0
2, 35910, Note_on_c, 0, 74, 67
2, 35986, Note_on_c, 0, 74, 0
2, 36019, Note_on_c, 0, 69, 57
2, 36026, Note_on_c, 0, 64, 59
2, 36066, Note_on_c, 0, 64, 0
2, 36121, Note_on_c, 0, 74, 52
2, 36129, Note_on_c, 0, 69, 0
2, 36188, Note_on_c, 0, 74, 0
2, 36205, Note_on_c, 0, 76, 59
2, 36208, Note_on_c, 0, 57, 58
2, 36242, Note_on_c, 0, 57, 0
2, 36284, Note_on_c, 0, 76, 0
2, 36309, Note_on_c, 0, 72, 58
2, 36382, Note_on_c, 0, 72, 0
2, 36405, Note_on_c, 0, 60, 65
2, 36411, Note_on_c, 0, 69, 56
2, 36435, Note_on_c, 0, 60, 0
2, 36489, Note_on_c, 0, 69, 0
2, 36502, Note_on_c, 0, 72, 58
2, 36555, Note_on_c, 0, 72, 0
2, 36600, Note_on_c, 0, 76, 57
2, 36602, Note_on_c, 0, 48, 52
2, 36637, Note_on_c, 0, 48, 0
2, 36682, Note_on_c, 0, 76, 0
2, 36699, Note_on_c, 0, 72, 52
2, 36777, Note_on_c, 0, 72, 0
2, 36782, Note_on_c, 0, 57, 69
2, 36796, Note_on_c, 0, 69, 59
2, 36817, Note_on_c, 0, 57, 0
2, 36862, Note_on_c, 0, 69, 0
2, 36891, Note_on_c, 0, 72, 58
2, 36936, Note_on_c, 0, 72, 0
2, 36966, Note_on_c, 0, 59, 64
2, 36982, Note_on_c, 0, 74, 66
2, 36999, Note_on_c, 0, 59, 0
2, 37063, Note_on_c, 0, 74, 0
2, 37086, Note_on_c, 0, 71, 62
2, 37154, Note_on_c, 0, 71, 0
2, 37168, Note_on_c, 0, 62, 58
2, 37182, Note_on_c, 0, 69, 59
2, 37206, Note_on_c, 0, 62, 0
2, 37232, Note_on_c, 0, 69, 0
2, 37261, Note_on_c, 0, 71, 58
2, 37334, Note_on_c, 0, 71, 0
2, 37347, Note_on_c, 0, 74, 61
2, 37356, Note_on_c, 0, 56, 59
2, 37391, Note_on_c, 0, 56, 0
2, 37425, Note_on_c, 0, 74, 0
2, 37443, Note_on_c, 0, 71, 57
2, 37514, Note_on_c, 0, 71, 0
2, 37545, Note_on_c, 0, 68, 53
2, 37553, Note_on_c, 0, 59, 51
2, 37579, Note_on_c, 0, 59, 0
2, 37600, Note_on_c, 0, 68, 0
2, 37621, Note_on_c, 0, 71, 50
2, 37631, Control_c, 0, 64, 24
2, 37646, Control_c, 0, 64, 23
2, 37662, Control_c, 0, 64, 23
2, 37677, Control_c, 0, 64, 22
2, 37689, Note_on_c, 0, 71, 0
2, 37723, Control_c, 0, 64, 21
2, 37724, Note_on_c, 0, 74, 65
2, 37728, Note_on_c, 0, 64, 58
2, 37765, Note_on_c, 0, 64, 0
2, 37768, Control_c, 0, 64, 21
2, 37799, Note_on_c, 0, 74, 0
2, 37828, Note_on_c, 0, 71, 59
2, 37896, Note_on_c, 0, 71, 0
2, 37917, Note_on_c, 0, 52, 55
2, 37925, Note_on_c, 0, 68, 59
2, 37958, Note_on_c, 0, 52, 0
2, 37973, Note_on_c, 0, 68, 0
2, 37974, Control_c, 0, 64, 9
2, 37990, Control_c, 0, 64, 0
2, 38020, Note_on_c, 0, 71, 57
2, 38059, Note_on_c, 0, 71, 0
2, 38080, Control_c, 0, 64, 21
2, 38095, Control_c, 0, 64, 42
2, 38111, Control_c, 0, 64, 52
2, 38112, Note_on_c, 0, 72, 65
2, 38113, Note_on_c, 0, 57, 63
2, 38126, Control_c, 0, 64, 59
2, 38142, Control_c, 0, 64, 63
2, 38157, Control_c, 0, 64, 67
2, 38172, Control_c, 0, 64, 71
2, 38186, Note_on_c, 0, 57, 0
2, 38188, Control_c, 0, 64, 78
2, 38202, Control_c, 0, 64, 86
2, 38210, Note_on_c, 0, 69, 74
2, 38217, Control_c, 0, 64, 97
2, 38233, Control_c, 0, 64, 110
2, 38248, Control_c, 0, 64, 127
2, 38289, Note_on_c, 0, 67, 72
2, 38297, Note_on_c, 0, 69, 0
2, 38354, Control_c, 0, 64, 113
2, 38369, Control_c, 0, 64, 106
2, 38381, Note_on_c, 0, 65, 82
2, 38385, Control_c, 0, 64, 100
2, 38399, Control_c, 0, 64, 94
2, 38410, Note_on_c, 0, 67, 0
2, 38414, Control_c, 0, 64, 87
2, 38430, Control_c, 0, 64, 80
2, 38445, Control_c, 0, 64, 77
2, 38461, Control_c, 0, 64, 74
2, 38466, Note_on_c, 0, 64, 74
2, 38475, Control_c, 0, 64, 72
2, 38490, Control_c, 0, 64, 70
2, 38490, Note_on_c, 0, 65, 0
2, 38506, Control_c, 0, 64, 67
2, 38521, Control_c, 0, 64, 65
2, 38524, Note_on_c, 0, 64, 0
2, 38536, Control_c, 0, 64, 64
2, 38546, Note_on_c, 0, 62, 77
2, 38551, Control_c, 0, 64, 63
2, 38566, Control_c, 0, 64, 61
2, 38582, Control_c, 0, 64, 60
2, 38597, Control_c, 0, 64, 58
2, 38620, Control_c, 0, 64, 57
2, 38635, Control_c, 0, 64, 56
2, 38649, Note_on_c, 0, 62, 0
2, 38650, Control_c, 0, 64, 55
2, 38656, Note_on_c, 0, 60, 66
2, 38666, Control_c, 0, 64, 54
2, 38681, Control_c, 0, 64, 52
2, 38695, Control_c, 0, 64, 50
2, 38711, Control_c, 0, 64, 48
2, 38726, Control_c, 0, 64, 45
2, 38727, Note_on_c, 0, 59, 64
2, 38742, Control_c, 0, 64, 43
2, 38753, Note_on_c, 0, 60, 0
2, 38757, Control_c, 0, 64, 40
2, 38772, Control_c, 0, 64, 38
2, 38787, Control_c, 0, 64, 36
2, 38802, Control_c, 0, 64, 35
2, 38817, Control_c, 0, 64, 34
2, 38828, Note_on_c, 0, 59, 0
2, 38832, Note_on_c, 0, 57, 64
2, 38833, Control_c, 0, 64, 33
2, 38847, Control_c, 0, 64, 31
2, 38863, Control_c, 0, 64, 30
2, 38878, Control_c, 0, 64, 29
2, 38886, Note_on_c, 0, 57, 0
2, 38893, Control_c, 0, 64, 28
2, 38909, Control_c, 0, 64, 28
2, 38921, Note_on_c, 0, 60, 59
2, 38924, Control_c, 0, 64, 27
2, 38955, Control_c, 0, 64, 27
2, 38970, Control_c, 0, 64, 26
2, 38986, Control_c, 0, 64, 23
2, 39000, Control_c, 0, 64, 11
2, 39015, Control_c, 0, 64, 0
2, 39017, Note_on_c, 0, 60, 0
2, 39023, Note_on_c, 0, 52, 60
2, 39106, Note_on_c, 0, 52, 0
2, 39117, Note_on_c, 0, 55, 54
2, 39197, Control_c, 0, 64, 39
2, 39203, Note_on_c, 0, 55, 0
2, 39212, Control_c, 0, 64, 53
2, 39213, Note_on_c, 0, 54, 62
2, 39228, Control_c, 0, 64, 61
2, 39242, Control_c, 0, 64, 65
2, 39257, Control_c, 0, 64, 71
2, 39270, Note_on_c, 0, 54, 0
2, 39273, Control_c, 0, 64, 79
2, 39288, Control_c, 0, 64, 94
2, 39297, Note_on_c, 0, 72, 0
2, 39304, Control_c, 0, 64, 111
2, 39313, Note_on_c, 0, 75, 59
2, 39319, Control_c, 0, 64, 127
2, 39415, Note_on_c, 0, 75, 0
2, 39422, Note_on_c, 0, 74, 57
2, 39425, Note_on_c, 0, 69, 62
2, 39433, Control_c, 0, 64, 95
2, 39448, Control_c, 0, 64, 78
2, 39456, Note_on_c, 0, 69, 0
2, 39463, Control_c, 0, 64, 68
2, 39478, Control_c, 0, 64, 62
2, 39489, Note_on_c, 0, 74, 0
2, 39493, Control_c, 0, 64, 57
2, 39509, Control_c, 0, 64, 54
2, 39514, Note_on_c, 0, 72, 56
2, 39525, Control_c, 0, 64, 52
2, 39541, Control_c, 0, 64, 51
2, 39554, Note_on_c, 0, 72, 0
2, 39555, Control_c, 0, 64, 49
2, 39570, Control_c, 0, 64, 47
2, 39586, Control_c, 0, 64, 43
2, 39601, Control_c, 0, 64, 40
2, 39607, Note_on_c, 0, 78, 63
2, 39616, Control_c, 0, 64, 38
2, 39622, Note_on_c, 0, 72, 42
2, 39631, Control_c, 0, 64, 37
2, 39652, Note_on_c, 0, 72, 0
2, 39676, Note_on_c, 0, 78, 0
2, 39707, Control_c, 0, 64, 36
2, 39719, Note_on_c, 0, 75, 41
2, 39722, Control_c, 0, 64, 36
2, 39737, Control_c, 0, 64, 35
2, 39781, Note_on_c, 0, 75, 0
2, 39801, Note_on_c, 0, 74, 51
2, 39803, Note_on_c, 0, 69, 57
2, 39837, Note_on_c, 0, 69, 0
2, 39848, Note_on_c, 0, 74, 0
2, 39860, Control_c, 0, 64, 35
2, 39886, Note_on_c, 0, 72, 53
2, 39889, Control_c, 0, 64, 34
2, 39933, Note_on_c, 0, 72, 0
2, 39980, Note_on_c, 0, 81, 69
2, 39993, Note_on_c, 0, 66, 55
2, 40025, Note_on_c, 0, 66, 0
2, 40041, Control_c, 0, 64, 35
2, 40054, Note_on_c, 0, 81, 0
2, 40056, Control_c, 0, 64, 35
2, 40093, Note_on_c, 0, 75, 42
2, 40156, Control_c, 0, 64, 36
2, 40166, Note_on_c, 0, 75, 0
2, 40206, Note_on_c, 0, 62, 56
2, 40247, Note_on_c, 0, 62, 0
2, 40282, Note_on_c, 0, 72, 43
2, 40337, Note_on_c, 0, 72, 0
2, 40369, Note_on_c, 0, 70, 62
2, 40370, Control_c, 0, 64, 36
2, 40384, Note_on_c, 0, 67, 64
2, 40413, Note_on_c, 0, 67, 0
2, 40413, Note_on_c, 0, 70, 0
2, 40431, Control_c, 0, 64, 37
2, 40468, Note_on_c, 0, 79, 59
2, 40491, Control_c, 0, 64, 37
2, 40563, Note_on_c, 0, 79, 0
2, 40567, Note_on_c, 0, 77, 65
2, 40574, Note_on_c, 0, 55, 64
2, 40617, Note_on_c, 0, 55, 0
2, 40643, Control_c, 0, 64, 38
2, 40651, Note_on_c, 0, 77, 0
2, 40667, Note_on_c, 0, 75, 64
2, 40673, Control_c, 0, 64, 38
2, 40759, Note_on_c, 0, 58, 70
2, 40772, Note_on_c, 0, 74, 58
2, 40780, Control_c, 0, 64, 39
2, 40783, Note_on_c, 0, 75, 0
2, 40801, Note_on_c, 0, 58, 0
2, 40844, Note_on_c, 0, 74, 0
2, 40868, Note_on_c, 0, 72, 56
2, 40871, Control_c, 0, 64, 39
2, 40950, Note_on_c, 0, 72, 0
2, 40969, Note_on_c, 0, 62, 61
2, 40973, Note_on_c, 0, 70, 55
2, 41003, Note_on_c, 0, 62, 0
2, 41031, Control_c, 0, 64, 40
2, 41037, Note_on_c, 0, 70, 0
2, 41049, Note_on_c, 0, 69, 65
2, 41091, Control_c, 0, 64, 40
2, 41107, Note_on_c, 0, 69, 0
2, 41156, Note_on_c, 0, 72, 67
2, 41159, Note_on_c, 0, 67, 66
2, 41198, Note_on_c, 0, 67, 0
2, 41230, Note_on_c, 0, 72, 0
2, 41249, Note_on_c, 0, 70, 59
2, 41341, Note_on_c, 0, 69, 64
2, 41341, Note_on_c, 0, 70, 0
2, 41355, Note_on_c, 0, 65, 55
2, 41387, Note_on_c, 0, 65, 0
2, 41407, Note_on_c, 0, 69, 0
2, 41425, Note_on_c, 0, 67, 60
2, 41499, Note_on_c, 0, 67, 0
2, 41520, Note_on_c, 0, 72, 73
2, 41523, Note_on_c, 0, 64, 59
2, 41553, Note_on_c, 0, 72, 0
2, 41629, Note_on_c, 0, 61, 57
2, 41646, Note_on_c, 0, 64, 0
2, 41726, Note_on_c, 0, 60, 57
2, 41726, Note_on_c, 0, 76, 78
2, 41764, Note_on_c, 0, 76, 0
2, 41801, Note_on_c, 0, 61, 0
2, 41826, Note_on_c, 0, 60, 0
2, 41827, Note_on_c, 0, 58, 63
2, 41909, Note_on_c, 0, 58, 0
2, 41920, Note_on_c, 0, 65, 73
2, 41929, Note_on_c, 0, 71, 86
2, 41975, Note_on_c, 0, 71, 0
2, 42028, Control_c, 0, 64, 40
2, 42034, Note_on_c, 0, 61, 68
2, 42043, Note_on_c, 0, 65, 0
2, 42113, Note_on_c, 0, 77, 93
2, 42127, Note_on_c, 0, 60, 70
2, 42165, Note_on_c, 0, 77, 0
2, 42174, Note_on_c, 0, 61, 0
2, 42235, Note_on_c, 0, 58, 68
2, 42244, Note_on_c, 0, 60, 0
2, 42301, Control_c, 0, 64, 40
2, 42314, Note_on_c, 0, 70, 94
2, 42322, Note_on_c, 0, 58, 0
2, 42333, Note_on_c, 0, 67, 76
2, 42360, Note_on_c, 0, 70, 0
2, 42376, Control_c, 0, 64, 41
2, 42422, Control_c, 0, 64, 41
2, 42431, Note_on_c, 0, 61, 69
2, 42435, Note_on_c, 0, 67, 0
2, 42526, Note_on_c, 0, 60, 66
2, 42534, Note_on_c, 0, 79, 89
2, 42587, Note_on_c, 0, 61, 0
2, 42602, Note_on_c, 0, 58, 74
2, 42645, Note_on_c, 0, 60, 0
2, 42673, Control_c, 0, 64, 42
2, 42710, Note_on_c, 0, 57, 73
2, 42718, Control_c, 0, 64, 42
2, 42764, Note_on_c, 0, 58, 0
2, 42780, Control_c, 0, 64, 43
2, 42813, Note_on_c, 0, 74, 73
2, 42814, Note_on_c, 0, 57, 0
2, 42816, Note_on_c, 0, 65, 75
2, 42841, Note_on_c, 0, 79, 0
2, 42897, Note_on_c, 0, 74, 0
2, 42904, Note_on_c, 0, 65, 0
2, 42905, Note_on_c, 0, 64, 73
2, 42910, Note_on_c, 0, 72, 83
2, 42987, Note_on_c, 0, 64, 0
2, 42997, Note_on_c, 0, 70, 85
2, 43000, Note_on_c, 0, 72, 0
2, 43004, Note_on_c, 0, 62, 78
2, 43069, Control_c, 0, 64, 42
2, 43084, Control_c, 0, 64, 42
2, 43089, Note_on_c, 0, 69, 86
2, 43093, Note_on_c, 0, 70, 0
2, 43100, Control_c, 0, 64, 41
2, 43102, Note_on_c, 0, 60, 70
2, 43104, Note_on_c, 0, 62, 0
2, 43114, Control_c, 0, 64, 41
2, 43129, Control_c, 0, 64, 40
2, 43145, Control_c, 0, 64, 40
2, 43160, Control_c, 0, 64, 39
2, 43174, Note_on_c, 0, 69, 0
2, 43175, Control_c, 0, 64, 39
2, 43180, Note_on_c, 0, 79, 89
2, 43183, Note_on_c, 0, 58, 73
2, 43190, Control_c, 0, 64, 38
2, 43205, Control_c, 0, 64, 38
2, 43207, Note_on_c, 0, 60, 0
2, 43229, Control_c, 0, 64, 37
2, 43260, Control_c, 0, 64, 36
2, 43279, Note_on_c, 0, 57, 73
2, 43282, Note_on_c, 0, 77, 86
2, 43308, Note_on_c, 0, 79, 0
2, 43313, Note_on_c, 0, 58, 0
2, 43333, Control_c, 0, 64, 36
2, 43364, Control_c, 0, 64, 35
2, 43369, Note_on_c, 0, 76, 87
2, 43380, Control_c, 0, 64, 35
2, 43382, Note_on_c, 0, 55, 72
2, 43394, Control_c, 0, 64, 34
2, 43403, Note_on_c, 0, 77, 0
2, 43409, Control_c, 0, 64, 34
2, 43425, Control_c, 0, 64, 33
2, 43437, Note_on_c, 0, 57, 0
2, 43440, Control_c, 0, 64, 33
2, 43455, Control_c, 0, 64, 32
2, 43461, Note_on_c, 0, 58, 75
2, 43463, Note_on_c, 0, 74, 88
2, 43471, Control_c, 0, 64, 30
2, 43471, Note_on_c, 0, 55, 0
2, 43480, Note_on_c, 0, 76, 0
2, 43486, Control_c, 0, 64, 30
2, 43501, Control_c, 0, 64, 28
2, 43516, Control_c, 0, 64, 28
2, 43536, Note_on_c, 0, 58, 0
2, 43547, Control_c, 0, 64, 27
2, 43547, Note_on_c, 0, 57, 83
2, 43550, Note_on_c, 0, 77, 94
2, 43560, Note_on_c, 0, 74, 0
2, 43562, Control_c, 0, 64, 27
2, 43577, Control_c, 0, 64, 25
2, 43593, Control_c, 0, 64, 24
2, 43607, Control_c, 0, 64, 22
2, 43624, Control_c, 0, 64, 21
2, 43639, Control_c, 0, 64, 17
2, 43646, Note_on_c, 0, 55, 72
2, 43648, Note_on_c, 0, 76, 89
2, 43650, Note_on_c, 0, 57, 0
2, 43653, Control_c, 0, 64, 9
2, 43662, Note_on_c, 0, 77, 0
2, 43669, Control_c, 0, 64, 0
2, 43730, Note_on_c, 0, 76, 0
2, 43739, Note_on_c, 0, 74, 87
2, 43746, Note_on_c, 0, 53, 76
2, 43747, Note_on_c, 0, 55, 0
2, 43823, Note_on_c, 0, 53, 0
2, 43830, Note_on_c, 0, 74, 0
2, 43843, Note_on_c, 0, 73, 86
2, 43847, Note_on_c, 0, 52, 79
2, 43867, Control_c, 0, 64, 60
2, 43882, Control_c, 0, 64, 76
2, 43897, Control_c, 0, 64, 106
2, 43905, Note_on_c, 0, 52, 0
2, 43912, Control_c, 0, 64, 127
2, 43935, Note_on_c, 0, 73, 0
2, 43948, Note_on_c, 0, 70, 77
2, 43974, Note_on_c, 0, 67, 71
2, 44027, Control_c, 0, 64, 96
2, 44041, Control_c, 0, 64, 72
2, 44045, Note_on_c, 0, 70, 0
2, 44054, Note_on_c, 0, 67, 0
2, 44056, Control_c, 0, 64, 59
2, 44062, Note_on_c, 0, 69, 58
2, 44072, Control_c, 0, 64, 30
2, 44088, Control_c, 0, 64, 17
2, 44088, Note_on_c, 0, 65, 59
2, 44107, Note_on_c, 0, 69, 0
2, 44118, Control_c, 0, 64, 16
2, 44133, Control_c, 0, 64, 12
2, 44134, Note_on_c, 0, 67, 51
2, 44149, Control_c, 0, 64, 9
2, 44163, Control_c, 0, 64, 0
2, 44173, Note_on_c, 0, 65, 0
2, 44179, Note_on_c, 0, 64, 48
2, 44179, Note_on_c, 0, 67, 0
2, 44235, Note_on_c, 0, 64, 0
2, 44245, Note_on_c, 0, 74, 58
2, 44266, Note_on_c, 0, 62, 54
2, 44308, Note_on_c, 0, 74, 0
2, 44310, Note_on_c, 0, 62, 0
2, 44332, Note_on_c, 0, 70, 52
2, 44366, Note_on_c, 0, 67, 58
2, 44421, Note_on_c, 0, 67, 0
2, 44422, Note_on_c, 0, 70, 0
2, 44444, Note_on_c, 0, 69, 47
2, 44463, Note_on_c, 0, 65, 55
2, 44488, Note_on_c, 0, 69, 0
2, 44522, Note_on_c, 0, 67, 53
2, 44541, Note_on_c, 0, 65, 0
2, 44557, Note_on_c, 0, 64, 49
2, 44568, Note_on_c, 0, 67, 0
2, 44622, Note_on_c, 0, 76, 65
2, 44624, Note_on_c, 0, 64, 0
2, 44655, Note_on_c, 0, 61, 55
2, 44703, Note_on_c, 0, 61, 0
2, 44706, Note_on_c, 0, 76, 0
2, 44733, Note_on_c, 0, 70, 51
2, 44740, Note_on_c, 0, 67, 55
2, 44816, Note_on_c, 0, 67, 0
2, 44824, Note_on_c, 0, 70, 0
2, 44843, Note_on_c, 0, 69, 52
2, 44849, Note_on_c, 0, 65, 50
2, 44886, Note_on_c, 0, 65, 0
2, 44892, Note_on_c, 0, 69, 0
2, 44932, Note_on_c, 0, 67, 59
2, 44936, Note_on_c, 0, 64, 49
2, 44961, Note_on_c, 0, 64, 0
2, 44962, Control_c, 0, 64, 34
2, 44967, Note_on_c, 0, 67, 0
2, 44977, Control_c, 0, 64, 53
2, 44993, Control_c, 0, 64, 58
2, 45007, Control_c, 0, 64, 62
2, 45015, Note_on_c, 0, 50, 74
2, 45021, Note_on_c, 0, 65, 57
2, 45023, Control_c, 0, 64, 67
2, 45038, Control_c, 0, 64, 75
2, 45053, Control_c, 0, 64, 94
2, 45054, Note_on_c, 0, 65, 0
2, 45067, Note_on_c, 0, 50, 0
2, 45069, Control_c, 0, 64, 127
2, 45135, Note_on_c, 0, 63, 75
2, 45174, Control_c, 0, 64, 100
2, 45190, Control_c, 0, 64, 81
2, 45207, Control_c, 0, 64, 69
2, 45207, Note_on_c, 0, 63, 0
2, 45222, Control_c, 0, 64, 61
2, 45226, Note_on_c, 0, 66, 57
2, 45228, Note_on_c, 0, 62, 68
2, 45237, Control_c, 0, 64, 56
2, 45253, Control_c, 0, 64, 54
2, 45255, Note_on_c, 0, 66, 0
2, 45269, Control_c, 0, 64, 53
2, 45284, Control_c, 0, 64, 52
2, 45300, Control_c, 0, 64, 51
2, 45314, Control_c, 0, 64, 50
2, 45319, Note_on_c, 0, 62, 0
2, 45324, Note_on_c, 0, 60, 62
2, 45329, Control_c, 0, 64, 49
2, 45345, Control_c, 0, 64, 48
2, 45360, Control_c, 0, 64, 47
2, 45376, Control_c, 0, 64, 46
2, 45390, Control_c, 0, 64, 45
2, 45405, Control_c, 0, 64, 43
2, 45408, Note_on_c, 0, 60, 0
2, 45420, Note_on_c, 0, 67, 58
2, 45421, Control_c, 0, 64, 42
2, 45422, Note_on_c, 0, 58, 58
2, 45436, Control_c, 0, 64, 42
2, 45447, Note_on_c, 0, 67, 0
2, 45450, Control_c, 0, 64, 41
2, 45466, Control_c, 0, 64, 40
2, 45469, Note_on_c, 0, 58, 0
2, 45481, Control_c, 0, 64, 39
2, 45497, Control_c, 0, 64, 39
2, 45537, Note_on_c, 0, 60, 50
2, 45565, Control_c, 0, 64, 38
2, 45612, Note_on_c, 0, 58, 56
2, 45614, Note_on_c, 0, 60, 0
2, 45633, Note_on_c, 0, 69, 48
2, 45657, Note_on_c, 0, 69, 0
2, 45701, Control_c, 0, 64, 39
2, 45701, Note_on_c, 0, 58, 0
2, 45725, Note_on_c, 0, 57, 45
2, 45730, Control_c, 0, 64, 39
2, 45787, Note_on_c, 0, 57, 0
2, 45802, Note_on_c, 0, 55, 57
2, 45813, Note_on_c, 0, 70, 57
2, 45848, Note_on_c, 0, 70, 0
2, 45852, Control_c, 0, 64, 40
2, 45897, Note_on_c, 0, 55, 0
2, 45923, Note_on_c, 0, 57, 60
2, 45943, Control_c, 0, 64, 40
2, 45998, Note_on_c, 0, 71, 70
2, 46004, Note_on_c, 0, 57, 0
2, 46015, Note_on_c, 0, 55, 61
2, 46025, Note_on_c, 0, 71, 0
2, 46110, Note_on_c, 0, 55, 0
2, 46116, Note_on_c, 0, 53, 56
2, 46190, Note_on_c, 0, 72, 76
2, 46191, Note_on_c, 0, 52, 63
2, 46218, Note_on_c, 0, 53, 0
2, 46232, Note_on_c, 0, 72, 0
2, 46257, Note_on_c, 0, 52, 0
2, 46279, Control_c, 0, 64, 41
2, 46294, Note_on_c, 0, 58, 76
2, 46332, Control_c, 0, 64, 41
2, 46366, Note_on_c, 0, 58, 0
2, 46381, Note_on_c, 0, 57, 75
2, 46381, Note_on_c, 0, 73, 83
2, 46392, Control_c, 0, 64, 42
2, 46428, Note_on_c, 0, 73, 0
2, 46454, Control_c, 0, 64, 42
2, 46483, Note_on_c, 0, 55, 69
2, 46486, Note_on_c, 0, 57, 0
2, 46568, Note_on_c, 0, 53, 75
2, 46574, Note_on_c, 0, 55, 0
2, 46576, Note_on_c, 0, 74, 87
2, 46614, Note_on_c, 0, 74, 0
2, 46653, Note_on_c, 0, 53, 0
2, 46662, Note_on_c, 0, 55, 77
2, 46755, Note_on_c, 0, 53, 80
2, 46765, Note_on_c, 0, 55, 0
2, 46770, Note_on_c, 0, 76, 103
2, 46819, Note_on_c, 0, 76, 0
2, 46860, Note_on_c, 0, 52, 74
2, 46873, Note_on_c, 0, 53, 0
2, 46963, Note_on_c, 0, 50, 78
2, 46966, Note_on_c, 0, 52, 0
2, 46967, Note_on_c, 0, 77, 104
2, 47010, Note_on_c, 0, 77, 0
2, 47071, Note_on_c, 0, 51, 86
2, 47078, Note_on_c, 0, 50, 0
2, 47151, Note_on_c, 0, 51, 0
2, 47160, Control_c, 0, 64, 43
2, 47165, Note_on_c, 0, 50, 88
2, 47173, Note_on_c, 0, 78, 104
2, 47226, Note_on_c, 0, 78, 0
2, 47266, Note_on_c, 0, 48, 81
2, 47285, Note_on_c, 0, 50, 0
2, 47388, Note_on_c, 0, 46, 92
2, 47390, Note_on_c, 0, 79, 100
2, 47399, Note_on_c, 0, 48, 0
2, 47419, Control_c, 0, 64, 42
2, 47436, Note_on_c, 0, 46, 0
2, 47449, Control_c, 0, 64, 42
2, 47496, Note_on_c, 0, 79, 0
2, 47512, Note_on_c, 0, 74, 84
2, 47541, Control_c, 0, 64, 42
2, 47555, Control_c, 0, 64, 43
2, 47632, Note_on_c, 0, 74, 0
2, 47638, Note_on_c, 0, 43, 82
2, 47644, Note_on_c, 0, 82, 99
2, 47674, Control_c, 0, 64, 42
2, 47689, Control_c, 0, 64, 42
2, 47696, Note_on_c, 0, 43, 0
2, 47754, Note_on_c, 0, 81, 85
2, 47772, Note_on_c, 0, 82, 0
2, 47797, Control_c, 0, 64, 41
2, 47812, Control_c, 0, 64, 40
2, 47836, Control_c, 0, 64, 40
2, 47850, Control_c, 0, 64, 39
2, 47866, Control_c, 0, 64, 39
2, 47868, Note_on_c, 0, 46, 84
2, 47869, Note_on_c, 0, 79, 90
2, 47881, Control_c, 0, 64, 38
2, 47883, Note_on_c, 0, 81, 0
2, 47896, Control_c, 0, 64, 37
2, 47911, Control_c, 0, 64, 37
2, 47924, Note_on_c, 0, 46, 0
2, 47927, Control_c, 0, 64, 36
2, 47961, Note_on_c, 0, 79, 0
2, 47967, Note_on_c, 0, 77, 88
2, 48026, Note_on_c, 0, 77, 0
2, 48056, Note_on_c, 0, 50, 84
2, 48060, Note_on_c, 0, 76, 87
2, 48094, Control_c, 0, 64, 37
2, 48100, Note_on_c, 0, 50, 0
2, 48153, Note_on_c, 0, 74, 80
2, 48154, Note_on_c, 0, 76, 0
2, 48255, Note_on_c, 0, 55, 87
2, 48255, Note_on_c, 0, 73, 91
2, 48265, Note_on_c, 0, 74, 0
2, 48349, Note_on_c, 0, 74, 86
2, 48350, Note_on_c, 0, 73, 0
2, 48368, Control_c, 0, 64, 36
2, 48384, Control_c, 0, 64, 35
2, 48441, Note_on_c, 0, 76, 87
2, 48444, Control_c, 0, 64, 35
2, 48478, Note_on_c, 0, 74, 0
2, 48537, Note_on_c, 0, 73, 85
2, 48552, Note_on_c, 0, 76, 0
2, 48582, Control_c, 0, 64, 35
2, 48617, Note_on_c, 0, 55, 0
2, 48634, Note_on_c, 0, 73, 0
2, 48643, Note_on_c, 0, 69, 95
2, 48665, Control_c, 0, 64, 36
2, 48680, Control_c, 0, 64, 36
2, 48690, Note_on_c, 0, 69, 0
2, 48746, Note_on_c, 0, 55, 75
2, 48756, Control_c, 0, 64, 37
2, 48817, Control_c, 0, 64, 38
2, 48839, Note_on_c, 0, 45, 76
2, 48839, Note_on_c, 0, 55, 0
2, 48843, Note_on_c, 0, 64, 88
2, 48882, Note_on_c, 0, 64, 0
2, 48893, Control_c, 0, 64, 38
2, 48923, Control_c, 0, 64, 39
2, 48932, Note_on_c, 0, 45, 0
2, 48953, Control_c, 0, 64, 39
2, 48961, Note_on_c, 0, 43, 73
2, 49029, Note_on_c, 0, 69, 90
2, 49035, Note_on_c, 0, 45, 73
2, 49043, Note_on_c, 0, 43, 0
2, 49067, Note_on_c, 0, 69, 0
2, 49075, Control_c, 0, 64, 40
2, 49108, Note_on_c, 0, 45, 0
2, 49129, Note_on_c, 0, 55, 73
2, 49212, Note_on_c, 0, 55, 0
2, 49221, Note_on_c, 0, 45, 69
2, 49227, Control_c, 0, 64, 40
2, 49237, Note_on_c, 0, 73, 87
2, 49272, Note_on_c, 0, 73, 0
2, 49301, Note_on_c, 0, 45, 0
2, 49320, Note_on_c, 0, 55, 71
2, 49387, Control_c, 0, 64, 41
2, 49411, Note_on_c, 0, 55, 0
2, 49425, Note_on_c, 0, 45, 71
2, 49438, Note_on_c, 0, 76, 83
2, 49479, Note_on_c, 0, 76, 0
2, 49482, Note_on_c, 0, 75, 84
2, 49496, Note_on_c, 0, 45, 0
2, 49515, Note_on_c, 0, 55, 71
2, 49536, Note_on_c, 0, 76, 82
2, 49550, Note_on_c, 0, 75, 0
2, 49600, Note_on_c, 0, 55, 0
2, 49607, Note_on_c, 0, 45, 69
2, 49682, Note_on_c, 0, 45, 0
2, 49703, Note_on_c, 0, 55, 74
2, 49735, Control_c, 0, 64, 40
2, 49766, Control_c, 0, 64, 40
2, 49790, Note_on_c, 0, 55, 0
2, 49796, Control_c, 0, 64, 39
2, 49802, Note_on_c, 0, 45, 74
2, 49827, Control_c, 0, 64, 39
2, 49880, Note_on_c, 0, 45, 0
2, 49896, Note_on_c, 0, 53, 72
2, 49900, Note_on_c, 0, 69, 61
2, 49905, Note_on_c, 0, 71, 65
2, 49915, Note_on_c, 0, 76, 0
2, 49973, Note_on_c, 0, 71, 0
2, 49987, Note_on_c, 0, 45, 72
2, 49997, Note_on_c, 0, 69, 0
2, 50001, Note_on_c, 0, 53, 0
2, 50001, Note_on_c, 0, 65, 75
2, 50070, Control_c, 0, 64, 39
2, 50084, Note_on_c, 0, 45, 0
2, 50089, Note_on_c, 0, 43, 75
2, 50089, Note_on_c, 0, 69, 86
2, 50095, Note_on_c, 0, 65, 0
2, 50101, Control_c, 0, 64, 40
2, 50154, Control_c, 0, 64, 40
2, 50192, Note_on_c, 0, 45, 78
2, 50192, Note_on_c, 0, 69, 0
2, 50197, Note_on_c, 0, 74, 87
2, 50198, Note_on_c, 0, 43, 0
2, 50279, Note_on_c, 0, 45, 0
2, 50290, Note_on_c, 0, 74, 0
2, 50292, Note_on_c, 0, 69, 85
2, 50294, Note_on_c, 0, 53, 69
2, 50322, Control_c, 0, 64, 40
2, 50363, Note_on_c, 0, 69, 0
2, 50379, Note_on_c, 0, 53, 0
2, 50388, Note_on_c, 0, 45, 74
2, 50391, Note_on_c, 0, 65, 77
2, 50429, Control_c, 0, 64, 39
2, 50453, Note_on_c, 0, 65, 0
2, 50465, Note_on_c, 0, 45, 0
2, 50466, Note_on_c, 0, 69, 83
2, 50490, Note_on_c, 0, 53, 70
2, 50510, Note_on_c, 0, 69, 0
2, 50563, Note_on_c, 0, 53, 0
2, 50564, Control_c, 0, 64, 39
2, 50572, Note_on_c, 0, 74, 80
2, 50579, Note_on_c, 0, 45, 77
2, 50595, Control_c, 0, 64, 38
2, 50622, Note_on_c, 0, 73, 85
2, 50625, Note_on_c, 0, 74, 0
2, 50650, Note_on_c, 0, 45, 0
2, 50671, Note_on_c, 0, 53, 75
2, 50675, Note_on_c, 0, 74, 78
2, 50689, Note_on_c, 0, 73, 0
2, 50760, Note_on_c, 0, 45, 70
2, 50760, Note_on_c, 0, 53, 0
2, 50842, Note_on_c, 0, 45, 0
2, 50860, Note_on_c, 0, 53, 70
2, 50954, Note_on_c, 0, 53, 0
2, 50962, Note_on_c, 0, 45, 74
2, 51013, Control_c, 0, 64, 39
2, 51037, Note_on_c, 0, 45, 0
2, 51046, Note_on_c, 0, 67, 73
2, 51052, Note_on_c, 0, 52, 74
2, 51061, Note_on_c, 0, 74, 0
2, 51135, Control_c, 0, 64, 39
2, 51140, Note_on_c, 0, 45, 70
2, 51142, Note_on_c, 0, 67, 0
2, 51150, Note_on_c, 0, 52, 0
2, 51150, Note_on_c, 0, 64, 75
2, 51151, Control_c, 0, 64, 40
2, 51181, Control_c, 0, 64, 40
2, 51211, Control_c, 0, 64, 41
2, 51227, Control_c, 0, 64, 41
2, 51239, Note_on_c, 0, 67, 87
2, 51245, Note_on_c, 0, 43, 75
2, 51245, Note_on_c, 0, 64, 0
2, 51249, Note_on_c, 0, 45, 0
2, 51273, Control_c, 0, 64, 42
2, 51322, Note_on_c, 0, 67, 0
2, 51333, Control_c, 0, 64, 42
2, 51340, Note_on_c, 0, 72, 91
2, 51348, Note_on_c, 0, 45, 75
2, 51355, Note_on_c, 0, 43, 0
2, 51428, Note_on_c, 0, 45, 0
2, 51432, Note_on_c, 0, 72, 0
2, 51436, Note_on_c, 0, 67, 80
2, 51439, Control_c, 0, 64, 42
2, 51444, Note_on_c, 0, 52, 66
2, 51470, Control_c, 0, 64, 41
2, 51515, Note_on_c, 0, 67, 0
2, 51533, Note_on_c, 0, 52, 0
2, 51540, Note_on_c, 0, 64, 75
2, 51543, Note_on_c, 0, 45, 72
2, 51546, Control_c, 0, 64, 41
2, 51614, Note_on_c, 0, 67, 84
2, 51616, Note_on_c, 0, 64, 0
2, 51622, Note_on_c, 0, 45, 0
2, 51643, Note_on_c, 0, 52, 69
2, 51671, Note_on_c, 0, 67, 0
2, 51722, Note_on_c, 0, 52, 0
2, 51726, Note_on_c, 0, 72, 84
2, 51739, Note_on_c, 0, 45, 74
2, 51766, Control_c, 0, 64, 40
2, 51782, Control_c, 0, 64, 40
2, 51784, Note_on_c, 0, 72, 0
2, 51787, Note_on_c, 0, 71, 84
2, 51807, Note_on_c, 0, 45, 0
2, 51821, Note_on_c, 0, 52, 69
2, 51840, Note_on_c, 0, 72, 77
2, 51843, Control_c, 0, 64, 39
2, 51844, Note_on_c, 0, 71, 0
2, 51905, Note_on_c, 0, 52, 0
2, 51914, Note_on_c, 0, 45, 66
2, 51990, Note_on_c, 0, 45, 0
2, 52017, Note_on_c, 0, 52, 64
2, 52128, Note_on_c, 0, 45, 53
2, 52132, Note_on_c, 0, 52, 0
2, 52228, Note_on_c, 0, 65, 56
2, 52237, Note_on_c, 0, 50, 52
2, 52261, Note_on_c, 0, 45, 0
2, 52280, Note_on_c, 0, 72, 0
2, 52325, Note_on_c, 0, 65, 0
2, 52331, Note_on_c, 0, 50, 0
2, 52335, Note_on_c, 0, 62, 63
2, 52351, Note_on_c, 0, 53, 57
2, 52441, Note_on_c, 0, 65, 67
2, 52446, Note_on_c, 0, 62, 0
2, 52455, Note_on_c, 0, 53, 0
2, 52462, Note_on_c, 0, 50, 55
2, 52519, Note_on_c, 0, 50, 0
2, 52536, Note_on_c, 0, 65, 0
2, 52541, Note_on_c, 0, 45, 61
2, 52545, Note_on_c, 0, 70, 74
2, 52639, Note_on_c, 0, 50, 68
2, 52646, Note_on_c, 0, 45, 0
2, 52646, Note_on_c, 0, 65, 74
2, 52654, Note_on_c, 0, 70, 0
2, 52726, Note_on_c, 0, 65, 0
2, 52735, Note_on_c, 0, 50, 0
2, 52738, Note_on_c, 0, 53, 64
2, 52744, Note_on_c, 0, 62, 68
2, 52811, Note_on_c, 0, 57, 68
2, 52816, Note_on_c, 0, 53, 0
2, 52820, Note_on_c, 0, 65, 71
2, 52822, Control_c, 0, 64, 39
2, 52837, Control_c, 0, 64, 38
2, 52850, Note_on_c, 0, 62, 0
2, 52868, Control_c, 0, 64, 38
2, 52886, Note_on_c, 0, 57, 0
2, 52897, Control_c, 0, 64, 37
2, 52903, Note_on_c, 0, 65, 0
2, 52910, Note_on_c, 0, 70, 82
2, 52911, Note_on_c, 0, 43, 70
2, 52998, Note_on_c, 0, 67, 77
2, 53004, Note_on_c, 0, 70, 0
2, 53016, Note_on_c, 0, 43, 0
2, 53026, Note_on_c, 0, 52, 71
2, 53082, Note_on_c, 0, 67, 0
2, 53087, Note_on_c, 0, 52, 0
2, 53095, Note_on_c, 0, 55, 74
2, 53098, Note_on_c, 0, 64, 69
2, 53111, Control_c, 0, 64, 38
2, 53163, Note_on_c, 0, 64, 0
2, 53183, Note_on_c, 0, 67, 73
2, 53201, Note_on_c, 0, 55, 0
2, 53203, Note_on_c, 0, 58, 76
2, 53268, Note_on_c, 0, 67, 0
2, 53281, Note_on_c, 0, 58, 0
2, 53285, Note_on_c, 0, 61, 78
2, 53294, Note_on_c, 0, 55, 75
2, 53322, Note_on_c, 0, 55, 0
2, 53347, Control_c, 0, 64, 36
2, 53362, Control_c, 0, 64, 35
2, 53368, Note_on_c, 0, 61, 0
2, 53376, Control_c, 0, 64, 34
2, 53389, Note_on_c, 0, 69, 72
2, 53392, Control_c, 0, 64, 33
2, 53407, Control_c, 0, 64, 31
2, 53422, Control_c, 0, 64, 28
2, 53437, Control_c, 0, 64, 25
2, 53453, Control_c, 0, 64, 19
2, 53469, Control_c, 0, 64, 0
2, 53485, Note_on_c, 0, 69, 0
2, 53487, Note_on_c, 0, 49, 69
2, 53493, Note_on_c, 0, 70, 71
2, 53518, Note_on_c, 0, 49, 0
2, 53571, Note_on_c, 0, 70, 0
2, 53597, Note_on_c, 0, 69, 72
2, 53668, Note_on_c, 0, 69, 0
2, 53685, Note_on_c, 0, 52, 73
2, 53697, Note_on_c, 0, 61, 69
2, 53714, Note_on_c, 0, 52, 0
2, 53745, Note_on_c, 0, 61, 0
2, 53795, Note_on_c, 0, 69, 67
2, 53853, Control_c, 0, 64, 33
2, 53868, Control_c, 0, 64, 54
2, 53877, Note_on_c, 0, 43, 77
2, 53883, Control_c, 0, 64, 58
2, 53896, Note_on_c, 0, 70, 79
2, 53899, Control_c, 0, 64, 64
2, 53907, Note_on_c, 0, 43, 0
2, 53909, Note_on_c, 0, 69, 0
2, 53913, Control_c, 0, 64, 74
2, 53928, Control_c, 0, 64, 94
2, 53944, Control_c, 0, 64, 127
2, 53996, Note_on_c, 0, 70, 0
2, 54002, Note_on_c, 0, 69, 69
2, 54042, Control_c, 0, 64, 98
2, 54058, Control_c, 0, 64, 77
2, 54064, Note_on_c, 0, 69, 0
2, 54072, Control_c, 0, 64, 65
2, 54081, Note_on_c, 0, 61, 87
2, 54087, Control_c, 0, 64, 53
2, 54103, Control_c, 0, 64, 30
2, 54118, Control_c, 0, 64, 16
2, 54127, Note_on_c, 0, 61, 0
2, 54134, Control_c, 0, 64, 0
2, 54189, Note_on_c, 0, 46, 73
2, 54294, Note_on_c, 0, 45, 73
2, 54298, Note_on_c, 0, 64, 87
2, 54303, Note_on_c, 0, 46, 0
2, 54392, Control_c, 0, 64, 9
2, 54401, Note_on_c, 0, 43, 69
2, 54407, Control_c, 0, 64, 13
2, 54412, Note_on_c, 0, 45, 0
2, 54423, Control_c, 0, 64, 17
2, 54438, Control_c, 0, 64, 21
2, 54453, Control_c, 0, 64, 23
2, 54468, Control_c, 0, 64, 25
2, 54483, Control_c, 0, 64, 26
2, 54490, Note_on_c, 0, 41, 76
2, 54499, Control_c, 0, 64, 27
2, 54500, Note_on_c, 0, 43, 0
2, 54568, Note_on_c, 0, 41, 0
2, 54589, Note_on_c, 0, 64, 0
2, 54602, Note_on_c, 0, 53, 65
2, 54605, Note_on_c, 0, 69, 70
2, 54685, Note_on_c, 0, 69, 0
2, 54687, Note_on_c, 0, 53, 0
2, 54694, Note_on_c, 0, 70, 71
2, 54697, Note_on_c, 0, 52, 63
2, 54779, Note_on_c, 0, 52, 0
2, 54792, Note_on_c, 0, 70, 0
2, 54804, Note_on_c, 0, 69, 69
2, 54808, Note_on_c, 0, 53, 65
2, 54838, Control_c, 0, 64, 27
2, 54882, Note_on_c, 0, 53, 0
2, 54886, Note_on_c, 0, 69, 0
2, 54900, Note_on_c, 0, 62, 79
2, 54902, Note_on_c, 0, 41, 73
2, 54970, Note_on_c, 0, 41, 0
2, 54993, Note_on_c, 0, 62, 0
2, 55005, Note_on_c, 0, 69, 74
2, 55013, Note_on_c, 0, 53, 60
2, 55051, Control_c, 0, 64, 28
2, 55092, Note_on_c, 0, 69, 0
2, 55094, Note_on_c, 0, 53, 0
2, 55097, Control_c, 0, 64, 28
2, 55102, Note_on_c, 0, 52, 61
2, 55110, Note_on_c, 0, 70, 73
2, 55113, Control_c, 0, 64, 29
2, 55128, Control_c, 0, 64, 30
2, 55158, Control_c, 0, 64, 30
2, 55183, Note_on_c, 0, 52, 0
2, 55189, Control_c, 0, 64, 31
2, 55199, Note_on_c, 0, 70, 0
2, 55204, Control_c, 0, 64, 32
2, 55204, Note_on_c, 0, 69, 71
2, 55214, Note_on_c, 0, 53, 63
2, 55284, Note_on_c, 0, 53, 0
2, 55284, Note_on_c, 0, 69, 0
2, 55291, Note_on_c, 0, 62, 87
2, 55297, Note_on_c, 0, 41, 74
2, 55335, Note_on_c, 0, 62, 0
2, 55373, Note_on_c, 0, 41, 0
2, 55402, Note_on_c, 0, 53, 72
2, 55492, Control_c, 0, 64, 32
2, 55497, Note_on_c, 0, 52, 71
2, 55510, Note_on_c, 0, 53, 0
2, 55512, Note_on_c, 0, 65, 86
2, 55593, Note_on_c, 0, 52, 0
2, 55605, Note_on_c, 0, 50, 72
2, 55702, Note_on_c, 0, 49, 87
2, 55706, Note_on_c, 0, 50, 0
2, 55736, Note_on_c, 0, 49, 0
2, 55789, Note_on_c, 0, 65, 0
2, 55798, Note_on_c, 0, 67, 72
2, 55870, Note_on_c, 0, 67, 0
2, 55889, Note_on_c, 0, 40, 81
2, 55905, Note_on_c, 0, 69, 79
2, 55912, Control_c, 0, 64, 32
2, 55925, Note_on_c, 0, 40, 0
2, 55927, Control_c, 0, 64, 31
2, 55957, Control_c, 0, 64, 30
2, 55994, Note_on_c, 0, 69, 0
2, 55998, Note_on_c, 0, 67, 75
2, 56002, Control_c, 0, 64, 30
2, 56017, Control_c, 0, 64, 29
2, 56033, Control_c, 0, 64, 28
2, 56048, Control_c, 0, 64, 27
2, 56064, Control_c, 0, 64, 27
2, 56075, Note_on_c, 0, 67, 0
2, 56079, Control_c, 0, 64, 26
2, 56093, Note_on_c, 0, 43, 80
2, 56094, Control_c, 0, 64, 25
2, 56099, Note_on_c, 0, 64, 82
2, 56110, Control_c, 0, 64, 20
2, 56125, Control_c, 0, 64, 11
2, 56131, Note_on_c, 0, 43, 0
2, 56140, Control_c, 0, 64, 0
2, 56163, Note_on_c, 0, 64, 0
2, 56188, Note_on_c, 0, 67, 78
2, 56257, Note_on_c, 0, 67, 0
2, 56299, Note_on_c, 0, 37, 84
2, 56302, Note_on_c, 0, 69, 82
2, 56314, Control_c, 0, 64, 52
2, 56327, Note_on_c, 0, 37, 0
2, 56329, Control_c, 0, 64, 62
2, 56345, Control_c, 0, 64, 65
2, 56360, Control_c, 0, 64, 73
2, 56375, Control_c, 0, 64, 96
2, 56376, Note_on_c, 0, 67, 77
2, 56382, Note_on_c, 0, 69, 0
2, 56391, Control_c, 0, 64, 127
2, 56426, Note_on_c, 0, 67, 0
2, 56467, Control_c, 0, 64, 111
2, 56481, Control_c, 0, 64, 77
2, 56482, Note_on_c, 0, 57, 90
2, 56496, Control_c, 0, 64, 58
2, 56512, Control_c, 0, 64, 29
2, 56525, Note_on_c, 0, 57, 0
2, 56526, Control_c, 0, 64, 20
2, 56588, Control_c, 0, 64, 21
2, 56598, Note_on_c, 0, 49, 80
2, 56602, Control_c, 0, 64, 24
2, 56617, Control_c, 0, 64, 26
2, 56633, Control_c, 0, 64, 27
2, 56648, Control_c, 0, 64, 30
2, 56664, Control_c, 0, 64, 33
2, 56678, Control_c, 0, 64, 36
2, 56693, Control_c, 0, 64, 37
2, 56694, Note_on_c, 0, 47, 77
2, 56695, Note_on_c, 0, 67, 92
2, 56708, Note_on_c, 0, 49, 0
2, 56741, Control_c, 0, 64, 38
2, 56797, Note_on_c, 0, 45, 76
2, 56834, Note_on_c, 0, 47, 0
2, 56889, Note_on_c, 0, 45, 0
2, 56895, Note_on_c, 0, 50, 89
2, 56908, Control_c, 0, 64, 37
2, 56918, Note_on_c, 0, 48, 48
2, 56919, Note_on_c, 0, 48, 0
2, 56923, Control_c, 0, 64, 37
2, 56938, Control_c, 0, 64, 36
2, 56943, Note_on_c, 0, 50, 0
2, 56953, Control_c, 0, 64, 36
2, 56974, Note_on_c, 0, 67, 0
2, 56992, Note_on_c, 0, 58, 76
2, 57090, Note_on_c, 0, 58, 0
2, 57104, Note_on_c, 0, 57, 79
2, 57118, Note_on_c, 0, 38, 79
2, 57143, Note_on_c, 0, 40, 31
2, 57155, Control_c, 0, 64, 36
2, 57165, Note_on_c, 0, 38, 0
2, 57186, Note_on_c, 0, 40, 0
2, 57190, Note_on_c, 0, 57, 0
2, 57215, Note_on_c, 0, 55, 75
2, 57310, Note_on_c, 0, 55, 0
2, 57316, Note_on_c, 0, 41, 89
2, 57330, Note_on_c, 0, 57, 77
2, 57355, Note_on_c, 0, 41, 0
2, 57404, Note_on_c, 0, 57, 0
2, 57426, Note_on_c, 0, 64, 81
2, 57539, Note_on_c, 0, 45, 89
2, 57550, Note_on_c, 0, 62, 80
2, 57566, Note_on_c, 0, 64, 0
2, 57580, Note_on_c, 0, 45, 0
2, 57656, Note_on_c, 0, 62, 0
2, 57658, Note_on_c, 0, 61, 78
2, 57763, Control_c, 0, 64, 37
2, 57778, Note_on_c, 0, 50, 83
2, 57782, Note_on_c, 0, 61, 0
2, 57789, Note_on_c, 0, 62, 81
2, 57848, Note_on_c, 0, 49, 82
2, 57861, Note_on_c, 0, 50, 0
2, 57893, Note_on_c, 0, 67, 80
2, 57903, Note_on_c, 0, 62, 0
2, 57923, Control_c, 0, 64, 36
2, 57932, Note_on_c, 0, 50, 71
2, 57935, Note_on_c, 0, 49, 0
2, 57954, Control_c, 0, 64, 36
2, 57968, Control_c, 0, 64, 35
2, 58000, Note_on_c, 0, 65, 70
2, 58000, Note_on_c, 0, 67, 0
2, 58075, Control_c, 0, 64, 36
2, 58089, Control_c, 0, 64, 36
2, 58102, Note_on_c, 0, 65, 0
2, 58104, Note_on_c, 0, 64, 65
2, 58135, Control_c, 0, 64, 37
2, 58151, Control_c, 0, 64, 37
2, 58165, Control_c, 0, 64, 38
2, 58211, Control_c, 0, 64, 38
2, 58214, Note_on_c, 0, 64, 0
2, 58217, Note_on_c, 0, 65, 66
2, 58302, Control_c, 0, 64, 39
2, 58308, Note_on_c, 0, 65, 0
2, 58318, Control_c, 0, 64, 39
2, 58327, Note_on_c, 0, 58, 65
2, 58333, Control_c, 0, 64, 40
2, 58351, Note_on_c, 0, 50, 0
2, 58356, Note_on_c, 0, 55, 50
2, 58430, Note_on_c, 0, 60, 60
2, 58431, Note_on_c, 0, 58, 0
2, 58440, Note_on_c, 0, 55, 0
2, 58447, Note_on_c, 0, 57, 58
2, 58525, Note_on_c, 0, 57, 0
2, 58526, Note_on_c, 0, 60, 0
2, 58540, Note_on_c, 0, 62, 55
2, 58557, Note_on_c, 0, 58, 52
2, 58623, Note_on_c, 0, 62, 0
2, 58641, Note_on_c, 0, 58, 0
2, 58654, Note_on_c, 0, 63, 54
2, 58671, Note_on_c, 0, 48, 55
2, 58676, Control_c, 0, 64, 39
2, 58731, Note_on_c, 0, 63, 0
2, 58740, Note_on_c, 0, 57, 58
2, 58767, Note_on_c, 0, 48, 0
2, 58779, Note_on_c, 0, 54, 58
2, 58852, Note_on_c, 0, 58, 59
2, 58856, Note_on_c, 0, 57, 0
2, 58873, Note_on_c, 0, 54, 0
2, 58886, Note_on_c, 0, 55, 49
2, 58947, Note_on_c, 0, 55, 0
2, 58948, Note_on_c, 0, 58, 0
2, 58959, Note_on_c, 0, 60, 53
2, 58987, Note_on_c, 0, 57, 50
2, 59048, Note_on_c, 0, 57, 0
2, 59068, Note_on_c, 0, 62, 56
2, 59083, Note_on_c, 0, 46, 55
2, 59088, Note_on_c, 0, 60, 0
2, 59171, Note_on_c, 0, 62, 0
2, 59178, Note_on_c, 0, 58, 61
2, 59182, Note_on_c, 0, 55, 52
2, 59191, Note_on_c, 0, 46, 0
2, 59238, Note_on_c, 0, 55, 0
2, 59262, Note_on_c, 0, 58, 0
2, 59277, Note_on_c, 0, 57, 57
2, 59283, Note_on_c, 0, 60, 60
2, 59381, Note_on_c, 0, 62, 64
2, 59390, Note_on_c, 0, 58, 64
2, 59398, Note_on_c, 0, 57, 0
2, 59405, Note_on_c, 0, 60, 0
2, 59446, Control_c, 0, 64, 39
2, 59476, Note_on_c, 0, 58, 0
2, 59481, Note_on_c, 0, 63, 75
2, 59487, Note_on_c, 0, 48, 62
2, 59489, Note_on_c, 0, 62, 0
2, 59553, Control_c, 0, 64, 38
2, 59556, Note_on_c, 0, 63, 0
2, 59577, Note_on_c, 0, 57, 76
2, 59595, Note_on_c, 0, 54, 66
2, 59602, Note_on_c, 0, 48, 0
2, 59676, Note_on_c, 0, 57, 0
2, 59678, Note_on_c, 0, 58, 80
2, 59688, Note_on_c, 0, 54, 0
2, 59688, Note_on_c, 0, 55, 63
2, 59764, Note_on_c, 0, 60, 78
2, 59768, Note_on_c, 0, 58, 0
2, 59774, Note_on_c, 0, 55, 0
2, 59786, Note_on_c, 0, 57, 72
2, 59873, Note_on_c, 0, 62, 85
2, 59874, Note_on_c, 0, 46, 73
2, 59874, Note_on_c, 0, 57, 0
2, 59897, Note_on_c, 0, 60, 0
2, 59968, Note_on_c, 0, 58, 88
2, 59974, Note_on_c, 0, 55, 77
2, 59975, Note_on_c, 0, 62, 0
2, 59994, Note_on_c, 0, 46, 0
2, 60056, Note_on_c, 0, 58, 0
2, 60063, Note_on_c, 0, 55, 0
2, 60069, Note_on_c, 0, 60, 89
2, 60074, Note_on_c, 0, 57, 82
2, 60085, Control_c, 0, 64, 39
2, 60124, Control_c, 0, 64, 39
2, 60154, Control_c, 0, 64, 40
2, 60172, Note_on_c, 0, 58, 82
2, 60174, Note_on_c, 0, 62, 88
2, 60185, Control_c, 0, 64, 41
2, 60187, Note_on_c, 0, 57, 0
2, 60188, Note_on_c, 0, 60, 0
2, 60213, Control_c, 0, 64, 41
2, 60226, Note_on_c, 0, 58, 0
2, 60244, Control_c, 0, 64, 42
2, 60283, Note_on_c, 0, 60, 90
2, 60294, Note_on_c, 0, 45, 74
2, 60296, Note_on_c, 0, 62, 0
2, 60374, Note_on_c, 0, 60, 0
2, 60386, Note_on_c, 0, 54, 84
2, 60411, Note_on_c, 0, 50, 69
2, 60433, Note_on_c, 0, 45, 0
2, 60488, Note_on_c, 0, 54, 0
2, 60492, Control_c, 0, 64, 41
2, 60504, Note_on_c, 0, 55, 80
2, 60515, Note_on_c, 0, 50, 0
2, 60517, Note_on_c, 0, 52, 80
2, 60552, Control_c, 0, 64, 41
2, 60583, Control_c, 0, 64, 40
2, 60598, Control_c, 0, 64, 40
2, 60624, Note_on_c, 0, 52, 0
2, 60626, Note_on_c, 0, 57, 87
2, 60630, Note_on_c, 0, 54, 81
2, 60634, Note_on_c, 0, 55, 0
2, 60643, Control_c, 0, 64, 39
2, 60674, Control_c, 0, 64, 39
2, 60689, Control_c, 0, 64, 38
2, 60704, Control_c, 0, 64, 38
2, 60719, Control_c, 0, 64, 34
2, 60735, Control_c, 0, 64, 21
2, 60749, Control_c, 0, 64, 0
2, 60771, Note_on_c, 0, 54, 0
2, 60801, Note_on_c, 0, 58, 90
2, 60808, Note_on_c, 0, 43, 79
2, 60819, Note_on_c, 0, 57, 0
2, 60896, Control_c, 0, 64, 18
2, 60910, Control_c, 0, 64, 34
2, 60926, Control_c, 0, 64, 43
2, 60941, Control_c, 0, 64, 47
2, 60956, Control_c, 0, 64, 50
2, 60972, Control_c, 0, 64, 53
2, 60980, Note_on_c, 0, 50, 78
2, 60986, Control_c, 0, 64, 58
2, 60987, Note_on_c, 0, 58, 0
2, 61001, Control_c, 0, 64, 61
2, 61017, Control_c, 0, 64, 63
2, 61032, Control_c, 0, 64, 64
2, 61048, Control_c, 0, 64, 66
2, 61062, Control_c, 0, 64, 67
2, 61077, Control_c, 0, 64, 69
2, 61093, Control_c, 0, 64, 72
2, 61104, Note_on_c, 0, 52, 71
2, 61108, Control_c, 0, 64, 75
2, 61122, Control_c, 0, 64, 77
2, 61138, Control_c, 0, 64, 80
2, 61142, Note_on_c, 0, 50, 0
2, 61153, Control_c, 0, 64, 81
2, 61169, Control_c, 0, 64, 83
2, 61184, Control_c, 0, 64, 83
2, 61210, Note_on_c, 0, 54, 78
2, 61214, Control_c, 0, 64, 83
2, 61214, Note_on_c, 0, 52, 0
2, 61229, Control_c, 0, 64, 82
2, 61244, Control_c, 0, 64, 81
2, 61260, Control_c, 0, 64, 80
2, 61274, Control_c, 0, 64, 78
2, 61284, Note_on_c, 0, 54, 0
2, 61290, Control_c, 0, 64, 75
2, 61301, Note_on_c, 0, 55, 82
2, 61305, Control_c, 0, 64, 73
2, 61320, Control_c, 0, 64, 72
2, 61336, Control_c, 0, 64, 71
2, 61351, Control_c, 0, 64, 71
2, 61367, Control_c, 0, 64, 70
2, 61382, Control_c, 0, 64, 69
2, 61390, Note_on_c, 0, 57, 82
2, 61396, Control_c, 0, 64, 68
2, 61412, Control_c, 0, 64, 68
2, 61415, Note_on_c, 0, 55, 0
2, 61427, Control_c, 0, 64, 67
2, 61450, Note_on_c, 0, 43, 0
2, 61472, Control_c, 0, 64, 67
2, 61479, Note_on_c, 0, 58, 84
2, 61492, Note_on_c, 0, 57, 0
2, 61503, Control_c, 0, 64, 66
2, 61533, Control_c, 0, 64, 65
2, 61548, Control_c, 0, 64, 65
2, 61554, Note_on_c, 0, 58, 0
2, 61563, Control_c, 0, 64, 64
2, 61572, Note_on_c, 0, 60, 86
2, 61579, Control_c, 0, 64, 64
2, 61594, Control_c, 0, 64, 63
2, 61609, Control_c, 0, 64, 62
2, 61624, Control_c, 0, 64, 61
2, 61639, Control_c, 0, 64, 60
2, 61672, Note_on_c, 0, 62, 86
2, 61678, Control_c, 0, 64, 59
2, 61688, Note_on_c, 0, 60, 0
2, 61694, Control_c, 0, 64, 59
2, 61709, Control_c, 0, 64, 58
2, 61724, Control_c, 0, 64, 58
2, 61764, Note_on_c, 0, 62, 0
2, 61770, Control_c, 0, 64, 58
2, 61773, Note_on_c, 0, 58, 90
2, 61849, Note_on_c, 0, 58, 0
2, 61861, Control_c, 0, 64, 59
2, 61878, Note_on_c, 0, 67, 90
2, 61964, Control_c, 0, 64, 58
2, 61984, Note_on_c, 0, 67, 0
2, 61995, Control_c, 0, 64, 58
2, 61997, Note_on_c, 0, 62, 85
2, 62040, Control_c, 0, 64, 57
2, 62056, Control_c, 0, 64, 57
2, 62071, Control_c, 0, 64, 56
2, 62116, Control_c, 0, 64, 56
2, 62137, Note_on_c, 0, 70, 85
2, 62138, Note_on_c, 0, 62, 0
2, 62254, Control_c, 0, 64, 55
2, 62269, Control_c, 0, 64, 55
2, 62272, Note_on_c, 0, 67, 83
2, 62279, Note_on_c, 0, 70, 0
2, 62284, Control_c, 0, 64, 54
2, 62314, Control_c, 0, 64, 55
2, 62374, Note_on_c, 0, 67, 0
2, 62375, Control_c, 0, 64, 54
2, 62380, Note_on_c, 0, 65, 78
2, 62475, Note_on_c, 0, 63, 79
2, 62481, Note_on_c, 0, 65, 0
2, 62536, Control_c, 0, 64, 55
2, 62562, Note_on_c, 0, 62, 82
2, 62582, Note_on_c, 0, 63, 0
2, 62644, Note_on_c, 0, 60, 81
2, 62645, Note_on_c, 0, 62, 0
2, 62737, Note_on_c, 0, 58, 80
2, 62757, Note_on_c, 0, 60, 0
2, 62819, Note_on_c, 0, 57, 82
2, 62831, Note_on_c, 0, 58, 0
2, 62913, Note_on_c, 0, 55, 80
2, 62914, Note_on_c, 0, 57, 0
2, 62929, Control_c, 0, 64, 55
2, 63003, Note_on_c, 0, 58, 84
2, 63019, Note_on_c, 0, 55, 0
2, 63085, Note_on_c, 0, 58, 0
2, 63114, Note_on_c, 0, 52, 83
2, 63236, Note_on_c, 0, 55, 86
2, 63240, Note_on_c, 0, 52, 0
2, 63317, Control_c, 0, 64, 56
2, 63388, Note_on_c, 0, 49, 87
2, 63411, Note_on_c, 0, 55, 0
2, 63424, Control_c, 0, 64, 55
2, 63484, Control_c, 0, 64, 55
2, 63509, Note_on_c, 0, 70, 74
2, 63529, Control_c, 0, 64, 54
2, 63591, Control_c, 0, 64, 54
2, 63612, Note_on_c, 0, 69, 74
2, 63635, Note_on_c, 0, 70, 0
2, 63651, Control_c, 0, 64, 53
2, 63667, Control_c, 0, 64, 53
2, 63682, Control_c, 0, 64, 52
2, 63691, Note_on_c, 0, 69, 0
2, 63710, Note_on_c, 0, 67, 68
2, 63713, Control_c, 0, 64, 52
2, 63781, Note_on_c, 0, 67, 0
2, 63805, Note_on_c, 0, 49, 0
2, 63807, Note_on_c, 0, 76, 76
2, 63834, Control_c, 0, 64, 51
2, 63848, Control_c, 0, 64, 50
2, 63879, Control_c, 0, 64, 50
2, 63912, Note_on_c, 0, 74, 61
2, 63918, Note_on_c, 0, 76, 0
2, 64003, Note_on_c, 0, 45, 60
2, 64009, Note_on_c, 0, 74, 0
2, 64011, Note_on_c, 0, 73, 67
2, 64046, Note_on_c, 0, 45, 0
2, 64116, Note_on_c, 0, 73, 0
2, 64120, Note_on_c, 0, 71, 63
2, 64187, Note_on_c, 0, 71, 0
2, 64204, Note_on_c, 0, 47, 65
2, 64209, Note_on_c, 0, 69, 64
2, 64236, Note_on_c, 0, 47, 0
2, 64257, Note_on_c, 0, 69, 0
2, 64301, Note_on_c, 0, 67, 57
2, 64383, Note_on_c, 0, 67, 0
2, 64392, Note_on_c, 0, 65, 64
2, 64404, Note_on_c, 0, 49, 60
2, 64420, Control_c, 0, 64, 49
2, 64435, Control_c, 0, 64, 49
2, 64436, Note_on_c, 0, 49, 0
2, 64448, Note_on_c, 0, 65, 0
2, 64450, Control_c, 0, 64, 48
2, 64465, Control_c, 0, 64, 47
2, 64480, Control_c, 0, 64, 47
2, 64495, Control_c, 0, 64, 46
2, 64496, Note_on_c, 0, 64, 56
2, 64511, Control_c, 0, 64, 44
2, 64526, Control_c, 0, 64, 41
2, 64537, Note_on_c, 0, 64, 0
2, 64542, Control_c, 0, 64, 37
2, 64557, Control_c, 0, 64, 32
2, 64571, Control_c, 0, 64, 26
2, 64587, Control_c, 0, 64, 18
2, 64588, Note_on_c, 0, 50, 65
2, 64590, Note_on_c, 0, 65, 67
2, 64602, Control_c, 0, 64, 0
2, 64615, Note_on_c, 0, 50, 0
2, 64656, Note_on_c, 0, 65, 0
2, 64685, Note_on_c, 0, 62, 60
2, 64736, Note_on_c, 0, 62, 0
2, 64784, Note_on_c, 0, 52, 72
2, 64787, Note_on_c, 0, 67, 73
2, 64817, Note_on_c, 0, 52, 0
2, 64866, Note_on_c, 0, 67, 0
2, 64885, Note_on_c, 0, 62, 63
2, 64959, Note_on_c, 0, 62, 0
2, 64972, Note_on_c, 0, 53, 80
2, 64972, Note_on_c, 0, 69, 84
2, 65000, Note_on_c, 0, 53, 0
2, 65047, Note_on_c, 0, 69, 0
2, 65075, Note_on_c, 0, 62, 74
2, 65155, Note_on_c, 0, 62, 0
2, 65159, Note_on_c, 0, 55, 82
2, 65172, Note_on_c, 0, 70, 85
2, 65196, Note_on_c, 0, 55, 0
2, 65245, Note_on_c, 0, 70, 0
2, 65254, Note_on_c, 0, 62, 72
2, 65283, Note_on_c, 0, 62, 0
2, 65347, Note_on_c, 0, 57, 90
2, 65393, Note_on_c, 0, 57, 0
2, 65413, Note_on_c, 0, 62, 73
2, 65445, Control_c, 0, 64, 9
2, 65498, Note_on_c, 0, 62, 0
2, 65536, Note_on_c, 0, 64, 76
2, 65538, Note_on_c, 0, 45, 76
2, 65574, Control_c, 0, 64, 11
2, 65577, Note_on_c, 0, 45, 0
2, 65627, Note_on_c, 0, 64, 0
2, 65635, Control_c, 0, 64, 12
2, 65636, Note_on_c, 0, 61, 73
2, 65650, Control_c, 0, 64, 13
2, 65666, Control_c, 0, 64, 15
2, 65737, Note_on_c, 0, 61, 0
2, 65741, Note_on_c, 0, 62, 81
2, 65752, Note_on_c, 0, 48, 58
2, 65762, Note_on_c, 0, 50, 59
2, 65780, Note_on_c, 0, 48, 0
2, 65787, Note_on_c, 0, 50, 0
2, 65827, Note_on_c, 0, 62, 0
2, 65830, Note_on_c, 0, 60, 78
2, 65927, Note_on_c, 0, 54, 72
2, 65929, Note_on_c, 0, 60, 0
2, 65934, Note_on_c, 0, 57, 71
2, 65969, Note_on_c, 0, 57, 0
2, 66016, Note_on_c, 0, 54, 0
2, 66034, Note_on_c, 0, 60, 64
2, 66118, Note_on_c, 0, 62, 78
2, 66119, Note_on_c, 0, 60, 0
2, 66121, Note_on_c, 0, 50, 76
2, 66153, Note_on_c, 0, 50, 0
2, 66204, Note_on_c, 0, 62, 0
2, 66205, Note_on_c, 0, 60, 63
2, 66306, Note_on_c, 0, 60, 0
2, 66307, Note_on_c, 0, 54, 75
2, 66316, Note_on_c, 0, 57, 70
2, 66348, Note_on_c, 0, 57, 0
2, 66397, Note_on_c, 0, 54, 0
2, 66408, Note_on_c, 0, 60, 66
2, 66474, Note_on_c, 0, 60, 0
2, 66497, Note_on_c, 0, 62, 79
2, 66498, Note_on_c, 0, 50, 77
2, 66541, Note_on_c, 0, 50, 0
2, 66587, Note_on_c, 0, 62, 0
2, 66593, Note_on_c, 0, 60, 76
2, 66680, Note_on_c, 0, 60, 0
2, 66684, Note_on_c, 0, 54, 72
2, 66688, Note_on_c, 0, 57, 73
2, 66720, Note_on_c, 0, 57, 0
2, 66764, Note_on_c, 0, 54, 0
2, 66770, Note_on_c, 0, 60, 65
2, 66866, Note_on_c, 0, 60, 0
2, 66884, Note_on_c, 0, 50, 63
2, 66889, Note_on_c, 0, 58, 61
2, 66926, Note_on_c, 0, 50, 0
2, 66967, Note_on_c, 0, 58, 0
2, 66986, Note_on_c, 0, 62, 55
2, 67079, Note_on_c, 0, 62, 0
2, 67088, Note_on_c, 0, 55, 51
2, 67100, Note_on_c, 0, 58, 59
2, 67124, Note_on_c, 0, 55, 0
2, 67150, Note_on_c, 0, 58, 0
2, 67182, Note_on_c, 0, 54, 54
2, 67272, Note_on_c, 0, 54, 0
2, 67272, Note_on_c, 0, 58, 60
2, 67284, Note_on_c, 0, 50, 50
2, 67324, Note_on_c, 0, 50, 0
2, 67355, Note_on_c, 0, 58, 0
2, 67373, Note_on_c, 0, 62, 53
2, 67468, Note_on_c, 0, 62, 0
2, 67476, Note_on_c, 0, 55, 38
2, 67486, Note_on_c, 0, 58, 54
2, 67506, Note_on_c, 0, 55, 0
2, 67528, Note_on_c, 0, 58, 0
2, 67550, Note_on_c, 0, 54, 58
2, 67584, Control_c, 0, 64, 16
2, 67616, Note_on_c, 0, 54, 0
2, 67650, Note_on_c, 0, 58, 59
2, 67665, Note_on_c, 0, 50, 45
2, 67706, Note_on_c, 0, 50, 0
2, 67731, Note_on_c, 0, 58, 0
2, 67755, Note_on_c, 0, 62, 52
2, 67842, Note_on_c, 0, 62, 0
2, 67846, Note_on_c, 0, 55, 60
2, 67861, Note_on_c, 0, 58, 57
2, 67887, Note_on_c, 0, 55, 0
2, 67900, Note_on_c, 0, 58, 0
2, 67925, Note_on_c, 0, 52, 67
2, 68022, Note_on_c, 0, 53, 69
2, 68023, Note_on_c, 0, 52, 0
2, 68032, Note_on_c, 0, 50, 55
2, 68088, Note_on_c, 0, 50, 0
2, 68091, Note_on_c, 0, 53, 0
2, 68125, Note_on_c, 0, 62, 54
2, 68180, Note_on_c, 0, 62, 0
2, 68216, Note_on_c, 0, 57, 54
2, 68221, Note_on_c, 0, 53, 58
2, 68258, Note_on_c, 0, 57, 0
2, 68296, Note_on_c, 0, 53, 0
2, 68321, Note_on_c, 0, 62, 48
2, 68378, Note_on_c, 0, 62, 0
2, 68409, Note_on_c, 0, 50, 50
2, 68418, Note_on_c, 0, 53, 56
2, 68458, Note_on_c, 0, 50, 0
2, 68470, Note_on_c, 0, 53, 0
2, 68513, Note_on_c, 0, 62, 51
2, 68571, Note_on_c, 0, 62, 0
2, 68608, Note_on_c, 0, 53, 50
2, 68610, Note_on_c, 0, 57, 49
2, 68650, Note_on_c, 0, 57, 0
2, 68656, Note_on_c, 0, 53, 0
2, 68701, Note_on_c, 0, 62, 52
2, 68746, Note_on_c, 0, 62, 0
2, 68789, Note_on_c, 0, 53, 46
2, 68812, Note_on_c, 0, 50, 45
2, 68846, Note_on_c, 0, 53, 0
2, 68864, Note_on_c, 0, 50, 0
2, 68874, Note_on_c, 0, 62, 49
2, 68925, Note_on_c, 0, 62, 0
2, 68977, Note_on_c, 0, 53, 46
2, 68992, Note_on_c, 0, 57, 40
2, 69028, Note_on_c, 0, 57, 0
2, 69040, Note_on_c, 0, 53, 0
2, 69068, Note_on_c, 0, 62, 49
2, 69133, Note_on_c, 0, 62, 0
2, 69165, Note_on_c, 0, 55, 55
2, 69177, Note_on_c, 0, 50, 41
2, 69221, Note_on_c, 0, 50, 0
2, 69238, Note_on_c, 0, 55, 0
2, 69280, Note_on_c, 0, 61, 45
2, 69357, Note_on_c, 0, 58, 50
2, 69378, Note_on_c, 0, 61, 0
2, 69392, Note_on_c, 0, 55, 40
2, 69397, Note_on_c, 0, 58, 0
2, 69464, Note_on_c, 0, 55, 0
2, 69489, Note_on_c, 0, 52, 37
2, 69562, Note_on_c, 0, 50, 42
2, 69589, Note_on_c, 0, 55, 50
2, 69609, Note_on_c, 0, 50, 0
2, 69623, Note_on_c, 0, 52, 0
2, 69650, Note_on_c, 0, 55, 0
2, 69686, Note_on_c, 0, 61, 50
2, 69794, Note_on_c, 0, 58, 49
2, 69796, Note_on_c, 0, 61, 0
2, 69803, Note_on_c, 0, 55, 48
2, 69849, Note_on_c, 0, 58, 0
2, 69901, Note_on_c, 0, 55, 0
2, 69922, Note_on_c, 0, 52, 42
2, 70051, Note_on_c, 0, 50, 39
2, 70054, Note_on_c, 0, 55, 40
2, 70114, Note_on_c, 0, 50, 0
2, 70116, Note_on_c, 0, 52, 0
2, 70180, Note_on_c, 0, 55, 0
2, 70205, Note_on_c, 0, 61, 45
2, 70391, Note_on_c, 0, 58, 45
2, 70402, Note_on_c, 0, 55, 36
2, 70405, Note_on_c, 0, 61, 0
2, 70484, Note_on_c, 0, 58, 0
2, 70637, Note_on_c, 0, 52, 40
2, 70643, Note_on_c, 0, 55, 0
2, 70934, Control_c, 0, 64, 17
2, 71140, Note_on_c, 0, 62, 46
2, 71145, Note_on_c, 0, 57, 34
2, 71147, Note_on_c, 0, 54, 37
2, 71150, Note_on_c, 0, 50, 21
2, 71182, Note_on_c, 0, 52, 0
2, 71620, Control_c, 0, 64, 17
2, 71656, Control_c, 0, 64, 18
2, 71672, Control_c, 0, 64, 21
2, 71687, Control_c, 0, 64, 25
2, 71703, Control_c, 0, 64, 32
2, 71718, Control_c, 0, 64, 37
2, 71732, Control_c, 0, 64, 40
2, 71748, Control_c, 0, 64, 43
2, 71763, Control_c, 0, 64, 46
2, 71778, Control_c, 0, 64, 48
2, 71794, Control_c, 0, 64, 51
2, 71809, Control_c, 0, 64, 54
2, 71825, Control_c, 0, 64, 56
2, 71839, Control_c, 0, 64, 58
2, 71854, Control_c, 0, 64, 60
2, 71870, Control_c, 0, 64, 61
2, 71885, Control_c, 0, 64, 63
2, 71901, Control_c, 0, 64, 65
2, 71916, Control_c, 0, 64, 67
2, 71931, Control_c, 0, 64, 71
2, 71946, Control_c, 0, 64, 75
2, 71961, Control_c, 0, 64, 83
2, 71976, Control_c, 0, 64, 90
2, 71992, Control_c, 0, 64, 97
2, 72007, Control_c, 0, 64, 107
2, 72022, Control_c, 0, 64, 127
2, 72375, Note_on_c, 0, 57, 0
2, 72513, Note_on_c, 0, 54, 0
2, 73125, Control_c, 0, 64, 119
2, 73140, Control_c, 0, 64, 116
2, 73155, Control_c, 0, 64, 113
2, 73178, Control_c, 0, 64, 110
2, 73194, Control_c, 0, 64, 106
2, 73209, Control_c, 0, 64, 102
2, 73224, Control_c, 0, 64, 101
2, 73285, Control_c, 0, 64, 101
2, 73300, Control_c, 0, 64, 99
2, 73315, Control_c, 0, 64, 95
2, 73330, Control_c, 0, 64, 90
2, 73345, Control_c, 0, 64, 85
2, 73360, Control_c, 0, 64, 82
2, 73375, Control_c, 0, 64, 82
2, 73406, Control_c, 0, 64, 81
2, 73415, Note_on_c, 0, 62, 0
2, 73421, Control_c, 0, 64, 79
2, 73436, Control_c, 0, 64, 77
2, 73451, Control_c, 0, 64, 74
2, 73467, Control_c, 0, 64, 70
2, 73481, Control_c, 0, 64, 66
2, 73496, Control_c, 0, 64, 63
2, 73512, Control_c, 0, 64, 61
2, 73527, Control_c, 0, 64, 60
2, 73527, Note_on_c, 0, 50, 0
2, 73543, Control_c, 0, 64, 59
2, 73558, Control_c, 0, 64, 59
2, 73573, Control_c, 0, 64, 57
2, 73589, Control_c, 0, 64, 55
2, 73603, Control_c, 0, 64, 54
2, 73618, Control_c, 0, 64, 52
2, 73634, Control_c, 0, 64, 51
2, 73649, Control_c, 0, 64, 49
2, 73665, Control_c, 0, 64, 47
2, 73679, Control_c, 0, 64, 46
2, 73694, Control_c, 0, 64, 45
2, 73710, Control_c, 0, 64, 45
2, 73725, Control_c, 0, 64, 44
2, 73741, Control_c, 0, 64, 44
2, 73770, Control_c, 0, 64, 43
2, 73846, Control_c, 0, 64, 44
2, 73876, Control_c, 0, 64, 44
2, 73907, Control_c, 0, 64, 45
2, 73922, Control_c, 0, 64, 45
2, 73961, Control_c, 0, 64, 46
2, 73976, Control_c, 0, 64, 46
2, 74038, Control_c, 0, 64, 47
2, 74728, Control_c, 0, 64, 46
2, 74759, Control_c, 0, 64, 46
2, 74774, Control_c, 0, 64, 45
2, 74790, Control_c, 0, 64, 44
2, 74806, Control_c, 0, 64, 43
2, 74822, Control_c, 0, 64, 42
2, 74836, Control_c, 0, 64, 40
2, 74851, Control_c, 0, 64, 37
2, 74867, Control_c, 0, 64, 34
2, 74882, Control_c, 0, 64, 31
2, 74897, Control_c, 0, 64, 29
2, 74912, Control_c, 0, 64, 26
2, 74927, Control_c, 0, 64, 22
2, 74943, Control_c, 0, 64, 17
2, 74958, Control_c, 0, 64, 11
2, 74973, Control_c, 0, 64, 0
2, 75603, Control_c, 0, 64, 9
2, 75634, Control_c, 0, 64, 11
2, 75649, Control_c, 0, 64, 12
2, 75679, Control_c, 0, 64, 13
2, 75694, Control_c, 0, 64, 15
2, 75741, Control_c, 0, 64, 16
2, 75771, Control_c, 0, 64, 17
2, 75801, Control_c, 0, 64, 17
2, 75863, Control_c, 0, 64, 18
2, 75908, Control_c, 0, 64, 19
2, 75938, Control_c, 0, 64, 20
2, 75968, Control_c, 0, 64, 21
2, 75999, Control_c, 0, 64, 21
2, 76044, Control_c, 0, 64, 22
2, 76060, Control_c, 0, 64, 23
2, 76075, Control_c, 0, 64, 23
2, 76120, Control_c, 0, 64, 24
2, 76196, Control_c, 0, 64, 24
2, 76249, Control_c, 0, 64, 25
2, 76265, Control_c, 0, 64, 25
2, 76294, Control_c, 0, 64, 26
2, 76325, Control_c, 0, 64, 27
2, 76340, Control_c, 0, 64, 28
2, 76355, Control_c, 0, 64, 28
2, 76370, Control_c, 0, 64, 30
2, 76386, Control_c, 0, 64, 30
2, 76402, Control_c, 0, 64, 32
2, 76417, Control_c, 0, 64, 32
2, 76433, Control_c, 0, 64, 33
2, 76447, Control_c, 0, 64, 33
2, 76463, Control_c, 0, 64, 34
2, 76493, Control_c, 0, 64, 34
2, 76494, Note_on_c, 0, 62, 38
2, 76554, Control_c, 0, 64, 35
2, 76585, Control_c, 0, 64, 35
2, 76631, Control_c, 0, 64, 36
2, 76645, Control_c, 0, 64, 36
2, 76654, Note_on_c, 0, 64, 51
2, 76676, Control_c, 0, 64, 37
2, 76691, Control_c, 0, 64, 37
2, 76722, Control_c, 0, 64, 38
2, 76726, Note_on_c, 0, 62, 0
2, 76782, Note_on_c, 0, 65, 52
2, 76805, Note_on_c, 0, 64, 0
2, 76909, Note_on_c, 0, 65, 0
2, 76915, Note_on_c, 0, 67, 52
2, 76933, Control_c, 0, 64, 37
2, 76949, Control_c, 0, 64, 37
2, 76978, Control_c, 0, 64, 36
2, 77033, Control_c, 0, 64, 36
2, 77048, Control_c, 0, 64, 35
2, 77055, Note_on_c, 0, 65, 54
2, 77071, Note_on_c, 0, 67, 0
2, 77189, Note_on_c, 0, 64, 66
2, 77202, Note_on_c, 0, 65, 0
2, 77315, Note_on_c, 0, 64, 0
2, 77321, Note_on_c, 0, 65, 68
2, 77440, Note_on_c, 0, 67, 70
2, 77467, Note_on_c, 0, 65, 0
2, 77564, Note_on_c, 0, 69, 74
2, 77573, Note_on_c, 0, 67, 0
2, 77690, Note_on_c, 0, 70, 75
2, 77702, Note_on_c, 0, 69, 0
2, 77820, Note_on_c, 0, 69, 78
2, 77846, Control_c, 0, 64, 35
2, 77850, Note_on_c, 0, 70, 0
2, 77862, Control_c, 0, 64, 34
2, 77907, Control_c, 0, 64, 34
2, 77957, Note_on_c, 0, 67, 75
2, 77977, Note_on_c, 0, 69, 0
2, 78029, Control_c, 0, 64, 33
2, 78147, Note_on_c, 0, 69, 80
2, 78162, Note_on_c, 0, 67, 0
2, 78584, Control_c, 0, 64, 34
2, 78618, Note_on_c, 0, 74, 73
2, 78663, Note_on_c, 0, 69, 0
2, 78964, Control_c, 0, 64, 34
2, 79075, Note_on_c, 0, 73, 72
2, 79116, Control_c, 0, 64, 35
2, 79131, Control_c, 0, 64, 35
2, 79154, Note_on_c, 0, 74, 0
2, 79527, Note_on_c, 0, 72, 60
2, 79568, Note_on_c, 0, 73, 0
2, 79625, Control_c, 0, 64, 36
2, 79762, Control_c, 0, 64, 36
2, 79914, Control_c, 0, 64, 37
2, 79969, Note_on_c, 0, 71, 55
2, 80013, Note_on_c, 0, 72, 0
2, 80180, Control_c, 0, 64, 37
2, 80434, Note_on_c, 0, 70, 65
2, 80509, Note_on_c, 0, 71, 0
2, 80908, Note_on_c, 0, 69, 73
2, 80966, Note_on_c, 0, 70, 0
2, 81448, Note_on_c, 0, 67, 63
2, 81487, Note_on_c, 0, 69, 0
2, 81686, Control_c, 0, 64, 37
2, 81702, Control_c, 0, 64, 34
2, 81716, Control_c, 0, 64, 33
2, 81730, Control_c, 0, 64, 32
2, 81746, Control_c, 0, 64, 31
2, 81761, Control_c, 0, 64, 30
2, 81775, Control_c, 0, 64, 27
2, 81791, Control_c, 0, 64, 25
2, 81806, Control_c, 0, 64, 23
2, 81822, Control_c, 0, 64, 21
2, 81837, Control_c, 0, 64, 18
2, 81852, Control_c, 0, 64, 12
2, 81868, Control_c, 0, 64, 0
2, 82396, Note_on_c, 0, 65, 51
2, 82456, Note_on_c, 0, 67, 0
2, 82847, Note_on_c, 0, 64, 45
2, 82868, Note_on_c, 0, 65, 0
2, 83351, Note_on_c, 0, 69, 48
2, 83361, Note_on_c, 0, 64, 0
2, 83419, Control_c, 0, 64, 16
2, 83435, Control_c, 0, 64, 41
2, 83450, Control_c, 0, 64, 50
2, 83465, Control_c, 0, 64, 54
2, 83480, Control_c, 0, 64, 57
2, 83495, Control_c, 0, 64, 61
2, 83511, Control_c, 0, 64, 64
2, 83526, Control_c, 0, 64, 69
2, 83541, Control_c, 0, 64, 76
2, 83556, Control_c, 0, 64, 85
2, 83571, Control_c, 0, 64, 96
2, 83586, Control_c, 0, 64, 107
2, 83601, Control_c, 0, 64, 127
2, 83663, Note_on_c, 0, 69, 0
2, 83830, Note_on_c, 0, 69, 45
2, 83837, Note_on_c, 0, 65, 41
2, 83861, Control_c, 0, 64, 115
2, 83876, Control_c, 0, 64, 106
2, 83891, Control_c, 0, 64, 95
2, 83907, Control_c, 0, 64, 85
2, 83929, Control_c, 0, 64, 78
2, 83945, Control_c, 0, 64, 74
2, 83960, Control_c, 0, 64, 71
2, 83974, Control_c, 0, 64, 70
2, 83990, Control_c, 0, 64, 68
2, 84001, Note_on_c, 0, 71, 55
2, 84005, Control_c, 0, 64, 66
2, 84019, Control_c, 0, 64, 64
2, 84035, Control_c, 0, 64, 62
2, 84050, Control_c, 0, 64, 60
2, 84066, Control_c, 0, 64, 59
2, 84066, Note_on_c, 0, 69, 0
2, 84081, Control_c, 0, 64, 57
2, 84096, Control_c, 0, 64, 57
2, 84112, Control_c, 0, 64, 56
2, 84127, Control_c, 0, 64, 55
2, 84141, Note_on_c, 0, 72, 56
2, 84143, Control_c, 0, 64, 54
2, 84148, Note_on_c, 0, 71, 0
2, 84157, Control_c, 0, 64, 53
2, 84172, Control_c, 0, 64, 53
2, 84188, Control_c, 0, 64, 52
2, 84203, Control_c, 0, 64, 52
2, 84262, Note_on_c, 0, 72, 0
2, 84264, Control_c, 0, 64, 51
2, 84273, Note_on_c, 0, 62, 46
2, 84280, Note_on_c, 0, 74, 57
2, 84337, Note_on_c, 0, 65, 0
2, 84415, Control_c, 0, 64, 51
2, 84417, Note_on_c, 0, 72, 63
2, 84421, Note_on_c, 0, 74, 0
2, 84550, Note_on_c, 0, 71, 67
2, 84552, Note_on_c, 0, 72, 0
2, 84668, Note_on_c, 0, 62, 0
2, 84690, Note_on_c, 0, 71, 0
2, 84696, Note_on_c, 0, 69, 54
2, 84705, Note_on_c, 0, 72, 63
2, 84837, Note_on_c, 0, 74, 72
2, 84850, Note_on_c, 0, 72, 0
2, 84970, Control_c, 0, 64, 50
2, 84970, Note_on_c, 0, 76, 75
2, 84986, Note_on_c, 0, 74, 0
2, 85001, Control_c, 0, 64, 50
2, 85016, Control_c, 0, 64, 49
2, 85032, Control_c, 0, 64, 49
2, 85047, Control_c, 0, 64, 48
2, 85063, Control_c, 0, 64, 47
2, 85077, Control_c, 0, 64, 47
2, 85084, Note_on_c, 0, 69, 0
2, 85092, Control_c, 0, 64, 46
2, 85094, Note_on_c, 0, 77, 77
2, 85103, Note_on_c, 0, 76, 0
2, 85108, Control_c, 0, 64, 44
2, 85123, Control_c, 0, 64, 43
2, 85138, Control_c, 0, 64, 40
2, 85153, Control_c, 0, 64, 37
2, 85168, Control_c, 0, 64, 32
2, 85184, Control_c, 0, 64, 25
2, 85199, Control_c, 0, 64, 16
2, 85214, Control_c, 0, 64, 0
2, 85224, Note_on_c, 0, 76, 75
2, 85274, Note_on_c, 0, 77, 0
2, 85358, Note_on_c, 0, 74, 78
2, 85381, Note_on_c, 0, 76, 0
2, 85536, Note_on_c, 0, 76, 80
2, 85556, Note_on_c, 0, 74, 0
2, 85731, Note_on_c, 0, 59, 63
2, 85799, Control_c, 0, 64, 11
2, 85814, Control_c, 0, 64, 13
2, 85830, Control_c, 0, 64, 15
2, 85845, Control_c, 0, 64, 17
2, 85861, Control_c, 0, 64, 19
2, 85876, Control_c, 0, 64, 20
2, 85891, Control_c, 0, 64, 21
2, 85907, Control_c, 0, 64, 21
2, 85921, Control_c, 0, 64, 22
2, 85952, Control_c, 0, 64, 23
2, 85960, Note_on_c, 0, 81, 76
2, 85966, Note_on_c, 0, 60, 62
2, 85976, Note_on_c, 0, 76, 0
2, 86008, Note_on_c, 0, 59, 0
2, 86012, Control_c, 0, 64, 23
2, 86073, Control_c, 0, 64, 24
2, 86104, Control_c, 0, 64, 24
2, 86118, Control_c, 0, 64, 25
2, 86133, Control_c, 0, 64, 25
2, 86152, Note_on_c, 0, 62, 61
2, 86164, Control_c, 0, 64, 26
2, 86179, Control_c, 0, 64, 26
2, 86179, Note_on_c, 0, 60, 0
2, 86194, Control_c, 0, 64, 27
2, 86209, Control_c, 0, 64, 28
2, 86234, Control_c, 0, 64, 29
2, 86248, Control_c, 0, 64, 30
2, 86264, Control_c, 0, 64, 30
2, 86294, Control_c, 0, 64, 31
2, 86341, Control_c, 0, 64, 31
2, 86362, Note_on_c, 0, 62, 0
2, 86368, Note_on_c, 0, 64, 55
2, 86377, Note_on_c, 0, 80, 74
2, 86433, Note_on_c, 0, 81, 0
2, 86477, Control_c, 0, 64, 32
2, 86507, Control_c, 0, 64, 33
2, 86537, Control_c, 0, 64, 33
2, 86577, Note_on_c, 0, 66, 50
2, 86595, Note_on_c, 0, 64, 0
2, 86613, Control_c, 0, 64, 34
2, 86750, Control_c, 0, 64, 34
2, 86793, Note_on_c, 0, 79, 59
2, 86794, Note_on_c, 0, 67, 48
2, 86818, Note_on_c, 0, 66, 0
2, 86846, Note_on_c, 0, 80, 0
2, 86856, Control_c, 0, 64, 35
2, 86917, Control_c, 0, 64, 35
2, 86998, Note_on_c, 0, 67, 0
2, 87005, Note_on_c, 0, 64, 55
2, 87215, Note_on_c, 0, 64, 0
2, 87215, Note_on_c, 0, 69, 56
2, 87216, Note_on_c, 0, 78, 72
2, 87254, Note_on_c, 0, 79, 0
2, 87410, Note_on_c, 0, 68, 70
2, 87452, Note_on_c, 0, 69, 0
2, 87624, Note_on_c, 0, 77, 80
2, 87636, Note_on_c, 0, 69, 63
2, 87641, Note_on_c, 0, 68, 0
2, 87659, Note_on_c, 0, 78, 0
2, 87843, Note_on_c, 0, 71, 74
2, 87872, Note_on_c, 0, 69, 0
2, 88055, Note_on_c, 0, 71, 0
2, 88061, Note_on_c, 0, 76, 82
2, 88065, Note_on_c, 0, 72, 70
2, 88086, Note_on_c, 0, 77, 0
2, 88291, Note_on_c, 0, 66, 71
2, 88328, Note_on_c, 0, 72, 0
2, 88563, Note_on_c, 0, 71, 63
2, 88582, Note_on_c, 0, 74, 76
2, 88606, Note_on_c, 0, 66, 0
2, 88607, Note_on_c, 0, 76, 0
2, 88816, Note_on_c, 0, 69, 69
2, 88869, Note_on_c, 0, 71, 0
2, 89025, Note_on_c, 0, 68, 66
2, 89043, Note_on_c, 0, 69, 0
2, 89236, Note_on_c, 0, 64, 58
2, 89270, Note_on_c, 0, 68, 0
2, 89483, Note_on_c, 0, 69, 54
2, 89487, Note_on_c, 0, 72, 67
2, 89499, Note_on_c, 0, 74, 0
2, 89538, Note_on_c, 0, 64, 0
2, 89926, Note_on_c, 0, 71, 61
2, 89949, Note_on_c, 0, 72, 0
2, 90381, Note_on_c, 0, 67, 44
2, 90385, Note_on_c, 0, 76, 59
2, 90395, Note_on_c, 0, 69, 0
2, 90418, Note_on_c, 0, 71, 0
2, 90800, Note_on_c, 0, 69, 55
2, 90964, Note_on_c, 0, 65, 50
2, 91018, Note_on_c, 0, 67, 0
2, 91083, Note_on_c, 0, 64, 54
2, 91094, Note_on_c, 0, 65, 0
2, 91226, Note_on_c, 0, 64, 0
2, 91236, Note_on_c, 0, 62, 53
2, 91238, Note_on_c, 0, 76, 0
2, 91249, Note_on_c, 0, 71, 63
2, 91257, Note_on_c, 0, 69, 0
2, 91374, Note_on_c, 0, 64, 57
2, 91376, Note_on_c, 0, 62, 0
2, 91506, Note_on_c, 0, 64, 0
2, 91508, Note_on_c, 0, 65, 68
2, 91661, Note_on_c, 0, 72, 74
2, 91663, Note_on_c, 0, 65, 0
2, 91665, Note_on_c, 0, 64, 58
2, 91679, Note_on_c, 0, 71, 0
2, 91813, Note_on_c, 0, 62, 68
2, 91823, Note_on_c, 0, 64, 0
2, 91937, Note_on_c, 0, 60, 72
2, 91951, Note_on_c, 0, 62, 0
2, 92078, Note_on_c, 0, 68, 80
2, 92084, Note_on_c, 0, 72, 0
2, 92089, Note_on_c, 0, 59, 65
2, 92091, Note_on_c, 0, 60, 0
2, 92216, Note_on_c, 0, 60, 70
2, 92219, Note_on_c, 0, 59, 0
2, 92293, Control_c, 0, 64, 36
2, 92309, Control_c, 0, 64, 36
2, 92376, Control_c, 0, 64, 37
2, 92378, Note_on_c, 0, 60, 0
2, 92378, Note_on_c, 0, 62, 70
2, 92406, Control_c, 0, 64, 37
2, 92422, Control_c, 0, 64, 38
2, 92482, Control_c, 0, 64, 38
2, 92513, Control_c, 0, 64, 39
2, 92519, Note_on_c, 0, 69, 77
2, 92526, Note_on_c, 0, 60, 68
2, 92534, Note_on_c, 0, 62, 0
2, 92537, Note_on_c, 0, 68, 0
2, 92589, Control_c, 0, 64, 39
2, 92663, Note_on_c, 0, 67, 75
2, 92693, Note_on_c, 0, 69, 0
2, 92795, Note_on_c, 0, 67, 0
2, 92798, Note_on_c, 0, 65, 74
2, 92934, Note_on_c, 0, 61, 59
2, 92938, Note_on_c, 0, 64, 69
2, 92947, Note_on_c, 0, 60, 0
2, 92950, Note_on_c, 0, 65, 0
2, 93064, Note_on_c, 0, 64, 0
2, 93078, Note_on_c, 0, 65, 65
2, 93173, Control_c, 0, 64, 39
2, 93190, Note_on_c, 0, 65, 0
2, 93208, Note_on_c, 0, 67, 64
2, 93281, Control_c, 0, 64, 38
2, 93349, Note_on_c, 0, 61, 0
2, 93357, Note_on_c, 0, 65, 55
2, 93363, Note_on_c, 0, 62, 48
2, 93371, Note_on_c, 0, 67, 0
2, 93502, Note_on_c, 0, 64, 60
2, 93522, Note_on_c, 0, 65, 0
2, 93559, Note_on_c, 0, 62, 0
2, 93619, Note_on_c, 0, 64, 0
2, 93637, Note_on_c, 0, 62, 50
2, 93724, Control_c, 0, 64, 38
2, 93740, Control_c, 0, 64, 37
2, 93754, Control_c, 0, 64, 36
2, 93784, Note_on_c, 0, 62, 0
2, 93790, Note_on_c, 0, 61, 57
2, 93797, Note_on_c, 0, 55, 47
2, 93815, Control_c, 0, 64, 37
2, 93830, Control_c, 0, 64, 38
2, 93845, Control_c, 0, 64, 38
2, 93876, Control_c, 0, 64, 39
2, 93925, Note_on_c, 0, 61, 0
2, 93930, Note_on_c, 0, 62, 52
2, 94049, Note_on_c, 0, 62, 0
2, 94088, Note_on_c, 0, 64, 49
2, 94148, Note_on_c, 0, 55, 0
2, 94206, Note_on_c, 0, 64, 0
2, 94228, Note_on_c, 0, 62, 59
2, 94239, Note_on_c, 0, 50, 55
2, 94264, Note_on_c, 0, 53, 50
2, 94371, Note_on_c, 0, 53, 0
2, 94389, Note_on_c, 0, 52, 62
2, 94392, Note_on_c, 0, 50, 0
2, 94518, Note_on_c, 0, 53, 61
2, 94531, Note_on_c, 0, 52, 0
2, 94643, Note_on_c, 0, 62, 0
2, 94645, Note_on_c, 0, 53, 0
2, 94659, Note_on_c, 0, 55, 55
2, 94660, Note_on_c, 0, 61, 59
2, 94695, Note_on_c, 0, 58, 41
2, 94804, Note_on_c, 0, 53, 63
2, 94809, Note_on_c, 0, 55, 0
2, 94932, Note_on_c, 0, 52, 63
2, 94937, Note_on_c, 0, 53, 0
2, 94971, Control_c, 0, 64, 39
2, 95015, Note_on_c, 0, 58, 0
2, 95080, Note_on_c, 0, 53, 64
2, 95089, Note_on_c, 0, 62, 69
2, 95092, Note_on_c, 0, 52, 0
2, 95108, Control_c, 0, 64, 40
2, 95108, Note_on_c, 0, 57, 54
2, 95154, Control_c, 0, 64, 40
2, 95169, Control_c, 0, 64, 41
2, 95169, Note_on_c, 0, 61, 0
2, 95184, Control_c, 0, 64, 41
2, 95210, Note_on_c, 0, 53, 0
2, 95221, Note_on_c, 0, 55, 71
2, 95230, Control_c, 0, 64, 42
2, 95235, Note_on_c, 0, 57, 0
2, 95261, Control_c, 0, 64, 42
2, 95304, Note_on_c, 0, 62, 0
2, 95338, Control_c, 0, 64, 43
2, 95356, Note_on_c, 0, 57, 71
2, 95367, Note_on_c, 0, 55, 0
2, 95412, Control_c, 0, 64, 43
2, 95514, Note_on_c, 0, 57, 0
2, 95514, Note_on_c, 0, 58, 74
2, 95517, Note_on_c, 0, 67, 74
2, 95522, Note_on_c, 0, 62, 60
2, 95658, Note_on_c, 0, 57, 76
2, 95682, Note_on_c, 0, 58, 0
2, 95800, Control_c, 0, 64, 44
2, 95806, Note_on_c, 0, 55, 78
2, 95821, Note_on_c, 0, 57, 0
2, 95880, Note_on_c, 0, 62, 0
2, 95970, Note_on_c, 0, 57, 79
2, 95979, Note_on_c, 0, 61, 65
2, 96006, Note_on_c, 0, 55, 0
2, 96177, Note_on_c, 0, 64, 76
2, 96192, Note_on_c, 0, 67, 0
2, 96216, Note_on_c, 0, 61, 0
2, 96395, Note_on_c, 0, 64, 0
2, 96406, Note_on_c, 0, 62, 76
2, 96409, Note_on_c, 0, 65, 70
2, 96415, Note_on_c, 0, 57, 0
2, 96600, Note_on_c, 0, 67, 72
2, 96623, Note_on_c, 0, 65, 0
2, 96805, Note_on_c, 0, 61, 64
2, 96810, Note_on_c, 0, 67, 0
2, 96814, Note_on_c, 0, 69, 69
2, 96826, Note_on_c, 0, 64, 49
2, 96843, Note_on_c, 0, 62, 0
2, 97002, Note_on_c, 0, 71, 65
2, 97025, Note_on_c, 0, 69, 0
2, 97205, Note_on_c, 0, 71, 0
2, 97218, Note_on_c, 0, 60, 51
2, 97219, Note_on_c, 0, 72, 62
2, 97246, Note_on_c, 0, 61, 0
2, 97306, Control_c, 0, 64, 43
2, 97426, Note_on_c, 0, 72, 0
2, 97431, Note_on_c, 0, 69, 61
2, 97487, Control_c, 0, 64, 43
2, 97605, Note_on_c, 0, 60, 0
2, 97619, Note_on_c, 0, 62, 42
2, 97625, Note_on_c, 0, 69, 0
2, 97636, Note_on_c, 0, 74, 64
2, 97639, Note_on_c, 0, 59, 50
2, 97668, Note_on_c, 0, 64, 0
2, 97816, Control_c, 0, 64, 42
2, 97855, Note_on_c, 0, 73, 73
2, 97873, Note_on_c, 0, 74, 0
2, 98058, Note_on_c, 0, 58, 58
2, 98059, Note_on_c, 0, 74, 79
2, 98088, Note_on_c, 0, 59, 0
2, 98112, Note_on_c, 0, 73, 0
2, 98262, Note_on_c, 0, 76, 81
2, 98310, Note_on_c, 0, 74, 0
2, 98470, Note_on_c, 0, 77, 74
2, 98474, Note_on_c, 0, 76, 0
2, 98475, Note_on_c, 0, 57, 70
2, 98492, Note_on_c, 0, 62, 0
2, 98526, Note_on_c, 0, 58, 0
2, 98718, Note_on_c, 0, 71, 77
2, 98770, Note_on_c, 0, 77, 0
2, 98782, Control_c, 0, 64, 43
2, 98954, Note_on_c, 0, 55, 59
2, 98961, Note_on_c, 0, 76, 75
2, 98989, Note_on_c, 0, 71, 0
2, 98995, Note_on_c, 0, 57, 0
2, 99178, Note_on_c, 0, 74, 74
2, 99216, Note_on_c, 0, 76, 0
2, 99399, Note_on_c, 0, 73, 72
2, 99425, Note_on_c, 0, 74, 0
2, 99581, Note_on_c, 0, 73, 0
2, 99587, Note_on_c, 0, 69, 65
2, 99786, Note_on_c, 0, 53, 48
2, 99789, Note_on_c, 0, 69, 0
2, 99794, Note_on_c, 0, 74, 60
2, 99798, Note_on_c, 0, 70, 52
2, 99895, Note_on_c, 0, 55, 0
2, 99989, Note_on_c, 0, 70, 0
2, 99991, Note_on_c, 0, 69, 61
2, 100058, Control_c, 0, 64, 43
2, 100191, Note_on_c, 0, 69, 0
2, 100201, Note_on_c, 0, 67, 55
2, 100207, Note_on_c, 0, 52, 46
2, 100210, Control_c, 0, 64, 44
2, 100282, Note_on_c, 0, 53, 0
2, 100360, Note_on_c, 0, 67, 0
2, 100396, Note_on_c, 0, 70, 52
2, 100606, Note_on_c, 0, 74, 0
2, 100607, Note_on_c, 0, 72, 61
2, 100608, Note_on_c, 0, 69, 40
2, 100618, Note_on_c, 0, 57, 42
2, 100622, Note_on_c, 0, 70, 0
2, 100652, Note_on_c, 0, 52, 0
2, 100830, Note_on_c, 0, 67, 48
2, 100831, Note_on_c, 0, 69, 0
2, 101047, Note_on_c, 0, 67, 0
2, 101048, Note_on_c, 0, 66, 49
2, 101066, Note_on_c, 0, 50, 28
2, 101068, Note_on_c, 0, 57, 0
2, 101263, Note_on_c, 0, 50, 0
2, 101275, Note_on_c, 0, 62, 58
2, 101478, Note_on_c, 0, 63, 54
2, 101483, Note_on_c, 0, 70, 57
2, 101486, Note_on_c, 0, 67, 44
2, 101507, Note_on_c, 0, 62, 0
2, 101524, Note_on_c, 0, 66, 0
2, 101571, Note_on_c, 0, 72, 0
2, 101689, Note_on_c, 0, 62, 59
2, 101694, Note_on_c, 0, 63, 0
2, 101902, Note_on_c, 0, 60, 54
2, 101902, Note_on_c, 0, 69, 62
2, 101923, Note_on_c, 0, 62, 0
2, 101931, Note_on_c, 0, 70, 0
2, 102103, Note_on_c, 0, 60, 0
2, 102106, Note_on_c, 0, 63, 64
2, 102315, Note_on_c, 0, 65, 46
2, 102324, Note_on_c, 0, 62, 60
2, 102337, Note_on_c, 0, 63, 0
2, 102449, Note_on_c, 0, 67, 0
2, 102535, Note_on_c, 0, 62, 0
2, 102540, Note_on_c, 0, 60, 55
2, 102651, Control_c, 0, 64, 43
2, 102732, Note_on_c, 0, 69, 0
2, 102747, Note_on_c, 0, 67, 64
2, 102748, Note_on_c, 0, 60, 0
2, 102769, Note_on_c, 0, 59, 54
2, 102879, Control_c, 0, 64, 43
2, 102989, Note_on_c, 0, 79, 71
2, 102993, Note_on_c, 0, 59, 0
2, 103001, Note_on_c, 0, 55, 50
2, 103170, Note_on_c, 0, 67, 0
2, 103225, Note_on_c, 0, 55, 0
2, 103225, Note_on_c, 0, 60, 50
2, 103226, Note_on_c, 0, 81, 71
2, 103234, Note_on_c, 0, 65, 0
2, 103236, Note_on_c, 0, 64, 51
2, 103240, Note_on_c, 0, 79, 0
2, 103357, Control_c, 0, 64, 42
2, 103430, Note_on_c, 0, 79, 81
2, 103472, Note_on_c, 0, 81, 0
2, 103495, Control_c, 0, 64, 42
2, 103629, Note_on_c, 0, 77, 82
2, 103641, Note_on_c, 0, 62, 54
2, 103660, Note_on_c, 0, 79, 0
2, 103672, Note_on_c, 0, 64, 0
2, 103822, Note_on_c, 0, 77, 0
2, 103828, Note_on_c, 0, 81, 74
2, 104023, Note_on_c, 0, 60, 0
2, 104029, Note_on_c, 0, 58, 47
2, 104034, Note_on_c, 0, 79, 70
2, 104081, Note_on_c, 0, 81, 0
2, 104239, Note_on_c, 0, 77, 71
2, 104244, Note_on_c, 0, 79, 0
2, 104308, Control_c, 0, 64, 42
2, 104448, Note_on_c, 0, 76, 56
2, 104451, Note_on_c, 0, 60, 38
2, 104470, Note_on_c, 0, 62, 0
2, 104473, Note_on_c, 0, 77, 0
2, 104629, Note_on_c, 0, 60, 0
2, 104663, Note_on_c, 0, 76, 0
2, 104665, Note_on_c, 0, 72, 71
2, 104870, Note_on_c, 0, 77, 69
2, 104877, Note_on_c, 0, 72, 0
2, 104878, Note_on_c, 0, 74, 58
2, 104880, Note_on_c, 0, 57, 41
2, 104895, Note_on_c, 0, 58, 0
2, 105089, Note_on_c, 0, 74, 0
2, 105098, Note_on_c, 0, 72, 58
2, 105292, Note_on_c, 0, 70, 58
2, 105296, Note_on_c, 0, 72, 0
2, 105308, Note_on_c, 0, 55, 39
2, 105332, Note_on_c, 0, 57, 0
2, 105512, Note_on_c, 0, 70, 0
2, 105513, Note_on_c, 0, 74, 53
2, 105704, Note_on_c, 0, 55, 0
2, 105716, Note_on_c, 0, 77, 0
2, 105720, Note_on_c, 0, 76, 61
2, 105726, Note_on_c, 0, 72, 47
2, 105729, Note_on_c, 0, 60, 39
2, 105736, Note_on_c, 0, 74, 0
2, 105753, Control_c, 0, 64, 42
2, 105937, Note_on_c, 0, 70, 54
2, 105993, Note_on_c, 0, 72, 0
2, 106058, Control_c, 0, 64, 42
2, 106109, Note_on_c, 0, 70, 0
2, 106132, Note_on_c, 0, 53, 50
2, 106139, Note_on_c, 0, 69, 63
2, 106289, Note_on_c, 0, 76, 0
2, 106298, Note_on_c, 0, 60, 0
2, 106319, Note_on_c, 0, 55, 61
2, 106335, Note_on_c, 0, 53, 0
2, 106365, Note_on_c, 0, 77, 71
2, 106451, Note_on_c, 0, 57, 64
2, 106457, Note_on_c, 0, 69, 0
2, 106466, Note_on_c, 0, 55, 0
2, 106585, Note_on_c, 0, 58, 79
2, 106596, Note_on_c, 0, 57, 0
2, 106597, Note_on_c, 0, 67, 75
2, 106643, Control_c, 0, 64, 42
2, 106705, Control_c, 0, 64, 41
2, 106732, Note_on_c, 0, 57, 76
2, 106753, Note_on_c, 0, 58, 0
2, 106755, Note_on_c, 0, 76, 80
2, 106776, Note_on_c, 0, 77, 0
2, 106795, Note_on_c, 0, 67, 0
2, 106796, Control_c, 0, 64, 41
2, 106863, Note_on_c, 0, 55, 77
2, 106892, Note_on_c, 0, 57, 0
2, 106902, Control_c, 0, 64, 40
2, 106996, Note_on_c, 0, 55, 0
2, 107008, Note_on_c, 0, 57, 87
2, 107026, Note_on_c, 0, 65, 72
2, 107138, Note_on_c, 0, 76, 0
2, 107167, Control_c, 0, 64, 41
2, 107186, Note_on_c, 0, 74, 76
2, 107259, Control_c, 0, 64, 41
2, 107291, Note_on_c, 0, 65, 0
2, 107350, Control_c, 0, 64, 39
2, 107365, Control_c, 0, 64, 29
2, 107380, Control_c, 0, 64, 0
2, 107401, Note_on_c, 0, 45, 77
2, 107406, Note_on_c, 0, 57, 0
2, 107410, Note_on_c, 0, 64, 77
2, 107502, Control_c, 0, 64, 28
2, 107517, Control_c, 0, 64, 47
2, 107532, Control_c, 0, 64, 55
2, 107548, Control_c, 0, 64, 61
2, 107563, Control_c, 0, 64, 64
2, 107579, Control_c, 0, 64, 68
2, 107594, Control_c, 0, 64, 74
2, 107596, Note_on_c, 0, 64, 0
2, 107599, Note_on_c, 0, 73, 85
2, 107609, Control_c, 0, 64, 82
2, 107618, Note_on_c, 0, 74, 0
2, 107625, Control_c, 0, 64, 89
2, 107640, Control_c, 0, 64, 97
2, 107655, Control_c, 0, 64, 102
2, 107670, Control_c, 0, 64, 104
2, 107685, Control_c, 0, 64, 104
2, 107689, Note_on_c, 0, 73, 0
2, 107716, Control_c, 0, 64, 103
2, 107738, Control_c, 0, 64, 101
2, 107753, Control_c, 0, 64, 99
2, 107768, Control_c, 0, 64, 94
2, 107784, Control_c, 0, 64, 88
2, 107799, Control_c, 0, 64, 79
2, 107815, Control_c, 0, 64, 70
2, 107825, Note_on_c, 0, 50, 63
2, 107829, Control_c, 0, 64, 61
2, 107832, Note_on_c, 0, 74, 75
2, 107836, Note_on_c, 0, 65, 60
2, 107844, Control_c, 0, 64, 44
2, 107859, Control_c, 0, 64, 21
2, 107874, Control_c, 0, 64, 20
2, 107876, Note_on_c, 0, 45, 0
2, 107905, Control_c, 0, 64, 25
2, 107920, Control_c, 0, 64, 38
2, 107935, Control_c, 0, 64, 49
2, 107950, Control_c, 0, 64, 55
2, 107965, Control_c, 0, 64, 58
2, 107981, Control_c, 0, 64, 60
2, 107983, Note_on_c, 0, 52, 70
2, 107995, Control_c, 0, 64, 62
2, 108004, Note_on_c, 0, 50, 0
2, 108010, Control_c, 0, 64, 63
2, 108026, Control_c, 0, 64, 64
2, 108041, Control_c, 0, 64, 65
2, 108057, Control_c, 0, 64, 65
2, 108059, Note_on_c, 0, 65, 0
2, 108071, Control_c, 0, 64, 66
2, 108102, Control_c, 0, 64, 66
2, 108110, Note_on_c, 0, 52, 0
2, 108111, Note_on_c, 0, 74, 0
2, 108114, Note_on_c, 0, 53, 76
2, 108178, Control_c, 0, 64, 66
2, 108208, Control_c, 0, 64, 65
2, 108224, Control_c, 0, 64, 65
2, 108239, Control_c, 0, 64, 63
2, 108251, Note_on_c, 0, 70, 79
2, 108255, Control_c, 0, 64, 59
2, 108264, Note_on_c, 0, 55, 67
2, 108269, Control_c, 0, 64, 53
2, 108269, Note_on_c, 0, 61, 44
2, 108282, Note_on_c, 0, 53, 0
2, 108284, Control_c, 0, 64, 46
2, 108300, Control_c, 0, 64, 39
2, 108315, Control_c, 0, 64, 35
2, 108346, Control_c, 0, 64, 37
2, 108361, Control_c, 0, 64, 47
2, 108377, Control_c, 0, 64, 54
2, 108392, Control_c, 0, 64, 57
2, 108404, Note_on_c, 0, 53, 72
2, 108407, Control_c, 0, 64, 59
2, 108420, Note_on_c, 0, 55, 0
2, 108422, Control_c, 0, 64, 60
2, 108437, Control_c, 0, 64, 61
2, 108452, Control_c, 0, 64, 62
2, 108468, Control_c, 0, 64, 63
2, 108483, Control_c, 0, 64, 63
2, 108543, Note_on_c, 0, 52, 67
2, 108552, Note_on_c, 0, 70, 0
2, 108553, Note_on_c, 0, 53, 0
2, 108562, Note_on_c, 0, 61, 0
2, 108642, Control_c, 0, 64, 63
2, 108688, Control_c, 0, 64, 62
2, 108688, Note_on_c, 0, 53, 70
2, 108703, Note_on_c, 0, 69, 71
2, 108716, Note_on_c, 0, 52, 0
2, 108716, Note_on_c, 0, 62, 51
2, 108718, Control_c, 0, 64, 62
2, 108733, Control_c, 0, 64, 61
2, 108749, Control_c, 0, 64, 61
2, 108779, Control_c, 0, 64, 60
2, 108794, Control_c, 0, 64, 59
2, 108809, Control_c, 0, 64, 59
2, 108832, Note_on_c, 0, 55, 69
2, 108835, Note_on_c, 0, 67, 75
2, 108839, Control_c, 0, 64, 58
2, 108857, Note_on_c, 0, 53, 0
2, 108861, Note_on_c, 0, 69, 0
2, 108870, Control_c, 0, 64, 58
2, 108930, Control_c, 0, 64, 57
2, 108967, Note_on_c, 0, 55, 0
2, 108967, Note_on_c, 0, 65, 76
2, 108976, Note_on_c, 0, 57, 69
2, 108991, Control_c, 0, 64, 57
2, 108997, Note_on_c, 0, 67, 0
2, 109052, Control_c, 0, 64, 56
2, 109083, Control_c, 0, 64, 56
2, 109099, Note_on_c, 0, 64, 77
2, 109105, Note_on_c, 0, 58, 70
2, 109115, Note_on_c, 0, 65, 0
2, 109128, Control_c, 0, 64, 55
2, 109129, Note_on_c, 0, 57, 0
2, 109205, Control_c, 0, 64, 55
2, 109234, Note_on_c, 0, 65, 73
2, 109236, Control_c, 0, 64, 54
2, 109240, Note_on_c, 0, 58, 0
2, 109241, Note_on_c, 0, 57, 73
2, 109252, Note_on_c, 0, 64, 0
2, 109304, Control_c, 0, 64, 54
2, 109335, Control_c, 0, 64, 53
2, 109364, Control_c, 0, 64, 53
2, 109368, Note_on_c, 0, 57, 0
2, 109372, Note_on_c, 0, 55, 65
2, 109377, Note_on_c, 0, 67, 73
2, 109381, Note_on_c, 0, 65, 0
2, 109395, Control_c, 0, 64, 52
2, 109426, Control_c, 0, 64, 52
2, 109456, Control_c, 0, 64, 51
2, 109457, Note_on_c, 0, 62, 0
2, 109502, Control_c, 0, 64, 51
2, 109517, Note_on_c, 0, 57, 72
2, 109520, Note_on_c, 0, 55, 0
2, 109521, Note_on_c, 0, 65, 72
2, 109545, Note_on_c, 0, 67, 0
2, 109562, Control_c, 0, 64, 50
2, 109608, Control_c, 0, 64, 50
2, 109623, Control_c, 0, 64, 49
2, 109638, Control_c, 0, 64, 49
2, 109652, Note_on_c, 0, 64, 66
2, 109673, Note_on_c, 0, 65, 0
2, 109683, Control_c, 0, 64, 48
2, 109729, Control_c, 0, 64, 48
2, 109759, Control_c, 0, 64, 47
2, 109767, Note_on_c, 0, 64, 0
2, 109775, Control_c, 0, 64, 47
2, 109787, Note_on_c, 0, 62, 59
2, 109790, Control_c, 0, 64, 46
2, 109804, Control_c, 0, 64, 45
2, 109820, Control_c, 0, 64, 43
2, 109835, Control_c, 0, 64, 40
2, 109850, Control_c, 0, 64, 32
2, 109866, Control_c, 0, 64, 0
2, 109926, Note_on_c, 0, 57, 0
2, 109929, Note_on_c, 0, 62, 0
2, 109933, Note_on_c, 0, 61, 61
2, 109936, Note_on_c, 0, 58, 58
2, 109960, Note_on_c, 0, 55, 39
2, 109988, Control_c, 0, 64, 32
2, 110003, Control_c, 0, 64, 49
2, 110019, Control_c, 0, 64, 56
2, 110042, Control_c, 0, 64, 60
2, 110058, Control_c, 0, 64, 64
2, 110067, Note_on_c, 0, 62, 62
2, 110068, Note_on_c, 0, 61, 0
2, 110072, Control_c, 0, 64, 67
2, 110087, Control_c, 0, 64, 74
2, 110103, Control_c, 0, 64, 83
2, 110117, Control_c, 0, 64, 95
2, 110133, Control_c, 0, 64, 110
2, 110137, Note_on_c, 0, 58, 0
2, 110149, Control_c, 0, 64, 127
2, 110165, Note_on_c, 0, 55, 0
2, 110192, Note_on_c, 0, 62, 0
2, 110200, Note_on_c, 0, 64, 59
2, 110285, Control_c, 0, 64, 113
2, 110301, Control_c, 0, 64, 103
2, 110306, Note_on_c, 0, 64, 0
2, 110315, Control_c, 0, 64, 93
2, 110330, Control_c, 0, 64, 86
2, 110340, Note_on_c, 0, 62, 63
2, 110346, Control_c, 0, 64, 80
2, 110361, Control_c, 0, 64, 76
2, 110361, Note_on_c, 0, 57, 47
2, 110364, Note_on_c, 0, 53, 46
2, 110377, Control_c, 0, 64, 73
2, 110392, Control_c, 0, 64, 70
2, 110407, Control_c, 0, 64, 67
2, 110422, Control_c, 0, 64, 64
2, 110437, Control_c, 0, 64, 62
2, 110452, Control_c, 0, 64, 60
2, 110468, Control_c, 0, 64, 58
2, 110483, Control_c, 0, 64, 57
2, 110485, Note_on_c, 0, 64, 58
2, 110487, Note_on_c, 0, 52, 53
2, 110499, Control_c, 0, 64, 56
2, 110505, Note_on_c, 0, 53, 0
2, 110514, Control_c, 0, 64, 55
2, 110528, Control_c, 0, 64, 55
2, 110529, Note_on_c, 0, 62, 0
2, 110590, Control_c, 0, 64, 54
2, 110623, Note_on_c, 0, 65, 64
2, 110628, Note_on_c, 0, 64, 0
2, 110633, Note_on_c, 0, 50, 56
2, 110639, Note_on_c, 0, 52, 0
2, 110711, Control_c, 0, 64, 55
2, 110750, Note_on_c, 0, 65, 0
2, 110768, Note_on_c, 0, 67, 65
2, 110771, Note_on_c, 0, 50, 0
2, 110772, Note_on_c, 0, 49, 56
2, 110903, Note_on_c, 0, 65, 69
2, 110908, Note_on_c, 0, 49, 0
2, 110914, Note_on_c, 0, 50, 61
2, 110918, Note_on_c, 0, 67, 0
2, 110948, Control_c, 0, 64, 55
2, 111037, Note_on_c, 0, 52, 63
2, 111043, Note_on_c, 0, 50, 0
2, 111046, Note_on_c, 0, 64, 75
2, 111056, Note_on_c, 0, 65, 0
2, 111159, Control_c, 0, 64, 56
2, 111178, Note_on_c, 0, 64, 0
2, 111181, Note_on_c, 0, 65, 75
2, 111193, Note_on_c, 0, 50, 59
2, 111194, Note_on_c, 0, 52, 0
2, 111238, Note_on_c, 0, 57, 0
2, 111323, Note_on_c, 0, 55, 68
2, 111326, Note_on_c, 0, 67, 77
2, 111364, Note_on_c, 0, 65, 0
2, 111456, Note_on_c, 0, 53, 70
2, 111458, Note_on_c, 0, 69, 84
2, 111475, Note_on_c, 0, 67, 0
2, 111479, Control_c, 0, 64, 56
2, 111491, Note_on_c, 0, 55, 0
2, 111599, Note_on_c, 0, 70, 81
2, 111601, Note_on_c, 0, 53, 0
2, 111606, Note_on_c, 0, 52, 68
2, 111621, Note_on_c, 0, 69, 0
2, 111721, Note_on_c, 0, 69, 87
2, 111730, Note_on_c, 0, 53, 69
2, 111753, Note_on_c, 0, 52, 0
2, 111772, Note_on_c, 0, 70, 0
2, 111862, Note_on_c, 0, 53, 0
2, 111867, Note_on_c, 0, 55, 73
2, 111868, Note_on_c, 0, 67, 85
2, 111893, Note_on_c, 0, 69, 0
2, 112045, Note_on_c, 0, 69, 86
2, 112047, Note_on_c, 0, 67, 0
2, 112049, Note_on_c, 0, 53, 72
2, 112078, Note_on_c, 0, 55, 0
2, 112255, Note_on_c, 0, 50, 0
2, 112261, Note_on_c, 0, 48, 72
2, 112492, Note_on_c, 0, 74, 85
2, 112496, Note_on_c, 0, 48, 0
2, 112497, Note_on_c, 0, 46, 64
2, 112535, Note_on_c, 0, 69, 0
2, 112678, Note_on_c, 0, 55, 79
2, 112679, Note_on_c, 0, 53, 0
2, 112892, Control_c, 0, 64, 56
2, 112896, Note_on_c, 0, 45, 64
2, 112903, Note_on_c, 0, 55, 0
2, 112904, Note_on_c, 0, 73, 86
2, 112922, Control_c, 0, 64, 56
2, 112935, Note_on_c, 0, 46, 0
2, 112965, Note_on_c, 0, 74, 0
2, 113110, Note_on_c, 0, 55, 79
2, 113317, Note_on_c, 0, 54, 65
2, 113323, Note_on_c, 0, 72, 83
2, 113356, Note_on_c, 0, 55, 0
2, 113357, Note_on_c, 0, 73, 0
2, 113463, Control_c, 0, 64, 56
2, 113512, Note_on_c, 0, 45, 0
2, 113512, Note_on_c, 0, 50, 68
2, 113629, Control_c, 0, 64, 55
2, 113706, Control_c, 0, 64, 55
2, 113714, Note_on_c, 0, 54, 0
2, 113721, Note_on_c, 0, 71, 85
2, 113726, Note_on_c, 0, 43, 65
2, 113743, Note_on_c, 0, 50, 0
2, 113743, Note_on_c, 0, 72, 0
2, 113751, Control_c, 0, 64, 54
2, 113782, Control_c, 0, 64, 54
2, 113896, Control_c, 0, 64, 54
2, 113923, Note_on_c, 0, 53, 80
2, 113956, Control_c, 0, 64, 55
2, 114121, Note_on_c, 0, 52, 60
2, 114140, Control_c, 0, 64, 55
2, 114146, Note_on_c, 0, 70, 88
2, 114158, Note_on_c, 0, 71, 0
2, 114175, Note_on_c, 0, 53, 0
2, 114246, Control_c, 0, 64, 56
2, 114316, Note_on_c, 0, 43, 0
2, 114323, Note_on_c, 0, 48, 74
2, 114428, Control_c, 0, 64, 56
2, 114541, Note_on_c, 0, 41, 59
2, 114543, Note_on_c, 0, 52, 0
2, 114545, Note_on_c, 0, 69, 85
2, 114557, Note_on_c, 0, 48, 0
2, 114562, Note_on_c, 0, 70, 0
2, 114565, Control_c, 0, 64, 57
2, 114763, Note_on_c, 0, 51, 83
2, 115008, Note_on_c, 0, 81, 87
2, 115011, Note_on_c, 0, 50, 63
2, 115037, Note_on_c, 0, 51, 0
2, 115210, Note_on_c, 0, 46, 75
2, 115222, Note_on_c, 0, 41, 0
2, 115317, Control_c, 0, 64, 57
2, 115413, Note_on_c, 0, 50, 0
2, 115435, Note_on_c, 0, 80, 91
2, 115440, Note_on_c, 0, 40, 68
2, 115458, Note_on_c, 0, 46, 0
2, 115465, Note_on_c, 0, 69, 0
2, 115478, Note_on_c, 0, 81, 0
2, 115508, Control_c, 0, 64, 57
2, 115553, Control_c, 0, 64, 56
2, 115598, Control_c, 0, 64, 56
2, 115629, Note_on_c, 0, 50, 79
2, 115660, Control_c, 0, 64, 55
2, 115852, Note_on_c, 0, 49, 70
2, 115858, Control_c, 0, 64, 55
2, 115859, Note_on_c, 0, 79, 85
2, 115884, Note_on_c, 0, 50, 0
2, 115895, Note_on_c, 0, 80, 0
2, 115919, Control_c, 0, 64, 54
2, 116044, Note_on_c, 0, 40, 0
2, 116057, Note_on_c, 0, 45, 69
2, 116085, Control_c, 0, 64, 54
2, 116230, Control_c, 0, 64, 52
2, 116245, Control_c, 0, 64, 48
2, 116261, Control_c, 0, 64, 38
2, 116276, Control_c, 0, 64, 16
2, 116290, Control_c, 0, 64, 0
2, 116295, Note_on_c, 0, 49, 0
2, 116317, Note_on_c, 0, 45, 0
2, 116319, Note_on_c, 0, 50, 71
2, 116322, Note_on_c, 0, 78, 87
2, 116323, Note_on_c, 0, 38, 56
2, 116361, Note_on_c, 0, 79, 0
2, 116366, Control_c, 0, 64, 37
2, 116382, Control_c, 0, 64, 53
2, 116397, Control_c, 0, 64, 58
2, 116411, Control_c, 0, 64, 61
2, 116427, Control_c, 0, 64, 63
2, 116442, Control_c, 0, 64, 65
2, 116458, Control_c, 0, 64, 69
2, 116473, Control_c, 0, 64, 76
2, 116488, Control_c, 0, 64, 88
2, 116503, Control_c, 0, 64, 103
2, 116518, Control_c, 0, 64, 127
2, 116562, Note_on_c, 0, 78, 0
2, 116585, Note_on_c, 0, 50, 0
2, 116595, Note_on_c, 0, 69, 79
2, 116803, Note_on_c, 0, 38, 0
2, 116804, Note_on_c, 0, 69, 0
2, 116830, Note_on_c, 0, 77, 84
2, 116837, Note_on_c, 0, 70, 66
2, 116839, Control_c, 0, 64, 99
2, 116839, Note_on_c, 0, 50, 63
2, 116855, Control_c, 0, 64, 74
2, 116869, Control_c, 0, 64, 60
2, 116884, Control_c, 0, 64, 40
2, 116900, Control_c, 0, 64, 48
2, 116914, Control_c, 0, 64, 57
2, 116929, Control_c, 0, 64, 62
2, 116953, Control_c, 0, 64, 63
2, 116968, Control_c, 0, 64, 65
2, 116983, Control_c, 0, 64, 67
2, 116998, Control_c, 0, 64, 69
2, 117013, Control_c, 0, 64, 73
2, 117029, Control_c, 0, 64, 79
2, 117044, Control_c, 0, 64, 85
2, 117051, Note_on_c, 0, 69, 58
2, 117059, Control_c, 0, 64, 92
2, 117074, Control_c, 0, 64, 97
2, 117089, Control_c, 0, 64, 101
2, 117105, Control_c, 0, 64, 101
2, 117121, Note_on_c, 0, 70, 0
2, 117166, Note_on_c, 0, 69, 0
2, 117181, Control_c, 0, 64, 100
2, 117196, Control_c, 0, 64, 100
2, 117210, Control_c, 0, 64, 99
2, 117226, Control_c, 0, 64, 97
2, 117241, Control_c, 0, 64, 95
2, 117243, Note_on_c, 0, 77, 0
2, 117256, Control_c, 0, 64, 93
2, 117258, Note_on_c, 0, 76, 63
2, 117271, Control_c, 0, 64, 91
2, 117273, Note_on_c, 0, 67, 57
2, 117286, Control_c, 0, 64, 88
2, 117302, Control_c, 0, 64, 84
2, 117317, Control_c, 0, 64, 79
2, 117331, Control_c, 0, 64, 75
2, 117347, Control_c, 0, 64, 74
2, 117363, Control_c, 0, 64, 74
2, 117394, Control_c, 0, 64, 73
2, 117409, Control_c, 0, 64, 71
2, 117425, Control_c, 0, 64, 70
2, 117439, Control_c, 0, 64, 68
2, 117455, Control_c, 0, 64, 67
2, 117461, Note_on_c, 0, 70, 67
2, 117470, Control_c, 0, 64, 67
2, 117475, Note_on_c, 0, 67, 0
2, 117485, Control_c, 0, 64, 66
2, 117500, Control_c, 0, 64, 65
2, 117515, Control_c, 0, 64, 65
2, 117530, Control_c, 0, 64, 64
2, 117561, Control_c, 0, 64, 64
2, 117577, Control_c, 0, 64, 63
2, 117592, Control_c, 0, 64, 63
2, 117622, Control_c, 0, 64, 62
2, 117649, Note_on_c, 0, 70, 0
2, 117652, Control_c, 0, 64, 62
2, 117660, Note_on_c, 0, 49, 53
2, 117665, Note_on_c, 0, 69, 65
2, 117668, Control_c, 0, 64, 61
2, 117720, Control_c, 0, 64, 61
2, 117728, Note_on_c, 0, 50, 0
2, 117796, Control_c, 0, 64, 60
2, 117855, Note_on_c, 0, 69, 0
2, 117873, Note_on_c, 0, 67, 62
2, 117935, Control_c, 0, 64, 60
2, 117949, Control_c, 0, 64, 59
2, 117964, Control_c, 0, 64, 56
2, 117980, Control_c, 0, 64, 48
2, 117995, Control_c, 0, 64, 33
2, 118010, Control_c, 0, 64, 17
2, 118056, Control_c, 0, 64, 25
2, 118069, Note_on_c, 0, 50, 45
2, 118069, Note_on_c, 0, 67, 0
2, 118071, Control_c, 0, 64, 41
2, 118081, Note_on_c, 0, 65, 61
2, 118086, Control_c, 0, 64, 52
2, 118101, Control_c, 0, 64, 57
2, 118104, Note_on_c, 0, 49, 0
2, 118116, Control_c, 0, 64, 59
2, 118131, Control_c, 0, 64, 61
2, 118147, Control_c, 0, 64, 62
2, 118162, Control_c, 0, 64, 63
2, 118179, Control_c, 0, 64, 64
2, 118194, Control_c, 0, 64, 65
2, 118208, Control_c, 0, 64, 66
2, 118224, Control_c, 0, 64, 67
2, 118239, Control_c, 0, 64, 69
2, 118255, Control_c, 0, 64, 69
2, 118263, Note_on_c, 0, 50, 0
2, 118276, Note_on_c, 0, 57, 74
2, 118315, Control_c, 0, 64, 69
2, 118345, Control_c, 0, 64, 68
2, 118360, Control_c, 0, 64, 68
2, 118376, Control_c, 0, 64, 67
2, 118391, Control_c, 0, 64, 66
2, 118405, Control_c, 0, 64, 65
2, 118421, Control_c, 0, 64, 64
2, 118436, Control_c, 0, 64, 63
2, 118451, Control_c, 0, 64, 62
2, 118467, Control_c, 0, 64, 61
2, 118489, Control_c, 0, 64, 61
2, 118505, Control_c, 0, 64, 60
2, 118519, Note_on_c, 0, 74, 70
2, 118526, Note_on_c, 0, 58, 61
2, 118535, Control_c, 0, 64, 60
2, 118546, Note_on_c, 0, 57, 0
2, 118550, Control_c, 0, 64, 59
2, 118565, Control_c, 0, 64, 59
2, 118572, Note_on_c, 0, 76, 0
2, 118580, Control_c, 0, 64, 58
2, 118609, Control_c, 0, 64, 57
2, 118625, Control_c, 0, 64, 57
2, 118640, Control_c, 0, 64, 56
2, 118656, Control_c, 0, 64, 56
2, 118671, Control_c, 0, 64, 55
2, 118686, Control_c, 0, 64, 54
2, 118702, Control_c, 0, 64, 53
2, 118717, Control_c, 0, 64, 52
2, 118732, Control_c, 0, 64, 51
2, 118733, Note_on_c, 0, 57, 68
2, 118747, Control_c, 0, 64, 50
2, 118762, Control_c, 0, 64, 50
2, 118763, Note_on_c, 0, 58, 0
2, 118778, Control_c, 0, 64, 49
2, 118793, Control_c, 0, 64, 48
2, 118808, Control_c, 0, 64, 47
2, 118823, Control_c, 0, 64, 47
2, 118838, Control_c, 0, 64, 46
2, 118853, Control_c, 0, 64, 46
2, 118869, Control_c, 0, 64, 45
2, 118946, Note_on_c, 0, 64, 60
2, 118947, Note_on_c, 0, 57, 0
2, 118959, Control_c, 0, 64, 45
2, 118961, Note_on_c, 0, 55, 51
2, 119037, Control_c, 0, 64, 44
2, 119166, Note_on_c, 0, 58, 49
2, 119172, Note_on_c, 0, 55, 0
2, 119360, Note_on_c, 0, 65, 0
2, 119378, Note_on_c, 0, 57, 49
2, 119386, Note_on_c, 0, 73, 57
2, 119390, Note_on_c, 0, 58, 0
2, 119407, Note_on_c, 0, 74, 0
2, 119424, Control_c, 0, 64, 45
2, 119500, Control_c, 0, 64, 45
2, 119579, Note_on_c, 0, 57, 0
2, 119591, Control_c, 0, 64, 46
2, 119599, Note_on_c, 0, 55, 42
2, 119698, Control_c, 0, 64, 46
2, 119773, Note_on_c, 0, 73, 0
2, 119848, Note_on_c, 0, 53, 39
2, 119885, Note_on_c, 0, 55, 0
2, 120046, Note_on_c, 0, 81, 56
2, 120235, Note_on_c, 0, 64, 0
2, 120248, Note_on_c, 0, 81, 0
2, 120252, Note_on_c, 0, 62, 46
2, 120262, Note_on_c, 0, 82, 66
2, 120313, Control_c, 0, 64, 46
2, 120328, Control_c, 0, 64, 45
2, 120344, Control_c, 0, 64, 45
2, 120358, Control_c, 0, 64, 44
2, 120373, Control_c, 0, 64, 43
2, 120389, Control_c, 0, 64, 42
2, 120404, Control_c, 0, 64, 40
2, 120420, Control_c, 0, 64, 39
2, 120435, Control_c, 0, 64, 38
2, 120450, Control_c, 0, 64, 38
2, 120464, Note_on_c, 0, 81, 64
2, 120470, Note_on_c, 0, 82, 0
2, 120497, Control_c, 0, 64, 37
2, 120511, Control_c, 0, 64, 37
2, 120674, Note_on_c, 0, 81, 0
2, 120688, Note_on_c, 0, 79, 59
2, 120693, Note_on_c, 0, 52, 38
2, 120695, Note_on_c, 0, 53, 0
2, 120900, Control_c, 0, 64, 36
2, 120902, Note_on_c, 0, 79, 0
2, 120909, Note_on_c, 0, 82, 58
2, 120945, Control_c, 0, 64, 36
2, 120960, Control_c, 0, 64, 35
2, 120976, Control_c, 0, 64, 35
2, 120990, Control_c, 0, 64, 33
2, 121005, Control_c, 0, 64, 30
2, 121021, Control_c, 0, 64, 24
2, 121036, Control_c, 0, 64, 0
2, 121131, Note_on_c, 0, 61, 38
2, 121137, Note_on_c, 0, 82, 0
2, 121142, Note_on_c, 0, 81, 52
2, 121146, Note_on_c, 0, 62, 0
2, 121157, Control_c, 0, 64, 39
2, 121172, Control_c, 0, 64, 52
2, 121188, Control_c, 0, 64, 57
2, 121202, Control_c, 0, 64, 60
2, 121218, Control_c, 0, 64, 62
2, 121233, Control_c, 0, 64, 64
2, 121248, Control_c, 0, 64, 68
2, 121264, Control_c, 0, 64, 73
2, 121279, Control_c, 0, 64, 79
2, 121295, Control_c, 0, 64, 87
2, 121309, Control_c, 0, 64, 97
2, 121324, Control_c, 0, 64, 108
2, 121333, Note_on_c, 0, 61, 0
2, 121337, Note_on_c, 0, 52, 0
2, 121340, Control_c, 0, 64, 127
2, 121353, Note_on_c, 0, 79, 52
2, 121370, Note_on_c, 0, 81, 0
2, 121508, Control_c, 0, 64, 94
2, 121523, Control_c, 0, 64, 76
2, 121539, Control_c, 0, 64, 67
2, 121561, Control_c, 0, 64, 66
2, 121577, Control_c, 0, 64, 70
2, 121582, Note_on_c, 0, 50, 44
2, 121586, Note_on_c, 0, 77, 58
2, 121591, Control_c, 0, 64, 75
2, 121601, Note_on_c, 0, 79, 0
2, 121606, Control_c, 0, 64, 80
2, 121609, Note_on_c, 0, 62, 32
2, 121622, Control_c, 0, 64, 84
2, 121636, Control_c, 0, 64, 87
2, 121652, Control_c, 0, 64, 94
2, 121665, Note_on_c, 0, 50, 0
2, 121668, Control_c, 0, 64, 110
2, 121683, Control_c, 0, 64, 127
2, 121759, Note_on_c, 0, 77, 0
2, 121786, Note_on_c, 0, 76, 59
2, 121831, Note_on_c, 0, 64, 54
2, 121848, Note_on_c, 0, 62, 0
2, 121911, Control_c, 0, 64, 115
2, 121922, Note_on_c, 0, 76, 0
2, 121923, Note_on_c, 0, 64, 0
2, 121923, Note_on_c, 0, 74, 54
2, 121926, Control_c, 0, 64, 100
2, 121940, Note_on_c, 0, 65, 54
2, 121942, Control_c, 0, 64, 91
2, 121957, Control_c, 0, 64, 83
2, 121972, Control_c, 0, 64, 77
2, 121987, Control_c, 0, 64, 72
2, 122002, Control_c, 0, 64, 68
2, 122018, Control_c, 0, 64, 65
2, 122033, Control_c, 0, 64, 64
2, 122047, Control_c, 0, 64, 62
2, 122049, Note_on_c, 0, 74, 0
2, 122062, Note_on_c, 0, 65, 0
2, 122063, Control_c, 0, 64, 61
2, 122076, Note_on_c, 0, 73, 61
2, 122078, Control_c, 0, 64, 60
2, 122089, Note_on_c, 0, 67, 57
2, 122093, Control_c, 0, 64, 59
2, 122109, Control_c, 0, 64, 59
2, 122123, Control_c, 0, 64, 58
2, 122139, Control_c, 0, 64, 57
2, 122154, Control_c, 0, 64, 57
2, 122169, Control_c, 0, 64, 56
2, 122199, Note_on_c, 0, 73, 0
2, 122210, Note_on_c, 0, 67, 0
2, 122211, Note_on_c, 0, 74, 47
2, 122215, Control_c, 0, 64, 56
2, 122230, Control_c, 0, 64, 55
2, 122236, Note_on_c, 0, 65, 44
2, 122336, Note_on_c, 0, 74, 0
2, 122358, Note_on_c, 0, 65, 0
2, 122370, Note_on_c, 0, 76, 57
2, 122386, Note_on_c, 0, 64, 48
2, 122502, Note_on_c, 0, 76, 0
2, 122518, Note_on_c, 0, 64, 0
2, 122521, Note_on_c, 0, 69, 65
2, 122528, Note_on_c, 0, 65, 56
2, 122661, Note_on_c, 0, 65, 0
2, 122661, Note_on_c, 0, 69, 0
2, 122661, Note_on_c, 0, 71, 65
2, 122662, Note_on_c, 0, 67, 58
2, 122787, Note_on_c, 0, 67, 0
2, 122794, Note_on_c, 0, 73, 71
2, 122798, Note_on_c, 0, 69, 59
2, 122799, Note_on_c, 0, 71, 0
2, 122929, Note_on_c, 0, 74, 72
2, 122938, Note_on_c, 0, 73, 0
2, 122939, Note_on_c, 0, 70, 65
2, 122954, Note_on_c, 0, 69, 0
2, 123043, Control_c, 0, 64, 56
2, 123062, Note_on_c, 0, 70, 0
2, 123064, Note_on_c, 0, 73, 73
2, 123067, Note_on_c, 0, 69, 71
2, 123101, Note_on_c, 0, 74, 0
2, 123195, Note_on_c, 0, 67, 71
2, 123196, Note_on_c, 0, 69, 0
2, 123198, Note_on_c, 0, 71, 79
2, 123221, Note_on_c, 0, 73, 0
2, 123339, Note_on_c, 0, 73, 78
2, 123344, Note_on_c, 0, 69, 81
2, 123352, Note_on_c, 0, 71, 0
2, 123355, Note_on_c, 0, 67, 0
2, 123462, Note_on_c, 0, 73, 0
2, 123471, Note_on_c, 0, 74, 79
2, 123507, Control_c, 0, 64, 55
2, 123592, Note_on_c, 0, 76, 81
2, 123597, Note_on_c, 0, 74, 0
2, 123712, Note_on_c, 0, 76, 0
2, 123729, Note_on_c, 0, 69, 0
2, 123739, Note_on_c, 0, 77, 86
2, 123741, Note_on_c, 0, 74, 74
2, 123810, Control_c, 0, 64, 56
2, 123841, Control_c, 0, 64, 56
2, 123883, Note_on_c, 0, 76, 85
2, 123892, Note_on_c, 0, 74, 0
2, 123913, Note_on_c, 0, 77, 0
2, 124001, Control_c, 0, 64, 57
2, 124005, Note_on_c, 0, 76, 0
2, 124023, Note_on_c, 0, 74, 83
2, 124153, Control_c, 0, 64, 56
2, 124188, Note_on_c, 0, 74, 0
2, 124188, Note_on_c, 0, 76, 83
2, 124192, Note_on_c, 0, 73, 74
2, 124405, Note_on_c, 0, 47, 71
2, 124459, Control_c, 0, 64, 57
2, 124580, Control_c, 0, 64, 57
2, 124612, Note_on_c, 0, 73, 0
2, 124648, Note_on_c, 0, 81, 81
2, 124651, Note_on_c, 0, 76, 0
2, 124652, Note_on_c, 0, 48, 70
2, 124654, Note_on_c, 0, 72, 73
2, 124677, Note_on_c, 0, 47, 0
2, 124801, Control_c, 0, 64, 58
2, 124849, Note_on_c, 0, 50, 76
2, 124877, Control_c, 0, 64, 58
2, 124879, Note_on_c, 0, 48, 0
2, 124965, Note_on_c, 0, 72, 0
2, 125051, Note_on_c, 0, 52, 62
2, 125053, Note_on_c, 0, 80, 85
2, 125065, Note_on_c, 0, 50, 0
2, 125068, Note_on_c, 0, 71, 64
2, 125088, Note_on_c, 0, 81, 0
2, 125246, Note_on_c, 0, 54, 67
2, 125263, Note_on_c, 0, 52, 0
2, 125286, Control_c, 0, 64, 59
2, 125375, Note_on_c, 0, 80, 0
2, 125465, Note_on_c, 0, 55, 54
2, 125486, Note_on_c, 0, 70, 56
2, 125486, Note_on_c, 0, 79, 73
2, 125490, Note_on_c, 0, 54, 0
2, 125534, Note_on_c, 0, 71, 0
2, 125661, Control_c, 0, 64, 59
2, 125676, Control_c, 0, 64, 60
2, 125676, Note_on_c, 0, 52, 61
2, 125677, Note_on_c, 0, 55, 0
2, 125692, Control_c, 0, 64, 60
2, 125707, Control_c, 0, 64, 61
2, 125722, Control_c, 0, 64, 61
2, 125752, Control_c, 0, 64, 62
2, 125768, Control_c, 0, 64, 62
2, 125782, Control_c, 0, 64, 63
2, 125813, Control_c, 0, 64, 63
2, 125873, Control_c, 0, 64, 63
2, 125873, Note_on_c, 0, 52, 0
2, 125877, Note_on_c, 0, 70, 0
2, 125884, Note_on_c, 0, 78, 73
2, 125889, Note_on_c, 0, 69, 50
2, 125890, Note_on_c, 0, 57, 52
2, 125904, Control_c, 0, 64, 62
2, 125919, Control_c, 0, 64, 61
2, 125935, Control_c, 0, 64, 60
2, 125941, Note_on_c, 0, 79, 0
2, 125964, Control_c, 0, 64, 61
2, 125980, Control_c, 0, 64, 61
2, 125995, Control_c, 0, 64, 62
2, 126026, Control_c, 0, 64, 62
2, 126041, Control_c, 0, 64, 63
2, 126071, Control_c, 0, 64, 63
2, 126081, Note_on_c, 0, 56, 72
2, 126086, Control_c, 0, 64, 64
2, 126102, Control_c, 0, 64, 64
2, 126108, Note_on_c, 0, 57, 0
2, 126117, Control_c, 0, 64, 65
2, 126147, Control_c, 0, 64, 65
2, 126245, Note_on_c, 0, 78, 0
2, 126276, Control_c, 0, 64, 65
2, 126292, Control_c, 0, 64, 64
2, 126301, Note_on_c, 0, 77, 88
2, 126304, Note_on_c, 0, 57, 68
2, 126307, Control_c, 0, 64, 64
2, 126312, Note_on_c, 0, 56, 0
2, 126321, Control_c, 0, 64, 63
2, 126337, Control_c, 0, 64, 62
2, 126352, Control_c, 0, 64, 62
2, 126399, Control_c, 0, 64, 61
2, 126429, Control_c, 0, 64, 61
2, 126444, Control_c, 0, 64, 60
2, 126491, Control_c, 0, 64, 60
2, 126494, Note_on_c, 0, 59, 80
2, 126518, Note_on_c, 0, 57, 0
2, 126641, Control_c, 0, 64, 59
2, 126657, Control_c, 0, 64, 56
2, 126672, Control_c, 0, 64, 51
2, 126688, Control_c, 0, 64, 47
2, 126688, Note_on_c, 0, 59, 0
2, 126692, Note_on_c, 0, 60, 67
2, 126694, Note_on_c, 0, 76, 86
2, 126717, Control_c, 0, 64, 49
2, 126725, Note_on_c, 0, 77, 0
2, 126733, Control_c, 0, 64, 51
2, 126748, Control_c, 0, 64, 54
2, 126763, Control_c, 0, 64, 56
2, 126778, Control_c, 0, 64, 58
2, 126793, Control_c, 0, 64, 60
2, 126809, Control_c, 0, 64, 62
2, 126824, Control_c, 0, 64, 63
2, 126839, Control_c, 0, 64, 64
2, 126855, Control_c, 0, 64, 65
2, 126870, Control_c, 0, 64, 67
2, 126885, Control_c, 0, 64, 69
2, 126900, Control_c, 0, 64, 71
2, 126907, Note_on_c, 0, 54, 76
2, 126915, Control_c, 0, 64, 73
2, 126915, Note_on_c, 0, 76, 0
2, 126938, Control_c, 0, 64, 75
2, 126949, Note_on_c, 0, 60, 0
2, 126953, Control_c, 0, 64, 75
2, 127014, Control_c, 0, 64, 76
2, 127090, Control_c, 0, 64, 75
2, 127105, Control_c, 0, 64, 75
2, 127120, Control_c, 0, 64, 74
2, 127136, Control_c, 0, 64, 73
2, 127151, Control_c, 0, 64, 72
2, 127165, Control_c, 0, 64, 72
2, 127178, Note_on_c, 0, 74, 82
2, 127179, Note_on_c, 0, 59, 64
2, 127181, Control_c, 0, 64, 71
2, 127187, Note_on_c, 0, 54, 0
2, 127197, Control_c, 0, 64, 69
2, 127213, Control_c, 0, 64, 68
2, 127213, Note_on_c, 0, 69, 0
2, 127227, Control_c, 0, 64, 67
2, 127242, Control_c, 0, 64, 66
2, 127258, Control_c, 0, 64, 66
2, 127289, Control_c, 0, 64, 65
2, 127304, Control_c, 0, 64, 65
2, 127319, Control_c, 0, 64, 64
2, 127335, Control_c, 0, 64, 64
2, 127349, Control_c, 0, 64, 63
2, 127364, Control_c, 0, 64, 63
2, 127380, Control_c, 0, 64, 62
2, 127395, Control_c, 0, 64, 62
2, 127411, Control_c, 0, 64, 61
2, 127425, Control_c, 0, 64, 61
2, 127437, Note_on_c, 0, 57, 62
2, 127440, Control_c, 0, 64, 60
2, 127444, Note_on_c, 0, 65, 76
2, 127456, Control_c, 0, 64, 60
2, 127466, Note_on_c, 0, 59, 0
2, 127470, Control_c, 0, 64, 59
2, 127485, Control_c, 0, 64, 59
2, 127501, Control_c, 0, 64, 58
2, 127532, Control_c, 0, 64, 57
2, 127546, Control_c, 0, 64, 57
2, 127561, Control_c, 0, 64, 56
2, 127577, Control_c, 0, 64, 53
2, 127591, Control_c, 0, 64, 48
2, 127606, Control_c, 0, 64, 38
2, 127622, Control_c, 0, 64, 19
2, 127628, Note_on_c, 0, 56, 71
2, 127637, Control_c, 0, 64, 0
2, 127640, Note_on_c, 0, 57, 0
2, 127649, Note_on_c, 0, 64, 77
2, 127775, Note_on_c, 0, 74, 0
2, 127797, Control_c, 0, 64, 29
2, 127812, Control_c, 0, 64, 41
2, 127820, Note_on_c, 0, 52, 72
2, 127827, Control_c, 0, 64, 48
2, 127838, Note_on_c, 0, 56, 0
2, 127842, Control_c, 0, 64, 52
2, 127844, Note_on_c, 0, 65, 0
2, 127858, Control_c, 0, 64, 54
2, 127873, Control_c, 0, 64, 56
2, 127888, Control_c, 0, 64, 57
2, 127903, Control_c, 0, 64, 59
2, 127918, Control_c, 0, 64, 60
2, 127934, Control_c, 0, 64, 62
2, 127949, Control_c, 0, 64, 64
2, 127964, Control_c, 0, 64, 66
2, 127980, Control_c, 0, 64, 67
2, 127995, Control_c, 0, 64, 68
2, 128004, Note_on_c, 0, 72, 86
2, 128011, Control_c, 0, 64, 67
2, 128019, Note_on_c, 0, 57, 65
2, 128026, Control_c, 0, 64, 66
2, 128035, Note_on_c, 0, 52, 0
2, 128041, Control_c, 0, 64, 64
2, 128056, Control_c, 0, 64, 62
2, 128067, Note_on_c, 0, 64, 0
2, 128073, Control_c, 0, 64, 63
2, 128089, Control_c, 0, 64, 64
2, 128104, Control_c, 0, 64, 65
2, 128119, Control_c, 0, 64, 65
2, 128135, Control_c, 0, 64, 66
2, 128150, Control_c, 0, 64, 67
2, 128166, Control_c, 0, 64, 68
2, 128195, Control_c, 0, 64, 68
2, 128211, Note_on_c, 0, 64, 76
2, 128245, Note_on_c, 0, 72, 0
2, 128287, Control_c, 0, 64, 68
2, 128332, Control_c, 0, 64, 67
2, 128378, Control_c, 0, 64, 67
2, 128423, Control_c, 0, 64, 66
2, 128435, Note_on_c, 0, 71, 83
2, 128450, Note_on_c, 0, 62, 68
2, 128453, Control_c, 0, 64, 66
2, 128457, Note_on_c, 0, 64, 0
2, 128476, Control_c, 0, 64, 65
2, 128522, Control_c, 0, 64, 65
2, 128568, Control_c, 0, 64, 64
2, 128628, Control_c, 0, 64, 64
2, 128631, Note_on_c, 0, 50, 71
2, 128655, Note_on_c, 0, 57, 0
2, 128658, Control_c, 0, 64, 63
2, 128719, Control_c, 0, 64, 63
2, 128811, Control_c, 0, 64, 62
2, 128857, Control_c, 0, 64, 62
2, 128878, Note_on_c, 0, 70, 85
2, 128880, Note_on_c, 0, 55, 64
2, 128930, Note_on_c, 0, 50, 0
2, 128930, Note_on_c, 0, 71, 0
2, 128948, Control_c, 0, 64, 61
2, 129003, Note_on_c, 0, 62, 0
2, 129126, Note_on_c, 0, 62, 79
2, 129131, Control_c, 0, 64, 62
2, 129131, Note_on_c, 0, 53, 67
2, 129198, Note_on_c, 0, 55, 0
2, 129222, Control_c, 0, 64, 62
2, 129305, Control_c, 0, 64, 63
2, 129333, Note_on_c, 0, 60, 76
2, 129335, Note_on_c, 0, 52, 70
2, 129341, Note_on_c, 0, 62, 0
2, 129357, Note_on_c, 0, 53, 0
2, 129412, Control_c, 0, 64, 63
2, 129519, Note_on_c, 0, 48, 81
2, 129529, Note_on_c, 0, 70, 0
2, 129560, Note_on_c, 0, 52, 0
2, 129578, Control_c, 0, 64, 64
2, 129624, Control_c, 0, 64, 64
2, 129638, Control_c, 0, 64, 64
2, 129670, Control_c, 0, 64, 63
2, 129686, Control_c, 0, 64, 60
2, 129701, Control_c, 0, 64, 56
2, 129706, Note_on_c, 0, 69, 92
2, 129716, Control_c, 0, 64, 53
2, 129718, Note_on_c, 0, 53, 71
2, 129731, Control_c, 0, 64, 53
2, 129737, Note_on_c, 0, 60, 0
2, 129746, Control_c, 0, 64, 55
2, 129746, Note_on_c, 0, 48, 0
2, 129762, Control_c, 0, 64, 58
2, 129777, Control_c, 0, 64, 60
2, 129792, Control_c, 0, 64, 61
2, 129807, Control_c, 0, 64, 62
2, 129822, Control_c, 0, 64, 63
2, 129837, Control_c, 0, 64, 64
2, 129853, Control_c, 0, 64, 65
2, 129868, Control_c, 0, 64, 65
2, 129909, Note_on_c, 0, 60, 79
2, 129975, Control_c, 0, 64, 65
2, 130065, Note_on_c, 0, 69, 0
2, 130104, Control_c, 0, 64, 64
2, 130119, Note_on_c, 0, 68, 87
2, 130125, Note_on_c, 0, 59, 75
2, 130133, Note_on_c, 0, 60, 0
2, 130256, Control_c, 0, 64, 64
2, 130324, Note_on_c, 0, 47, 76
2, 130353, Note_on_c, 0, 53, 0
2, 130422, Control_c, 0, 64, 63
2, 130434, Note_on_c, 0, 68, 0
2, 130453, Control_c, 0, 64, 63
2, 130485, Control_c, 0, 64, 62
2, 130514, Control_c, 0, 64, 62
2, 130530, Control_c, 0, 64, 61
2, 130544, Note_on_c, 0, 67, 85
2, 130545, Note_on_c, 0, 52, 67
2, 130560, Control_c, 0, 64, 61
2, 130602, Note_on_c, 0, 47, 0
2, 130606, Control_c, 0, 64, 60
2, 130651, Control_c, 0, 64, 60
2, 130751, Note_on_c, 0, 50, 70
2, 130751, Note_on_c, 0, 58, 82
2, 130780, Control_c, 0, 64, 59
2, 130787, Note_on_c, 0, 59, 0
2, 130795, Note_on_c, 0, 52, 0
2, 130811, Control_c, 0, 64, 59
2, 130856, Control_c, 0, 64, 58
2, 130871, Control_c, 0, 64, 58
2, 130902, Control_c, 0, 64, 57
2, 130916, Control_c, 0, 64, 56
2, 130932, Control_c, 0, 64, 55
2, 130947, Control_c, 0, 64, 54
2, 130963, Control_c, 0, 64, 51
2, 130978, Control_c, 0, 64, 47
2, 130989, Note_on_c, 0, 49, 70
2, 130993, Control_c, 0, 64, 35
2, 130999, Note_on_c, 0, 57, 79
2, 131009, Control_c, 0, 64, 0
2, 131012, Note_on_c, 0, 50, 0
2, 131015, Note_on_c, 0, 58, 0
2, 131190, Control_c, 0, 64, 37
2, 131206, Control_c, 0, 64, 50
2, 131221, Control_c, 0, 64, 57
2, 131223, Note_on_c, 0, 67, 0
2, 131236, Control_c, 0, 64, 61
2, 131252, Control_c, 0, 64, 63
2, 131259, Note_on_c, 0, 45, 78
2, 131261, Note_on_c, 0, 57, 0
2, 131266, Control_c, 0, 64, 65
2, 131283, Control_c, 0, 64, 69
2, 131298, Control_c, 0, 64, 74
2, 131306, Note_on_c, 0, 49, 0
2, 131313, Control_c, 0, 64, 80
2, 131329, Control_c, 0, 64, 86
2, 131343, Control_c, 0, 64, 90
2, 131358, Control_c, 0, 64, 93
2, 131374, Control_c, 0, 64, 96
2, 131389, Control_c, 0, 64, 99
2, 131405, Control_c, 0, 64, 102
2, 131419, Control_c, 0, 64, 105
2, 131434, Control_c, 0, 64, 108
2, 131450, Control_c, 0, 64, 109
2, 131517, Note_on_c, 0, 50, 72
2, 131528, Note_on_c, 0, 67, 61
2, 131538, Note_on_c, 0, 45, 0
2, 131548, Control_c, 0, 64, 110
2, 131575, Note_on_c, 0, 67, 0
2, 131579, Control_c, 0, 64, 109
2, 131587, Note_on_c, 0, 65, 73
2, 131594, Control_c, 0, 64, 108
2, 131610, Control_c, 0, 64, 106
2, 131624, Control_c, 0, 64, 103
2, 131625, Note_on_c, 0, 65, 0
2, 131630, Note_on_c, 0, 67, 72
2, 131635, Control_c, 0, 64, 99
2, 131650, Control_c, 0, 64, 93
2, 131666, Control_c, 0, 64, 85
2, 131681, Control_c, 0, 64, 78
2, 131687, Note_on_c, 0, 65, 82
2, 131696, Control_c, 0, 64, 71
2, 131705, Note_on_c, 0, 67, 0
2, 131711, Control_c, 0, 64, 66
2, 131726, Control_c, 0, 64, 63
2, 131741, Control_c, 0, 64, 60
2, 131756, Control_c, 0, 64, 57
2, 131771, Control_c, 0, 64, 53
2, 131787, Control_c, 0, 64, 48
2, 131802, Control_c, 0, 64, 44
2, 131818, Control_c, 0, 64, 40
2, 131833, Control_c, 0, 64, 36
2, 131848, Control_c, 0, 64, 31
2, 131864, Control_c, 0, 64, 27
2, 131878, Control_c, 0, 64, 26
2, 131893, Control_c, 0, 64, 25
2, 131909, Control_c, 0, 64, 23
2, 131924, Control_c, 0, 64, 17
2, 131940, Control_c, 0, 64, 11
2, 131954, Control_c, 0, 64, 9
2, 132000, Control_c, 0, 64, 23
2, 132016, Control_c, 0, 64, 37
2, 132030, Control_c, 0, 64, 48
2, 132045, Control_c, 0, 64, 53
2, 132061, Control_c, 0, 64, 55
2, 132068, Note_on_c, 0, 69, 72
2, 132070, Note_on_c, 0, 64, 59
2, 132076, Control_c, 0, 64, 57
2, 132091, Control_c, 0, 64, 59
2, 132102, Note_on_c, 0, 65, 0
2, 132108, Control_c, 0, 64, 60
2, 132122, Control_c, 0, 64, 61
2, 132138, Control_c, 0, 64, 62
2, 132153, Control_c, 0, 64, 63
2, 132168, Control_c, 0, 64, 64
2, 132183, Control_c, 0, 64, 65
2, 132198, Control_c, 0, 64, 66
2, 132213, Control_c, 0, 64, 67
2, 132229, Control_c, 0, 64, 68
2, 132244, Control_c, 0, 64, 69
2, 132248, Note_on_c, 0, 67, 77
2, 132259, Control_c, 0, 64, 71
2, 132274, Control_c, 0, 64, 71
2, 132281, Note_on_c, 0, 64, 0
2, 132289, Control_c, 0, 64, 72
2, 132299, Note_on_c, 0, 69, 0
2, 132397, Note_on_c, 0, 65, 71
2, 132403, Control_c, 0, 64, 71
2, 132434, Control_c, 0, 64, 71
2, 132444, Note_on_c, 0, 67, 0
2, 132464, Control_c, 0, 64, 70
2, 132479, Control_c, 0, 64, 70
2, 132494, Control_c, 0, 64, 69
2, 132510, Control_c, 0, 64, 69
2, 132525, Control_c, 0, 64, 68
2, 132537, Note_on_c, 0, 49, 66
2, 132540, Control_c, 0, 64, 67
2, 132544, Note_on_c, 0, 64, 68
2, 132555, Control_c, 0, 64, 65
2, 132559, Note_on_c, 0, 65, 0
2, 132570, Control_c, 0, 64, 62
2, 132584, Note_on_c, 0, 50, 0
2, 132585, Control_c, 0, 64, 56
2, 132600, Control_c, 0, 64, 49
2, 132631, Control_c, 0, 64, 51
2, 132646, Control_c, 0, 64, 55
2, 132662, Control_c, 0, 64, 58
2, 132676, Control_c, 0, 64, 60
2, 132682, Note_on_c, 0, 65, 68
2, 132691, Control_c, 0, 64, 62
2, 132704, Note_on_c, 0, 64, 0
2, 132707, Control_c, 0, 64, 64
2, 132722, Control_c, 0, 64, 65
2, 132738, Control_c, 0, 64, 66
2, 132753, Control_c, 0, 64, 67
2, 132768, Control_c, 0, 64, 68
2, 132828, Note_on_c, 0, 67, 70
2, 132835, Note_on_c, 0, 65, 0
2, 132905, Control_c, 0, 64, 67
2, 132952, Control_c, 0, 64, 67
2, 132964, Note_on_c, 0, 49, 0
2, 132980, Note_on_c, 0, 50, 61
2, 132982, Control_c, 0, 64, 66
2, 132985, Note_on_c, 0, 65, 68
2, 132997, Control_c, 0, 64, 66
2, 133005, Note_on_c, 0, 67, 0
2, 133012, Control_c, 0, 64, 65
2, 133027, Control_c, 0, 64, 65
2, 133042, Control_c, 0, 64, 64
2, 133058, Control_c, 0, 64, 63
2, 133080, Control_c, 0, 64, 63
2, 133111, Control_c, 0, 64, 62
2, 133130, Note_on_c, 0, 48, 62
2, 133132, Note_on_c, 0, 65, 0
2, 133133, Note_on_c, 0, 64, 69
2, 133142, Control_c, 0, 64, 62
2, 133156, Control_c, 0, 64, 61
2, 133156, Note_on_c, 0, 50, 0
2, 133171, Control_c, 0, 64, 61
2, 133187, Control_c, 0, 64, 60
2, 133202, Control_c, 0, 64, 60
2, 133218, Control_c, 0, 64, 59
2, 133247, Control_c, 0, 64, 59
2, 133263, Control_c, 0, 64, 58
2, 133270, Note_on_c, 0, 62, 66
2, 133273, Note_on_c, 0, 46, 59
2, 133288, Note_on_c, 0, 48, 0
2, 133293, Control_c, 0, 64, 58
2, 133304, Note_on_c, 0, 64, 0
2, 133339, Control_c, 0, 64, 57
2, 133410, Note_on_c, 0, 62, 0
2, 133414, Control_c, 0, 64, 57
2, 133416, Note_on_c, 0, 61, 68
2, 133417, Note_on_c, 0, 45, 57
2, 133430, Note_on_c, 0, 46, 0
2, 133460, Control_c, 0, 64, 56
2, 133520, Control_c, 0, 64, 56
2, 133552, Note_on_c, 0, 62, 62
2, 133554, Note_on_c, 0, 46, 64
2, 133563, Note_on_c, 0, 45, 0
2, 133566, Control_c, 0, 64, 55
2, 133566, Note_on_c, 0, 61, 0
2, 133642, Control_c, 0, 64, 55
2, 133673, Control_c, 0, 64, 54
2, 133690, Note_on_c, 0, 62, 0
2, 133690, Note_on_c, 0, 64, 64
2, 133696, Note_on_c, 0, 46, 0
2, 133702, Note_on_c, 0, 48, 58
2, 133750, Control_c, 0, 64, 54
2, 133849, Note_on_c, 0, 62, 62
2, 133864, Control_c, 0, 64, 53
2, 133865, Note_on_c, 0, 46, 58
2, 133865, Note_on_c, 0, 64, 0
2, 133869, Note_on_c, 0, 48, 0
2, 134000, Control_c, 0, 64, 53
2, 134000, Note_on_c, 0, 46, 0
2, 134005, Note_on_c, 0, 45, 58
2, 134075, Control_c, 0, 64, 52
2, 134153, Note_on_c, 0, 43, 56
2, 134167, Note_on_c, 0, 45, 0
2, 134296, Note_on_c, 0, 43, 0
2, 134300, Note_on_c, 0, 42, 59
2, 134315, Note_on_c, 0, 57, 67
2, 134318, Note_on_c, 0, 62, 0
2, 134456, Note_on_c, 0, 42, 0
2, 134459, Note_on_c, 0, 43, 53
2, 134586, Note_on_c, 0, 43, 0
2, 134610, Note_on_c, 0, 45, 57
2, 134769, Note_on_c, 0, 43, 54
2, 134779, Note_on_c, 0, 58, 63
2, 134780, Control_c, 0, 64, 53
2, 134797, Note_on_c, 0, 45, 0
2, 134803, Note_on_c, 0, 57, 0
2, 134917, Control_c, 0, 64, 53
2, 134945, Note_on_c, 0, 62, 57
2, 135024, Control_c, 0, 64, 54
2, 135078, Note_on_c, 0, 64, 55
2, 135130, Note_on_c, 0, 62, 0
2, 135220, Note_on_c, 0, 38, 56
2, 135223, Note_on_c, 0, 59, 48
2, 135224, Note_on_c, 0, 64, 0
2, 135228, Note_on_c, 0, 58, 0
2, 135239, Note_on_c, 0, 65, 59
2, 135251, Control_c, 0, 64, 54
2, 135285, Note_on_c, 0, 43, 0
2, 135378, Note_on_c, 0, 64, 56
2, 135381, Control_c, 0, 64, 55
2, 135408, Note_on_c, 0, 65, 0
2, 135469, Note_on_c, 0, 59, 0
2, 135472, Control_c, 0, 64, 55
2, 135528, Note_on_c, 0, 62, 61
2, 135531, Note_on_c, 0, 64, 0
2, 135563, Control_c, 0, 64, 56
2, 135649, Note_on_c, 0, 62, 0
2, 135666, Note_on_c, 0, 39, 65
2, 135677, Note_on_c, 0, 60, 63
2, 135713, Note_on_c, 0, 38, 0
2, 135832, Note_on_c, 0, 69, 66
2, 135915, Note_on_c, 0, 60, 0
2, 136108, Note_on_c, 0, 69, 0
2, 136113, Note_on_c, 0, 40, 69
2, 136120, Note_on_c, 0, 67, 67
2, 136123, Note_on_c, 0, 61, 56
2, 136202, Note_on_c, 0, 39, 0
2, 136209, Control_c, 0, 64, 56
2, 136266, Note_on_c, 0, 69, 75
2, 136312, Note_on_c, 0, 67, 0
2, 136331, Note_on_c, 0, 61, 0
2, 136376, Control_c, 0, 64, 57
2, 136409, Note_on_c, 0, 70, 78
2, 136425, Note_on_c, 0, 69, 0
2, 136483, Control_c, 0, 64, 57
2, 136535, Note_on_c, 0, 41, 66
2, 136535, Note_on_c, 0, 70, 0
2, 136559, Control_c, 0, 64, 57
2, 136564, Note_on_c, 0, 62, 65
2, 136574, Control_c, 0, 64, 56
2, 136580, Note_on_c, 0, 40, 0
2, 136604, Control_c, 0, 64, 56
2, 136650, Control_c, 0, 64, 55
2, 136680, Control_c, 0, 64, 55
2, 136706, Note_on_c, 0, 69, 76
2, 136740, Control_c, 0, 64, 54
2, 136840, Note_on_c, 0, 70, 69
2, 136847, Control_c, 0, 64, 54
2, 136854, Note_on_c, 0, 69, 0
2, 136916, Control_c, 0, 64, 52
2, 136931, Control_c, 0, 64, 49
2, 136946, Control_c, 0, 64, 40
2, 136961, Control_c, 0, 64, 0
2, 136983, Note_on_c, 0, 41, 0
2, 136983, Note_on_c, 0, 70, 0
2, 136997, Note_on_c, 0, 42, 56
2, 136997, Note_on_c, 0, 72, 64
2, 137070, Control_c, 0, 64, 43
2, 137085, Control_c, 0, 64, 54
2, 137100, Control_c, 0, 64, 58
2, 137115, Control_c, 0, 64, 60
2, 137130, Control_c, 0, 64, 62
2, 137145, Note_on_c, 0, 70, 60
2, 137146, Control_c, 0, 64, 64
2, 137161, Control_c, 0, 64, 66
2, 137175, Control_c, 0, 64, 68
2, 137188, Note_on_c, 0, 72, 0
2, 137191, Control_c, 0, 64, 71
2, 137206, Control_c, 0, 64, 73
2, 137224, Control_c, 0, 64, 75
2, 137239, Control_c, 0, 64, 77
2, 137253, Control_c, 0, 64, 78
2, 137269, Control_c, 0, 64, 79
2, 137273, Note_on_c, 0, 70, 0
2, 137283, Note_on_c, 0, 69, 59
2, 137284, Control_c, 0, 64, 80
2, 137315, Control_c, 0, 64, 78
2, 137329, Control_c, 0, 64, 76
2, 137345, Control_c, 0, 64, 73
2, 137360, Control_c, 0, 64, 69
2, 137376, Control_c, 0, 64, 69
2, 137403, Note_on_c, 0, 42, 0
2, 137406, Control_c, 0, 64, 69
2, 137408, Note_on_c, 0, 69, 0
2, 137427, Note_on_c, 0, 70, 57
2, 137437, Control_c, 0, 64, 69
2, 137452, Note_on_c, 0, 43, 50
2, 137467, Control_c, 0, 64, 68
2, 137497, Control_c, 0, 64, 68
2, 137512, Control_c, 0, 64, 67
2, 137527, Control_c, 0, 64, 66
2, 137558, Control_c, 0, 64, 66
2, 137572, Control_c, 0, 64, 65
2, 137587, Note_on_c, 0, 43, 0
2, 137588, Control_c, 0, 64, 65
2, 137603, Control_c, 0, 64, 64
2, 137608, Note_on_c, 0, 45, 53
2, 137619, Control_c, 0, 64, 64
2, 137687, Control_c, 0, 64, 63
2, 137732, Control_c, 0, 64, 63
2, 137737, Note_on_c, 0, 45, 0
2, 137758, Note_on_c, 0, 46, 65
2, 137779, Control_c, 0, 64, 62
2, 137824, Control_c, 0, 64, 62
2, 137871, Control_c, 0, 64, 61
2, 137889, Note_on_c, 0, 46, 0
2, 137907, Note_on_c, 0, 48, 54
2, 137916, Control_c, 0, 64, 61
2, 137916, Note_on_c, 0, 66, 61
2, 137936, Note_on_c, 0, 70, 0
2, 137992, Control_c, 0, 64, 60
2, 138044, Note_on_c, 0, 46, 55
2, 138061, Note_on_c, 0, 48, 0
2, 138134, Note_on_c, 0, 62, 0
2, 138158, Control_c, 0, 64, 60
2, 138195, Note_on_c, 0, 45, 59
2, 138205, Note_on_c, 0, 46, 0
2, 138311, Control_c, 0, 64, 59
2, 138339, Note_on_c, 0, 66, 0
2, 138345, Note_on_c, 0, 67, 68
2, 138346, Note_on_c, 0, 46, 60
2, 138363, Note_on_c, 0, 45, 0
2, 138432, Control_c, 0, 64, 59
2, 138485, Note_on_c, 0, 48, 64
2, 138501, Note_on_c, 0, 69, 72
2, 138511, Note_on_c, 0, 46, 0
2, 138528, Note_on_c, 0, 67, 0
2, 138606, Note_on_c, 0, 48, 0
2, 138623, Note_on_c, 0, 50, 68
2, 138638, Note_on_c, 0, 70, 78
2, 138668, Note_on_c, 0, 69, 0
2, 138771, Note_on_c, 0, 51, 76
2, 138781, Note_on_c, 0, 72, 78
2, 138798, Note_on_c, 0, 50, 0
2, 138800, Note_on_c, 0, 70, 0
2, 138913, Note_on_c, 0, 50, 77
2, 138913, Note_on_c, 0, 70, 78
2, 138923, Note_on_c, 0, 51, 0
2, 138931, Note_on_c, 0, 72, 0
2, 139045, Note_on_c, 0, 48, 75
2, 139054, Note_on_c, 0, 69, 78
2, 139062, Note_on_c, 0, 50, 0
2, 139072, Note_on_c, 0, 70, 0
2, 139080, Control_c, 0, 64, 58
2, 139111, Control_c, 0, 64, 58
2, 139193, Note_on_c, 0, 50, 80
2, 139193, Note_on_c, 0, 70, 79
2, 139217, Note_on_c, 0, 48, 0
2, 139227, Note_on_c, 0, 69, 0
2, 139327, Note_on_c, 0, 70, 0
2, 139335, Note_on_c, 0, 72, 82
2, 139449, Control_c, 0, 64, 57
2, 139465, Control_c, 0, 64, 57
2, 139480, Note_on_c, 0, 74, 81
2, 139495, Control_c, 0, 64, 56
2, 139506, Note_on_c, 0, 72, 0
2, 139631, Note_on_c, 0, 74, 0
2, 139633, Note_on_c, 0, 55, 75
2, 139633, Note_on_c, 0, 75, 82
2, 139666, Note_on_c, 0, 50, 0
2, 139769, Control_c, 0, 64, 56
2, 139770, Note_on_c, 0, 74, 75
2, 139795, Note_on_c, 0, 75, 0
2, 139829, Control_c, 0, 64, 55
2, 139859, Control_c, 0, 64, 55
2, 139890, Control_c, 0, 64, 54
2, 139906, Note_on_c, 0, 73, 72
2, 139917, Note_on_c, 0, 74, 0
2, 139951, Control_c, 0, 64, 54
2, 140064, Note_on_c, 0, 74, 70
2, 140065, Control_c, 0, 64, 54
2, 140077, Note_on_c, 0, 73, 0
2, 140110, Control_c, 0, 64, 55
2, 140140, Control_c, 0, 64, 55
2, 140216, Control_c, 0, 64, 56
2, 140218, Note_on_c, 0, 72, 56
2, 140309, Control_c, 0, 64, 56
2, 140336, Note_on_c, 0, 72, 0
2, 140349, Note_on_c, 0, 70, 56
2, 140458, Note_on_c, 0, 54, 53
2, 140474, Note_on_c, 0, 70, 0
2, 140485, Note_on_c, 0, 69, 61
2, 140491, Note_on_c, 0, 55, 0
2, 140610, Note_on_c, 0, 70, 55
2, 140661, Note_on_c, 0, 69, 0
2, 140672, Control_c, 0, 64, 56
2, 140755, Note_on_c, 0, 72, 60
2, 140755, Note_on_c, 0, 74, 0
2, 140758, Note_on_c, 0, 70, 0
2, 140890, Note_on_c, 0, 54, 0
2, 140896, Note_on_c, 0, 70, 63
2, 140911, Note_on_c, 0, 72, 0
2, 140922, Note_on_c, 0, 55, 47
2, 141000, Note_on_c, 0, 70, 0
2, 141030, Control_c, 0, 64, 55
2, 141042, Note_on_c, 0, 55, 0
2, 141045, Note_on_c, 0, 53, 56
2, 141167, Note_on_c, 0, 53, 0
2, 141170, Note_on_c, 0, 52, 53
2, 141229, Control_c, 0, 64, 55
2, 141290, Note_on_c, 0, 52, 0
2, 141309, Note_on_c, 0, 50, 50
2, 141323, Note_on_c, 0, 74, 66
2, 141366, Control_c, 0, 64, 54
2, 141433, Note_on_c, 0, 50, 0
2, 141443, Note_on_c, 0, 52, 52
2, 141446, Note_on_c, 0, 74, 0
2, 141571, Note_on_c, 0, 52, 0
2, 141596, Note_on_c, 0, 53, 54
2, 141745, Note_on_c, 0, 53, 0
2, 141746, Note_on_c, 0, 52, 49
2, 141749, Note_on_c, 0, 79, 64
2, 141767, Note_on_c, 0, 67, 48
2, 141880, Note_on_c, 0, 67, 0
2, 141895, Note_on_c, 0, 77, 70
2, 141951, Note_on_c, 0, 79, 0
2, 141967, Note_on_c, 0, 52, 0
2, 142029, Note_on_c, 0, 76, 66
2, 142033, Note_on_c, 0, 77, 0
2, 142159, Note_on_c, 0, 76, 0
2, 142181, Note_on_c, 0, 74, 63
2, 142186, Note_on_c, 0, 55, 52
2, 142186, Note_on_c, 0, 71, 49
2, 142323, Control_c, 0, 64, 55
2, 142330, Note_on_c, 0, 76, 64
2, 142357, Note_on_c, 0, 74, 0
2, 142363, Note_on_c, 0, 55, 0
2, 142367, Note_on_c, 0, 71, 0
2, 142463, Note_on_c, 0, 76, 0
2, 142467, Note_on_c, 0, 77, 71
2, 142611, Note_on_c, 0, 76, 69
2, 142611, Note_on_c, 0, 77, 0
2, 142623, Note_on_c, 0, 60, 47
2, 142632, Note_on_c, 0, 72, 53
2, 142736, Note_on_c, 0, 72, 0
2, 142752, Note_on_c, 0, 58, 61
2, 142762, Note_on_c, 0, 76, 0
2, 142793, Note_on_c, 0, 60, 0
2, 142885, Note_on_c, 0, 57, 61
2, 142892, Note_on_c, 0, 58, 0
2, 143033, Note_on_c, 0, 57, 0
2, 143039, Note_on_c, 0, 55, 58
2, 143039, Note_on_c, 0, 79, 79
2, 143061, Control_c, 0, 64, 55
2, 143189, Note_on_c, 0, 57, 60
2, 143190, Note_on_c, 0, 55, 0
2, 143192, Note_on_c, 0, 79, 0
2, 143319, Note_on_c, 0, 57, 0
2, 143325, Note_on_c, 0, 58, 70
2, 143480, Note_on_c, 0, 57, 62
2, 143483, Note_on_c, 0, 72, 75
2, 143528, Note_on_c, 0, 58, 0
2, 143628, Note_on_c, 0, 70, 74
2, 143638, Note_on_c, 0, 72, 0
2, 143700, Control_c, 0, 64, 55
2, 143736, Note_on_c, 0, 57, 0
2, 143754, Note_on_c, 0, 69, 78
2, 143785, Note_on_c, 0, 70, 0
2, 143806, Control_c, 0, 64, 54
2, 143901, Note_on_c, 0, 69, 0
2, 143907, Note_on_c, 0, 67, 76
2, 143911, Note_on_c, 0, 60, 74
2, 143934, Control_c, 0, 64, 54
2, 144027, Control_c, 0, 64, 53
2, 144032, Note_on_c, 0, 69, 81
2, 144068, Note_on_c, 0, 67, 0
2, 144080, Note_on_c, 0, 60, 0
2, 144164, Note_on_c, 0, 70, 82
2, 144193, Note_on_c, 0, 69, 0
2, 144315, Note_on_c, 0, 69, 82
2, 144323, Note_on_c, 0, 53, 66
2, 144351, Note_on_c, 0, 70, 0
2, 144443, Note_on_c, 0, 51, 74
2, 144444, Note_on_c, 0, 69, 0
2, 144452, Control_c, 0, 64, 54
2, 144504, Note_on_c, 0, 53, 0
2, 144559, Control_c, 0, 64, 54
2, 144598, Note_on_c, 0, 50, 72
2, 144613, Note_on_c, 0, 51, 0
2, 144737, Note_on_c, 0, 48, 70
2, 144738, Note_on_c, 0, 72, 87
2, 144746, Note_on_c, 0, 50, 0
2, 144873, Note_on_c, 0, 50, 73
2, 144877, Note_on_c, 0, 72, 0
2, 144888, Note_on_c, 0, 48, 0
2, 145013, Note_on_c, 0, 51, 83
2, 145019, Note_on_c, 0, 50, 0
2, 145052, Control_c, 0, 64, 55
2, 145152, Note_on_c, 0, 50, 79
2, 145154, Note_on_c, 0, 77, 93
2, 145157, Note_on_c, 0, 65, 77
2, 145185, Note_on_c, 0, 51, 0
2, 145236, Control_c, 0, 64, 54
2, 145292, Note_on_c, 0, 65, 0
2, 145295, Note_on_c, 0, 75, 88
2, 145341, Control_c, 0, 64, 54
2, 145362, Note_on_c, 0, 77, 0
2, 145393, Note_on_c, 0, 50, 0
2, 145439, Note_on_c, 0, 74, 84
2, 145470, Note_on_c, 0, 75, 0
2, 145517, Control_c, 0, 64, 53
2, 145575, Note_on_c, 0, 53, 77
2, 145579, Note_on_c, 0, 69, 73
2, 145584, Note_on_c, 0, 72, 85
2, 145601, Note_on_c, 0, 74, 0
2, 145653, Control_c, 0, 64, 54
2, 145668, Control_c, 0, 64, 54
2, 145683, Control_c, 0, 64, 55
2, 145698, Control_c, 0, 64, 55
2, 145722, Note_on_c, 0, 74, 83
2, 145729, Control_c, 0, 64, 56
2, 145766, Note_on_c, 0, 72, 0
2, 145773, Note_on_c, 0, 69, 0
2, 145781, Note_on_c, 0, 53, 0
2, 145863, Note_on_c, 0, 75, 90
2, 145894, Note_on_c, 0, 74, 0
2, 146034, Note_on_c, 0, 74, 84
2, 146035, Note_on_c, 0, 58, 72
2, 146039, Note_on_c, 0, 70, 78
2, 146066, Note_on_c, 0, 75, 0
2, 146208, Note_on_c, 0, 57, 75
2, 146216, Note_on_c, 0, 58, 0
2, 146253, Control_c, 0, 64, 55
2, 146337, Note_on_c, 0, 55, 73
2, 146365, Note_on_c, 0, 57, 0
2, 146457, Note_on_c, 0, 70, 0
2, 146474, Note_on_c, 0, 69, 85
2, 146479, Note_on_c, 0, 54, 75
2, 146496, Note_on_c, 0, 55, 0
2, 146545, Control_c, 0, 64, 55
2, 146616, Note_on_c, 0, 55, 75
2, 146630, Note_on_c, 0, 54, 0
2, 146742, Control_c, 0, 64, 54
2, 146763, Note_on_c, 0, 57, 76
2, 146764, Note_on_c, 0, 55, 0
2, 146818, Control_c, 0, 64, 54
2, 146944, Note_on_c, 0, 73, 87
2, 146949, Note_on_c, 0, 55, 72
2, 146954, Note_on_c, 0, 57, 0
2, 146960, Note_on_c, 0, 74, 0
2, 147146, Note_on_c, 0, 53, 68
2, 147146, Note_on_c, 0, 55, 0
2, 147147, Note_on_c, 0, 74, 83
2, 147187, Note_on_c, 0, 73, 0
2, 147312, Note_on_c, 0, 52, 64
2, 147315, Note_on_c, 0, 76, 87
2, 147326, Note_on_c, 0, 53, 0
2, 147360, Note_on_c, 0, 74, 0
2, 147459, Note_on_c, 0, 50, 69
2, 147460, Note_on_c, 0, 52, 0
2, 147461, Note_on_c, 0, 77, 90
2, 147470, Note_on_c, 0, 76, 0
2, 147584, Note_on_c, 0, 52, 67
2, 147599, Note_on_c, 0, 76, 86
2, 147605, Note_on_c, 0, 50, 0
2, 147627, Note_on_c, 0, 77, 0
2, 147715, Note_on_c, 0, 52, 0
2, 147723, Note_on_c, 0, 53, 69
2, 147743, Note_on_c, 0, 74, 90
2, 147768, Note_on_c, 0, 76, 0
2, 147823, Control_c, 0, 64, 54
2, 147863, Note_on_c, 0, 52, 71
2, 147867, Note_on_c, 0, 76, 91
2, 147868, Control_c, 0, 64, 55
2, 147869, Note_on_c, 0, 53, 0
2, 147914, Control_c, 0, 64, 55
2, 147961, Note_on_c, 0, 74, 0
2, 147974, Control_c, 0, 64, 56
2, 147980, Note_on_c, 0, 52, 0
2, 147989, Note_on_c, 0, 77, 95
2, 147994, Note_on_c, 0, 50, 81
2, 148024, Note_on_c, 0, 76, 0
2, 148049, Control_c, 0, 64, 56
2, 148108, Note_on_c, 0, 77, 0
2, 148123, Note_on_c, 0, 79, 90
2, 148125, Control_c, 0, 64, 57
2, 148128, Note_on_c, 0, 49, 74
2, 148170, Note_on_c, 0, 50, 0
2, 148272, Note_on_c, 0, 47, 77
2, 148277, Note_on_c, 0, 81, 92
2, 148287, Note_on_c, 0, 49, 0
2, 148305, Note_on_c, 0, 79, 0
2, 148339, Control_c, 0, 64, 57
2, 148418, Note_on_c, 0, 49, 77
2, 148419, Note_on_c, 0, 79, 91
2, 148443, Note_on_c, 0, 47, 0
2, 148475, Note_on_c, 0, 81, 0
2, 148581, Note_on_c, 0, 49, 0
2, 148581, Note_on_c, 0, 77, 100
2, 148582, Note_on_c, 0, 50, 77
2, 148607, Note_on_c, 0, 79, 0
2, 148758, Control_c, 0, 64, 57
2, 148778, Note_on_c, 0, 49, 74
2, 148783, Note_on_c, 0, 77, 0
2, 148786, Note_on_c, 0, 79, 93
2, 148818, Note_on_c, 0, 50, 0
2, 148833, Note_on_c, 0, 69, 0
2, 149014, Note_on_c, 0, 45, 75
2, 149036, Note_on_c, 0, 69, 88
2, 149052, Note_on_c, 0, 49, 0
2, 149092, Control_c, 0, 64, 57
2, 149122, Control_c, 0, 64, 58
2, 149153, Control_c, 0, 64, 59
2, 149168, Control_c, 0, 64, 59
2, 149183, Control_c, 0, 64, 60
2, 149206, Control_c, 0, 64, 60
2, 149222, Control_c, 0, 64, 61
2, 149282, Control_c, 0, 64, 58
2, 149283, Note_on_c, 0, 79, 0
2, 149289, Note_on_c, 0, 50, 65
2, 149293, Note_on_c, 0, 45, 0
2, 149293, Note_on_c, 0, 70, 77
2, 149293, Note_on_c, 0, 77, 90
2, 149298, Control_c, 0, 64, 52
2, 149314, Control_c, 0, 64, 47
2, 149326, Note_on_c, 0, 69, 0
2, 149328, Control_c, 0, 64, 47
2, 149344, Control_c, 0, 64, 50
2, 149359, Control_c, 0, 64, 56
2, 149374, Control_c, 0, 64, 61
2, 149390, Control_c, 0, 64, 63
2, 149405, Control_c, 0, 64, 65
2, 149420, Control_c, 0, 64, 67
2, 149435, Control_c, 0, 64, 71
2, 149450, Control_c, 0, 64, 74
2, 149466, Control_c, 0, 64, 77
2, 149480, Control_c, 0, 64, 79
2, 149496, Control_c, 0, 64, 81
2, 149511, Control_c, 0, 64, 82
2, 149516, Note_on_c, 0, 69, 80
2, 149526, Control_c, 0, 64, 82
2, 149557, Note_on_c, 0, 70, 0
2, 149625, Note_on_c, 0, 69, 0
2, 149663, Control_c, 0, 64, 82
2, 149678, Control_c, 0, 64, 81
2, 149693, Control_c, 0, 64, 80
2, 149709, Control_c, 0, 64, 78
2, 149719, Note_on_c, 0, 76, 84
2, 149724, Control_c, 0, 64, 73
2, 149724, Note_on_c, 0, 67, 76
2, 149739, Control_c, 0, 64, 68
2, 149746, Note_on_c, 0, 77, 0
2, 149754, Control_c, 0, 64, 62
2, 149769, Control_c, 0, 64, 56
2, 149785, Control_c, 0, 64, 56
2, 149800, Control_c, 0, 64, 58
2, 149814, Control_c, 0, 64, 59
2, 149830, Control_c, 0, 64, 60
2, 149845, Control_c, 0, 64, 61
2, 149860, Control_c, 0, 64, 61
2, 149875, Control_c, 0, 64, 62
2, 149906, Control_c, 0, 64, 62
2, 149912, Note_on_c, 0, 70, 70
2, 149932, Note_on_c, 0, 67, 0
2, 149937, Control_c, 0, 64, 63
2, 150066, Control_c, 0, 64, 62
2, 150080, Control_c, 0, 64, 62
2, 150096, Control_c, 0, 64, 61
2, 150107, Note_on_c, 0, 70, 0
2, 150110, Note_on_c, 0, 49, 58
2, 150111, Control_c, 0, 64, 56
2, 150120, Note_on_c, 0, 69, 74
2, 150127, Control_c, 0, 64, 51
2, 150143, Control_c, 0, 64, 50
2, 150147, Note_on_c, 0, 50, 0
2, 150173, Control_c, 0, 64, 52
2, 150188, Control_c, 0, 64, 53
2, 150203, Control_c, 0, 64, 55
2, 150219, Control_c, 0, 64, 55
2, 150310, Control_c, 0, 64, 55
2, 150320, Note_on_c, 0, 69, 0
2, 150322, Note_on_c, 0, 67, 70
2, 150324, Control_c, 0, 64, 54
2, 150370, Control_c, 0, 64, 54
2, 150416, Control_c, 0, 64, 53
2, 150431, Control_c, 0, 64, 50
2, 150446, Control_c, 0, 64, 42
2, 150461, Control_c, 0, 64, 0
2, 150508, Note_on_c, 0, 49, 0
2, 150508, Note_on_c, 0, 50, 48
2, 150530, Note_on_c, 0, 65, 65
2, 150537, Note_on_c, 0, 67, 0
2, 150568, Control_c, 0, 64, 25
2, 150583, Control_c, 0, 64, 51
2, 150598, Control_c, 0, 64, 59
2, 150613, Control_c, 0, 64, 62
2, 150629, Control_c, 0, 64, 65
2, 150644, Control_c, 0, 64, 69
2, 150659, Control_c, 0, 64, 75
2, 150674, Control_c, 0, 64, 88
2, 150683, Note_on_c, 0, 76, 0
2, 150689, Control_c, 0, 64, 106
2, 150690, Note_on_c, 0, 50, 0
2, 150704, Control_c, 0, 64, 127
2, 150718, Note_on_c, 0, 74, 70
2, 150806, Note_on_c, 0, 65, 0
2, 150932, Note_on_c, 0, 75, 76
2, 150937, Note_on_c, 0, 74, 0
2, 150939, Control_c, 0, 64, 108
2, 150950, Note_on_c, 0, 58, 59
2, 150953, Note_on_c, 0, 55, 53
2, 150956, Control_c, 0, 64, 96
2, 150970, Control_c, 0, 64, 86
2, 150986, Control_c, 0, 64, 80
2, 151001, Control_c, 0, 64, 77
2, 151017, Control_c, 0, 64, 75
2, 151031, Control_c, 0, 64, 73
2, 151046, Control_c, 0, 64, 71
2, 151062, Control_c, 0, 64, 68
2, 151077, Control_c, 0, 64, 66
2, 151092, Control_c, 0, 64, 64
2, 151107, Control_c, 0, 64, 63
2, 151118, Note_on_c, 0, 74, 77
2, 151122, Control_c, 0, 64, 63
2, 151153, Control_c, 0, 64, 62
2, 151168, Control_c, 0, 64, 62
2, 151168, Note_on_c, 0, 75, 0
2, 151183, Control_c, 0, 64, 61
2, 151213, Control_c, 0, 64, 61
2, 151305, Control_c, 0, 64, 60
2, 151307, Note_on_c, 0, 58, 0
2, 151329, Note_on_c, 0, 73, 76
2, 151341, Note_on_c, 0, 74, 0
2, 151344, Note_on_c, 0, 57, 61
2, 151396, Control_c, 0, 64, 60
2, 151427, Control_c, 0, 64, 60
2, 151525, Control_c, 0, 64, 60
2, 151545, Note_on_c, 0, 76, 74
2, 151552, Note_on_c, 0, 73, 0
2, 151586, Control_c, 0, 64, 59
2, 151662, Control_c, 0, 64, 59
2, 151677, Control_c, 0, 64, 58
2, 151692, Control_c, 0, 64, 57
2, 151707, Control_c, 0, 64, 55
2, 151722, Control_c, 0, 64, 50
2, 151738, Control_c, 0, 64, 39
2, 151750, Note_on_c, 0, 54, 55
2, 151753, Control_c, 0, 64, 25
2, 151763, Note_on_c, 0, 74, 72
2, 151769, Control_c, 0, 64, 17
2, 151785, Control_c, 0, 64, 17
2, 151802, Note_on_c, 0, 55, 0
2, 151802, Note_on_c, 0, 76, 0
2, 151814, Control_c, 0, 64, 19
2, 151830, Control_c, 0, 64, 34
2, 151845, Control_c, 0, 64, 47
2, 151861, Control_c, 0, 64, 54
2, 151875, Control_c, 0, 64, 58
2, 151890, Control_c, 0, 64, 60
2, 151906, Control_c, 0, 64, 62
2, 151921, Control_c, 0, 64, 63
2, 151937, Control_c, 0, 64, 65
2, 151951, Control_c, 0, 64, 68
2, 151966, Control_c, 0, 64, 71
2, 151979, Note_on_c, 0, 72, 77
2, 151982, Control_c, 0, 64, 74
2, 151998, Control_c, 0, 64, 78
2, 152014, Control_c, 0, 64, 81
2, 152024, Note_on_c, 0, 74, 0
2, 152029, Control_c, 0, 64, 82
2, 152036, Note_on_c, 0, 57, 0
2, 152151, Control_c, 0, 64, 81
2, 152166, Control_c, 0, 64, 80
2, 152182, Control_c, 0, 64, 78
2, 152197, Control_c, 0, 64, 75
2, 152212, Control_c, 0, 64, 72
2, 152219, Note_on_c, 0, 55, 67
2, 152219, Note_on_c, 0, 71, 73
2, 152227, Control_c, 0, 64, 70
2, 152237, Note_on_c, 0, 54, 0
2, 152242, Control_c, 0, 64, 69
2, 152242, Note_on_c, 0, 72, 0
2, 152258, Control_c, 0, 64, 67
2, 152279, Control_c, 0, 64, 66
2, 152295, Control_c, 0, 64, 65
2, 152310, Control_c, 0, 64, 64
2, 152325, Control_c, 0, 64, 63
2, 152341, Control_c, 0, 64, 62
2, 152356, Control_c, 0, 64, 62
2, 152417, Control_c, 0, 64, 61
2, 152447, Control_c, 0, 64, 61
2, 152463, Control_c, 0, 64, 60
2, 152494, Control_c, 0, 64, 60
2, 152494, Note_on_c, 0, 53, 73
2, 152509, Control_c, 0, 64, 59
2, 152539, Control_c, 0, 64, 59
2, 152543, Note_on_c, 0, 55, 0
2, 152585, Control_c, 0, 64, 58
2, 152700, Note_on_c, 0, 70, 72
2, 152705, Note_on_c, 0, 67, 60
2, 152708, Note_on_c, 0, 52, 65
2, 152718, Note_on_c, 0, 71, 0
2, 152738, Control_c, 0, 64, 58
2, 152751, Note_on_c, 0, 53, 0
2, 152916, Note_on_c, 0, 50, 70
2, 152927, Note_on_c, 0, 52, 0
2, 152981, Control_c, 0, 64, 57
2, 153132, Note_on_c, 0, 69, 68
2, 153139, Note_on_c, 0, 49, 59
2, 153170, Note_on_c, 0, 50, 0
2, 153175, Note_on_c, 0, 70, 0
2, 153231, Control_c, 0, 64, 57
2, 153337, Note_on_c, 0, 52, 57
2, 153346, Note_on_c, 0, 49, 0
2, 153364, Note_on_c, 0, 67, 0
2, 153548, Note_on_c, 0, 50, 57
2, 153549, Note_on_c, 0, 65, 67
2, 153585, Note_on_c, 0, 52, 0
2, 153751, Note_on_c, 0, 48, 59
2, 153753, Note_on_c, 0, 64, 65
2, 153760, Note_on_c, 0, 65, 0
2, 153790, Note_on_c, 0, 50, 0
2, 153863, Control_c, 0, 64, 56
2, 153878, Control_c, 0, 64, 54
2, 153893, Control_c, 0, 64, 52
2, 153908, Control_c, 0, 64, 51
2, 153923, Control_c, 0, 64, 50
2, 153969, Control_c, 0, 64, 51
2, 153973, Note_on_c, 0, 62, 64
2, 153976, Note_on_c, 0, 64, 0
2, 153980, Note_on_c, 0, 47, 60
2, 153984, Control_c, 0, 64, 51
2, 153985, Note_on_c, 0, 48, 0
2, 154029, Control_c, 0, 64, 52
2, 154091, Control_c, 0, 64, 52
2, 154189, Note_on_c, 0, 65, 61
2, 154196, Control_c, 0, 64, 53
2, 154204, Note_on_c, 0, 62, 0
2, 154228, Control_c, 0, 64, 53
2, 154395, Control_c, 0, 64, 54
2, 154401, Note_on_c, 0, 67, 61
2, 154404, Note_on_c, 0, 47, 0
2, 154411, Note_on_c, 0, 65, 0
2, 154412, Note_on_c, 0, 64, 44
2, 154414, Note_on_c, 0, 46, 49
2, 154418, Note_on_c, 0, 69, 0
2, 154646, Note_on_c, 0, 62, 56
2, 154649, Note_on_c, 0, 64, 0
2, 154859, Note_on_c, 0, 62, 0
2, 154860, Note_on_c, 0, 45, 44
2, 154869, Note_on_c, 0, 61, 48
2, 154878, Note_on_c, 0, 46, 0
2, 155105, Note_on_c, 0, 45, 0
2, 155107, Note_on_c, 0, 57, 60
2, 155333, Note_on_c, 0, 58, 61
2, 155340, Note_on_c, 0, 65, 57
2, 155352, Note_on_c, 0, 62, 39
2, 155355, Note_on_c, 0, 57, 0
2, 155361, Note_on_c, 0, 61, 0
2, 155383, Control_c, 0, 64, 54
2, 155463, Note_on_c, 0, 67, 0
2, 155569, Note_on_c, 0, 57, 58
2, 155573, Note_on_c, 0, 58, 0
2, 155790, Note_on_c, 0, 55, 52
2, 155799, Note_on_c, 0, 64, 53
2, 155814, Note_on_c, 0, 57, 0
2, 155829, Note_on_c, 0, 65, 0
2, 155945, Control_c, 0, 64, 54
2, 156038, Note_on_c, 0, 58, 57
2, 156052, Note_on_c, 0, 55, 0
2, 156226, Control_c, 0, 64, 53
2, 156267, Note_on_c, 0, 58, 0
2, 156272, Control_c, 0, 64, 53
2, 156284, Note_on_c, 0, 57, 48
2, 156284, Note_on_c, 0, 62, 0
2, 156287, Control_c, 0, 64, 52
2, 156292, Note_on_c, 0, 61, 48
2, 156318, Control_c, 0, 64, 51
2, 156334, Control_c, 0, 64, 51
2, 156348, Control_c, 0, 64, 50
2, 156363, Control_c, 0, 64, 48
2, 156379, Control_c, 0, 64, 46
2, 156394, Control_c, 0, 64, 45
2, 156455, Control_c, 0, 64, 47
2, 156470, Control_c, 0, 64, 49
2, 156485, Control_c, 0, 64, 51
2, 156500, Control_c, 0, 64, 54
2, 156514, Note_on_c, 0, 64, 0
2, 156515, Control_c, 0, 64, 56
2, 156531, Control_c, 0, 64, 58
2, 156545, Control_c, 0, 64, 60
2, 156558, Note_on_c, 0, 55, 48
2, 156560, Control_c, 0, 64, 61
2, 156572, Note_on_c, 0, 57, 0
2, 156576, Control_c, 0, 64, 62
2, 156591, Control_c, 0, 64, 63
2, 156606, Control_c, 0, 64, 65
2, 156622, Control_c, 0, 64, 66
2, 156636, Control_c, 0, 64, 68
2, 156652, Control_c, 0, 64, 69
2, 156667, Control_c, 0, 64, 71
2, 156683, Control_c, 0, 64, 72
2, 156699, Control_c, 0, 64, 73
2, 156714, Control_c, 0, 64, 73
2, 156728, Control_c, 0, 64, 74
2, 156789, Control_c, 0, 64, 73
2, 156820, Control_c, 0, 64, 73
2, 156835, Control_c, 0, 64, 72
2, 156841, Note_on_c, 0, 55, 0
2, 156844, Note_on_c, 0, 53, 48
2, 156851, Control_c, 0, 64, 72
2, 156855, Note_on_c, 0, 62, 61
2, 156865, Control_c, 0, 64, 71
2, 156885, Note_on_c, 0, 61, 0
2, 156888, Control_c, 0, 64, 70
2, 156904, Control_c, 0, 64, 69
2, 156919, Control_c, 0, 64, 68
2, 156935, Control_c, 0, 64, 67
2, 156949, Control_c, 0, 64, 65
2, 156964, Control_c, 0, 64, 64
2, 156979, Control_c, 0, 64, 63
2, 156994, Control_c, 0, 64, 63
2, 157024, Control_c, 0, 64, 62
2, 157039, Control_c, 0, 64, 61
2, 157055, Control_c, 0, 64, 61
2, 157070, Control_c, 0, 64, 60
2, 157085, Control_c, 0, 64, 60
2, 157101, Control_c, 0, 64, 59
2, 157116, Control_c, 0, 64, 59
2, 157132, Control_c, 0, 64, 58
2, 157146, Control_c, 0, 64, 58
2, 157152, Note_on_c, 0, 60, 56
2, 157153, Note_on_c, 0, 53, 0
2, 157159, Note_on_c, 0, 57, 43
2, 157177, Control_c, 0, 64, 57
2, 157191, Control_c, 0, 64, 57
2, 157222, Control_c, 0, 64, 56
2, 157267, Control_c, 0, 64, 56
2, 157367, Note_on_c, 0, 57, 0
2, 157391, Note_on_c, 0, 55, 43
2, 157395, Note_on_c, 0, 58, 53
2, 157408, Note_on_c, 0, 60, 0
2, 157434, Control_c, 0, 64, 55
2, 157511, Control_c, 0, 64, 55
2, 157584, Note_on_c, 0, 55, 0
2, 157598, Note_on_c, 0, 58, 0
2, 157604, Note_on_c, 0, 53, 43
2, 157607, Note_on_c, 0, 57, 53
2, 157686, Control_c, 0, 64, 54
2, 157837, Control_c, 0, 64, 54
2, 157837, Note_on_c, 0, 52, 43
2, 157846, Note_on_c, 0, 55, 44
2, 157863, Note_on_c, 0, 53, 0
2, 157874, Note_on_c, 0, 57, 0
2, 157904, Note_on_c, 0, 62, 0
2, 157959, Control_c, 0, 64, 53
2, 158052, Note_on_c, 0, 50, 48
2, 158058, Note_on_c, 0, 52, 0
2, 158064, Note_on_c, 0, 58, 55
2, 158065, Note_on_c, 0, 55, 0
2, 158260, Note_on_c, 0, 50, 0
2, 158265, Note_on_c, 0, 49, 46
2, 158269, Note_on_c, 0, 57, 54
2, 158316, Note_on_c, 0, 58, 0
2, 158355, Control_c, 0, 64, 53
2, 158461, Note_on_c, 0, 49, 0
2, 158473, Note_on_c, 0, 57, 0
2, 158476, Note_on_c, 0, 55, 48
2, 158488, Note_on_c, 0, 52, 42
2, 158700, Note_on_c, 0, 50, 47
2, 158701, Note_on_c, 0, 55, 0
2, 158709, Note_on_c, 0, 52, 0
2, 158711, Note_on_c, 0, 53, 50
2, 158904, Note_on_c, 0, 53, 0
2, 158908, Note_on_c, 0, 57, 53
2, 158909, Note_on_c, 0, 48, 53
2, 158921, Note_on_c, 0, 50, 0
2, 159121, Note_on_c, 0, 55, 56
2, 159122, Note_on_c, 0, 46, 53
2, 159142, Note_on_c, 0, 57, 0
2, 159143, Note_on_c, 0, 48, 0
2, 159327, Note_on_c, 0, 46, 0
2, 159331, Note_on_c, 0, 45, 46
2, 159331, Note_on_c, 0, 55, 0
2, 159342, Note_on_c, 0, 53, 59
2, 159545, Note_on_c, 0, 43, 46
2, 159545, Note_on_c, 0, 45, 0
2, 159548, Note_on_c, 0, 52, 53
2, 159566, Note_on_c, 0, 53, 0
2, 159764, Note_on_c, 0, 52, 0
2, 159766, Note_on_c, 0, 50, 51
2, 159767, Note_on_c, 0, 43, 0
2, 159777, Note_on_c, 0, 46, 47
2, 160012, Note_on_c, 0, 49, 51
2, 160019, Note_on_c, 0, 50, 0
2, 160028, Note_on_c, 0, 45, 39
2, 160062, Note_on_c, 0, 46, 0
2, 160254, Note_on_c, 0, 52, 48
2, 160264, Note_on_c, 0, 43, 44
2, 160269, Note_on_c, 0, 49, 0
2, 160306, Note_on_c, 0, 45, 0
2, 160534, Note_on_c, 0, 52, 0
2, 160547, Note_on_c, 0, 41, 45
2, 160551, Note_on_c, 0, 50, 50
2, 160622, Note_on_c, 0, 43, 0
2, 160746, Note_on_c, 0, 52, 52
2, 160766, Note_on_c, 0, 50, 0
2, 160879, Note_on_c, 0, 52, 0
2, 160896, Note_on_c, 0, 53, 50
2, 160936, Control_c, 0, 64, 52
2, 160952, Control_c, 0, 64, 52
2, 160982, Control_c, 0, 64, 51
2, 160998, Control_c, 0, 64, 49
2, 161012, Control_c, 0, 64, 44
2, 161012, Note_on_c, 0, 53, 0
2, 161028, Control_c, 0, 64, 31
2, 161031, Note_on_c, 0, 41, 0
2, 161043, Control_c, 0, 64, 0
2, 161046, Note_on_c, 0, 46, 50
2, 161048, Note_on_c, 0, 55, 55
2, 161165, Control_c, 0, 64, 34
2, 161180, Control_c, 0, 64, 49
2, 161196, Control_c, 0, 64, 54
2, 161198, Note_on_c, 0, 55, 0
2, 161200, Note_on_c, 0, 53, 55
2, 161210, Control_c, 0, 64, 56
2, 161226, Control_c, 0, 64, 59
2, 161241, Control_c, 0, 64, 61
2, 161255, Control_c, 0, 64, 63
2, 161271, Control_c, 0, 64, 65
2, 161286, Control_c, 0, 64, 69
2, 161301, Control_c, 0, 64, 73
2, 161317, Control_c, 0, 64, 77
2, 161331, Control_c, 0, 64, 82
2, 161339, Note_on_c, 0, 53, 0
2, 161344, Note_on_c, 0, 52, 59
2, 161347, Control_c, 0, 64, 85
2, 161362, Control_c, 0, 64, 87
2, 161377, Control_c, 0, 64, 90
2, 161393, Control_c, 0, 64, 90
2, 161407, Control_c, 0, 64, 91
2, 161408, Note_on_c, 0, 46, 0
2, 161468, Note_on_c, 0, 52, 0
2, 161469, Control_c, 0, 64, 90
2, 161491, Control_c, 0, 64, 90
2, 161495, Note_on_c, 0, 53, 58
2, 161507, Control_c, 0, 64, 89
2, 161510, Note_on_c, 0, 45, 51
2, 161522, Control_c, 0, 64, 87
2, 161537, Control_c, 0, 64, 85
2, 161552, Control_c, 0, 64, 82
2, 161567, Control_c, 0, 64, 79
2, 161581, Control_c, 0, 64, 76
2, 161598, Control_c, 0, 64, 74
2, 161613, Control_c, 0, 64, 70
2, 161629, Control_c, 0, 64, 67
2, 161643, Control_c, 0, 64, 64
2, 161649, Note_on_c, 0, 55, 58
2, 161658, Control_c, 0, 64, 61
2, 161666, Note_on_c, 0, 53, 0
2, 161670, Note_on_c, 0, 43, 48
2, 161674, Control_c, 0, 64, 59
2, 161679, Note_on_c, 0, 45, 0
2, 161689, Control_c, 0, 64, 59
2, 161704, Control_c, 0, 64, 58
2, 161719, Control_c, 0, 64, 56
2, 161734, Control_c, 0, 64, 55
2, 161750, Control_c, 0, 64, 55
2, 161765, Control_c, 0, 64, 54
2, 161796, Control_c, 0, 64, 53
2, 161800, Note_on_c, 0, 57, 60
2, 161801, Note_on_c, 0, 41, 60
2, 161801, Note_on_c, 0, 55, 0
2, 161807, Note_on_c, 0, 43, 0
2, 161810, Control_c, 0, 64, 52
2, 161841, Control_c, 0, 64, 52
2, 161932, Control_c, 0, 64, 51
2, 161954, Note_on_c, 0, 41, 0
2, 161954, Note_on_c, 0, 57, 0
2, 161961, Note_on_c, 0, 58, 64
2, 161962, Note_on_c, 0, 40, 53
2, 161963, Control_c, 0, 64, 51
2, 161977, Control_c, 0, 64, 49
2, 161993, Control_c, 0, 64, 45
2, 162008, Control_c, 0, 64, 38
2, 162024, Control_c, 0, 64, 28
2, 162039, Control_c, 0, 64, 19
2, 162053, Control_c, 0, 64, 18
2, 162084, Control_c, 0, 64, 20
2, 162091, Note_on_c, 0, 40, 0
2, 162093, Note_on_c, 0, 41, 55
2, 162097, Note_on_c, 0, 57, 64
2, 162098, Control_c, 0, 64, 28
2, 162112, Note_on_c, 0, 58, 0
2, 162114, Control_c, 0, 64, 38
2, 162129, Control_c, 0, 64, 47
2, 162145, Control_c, 0, 64, 52
2, 162160, Control_c, 0, 64, 54
2, 162174, Control_c, 0, 64, 56
2, 162190, Control_c, 0, 64, 58
2, 162205, Control_c, 0, 64, 59
2, 162220, Control_c, 0, 64, 60
2, 162236, Control_c, 0, 64, 61
2, 162239, Note_on_c, 0, 57, 0
2, 162245, Note_on_c, 0, 55, 70
2, 162257, Note_on_c, 0, 43, 62
2, 162258, Control_c, 0, 64, 62
2, 162260, Note_on_c, 0, 41, 0
2, 162274, Control_c, 0, 64, 63
2, 162289, Control_c, 0, 64, 63
2, 162305, Control_c, 0, 64, 64
2, 162310, Note_on_c, 0, 55, 0
2, 162386, Note_on_c, 0, 43, 0
2, 162399, Note_on_c, 0, 41, 56
2, 162418, Note_on_c, 0, 62, 74
2, 162422, Note_on_c, 0, 57, 54
2, 162427, Control_c, 0, 64, 63
2, 162457, Control_c, 0, 64, 63
2, 162473, Control_c, 0, 64, 62
2, 162502, Control_c, 0, 64, 62
2, 162552, Note_on_c, 0, 64, 68
2, 162563, Control_c, 0, 64, 61
2, 162568, Note_on_c, 0, 40, 59
2, 162591, Note_on_c, 0, 62, 0
2, 162598, Note_on_c, 0, 41, 0
2, 162707, Note_on_c, 0, 65, 75
2, 162717, Note_on_c, 0, 40, 0
2, 162719, Note_on_c, 0, 38, 61
2, 162741, Note_on_c, 0, 64, 0
2, 162807, Control_c, 0, 64, 61
2, 162859, Note_on_c, 0, 67, 77
2, 162868, Control_c, 0, 64, 60
2, 162870, Note_on_c, 0, 65, 0
2, 162872, Note_on_c, 0, 37, 62
2, 162878, Note_on_c, 0, 38, 0
2, 162913, Control_c, 0, 64, 60
2, 162928, Control_c, 0, 64, 59
2, 162933, Note_on_c, 0, 57, 0
2, 162942, Control_c, 0, 64, 59
2, 162973, Control_c, 0, 64, 58
2, 162989, Control_c, 0, 64, 58
2, 163004, Control_c, 0, 64, 57
2, 163005, Note_on_c, 0, 65, 74
2, 163009, Note_on_c, 0, 38, 62
2, 163027, Control_c, 0, 64, 57
2, 163028, Note_on_c, 0, 37, 0
2, 163037, Note_on_c, 0, 67, 0
2, 163042, Control_c, 0, 64, 56
2, 163057, Control_c, 0, 64, 56
2, 163088, Control_c, 0, 64, 55
2, 163102, Control_c, 0, 64, 53
2, 163118, Control_c, 0, 64, 50
2, 163133, Control_c, 0, 64, 43
2, 163148, Control_c, 0, 64, 17
2, 163152, Note_on_c, 0, 38, 0
2, 163155, Note_on_c, 0, 64, 79
2, 163163, Control_c, 0, 64, 0
2, 163166, Note_on_c, 0, 65, 0
2, 163174, Note_on_c, 0, 40, 56
2, 163286, Control_c, 0, 64, 39
2, 163301, Control_c, 0, 64, 53
2, 163304, Note_on_c, 0, 65, 78
2, 163308, Note_on_c, 0, 38, 70
2, 163317, Control_c, 0, 64, 60
2, 163319, Note_on_c, 0, 40, 0
2, 163324, Note_on_c, 0, 64, 0
2, 163331, Control_c, 0, 64, 64
2, 163347, Control_c, 0, 64, 68
2, 163362, Control_c, 0, 64, 75
2, 163372, Note_on_c, 0, 38, 0
2, 163377, Control_c, 0, 64, 87
2, 163392, Control_c, 0, 64, 102
2, 163401, Note_on_c, 0, 65, 0
2, 163407, Control_c, 0, 64, 127
2, 163460, Note_on_c, 0, 67, 78
2, 163466, Note_on_c, 0, 55, 74
2, 163562, Control_c, 0, 64, 113
2, 163577, Control_c, 0, 64, 102
2, 163592, Control_c, 0, 64, 94
2, 163607, Control_c, 0, 64, 89
2, 163609, Note_on_c, 0, 53, 74
2, 163613, Note_on_c, 0, 69, 81
2, 163623, Control_c, 0, 64, 85
2, 163627, Note_on_c, 0, 55, 0
2, 163638, Control_c, 0, 64, 81
2, 163651, Note_on_c, 0, 67, 0
2, 163653, Control_c, 0, 64, 78
2, 163670, Control_c, 0, 64, 74
2, 163685, Control_c, 0, 64, 71
2, 163701, Control_c, 0, 64, 68
2, 163716, Control_c, 0, 64, 67
2, 163732, Control_c, 0, 64, 65
2, 163746, Control_c, 0, 64, 64
2, 163759, Note_on_c, 0, 52, 74
2, 163761, Control_c, 0, 64, 64
2, 163763, Note_on_c, 0, 70, 86
2, 163766, Note_on_c, 0, 53, 0
2, 163777, Control_c, 0, 64, 63
2, 163796, Note_on_c, 0, 69, 0
2, 163799, Control_c, 0, 64, 62
2, 163815, Control_c, 0, 64, 61
2, 163830, Control_c, 0, 64, 61
2, 163845, Control_c, 0, 64, 60
2, 163891, Control_c, 0, 64, 60
2, 163918, Note_on_c, 0, 69, 85
2, 163919, Note_on_c, 0, 53, 77
2, 163931, Note_on_c, 0, 52, 0
2, 163952, Control_c, 0, 64, 59
2, 163957, Note_on_c, 0, 70, 0
2, 163983, Control_c, 0, 64, 59
2, 164073, Note_on_c, 0, 67, 84
2, 164074, Note_on_c, 0, 55, 78
2, 164074, Note_on_c, 0, 69, 0
2, 164077, Note_on_c, 0, 53, 0
2, 164212, Control_c, 0, 64, 59
2, 164244, Note_on_c, 0, 53, 74
2, 164252, Note_on_c, 0, 55, 0
2, 164260, Note_on_c, 0, 69, 88
2, 164500, Note_on_c, 0, 67, 0
2, 164514, Note_on_c, 0, 40, 81
2, 164570, Control_c, 0, 64, 59
2, 164600, Control_c, 0, 64, 58
2, 164631, Control_c, 0, 64, 58
2, 164638, Note_on_c, 0, 53, 0
2, 164646, Control_c, 0, 64, 57
2, 164661, Control_c, 0, 64, 57
2, 164676, Control_c, 0, 64, 56
2, 164692, Control_c, 0, 64, 56
2, 164707, Control_c, 0, 64, 55
2, 164721, Control_c, 0, 64, 54
2, 164737, Control_c, 0, 64, 54
2, 164752, Control_c, 0, 64, 53
2, 164768, Control_c, 0, 64, 52
2, 164783, Control_c, 0, 64, 51
2, 164786, Note_on_c, 0, 74, 82
2, 164788, Note_on_c, 0, 41, 67
2, 164796, Note_on_c, 0, 65, 73
2, 164798, Control_c, 0, 64, 49
2, 164811, Note_on_c, 0, 69, 0
2, 164814, Control_c, 0, 64, 48
2, 164829, Control_c, 0, 64, 47
2, 164845, Control_c, 0, 64, 46
2, 164859, Control_c, 0, 64, 45
2, 164865, Note_on_c, 0, 40, 0
2, 164874, Control_c, 0, 64, 44
2, 164890, Control_c, 0, 64, 43
2, 164936, Control_c, 0, 64, 42
2, 165009, Note_on_c, 0, 43, 79
2, 165054, Note_on_c, 0, 41, 0
2, 165058, Control_c, 0, 64, 43
2, 165088, Control_c, 0, 64, 43
2, 165103, Control_c, 0, 64, 44
2, 165107, Note_on_c, 0, 65, 0
2, 165118, Control_c, 0, 64, 44
2, 165149, Control_c, 0, 64, 45
2, 165164, Control_c, 0, 64, 45
2, 165179, Control_c, 0, 64, 46
2, 165194, Control_c, 0, 64, 46
2, 165209, Control_c, 0, 64, 47
2, 165220, Note_on_c, 0, 73, 83
2, 165224, Control_c, 0, 64, 47
2, 165232, Note_on_c, 0, 45, 64
2, 165237, Note_on_c, 0, 64, 58
2, 165239, Control_c, 0, 64, 48
2, 165258, Note_on_c, 0, 43, 0
2, 165260, Note_on_c, 0, 74, 0
2, 165270, Control_c, 0, 64, 48
2, 165285, Control_c, 0, 64, 49
2, 165300, Control_c, 0, 64, 49
2, 165315, Control_c, 0, 64, 50
2, 165354, Control_c, 0, 64, 50
2, 165384, Control_c, 0, 64, 51
2, 165428, Control_c, 0, 64, 51
2, 165440, Note_on_c, 0, 45, 0
2, 165440, Note_on_c, 0, 47, 65
2, 165601, Note_on_c, 0, 73, 0
2, 165636, Note_on_c, 0, 72, 68
2, 165652, Note_on_c, 0, 69, 51
2, 165655, Note_on_c, 0, 48, 58
2, 165680, Note_on_c, 0, 64, 0
2, 165709, Note_on_c, 0, 47, 0
2, 165734, Control_c, 0, 64, 52
2, 165859, Note_on_c, 0, 45, 65
2, 165874, Note_on_c, 0, 48, 0
2, 166065, Note_on_c, 0, 50, 54
2, 166067, Note_on_c, 0, 71, 74
2, 166105, Note_on_c, 0, 45, 0
2, 166113, Note_on_c, 0, 72, 0
2, 166279, Note_on_c, 0, 49, 69
2, 166313, Note_on_c, 0, 50, 0
2, 166440, Control_c, 0, 64, 52
2, 166486, Control_c, 0, 64, 52
2, 166496, Note_on_c, 0, 50, 62
2, 166501, Control_c, 0, 64, 49
2, 166501, Note_on_c, 0, 70, 88
2, 166502, Note_on_c, 0, 49, 0
2, 166516, Control_c, 0, 64, 46
2, 166532, Control_c, 0, 64, 45
2, 166536, Note_on_c, 0, 71, 0
2, 166563, Control_c, 0, 64, 47
2, 166578, Control_c, 0, 64, 50
2, 166593, Control_c, 0, 64, 52
2, 166609, Control_c, 0, 64, 55
2, 166623, Control_c, 0, 64, 57
2, 166638, Control_c, 0, 64, 60
2, 166654, Control_c, 0, 64, 62
2, 166669, Control_c, 0, 64, 63
2, 166685, Control_c, 0, 64, 64
2, 166697, Note_on_c, 0, 52, 69
2, 166699, Control_c, 0, 64, 65
2, 166708, Note_on_c, 0, 69, 0
2, 166713, Note_on_c, 0, 50, 0
2, 166714, Control_c, 0, 64, 67
2, 166715, Note_on_c, 0, 67, 77
2, 166730, Control_c, 0, 64, 70
2, 166745, Control_c, 0, 64, 72
2, 166759, Control_c, 0, 64, 75
2, 166775, Control_c, 0, 64, 76
2, 166790, Control_c, 0, 64, 78
2, 166806, Control_c, 0, 64, 79
2, 166821, Control_c, 0, 64, 80
2, 166825, Note_on_c, 0, 70, 0
2, 166904, Control_c, 0, 64, 79
2, 166919, Control_c, 0, 64, 78
2, 166935, Control_c, 0, 64, 76
2, 166941, Note_on_c, 0, 69, 89
2, 166949, Note_on_c, 0, 53, 68
2, 166950, Control_c, 0, 64, 74
2, 166959, Note_on_c, 0, 52, 0
2, 166965, Control_c, 0, 64, 72
2, 166979, Control_c, 0, 64, 70
2, 166994, Control_c, 0, 64, 68
2, 167010, Control_c, 0, 64, 67
2, 167025, Control_c, 0, 64, 66
2, 167040, Control_c, 0, 64, 65
2, 167086, Control_c, 0, 64, 64
2, 167100, Control_c, 0, 64, 64
2, 167131, Control_c, 0, 64, 63
2, 167146, Control_c, 0, 64, 63
2, 167161, Control_c, 0, 64, 62
2, 167163, Note_on_c, 0, 67, 0
2, 167177, Control_c, 0, 64, 62
2, 167190, Control_c, 0, 64, 61
2, 167194, Note_on_c, 0, 47, 69
2, 167202, Note_on_c, 0, 65, 80
2, 167205, Control_c, 0, 64, 61
2, 167221, Control_c, 0, 64, 60
2, 167224, Note_on_c, 0, 53, 0
2, 167235, Control_c, 0, 64, 60
2, 167251, Control_c, 0, 64, 59
2, 167266, Control_c, 0, 64, 59
2, 167297, Control_c, 0, 64, 58
2, 167311, Control_c, 0, 64, 58
2, 167343, Control_c, 0, 64, 57
2, 167374, Control_c, 0, 64, 57
2, 167389, Control_c, 0, 64, 56
2, 167403, Control_c, 0, 64, 54
2, 167419, Control_c, 0, 64, 51
2, 167434, Control_c, 0, 64, 39
2, 167450, Control_c, 0, 64, 0
2, 167472, Note_on_c, 0, 52, 70
2, 167472, Note_on_c, 0, 67, 90
2, 167480, Note_on_c, 0, 47, 0
2, 167505, Note_on_c, 0, 69, 0
2, 167639, Control_c, 0, 64, 28
2, 167655, Control_c, 0, 64, 40
2, 167669, Control_c, 0, 64, 53
2, 167684, Control_c, 0, 64, 60
2, 167700, Control_c, 0, 64, 62
2, 167700, Note_on_c, 0, 65, 0
2, 167715, Control_c, 0, 64, 64
2, 167731, Control_c, 0, 64, 64
2, 167745, Control_c, 0, 64, 65
2, 167760, Control_c, 0, 64, 66
2, 167776, Control_c, 0, 64, 66
2, 167791, Control_c, 0, 64, 66
2, 167803, Note_on_c, 0, 50, 68
2, 167816, Note_on_c, 0, 65, 83
2, 167821, Control_c, 0, 64, 65
2, 167851, Note_on_c, 0, 52, 0
2, 167852, Control_c, 0, 64, 65
2, 167927, Control_c, 0, 64, 64
2, 167988, Control_c, 0, 64, 64
2, 168019, Control_c, 0, 64, 62
2, 168034, Control_c, 0, 64, 58
2, 168043, Note_on_c, 0, 49, 69
2, 168047, Note_on_c, 0, 64, 80
2, 168050, Control_c, 0, 64, 50
2, 168058, Note_on_c, 0, 50, 0
2, 168064, Control_c, 0, 64, 46
2, 168090, Note_on_c, 0, 65, 0
2, 168095, Control_c, 0, 64, 49
2, 168110, Control_c, 0, 64, 53
2, 168125, Control_c, 0, 64, 57
2, 168141, Control_c, 0, 64, 59
2, 168156, Control_c, 0, 64, 61
2, 168172, Control_c, 0, 64, 62
2, 168187, Control_c, 0, 64, 63
2, 168202, Control_c, 0, 64, 63
2, 168210, Note_on_c, 0, 67, 0
2, 168232, Control_c, 0, 64, 64
2, 168263, Control_c, 0, 64, 64
2, 168278, Control_c, 0, 64, 65
2, 168280, Note_on_c, 0, 45, 69
2, 168281, Note_on_c, 0, 67, 83
2, 168294, Control_c, 0, 64, 65
2, 168308, Control_c, 0, 64, 66
2, 168314, Note_on_c, 0, 49, 0
2, 168326, Note_on_c, 0, 64, 0
2, 168370, Control_c, 0, 64, 66
2, 168406, Control_c, 0, 64, 67
2, 168422, Control_c, 0, 64, 67
2, 168453, Control_c, 0, 64, 68
2, 168544, Control_c, 0, 64, 67
2, 168556, Note_on_c, 0, 50, 68
2, 168556, Note_on_c, 0, 65, 86
2, 168559, Control_c, 0, 64, 66
2, 168566, Note_on_c, 0, 62, 71
2, 168575, Control_c, 0, 64, 64
2, 168589, Control_c, 0, 64, 60
2, 168589, Note_on_c, 0, 67, 0
2, 168604, Control_c, 0, 64, 55
2, 168612, Note_on_c, 0, 45, 0
2, 168620, Control_c, 0, 64, 55
2, 168635, Control_c, 0, 64, 56
2, 168651, Control_c, 0, 64, 57
2, 168665, Control_c, 0, 64, 59
2, 168680, Control_c, 0, 64, 61
2, 168696, Control_c, 0, 64, 62
2, 168710, Control_c, 0, 64, 63
2, 168725, Control_c, 0, 64, 64
2, 168741, Control_c, 0, 64, 65
2, 168756, Control_c, 0, 64, 66
2, 168772, Control_c, 0, 64, 68
2, 168786, Control_c, 0, 64, 70
2, 168801, Control_c, 0, 64, 71
2, 168817, Control_c, 0, 64, 73
2, 168862, Control_c, 0, 64, 72
2, 168877, Control_c, 0, 64, 71
2, 168893, Control_c, 0, 64, 70
2, 168893, Note_on_c, 0, 55, 74
2, 168894, Note_on_c, 0, 50, 0
2, 168896, Note_on_c, 0, 64, 85
2, 168908, Control_c, 0, 64, 67
2, 168911, Note_on_c, 0, 65, 0
2, 168923, Control_c, 0, 64, 63
2, 168939, Control_c, 0, 64, 58
2, 168954, Control_c, 0, 64, 55
2, 168970, Control_c, 0, 64, 56
2, 168985, Control_c, 0, 64, 58
2, 169000, Control_c, 0, 64, 59
2, 169015, Control_c, 0, 64, 61
2, 169030, Control_c, 0, 64, 62
2, 169045, Control_c, 0, 64, 63
2, 169061, Control_c, 0, 64, 64
2, 169076, Control_c, 0, 64, 65
2, 169092, Control_c, 0, 64, 67
2, 169107, Control_c, 0, 64, 67
2, 169122, Control_c, 0, 64, 68
2, 169137, Control_c, 0, 64, 69
2, 169175, Control_c, 0, 64, 69
2, 169251, Control_c, 0, 64, 70
2, 169266, Control_c, 0, 64, 69
2, 169312, Control_c, 0, 64, 69
2, 169327, Control_c, 0, 64, 68
2, 169331, Note_on_c, 0, 57, 70
2, 169340, Note_on_c, 0, 65, 83
2, 169342, Control_c, 0, 64, 68
2, 169357, Control_c, 0, 64, 67
2, 169357, Note_on_c, 0, 64, 0
2, 169373, Control_c, 0, 64, 64
2, 169374, Note_on_c, 0, 55, 0
2, 169388, Control_c, 0, 64, 61
2, 169403, Control_c, 0, 64, 57
2, 169419, Control_c, 0, 64, 56
2, 169433, Control_c, 0, 64, 56
2, 169448, Control_c, 0, 64, 57
2, 169464, Control_c, 0, 64, 57
2, 169541, Note_on_c, 0, 64, 82
2, 169553, Note_on_c, 0, 65, 0
2, 169645, Control_c, 0, 64, 58
2, 169673, Note_on_c, 0, 65, 82
2, 169676, Control_c, 0, 64, 58
2, 169679, Note_on_c, 0, 64, 0
2, 169692, Control_c, 0, 64, 59
2, 169721, Control_c, 0, 64, 59
2, 169752, Control_c, 0, 64, 60
2, 169767, Control_c, 0, 64, 60
2, 169782, Note_on_c, 0, 65, 0
2, 169788, Note_on_c, 0, 64, 77
2, 169829, Control_c, 0, 64, 61
2, 169844, Control_c, 0, 64, 61
2, 169860, Note_on_c, 0, 64, 0
2, 169874, Control_c, 0, 64, 62
2, 169876, Note_on_c, 0, 65, 74
2, 169890, Control_c, 0, 64, 62
2, 169905, Control_c, 0, 64, 63
2, 169920, Control_c, 0, 64, 63
2, 169941, Note_on_c, 0, 65, 0
2, 169943, Control_c, 0, 64, 64
2, 169953, Note_on_c, 0, 64, 69
2, 169974, Control_c, 0, 64, 64
2, 169989, Control_c, 0, 64, 65
2, 169994, Note_on_c, 0, 64, 0
2, 170003, Control_c, 0, 64, 65
2, 170018, Note_on_c, 0, 65, 74
2, 170034, Control_c, 0, 64, 66
2, 170062, Note_on_c, 0, 65, 0
2, 170065, Control_c, 0, 64, 66
2, 170080, Note_on_c, 0, 64, 64
2, 170095, Control_c, 0, 64, 67
2, 170110, Control_c, 0, 64, 67
2, 170111, Note_on_c, 0, 64, 0
2, 170122, Note_on_c, 0, 65, 69
2, 170125, Control_c, 0, 64, 68
2, 170141, Control_c, 0, 64, 69
2, 170155, Control_c, 0, 64, 70
2, 170171, Control_c, 0, 64, 71
2, 170173, Note_on_c, 0, 65, 0
2, 170186, Control_c, 0, 64, 71
2, 170188, Note_on_c, 0, 64, 74
2, 170201, Control_c, 0, 64, 73
2, 170217, Control_c, 0, 64, 74
2, 170222, Note_on_c, 0, 64, 0
2, 170232, Control_c, 0, 64, 75
2, 170232, Note_on_c, 0, 65, 65
2, 170247, Control_c, 0, 64, 77
2, 170263, Control_c, 0, 64, 78
2, 170276, Note_on_c, 0, 65, 0
2, 170277, Control_c, 0, 64, 79
2, 170281, Note_on_c, 0, 64, 65
2, 170293, Control_c, 0, 64, 79
2, 170308, Control_c, 0, 64, 81
2, 170321, Note_on_c, 0, 64, 0
2, 170323, Control_c, 0, 64, 82
2, 170326, Note_on_c, 0, 65, 62
2, 170339, Control_c, 0, 64, 82
2, 170347, Note_on_c, 0, 62, 0
2, 170353, Control_c, 0, 64, 83
2, 170368, Control_c, 0, 64, 84
2, 170384, Control_c, 0, 64, 85
2, 170397, Note_on_c, 0, 64, 86
2, 170398, Control_c, 0, 64, 86
2, 170414, Control_c, 0, 64, 87
2, 170414, Note_on_c, 0, 65, 0
2, 170429, Control_c, 0, 64, 87
2, 170444, Control_c, 0, 64, 88
2, 170474, Control_c, 0, 64, 89
2, 170550, Control_c, 0, 64, 89
2, 170565, Control_c, 0, 64, 90
2, 170581, Control_c, 0, 64, 91
2, 170673, Control_c, 0, 64, 90
2, 170684, Note_on_c, 0, 57, 0
2, 170688, Control_c, 0, 64, 90
2, 170688, Note_on_c, 0, 61, 76
2, 170690, Note_on_c, 0, 45, 68
2, 170711, Control_c, 0, 64, 88
2, 170726, Control_c, 0, 64, 86
2, 170742, Control_c, 0, 64, 81
2, 170757, Control_c, 0, 64, 73
2, 170773, Control_c, 0, 64, 65
2, 170787, Control_c, 0, 64, 56
2, 170802, Control_c, 0, 64, 48
2, 170818, Control_c, 0, 64, 49
2, 170833, Control_c, 0, 64, 52
2, 170847, Control_c, 0, 64, 56
2, 170863, Control_c, 0, 64, 59
2, 170878, Control_c, 0, 64, 61
2, 170894, Control_c, 0, 64, 63
2, 170909, Control_c, 0, 64, 65
2, 170923, Control_c, 0, 64, 67
2, 170939, Control_c, 0, 64, 70
2, 170954, Control_c, 0, 64, 74
2, 170968, Control_c, 0, 64, 79
2, 170984, Control_c, 0, 64, 86
2, 170999, Control_c, 0, 64, 94
2, 171003, Note_on_c, 0, 64, 0
2, 171015, Control_c, 0, 64, 105
2, 171030, Control_c, 0, 64, 127
2, 171484, Note_on_c, 0, 62, 78
2, 171541, Control_c, 0, 64, 106
2, 171555, Control_c, 0, 64, 86
2, 171572, Control_c, 0, 64, 74
2, 171586, Control_c, 0, 64, 67
2, 171601, Control_c, 0, 64, 65
2, 171617, Control_c, 0, 64, 67
2, 171632, Control_c, 0, 64, 70
2, 171647, Control_c, 0, 64, 74
2, 171663, Control_c, 0, 64, 81
2, 171677, Control_c, 0, 64, 90
2, 171693, Control_c, 0, 64, 112
2, 171708, Control_c, 0, 64, 127
2, 171743, Note_on_c, 0, 45, 0
2, 171808, Note_on_c, 0, 62, 0
2, 171954, Note_on_c, 0, 61, 0
2, 172866, Note_on_c, 0, 62, 78
2, 172869, Note_on_c, 0, 38, 62
2, 172977, Control_c, 0, 64, 119
2, 172992, Control_c, 0, 64, 99
2, 173015, Control_c, 0, 64, 89
2, 173029, Control_c, 0, 64, 82
2, 173044, Control_c, 0, 64, 77
2, 173060, Control_c, 0, 64, 75
2, 173076, Control_c, 0, 64, 72
2, 173091, Control_c, 0, 64, 70
2, 173106, Control_c, 0, 64, 67
2, 173121, Control_c, 0, 64, 65
2, 173137, Control_c, 0, 64, 64
2, 173152, Control_c, 0, 64, 64
2, 173167, Control_c, 0, 64, 63
2, 173182, Control_c, 0, 64, 62
2, 173197, Control_c, 0, 64, 61
2, 173213, Control_c, 0, 64, 60
2, 173228, Control_c, 0, 64, 59
2, 173243, Control_c, 0, 64, 58
2, 173259, Control_c, 0, 64, 57
2, 173274, Control_c, 0, 64, 55
2, 173290, Control_c, 0, 64, 54
2, 173304, Control_c, 0, 64, 52
2, 173319, Control_c, 0, 64, 51
2, 173335, Control_c, 0, 64, 50
2, 173350, Control_c, 0, 64, 47
2, 173365, Control_c, 0, 64, 45
2, 173380, Control_c, 0, 64, 44
2, 173395, Control_c, 0, 64, 43
2, 173411, Control_c, 0, 64, 42
2, 173426, Control_c, 0, 64, 41
2, 173562, Control_c, 0, 64, 42
2, 173577, Control_c, 0, 64, 42
2, 173592, Control_c, 0, 64, 43
2, 173607, Control_c, 0, 64, 44
2, 173623, Control_c, 0, 64, 44
2, 173638, Control_c, 0, 64, 45
2, 173654, Control_c, 0, 64, 46
2, 173668, Control_c, 0, 64, 47
2, 173699, Control_c, 0, 64, 48
2, 173730, Control_c, 0, 64, 48
2, 173745, Control_c, 0, 64, 49
2, 173760, Control_c, 0, 64, 49
2, 173797, Control_c, 0, 64, 50
2, 173890, Control_c, 0, 64, 50
2, 173905, Control_c, 0, 64, 51
2, 173920, Control_c, 0, 64, 51
2, 173965, Control_c, 0, 64, 52
2, 174011, Control_c, 0, 64, 52
2, 174026, Control_c, 0, 64, 53
2, 174041, Control_c, 0, 64, 53
2, 174072, Control_c, 0, 64, 54
2, 174163, Control_c, 0, 64, 54
2, 174315, Control_c, 0, 64, 55
2, 174581, Control_c, 0, 64, 55
2, 175607, Note_on_c, 0, 62, 0
2, 175668, Note_on_c, 0, 38, 0
2, 175731, Control_c, 0, 64, 55
2, 175822, Control_c, 0, 64, 54
2, 175943, Control_c, 0, 64, 54
2, 176133, Control_c, 0, 64, 53
2, 176269, Control_c, 0, 64, 53
2, 176422, Control_c, 0, 64, 52
2, 176423, End_track
0, 0, End_of_file
