0, 0, Header, 1, 2, 384
1, 0, Start_track
1, 0, Tempo, 500000
1, 0, Time_signature, 4, 2, 24, 8
1, 1, End_track
2, 0, Start_track
2, 0, Title_t, "7.7.13 Group 1"
2, 0, Program_c, 0, 0
2, 0, Control_c, 0, 64, 0
2, 0, Control_c, 0, 66, 0
2, 0, Control_c, 0, 67, 0
2, 768, Note_on_c, 0, 74, 92
2, 769, Note_on_c, 0, 50, 69
2, 794, Note_on_c, 0, 49, 82
2, 799, Note_on_c, 0, 50, 0
2, 851, Note_on_c, 0, 49, 0
2, 857, Note_on_c, 0, 50, 79
2, 882, Note_on_c, 0, 74, 0
2, 970, Note_on_c, 0, 50, 0
2, 972, Note_on_c, 0, 72, 82
2, 1029, Note_on_c, 0, 72, 0
2, 1044, Note_on_c, 0, 70, 79
2, 1101, Note_on_c, 0, 70, 0
2, 1138, Note_on_c, 0, 69, 77
2, 1151, Note_on_c, 0, 38, 62
2, 1176, Note_on_c, 0, 69, 0
2, 1227, Note_on_c, 0, 67, 81
2, 1258, Note_on_c, 0, 67, 0
2, 1322, Note_on_c, 0, 65, 76
2, 1371, Note_on_c, 0, 65, 0
2, 1390, Note_on_c, 0, 38, 0
2, 1404, Note_on_c, 0, 64, 77
2, 1442, Note_on_c, 0, 64, 0
2, 1506, Note_on_c, 0, 62, 74
2, 1538, Note_on_c, 0, 62, 0
2, 1589, Note_on_c, 0, 65, 65
2, 1640, Note_on_c, 0, 65, 0
2, 1680, Note_on_c, 0, 64, 65
2, 1711, Note_on_c, 0, 64, 0
2, 1761, Note_on_c, 0, 62, 60
2, 1799, Note_on_c, 0, 62, 0
2, 1839, Note_on_c, 0, 70, 80
2, 1903, Note_on_c, 0, 70, 0
2, 1926, Note_on_c, 0, 67, 74
2, 1979, Note_on_c, 0, 67, 0
2, 2023, Note_on_c, 0, 38, 74
2, 2032, Note_on_c, 0, 62, 62
2, 2049, Note_on_c, 0, 38, 0
2, 2068, Note_on_c, 0, 62, 0
2, 2108, Note_on_c, 0, 67, 69
2, 2147, Note_on_c, 0, 67, 0
2, 2194, Note_on_c, 0, 43, 85
2, 2195, Note_on_c, 0, 70, 70
2, 2223, Note_on_c, 0, 43, 0
2, 2251, Note_on_c, 0, 70, 0
2, 2291, Note_on_c, 0, 67, 66
2, 2350, Note_on_c, 0, 67, 0
2, 2378, Note_on_c, 0, 46, 85
2, 2388, Note_on_c, 0, 62, 66
2, 2405, Note_on_c, 0, 46, 0
2, 2426, Note_on_c, 0, 62, 0
2, 2478, Note_on_c, 0, 67, 60
2, 2516, Note_on_c, 0, 67, 0
2, 2551, Note_on_c, 0, 50, 78
2, 2566, Note_on_c, 0, 70, 66
2, 2575, Note_on_c, 0, 49, 83
2, 2581, Note_on_c, 0, 50, 0
2, 2612, Note_on_c, 0, 49, 0
2, 2628, Note_on_c, 0, 50, 94
2, 2637, Note_on_c, 0, 70, 0
2, 2651, Note_on_c, 0, 67, 63
2, 2692, Note_on_c, 0, 67, 0
2, 2737, Note_on_c, 0, 62, 59
2, 2783, Note_on_c, 0, 62, 0
2, 2813, Note_on_c, 0, 67, 67
2, 2838, Note_on_c, 0, 67, 0
2, 2887, Note_on_c, 0, 50, 0
2, 2895, Note_on_c, 0, 69, 77
2, 2971, Note_on_c, 0, 69, 0
2, 2983, Note_on_c, 0, 67, 61
2, 3045, Note_on_c, 0, 67, 0
2, 3094, Note_on_c, 0, 62, 65
2, 3096, Note_on_c, 0, 38, 64
2, 3124, Note_on_c, 0, 62, 0
2, 3130, Note_on_c, 0, 38, 0
2, 3168, Note_on_c, 0, 67, 64
2, 3205, Note_on_c, 0, 67, 0
2, 3264, Note_on_c, 0, 69, 69
2, 3272, Note_on_c, 0, 41, 86
2, 3303, Note_on_c, 0, 41, 0
2, 3327, Note_on_c, 0, 69, 0
2, 3360, Note_on_c, 0, 65, 60
2, 3407, Note_on_c, 0, 65, 0
2, 3449, Note_on_c, 0, 45, 83
2, 3452, Note_on_c, 0, 62, 66
2, 3474, Note_on_c, 0, 45, 0
2, 3490, Note_on_c, 0, 62, 0
2, 3534, Note_on_c, 0, 65, 60
2, 3594, Note_on_c, 0, 65, 0
2, 3613, Note_on_c, 0, 50, 75
2, 3628, Note_on_c, 0, 69, 68
2, 3635, Note_on_c, 0, 49, 82
2, 3640, Note_on_c, 0, 50, 0
2, 3687, Note_on_c, 0, 49, 0
2, 3689, Note_on_c, 0, 50, 90
2, 3697, Note_on_c, 0, 69, 0
2, 3709, Note_on_c, 0, 65, 67
2, 3747, Note_on_c, 0, 65, 0
2, 3797, Note_on_c, 0, 62, 62
2, 3836, Note_on_c, 0, 62, 0
2, 3859, Note_on_c, 0, 65, 71
2, 3890, Note_on_c, 0, 65, 0
2, 3939, Note_on_c, 0, 50, 0
2, 3954, Note_on_c, 0, 67, 78
2, 4027, Note_on_c, 0, 67, 0
2, 4036, Note_on_c, 0, 64, 74
2, 4086, Note_on_c, 0, 64, 0
2, 4131, Note_on_c, 0, 62, 78
2, 4147, Note_on_c, 0, 58, 71
2, 4162, Note_on_c, 0, 62, 0
2, 4173, Note_on_c, 0, 58, 0
2, 4214, Note_on_c, 0, 64, 69
2, 4255, Note_on_c, 0, 64, 0
2, 4312, Note_on_c, 0, 67, 66
2, 4313, Note_on_c, 0, 52, 73
2, 4338, Note_on_c, 0, 52, 0
2, 4353, Note_on_c, 0, 67, 0
2, 4392, Note_on_c, 0, 64, 62
2, 4455, Note_on_c, 0, 64, 0
2, 4502, Note_on_c, 0, 61, 59
2, 4505, Note_on_c, 0, 55, 63
2, 4532, Note_on_c, 0, 55, 0
2, 4536, Note_on_c, 0, 61, 0
2, 4591, Note_on_c, 0, 64, 67
2, 4635, Note_on_c, 0, 64, 0
2, 4676, Note_on_c, 0, 49, 68
2, 4682, Note_on_c, 0, 67, 62
2, 4704, Note_on_c, 0, 49, 0
2, 4722, Note_on_c, 0, 67, 0
2, 4755, Note_on_c, 0, 64, 69
2, 4807, Note_on_c, 0, 64, 0
2, 4856, Note_on_c, 0, 61, 63
2, 4862, Note_on_c, 0, 57, 66
2, 4888, Note_on_c, 0, 57, 0
2, 4893, Note_on_c, 0, 61, 0
2, 4935, Note_on_c, 0, 64, 69
2, 4963, Note_on_c, 0, 64, 0
2, 5040, Note_on_c, 0, 65, 72
2, 5047, Note_on_c, 0, 50, 65
2, 5124, Note_on_c, 0, 62, 68
2, 5187, Note_on_c, 0, 62, 0
2, 5221, Note_on_c, 0, 60, 69
2, 5254, Note_on_c, 0, 60, 0
2, 5279, Note_on_c, 0, 50, 0
2, 5299, Note_on_c, 0, 58, 73
2, 5334, Note_on_c, 0, 58, 0
2, 5403, Note_on_c, 0, 57, 63
2, 5431, Note_on_c, 0, 57, 0
2, 5482, Note_on_c, 0, 55, 65
2, 5530, Note_on_c, 0, 55, 0
2, 5569, Note_on_c, 0, 53, 59
2, 5603, Note_on_c, 0, 65, 0
2, 5607, Note_on_c, 0, 53, 0
2, 5648, Note_on_c, 0, 52, 52
2, 5687, Note_on_c, 0, 52, 0
2, 5733, Note_on_c, 0, 50, 73
2, 5762, Note_on_c, 0, 50, 0
2, 5820, Note_on_c, 0, 53, 67
2, 5853, Note_on_c, 0, 53, 0
2, 5901, Note_on_c, 0, 52, 61
2, 5943, Note_on_c, 0, 52, 0
2, 5974, Note_on_c, 0, 50, 64
2, 6000, Note_on_c, 0, 50, 0
2, 6074, Note_on_c, 0, 58, 84
2, 6117, Note_on_c, 0, 58, 0
2, 6161, Note_on_c, 0, 55, 63
2, 6205, Note_on_c, 0, 55, 0
2, 6237, Note_on_c, 0, 50, 64
2, 6263, Note_on_c, 0, 62, 67
2, 6278, Note_on_c, 0, 50, 0
2, 6291, Note_on_c, 0, 62, 0
2, 6320, Note_on_c, 0, 55, 61
2, 6385, Note_on_c, 0, 55, 0
2, 6421, Note_on_c, 0, 67, 93
2, 6423, Note_on_c, 0, 58, 68
2, 6450, Note_on_c, 0, 67, 0
2, 6459, Note_on_c, 0, 58, 0
2, 6504, Note_on_c, 0, 55, 62
2, 6552, Note_on_c, 0, 55, 0
2, 6588, Note_on_c, 0, 70, 91
2, 6598, Note_on_c, 0, 50, 69
2, 6614, Note_on_c, 0, 70, 0
2, 6646, Note_on_c, 0, 50, 0
2, 6671, Note_on_c, 0, 55, 60
2, 6742, Note_on_c, 0, 55, 0
2, 6766, Note_on_c, 0, 74, 82
2, 6776, Note_on_c, 0, 58, 66
2, 6785, Note_on_c, 0, 73, 83
2, 6793, Note_on_c, 0, 74, 0
2, 6816, Note_on_c, 0, 58, 0
2, 6835, Note_on_c, 0, 73, 0
2, 6841, Note_on_c, 0, 74, 83
2, 6862, Note_on_c, 0, 55, 60
2, 6905, Note_on_c, 0, 55, 0
2, 6964, Note_on_c, 0, 50, 37
2, 7019, Note_on_c, 0, 50, 0
2, 7041, Note_on_c, 0, 55, 66
2, 7057, Note_on_c, 0, 74, 0
2, 7077, Note_on_c, 0, 55, 0
2, 7120, Note_on_c, 0, 57, 80
2, 7177, Note_on_c, 0, 57, 0
2, 7202, Note_on_c, 0, 55, 68
2, 7241, Note_on_c, 0, 55, 0
2, 7291, Note_on_c, 0, 62, 74
2, 7294, Note_on_c, 0, 50, 62
2, 7313, Note_on_c, 0, 62, 0
2, 7343, Note_on_c, 0, 50, 0
2, 7376, Note_on_c, 0, 55, 63
2, 7417, Note_on_c, 0, 55, 0
2, 7458, Note_on_c, 0, 65, 92
2, 7471, Note_on_c, 0, 57, 71
2, 7487, Note_on_c, 0, 65, 0
2, 7509, Note_on_c, 0, 57, 0
2, 7551, Note_on_c, 0, 53, 67
2, 7591, Note_on_c, 0, 53, 0
2, 7641, Note_on_c, 0, 69, 95
2, 7650, Note_on_c, 0, 50, 63
2, 7672, Note_on_c, 0, 69, 0
2, 7720, Note_on_c, 0, 50, 0
2, 7730, Note_on_c, 0, 53, 61
2, 7783, Note_on_c, 0, 53, 0
2, 7808, Note_on_c, 0, 74, 88
2, 7825, Note_on_c, 0, 57, 69
2, 7825, Note_on_c, 0, 73, 80
2, 7835, Note_on_c, 0, 74, 0
2, 7873, Note_on_c, 0, 57, 0
2, 7878, Note_on_c, 0, 74, 85
2, 7893, Note_on_c, 0, 53, 62
2, 7933, Note_on_c, 0, 73, 0
2, 7940, Note_on_c, 0, 53, 0
2, 7972, Note_on_c, 0, 50, 61
2, 8024, Note_on_c, 0, 50, 0
2, 8056, Note_on_c, 0, 53, 74
2, 8094, Note_on_c, 0, 53, 0
2, 8111, Note_on_c, 0, 74, 0
2, 8139, Note_on_c, 0, 55, 85
2, 8192, Note_on_c, 0, 55, 0
2, 8224, Note_on_c, 0, 52, 74
2, 8274, Note_on_c, 0, 52, 0
2, 8305, Note_on_c, 0, 50, 65
2, 8311, Note_on_c, 0, 67, 82
2, 8339, Note_on_c, 0, 67, 0
2, 8360, Note_on_c, 0, 50, 0
2, 8401, Note_on_c, 0, 52, 63
2, 8442, Note_on_c, 0, 52, 0
2, 8486, Note_on_c, 0, 73, 83
2, 8489, Note_on_c, 0, 55, 52
2, 8510, Note_on_c, 0, 73, 0
2, 8529, Note_on_c, 0, 55, 0
2, 8560, Note_on_c, 0, 52, 47
2, 8612, Note_on_c, 0, 52, 0
2, 8655, Note_on_c, 0, 49, 48
2, 8668, Note_on_c, 0, 76, 77
2, 8698, Note_on_c, 0, 49, 0
2, 8698, Note_on_c, 0, 76, 0
2, 8742, Note_on_c, 0, 52, 47
2, 8789, Note_on_c, 0, 52, 0
2, 8838, Note_on_c, 0, 73, 79
2, 8842, Note_on_c, 0, 55, 55
2, 8865, Note_on_c, 0, 73, 0
2, 8891, Note_on_c, 0, 55, 0
2, 8914, Note_on_c, 0, 52, 50
2, 8969, Note_on_c, 0, 52, 0
2, 9008, Note_on_c, 0, 49, 46
2, 9017, Note_on_c, 0, 69, 67
2, 9043, Note_on_c, 0, 69, 0
2, 9055, Note_on_c, 0, 49, 0
2, 9083, Note_on_c, 0, 52, 52
2, 9125, Note_on_c, 0, 52, 0
2, 9191, Note_on_c, 0, 53, 55
2, 9210, Note_on_c, 0, 74, 74
2, 9223, Note_on_c, 0, 53, 0
2, 9264, Note_on_c, 0, 50, 64
2, 9312, Note_on_c, 0, 50, 0
2, 9352, Note_on_c, 0, 52, 54
2, 9376, Note_on_c, 0, 74, 0
2, 9377, Note_on_c, 0, 72, 78
2, 9421, Note_on_c, 0, 52, 0
2, 9441, Note_on_c, 0, 53, 62
2, 9441, Note_on_c, 0, 72, 0
2, 9455, Note_on_c, 0, 70, 76
2, 9488, Note_on_c, 0, 53, 0
2, 9510, Note_on_c, 0, 70, 0
2, 9527, Note_on_c, 0, 55, 70
2, 9533, Note_on_c, 0, 69, 81
2, 9559, Note_on_c, 0, 55, 0
2, 9576, Note_on_c, 0, 69, 0
2, 9614, Note_on_c, 0, 67, 82
2, 9616, Note_on_c, 0, 57, 64
2, 9644, Note_on_c, 0, 67, 0
2, 9654, Note_on_c, 0, 57, 0
2, 9690, Note_on_c, 0, 59, 63
2, 9692, Note_on_c, 0, 65, 78
2, 9749, Note_on_c, 0, 59, 0
2, 9759, Note_on_c, 0, 65, 0
2, 9770, Note_on_c, 0, 64, 84
2, 9776, Note_on_c, 0, 61, 73
2, 9826, Note_on_c, 0, 64, 0
2, 9833, Note_on_c, 0, 61, 0
2, 9853, Note_on_c, 0, 65, 79
2, 9872, Note_on_c, 0, 62, 67
2, 9877, Note_on_c, 0, 65, 0
2, 9904, Note_on_c, 0, 62, 0
2, 9973, Note_on_c, 0, 60, 65
2, 10025, Note_on_c, 0, 60, 0
2, 10041, Note_on_c, 0, 69, 77
2, 10062, Note_on_c, 0, 59, 46
2, 10103, Note_on_c, 0, 59, 0
2, 10143, Note_on_c, 0, 57, 59
2, 10188, Note_on_c, 0, 57, 0
2, 10219, Note_on_c, 0, 59, 63
2, 10251, Note_on_c, 0, 69, 0
2, 10272, Note_on_c, 0, 59, 0
2, 10289, Note_on_c, 0, 67, 74
2, 10305, Note_on_c, 0, 60, 71
2, 10337, Note_on_c, 0, 67, 0
2, 10370, Note_on_c, 0, 69, 79
2, 10375, Note_on_c, 0, 60, 0
2, 10391, Note_on_c, 0, 59, 60
2, 10419, Note_on_c, 0, 69, 0
2, 10434, Note_on_c, 0, 59, 0
2, 10447, Note_on_c, 0, 71, 85
2, 10461, Note_on_c, 0, 57, 63
2, 10491, Note_on_c, 0, 57, 0
2, 10511, Note_on_c, 0, 71, 0
2, 10537, Note_on_c, 0, 72, 85
2, 10545, Note_on_c, 0, 55, 73
2, 10584, Note_on_c, 0, 72, 0
2, 10590, Note_on_c, 0, 55, 0
2, 10619, Note_on_c, 0, 53, 72
2, 10620, Note_on_c, 0, 74, 85
2, 10679, Note_on_c, 0, 53, 0
2, 10683, Note_on_c, 0, 74, 0
2, 10695, Note_on_c, 0, 52, 70
2, 10712, Note_on_c, 0, 76, 87
2, 10758, Note_on_c, 0, 52, 0
2, 10769, Note_on_c, 0, 50, 68
2, 10784, Note_on_c, 0, 76, 0
2, 10789, Note_on_c, 0, 77, 82
2, 10851, Note_on_c, 0, 50, 0
2, 10869, Note_on_c, 0, 77, 0
2, 10873, Note_on_c, 0, 52, 83
2, 10874, Note_on_c, 0, 79, 83
2, 10899, Note_on_c, 0, 52, 0
2, 10938, Note_on_c, 0, 79, 0
2, 10955, Note_on_c, 0, 77, 82
2, 11037, Note_on_c, 0, 77, 0
2, 11056, Note_on_c, 0, 55, 76
2, 11058, Note_on_c, 0, 76, 76
2, 11082, Note_on_c, 0, 55, 0
2, 11116, Note_on_c, 0, 76, 0
2, 11137, Note_on_c, 0, 74, 76
2, 11207, Note_on_c, 0, 74, 0
2, 11238, Note_on_c, 0, 48, 81
2, 11241, Note_on_c, 0, 76, 80
2, 11282, Control_c, 0, 64, 33
2, 11293, Note_on_c, 0, 76, 0
2, 11297, Control_c, 0, 64, 50
2, 11313, Control_c, 0, 64, 57
2, 11324, Note_on_c, 0, 72, 74
2, 11327, Control_c, 0, 64, 61
2, 11342, Control_c, 0, 64, 64
2, 11358, Control_c, 0, 64, 65
2, 11373, Control_c, 0, 64, 66
2, 11374, Note_on_c, 0, 72, 0
2, 11383, Note_on_c, 0, 48, 0
2, 11403, Control_c, 0, 64, 66
2, 11415, Note_on_c, 0, 71, 81
2, 11418, Control_c, 0, 64, 64
2, 11431, Note_on_c, 0, 50, 70
2, 11434, Control_c, 0, 64, 61
2, 11449, Control_c, 0, 64, 55
2, 11468, Note_on_c, 0, 71, 0
2, 11469, Note_on_c, 0, 50, 0
2, 11472, Control_c, 0, 64, 44
2, 11487, Control_c, 0, 64, 0
2, 11497, Note_on_c, 0, 69, 77
2, 11508, Note_on_c, 0, 52, 68
2, 11560, Note_on_c, 0, 52, 0
2, 11572, Note_on_c, 0, 69, 0
2, 11586, Note_on_c, 0, 67, 80
2, 11594, Note_on_c, 0, 53, 70
2, 11632, Note_on_c, 0, 53, 0
2, 11633, Note_on_c, 0, 67, 0
2, 11669, Note_on_c, 0, 55, 70
2, 11669, Note_on_c, 0, 65, 73
2, 11698, Note_on_c, 0, 55, 0
2, 11705, Note_on_c, 0, 65, 0
2, 11753, Note_on_c, 0, 57, 61
2, 11754, Note_on_c, 0, 64, 76
2, 11795, Note_on_c, 0, 57, 0
2, 11806, Note_on_c, 0, 64, 0
2, 11825, Note_on_c, 0, 59, 71
2, 11834, Note_on_c, 0, 62, 76
2, 11862, Note_on_c, 0, 59, 0
2, 11894, Note_on_c, 0, 62, 0
2, 11920, Note_on_c, 0, 60, 66
2, 11922, Note_on_c, 0, 64, 80
2, 11946, Note_on_c, 0, 64, 0
2, 11959, Note_on_c, 0, 60, 0
2, 11996, Note_on_c, 0, 58, 68
2, 12026, Note_on_c, 0, 58, 0
2, 12100, Note_on_c, 0, 57, 49
2, 12102, Note_on_c, 0, 67, 84
2, 12152, Note_on_c, 0, 57, 0
2, 12176, Note_on_c, 0, 55, 60
2, 12238, Note_on_c, 0, 55, 0
2, 12270, Note_on_c, 0, 57, 65
2, 12319, Note_on_c, 0, 57, 0
2, 12324, Note_on_c, 0, 67, 0
2, 12356, Note_on_c, 0, 65, 72
2, 12360, Note_on_c, 0, 58, 72
2, 12394, Note_on_c, 0, 65, 0
2, 12420, Note_on_c, 0, 58, 0
2, 12437, Note_on_c, 0, 67, 80
2, 12448, Note_on_c, 0, 57, 48
2, 12498, Note_on_c, 0, 57, 0
2, 12501, Note_on_c, 0, 67, 0
2, 12518, Note_on_c, 0, 69, 76
2, 12522, Note_on_c, 0, 55, 63
2, 12551, Note_on_c, 0, 55, 0
2, 12597, Note_on_c, 0, 69, 0
2, 12600, Note_on_c, 0, 70, 81
2, 12610, Note_on_c, 0, 53, 73
2, 12651, Note_on_c, 0, 70, 0
2, 12666, Note_on_c, 0, 53, 0
2, 12683, Note_on_c, 0, 51, 76
2, 12695, Note_on_c, 0, 72, 81
2, 12739, Note_on_c, 0, 51, 0
2, 12766, Note_on_c, 0, 72, 0
2, 12767, Note_on_c, 0, 50, 71
2, 12775, Note_on_c, 0, 74, 82
2, 12825, Note_on_c, 0, 50, 0
2, 12836, Note_on_c, 0, 48, 68
2, 12844, Note_on_c, 0, 74, 0
2, 12850, Note_on_c, 0, 75, 88
2, 12908, Note_on_c, 0, 48, 0
2, 12917, Note_on_c, 0, 75, 0
2, 12936, Note_on_c, 0, 50, 82
2, 12941, Note_on_c, 0, 77, 67
2, 12962, Note_on_c, 0, 50, 0
2, 12962, Note_on_c, 0, 76, 49
2, 12999, Note_on_c, 0, 76, 0
2, 13026, Note_on_c, 0, 77, 0
2, 13029, Note_on_c, 0, 75, 83
2, 13102, Note_on_c, 0, 75, 0
2, 13124, Note_on_c, 0, 74, 77
2, 13127, Note_on_c, 0, 53, 68
2, 13156, Note_on_c, 0, 53, 0
2, 13164, Note_on_c, 0, 74, 0
2, 13218, Note_on_c, 0, 72, 71
2, 13256, Note_on_c, 0, 72, 0
2, 13303, Note_on_c, 0, 46, 70
2, 13304, Note_on_c, 0, 74, 80
2, 13328, Control_c, 0, 64, 49
2, 13332, Note_on_c, 0, 46, 0
2, 13343, Control_c, 0, 64, 61
2, 13351, Note_on_c, 0, 74, 0
2, 13358, Control_c, 0, 64, 66
2, 13373, Control_c, 0, 64, 71
2, 13389, Control_c, 0, 64, 76
2, 13389, Note_on_c, 0, 77, 81
2, 13404, Control_c, 0, 64, 78
2, 13419, Control_c, 0, 64, 79
2, 13434, Control_c, 0, 64, 78
2, 13448, Control_c, 0, 64, 76
2, 13463, Control_c, 0, 64, 73
2, 13473, Note_on_c, 0, 77, 0
2, 13477, Note_on_c, 0, 74, 77
2, 13479, Control_c, 0, 64, 70
2, 13493, Note_on_c, 0, 58, 73
2, 13494, Control_c, 0, 64, 66
2, 13510, Control_c, 0, 64, 61
2, 13519, Note_on_c, 0, 58, 0
2, 13525, Control_c, 0, 64, 45
2, 13529, Note_on_c, 0, 74, 0
2, 13540, Control_c, 0, 64, 0
2, 13563, Note_on_c, 0, 72, 74
2, 13566, Note_on_c, 0, 60, 70
2, 13601, Note_on_c, 0, 72, 0
2, 13610, Note_on_c, 0, 60, 0
2, 13649, Note_on_c, 0, 62, 89
2, 13649, Note_on_c, 0, 70, 79
2, 13669, Note_on_c, 0, 62, 0
2, 13699, Note_on_c, 0, 70, 0
2, 13741, Note_on_c, 0, 74, 65
2, 13824, Note_on_c, 0, 74, 0
2, 13842, Note_on_c, 0, 65, 73
2, 13849, Note_on_c, 0, 70, 69
2, 13868, Note_on_c, 0, 65, 0
2, 13920, Note_on_c, 0, 70, 0
2, 13937, Note_on_c, 0, 69, 59
2, 13979, Note_on_c, 0, 69, 0
2, 14018, Note_on_c, 0, 58, 70
2, 14029, Note_on_c, 0, 67, 64
2, 14057, Note_on_c, 0, 58, 0
2, 14060, Note_on_c, 0, 67, 0
2, 14102, Note_on_c, 0, 70, 59
2, 14149, Note_on_c, 0, 70, 0
2, 14198, Note_on_c, 0, 62, 65
2, 14208, Note_on_c, 0, 67, 62
2, 14217, Note_on_c, 0, 62, 0
2, 14238, Note_on_c, 0, 67, 0
2, 14286, Note_on_c, 0, 65, 65
2, 14321, Note_on_c, 0, 65, 0
2, 14388, Note_on_c, 0, 64, 70
2, 14396, Note_on_c, 0, 55, 61
2, 14405, Note_on_c, 0, 64, 0
2, 14415, Control_c, 0, 64, 49
2, 14430, Control_c, 0, 64, 62
2, 14437, Note_on_c, 0, 55, 0
2, 14445, Control_c, 0, 64, 70
2, 14460, Control_c, 0, 64, 82
2, 14460, Note_on_c, 0, 58, 62
2, 14476, Control_c, 0, 64, 101
2, 14491, Control_c, 0, 64, 127
2, 14499, Note_on_c, 0, 58, 0
2, 14556, Note_on_c, 0, 55, 66
2, 14576, Note_on_c, 0, 76, 86
2, 14621, Note_on_c, 0, 76, 0
2, 14626, Note_on_c, 0, 55, 0
2, 14643, Note_on_c, 0, 77, 92
2, 14645, Note_on_c, 0, 53, 66
2, 14665, Control_c, 0, 64, 94
2, 14681, Control_c, 0, 64, 73
2, 14695, Note_on_c, 0, 77, 0
2, 14696, Control_c, 0, 64, 61
2, 14698, Note_on_c, 0, 53, 0
2, 14712, Control_c, 0, 64, 0
2, 14724, Note_on_c, 0, 79, 93
2, 14728, Note_on_c, 0, 52, 58
2, 14753, Note_on_c, 0, 79, 0
2, 14764, Note_on_c, 0, 52, 0
2, 14809, Note_on_c, 0, 55, 64
2, 14848, Note_on_c, 0, 55, 0
2, 14900, Note_on_c, 0, 52, 52
2, 14904, Note_on_c, 0, 82, 91
2, 14950, Note_on_c, 0, 82, 0
2, 14961, Note_on_c, 0, 52, 0
2, 14994, Note_on_c, 0, 50, 40
2, 15046, Note_on_c, 0, 50, 0
2, 15077, Note_on_c, 0, 49, 59
2, 15088, Note_on_c, 0, 76, 81
2, 15113, Note_on_c, 0, 49, 0
2, 15114, Note_on_c, 0, 76, 0
2, 15186, Note_on_c, 0, 52, 46
2, 15215, Note_on_c, 0, 52, 0
2, 15264, Note_on_c, 0, 49, 51
2, 15274, Note_on_c, 0, 79, 79
2, 15302, Note_on_c, 0, 49, 0
2, 15320, Note_on_c, 0, 79, 0
2, 15350, Note_on_c, 0, 47, 36
2, 15378, Note_on_c, 0, 47, 0
2, 15448, Note_on_c, 0, 45, 65
2, 15452, Note_on_c, 0, 73, 77
2, 15473, Note_on_c, 0, 45, 0
2, 15479, Control_c, 0, 64, 49
2, 15494, Control_c, 0, 64, 62
2, 15500, Note_on_c, 0, 73, 0
2, 15510, Control_c, 0, 64, 74
2, 15525, Control_c, 0, 64, 93
2, 15539, Note_on_c, 0, 79, 71
2, 15540, Control_c, 0, 64, 127
2, 15614, Note_on_c, 0, 79, 0
2, 15634, Note_on_c, 0, 73, 75
2, 15645, Note_on_c, 0, 57, 72
2, 15661, Control_c, 0, 64, 92
2, 15673, Note_on_c, 0, 57, 0
2, 15677, Control_c, 0, 64, 73
2, 15680, Note_on_c, 0, 73, 0
2, 15692, Control_c, 0, 64, 60
2, 15704, Note_on_c, 0, 59, 73
2, 15707, Control_c, 0, 64, 0
2, 15714, Note_on_c, 0, 71, 74
2, 15741, Note_on_c, 0, 59, 0
2, 15744, Note_on_c, 0, 71, 0
2, 15789, Note_on_c, 0, 69, 78
2, 15800, Note_on_c, 0, 61, 87
2, 15821, Note_on_c, 0, 61, 0
2, 15836, Note_on_c, 0, 69, 0
2, 15888, Note_on_c, 0, 76, 48
2, 15927, Note_on_c, 0, 76, 0
2, 15978, Note_on_c, 0, 69, 71
2, 15992, Note_on_c, 0, 64, 66
2, 16022, Note_on_c, 0, 64, 0
2, 16022, Note_on_c, 0, 69, 0
2, 16075, Note_on_c, 0, 67, 59
2, 16106, Note_on_c, 0, 67, 0
2, 16164, Note_on_c, 0, 65, 69
2, 16170, Note_on_c, 0, 57, 62
2, 16197, Note_on_c, 0, 57, 0
2, 16197, Note_on_c, 0, 65, 0
2, 16249, Note_on_c, 0, 73, 65
2, 16293, Note_on_c, 0, 73, 0
2, 16349, Note_on_c, 0, 55, 58
2, 16357, Note_on_c, 0, 65, 67
2, 16371, Note_on_c, 0, 55, 0
2, 16390, Note_on_c, 0, 65, 0
2, 16432, Note_on_c, 0, 64, 66
2, 16475, Note_on_c, 0, 64, 0
2, 16517, Note_on_c, 0, 62, 76
2, 16522, Note_on_c, 0, 53, 66
2, 16539, Note_on_c, 0, 62, 0
2, 16552, Control_c, 0, 64, 48
2, 16558, Note_on_c, 0, 53, 0
2, 16567, Control_c, 0, 64, 63
2, 16582, Control_c, 0, 64, 72
2, 16598, Control_c, 0, 64, 90
2, 16608, Note_on_c, 0, 62, 71
2, 16612, Control_c, 0, 64, 127
2, 16652, Note_on_c, 0, 62, 0
2, 16700, Note_on_c, 0, 74, 78
2, 16712, Note_on_c, 0, 53, 68
2, 16737, Note_on_c, 0, 74, 0
2, 16761, Note_on_c, 0, 53, 0
2, 16777, Note_on_c, 0, 76, 84
2, 16780, Control_c, 0, 64, 91
2, 16785, Note_on_c, 0, 52, 63
2, 16796, Control_c, 0, 64, 73
2, 16811, Control_c, 0, 64, 60
2, 16821, Note_on_c, 0, 76, 0
2, 16825, Control_c, 0, 64, 0
2, 16830, Note_on_c, 0, 52, 0
2, 16858, Note_on_c, 0, 77, 95
2, 16873, Note_on_c, 0, 50, 61
2, 16885, Note_on_c, 0, 77, 0
2, 16903, Note_on_c, 0, 50, 0
2, 16955, Note_on_c, 0, 57, 60
2, 16985, Note_on_c, 0, 57, 0
2, 17035, Note_on_c, 0, 81, 89
2, 17043, Note_on_c, 0, 50, 58
2, 17061, Note_on_c, 0, 81, 0
2, 17091, Note_on_c, 0, 50, 0
2, 17139, Note_on_c, 0, 48, 44
2, 17185, Note_on_c, 0, 48, 0
2, 17215, Note_on_c, 0, 74, 77
2, 17219, Note_on_c, 0, 46, 59
2, 17240, Note_on_c, 0, 74, 0
2, 17254, Note_on_c, 0, 46, 0
2, 17325, Note_on_c, 0, 53, 49
2, 17352, Note_on_c, 0, 53, 0
2, 17377, Note_on_c, 0, 72, 77
2, 17393, Note_on_c, 0, 46, 62
2, 17407, Note_on_c, 0, 72, 0
2, 17438, Note_on_c, 0, 46, 0
2, 17489, Note_on_c, 0, 45, 45
2, 17518, Note_on_c, 0, 45, 0
2, 17567, Note_on_c, 0, 43, 65
2, 17575, Note_on_c, 0, 70, 68
2, 17596, Note_on_c, 0, 43, 0
2, 17615, Control_c, 0, 64, 52
2, 17621, Note_on_c, 0, 70, 0
2, 17631, Control_c, 0, 64, 62
2, 17646, Control_c, 0, 64, 67
2, 17661, Control_c, 0, 64, 72
2, 17664, Note_on_c, 0, 79, 68
2, 17677, Control_c, 0, 64, 78
2, 17692, Control_c, 0, 64, 81
2, 17707, Control_c, 0, 64, 83
2, 17720, Note_on_c, 0, 79, 0
2, 17722, Control_c, 0, 64, 84
2, 17763, Note_on_c, 0, 70, 73
2, 17779, Note_on_c, 0, 55, 69
2, 17806, Note_on_c, 0, 55, 0
2, 17813, Control_c, 0, 64, 83
2, 17818, Note_on_c, 0, 70, 0
2, 17829, Control_c, 0, 64, 78
2, 17832, Note_on_c, 0, 57, 75
2, 17839, Note_on_c, 0, 69, 75
2, 17844, Control_c, 0, 64, 72
2, 17859, Control_c, 0, 64, 66
2, 17870, Note_on_c, 0, 69, 0
2, 17875, Control_c, 0, 64, 60
2, 17885, Note_on_c, 0, 57, 0
2, 17889, Control_c, 0, 64, 45
2, 17904, Control_c, 0, 64, 0
2, 17924, Note_on_c, 0, 58, 88
2, 17924, Note_on_c, 0, 67, 79
2, 17947, Note_on_c, 0, 58, 0
2, 17963, Note_on_c, 0, 67, 0
2, 18016, Note_on_c, 0, 70, 55
2, 18071, Note_on_c, 0, 70, 0
2, 18092, Note_on_c, 0, 67, 65
2, 18101, Note_on_c, 0, 62, 65
2, 18129, Note_on_c, 0, 67, 0
2, 18130, Note_on_c, 0, 62, 0
2, 18184, Note_on_c, 0, 65, 54
2, 18226, Note_on_c, 0, 65, 0
2, 18277, Note_on_c, 0, 55, 50
2, 18281, Note_on_c, 0, 63, 48
2, 18305, Note_on_c, 0, 55, 0
2, 18313, Note_on_c, 0, 63, 0
2, 18339, Note_on_c, 0, 70, 52
2, 18401, Note_on_c, 0, 70, 0
2, 18438, Note_on_c, 0, 63, 47
2, 18450, Note_on_c, 0, 58, 52
2, 18476, Note_on_c, 0, 58, 0
2, 18489, Note_on_c, 0, 63, 0
2, 18538, Note_on_c, 0, 62, 45
2, 18564, Note_on_c, 0, 62, 0
2, 18581, Control_c, 0, 67, 19
2, 18597, Control_c, 0, 67, 52
2, 18612, Control_c, 0, 67, 83
2, 18620, Note_on_c, 0, 61, 56
2, 18627, Control_c, 0, 67, 113
2, 18632, Note_on_c, 0, 57, 53
2, 18643, Control_c, 0, 64, 46
2, 18643, Control_c, 0, 67, 127
2, 18657, Control_c, 0, 64, 59
2, 18659, Note_on_c, 0, 61, 0
2, 18663, Note_on_c, 0, 57, 0
2, 18673, Control_c, 0, 64, 63
2, 18688, Control_c, 0, 64, 64
2, 18711, Note_on_c, 0, 69, 45
2, 18749, Control_c, 0, 64, 63
2, 18749, Note_on_c, 0, 69, 0
2, 18764, Control_c, 0, 64, 63
2, 18778, Control_c, 0, 64, 61
2, 18794, Control_c, 0, 64, 59
2, 18808, Note_on_c, 0, 61, 43
2, 18808, Note_on_c, 0, 64, 53
2, 18809, Control_c, 0, 64, 53
2, 18825, Control_c, 0, 64, 42
2, 18836, Note_on_c, 0, 64, 0
2, 18841, Control_c, 0, 64, 0
2, 18842, Note_on_c, 0, 61, 0
2, 18906, Note_on_c, 0, 59, 36
2, 18937, Note_on_c, 0, 59, 0
2, 18979, Note_on_c, 0, 61, 52
2, 18985, Note_on_c, 0, 57, 43
2, 19012, Note_on_c, 0, 57, 0
2, 19021, Note_on_c, 0, 61, 0
2, 19080, Note_on_c, 0, 69, 48
2, 19116, Note_on_c, 0, 69, 0
2, 19162, Note_on_c, 0, 64, 51
2, 19177, Note_on_c, 0, 61, 51
2, 19186, Note_on_c, 0, 64, 0
2, 19210, Note_on_c, 0, 61, 0
2, 19245, Note_on_c, 0, 69, 45
2, 19297, Note_on_c, 0, 69, 0
2, 19337, Note_on_c, 0, 61, 62
2, 19341, Note_on_c, 0, 57, 58
2, 19370, Note_on_c, 0, 57, 0
2, 19379, Note_on_c, 0, 61, 0
2, 19423, Note_on_c, 0, 69, 49
2, 19462, Note_on_c, 0, 69, 0
2, 19514, Note_on_c, 0, 61, 55
2, 19520, Note_on_c, 0, 64, 49
2, 19543, Note_on_c, 0, 64, 0
2, 19550, Note_on_c, 0, 61, 0
2, 19592, Note_on_c, 0, 69, 41
2, 19637, Note_on_c, 0, 69, 0
2, 19683, Note_on_c, 0, 61, 54
2, 19696, Note_on_c, 0, 55, 44
2, 19715, Control_c, 0, 64, 35
2, 19724, Note_on_c, 0, 55, 0
2, 19724, Note_on_c, 0, 61, 0
2, 19730, Control_c, 0, 64, 51
2, 19745, Control_c, 0, 64, 55
2, 19757, Note_on_c, 0, 69, 49
2, 19761, Control_c, 0, 64, 56
2, 19803, Note_on_c, 0, 69, 0
2, 19806, Control_c, 0, 64, 54
2, 19821, Control_c, 0, 64, 49
2, 19836, Control_c, 0, 64, 37
2, 19847, Note_on_c, 0, 61, 47
2, 19851, Control_c, 0, 64, 0
2, 19874, Note_on_c, 0, 64, 50
2, 19891, Note_on_c, 0, 61, 0
2, 19897, Note_on_c, 0, 64, 0
2, 19952, Note_on_c, 0, 59, 50
2, 19986, Note_on_c, 0, 59, 0
2, 20040, Note_on_c, 0, 61, 54
2, 20054, Note_on_c, 0, 55, 17
2, 20081, Note_on_c, 0, 61, 0
2, 20085, Note_on_c, 0, 55, 0
2, 20131, Note_on_c, 0, 69, 56
2, 20174, Note_on_c, 0, 69, 0
2, 20210, Note_on_c, 0, 64, 53
2, 20220, Note_on_c, 0, 61, 53
2, 20233, Note_on_c, 0, 64, 0
2, 20253, Note_on_c, 0, 61, 0
2, 20288, Note_on_c, 0, 69, 51
2, 20339, Note_on_c, 0, 69, 0
2, 20379, Note_on_c, 0, 61, 61
2, 20391, Note_on_c, 0, 55, 49
2, 20415, Note_on_c, 0, 55, 0
2, 20419, Note_on_c, 0, 61, 0
2, 20457, Note_on_c, 0, 69, 57
2, 20507, Note_on_c, 0, 69, 0
2, 20555, Note_on_c, 0, 64, 55
2, 20561, Note_on_c, 0, 61, 52
2, 20580, Note_on_c, 0, 64, 0
2, 20594, Note_on_c, 0, 61, 0
2, 20631, Note_on_c, 0, 69, 53
2, 20685, Note_on_c, 0, 69, 0
2, 20729, Note_on_c, 0, 62, 64
2, 20734, Note_on_c, 0, 53, 60
2, 20749, Control_c, 0, 64, 51
2, 20760, Note_on_c, 0, 53, 0
2, 20760, Note_on_c, 0, 62, 0
2, 20763, Control_c, 0, 64, 61
2, 20778, Control_c, 0, 64, 64
2, 20794, Control_c, 0, 64, 66
2, 20802, Note_on_c, 0, 69, 54
2, 20809, Control_c, 0, 64, 66
2, 20839, Control_c, 0, 64, 65
2, 20850, Note_on_c, 0, 69, 0
2, 20854, Control_c, 0, 64, 62
2, 20870, Control_c, 0, 64, 52
2, 20884, Control_c, 0, 64, 21
2, 20899, Control_c, 0, 64, 0
2, 20907, Note_on_c, 0, 62, 54
2, 20918, Note_on_c, 0, 65, 47
2, 20942, Note_on_c, 0, 65, 0
2, 20943, Note_on_c, 0, 62, 0
2, 20991, Note_on_c, 0, 61, 55
2, 21024, Note_on_c, 0, 61, 0
2, 21077, Note_on_c, 0, 62, 58
2, 21095, Note_on_c, 0, 53, 35
2, 21114, Note_on_c, 0, 62, 0
2, 21121, Note_on_c, 0, 53, 0
2, 21171, Note_on_c, 0, 69, 50
2, 21205, Note_on_c, 0, 69, 0
2, 21257, Note_on_c, 0, 62, 62
2, 21259, Note_on_c, 0, 65, 46
2, 21284, Note_on_c, 0, 65, 0
2, 21287, Note_on_c, 0, 62, 0
2, 21331, Note_on_c, 0, 69, 53
2, 21385, Note_on_c, 0, 69, 0
2, 21426, Note_on_c, 0, 62, 61
2, 21429, Note_on_c, 0, 53, 51
2, 21461, Note_on_c, 0, 53, 0
2, 21470, Note_on_c, 0, 62, 0
2, 21513, Note_on_c, 0, 69, 58
2, 21558, Note_on_c, 0, 69, 0
2, 21604, Note_on_c, 0, 65, 59
2, 21612, Note_on_c, 0, 62, 50
2, 21634, Note_on_c, 0, 65, 0
2, 21644, Note_on_c, 0, 62, 0
2, 21673, Note_on_c, 0, 69, 57
2, 21719, Note_on_c, 0, 69, 0
2, 21778, Note_on_c, 0, 64, 71
2, 21780, Note_on_c, 0, 61, 60
2, 21807, Control_c, 0, 64, 52
2, 21811, Note_on_c, 0, 61, 0
2, 21813, Note_on_c, 0, 64, 0
2, 21822, Control_c, 0, 64, 61
2, 21837, Control_c, 0, 64, 64
2, 21852, Control_c, 0, 64, 65
2, 21862, Note_on_c, 0, 69, 52
2, 21898, Control_c, 0, 64, 64
2, 21914, Control_c, 0, 64, 62
2, 21915, Note_on_c, 0, 69, 0
2, 21929, Control_c, 0, 64, 57
2, 21944, Control_c, 0, 64, 49
2, 21954, Note_on_c, 0, 64, 64
2, 21959, Control_c, 0, 64, 27
2, 21959, Note_on_c, 0, 67, 56
2, 21974, Control_c, 0, 64, 0
2, 21985, Note_on_c, 0, 64, 0
2, 21985, Note_on_c, 0, 67, 0
2, 22040, Note_on_c, 0, 62, 53
2, 22076, Note_on_c, 0, 62, 0
2, 22128, Note_on_c, 0, 64, 63
2, 22149, Note_on_c, 0, 61, 57
2, 22159, Note_on_c, 0, 64, 0
2, 22172, Note_on_c, 0, 61, 0
2, 22226, Note_on_c, 0, 69, 60
2, 22271, Note_on_c, 0, 69, 0
2, 22325, Note_on_c, 0, 67, 61
2, 22326, Note_on_c, 0, 64, 63
2, 22350, Note_on_c, 0, 67, 0
2, 22355, Note_on_c, 0, 64, 0
2, 22411, Note_on_c, 0, 69, 60
2, 22454, Note_on_c, 0, 69, 0
2, 22496, Note_on_c, 0, 61, 64
2, 22497, Note_on_c, 0, 64, 66
2, 22525, Note_on_c, 0, 61, 0
2, 22534, Note_on_c, 0, 64, 0
2, 22593, Note_on_c, 0, 69, 52
2, 22626, Note_on_c, 0, 69, 0
2, 22671, Note_on_c, 0, 64, 61
2, 22682, Note_on_c, 0, 67, 57
2, 22702, Note_on_c, 0, 67, 0
2, 22705, Note_on_c, 0, 64, 0
2, 22727, Note_on_c, 0, 69, 58
2, 22761, Note_on_c, 0, 69, 0
2, 22836, Note_on_c, 0, 65, 70
2, 22842, Note_on_c, 0, 62, 65
2, 22867, Note_on_c, 0, 65, 0
2, 22870, Note_on_c, 0, 62, 0
2, 22879, Note_on_c, 0, 69, 70
2, 22914, Note_on_c, 0, 69, 0
2, 22925, Control_c, 0, 67, 115
2, 22940, Control_c, 0, 67, 100
2, 22944, Note_on_c, 0, 71, 52
2, 22955, Control_c, 0, 67, 90
2, 22967, Note_on_c, 0, 71, 0
2, 22970, Control_c, 0, 67, 80
2, 22971, Note_on_c, 0, 73, 70
2, 22994, Control_c, 0, 67, 67
2, 23008, Control_c, 0, 67, 52
2, 23023, Control_c, 0, 67, 35
2, 23023, Note_on_c, 0, 65, 60
2, 23030, Note_on_c, 0, 73, 0
2, 23036, Note_on_c, 0, 74, 61
2, 23039, Control_c, 0, 67, 20
2, 23049, Note_on_c, 0, 65, 0
2, 23054, Control_c, 0, 67, 0
2, 23093, Note_on_c, 0, 74, 0
2, 23100, Note_on_c, 0, 69, 64
2, 23146, Note_on_c, 0, 69, 0
2, 23193, Note_on_c, 0, 65, 66
2, 23204, Note_on_c, 0, 62, 54
2, 23223, Note_on_c, 0, 65, 0
2, 23225, Note_on_c, 0, 62, 0
2, 23272, Note_on_c, 0, 69, 68
2, 23309, Note_on_c, 0, 69, 0
2, 23356, Note_on_c, 0, 74, 67
2, 23378, Note_on_c, 0, 65, 57
2, 23400, Note_on_c, 0, 65, 0
2, 23400, Note_on_c, 0, 74, 0
2, 23435, Note_on_c, 0, 69, 70
2, 23490, Note_on_c, 0, 69, 0
2, 23526, Note_on_c, 0, 65, 66
2, 23535, Note_on_c, 0, 62, 74
2, 23563, Note_on_c, 0, 62, 0
2, 23566, Note_on_c, 0, 65, 0
2, 23613, Note_on_c, 0, 69, 76
2, 23655, Note_on_c, 0, 69, 0
2, 23702, Note_on_c, 0, 74, 72
2, 23709, Note_on_c, 0, 65, 72
2, 23733, Note_on_c, 0, 65, 0
2, 23767, Note_on_c, 0, 74, 0
2, 23777, Note_on_c, 0, 69, 81
2, 23816, Note_on_c, 0, 69, 0
2, 23879, Note_on_c, 0, 66, 88
2, 23883, Note_on_c, 0, 60, 73
2, 23911, Note_on_c, 0, 60, 0
2, 23914, Control_c, 0, 64, 41
2, 23928, Control_c, 0, 64, 60
2, 23931, Note_on_c, 0, 66, 0
2, 23943, Control_c, 0, 64, 65
2, 23959, Control_c, 0, 64, 69
2, 23961, Note_on_c, 0, 74, 74
2, 23974, Control_c, 0, 64, 71
2, 24002, Note_on_c, 0, 74, 0
2, 24004, Control_c, 0, 64, 70
2, 24019, Control_c, 0, 64, 66
2, 24035, Control_c, 0, 64, 57
2, 24050, Control_c, 0, 64, 0
2, 24056, Note_on_c, 0, 66, 72
2, 24070, Note_on_c, 0, 69, 62
2, 24094, Note_on_c, 0, 69, 0
2, 24096, Note_on_c, 0, 66, 0
2, 24139, Note_on_c, 0, 64, 72
2, 24175, Note_on_c, 0, 64, 0
2, 24224, Note_on_c, 0, 66, 77
2, 24237, Note_on_c, 0, 60, 64
2, 24254, Note_on_c, 0, 66, 0
2, 24261, Note_on_c, 0, 60, 0
2, 24318, Note_on_c, 0, 74, 74
2, 24366, Note_on_c, 0, 74, 0
2, 24403, Note_on_c, 0, 66, 81
2, 24406, Note_on_c, 0, 69, 68
2, 24431, Note_on_c, 0, 69, 0
2, 24446, Note_on_c, 0, 66, 0
2, 24485, Note_on_c, 0, 74, 74
2, 24539, Note_on_c, 0, 74, 0
2, 24577, Note_on_c, 0, 66, 85
2, 24580, Note_on_c, 0, 60, 69
2, 24608, Note_on_c, 0, 60, 0
2, 24625, Note_on_c, 0, 66, 0
2, 24657, Note_on_c, 0, 74, 72
2, 24699, Note_on_c, 0, 74, 0
2, 24739, Note_on_c, 0, 66, 75
2, 24740, Note_on_c, 0, 69, 70
2, 24768, Note_on_c, 0, 69, 0
2, 24775, Note_on_c, 0, 66, 0
2, 24814, Note_on_c, 0, 74, 56
2, 24854, Note_on_c, 0, 74, 0
2, 24889, Note_on_c, 0, 67, 84
2, 24899, Note_on_c, 0, 59, 77
2, 24921, Note_on_c, 0, 59, 0
2, 24923, Note_on_c, 0, 67, 0
2, 24943, Note_on_c, 0, 69, 83
2, 24985, Note_on_c, 0, 69, 0
2, 24996, Note_on_c, 0, 71, 80
2, 25039, Note_on_c, 0, 71, 0
2, 25047, Note_on_c, 0, 72, 81
2, 25076, Note_on_c, 0, 67, 77
2, 25097, Note_on_c, 0, 72, 0
2, 25097, Note_on_c, 0, 74, 77
2, 25103, Note_on_c, 0, 67, 0
2, 25164, Note_on_c, 0, 71, 83
2, 25183, Note_on_c, 0, 74, 0
2, 25221, Note_on_c, 0, 71, 0
2, 25248, Note_on_c, 0, 67, 86
2, 25252, Note_on_c, 0, 59, 74
2, 25277, Note_on_c, 0, 59, 0
2, 25295, Note_on_c, 0, 67, 0
2, 25335, Note_on_c, 0, 71, 79
2, 25387, Note_on_c, 0, 71, 0
2, 25414, Note_on_c, 0, 74, 79
2, 25436, Note_on_c, 0, 67, 74
2, 25463, Note_on_c, 0, 67, 0
2, 25481, Note_on_c, 0, 74, 0
2, 25499, Note_on_c, 0, 71, 80
2, 25553, Note_on_c, 0, 71, 0
2, 25591, Note_on_c, 0, 67, 75
2, 25610, Note_on_c, 0, 59, 64
2, 25629, Note_on_c, 0, 59, 0
2, 25635, Note_on_c, 0, 67, 0
2, 25672, Note_on_c, 0, 71, 77
2, 25718, Note_on_c, 0, 71, 0
2, 25754, Note_on_c, 0, 74, 78
2, 25771, Note_on_c, 0, 67, 61
2, 25798, Note_on_c, 0, 67, 0
2, 25820, Note_on_c, 0, 74, 0
2, 25831, Note_on_c, 0, 71, 77
2, 25861, Note_on_c, 0, 71, 0
2, 25925, Note_on_c, 0, 68, 88
2, 25927, Note_on_c, 0, 64, 76
2, 25952, Control_c, 0, 64, 40
2, 25953, Note_on_c, 0, 64, 0
2, 25967, Control_c, 0, 64, 61
2, 25976, Note_on_c, 0, 68, 0
2, 25981, Control_c, 0, 64, 65
2, 25997, Control_c, 0, 64, 67
2, 26007, Note_on_c, 0, 74, 79
2, 26012, Control_c, 0, 64, 68
2, 26054, Note_on_c, 0, 74, 0
2, 26065, Control_c, 0, 64, 66
2, 26081, Control_c, 0, 64, 59
2, 26096, Control_c, 0, 64, 25
2, 26109, Note_on_c, 0, 68, 79
2, 26111, Control_c, 0, 64, 0
2, 26111, Note_on_c, 0, 71, 76
2, 26138, Note_on_c, 0, 71, 0
2, 26158, Note_on_c, 0, 68, 0
2, 26185, Note_on_c, 0, 66, 81
2, 26220, Note_on_c, 0, 66, 0
2, 26277, Note_on_c, 0, 68, 80
2, 26286, Note_on_c, 0, 64, 71
2, 26313, Note_on_c, 0, 64, 0
2, 26325, Note_on_c, 0, 68, 0
2, 26357, Note_on_c, 0, 74, 81
2, 26420, Note_on_c, 0, 74, 0
2, 26444, Note_on_c, 0, 68, 88
2, 26456, Note_on_c, 0, 71, 80
2, 26479, Note_on_c, 0, 71, 0
2, 26491, Note_on_c, 0, 68, 0
2, 26532, Note_on_c, 0, 74, 83
2, 26581, Note_on_c, 0, 74, 0
2, 26614, Note_on_c, 0, 68, 81
2, 26626, Note_on_c, 0, 64, 70
2, 26655, Note_on_c, 0, 64, 0
2, 26665, Note_on_c, 0, 68, 0
2, 26697, Note_on_c, 0, 74, 72
2, 26747, Note_on_c, 0, 74, 0
2, 26778, Note_on_c, 0, 68, 75
2, 26794, Note_on_c, 0, 71, 66
2, 26831, Note_on_c, 0, 71, 0
2, 26837, Note_on_c, 0, 68, 0
2, 26863, Note_on_c, 0, 74, 57
2, 26883, Note_on_c, 0, 74, 0
2, 26960, Note_on_c, 0, 72, 84
2, 26962, Note_on_c, 0, 57, 64
2, 27044, Note_on_c, 0, 69, 75
2, 27126, Note_on_c, 0, 69, 0
2, 27133, Note_on_c, 0, 67, 78
2, 27172, Note_on_c, 0, 67, 0
2, 27178, Note_on_c, 0, 57, 0
2, 27218, Note_on_c, 0, 65, 73
2, 27254, Note_on_c, 0, 65, 0
2, 27301, Note_on_c, 0, 64, 82
2, 27330, Note_on_c, 0, 64, 0
2, 27334, Note_on_c, 0, 72, 0
2, 27334, Note_on_c, 0, 72, 7
2, 27390, Note_on_c, 0, 62, 70
2, 27422, Note_on_c, 0, 62, 0
2, 27474, Note_on_c, 0, 60, 68
2, 27524, Note_on_c, 0, 60, 0
2, 27551, Note_on_c, 0, 59, 59
2, 27591, Note_on_c, 0, 72, 0
2, 27599, Note_on_c, 0, 59, 0
2, 27641, Note_on_c, 0, 57, 67
2, 27667, Note_on_c, 0, 57, 0
2, 27717, Note_on_c, 0, 60, 73
2, 27747, Note_on_c, 0, 60, 0
2, 27803, Note_on_c, 0, 59, 62
2, 27842, Note_on_c, 0, 59, 0
2, 27866, Note_on_c, 0, 57, 67
2, 27900, Note_on_c, 0, 57, 0
2, 27956, Note_on_c, 0, 65, 81
2, 27999, Note_on_c, 0, 65, 0
2, 28043, Note_on_c, 0, 62, 71
2, 28077, Note_on_c, 0, 62, 0
2, 28119, Note_on_c, 0, 69, 75
2, 28124, Note_on_c, 0, 57, 58
2, 28145, Note_on_c, 0, 69, 0
2, 28166, Note_on_c, 0, 57, 0
2, 28212, Note_on_c, 0, 62, 63
2, 28255, Note_on_c, 0, 62, 0
2, 28284, Note_on_c, 0, 74, 86
2, 28300, Note_on_c, 0, 65, 70
2, 28316, Note_on_c, 0, 74, 0
2, 28338, Note_on_c, 0, 65, 0
2, 28390, Note_on_c, 0, 62, 64
2, 28438, Note_on_c, 0, 62, 0
2, 28462, Note_on_c, 0, 77, 90
2, 28472, Note_on_c, 0, 57, 68
2, 28487, Note_on_c, 0, 77, 0
2, 28523, Note_on_c, 0, 57, 0
2, 28558, Note_on_c, 0, 62, 65
2, 28604, Note_on_c, 0, 62, 0
2, 28619, Note_on_c, 0, 81, 95
2, 28646, Note_on_c, 0, 65, 72
2, 28646, Note_on_c, 0, 80, 72
2, 28653, Note_on_c, 0, 81, 0
2, 28669, Note_on_c, 0, 80, 0
2, 28692, Note_on_c, 0, 81, 84
2, 28696, Note_on_c, 0, 65, 0
2, 28723, Note_on_c, 0, 62, 64
2, 28766, Note_on_c, 0, 62, 0
2, 28806, Note_on_c, 0, 57, 65
2, 28857, Note_on_c, 0, 57, 0
2, 28888, Note_on_c, 0, 62, 69
2, 28899, Note_on_c, 0, 81, 0
2, 28926, Note_on_c, 0, 62, 0
2, 28966, Note_on_c, 0, 64, 80
2, 29001, Note_on_c, 0, 64, 0
2, 29052, Note_on_c, 0, 62, 63
2, 29090, Note_on_c, 0, 62, 0
2, 29132, Note_on_c, 0, 69, 74
2, 29138, Note_on_c, 0, 57, 60
2, 29157, Note_on_c, 0, 69, 0
2, 29184, Note_on_c, 0, 57, 0
2, 29215, Note_on_c, 0, 62, 62
2, 29257, Note_on_c, 0, 62, 0
2, 29293, Note_on_c, 0, 72, 95
2, 29310, Note_on_c, 0, 64, 70
2, 29329, Note_on_c, 0, 72, 0
2, 29350, Note_on_c, 0, 64, 0
2, 29390, Note_on_c, 0, 60, 66
2, 29429, Note_on_c, 0, 60, 0
2, 29463, Note_on_c, 0, 76, 95
2, 29476, Note_on_c, 0, 57, 62
2, 29502, Note_on_c, 0, 76, 0
2, 29544, Note_on_c, 0, 57, 0
2, 29551, Note_on_c, 0, 60, 67
2, 29596, Note_on_c, 0, 60, 0
2, 29633, Note_on_c, 0, 81, 92
2, 29646, Note_on_c, 0, 64, 70
2, 29649, Note_on_c, 0, 80, 79
2, 29661, Note_on_c, 0, 81, 0
2, 29677, Note_on_c, 0, 80, 0
2, 29687, Note_on_c, 0, 64, 0
2, 29697, Note_on_c, 0, 81, 86
2, 29711, Note_on_c, 0, 60, 69
2, 29746, Note_on_c, 0, 60, 0
2, 29790, Note_on_c, 0, 57, 65
2, 29849, Note_on_c, 0, 57, 0
2, 29872, Note_on_c, 0, 60, 76
2, 29907, Note_on_c, 0, 81, 0
2, 29915, Note_on_c, 0, 60, 0
2, 29961, Note_on_c, 0, 62, 81
2, 30010, Note_on_c, 0, 62, 0
2, 30052, Note_on_c, 0, 59, 67
2, 30095, Note_on_c, 0, 59, 0
2, 30129, Note_on_c, 0, 74, 77
2, 30130, Note_on_c, 0, 57, 60
2, 30158, Note_on_c, 0, 74, 0
2, 30178, Note_on_c, 0, 57, 0
2, 30218, Note_on_c, 0, 59, 58
2, 30256, Note_on_c, 0, 59, 0
2, 30294, Note_on_c, 0, 80, 77
2, 30309, Note_on_c, 0, 62, 55
2, 30321, Note_on_c, 0, 80, 0
2, 30346, Note_on_c, 0, 62, 0
2, 30370, Note_on_c, 0, 59, 59
2, 30427, Note_on_c, 0, 59, 0
2, 30473, Note_on_c, 0, 83, 74
2, 30479, Note_on_c, 0, 56, 57
2, 30502, Note_on_c, 0, 83, 0
2, 30524, Note_on_c, 0, 56, 0
2, 30559, Note_on_c, 0, 59, 57
2, 30609, Note_on_c, 0, 59, 0
2, 30654, Note_on_c, 0, 62, 59
2, 30664, Note_on_c, 0, 80, 72
2, 30691, Note_on_c, 0, 80, 0
2, 30703, Note_on_c, 0, 62, 0
2, 30735, Note_on_c, 0, 59, 60
2, 30777, Note_on_c, 0, 59, 0
2, 30829, Note_on_c, 0, 56, 59
2, 30847, Note_on_c, 0, 76, 69
2, 30872, Note_on_c, 0, 56, 0
2, 30874, Note_on_c, 0, 76, 0
2, 30910, Note_on_c, 0, 59, 49
2, 30958, Note_on_c, 0, 59, 0
2, 31004, Note_on_c, 0, 60, 74
2, 31007, Note_on_c, 0, 81, 80
2, 31031, Note_on_c, 0, 60, 0
2, 31187, Note_on_c, 0, 81, 0
2, 31189, Note_on_c, 0, 79, 83
2, 31190, Note_on_c, 0, 45, 86
2, 31218, Note_on_c, 0, 45, 0
2, 31252, Note_on_c, 0, 79, 0
2, 31270, Note_on_c, 0, 77, 77
2, 31352, Note_on_c, 0, 77, 0
2, 31358, Note_on_c, 0, 76, 80
2, 31361, Note_on_c, 0, 48, 92
2, 31390, Note_on_c, 0, 48, 0
2, 31411, Note_on_c, 0, 76, 0
2, 31450, Note_on_c, 0, 74, 76
2, 31490, Note_on_c, 0, 74, 0
2, 31541, Note_on_c, 0, 72, 78
2, 31542, Note_on_c, 0, 52, 94
2, 31569, Note_on_c, 0, 52, 0
2, 31617, Note_on_c, 0, 72, 0
2, 31621, Note_on_c, 0, 71, 82
2, 31693, Note_on_c, 0, 71, 0
2, 31720, Note_on_c, 0, 69, 79
2, 31722, Note_on_c, 0, 57, 88
2, 31746, Note_on_c, 0, 57, 0
2, 31760, Note_on_c, 0, 69, 0
2, 31808, Note_on_c, 0, 72, 75
2, 31884, Note_on_c, 0, 60, 90
2, 31893, Note_on_c, 0, 72, 0
2, 31894, Note_on_c, 0, 71, 82
2, 31909, Note_on_c, 0, 60, 0
2, 31945, Note_on_c, 0, 71, 0
2, 31982, Note_on_c, 0, 69, 70
2, 32029, Note_on_c, 0, 69, 0
2, 32076, Note_on_c, 0, 62, 89
2, 32077, Note_on_c, 0, 77, 86
2, 32085, Note_on_c, 0, 60, 80
2, 32095, Note_on_c, 0, 62, 0
2, 32100, Note_on_c, 0, 60, 0
2, 32160, Note_on_c, 0, 77, 0
2, 32161, Note_on_c, 0, 74, 76
2, 32233, Note_on_c, 0, 74, 0
2, 32257, Note_on_c, 0, 65, 82
2, 32263, Note_on_c, 0, 69, 75
2, 32288, Note_on_c, 0, 65, 0
2, 32300, Note_on_c, 0, 69, 0
2, 32347, Note_on_c, 0, 74, 73
2, 32389, Note_on_c, 0, 74, 0
2, 32435, Note_on_c, 0, 77, 84
2, 32438, Note_on_c, 0, 57, 94
2, 32466, Note_on_c, 0, 57, 0
2, 32500, Note_on_c, 0, 77, 0
2, 32520, Note_on_c, 0, 74, 77
2, 32583, Note_on_c, 0, 74, 0
2, 32617, Note_on_c, 0, 62, 81
2, 32620, Note_on_c, 0, 69, 71
2, 32648, Note_on_c, 0, 62, 0
2, 32658, Note_on_c, 0, 69, 0
2, 32695, Note_on_c, 0, 74, 74
2, 32761, Note_on_c, 0, 74, 0
2, 32792, Note_on_c, 0, 77, 76
2, 32798, Note_on_c, 0, 50, 83
2, 32825, Note_on_c, 0, 50, 0
2, 32859, Note_on_c, 0, 77, 0
2, 32874, Note_on_c, 0, 74, 73
2, 32946, Note_on_c, 0, 74, 0
2, 32984, Note_on_c, 0, 59, 85
2, 32986, Note_on_c, 0, 69, 66
2, 33008, Note_on_c, 0, 59, 0
2, 33023, Note_on_c, 0, 69, 0
2, 33071, Note_on_c, 0, 74, 68
2, 33104, Note_on_c, 0, 74, 0
2, 33165, Note_on_c, 0, 60, 73
2, 33169, Note_on_c, 0, 76, 63
2, 33186, Note_on_c, 0, 60, 0
2, 33250, Note_on_c, 0, 76, 0
2, 33251, Note_on_c, 0, 74, 65
2, 33311, Note_on_c, 0, 74, 0
2, 33355, Note_on_c, 0, 64, 63
2, 33355, Note_on_c, 0, 69, 57
2, 33379, Note_on_c, 0, 64, 0
2, 33383, Note_on_c, 0, 69, 0
2, 33429, Note_on_c, 0, 74, 62
2, 33462, Note_on_c, 0, 74, 0
2, 33517, Note_on_c, 0, 76, 59
2, 33523, Note_on_c, 0, 57, 60
2, 33551, Note_on_c, 0, 57, 0
2, 33563, Note_on_c, 0, 76, 0
2, 33596, Note_on_c, 0, 72, 62
2, 33645, Note_on_c, 0, 72, 0
2, 33699, Note_on_c, 0, 69, 58
2, 33709, Note_on_c, 0, 60, 58
2, 33739, Note_on_c, 0, 60, 0
2, 33745, Note_on_c, 0, 69, 0
2, 33778, Note_on_c, 0, 72, 60
2, 33822, Note_on_c, 0, 72, 0
2, 33878, Note_on_c, 0, 76, 56
2, 33881, Note_on_c, 0, 48, 59
2, 33906, Note_on_c, 0, 48, 0
2, 33917, Note_on_c, 0, 76, 0
2, 33954, Note_on_c, 0, 72, 56
2, 34000, Note_on_c, 0, 72, 0
2, 34052, Note_on_c, 0, 69, 58
2, 34061, Note_on_c, 0, 57, 58
2, 34082, Note_on_c, 0, 57, 0
2, 34090, Note_on_c, 0, 69, 0
2, 34125, Note_on_c, 0, 72, 54
2, 34156, Control_c, 0, 67, 15
2, 34163, Note_on_c, 0, 72, 0
2, 34171, Control_c, 0, 67, 34
2, 34186, Control_c, 0, 67, 52
2, 34202, Control_c, 0, 67, 66
2, 34216, Control_c, 0, 67, 76
2, 34230, Note_on_c, 0, 59, 51
2, 34232, Control_c, 0, 67, 85
2, 34233, Note_on_c, 0, 74, 51
2, 34247, Control_c, 0, 67, 94
2, 34252, Note_on_c, 0, 59, 0
2, 34262, Control_c, 0, 67, 99
2, 34277, Control_c, 0, 67, 101
2, 34285, Note_on_c, 0, 74, 0
2, 34292, Control_c, 0, 67, 102
2, 34303, Note_on_c, 0, 71, 61
2, 34338, Control_c, 0, 67, 102
2, 34354, Note_on_c, 0, 71, 0
2, 34409, Note_on_c, 0, 69, 57
2, 34421, Note_on_c, 0, 62, 39
2, 34443, Note_on_c, 0, 62, 0
2, 34444, Note_on_c, 0, 69, 0
2, 34481, Note_on_c, 0, 71, 61
2, 34531, Note_on_c, 0, 71, 0
2, 34579, Note_on_c, 0, 56, 55
2, 34582, Note_on_c, 0, 74, 57
2, 34611, Note_on_c, 0, 56, 0
2, 34626, Note_on_c, 0, 74, 0
2, 34660, Note_on_c, 0, 71, 59
2, 34720, Note_on_c, 0, 71, 0
2, 34764, Note_on_c, 0, 68, 60
2, 34765, Note_on_c, 0, 59, 57
2, 34785, Note_on_c, 0, 59, 0
2, 34798, Note_on_c, 0, 68, 0
2, 34847, Note_on_c, 0, 71, 65
2, 34889, Note_on_c, 0, 71, 0
2, 34938, Note_on_c, 0, 74, 59
2, 34957, Note_on_c, 0, 64, 54
2, 34969, Control_c, 0, 67, 102
2, 34976, Note_on_c, 0, 74, 0
2, 34979, Note_on_c, 0, 64, 0
2, 34999, Control_c, 0, 67, 101
2, 35012, Note_on_c, 0, 71, 64
2, 35014, Control_c, 0, 67, 101
2, 35045, Control_c, 0, 67, 100
2, 35060, Control_c, 0, 67, 100
2, 35079, Note_on_c, 0, 71, 0
2, 35090, Control_c, 0, 67, 99
2, 35120, Control_c, 0, 67, 98
2, 35121, Note_on_c, 0, 68, 57
2, 35135, Control_c, 0, 67, 97
2, 35140, Note_on_c, 0, 52, 9
2, 35151, Control_c, 0, 67, 96
2, 35159, Note_on_c, 0, 68, 0
2, 35181, Control_c, 0, 67, 95
2, 35184, Note_on_c, 0, 52, 0
2, 35196, Control_c, 0, 67, 94
2, 35207, Note_on_c, 0, 71, 66
2, 35211, Control_c, 0, 67, 93
2, 35226, Control_c, 0, 67, 92
2, 35232, Note_on_c, 0, 71, 0
2, 35242, Control_c, 0, 67, 91
2, 35280, Control_c, 0, 67, 90
2, 35295, Control_c, 0, 67, 89
2, 35303, Note_on_c, 0, 57, 54
2, 35309, Note_on_c, 0, 72, 68
2, 35311, Control_c, 0, 67, 87
2, 35325, Control_c, 0, 67, 85
2, 35326, Note_on_c, 0, 57, 0
2, 35340, Control_c, 0, 67, 83
2, 35356, Control_c, 0, 67, 81
2, 35371, Control_c, 0, 67, 76
2, 35386, Control_c, 0, 67, 68
2, 35398, Note_on_c, 0, 69, 62
2, 35401, Control_c, 0, 67, 57
2, 35416, Control_c, 0, 67, 42
2, 35432, Control_c, 0, 67, 25
2, 35447, Control_c, 0, 67, 8
2, 35462, Control_c, 0, 67, 0
2, 35464, Note_on_c, 0, 69, 0
2, 35492, Note_on_c, 0, 67, 62
2, 35522, Note_on_c, 0, 67, 0
2, 35574, Note_on_c, 0, 65, 64
2, 35609, Note_on_c, 0, 65, 0
2, 35658, Note_on_c, 0, 64, 71
2, 35684, Note_on_c, 0, 64, 0
2, 35742, Note_on_c, 0, 62, 66
2, 35773, Note_on_c, 0, 62, 0
2, 35831, Note_on_c, 0, 60, 67
2, 35877, Note_on_c, 0, 60, 0
2, 35905, Note_on_c, 0, 59, 66
2, 35941, Note_on_c, 0, 59, 0
2, 35993, Note_on_c, 0, 57, 69
2, 36019, Note_on_c, 0, 57, 0
2, 36073, Note_on_c, 0, 60, 71
2, 36102, Note_on_c, 0, 60, 0
2, 36164, Note_on_c, 0, 52, 60
2, 36193, Note_on_c, 0, 52, 0
2, 36232, Note_on_c, 0, 55, 74
2, 36262, Note_on_c, 0, 55, 0
2, 36327, Note_on_c, 0, 54, 89
2, 36354, Note_on_c, 0, 54, 0
2, 36396, Note_on_c, 0, 72, 0
2, 36410, Note_on_c, 0, 75, 65
2, 36482, Note_on_c, 0, 75, 0
2, 36504, Note_on_c, 0, 74, 67
2, 36513, Note_on_c, 0, 69, 75
2, 36537, Note_on_c, 0, 69, 0
2, 36543, Note_on_c, 0, 74, 0
2, 36591, Note_on_c, 0, 72, 66
2, 36622, Note_on_c, 0, 72, 0
2, 36664, Note_on_c, 0, 78, 86
2, 36683, Note_on_c, 0, 72, 78
2, 36712, Note_on_c, 0, 72, 0
2, 36724, Note_on_c, 0, 78, 0
2, 36757, Note_on_c, 0, 75, 73
2, 36831, Note_on_c, 0, 75, 0
2, 36849, Note_on_c, 0, 74, 71
2, 36860, Note_on_c, 0, 69, 67
2, 36886, Note_on_c, 0, 69, 0
2, 36891, Note_on_c, 0, 74, 0
2, 36937, Note_on_c, 0, 72, 71
2, 36968, Note_on_c, 0, 72, 0
2, 37030, Note_on_c, 0, 81, 80
2, 37043, Note_on_c, 0, 66, 73
2, 37067, Note_on_c, 0, 66, 0
2, 37093, Note_on_c, 0, 81, 0
2, 37103, Note_on_c, 0, 75, 78
2, 37184, Note_on_c, 0, 75, 0
2, 37200, Note_on_c, 0, 74, 69
2, 37202, Note_on_c, 0, 62, 77
2, 37225, Note_on_c, 0, 62, 0
2, 37231, Note_on_c, 0, 74, 0
2, 37280, Note_on_c, 0, 72, 65
2, 37317, Note_on_c, 0, 72, 0
2, 37369, Note_on_c, 0, 70, 73
2, 37379, Note_on_c, 0, 67, 90
2, 37399, Note_on_c, 0, 70, 0
2, 37407, Note_on_c, 0, 67, 0
2, 37454, Note_on_c, 0, 79, 73
2, 37537, Note_on_c, 0, 77, 81
2, 37546, Note_on_c, 0, 79, 0
2, 37551, Note_on_c, 0, 55, 88
2, 37586, Note_on_c, 0, 55, 0
2, 37623, Note_on_c, 0, 77, 0
2, 37634, Note_on_c, 0, 75, 81
2, 37721, Note_on_c, 0, 74, 79
2, 37724, Note_on_c, 0, 58, 91
2, 37724, Note_on_c, 0, 75, 0
2, 37768, Note_on_c, 0, 58, 0
2, 37768, Note_on_c, 0, 74, 0
2, 37802, Note_on_c, 0, 72, 77
2, 37840, Note_on_c, 0, 72, 0
2, 37895, Note_on_c, 0, 70, 79
2, 37899, Note_on_c, 0, 62, 95
2, 37918, Note_on_c, 0, 62, 0
2, 37962, Note_on_c, 0, 70, 0
2, 37970, Note_on_c, 0, 69, 75
2, 38037, Note_on_c, 0, 69, 0
2, 38073, Note_on_c, 0, 72, 79
2, 38074, Note_on_c, 0, 67, 96
2, 38117, Note_on_c, 0, 67, 0
2, 38155, Note_on_c, 0, 72, 0
2, 38164, Note_on_c, 0, 70, 74
2, 38240, Note_on_c, 0, 65, 74
2, 38242, Note_on_c, 0, 69, 74
2, 38249, Note_on_c, 0, 70, 0
2, 38267, Note_on_c, 0, 65, 0
2, 38293, Note_on_c, 0, 69, 0
2, 38343, Note_on_c, 0, 67, 65
2, 38378, Note_on_c, 0, 67, 0
2, 38427, Note_on_c, 0, 72, 74
2, 38430, Note_on_c, 0, 64, 68
2, 38449, Note_on_c, 0, 72, 0
2, 38482, Note_on_c, 0, 64, 0
2, 38503, Note_on_c, 0, 61, 69
2, 38545, Note_on_c, 0, 61, 0
2, 38589, Note_on_c, 0, 60, 59
2, 38602, Note_on_c, 0, 76, 73
2, 38629, Note_on_c, 0, 76, 0
2, 38650, Note_on_c, 0, 60, 0
2, 38670, Note_on_c, 0, 58, 63
2, 38704, Note_on_c, 0, 58, 0
2, 38762, Note_on_c, 0, 71, 83
2, 38767, Note_on_c, 0, 65, 64
2, 38783, Note_on_c, 0, 71, 0
2, 38800, Note_on_c, 0, 65, 0
2, 38842, Note_on_c, 0, 61, 65
2, 38903, Note_on_c, 0, 61, 0
2, 38924, Note_on_c, 0, 77, 91
2, 38934, Note_on_c, 0, 60, 55
2, 38954, Note_on_c, 0, 77, 0
2, 38994, Note_on_c, 0, 60, 0
2, 39015, Note_on_c, 0, 58, 60
2, 39053, Note_on_c, 0, 58, 0
2, 39102, Note_on_c, 0, 70, 73
2, 39118, Note_on_c, 0, 67, 66
2, 39137, Note_on_c, 0, 70, 0
2, 39155, Note_on_c, 0, 67, 0
2, 39197, Note_on_c, 0, 61, 64
2, 39255, Note_on_c, 0, 61, 0
2, 39278, Note_on_c, 0, 79, 92
2, 39283, Note_on_c, 0, 60, 59
2, 39343, Note_on_c, 0, 60, 0
2, 39370, Note_on_c, 0, 58, 63
2, 39395, Note_on_c, 0, 58, 0
2, 39472, Note_on_c, 0, 57, 76
2, 39512, Note_on_c, 0, 57, 0
2, 39532, Note_on_c, 0, 79, 0
2, 39536, Note_on_c, 0, 74, 73
2, 39556, Note_on_c, 0, 65, 63
2, 39585, Note_on_c, 0, 65, 0
2, 39616, Note_on_c, 0, 74, 0
2, 39631, Note_on_c, 0, 72, 71
2, 39634, Note_on_c, 0, 64, 65
2, 39663, Note_on_c, 0, 72, 0
2, 39678, Note_on_c, 0, 64, 0
2, 39699, Note_on_c, 0, 62, 58
2, 39714, Note_on_c, 0, 70, 74
2, 39727, Note_on_c, 0, 62, 0
2, 39742, Note_on_c, 0, 70, 0
2, 39806, Note_on_c, 0, 60, 67
2, 39811, Note_on_c, 0, 69, 79
2, 39848, Note_on_c, 0, 60, 0
2, 39857, Note_on_c, 0, 69, 0
2, 39887, Note_on_c, 0, 58, 65
2, 39894, Note_on_c, 0, 79, 81
2, 39919, Note_on_c, 0, 58, 0
2, 39960, Note_on_c, 0, 79, 0
2, 39970, Note_on_c, 0, 57, 53
2, 39979, Note_on_c, 0, 77, 79
2, 40016, Note_on_c, 0, 57, 0
2, 40033, Note_on_c, 0, 77, 0
2, 40057, Note_on_c, 0, 55, 55
2, 40062, Note_on_c, 0, 76, 76
2, 40105, Note_on_c, 0, 55, 0
2, 40137, Note_on_c, 0, 76, 0
2, 40138, Note_on_c, 0, 58, 71
2, 40142, Note_on_c, 0, 74, 76
2, 40169, Note_on_c, 0, 58, 0
2, 40197, Note_on_c, 0, 74, 0
2, 40231, Note_on_c, 0, 77, 71
2, 40232, Note_on_c, 0, 57, 63
2, 40261, Note_on_c, 0, 57, 0
2, 40301, Note_on_c, 0, 77, 0
2, 40308, Note_on_c, 0, 55, 67
2, 40308, Note_on_c, 0, 76, 74
2, 40346, Note_on_c, 0, 55, 0
2, 40356, Note_on_c, 0, 76, 0
2, 40386, Note_on_c, 0, 53, 52
2, 40393, Note_on_c, 0, 74, 68
2, 40415, Note_on_c, 0, 53, 0
2, 40428, Note_on_c, 0, 74, 0
2, 40478, Note_on_c, 0, 52, 77
2, 40481, Note_on_c, 0, 73, 88
2, 40508, Note_on_c, 0, 52, 0
2, 40528, Note_on_c, 0, 73, 0
2, 40571, Note_on_c, 0, 70, 75
2, 40582, Note_on_c, 0, 67, 70
2, 40613, Note_on_c, 0, 67, 0
2, 40626, Note_on_c, 0, 70, 0
2, 40664, Note_on_c, 0, 69, 73
2, 40675, Note_on_c, 0, 65, 59
2, 40700, Note_on_c, 0, 69, 0
2, 40713, Note_on_c, 0, 65, 0
2, 40751, Note_on_c, 0, 64, 48
2, 40753, Note_on_c, 0, 67, 64
2, 40785, Note_on_c, 0, 67, 0
2, 40786, Note_on_c, 0, 64, 0
2, 40838, Note_on_c, 0, 74, 80
2, 40840, Note_on_c, 0, 62, 72
2, 40873, Note_on_c, 0, 62, 0
2, 40887, Note_on_c, 0, 74, 0
2, 40919, Note_on_c, 0, 70, 76
2, 40928, Note_on_c, 0, 67, 69
2, 40957, Note_on_c, 0, 67, 0
2, 40976, Note_on_c, 0, 70, 0
2, 41015, Note_on_c, 0, 65, 58
2, 41016, Note_on_c, 0, 69, 68
2, 41047, Note_on_c, 0, 69, 0
2, 41052, Note_on_c, 0, 65, 0
2, 41076, Note_on_c, 0, 64, 56
2, 41091, Note_on_c, 0, 67, 68
2, 41104, Note_on_c, 0, 64, 0
2, 41126, Note_on_c, 0, 67, 0
2, 41172, Note_on_c, 0, 61, 70
2, 41175, Note_on_c, 0, 76, 82
2, 41201, Note_on_c, 0, 61, 0
2, 41236, Note_on_c, 0, 76, 0
2, 41255, Note_on_c, 0, 70, 69
2, 41275, Note_on_c, 0, 67, 53
2, 41298, Note_on_c, 0, 67, 0
2, 41316, Note_on_c, 0, 70, 0
2, 41335, Note_on_c, 0, 65, 56
2, 41343, Note_on_c, 0, 69, 69
2, 41365, Note_on_c, 0, 65, 0
2, 41384, Note_on_c, 0, 69, 0
2, 41402, Note_on_c, 0, 64, 35
2, 41403, Note_on_c, 0, 64, 0
2, 41419, Note_on_c, 0, 67, 56
2, 41454, Note_on_c, 0, 67, 0
2, 41508, Note_on_c, 0, 65, 68
2, 41512, Note_on_c, 0, 50, 66
2, 41535, Note_on_c, 0, 65, 0
2, 41540, Note_on_c, 0, 50, 0
2, 41603, Note_on_c, 0, 63, 61
2, 41624, Note_on_c, 0, 63, 0
2, 41686, Note_on_c, 0, 66, 72
2, 41689, Note_on_c, 0, 62, 64
2, 41712, Note_on_c, 0, 66, 0
2, 41743, Note_on_c, 0, 62, 0
2, 41771, Note_on_c, 0, 60, 56
2, 41822, Note_on_c, 0, 60, 0
2, 41856, Note_on_c, 0, 67, 74
2, 41858, Note_on_c, 0, 58, 59
2, 41879, Note_on_c, 0, 67, 0
2, 41888, Note_on_c, 0, 58, 0
2, 41945, Note_on_c, 0, 60, 59
2, 41974, Note_on_c, 0, 60, 0
2, 42019, Note_on_c, 0, 58, 62
2, 42030, Note_on_c, 0, 69, 67
2, 42054, Note_on_c, 0, 69, 0
2, 42057, Note_on_c, 0, 58, 0
2, 42122, Note_on_c, 0, 57, 50
2, 42166, Note_on_c, 0, 57, 0
2, 42210, Note_on_c, 0, 70, 79
2, 42216, Note_on_c, 0, 55, 57
2, 42234, Note_on_c, 0, 70, 0
2, 42249, Note_on_c, 0, 55, 0
2, 42306, Note_on_c, 0, 57, 54
2, 42344, Note_on_c, 0, 57, 0
2, 42399, Note_on_c, 0, 71, 84
2, 42403, Note_on_c, 0, 55, 44
2, 42422, Note_on_c, 0, 71, 0
2, 42441, Note_on_c, 0, 55, 0
2, 42471, Note_on_c, 0, 53, 47
2, 42514, Note_on_c, 0, 53, 0
2, 42566, Note_on_c, 0, 72, 89
2, 42567, Note_on_c, 0, 52, 55
2, 42594, Note_on_c, 0, 72, 0
2, 42608, Note_on_c, 0, 52, 0
2, 42644, Note_on_c, 0, 58, 68
2, 42684, Note_on_c, 0, 58, 0
2, 42744, Note_on_c, 0, 57, 66
2, 42744, Note_on_c, 0, 73, 91
2, 42780, Note_on_c, 0, 73, 0
2, 42790, Note_on_c, 0, 57, 0
2, 42833, Note_on_c, 0, 55, 68
2, 42875, Note_on_c, 0, 55, 0
2, 42918, Note_on_c, 0, 53, 73
2, 42923, Note_on_c, 0, 74, 97
2, 42971, Note_on_c, 0, 74, 0
2, 42973, Note_on_c, 0, 53, 0
2, 43009, Note_on_c, 0, 55, 72
2, 43066, Note_on_c, 0, 55, 0
2, 43098, Note_on_c, 0, 76, 100
2, 43105, Note_on_c, 0, 53, 71
2, 43133, Note_on_c, 0, 76, 0
2, 43172, Note_on_c, 0, 53, 0
2, 43179, Note_on_c, 0, 52, 56
2, 43250, Note_on_c, 0, 52, 0
2, 43273, Note_on_c, 0, 50, 69
2, 43273, Note_on_c, 0, 77, 101
2, 43312, Note_on_c, 0, 77, 0
2, 43355, Note_on_c, 0, 50, 0
2, 43356, Note_on_c, 0, 51, 80
2, 43422, Note_on_c, 0, 51, 0
2, 43450, Note_on_c, 0, 78, 94
2, 43453, Note_on_c, 0, 50, 75
2, 43507, Note_on_c, 0, 78, 0
2, 43519, Note_on_c, 0, 50, 0
2, 43520, Note_on_c, 0, 48, 80
2, 43557, Note_on_c, 0, 48, 0
2, 43615, Note_on_c, 0, 46, 89
2, 43615, Note_on_c, 0, 79, 90
2, 43639, Note_on_c, 0, 46, 0
2, 43657, Note_on_c, 0, 79, 0
2, 43696, Note_on_c, 0, 74, 77
2, 43764, Note_on_c, 0, 74, 0
2, 43799, Note_on_c, 0, 82, 87
2, 43802, Note_on_c, 0, 43, 92
2, 43830, Note_on_c, 0, 43, 0
2, 43839, Note_on_c, 0, 82, 0
2, 43887, Note_on_c, 0, 81, 81
2, 43973, Note_on_c, 0, 81, 0
2, 43977, Note_on_c, 0, 79, 90
2, 43979, Note_on_c, 0, 46, 94
2, 44022, Note_on_c, 0, 46, 0
2, 44040, Note_on_c, 0, 79, 0
2, 44061, Note_on_c, 0, 77, 87
2, 44105, Note_on_c, 0, 77, 0
2, 44153, Note_on_c, 0, 50, 100
2, 44158, Note_on_c, 0, 76, 87
2, 44173, Note_on_c, 0, 50, 0
2, 44213, Note_on_c, 0, 76, 0
2, 44244, Note_on_c, 0, 74, 78
2, 44304, Note_on_c, 0, 74, 0
2, 44341, Note_on_c, 0, 55, 96
2, 44348, Note_on_c, 0, 73, 75
2, 44414, Note_on_c, 0, 73, 0
2, 44422, Note_on_c, 0, 74, 71
2, 44515, Note_on_c, 0, 74, 0
2, 44516, Note_on_c, 0, 76, 80
2, 44591, Note_on_c, 0, 73, 76
2, 44593, Note_on_c, 0, 76, 0
2, 44624, Note_on_c, 0, 73, 0
2, 44633, Note_on_c, 0, 55, 0
2, 44680, Note_on_c, 0, 69, 83
2, 44701, Note_on_c, 0, 69, 0
2, 44752, Note_on_c, 0, 55, 78
2, 44787, Note_on_c, 0, 55, 0
2, 44842, Note_on_c, 0, 45, 76
2, 44859, Note_on_c, 0, 64, 91
2, 44887, Note_on_c, 0, 64, 0
2, 44916, Note_on_c, 0, 45, 0
2, 44928, Note_on_c, 0, 43, 62
2, 45012, Note_on_c, 0, 45, 78
2, 45022, Note_on_c, 0, 43, 0
2, 45022, Note_on_c, 0, 69, 94
2, 45054, Note_on_c, 0, 69, 0
2, 45061, Note_on_c, 0, 45, 0
2, 45118, Note_on_c, 0, 55, 70
2, 45152, Note_on_c, 0, 55, 0
2, 45186, Note_on_c, 0, 73, 91
2, 45211, Note_on_c, 0, 45, 74
2, 45211, Note_on_c, 0, 73, 0
2, 45250, Note_on_c, 0, 45, 0
2, 45312, Note_on_c, 0, 55, 62
2, 45339, Note_on_c, 0, 55, 0
2, 45362, Note_on_c, 0, 76, 91
2, 45379, Note_on_c, 0, 74, 83
2, 45386, Note_on_c, 0, 76, 0
2, 45399, Note_on_c, 0, 45, 71
2, 45434, Note_on_c, 0, 76, 85
2, 45437, Note_on_c, 0, 45, 0
2, 45444, Note_on_c, 0, 74, 0
2, 45472, Note_on_c, 0, 55, 69
2, 45507, Note_on_c, 0, 55, 0
2, 45564, Note_on_c, 0, 45, 72
2, 45608, Note_on_c, 0, 45, 0
2, 45644, Note_on_c, 0, 55, 71
2, 45678, Note_on_c, 0, 55, 0
2, 45727, Note_on_c, 0, 45, 77
2, 45758, Note_on_c, 0, 45, 0
2, 45810, Note_on_c, 0, 69, 86
2, 45812, Note_on_c, 0, 53, 73
2, 45822, Note_on_c, 0, 76, 0
2, 45843, Note_on_c, 0, 53, 0
2, 45861, Note_on_c, 0, 69, 0
2, 45883, Note_on_c, 0, 45, 54
2, 45897, Note_on_c, 0, 65, 87
2, 45944, Note_on_c, 0, 65, 0
2, 45957, Note_on_c, 0, 45, 0
2, 45966, Note_on_c, 0, 43, 64
2, 45981, Note_on_c, 0, 69, 83
2, 46033, Note_on_c, 0, 69, 0
2, 46059, Note_on_c, 0, 43, 0
2, 46063, Note_on_c, 0, 45, 68
2, 46077, Note_on_c, 0, 74, 82
2, 46100, Note_on_c, 0, 45, 0
2, 46113, Note_on_c, 0, 74, 0
2, 46153, Note_on_c, 0, 69, 77
2, 46155, Note_on_c, 0, 53, 66
2, 46183, Note_on_c, 0, 53, 0
2, 46202, Note_on_c, 0, 69, 0
2, 46233, Note_on_c, 0, 45, 54
2, 46246, Note_on_c, 0, 65, 66
2, 46279, Note_on_c, 0, 45, 0
2, 46280, Note_on_c, 0, 65, 0
2, 46314, Note_on_c, 0, 69, 70
2, 46322, Note_on_c, 0, 53, 48
2, 46337, Note_on_c, 0, 69, 0
2, 46358, Note_on_c, 0, 53, 0
2, 46403, Note_on_c, 0, 74, 80
2, 46426, Note_on_c, 0, 74, 0
2, 46427, Note_on_c, 0, 45, 63
2, 46431, Note_on_c, 0, 72, 68
2, 46461, Note_on_c, 0, 45, 0
2, 46480, Note_on_c, 0, 72, 0
2, 46486, Note_on_c, 0, 74, 80
2, 46504, Note_on_c, 0, 53, 50
2, 46539, Note_on_c, 0, 53, 0
2, 46599, Note_on_c, 0, 45, 62
2, 46635, Note_on_c, 0, 45, 0
2, 46673, Note_on_c, 0, 53, 58
2, 46712, Note_on_c, 0, 53, 0
2, 46764, Note_on_c, 0, 45, 62
2, 46802, Note_on_c, 0, 45, 0
2, 46855, Note_on_c, 0, 74, 0
2, 46865, Note_on_c, 0, 67, 57
2, 46877, Note_on_c, 0, 52, 42
2, 46905, Note_on_c, 0, 52, 0
2, 46907, Note_on_c, 0, 67, 0
2, 46943, Note_on_c, 0, 45, 49
2, 46951, Note_on_c, 0, 64, 64
2, 46986, Note_on_c, 0, 64, 0
2, 47013, Note_on_c, 0, 45, 0
2, 47028, Note_on_c, 0, 67, 58
2, 47051, Note_on_c, 0, 43, 46
2, 47066, Note_on_c, 0, 67, 0
2, 47116, Note_on_c, 0, 72, 71
2, 47122, Note_on_c, 0, 43, 0
2, 47137, Note_on_c, 0, 45, 59
2, 47151, Note_on_c, 0, 72, 0
2, 47176, Note_on_c, 0, 45, 0
2, 47212, Note_on_c, 0, 67, 55
2, 47224, Note_on_c, 0, 52, 54
2, 47250, Note_on_c, 0, 67, 0
2, 47253, Note_on_c, 0, 52, 0
2, 47306, Note_on_c, 0, 45, 52
2, 47306, Note_on_c, 0, 64, 52
2, 47344, Note_on_c, 0, 45, 0
2, 47347, Note_on_c, 0, 64, 0
2, 47362, Note_on_c, 0, 67, 63
2, 47378, Note_on_c, 0, 52, 44
2, 47390, Note_on_c, 0, 67, 0
2, 47419, Note_on_c, 0, 52, 0
2, 47471, Note_on_c, 0, 72, 57
2, 47483, Note_on_c, 0, 71, 58
2, 47489, Note_on_c, 0, 72, 0
2, 47490, Note_on_c, 0, 45, 50
2, 47502, Note_on_c, 0, 70, 66
2, 47502, Note_on_c, 0, 71, 0
2, 47520, Note_on_c, 0, 45, 0
2, 47546, Note_on_c, 0, 70, 0
2, 47565, Note_on_c, 0, 72, 73
2, 47568, Note_on_c, 0, 52, 45
2, 47610, Note_on_c, 0, 52, 0
2, 47660, Note_on_c, 0, 45, 55
2, 47695, Note_on_c, 0, 45, 0
2, 47736, Note_on_c, 0, 52, 51
2, 47769, Note_on_c, 0, 52, 0
2, 47836, Note_on_c, 0, 45, 54
2, 47867, Note_on_c, 0, 45, 0
2, 47915, Note_on_c, 0, 72, 0
2, 47922, Note_on_c, 0, 50, 62
2, 47925, Note_on_c, 0, 65, 60
2, 47959, Note_on_c, 0, 50, 0
2, 47971, Note_on_c, 0, 65, 0
2, 48017, Note_on_c, 0, 53, 51
2, 48017, Note_on_c, 0, 62, 59
2, 48043, Note_on_c, 0, 53, 0
2, 48057, Note_on_c, 0, 62, 0
2, 48094, Note_on_c, 0, 65, 62
2, 48097, Note_on_c, 0, 50, 38
2, 48124, Note_on_c, 0, 65, 0
2, 48130, Note_on_c, 0, 50, 0
2, 48173, Note_on_c, 0, 70, 78
2, 48186, Note_on_c, 0, 45, 63
2, 48217, Note_on_c, 0, 45, 0
2, 48219, Note_on_c, 0, 70, 0
2, 48259, Note_on_c, 0, 50, 58
2, 48268, Note_on_c, 0, 65, 70
2, 48299, Note_on_c, 0, 50, 0
2, 48313, Note_on_c, 0, 65, 0
2, 48366, Note_on_c, 0, 62, 65
2, 48369, Note_on_c, 0, 53, 66
2, 48400, Note_on_c, 0, 53, 0
2, 48401, Note_on_c, 0, 62, 0
2, 48431, Note_on_c, 0, 65, 68
2, 48456, Note_on_c, 0, 57, 53
2, 48464, Note_on_c, 0, 65, 0
2, 48480, Note_on_c, 0, 57, 0
2, 48524, Note_on_c, 0, 70, 75
2, 48535, Note_on_c, 0, 43, 69
2, 48562, Note_on_c, 0, 43, 0
2, 48587, Note_on_c, 0, 70, 0
2, 48605, Note_on_c, 0, 67, 71
2, 48615, Note_on_c, 0, 52, 68
2, 48647, Note_on_c, 0, 52, 0
2, 48663, Note_on_c, 0, 67, 0
2, 48696, Note_on_c, 0, 55, 67
2, 48697, Note_on_c, 0, 64, 71
2, 48730, Note_on_c, 0, 55, 0
2, 48734, Note_on_c, 0, 64, 0
2, 48779, Note_on_c, 0, 58, 72
2, 48788, Note_on_c, 0, 67, 61
2, 48810, Note_on_c, 0, 58, 0
2, 48823, Note_on_c, 0, 67, 0
2, 48874, Note_on_c, 0, 61, 75
2, 48878, Note_on_c, 0, 55, 81
2, 48905, Note_on_c, 0, 55, 0
2, 48914, Note_on_c, 0, 61, 0
2, 48963, Note_on_c, 0, 69, 60
2, 49025, Note_on_c, 0, 69, 0
2, 49047, Note_on_c, 0, 70, 65
2, 49053, Note_on_c, 0, 49, 76
2, 49080, Note_on_c, 0, 49, 0
2, 49117, Note_on_c, 0, 70, 0
2, 49132, Note_on_c, 0, 69, 68
2, 49199, Note_on_c, 0, 69, 0
2, 49242, Note_on_c, 0, 61, 70
2, 49247, Note_on_c, 0, 52, 80
2, 49274, Note_on_c, 0, 52, 0
2, 49281, Note_on_c, 0, 61, 0
2, 49321, Note_on_c, 0, 69, 68
2, 49394, Note_on_c, 0, 69, 0
2, 49416, Note_on_c, 0, 70, 69
2, 49421, Note_on_c, 0, 43, 65
2, 49447, Note_on_c, 0, 43, 0
2, 49499, Note_on_c, 0, 69, 67
2, 49501, Note_on_c, 0, 70, 0
2, 49538, Note_on_c, 0, 69, 0
2, 49598, Note_on_c, 0, 61, 79
2, 49625, Note_on_c, 0, 61, 0
2, 49678, Note_on_c, 0, 46, 76
2, 49711, Note_on_c, 0, 46, 0
2, 49757, Note_on_c, 0, 64, 80
2, 49768, Note_on_c, 0, 45, 75
2, 49826, Note_on_c, 0, 45, 0
2, 49848, Note_on_c, 0, 43, 72
2, 49893, Note_on_c, 0, 43, 0
2, 49947, Note_on_c, 0, 41, 91
2, 49991, Note_on_c, 0, 41, 0
2, 50020, Note_on_c, 0, 64, 0
2, 50022, Note_on_c, 0, 69, 74
2, 50038, Note_on_c, 0, 53, 75
2, 50066, Note_on_c, 0, 53, 0
2, 50089, Note_on_c, 0, 69, 0
2, 50117, Note_on_c, 0, 70, 58
2, 50119, Note_on_c, 0, 52, 65
2, 50155, Note_on_c, 0, 52, 0
2, 50187, Note_on_c, 0, 70, 0
2, 50205, Note_on_c, 0, 53, 68
2, 50208, Note_on_c, 0, 69, 50
2, 50235, Note_on_c, 0, 69, 0
2, 50244, Note_on_c, 0, 53, 0
2, 50290, Note_on_c, 0, 62, 69
2, 50302, Note_on_c, 0, 41, 73
2, 50326, Note_on_c, 0, 62, 0
2, 50341, Note_on_c, 0, 41, 0
2, 50369, Note_on_c, 0, 69, 59
2, 50389, Note_on_c, 0, 53, 64
2, 50418, Note_on_c, 0, 53, 0
2, 50432, Note_on_c, 0, 69, 0
2, 50467, Note_on_c, 0, 70, 60
2, 50470, Note_on_c, 0, 52, 70
2, 50498, Note_on_c, 0, 52, 0
2, 50504, Note_on_c, 0, 70, 0
2, 50539, Note_on_c, 0, 53, 67
2, 50559, Note_on_c, 0, 69, 54
2, 50580, Note_on_c, 0, 53, 0
2, 50592, Note_on_c, 0, 69, 0
2, 50648, Note_on_c, 0, 41, 77
2, 50648, Note_on_c, 0, 62, 77
2, 50675, Note_on_c, 0, 62, 0
2, 50685, Note_on_c, 0, 41, 0
2, 50730, Note_on_c, 0, 53, 70
2, 50758, Note_on_c, 0, 53, 0
2, 50816, Note_on_c, 0, 65, 90
2, 50822, Note_on_c, 0, 52, 70
2, 50867, Note_on_c, 0, 52, 0
2, 50892, Note_on_c, 0, 50, 76
2, 50925, Note_on_c, 0, 50, 0
2, 50986, Note_on_c, 0, 49, 90
2, 51026, Note_on_c, 0, 49, 0
2, 51078, Note_on_c, 0, 67, 76
2, 51079, Note_on_c, 0, 65, 0
2, 51142, Note_on_c, 0, 67, 0
2, 51176, Note_on_c, 0, 69, 71
2, 51181, Note_on_c, 0, 40, 79
2, 51210, Note_on_c, 0, 40, 0
2, 51236, Note_on_c, 0, 69, 0
2, 51252, Note_on_c, 0, 67, 74
2, 51307, Note_on_c, 0, 67, 0
2, 51351, Note_on_c, 0, 64, 82
2, 51352, Note_on_c, 0, 43, 75
2, 51383, Note_on_c, 0, 43, 0
2, 51417, Note_on_c, 0, 64, 0
2, 51442, Note_on_c, 0, 67, 73
2, 51517, Note_on_c, 0, 67, 0
2, 51526, Note_on_c, 0, 37, 71
2, 51527, Note_on_c, 0, 69, 71
2, 51553, Note_on_c, 0, 37, 0
2, 51605, Note_on_c, 0, 69, 0
2, 51613, Note_on_c, 0, 67, 71
2, 51643, Note_on_c, 0, 67, 0
2, 51707, Note_on_c, 0, 57, 82
2, 51738, Note_on_c, 0, 57, 0
2, 51783, Note_on_c, 0, 49, 58
2, 51818, Note_on_c, 0, 49, 0
2, 51864, Note_on_c, 0, 47, 74
2, 51867, Note_on_c, 0, 67, 92
2, 51917, Note_on_c, 0, 47, 0
2, 51950, Note_on_c, 0, 45, 79
2, 51982, Note_on_c, 0, 45, 0
2, 52060, Note_on_c, 0, 50, 92
2, 52093, Note_on_c, 0, 50, 0
2, 52137, Note_on_c, 0, 58, 77
2, 52146, Note_on_c, 0, 67, 0
2, 52218, Note_on_c, 0, 58, 0
2, 52240, Note_on_c, 0, 57, 72
2, 52252, Note_on_c, 0, 38, 82
2, 52273, Note_on_c, 0, 57, 0
2, 52280, Note_on_c, 0, 38, 0
2, 52322, Note_on_c, 0, 55, 73
2, 52402, Note_on_c, 0, 55, 0
2, 52428, Note_on_c, 0, 41, 83
2, 52438, Note_on_c, 0, 57, 64
2, 52456, Note_on_c, 0, 41, 0
2, 52475, Note_on_c, 0, 57, 0
2, 52508, Note_on_c, 0, 64, 74
2, 52572, Note_on_c, 0, 64, 0
2, 52603, Note_on_c, 0, 45, 83
2, 52608, Note_on_c, 0, 62, 80
2, 52626, Note_on_c, 0, 45, 0
2, 52688, Note_on_c, 0, 62, 0
2, 52701, Note_on_c, 0, 61, 69
2, 52773, Note_on_c, 0, 50, 75
2, 52785, Note_on_c, 0, 61, 0
2, 52800, Note_on_c, 0, 62, 76
2, 52804, Note_on_c, 0, 49, 79
2, 52805, Note_on_c, 0, 50, 0
2, 52845, Note_on_c, 0, 62, 0
2, 52857, Note_on_c, 0, 49, 0
2, 52863, Note_on_c, 0, 50, 85
2, 52882, Note_on_c, 0, 67, 75
2, 52945, Note_on_c, 0, 67, 0
2, 52960, Note_on_c, 0, 50, 0
2, 52967, Note_on_c, 0, 65, 76
2, 53035, Note_on_c, 0, 65, 0
2, 53049, Note_on_c, 0, 64, 67
2, 53076, Note_on_c, 0, 64, 0
2, 53133, Note_on_c, 0, 65, 86
2, 53181, Note_on_c, 0, 65, 0
2, 53217, Note_on_c, 0, 58, 75
2, 53225, Note_on_c, 0, 55, 61
2, 53248, Note_on_c, 0, 58, 0
2, 53255, Note_on_c, 0, 55, 0
2, 53325, Note_on_c, 0, 60, 63
2, 53328, Note_on_c, 0, 57, 45
2, 53353, Note_on_c, 0, 57, 0
2, 53355, Note_on_c, 0, 60, 0
2, 53393, Note_on_c, 0, 58, 68
2, 53402, Note_on_c, 0, 62, 70
2, 53418, Note_on_c, 0, 58, 0
2, 53432, Note_on_c, 0, 62, 0
2, 53495, Note_on_c, 0, 63, 81
2, 53499, Note_on_c, 0, 48, 67
2, 53528, Note_on_c, 0, 48, 0
2, 53536, Note_on_c, 0, 63, 0
2, 53577, Note_on_c, 0, 57, 69
2, 53590, Note_on_c, 0, 54, 59
2, 53609, Note_on_c, 0, 57, 0
2, 53616, Note_on_c, 0, 54, 0
2, 53668, Note_on_c, 0, 58, 62
2, 53681, Note_on_c, 0, 55, 58
2, 53705, Note_on_c, 0, 58, 0
2, 53719, Note_on_c, 0, 55, 0
2, 53764, Note_on_c, 0, 60, 65
2, 53778, Note_on_c, 0, 57, 45
2, 53800, Note_on_c, 0, 60, 0
2, 53807, Note_on_c, 0, 57, 0
2, 53858, Note_on_c, 0, 46, 63
2, 53858, Note_on_c, 0, 62, 79
2, 53889, Note_on_c, 0, 46, 0
2, 53900, Note_on_c, 0, 62, 0
2, 53944, Note_on_c, 0, 58, 68
2, 53947, Note_on_c, 0, 55, 64
2, 53970, Note_on_c, 0, 58, 0
2, 53976, Note_on_c, 0, 55, 0
2, 54030, Note_on_c, 0, 57, 60
2, 54054, Note_on_c, 0, 60, 63
2, 54070, Note_on_c, 0, 57, 0
2, 54096, Note_on_c, 0, 60, 0
2, 54126, Note_on_c, 0, 62, 63
2, 54132, Note_on_c, 0, 58, 51
2, 54154, Note_on_c, 0, 58, 0
2, 54160, Note_on_c, 0, 62, 0
2, 54228, Note_on_c, 0, 63, 81
2, 54238, Note_on_c, 0, 48, 69
2, 54265, Note_on_c, 0, 48, 0
2, 54267, Note_on_c, 0, 63, 0
2, 54313, Note_on_c, 0, 57, 68
2, 54328, Note_on_c, 0, 54, 60
2, 54346, Note_on_c, 0, 57, 0
2, 54357, Note_on_c, 0, 54, 0
2, 54407, Note_on_c, 0, 58, 59
2, 54420, Note_on_c, 0, 55, 56
2, 54434, Note_on_c, 0, 58, 0
2, 54445, Note_on_c, 0, 55, 0
2, 54500, Note_on_c, 0, 60, 64
2, 54537, Note_on_c, 0, 60, 0
2, 54540, Note_on_c, 0, 57, 10
2, 54564, Note_on_c, 0, 57, 0
2, 54598, Note_on_c, 0, 46, 70
2, 54601, Note_on_c, 0, 62, 78
2, 54627, Note_on_c, 0, 46, 0
2, 54638, Note_on_c, 0, 62, 0
2, 54683, Note_on_c, 0, 55, 67
2, 54683, Note_on_c, 0, 58, 72
2, 54714, Note_on_c, 0, 55, 0
2, 54717, Note_on_c, 0, 58, 0
2, 54781, Note_on_c, 0, 57, 58
2, 54785, Note_on_c, 0, 60, 67
2, 54815, Note_on_c, 0, 57, 0
2, 54830, Note_on_c, 0, 60, 0
2, 54861, Note_on_c, 0, 62, 61
2, 54863, Note_on_c, 0, 58, 56
2, 54888, Note_on_c, 0, 58, 0
2, 54901, Note_on_c, 0, 62, 0
2, 54947, Note_on_c, 0, 60, 78
2, 54969, Note_on_c, 0, 45, 58
2, 54983, Note_on_c, 0, 60, 0
2, 54998, Note_on_c, 0, 45, 0
2, 55039, Note_on_c, 0, 54, 70
2, 55044, Note_on_c, 0, 50, 65
2, 55069, Note_on_c, 0, 54, 0
2, 55073, Note_on_c, 0, 50, 0
2, 55127, Note_on_c, 0, 52, 66
2, 55131, Note_on_c, 0, 55, 71
2, 55154, Note_on_c, 0, 52, 0
2, 55163, Note_on_c, 0, 55, 0
2, 55201, Note_on_c, 0, 57, 72
2, 55212, Note_on_c, 0, 54, 73
2, 55239, Note_on_c, 0, 57, 0
2, 55252, Note_on_c, 0, 54, 0
2, 55304, Note_on_c, 0, 58, 78
2, 55323, Note_on_c, 0, 43, 70
2, 55367, Note_on_c, 0, 43, 0
2, 55405, Note_on_c, 0, 50, 65
2, 55442, Note_on_c, 0, 50, 0
2, 55485, Note_on_c, 0, 52, 63
2, 55511, Note_on_c, 0, 52, 0
2, 55533, Note_on_c, 0, 58, 0
2, 55560, Note_on_c, 0, 54, 71
2, 55584, Note_on_c, 0, 54, 0
2, 55644, Note_on_c, 0, 55, 83
2, 55720, Note_on_c, 0, 55, 0
2, 55736, Note_on_c, 0, 57, 76
2, 55769, Note_on_c, 0, 57, 0
2, 55817, Note_on_c, 0, 58, 76
2, 55838, Note_on_c, 0, 58, 0
2, 55899, Note_on_c, 0, 60, 81
2, 55942, Note_on_c, 0, 60, 0
2, 55988, Note_on_c, 0, 62, 78
2, 56035, Note_on_c, 0, 62, 0
2, 56075, Note_on_c, 0, 58, 73
2, 56102, Note_on_c, 0, 58, 0
2, 56167, Note_on_c, 0, 67, 85
2, 56193, Note_on_c, 0, 67, 0
2, 56244, Note_on_c, 0, 62, 82
2, 56281, Note_on_c, 0, 62, 0
2, 56331, Note_on_c, 0, 70, 83
2, 56368, Note_on_c, 0, 70, 0
2, 56415, Note_on_c, 0, 67, 83
2, 56459, Note_on_c, 0, 67, 0
2, 56505, Note_on_c, 0, 65, 82
2, 56541, Note_on_c, 0, 65, 0
2, 56582, Note_on_c, 0, 63, 77
2, 56633, Note_on_c, 0, 63, 0
2, 56676, Note_on_c, 0, 62, 80
2, 56711, Note_on_c, 0, 62, 0
2, 56753, Note_on_c, 0, 60, 66
2, 56798, Note_on_c, 0, 60, 0
2, 56850, Note_on_c, 0, 58, 66
2, 56876, Note_on_c, 0, 58, 0
2, 56936, Note_on_c, 0, 57, 52
2, 56969, Note_on_c, 0, 57, 0
2, 57015, Note_on_c, 0, 55, 68
2, 57041, Note_on_c, 0, 55, 0
2, 57097, Note_on_c, 0, 58, 74
2, 57128, Note_on_c, 0, 58, 0
2, 57199, Note_on_c, 0, 52, 70
2, 57239, Note_on_c, 0, 52, 0
2, 57270, Note_on_c, 0, 55, 64
2, 57296, Note_on_c, 0, 55, 0
2, 57364, Note_on_c, 0, 49, 78
2, 57445, Note_on_c, 0, 70, 84
2, 57495, Note_on_c, 0, 70, 0
2, 57533, Note_on_c, 0, 69, 89
2, 57601, Note_on_c, 0, 69, 0
2, 57621, Note_on_c, 0, 67, 86
2, 57677, Note_on_c, 0, 67, 0
2, 57682, Note_on_c, 0, 49, 0
2, 57708, Note_on_c, 0, 76, 88
2, 57786, Note_on_c, 0, 74, 77
2, 57805, Note_on_c, 0, 76, 0
2, 57872, Note_on_c, 0, 74, 0
2, 57878, Note_on_c, 0, 45, 86
2, 57880, Note_on_c, 0, 73, 80
2, 57905, Note_on_c, 0, 45, 0
2, 57959, Note_on_c, 0, 71, 74
2, 57959, Note_on_c, 0, 73, 0
2, 58021, Note_on_c, 0, 71, 0
2, 58053, Note_on_c, 0, 69, 77
2, 58061, Note_on_c, 0, 47, 87
2, 58092, Note_on_c, 0, 47, 0
2, 58094, Note_on_c, 0, 69, 0
2, 58140, Note_on_c, 0, 67, 72
2, 58224, Note_on_c, 0, 67, 0
2, 58233, Note_on_c, 0, 65, 76
2, 58234, Note_on_c, 0, 49, 76
2, 58265, Note_on_c, 0, 49, 0
2, 58290, Note_on_c, 0, 65, 0
2, 58332, Note_on_c, 0, 64, 71
2, 58367, Note_on_c, 0, 64, 0
2, 58424, Note_on_c, 0, 65, 85
2, 58431, Note_on_c, 0, 50, 86
2, 58461, Note_on_c, 0, 50, 0
2, 58479, Note_on_c, 0, 65, 0
2, 58520, Note_on_c, 0, 62, 66
2, 58550, Note_on_c, 0, 62, 0
2, 58609, Note_on_c, 0, 67, 91
2, 58613, Note_on_c, 0, 52, 79
2, 58642, Note_on_c, 0, 52, 0
2, 58670, Note_on_c, 0, 67, 0
2, 58702, Note_on_c, 0, 62, 71
2, 58735, Note_on_c, 0, 62, 0
2, 58782, Note_on_c, 0, 69, 92
2, 58792, Note_on_c, 0, 53, 85
2, 58824, Note_on_c, 0, 53, 0
2, 58838, Note_on_c, 0, 69, 0
2, 58874, Note_on_c, 0, 62, 70
2, 58924, Note_on_c, 0, 62, 0
2, 58963, Note_on_c, 0, 70, 88
2, 58968, Note_on_c, 0, 55, 80
2, 58992, Note_on_c, 0, 55, 0
2, 59021, Note_on_c, 0, 70, 0
2, 59037, Note_on_c, 0, 62, 75
2, 59083, Note_on_c, 0, 62, 0
2, 59159, Note_on_c, 0, 57, 69
2, 59187, Note_on_c, 0, 57, 0
2, 59204, Note_on_c, 0, 62, 68
2, 59255, Note_on_c, 0, 62, 0
2, 59324, Note_on_c, 0, 64, 57
2, 59329, Note_on_c, 0, 45, 56
2, 59362, Note_on_c, 0, 45, 0
2, 59368, Note_on_c, 0, 64, 0
2, 59387, Note_on_c, 0, 61, 58
2, 59443, Note_on_c, 0, 61, 0
2, 59497, Control_c, 0, 64, 49
2, 59501, Note_on_c, 0, 50, 55
2, 59511, Note_on_c, 0, 62, 53
2, 59513, Control_c, 0, 64, 63
2, 59528, Control_c, 0, 64, 70
2, 59531, Note_on_c, 0, 50, 0
2, 59543, Control_c, 0, 64, 78
2, 59559, Control_c, 0, 64, 86
2, 59559, Note_on_c, 0, 62, 0
2, 59574, Control_c, 0, 64, 90
2, 59596, Note_on_c, 0, 60, 62
2, 59619, Control_c, 0, 64, 88
2, 59635, Control_c, 0, 64, 82
2, 59650, Control_c, 0, 64, 76
2, 59654, Note_on_c, 0, 60, 0
2, 59665, Control_c, 0, 64, 69
2, 59681, Control_c, 0, 64, 64
2, 59689, Note_on_c, 0, 57, 52
2, 59691, Note_on_c, 0, 54, 58
2, 59695, Control_c, 0, 64, 48
2, 59711, Control_c, 0, 64, 0
2, 59718, Note_on_c, 0, 57, 0
2, 59721, Note_on_c, 0, 54, 0
2, 59778, Note_on_c, 0, 60, 50
2, 59819, Note_on_c, 0, 60, 0
2, 59865, Note_on_c, 0, 50, 51
2, 59871, Note_on_c, 0, 62, 59
2, 59895, Note_on_c, 0, 50, 0
2, 59920, Note_on_c, 0, 62, 0
2, 59943, Note_on_c, 0, 60, 60
2, 59996, Note_on_c, 0, 60, 0
2, 60045, Note_on_c, 0, 57, 52
2, 60054, Note_on_c, 0, 54, 52
2, 60066, Note_on_c, 0, 57, 0
2, 60081, Note_on_c, 0, 54, 0
2, 60124, Note_on_c, 0, 60, 57
2, 60171, Note_on_c, 0, 60, 0
2, 60209, Note_on_c, 0, 50, 59
2, 60224, Note_on_c, 0, 62, 51
2, 60235, Note_on_c, 0, 50, 0
2, 60273, Note_on_c, 0, 62, 0
2, 60290, Note_on_c, 0, 60, 61
2, 60337, Note_on_c, 0, 60, 0
2, 60391, Note_on_c, 0, 54, 60
2, 60394, Note_on_c, 0, 57, 58
2, 60421, Note_on_c, 0, 57, 0
2, 60427, Note_on_c, 0, 54, 0
2, 60460, Note_on_c, 0, 60, 59
2, 60492, Note_on_c, 0, 60, 0
2, 60555, Control_c, 0, 67, 9
2, 60557, Note_on_c, 0, 50, 60
2, 60562, Note_on_c, 0, 58, 68
2, 60570, Control_c, 0, 64, 30
2, 60570, Control_c, 0, 67, 23
2, 60583, Note_on_c, 0, 50, 0
2, 60585, Control_c, 0, 64, 48
2, 60585, Control_c, 0, 67, 35
2, 60601, Control_c, 0, 64, 52
2, 60601, Control_c, 0, 67, 72
2, 60605, Note_on_c, 0, 58, 0
2, 60623, Control_c, 0, 67, 100
2, 60638, Control_c, 0, 67, 119
2, 60653, Control_c, 0, 64, 51
2, 60653, Control_c, 0, 67, 127
2, 60653, Note_on_c, 0, 62, 60
2, 60668, Control_c, 0, 64, 45
2, 60684, Control_c, 0, 64, 32
2, 60699, Control_c, 0, 64, 0
2, 60706, Note_on_c, 0, 62, 0
2, 60734, Note_on_c, 0, 55, 57
2, 60739, Note_on_c, 0, 58, 63
2, 60762, Note_on_c, 0, 55, 0
2, 60777, Note_on_c, 0, 58, 0
2, 60831, Note_on_c, 0, 54, 54
2, 60874, Note_on_c, 0, 54, 0
2, 60906, Note_on_c, 0, 50, 55
2, 60918, Note_on_c, 0, 58, 57
2, 60933, Note_on_c, 0, 50, 0
2, 60952, Note_on_c, 0, 58, 0
2, 61006, Note_on_c, 0, 62, 43
2, 61054, Note_on_c, 0, 62, 0
2, 61087, Note_on_c, 0, 58, 58
2, 61089, Note_on_c, 0, 55, 60
2, 61112, Note_on_c, 0, 55, 0
2, 61131, Note_on_c, 0, 58, 0
2, 61172, Note_on_c, 0, 54, 56
2, 61205, Note_on_c, 0, 54, 0
2, 61257, Note_on_c, 0, 50, 61
2, 61266, Note_on_c, 0, 58, 54
2, 61287, Note_on_c, 0, 50, 0
2, 61305, Note_on_c, 0, 58, 0
2, 61358, Note_on_c, 0, 62, 48
2, 61413, Note_on_c, 0, 62, 0
2, 61445, Note_on_c, 0, 55, 63
2, 61456, Note_on_c, 0, 58, 51
2, 61472, Note_on_c, 0, 55, 0
2, 61489, Note_on_c, 0, 58, 0
2, 61531, Note_on_c, 0, 52, 47
2, 61557, Note_on_c, 0, 52, 0
2, 61630, Note_on_c, 0, 53, 61
2, 61632, Control_c, 0, 64, 34
2, 61639, Note_on_c, 0, 50, 47
2, 61648, Control_c, 0, 64, 53
2, 61662, Control_c, 0, 64, 59
2, 61668, Note_on_c, 0, 53, 0
2, 61669, Note_on_c, 0, 50, 0
2, 61678, Control_c, 0, 64, 61
2, 61693, Control_c, 0, 64, 61
2, 61715, Note_on_c, 0, 62, 58
2, 61723, Control_c, 0, 64, 60
2, 61738, Control_c, 0, 64, 55
2, 61753, Control_c, 0, 64, 45
2, 61755, Note_on_c, 0, 62, 0
2, 61769, Control_c, 0, 64, 13
2, 61784, Control_c, 0, 64, 0
2, 61819, Note_on_c, 0, 53, 48
2, 61825, Note_on_c, 0, 57, 36
2, 61847, Note_on_c, 0, 53, 0
2, 61856, Note_on_c, 0, 57, 0
2, 61904, Note_on_c, 0, 62, 35
2, 61936, Note_on_c, 0, 62, 0
2, 61985, Note_on_c, 0, 53, 45
2, 62003, Note_on_c, 0, 50, 26
2, 62024, Note_on_c, 0, 53, 0
2, 62051, Note_on_c, 0, 50, 0
2, 62065, Note_on_c, 0, 62, 49
2, 62114, Note_on_c, 0, 62, 0
2, 62177, Note_on_c, 0, 57, 51
2, 62184, Note_on_c, 0, 53, 41
2, 62202, Note_on_c, 0, 57, 0
2, 62214, Note_on_c, 0, 53, 0
2, 62259, Note_on_c, 0, 62, 50
2, 62302, Note_on_c, 0, 62, 0
2, 62342, Note_on_c, 0, 50, 53
2, 62346, Note_on_c, 0, 53, 47
2, 62368, Note_on_c, 0, 50, 0
2, 62387, Note_on_c, 0, 53, 0
2, 62430, Note_on_c, 0, 62, 49
2, 62474, Note_on_c, 0, 62, 0
2, 62525, Note_on_c, 0, 57, 55
2, 62527, Note_on_c, 0, 53, 52
2, 62553, Note_on_c, 0, 57, 0
2, 62562, Note_on_c, 0, 53, 0
2, 62598, Note_on_c, 0, 62, 45
2, 62632, Note_on_c, 0, 62, 0
2, 62686, Note_on_c, 0, 55, 63
2, 62690, Note_on_c, 0, 50, 56
2, 62703, Control_c, 0, 64, 15
2, 62715, Note_on_c, 0, 50, 0
2, 62721, Control_c, 0, 64, 46
2, 62721, Note_on_c, 0, 55, 0
2, 62735, Control_c, 0, 64, 53
2, 62750, Control_c, 0, 64, 54
2, 62766, Note_on_c, 0, 61, 52
2, 62781, Control_c, 0, 64, 54
2, 62795, Control_c, 0, 64, 49
2, 62804, Note_on_c, 0, 61, 0
2, 62811, Control_c, 0, 64, 37
2, 62826, Control_c, 0, 64, 0
2, 62866, Note_on_c, 0, 55, 57
2, 62869, Note_on_c, 0, 58, 55
2, 62892, Note_on_c, 0, 58, 0
2, 62899, Note_on_c, 0, 55, 0
2, 62960, Note_on_c, 0, 52, 52
2, 62992, Note_on_c, 0, 52, 0
2, 63048, Note_on_c, 0, 55, 53
2, 63054, Note_on_c, 0, 50, 50
2, 63079, Note_on_c, 0, 55, 0
2, 63083, Note_on_c, 0, 50, 0
2, 63135, Note_on_c, 0, 61, 52
2, 63171, Note_on_c, 0, 61, 0
2, 63238, Note_on_c, 0, 58, 56
2, 63247, Note_on_c, 0, 55, 45
2, 63267, Note_on_c, 0, 58, 0
2, 63285, Note_on_c, 0, 55, 0
2, 63334, Note_on_c, 0, 52, 43
2, 63364, Note_on_c, 0, 52, 0
2, 63431, Note_on_c, 0, 55, 51
2, 63443, Note_on_c, 0, 50, 51
2, 63468, Note_on_c, 0, 55, 0
2, 63470, Note_on_c, 0, 50, 0
2, 63543, Note_on_c, 0, 61, 36
2, 63572, Note_on_c, 0, 61, 0
2, 63661, Note_on_c, 0, 58, 54
2, 63693, Note_on_c, 0, 55, 33
2, 63701, Note_on_c, 0, 58, 0
2, 63724, Note_on_c, 0, 55, 0
2, 63810, Note_on_c, 0, 52, 38
2, 63845, Note_on_c, 0, 52, 0
2, 64188, Note_on_c, 0, 62, 53
2, 64197, Note_on_c, 0, 57, 40
2, 64200, Note_on_c, 0, 50, 32
2, 64204, Note_on_c, 0, 54, 36
2, 65717, Control_c, 0, 64, 28
2, 65731, Control_c, 0, 64, 37
2, 65746, Control_c, 0, 64, 43
2, 65762, Control_c, 0, 64, 48
2, 65777, Control_c, 0, 64, 52
2, 65793, Control_c, 0, 64, 56
2, 65807, Control_c, 0, 64, 59
2, 65822, Control_c, 0, 64, 61
2, 65838, Control_c, 0, 64, 63
2, 65853, Control_c, 0, 64, 64
2, 65867, Control_c, 0, 64, 65
2, 65883, Control_c, 0, 64, 67
2, 65898, Control_c, 0, 64, 68
2, 65914, Control_c, 0, 64, 70
2, 65928, Control_c, 0, 64, 72
2, 65943, Control_c, 0, 64, 74
2, 65959, Control_c, 0, 64, 77
2, 65974, Control_c, 0, 64, 79
2, 65998, Control_c, 0, 64, 80
2, 66013, Control_c, 0, 64, 81
2, 66028, Control_c, 0, 64, 82
2, 66044, Control_c, 0, 64, 82
2, 66059, Control_c, 0, 64, 83
2, 66089, Control_c, 0, 64, 83
2, 66173, Note_on_c, 0, 50, 0
2, 66221, Note_on_c, 0, 57, 0
2, 66268, Note_on_c, 0, 54, 0
2, 66341, Note_on_c, 0, 62, 0
2, 66561, Control_c, 0, 64, 83
2, 66575, Control_c, 0, 64, 82
2, 66591, Control_c, 0, 64, 81
2, 66606, Control_c, 0, 64, 80
2, 66621, Control_c, 0, 64, 78
2, 66637, Control_c, 0, 64, 78
2, 66652, Control_c, 0, 64, 77
2, 66667, Control_c, 0, 64, 76
2, 66683, Control_c, 0, 64, 74
2, 66698, Control_c, 0, 64, 72
2, 66713, Control_c, 0, 64, 69
2, 66728, Control_c, 0, 64, 67
2, 66743, Control_c, 0, 64, 65
2, 66766, Control_c, 0, 64, 64
2, 66781, Control_c, 0, 64, 61
2, 66796, Control_c, 0, 64, 55
2, 66812, Control_c, 0, 64, 48
2, 66827, Control_c, 0, 64, 43
2, 66843, Control_c, 0, 64, 40
2, 66858, Control_c, 0, 64, 37
2, 66874, Control_c, 0, 64, 33
2, 66888, Control_c, 0, 64, 21
2, 66903, Control_c, 0, 64, 0
2, 68432, Note_on_c, 0, 62, 35
2, 68596, Note_on_c, 0, 64, 39
2, 68669, Note_on_c, 0, 62, 0
2, 68722, Note_on_c, 0, 65, 45
2, 68761, Control_c, 0, 67, 123
2, 68773, Note_on_c, 0, 64, 0
2, 68776, Control_c, 0, 67, 108
2, 68792, Control_c, 0, 67, 89
2, 68806, Control_c, 0, 67, 72
2, 68821, Control_c, 0, 67, 58
2, 68837, Control_c, 0, 67, 47
2, 68852, Control_c, 0, 67, 30
2, 68859, Note_on_c, 0, 65, 0
2, 68868, Control_c, 0, 67, 8
2, 68872, Note_on_c, 0, 67, 44
2, 68883, Control_c, 0, 67, 0
2, 69003, Note_on_c, 0, 65, 54
2, 69013, Note_on_c, 0, 67, 0
2, 69130, Note_on_c, 0, 64, 55
2, 69133, Note_on_c, 0, 65, 0
2, 69268, Note_on_c, 0, 65, 66
2, 69333, Note_on_c, 0, 64, 0
2, 69393, Note_on_c, 0, 65, 0
2, 69397, Note_on_c, 0, 67, 62
2, 69522, Note_on_c, 0, 69, 65
2, 69545, Note_on_c, 0, 67, 0
2, 69664, Note_on_c, 0, 70, 70
2, 69666, Note_on_c, 0, 69, 0
2, 69791, Note_on_c, 0, 69, 70
2, 69800, Note_on_c, 0, 70, 0
2, 69925, Note_on_c, 0, 67, 67
2, 69940, Note_on_c, 0, 69, 0
2, 70095, Note_on_c, 0, 69, 53
2, 70165, Note_on_c, 0, 67, 0
2, 70372, Note_on_c, 0, 69, 0
2, 70557, Note_on_c, 0, 74, 71
2, 71009, Note_on_c, 0, 73, 74
2, 71286, Note_on_c, 0, 74, 0
2, 71487, Note_on_c, 0, 72, 71
2, 71705, Note_on_c, 0, 73, 0
2, 71947, Note_on_c, 0, 71, 73
2, 72215, Note_on_c, 0, 72, 0
2, 72419, Note_on_c, 0, 70, 62
2, 72689, Note_on_c, 0, 71, 0
2, 72886, Note_on_c, 0, 69, 53
2, 73036, Note_on_c, 0, 70, 0
2, 73389, Note_on_c, 0, 67, 52
2, 73605, Note_on_c, 0, 69, 0
2, 74270, Note_on_c, 0, 65, 42
2, 74585, Note_on_c, 0, 67, 0
2, 74745, Note_on_c, 0, 64, 46
2, 74987, Note_on_c, 0, 65, 0
2, 75211, Note_on_c, 0, 69, 49
2, 75334, Note_on_c, 0, 64, 0
2, 75459, Control_c, 0, 64, 45
2, 75475, Control_c, 0, 64, 56
2, 75490, Control_c, 0, 64, 61
2, 75506, Control_c, 0, 64, 64
2, 75520, Control_c, 0, 64, 66
2, 75535, Control_c, 0, 64, 69
2, 75551, Control_c, 0, 64, 72
2, 75566, Control_c, 0, 64, 77
2, 75581, Control_c, 0, 64, 81
2, 75596, Control_c, 0, 64, 84
2, 75605, Note_on_c, 0, 69, 0
2, 75611, Control_c, 0, 64, 86
2, 75652, Note_on_c, 0, 69, 36
2, 75659, Note_on_c, 0, 65, 45
2, 75702, Control_c, 0, 64, 85
2, 75717, Control_c, 0, 64, 84
2, 75732, Control_c, 0, 64, 80
2, 75748, Control_c, 0, 64, 77
2, 75763, Control_c, 0, 64, 73
2, 75778, Control_c, 0, 64, 70
2, 75793, Control_c, 0, 64, 67
2, 75803, Note_on_c, 0, 71, 61
2, 75808, Control_c, 0, 64, 63
2, 75825, Control_c, 0, 64, 55
2, 75840, Control_c, 0, 64, 30
2, 75841, Note_on_c, 0, 69, 0
2, 75855, Control_c, 0, 64, 0
2, 75929, Note_on_c, 0, 72, 67
2, 75971, Note_on_c, 0, 71, 0
2, 76086, Note_on_c, 0, 74, 61
2, 76089, Note_on_c, 0, 72, 0
2, 76101, Note_on_c, 0, 62, 40
2, 76211, Note_on_c, 0, 65, 0
2, 76216, Note_on_c, 0, 72, 73
2, 76237, Note_on_c, 0, 74, 0
2, 76354, Note_on_c, 0, 71, 79
2, 76356, Note_on_c, 0, 72, 0
2, 76479, Note_on_c, 0, 71, 0
2, 76496, Note_on_c, 0, 72, 67
2, 76505, Note_on_c, 0, 69, 45
2, 76578, Note_on_c, 0, 62, 0
2, 76638, Note_on_c, 0, 72, 0
2, 76640, Note_on_c, 0, 74, 72
2, 76777, Note_on_c, 0, 76, 77
2, 76816, Note_on_c, 0, 74, 0
2, 76854, Note_on_c, 0, 69, 0
2, 76909, Note_on_c, 0, 77, 78
2, 76917, Note_on_c, 0, 76, 0
2, 77035, Note_on_c, 0, 76, 82
2, 77065, Note_on_c, 0, 77, 0
2, 77167, Note_on_c, 0, 74, 78
2, 77174, Note_on_c, 0, 76, 0
2, 77328, Note_on_c, 0, 76, 74
2, 77349, Note_on_c, 0, 74, 0
2, 77572, Note_on_c, 0, 59, 52
2, 77594, Note_on_c, 0, 76, 0
2, 77772, Note_on_c, 0, 81, 77
2, 77787, Note_on_c, 0, 60, 64
2, 77924, Note_on_c, 0, 59, 0
2, 77997, Note_on_c, 0, 62, 75
2, 78061, Note_on_c, 0, 60, 0
2, 78201, Note_on_c, 0, 80, 81
2, 78209, Note_on_c, 0, 64, 67
2, 78221, Note_on_c, 0, 62, 0
2, 78321, Note_on_c, 0, 81, 0
2, 78434, Note_on_c, 0, 66, 79
2, 78600, Note_on_c, 0, 64, 0
2, 78636, Note_on_c, 0, 79, 83
2, 78656, Note_on_c, 0, 67, 75
2, 78679, Note_on_c, 0, 80, 0
2, 78720, Note_on_c, 0, 66, 0
2, 78856, Note_on_c, 0, 64, 77
2, 78909, Note_on_c, 0, 67, 0
2, 79077, Note_on_c, 0, 78, 85
2, 79079, Note_on_c, 0, 69, 70
2, 79119, Note_on_c, 0, 79, 0
2, 79135, Note_on_c, 0, 64, 0
2, 79285, Note_on_c, 0, 68, 82
2, 79352, Note_on_c, 0, 69, 0
2, 79493, Note_on_c, 0, 69, 80
2, 79497, Note_on_c, 0, 77, 80
2, 79562, Note_on_c, 0, 68, 0
2, 79596, Note_on_c, 0, 78, 0
2, 79712, Note_on_c, 0, 71, 90
2, 79760, Note_on_c, 0, 69, 0
2, 79948, Note_on_c, 0, 76, 76
2, 79959, Note_on_c, 0, 72, 71
2, 80019, Note_on_c, 0, 71, 0
2, 80029, Note_on_c, 0, 77, 0
2, 80172, Note_on_c, 0, 66, 78
2, 80397, Note_on_c, 0, 74, 69
2, 80409, Note_on_c, 0, 71, 67
2, 80489, Note_on_c, 0, 66, 0
2, 80494, Note_on_c, 0, 76, 0
2, 80527, Note_on_c, 0, 72, 0
2, 80628, Note_on_c, 0, 69, 66
2, 80709, Note_on_c, 0, 71, 0
2, 80832, Note_on_c, 0, 68, 59
2, 80848, Note_on_c, 0, 69, 0
2, 81045, Note_on_c, 0, 68, 0
2, 81070, Note_on_c, 0, 64, 44
2, 81304, Note_on_c, 0, 72, 59
2, 81312, Note_on_c, 0, 69, 42
2, 81364, Note_on_c, 0, 64, 0
2, 81459, Note_on_c, 0, 74, 0
2, 81803, Note_on_c, 0, 71, 55
2, 81907, Note_on_c, 0, 72, 0
2, 82283, Note_on_c, 0, 76, 58
2, 82299, Note_on_c, 0, 67, 30
2, 82428, Note_on_c, 0, 71, 0
2, 82494, Note_on_c, 0, 69, 0
2, 82734, Note_on_c, 0, 69, 59
2, 82812, Note_on_c, 0, 67, 0
2, 82860, Note_on_c, 0, 65, 43
2, 82920, Note_on_c, 0, 76, 0
2, 83029, Note_on_c, 0, 65, 0
2, 83035, Note_on_c, 0, 64, 48
2, 83141, Note_on_c, 0, 64, 0
2, 83146, Note_on_c, 0, 71, 67
2, 83167, Note_on_c, 0, 62, 48
2, 83291, Note_on_c, 0, 69, 0
2, 83292, Note_on_c, 0, 64, 58
2, 83352, Note_on_c, 0, 62, 0
2, 83416, Note_on_c, 0, 64, 0
2, 83433, Note_on_c, 0, 65, 50
2, 83550, Note_on_c, 0, 72, 70
2, 83555, Note_on_c, 0, 65, 0
2, 83564, Note_on_c, 0, 64, 55
2, 83675, Note_on_c, 0, 71, 0
2, 83682, Note_on_c, 0, 64, 0
2, 83708, Note_on_c, 0, 62, 52
2, 83846, Note_on_c, 0, 62, 0
2, 83850, Note_on_c, 0, 60, 54
2, 83957, Note_on_c, 0, 60, 0
2, 83968, Note_on_c, 0, 68, 66
2, 83985, Note_on_c, 0, 59, 46
2, 84078, Note_on_c, 0, 72, 0
2, 84119, Note_on_c, 0, 60, 50
2, 84121, Note_on_c, 0, 59, 0
2, 84216, Note_on_c, 0, 60, 0
2, 84240, Note_on_c, 0, 62, 53
2, 84373, Note_on_c, 0, 69, 65
2, 84399, Note_on_c, 0, 60, 42
2, 84399, Note_on_c, 0, 68, 0
2, 84453, Note_on_c, 0, 62, 0
2, 84530, Note_on_c, 0, 67, 66
2, 84576, Note_on_c, 0, 69, 0
2, 84655, Note_on_c, 0, 65, 67
2, 84702, Note_on_c, 0, 67, 0
2, 84794, Note_on_c, 0, 61, 66
2, 84795, Note_on_c, 0, 65, 0
2, 84802, Note_on_c, 0, 64, 64
2, 84843, Note_on_c, 0, 60, 0
2, 84938, Note_on_c, 0, 65, 67
2, 84947, Note_on_c, 0, 64, 0
2, 85062, Note_on_c, 0, 65, 0
2, 85071, Note_on_c, 0, 67, 65
2, 85215, Note_on_c, 0, 62, 57
2, 85220, Note_on_c, 0, 65, 65
2, 85234, Note_on_c, 0, 67, 0
2, 85252, Note_on_c, 0, 61, 0
2, 85345, Note_on_c, 0, 65, 0
2, 85356, Note_on_c, 0, 64, 65
2, 85381, Control_c, 0, 64, 45
2, 85397, Control_c, 0, 64, 57
2, 85398, Note_on_c, 0, 62, 0
2, 85412, Control_c, 0, 64, 60
2, 85428, Control_c, 0, 64, 63
2, 85443, Control_c, 0, 64, 64
2, 85457, Control_c, 0, 64, 65
2, 85473, Control_c, 0, 64, 65
2, 85477, Note_on_c, 0, 64, 0
2, 85499, Note_on_c, 0, 62, 68
2, 85519, Control_c, 0, 64, 65
2, 85533, Control_c, 0, 64, 64
2, 85549, Control_c, 0, 64, 63
2, 85564, Control_c, 0, 64, 63
2, 85595, Control_c, 0, 64, 62
2, 85607, Note_on_c, 0, 55, 56
2, 85609, Control_c, 0, 64, 61
2, 85625, Control_c, 0, 64, 58
2, 85640, Control_c, 0, 64, 53
2, 85640, Note_on_c, 0, 61, 70
2, 85647, Note_on_c, 0, 62, 0
2, 85656, Control_c, 0, 64, 47
2, 85672, Control_c, 0, 64, 38
2, 85686, Control_c, 0, 64, 28
2, 85701, Control_c, 0, 64, 8
2, 85717, Control_c, 0, 64, 0
2, 85766, Note_on_c, 0, 62, 72
2, 85806, Note_on_c, 0, 61, 0
2, 85856, Note_on_c, 0, 55, 0
2, 85891, Note_on_c, 0, 62, 0
2, 85900, Note_on_c, 0, 64, 72
2, 86062, Note_on_c, 0, 62, 57
2, 86069, Note_on_c, 0, 53, 48
2, 86076, Note_on_c, 0, 50, 47
2, 86096, Note_on_c, 0, 64, 0
2, 86141, Note_on_c, 0, 53, 0
2, 86220, Note_on_c, 0, 52, 63
2, 86242, Note_on_c, 0, 50, 0
2, 86352, Note_on_c, 0, 53, 66
2, 86385, Note_on_c, 0, 52, 0
2, 86476, Note_on_c, 0, 53, 0
2, 86481, Note_on_c, 0, 61, 68
2, 86487, Note_on_c, 0, 55, 58
2, 86490, Note_on_c, 0, 58, 53
2, 86533, Note_on_c, 0, 62, 0
2, 86618, Note_on_c, 0, 55, 0
2, 86620, Note_on_c, 0, 53, 59
2, 86756, Note_on_c, 0, 53, 0
2, 86759, Note_on_c, 0, 52, 56
2, 86897, Note_on_c, 0, 53, 58
2, 86897, Note_on_c, 0, 62, 70
2, 86902, Note_on_c, 0, 57, 55
2, 86918, Note_on_c, 0, 58, 0
2, 86929, Note_on_c, 0, 52, 0
2, 86940, Note_on_c, 0, 61, 0
2, 87007, Note_on_c, 0, 57, 0
2, 87016, Note_on_c, 0, 53, 0
2, 87036, Note_on_c, 0, 55, 63
2, 87163, Note_on_c, 0, 55, 0
2, 87169, Note_on_c, 0, 62, 0
2, 87173, Note_on_c, 0, 57, 62
2, 87301, Note_on_c, 0, 57, 0
2, 87310, Note_on_c, 0, 62, 62
2, 87315, Note_on_c, 0, 67, 69
2, 87316, Note_on_c, 0, 58, 60
2, 87446, Note_on_c, 0, 58, 0
2, 87447, Note_on_c, 0, 57, 58
2, 87572, Note_on_c, 0, 57, 0
2, 87591, Note_on_c, 0, 55, 54
2, 87731, Note_on_c, 0, 62, 0
2, 87744, Note_on_c, 0, 61, 68
2, 87745, Note_on_c, 0, 57, 51
2, 87752, Note_on_c, 0, 55, 0
2, 87901, Note_on_c, 0, 57, 0
2, 87959, Note_on_c, 0, 64, 71
2, 87979, Note_on_c, 0, 67, 0
2, 87987, Note_on_c, 0, 61, 0
2, 88192, Note_on_c, 0, 62, 69
2, 88205, Note_on_c, 0, 64, 0
2, 88205, Note_on_c, 0, 65, 70
2, 88432, Note_on_c, 0, 67, 77
2, 88484, Note_on_c, 0, 65, 0
2, 88645, Note_on_c, 0, 69, 75
2, 88649, Note_on_c, 0, 64, 53
2, 88650, Note_on_c, 0, 61, 59
2, 88672, Note_on_c, 0, 62, 0
2, 88728, Note_on_c, 0, 67, 0
2, 88867, Note_on_c, 0, 71, 79
2, 88930, Note_on_c, 0, 69, 0
2, 89085, Note_on_c, 0, 60, 56
2, 89095, Note_on_c, 0, 72, 78
2, 89096, Note_on_c, 0, 61, 0
2, 89137, Note_on_c, 0, 71, 0
2, 89278, Note_on_c, 0, 64, 0
2, 89298, Note_on_c, 0, 69, 76
2, 89327, Note_on_c, 0, 72, 0
2, 89514, Note_on_c, 0, 62, 51
2, 89514, Note_on_c, 0, 74, 75
2, 89521, Note_on_c, 0, 59, 53
2, 89550, Note_on_c, 0, 69, 0
2, 89554, Note_on_c, 0, 60, 0
2, 89725, Note_on_c, 0, 73, 84
2, 89750, Note_on_c, 0, 74, 0
2, 89950, Note_on_c, 0, 74, 79
2, 89952, Note_on_c, 0, 58, 52
2, 89958, Note_on_c, 0, 73, 0
2, 90021, Note_on_c, 0, 59, 0
2, 90162, Note_on_c, 0, 76, 85
2, 90198, Note_on_c, 0, 62, 0
2, 90214, Note_on_c, 0, 74, 0
2, 90403, Note_on_c, 0, 57, 45
2, 90404, Note_on_c, 0, 77, 71
2, 90445, Note_on_c, 0, 76, 0
2, 90478, Note_on_c, 0, 58, 0
2, 90653, Note_on_c, 0, 71, 71
2, 90654, Note_on_c, 0, 77, 0
2, 90855, Note_on_c, 0, 55, 39
2, 90884, Note_on_c, 0, 76, 64
2, 90923, Note_on_c, 0, 71, 0
2, 90954, Note_on_c, 0, 57, 0
2, 91070, Note_on_c, 0, 74, 63
2, 91197, Note_on_c, 0, 76, 0
2, 91274, Note_on_c, 0, 73, 66
2, 91346, Note_on_c, 0, 74, 0
2, 91493, Note_on_c, 0, 73, 0
2, 91505, Note_on_c, 0, 69, 65
2, 91724, Note_on_c, 0, 69, 0
2, 91732, Note_on_c, 0, 74, 55
2, 91739, Note_on_c, 0, 70, 46
2, 91740, Note_on_c, 0, 53, 48
2, 91785, Note_on_c, 0, 55, 0
2, 91954, Note_on_c, 0, 69, 62
2, 91961, Note_on_c, 0, 70, 0
2, 92165, Note_on_c, 0, 53, 0
2, 92170, Note_on_c, 0, 52, 39
2, 92180, Note_on_c, 0, 69, 0
2, 92192, Note_on_c, 0, 67, 56
2, 92391, Note_on_c, 0, 70, 59
2, 92433, Note_on_c, 0, 67, 0
2, 92586, Note_on_c, 0, 52, 0
2, 92610, Note_on_c, 0, 72, 58
2, 92614, Note_on_c, 0, 69, 46
2, 92617, Note_on_c, 0, 70, 0
2, 92620, Note_on_c, 0, 57, 41
2, 92719, Note_on_c, 0, 74, 0
2, 92795, Note_on_c, 0, 69, 0
2, 92831, Note_on_c, 0, 67, 58
2, 93009, Note_on_c, 0, 57, 0
2, 93056, Note_on_c, 0, 50, 42
2, 93057, Note_on_c, 0, 66, 53
2, 93059, Note_on_c, 0, 67, 0
2, 93229, Note_on_c, 0, 50, 0
2, 93270, Note_on_c, 0, 62, 59
2, 93473, Note_on_c, 0, 70, 62
2, 93480, Note_on_c, 0, 67, 46
2, 93490, Note_on_c, 0, 63, 55
2, 93491, Note_on_c, 0, 62, 0
2, 93535, Note_on_c, 0, 66, 0
2, 93626, Note_on_c, 0, 72, 0
2, 93719, Note_on_c, 0, 62, 57
2, 93722, Note_on_c, 0, 63, 0
2, 93905, Note_on_c, 0, 62, 0
2, 93926, Note_on_c, 0, 69, 58
2, 93934, Note_on_c, 0, 60, 44
2, 93971, Note_on_c, 0, 70, 0
2, 94149, Note_on_c, 0, 63, 59
2, 94166, Note_on_c, 0, 60, 0
2, 94247, Note_on_c, 0, 67, 0
2, 94371, Note_on_c, 0, 63, 0
2, 94372, Note_on_c, 0, 65, 43
2, 94375, Note_on_c, 0, 62, 47
2, 94468, Note_on_c, 0, 69, 0
2, 94574, Note_on_c, 0, 62, 0
2, 94589, Note_on_c, 0, 60, 58
2, 94763, Note_on_c, 0, 60, 0
2, 94810, Note_on_c, 0, 59, 48
2, 94815, Note_on_c, 0, 67, 58
2, 94978, Note_on_c, 0, 65, 0
2, 95017, Note_on_c, 0, 55, 44
2, 95018, Note_on_c, 0, 79, 80
2, 95030, Note_on_c, 0, 67, 0
2, 95221, Note_on_c, 0, 55, 0
2, 95254, Note_on_c, 0, 81, 70
2, 95265, Note_on_c, 0, 64, 46
2, 95266, Note_on_c, 0, 60, 42
2, 95280, Note_on_c, 0, 79, 0
2, 95288, Note_on_c, 0, 59, 0
2, 95411, Control_c, 0, 64, 25
2, 95427, Control_c, 0, 64, 49
2, 95441, Control_c, 0, 64, 59
2, 95456, Control_c, 0, 64, 63
2, 95467, Note_on_c, 0, 79, 80
2, 95472, Control_c, 0, 64, 65
2, 95488, Control_c, 0, 64, 68
2, 95503, Control_c, 0, 64, 72
2, 95503, Note_on_c, 0, 64, 0
2, 95519, Control_c, 0, 64, 75
2, 95533, Control_c, 0, 64, 77
2, 95536, Note_on_c, 0, 81, 0
2, 95549, Control_c, 0, 64, 78
2, 95640, Control_c, 0, 64, 77
2, 95655, Control_c, 0, 64, 75
2, 95670, Control_c, 0, 64, 73
2, 95683, Note_on_c, 0, 77, 76
2, 95685, Control_c, 0, 64, 70
2, 95695, Note_on_c, 0, 62, 43
2, 95700, Control_c, 0, 64, 67
2, 95716, Control_c, 0, 64, 64
2, 95729, Note_on_c, 0, 79, 0
2, 95731, Control_c, 0, 64, 60
2, 95746, Control_c, 0, 64, 47
2, 95761, Control_c, 0, 64, 0
2, 95912, Note_on_c, 0, 81, 73
2, 95936, Note_on_c, 0, 77, 0
2, 96136, Note_on_c, 0, 58, 37
2, 96143, Note_on_c, 0, 79, 71
2, 96212, Note_on_c, 0, 60, 0
2, 96351, Note_on_c, 0, 77, 75
2, 96368, Note_on_c, 0, 81, 0
2, 96408, Note_on_c, 0, 79, 0
2, 96576, Note_on_c, 0, 76, 68
2, 96586, Note_on_c, 0, 60, 46
2, 96611, Note_on_c, 0, 77, 0
2, 96732, Note_on_c, 0, 62, 0
2, 96791, Note_on_c, 0, 76, 0
2, 96809, Note_on_c, 0, 72, 71
2, 97010, Note_on_c, 0, 72, 0
2, 97014, Note_on_c, 0, 57, 42
2, 97018, Note_on_c, 0, 74, 61
2, 97030, Note_on_c, 0, 77, 59
2, 97138, Note_on_c, 0, 58, 0
2, 97149, Note_on_c, 0, 60, 0
2, 97235, Note_on_c, 0, 72, 68
2, 97257, Note_on_c, 0, 74, 0
2, 97442, Note_on_c, 0, 72, 0
2, 97451, Note_on_c, 0, 57, 0
2, 97453, Note_on_c, 0, 70, 66
2, 97465, Note_on_c, 0, 55, 29
2, 97651, Note_on_c, 0, 74, 62
2, 97677, Note_on_c, 0, 70, 0
2, 97866, Note_on_c, 0, 55, 0
2, 97871, Note_on_c, 0, 76, 66
2, 97887, Note_on_c, 0, 72, 46
2, 97887, Note_on_c, 0, 74, 0
2, 97900, Note_on_c, 0, 60, 24
2, 97901, Note_on_c, 0, 77, 0
2, 98050, Control_c, 0, 64, 42
2, 98066, Control_c, 0, 64, 53
2, 98081, Control_c, 0, 64, 59
2, 98082, Note_on_c, 0, 70, 53
2, 98095, Control_c, 0, 64, 62
2, 98111, Control_c, 0, 64, 64
2, 98126, Control_c, 0, 64, 67
2, 98141, Control_c, 0, 64, 70
2, 98157, Control_c, 0, 64, 73
2, 98172, Control_c, 0, 64, 75
2, 98188, Control_c, 0, 64, 77
2, 98202, Control_c, 0, 64, 79
2, 98211, Note_on_c, 0, 72, 0
2, 98234, Note_on_c, 0, 60, 0
2, 98236, Note_on_c, 0, 70, 0
2, 98293, Note_on_c, 0, 69, 52
2, 98297, Note_on_c, 0, 53, 36
2, 98316, Control_c, 0, 64, 78
2, 98331, Control_c, 0, 64, 77
2, 98347, Control_c, 0, 64, 75
2, 98362, Control_c, 0, 64, 71
2, 98377, Control_c, 0, 64, 68
2, 98393, Control_c, 0, 64, 65
2, 98407, Control_c, 0, 64, 60
2, 98422, Control_c, 0, 64, 51
2, 98438, Control_c, 0, 64, 22
2, 98438, Note_on_c, 0, 55, 39
2, 98453, Control_c, 0, 64, 0
2, 98487, Note_on_c, 0, 53, 0
2, 98493, Note_on_c, 0, 77, 73
2, 98538, Note_on_c, 0, 76, 0
2, 98567, Note_on_c, 0, 69, 0
2, 98572, Note_on_c, 0, 57, 49
2, 98615, Note_on_c, 0, 55, 0
2, 98674, Note_on_c, 0, 57, 0
2, 98693, Note_on_c, 0, 67, 56
2, 98713, Note_on_c, 0, 58, 46
2, 98829, Note_on_c, 0, 58, 0
2, 98831, Note_on_c, 0, 57, 49
2, 98885, Note_on_c, 0, 76, 76
2, 98925, Note_on_c, 0, 67, 0
2, 98936, Note_on_c, 0, 57, 0
2, 98946, Note_on_c, 0, 77, 0
2, 98959, Note_on_c, 0, 55, 54
2, 99096, Note_on_c, 0, 55, 0
2, 99103, Note_on_c, 0, 65, 57
2, 99111, Note_on_c, 0, 57, 39
2, 99317, Note_on_c, 0, 74, 68
2, 99330, Note_on_c, 0, 65, 0
2, 99382, Note_on_c, 0, 76, 0
2, 99530, Note_on_c, 0, 64, 58
2, 99538, Note_on_c, 0, 45, 40
2, 99653, Note_on_c, 0, 57, 0
2, 99739, Note_on_c, 0, 73, 75
2, 99743, Note_on_c, 0, 45, 0
2, 99761, Note_on_c, 0, 64, 0
2, 99787, Note_on_c, 0, 74, 0
2, 99963, Note_on_c, 0, 74, 59
2, 99973, Note_on_c, 0, 65, 47
2, 99974, Note_on_c, 0, 50, 52
2, 100006, Note_on_c, 0, 73, 0
2, 100098, Note_on_c, 0, 52, 64
2, 100150, Note_on_c, 0, 50, 0
2, 100150, Note_on_c, 0, 74, 0
2, 100169, Note_on_c, 0, 65, 0
2, 100223, Note_on_c, 0, 53, 68
2, 100278, Note_on_c, 0, 52, 0
2, 100352, Note_on_c, 0, 70, 66
2, 100357, Note_on_c, 0, 61, 53
2, 100358, Note_on_c, 0, 53, 0
2, 100361, Note_on_c, 0, 55, 59
2, 100490, Note_on_c, 0, 55, 0
2, 100493, Note_on_c, 0, 53, 59
2, 100567, Note_on_c, 0, 70, 0
2, 100578, Note_on_c, 0, 61, 0
2, 100607, Note_on_c, 0, 53, 0
2, 100621, Note_on_c, 0, 52, 53
2, 100759, Note_on_c, 0, 53, 51
2, 100763, Note_on_c, 0, 69, 57
2, 100765, Note_on_c, 0, 62, 47
2, 100775, Note_on_c, 0, 52, 0
2, 100875, Note_on_c, 0, 53, 0
2, 100899, Note_on_c, 0, 55, 57
2, 100906, Note_on_c, 0, 67, 69
2, 101021, Note_on_c, 0, 69, 0
2, 101031, Note_on_c, 0, 55, 0
2, 101038, Note_on_c, 0, 65, 72
2, 101056, Note_on_c, 0, 57, 50
2, 101082, Note_on_c, 0, 67, 0
2, 101164, Note_on_c, 0, 57, 0
2, 101175, Note_on_c, 0, 64, 76
2, 101188, Note_on_c, 0, 58, 56
2, 101201, Note_on_c, 0, 65, 0
2, 101293, Note_on_c, 0, 58, 0
2, 101309, Note_on_c, 0, 57, 53
2, 101310, Note_on_c, 0, 65, 79
2, 101350, Note_on_c, 0, 64, 0
2, 101401, Note_on_c, 0, 57, 0
2, 101440, Note_on_c, 0, 67, 82
2, 101444, Note_on_c, 0, 55, 45
2, 101452, Note_on_c, 0, 65, 0
2, 101580, Note_on_c, 0, 65, 77
2, 101586, Note_on_c, 0, 57, 50
2, 101594, Note_on_c, 0, 55, 0
2, 101638, Note_on_c, 0, 67, 0
2, 101669, Note_on_c, 0, 62, 0
2, 101705, Note_on_c, 0, 64, 78
2, 101717, Note_on_c, 0, 57, 0
2, 101773, Note_on_c, 0, 65, 0
2, 101822, Note_on_c, 0, 64, 0
2, 101836, Note_on_c, 0, 62, 69
2, 101968, Note_on_c, 0, 55, 46
2, 101973, Note_on_c, 0, 62, 0
2, 101974, Note_on_c, 0, 61, 64
2, 101975, Note_on_c, 0, 58, 48
2, 102098, Note_on_c, 0, 61, 0
2, 102110, Note_on_c, 0, 62, 64
2, 102113, Note_on_c, 0, 55, 0
2, 102159, Note_on_c, 0, 58, 0
2, 102232, Note_on_c, 0, 62, 0
2, 102244, Note_on_c, 0, 64, 68
2, 102370, Note_on_c, 0, 64, 0
2, 102393, Note_on_c, 0, 62, 58
2, 102405, Note_on_c, 0, 53, 45
2, 102415, Note_on_c, 0, 57, 36
2, 102516, Note_on_c, 0, 62, 0
2, 102518, Note_on_c, 0, 64, 63
2, 102543, Note_on_c, 0, 52, 51
2, 102545, Note_on_c, 0, 53, 0
2, 102644, Note_on_c, 0, 65, 71
2, 102668, Note_on_c, 0, 52, 0
2, 102670, Note_on_c, 0, 64, 0
2, 102679, Note_on_c, 0, 50, 53
2, 102786, Note_on_c, 0, 65, 0
2, 102786, Note_on_c, 0, 67, 68
2, 102797, Note_on_c, 0, 50, 0
2, 102817, Note_on_c, 0, 49, 51
2, 102914, Note_on_c, 0, 49, 0
2, 102926, Note_on_c, 0, 65, 70
2, 102935, Note_on_c, 0, 50, 57
2, 102941, Note_on_c, 0, 67, 0
2, 103029, Note_on_c, 0, 50, 0
2, 103053, Note_on_c, 0, 52, 48
2, 103053, Note_on_c, 0, 64, 77
2, 103057, Note_on_c, 0, 65, 0
2, 103161, Note_on_c, 0, 57, 0
2, 103179, Note_on_c, 0, 52, 0
2, 103182, Note_on_c, 0, 50, 47
2, 103193, Note_on_c, 0, 64, 0
2, 103203, Note_on_c, 0, 65, 71
2, 103324, Note_on_c, 0, 67, 77
2, 103329, Note_on_c, 0, 55, 49
2, 103351, Note_on_c, 0, 65, 0
2, 103438, Note_on_c, 0, 55, 0
2, 103457, Note_on_c, 0, 69, 79
2, 103461, Note_on_c, 0, 53, 50
2, 103487, Note_on_c, 0, 67, 0
2, 103583, Note_on_c, 0, 53, 0
2, 103594, Note_on_c, 0, 70, 78
2, 103599, Note_on_c, 0, 69, 0
2, 103611, Note_on_c, 0, 52, 50
2, 103733, Note_on_c, 0, 69, 81
2, 103737, Control_c, 0, 64, 27
2, 103742, Note_on_c, 0, 53, 57
2, 103753, Control_c, 0, 64, 47
2, 103762, Note_on_c, 0, 70, 0
2, 103763, Note_on_c, 0, 52, 0
2, 103768, Control_c, 0, 64, 54
2, 103782, Control_c, 0, 64, 57
2, 103798, Control_c, 0, 64, 59
2, 103813, Control_c, 0, 64, 61
2, 103829, Control_c, 0, 64, 62
2, 103844, Control_c, 0, 64, 62
2, 103849, Note_on_c, 0, 53, 0
2, 103865, Note_on_c, 0, 67, 86
2, 103868, Note_on_c, 0, 55, 57
2, 103881, Note_on_c, 0, 69, 0
2, 103889, Control_c, 0, 64, 62
2, 103905, Control_c, 0, 64, 61
2, 103911, Note_on_c, 0, 55, 0
2, 103920, Control_c, 0, 64, 60
2, 103935, Control_c, 0, 64, 59
2, 103951, Control_c, 0, 64, 57
2, 103966, Control_c, 0, 64, 55
2, 103980, Control_c, 0, 64, 50
2, 103996, Control_c, 0, 64, 42
2, 104011, Control_c, 0, 64, 25
2, 104017, Note_on_c, 0, 69, 78
2, 104027, Control_c, 0, 64, 0
2, 104036, Note_on_c, 0, 50, 0
2, 104039, Note_on_c, 0, 53, 57
2, 104045, Note_on_c, 0, 67, 0
2, 104244, Note_on_c, 0, 48, 55
2, 104401, Note_on_c, 0, 48, 0
2, 104454, Note_on_c, 0, 74, 81
2, 104468, Note_on_c, 0, 46, 54
2, 104515, Note_on_c, 0, 69, 0
2, 104568, Note_on_c, 0, 53, 0
2, 104642, Control_c, 0, 64, 37
2, 104657, Control_c, 0, 64, 49
2, 104672, Control_c, 0, 64, 54
2, 104687, Control_c, 0, 64, 57
2, 104702, Control_c, 0, 64, 60
2, 104718, Control_c, 0, 64, 62
2, 104720, Note_on_c, 0, 55, 50
2, 104733, Control_c, 0, 64, 64
2, 104749, Control_c, 0, 64, 67
2, 104764, Control_c, 0, 64, 68
2, 104779, Control_c, 0, 64, 69
2, 104795, Control_c, 0, 64, 70
2, 104885, Control_c, 0, 64, 70
2, 104900, Control_c, 0, 64, 69
2, 104908, Note_on_c, 0, 73, 87
2, 104916, Control_c, 0, 64, 67
2, 104922, Note_on_c, 0, 45, 56
2, 104931, Control_c, 0, 64, 63
2, 104947, Control_c, 0, 64, 54
2, 104961, Control_c, 0, 64, 8
2, 104961, Note_on_c, 0, 55, 0
2, 104968, Note_on_c, 0, 46, 0
2, 104976, Control_c, 0, 64, 0
2, 104982, Note_on_c, 0, 74, 0
2, 105113, Control_c, 0, 64, 12
2, 105128, Control_c, 0, 64, 46
2, 105143, Control_c, 0, 64, 55
2, 105149, Note_on_c, 0, 55, 66
2, 105166, Control_c, 0, 64, 60
2, 105181, Control_c, 0, 64, 63
2, 105197, Control_c, 0, 64, 65
2, 105212, Control_c, 0, 64, 68
2, 105227, Control_c, 0, 64, 71
2, 105227, Note_on_c, 0, 55, 0
2, 105242, Control_c, 0, 64, 74
2, 105257, Control_c, 0, 64, 77
2, 105273, Control_c, 0, 64, 78
2, 105288, Control_c, 0, 64, 78
2, 105350, Control_c, 0, 64, 78
2, 105351, Note_on_c, 0, 72, 84
2, 105366, Note_on_c, 0, 54, 65
2, 105380, Control_c, 0, 64, 75
2, 105395, Control_c, 0, 64, 70
2, 105400, Note_on_c, 0, 73, 0
2, 105410, Control_c, 0, 64, 65
2, 105426, Control_c, 0, 64, 57
2, 105441, Control_c, 0, 64, 0
2, 105590, Note_on_c, 0, 50, 76
2, 105619, Note_on_c, 0, 45, 0
2, 105622, Control_c, 0, 64, 17
2, 105638, Control_c, 0, 64, 45
2, 105653, Control_c, 0, 64, 54
2, 105669, Control_c, 0, 64, 59
2, 105672, Note_on_c, 0, 54, 0
2, 105684, Control_c, 0, 64, 62
2, 105699, Control_c, 0, 64, 64
2, 105715, Control_c, 0, 64, 65
2, 105729, Control_c, 0, 64, 67
2, 105745, Control_c, 0, 64, 68
2, 105760, Control_c, 0, 64, 68
2, 105791, Control_c, 0, 64, 68
2, 105796, Note_on_c, 0, 71, 88
2, 105805, Control_c, 0, 64, 66
2, 105805, Note_on_c, 0, 43, 63
2, 105820, Control_c, 0, 64, 64
2, 105836, Control_c, 0, 64, 60
2, 105850, Control_c, 0, 64, 49
2, 105862, Note_on_c, 0, 72, 0
2, 105866, Control_c, 0, 64, 0
2, 105884, Note_on_c, 0, 50, 0
2, 106026, Note_on_c, 0, 53, 73
2, 106055, Control_c, 0, 64, 23
2, 106071, Control_c, 0, 64, 50
2, 106086, Control_c, 0, 64, 58
2, 106101, Control_c, 0, 64, 61
2, 106117, Control_c, 0, 64, 64
2, 106126, Note_on_c, 0, 53, 0
2, 106133, Control_c, 0, 64, 66
2, 106149, Control_c, 0, 64, 69
2, 106163, Control_c, 0, 64, 72
2, 106178, Control_c, 0, 64, 74
2, 106194, Control_c, 0, 64, 76
2, 106235, Note_on_c, 0, 70, 87
2, 106255, Note_on_c, 0, 52, 65
2, 106285, Control_c, 0, 64, 74
2, 106299, Control_c, 0, 64, 70
2, 106315, Control_c, 0, 64, 64
2, 106330, Control_c, 0, 64, 45
2, 106346, Control_c, 0, 64, 0
2, 106388, Note_on_c, 0, 71, 0
2, 106472, Note_on_c, 0, 48, 79
2, 106528, Control_c, 0, 64, 51
2, 106528, Note_on_c, 0, 43, 0
2, 106543, Control_c, 0, 64, 59
2, 106559, Control_c, 0, 64, 63
2, 106566, Note_on_c, 0, 52, 0
2, 106573, Control_c, 0, 64, 65
2, 106589, Control_c, 0, 64, 66
2, 106604, Control_c, 0, 64, 68
2, 106619, Control_c, 0, 64, 69
2, 106635, Control_c, 0, 64, 70
2, 106684, Note_on_c, 0, 41, 66
2, 106694, Note_on_c, 0, 69, 85
2, 106718, Control_c, 0, 64, 69
2, 106733, Control_c, 0, 64, 66
2, 106748, Control_c, 0, 64, 60
2, 106763, Control_c, 0, 64, 43
2, 106764, Note_on_c, 0, 48, 0
2, 106778, Control_c, 0, 64, 0
2, 106791, Note_on_c, 0, 70, 0
2, 106916, Note_on_c, 0, 51, 81
2, 106993, Control_c, 0, 64, 41
2, 107007, Control_c, 0, 64, 54
2, 107022, Control_c, 0, 64, 59
2, 107038, Control_c, 0, 64, 61
2, 107053, Control_c, 0, 64, 64
2, 107069, Control_c, 0, 64, 66
2, 107083, Control_c, 0, 64, 68
2, 107098, Control_c, 0, 64, 70
2, 107114, Control_c, 0, 64, 72
2, 107128, Control_c, 0, 64, 74
2, 107143, Control_c, 0, 64, 74
2, 107178, Note_on_c, 0, 81, 96
2, 107190, Note_on_c, 0, 50, 63
2, 107205, Note_on_c, 0, 51, 0
2, 107235, Control_c, 0, 64, 74
2, 107250, Control_c, 0, 64, 73
2, 107266, Control_c, 0, 64, 70
2, 107280, Control_c, 0, 64, 67
2, 107295, Control_c, 0, 64, 64
2, 107311, Control_c, 0, 64, 57
2, 107326, Control_c, 0, 64, 36
2, 107341, Control_c, 0, 64, 0
2, 107442, Note_on_c, 0, 46, 79
2, 107457, Note_on_c, 0, 69, 0
2, 107486, Control_c, 0, 64, 31
2, 107500, Control_c, 0, 64, 47
2, 107516, Control_c, 0, 64, 53
2, 107525, Note_on_c, 0, 41, 0
2, 107531, Control_c, 0, 64, 56
2, 107546, Control_c, 0, 64, 58
2, 107561, Control_c, 0, 64, 60
2, 107576, Control_c, 0, 64, 62
2, 107592, Control_c, 0, 64, 63
2, 107643, Note_on_c, 0, 80, 92
2, 107648, Note_on_c, 0, 50, 0
2, 107655, Note_on_c, 0, 40, 68
2, 107684, Control_c, 0, 64, 63
2, 107698, Control_c, 0, 64, 61
2, 107714, Control_c, 0, 64, 57
2, 107729, Control_c, 0, 64, 48
2, 107740, Note_on_c, 0, 46, 0
2, 107743, Control_c, 0, 64, 16
2, 107751, Note_on_c, 0, 81, 0
2, 107759, Control_c, 0, 64, 0
2, 107868, Note_on_c, 0, 50, 75
2, 107897, Control_c, 0, 64, 35
2, 107913, Control_c, 0, 64, 56
2, 107928, Control_c, 0, 64, 61
2, 107943, Control_c, 0, 64, 63
2, 107959, Control_c, 0, 64, 65
2, 107973, Control_c, 0, 64, 66
2, 107973, Note_on_c, 0, 50, 0
2, 107989, Control_c, 0, 64, 68
2, 108004, Control_c, 0, 64, 71
2, 108019, Control_c, 0, 64, 73
2, 108035, Control_c, 0, 64, 74
2, 108091, Note_on_c, 0, 79, 87
2, 108127, Note_on_c, 0, 49, 77
2, 108127, Note_on_c, 0, 80, 0
2, 108140, Control_c, 0, 64, 73
2, 108156, Control_c, 0, 64, 72
2, 108171, Control_c, 0, 64, 70
2, 108186, Control_c, 0, 64, 68
2, 108201, Control_c, 0, 64, 66
2, 108216, Control_c, 0, 64, 64
2, 108240, Control_c, 0, 64, 60
2, 108255, Control_c, 0, 64, 56
2, 108270, Control_c, 0, 64, 50
2, 108285, Control_c, 0, 64, 42
2, 108300, Control_c, 0, 64, 27
2, 108316, Control_c, 0, 64, 0
2, 108327, Note_on_c, 0, 45, 74
2, 108347, Note_on_c, 0, 49, 0
2, 108368, Note_on_c, 0, 40, 0
2, 108535, Note_on_c, 0, 78, 84
2, 108549, Note_on_c, 0, 50, 60
2, 108552, Note_on_c, 0, 38, 57
2, 108595, Note_on_c, 0, 45, 0
2, 108607, Note_on_c, 0, 79, 0
2, 108740, Note_on_c, 0, 38, 0
2, 108758, Note_on_c, 0, 69, 84
2, 108809, Note_on_c, 0, 78, 0
2, 108816, Note_on_c, 0, 50, 0
2, 109000, Note_on_c, 0, 77, 79
2, 109001, Note_on_c, 0, 70, 64
2, 109007, Note_on_c, 0, 50, 46
2, 109036, Note_on_c, 0, 69, 0
2, 109159, Control_c, 0, 64, 43
2, 109174, Control_c, 0, 64, 54
2, 109189, Control_c, 0, 64, 59
2, 109204, Control_c, 0, 64, 62
2, 109219, Control_c, 0, 64, 64
2, 109225, Note_on_c, 0, 69, 69
2, 109228, Note_on_c, 0, 77, 0
2, 109234, Control_c, 0, 64, 67
2, 109244, Note_on_c, 0, 70, 0
2, 109249, Control_c, 0, 64, 70
2, 109265, Control_c, 0, 64, 73
2, 109280, Control_c, 0, 64, 78
2, 109291, Note_on_c, 0, 69, 0
2, 109295, Control_c, 0, 64, 83
2, 109310, Control_c, 0, 64, 86
2, 109325, Control_c, 0, 64, 89
2, 109340, Control_c, 0, 64, 89
2, 109417, Control_c, 0, 64, 89
2, 109439, Note_on_c, 0, 76, 70
2, 109448, Control_c, 0, 64, 86
2, 109450, Note_on_c, 0, 67, 58
2, 109462, Control_c, 0, 64, 82
2, 109478, Control_c, 0, 64, 78
2, 109493, Control_c, 0, 64, 72
2, 109509, Control_c, 0, 64, 67
2, 109524, Control_c, 0, 64, 63
2, 109539, Control_c, 0, 64, 53
2, 109555, Control_c, 0, 64, 24
2, 109570, Control_c, 0, 64, 0
2, 109646, Note_on_c, 0, 70, 72
2, 109671, Note_on_c, 0, 67, 0
2, 109863, Note_on_c, 0, 69, 70
2, 109876, Note_on_c, 0, 49, 34
2, 109899, Note_on_c, 0, 50, 0
2, 109908, Note_on_c, 0, 70, 0
2, 110003, Control_c, 0, 64, 44
2, 110018, Control_c, 0, 64, 55
2, 110033, Control_c, 0, 64, 60
2, 110048, Control_c, 0, 64, 63
2, 110063, Control_c, 0, 64, 66
2, 110067, Note_on_c, 0, 49, 0
2, 110078, Control_c, 0, 64, 69
2, 110093, Control_c, 0, 64, 73
2, 110093, Note_on_c, 0, 69, 0
2, 110096, Note_on_c, 0, 67, 69
2, 110109, Control_c, 0, 64, 79
2, 110124, Control_c, 0, 64, 85
2, 110139, Control_c, 0, 64, 91
2, 110154, Control_c, 0, 64, 94
2, 110167, Note_on_c, 0, 67, 0
2, 110169, Control_c, 0, 64, 94
2, 110303, Note_on_c, 0, 65, 63
2, 110307, Control_c, 0, 64, 93
2, 110319, Note_on_c, 0, 50, 43
2, 110322, Control_c, 0, 64, 91
2, 110337, Control_c, 0, 64, 87
2, 110353, Control_c, 0, 64, 84
2, 110368, Control_c, 0, 64, 79
2, 110383, Control_c, 0, 64, 74
2, 110399, Control_c, 0, 64, 69
2, 110414, Control_c, 0, 64, 64
2, 110429, Control_c, 0, 64, 55
2, 110444, Control_c, 0, 64, 19
2, 110459, Control_c, 0, 64, 0
2, 110533, Note_on_c, 0, 57, 42
2, 110572, Note_on_c, 0, 50, 0
2, 110730, Note_on_c, 0, 57, 0
2, 110743, Note_on_c, 0, 58, 40
2, 110748, Note_on_c, 0, 74, 63
2, 110871, Note_on_c, 0, 76, 0
2, 110933, Note_on_c, 0, 58, 0
2, 110957, Note_on_c, 0, 57, 49
2, 111175, Note_on_c, 0, 57, 0
2, 111181, Note_on_c, 0, 64, 56
2, 111195, Note_on_c, 0, 55, 36
2, 111278, Note_on_c, 0, 65, 0
2, 111402, Note_on_c, 0, 58, 51
2, 111542, Note_on_c, 0, 55, 0
2, 111606, Note_on_c, 0, 57, 44
2, 111611, Note_on_c, 0, 73, 70
2, 111634, Note_on_c, 0, 58, 0
2, 111780, Note_on_c, 0, 74, 0
2, 111813, Note_on_c, 0, 55, 52
2, 111815, Note_on_c, 0, 57, 0
2, 111927, Note_on_c, 0, 73, 0
2, 112014, Note_on_c, 0, 55, 0
2, 112022, Note_on_c, 0, 53, 55
2, 112185, Control_c, 0, 64, 37
2, 112199, Control_c, 0, 64, 49
2, 112214, Control_c, 0, 64, 55
2, 112220, Note_on_c, 0, 64, 0
2, 112230, Control_c, 0, 64, 59
2, 112233, Note_on_c, 0, 81, 81
2, 112245, Control_c, 0, 64, 62
2, 112260, Control_c, 0, 64, 64
2, 112276, Control_c, 0, 64, 66
2, 112291, Control_c, 0, 64, 68
2, 112307, Control_c, 0, 64, 72
2, 112322, Control_c, 0, 64, 75
2, 112336, Control_c, 0, 64, 79
2, 112352, Control_c, 0, 64, 82
2, 112367, Control_c, 0, 64, 83
2, 112449, Note_on_c, 0, 62, 54
2, 112511, Note_on_c, 0, 82, 80
2, 112533, Control_c, 0, 64, 82
2, 112549, Control_c, 0, 64, 81
2, 112549, Note_on_c, 0, 81, 0
2, 112564, Control_c, 0, 64, 78
2, 112579, Control_c, 0, 64, 76
2, 112595, Control_c, 0, 64, 73
2, 112609, Control_c, 0, 64, 70
2, 112625, Control_c, 0, 64, 67
2, 112640, Control_c, 0, 64, 64
2, 112655, Control_c, 0, 64, 58
2, 112671, Control_c, 0, 64, 43
2, 112687, Control_c, 0, 64, 0
2, 112730, Note_on_c, 0, 81, 82
2, 112783, Note_on_c, 0, 82, 0
2, 112902, Note_on_c, 0, 53, 0
2, 112916, Note_on_c, 0, 52, 37
2, 112939, Note_on_c, 0, 79, 75
2, 112953, Note_on_c, 0, 81, 0
2, 113120, Control_c, 0, 64, 38
2, 113135, Control_c, 0, 64, 50
2, 113145, Note_on_c, 0, 82, 76
2, 113150, Control_c, 0, 64, 56
2, 113165, Control_c, 0, 64, 59
2, 113166, Note_on_c, 0, 62, 0
2, 113180, Control_c, 0, 64, 61
2, 113196, Control_c, 0, 64, 63
2, 113211, Control_c, 0, 64, 64
2, 113226, Note_on_c, 0, 79, 0
2, 113227, Control_c, 0, 64, 66
2, 113242, Control_c, 0, 64, 67
2, 113256, Control_c, 0, 64, 69
2, 113272, Control_c, 0, 64, 69
2, 113348, Control_c, 0, 64, 69
2, 113357, Note_on_c, 0, 61, 50
2, 113361, Note_on_c, 0, 81, 70
2, 113363, Control_c, 0, 64, 68
2, 113377, Control_c, 0, 64, 67
2, 113393, Control_c, 0, 64, 65
2, 113399, Note_on_c, 0, 82, 0
2, 113408, Control_c, 0, 64, 62
2, 113423, Control_c, 0, 64, 59
2, 113439, Control_c, 0, 64, 55
2, 113453, Control_c, 0, 64, 48
2, 113469, Control_c, 0, 64, 37
2, 113484, Control_c, 0, 64, 0
2, 113558, Note_on_c, 0, 81, 0
2, 113572, Note_on_c, 0, 79, 73
2, 113741, Note_on_c, 0, 61, 0
2, 113761, Note_on_c, 0, 52, 0
2, 113801, Note_on_c, 0, 50, 38
2, 113804, Note_on_c, 0, 62, 40
2, 113805, Note_on_c, 0, 77, 64
2, 113817, Note_on_c, 0, 79, 0
2, 113830, Note_on_c, 0, 50, 0
2, 113857, Control_c, 0, 64, 31
2, 113873, Control_c, 0, 64, 48
2, 113888, Control_c, 0, 64, 54
2, 113902, Control_c, 0, 64, 57
2, 113918, Control_c, 0, 64, 58
2, 113935, Note_on_c, 0, 62, 0
2, 113954, Note_on_c, 0, 76, 68
2, 113966, Note_on_c, 0, 77, 0
2, 113972, Note_on_c, 0, 64, 57
2, 113978, Control_c, 0, 64, 57
2, 113994, Control_c, 0, 64, 56
2, 114009, Control_c, 0, 64, 56
2, 114025, Control_c, 0, 64, 55
2, 114040, Control_c, 0, 64, 54
2, 114055, Control_c, 0, 64, 51
2, 114070, Note_on_c, 0, 76, 0
2, 114071, Control_c, 0, 64, 47
2, 114071, Note_on_c, 0, 64, 0
2, 114082, Note_on_c, 0, 74, 68
2, 114086, Control_c, 0, 64, 42
2, 114087, Note_on_c, 0, 65, 49
2, 114100, Control_c, 0, 64, 36
2, 114116, Control_c, 0, 64, 26
2, 114131, Control_c, 0, 64, 0
2, 114165, Note_on_c, 0, 65, 0
2, 114198, Note_on_c, 0, 74, 0
2, 114209, Note_on_c, 0, 67, 49
2, 114213, Note_on_c, 0, 73, 68
2, 114299, Note_on_c, 0, 67, 0
2, 114318, Note_on_c, 0, 73, 0
2, 114322, Note_on_c, 0, 65, 47
2, 114330, Note_on_c, 0, 74, 63
2, 114441, Note_on_c, 0, 65, 0
2, 114473, Note_on_c, 0, 64, 52
2, 114474, Note_on_c, 0, 76, 68
2, 114480, Note_on_c, 0, 74, 0
2, 114576, Note_on_c, 0, 76, 0
2, 114598, Note_on_c, 0, 65, 58
2, 114599, Note_on_c, 0, 69, 69
2, 114612, Note_on_c, 0, 64, 0
2, 114700, Note_on_c, 0, 65, 0
2, 114719, Note_on_c, 0, 71, 79
2, 114731, Note_on_c, 0, 67, 67
2, 114731, Note_on_c, 0, 69, 0
2, 114838, Note_on_c, 0, 67, 0
2, 114845, Note_on_c, 0, 73, 81
2, 114857, Note_on_c, 0, 69, 60
2, 114871, Note_on_c, 0, 71, 0
2, 114981, Note_on_c, 0, 69, 0
2, 114985, Note_on_c, 0, 74, 73
2, 114990, Note_on_c, 0, 73, 0
2, 114996, Note_on_c, 0, 70, 62
2, 115102, Note_on_c, 0, 73, 82
2, 115107, Note_on_c, 0, 70, 0
2, 115116, Note_on_c, 0, 69, 62
2, 115134, Note_on_c, 0, 74, 0
2, 115232, Note_on_c, 0, 69, 0
2, 115241, Note_on_c, 0, 71, 83
2, 115248, Note_on_c, 0, 67, 66
2, 115253, Note_on_c, 0, 73, 0
2, 115379, Note_on_c, 0, 73, 81
2, 115388, Note_on_c, 0, 69, 63
2, 115397, Note_on_c, 0, 67, 0
2, 115409, Note_on_c, 0, 71, 0
2, 115511, Note_on_c, 0, 69, 0
2, 115515, Note_on_c, 0, 73, 0
2, 115521, Note_on_c, 0, 74, 74
2, 115640, Note_on_c, 0, 76, 77
2, 115642, Note_on_c, 0, 74, 0
2, 115775, Note_on_c, 0, 76, 0
2, 115776, Note_on_c, 0, 74, 80
2, 115780, Note_on_c, 0, 77, 67
2, 115915, Note_on_c, 0, 76, 79
2, 115917, Control_c, 0, 64, 38
2, 115917, Note_on_c, 0, 74, 0
2, 115923, Note_on_c, 0, 77, 0
2, 115932, Control_c, 0, 64, 51
2, 115948, Control_c, 0, 64, 57
2, 115964, Control_c, 0, 64, 61
2, 115979, Control_c, 0, 64, 63
2, 115995, Control_c, 0, 64, 64
2, 116010, Control_c, 0, 64, 66
2, 116024, Control_c, 0, 64, 68
2, 116040, Control_c, 0, 64, 71
2, 116053, Note_on_c, 0, 74, 76
2, 116055, Control_c, 0, 64, 73
2, 116071, Control_c, 0, 64, 75
2, 116074, Note_on_c, 0, 76, 0
2, 116086, Control_c, 0, 64, 75
2, 116162, Control_c, 0, 64, 75
2, 116177, Control_c, 0, 64, 74
2, 116192, Control_c, 0, 64, 71
2, 116207, Control_c, 0, 64, 68
2, 116208, Note_on_c, 0, 76, 71
2, 116210, Note_on_c, 0, 74, 0
2, 116212, Note_on_c, 0, 73, 78
2, 116222, Control_c, 0, 64, 64
2, 116238, Control_c, 0, 64, 60
2, 116253, Control_c, 0, 64, 52
2, 116269, Control_c, 0, 64, 33
2, 116284, Control_c, 0, 64, 0
2, 116435, Note_on_c, 0, 47, 66
2, 116501, Note_on_c, 0, 76, 0
2, 116653, Note_on_c, 0, 81, 76
2, 116656, Note_on_c, 0, 48, 71
2, 116660, Note_on_c, 0, 72, 57
2, 116761, Note_on_c, 0, 47, 0
2, 116798, Note_on_c, 0, 73, 0
2, 116872, Note_on_c, 0, 50, 79
2, 116921, Note_on_c, 0, 72, 0
2, 116957, Note_on_c, 0, 48, 0
2, 117091, Note_on_c, 0, 80, 78
2, 117103, Note_on_c, 0, 71, 62
2, 117107, Note_on_c, 0, 52, 66
2, 117121, Note_on_c, 0, 50, 0
2, 117250, Note_on_c, 0, 81, 0
2, 117325, Note_on_c, 0, 54, 77
2, 117365, Note_on_c, 0, 71, 0
2, 117506, Note_on_c, 0, 52, 0
2, 117534, Note_on_c, 0, 79, 82
2, 117537, Note_on_c, 0, 55, 72
2, 117543, Note_on_c, 0, 70, 62
2, 117602, Note_on_c, 0, 80, 0
2, 117610, Note_on_c, 0, 54, 0
2, 117755, Note_on_c, 0, 52, 73
2, 117774, Note_on_c, 0, 55, 0
2, 117937, Note_on_c, 0, 70, 0
2, 117969, Note_on_c, 0, 57, 69
2, 117974, Note_on_c, 0, 78, 78
2, 117980, Note_on_c, 0, 69, 60
2, 118030, Note_on_c, 0, 52, 0
2, 118114, Note_on_c, 0, 79, 0
2, 118186, Note_on_c, 0, 56, 80
2, 118250, Note_on_c, 0, 57, 0
2, 118400, Note_on_c, 0, 77, 78
2, 118410, Note_on_c, 0, 57, 79
2, 118460, Note_on_c, 0, 56, 0
2, 118528, Note_on_c, 0, 78, 0
2, 118623, Note_on_c, 0, 59, 81
2, 118672, Note_on_c, 0, 57, 0
2, 118836, Note_on_c, 0, 76, 72
2, 118845, Note_on_c, 0, 60, 69
2, 118884, Note_on_c, 0, 59, 0
2, 118889, Note_on_c, 0, 77, 0
2, 119074, Note_on_c, 0, 54, 78
2, 119296, Note_on_c, 0, 74, 73
2, 119299, Note_on_c, 0, 59, 64
2, 119322, Note_on_c, 0, 69, 0
2, 119363, Note_on_c, 0, 54, 0
2, 119369, Note_on_c, 0, 76, 0
2, 119380, Note_on_c, 0, 60, 0
2, 119510, Control_c, 0, 64, 36
2, 119514, Note_on_c, 0, 65, 65
2, 119517, Note_on_c, 0, 57, 64
2, 119524, Control_c, 0, 64, 48
2, 119540, Control_c, 0, 64, 56
2, 119549, Note_on_c, 0, 59, 0
2, 119555, Control_c, 0, 64, 59
2, 119570, Control_c, 0, 64, 61
2, 119586, Control_c, 0, 64, 63
2, 119600, Control_c, 0, 64, 65
2, 119615, Control_c, 0, 64, 67
2, 119631, Control_c, 0, 64, 68
2, 119633, Note_on_c, 0, 65, 0
2, 119646, Control_c, 0, 64, 70
2, 119722, Control_c, 0, 64, 68
2, 119727, Note_on_c, 0, 64, 74
2, 119729, Note_on_c, 0, 56, 53
2, 119732, Note_on_c, 0, 57, 0
2, 119737, Control_c, 0, 64, 67
2, 119760, Control_c, 0, 64, 64
2, 119775, Control_c, 0, 64, 60
2, 119791, Control_c, 0, 64, 50
2, 119805, Control_c, 0, 64, 28
2, 119821, Control_c, 0, 64, 0
2, 119931, Note_on_c, 0, 56, 0
2, 119943, Note_on_c, 0, 52, 56
2, 120174, Note_on_c, 0, 72, 74
2, 120193, Note_on_c, 0, 57, 48
2, 120202, Note_on_c, 0, 52, 0
2, 120242, Note_on_c, 0, 64, 0
2, 120261, Note_on_c, 0, 74, 0
2, 120368, Control_c, 0, 64, 19
2, 120384, Control_c, 0, 64, 44
2, 120396, Note_on_c, 0, 64, 64
2, 120399, Control_c, 0, 64, 53
2, 120414, Control_c, 0, 64, 58
2, 120430, Control_c, 0, 64, 61
2, 120444, Control_c, 0, 64, 64
2, 120460, Control_c, 0, 64, 66
2, 120475, Control_c, 0, 64, 68
2, 120481, Note_on_c, 0, 64, 0
2, 120490, Control_c, 0, 64, 72
2, 120506, Control_c, 0, 64, 75
2, 120528, Control_c, 0, 64, 77
2, 120544, Control_c, 0, 64, 79
2, 120559, Control_c, 0, 64, 80
2, 120635, Note_on_c, 0, 62, 59
2, 120637, Note_on_c, 0, 71, 81
2, 120665, Control_c, 0, 64, 79
2, 120680, Control_c, 0, 64, 78
2, 120684, Note_on_c, 0, 72, 0
2, 120695, Control_c, 0, 64, 76
2, 120710, Control_c, 0, 64, 74
2, 120725, Control_c, 0, 64, 72
2, 120741, Control_c, 0, 64, 70
2, 120756, Control_c, 0, 64, 68
2, 120771, Control_c, 0, 64, 66
2, 120787, Control_c, 0, 64, 63
2, 120802, Control_c, 0, 64, 59
2, 120817, Control_c, 0, 64, 48
2, 120832, Control_c, 0, 64, 26
2, 120847, Control_c, 0, 64, 0
2, 120853, Note_on_c, 0, 50, 56
2, 120873, Note_on_c, 0, 57, 0
2, 121081, Note_on_c, 0, 50, 0
2, 121081, Note_on_c, 0, 70, 66
2, 121091, Note_on_c, 0, 55, 45
2, 121121, Note_on_c, 0, 62, 0
2, 121157, Note_on_c, 0, 71, 0
2, 121297, Control_c, 0, 64, 45
2, 121303, Note_on_c, 0, 62, 50
2, 121304, Note_on_c, 0, 55, 0
2, 121312, Control_c, 0, 64, 56
2, 121327, Control_c, 0, 64, 61
2, 121327, Note_on_c, 0, 53, 38
2, 121343, Control_c, 0, 64, 65
2, 121358, Control_c, 0, 64, 68
2, 121373, Control_c, 0, 64, 72
2, 121381, Note_on_c, 0, 62, 0
2, 121389, Control_c, 0, 64, 77
2, 121404, Control_c, 0, 64, 82
2, 121420, Control_c, 0, 64, 86
2, 121434, Control_c, 0, 64, 90
2, 121449, Control_c, 0, 64, 91
2, 121525, Control_c, 0, 67, 19
2, 121534, Note_on_c, 0, 60, 58
2, 121541, Control_c, 0, 64, 90
2, 121541, Control_c, 0, 67, 31
2, 121554, Note_on_c, 0, 52, 40
2, 121555, Control_c, 0, 64, 86
2, 121555, Control_c, 0, 67, 44
2, 121569, Note_on_c, 0, 53, 0
2, 121570, Control_c, 0, 64, 81
2, 121570, Control_c, 0, 67, 58
2, 121586, Control_c, 0, 64, 76
2, 121586, Control_c, 0, 67, 70
2, 121601, Control_c, 0, 64, 72
2, 121601, Control_c, 0, 67, 79
2, 121616, Control_c, 0, 64, 69
2, 121616, Control_c, 0, 67, 88
2, 121631, Control_c, 0, 64, 66
2, 121631, Control_c, 0, 67, 96
2, 121646, Control_c, 0, 64, 63
2, 121646, Control_c, 0, 67, 103
2, 121662, Control_c, 0, 64, 55
2, 121662, Control_c, 0, 67, 108
2, 121677, Control_c, 0, 64, 40
2, 121677, Control_c, 0, 67, 112
2, 121692, Control_c, 0, 64, 0
2, 121692, Control_c, 0, 67, 115
2, 121709, Control_c, 0, 67, 118
2, 121723, Control_c, 0, 67, 119
2, 121739, Control_c, 0, 67, 120
2, 121753, Control_c, 0, 67, 121
2, 121753, Note_on_c, 0, 48, 38
2, 121772, Note_on_c, 0, 52, 0
2, 121783, Control_c, 0, 67, 122
2, 121798, Control_c, 0, 67, 125
2, 121813, Control_c, 0, 67, 127
2, 121979, Note_on_c, 0, 69, 57
2, 121982, Note_on_c, 0, 53, 38
2, 122006, Note_on_c, 0, 48, 0
2, 122023, Note_on_c, 0, 60, 0
2, 122070, Note_on_c, 0, 70, 0
2, 122185, Control_c, 0, 64, 26
2, 122200, Control_c, 0, 64, 47
2, 122213, Note_on_c, 0, 60, 42
2, 122215, Control_c, 0, 64, 56
2, 122231, Control_c, 0, 64, 60
2, 122246, Control_c, 0, 64, 63
2, 122261, Control_c, 0, 64, 66
2, 122276, Control_c, 0, 64, 68
2, 122276, Note_on_c, 0, 60, 0
2, 122291, Control_c, 0, 64, 73
2, 122307, Control_c, 0, 64, 77
2, 122322, Control_c, 0, 64, 81
2, 122337, Control_c, 0, 64, 84
2, 122352, Control_c, 0, 64, 85
2, 122421, Note_on_c, 0, 68, 60
2, 122443, Control_c, 0, 64, 84
2, 122448, Note_on_c, 0, 59, 42
2, 122459, Control_c, 0, 64, 82
2, 122474, Control_c, 0, 64, 79
2, 122489, Control_c, 0, 64, 75
2, 122505, Control_c, 0, 64, 72
2, 122520, Control_c, 0, 64, 68
2, 122535, Control_c, 0, 64, 65
2, 122546, Note_on_c, 0, 69, 0
2, 122551, Control_c, 0, 64, 59
2, 122566, Control_c, 0, 64, 41
2, 122582, Control_c, 0, 64, 0
2, 122637, Note_on_c, 0, 47, 40
2, 122866, Note_on_c, 0, 52, 36
2, 122873, Note_on_c, 0, 67, 51
2, 122885, Note_on_c, 0, 53, 0
2, 122887, Note_on_c, 0, 68, 0
2, 122901, Note_on_c, 0, 47, 0
2, 123078, Note_on_c, 0, 58, 49
2, 123090, Note_on_c, 0, 50, 35
2, 123091, Note_on_c, 0, 59, 0
2, 123104, Note_on_c, 0, 52, 0
2, 123275, Note_on_c, 0, 50, 0
2, 123296, Note_on_c, 0, 58, 0
2, 123308, Note_on_c, 0, 49, 39
2, 123310, Note_on_c, 0, 57, 50
2, 123502, Note_on_c, 0, 49, 0
2, 123522, Note_on_c, 0, 67, 0
2, 123546, Note_on_c, 0, 45, 24
2, 123643, Note_on_c, 0, 65, 51
2, 123681, Note_on_c, 0, 65, 0
2, 123689, Note_on_c, 0, 67, 53
2, 123738, Note_on_c, 0, 67, 0
2, 123759, Note_on_c, 0, 65, 64
2, 123770, Note_on_c, 0, 50, 33
2, 123780, Note_on_c, 0, 45, 0
2, 123781, Note_on_c, 0, 57, 0
2, 124200, Note_on_c, 0, 69, 56
2, 124202, Note_on_c, 0, 65, 0
2, 124208, Note_on_c, 0, 64, 42
2, 124360, Note_on_c, 0, 67, 61
2, 124422, Note_on_c, 0, 64, 0
2, 124474, Note_on_c, 0, 69, 0
2, 124483, Note_on_c, 0, 65, 71
2, 124537, Note_on_c, 0, 67, 0
2, 124618, Note_on_c, 0, 49, 38
2, 124623, Note_on_c, 0, 64, 73
2, 124623, Note_on_c, 0, 65, 0
2, 124644, Note_on_c, 0, 50, 0
2, 124743, Note_on_c, 0, 65, 73
2, 124783, Note_on_c, 0, 64, 0
2, 124881, Note_on_c, 0, 65, 0
2, 124881, Note_on_c, 0, 67, 67
2, 124982, Note_on_c, 0, 49, 0
2, 125028, Note_on_c, 0, 65, 69
2, 125029, Note_on_c, 0, 50, 46
2, 125034, Control_c, 0, 67, 126
2, 125049, Control_c, 0, 67, 118
2, 125053, Note_on_c, 0, 67, 0
2, 125064, Control_c, 0, 67, 104
2, 125080, Control_c, 0, 67, 90
2, 125094, Control_c, 0, 67, 76
2, 125109, Control_c, 0, 67, 60
2, 125133, Control_c, 0, 67, 41
2, 125148, Control_c, 0, 67, 15
2, 125154, Note_on_c, 0, 48, 58
2, 125160, Note_on_c, 0, 64, 70
2, 125163, Control_c, 0, 67, 0
2, 125169, Note_on_c, 0, 50, 0
2, 125188, Note_on_c, 0, 65, 0
2, 125264, Note_on_c, 0, 64, 0
2, 125289, Note_on_c, 0, 62, 67
2, 125291, Note_on_c, 0, 46, 60
2, 125325, Note_on_c, 0, 48, 0
2, 125417, Note_on_c, 0, 61, 67
2, 125426, Note_on_c, 0, 45, 63
2, 125436, Note_on_c, 0, 46, 0
2, 125436, Note_on_c, 0, 62, 0
2, 125549, Note_on_c, 0, 62, 73
2, 125553, Note_on_c, 0, 46, 73
2, 125569, Note_on_c, 0, 45, 0
2, 125573, Note_on_c, 0, 61, 0
2, 125667, Note_on_c, 0, 62, 0
2, 125671, Note_on_c, 0, 64, 73
2, 125677, Note_on_c, 0, 46, 0
2, 125680, Note_on_c, 0, 48, 70
2, 125817, Note_on_c, 0, 62, 65
2, 125821, Note_on_c, 0, 46, 66
2, 125824, Note_on_c, 0, 48, 0
2, 125844, Note_on_c, 0, 64, 0
2, 125943, Note_on_c, 0, 46, 0
2, 125950, Note_on_c, 0, 45, 65
2, 125998, Note_on_c, 0, 62, 0
2, 126093, Note_on_c, 0, 45, 0
2, 126099, Note_on_c, 0, 43, 58
2, 126211, Note_on_c, 0, 57, 67
2, 126227, Note_on_c, 0, 42, 65
2, 126235, Note_on_c, 0, 43, 0
2, 126348, Note_on_c, 0, 43, 71
2, 126383, Note_on_c, 0, 42, 0
2, 126442, Note_on_c, 0, 57, 0
2, 126471, Note_on_c, 0, 45, 66
2, 126474, Note_on_c, 0, 43, 0
2, 126627, Note_on_c, 0, 58, 80
2, 126630, Note_on_c, 0, 43, 60
2, 126646, Note_on_c, 0, 45, 0
2, 126761, Note_on_c, 0, 62, 64
2, 126851, Note_on_c, 0, 43, 0
2, 126888, Note_on_c, 0, 64, 71
2, 126978, Note_on_c, 0, 62, 0
2, 127017, Note_on_c, 0, 58, 0
2, 127027, Note_on_c, 0, 65, 61
2, 127035, Note_on_c, 0, 38, 64
2, 127048, Note_on_c, 0, 64, 0
2, 127172, Note_on_c, 0, 64, 69
2, 127210, Note_on_c, 0, 65, 0
2, 127304, Note_on_c, 0, 62, 69
2, 127321, Note_on_c, 0, 64, 0
2, 127446, Note_on_c, 0, 62, 0
2, 127462, Note_on_c, 0, 39, 63
2, 127462, Note_on_c, 0, 60, 75
2, 127504, Note_on_c, 0, 38, 0
2, 127601, Note_on_c, 0, 70, 71
2, 127727, Note_on_c, 0, 69, 72
2, 127728, Note_on_c, 0, 60, 0
2, 127829, Note_on_c, 0, 70, 0
2, 127865, Note_on_c, 0, 40, 72
2, 127877, Note_on_c, 0, 67, 70
2, 127884, Note_on_c, 0, 61, 60
2, 127894, Note_on_c, 0, 69, 0
2, 127961, Note_on_c, 0, 39, 0
2, 128019, Note_on_c, 0, 69, 73
2, 128142, Note_on_c, 0, 70, 69
2, 128175, Note_on_c, 0, 69, 0
2, 128271, Note_on_c, 0, 61, 0
2, 128288, Note_on_c, 0, 41, 70
2, 128295, Note_on_c, 0, 62, 65
2, 128300, Note_on_c, 0, 67, 0
2, 128373, Note_on_c, 0, 40, 0
2, 128427, Note_on_c, 0, 69, 75
2, 128443, Note_on_c, 0, 70, 0
2, 128553, Note_on_c, 0, 70, 79
2, 128604, Note_on_c, 0, 69, 0
2, 128688, Note_on_c, 0, 42, 70
2, 128694, Note_on_c, 0, 72, 72
2, 128711, Note_on_c, 0, 70, 0
2, 128773, Note_on_c, 0, 41, 0
2, 128820, Note_on_c, 0, 70, 76
2, 128915, Note_on_c, 0, 72, 0
2, 128917, Note_on_c, 0, 42, 0
2, 128946, Note_on_c, 0, 69, 75
2, 128980, Note_on_c, 0, 70, 0
2, 129105, Note_on_c, 0, 70, 66
2, 129121, Note_on_c, 0, 43, 63
2, 129147, Note_on_c, 0, 69, 0
2, 129245, Note_on_c, 0, 45, 76
2, 129285, Note_on_c, 0, 70, 0
2, 129297, Note_on_c, 0, 43, 0
2, 129373, Note_on_c, 0, 46, 79
2, 129401, Note_on_c, 0, 45, 0
2, 129507, Note_on_c, 0, 48, 69
2, 129509, Note_on_c, 0, 46, 0
2, 129513, Note_on_c, 0, 66, 69
2, 129643, Note_on_c, 0, 46, 66
2, 129648, Note_on_c, 0, 48, 0
2, 129714, Note_on_c, 0, 66, 0
2, 129775, Note_on_c, 0, 45, 67
2, 129776, Note_on_c, 0, 46, 0
2, 129926, Note_on_c, 0, 67, 69
2, 129927, Note_on_c, 0, 46, 59
2, 129954, Note_on_c, 0, 45, 0
2, 130030, Note_on_c, 0, 46, 0
2, 130046, Note_on_c, 0, 48, 63
2, 130057, Note_on_c, 0, 69, 76
2, 130090, Note_on_c, 0, 67, 0
2, 130171, Note_on_c, 0, 48, 0
2, 130176, Note_on_c, 0, 70, 78
2, 130190, Note_on_c, 0, 50, 62
2, 130208, Note_on_c, 0, 69, 0
2, 130248, Note_on_c, 0, 62, 0
2, 130311, Note_on_c, 0, 50, 0
2, 130321, Note_on_c, 0, 72, 77
2, 130327, Note_on_c, 0, 51, 62
2, 130342, Note_on_c, 0, 70, 0
2, 130440, Note_on_c, 0, 51, 0
2, 130449, Note_on_c, 0, 70, 81
2, 130450, Note_on_c, 0, 50, 60
2, 130478, Note_on_c, 0, 72, 0
2, 130561, Note_on_c, 0, 50, 0
2, 130581, Note_on_c, 0, 48, 58
2, 130586, Note_on_c, 0, 69, 82
2, 130599, Note_on_c, 0, 70, 0
2, 130728, Note_on_c, 0, 50, 63
2, 130730, Note_on_c, 0, 70, 75
2, 130737, Note_on_c, 0, 48, 0
2, 130747, Note_on_c, 0, 69, 0
2, 130849, Note_on_c, 0, 70, 0
2, 130858, Note_on_c, 0, 50, 0
2, 130859, Note_on_c, 0, 72, 79
2, 130991, Note_on_c, 0, 74, 82
2, 130994, Note_on_c, 0, 72, 0
2, 131138, Note_on_c, 0, 55, 81
2, 131146, Note_on_c, 0, 75, 76
2, 131156, Note_on_c, 0, 74, 0
2, 131270, Note_on_c, 0, 75, 0
2, 131280, Note_on_c, 0, 74, 76
2, 131407, Note_on_c, 0, 73, 81
2, 131419, Note_on_c, 0, 74, 0
2, 131548, Note_on_c, 0, 74, 73
2, 131562, Note_on_c, 0, 73, 0
2, 131673, Note_on_c, 0, 72, 67
2, 131803, Note_on_c, 0, 70, 60
2, 131808, Note_on_c, 0, 72, 0
2, 131934, Note_on_c, 0, 70, 0
2, 131955, Note_on_c, 0, 69, 59
2, 131962, Note_on_c, 0, 54, 48
2, 131998, Note_on_c, 0, 55, 0
2, 132093, Note_on_c, 0, 69, 0
2, 132102, Note_on_c, 0, 70, 60
2, 132211, Note_on_c, 0, 70, 0
2, 132233, Note_on_c, 0, 72, 63
2, 132367, Note_on_c, 0, 54, 0
2, 132372, Note_on_c, 0, 72, 0
2, 132378, Note_on_c, 0, 70, 60
2, 132399, Note_on_c, 0, 55, 56
2, 132508, Note_on_c, 0, 74, 0
2, 132517, Note_on_c, 0, 53, 77
2, 132527, Note_on_c, 0, 55, 0
2, 132541, Note_on_c, 0, 70, 0
2, 132636, Note_on_c, 0, 52, 75
2, 132672, Note_on_c, 0, 53, 0
2, 132762, Note_on_c, 0, 50, 64
2, 132769, Note_on_c, 0, 52, 0
2, 132771, Note_on_c, 0, 74, 74
2, 132888, Note_on_c, 0, 52, 74
2, 132921, Note_on_c, 0, 50, 0
2, 132953, Note_on_c, 0, 74, 0
2, 133026, Note_on_c, 0, 53, 64
2, 133031, Note_on_c, 0, 52, 0
2, 133170, Note_on_c, 0, 53, 0
2, 133188, Note_on_c, 0, 52, 41
2, 133195, Note_on_c, 0, 79, 77
2, 133212, Note_on_c, 0, 67, 47
2, 133324, Note_on_c, 0, 77, 77
2, 133360, Note_on_c, 0, 79, 0
2, 133364, Note_on_c, 0, 52, 0
2, 133367, Note_on_c, 0, 67, 0
2, 133454, Note_on_c, 0, 76, 82
2, 133466, Note_on_c, 0, 77, 0
2, 133606, Note_on_c, 0, 76, 0
2, 133611, Note_on_c, 0, 55, 45
2, 133614, Note_on_c, 0, 74, 68
2, 133640, Note_on_c, 0, 71, 52
2, 133744, Note_on_c, 0, 55, 0
2, 133746, Note_on_c, 0, 76, 70
2, 133753, Note_on_c, 0, 74, 0
2, 133769, Note_on_c, 0, 71, 0
2, 133870, Note_on_c, 0, 76, 0
2, 133878, Note_on_c, 0, 77, 73
2, 134027, Note_on_c, 0, 76, 66
2, 134029, Note_on_c, 0, 60, 63
2, 134029, Note_on_c, 0, 77, 0
2, 134047, Note_on_c, 0, 72, 52
2, 134151, Note_on_c, 0, 58, 75
2, 134189, Note_on_c, 0, 76, 0
2, 134206, Note_on_c, 0, 60, 0
2, 134281, Note_on_c, 0, 57, 69
2, 134303, Note_on_c, 0, 58, 0
2, 134424, Note_on_c, 0, 57, 0
2, 134432, Note_on_c, 0, 55, 55
2, 134436, Note_on_c, 0, 79, 74
2, 134455, Note_on_c, 0, 72, 0
2, 134537, Note_on_c, 0, 55, 0
2, 134551, Note_on_c, 0, 57, 60
2, 134592, Note_on_c, 0, 79, 0
2, 134663, Note_on_c, 0, 57, 0
2, 134683, Note_on_c, 0, 58, 55
2, 134809, Note_on_c, 0, 58, 0
2, 134829, Note_on_c, 0, 57, 42
2, 134842, Note_on_c, 0, 72, 63
2, 134961, Note_on_c, 0, 70, 55
2, 135007, Note_on_c, 0, 57, 0
2, 135080, Note_on_c, 0, 70, 0
2, 135114, Note_on_c, 0, 69, 61
2, 135135, Note_on_c, 0, 72, 0
2, 135223, Note_on_c, 0, 69, 0
2, 135268, Note_on_c, 0, 60, 40
2, 135269, Note_on_c, 0, 67, 52
2, 135364, Note_on_c, 0, 67, 0
2, 135384, Note_on_c, 0, 69, 61
2, 135390, Note_on_c, 0, 60, 0
2, 135503, Note_on_c, 0, 69, 0
2, 135526, Note_on_c, 0, 70, 61
2, 135664, Note_on_c, 0, 70, 0
2, 135668, Note_on_c, 0, 69, 58
2, 135678, Note_on_c, 0, 53, 46
2, 135794, Note_on_c, 0, 51, 68
2, 135810, Note_on_c, 0, 69, 0
2, 135836, Note_on_c, 0, 53, 0
2, 135924, Note_on_c, 0, 50, 68
2, 135955, Note_on_c, 0, 51, 0
2, 136055, Note_on_c, 0, 72, 70
2, 136058, Note_on_c, 0, 48, 61
2, 136074, Note_on_c, 0, 50, 0
2, 136184, Note_on_c, 0, 50, 64
2, 136190, Note_on_c, 0, 72, 0
2, 136198, Note_on_c, 0, 48, 0
2, 136302, Note_on_c, 0, 51, 62
2, 136316, Note_on_c, 0, 50, 0
2, 136436, Note_on_c, 0, 51, 0
2, 136466, Note_on_c, 0, 50, 46
2, 136474, Note_on_c, 0, 77, 69
2, 136481, Note_on_c, 0, 65, 51
2, 136597, Note_on_c, 0, 65, 0
2, 136598, Note_on_c, 0, 75, 74
2, 136671, Note_on_c, 0, 50, 0
2, 136726, Note_on_c, 0, 77, 0
2, 136734, Note_on_c, 0, 74, 76
2, 136748, Note_on_c, 0, 75, 0
2, 136874, Note_on_c, 0, 74, 0
2, 136884, Note_on_c, 0, 53, 53
2, 136884, Note_on_c, 0, 72, 71
2, 136899, Note_on_c, 0, 69, 52
2, 136991, Note_on_c, 0, 69, 0
2, 137024, Note_on_c, 0, 74, 71
2, 137028, Note_on_c, 0, 72, 0
2, 137031, Note_on_c, 0, 53, 0
2, 137154, Note_on_c, 0, 75, 68
2, 137170, Note_on_c, 0, 74, 0
2, 137301, Note_on_c, 0, 70, 46
2, 137302, Note_on_c, 0, 75, 0
2, 137303, Note_on_c, 0, 74, 71
2, 137306, Note_on_c, 0, 58, 50
2, 137433, Note_on_c, 0, 70, 0
2, 137443, Note_on_c, 0, 58, 0
2, 137450, Note_on_c, 0, 57, 62
2, 137572, Note_on_c, 0, 55, 65
2, 137595, Note_on_c, 0, 57, 0
2, 137710, Note_on_c, 0, 69, 73
2, 137713, Note_on_c, 0, 55, 0
2, 137722, Note_on_c, 0, 54, 62
2, 137844, Note_on_c, 0, 55, 65
2, 137849, Note_on_c, 0, 74, 0
2, 137881, Note_on_c, 0, 54, 0
2, 137966, Note_on_c, 0, 55, 0
2, 137975, Note_on_c, 0, 57, 71
2, 138093, Note_on_c, 0, 57, 0
2, 138111, Note_on_c, 0, 73, 74
2, 138119, Note_on_c, 0, 55, 65
2, 138247, Note_on_c, 0, 55, 0
2, 138257, Note_on_c, 0, 74, 78
2, 138268, Note_on_c, 0, 53, 57
2, 138292, Note_on_c, 0, 73, 0
2, 138374, Note_on_c, 0, 76, 81
2, 138381, Note_on_c, 0, 52, 61
2, 138388, Note_on_c, 0, 53, 0
2, 138389, Note_on_c, 0, 69, 0
2, 138389, Note_on_c, 0, 69, 14
2, 138393, Note_on_c, 0, 74, 0
2, 138511, Note_on_c, 0, 52, 0
2, 138512, Note_on_c, 0, 77, 81
2, 138519, Note_on_c, 0, 50, 61
2, 138538, Note_on_c, 0, 76, 0
2, 138631, Note_on_c, 0, 52, 67
2, 138639, Note_on_c, 0, 76, 87
2, 138658, Note_on_c, 0, 50, 0
2, 138662, Note_on_c, 0, 77, 0
2, 138759, Note_on_c, 0, 53, 75
2, 138759, Note_on_c, 0, 74, 81
2, 138761, Note_on_c, 0, 52, 0
2, 138763, Note_on_c, 0, 76, 0
2, 138901, Note_on_c, 0, 76, 79
2, 138906, Note_on_c, 0, 52, 61
2, 138915, Note_on_c, 0, 53, 0
2, 138956, Note_on_c, 0, 74, 0
2, 139003, Note_on_c, 0, 52, 0
2, 139024, Note_on_c, 0, 77, 83
2, 139031, Note_on_c, 0, 50, 64
2, 139058, Note_on_c, 0, 76, 0
2, 139139, Note_on_c, 0, 50, 0
2, 139159, Note_on_c, 0, 79, 81
2, 139167, Note_on_c, 0, 48, 52
2, 139183, Note_on_c, 0, 77, 0
2, 139202, Control_c, 0, 64, 38
2, 139217, Control_c, 0, 64, 49
2, 139217, Note_on_c, 0, 79, 0
2, 139232, Control_c, 0, 64, 54
2, 139247, Control_c, 0, 64, 57
2, 139260, Note_on_c, 0, 48, 0
2, 139262, Control_c, 0, 64, 58
2, 139278, Control_c, 0, 64, 59
2, 139286, Note_on_c, 0, 47, 49
2, 139293, Control_c, 0, 64, 60
2, 139294, Note_on_c, 0, 81, 74
2, 139338, Control_c, 0, 64, 59
2, 139354, Control_c, 0, 64, 59
2, 139368, Control_c, 0, 64, 58
2, 139383, Control_c, 0, 64, 58
2, 139399, Control_c, 0, 64, 57
2, 139411, Note_on_c, 0, 79, 75
2, 139413, Note_on_c, 0, 47, 0
2, 139414, Control_c, 0, 64, 55
2, 139418, Note_on_c, 0, 49, 56
2, 139430, Control_c, 0, 64, 53
2, 139444, Control_c, 0, 64, 50
2, 139459, Control_c, 0, 64, 48
2, 139475, Control_c, 0, 64, 45
2, 139490, Control_c, 0, 64, 42
2, 139506, Control_c, 0, 64, 37
2, 139520, Control_c, 0, 64, 25
2, 139529, Note_on_c, 0, 49, 0
2, 139535, Control_c, 0, 64, 0
2, 139549, Note_on_c, 0, 81, 0
2, 139551, Note_on_c, 0, 77, 84
2, 139554, Note_on_c, 0, 50, 57
2, 139587, Note_on_c, 0, 79, 0
2, 139634, Note_on_c, 0, 69, 0
2, 139710, Note_on_c, 0, 79, 79
2, 139729, Note_on_c, 0, 50, 0
2, 139736, Note_on_c, 0, 49, 52
2, 139749, Note_on_c, 0, 77, 0
2, 139926, Note_on_c, 0, 49, 0
2, 139946, Note_on_c, 0, 69, 88
2, 139952, Note_on_c, 0, 45, 52
2, 139978, Note_on_c, 0, 79, 0
2, 140173, Note_on_c, 0, 77, 71
2, 140175, Note_on_c, 0, 70, 79
2, 140186, Note_on_c, 0, 45, 0
2, 140188, Note_on_c, 0, 50, 58
2, 140222, Note_on_c, 0, 69, 0
2, 140333, Control_c, 0, 64, 31
2, 140349, Control_c, 0, 64, 49
2, 140363, Control_c, 0, 64, 58
2, 140378, Control_c, 0, 64, 62
2, 140394, Control_c, 0, 64, 65
2, 140396, Note_on_c, 0, 69, 85
2, 140398, Note_on_c, 0, 77, 0
2, 140408, Control_c, 0, 64, 68
2, 140422, Note_on_c, 0, 70, 0
2, 140423, Control_c, 0, 64, 72
2, 140439, Control_c, 0, 64, 79
2, 140454, Control_c, 0, 64, 89
2, 140470, Control_c, 0, 64, 102
2, 140492, Control_c, 0, 64, 113
2, 140492, Note_on_c, 0, 69, 0
2, 140508, Control_c, 0, 64, 127
2, 140622, Note_on_c, 0, 76, 82
2, 140630, Control_c, 0, 64, 116
2, 140634, Note_on_c, 0, 67, 63
2, 140645, Control_c, 0, 64, 104
2, 140660, Control_c, 0, 64, 96
2, 140676, Control_c, 0, 64, 89
2, 140690, Control_c, 0, 64, 81
2, 140706, Control_c, 0, 64, 73
2, 140721, Control_c, 0, 64, 67
2, 140736, Control_c, 0, 64, 60
2, 140752, Control_c, 0, 64, 41
2, 140767, Control_c, 0, 64, 0
2, 140842, Note_on_c, 0, 70, 82
2, 140884, Note_on_c, 0, 67, 0
2, 141055, Note_on_c, 0, 49, 47
2, 141055, Note_on_c, 0, 69, 82
2, 141085, Note_on_c, 0, 50, 0
2, 141104, Note_on_c, 0, 70, 0
2, 141222, Control_c, 0, 64, 41
2, 141238, Control_c, 0, 64, 53
2, 141259, Control_c, 0, 64, 59
2, 141275, Control_c, 0, 64, 62
2, 141279, Note_on_c, 0, 49, 0
2, 141290, Control_c, 0, 64, 65
2, 141291, Note_on_c, 0, 67, 84
2, 141305, Control_c, 0, 64, 68
2, 141321, Control_c, 0, 64, 72
2, 141324, Note_on_c, 0, 69, 0
2, 141335, Control_c, 0, 64, 76
2, 141351, Control_c, 0, 64, 81
2, 141367, Control_c, 0, 64, 87
2, 141382, Control_c, 0, 64, 94
2, 141396, Note_on_c, 0, 67, 0
2, 141398, Control_c, 0, 64, 98
2, 141413, Control_c, 0, 64, 99
2, 141513, Note_on_c, 0, 65, 86
2, 141517, Note_on_c, 0, 50, 60
2, 141519, Control_c, 0, 64, 98
2, 141534, Control_c, 0, 64, 94
2, 141550, Control_c, 0, 64, 90
2, 141565, Control_c, 0, 64, 85
2, 141580, Control_c, 0, 64, 81
2, 141596, Control_c, 0, 64, 77
2, 141611, Control_c, 0, 64, 72
2, 141627, Control_c, 0, 64, 67
2, 141641, Control_c, 0, 64, 61
2, 141656, Control_c, 0, 64, 47
2, 141672, Control_c, 0, 64, 0
2, 141731, Note_on_c, 0, 74, 78
2, 141757, Note_on_c, 0, 76, 0
2, 141763, Note_on_c, 0, 50, 0
2, 141795, Note_on_c, 0, 65, 0
2, 141961, Note_on_c, 0, 58, 72
2, 141968, Note_on_c, 0, 75, 74
2, 141969, Note_on_c, 0, 55, 53
2, 141990, Note_on_c, 0, 74, 0
2, 142184, Note_on_c, 0, 74, 78
2, 142218, Note_on_c, 0, 75, 0
2, 142409, Note_on_c, 0, 58, 0
2, 142416, Note_on_c, 0, 73, 72
2, 142437, Note_on_c, 0, 74, 0
2, 142440, Note_on_c, 0, 57, 45
2, 142654, Note_on_c, 0, 76, 69
2, 142675, Note_on_c, 0, 73, 0
2, 142873, Note_on_c, 0, 54, 36
2, 142888, Note_on_c, 0, 74, 64
2, 142967, Note_on_c, 0, 55, 0
2, 143070, Note_on_c, 0, 57, 0
2, 143115, Note_on_c, 0, 72, 73
2, 143233, Note_on_c, 0, 76, 0
2, 143308, Note_on_c, 0, 74, 0
2, 143331, Note_on_c, 0, 55, 67
2, 143338, Note_on_c, 0, 71, 73
2, 143366, Note_on_c, 0, 54, 0
2, 143384, Note_on_c, 0, 72, 0
2, 143534, Note_on_c, 0, 71, 0
2, 143548, Note_on_c, 0, 53, 68
2, 143612, Note_on_c, 0, 55, 0
2, 143778, Note_on_c, 0, 67, 77
2, 143783, Note_on_c, 0, 70, 65
2, 143803, Note_on_c, 0, 52, 49
2, 143818, Note_on_c, 0, 53, 0
2, 143987, Note_on_c, 0, 52, 0
2, 144006, Control_c, 0, 64, 46
2, 144018, Note_on_c, 0, 50, 45
2, 144020, Control_c, 0, 64, 57
2, 144036, Control_c, 0, 64, 61
2, 144051, Control_c, 0, 64, 64
2, 144056, Note_on_c, 0, 70, 0
2, 144067, Control_c, 0, 64, 66
2, 144082, Control_c, 0, 64, 70
2, 144096, Control_c, 0, 64, 74
2, 144112, Control_c, 0, 64, 78
2, 144127, Control_c, 0, 64, 83
2, 144142, Control_c, 0, 64, 86
2, 144158, Control_c, 0, 64, 87
2, 144173, Control_c, 0, 64, 88
2, 144228, Note_on_c, 0, 69, 63
2, 144240, Note_on_c, 0, 49, 45
2, 144264, Control_c, 0, 64, 87
2, 144279, Note_on_c, 0, 50, 0
2, 144280, Control_c, 0, 64, 85
2, 144295, Control_c, 0, 64, 82
2, 144310, Control_c, 0, 64, 79
2, 144332, Control_c, 0, 64, 75
2, 144348, Control_c, 0, 64, 71
2, 144362, Control_c, 0, 64, 68
2, 144377, Control_c, 0, 64, 64
2, 144393, Control_c, 0, 64, 54
2, 144408, Control_c, 0, 64, 26
2, 144423, Control_c, 0, 64, 0
2, 144440, Note_on_c, 0, 49, 0
2, 144460, Note_on_c, 0, 52, 51
2, 144686, Note_on_c, 0, 65, 72
2, 144707, Note_on_c, 0, 50, 44
2, 144707, Note_on_c, 0, 52, 0
2, 144732, Note_on_c, 0, 67, 0
2, 144870, Note_on_c, 0, 50, 0
2, 144893, Note_on_c, 0, 64, 79
2, 144905, Note_on_c, 0, 48, 44
2, 144953, Note_on_c, 0, 65, 0
2, 145131, Note_on_c, 0, 62, 72
2, 145141, Note_on_c, 0, 47, 44
2, 145163, Note_on_c, 0, 48, 0
2, 145171, Note_on_c, 0, 64, 0
2, 145340, Note_on_c, 0, 65, 71
2, 145556, Note_on_c, 0, 62, 0
2, 145564, Note_on_c, 0, 64, 68
2, 145566, Note_on_c, 0, 46, 39
2, 145570, Note_on_c, 0, 67, 58
2, 145596, Note_on_c, 0, 47, 0
2, 145600, Note_on_c, 0, 65, 0
2, 145612, Note_on_c, 0, 69, 0
2, 145779, Note_on_c, 0, 64, 0
2, 145783, Note_on_c, 0, 62, 75
2, 145983, Note_on_c, 0, 46, 0
2, 146011, Note_on_c, 0, 61, 71
2, 146035, Note_on_c, 0, 45, 31
2, 146056, Note_on_c, 0, 62, 0
2, 146207, Note_on_c, 0, 45, 0
2, 146237, Note_on_c, 0, 57, 44
2, 146439, Note_on_c, 0, 62, 70
2, 146448, Note_on_c, 0, 65, 53
2, 146455, Note_on_c, 0, 57, 0
2, 146465, Note_on_c, 0, 58, 37
2, 146491, Note_on_c, 0, 61, 0
2, 146659, Note_on_c, 0, 58, 0
2, 146698, Note_on_c, 0, 57, 15
2, 146888, Note_on_c, 0, 67, 0
2, 146894, Note_on_c, 0, 64, 55
2, 146912, Note_on_c, 0, 55, 28
2, 146916, Note_on_c, 0, 65, 0
2, 146924, Note_on_c, 0, 57, 0
2, 147126, Note_on_c, 0, 58, 28
2, 147135, Note_on_c, 0, 55, 0
2, 147333, Note_on_c, 0, 58, 0
2, 147348, Note_on_c, 0, 61, 55
2, 147368, Note_on_c, 0, 57, 36
2, 147380, Note_on_c, 0, 62, 0
2, 147566, Note_on_c, 0, 55, 43
2, 147573, Note_on_c, 0, 57, 0
2, 147786, Note_on_c, 0, 62, 54
2, 147804, Note_on_c, 0, 53, 30
2, 147821, Note_on_c, 0, 61, 0
2, 147825, Note_on_c, 0, 55, 0
2, 147903, Note_on_c, 0, 64, 0
2, 147976, Note_on_c, 0, 53, 0
2, 147999, Note_on_c, 0, 60, 54
2, 148011, Note_on_c, 0, 57, 35
2, 148209, Note_on_c, 0, 58, 54
2, 148213, Note_on_c, 0, 55, 43
2, 148220, Note_on_c, 0, 60, 0
2, 148230, Note_on_c, 0, 57, 0
2, 148383, Control_c, 0, 64, 21
2, 148399, Control_c, 0, 64, 42
2, 148402, Note_on_c, 0, 55, 0
2, 148414, Control_c, 0, 64, 49
2, 148420, Note_on_c, 0, 58, 0
2, 148428, Note_on_c, 0, 57, 59
2, 148429, Control_c, 0, 64, 54
2, 148436, Note_on_c, 0, 53, 41
2, 148445, Control_c, 0, 64, 58
2, 148459, Control_c, 0, 64, 60
2, 148475, Control_c, 0, 64, 62
2, 148490, Control_c, 0, 64, 64
2, 148505, Control_c, 0, 64, 65
2, 148521, Control_c, 0, 64, 67
2, 148535, Control_c, 0, 64, 68
2, 148536, Note_on_c, 0, 57, 0
2, 148550, Control_c, 0, 64, 68
2, 148566, Control_c, 0, 64, 69
2, 148582, Note_on_c, 0, 53, 0
2, 148631, Note_on_c, 0, 52, 52
2, 148638, Note_on_c, 0, 55, 64
2, 148657, Control_c, 0, 64, 68
2, 148672, Control_c, 0, 64, 68
2, 148688, Control_c, 0, 64, 66
2, 148690, Note_on_c, 0, 62, 0
2, 148703, Control_c, 0, 64, 65
2, 148719, Control_c, 0, 64, 63
2, 148735, Control_c, 0, 64, 62
2, 148749, Control_c, 0, 64, 59
2, 148765, Control_c, 0, 64, 56
2, 148780, Control_c, 0, 64, 51
2, 148796, Control_c, 0, 64, 42
2, 148810, Control_c, 0, 64, 25
2, 148825, Control_c, 0, 64, 0
2, 148837, Note_on_c, 0, 50, 49
2, 148837, Note_on_c, 0, 58, 66
2, 148876, Note_on_c, 0, 55, 0
2, 148883, Note_on_c, 0, 52, 0
2, 149053, Note_on_c, 0, 49, 53
2, 149062, Note_on_c, 0, 57, 67
2, 149083, Note_on_c, 0, 50, 0
2, 149111, Note_on_c, 0, 58, 0
2, 149264, Note_on_c, 0, 55, 74
2, 149264, Note_on_c, 0, 57, 0
2, 149268, Note_on_c, 0, 52, 55
2, 149270, Note_on_c, 0, 49, 0
2, 149472, Note_on_c, 0, 53, 68
2, 149482, Note_on_c, 0, 50, 55
2, 149496, Note_on_c, 0, 55, 0
2, 149500, Note_on_c, 0, 52, 0
2, 149678, Note_on_c, 0, 57, 69
2, 149680, Note_on_c, 0, 50, 0
2, 149709, Note_on_c, 0, 48, 61
2, 149722, Note_on_c, 0, 53, 0
2, 149904, Note_on_c, 0, 46, 66
2, 149906, Note_on_c, 0, 55, 74
2, 149947, Note_on_c, 0, 57, 0
2, 149957, Note_on_c, 0, 48, 0
2, 150106, Note_on_c, 0, 45, 68
2, 150111, Note_on_c, 0, 53, 74
2, 150134, Note_on_c, 0, 46, 0
2, 150164, Note_on_c, 0, 55, 0
2, 150334, Note_on_c, 0, 43, 65
2, 150337, Note_on_c, 0, 53, 0
2, 150340, Note_on_c, 0, 52, 70
2, 150380, Note_on_c, 0, 45, 0
2, 150560, Note_on_c, 0, 50, 71
2, 150561, Note_on_c, 0, 46, 69
2, 150592, Note_on_c, 0, 52, 0
2, 150599, Note_on_c, 0, 43, 0
2, 150765, Note_on_c, 0, 49, 72
2, 150774, Note_on_c, 0, 45, 69
2, 150789, Note_on_c, 0, 46, 0
2, 150798, Note_on_c, 0, 50, 0
2, 150975, Note_on_c, 0, 52, 74
2, 150976, Note_on_c, 0, 43, 69
2, 150991, Note_on_c, 0, 49, 0
2, 151011, Note_on_c, 0, 45, 0
2, 151200, Note_on_c, 0, 41, 65
2, 151206, Note_on_c, 0, 50, 71
2, 151206, Note_on_c, 0, 52, 0
2, 151227, Note_on_c, 0, 43, 0
2, 151347, Note_on_c, 0, 52, 73
2, 151368, Note_on_c, 0, 50, 0
2, 151387, Note_on_c, 0, 41, 0
2, 151484, Note_on_c, 0, 53, 75
2, 151616, Note_on_c, 0, 52, 0
2, 151621, Note_on_c, 0, 46, 71
2, 151629, Note_on_c, 0, 55, 71
2, 151632, Note_on_c, 0, 53, 0
2, 151763, Note_on_c, 0, 53, 69
2, 151784, Note_on_c, 0, 55, 0
2, 151816, Note_on_c, 0, 46, 0
2, 151900, Note_on_c, 0, 52, 73
2, 151907, Note_on_c, 0, 53, 0
2, 152058, Note_on_c, 0, 52, 0
2, 152065, Note_on_c, 0, 53, 71
2, 152070, Note_on_c, 0, 45, 56
2, 152199, Note_on_c, 0, 55, 75
2, 152200, Note_on_c, 0, 43, 65
2, 152203, Note_on_c, 0, 53, 0
2, 152205, Note_on_c, 0, 45, 0
2, 152329, Note_on_c, 0, 41, 66
2, 152331, Note_on_c, 0, 57, 76
2, 152365, Note_on_c, 0, 55, 0
2, 152367, Note_on_c, 0, 43, 0
2, 152468, Note_on_c, 0, 58, 71
2, 152475, Note_on_c, 0, 40, 62
2, 152481, Note_on_c, 0, 41, 0
2, 152481, Note_on_c, 0, 57, 0
2, 152601, Note_on_c, 0, 57, 72
2, 152602, Note_on_c, 0, 41, 65
2, 152621, Note_on_c, 0, 40, 0
2, 152621, Note_on_c, 0, 58, 0
2, 152649, Control_c, 0, 64, 32
2, 152664, Control_c, 0, 64, 50
2, 152680, Control_c, 0, 64, 58
2, 152694, Control_c, 0, 64, 62
2, 152709, Control_c, 0, 64, 65
2, 152725, Control_c, 0, 64, 68
2, 152727, Note_on_c, 0, 55, 72
2, 152729, Note_on_c, 0, 43, 66
2, 152734, Note_on_c, 0, 41, 0
2, 152735, Note_on_c, 0, 57, 0
2, 152740, Control_c, 0, 64, 73
2, 152756, Control_c, 0, 64, 77
2, 152761, Note_on_c, 0, 55, 0
2, 152778, Control_c, 0, 64, 80
2, 152794, Control_c, 0, 64, 83
2, 152846, Note_on_c, 0, 43, 0
2, 152870, Control_c, 0, 64, 82
2, 152882, Note_on_c, 0, 41, 64
2, 152884, Note_on_c, 0, 57, 56
2, 152886, Control_c, 0, 64, 81
2, 152894, Note_on_c, 0, 62, 72
2, 152901, Control_c, 0, 64, 79
2, 152916, Control_c, 0, 64, 75
2, 152931, Control_c, 0, 64, 70
2, 152946, Control_c, 0, 64, 65
2, 152962, Control_c, 0, 64, 60
2, 152977, Control_c, 0, 64, 46
2, 152991, Control_c, 0, 64, 0
2, 153013, Note_on_c, 0, 41, 0
2, 153026, Note_on_c, 0, 40, 56
2, 153027, Note_on_c, 0, 64, 76
2, 153065, Note_on_c, 0, 62, 0
2, 153141, Note_on_c, 0, 38, 55
2, 153145, Note_on_c, 0, 40, 0
2, 153149, Note_on_c, 0, 65, 76
2, 153188, Note_on_c, 0, 64, 0
2, 153276, Note_on_c, 0, 38, 0
2, 153286, Note_on_c, 0, 67, 80
2, 153289, Note_on_c, 0, 37, 61
2, 153303, Note_on_c, 0, 65, 0
2, 153412, Note_on_c, 0, 37, 0
2, 153417, Note_on_c, 0, 65, 75
2, 153420, Note_on_c, 0, 38, 50
2, 153490, Note_on_c, 0, 67, 0
2, 153552, Note_on_c, 0, 38, 0
2, 153557, Note_on_c, 0, 40, 61
2, 153568, Note_on_c, 0, 64, 80
2, 153581, Note_on_c, 0, 65, 0
2, 153612, Note_on_c, 0, 57, 0
2, 153681, Note_on_c, 0, 40, 0
2, 153714, Note_on_c, 0, 38, 51
2, 153717, Note_on_c, 0, 65, 75
2, 153732, Note_on_c, 0, 64, 0
2, 153744, Control_c, 0, 64, 44
2, 153760, Control_c, 0, 64, 58
2, 153765, Note_on_c, 0, 38, 0
2, 153775, Control_c, 0, 64, 63
2, 153790, Control_c, 0, 64, 67
2, 153797, Note_on_c, 0, 65, 0
2, 153805, Control_c, 0, 64, 71
2, 153820, Control_c, 0, 64, 77
2, 153836, Control_c, 0, 64, 81
2, 153851, Control_c, 0, 64, 84
2, 153854, Note_on_c, 0, 67, 89
2, 153875, Note_on_c, 0, 55, 72
2, 153927, Control_c, 0, 64, 82
2, 153942, Control_c, 0, 64, 79
2, 153958, Control_c, 0, 64, 74
2, 153972, Control_c, 0, 64, 69
2, 153984, Note_on_c, 0, 55, 0
2, 153987, Control_c, 0, 64, 65
2, 153991, Note_on_c, 0, 69, 84
2, 154000, Note_on_c, 0, 53, 68
2, 154002, Control_c, 0, 64, 58
2, 154014, Note_on_c, 0, 67, 0
2, 154017, Control_c, 0, 64, 43
2, 154032, Control_c, 0, 64, 0
2, 154127, Note_on_c, 0, 53, 0
2, 154133, Note_on_c, 0, 52, 64
2, 154137, Note_on_c, 0, 70, 85
2, 154157, Note_on_c, 0, 69, 0
2, 154265, Note_on_c, 0, 69, 88
2, 154269, Note_on_c, 0, 53, 66
2, 154292, Note_on_c, 0, 52, 0
2, 154311, Note_on_c, 0, 70, 0
2, 154398, Note_on_c, 0, 53, 0
2, 154403, Note_on_c, 0, 55, 62
2, 154405, Note_on_c, 0, 69, 0
2, 154408, Note_on_c, 0, 67, 86
2, 154579, Note_on_c, 0, 69, 81
2, 154581, Note_on_c, 0, 53, 70
2, 154581, Note_on_c, 0, 55, 0
2, 154623, Note_on_c, 0, 67, 0
2, 154665, Note_on_c, 0, 53, 0
2, 154863, Note_on_c, 0, 40, 82
2, 154953, Note_on_c, 0, 69, 0
2, 155107, Note_on_c, 0, 74, 88
2, 155123, Note_on_c, 0, 65, 74
2, 155128, Note_on_c, 0, 41, 79
2, 155191, Note_on_c, 0, 40, 0
2, 155342, Note_on_c, 0, 43, 88
2, 155391, Note_on_c, 0, 65, 0
2, 155414, Note_on_c, 0, 41, 0
2, 155562, Note_on_c, 0, 73, 87
2, 155572, Note_on_c, 0, 45, 80
2, 155574, Note_on_c, 0, 64, 73
2, 155626, Note_on_c, 0, 74, 0
2, 155637, Note_on_c, 0, 43, 0
2, 155786, Note_on_c, 0, 47, 84
2, 155811, Note_on_c, 0, 45, 0
2, 156007, Note_on_c, 0, 48, 80
2, 156010, Note_on_c, 0, 69, 50
2, 156012, Note_on_c, 0, 64, 0
2, 156022, Note_on_c, 0, 72, 91
2, 156028, Note_on_c, 0, 73, 0
2, 156063, Note_on_c, 0, 47, 0
2, 156235, Note_on_c, 0, 45, 80
2, 156260, Control_c, 0, 64, 42
2, 156270, Note_on_c, 0, 48, 0
2, 156274, Control_c, 0, 64, 53
2, 156290, Control_c, 0, 64, 59
2, 156305, Control_c, 0, 64, 62
2, 156321, Control_c, 0, 64, 64
2, 156333, Note_on_c, 0, 72, 0
2, 156335, Control_c, 0, 64, 66
2, 156350, Control_c, 0, 64, 68
2, 156366, Control_c, 0, 64, 69
2, 156381, Control_c, 0, 64, 69
2, 156457, Control_c, 0, 64, 69
2, 156460, Note_on_c, 0, 71, 87
2, 156468, Note_on_c, 0, 50, 77
2, 156472, Control_c, 0, 64, 68
2, 156487, Control_c, 0, 64, 67
2, 156502, Control_c, 0, 64, 65
2, 156517, Control_c, 0, 64, 63
2, 156532, Control_c, 0, 64, 59
2, 156538, Note_on_c, 0, 45, 0
2, 156547, Control_c, 0, 64, 55
2, 156563, Control_c, 0, 64, 48
2, 156578, Control_c, 0, 64, 38
2, 156593, Control_c, 0, 64, 22
2, 156616, Control_c, 0, 64, 0
2, 156703, Note_on_c, 0, 49, 84
2, 156754, Note_on_c, 0, 50, 0
2, 156927, Note_on_c, 0, 50, 86
2, 156928, Note_on_c, 0, 70, 79
2, 156983, Note_on_c, 0, 49, 0
2, 157008, Note_on_c, 0, 71, 0
2, 157164, Note_on_c, 0, 52, 81
2, 157164, Note_on_c, 0, 67, 83
2, 157223, Note_on_c, 0, 69, 0
2, 157230, Note_on_c, 0, 50, 0
2, 157243, Note_on_c, 0, 70, 0
2, 157427, Note_on_c, 0, 53, 76
2, 157430, Note_on_c, 0, 69, 72
2, 157502, Note_on_c, 0, 52, 0
2, 157673, Note_on_c, 0, 47, 74
2, 157683, Note_on_c, 0, 65, 78
2, 157756, Note_on_c, 0, 67, 0
2, 157757, Note_on_c, 0, 69, 0
2, 157919, Note_on_c, 0, 52, 72
2, 157924, Note_on_c, 0, 67, 79
2, 157959, Note_on_c, 0, 65, 0
2, 158018, Note_on_c, 0, 47, 0
2, 158024, Note_on_c, 0, 53, 0
2, 158168, Note_on_c, 0, 50, 76
2, 158172, Note_on_c, 0, 65, 81
2, 158243, Note_on_c, 0, 67, 0
2, 158258, Note_on_c, 0, 52, 0
2, 158425, Note_on_c, 0, 49, 66
2, 158430, Note_on_c, 0, 64, 82
2, 158482, Note_on_c, 0, 50, 0
2, 158490, Note_on_c, 0, 65, 0
2, 158703, Note_on_c, 0, 67, 71
2, 158707, Note_on_c, 0, 45, 74
2, 158766, Note_on_c, 0, 64, 0
2, 158802, Note_on_c, 0, 49, 0
2, 159013, Note_on_c, 0, 62, 72
2, 159017, Note_on_c, 0, 50, 65
2, 159017, Note_on_c, 0, 65, 55
2, 159064, Note_on_c, 0, 67, 0
2, 159123, Note_on_c, 0, 45, 0
2, 159337, Note_on_c, 0, 65, 0
2, 159338, Note_on_c, 0, 55, 62
2, 159343, Note_on_c, 0, 64, 64
2, 159430, Note_on_c, 0, 50, 0
2, 159677, Note_on_c, 0, 64, 0
2, 159733, Note_on_c, 0, 55, 0
2, 159735, Note_on_c, 0, 65, 53
2, 159759, Note_on_c, 0, 57, 50
2, 159774, Note_on_c, 0, 65, 0
2, 159805, Note_on_c, 0, 64, 55
2, 159811, Note_on_c, 0, 62, 0
2, 159828, Note_on_c, 0, 64, 0
2, 159847, Note_on_c, 0, 65, 66
2, 159872, Note_on_c, 0, 65, 0
2, 159900, Note_on_c, 0, 64, 59
2, 159932, Note_on_c, 0, 64, 0
2, 159939, Note_on_c, 0, 65, 71
2, 160012, Note_on_c, 0, 64, 69
2, 160015, Note_on_c, 0, 65, 0
2, 160071, Note_on_c, 0, 62, 3
2, 160245, Note_on_c, 0, 62, 0
2, 160424, Note_on_c, 0, 61, 62
2, 160431, Note_on_c, 0, 45, 35
2, 160519, Note_on_c, 0, 64, 0
2, 160599, Note_on_c, 0, 57, 0
2, 160794, Control_c, 0, 67, 14
2, 160809, Control_c, 0, 67, 28
2, 160824, Control_c, 0, 67, 38
2, 160839, Control_c, 0, 67, 49
2, 160840, Note_on_c, 0, 45, 0
2, 160854, Control_c, 0, 67, 59
2, 160870, Control_c, 0, 67, 69
2, 160885, Control_c, 0, 67, 76
2, 160899, Control_c, 0, 67, 83
2, 160913, Note_on_c, 0, 62, 45
2, 160915, Control_c, 0, 67, 90
2, 160930, Control_c, 0, 67, 96
2, 160945, Control_c, 0, 67, 101
2, 160961, Control_c, 0, 67, 105
2, 160976, Control_c, 0, 67, 109
2, 160992, Control_c, 0, 67, 112
2, 161007, Control_c, 0, 67, 115
2, 161022, Control_c, 0, 67, 118
2, 161038, Control_c, 0, 67, 118
2, 161053, Control_c, 0, 67, 119
2, 161083, Control_c, 0, 67, 119
2, 161098, Control_c, 0, 67, 120
2, 161160, Control_c, 0, 67, 120
2, 161171, Note_on_c, 0, 62, 0
2, 161773, Note_on_c, 0, 62, 44
2, 161813, Note_on_c, 0, 38, 11
2, 161851, Control_c, 0, 67, 120
2, 161927, Control_c, 0, 67, 119
2, 161942, Control_c, 0, 67, 119
2, 162023, Note_on_c, 0, 61, 0
2, 162041, Control_c, 0, 67, 118
2, 162117, Control_c, 0, 67, 118
2, 162208, Control_c, 0, 67, 117
2, 162619, Control_c, 0, 67, 116
2, 162635, Control_c, 0, 67, 116
2, 162650, Control_c, 0, 67, 115
2, 162681, Control_c, 0, 67, 114
2, 162696, Control_c, 0, 67, 113
2, 162712, Control_c, 0, 67, 112
2, 162727, Control_c, 0, 67, 112
2, 162742, Control_c, 0, 67, 111
2, 162779, Control_c, 0, 67, 111
2, 162795, Control_c, 0, 67, 109
2, 162810, Control_c, 0, 67, 108
2, 162825, Control_c, 0, 67, 108
2, 162872, Control_c, 0, 67, 107
2, 162887, Control_c, 0, 67, 106
2, 162901, Control_c, 0, 67, 104
2, 162932, Control_c, 0, 67, 104
2, 162948, Control_c, 0, 67, 103
2, 162963, Control_c, 0, 67, 102
2, 162977, Control_c, 0, 67, 101
2, 162993, Control_c, 0, 67, 100
2, 163038, Control_c, 0, 67, 100
2, 163053, Control_c, 0, 67, 98
2, 163069, Control_c, 0, 67, 97
2, 163084, Control_c, 0, 67, 95
2, 163098, Control_c, 0, 67, 93
2, 163114, Control_c, 0, 67, 90
2, 163129, Control_c, 0, 67, 87
2, 163144, Control_c, 0, 67, 84
2, 163160, Control_c, 0, 67, 83
2, 163174, Control_c, 0, 67, 80
2, 163190, Control_c, 0, 67, 77
2, 163205, Control_c, 0, 67, 74
2, 163220, Control_c, 0, 67, 69
2, 163236, Control_c, 0, 67, 66
2, 163251, Control_c, 0, 67, 63
2, 163265, Control_c, 0, 67, 62
2, 163281, Control_c, 0, 67, 59
2, 163296, Control_c, 0, 67, 52
2, 163312, Control_c, 0, 67, 45
2, 163327, Control_c, 0, 67, 38
2, 163342, Control_c, 0, 67, 32
2, 163358, Control_c, 0, 67, 26
2, 163372, Control_c, 0, 67, 21
2, 163388, Control_c, 0, 67, 17
2, 163403, Control_c, 0, 67, 11
2, 163418, Control_c, 0, 67, 0
2, 164049, Note_on_c, 0, 38, 0
2, 164063, Note_on_c, 0, 62, 0
2, 164064, End_track
0, 0, End_of_file
