0, 0, Header, 1, 2, 384
1, 0, Start_track
1, 0, Tempo, 500000
1, 0, Time_signature, 4, 2, 24, 8
1, 1, End_track
2,0,Start_track
2,0, Note_on_c, 0, 62, 35
2,164, Note_on_c, 0, 64, 39
2,237, Note_on_c, 0, 62, 0
2,290, Note_on_c, 0, 65, 45
2,329, Control_c, 0, 67, 123
2,341, Note_on_c, 0, 64, 0
2,344, Control_c, 0, 67, 108
2,360, Control_c, 0, 67, 89
2,374, Control_c, 0, 67, 72
2,389, Control_c, 0, 67, 58
2,405, Control_c, 0, 67, 47
2,420, Control_c, 0, 67, 30
2,427, Note_on_c, 0, 65, 0
2,436, Control_c, 0, 67, 8
2,440, Note_on_c, 0, 67, 44
2,451, Control_c, 0, 67, 0
2,571, Note_on_c, 0, 65, 54
2,581, Note_on_c, 0, 67, 0
2,698, Note_on_c, 0, 64, 55
2,701, Note_on_c, 0, 65, 0
2,836, Note_on_c, 0, 65, 66
2,901, Note_on_c, 0, 64, 0
2,961, Note_on_c, 0, 65, 0
2,965, Note_on_c, 0, 67, 62
2,1090, Note_on_c, 0, 69, 65
2,1113, Note_on_c, 0, 67, 0
2,1232, Note_on_c, 0, 70, 70
2,1234, Note_on_c, 0, 69, 0
2,1359, Note_on_c, 0, 69, 70
2,1368, Note_on_c, 0, 70, 0
2,1493, Note_on_c, 0, 67, 67
2,1508, Note_on_c, 0, 69, 0
2,1663, Note_on_c, 0, 69, 53
2,1733, Note_on_c, 0, 67, 0
2,1940, Note_on_c, 0, 69, 0
2,2125, Note_on_c, 0, 74, 71
2,2577, Note_on_c, 0, 73, 74
2,2854, Note_on_c, 0, 74, 0
2,3055, Note_on_c, 0, 72, 71
2,3273, Note_on_c, 0, 73, 0
2,3515, Note_on_c, 0, 71, 73
2,3783, Note_on_c, 0, 72, 0
2,3987, Note_on_c, 0, 70, 62
2,4257, Note_on_c, 0, 71, 0
2,4454, Note_on_c, 0, 69, 53
2,4604, Note_on_c, 0, 70, 0
2,4957, Note_on_c, 0, 67, 52
2,5173, Note_on_c, 0, 69, 0
2,5838, Note_on_c, 0, 65, 42
2,6153, Note_on_c, 0, 67, 0
2,6313, Note_on_c, 0, 64, 46
2,6555, Note_on_c, 0, 65, 0
2,6779, Note_on_c, 0, 69, 49
2,6902, Note_on_c, 0, 64, 0
2,7027, Control_c, 0, 64, 45
2,7043, Control_c, 0, 64, 56
2,7058, Control_c, 0, 64, 61
2,7074, Control_c, 0, 64, 64
2,7088, Control_c, 0, 64, 66
2,7103, Control_c, 0, 64, 69
2,7119, Control_c, 0, 64, 72
2,7134, Control_c, 0, 64, 77
2,7149, Control_c, 0, 64, 81
2,7164, Control_c, 0, 64, 84
2,7173, Note_on_c, 0, 69, 0
2,7179, Control_c, 0, 64, 86
2,7220, Note_on_c, 0, 69, 36
2,7227, Note_on_c, 0, 65, 45
2,7270, Control_c, 0, 64, 85
2,7285, Control_c, 0, 64, 84
2,7300, Control_c, 0, 64, 80
2,7316, Control_c, 0, 64, 77
2,7331, Control_c, 0, 64, 73
2,7346, Control_c, 0, 64, 70
2,7361, Control_c, 0, 64, 67
2,7371, Note_on_c, 0, 71, 61
2,7376, Control_c, 0, 64, 63
2,7393, Control_c, 0, 64, 55
2,7408, Control_c, 0, 64, 30
2,7409, Note_on_c, 0, 69, 0
2,7423, Control_c, 0, 64, 0
2,7497, Note_on_c, 0, 72, 67
2,7539, Note_on_c, 0, 71, 0
2,7654, Note_on_c, 0, 74, 61
2,7657, Note_on_c, 0, 72, 0
2,7669, Note_on_c, 0, 62, 40
2,7779, Note_on_c, 0, 65, 0
2,7784, Note_on_c, 0, 72, 73
2,7805, Note_on_c, 0, 74, 0
2,7922, Note_on_c, 0, 71, 79
2,7924, Note_on_c, 0, 72, 0
2,8047, Note_on_c, 0, 71, 0
2,8064, Note_on_c, 0, 72, 67
2,8073, Note_on_c, 0, 69, 45
2,8146, Note_on_c, 0, 62, 0
2,8206, Note_on_c, 0, 72, 0
2,8208, Note_on_c, 0, 74, 72
2,8345, Note_on_c, 0, 76, 77
2,8384, Note_on_c, 0, 74, 0
2,8422, Note_on_c, 0, 69, 0
2,8477, Note_on_c, 0, 77, 78
2,8485, Note_on_c, 0, 76, 0
2,8603, Note_on_c, 0, 76, 82
2,8633, Note_on_c, 0, 77, 0
2,8735, Note_on_c, 0, 74, 78
2,8742, Note_on_c, 0, 76, 0
2,8896, Note_on_c, 0, 76, 74
2,8917, Note_on_c, 0, 74, 0
2,9140, Note_on_c, 0, 59, 52
2,9162, Note_on_c, 0, 76, 0
2,9340, Note_on_c, 0, 81, 77
2,9355, Note_on_c, 0, 60, 64
2,9492, Note_on_c, 0, 59, 0
2,9565, Note_on_c, 0, 62, 75
2,9629, Note_on_c, 0, 60, 0
2,9769, Note_on_c, 0, 80, 81
2,9777, Note_on_c, 0, 64, 67
2,9789, Note_on_c, 0, 62, 0
2,9889, Note_on_c, 0, 81, 0
2,10002, Note_on_c, 0, 66, 79
2,10168, Note_on_c, 0, 64, 0
2,10204, Note_on_c, 0, 79, 83
2,10224, Note_on_c, 0, 67, 75
2,10247, Note_on_c, 0, 80, 0
2,10288, Note_on_c, 0, 66, 0
2,10424, Note_on_c, 0, 64, 77
2,10477, Note_on_c, 0, 67, 0
2,10645, Note_on_c, 0, 78, 85
2,10647, Note_on_c, 0, 69, 70
2,10687, Note_on_c, 0, 79, 0
2,10703, Note_on_c, 0, 64, 0
2,10853, Note_on_c, 0, 68, 82
2,10920, Note_on_c, 0, 69, 0
2,11061, Note_on_c, 0, 69, 80
2,11065, Note_on_c, 0, 77, 80
2,11130, Note_on_c, 0, 68, 0
2,11164, Note_on_c, 0, 78, 0
2,11280, Note_on_c, 0, 71, 90
2,11328, Note_on_c, 0, 69, 0
2,11516, Note_on_c, 0, 76, 76
2,11527, Note_on_c, 0, 72, 71
2,11587, Note_on_c, 0, 71, 0
2,11597, Note_on_c, 0, 77, 0
2,11740, Note_on_c, 0, 66, 78
2,11965, Note_on_c, 0, 74, 69
2,11977, Note_on_c, 0, 71, 67
2,12057, Note_on_c, 0, 66, 0
2,12062, Note_on_c, 0, 76, 0
2,12095, Note_on_c, 0, 72, 0
2,12196, Note_on_c, 0, 69, 66
2,12277, Note_on_c, 0, 71, 0
2,12400, Note_on_c, 0, 68, 59
2,12416, Note_on_c, 0, 69, 0
2,12613, Note_on_c, 0, 68, 0
2,12638, Note_on_c, 0, 64, 44
2,12872, Note_on_c, 0, 72, 59
2,12880, Note_on_c, 0, 69, 42
2,12932, Note_on_c, 0, 64, 0
2,13027, Note_on_c, 0, 74, 0
2,13371, Note_on_c, 0, 71, 55
2,13475, Note_on_c, 0, 72, 0
2,13851, Note_on_c, 0, 76, 58
2,13867, Note_on_c, 0, 67, 30
2,13996, Note_on_c, 0, 71, 0
2,14062, Note_on_c, 0, 69, 0
2,14302, Note_on_c, 0, 69, 59
2,14380, Note_on_c, 0, 67, 0
2,14428, Note_on_c, 0, 65, 43
2,14488, Note_on_c, 0, 76, 0
2,14597, Note_on_c, 0, 65, 0
2,14603, Note_on_c, 0, 64, 48
2,14709, Note_on_c, 0, 64, 0
2,14714, Note_on_c, 0, 71, 67
2,14735, Note_on_c, 0, 62, 48
2,14859, Note_on_c, 0, 69, 0
2,14860, Note_on_c, 0, 64, 58
2,14920, Note_on_c, 0, 62, 0
2,14984, Note_on_c, 0, 64, 0
2,15001, Note_on_c, 0, 65, 50
2,15118, Note_on_c, 0, 72, 70
2,15123, Note_on_c, 0, 65, 0
2,15132, Note_on_c, 0, 64, 55
2,15243, Note_on_c, 0, 71, 0
2,15250, Note_on_c, 0, 64, 0
2,15276, Note_on_c, 0, 62, 52
2,15414, Note_on_c, 0, 62, 0
2,15418, Note_on_c, 0, 60, 54
2,15525, Note_on_c, 0, 60, 0
2,15536, Note_on_c, 0, 68, 66
2,15553, Note_on_c, 0, 59, 46
2,15646, Note_on_c, 0, 72, 0
2,15687, Note_on_c, 0, 60, 50
2,15689, Note_on_c, 0, 59, 0
2,15784, Note_on_c, 0, 60, 0
2,15808, Note_on_c, 0, 62, 53
2,15941, Note_on_c, 0, 69, 65
2,15967, Note_on_c, 0, 60, 42
2,15967, Note_on_c, 0, 68, 0
2,16021, Note_on_c, 0, 62, 0
2,16098, Note_on_c, 0, 67, 66
2,16144, Note_on_c, 0, 69, 0
2,16223, Note_on_c, 0, 65, 67
2,16270, Note_on_c, 0, 67, 0
2,16362, Note_on_c, 0, 61, 66
2,16363, Note_on_c, 0, 65, 0
2,16370, Note_on_c, 0, 64, 64
2,16411, Note_on_c, 0, 60, 0
2,16506, Note_on_c, 0, 65, 67
2,16515, Note_on_c, 0, 64, 0
2,16630, Note_on_c, 0, 65, 0
2,16639, Note_on_c, 0, 67, 65
2,16783, Note_on_c, 0, 62, 57
2,16788, Note_on_c, 0, 65, 65
2,16802, Note_on_c, 0, 67, 0
2,16820, Note_on_c, 0, 61, 0
2,16913, Note_on_c, 0, 65, 0
2,16924, Note_on_c, 0, 64, 65
2,16949, Control_c, 0, 64, 45
2,16965, Control_c, 0, 64, 57
2,16966, Note_on_c, 0, 62, 0
2,16980, Control_c, 0, 64, 60
2,16996, Control_c, 0, 64, 63
2,17011, Control_c, 0, 64, 64
2,17025, Control_c, 0, 64, 65
2,17041, Control_c, 0, 64, 65
2,17045, Note_on_c, 0, 64, 0
2,17067, Note_on_c, 0, 62, 68
2,17087, Control_c, 0, 64, 65
2,17101, Control_c, 0, 64, 64
2,17117, Control_c, 0, 64, 63
2,17132, Control_c, 0, 64, 63
2,17163, Control_c, 0, 64, 62
2,17175, Note_on_c, 0, 55, 56
2,17177, Control_c, 0, 64, 61
2,17193, Control_c, 0, 64, 58
2,17208, Control_c, 0, 64, 53
2,17208, Note_on_c, 0, 61, 70
2,17215, Note_on_c, 0, 62, 0
2,17224, Control_c, 0, 64, 47
2,17240, Control_c, 0, 64, 38
2,17254, Control_c, 0, 64, 28
2,17269, Control_c, 0, 64, 8
2,17285, Control_c, 0, 64, 0
2,17334, Note_on_c, 0, 62, 72
2,17374, Note_on_c, 0, 61, 0
2,17424, Note_on_c, 0, 55, 0
2,17459, Note_on_c, 0, 62, 0
2,17468, Note_on_c, 0, 64, 72
2,17630, Note_on_c, 0, 62, 57
2,17637, Note_on_c, 0, 53, 48
2,17644, Note_on_c, 0, 50, 47
2,17664, Note_on_c, 0, 64, 0
2,17709, Note_on_c, 0, 53, 0
2,17788, Note_on_c, 0, 52, 63
2,17810, Note_on_c, 0, 50, 0
2,17920, Note_on_c, 0, 53, 66
2,17953, Note_on_c, 0, 52, 0
2,18044, Note_on_c, 0, 53, 0
2,18049, Note_on_c, 0, 61, 68
2,18055, Note_on_c, 0, 55, 58
2,18058, Note_on_c, 0, 58, 53
2,18101, Note_on_c, 0, 62, 0
2,18186, Note_on_c, 0, 55, 0
2,18188, Note_on_c, 0, 53, 59
2,18324, Note_on_c, 0, 53, 0
2,18327, Note_on_c, 0, 52, 56
2,18465, Note_on_c, 0, 53, 58
2,18465, Note_on_c, 0, 62, 70
2,18470, Note_on_c, 0, 57, 55
2,18486, Note_on_c, 0, 58, 0
2,18497, Note_on_c, 0, 52, 0
2,18508, Note_on_c, 0, 61, 0
2,18575, Note_on_c, 0, 57, 0
2,18584, Note_on_c, 0, 53, 0
2,18604, Note_on_c, 0, 55, 63
2,18731, Note_on_c, 0, 55, 0
2,18737, Note_on_c, 0, 62, 0
2,18741, Note_on_c, 0, 57, 62
2,18869, Note_on_c, 0, 57, 0
2,18878, Note_on_c, 0, 62, 62
2,18883, Note_on_c, 0, 67, 69
2,18884, Note_on_c, 0, 58, 60
2,19014, Note_on_c, 0, 58, 0
2,19015, Note_on_c, 0, 57, 58
2,19140, Note_on_c, 0, 57, 0
2,19159, Note_on_c, 0, 55, 54
2,19299, Note_on_c, 0, 62, 0
2,19312, Note_on_c, 0, 61, 68
2,19313, Note_on_c, 0, 57, 51
2,19320, Note_on_c, 0, 55, 0
2,19469, Note_on_c, 0, 57, 0
2,19527, Note_on_c, 0, 64, 71
2,19547, Note_on_c, 0, 67, 0
2,19555, Note_on_c, 0, 61, 0
2,19760, Note_on_c, 0, 62, 69
2,19773, Note_on_c, 0, 64, 0
2,19773, Note_on_c, 0, 65, 70
2,20000, Note_on_c, 0, 67, 77
2,20052, Note_on_c, 0, 65, 0
2,20213, Note_on_c, 0, 69, 75
2,20217, Note_on_c, 0, 64, 53
2,20218, Note_on_c, 0, 61, 59
2,20240, Note_on_c, 0, 62, 0
2,20296, Note_on_c, 0, 67, 0
2,20435, Note_on_c, 0, 71, 79
2,20498, Note_on_c, 0, 69, 0
2,20653, Note_on_c, 0, 60, 56
2,20663, Note_on_c, 0, 72, 78
2,20664, Note_on_c, 0, 61, 0
2,20705, Note_on_c, 0, 71, 0
2,20846, Note_on_c, 0, 64, 0
2,20866, Note_on_c, 0, 69, 76
2,20895, Note_on_c, 0, 72, 0
2,21082, Note_on_c, 0, 62, 51
2,21082, Note_on_c, 0, 74, 75
2,21089, Note_on_c, 0, 59, 53
2,21118, Note_on_c, 0, 69, 0
2,21122, Note_on_c, 0, 60, 0
2,21293, Note_on_c, 0, 73, 84
2,21318, Note_on_c, 0, 74, 0
2,21518, Note_on_c, 0, 74, 79
2,21520, Note_on_c, 0, 58, 52
2,21526, Note_on_c, 0, 73, 0
2,21589, Note_on_c, 0, 59, 0
2,21730, Note_on_c, 0, 76, 85
2,21766, Note_on_c, 0, 62, 0
2,21782, Note_on_c, 0, 74, 0
2,21971, Note_on_c, 0, 57, 45
2,21972, Note_on_c, 0, 77, 71
2,22013, Note_on_c, 0, 76, 0
2,22046, Note_on_c, 0, 58, 0
2,22221, Note_on_c, 0, 71, 71
2,22222, Note_on_c, 0, 77, 0
2,22423, Note_on_c, 0, 55, 39
2,22452, Note_on_c, 0, 76, 64
2,22491, Note_on_c, 0, 71, 0
2,22522, Note_on_c, 0, 57, 0
2,22638, Note_on_c, 0, 74, 63
2,22765, Note_on_c, 0, 76, 0
2,22842, Note_on_c, 0, 73, 66
2,22914, Note_on_c, 0, 74, 0
2,23061, Note_on_c, 0, 73, 0
2,23073, Note_on_c, 0, 69, 65
2,23292, Note_on_c, 0, 69, 0
2,23300, Note_on_c, 0, 74, 55
2,23307, Note_on_c, 0, 70, 46
2,23308, Note_on_c, 0, 53, 48
2,23353, Note_on_c, 0, 55, 0
2,23522, Note_on_c, 0, 69, 62
2,23529, Note_on_c, 0, 70, 0
2,23733, Note_on_c, 0, 53, 0
2,23738, Note_on_c, 0, 52, 39
2,23748, Note_on_c, 0, 69, 0
2,23760, Note_on_c, 0, 67, 56
2,23959, Note_on_c, 0, 70, 59
2,24001, Note_on_c, 0, 67, 0
2,24154, Note_on_c, 0, 52, 0
2,24178, Note_on_c, 0, 72, 58
2,24182, Note_on_c, 0, 69, 46
2,24185, Note_on_c, 0, 70, 0
2,24188, Note_on_c, 0, 57, 41
2,24287, Note_on_c, 0, 74, 0
2,24363, Note_on_c, 0, 69, 0
2,24399, Note_on_c, 0, 67, 58
2,24577, Note_on_c, 0, 57, 0
2,24624, Note_on_c, 0, 50, 42
2,24625, Note_on_c, 0, 66, 53
2,24627, Note_on_c, 0, 67, 0
2,24797, Note_on_c, 0, 50, 0
2,24838, Note_on_c, 0, 62, 59
2,25041, Note_on_c, 0, 70, 62
2,25048, Note_on_c, 0, 67, 46
2,25058, Note_on_c, 0, 63, 55
2,25059, Note_on_c, 0, 62, 0
2,25103, Note_on_c, 0, 66, 0
2,25194, Note_on_c, 0, 72, 0
2,25287, Note_on_c, 0, 62, 57
2,25290, Note_on_c, 0, 63, 0
2,25473, Note_on_c, 0, 62, 0
2,25494, Note_on_c, 0, 69, 58
2,25502, Note_on_c, 0, 60, 44
2,25539, Note_on_c, 0, 70, 0
2,25717, Note_on_c, 0, 63, 59
2,25734, Note_on_c, 0, 60, 0
2,25815, Note_on_c, 0, 67, 0
2,25939, Note_on_c, 0, 63, 0
2,25940, Note_on_c, 0, 65, 43
2,25943, Note_on_c, 0, 62, 47
2,26036, Note_on_c, 0, 69, 0
2,26142, Note_on_c, 0, 62, 0
2,26157, Note_on_c, 0, 60, 58
2,26331, Note_on_c, 0, 60, 0
2,26378, Note_on_c, 0, 59, 48
2,26383, Note_on_c, 0, 67, 58
2,26546, Note_on_c, 0, 65, 0
2,26585, Note_on_c, 0, 55, 44
2,26586, Note_on_c, 0, 79, 80
2,26598, Note_on_c, 0, 67, 0
2,26789, Note_on_c, 0, 55, 0
2,26822, Note_on_c, 0, 81, 70
2,26833, Note_on_c, 0, 64, 46
2,26834, Note_on_c, 0, 60, 42
2,26848, Note_on_c, 0, 79, 0
2,26856, Note_on_c, 0, 59, 0
2,26979, Control_c, 0, 64, 25
2,26995, Control_c, 0, 64, 49
2,27009, Control_c, 0, 64, 59
2,27024, Control_c, 0, 64, 63
2,27035, Note_on_c, 0, 79, 80
2,27040, Control_c, 0, 64, 65
2,27056, Control_c, 0, 64, 68
2,27071, Control_c, 0, 64, 72
2,27071, Note_on_c, 0, 64, 0
2,27087, Control_c, 0, 64, 75
2,27101, Control_c, 0, 64, 77
2,27104, Note_on_c, 0, 81, 0
2,27117, Control_c, 0, 64, 78
2,27208, Control_c, 0, 64, 77
2,27223, Control_c, 0, 64, 75
2,27238, Control_c, 0, 64, 73
2,27251, Note_on_c, 0, 77, 76
2,27253, Control_c, 0, 64, 70
2,27263, Note_on_c, 0, 62, 43
2,27268, Control_c, 0, 64, 67
2,27284, Control_c, 0, 64, 64
2,27297, Note_on_c, 0, 79, 0
2,27299, Control_c, 0, 64, 60
2,27314, Control_c, 0, 64, 47
2,27329, Control_c, 0, 64, 0
2,27480, Note_on_c, 0, 81, 73
2,27504, Note_on_c, 0, 77, 0
2,27704, Note_on_c, 0, 58, 37
2,27711, Note_on_c, 0, 79, 71
2,27780, Note_on_c, 0, 60, 0
2,27919, Note_on_c, 0, 77, 75
2,27936, Note_on_c, 0, 81, 0
2,27976, Note_on_c, 0, 79, 0
2,28144, Note_on_c, 0, 76, 68
2,28154, Note_on_c, 0, 60, 46
2,28179, Note_on_c, 0, 77, 0
2,28300, Note_on_c, 0, 62, 0
2,28359, Note_on_c, 0, 76, 0
2,28377, Note_on_c, 0, 72, 71
2,28578, Note_on_c, 0, 72, 0
2,28582, Note_on_c, 0, 57, 42
2,28586, Note_on_c, 0, 74, 61
2,28598, Note_on_c, 0, 77, 59
2,28706, Note_on_c, 0, 58, 0
2,28717, Note_on_c, 0, 60, 0
2,28803, Note_on_c, 0, 72, 68
2,28825, Note_on_c, 0, 74, 0
2,29010, Note_on_c, 0, 72, 0
2,29019, Note_on_c, 0, 57, 0
2,29021, Note_on_c, 0, 70, 66
2,29033, Note_on_c, 0, 55, 29
2,29219, Note_on_c, 0, 74, 62
2,29245, Note_on_c, 0, 70, 0
2,29434, Note_on_c, 0, 55, 0
2,29439, Note_on_c, 0, 76, 66
2,29455, Note_on_c, 0, 72, 46
2,29455, Note_on_c, 0, 74, 0
2,29468, Note_on_c, 0, 60, 24
2,29469, Note_on_c, 0, 77, 0
2,29618, Control_c, 0, 64, 42
2,29634, Control_c, 0, 64, 53
2,29649, Control_c, 0, 64, 59
2,29650, Note_on_c, 0, 70, 53
2,29663, Control_c, 0, 64, 62
2,29679, Control_c, 0, 64, 64
2,29694, Control_c, 0, 64, 67
2,29709, Control_c, 0, 64, 70
2,29725, Control_c, 0, 64, 73
2,29740, Control_c, 0, 64, 75
2,29756, Control_c, 0, 64, 77
2,29770, Control_c, 0, 64, 79
2,29779, Note_on_c, 0, 72, 0
2,29802, Note_on_c, 0, 60, 0
2,29804, Note_on_c, 0, 70, 0
2,29861, Note_on_c, 0, 69, 52
2,29865, Note_on_c, 0, 53, 36
2,29884, Control_c, 0, 64, 78
2,29899, Control_c, 0, 64, 77
2,29915, Control_c, 0, 64, 75
2,29930, Control_c, 0, 64, 71
2,29945, Control_c, 0, 64, 68
2,29961, Control_c, 0, 64, 65
2,29975, Control_c, 0, 64, 60
2,29990, Control_c, 0, 64, 51
2,30006, Control_c, 0, 64, 22
2,30006, Note_on_c, 0, 55, 39
2,30021, Control_c, 0, 64, 0
2,30055, Note_on_c, 0, 53, 0
2,30061, Note_on_c, 0, 77, 73
2,30106, Note_on_c, 0, 76, 0
2,30135, Note_on_c, 0, 69, 0
2,30140, Note_on_c, 0, 57, 49
2,30183, Note_on_c, 0, 55, 0
2,30242, Note_on_c, 0, 57, 0
2,30261, Note_on_c, 0, 67, 56
2,30281, Note_on_c, 0, 58, 46
2,30397, Note_on_c, 0, 58, 0
2,30399, Note_on_c, 0, 57, 49
2,30453, Note_on_c, 0, 76, 76
2,30493, Note_on_c, 0, 67, 0
2,30504, Note_on_c, 0, 57, 0
2,30514, Note_on_c, 0, 77, 0
2,30527, Note_on_c, 0, 55, 54
2,30664, Note_on_c, 0, 55, 0
2,30671, Note_on_c, 0, 65, 57
2,30679, Note_on_c, 0, 57, 39
2,30885, Note_on_c, 0, 74, 68
2,30898, Note_on_c, 0, 65, 0
2,30950, Note_on_c, 0, 76, 0
2,31098, Note_on_c, 0, 64, 58
2,31106, Note_on_c, 0, 45, 40
2,31221, Note_on_c, 0, 57, 0
2,31307, Note_on_c, 0, 73, 75
2,31311, Note_on_c, 0, 45, 0
2,31329, Note_on_c, 0, 64, 0
2,31355, Note_on_c, 0, 74, 0
2,31531, Note_on_c, 0, 74, 59
2,31541, Note_on_c, 0, 65, 47
2,31542, Note_on_c, 0, 50, 52
2,31574, Note_on_c, 0, 73, 0
2,31666, Note_on_c, 0, 52, 64
2,31718, Note_on_c, 0, 50, 0
2,31718, Note_on_c, 0, 74, 0
2,31737, Note_on_c, 0, 65, 0
2,31791, Note_on_c, 0, 53, 68
2,31846, Note_on_c, 0, 52, 0
2,31920, Note_on_c, 0, 70, 66
2,31925, Note_on_c, 0, 61, 53
2,31926, Note_on_c, 0, 53, 0
2,31929, Note_on_c, 0, 55, 59
2,32058, Note_on_c, 0, 55, 0
2,32061, Note_on_c, 0, 53, 59
2,32135, Note_on_c, 0, 70, 0
2,32146, Note_on_c, 0, 61, 0
2,32175, Note_on_c, 0, 53, 0
2,32189, Note_on_c, 0, 52, 53
2,32327, Note_on_c, 0, 53, 51
2,32331, Note_on_c, 0, 69, 57
2,32333, Note_on_c, 0, 62, 47
2,32343, Note_on_c, 0, 52, 0
2,32443, Note_on_c, 0, 53, 0
2,32467, Note_on_c, 0, 55, 57
2,32474, Note_on_c, 0, 67, 69
2,32589, Note_on_c, 0, 69, 0
2,32599, Note_on_c, 0, 55, 0
2,32606, Note_on_c, 0, 65, 72
2,32624, Note_on_c, 0, 57, 50
2,32650, Note_on_c, 0, 67, 0
2,32732, Note_on_c, 0, 57, 0
2,32743, Note_on_c, 0, 64, 76
2,32756, Note_on_c, 0, 58, 56
2,32769, Note_on_c, 0, 65, 0
2,32861, Note_on_c, 0, 58, 0
2,32877, Note_on_c, 0, 57, 53
2,32878, Note_on_c, 0, 65, 79
2,32918, Note_on_c, 0, 64, 0
2,32969, Note_on_c, 0, 57, 0
2,33008, Note_on_c, 0, 67, 82
2,33012, Note_on_c, 0, 55, 45
2,33020, Note_on_c, 0, 65, 0
2,33148, Note_on_c, 0, 65, 77
2,33154, Note_on_c, 0, 57, 50
2,33162, Note_on_c, 0, 55, 0
2,33206, Note_on_c, 0, 67, 0
2,33237, Note_on_c, 0, 62, 0
2,33273, Note_on_c, 0, 64, 78
2,33285, Note_on_c, 0, 57, 0
2,33341, Note_on_c, 0, 65, 0
2,33390, Note_on_c, 0, 64, 0
2,33404, Note_on_c, 0, 62, 69
2,33536, Note_on_c, 0, 55, 46
2,33541, Note_on_c, 0, 62, 0
2,33542, Note_on_c, 0, 61, 64
2,33543, Note_on_c, 0, 58, 48
2,33666, Note_on_c, 0, 61, 0
2,33678, Note_on_c, 0, 62, 64
2,33681, Note_on_c, 0, 55, 0
2,33727, Note_on_c, 0, 58, 0
2,33800, Note_on_c, 0, 62, 0
2,33812, Note_on_c, 0, 64, 68
2,33938, Note_on_c, 0, 64, 0
2,33961, Note_on_c, 0, 62, 58
2,33973, Note_on_c, 0, 53, 45
2,33983, Note_on_c, 0, 57, 36
2,34084, Note_on_c, 0, 62, 0
2,34086, Note_on_c, 0, 64, 63
2,34111, Note_on_c, 0, 52, 51
2,34113, Note_on_c, 0, 53, 0
2,34212, Note_on_c, 0, 65, 71
2,34236, Note_on_c, 0, 52, 0
2,34238, Note_on_c, 0, 64, 0
2,34247, Note_on_c, 0, 50, 53
2,34354, Note_on_c, 0, 65, 0
2,34354, Note_on_c, 0, 67, 68
2,34365, Note_on_c, 0, 50, 0
2,34385, Note_on_c, 0, 49, 51
2,34482, Note_on_c, 0, 49, 0
2,34494, Note_on_c, 0, 65, 70
2,34503, Note_on_c, 0, 50, 57
2,34509, Note_on_c, 0, 67, 0
2,34597, Note_on_c, 0, 50, 0
2,34621, Note_on_c, 0, 52, 48
2,34621, Note_on_c, 0, 64, 77
2,34625, Note_on_c, 0, 65, 0
2,34729, Note_on_c, 0, 57, 0
2,34747, Note_on_c, 0, 52, 0
2,34750, Note_on_c, 0, 50, 47
2,34761, Note_on_c, 0, 64, 0
2,34771, Note_on_c, 0, 65, 71
2,34892, Note_on_c, 0, 67, 77
2,34897, Note_on_c, 0, 55, 49
2,34919, Note_on_c, 0, 65, 0
2,35006, Note_on_c, 0, 55, 0
2,35025, Note_on_c, 0, 69, 79
2,35029, Note_on_c, 0, 53, 50
2,35055, Note_on_c, 0, 67, 0
2,35151, Note_on_c, 0, 53, 0
2,35162, Note_on_c, 0, 70, 78
2,35167, Note_on_c, 0, 69, 0
2,35179, Note_on_c, 0, 52, 50
2,35301, Note_on_c, 0, 69, 81
2,35305, Control_c, 0, 64, 27
2,35310, Note_on_c, 0, 53, 57
2,35321, Control_c, 0, 64, 47
2,35330, Note_on_c, 0, 70, 0
2,35331, Note_on_c, 0, 52, 0
2,35336, Control_c, 0, 64, 54
2,35350, Control_c, 0, 64, 57
2,35366, Control_c, 0, 64, 59
2,35381, Control_c, 0, 64, 61
2,35397, Control_c, 0, 64, 62
2,35412, Control_c, 0, 64, 62
2,35417, Note_on_c, 0, 53, 0
2,35433, Note_on_c, 0, 67, 86
2,35436, Note_on_c, 0, 55, 57
2,35449, Note_on_c, 0, 69, 0
2,35457, Control_c, 0, 64, 62
2,35473, Control_c, 0, 64, 61
2,35479, Note_on_c, 0, 55, 0
2,35488, Control_c, 0, 64, 60
2,35503, Control_c, 0, 64, 59
2,35519, Control_c, 0, 64, 57
2,35534, Control_c, 0, 64, 55
2,35548, Control_c, 0, 64, 50
2,35564, Control_c, 0, 64, 42
2,35579, Control_c, 0, 64, 25
2,35585, Note_on_c, 0, 69, 78
2,35595, Control_c, 0, 64, 0
2,35604, Note_on_c, 0, 50, 0
2,35607, Note_on_c, 0, 53, 57
2,35613, Note_on_c, 0, 67, 0
2,35812, Note_on_c, 0, 48, 55
2,35969, Note_on_c, 0, 48, 0
2,36022, Note_on_c, 0, 74, 81
2,36036, Note_on_c, 0, 46, 54
2,36083, Note_on_c, 0, 69, 0
2,36136, Note_on_c, 0, 53, 0
2,36210, Control_c, 0, 64, 37
2,36225, Control_c, 0, 64, 49
2,36240, Control_c, 0, 64, 54
2,36255, Control_c, 0, 64, 57
2,36270, Control_c, 0, 64, 60
2,36286, Control_c, 0, 64, 62
2,36288, Note_on_c, 0, 55, 50
2,36301, Control_c, 0, 64, 64
2,36317, Control_c, 0, 64, 67
2,36332, Control_c, 0, 64, 68
2,36347, Control_c, 0, 64, 69
2,36363, Control_c, 0, 64, 70
2,36453, Control_c, 0, 64, 70
2,36468, Control_c, 0, 64, 69
2,36476, Note_on_c, 0, 73, 87
2,36484, Control_c, 0, 64, 67
2,36490, Note_on_c, 0, 45, 56
2,36499, Control_c, 0, 64, 63
2,36515, Control_c, 0, 64, 54
2,36529, Control_c, 0, 64, 8
2,36529, Note_on_c, 0, 55, 0
2,36536, Note_on_c, 0, 46, 0
2,36544, Control_c, 0, 64, 0
2,36550, Note_on_c, 0, 74, 0
2,36681, Control_c, 0, 64, 12
2,36696, Control_c, 0, 64, 46
2,36711, Control_c, 0, 64, 55
2,36717, Note_on_c, 0, 55, 66
2,36734, Control_c, 0, 64, 60
2,36749, Control_c, 0, 64, 63
2,36765, Control_c, 0, 64, 65
2,36780, Control_c, 0, 64, 68
2,36795, Control_c, 0, 64, 71
2,36795, Note_on_c, 0, 55, 0
2,36810, Control_c, 0, 64, 74
2,36825, Control_c, 0, 64, 77
2,36841, Control_c, 0, 64, 78
2,36856, Control_c, 0, 64, 78
2,36918, Control_c, 0, 64, 78
2,36919, Note_on_c, 0, 72, 84
2,36934, Note_on_c, 0, 54, 65
2,36948, Control_c, 0, 64, 75
2,36963, Control_c, 0, 64, 70
2,36968, Note_on_c, 0, 73, 0
2,36978, Control_c, 0, 64, 65
2,36994, Control_c, 0, 64, 57
2,37009, Control_c, 0, 64, 0
2,37158, Note_on_c, 0, 50, 76
2,37187, Note_on_c, 0, 45, 0
2,37190, Control_c, 0, 64, 17
2,37206, Control_c, 0, 64, 45
2,37221, Control_c, 0, 64, 54
2,37237, Control_c, 0, 64, 59
2,37240, Note_on_c, 0, 54, 0
2,37252, Control_c, 0, 64, 62
2,37267, Control_c, 0, 64, 64
2,37283, Control_c, 0, 64, 65
2,37297, Control_c, 0, 64, 67
2,37313, Control_c, 0, 64, 68
2,37328, Control_c, 0, 64, 68
2,37359, Control_c, 0, 64, 68
2,37364, Note_on_c, 0, 71, 88
2,37373, Control_c, 0, 64, 66
2,37373, Note_on_c, 0, 43, 63
2,37388, Control_c, 0, 64, 64
2,37404, Control_c, 0, 64, 60
2,37418, Control_c, 0, 64, 49
2,37430, Note_on_c, 0, 72, 0
2,37434, Control_c, 0, 64, 0
2,37452, Note_on_c, 0, 50, 0
2,37594, Note_on_c, 0, 53, 73
2,37623, Control_c, 0, 64, 23
2,37639, Control_c, 0, 64, 50
2,37654, Control_c, 0, 64, 58
2,37669, Control_c, 0, 64, 61
2,37685, Control_c, 0, 64, 64
2,37694, Note_on_c, 0, 53, 0
2,37701, Control_c, 0, 64, 66
2,37717, Control_c, 0, 64, 69
2,37731, Control_c, 0, 64, 72
2,37746, Control_c, 0, 64, 74
2,37762, Control_c, 0, 64, 76
2,37803, Note_on_c, 0, 70, 87
2,37823, Note_on_c, 0, 52, 65
2,37853, Control_c, 0, 64, 74
2,37867, Control_c, 0, 64, 70
2,37883, Control_c, 0, 64, 64
2,37898, Control_c, 0, 64, 45
2,37914, Control_c, 0, 64, 0
2,37956, Note_on_c, 0, 71, 0
2,38040, Note_on_c, 0, 48, 79
2,38096, Control_c, 0, 64, 51
2,38096, Note_on_c, 0, 43, 0
2,38111, Control_c, 0, 64, 59
2,38127, Control_c, 0, 64, 63
2,38134, Note_on_c, 0, 52, 0
2,38141, Control_c, 0, 64, 65
2,38157, Control_c, 0, 64, 66
2,38172, Control_c, 0, 64, 68
2,38187, Control_c, 0, 64, 69
2,38203, Control_c, 0, 64, 70
2,38252, Note_on_c, 0, 41, 66
2,38262, Note_on_c, 0, 69, 85
2,38286, Control_c, 0, 64, 69
2,38301, Control_c, 0, 64, 66
2,38316, Control_c, 0, 64, 60
2,38331, Control_c, 0, 64, 43
2,38332, Note_on_c, 0, 48, 0
2,38346, Control_c, 0, 64, 0
2,38359, Note_on_c, 0, 70, 0
2,38484, Note_on_c, 0, 51, 81
2,38561, Control_c, 0, 64, 41
2,38575, Control_c, 0, 64, 54
2,38590, Control_c, 0, 64, 59
2,38606, Control_c, 0, 64, 61
2,38621, Control_c, 0, 64, 64
2,38637, Control_c, 0, 64, 66
2,38651, Control_c, 0, 64, 68
2,38666, Control_c, 0, 64, 70
2,38682, Control_c, 0, 64, 72
2,38696, Control_c, 0, 64, 74
2,38711, Control_c, 0, 64, 74
2,38746, Note_on_c, 0, 81, 96
2,38758, Note_on_c, 0, 50, 63
2,38773, Note_on_c, 0, 51, 0
2,38803, Control_c, 0, 64, 74
2,38818, Control_c, 0, 64, 73
2,38834, Control_c, 0, 64, 70
2,38848, Control_c, 0, 64, 67
2,38863, Control_c, 0, 64, 64
2,38879, Control_c, 0, 64, 57
2,38894, Control_c, 0, 64, 36
2,38909, Control_c, 0, 64, 0
2,39010, Note_on_c, 0, 46, 79
2,39025, Note_on_c, 0, 69, 0
2,39054, Control_c, 0, 64, 31
2,39068, Control_c, 0, 64, 47
2,39084, Control_c, 0, 64, 53
2,39093, Note_on_c, 0, 41, 0
2,39099, Control_c, 0, 64, 56
2,39114, Control_c, 0, 64, 58
2,39129, Control_c, 0, 64, 60
2,39144, Control_c, 0, 64, 62
2,39160, Control_c, 0, 64, 63
2,39211, Note_on_c, 0, 80, 92
2,39216, Note_on_c, 0, 50, 0
2,39223, Note_on_c, 0, 40, 68
2,39252, Control_c, 0, 64, 63
2,39266, Control_c, 0, 64, 61
2,39282, Control_c, 0, 64, 57
2,39297, Control_c, 0, 64, 48
2,39308, Note_on_c, 0, 46, 0
2,39311, Control_c, 0, 64, 16
2,39319, Note_on_c, 0, 81, 0
2,39327, Control_c, 0, 64, 0
2,39436, Note_on_c, 0, 50, 75
2,39465, Control_c, 0, 64, 35
2,39481, Control_c, 0, 64, 56
2,39496, Control_c, 0, 64, 61
2,39511, Control_c, 0, 64, 63
2,39527, Control_c, 0, 64, 65
2,39541, Control_c, 0, 64, 66
2,39541, Note_on_c, 0, 50, 0
2,39557, Control_c, 0, 64, 68
2,39572, Control_c, 0, 64, 71
2,39587, Control_c, 0, 64, 73
2,39603, Control_c, 0, 64, 74
2,39659, Note_on_c, 0, 79, 87
2,39695, Note_on_c, 0, 49, 77
2,39695, Note_on_c, 0, 80, 0
2,39708, Control_c, 0, 64, 73
2,39724, Control_c, 0, 64, 72
2,39739, Control_c, 0, 64, 70
2,39754, Control_c, 0, 64, 68
2,39769, Control_c, 0, 64, 66
2,39784, Control_c, 0, 64, 64
2,39808, Control_c, 0, 64, 60
2,39823, Control_c, 0, 64, 56
2,39838, Control_c, 0, 64, 50
2,39853, Control_c, 0, 64, 42
2,39868, Control_c, 0, 64, 27
2,39884, Control_c, 0, 64, 0
2,39895, Note_on_c, 0, 45, 74
2,39915, Note_on_c, 0, 49, 0
2,39936, Note_on_c, 0, 40, 0
2,40103, Note_on_c, 0, 78, 84
2,40117, Note_on_c, 0, 50, 60
2,40120, Note_on_c, 0, 38, 57
2,40163, Note_on_c, 0, 45, 0
2,40175, Note_on_c, 0, 79, 0
2,40308, Note_on_c, 0, 38, 0
2,40326, Note_on_c, 0, 69, 84
2,40377, Note_on_c, 0, 78, 0
2,40384, Note_on_c, 0, 50, 0
2,40568, Note_on_c, 0, 77, 79
2,40569, Note_on_c, 0, 70, 64
2,40575, Note_on_c, 0, 50, 46
2,40604, Note_on_c, 0, 69, 0
2,40727, Control_c, 0, 64, 43
2,40742, Control_c, 0, 64, 54
2,40757, Control_c, 0, 64, 59
2,40772, Control_c, 0, 64, 62
2,40787, Control_c, 0, 64, 64
2,40793, Note_on_c, 0, 69, 69
2,40796, Note_on_c, 0, 77, 0
2,40802, Control_c, 0, 64, 67
2,40812, Note_on_c, 0, 70, 0
2,40817, Control_c, 0, 64, 70
2,40833, Control_c, 0, 64, 73
2,40848, Control_c, 0, 64, 78
2,40859, Note_on_c, 0, 69, 0
2,40863, Control_c, 0, 64, 83
2,40878, Control_c, 0, 64, 86
2,40893, Control_c, 0, 64, 89
2,40908, Control_c, 0, 64, 89
2,40985, Control_c, 0, 64, 89
2,41007, Note_on_c, 0, 76, 70
2,41016, Control_c, 0, 64, 86
2,41018, Note_on_c, 0, 67, 58
2,41030, Control_c, 0, 64, 82
2,41046, Control_c, 0, 64, 78
2,41061, Control_c, 0, 64, 72
2,41077, Control_c, 0, 64, 67
2,41092, Control_c, 0, 64, 63
2,41107, Control_c, 0, 64, 53
2,41123, Control_c, 0, 64, 24
2,41138, Control_c, 0, 64, 0
2,41214, Note_on_c, 0, 70, 72
2,41239, Note_on_c, 0, 67, 0
2,41431, Note_on_c, 0, 69, 70
2,41444, Note_on_c, 0, 49, 34
2,41467, Note_on_c, 0, 50, 0
2,41476, Note_on_c, 0, 70, 0
2,41571, Control_c, 0, 64, 44
2,41586, Control_c, 0, 64, 55
2,41601, Control_c, 0, 64, 60
2,41616, Control_c, 0, 64, 63
2,41631, Control_c, 0, 64, 66
2,41635, Note_on_c, 0, 49, 0
2,41646, Control_c, 0, 64, 69
2,41661, Control_c, 0, 64, 73
2,41661, Note_on_c, 0, 69, 0
2,41664, Note_on_c, 0, 67, 69
2,41677, Control_c, 0, 64, 79
2,41692, Control_c, 0, 64, 85
2,41707, Control_c, 0, 64, 91
2,41722, Control_c, 0, 64, 94
2,41735, Note_on_c, 0, 67, 0
2,41737, Control_c, 0, 64, 94
2,41871, Note_on_c, 0, 65, 63
2,41875, Control_c, 0, 64, 93
2,41887, Note_on_c, 0, 50, 43
2,41890, Control_c, 0, 64, 91
2,41905, Control_c, 0, 64, 87
2,41921, Control_c, 0, 64, 84
2,41936, Control_c, 0, 64, 79
2,41951, Control_c, 0, 64, 74
2,41967, Control_c, 0, 64, 69
2,41982, Control_c, 0, 64, 64
2,41997, Control_c, 0, 64, 55
2,42012, Control_c, 0, 64, 19
2,42027, Control_c, 0, 64, 0
2,42101, Note_on_c, 0, 57, 42
2,42140, Note_on_c, 0, 50, 0
2,42298, Note_on_c, 0, 57, 0
2,42311, Note_on_c, 0, 58, 40
2,42316, Note_on_c, 0, 74, 63
2,42439, Note_on_c, 0, 76, 0
2,42501, Note_on_c, 0, 58, 0
2,42525, Note_on_c, 0, 57, 49
2,42743, Note_on_c, 0, 57, 0
2,42749, Note_on_c, 0, 64, 56
2,42763, Note_on_c, 0, 55, 36
2,42846, Note_on_c, 0, 65, 0
2,42970, Note_on_c, 0, 58, 51
2,43110, Note_on_c, 0, 55, 0
2,43174, Note_on_c, 0, 57, 44
2,43179, Note_on_c, 0, 73, 70
2,43202, Note_on_c, 0, 58, 0
2,43348, Note_on_c, 0, 74, 0
2,43381, Note_on_c, 0, 55, 52
2,43383, Note_on_c, 0, 57, 0
2,43495, Note_on_c, 0, 73, 0
2,43582, Note_on_c, 0, 55, 0
2,43590, Note_on_c, 0, 53, 55
2,43753, Control_c, 0, 64, 37
2,43767, Control_c, 0, 64, 49
2,43782, Control_c, 0, 64, 55
2,43788, Note_on_c, 0, 64, 0
2,43798, Control_c, 0, 64, 59
2,43801, Note_on_c, 0, 81, 81
2,43813, Control_c, 0, 64, 62
2,43828, Control_c, 0, 64, 64
2,43844, Control_c, 0, 64, 66
2,43859, Control_c, 0, 64, 68
2,43875, Control_c, 0, 64, 72
2,43890, Control_c, 0, 64, 75
2,43904, Control_c, 0, 64, 79
2,43920, Control_c, 0, 64, 82
2,43935, Control_c, 0, 64, 83
2,44017, Note_on_c, 0, 62, 54
2,44079, Note_on_c, 0, 82, 80
2,44101, Control_c, 0, 64, 82
2,44117, Control_c, 0, 64, 81
2,44117, Note_on_c, 0, 81, 0
2,44132, Control_c, 0, 64, 78
2,44147, Control_c, 0, 64, 76
2,44163, Control_c, 0, 64, 73
2,44177, Control_c, 0, 64, 70
2,44193, Control_c, 0, 64, 67
2,44208, Control_c, 0, 64, 64
2,44223, Control_c, 0, 64, 58
2,44239, Control_c, 0, 64, 43
2,44255, Control_c, 0, 64, 0
2,44298, Note_on_c, 0, 81, 82
2,44351, Note_on_c, 0, 82, 0
2,44470, Note_on_c, 0, 53, 0
2,44484, Note_on_c, 0, 52, 37
2,44507, Note_on_c, 0, 79, 75
2,44521, Note_on_c, 0, 81, 0
2,44688, Control_c, 0, 64, 38
2,44703, Control_c, 0, 64, 50
2,44713, Note_on_c, 0, 82, 76
2,44718, Control_c, 0, 64, 56
2,44733, Control_c, 0, 64, 59
2,44734, Note_on_c, 0, 62, 0
2,44748, Control_c, 0, 64, 61
2,44764, Control_c, 0, 64, 63
2,44779, Control_c, 0, 64, 64
2,44794, Note_on_c, 0, 79, 0
2,44795, Control_c, 0, 64, 66
2,44810, Control_c, 0, 64, 67
2,44824, Control_c, 0, 64, 69
2,44840, Control_c, 0, 64, 69
2,44916, Control_c, 0, 64, 69
2,44925, Note_on_c, 0, 61, 50
2,44929, Note_on_c, 0, 81, 70
2,44931, Control_c, 0, 64, 68
2,44945, Control_c, 0, 64, 67
2,44961, Control_c, 0, 64, 65
2,44967, Note_on_c, 0, 82, 0
2,44976, Control_c, 0, 64, 62
2,44991, Control_c, 0, 64, 59
2,45007, Control_c, 0, 64, 55
2,45021, Control_c, 0, 64, 48
2,45037, Control_c, 0, 64, 37
2,45052, Control_c, 0, 64, 0
2,45126, Note_on_c, 0, 81, 0
2,45140, Note_on_c, 0, 79, 73
2,45309, Note_on_c, 0, 61, 0
2,45329, Note_on_c, 0, 52, 0
2,45369, Note_on_c, 0, 50, 38
2,45372, Note_on_c, 0, 62, 40
2,45373, Note_on_c, 0, 77, 64
2,45385, Note_on_c, 0, 79, 0
2,45398, Note_on_c, 0, 50, 0
2,45425, Control_c, 0, 64, 31
2,45441, Control_c, 0, 64, 48
2,45456, Control_c, 0, 64, 54
2,45470, Control_c, 0, 64, 57
2,45486, Control_c, 0, 64, 58
2,45503, Note_on_c, 0, 62, 0
2,45522, Note_on_c, 0, 76, 68
2,45534, Note_on_c, 0, 77, 0
2,45540, Note_on_c, 0, 64, 57
2,45546, Control_c, 0, 64, 57
2,45562, Control_c, 0, 64, 56
2,45577, Control_c, 0, 64, 56
2,45593, Control_c, 0, 64, 55
2,45608, Control_c, 0, 64, 54
2,45623, Control_c, 0, 64, 51
2,45638, Note_on_c, 0, 76, 0
2,45639, Control_c, 0, 64, 47
2,45639, Note_on_c, 0, 64, 0
2,45650, Note_on_c, 0, 74, 68
2,45654, Control_c, 0, 64, 42
2,45655, Note_on_c, 0, 65, 49
2,45668, Control_c, 0, 64, 36
2,45684, Control_c, 0, 64, 26
2,45699, Control_c, 0, 64, 0
2,45733, Note_on_c, 0, 65, 0
2,45766, Note_on_c, 0, 74, 0
2,45777, Note_on_c, 0, 67, 49
2,45781, Note_on_c, 0, 73, 68
2,45867, Note_on_c, 0, 67, 0
2,45886, Note_on_c, 0, 73, 0
2,45890, Note_on_c, 0, 65, 47
2,45898, Note_on_c, 0, 74, 63
2,46009, Note_on_c, 0, 65, 0
2,46041, Note_on_c, 0, 64, 52
2,46042, Note_on_c, 0, 76, 68
2,46048, Note_on_c, 0, 74, 0
2,46144, Note_on_c, 0, 76, 0
2,46166, Note_on_c, 0, 65, 58
2,46167, Note_on_c, 0, 69, 69
2,46180, Note_on_c, 0, 64, 0
2,46268, Note_on_c, 0, 65, 0
2,46287, Note_on_c, 0, 71, 79
2,46299, Note_on_c, 0, 67, 67
2,46299, Note_on_c, 0, 69, 0
2,46406, Note_on_c, 0, 67, 0
2,46413, Note_on_c, 0, 73, 81
2,46425, Note_on_c, 0, 69, 60
2,46439, Note_on_c, 0, 71, 0
2,46549, Note_on_c, 0, 69, 0
2,46553, Note_on_c, 0, 74, 73
2,46558, Note_on_c, 0, 73, 0
2,46564, Note_on_c, 0, 70, 62
2,46670, Note_on_c, 0, 73, 82
2,46675, Note_on_c, 0, 70, 0
2,46684, Note_on_c, 0, 69, 62
2,46702, Note_on_c, 0, 74, 0
2,46800, Note_on_c, 0, 69, 0
2,46809, Note_on_c, 0, 71, 83
2,46816, Note_on_c, 0, 67, 66
2,46821, Note_on_c, 0, 73, 0
2,46947, Note_on_c, 0, 73, 81
2,46956, Note_on_c, 0, 69, 63
2,46965, Note_on_c, 0, 67, 0
2,46977, Note_on_c, 0, 71, 0
2,47079, Note_on_c, 0, 69, 0
2,47083, Note_on_c, 0, 73, 0
2,47089, Note_on_c, 0, 74, 74
2,47208, Note_on_c, 0, 76, 77
2,47210, Note_on_c, 0, 74, 0
2,47343, Note_on_c, 0, 76, 0
2,47344, Note_on_c, 0, 74, 80
2,47348, Note_on_c, 0, 77, 67
2,47483, Note_on_c, 0, 76, 79
2,47485, Control_c, 0, 64, 38
2,47485, Note_on_c, 0, 74, 0
2,47491, Note_on_c, 0, 77, 0
2,47500, Control_c, 0, 64, 51
2,47516, Control_c, 0, 64, 57
2,47532, Control_c, 0, 64, 61
2,47547, Control_c, 0, 64, 63
2,47563, Control_c, 0, 64, 64
2,47578, Control_c, 0, 64, 66
2,47592, Control_c, 0, 64, 68
2,47608, Control_c, 0, 64, 71
2,47621, Note_on_c, 0, 74, 76
2,47623, Control_c, 0, 64, 73
2,47639, Control_c, 0, 64, 75
2,47642, Note_on_c, 0, 76, 0
2,47654, Control_c, 0, 64, 75
2,47730, Control_c, 0, 64, 75
2,47745, Control_c, 0, 64, 74
2,47760, Control_c, 0, 64, 71
2,47775, Control_c, 0, 64, 68
2,47776, Note_on_c, 0, 76, 71
2,47778, Note_on_c, 0, 74, 0
2,47780, Note_on_c, 0, 73, 78
2,47790, Control_c, 0, 64, 64
2,47806, Control_c, 0, 64, 60
2,47821, Control_c, 0, 64, 52
2,47837, Control_c, 0, 64, 33
2,47852, Control_c, 0, 64, 0
2,48003, Note_on_c, 0, 47, 66
2,48069, Note_on_c, 0, 76, 0
2,48221, Note_on_c, 0, 81, 76
2,48224, Note_on_c, 0, 48, 71
2,48228, Note_on_c, 0, 72, 57
2,48329, Note_on_c, 0, 47, 0
2,48366, Note_on_c, 0, 73, 0
2,48440, Note_on_c, 0, 50, 79
2,48489, Note_on_c, 0, 72, 0
2,48525, Note_on_c, 0, 48, 0
2,48659, Note_on_c, 0, 80, 78
2,48671, Note_on_c, 0, 71, 62
2,48675, Note_on_c, 0, 52, 66
2,48689, Note_on_c, 0, 50, 0
2,48818, Note_on_c, 0, 81, 0
2,48893, Note_on_c, 0, 54, 77
2,48933, Note_on_c, 0, 71, 0
2,49074, Note_on_c, 0, 52, 0
2,49102, Note_on_c, 0, 79, 82
2,49105, Note_on_c, 0, 55, 72
2,49111, Note_on_c, 0, 70, 62
2,49170, Note_on_c, 0, 80, 0
2,49178, Note_on_c, 0, 54, 0
2,49323, Note_on_c, 0, 52, 73
2,49342, Note_on_c, 0, 55, 0
2,49505, Note_on_c, 0, 70, 0
2,49537, Note_on_c, 0, 57, 69
2,49542, Note_on_c, 0, 78, 78
2,49548, Note_on_c, 0, 69, 60
2,49598, Note_on_c, 0, 52, 0
2,49682, Note_on_c, 0, 79, 0
2,49754, Note_on_c, 0, 56, 80
2,49818, Note_on_c, 0, 57, 0
2,49968, Note_on_c, 0, 77, 78
2,49978, Note_on_c, 0, 57, 79
2,50028, Note_on_c, 0, 56, 0
2,50096, Note_on_c, 0, 78, 0
2,50191, Note_on_c, 0, 59, 81
2,50240, Note_on_c, 0, 57, 0
2,50404, Note_on_c, 0, 76, 72
2,50413, Note_on_c, 0, 60, 69
2,50452, Note_on_c, 0, 59, 0
2,50457, Note_on_c, 0, 77, 0
2,50642, Note_on_c, 0, 54, 78
2,50864, Note_on_c, 0, 74, 73
2,50867, Note_on_c, 0, 59, 64
2,50890, Note_on_c, 0, 69, 0
2,50931, Note_on_c, 0, 54, 0
2,50937, Note_on_c, 0, 76, 0
2,50948, Note_on_c, 0, 60, 0
2,51078, Control_c, 0, 64, 36
2,51082, Note_on_c, 0, 65, 65
2,51085, Note_on_c, 0, 57, 64
2,51092, Control_c, 0, 64, 48
2,51108, Control_c, 0, 64, 56
2,51117, Note_on_c, 0, 59, 0
2,51123, Control_c, 0, 64, 59
2,51138, Control_c, 0, 64, 61
2,51154, Control_c, 0, 64, 63
2,51168, Control_c, 0, 64, 65
2,51183, Control_c, 0, 64, 67
2,51199, Control_c, 0, 64, 68
2,51201, Note_on_c, 0, 65, 0
2,51214, Control_c, 0, 64, 70
2,51290, Control_c, 0, 64, 68
2,51295, Note_on_c, 0, 64, 74
2,51297, Note_on_c, 0, 56, 53
2,51300, Note_on_c, 0, 57, 0
2,51305, Control_c, 0, 64, 67
2,51328, Control_c, 0, 64, 64
2,51343, Control_c, 0, 64, 60
2,51359, Control_c, 0, 64, 50
2,51373, Control_c, 0, 64, 28
2,51389, Control_c, 0, 64, 0
2,51499, Note_on_c, 0, 56, 0
2,51511, Note_on_c, 0, 52, 56
2,51742, Note_on_c, 0, 72, 74
2,51761, Note_on_c, 0, 57, 48
2,51770, Note_on_c, 0, 52, 0
2,51810, Note_on_c, 0, 64, 0
2,51829, Note_on_c, 0, 74, 0
2,51936, Control_c, 0, 64, 19
2,51952, Control_c, 0, 64, 44
2,51964, Note_on_c, 0, 64, 64
2,51967, Control_c, 0, 64, 53
2,51982, Control_c, 0, 64, 58
2,51998, Control_c, 0, 64, 61
2,52012, Control_c, 0, 64, 64
2,52028, Control_c, 0, 64, 66
2,52043, Control_c, 0, 64, 68
2,52049, Note_on_c, 0, 64, 0
2,52058, Control_c, 0, 64, 72
2,52074, Control_c, 0, 64, 75
2,52096, Control_c, 0, 64, 77
2,52112, Control_c, 0, 64, 79
2,52127, Control_c, 0, 64, 80
2,52203, Note_on_c, 0, 62, 59
2,52205, Note_on_c, 0, 71, 81
2,52233, Control_c, 0, 64, 79
2,52248, Control_c, 0, 64, 78
2,52252, Note_on_c, 0, 72, 0
2,52263, Control_c, 0, 64, 76
2,52278, Control_c, 0, 64, 74
2,52293, Control_c, 0, 64, 72
2,52309, Control_c, 0, 64, 70
2,52324, Control_c, 0, 64, 68
2,52339, Control_c, 0, 64, 66
2,52355, Control_c, 0, 64, 63
2,52370, Control_c, 0, 64, 59
2,52385, Control_c, 0, 64, 48
2,52400, Control_c, 0, 64, 26
2,52415, Control_c, 0, 64, 0
2,52421, Note_on_c, 0, 50, 56
2,52441, Note_on_c, 0, 57, 0
2,52649, Note_on_c, 0, 50, 0
2,52649, Note_on_c, 0, 70, 66
2,52659, Note_on_c, 0, 55, 45
2,52689, Note_on_c, 0, 62, 0
2,52725, Note_on_c, 0, 71, 0
2,52865, Control_c, 0, 64, 45
2,52871, Note_on_c, 0, 62, 50
2,52872, Note_on_c, 0, 55, 0
2,52880, Control_c, 0, 64, 56
2,52895, Control_c, 0, 64, 61
2,52895, Note_on_c, 0, 53, 38
2,52911, Control_c, 0, 64, 65
2,52926, Control_c, 0, 64, 68
2,52941, Control_c, 0, 64, 72
2,52949, Note_on_c, 0, 62, 0
2,52957, Control_c, 0, 64, 77
2,52972, Control_c, 0, 64, 82
2,52988, Control_c, 0, 64, 86
2,53002, Control_c, 0, 64, 90
2,53017, Control_c, 0, 64, 91
2,53093, Control_c, 0, 67, 19
2,53102, Note_on_c, 0, 60, 58
2,53109, Control_c, 0, 64, 90
2,53109, Control_c, 0, 67, 31
2,53122, Note_on_c, 0, 52, 40
2,53123, Control_c, 0, 64, 86
2,53123, Control_c, 0, 67, 44
2,53137, Note_on_c, 0, 53, 0
2,53138, Control_c, 0, 64, 81
2,53138, Control_c, 0, 67, 58
2,53154, Control_c, 0, 64, 76
2,53154, Control_c, 0, 67, 70
2,53169, Control_c, 0, 64, 72
2,53169, Control_c, 0, 67, 79
2,53184, Control_c, 0, 64, 69
2,53184, Control_c, 0, 67, 88
2,53199, Control_c, 0, 64, 66
2,53199, Control_c, 0, 67, 96
2,53214, Control_c, 0, 64, 63
2,53214, Control_c, 0, 67, 103
2,53230, Control_c, 0, 64, 55
2,53230, Control_c, 0, 67, 108
2,53245, Control_c, 0, 64, 40
2,53245, Control_c, 0, 67, 112
2,53260, Control_c, 0, 64, 0
2,53260, Control_c, 0, 67, 115
2,53277, Control_c, 0, 67, 118
2,53291, Control_c, 0, 67, 119
2,53307, Control_c, 0, 67, 120
2,53321, Control_c, 0, 67, 121
2,53321, Note_on_c, 0, 48, 38
2,53340, Note_on_c, 0, 52, 0
2,53351, Control_c, 0, 67, 122
2,53366, Control_c, 0, 67, 125
2,53381, Control_c, 0, 67, 127
2,53547, Note_on_c, 0, 69, 57
2,53550, Note_on_c, 0, 53, 38
2,53574, Note_on_c, 0, 48, 0
2,53591, Note_on_c, 0, 60, 0
2,53638, Note_on_c, 0, 70, 0
2,53753, Control_c, 0, 64, 26
2,53768, Control_c, 0, 64, 47
2,53781, Note_on_c, 0, 60, 42
2,53783, Control_c, 0, 64, 56
2,53799, Control_c, 0, 64, 60
2,53814, Control_c, 0, 64, 63
2,53829, Control_c, 0, 64, 66
2,53844, Control_c, 0, 64, 68
2,53844, Note_on_c, 0, 60, 0
2,53859, Control_c, 0, 64, 73
2,53875, Control_c, 0, 64, 77
2,53890, Control_c, 0, 64, 81
2,53905, Control_c, 0, 64, 84
2,53920, Control_c, 0, 64, 85
2,53989, Note_on_c, 0, 68, 60
2,54011, Control_c, 0, 64, 84
2,54016, Note_on_c, 0, 59, 42
2,54027, Control_c, 0, 64, 82
2,54042, Control_c, 0, 64, 79
2,54057, Control_c, 0, 64, 75
2,54073, Control_c, 0, 64, 72
2,54088, Control_c, 0, 64, 68
2,54103, Control_c, 0, 64, 65
2,54114, Note_on_c, 0, 69, 0
2,54119, Control_c, 0, 64, 59
2,54134, Control_c, 0, 64, 41
2,54150, Control_c, 0, 64, 0
2,54205, Note_on_c, 0, 47, 40
2,54434, Note_on_c, 0, 52, 36
2,54441, Note_on_c, 0, 67, 51
2,54453, Note_on_c, 0, 53, 0
2,54455, Note_on_c, 0, 68, 0
2,54469, Note_on_c, 0, 47, 0
2,54646, Note_on_c, 0, 58, 49
2,54658, Note_on_c, 0, 50, 35
2,54659, Note_on_c, 0, 59, 0
2,54672, Note_on_c, 0, 52, 0
2,54843, Note_on_c, 0, 50, 0
2,54864, Note_on_c, 0, 58, 0
2,54876, Note_on_c, 0, 49, 39
2,54878, Note_on_c, 0, 57, 50
2,55070, Note_on_c, 0, 49, 0
2,55090, Note_on_c, 0, 67, 0
2,55114, Note_on_c, 0, 45, 24
2,55211, Note_on_c, 0, 65, 51
2,55249, Note_on_c, 0, 65, 0
2,55257, Note_on_c, 0, 67, 53
2,55306, Note_on_c, 0, 67, 0
2,55327, Note_on_c, 0, 65, 64
2,55338, Note_on_c, 0, 50, 33
2,55348, Note_on_c, 0, 45, 0
2,55349, Note_on_c, 0, 57, 0
2,55768, Note_on_c, 0, 69, 56
2,55770, Note_on_c, 0, 65, 0
2,55776, Note_on_c, 0, 64, 42
2,55928, Note_on_c, 0, 67, 61
2,55990, Note_on_c, 0, 64, 0
2,56042, Note_on_c, 0, 69, 0
2,56051, Note_on_c, 0, 65, 71
2,56105, Note_on_c, 0, 67, 0
2,56186, Note_on_c, 0, 49, 38
2,56191, Note_on_c, 0, 64, 73
2,56191, Note_on_c, 0, 65, 0
2,56212, Note_on_c, 0, 50, 0
2,56311, Note_on_c, 0, 65, 73
2,56351, Note_on_c, 0, 64, 0
2,56449, Note_on_c, 0, 65, 0
2,56449, Note_on_c, 0, 67, 67
2,56550, Note_on_c, 0, 49, 0
2,56596, Note_on_c, 0, 65, 69
2,56597, Note_on_c, 0, 50, 46
2,56602, Control_c, 0, 67, 126
2,56617, Control_c, 0, 67, 118
2,56621, Note_on_c, 0, 67, 0
2,56632, Control_c, 0, 67, 104
2,56648, Control_c, 0, 67, 90
2,56662, Control_c, 0, 67, 76
2,56677, Control_c, 0, 67, 60
2,56701, Control_c, 0, 67, 41
2,56716, Control_c, 0, 67, 15
2,56722, Note_on_c, 0, 48, 58
2,56728, Note_on_c, 0, 64, 70
2,56731, Control_c, 0, 67, 0
2,56737, Note_on_c, 0, 50, 0
2,56756, Note_on_c, 0, 65, 0
2,56832, Note_on_c, 0, 64, 0
2,56857, Note_on_c, 0, 62, 67
2,56859, Note_on_c, 0, 46, 60
2,56893, Note_on_c, 0, 48, 0
2,56985, Note_on_c, 0, 61, 67
2,56994, Note_on_c, 0, 45, 63
2,57004, Note_on_c, 0, 46, 0
2,57004, Note_on_c, 0, 62, 0
2,57117, Note_on_c, 0, 62, 73
2,57121, Note_on_c, 0, 46, 73
2,57137, Note_on_c, 0, 45, 0
2,57141, Note_on_c, 0, 61, 0
2,57235, Note_on_c, 0, 62, 0
2,57239, Note_on_c, 0, 64, 73
2,57245, Note_on_c, 0, 46, 0
2,57248, Note_on_c, 0, 48, 70
2,57385, Note_on_c, 0, 62, 65
2,57389, Note_on_c, 0, 46, 66
2,57392, Note_on_c, 0, 48, 0
2,57412, Note_on_c, 0, 64, 0
2,57511, Note_on_c, 0, 46, 0
2,57518, Note_on_c, 0, 45, 65
2,57566, Note_on_c, 0, 62, 0
2,57661, Note_on_c, 0, 45, 0
2,57667, Note_on_c, 0, 43, 58
2,57779, Note_on_c, 0, 57, 67
2,57795, Note_on_c, 0, 42, 65
2,57803, Note_on_c, 0, 43, 0
2,57916, Note_on_c, 0, 43, 71
2,57951, Note_on_c, 0, 42, 0
2,58010, Note_on_c, 0, 57, 0
2,58039, Note_on_c, 0, 45, 66
2,58042, Note_on_c, 0, 43, 0
2,58195, Note_on_c, 0, 58, 80
2,58198, Note_on_c, 0, 43, 60
2,58214, Note_on_c, 0, 45, 0
2,58329, Note_on_c, 0, 62, 64
2,58419, Note_on_c, 0, 43, 0
2,58456, Note_on_c, 0, 64, 71
2,58546, Note_on_c, 0, 62, 0
2,58585, Note_on_c, 0, 58, 0
2,58595, Note_on_c, 0, 65, 61
2,58603, Note_on_c, 0, 38, 64
2,58616, Note_on_c, 0, 64, 0
2,58740, Note_on_c, 0, 64, 69
2,58778, Note_on_c, 0, 65, 0
2,58872, Note_on_c, 0, 62, 69
2,58889, Note_on_c, 0, 64, 0
2,59014, Note_on_c, 0, 62, 0
2,59030, Note_on_c, 0, 39, 63
2,59030, Note_on_c, 0, 60, 75
2,59072, Note_on_c, 0, 38, 0
2,59169, Note_on_c, 0, 70, 71
2,59295, Note_on_c, 0, 69, 72
2,59296, Note_on_c, 0, 60, 0
2,59397, Note_on_c, 0, 70, 0
2,59433, Note_on_c, 0, 40, 72
2,59445, Note_on_c, 0, 67, 70
2,59452, Note_on_c, 0, 61, 60
2,59462, Note_on_c, 0, 69, 0
2,59529, Note_on_c, 0, 39, 0
2,59587, Note_on_c, 0, 69, 73
2,59710, Note_on_c, 0, 70, 69
2,59743, Note_on_c, 0, 69, 0
2,59839, Note_on_c, 0, 61, 0
2,59856, Note_on_c, 0, 41, 70
2,59863, Note_on_c, 0, 62, 65
2,59868, Note_on_c, 0, 67, 0
2,59941, Note_on_c, 0, 40, 0
2,59995, Note_on_c, 0, 69, 75
2,60011, Note_on_c, 0, 70, 0
2,60121, Note_on_c, 0, 70, 79
2,60172, Note_on_c, 0, 69, 0
2,60256, Note_on_c, 0, 42, 70
2,60262, Note_on_c, 0, 72, 72
2,60279, Note_on_c, 0, 70, 0
2,60341, Note_on_c, 0, 41, 0
2,60388, Note_on_c, 0, 70, 76
2,60483, Note_on_c, 0, 72, 0
2,60485, Note_on_c, 0, 42, 0
2,60514, Note_on_c, 0, 69, 75
2,60548, Note_on_c, 0, 70, 0
2,60673, Note_on_c, 0, 70, 66
2,60689, Note_on_c, 0, 43, 63
2,60715, Note_on_c, 0, 69, 0
2,60813, Note_on_c, 0, 45, 76
2,60853, Note_on_c, 0, 70, 0
2,60865, Note_on_c, 0, 43, 0
2,60941, Note_on_c, 0, 46, 79
2,60969, Note_on_c, 0, 45, 0
2,61075, Note_on_c, 0, 48, 69
2,61077, Note_on_c, 0, 46, 0
2,61081, Note_on_c, 0, 66, 69
2,61211, Note_on_c, 0, 46, 66
2,61216, Note_on_c, 0, 48, 0
2,61282, Note_on_c, 0, 66, 0
2,61343, Note_on_c, 0, 45, 67
2,61344, Note_on_c, 0, 46, 0
2,61494, Note_on_c, 0, 67, 69
2,61495, Note_on_c, 0, 46, 59
2,61522, Note_on_c, 0, 45, 0
2,61598, Note_on_c, 0, 46, 0
2,61614, Note_on_c, 0, 48, 63
2,61625, Note_on_c, 0, 69, 76
2,61658, Note_on_c, 0, 67, 0
2,61739, Note_on_c, 0, 48, 0
2,61744, Note_on_c, 0, 70, 78
2,61758, Note_on_c, 0, 50, 62
2,61776, Note_on_c, 0, 69, 0
2,61816, Note_on_c, 0, 62, 0
2,61879, Note_on_c, 0, 50, 0
2,61889, Note_on_c, 0, 72, 77
2,61895, Note_on_c, 0, 51, 62
2,61910, Note_on_c, 0, 70, 0
2,62008, Note_on_c, 0, 51, 0
2,62017, Note_on_c, 0, 70, 81
2,62018, Note_on_c, 0, 50, 60
2,62046, Note_on_c, 0, 72, 0
2,62129, Note_on_c, 0, 50, 0
2,62149, Note_on_c, 0, 48, 58
2,62154, Note_on_c, 0, 69, 82
2,62167, Note_on_c, 0, 70, 0
2,62296, Note_on_c, 0, 50, 63
2,62298, Note_on_c, 0, 70, 75
2,62305, Note_on_c, 0, 48, 0
2,62315, Note_on_c, 0, 69, 0
2,62417, Note_on_c, 0, 70, 0
2,62426, Note_on_c, 0, 50, 0
2,62427, Note_on_c, 0, 72, 79
2,62559, Note_on_c, 0, 74, 82
2,62562, Note_on_c, 0, 72, 0
2,62706, Note_on_c, 0, 55, 81
2,62714, Note_on_c, 0, 75, 76
2,62724, Note_on_c, 0, 74, 0
2,62838, Note_on_c, 0, 75, 0
2,62848, Note_on_c, 0, 74, 76
2,62975, Note_on_c, 0, 73, 81
2,62987, Note_on_c, 0, 74, 0
2,63116, Note_on_c, 0, 74, 73
2,63130, Note_on_c, 0, 73, 0
2,63241, Note_on_c, 0, 72, 67
2,63371, Note_on_c, 0, 70, 60
2,63376, Note_on_c, 0, 72, 0
2,63502, Note_on_c, 0, 70, 0
2,63523, Note_on_c, 0, 69, 59
2,63530, Note_on_c, 0, 54, 48
2,63566, Note_on_c, 0, 55, 0
2,63661, Note_on_c, 0, 69, 0
2,63670, Note_on_c, 0, 70, 60
2,63779, Note_on_c, 0, 70, 0
2,63801, Note_on_c, 0, 72, 63
2,63935, Note_on_c, 0, 54, 0
2,63940, Note_on_c, 0, 72, 0
2,63946, Note_on_c, 0, 70, 60
2,63967, Note_on_c, 0, 55, 56
2,64076, Note_on_c, 0, 74, 0
2,64085, Note_on_c, 0, 53, 77
2,64095, Note_on_c, 0, 55, 0
2,64109, Note_on_c, 0, 70, 0
2,64204, Note_on_c, 0, 52, 75
2,64240, Note_on_c, 0, 53, 0
2,64330, Note_on_c, 0, 50, 64
2,64337, Note_on_c, 0, 52, 0
2,64339, Note_on_c, 0, 74, 74
2,64456, Note_on_c, 0, 52, 74
2,64489, Note_on_c, 0, 50, 0
2,64521, Note_on_c, 0, 74, 0
2,64594, Note_on_c, 0, 53, 64
2,64599, Note_on_c, 0, 52, 0
2,64738, Note_on_c, 0, 53, 0
2,64756, Note_on_c, 0, 52, 41
2,64763, Note_on_c, 0, 79, 77
2,64780, Note_on_c, 0, 67, 47
2,64892, Note_on_c, 0, 77, 77
2,64928, Note_on_c, 0, 79, 0
2,64932, Note_on_c, 0, 52, 0
2,64935, Note_on_c, 0, 67, 0
2,65022, Note_on_c, 0, 76, 82
2,65034, Note_on_c, 0, 77, 0
2,65174, Note_on_c, 0, 76, 0
2,65179, Note_on_c, 0, 55, 45
2,65182, Note_on_c, 0, 74, 68
2,65208, Note_on_c, 0, 71, 52
2,65312, Note_on_c, 0, 55, 0
2,65314, Note_on_c, 0, 76, 70
2,65321, Note_on_c, 0, 74, 0
2,65337, Note_on_c, 0, 71, 0
2,65438, Note_on_c, 0, 76, 0
2,65446, Note_on_c, 0, 77, 73
2,65595, Note_on_c, 0, 76, 66
2,65597, Note_on_c, 0, 60, 63
2,65597, Note_on_c, 0, 77, 0
2,65615, Note_on_c, 0, 72, 52
2,65719, Note_on_c, 0, 58, 75
2,65757, Note_on_c, 0, 76, 0
2,65774, Note_on_c, 0, 60, 0
2,65849, Note_on_c, 0, 57, 69
2,65871, Note_on_c, 0, 58, 0
2,65992, Note_on_c, 0, 57, 0
2,66000, Note_on_c, 0, 55, 55
2,66004, Note_on_c, 0, 79, 74
2,66023, Note_on_c, 0, 72, 0
2,66105, Note_on_c, 0, 55, 0
2,66119, Note_on_c, 0, 57, 60
2,66160, Note_on_c, 0, 79, 0
2,66231, Note_on_c, 0, 57, 0
2,66251, Note_on_c, 0, 58, 55
2,66377, Note_on_c, 0, 58, 0
2,66397, Note_on_c, 0, 57, 42
2,66410, Note_on_c, 0, 72, 63
2,66529, Note_on_c, 0, 70, 55
2,66575, Note_on_c, 0, 57, 0
2,66648, Note_on_c, 0, 70, 0
2,66682, Note_on_c, 0, 69, 61
2,66703, Note_on_c, 0, 72, 0
2,66791, Note_on_c, 0, 69, 0
2,66836, Note_on_c, 0, 60, 40
2,66837, Note_on_c, 0, 67, 52
2,66932, Note_on_c, 0, 67, 0
2,66952, Note_on_c, 0, 69, 61
2,66958, Note_on_c, 0, 60, 0
2,67071, Note_on_c, 0, 69, 0
2,67094, Note_on_c, 0, 70, 61
2,67232, Note_on_c, 0, 70, 0
2,67236, Note_on_c, 0, 69, 58
2,67246, Note_on_c, 0, 53, 46
2,67362, Note_on_c, 0, 51, 68
2,67378, Note_on_c, 0, 69, 0
2,67404, Note_on_c, 0, 53, 0
2,67492, Note_on_c, 0, 50, 68
2,67523, Note_on_c, 0, 51, 0
2,67623, Note_on_c, 0, 72, 70
2,67626, Note_on_c, 0, 48, 61
2,67642, Note_on_c, 0, 50, 0
2,67752, Note_on_c, 0, 50, 64
2,67758, Note_on_c, 0, 72, 0
2,67766, Note_on_c, 0, 48, 0
2,67870, Note_on_c, 0, 51, 62
2,67884, Note_on_c, 0, 50, 0
2,68004, Note_on_c, 0, 51, 0
2,68034, Note_on_c, 0, 50, 46
2,68042, Note_on_c, 0, 77, 69
2,68049, Note_on_c, 0, 65, 51
2,68165, Note_on_c, 0, 65, 0
2,68166, Note_on_c, 0, 75, 74
2,68239, Note_on_c, 0, 50, 0
2,68294, Note_on_c, 0, 77, 0
2,68302, Note_on_c, 0, 74, 76
2,68316, Note_on_c, 0, 75, 0
2,68442, Note_on_c, 0, 74, 0
2,68452, Note_on_c, 0, 53, 53
2,68452, Note_on_c, 0, 72, 71
2,68467, Note_on_c, 0, 69, 52
2,68559, Note_on_c, 0, 69, 0
2,68592, Note_on_c, 0, 74, 71
2,68596, Note_on_c, 0, 72, 0
2,68599, Note_on_c, 0, 53, 0
2,68722, Note_on_c, 0, 75, 68
2,68738, Note_on_c, 0, 74, 0
2,68869, Note_on_c, 0, 70, 46
2,68870, Note_on_c, 0, 75, 0
2,68871, Note_on_c, 0, 74, 71
2,68874, Note_on_c, 0, 58, 50
2,69001, Note_on_c, 0, 70, 0
2,69011, Note_on_c, 0, 58, 0
2,69018, Note_on_c, 0, 57, 62
2,69140, Note_on_c, 0, 55, 65
2,69163, Note_on_c, 0, 57, 0
2,69278, Note_on_c, 0, 69, 73
2,69281, Note_on_c, 0, 55, 0
2,69290, Note_on_c, 0, 54, 62
2,69412, Note_on_c, 0, 55, 65
2,69417, Note_on_c, 0, 74, 0
2,69449, Note_on_c, 0, 54, 0
2,69534, Note_on_c, 0, 55, 0
2,69543, Note_on_c, 0, 57, 71
2,69661, Note_on_c, 0, 57, 0
2,69679, Note_on_c, 0, 73, 74
2,69687, Note_on_c, 0, 55, 65
2,69815, Note_on_c, 0, 55, 0
2,69825, Note_on_c, 0, 74, 78
2,69836, Note_on_c, 0, 53, 57
2,69860, Note_on_c, 0, 73, 0
2,69942, Note_on_c, 0, 76, 81
2,69949, Note_on_c, 0, 52, 61
2,69956, Note_on_c, 0, 53, 0
2,69957, Note_on_c, 0, 69, 0
2,69957, Note_on_c, 0, 69, 14
2,69961, Note_on_c, 0, 74, 0
2,70079, Note_on_c, 0, 52, 0
2,70080, Note_on_c, 0, 77, 81
2,70087, Note_on_c, 0, 50, 61
2,70106, Note_on_c, 0, 76, 0
2,70199, Note_on_c, 0, 52, 67
2,70207, Note_on_c, 0, 76, 87
2,70226, Note_on_c, 0, 50, 0
2,70230, Note_on_c, 0, 77, 0
2,70327, Note_on_c, 0, 53, 75
2,70327, Note_on_c, 0, 74, 81
2,70329, Note_on_c, 0, 52, 0
2,70331, Note_on_c, 0, 76, 0
2,70469, Note_on_c, 0, 76, 79
2,70474, Note_on_c, 0, 52, 61
2,70483, Note_on_c, 0, 53, 0
2,70524, Note_on_c, 0, 74, 0
2,70571, Note_on_c, 0, 52, 0
2,70592, Note_on_c, 0, 77, 83
2,70599, Note_on_c, 0, 50, 64
2,70626, Note_on_c, 0, 76, 0
2,70707, Note_on_c, 0, 50, 0
2,70727, Note_on_c, 0, 79, 81
2,70735, Note_on_c, 0, 48, 52
2,70751, Note_on_c, 0, 77, 0
2,70770, Control_c, 0, 64, 38
2,70785, Control_c, 0, 64, 49
2,70785, Note_on_c, 0, 79, 0
2,70800, Control_c, 0, 64, 54
2,70815, Control_c, 0, 64, 57
2,70828, Note_on_c, 0, 48, 0
2,70830, Control_c, 0, 64, 58
2,70846, Control_c, 0, 64, 59
2,70854, Note_on_c, 0, 47, 49
2,70861, Control_c, 0, 64, 60
2,70862, Note_on_c, 0, 81, 74
2,70906, Control_c, 0, 64, 59
2,70922, Control_c, 0, 64, 59
2,70936, Control_c, 0, 64, 58
2,70951, Control_c, 0, 64, 58
2,70967, Control_c, 0, 64, 57
2,70979, Note_on_c, 0, 79, 75
2,70981, Note_on_c, 0, 47, 0
2,70982, Control_c, 0, 64, 55
2,70986, Note_on_c, 0, 49, 56
2,70998, Control_c, 0, 64, 53
2,71012, Control_c, 0, 64, 50
2,71027, Control_c, 0, 64, 48
2,71043, Control_c, 0, 64, 45
2,71058, Control_c, 0, 64, 42
2,71074, Control_c, 0, 64, 37
2,71088, Control_c, 0, 64, 25
2,71097, Note_on_c, 0, 49, 0
2,71103, Control_c, 0, 64, 0
2,71117, Note_on_c, 0, 81, 0
2,71119, Note_on_c, 0, 77, 84
2,71122, Note_on_c, 0, 50, 57
2,71155, Note_on_c, 0, 79, 0
2,71202, Note_on_c, 0, 69, 0
2,71278, Note_on_c, 0, 79, 79
2,71297, Note_on_c, 0, 50, 0
2,71304, Note_on_c, 0, 49, 52
2,71317, Note_on_c, 0, 77, 0
2,71494, Note_on_c, 0, 49, 0
2,71514, Note_on_c, 0, 69, 88
2,71520, Note_on_c, 0, 45, 52
2,71546, Note_on_c, 0, 79, 0
2,71741, Note_on_c, 0, 77, 71
2,71743, Note_on_c, 0, 70, 79
2,71754, Note_on_c, 0, 45, 0
2,71756, Note_on_c, 0, 50, 58
2,71790, Note_on_c, 0, 69, 0
2,71901, Control_c, 0, 64, 31
2,71917, Control_c, 0, 64, 49
2,71931, Control_c, 0, 64, 58
2,71946, Control_c, 0, 64, 62
2,71962, Control_c, 0, 64, 65
2,71964, Note_on_c, 0, 69, 85
2,71966, Note_on_c, 0, 77, 0
2,71976, Control_c, 0, 64, 68
2,71990, Note_on_c, 0, 70, 0
2,71991, Control_c, 0, 64, 72
2,72007, Control_c, 0, 64, 79
2,72022, Control_c, 0, 64, 89
2,72038, Control_c, 0, 64, 102
2,72060, Control_c, 0, 64, 113
2,72060, Note_on_c, 0, 69, 0
2,72076, Control_c, 0, 64, 127
2,72190, Note_on_c, 0, 76, 82
2,72198, Control_c, 0, 64, 116
2,72202, Note_on_c, 0, 67, 63
2,72213, Control_c, 0, 64, 104
2,72228, Control_c, 0, 64, 96
2,72244, Control_c, 0, 64, 89
2,72258, Control_c, 0, 64, 81
2,72274, Control_c, 0, 64, 73
2,72289, Control_c, 0, 64, 67
2,72304, Control_c, 0, 64, 60
2,72320, Control_c, 0, 64, 41
2,72335, Control_c, 0, 64, 0
2,72410, Note_on_c, 0, 70, 82
2,72452, Note_on_c, 0, 67, 0
2,72623, Note_on_c, 0, 49, 47
2,72623, Note_on_c, 0, 69, 82
2,72653, Note_on_c, 0, 50, 0
2,72672, Note_on_c, 0, 70, 0
2,72790, Control_c, 0, 64, 41
2,72806, Control_c, 0, 64, 53
2,72827, Control_c, 0, 64, 59
2,72843, Control_c, 0, 64, 62
2,72847, Note_on_c, 0, 49, 0
2,72858, Control_c, 0, 64, 65
2,72859, Note_on_c, 0, 67, 84
2,72873, Control_c, 0, 64, 68
2,72889, Control_c, 0, 64, 72
2,72892, Note_on_c, 0, 69, 0
2,72903, Control_c, 0, 64, 76
2,72919, Control_c, 0, 64, 81
2,72935, Control_c, 0, 64, 87
2,72950, Control_c, 0, 64, 94
2,72964, Note_on_c, 0, 67, 0
2,72966, Control_c, 0, 64, 98
2,72981, Control_c, 0, 64, 99
2,73081, Note_on_c, 0, 65, 86
2,73085, Note_on_c, 0, 50, 60
2,73087, Control_c, 0, 64, 98
2,73102, Control_c, 0, 64, 94
2,73118, Control_c, 0, 64, 90
2,73133, Control_c, 0, 64, 85
2,73148, Control_c, 0, 64, 81
2,73164, Control_c, 0, 64, 77
2,73179, Control_c, 0, 64, 72
2,73195, Control_c, 0, 64, 67
2,73209, Control_c, 0, 64, 61
2,73224, Control_c, 0, 64, 47
2,73240, Control_c, 0, 64, 0
2,73299, Note_on_c, 0, 74, 78
2,73325, Note_on_c, 0, 76, 0
2,73331, Note_on_c, 0, 50, 0
2,73363, Note_on_c, 0, 65, 0
2,73529, Note_on_c, 0, 58, 72
2,73536, Note_on_c, 0, 75, 74
2,73537, Note_on_c, 0, 55, 53
2,73558, Note_on_c, 0, 74, 0
2,73752, Note_on_c, 0, 74, 78
2,73786, Note_on_c, 0, 75, 0
2,73977, Note_on_c, 0, 58, 0
2,73984, Note_on_c, 0, 73, 72
2,74005, Note_on_c, 0, 74, 0
2,74008, Note_on_c, 0, 57, 45
2,74222, Note_on_c, 0, 76, 69
2,74243, Note_on_c, 0, 73, 0
2,74441, Note_on_c, 0, 54, 36
2,74456, Note_on_c, 0, 74, 64
2,74535, Note_on_c, 0, 55, 0
2,74638, Note_on_c, 0, 57, 0
2,74683, Note_on_c, 0, 72, 73
2,74801, Note_on_c, 0, 76, 0
2,74876, Note_on_c, 0, 74, 0
2,74899, Note_on_c, 0, 55, 67
2,74906, Note_on_c, 0, 71, 73
2,74934, Note_on_c, 0, 54, 0
2,74952, Note_on_c, 0, 72, 0
2,75102, Note_on_c, 0, 71, 0
2,75116, Note_on_c, 0, 53, 68
2,75180, Note_on_c, 0, 55, 0
2,75346, Note_on_c, 0, 67, 77
2,75351, Note_on_c, 0, 70, 65
2,75371, Note_on_c, 0, 52, 49
2,75386, Note_on_c, 0, 53, 0
2,75555, Note_on_c, 0, 52, 0
2,75574, Control_c, 0, 64, 46
2,75586, Note_on_c, 0, 50, 45
2,75588, Control_c, 0, 64, 57
2,75604, Control_c, 0, 64, 61
2,75619, Control_c, 0, 64, 64
2,75624, Note_on_c, 0, 70, 0
2,75635, Control_c, 0, 64, 66
2,75650, Control_c, 0, 64, 70
2,75664, Control_c, 0, 64, 74
2,75680, Control_c, 0, 64, 78
2,75695, Control_c, 0, 64, 83
2,75710, Control_c, 0, 64, 86
2,75726, Control_c, 0, 64, 87
2,75741, Control_c, 0, 64, 88
2,75796, Note_on_c, 0, 69, 63
2,75808, Note_on_c, 0, 49, 45
2,75832, Control_c, 0, 64, 87
2,75847, Note_on_c, 0, 50, 0
2,75848, Control_c, 0, 64, 85
2,75863, Control_c, 0, 64, 82
2,75878, Control_c, 0, 64, 79
2,75900, Control_c, 0, 64, 75
2,75916, Control_c, 0, 64, 71
2,75930, Control_c, 0, 64, 68
2,75945, Control_c, 0, 64, 64
2,75961, Control_c, 0, 64, 54
2,75976, Control_c, 0, 64, 26
2,75991, Control_c, 0, 64, 0
2,76008, Note_on_c, 0, 49, 0
2,76028, Note_on_c, 0, 52, 51
2,76254, Note_on_c, 0, 65, 72
2,76275, Note_on_c, 0, 50, 44
2,76275, Note_on_c, 0, 52, 0
2,76300, Note_on_c, 0, 67, 0
2,76438, Note_on_c, 0, 50, 0
2,76461, Note_on_c, 0, 64, 79
2,76473, Note_on_c, 0, 48, 44
2,76521, Note_on_c, 0, 65, 0
2,76699, Note_on_c, 0, 62, 72
2,76709, Note_on_c, 0, 47, 44
2,76731, Note_on_c, 0, 48, 0
2,76739, Note_on_c, 0, 64, 0
2,76908, Note_on_c, 0, 65, 71
2,77124, Note_on_c, 0, 62, 0
2,77132, Note_on_c, 0, 64, 68
2,77134, Note_on_c, 0, 46, 39
2,77138, Note_on_c, 0, 67, 58
2,77164, Note_on_c, 0, 47, 0
2,77168, Note_on_c, 0, 65, 0
2,77180, Note_on_c, 0, 69, 0
2,77347, Note_on_c, 0, 64, 0
2,77351, Note_on_c, 0, 62, 75
2,77551, Note_on_c, 0, 46, 0
2,77579, Note_on_c, 0, 61, 71
2,77603, Note_on_c, 0, 45, 31
2,77624, Note_on_c, 0, 62, 0
2,77775, Note_on_c, 0, 45, 0
2,77805, Note_on_c, 0, 57, 44
2,78007, Note_on_c, 0, 62, 70
2,78016, Note_on_c, 0, 65, 53
2,78023, Note_on_c, 0, 57, 0
2,78033, Note_on_c, 0, 58, 37
2,78059, Note_on_c, 0, 61, 0
2,78227, Note_on_c, 0, 58, 0
2,78266, Note_on_c, 0, 57, 15
2,78456, Note_on_c, 0, 67, 0
2,78462, Note_on_c, 0, 64, 55
2,78480, Note_on_c, 0, 55, 28
2,78484, Note_on_c, 0, 65, 0
2,78492, Note_on_c, 0, 57, 0
2,78694, Note_on_c, 0, 58, 28
2,78703, Note_on_c, 0, 55, 0
2,78901, Note_on_c, 0, 58, 0
2,78916, Note_on_c, 0, 61, 55
2,78936, Note_on_c, 0, 57, 36
2,78948, Note_on_c, 0, 62, 0
2,79134, Note_on_c, 0, 55, 43
2,79141, Note_on_c, 0, 57, 0
2,79354, Note_on_c, 0, 62, 54
2,79372, Note_on_c, 0, 53, 30
2,79389, Note_on_c, 0, 61, 0
2,79393, Note_on_c, 0, 55, 0
2,79471, Note_on_c, 0, 64, 0
2,79544, Note_on_c, 0, 53, 0
2,79567, Note_on_c, 0, 60, 54
2,79579, Note_on_c, 0, 57, 35
2,79777, Note_on_c, 0, 58, 54
2,79781, Note_on_c, 0, 55, 43
2,79788, Note_on_c, 0, 60, 0
2,79798, Note_on_c, 0, 57, 0
2,79951, Control_c, 0, 64, 21
2,79967, Control_c, 0, 64, 42
2,79970, Note_on_c, 0, 55, 0
2,79982, Control_c, 0, 64, 49
2,79988, Note_on_c, 0, 58, 0
2,79996, Note_on_c, 0, 57, 59
2,79997, Control_c, 0, 64, 54
2,80004, Note_on_c, 0, 53, 41
2,80013, Control_c, 0, 64, 58
2,80027, Control_c, 0, 64, 60
2,80043, Control_c, 0, 64, 62
2,80058, Control_c, 0, 64, 64
2,80073, Control_c, 0, 64, 65
2,80089, Control_c, 0, 64, 67
2,80103, Control_c, 0, 64, 68
2,80104, Note_on_c, 0, 57, 0
2,80118, Control_c, 0, 64, 68
2,80134, Control_c, 0, 64, 69
2,80150, Note_on_c, 0, 53, 0
2,80199, Note_on_c, 0, 52, 52
2,80206, Note_on_c, 0, 55, 64
2,80225, Control_c, 0, 64, 68
2,80240, Control_c, 0, 64, 68
2,80256, Control_c, 0, 64, 66
2,80258, Note_on_c, 0, 62, 0
2,80271, Control_c, 0, 64, 65
2,80287, Control_c, 0, 64, 63
2,80303, Control_c, 0, 64, 62
2,80317, Control_c, 0, 64, 59
2,80333, Control_c, 0, 64, 56
2,80348, Control_c, 0, 64, 51
2,80364, Control_c, 0, 64, 42
2,80378, Control_c, 0, 64, 25
2,80393, Control_c, 0, 64, 0
2,80405, Note_on_c, 0, 50, 49
2,80405, Note_on_c, 0, 58, 66
2,80444, Note_on_c, 0, 55, 0
2,80451, Note_on_c, 0, 52, 0
2,80621, Note_on_c, 0, 49, 53
2,80630, Note_on_c, 0, 57, 67
2,80651, Note_on_c, 0, 50, 0
2,80679, Note_on_c, 0, 58, 0
2,80832, Note_on_c, 0, 55, 74
2,80832, Note_on_c, 0, 57, 0
2,80836, Note_on_c, 0, 52, 55
2,80838, Note_on_c, 0, 49, 0
2,81040, Note_on_c, 0, 53, 68
2,81050, Note_on_c, 0, 50, 55
2,81064, Note_on_c, 0, 55, 0
2,81068, Note_on_c, 0, 52, 0
2,81246, Note_on_c, 0, 57, 69
2,81248, Note_on_c, 0, 50, 0
2,81277, Note_on_c, 0, 48, 61
2,81290, Note_on_c, 0, 53, 0
2,81472, Note_on_c, 0, 46, 66
2,81474, Note_on_c, 0, 55, 74
2,81515, Note_on_c, 0, 57, 0
2,81525, Note_on_c, 0, 48, 0
2,81674, Note_on_c, 0, 45, 68
2,81679, Note_on_c, 0, 53, 74
2,81702, Note_on_c, 0, 46, 0
2,81732, Note_on_c, 0, 55, 0
2,81902, Note_on_c, 0, 43, 65
2,81905, Note_on_c, 0, 53, 0
2,81908, Note_on_c, 0, 52, 70
2,81948, Note_on_c, 0, 45, 0
2,82128, Note_on_c, 0, 50, 71
2,82129, Note_on_c, 0, 46, 69
2,82160, Note_on_c, 0, 52, 0
2,82167, Note_on_c, 0, 43, 0
2,82333, Note_on_c, 0, 49, 72
2,82342, Note_on_c, 0, 45, 69
2,82357, Note_on_c, 0, 46, 0
2,82366, Note_on_c, 0, 50, 0
2,82543, Note_on_c, 0, 52, 74
2,82544, Note_on_c, 0, 43, 69
2,82559, Note_on_c, 0, 49, 0
2,82579, Note_on_c, 0, 45, 0
2,82768, Note_on_c, 0, 41, 65
2,82774, Note_on_c, 0, 50, 71
2,82774, Note_on_c, 0, 52, 0
2,82795, Note_on_c, 0, 43, 0
2,82915, Note_on_c, 0, 52, 73
2,82936, Note_on_c, 0, 50, 0
2,82955, Note_on_c, 0, 41, 0
2,83052, Note_on_c, 0, 53, 75
2,83184, Note_on_c, 0, 52, 0
2,83189, Note_on_c, 0, 46, 71
2,83197, Note_on_c, 0, 55, 71
2,83200, Note_on_c, 0, 53, 0
2,83331, Note_on_c, 0, 53, 69
2,83352, Note_on_c, 0, 55, 0
2,83384, Note_on_c, 0, 46, 0
2,83468, Note_on_c, 0, 52, 73
2,83475, Note_on_c, 0, 53, 0
2,83626, Note_on_c, 0, 52, 0
2,83633, Note_on_c, 0, 53, 71
2,83638, Note_on_c, 0, 45, 56
2,83767, Note_on_c, 0, 55, 75
2,83768, Note_on_c, 0, 43, 65
2,83771, Note_on_c, 0, 53, 0
2,83773, Note_on_c, 0, 45, 0
2,83897, Note_on_c, 0, 41, 66
2,83899, Note_on_c, 0, 57, 76
2,83933, Note_on_c, 0, 55, 0
2,83935, Note_on_c, 0, 43, 0
2,84036, Note_on_c, 0, 58, 71
2,84043, Note_on_c, 0, 40, 62
2,84049, Note_on_c, 0, 41, 0
2,84049, Note_on_c, 0, 57, 0
2,84169, Note_on_c, 0, 57, 72
2,84170, Note_on_c, 0, 41, 65
2,84189, Note_on_c, 0, 40, 0
2,84189, Note_on_c, 0, 58, 0
2,84217, Control_c, 0, 64, 32
2,84232, Control_c, 0, 64, 50
2,84248, Control_c, 0, 64, 58
2,84262, Control_c, 0, 64, 62
2,84277, Control_c, 0, 64, 65
2,84293, Control_c, 0, 64, 68
2,84295, Note_on_c, 0, 55, 72
2,84297, Note_on_c, 0, 43, 66
2,84302, Note_on_c, 0, 41, 0
2,84303, Note_on_c, 0, 57, 0
2,84308, Control_c, 0, 64, 73
2,84324, Control_c, 0, 64, 77
2,84329, Note_on_c, 0, 55, 0
2,84346, Control_c, 0, 64, 80
2,84362, Control_c, 0, 64, 83
2,84414, Note_on_c, 0, 43, 0
2,84438, Control_c, 0, 64, 82
2,84450, Note_on_c, 0, 41, 64
2,84452, Note_on_c, 0, 57, 56
2,84454, Control_c, 0, 64, 81
2,84462, Note_on_c, 0, 62, 72
2,84469, Control_c, 0, 64, 79
2,84484, Control_c, 0, 64, 75
2,84499, Control_c, 0, 64, 70
2,84514, Control_c, 0, 64, 65
2,84530, Control_c, 0, 64, 60
2,84545, Control_c, 0, 64, 46
2,84559, Control_c, 0, 64, 0
2,84581, Note_on_c, 0, 41, 0
2,84594, Note_on_c, 0, 40, 56
2,84595, Note_on_c, 0, 64, 76
2,84633, Note_on_c, 0, 62, 0
2,84709, Note_on_c, 0, 38, 55
2,84713, Note_on_c, 0, 40, 0
2,84717, Note_on_c, 0, 65, 76
2,84756, Note_on_c, 0, 64, 0
2,84844, Note_on_c, 0, 38, 0
2,84854, Note_on_c, 0, 67, 80
2,84857, Note_on_c, 0, 37, 61
2,84871, Note_on_c, 0, 65, 0
2,84980, Note_on_c, 0, 37, 0
2,84985, Note_on_c, 0, 65, 75
2,84988, Note_on_c, 0, 38, 50
2,85058, Note_on_c, 0, 67, 0
2,85120, Note_on_c, 0, 38, 0
2,85125, Note_on_c, 0, 40, 61
2,85136, Note_on_c, 0, 64, 80
2,85149, Note_on_c, 0, 65, 0
2,85180, Note_on_c, 0, 57, 0
2,85249, Note_on_c, 0, 40, 0
2,85282, Note_on_c, 0, 38, 51
2,85285, Note_on_c, 0, 65, 75
2,85300, Note_on_c, 0, 64, 0
2,85312, Control_c, 0, 64, 44
2,85328, Control_c, 0, 64, 58
2,85333, Note_on_c, 0, 38, 0
2,85343, Control_c, 0, 64, 63
2,85358, Control_c, 0, 64, 67
2,85365, Note_on_c, 0, 65, 0
2,85373, Control_c, 0, 64, 71
2,85388, Control_c, 0, 64, 77
2,85404, Control_c, 0, 64, 81
2,85419, Control_c, 0, 64, 84
2,85422, Note_on_c, 0, 67, 89
2,85443, Note_on_c, 0, 55, 72
2,85495, Control_c, 0, 64, 82
2,85510, Control_c, 0, 64, 79
2,85526, Control_c, 0, 64, 74
2,85540, Control_c, 0, 64, 69
2,85552, Note_on_c, 0, 55, 0
2,85555, Control_c, 0, 64, 65
2,85559, Note_on_c, 0, 69, 84
2,85568, Note_on_c, 0, 53, 68
2,85570, Control_c, 0, 64, 58
2,85582, Note_on_c, 0, 67, 0
2,85585, Control_c, 0, 64, 43
2,85600, Control_c, 0, 64, 0
2,85695, Note_on_c, 0, 53, 0
2,85701, Note_on_c, 0, 52, 64
2,85705, Note_on_c, 0, 70, 85
2,85725, Note_on_c, 0, 69, 0
2,85833, Note_on_c, 0, 69, 88
2,85837, Note_on_c, 0, 53, 66
2,85860, Note_on_c, 0, 52, 0
2,85879, Note_on_c, 0, 70, 0
2,85966, Note_on_c, 0, 53, 0
2,85971, Note_on_c, 0, 55, 62
2,85973, Note_on_c, 0, 69, 0
2,85976, Note_on_c, 0, 67, 86
2,86147, Note_on_c, 0, 69, 81
2,86149, Note_on_c, 0, 53, 70
2,86149, Note_on_c, 0, 55, 0
2,86191, Note_on_c, 0, 67, 0
2,86233, Note_on_c, 0, 53, 0
2,86431, Note_on_c, 0, 40, 82
2,86521, Note_on_c, 0, 69, 0
2,86675, Note_on_c, 0, 74, 88
2,86691, Note_on_c, 0, 65, 74
2,86696, Note_on_c, 0, 41, 79
2,86759, Note_on_c, 0, 40, 0
2,86910, Note_on_c, 0, 43, 88
2,86959, Note_on_c, 0, 65, 0
2,86982, Note_on_c, 0, 41, 0
2,87130, Note_on_c, 0, 73, 87
2,87140, Note_on_c, 0, 45, 80
2,87142, Note_on_c, 0, 64, 73
2,87194, Note_on_c, 0, 74, 0
2,87205, Note_on_c, 0, 43, 0
2,87354, Note_on_c, 0, 47, 84
2,87379, Note_on_c, 0, 45, 0
2,87575, Note_on_c, 0, 48, 80
2,87578, Note_on_c, 0, 69, 50
2,87580, Note_on_c, 0, 64, 0
2,87590, Note_on_c, 0, 72, 91
2,87596, Note_on_c, 0, 73, 0
2,87631, Note_on_c, 0, 47, 0
2,87803, Note_on_c, 0, 45, 80
2,87828, Control_c, 0, 64, 42
2,87838, Note_on_c, 0, 48, 0
2,87842, Control_c, 0, 64, 53
2,87858, Control_c, 0, 64, 59
2,87873, Control_c, 0, 64, 62
2,87889, Control_c, 0, 64, 64
2,87901, Note_on_c, 0, 72, 0
2,87903, Control_c, 0, 64, 66
2,87918, Control_c, 0, 64, 68
2,87934, Control_c, 0, 64, 69
2,87949, Control_c, 0, 64, 69
2,88025, Control_c, 0, 64, 69
2,88028, Note_on_c, 0, 71, 87
2,88036, Note_on_c, 0, 50, 77
2,88040, Control_c, 0, 64, 68
2,88055, Control_c, 0, 64, 67
2,88070, Control_c, 0, 64, 65
2,88085, Control_c, 0, 64, 63
2,88100, Control_c, 0, 64, 59
2,88106, Note_on_c, 0, 45, 0
2,88115, Control_c, 0, 64, 55
2,88131, Control_c, 0, 64, 48
2,88146, Control_c, 0, 64, 38
2,88161, Control_c, 0, 64, 22
2,88184, Control_c, 0, 64, 0
2,88271, Note_on_c, 0, 49, 84
2,88322, Note_on_c, 0, 50, 0
2,88495, Note_on_c, 0, 50, 86
2,88496, Note_on_c, 0, 70, 79
2,88551, Note_on_c, 0, 49, 0
2,88576, Note_on_c, 0, 71, 0
2,88732, Note_on_c, 0, 52, 81
2,88732, Note_on_c, 0, 67, 83
2,88791, Note_on_c, 0, 69, 0
2,88798, Note_on_c, 0, 50, 0
2,88811, Note_on_c, 0, 70, 0
2,88995, Note_on_c, 0, 53, 76
2,88998, Note_on_c, 0, 69, 72
2,89070, Note_on_c, 0, 52, 0
2,89241, Note_on_c, 0, 47, 74
2,89251, Note_on_c, 0, 65, 78
2,89324, Note_on_c, 0, 67, 0
2,89325, Note_on_c, 0, 69, 0
2,89487, Note_on_c, 0, 52, 72
2,89492, Note_on_c, 0, 67, 79
2,89527, Note_on_c, 0, 65, 0
2,89586, Note_on_c, 0, 47, 0
2,89592, Note_on_c, 0, 53, 0
2,89736, Note_on_c, 0, 50, 76
2,89740, Note_on_c, 0, 65, 81
2,89811, Note_on_c, 0, 67, 0
2,89826, Note_on_c, 0, 52, 0
2,89993, Note_on_c, 0, 49, 66
2,89998, Note_on_c, 0, 64, 82
2,90050, Note_on_c, 0, 50, 0
2,90058, Note_on_c, 0, 65, 0
2,90271, Note_on_c, 0, 67, 71
2,90275, Note_on_c, 0, 45, 74
2,90334, Note_on_c, 0, 64, 0
2,90370, Note_on_c, 0, 49, 0
2,90581, Note_on_c, 0, 62, 72
2,90585, Note_on_c, 0, 50, 65
2,90585, Note_on_c, 0, 65, 55
2,90632, Note_on_c, 0, 67, 0
2,90691, Note_on_c, 0, 45, 0
2,90905, Note_on_c, 0, 65, 0
2,90906, Note_on_c, 0, 55, 62
2,90911, Note_on_c, 0, 64, 64
2,90998, Note_on_c, 0, 50, 0
2,91245, Note_on_c, 0, 64, 0
2,91301, Note_on_c, 0, 55, 0
2,91303, Note_on_c, 0, 65, 53
2,91327, Note_on_c, 0, 57, 50
2,91342, Note_on_c, 0, 65, 0
2,91373, Note_on_c, 0, 64, 55
2,91379, Note_on_c, 0, 62, 0
2,91396, Note_on_c, 0, 64, 0
2,91415, Note_on_c, 0, 65, 66
2,91440, Note_on_c, 0, 65, 0
2,91468, Note_on_c, 0, 64, 59
2,91500, Note_on_c, 0, 64, 0
2,91507, Note_on_c, 0, 65, 71
2,91580, Note_on_c, 0, 64, 69
2,91583, Note_on_c, 0, 65, 0
2,91639, Note_on_c, 0, 62, 3
2,91813, Note_on_c, 0, 62, 0
2,91992, Note_on_c, 0, 61, 62
2,91999, Note_on_c, 0, 45, 35
2,92087, Note_on_c, 0, 64, 0
2,92167, Note_on_c, 0, 57, 0
2,92362, Control_c, 0, 67, 14
2,92377, Control_c, 0, 67, 28
2,92392, Control_c, 0, 67, 38
2,92407, Control_c, 0, 67, 49
2,92408, Note_on_c, 0, 45, 0
2,92422, Control_c, 0, 67, 59
2,92438, Control_c, 0, 67, 69
2,92453, Control_c, 0, 67, 76
2,92467, Control_c, 0, 67, 83
2,92481, Note_on_c, 0, 62, 45
2,92483, Control_c, 0, 67, 90
2,92498, Control_c, 0, 67, 96
2,92513, Control_c, 0, 67, 101
2,92529, Control_c, 0, 67, 105
2,92544, Control_c, 0, 67, 109
2,92560, Control_c, 0, 67, 112
2,92575, Control_c, 0, 67, 115
2,92590, Control_c, 0, 67, 118
2,92606, Control_c, 0, 67, 118
2,92621, Control_c, 0, 67, 119
2,92651, Control_c, 0, 67, 119
2,92666, Control_c, 0, 67, 120
2,92728, Control_c, 0, 67, 120
2,92739, Note_on_c, 0, 62, 0
2,93341, Note_on_c, 0, 62, 44
2,93381, Note_on_c, 0, 38, 11
2,93419, Control_c, 0, 67, 120
2,93495, Control_c, 0, 67, 119
2,93510, Control_c, 0, 67, 119
2,93591, Note_on_c, 0, 61, 0
2,93609, Control_c, 0, 67, 118
2,93685, Control_c, 0, 67, 118
2,93776, Control_c, 0, 67, 117
2,94187, Control_c, 0, 67, 116
2,94203, Control_c, 0, 67, 116
2,94218, Control_c, 0, 67, 115
2,94249, Control_c, 0, 67, 114
2,94264, Control_c, 0, 67, 113
2,94280, Control_c, 0, 67, 112
2,94295, Control_c, 0, 67, 112
2,94310, Control_c, 0, 67, 111
2,94347, Control_c, 0, 67, 111
2,94363, Control_c, 0, 67, 109
2,94378, Control_c, 0, 67, 108
2,94393, Control_c, 0, 67, 108
2,94440, Control_c, 0, 67, 107
2,94455, Control_c, 0, 67, 106
2,94469, Control_c, 0, 67, 104
2,94500, Control_c, 0, 67, 104
2,94516, Control_c, 0, 67, 103
2,94531, Control_c, 0, 67, 102
2,94545, Control_c, 0, 67, 101
2,94561, Control_c, 0, 67, 100
2,94606, Control_c, 0, 67, 100
2,94621, Control_c, 0, 67, 98
2,94637, Control_c, 0, 67, 97
2,94652, Control_c, 0, 67, 95
2,94666, Control_c, 0, 67, 93
2,94682, Control_c, 0, 67, 90
2,94697, Control_c, 0, 67, 87
2,94712, Control_c, 0, 67, 84
2,94728, Control_c, 0, 67, 83
2,94742, Control_c, 0, 67, 80
2,94758, Control_c, 0, 67, 77
2,94773, Control_c, 0, 67, 74
2,94788, Control_c, 0, 67, 69
2,94804, Control_c, 0, 67, 66
2,94819, Control_c, 0, 67, 63
2,94833, Control_c, 0, 67, 62
2,94849, Control_c, 0, 67, 59
2,94864, Control_c, 0, 67, 52
2,94880, Control_c, 0, 67, 45
2,94895, Control_c, 0, 67, 38
2,94910, Control_c, 0, 67, 32
2,94926, Control_c, 0, 67, 26
2,94940, Control_c, 0, 67, 21
2,94956, Control_c, 0, 67, 17
2,94971, Control_c, 0, 67, 11
2,94986, Control_c, 0, 67, 0
2,95617, Note_on_c, 0, 38, 0
2,95631, Note_on_c, 0, 62, 0
2,95632, End_track
0, 0, End_of_file
