0, 0, Header, 1, 2, 384
1, 0, Start_track
1, 0, Tempo, 500000
1, 0, Time_signature, 4, 2, 24, 8
1, 1, End_track
2, 0, Start_track
2, 0, Title_t," ""7.7.13 Group 1"""
2, 0, Program_c, 0, 0
2, 0, Control_c, 0, 64, 0
2, 0, Control_c, 0, 66, 0
2, 0, Control_c, 0, 67, 0
2, 768, Note_on_c, 0, 74, 92
2, 769, Note_on_c, 0, 50, 69
2, 794, Note_on_c, 0, 49, 82
2, 799, Note_on_c, 0, 50, 0
2, 851, Note_on_c, 0, 49, 0
2, 857, Note_on_c, 0, 50, 79
2, 882, Note_on_c, 0, 74, 0
2, 970, Note_on_c, 0, 50, 0
2, 972, Note_on_c, 0, 72, 82
2, 1029, Note_on_c, 0, 72, 0
2, 1044, Note_on_c, 0, 70, 79
2, 1101, Note_on_c, 0, 70, 0
2, 1138, Note_on_c, 0, 69, 77
2, 1151, Note_on_c, 0, 38, 62
2, 1176, Note_on_c, 0, 69, 0
2, 1227, Note_on_c, 0, 67, 81
2, 1258, Note_on_c, 0, 67, 0
2, 1322, Note_on_c, 0, 65, 76
2, 1371, Note_on_c, 0, 65, 0
2, 1390, Note_on_c, 0, 38, 0
2, 1404, Note_on_c, 0, 64, 77
2, 1442, Note_on_c, 0, 64, 0
2, 1506, Note_on_c, 0, 62, 74
2, 1538, Note_on_c, 0, 62, 0
2, 1589, Note_on_c, 0, 65, 65
2, 1640, Note_on_c, 0, 65, 0
2, 1680, Note_on_c, 0, 64, 65
2, 1711, Note_on_c, 0, 64, 0
2, 1761, Note_on_c, 0, 62, 60
2, 1799, Note_on_c, 0, 62, 0
2, 1839, Note_on_c, 0, 70, 80
2, 1903, Note_on_c, 0, 70, 0
2, 1926, Note_on_c, 0, 67, 74
2, 1979, Note_on_c, 0, 67, 0
2, 2023, Note_on_c, 0, 38, 74
2, 2032, Note_on_c, 0, 62, 62
2, 2049, Note_on_c, 0, 38, 0
2, 2068, Note_on_c, 0, 62, 0
2, 2108, Note_on_c, 0, 67, 69
2, 2147, Note_on_c, 0, 67, 0
2, 2194, Note_on_c, 0, 43, 85
2, 2195, Note_on_c, 0, 70, 70
2, 2223, Note_on_c, 0, 43, 0
2, 2251, Note_on_c, 0, 70, 0
2, 2291, Note_on_c, 0, 67, 66
2, 2350, Note_on_c, 0, 67, 0
2, 2378, Note_on_c, 0, 46, 85
2, 2388, Note_on_c, 0, 62, 66
2, 2405, Note_on_c, 0, 46, 0
2, 2426, Note_on_c, 0, 62, 0
2, 2478, Note_on_c, 0, 67, 60
2, 2516, Note_on_c, 0, 67, 0
2, 2551, Note_on_c, 0, 50, 78
2, 2566, Note_on_c, 0, 70, 66
2, 2575, Note_on_c, 0, 49, 83
2, 2581, Note_on_c, 0, 50, 0
2, 2612, Note_on_c, 0, 49, 0
2, 2628, Note_on_c, 0, 50, 94
2, 2637, Note_on_c, 0, 70, 0
2, 2651, Note_on_c, 0, 67, 63
2, 2692, Note_on_c, 0, 67, 0
2, 2737, Note_on_c, 0, 62, 59
2, 2783, Note_on_c, 0, 62, 0
2, 2813, Note_on_c, 0, 67, 67
2, 2838, Note_on_c, 0, 67, 0
2, 2887, Note_on_c, 0, 50, 0
2, 2895, Note_on_c, 0, 69, 77
2, 2971, Note_on_c, 0, 69, 0
2, 2983, Note_on_c, 0, 67, 61
2, 3045, Note_on_c, 0, 67, 0
2, 3094, Note_on_c, 0, 62, 65
2, 3096, Note_on_c, 0, 38, 64
2, 3124, Note_on_c, 0, 62, 0
2, 3130, Note_on_c, 0, 38, 0
2, 3168, Note_on_c, 0, 67, 64
2, 3205, Note_on_c, 0, 67, 0
2, 3264, Note_on_c, 0, 69, 69
2, 3272, Note_on_c, 0, 41, 86
2, 3303, Note_on_c, 0, 41, 0
2, 3327, Note_on_c, 0, 69, 0
2, 3360, Note_on_c, 0, 65, 60
2, 3407, Note_on_c, 0, 65, 0
2, 3449, Note_on_c, 0, 45, 83
2, 3452, Note_on_c, 0, 62, 66
2, 3474, Note_on_c, 0, 45, 0
2, 3490, Note_on_c, 0, 62, 0
2, 3534, Note_on_c, 0, 65, 60
2, 3594, Note_on_c, 0, 65, 0
2, 3613, Note_on_c, 0, 50, 75
2, 3628, Note_on_c, 0, 69, 68
2, 3635, Note_on_c, 0, 49, 82
2, 3640, Note_on_c, 0, 50, 0
2, 3687, Note_on_c, 0, 49, 0
2, 3689, Note_on_c, 0, 50, 90
2, 3697, Note_on_c, 0, 69, 0
2, 3709, Note_on_c, 0, 65, 67
2, 3747, Note_on_c, 0, 65, 0
2, 3797, Note_on_c, 0, 62, 62
2, 3836, Note_on_c, 0, 62, 0
2, 3859, Note_on_c, 0, 65, 71
2, 3890, Note_on_c, 0, 65, 0
2, 3939, Note_on_c, 0, 50, 0
2, 3954, Note_on_c, 0, 67, 78
2, 4027, Note_on_c, 0, 67, 0
2, 4036, Note_on_c, 0, 64, 74
2, 4086, Note_on_c, 0, 64, 0
2, 4131, Note_on_c, 0, 62, 78
2, 4147, Note_on_c, 0, 58, 71
2, 4162, Note_on_c, 0, 62, 0
2, 4173, Note_on_c, 0, 58, 0
2, 4214, Note_on_c, 0, 64, 69
2, 4255, Note_on_c, 0, 64, 0
2, 4312, Note_on_c, 0, 67, 66
2, 4313, Note_on_c, 0, 52, 73
2, 4338, Note_on_c, 0, 52, 0
2, 4353, Note_on_c, 0, 67, 0
2, 4392, Note_on_c, 0, 64, 62
2, 4455, Note_on_c, 0, 64, 0
2, 4502, Note_on_c, 0, 61, 59
2, 4505, Note_on_c, 0, 55, 63
2, 4532, Note_on_c, 0, 55, 0
2, 4536, Note_on_c, 0, 61, 0
2, 4591, Note_on_c, 0, 64, 67
2, 4635, Note_on_c, 0, 64, 0
2, 4676, Note_on_c, 0, 49, 68
2, 4682, Note_on_c, 0, 67, 62
2, 4704, Note_on_c, 0, 49, 0
2, 4722, Note_on_c, 0, 67, 0
2, 4755, Note_on_c, 0, 64, 69
2, 4807, Note_on_c, 0, 64, 0
2, 4856, Note_on_c, 0, 61, 63
2, 4862, Note_on_c, 0, 57, 66
2, 4888, Note_on_c, 0, 57, 0
2, 4893, Note_on_c, 0, 61, 0
2, 4935, Note_on_c, 0, 64, 69
2, 4963, Note_on_c, 0, 64, 0
2, 5040, Note_on_c, 0, 65, 72
2, 5047, Note_on_c, 0, 50, 65
2, 5124, Note_on_c, 0, 62, 68
2, 5187, Note_on_c, 0, 62, 0
2, 5221, Note_on_c, 0, 60, 69
2, 5254, Note_on_c, 0, 60, 0
2, 5279, Note_on_c, 0, 50, 0
2, 5299, Note_on_c, 0, 58, 73
2, 5334, Note_on_c, 0, 58, 0
2, 5403, Note_on_c, 0, 57, 63
2, 5431, Note_on_c, 0, 57, 0
2, 5482, Note_on_c, 0, 55, 65
2, 5530, Note_on_c, 0, 55, 0
2, 5569, Note_on_c, 0, 53, 59
2, 5603, Note_on_c, 0, 65, 0
2, 5607, Note_on_c, 0, 53, 0
2, 5648, Note_on_c, 0, 52, 52
2, 5687, Note_on_c, 0, 52, 0
2, 5733, Note_on_c, 0, 50, 73
2, 5762, Note_on_c, 0, 50, 0
2, 5820, Note_on_c, 0, 53, 67
2, 5853, Note_on_c, 0, 53, 0
2, 5901, Note_on_c, 0, 52, 61
2, 5943, Note_on_c, 0, 52, 0
2, 5974, Note_on_c, 0, 50, 64
2, 6000, Note_on_c, 0, 50, 0
2, 6074, Note_on_c, 0, 58, 84
2, 6117, Note_on_c, 0, 58, 0
2, 6161, Note_on_c, 0, 55, 63
2, 6205, Note_on_c, 0, 55, 0
2, 6237, Note_on_c, 0, 50, 64
2, 6263, Note_on_c, 0, 62, 67
2, 6278, Note_on_c, 0, 50, 0
2, 6291, Note_on_c, 0, 62, 0
2, 6320, Note_on_c, 0, 55, 61
2, 6385, Note_on_c, 0, 55, 0
2, 6421, Note_on_c, 0, 67, 93
2, 6423, Note_on_c, 0, 58, 68
2, 6450, Note_on_c, 0, 67, 0
2, 6459, Note_on_c, 0, 58, 0
2, 6504, Note_on_c, 0, 55, 62
2, 6552, Note_on_c, 0, 55, 0
2, 6588, Note_on_c, 0, 70, 91
2, 6598, Note_on_c, 0, 50, 69
2, 6614, Note_on_c, 0, 70, 0
2, 6646, Note_on_c, 0, 50, 0
2, 6671, Note_on_c, 0, 55, 60
2, 6742, Note_on_c, 0, 55, 0
2, 6766, Note_on_c, 0, 74, 82
2, 6776, Note_on_c, 0, 58, 66
2, 6785, Note_on_c, 0, 73, 83
2, 6793, Note_on_c, 0, 74, 0
2, 6816, Note_on_c, 0, 58, 0
2, 6835, Note_on_c, 0, 73, 0
2, 6841, Note_on_c, 0, 74, 83
2, 6862, Note_on_c, 0, 55, 60
2, 6905, Note_on_c, 0, 55, 0
2, 6964, Note_on_c, 0, 50, 37
2, 7019, Note_on_c, 0, 50, 0
2, 7041, Note_on_c, 0, 55, 66
2, 7057, Note_on_c, 0, 74, 0
2, 7077, Note_on_c, 0, 55, 0
2, 7120, Note_on_c, 0, 57, 80
2, 7177, Note_on_c, 0, 57, 0
2, 7202, Note_on_c, 0, 55, 68
2, 7241, Note_on_c, 0, 55, 0
2, 7291, Note_on_c, 0, 62, 74
2, 7294, Note_on_c, 0, 50, 62
2, 7313, Note_on_c, 0, 62, 0
2, 7343, Note_on_c, 0, 50, 0
2, 7376, Note_on_c, 0, 55, 63
2, 7417, Note_on_c, 0, 55, 0
2, 7458, Note_on_c, 0, 65, 92
2, 7471, Note_on_c, 0, 57, 71
2, 7487, Note_on_c, 0, 65, 0
2, 7509, Note_on_c, 0, 57, 0
2, 7551, Note_on_c, 0, 53, 67
2, 7591, Note_on_c, 0, 53, 0
2, 7641, Note_on_c, 0, 69, 95
2, 7650, Note_on_c, 0, 50, 63
2, 7672, Note_on_c, 0, 69, 0
2, 7720, Note_on_c, 0, 50, 0
2, 7730, Note_on_c, 0, 53, 61
2, 7783, Note_on_c, 0, 53, 0
2, 7808, Note_on_c, 0, 74, 88
2, 7825, Note_on_c, 0, 57, 69
2, 7825, Note_on_c, 0, 73, 80
2, 7835, Note_on_c, 0, 74, 0
2, 7873, Note_on_c, 0, 57, 0
2, 7878, Note_on_c, 0, 74, 85
2, 7893, Note_on_c, 0, 53, 62
2, 7933, Note_on_c, 0, 73, 0
2, 7940, Note_on_c, 0, 53, 0
2, 7972, Note_on_c, 0, 50, 61
2, 8024, Note_on_c, 0, 50, 0
2, 8056, Note_on_c, 0, 53, 74
2, 8094, Note_on_c, 0, 53, 0
2, 8111, Note_on_c, 0, 74, 0
2, 8139, Note_on_c, 0, 55, 85
2, 8192, Note_on_c, 0, 55, 0
2, 8224, Note_on_c, 0, 52, 74
2, 8274, Note_on_c, 0, 52, 0
2, 8305, Note_on_c, 0, 50, 65
2, 8311, Note_on_c, 0, 67, 82
2, 8339, Note_on_c, 0, 67, 0
2, 8360, Note_on_c, 0, 50, 0
2, 8401, Note_on_c, 0, 52, 63
2, 8442, Note_on_c, 0, 52, 0
2, 8486, Note_on_c, 0, 73, 83
2, 8489, Note_on_c, 0, 55, 52
2, 8510, Note_on_c, 0, 73, 0
2, 8529, Note_on_c, 0, 55, 0
2, 8560, Note_on_c, 0, 52, 47
2, 8612, Note_on_c, 0, 52, 0
2, 8655, Note_on_c, 0, 49, 48
2, 8668, Note_on_c, 0, 76, 77
2, 8698, Note_on_c, 0, 49, 0
2, 8698, Note_on_c, 0, 76, 0
2, 8742, Note_on_c, 0, 52, 47
2, 8789, Note_on_c, 0, 52, 0
2, 8838, Note_on_c, 0, 73, 79
2, 8842, Note_on_c, 0, 55, 55
2, 8865, Note_on_c, 0, 73, 0
2, 8891, Note_on_c, 0, 55, 0
2, 8914, Note_on_c, 0, 52, 50
2, 8969, Note_on_c, 0, 52, 0
2, 9008, Note_on_c, 0, 49, 46
2, 9017, Note_on_c, 0, 69, 67
2, 9043, Note_on_c, 0, 69, 0
2, 9055, Note_on_c, 0, 49, 0
2, 9083, Note_on_c, 0, 52, 52
2, 9125, Note_on_c, 0, 52, 0
2, 9191, Note_on_c, 0, 53, 55
2, 9210, Note_on_c, 0, 74, 74
2, 9223, Note_on_c, 0, 53, 0
2, 9264, Note_on_c, 0, 50, 64
2, 9312, Note_on_c, 0, 50, 0
2, 9352, Note_on_c, 0, 52, 54
2, 9376, Note_on_c, 0, 74, 0
2, 9377, Note_on_c, 0, 72, 78
2, 9421, Note_on_c, 0, 52, 0
2, 9441, Note_on_c, 0, 53, 62
2, 9441, Note_on_c, 0, 72, 0
2, 9455, Note_on_c, 0, 70, 76
2, 9488, Note_on_c, 0, 53, 0
2, 9510, Note_on_c, 0, 70, 0
2, 9527, Note_on_c, 0, 55, 70
2, 9533, Note_on_c, 0, 69, 81
2, 9559, Note_on_c, 0, 55, 0
2, 9576, Note_on_c, 0, 69, 0
2, 9614, Note_on_c, 0, 67, 82
2, 9616, Note_on_c, 0, 57, 64
2, 9644, Note_on_c, 0, 67, 0
2, 9654, Note_on_c, 0, 57, 0
2, 9690, Note_on_c, 0, 59, 63
2, 9692, Note_on_c, 0, 65, 78
2, 9749, Note_on_c, 0, 59, 0
2, 9759, Note_on_c, 0, 65, 0
2, 9770, Note_on_c, 0, 64, 84
2, 9776, Note_on_c, 0, 61, 73
2, 9826, Note_on_c, 0, 64, 0
2, 9833, Note_on_c, 0, 61, 0
2, 9853, Note_on_c, 0, 65, 79
2, 9872, Note_on_c, 0, 62, 67
2, 9877, Note_on_c, 0, 65, 0
2, 9904, Note_on_c, 0, 62, 0
2, 9973, Note_on_c, 0, 60, 65
2, 10025, Note_on_c, 0, 60, 0
2, 10041, Note_on_c, 0, 69, 77
2, 10062, Note_on_c, 0, 59, 46
2, 10103, Note_on_c, 0, 59, 0
2, 10143, Note_on_c, 0, 57, 59
2, 10188, Note_on_c, 0, 57, 0
2, 10219, Note_on_c, 0, 59, 63
2, 10251, Note_on_c, 0, 69, 0
2, 10272, Note_on_c, 0, 59, 0
2, 10289, Note_on_c, 0, 67, 74
2, 10305, Note_on_c, 0, 60, 71
2, 10337, Note_on_c, 0, 67, 0
2, 10370, Note_on_c, 0, 69, 79
2, 10375, Note_on_c, 0, 60, 0
2, 10391, Note_on_c, 0, 59, 60
2, 10419, Note_on_c, 0, 69, 0
2, 10434, Note_on_c, 0, 59, 0
2, 10447, Note_on_c, 0, 71, 85
2, 10461, Note_on_c, 0, 57, 63
2, 10491, Note_on_c, 0, 57, 0
2, 10511, Note_on_c, 0, 71, 0
2, 10537, Note_on_c, 0, 72, 85
2, 10545, Note_on_c, 0, 55, 73
2, 10584, Note_on_c, 0, 72, 0
2, 10590, Note_on_c, 0, 55, 0
2, 10619, Note_on_c, 0, 53, 72
2, 10620, Note_on_c, 0, 74, 85
2, 10679, Note_on_c, 0, 53, 0
2, 10683, Note_on_c, 0, 74, 0
2, 10695, Note_on_c, 0, 52, 70
2, 10712, Note_on_c, 0, 76, 87
2, 10758, Note_on_c, 0, 52, 0
2, 10769, Note_on_c, 0, 50, 68
2, 10784, Note_on_c, 0, 76, 0
2, 10789, Note_on_c, 0, 77, 82
2, 10851, Note_on_c, 0, 50, 0
2, 10869, Note_on_c, 0, 77, 0
2, 10873, Note_on_c, 0, 52, 83
2, 10874, Note_on_c, 0, 79, 83
2, 10899, Note_on_c, 0, 52, 0
2, 10938, Note_on_c, 0, 79, 0
2, 10955, Note_on_c, 0, 77, 82
2, 11037, Note_on_c, 0, 77, 0
2, 11056, Note_on_c, 0, 55, 76
2, 11058, Note_on_c, 0, 76, 76
2, 11082, Note_on_c, 0, 55, 0
2, 11116, Note_on_c, 0, 76, 0
2, 11137, Note_on_c, 0, 74, 76
2, 11207, Note_on_c, 0, 74, 0
2, 11238, Note_on_c, 0, 48, 81
2, 11241, Note_on_c, 0, 76, 80
2, 11282, Control_c, 0, 64, 33
2, 11293, Note_on_c, 0, 76, 0
2, 11297, Control_c, 0, 64, 50
2, 11313, Control_c, 0, 64, 57
2, 11324, Note_on_c, 0, 72, 74
2, 11327, Control_c, 0, 64, 61
2, 11342, Control_c, 0, 64, 64
2, 11358, Control_c, 0, 64, 65
2, 11373, Control_c, 0, 64, 66
2, 11374, Note_on_c, 0, 72, 0
2, 11383, Note_on_c, 0, 48, 0
2, 11403, Control_c, 0, 64, 66
2, 11415, Note_on_c, 0, 71, 81
2, 11418, Control_c, 0, 64, 64
2, 11431, Note_on_c, 0, 50, 70
2, 11434, Control_c, 0, 64, 61
2, 11449, Control_c, 0, 64, 55
2, 11468, Note_on_c, 0, 71, 0
2, 11469, Note_on_c, 0, 50, 0
2, 11472, Control_c, 0, 64, 44
2, 11487, Control_c, 0, 64, 0
2, 11497, Note_on_c, 0, 69, 77
2, 11508, Note_on_c, 0, 52, 68
2, 11560, Note_on_c, 0, 52, 0
2, 11572, Note_on_c, 0, 69, 0
2, 11586, Note_on_c, 0, 67, 80
2, 11594, Note_on_c, 0, 53, 70
2, 11632, Note_on_c, 0, 53, 0
2, 11633, Note_on_c, 0, 67, 0
2, 11669, Note_on_c, 0, 55, 70
2, 11669, Note_on_c, 0, 65, 73
2, 11698, Note_on_c, 0, 55, 0
2, 11705, Note_on_c, 0, 65, 0
2, 11753, Note_on_c, 0, 57, 61
2, 11754, Note_on_c, 0, 64, 76
2, 11795, Note_on_c, 0, 57, 0
2, 11806, Note_on_c, 0, 64, 0
2, 11825, Note_on_c, 0, 59, 71
2, 11834, Note_on_c, 0, 62, 76
2, 11862, Note_on_c, 0, 59, 0
2, 11894, Note_on_c, 0, 62, 0
2, 11920, Note_on_c, 0, 60, 66
2, 11922, Note_on_c, 0, 64, 80
2, 11946, Note_on_c, 0, 64, 0
2, 11959, Note_on_c, 0, 60, 0
2, 11996, Note_on_c, 0, 58, 68
2, 12026, Note_on_c, 0, 58, 0
2, 12100, Note_on_c, 0, 57, 49
2, 12102, Note_on_c, 0, 67, 84
2, 12152, Note_on_c, 0, 57, 0
2, 12176, Note_on_c, 0, 55, 60
2, 12238, Note_on_c, 0, 55, 0
2, 12270, Note_on_c, 0, 57, 65
2, 12319, Note_on_c, 0, 57, 0
2, 12324, Note_on_c, 0, 67, 0
2, 12356, Note_on_c, 0, 65, 72
2, 12360, Note_on_c, 0, 58, 72
2, 12394, Note_on_c, 0, 65, 0
2, 12420, Note_on_c, 0, 58, 0
2, 12437, Note_on_c, 0, 67, 80
2, 12448, Note_on_c, 0, 57, 48
2, 12498, Note_on_c, 0, 57, 0
2, 12501, Note_on_c, 0, 67, 0
2, 12518, Note_on_c, 0, 69, 76
2, 12522, Note_on_c, 0, 55, 63
2, 12551, Note_on_c, 0, 55, 0
2, 12597, Note_on_c, 0, 69, 0
2, 12600, Note_on_c, 0, 70, 81
2, 12610, Note_on_c, 0, 53, 73
2, 12651, Note_on_c, 0, 70, 0
2, 12666, Note_on_c, 0, 53, 0
2, 12683, Note_on_c, 0, 51, 76
2, 12695, Note_on_c, 0, 72, 81
2, 12739, Note_on_c, 0, 51, 0
2, 12766, Note_on_c, 0, 72, 0
2, 12767, Note_on_c, 0, 50, 71
2, 12775, Note_on_c, 0, 74, 82
2, 12825, Note_on_c, 0, 50, 0
2, 12836, Note_on_c, 0, 48, 68
2, 12844, Note_on_c, 0, 74, 0
2, 12850, Note_on_c, 0, 75, 88
2, 12908, Note_on_c, 0, 48, 0
2, 12917, Note_on_c, 0, 75, 0
2, 12936, Note_on_c, 0, 50, 82
2, 12941, Note_on_c, 0, 77, 67
2, 12962, Note_on_c, 0, 50, 0
2, 12962, Note_on_c, 0, 76, 49
2, 12999, Note_on_c, 0, 76, 0
2, 13026, Note_on_c, 0, 77, 0
2, 13029, Note_on_c, 0, 75, 83
2, 13102, Note_on_c, 0, 75, 0
2, 13124, Note_on_c, 0, 74, 77
2, 13127, Note_on_c, 0, 53, 68
2, 13156, Note_on_c, 0, 53, 0
2, 13164, Note_on_c, 0, 74, 0
2, 13218, Note_on_c, 0, 72, 71
2, 13256, Note_on_c, 0, 72, 0
2, 13303, Note_on_c, 0, 46, 70
2, 13304, Note_on_c, 0, 74, 80
2, 13328, Control_c, 0, 64, 49
2, 13332, Note_on_c, 0, 46, 0
2, 13343, Control_c, 0, 64, 61
2, 13351, Note_on_c, 0, 74, 0
2, 13358, Control_c, 0, 64, 66
2, 13373, Control_c, 0, 64, 71
2, 13389, Control_c, 0, 64, 76
2, 13389, Note_on_c, 0, 77, 81
2, 13404, Control_c, 0, 64, 78
2, 13419, Control_c, 0, 64, 79
2, 13434, Control_c, 0, 64, 78
2, 13448, Control_c, 0, 64, 76
2, 13463, Control_c, 0, 64, 73
2, 13473, Note_on_c, 0, 77, 0
2, 13477, Note_on_c, 0, 74, 77
2, 13479, Control_c, 0, 64, 70
2, 13493, Note_on_c, 0, 58, 73
2, 13494, Control_c, 0, 64, 66
2, 13510, Control_c, 0, 64, 61
2, 13519, Note_on_c, 0, 58, 0
2, 13525, Control_c, 0, 64, 45
2, 13529, Note_on_c, 0, 74, 0
2, 13540, Control_c, 0, 64, 0
2, 13563, Note_on_c, 0, 72, 74
2, 13566, Note_on_c, 0, 60, 70
2, 13601, Note_on_c, 0, 72, 0
2, 13610, Note_on_c, 0, 60, 0
2, 13649, Note_on_c, 0, 62, 89
2, 13649, Note_on_c, 0, 70, 79
2, 13669, Note_on_c, 0, 62, 0
2, 13699, Note_on_c, 0, 70, 0
2, 13741, Note_on_c, 0, 74, 65
2, 13824, Note_on_c, 0, 74, 0
2, 13842, Note_on_c, 0, 65, 73
2, 13849, Note_on_c, 0, 70, 69
2, 13868, Note_on_c, 0, 65, 0
2, 13920, Note_on_c, 0, 70, 0
2, 13937, Note_on_c, 0, 69, 59
2, 13979, Note_on_c, 0, 69, 0
2, 14018, Note_on_c, 0, 58, 70
2, 14029, Note_on_c, 0, 67, 64
2, 14057, Note_on_c, 0, 58, 0
2, 14060, Note_on_c, 0, 67, 0
2, 14102, Note_on_c, 0, 70, 59
2, 14149, Note_on_c, 0, 70, 0
2, 14198, Note_on_c, 0, 62, 65
2, 14208, Note_on_c, 0, 67, 62
2, 14217, Note_on_c, 0, 62, 0
2, 14238, Note_on_c, 0, 67, 0
2, 14286, Note_on_c, 0, 65, 65
2, 14321, Note_on_c, 0, 65, 0
2, 14388, Note_on_c, 0, 64, 70
2, 14396, Note_on_c, 0, 55, 61
2, 14405, Note_on_c, 0, 64, 0
2, 14415, Control_c, 0, 64, 49
2, 14430, Control_c, 0, 64, 62
2, 14437, Note_on_c, 0, 55, 0
2, 14445, Control_c, 0, 64, 70
2, 14460, Control_c, 0, 64, 82
2, 14460, Note_on_c, 0, 58, 62
2, 14476, Control_c, 0, 64, 101
2, 14491, Control_c, 0, 64, 127
2, 14499, Note_on_c, 0, 58, 0
2, 14556, Note_on_c, 0, 55, 66
2, 14576, Note_on_c, 0, 76, 86
2, 14621, Note_on_c, 0, 76, 0
2, 14626, Note_on_c, 0, 55, 0
2, 14643, Note_on_c, 0, 77, 92
2, 14645, Note_on_c, 0, 53, 66
2, 14665, Control_c, 0, 64, 94
2, 14681, Control_c, 0, 64, 73
2, 14695, Note_on_c, 0, 77, 0
2, 14696, Control_c, 0, 64, 61
2, 14698, Note_on_c, 0, 53, 0
2, 14712, Control_c, 0, 64, 0
2, 14724, Note_on_c, 0, 79, 93
2, 14728, Note_on_c, 0, 52, 58
2, 14753, Note_on_c, 0, 79, 0
2, 14764, Note_on_c, 0, 52, 0
2, 14809, Note_on_c, 0, 55, 64
2, 14848, Note_on_c, 0, 55, 0
2, 14900, Note_on_c, 0, 52, 52
2, 14904, Note_on_c, 0, 82, 91
2, 14950, Note_on_c, 0, 82, 0
2, 14961, Note_on_c, 0, 52, 0
2, 14994, Note_on_c, 0, 50, 40
2, 15046, Note_on_c, 0, 50, 0
2, 15077, Note_on_c, 0, 49, 59
2, 15088, Note_on_c, 0, 76, 81
2, 15113, Note_on_c, 0, 49, 0
2, 15114, Note_on_c, 0, 76, 0
2, 15186, Note_on_c, 0, 52, 46
2, 15215, Note_on_c, 0, 52, 0
2, 15264, Note_on_c, 0, 49, 51
2, 15274, Note_on_c, 0, 79, 79
2, 15302, Note_on_c, 0, 49, 0
2, 15320, Note_on_c, 0, 79, 0
2, 15350, Note_on_c, 0, 47, 36
2, 15378, Note_on_c, 0, 47, 0
2, 15448, Note_on_c, 0, 45, 65
2, 15452, Note_on_c, 0, 73, 77
2, 15473, Note_on_c, 0, 45, 0
2, 15479, Control_c, 0, 64, 49
2, 15494, Control_c, 0, 64, 62
2, 15500, Note_on_c, 0, 73, 0
2, 15510, Control_c, 0, 64, 74
2, 15525, Control_c, 0, 64, 93
2, 15539, Note_on_c, 0, 79, 71
2, 15540, Control_c, 0, 64, 127
2, 15614, Note_on_c, 0, 79, 0
2, 15634, Note_on_c, 0, 73, 75
2, 15645, Note_on_c, 0, 57, 72
2, 15661, Control_c, 0, 64, 92
2, 15673, Note_on_c, 0, 57, 0
2, 15677, Control_c, 0, 64, 73
2, 15680, Note_on_c, 0, 73, 0
2, 15692, Control_c, 0, 64, 60
2, 15704, Note_on_c, 0, 59, 73
2, 15707, Control_c, 0, 64, 0
2, 15714, Note_on_c, 0, 71, 74
2, 15741, Note_on_c, 0, 59, 0
2, 15744, Note_on_c, 0, 71, 0
2, 15789, Note_on_c, 0, 69, 78
2, 15800, Note_on_c, 0, 61, 87
2, 15821, Note_on_c, 0, 61, 0
2, 15836, Note_on_c, 0, 69, 0
2, 15888, Note_on_c, 0, 76, 48
2, 15927, Note_on_c, 0, 76, 0
2, 15978, Note_on_c, 0, 69, 71
2, 15992, Note_on_c, 0, 64, 66
2, 16022, Note_on_c, 0, 64, 0
2, 16022, Note_on_c, 0, 69, 0
2, 16075, Note_on_c, 0, 67, 59
2, 16106, Note_on_c, 0, 67, 0
2, 16164, Note_on_c, 0, 65, 69
2, 16170, Note_on_c, 0, 57, 62
2, 16197, Note_on_c, 0, 57, 0
2, 16197, Note_on_c, 0, 65, 0
2, 16249, Note_on_c, 0, 73, 65
2, 16293, Note_on_c, 0, 73, 0
2, 16349, Note_on_c, 0, 55, 58
2, 16357, Note_on_c, 0, 65, 67
2, 16371, Note_on_c, 0, 55, 0
2, 16390, Note_on_c, 0, 65, 0
2, 16432, Note_on_c, 0, 64, 66
2, 16475, Note_on_c, 0, 64, 0
2, 16517, Note_on_c, 0, 62, 76
2, 16522, Note_on_c, 0, 53, 66
2, 16539, Note_on_c, 0, 62, 0
2, 16552, Control_c, 0, 64, 48
2, 16558, Note_on_c, 0, 53, 0
2, 16567, Control_c, 0, 64, 63
2, 16582, Control_c, 0, 64, 72
2, 16598, Control_c, 0, 64, 90
2, 16608, Note_on_c, 0, 62, 71
2, 16612, Control_c, 0, 64, 127
2, 16652, Note_on_c, 0, 62, 0
2, 16700, Note_on_c, 0, 74, 78
2, 16712, Note_on_c, 0, 53, 68
2, 16737, Note_on_c, 0, 74, 0
2, 16761, Note_on_c, 0, 53, 0
2, 16777, Note_on_c, 0, 76, 84
2, 16780, Control_c, 0, 64, 91
2, 16785, Note_on_c, 0, 52, 63
2, 16796, Control_c, 0, 64, 73
2, 16811, Control_c, 0, 64, 60
2, 16821, Note_on_c, 0, 76, 0
2, 16825, Control_c, 0, 64, 0
2, 16830, Note_on_c, 0, 52, 0
2, 16858, Note_on_c, 0, 77, 95
2, 16873, Note_on_c, 0, 50, 61
2, 16885, Note_on_c, 0, 77, 0
2, 16903, Note_on_c, 0, 50, 0
2, 16955, Note_on_c, 0, 57, 60
2, 16985, Note_on_c, 0, 57, 0
2, 17035, Note_on_c, 0, 81, 89
2, 17043, Note_on_c, 0, 50, 58
2, 17061, Note_on_c, 0, 81, 0
2, 17091, Note_on_c, 0, 50, 0
2, 17139, Note_on_c, 0, 48, 44
2, 17185, Note_on_c, 0, 48, 0
2, 17215, Note_on_c, 0, 74, 77
2, 17219, Note_on_c, 0, 46, 59
2, 17240, Note_on_c, 0, 74, 0
2, 17254, Note_on_c, 0, 46, 0
2, 17325, Note_on_c, 0, 53, 49
2, 17352, Note_on_c, 0, 53, 0
2, 17377, Note_on_c, 0, 72, 77
2, 17393, Note_on_c, 0, 46, 62
2, 17407, Note_on_c, 0, 72, 0
2, 17438, Note_on_c, 0, 46, 0
2, 17489, Note_on_c, 0, 45, 45
2, 17518, Note_on_c, 0, 45, 0
2, 17567, Note_on_c, 0, 43, 65
2, 17575, Note_on_c, 0, 70, 68
2, 17596, Note_on_c, 0, 43, 0
2, 17615, Control_c, 0, 64, 52
2, 17621, Note_on_c, 0, 70, 0
2, 17631, Control_c, 0, 64, 62
2, 17646, Control_c, 0, 64, 67
2, 17661, Control_c, 0, 64, 72
2, 17664, Note_on_c, 0, 79, 68
2, 17677, Control_c, 0, 64, 78
2, 17692, Control_c, 0, 64, 81
2, 17707, Control_c, 0, 64, 83
2, 17720, Note_on_c, 0, 79, 0
2, 17722, Control_c, 0, 64, 84
2, 17763, Note_on_c, 0, 70, 73
2, 17779, Note_on_c, 0, 55, 69
2, 17806, Note_on_c, 0, 55, 0
2, 17813, Control_c, 0, 64, 83
2, 17818, Note_on_c, 0, 70, 0
2, 17829, Control_c, 0, 64, 78
2, 17832, Note_on_c, 0, 57, 75
2, 17839, Note_on_c, 0, 69, 75
2, 17844, Control_c, 0, 64, 72
2, 17859, Control_c, 0, 64, 66
2, 17870, Note_on_c, 0, 69, 0
2, 17875, Control_c, 0, 64, 60
2, 17885, Note_on_c, 0, 57, 0
2, 17889, Control_c, 0, 64, 45
2, 17904, Control_c, 0, 64, 0
2, 17924, Note_on_c, 0, 58, 88
2, 17924, Note_on_c, 0, 67, 79
2, 17947, Note_on_c, 0, 58, 0
2, 17963, Note_on_c, 0, 67, 0
2, 18016, Note_on_c, 0, 70, 55
2, 18071, Note_on_c, 0, 70, 0
2, 18092, Note_on_c, 0, 67, 65
2, 18101, Note_on_c, 0, 62, 65
2, 18129, Note_on_c, 0, 67, 0
2, 18130, Note_on_c, 0, 62, 0
2, 18184, Note_on_c, 0, 65, 54
2, 18226, Note_on_c, 0, 65, 0
2, 18277, Note_on_c, 0, 55, 50
2, 18281, Note_on_c, 0, 63, 48
2, 18305, Note_on_c, 0, 55, 0
2, 18313, Note_on_c, 0, 63, 0
2, 18339, Note_on_c, 0, 70, 52
2, 18401, Note_on_c, 0, 70, 0
2, 18438, Note_on_c, 0, 63, 47
2, 18450, Note_on_c, 0, 58, 52
2, 18476, Note_on_c, 0, 58, 0
2, 18489, Note_on_c, 0, 63, 0
2, 18538, Note_on_c, 0, 62, 45
2, 18564, Note_on_c, 0, 62, 0
2, 18581, Control_c, 0, 67, 19
2, 18597, Control_c, 0, 67, 52
2, 18612, Control_c, 0, 67, 83
2, 18620, Note_on_c, 0, 61, 56
2, 18627, Control_c, 0, 67, 113
2, 18632, Note_on_c, 0, 57, 53
2, 18643, Control_c, 0, 64, 46
2, 18643, Control_c, 0, 67, 127
2, 18657, Control_c, 0, 64, 59
2, 18659, Note_on_c, 0, 61, 0
2, 18663, Note_on_c, 0, 57, 0
2, 18673, Control_c, 0, 64, 63
2, 18688, Control_c, 0, 64, 64
2, 18711, Note_on_c, 0, 69, 45
2, 18749, Control_c, 0, 64, 63
2, 18749, Note_on_c, 0, 69, 0
2, 18764, Control_c, 0, 64, 63
2, 18778, Control_c, 0, 64, 61
2, 18794, Control_c, 0, 64, 59
2, 18808, Note_on_c, 0, 61, 43
2, 18808, Note_on_c, 0, 64, 53
2, 18809, Control_c, 0, 64, 53
2, 18825, Control_c, 0, 64, 42
2, 18836, Note_on_c, 0, 64, 0
2, 18841, Control_c, 0, 64, 0
2, 18842, Note_on_c, 0, 61, 0
2, 18906, Note_on_c, 0, 59, 36
2, 18937, Note_on_c, 0, 59, 0
2, 18979, Note_on_c, 0, 61, 52
2, 18985, Note_on_c, 0, 57, 43
2, 19012, Note_on_c, 0, 57, 0
2, 19021, Note_on_c, 0, 61, 0
2, 19080, Note_on_c, 0, 69, 48
2, 19116, Note_on_c, 0, 69, 0
2, 19162, Note_on_c, 0, 64, 51
2, 19177, Note_on_c, 0, 61, 51
2, 19186, Note_on_c, 0, 64, 0
2, 19210, Note_on_c, 0, 61, 0
2, 19245, Note_on_c, 0, 69, 45
2, 19297, Note_on_c, 0, 69, 0
2, 19337, Note_on_c, 0, 61, 62
2, 19341, Note_on_c, 0, 57, 58
2, 19370, Note_on_c, 0, 57, 0
2, 19379, Note_on_c, 0, 61, 0
2, 19423, Note_on_c, 0, 69, 49
2, 19462, Note_on_c, 0, 69, 0
2, 19514, Note_on_c, 0, 61, 55
2, 19520, Note_on_c, 0, 64, 49
2, 19543, Note_on_c, 0, 64, 0
2, 19550, Note_on_c, 0, 61, 0
2, 19592, Note_on_c, 0, 69, 41
2, 19637, Note_on_c, 0, 69, 0
2, 19683, Note_on_c, 0, 61, 54
2, 19696, Note_on_c, 0, 55, 44
2, 19715, Control_c, 0, 64, 35
2, 19724, Note_on_c, 0, 55, 0
2, 19724, Note_on_c, 0, 61, 0
2, 19730, Control_c, 0, 64, 51
2, 19745, Control_c, 0, 64, 55
2, 19757, Note_on_c, 0, 69, 49
2, 19761, Control_c, 0, 64, 56
2, 19803, Note_on_c, 0, 69, 0
2, 19806, Control_c, 0, 64, 54
2, 19821, Control_c, 0, 64, 49
2, 19836, Control_c, 0, 64, 37
2, 19847, Note_on_c, 0, 61, 47
2, 19851, Control_c, 0, 64, 0
2, 19874, Note_on_c, 0, 64, 50
2, 19891, Note_on_c, 0, 61, 0
2, 19897, Note_on_c, 0, 64, 0
2, 19952, Note_on_c, 0, 59, 50
2, 19986, Note_on_c, 0, 59, 0
2, 20040, Note_on_c, 0, 61, 54
2, 20054, Note_on_c, 0, 55, 17
2, 20081, Note_on_c, 0, 61, 0
2, 20085, Note_on_c, 0, 55, 0
2, 20131, Note_on_c, 0, 69, 56
2, 20174, Note_on_c, 0, 69, 0
2, 20210, Note_on_c, 0, 64, 53
2, 20220, Note_on_c, 0, 61, 53
2, 20233, Note_on_c, 0, 64, 0
2, 20253, Note_on_c, 0, 61, 0
2, 20288, Note_on_c, 0, 69, 51
2, 20339, Note_on_c, 0, 69, 0
2, 20379, Note_on_c, 0, 61, 61
2, 20391, Note_on_c, 0, 55, 49
2, 20415, Note_on_c, 0, 55, 0
2, 20419, Note_on_c, 0, 61, 0
2, 20457, Note_on_c, 0, 69, 57
2, 20507, Note_on_c, 0, 69, 0
2, 20555, Note_on_c, 0, 64, 55
2, 20561, Note_on_c, 0, 61, 52
2, 20580, Note_on_c, 0, 64, 0
2, 20594, Note_on_c, 0, 61, 0
2, 20631, Note_on_c, 0, 69, 53
2, 20685, Note_on_c, 0, 69, 0
2, 20729, Note_on_c, 0, 62, 64
2, 20734, Note_on_c, 0, 53, 60
2, 20749, Control_c, 0, 64, 51
2, 20760, Note_on_c, 0, 53, 0
2, 20760, Note_on_c, 0, 62, 0
2, 20763, Control_c, 0, 64, 61
2, 20778, Control_c, 0, 64, 64
2, 20794, Control_c, 0, 64, 66
2, 20802, Note_on_c, 0, 69, 54
2, 20809, Control_c, 0, 64, 66
2, 20839, Control_c, 0, 64, 65
2, 20850, Note_on_c, 0, 69, 0
2, 20854, Control_c, 0, 64, 62
2, 20870, Control_c, 0, 64, 52
2, 20884, Control_c, 0, 64, 21
2, 20899, Control_c, 0, 64, 0
2, 20907, Note_on_c, 0, 62, 54
2, 20918, Note_on_c, 0, 65, 47
2, 20942, Note_on_c, 0, 65, 0
2, 20943, Note_on_c, 0, 62, 0
2, 20991, Note_on_c, 0, 61, 55
2, 21024, Note_on_c, 0, 61, 0
2, 21077, Note_on_c, 0, 62, 58
2, 21095, Note_on_c, 0, 53, 35
2, 21114, Note_on_c, 0, 62, 0
2, 21121, Note_on_c, 0, 53, 0
2, 21171, Note_on_c, 0, 69, 50
2, 21205, Note_on_c, 0, 69, 0
2, 21257, Note_on_c, 0, 62, 62
2, 21259, Note_on_c, 0, 65, 46
2, 21284, Note_on_c, 0, 65, 0
2, 21287, Note_on_c, 0, 62, 0
2, 21331, Note_on_c, 0, 69, 53
2, 21385, Note_on_c, 0, 69, 0
2, 21426, Note_on_c, 0, 62, 61
2, 21429, Note_on_c, 0, 53, 51
2, 21461, Note_on_c, 0, 53, 0
2, 21470, Note_on_c, 0, 62, 0
2, 21513, Note_on_c, 0, 69, 58
2, 21558, Note_on_c, 0, 69, 0
2, 21604, Note_on_c, 0, 65, 59
2, 21612, Note_on_c, 0, 62, 50
2, 21634, Note_on_c, 0, 65, 0
2, 21644, Note_on_c, 0, 62, 0
2, 21673, Note_on_c, 0, 69, 57
2, 21719, Note_on_c, 0, 69, 0
2, 21778, Note_on_c, 0, 64, 71
2, 21780, Note_on_c, 0, 61, 60
2, 21807, Control_c, 0, 64, 52
2, 21811, Note_on_c, 0, 61, 0
2, 21813, Note_on_c, 0, 64, 0
2, 21822, Control_c, 0, 64, 61
2, 21837, Control_c, 0, 64, 64
2, 21852, Control_c, 0, 64, 65
2, 21862, Note_on_c, 0, 69, 52
2, 21898, Control_c, 0, 64, 64
2, 21914, Control_c, 0, 64, 62
2, 21915, Note_on_c, 0, 69, 0
2, 21929, Control_c, 0, 64, 57
2, 21944, Control_c, 0, 64, 49
2, 21954, Note_on_c, 0, 64, 64
2, 21959, Control_c, 0, 64, 27
2, 21959, Note_on_c, 0, 67, 56
2, 21974, Control_c, 0, 64, 0
2, 21985, Note_on_c, 0, 64, 0
2, 21985, Note_on_c, 0, 67, 0
2, 22040, Note_on_c, 0, 62, 53
2, 22076, Note_on_c, 0, 62, 0
2, 22128, Note_on_c, 0, 64, 63
2, 22149, Note_on_c, 0, 61, 57
2, 22159, Note_on_c, 0, 64, 0
2, 22172, Note_on_c, 0, 61, 0
2, 22226, Note_on_c, 0, 69, 60
2, 22271, Note_on_c, 0, 69, 0
2, 22325, Note_on_c, 0, 67, 61
2, 22326, Note_on_c, 0, 64, 63
2, 22350, Note_on_c, 0, 67, 0
2, 22355, Note_on_c, 0, 64, 0
2, 22411, Note_on_c, 0, 69, 60
2, 22454, Note_on_c, 0, 69, 0
2, 22496, Note_on_c, 0, 61, 64
2, 22497, Note_on_c, 0, 64, 66
2, 22525, Note_on_c, 0, 61, 0
2, 22534, Note_on_c, 0, 64, 0
2, 22593, Note_on_c, 0, 69, 52
2, 22626, Note_on_c, 0, 69, 0
2, 22671, Note_on_c, 0, 64, 61
2, 22682, Note_on_c, 0, 67, 57
2, 22702, Note_on_c, 0, 67, 0
2, 22705, Note_on_c, 0, 64, 0
2, 22727, Note_on_c, 0, 69, 58
2, 22761, Note_on_c, 0, 69, 0
2, 22836, Note_on_c, 0, 65, 70
2, 22842, Note_on_c, 0, 62, 65
2, 22867, Note_on_c, 0, 65, 0
2, 22870, Note_on_c, 0, 62, 0
2, 22879, Note_on_c, 0, 69, 70
2, 22914, Note_on_c, 0, 69, 0
2, 22925, Control_c, 0, 67, 115
2, 22940, Control_c, 0, 67, 100
2, 22944, Note_on_c, 0, 71, 52
2, 22955, Control_c, 0, 67, 90
2, 22967, Note_on_c, 0, 71, 0
2, 22970, Control_c, 0, 67, 80
2, 22971, Note_on_c, 0, 73, 70
2, 22994, Control_c, 0, 67, 67
2, 23008, Control_c, 0, 67, 52
2, 23023, Control_c, 0, 67, 35
2, 23023, Note_on_c, 0, 65, 60
2, 23030, Note_on_c, 0, 73, 0
2, 23036, Note_on_c, 0, 74, 61
2, 23039, Control_c, 0, 67, 20
2, 23049, Note_on_c, 0, 65, 0
2, 23054, Control_c, 0, 67, 0
2, 23093, Note_on_c, 0, 74, 0
2, 23100, Note_on_c, 0, 69, 64
2, 23146, Note_on_c, 0, 69, 0
2, 23193, Note_on_c, 0, 65, 66
2, 23204, Note_on_c, 0, 62, 54
2, 23223, Note_on_c, 0, 65, 0
2, 23225, Note_on_c, 0, 62, 0
2, 23272, Note_on_c, 0, 69, 68
2, 23309, Note_on_c, 0, 69, 0
2, 23356, Note_on_c, 0, 74, 67
2, 23378, Note_on_c, 0, 65, 57
2, 23400, Note_on_c, 0, 65, 0
2, 23400, Note_on_c, 0, 74, 0
2, 23435, Note_on_c, 0, 69, 70
2, 23490, Note_on_c, 0, 69, 0
2, 23526, Note_on_c, 0, 65, 66
2, 23535, Note_on_c, 0, 62, 74
2, 23563, Note_on_c, 0, 62, 0
2, 23566, Note_on_c, 0, 65, 0
2, 23613, Note_on_c, 0, 69, 76
2, 23655, Note_on_c, 0, 69, 0
2, 23702, Note_on_c, 0, 74, 72
2, 23709, Note_on_c, 0, 65, 72
2, 23733, Note_on_c, 0, 65, 0
2, 23767, Note_on_c, 0, 74, 0
2, 23777, Note_on_c, 0, 69, 81
2, 23816, Note_on_c, 0, 69, 0
2, 23879, Note_on_c, 0, 66, 88
2, 23883, Note_on_c, 0, 60, 73
2, 23911, Note_on_c, 0, 60, 0
2, 23914, Control_c, 0, 64, 41
2, 23928, Control_c, 0, 64, 60
2, 23931, Note_on_c, 0, 66, 0
2, 23943, Control_c, 0, 64, 65
2, 23959, Control_c, 0, 64, 69
2, 23961, Note_on_c, 0, 74, 74
2, 23974, Control_c, 0, 64, 71
2, 24002, Note_on_c, 0, 74, 0
2, 24004, Control_c, 0, 64, 70
2, 24019, Control_c, 0, 64, 66
2, 24035, Control_c, 0, 64, 57
2, 24050, Control_c, 0, 64, 0
2, 24056, Note_on_c, 0, 66, 72
2, 24070, Note_on_c, 0, 69, 62
2, 24094, Note_on_c, 0, 69, 0
2, 24096, Note_on_c, 0, 66, 0
2, 24139, Note_on_c, 0, 64, 72
2, 24175, Note_on_c, 0, 64, 0
2, 24224, Note_on_c, 0, 66, 77
2, 24237, Note_on_c, 0, 60, 64
2, 24254, Note_on_c, 0, 66, 0
2, 24261, Note_on_c, 0, 60, 0
2, 24318, Note_on_c, 0, 74, 74
2, 24366, Note_on_c, 0, 74, 0
2, 24403, Note_on_c, 0, 66, 81
2, 24406, Note_on_c, 0, 69, 68
2, 24431, Note_on_c, 0, 69, 0
2, 24446, Note_on_c, 0, 66, 0
2, 24485, Note_on_c, 0, 74, 74
2, 24539, Note_on_c, 0, 74, 0
2, 24577, Note_on_c, 0, 66, 85
2, 24580, Note_on_c, 0, 60, 69
2, 24608, Note_on_c, 0, 60, 0
2, 24625, Note_on_c, 0, 66, 0
2, 24657, Note_on_c, 0, 74, 72
2, 24699, Note_on_c, 0, 74, 0
2, 24739, Note_on_c, 0, 66, 75
2, 24740, Note_on_c, 0, 69, 70
2, 24768, Note_on_c, 0, 69, 0
2, 24775, Note_on_c, 0, 66, 0
2, 24814, Note_on_c, 0, 74, 56
2, 24854, Note_on_c, 0, 74, 0
2, 24889, Note_on_c, 0, 67, 84
2, 24899, Note_on_c, 0, 59, 77
2, 24921, Note_on_c, 0, 59, 0
2, 24923, Note_on_c, 0, 67, 0
2, 24943, Note_on_c, 0, 69, 83
2, 24985, Note_on_c, 0, 69, 0
2, 24996, Note_on_c, 0, 71, 80
2, 25039, Note_on_c, 0, 71, 0
2, 25047, Note_on_c, 0, 72, 81
2, 25076, Note_on_c, 0, 67, 77
2, 25097, Note_on_c, 0, 72, 0
2, 25097, Note_on_c, 0, 74, 77
2, 25103, Note_on_c, 0, 67, 0
2, 25164, Note_on_c, 0, 71, 83
2, 25183, Note_on_c, 0, 74, 0
2, 25221, Note_on_c, 0, 71, 0
2, 25248, Note_on_c, 0, 67, 86
2, 25252, Note_on_c, 0, 59, 74
2, 25277, Note_on_c, 0, 59, 0
2, 25295, Note_on_c, 0, 67, 0
2, 25335, Note_on_c, 0, 71, 79
2, 25387, Note_on_c, 0, 71, 0
2, 25414, Note_on_c, 0, 74, 79
2, 25436, Note_on_c, 0, 67, 74
2, 25463, Note_on_c, 0, 67, 0
2, 25481, Note_on_c, 0, 74, 0
2, 25499, Note_on_c, 0, 71, 80
2, 25553, Note_on_c, 0, 71, 0
2, 25591, Note_on_c, 0, 67, 75
2, 25610, Note_on_c, 0, 59, 64
2, 25629, Note_on_c, 0, 59, 0
2, 25635, Note_on_c, 0, 67, 0
2, 25672, Note_on_c, 0, 71, 77
2, 25718, Note_on_c, 0, 71, 0
2, 25754, Note_on_c, 0, 74, 78
2, 25771, Note_on_c, 0, 67, 61
2, 25798, Note_on_c, 0, 67, 0
2, 25820, Note_on_c, 0, 74, 0
2, 25831, Note_on_c, 0, 71, 77
2, 25861, Note_on_c, 0, 71, 0
2, 25925, Note_on_c, 0, 68, 88
2, 25927, Note_on_c, 0, 64, 76
2, 25952, Control_c, 0, 64, 40
2, 25953, Note_on_c, 0, 64, 0
2, 25967, Control_c, 0, 64, 61
2, 25976, Note_on_c, 0, 68, 0
2, 25981, Control_c, 0, 64, 65
2, 25997, Control_c, 0, 64, 67
2, 26007, Note_on_c, 0, 74, 79
2, 26012, Control_c, 0, 64, 68
2, 26054, Note_on_c, 0, 74, 0
2, 26065, Control_c, 0, 64, 66
2, 26081, Control_c, 0, 64, 59
2, 26096, Control_c, 0, 64, 25
2, 26109, Note_on_c, 0, 68, 79
2, 26111, Control_c, 0, 64, 0
2, 26111, Note_on_c, 0, 71, 76
2, 26138, Note_on_c, 0, 71, 0
2, 26158, Note_on_c, 0, 68, 0
2, 26185, Note_on_c, 0, 66, 81
2, 26220, Note_on_c, 0, 66, 0
2, 26277, Note_on_c, 0, 68, 80
2, 26286, Note_on_c, 0, 64, 71
2, 26313, Note_on_c, 0, 64, 0
2, 26325, Note_on_c, 0, 68, 0
2, 26357, Note_on_c, 0, 74, 81
2, 26420, Note_on_c, 0, 74, 0
2, 26444, Note_on_c, 0, 68, 88
2, 26456, Note_on_c, 0, 71, 80
2, 26479, Note_on_c, 0, 71, 0
2, 26491, Note_on_c, 0, 68, 0
2, 26532, Note_on_c, 0, 74, 83
2, 26581, Note_on_c, 0, 74, 0
2, 26614, Note_on_c, 0, 68, 81
2, 26626, Note_on_c, 0, 64, 70
2, 26655, Note_on_c, 0, 64, 0
2, 26665, Note_on_c, 0, 68, 0
2, 26697, Note_on_c, 0, 74, 72
2, 26747, Note_on_c, 0, 74, 0
2, 26778, Note_on_c, 0, 68, 75
2, 26794, Note_on_c, 0, 71, 66
2, 26831, Note_on_c, 0, 71, 0
2, 26837, Note_on_c, 0, 68, 0
2, 26863, Note_on_c, 0, 74, 57
2, 26883, Note_on_c, 0, 74, 0
2, 26960, Note_on_c, 0, 72, 84
2, 26962, Note_on_c, 0, 57, 64
2, 27044, Note_on_c, 0, 69, 75
2, 27126, Note_on_c, 0, 69, 0
2, 27133, Note_on_c, 0, 67, 78
2, 27172, Note_on_c, 0, 67, 0
2, 27178, Note_on_c, 0, 57, 0
2, 27218, Note_on_c, 0, 65, 73
2, 27254, Note_on_c, 0, 65, 0
2, 27301, Note_on_c, 0, 64, 82
2, 27330, Note_on_c, 0, 64, 0
2, 27334, Note_on_c, 0, 72, 0
2, 27334, Note_on_c, 0, 72, 7
2, 27390, Note_on_c, 0, 62, 70
2, 27422, Note_on_c, 0, 62, 0
2, 27474, Note_on_c, 0, 60, 68
2, 27524, Note_on_c, 0, 60, 0
2, 27551, Note_on_c, 0, 59, 59
2, 27591, Note_on_c, 0, 72, 0
2, 27599, Note_on_c, 0, 59, 0
2, 27641, Note_on_c, 0, 57, 67
2, 27667, Note_on_c, 0, 57, 0
2, 27717, Note_on_c, 0, 60, 73
2, 27747, Note_on_c, 0, 60, 0
2, 27803, Note_on_c, 0, 59, 62
2, 27842, Note_on_c, 0, 59, 0
2, 27866, Note_on_c, 0, 57, 67
2, 27900, Note_on_c, 0, 57, 0
2, 27956, Note_on_c, 0, 65, 81
2, 27999, Note_on_c, 0, 65, 0
2, 28043, Note_on_c, 0, 62, 71
2, 28077, Note_on_c, 0, 62, 0
2, 28119, Note_on_c, 0, 69, 75
2, 28124, Note_on_c, 0, 57, 58
2, 28145, Note_on_c, 0, 69, 0
2, 28166, Note_on_c, 0, 57, 0
2, 28212, Note_on_c, 0, 62, 63
2, 28255, Note_on_c, 0, 62, 0
2, 28284, Note_on_c, 0, 74, 86
2, 28300, Note_on_c, 0, 65, 70
2, 28316, Note_on_c, 0, 74, 0
2, 28338, Note_on_c, 0, 65, 0
2, 28390, Note_on_c, 0, 62, 64
2, 28438, Note_on_c, 0, 62, 0
2, 28462, Note_on_c, 0, 77, 90
2, 28472, Note_on_c, 0, 57, 68
2, 28487, Note_on_c, 0, 77, 0
2, 28523, Note_on_c, 0, 57, 0
2, 28558, Note_on_c, 0, 62, 65
2, 28604, Note_on_c, 0, 62, 0
2, 28619, Note_on_c, 0, 81, 95
2, 28646, Note_on_c, 0, 65, 72
2, 28646, Note_on_c, 0, 80, 72
2, 28653, Note_on_c, 0, 81, 0
2, 28669, Note_on_c, 0, 80, 0
2, 28692, Note_on_c, 0, 81, 84
2, 28696, Note_on_c, 0, 65, 0
2, 28723, Note_on_c, 0, 62, 64
2, 28766, Note_on_c, 0, 62, 0
2, 28806, Note_on_c, 0, 57, 65
2, 28857, Note_on_c, 0, 57, 0
2, 28888, Note_on_c, 0, 62, 69
2, 28899, Note_on_c, 0, 81, 0
2, 28926, Note_on_c, 0, 62, 0
2, 28966, Note_on_c, 0, 64, 80
2, 29001, Note_on_c, 0, 64, 0
2, 29052, Note_on_c, 0, 62, 63
2, 29090, Note_on_c, 0, 62, 0
2, 29132, Note_on_c, 0, 69, 74
2, 29138, Note_on_c, 0, 57, 60
2, 29157, Note_on_c, 0, 69, 0
2, 29184, Note_on_c, 0, 57, 0
2, 29215, Note_on_c, 0, 62, 62
2, 29257, Note_on_c, 0, 62, 0
2, 29293, Note_on_c, 0, 72, 95
2, 29310, Note_on_c, 0, 64, 70
2, 29329, Note_on_c, 0, 72, 0
2, 29350, Note_on_c, 0, 64, 0
2, 29390, Note_on_c, 0, 60, 66
2, 29429, Note_on_c, 0, 60, 0
2, 29463, Note_on_c, 0, 76, 95
2, 29476, Note_on_c, 0, 57, 62
2, 29502, Note_on_c, 0, 76, 0
2, 29544, Note_on_c, 0, 57, 0
2, 29551, Note_on_c, 0, 60, 67
2, 29596, Note_on_c, 0, 60, 0
2, 29633, Note_on_c, 0, 81, 92
2, 29646, Note_on_c, 0, 64, 70
2, 29649, Note_on_c, 0, 80, 79
2, 29661, Note_on_c, 0, 81, 0
2, 29677, Note_on_c, 0, 80, 0
2, 29687, Note_on_c, 0, 64, 0
2, 29697, Note_on_c, 0, 81, 86
2, 29711, Note_on_c, 0, 60, 69
2, 29746, Note_on_c, 0, 60, 0
2, 29790, Note_on_c, 0, 57, 65
2, 29849, Note_on_c, 0, 57, 0
2, 29872, Note_on_c, 0, 60, 76
2, 29907, Note_on_c, 0, 81, 0
2, 29915, Note_on_c, 0, 60, 0
2, 29961, Note_on_c, 0, 62, 81
2, 30010, Note_on_c, 0, 62, 0
2, 30052, Note_on_c, 0, 59, 67
2, 30095, Note_on_c, 0, 59, 0
2, 30129, Note_on_c, 0, 74, 77
2, 30130, Note_on_c, 0, 57, 60
2, 30158, Note_on_c, 0, 74, 0
2, 30178, Note_on_c, 0, 57, 0
2, 30218, Note_on_c, 0, 59, 58
2, 30256, Note_on_c, 0, 59, 0
2, 30294, Note_on_c, 0, 80, 77
2, 30309, Note_on_c, 0, 62, 55
2, 30321, Note_on_c, 0, 80, 0
2, 30346, Note_on_c, 0, 62, 0
2, 30370, Note_on_c, 0, 59, 59
2, 30427, Note_on_c, 0, 59, 0
2, 30473, Note_on_c, 0, 83, 74
2, 30479, Note_on_c, 0, 56, 57
2, 30502, Note_on_c, 0, 83, 0
2, 30524, Note_on_c, 0, 56, 0
2, 30559, Note_on_c, 0, 59, 57
2, 30609, Note_on_c, 0, 59, 0
2, 30654, Note_on_c, 0, 62, 59
2, 30664, Note_on_c, 0, 80, 72
2, 30691, Note_on_c, 0, 80, 0
2, 30703, Note_on_c, 0, 62, 0
2, 30735, Note_on_c, 0, 59, 60
2, 30777, Note_on_c, 0, 59, 0
2, 30829, Note_on_c, 0, 56, 59
2, 30847, Note_on_c, 0, 76, 69
2, 30872, Note_on_c, 0, 56, 0
2, 30874, Note_on_c, 0, 76, 0
2, 30910, Note_on_c, 0, 59, 49
2, 30958, Note_on_c, 0, 59, 0
2, 31004, Note_on_c, 0, 60, 74
2, 31007, Note_on_c, 0, 81, 80
2, 31031, Note_on_c, 0, 60, 0
2, 31187, Note_on_c, 0, 81, 0
2, 31189, Note_on_c, 0, 79, 83
2, 31190, Note_on_c, 0, 45, 86
2, 31218, Note_on_c, 0, 45, 0
2, 31252, Note_on_c, 0, 79, 0
2, 31270, Note_on_c, 0, 77, 77
2, 31352, Note_on_c, 0, 77, 0
2, 31358, Note_on_c, 0, 76, 80
2, 31361, Note_on_c, 0, 48, 92
2, 31390, Note_on_c, 0, 48, 0
2, 31411, Note_on_c, 0, 76, 0
2, 31450, Note_on_c, 0, 74, 76
2, 31490, Note_on_c, 0, 74, 0
2, 31541, Note_on_c, 0, 72, 78
2, 31542, Note_on_c, 0, 52, 94
2, 31569, Note_on_c, 0, 52, 0
2, 31617, Note_on_c, 0, 72, 0
2, 31621, Note_on_c, 0, 71, 82
2, 31693, Note_on_c, 0, 71, 0
2, 31720, Note_on_c, 0, 69, 79
2, 31722, Note_on_c, 0, 57, 88
2, 31746, Note_on_c, 0, 57, 0
2, 31760, Note_on_c, 0, 69, 0
2, 31808, Note_on_c, 0, 72, 75
2, 31884, Note_on_c, 0, 60, 90
2, 31893, Note_on_c, 0, 72, 0
2, 31894, Note_on_c, 0, 71, 82
2, 31909, Note_on_c, 0, 60, 0
2, 31945, Note_on_c, 0, 71, 0
2, 31982, Note_on_c, 0, 69, 70
2, 32029, Note_on_c, 0, 69, 0
2, 32076, Note_on_c, 0, 62, 89
2, 32077, Note_on_c, 0, 77, 86
2, 32085, Note_on_c, 0, 60, 80
2, 32095, Note_on_c, 0, 62, 0
2, 32100, Note_on_c, 0, 60, 0
2, 32160, Note_on_c, 0, 77, 0
2, 32161, Note_on_c, 0, 74, 76
2, 32233, Note_on_c, 0, 74, 0
2, 32257, Note_on_c, 0, 65, 82
2, 32263, Note_on_c, 0, 69, 75
2, 32288, Note_on_c, 0, 65, 0
2, 32300, Note_on_c, 0, 69, 0
2, 32347, Note_on_c, 0, 74, 73
2, 32389, Note_on_c, 0, 74, 0
2, 32435, Note_on_c, 0, 77, 84
2, 32438, Note_on_c, 0, 57, 94
2, 32466, Note_on_c, 0, 57, 0
2, 32500, Note_on_c, 0, 77, 0
2, 32520, Note_on_c, 0, 74, 77
2, 32583, Note_on_c, 0, 74, 0
2, 32617, Note_on_c, 0, 62, 81
2, 32620, Note_on_c, 0, 69, 71
2, 32648, Note_on_c, 0, 62, 0
2, 32658, Note_on_c, 0, 69, 0
2, 32695, Note_on_c, 0, 74, 74
2, 32761, Note_on_c, 0, 74, 0
2, 32792, Note_on_c, 0, 77, 76
2, 32798, Note_on_c, 0, 50, 83
2, 32825, Note_on_c, 0, 50, 0
2, 32859, Note_on_c, 0, 77, 0
2, 32874, Note_on_c, 0, 74, 73
2, 32946, Note_on_c, 0, 74, 0
2, 32984, Note_on_c, 0, 59, 85
2, 32986, Note_on_c, 0, 69, 66
2, 33008, Note_on_c, 0, 59, 0
2, 33023, Note_on_c, 0, 69, 0
2, 33071, Note_on_c, 0, 74, 68
2, 33104, Note_on_c, 0, 74, 0
2, 33165, Note_on_c, 0, 60, 73
2, 33169, Note_on_c, 0, 76, 63
2, 33186, Note_on_c, 0, 60, 0
2, 33250, Note_on_c, 0, 76, 0
2, 33251, Note_on_c, 0, 74, 65
2, 33311, Note_on_c, 0, 74, 0
2, 33355, Note_on_c, 0, 64, 63
2, 33355, Note_on_c, 0, 69, 57
2, 33379, Note_on_c, 0, 64, 0
2, 33383, Note_on_c, 0, 69, 0
2, 33429, Note_on_c, 0, 74, 62
2, 33462, Note_on_c, 0, 74, 0
2, 33517, Note_on_c, 0, 76, 59
2, 33523, Note_on_c, 0, 57, 60
2, 33551, Note_on_c, 0, 57, 0
2, 33563, Note_on_c, 0, 76, 0
2, 33596, Note_on_c, 0, 72, 62
2, 33645, Note_on_c, 0, 72, 0
2, 33699, Note_on_c, 0, 69, 58
2, 33709, Note_on_c, 0, 60, 58
2, 33739, Note_on_c, 0, 60, 0
2, 33745, Note_on_c, 0, 69, 0
2, 33778, Note_on_c, 0, 72, 60
2, 33822, Note_on_c, 0, 72, 0
2, 33878, Note_on_c, 0, 76, 56
2, 33881, Note_on_c, 0, 48, 59
2, 33906, Note_on_c, 0, 48, 0
2, 33917, Note_on_c, 0, 76, 0
2, 33954, Note_on_c, 0, 72, 56
2, 34000, Note_on_c, 0, 72, 0
2, 34052, Note_on_c, 0, 69, 58
2, 34061, Note_on_c, 0, 57, 58
2, 34082, Note_on_c, 0, 57, 0
2, 34090, Note_on_c, 0, 69, 0
2, 34125, Note_on_c, 0, 72, 54
2, 34156, Control_c, 0, 67, 15
2, 34163, Note_on_c, 0, 72, 0
2, 34171, Control_c, 0, 67, 34
2, 34186, Control_c, 0, 67, 52
2, 34202, Control_c, 0, 67, 66
2, 34216, Control_c, 0, 67, 76
2, 34230, Note_on_c, 0, 59, 51
2, 34232, Control_c, 0, 67, 85
2, 34233, Note_on_c, 0, 74, 51
2, 34247, Control_c, 0, 67, 94
2, 34252, Note_on_c, 0, 59, 0
2, 34262, Control_c, 0, 67, 99
2, 34277, Control_c, 0, 67, 101
2, 34285, Note_on_c, 0, 74, 0
2, 34292, Control_c, 0, 67, 102
2, 34303, Note_on_c, 0, 71, 61
2, 34338, Control_c, 0, 67, 102
2, 34354, Note_on_c, 0, 71, 0
2, 34409, Note_on_c, 0, 69, 57
2, 34421, Note_on_c, 0, 62, 39
2, 34443, Note_on_c, 0, 62, 0
2, 34444, Note_on_c, 0, 69, 0
2, 34481, Note_on_c, 0, 71, 61
2, 34531, Note_on_c, 0, 71, 0
2, 34579, Note_on_c, 0, 56, 55
2, 34582, Note_on_c, 0, 74, 57
2, 34611, Note_on_c, 0, 56, 0
2, 34626, Note_on_c, 0, 74, 0
2, 34660, Note_on_c, 0, 71, 59
2, 34720, Note_on_c, 0, 71, 0
2, 34764, Note_on_c, 0, 68, 60
2, 34765, Note_on_c, 0, 59, 57
2, 34785, Note_on_c, 0, 59, 0
2, 34798, Note_on_c, 0, 68, 0
2, 34847, Note_on_c, 0, 71, 65
2, 34889, Note_on_c, 0, 71, 0
2, 34938, Note_on_c, 0, 74, 59
2, 34957, Note_on_c, 0, 64, 54
2, 34969, Control_c, 0, 67, 102
2, 34976, Note_on_c, 0, 74, 0
2, 34979, Note_on_c, 0, 64, 0
2, 34999, Control_c, 0, 67, 101
2, 35012, Note_on_c, 0, 71, 64
2, 35014, Control_c, 0, 67, 101
2, 35045, Control_c, 0, 67, 100
2, 35060, Control_c, 0, 67, 100
2, 35079, Note_on_c, 0, 71, 0
2, 35090, Control_c, 0, 67, 99
2, 35120, Control_c, 0, 67, 98
2, 35121, Note_on_c, 0, 68, 57
2, 35135, Control_c, 0, 67, 97
2, 35140, Note_on_c, 0, 52, 9
2, 35151, Control_c, 0, 67, 96
2, 35159, Note_on_c, 0, 68, 0
2, 35181, Control_c, 0, 67, 95
2, 35184, Note_on_c, 0, 52, 0
2, 35196, Control_c, 0, 67, 94
2, 35207, Note_on_c, 0, 71, 66
2, 35211, Control_c, 0, 67, 93
2, 35226, Control_c, 0, 67, 92
2, 35232, Note_on_c, 0, 71, 0
2, 35242, Control_c, 0, 67, 91
2, 35280, Control_c, 0, 67, 90
2, 35295, Control_c, 0, 67, 89
2, 35303, Note_on_c, 0, 57, 54
2, 35309, Note_on_c, 0, 72, 68
2, 35311, Control_c, 0, 67, 87
2, 35325, Control_c, 0, 67, 85
2, 35326, Note_on_c, 0, 57, 0
2, 35340, Control_c, 0, 67, 83
2, 35356, Control_c, 0, 67, 81
2, 35371, Control_c, 0, 67, 76
2, 35386, Control_c, 0, 67, 68
2, 35398, Note_on_c, 0, 69, 62
2, 35401, Control_c, 0, 67, 57
2, 35416, Control_c, 0, 67, 42
2, 35432, Control_c, 0, 67, 25
2, 35447, Control_c, 0, 67, 8
2, 35462, Control_c, 0, 67, 0
2, 35464, Note_on_c, 0, 69, 0
2, 35492, Note_on_c, 0, 67, 62
2, 35522, Note_on_c, 0, 67, 0
2, 35574, Note_on_c, 0, 65, 64
2, 35609, Note_on_c, 0, 65, 0
2, 35658, Note_on_c, 0, 64, 71
2, 35684, Note_on_c, 0, 64, 0
2, 35742, Note_on_c, 0, 62, 66
2, 35773, Note_on_c, 0, 62, 0
2, 35831, Note_on_c, 0, 60, 67
2, 35877, Note_on_c, 0, 60, 0
2, 35905, Note_on_c, 0, 59, 66
2, 35941, Note_on_c, 0, 59, 0
2, 35993, Note_on_c, 0, 57, 69
2, 36019, Note_on_c, 0, 57, 0
2, 36073, Note_on_c, 0, 60, 71
2, 36102, Note_on_c, 0, 60, 0
2, 36164, Note_on_c, 0, 52, 60
2, 36193, Note_on_c, 0, 52, 0
2, 36232, Note_on_c, 0, 55, 74
2, 36262, Note_on_c, 0, 55, 0
2, 36327, Note_on_c, 0, 54, 89
2, 36354, Note_on_c, 0, 54, 0
2, 36396, Note_on_c, 0, 72, 0
2, 36410, Note_on_c, 0, 75, 65
2, 36482, Note_on_c, 0, 75, 0
2, 36504, Note_on_c, 0, 74, 67
2, 36513, Note_on_c, 0, 69, 75
2, 36537, Note_on_c, 0, 69, 0
2, 36543, Note_on_c, 0, 74, 0
2, 36591, Note_on_c, 0, 72, 66
2, 36622, Note_on_c, 0, 72, 0
2, 36664, Note_on_c, 0, 78, 86
2, 36683, Note_on_c, 0, 72, 78
2, 36712, Note_on_c, 0, 72, 0
2, 36724, Note_on_c, 0, 78, 0
2, 36757, Note_on_c, 0, 75, 73
2, 36831, Note_on_c, 0, 75, 0
2, 36849, Note_on_c, 0, 74, 71
2, 36860, Note_on_c, 0, 69, 67
2, 36886, Note_on_c, 0, 69, 0
2, 36891, Note_on_c, 0, 74, 0
2, 36937, Note_on_c, 0, 72, 71
2, 36968, Note_on_c, 0, 72, 0
2, 37030, Note_on_c, 0, 81, 80
2, 37043, Note_on_c, 0, 66, 73
2, 37067, Note_on_c, 0, 66, 0
2, 37093, Note_on_c, 0, 81, 0
2, 37103, Note_on_c, 0, 75, 78
2, 37184, Note_on_c, 0, 75, 0
2, 37200, Note_on_c, 0, 74, 69
2, 37202, Note_on_c, 0, 62, 77
2, 37225, Note_on_c, 0, 62, 0
2, 37231, Note_on_c, 0, 74, 0
2, 37280, Note_on_c, 0, 72, 65
2, 37317, Note_on_c, 0, 72, 0
2, 37369, Note_on_c, 0, 70, 73
2, 37379, Note_on_c, 0, 67, 90
2, 37399, Note_on_c, 0, 70, 0
2, 37407, Note_on_c, 0, 67, 0
2, 37454, Note_on_c, 0, 79, 73
2, 37537, Note_on_c, 0, 77, 81
2, 37546, Note_on_c, 0, 79, 0
2, 37551, Note_on_c, 0, 55, 88
2, 37586, Note_on_c, 0, 55, 0
2, 37623, Note_on_c, 0, 77, 0
2, 37634, Note_on_c, 0, 75, 81
2, 37721, Note_on_c, 0, 74, 79
2, 37724, Note_on_c, 0, 58, 91
2, 37724, Note_on_c, 0, 75, 0
2, 37768, Note_on_c, 0, 58, 0
2, 37768, Note_on_c, 0, 74, 0
2, 37802, Note_on_c, 0, 72, 77
2, 37840, Note_on_c, 0, 72, 0
2, 37895, Note_on_c, 0, 70, 79
2, 37899, Note_on_c, 0, 62, 95
2, 37918, Note_on_c, 0, 62, 0
2, 37962, Note_on_c, 0, 70, 0
2, 37970, Note_on_c, 0, 69, 75
2, 38037, Note_on_c, 0, 69, 0
2, 38073, Note_on_c, 0, 72, 79
2, 38074, Note_on_c, 0, 67, 96
2, 38117, Note_on_c, 0, 67, 0
2, 38155, Note_on_c, 0, 72, 0
2, 38164, Note_on_c, 0, 70, 74
2, 38240, Note_on_c, 0, 65, 74
2, 38242, Note_on_c, 0, 69, 74
2, 38249, Note_on_c, 0, 70, 0
2, 38267, Note_on_c, 0, 65, 0
2, 38293, Note_on_c, 0, 69, 0
2, 38343, Note_on_c, 0, 67, 65
2, 38378, Note_on_c, 0, 67, 0
2, 38427, Note_on_c, 0, 72, 74
2, 38430, Note_on_c, 0, 64, 68
2, 38449, Note_on_c, 0, 72, 0
2, 38482, Note_on_c, 0, 64, 0
2, 38503, Note_on_c, 0, 61, 69
2, 38545, Note_on_c, 0, 61, 0
2, 38589, Note_on_c, 0, 60, 59
2, 38602, Note_on_c, 0, 76, 73
2, 38629, Note_on_c, 0, 76, 0
2, 38650, Note_on_c, 0, 60, 0
2, 38670, Note_on_c, 0, 58, 63
2, 38704, Note_on_c, 0, 58, 0
2, 38762, Note_on_c, 0, 71, 83
2, 38767, Note_on_c, 0, 65, 64
2, 38783, Note_on_c, 0, 71, 0
2, 38800, Note_on_c, 0, 65, 0
2, 38842, Note_on_c, 0, 61, 65
2, 38903, Note_on_c, 0, 61, 0
2, 38924, Note_on_c, 0, 77, 91
2, 38934, Note_on_c, 0, 60, 55
2, 38954, Note_on_c, 0, 77, 0
2, 38994, Note_on_c, 0, 60, 0
2, 39015, Note_on_c, 0, 58, 60
2, 39053, Note_on_c, 0, 58, 0
2, 39102, Note_on_c, 0, 70, 73
2, 39118, Note_on_c, 0, 67, 66
2, 39137, Note_on_c, 0, 70, 0
2, 39155, Note_on_c, 0, 67, 0
2, 39197, Note_on_c, 0, 61, 64
2, 39255, Note_on_c, 0, 61, 0
2, 39278, Note_on_c, 0, 79, 92
2, 39283, Note_on_c, 0, 60, 59
2, 39343, Note_on_c, 0, 60, 0
2, 39370, Note_on_c, 0, 58, 63
2, 39395, Note_on_c, 0, 58, 0
2, 39472, Note_on_c, 0, 57, 76
2, 39512, Note_on_c, 0, 57, 0
2, 39532, Note_on_c, 0, 79, 0
2, 39536, Note_on_c, 0, 74, 73
2, 39556, Note_on_c, 0, 65, 63
2, 39585, Note_on_c, 0, 65, 0
2, 39616, Note_on_c, 0, 74, 0
2, 39631, Note_on_c, 0, 72, 71
2, 39634, Note_on_c, 0, 64, 65
2, 39663, Note_on_c, 0, 72, 0
2, 39678, Note_on_c, 0, 64, 0
2, 39699, Note_on_c, 0, 62, 58
2, 39714, Note_on_c, 0, 70, 74
2, 39727, Note_on_c, 0, 62, 0
2, 39742, Note_on_c, 0, 70, 0
2, 39806, Note_on_c, 0, 60, 67
2, 39811, Note_on_c, 0, 69, 79
2, 39848, Note_on_c, 0, 60, 0
2, 39857, Note_on_c, 0, 69, 0
2, 39887, Note_on_c, 0, 58, 65
2, 39894, Note_on_c, 0, 79, 81
2, 39919, Note_on_c, 0, 58, 0
2, 39960, Note_on_c, 0, 79, 0
2, 39970, Note_on_c, 0, 57, 53
2, 39979, Note_on_c, 0, 77, 79
2, 40016, Note_on_c, 0, 57, 0
2, 40033, Note_on_c, 0, 77, 0
2, 40057, Note_on_c, 0, 55, 55
2, 40062, Note_on_c, 0, 76, 76
2, 40105, Note_on_c, 0, 55, 0
2, 40137, Note_on_c, 0, 76, 0
2, 40138, Note_on_c, 0, 58, 71
2, 40142, Note_on_c, 0, 74, 76
2, 40169, Note_on_c, 0, 58, 0
2, 40197, Note_on_c, 0, 74, 0
2, 40231, Note_on_c, 0, 77, 71
2, 40232, Note_on_c, 0, 57, 63
2, 40261, Note_on_c, 0, 57, 0
2, 40301, Note_on_c, 0, 77, 0
2, 40308, Note_on_c, 0, 55, 67
2, 40308, Note_on_c, 0, 76, 74
2, 40346, Note_on_c, 0, 55, 0
2, 40356, Note_on_c, 0, 76, 0
2, 40386, Note_on_c, 0, 53, 52
2, 40393, Note_on_c, 0, 74, 68
2, 40415, Note_on_c, 0, 53, 0
2, 40428, Note_on_c, 0, 74, 0
2, 40478, Note_on_c, 0, 52, 77
2, 40481, Note_on_c, 0, 73, 88
2, 40508, Note_on_c, 0, 52, 0
2, 40528, Note_on_c, 0, 73, 0
2, 40571, Note_on_c, 0, 70, 75
2, 40582, Note_on_c, 0, 67, 70
2, 40613, Note_on_c, 0, 67, 0
2, 40626, Note_on_c, 0, 70, 0
2, 40664, Note_on_c, 0, 69, 73
2, 40675, Note_on_c, 0, 65, 59
2, 40700, Note_on_c, 0, 69, 0
2, 40713, Note_on_c, 0, 65, 0
2, 40751, Note_on_c, 0, 64, 48
2, 40753, Note_on_c, 0, 67, 64
2, 40785, Note_on_c, 0, 67, 0
2, 40786, Note_on_c, 0, 64, 0
2, 40838, Note_on_c, 0, 74, 80
2, 40840, Note_on_c, 0, 62, 72
2, 40873, Note_on_c, 0, 62, 0
2, 40887, Note_on_c, 0, 74, 0
2, 40919, Note_on_c, 0, 70, 76
2, 40928, Note_on_c, 0, 67, 69
2, 40957, Note_on_c, 0, 67, 0
2, 40976, Note_on_c, 0, 70, 0
2, 41015, Note_on_c, 0, 65, 58
2, 41016, Note_on_c, 0, 69, 68
2, 41047, Note_on_c, 0, 69, 0
2, 41052, Note_on_c, 0, 65, 0
2, 41076, Note_on_c, 0, 64, 56
2, 41091, Note_on_c, 0, 67, 68
2, 41104, Note_on_c, 0, 64, 0
2, 41126, Note_on_c, 0, 67, 0
2, 41172, Note_on_c, 0, 61, 70
2, 41175, Note_on_c, 0, 76, 82
2, 41201, Note_on_c, 0, 61, 0
2, 41236, Note_on_c, 0, 76, 0
2, 41255, Note_on_c, 0, 70, 69
2, 41275, Note_on_c, 0, 67, 53
2, 41298, Note_on_c, 0, 67, 0
2, 41316, Note_on_c, 0, 70, 0
2, 41335, Note_on_c, 0, 65, 56
2, 41343, Note_on_c, 0, 69, 69
2, 41365, Note_on_c, 0, 65, 0
2, 41384, Note_on_c, 0, 69, 0
2, 41402, Note_on_c, 0, 64, 35
2, 41403, Note_on_c, 0, 64, 0
2, 41419, Note_on_c, 0, 67, 56
2, 41454, Note_on_c, 0, 67, 0
2, 41508, Note_on_c, 0, 65, 68
2, 41512, Note_on_c, 0, 50, 66
2, 41535, Note_on_c, 0, 65, 0
2, 41540, Note_on_c, 0, 50, 0
2, 41603, Note_on_c, 0, 63, 61
2, 41624, Note_on_c, 0, 63, 0
2, 41686, Note_on_c, 0, 66, 72
2, 41689, Note_on_c, 0, 62, 64
2, 41712, Note_on_c, 0, 66, 0
2, 41743, Note_on_c, 0, 62, 0
2, 41771, Note_on_c, 0, 60, 56
2, 41822, Note_on_c, 0, 60, 0
2, 41856, Note_on_c, 0, 67, 74
2, 41858, Note_on_c, 0, 58, 59
2, 41879, Note_on_c, 0, 67, 0
2, 41888, Note_on_c, 0, 58, 0
2, 41945, Note_on_c, 0, 60, 59
2, 41974, Note_on_c, 0, 60, 0
2, 42019, Note_on_c, 0, 58, 62
2, 42030, Note_on_c, 0, 69, 67
2, 42054, Note_on_c, 0, 69, 0
2, 42057, Note_on_c, 0, 58, 0
2, 42122, Note_on_c, 0, 57, 50
2, 42166, Note_on_c, 0, 57, 0
2, 42210, Note_on_c, 0, 70, 79
2, 42216, Note_on_c, 0, 55, 57
2, 42234, Note_on_c, 0, 70, 0
2, 42249, Note_on_c, 0, 55, 0
2, 42306, Note_on_c, 0, 57, 54
2, 42344, Note_on_c, 0, 57, 0
2, 42399, Note_on_c, 0, 71, 84
2, 42403, Note_on_c, 0, 55, 44
2, 42422, Note_on_c, 0, 71, 0
2, 42441, Note_on_c, 0, 55, 0
2, 42471, Note_on_c, 0, 53, 47
2, 42514, Note_on_c, 0, 53, 0
2, 42566, Note_on_c, 0, 72, 89
2, 42567, Note_on_c, 0, 52, 55
2, 42594, Note_on_c, 0, 72, 0
2, 42608, Note_on_c, 0, 52, 0
2, 42644, Note_on_c, 0, 58, 68
2, 42684, Note_on_c, 0, 58, 0
2, 42744, Note_on_c, 0, 57, 66
2, 42744, Note_on_c, 0, 73, 91
2, 42780, Note_on_c, 0, 73, 0
2, 42790, Note_on_c, 0, 57, 0
2, 42833, Note_on_c, 0, 55, 68
2, 42875, Note_on_c, 0, 55, 0
2, 42918, Note_on_c, 0, 53, 73
2, 42923, Note_on_c, 0, 74, 97
2, 42971, Note_on_c, 0, 74, 0
2, 42973, Note_on_c, 0, 53, 0
2, 43009, Note_on_c, 0, 55, 72
2, 43066, Note_on_c, 0, 55, 0
2, 43098, Note_on_c, 0, 76, 100
2, 43105, Note_on_c, 0, 53, 71
2, 43133, Note_on_c, 0, 76, 0
2, 43172, Note_on_c, 0, 53, 0
2, 43179, Note_on_c, 0, 52, 56
2, 43250, Note_on_c, 0, 52, 0
2, 43273, Note_on_c, 0, 50, 69
2, 43273, Note_on_c, 0, 77, 101
2, 43312, Note_on_c, 0, 77, 0
2, 43355, Note_on_c, 0, 50, 0
2, 43356, Note_on_c, 0, 51, 80
2, 43422, Note_on_c, 0, 51, 0
2, 43450, Note_on_c, 0, 78, 94
2, 43453, Note_on_c, 0, 50, 75
2, 43507, Note_on_c, 0, 78, 0
2, 43519, Note_on_c, 0, 50, 0
2, 43520, Note_on_c, 0, 48, 80
2, 43557, Note_on_c, 0, 48, 0
2, 43615, Note_on_c, 0, 46, 89
2, 43615, Note_on_c, 0, 79, 90
2, 43639, Note_on_c, 0, 46, 0
2, 43657, Note_on_c, 0, 79, 0
2, 43696, Note_on_c, 0, 74, 77
2, 43764, Note_on_c, 0, 74, 0
2, 43799, Note_on_c, 0, 82, 87
2, 43802, Note_on_c, 0, 43, 92
2, 43830, Note_on_c, 0, 43, 0
2, 43839, Note_on_c, 0, 82, 0
2, 43887, Note_on_c, 0, 81, 81
2, 43973, Note_on_c, 0, 81, 0
2, 43977, Note_on_c, 0, 79, 90
2, 43979, Note_on_c, 0, 46, 94
2, 44022, Note_on_c, 0, 46, 0
2, 44040, Note_on_c, 0, 79, 0
2, 44061, Note_on_c, 0, 77, 87
2, 44105, Note_on_c, 0, 77, 0
2, 44153, Note_on_c, 0, 50, 100
2, 44158, Note_on_c, 0, 76, 87
2, 44173, Note_on_c, 0, 50, 0
2, 44213, Note_on_c, 0, 76, 0
2, 44244, Note_on_c, 0, 74, 78
2, 44304, Note_on_c, 0, 74, 0
2, 44341, Note_on_c, 0, 55, 96
2, 44348, Note_on_c, 0, 73, 75
2, 44414, Note_on_c, 0, 73, 0
2, 44422, Note_on_c, 0, 74, 71
2, 44515, Note_on_c, 0, 74, 0
2, 44516, Note_on_c, 0, 76, 80
2, 44591, Note_on_c, 0, 73, 76
2, 44593, Note_on_c, 0, 76, 0
2, 44624, Note_on_c, 0, 73, 0
2, 44633, Note_on_c, 0, 55, 0
2, 44680, Note_on_c, 0, 69, 83
2, 44701, Note_on_c, 0, 69, 0
2, 44752, Note_on_c, 0, 55, 78
2, 44787, Note_on_c, 0, 55, 0
2, 44842, Note_on_c, 0, 45, 76
2, 44859, Note_on_c, 0, 64, 91
2, 44887, Note_on_c, 0, 64, 0
2, 44916, Note_on_c, 0, 45, 0
2, 44928, Note_on_c, 0, 43, 62
2, 45012, Note_on_c, 0, 45, 78
2, 45022, Note_on_c, 0, 43, 0
2, 45022, Note_on_c, 0, 69, 94
2, 45054, Note_on_c, 0, 69, 0
2, 45061, Note_on_c, 0, 45, 0
2, 45118, Note_on_c, 0, 55, 70
2, 45152, Note_on_c, 0, 55, 0
2, 45186, Note_on_c, 0, 73, 91
2, 45211, Note_on_c, 0, 45, 74
2, 45211, Note_on_c, 0, 73, 0
2, 45250, Note_on_c, 0, 45, 0
2, 45312, Note_on_c, 0, 55, 62
2, 45339, Note_on_c, 0, 55, 0
2, 45362, Note_on_c, 0, 76, 91
2, 45379, Note_on_c, 0, 74, 83
2, 45386, Note_on_c, 0, 76, 0
2, 45399, Note_on_c, 0, 45, 71
2, 45434, Note_on_c, 0, 76, 85
2, 45437, Note_on_c, 0, 45, 0
2, 45444, Note_on_c, 0, 74, 0
2, 45472, Note_on_c, 0, 55, 69
2, 45507, Note_on_c, 0, 55, 0
2, 45564, Note_on_c, 0, 45, 72
2, 45608, Note_on_c, 0, 45, 0
2, 45644, Note_on_c, 0, 55, 71
2, 45678, Note_on_c, 0, 55, 0
2, 45727, Note_on_c, 0, 45, 77
2, 45758, Note_on_c, 0, 45, 0
2, 45810, Note_on_c, 0, 69, 86
2, 45812, Note_on_c, 0, 53, 73
2, 45822, Note_on_c, 0, 76, 0
2, 45843, Note_on_c, 0, 53, 0
2, 45861, Note_on_c, 0, 69, 0
2, 45883, Note_on_c, 0, 45, 54
2, 45897, Note_on_c, 0, 65, 87
2, 45944, Note_on_c, 0, 65, 0
2, 45957, Note_on_c, 0, 45, 0
2, 45966, Note_on_c, 0, 43, 64
2, 45981, Note_on_c, 0, 69, 83
2, 46033, Note_on_c, 0, 69, 0
2, 46059, Note_on_c, 0, 43, 0
2, 46063, Note_on_c, 0, 45, 68
2, 46077, Note_on_c, 0, 74, 82
2, 46100, Note_on_c, 0, 45, 0
2, 46113, Note_on_c, 0, 74, 0
2, 46153, Note_on_c, 0, 69, 77
2, 46155, Note_on_c, 0, 53, 66
2, 46183, Note_on_c, 0, 53, 0
2, 46202, Note_on_c, 0, 69, 0
2, 46233, Note_on_c, 0, 45, 54
2, 46246, Note_on_c, 0, 65, 66
2, 46279, Note_on_c, 0, 45, 0
2, 46280, Note_on_c, 0, 65, 0
2, 46314, Note_on_c, 0, 69, 70
2, 46322, Note_on_c, 0, 53, 48
2, 46337, Note_on_c, 0, 69, 0
2, 46358, Note_on_c, 0, 53, 0
2, 46403, Note_on_c, 0, 74, 80
2, 46426, Note_on_c, 0, 74, 0
2, 46427, Note_on_c, 0, 45, 63
2, 46431, Note_on_c, 0, 72, 68
2, 46461, Note_on_c, 0, 45, 0
2, 46480, Note_on_c, 0, 72, 0
2, 46486, Note_on_c, 0, 74, 80
2, 46504, Note_on_c, 0, 53, 50
2, 46539, Note_on_c, 0, 53, 0
2, 46599, Note_on_c, 0, 45, 62
2, 46635, Note_on_c, 0, 45, 0
2, 46673, Note_on_c, 0, 53, 58
2, 46712, Note_on_c, 0, 53, 0
2, 46764, Note_on_c, 0, 45, 62
2, 46802, Note_on_c, 0, 45, 0
2, 46855, Note_on_c, 0, 74, 0
2, 46865, Note_on_c, 0, 67, 57
2, 46877, Note_on_c, 0, 52, 42
2, 46905, Note_on_c, 0, 52, 0
2, 46907, Note_on_c, 0, 67, 0
2, 46943, Note_on_c, 0, 45, 49
2, 46951, Note_on_c, 0, 64, 64
2, 46986, Note_on_c, 0, 64, 0
2, 47013, Note_on_c, 0, 45, 0
2, 47028, Note_on_c, 0, 67, 58
2, 47051, Note_on_c, 0, 43, 46
2, 47066, Note_on_c, 0, 67, 0
2, 47116, Note_on_c, 0, 72, 71
2, 47122, Note_on_c, 0, 43, 0
2, 47137, Note_on_c, 0, 45, 59
2, 47151, Note_on_c, 0, 72, 0
2, 47176, Note_on_c, 0, 45, 0
2, 47212, Note_on_c, 0, 67, 55
2, 47224, Note_on_c, 0, 52, 54
2, 47250, Note_on_c, 0, 67, 0
2, 47253, Note_on_c, 0, 52, 0
2, 47306, Note_on_c, 0, 45, 52
2, 47306, Note_on_c, 0, 64, 52
2, 47344, Note_on_c, 0, 45, 0
2, 47347, Note_on_c, 0, 64, 0
2, 47362, Note_on_c, 0, 67, 63
2, 47378, Note_on_c, 0, 52, 44
2, 47390, Note_on_c, 0, 67, 0
2, 47419, Note_on_c, 0, 52, 0
2, 47471, Note_on_c, 0, 72, 57
2, 47483, Note_on_c, 0, 71, 58
2, 47489, Note_on_c, 0, 72, 0
2, 47490, Note_on_c, 0, 45, 50
2, 47502, Note_on_c, 0, 70, 66
2, 47502, Note_on_c, 0, 71, 0
2, 47520, Note_on_c, 0, 45, 0
2, 47546, Note_on_c, 0, 70, 0
2, 47565, Note_on_c, 0, 72, 73
2, 47568, Note_on_c, 0, 52, 45
2, 47610, Note_on_c, 0, 52, 0
2, 47660, Note_on_c, 0, 45, 55
2, 47695, Note_on_c, 0, 45, 0
2, 47736, Note_on_c, 0, 52, 51
2, 47769, Note_on_c, 0, 52, 0
2, 47836, Note_on_c, 0, 45, 54
2, 47867, Note_on_c, 0, 45, 0
2, 47915, Note_on_c, 0, 72, 0
2, 47922, Note_on_c, 0, 50, 62
2, 47925, Note_on_c, 0, 65, 60
2, 47959, Note_on_c, 0, 50, 0
2, 47971, Note_on_c, 0, 65, 0
2, 48017, Note_on_c, 0, 53, 51
2, 48017, Note_on_c, 0, 62, 59
2, 48043, Note_on_c, 0, 53, 0
2, 48057, Note_on_c, 0, 62, 0
2, 48094, Note_on_c, 0, 65, 62
2, 48097, Note_on_c, 0, 50, 38
2, 48124, Note_on_c, 0, 65, 0
2, 48130, Note_on_c, 0, 50, 0
2, 48173, Note_on_c, 0, 70, 78
2, 48186, Note_on_c, 0, 45, 63
2, 48217, Note_on_c, 0, 45, 0
2, 48219, Note_on_c, 0, 70, 0
2, 48259, Note_on_c, 0, 50, 58
2, 48268, Note_on_c, 0, 65, 70
2, 48299, Note_on_c, 0, 50, 0
2, 48313, Note_on_c, 0, 65, 0
2, 48366, Note_on_c, 0, 62, 65
2, 48369, Note_on_c, 0, 53, 66
2, 48400, Note_on_c, 0, 53, 0
2, 48401, Note_on_c, 0, 62, 0
2, 48431, Note_on_c, 0, 65, 68
2, 48456, Note_on_c, 0, 57, 53
2, 48464, Note_on_c, 0, 65, 0
2, 48480, Note_on_c, 0, 57, 0
2, 48524, Note_on_c, 0, 70, 75
2, 48535, Note_on_c, 0, 43, 69
2, 48562, Note_on_c, 0, 43, 0
2, 48587, Note_on_c, 0, 70, 0
2, 48605, Note_on_c, 0, 67, 71
2, 48615, Note_on_c, 0, 52, 68
2, 48647, Note_on_c, 0, 52, 0
2, 48663, Note_on_c, 0, 67, 0
2, 48696, Note_on_c, 0, 55, 67
2, 48697, Note_on_c, 0, 64, 71
2, 48730, Note_on_c, 0, 55, 0
2, 48734, Note_on_c, 0, 64, 0
2, 48779, Note_on_c, 0, 58, 72
2, 48788, Note_on_c, 0, 67, 61
2, 48810, Note_on_c, 0, 58, 0
2, 48823, Note_on_c, 0, 67, 0
2, 48874, Note_on_c, 0, 61, 75
2, 48878, Note_on_c, 0, 55, 81
2, 48905, Note_on_c, 0, 55, 0
2, 48914, Note_on_c, 0, 61, 0
2, 48963, Note_on_c, 0, 69, 60
2, 49025, Note_on_c, 0, 69, 0
2, 49047, Note_on_c, 0, 70, 65
2, 49053, Note_on_c, 0, 49, 76
2, 49080, Note_on_c, 0, 49, 0
2, 49117, Note_on_c, 0, 70, 0
2, 49132, Note_on_c, 0, 69, 68
2, 49199, Note_on_c, 0, 69, 0
2, 49242, Note_on_c, 0, 61, 70
2, 49247, Note_on_c, 0, 52, 80
2, 49274, Note_on_c, 0, 52, 0
2, 49281, Note_on_c, 0, 61, 0
2, 49321, Note_on_c, 0, 69, 68
2, 49394, Note_on_c, 0, 69, 0
2, 49416, Note_on_c, 0, 70, 69
2, 49421, Note_on_c, 0, 43, 65
2, 49447, Note_on_c, 0, 43, 0
2, 49499, Note_on_c, 0, 69, 67
2, 49501, Note_on_c, 0, 70, 0
2, 49538, Note_on_c, 0, 69, 0
2, 49598, Note_on_c, 0, 61, 79
2, 49625, Note_on_c, 0, 61, 0
2, 49678, Note_on_c, 0, 46, 76
2, 49711, Note_on_c, 0, 46, 0
2, 49757, Note_on_c, 0, 64, 80
2, 49768, Note_on_c, 0, 45, 75
2, 49826, Note_on_c, 0, 45, 0
2, 49848, Note_on_c, 0, 43, 72
2, 49893, Note_on_c, 0, 43, 0
2, 49947, Note_on_c, 0, 41, 91
2, 49991, Note_on_c, 0, 41, 0
2, 50020, Note_on_c, 0, 64, 0
2, 50022, Note_on_c, 0, 69, 74
2, 50038, Note_on_c, 0, 53, 75
2, 50066, Note_on_c, 0, 53, 0
2, 50089, Note_on_c, 0, 69, 0
2, 50117, Note_on_c, 0, 70, 58
2, 50119, Note_on_c, 0, 52, 65
2, 50155, Note_on_c, 0, 52, 0
2, 50187, Note_on_c, 0, 70, 0
2, 50205, Note_on_c, 0, 53, 68
2, 50208, Note_on_c, 0, 69, 50
2, 50235, Note_on_c, 0, 69, 0
2, 50244, Note_on_c, 0, 53, 0
2, 50290, Note_on_c, 0, 62, 69
2, 50302, Note_on_c, 0, 41, 73
2, 50326, Note_on_c, 0, 62, 0
2, 50341, Note_on_c, 0, 41, 0
2, 50369, Note_on_c, 0, 69, 59
2, 50389, Note_on_c, 0, 53, 64
2, 50418, Note_on_c, 0, 53, 0
2, 50432, Note_on_c, 0, 69, 0
2, 50467, Note_on_c, 0, 70, 60
2, 50470, Note_on_c, 0, 52, 70
2, 50498, Note_on_c, 0, 52, 0
2, 50504, Note_on_c, 0, 70, 0
2, 50539, Note_on_c, 0, 53, 67
2, 50559, Note_on_c, 0, 69, 54
2, 50580, Note_on_c, 0, 53, 0
2, 50592, Note_on_c, 0, 69, 0
2, 50648, Note_on_c, 0, 41, 77
2, 50648, Note_on_c, 0, 62, 77
2, 50675, Note_on_c, 0, 62, 0
2, 50685, Note_on_c, 0, 41, 0
2, 50730, Note_on_c, 0, 53, 70
2, 50758, Note_on_c, 0, 53, 0
2, 50816, Note_on_c, 0, 65, 90
2, 50822, Note_on_c, 0, 52, 70
2, 50867, Note_on_c, 0, 52, 0
2, 50892, Note_on_c, 0, 50, 76
2, 50925, Note_on_c, 0, 50, 0
2, 50986, Note_on_c, 0, 49, 90
2, 51026, Note_on_c, 0, 49, 0
2, 51078, Note_on_c, 0, 67, 76
2, 51079, Note_on_c, 0, 65, 0
2, 51142, Note_on_c, 0, 67, 0
2, 51176, Note_on_c, 0, 69, 71
2, 51181, Note_on_c, 0, 40, 79
2, 51210, Note_on_c, 0, 40, 0
2, 51236, Note_on_c, 0, 69, 0
2, 51252, Note_on_c, 0, 67, 74
2, 51307, Note_on_c, 0, 67, 0
2, 51351, Note_on_c, 0, 64, 82
2, 51352, Note_on_c, 0, 43, 75
2, 51383, Note_on_c, 0, 43, 0
2, 51417, Note_on_c, 0, 64, 0
2, 51442, Note_on_c, 0, 67, 73
2, 51517, Note_on_c, 0, 67, 0
2, 51526, Note_on_c, 0, 37, 71
2, 51527, Note_on_c, 0, 69, 71
2, 51553, Note_on_c, 0, 37, 0
2, 51605, Note_on_c, 0, 69, 0
2, 51613, Note_on_c, 0, 67, 71
2, 51643, Note_on_c, 0, 67, 0
2, 51707, Note_on_c, 0, 57, 82
2, 51738, Note_on_c, 0, 57, 0
2, 51783, Note_on_c, 0, 49, 58
2, 51818, Note_on_c, 0, 49, 0
2, 51864, Note_on_c, 0, 47, 74
2, 51867, Note_on_c, 0, 67, 92
2, 51917, Note_on_c, 0, 47, 0
2, 51950, Note_on_c, 0, 45, 79
2, 51982, Note_on_c, 0, 45, 0
2, 52060, Note_on_c, 0, 50, 92
2, 52093, Note_on_c, 0, 50, 0
2, 52137, Note_on_c, 0, 58, 77
2, 52146, Note_on_c, 0, 67, 0
2, 52218, Note_on_c, 0, 58, 0
2, 52240, Note_on_c, 0, 57, 72
2, 52252, Note_on_c, 0, 38, 82
2, 52273, Note_on_c, 0, 57, 0
2, 52280, Note_on_c, 0, 38, 0
2, 52322, Note_on_c, 0, 55, 73
2, 52402, Note_on_c, 0, 55, 0
2, 52428, Note_on_c, 0, 41, 83
2, 52438, Note_on_c, 0, 57, 64
2, 52456, Note_on_c, 0, 41, 0
2, 52475, Note_on_c, 0, 57, 0
2, 52508, Note_on_c, 0, 64, 74
2, 52572, Note_on_c, 0, 64, 0
2, 52603, Note_on_c, 0, 45, 83
2, 52608, Note_on_c, 0, 62, 80
2, 52626, Note_on_c, 0, 45, 0
2, 52688, Note_on_c, 0, 62, 0
2, 52701, Note_on_c, 0, 61, 69
2, 52773, Note_on_c, 0, 50, 75
2, 52785, Note_on_c, 0, 61, 0
2, 52800, Note_on_c, 0, 62, 76
2, 52804, Note_on_c, 0, 49, 79
2, 52805, Note_on_c, 0, 50, 0
2, 52845, Note_on_c, 0, 62, 0
2, 52857, Note_on_c, 0, 49, 0
2, 52863, Note_on_c, 0, 50, 85
2, 52882, Note_on_c, 0, 67, 75
2, 52945, Note_on_c, 0, 67, 0
2, 52960, Note_on_c, 0, 50, 0
2, 52967, Note_on_c, 0, 65, 76
2, 53035, Note_on_c, 0, 65, 0
2, 53049, Note_on_c, 0, 64, 67
2, 53076, Note_on_c, 0, 64, 0
2, 53133, Note_on_c, 0, 65, 86
2, 53181, Note_on_c, 0, 65, 0
2, 53217, Note_on_c, 0, 58, 75
2, 53225, Note_on_c, 0, 55, 61
2, 53248, Note_on_c, 0, 58, 0
2, 53255, Note_on_c, 0, 55, 0
2, 53325, Note_on_c, 0, 60, 63
2, 53328, Note_on_c, 0, 57, 45
2, 53353, Note_on_c, 0, 57, 0
2, 53355, Note_on_c, 0, 60, 0
2, 53393, Note_on_c, 0, 58, 68
2, 53402, Note_on_c, 0, 62, 70
2, 53418, Note_on_c, 0, 58, 0
2, 53432, Note_on_c, 0, 62, 0
2, 53495, Note_on_c, 0, 63, 81
2, 53499, Note_on_c, 0, 48, 67
2, 53528, Note_on_c, 0, 48, 0
2, 53536, Note_on_c, 0, 63, 0
2, 53577, Note_on_c, 0, 57, 69
2, 53590, Note_on_c, 0, 54, 59
2, 53609, Note_on_c, 0, 57, 0
2, 53616, Note_on_c, 0, 54, 0
2, 53668, Note_on_c, 0, 58, 62
2, 53681, Note_on_c, 0, 55, 58
2, 53705, Note_on_c, 0, 58, 0
2, 53719, Note_on_c, 0, 55, 0
2, 53764, Note_on_c, 0, 60, 65
2, 53778, Note_on_c, 0, 57, 45
2, 53800, Note_on_c, 0, 60, 0
2, 53807, Note_on_c, 0, 57, 0
2, 53858, Note_on_c, 0, 46, 63
2, 53858, Note_on_c, 0, 62, 79
2, 53889, Note_on_c, 0, 46, 0
2, 53900, Note_on_c, 0, 62, 0
2, 53944, Note_on_c, 0, 58, 68
2, 53947, Note_on_c, 0, 55, 64
2, 53970, Note_on_c, 0, 58, 0
2, 53976, Note_on_c, 0, 55, 0
2, 54030, Note_on_c, 0, 57, 60
2, 54054, Note_on_c, 0, 60, 63
2, 54070, Note_on_c, 0, 57, 0
2, 54096, Note_on_c, 0, 60, 0
2, 54126, Note_on_c, 0, 62, 63
2, 54132, Note_on_c, 0, 58, 51
2, 54154, Note_on_c, 0, 58, 0
2, 54160, Note_on_c, 0, 62, 0
2, 54228, Note_on_c, 0, 63, 81
2, 54238, Note_on_c, 0, 48, 69
2, 54265, Note_on_c, 0, 48, 0
2, 54267, Note_on_c, 0, 63, 0
2, 54313, Note_on_c, 0, 57, 68
2, 54328, Note_on_c, 0, 54, 60
2, 54346, Note_on_c, 0, 57, 0
2, 54357, Note_on_c, 0, 54, 0
2, 54407, Note_on_c, 0, 58, 59
2, 54420, Note_on_c, 0, 55, 56
2, 54434, Note_on_c, 0, 58, 0
2, 54445, Note_on_c, 0, 55, 0
2, 54500, Note_on_c, 0, 60, 64
2, 54537, Note_on_c, 0, 60, 0
2, 54540, Note_on_c, 0, 57, 10
2, 54564, Note_on_c, 0, 57, 0
2, 54598, Note_on_c, 0, 46, 70
2, 54601, Note_on_c, 0, 62, 78
2, 54627, Note_on_c, 0, 46, 0
2, 54638, Note_on_c, 0, 62, 0
2, 54683, Note_on_c, 0, 55, 67
2, 54683, Note_on_c, 0, 58, 72
2, 54714, Note_on_c, 0, 55, 0
2, 54717, Note_on_c, 0, 58, 0
2, 54781, Note_on_c, 0, 57, 58
2, 54785, Note_on_c, 0, 60, 67
2, 54815, Note_on_c, 0, 57, 0
2, 54830, Note_on_c, 0, 60, 0
2, 54861, Note_on_c, 0, 62, 61
2, 54863, Note_on_c, 0, 58, 56
2, 54888, Note_on_c, 0, 58, 0
2, 54901, Note_on_c, 0, 62, 0
2, 54947, Note_on_c, 0, 60, 78
2, 54969, Note_on_c, 0, 45, 58
2, 54983, Note_on_c, 0, 60, 0
2, 54998, Note_on_c, 0, 45, 0
2, 55039, Note_on_c, 0, 54, 70
2, 55044, Note_on_c, 0, 50, 65
2, 55069, Note_on_c, 0, 54, 0
2, 55073, Note_on_c, 0, 50, 0
2, 55127, Note_on_c, 0, 52, 66
2, 55131, Note_on_c, 0, 55, 71
2, 55154, Note_on_c, 0, 52, 0
2, 55163, Note_on_c, 0, 55, 0
2, 55201, Note_on_c, 0, 57, 72
2, 55212, Note_on_c, 0, 54, 73
2, 55239, Note_on_c, 0, 57, 0
2, 55252, Note_on_c, 0, 54, 0
2, 55304, Note_on_c, 0, 58, 78
2, 55323, Note_on_c, 0, 43, 70
2, 55367, Note_on_c, 0, 43, 0
2, 55405, Note_on_c, 0, 50, 65
2, 55442, Note_on_c, 0, 50, 0
2, 55485, Note_on_c, 0, 52, 63
2, 55511, Note_on_c, 0, 52, 0
2, 55533, Note_on_c, 0, 58, 0
2, 55560, Note_on_c, 0, 54, 71
2, 55584, Note_on_c, 0, 54, 0
2, 55644, Note_on_c, 0, 55, 83
2, 55720, Note_on_c, 0, 55, 0
2, 55736, Note_on_c, 0, 57, 76
2, 55769, Note_on_c, 0, 57, 0
2, 55817, Note_on_c, 0, 58, 76
2, 55838, Note_on_c, 0, 58, 0
2, 55899, Note_on_c, 0, 60, 81
2, 55942, Note_on_c, 0, 60, 0
2, 55988, Note_on_c, 0, 62, 78
2, 56035, Note_on_c, 0, 62, 0
2, 56075, Note_on_c, 0, 58, 73
2, 56102, Note_on_c, 0, 58, 0
2, 56167, Note_on_c, 0, 67, 85
2, 56193, Note_on_c, 0, 67, 0
2, 56244, Note_on_c, 0, 62, 82
2, 56281, Note_on_c, 0, 62, 0
2, 56331, Note_on_c, 0, 70, 83
2, 56368, Note_on_c, 0, 70, 0
2, 56415, Note_on_c, 0, 67, 83
2, 56459, Note_on_c, 0, 67, 0
2, 56505, Note_on_c, 0, 65, 82
2, 56541, Note_on_c, 0, 65, 0
2, 56582, Note_on_c, 0, 63, 77
2, 56633, Note_on_c, 0, 63, 0
2, 56676, Note_on_c, 0, 62, 80
2, 56711, Note_on_c, 0, 62, 0
2, 56753, Note_on_c, 0, 60, 66
2, 56798, Note_on_c, 0, 60, 0
2, 56850, Note_on_c, 0, 58, 66
2, 56876, Note_on_c, 0, 58, 0
2, 56936, Note_on_c, 0, 57, 52
2, 56969, Note_on_c, 0, 57, 0
2, 57015, Note_on_c, 0, 55, 68
2, 57041, Note_on_c, 0, 55, 0
2, 57097, Note_on_c, 0, 58, 74
2, 57128, Note_on_c, 0, 58, 0
2, 57199, Note_on_c, 0, 52, 70
2, 57239, Note_on_c, 0, 52, 0
2, 57270, Note_on_c, 0, 55, 64
2, 57296, Note_on_c, 0, 55, 0
2, 57364, Note_on_c, 0, 49, 78
2, 57445, Note_on_c, 0, 70, 84
2, 57495, Note_on_c, 0, 70, 0
2, 57533, Note_on_c, 0, 69, 89
2, 57601, Note_on_c, 0, 69, 0
2, 57621, Note_on_c, 0, 67, 86
2, 57677, Note_on_c, 0, 67, 0
2, 57682, Note_on_c, 0, 49, 0
2, 57708, Note_on_c, 0, 76, 88
2, 57786, Note_on_c, 0, 74, 77
2, 57805, Note_on_c, 0, 76, 0
2, 57872, Note_on_c, 0, 74, 0
2, 57878, Note_on_c, 0, 45, 86
2, 57880, Note_on_c, 0, 73, 80
2, 57905, Note_on_c, 0, 45, 0
2, 57959, Note_on_c, 0, 71, 74
2, 57959, Note_on_c, 0, 73, 0
2, 58021, Note_on_c, 0, 71, 0
2, 58053, Note_on_c, 0, 69, 77
2, 58061, Note_on_c, 0, 47, 87
2, 58092, Note_on_c, 0, 47, 0
2, 58094, Note_on_c, 0, 69, 0
2, 58140, Note_on_c, 0, 67, 72
2, 58224, Note_on_c, 0, 67, 0
2, 58233, Note_on_c, 0, 65, 76
2, 58234, Note_on_c, 0, 49, 76
2, 58265, Note_on_c, 0, 49, 0
2, 58290, Note_on_c, 0, 65, 0
2, 58332, Note_on_c, 0, 64, 71
2, 58367, Note_on_c, 0, 64, 0
2, 58424, Note_on_c, 0, 65, 85
2, 58431, Note_on_c, 0, 50, 86
2, 58461, Note_on_c, 0, 50, 0
2, 58479, Note_on_c, 0, 65, 0
2, 58520, Note_on_c, 0, 62, 66
2, 58550, Note_on_c, 0, 62, 0
2, 58609, Note_on_c, 0, 67, 91
2, 58613, Note_on_c, 0, 52, 79
2, 58642, Note_on_c, 0, 52, 0
2, 58670, Note_on_c, 0, 67, 0
2, 58702, Note_on_c, 0, 62, 71
2, 58735, Note_on_c, 0, 62, 0
2, 58782, Note_on_c, 0, 69, 92
2, 58792, Note_on_c, 0, 53, 85
2, 58824, Note_on_c, 0, 53, 0
2, 58838, Note_on_c, 0, 69, 0
2, 58874, Note_on_c, 0, 62, 70
2, 58924, Note_on_c, 0, 62, 0
2, 58963, Note_on_c, 0, 70, 88
2, 58968, Note_on_c, 0, 55, 80
2, 58992, Note_on_c, 0, 55, 0
2, 59021, Note_on_c, 0, 70, 0
2, 59037, Note_on_c, 0, 62, 75
2, 59083, Note_on_c, 0, 62, 0
2, 59159, Note_on_c, 0, 57, 69
2, 59187, Note_on_c, 0, 57, 0
2, 59204, Note_on_c, 0, 62, 68
2, 59255, Note_on_c, 0, 62, 0
2, 59324, Note_on_c, 0, 64, 57
2, 59329, Note_on_c, 0, 45, 56
2, 59362, Note_on_c, 0, 45, 0
2, 59368, Note_on_c, 0, 64, 0
2, 59387, Note_on_c, 0, 61, 58
2, 59443, Note_on_c, 0, 61, 0
2, 59497, Control_c, 0, 64, 49
2, 59501, Note_on_c, 0, 50, 55
2, 59511, Note_on_c, 0, 62, 53
2, 59513, Control_c, 0, 64, 63
2, 59528, Control_c, 0, 64, 70
2, 59531, Note_on_c, 0, 50, 0
2, 59543, Control_c, 0, 64, 78
2, 59559, Control_c, 0, 64, 86
2, 59559, Note_on_c, 0, 62, 0
2, 59574, Control_c, 0, 64, 90
2, 59596, Note_on_c, 0, 60, 62
2, 59619, Control_c, 0, 64, 88
2, 59635, Control_c, 0, 64, 82
2, 59650, Control_c, 0, 64, 76
2, 59654, Note_on_c, 0, 60, 0
2, 59665, Control_c, 0, 64, 69
2, 59681, Control_c, 0, 64, 64
2, 59689, Note_on_c, 0, 57, 52
2, 59691, Note_on_c, 0, 54, 58
2, 59695, Control_c, 0, 64, 48
2, 59711, Control_c, 0, 64, 0
2, 59718, Note_on_c, 0, 57, 0
2, 59721, Note_on_c, 0, 54, 0
2, 59778, Note_on_c, 0, 60, 50
2, 59819, Note_on_c, 0, 60, 0
2, 59865, Note_on_c, 0, 50, 51
2, 59871, Note_on_c, 0, 62, 59
2, 59895, Note_on_c, 0, 50, 0
2, 59920, Note_on_c, 0, 62, 0
2, 59943, Note_on_c, 0, 60, 60
2, 59996, Note_on_c, 0, 60, 0
2, 60045, Note_on_c, 0, 57, 52
2, 60054, Note_on_c, 0, 54, 52
2, 60066, Note_on_c, 0, 57, 0
2, 60081, Note_on_c, 0, 54, 0
2, 60124, Note_on_c, 0, 60, 57
2, 60171, Note_on_c, 0, 60, 0
2, 60209, Note_on_c, 0, 50, 59
2, 60224, Note_on_c, 0, 62, 51
2, 60235, Note_on_c, 0, 50, 0
2, 60273, Note_on_c, 0, 62, 0
2, 60290, Note_on_c, 0, 60, 61
2, 60337, Note_on_c, 0, 60, 0
2, 60391, Note_on_c, 0, 54, 60
2, 60394, Note_on_c, 0, 57, 58
2, 60421, Note_on_c, 0, 57, 0
2, 60427, Note_on_c, 0, 54, 0
2, 60460, Note_on_c, 0, 60, 59
2, 60492, Note_on_c, 0, 60, 0
2, 60555, Control_c, 0, 67, 9
2, 60557, Note_on_c, 0, 50, 60
2, 60562, Note_on_c, 0, 58, 68
2, 60570, Control_c, 0, 64, 30
2, 60570, Control_c, 0, 67, 23
2, 60583, Note_on_c, 0, 50, 0
2, 60585, Control_c, 0, 64, 48
2, 60585, Control_c, 0, 67, 35
2, 60601, Control_c, 0, 64, 52
2, 60601, Control_c, 0, 67, 72
2, 60605, Note_on_c, 0, 58, 0
2, 60623, Control_c, 0, 67, 100
2, 60638, Control_c, 0, 67, 119
2, 60653, Control_c, 0, 64, 51
2, 60653, Control_c, 0, 67, 127
2, 60653, Note_on_c, 0, 62, 60
2, 60668, Control_c, 0, 64, 45
2, 60684, Control_c, 0, 64, 32
2, 60699, Control_c, 0, 64, 0
2, 60706, Note_on_c, 0, 62, 0
2, 60734, Note_on_c, 0, 55, 57
2, 60739, Note_on_c, 0, 58, 63
2, 60762, Note_on_c, 0, 55, 0
2, 60777, Note_on_c, 0, 58, 0
2, 60831, Note_on_c, 0, 54, 54
2, 60874, Note_on_c, 0, 54, 0
2, 60906, Note_on_c, 0, 50, 55
2, 60918, Note_on_c, 0, 58, 57
2, 60933, Note_on_c, 0, 50, 0
2, 60952, Note_on_c, 0, 58, 0
2, 61006, Note_on_c, 0, 62, 43
2, 61054, Note_on_c, 0, 62, 0
2, 61087, Note_on_c, 0, 58, 58
2, 61089, Note_on_c, 0, 55, 60
2, 61112, Note_on_c, 0, 55, 0
2, 61131, Note_on_c, 0, 58, 0
2, 61172, Note_on_c, 0, 54, 56
2, 61205, Note_on_c, 0, 54, 0
2, 61257, Note_on_c, 0, 50, 61
2, 61266, Note_on_c, 0, 58, 54
2, 61287, Note_on_c, 0, 50, 0
2, 61305, Note_on_c, 0, 58, 0
2, 61358, Note_on_c, 0, 62, 48
2, 61413, Note_on_c, 0, 62, 0
2, 61445, Note_on_c, 0, 55, 63
2, 61456, Note_on_c, 0, 58, 51
2, 61472, Note_on_c, 0, 55, 0
2, 61489, Note_on_c, 0, 58, 0
2, 61531, Note_on_c, 0, 52, 47
2, 61557, Note_on_c, 0, 52, 0
2, 61630, Note_on_c, 0, 53, 61
2, 61632, Control_c, 0, 64, 34
2, 61639, Note_on_c, 0, 50, 47
2, 61648, Control_c, 0, 64, 53
2, 61662, Control_c, 0, 64, 59
2, 61668, Note_on_c, 0, 53, 0
2, 61669, Note_on_c, 0, 50, 0
2, 61678, Control_c, 0, 64, 61
2, 61693, Control_c, 0, 64, 61
2, 61715, Note_on_c, 0, 62, 58
2, 61723, Control_c, 0, 64, 60
2, 61738, Control_c, 0, 64, 55
2, 61753, Control_c, 0, 64, 45
2, 61755, Note_on_c, 0, 62, 0
2, 61769, Control_c, 0, 64, 13
2, 61784, Control_c, 0, 64, 0
2, 61819, Note_on_c, 0, 53, 48
2, 61825, Note_on_c, 0, 57, 36
2, 61847, Note_on_c, 0, 53, 0
2, 61856, Note_on_c, 0, 57, 0
2, 61904, Note_on_c, 0, 62, 35
2, 61936, Note_on_c, 0, 62, 0
2, 61985, Note_on_c, 0, 53, 45
2, 62003, Note_on_c, 0, 50, 26
2, 62024, Note_on_c, 0, 53, 0
2, 62051, Note_on_c, 0, 50, 0
2, 62065, Note_on_c, 0, 62, 49
2, 62114, Note_on_c, 0, 62, 0
2, 62177, Note_on_c, 0, 57, 51
2, 62184, Note_on_c, 0, 53, 41
2, 62202, Note_on_c, 0, 57, 0
2, 62214, Note_on_c, 0, 53, 0
2, 62259, Note_on_c, 0, 62, 50
2, 62302, Note_on_c, 0, 62, 0
2, 62342, Note_on_c, 0, 50, 53
2, 62346, Note_on_c, 0, 53, 47
2, 62368, Note_on_c, 0, 50, 0
2, 62387, Note_on_c, 0, 53, 0
2, 62430, Note_on_c, 0, 62, 49
2, 62474, Note_on_c, 0, 62, 0
2, 62525, Note_on_c, 0, 57, 55
2, 62527, Note_on_c, 0, 53, 52
2, 62553, Note_on_c, 0, 57, 0
2, 62562, Note_on_c, 0, 53, 0
2, 62598, Note_on_c, 0, 62, 45
2, 62632, Note_on_c, 0, 62, 0
2, 62686, Note_on_c, 0, 55, 63
2, 62690, Note_on_c, 0, 50, 56
2, 62703, Control_c, 0, 64, 15
2, 62715, Note_on_c, 0, 50, 0
2, 62721, Control_c, 0, 64, 46
2, 62721, Note_on_c, 0, 55, 0
2, 62735, Control_c, 0, 64, 53
2, 62750, Control_c, 0, 64, 54
2, 62766, Note_on_c, 0, 61, 52
2, 62781, Control_c, 0, 64, 54
2, 62795, Control_c, 0, 64, 49
2, 62804, Note_on_c, 0, 61, 0
2, 62811, Control_c, 0, 64, 37
2, 62826, Control_c, 0, 64, 0
2, 62866, Note_on_c, 0, 55, 57
2, 62869, Note_on_c, 0, 58, 55
2, 62892, Note_on_c, 0, 58, 0
2, 62899, Note_on_c, 0, 55, 0
2, 62960, Note_on_c, 0, 52, 52
2, 62992, Note_on_c, 0, 52, 0
2, 63048, Note_on_c, 0, 55, 53
2, 63054, Note_on_c, 0, 50, 50
2, 63079, Note_on_c, 0, 55, 0
2, 63083, Note_on_c, 0, 50, 0
2, 63135, Note_on_c, 0, 61, 52
2, 63171, Note_on_c, 0, 61, 0
2, 63238, Note_on_c, 0, 58, 56
2, 63247, Note_on_c, 0, 55, 45
2, 63267, Note_on_c, 0, 58, 0
2, 63285, Note_on_c, 0, 55, 0
2, 63334, Note_on_c, 0, 52, 43
2, 63364, Note_on_c, 0, 52, 0
2, 63431, Note_on_c, 0, 55, 51
2, 63443, Note_on_c, 0, 50, 51
2, 63468, Note_on_c, 0, 55, 0
2, 63470, Note_on_c, 0, 50, 0
2, 63543, Note_on_c, 0, 61, 36
2, 63572, Note_on_c, 0, 61, 0
2, 63661, Note_on_c, 0, 58, 54
2, 63693, Note_on_c, 0, 55, 33
2, 63701, Note_on_c, 0, 58, 0
2, 63724, Note_on_c, 0, 55, 0
2, 63810, Note_on_c, 0, 52, 38
2, 63845, Note_on_c, 0, 52, 0
2, 64188, Note_on_c, 0, 62, 53
2, 64197, Note_on_c, 0, 57, 40
2, 64200, Note_on_c, 0, 50, 32
2, 64204, Note_on_c, 0, 54, 36
2, 65717, Control_c, 0, 64, 28
2, 65731, Control_c, 0, 64, 37
2, 65746, Control_c, 0, 64, 43
2, 65762, Control_c, 0, 64, 48
2, 65777, Control_c, 0, 64, 52
2, 65793, Control_c, 0, 64, 56
2, 65807, Control_c, 0, 64, 59
2, 65822, Control_c, 0, 64, 61
2, 65838, Control_c, 0, 64, 63
2, 65853, Control_c, 0, 64, 64
2, 65867, Control_c, 0, 64, 65
2, 65883, Control_c, 0, 64, 67
2, 65898, Control_c, 0, 64, 68
2, 65914, Control_c, 0, 64, 70
2, 65928, Control_c, 0, 64, 72
2, 65943, Control_c, 0, 64, 74
2, 65959, Control_c, 0, 64, 77
2, 65974, Control_c, 0, 64, 79
2, 65998, Control_c, 0, 64, 80
2, 66013, Control_c, 0, 64, 81
2, 66028, Control_c, 0, 64, 82
2, 66044, Control_c, 0, 64, 82
2, 66059, Control_c, 0, 64, 83
2, 66089, Control_c, 0, 64, 83
2, 66173, Note_on_c, 0, 50, 0
2, 66221, Note_on_c, 0, 57, 0
2, 66268, Note_on_c, 0, 54, 0
2, 66341, Note_on_c, 0, 62, 0
2, 66561, Control_c, 0, 64, 83
2, 66575, Control_c, 0, 64, 82
2, 66591, Control_c, 0, 64, 81
2, 66606, Control_c, 0, 64, 80
2, 66621, Control_c, 0, 64, 78
2, 66637, Control_c, 0, 64, 78
2, 66652, Control_c, 0, 64, 77
2, 66667, Control_c, 0, 64, 76
2, 66683, Control_c, 0, 64, 74
2, 66698, Control_c, 0, 64, 72
2, 66713, Control_c, 0, 64, 69
2, 66728, Control_c, 0, 64, 67
2, 66743, Control_c, 0, 64, 65
2, 66766, Control_c, 0, 64, 64
2, 66781, Control_c, 0, 64, 61
2, 66796, Control_c, 0, 64, 55
2, 66812, Control_c, 0, 64, 48
2, 66827, Control_c, 0, 64, 43
2, 66843, Control_c, 0, 64, 40
2, 66858, Control_c, 0, 64, 37
2, 66874, Control_c, 0, 64, 33
2, 66888, Control_c, 0, 64, 21
2, 66903, Control_c, 0, 64, 0
2, 68432,End_track
0, 0, End_of_file
