0, 0, Header, 1, 2, 480
1, 0, Start_track
1, 0, Tempo, 500000
1, 0, Time_signature, 4, 2, 24, 8
1, 1, End_track
2, 0, Start_track
2, 0, Program_c, 0, 0
2, 943, Note_on_c, 0, 50, 62
2, 968, Note_on_c, 0, 74, 70
2, 996, Note_on_c, 0, 50, 0
2, 1000, Note_on_c, 0, 49, 74
2, 1090, Note_on_c, 0, 49, 0
2, 1092, Note_on_c, 0, 50, 67
2, 1203, Note_on_c, 0, 50, 0
2, 1268, Note_on_c, 0, 74, 0
2, 1305, Note_on_c, 0, 72, 65
2, 1414, Note_on_c, 0, 70, 59
2, 1414, Note_on_c, 0, 72, 0
2, 1507, Note_on_c, 0, 70, 0
2, 1511, Note_on_c, 0, 69, 67
2, 1520, Note_on_c, 0, 38, 56
2, 1585, Note_on_c, 0, 69, 0
2, 1635, Note_on_c, 0, 67, 55
2, 1725, Note_on_c, 0, 67, 0
2, 1755, Note_on_c, 0, 65, 46
2, 1813, Note_on_c, 0, 65, 0
2, 1858, Note_on_c, 0, 64, 56
2, 1948, Note_on_c, 0, 64, 0
2, 1974, Note_on_c, 0, 62, 58
2, 1988, Note_on_c, 0, 38, 0
2, 2046, Note_on_c, 0, 62, 0
2, 2066, Note_on_c, 0, 65, 58
2, 2127, Note_on_c, 0, 65, 0
2, 2187, Note_on_c, 0, 64, 58
2, 2244, Note_on_c, 0, 64, 0
2, 2299, Note_on_c, 0, 62, 57
2, 2361, Note_on_c, 0, 62, 0
2, 2400, Note_on_c, 0, 70, 69
2, 2507, Note_on_c, 0, 70, 0
2, 2514, Note_on_c, 0, 67, 56
2, 2578, Note_on_c, 0, 67, 0
2, 2610, Note_on_c, 0, 38, 62
2, 2623, Note_on_c, 0, 62, 50
2, 2653, Note_on_c, 0, 38, 0
2, 2684, Note_on_c, 0, 62, 0
2, 2730, Note_on_c, 0, 67, 55
2, 2796, Note_on_c, 0, 67, 0
2, 2828, Note_on_c, 0, 43, 68
2, 2833, Note_on_c, 0, 70, 68
2, 2872, Note_on_c, 0, 43, 0
2, 2889, Note_on_c, 0, 70, 0
2, 2943, Note_on_c, 0, 67, 61
2, 3016, Note_on_c, 0, 67, 0
2, 3043, Note_on_c, 0, 46, 69
2, 3055, Note_on_c, 0, 62, 56
2, 3083, Note_on_c, 0, 46, 0
2, 3126, Note_on_c, 0, 62, 0
2, 3158, Note_on_c, 0, 67, 61
2, 3237, Note_on_c, 0, 67, 0
2, 3247, Note_on_c, 0, 70, 83
2, 3252, Note_on_c, 0, 50, 76
2, 3333, Note_on_c, 0, 70, 0
2, 3360, Note_on_c, 0, 50, 0
2, 3360, Note_on_c, 0, 67, 73
2, 3367, Note_on_c, 0, 49, 70
2, 3439, Note_on_c, 0, 67, 0
2, 3477, Note_on_c, 0, 62, 61
2, 3480, Note_on_c, 0, 49, 0
2, 3481, Note_on_c, 0, 50, 66
2, 3553, Note_on_c, 0, 50, 0
2, 3585, Note_on_c, 0, 67, 63
2, 3590, Note_on_c, 0, 62, 0
2, 3692, Note_on_c, 0, 67, 0
2, 3693, Note_on_c, 0, 69, 70
2, 3791, Note_on_c, 0, 69, 0
2, 3817, Note_on_c, 0, 67, 56
2, 3870, Note_on_c, 0, 67, 0
2, 3916, Note_on_c, 0, 38, 62
2, 3926, Note_on_c, 0, 62, 52
2, 3959, Note_on_c, 0, 38, 0
2, 3988, Note_on_c, 0, 62, 0
2, 4026, Note_on_c, 0, 67, 51
2, 4116, Note_on_c, 0, 67, 0
2, 4133, Note_on_c, 0, 41, 60
2, 4133, Note_on_c, 0, 69, 63
2, 4178, Note_on_c, 0, 41, 0
2, 4194, Note_on_c, 0, 69, 0
2, 4245, Note_on_c, 0, 65, 58
2, 4327, Note_on_c, 0, 65, 0
2, 4354, Note_on_c, 0, 45, 54
2, 4368, Note_on_c, 0, 62, 52
2, 4387, Note_on_c, 0, 45, 0
2, 4446, Note_on_c, 0, 62, 0
2, 4478, Note_on_c, 0, 65, 56
2, 4554, Note_on_c, 0, 65, 0
2, 4570, Note_on_c, 0, 50, 65
2, 4573, Note_on_c, 0, 69, 67
2, 4642, Note_on_c, 0, 69, 0
2, 4651, Note_on_c, 0, 50, 0
2, 4671, Note_on_c, 0, 49, 64
2, 4687, Note_on_c, 0, 65, 61
2, 4766, Note_on_c, 0, 65, 0
2, 4770, Note_on_c, 0, 49, 0
2, 4794, Note_on_c, 0, 50, 53
2, 4809, Note_on_c, 0, 62, 54
2, 4869, Note_on_c, 0, 50, 0
2, 4903, Note_on_c, 0, 62, 0
2, 4915, Note_on_c, 0, 65, 61
2, 4993, Note_on_c, 0, 65, 0
2, 5019, Note_on_c, 0, 67, 59
2, 5114, Note_on_c, 0, 67, 0
2, 5134, Note_on_c, 0, 64, 63
2, 5214, Note_on_c, 0, 64, 0
2, 5251, Note_on_c, 0, 58, 52
2, 5260, Note_on_c, 0, 62, 49
2, 5303, Note_on_c, 0, 58, 0
2, 5333, Note_on_c, 0, 62, 0
2, 5361, Note_on_c, 0, 64, 63
2, 5450, Note_on_c, 0, 64, 0
2, 5466, Note_on_c, 0, 67, 66
2, 5476, Note_on_c, 0, 52, 60
2, 5534, Note_on_c, 0, 52, 0
2, 5565, Note_on_c, 0, 67, 0
2, 5578, Note_on_c, 0, 64, 72
2, 5675, Note_on_c, 0, 64, 0
2, 5688, Note_on_c, 0, 55, 64
2, 5693, Note_on_c, 0, 61, 68
2, 5740, Note_on_c, 0, 55, 0
2, 5781, Note_on_c, 0, 61, 0
2, 5801, Note_on_c, 0, 64, 73
2, 5888, Note_on_c, 0, 64, 0
2, 5898, Note_on_c, 0, 67, 69
2, 5914, Note_on_c, 0, 49, 63
2, 5961, Note_on_c, 0, 49, 0
2, 6003, Note_on_c, 0, 67, 0
2, 6022, Note_on_c, 0, 64, 63
2, 6083, Note_on_c, 0, 64, 0
2, 6131, Note_on_c, 0, 61, 61
2, 6158, Note_on_c, 0, 57, 56
2, 6211, Note_on_c, 0, 57, 0
2, 6229, Note_on_c, 0, 61, 0
2, 6238, Note_on_c, 0, 64, 62
2, 6324, Note_on_c, 0, 64, 0
2, 6358, Note_on_c, 0, 65, 59
2, 6371, Note_on_c, 0, 50, 51
2, 6496, Note_on_c, 0, 62, 45
2, 6597, Note_on_c, 0, 60, 54
2, 6599, Note_on_c, 0, 50, 0
2, 6614, Note_on_c, 0, 62, 0
2, 6706, Note_on_c, 0, 60, 0
2, 6720, Note_on_c, 0, 58, 58
2, 6822, Note_on_c, 0, 58, 0
2, 6840, Note_on_c, 0, 57, 53
2, 6957, Note_on_c, 0, 57, 0
2, 6967, Note_on_c, 0, 55, 45
2, 7045, Note_on_c, 0, 55, 0
2, 7078, Note_on_c, 0, 53, 50
2, 7182, Note_on_c, 0, 52, 54
2, 7212, Note_on_c, 0, 53, 0
2, 7241, Note_on_c, 0, 65, 0
2, 7283, Note_on_c, 0, 52, 0
2, 7305, Note_on_c, 0, 50, 53
2, 7389, Note_on_c, 0, 50, 0
2, 7420, Note_on_c, 0, 53, 49
2, 7508, Note_on_c, 0, 53, 0
2, 7538, Note_on_c, 0, 52, 54
2, 7621, Note_on_c, 0, 52, 0
2, 7642, Note_on_c, 0, 50, 52
2, 7707, Note_on_c, 0, 50, 0
2, 7770, Note_on_c, 0, 58, 51
2, 7839, Note_on_c, 0, 58, 0
2, 7867, Note_on_c, 0, 55, 52
2, 7962, Note_on_c, 0, 55, 0
2, 7986, Note_on_c, 0, 50, 50
2, 7986, Note_on_c, 0, 62, 48
2, 8032, Note_on_c, 0, 62, 0
2, 8075, Note_on_c, 0, 50, 0
2, 8120, Note_on_c, 0, 55, 51
2, 8188, Note_on_c, 0, 55, 0
2, 8204, Note_on_c, 0, 67, 73
2, 8222, Note_on_c, 0, 58, 54
2, 8273, Note_on_c, 0, 67, 0
2, 8320, Note_on_c, 0, 58, 0
2, 8326, Note_on_c, 0, 55, 58
2, 8408, Note_on_c, 0, 55, 0
2, 8423, Note_on_c, 0, 70, 78
2, 8428, Note_on_c, 0, 50, 58
2, 8464, Note_on_c, 0, 70, 0
2, 8536, Note_on_c, 0, 50, 0
2, 8566, Note_on_c, 0, 55, 55
2, 8633, Note_on_c, 0, 55, 0
2, 8639, Note_on_c, 0, 74, 78
2, 8665, Note_on_c, 0, 58, 61
2, 8701, Note_on_c, 0, 74, 0
2, 8703, Note_on_c, 0, 73, 68
2, 8757, Note_on_c, 0, 58, 0
2, 8765, Note_on_c, 0, 74, 69
2, 8775, Note_on_c, 0, 73, 0
2, 8781, Note_on_c, 0, 55, 51
2, 8836, Note_on_c, 0, 55, 0
2, 8855, Note_on_c, 0, 50, 61
2, 8958, Note_on_c, 0, 50, 0
2, 8966, Note_on_c, 0, 55, 54
2, 9029, Note_on_c, 0, 74, 0
2, 9062, Note_on_c, 0, 55, 0
2, 9116, Note_on_c, 0, 57, 55
2, 9201, Note_on_c, 0, 57, 0
2, 9228, Note_on_c, 0, 55, 51
2, 9303, Note_on_c, 0, 55, 0
2, 9336, Note_on_c, 0, 62, 56
2, 9338, Note_on_c, 0, 50, 52
2, 9386, Note_on_c, 0, 62, 0
2, 9439, Note_on_c, 0, 50, 0
2, 9441, Note_on_c, 0, 55, 54
2, 9504, Note_on_c, 0, 55, 0
2, 9549, Note_on_c, 0, 57, 51
2, 9561, Note_on_c, 0, 65, 66
2, 9616, Note_on_c, 0, 65, 0
2, 9662, Note_on_c, 0, 57, 0
2, 9682, Note_on_c, 0, 53, 48
2, 9744, Note_on_c, 0, 53, 0
2, 9775, Note_on_c, 0, 69, 64
2, 9784, Note_on_c, 0, 50, 58
2, 9815, Note_on_c, 0, 69, 0
2, 9884, Note_on_c, 0, 50, 0
2, 9896, Note_on_c, 0, 53, 47
2, 9953, Note_on_c, 0, 53, 0
2, 9995, Note_on_c, 0, 57, 57
2, 9998, Note_on_c, 0, 74, 68
2, 10044, Note_on_c, 0, 74, 0
2, 10054, Note_on_c, 0, 73, 63
2, 10072, Note_on_c, 0, 53, 54
2, 10079, Note_on_c, 0, 57, 0
2, 10115, Note_on_c, 0, 73, 0
2, 10125, Note_on_c, 0, 74, 65
2, 10136, Note_on_c, 0, 53, 0
2, 10178, Note_on_c, 0, 50, 52
2, 10267, Note_on_c, 0, 50, 0
2, 10282, Note_on_c, 0, 53, 52
2, 10353, Note_on_c, 0, 53, 0
2, 10422, Note_on_c, 0, 74, 0
2, 10437, Note_on_c, 0, 55, 46
2, 10508, Note_on_c, 0, 55, 0
2, 10538, Note_on_c, 0, 52, 54
2, 10626, Note_on_c, 0, 52, 0
2, 10660, Note_on_c, 0, 67, 56
2, 10678, Note_on_c, 0, 50, 51
2, 10707, Note_on_c, 0, 67, 0
2, 10748, Note_on_c, 0, 50, 0
2, 10778, Note_on_c, 0, 52, 52
2, 10853, Note_on_c, 0, 52, 0
2, 10882, Note_on_c, 0, 73, 71
2, 10888, Note_on_c, 0, 55, 55
2, 10935, Note_on_c, 0, 73, 0
2, 10977, Note_on_c, 0, 55, 0
2, 10999, Note_on_c, 0, 52, 55
2, 11082, Note_on_c, 0, 52, 0
2, 11097, Note_on_c, 0, 76, 81
2, 11099, Note_on_c, 0, 49, 61
2, 11173, Note_on_c, 0, 76, 0
2, 11211, Note_on_c, 0, 49, 0
2, 11226, Note_on_c, 0, 52, 64
2, 11319, Note_on_c, 0, 52, 0
2, 11329, Note_on_c, 0, 73, 84
2, 11345, Note_on_c, 0, 55, 60
2, 11393, Note_on_c, 0, 73, 0
2, 11445, Note_on_c, 0, 55, 0
2, 11467, Note_on_c, 0, 52, 56
2, 11539, Note_on_c, 0, 52, 0
2, 11553, Note_on_c, 0, 69, 78
2, 11562, Note_on_c, 0, 49, 60
2, 11631, Note_on_c, 0, 69, 0
2, 11664, Note_on_c, 0, 49, 0
2, 11679, Note_on_c, 0, 52, 56
2, 11757, Note_on_c, 0, 52, 0
2, 11787, Note_on_c, 0, 74, 75
2, 11792, Note_on_c, 0, 53, 57
2, 11902, Note_on_c, 0, 53, 0
2, 11927, Note_on_c, 0, 50, 58
2, 12024, Note_on_c, 0, 50, 0
2, 12030, Note_on_c, 0, 72, 71
2, 12036, Note_on_c, 0, 52, 52
2, 12036, Note_on_c, 0, 74, 0
2, 12125, Note_on_c, 0, 52, 0
2, 12143, Note_on_c, 0, 53, 57
2, 12144, Note_on_c, 0, 70, 71
2, 12175, Note_on_c, 0, 72, 0
2, 12224, Note_on_c, 0, 53, 0
2, 12247, Note_on_c, 0, 55, 55
2, 12252, Note_on_c, 0, 70, 0
2, 12254, Note_on_c, 0, 69, 73
2, 12318, Note_on_c, 0, 55, 0
2, 12349, Note_on_c, 0, 69, 0
2, 12355, Note_on_c, 0, 57, 51
2, 12368, Note_on_c, 0, 67, 66
2, 12436, Note_on_c, 0, 57, 0
2, 12453, Note_on_c, 0, 67, 0
2, 12478, Note_on_c, 0, 65, 67
2, 12481, Note_on_c, 0, 59, 63
2, 12552, Note_on_c, 0, 65, 0
2, 12575, Note_on_c, 0, 59, 0
2, 12585, Note_on_c, 0, 64, 69
2, 12596, Note_on_c, 0, 61, 59
2, 12668, Note_on_c, 0, 61, 0
2, 12676, Note_on_c, 0, 64, 0
2, 12697, Note_on_c, 0, 65, 71
2, 12704, Note_on_c, 0, 62, 56
2, 12746, Note_on_c, 0, 65, 0
2, 12809, Note_on_c, 0, 62, 0
2, 12833, Note_on_c, 0, 60, 50
2, 12911, Note_on_c, 0, 60, 0
2, 12938, Note_on_c, 0, 69, 80
2, 12947, Note_on_c, 0, 59, 60
2, 13028, Note_on_c, 0, 59, 0
2, 13074, Note_on_c, 0, 57, 54
2, 13171, Note_on_c, 0, 57, 0
2, 13181, Note_on_c, 0, 59, 59
2, 13242, Note_on_c, 0, 59, 0
2, 13264, Note_on_c, 0, 69, 0
2, 13290, Note_on_c, 0, 60, 53
2, 13293, Note_on_c, 0, 67, 69
2, 13386, Note_on_c, 0, 60, 0
2, 13393, Note_on_c, 0, 67, 0
2, 13398, Note_on_c, 0, 69, 78
2, 13400, Note_on_c, 0, 59, 59
2, 13505, Note_on_c, 0, 57, 62
2, 13506, Note_on_c, 0, 71, 81
2, 13508, Note_on_c, 0, 69, 0
2, 13521, Note_on_c, 0, 59, 0
2, 13553, Note_on_c, 0, 57, 0
2, 13578, Note_on_c, 0, 71, 0
2, 13622, Note_on_c, 0, 55, 67
2, 13622, Note_on_c, 0, 72, 74
2, 13709, Note_on_c, 0, 55, 0
2, 13723, Note_on_c, 0, 72, 0
2, 13724, Note_on_c, 0, 53, 59
2, 13727, Note_on_c, 0, 74, 78
2, 13818, Note_on_c, 0, 53, 0
2, 13826, Note_on_c, 0, 52, 66
2, 13839, Note_on_c, 0, 76, 79
2, 13846, Note_on_c, 0, 74, 0
2, 13918, Note_on_c, 0, 52, 0
2, 13931, Note_on_c, 0, 77, 77
2, 13935, Note_on_c, 0, 50, 60
2, 13984, Note_on_c, 0, 76, 0
2, 14048, Note_on_c, 0, 50, 0
2, 14049, Note_on_c, 0, 79, 80
2, 14057, Note_on_c, 0, 52, 66
2, 14062, Note_on_c, 0, 77, 0
2, 14106, Note_on_c, 0, 52, 0
2, 14182, Note_on_c, 0, 77, 66
2, 14188, Note_on_c, 0, 79, 0
2, 14259, Note_on_c, 0, 55, 58
2, 14277, Note_on_c, 0, 76, 75
2, 14308, Note_on_c, 0, 77, 0
2, 14313, Note_on_c, 0, 55, 0
2, 14376, Note_on_c, 0, 76, 0
2, 14393, Note_on_c, 0, 74, 66
2, 14477, Note_on_c, 0, 48, 59
2, 14507, Note_on_c, 0, 76, 70
2, 14512, Note_on_c, 0, 74, 0
2, 14583, Note_on_c, 0, 76, 0
2, 14630, Note_on_c, 0, 72, 60
2, 14698, Note_on_c, 0, 48, 0
2, 14723, Note_on_c, 0, 50, 49
2, 14728, Note_on_c, 0, 70, 68
2, 14732, Note_on_c, 0, 72, 0
2, 14809, Note_on_c, 0, 50, 0
2, 14831, Note_on_c, 0, 52, 52
2, 14844, Note_on_c, 0, 69, 63
2, 14859, Note_on_c, 0, 70, 0
2, 14922, Note_on_c, 0, 52, 0
2, 14933, Note_on_c, 0, 69, 0
2, 14939, Note_on_c, 0, 53, 54
2, 14958, Note_on_c, 0, 67, 57
2, 15008, Note_on_c, 0, 53, 0
2, 15029, Note_on_c, 0, 67, 0
2, 15049, Note_on_c, 0, 55, 46
2, 15064, Note_on_c, 0, 65, 57
2, 15128, Note_on_c, 0, 65, 0
2, 15141, Note_on_c, 0, 55, 0
2, 15173, Note_on_c, 0, 57, 55
2, 15181, Note_on_c, 0, 64, 58
2, 15233, Note_on_c, 0, 64, 0
2, 15266, Note_on_c, 0, 57, 0
2, 15285, Note_on_c, 0, 62, 51
2, 15289, Note_on_c, 0, 58, 56
2, 15367, Note_on_c, 0, 58, 0
2, 15368, Note_on_c, 0, 62, 0
2, 15398, Note_on_c, 0, 64, 59
2, 15417, Note_on_c, 0, 60, 45
2, 15444, Note_on_c, 0, 64, 0
2, 15495, Note_on_c, 0, 60, 0
2, 15525, Note_on_c, 0, 58, 49
2, 15597, Note_on_c, 0, 58, 0
2, 15632, Note_on_c, 0, 67, 59
2, 15642, Note_on_c, 0, 57, 55
2, 15714, Note_on_c, 0, 57, 0
2, 15761, Note_on_c, 0, 55, 55
2, 15867, Note_on_c, 0, 55, 0
2, 15874, Note_on_c, 0, 57, 56
2, 15940, Note_on_c, 0, 67, 0
2, 15943, Note_on_c, 0, 57, 0
2, 15981, Note_on_c, 0, 65, 54
2, 15991, Note_on_c, 0, 58, 49
2, 16050, Note_on_c, 0, 65, 0
2, 16073, Note_on_c, 0, 58, 0
2, 16096, Note_on_c, 0, 67, 50
2, 16102, Note_on_c, 0, 57, 53
2, 16193, Note_on_c, 0, 67, 0
2, 16196, Note_on_c, 0, 69, 63
2, 16206, Note_on_c, 0, 57, 0
2, 16209, Note_on_c, 0, 55, 49
2, 16244, Note_on_c, 0, 55, 0
2, 16279, Note_on_c, 0, 69, 0
2, 16303, Note_on_c, 0, 70, 69
2, 16329, Note_on_c, 0, 53, 47
2, 16345, Note_on_c, 0, 70, 0
2, 16388, Note_on_c, 0, 53, 0
2, 16411, Note_on_c, 0, 51, 49
2, 16413, Note_on_c, 0, 72, 62
2, 16486, Note_on_c, 0, 51, 0
2, 16501, Note_on_c, 0, 72, 0
2, 16521, Note_on_c, 0, 50, 58
2, 16534, Note_on_c, 0, 74, 51
2, 16589, Note_on_c, 0, 50, 0
2, 16600, Note_on_c, 0, 74, 0
2, 16628, Note_on_c, 0, 48, 49
2, 16628, Note_on_c, 0, 75, 63
2, 16719, Note_on_c, 0, 48, 0
2, 16728, Note_on_c, 0, 50, 61
2, 16733, Note_on_c, 0, 75, 0
2, 16740, Note_on_c, 0, 77, 64
2, 16782, Note_on_c, 0, 50, 0
2, 16850, Note_on_c, 0, 77, 0
2, 16869, Note_on_c, 0, 75, 66
2, 16951, Note_on_c, 0, 53, 44
2, 16957, Note_on_c, 0, 75, 0
2, 16981, Note_on_c, 0, 74, 56
2, 16997, Note_on_c, 0, 53, 0
2, 17053, Note_on_c, 0, 74, 0
2, 17083, Note_on_c, 0, 72, 54
2, 17148, Control_c, 0, 64, 46
2, 17154, Note_on_c, 0, 72, 0
2, 17168, Control_c, 0, 64, 62
2, 17174, Note_on_c, 0, 46, 43
2, 17186, Control_c, 0, 64, 65
2, 17206, Control_c, 0, 64, 70
2, 17209, Note_on_c, 0, 74, 52
2, 17212, Note_on_c, 0, 46, 0
2, 17225, Control_c, 0, 64, 77
2, 17244, Control_c, 0, 64, 92
2, 17263, Control_c, 0, 64, 127
2, 17293, Note_on_c, 0, 74, 0
2, 17314, Note_on_c, 0, 77, 63
2, 17398, Note_on_c, 0, 77, 0
2, 17432, Note_on_c, 0, 58, 64
2, 17436, Note_on_c, 0, 74, 63
2, 17438, Control_c, 0, 64, 84
2, 17456, Control_c, 0, 64, 63
2, 17476, Control_c, 0, 64, 0
2, 17492, Note_on_c, 0, 74, 0
2, 17538, Note_on_c, 0, 72, 64
2, 17539, Note_on_c, 0, 60, 63
2, 17554, Note_on_c, 0, 58, 0
2, 17624, Note_on_c, 0, 72, 0
2, 17637, Note_on_c, 0, 62, 73
2, 17650, Note_on_c, 0, 70, 69
2, 17666, Note_on_c, 0, 60, 0
2, 17707, Note_on_c, 0, 62, 0
2, 17727, Note_on_c, 0, 70, 0
2, 17765, Note_on_c, 0, 74, 52
2, 17825, Note_on_c, 0, 74, 0
2, 17870, Note_on_c, 0, 70, 66
2, 17873, Note_on_c, 0, 65, 61
2, 17922, Note_on_c, 0, 65, 0
2, 17945, Note_on_c, 0, 70, 0
2, 17976, Note_on_c, 0, 69, 62
2, 18066, Note_on_c, 0, 69, 0
2, 18103, Note_on_c, 0, 58, 62
2, 18104, Note_on_c, 0, 67, 58
2, 18153, Note_on_c, 0, 58, 0
2, 18173, Note_on_c, 0, 67, 0
2, 18210, Note_on_c, 0, 70, 59
2, 18297, Note_on_c, 0, 70, 0
2, 18318, Note_on_c, 0, 62, 55
2, 18328, Note_on_c, 0, 67, 56
2, 18359, Note_on_c, 0, 62, 0
2, 18397, Note_on_c, 0, 67, 0
2, 18429, Note_on_c, 0, 65, 54
2, 18491, Note_on_c, 0, 65, 0
2, 18532, Control_c, 0, 64, 50
2, 18535, Note_on_c, 0, 64, 69
2, 18540, Note_on_c, 0, 55, 46
2, 18550, Control_c, 0, 64, 71
2, 18570, Control_c, 0, 64, 85
2, 18574, Note_on_c, 0, 64, 0
2, 18589, Control_c, 0, 64, 127
2, 18599, Note_on_c, 0, 55, 0
2, 18662, Note_on_c, 0, 58, 54
2, 18704, Control_c, 0, 64, 105
2, 18711, Note_on_c, 0, 58, 0
2, 18724, Control_c, 0, 64, 71
2, 18742, Note_on_c, 0, 55, 59
2, 18743, Control_c, 0, 64, 46
2, 18762, Control_c, 0, 64, 0
2, 18784, Note_on_c, 0, 76, 75
2, 18865, Note_on_c, 0, 55, 0
2, 18879, Note_on_c, 0, 76, 0
2, 18881, Note_on_c, 0, 77, 83
2, 18895, Note_on_c, 0, 53, 48
2, 18983, Note_on_c, 0, 79, 92
2, 18988, Note_on_c, 0, 52, 46
2, 18988, Note_on_c, 0, 53, 0
2, 18992, Note_on_c, 0, 77, 0
2, 19042, Note_on_c, 0, 52, 0
2, 19049, Note_on_c, 0, 79, 0
2, 19112, Note_on_c, 0, 55, 56
2, 19181, Note_on_c, 0, 55, 0
2, 19204, Note_on_c, 0, 52, 53
2, 19213, Note_on_c, 0, 82, 86
2, 19284, Note_on_c, 0, 82, 0
2, 19304, Note_on_c, 0, 52, 0
2, 19313, Note_on_c, 0, 50, 56
2, 19413, Note_on_c, 0, 49, 60
2, 19418, Note_on_c, 0, 50, 0
2, 19441, Note_on_c, 0, 76, 75
2, 19478, Note_on_c, 0, 49, 0
2, 19507, Note_on_c, 0, 76, 0
2, 19543, Note_on_c, 0, 52, 45
2, 19615, Note_on_c, 0, 52, 0
2, 19629, Note_on_c, 0, 49, 52
2, 19668, Note_on_c, 0, 79, 69
2, 19717, Note_on_c, 0, 49, 0
2, 19720, Note_on_c, 0, 79, 0
2, 19748, Note_on_c, 0, 47, 54
2, 19841, Note_on_c, 0, 47, 0
2, 19854, Control_c, 0, 64, 65
2, 19855, Note_on_c, 0, 45, 51
2, 19873, Control_c, 0, 64, 89
2, 19885, Note_on_c, 0, 73, 66
2, 19893, Control_c, 0, 64, 127
2, 19898, Note_on_c, 0, 45, 0
2, 19977, Note_on_c, 0, 73, 0
2, 20000, Note_on_c, 0, 79, 64
2, 20047, Control_c, 0, 64, 91
2, 20065, Control_c, 0, 64, 62
2, 20070, Note_on_c, 0, 79, 0
2, 20085, Control_c, 0, 64, 0
2, 20121, Note_on_c, 0, 73, 65
2, 20123, Note_on_c, 0, 57, 66
2, 20186, Note_on_c, 0, 73, 0
2, 20220, Note_on_c, 0, 71, 59
2, 20224, Note_on_c, 0, 57, 0
2, 20234, Note_on_c, 0, 59, 69
2, 20314, Note_on_c, 0, 71, 0
2, 20328, Note_on_c, 0, 61, 77
2, 20330, Note_on_c, 0, 69, 70
2, 20339, Note_on_c, 0, 59, 0
2, 20393, Note_on_c, 0, 61, 0
2, 20417, Note_on_c, 0, 69, 0
2, 20447, Note_on_c, 0, 76, 64
2, 20511, Note_on_c, 0, 76, 0
2, 20566, Note_on_c, 0, 64, 70
2, 20572, Note_on_c, 0, 69, 62
2, 20617, Note_on_c, 0, 64, 0
2, 20645, Note_on_c, 0, 69, 0
2, 20674, Note_on_c, 0, 67, 57
2, 20741, Note_on_c, 0, 67, 0
2, 20783, Note_on_c, 0, 57, 68
2, 20799, Note_on_c, 0, 65, 59
2, 20838, Note_on_c, 0, 57, 0
2, 20859, Note_on_c, 0, 65, 0
2, 20904, Note_on_c, 0, 74, 52
2, 20971, Note_on_c, 0, 74, 0
2, 21015, Note_on_c, 0, 65, 55
2, 21017, Note_on_c, 0, 55, 63
2, 21065, Note_on_c, 0, 55, 0
2, 21084, Note_on_c, 0, 65, 0
2, 21122, Note_on_c, 0, 64, 56
2, 21165, Note_on_c, 0, 64, 0
2, 21220, Note_on_c, 0, 53, 60
2, 21222, Note_on_c, 0, 62, 67
2, 21258, Control_c, 0, 64, 62
2, 21260, Note_on_c, 0, 62, 0
2, 21278, Control_c, 0, 64, 84
2, 21295, Note_on_c, 0, 53, 0
2, 21296, Control_c, 0, 64, 127
2, 21336, Note_on_c, 0, 62, 62
2, 21408, Note_on_c, 0, 62, 0
2, 21416, Control_c, 0, 64, 96
2, 21434, Control_c, 0, 64, 64
2, 21450, Note_on_c, 0, 74, 70
2, 21451, Control_c, 0, 64, 0
2, 21455, Note_on_c, 0, 53, 57
2, 21534, Note_on_c, 0, 74, 0
2, 21545, Note_on_c, 0, 53, 0
2, 21552, Note_on_c, 0, 76, 79
2, 21563, Note_on_c, 0, 52, 57
2, 21662, Note_on_c, 0, 77, 86
2, 21672, Note_on_c, 0, 50, 58
2, 21675, Note_on_c, 0, 52, 0
2, 21682, Note_on_c, 0, 76, 0
2, 21727, Note_on_c, 0, 77, 0
2, 21741, Note_on_c, 0, 50, 0
2, 21791, Note_on_c, 0, 57, 58
2, 21867, Note_on_c, 0, 57, 0
2, 21880, Note_on_c, 0, 81, 80
2, 21899, Note_on_c, 0, 50, 50
2, 21960, Note_on_c, 0, 81, 0
2, 21987, Note_on_c, 0, 50, 0
2, 21988, Note_on_c, 0, 48, 53
2, 22104, Note_on_c, 0, 48, 0
2, 22111, Note_on_c, 0, 46, 52
2, 22117, Note_on_c, 0, 74, 70
2, 22160, Note_on_c, 0, 74, 0
2, 22178, Note_on_c, 0, 46, 0
2, 22228, Note_on_c, 0, 53, 50
2, 22303, Note_on_c, 0, 53, 0
2, 22308, Note_on_c, 0, 46, 57
2, 22336, Note_on_c, 0, 72, 61
2, 22383, Note_on_c, 0, 72, 0
2, 22418, Note_on_c, 0, 46, 0
2, 22433, Note_on_c, 0, 45, 49
2, 22532, Note_on_c, 0, 45, 0
2, 22543, Note_on_c, 0, 43, 49
2, 22555, Note_on_c, 0, 70, 61
2, 22585, Note_on_c, 0, 43, 0
2, 22600, Control_c, 0, 64, 58
2, 22620, Control_c, 0, 64, 71
2, 22638, Note_on_c, 0, 70, 0
2, 22639, Control_c, 0, 64, 87
2, 22658, Control_c, 0, 64, 127
2, 22665, Note_on_c, 0, 79, 58
2, 22734, Note_on_c, 0, 79, 0
2, 22754, Control_c, 0, 64, 91
2, 22774, Control_c, 0, 64, 67
2, 22791, Note_on_c, 0, 70, 58
2, 22793, Control_c, 0, 64, 42
2, 22811, Note_on_c, 0, 55, 52
2, 22812, Control_c, 0, 64, 0
2, 22843, Note_on_c, 0, 70, 0
2, 22889, Note_on_c, 0, 69, 57
2, 22913, Note_on_c, 0, 55, 0
2, 22936, Note_on_c, 0, 57, 57
2, 22975, Note_on_c, 0, 69, 0
2, 23003, Note_on_c, 0, 67, 57
2, 23006, Note_on_c, 0, 57, 0
2, 23035, Note_on_c, 0, 58, 38
2, 23078, Note_on_c, 0, 58, 0
2, 23079, Note_on_c, 0, 67, 0
2, 23105, Note_on_c, 0, 70, 56
2, 23191, Note_on_c, 0, 70, 0
2, 23235, Note_on_c, 0, 67, 51
2, 23245, Note_on_c, 0, 62, 33
2, 23280, Note_on_c, 0, 67, 0
2, 23287, Note_on_c, 0, 62, 0
2, 23339, Note_on_c, 0, 65, 45
2, 23430, Note_on_c, 0, 65, 0
2, 23460, Note_on_c, 0, 63, 55
2, 23468, Note_on_c, 0, 55, 39
2, 23510, Note_on_c, 0, 55, 0
2, 23517, Note_on_c, 0, 63, 0
2, 23558, Note_on_c, 0, 70, 51
2, 23629, Note_on_c, 0, 70, 0
2, 23680, Note_on_c, 0, 63, 47
2, 23699, Note_on_c, 0, 58, 32
2, 23740, Note_on_c, 0, 58, 0
2, 23746, Note_on_c, 0, 63, 0
2, 23805, Note_on_c, 0, 62, 35
2, 23865, Note_on_c, 0, 62, 0
2, 23919, Note_on_c, 0, 57, 46
2, 23919, Note_on_c, 0, 61, 47
2, 23969, Note_on_c, 0, 57, 0
2, 23989, Note_on_c, 0, 61, 0
2, 24036, Note_on_c, 0, 69, 43
2, 24109, Note_on_c, 0, 69, 0
2, 24151, Note_on_c, 0, 61, 48
2, 24176, Note_on_c, 0, 64, 35
2, 24219, Note_on_c, 0, 64, 0
2, 24225, Note_on_c, 0, 61, 0
2, 24274, Note_on_c, 0, 59, 47
2, 24336, Note_on_c, 0, 59, 0
2, 24383, Note_on_c, 0, 61, 53
2, 24396, Note_on_c, 0, 57, 37
2, 24441, Note_on_c, 0, 57, 0
2, 24459, Note_on_c, 0, 61, 0
2, 24507, Note_on_c, 0, 69, 48
2, 24569, Note_on_c, 0, 69, 0
2, 24615, Note_on_c, 0, 61, 54
2, 24628, Note_on_c, 0, 64, 39
2, 24671, Note_on_c, 0, 64, 0
2, 24679, Note_on_c, 0, 61, 0
2, 24718, Note_on_c, 0, 69, 49
2, 24789, Note_on_c, 0, 69, 0
2, 24841, Note_on_c, 0, 61, 51
2, 24842, Note_on_c, 0, 57, 42
2, 24893, Note_on_c, 0, 57, 0
2, 24903, Note_on_c, 0, 61, 0
2, 24949, Note_on_c, 0, 69, 43
2, 25009, Note_on_c, 0, 69, 0
2, 25066, Note_on_c, 0, 61, 47
2, 25074, Note_on_c, 0, 64, 41
2, 25115, Note_on_c, 0, 64, 0
2, 25137, Note_on_c, 0, 61, 0
2, 25167, Note_on_c, 0, 69, 47
2, 25250, Note_on_c, 0, 69, 0
2, 25306, Note_on_c, 0, 61, 50
2, 25307, Note_on_c, 0, 55, 40
2, 25348, Note_on_c, 0, 55, 0
2, 25370, Note_on_c, 0, 61, 0
2, 25407, Note_on_c, 0, 69, 48
2, 25480, Note_on_c, 0, 69, 0
2, 25527, Note_on_c, 0, 61, 45
2, 25561, Note_on_c, 0, 64, 20
2, 25598, Note_on_c, 0, 64, 0
2, 25601, Note_on_c, 0, 61, 0
2, 25654, Note_on_c, 0, 59, 45
2, 25713, Note_on_c, 0, 59, 0
2, 25762, Note_on_c, 0, 61, 50
2, 25769, Note_on_c, 0, 55, 39
2, 25809, Note_on_c, 0, 55, 0
2, 25838, Note_on_c, 0, 61, 0
2, 25884, Note_on_c, 0, 69, 44
2, 25943, Note_on_c, 0, 69, 0
2, 25990, Note_on_c, 0, 61, 57
2, 26011, Note_on_c, 0, 64, 38
2, 26052, Note_on_c, 0, 64, 0
2, 26059, Note_on_c, 0, 61, 0
2, 26102, Note_on_c, 0, 69, 48
2, 26172, Note_on_c, 0, 69, 0
2, 26225, Note_on_c, 0, 61, 54
2, 26236, Note_on_c, 0, 55, 43
2, 26276, Note_on_c, 0, 55, 0
2, 26289, Note_on_c, 0, 61, 0
2, 26332, Note_on_c, 0, 69, 47
2, 26394, Note_on_c, 0, 69, 0
2, 26452, Note_on_c, 0, 61, 50
2, 26465, Note_on_c, 0, 64, 44
2, 26503, Note_on_c, 0, 64, 0
2, 26512, Note_on_c, 0, 61, 0
2, 26541, Note_on_c, 0, 69, 50
2, 26625, Note_on_c, 0, 69, 0
2, 26682, Note_on_c, 0, 53, 44
2, 26693, Note_on_c, 0, 62, 47
2, 26734, Note_on_c, 0, 53, 0
2, 26749, Note_on_c, 0, 62, 0
2, 26783, Note_on_c, 0, 69, 48
2, 26852, Note_on_c, 0, 69, 0
2, 26903, Note_on_c, 0, 62, 45
2, 26933, Note_on_c, 0, 65, 23
2, 26980, Note_on_c, 0, 65, 0
2, 27002, Note_on_c, 0, 62, 0
2, 27036, Note_on_c, 0, 61, 50
2, 27094, Note_on_c, 0, 61, 0
2, 27148, Note_on_c, 0, 53, 43
2, 27162, Note_on_c, 0, 62, 54
2, 27198, Note_on_c, 0, 53, 0
2, 27225, Note_on_c, 0, 62, 0
2, 27258, Note_on_c, 0, 69, 60
2, 27330, Note_on_c, 0, 69, 0
2, 27373, Note_on_c, 0, 62, 59
2, 27374, Note_on_c, 0, 65, 43
2, 27413, Note_on_c, 0, 65, 0
2, 27455, Note_on_c, 0, 62, 0
2, 27481, Note_on_c, 0, 69, 61
2, 27567, Note_on_c, 0, 69, 0
2, 27601, Note_on_c, 0, 53, 52
2, 27606, Note_on_c, 0, 62, 59
2, 27656, Note_on_c, 0, 53, 0
2, 27680, Note_on_c, 0, 62, 0
2, 27712, Note_on_c, 0, 69, 64
2, 27780, Note_on_c, 0, 69, 0
2, 27827, Note_on_c, 0, 62, 62
2, 27829, Note_on_c, 0, 65, 49
2, 27874, Note_on_c, 0, 65, 0
2, 27876, Note_on_c, 0, 62, 0
2, 27920, Note_on_c, 0, 69, 63
2, 27996, Note_on_c, 0, 69, 0
2, 28039, Note_on_c, 0, 61, 53
2, 28050, Note_on_c, 0, 64, 65
2, 28088, Note_on_c, 0, 61, 0
2, 28106, Note_on_c, 0, 64, 0
2, 28134, Note_on_c, 0, 69, 59
2, 28226, Note_on_c, 0, 69, 0
2, 28250, Note_on_c, 0, 64, 65
2, 28290, Note_on_c, 0, 67, 26
2, 28336, Note_on_c, 0, 67, 0
2, 28347, Note_on_c, 0, 64, 0
2, 28377, Note_on_c, 0, 62, 55
2, 28464, Note_on_c, 0, 62, 0
2, 28497, Note_on_c, 0, 64, 61
2, 28510, Note_on_c, 0, 61, 40
2, 28549, Note_on_c, 0, 61, 0
2, 28572, Note_on_c, 0, 64, 0
2, 28606, Note_on_c, 0, 69, 53
2, 28686, Note_on_c, 0, 69, 0
2, 28721, Note_on_c, 0, 64, 57
2, 28733, Note_on_c, 0, 67, 40
2, 28770, Note_on_c, 0, 67, 0
2, 28789, Note_on_c, 0, 64, 0
2, 28830, Note_on_c, 0, 69, 55
2, 28881, Note_on_c, 0, 69, 0
2, 28936, Note_on_c, 0, 64, 60
2, 28950, Note_on_c, 0, 61, 40
2, 28990, Note_on_c, 0, 61, 0
2, 28998, Note_on_c, 0, 64, 0
2, 29045, Note_on_c, 0, 69, 51
2, 29096, Note_on_c, 0, 69, 0
2, 29148, Note_on_c, 0, 64, 54
2, 29181, Note_on_c, 0, 67, 27
2, 29207, Note_on_c, 0, 64, 0
2, 29226, Note_on_c, 0, 67, 0
2, 29242, Note_on_c, 0, 69, 45
2, 29277, Note_on_c, 0, 69, 0
2, 29378, Control_c, 0, 64, 38
2, 29387, Note_on_c, 0, 65, 53
2, 29397, Control_c, 0, 64, 60
2, 29402, Note_on_c, 0, 62, 32
2, 29417, Control_c, 0, 64, 64
2, 29436, Control_c, 0, 64, 67
2, 29448, Note_on_c, 0, 62, 0
2, 29455, Control_c, 0, 64, 71
2, 29462, Note_on_c, 0, 65, 0
2, 29474, Control_c, 0, 64, 77
2, 29474, Note_on_c, 0, 69, 59
2, 29494, Control_c, 0, 64, 87
2, 29513, Control_c, 0, 64, 113
2, 29532, Control_c, 0, 64, 127
2, 29539, Note_on_c, 0, 71, 61
2, 29551, Note_on_c, 0, 69, 0
2, 29589, Control_c, 0, 64, 83
2, 29590, Note_on_c, 0, 73, 65
2, 29600, Note_on_c, 0, 71, 0
2, 29608, Control_c, 0, 64, 64
2, 29628, Control_c, 0, 64, 20
2, 29629, Note_on_c, 0, 65, 33
2, 29640, Note_on_c, 0, 74, 50
2, 29647, Control_c, 0, 64, 0
2, 29653, Note_on_c, 0, 73, 0
2, 29665, Note_on_c, 0, 65, 0
2, 29697, Note_on_c, 0, 69, 67
2, 29706, Note_on_c, 0, 74, 0
2, 29775, Note_on_c, 0, 69, 0
2, 29818, Note_on_c, 0, 65, 40
2, 29825, Note_on_c, 0, 62, 57
2, 29876, Note_on_c, 0, 62, 0
2, 29908, Note_on_c, 0, 65, 0
2, 29934, Note_on_c, 0, 69, 51
2, 30015, Note_on_c, 0, 69, 0
2, 30042, Note_on_c, 0, 74, 49
2, 30073, Note_on_c, 0, 65, 29
2, 30111, Note_on_c, 0, 74, 0
2, 30116, Note_on_c, 0, 65, 0
2, 30161, Note_on_c, 0, 69, 53
2, 30223, Note_on_c, 0, 69, 0
2, 30258, Note_on_c, 0, 62, 60
2, 30262, Note_on_c, 0, 65, 40
2, 30314, Note_on_c, 0, 62, 0
2, 30334, Note_on_c, 0, 65, 0
2, 30380, Note_on_c, 0, 69, 50
2, 30439, Note_on_c, 0, 69, 0
2, 30484, Note_on_c, 0, 65, 47
2, 30486, Note_on_c, 0, 74, 45
2, 30518, Note_on_c, 0, 65, 0
2, 30553, Note_on_c, 0, 74, 0
2, 30580, Note_on_c, 0, 69, 51
2, 30680, Note_on_c, 0, 69, 0
2, 30712, Note_on_c, 0, 66, 52
2, 30713, Note_on_c, 0, 60, 42
2, 30754, Note_on_c, 0, 60, 0
2, 30783, Note_on_c, 0, 66, 0
2, 30823, Note_on_c, 0, 74, 47
2, 30899, Note_on_c, 0, 74, 0
2, 30933, Note_on_c, 0, 66, 58
2, 30959, Note_on_c, 0, 69, 39
2, 30997, Note_on_c, 0, 69, 0
2, 31026, Note_on_c, 0, 66, 0
2, 31057, Note_on_c, 0, 64, 53
2, 31125, Note_on_c, 0, 64, 0
2, 31176, Note_on_c, 0, 66, 57
2, 31193, Note_on_c, 0, 60, 36
2, 31233, Note_on_c, 0, 60, 0
2, 31264, Note_on_c, 0, 66, 0
2, 31281, Note_on_c, 0, 74, 59
2, 31365, Note_on_c, 0, 74, 0
2, 31401, Note_on_c, 0, 66, 65
2, 31418, Note_on_c, 0, 69, 49
2, 31458, Note_on_c, 0, 69, 0
2, 31482, Note_on_c, 0, 66, 0
2, 31510, Note_on_c, 0, 74, 59
2, 31580, Note_on_c, 0, 74, 0
2, 31623, Note_on_c, 0, 66, 67
2, 31638, Note_on_c, 0, 60, 48
2, 31686, Note_on_c, 0, 60, 0
2, 31703, Note_on_c, 0, 66, 0
2, 31730, Note_on_c, 0, 74, 59
2, 31799, Note_on_c, 0, 74, 0
2, 31846, Note_on_c, 0, 66, 62
2, 31850, Note_on_c, 0, 69, 59
2, 31892, Note_on_c, 0, 69, 0
2, 31900, Note_on_c, 0, 66, 0
2, 31946, Note_on_c, 0, 74, 52
2, 32002, Note_on_c, 0, 74, 0
2, 32070, Note_on_c, 0, 67, 57
2, 32077, Note_on_c, 0, 59, 55
2, 32123, Note_on_c, 0, 59, 0
2, 32142, Note_on_c, 0, 67, 0
2, 32150, Note_on_c, 0, 69, 55
2, 32227, Note_on_c, 0, 71, 61
2, 32243, Note_on_c, 0, 69, 0
2, 32278, Note_on_c, 0, 72, 54
2, 32287, Note_on_c, 0, 71, 0
2, 32306, Note_on_c, 0, 67, 53
2, 32317, Note_on_c, 0, 74, 64
2, 32328, Note_on_c, 0, 72, 0
2, 32357, Note_on_c, 0, 67, 0
2, 32401, Note_on_c, 0, 74, 0
2, 32421, Note_on_c, 0, 71, 58
2, 32477, Note_on_c, 0, 71, 0
2, 32540, Note_on_c, 0, 59, 55
2, 32556, Note_on_c, 0, 67, 27
2, 32574, Note_on_c, 0, 59, 0
2, 32616, Note_on_c, 0, 67, 0
2, 32642, Note_on_c, 0, 71, 55
2, 32731, Note_on_c, 0, 71, 0
2, 32753, Note_on_c, 0, 74, 53
2, 32766, Note_on_c, 0, 67, 49
2, 32811, Note_on_c, 0, 67, 0
2, 32828, Note_on_c, 0, 74, 0
2, 32873, Note_on_c, 0, 71, 59
2, 32941, Note_on_c, 0, 71, 0
2, 32983, Note_on_c, 0, 59, 56
2, 32987, Note_on_c, 0, 67, 54
2, 33024, Note_on_c, 0, 59, 0
2, 33072, Note_on_c, 0, 67, 0
2, 33094, Note_on_c, 0, 71, 64
2, 33175, Note_on_c, 0, 71, 0
2, 33194, Note_on_c, 0, 74, 57
2, 33215, Note_on_c, 0, 67, 55
2, 33257, Note_on_c, 0, 67, 0
2, 33288, Note_on_c, 0, 74, 0
2, 33308, Note_on_c, 0, 71, 66
2, 33409, Note_on_c, 0, 71, 0
2, 33431, Note_on_c, 0, 68, 67
2, 33440, Note_on_c, 0, 64, 54
2, 33478, Note_on_c, 0, 64, 0
2, 33533, Note_on_c, 0, 68, 0
2, 33547, Note_on_c, 0, 74, 60
2, 33644, Note_on_c, 0, 74, 0
2, 33663, Note_on_c, 0, 68, 71
2, 33669, Note_on_c, 0, 71, 50
2, 33705, Note_on_c, 0, 71, 0
2, 33763, Note_on_c, 0, 68, 0
2, 33788, Note_on_c, 0, 66, 65
2, 33888, Note_on_c, 0, 66, 0
2, 33897, Note_on_c, 0, 68, 74
2, 33916, Note_on_c, 0, 64, 53
2, 33958, Note_on_c, 0, 64, 0
2, 33998, Note_on_c, 0, 68, 0
2, 34013, Note_on_c, 0, 74, 68
2, 34113, Note_on_c, 0, 74, 0
2, 34123, Note_on_c, 0, 68, 79
2, 34136, Note_on_c, 0, 71, 61
2, 34183, Note_on_c, 0, 71, 0
2, 34222, Note_on_c, 0, 68, 0
2, 34245, Note_on_c, 0, 74, 68
2, 34329, Note_on_c, 0, 74, 0
2, 34345, Note_on_c, 0, 68, 80
2, 34362, Note_on_c, 0, 64, 54
2, 34398, Note_on_c, 0, 64, 0
2, 34437, Note_on_c, 0, 68, 0
2, 34460, Note_on_c, 0, 74, 62
2, 34544, Note_on_c, 0, 74, 0
2, 34568, Note_on_c, 0, 68, 75
2, 34579, Note_on_c, 0, 71, 39
2, 34616, Note_on_c, 0, 71, 0
2, 34658, Note_on_c, 0, 68, 0
2, 34680, Note_on_c, 0, 74, 63
2, 34799, Note_on_c, 0, 74, 0
2, 34807, Note_on_c, 0, 72, 66
2, 34810, Note_on_c, 0, 57, 44
2, 34943, Note_on_c, 0, 69, 68
2, 34987, Note_on_c, 0, 72, 0
2, 35036, Note_on_c, 0, 69, 0
2, 35054, Note_on_c, 0, 67, 62
2, 35105, Note_on_c, 0, 57, 0
2, 35157, Note_on_c, 0, 67, 0
2, 35163, Note_on_c, 0, 65, 66
2, 35272, Note_on_c, 0, 65, 0
2, 35279, Note_on_c, 0, 64, 67
2, 35400, Note_on_c, 0, 64, 0
2, 35407, Note_on_c, 0, 62, 51
2, 35480, Note_on_c, 0, 62, 0
2, 35523, Note_on_c, 0, 60, 51
2, 35623, Note_on_c, 0, 60, 0
2, 35646, Note_on_c, 0, 59, 60
2, 35739, Note_on_c, 0, 59, 0
2, 35765, Note_on_c, 0, 57, 54
2, 35847, Note_on_c, 0, 57, 0
2, 35887, Note_on_c, 0, 60, 50
2, 35971, Note_on_c, 0, 60, 0
2, 36002, Note_on_c, 0, 59, 55
2, 36110, Note_on_c, 0, 59, 0
2, 36132, Note_on_c, 0, 57, 27
2, 36184, Note_on_c, 0, 57, 0
2, 36210, Note_on_c, 0, 65, 50
2, 36284, Note_on_c, 0, 65, 0
2, 36313, Note_on_c, 0, 62, 47
2, 36390, Note_on_c, 0, 62, 0
2, 36435, Note_on_c, 0, 69, 63
2, 36441, Note_on_c, 0, 57, 49
2, 36482, Note_on_c, 0, 69, 0
2, 36511, Note_on_c, 0, 57, 0
2, 36534, Note_on_c, 0, 62, 58
2, 36602, Note_on_c, 0, 62, 0
2, 36646, Note_on_c, 0, 65, 52
2, 36656, Note_on_c, 0, 74, 76
2, 36726, Note_on_c, 0, 74, 0
2, 36734, Note_on_c, 0, 65, 0
2, 36748, Note_on_c, 0, 62, 57
2, 36834, Note_on_c, 0, 62, 0
2, 36854, Note_on_c, 0, 57, 63
2, 36887, Note_on_c, 0, 77, 74
2, 36924, Note_on_c, 0, 77, 0
2, 36966, Note_on_c, 0, 57, 0
2, 36976, Note_on_c, 0, 62, 58
2, 37043, Note_on_c, 0, 62, 0
2, 37082, Note_on_c, 0, 65, 60
2, 37092, Note_on_c, 0, 81, 83
2, 37152, Note_on_c, 0, 80, 79
2, 37153, Note_on_c, 0, 81, 0
2, 37180, Note_on_c, 0, 65, 0
2, 37187, Note_on_c, 0, 62, 56
2, 37220, Note_on_c, 0, 81, 76
2, 37225, Note_on_c, 0, 80, 0
2, 37258, Note_on_c, 0, 62, 0
2, 37300, Note_on_c, 0, 57, 52
2, 37381, Note_on_c, 0, 57, 0
2, 37406, Note_on_c, 0, 62, 52
2, 37474, Note_on_c, 0, 81, 0
2, 37485, Note_on_c, 0, 62, 0
2, 37534, Note_on_c, 0, 64, 54
2, 37618, Note_on_c, 0, 64, 0
2, 37642, Note_on_c, 0, 62, 52
2, 37719, Note_on_c, 0, 62, 0
2, 37749, Note_on_c, 0, 69, 64
2, 37764, Note_on_c, 0, 57, 46
2, 37796, Note_on_c, 0, 69, 0
2, 37859, Note_on_c, 0, 57, 0
2, 37876, Note_on_c, 0, 62, 45
2, 37925, Note_on_c, 0, 62, 0
2, 37973, Note_on_c, 0, 72, 75
2, 37975, Note_on_c, 0, 64, 51
2, 38036, Note_on_c, 0, 72, 0
2, 38065, Note_on_c, 0, 64, 0
2, 38079, Note_on_c, 0, 60, 54
2, 38146, Note_on_c, 0, 60, 0
2, 38196, Note_on_c, 0, 57, 55
2, 38203, Note_on_c, 0, 76, 63
2, 38241, Note_on_c, 0, 76, 0
2, 38282, Note_on_c, 0, 57, 0
2, 38299, Note_on_c, 0, 60, 46
2, 38354, Note_on_c, 0, 60, 0
2, 38401, Note_on_c, 0, 64, 55
2, 38419, Note_on_c, 0, 81, 74
2, 38467, Note_on_c, 0, 81, 0
2, 38470, Note_on_c, 0, 80, 73
2, 38476, Note_on_c, 0, 60, 53
2, 38476, Note_on_c, 0, 64, 0
2, 38538, Note_on_c, 0, 60, 0
2, 38538, Note_on_c, 0, 80, 0
2, 38539, Note_on_c, 0, 81, 69
2, 38590, Note_on_c, 0, 57, 50
2, 38671, Note_on_c, 0, 57, 0
2, 38691, Note_on_c, 0, 60, 52
2, 38758, Note_on_c, 0, 60, 0
2, 38831, Note_on_c, 0, 81, 0
2, 38844, Note_on_c, 0, 62, 43
2, 38917, Note_on_c, 0, 62, 0
2, 38940, Note_on_c, 0, 59, 53
2, 39023, Note_on_c, 0, 59, 0
2, 39048, Note_on_c, 0, 74, 60
2, 39072, Note_on_c, 0, 57, 52
2, 39096, Note_on_c, 0, 74, 0
2, 39146, Note_on_c, 0, 57, 0
2, 39176, Note_on_c, 0, 59, 56
2, 39248, Note_on_c, 0, 59, 0
2, 39272, Note_on_c, 0, 80, 78
2, 39282, Note_on_c, 0, 62, 55
2, 39333, Note_on_c, 0, 80, 0
2, 39378, Note_on_c, 0, 62, 0
2, 39393, Note_on_c, 0, 59, 62
2, 39485, Note_on_c, 0, 59, 0
2, 39496, Note_on_c, 0, 56, 65
2, 39503, Note_on_c, 0, 83, 84
2, 39569, Note_on_c, 0, 83, 0
2, 39610, Note_on_c, 0, 56, 0
2, 39616, Note_on_c, 0, 59, 69
2, 39713, Note_on_c, 0, 59, 0
2, 39722, Note_on_c, 0, 80, 93
2, 39731, Note_on_c, 0, 62, 64
2, 39788, Note_on_c, 0, 80, 0
2, 39840, Note_on_c, 0, 59, 66
2, 39845, Note_on_c, 0, 62, 0
2, 39934, Note_on_c, 0, 59, 0
2, 39947, Note_on_c, 0, 56, 68
2, 39953, Note_on_c, 0, 76, 79
2, 40019, Note_on_c, 0, 76, 0
2, 40051, Note_on_c, 0, 56, 0
2, 40053, Note_on_c, 0, 59, 70
2, 40162, Note_on_c, 0, 59, 0
2, 40188, Note_on_c, 0, 60, 62
2, 40196, Note_on_c, 0, 81, 81
2, 40236, Note_on_c, 0, 60, 0
2, 40444, Note_on_c, 0, 81, 0
2, 40450, Note_on_c, 0, 45, 58
2, 40452, Note_on_c, 0, 79, 62
2, 40508, Note_on_c, 0, 45, 0
2, 40570, Note_on_c, 0, 77, 60
2, 40584, Note_on_c, 0, 79, 0
2, 40667, Note_on_c, 0, 77, 0
2, 40672, Note_on_c, 0, 76, 64
2, 40674, Note_on_c, 0, 48, 54
2, 40721, Note_on_c, 0, 48, 0
2, 40763, Note_on_c, 0, 76, 0
2, 40784, Note_on_c, 0, 74, 64
2, 40877, Note_on_c, 0, 74, 0
2, 40892, Note_on_c, 0, 72, 75
2, 40896, Note_on_c, 0, 52, 51
2, 40945, Note_on_c, 0, 52, 0
2, 40992, Note_on_c, 0, 71, 73
2, 40994, Note_on_c, 0, 72, 0
2, 41108, Note_on_c, 0, 71, 0
2, 41113, Note_on_c, 0, 69, 74
2, 41136, Note_on_c, 0, 57, 40
2, 41179, Note_on_c, 0, 57, 0
2, 41213, Note_on_c, 0, 69, 0
2, 41222, Note_on_c, 0, 72, 70
2, 41322, Note_on_c, 0, 72, 0
2, 41333, Note_on_c, 0, 71, 67
2, 41348, Note_on_c, 0, 60, 49
2, 41388, Note_on_c, 0, 60, 0
2, 41423, Note_on_c, 0, 71, 0
2, 41439, Note_on_c, 0, 69, 70
2, 41522, Note_on_c, 0, 69, 0
2, 41553, Note_on_c, 0, 77, 63
2, 41554, Note_on_c, 0, 62, 55
2, 41604, Note_on_c, 0, 62, 0
2, 41658, Note_on_c, 0, 77, 0
2, 41664, Note_on_c, 0, 74, 62
2, 41750, Note_on_c, 0, 74, 0
2, 41788, Note_on_c, 0, 65, 42
2, 41792, Note_on_c, 0, 69, 56
2, 41826, Note_on_c, 0, 65, 0
2, 41863, Note_on_c, 0, 69, 0
2, 41899, Note_on_c, 0, 74, 56
2, 41991, Note_on_c, 0, 74, 0
2, 41999, Note_on_c, 0, 77, 67
2, 42019, Note_on_c, 0, 57, 46
2, 42055, Note_on_c, 0, 57, 0
2, 42094, Note_on_c, 0, 77, 0
2, 42113, Note_on_c, 0, 74, 64
2, 42202, Note_on_c, 0, 74, 0
2, 42222, Note_on_c, 0, 62, 54
2, 42227, Note_on_c, 0, 69, 67
2, 42269, Note_on_c, 0, 62, 0
2, 42328, Note_on_c, 0, 69, 0
2, 42343, Note_on_c, 0, 74, 62
2, 42448, Note_on_c, 0, 74, 0
2, 42450, Note_on_c, 0, 50, 61
2, 42452, Note_on_c, 0, 77, 74
2, 42503, Note_on_c, 0, 50, 0
2, 42555, Note_on_c, 0, 77, 0
2, 42563, Note_on_c, 0, 74, 69
2, 42642, Note_on_c, 0, 74, 0
2, 42675, Note_on_c, 0, 69, 65
2, 42682, Note_on_c, 0, 59, 54
2, 42731, Note_on_c, 0, 59, 0
2, 42778, Note_on_c, 0, 69, 0
2, 42792, Note_on_c, 0, 74, 62
2, 42900, Note_on_c, 0, 74, 0
2, 42902, Note_on_c, 0, 76, 67
2, 42918, Note_on_c, 0, 60, 54
2, 42959, Note_on_c, 0, 60, 0
2, 43015, Note_on_c, 0, 76, 0
2, 43030, Note_on_c, 0, 74, 62
2, 43095, Note_on_c, 0, 74, 0
2, 43148, Note_on_c, 0, 69, 60
2, 43179, Note_on_c, 0, 64, 29
2, 43221, Note_on_c, 0, 64, 0
2, 43224, Note_on_c, 0, 69, 0
2, 43249, Note_on_c, 0, 74, 54
2, 43345, Note_on_c, 0, 74, 0
2, 43358, Note_on_c, 0, 76, 64
2, 43382, Note_on_c, 0, 57, 47
2, 43423, Note_on_c, 0, 57, 0
2, 43462, Note_on_c, 0, 76, 0
2, 43469, Note_on_c, 0, 72, 65
2, 43571, Note_on_c, 0, 72, 0
2, 43592, Note_on_c, 0, 60, 47
2, 43600, Note_on_c, 0, 69, 56
2, 43626, Note_on_c, 0, 60, 0
2, 43694, Note_on_c, 0, 69, 0
2, 43709, Note_on_c, 0, 72, 63
2, 43807, Note_on_c, 0, 72, 0
2, 43817, Note_on_c, 0, 48, 60
2, 43818, Note_on_c, 0, 76, 63
2, 43871, Note_on_c, 0, 48, 0
2, 43917, Note_on_c, 0, 76, 0
2, 43926, Note_on_c, 0, 72, 65
2, 44003, Note_on_c, 0, 72, 0
2, 44036, Note_on_c, 0, 57, 55
2, 44043, Note_on_c, 0, 69, 63
2, 44083, Note_on_c, 0, 57, 0
2, 44143, Note_on_c, 0, 69, 0
2, 44156, Note_on_c, 0, 72, 60
2, 44251, Note_on_c, 0, 72, 0
2, 44267, Note_on_c, 0, 74, 59
2, 44270, Note_on_c, 0, 59, 70
2, 44316, Note_on_c, 0, 59, 0
2, 44364, Note_on_c, 0, 74, 0
2, 44378, Note_on_c, 0, 71, 62
2, 44479, Note_on_c, 0, 71, 0
2, 44506, Note_on_c, 0, 69, 58
2, 44514, Note_on_c, 0, 62, 52
2, 44566, Note_on_c, 0, 62, 0
2, 44595, Note_on_c, 0, 69, 0
2, 44611, Note_on_c, 0, 71, 67
2, 44721, Note_on_c, 0, 71, 0
2, 44729, Note_on_c, 0, 74, 68
2, 44737, Note_on_c, 0, 56, 64
2, 44789, Note_on_c, 0, 56, 0
2, 44834, Note_on_c, 0, 74, 0
2, 44843, Note_on_c, 0, 71, 74
2, 44949, Note_on_c, 0, 71, 0
2, 44956, Note_on_c, 0, 68, 76
2, 44962, Note_on_c, 0, 59, 70
2, 45004, Note_on_c, 0, 59, 0
2, 45071, Note_on_c, 0, 68, 0
2, 45073, Note_on_c, 0, 71, 79
2, 45175, Note_on_c, 0, 71, 0
2, 45178, Note_on_c, 0, 74, 75
2, 45184, Note_on_c, 0, 64, 74
2, 45260, Note_on_c, 0, 64, 0
2, 45295, Note_on_c, 0, 74, 0
2, 45301, Note_on_c, 0, 71, 73
2, 45389, Note_on_c, 0, 71, 0
2, 45403, Note_on_c, 0, 52, 55
2, 45417, Note_on_c, 0, 68, 68
2, 45459, Note_on_c, 0, 52, 0
2, 45526, Note_on_c, 0, 71, 68
2, 45530, Note_on_c, 0, 68, 0
2, 45601, Note_on_c, 0, 71, 0
2, 45631, Note_on_c, 0, 72, 65
2, 45649, Note_on_c, 0, 57, 52
2, 45754, Note_on_c, 0, 69, 62
2, 45874, Note_on_c, 0, 67, 58
2, 45899, Note_on_c, 0, 57, 0
2, 45910, Note_on_c, 0, 69, 0
2, 45987, Note_on_c, 0, 67, 0
2, 45996, Note_on_c, 0, 65, 57
2, 46108, Note_on_c, 0, 65, 0
2, 46112, Note_on_c, 0, 64, 59
2, 46230, Note_on_c, 0, 64, 0
2, 46231, Note_on_c, 0, 62, 44
2, 46298, Note_on_c, 0, 62, 0
2, 46335, Note_on_c, 0, 60, 46
2, 46428, Note_on_c, 0, 60, 0
2, 46439, Note_on_c, 0, 59, 57
2, 46533, Note_on_c, 0, 59, 0
2, 46539, Note_on_c, 0, 57, 52
2, 46599, Note_on_c, 0, 57, 0
2, 46658, Note_on_c, 0, 60, 50
2, 46725, Note_on_c, 0, 60, 0
2, 46756, Note_on_c, 0, 52, 56
2, 46833, Note_on_c, 0, 52, 0
2, 46859, Note_on_c, 0, 55, 58
2, 46967, Note_on_c, 0, 55, 0
2, 46979, Note_on_c, 0, 54, 62
2, 47028, Note_on_c, 0, 54, 0
2, 47079, Note_on_c, 0, 72, 0
2, 47111, Note_on_c, 0, 75, 62
2, 47217, Note_on_c, 0, 75, 0
2, 47222, Note_on_c, 0, 74, 62
2, 47233, Note_on_c, 0, 69, 68
2, 47284, Note_on_c, 0, 69, 0
2, 47326, Note_on_c, 0, 74, 0
2, 47335, Note_on_c, 0, 72, 71
2, 47427, Note_on_c, 0, 72, 0
2, 47450, Note_on_c, 0, 78, 83
2, 47568, Note_on_c, 0, 75, 75
2, 47599, Note_on_c, 0, 78, 0
2, 47685, Note_on_c, 0, 74, 75
2, 47688, Note_on_c, 0, 69, 65
2, 47699, Note_on_c, 0, 75, 0
2, 47739, Note_on_c, 0, 69, 0
2, 47786, Note_on_c, 0, 72, 71
2, 47796, Note_on_c, 0, 74, 0
2, 47892, Note_on_c, 0, 72, 0
2, 47903, Note_on_c, 0, 81, 78
2, 47915, Note_on_c, 0, 66, 61
2, 47974, Note_on_c, 0, 66, 0
2, 48015, Note_on_c, 0, 81, 0
2, 48018, Note_on_c, 0, 75, 65
2, 48119, Note_on_c, 0, 75, 0
2, 48129, Note_on_c, 0, 74, 59
2, 48160, Note_on_c, 0, 62, 41
2, 48197, Note_on_c, 0, 62, 0
2, 48209, Note_on_c, 0, 74, 0
2, 48251, Note_on_c, 0, 72, 60
2, 48311, Note_on_c, 0, 72, 0
2, 48374, Note_on_c, 0, 70, 63
2, 48387, Note_on_c, 0, 67, 48
2, 48440, Note_on_c, 0, 67, 0
2, 48466, Note_on_c, 0, 70, 0
2, 48498, Note_on_c, 0, 79, 59
2, 48623, Note_on_c, 0, 55, 50
2, 48625, Note_on_c, 0, 77, 44
2, 48665, Note_on_c, 0, 79, 0
2, 48685, Note_on_c, 0, 55, 0
2, 48731, Note_on_c, 0, 75, 66
2, 48771, Note_on_c, 0, 77, 0
2, 48848, Note_on_c, 0, 74, 62
2, 48868, Note_on_c, 0, 58, 58
2, 48877, Note_on_c, 0, 75, 0
2, 48916, Note_on_c, 0, 58, 0
2, 48946, Note_on_c, 0, 74, 0
2, 48957, Note_on_c, 0, 72, 67
2, 49078, Note_on_c, 0, 70, 74
2, 49080, Note_on_c, 0, 72, 0
2, 49083, Note_on_c, 0, 62, 62
2, 49123, Note_on_c, 0, 62, 0
2, 49179, Note_on_c, 0, 70, 0
2, 49184, Note_on_c, 0, 69, 73
2, 49311, Note_on_c, 0, 69, 0
2, 49311, Note_on_c, 0, 72, 74
2, 49326, Note_on_c, 0, 67, 49
2, 49365, Note_on_c, 0, 67, 0
2, 49422, Note_on_c, 0, 70, 73
2, 49428, Note_on_c, 0, 72, 0
2, 49526, Note_on_c, 0, 65, 51
2, 49538, Note_on_c, 0, 70, 0
2, 49545, Note_on_c, 0, 69, 67
2, 49560, Note_on_c, 0, 65, 0
2, 49625, Note_on_c, 0, 69, 0
2, 49645, Note_on_c, 0, 67, 56
2, 49759, Note_on_c, 0, 67, 0
2, 49782, Note_on_c, 0, 64, 44
2, 49786, Note_on_c, 0, 72, 59
2, 49834, Note_on_c, 0, 72, 0
2, 49838, Note_on_c, 0, 64, 0
2, 49885, Note_on_c, 0, 61, 51
2, 49977, Note_on_c, 0, 61, 0
2, 50015, Note_on_c, 0, 60, 46
2, 50019, Note_on_c, 0, 76, 74
2, 50081, Note_on_c, 0, 76, 0
2, 50127, Note_on_c, 0, 58, 52
2, 50137, Note_on_c, 0, 60, 0
2, 50205, Note_on_c, 0, 58, 0
2, 50242, Note_on_c, 0, 65, 49
2, 50258, Note_on_c, 0, 71, 62
2, 50307, Note_on_c, 0, 71, 0
2, 50317, Note_on_c, 0, 65, 0
2, 50356, Note_on_c, 0, 61, 51
2, 50432, Note_on_c, 0, 61, 0
2, 50468, Note_on_c, 0, 60, 53
2, 50482, Note_on_c, 0, 77, 71
2, 50540, Note_on_c, 0, 77, 0
2, 50589, Note_on_c, 0, 58, 57
2, 50598, Note_on_c, 0, 60, 0
2, 50667, Note_on_c, 0, 58, 0
2, 50706, Note_on_c, 0, 70, 70
2, 50714, Note_on_c, 0, 67, 44
2, 50746, Note_on_c, 0, 70, 0
2, 50783, Note_on_c, 0, 67, 0
2, 50807, Note_on_c, 0, 61, 54
2, 50892, Note_on_c, 0, 61, 0
2, 50920, Note_on_c, 0, 60, 48
2, 50943, Note_on_c, 0, 79, 74
2, 51034, Note_on_c, 0, 60, 0
2, 51046, Note_on_c, 0, 58, 56
2, 51166, Note_on_c, 0, 58, 0
2, 51170, Note_on_c, 0, 57, 61
2, 51260, Note_on_c, 0, 57, 0
2, 51300, Note_on_c, 0, 74, 62
2, 51304, Note_on_c, 0, 65, 45
2, 51307, Note_on_c, 0, 79, 0
2, 51368, Note_on_c, 0, 65, 0
2, 51382, Note_on_c, 0, 74, 0
2, 51406, Note_on_c, 0, 64, 46
2, 51418, Note_on_c, 0, 72, 68
2, 51470, Note_on_c, 0, 64, 0
2, 51479, Note_on_c, 0, 72, 0
2, 51505, Note_on_c, 0, 62, 51
2, 51524, Note_on_c, 0, 70, 77
2, 51548, Note_on_c, 0, 62, 0
2, 51601, Note_on_c, 0, 70, 0
2, 51630, Note_on_c, 0, 60, 60
2, 51635, Note_on_c, 0, 69, 74
2, 51709, Note_on_c, 0, 60, 0
2, 51716, Note_on_c, 0, 69, 0
2, 51740, Note_on_c, 0, 58, 47
2, 51744, Note_on_c, 0, 79, 73
2, 51834, Note_on_c, 0, 58, 0
2, 51846, Note_on_c, 0, 77, 73
2, 51848, Note_on_c, 0, 57, 54
2, 51851, Note_on_c, 0, 79, 0
2, 51935, Note_on_c, 0, 77, 0
2, 51939, Note_on_c, 0, 57, 0
2, 51946, Note_on_c, 0, 55, 55
2, 51953, Note_on_c, 0, 76, 70
2, 52031, Note_on_c, 0, 55, 0
2, 52044, Note_on_c, 0, 76, 0
2, 52055, Note_on_c, 0, 58, 57
2, 52066, Note_on_c, 0, 74, 66
2, 52127, Note_on_c, 0, 58, 0
2, 52160, Note_on_c, 0, 74, 0
2, 52181, Note_on_c, 0, 82, 64
2, 52193, Note_on_c, 0, 57, 48
2, 52247, Note_on_c, 0, 82, 0
2, 52261, Note_on_c, 0, 57, 0
2, 52281, Note_on_c, 0, 55, 54
2, 52290, Note_on_c, 0, 76, 67
2, 52349, Note_on_c, 0, 55, 0
2, 52355, Note_on_c, 0, 76, 0
2, 52384, Note_on_c, 0, 53, 52
2, 52409, Note_on_c, 0, 74, 54
2, 52472, Note_on_c, 0, 53, 0
2, 52490, Note_on_c, 0, 52, 59
2, 52509, Note_on_c, 0, 74, 0
2, 52528, Note_on_c, 0, 73, 69
2, 52531, Note_on_c, 0, 52, 0
2, 52622, Note_on_c, 0, 73, 0
2, 52643, Note_on_c, 0, 70, 64
2, 52660, Note_on_c, 0, 67, 57
2, 52724, Note_on_c, 0, 67, 0
2, 52744, Note_on_c, 0, 70, 0
2, 52755, Note_on_c, 0, 69, 67
2, 52763, Note_on_c, 0, 65, 47
2, 52852, Note_on_c, 0, 65, 0
2, 52859, Note_on_c, 0, 67, 70
2, 52859, Note_on_c, 0, 69, 0
2, 52872, Note_on_c, 0, 64, 59
2, 52958, Note_on_c, 0, 67, 0
2, 52972, Note_on_c, 0, 74, 82
2, 52983, Note_on_c, 0, 64, 0
2, 52991, Note_on_c, 0, 62, 62
2, 53061, Note_on_c, 0, 62, 0
2, 53088, Note_on_c, 0, 70, 78
2, 53094, Note_on_c, 0, 74, 0
2, 53120, Note_on_c, 0, 67, 57
2, 53199, Note_on_c, 0, 67, 0
2, 53201, Note_on_c, 0, 69, 78
2, 53203, Note_on_c, 0, 70, 0
2, 53221, Note_on_c, 0, 65, 48
2, 53302, Note_on_c, 0, 65, 0
2, 53307, Note_on_c, 0, 69, 0
2, 53315, Note_on_c, 0, 67, 70
2, 53327, Note_on_c, 0, 64, 52
2, 53416, Note_on_c, 0, 67, 0
2, 53420, Note_on_c, 0, 64, 0
2, 53427, Note_on_c, 0, 76, 77
2, 53435, Note_on_c, 0, 61, 61
2, 53517, Note_on_c, 0, 61, 0
2, 53536, Note_on_c, 0, 70, 69
2, 53536, Note_on_c, 0, 76, 0
2, 53553, Note_on_c, 0, 67, 47
2, 53626, Note_on_c, 0, 67, 0
2, 53644, Note_on_c, 0, 69, 68
2, 53650, Note_on_c, 0, 70, 0
2, 53664, Note_on_c, 0, 65, 43
2, 53701, Note_on_c, 0, 65, 0
2, 53713, Note_on_c, 0, 64, 52
2, 53743, Note_on_c, 0, 64, 0
2, 53750, Note_on_c, 0, 69, 0
2, 53764, Note_on_c, 0, 67, 64
2, 53871, Note_on_c, 0, 67, 0
2, 53872, Note_on_c, 0, 50, 62
2, 53877, Note_on_c, 0, 65, 56
2, 53913, Note_on_c, 0, 50, 0
2, 53996, Note_on_c, 0, 65, 0
2, 54045, Note_on_c, 0, 63, 57
2, 54099, Note_on_c, 0, 63, 0
2, 54128, Note_on_c, 0, 62, 51
2, 54136, Note_on_c, 0, 66, 63
2, 54184, Note_on_c, 0, 66, 0
2, 54222, Note_on_c, 0, 62, 0
2, 54242, Note_on_c, 0, 60, 60
2, 54332, Note_on_c, 0, 58, 57
2, 54339, Note_on_c, 0, 60, 0
2, 54358, Note_on_c, 0, 67, 61
2, 54378, Note_on_c, 0, 58, 0
2, 54442, Note_on_c, 0, 67, 0
2, 54486, Note_on_c, 0, 60, 45
2, 54547, Note_on_c, 0, 60, 0
2, 54563, Note_on_c, 0, 58, 48
2, 54589, Note_on_c, 0, 69, 63
2, 54656, Note_on_c, 0, 58, 0
2, 54660, Note_on_c, 0, 69, 0
2, 54687, Note_on_c, 0, 57, 54
2, 54796, Note_on_c, 0, 55, 58
2, 54798, Note_on_c, 0, 57, 0
2, 54803, Note_on_c, 0, 70, 67
2, 54856, Note_on_c, 0, 70, 0
2, 54862, Note_on_c, 0, 55, 0
2, 54939, Note_on_c, 0, 57, 58
2, 55022, Note_on_c, 0, 57, 0
2, 55034, Note_on_c, 0, 71, 66
2, 55058, Note_on_c, 0, 55, 53
2, 55119, Note_on_c, 0, 71, 0
2, 55163, Note_on_c, 0, 53, 56
2, 55171, Note_on_c, 0, 55, 0
2, 55246, Note_on_c, 0, 53, 0
2, 55266, Note_on_c, 0, 72, 74
2, 55268, Note_on_c, 0, 52, 56
2, 55343, Note_on_c, 0, 72, 0
2, 55388, Note_on_c, 0, 52, 0
2, 55389, Note_on_c, 0, 58, 61
2, 55450, Note_on_c, 0, 58, 0
2, 55499, Note_on_c, 0, 73, 80
2, 55504, Note_on_c, 0, 57, 63
2, 55567, Note_on_c, 0, 73, 0
2, 55613, Note_on_c, 0, 57, 0
2, 55637, Note_on_c, 0, 55, 48
2, 55723, Note_on_c, 0, 74, 77
2, 55764, Note_on_c, 0, 55, 0
2, 55836, Note_on_c, 0, 74, 0
2, 55864, Note_on_c, 0, 55, 60
2, 55958, Note_on_c, 0, 76, 85
2, 55962, Note_on_c, 0, 55, 0
2, 55965, Note_on_c, 0, 53, 60
2, 56041, Note_on_c, 0, 76, 0
2, 56087, Note_on_c, 0, 52, 65
2, 56095, Note_on_c, 0, 53, 0
2, 56171, Note_on_c, 0, 52, 0
2, 56178, Note_on_c, 0, 77, 84
2, 56187, Note_on_c, 0, 50, 63
2, 56262, Note_on_c, 0, 77, 0
2, 56290, Note_on_c, 0, 50, 0
2, 56295, Note_on_c, 0, 51, 75
2, 56377, Note_on_c, 0, 51, 0
2, 56402, Note_on_c, 0, 78, 82
2, 56438, Note_on_c, 0, 50, 71
2, 56474, Note_on_c, 0, 78, 0
2, 56513, Note_on_c, 0, 48, 70
2, 56524, Note_on_c, 0, 50, 0
2, 56627, Note_on_c, 0, 46, 70
2, 56643, Note_on_c, 0, 48, 0
2, 56644, Note_on_c, 0, 79, 76
2, 56717, Note_on_c, 0, 46, 0
2, 56763, Note_on_c, 0, 79, 0
2, 56767, Note_on_c, 0, 74, 66
2, 56842, Note_on_c, 0, 74, 0
2, 56868, Note_on_c, 0, 82, 75
2, 56869, Note_on_c, 0, 43, 53
2, 56930, Note_on_c, 0, 43, 0
2, 56953, Note_on_c, 0, 82, 0
2, 56979, Note_on_c, 0, 81, 75
2, 57068, Note_on_c, 0, 81, 0
2, 57092, Note_on_c, 0, 79, 71
2, 57095, Note_on_c, 0, 46, 56
2, 57147, Note_on_c, 0, 46, 0
2, 57193, Note_on_c, 0, 79, 0
2, 57199, Note_on_c, 0, 77, 73
2, 57297, Note_on_c, 0, 77, 0
2, 57300, Note_on_c, 0, 50, 58
2, 57305, Note_on_c, 0, 76, 71
2, 57358, Note_on_c, 0, 50, 0
2, 57395, Note_on_c, 0, 76, 0
2, 57410, Note_on_c, 0, 74, 71
2, 57505, Note_on_c, 0, 74, 0
2, 57543, Note_on_c, 0, 73, 67
2, 57548, Note_on_c, 0, 55, 69
2, 57635, Note_on_c, 0, 73, 0
2, 57646, Note_on_c, 0, 74, 72
2, 57758, Note_on_c, 0, 74, 0
2, 57759, Note_on_c, 0, 76, 73
2, 57865, Note_on_c, 0, 73, 70
2, 57875, Note_on_c, 0, 76, 0
2, 57877, Note_on_c, 0, 55, 0
2, 57980, Note_on_c, 0, 69, 68
2, 58003, Note_on_c, 0, 73, 0
2, 58040, Note_on_c, 0, 69, 0
2, 58100, Note_on_c, 0, 55, 57
2, 58208, Note_on_c, 0, 55, 0
2, 58216, Note_on_c, 0, 64, 65
2, 58221, Note_on_c, 0, 45, 45
2, 58268, Note_on_c, 0, 64, 0
2, 58283, Note_on_c, 0, 45, 0
2, 58332, Note_on_c, 0, 43, 55
2, 58423, Note_on_c, 0, 45, 57
2, 58426, Note_on_c, 0, 43, 0
2, 58442, Note_on_c, 0, 69, 79
2, 58500, Note_on_c, 0, 45, 0
2, 58500, Note_on_c, 0, 69, 0
2, 58553, Note_on_c, 0, 55, 62
2, 58641, Note_on_c, 0, 55, 0
2, 58651, Note_on_c, 0, 45, 62
2, 58666, Note_on_c, 0, 73, 77
2, 58717, Note_on_c, 0, 73, 0
2, 58718, Note_on_c, 0, 45, 0
2, 58779, Note_on_c, 0, 55, 62
2, 58859, Note_on_c, 0, 55, 0
2, 58871, Note_on_c, 0, 45, 63
2, 58883, Note_on_c, 0, 76, 78
2, 58939, Note_on_c, 0, 74, 72
2, 58940, Note_on_c, 0, 76, 0
2, 58958, Note_on_c, 0, 45, 0
2, 58995, Note_on_c, 0, 55, 66
2, 59006, Note_on_c, 0, 76, 77
2, 59017, Note_on_c, 0, 74, 0
2, 59063, Note_on_c, 0, 55, 0
2, 59117, Note_on_c, 0, 45, 55
2, 59170, Note_on_c, 0, 45, 0
2, 59202, Note_on_c, 0, 55, 63
2, 59249, Note_on_c, 0, 55, 0
2, 59302, Note_on_c, 0, 76, 0
2, 59306, Note_on_c, 0, 45, 58
2, 59369, Note_on_c, 0, 45, 0
2, 59420, Note_on_c, 0, 69, 72
2, 59430, Note_on_c, 0, 53, 51
2, 59489, Note_on_c, 0, 53, 0
2, 59494, Note_on_c, 0, 45, 61
2, 59507, Note_on_c, 0, 69, 0
2, 59538, Note_on_c, 0, 65, 57
2, 59596, Note_on_c, 0, 45, 0
2, 59626, Note_on_c, 0, 65, 0
2, 59633, Note_on_c, 0, 69, 76
2, 59648, Note_on_c, 0, 43, 55
2, 59727, Note_on_c, 0, 45, 53
2, 59732, Note_on_c, 0, 69, 0
2, 59745, Note_on_c, 0, 74, 73
2, 59759, Note_on_c, 0, 43, 0
2, 59785, Note_on_c, 0, 45, 0
2, 59842, Note_on_c, 0, 74, 0
2, 59854, Note_on_c, 0, 69, 77
2, 59857, Note_on_c, 0, 53, 54
2, 59922, Note_on_c, 0, 69, 0
2, 59926, Note_on_c, 0, 53, 0
2, 59943, Note_on_c, 0, 45, 54
2, 59964, Note_on_c, 0, 65, 58
2, 60012, Note_on_c, 0, 45, 0
2, 60033, Note_on_c, 0, 65, 0
2, 60056, Note_on_c, 0, 69, 72
2, 60058, Note_on_c, 0, 53, 59
2, 60136, Note_on_c, 0, 69, 0
2, 60151, Note_on_c, 0, 53, 0
2, 60157, Note_on_c, 0, 74, 77
2, 60162, Note_on_c, 0, 45, 60
2, 60209, Note_on_c, 0, 73, 75
2, 60210, Note_on_c, 0, 74, 0
2, 60228, Note_on_c, 0, 45, 0
2, 60283, Note_on_c, 0, 74, 70
2, 60286, Note_on_c, 0, 73, 0
2, 60295, Note_on_c, 0, 53, 49
2, 60354, Note_on_c, 0, 53, 0
2, 60379, Note_on_c, 0, 45, 58
2, 60440, Note_on_c, 0, 45, 0
2, 60485, Note_on_c, 0, 53, 59
2, 60553, Note_on_c, 0, 53, 0
2, 60584, Note_on_c, 0, 45, 58
2, 60584, Note_on_c, 0, 74, 0
2, 60648, Note_on_c, 0, 45, 0
2, 60685, Note_on_c, 0, 67, 60
2, 60709, Note_on_c, 0, 52, 58
2, 60773, Note_on_c, 0, 67, 0
2, 60780, Note_on_c, 0, 52, 0
2, 60787, Note_on_c, 0, 45, 58
2, 60807, Note_on_c, 0, 64, 54
2, 60854, Note_on_c, 0, 45, 0
2, 60887, Note_on_c, 0, 64, 0
2, 60901, Note_on_c, 0, 43, 55
2, 60917, Note_on_c, 0, 67, 58
2, 60999, Note_on_c, 0, 67, 0
2, 61000, Note_on_c, 0, 45, 56
2, 61009, Note_on_c, 0, 72, 66
2, 61053, Note_on_c, 0, 45, 0
2, 61095, Note_on_c, 0, 43, 0
2, 61095, Note_on_c, 0, 72, 0
2, 61116, Note_on_c, 0, 52, 52
2, 61116, Note_on_c, 0, 67, 64
2, 61193, Note_on_c, 0, 52, 0
2, 61193, Note_on_c, 0, 67, 0
2, 61204, Note_on_c, 0, 45, 50
2, 61241, Note_on_c, 0, 64, 49
2, 61271, Note_on_c, 0, 45, 0
2, 61296, Note_on_c, 0, 64, 0
2, 61333, Note_on_c, 0, 52, 52
2, 61340, Note_on_c, 0, 67, 57
2, 61392, Note_on_c, 0, 67, 0
2, 61401, Note_on_c, 0, 52, 0
2, 61412, Note_on_c, 0, 45, 57
2, 61413, Note_on_c, 0, 72, 73
2, 61467, Note_on_c, 0, 72, 0
2, 61476, Note_on_c, 0, 71, 67
2, 61479, Note_on_c, 0, 45, 0
2, 61528, Note_on_c, 0, 52, 56
2, 61541, Note_on_c, 0, 71, 0
2, 61548, Note_on_c, 0, 72, 71
2, 61590, Note_on_c, 0, 52, 0
2, 61613, Note_on_c, 0, 45, 52
2, 61688, Note_on_c, 0, 45, 0
2, 61722, Note_on_c, 0, 52, 52
2, 61811, Note_on_c, 0, 52, 0
2, 61844, Note_on_c, 0, 45, 54
2, 61863, Note_on_c, 0, 72, 0
2, 61933, Note_on_c, 0, 45, 0
2, 61946, Note_on_c, 0, 50, 54
2, 61955, Note_on_c, 0, 65, 57
2, 62021, Note_on_c, 0, 50, 0
2, 62035, Note_on_c, 0, 65, 0
2, 62059, Note_on_c, 0, 53, 53
2, 62082, Note_on_c, 0, 62, 49
2, 62137, Note_on_c, 0, 53, 0
2, 62151, Note_on_c, 0, 62, 0
2, 62177, Note_on_c, 0, 50, 37
2, 62182, Note_on_c, 0, 65, 59
2, 62241, Note_on_c, 0, 50, 0
2, 62261, Note_on_c, 0, 65, 0
2, 62278, Note_on_c, 0, 45, 49
2, 62282, Note_on_c, 0, 70, 65
2, 62365, Note_on_c, 0, 45, 0
2, 62373, Note_on_c, 0, 70, 0
2, 62385, Note_on_c, 0, 50, 49
2, 62394, Note_on_c, 0, 65, 65
2, 62475, Note_on_c, 0, 65, 0
2, 62483, Note_on_c, 0, 50, 0
2, 62491, Note_on_c, 0, 53, 53
2, 62502, Note_on_c, 0, 62, 58
2, 62560, Note_on_c, 0, 53, 0
2, 62592, Note_on_c, 0, 57, 52
2, 62614, Note_on_c, 0, 65, 65
2, 62615, Note_on_c, 0, 62, 0
2, 62635, Note_on_c, 0, 57, 0
2, 62703, Note_on_c, 0, 43, 64
2, 62719, Note_on_c, 0, 65, 0
2, 62722, Note_on_c, 0, 70, 73
2, 62797, Note_on_c, 0, 43, 0
2, 62820, Note_on_c, 0, 70, 0
2, 62828, Note_on_c, 0, 67, 64
2, 62830, Note_on_c, 0, 52, 52
2, 62885, Note_on_c, 0, 52, 0
2, 62923, Note_on_c, 0, 55, 61
2, 62931, Note_on_c, 0, 67, 0
2, 62955, Note_on_c, 0, 64, 62
2, 63024, Note_on_c, 0, 64, 0
2, 63035, Note_on_c, 0, 55, 0
2, 63052, Note_on_c, 0, 58, 62
2, 63052, Note_on_c, 0, 67, 59
2, 63105, Note_on_c, 0, 58, 0
2, 63140, Note_on_c, 0, 67, 0
2, 63171, Note_on_c, 0, 55, 62
2, 63181, Note_on_c, 0, 61, 65
2, 63212, Note_on_c, 0, 55, 0
2, 63274, Note_on_c, 0, 61, 0
2, 63297, Note_on_c, 0, 69, 58
2, 63389, Note_on_c, 0, 69, 0
2, 63404, Note_on_c, 0, 70, 64
2, 63413, Note_on_c, 0, 49, 63
2, 63461, Note_on_c, 0, 49, 0
2, 63510, Note_on_c, 0, 70, 0
2, 63527, Note_on_c, 0, 69, 66
2, 63582, Note_on_c, 0, 69, 0
2, 63644, Note_on_c, 0, 61, 52
2, 63653, Note_on_c, 0, 52, 55
2, 63695, Note_on_c, 0, 52, 0
2, 63714, Note_on_c, 0, 61, 0
2, 63741, Note_on_c, 0, 69, 59
2, 63848, Note_on_c, 0, 69, 0
2, 63861, Note_on_c, 0, 70, 67
2, 63872, Note_on_c, 0, 43, 60
2, 63914, Note_on_c, 0, 43, 0
2, 63969, Note_on_c, 0, 70, 0
2, 63993, Note_on_c, 0, 69, 62
2, 64046, Note_on_c, 0, 69, 0
2, 64091, Note_on_c, 0, 61, 58
2, 64131, Note_on_c, 0, 61, 0
2, 64196, Note_on_c, 0, 46, 59
2, 64306, Note_on_c, 0, 46, 0
2, 64316, Note_on_c, 0, 64, 66
2, 64332, Note_on_c, 0, 45, 57
2, 64429, Note_on_c, 0, 45, 0
2, 64441, Note_on_c, 0, 43, 57
2, 64542, Note_on_c, 0, 41, 65
2, 64554, Note_on_c, 0, 43, 0
2, 64612, Note_on_c, 0, 41, 0
2, 64663, Note_on_c, 0, 64, 0
2, 64674, Note_on_c, 0, 69, 59
2, 64690, Note_on_c, 0, 53, 54
2, 64758, Note_on_c, 0, 69, 0
2, 64766, Note_on_c, 0, 53, 0
2, 64779, Note_on_c, 0, 70, 61
2, 64795, Note_on_c, 0, 52, 52
2, 64877, Note_on_c, 0, 52, 0
2, 64883, Note_on_c, 0, 70, 0
2, 64886, Note_on_c, 0, 69, 70
2, 64913, Note_on_c, 0, 53, 58
2, 64967, Note_on_c, 0, 53, 0
2, 64971, Note_on_c, 0, 69, 0
2, 65007, Note_on_c, 0, 62, 59
2, 65009, Note_on_c, 0, 41, 65
2, 65060, Note_on_c, 0, 41, 0
2, 65092, Note_on_c, 0, 62, 0
2, 65118, Note_on_c, 0, 69, 62
2, 65139, Note_on_c, 0, 53, 47
2, 65207, Note_on_c, 0, 53, 0
2, 65207, Note_on_c, 0, 69, 0
2, 65218, Note_on_c, 0, 70, 66
2, 65225, Note_on_c, 0, 52, 58
2, 65308, Note_on_c, 0, 52, 0
2, 65324, Note_on_c, 0, 69, 68
2, 65330, Note_on_c, 0, 53, 60
2, 65336, Note_on_c, 0, 70, 0
2, 65396, Note_on_c, 0, 53, 0
2, 65410, Note_on_c, 0, 69, 0
2, 65437, Note_on_c, 0, 41, 64
2, 65441, Note_on_c, 0, 62, 66
2, 65478, Note_on_c, 0, 41, 0
2, 65481, Note_on_c, 0, 62, 0
2, 65531, Note_on_c, 0, 53, 62
2, 65630, Note_on_c, 0, 53, 0
2, 65641, Note_on_c, 0, 52, 63
2, 65666, Note_on_c, 0, 65, 74
2, 65700, Note_on_c, 0, 52, 0
2, 65773, Note_on_c, 0, 50, 68
2, 65896, Note_on_c, 0, 50, 0
2, 65900, Note_on_c, 0, 49, 68
2, 65956, Note_on_c, 0, 49, 0
2, 66010, Note_on_c, 0, 65, 0
2, 66017, Note_on_c, 0, 67, 65
2, 66131, Note_on_c, 0, 69, 73
2, 66134, Note_on_c, 0, 67, 0
2, 66139, Note_on_c, 0, 40, 59
2, 66176, Note_on_c, 0, 40, 0
2, 66235, Note_on_c, 0, 69, 0
2, 66238, Note_on_c, 0, 67, 68
2, 66329, Note_on_c, 0, 67, 0
2, 66340, Note_on_c, 0, 43, 66
2, 66342, Note_on_c, 0, 64, 74
2, 66396, Note_on_c, 0, 43, 0
2, 66447, Note_on_c, 0, 64, 0
2, 66453, Note_on_c, 0, 67, 74
2, 66565, Note_on_c, 0, 67, 0
2, 66565, Note_on_c, 0, 69, 78
2, 66576, Note_on_c, 0, 37, 67
2, 66615, Note_on_c, 0, 37, 0
2, 66686, Note_on_c, 0, 67, 76
2, 66686, Note_on_c, 0, 69, 0
2, 66769, Note_on_c, 0, 67, 0
2, 66791, Note_on_c, 0, 57, 75
2, 66836, Note_on_c, 0, 57, 0
2, 66896, Note_on_c, 0, 49, 71
2, 67038, Note_on_c, 0, 67, 79
2, 67042, Note_on_c, 0, 47, 70
2, 67050, Note_on_c, 0, 49, 0
2, 67156, Note_on_c, 0, 45, 68
2, 67157, Note_on_c, 0, 47, 0
2, 67283, Note_on_c, 0, 45, 0
2, 67286, Note_on_c, 0, 50, 74
2, 67341, Note_on_c, 0, 50, 0
2, 67401, Note_on_c, 0, 67, 0
2, 67412, Note_on_c, 0, 58, 69
2, 67509, Note_on_c, 0, 58, 0
2, 67518, Note_on_c, 0, 38, 74
2, 67531, Note_on_c, 0, 57, 63
2, 67566, Note_on_c, 0, 38, 0
2, 67629, Note_on_c, 0, 57, 0
2, 67642, Note_on_c, 0, 55, 70
2, 67724, Note_on_c, 0, 55, 0
2, 67744, Note_on_c, 0, 41, 71
2, 67756, Note_on_c, 0, 57, 72
2, 67794, Note_on_c, 0, 41, 0
2, 67851, Note_on_c, 0, 57, 0
2, 67872, Note_on_c, 0, 64, 69
2, 67957, Note_on_c, 0, 45, 68
2, 67989, Note_on_c, 0, 62, 67
2, 67994, Note_on_c, 0, 45, 0
2, 68023, Note_on_c, 0, 64, 0
2, 68081, Note_on_c, 0, 62, 0
2, 68100, Note_on_c, 0, 61, 70
2, 68184, Note_on_c, 0, 50, 64
2, 68213, Note_on_c, 0, 62, 75
2, 68224, Note_on_c, 0, 61, 0
2, 68273, Note_on_c, 0, 50, 0
2, 68278, Note_on_c, 0, 49, 73
2, 68318, Note_on_c, 0, 62, 0
2, 68329, Note_on_c, 0, 67, 70
2, 68395, Note_on_c, 0, 49, 0
2, 68408, Note_on_c, 0, 50, 69
2, 68435, Note_on_c, 0, 67, 0
2, 68440, Note_on_c, 0, 65, 69
2, 68498, Note_on_c, 0, 50, 0
2, 68544, Note_on_c, 0, 65, 0
2, 68555, Note_on_c, 0, 64, 69
2, 68657, Note_on_c, 0, 64, 0
2, 68666, Note_on_c, 0, 65, 70
2, 68703, Note_on_c, 0, 65, 0
2, 68755, Note_on_c, 0, 55, 64
2, 68794, Note_on_c, 0, 58, 57
2, 68830, Note_on_c, 0, 55, 0
2, 68852, Note_on_c, 0, 58, 0
2, 68874, Note_on_c, 0, 57, 58
2, 68886, Note_on_c, 0, 60, 61
2, 68949, Note_on_c, 0, 57, 0
2, 68973, Note_on_c, 0, 60, 0
2, 68992, Note_on_c, 0, 58, 55
2, 69008, Note_on_c, 0, 62, 59
2, 69038, Note_on_c, 0, 58, 0
2, 69117, Note_on_c, 0, 48, 56
2, 69120, Note_on_c, 0, 62, 0
2, 69120, Note_on_c, 0, 63, 68
2, 69195, Note_on_c, 0, 48, 0
2, 69219, Note_on_c, 0, 63, 0
2, 69246, Note_on_c, 0, 57, 58
2, 69252, Note_on_c, 0, 54, 56
2, 69324, Note_on_c, 0, 57, 0
2, 69327, Note_on_c, 0, 54, 0
2, 69346, Note_on_c, 0, 58, 55
2, 69376, Note_on_c, 0, 55, 43
2, 69437, Note_on_c, 0, 58, 0
2, 69448, Note_on_c, 0, 55, 0
2, 69452, Note_on_c, 0, 60, 64
2, 69493, Note_on_c, 0, 57, 50
2, 69550, Note_on_c, 0, 60, 0
2, 69557, Note_on_c, 0, 57, 0
2, 69573, Note_on_c, 0, 62, 52
2, 69591, Note_on_c, 0, 46, 55
2, 69656, Note_on_c, 0, 62, 0
2, 69681, Note_on_c, 0, 58, 59
2, 69685, Note_on_c, 0, 46, 0
2, 69701, Note_on_c, 0, 55, 55
2, 69772, Note_on_c, 0, 55, 0
2, 69784, Note_on_c, 0, 58, 0
2, 69806, Note_on_c, 0, 60, 59
2, 69826, Note_on_c, 0, 57, 52
2, 69874, Note_on_c, 0, 60, 0
2, 69921, Note_on_c, 0, 62, 58
2, 69948, Note_on_c, 0, 57, 0
2, 70028, Note_on_c, 0, 62, 0
2, 70029, Note_on_c, 0, 63, 71
2, 70080, Note_on_c, 0, 48, 36
2, 70133, Note_on_c, 0, 48, 0
2, 70140, Note_on_c, 0, 63, 0
2, 70153, Note_on_c, 0, 57, 62
2, 70194, Note_on_c, 0, 54, 47
2, 70252, Note_on_c, 0, 57, 0
2, 70254, Note_on_c, 0, 54, 0
2, 70264, Note_on_c, 0, 58, 68
2, 70300, Note_on_c, 0, 55, 58
2, 70361, Note_on_c, 0, 55, 0
2, 70383, Note_on_c, 0, 60, 73
2, 70388, Note_on_c, 0, 58, 0
2, 70408, Note_on_c, 0, 57, 49
2, 70454, Note_on_c, 0, 57, 0
2, 70484, Note_on_c, 0, 60, 0
2, 70499, Note_on_c, 0, 46, 67
2, 70505, Note_on_c, 0, 62, 74
2, 70604, Note_on_c, 0, 55, 63
2, 70606, Note_on_c, 0, 46, 0
2, 70611, Note_on_c, 0, 58, 76
2, 70613, Note_on_c, 0, 62, 0
2, 70674, Note_on_c, 0, 55, 0
2, 70718, Note_on_c, 0, 58, 0
2, 70726, Note_on_c, 0, 57, 54
2, 70731, Note_on_c, 0, 60, 72
2, 70808, Note_on_c, 0, 58, 48
2, 70816, Note_on_c, 0, 57, 0
2, 70831, Note_on_c, 0, 62, 72
2, 70841, Note_on_c, 0, 58, 0
2, 70842, Note_on_c, 0, 60, 0
2, 70920, Note_on_c, 0, 62, 0
2, 70960, Note_on_c, 0, 45, 63
2, 70961, Note_on_c, 0, 60, 72
2, 71045, Note_on_c, 0, 60, 0
2, 71048, Note_on_c, 0, 45, 0
2, 71075, Note_on_c, 0, 54, 68
2, 71081, Note_on_c, 0, 50, 63
2, 71130, Note_on_c, 0, 54, 0
2, 71154, Note_on_c, 0, 50, 0
2, 71178, Note_on_c, 0, 52, 59
2, 71199, Note_on_c, 0, 55, 62
2, 71236, Note_on_c, 0, 52, 0
2, 71261, Note_on_c, 0, 54, 57
2, 71274, Note_on_c, 0, 55, 0
2, 71298, Note_on_c, 0, 54, 0
2, 71303, Note_on_c, 0, 57, 65
2, 71421, Note_on_c, 0, 43, 60
2, 71424, Note_on_c, 0, 57, 0
2, 71437, Note_on_c, 0, 58, 62
2, 71541, Note_on_c, 0, 43, 0
2, 71542, Note_on_c, 0, 50, 66
2, 71629, Note_on_c, 0, 50, 0
2, 71662, Note_on_c, 0, 52, 58
2, 71683, Note_on_c, 0, 58, 0
2, 71782, Note_on_c, 0, 54, 64
2, 71784, Note_on_c, 0, 52, 0
2, 71888, Note_on_c, 0, 54, 0
2, 71894, Note_on_c, 0, 55, 71
2, 72008, Note_on_c, 0, 57, 63
2, 72042, Note_on_c, 0, 55, 0
2, 72099, Note_on_c, 0, 57, 0
2, 72105, Note_on_c, 0, 58, 68
2, 72214, Note_on_c, 0, 58, 0
2, 72219, Note_on_c, 0, 60, 69
2, 72333, Note_on_c, 0, 62, 66
2, 72339, Note_on_c, 0, 60, 0
2, 72442, Note_on_c, 0, 58, 71
2, 72454, Note_on_c, 0, 62, 0
2, 72523, Note_on_c, 0, 58, 0
2, 72539, Note_on_c, 0, 68, 38
2, 72563, Note_on_c, 0, 67, 60
2, 72582, Note_on_c, 0, 68, 0
2, 72679, Note_on_c, 0, 62, 62
2, 72728, Note_on_c, 0, 67, 0
2, 72805, Note_on_c, 0, 70, 70
2, 72839, Note_on_c, 0, 62, 0
2, 72918, Note_on_c, 0, 67, 63
2, 72946, Note_on_c, 0, 70, 0
2, 73005, Note_on_c, 0, 67, 0
2, 73043, Note_on_c, 0, 65, 63
2, 73118, Note_on_c, 0, 65, 0
2, 73144, Note_on_c, 0, 63, 67
2, 73244, Note_on_c, 0, 63, 0
2, 73264, Note_on_c, 0, 62, 69
2, 73364, Note_on_c, 0, 62, 0
2, 73369, Note_on_c, 0, 60, 63
2, 73472, Note_on_c, 0, 60, 0
2, 73479, Note_on_c, 0, 58, 59
2, 73587, Note_on_c, 0, 58, 0
2, 73598, Note_on_c, 0, 57, 64
2, 73710, Note_on_c, 0, 55, 67
2, 73733, Note_on_c, 0, 57, 0
2, 73812, Note_on_c, 0, 55, 0
2, 73824, Note_on_c, 0, 58, 65
2, 73928, Note_on_c, 0, 58, 0
2, 73938, Note_on_c, 0, 52, 60
2, 73996, Note_on_c, 0, 52, 0
2, 74070, Note_on_c, 0, 55, 55
2, 74154, Note_on_c, 0, 55, 0
2, 74166, Note_on_c, 0, 49, 66
2, 74271, Note_on_c, 0, 70, 72
2, 74369, Note_on_c, 0, 70, 0
2, 74387, Note_on_c, 0, 69, 79
2, 74473, Note_on_c, 0, 49, 0
2, 74502, Note_on_c, 0, 67, 75
2, 74508, Note_on_c, 0, 69, 0
2, 74610, Note_on_c, 0, 67, 0
2, 74619, Note_on_c, 0, 76, 81
2, 74731, Note_on_c, 0, 74, 69
2, 74786, Note_on_c, 0, 76, 0
2, 74835, Note_on_c, 0, 45, 60
2, 74842, Note_on_c, 0, 73, 76
2, 74888, Note_on_c, 0, 45, 0
2, 74888, Note_on_c, 0, 74, 0
2, 74951, Note_on_c, 0, 71, 76
2, 74991, Note_on_c, 0, 73, 0
2, 75053, Note_on_c, 0, 71, 0
2, 75062, Note_on_c, 0, 69, 77
2, 75083, Note_on_c, 0, 47, 56
2, 75124, Note_on_c, 0, 47, 0
2, 75166, Note_on_c, 0, 69, 0
2, 75182, Note_on_c, 0, 67, 70
2, 75285, Note_on_c, 0, 67, 0
2, 75293, Note_on_c, 0, 65, 67
2, 75303, Note_on_c, 0, 49, 65
2, 75356, Note_on_c, 0, 49, 0
2, 75385, Note_on_c, 0, 65, 0
2, 75400, Note_on_c, 0, 64, 66
2, 75504, Note_on_c, 0, 64, 0
2, 75521, Note_on_c, 0, 65, 70
2, 75532, Note_on_c, 0, 50, 66
2, 75588, Note_on_c, 0, 50, 0
2, 75635, Note_on_c, 0, 65, 0
2, 75639, Note_on_c, 0, 62, 64
2, 75745, Note_on_c, 0, 62, 0
2, 75755, Note_on_c, 0, 67, 74
2, 75766, Note_on_c, 0, 52, 62
2, 75820, Note_on_c, 0, 52, 0
2, 75856, Note_on_c, 0, 67, 0
2, 75873, Note_on_c, 0, 62, 73
2, 75986, Note_on_c, 0, 53, 84
2, 75988, Note_on_c, 0, 69, 79
2, 75992, Note_on_c, 0, 62, 0
2, 76059, Note_on_c, 0, 53, 0
2, 76087, Note_on_c, 0, 69, 0
2, 76109, Note_on_c, 0, 62, 77
2, 76200, Note_on_c, 0, 62, 0
2, 76216, Note_on_c, 0, 55, 81
2, 76219, Note_on_c, 0, 70, 87
2, 76275, Note_on_c, 0, 55, 0
2, 76312, Note_on_c, 0, 70, 0
2, 76342, Note_on_c, 0, 62, 74
2, 76413, Note_on_c, 0, 62, 0
2, 76451, Note_on_c, 0, 57, 82
2, 76522, Note_on_c, 0, 57, 0
2, 76571, Note_on_c, 0, 62, 69
2, 76701, Note_on_c, 0, 62, 0
2, 76702, Note_on_c, 0, 45, 68
2, 76702, Note_on_c, 0, 64, 69
2, 76755, Note_on_c, 0, 45, 0
2, 76814, Note_on_c, 0, 64, 0
2, 76820, Note_on_c, 0, 61, 65
2, 76940, Note_on_c, 0, 61, 0
2, 76963, Note_on_c, 0, 50, 70
2, 76963, Note_on_c, 0, 62, 65
2, 77015, Note_on_c, 0, 50, 0
2, 77079, Note_on_c, 0, 62, 0
2, 77086, Note_on_c, 0, 60, 63
2, 77193, Note_on_c, 0, 60, 0
2, 77211, Note_on_c, 0, 57, 65
2, 77229, Note_on_c, 0, 54, 59
2, 77262, Note_on_c, 0, 57, 0
2, 77314, Note_on_c, 0, 54, 0
2, 77344, Note_on_c, 0, 60, 64
2, 77444, Note_on_c, 0, 60, 0
2, 77454, Note_on_c, 0, 50, 71
2, 77467, Note_on_c, 0, 62, 58
2, 77526, Note_on_c, 0, 50, 0
2, 77577, Note_on_c, 0, 62, 0
2, 77591, Note_on_c, 0, 60, 63
2, 77683, Note_on_c, 0, 60, 0
2, 77689, Note_on_c, 0, 57, 65
2, 77704, Note_on_c, 0, 54, 59
2, 77739, Note_on_c, 0, 57, 0
2, 77799, Note_on_c, 0, 54, 0
2, 77828, Note_on_c, 0, 60, 62
2, 77917, Note_on_c, 0, 60, 0
2, 77925, Note_on_c, 0, 50, 68
2, 77943, Note_on_c, 0, 62, 56
2, 77991, Note_on_c, 0, 50, 0
2, 78036, Note_on_c, 0, 62, 0
2, 78074, Note_on_c, 0, 60, 54
2, 78122, Note_on_c, 0, 60, 0
2, 78158, Note_on_c, 0, 54, 56
2, 78159, Note_on_c, 0, 57, 48
2, 78197, Note_on_c, 0, 57, 0
2, 78260, Note_on_c, 0, 54, 0
2, 78294, Note_on_c, 0, 60, 48
2, 78366, Note_on_c, 0, 50, 55
2, 78403, Note_on_c, 0, 58, 58
2, 78405, Note_on_c, 0, 60, 0
2, 78449, Note_on_c, 0, 50, 0
2, 78495, Note_on_c, 0, 58, 0
2, 78521, Note_on_c, 0, 62, 57
2, 78604, Note_on_c, 0, 62, 0
2, 78633, Note_on_c, 0, 55, 42
2, 78642, Note_on_c, 0, 58, 62
2, 78678, Note_on_c, 0, 55, 0
2, 78729, Note_on_c, 0, 58, 0
2, 78745, Note_on_c, 0, 54, 65
2, 78864, Note_on_c, 0, 54, 0
2, 78867, Note_on_c, 0, 50, 52
2, 78875, Note_on_c, 0, 58, 69
2, 78930, Note_on_c, 0, 50, 0
2, 78969, Note_on_c, 0, 58, 0
2, 78984, Note_on_c, 0, 62, 62
2, 79093, Note_on_c, 0, 62, 0
2, 79094, Note_on_c, 0, 55, 56
2, 79103, Note_on_c, 0, 58, 69
2, 79153, Note_on_c, 0, 55, 0
2, 79205, Note_on_c, 0, 58, 0
2, 79214, Note_on_c, 0, 54, 64
2, 79330, Note_on_c, 0, 54, 0
2, 79341, Note_on_c, 0, 50, 55
2, 79341, Note_on_c, 0, 58, 68
2, 79416, Note_on_c, 0, 50, 0
2, 79431, Note_on_c, 0, 58, 0
2, 79455, Note_on_c, 0, 62, 61
2, 79561, Note_on_c, 0, 62, 0
2, 79564, Note_on_c, 0, 55, 53
2, 79575, Note_on_c, 0, 58, 57
2, 79614, Note_on_c, 0, 55, 0
2, 79621, Note_on_c, 0, 58, 0
2, 79676, Note_on_c, 0, 52, 52
2, 79743, Note_on_c, 0, 52, 0
2, 79795, Note_on_c, 0, 53, 62
2, 79797, Note_on_c, 0, 50, 53
2, 79871, Note_on_c, 0, 50, 0
2, 79891, Note_on_c, 0, 53, 0
2, 79908, Note_on_c, 0, 62, 61
2, 80001, Note_on_c, 0, 62, 0
2, 80031, Note_on_c, 0, 57, 53
2, 80039, Note_on_c, 0, 53, 66
2, 80092, Note_on_c, 0, 57, 0
2, 80132, Note_on_c, 0, 53, 0
2, 80152, Note_on_c, 0, 62, 64
2, 80234, Note_on_c, 0, 62, 0
2, 80273, Note_on_c, 0, 50, 56
2, 80276, Note_on_c, 0, 53, 70
2, 80346, Note_on_c, 0, 50, 0
2, 80367, Note_on_c, 0, 53, 0
2, 80382, Note_on_c, 0, 62, 61
2, 80477, Note_on_c, 0, 62, 0
2, 80513, Note_on_c, 0, 57, 57
2, 80515, Note_on_c, 0, 53, 65
2, 80575, Note_on_c, 0, 57, 0
2, 80602, Note_on_c, 0, 53, 0
2, 80629, Note_on_c, 0, 62, 61
2, 80708, Note_on_c, 0, 62, 0
2, 80755, Note_on_c, 0, 50, 52
2, 80755, Note_on_c, 0, 53, 64
2, 80823, Note_on_c, 0, 50, 0
2, 80838, Note_on_c, 0, 53, 0
2, 80861, Note_on_c, 0, 62, 56
2, 80948, Note_on_c, 0, 62, 0
2, 80987, Note_on_c, 0, 57, 52
2, 80997, Note_on_c, 0, 53, 55
2, 81055, Note_on_c, 0, 57, 0
2, 81068, Note_on_c, 0, 53, 0
2, 81100, Note_on_c, 0, 62, 55
2, 81175, Note_on_c, 0, 62, 0
2, 81227, Note_on_c, 0, 55, 54
2, 81233, Note_on_c, 0, 50, 41
2, 81278, Note_on_c, 0, 50, 0
2, 81293, Note_on_c, 0, 55, 0
2, 81351, Note_on_c, 0, 61, 48
2, 81425, Note_on_c, 0, 61, 0
2, 81474, Note_on_c, 0, 55, 41
2, 81481, Note_on_c, 0, 58, 37
2, 81522, Note_on_c, 0, 58, 0
2, 81553, Note_on_c, 0, 55, 0
2, 81586, Note_on_c, 0, 52, 52
2, 81683, Note_on_c, 0, 52, 0
2, 81713, Note_on_c, 0, 55, 50
2, 81723, Note_on_c, 0, 50, 49
2, 81768, Note_on_c, 0, 50, 0
2, 81796, Note_on_c, 0, 55, 0
2, 81843, Note_on_c, 0, 61, 46
2, 81924, Note_on_c, 0, 61, 0
2, 81968, Note_on_c, 0, 58, 44
2, 81972, Note_on_c, 0, 55, 47
2, 82011, Note_on_c, 0, 58, 0
2, 82054, Note_on_c, 0, 55, 0
2, 82095, Note_on_c, 0, 52, 50
2, 82211, Note_on_c, 0, 52, 0
2, 82221, Note_on_c, 0, 50, 47
2, 82238, Note_on_c, 0, 55, 44
2, 82275, Note_on_c, 0, 50, 0
2, 82313, Note_on_c, 0, 55, 0
2, 82351, Note_on_c, 0, 61, 46
2, 82463, Note_on_c, 0, 61, 0
2, 82480, Note_on_c, 0, 58, 43
2, 82496, Note_on_c, 0, 55, 34
2, 82527, Note_on_c, 0, 58, 0
2, 82603, Note_on_c, 0, 52, 49
2, 82623, Note_on_c, 0, 55, 0
2, 82655, Note_on_c, 0, 52, 0
2, 82749, Note_on_c, 0, 50, 43
2, 82884, Note_on_c, 0, 54, 41
2, 83050, Note_on_c, 0, 57, 40
2, 83260, Note_on_c, 0, 62, 37
2, 83594, Control_c, 0, 64, 29
2, 83613, Control_c, 0, 64, 45
2, 83636, Control_c, 0, 64, 51
2, 83654, Control_c, 0, 64, 55
2, 83674, Control_c, 0, 64, 57
2, 83693, Control_c, 0, 64, 59
2, 83712, Control_c, 0, 64, 60
2, 83731, Control_c, 0, 64, 62
2, 83750, Control_c, 0, 64, 64
2, 83770, Control_c, 0, 64, 65
2, 83788, Control_c, 0, 64, 68
2, 83808, Control_c, 0, 64, 73
2, 83827, Control_c, 0, 64, 80
2, 83847, Control_c, 0, 64, 87
2, 83865, Control_c, 0, 64, 102
2, 83885, Control_c, 0, 64, 127
2, 84949, Note_on_c, 0, 57, 0
2, 84970, Note_on_c, 0, 54, 0
2, 84987, Note_on_c, 0, 50, 0
2, 85001, Note_on_c, 0, 62, 0
2, 85287, Control_c, 0, 64, 112
2, 85305, Control_c, 0, 64, 78
2, 85325, Control_c, 0, 64, 63
2, 85344, Control_c, 0, 64, 32
2, 85363, Control_c, 0, 64, 0
2, 85950,End_track
0, 0, End_of_file
