0, 0, Header, 1, 2, 480
1, 0, Start_track
1, 0, Tempo, 500000
1, 0, Time_signature, 4, 2, 24, 8
1, 1, End_track
2,0,Start_track
2,0, Note_on_c, 0, 62, 33
2,145, Note_on_c, 0, 62, 0
2,169, Note_on_c, 0, 64, 43
2,309, Note_on_c, 0, 64, 0
2,338, Note_on_c, 0, 65, 42
2,492, Note_on_c, 0, 65, 0
2,510, Note_on_c, 0, 67, 44
2,670, Note_on_c, 0, 65, 45
2,677, Note_on_c, 0, 67, 0
2,812, Note_on_c, 0, 65, 0
2,834, Note_on_c, 0, 64, 56
2,969, Note_on_c, 0, 64, 0
2,1010, Note_on_c, 0, 65, 47
2,1143, Note_on_c, 0, 65, 0
2,1164, Note_on_c, 0, 67, 62
2,1339, Note_on_c, 0, 69, 67
2,1353, Note_on_c, 0, 67, 0
2,1500, Note_on_c, 0, 70, 69
2,1529, Note_on_c, 0, 69, 0
2,1659, Note_on_c, 0, 69, 74
2,1708, Note_on_c, 0, 70, 0
2,1812, Note_on_c, 0, 67, 65
2,1844, Note_on_c, 0, 69, 0
2,1995, Note_on_c, 0, 67, 0
2,1997, Note_on_c, 0, 69, 70
2,2312, Note_on_c, 0, 69, 0
2,2582, Note_on_c, 0, 74, 62
2,3157, Note_on_c, 0, 73, 65
2,3216, Note_on_c, 0, 74, 0
2,3715, Note_on_c, 0, 72, 61
2,3786, Note_on_c, 0, 73, 0
2,4276, Note_on_c, 0, 71, 54
2,4287, Note_on_c, 0, 72, 0
2,4825, Note_on_c, 0, 70, 56
2,4880, Note_on_c, 0, 71, 0
2,5391, Note_on_c, 0, 69, 50
2,5404, Note_on_c, 0, 70, 0
2,6014, Note_on_c, 0, 67, 39
2,6087, Note_on_c, 0, 69, 0
2,7142, Note_on_c, 0, 65, 33
2,7246, Note_on_c, 0, 67, 0
2,7735, Note_on_c, 0, 64, 36
2,7762, Note_on_c, 0, 65, 0
2,7983, Note_on_c, 0, 64, 0
2,8281, Note_on_c, 0, 69, 45
2,8457, Note_on_c, 0, 69, 0
2,8820, Note_on_c, 0, 69, 50
2,8827, Note_on_c, 0, 65, 38
2,8993, Note_on_c, 0, 71, 58
2,8999, Note_on_c, 0, 69, 0
2,9071, Note_on_c, 0, 65, 0
2,9165, Note_on_c, 0, 72, 61
2,9168, Note_on_c, 0, 71, 0
2,9342, Note_on_c, 0, 62, 44
2,9342, Note_on_c, 0, 74, 58
2,9360, Note_on_c, 0, 72, 0
2,9502, Note_on_c, 0, 62, 0
2,9506, Note_on_c, 0, 72, 69
2,9547, Note_on_c, 0, 74, 0
2,9659, Note_on_c, 0, 71, 69
2,9678, Note_on_c, 0, 72, 0
2,9837, Note_on_c, 0, 71, 0
2,9839, Note_on_c, 0, 72, 68
2,9853, Note_on_c, 0, 69, 47
2,10014, Note_on_c, 0, 74, 69
2,10033, Note_on_c, 0, 72, 0
2,10168, Note_on_c, 0, 76, 75
2,10216, Note_on_c, 0, 74, 0
2,10265, Note_on_c, 0, 69, 0
2,10328, Note_on_c, 0, 77, 74
2,10361, Note_on_c, 0, 76, 0
2,10480, Note_on_c, 0, 76, 79
2,10531, Note_on_c, 0, 77, 0
2,10641, Note_on_c, 0, 74, 70
2,10667, Note_on_c, 0, 76, 0
2,10840, Note_on_c, 0, 76, 71
2,10857, Note_on_c, 0, 74, 0
2,11109, Note_on_c, 0, 76, 0
2,11110, Note_on_c, 0, 59, 49
2,11379, Note_on_c, 0, 81, 74
2,11400, Note_on_c, 0, 60, 37
2,11464, Note_on_c, 0, 59, 0
2,11641, Note_on_c, 0, 62, 43
2,11694, Note_on_c, 0, 60, 0
2,11881, Note_on_c, 0, 62, 0
2,11890, Note_on_c, 0, 80, 73
2,11909, Note_on_c, 0, 64, 43
2,11950, Note_on_c, 0, 81, 0
2,12153, Note_on_c, 0, 64, 0
2,12161, Note_on_c, 0, 66, 52
2,12412, Note_on_c, 0, 79, 68
2,12430, Note_on_c, 0, 66, 0
2,12432, Note_on_c, 0, 67, 38
2,12470, Note_on_c, 0, 80, 0
2,12673, Note_on_c, 0, 64, 50
2,12729, Note_on_c, 0, 67, 0
2,12884, Note_on_c, 0, 64, 0
2,12922, Note_on_c, 0, 78, 66
2,12943, Note_on_c, 0, 69, 45
2,12978, Note_on_c, 0, 79, 0
2,13192, Note_on_c, 0, 68, 61
2,13198, Note_on_c, 0, 69, 0
2,13437, Note_on_c, 0, 77, 71
2,13446, Note_on_c, 0, 69, 67
2,13449, Note_on_c, 0, 78, 0
2,13498, Note_on_c, 0, 68, 0
2,13693, Note_on_c, 0, 71, 66
2,13739, Note_on_c, 0, 69, 0
2,13949, Note_on_c, 0, 76, 72
2,13958, Note_on_c, 0, 72, 57
2,13993, Note_on_c, 0, 71, 0
2,14000, Note_on_c, 0, 77, 0
2,14213, Note_on_c, 0, 72, 0
2,14217, Note_on_c, 0, 66, 47
2,14488, Note_on_c, 0, 74, 59
2,14505, Note_on_c, 0, 71, 49
2,14511, Note_on_c, 0, 66, 0
2,14576, Note_on_c, 0, 76, 0
2,14706, Note_on_c, 0, 71, 0
2,14737, Note_on_c, 0, 69, 50
2,14975, Note_on_c, 0, 69, 0
2,14995, Note_on_c, 0, 68, 47
2,15235, Note_on_c, 0, 68, 0
2,15250, Note_on_c, 0, 64, 47
2,15514, Note_on_c, 0, 74, 0
2,15526, Note_on_c, 0, 69, 50
2,15528, Note_on_c, 0, 72, 56
2,15539, Note_on_c, 0, 64, 0
2,15771, Note_on_c, 0, 72, 0
2,16047, Note_on_c, 0, 69, 0
2,16070, Note_on_c, 0, 71, 54
2,16250, Note_on_c, 0, 71, 0
2,16600, Note_on_c, 0, 67, 38
2,16608, Note_on_c, 0, 76, 46
2,16787, Note_on_c, 0, 76, 0
2,17141, Note_on_c, 0, 69, 37
2,17332, Note_on_c, 0, 65, 45
2,17349, Note_on_c, 0, 67, 0
2,17415, Note_on_c, 0, 69, 0
2,17508, Note_on_c, 0, 64, 58
2,17513, Note_on_c, 0, 65, 0
2,17660, Note_on_c, 0, 71, 65
2,17666, Note_on_c, 0, 64, 0
2,17677, Note_on_c, 0, 62, 54
2,17826, Note_on_c, 0, 62, 0
2,17828, Note_on_c, 0, 64, 62
2,17857, Note_on_c, 0, 71, 0
2,17961, Note_on_c, 0, 64, 0
2,17967, Note_on_c, 0, 65, 57
2,18105, Note_on_c, 0, 65, 0
2,18157, Note_on_c, 0, 64, 50
2,18170, Note_on_c, 0, 72, 71
2,18330, Note_on_c, 0, 64, 0
2,18346, Note_on_c, 0, 62, 56
2,18409, Note_on_c, 0, 72, 0
2,18505, Note_on_c, 0, 62, 0
2,18520, Note_on_c, 0, 60, 59
2,18694, Note_on_c, 0, 68, 67
2,18695, Note_on_c, 0, 60, 0
2,18699, Note_on_c, 0, 59, 54
2,18883, Note_on_c, 0, 60, 54
2,18892, Note_on_c, 0, 68, 0
2,18926, Note_on_c, 0, 59, 0
2,19041, Note_on_c, 0, 60, 0
2,19065, Note_on_c, 0, 62, 48
2,19262, Note_on_c, 0, 69, 61
2,19270, Note_on_c, 0, 60, 45
2,19301, Note_on_c, 0, 62, 0
2,19430, Note_on_c, 0, 67, 60
2,19444, Note_on_c, 0, 69, 0
2,19455, Note_on_c, 0, 60, 0
2,19572, Note_on_c, 0, 67, 0
2,19593, Note_on_c, 0, 65, 67
2,19737, Note_on_c, 0, 65, 0
2,19750, Note_on_c, 0, 64, 70
2,19772, Note_on_c, 0, 61, 59
2,19922, Note_on_c, 0, 65, 68
2,19958, Note_on_c, 0, 64, 0
2,19985, Note_on_c, 0, 61, 0
2,20077, Note_on_c, 0, 67, 69
2,20104, Note_on_c, 0, 65, 0
2,20261, Note_on_c, 0, 65, 71
2,20279, Note_on_c, 0, 62, 50
2,20327, Note_on_c, 0, 67, 0
2,20422, Note_on_c, 0, 62, 0
2,20431, Note_on_c, 0, 64, 71
2,20454, Note_on_c, 0, 65, 0
2,20577, Note_on_c, 0, 64, 0
2,20598, Note_on_c, 0, 62, 60
2,20747, Note_on_c, 0, 62, 0
2,20788, Note_on_c, 0, 55, 47
2,20788, Note_on_c, 0, 61, 56
2,20921, Note_on_c, 0, 55, 0
2,20940, Note_on_c, 0, 61, 0
2,20973, Note_on_c, 0, 62, 38
2,21109, Note_on_c, 0, 62, 0
2,21133, Note_on_c, 0, 64, 46
2,21272, Note_on_c, 0, 64, 0
2,21309, Note_on_c, 0, 50, 43
2,21312, Note_on_c, 0, 62, 45
2,21359, Note_on_c, 0, 53, 42
2,21475, Note_on_c, 0, 50, 0
2,21490, Note_on_c, 0, 52, 56
2,21506, Note_on_c, 0, 53, 0
2,21654, Note_on_c, 0, 62, 0
2,21656, Note_on_c, 0, 53, 65
2,21661, Note_on_c, 0, 52, 0
2,21825, Note_on_c, 0, 53, 0
2,21826, Note_on_c, 0, 55, 59
2,21847, Note_on_c, 0, 61, 64
2,21850, Note_on_c, 0, 58, 61
2,21997, Note_on_c, 0, 53, 64
2,22011, Note_on_c, 0, 55, 0
2,22081, Note_on_c, 0, 58, 0
2,22088, Note_on_c, 0, 61, 0
2,22159, Note_on_c, 0, 52, 66
2,22176, Note_on_c, 0, 53, 0
2,22350, Note_on_c, 0, 53, 57
2,22358, Note_on_c, 0, 62, 66
2,22370, Note_on_c, 0, 57, 58
2,22392, Note_on_c, 0, 52, 0
2,22517, Note_on_c, 0, 55, 61
2,22553, Note_on_c, 0, 53, 0
2,22568, Note_on_c, 0, 62, 0
2,22569, Note_on_c, 0, 57, 0
2,22641, Note_on_c, 0, 55, 0
2,22681, Note_on_c, 0, 57, 55
2,22868, Note_on_c, 0, 57, 0
2,22871, Note_on_c, 0, 67, 55
2,22877, Note_on_c, 0, 58, 47
2,22884, Note_on_c, 0, 62, 51
2,23021, Note_on_c, 0, 58, 0
2,23042, Note_on_c, 0, 57, 57
2,23162, Note_on_c, 0, 62, 0
2,23183, Note_on_c, 0, 57, 0
2,23198, Note_on_c, 0, 55, 58
2,23404, Note_on_c, 0, 61, 59
2,23410, Note_on_c, 0, 57, 62
2,23448, Note_on_c, 0, 67, 0
2,23455, Note_on_c, 0, 55, 0
2,23591, Note_on_c, 0, 57, 0
2,23663, Note_on_c, 0, 61, 0
2,23672, Note_on_c, 0, 64, 63
2,23849, Note_on_c, 0, 64, 0
2,23940, Note_on_c, 0, 62, 65
2,23941, Note_on_c, 0, 65, 52
2,24176, Note_on_c, 0, 65, 0
2,24180, Note_on_c, 0, 67, 56
2,24449, Note_on_c, 0, 67, 0
2,24461, Note_on_c, 0, 69, 61
2,24466, Note_on_c, 0, 61, 51
2,24489, Note_on_c, 0, 64, 50
2,24504, Note_on_c, 0, 62, 0
2,24722, Note_on_c, 0, 71, 62
2,24727, Note_on_c, 0, 69, 0
2,24956, Note_on_c, 0, 71, 0
2,24963, Note_on_c, 0, 72, 67
2,24971, Note_on_c, 0, 60, 51
2,25003, Note_on_c, 0, 61, 0
2,25159, Note_on_c, 0, 64, 0
2,25200, Note_on_c, 0, 72, 0
2,25212, Note_on_c, 0, 69, 70
2,25438, Note_on_c, 0, 60, 0
2,25474, Note_on_c, 0, 59, 50
2,25474, Note_on_c, 0, 74, 65
2,25478, Note_on_c, 0, 69, 0
2,25479, Note_on_c, 0, 62, 47
2,25728, Note_on_c, 0, 73, 75
2,25769, Note_on_c, 0, 74, 0
2,25949, Note_on_c, 0, 59, 0
2,25974, Note_on_c, 0, 58, 52
2,25979, Note_on_c, 0, 74, 78
2,26038, Note_on_c, 0, 73, 0
2,26224, Note_on_c, 0, 76, 80
2,26275, Note_on_c, 0, 74, 0
2,26452, Note_on_c, 0, 62, 0
2,26488, Note_on_c, 0, 57, 54
2,26488, Note_on_c, 0, 77, 75
2,26533, Note_on_c, 0, 58, 0
2,26558, Note_on_c, 0, 76, 0
2,26744, Note_on_c, 0, 71, 64
2,26814, Note_on_c, 0, 77, 0
2,27023, Note_on_c, 0, 57, 0
2,27036, Note_on_c, 0, 76, 62
2,27044, Note_on_c, 0, 55, 46
2,27046, Note_on_c, 0, 71, 0
2,27303, Note_on_c, 0, 74, 67
2,27373, Note_on_c, 0, 76, 0
2,27565, Note_on_c, 0, 73, 66
2,27609, Note_on_c, 0, 74, 0
2,27743, Note_on_c, 0, 73, 0
2,27789, Note_on_c, 0, 69, 60
2,28055, Note_on_c, 0, 69, 0
2,28055, Note_on_c, 0, 70, 59
2,28064, Note_on_c, 0, 53, 50
2,28074, Note_on_c, 0, 55, 0
2,28074, Note_on_c, 0, 74, 47
2,28318, Note_on_c, 0, 69, 60
2,28364, Note_on_c, 0, 70, 0
2,28583, Note_on_c, 0, 69, 0
2,28591, Note_on_c, 0, 52, 51
2,28594, Note_on_c, 0, 67, 54
2,28640, Note_on_c, 0, 53, 0
2,28701, Note_on_c, 0, 52, 0
2,28827, Note_on_c, 0, 67, 0
2,28834, Note_on_c, 0, 70, 54
2,29067, Note_on_c, 0, 74, 0
2,29100, Note_on_c, 0, 69, 54
2,29104, Note_on_c, 0, 72, 54
2,29119, Note_on_c, 0, 57, 48
2,29120, Note_on_c, 0, 70, 0
2,29203, Note_on_c, 0, 57, 0
2,29304, Note_on_c, 0, 69, 0
2,29356, Note_on_c, 0, 67, 41
2,29550, Note_on_c, 0, 67, 0
2,29614, Note_on_c, 0, 66, 48
2,29619, Note_on_c, 0, 50, 38
2,29733, Note_on_c, 0, 50, 0
2,29877, Note_on_c, 0, 62, 52
2,30106, Note_on_c, 0, 66, 0
2,30133, Note_on_c, 0, 63, 66
2,30133, Note_on_c, 0, 70, 55
2,30157, Note_on_c, 0, 67, 42
2,30160, Note_on_c, 0, 62, 0
2,30200, Note_on_c, 0, 72, 0
2,30394, Note_on_c, 0, 62, 71
2,30430, Note_on_c, 0, 63, 0
2,30647, Note_on_c, 0, 60, 62
2,30649, Note_on_c, 0, 62, 0
2,30650, Note_on_c, 0, 69, 68
2,30715, Note_on_c, 0, 70, 0
2,30913, Note_on_c, 0, 63, 66
2,30921, Note_on_c, 0, 60, 0
2,31169, Note_on_c, 0, 65, 59
2,31182, Note_on_c, 0, 67, 0
2,31186, Note_on_c, 0, 62, 60
2,31210, Note_on_c, 0, 63, 0
2,31394, Note_on_c, 0, 62, 0
2,31416, Note_on_c, 0, 60, 50
2,31621, Note_on_c, 0, 69, 0
2,31634, Note_on_c, 0, 60, 0
2,31682, Note_on_c, 0, 67, 57
2,31695, Note_on_c, 0, 59, 41
2,31841, Note_on_c, 0, 65, 0
2,31885, Note_on_c, 0, 67, 0
2,31895, Note_on_c, 0, 59, 0
2,31919, Note_on_c, 0, 55, 38
2,31927, Note_on_c, 0, 79, 71
2,32137, Note_on_c, 0, 55, 0
2,32184, Note_on_c, 0, 81, 78
2,32187, Note_on_c, 0, 64, 50
2,32190, Note_on_c, 0, 60, 42
2,32247, Note_on_c, 0, 79, 0
2,32391, Note_on_c, 0, 64, 0
2,32418, Note_on_c, 0, 79, 75
2,32475, Note_on_c, 0, 81, 0
2,32682, Note_on_c, 0, 77, 75
2,32687, Note_on_c, 0, 62, 45
2,32768, Note_on_c, 0, 79, 0
2,32934, Note_on_c, 0, 81, 79
2,32983, Note_on_c, 0, 77, 0
2,33193, Note_on_c, 0, 58, 45
2,33198, Note_on_c, 0, 60, 0
2,33198, Note_on_c, 0, 79, 68
2,33245, Note_on_c, 0, 81, 0
2,33446, Note_on_c, 0, 77, 65
2,33530, Note_on_c, 0, 79, 0
2,33698, Note_on_c, 0, 62, 0
2,33706, Note_on_c, 0, 76, 62
2,33708, Note_on_c, 0, 60, 34
2,33767, Note_on_c, 0, 77, 0
2,33931, Note_on_c, 0, 76, 0
2,33955, Note_on_c, 0, 72, 61
2,34213, Note_on_c, 0, 74, 62
2,34214, Note_on_c, 0, 57, 44
2,34214, Note_on_c, 0, 77, 66
2,34239, Note_on_c, 0, 72, 0
2,34359, Note_on_c, 0, 60, 0
2,34360, Note_on_c, 0, 58, 0
2,34467, Note_on_c, 0, 72, 76
2,34496, Note_on_c, 0, 74, 0
2,34721, Note_on_c, 0, 70, 74
2,34729, Note_on_c, 0, 55, 51
2,34751, Note_on_c, 0, 72, 0
2,34755, Note_on_c, 0, 57, 0
2,34821, Note_on_c, 0, 55, 0
2,34976, Note_on_c, 0, 74, 60
2,35002, Note_on_c, 0, 70, 0
2,35203, Note_on_c, 0, 77, 0
2,35239, Note_on_c, 0, 72, 58
2,35239, Note_on_c, 0, 76, 66
2,35242, Note_on_c, 0, 60, 55
2,35291, Note_on_c, 0, 74, 0
2,35333, Note_on_c, 0, 60, 0
2,35463, Note_on_c, 0, 72, 0
2,35488, Note_on_c, 0, 70, 62
2,35755, Note_on_c, 0, 69, 60
2,35759, Note_on_c, 0, 76, 0
2,35762, Note_on_c, 0, 53, 39
2,35782, Note_on_c, 0, 70, 0
2,35912, Note_on_c, 0, 53, 0
2,35922, Note_on_c, 0, 55, 48
2,36029, Note_on_c, 0, 77, 75
2,36038, Note_on_c, 0, 69, 0
2,36082, Note_on_c, 0, 55, 0
2,36113, Note_on_c, 0, 57, 52
2,36220, Note_on_c, 0, 57, 0
2,36254, Note_on_c, 0, 58, 49
2,36275, Note_on_c, 0, 77, 0
2,36278, Note_on_c, 0, 67, 65
2,36394, Note_on_c, 0, 57, 56
2,36464, Note_on_c, 0, 58, 0
2,36500, Note_on_c, 0, 67, 0
2,36518, Note_on_c, 0, 76, 72
2,36581, Note_on_c, 0, 57, 0
2,36601, Note_on_c, 0, 55, 57
2,36740, Note_on_c, 0, 55, 0
2,36760, Note_on_c, 0, 76, 0
2,36778, Note_on_c, 0, 65, 69
2,36794, Note_on_c, 0, 57, 62
2,37019, Note_on_c, 0, 65, 0
2,37038, Note_on_c, 0, 74, 71
2,37046, Note_on_c, 0, 57, 0
2,37301, Note_on_c, 0, 64, 61
2,37304, Note_on_c, 0, 45, 49
2,37391, Note_on_c, 0, 45, 0
2,37534, Note_on_c, 0, 64, 0
2,37555, Note_on_c, 0, 73, 67
2,37568, Note_on_c, 0, 74, 0
2,37804, Note_on_c, 0, 50, 49
2,37816, Note_on_c, 0, 74, 61
2,37819, Note_on_c, 0, 73, 0
2,37834, Note_on_c, 0, 65, 59
2,37944, Note_on_c, 0, 74, 0
2,37969, Note_on_c, 0, 65, 0
2,37989, Note_on_c, 0, 52, 59
2,38027, Note_on_c, 0, 50, 0
2,38128, Note_on_c, 0, 52, 0
2,38150, Note_on_c, 0, 53, 65
2,38308, Note_on_c, 0, 53, 0
2,38323, Note_on_c, 0, 70, 70
2,38326, Note_on_c, 0, 55, 45
2,38342, Note_on_c, 0, 61, 62
2,38486, Note_on_c, 0, 55, 0
2,38490, Note_on_c, 0, 53, 60
2,38543, Note_on_c, 0, 61, 0
2,38546, Note_on_c, 0, 70, 0
2,38657, Note_on_c, 0, 52, 65
2,38661, Note_on_c, 0, 53, 0
2,38829, Note_on_c, 0, 53, 60
2,38840, Note_on_c, 0, 52, 0
2,38841, Note_on_c, 0, 69, 69
2,38848, Note_on_c, 0, 62, 60
2,39006, Note_on_c, 0, 67, 66
2,39019, Note_on_c, 0, 69, 0
2,39025, Note_on_c, 0, 55, 55
2,39027, Note_on_c, 0, 53, 0
2,39131, Note_on_c, 0, 55, 0
2,39178, Note_on_c, 0, 57, 47
2,39183, Note_on_c, 0, 65, 57
2,39213, Note_on_c, 0, 67, 0
2,39346, Note_on_c, 0, 57, 0
2,39364, Note_on_c, 0, 58, 46
2,39364, Note_on_c, 0, 65, 0
2,39373, Note_on_c, 0, 64, 58
2,39506, Note_on_c, 0, 58, 0
2,39521, Note_on_c, 0, 57, 51
2,39542, Note_on_c, 0, 65, 49
2,39551, Note_on_c, 0, 64, 0
2,39699, Note_on_c, 0, 65, 0
2,39707, Note_on_c, 0, 55, 53
2,39709, Note_on_c, 0, 67, 52
2,39721, Note_on_c, 0, 57, 0
2,39834, Note_on_c, 0, 62, 0
2,39894, Note_on_c, 0, 65, 50
2,39895, Note_on_c, 0, 57, 50
2,39898, Note_on_c, 0, 55, 0
2,39928, Note_on_c, 0, 67, 0
2,40016, Note_on_c, 0, 57, 0
2,40075, Note_on_c, 0, 64, 53
2,40078, Note_on_c, 0, 65, 0
2,40210, Note_on_c, 0, 64, 0
2,40251, Note_on_c, 0, 62, 48
2,40416, Note_on_c, 0, 62, 0
2,40444, Note_on_c, 0, 61, 49
2,40445, Note_on_c, 0, 55, 29
2,40445, Note_on_c, 0, 58, 41
2,40536, Note_on_c, 0, 58, 0
2,40552, Note_on_c, 0, 55, 0
2,40604, Note_on_c, 0, 61, 0
2,40621, Note_on_c, 0, 62, 43
2,40776, Note_on_c, 0, 62, 0
2,40792, Note_on_c, 0, 64, 53
2,40919, Note_on_c, 0, 64, 0
2,40971, Note_on_c, 0, 62, 45
2,40986, Note_on_c, 0, 57, 39
2,41000, Note_on_c, 0, 53, 35
2,41110, Note_on_c, 0, 53, 0
2,41137, Note_on_c, 0, 62, 0
2,41143, Note_on_c, 0, 52, 45
2,41152, Note_on_c, 0, 64, 50
2,41282, Note_on_c, 0, 52, 0
2,41303, Note_on_c, 0, 64, 0
2,41319, Note_on_c, 0, 50, 45
2,41325, Note_on_c, 0, 65, 48
2,41455, Note_on_c, 0, 50, 0
2,41468, Note_on_c, 0, 65, 0
2,41475, Note_on_c, 0, 67, 55
2,41496, Note_on_c, 0, 49, 47
2,41632, Note_on_c, 0, 65, 57
2,41645, Note_on_c, 0, 67, 0
2,41648, Note_on_c, 0, 50, 52
2,41720, Note_on_c, 0, 49, 0
2,41801, Note_on_c, 0, 50, 0
2,41804, Note_on_c, 0, 65, 0
2,41808, Note_on_c, 0, 64, 62
2,41828, Note_on_c, 0, 52, 47
2,41953, Note_on_c, 0, 52, 0
2,41964, Note_on_c, 0, 64, 0
2,41982, Note_on_c, 0, 65, 59
2,41987, Note_on_c, 0, 50, 50
2,42133, Note_on_c, 0, 57, 0
2,42146, Note_on_c, 0, 65, 0
2,42149, Note_on_c, 0, 67, 66
2,42150, Note_on_c, 0, 55, 53
2,42307, Note_on_c, 0, 55, 0
2,42314, Note_on_c, 0, 53, 58
2,42324, Note_on_c, 0, 69, 76
2,42349, Note_on_c, 0, 67, 0
2,42448, Note_on_c, 0, 53, 0
2,42474, Note_on_c, 0, 52, 53
2,42474, Note_on_c, 0, 70, 77
2,42493, Note_on_c, 0, 69, 0
2,42622, Note_on_c, 0, 53, 57
2,42624, Note_on_c, 0, 52, 0
2,42629, Note_on_c, 0, 69, 82
2,42683, Note_on_c, 0, 70, 0
2,42779, Note_on_c, 0, 55, 57
2,42792, Note_on_c, 0, 67, 74
2,42805, Note_on_c, 0, 53, 0
2,42837, Note_on_c, 0, 69, 0
2,42897, Note_on_c, 0, 50, 0
2,42959, Note_on_c, 0, 55, 0
2,43003, Note_on_c, 0, 69, 81
2,43004, Note_on_c, 0, 53, 53
2,43020, Note_on_c, 0, 67, 0
2,43258, Note_on_c, 0, 48, 55
2,43282, Note_on_c, 0, 69, 0
2,43516, Note_on_c, 0, 46, 54
2,43529, Note_on_c, 0, 74, 72
2,43531, Note_on_c, 0, 48, 0
2,43546, Note_on_c, 0, 53, 0
2,43793, Note_on_c, 0, 55, 54
2,44009, Note_on_c, 0, 55, 0
2,44042, Note_on_c, 0, 45, 50
2,44053, Note_on_c, 0, 73, 78
2,44074, Note_on_c, 0, 46, 0
2,44194, Note_on_c, 0, 74, 0
2,44318, Note_on_c, 0, 55, 49
2,44571, Note_on_c, 0, 54, 48
2,44581, Note_on_c, 0, 72, 76
2,44604, Note_on_c, 0, 55, 0
2,44682, Note_on_c, 0, 73, 0
2,44821, Note_on_c, 0, 54, 0
2,44844, Note_on_c, 0, 50, 55
2,44888, Note_on_c, 0, 45, 0
2,45055, Note_on_c, 0, 50, 0
2,45117, Note_on_c, 0, 43, 37
2,45130, Note_on_c, 0, 71, 67
2,45176, Note_on_c, 0, 72, 0
2,45384, Note_on_c, 0, 53, 44
2,45589, Note_on_c, 0, 53, 0
2,45631, Note_on_c, 0, 70, 74
2,45639, Note_on_c, 0, 52, 39
2,45683, Note_on_c, 0, 71, 0
2,45865, Note_on_c, 0, 52, 0
2,45883, Note_on_c, 0, 43, 0
2,45900, Note_on_c, 0, 48, 48
2,46133, Note_on_c, 0, 48, 0
2,46134, Note_on_c, 0, 41, 49
2,46159, Note_on_c, 0, 69, 77
2,46225, Note_on_c, 0, 70, 0
2,46404, Note_on_c, 0, 51, 62
2,46414, Note_on_c, 0, 69, 0
2,46616, Note_on_c, 0, 51, 0
2,46659, Note_on_c, 0, 50, 52
2,46668, Note_on_c, 0, 81, 90
2,46884, Note_on_c, 0, 50, 0
2,46890, Note_on_c, 0, 41, 0
2,46898, Note_on_c, 0, 46, 57
2,47180, Note_on_c, 0, 40, 56
2,47193, Note_on_c, 0, 80, 83
2,47207, Note_on_c, 0, 46, 0
2,47243, Note_on_c, 0, 81, 0
2,47424, Note_on_c, 0, 50, 55
2,47692, Note_on_c, 0, 50, 0
2,47707, Note_on_c, 0, 49, 56
2,47712, Note_on_c, 0, 79, 72
2,47766, Note_on_c, 0, 40, 0
2,47777, Note_on_c, 0, 80, 0
2,47969, Note_on_c, 0, 45, 44
2,48008, Note_on_c, 0, 49, 0
2,48165, Note_on_c, 0, 45, 0
2,48225, Note_on_c, 0, 50, 44
2,48234, Note_on_c, 0, 78, 64
2,48235, Note_on_c, 0, 38, 48
2,48269, Note_on_c, 0, 79, 0
2,48345, Note_on_c, 0, 50, 0
2,48430, Note_on_c, 0, 78, 0
2,48457, Note_on_c, 0, 38, 0
2,48466, Note_on_c, 0, 69, 70
2,48733, Note_on_c, 0, 50, 54
2,48733, Note_on_c, 0, 77, 65
2,48743, Note_on_c, 0, 70, 70
2,48765, Note_on_c, 0, 69, 0
2,48976, Note_on_c, 0, 77, 0
2,48995, Note_on_c, 0, 69, 80
2,49004, Note_on_c, 0, 70, 0
2,49240, Note_on_c, 0, 67, 71
2,49242, Note_on_c, 0, 76, 70
2,49246, Note_on_c, 0, 69, 0
2,49487, Note_on_c, 0, 70, 74
2,49544, Note_on_c, 0, 67, 0
2,49756, Note_on_c, 0, 69, 63
2,49767, Note_on_c, 0, 49, 47
2,49792, Note_on_c, 0, 50, 0
2,49816, Note_on_c, 0, 70, 0
2,49986, Note_on_c, 0, 67, 59
2,50004, Note_on_c, 0, 69, 0
2,50257, Note_on_c, 0, 67, 0
2,50275, Note_on_c, 0, 65, 54
2,50285, Note_on_c, 0, 50, 34
2,50369, Note_on_c, 0, 49, 0
2,50424, Note_on_c, 0, 50, 0
2,50525, Note_on_c, 0, 57, 42
2,50688, Note_on_c, 0, 57, 0
2,50766, Note_on_c, 0, 74, 58
2,50770, Note_on_c, 0, 65, 0
2,50788, Note_on_c, 0, 58, 41
2,50873, Note_on_c, 0, 76, 0
2,51046, Note_on_c, 0, 57, 50
2,51098, Note_on_c, 0, 58, 0
2,51289, Note_on_c, 0, 57, 0
2,51302, Note_on_c, 0, 64, 47
2,51320, Note_on_c, 0, 55, 43
2,51527, Note_on_c, 0, 55, 0
2,51541, Note_on_c, 0, 58, 39
2,51789, Note_on_c, 0, 57, 36
2,51803, Note_on_c, 0, 73, 51
2,51852, Note_on_c, 0, 74, 0
2,51857, Note_on_c, 0, 58, 0
2,52025, Note_on_c, 0, 73, 0
2,52041, Note_on_c, 0, 55, 44
2,52100, Note_on_c, 0, 57, 0
2,52309, Note_on_c, 0, 55, 0
2,52319, Note_on_c, 0, 53, 46
2,52496, Note_on_c, 0, 64, 0
2,52567, Note_on_c, 0, 81, 53
2,52814, Note_on_c, 0, 81, 0
2,52827, Note_on_c, 0, 82, 50
2,52836, Note_on_c, 0, 62, 44
2,53013, Note_on_c, 0, 53, 0
2,53084, Note_on_c, 0, 81, 54
2,53094, Note_on_c, 0, 82, 0
2,53338, Note_on_c, 0, 52, 37
2,53352, Note_on_c, 0, 79, 51
2,53352, Note_on_c, 0, 81, 0
2,53633, Note_on_c, 0, 82, 50
2,53654, Note_on_c, 0, 79, 0
2,53887, Note_on_c, 0, 81, 52
2,53899, Note_on_c, 0, 61, 34
2,53911, Note_on_c, 0, 82, 0
2,53980, Note_on_c, 0, 62, 0
2,54036, Note_on_c, 0, 52, 0
2,54052, Note_on_c, 0, 61, 0
2,54089, Note_on_c, 0, 81, 0
2,54150, Note_on_c, 0, 79, 51
2,54356, Note_on_c, 0, 79, 0
2,54373, Note_on_c, 0, 77, 51
2,54401, Note_on_c, 0, 50, 3
2,54406, Note_on_c, 0, 62, 41
2,54419, Control_c, 0, 64, 19
2,54425, Note_on_c, 0, 50, 0
2,54438, Control_c, 0, 64, 54
2,54458, Control_c, 0, 64, 61
2,54476, Control_c, 0, 64, 64
2,54496, Control_c, 0, 64, 67
2,54515, Control_c, 0, 64, 71
2,54527, Note_on_c, 0, 62, 0
2,54535, Control_c, 0, 64, 79
2,54553, Control_c, 0, 64, 87
2,54565, Note_on_c, 0, 77, 0
2,54569, Note_on_c, 0, 76, 55
2,54573, Control_c, 0, 64, 90
2,54592, Control_c, 0, 64, 85
2,54594, Note_on_c, 0, 64, 52
2,54611, Control_c, 0, 64, 75
2,54630, Control_c, 0, 64, 65
2,54649, Control_c, 0, 64, 54
2,54669, Control_c, 0, 64, 39
2,54671, Note_on_c, 0, 76, 0
2,54687, Control_c, 0, 64, 11
2,54707, Control_c, 0, 64, 0
2,54717, Note_on_c, 0, 64, 0
2,54739, Note_on_c, 0, 65, 44
2,54742, Note_on_c, 0, 74, 48
2,54836, Note_on_c, 0, 65, 0
2,54862, Note_on_c, 0, 74, 0
2,54897, Note_on_c, 0, 67, 34
2,54898, Note_on_c, 0, 73, 49
2,54998, Note_on_c, 0, 67, 0
2,55035, Note_on_c, 0, 73, 0
2,55042, Note_on_c, 0, 65, 36
2,55048, Note_on_c, 0, 74, 45
2,55193, Note_on_c, 0, 65, 0
2,55201, Note_on_c, 0, 74, 0
2,55210, Note_on_c, 0, 76, 50
2,55226, Note_on_c, 0, 64, 49
2,55343, Note_on_c, 0, 76, 0
2,55390, Note_on_c, 0, 69, 53
2,55400, Note_on_c, 0, 64, 0
2,55403, Note_on_c, 0, 65, 39
2,55494, Note_on_c, 0, 65, 0
2,55543, Note_on_c, 0, 71, 59
2,55546, Note_on_c, 0, 69, 0
2,55560, Note_on_c, 0, 67, 40
2,55691, Note_on_c, 0, 67, 0
2,55694, Note_on_c, 0, 71, 0
2,55717, Note_on_c, 0, 69, 57
2,55718, Note_on_c, 0, 73, 58
2,55868, Note_on_c, 0, 69, 0
2,55878, Note_on_c, 0, 74, 58
2,55879, Note_on_c, 0, 70, 58
2,55905, Note_on_c, 0, 73, 0
2,55985, Note_on_c, 0, 70, 0
2,56025, Note_on_c, 0, 69, 60
2,56029, Note_on_c, 0, 73, 69
2,56084, Note_on_c, 0, 74, 0
2,56190, Note_on_c, 0, 71, 71
2,56201, Note_on_c, 0, 67, 59
2,56209, Note_on_c, 0, 69, 0
2,56241, Note_on_c, 0, 73, 0
2,56365, Note_on_c, 0, 69, 71
2,56377, Note_on_c, 0, 73, 79
2,56411, Note_on_c, 0, 71, 0
2,56415, Note_on_c, 0, 67, 0
2,56508, Note_on_c, 0, 73, 0
2,56539, Note_on_c, 0, 74, 75
2,56548, Note_on_c, 0, 69, 0
2,56694, Note_on_c, 0, 76, 80
2,56711, Note_on_c, 0, 74, 0
2,56851, Note_on_c, 0, 77, 78
2,56856, Note_on_c, 0, 74, 70
2,56872, Note_on_c, 0, 76, 0
2,56957, Note_on_c, 0, 74, 0
2,57007, Note_on_c, 0, 76, 80
2,57047, Note_on_c, 0, 77, 0
2,57158, Note_on_c, 0, 76, 0
2,57160, Note_on_c, 0, 74, 72
2,57361, Note_on_c, 0, 76, 75
2,57369, Note_on_c, 0, 73, 76
2,57409, Note_on_c, 0, 74, 0
2,57525, Note_on_c, 0, 76, 0
2,57601, Note_on_c, 0, 47, 53
2,57861, Note_on_c, 0, 47, 0
2,57870, Note_on_c, 0, 81, 71
2,57874, Note_on_c, 0, 48, 51
2,57881, Note_on_c, 0, 72, 74
2,57934, Note_on_c, 0, 73, 0
2,58116, Note_on_c, 0, 50, 59
2,58128, Note_on_c, 0, 48, 0
2,58188, Note_on_c, 0, 72, 0
2,58335, Note_on_c, 0, 50, 0
2,58364, Note_on_c, 0, 52, 53
2,58376, Note_on_c, 0, 80, 76
2,58385, Note_on_c, 0, 71, 68
2,58425, Note_on_c, 0, 81, 0
2,58589, Note_on_c, 0, 80, 0
2,58627, Note_on_c, 0, 54, 65
2,58659, Note_on_c, 0, 52, 0
2,58875, Note_on_c, 0, 55, 52
2,58884, Note_on_c, 0, 70, 76
2,58887, Note_on_c, 0, 79, 75
2,58900, Note_on_c, 0, 71, 0
2,58919, Note_on_c, 0, 54, 0
2,59136, Note_on_c, 0, 52, 65
2,59146, Note_on_c, 0, 55, 0
2,59361, Note_on_c, 0, 52, 0
2,59396, Note_on_c, 0, 57, 56
2,59402, Note_on_c, 0, 78, 73
2,59408, Note_on_c, 0, 69, 68
2,59488, Note_on_c, 0, 70, 0
2,59513, Note_on_c, 0, 79, 0
2,59647, Note_on_c, 0, 56, 66
2,59679, Note_on_c, 0, 57, 0
2,59878, Note_on_c, 0, 78, 0
2,59906, Note_on_c, 0, 77, 75
2,59909, Note_on_c, 0, 57, 66
2,59945, Note_on_c, 0, 56, 0
2,60148, Note_on_c, 0, 59, 73
2,60188, Note_on_c, 0, 57, 0
2,60393, Note_on_c, 0, 60, 63
2,60401, Note_on_c, 0, 59, 0
2,60404, Note_on_c, 0, 76, 78
2,60454, Note_on_c, 0, 77, 0
2,60605, Note_on_c, 0, 76, 0
2,60645, Note_on_c, 0, 54, 72
2,60646, Note_on_c, 0, 60, 0
2,60906, Note_on_c, 0, 69, 0
2,60913, Note_on_c, 0, 59, 65
2,60914, Note_on_c, 0, 74, 72
2,60920, Note_on_c, 0, 54, 0
2,61155, Note_on_c, 0, 57, 57
2,61155, Note_on_c, 0, 65, 67
2,61185, Note_on_c, 0, 59, 0
2,61419, Note_on_c, 0, 56, 62
2,61425, Note_on_c, 0, 64, 72
2,61437, Note_on_c, 0, 57, 0
2,61441, Note_on_c, 0, 65, 0
2,61674, Note_on_c, 0, 52, 69
2,61676, Note_on_c, 0, 56, 0
2,61866, Note_on_c, 0, 64, 0
2,61920, Note_on_c, 0, 57, 64
2,61922, Note_on_c, 0, 72, 79
2,61951, Note_on_c, 0, 74, 0
2,61977, Note_on_c, 0, 52, 0
2,62149, Note_on_c, 0, 72, 0
2,62176, Note_on_c, 0, 64, 73
2,62374, Note_on_c, 0, 64, 0
2,62419, Note_on_c, 0, 71, 76
2,62421, Note_on_c, 0, 62, 72
2,62660, Note_on_c, 0, 57, 0
2,62666, Note_on_c, 0, 50, 69
2,62920, Note_on_c, 0, 55, 63
2,62922, Note_on_c, 0, 70, 76
2,62945, Note_on_c, 0, 50, 0
2,62971, Note_on_c, 0, 71, 0
2,62997, Note_on_c, 0, 62, 0
2,63159, Note_on_c, 0, 53, 57
2,63180, Note_on_c, 0, 55, 0
2,63181, Note_on_c, 0, 62, 65
2,63427, Note_on_c, 0, 52, 61
2,63431, Note_on_c, 0, 53, 0
2,63435, Note_on_c, 0, 60, 72
2,63459, Note_on_c, 0, 62, 0
2,63492, Note_on_c, 0, 70, 0
2,63679, Note_on_c, 0, 48, 67
2,63688, Note_on_c, 0, 52, 0
2,63897, Note_on_c, 0, 60, 0
2,63937, Note_on_c, 0, 53, 59
2,63938, Note_on_c, 0, 69, 74
2,63968, Note_on_c, 0, 48, 0
2,64181, Note_on_c, 0, 60, 65
2,64422, Note_on_c, 0, 60, 0
2,64435, Note_on_c, 0, 68, 70
2,64445, Note_on_c, 0, 59, 61
2,64460, Note_on_c, 0, 69, 0
2,64670, Note_on_c, 0, 68, 0
2,64684, Note_on_c, 0, 53, 0
2,64688, Note_on_c, 0, 47, 58
2,64960, Note_on_c, 0, 67, 58
2,64963, Note_on_c, 0, 52, 53
2,64977, Note_on_c, 0, 59, 0
2,64983, Note_on_c, 0, 47, 0
2,65182, Note_on_c, 0, 52, 0
2,65199, Note_on_c, 0, 50, 43
2,65207, Note_on_c, 0, 58, 57
2,65433, Note_on_c, 0, 58, 0
2,65473, Note_on_c, 0, 50, 0
2,65473, Note_on_c, 0, 67, 0
2,65474, Note_on_c, 0, 57, 50
2,65482, Note_on_c, 0, 49, 45
2,65692, Note_on_c, 0, 49, 0
2,65719, Note_on_c, 0, 45, 46
2,65880, Note_on_c, 0, 57, 0
2,65936, Note_on_c, 0, 45, 0
2,65955, Note_on_c, 0, 67, 54
2,65973, Note_on_c, 0, 50, 46
2,66011, Note_on_c, 0, 67, 0
2,66051, Note_on_c, 0, 65, 43
2,66083, Note_on_c, 0, 65, 0
2,66083, Note_on_c, 0, 67, 54
2,66156, Note_on_c, 0, 67, 0
2,66182, Note_on_c, 0, 65, 50
2,66475, Note_on_c, 0, 65, 0
2,66501, Note_on_c, 0, 69, 52
2,66502, Note_on_c, 0, 64, 50
2,66605, Note_on_c, 0, 69, 0
2,66650, Note_on_c, 0, 67, 51
2,66674, Note_on_c, 0, 64, 0
2,66814, Note_on_c, 0, 65, 40
2,66843, Note_on_c, 0, 67, 0
2,66923, Note_on_c, 0, 50, 0
2,66973, Note_on_c, 0, 49, 44
2,66979, Note_on_c, 0, 64, 49
2,66981, Note_on_c, 0, 65, 0
2,67153, Note_on_c, 0, 65, 46
2,67154, Note_on_c, 0, 64, 0
2,67282, Note_on_c, 0, 65, 0
2,67293, Note_on_c, 0, 67, 47
2,67373, Note_on_c, 0, 49, 0
2,67438, Note_on_c, 0, 50, 42
2,67451, Note_on_c, 0, 65, 51
2,67490, Note_on_c, 0, 67, 0
2,67575, Note_on_c, 0, 50, 0
2,67600, Note_on_c, 0, 65, 0
2,67619, Note_on_c, 0, 64, 50
2,67629, Note_on_c, 0, 48, 37
2,67746, Note_on_c, 0, 64, 0
2,67771, Note_on_c, 0, 48, 0
2,67784, Note_on_c, 0, 62, 49
2,67798, Note_on_c, 0, 46, 39
2,67900, Note_on_c, 0, 46, 0
2,67938, Note_on_c, 0, 62, 0
2,67949, Note_on_c, 0, 45, 39
2,67959, Note_on_c, 0, 61, 54
2,68109, Note_on_c, 0, 46, 43
2,68111, Note_on_c, 0, 45, 0
2,68114, Note_on_c, 0, 61, 0
2,68114, Note_on_c, 0, 62, 53
2,68262, Note_on_c, 0, 46, 0
2,68278, Note_on_c, 0, 62, 0
2,68290, Note_on_c, 0, 64, 55
2,68303, Note_on_c, 0, 48, 27
2,68450, Note_on_c, 0, 62, 52
2,68475, Note_on_c, 0, 64, 0
2,68480, Note_on_c, 0, 46, 45
2,68513, Note_on_c, 0, 48, 0
2,68567, Note_on_c, 0, 46, 0
2,68598, Note_on_c, 0, 62, 0
2,68657, Note_on_c, 0, 45, 45
2,68779, Note_on_c, 0, 45, 0
2,68806, Note_on_c, 0, 43, 38
2,68941, Note_on_c, 0, 43, 0
2,68971, Note_on_c, 0, 42, 47
2,68989, Note_on_c, 0, 57, 50
2,69136, Note_on_c, 0, 43, 39
2,69168, Note_on_c, 0, 42, 0
2,69276, Note_on_c, 0, 43, 0
2,69320, Note_on_c, 0, 45, 45
2,69493, Note_on_c, 0, 43, 38
2,69509, Note_on_c, 0, 45, 0
2,69513, Note_on_c, 0, 57, 0
2,69515, Note_on_c, 0, 58, 55
2,69660, Note_on_c, 0, 43, 0
2,69693, Note_on_c, 0, 62, 47
2,69809, Note_on_c, 0, 58, 0
2,69849, Note_on_c, 0, 64, 52
2,69851, Note_on_c, 0, 62, 0
2,69989, Note_on_c, 0, 64, 0
2,70036, Note_on_c, 0, 38, 51
2,70037, Note_on_c, 0, 65, 51
2,70049, Note_on_c, 0, 59, 54
2,70195, Note_on_c, 0, 65, 0
2,70237, Note_on_c, 0, 64, 56
2,70261, Note_on_c, 0, 59, 0
2,70367, Note_on_c, 0, 64, 0
2,70383, Note_on_c, 0, 62, 54
2,70452, Note_on_c, 0, 62, 0
2,70544, Note_on_c, 0, 39, 55
2,70563, Note_on_c, 0, 60, 53
2,70585, Note_on_c, 0, 38, 0
2,70731, Note_on_c, 0, 70, 63
2,70760, Note_on_c, 0, 60, 0
2,70889, Note_on_c, 0, 69, 65
2,70941, Note_on_c, 0, 70, 0
2,71063, Note_on_c, 0, 40, 55
2,71068, Note_on_c, 0, 67, 62
2,71086, Note_on_c, 0, 69, 0
2,71090, Note_on_c, 0, 61, 58
2,71116, Note_on_c, 0, 39, 0
2,71238, Note_on_c, 0, 69, 66
2,71264, Note_on_c, 0, 67, 0
2,71265, Note_on_c, 0, 61, 0
2,71399, Note_on_c, 0, 70, 75
2,71433, Note_on_c, 0, 69, 0
2,71530, Note_on_c, 0, 70, 0
2,71556, Note_on_c, 0, 40, 0
2,71562, Note_on_c, 0, 41, 59
2,71569, Note_on_c, 0, 62, 69
2,71747, Note_on_c, 0, 69, 66
2,71916, Note_on_c, 0, 70, 66
2,71950, Note_on_c, 0, 69, 0
2,72056, Note_on_c, 0, 41, 0
2,72080, Note_on_c, 0, 42, 53
2,72080, Note_on_c, 0, 72, 63
2,72102, Note_on_c, 0, 70, 0
2,72209, Note_on_c, 0, 72, 0
2,72250, Note_on_c, 0, 70, 65
2,72430, Note_on_c, 0, 70, 0
2,72436, Note_on_c, 0, 69, 60
2,72611, Note_on_c, 0, 43, 39
2,72616, Note_on_c, 0, 70, 54
2,72639, Note_on_c, 0, 69, 0
2,72647, Note_on_c, 0, 42, 0
2,72752, Note_on_c, 0, 43, 0
2,72784, Note_on_c, 0, 45, 47
2,72817, Note_on_c, 0, 70, 0
2,72931, Note_on_c, 0, 45, 0
2,72931, Note_on_c, 0, 46, 51
2,73109, Note_on_c, 0, 46, 0
2,73119, Note_on_c, 0, 66, 58
2,73121, Note_on_c, 0, 48, 48
2,73284, Note_on_c, 0, 46, 54
2,73285, Note_on_c, 0, 48, 0
2,73294, Note_on_c, 0, 66, 0
2,73425, Note_on_c, 0, 46, 0
2,73451, Note_on_c, 0, 45, 48
2,73622, Note_on_c, 0, 45, 0
2,73629, Note_on_c, 0, 46, 47
2,73632, Note_on_c, 0, 67, 60
2,73657, Note_on_c, 0, 62, 0
2,73792, Note_on_c, 0, 48, 46
2,73801, Note_on_c, 0, 69, 62
2,73829, Note_on_c, 0, 46, 0
2,73890, Note_on_c, 0, 67, 0
2,73903, Note_on_c, 0, 48, 0
2,73955, Note_on_c, 0, 50, 51
2,73964, Note_on_c, 0, 70, 71
2,74000, Note_on_c, 0, 69, 0
2,74110, Note_on_c, 0, 50, 0
2,74123, Note_on_c, 0, 72, 69
2,74129, Note_on_c, 0, 70, 0
2,74148, Note_on_c, 0, 51, 41
2,74290, Note_on_c, 0, 70, 63
2,74292, Note_on_c, 0, 51, 0
2,74304, Note_on_c, 0, 50, 52
2,74317, Note_on_c, 0, 72, 0
2,74411, Note_on_c, 0, 70, 0
2,74453, Note_on_c, 0, 50, 0
2,74461, Note_on_c, 0, 48, 55
2,74466, Note_on_c, 0, 69, 65
2,74634, Note_on_c, 0, 50, 58
2,74641, Note_on_c, 0, 70, 68
2,74657, Note_on_c, 0, 69, 0
2,74703, Note_on_c, 0, 48, 0
2,74776, Note_on_c, 0, 50, 0
2,74797, Note_on_c, 0, 72, 68
2,74881, Note_on_c, 0, 70, 0
2,74953, Note_on_c, 0, 74, 67
2,74955, Note_on_c, 0, 72, 0
2,75134, Note_on_c, 0, 55, 70
2,75141, Note_on_c, 0, 75, 70
2,75174, Note_on_c, 0, 74, 0
2,75301, Note_on_c, 0, 75, 0
2,75310, Note_on_c, 0, 74, 72
2,75452, Note_on_c, 0, 73, 70
2,75500, Note_on_c, 0, 74, 0
2,75637, Note_on_c, 0, 74, 72
2,75659, Note_on_c, 0, 73, 0
2,75805, Note_on_c, 0, 72, 64
2,75959, Note_on_c, 0, 70, 64
2,75961, Note_on_c, 0, 72, 0
2,76149, Note_on_c, 0, 54, 51
2,76150, Note_on_c, 0, 70, 0
2,76156, Note_on_c, 0, 69, 57
2,76170, Note_on_c, 0, 55, 0
2,76301, Note_on_c, 0, 69, 0
2,76308, Note_on_c, 0, 70, 58
2,76445, Note_on_c, 0, 70, 0
2,76480, Note_on_c, 0, 72, 48
2,76625, Note_on_c, 0, 54, 0
2,76655, Note_on_c, 0, 72, 0
2,76664, Note_on_c, 0, 70, 51
2,76690, Note_on_c, 0, 55, 44
2,76765, Note_on_c, 0, 74, 0
2,76800, Note_on_c, 0, 70, 0
2,76842, Note_on_c, 0, 55, 0
2,76850, Note_on_c, 0, 53, 58
2,77009, Note_on_c, 0, 52, 65
2,77011, Note_on_c, 0, 53, 0
2,77170, Note_on_c, 0, 50, 66
2,77173, Note_on_c, 0, 52, 0
2,77190, Note_on_c, 0, 74, 69
2,77327, Note_on_c, 0, 74, 0
2,77357, Note_on_c, 0, 52, 72
2,77400, Note_on_c, 0, 50, 0
2,77516, Note_on_c, 0, 53, 72
2,77519, Note_on_c, 0, 52, 0
2,77704, Note_on_c, 0, 52, 56
2,77714, Note_on_c, 0, 79, 71
2,77720, Note_on_c, 0, 67, 66
2,77742, Note_on_c, 0, 53, 0
2,77866, Note_on_c, 0, 77, 75
2,77871, Note_on_c, 0, 52, 0
2,77892, Note_on_c, 0, 67, 0
2,77914, Note_on_c, 0, 79, 0
2,78021, Note_on_c, 0, 76, 77
2,78133, Note_on_c, 0, 77, 0
2,78205, Note_on_c, 0, 74, 72
2,78207, Note_on_c, 0, 55, 53
2,78208, Note_on_c, 0, 71, 74
2,78231, Note_on_c, 0, 76, 0
2,78312, Note_on_c, 0, 55, 0
2,78368, Note_on_c, 0, 76, 77
2,78416, Note_on_c, 0, 74, 0
2,78421, Note_on_c, 0, 71, 0
2,78518, Note_on_c, 0, 77, 76
2,78552, Note_on_c, 0, 76, 0
2,78689, Note_on_c, 0, 76, 78
2,78704, Note_on_c, 0, 72, 72
2,78712, Note_on_c, 0, 60, 49
2,78759, Note_on_c, 0, 77, 0
2,78809, Note_on_c, 0, 76, 0
2,78869, Note_on_c, 0, 58, 61
2,78873, Note_on_c, 0, 60, 0
2,79015, Note_on_c, 0, 58, 0
2,79031, Note_on_c, 0, 57, 61
2,79207, Note_on_c, 0, 57, 0
2,79217, Note_on_c, 0, 55, 54
2,79221, Note_on_c, 0, 79, 81
2,79325, Note_on_c, 0, 79, 0
2,79347, Note_on_c, 0, 72, 0
2,79400, Note_on_c, 0, 55, 0
2,79400, Note_on_c, 0, 57, 54
2,79563, Note_on_c, 0, 57, 0
2,79567, Note_on_c, 0, 58, 58
2,79750, Note_on_c, 0, 57, 53
2,79762, Note_on_c, 0, 72, 69
2,79789, Note_on_c, 0, 58, 0
2,79906, Note_on_c, 0, 57, 0
2,79926, Note_on_c, 0, 70, 74
2,80087, Note_on_c, 0, 69, 77
2,80114, Note_on_c, 0, 72, 0
2,80174, Note_on_c, 0, 70, 0
2,80256, Note_on_c, 0, 60, 57
2,80262, Note_on_c, 0, 67, 68
2,80280, Note_on_c, 0, 69, 0
2,80313, Note_on_c, 0, 60, 0
2,80414, Note_on_c, 0, 69, 74
2,80497, Note_on_c, 0, 67, 0
2,80567, Note_on_c, 0, 70, 69
2,80600, Note_on_c, 0, 69, 0
2,80761, Note_on_c, 0, 69, 67
2,80771, Note_on_c, 0, 53, 44
2,80832, Note_on_c, 0, 70, 0
2,80872, Note_on_c, 0, 69, 0
2,80919, Note_on_c, 0, 53, 0
2,80936, Note_on_c, 0, 51, 50
2,81085, Note_on_c, 0, 51, 0
2,81097, Note_on_c, 0, 50, 51
2,81238, Note_on_c, 0, 50, 0
2,81264, Note_on_c, 0, 72, 60
2,81270, Note_on_c, 0, 48, 45
2,81347, Note_on_c, 0, 72, 0
2,81407, Note_on_c, 0, 48, 0
2,81432, Note_on_c, 0, 50, 46
2,81580, Note_on_c, 0, 50, 0
2,81599, Note_on_c, 0, 51, 46
2,81786, Note_on_c, 0, 50, 42
2,81799, Note_on_c, 0, 77, 58
2,81808, Note_on_c, 0, 51, 0
2,81808, Note_on_c, 0, 65, 53
2,81891, Note_on_c, 0, 50, 0
2,81959, Note_on_c, 0, 75, 66
2,81975, Note_on_c, 0, 65, 0
2,81998, Note_on_c, 0, 77, 0
2,82124, Note_on_c, 0, 74, 56
2,82196, Note_on_c, 0, 75, 0
2,82325, Note_on_c, 0, 72, 58
2,82326, Note_on_c, 0, 53, 30
2,82326, Note_on_c, 0, 74, 0
2,82343, Note_on_c, 0, 69, 48
2,82409, Note_on_c, 0, 69, 0
2,82431, Note_on_c, 0, 53, 0
2,82499, Note_on_c, 0, 74, 46
2,82561, Note_on_c, 0, 72, 0
2,82626, Note_on_c, 0, 74, 0
2,82659, Note_on_c, 0, 75, 45
2,82862, Note_on_c, 0, 58, 41
2,82869, Note_on_c, 0, 70, 49
2,82881, Note_on_c, 0, 74, 48
2,82936, Note_on_c, 0, 75, 0
2,82980, Note_on_c, 0, 58, 0
2,83026, Note_on_c, 0, 57, 48
2,83208, Note_on_c, 0, 55, 48
2,83219, Note_on_c, 0, 57, 0
2,83354, Note_on_c, 0, 55, 0
2,83381, Note_on_c, 0, 69, 61
2,83393, Note_on_c, 0, 70, 0
2,83397, Note_on_c, 0, 54, 47
2,83534, Note_on_c, 0, 54, 0
2,83542, Note_on_c, 0, 55, 54
2,83715, Note_on_c, 0, 57, 55
2,83735, Note_on_c, 0, 55, 0
2,83842, Note_on_c, 0, 57, 0
2,83897, Note_on_c, 0, 74, 0
2,83899, Note_on_c, 0, 73, 58
2,83905, Note_on_c, 0, 55, 46
2,84068, Note_on_c, 0, 55, 0
2,84075, Note_on_c, 0, 53, 50
2,84078, Note_on_c, 0, 74, 65
2,84118, Note_on_c, 0, 73, 0
2,84237, Note_on_c, 0, 52, 60
2,84241, Note_on_c, 0, 53, 0
2,84244, Note_on_c, 0, 76, 73
2,84270, Note_on_c, 0, 74, 0
2,84370, Note_on_c, 0, 52, 0
2,84390, Note_on_c, 0, 50, 62
2,84399, Note_on_c, 0, 77, 78
2,84421, Note_on_c, 0, 76, 0
2,84541, Note_on_c, 0, 52, 61
2,84546, Note_on_c, 0, 50, 0
2,84548, Note_on_c, 0, 76, 78
2,84557, Note_on_c, 0, 77, 0
2,84689, Note_on_c, 0, 52, 0
2,84700, Note_on_c, 0, 53, 61
2,84704, Note_on_c, 0, 74, 78
2,84763, Note_on_c, 0, 76, 0
2,84801, Note_on_c, 0, 74, 0
2,84824, Note_on_c, 0, 53, 0
2,84870, Note_on_c, 0, 52, 58
2,84880, Note_on_c, 0, 76, 78
2,85041, Note_on_c, 0, 50, 58
2,85042, Note_on_c, 0, 77, 77
2,85051, Note_on_c, 0, 52, 0
2,85106, Note_on_c, 0, 76, 0
2,85190, Note_on_c, 0, 49, 65
2,85191, Note_on_c, 0, 79, 80
2,85218, Note_on_c, 0, 50, 0
2,85219, Note_on_c, 0, 77, 0
2,85334, Note_on_c, 0, 49, 0
2,85347, Note_on_c, 0, 47, 58
2,85367, Note_on_c, 0, 81, 79
2,85409, Note_on_c, 0, 79, 0
2,85500, Note_on_c, 0, 49, 62
2,85519, Note_on_c, 0, 79, 79
2,85521, Note_on_c, 0, 81, 0
2,85524, Note_on_c, 0, 47, 0
2,85675, Note_on_c, 0, 49, 0
2,85679, Note_on_c, 0, 77, 79
2,85680, Note_on_c, 0, 50, 59
2,85714, Note_on_c, 0, 79, 0
2,85874, Note_on_c, 0, 49, 66
2,85893, Note_on_c, 0, 79, 82
2,85905, Note_on_c, 0, 50, 0
2,85919, Note_on_c, 0, 69, 0
2,85945, Note_on_c, 0, 77, 0
2,86134, Note_on_c, 0, 49, 0
2,86142, Note_on_c, 0, 45, 60
2,86148, Note_on_c, 0, 79, 0
2,86150, Note_on_c, 0, 69, 80
2,86450, Note_on_c, 0, 77, 64
2,86456, Note_on_c, 0, 70, 67
2,86459, Note_on_c, 0, 50, 59
2,86467, Note_on_c, 0, 69, 0
2,86540, Note_on_c, 0, 45, 0
2,86692, Note_on_c, 0, 77, 0
2,86710, Note_on_c, 0, 69, 78
2,86715, Note_on_c, 0, 70, 0
2,86947, Note_on_c, 0, 69, 0
2,86948, Note_on_c, 0, 76, 72
2,86956, Note_on_c, 0, 67, 73
2,87201, Note_on_c, 0, 70, 78
2,87260, Note_on_c, 0, 67, 0
2,87456, Note_on_c, 0, 69, 67
2,87461, Note_on_c, 0, 49, 56
2,87480, Note_on_c, 0, 50, 0
2,87546, Note_on_c, 0, 70, 0
2,87699, Note_on_c, 0, 67, 63
2,87743, Note_on_c, 0, 69, 0
2,87944, Note_on_c, 0, 67, 0
2,87953, Note_on_c, 0, 50, 49
2,87964, Note_on_c, 0, 65, 65
2,87995, Note_on_c, 0, 49, 0
2,88047, Note_on_c, 0, 50, 0
2,88180, Note_on_c, 0, 76, 0
2,88209, Note_on_c, 0, 74, 65
2,88465, Note_on_c, 0, 75, 74
2,88480, Note_on_c, 0, 58, 44
2,88492, Note_on_c, 0, 55, 40
2,88497, Note_on_c, 0, 74, 0
2,88728, Note_on_c, 0, 75, 0
2,88735, Note_on_c, 0, 74, 64
2,88969, Note_on_c, 0, 73, 68
2,88977, Note_on_c, 0, 57, 50
2,88984, Note_on_c, 0, 58, 0
2,89000, Note_on_c, 0, 74, 0
2,89233, Note_on_c, 0, 76, 70
2,89280, Note_on_c, 0, 73, 0
2,89484, Note_on_c, 0, 74, 65
2,89488, Note_on_c, 0, 65, 0
2,89494, Note_on_c, 0, 54, 50
2,89521, Note_on_c, 0, 57, 0
2,89531, Note_on_c, 0, 55, 0
2,89584, Note_on_c, 0, 76, 0
2,89736, Note_on_c, 0, 72, 64
2,89813, Note_on_c, 0, 74, 0
2,89983, Note_on_c, 0, 55, 46
2,89994, Note_on_c, 0, 71, 65
2,90000, Note_on_c, 0, 72, 0
2,90008, Note_on_c, 0, 54, 0
2,90153, Note_on_c, 0, 55, 0
2,90252, Note_on_c, 0, 53, 52
2,90464, Note_on_c, 0, 53, 0
2,90495, Note_on_c, 0, 52, 40
2,90498, Note_on_c, 0, 70, 61
2,90502, Note_on_c, 0, 67, 48
2,90502, Note_on_c, 0, 71, 0
2,90749, Note_on_c, 0, 50, 50
2,90782, Note_on_c, 0, 52, 0
2,90942, Note_on_c, 0, 70, 0
2,90991, Note_on_c, 0, 49, 53
2,91008, Note_on_c, 0, 50, 0
2,91014, Note_on_c, 0, 69, 67
2,91274, Note_on_c, 0, 52, 54
2,91305, Note_on_c, 0, 49, 0
2,91484, Note_on_c, 0, 52, 0
2,91536, Note_on_c, 0, 50, 51
2,91537, Note_on_c, 0, 65, 64
2,91537, Note_on_c, 0, 67, 0
2,91771, Note_on_c, 0, 64, 69
2,91776, Note_on_c, 0, 48, 57
2,91802, Note_on_c, 0, 50, 0
2,91803, Note_on_c, 0, 65, 0
2,92034, Note_on_c, 0, 47, 70
2,92052, Note_on_c, 0, 62, 68
2,92061, Note_on_c, 0, 64, 0
2,92153, Note_on_c, 0, 48, 0
2,92291, Note_on_c, 0, 47, 0
2,92293, Note_on_c, 0, 65, 67
2,92313, Note_on_c, 0, 62, 0
2,92546, Note_on_c, 0, 67, 63
2,92549, Note_on_c, 0, 64, 66
2,92559, Note_on_c, 0, 46, 59
2,92603, Note_on_c, 0, 65, 0
2,92623, Note_on_c, 0, 69, 0
2,92794, Note_on_c, 0, 64, 0
2,92818, Note_on_c, 0, 62, 62
2,92863, Note_on_c, 0, 46, 0
2,93064, Note_on_c, 0, 45, 48
2,93065, Note_on_c, 0, 61, 66
2,93067, Note_on_c, 0, 62, 0
2,93200, Note_on_c, 0, 45, 0
2,93211, Note_on_c, 0, 67, 0
2,93325, Note_on_c, 0, 57, 55
2,93563, Note_on_c, 0, 57, 0
2,93583, Note_on_c, 0, 65, 62
2,93587, Note_on_c, 0, 58, 52
2,93587, Note_on_c, 0, 62, 60
2,93591, Note_on_c, 0, 61, 0
2,93822, Note_on_c, 0, 58, 0
2,93832, Note_on_c, 0, 57, 54
2,94107, Note_on_c, 0, 64, 68
2,94109, Note_on_c, 0, 57, 0
2,94112, Note_on_c, 0, 55, 46
2,94151, Note_on_c, 0, 65, 0
2,94372, Note_on_c, 0, 58, 42
2,94386, Note_on_c, 0, 55, 0
2,94601, Note_on_c, 0, 58, 0
2,94604, Note_on_c, 0, 62, 0
2,94622, Note_on_c, 0, 61, 55
2,94632, Note_on_c, 0, 57, 35
2,94865, Note_on_c, 0, 57, 0
2,94879, Note_on_c, 0, 55, 42
2,95071, Note_on_c, 0, 64, 0
2,95129, Note_on_c, 0, 61, 0
2,95154, Note_on_c, 0, 53, 47
2,95163, Note_on_c, 0, 62, 53
2,95187, Note_on_c, 0, 55, 0
2,95392, Note_on_c, 0, 53, 0
2,95413, Note_on_c, 0, 57, 46
2,95423, Note_on_c, 0, 60, 56
2,95428, Note_on_c, 0, 62, 0
2,95630, Note_on_c, 0, 57, 0
2,95657, Note_on_c, 0, 55, 47
2,95659, Note_on_c, 0, 58, 58
2,95699, Note_on_c, 0, 60, 0
2,95897, Note_on_c, 0, 55, 0
2,95899, Note_on_c, 0, 57, 68
2,95908, Note_on_c, 0, 53, 49
2,95927, Note_on_c, 0, 58, 0
2,96096, Note_on_c, 0, 53, 0
2,96137, Note_on_c, 0, 57, 0
2,96158, Note_on_c, 0, 55, 66
2,96167, Note_on_c, 0, 52, 55
2,96392, Note_on_c, 0, 58, 66
2,96397, Note_on_c, 0, 52, 0
2,96401, Note_on_c, 0, 50, 55
2,96430, Note_on_c, 0, 55, 0
2,96634, Note_on_c, 0, 49, 57
2,96647, Note_on_c, 0, 57, 69
2,96649, Note_on_c, 0, 50, 0
2,96701, Note_on_c, 0, 58, 0
2,96858, Note_on_c, 0, 57, 0
2,96888, Note_on_c, 0, 55, 69
2,96892, Note_on_c, 0, 52, 54
2,96893, Note_on_c, 0, 49, 0
2,97091, Note_on_c, 0, 52, 0
2,97140, Note_on_c, 0, 53, 71
2,97154, Note_on_c, 0, 50, 49
2,97154, Note_on_c, 0, 55, 0
2,97395, Note_on_c, 0, 57, 68
2,97405, Note_on_c, 0, 48, 48
2,97421, Note_on_c, 0, 50, 0
2,97451, Note_on_c, 0, 53, 0
2,97641, Note_on_c, 0, 48, 0
2,97650, Note_on_c, 0, 46, 48
2,97651, Note_on_c, 0, 55, 69
2,97706, Note_on_c, 0, 57, 0
2,97870, Note_on_c, 0, 55, 0
2,97897, Note_on_c, 0, 45, 53
2,97902, Note_on_c, 0, 53, 67
2,97912, Note_on_c, 0, 46, 0
2,98144, Note_on_c, 0, 45, 0
2,98147, Note_on_c, 0, 52, 64
2,98150, Note_on_c, 0, 53, 0
2,98159, Note_on_c, 0, 43, 50
2,98384, Note_on_c, 0, 43, 0
2,98392, Note_on_c, 0, 52, 0
2,98401, Note_on_c, 0, 50, 55
2,98414, Note_on_c, 0, 46, 37
2,98648, Note_on_c, 0, 50, 0
2,98651, Note_on_c, 0, 46, 0
2,98654, Note_on_c, 0, 49, 53
2,98667, Note_on_c, 0, 45, 40
2,98892, Note_on_c, 0, 49, 0
2,98906, Note_on_c, 0, 43, 45
2,98908, Note_on_c, 0, 52, 45
2,98912, Note_on_c, 0, 45, 0
2,99106, Note_on_c, 0, 52, 0
2,99168, Note_on_c, 0, 41, 48
2,99171, Note_on_c, 0, 50, 48
2,99210, Note_on_c, 0, 43, 0
2,99331, Note_on_c, 0, 50, 0
2,99357, Note_on_c, 0, 52, 50
2,99436, Note_on_c, 0, 41, 0
2,99502, Note_on_c, 0, 52, 0
2,99512, Note_on_c, 0, 53, 54
2,99667, Note_on_c, 0, 46, 44
2,99667, Note_on_c, 0, 53, 0
2,99683, Note_on_c, 0, 55, 54
2,99837, Note_on_c, 0, 53, 57
2,99856, Note_on_c, 0, 55, 0
2,99867, Note_on_c, 0, 46, 0
2,100000, Note_on_c, 0, 53, 0
2,100010, Note_on_c, 0, 52, 57
2,100147, Note_on_c, 0, 52, 0
2,100182, Note_on_c, 0, 53, 54
2,100187, Note_on_c, 0, 45, 40
2,100347, Note_on_c, 0, 45, 0
2,100352, Note_on_c, 0, 55, 59
2,100356, Note_on_c, 0, 43, 40
2,100359, Note_on_c, 0, 53, 0
2,100515, Note_on_c, 0, 57, 57
2,100516, Note_on_c, 0, 41, 52
2,100541, Note_on_c, 0, 55, 0
2,100559, Note_on_c, 0, 43, 0
2,100649, Note_on_c, 0, 41, 0
2,100680, Note_on_c, 0, 58, 57
2,100682, Note_on_c, 0, 57, 0
2,100697, Note_on_c, 0, 40, 44
2,100801, Note_on_c, 0, 40, 0
2,100833, Note_on_c, 0, 41, 52
2,100841, Note_on_c, 0, 57, 56
2,100876, Note_on_c, 0, 58, 0
2,100957, Control_c, 0, 64, 22
2,100976, Control_c, 0, 64, 58
2,100976, Note_on_c, 0, 55, 63
2,100981, Note_on_c, 0, 41, 0
2,100988, Note_on_c, 0, 57, 0
2,100995, Control_c, 0, 64, 65
2,101008, Note_on_c, 0, 43, 48
2,101014, Control_c, 0, 64, 73
2,101025, Note_on_c, 0, 55, 0
2,101034, Control_c, 0, 64, 92
2,101052, Control_c, 0, 64, 127
2,101105, Note_on_c, 0, 43, 0
2,101149, Control_c, 0, 64, 98
2,101162, Note_on_c, 0, 41, 57
2,101168, Control_c, 0, 64, 68
2,101187, Control_c, 0, 64, 0
2,101187, Note_on_c, 0, 62, 60
2,101191, Note_on_c, 0, 57, 36
2,101291, Note_on_c, 0, 57, 0
2,101328, Note_on_c, 0, 41, 0
2,101346, Note_on_c, 0, 64, 64
2,101356, Note_on_c, 0, 40, 55
2,101360, Note_on_c, 0, 62, 0
2,101487, Note_on_c, 0, 40, 0
2,101504, Note_on_c, 0, 65, 66
2,101518, Note_on_c, 0, 38, 51
2,101531, Note_on_c, 0, 64, 0
2,101652, Note_on_c, 0, 38, 0
2,101671, Note_on_c, 0, 67, 67
2,101686, Note_on_c, 0, 37, 53
2,101698, Note_on_c, 0, 65, 0
2,101831, Note_on_c, 0, 38, 63
2,101834, Note_on_c, 0, 65, 68
2,101864, Note_on_c, 0, 67, 0
2,101891, Note_on_c, 0, 37, 0
2,101958, Note_on_c, 0, 38, 0
2,101982, Note_on_c, 0, 64, 69
2,101988, Note_on_c, 0, 40, 49
2,101995, Note_on_c, 0, 65, 0
2,102114, Note_on_c, 0, 40, 0
2,102145, Note_on_c, 0, 38, 65
2,102157, Note_on_c, 0, 65, 67
2,102166, Control_c, 0, 64, 42
2,102186, Control_c, 0, 64, 101
2,102187, Note_on_c, 0, 38, 0
2,102193, Note_on_c, 0, 64, 0
2,102205, Control_c, 0, 64, 127
2,102264, Note_on_c, 0, 65, 0
2,102300, Control_c, 0, 64, 79
2,102320, Control_c, 0, 64, 36
2,102334, Note_on_c, 0, 67, 73
2,102339, Control_c, 0, 64, 0
2,102377, Note_on_c, 0, 55, 49
2,102456, Note_on_c, 0, 55, 0
2,102494, Note_on_c, 0, 69, 82
2,102501, Note_on_c, 0, 53, 62
2,102533, Note_on_c, 0, 67, 0
2,102632, Note_on_c, 0, 53, 0
2,102655, Note_on_c, 0, 70, 84
2,102657, Note_on_c, 0, 52, 60
2,102669, Note_on_c, 0, 69, 0
2,102787, Note_on_c, 0, 53, 68
2,102797, Note_on_c, 0, 52, 0
2,102804, Note_on_c, 0, 69, 84
2,102845, Note_on_c, 0, 70, 0
2,102959, Note_on_c, 0, 55, 61
2,102964, Note_on_c, 0, 67, 83
2,102966, Note_on_c, 0, 69, 0
2,102970, Note_on_c, 0, 53, 0
2,103115, Note_on_c, 0, 55, 0
2,103141, Note_on_c, 0, 53, 60
2,103152, Note_on_c, 0, 69, 88
2,103196, Note_on_c, 0, 53, 0
2,103220, Note_on_c, 0, 67, 0
2,103408, Note_on_c, 0, 69, 0
2,103414, Note_on_c, 0, 40, 70
2,103685, Note_on_c, 0, 65, 71
2,103685, Note_on_c, 0, 74, 73
2,103693, Note_on_c, 0, 41, 54
2,103727, Note_on_c, 0, 40, 0
2,103928, Note_on_c, 0, 41, 0
2,103934, Note_on_c, 0, 43, 66
2,104181, Note_on_c, 0, 73, 77
2,104188, Note_on_c, 0, 64, 72
2,104192, Note_on_c, 0, 45, 48
2,104202, Note_on_c, 0, 65, 0
2,104224, Note_on_c, 0, 43, 0
2,104227, Note_on_c, 0, 74, 0
2,104403, Note_on_c, 0, 45, 0
2,104434, Note_on_c, 0, 47, 60
2,104685, Note_on_c, 0, 47, 0
2,104686, Note_on_c, 0, 72, 77
2,104689, Note_on_c, 0, 48, 50
2,104696, Note_on_c, 0, 69, 73
2,104702, Note_on_c, 0, 73, 0
2,104719, Note_on_c, 0, 64, 0
2,104912, Note_on_c, 0, 48, 0
2,104925, Note_on_c, 0, 45, 58
2,105197, Note_on_c, 0, 71, 77
2,105201, Note_on_c, 0, 72, 0
2,105210, Note_on_c, 0, 50, 59
2,105227, Note_on_c, 0, 45, 0
2,105445, Note_on_c, 0, 49, 66
2,105468, Note_on_c, 0, 50, 0
2,105688, Note_on_c, 0, 50, 54
2,105690, Note_on_c, 0, 70, 86
2,105742, Note_on_c, 0, 69, 0
2,105757, Note_on_c, 0, 71, 0
2,105766, Note_on_c, 0, 49, 0
2,105899, Note_on_c, 0, 50, 0
2,105939, Note_on_c, 0, 52, 56
2,105950, Note_on_c, 0, 67, 69
2,105952, Note_on_c, 0, 70, 0
2,106199, Note_on_c, 0, 53, 46
2,106202, Note_on_c, 0, 69, 80
2,106230, Note_on_c, 0, 67, 0
2,106249, Note_on_c, 0, 52, 0
2,106446, Note_on_c, 0, 47, 39
2,106467, Note_on_c, 0, 65, 62
2,106512, Note_on_c, 0, 53, 0
2,106735, Note_on_c, 0, 67, 78
2,106736, Note_on_c, 0, 47, 0
2,106740, Note_on_c, 0, 52, 51
2,106772, Note_on_c, 0, 65, 0
2,106814, Note_on_c, 0, 69, 0
2,106991, Note_on_c, 0, 52, 0
2,107005, Note_on_c, 0, 65, 74
2,107015, Note_on_c, 0, 50, 41
2,107185, Note_on_c, 0, 67, 0
2,107249, Note_on_c, 0, 49, 59
2,107262, Note_on_c, 0, 50, 0
2,107262, Note_on_c, 0, 64, 77
2,107271, Note_on_c, 0, 65, 0
2,107510, Note_on_c, 0, 67, 79
2,107528, Note_on_c, 0, 45, 57
2,107530, Note_on_c, 0, 49, 0
2,107556, Note_on_c, 0, 64, 0
2,107829, Note_on_c, 0, 65, 75
2,107830, Note_on_c, 0, 50, 64
2,107835, Note_on_c, 0, 62, 64
2,107867, Note_on_c, 0, 67, 0
2,107890, Note_on_c, 0, 45, 0
2,108122, Note_on_c, 0, 50, 0
2,108145, Note_on_c, 0, 64, 81
2,108146, Note_on_c, 0, 55, 60
2,108179, Note_on_c, 0, 65, 0
2,108520, Note_on_c, 0, 57, 63
2,108547, Note_on_c, 0, 65, 73
2,108550, Note_on_c, 0, 55, 0
2,108550, Note_on_c, 0, 64, 0
2,108774, Note_on_c, 0, 65, 0
2,108795, Note_on_c, 0, 64, 66
2,108850, Note_on_c, 0, 64, 0
2,108866, Note_on_c, 0, 65, 64
2,108932, Note_on_c, 0, 65, 0
2,108958, Note_on_c, 0, 64, 54
2,108988, Note_on_c, 0, 64, 0
2,109010, Note_on_c, 0, 65, 48
2,109022, Note_on_c, 0, 57, 0
2,109057, Note_on_c, 0, 64, 81
2,109092, Note_on_c, 0, 65, 0
2,109466, Note_on_c, 0, 45, 57
2,109466, Note_on_c, 0, 61, 71
2,109472, Note_on_c, 0, 62, 0
2,110019, Note_on_c, 0, 64, 0
2,110072, Note_on_c, 0, 62, 71
2,110359, Note_on_c, 0, 62, 0
2,110919, Note_on_c, 0, 38, 65
2,110927, Note_on_c, 0, 62, 70
2,110968, Note_on_c, 0, 45, 0
2,110988, Note_on_c, 0, 61, 0
2,114286, Note_on_c, 0, 62, 0
2,114291, Note_on_c, 0, 38, 0
2,114292, End_track
0, 0, End_of_file
