0, 0, Header, 1, 2, 384
1, 0, Start_track
1, 0, Tempo, 500000
1, 0, Time_signature, 4, 2, 24, 8
1, 1, End_track
2,0,Start_track
2,0, Note_on_c, 0, 50, 38
2,95, Note_on_c, 0, 52, 52
2,109, Note_on_c, 0, 50, 0
2,173, Note_on_c, 0, 54, 60
2,177, Note_on_c, 0, 52, 0
2,231, Note_on_c, 0, 54, 0
2,244, Note_on_c, 0, 55, 62
2,305, Note_on_c, 0, 55, 0
2,309, Note_on_c, 0, 54, 62
2,369, Note_on_c, 0, 54, 0
2,379, Note_on_c, 0, 52, 71
2,440, Note_on_c, 0, 54, 72
2,442, Note_on_c, 0, 52, 0
2,505, Note_on_c, 0, 54, 0
2,512, Note_on_c, 0, 50, 67
2,594, Note_on_c, 0, 50, 0
2,614, Note_on_c, 0, 59, 63
2,816, Control_c, 0, 64, 55
2,830, Control_c, 0, 64, 64
2,846, Control_c, 0, 64, 68
2,861, Control_c, 0, 64, 72
2,877, Control_c, 0, 64, 77
2,892, Control_c, 0, 64, 80
2,907, Control_c, 0, 64, 82
2,923, Control_c, 0, 64, 84
2,938, Control_c, 0, 64, 86
2,952, Control_c, 0, 64, 88
2,968, Control_c, 0, 64, 90
2,983, Control_c, 0, 64, 92
2,999, Control_c, 0, 64, 93
2,1013, Control_c, 0, 64, 93
2,1020, Note_on_c, 0, 59, 0
2,1028, Control_c, 0, 64, 94
2,1044, Control_c, 0, 64, 94
2,1424, Note_on_c, 0, 59, 58
2,1454, Control_c, 0, 64, 94
2,1460, Note_on_c, 0, 59, 0
2,1469, Control_c, 0, 64, 91
2,1472, Note_on_c, 0, 57, 58
2,1491, Control_c, 0, 64, 86
2,1506, Control_c, 0, 64, 79
2,1523, Control_c, 0, 64, 71
2,1538, Control_c, 0, 64, 57
2,1553, Control_c, 0, 64, 0
2,2280, Note_on_c, 0, 55, 51
2,2292, Note_on_c, 0, 57, 0
2,2355, Note_on_c, 0, 55, 0
2,2368, Note_on_c, 0, 54, 46
2,3071, Note_on_c, 0, 54, 0
2,3089, Note_on_c, 0, 55, 42
2,3208, Note_on_c, 0, 55, 0
2,3224, Note_on_c, 0, 54, 47
2,3237, Note_on_c, 0, 57, 51
2,3304, Note_on_c, 0, 59, 53
2,3313, Note_on_c, 0, 57, 0
2,3382, Note_on_c, 0, 61, 62
2,3392, Note_on_c, 0, 59, 0
2,3448, Note_on_c, 0, 61, 0
2,3453, Note_on_c, 0, 62, 67
2,3517, Note_on_c, 0, 61, 61
2,3549, Note_on_c, 0, 62, 0
2,3594, Note_on_c, 0, 59, 73
2,3598, Note_on_c, 0, 61, 0
2,3656, Note_on_c, 0, 61, 77
2,3663, Note_on_c, 0, 59, 0
2,3712, Note_on_c, 0, 52, 60
2,3724, Note_on_c, 0, 61, 0
2,3737, Note_on_c, 0, 57, 77
2,3754, Note_on_c, 0, 54, 0
2,3820, Note_on_c, 0, 52, 0
2,3839, Note_on_c, 0, 50, 55
2,3846, Note_on_c, 0, 66, 76
2,3879, Note_on_c, 0, 57, 0
2,4041, Control_c, 0, 64, 54
2,4055, Control_c, 0, 64, 65
2,4070, Control_c, 0, 64, 70
2,4086, Control_c, 0, 64, 76
2,4100, Control_c, 0, 64, 82
2,4115, Control_c, 0, 64, 86
2,4131, Control_c, 0, 64, 89
2,4146, Control_c, 0, 64, 91
2,4151, Note_on_c, 0, 66, 0
2,4162, Control_c, 0, 64, 93
2,4176, Control_c, 0, 64, 95
2,4191, Control_c, 0, 64, 97
2,4207, Control_c, 0, 64, 98
2,4222, Control_c, 0, 64, 99
2,4252, Control_c, 0, 64, 99
2,4590, Note_on_c, 0, 66, 56
2,4625, Control_c, 0, 64, 99
2,4655, Control_c, 0, 64, 97
2,4670, Control_c, 0, 64, 95
2,4674, Note_on_c, 0, 64, 66
2,4686, Control_c, 0, 64, 91
2,4699, Note_on_c, 0, 52, 45
2,4701, Control_c, 0, 64, 86
2,4704, Note_on_c, 0, 50, 0
2,4710, Note_on_c, 0, 66, 0
2,4715, Control_c, 0, 64, 80
2,4731, Control_c, 0, 64, 74
2,4746, Control_c, 0, 64, 67
2,4762, Control_c, 0, 64, 52
2,4777, Control_c, 0, 64, 0
2,5506, Note_on_c, 0, 62, 47
2,5564, Note_on_c, 0, 64, 0
2,5573, Note_on_c, 0, 61, 59
2,5600, Note_on_c, 0, 62, 0
2,5603, Note_on_c, 0, 45, 33
2,5605, Note_on_c, 0, 52, 0
2,5789, Control_c, 0, 64, 42
2,5805, Control_c, 0, 64, 63
2,5820, Control_c, 0, 64, 68
2,5835, Control_c, 0, 64, 74
2,5851, Control_c, 0, 64, 80
2,5865, Control_c, 0, 64, 84
2,5881, Control_c, 0, 64, 86
2,5896, Control_c, 0, 64, 88
2,5911, Control_c, 0, 64, 89
2,5912, Note_on_c, 0, 45, 0
2,5926, Control_c, 0, 64, 90
2,5941, Control_c, 0, 64, 91
2,5957, Control_c, 0, 64, 91
2,5987, Control_c, 0, 64, 92
2,6017, Control_c, 0, 64, 92
2,6300, Note_on_c, 0, 52, 59
2,6332, Note_on_c, 0, 54, 64
2,6364, Note_on_c, 0, 52, 0
2,6376, Control_c, 0, 64, 92
2,6388, Note_on_c, 0, 55, 75
2,6392, Control_c, 0, 64, 91
2,6406, Control_c, 0, 64, 89
2,6419, Note_on_c, 0, 54, 0
2,6421, Control_c, 0, 64, 86
2,6437, Note_on_c, 0, 66, 83
2,6438, Control_c, 0, 64, 80
2,6443, Note_on_c, 0, 57, 67
2,6453, Control_c, 0, 64, 73
2,6468, Control_c, 0, 64, 62
2,6471, Note_on_c, 0, 55, 0
2,6484, Control_c, 0, 64, 0
2,6486, Note_on_c, 0, 61, 0
2,6682, Control_c, 0, 64, 15
2,6697, Control_c, 0, 64, 56
2,6712, Control_c, 0, 64, 64
2,6727, Control_c, 0, 64, 69
2,6742, Control_c, 0, 64, 74
2,6758, Control_c, 0, 64, 79
2,6772, Control_c, 0, 64, 84
2,6787, Control_c, 0, 64, 87
2,6803, Control_c, 0, 64, 89
2,6818, Control_c, 0, 64, 91
2,6834, Control_c, 0, 64, 92
2,6841, Note_on_c, 0, 66, 0
2,6848, Control_c, 0, 64, 94
2,6872, Control_c, 0, 64, 95
2,6886, Control_c, 0, 64, 95
2,6901, Control_c, 0, 64, 96
2,6917, Control_c, 0, 64, 96
2,6947, Control_c, 0, 64, 97
2,7213, Note_on_c, 0, 66, 60
2,7265, Control_c, 0, 64, 96
2,7281, Control_c, 0, 64, 92
2,7296, Control_c, 0, 64, 86
2,7300, Note_on_c, 0, 59, 62
2,7312, Control_c, 0, 64, 76
2,7327, Control_c, 0, 64, 63
2,7342, Control_c, 0, 64, 0
2,7418, Note_on_c, 0, 66, 0
2,7493, Control_c, 0, 64, 54
2,7508, Control_c, 0, 64, 65
2,7524, Control_c, 0, 64, 71
2,7539, Control_c, 0, 64, 78
2,7554, Control_c, 0, 64, 84
2,7569, Control_c, 0, 64, 87
2,7584, Control_c, 0, 64, 89
2,7600, Control_c, 0, 64, 91
2,7614, Control_c, 0, 64, 92
2,7638, Control_c, 0, 64, 94
2,7653, Control_c, 0, 64, 96
2,7668, Control_c, 0, 64, 97
2,7684, Control_c, 0, 64, 98
2,7698, Control_c, 0, 64, 98
2,7738, Note_on_c, 0, 59, 0
2,7743, Control_c, 0, 64, 99
2,7960, Note_on_c, 0, 59, 52
2,7987, Control_c, 0, 64, 98
2,8000, Note_on_c, 0, 61, 61
2,8013, Note_on_c, 0, 59, 0
2,8033, Control_c, 0, 64, 97
2,8048, Control_c, 0, 64, 96
2,8063, Control_c, 0, 64, 94
2,8065, Note_on_c, 0, 62, 41
2,8079, Control_c, 0, 64, 90
2,8090, Note_on_c, 0, 57, 0
2,8094, Control_c, 0, 64, 84
2,8095, Note_on_c, 0, 60, 25
2,8097, Note_on_c, 0, 61, 0
2,8101, Note_on_c, 0, 62, 0
2,8107, Note_on_c, 0, 64, 59
2,8110, Control_c, 0, 64, 76
2,8110, Note_on_c, 0, 55, 46
2,8125, Control_c, 0, 64, 68
2,8131, Note_on_c, 0, 60, 0
2,8140, Control_c, 0, 64, 53
2,8156, Control_c, 0, 64, 0
2,8297, Note_on_c, 0, 62, 62
2,8299, Note_on_c, 0, 64, 0
2,8503, Note_on_c, 0, 64, 55
2,8526, Note_on_c, 0, 62, 0
2,8636, Note_on_c, 0, 64, 0
2,8644, Note_on_c, 0, 61, 52
2,8810, Note_on_c, 0, 61, 0
2,8846, Note_on_c, 0, 57, 47
2,9000, Control_c, 0, 64, 51
2,9014, Control_c, 0, 64, 62
2,9030, Control_c, 0, 64, 67
2,9045, Control_c, 0, 64, 70
2,9060, Control_c, 0, 64, 75
2,9076, Control_c, 0, 64, 78
2,9091, Control_c, 0, 64, 81
2,9106, Control_c, 0, 64, 82
2,9121, Control_c, 0, 64, 84
2,9136, Control_c, 0, 64, 84
2,9152, Control_c, 0, 64, 85
2,9174, Control_c, 0, 64, 86
2,9190, Control_c, 0, 64, 86
2,9265, Control_c, 0, 64, 87
2,9277, Note_on_c, 0, 57, 0
2,9403, Note_on_c, 0, 54, 55
2,9409, Note_on_c, 0, 55, 0
2,9445, Note_on_c, 0, 54, 0
2,9476, Note_on_c, 0, 52, 55
2,9523, Control_c, 0, 64, 86
2,9547, Note_on_c, 0, 52, 0
2,9553, Control_c, 0, 64, 85
2,9566, Note_on_c, 0, 62, 63
2,9568, Control_c, 0, 64, 80
2,9571, Note_on_c, 0, 54, 48
2,9583, Control_c, 0, 64, 71
2,9599, Control_c, 0, 64, 34
2,9614, Control_c, 0, 64, 0
2,9638, Note_on_c, 0, 64, 58
2,9642, Note_on_c, 0, 62, 0
2,9722, Note_on_c, 0, 66, 65
2,9739, Note_on_c, 0, 64, 0
2,9790, Note_on_c, 0, 66, 0
2,9791, Note_on_c, 0, 67, 70
2,9862, Note_on_c, 0, 66, 75
2,9900, Note_on_c, 0, 67, 0
2,9940, Note_on_c, 0, 64, 78
2,9951, Note_on_c, 0, 66, 0
2,10013, Note_on_c, 0, 66, 83
2,10026, Note_on_c, 0, 64, 0
2,10070, Note_on_c, 0, 50, 49
2,10074, Note_on_c, 0, 54, 0
2,10087, Note_on_c, 0, 62, 87
2,10101, Note_on_c, 0, 66, 0
2,10192, Note_on_c, 0, 55, 59
2,10198, Note_on_c, 0, 71, 77
2,10233, Note_on_c, 0, 50, 0
2,10382, Control_c, 0, 64, 39
2,10397, Control_c, 0, 64, 60
2,10412, Control_c, 0, 64, 65
2,10427, Control_c, 0, 64, 68
2,10443, Control_c, 0, 64, 73
2,10458, Control_c, 0, 64, 77
2,10473, Control_c, 0, 64, 81
2,10482, Note_on_c, 0, 71, 0
2,10487, Note_on_c, 0, 62, 0
2,10488, Control_c, 0, 64, 83
2,10503, Control_c, 0, 64, 85
2,10519, Control_c, 0, 64, 88
2,10535, Control_c, 0, 64, 89
2,10551, Control_c, 0, 64, 91
2,10566, Control_c, 0, 64, 92
2,10580, Control_c, 0, 64, 93
2,10596, Control_c, 0, 64, 93
2,10656, Control_c, 0, 64, 94
2,10935, Note_on_c, 0, 55, 0
2,10962, Note_on_c, 0, 71, 57
2,10968, Control_c, 0, 64, 93
2,10979, Note_on_c, 0, 52, 40
2,10999, Control_c, 0, 64, 92
2,11014, Control_c, 0, 64, 90
2,11029, Control_c, 0, 64, 86
2,11044, Control_c, 0, 64, 80
2,11048, Note_on_c, 0, 71, 0
2,11059, Control_c, 0, 64, 72
2,11075, Control_c, 0, 64, 61
2,11076, Note_on_c, 0, 52, 0
2,11076, Note_on_c, 0, 69, 52
2,11090, Control_c, 0, 64, 0
2,11091, Note_on_c, 0, 61, 44
2,11099, Note_on_c, 0, 57, 34
2,11806, Note_on_c, 0, 45, 27
2,11810, Note_on_c, 0, 61, 0
2,11826, Note_on_c, 0, 69, 0
2,11827, Note_on_c, 0, 67, 42
2,11894, Note_on_c, 0, 67, 0
2,11901, Note_on_c, 0, 45, 0
2,11906, Note_on_c, 0, 66, 48
2,11916, Note_on_c, 0, 57, 0
2,11918, Note_on_c, 0, 50, 36
2,11932, Note_on_c, 0, 62, 37
2,12132, Control_c, 0, 64, 48
2,12147, Control_c, 0, 64, 63
2,12163, Control_c, 0, 64, 68
2,12178, Control_c, 0, 64, 72
2,12194, Control_c, 0, 64, 77
2,12209, Control_c, 0, 64, 81
2,12224, Control_c, 0, 64, 84
2,12247, Control_c, 0, 64, 86
2,12262, Control_c, 0, 64, 88
2,12277, Control_c, 0, 64, 90
2,12283, Note_on_c, 0, 50, 0
2,12292, Control_c, 0, 64, 92
2,12307, Control_c, 0, 64, 94
2,12322, Control_c, 0, 64, 95
2,12337, Control_c, 0, 64, 96
2,12353, Control_c, 0, 64, 97
2,12368, Control_c, 0, 64, 97
2,12383, Control_c, 0, 64, 98
2,12414, Control_c, 0, 64, 98
2,12558, Note_on_c, 0, 62, 0
2,12570, Note_on_c, 0, 52, 45
2,12571, Note_on_c, 0, 68, 64
2,12589, Note_on_c, 0, 66, 0
2,12602, Note_on_c, 0, 52, 0
2,12605, Note_on_c, 0, 68, 0
2,12687, Control_c, 0, 64, 98
2,12702, Control_c, 0, 64, 96
2,12716, Note_on_c, 0, 61, 54
2,12718, Control_c, 0, 64, 94
2,12732, Control_c, 0, 64, 90
2,12733, Note_on_c, 0, 54, 47
2,12740, Note_on_c, 0, 69, 46
2,12747, Control_c, 0, 64, 85
2,12763, Control_c, 0, 64, 77
2,12778, Control_c, 0, 64, 70
2,12778, Note_on_c, 0, 67, 22
2,12794, Control_c, 0, 64, 61
2,12803, Note_on_c, 0, 69, 0
2,12803, Note_on_c, 0, 71, 62
2,12808, Control_c, 0, 64, 0
2,12817, Note_on_c, 0, 67, 0
2,12880, Note_on_c, 0, 73, 64
2,12893, Note_on_c, 0, 71, 0
2,12941, Note_on_c, 0, 73, 0
2,12944, Note_on_c, 0, 74, 70
2,13022, Note_on_c, 0, 73, 76
2,13054, Note_on_c, 0, 74, 0
2,13092, Note_on_c, 0, 71, 80
2,13099, Note_on_c, 0, 73, 0
2,13159, Note_on_c, 0, 73, 83
2,13170, Note_on_c, 0, 71, 0
2,13231, Note_on_c, 0, 73, 0
2,13241, Note_on_c, 0, 69, 83
2,13251, Note_on_c, 0, 61, 0
2,13256, Note_on_c, 0, 52, 55
2,13338, Note_on_c, 0, 59, 55
2,13343, Note_on_c, 0, 54, 0
2,13353, Note_on_c, 0, 78, 81
2,13384, Note_on_c, 0, 52, 0
2,13389, Note_on_c, 0, 50, 53
2,13592, Control_c, 0, 64, 34
2,13607, Control_c, 0, 64, 62
2,13622, Control_c, 0, 64, 67
2,13638, Control_c, 0, 64, 73
2,13650, Note_on_c, 0, 69, 0
2,13652, Control_c, 0, 64, 80
2,13667, Control_c, 0, 64, 84
2,13675, Note_on_c, 0, 78, 0
2,13683, Control_c, 0, 64, 87
2,13698, Control_c, 0, 64, 88
2,13714, Control_c, 0, 64, 89
2,13729, Control_c, 0, 64, 89
2,13744, Control_c, 0, 64, 90
2,13781, Control_c, 0, 64, 90
2,13828, Control_c, 0, 64, 91
2,14019, Note_on_c, 0, 50, 0
2,14069, Note_on_c, 0, 78, 69
2,14079, Note_on_c, 0, 47, 39
2,14117, Control_c, 0, 64, 90
2,14132, Control_c, 0, 64, 86
2,14137, Note_on_c, 0, 47, 0
2,14146, Control_c, 0, 64, 81
2,14159, Note_on_c, 0, 52, 57
2,14162, Control_c, 0, 64, 71
2,14163, Note_on_c, 0, 68, 75
2,14166, Note_on_c, 0, 76, 74
2,14177, Control_c, 0, 64, 53
2,14193, Control_c, 0, 64, 0
2,14219, Note_on_c, 0, 78, 0
2,14343, Control_c, 0, 64, 56
2,14359, Control_c, 0, 64, 66
2,14374, Control_c, 0, 64, 73
2,14389, Control_c, 0, 64, 81
2,14405, Control_c, 0, 64, 87
2,14410, Note_on_c, 0, 59, 0
2,14419, Control_c, 0, 64, 91
2,14435, Control_c, 0, 64, 94
2,14450, Control_c, 0, 64, 96
2,14465, Control_c, 0, 64, 99
2,14473, Note_on_c, 0, 52, 0
2,14481, Control_c, 0, 64, 102
2,14496, Control_c, 0, 64, 105
2,14512, Control_c, 0, 64, 107
2,14527, Control_c, 0, 64, 109
2,14564, Control_c, 0, 64, 109
2,14899, Note_on_c, 0, 74, 52
2,14905, Note_on_c, 0, 76, 0
2,14917, Note_on_c, 0, 68, 0
2,14961, Control_c, 0, 64, 109
2,14975, Control_c, 0, 64, 107
2,14991, Control_c, 0, 64, 102
2,15006, Control_c, 0, 64, 93
2,15007, Note_on_c, 0, 73, 61
2,15009, Note_on_c, 0, 69, 60
2,15021, Control_c, 0, 64, 78
2,15029, Note_on_c, 0, 57, 39
2,15035, Note_on_c, 0, 45, 40
2,15037, Control_c, 0, 64, 61
2,15049, Note_on_c, 0, 74, 0
2,15052, Control_c, 0, 64, 0
2,15142, Control_c, 0, 64, 51
2,15158, Control_c, 0, 64, 63
2,15173, Control_c, 0, 64, 69
2,15187, Control_c, 0, 64, 77
2,15192, Note_on_c, 0, 69, 0
2,15203, Control_c, 0, 64, 87
2,15218, Control_c, 0, 64, 95
2,15229, Note_on_c, 0, 73, 0
2,15234, Control_c, 0, 64, 99
2,15249, Control_c, 0, 64, 102
2,15258, Note_on_c, 0, 45, 0
2,15263, Control_c, 0, 64, 104
2,15279, Control_c, 0, 64, 105
2,15291, Note_on_c, 0, 57, 0
2,15294, Control_c, 0, 64, 106
2,15317, Control_c, 0, 64, 107
2,15652, Note_on_c, 0, 76, 57
2,15702, Note_on_c, 0, 78, 63
2,15746, Note_on_c, 0, 79, 69
2,15759, Control_c, 0, 64, 106
2,15761, Note_on_c, 0, 76, 0
2,15774, Control_c, 0, 64, 106
2,15789, Control_c, 0, 64, 105
2,15805, Control_c, 0, 64, 103
2,15820, Control_c, 0, 64, 100
2,15836, Control_c, 0, 64, 96
2,15839, Note_on_c, 0, 81, 74
2,15850, Control_c, 0, 64, 89
2,15856, Note_on_c, 0, 66, 53
2,15856, Note_on_c, 0, 73, 66
2,15865, Control_c, 0, 64, 78
2,15881, Control_c, 0, 64, 64
2,15896, Control_c, 0, 64, 0
2,15935, Note_on_c, 0, 67, 62
2,15948, Note_on_c, 0, 79, 0
2,15949, Note_on_c, 0, 66, 0
2,15949, Note_on_c, 0, 78, 0
2,16013, Note_on_c, 0, 69, 76
2,16027, Note_on_c, 0, 67, 0
2,16074, Note_on_c, 0, 71, 67
2,16077, Note_on_c, 0, 69, 0
2,16132, Note_on_c, 0, 81, 0
2,16158, Note_on_c, 0, 69, 76
2,16171, Note_on_c, 0, 71, 0
2,16189, Note_on_c, 0, 73, 0
2,16222, Note_on_c, 0, 69, 0
2,16224, Note_on_c, 0, 67, 72
2,16303, Note_on_c, 0, 67, 0
2,16311, Note_on_c, 0, 69, 77
2,16382, Note_on_c, 0, 81, 79
2,16392, Note_on_c, 0, 69, 0
2,16412, Note_on_c, 0, 66, 63
2,16432, Note_on_c, 0, 81, 0
2,16527, Note_on_c, 0, 66, 0
2,16528, Note_on_c, 0, 81, 80
2,16536, Note_on_c, 0, 74, 68
2,16547, Note_on_c, 0, 71, 56
2,16649, Control_c, 0, 64, 38
2,16664, Control_c, 0, 64, 59
2,16679, Control_c, 0, 64, 64
2,16694, Control_c, 0, 64, 67
2,16709, Control_c, 0, 64, 72
2,16725, Control_c, 0, 64, 77
2,16740, Control_c, 0, 64, 80
2,16756, Control_c, 0, 64, 82
2,16771, Control_c, 0, 64, 84
2,16786, Control_c, 0, 64, 86
2,16801, Control_c, 0, 64, 86
2,16832, Control_c, 0, 64, 87
2,16836, Note_on_c, 0, 71, 0
2,16884, Control_c, 0, 64, 87
2,16898, Note_on_c, 0, 81, 0
2,16951, Note_on_c, 0, 74, 0
2,17100, Note_on_c, 0, 74, 46
2,17158, Note_on_c, 0, 74, 0
2,17161, Note_on_c, 0, 76, 49
2,17184, Note_on_c, 0, 78, 64
2,17199, Note_on_c, 0, 76, 0
2,17250, Control_c, 0, 64, 87
2,17265, Control_c, 0, 64, 86
2,17271, Note_on_c, 0, 74, 60
2,17281, Control_c, 0, 64, 85
2,17283, Note_on_c, 0, 79, 65
2,17296, Control_c, 0, 64, 84
2,17296, Note_on_c, 0, 64, 39
2,17311, Control_c, 0, 64, 81
2,17313, Note_on_c, 0, 78, 0
2,17326, Control_c, 0, 64, 77
2,17341, Control_c, 0, 64, 72
2,17357, Control_c, 0, 64, 63
2,17371, Control_c, 0, 64, 0
2,17382, Note_on_c, 0, 64, 0
2,17382, Note_on_c, 0, 66, 55
2,17452, Note_on_c, 0, 67, 62
2,17457, Note_on_c, 0, 66, 0
2,17514, Note_on_c, 0, 67, 0
2,17527, Note_on_c, 0, 69, 67
2,17554, Control_c, 0, 64, 24
2,17566, Note_on_c, 0, 79, 0
2,17569, Control_c, 0, 64, 60
2,17584, Control_c, 0, 64, 64
2,17600, Control_c, 0, 64, 66
2,17601, Note_on_c, 0, 69, 0
2,17608, Note_on_c, 0, 67, 68
2,17622, Control_c, 0, 64, 69
2,17638, Control_c, 0, 64, 71
2,17652, Control_c, 0, 64, 74
2,17667, Control_c, 0, 64, 77
2,17674, Note_on_c, 0, 67, 0
2,17676, Note_on_c, 0, 66, 73
2,17683, Control_c, 0, 64, 78
2,17698, Control_c, 0, 64, 79
2,17741, Note_on_c, 0, 66, 0
2,17746, Note_on_c, 0, 67, 73
2,17759, Control_c, 0, 64, 80
2,17781, Note_on_c, 0, 74, 0
2,17813, Note_on_c, 0, 79, 76
2,17816, Note_on_c, 0, 67, 0
2,17843, Note_on_c, 0, 64, 61
2,17868, Note_on_c, 0, 79, 0
2,17926, Control_c, 0, 64, 79
2,17941, Control_c, 0, 64, 77
2,17957, Control_c, 0, 64, 72
2,17968, Note_on_c, 0, 64, 0
2,17969, Note_on_c, 0, 69, 62
2,17972, Control_c, 0, 64, 64
2,17972, Note_on_c, 0, 79, 70
2,17976, Note_on_c, 0, 73, 65
2,17987, Control_c, 0, 64, 0
2,18108, Control_c, 0, 64, 17
2,18124, Control_c, 0, 64, 62
2,18139, Control_c, 0, 64, 69
2,18154, Control_c, 0, 64, 78
2,18159, Note_on_c, 0, 79, 0
2,18169, Control_c, 0, 64, 87
2,18184, Control_c, 0, 64, 93
2,18200, Control_c, 0, 64, 95
2,18203, Note_on_c, 0, 69, 0
2,18214, Control_c, 0, 64, 97
2,18229, Control_c, 0, 64, 98
2,18245, Control_c, 0, 64, 100
2,18260, Control_c, 0, 64, 101
2,18275, Note_on_c, 0, 73, 0
2,18276, Control_c, 0, 64, 103
2,18290, Control_c, 0, 64, 104
2,18305, Control_c, 0, 64, 104
2,18321, Control_c, 0, 64, 105
2,18540, Note_on_c, 0, 76, 61
2,18592, Note_on_c, 0, 74, 64
2,18631, Note_on_c, 0, 76, 0
2,18633, Control_c, 0, 64, 104
2,18645, Note_on_c, 0, 73, 69
2,18663, Control_c, 0, 64, 104
2,18671, Note_on_c, 0, 74, 0
2,18694, Control_c, 0, 64, 103
2,18709, Control_c, 0, 64, 102
2,18715, Note_on_c, 0, 38, 52
2,18725, Control_c, 0, 64, 100
2,18732, Note_on_c, 0, 78, 83
2,18733, Note_on_c, 0, 74, 58
2,18736, Note_on_c, 0, 69, 73
2,18740, Control_c, 0, 64, 96
2,18756, Control_c, 0, 64, 88
2,18765, Note_on_c, 0, 73, 0
2,18771, Control_c, 0, 64, 79
2,18786, Control_c, 0, 64, 66
2,18797, Note_on_c, 0, 40, 61
2,18801, Control_c, 0, 64, 0
2,18804, Note_on_c, 0, 38, 0
2,18872, Note_on_c, 0, 42, 66
2,18878, Note_on_c, 0, 40, 0
2,18937, Note_on_c, 0, 78, 0
2,18951, Note_on_c, 0, 42, 0
2,18956, Note_on_c, 0, 43, 70
2,18971, Note_on_c, 0, 74, 0
2,18999, Control_c, 0, 64, 15
2,19014, Control_c, 0, 64, 58
2,19021, Note_on_c, 0, 42, 66
2,19024, Note_on_c, 0, 69, 0
2,19029, Control_c, 0, 64, 64
2,19033, Note_on_c, 0, 43, 0
2,19045, Control_c, 0, 64, 67
2,19059, Control_c, 0, 64, 70
2,19075, Control_c, 0, 64, 74
2,19090, Control_c, 0, 64, 77
2,19095, Note_on_c, 0, 40, 72
2,19096, Note_on_c, 0, 42, 0
2,19105, Control_c, 0, 64, 80
2,19121, Control_c, 0, 64, 82
2,19135, Control_c, 0, 64, 83
2,19159, Control_c, 0, 64, 84
2,19174, Control_c, 0, 64, 84
2,19174, Note_on_c, 0, 40, 0
2,19176, Note_on_c, 0, 42, 72
2,19188, Control_c, 0, 64, 85
2,19204, Control_c, 0, 64, 86
2,19219, Control_c, 0, 64, 86
2,19235, Control_c, 0, 64, 87
2,19250, Control_c, 0, 64, 88
2,19254, Note_on_c, 0, 42, 0
2,19259, Note_on_c, 0, 38, 66
2,19263, Note_on_c, 0, 67, 79
2,19264, Note_on_c, 0, 76, 74
2,19272, Note_on_c, 0, 73, 72
2,19312, Note_on_c, 0, 67, 0
2,19324, Note_on_c, 0, 76, 0
2,19326, Control_c, 0, 64, 86
2,19340, Control_c, 0, 64, 80
2,19349, Note_on_c, 0, 73, 0
2,19356, Control_c, 0, 64, 72
2,19363, Note_on_c, 0, 38, 0
2,19371, Control_c, 0, 64, 57
2,19385, Control_c, 0, 64, 0
2,19388, Note_on_c, 0, 47, 63
2,19394, Note_on_c, 0, 74, 74
2,19403, Note_on_c, 0, 66, 84
2,19599, Control_c, 0, 64, 56
2,19614, Control_c, 0, 64, 65
2,19629, Control_c, 0, 64, 73
2,19645, Control_c, 0, 64, 81
2,19660, Control_c, 0, 64, 88
2,19676, Control_c, 0, 64, 92
2,19690, Control_c, 0, 64, 95
2,19705, Control_c, 0, 64, 96
2,19721, Control_c, 0, 64, 97
2,19736, Control_c, 0, 64, 98
2,19748, Note_on_c, 0, 47, 0
2,19752, Control_c, 0, 64, 98
2,19766, Control_c, 0, 64, 99
2,19769, Note_on_c, 0, 66, 0
2,19783, Note_on_c, 0, 74, 0
2,19797, Control_c, 0, 64, 99
2,20032, Note_on_c, 0, 76, 74
2,20034, Note_on_c, 0, 67, 76
2,20046, Note_on_c, 0, 47, 66
2,20069, Note_on_c, 0, 67, 0
2,20082, Note_on_c, 0, 47, 0
2,20095, Note_on_c, 0, 76, 0
2,20169, Control_c, 0, 64, 98
2,20182, Control_c, 0, 64, 95
2,20184, Note_on_c, 0, 45, 63
2,20184, Note_on_c, 0, 64, 76
2,20184, Note_on_c, 0, 73, 75
2,20186, Note_on_c, 0, 69, 75
2,20198, Control_c, 0, 64, 89
2,20213, Control_c, 0, 64, 78
2,20228, Control_c, 0, 64, 63
2,20244, Control_c, 0, 64, 0
2,20412, Control_c, 0, 64, 58
2,20427, Control_c, 0, 64, 65
2,20443, Control_c, 0, 64, 69
2,20457, Control_c, 0, 64, 74
2,20473, Control_c, 0, 64, 80
2,20488, Control_c, 0, 64, 83
2,20503, Control_c, 0, 64, 84
2,20519, Control_c, 0, 64, 86
2,20533, Control_c, 0, 64, 87
2,20548, Control_c, 0, 64, 88
2,20564, Control_c, 0, 64, 89
2,20577, Note_on_c, 0, 73, 0
2,20579, Control_c, 0, 64, 90
2,20587, Note_on_c, 0, 69, 0
2,20595, Control_c, 0, 64, 90
2,20640, Control_c, 0, 64, 91
2,20640, Note_on_c, 0, 45, 0
2,20809, Note_on_c, 0, 64, 0
2,20867, Note_on_c, 0, 73, 61
2,20885, Note_on_c, 0, 43, 52
2,20926, Note_on_c, 0, 73, 0
2,20996, Control_c, 0, 64, 90
2,21011, Control_c, 0, 64, 89
2,21026, Control_c, 0, 64, 85
2,21039, Note_on_c, 0, 69, 59
2,21042, Control_c, 0, 64, 76
2,21044, Note_on_c, 0, 62, 56
2,21047, Note_on_c, 0, 43, 0
2,21048, Note_on_c, 0, 73, 60
2,21057, Control_c, 0, 64, 64
2,21059, Note_on_c, 0, 42, 47
2,21073, Control_c, 0, 64, 0
2,21195, Control_c, 0, 64, 47
2,21210, Control_c, 0, 64, 63
2,21225, Control_c, 0, 64, 68
2,21241, Control_c, 0, 64, 74
2,21256, Control_c, 0, 64, 80
2,21272, Control_c, 0, 64, 85
2,21276, Note_on_c, 0, 62, 0
2,21286, Control_c, 0, 64, 89
2,21294, Note_on_c, 0, 42, 0
2,21301, Control_c, 0, 64, 91
2,21317, Control_c, 0, 64, 92
2,21330, Note_on_c, 0, 69, 0
2,21332, Control_c, 0, 64, 93
2,21333, Note_on_c, 0, 73, 0
2,21347, Control_c, 0, 64, 93
2,21377, Control_c, 0, 64, 94
2,21393, Control_c, 0, 64, 95
2,21408, Control_c, 0, 64, 95
2,21476, Control_c, 0, 64, 96
2,21693, Note_on_c, 0, 50, 51
2,21720, Control_c, 0, 64, 96
2,21751, Control_c, 0, 64, 97
2,21766, Control_c, 0, 64, 97
2,21778, Note_on_c, 0, 52, 53
2,21781, Control_c, 0, 64, 98
2,21784, Note_on_c, 0, 54, 70
2,21787, Note_on_c, 0, 50, 0
2,21796, Control_c, 0, 64, 98
2,21809, Note_on_c, 0, 52, 0
2,21811, Control_c, 0, 64, 99
2,21826, Control_c, 0, 64, 100
2,21834, Note_on_c, 0, 54, 0
2,21856, Control_c, 0, 64, 100
2,21887, Control_c, 0, 64, 100
2,21902, Control_c, 0, 64, 99
2,21906, Note_on_c, 0, 71, 74
2,21917, Control_c, 0, 64, 96
2,21922, Note_on_c, 0, 55, 45
2,21926, Note_on_c, 0, 62, 45
2,21932, Control_c, 0, 64, 89
2,21947, Control_c, 0, 64, 79
2,21963, Control_c, 0, 64, 66
2,21978, Control_c, 0, 64, 0
2,21988, Note_on_c, 0, 73, 75
2,22015, Note_on_c, 0, 71, 0
2,22075, Note_on_c, 0, 74, 73
2,22081, Note_on_c, 0, 73, 0
2,22139, Note_on_c, 0, 76, 73
2,22142, Note_on_c, 0, 74, 0
2,22192, Control_c, 0, 64, 39
2,22207, Control_c, 0, 64, 62
2,22217, Note_on_c, 0, 74, 71
2,22229, Control_c, 0, 64, 68
2,22245, Control_c, 0, 64, 74
2,22260, Control_c, 0, 64, 80
2,22264, Note_on_c, 0, 76, 0
2,22276, Control_c, 0, 64, 83
2,22290, Control_c, 0, 64, 84
2,22298, Note_on_c, 0, 74, 0
2,22301, Note_on_c, 0, 73, 84
2,22305, Control_c, 0, 64, 85
2,22321, Control_c, 0, 64, 85
2,22336, Control_c, 0, 64, 86
2,22346, Note_on_c, 0, 62, 0
2,22352, Control_c, 0, 64, 86
2,22357, Note_on_c, 0, 54, 54
2,22366, Control_c, 0, 64, 87
2,22372, Note_on_c, 0, 74, 85
2,22378, Note_on_c, 0, 55, 0
2,22385, Note_on_c, 0, 73, 0
2,22391, Note_on_c, 0, 54, 0
2,22397, Control_c, 0, 64, 87
2,22431, Note_on_c, 0, 74, 0
2,22437, Note_on_c, 0, 71, 85
2,22564, Control_c, 0, 64, 86
2,22565, Note_on_c, 0, 79, 82
2,22567, Note_on_c, 0, 61, 52
2,22579, Control_c, 0, 64, 83
2,22585, Note_on_c, 0, 52, 55
2,22595, Control_c, 0, 64, 75
2,22610, Control_c, 0, 64, 63
2,22625, Control_c, 0, 64, 0
2,22761, Control_c, 0, 64, 34
2,22776, Control_c, 0, 64, 61
2,22792, Control_c, 0, 64, 66
2,22807, Control_c, 0, 64, 71
2,22823, Control_c, 0, 64, 77
2,22839, Control_c, 0, 64, 82
2,22840, Note_on_c, 0, 79, 0
2,22854, Control_c, 0, 64, 84
2,22866, Note_on_c, 0, 71, 0
2,22868, Control_c, 0, 64, 86
2,22884, Control_c, 0, 64, 87
2,22899, Control_c, 0, 64, 88
2,22914, Control_c, 0, 64, 89
2,22929, Control_c, 0, 64, 90
2,22944, Control_c, 0, 64, 90
2,22960, Control_c, 0, 64, 91
2,22975, Control_c, 0, 64, 91
2,23243, Note_on_c, 0, 52, 0
2,23291, Note_on_c, 0, 49, 45
2,23292, Note_on_c, 0, 79, 51
2,23347, Control_c, 0, 64, 90
2,23363, Control_c, 0, 64, 88
2,23377, Control_c, 0, 64, 86
2,23393, Control_c, 0, 64, 83
2,23399, Note_on_c, 0, 54, 44
2,23400, Note_on_c, 0, 79, 0
2,23408, Control_c, 0, 64, 77
2,23415, Note_on_c, 0, 78, 63
2,23423, Control_c, 0, 64, 68
2,23427, Note_on_c, 0, 49, 0
2,23432, Note_on_c, 0, 70, 45
2,23439, Control_c, 0, 64, 31
2,23453, Control_c, 0, 64, 0
2,23620, Control_c, 0, 64, 42
2,23637, Control_c, 0, 64, 62
2,23647, Note_on_c, 0, 61, 0
2,23652, Control_c, 0, 64, 68
2,23667, Control_c, 0, 64, 73
2,23683, Control_c, 0, 64, 78
2,23698, Control_c, 0, 64, 82
2,23713, Control_c, 0, 64, 84
2,23728, Control_c, 0, 64, 85
2,23737, Note_on_c, 0, 54, 0
2,23743, Control_c, 0, 64, 86
2,23781, Control_c, 0, 64, 86
2,23797, Control_c, 0, 64, 87
2,23827, Control_c, 0, 64, 87
2,24140, Note_on_c, 0, 76, 43
2,24165, Note_on_c, 0, 70, 0
2,24266, Note_on_c, 0, 47, 39
2,24267, Control_c, 0, 64, 86
2,24278, Note_on_c, 0, 59, 38
2,24278, Note_on_c, 0, 78, 0
2,24283, Control_c, 0, 64, 85
2,24283, Note_on_c, 0, 74, 48
2,24289, Note_on_c, 0, 76, 0
2,24297, Control_c, 0, 64, 82
2,24298, Note_on_c, 0, 71, 48
2,24313, Control_c, 0, 64, 76
2,24328, Control_c, 0, 64, 67
2,24343, Control_c, 0, 64, 0
2,24372, Note_on_c, 0, 49, 43
2,24375, Note_on_c, 0, 47, 0
2,24437, Note_on_c, 0, 49, 0
2,24445, Note_on_c, 0, 50, 49
2,24453, Note_on_c, 0, 71, 0
2,24507, Control_c, 0, 64, 50
2,24509, Note_on_c, 0, 50, 0
2,24513, Note_on_c, 0, 74, 0
2,24529, Control_c, 0, 64, 62
2,24537, Note_on_c, 0, 52, 60
2,24544, Control_c, 0, 64, 66
2,24559, Control_c, 0, 64, 69
2,24575, Control_c, 0, 64, 72
2,24590, Control_c, 0, 64, 75
2,24606, Control_c, 0, 64, 77
2,24621, Control_c, 0, 64, 79
2,24621, Note_on_c, 0, 50, 56
2,24636, Control_c, 0, 64, 80
2,24655, Note_on_c, 0, 52, 0
2,24664, Note_on_c, 0, 50, 0
2,24666, Control_c, 0, 64, 80
2,24674, Note_on_c, 0, 49, 62
2,24706, Note_on_c, 0, 59, 0
2,24738, Note_on_c, 0, 49, 0
2,24751, Note_on_c, 0, 50, 65
2,24823, Note_on_c, 0, 50, 0
2,24837, Note_on_c, 0, 47, 56
2,24984, Control_c, 0, 64, 80
2,24999, Control_c, 0, 64, 79
2,25015, Control_c, 0, 64, 77
2,25018, Note_on_c, 0, 47, 0
2,25018, Note_on_c, 0, 56, 51
2,25030, Control_c, 0, 64, 73
2,25046, Control_c, 0, 64, 67
2,25046, Note_on_c, 0, 83, 50
2,25060, Control_c, 0, 64, 56
2,25075, Control_c, 0, 64, 0
2,25251, Note_on_c, 0, 81, 68
2,25274, Control_c, 0, 64, 53
2,25297, Control_c, 0, 64, 64
2,25298, Note_on_c, 0, 83, 0
2,25312, Control_c, 0, 64, 69
2,25327, Control_c, 0, 64, 76
2,25339, Note_on_c, 0, 56, 0
2,25342, Control_c, 0, 64, 80
2,25357, Control_c, 0, 64, 82
2,25373, Control_c, 0, 64, 84
2,25388, Control_c, 0, 64, 85
2,25403, Control_c, 0, 64, 86
2,25419, Control_c, 0, 64, 88
2,25434, Control_c, 0, 64, 89
2,25443, Note_on_c, 0, 83, 69
2,25449, Control_c, 0, 64, 90
2,25455, Note_on_c, 0, 81, 0
2,25464, Control_c, 0, 64, 90
2,25479, Control_c, 0, 64, 91
2,25495, Control_c, 0, 64, 91
2,25572, Control_c, 0, 64, 92
2,25628, Note_on_c, 0, 83, 0
2,25630, Note_on_c, 0, 80, 71
2,25685, Note_on_c, 0, 80, 0
2,25798, Control_c, 0, 64, 91
2,25829, Control_c, 0, 64, 90
2,25845, Control_c, 0, 64, 87
2,25847, Note_on_c, 0, 74, 47
2,25859, Control_c, 0, 64, 81
2,25861, Note_on_c, 0, 71, 33
2,25862, Note_on_c, 0, 80, 56
2,25874, Control_c, 0, 64, 72
2,25890, Control_c, 0, 64, 58
2,25905, Control_c, 0, 64, 0
2,25996, Control_c, 0, 64, 13
2,26012, Control_c, 0, 64, 44
2,26027, Control_c, 0, 64, 59
2,26042, Control_c, 0, 64, 65
2,26045, Note_on_c, 0, 78, 63
2,26064, Control_c, 0, 64, 68
2,26074, Note_on_c, 0, 80, 0
2,26079, Control_c, 0, 64, 73
2,26096, Control_c, 0, 64, 77
2,26111, Control_c, 0, 64, 80
2,26127, Control_c, 0, 64, 81
2,26141, Control_c, 0, 64, 82
2,26156, Control_c, 0, 64, 82
2,26172, Control_c, 0, 64, 83
2,26180, Note_on_c, 0, 71, 0
2,26202, Control_c, 0, 64, 84
2,26211, Note_on_c, 0, 74, 0
2,26217, Control_c, 0, 64, 85
2,26232, Control_c, 0, 64, 85
2,26232, Note_on_c, 0, 80, 60
2,26248, Control_c, 0, 64, 86
2,26323, Control_c, 0, 64, 86
2,26395, Note_on_c, 0, 68, 54
2,26396, Note_on_c, 0, 78, 0
2,26397, Note_on_c, 0, 80, 0
2,26406, Note_on_c, 0, 76, 61
2,26429, Note_on_c, 0, 68, 0
2,26431, Note_on_c, 0, 76, 0
2,26567, Control_c, 0, 64, 86
2,26597, Control_c, 0, 64, 83
2,26605, Note_on_c, 0, 68, 37
2,26608, Note_on_c, 0, 71, 45
2,26608, Note_on_c, 0, 76, 59
2,26613, Control_c, 0, 64, 79
2,26627, Control_c, 0, 64, 72
2,26642, Control_c, 0, 64, 60
2,26658, Control_c, 0, 64, 0
2,26763, Control_c, 0, 64, 18
2,26779, Control_c, 0, 64, 55
2,26779, Note_on_c, 0, 74, 63
2,26794, Control_c, 0, 64, 63
2,26795, Note_on_c, 0, 76, 0
2,26810, Control_c, 0, 64, 66
2,26832, Control_c, 0, 64, 69
2,26848, Control_c, 0, 64, 73
2,26863, Control_c, 0, 64, 77
2,26878, Control_c, 0, 64, 79
2,26894, Control_c, 0, 64, 81
2,26910, Control_c, 0, 64, 81
2,26926, Control_c, 0, 64, 82
2,26940, Control_c, 0, 64, 83
2,26951, Note_on_c, 0, 74, 0
2,26966, Note_on_c, 0, 76, 73
2,26972, Note_on_c, 0, 68, 0
2,26973, Note_on_c, 0, 71, 0
2,26985, Control_c, 0, 64, 83
2,27016, Control_c, 0, 64, 84
2,27076, Control_c, 0, 64, 84
2,27122, Control_c, 0, 64, 85
2,27130, Note_on_c, 0, 69, 65
2,27131, Note_on_c, 0, 73, 74
2,27146, Note_on_c, 0, 64, 51
2,27154, Note_on_c, 0, 69, 0
2,27168, Control_c, 0, 64, 85
2,27168, Note_on_c, 0, 76, 0
2,27171, Note_on_c, 0, 64, 0
2,27212, Note_on_c, 0, 73, 0
2,27335, Control_c, 0, 64, 85
2,27346, Note_on_c, 0, 73, 68
2,27350, Control_c, 0, 64, 84
2,27353, Note_on_c, 0, 69, 66
2,27361, Note_on_c, 0, 64, 61
2,27366, Control_c, 0, 64, 82
2,27366, Note_on_c, 0, 45, 41
2,27381, Control_c, 0, 64, 78
2,27395, Control_c, 0, 64, 73
2,27411, Control_c, 0, 64, 67
2,27426, Control_c, 0, 64, 48
2,27441, Control_c, 0, 64, 0
2,27451, Note_on_c, 0, 47, 60
2,27473, Note_on_c, 0, 45, 0
2,27536, Note_on_c, 0, 49, 67
2,27545, Note_on_c, 0, 47, 0
2,27618, Note_on_c, 0, 49, 0
2,27623, Note_on_c, 0, 50, 67
2,27633, Note_on_c, 0, 64, 0
2,27674, Note_on_c, 0, 69, 0
2,27692, Control_c, 0, 64, 36
2,27700, Note_on_c, 0, 49, 73
2,27703, Note_on_c, 0, 73, 0
2,27707, Control_c, 0, 64, 61
2,27710, Note_on_c, 0, 50, 0
2,27722, Control_c, 0, 64, 66
2,27739, Control_c, 0, 64, 71
2,27754, Control_c, 0, 64, 75
2,27768, Note_on_c, 0, 47, 74
2,27770, Control_c, 0, 64, 78
2,27772, Note_on_c, 0, 49, 0
2,27784, Control_c, 0, 64, 79
2,27799, Control_c, 0, 64, 80
2,27829, Control_c, 0, 64, 80
2,27850, Note_on_c, 0, 49, 72
2,27860, Control_c, 0, 64, 81
2,27875, Control_c, 0, 64, 81
2,27886, Note_on_c, 0, 47, 0
2,27898, Note_on_c, 0, 49, 0
2,27904, Note_on_c, 0, 45, 66
2,27905, Control_c, 0, 64, 82
2,28041, Control_c, 0, 64, 80
2,28052, Note_on_c, 0, 45, 0
2,28057, Control_c, 0, 64, 77
2,28066, Note_on_c, 0, 81, 77
2,28072, Control_c, 0, 64, 70
2,28081, Note_on_c, 0, 54, 61
2,28088, Control_c, 0, 64, 47
2,28103, Control_c, 0, 64, 0
2,28271, Note_on_c, 0, 79, 78
2,28315, Control_c, 0, 64, 37
2,28328, Note_on_c, 0, 81, 0
2,28331, Control_c, 0, 64, 59
2,28346, Control_c, 0, 64, 64
2,28369, Control_c, 0, 64, 67
2,28373, Note_on_c, 0, 54, 0
2,28384, Control_c, 0, 64, 71
2,28399, Control_c, 0, 64, 75
2,28417, Control_c, 0, 64, 78
2,28432, Control_c, 0, 64, 79
2,28447, Control_c, 0, 64, 80
2,28460, Note_on_c, 0, 81, 82
2,28462, Control_c, 0, 64, 80
2,28478, Control_c, 0, 64, 81
2,28493, Control_c, 0, 64, 81
2,28504, Note_on_c, 0, 79, 0
2,28508, Control_c, 0, 64, 82
2,28631, Note_on_c, 0, 78, 82
2,28644, Note_on_c, 0, 81, 0
2,28695, Note_on_c, 0, 78, 0
2,28812, Control_c, 0, 64, 81
2,28827, Control_c, 0, 64, 80
2,28843, Control_c, 0, 64, 76
2,28844, Note_on_c, 0, 78, 67
2,28845, Note_on_c, 0, 72, 47
2,28848, Note_on_c, 0, 69, 43
2,28858, Control_c, 0, 64, 70
2,28873, Control_c, 0, 64, 57
2,28888, Control_c, 0, 64, 0
2,28897, Note_on_c, 0, 72, 0
2,28897, Note_on_c, 0, 72, 12
2,29010, Control_c, 0, 64, 47
2,29025, Control_c, 0, 64, 62
2,29041, Control_c, 0, 64, 66
2,29041, Note_on_c, 0, 76, 58
2,29052, Note_on_c, 0, 78, 0
2,29056, Control_c, 0, 64, 69
2,29071, Control_c, 0, 64, 73
2,29086, Control_c, 0, 64, 76
2,29101, Control_c, 0, 64, 79
2,29116, Control_c, 0, 64, 81
2,29139, Control_c, 0, 64, 82
2,29154, Control_c, 0, 64, 83
2,29169, Control_c, 0, 64, 83
2,29184, Control_c, 0, 64, 84
2,29200, Control_c, 0, 64, 85
2,29209, Note_on_c, 0, 69, 0
2,29209, Note_on_c, 0, 78, 60
2,29215, Control_c, 0, 64, 85
2,29224, Note_on_c, 0, 72, 0
2,29230, Control_c, 0, 64, 86
2,29248, Note_on_c, 0, 76, 0
2,29261, Control_c, 0, 64, 86
2,29337, Control_c, 0, 64, 87
2,29376, Note_on_c, 0, 78, 0
2,29383, Note_on_c, 0, 69, 48
2,29383, Note_on_c, 0, 74, 65
2,29393, Note_on_c, 0, 66, 48
2,29411, Note_on_c, 0, 69, 0
2,29413, Note_on_c, 0, 74, 0
2,29421, Note_on_c, 0, 66, 0
2,29520, Control_c, 0, 64, 86
2,29535, Control_c, 0, 64, 86
2,29550, Control_c, 0, 64, 83
2,29566, Control_c, 0, 64, 78
2,29574, Note_on_c, 0, 69, 54
2,29574, Note_on_c, 0, 74, 59
2,29581, Control_c, 0, 64, 71
2,29586, Note_on_c, 0, 66, 39
2,29595, Control_c, 0, 64, 58
2,29611, Control_c, 0, 64, 0
2,29732, Control_c, 0, 64, 46
2,29747, Control_c, 0, 64, 60
2,29759, Note_on_c, 0, 72, 65
2,29763, Control_c, 0, 64, 65
2,29769, Note_on_c, 0, 74, 0
2,29778, Control_c, 0, 64, 68
2,29793, Control_c, 0, 64, 72
2,29808, Control_c, 0, 64, 77
2,29823, Control_c, 0, 64, 81
2,29839, Control_c, 0, 64, 83
2,29854, Control_c, 0, 64, 85
2,29869, Control_c, 0, 64, 87
2,29885, Control_c, 0, 64, 88
2,29907, Control_c, 0, 64, 89
2,29923, Control_c, 0, 64, 90
2,29935, Note_on_c, 0, 74, 69
2,29937, Control_c, 0, 64, 90
2,29969, Note_on_c, 0, 72, 0
2,30002, Note_on_c, 0, 69, 0
2,30017, Note_on_c, 0, 66, 0
2,30095, Note_on_c, 0, 71, 80
2,30098, Note_on_c, 0, 67, 67
2,30102, Note_on_c, 0, 62, 65
2,30104, Note_on_c, 0, 74, 0
2,30126, Note_on_c, 0, 67, 0
2,30132, Note_on_c, 0, 62, 0
2,30151, Note_on_c, 0, 71, 0
2,30299, Note_on_c, 0, 43, 64
2,30300, Note_on_c, 0, 67, 66
2,30301, Note_on_c, 0, 71, 65
2,30311, Note_on_c, 0, 62, 65
2,30319, Control_c, 0, 64, 90
2,30334, Control_c, 0, 64, 88
2,30349, Control_c, 0, 64, 85
2,30364, Control_c, 0, 64, 80
2,30379, Control_c, 0, 64, 73
2,30394, Control_c, 0, 64, 65
2,30402, Note_on_c, 0, 45, 62
2,30410, Control_c, 0, 64, 0
2,30417, Note_on_c, 0, 43, 0
2,30473, Note_on_c, 0, 47, 75
2,30486, Note_on_c, 0, 45, 0
2,30499, Note_on_c, 0, 62, 0
2,30544, Note_on_c, 0, 67, 0
2,30545, Note_on_c, 0, 47, 0
2,30555, Note_on_c, 0, 48, 72
2,30617, Note_on_c, 0, 47, 72
2,30622, Note_on_c, 0, 48, 0
2,30700, Note_on_c, 0, 47, 0
2,30701, Note_on_c, 0, 45, 77
2,30781, Note_on_c, 0, 47, 78
2,30783, Note_on_c, 0, 45, 0
2,30854, Note_on_c, 0, 47, 0
2,30856, Note_on_c, 0, 43, 69
2,30955, Note_on_c, 0, 43, 0
2,30961, Note_on_c, 0, 71, 0
2,30967, Note_on_c, 0, 67, 72
2,30979, Note_on_c, 0, 52, 63
2,31054, Note_on_c, 0, 69, 78
2,31058, Note_on_c, 0, 67, 0
2,31138, Note_on_c, 0, 71, 79
2,31147, Note_on_c, 0, 69, 0
2,31200, Note_on_c, 0, 71, 0
2,31209, Note_on_c, 0, 72, 77
2,31276, Note_on_c, 0, 71, 80
2,31313, Note_on_c, 0, 72, 0
2,31349, Note_on_c, 0, 69, 86
2,31350, Note_on_c, 0, 71, 0
2,31422, Note_on_c, 0, 71, 87
2,31428, Note_on_c, 0, 69, 0
2,31497, Note_on_c, 0, 67, 84
2,31498, Note_on_c, 0, 71, 0
2,31512, Note_on_c, 0, 50, 70
2,31514, Note_on_c, 0, 52, 0
2,31614, Note_on_c, 0, 76, 82
2,31618, Note_on_c, 0, 48, 65
2,31618, Note_on_c, 0, 50, 0
2,31627, Note_on_c, 0, 67, 0
2,31946, Control_c, 0, 64, 46
2,31962, Control_c, 0, 64, 63
2,31976, Control_c, 0, 64, 67
2,31991, Control_c, 0, 64, 74
2,32007, Control_c, 0, 64, 79
2,32022, Control_c, 0, 64, 83
2,32038, Control_c, 0, 64, 86
2,32051, Note_on_c, 0, 76, 0
2,32052, Control_c, 0, 64, 88
2,32067, Control_c, 0, 64, 90
2,32083, Control_c, 0, 64, 92
2,32098, Control_c, 0, 64, 94
2,32113, Control_c, 0, 64, 95
2,32129, Control_c, 0, 64, 95
2,32144, Control_c, 0, 64, 96
2,32174, Control_c, 0, 64, 96
2,32377, Note_on_c, 0, 76, 68
2,32410, Control_c, 0, 64, 95
2,32425, Control_c, 0, 64, 93
2,32434, Note_on_c, 0, 48, 0
2,32438, Note_on_c, 0, 74, 80
2,32440, Control_c, 0, 64, 88
2,32450, Note_on_c, 0, 50, 43
2,32455, Control_c, 0, 64, 80
2,32468, Control_c, 0, 64, 71
2,32484, Control_c, 0, 64, 37
2,32497, Note_on_c, 0, 76, 0
2,32499, Control_c, 0, 64, 0
2,32636, Control_c, 0, 64, 29
2,32652, Control_c, 0, 64, 60
2,32667, Control_c, 0, 64, 66
2,32683, Control_c, 0, 64, 72
2,32697, Control_c, 0, 64, 77
2,32712, Control_c, 0, 64, 81
2,32728, Control_c, 0, 64, 84
2,32743, Control_c, 0, 64, 86
2,32759, Control_c, 0, 64, 88
2,32767, Note_on_c, 0, 50, 0
2,32774, Control_c, 0, 64, 89
2,32789, Control_c, 0, 64, 90
2,32805, Control_c, 0, 64, 90
2,32819, Control_c, 0, 64, 91
2,32834, Control_c, 0, 64, 91
2,32880, Control_c, 0, 64, 92
2,33189, Note_on_c, 0, 72, 52
2,33194, Note_on_c, 0, 74, 0
2,33222, Control_c, 0, 64, 91
2,33229, Note_on_c, 0, 72, 0
2,33236, Control_c, 0, 64, 91
2,33252, Control_c, 0, 64, 89
2,33257, Note_on_c, 0, 71, 57
2,33261, Note_on_c, 0, 55, 41
2,33267, Control_c, 0, 64, 84
2,33282, Control_c, 0, 64, 79
2,33297, Control_c, 0, 64, 72
2,33312, Control_c, 0, 64, 64
2,33328, Control_c, 0, 64, 0
2,33838, Control_c, 0, 64, 29
2,33853, Control_c, 0, 64, 52
2,33857, Note_on_c, 0, 57, 46
2,33868, Control_c, 0, 64, 62
2,33878, Note_on_c, 0, 71, 0
2,33884, Control_c, 0, 64, 66
2,33886, Note_on_c, 0, 55, 0
2,33887, Note_on_c, 0, 73, 57
2,33899, Control_c, 0, 64, 69
2,33914, Control_c, 0, 64, 73
2,33929, Control_c, 0, 64, 77
2,33944, Control_c, 0, 64, 79
2,33960, Control_c, 0, 64, 81
2,33971, Note_on_c, 0, 57, 0
2,33993, Note_on_c, 0, 74, 59
2,34009, Note_on_c, 0, 59, 47
2,34010, Note_on_c, 0, 62, 48
2,34033, Note_on_c, 0, 73, 0
2,34035, Note_on_c, 0, 74, 0
2,34066, Control_c, 0, 64, 80
2,34068, Note_on_c, 0, 64, 70
2,34081, Control_c, 0, 64, 78
2,34096, Control_c, 0, 64, 75
2,34111, Control_c, 0, 64, 70
2,34123, Note_on_c, 0, 62, 0
2,34127, Control_c, 0, 64, 62
2,34142, Control_c, 0, 64, 0
2,34144, Note_on_c, 0, 64, 0
2,34155, Note_on_c, 0, 66, 67
2,34214, Note_on_c, 0, 66, 0
2,34217, Note_on_c, 0, 67, 72
2,34299, Note_on_c, 0, 66, 78
2,34333, Note_on_c, 0, 67, 0
2,34365, Note_on_c, 0, 64, 80
2,34370, Note_on_c, 0, 66, 0
2,34442, Note_on_c, 0, 66, 85
2,34446, Note_on_c, 0, 64, 0
2,34476, Note_on_c, 0, 57, 52
2,34485, Note_on_c, 0, 59, 0
2,34516, Note_on_c, 0, 66, 0
2,34519, Note_on_c, 0, 62, 88
2,34576, Note_on_c, 0, 57, 0
2,34612, Note_on_c, 0, 55, 54
2,34627, Note_on_c, 0, 71, 73
2,34636, Note_on_c, 0, 62, 0
2,34865, Control_c, 0, 64, 18
2,34881, Control_c, 0, 64, 59
2,34895, Control_c, 0, 64, 66
2,34910, Control_c, 0, 64, 71
2,34926, Control_c, 0, 64, 76
2,34941, Control_c, 0, 64, 81
2,34956, Control_c, 0, 64, 84
2,34971, Control_c, 0, 64, 85
2,34986, Control_c, 0, 64, 86
2,35017, Control_c, 0, 64, 86
2,35032, Control_c, 0, 64, 87
2,35047, Control_c, 0, 64, 88
2,35062, Control_c, 0, 64, 88
2,35086, Note_on_c, 0, 71, 0
2,35125, Control_c, 0, 64, 89
2,35170, Control_c, 0, 64, 89
2,35230, Control_c, 0, 64, 90
2,35299, Control_c, 0, 64, 90
2,35309, Note_on_c, 0, 55, 0
2,35331, Note_on_c, 0, 71, 70
2,35336, Note_on_c, 0, 52, 49
2,35420, Control_c, 0, 64, 90
2,35434, Note_on_c, 0, 52, 0
2,35435, Control_c, 0, 64, 88
2,35438, Note_on_c, 0, 71, 0
2,35451, Control_c, 0, 64, 83
2,35454, Note_on_c, 0, 73, 79
2,35458, Note_on_c, 0, 69, 73
2,35459, Note_on_c, 0, 57, 56
2,35466, Control_c, 0, 64, 77
2,35482, Control_c, 0, 64, 67
2,35496, Control_c, 0, 64, 32
2,35511, Control_c, 0, 64, 0
2,35663, Control_c, 0, 64, 47
2,35679, Control_c, 0, 64, 63
2,35693, Control_c, 0, 64, 67
2,35708, Control_c, 0, 64, 72
2,35724, Control_c, 0, 64, 79
2,35739, Control_c, 0, 64, 83
2,35754, Control_c, 0, 64, 86
2,35770, Control_c, 0, 64, 88
2,35775, Note_on_c, 0, 57, 0
2,35785, Control_c, 0, 64, 89
2,35787, Note_on_c, 0, 73, 0
2,35801, Control_c, 0, 64, 90
2,35815, Control_c, 0, 64, 91
2,35830, Control_c, 0, 64, 91
2,35846, Control_c, 0, 64, 92
2,35861, Control_c, 0, 64, 93
2,35895, Note_on_c, 0, 69, 0
2,35999, Control_c, 0, 64, 93
2,36083, Note_on_c, 0, 45, 44
2,36090, Note_on_c, 0, 67, 60
2,36121, Note_on_c, 0, 67, 0
2,36141, Note_on_c, 0, 45, 0
2,36219, Control_c, 0, 64, 93
2,36234, Control_c, 0, 64, 92
2,36250, Control_c, 0, 64, 91
2,36263, Note_on_c, 0, 74, 65
2,36264, Control_c, 0, 64, 88
2,36271, Note_on_c, 0, 47, 52
2,36273, Note_on_c, 0, 66, 64
2,36280, Control_c, 0, 64, 85
2,36295, Control_c, 0, 64, 79
2,36310, Control_c, 0, 64, 70
2,36326, Control_c, 0, 64, 58
2,36340, Control_c, 0, 64, 0
2,36366, Note_on_c, 0, 49, 58
2,36371, Note_on_c, 0, 47, 0
2,36436, Note_on_c, 0, 66, 0
2,36444, Note_on_c, 0, 50, 66
2,36445, Note_on_c, 0, 49, 0
2,36501, Note_on_c, 0, 50, 0
2,36513, Note_on_c, 0, 52, 74
2,36583, Note_on_c, 0, 50, 72
2,36583, Note_on_c, 0, 52, 0
2,36651, Note_on_c, 0, 49, 79
2,36652, Note_on_c, 0, 50, 0
2,36659, Control_c, 0, 64, 32
2,36674, Control_c, 0, 64, 60
2,36690, Control_c, 0, 64, 67
2,36705, Control_c, 0, 64, 75
2,36714, Note_on_c, 0, 49, 0
2,36720, Control_c, 0, 64, 83
2,36720, Note_on_c, 0, 50, 76
2,36736, Control_c, 0, 64, 87
2,36751, Control_c, 0, 64, 90
2,36767, Control_c, 0, 64, 91
2,36782, Control_c, 0, 64, 91
2,36786, Note_on_c, 0, 47, 72
2,36792, Note_on_c, 0, 69, 90
2,36800, Note_on_c, 0, 74, 0
2,36819, Control_c, 0, 64, 92
2,36820, Note_on_c, 0, 50, 0
2,36827, Note_on_c, 0, 69, 0
2,36833, Note_on_c, 0, 47, 0
2,36925, Note_on_c, 0, 74, 78
2,36926, Control_c, 0, 64, 91
2,36936, Note_on_c, 0, 59, 68
2,36941, Control_c, 0, 64, 90
2,36956, Control_c, 0, 64, 85
2,36972, Control_c, 0, 64, 75
2,36986, Control_c, 0, 64, 54
2,37002, Control_c, 0, 64, 0
2,37011, Note_on_c, 0, 76, 79
2,37020, Note_on_c, 0, 74, 0
2,37091, Note_on_c, 0, 78, 81
2,37145, Note_on_c, 0, 76, 0
2,37151, Note_on_c, 0, 79, 78
2,37164, Note_on_c, 0, 78, 0
2,37228, Note_on_c, 0, 78, 85
2,37274, Note_on_c, 0, 79, 0
2,37287, Note_on_c, 0, 76, 84
2,37309, Note_on_c, 0, 78, 0
2,37369, Note_on_c, 0, 78, 89
2,37390, Note_on_c, 0, 57, 66
2,37390, Note_on_c, 0, 76, 0
2,37399, Note_on_c, 0, 59, 0
2,37436, Note_on_c, 0, 74, 87
2,37453, Note_on_c, 0, 78, 0
2,37521, Note_on_c, 0, 55, 65
2,37524, Note_on_c, 0, 57, 0
2,37537, Note_on_c, 0, 83, 82
2,37739, Control_c, 0, 64, 53
2,37754, Control_c, 0, 64, 65
2,37770, Control_c, 0, 64, 70
2,37784, Control_c, 0, 64, 79
2,37800, Control_c, 0, 64, 85
2,37815, Control_c, 0, 64, 89
2,37830, Control_c, 0, 64, 92
2,37846, Control_c, 0, 64, 94
2,37856, Note_on_c, 0, 83, 0
2,37861, Control_c, 0, 64, 95
2,37876, Control_c, 0, 64, 97
2,37892, Control_c, 0, 64, 98
2,37892, Note_on_c, 0, 74, 0
2,37907, Control_c, 0, 64, 99
2,37923, Control_c, 0, 64, 100
2,37937, Control_c, 0, 64, 101
2,37968, Control_c, 0, 64, 101
2,38270, Control_c, 0, 64, 101
2,38273, Note_on_c, 0, 52, 48
2,38276, Note_on_c, 0, 55, 0
2,38276, Note_on_c, 0, 83, 59
2,38301, Control_c, 0, 64, 100
2,38316, Control_c, 0, 64, 99
2,38332, Control_c, 0, 64, 97
2,38354, Control_c, 0, 64, 93
2,38370, Control_c, 0, 64, 87
2,38386, Control_c, 0, 64, 80
2,38388, Note_on_c, 0, 52, 0
2,38389, Note_on_c, 0, 83, 0
2,38390, Note_on_c, 0, 72, 52
2,38393, Note_on_c, 0, 57, 49
2,38396, Note_on_c, 0, 81, 63
2,38402, Control_c, 0, 64, 72
2,38417, Control_c, 0, 64, 62
2,38431, Control_c, 0, 64, 0
2,38721, Control_c, 0, 64, 34
2,38736, Control_c, 0, 64, 50
2,38751, Control_c, 0, 64, 53
2,38767, Control_c, 0, 64, 54
2,38796, Control_c, 0, 64, 55
2,38889, Control_c, 0, 64, 54
2,38903, Control_c, 0, 64, 53
2,38919, Control_c, 0, 64, 52
2,38934, Control_c, 0, 64, 52
2,38949, Control_c, 0, 64, 51
2,38964, Control_c, 0, 64, 50
2,38979, Control_c, 0, 64, 48
2,38994, Control_c, 0, 64, 46
2,39010, Control_c, 0, 64, 43
2,39025, Control_c, 0, 64, 40
2,39040, Control_c, 0, 64, 37
2,39055, Control_c, 0, 64, 32
2,39070, Control_c, 0, 64, 23
2,39086, Control_c, 0, 64, 0
2,39106, Note_on_c, 0, 79, 46
2,39111, Note_on_c, 0, 45, 35
2,39218, Note_on_c, 0, 45, 0
2,39218, Note_on_c, 0, 78, 59
2,39221, Note_on_c, 0, 57, 0
2,39227, Note_on_c, 0, 81, 0
2,39236, Note_on_c, 0, 50, 31
2,39243, Note_on_c, 0, 79, 0
2,39352, Control_c, 0, 64, 36
2,39368, Control_c, 0, 64, 61
2,39382, Control_c, 0, 64, 65
2,39391, Note_on_c, 0, 78, 0
2,39397, Control_c, 0, 64, 68
2,39413, Control_c, 0, 64, 72
2,39427, Control_c, 0, 64, 77
2,39443, Control_c, 0, 64, 81
2,39458, Control_c, 0, 64, 84
2,39473, Control_c, 0, 64, 86
2,39488, Control_c, 0, 64, 89
2,39503, Control_c, 0, 64, 90
2,39519, Control_c, 0, 64, 91
2,39544, Note_on_c, 0, 50, 0
2,39549, Control_c, 0, 64, 91
2,39564, Control_c, 0, 64, 92
2,39594, Control_c, 0, 64, 92
2,39732, Note_on_c, 0, 72, 0
2,39796, Note_on_c, 0, 74, 30
2,39837, Note_on_c, 0, 76, 53
2,39848, Note_on_c, 0, 74, 0
2,39898, Note_on_c, 0, 78, 60
2,39961, Note_on_c, 0, 71, 36
2,39967, Note_on_c, 0, 76, 0
2,39981, Note_on_c, 0, 55, 43
2,39982, Control_c, 0, 64, 92
2,39997, Control_c, 0, 64, 91
2,40013, Control_c, 0, 64, 89
2,40022, Note_on_c, 0, 79, 57
2,40028, Control_c, 0, 64, 87
2,40039, Note_on_c, 0, 52, 9
2,40044, Control_c, 0, 64, 83
2,40056, Note_on_c, 0, 57, 53
2,40059, Control_c, 0, 64, 77
2,40074, Control_c, 0, 64, 71
2,40090, Control_c, 0, 64, 62
2,40099, Note_on_c, 0, 78, 0
2,40105, Control_c, 0, 64, 0
2,40111, Note_on_c, 0, 55, 0
2,40151, Note_on_c, 0, 57, 0
2,40154, Note_on_c, 0, 59, 55
2,40199, Note_on_c, 0, 59, 0
2,40213, Note_on_c, 0, 60, 61
2,40256, Note_on_c, 0, 79, 0
2,40277, Note_on_c, 0, 60, 0
2,40283, Note_on_c, 0, 59, 59
2,40314, Note_on_c, 0, 52, 0
2,40345, Control_c, 0, 64, 45
2,40349, Note_on_c, 0, 59, 0
2,40359, Note_on_c, 0, 57, 67
2,40360, Control_c, 0, 64, 64
2,40376, Control_c, 0, 64, 69
2,40391, Control_c, 0, 64, 75
2,40406, Control_c, 0, 64, 81
2,40421, Control_c, 0, 64, 86
2,40424, Note_on_c, 0, 59, 65
2,40429, Note_on_c, 0, 57, 0
2,40436, Control_c, 0, 64, 89
2,40452, Control_c, 0, 64, 92
2,40467, Control_c, 0, 64, 94
2,40482, Control_c, 0, 64, 95
2,40489, Note_on_c, 0, 55, 70
2,40497, Control_c, 0, 64, 96
2,40497, Note_on_c, 0, 79, 78
2,40512, Control_c, 0, 64, 97
2,40518, Note_on_c, 0, 59, 0
2,40518, Note_on_c, 0, 71, 0
2,40528, Control_c, 0, 64, 97
2,40530, Note_on_c, 0, 55, 0
2,40545, Note_on_c, 0, 79, 0
2,40603, Control_c, 0, 64, 97
2,40619, Control_c, 0, 64, 94
2,40634, Control_c, 0, 64, 89
2,40634, Note_on_c, 0, 79, 79
2,40648, Note_on_c, 0, 69, 71
2,40656, Control_c, 0, 64, 81
2,40664, Note_on_c, 0, 64, 46
2,40671, Control_c, 0, 64, 70
2,40680, Note_on_c, 0, 60, 50
2,40687, Control_c, 0, 64, 47
2,40702, Control_c, 0, 64, 0
2,40855, Control_c, 0, 64, 56
2,40870, Control_c, 0, 64, 65
2,40886, Control_c, 0, 64, 69
2,40901, Control_c, 0, 64, 75
2,40913, Note_on_c, 0, 64, 0
2,40916, Control_c, 0, 64, 82
2,40932, Control_c, 0, 64, 86
2,40947, Control_c, 0, 64, 89
2,40959, Note_on_c, 0, 60, 0
2,40961, Control_c, 0, 64, 91
2,40977, Control_c, 0, 64, 93
2,40992, Control_c, 0, 64, 95
2,41008, Control_c, 0, 64, 98
2,41023, Control_c, 0, 64, 100
2,41037, Control_c, 0, 64, 101
2,41098, Control_c, 0, 64, 101
2,41362, Note_on_c, 0, 81, 67
2,41366, Note_on_c, 0, 57, 50
2,41366, Note_on_c, 0, 64, 44
2,41390, Note_on_c, 0, 64, 0
2,41393, Note_on_c, 0, 57, 0
2,41402, Control_c, 0, 64, 101
2,41424, Control_c, 0, 64, 99
2,41439, Control_c, 0, 64, 95
2,41455, Control_c, 0, 64, 86
2,41465, Note_on_c, 0, 78, 84
2,41467, Note_on_c, 0, 62, 68
2,41470, Control_c, 0, 64, 74
2,41486, Control_c, 0, 64, 55
2,41496, Note_on_c, 0, 81, 0
2,41500, Control_c, 0, 64, 0
2,41512, Note_on_c, 0, 79, 0
2,41608, Control_c, 0, 64, 41
2,41622, Control_c, 0, 64, 62
2,41637, Control_c, 0, 64, 68
2,41654, Control_c, 0, 64, 74
2,41669, Control_c, 0, 64, 82
2,41683, Control_c, 0, 64, 88
2,41699, Control_c, 0, 64, 91
2,41714, Control_c, 0, 64, 93
2,41726, Note_on_c, 0, 62, 0
2,41730, Control_c, 0, 64, 95
2,41730, Note_on_c, 0, 78, 0
2,41745, Control_c, 0, 64, 96
2,41760, Control_c, 0, 64, 98
2,41775, Control_c, 0, 64, 99
2,41790, Control_c, 0, 64, 100
2,41806, Control_c, 0, 64, 101
2,42143, Note_on_c, 0, 50, 48
2,42145, Note_on_c, 0, 78, 62
2,42149, Note_on_c, 0, 60, 46
2,42162, Note_on_c, 0, 69, 0
2,42174, Note_on_c, 0, 60, 0
2,42192, Note_on_c, 0, 50, 0
2,42198, Note_on_c, 0, 78, 0
2,42238, Control_c, 0, 64, 100
2,42254, Control_c, 0, 64, 100
2,42268, Control_c, 0, 64, 99
2,42283, Control_c, 0, 64, 98
2,42299, Control_c, 0, 64, 93
2,42314, Control_c, 0, 64, 86
2,42329, Note_on_c, 0, 78, 59
2,42330, Control_c, 0, 64, 74
2,42340, Note_on_c, 0, 59, 36
2,42344, Control_c, 0, 64, 56
2,42345, Note_on_c, 0, 55, 40
2,42345, Note_on_c, 0, 67, 60
2,42359, Control_c, 0, 64, 0
2,42452, Control_c, 0, 64, 29
2,42467, Control_c, 0, 64, 58
2,42483, Control_c, 0, 64, 65
2,42498, Control_c, 0, 64, 71
2,42506, Note_on_c, 0, 78, 0
2,42513, Control_c, 0, 64, 77
2,42529, Control_c, 0, 64, 82
2,42544, Control_c, 0, 64, 86
2,42559, Control_c, 0, 64, 88
2,42562, Note_on_c, 0, 59, 0
2,42574, Control_c, 0, 64, 89
2,42589, Control_c, 0, 64, 90
2,42595, Note_on_c, 0, 55, 0
2,42604, Control_c, 0, 64, 91
2,42928, Note_on_c, 0, 76, 58
2,43008, Note_on_c, 0, 75, 71
2,43030, Note_on_c, 0, 76, 0
2,43041, Note_on_c, 0, 67, 0
2,43105, Note_on_c, 0, 75, 0
2,43123, Note_on_c, 0, 40, 49
2,43144, Control_c, 0, 64, 90
2,43148, Note_on_c, 0, 76, 72
2,43153, Note_on_c, 0, 67, 56
2,43156, Note_on_c, 0, 71, 66
2,43175, Control_c, 0, 64, 89
2,43189, Control_c, 0, 64, 87
2,43204, Control_c, 0, 64, 84
2,43213, Note_on_c, 0, 42, 55
2,43220, Control_c, 0, 64, 80
2,43235, Control_c, 0, 64, 75
2,43238, Note_on_c, 0, 40, 0
2,43250, Control_c, 0, 64, 69
2,43265, Control_c, 0, 64, 57
2,43280, Control_c, 0, 64, 0
2,43294, Note_on_c, 0, 43, 64
2,43300, Note_on_c, 0, 42, 0
2,43362, Note_on_c, 0, 43, 0
2,43368, Note_on_c, 0, 45, 67
2,43441, Note_on_c, 0, 43, 67
2,43441, Note_on_c, 0, 45, 0
2,43477, Note_on_c, 0, 71, 0
2,43512, Note_on_c, 0, 42, 73
2,43513, Note_on_c, 0, 43, 0
2,43518, Note_on_c, 0, 67, 0
2,43583, Note_on_c, 0, 43, 70
2,43589, Note_on_c, 0, 42, 0
2,43658, Note_on_c, 0, 43, 0
2,43663, Note_on_c, 0, 40, 66
2,43784, Note_on_c, 0, 40, 0
2,43800, Note_on_c, 0, 69, 69
2,43803, Note_on_c, 0, 48, 62
2,43807, Note_on_c, 0, 66, 80
2,43957, Control_c, 0, 64, 56
2,43973, Control_c, 0, 64, 65
2,43987, Control_c, 0, 64, 70
2,44002, Control_c, 0, 64, 77
2,44018, Control_c, 0, 64, 84
2,44032, Control_c, 0, 64, 89
2,44048, Control_c, 0, 64, 92
2,44063, Control_c, 0, 64, 95
2,44078, Control_c, 0, 64, 97
2,44093, Control_c, 0, 64, 99
2,44110, Control_c, 0, 64, 100
2,44126, Control_c, 0, 64, 101
2,44152, Note_on_c, 0, 48, 0
2,44155, Control_c, 0, 64, 101
2,44569, Note_on_c, 0, 48, 41
2,44572, Note_on_c, 0, 76, 0
2,44573, Control_c, 0, 64, 101
2,44576, Note_on_c, 0, 69, 0
2,44579, Note_on_c, 0, 75, 60
2,44588, Control_c, 0, 64, 100
2,44603, Control_c, 0, 64, 99
2,44614, Note_on_c, 0, 48, 0
2,44619, Control_c, 0, 64, 96
2,44628, Note_on_c, 0, 47, 53
2,44634, Control_c, 0, 64, 92
2,44650, Control_c, 0, 64, 84
2,44656, Note_on_c, 0, 75, 0
2,44664, Control_c, 0, 64, 76
2,44670, Note_on_c, 0, 76, 65
2,44679, Control_c, 0, 64, 66
2,44695, Control_c, 0, 64, 23
2,44710, Control_c, 0, 64, 0
2,45358, Note_on_c, 0, 78, 37
2,45380, Note_on_c, 0, 45, 41
2,45404, Note_on_c, 0, 47, 0
2,45434, Note_on_c, 0, 45, 0
2,45455, Note_on_c, 0, 71, 54
2,45476, Note_on_c, 0, 43, 40
2,45486, Note_on_c, 0, 76, 0
2,45490, Note_on_c, 0, 78, 0
2,45652, Note_on_c, 0, 71, 0
2,45675, Control_c, 0, 64, 54
2,45691, Control_c, 0, 64, 64
2,45705, Control_c, 0, 64, 69
2,45720, Control_c, 0, 64, 75
2,45736, Control_c, 0, 64, 82
2,45752, Control_c, 0, 64, 86
2,45768, Control_c, 0, 64, 88
2,45783, Control_c, 0, 64, 90
2,45797, Control_c, 0, 64, 91
2,45813, Control_c, 0, 64, 91
2,45828, Control_c, 0, 64, 92
2,45889, Control_c, 0, 64, 92
2,46040, Note_on_c, 0, 72, 53
2,46054, Note_on_c, 0, 42, 45
2,46073, Note_on_c, 0, 43, 0
2,46124, Note_on_c, 0, 66, 0
2,46124, Note_on_c, 0, 72, 0
2,46127, Note_on_c, 0, 69, 58
2,46179, Note_on_c, 0, 42, 0
2,46215, Control_c, 0, 64, 92
2,46230, Control_c, 0, 64, 91
2,46241, Note_on_c, 0, 43, 26
2,46246, Control_c, 0, 64, 87
2,46261, Control_c, 0, 64, 81
2,46270, Note_on_c, 0, 69, 0
2,46275, Note_on_c, 0, 71, 57
2,46276, Control_c, 0, 64, 72
2,46276, Note_on_c, 0, 67, 50
2,46281, Note_on_c, 0, 64, 44
2,46291, Control_c, 0, 64, 56
2,46306, Control_c, 0, 64, 0
2,46397, Control_c, 0, 64, 25
2,46412, Control_c, 0, 64, 56
2,46427, Control_c, 0, 64, 64
2,46442, Control_c, 0, 64, 69
2,46458, Control_c, 0, 64, 75
2,46473, Control_c, 0, 64, 81
2,46488, Control_c, 0, 64, 86
2,46503, Control_c, 0, 64, 89
2,46518, Control_c, 0, 64, 91
2,46529, Note_on_c, 0, 43, 0
2,46534, Control_c, 0, 64, 93
2,46548, Control_c, 0, 64, 94
2,46564, Control_c, 0, 64, 94
2,46580, Control_c, 0, 64, 95
2,46595, Control_c, 0, 64, 96
2,46611, Control_c, 0, 64, 97
2,46626, Control_c, 0, 64, 98
2,46656, Control_c, 0, 64, 98
2,46687, Control_c, 0, 64, 99
2,46702, Control_c, 0, 64, 99
2,46732, Control_c, 0, 64, 100
2,46762, Control_c, 0, 64, 100
2,46800, Control_c, 0, 64, 101
2,46847, Control_c, 0, 64, 101
2,46892, Control_c, 0, 64, 102
2,46935, Note_on_c, 0, 54, 47
2,46937, Control_c, 0, 64, 102
2,46941, Note_on_c, 0, 45, 41
2,46943, Note_on_c, 0, 67, 0
2,46957, Note_on_c, 0, 72, 51
2,46963, Note_on_c, 0, 64, 0
2,46967, Note_on_c, 0, 54, 0
2,46973, Note_on_c, 0, 45, 0
2,47013, Control_c, 0, 64, 103
2,47150, Control_c, 0, 64, 102
2,47151, Note_on_c, 0, 71, 0
2,47166, Control_c, 0, 64, 100
2,47168, Note_on_c, 0, 67, 48
2,47171, Note_on_c, 0, 72, 0
2,47178, Note_on_c, 0, 64, 36
2,47180, Control_c, 0, 64, 95
2,47182, Note_on_c, 0, 47, 38
2,47195, Control_c, 0, 64, 86
2,47211, Control_c, 0, 64, 75
2,47213, Note_on_c, 0, 55, 39
2,47226, Control_c, 0, 64, 63
2,47241, Control_c, 0, 64, 0
2,47277, Note_on_c, 0, 55, 0
2,47277, Note_on_c, 0, 55, 3
2,47332, Control_c, 0, 64, 29
2,47347, Control_c, 0, 64, 52
2,47362, Control_c, 0, 64, 60
2,47378, Control_c, 0, 64, 64
2,47394, Control_c, 0, 64, 68
2,47409, Control_c, 0, 64, 74
2,47424, Control_c, 0, 64, 80
2,47439, Control_c, 0, 64, 84
2,47455, Control_c, 0, 64, 87
2,47470, Control_c, 0, 64, 88
2,47484, Control_c, 0, 64, 90
2,47490, Note_on_c, 0, 55, 0
2,47500, Control_c, 0, 64, 91
2,47515, Control_c, 0, 64, 92
2,47518, Note_on_c, 0, 64, 0
2,47531, Control_c, 0, 64, 92
2,47546, Control_c, 0, 64, 93
2,47584, Control_c, 0, 64, 93
2,47599, Control_c, 0, 64, 94
2,47660, Control_c, 0, 64, 94
2,47792, Note_on_c, 0, 67, 0
2,47823, Note_on_c, 0, 57, 34
2,47870, Note_on_c, 0, 57, 0
2,48039, Control_c, 0, 64, 94
2,48055, Control_c, 0, 64, 93
2,48070, Control_c, 0, 64, 93
2,48086, Control_c, 0, 64, 90
2,48095, Note_on_c, 0, 67, 52
2,48098, Note_on_c, 0, 59, 44
2,48100, Control_c, 0, 64, 88
2,48115, Control_c, 0, 64, 85
2,48116, Note_on_c, 0, 63, 16
2,48131, Control_c, 0, 64, 81
2,48146, Control_c, 0, 64, 77
2,48160, Control_c, 0, 64, 72
2,48176, Control_c, 0, 64, 66
2,48176, Note_on_c, 0, 67, 0
2,48191, Control_c, 0, 64, 58
2,48203, Note_on_c, 0, 66, 61
2,48208, Control_c, 0, 64, 38
2,48223, Control_c, 0, 64, 18
2,48238, Control_c, 0, 64, 15
2,48244, Note_on_c, 0, 67, 57
2,48248, Note_on_c, 0, 66, 0
2,48253, Control_c, 0, 64, 13
2,48268, Control_c, 0, 64, 0
2,48281, Note_on_c, 0, 67, 0
2,48318, Note_on_c, 0, 59, 0
2,48328, Note_on_c, 0, 67, 72
2,48403, Note_on_c, 0, 67, 0
2,48519, Control_c, 0, 64, 52
2,48535, Control_c, 0, 64, 64
2,48549, Control_c, 0, 64, 68
2,48564, Control_c, 0, 64, 74
2,48580, Control_c, 0, 64, 81
2,48595, Control_c, 0, 64, 84
2,48611, Control_c, 0, 64, 87
2,48626, Control_c, 0, 64, 89
2,48641, Control_c, 0, 64, 90
2,48657, Control_c, 0, 64, 91
2,48660, Note_on_c, 0, 63, 0
2,48671, Control_c, 0, 64, 91
2,48679, Note_on_c, 0, 57, 41
2,48702, Control_c, 0, 64, 92
2,48714, Note_on_c, 0, 47, 0
2,48724, Note_on_c, 0, 57, 0
2,48945, Control_c, 0, 64, 91
2,48967, Note_on_c, 0, 64, 46
2,48973, Note_on_c, 0, 52, 35
2,48976, Control_c, 0, 64, 91
2,48978, Note_on_c, 0, 55, 31
2,48990, Control_c, 0, 64, 90
2,49006, Control_c, 0, 64, 87
2,49021, Control_c, 0, 64, 84
2,49036, Control_c, 0, 64, 80
2,49046, Note_on_c, 0, 66, 63
2,49048, Note_on_c, 0, 64, 0
2,49052, Control_c, 0, 64, 73
2,49067, Control_c, 0, 64, 63
2,49082, Control_c, 0, 64, 0
2,49131, Note_on_c, 0, 66, 0
2,49144, Note_on_c, 0, 67, 61
2,49199, Note_on_c, 0, 67, 0
2,49215, Note_on_c, 0, 69, 68
2,49257, Control_c, 0, 64, 58
2,49272, Control_c, 0, 64, 65
2,49288, Control_c, 0, 64, 70
2,49296, Note_on_c, 0, 67, 72
2,49302, Control_c, 0, 64, 76
2,49308, Note_on_c, 0, 69, 0
2,49316, Note_on_c, 0, 55, 0
2,49317, Control_c, 0, 64, 83
2,49333, Control_c, 0, 64, 87
2,49333, Note_on_c, 0, 52, 0
2,49348, Control_c, 0, 64, 91
2,49352, Note_on_c, 0, 67, 0
2,49363, Control_c, 0, 64, 93
2,49366, Note_on_c, 0, 66, 81
2,49379, Control_c, 0, 64, 94
2,49394, Control_c, 0, 64, 95
2,49410, Control_c, 0, 64, 95
2,49425, Control_c, 0, 64, 96
2,49431, Note_on_c, 0, 67, 75
2,49435, Note_on_c, 0, 66, 0
2,49439, Control_c, 0, 64, 97
2,49455, Control_c, 0, 64, 97
2,49491, Note_on_c, 0, 67, 0
2,49508, Note_on_c, 0, 64, 82
2,49515, Control_c, 0, 64, 98
2,49531, Control_c, 0, 64, 98
2,49535, Note_on_c, 0, 64, 0
2,49546, Control_c, 0, 64, 99
2,49622, Control_c, 0, 64, 99
2,49688, Note_on_c, 0, 59, 48
2,49689, Note_on_c, 0, 79, 83
2,49698, Control_c, 0, 64, 99
2,49712, Control_c, 0, 64, 97
2,49728, Control_c, 0, 64, 93
2,49743, Control_c, 0, 64, 83
2,49758, Control_c, 0, 64, 72
2,49774, Control_c, 0, 64, 54
2,49788, Control_c, 0, 64, 0
2,49911, Note_on_c, 0, 57, 58
2,49949, Control_c, 0, 64, 36
2,49956, Note_on_c, 0, 59, 0
2,49964, Control_c, 0, 64, 60
2,49980, Control_c, 0, 64, 65
2,49995, Control_c, 0, 64, 69
2,50011, Control_c, 0, 64, 74
2,50025, Control_c, 0, 64, 80
2,50033, Note_on_c, 0, 79, 0
2,50040, Control_c, 0, 64, 84
2,50056, Control_c, 0, 64, 87
2,50071, Control_c, 0, 64, 88
2,50086, Control_c, 0, 64, 89
2,50087, Note_on_c, 0, 59, 66
2,50101, Control_c, 0, 64, 91
2,50116, Control_c, 0, 64, 92
2,50123, Note_on_c, 0, 57, 0
2,50131, Control_c, 0, 64, 93
2,50146, Control_c, 0, 64, 94
2,50161, Control_c, 0, 64, 95
2,50177, Control_c, 0, 64, 96
2,50192, Control_c, 0, 64, 96
2,50223, Control_c, 0, 64, 97
2,50271, Note_on_c, 0, 55, 66
2,50300, Note_on_c, 0, 59, 0
2,50307, Note_on_c, 0, 55, 0
2,50480, Control_c, 0, 64, 96
2,50490, Note_on_c, 0, 64, 64
2,50495, Control_c, 0, 64, 94
2,50499, Note_on_c, 0, 59, 35
2,50509, Note_on_c, 0, 55, 52
2,50510, Control_c, 0, 64, 89
2,50526, Control_c, 0, 64, 80
2,50541, Control_c, 0, 64, 66
2,50556, Control_c, 0, 64, 0
2,50671, Control_c, 0, 64, 23
2,50676, Note_on_c, 0, 55, 0
2,50683, Note_on_c, 0, 54, 52
2,50687, Control_c, 0, 64, 51
2,50702, Control_c, 0, 64, 61
2,50716, Control_c, 0, 64, 65
2,50732, Control_c, 0, 64, 69
2,50747, Control_c, 0, 64, 74
2,50762, Control_c, 0, 64, 79
2,50778, Control_c, 0, 64, 82
2,50792, Control_c, 0, 64, 84
2,50808, Control_c, 0, 64, 86
2,50823, Control_c, 0, 64, 87
2,50838, Control_c, 0, 64, 87
2,50856, Note_on_c, 0, 55, 56
2,50859, Note_on_c, 0, 54, 0
2,50912, Note_on_c, 0, 55, 0
2,50913, Note_on_c, 0, 59, 0
2,51023, Note_on_c, 0, 61, 75
2,51029, Note_on_c, 0, 55, 51
2,51036, Note_on_c, 0, 52, 50
2,51040, Note_on_c, 0, 64, 0
2,51048, Note_on_c, 0, 55, 0
2,51060, Note_on_c, 0, 52, 0
2,51077, Note_on_c, 0, 61, 0
2,51142, Control_c, 0, 64, 87
2,51157, Control_c, 0, 64, 86
2,51173, Control_c, 0, 64, 85
2,51188, Control_c, 0, 64, 82
2,51202, Control_c, 0, 64, 77
2,51208, Note_on_c, 0, 55, 47
2,51215, Note_on_c, 0, 52, 44
2,51218, Control_c, 0, 64, 67
2,51227, Note_on_c, 0, 61, 72
2,51233, Control_c, 0, 64, 0
2,51370, Control_c, 0, 64, 31
2,51385, Control_c, 0, 64, 59
2,51386, Note_on_c, 0, 50, 56
2,51391, Note_on_c, 0, 52, 0
2,51400, Control_c, 0, 64, 65
2,51423, Control_c, 0, 64, 69
2,51438, Control_c, 0, 64, 74
2,51454, Control_c, 0, 64, 79
2,51468, Control_c, 0, 64, 82
2,51484, Control_c, 0, 64, 83
2,51500, Control_c, 0, 64, 84
2,51515, Control_c, 0, 64, 85
2,51546, Control_c, 0, 64, 86
2,51560, Control_c, 0, 64, 87
2,51576, Control_c, 0, 64, 88
2,51583, Note_on_c, 0, 52, 59
2,51586, Note_on_c, 0, 50, 0
2,51591, Control_c, 0, 64, 88
2,51607, Control_c, 0, 64, 89
2,51614, Note_on_c, 0, 55, 0
2,51622, Control_c, 0, 64, 89
2,51632, Note_on_c, 0, 52, 0
2,51636, Control_c, 0, 64, 90
2,51652, Control_c, 0, 64, 90
2,51712, Control_c, 0, 64, 91
2,51728, Note_on_c, 0, 61, 0
2,51730, Note_on_c, 0, 57, 71
2,51731, Note_on_c, 0, 52, 63
2,51743, Control_c, 0, 64, 91
2,51754, Note_on_c, 0, 49, 56
2,51754, Note_on_c, 0, 57, 0
2,51758, Control_c, 0, 64, 92
2,51766, Note_on_c, 0, 52, 0
2,51785, Note_on_c, 0, 49, 0
2,51788, Control_c, 0, 64, 92
2,51819, Control_c, 0, 64, 93
2,51906, Note_on_c, 0, 49, 46
2,51907, Note_on_c, 0, 57, 44
2,51916, Note_on_c, 0, 52, 51
2,51918, Note_on_c, 0, 69, 68
2,51941, Control_c, 0, 64, 92
2,51956, Control_c, 0, 64, 90
2,51971, Control_c, 0, 64, 85
2,51986, Control_c, 0, 64, 78
2,51990, Note_on_c, 0, 71, 71
2,52001, Control_c, 0, 64, 66
2,52017, Control_c, 0, 64, 0
2,52018, Note_on_c, 0, 69, 0
2,52073, Note_on_c, 0, 73, 72
2,52104, Note_on_c, 0, 71, 0
2,52146, Note_on_c, 0, 74, 74
2,52155, Note_on_c, 0, 73, 0
2,52191, Control_c, 0, 64, 41
2,52207, Control_c, 0, 64, 61
2,52222, Control_c, 0, 64, 66
2,52233, Note_on_c, 0, 73, 76
2,52237, Control_c, 0, 64, 71
2,52252, Control_c, 0, 64, 78
2,52267, Control_c, 0, 64, 85
2,52271, Note_on_c, 0, 74, 0
2,52282, Control_c, 0, 64, 89
2,52298, Control_c, 0, 64, 91
2,52305, Note_on_c, 0, 71, 78
2,52310, Note_on_c, 0, 57, 0
2,52314, Control_c, 0, 64, 93
2,52317, Note_on_c, 0, 73, 0
2,52329, Control_c, 0, 64, 94
2,52338, Note_on_c, 0, 52, 0
2,52344, Control_c, 0, 64, 96
2,52359, Control_c, 0, 64, 97
2,52362, Note_on_c, 0, 49, 0
2,52375, Control_c, 0, 64, 98
2,52380, Note_on_c, 0, 73, 83
2,52390, Control_c, 0, 64, 99
2,52393, Note_on_c, 0, 71, 0
2,52404, Control_c, 0, 64, 100
2,52420, Control_c, 0, 64, 101
2,52436, Control_c, 0, 64, 101
2,52444, Note_on_c, 0, 73, 0
2,52456, Note_on_c, 0, 69, 83
2,52467, Control_c, 0, 64, 102
2,52512, Control_c, 0, 64, 102
2,52594, Note_on_c, 0, 57, 54
2,52601, Note_on_c, 0, 78, 80
2,52603, Control_c, 0, 64, 102
2,52618, Control_c, 0, 64, 100
2,52618, Note_on_c, 0, 69, 0
2,52633, Control_c, 0, 64, 94
2,52649, Control_c, 0, 64, 83
2,52663, Control_c, 0, 64, 69
2,52678, Control_c, 0, 64, 0
2,52770, Control_c, 0, 64, 23
2,52785, Control_c, 0, 64, 58
2,52800, Control_c, 0, 64, 66
2,52800, Note_on_c, 0, 55, 47
2,52816, Control_c, 0, 64, 71
2,52827, Note_on_c, 0, 57, 0
2,52830, Control_c, 0, 64, 77
2,52846, Control_c, 0, 64, 83
2,52846, Note_on_c, 0, 78, 0
2,52861, Control_c, 0, 64, 87
2,52876, Control_c, 0, 64, 88
2,52892, Control_c, 0, 64, 89
2,52907, Control_c, 0, 64, 90
2,52922, Control_c, 0, 64, 92
2,52944, Control_c, 0, 64, 93
2,52959, Control_c, 0, 64, 94
2,52975, Control_c, 0, 64, 95
2,52990, Control_c, 0, 64, 95
2,52997, Note_on_c, 0, 57, 48
2,53003, Note_on_c, 0, 55, 0
2,53006, Control_c, 0, 64, 96
2,53035, Control_c, 0, 64, 96
2,53173, Note_on_c, 0, 54, 45
2,53183, Note_on_c, 0, 57, 0
2,53197, Note_on_c, 0, 54, 0
2,53326, Control_c, 0, 64, 96
2,53341, Control_c, 0, 64, 95
2,53354, Note_on_c, 0, 62, 64
2,53356, Control_c, 0, 64, 93
2,53362, Note_on_c, 0, 57, 49
2,53372, Control_c, 0, 64, 88
2,53377, Note_on_c, 0, 54, 45
2,53386, Control_c, 0, 64, 77
2,53401, Control_c, 0, 64, 64
2,53417, Control_c, 0, 64, 0
2,53507, Control_c, 0, 64, 27
2,53525, Control_c, 0, 64, 55
2,53538, Note_on_c, 0, 54, 0
2,53540, Control_c, 0, 64, 64
2,53546, Note_on_c, 0, 52, 53
2,53555, Control_c, 0, 64, 68
2,53571, Control_c, 0, 64, 73
2,53585, Control_c, 0, 64, 80
2,53601, Control_c, 0, 64, 84
2,53616, Control_c, 0, 64, 87
2,53631, Control_c, 0, 64, 89
2,53647, Control_c, 0, 64, 91
2,53661, Control_c, 0, 64, 91
2,53714, Control_c, 0, 64, 92
2,53729, Note_on_c, 0, 54, 55
2,53744, Note_on_c, 0, 52, 0
2,53781, Note_on_c, 0, 54, 0
2,53799, Note_on_c, 0, 57, 0
2,53899, Note_on_c, 0, 54, 59
2,53901, Note_on_c, 0, 59, 65
2,53906, Note_on_c, 0, 50, 52
2,53922, Note_on_c, 0, 62, 0
2,53937, Note_on_c, 0, 54, 0
2,53942, Note_on_c, 0, 50, 0
2,53945, Note_on_c, 0, 59, 0
2,54005, Control_c, 0, 64, 91
2,54019, Control_c, 0, 64, 90
2,54034, Control_c, 0, 64, 87
2,54050, Control_c, 0, 64, 83
2,54065, Control_c, 0, 64, 74
2,54081, Control_c, 0, 64, 61
2,54086, Note_on_c, 0, 54, 47
2,54090, Note_on_c, 0, 50, 50
2,54095, Note_on_c, 0, 59, 67
2,54096, Control_c, 0, 64, 0
2,54203, Control_c, 0, 64, 34
2,54218, Control_c, 0, 64, 58
2,54232, Control_c, 0, 64, 63
2,54248, Control_c, 0, 64, 66
2,54260, Note_on_c, 0, 49, 63
2,54263, Control_c, 0, 64, 69
2,54276, Note_on_c, 0, 50, 0
2,54279, Control_c, 0, 64, 73
2,54294, Control_c, 0, 64, 76
2,54308, Control_c, 0, 64, 78
2,54324, Control_c, 0, 64, 79
2,54353, Control_c, 0, 64, 79
2,54420, Note_on_c, 0, 50, 67
2,54445, Control_c, 0, 64, 80
2,54446, Note_on_c, 0, 49, 0
2,54453, Note_on_c, 0, 54, 0
2,54488, Note_on_c, 0, 50, 0
2,54581, Note_on_c, 0, 59, 0
2,54587, Note_on_c, 0, 55, 75
2,54596, Note_on_c, 0, 50, 63
2,54600, Note_on_c, 0, 47, 62
2,54613, Note_on_c, 0, 55, 0
2,54628, Note_on_c, 0, 50, 0
2,54633, Note_on_c, 0, 47, 0
2,54755, Control_c, 0, 64, 79
2,54757, Note_on_c, 0, 47, 51
2,54762, Note_on_c, 0, 55, 59
2,54766, Note_on_c, 0, 50, 59
2,54772, Control_c, 0, 64, 77
2,54772, Note_on_c, 0, 67, 78
2,54786, Control_c, 0, 64, 72
2,54802, Control_c, 0, 64, 64
2,54817, Control_c, 0, 64, 30
2,54832, Control_c, 0, 64, 0
2,54847, Note_on_c, 0, 69, 82
2,54852, Note_on_c, 0, 67, 0
2,54927, Note_on_c, 0, 71, 83
2,54957, Note_on_c, 0, 69, 0
2,54994, Note_on_c, 0, 71, 0
2,55000, Note_on_c, 0, 72, 77
2,55027, Note_on_c, 0, 47, 0
2,55044, Note_on_c, 0, 55, 0
2,55046, Control_c, 0, 64, 59
2,55047, Note_on_c, 0, 50, 0
2,55061, Control_c, 0, 64, 67
2,55062, Note_on_c, 0, 71, 77
2,55075, Control_c, 0, 64, 73
2,55091, Control_c, 0, 64, 79
2,55102, Note_on_c, 0, 72, 0
2,55106, Control_c, 0, 64, 84
2,55121, Control_c, 0, 64, 86
2,55132, Note_on_c, 0, 69, 89
2,55136, Control_c, 0, 64, 87
2,55144, Note_on_c, 0, 71, 0
2,55151, Control_c, 0, 64, 88
2,55167, Control_c, 0, 64, 89
2,55182, Control_c, 0, 64, 90
2,55196, Control_c, 0, 64, 91
2,55206, Note_on_c, 0, 71, 83
2,55212, Control_c, 0, 64, 92
2,55212, Note_on_c, 0, 69, 0
2,55227, Control_c, 0, 64, 93
2,55243, Control_c, 0, 64, 94
2,55275, Note_on_c, 0, 67, 90
2,55281, Control_c, 0, 64, 94
2,55283, Note_on_c, 0, 71, 0
2,55296, Control_c, 0, 64, 95
2,55372, Control_c, 0, 64, 93
2,55387, Control_c, 0, 64, 89
2,55395, Note_on_c, 0, 55, 56
2,55400, Note_on_c, 0, 76, 81
2,55402, Control_c, 0, 64, 81
2,55415, Note_on_c, 0, 67, 0
2,55417, Control_c, 0, 64, 70
2,55432, Control_c, 0, 64, 0
2,55570, Control_c, 0, 64, 55
2,55586, Control_c, 0, 64, 65
2,55593, Note_on_c, 0, 54, 59
2,55602, Control_c, 0, 64, 70
2,55611, Note_on_c, 0, 76, 0
2,55617, Control_c, 0, 64, 78
2,55629, Note_on_c, 0, 55, 0
2,55631, Control_c, 0, 64, 85
2,55647, Control_c, 0, 64, 91
2,55662, Control_c, 0, 64, 93
2,55677, Control_c, 0, 64, 95
2,55693, Control_c, 0, 64, 97
2,55707, Control_c, 0, 64, 99
2,55723, Control_c, 0, 64, 101
2,55738, Control_c, 0, 64, 103
2,55753, Control_c, 0, 64, 105
2,55768, Control_c, 0, 64, 105
2,55779, Note_on_c, 0, 55, 56
2,55783, Control_c, 0, 64, 106
2,55814, Control_c, 0, 64, 106
2,55823, Note_on_c, 0, 54, 0
2,55924, Note_on_c, 0, 52, 66
2,55951, Note_on_c, 0, 55, 0
2,55961, Note_on_c, 0, 52, 0
2,56064, Control_c, 0, 64, 106
2,56095, Control_c, 0, 64, 105
2,56104, Note_on_c, 0, 55, 58
2,56104, Note_on_c, 0, 61, 77
2,56110, Control_c, 0, 64, 101
2,56117, Note_on_c, 0, 52, 57
2,56126, Control_c, 0, 64, 93
2,56141, Control_c, 0, 64, 77
2,56156, Control_c, 0, 64, 58
2,56171, Control_c, 0, 64, 0
2,56262, Control_c, 0, 64, 41
2,56276, Note_on_c, 0, 52, 0
2,56277, Control_c, 0, 64, 59
2,56293, Control_c, 0, 64, 64
2,56294, Note_on_c, 0, 50, 48
2,56308, Control_c, 0, 64, 68
2,56323, Control_c, 0, 64, 72
2,56338, Control_c, 0, 64, 78
2,56353, Control_c, 0, 64, 82
2,56369, Control_c, 0, 64, 84
2,56383, Control_c, 0, 64, 85
2,56400, Control_c, 0, 64, 86
2,56455, Note_on_c, 0, 50, 0
2,56474, Note_on_c, 0, 52, 63
2,56523, Note_on_c, 0, 55, 0
2,56627, Note_on_c, 0, 57, 72
2,56629, Note_on_c, 0, 49, 62
2,56635, Note_on_c, 0, 61, 0
2,56655, Note_on_c, 0, 52, 0
2,56675, Note_on_c, 0, 49, 0
2,56686, Note_on_c, 0, 57, 0
2,56803, Control_c, 0, 64, 85
2,56817, Control_c, 0, 64, 81
2,56820, Note_on_c, 0, 57, 69
2,56823, Note_on_c, 0, 49, 58
2,56826, Note_on_c, 0, 52, 53
2,56832, Control_c, 0, 64, 73
2,56848, Control_c, 0, 64, 58
2,56863, Control_c, 0, 64, 0
2,56975, Note_on_c, 0, 49, 0
2,56979, Note_on_c, 0, 47, 62
2,56985, Control_c, 0, 64, 25
2,57000, Control_c, 0, 64, 57
2,57015, Control_c, 0, 64, 65
2,57030, Control_c, 0, 64, 69
2,57046, Control_c, 0, 64, 74
2,57061, Control_c, 0, 64, 79
2,57076, Control_c, 0, 64, 82
2,57092, Control_c, 0, 64, 84
2,57106, Control_c, 0, 64, 85
2,57122, Control_c, 0, 64, 86
2,57137, Control_c, 0, 64, 86
2,57149, Note_on_c, 0, 49, 64
2,57151, Control_c, 0, 64, 87
2,57167, Control_c, 0, 64, 87
2,57182, Control_c, 0, 64, 88
2,57184, Note_on_c, 0, 47, 0
2,57197, Control_c, 0, 64, 89
2,57205, Note_on_c, 0, 49, 0
2,57207, Note_on_c, 0, 52, 0
2,57213, Control_c, 0, 64, 91
2,57229, Control_c, 0, 64, 92
2,57244, Control_c, 0, 64, 92
2,57259, Control_c, 0, 64, 93
2,57274, Control_c, 0, 64, 93
2,57290, Control_c, 0, 64, 94
2,57297, Note_on_c, 0, 57, 0
2,57305, Control_c, 0, 64, 96
2,57311, Note_on_c, 0, 49, 63
2,57311, Note_on_c, 0, 54, 73
2,57320, Control_c, 0, 64, 96
2,57322, Note_on_c, 0, 45, 51
2,57335, Control_c, 0, 64, 97
2,57335, Note_on_c, 0, 54, 0
2,57349, Note_on_c, 0, 49, 0
2,57350, Control_c, 0, 64, 98
2,57360, Note_on_c, 0, 45, 0
2,57366, Control_c, 0, 64, 98
2,57467, Note_on_c, 0, 45, 49
2,57486, Note_on_c, 0, 54, 42
2,57493, Note_on_c, 0, 49, 56
2,57502, Control_c, 0, 64, 98
2,57517, Control_c, 0, 64, 94
2,57520, Note_on_c, 0, 66, 66
2,57532, Control_c, 0, 64, 87
2,57555, Control_c, 0, 64, 74
2,57571, Control_c, 0, 64, 53
2,57585, Control_c, 0, 64, 0
2,57600, Note_on_c, 0, 67, 71
2,57606, Note_on_c, 0, 66, 0
2,57688, Note_on_c, 0, 69, 76
2,57707, Control_c, 0, 64, 52
2,57711, Note_on_c, 0, 45, 0
2,57716, Note_on_c, 0, 67, 0
2,57723, Control_c, 0, 64, 64
2,57737, Control_c, 0, 64, 70
2,57752, Control_c, 0, 64, 77
2,57754, Note_on_c, 0, 69, 0
2,57757, Note_on_c, 0, 71, 62
2,57762, Note_on_c, 0, 54, 0
2,57768, Control_c, 0, 64, 84
2,57768, Note_on_c, 0, 49, 0
2,57783, Control_c, 0, 64, 89
2,57797, Control_c, 0, 64, 93
2,57812, Control_c, 0, 64, 96
2,57822, Note_on_c, 0, 69, 69
2,57827, Control_c, 0, 64, 98
2,57843, Control_c, 0, 64, 100
2,57857, Control_c, 0, 64, 102
2,57866, Note_on_c, 0, 71, 0
2,57872, Control_c, 0, 64, 103
2,57888, Control_c, 0, 64, 103
2,57889, Note_on_c, 0, 67, 83
2,57896, Note_on_c, 0, 69, 0
2,57903, Control_c, 0, 64, 104
2,57933, Control_c, 0, 64, 104
2,57960, Note_on_c, 0, 69, 77
2,57968, Note_on_c, 0, 67, 0
2,58009, Control_c, 0, 64, 105
2,58036, Note_on_c, 0, 69, 0
2,58042, Note_on_c, 0, 66, 88
2,58123, Note_on_c, 0, 66, 0
2,58163, Control_c, 0, 64, 104
2,58171, Note_on_c, 0, 59, 49
2,58177, Control_c, 0, 64, 101
2,58186, Note_on_c, 0, 74, 82
2,58192, Control_c, 0, 64, 95
2,58208, Control_c, 0, 64, 85
2,58223, Control_c, 0, 64, 73
2,58239, Control_c, 0, 64, 50
2,58254, Control_c, 0, 64, 0
2,58274, Note_on_c, 0, 61, 58
2,58290, Note_on_c, 0, 59, 0
2,58356, Note_on_c, 0, 62, 69
2,58367, Note_on_c, 0, 61, 0
2,58415, Note_on_c, 0, 62, 0
2,58422, Note_on_c, 0, 64, 69
2,58443, Control_c, 0, 64, 44
2,58458, Control_c, 0, 64, 58
2,58473, Control_c, 0, 64, 64
2,58489, Control_c, 0, 64, 69
2,58495, Note_on_c, 0, 74, 0
2,58500, Note_on_c, 0, 62, 75
2,58501, Note_on_c, 0, 64, 0
2,58504, Control_c, 0, 64, 75
2,58520, Control_c, 0, 64, 80
2,58535, Control_c, 0, 64, 82
2,58550, Control_c, 0, 64, 84
2,58564, Note_on_c, 0, 61, 77
2,58564, Note_on_c, 0, 62, 0
2,58566, Control_c, 0, 64, 85
2,58581, Control_c, 0, 64, 86
2,58595, Control_c, 0, 64, 88
2,58611, Control_c, 0, 64, 89
2,58626, Control_c, 0, 64, 90
2,58635, Note_on_c, 0, 61, 0
2,58642, Control_c, 0, 64, 91
2,58645, Note_on_c, 0, 62, 80
2,58657, Control_c, 0, 64, 94
2,58672, Control_c, 0, 64, 96
2,58688, Control_c, 0, 64, 98
2,58699, Note_on_c, 0, 74, 90
2,58701, Note_on_c, 0, 59, 73
2,58702, Control_c, 0, 64, 99
2,58717, Control_c, 0, 64, 100
2,58722, Note_on_c, 0, 62, 0
2,58727, Note_on_c, 0, 59, 0
2,58751, Note_on_c, 0, 74, 0
2,58793, Control_c, 0, 64, 99
2,58809, Control_c, 0, 64, 95
2,58824, Control_c, 0, 64, 87
2,58828, Note_on_c, 0, 67, 79
2,58828, Note_on_c, 0, 74, 82
2,58834, Note_on_c, 0, 52, 67
2,58839, Control_c, 0, 64, 75
2,58855, Control_c, 0, 64, 56
2,58870, Control_c, 0, 64, 0
2,58922, Note_on_c, 0, 54, 66
2,58943, Note_on_c, 0, 52, 0
2,58999, Note_on_c, 0, 55, 71
2,59012, Note_on_c, 0, 54, 0
2,59063, Note_on_c, 0, 55, 0
2,59068, Note_on_c, 0, 57, 71
2,59146, Note_on_c, 0, 57, 0
2,59147, Note_on_c, 0, 55, 73
2,59213, Control_c, 0, 64, 56
2,59214, Note_on_c, 0, 54, 76
2,59214, Note_on_c, 0, 55, 0
2,59227, Control_c, 0, 64, 66
2,59243, Control_c, 0, 64, 72
2,59258, Control_c, 0, 64, 82
2,59272, Control_c, 0, 64, 91
2,59286, Note_on_c, 0, 55, 76
2,59287, Note_on_c, 0, 54, 0
2,59288, Control_c, 0, 64, 98
2,59303, Control_c, 0, 64, 106
2,59319, Control_c, 0, 64, 114
2,59334, Control_c, 0, 64, 127
2,59348, Control_c, 0, 64, 127
2,59351, Note_on_c, 0, 52, 72
2,59354, Note_on_c, 0, 76, 85
2,59370, Note_on_c, 0, 55, 0
2,59371, Note_on_c, 0, 74, 0
2,59379, Note_on_c, 0, 52, 0
2,59392, Note_on_c, 0, 67, 0
2,59468, Note_on_c, 0, 74, 76
2,59479, Note_on_c, 0, 76, 0
2,59491, Note_on_c, 0, 57, 64
2,59514, Note_on_c, 0, 74, 0
2,59516, Control_c, 0, 64, 105
2,59521, Note_on_c, 0, 73, 81
2,59525, Note_on_c, 0, 59, 69
2,59532, Control_c, 0, 64, 88
2,59546, Control_c, 0, 64, 69
2,59555, Note_on_c, 0, 57, 0
2,59562, Control_c, 0, 64, 0
2,59565, Note_on_c, 0, 74, 68
2,59573, Note_on_c, 0, 73, 0
2,59605, Note_on_c, 0, 61, 75
2,59614, Note_on_c, 0, 73, 76
2,59618, Note_on_c, 0, 59, 0
2,59644, Note_on_c, 0, 74, 0
2,59672, Note_on_c, 0, 61, 0
2,59682, Note_on_c, 0, 62, 73
2,59753, Note_on_c, 0, 61, 79
2,59767, Note_on_c, 0, 62, 0
2,59825, Note_on_c, 0, 59, 71
2,59828, Note_on_c, 0, 61, 0
2,59914, Note_on_c, 0, 61, 69
2,59925, Note_on_c, 0, 74, 77
2,59971, Note_on_c, 0, 57, 70
2,59972, Note_on_c, 0, 73, 0
2,59996, Note_on_c, 0, 61, 0
2,60002, Note_on_c, 0, 59, 0
2,60002, Note_on_c, 0, 76, 83
2,60023, Note_on_c, 0, 57, 0
2,60087, Note_on_c, 0, 74, 0
2,60135, Note_on_c, 0, 78, 83
2,60141, Note_on_c, 0, 62, 60
2,60144, Note_on_c, 0, 66, 68
2,60147, Note_on_c, 0, 50, 63
2,60182, Note_on_c, 0, 50, 0
2,60231, Note_on_c, 0, 52, 60
2,60311, Note_on_c, 0, 54, 67
2,60331, Note_on_c, 0, 52, 0
2,60377, Note_on_c, 0, 55, 72
2,60379, Note_on_c, 0, 54, 0
2,60421, Note_on_c, 0, 76, 0
2,60426, Note_on_c, 0, 66, 0
2,60457, Note_on_c, 0, 78, 0
2,60471, Note_on_c, 0, 54, 74
2,60507, Note_on_c, 0, 55, 0
2,60528, Control_c, 0, 64, 32
2,60529, Note_on_c, 0, 52, 60
2,60532, Note_on_c, 0, 54, 0
2,60543, Control_c, 0, 64, 60
2,60559, Control_c, 0, 64, 64
2,60574, Control_c, 0, 64, 67
2,60589, Control_c, 0, 64, 69
2,60605, Control_c, 0, 64, 72
2,60605, Note_on_c, 0, 54, 74
2,60613, Note_on_c, 0, 52, 0
2,60626, Control_c, 0, 64, 75
2,60642, Control_c, 0, 64, 77
2,60657, Control_c, 0, 64, 79
2,60672, Control_c, 0, 64, 79
2,60695, Note_on_c, 0, 54, 0
2,60724, Note_on_c, 0, 50, 47
2,60733, Control_c, 0, 64, 79
2,60748, Control_c, 0, 64, 77
2,60764, Control_c, 0, 64, 74
2,60779, Control_c, 0, 64, 68
2,60794, Control_c, 0, 64, 55
2,60795, Note_on_c, 0, 55, 66
2,60795, Note_on_c, 0, 62, 0
2,60797, Note_on_c, 0, 50, 0
2,60810, Control_c, 0, 64, 0
2,60825, Note_on_c, 0, 83, 84
2,61002, Note_on_c, 0, 81, 83
2,61035, Control_c, 0, 64, 56
2,61051, Control_c, 0, 64, 65
2,61057, Note_on_c, 0, 83, 0
2,61066, Control_c, 0, 64, 70
2,61082, Control_c, 0, 64, 76
2,61097, Control_c, 0, 64, 81
2,61112, Control_c, 0, 64, 84
2,61128, Control_c, 0, 64, 85
2,61131, Note_on_c, 0, 55, 0
2,61143, Control_c, 0, 64, 87
2,61157, Control_c, 0, 64, 88
2,61171, Note_on_c, 0, 83, 87
2,61173, Control_c, 0, 64, 89
2,61188, Control_c, 0, 64, 91
2,61204, Control_c, 0, 64, 92
2,61216, Note_on_c, 0, 81, 0
2,61218, Control_c, 0, 64, 93
2,61233, Control_c, 0, 64, 94
2,61249, Control_c, 0, 64, 94
2,61336, Note_on_c, 0, 79, 83
2,61367, Note_on_c, 0, 83, 0
2,61415, Note_on_c, 0, 79, 0
2,61531, Control_c, 0, 64, 93
2,61546, Control_c, 0, 64, 90
2,61555, Note_on_c, 0, 79, 82
2,61559, Note_on_c, 0, 74, 56
2,61562, Control_c, 0, 64, 84
2,61565, Note_on_c, 0, 71, 60
2,61577, Control_c, 0, 64, 75
2,61592, Control_c, 0, 64, 61
2,61607, Control_c, 0, 64, 0
2,61726, Note_on_c, 0, 78, 84
2,61743, Control_c, 0, 64, 55
2,61759, Control_c, 0, 64, 64
2,61764, Note_on_c, 0, 79, 0
2,61774, Control_c, 0, 64, 68
2,61789, Control_c, 0, 64, 74
2,61804, Control_c, 0, 64, 79
2,61819, Control_c, 0, 64, 83
2,61834, Control_c, 0, 64, 85
2,61849, Control_c, 0, 64, 87
2,61864, Control_c, 0, 64, 87
2,61880, Control_c, 0, 64, 88
2,61883, Note_on_c, 0, 74, 0
2,61895, Note_on_c, 0, 71, 0
2,61901, Note_on_c, 0, 79, 87
2,61910, Control_c, 0, 64, 88
2,61970, Note_on_c, 0, 78, 0
2,62002, Control_c, 0, 64, 89
2,62066, Note_on_c, 0, 76, 82
2,62071, Note_on_c, 0, 71, 70
2,62074, Note_on_c, 0, 67, 69
2,62089, Note_on_c, 0, 79, 0
2,62094, Note_on_c, 0, 71, 0
2,62101, Note_on_c, 0, 67, 0
2,62110, Note_on_c, 0, 76, 0
2,62190, Control_c, 0, 64, 89
2,62281, Control_c, 0, 64, 88
2,62284, Note_on_c, 0, 76, 82
2,62287, Note_on_c, 0, 67, 62
2,62291, Note_on_c, 0, 71, 59
2,62296, Control_c, 0, 64, 86
2,62311, Control_c, 0, 64, 80
2,62327, Control_c, 0, 64, 72
2,62342, Control_c, 0, 64, 58
2,62357, Control_c, 0, 64, 0
2,62476, Note_on_c, 0, 74, 80
2,62510, Control_c, 0, 64, 36
2,62518, Note_on_c, 0, 76, 0
2,62526, Control_c, 0, 64, 63
2,62541, Control_c, 0, 64, 69
2,62556, Control_c, 0, 64, 75
2,62571, Control_c, 0, 64, 82
2,62586, Control_c, 0, 64, 87
2,62601, Control_c, 0, 64, 91
2,62617, Control_c, 0, 64, 93
2,62632, Control_c, 0, 64, 95
2,62647, Control_c, 0, 64, 98
2,62651, Note_on_c, 0, 74, 0
2,62657, Note_on_c, 0, 76, 85
2,62662, Control_c, 0, 64, 101
2,62677, Control_c, 0, 64, 103
2,62692, Control_c, 0, 64, 105
2,62707, Control_c, 0, 64, 105
2,62722, Control_c, 0, 64, 106
2,62753, Control_c, 0, 64, 106
2,62776, Note_on_c, 0, 71, 0
2,62830, Note_on_c, 0, 73, 90
2,62833, Note_on_c, 0, 69, 84
2,62837, Note_on_c, 0, 64, 72
2,62851, Note_on_c, 0, 69, 0
2,62856, Note_on_c, 0, 76, 0
2,62860, Note_on_c, 0, 67, 0
2,62863, Note_on_c, 0, 64, 0
2,62905, Control_c, 0, 64, 107
2,62907, Note_on_c, 0, 73, 0
2,63080, Control_c, 0, 64, 106
2,63096, Control_c, 0, 64, 104
2,63111, Control_c, 0, 64, 99
2,63114, Note_on_c, 0, 69, 77
2,63114, Note_on_c, 0, 73, 87
2,63115, Note_on_c, 0, 55, 78
2,63115, Note_on_c, 0, 64, 83
2,63121, Note_on_c, 0, 43, 82
2,63127, Control_c, 0, 64, 88
2,63141, Control_c, 0, 64, 73
2,63156, Control_c, 0, 64, 0
2,63278, Control_c, 0, 64, 26
2,63293, Control_c, 0, 64, 61
2,63308, Control_c, 0, 64, 66
2,63323, Control_c, 0, 64, 70
2,63339, Control_c, 0, 64, 75
2,63354, Control_c, 0, 64, 80
2,63370, Control_c, 0, 64, 82
2,63385, Control_c, 0, 64, 84
2,63398, Control_c, 0, 64, 85
2,63413, Control_c, 0, 64, 85
2,63428, Control_c, 0, 64, 86
2,63443, Control_c, 0, 64, 87
2,63473, Control_c, 0, 64, 87
2,63488, Control_c, 0, 64, 88
2,63504, Control_c, 0, 64, 88
2,63549, Control_c, 0, 64, 89
2,63580, Control_c, 0, 64, 89
2,63609, Control_c, 0, 64, 90
2,63617, Note_on_c, 0, 64, 0
2,63626, Note_on_c, 0, 43, 0
2,63640, Control_c, 0, 64, 90
2,63670, Control_c, 0, 64, 91
2,63685, Control_c, 0, 64, 91
2,63685, Note_on_c, 0, 69, 0
2,63752, Note_on_c, 0, 73, 0
2,64089, Control_c, 0, 64, 91
2,64107, Note_on_c, 0, 55, 0
2,64120, Control_c, 0, 64, 90
2,64128, Note_on_c, 0, 54, 48
2,64135, Control_c, 0, 64, 89
2,64140, Note_on_c, 0, 69, 54
2,64143, Note_on_c, 0, 74, 57
2,64148, Note_on_c, 0, 66, 49
2,64150, Control_c, 0, 64, 87
2,64165, Control_c, 0, 64, 84
2,64181, Control_c, 0, 64, 79
2,64195, Control_c, 0, 64, 74
2,64210, Control_c, 0, 64, 68
2,64226, Control_c, 0, 64, 59
2,64241, Control_c, 0, 64, 13
2,64247, Note_on_c, 0, 54, 0
2,64250, Note_on_c, 0, 55, 49
2,64257, Control_c, 0, 64, 0
2,64324, Note_on_c, 0, 55, 0
2,64366, Note_on_c, 0, 57, 51
2,64431, Note_on_c, 0, 57, 0
2,64450, Note_on_c, 0, 55, 54
2,64465, Note_on_c, 0, 66, 0
2,64480, Note_on_c, 0, 69, 0
2,64493, Note_on_c, 0, 74, 0
2,64521, Note_on_c, 0, 54, 62
2,64530, Note_on_c, 0, 55, 0
2,64586, Note_on_c, 0, 54, 0
2,64604, Note_on_c, 0, 52, 72
2,64672, Note_on_c, 0, 52, 0
2,64687, Note_on_c, 0, 50, 69
2,64734, Note_on_c, 0, 49, 70
2,64750, Note_on_c, 0, 69, 76
2,64751, Note_on_c, 0, 66, 75
2,64756, Note_on_c, 0, 74, 57
2,64777, Note_on_c, 0, 50, 0
2,64784, Note_on_c, 0, 66, 0
2,64787, Note_on_c, 0, 74, 0
2,64797, Note_on_c, 0, 69, 0
2,64823, Note_on_c, 0, 49, 0
2,64834, Note_on_c, 0, 47, 68
2,64843, Note_on_c, 0, 66, 84
2,64846, Note_on_c, 0, 74, 68
2,64854, Note_on_c, 0, 71, 78
2,64929, Note_on_c, 0, 49, 74
2,64944, Note_on_c, 0, 47, 0
2,65003, Note_on_c, 0, 49, 0
2,65012, Note_on_c, 0, 50, 71
2,65081, Note_on_c, 0, 49, 78
2,65085, Note_on_c, 0, 71, 0
2,65088, Control_c, 0, 64, 37
2,65088, Note_on_c, 0, 66, 0
2,65094, Note_on_c, 0, 74, 0
2,65100, Note_on_c, 0, 50, 0
2,65103, Control_c, 0, 64, 55
2,65118, Control_c, 0, 64, 62
2,65136, Control_c, 0, 64, 65
2,65150, Control_c, 0, 64, 70
2,65153, Note_on_c, 0, 47, 76
2,65166, Control_c, 0, 64, 78
2,65181, Control_c, 0, 64, 84
2,65190, Note_on_c, 0, 49, 0
2,65196, Control_c, 0, 64, 87
2,65212, Control_c, 0, 64, 89
2,65222, Note_on_c, 0, 45, 69
2,65233, Note_on_c, 0, 47, 0
2,65315, Note_on_c, 0, 45, 0
2,65317, Note_on_c, 0, 47, 75
2,65389, Note_on_c, 0, 67, 81
2,65390, Note_on_c, 0, 76, 79
2,65392, Note_on_c, 0, 71, 77
2,65406, Note_on_c, 0, 43, 67
2,65411, Note_on_c, 0, 67, 0
2,65414, Note_on_c, 0, 71, 0
2,65415, Note_on_c, 0, 47, 0
2,65429, Note_on_c, 0, 76, 0
2,65493, Control_c, 0, 64, 88
2,65508, Control_c, 0, 64, 86
2,65524, Control_c, 0, 64, 81
2,65539, Control_c, 0, 64, 71
2,65545, Note_on_c, 0, 74, 82
2,65551, Note_on_c, 0, 69, 72
2,65552, Note_on_c, 0, 45, 68
2,65552, Note_on_c, 0, 64, 74
2,65554, Control_c, 0, 64, 42
2,65560, Note_on_c, 0, 43, 0
2,65569, Control_c, 0, 64, 0
2,65693, Note_on_c, 0, 73, 68
2,65719, Note_on_c, 0, 74, 0
2,65722, Note_on_c, 0, 69, 0
2,65774, Note_on_c, 0, 73, 0
2,65776, Note_on_c, 0, 71, 69
2,65838, Note_on_c, 0, 73, 60
2,65849, Note_on_c, 0, 71, 0
2,65904, Note_on_c, 0, 74, 73
2,65905, Note_on_c, 0, 73, 0
2,65971, Note_on_c, 0, 73, 72
2,65997, Note_on_c, 0, 74, 0
2,66042, Note_on_c, 0, 73, 0
2,66051, Note_on_c, 0, 74, 68
2,66097, Note_on_c, 0, 73, 69
2,66150, Note_on_c, 0, 74, 0
2,66319, Control_c, 0, 64, 35
2,66335, Control_c, 0, 64, 61
2,66350, Control_c, 0, 64, 66
2,66365, Control_c, 0, 64, 70
2,66381, Control_c, 0, 64, 74
2,66396, Control_c, 0, 64, 78
2,66412, Control_c, 0, 64, 81
2,66427, Control_c, 0, 64, 83
2,66441, Control_c, 0, 64, 84
2,66457, Control_c, 0, 64, 85
2,66472, Control_c, 0, 64, 86
2,66488, Control_c, 0, 64, 87
2,66503, Control_c, 0, 64, 88
2,66517, Control_c, 0, 64, 89
2,66548, Control_c, 0, 64, 89
2,66561, Note_on_c, 0, 45, 0
2,66719, Note_on_c, 0, 74, 67
2,66721, Note_on_c, 0, 45, 58
2,66729, Note_on_c, 0, 64, 0
2,66734, Note_on_c, 0, 73, 0
2,66752, Note_on_c, 0, 45, 0
2,66774, Note_on_c, 0, 74, 0
2,66890, Control_c, 0, 64, 87
2,66905, Control_c, 0, 64, 80
2,66907, Note_on_c, 0, 74, 68
2,66915, Note_on_c, 0, 66, 75
2,66916, Note_on_c, 0, 69, 72
2,66919, Control_c, 0, 64, 66
2,66924, Note_on_c, 0, 38, 50
2,66935, Control_c, 0, 64, 0
2,67041, Control_c, 0, 64, 54
2,67058, Control_c, 0, 64, 64
2,67072, Control_c, 0, 64, 70
2,67088, Control_c, 0, 64, 78
2,67103, Control_c, 0, 64, 86
2,67108, Note_on_c, 0, 38, 0
2,67118, Control_c, 0, 64, 93
2,67134, Control_c, 0, 64, 98
2,67148, Control_c, 0, 64, 101
2,67163, Control_c, 0, 64, 102
2,67179, Control_c, 0, 64, 103
2,67191, Note_on_c, 0, 74, 0
2,67194, Control_c, 0, 64, 104
2,67194, Note_on_c, 0, 66, 0
2,67205, Note_on_c, 0, 69, 0
2,67210, Control_c, 0, 64, 105
2,67225, Control_c, 0, 64, 106
2,67239, Control_c, 0, 64, 107
2,67270, Control_c, 0, 64, 107
2,67552, Note_on_c, 0, 50, 45
2,67567, Control_c, 0, 64, 108
2,67601, Note_on_c, 0, 52, 61
2,67607, Note_on_c, 0, 50, 0
2,67641, Note_on_c, 0, 54, 71
2,67664, Note_on_c, 0, 52, 0
2,67686, Control_c, 0, 64, 106
2,67698, Note_on_c, 0, 55, 65
2,67701, Control_c, 0, 64, 101
2,67714, Note_on_c, 0, 71, 79
2,67716, Control_c, 0, 64, 92
2,67727, Note_on_c, 0, 54, 0
2,67731, Control_c, 0, 64, 80
2,67747, Control_c, 0, 64, 64
2,67762, Control_c, 0, 64, 0
2,67809, Note_on_c, 0, 73, 76
2,67858, Note_on_c, 0, 71, 0
2,67869, Control_c, 0, 64, 26
2,67884, Control_c, 0, 64, 59
2,67888, Note_on_c, 0, 74, 70
2,67900, Control_c, 0, 64, 66
2,67904, Note_on_c, 0, 73, 0
2,67914, Control_c, 0, 64, 72
2,67929, Control_c, 0, 64, 79
2,67945, Control_c, 0, 64, 86
2,67956, Note_on_c, 0, 74, 0
2,67957, Note_on_c, 0, 76, 71
2,67960, Control_c, 0, 64, 90
2,67976, Control_c, 0, 64, 93
2,67987, Note_on_c, 0, 55, 0
2,67990, Control_c, 0, 64, 94
2,68005, Control_c, 0, 64, 96
2,68021, Control_c, 0, 64, 97
2,68035, Note_on_c, 0, 74, 72
2,68036, Control_c, 0, 64, 98
2,68050, Control_c, 0, 64, 99
2,68066, Control_c, 0, 64, 100
2,68073, Note_on_c, 0, 76, 0
2,68081, Control_c, 0, 64, 101
2,68097, Control_c, 0, 64, 101
2,68106, Note_on_c, 0, 74, 0
2,68115, Note_on_c, 0, 73, 81
2,68143, Control_c, 0, 64, 102
2,68181, Note_on_c, 0, 74, 76
2,68197, Note_on_c, 0, 73, 0
2,68254, Note_on_c, 0, 71, 79
2,68260, Note_on_c, 0, 74, 0
2,68276, Note_on_c, 0, 71, 0
2,68376, Note_on_c, 0, 76, 82
2,68378, Control_c, 0, 64, 101
2,68381, Note_on_c, 0, 71, 68
2,68385, Note_on_c, 0, 49, 52
2,68387, Note_on_c, 0, 64, 65
2,68393, Control_c, 0, 64, 101
2,68408, Control_c, 0, 64, 99
2,68424, Control_c, 0, 64, 94
2,68439, Control_c, 0, 64, 88
2,68454, Control_c, 0, 64, 80
2,68469, Control_c, 0, 64, 70
2,68483, Note_on_c, 0, 50, 54
2,68484, Control_c, 0, 64, 21
2,68487, Note_on_c, 0, 49, 0
2,68500, Control_c, 0, 64, 0
2,68546, Note_on_c, 0, 50, 0
2,68549, Note_on_c, 0, 52, 66
2,68612, Note_on_c, 0, 52, 0
2,68625, Note_on_c, 0, 54, 69
2,68688, Note_on_c, 0, 52, 64
2,68697, Note_on_c, 0, 54, 0
2,68714, Note_on_c, 0, 64, 0
2,68748, Note_on_c, 0, 52, 0
2,68759, Note_on_c, 0, 50, 64
2,68830, Note_on_c, 0, 50, 0
2,68833, Note_on_c, 0, 52, 71
2,68910, Note_on_c, 0, 52, 0
2,68920, Note_on_c, 0, 49, 61
2,68920, Note_on_c, 0, 76, 0
2,69002, Note_on_c, 0, 71, 0
2,69004, Note_on_c, 0, 49, 0
2,69026, Note_on_c, 0, 54, 50
2,69034, Note_on_c, 0, 69, 56
2,69109, Note_on_c, 0, 69, 0
2,69124, Note_on_c, 0, 71, 64
2,69198, Note_on_c, 0, 71, 0
2,69202, Note_on_c, 0, 73, 67
2,69206, Control_c, 0, 64, 29
2,69222, Control_c, 0, 64, 58
2,69237, Control_c, 0, 64, 65
2,69252, Control_c, 0, 64, 68
2,69268, Control_c, 0, 64, 73
2,69268, Note_on_c, 0, 73, 0
2,69273, Note_on_c, 0, 74, 68
2,69283, Control_c, 0, 64, 79
2,69298, Control_c, 0, 64, 83
2,69313, Control_c, 0, 64, 85
2,69328, Control_c, 0, 64, 86
2,69331, Note_on_c, 0, 54, 0
2,69344, Control_c, 0, 64, 87
2,69349, Note_on_c, 0, 73, 72
2,69359, Control_c, 0, 64, 88
2,69374, Control_c, 0, 64, 89
2,69390, Note_on_c, 0, 74, 0
2,69404, Control_c, 0, 64, 89
2,69430, Note_on_c, 0, 73, 0
2,69431, Note_on_c, 0, 71, 73
2,69449, Control_c, 0, 64, 90
2,69503, Note_on_c, 0, 73, 64
2,69527, Note_on_c, 0, 71, 0
2,69562, Note_on_c, 0, 69, 74
2,69579, Note_on_c, 0, 73, 0
2,69589, Note_on_c, 0, 69, 0
2,69669, Note_on_c, 0, 47, 47
2,69697, Note_on_c, 0, 69, 66
2,69699, Note_on_c, 0, 74, 66
2,69711, Note_on_c, 0, 62, 52
2,69724, Control_c, 0, 64, 89
2,69739, Control_c, 0, 64, 88
2,69754, Control_c, 0, 64, 85
2,69769, Control_c, 0, 64, 79
2,69782, Note_on_c, 0, 49, 49
2,69785, Control_c, 0, 64, 71
2,69800, Control_c, 0, 64, 59
2,69811, Note_on_c, 0, 47, 0
2,69815, Control_c, 0, 64, 0
2,69847, Note_on_c, 0, 49, 0
2,69862, Note_on_c, 0, 50, 54
2,69907, Note_on_c, 0, 50, 0
2,69927, Note_on_c, 0, 52, 63
2,69980, Note_on_c, 0, 62, 0
2,69991, Note_on_c, 0, 52, 0
2,70002, Note_on_c, 0, 50, 68
2,70020, Control_c, 0, 64, 53
2,70035, Control_c, 0, 64, 64
2,70050, Control_c, 0, 64, 69
2,70056, Note_on_c, 0, 50, 0
2,70064, Note_on_c, 0, 49, 72
2,70066, Control_c, 0, 64, 77
2,70081, Control_c, 0, 64, 86
2,70097, Control_c, 0, 64, 92
2,70111, Control_c, 0, 64, 97
2,70126, Control_c, 0, 64, 100
2,70142, Control_c, 0, 64, 102
2,70151, Note_on_c, 0, 50, 65
2,70153, Note_on_c, 0, 49, 0
2,70157, Control_c, 0, 64, 104
2,70172, Control_c, 0, 64, 106
2,70188, Control_c, 0, 64, 107
2,70203, Control_c, 0, 64, 108
2,70209, Note_on_c, 0, 47, 65
2,70218, Control_c, 0, 64, 109
2,70229, Note_on_c, 0, 50, 0
2,70243, Note_on_c, 0, 47, 0
2,70248, Control_c, 0, 64, 110
2,70337, Note_on_c, 0, 74, 0
2,70341, Control_c, 0, 64, 109
2,70341, Note_on_c, 0, 69, 0
2,70356, Control_c, 0, 64, 108
2,70370, Control_c, 0, 64, 105
2,70380, Note_on_c, 0, 67, 64
2,70386, Control_c, 0, 64, 101
2,70386, Note_on_c, 0, 52, 54
2,70401, Control_c, 0, 64, 95
2,70417, Control_c, 0, 64, 86
2,70432, Control_c, 0, 64, 76
2,70443, Note_on_c, 0, 54, 57
2,70444, Note_on_c, 0, 52, 0
2,70447, Control_c, 0, 64, 63
2,70462, Control_c, 0, 64, 0
2,70462, Note_on_c, 0, 69, 65
2,70463, Note_on_c, 0, 67, 0
2,70517, Note_on_c, 0, 54, 0
2,70518, Note_on_c, 0, 55, 63
2,70538, Note_on_c, 0, 69, 0
2,70546, Note_on_c, 0, 71, 67
2,70568, Note_on_c, 0, 55, 0
2,70591, Note_on_c, 0, 57, 66
2,70609, Note_on_c, 0, 71, 0
2,70619, Note_on_c, 0, 72, 68
2,70622, Control_c, 0, 64, 30
2,70637, Control_c, 0, 64, 60
2,70652, Control_c, 0, 64, 67
2,70664, Note_on_c, 0, 57, 0
2,70667, Control_c, 0, 64, 72
2,70672, Note_on_c, 0, 55, 70
2,70682, Control_c, 0, 64, 80
2,70688, Note_on_c, 0, 71, 68
2,70698, Control_c, 0, 64, 86
2,70712, Control_c, 0, 64, 90
2,70719, Note_on_c, 0, 72, 0
2,70725, Note_on_c, 0, 55, 0
2,70727, Control_c, 0, 64, 92
2,70732, Note_on_c, 0, 54, 70
2,70743, Control_c, 0, 64, 94
2,70752, Note_on_c, 0, 71, 0
2,70758, Control_c, 0, 64, 95
2,70759, Note_on_c, 0, 69, 78
2,70774, Control_c, 0, 64, 96
2,70788, Control_c, 0, 64, 96
2,70803, Control_c, 0, 64, 97
2,70807, Note_on_c, 0, 54, 0
2,70816, Note_on_c, 0, 55, 67
2,70819, Control_c, 0, 64, 98
2,70827, Note_on_c, 0, 71, 72
2,70833, Control_c, 0, 64, 100
2,70834, Note_on_c, 0, 69, 0
2,70848, Control_c, 0, 64, 102
2,70864, Control_c, 0, 64, 103
2,70864, Note_on_c, 0, 52, 73
2,70879, Control_c, 0, 64, 104
2,70883, Note_on_c, 0, 71, 0
2,70885, Note_on_c, 0, 67, 79
2,70895, Control_c, 0, 64, 105
2,70896, Note_on_c, 0, 55, 0
2,70901, Note_on_c, 0, 52, 0
2,70907, Note_on_c, 0, 67, 0
2,70909, Control_c, 0, 64, 105
2,70940, Control_c, 0, 64, 105
2,70955, Control_c, 0, 64, 103
2,70970, Control_c, 0, 64, 99
2,70985, Control_c, 0, 64, 91
2,70989, Note_on_c, 0, 73, 81
2,70998, Note_on_c, 0, 57, 64
2,71000, Control_c, 0, 64, 79
2,71016, Control_c, 0, 64, 65
2,71031, Control_c, 0, 64, 0
2,71042, Note_on_c, 0, 59, 67
2,71050, Note_on_c, 0, 74, 72
2,71076, Note_on_c, 0, 57, 0
2,71113, Note_on_c, 0, 73, 0
2,71114, Note_on_c, 0, 61, 74
2,71132, Note_on_c, 0, 59, 0
2,71136, Note_on_c, 0, 76, 78
2,71154, Note_on_c, 0, 74, 0
2,71193, Note_on_c, 0, 61, 0
2,71200, Note_on_c, 0, 62, 75
2,71205, Note_on_c, 0, 78, 76
2,71208, Note_on_c, 0, 76, 0
2,71229, Control_c, 0, 64, 55
2,71244, Control_c, 0, 64, 63
2,71260, Control_c, 0, 64, 68
2,71266, Note_on_c, 0, 61, 76
2,71275, Control_c, 0, 64, 74
2,71280, Note_on_c, 0, 62, 0
2,71282, Note_on_c, 0, 76, 78
2,71289, Control_c, 0, 64, 82
2,71305, Control_c, 0, 64, 88
2,71320, Control_c, 0, 64, 92
2,71329, Note_on_c, 0, 78, 0
2,71336, Control_c, 0, 64, 96
2,71338, Note_on_c, 0, 59, 77
2,71343, Note_on_c, 0, 61, 0
2,71350, Control_c, 0, 64, 100
2,71358, Note_on_c, 0, 74, 79
2,71359, Note_on_c, 0, 76, 0
2,71374, Control_c, 0, 64, 102
2,71389, Control_c, 0, 64, 105
2,71404, Control_c, 0, 64, 106
2,71420, Control_c, 0, 64, 107
2,71424, Note_on_c, 0, 59, 0
2,71425, Note_on_c, 0, 61, 74
2,71434, Control_c, 0, 64, 109
2,71437, Note_on_c, 0, 76, 79
2,71449, Control_c, 0, 64, 109
2,71450, Note_on_c, 0, 74, 0
2,71465, Control_c, 0, 64, 110
2,71479, Control_c, 0, 64, 110
2,71482, Note_on_c, 0, 57, 75
2,71507, Note_on_c, 0, 73, 88
2,71508, Note_on_c, 0, 76, 0
2,71517, Note_on_c, 0, 61, 0
2,71522, Note_on_c, 0, 57, 0
2,71544, Note_on_c, 0, 73, 0
2,71586, Control_c, 0, 64, 110
2,71601, Control_c, 0, 64, 108
2,71612, Note_on_c, 0, 78, 87
2,71616, Note_on_c, 0, 62, 75
2,71617, Control_c, 0, 64, 104
2,71631, Control_c, 0, 64, 96
2,71646, Control_c, 0, 64, 86
2,71662, Control_c, 0, 64, 73
2,71675, Note_on_c, 0, 64, 67
2,71676, Control_c, 0, 64, 0
2,71683, Note_on_c, 0, 78, 0
2,71683, Note_on_c, 0, 79, 81
2,71706, Note_on_c, 0, 62, 0
2,71745, Note_on_c, 0, 66, 79
2,71762, Note_on_c, 0, 81, 80
2,71778, Note_on_c, 0, 64, 0
2,71785, Note_on_c, 0, 79, 0
2,71834, Note_on_c, 0, 66, 0
2,71839, Note_on_c, 0, 67, 73
2,71847, Note_on_c, 0, 83, 73
2,71848, Note_on_c, 0, 81, 0
2,71917, Note_on_c, 0, 66, 78
2,71924, Note_on_c, 0, 81, 80
2,71931, Note_on_c, 0, 67, 0
2,71967, Note_on_c, 0, 83, 0
2,71987, Note_on_c, 0, 79, 82
2,71992, Note_on_c, 0, 64, 75
2,71995, Note_on_c, 0, 66, 0
2,71998, Note_on_c, 0, 81, 0
2,72065, Note_on_c, 0, 64, 0
2,72068, Note_on_c, 0, 66, 82
2,72068, Note_on_c, 0, 81, 85
2,72083, Note_on_c, 0, 79, 0
2,72148, Note_on_c, 0, 66, 0
2,72149, Note_on_c, 0, 78, 90
2,72160, Note_on_c, 0, 62, 71
2,72199, Note_on_c, 0, 81, 0
2,72255, Note_on_c, 0, 62, 0
2,72278, Note_on_c, 0, 83, 85
2,72282, Note_on_c, 0, 78, 0
2,72285, Note_on_c, 0, 67, 71
2,72445, Control_c, 0, 64, 37
2,72461, Control_c, 0, 64, 62
2,72475, Control_c, 0, 64, 67
2,72490, Control_c, 0, 64, 72
2,72506, Control_c, 0, 64, 79
2,72521, Control_c, 0, 64, 87
2,72536, Control_c, 0, 64, 91
2,72551, Control_c, 0, 64, 95
2,72557, Note_on_c, 0, 83, 0
2,72566, Control_c, 0, 64, 99
2,72582, Control_c, 0, 64, 102
2,72597, Control_c, 0, 64, 106
2,72597, Note_on_c, 0, 67, 0
2,72612, Control_c, 0, 64, 109
2,72628, Control_c, 0, 64, 113
2,72643, Control_c, 0, 64, 115
2,72658, Control_c, 0, 64, 117
2,72673, Control_c, 0, 64, 118
2,72688, Control_c, 0, 64, 118
2,73032, Note_on_c, 0, 73, 67
2,73033, Note_on_c, 0, 64, 65
2,73037, Note_on_c, 0, 55, 59
2,73064, Note_on_c, 0, 64, 0
2,73068, Note_on_c, 0, 55, 0
2,73108, Control_c, 0, 64, 118
2,73110, Note_on_c, 0, 73, 0
2,73122, Control_c, 0, 64, 115
2,73138, Control_c, 0, 64, 109
2,73149, Note_on_c, 0, 74, 68
2,73153, Control_c, 0, 64, 101
2,73156, Note_on_c, 0, 66, 66
2,73160, Note_on_c, 0, 69, 31
2,73163, Note_on_c, 0, 54, 58
2,73167, Control_c, 0, 64, 90
2,73183, Control_c, 0, 64, 77
2,73198, Control_c, 0, 64, 55
2,73214, Control_c, 0, 64, 0
2,73319, Control_c, 0, 64, 23
2,73335, Control_c, 0, 64, 58
2,73350, Control_c, 0, 64, 66
2,73365, Control_c, 0, 64, 71
2,73380, Control_c, 0, 64, 79
2,73395, Control_c, 0, 64, 88
2,73410, Control_c, 0, 64, 93
2,73410, Note_on_c, 0, 74, 0
2,73426, Control_c, 0, 64, 96
2,73441, Control_c, 0, 64, 99
2,73457, Control_c, 0, 64, 101
2,73463, Note_on_c, 0, 66, 0
2,73465, Note_on_c, 0, 69, 0
2,73472, Control_c, 0, 64, 103
2,73486, Control_c, 0, 64, 106
2,73502, Control_c, 0, 64, 108
2,73502, Note_on_c, 0, 54, 0
2,73517, Control_c, 0, 64, 109
2,73532, Control_c, 0, 64, 110
2,73548, Control_c, 0, 64, 110
2,73863, Note_on_c, 0, 76, 71
2,73866, Note_on_c, 0, 67, 63
2,73867, Note_on_c, 0, 73, 72
2,73880, Note_on_c, 0, 52, 52
2,73884, Note_on_c, 0, 67, 0
2,73906, Note_on_c, 0, 52, 0
2,73910, Note_on_c, 0, 73, 0
2,73911, Note_on_c, 0, 76, 0
2,73921, Control_c, 0, 64, 109
2,73936, Control_c, 0, 64, 104
2,73951, Control_c, 0, 64, 97
2,73956, Note_on_c, 0, 74, 79
2,73960, Note_on_c, 0, 78, 87
2,73962, Note_on_c, 0, 50, 64
2,73966, Control_c, 0, 64, 87
2,73970, Note_on_c, 0, 69, 72
2,73982, Control_c, 0, 64, 75
2,73997, Control_c, 0, 64, 51
2,74011, Control_c, 0, 64, 0
2,74103, Control_c, 0, 64, 23
2,74118, Control_c, 0, 64, 56
2,74132, Control_c, 0, 64, 65
2,74148, Control_c, 0, 64, 70
2,74163, Control_c, 0, 64, 76
2,74179, Control_c, 0, 64, 85
2,74194, Control_c, 0, 64, 90
2,74208, Control_c, 0, 64, 93
2,74218, Note_on_c, 0, 78, 0
2,74224, Control_c, 0, 64, 96
2,74239, Control_c, 0, 64, 98
2,74255, Control_c, 0, 64, 100
2,74266, Note_on_c, 0, 74, 0
2,74270, Control_c, 0, 64, 101
2,74270, Note_on_c, 0, 69, 0
2,74285, Control_c, 0, 64, 102
2,74300, Control_c, 0, 64, 102
2,74305, Note_on_c, 0, 50, 0
2,74315, Control_c, 0, 64, 103
2,74330, Control_c, 0, 64, 104
2,74377, Control_c, 0, 64, 104
2,74699, Note_on_c, 0, 48, 54
2,74701, Note_on_c, 0, 66, 66
2,74702, Note_on_c, 0, 57, 55
2,74727, Note_on_c, 0, 62, 40
2,74728, Note_on_c, 0, 57, 0
2,74735, Note_on_c, 0, 48, 0
2,74750, Control_c, 0, 64, 104
2,74759, Note_on_c, 0, 62, 0
2,74764, Control_c, 0, 64, 103
2,74767, Note_on_c, 0, 66, 0
2,74780, Control_c, 0, 64, 101
2,74795, Control_c, 0, 64, 97
2,74810, Control_c, 0, 64, 91
2,74826, Control_c, 0, 64, 82
2,74840, Note_on_c, 0, 47, 59
2,74841, Control_c, 0, 64, 71
2,74842, Note_on_c, 0, 67, 69
2,74845, Note_on_c, 0, 62, 65
2,74852, Note_on_c, 0, 59, 58
2,74856, Control_c, 0, 64, 36
2,74871, Control_c, 0, 64, 0
2,74992, Control_c, 0, 64, 53
2,75007, Control_c, 0, 64, 64
2,75023, Control_c, 0, 64, 68
2,75038, Control_c, 0, 64, 74
2,75052, Control_c, 0, 64, 81
2,75068, Control_c, 0, 64, 87
2,75083, Control_c, 0, 64, 91
2,75099, Control_c, 0, 64, 93
2,75113, Control_c, 0, 64, 95
2,75128, Control_c, 0, 64, 96
2,75138, Note_on_c, 0, 59, 0
2,75144, Control_c, 0, 64, 96
2,75145, Note_on_c, 0, 47, 0
2,75161, Note_on_c, 0, 67, 0
2,75165, Note_on_c, 0, 62, 0
2,75190, Control_c, 0, 64, 97
2,75556, Note_on_c, 0, 60, 67
2,75556, Note_on_c, 0, 69, 68
2,75559, Note_on_c, 0, 66, 68
2,75570, Note_on_c, 0, 45, 59
2,75586, Note_on_c, 0, 60, 0
2,75603, Note_on_c, 0, 45, 0
2,75608, Note_on_c, 0, 66, 0
2,75621, Note_on_c, 0, 69, 0
2,75664, Note_on_c, 0, 71, 79
2,75666, Note_on_c, 0, 62, 81
2,75670, Control_c, 0, 64, 96
2,75670, Note_on_c, 0, 67, 78
2,75674, Note_on_c, 0, 43, 62
2,75685, Control_c, 0, 64, 92
2,75701, Control_c, 0, 64, 85
2,75715, Control_c, 0, 64, 74
2,75730, Control_c, 0, 64, 60
2,75746, Control_c, 0, 64, 0
2,75883, Control_c, 0, 64, 56
2,75898, Control_c, 0, 64, 65
2,75913, Control_c, 0, 64, 70
2,75928, Control_c, 0, 64, 77
2,75944, Control_c, 0, 64, 84
2,75958, Control_c, 0, 64, 87
2,75982, Control_c, 0, 64, 90
2,75997, Control_c, 0, 64, 91
2,76012, Control_c, 0, 64, 93
2,76026, Note_on_c, 0, 71, 0
2,76028, Control_c, 0, 64, 95
2,76042, Control_c, 0, 64, 96
2,76058, Control_c, 0, 64, 97
2,76063, Note_on_c, 0, 67, 0
2,76068, Note_on_c, 0, 62, 0
2,76073, Control_c, 0, 64, 99
2,76088, Control_c, 0, 64, 100
2,76101, Note_on_c, 0, 43, 0
2,76104, Control_c, 0, 64, 101
2,76119, Control_c, 0, 64, 101
2,76165, Control_c, 0, 64, 102
2,76422, Note_on_c, 0, 42, 65
2,76423, Note_on_c, 0, 62, 76
2,76429, Note_on_c, 0, 67, 73
2,76430, Note_on_c, 0, 71, 68
2,76452, Control_c, 0, 64, 102
2,76460, Note_on_c, 0, 62, 0
2,76485, Note_on_c, 0, 42, 0
2,76514, Note_on_c, 0, 67, 0
2,76548, Note_on_c, 0, 71, 0
2,76609, Note_on_c, 0, 40, 66
2,76611, Note_on_c, 0, 69, 75
2,76611, Note_on_c, 0, 73, 77
2,76618, Note_on_c, 0, 64, 78
2,76620, Control_c, 0, 64, 100
2,76635, Control_c, 0, 64, 91
2,76650, Control_c, 0, 64, 78
2,76665, Control_c, 0, 64, 62
2,76680, Control_c, 0, 64, 0
2,76780, Control_c, 0, 64, 54
2,76795, Control_c, 0, 64, 65
2,76809, Control_c, 0, 64, 70
2,76825, Control_c, 0, 64, 78
2,76840, Control_c, 0, 64, 87
2,76856, Control_c, 0, 64, 92
2,76871, Control_c, 0, 64, 97
2,76886, Control_c, 0, 64, 100
2,76902, Control_c, 0, 64, 103
2,76917, Control_c, 0, 64, 106
2,76932, Control_c, 0, 64, 110
2,76948, Control_c, 0, 64, 112
2,76963, Control_c, 0, 64, 114
2,76963, Note_on_c, 0, 64, 0
2,76978, Control_c, 0, 64, 115
2,76982, Note_on_c, 0, 73, 0
2,76993, Control_c, 0, 64, 116
2,77018, Note_on_c, 0, 40, 0
2,77020, Note_on_c, 0, 69, 0
2,77348, Note_on_c, 0, 74, 71
2,77354, Note_on_c, 0, 66, 80
2,77359, Note_on_c, 0, 69, 74
2,77361, Note_on_c, 0, 38, 57
2,77421, Note_on_c, 0, 66, 0
2,77424, Note_on_c, 0, 74, 0
2,77437, Note_on_c, 0, 69, 0
2,77467, Note_on_c, 0, 38, 0
2,77562, Control_c, 0, 64, 116
2,77746, Control_c, 0, 64, 117
2,77806, Control_c, 0, 64, 116
2,77821, Note_on_c, 0, 66, 78
2,77822, Control_c, 0, 64, 115
2,77826, Note_on_c, 0, 57, 70
2,77829, Note_on_c, 0, 62, 76
2,77832, Note_on_c, 0, 45, 63
2,77837, Control_c, 0, 64, 109
2,77852, Control_c, 0, 64, 101
2,77868, Control_c, 0, 64, 89
2,77882, Control_c, 0, 64, 76
2,77898, Control_c, 0, 64, 61
2,77913, Control_c, 0, 64, 0
2,78184, Control_c, 0, 64, 18
2,78199, Control_c, 0, 64, 26
2,78214, Control_c, 0, 64, 35
2,78230, Control_c, 0, 64, 44
2,78245, Control_c, 0, 64, 51
2,78261, Control_c, 0, 64, 55
2,78275, Control_c, 0, 64, 58
2,78297, Control_c, 0, 64, 60
2,78313, Control_c, 0, 64, 64
2,78328, Control_c, 0, 64, 66
2,78344, Control_c, 0, 64, 69
2,78358, Control_c, 0, 64, 73
2,78373, Control_c, 0, 64, 76
2,78389, Control_c, 0, 64, 78
2,78404, Control_c, 0, 64, 79
2,78419, Control_c, 0, 64, 81
2,78434, Control_c, 0, 64, 82
2,78449, Control_c, 0, 64, 83
2,78465, Control_c, 0, 64, 84
2,78480, Control_c, 0, 64, 85
2,78495, Control_c, 0, 64, 86
2,78511, Control_c, 0, 64, 86
2,78526, Control_c, 0, 64, 87
2,78542, Control_c, 0, 64, 87
2,78557, Control_c, 0, 64, 88
2,78572, Control_c, 0, 64, 88
2,78588, Control_c, 0, 64, 89
2,78617, Control_c, 0, 64, 89
2,78664, Control_c, 0, 64, 90
2,78755, Note_on_c, 0, 66, 0
2,78764, Note_on_c, 0, 57, 0
2,78811, Note_on_c, 0, 62, 0
2,79041, Control_c, 0, 64, 89
2,79079, Control_c, 0, 64, 89
2,79110, Control_c, 0, 64, 88
2,79125, Control_c, 0, 64, 87
2,79139, Control_c, 0, 64, 86
2,79146, Note_on_c, 0, 61, 46
2,79154, Note_on_c, 0, 66, 51
2,79155, Control_c, 0, 64, 85
2,79162, Note_on_c, 0, 55, 40
2,79170, Control_c, 0, 64, 84
2,79185, Control_c, 0, 64, 82
2,79201, Control_c, 0, 64, 81
2,79215, Control_c, 0, 64, 78
2,79231, Control_c, 0, 64, 75
2,79246, Control_c, 0, 64, 71
2,79260, Control_c, 0, 64, 65
2,79276, Control_c, 0, 64, 52
2,79291, Control_c, 0, 64, 0
2,79320, Note_on_c, 0, 66, 0
2,79346, Note_on_c, 0, 64, 56
2,79404, Note_on_c, 0, 64, 0
2,79439, Note_on_c, 0, 66, 62
2,79478, Note_on_c, 0, 66, 0
2,79481, Note_on_c, 0, 64, 60
2,79544, Note_on_c, 0, 64, 0
2,79549, Note_on_c, 0, 66, 72
2,79607, Note_on_c, 0, 64, 58
2,79623, Note_on_c, 0, 66, 0
2,79664, Note_on_c, 0, 66, 54
2,79682, Note_on_c, 0, 64, 0
2,79694, Note_on_c, 0, 64, 51
2,79734, Note_on_c, 0, 66, 0
2,80501, Control_c, 0, 64, 20
2,80517, Control_c, 0, 64, 36
2,80531, Control_c, 0, 64, 45
2,80546, Control_c, 0, 64, 54
2,80562, Control_c, 0, 64, 58
2,80584, Control_c, 0, 64, 60
2,80600, Control_c, 0, 64, 62
2,80615, Control_c, 0, 64, 64
2,80631, Control_c, 0, 64, 65
2,80646, Control_c, 0, 64, 66
2,80660, Control_c, 0, 64, 68
2,80676, Control_c, 0, 64, 69
2,80691, Control_c, 0, 64, 71
2,80706, Control_c, 0, 64, 72
2,80722, Control_c, 0, 64, 74
2,80736, Control_c, 0, 64, 76
2,80752, Control_c, 0, 64, 77
2,80767, Control_c, 0, 64, 77
2,80782, Control_c, 0, 64, 78
2,80798, Control_c, 0, 64, 78
2,80812, Control_c, 0, 64, 79
2,80828, Control_c, 0, 64, 80
2,80843, Control_c, 0, 64, 81
2,80858, Control_c, 0, 64, 82
2,80873, Control_c, 0, 64, 83
2,80888, Control_c, 0, 64, 84
2,80903, Control_c, 0, 64, 86
2,80919, Control_c, 0, 64, 86
2,80934, Control_c, 0, 64, 87
2,80942, Note_on_c, 0, 62, 67
2,80949, Control_c, 0, 64, 87
2,80955, Note_on_c, 0, 64, 0
2,80973, Note_on_c, 0, 55, 0
2,80980, Control_c, 0, 64, 88
2,80992, Note_on_c, 0, 61, 0
2,81003, Note_on_c, 0, 62, 0
2,81072, Control_c, 0, 64, 88
2,81095, Note_on_c, 0, 45, 0
2,81746, Note_on_c, 0, 54, 39
2,81804, Note_on_c, 0, 57, 51
2,81820, Note_on_c, 0, 38, 31
2,81824, Control_c, 0, 64, 87
2,81840, Control_c, 0, 64, 85
2,81855, Control_c, 0, 64, 80
2,81871, Control_c, 0, 64, 74
2,81872, Note_on_c, 0, 62, 53
2,81886, Control_c, 0, 64, 66
2,81900, Control_c, 0, 64, 48
2,81916, Control_c, 0, 64, 0
2,86918, Note_on_c, 0, 54, 0
2,86925, Note_on_c, 0, 62, 0
2,86928, Note_on_c, 0, 57, 0
2,86930, Note_on_c, 0, 38, 0
2,86931, End_track
0, 0, End_of_file
