0, 0, Header, 1, 2, 384
1, 0, Start_track
1, 0, Tempo, 500000
1, 0, Time_signature, 4, 2, 24, 8
1, 1, End_track
2, 0, Start_track
2, 0, Title_t," ""Tario04-08.mid"""
2, 0, Program_c, 0, 0
2, 523, Note_on_c, 0, 50, 47
2, 573, Note_on_c, 0, 50, 0
2, 622, Note_on_c, 0, 74, 46
2, 734, Note_on_c, 0, 76, 50
2, 762, Note_on_c, 0, 74, 0
2, 801, Note_on_c, 0, 76, 0
2, 804, Note_on_c, 0, 78, 63
2, 886, Note_on_c, 0, 78, 0
2, 913, Note_on_c, 0, 69, 62
2, 932, Note_on_c, 0, 62, 44
2, 960, Note_on_c, 0, 62, 0
2, 1006, Note_on_c, 0, 78, 57
2, 1026, Note_on_c, 0, 69, 0
2, 1095, Note_on_c, 0, 76, 55
2, 1149, Note_on_c, 0, 78, 0
2, 1178, Note_on_c, 0, 74, 57
2, 1200, Note_on_c, 0, 76, 0
2, 1273, Note_on_c, 0, 74, 0
2, 1289, Note_on_c, 0, 81, 67
2, 1308, Note_on_c, 0, 54, 46
2, 1369, Note_on_c, 0, 54, 0
2, 1389, Note_on_c, 0, 74, 58
2, 1398, Note_on_c, 0, 81, 0
2, 1479, Note_on_c, 0, 76, 56
2, 1489, Note_on_c, 0, 74, 0
2, 1559, Note_on_c, 0, 78, 66
2, 1561, Note_on_c, 0, 76, 0
2, 1639, Note_on_c, 0, 78, 0
2, 1667, Note_on_c, 0, 62, 51
2, 1668, Note_on_c, 0, 69, 60
2, 1706, Note_on_c, 0, 62, 0
2, 1761, Note_on_c, 0, 69, 0
2, 1775, Note_on_c, 0, 78, 60
2, 1854, Note_on_c, 0, 76, 54
2, 1877, Note_on_c, 0, 78, 0
2, 1936, Note_on_c, 0, 76, 0
2, 1942, Note_on_c, 0, 74, 56
2, 2014, Note_on_c, 0, 74, 0
2, 2038, Note_on_c, 0, 79, 61
2, 2043, Note_on_c, 0, 52, 45
2, 2092, Note_on_c, 0, 52, 0
2, 2124, Note_on_c, 0, 79, 0
2, 2131, Note_on_c, 0, 76, 57
2, 2211, Note_on_c, 0, 78, 65
2, 2253, Note_on_c, 0, 76, 0
2, 2312, Note_on_c, 0, 79, 60
2, 2361, Note_on_c, 0, 78, 0
2, 2388, Note_on_c, 0, 79, 0
2, 2414, Note_on_c, 0, 71, 60
2, 2416, Note_on_c, 0, 62, 44
2, 2452, Note_on_c, 0, 62, 0
2, 2491, Note_on_c, 0, 71, 0
2, 2510, Note_on_c, 0, 74, 56
2, 2586, Note_on_c, 0, 74, 0
2, 2596, Note_on_c, 0, 73, 62
2, 2667, Note_on_c, 0, 73, 0
2, 2698, Note_on_c, 0, 71, 55
2, 2773, Note_on_c, 0, 71, 0
2, 2792, Note_on_c, 0, 57, 44
2, 2792, Note_on_c, 0, 73, 61
2, 2836, Note_on_c, 0, 57, 0
2, 2875, Note_on_c, 0, 76, 60
2, 2923, Note_on_c, 0, 73, 0
2, 2967, Note_on_c, 0, 78, 63
2, 3019, Note_on_c, 0, 76, 0
2, 3058, Note_on_c, 0, 79, 67
2, 3079, Note_on_c, 0, 78, 0
2, 3130, Note_on_c, 0, 79, 0
2, 3157, Note_on_c, 0, 61, 55
2, 3158, Note_on_c, 0, 69, 62
2, 3203, Note_on_c, 0, 61, 0
2, 3245, Note_on_c, 0, 69, 0
2, 3259, Note_on_c, 0, 79, 58
2, 3351, Note_on_c, 0, 78, 61
2, 3351, Note_on_c, 0, 79, 0
2, 3428, Note_on_c, 0, 78, 0
2, 3443, Note_on_c, 0, 76, 57
2, 3522, Note_on_c, 0, 76, 0
2, 3538, Note_on_c, 0, 78, 61
2, 3542, Note_on_c, 0, 50, 40
2, 3582, Note_on_c, 0, 50, 0
2, 3604, Note_on_c, 0, 78, 0
2, 3623, Note_on_c, 0, 74, 51
2, 3722, Note_on_c, 0, 76, 55
2, 3741, Note_on_c, 0, 74, 0
2, 3801, Note_on_c, 0, 78, 67
2, 3803, Note_on_c, 0, 76, 0
2, 3865, Note_on_c, 0, 78, 0
2, 3899, Note_on_c, 0, 62, 53
2, 3901, Note_on_c, 0, 69, 67
2, 3934, Note_on_c, 0, 62, 0
2, 3975, Note_on_c, 0, 69, 0
2, 3990, Note_on_c, 0, 73, 54
2, 4089, Note_on_c, 0, 71, 56
2, 4109, Note_on_c, 0, 73, 0
2, 4162, Note_on_c, 0, 69, 70
2, 4163, Note_on_c, 0, 71, 0
2, 4226, Note_on_c, 0, 69, 0
2, 4265, Note_on_c, 0, 71, 65
2, 4268, Note_on_c, 0, 50, 49
2, 4305, Note_on_c, 0, 50, 0
2, 4331, Note_on_c, 0, 71, 0
2, 4341, Note_on_c, 0, 74, 65
2, 4439, Note_on_c, 0, 76, 51
2, 4486, Note_on_c, 0, 74, 0
2, 4500, Note_on_c, 0, 78, 78
2, 4538, Note_on_c, 0, 76, 0
2, 4594, Note_on_c, 0, 78, 0
2, 4606, Note_on_c, 0, 71, 71
2, 4613, Note_on_c, 0, 62, 55
2, 4638, Note_on_c, 0, 62, 0
2, 4678, Note_on_c, 0, 71, 0
2, 4678, Note_on_c, 0, 81, 73
2, 4780, Note_on_c, 0, 80, 74
2, 4823, Note_on_c, 0, 81, 0
2, 4879, Note_on_c, 0, 78, 76
2, 4888, Note_on_c, 0, 80, 0
2, 4981, Note_on_c, 0, 80, 73
2, 5002, Note_on_c, 0, 50, 31
2, 5002, Note_on_c, 0, 78, 0
2, 5038, Note_on_c, 0, 50, 0
2, 5071, Note_on_c, 0, 76, 62
2, 5072, Note_on_c, 0, 80, 0
2, 5161, Note_on_c, 0, 78, 65
2, 5202, Note_on_c, 0, 76, 0
2, 5244, Note_on_c, 0, 80, 69
2, 5289, Note_on_c, 0, 78, 0
2, 5306, Note_on_c, 0, 80, 0
2, 5342, Note_on_c, 0, 56, 48
2, 5343, Note_on_c, 0, 71, 62
2, 5387, Note_on_c, 0, 56, 0
2, 5406, Note_on_c, 0, 71, 0
2, 5413, Note_on_c, 0, 74, 64
2, 5517, Note_on_c, 0, 73, 61
2, 5533, Note_on_c, 0, 74, 0
2, 5598, Note_on_c, 0, 71, 63
2, 5629, Note_on_c, 0, 73, 0
2, 5676, Note_on_c, 0, 71, 0
2, 5695, Note_on_c, 0, 49, 49
2, 5700, Note_on_c, 0, 69, 60
2, 5739, Note_on_c, 0, 49, 0
2, 5782, Note_on_c, 0, 73, 55
2, 5791, Note_on_c, 0, 69, 0
2, 5879, Note_on_c, 0, 74, 59
2, 5936, Note_on_c, 0, 73, 0
2, 5959, Note_on_c, 0, 74, 0
2, 5969, Note_on_c, 0, 76, 63
2, 6044, Note_on_c, 0, 76, 0
2, 6078, Note_on_c, 0, 57, 42
2, 6088, Note_on_c, 0, 66, 67
2, 6107, Note_on_c, 0, 57, 0
2, 6146, Note_on_c, 0, 66, 0
2, 6167, Note_on_c, 0, 76, 58
2, 6238, Note_on_c, 0, 76, 0
2, 6246, Note_on_c, 0, 74, 55
2, 6319, Note_on_c, 0, 74, 0
2, 6347, Note_on_c, 0, 73, 56
2, 6401, Note_on_c, 0, 73, 0
2, 6415, Note_on_c, 0, 47, 47
2, 6433, Note_on_c, 0, 74, 49
2, 6454, Note_on_c, 0, 47, 0
2, 6491, Note_on_c, 0, 74, 0
2, 6509, Note_on_c, 0, 71, 53
2, 6598, Note_on_c, 0, 73, 58
2, 6601, Note_on_c, 0, 71, 0
2, 6680, Note_on_c, 0, 74, 57
2, 6700, Note_on_c, 0, 73, 0
2, 6729, Note_on_c, 0, 74, 0
2, 6776, Note_on_c, 0, 57, 47
2, 6776, Note_on_c, 0, 66, 58
2, 6805, Note_on_c, 0, 57, 0
2, 6825, Note_on_c, 0, 66, 0
2, 6854, Note_on_c, 0, 69, 58
2, 6928, Note_on_c, 0, 69, 0
2, 6946, Note_on_c, 0, 68, 60
2, 7010, Note_on_c, 0, 68, 0
2, 7035, Note_on_c, 0, 66, 57
2, 7112, Note_on_c, 0, 66, 0
2, 7135, Note_on_c, 0, 68, 54
2, 7165, Note_on_c, 0, 52, 49
2, 7203, Note_on_c, 0, 52, 0
2, 7221, Note_on_c, 0, 71, 57
2, 7235, Note_on_c, 0, 68, 0
2, 7302, Note_on_c, 0, 73, 61
2, 7335, Note_on_c, 0, 71, 0
2, 7390, Note_on_c, 0, 73, 0
2, 7398, Note_on_c, 0, 74, 57
2, 7450, Note_on_c, 0, 74, 0
2, 7480, Note_on_c, 0, 64, 54
2, 7517, Note_on_c, 0, 56, 44
2, 7555, Note_on_c, 0, 56, 0
2, 7563, Note_on_c, 0, 64, 0
2, 7576, Note_on_c, 0, 74, 55
2, 7655, Note_on_c, 0, 73, 52
2, 7662, Note_on_c, 0, 74, 0
2, 7730, Note_on_c, 0, 73, 0
2, 7753, Note_on_c, 0, 71, 55
2, 7845, Note_on_c, 0, 71, 0
2, 7867, Note_on_c, 0, 45, 40
2, 7869, Note_on_c, 0, 73, 55
2, 7901, Note_on_c, 0, 45, 0
2, 7918, Note_on_c, 0, 73, 0
2, 7945, Note_on_c, 0, 69, 52
2, 8046, Note_on_c, 0, 71, 52
2, 8050, Note_on_c, 0, 69, 0
2, 8120, Note_on_c, 0, 73, 60
2, 8155, Note_on_c, 0, 71, 0
2, 8175, Note_on_c, 0, 73, 0
2, 8221, Note_on_c, 0, 64, 60
2, 8223, Note_on_c, 0, 57, 51
2, 8252, Note_on_c, 0, 57, 0
2, 8279, Note_on_c, 0, 64, 0
2, 8301, Note_on_c, 0, 67, 59
2, 8362, Note_on_c, 0, 67, 0
2, 8380, Note_on_c, 0, 66, 65
2, 8446, Note_on_c, 0, 66, 0
2, 8479, Note_on_c, 0, 64, 56
2, 8561, Note_on_c, 0, 64, 0
2, 8569, Note_on_c, 0, 66, 55
2, 8570, Note_on_c, 0, 45, 41
2, 8611, Note_on_c, 0, 45, 0
2, 8643, Note_on_c, 0, 69, 62
2, 8683, Note_on_c, 0, 66, 0
2, 8748, Note_on_c, 0, 71, 55
2, 8775, Note_on_c, 0, 69, 0
2, 8830, Note_on_c, 0, 71, 0
2, 8831, Note_on_c, 0, 73, 64
2, 8887, Note_on_c, 0, 73, 0
2, 8926, Note_on_c, 0, 66, 64
2, 8933, Note_on_c, 0, 57, 46
2, 8959, Note_on_c, 0, 57, 0
2, 8981, Note_on_c, 0, 66, 0
2, 9023, Note_on_c, 0, 76, 63
2, 9100, Note_on_c, 0, 76, 0
2, 9103, Note_on_c, 0, 75, 62
2, 9182, Note_on_c, 0, 75, 0
2, 9194, Note_on_c, 0, 73, 63
2, 9271, Note_on_c, 0, 73, 0
2, 9287, Note_on_c, 0, 75, 55
2, 9291, Note_on_c, 0, 45, 45
2, 9329, Note_on_c, 0, 45, 0
2, 9353, Note_on_c, 0, 75, 0
2, 9382, Note_on_c, 0, 71, 51
2, 9474, Note_on_c, 0, 71, 0
2, 9475, Note_on_c, 0, 73, 52
2, 9545, Note_on_c, 0, 75, 59
2, 9603, Note_on_c, 0, 75, 0
2, 9609, Note_on_c, 0, 73, 0
2, 9631, Note_on_c, 0, 66, 63
2, 9655, Note_on_c, 0, 51, 50
2, 9663, Note_on_c, 0, 66, 0
2, 9688, Note_on_c, 0, 51, 0
2, 9719, Note_on_c, 0, 69, 65
2, 9800, Note_on_c, 0, 67, 67
2, 9844, Note_on_c, 0, 69, 0
2, 9884, Note_on_c, 0, 66, 71
2, 9886, Note_on_c, 0, 67, 0
2, 9980, Note_on_c, 0, 66, 0
2, 9987, Note_on_c, 0, 64, 60
2, 9992, Note_on_c, 0, 43, 43
2, 10037, Note_on_c, 0, 43, 0
2, 10062, Note_on_c, 0, 67, 59
2, 10064, Note_on_c, 0, 64, 0
2, 10153, Note_on_c, 0, 69, 62
2, 10170, Note_on_c, 0, 67, 0
2, 10225, Note_on_c, 0, 69, 0
2, 10240, Note_on_c, 0, 71, 56
2, 10284, Note_on_c, 0, 71, 0
2, 10355, Note_on_c, 0, 52, 42
2, 10381, Note_on_c, 0, 52, 0
2, 10441, Note_on_c, 0, 74, 46
2, 10511, Note_on_c, 0, 73, 58
2, 10591, Note_on_c, 0, 74, 0
2, 10612, Note_on_c, 0, 71, 54
2, 10685, Note_on_c, 0, 73, 0
2, 10703, Note_on_c, 0, 42, 41
2, 10703, Note_on_c, 0, 71, 0
2, 10714, Note_on_c, 0, 70, 59
2, 10756, Note_on_c, 0, 42, 0
2, 10758, Note_on_c, 0, 70, 0
2, 10796, Note_on_c, 0, 64, 53
2, 10869, Note_on_c, 0, 64, 0
2, 10881, Note_on_c, 0, 66, 60
2, 10969, Note_on_c, 0, 67, 58
2, 10986, Note_on_c, 0, 66, 0
2, 11028, Note_on_c, 0, 67, 0
2, 11071, Note_on_c, 0, 61, 56
2, 11080, Note_on_c, 0, 54, 45
2, 11111, Note_on_c, 0, 54, 0
2, 11144, Note_on_c, 0, 61, 0
2, 11150, Note_on_c, 0, 67, 53
2, 11238, Note_on_c, 0, 66, 57
2, 11238, Note_on_c, 0, 67, 0
2, 11317, Note_on_c, 0, 66, 0
2, 11325, Note_on_c, 0, 64, 50
2, 11380, Note_on_c, 0, 64, 0
2, 11423, Note_on_c, 0, 62, 61
2, 11435, Note_on_c, 0, 42, 44
2, 11470, Note_on_c, 0, 62, 0
2, 11478, Note_on_c, 0, 42, 0
2, 11489, Note_on_c, 0, 71, 58
2, 11580, Note_on_c, 0, 73, 57
2, 11605, Note_on_c, 0, 71, 0
2, 11658, Note_on_c, 0, 74, 57
2, 11698, Note_on_c, 0, 73, 0
2, 11722, Note_on_c, 0, 74, 0
2, 11763, Note_on_c, 0, 54, 52
2, 11765, Note_on_c, 0, 66, 64
2, 11807, Note_on_c, 0, 54, 0
2, 11839, Note_on_c, 0, 66, 0
2, 11858, Note_on_c, 0, 69, 62
2, 11938, Note_on_c, 0, 68, 64
2, 11948, Note_on_c, 0, 69, 0
2, 12028, Note_on_c, 0, 66, 65
2, 12032, Note_on_c, 0, 68, 0
2, 12094, Note_on_c, 0, 66, 0
2, 12124, Note_on_c, 0, 65, 62
2, 12128, Note_on_c, 0, 42, 42
2, 12183, Note_on_c, 0, 42, 0
2, 12210, Note_on_c, 0, 68, 61
2, 12213, Note_on_c, 0, 65, 0
2, 12287, Note_on_c, 0, 69, 60
2, 12348, Note_on_c, 0, 68, 0
2, 12375, Note_on_c, 0, 71, 67
2, 12376, Note_on_c, 0, 69, 0
2, 12449, Note_on_c, 0, 71, 0
2, 12478, Note_on_c, 0, 65, 72
2, 12492, Note_on_c, 0, 54, 44
2, 12527, Note_on_c, 0, 54, 0
2, 12536, Note_on_c, 0, 65, 0
2, 12563, Note_on_c, 0, 74, 60
2, 12624, Note_on_c, 0, 74, 0
2, 12636, Note_on_c, 0, 73, 68
2, 12690, Note_on_c, 0, 73, 0
2, 12726, Note_on_c, 0, 71, 69
2, 12783, Note_on_c, 0, 71, 0
2, 12814, Note_on_c, 0, 42, 54
2, 12819, Note_on_c, 0, 80, 70
2, 12875, Note_on_c, 0, 42, 0
2, 12896, Note_on_c, 0, 77, 72
2, 12917, Note_on_c, 0, 80, 0
2, 12989, Note_on_c, 0, 78, 76
2, 13032, Note_on_c, 0, 77, 0
2, 13064, Note_on_c, 0, 80, 72
2, 13081, Note_on_c, 0, 78, 0
2, 13150, Note_on_c, 0, 80, 0
2, 13162, Note_on_c, 0, 73, 67
2, 13169, Note_on_c, 0, 54, 51
2, 13202, Note_on_c, 0, 54, 0
2, 13235, Note_on_c, 0, 73, 0
2, 13255, Note_on_c, 0, 83, 65
2, 13333, Note_on_c, 0, 81, 67
2, 13342, Note_on_c, 0, 83, 0
2, 13422, Note_on_c, 0, 81, 0
2, 13431, Note_on_c, 0, 80, 63
2, 13521, Note_on_c, 0, 80, 0
2, 13531, Note_on_c, 0, 81, 61
2, 13542, Note_on_c, 0, 42, 38
2, 13599, Note_on_c, 0, 42, 0
2, 13603, Note_on_c, 0, 81, 0
2, 13612, Note_on_c, 0, 78, 61
2, 13709, Note_on_c, 0, 80, 57
2, 13747, Note_on_c, 0, 78, 0
2, 13789, Note_on_c, 0, 81, 60
2, 13807, Note_on_c, 0, 80, 0
2, 13845, Note_on_c, 0, 81, 0
2, 13893, Note_on_c, 0, 73, 53
2, 13905, Note_on_c, 0, 54, 35
2, 13946, Note_on_c, 0, 73, 0
2, 13955, Note_on_c, 0, 54, 0
2, 13997, Note_on_c, 0, 76, 48
2, 14056, Note_on_c, 0, 76, 0
2, 14081, Note_on_c, 0, 75, 52
2, 14134, Note_on_c, 0, 75, 0
2, 14173, Note_on_c, 0, 73, 51
2, 14260, Note_on_c, 0, 73, 0
2, 14287, Note_on_c, 0, 75, 46
2, 14289, Note_on_c, 0, 47, 16
2, 14359, Note_on_c, 0, 78, 57
2, 14373, Note_on_c, 0, 47, 0
2, 14401, Note_on_c, 0, 75, 0
2, 14446, Note_on_c, 0, 79, 55
2, 14449, Note_on_c, 0, 78, 0
2, 14516, Note_on_c, 0, 79, 0
2, 14534, Note_on_c, 0, 81, 60
2, 14581, Note_on_c, 0, 81, 0
2, 14629, Note_on_c, 0, 51, 47
2, 14638, Note_on_c, 0, 71, 51
2, 14672, Note_on_c, 0, 51, 0
2, 14699, Note_on_c, 0, 71, 0
2, 14718, Note_on_c, 0, 81, 51
2, 14809, Note_on_c, 0, 81, 0
2, 14827, Note_on_c, 0, 79, 51
2, 14903, Note_on_c, 0, 79, 0
2, 14916, Note_on_c, 0, 78, 62
2, 14996, Note_on_c, 0, 78, 0
2, 15023, Note_on_c, 0, 79, 55
2, 15029, Note_on_c, 0, 40, 33
2, 15064, Note_on_c, 0, 40, 0
2, 15083, Note_on_c, 0, 79, 0
2, 15104, Note_on_c, 0, 76, 53
2, 15193, Note_on_c, 0, 78, 60
2, 15198, Note_on_c, 0, 76, 0
2, 15275, Note_on_c, 0, 79, 63
2, 15286, Note_on_c, 0, 78, 0
2, 15336, Note_on_c, 0, 79, 0
2, 15385, Note_on_c, 0, 71, 58
2, 15394, Note_on_c, 0, 52, 40
2, 15422, Note_on_c, 0, 52, 0
2, 15436, Note_on_c, 0, 71, 0
2, 15476, Note_on_c, 0, 74, 51
2, 15558, Note_on_c, 0, 72, 61
2, 15574, Note_on_c, 0, 74, 0
2, 15620, Note_on_c, 0, 72, 0
2, 15637, Note_on_c, 0, 71, 61
2, 15684, Note_on_c, 0, 71, 0
2, 15742, Note_on_c, 0, 40, 43
2, 15747, Note_on_c, 0, 72, 56
2, 15802, Note_on_c, 0, 72, 0
2, 15809, Note_on_c, 0, 40, 0
2, 15821, Note_on_c, 0, 75, 57
2, 15892, Note_on_c, 0, 76, 64
2, 15902, Note_on_c, 0, 75, 0
2, 15990, Note_on_c, 0, 78, 70
2, 16039, Note_on_c, 0, 76, 0
2, 16061, Note_on_c, 0, 78, 0
2, 16090, Note_on_c, 0, 69, 73
2, 16091, Note_on_c, 0, 51, 51
2, 16163, Note_on_c, 0, 69, 0
2, 16179, Note_on_c, 0, 72, 62
2, 16185, Note_on_c, 0, 51, 0
2, 16268, Note_on_c, 0, 71, 67
2, 16323, Note_on_c, 0, 72, 0
2, 16346, Note_on_c, 0, 69, 73
2, 16354, Note_on_c, 0, 71, 0
2, 16416, Note_on_c, 0, 69, 0
2, 16446, Note_on_c, 0, 40, 53
2, 16447, Note_on_c, 0, 67, 70
2, 16510, Note_on_c, 0, 40, 0
2, 16512, Note_on_c, 0, 67, 0
2, 16519, Note_on_c, 0, 76, 67
2, 16604, Note_on_c, 0, 78, 76
2, 16687, Note_on_c, 0, 76, 0
2, 16690, Note_on_c, 0, 79, 75
2, 16754, Note_on_c, 0, 78, 0
2, 16789, Note_on_c, 0, 71, 68
2, 16791, Note_on_c, 0, 79, 0
2, 16813, Note_on_c, 0, 52, 55
2, 16841, Note_on_c, 0, 52, 0
2, 16876, Note_on_c, 0, 71, 0
2, 16880, Note_on_c, 0, 74, 68
2, 16960, Note_on_c, 0, 74, 0
2, 16968, Note_on_c, 0, 73, 69
2, 17055, Note_on_c, 0, 73, 0
2, 17083, Note_on_c, 0, 71, 60
2, 17154, Note_on_c, 0, 45, 39
2, 17161, Note_on_c, 0, 71, 0
2, 17183, Note_on_c, 0, 73, 56
2, 17202, Note_on_c, 0, 45, 0
2, 17255, Note_on_c, 0, 76, 58
2, 17299, Note_on_c, 0, 73, 0
2, 17338, Note_on_c, 0, 78, 66
2, 17355, Note_on_c, 0, 76, 0
2, 17426, Note_on_c, 0, 79, 59
2, 17430, Note_on_c, 0, 78, 0
2, 17473, Note_on_c, 0, 79, 0
2, 17511, Note_on_c, 0, 69, 57
2, 17518, Note_on_c, 0, 49, 43
2, 17565, Note_on_c, 0, 49, 0
2, 17585, Note_on_c, 0, 69, 0
2, 17603, Note_on_c, 0, 79, 56
2, 17685, Note_on_c, 0, 79, 0
2, 17689, Note_on_c, 0, 78, 57
2, 17762, Note_on_c, 0, 78, 0
2, 17783, Note_on_c, 0, 76, 50
2, 17865, Note_on_c, 0, 76, 0
2, 17902, Note_on_c, 0, 78, 54
2, 17904, Note_on_c, 0, 38, 29
2, 17946, Note_on_c, 0, 38, 0
2, 17947, Note_on_c, 0, 78, 0
2, 17978, Note_on_c, 0, 74, 52
2, 18077, Note_on_c, 0, 76, 54
2, 18086, Note_on_c, 0, 74, 0
2, 18148, Note_on_c, 0, 78, 63
2, 18161, Note_on_c, 0, 76, 0
2, 18221, Note_on_c, 0, 78, 0
2, 18256, Note_on_c, 0, 69, 59
2, 18267, Note_on_c, 0, 50, 40
2, 18295, Note_on_c, 0, 50, 0
2, 18306, Note_on_c, 0, 69, 0
2, 18342, Note_on_c, 0, 72, 60
2, 18434, Note_on_c, 0, 71, 58
2, 18451, Note_on_c, 0, 72, 0
2, 18503, Note_on_c, 0, 71, 0
2, 18510, Note_on_c, 0, 69, 62
2, 18570, Note_on_c, 0, 69, 0
2, 18607, Note_on_c, 0, 38, 40
2, 18618, Note_on_c, 0, 71, 58
2, 18650, Note_on_c, 0, 38, 0
2, 18686, Note_on_c, 0, 71, 0
2, 18695, Note_on_c, 0, 67, 65
2, 18782, Note_on_c, 0, 69, 66
2, 18794, Note_on_c, 0, 67, 0
2, 18848, Note_on_c, 0, 69, 0
2, 18857, Note_on_c, 0, 71, 63
2, 18925, Note_on_c, 0, 71, 0
2, 18950, Note_on_c, 0, 50, 43
2, 18952, Note_on_c, 0, 61, 66
2, 18983, Note_on_c, 0, 50, 0
2, 18986, Note_on_c, 0, 61, 0
2, 19038, Note_on_c, 0, 71, 67
2, 19126, Note_on_c, 0, 69, 59
2, 19180, Note_on_c, 0, 71, 0
2, 19197, Note_on_c, 0, 67, 56
2, 19252, Note_on_c, 0, 69, 0
2, 19277, Note_on_c, 0, 38, 33
2, 19294, Note_on_c, 0, 67, 0
2, 19296, Note_on_c, 0, 66, 67
2, 19331, Note_on_c, 0, 38, 0
2, 19370, Note_on_c, 0, 66, 0
2, 19387, Note_on_c, 0, 62, 64
2, 19451, Note_on_c, 0, 62, 0
2, 19468, Note_on_c, 0, 64, 51
2, 19523, Note_on_c, 0, 64, 0
2, 19541, Note_on_c, 0, 66, 67
2, 19604, Note_on_c, 0, 66, 0
2, 19649, Note_on_c, 0, 57, 59
2, 19659, Note_on_c, 0, 50, 36
2, 19691, Note_on_c, 0, 50, 0
2, 19716, Note_on_c, 0, 57, 0
2, 19734, Note_on_c, 0, 60, 53
2, 19823, Note_on_c, 0, 59, 60
2, 19842, Note_on_c, 0, 60, 0
2, 19875, Note_on_c, 0, 59, 0
2, 19889, Note_on_c, 0, 57, 60
2, 19936, Note_on_c, 0, 57, 0
2, 19980, Note_on_c, 0, 38, 46
2, 19991, Note_on_c, 0, 59, 63
2, 20035, Note_on_c, 0, 38, 0
2, 20050, Note_on_c, 0, 59, 0
2, 20063, Note_on_c, 0, 62, 57
2, 20148, Note_on_c, 0, 64, 56
2, 20188, Note_on_c, 0, 62, 0
2, 20216, Note_on_c, 0, 66, 63
2, 20222, Note_on_c, 0, 64, 0
2, 20286, Note_on_c, 0, 66, 0
2, 20325, Note_on_c, 0, 59, 63
2, 20347, Note_on_c, 0, 50, 28
2, 20374, Note_on_c, 0, 59, 0
2, 20385, Note_on_c, 0, 50, 0
2, 20413, Note_on_c, 0, 71, 44
2, 20421, Note_on_c, 0, 69, 44
2, 20461, Note_on_c, 0, 69, 0
2, 20461, Note_on_c, 0, 71, 0
2, 20472, Note_on_c, 0, 68, 62
2, 20569, Note_on_c, 0, 68, 0
2, 20659, Note_on_c, 0, 68, 13
2, 20691, Note_on_c, 0, 38, 45
2, 20744, Note_on_c, 0, 38, 0
2, 20783, Note_on_c, 0, 68, 0
2, 20833, Note_on_c, 0, 64, 24
2, 20843, Note_on_c, 0, 65, 28
2, 20879, Note_on_c, 0, 64, 0
2, 20891, Note_on_c, 0, 65, 0
2, 20907, Note_on_c, 0, 66, 57
2, 20946, Note_on_c, 0, 68, 51
2, 20968, Note_on_c, 0, 66, 0
2, 20991, Note_on_c, 0, 68, 0
2, 21041, Note_on_c, 0, 59, 62
2, 21043, Note_on_c, 0, 56, 51
2, 21089, Note_on_c, 0, 56, 0
2, 21115, Note_on_c, 0, 59, 0
2, 21161, Note_on_c, 0, 62, 52
2, 21237, Note_on_c, 0, 62, 0
2, 21242, Note_on_c, 0, 60, 40
2, 21261, Note_on_c, 0, 59, 28
2, 21304, Note_on_c, 0, 60, 0
2, 21309, Note_on_c, 0, 59, 0
2, 21309, Note_on_c, 0, 59, 23
2, 21380, Note_on_c, 0, 59, 0
2, 21870, Note_on_c, 0, 68, 55
2, 21966, Note_on_c, 0, 68, 0
2, 21996, Note_on_c, 0, 64, 40
2, 22084, Note_on_c, 0, 66, 53
2, 22092, Note_on_c, 0, 64, 0
2, 22148, Note_on_c, 0, 68, 46
2, 22167, Note_on_c, 0, 66, 0
2, 22181, Note_on_c, 0, 68, 0
2, 22230, Note_on_c, 0, 50, 35
2, 22247, Note_on_c, 0, 57, 46
2, 22258, Note_on_c, 0, 50, 0
2, 22284, Note_on_c, 0, 57, 0
2, 22328, Note_on_c, 0, 60, 36
2, 22389, Note_on_c, 0, 59, 61
2, 22402, Note_on_c, 0, 60, 0
2, 22447, Note_on_c, 0, 59, 0
2, 22476, Note_on_c, 0, 57, 53
2, 22513, Note_on_c, 0, 57, 0
2, 22574, Note_on_c, 0, 59, 50
2, 22610, Note_on_c, 0, 59, 0
2, 22619, Note_on_c, 0, 52, 35
2, 22653, Note_on_c, 0, 62, 51
2, 22661, Note_on_c, 0, 52, 0
2, 22713, Note_on_c, 0, 62, 0
2, 25207, Note_on_c, 0, 50, 36
2, 25251, Note_on_c, 0, 50, 0
2, 25292, Note_on_c, 0, 74, 41
2, 25415, Note_on_c, 0, 76, 39
2, 25422, Note_on_c, 0, 74, 0
2, 25468, Note_on_c, 0, 76, 0
2, 25496, Note_on_c, 0, 78, 55
2, 25575, Note_on_c, 0, 78, 0
2, 25597, Note_on_c, 0, 62, 40
2, 25618, Note_on_c, 0, 69, 53
2, 25628, Note_on_c, 0, 62, 0
2, 25706, Note_on_c, 0, 78, 60
2, 25711, Note_on_c, 0, 69, 0
2, 25783, Note_on_c, 0, 76, 52
2, 25828, Note_on_c, 0, 78, 0
2, 25858, Note_on_c, 0, 74, 58
2, 25871, Note_on_c, 0, 76, 0
2, 25946, Note_on_c, 0, 74, 0
2, 25959, Note_on_c, 0, 81, 69
2, 25965, Note_on_c, 0, 54, 51
2, 26012, Note_on_c, 0, 54, 0
2, 26043, Note_on_c, 0, 74, 61
2, 26072, Note_on_c, 0, 81, 0
2, 26135, Note_on_c, 0, 76, 66
2, 26169, Note_on_c, 0, 74, 0
2, 26213, Note_on_c, 0, 78, 72
2, 26223, Note_on_c, 0, 76, 0
2, 26304, Note_on_c, 0, 78, 0
2, 26323, Note_on_c, 0, 69, 66
2, 26333, Note_on_c, 0, 62, 50
2, 26356, Note_on_c, 0, 62, 0
2, 26414, Note_on_c, 0, 69, 0
2, 26415, Note_on_c, 0, 78, 70
2, 26498, Note_on_c, 0, 76, 63
2, 26551, Note_on_c, 0, 78, 0
2, 26572, Note_on_c, 0, 74, 65
2, 26586, Note_on_c, 0, 76, 0
2, 26654, Note_on_c, 0, 74, 0
2, 26656, Note_on_c, 0, 79, 67
2, 26694, Note_on_c, 0, 52, 36
2, 26732, Note_on_c, 0, 52, 0
2, 26747, Note_on_c, 0, 76, 60
2, 26759, Note_on_c, 0, 79, 0
2, 26820, Note_on_c, 0, 78, 70
2, 26893, Note_on_c, 0, 76, 0
2, 26913, Note_on_c, 0, 79, 67
2, 26974, Note_on_c, 0, 78, 0
2, 26990, Note_on_c, 0, 79, 0
2, 27015, Note_on_c, 0, 62, 51
2, 27021, Note_on_c, 0, 71, 61
2, 27066, Note_on_c, 0, 62, 0
2, 27106, Note_on_c, 0, 71, 0
2, 27118, Note_on_c, 0, 74, 61
2, 27193, Note_on_c, 0, 74, 0
2, 27202, Note_on_c, 0, 73, 66
2, 27282, Note_on_c, 0, 73, 0
2, 27302, Note_on_c, 0, 71, 58
2, 27389, Note_on_c, 0, 57, 40
2, 27391, Note_on_c, 0, 71, 0
2, 27392, Note_on_c, 0, 73, 64
2, 27429, Note_on_c, 0, 57, 0
2, 27472, Note_on_c, 0, 76, 64
2, 27539, Note_on_c, 0, 73, 0
2, 27552, Note_on_c, 0, 78, 70
2, 27620, Note_on_c, 0, 76, 0
2, 27645, Note_on_c, 0, 79, 73
2, 27675, Note_on_c, 0, 78, 0
2, 27723, Note_on_c, 0, 79, 0
2, 27750, Note_on_c, 0, 69, 70
2, 27753, Note_on_c, 0, 61, 56
2, 27794, Note_on_c, 0, 61, 0
2, 27839, Note_on_c, 0, 69, 0
2, 27842, Note_on_c, 0, 79, 67
2, 27924, Note_on_c, 0, 78, 72
2, 27959, Note_on_c, 0, 79, 0
2, 28012, Note_on_c, 0, 76, 71
2, 28018, Note_on_c, 0, 78, 0
2, 28103, Note_on_c, 0, 76, 0
2, 28119, Note_on_c, 0, 78, 69
2, 28128, Note_on_c, 0, 50, 44
2, 28175, Note_on_c, 0, 50, 0
2, 28193, Note_on_c, 0, 78, 0
2, 28194, Note_on_c, 0, 74, 65
2, 28287, Note_on_c, 0, 76, 69
2, 28333, Note_on_c, 0, 74, 0
2, 28368, Note_on_c, 0, 78, 71
2, 28397, Note_on_c, 0, 76, 0
2, 28434, Note_on_c, 0, 78, 0
2, 28464, Note_on_c, 0, 62, 54
2, 28473, Note_on_c, 0, 69, 68
2, 28507, Note_on_c, 0, 62, 0
2, 28550, Note_on_c, 0, 69, 0
2, 28553, Note_on_c, 0, 73, 62
2, 28655, Note_on_c, 0, 71, 62
2, 28679, Note_on_c, 0, 73, 0
2, 28719, Note_on_c, 0, 69, 67
2, 28722, Note_on_c, 0, 71, 0
2, 28786, Note_on_c, 0, 69, 0
2, 28811, Note_on_c, 0, 50, 49
2, 28827, Note_on_c, 0, 71, 72
2, 28861, Note_on_c, 0, 50, 0
2, 28901, Note_on_c, 0, 71, 0
2, 28907, Note_on_c, 0, 74, 71
2, 28978, Note_on_c, 0, 76, 68
2, 29047, Note_on_c, 0, 74, 0
2, 29054, Note_on_c, 0, 78, 79
2, 29083, Note_on_c, 0, 76, 0
2, 29148, Note_on_c, 0, 78, 0
2, 29153, Note_on_c, 0, 62, 58
2, 29158, Note_on_c, 0, 71, 71
2, 29191, Note_on_c, 0, 62, 0
2, 29229, Note_on_c, 0, 81, 70
2, 29238, Note_on_c, 0, 71, 0
2, 29318, Note_on_c, 0, 80, 75
2, 29375, Note_on_c, 0, 81, 0
2, 29420, Note_on_c, 0, 78, 78
2, 29434, Note_on_c, 0, 80, 0
2, 29521, Note_on_c, 0, 80, 72
2, 29527, Note_on_c, 0, 78, 0
2, 29529, Note_on_c, 0, 50, 47
2, 29562, Note_on_c, 0, 50, 0
2, 29602, Note_on_c, 0, 76, 68
2, 29616, Note_on_c, 0, 80, 0
2, 29687, Note_on_c, 0, 78, 72
2, 29743, Note_on_c, 0, 76, 0
2, 29764, Note_on_c, 0, 80, 72
2, 29826, Note_on_c, 0, 78, 0
2, 29842, Note_on_c, 0, 80, 0
2, 29877, Note_on_c, 0, 56, 54
2, 29880, Note_on_c, 0, 71, 69
2, 29925, Note_on_c, 0, 56, 0
2, 29942, Note_on_c, 0, 71, 0
2, 29953, Note_on_c, 0, 74, 62
2, 30050, Note_on_c, 0, 73, 67
2, 30086, Note_on_c, 0, 74, 0
2, 30128, Note_on_c, 0, 71, 73
2, 30162, Note_on_c, 0, 73, 0
2, 30215, Note_on_c, 0, 71, 0
2, 30232, Note_on_c, 0, 69, 71
2, 30241, Note_on_c, 0, 49, 51
2, 30306, Note_on_c, 0, 49, 0
2, 30312, Note_on_c, 0, 73, 62
2, 30336, Note_on_c, 0, 69, 0
2, 30395, Note_on_c, 0, 74, 67
2, 30455, Note_on_c, 0, 73, 0
2, 30485, Note_on_c, 0, 76, 69
2, 30510, Note_on_c, 0, 74, 0
2, 30565, Note_on_c, 0, 76, 0
2, 30575, Note_on_c, 0, 57, 56
2, 30580, Note_on_c, 0, 66, 68
2, 30611, Note_on_c, 0, 57, 0
2, 30639, Note_on_c, 0, 66, 0
2, 30675, Note_on_c, 0, 76, 67
2, 30744, Note_on_c, 0, 74, 60
2, 30752, Note_on_c, 0, 76, 0
2, 30822, Note_on_c, 0, 74, 0
2, 30834, Note_on_c, 0, 73, 63
2, 30911, Note_on_c, 0, 73, 0
2, 30929, Note_on_c, 0, 74, 53
2, 30940, Note_on_c, 0, 47, 51
2, 30990, Note_on_c, 0, 47, 0
2, 31002, Note_on_c, 0, 74, 0
2, 31014, Note_on_c, 0, 71, 61
2, 31103, Note_on_c, 0, 71, 0
2, 31103, Note_on_c, 0, 73, 64
2, 31190, Note_on_c, 0, 74, 60
2, 31220, Note_on_c, 0, 73, 0
2, 31260, Note_on_c, 0, 74, 0
2, 31294, Note_on_c, 0, 66, 62
2, 31304, Note_on_c, 0, 57, 44
2, 31344, Note_on_c, 0, 57, 0
2, 31365, Note_on_c, 0, 66, 0
2, 31384, Note_on_c, 0, 69, 62
2, 31453, Note_on_c, 0, 69, 0
2, 31463, Note_on_c, 0, 68, 68
2, 31535, Note_on_c, 0, 68, 0
2, 31553, Note_on_c, 0, 66, 66
2, 31649, Note_on_c, 0, 66, 0
2, 31660, Note_on_c, 0, 68, 68
2, 31661, Note_on_c, 0, 52, 46
2, 31702, Note_on_c, 0, 52, 0
2, 31744, Note_on_c, 0, 71, 60
2, 31789, Note_on_c, 0, 68, 0
2, 31815, Note_on_c, 0, 73, 68
2, 31857, Note_on_c, 0, 71, 0
2, 31895, Note_on_c, 0, 74, 64
2, 31923, Note_on_c, 0, 73, 0
2, 31962, Note_on_c, 0, 74, 0
2, 31981, Note_on_c, 0, 64, 63
2, 32009, Note_on_c, 0, 56, 48
2, 32050, Note_on_c, 0, 56, 0
2, 32069, Note_on_c, 0, 64, 0
2, 32076, Note_on_c, 0, 74, 60
2, 32160, Note_on_c, 0, 74, 0
2, 32161, Note_on_c, 0, 73, 62
2, 32244, Note_on_c, 0, 73, 0
2, 32262, Note_on_c, 0, 71, 53
2, 32332, Note_on_c, 0, 71, 0
2, 32340, Note_on_c, 0, 45, 42
2, 32350, Note_on_c, 0, 73, 56
2, 32390, Note_on_c, 0, 45, 0
2, 32424, Note_on_c, 0, 73, 0
2, 32436, Note_on_c, 0, 69, 60
2, 32529, Note_on_c, 0, 71, 58
2, 32546, Note_on_c, 0, 69, 0
2, 32598, Note_on_c, 0, 73, 65
2, 32639, Note_on_c, 0, 71, 0
2, 32668, Note_on_c, 0, 73, 0
2, 32699, Note_on_c, 0, 64, 65
2, 32703, Note_on_c, 0, 57, 49
2, 32744, Note_on_c, 0, 57, 0
2, 32772, Note_on_c, 0, 64, 0
2, 32780, Note_on_c, 0, 67, 62
2, 32838, Note_on_c, 0, 67, 0
2, 32847, Note_on_c, 0, 66, 67
2, 32913, Note_on_c, 0, 66, 0
2, 32944, Note_on_c, 0, 64, 64
2, 33018, Note_on_c, 0, 45, 44
2, 33020, Note_on_c, 0, 64, 0
2, 33026, Note_on_c, 0, 66, 63
2, 33063, Note_on_c, 0, 45, 0
2, 33089, Note_on_c, 0, 69, 62
2, 33130, Note_on_c, 0, 66, 0
2, 33184, Note_on_c, 0, 71, 62
2, 33217, Note_on_c, 0, 69, 0
2, 33264, Note_on_c, 0, 73, 68
2, 33270, Note_on_c, 0, 71, 0
2, 33319, Note_on_c, 0, 73, 0
2, 33364, Note_on_c, 0, 66, 64
2, 33366, Note_on_c, 0, 57, 46
2, 33393, Note_on_c, 0, 57, 0
2, 33409, Note_on_c, 0, 66, 0
2, 33451, Note_on_c, 0, 76, 68
2, 33529, Note_on_c, 0, 75, 66
2, 33529, Note_on_c, 0, 76, 0
2, 33610, Note_on_c, 0, 75, 0
2, 33619, Note_on_c, 0, 73, 65
2, 33703, Note_on_c, 0, 73, 0
2, 33723, Note_on_c, 0, 75, 58
2, 33731, Note_on_c, 0, 45, 38
2, 33766, Note_on_c, 0, 45, 0
2, 33788, Note_on_c, 0, 75, 0
2, 33789, Note_on_c, 0, 71, 55
2, 33877, Note_on_c, 0, 71, 0
2, 33882, Note_on_c, 0, 73, 60
2, 33971, Note_on_c, 0, 75, 59
2, 33979, Note_on_c, 0, 73, 0
2, 34043, Note_on_c, 0, 75, 0
2, 34072, Note_on_c, 0, 66, 61
2, 34075, Note_on_c, 0, 51, 49
2, 34102, Note_on_c, 0, 66, 0
2, 34111, Note_on_c, 0, 51, 0
2, 34161, Note_on_c, 0, 69, 59
2, 34238, Note_on_c, 0, 67, 64
2, 34274, Note_on_c, 0, 69, 0
2, 34311, Note_on_c, 0, 67, 0
2, 34316, Note_on_c, 0, 66, 69
2, 34398, Note_on_c, 0, 66, 0
2, 34414, Note_on_c, 0, 43, 38
2, 34416, Note_on_c, 0, 64, 59
2, 34463, Note_on_c, 0, 43, 0
2, 34480, Note_on_c, 0, 67, 59
2, 34487, Note_on_c, 0, 64, 0
2, 34557, Note_on_c, 0, 69, 67
2, 34585, Note_on_c, 0, 67, 0
2, 34633, Note_on_c, 0, 69, 0
2, 34649, Note_on_c, 0, 71, 54
2, 34696, Note_on_c, 0, 71, 0
2, 34768, Note_on_c, 0, 52, 49
2, 34771, Note_on_c, 0, 61, 52
2, 34802, Note_on_c, 0, 52, 0
2, 34804, Note_on_c, 0, 61, 0
2, 34855, Note_on_c, 0, 74, 61
2, 34937, Note_on_c, 0, 73, 55
2, 35003, Note_on_c, 0, 74, 0
2, 35023, Note_on_c, 0, 71, 59
2, 35102, Note_on_c, 0, 73, 0
2, 35111, Note_on_c, 0, 71, 0
2, 35117, Note_on_c, 0, 70, 67
2, 35120, Note_on_c, 0, 42, 37
2, 35172, Note_on_c, 0, 70, 0
2, 35176, Note_on_c, 0, 42, 0
2, 35209, Note_on_c, 0, 64, 55
2, 35266, Note_on_c, 0, 64, 0
2, 35291, Note_on_c, 0, 66, 64
2, 35364, Note_on_c, 0, 67, 65
2, 35367, Note_on_c, 0, 66, 0
2, 35444, Note_on_c, 0, 67, 0
2, 35469, Note_on_c, 0, 54, 45
2, 35488, Note_on_c, 0, 61, 54
2, 35522, Note_on_c, 0, 54, 0
2, 35547, Note_on_c, 0, 61, 0
2, 35562, Note_on_c, 0, 67, 49
2, 35619, Note_on_c, 0, 67, 0
2, 35642, Note_on_c, 0, 66, 55
2, 35721, Note_on_c, 0, 66, 0
2, 35727, Note_on_c, 0, 64, 58
2, 35793, Note_on_c, 0, 64, 0
2, 35839, Note_on_c, 0, 62, 59
2, 35844, Note_on_c, 0, 42, 36
2, 35878, Note_on_c, 0, 62, 0
2, 35914, Note_on_c, 0, 42, 0
2, 35923, Note_on_c, 0, 71, 46
2, 36000, Note_on_c, 0, 73, 55
2, 36032, Note_on_c, 0, 71, 0
2, 36079, Note_on_c, 0, 74, 60
2, 36106, Note_on_c, 0, 73, 0
2, 36125, Note_on_c, 0, 74, 0
2, 36176, Note_on_c, 0, 54, 50
2, 36186, Note_on_c, 0, 66, 63
2, 36217, Note_on_c, 0, 54, 0
2, 36254, Note_on_c, 0, 66, 0
2, 36284, Note_on_c, 0, 69, 59
2, 36349, Note_on_c, 0, 69, 0
2, 36355, Note_on_c, 0, 68, 62
2, 36437, Note_on_c, 0, 68, 0
2, 36447, Note_on_c, 0, 66, 57
2, 36504, Note_on_c, 0, 66, 0
2, 36539, Note_on_c, 0, 65, 59
2, 36551, Note_on_c, 0, 42, 38
2, 36608, Note_on_c, 0, 42, 0
2, 36608, Note_on_c, 0, 65, 0
2, 36617, Note_on_c, 0, 68, 58
2, 36701, Note_on_c, 0, 69, 58
2, 36733, Note_on_c, 0, 68, 0
2, 36785, Note_on_c, 0, 69, 0
2, 36786, Note_on_c, 0, 71, 65
2, 36855, Note_on_c, 0, 71, 0
2, 36888, Note_on_c, 0, 65, 65
2, 36890, Note_on_c, 0, 54, 47
2, 36932, Note_on_c, 0, 54, 0
2, 36939, Note_on_c, 0, 65, 0
2, 36974, Note_on_c, 0, 74, 57
2, 37034, Note_on_c, 0, 74, 0
2, 37059, Note_on_c, 0, 73, 60
2, 37107, Note_on_c, 0, 73, 0
2, 37231, Note_on_c, 0, 42, 39
2, 37250, Note_on_c, 0, 80, 56
2, 37281, Note_on_c, 0, 42, 0
2, 37303, Note_on_c, 0, 80, 0
2, 37321, Note_on_c, 0, 77, 58
2, 37413, Note_on_c, 0, 77, 0
2, 37419, Note_on_c, 0, 78, 60
2, 37476, Note_on_c, 0, 78, 0
2, 37492, Note_on_c, 0, 80, 54
2, 37560, Note_on_c, 0, 80, 0
2, 37592, Note_on_c, 0, 73, 56
2, 37605, Note_on_c, 0, 54, 34
2, 37636, Note_on_c, 0, 73, 0
2, 37649, Note_on_c, 0, 54, 0
2, 37682, Note_on_c, 0, 83, 52
2, 37726, Note_on_c, 0, 83, 0
2, 37755, Note_on_c, 0, 81, 54
2, 37827, Note_on_c, 0, 81, 0
2, 37847, Note_on_c, 0, 80, 59
2, 37927, Note_on_c, 0, 80, 0
2, 37939, Note_on_c, 0, 42, 38
2, 37949, Note_on_c, 0, 81, 55
2, 37995, Note_on_c, 0, 81, 0
2, 37998, Note_on_c, 0, 42, 0
2, 38013, Note_on_c, 0, 78, 61
2, 38111, Note_on_c, 0, 80, 59
2, 38132, Note_on_c, 0, 78, 0
2, 38191, Note_on_c, 0, 81, 58
2, 38242, Note_on_c, 0, 80, 0
2, 38250, Note_on_c, 0, 81, 0
2, 38298, Note_on_c, 0, 73, 55
2, 38301, Note_on_c, 0, 54, 33
2, 38340, Note_on_c, 0, 54, 0
2, 38363, Note_on_c, 0, 73, 0
2, 38387, Note_on_c, 0, 76, 59
2, 38445, Note_on_c, 0, 76, 0
2, 38473, Note_on_c, 0, 75, 59
2, 38537, Note_on_c, 0, 75, 0
2, 38569, Note_on_c, 0, 73, 62
2, 38647, Note_on_c, 0, 73, 0
2, 38667, Note_on_c, 0, 47, 37
2, 38673, Note_on_c, 0, 75, 53
2, 38722, Note_on_c, 0, 47, 0
2, 38740, Note_on_c, 0, 78, 61
2, 38780, Note_on_c, 0, 75, 0
2, 38821, Note_on_c, 0, 79, 61
2, 38847, Note_on_c, 0, 78, 0
2, 38896, Note_on_c, 0, 79, 0
2, 38902, Note_on_c, 0, 81, 66
2, 38961, Note_on_c, 0, 81, 0
2, 39004, Note_on_c, 0, 51, 34
2, 39013, Note_on_c, 0, 71, 53
2, 39049, Note_on_c, 0, 51, 0
2, 39062, Note_on_c, 0, 71, 0
2, 39084, Note_on_c, 0, 81, 59
2, 39150, Note_on_c, 0, 81, 0
2, 39171, Note_on_c, 0, 79, 53
2, 39248, Note_on_c, 0, 79, 0
2, 39259, Note_on_c, 0, 78, 62
2, 39346, Note_on_c, 0, 78, 0
2, 39381, Note_on_c, 0, 79, 51
2, 39391, Note_on_c, 0, 40, 30
2, 39430, Note_on_c, 0, 79, 0
2, 39445, Note_on_c, 0, 40, 0
2, 39455, Note_on_c, 0, 76, 54
2, 39550, Note_on_c, 0, 76, 0
2, 39553, Note_on_c, 0, 78, 58
2, 39629, Note_on_c, 0, 79, 61
2, 39639, Note_on_c, 0, 78, 0
2, 39699, Note_on_c, 0, 79, 0
2, 39747, Note_on_c, 0, 52, 39
2, 39750, Note_on_c, 0, 71, 57
2, 39777, Note_on_c, 0, 52, 0
2, 39798, Note_on_c, 0, 71, 0
2, 39830, Note_on_c, 0, 74, 50
2, 39910, Note_on_c, 0, 72, 61
2, 39930, Note_on_c, 0, 74, 0
2, 39967, Note_on_c, 0, 72, 0
2, 39987, Note_on_c, 0, 71, 60
2, 40040, Note_on_c, 0, 71, 0
2, 40108, Note_on_c, 0, 72, 57
2, 40113, Note_on_c, 0, 40, 42
2, 40168, Note_on_c, 0, 72, 0
2, 40190, Note_on_c, 0, 40, 0
2, 40192, Note_on_c, 0, 75, 56
2, 40266, Note_on_c, 0, 76, 61
2, 40272, Note_on_c, 0, 75, 0
2, 40367, Note_on_c, 0, 78, 65
2, 40402, Note_on_c, 0, 76, 0
2, 40439, Note_on_c, 0, 78, 0
2, 40455, Note_on_c, 0, 51, 47
2, 40474, Note_on_c, 0, 69, 64
2, 40527, Note_on_c, 0, 69, 0
2, 40534, Note_on_c, 0, 51, 0
2, 40556, Note_on_c, 0, 72, 58
2, 40643, Note_on_c, 0, 71, 63
2, 40681, Note_on_c, 0, 72, 0
2, 40713, Note_on_c, 0, 71, 0
2, 40714, Note_on_c, 0, 69, 71
2, 40781, Note_on_c, 0, 69, 0
2, 40798, Note_on_c, 0, 40, 47
2, 40813, Note_on_c, 0, 67, 70
2, 40867, Note_on_c, 0, 40, 0
2, 40883, Note_on_c, 0, 67, 0
2, 40898, Note_on_c, 0, 76, 66
2, 40979, Note_on_c, 0, 78, 75
2, 41036, Note_on_c, 0, 76, 0
2, 41067, Note_on_c, 0, 79, 72
2, 41116, Note_on_c, 0, 78, 0
2, 41144, Note_on_c, 0, 79, 0
2, 41153, Note_on_c, 0, 71, 73
2, 41157, Note_on_c, 0, 52, 55
2, 41196, Note_on_c, 0, 52, 0
2, 41233, Note_on_c, 0, 71, 0
2, 41233, Note_on_c, 0, 74, 70
2, 41315, Note_on_c, 0, 73, 71
2, 41318, Note_on_c, 0, 74, 0
2, 41388, Note_on_c, 0, 73, 0
2, 41399, Note_on_c, 0, 71, 70
2, 41490, Note_on_c, 0, 45, 47
2, 41491, Note_on_c, 0, 71, 0
2, 41493, Note_on_c, 0, 73, 70
2, 41539, Note_on_c, 0, 45, 0
2, 41564, Note_on_c, 0, 76, 71
2, 41650, Note_on_c, 0, 73, 0
2, 41652, Note_on_c, 0, 78, 78
2, 41722, Note_on_c, 0, 76, 0
2, 41739, Note_on_c, 0, 79, 74
2, 41770, Note_on_c, 0, 78, 0
2, 41823, Note_on_c, 0, 79, 0
2, 41834, Note_on_c, 0, 69, 64
2, 41868, Note_on_c, 0, 49, 47
2, 41920, Note_on_c, 0, 49, 0
2, 41923, Note_on_c, 0, 69, 0
2, 41928, Note_on_c, 0, 79, 69
2, 42001, Note_on_c, 0, 78, 66
2, 42012, Note_on_c, 0, 79, 0
2, 42090, Note_on_c, 0, 78, 0
2, 42094, Note_on_c, 0, 76, 61
2, 42187, Note_on_c, 0, 76, 0
2, 42197, Note_on_c, 0, 38, 44
2, 42205, Note_on_c, 0, 78, 63
2, 42247, Note_on_c, 0, 38, 0
2, 42271, Note_on_c, 0, 78, 0
2, 42273, Note_on_c, 0, 74, 58
2, 42375, Note_on_c, 0, 76, 63
2, 42403, Note_on_c, 0, 74, 0
2, 42453, Note_on_c, 0, 78, 72
2, 42480, Note_on_c, 0, 76, 0
2, 42525, Note_on_c, 0, 78, 0
2, 42560, Note_on_c, 0, 69, 67
2, 42562, Note_on_c, 0, 50, 53
2, 42591, Note_on_c, 0, 50, 0
2, 42621, Note_on_c, 0, 69, 0
2, 42646, Note_on_c, 0, 72, 61
2, 42716, Note_on_c, 0, 71, 68
2, 42756, Note_on_c, 0, 72, 0
2, 42790, Note_on_c, 0, 69, 70
2, 42794, Note_on_c, 0, 71, 0
2, 42855, Note_on_c, 0, 69, 0
2, 42900, Note_on_c, 0, 71, 57
2, 42904, Note_on_c, 0, 38, 51
2, 42958, Note_on_c, 0, 38, 0
2, 42976, Note_on_c, 0, 67, 65
2, 42976, Note_on_c, 0, 71, 0
2, 43058, Note_on_c, 0, 69, 71
2, 43081, Note_on_c, 0, 67, 0
2, 43132, Note_on_c, 0, 69, 0
2, 43136, Note_on_c, 0, 71, 62
2, 43210, Note_on_c, 0, 71, 0
2, 43242, Note_on_c, 0, 50, 49
2, 43253, Note_on_c, 0, 61, 64
2, 43270, Note_on_c, 0, 50, 0
2, 43290, Note_on_c, 0, 61, 0
2, 43336, Note_on_c, 0, 71, 61
2, 43422, Note_on_c, 0, 69, 58
2, 43468, Note_on_c, 0, 71, 0
2, 43498, Note_on_c, 0, 67, 60
2, 43542, Note_on_c, 0, 69, 0
2, 43579, Note_on_c, 0, 67, 0
2, 43589, Note_on_c, 0, 38, 35
2, 43597, Note_on_c, 0, 66, 62
2, 43643, Note_on_c, 0, 38, 0
2, 43659, Note_on_c, 0, 66, 0
2, 43687, Note_on_c, 0, 62, 56
2, 43751, Note_on_c, 0, 62, 0
2, 43771, Note_on_c, 0, 64, 53
2, 43825, Note_on_c, 0, 64, 0
2, 43854, Note_on_c, 0, 66, 59
2, 43908, Note_on_c, 0, 66, 0
2, 43966, Note_on_c, 0, 50, 39
2, 43970, Note_on_c, 0, 57, 57
2, 43997, Note_on_c, 0, 50, 0
2, 44040, Note_on_c, 0, 57, 0
2, 44055, Note_on_c, 0, 60, 57
2, 44153, Note_on_c, 0, 59, 56
2, 44169, Note_on_c, 0, 60, 0
2, 44195, Note_on_c, 0, 59, 0
2, 44218, Note_on_c, 0, 57, 59
2, 44286, Note_on_c, 0, 57, 0
2, 44308, Note_on_c, 0, 38, 45
2, 44330, Note_on_c, 0, 59, 61
2, 44357, Note_on_c, 0, 38, 0
2, 44394, Note_on_c, 0, 59, 0
2, 44408, Note_on_c, 0, 62, 59
2, 44486, Note_on_c, 0, 64, 58
2, 44527, Note_on_c, 0, 62, 0
2, 44554, Note_on_c, 0, 66, 70
2, 44574, Note_on_c, 0, 64, 0
2, 44634, Note_on_c, 0, 66, 0
2, 44659, Note_on_c, 0, 59, 68
2, 44686, Note_on_c, 0, 50, 15
2, 44741, Note_on_c, 0, 50, 0
2, 44746, Note_on_c, 0, 59, 0
2, 44748, Note_on_c, 0, 69, 66
2, 44822, Note_on_c, 0, 68, 69
2, 44845, Note_on_c, 0, 69, 0
2, 44913, Note_on_c, 0, 66, 72
2, 44927, Note_on_c, 0, 68, 0
2, 45016, Note_on_c, 0, 38, 55
2, 45023, Note_on_c, 0, 68, 69
2, 45030, Note_on_c, 0, 66, 0
2, 45084, Note_on_c, 0, 38, 0
2, 45103, Note_on_c, 0, 64, 63
2, 45115, Note_on_c, 0, 68, 0
2, 45188, Note_on_c, 0, 66, 69
2, 45241, Note_on_c, 0, 64, 0
2, 45262, Note_on_c, 0, 68, 70
2, 45311, Note_on_c, 0, 66, 0
2, 45327, Note_on_c, 0, 68, 0
2, 45360, Note_on_c, 0, 59, 67
2, 45367, Note_on_c, 0, 56, 72
2, 45418, Note_on_c, 0, 56, 0
2, 45436, Note_on_c, 0, 59, 0
2, 45443, Note_on_c, 0, 62, 71
2, 45540, Note_on_c, 0, 60, 67
2, 45583, Note_on_c, 0, 62, 0
2, 45602, Note_on_c, 0, 59, 66
2, 45625, Note_on_c, 0, 60, 0
2, 45688, Note_on_c, 0, 59, 0
2, 45701, Note_on_c, 0, 48, 56
2, 45707, Note_on_c, 0, 57, 61
2, 45757, Note_on_c, 0, 48, 0
2, 45768, Note_on_c, 0, 60, 57
2, 45810, Note_on_c, 0, 57, 0
2, 45841, Note_on_c, 0, 62, 64
2, 45870, Note_on_c, 0, 60, 0
2, 45933, Note_on_c, 0, 64, 65
2, 45980, Note_on_c, 0, 62, 0
2, 46005, Note_on_c, 0, 64, 0
2, 46047, Note_on_c, 0, 54, 56
2, 46047, Note_on_c, 0, 57, 58
2, 46079, Note_on_c, 0, 54, 0
2, 46116, Note_on_c, 0, 57, 0
2, 46136, Note_on_c, 0, 67, 62
2, 46244, Note_on_c, 0, 65, 49
2, 46275, Note_on_c, 0, 67, 0
2, 46316, Note_on_c, 0, 64, 60
2, 46398, Note_on_c, 0, 47, 47
2, 46406, Note_on_c, 0, 63, 66
2, 46409, Note_on_c, 0, 65, 0
2, 46419, Note_on_c, 0, 64, 0
2, 46455, Note_on_c, 0, 47, 0
2, 46477, Note_on_c, 0, 63, 0
2, 46490, Note_on_c, 0, 57, 61
2, 46559, Note_on_c, 0, 57, 0
2, 46565, Note_on_c, 0, 59, 64
2, 46641, Note_on_c, 0, 59, 0
2, 46651, Note_on_c, 0, 60, 66
2, 46724, Note_on_c, 0, 60, 0
2, 46734, Note_on_c, 0, 51, 50
2, 46762, Note_on_c, 0, 54, 63
2, 46784, Note_on_c, 0, 51, 0
2, 46834, Note_on_c, 0, 54, 0
2, 46843, Note_on_c, 0, 60, 57
2, 46923, Note_on_c, 0, 60, 0
2, 46927, Note_on_c, 0, 59, 53
2, 46983, Note_on_c, 0, 59, 0
2, 47012, Note_on_c, 0, 57, 54
2, 47063, Note_on_c, 0, 57, 0
2, 47106, Note_on_c, 0, 52, 53
2, 47113, Note_on_c, 0, 55, 60
2, 47139, Note_on_c, 0, 52, 0
2, 47143, Note_on_c, 0, 55, 0
2, 47197, Note_on_c, 0, 64, 60
2, 47269, Note_on_c, 0, 66, 65
2, 47303, Note_on_c, 0, 64, 0
2, 47357, Note_on_c, 0, 67, 64
2, 47369, Note_on_c, 0, 66, 0
2, 47416, Note_on_c, 0, 67, 0
2, 47437, Note_on_c, 0, 55, 54
2, 47443, Note_on_c, 0, 59, 58
2, 47475, Note_on_c, 0, 55, 0
2, 47503, Note_on_c, 0, 59, 0
2, 47525, Note_on_c, 0, 62, 61
2, 47613, Note_on_c, 0, 61, 63
2, 47637, Note_on_c, 0, 62, 0
2, 47683, Note_on_c, 0, 61, 0
2, 47695, Note_on_c, 0, 59, 65
2, 47748, Note_on_c, 0, 59, 0
2, 47782, Note_on_c, 0, 47, 47
2, 47800, Note_on_c, 0, 58, 65
2, 47834, Note_on_c, 0, 47, 0
2, 47870, Note_on_c, 0, 58, 0
2, 47877, Note_on_c, 0, 61, 59
2, 47957, Note_on_c, 0, 62, 58
2, 47980, Note_on_c, 0, 61, 0
2, 48017, Note_on_c, 0, 62, 0
2, 48031, Note_on_c, 0, 64, 61
2, 48107, Note_on_c, 0, 64, 0
2, 48116, Note_on_c, 0, 52, 47
2, 48135, Note_on_c, 0, 58, 67
2, 48145, Note_on_c, 0, 52, 0
2, 48169, Note_on_c, 0, 58, 0
2, 48214, Note_on_c, 0, 67, 62
2, 48267, Note_on_c, 0, 67, 0
2, 48289, Note_on_c, 0, 66, 57
2, 48321, Note_on_c, 0, 66, 0
2, 48388, Note_on_c, 0, 62, 16
2, 48434, Note_on_c, 0, 62, 0
2, 48457, Note_on_c, 0, 73, 58
2, 48480, Note_on_c, 0, 55, 43
2, 48522, Note_on_c, 0, 55, 0
2, 48525, Note_on_c, 0, 73, 0
2, 48556, Note_on_c, 0, 70, 61
2, 48653, Note_on_c, 0, 71, 51
2, 48688, Note_on_c, 0, 70, 0
2, 48715, Note_on_c, 0, 71, 0
2, 48724, Note_on_c, 0, 73, 58
2, 48794, Note_on_c, 0, 73, 0
2, 48839, Note_on_c, 0, 66, 45
2, 48840, Note_on_c, 0, 58, 40
2, 48870, Note_on_c, 0, 66, 0
2, 48885, Note_on_c, 0, 58, 0
2, 48918, Note_on_c, 0, 76, 53
2, 48966, Note_on_c, 0, 76, 0
2, 48998, Note_on_c, 0, 74, 52
2, 49078, Note_on_c, 0, 74, 0
2, 49094, Note_on_c, 0, 73, 57
2, 49173, Note_on_c, 0, 73, 0
2, 49189, Note_on_c, 0, 47, 42
2, 49208, Note_on_c, 0, 74, 49
2, 49236, Note_on_c, 0, 47, 0
2, 49251, Note_on_c, 0, 74, 0
2, 49267, Note_on_c, 0, 71, 53
2, 49373, Note_on_c, 0, 71, 0
2, 49382, Note_on_c, 0, 73, 57
2, 49479, Note_on_c, 0, 74, 51
2, 49522, Note_on_c, 0, 73, 0
2, 49526, Note_on_c, 0, 74, 0
2, 49565, Note_on_c, 0, 59, 50
2, 49576, Note_on_c, 0, 66, 52
2, 49603, Note_on_c, 0, 59, 0
2, 49622, Note_on_c, 0, 66, 0
2, 49662, Note_on_c, 0, 69, 54
2, 49716, Note_on_c, 0, 69, 0
2, 49735, Note_on_c, 0, 68, 65
2, 49806, Note_on_c, 0, 68, 0
2, 49828, Note_on_c, 0, 66, 59
2, 49890, Note_on_c, 0, 66, 0
2, 49912, Note_on_c, 0, 68, 55
2, 49916, Note_on_c, 0, 52, 51
2, 49952, Note_on_c, 0, 52, 0
2, 49997, Note_on_c, 0, 71, 53
2, 50027, Note_on_c, 0, 68, 0
2, 50075, Note_on_c, 0, 72, 63
2, 50093, Note_on_c, 0, 71, 0
2, 50164, Note_on_c, 0, 72, 0
2, 50165, Note_on_c, 0, 74, 65
2, 50234, Note_on_c, 0, 74, 0
2, 50249, Note_on_c, 0, 56, 49
2, 50260, Note_on_c, 0, 64, 61
2, 50290, Note_on_c, 0, 56, 0
2, 50341, Note_on_c, 0, 64, 0
2, 50358, Note_on_c, 0, 74, 49
2, 50408, Note_on_c, 0, 74, 0
2, 50425, Note_on_c, 0, 72, 60
2, 50503, Note_on_c, 0, 72, 0
2, 50517, Note_on_c, 0, 71, 58
2, 50592, Note_on_c, 0, 45, 44
2, 50601, Note_on_c, 0, 71, 0
2, 50619, Note_on_c, 0, 72, 58
2, 50648, Note_on_c, 0, 45, 0
2, 50677, Note_on_c, 0, 72, 0
2, 50687, Note_on_c, 0, 69, 61
2, 50774, Note_on_c, 0, 71, 63
2, 50801, Note_on_c, 0, 69, 0
2, 50862, Note_on_c, 0, 72, 68
2, 50890, Note_on_c, 0, 71, 0
2, 50924, Note_on_c, 0, 72, 0
2, 50960, Note_on_c, 0, 64, 69
2, 50961, Note_on_c, 0, 57, 44
2, 50987, Note_on_c, 0, 57, 0
2, 51032, Note_on_c, 0, 64, 0
2, 51042, Note_on_c, 0, 67, 70
2, 51111, Note_on_c, 0, 67, 0
2, 51123, Note_on_c, 0, 66, 69
2, 51197, Note_on_c, 0, 66, 0
2, 51211, Note_on_c, 0, 64, 69
2, 51293, Note_on_c, 0, 50, 43
2, 51303, Note_on_c, 0, 64, 0
2, 51309, Note_on_c, 0, 66, 68
2, 51325, Note_on_c, 0, 50, 0
2, 51376, Note_on_c, 0, 69, 70
2, 51439, Note_on_c, 0, 66, 0
2, 51469, Note_on_c, 0, 71, 66
2, 51517, Note_on_c, 0, 69, 0
2, 51556, Note_on_c, 0, 72, 69
2, 51567, Note_on_c, 0, 71, 0
2, 51635, Note_on_c, 0, 72, 0
2, 51662, Note_on_c, 0, 54, 43
2, 51670, Note_on_c, 0, 62, 57
2, 51704, Note_on_c, 0, 54, 0
2, 51747, Note_on_c, 0, 62, 0
2, 51752, Note_on_c, 0, 72, 59
2, 51832, Note_on_c, 0, 72, 0
2, 51842, Note_on_c, 0, 71, 56
2, 51928, Note_on_c, 0, 71, 0
2, 51939, Note_on_c, 0, 69, 60
2, 52025, Note_on_c, 0, 69, 0
2, 52059, Note_on_c, 0, 71, 49
2, 52062, Note_on_c, 0, 43, 36
2, 52104, Note_on_c, 0, 43, 0
2, 52110, Note_on_c, 0, 71, 0
2, 52128, Note_on_c, 0, 67, 55
2, 52222, Note_on_c, 0, 67, 0
2, 52224, Note_on_c, 0, 69, 62
2, 52293, Note_on_c, 0, 69, 0
2, 52303, Note_on_c, 0, 71, 61
2, 52384, Note_on_c, 0, 71, 0
2, 52411, Note_on_c, 0, 62, 58
2, 52412, Note_on_c, 0, 55, 50
2, 52449, Note_on_c, 0, 55, 0
2, 52498, Note_on_c, 0, 71, 51
2, 52500, Note_on_c, 0, 62, 0
2, 52567, Note_on_c, 0, 69, 62
2, 52602, Note_on_c, 0, 71, 0
2, 52661, Note_on_c, 0, 67, 59
2, 52661, Note_on_c, 0, 69, 0
2, 52736, Note_on_c, 0, 67, 0
2, 52772, Note_on_c, 0, 47, 37
2, 52799, Note_on_c, 0, 74, 28
2, 52820, Note_on_c, 0, 47, 0
2, 52838, Note_on_c, 0, 74, 0
2, 52855, Note_on_c, 0, 67, 54
2, 52933, Note_on_c, 0, 69, 54
2, 52939, Note_on_c, 0, 67, 0
2, 53007, Note_on_c, 0, 69, 0
2, 53024, Note_on_c, 0, 71, 53
2, 53082, Note_on_c, 0, 71, 0
2, 53125, Note_on_c, 0, 55, 34
2, 53150, Note_on_c, 0, 62, 43
2, 53163, Note_on_c, 0, 55, 0
2, 53207, Note_on_c, 0, 62, 0
2, 53232, Note_on_c, 0, 71, 47
2, 53287, Note_on_c, 0, 71, 0
2, 53298, Note_on_c, 0, 69, 52
2, 53371, Note_on_c, 0, 69, 0
2, 53383, Note_on_c, 0, 67, 54
2, 53441, Note_on_c, 0, 67, 0
2, 53481, Note_on_c, 0, 45, 35
2, 53484, Note_on_c, 0, 72, 51
2, 53520, Note_on_c, 0, 45, 0
2, 53537, Note_on_c, 0, 72, 0
2, 53552, Note_on_c, 0, 69, 53
2, 53646, Note_on_c, 0, 71, 51
2, 53652, Note_on_c, 0, 69, 0
2, 53724, Note_on_c, 0, 72, 56
2, 53774, Note_on_c, 0, 71, 0
2, 53785, Note_on_c, 0, 72, 0
2, 53825, Note_on_c, 0, 64, 56
2, 53842, Note_on_c, 0, 55, 34
2, 53871, Note_on_c, 0, 55, 0
2, 53896, Note_on_c, 0, 64, 0
2, 53918, Note_on_c, 0, 67, 57
2, 53985, Note_on_c, 0, 67, 0
2, 54001, Note_on_c, 0, 66, 63
2, 54068, Note_on_c, 0, 66, 0
2, 54090, Note_on_c, 0, 64, 62
2, 54175, Note_on_c, 0, 64, 0
2, 54178, Note_on_c, 0, 50, 44
2, 54183, Note_on_c, 0, 66, 66
2, 54210, Note_on_c, 0, 50, 0
2, 54263, Note_on_c, 0, 69, 64
2, 54316, Note_on_c, 0, 66, 0
2, 54349, Note_on_c, 0, 71, 65
2, 54382, Note_on_c, 0, 69, 0
2, 54428, Note_on_c, 0, 72, 70
2, 54437, Note_on_c, 0, 71, 0
2, 54493, Note_on_c, 0, 72, 0
2, 54521, Note_on_c, 0, 62, 69
2, 54528, Note_on_c, 0, 54, 54
2, 54569, Note_on_c, 0, 54, 0
2, 54612, Note_on_c, 0, 62, 0
2, 54614, Note_on_c, 0, 72, 66
2, 54694, Note_on_c, 0, 72, 0
2, 54702, Note_on_c, 0, 71, 61
2, 54780, Note_on_c, 0, 71, 0
2, 54786, Note_on_c, 0, 69, 67
2, 54874, Note_on_c, 0, 69, 0
2, 54882, Note_on_c, 0, 43, 51
2, 54892, Note_on_c, 0, 71, 60
2, 54927, Note_on_c, 0, 43, 0
2, 54963, Note_on_c, 0, 67, 65
2, 54964, Note_on_c, 0, 71, 0
2, 55056, Note_on_c, 0, 69, 65
2, 55098, Note_on_c, 0, 67, 0
2, 55133, Note_on_c, 0, 71, 66
2, 55145, Note_on_c, 0, 69, 0
2, 55186, Note_on_c, 0, 71, 0
2, 55217, Note_on_c, 0, 62, 64
2, 55232, Note_on_c, 0, 55, 45
2, 55259, Note_on_c, 0, 55, 0
2, 55288, Note_on_c, 0, 62, 0
2, 55305, Note_on_c, 0, 66, 64
2, 55392, Note_on_c, 0, 64, 63
2, 55419, Note_on_c, 0, 66, 0
2, 55468, Note_on_c, 0, 62, 71
2, 55470, Note_on_c, 0, 64, 0
2, 55531, Note_on_c, 0, 62, 0
2, 55566, Note_on_c, 0, 43, 48
2, 55570, Note_on_c, 0, 64, 69
2, 55604, Note_on_c, 0, 43, 0
2, 55636, Note_on_c, 0, 64, 0
2, 55644, Note_on_c, 0, 67, 74
2, 55723, Note_on_c, 0, 69, 71
2, 55780, Note_on_c, 0, 67, 0
2, 55798, Note_on_c, 0, 71, 74
2, 55831, Note_on_c, 0, 69, 0
2, 55880, Note_on_c, 0, 71, 0
2, 55891, Note_on_c, 0, 55, 59
2, 55896, Note_on_c, 0, 64, 75
2, 55922, Note_on_c, 0, 55, 0
2, 55967, Note_on_c, 0, 64, 0
2, 55976, Note_on_c, 0, 74, 67
2, 56055, Note_on_c, 0, 73, 75
2, 56098, Note_on_c, 0, 74, 0
2, 56140, Note_on_c, 0, 71, 72
2, 56156, Note_on_c, 0, 73, 0
2, 56256, Note_on_c, 0, 73, 76
2, 56260, Note_on_c, 0, 43, 46
2, 56275, Note_on_c, 0, 71, 0
2, 56322, Note_on_c, 0, 43, 0
2, 56339, Note_on_c, 0, 69, 73
2, 56351, Note_on_c, 0, 73, 0
2, 56437, Note_on_c, 0, 71, 73
2, 56488, Note_on_c, 0, 69, 0
2, 56509, Note_on_c, 0, 73, 73
2, 56560, Note_on_c, 0, 71, 0
2, 56567, Note_on_c, 0, 73, 0
2, 56597, Note_on_c, 0, 64, 69
2, 56617, Note_on_c, 0, 49, 58
2, 56669, Note_on_c, 0, 49, 0
2, 56674, Note_on_c, 0, 67, 73
2, 56700, Note_on_c, 0, 64, 0
2, 56758, Note_on_c, 0, 66, 73
2, 56804, Note_on_c, 0, 67, 0
2, 56831, Note_on_c, 0, 64, 73
2, 56878, Note_on_c, 0, 66, 0
2, 56918, Note_on_c, 0, 64, 0
2, 56921, Note_on_c, 0, 62, 74
2, 56947, Note_on_c, 0, 42, 56
2, 57018, Note_on_c, 0, 66, 72
2, 57025, Note_on_c, 0, 62, 0
2, 57034, Note_on_c, 0, 42, 0
2, 57106, Note_on_c, 0, 67, 71
2, 57172, Note_on_c, 0, 66, 0
2, 57199, Note_on_c, 0, 69, 72
2, 57236, Note_on_c, 0, 67, 0
2, 57268, Note_on_c, 0, 69, 0
2, 57289, Note_on_c, 0, 50, 49
2, 57300, Note_on_c, 0, 59, 62
2, 57317, Note_on_c, 0, 50, 0
2, 57379, Note_on_c, 0, 59, 0
2, 57389, Note_on_c, 0, 69, 57
2, 57459, Note_on_c, 0, 67, 53
2, 57496, Note_on_c, 0, 69, 0
2, 57549, Note_on_c, 0, 67, 0
2, 57557, Note_on_c, 0, 66, 56
2, 57653, Note_on_c, 0, 66, 0
2, 57659, Note_on_c, 0, 40, 42
2, 57659, Note_on_c, 0, 67, 59
2, 57715, Note_on_c, 0, 40, 0
2, 57730, Note_on_c, 0, 67, 0
2, 57733, Note_on_c, 0, 64, 54
2, 57832, Note_on_c, 0, 66, 57
2, 57844, Note_on_c, 0, 64, 0
2, 57898, Note_on_c, 0, 67, 59
2, 57926, Note_on_c, 0, 66, 0
2, 57961, Note_on_c, 0, 67, 0
2, 58005, Note_on_c, 0, 59, 58
2, 58021, Note_on_c, 0, 50, 36
2, 58053, Note_on_c, 0, 50, 0
2, 58064, Note_on_c, 0, 59, 0
2, 58088, Note_on_c, 0, 62, 60
2, 58154, Note_on_c, 0, 62, 0
2, 58171, Note_on_c, 0, 61, 65
2, 58232, Note_on_c, 0, 61, 0
2, 58259, Note_on_c, 0, 59, 57
2, 58333, Note_on_c, 0, 59, 0
2, 58341, Note_on_c, 0, 45, 48
2, 58350, Note_on_c, 0, 61, 60
2, 58392, Note_on_c, 0, 45, 0
2, 58421, Note_on_c, 0, 64, 62
2, 58483, Note_on_c, 0, 61, 0
2, 58506, Note_on_c, 0, 66, 65
2, 58559, Note_on_c, 0, 64, 0
2, 58603, Note_on_c, 0, 67, 63
2, 58614, Note_on_c, 0, 66, 0
2, 58675, Note_on_c, 0, 67, 0
2, 58696, Note_on_c, 0, 49, 46
2, 58711, Note_on_c, 0, 57, 57
2, 58740, Note_on_c, 0, 49, 0
2, 58777, Note_on_c, 0, 57, 0
2, 58792, Note_on_c, 0, 67, 57
2, 58864, Note_on_c, 0, 67, 0
2, 58877, Note_on_c, 0, 66, 57
2, 58950, Note_on_c, 0, 66, 0
2, 58966, Note_on_c, 0, 64, 54
2, 59045, Note_on_c, 0, 64, 0
2, 59056, Note_on_c, 0, 38, 42
2, 59062, Note_on_c, 0, 66, 63
2, 59122, Note_on_c, 0, 38, 0
2, 59133, Note_on_c, 0, 66, 0
2, 59140, Note_on_c, 0, 62, 60
2, 59225, Note_on_c, 0, 64, 66
2, 59250, Note_on_c, 0, 62, 0
2, 59304, Note_on_c, 0, 66, 72
2, 59318, Note_on_c, 0, 64, 0
2, 59383, Note_on_c, 0, 66, 0
2, 59407, Note_on_c, 0, 57, 66
2, 59415, Note_on_c, 0, 50, 64
2, 59454, Note_on_c, 0, 50, 0
2, 59487, Note_on_c, 0, 66, 74
2, 59520, Note_on_c, 0, 57, 0
2, 59583, Note_on_c, 0, 64, 64
2, 59650, Note_on_c, 0, 66, 0
2, 59669, Note_on_c, 0, 62, 72
2, 59678, Note_on_c, 0, 64, 0
2, 59741, Note_on_c, 0, 62, 0
2, 59749, Note_on_c, 0, 42, 66
2, 59763, Note_on_c, 0, 69, 70
2, 59801, Note_on_c, 0, 42, 0
2, 59834, Note_on_c, 0, 66, 78
2, 59857, Note_on_c, 0, 69, 0
2, 59912, Note_on_c, 0, 67, 75
2, 59967, Note_on_c, 0, 66, 0
2, 59991, Note_on_c, 0, 69, 75
2, 60015, Note_on_c, 0, 67, 0
2, 60061, Note_on_c, 0, 69, 0
2, 60085, Note_on_c, 0, 62, 81
2, 60102, Note_on_c, 0, 57, 67
2, 60131, Note_on_c, 0, 57, 0
2, 60174, Note_on_c, 0, 72, 77
2, 60178, Note_on_c, 0, 62, 0
2, 60253, Note_on_c, 0, 71, 74
2, 60300, Note_on_c, 0, 72, 0
2, 60332, Note_on_c, 0, 69, 79
2, 60351, Note_on_c, 0, 71, 0
2, 60436, Note_on_c, 0, 43, 56
2, 60436, Note_on_c, 0, 71, 78
2, 60439, Note_on_c, 0, 69, 0
2, 60497, Note_on_c, 0, 43, 0
2, 60511, Note_on_c, 0, 67, 81
2, 60531, Note_on_c, 0, 71, 0
2, 60598, Note_on_c, 0, 69, 82
2, 60627, Note_on_c, 0, 67, 0
2, 60676, Note_on_c, 0, 71, 70
2, 60689, Note_on_c, 0, 69, 0
2, 60759, Note_on_c, 0, 71, 0
2, 60760, Note_on_c, 0, 62, 75
2, 60769, Note_on_c, 0, 55, 69
2, 60812, Note_on_c, 0, 55, 0
2, 60860, Note_on_c, 0, 71, 64
2, 60868, Note_on_c, 0, 62, 0
2, 60932, Note_on_c, 0, 69, 74
2, 60984, Note_on_c, 0, 71, 0
2, 61008, Note_on_c, 0, 67, 77
2, 61020, Note_on_c, 0, 69, 0
2, 61078, Note_on_c, 0, 67, 0
2, 61099, Note_on_c, 0, 74, 73
2, 61100, Note_on_c, 0, 47, 70
2, 61140, Note_on_c, 0, 47, 0
2, 61179, Note_on_c, 0, 71, 75
2, 61190, Note_on_c, 0, 74, 0
2, 61257, Note_on_c, 0, 72, 76
2, 61303, Note_on_c, 0, 71, 0
2, 61336, Note_on_c, 0, 74, 71
2, 61362, Note_on_c, 0, 72, 0
2, 61385, Note_on_c, 0, 74, 0
2, 61425, Note_on_c, 0, 62, 74
2, 61432, Note_on_c, 0, 68, 81
2, 61452, Note_on_c, 0, 62, 0
2, 61472, Note_on_c, 0, 68, 0
2, 61525, Note_on_c, 0, 79, 67
2, 61529, Note_on_c, 0, 77, 72
2, 61607, Note_on_c, 0, 76, 80
2, 61652, Note_on_c, 0, 79, 0
2, 61697, Note_on_c, 0, 74, 75
2, 61723, Note_on_c, 0, 77, 0
2, 61784, Note_on_c, 0, 76, 0
2, 61790, Note_on_c, 0, 45, 49
2, 61809, Note_on_c, 0, 73, 82
2, 61832, Note_on_c, 0, 74, 0
2, 61892, Note_on_c, 0, 73, 0
2, 61895, Note_on_c, 0, 69, 82
2, 61971, Note_on_c, 0, 69, 0
2, 61974, Note_on_c, 0, 71, 70
2, 62041, Note_on_c, 0, 71, 0
2, 62047, Note_on_c, 0, 73, 75
2, 62115, Note_on_c, 0, 73, 0
2, 62148, Note_on_c, 0, 64, 74
2, 62166, Note_on_c, 0, 55, 70
2, 62209, Note_on_c, 0, 55, 0
2, 62220, Note_on_c, 0, 64, 0
2, 62221, Note_on_c, 0, 67, 69
2, 62307, Note_on_c, 0, 66, 73
2, 62348, Note_on_c, 0, 67, 0
2, 62386, Note_on_c, 0, 64, 71
2, 62396, Note_on_c, 0, 66, 0
2, 62414, Note_on_c, 0, 64, 0
2, 62482, Note_on_c, 0, 54, 72
2, 62486, Note_on_c, 0, 69, 80
2, 62529, Note_on_c, 0, 54, 0
2, 62557, Note_on_c, 0, 69, 0
2, 62567, Note_on_c, 0, 74, 75
2, 62648, Note_on_c, 0, 76, 76
2, 62714, Note_on_c, 0, 74, 0
2, 62719, Note_on_c, 0, 78, 80
2, 62760, Note_on_c, 0, 76, 0
2, 62805, Note_on_c, 0, 50, 64
2, 62812, Note_on_c, 0, 78, 0
2, 62823, Note_on_c, 0, 71, 73
2, 62833, Note_on_c, 0, 50, 0
2, 62901, Note_on_c, 0, 71, 0
2, 62907, Note_on_c, 0, 81, 69
2, 62985, Note_on_c, 0, 79, 69
2, 63001, Note_on_c, 0, 81, 0
2, 63071, Note_on_c, 0, 78, 71
2, 63074, Note_on_c, 0, 79, 0
2, 63148, Note_on_c, 0, 52, 59
2, 63153, Note_on_c, 0, 78, 0
2, 63159, Note_on_c, 0, 79, 62
2, 63184, Note_on_c, 0, 52, 0
2, 63239, Note_on_c, 0, 79, 0
2, 63250, Note_on_c, 0, 73, 65
2, 63324, Note_on_c, 0, 73, 0
2, 63333, Note_on_c, 0, 74, 63
2, 63379, Note_on_c, 0, 76, 58
2, 63382, Note_on_c, 0, 74, 0
2, 63456, Note_on_c, 0, 76, 0
2, 63480, Note_on_c, 0, 69, 58
2, 63485, Note_on_c, 0, 49, 57
2, 63523, Note_on_c, 0, 49, 0
2, 63529, Note_on_c, 0, 69, 0
2, 63572, Note_on_c, 0, 79, 55
2, 63648, Note_on_c, 0, 78, 63
2, 63679, Note_on_c, 0, 79, 0
2, 63722, Note_on_c, 0, 78, 0
2, 63743, Note_on_c, 0, 76, 52
2, 63812, Note_on_c, 0, 76, 0
2, 63825, Note_on_c, 0, 78, 57
2, 63847, Note_on_c, 0, 50, 45
2, 63869, Note_on_c, 0, 78, 0
2, 63875, Note_on_c, 0, 50, 0
2, 63925, Note_on_c, 0, 71, 56
2, 64000, Note_on_c, 0, 71, 0
2, 64028, Note_on_c, 0, 73, 62
2, 64077, Note_on_c, 0, 73, 0
2, 64092, Note_on_c, 0, 74, 60
2, 64131, Note_on_c, 0, 74, 0
2, 64183, Note_on_c, 0, 68, 65
2, 64196, Note_on_c, 0, 45, 0
2, 64199, Note_on_c, 0, 47, 40
2, 64231, Note_on_c, 0, 47, 0
2, 64263, Note_on_c, 0, 78, 69
2, 64264, Note_on_c, 0, 68, 0
2, 64341, Note_on_c, 0, 76, 66
2, 64420, Note_on_c, 0, 78, 0
2, 64431, Note_on_c, 0, 74, 68
2, 64483, Note_on_c, 0, 76, 0
2, 64514, Note_on_c, 0, 73, 73
2, 64523, Note_on_c, 0, 45, 54
2, 64531, Note_on_c, 0, 74, 0
2, 64571, Note_on_c, 0, 73, 0
2, 64584, Note_on_c, 0, 67, 76
2, 64602, Note_on_c, 0, 52, 43
2, 64637, Note_on_c, 0, 53, 19
2, 64638, Note_on_c, 0, 53, 0
2, 64675, Note_on_c, 0, 54, 71
2, 64675, Note_on_c, 0, 69, 75
2, 64676, Note_on_c, 0, 67, 0
2, 64694, Note_on_c, 0, 52, 0
2, 64748, Note_on_c, 0, 69, 0
2, 64751, Note_on_c, 0, 70, 77
2, 64760, Note_on_c, 0, 55, 66
2, 64768, Note_on_c, 0, 54, 0
2, 64815, Note_on_c, 0, 55, 0
2, 64828, Note_on_c, 0, 70, 0
2, 64840, Note_on_c, 0, 64, 76
2, 64843, Note_on_c, 0, 49, 63
2, 64916, Note_on_c, 0, 67, 76
2, 64920, Note_on_c, 0, 64, 0
2, 64932, Note_on_c, 0, 52, 76
2, 64934, Note_on_c, 0, 49, 0
2, 65004, Note_on_c, 0, 65, 76
2, 65027, Note_on_c, 0, 50, 68
2, 65033, Note_on_c, 0, 52, 0
2, 65052, Note_on_c, 0, 67, 0
2, 65070, Note_on_c, 0, 64, 72
2, 65078, Note_on_c, 0, 50, 0
2, 65080, Note_on_c, 0, 49, 60
2, 65085, Note_on_c, 0, 65, 0
2, 65130, Note_on_c, 0, 64, 0
2, 65150, Note_on_c, 0, 50, 58
2, 65150, Note_on_c, 0, 65, 64
2, 65195, Note_on_c, 0, 49, 0
2, 65197, Note_on_c, 0, 50, 0
2, 65203, Note_on_c, 0, 53, 74
2, 65225, Note_on_c, 0, 65, 0
2, 65230, Note_on_c, 0, 74, 75
2, 65231, Note_on_c, 0, 45, 0
2, 65285, Note_on_c, 0, 55, 74
2, 65308, Note_on_c, 0, 76, 72
2, 65353, Note_on_c, 0, 74, 0
2, 65363, Note_on_c, 0, 53, 0
2, 65374, Note_on_c, 0, 55, 0
2, 65378, Note_on_c, 0, 57, 74
2, 65384, Note_on_c, 0, 77, 75
2, 65411, Note_on_c, 0, 76, 0
2, 65447, Note_on_c, 0, 57, 0
2, 65466, Note_on_c, 0, 77, 0
2, 65473, Note_on_c, 0, 52, 69
2, 65473, Note_on_c, 0, 73, 70
2, 65547, Note_on_c, 0, 52, 0
2, 65561, Note_on_c, 0, 76, 74
2, 65565, Note_on_c, 0, 73, 0
2, 65573, Note_on_c, 0, 53, 55
2, 65639, Note_on_c, 0, 74, 66
2, 65648, Note_on_c, 0, 76, 0
2, 65690, Note_on_c, 0, 73, 75
2, 65713, Note_on_c, 0, 74, 0
2, 65720, Note_on_c, 0, 52, 63
2, 65742, Note_on_c, 0, 73, 0
2, 65766, Note_on_c, 0, 53, 0
2, 65769, Note_on_c, 0, 52, 0
2, 65788, Note_on_c, 0, 55, 70
2, 65792, Note_on_c, 0, 72, 48
2, 65792, Note_on_c, 0, 74, 50
2, 65822, Note_on_c, 0, 72, 0
2, 65828, Note_on_c, 0, 74, 0
2, 65849, Note_on_c, 0, 55, 0
2, 65852, Note_on_c, 0, 82, 76
2, 65865, Note_on_c, 0, 50, 59
2, 65928, Note_on_c, 0, 81, 80
2, 65950, Note_on_c, 0, 52, 64
2, 65970, Note_on_c, 0, 50, 0
2, 65971, Note_on_c, 0, 82, 0
2, 65987, Note_on_c, 0, 52, 0
2, 65997, Note_on_c, 0, 53, 74
2, 66001, Note_on_c, 0, 79, 83
2, 66043, Note_on_c, 0, 53, 0
2, 66050, Note_on_c, 0, 81, 0
2, 66083, Note_on_c, 0, 77, 80
2, 66086, Note_on_c, 0, 45, 66
2, 66090, Note_on_c, 0, 79, 0
2, 66136, Note_on_c, 0, 77, 0
2, 66161, Note_on_c, 0, 76, 81
2, 66170, Note_on_c, 0, 45, 0
2, 66172, Note_on_c, 0, 48, 71
2, 66228, Note_on_c, 0, 76, 0
2, 66238, Note_on_c, 0, 74, 70
2, 66244, Note_on_c, 0, 46, 76
2, 66251, Note_on_c, 0, 48, 0
2, 66323, Note_on_c, 0, 73, 80
2, 66327, Note_on_c, 0, 74, 0
2, 66346, Note_on_c, 0, 45, 64
2, 66359, Note_on_c, 0, 46, 0
2, 66394, Note_on_c, 0, 73, 0
2, 66450, Note_on_c, 0, 44, 64
2, 66450, Note_on_c, 0, 45, 0
2, 66451, Note_on_c, 0, 74, 72
2, 66532, Note_on_c, 0, 77, 66
2, 66538, Note_on_c, 0, 74, 0
2, 66610, Note_on_c, 0, 76, 74
2, 66643, Note_on_c, 0, 77, 0
2, 66665, Note_on_c, 0, 76, 0
2, 66696, Note_on_c, 0, 74, 71
2, 66758, Note_on_c, 0, 83, 74
2, 66776, Note_on_c, 0, 74, 0
2, 66838, Note_on_c, 0, 80, 84
2, 66851, Note_on_c, 0, 83, 0
2, 66911, Note_on_c, 0, 81, 80
2, 66995, Note_on_c, 0, 80, 0
2, 66998, Note_on_c, 0, 83, 73
2, 67047, Note_on_c, 0, 81, 0
2, 67079, Note_on_c, 0, 83, 0
2, 67081, Note_on_c, 0, 77, 70
2, 67129, Note_on_c, 0, 77, 0
2, 67159, Note_on_c, 0, 74, 57
2, 67180, Note_on_c, 0, 72, 26
2, 67210, Note_on_c, 0, 72, 0
2, 67232, Note_on_c, 0, 76, 72
2, 67258, Note_on_c, 0, 74, 0
2, 67314, Note_on_c, 0, 77, 68
2, 67353, Note_on_c, 0, 76, 0
2, 67389, Note_on_c, 0, 77, 0
2, 67392, Note_on_c, 0, 71, 71
2, 67444, Note_on_c, 0, 71, 0
2, 67468, Note_on_c, 0, 68, 72
2, 67555, Note_on_c, 0, 69, 70
2, 67587, Note_on_c, 0, 68, 0
2, 67623, Note_on_c, 0, 71, 70
2, 67645, Note_on_c, 0, 69, 0
2, 67692, Note_on_c, 0, 64, 72
2, 67703, Note_on_c, 0, 71, 0
2, 67775, Note_on_c, 0, 66, 80
2, 67780, Note_on_c, 0, 64, 0
2, 67854, Note_on_c, 0, 68, 83
2, 67866, Note_on_c, 0, 66, 0
2, 67910, Note_on_c, 0, 68, 0
2, 67925, Note_on_c, 0, 69, 87
2, 67999, Note_on_c, 0, 69, 0
2, 68001, Note_on_c, 0, 71, 83
2, 68077, Note_on_c, 0, 73, 86
2, 68089, Note_on_c, 0, 71, 0
2, 68103, Note_on_c, 0, 44, 0
2, 68165, Note_on_c, 0, 73, 0
2, 68166, Note_on_c, 0, 74, 94
2, 68241, Note_on_c, 0, 76, 91
2, 68255, Note_on_c, 0, 74, 0
2, 68356, Note_on_c, 0, 45, 57
2, 68368, Note_on_c, 0, 77, 91
2, 68420, Note_on_c, 0, 76, 0
2, 68521, Note_on_c, 0, 73, 74
2, 68591, Note_on_c, 0, 77, 0
2, 68602, Note_on_c, 0, 74, 69
2, 68603, Note_on_c, 0, 57, 57
2, 68635, Note_on_c, 0, 73, 0
2, 68653, Note_on_c, 0, 74, 0
2, 68654, Note_on_c, 0, 69, 76
2, 68728, Note_on_c, 0, 69, 0
2, 68729, Note_on_c, 0, 70, 82
2, 68751, Note_on_c, 0, 55, 59
2, 68765, Note_on_c, 0, 57, 0
2, 68802, Note_on_c, 0, 67, 77
2, 68812, Note_on_c, 0, 70, 0
2, 68824, Note_on_c, 0, 65, 61
2, 68847, Note_on_c, 0, 65, 0
2, 68877, Note_on_c, 0, 76, 85
2, 68885, Note_on_c, 0, 67, 0
2, 68901, Note_on_c, 0, 49, 66
2, 68930, Note_on_c, 0, 55, 0
2, 68961, Note_on_c, 0, 67, 83
2, 68962, Note_on_c, 0, 76, 0
2, 69035, Note_on_c, 0, 69, 85
2, 69037, Note_on_c, 0, 53, 57
2, 69042, Note_on_c, 0, 67, 0
2, 69045, Note_on_c, 0, 49, 0
2, 69109, Note_on_c, 0, 65, 87
2, 69122, Note_on_c, 0, 69, 0
2, 69178, Note_on_c, 0, 50, 59
2, 69187, Note_on_c, 0, 74, 80
2, 69201, Note_on_c, 0, 65, 0
2, 69203, Note_on_c, 0, 53, 0
2, 69281, Note_on_c, 0, 65, 82
2, 69300, Note_on_c, 0, 74, 0
2, 69363, Note_on_c, 0, 67, 77
2, 69372, Note_on_c, 0, 65, 0
2, 69376, Note_on_c, 0, 52, 71
2, 69453, Note_on_c, 0, 64, 80
2, 69493, Note_on_c, 0, 67, 0
2, 69569, Note_on_c, 0, 73, 80
2, 69576, Note_on_c, 0, 55, 73
2, 69583, Note_on_c, 0, 50, 0
2, 69586, Note_on_c, 0, 45, 0
2, 69595, Note_on_c, 0, 64, 0
2, 69640, Note_on_c, 0, 52, 0
2, 69686, Note_on_c, 0, 64, 81
2, 69691, Note_on_c, 0, 73, 0
2, 69817, Note_on_c, 0, 45, 68
2, 69822, Note_on_c, 0, 55, 0
2, 69890, Control_c, 0, 64, 56
2, 69906, Control_c, 0, 64, 64
2, 69921, Control_c, 0, 64, 68
2, 69936, Control_c, 0, 64, 72
2, 69939, Note_on_c, 0, 50, 55
2, 69952, Control_c, 0, 64, 79
2, 69952, Note_on_c, 0, 45, 0
2, 69967, Control_c, 0, 64, 83
2, 69970, Note_on_c, 0, 50, 0
2, 69983, Control_c, 0, 64, 86
2, 69988, Note_on_c, 0, 53, 70
2, 69995, Note_on_c, 0, 64, 0
2, 69997, Control_c, 0, 64, 89
2, 70012, Control_c, 0, 64, 91
2, 70028, Control_c, 0, 64, 93
2, 70044, Control_c, 0, 64, 95
2, 70059, Control_c, 0, 64, 97
2, 70062, Note_on_c, 0, 53, 0
2, 70062, Note_on_c, 0, 56, 83
2, 70073, Control_c, 0, 64, 98
2, 70089, Control_c, 0, 64, 100
2, 70104, Control_c, 0, 64, 101
2, 70119, Control_c, 0, 64, 102
2, 70124, Note_on_c, 0, 56, 0
2, 70129, Note_on_c, 0, 59, 79
2, 70135, Control_c, 0, 64, 103
2, 70150, Control_c, 0, 64, 104
2, 70170, Note_on_c, 0, 62, 75
2, 70181, Control_c, 0, 64, 104
2, 70188, Note_on_c, 0, 59, 0
2, 70195, Control_c, 0, 64, 105
2, 70220, Note_on_c, 0, 65, 82
2, 70242, Control_c, 0, 64, 105
2, 70261, Note_on_c, 0, 68, 90
2, 70287, Note_on_c, 0, 62, 0
2, 70297, Note_on_c, 0, 71, 81
2, 70298, Note_on_c, 0, 70, 62
2, 70332, Note_on_c, 0, 65, 0
2, 70334, Note_on_c, 0, 74, 87
2, 70349, Control_c, 0, 64, 106
2, 70364, Note_on_c, 0, 68, 0
2, 70382, Note_on_c, 0, 70, 0
2, 70401, Note_on_c, 0, 71, 0
2, 70424, Control_c, 0, 64, 106
2, 70439, Control_c, 0, 64, 107
2, 70455, Control_c, 0, 64, 107
2, 70531, Control_c, 0, 64, 108
2, 70774, Control_c, 0, 64, 108
2, 70888, Control_c, 0, 64, 109
2, 71055, Control_c, 0, 64, 109
2, 72142, Control_c, 0, 64, 107
2, 72157, Control_c, 0, 64, 103
2, 72173, Control_c, 0, 64, 95
2, 72187, Control_c, 0, 64, 85
2, 72203, Control_c, 0, 64, 70
2, 72218, Control_c, 0, 64, 21
2, 72233, Control_c, 0, 64, 0
2, 72847, Note_on_c, 0, 73, 39
2, 72943, Note_on_c, 0, 74, 0
2, 72998, Note_on_c, 0, 71, 45
2, 73001, Note_on_c, 0, 73, 0
2, 73041, Note_on_c, 0, 71, 0
2, 73064, Note_on_c, 0, 69, 54
2, 73086, Note_on_c, 0, 69, 0
2, 73141, Note_on_c, 0, 68, 62
2, 73195, Note_on_c, 0, 68, 0
2, 73205, Note_on_c, 0, 66, 64
2, 73238, Note_on_c, 0, 66, 0
2, 73264, Note_on_c, 0, 64, 59
2, 73309, Note_on_c, 0, 64, 0
2, 73321, Note_on_c, 0, 66, 68
2, 73368, Note_on_c, 0, 66, 0
2, 73378, Note_on_c, 0, 68, 66
2, 73415, Note_on_c, 0, 68, 0
2, 73449, Note_on_c, 0, 69, 73
2, 73489, Note_on_c, 0, 69, 0
2, 73501, Note_on_c, 0, 71, 67
2, 73544, Note_on_c, 0, 71, 0
2, 73562, Note_on_c, 0, 73, 69
2, 73588, Note_on_c, 0, 73, 0
2, 73614, Note_on_c, 0, 74, 76
2, 73660, Note_on_c, 0, 74, 0
2, 73672, Note_on_c, 0, 76, 69
2, 73717, Note_on_c, 0, 76, 0
2, 73734, Note_on_c, 0, 77, 78
2, 73788, Note_on_c, 0, 76, 64
2, 73794, Note_on_c, 0, 77, 0
2, 73828, Note_on_c, 0, 76, 0
2, 73842, Note_on_c, 0, 74, 64
2, 73879, Note_on_c, 0, 74, 0
2, 73907, Note_on_c, 0, 73, 75
2, 73969, Note_on_c, 0, 71, 65
2, 73978, Note_on_c, 0, 73, 0
2, 74010, Note_on_c, 0, 71, 0
2, 74024, Note_on_c, 0, 69, 75
2, 74063, Note_on_c, 0, 69, 0
2, 74075, Note_on_c, 0, 68, 75
2, 74131, Note_on_c, 0, 66, 80
2, 74134, Note_on_c, 0, 68, 0
2, 74186, Note_on_c, 0, 66, 0
2, 74188, Note_on_c, 0, 64, 72
2, 74245, Note_on_c, 0, 62, 81
2, 74257, Note_on_c, 0, 64, 0
2, 74290, Note_on_c, 0, 61, 73
2, 74296, Note_on_c, 0, 62, 0
2, 74462, Note_on_c, 0, 64, 59
2, 74507, Control_c, 0, 64, 57
2, 74507, Note_on_c, 0, 67, 72
2, 74522, Control_c, 0, 64, 67
2, 74527, Note_on_c, 0, 61, 0
2, 74537, Control_c, 0, 64, 75
2, 74544, Note_on_c, 0, 64, 0
2, 74552, Control_c, 0, 64, 87
2, 74554, Note_on_c, 0, 70, 76
2, 74567, Control_c, 0, 64, 95
2, 74574, Note_on_c, 0, 67, 0
2, 74576, Note_on_c, 0, 73, 73
2, 74582, Control_c, 0, 64, 100
2, 74587, Note_on_c, 0, 70, 0
2, 74597, Control_c, 0, 64, 105
2, 74613, Control_c, 0, 64, 109
2, 74617, Note_on_c, 0, 76, 84
2, 74628, Control_c, 0, 64, 113
2, 74651, Control_c, 0, 64, 121
2, 74663, Note_on_c, 0, 79, 84
2, 74664, Note_on_c, 0, 73, 0
2, 74666, Control_c, 0, 64, 127
2, 74699, Note_on_c, 0, 82, 91
2, 74704, Note_on_c, 0, 76, 0
2, 74724, Note_on_c, 0, 79, 0
2, 74736, Note_on_c, 0, 82, 0
2, 75168, Control_c, 0, 64, 127
2, 75184, Control_c, 0, 64, 110
2, 75199, Control_c, 0, 64, 95
2, 75214, Control_c, 0, 64, 77
2, 75223, Note_on_c, 0, 62, 83
2, 75229, Control_c, 0, 64, 0
2, 75335, Control_c, 0, 64, 54
2, 75350, Control_c, 0, 64, 66
2, 75366, Control_c, 0, 64, 75
2, 75381, Control_c, 0, 64, 87
2, 75396, Control_c, 0, 64, 98
2, 75419, Control_c, 0, 64, 106
2, 75434, Control_c, 0, 64, 112
2, 75443, Note_on_c, 0, 65, 68
2, 75450, Control_c, 0, 64, 116
2, 75465, Control_c, 0, 64, 125
2, 75467, Note_on_c, 0, 68, 82
2, 75480, Control_c, 0, 64, 127
2, 75487, Note_on_c, 0, 62, 0
2, 75528, Note_on_c, 0, 65, 0
2, 75528, Note_on_c, 0, 71, 79
2, 75562, Note_on_c, 0, 68, 0
2, 75571, Note_on_c, 0, 71, 0
2, 75574, Note_on_c, 0, 74, 82
2, 75615, Note_on_c, 0, 77, 84
2, 75651, Note_on_c, 0, 80, 91
2, 75670, Note_on_c, 0, 74, 0
2, 75702, Note_on_c, 0, 83, 84
2, 75714, Note_on_c, 0, 77, 0
2, 75747, Note_on_c, 0, 80, 0
2, 75779, Note_on_c, 0, 83, 0
2, 76397, Note_on_c, 0, 45, 49
2, 76475, Control_c, 0, 64, 125
2, 76491, Control_c, 0, 64, 114
2, 76506, Control_c, 0, 64, 107
2, 76522, Control_c, 0, 64, 100
2, 76537, Control_c, 0, 64, 94
2, 76552, Control_c, 0, 64, 87
2, 76568, Control_c, 0, 64, 80
2, 76583, Control_c, 0, 64, 74
2, 76597, Control_c, 0, 64, 67
2, 76613, Control_c, 0, 64, 54
2, 76624, Note_on_c, 0, 52, 52
2, 76628, Control_c, 0, 64, 0
2, 76825, Note_on_c, 0, 57, 53
2, 77010, Note_on_c, 0, 64, 69
2, 77302, Note_on_c, 0, 69, 77
2, 77798, Note_on_c, 0, 74, 77
2, 78179, Control_c, 0, 64, 17
2, 78194, Control_c, 0, 64, 52
2, 78209, Control_c, 0, 64, 61
2, 78224, Control_c, 0, 64, 64
2, 78239, Control_c, 0, 64, 67
2, 78255, Control_c, 0, 64, 70
2, 78270, Control_c, 0, 64, 75
2, 78286, Control_c, 0, 64, 78
2, 78301, Control_c, 0, 64, 80
2, 78316, Control_c, 0, 64, 82
2, 78325, Note_on_c, 0, 74, 0
2, 78332, Control_c, 0, 64, 83
2, 78347, Control_c, 0, 64, 84
2, 78353, Note_on_c, 0, 57, 0
2, 78362, Control_c, 0, 64, 85
2, 78377, Control_c, 0, 64, 86
2, 79114, Control_c, 0, 64, 85
2, 79130, Control_c, 0, 64, 85
2, 79131, Note_on_c, 0, 55, 31
2, 79144, Note_on_c, 0, 74, 55
2, 79145, Control_c, 0, 64, 84
2, 79159, Control_c, 0, 64, 82
2, 79175, Control_c, 0, 64, 80
2, 79190, Control_c, 0, 64, 76
2, 79206, Control_c, 0, 64, 70
2, 79221, Control_c, 0, 64, 62
2, 79236, Control_c, 0, 64, 0
2, 79355, Note_on_c, 0, 73, 62
2, 79368, Note_on_c, 0, 74, 0
2, 79482, Note_on_c, 0, 73, 0
2, 79490, Note_on_c, 0, 74, 62
2, 79607, Note_on_c, 0, 73, 72
2, 79633, Note_on_c, 0, 74, 0
2, 79744, Note_on_c, 0, 74, 73
2, 79751, Note_on_c, 0, 73, 0
2, 79878, Note_on_c, 0, 73, 72
2, 80085, Note_on_c, 0, 71, 66
2, 80125, Note_on_c, 0, 74, 0
2, 80157, Note_on_c, 0, 73, 0
2, 80221, Note_on_c, 0, 45, 0
2, 80282, Note_on_c, 0, 52, 0
2, 80284, Note_on_c, 0, 73, 70
2, 80590, Note_on_c, 0, 50, 44
2, 80667, Note_on_c, 0, 55, 0
2, 80873, Note_on_c, 0, 54, 40
2, 80886, Note_on_c, 0, 64, 0
2, 81004, Note_on_c, 0, 69, 0
2, 81138, Note_on_c, 0, 57, 46
2, 81407, Note_on_c, 0, 71, 0
2, 81454, Note_on_c, 0, 73, 0
2, 81456, Note_on_c, 0, 66, 62
2, 81986, Note_on_c, 0, 69, 58
2, 83218, Note_on_c, 0, 74, 44
2, 88758, Note_on_c, 0, 57, 0
2, 88770, Note_on_c, 0, 50, 0
2, 88803, Note_on_c, 0, 74, 0
2, 88822, Note_on_c, 0, 69, 0
2, 88850, Note_on_c, 0, 66, 0
2, 88864, Note_on_c, 0, 54, 0
2, 90052,End_track
0, 0, End_of_file
