0, 0, Header, 1, 2, 384
1, 0, Start_track
1, 0, Tempo, 500000
1, 0, Time_signature, 4, 2, 24, 8
1, 1, End_track
2, 0, Start_track
2, 0, Title_t, "Tario04-08.mid"
2, 0, Program_c, 0, 0
2, 523, Note_on_c, 0, 50, 47
2, 573, Note_on_c, 0, 50, 0
2, 622, Note_on_c, 0, 74, 46
2, 734, Note_on_c, 0, 76, 50
2, 762, Note_on_c, 0, 74, 0
2, 801, Note_on_c, 0, 76, 0
2, 804, Note_on_c, 0, 78, 63
2, 886, Note_on_c, 0, 78, 0
2, 913, Note_on_c, 0, 69, 62
2, 932, Note_on_c, 0, 62, 44
2, 960, Note_on_c, 0, 62, 0
2, 1006, Note_on_c, 0, 78, 57
2, 1026, Note_on_c, 0, 69, 0
2, 1095, Note_on_c, 0, 76, 55
2, 1149, Note_on_c, 0, 78, 0
2, 1178, Note_on_c, 0, 74, 57
2, 1200, Note_on_c, 0, 76, 0
2, 1273, Note_on_c, 0, 74, 0
2, 1289, Note_on_c, 0, 81, 67
2, 1308, Note_on_c, 0, 54, 46
2, 1369, Note_on_c, 0, 54, 0
2, 1389, Note_on_c, 0, 74, 58
2, 1398, Note_on_c, 0, 81, 0
2, 1479, Note_on_c, 0, 76, 56
2, 1489, Note_on_c, 0, 74, 0
2, 1559, Note_on_c, 0, 78, 66
2, 1561, Note_on_c, 0, 76, 0
2, 1639, Note_on_c, 0, 78, 0
2, 1667, Note_on_c, 0, 62, 51
2, 1668, Note_on_c, 0, 69, 60
2, 1706, Note_on_c, 0, 62, 0
2, 1761, Note_on_c, 0, 69, 0
2, 1775, Note_on_c, 0, 78, 60
2, 1854, Note_on_c, 0, 76, 54
2, 1877, Note_on_c, 0, 78, 0
2, 1936, Note_on_c, 0, 76, 0
2, 1942, Note_on_c, 0, 74, 56
2, 2014, Note_on_c, 0, 74, 0
2, 2038, Note_on_c, 0, 79, 61
2, 2043, Note_on_c, 0, 52, 45
2, 2092, Note_on_c, 0, 52, 0
2, 2124, Note_on_c, 0, 79, 0
2, 2131, Note_on_c, 0, 76, 57
2, 2211, Note_on_c, 0, 78, 65
2, 2253, Note_on_c, 0, 76, 0
2, 2312, Note_on_c, 0, 79, 60
2, 2361, Note_on_c, 0, 78, 0
2, 2388, Note_on_c, 0, 79, 0
2, 2414, Note_on_c, 0, 71, 60
2, 2416, Note_on_c, 0, 62, 44
2, 2452, Note_on_c, 0, 62, 0
2, 2491, Note_on_c, 0, 71, 0
2, 2510, Note_on_c, 0, 74, 56
2, 2586, Note_on_c, 0, 74, 0
2, 2596, Note_on_c, 0, 73, 62
2, 2667, Note_on_c, 0, 73, 0
2, 2698, Note_on_c, 0, 71, 55
2, 2773, Note_on_c, 0, 71, 0
2, 2792, Note_on_c, 0, 57, 44
2, 2792, Note_on_c, 0, 73, 61
2, 2836, Note_on_c, 0, 57, 0
2, 2875, Note_on_c, 0, 76, 60
2, 2923, Note_on_c, 0, 73, 0
2, 2967, Note_on_c, 0, 78, 63
2, 3019, Note_on_c, 0, 76, 0
2, 3058, Note_on_c, 0, 79, 67
2, 3079, Note_on_c, 0, 78, 0
2, 3130, Note_on_c, 0, 79, 0
2, 3157, Note_on_c, 0, 61, 55
2, 3158, Note_on_c, 0, 69, 62
2, 3203, Note_on_c, 0, 61, 0
2, 3245, Note_on_c, 0, 69, 0
2, 3259, Note_on_c, 0, 79, 58
2, 3351, Note_on_c, 0, 78, 61
2, 3351, Note_on_c, 0, 79, 0
2, 3428, Note_on_c, 0, 78, 0
2, 3443, Note_on_c, 0, 76, 57
2, 3522, Note_on_c, 0, 76, 0
2, 3538, Note_on_c, 0, 78, 61
2, 3542, Note_on_c, 0, 50, 40
2, 3582, Note_on_c, 0, 50, 0
2, 3604, Note_on_c, 0, 78, 0
2, 3623, Note_on_c, 0, 74, 51
2, 3722, Note_on_c, 0, 76, 55
2, 3741, Note_on_c, 0, 74, 0
2, 3801, Note_on_c, 0, 78, 67
2, 3803, Note_on_c, 0, 76, 0
2, 3865, Note_on_c, 0, 78, 0
2, 3899, Note_on_c, 0, 62, 53
2, 3901, Note_on_c, 0, 69, 67
2, 3934, Note_on_c, 0, 62, 0
2, 3975, Note_on_c, 0, 69, 0
2, 3990, Note_on_c, 0, 73, 54
2, 4089, Note_on_c, 0, 71, 56
2, 4109, Note_on_c, 0, 73, 0
2, 4162, Note_on_c, 0, 69, 70
2, 4163, Note_on_c, 0, 71, 0
2, 4226, Note_on_c, 0, 69, 0
2, 4265, Note_on_c, 0, 71, 65
2, 4268, Note_on_c, 0, 50, 49
2, 4305, Note_on_c, 0, 50, 0
2, 4331, Note_on_c, 0, 71, 0
2, 4341, Note_on_c, 0, 74, 65
2, 4439, Note_on_c, 0, 76, 51
2, 4486, Note_on_c, 0, 74, 0
2, 4500, Note_on_c, 0, 78, 78
2, 4538, Note_on_c, 0, 76, 0
2, 4594, Note_on_c, 0, 78, 0
2, 4606, Note_on_c, 0, 71, 71
2, 4613, Note_on_c, 0, 62, 55
2, 4638, Note_on_c, 0, 62, 0
2, 4678, Note_on_c, 0, 71, 0
2, 4678, Note_on_c, 0, 81, 73
2, 4780, Note_on_c, 0, 80, 74
2, 4823, Note_on_c, 0, 81, 0
2, 4879, Note_on_c, 0, 78, 76
2, 4888, Note_on_c, 0, 80, 0
2, 4981, Note_on_c, 0, 80, 73
2, 5002, Note_on_c, 0, 50, 31
2, 5002, Note_on_c, 0, 78, 0
2, 5038, Note_on_c, 0, 50, 0
2, 5071, Note_on_c, 0, 76, 62
2, 5072, Note_on_c, 0, 80, 0
2, 5161, Note_on_c, 0, 78, 65
2, 5202, Note_on_c, 0, 76, 0
2, 5244, Note_on_c, 0, 80, 69
2, 5289, Note_on_c, 0, 78, 0
2, 5306, Note_on_c, 0, 80, 0
2, 5342, Note_on_c, 0, 56, 48
2, 5343, Note_on_c, 0, 71, 62
2, 5387, Note_on_c, 0, 56, 0
2, 5406, Note_on_c, 0, 71, 0
2, 5413, Note_on_c, 0, 74, 64
2, 5517, Note_on_c, 0, 73, 61
2, 5533, Note_on_c, 0, 74, 0
2, 5598, Note_on_c, 0, 71, 63
2, 5629, Note_on_c, 0, 73, 0
2, 5676, Note_on_c, 0, 71, 0
2, 5695, Note_on_c, 0, 49, 49
2, 5700, Note_on_c, 0, 69, 60
2, 5739, Note_on_c, 0, 49, 0
2, 5782, Note_on_c, 0, 73, 55
2, 5791, Note_on_c, 0, 69, 0
2, 5879, Note_on_c, 0, 74, 59
2, 5936, Note_on_c, 0, 73, 0
2, 5959, Note_on_c, 0, 74, 0
2, 5969, Note_on_c, 0, 76, 63
2, 6044, Note_on_c, 0, 76, 0
2, 6078, Note_on_c, 0, 57, 42
2, 6088, Note_on_c, 0, 66, 67
2, 6107, Note_on_c, 0, 57, 0
2, 6146, Note_on_c, 0, 66, 0
2, 6167, Note_on_c, 0, 76, 58
2, 6238, Note_on_c, 0, 76, 0
2, 6246, Note_on_c, 0, 74, 55
2, 6319, Note_on_c, 0, 74, 0
2, 6347, Note_on_c, 0, 73, 56
2, 6401, Note_on_c, 0, 73, 0
2, 6415, Note_on_c, 0, 47, 47
2, 6433, Note_on_c, 0, 74, 49
2, 6454, Note_on_c, 0, 47, 0
2, 6491, Note_on_c, 0, 74, 0
2, 6509, Note_on_c, 0, 71, 53
2, 6598, Note_on_c, 0, 73, 58
2, 6601, Note_on_c, 0, 71, 0
2, 6680, Note_on_c, 0, 74, 57
2, 6700, Note_on_c, 0, 73, 0
2, 6729, Note_on_c, 0, 74, 0
2, 6776, Note_on_c, 0, 57, 47
2, 6776, Note_on_c, 0, 66, 58
2, 6805, Note_on_c, 0, 57, 0
2, 6825, Note_on_c, 0, 66, 0
2, 6854, Note_on_c, 0, 69, 58
2, 6928, Note_on_c, 0, 69, 0
2, 6946, Note_on_c, 0, 68, 60
2, 7010, Note_on_c, 0, 68, 0
2, 7035, Note_on_c, 0, 66, 57
2, 7112, Note_on_c, 0, 66, 0
2, 7135, Note_on_c, 0, 68, 54
2, 7165, Note_on_c, 0, 52, 49
2, 7203, Note_on_c, 0, 52, 0
2, 7221, Note_on_c, 0, 71, 57
2, 7235, Note_on_c, 0, 68, 0
2, 7302, Note_on_c, 0, 73, 61
2, 7335, Note_on_c, 0, 71, 0
2, 7390, Note_on_c, 0, 73, 0
2, 7398, Note_on_c, 0, 74, 57
2, 7450, Note_on_c, 0, 74, 0
2, 7480, Note_on_c, 0, 64, 54
2, 7517, Note_on_c, 0, 56, 44
2, 7555, Note_on_c, 0, 56, 0
2, 7563, Note_on_c, 0, 64, 0
2, 7576, Note_on_c, 0, 74, 55
2, 7655, Note_on_c, 0, 73, 52
2, 7662, Note_on_c, 0, 74, 0
2, 7730, Note_on_c, 0, 73, 0
2, 7753, Note_on_c, 0, 71, 55
2, 7845, Note_on_c, 0, 71, 0
2, 7867, Note_on_c, 0, 45, 40
2, 7869, Note_on_c, 0, 73, 55
2, 7901, Note_on_c, 0, 45, 0
2, 7918, Note_on_c, 0, 73, 0
2, 7945, Note_on_c, 0, 69, 52
2, 8046, Note_on_c, 0, 71, 52
2, 8050, Note_on_c, 0, 69, 0
2, 8120, Note_on_c, 0, 73, 60
2, 8155, Note_on_c, 0, 71, 0
2, 8175, Note_on_c, 0, 73, 0
2, 8221, Note_on_c, 0, 64, 60
2, 8223, Note_on_c, 0, 57, 51
2, 8252, Note_on_c, 0, 57, 0
2, 8279, Note_on_c, 0, 64, 0
2, 8301, Note_on_c, 0, 67, 59
2, 8362, Note_on_c, 0, 67, 0
2, 8380, Note_on_c, 0, 66, 65
2, 8446, Note_on_c, 0, 66, 0
2, 8479, Note_on_c, 0, 64, 56
2, 8561, Note_on_c, 0, 64, 0
2, 8569, Note_on_c, 0, 66, 55
2, 8570, Note_on_c, 0, 45, 41
2, 8611, Note_on_c, 0, 45, 0
2, 8643, Note_on_c, 0, 69, 62
2, 8683, Note_on_c, 0, 66, 0
2, 8748, Note_on_c, 0, 71, 55
2, 8775, Note_on_c, 0, 69, 0
2, 8830, Note_on_c, 0, 71, 0
2, 8831, Note_on_c, 0, 73, 64
2, 8887, Note_on_c, 0, 73, 0
2, 8926, Note_on_c, 0, 66, 64
2, 8933, Note_on_c, 0, 57, 46
2, 8959, Note_on_c, 0, 57, 0
2, 8981, Note_on_c, 0, 66, 0
2, 9023, Note_on_c, 0, 76, 63
2, 9100, Note_on_c, 0, 76, 0
2, 9103, Note_on_c, 0, 75, 62
2, 9182, Note_on_c, 0, 75, 0
2, 9194, Note_on_c, 0, 73, 63
2, 9271, Note_on_c, 0, 73, 0
2, 9287, Note_on_c, 0, 75, 55
2, 9291, Note_on_c, 0, 45, 45
2, 9329, Note_on_c, 0, 45, 0
2, 9353, Note_on_c, 0, 75, 0
2, 9382, Note_on_c, 0, 71, 51
2, 9474, Note_on_c, 0, 71, 0
2, 9475, Note_on_c, 0, 73, 52
2, 9545, Note_on_c, 0, 75, 59
2, 9603, Note_on_c, 0, 75, 0
2, 9609, Note_on_c, 0, 73, 0
2, 9631, Note_on_c, 0, 66, 63
2, 9655, Note_on_c, 0, 51, 50
2, 9663, Note_on_c, 0, 66, 0
2, 9688, Note_on_c, 0, 51, 0
2, 9719, Note_on_c, 0, 69, 65
2, 9800, Note_on_c, 0, 67, 67
2, 9844, Note_on_c, 0, 69, 0
2, 9884, Note_on_c, 0, 66, 71
2, 9886, Note_on_c, 0, 67, 0
2, 9980, Note_on_c, 0, 66, 0
2, 9987, Note_on_c, 0, 64, 60
2, 9992, Note_on_c, 0, 43, 43
2, 10037, Note_on_c, 0, 43, 0
2, 10062, Note_on_c, 0, 67, 59
2, 10064, Note_on_c, 0, 64, 0
2, 10153, Note_on_c, 0, 69, 62
2, 10170, Note_on_c, 0, 67, 0
2, 10225, Note_on_c, 0, 69, 0
2, 10240, Note_on_c, 0, 71, 56
2, 10284, Note_on_c, 0, 71, 0
2, 10355, Note_on_c, 0, 52, 42
2, 10381, Note_on_c, 0, 52, 0
2, 10441, Note_on_c, 0, 74, 46
2, 10511, Note_on_c, 0, 73, 58
2, 10591, Note_on_c, 0, 74, 0
2, 10612, Note_on_c, 0, 71, 54
2, 10685, Note_on_c, 0, 73, 0
2, 10703, Note_on_c, 0, 42, 41
2, 10703, Note_on_c, 0, 71, 0
2, 10714, Note_on_c, 0, 70, 59
2, 10756, Note_on_c, 0, 42, 0
2, 10758, Note_on_c, 0, 70, 0
2, 10796, Note_on_c, 0, 64, 53
2, 10869, Note_on_c, 0, 64, 0
2, 10881, Note_on_c, 0, 66, 60
2, 10969, Note_on_c, 0, 67, 58
2, 10986, Note_on_c, 0, 66, 0
2, 11028, Note_on_c, 0, 67, 0
2, 11071, Note_on_c, 0, 61, 56
2, 11080, Note_on_c, 0, 54, 45
2, 11111, Note_on_c, 0, 54, 0
2, 11144, Note_on_c, 0, 61, 0
2, 11150, Note_on_c, 0, 67, 53
2, 11238, Note_on_c, 0, 66, 57
2, 11238, Note_on_c, 0, 67, 0
2, 11317, Note_on_c, 0, 66, 0
2, 11325, Note_on_c, 0, 64, 50
2, 11380, Note_on_c, 0, 64, 0
2, 11423, Note_on_c, 0, 62, 61
2, 11435, Note_on_c, 0, 42, 44
2, 11470, Note_on_c, 0, 62, 0
2, 11478, Note_on_c, 0, 42, 0
2, 11489, Note_on_c, 0, 71, 58
2, 11580, Note_on_c, 0, 73, 57
2, 11605, Note_on_c, 0, 71, 0
2, 11658, Note_on_c, 0, 74, 57
2, 11698, Note_on_c, 0, 73, 0
2, 11722, Note_on_c, 0, 74, 0
2, 11763, Note_on_c, 0, 54, 52
2, 11765, Note_on_c, 0, 66, 64
2, 11807, Note_on_c, 0, 54, 0
2, 11839, Note_on_c, 0, 66, 0
2, 11858, Note_on_c, 0, 69, 62
2, 11938, Note_on_c, 0, 68, 64
2, 11948, Note_on_c, 0, 69, 0
2, 12028, Note_on_c, 0, 66, 65
2, 12032, Note_on_c, 0, 68, 0
2, 12094, Note_on_c, 0, 66, 0
2, 12124, Note_on_c, 0, 65, 62
2, 12128, Note_on_c, 0, 42, 42
2, 12183, Note_on_c, 0, 42, 0
2, 12210, Note_on_c, 0, 68, 61
2, 12213, Note_on_c, 0, 65, 0
2, 12287, Note_on_c, 0, 69, 60
2, 12348, Note_on_c, 0, 68, 0
2, 12375, Note_on_c, 0, 71, 67
2, 12376, Note_on_c, 0, 69, 0
2, 12449, Note_on_c, 0, 71, 0
2, 12478, Note_on_c, 0, 65, 72
2, 12492, Note_on_c, 0, 54, 44
2, 12527, Note_on_c, 0, 54, 0
2, 12536, Note_on_c, 0, 65, 0
2, 12563, Note_on_c, 0, 74, 60
2, 12624, Note_on_c, 0, 74, 0
2, 12636, Note_on_c, 0, 73, 68
2, 12690, Note_on_c, 0, 73, 0
2, 12726, Note_on_c, 0, 71, 69
2, 12783, Note_on_c, 0, 71, 0
2, 12814, Note_on_c, 0, 42, 54
2, 12819, Note_on_c, 0, 80, 70
2, 12875, Note_on_c, 0, 42, 0
2, 12896, Note_on_c, 0, 77, 72
2, 12917, Note_on_c, 0, 80, 0
2, 12989, Note_on_c, 0, 78, 76
2, 13032, Note_on_c, 0, 77, 0
2, 13064, Note_on_c, 0, 80, 72
2, 13081, Note_on_c, 0, 78, 0
2, 13150, Note_on_c, 0, 80, 0
2, 13162, Note_on_c, 0, 73, 67
2, 13169, Note_on_c, 0, 54, 51
2, 13202, Note_on_c, 0, 54, 0
2, 13235, Note_on_c, 0, 73, 0
2, 13255, Note_on_c, 0, 83, 65
2, 13333, Note_on_c, 0, 81, 67
2, 13342, Note_on_c, 0, 83, 0
2, 13422, Note_on_c, 0, 81, 0
2, 13431, Note_on_c, 0, 80, 63
2, 13521, Note_on_c, 0, 80, 0
2, 13531, Note_on_c, 0, 81, 61
2, 13542, Note_on_c, 0, 42, 38
2, 13599, Note_on_c, 0, 42, 0
2, 13603, Note_on_c, 0, 81, 0
2, 13612, Note_on_c, 0, 78, 61
2, 13709, Note_on_c, 0, 80, 57
2, 13747, Note_on_c, 0, 78, 0
2, 13789, Note_on_c, 0, 81, 60
2, 13807, Note_on_c, 0, 80, 0
2, 13845, Note_on_c, 0, 81, 0
2, 13893, Note_on_c, 0, 73, 53
2, 13905, Note_on_c, 0, 54, 35
2, 13946, Note_on_c, 0, 73, 0
2, 13955, Note_on_c, 0, 54, 0
2, 13997, Note_on_c, 0, 76, 48
2, 14056, Note_on_c, 0, 76, 0
2, 14081, Note_on_c, 0, 75, 52
2, 14134, Note_on_c, 0, 75, 0
2, 14173, Note_on_c, 0, 73, 51
2, 14260, Note_on_c, 0, 73, 0
2, 14287, Note_on_c, 0, 75, 46
2, 14289, Note_on_c, 0, 47, 16
2, 14359, Note_on_c, 0, 78, 57
2, 14373, Note_on_c, 0, 47, 0
2, 14401, Note_on_c, 0, 75, 0
2, 14446, Note_on_c, 0, 79, 55
2, 14449, Note_on_c, 0, 78, 0
2, 14516, Note_on_c, 0, 79, 0
2, 14534, Note_on_c, 0, 81, 60
2, 14581, Note_on_c, 0, 81, 0
2, 14629, Note_on_c, 0, 51, 47
2, 14638, Note_on_c, 0, 71, 51
2, 14672, Note_on_c, 0, 51, 0
2, 14699, Note_on_c, 0, 71, 0
2, 14718, Note_on_c, 0, 81, 51
2, 14809, Note_on_c, 0, 81, 0
2, 14827, Note_on_c, 0, 79, 51
2, 14903, Note_on_c, 0, 79, 0
2, 14916, Note_on_c, 0, 78, 62
2, 14996, Note_on_c, 0, 78, 0
2, 15023, Note_on_c, 0, 79, 55
2, 15029, Note_on_c, 0, 40, 33
2, 15064, Note_on_c, 0, 40, 0
2, 15083, Note_on_c, 0, 79, 0
2, 15104, Note_on_c, 0, 76, 53
2, 15193, Note_on_c, 0, 78, 60
2, 15198, Note_on_c, 0, 76, 0
2, 15275, Note_on_c, 0, 79, 63
2, 15286, Note_on_c, 0, 78, 0
2, 15336, Note_on_c, 0, 79, 0
2, 15385, Note_on_c, 0, 71, 58
2, 15394, Note_on_c, 0, 52, 40
2, 15422, Note_on_c, 0, 52, 0
2, 15436, Note_on_c, 0, 71, 0
2, 15476, Note_on_c, 0, 74, 51
2, 15558, Note_on_c, 0, 72, 61
2, 15574, Note_on_c, 0, 74, 0
2, 15620, Note_on_c, 0, 72, 0
2, 15637, Note_on_c, 0, 71, 61
2, 15684, Note_on_c, 0, 71, 0
2, 15742, Note_on_c, 0, 40, 43
2, 15747, Note_on_c, 0, 72, 56
2, 15802, Note_on_c, 0, 72, 0
2, 15809, Note_on_c, 0, 40, 0
2, 15821, Note_on_c, 0, 75, 57
2, 15892, Note_on_c, 0, 76, 64
2, 15902, Note_on_c, 0, 75, 0
2, 15990, Note_on_c, 0, 78, 70
2, 16039, Note_on_c, 0, 76, 0
2, 16061, Note_on_c, 0, 78, 0
2, 16090, Note_on_c, 0, 69, 73
2, 16091, Note_on_c, 0, 51, 51
2, 16163, Note_on_c, 0, 69, 0
2, 16179, Note_on_c, 0, 72, 62
2, 16185, Note_on_c, 0, 51, 0
2, 16268, Note_on_c, 0, 71, 67
2, 16323, Note_on_c, 0, 72, 0
2, 16346, Note_on_c, 0, 69, 73
2, 16354, Note_on_c, 0, 71, 0
2, 16416, Note_on_c, 0, 69, 0
2, 16446, Note_on_c, 0, 40, 53
2, 16447, Note_on_c, 0, 67, 70
2, 16510, Note_on_c, 0, 40, 0
2, 16512, Note_on_c, 0, 67, 0
2, 16519, Note_on_c, 0, 76, 67
2, 16604, Note_on_c, 0, 78, 76
2, 16687, Note_on_c, 0, 76, 0
2, 16690, Note_on_c, 0, 79, 75
2, 16754, Note_on_c, 0, 78, 0
2, 16789, Note_on_c, 0, 71, 68
2, 16791, Note_on_c, 0, 79, 0
2, 16813, Note_on_c, 0, 52, 55
2, 16841, Note_on_c, 0, 52, 0
2, 16876, Note_on_c, 0, 71, 0
2, 16880, Note_on_c, 0, 74, 68
2, 16960, Note_on_c, 0, 74, 0
2, 16968, Note_on_c, 0, 73, 69
2, 17055, Note_on_c, 0, 73, 0
2, 17083, Note_on_c, 0, 71, 60
2, 17154, Note_on_c, 0, 45, 39
2, 17161, Note_on_c, 0, 71, 0
2, 17183, Note_on_c, 0, 73, 56
2, 17202, Note_on_c, 0, 45, 0
2, 17255, Note_on_c, 0, 76, 58
2, 17299, Note_on_c, 0, 73, 0
2, 17338, Note_on_c, 0, 78, 66
2, 17355, Note_on_c, 0, 76, 0
2, 17426, Note_on_c, 0, 79, 59
2, 17430, Note_on_c, 0, 78, 0
2, 17473, Note_on_c, 0, 79, 0
2, 17511, Note_on_c, 0, 69, 57
2, 17518, Note_on_c, 0, 49, 43
2, 17565, Note_on_c, 0, 49, 0
2, 17585, Note_on_c, 0, 69, 0
2, 17603, Note_on_c, 0, 79, 56
2, 17685, Note_on_c, 0, 79, 0
2, 17689, Note_on_c, 0, 78, 57
2, 17762, Note_on_c, 0, 78, 0
2, 17783, Note_on_c, 0, 76, 50
2, 17865, Note_on_c, 0, 76, 0
2, 17902, Note_on_c, 0, 78, 54
2, 17904, Note_on_c, 0, 38, 29
2, 17946, Note_on_c, 0, 38, 0
2, 17947, Note_on_c, 0, 78, 0
2, 17978, Note_on_c, 0, 74, 52
2, 18077, Note_on_c, 0, 76, 54
2, 18086, Note_on_c, 0, 74, 0
2, 18148, Note_on_c, 0, 78, 63
2, 18161, Note_on_c, 0, 76, 0
2, 18221, Note_on_c, 0, 78, 0
2, 18256, Note_on_c, 0, 69, 59
2, 18267, Note_on_c, 0, 50, 40
2, 18295, Note_on_c, 0, 50, 0
2, 18306, Note_on_c, 0, 69, 0
2, 18342, Note_on_c, 0, 72, 60
2, 18434, Note_on_c, 0, 71, 58
2, 18451, Note_on_c, 0, 72, 0
2, 18503, Note_on_c, 0, 71, 0
2, 18510, Note_on_c, 0, 69, 62
2, 18570, Note_on_c, 0, 69, 0
2, 18607, Note_on_c, 0, 38, 40
2, 18618, Note_on_c, 0, 71, 58
2, 18650, Note_on_c, 0, 38, 0
2, 18686, Note_on_c, 0, 71, 0
2, 18695, Note_on_c, 0, 67, 65
2, 18782, Note_on_c, 0, 69, 66
2, 18794, Note_on_c, 0, 67, 0
2, 18848, Note_on_c, 0, 69, 0
2, 18857, Note_on_c, 0, 71, 63
2, 18925, Note_on_c, 0, 71, 0
2, 18950, Note_on_c, 0, 50, 43
2, 18952, Note_on_c, 0, 61, 66
2, 18983, Note_on_c, 0, 50, 0
2, 18986, Note_on_c, 0, 61, 0
2, 19038, Note_on_c, 0, 71, 67
2, 19126, Note_on_c, 0, 69, 59
2, 19180, Note_on_c, 0, 71, 0
2, 19197, Note_on_c, 0, 67, 56
2, 19252, Note_on_c, 0, 69, 0
2, 19277, Note_on_c, 0, 38, 33
2, 19294, Note_on_c, 0, 67, 0
2, 19296, Note_on_c, 0, 66, 67
2, 19331, Note_on_c, 0, 38, 0
2, 19370, Note_on_c, 0, 66, 0
2, 19387, Note_on_c, 0, 62, 64
2, 19451, Note_on_c, 0, 62, 0
2, 19468, Note_on_c, 0, 64, 51
2, 19523, Note_on_c, 0, 64, 0
2, 19541, Note_on_c, 0, 66, 67
2, 19604, Note_on_c, 0, 66, 0
2, 19649, Note_on_c, 0, 57, 59
2, 19659, Note_on_c, 0, 50, 36
2, 19691, Note_on_c, 0, 50, 0
2, 19716, Note_on_c, 0, 57, 0
2, 19734, Note_on_c, 0, 60, 53
2, 19823, Note_on_c, 0, 59, 60
2, 19842, Note_on_c, 0, 60, 0
2, 19875, Note_on_c, 0, 59, 0
2, 19889, Note_on_c, 0, 57, 60
2, 19936, Note_on_c, 0, 57, 0
2, 19980, Note_on_c, 0, 38, 46
2, 19991, Note_on_c, 0, 59, 63
2, 20035, Note_on_c, 0, 38, 0
2, 20050, Note_on_c, 0, 59, 0
2, 20063, Note_on_c, 0, 62, 57
2, 20148, Note_on_c, 0, 64, 56
2, 20188, Note_on_c, 0, 62, 0
2, 20216, Note_on_c, 0, 66, 63
2, 20222, Note_on_c, 0, 64, 0
2, 20286, Note_on_c, 0, 66, 0
2, 20325, Note_on_c, 0, 59, 63
2, 20347, Note_on_c, 0, 50, 28
2, 20374, Note_on_c, 0, 59, 0
2, 20385, Note_on_c, 0, 50, 0
2, 20413, Note_on_c, 0, 71, 44
2, 20421, Note_on_c, 0, 69, 44
2, 20461, Note_on_c, 0, 69, 0
2, 20461, Note_on_c, 0, 71, 0
2, 20472, Note_on_c, 0, 68, 62
2, 20569, Note_on_c, 0, 68, 0
2, 20659, Note_on_c, 0, 68, 13
2, 20691, Note_on_c, 0, 38, 45
2, 20744, Note_on_c, 0, 38, 0
2, 20783, Note_on_c, 0, 68, 0
2, 20833, Note_on_c, 0, 64, 24
2, 20843, Note_on_c, 0, 65, 28
2, 20879, Note_on_c, 0, 64, 0
2, 20891, Note_on_c, 0, 65, 0
2, 20907, Note_on_c, 0, 66, 57
2, 20946, Note_on_c, 0, 68, 51
2, 20968, Note_on_c, 0, 66, 0
2, 20991, Note_on_c, 0, 68, 0
2, 21041, Note_on_c, 0, 59, 62
2, 21043, Note_on_c, 0, 56, 51
2, 21089, Note_on_c, 0, 56, 0
2, 21115, Note_on_c, 0, 59, 0
2, 21161, Note_on_c, 0, 62, 52
2, 21237, Note_on_c, 0, 62, 0
2, 21242, Note_on_c, 0, 60, 40
2, 21261, Note_on_c, 0, 59, 28
2, 21304, Note_on_c, 0, 60, 0
2, 21309, Note_on_c, 0, 59, 0
2, 21309, Note_on_c, 0, 59, 23
2, 21380, Note_on_c, 0, 59, 0
2, 21870, Note_on_c, 0, 68, 55
2, 21966, Note_on_c, 0, 68, 0
2, 21996, Note_on_c, 0, 64, 40
2, 22084, Note_on_c, 0, 66, 53
2, 22092, Note_on_c, 0, 64, 0
2, 22148, Note_on_c, 0, 68, 46
2, 22167, Note_on_c, 0, 66, 0
2, 22181, Note_on_c, 0, 68, 0
2, 22230, Note_on_c, 0, 50, 35
2, 22247, Note_on_c, 0, 57, 46
2, 22258, Note_on_c, 0, 50, 0
2, 22284, Note_on_c, 0, 57, 0
2, 22328, Note_on_c, 0, 60, 36
2, 22389, Note_on_c, 0, 59, 61
2, 22402, Note_on_c, 0, 60, 0
2, 22447, Note_on_c, 0, 59, 0
2, 22476, Note_on_c, 0, 57, 53
2, 22513, Note_on_c, 0, 57, 0
2, 22574, Note_on_c, 0, 59, 50
2, 22610, Note_on_c, 0, 59, 0
2, 22619, Note_on_c, 0, 52, 35
2, 22653, Note_on_c, 0, 62, 51
2, 22661, Note_on_c, 0, 52, 0
2, 22713, Note_on_c, 0, 62, 0
2, 25207, Note_on_c, 0, 50, 36
2, 25251, Note_on_c, 0, 50, 0
2, 25292, Note_on_c, 0, 74, 41
2, 25415, Note_on_c, 0, 76, 39
2, 25422, Note_on_c, 0, 74, 0
2, 25468, Note_on_c, 0, 76, 0
2, 25496, Note_on_c, 0, 78, 55
2, 25575, Note_on_c, 0, 78, 0
2, 25597, Note_on_c, 0, 62, 40
2, 25618, Note_on_c, 0, 69, 53
2, 25628, Note_on_c, 0, 62, 0
2, 25706, Note_on_c, 0, 78, 60
2, 25711, Note_on_c, 0, 69, 0
2, 25783, Note_on_c, 0, 76, 52
2, 25828, Note_on_c, 0, 78, 0
2, 25858, Note_on_c, 0, 74, 58
2, 25871, Note_on_c, 0, 76, 0
2, 25946, Note_on_c, 0, 74, 0
2, 25959, Note_on_c, 0, 81, 69
2, 25965, Note_on_c, 0, 54, 51
2, 26012, Note_on_c, 0, 54, 0
2, 26043, Note_on_c, 0, 74, 61
2, 26072, Note_on_c, 0, 81, 0
2, 26135, Note_on_c, 0, 76, 66
2, 26169, Note_on_c, 0, 74, 0
2, 26213, Note_on_c, 0, 78, 72
2, 26223, Note_on_c, 0, 76, 0
2, 26304, Note_on_c, 0, 78, 0
2, 26323, Note_on_c, 0, 69, 66
2, 26333, Note_on_c, 0, 62, 50
2, 26356, Note_on_c, 0, 62, 0
2, 26414, Note_on_c, 0, 69, 0
2, 26415, Note_on_c, 0, 78, 70
2, 26498, Note_on_c, 0, 76, 63
2, 26551, Note_on_c, 0, 78, 0
2, 26572, Note_on_c, 0, 74, 65
2, 26586, Note_on_c, 0, 76, 0
2, 26654, Note_on_c, 0, 74, 0
2, 26656, Note_on_c, 0, 79, 67
2, 26694, Note_on_c, 0, 52, 36
2, 26732, Note_on_c, 0, 52, 0
2, 26747, Note_on_c, 0, 76, 60
2, 26759, Note_on_c, 0, 79, 0
2, 26820, Note_on_c, 0, 78, 70
2, 26893, Note_on_c, 0, 76, 0
2, 26913, Note_on_c, 0, 79, 67
2, 26974, Note_on_c, 0, 78, 0
2, 26990, Note_on_c, 0, 79, 0
2, 27015, Note_on_c, 0, 62, 51
2, 27021, Note_on_c, 0, 71, 61
2, 27066, Note_on_c, 0, 62, 0
2, 27106, Note_on_c, 0, 71, 0
2, 27118, Note_on_c, 0, 74, 61
2, 27193, Note_on_c, 0, 74, 0
2, 27202, Note_on_c, 0, 73, 66
2, 27282, Note_on_c, 0, 73, 0
2, 27302, Note_on_c, 0, 71, 58
2, 27389, Note_on_c, 0, 57, 40
2, 27391, Note_on_c, 0, 71, 0
2, 27392, Note_on_c, 0, 73, 64
2, 27429, Note_on_c, 0, 57, 0
2, 27472, Note_on_c, 0, 76, 64
2, 27539, Note_on_c, 0, 73, 0
2, 27552, Note_on_c, 0, 78, 70
2, 27620, Note_on_c, 0, 76, 0
2, 27645, Note_on_c, 0, 79, 73
2, 27675, Note_on_c, 0, 78, 0
2, 27723, Note_on_c, 0, 79, 0
2, 27750, Note_on_c, 0, 69, 70
2, 27753, Note_on_c, 0, 61, 56
2, 27794, Note_on_c, 0, 61, 0
2, 27839, Note_on_c, 0, 69, 0
2, 27842, Note_on_c, 0, 79, 67
2, 27924, Note_on_c, 0, 78, 72
2, 27959, Note_on_c, 0, 79, 0
2, 28012, Note_on_c, 0, 76, 71
2, 28018, Note_on_c, 0, 78, 0
2, 28103, Note_on_c, 0, 76, 0
2, 28119, Note_on_c, 0, 78, 69
2, 28128, Note_on_c, 0, 50, 44
2, 28175, Note_on_c, 0, 50, 0
2, 28193, Note_on_c, 0, 78, 0
2, 28194, Note_on_c, 0, 74, 65
2, 28287, Note_on_c, 0, 76, 69
2, 28333, Note_on_c, 0, 74, 0
2, 28368, Note_on_c, 0, 78, 71
2, 28397, Note_on_c, 0, 76, 0
2, 28434, Note_on_c, 0, 78, 0
2, 28464, Note_on_c, 0, 62, 54
2, 28473, Note_on_c, 0, 69, 68
2, 28507, Note_on_c, 0, 62, 0
2, 28550, Note_on_c, 0, 69, 0
2, 28553, Note_on_c, 0, 73, 62
2, 28655, Note_on_c, 0, 71, 62
2, 28679, Note_on_c, 0, 73, 0
2, 28719, Note_on_c, 0, 69, 67
2, 28722, Note_on_c, 0, 71, 0
2, 28786, Note_on_c, 0, 69, 0
2, 28811, Note_on_c, 0, 50, 49
2, 28827, Note_on_c, 0, 71, 72
2, 28861, Note_on_c, 0, 50, 0
2, 28901, Note_on_c, 0, 71, 0
2, 28907, Note_on_c, 0, 74, 71
2, 28978, Note_on_c, 0, 76, 68
2, 29047, Note_on_c, 0, 74, 0
2, 29054, Note_on_c, 0, 78, 79
2, 29083, Note_on_c, 0, 76, 0
2, 29148, Note_on_c, 0, 78, 0
2, 29153, Note_on_c, 0, 62, 58
2, 29158, Note_on_c, 0, 71, 71
2, 29191, Note_on_c, 0, 62, 0
2, 29229, Note_on_c, 0, 81, 70
2, 29238, Note_on_c, 0, 71, 0
2, 29318, Note_on_c, 0, 80, 75
2, 29375, Note_on_c, 0, 81, 0
2, 29420, Note_on_c, 0, 78, 78
2, 29434, Note_on_c, 0, 80, 0
2, 29521, Note_on_c, 0, 80, 72
2, 29527, Note_on_c, 0, 78, 0
2, 29529, Note_on_c, 0, 50, 47
2, 29562, Note_on_c, 0, 50, 0
2, 29602, Note_on_c, 0, 76, 68
2, 29616, Note_on_c, 0, 80, 0
2, 29687, Note_on_c, 0, 78, 72
2, 29743, Note_on_c, 0, 76, 0
2, 29764, Note_on_c, 0, 80, 72
2, 29826, Note_on_c, 0, 78, 0
2, 29842, Note_on_c, 0, 80, 0
2, 29877, Note_on_c, 0, 56, 54
2, 29880, Note_on_c, 0, 71, 69
2, 29925, Note_on_c, 0, 56, 0
2, 29942, Note_on_c, 0, 71, 0
2, 29953, Note_on_c, 0, 74, 62
2, 30050, Note_on_c, 0, 73, 67
2, 30086, Note_on_c, 0, 74, 0
2, 30128, Note_on_c, 0, 71, 73
2, 30162, Note_on_c, 0, 73, 0
2, 30215, Note_on_c, 0, 71, 0
2, 30232, Note_on_c, 0, 69, 71
2, 30241, Note_on_c, 0, 49, 51
2, 30306, Note_on_c, 0, 49, 0
2, 30312, Note_on_c, 0, 73, 62
2, 30336, Note_on_c, 0, 69, 0
2, 30395, Note_on_c, 0, 74, 67
2, 30455, Note_on_c, 0, 73, 0
2, 30485, Note_on_c, 0, 76, 69
2, 30510, Note_on_c, 0, 74, 0
2, 30565, Note_on_c, 0, 76, 0
2, 30575, Note_on_c, 0, 57, 56
2, 30580, Note_on_c, 0, 66, 68
2, 30611, Note_on_c, 0, 57, 0
2, 30639, Note_on_c, 0, 66, 0
2, 30675, Note_on_c, 0, 76, 67
2, 30744, Note_on_c, 0, 74, 60
2, 30752, Note_on_c, 0, 76, 0
2, 30822, Note_on_c, 0, 74, 0
2, 30834, Note_on_c, 0, 73, 63
2, 30911, Note_on_c, 0, 73, 0
2, 30929, Note_on_c, 0, 74, 53
2, 30940, Note_on_c, 0, 47, 51
2, 30990, Note_on_c, 0, 47, 0
2, 31002, Note_on_c, 0, 74, 0
2, 31014, Note_on_c, 0, 71, 61
2, 31103, Note_on_c, 0, 71, 0
2, 31103, Note_on_c, 0, 73, 64
2, 31190, Note_on_c, 0, 74, 60
2, 31220, Note_on_c, 0, 73, 0
2, 31260, Note_on_c, 0, 74, 0
2, 31294, Note_on_c, 0, 66, 62
2, 31304, Note_on_c, 0, 57, 44
2, 31344, Note_on_c, 0, 57, 0
2, 31365, Note_on_c, 0, 66, 0
2, 31384, Note_on_c, 0, 69, 62
2, 31453, Note_on_c, 0, 69, 0
2, 31463, Note_on_c, 0, 68, 68
2, 31535, Note_on_c, 0, 68, 0
2, 31553, Note_on_c, 0, 66, 66
2, 31649, Note_on_c, 0, 66, 0
2, 31660, Note_on_c, 0, 68, 68
2, 31661, Note_on_c, 0, 52, 46
2, 31702, Note_on_c, 0, 52, 0
2, 31744, Note_on_c, 0, 71, 60
2, 31789, Note_on_c, 0, 68, 0
2, 31815, Note_on_c, 0, 73, 68
2, 31857, Note_on_c, 0, 71, 0
2, 31895, Note_on_c, 0, 74, 64
2, 31923, Note_on_c, 0, 73, 0
2, 31962, Note_on_c, 0, 74, 0
2, 31981, Note_on_c, 0, 64, 63
2, 32009, Note_on_c, 0, 56, 48
2, 32050, Note_on_c, 0, 56, 0
2, 32069, Note_on_c, 0, 64, 0
2, 32076, Note_on_c, 0, 74, 60
2, 32160, Note_on_c, 0, 74, 0
2, 32161, Note_on_c, 0, 73, 62
2, 32244, Note_on_c, 0, 73, 0
2, 32262, Note_on_c, 0, 71, 53
2, 32332, Note_on_c, 0, 71, 0
2, 32340, Note_on_c, 0, 45, 42
2, 32350, Note_on_c, 0, 73, 56
2, 32390, Note_on_c, 0, 45, 0
2, 32424, Note_on_c, 0, 73, 0
2, 32436, Note_on_c, 0, 69, 60
2, 32529, Note_on_c, 0, 71, 58
2, 32546, Note_on_c, 0, 69, 0
2, 32598, Note_on_c, 0, 73, 65
2, 32639, Note_on_c, 0, 71, 0
2, 32668, Note_on_c, 0, 73, 0
2, 32699, Note_on_c, 0, 64, 65
2, 32703, Note_on_c, 0, 57, 49
2, 32744, Note_on_c, 0, 57, 0
2, 32772, Note_on_c, 0, 64, 0
2, 32780, Note_on_c, 0, 67, 62
2, 32838, Note_on_c, 0, 67, 0
2, 32847, Note_on_c, 0, 66, 67
2, 32913, Note_on_c, 0, 66, 0
2, 32944, Note_on_c, 0, 64, 64
2, 33018, Note_on_c, 0, 45, 44
2, 33020, Note_on_c, 0, 64, 0
2, 33026, Note_on_c, 0, 66, 63
2, 33063, Note_on_c, 0, 45, 0
2, 33089, Note_on_c, 0, 69, 62
2, 33130, Note_on_c, 0, 66, 0
2, 33184, Note_on_c, 0, 71, 62
2, 33217, Note_on_c, 0, 69, 0
2, 33264, Note_on_c, 0, 73, 68
2, 33270, Note_on_c, 0, 71, 0
2, 33319, Note_on_c, 0, 73, 0
2, 33364, Note_on_c, 0, 66, 64
2, 33366, Note_on_c, 0, 57, 46
2, 33393, Note_on_c, 0, 57, 0
2, 33409, Note_on_c, 0, 66, 0
2, 33451, Note_on_c, 0, 76, 68
2, 33529, Note_on_c, 0, 75, 66
2, 33529, Note_on_c, 0, 76, 0
2, 33610, Note_on_c, 0, 75, 0
2, 33619, Note_on_c, 0, 73, 65
2, 33703, Note_on_c, 0, 73, 0
2, 33723, Note_on_c, 0, 75, 58
2, 33731, Note_on_c, 0, 45, 38
2, 33766, Note_on_c, 0, 45, 0
2, 33788, Note_on_c, 0, 75, 0
2, 33789, Note_on_c, 0, 71, 55
2, 33877, Note_on_c, 0, 71, 0
2, 33882, Note_on_c, 0, 73, 60
2, 33971, Note_on_c, 0, 75, 59
2, 33979, Note_on_c, 0, 73, 0
2, 34043, Note_on_c, 0, 75, 0
2, 34072, Note_on_c, 0, 66, 61
2, 34075, Note_on_c, 0, 51, 49
2, 34102, Note_on_c, 0, 66, 0
2, 34111, Note_on_c, 0, 51, 0
2, 34161, Note_on_c, 0, 69, 59
2, 34238, Note_on_c, 0, 67, 64
2, 34274, Note_on_c, 0, 69, 0
2, 34311, Note_on_c, 0, 67, 0
2, 34316, Note_on_c, 0, 66, 69
2, 34398, Note_on_c, 0, 66, 0
2, 34414, Note_on_c, 0, 43, 38
2, 34416, Note_on_c, 0, 64, 59
2, 34463, Note_on_c, 0, 43, 0
2, 34480, Note_on_c, 0, 67, 59
2, 34487, Note_on_c, 0, 64, 0
2, 34557, Note_on_c, 0, 69, 67
2, 34585, Note_on_c, 0, 67, 0
2, 34633, Note_on_c, 0, 69, 0
2, 34649, Note_on_c, 0, 71, 54
2, 34696, Note_on_c, 0, 71, 0
2, 34768, Note_on_c, 0, 52, 49
2, 34771, Note_on_c, 0, 61, 52
2, 34802, Note_on_c, 0, 52, 0
2, 34804, Note_on_c, 0, 61, 0
2, 34855, Note_on_c, 0, 74, 61
2, 34937, Note_on_c, 0, 73, 55
2, 35003, Note_on_c, 0, 74, 0
2, 35023, Note_on_c, 0, 71, 59
2, 35102, Note_on_c, 0, 73, 0
2, 35111, Note_on_c, 0, 71, 0
2, 35117, Note_on_c, 0, 70, 67
2, 35120, Note_on_c, 0, 42, 37
2, 35172, Note_on_c, 0, 70, 0
2, 35176, Note_on_c, 0, 42, 0
2, 35209, Note_on_c, 0, 64, 55
2, 35266, Note_on_c, 0, 64, 0
2, 35291, Note_on_c, 0, 66, 64
2, 35364, Note_on_c, 0, 67, 65
2, 35367, Note_on_c, 0, 66, 0
2, 35444, Note_on_c, 0, 67, 0
2, 35469, Note_on_c, 0, 54, 45
2, 35488, Note_on_c, 0, 61, 54
2, 35522, Note_on_c, 0, 54, 0
2, 35547, Note_on_c, 0, 61, 0
2, 35562, Note_on_c, 0, 67, 49
2, 35619, Note_on_c, 0, 67, 0
2, 35642, Note_on_c, 0, 66, 55
2, 35721, Note_on_c, 0, 66, 0
2, 35727, Note_on_c, 0, 64, 58
2, 35793, Note_on_c, 0, 64, 0
2, 35839, Note_on_c, 0, 62, 59
2, 35844, Note_on_c, 0, 42, 36
2, 35878, Note_on_c, 0, 62, 0
2, 35914, Note_on_c, 0, 42, 0
2, 35923, Note_on_c, 0, 71, 46
2, 36000, Note_on_c, 0, 73, 55
2, 36032, Note_on_c, 0, 71, 0
2, 36079, Note_on_c, 0, 74, 60
2, 36106, Note_on_c, 0, 73, 0
2, 36125, Note_on_c, 0, 74, 0
2, 36176, Note_on_c, 0, 54, 50
2, 36186, Note_on_c, 0, 66, 63
2, 36217, Note_on_c, 0, 54, 0
2, 36254, Note_on_c, 0, 66, 0
2, 36284, Note_on_c, 0, 69, 59
2, 36349, Note_on_c, 0, 69, 0
2, 36355, Note_on_c, 0, 68, 62
2, 36437, Note_on_c, 0, 68, 0
2, 36447, Note_on_c, 0, 66, 57
2, 36504, Note_on_c, 0, 66, 0
2, 36539, Note_on_c, 0, 65, 59
2, 36551, Note_on_c, 0, 42, 38
2, 36608, Note_on_c, 0, 42, 0
2, 36608, Note_on_c, 0, 65, 0
2, 36617, Note_on_c, 0, 68, 58
2, 36701, Note_on_c, 0, 69, 58
2, 36733, Note_on_c, 0, 68, 0
2, 36785, Note_on_c, 0, 69, 0
2, 36786, Note_on_c, 0, 71, 65
2, 36855, Note_on_c, 0, 71, 0
2, 36888, Note_on_c, 0, 65, 65
2, 36890, Note_on_c, 0, 54, 47
2, 36932, Note_on_c, 0, 54, 0
2, 36939, Note_on_c, 0, 65, 0
2, 36974, Note_on_c, 0, 74, 57
2, 37034, Note_on_c, 0, 74, 0
2, 37059, Note_on_c, 0, 73, 60
2, 37107, Note_on_c, 0, 73, 0
2, 37231, Note_on_c, 0, 42, 39
2, 37250, Note_on_c, 0, 80, 56
2, 37281, Note_on_c, 0, 42, 0
2, 37303, Note_on_c, 0, 80, 0
2, 37321, Note_on_c, 0, 77, 58
2, 37413, Note_on_c, 0, 77, 0
2, 37419, Note_on_c, 0, 78, 60
2, 37476, Note_on_c, 0, 78, 0
2, 37492, Note_on_c, 0, 80, 54
2, 37560, Note_on_c, 0, 80, 0
2, 37592, Note_on_c, 0, 73, 56
2, 37605, Note_on_c, 0, 54, 34
2, 37636, Note_on_c, 0, 73, 0
2, 37649, Note_on_c, 0, 54, 0
2, 37682, Note_on_c, 0, 83, 52
2, 37726, Note_on_c, 0, 83, 0
2, 37755, Note_on_c, 0, 81, 54
2, 37827, Note_on_c, 0, 81, 0
2, 37847, Note_on_c, 0, 80, 59
2, 37927, Note_on_c, 0, 80, 0
2, 37939, Note_on_c, 0, 42, 38
2, 37949, Note_on_c, 0, 81, 55
2, 37995, Note_on_c, 0, 81, 0
2, 37998, Note_on_c, 0, 42, 0
2, 38013, Note_on_c, 0, 78, 61
2, 38111, Note_on_c, 0, 80, 59
2, 38132, Note_on_c, 0, 78, 0
2, 38191, Note_on_c, 0, 81, 58
2, 38242, Note_on_c, 0, 80, 0
2, 38250, Note_on_c, 0, 81, 0
2, 38298, Note_on_c, 0, 73, 55
2, 38301, Note_on_c, 0, 54, 33
2, 38340, Note_on_c, 0, 54, 0
2, 38363, Note_on_c, 0, 73, 0
2, 38387, Note_on_c, 0, 76, 59
2, 38445, Note_on_c, 0, 76, 0
2, 38473, Note_on_c, 0, 75, 59
2, 38537, Note_on_c, 0, 75, 0
2, 38569, Note_on_c, 0, 73, 62
2, 38647, Note_on_c, 0, 73, 0
2, 38667, Note_on_c, 0, 47, 37
2, 38673, Note_on_c, 0, 75, 53
2, 38722, Note_on_c, 0, 47, 0
2, 38740, Note_on_c, 0, 78, 61
2, 38780, Note_on_c, 0, 75, 0
2, 38821, Note_on_c, 0, 79, 61
2, 38847, Note_on_c, 0, 78, 0
2, 38896, Note_on_c, 0, 79, 0
2, 38902, Note_on_c, 0, 81, 66
2, 38961, Note_on_c, 0, 81, 0
2, 39004, Note_on_c, 0, 51, 34
2, 39013, Note_on_c, 0, 71, 53
2, 39049, Note_on_c, 0, 51, 0
2, 39062, Note_on_c, 0, 71, 0
2, 39084, Note_on_c, 0, 81, 59
2, 39150, Note_on_c, 0, 81, 0
2, 39171, Note_on_c, 0, 79, 53
2, 39248, Note_on_c, 0, 79, 0
2, 39259, Note_on_c, 0, 78, 62
2, 39346, Note_on_c, 0, 78, 0
2, 39381, Note_on_c, 0, 79, 51
2, 39391, Note_on_c, 0, 40, 30
2, 39430, Note_on_c, 0, 79, 0
2, 39445, Note_on_c, 0, 40, 0
2, 39455, Note_on_c, 0, 76, 54
2, 39550, Note_on_c, 0, 76, 0
2, 39553, Note_on_c, 0, 78, 58
2, 39629, Note_on_c, 0, 79, 61
2, 39639, Note_on_c, 0, 78, 0
2, 39699, Note_on_c, 0, 79, 0
2, 39747, Note_on_c, 0, 52, 39
2, 39750, Note_on_c, 0, 71, 57
2, 39777, Note_on_c, 0, 52, 0
2, 39798, Note_on_c, 0, 71, 0
2, 39830, Note_on_c, 0, 74, 50
2, 39910, Note_on_c, 0, 72, 61
2, 39930, Note_on_c, 0, 74, 0
2, 39967, Note_on_c, 0, 72, 0
2, 39987, Note_on_c, 0, 71, 60
2, 40040, Note_on_c, 0, 71, 0
2, 40108, Note_on_c, 0, 72, 57
2, 40113, Note_on_c, 0, 40, 42
2, 40168, Note_on_c, 0, 72, 0
2, 40190, Note_on_c, 0, 40, 0
2, 40192, Note_on_c, 0, 75, 56
2, 40266, Note_on_c, 0, 76, 61
2, 40272, Note_on_c, 0, 75, 0
2, 40367, Note_on_c, 0, 78, 65
2, 40402, Note_on_c, 0, 76, 0
2, 40439, Note_on_c, 0, 78, 0
2, 40455, Note_on_c, 0, 51, 47
2, 40474, Note_on_c, 0, 69, 64
2, 40527, Note_on_c, 0, 69, 0
2, 40534, Note_on_c, 0, 51, 0
2, 40556, Note_on_c, 0, 72, 58
2, 40643, Note_on_c, 0, 71, 63
2, 40681, Note_on_c, 0, 72, 0
2, 40713, Note_on_c, 0, 71, 0
2, 40714, Note_on_c, 0, 69, 71
2, 40781, Note_on_c, 0, 69, 0
2, 40798, Note_on_c, 0, 40, 47
2, 40813, Note_on_c, 0, 67, 70
2, 40867, Note_on_c, 0, 40, 0
2, 40883, Note_on_c, 0, 67, 0
2, 40898, Note_on_c, 0, 76, 66
2, 40979, Note_on_c, 0, 78, 75
2, 41036, Note_on_c, 0, 76, 0
2, 41067, Note_on_c, 0, 79, 72
2, 41116, Note_on_c, 0, 78, 0
2, 41144, Note_on_c, 0, 79, 0
2, 41153, Note_on_c, 0, 71, 73
2, 41157, Note_on_c, 0, 52, 55
2, 41196, Note_on_c, 0, 52, 0
2, 41233, Note_on_c, 0, 71, 0
2, 41233, Note_on_c, 0, 74, 70
2, 41315, Note_on_c, 0, 73, 71
2, 41318, Note_on_c, 0, 74, 0
2, 41388, Note_on_c, 0, 73, 0
2, 41399, Note_on_c, 0, 71, 70
2, 41490, Note_on_c, 0, 45, 47
2, 41491, Note_on_c, 0, 71, 0
2, 41493, Note_on_c, 0, 73, 70
2, 41539, Note_on_c, 0, 45, 0
2, 41564, Note_on_c, 0, 76, 71
2, 41650, Note_on_c, 0, 73, 0
2, 41652, Note_on_c, 0, 78, 78
2, 41722, Note_on_c, 0, 76, 0
2, 41739, Note_on_c, 0, 79, 74
2, 41770, Note_on_c, 0, 78, 0
2, 41823, Note_on_c, 0, 79, 0
2, 41834, Note_on_c, 0, 69, 64
2, 41868, Note_on_c, 0, 49, 47
2, 41920, Note_on_c, 0, 49, 0
2, 41923, Note_on_c, 0, 69, 0
2, 41928, Note_on_c, 0, 79, 69
2, 42001, Note_on_c, 0, 78, 66
2, 42012, Note_on_c, 0, 79, 0
2, 42090, Note_on_c, 0, 78, 0
2, 42094, Note_on_c, 0, 76, 61
2, 42187, Note_on_c, 0, 76, 0
2, 42197, Note_on_c, 0, 38, 44
2, 42205, Note_on_c, 0, 78, 63
2, 42247, Note_on_c, 0, 38, 0
2, 42271, Note_on_c, 0, 78, 0
2, 42273, Note_on_c, 0, 74, 58
2, 42375, Note_on_c, 0, 76, 63
2, 42403, Note_on_c, 0, 74, 0
2, 42453, Note_on_c, 0, 78, 72
2, 42480, Note_on_c, 0, 76, 0
2, 42525, Note_on_c, 0, 78, 0
2, 42560, Note_on_c, 0, 69, 67
2, 42562, Note_on_c, 0, 50, 53
2, 42591, Note_on_c, 0, 50, 0
2, 42621, Note_on_c, 0, 69, 0
2, 42646, Note_on_c, 0, 72, 61
2, 42716, Note_on_c, 0, 71, 68
2, 42756, Note_on_c, 0, 72, 0
2, 42790, Note_on_c, 0, 69, 70
2, 42794, Note_on_c, 0, 71, 0
2, 42855, Note_on_c, 0, 69, 0
2, 42900, Note_on_c, 0, 71, 57
2, 42904, Note_on_c, 0, 38, 51
2, 42958, Note_on_c, 0, 38, 0
2, 42976, Note_on_c, 0, 67, 65
2, 42976, Note_on_c, 0, 71, 0
2, 43058, Note_on_c, 0, 69, 71
2, 43081, Note_on_c, 0, 67, 0
2, 43132, Note_on_c, 0, 69, 0
2, 43136, Note_on_c, 0, 71, 62
2, 43210, Note_on_c, 0, 71, 0
2, 43242, Note_on_c, 0, 50, 49
2, 43253, Note_on_c, 0, 61, 64
2, 43270, Note_on_c, 0, 50, 0
2, 43290, Note_on_c, 0, 61, 0
2, 43336, Note_on_c, 0, 71, 61
2, 43422, Note_on_c, 0, 69, 58
2, 43468, Note_on_c, 0, 71, 0
2, 43498, Note_on_c, 0, 67, 60
2, 43542, Note_on_c, 0, 69, 0
2, 43579, Note_on_c, 0, 67, 0
2, 43589, Note_on_c, 0, 38, 35
2, 43597, Note_on_c, 0, 66, 62
2, 43643, Note_on_c, 0, 38, 0
2, 43659, Note_on_c, 0, 66, 0
2, 43687, Note_on_c, 0, 62, 56
2, 43751, Note_on_c, 0, 62, 0
2, 43771, Note_on_c, 0, 64, 53
2, 43825, Note_on_c, 0, 64, 0
2, 43854, Note_on_c, 0, 66, 59
2, 43908, Note_on_c, 0, 66, 0
2, 43966, Note_on_c, 0, 50, 39
2, 43970, Note_on_c, 0, 57, 57
2, 43997, Note_on_c, 0, 50, 0
2, 44040, Note_on_c, 0, 57, 0
2, 44055, Note_on_c, 0, 60, 57
2, 44153, Note_on_c, 0, 59, 56
2, 44169, Note_on_c, 0, 60, 0
2, 44195, Note_on_c, 0, 59, 0
2, 44218, Note_on_c, 0, 57, 59
2, 44286, Note_on_c, 0, 57, 0
2, 44308, Note_on_c, 0, 38, 45
2, 44330, Note_on_c, 0, 59, 61
2, 44357, Note_on_c, 0, 38, 0
2, 44394, Note_on_c, 0, 59, 0
2, 44408, Note_on_c, 0, 62, 59
2, 44486, Note_on_c, 0, 64, 58
2, 44527, Note_on_c, 0, 62, 0
2, 44554, Note_on_c, 0, 66, 70
2, 44574, Note_on_c, 0, 64, 0
2, 44634, Note_on_c, 0, 66, 0
2, 44659, Note_on_c, 0, 59, 68
2, 44686, Note_on_c, 0, 50, 15
2, 44741, Note_on_c, 0, 50, 0
2, 44746, Note_on_c, 0, 59, 0
2, 44748, Note_on_c, 0, 69, 66
2, 44822, Note_on_c, 0, 68, 69
2, 44845, Note_on_c, 0, 69, 0
2, 44913, Note_on_c, 0, 66, 72
2, 44927, Note_on_c, 0, 68, 0
2, 45016, Note_on_c, 0, 38, 55
2, 45023, Note_on_c, 0, 68, 69
2, 45030, Note_on_c, 0, 66, 0
2, 45084, Note_on_c, 0, 38, 0
2, 45103, Note_on_c, 0, 64, 63
2, 45115, Note_on_c, 0, 68, 0
2, 45188, Note_on_c, 0, 66, 69
2, 45241, Note_on_c, 0, 64, 0
2, 45262, Note_on_c, 0, 68, 70
2, 45311, Note_on_c, 0, 66, 0
2, 45327, Note_on_c, 0, 68, 0
2, 45360, Note_on_c, 0, 59, 67
2, 45367, Note_on_c, 0, 56, 72
2, 45418, Note_on_c, 0, 56, 0
2, 45436, Note_on_c, 0, 59, 0
2, 45443, Note_on_c, 0, 62, 71
2, 45540, Note_on_c, 0, 60, 67
2, 45583, Note_on_c, 0, 62, 0
2, 45602, Note_on_c, 0, 59, 66
2, 45625, Note_on_c, 0, 60, 0
2, 45688, Note_on_c, 0, 59, 0
2, 45701, Note_on_c, 0, 48, 56
2, 45707, Note_on_c, 0, 57, 61
2, 45757, Note_on_c, 0, 48, 0
2, 45768, Note_on_c, 0, 60, 57
2, 45810, Note_on_c, 0, 57, 0
2, 45841, Note_on_c, 0, 62, 64
2, 45870, Note_on_c, 0, 60, 0
2, 45933, Note_on_c, 0, 64, 65
2, 45980, Note_on_c, 0, 62, 0
2, 46005, Note_on_c, 0, 64, 0
2, 46047, Note_on_c, 0, 54, 56
2, 46047, Note_on_c, 0, 57, 58
2, 46079, Note_on_c, 0, 54, 0
2, 46116, Note_on_c, 0, 57, 0
2, 46136, Note_on_c, 0, 67, 62
2, 46244, Note_on_c, 0, 65, 49
2, 46275, Note_on_c, 0, 67, 0
2, 46316, Note_on_c, 0, 64, 60
2, 46398, Note_on_c, 0, 47, 47
2, 46406, Note_on_c, 0, 63, 66
2, 46409, Note_on_c, 0, 65, 0
2, 46419, Note_on_c, 0, 64, 0
2, 46455, Note_on_c, 0, 47, 0
2, 46477, Note_on_c, 0, 63, 0
2, 46490, Note_on_c, 0, 57, 61
2, 46559, Note_on_c, 0, 57, 0
2, 46565, Note_on_c, 0, 59, 64
2, 46641, Note_on_c, 0, 59, 0
2, 46651, Note_on_c, 0, 60, 66
2, 46724, Note_on_c, 0, 60, 0
2, 46734, Note_on_c, 0, 51, 50
2, 46762, Note_on_c, 0, 54, 63
2, 46784, Note_on_c, 0, 51, 0
2, 46834, Note_on_c, 0, 54, 0
2, 46843, Note_on_c, 0, 60, 57
2, 46923, Note_on_c, 0, 60, 0
2, 46927, Note_on_c, 0, 59, 53
2, 46983, Note_on_c, 0, 59, 0
2, 47012, Note_on_c, 0, 57, 54
2, 47063, Note_on_c, 0, 57, 0
2, 47106, Note_on_c, 0, 52, 53
2, 47113, Note_on_c, 0, 55, 60
2, 47139, Note_on_c, 0, 52, 0
2, 47143, Note_on_c, 0, 55, 0
2, 47197, Note_on_c, 0, 64, 60
2, 47269, Note_on_c, 0, 66, 65
2, 47303, Note_on_c, 0, 64, 0
2, 47357, Note_on_c, 0, 67, 64
2, 47369, Note_on_c, 0, 66, 0
2, 47416, Note_on_c, 0, 67, 0
2, 47437, Note_on_c, 0, 55, 54
2, 47443, Note_on_c, 0, 59, 58
2, 47475, Note_on_c, 0, 55, 0
2, 47503, Note_on_c, 0, 59, 0
2, 47525, Note_on_c, 0, 62, 61
2, 47613, Note_on_c, 0, 61, 63
2, 47637, Note_on_c, 0, 62, 0
2, 47683, Note_on_c, 0, 61, 0
2, 47695, Note_on_c, 0, 59, 65
2, 47748, Note_on_c, 0, 59, 0
2, 47782, Note_on_c, 0, 47, 47
2, 47800, Note_on_c, 0, 58, 65
2, 47834, Note_on_c, 0, 47, 0
2, 47870, Note_on_c, 0, 58, 0
2, 47877, Note_on_c, 0, 61, 59
2, 47957, Note_on_c, 0, 62, 58
2, 47980, Note_on_c, 0, 61, 0
2, 48017, Note_on_c, 0, 62, 0
2, 48031, Note_on_c, 0, 64, 61
2, 48107, Note_on_c, 0, 64, 0
2, 48116, Note_on_c, 0, 52, 47
2, 48135, Note_on_c, 0, 58, 67
2, 48145, Note_on_c, 0, 52, 0
2, 48169, Note_on_c, 0, 58, 0
2, 48214, Note_on_c, 0, 67, 62
2, 48267, Note_on_c, 0, 67, 0
2, 48289, Note_on_c, 0, 66, 57
2, 48321, Note_on_c, 0, 66, 0
2, 48388, Note_on_c, 0, 62, 16
2, 48434, Note_on_c, 0, 62, 0
2, 48457, Note_on_c, 0, 73, 58
2, 48480, Note_on_c, 0, 55, 43
2, 48522, Note_on_c, 0, 55, 0
2, 48525, Note_on_c, 0, 73, 0
2, 48556, Note_on_c, 0, 70, 61
2, 48653, Note_on_c, 0, 71, 51
2, 48688, Note_on_c, 0, 70, 0
2, 48715, Note_on_c, 0, 71, 0
2, 48724, Note_on_c, 0, 73, 58
2, 48794, Note_on_c, 0, 73, 0
2, 48839, Note_on_c, 0, 66, 45
2, 48840, Note_on_c, 0, 58, 40
2, 48870, Note_on_c, 0, 66, 0
2, 48885, Note_on_c, 0, 58, 0
2, 48918, Note_on_c, 0, 76, 53
2, 48966, Note_on_c, 0, 76, 0
2, 48998, Note_on_c, 0, 74, 52
2, 49078, Note_on_c, 0, 74, 0
2, 49094, Note_on_c, 0, 73, 57
2, 49173, Note_on_c, 0, 73, 0
2, 49189, Note_on_c, 0, 47, 42
2, 49208, Note_on_c, 0, 74, 49
2, 49236, Note_on_c, 0, 47, 0
2, 49251, Note_on_c, 0, 74, 0
2, 49267, Note_on_c, 0, 71, 53
2, 49373, Note_on_c, 0, 71, 0
2, 49382, Note_on_c, 0, 73, 57
2, 49479, Note_on_c, 0, 74, 51
2, 49522, Note_on_c, 0, 73, 0
2, 49526, Note_on_c, 0, 74, 0
2, 49565, Note_on_c, 0, 59, 50
2, 49576, Note_on_c, 0, 66, 52
2, 49603, Note_on_c, 0, 59, 0
2, 49622, Note_on_c, 0, 66, 0
2, 49662, Note_on_c, 0, 69, 54
2, 49716, Note_on_c, 0, 69, 0
2, 49735, Note_on_c, 0, 68, 65
2, 49806, Note_on_c, 0, 68, 0
2, 49828, Note_on_c, 0, 66, 59
2, 49890, Note_on_c, 0, 66, 0
2, 49912, Note_on_c, 0, 68, 55
2, 49916, Note_on_c, 0, 52, 51
2, 49952, Note_on_c, 0, 52, 0
2, 49997, Note_on_c, 0, 71, 53
2, 50027, Note_on_c, 0, 68, 0
2, 50075, Note_on_c, 0, 72, 63
2, 50093, Note_on_c, 0, 71, 0
2, 50164, Note_on_c, 0, 72, 0
2, 50165, Note_on_c, 0, 74, 65
2, 50234, Note_on_c, 0, 74, 0
2, 50249, Note_on_c, 0, 56, 49
2, 50260, Note_on_c, 0, 64, 61
2, 50290, Note_on_c, 0, 56, 0
2, 50341, Note_on_c, 0, 64, 0
2, 50358, Note_on_c, 0, 74, 49
2, 50408, Note_on_c, 0, 74, 0
2, 50425, Note_on_c, 0, 72, 60
2, 50503, Note_on_c, 0, 72, 0
2, 50517, Note_on_c, 0, 71, 58
2, 50592, Note_on_c, 0, 45, 44
2, 50601, Note_on_c, 0, 71, 0
2, 50619, Note_on_c, 0, 72, 58
2, 50648, Note_on_c, 0, 45, 0
2, 50677, Note_on_c, 0, 72, 0
2, 50687, Note_on_c, 0, 69, 61
2, 50774, Note_on_c, 0, 71, 63
2, 50801, Note_on_c, 0, 69, 0
2, 50862, Note_on_c, 0, 72, 68
2, 50890, Note_on_c, 0, 71, 0
2, 50924, Note_on_c, 0, 72, 0
2, 50960, Note_on_c, 0, 64, 69
2, 50961, Note_on_c, 0, 57, 44
2, 50987, Note_on_c, 0, 57, 0
2, 51032, Note_on_c, 0, 64, 0
2, 51042, Note_on_c, 0, 67, 70
2, 51111, Note_on_c, 0, 67, 0
2, 51123, Note_on_c, 0, 66, 69
2, 51197, Note_on_c, 0, 66, 0
2, 51211, Note_on_c, 0, 64, 69
2, 51293, Note_on_c, 0, 50, 43
2, 51303, Note_on_c, 0, 64, 0
2, 51309, Note_on_c, 0, 66, 68
2, 51325, Note_on_c, 0, 50, 0
2, 51376, Note_on_c, 0, 69, 70
2, 51439, Note_on_c, 0, 66, 0
2, 51469, Note_on_c, 0, 71, 66
2, 51517, Note_on_c, 0, 69, 0
2, 51556, Note_on_c, 0, 72, 69
2, 51567, Note_on_c, 0, 71, 0
2, 51635, Note_on_c, 0, 72, 0
2, 51662, Note_on_c, 0, 54, 43
2, 51670, Note_on_c, 0, 62, 57
2, 51704, Note_on_c, 0, 54, 0
2, 51747, Note_on_c, 0, 62, 0
2, 51752, Note_on_c, 0, 72, 59
2, 51832, Note_on_c, 0, 72, 0
2, 51842, Note_on_c, 0, 71, 56
2, 51928, Note_on_c, 0, 71, 0
2, 51939, Note_on_c, 0, 69, 60
2, 52025, Note_on_c, 0, 69, 0
2, 52059, Note_on_c, 0, 71, 49
2, 52062, Note_on_c, 0, 43, 36
2, 52104, Note_on_c, 0, 43, 0
2, 52110, Note_on_c, 0, 71, 0
2, 52128, Note_on_c, 0, 67, 55
2, 52222, Note_on_c, 0, 67, 0
2, 52224, Note_on_c, 0, 69, 62
2, 52293, Note_on_c, 0, 69, 0
2, 52303, Note_on_c, 0, 71, 61
2, 52384, Note_on_c, 0, 71, 0
2, 52411, Note_on_c, 0, 62, 58
2, 52412, Note_on_c, 0, 55, 50
2, 52449, Note_on_c, 0, 55, 0
2, 52498, Note_on_c, 0, 71, 51
2, 52500, Note_on_c, 0, 62, 0
2, 52567, Note_on_c, 0, 69, 62
2, 52602, Note_on_c, 0, 71, 0
2, 52661, Note_on_c, 0, 67, 59
2, 52661, Note_on_c, 0, 69, 0
2, 52736, Note_on_c, 0, 67, 0
2, 52772, Note_on_c, 0, 47, 37
2, 52799, Note_on_c, 0, 74, 28
2, 52820, Note_on_c, 0, 47, 0
2, 52838, Note_on_c, 0, 74, 0
2, 52855, Note_on_c, 0, 67, 54
2, 52933, Note_on_c, 0, 69, 54
2, 52939, Note_on_c, 0, 67, 0
2, 53007, Note_on_c, 0, 69, 0
2, 53024, Note_on_c, 0, 71, 53
2, 53082, Note_on_c, 0, 71, 0
2, 53125, Note_on_c, 0, 55, 34
2, 53150, Note_on_c, 0, 62, 43
2, 53163, Note_on_c, 0, 55, 0
2, 53207, Note_on_c, 0, 62, 0
2, 53232, Note_on_c, 0, 71, 47
2, 53287, Note_on_c, 0, 71, 0
2, 53298, Note_on_c, 0, 69, 52
2, 53371, Note_on_c, 0, 69, 0
2, 53383, Note_on_c, 0, 67, 54
2, 53441, Note_on_c, 0, 67, 0
2, 53481, Note_on_c, 0, 45, 35
2, 53484, Note_on_c, 0, 72, 51
2, 53520, Note_on_c, 0, 45, 0
2, 53537, Note_on_c, 0, 72, 0
2, 53552, Note_on_c, 0, 69, 53
2, 53646, Note_on_c, 0, 71, 51
2, 53652, Note_on_c, 0, 69, 0
2, 53724, Note_on_c, 0, 72, 56
2, 53774, Note_on_c, 0, 71, 0
2, 53785, Note_on_c, 0, 72, 0
2, 53825, Note_on_c, 0, 64, 56
2, 53842, Note_on_c, 0, 55, 34
2, 53871, Note_on_c, 0, 55, 0
2, 53896, Note_on_c, 0, 64, 0
2, 53918, Note_on_c, 0, 67, 57
2, 53985, Note_on_c, 0, 67, 0
2, 54001, Note_on_c, 0, 66, 63
2, 54068, Note_on_c, 0, 66, 0
2, 54090, Note_on_c, 0, 64, 62
2, 54175, Note_on_c, 0, 64, 0
2, 54178, Note_on_c, 0, 50, 44
2, 54183, Note_on_c, 0, 66, 66
2, 54210, Note_on_c, 0, 50, 0
2, 54263, Note_on_c, 0, 69, 64
2, 54316, Note_on_c, 0, 66, 0
2, 54349, Note_on_c, 0, 71, 65
2, 54382, Note_on_c, 0, 69, 0
2, 54428, Note_on_c, 0, 72, 70
2, 54437, Note_on_c, 0, 71, 0
2, 54493, Note_on_c, 0, 72, 0
2, 54521, Note_on_c, 0, 62, 69
2, 54528, Note_on_c, 0, 54, 54
2, 54569, Note_on_c, 0, 54, 0
2, 54612, Note_on_c, 0, 62, 0
2, 54614, Note_on_c, 0, 72, 66
2, 54694, Note_on_c, 0, 72, 0
2, 54702, Note_on_c, 0, 71, 61
2, 54780, Note_on_c, 0, 71, 0
2, 54786, Note_on_c, 0, 69, 67
2, 54874, Note_on_c, 0, 69, 0
2, 54882, Note_on_c, 0, 43, 51
2, 54892, Note_on_c, 0, 71, 60
2, 54927, Note_on_c, 0, 43, 0
2, 54963, Note_on_c, 0, 67, 65
2, 54964, Note_on_c, 0, 71, 0
2, 55056, Note_on_c, 0, 69, 65
2, 55098, Note_on_c, 0, 67, 0
2, 55133, Note_on_c, 0, 71, 66
2, 55145, Note_on_c, 0, 69, 0
2, 55186, Note_on_c, 0, 71, 0
2, 55217, Note_on_c, 0, 62, 64
2, 55232, Note_on_c, 0, 55, 45
2, 55259, Note_on_c, 0, 55, 0
2, 55288, Note_on_c, 0, 62, 0
2, 55305, Note_on_c, 0, 66, 64
2, 55392, Note_on_c, 0, 64, 63
2, 55419, Note_on_c, 0, 66, 0
2, 55468, Note_on_c, 0, 62, 71
2, 55470, Note_on_c, 0, 64, 0
2, 55531, Note_on_c, 0, 62, 0
2, 55566, Note_on_c, 0, 43, 48
2, 55570, Note_on_c, 0, 64, 69
2, 55604, Note_on_c, 0, 43, 0
2, 55636, Note_on_c, 0, 64, 0
2, 55644, Note_on_c, 0, 67, 74
2, 55723, Note_on_c, 0, 69, 71
2, 55780, Note_on_c, 0, 67, 0
2, 55798, Note_on_c, 0, 71, 74
2, 55831, Note_on_c, 0, 69, 0
2, 55880, Note_on_c, 0, 71, 0
2, 55891, Note_on_c, 0, 55, 59
2, 55896, Note_on_c, 0, 64, 75
2, 55922, Note_on_c, 0, 55, 0
2, 55967, Note_on_c, 0, 64, 0
2, 55976, Note_on_c, 0, 74, 67
2, 56055, Note_on_c, 0, 73, 75
2, 56098, Note_on_c, 0, 74, 0
2, 56140, Note_on_c, 0, 71, 72
2, 56156, Note_on_c, 0, 73, 0
2, 56256, Note_on_c, 0, 73, 76
2, 56260, Note_on_c, 0, 43, 46
2, 56275, Note_on_c, 0, 71, 0
2, 56322, Note_on_c, 0, 43, 0
2, 56339, Note_on_c, 0, 69, 73
2, 56351, Note_on_c, 0, 73, 0
2, 56437, Note_on_c, 0, 71, 73
2, 56488, Note_on_c, 0, 69, 0
2, 56509, Note_on_c, 0, 73, 73
2, 56560, Note_on_c, 0, 71, 0
2, 56567, Note_on_c, 0, 73, 0
2, 56597, Note_on_c, 0, 64, 69
2, 56617, Note_on_c, 0, 49, 58
2, 56669, Note_on_c, 0, 49, 0
2, 56674, Note_on_c, 0, 67, 73
2, 56700, Note_on_c, 0, 64, 0
2, 56758, Note_on_c, 0, 66, 73
2, 56804, Note_on_c, 0, 67, 0
2, 56831, Note_on_c, 0, 64, 73
2, 56878, Note_on_c, 0, 66, 0
2, 56918, Note_on_c, 0, 64, 0
2, 56921, Note_on_c, 0, 62, 74
2, 56947, Note_on_c, 0, 42, 56
2, 57018, Note_on_c, 0, 66, 72
2, 57025, Note_on_c, 0, 62, 0
2, 57034, Note_on_c, 0, 42, 0
2, 57106, Note_on_c, 0, 67, 71
2, 57172, Note_on_c, 0, 66, 0
2, 57199, Note_on_c, 0, 69, 72
2, 57236, Note_on_c, 0, 67, 0
2, 57268, Note_on_c, 0, 69, 0
2, 57289, Note_on_c, 0, 50, 49
2, 57300, Note_on_c, 0, 59, 62
2, 57317, Note_on_c, 0, 50, 0
2, 57379, Note_on_c, 0, 59, 0
2, 57389, Note_on_c, 0, 69, 57
2, 57459, Note_on_c, 0, 67, 53
2, 57496, Note_on_c, 0, 69, 0
2, 57549, Note_on_c, 0, 67, 0
2, 57557, Note_on_c, 0, 66, 56
2, 57653, Note_on_c, 0, 66, 0
2, 57659, Note_on_c, 0, 40, 42
2, 57659, Note_on_c, 0, 67, 59
2, 57715, Note_on_c, 0, 40, 0
2, 57730, Note_on_c, 0, 67, 0
2, 57733, Note_on_c, 0, 64, 54
2, 57832, Note_on_c, 0, 66, 57
2, 57844, Note_on_c, 0, 64, 0
2, 57898, Note_on_c, 0, 67, 59
2, 57926, Note_on_c, 0, 66, 0
2, 57961, Note_on_c, 0, 67, 0
2, 58005, Note_on_c, 0, 59, 58
2, 58021, Note_on_c, 0, 50, 36
2, 58053, Note_on_c, 0, 50, 0
2, 58064, Note_on_c, 0, 59, 0
2, 58088, Note_on_c, 0, 62, 60
2, 58154, Note_on_c, 0, 62, 0
2, 58171, Note_on_c, 0, 61, 65
2, 58232, Note_on_c, 0, 61, 0
2, 58259, Note_on_c, 0, 59, 57
2, 58333, Note_on_c, 0, 59, 0
2, 58341, Note_on_c, 0, 45, 48
2, 58350, Note_on_c, 0, 61, 60
2, 58392, Note_on_c, 0, 45, 0
2, 58421, Note_on_c, 0, 64, 62
2, 58483, Note_on_c, 0, 61, 0
2, 58506, Note_on_c, 0, 66, 65
2, 58559, Note_on_c, 0, 64, 0
2, 58603, Note_on_c, 0, 67, 63
2, 58614, Note_on_c, 0, 66, 0
2, 58675, Note_on_c, 0, 67, 0
2, 58696, Note_on_c, 0, 49, 46
2, 58711, Note_on_c, 0, 57, 57
2, 58740, Note_on_c, 0, 49, 0
2, 58777, Note_on_c, 0, 57, 0
2, 58792, Note_on_c, 0, 67, 57
2, 58864, Note_on_c, 0, 67, 0
2, 58877, Note_on_c, 0, 66, 57
2, 58950, Note_on_c, 0, 66, 0
2, 58966, Note_on_c, 0, 64, 54
2, 59045, Note_on_c, 0, 64, 0
2, 59056, Note_on_c, 0, 38, 42
2, 59062, Note_on_c, 0, 66, 63
2, 59122, Note_on_c, 0, 38, 0
2, 59133, Note_on_c, 0, 66, 0
2, 59140, Note_on_c, 0, 62, 60
2, 59225, Note_on_c, 0, 64, 66
2, 59250, Note_on_c, 0, 62, 0
2, 59304, Note_on_c, 0, 66, 72
2, 59318, Note_on_c, 0, 64, 0
2, 59383, Note_on_c, 0, 66, 0
2, 59407, Note_on_c, 0, 57, 66
2, 59415, Note_on_c, 0, 50, 64
2, 59454, Note_on_c, 0, 50, 0
2, 59487, Note_on_c, 0, 66, 74
2, 59520, Note_on_c, 0, 57, 0
2, 59583, Note_on_c, 0, 64, 64
2, 59650, Note_on_c, 0, 66, 0
2, 59669, Note_on_c, 0, 62, 72
2, 59678, Note_on_c, 0, 64, 0
2, 59741, Note_on_c, 0, 62, 0
2, 59749, Note_on_c, 0, 42, 66
2, 59763, Note_on_c, 0, 69, 70
2, 59801, Note_on_c, 0, 42, 0
2, 59834, Note_on_c, 0, 66, 78
2, 59857, Note_on_c, 0, 69, 0
2, 59912, Note_on_c, 0, 67, 75
2, 59967, Note_on_c, 0, 66, 0
2, 59991, Note_on_c, 0, 69, 75
2, 60015, Note_on_c, 0, 67, 0
2, 60061, Note_on_c, 0, 69, 0
2, 60085, Note_on_c, 0, 62, 81
2, 60102, Note_on_c, 0, 57, 67
2, 60131, Note_on_c, 0, 57, 0
2, 60174, Note_on_c, 0, 72, 77
2, 60178, Note_on_c, 0, 62, 0
2, 60253, Note_on_c, 0, 71, 74
2, 60300, Note_on_c, 0, 72, 0
2, 60332, Note_on_c, 0, 69, 79
2, 60351, Note_on_c, 0, 71, 0
2, 60436, Note_on_c, 0, 43, 56
2, 60436, Note_on_c, 0, 71, 78
2, 60439, Note_on_c, 0, 69, 0
2, 60497, Note_on_c, 0, 43, 0
2, 60511, Note_on_c, 0, 67, 81
2, 60531, Note_on_c, 0, 71, 0
2, 60598, Note_on_c, 0, 69, 82
2, 60627, Note_on_c, 0, 67, 0
2, 60676, Note_on_c, 0, 71, 70
2, 60689, Note_on_c, 0, 69, 0
2, 60759, Note_on_c, 0, 71, 0
2, 60760, Note_on_c, 0, 62, 75
2, 60769, Note_on_c, 0, 55, 69
2, 60812, Note_on_c, 0, 55, 0
2, 60860, Note_on_c, 0, 71, 64
2, 60868, Note_on_c, 0, 62, 0
2, 60932, Note_on_c, 0, 69, 74
2, 60984, Note_on_c, 0, 71, 0
2, 61008, Note_on_c, 0, 67, 77
2, 61020, Note_on_c, 0, 69, 0
2, 61078, Note_on_c, 0, 67, 0
2, 61099, Note_on_c, 0, 74, 73
2, 61100, Note_on_c, 0, 47, 70
2, 61140, Note_on_c, 0, 47, 0
2, 61179, Note_on_c, 0, 71, 75
2, 61190, Note_on_c, 0, 74, 0
2, 61257, Note_on_c, 0, 72, 76
2, 61303, Note_on_c, 0, 71, 0
2, 61336, Note_on_c, 0, 74, 71
2, 61362, Note_on_c, 0, 72, 0
2, 61385, Note_on_c, 0, 74, 0
2, 61425, Note_on_c, 0, 62, 74
2, 61432, Note_on_c, 0, 68, 81
2, 61452, Note_on_c, 0, 62, 0
2, 61472, Note_on_c, 0, 68, 0
2, 61525, Note_on_c, 0, 79, 67
2, 61529, Note_on_c, 0, 77, 72
2, 61607, Note_on_c, 0, 76, 80
2, 61652, Note_on_c, 0, 79, 0
2, 61697, Note_on_c, 0, 74, 75
2, 61723, Note_on_c, 0, 77, 0
2, 61784, Note_on_c, 0, 76, 0
2, 61790, Note_on_c, 0, 45, 49
2, 61809, Note_on_c, 0, 73, 82
2, 61832, Note_on_c, 0, 74, 0
2, 61892, Note_on_c, 0, 73, 0
2, 61895, Note_on_c, 0, 69, 82
2, 61971, Note_on_c, 0, 69, 0
2, 61974, Note_on_c, 0, 71, 70
2, 62041, Note_on_c, 0, 71, 0
2, 62047, Note_on_c, 0, 73, 75
2, 62115, Note_on_c, 0, 73, 0
2, 62148, Note_on_c, 0, 64, 74
2, 62166, Note_on_c, 0, 55, 70
2, 62209, Note_on_c, 0, 55, 0
2, 62220, Note_on_c, 0, 64, 0
2, 62221, Note_on_c, 0, 67, 69
2, 62307, Note_on_c, 0, 66, 73
2, 62348, Note_on_c, 0, 67, 0
2, 62386, Note_on_c, 0, 64, 71
2, 62396, Note_on_c, 0, 66, 0
2, 62414, Note_on_c, 0, 64, 0
2, 62482, Note_on_c, 0, 54, 72
2, 62486, Note_on_c, 0, 69, 80
2, 62529, Note_on_c, 0, 54, 0
2, 62557, Note_on_c, 0, 69, 0
2, 62567, Note_on_c, 0, 74, 75
2, 62648, Note_on_c, 0, 76, 76
2, 62714, Note_on_c, 0, 74, 0
2, 62719, Note_on_c, 0, 78, 80
2, 62760, Note_on_c, 0, 76, 0
2, 62805, Note_on_c, 0, 50, 64
2, 62812, Note_on_c, 0, 78, 0
2, 62823, Note_on_c, 0, 71, 73
2, 62833, Note_on_c, 0, 50, 0
2, 62901, Note_on_c, 0, 71, 0
2, 62907, Note_on_c, 0, 81, 69
2, 62985, Note_on_c, 0, 79, 69
2, 63001, Note_on_c, 0, 81, 0
2, 63071, Note_on_c, 0, 78, 71
2, 63074, Note_on_c, 0, 79, 0
2, 63148, Note_on_c, 0, 52, 59
2, 63153, Note_on_c, 0, 78, 0
2, 63159, Note_on_c, 0, 79, 62
2, 63184, Note_on_c, 0, 52, 0
2, 63239, Note_on_c, 0, 79, 0
2, 63250, Note_on_c, 0, 73, 65
2, 63324, Note_on_c, 0, 73, 0
2, 63333, Note_on_c, 0, 74, 63
2, 63379, Note_on_c, 0, 76, 58
2, 63382, Note_on_c, 0, 74, 0
2, 63456, Note_on_c, 0, 76, 0
2, 63480, Note_on_c, 0, 69, 58
2, 63485, Note_on_c, 0, 49, 57
2, 63523, Note_on_c, 0, 49, 0
2, 63529, Note_on_c, 0, 69, 0
2, 63572, Note_on_c, 0, 79, 55
2, 63648, Note_on_c, 0, 78, 63
2, 63679, Note_on_c, 0, 79, 0
2, 63722, Note_on_c, 0, 78, 0
2, 63743, Note_on_c, 0, 76, 52
2, 63812, Note_on_c, 0, 76, 0
2, 63825, Note_on_c, 0, 78, 57
2, 63847, Note_on_c, 0, 50, 45
2, 63869, Note_on_c, 0, 78, 0
2, 63875, Note_on_c, 0, 50, 0
2, 63925, Note_on_c, 0, 71, 56
2, 64000, Note_on_c, 0, 71, 0
2, 64028, Note_on_c, 0, 73, 62
2, 64077, Note_on_c, 0, 73, 0
2, 64092, Note_on_c, 0, 74, 60
2, 64131, Note_on_c, 0, 74, 0
2, 64183, Note_on_c, 0, 68, 65
2, 64196, Note_on_c, 0, 45, 0
2, 64199, Note_on_c, 0, 47, 40
2, 64231, Note_on_c, 0, 47, 0
2, 64263, Note_on_c, 0, 78, 69
2, 64264, Note_on_c, 0, 68, 0
2, 64341, Note_on_c, 0, 76, 66
2, 64420, Note_on_c, 0, 78, 0
2, 64431, Note_on_c, 0, 74, 68
2, 64483, Note_on_c, 0, 76, 0
2, 64514, Note_on_c, 0, 73, 73
2, 64523, Note_on_c, 0, 45, 54
2, 64531, Note_on_c, 0, 74, 0
2, 64571, Note_on_c, 0, 73, 0
2, 64584, Note_on_c, 0, 67, 76
2, 64602, Note_on_c, 0, 52, 43
2, 64637, Note_on_c, 0, 53, 19
2, 64638, Note_on_c, 0, 53, 0
2, 64675, Note_on_c, 0, 54, 71
2, 64675, Note_on_c, 0, 69, 75
2, 64676, Note_on_c, 0, 67, 0
2, 64694, Note_on_c, 0, 52, 0
2, 64748, Note_on_c, 0, 69, 0
2, 64751, Note_on_c, 0, 70, 77
2, 64760, Note_on_c, 0, 55, 66
2, 64768, Note_on_c, 0, 54, 0
2, 64815, Note_on_c, 0, 55, 0
2, 64828, Note_on_c, 0, 70, 0
2, 64840, Note_on_c, 0, 64, 76
2, 64843, Note_on_c, 0, 49, 63
2, 64916, Note_on_c, 0, 67, 76
2, 64920, Note_on_c, 0, 64, 0
2, 64932, Note_on_c, 0, 52, 76
2, 64934, Note_on_c, 0, 49, 0
2, 65004, Note_on_c, 0, 65, 76
2, 65027, Note_on_c, 0, 50, 68
2, 65033, Note_on_c, 0, 52, 0
2, 65052, Note_on_c, 0, 67, 0
2, 65070, Note_on_c, 0, 64, 72
2, 65078, Note_on_c, 0, 50, 0
2, 65080, Note_on_c, 0, 49, 60
2, 65085, Note_on_c, 0, 65, 0
2, 65130, Note_on_c, 0, 64, 0
2, 65150, Note_on_c, 0, 50, 58
2, 65150, Note_on_c, 0, 65, 64
2, 65195, Note_on_c, 0, 49, 0
2, 65197, Note_on_c, 0, 50, 0
2, 65203, Note_on_c, 0, 53, 74
2, 65225, Note_on_c, 0, 65, 0
2, 65230, Note_on_c, 0, 74, 75
2, 65231, Note_on_c, 0, 45, 0
2, 65285, Note_on_c, 0, 55, 74
2, 65308, Note_on_c, 0, 76, 72
2, 65353, Note_on_c, 0, 74, 0
2, 65363, Note_on_c, 0, 53, 0
2, 65374, Note_on_c, 0, 55, 0
2, 65378, Note_on_c, 0, 57, 74
2, 65384, Note_on_c, 0, 77, 75
2, 65411, Note_on_c, 0, 76, 0
2, 65447, Note_on_c, 0, 57, 0
2, 65466, Note_on_c, 0, 77, 0
2, 65473, Note_on_c, 0, 52, 69
2, 65473, Note_on_c, 0, 73, 70
2, 65547, Note_on_c, 0, 52, 0
2, 65561, Note_on_c, 0, 76, 74
2, 65565, Note_on_c, 0, 73, 0
2, 65573, Note_on_c, 0, 53, 55
2, 65639, Note_on_c, 0, 74, 66
2, 65648, Note_on_c, 0, 76, 0
2, 65690, Note_on_c, 0, 73, 75
2, 65713, Note_on_c, 0, 74, 0
2, 65720, Note_on_c, 0, 52, 63
2, 65742, Note_on_c, 0, 73, 0
2, 65766, Note_on_c, 0, 53, 0
2, 65769, Note_on_c, 0, 52, 0
2, 65788, Note_on_c, 0, 55, 70
2, 65792, Note_on_c, 0, 72, 48
2, 65792, Note_on_c, 0, 74, 50
2, 65822, Note_on_c, 0, 72, 0
2, 65828, Note_on_c, 0, 74, 0
2, 65849, Note_on_c, 0, 55, 0
2, 65852, Note_on_c, 0, 82, 76
2, 65865, Note_on_c, 0, 50, 59
2, 65928, Note_on_c, 0, 81, 80
2, 65950, Note_on_c, 0, 52, 64
2, 65970, Note_on_c, 0, 50, 0
2, 65971, Note_on_c, 0, 82, 0
2, 65987, Note_on_c, 0, 52, 0
2, 65997, Note_on_c, 0, 53, 74
2, 66001, Note_on_c, 0, 79, 83
2, 66043, Note_on_c, 0, 53, 0
2, 66050, Note_on_c, 0, 81, 0
2, 66083, Note_on_c, 0, 77, 80
2, 66086, Note_on_c, 0, 45, 66
2, 66090, Note_on_c, 0, 79, 0
2, 66136, Note_on_c, 0, 77, 0
2, 66161, Note_on_c, 0, 76, 81
2, 66170, Note_on_c, 0, 45, 0
2, 66172, Note_on_c, 0, 48, 71
2, 66228, Note_on_c, 0, 76, 0
2, 66238, Note_on_c, 0, 74, 70
2, 66244, Note_on_c, 0, 46, 76
2, 66251, Note_on_c, 0, 48, 0
2, 66323, Note_on_c, 0, 73, 80
2, 66327, Note_on_c, 0, 74, 0
2, 66346, Note_on_c, 0, 45, 64
2, 66359, Note_on_c, 0, 46, 0
2, 66394, Note_on_c, 0, 73, 0
2, 66450, Note_on_c, 0, 44, 64
2, 66450, Note_on_c, 0, 45, 0
2, 66451, Note_on_c, 0, 74, 72
2, 66532, Note_on_c, 0, 77, 66
2, 66538, Note_on_c, 0, 74, 0
2, 66610, Note_on_c, 0, 76, 74
2, 66643, Note_on_c, 0, 77, 0
2, 66665, Note_on_c, 0, 76, 0
2, 66696, Note_on_c, 0, 74, 71
2, 66758, Note_on_c, 0, 83, 74
2, 66776, Note_on_c, 0, 74, 0
2, 66838, Note_on_c, 0, 80, 84
2, 66851, Note_on_c, 0, 83, 0
2, 66911, Note_on_c, 0, 81, 80
2, 66995, Note_on_c, 0, 80, 0
2, 66998, Note_on_c, 0, 83, 73
2, 67047, Note_on_c, 0, 81, 0
2, 67079, Note_on_c, 0, 83, 0
2, 67081, Note_on_c, 0, 77, 70
2, 67129, Note_on_c, 0, 77, 0
2, 67159, Note_on_c, 0, 74, 57
2, 67180, Note_on_c, 0, 72, 26
2, 67210, Note_on_c, 0, 72, 0
2, 67232, Note_on_c, 0, 76, 72
2, 67258, Note_on_c, 0, 74, 0
2, 67314, Note_on_c, 0, 77, 68
2, 67353, Note_on_c, 0, 76, 0
2, 67389, Note_on_c, 0, 77, 0
2, 67392, Note_on_c, 0, 71, 71
2, 67444, Note_on_c, 0, 71, 0
2, 67468, Note_on_c, 0, 68, 72
2, 67555, Note_on_c, 0, 69, 70
2, 67587, Note_on_c, 0, 68, 0
2, 67623, Note_on_c, 0, 71, 70
2, 67645, Note_on_c, 0, 69, 0
2, 67692, Note_on_c, 0, 64, 72
2, 67703, Note_on_c, 0, 71, 0
2, 67775, Note_on_c, 0, 66, 80
2, 67780, Note_on_c, 0, 64, 0
2, 67854, Note_on_c, 0, 68, 83
2, 67866, Note_on_c, 0, 66, 0
2, 67910, Note_on_c, 0, 68, 0
2, 67925, Note_on_c, 0, 69, 87
2, 67999, Note_on_c, 0, 69, 0
2, 68001, Note_on_c, 0, 71, 83
2, 68077, Note_on_c, 0, 73, 86
2, 68089, Note_on_c, 0, 71, 0
2, 68103, Note_on_c, 0, 44, 0
2, 68165, Note_on_c, 0, 73, 0
2, 68166, Note_on_c, 0, 74, 94
2, 68241, Note_on_c, 0, 76, 91
2, 68255, Note_on_c, 0, 74, 0
2, 68356, Note_on_c, 0, 45, 57
2, 68368, Note_on_c, 0, 77, 91
2, 68420, Note_on_c, 0, 76, 0
2, 68521, Note_on_c, 0, 73, 74
2, 68591, Note_on_c, 0, 77, 0
2, 68602, Note_on_c, 0, 74, 69
2, 68603, Note_on_c, 0, 57, 57
2, 68635, Note_on_c, 0, 73, 0
2, 68653, Note_on_c, 0, 74, 0
2, 68654, Note_on_c, 0, 69, 76
2, 68728, Note_on_c, 0, 69, 0
2, 68729, Note_on_c, 0, 70, 82
2, 68751, Note_on_c, 0, 55, 59
2, 68765, Note_on_c, 0, 57, 0
2, 68802, Note_on_c, 0, 67, 77
2, 68812, Note_on_c, 0, 70, 0
2, 68824, Note_on_c, 0, 65, 61
2, 68847, Note_on_c, 0, 65, 0
2, 68877, Note_on_c, 0, 76, 85
2, 68885, Note_on_c, 0, 67, 0
2, 68901, Note_on_c, 0, 49, 66
2, 68930, Note_on_c, 0, 55, 0
2, 68961, Note_on_c, 0, 67, 83
2, 68962, Note_on_c, 0, 76, 0
2, 69035, Note_on_c, 0, 69, 85
2, 69037, Note_on_c, 0, 53, 57
2, 69042, Note_on_c, 0, 67, 0
2, 69045, Note_on_c, 0, 49, 0
2, 69109, Note_on_c, 0, 65, 87
2, 69122, Note_on_c, 0, 69, 0
2, 69178, Note_on_c, 0, 50, 59
2, 69187, Note_on_c, 0, 74, 80
2, 69201, Note_on_c, 0, 65, 0
2, 69203, Note_on_c, 0, 53, 0
2, 69281, Note_on_c, 0, 65, 82
2, 69300, Note_on_c, 0, 74, 0
2, 69363, Note_on_c, 0, 67, 77
2, 69372, Note_on_c, 0, 65, 0
2, 69376, Note_on_c, 0, 52, 71
2, 69453, Note_on_c, 0, 64, 80
2, 69493, Note_on_c, 0, 67, 0
2, 69569, Note_on_c, 0, 73, 80
2, 69576, Note_on_c, 0, 55, 73
2, 69583, Note_on_c, 0, 50, 0
2, 69586, Note_on_c, 0, 45, 0
2, 69595, Note_on_c, 0, 64, 0
2, 69640, Note_on_c, 0, 52, 0
2, 69686, Note_on_c, 0, 64, 81
2, 69691, Note_on_c, 0, 73, 0
2, 69817, Note_on_c, 0, 45, 68
2, 69822, Note_on_c, 0, 55, 0
2, 69890, Control_c, 0, 64, 56
2, 69906, Control_c, 0, 64, 64
2, 69921, Control_c, 0, 64, 68
2, 69936, Control_c, 0, 64, 72
2, 69939, Note_on_c, 0, 50, 55
2, 69952, Control_c, 0, 64, 79
2, 69952, Note_on_c, 0, 45, 0
2, 69967, Control_c, 0, 64, 83
2, 69970, Note_on_c, 0, 50, 0
2, 69983, Control_c, 0, 64, 86
2, 69988, Note_on_c, 0, 53, 70
2, 69995, Note_on_c, 0, 64, 0
2, 69997, Control_c, 0, 64, 89
2, 70012, Control_c, 0, 64, 91
2, 70028, Control_c, 0, 64, 93
2, 70044, Control_c, 0, 64, 95
2, 70059, Control_c, 0, 64, 97
2, 70062, Note_on_c, 0, 53, 0
2, 70062, Note_on_c, 0, 56, 83
2, 70073, Control_c, 0, 64, 98
2, 70089, Control_c, 0, 64, 100
2, 70104, Control_c, 0, 64, 101
2, 70119, Control_c, 0, 64, 102
2, 70124, Note_on_c, 0, 56, 0
2, 70129, Note_on_c, 0, 59, 79
2, 70135, Control_c, 0, 64, 103
2, 70150, Control_c, 0, 64, 104
2, 70170, Note_on_c, 0, 62, 75
2, 70181, Control_c, 0, 64, 104
2, 70188, Note_on_c, 0, 59, 0
2, 70195, Control_c, 0, 64, 105
2, 70220, Note_on_c, 0, 65, 82
2, 70242, Control_c, 0, 64, 105
2, 70261, Note_on_c, 0, 68, 90
2, 70287, Note_on_c, 0, 62, 0
2, 70297, Note_on_c, 0, 71, 81
2, 70298, Note_on_c, 0, 70, 62
2, 70332, Note_on_c, 0, 65, 0
2, 70334, Note_on_c, 0, 74, 87
2, 70349, Control_c, 0, 64, 106
2, 70364, Note_on_c, 0, 68, 0
2, 70382, Note_on_c, 0, 70, 0
2, 70401, Note_on_c, 0, 71, 0
2, 70424, Control_c, 0, 64, 106
2, 70439, Control_c, 0, 64, 107
2, 70455, Control_c, 0, 64, 107
2, 70531, Control_c, 0, 64, 108
2, 70774, Control_c, 0, 64, 108
2, 70888, Control_c, 0, 64, 109
2, 71055, Control_c, 0, 64, 109
2, 72142, Control_c, 0, 64, 107
2, 72157, Control_c, 0, 64, 103
2, 72173, Control_c, 0, 64, 95
2, 72187, Control_c, 0, 64, 85
2, 72203, Control_c, 0, 64, 70
2, 72218, Control_c, 0, 64, 21
2, 72233, Control_c, 0, 64, 0
2, 72847, Note_on_c, 0, 73, 39
2, 72943, Note_on_c, 0, 74, 0
2, 72998, Note_on_c, 0, 71, 45
2, 73001, Note_on_c, 0, 73, 0
2, 73041, Note_on_c, 0, 71, 0
2, 73064, Note_on_c, 0, 69, 54
2, 73086, Note_on_c, 0, 69, 0
2, 73141, Note_on_c, 0, 68, 62
2, 73195, Note_on_c, 0, 68, 0
2, 73205, Note_on_c, 0, 66, 64
2, 73238, Note_on_c, 0, 66, 0
2, 73264, Note_on_c, 0, 64, 59
2, 73309, Note_on_c, 0, 64, 0
2, 73321, Note_on_c, 0, 66, 68
2, 73368, Note_on_c, 0, 66, 0
2, 73378, Note_on_c, 0, 68, 66
2, 73415, Note_on_c, 0, 68, 0
2, 73449, Note_on_c, 0, 69, 73
2, 73489, Note_on_c, 0, 69, 0
2, 73501, Note_on_c, 0, 71, 67
2, 73544, Note_on_c, 0, 71, 0
2, 73562, Note_on_c, 0, 73, 69
2, 73588, Note_on_c, 0, 73, 0
2, 73614, Note_on_c, 0, 74, 76
2, 73660, Note_on_c, 0, 74, 0
2, 73672, Note_on_c, 0, 76, 69
2, 73717, Note_on_c, 0, 76, 0
2, 73734, Note_on_c, 0, 77, 78
2, 73788, Note_on_c, 0, 76, 64
2, 73794, Note_on_c, 0, 77, 0
2, 73828, Note_on_c, 0, 76, 0
2, 73842, Note_on_c, 0, 74, 64
2, 73879, Note_on_c, 0, 74, 0
2, 73907, Note_on_c, 0, 73, 75
2, 73969, Note_on_c, 0, 71, 65
2, 73978, Note_on_c, 0, 73, 0
2, 74010, Note_on_c, 0, 71, 0
2, 74024, Note_on_c, 0, 69, 75
2, 74063, Note_on_c, 0, 69, 0
2, 74075, Note_on_c, 0, 68, 75
2, 74131, Note_on_c, 0, 66, 80
2, 74134, Note_on_c, 0, 68, 0
2, 74186, Note_on_c, 0, 66, 0
2, 74188, Note_on_c, 0, 64, 72
2, 74245, Note_on_c, 0, 62, 81
2, 74257, Note_on_c, 0, 64, 0
2, 74290, Note_on_c, 0, 61, 73
2, 74296, Note_on_c, 0, 62, 0
2, 74462, Note_on_c, 0, 64, 59
2, 74507, Control_c, 0, 64, 57
2, 74507, Note_on_c, 0, 67, 72
2, 74522, Control_c, 0, 64, 67
2, 74527, Note_on_c, 0, 61, 0
2, 74537, Control_c, 0, 64, 75
2, 74544, Note_on_c, 0, 64, 0
2, 74552, Control_c, 0, 64, 87
2, 74554, Note_on_c, 0, 70, 76
2, 74567, Control_c, 0, 64, 95
2, 74574, Note_on_c, 0, 67, 0
2, 74576, Note_on_c, 0, 73, 73
2, 74582, Control_c, 0, 64, 100
2, 74587, Note_on_c, 0, 70, 0
2, 74597, Control_c, 0, 64, 105
2, 74613, Control_c, 0, 64, 109
2, 74617, Note_on_c, 0, 76, 84
2, 74628, Control_c, 0, 64, 113
2, 74651, Control_c, 0, 64, 121
2, 74663, Note_on_c, 0, 79, 84
2, 74664, Note_on_c, 0, 73, 0
2, 74666, Control_c, 0, 64, 127
2, 74699, Note_on_c, 0, 82, 91
2, 74704, Note_on_c, 0, 76, 0
2, 74724, Note_on_c, 0, 79, 0
2, 74736, Note_on_c, 0, 82, 0
2, 75168, Control_c, 0, 64, 127
2, 75184, Control_c, 0, 64, 110
2, 75199, Control_c, 0, 64, 95
2, 75214, Control_c, 0, 64, 77
2, 75223, Note_on_c, 0, 62, 83
2, 75229, Control_c, 0, 64, 0
2, 75335, Control_c, 0, 64, 54
2, 75350, Control_c, 0, 64, 66
2, 75366, Control_c, 0, 64, 75
2, 75381, Control_c, 0, 64, 87
2, 75396, Control_c, 0, 64, 98
2, 75419, Control_c, 0, 64, 106
2, 75434, Control_c, 0, 64, 112
2, 75443, Note_on_c, 0, 65, 68
2, 75450, Control_c, 0, 64, 116
2, 75465, Control_c, 0, 64, 125
2, 75467, Note_on_c, 0, 68, 82
2, 75480, Control_c, 0, 64, 127
2, 75487, Note_on_c, 0, 62, 0
2, 75528, Note_on_c, 0, 65, 0
2, 75528, Note_on_c, 0, 71, 79
2, 75562, Note_on_c, 0, 68, 0
2, 75571, Note_on_c, 0, 71, 0
2, 75574, Note_on_c, 0, 74, 82
2, 75615, Note_on_c, 0, 77, 84
2, 75651, Note_on_c, 0, 80, 91
2, 75670, Note_on_c, 0, 74, 0
2, 75702, Note_on_c, 0, 83, 84
2, 75714, Note_on_c, 0, 77, 0
2, 75747, Note_on_c, 0, 80, 0
2, 75779, Note_on_c, 0, 83, 0
2, 76397, Note_on_c, 0, 45, 49
2, 76475, Control_c, 0, 64, 125
2, 76491, Control_c, 0, 64, 114
2, 76506, Control_c, 0, 64, 107
2, 76522, Control_c, 0, 64, 100
2, 76537, Control_c, 0, 64, 94
2, 76552, Control_c, 0, 64, 87
2, 76568, Control_c, 0, 64, 80
2, 76583, Control_c, 0, 64, 74
2, 76597, Control_c, 0, 64, 67
2, 76613, Control_c, 0, 64, 54
2, 76624, Note_on_c, 0, 52, 52
2, 76628, Control_c, 0, 64, 0
2, 76825, Note_on_c, 0, 57, 53
2, 77010, Note_on_c, 0, 64, 69
2, 77302, Note_on_c, 0, 69, 77
2, 77798, Note_on_c, 0, 74, 77
2, 78179, Control_c, 0, 64, 17
2, 78194, Control_c, 0, 64, 52
2, 78209, Control_c, 0, 64, 61
2, 78224, Control_c, 0, 64, 64
2, 78239, Control_c, 0, 64, 67
2, 78255, Control_c, 0, 64, 70
2, 78270, Control_c, 0, 64, 75
2, 78286, Control_c, 0, 64, 78
2, 78301, Control_c, 0, 64, 80
2, 78316, Control_c, 0, 64, 82
2, 78325, Note_on_c, 0, 74, 0
2, 78332, Control_c, 0, 64, 83
2, 78347, Control_c, 0, 64, 84
2, 78353, Note_on_c, 0, 57, 0
2, 78362, Control_c, 0, 64, 85
2, 78377, Control_c, 0, 64, 86
2, 79114, Control_c, 0, 64, 85
2, 79130, Control_c, 0, 64, 85
2, 79131, Note_on_c, 0, 55, 31
2, 79144, Note_on_c, 0, 74, 55
2, 79145, Control_c, 0, 64, 84
2, 79159, Control_c, 0, 64, 82
2, 79175, Control_c, 0, 64, 80
2, 79190, Control_c, 0, 64, 76
2, 79206, Control_c, 0, 64, 70
2, 79221, Control_c, 0, 64, 62
2, 79236, Control_c, 0, 64, 0
2, 79355, Note_on_c, 0, 73, 62
2, 79368, Note_on_c, 0, 74, 0
2, 79482, Note_on_c, 0, 73, 0
2, 79490, Note_on_c, 0, 74, 62
2, 79607, Note_on_c, 0, 73, 72
2, 79633, Note_on_c, 0, 74, 0
2, 79744, Note_on_c, 0, 74, 73
2, 79751, Note_on_c, 0, 73, 0
2, 79878, Note_on_c, 0, 73, 72
2, 80085, Note_on_c, 0, 71, 66
2, 80125, Note_on_c, 0, 74, 0
2, 80157, Note_on_c, 0, 73, 0
2, 80221, Note_on_c, 0, 45, 0
2, 80282, Note_on_c, 0, 52, 0
2, 80284, Note_on_c, 0, 73, 70
2, 80590, Note_on_c, 0, 50, 44
2, 80667, Note_on_c, 0, 55, 0
2, 80873, Note_on_c, 0, 54, 40
2, 80886, Note_on_c, 0, 64, 0
2, 81004, Note_on_c, 0, 69, 0
2, 81138, Note_on_c, 0, 57, 46
2, 81407, Note_on_c, 0, 71, 0
2, 81454, Note_on_c, 0, 73, 0
2, 81456, Note_on_c, 0, 66, 62
2, 81986, Note_on_c, 0, 69, 58
2, 83218, Note_on_c, 0, 74, 44
2, 88758, Note_on_c, 0, 57, 0
2, 88770, Note_on_c, 0, 50, 0
2, 88803, Note_on_c, 0, 74, 0
2, 88822, Note_on_c, 0, 69, 0
2, 88850, Note_on_c, 0, 66, 0
2, 88864, Note_on_c, 0, 54, 0
2, 90052, Note_on_c, 0, 50, 38
2, 90147, Note_on_c, 0, 52, 52
2, 90161, Note_on_c, 0, 50, 0
2, 90225, Note_on_c, 0, 54, 60
2, 90229, Note_on_c, 0, 52, 0
2, 90283, Note_on_c, 0, 54, 0
2, 90296, Note_on_c, 0, 55, 62
2, 90357, Note_on_c, 0, 55, 0
2, 90361, Note_on_c, 0, 54, 62
2, 90421, Note_on_c, 0, 54, 0
2, 90431, Note_on_c, 0, 52, 71
2, 90492, Note_on_c, 0, 54, 72
2, 90494, Note_on_c, 0, 52, 0
2, 90557, Note_on_c, 0, 54, 0
2, 90564, Note_on_c, 0, 50, 67
2, 90646, Note_on_c, 0, 50, 0
2, 90666, Note_on_c, 0, 59, 63
2, 90868, Control_c, 0, 64, 55
2, 90882, Control_c, 0, 64, 64
2, 90898, Control_c, 0, 64, 68
2, 90913, Control_c, 0, 64, 72
2, 90929, Control_c, 0, 64, 77
2, 90944, Control_c, 0, 64, 80
2, 90959, Control_c, 0, 64, 82
2, 90975, Control_c, 0, 64, 84
2, 90990, Control_c, 0, 64, 86
2, 91004, Control_c, 0, 64, 88
2, 91020, Control_c, 0, 64, 90
2, 91035, Control_c, 0, 64, 92
2, 91051, Control_c, 0, 64, 93
2, 91065, Control_c, 0, 64, 93
2, 91072, Note_on_c, 0, 59, 0
2, 91080, Control_c, 0, 64, 94
2, 91096, Control_c, 0, 64, 94
2, 91476, Note_on_c, 0, 59, 58
2, 91506, Control_c, 0, 64, 94
2, 91512, Note_on_c, 0, 59, 0
2, 91521, Control_c, 0, 64, 91
2, 91524, Note_on_c, 0, 57, 58
2, 91543, Control_c, 0, 64, 86
2, 91558, Control_c, 0, 64, 79
2, 91575, Control_c, 0, 64, 71
2, 91590, Control_c, 0, 64, 57
2, 91605, Control_c, 0, 64, 0
2, 92332, Note_on_c, 0, 55, 51
2, 92344, Note_on_c, 0, 57, 0
2, 92407, Note_on_c, 0, 55, 0
2, 92420, Note_on_c, 0, 54, 46
2, 93123, Note_on_c, 0, 54, 0
2, 93141, Note_on_c, 0, 55, 42
2, 93260, Note_on_c, 0, 55, 0
2, 93276, Note_on_c, 0, 54, 47
2, 93289, Note_on_c, 0, 57, 51
2, 93356, Note_on_c, 0, 59, 53
2, 93365, Note_on_c, 0, 57, 0
2, 93434, Note_on_c, 0, 61, 62
2, 93444, Note_on_c, 0, 59, 0
2, 93500, Note_on_c, 0, 61, 0
2, 93505, Note_on_c, 0, 62, 67
2, 93569, Note_on_c, 0, 61, 61
2, 93601, Note_on_c, 0, 62, 0
2, 93646, Note_on_c, 0, 59, 73
2, 93650, Note_on_c, 0, 61, 0
2, 93708, Note_on_c, 0, 61, 77
2, 93715, Note_on_c, 0, 59, 0
2, 93764, Note_on_c, 0, 52, 60
2, 93776, Note_on_c, 0, 61, 0
2, 93789, Note_on_c, 0, 57, 77
2, 93806, Note_on_c, 0, 54, 0
2, 93872, Note_on_c, 0, 52, 0
2, 93891, Note_on_c, 0, 50, 55
2, 93898, Note_on_c, 0, 66, 76
2, 93931, Note_on_c, 0, 57, 0
2, 94093, Control_c, 0, 64, 54
2, 94107, Control_c, 0, 64, 65
2, 94122, Control_c, 0, 64, 70
2, 94138, Control_c, 0, 64, 76
2, 94152, Control_c, 0, 64, 82
2, 94167, Control_c, 0, 64, 86
2, 94183, Control_c, 0, 64, 89
2, 94198, Control_c, 0, 64, 91
2, 94203, Note_on_c, 0, 66, 0
2, 94214, Control_c, 0, 64, 93
2, 94228, Control_c, 0, 64, 95
2, 94243, Control_c, 0, 64, 97
2, 94259, Control_c, 0, 64, 98
2, 94274, Control_c, 0, 64, 99
2, 94304, Control_c, 0, 64, 99
2, 94642, Note_on_c, 0, 66, 56
2, 94677, Control_c, 0, 64, 99
2, 94707, Control_c, 0, 64, 97
2, 94722, Control_c, 0, 64, 95
2, 94726, Note_on_c, 0, 64, 66
2, 94738, Control_c, 0, 64, 91
2, 94751, Note_on_c, 0, 52, 45
2, 94753, Control_c, 0, 64, 86
2, 94756, Note_on_c, 0, 50, 0
2, 94762, Note_on_c, 0, 66, 0
2, 94767, Control_c, 0, 64, 80
2, 94783, Control_c, 0, 64, 74
2, 94798, Control_c, 0, 64, 67
2, 94814, Control_c, 0, 64, 52
2, 94829, Control_c, 0, 64, 0
2, 95558, Note_on_c, 0, 62, 47
2, 95616, Note_on_c, 0, 64, 0
2, 95625, Note_on_c, 0, 61, 59
2, 95652, Note_on_c, 0, 62, 0
2, 95655, Note_on_c, 0, 45, 33
2, 95657, Note_on_c, 0, 52, 0
2, 95841, Control_c, 0, 64, 42
2, 95857, Control_c, 0, 64, 63
2, 95872, Control_c, 0, 64, 68
2, 95887, Control_c, 0, 64, 74
2, 95903, Control_c, 0, 64, 80
2, 95917, Control_c, 0, 64, 84
2, 95933, Control_c, 0, 64, 86
2, 95948, Control_c, 0, 64, 88
2, 95963, Control_c, 0, 64, 89
2, 95964, Note_on_c, 0, 45, 0
2, 95978, Control_c, 0, 64, 90
2, 95993, Control_c, 0, 64, 91
2, 96009, Control_c, 0, 64, 91
2, 96039, Control_c, 0, 64, 92
2, 96069, Control_c, 0, 64, 92
2, 96352, Note_on_c, 0, 52, 59
2, 96384, Note_on_c, 0, 54, 64
2, 96416, Note_on_c, 0, 52, 0
2, 96428, Control_c, 0, 64, 92
2, 96440, Note_on_c, 0, 55, 75
2, 96444, Control_c, 0, 64, 91
2, 96458, Control_c, 0, 64, 89
2, 96471, Note_on_c, 0, 54, 0
2, 96473, Control_c, 0, 64, 86
2, 96489, Note_on_c, 0, 66, 83
2, 96490, Control_c, 0, 64, 80
2, 96495, Note_on_c, 0, 57, 67
2, 96505, Control_c, 0, 64, 73
2, 96520, Control_c, 0, 64, 62
2, 96523, Note_on_c, 0, 55, 0
2, 96536, Control_c, 0, 64, 0
2, 96538, Note_on_c, 0, 61, 0
2, 96734, Control_c, 0, 64, 15
2, 96749, Control_c, 0, 64, 56
2, 96764, Control_c, 0, 64, 64
2, 96779, Control_c, 0, 64, 69
2, 96794, Control_c, 0, 64, 74
2, 96810, Control_c, 0, 64, 79
2, 96824, Control_c, 0, 64, 84
2, 96839, Control_c, 0, 64, 87
2, 96855, Control_c, 0, 64, 89
2, 96870, Control_c, 0, 64, 91
2, 96886, Control_c, 0, 64, 92
2, 96893, Note_on_c, 0, 66, 0
2, 96900, Control_c, 0, 64, 94
2, 96924, Control_c, 0, 64, 95
2, 96938, Control_c, 0, 64, 95
2, 96953, Control_c, 0, 64, 96
2, 96969, Control_c, 0, 64, 96
2, 96999, Control_c, 0, 64, 97
2, 97265, Note_on_c, 0, 66, 60
2, 97317, Control_c, 0, 64, 96
2, 97333, Control_c, 0, 64, 92
2, 97348, Control_c, 0, 64, 86
2, 97352, Note_on_c, 0, 59, 62
2, 97364, Control_c, 0, 64, 76
2, 97379, Control_c, 0, 64, 63
2, 97394, Control_c, 0, 64, 0
2, 97470, Note_on_c, 0, 66, 0
2, 97545, Control_c, 0, 64, 54
2, 97560, Control_c, 0, 64, 65
2, 97576, Control_c, 0, 64, 71
2, 97591, Control_c, 0, 64, 78
2, 97606, Control_c, 0, 64, 84
2, 97621, Control_c, 0, 64, 87
2, 97636, Control_c, 0, 64, 89
2, 97652, Control_c, 0, 64, 91
2, 97666, Control_c, 0, 64, 92
2, 97690, Control_c, 0, 64, 94
2, 97705, Control_c, 0, 64, 96
2, 97720, Control_c, 0, 64, 97
2, 97736, Control_c, 0, 64, 98
2, 97750, Control_c, 0, 64, 98
2, 97790, Note_on_c, 0, 59, 0
2, 97795, Control_c, 0, 64, 99
2, 98012, Note_on_c, 0, 59, 52
2, 98039, Control_c, 0, 64, 98
2, 98052, Note_on_c, 0, 61, 61
2, 98065, Note_on_c, 0, 59, 0
2, 98085, Control_c, 0, 64, 97
2, 98100, Control_c, 0, 64, 96
2, 98115, Control_c, 0, 64, 94
2, 98117, Note_on_c, 0, 62, 41
2, 98131, Control_c, 0, 64, 90
2, 98142, Note_on_c, 0, 57, 0
2, 98146, Control_c, 0, 64, 84
2, 98147, Note_on_c, 0, 60, 25
2, 98149, Note_on_c, 0, 61, 0
2, 98153, Note_on_c, 0, 62, 0
2, 98159, Note_on_c, 0, 64, 59
2, 98162, Control_c, 0, 64, 76
2, 98162, Note_on_c, 0, 55, 46
2, 98177, Control_c, 0, 64, 68
2, 98183, Note_on_c, 0, 60, 0
2, 98192, Control_c, 0, 64, 53
2, 98208, Control_c, 0, 64, 0
2, 98349, Note_on_c, 0, 62, 62
2, 98351, Note_on_c, 0, 64, 0
2, 98555, Note_on_c, 0, 64, 55
2, 98578, Note_on_c, 0, 62, 0
2, 98688, Note_on_c, 0, 64, 0
2, 98696, Note_on_c, 0, 61, 52
2, 98862, Note_on_c, 0, 61, 0
2, 98898, Note_on_c, 0, 57, 47
2, 99052, Control_c, 0, 64, 51
2, 99066, Control_c, 0, 64, 62
2, 99082, Control_c, 0, 64, 67
2, 99097, Control_c, 0, 64, 70
2, 99112, Control_c, 0, 64, 75
2, 99128, Control_c, 0, 64, 78
2, 99143, Control_c, 0, 64, 81
2, 99158, Control_c, 0, 64, 82
2, 99173, Control_c, 0, 64, 84
2, 99188, Control_c, 0, 64, 84
2, 99204, Control_c, 0, 64, 85
2, 99226, Control_c, 0, 64, 86
2, 99242, Control_c, 0, 64, 86
2, 99317, Control_c, 0, 64, 87
2, 99329, Note_on_c, 0, 57, 0
2, 99455, Note_on_c, 0, 54, 55
2, 99461, Note_on_c, 0, 55, 0
2, 99497, Note_on_c, 0, 54, 0
2, 99528, Note_on_c, 0, 52, 55
2, 99575, Control_c, 0, 64, 86
2, 99599, Note_on_c, 0, 52, 0
2, 99605, Control_c, 0, 64, 85
2, 99618, Note_on_c, 0, 62, 63
2, 99620, Control_c, 0, 64, 80
2, 99623, Note_on_c, 0, 54, 48
2, 99635, Control_c, 0, 64, 71
2, 99651, Control_c, 0, 64, 34
2, 99666, Control_c, 0, 64, 0
2, 99690, Note_on_c, 0, 64, 58
2, 99694, Note_on_c, 0, 62, 0
2, 99774, Note_on_c, 0, 66, 65
2, 99791, Note_on_c, 0, 64, 0
2, 99842, Note_on_c, 0, 66, 0
2, 99843, Note_on_c, 0, 67, 70
2, 99914, Note_on_c, 0, 66, 75
2, 99952, Note_on_c, 0, 67, 0
2, 99992, Note_on_c, 0, 64, 78
2, 100003, Note_on_c, 0, 66, 0
2, 100065, Note_on_c, 0, 66, 83
2, 100078, Note_on_c, 0, 64, 0
2, 100122, Note_on_c, 0, 50, 49
2, 100126, Note_on_c, 0, 54, 0
2, 100139, Note_on_c, 0, 62, 87
2, 100153, Note_on_c, 0, 66, 0
2, 100244, Note_on_c, 0, 55, 59
2, 100250, Note_on_c, 0, 71, 77
2, 100285, Note_on_c, 0, 50, 0
2, 100434, Control_c, 0, 64, 39
2, 100449, Control_c, 0, 64, 60
2, 100464, Control_c, 0, 64, 65
2, 100479, Control_c, 0, 64, 68
2, 100495, Control_c, 0, 64, 73
2, 100510, Control_c, 0, 64, 77
2, 100525, Control_c, 0, 64, 81
2, 100534, Note_on_c, 0, 71, 0
2, 100539, Note_on_c, 0, 62, 0
2, 100540, Control_c, 0, 64, 83
2, 100555, Control_c, 0, 64, 85
2, 100571, Control_c, 0, 64, 88
2, 100587, Control_c, 0, 64, 89
2, 100603, Control_c, 0, 64, 91
2, 100618, Control_c, 0, 64, 92
2, 100632, Control_c, 0, 64, 93
2, 100648, Control_c, 0, 64, 93
2, 100708, Control_c, 0, 64, 94
2, 100987, Note_on_c, 0, 55, 0
2, 101014, Note_on_c, 0, 71, 57
2, 101020, Control_c, 0, 64, 93
2, 101031, Note_on_c, 0, 52, 40
2, 101051, Control_c, 0, 64, 92
2, 101066, Control_c, 0, 64, 90
2, 101081, Control_c, 0, 64, 86
2, 101096, Control_c, 0, 64, 80
2, 101100, Note_on_c, 0, 71, 0
2, 101111, Control_c, 0, 64, 72
2, 101127, Control_c, 0, 64, 61
2, 101128, Note_on_c, 0, 52, 0
2, 101128, Note_on_c, 0, 69, 52
2, 101142, Control_c, 0, 64, 0
2, 101143, Note_on_c, 0, 61, 44
2, 101151, Note_on_c, 0, 57, 34
2, 101858, Note_on_c, 0, 45, 27
2, 101862, Note_on_c, 0, 61, 0
2, 101878, Note_on_c, 0, 69, 0
2, 101879, Note_on_c, 0, 67, 42
2, 101946, Note_on_c, 0, 67, 0
2, 101953, Note_on_c, 0, 45, 0
2, 101958, Note_on_c, 0, 66, 48
2, 101968, Note_on_c, 0, 57, 0
2, 101970, Note_on_c, 0, 50, 36
2, 101984, Note_on_c, 0, 62, 37
2, 102184, Control_c, 0, 64, 48
2, 102199, Control_c, 0, 64, 63
2, 102215, Control_c, 0, 64, 68
2, 102230, Control_c, 0, 64, 72
2, 102246, Control_c, 0, 64, 77
2, 102261, Control_c, 0, 64, 81
2, 102276, Control_c, 0, 64, 84
2, 102299, Control_c, 0, 64, 86
2, 102314, Control_c, 0, 64, 88
2, 102329, Control_c, 0, 64, 90
2, 102335, Note_on_c, 0, 50, 0
2, 102344, Control_c, 0, 64, 92
2, 102359, Control_c, 0, 64, 94
2, 102374, Control_c, 0, 64, 95
2, 102389, Control_c, 0, 64, 96
2, 102405, Control_c, 0, 64, 97
2, 102420, Control_c, 0, 64, 97
2, 102435, Control_c, 0, 64, 98
2, 102466, Control_c, 0, 64, 98
2, 102610, Note_on_c, 0, 62, 0
2, 102622, Note_on_c, 0, 52, 45
2, 102623, Note_on_c, 0, 68, 64
2, 102641, Note_on_c, 0, 66, 0
2, 102654, Note_on_c, 0, 52, 0
2, 102657, Note_on_c, 0, 68, 0
2, 102739, Control_c, 0, 64, 98
2, 102754, Control_c, 0, 64, 96
2, 102768, Note_on_c, 0, 61, 54
2, 102770, Control_c, 0, 64, 94
2, 102784, Control_c, 0, 64, 90
2, 102785, Note_on_c, 0, 54, 47
2, 102792, Note_on_c, 0, 69, 46
2, 102799, Control_c, 0, 64, 85
2, 102815, Control_c, 0, 64, 77
2, 102830, Control_c, 0, 64, 70
2, 102830, Note_on_c, 0, 67, 22
2, 102846, Control_c, 0, 64, 61
2, 102855, Note_on_c, 0, 69, 0
2, 102855, Note_on_c, 0, 71, 62
2, 102860, Control_c, 0, 64, 0
2, 102869, Note_on_c, 0, 67, 0
2, 102932, Note_on_c, 0, 73, 64
2, 102945, Note_on_c, 0, 71, 0
2, 102993, Note_on_c, 0, 73, 0
2, 102996, Note_on_c, 0, 74, 70
2, 103074, Note_on_c, 0, 73, 76
2, 103106, Note_on_c, 0, 74, 0
2, 103144, Note_on_c, 0, 71, 80
2, 103151, Note_on_c, 0, 73, 0
2, 103211, Note_on_c, 0, 73, 83
2, 103222, Note_on_c, 0, 71, 0
2, 103283, Note_on_c, 0, 73, 0
2, 103293, Note_on_c, 0, 69, 83
2, 103303, Note_on_c, 0, 61, 0
2, 103308, Note_on_c, 0, 52, 55
2, 103390, Note_on_c, 0, 59, 55
2, 103395, Note_on_c, 0, 54, 0
2, 103405, Note_on_c, 0, 78, 81
2, 103436, Note_on_c, 0, 52, 0
2, 103441, Note_on_c, 0, 50, 53
2, 103644, Control_c, 0, 64, 34
2, 103659, Control_c, 0, 64, 62
2, 103674, Control_c, 0, 64, 67
2, 103690, Control_c, 0, 64, 73
2, 103702, Note_on_c, 0, 69, 0
2, 103704, Control_c, 0, 64, 80
2, 103719, Control_c, 0, 64, 84
2, 103727, Note_on_c, 0, 78, 0
2, 103735, Control_c, 0, 64, 87
2, 103750, Control_c, 0, 64, 88
2, 103766, Control_c, 0, 64, 89
2, 103781, Control_c, 0, 64, 89
2, 103796, Control_c, 0, 64, 90
2, 103833, Control_c, 0, 64, 90
2, 103880, Control_c, 0, 64, 91
2, 104071, Note_on_c, 0, 50, 0
2, 104121, Note_on_c, 0, 78, 69
2, 104131, Note_on_c, 0, 47, 39
2, 104169, Control_c, 0, 64, 90
2, 104184, Control_c, 0, 64, 86
2, 104189, Note_on_c, 0, 47, 0
2, 104198, Control_c, 0, 64, 81
2, 104211, Note_on_c, 0, 52, 57
2, 104214, Control_c, 0, 64, 71
2, 104215, Note_on_c, 0, 68, 75
2, 104218, Note_on_c, 0, 76, 74
2, 104229, Control_c, 0, 64, 53
2, 104245, Control_c, 0, 64, 0
2, 104271, Note_on_c, 0, 78, 0
2, 104395, Control_c, 0, 64, 56
2, 104411, Control_c, 0, 64, 66
2, 104426, Control_c, 0, 64, 73
2, 104441, Control_c, 0, 64, 81
2, 104457, Control_c, 0, 64, 87
2, 104462, Note_on_c, 0, 59, 0
2, 104471, Control_c, 0, 64, 91
2, 104487, Control_c, 0, 64, 94
2, 104502, Control_c, 0, 64, 96
2, 104517, Control_c, 0, 64, 99
2, 104525, Note_on_c, 0, 52, 0
2, 104533, Control_c, 0, 64, 102
2, 104548, Control_c, 0, 64, 105
2, 104564, Control_c, 0, 64, 107
2, 104579, Control_c, 0, 64, 109
2, 104616, Control_c, 0, 64, 109
2, 104951, Note_on_c, 0, 74, 52
2, 104957, Note_on_c, 0, 76, 0
2, 104969, Note_on_c, 0, 68, 0
2, 105013, Control_c, 0, 64, 109
2, 105027, Control_c, 0, 64, 107
2, 105043, Control_c, 0, 64, 102
2, 105058, Control_c, 0, 64, 93
2, 105059, Note_on_c, 0, 73, 61
2, 105061, Note_on_c, 0, 69, 60
2, 105073, Control_c, 0, 64, 78
2, 105081, Note_on_c, 0, 57, 39
2, 105087, Note_on_c, 0, 45, 40
2, 105089, Control_c, 0, 64, 61
2, 105101, Note_on_c, 0, 74, 0
2, 105104, Control_c, 0, 64, 0
2, 105194, Control_c, 0, 64, 51
2, 105210, Control_c, 0, 64, 63
2, 105225, Control_c, 0, 64, 69
2, 105239, Control_c, 0, 64, 77
2, 105244, Note_on_c, 0, 69, 0
2, 105255, Control_c, 0, 64, 87
2, 105270, Control_c, 0, 64, 95
2, 105281, Note_on_c, 0, 73, 0
2, 105286, Control_c, 0, 64, 99
2, 105301, Control_c, 0, 64, 102
2, 105310, Note_on_c, 0, 45, 0
2, 105315, Control_c, 0, 64, 104
2, 105331, Control_c, 0, 64, 105
2, 105343, Note_on_c, 0, 57, 0
2, 105346, Control_c, 0, 64, 106
2, 105369, Control_c, 0, 64, 107
2, 105704, Note_on_c, 0, 76, 57
2, 105754, Note_on_c, 0, 78, 63
2, 105798, Note_on_c, 0, 79, 69
2, 105811, Control_c, 0, 64, 106
2, 105813, Note_on_c, 0, 76, 0
2, 105826, Control_c, 0, 64, 106
2, 105841, Control_c, 0, 64, 105
2, 105857, Control_c, 0, 64, 103
2, 105872, Control_c, 0, 64, 100
2, 105888, Control_c, 0, 64, 96
2, 105891, Note_on_c, 0, 81, 74
2, 105902, Control_c, 0, 64, 89
2, 105908, Note_on_c, 0, 66, 53
2, 105908, Note_on_c, 0, 73, 66
2, 105917, Control_c, 0, 64, 78
2, 105933, Control_c, 0, 64, 64
2, 105948, Control_c, 0, 64, 0
2, 105987, Note_on_c, 0, 67, 62
2, 106000, Note_on_c, 0, 79, 0
2, 106001, Note_on_c, 0, 66, 0
2, 106001, Note_on_c, 0, 78, 0
2, 106065, Note_on_c, 0, 69, 76
2, 106079, Note_on_c, 0, 67, 0
2, 106126, Note_on_c, 0, 71, 67
2, 106129, Note_on_c, 0, 69, 0
2, 106184, Note_on_c, 0, 81, 0
2, 106210, Note_on_c, 0, 69, 76
2, 106223, Note_on_c, 0, 71, 0
2, 106241, Note_on_c, 0, 73, 0
2, 106274, Note_on_c, 0, 69, 0
2, 106276, Note_on_c, 0, 67, 72
2, 106355, Note_on_c, 0, 67, 0
2, 106363, Note_on_c, 0, 69, 77
2, 106434, Note_on_c, 0, 81, 79
2, 106444, Note_on_c, 0, 69, 0
2, 106464, Note_on_c, 0, 66, 63
2, 106484, Note_on_c, 0, 81, 0
2, 106579, Note_on_c, 0, 66, 0
2, 106580, Note_on_c, 0, 81, 80
2, 106588, Note_on_c, 0, 74, 68
2, 106599, Note_on_c, 0, 71, 56
2, 106701, Control_c, 0, 64, 38
2, 106716, Control_c, 0, 64, 59
2, 106731, Control_c, 0, 64, 64
2, 106746, Control_c, 0, 64, 67
2, 106761, Control_c, 0, 64, 72
2, 106777, Control_c, 0, 64, 77
2, 106792, Control_c, 0, 64, 80
2, 106808, Control_c, 0, 64, 82
2, 106823, Control_c, 0, 64, 84
2, 106838, Control_c, 0, 64, 86
2, 106853, Control_c, 0, 64, 86
2, 106884, Control_c, 0, 64, 87
2, 106888, Note_on_c, 0, 71, 0
2, 106936, Control_c, 0, 64, 87
2, 106950, Note_on_c, 0, 81, 0
2, 107003, Note_on_c, 0, 74, 0
2, 107152, Note_on_c, 0, 74, 46
2, 107210, Note_on_c, 0, 74, 0
2, 107213, Note_on_c, 0, 76, 49
2, 107236, Note_on_c, 0, 78, 64
2, 107251, Note_on_c, 0, 76, 0
2, 107302, Control_c, 0, 64, 87
2, 107317, Control_c, 0, 64, 86
2, 107323, Note_on_c, 0, 74, 60
2, 107333, Control_c, 0, 64, 85
2, 107335, Note_on_c, 0, 79, 65
2, 107348, Control_c, 0, 64, 84
2, 107348, Note_on_c, 0, 64, 39
2, 107363, Control_c, 0, 64, 81
2, 107365, Note_on_c, 0, 78, 0
2, 107378, Control_c, 0, 64, 77
2, 107393, Control_c, 0, 64, 72
2, 107409, Control_c, 0, 64, 63
2, 107423, Control_c, 0, 64, 0
2, 107434, Note_on_c, 0, 64, 0
2, 107434, Note_on_c, 0, 66, 55
2, 107504, Note_on_c, 0, 67, 62
2, 107509, Note_on_c, 0, 66, 0
2, 107566, Note_on_c, 0, 67, 0
2, 107579, Note_on_c, 0, 69, 67
2, 107606, Control_c, 0, 64, 24
2, 107618, Note_on_c, 0, 79, 0
2, 107621, Control_c, 0, 64, 60
2, 107636, Control_c, 0, 64, 64
2, 107652, Control_c, 0, 64, 66
2, 107653, Note_on_c, 0, 69, 0
2, 107660, Note_on_c, 0, 67, 68
2, 107674, Control_c, 0, 64, 69
2, 107690, Control_c, 0, 64, 71
2, 107704, Control_c, 0, 64, 74
2, 107719, Control_c, 0, 64, 77
2, 107726, Note_on_c, 0, 67, 0
2, 107728, Note_on_c, 0, 66, 73
2, 107735, Control_c, 0, 64, 78
2, 107750, Control_c, 0, 64, 79
2, 107793, Note_on_c, 0, 66, 0
2, 107798, Note_on_c, 0, 67, 73
2, 107811, Control_c, 0, 64, 80
2, 107833, Note_on_c, 0, 74, 0
2, 107865, Note_on_c, 0, 79, 76
2, 107868, Note_on_c, 0, 67, 0
2, 107895, Note_on_c, 0, 64, 61
2, 107920, Note_on_c, 0, 79, 0
2, 107978, Control_c, 0, 64, 79
2, 107993, Control_c, 0, 64, 77
2, 108009, Control_c, 0, 64, 72
2, 108020, Note_on_c, 0, 64, 0
2, 108021, Note_on_c, 0, 69, 62
2, 108024, Control_c, 0, 64, 64
2, 108024, Note_on_c, 0, 79, 70
2, 108028, Note_on_c, 0, 73, 65
2, 108039, Control_c, 0, 64, 0
2, 108160, Control_c, 0, 64, 17
2, 108176, Control_c, 0, 64, 62
2, 108191, Control_c, 0, 64, 69
2, 108206, Control_c, 0, 64, 78
2, 108211, Note_on_c, 0, 79, 0
2, 108221, Control_c, 0, 64, 87
2, 108236, Control_c, 0, 64, 93
2, 108252, Control_c, 0, 64, 95
2, 108255, Note_on_c, 0, 69, 0
2, 108266, Control_c, 0, 64, 97
2, 108281, Control_c, 0, 64, 98
2, 108297, Control_c, 0, 64, 100
2, 108312, Control_c, 0, 64, 101
2, 108327, Note_on_c, 0, 73, 0
2, 108328, Control_c, 0, 64, 103
2, 108342, Control_c, 0, 64, 104
2, 108357, Control_c, 0, 64, 104
2, 108373, Control_c, 0, 64, 105
2, 108592, Note_on_c, 0, 76, 61
2, 108644, Note_on_c, 0, 74, 64
2, 108683, Note_on_c, 0, 76, 0
2, 108685, Control_c, 0, 64, 104
2, 108697, Note_on_c, 0, 73, 69
2, 108715, Control_c, 0, 64, 104
2, 108723, Note_on_c, 0, 74, 0
2, 108746, Control_c, 0, 64, 103
2, 108761, Control_c, 0, 64, 102
2, 108767, Note_on_c, 0, 38, 52
2, 108777, Control_c, 0, 64, 100
2, 108784, Note_on_c, 0, 78, 83
2, 108785, Note_on_c, 0, 74, 58
2, 108788, Note_on_c, 0, 69, 73
2, 108792, Control_c, 0, 64, 96
2, 108808, Control_c, 0, 64, 88
2, 108817, Note_on_c, 0, 73, 0
2, 108823, Control_c, 0, 64, 79
2, 108838, Control_c, 0, 64, 66
2, 108849, Note_on_c, 0, 40, 61
2, 108853, Control_c, 0, 64, 0
2, 108856, Note_on_c, 0, 38, 0
2, 108924, Note_on_c, 0, 42, 66
2, 108930, Note_on_c, 0, 40, 0
2, 108989, Note_on_c, 0, 78, 0
2, 109003, Note_on_c, 0, 42, 0
2, 109008, Note_on_c, 0, 43, 70
2, 109023, Note_on_c, 0, 74, 0
2, 109051, Control_c, 0, 64, 15
2, 109066, Control_c, 0, 64, 58
2, 109073, Note_on_c, 0, 42, 66
2, 109076, Note_on_c, 0, 69, 0
2, 109081, Control_c, 0, 64, 64
2, 109085, Note_on_c, 0, 43, 0
2, 109097, Control_c, 0, 64, 67
2, 109111, Control_c, 0, 64, 70
2, 109127, Control_c, 0, 64, 74
2, 109142, Control_c, 0, 64, 77
2, 109147, Note_on_c, 0, 40, 72
2, 109148, Note_on_c, 0, 42, 0
2, 109157, Control_c, 0, 64, 80
2, 109173, Control_c, 0, 64, 82
2, 109187, Control_c, 0, 64, 83
2, 109211, Control_c, 0, 64, 84
2, 109226, Control_c, 0, 64, 84
2, 109226, Note_on_c, 0, 40, 0
2, 109228, Note_on_c, 0, 42, 72
2, 109240, Control_c, 0, 64, 85
2, 109256, Control_c, 0, 64, 86
2, 109271, Control_c, 0, 64, 86
2, 109287, Control_c, 0, 64, 87
2, 109302, Control_c, 0, 64, 88
2, 109306, Note_on_c, 0, 42, 0
2, 109311, Note_on_c, 0, 38, 66
2, 109315, Note_on_c, 0, 67, 79
2, 109316, Note_on_c, 0, 76, 74
2, 109324, Note_on_c, 0, 73, 72
2, 109364, Note_on_c, 0, 67, 0
2, 109376, Note_on_c, 0, 76, 0
2, 109378, Control_c, 0, 64, 86
2, 109392, Control_c, 0, 64, 80
2, 109401, Note_on_c, 0, 73, 0
2, 109408, Control_c, 0, 64, 72
2, 109415, Note_on_c, 0, 38, 0
2, 109423, Control_c, 0, 64, 57
2, 109437, Control_c, 0, 64, 0
2, 109440, Note_on_c, 0, 47, 63
2, 109446, Note_on_c, 0, 74, 74
2, 109455, Note_on_c, 0, 66, 84
2, 109651, Control_c, 0, 64, 56
2, 109666, Control_c, 0, 64, 65
2, 109681, Control_c, 0, 64, 73
2, 109697, Control_c, 0, 64, 81
2, 109712, Control_c, 0, 64, 88
2, 109728, Control_c, 0, 64, 92
2, 109742, Control_c, 0, 64, 95
2, 109757, Control_c, 0, 64, 96
2, 109773, Control_c, 0, 64, 97
2, 109788, Control_c, 0, 64, 98
2, 109800, Note_on_c, 0, 47, 0
2, 109804, Control_c, 0, 64, 98
2, 109818, Control_c, 0, 64, 99
2, 109821, Note_on_c, 0, 66, 0
2, 109835, Note_on_c, 0, 74, 0
2, 109849, Control_c, 0, 64, 99
2, 110084, Note_on_c, 0, 76, 74
2, 110086, Note_on_c, 0, 67, 76
2, 110098, Note_on_c, 0, 47, 66
2, 110121, Note_on_c, 0, 67, 0
2, 110134, Note_on_c, 0, 47, 0
2, 110147, Note_on_c, 0, 76, 0
2, 110221, Control_c, 0, 64, 98
2, 110234, Control_c, 0, 64, 95
2, 110236, Note_on_c, 0, 45, 63
2, 110236, Note_on_c, 0, 64, 76
2, 110236, Note_on_c, 0, 73, 75
2, 110238, Note_on_c, 0, 69, 75
2, 110250, Control_c, 0, 64, 89
2, 110265, Control_c, 0, 64, 78
2, 110280, Control_c, 0, 64, 63
2, 110296, Control_c, 0, 64, 0
2, 110464, Control_c, 0, 64, 58
2, 110479, Control_c, 0, 64, 65
2, 110495, Control_c, 0, 64, 69
2, 110509, Control_c, 0, 64, 74
2, 110525, Control_c, 0, 64, 80
2, 110540, Control_c, 0, 64, 83
2, 110555, Control_c, 0, 64, 84
2, 110571, Control_c, 0, 64, 86
2, 110585, Control_c, 0, 64, 87
2, 110600, Control_c, 0, 64, 88
2, 110616, Control_c, 0, 64, 89
2, 110629, Note_on_c, 0, 73, 0
2, 110631, Control_c, 0, 64, 90
2, 110639, Note_on_c, 0, 69, 0
2, 110647, Control_c, 0, 64, 90
2, 110692, Control_c, 0, 64, 91
2, 110692, Note_on_c, 0, 45, 0
2, 110861, Note_on_c, 0, 64, 0
2, 110919, Note_on_c, 0, 73, 61
2, 110937, Note_on_c, 0, 43, 52
2, 110978, Note_on_c, 0, 73, 0
2, 111048, Control_c, 0, 64, 90
2, 111063, Control_c, 0, 64, 89
2, 111078, Control_c, 0, 64, 85
2, 111091, Note_on_c, 0, 69, 59
2, 111094, Control_c, 0, 64, 76
2, 111096, Note_on_c, 0, 62, 56
2, 111099, Note_on_c, 0, 43, 0
2, 111100, Note_on_c, 0, 73, 60
2, 111109, Control_c, 0, 64, 64
2, 111111, Note_on_c, 0, 42, 47
2, 111125, Control_c, 0, 64, 0
2, 111247, Control_c, 0, 64, 47
2, 111262, Control_c, 0, 64, 63
2, 111277, Control_c, 0, 64, 68
2, 111293, Control_c, 0, 64, 74
2, 111308, Control_c, 0, 64, 80
2, 111324, Control_c, 0, 64, 85
2, 111328, Note_on_c, 0, 62, 0
2, 111338, Control_c, 0, 64, 89
2, 111346, Note_on_c, 0, 42, 0
2, 111353, Control_c, 0, 64, 91
2, 111369, Control_c, 0, 64, 92
2, 111382, Note_on_c, 0, 69, 0
2, 111384, Control_c, 0, 64, 93
2, 111385, Note_on_c, 0, 73, 0
2, 111399, Control_c, 0, 64, 93
2, 111429, Control_c, 0, 64, 94
2, 111445, Control_c, 0, 64, 95
2, 111460, Control_c, 0, 64, 95
2, 111528, Control_c, 0, 64, 96
2, 111745, Note_on_c, 0, 50, 51
2, 111772, Control_c, 0, 64, 96
2, 111803, Control_c, 0, 64, 97
2, 111818, Control_c, 0, 64, 97
2, 111830, Note_on_c, 0, 52, 53
2, 111833, Control_c, 0, 64, 98
2, 111836, Note_on_c, 0, 54, 70
2, 111839, Note_on_c, 0, 50, 0
2, 111848, Control_c, 0, 64, 98
2, 111861, Note_on_c, 0, 52, 0
2, 111863, Control_c, 0, 64, 99
2, 111878, Control_c, 0, 64, 100
2, 111886, Note_on_c, 0, 54, 0
2, 111908, Control_c, 0, 64, 100
2, 111939, Control_c, 0, 64, 100
2, 111954, Control_c, 0, 64, 99
2, 111958, Note_on_c, 0, 71, 74
2, 111969, Control_c, 0, 64, 96
2, 111974, Note_on_c, 0, 55, 45
2, 111978, Note_on_c, 0, 62, 45
2, 111984, Control_c, 0, 64, 89
2, 111999, Control_c, 0, 64, 79
2, 112015, Control_c, 0, 64, 66
2, 112030, Control_c, 0, 64, 0
2, 112040, Note_on_c, 0, 73, 75
2, 112067, Note_on_c, 0, 71, 0
2, 112127, Note_on_c, 0, 74, 73
2, 112133, Note_on_c, 0, 73, 0
2, 112191, Note_on_c, 0, 76, 73
2, 112194, Note_on_c, 0, 74, 0
2, 112244, Control_c, 0, 64, 39
2, 112259, Control_c, 0, 64, 62
2, 112269, Note_on_c, 0, 74, 71
2, 112281, Control_c, 0, 64, 68
2, 112297, Control_c, 0, 64, 74
2, 112312, Control_c, 0, 64, 80
2, 112316, Note_on_c, 0, 76, 0
2, 112328, Control_c, 0, 64, 83
2, 112342, Control_c, 0, 64, 84
2, 112350, Note_on_c, 0, 74, 0
2, 112353, Note_on_c, 0, 73, 84
2, 112357, Control_c, 0, 64, 85
2, 112373, Control_c, 0, 64, 85
2, 112388, Control_c, 0, 64, 86
2, 112398, Note_on_c, 0, 62, 0
2, 112404, Control_c, 0, 64, 86
2, 112409, Note_on_c, 0, 54, 54
2, 112418, Control_c, 0, 64, 87
2, 112424, Note_on_c, 0, 74, 85
2, 112430, Note_on_c, 0, 55, 0
2, 112437, Note_on_c, 0, 73, 0
2, 112443, Note_on_c, 0, 54, 0
2, 112449, Control_c, 0, 64, 87
2, 112483, Note_on_c, 0, 74, 0
2, 112489, Note_on_c, 0, 71, 85
2, 112616, Control_c, 0, 64, 86
2, 112617, Note_on_c, 0, 79, 82
2, 112619, Note_on_c, 0, 61, 52
2, 112631, Control_c, 0, 64, 83
2, 112637, Note_on_c, 0, 52, 55
2, 112647, Control_c, 0, 64, 75
2, 112662, Control_c, 0, 64, 63
2, 112677, Control_c, 0, 64, 0
2, 112813, Control_c, 0, 64, 34
2, 112828, Control_c, 0, 64, 61
2, 112844, Control_c, 0, 64, 66
2, 112859, Control_c, 0, 64, 71
2, 112875, Control_c, 0, 64, 77
2, 112891, Control_c, 0, 64, 82
2, 112892, Note_on_c, 0, 79, 0
2, 112906, Control_c, 0, 64, 84
2, 112918, Note_on_c, 0, 71, 0
2, 112920, Control_c, 0, 64, 86
2, 112936, Control_c, 0, 64, 87
2, 112951, Control_c, 0, 64, 88
2, 112966, Control_c, 0, 64, 89
2, 112981, Control_c, 0, 64, 90
2, 112996, Control_c, 0, 64, 90
2, 113012, Control_c, 0, 64, 91
2, 113027, Control_c, 0, 64, 91
2, 113295, Note_on_c, 0, 52, 0
2, 113343, Note_on_c, 0, 49, 45
2, 113344, Note_on_c, 0, 79, 51
2, 113399, Control_c, 0, 64, 90
2, 113415, Control_c, 0, 64, 88
2, 113429, Control_c, 0, 64, 86
2, 113445, Control_c, 0, 64, 83
2, 113451, Note_on_c, 0, 54, 44
2, 113452, Note_on_c, 0, 79, 0
2, 113460, Control_c, 0, 64, 77
2, 113467, Note_on_c, 0, 78, 63
2, 113475, Control_c, 0, 64, 68
2, 113479, Note_on_c, 0, 49, 0
2, 113484, Note_on_c, 0, 70, 45
2, 113491, Control_c, 0, 64, 31
2, 113505, Control_c, 0, 64, 0
2, 113672, Control_c, 0, 64, 42
2, 113689, Control_c, 0, 64, 62
2, 113699, Note_on_c, 0, 61, 0
2, 113704, Control_c, 0, 64, 68
2, 113719, Control_c, 0, 64, 73
2, 113735, Control_c, 0, 64, 78
2, 113750, Control_c, 0, 64, 82
2, 113765, Control_c, 0, 64, 84
2, 113780, Control_c, 0, 64, 85
2, 113789, Note_on_c, 0, 54, 0
2, 113795, Control_c, 0, 64, 86
2, 113833, Control_c, 0, 64, 86
2, 113849, Control_c, 0, 64, 87
2, 113879, Control_c, 0, 64, 87
2, 114192, Note_on_c, 0, 76, 43
2, 114217, Note_on_c, 0, 70, 0
2, 114318, Note_on_c, 0, 47, 39
2, 114319, Control_c, 0, 64, 86
2, 114330, Note_on_c, 0, 59, 38
2, 114330, Note_on_c, 0, 78, 0
2, 114335, Control_c, 0, 64, 85
2, 114335, Note_on_c, 0, 74, 48
2, 114341, Note_on_c, 0, 76, 0
2, 114349, Control_c, 0, 64, 82
2, 114350, Note_on_c, 0, 71, 48
2, 114365, Control_c, 0, 64, 76
2, 114380, Control_c, 0, 64, 67
2, 114395, Control_c, 0, 64, 0
2, 114424, Note_on_c, 0, 49, 43
2, 114427, Note_on_c, 0, 47, 0
2, 114489, Note_on_c, 0, 49, 0
2, 114497, Note_on_c, 0, 50, 49
2, 114505, Note_on_c, 0, 71, 0
2, 114559, Control_c, 0, 64, 50
2, 114561, Note_on_c, 0, 50, 0
2, 114565, Note_on_c, 0, 74, 0
2, 114581, Control_c, 0, 64, 62
2, 114589, Note_on_c, 0, 52, 60
2, 114596, Control_c, 0, 64, 66
2, 114611, Control_c, 0, 64, 69
2, 114627, Control_c, 0, 64, 72
2, 114642, Control_c, 0, 64, 75
2, 114658, Control_c, 0, 64, 77
2, 114673, Control_c, 0, 64, 79
2, 114673, Note_on_c, 0, 50, 56
2, 114688, Control_c, 0, 64, 80
2, 114707, Note_on_c, 0, 52, 0
2, 114716, Note_on_c, 0, 50, 0
2, 114718, Control_c, 0, 64, 80
2, 114726, Note_on_c, 0, 49, 62
2, 114758, Note_on_c, 0, 59, 0
2, 114790, Note_on_c, 0, 49, 0
2, 114803, Note_on_c, 0, 50, 65
2, 114875, Note_on_c, 0, 50, 0
2, 114889, Note_on_c, 0, 47, 56
2, 115036, Control_c, 0, 64, 80
2, 115051, Control_c, 0, 64, 79
2, 115067, Control_c, 0, 64, 77
2, 115070, Note_on_c, 0, 47, 0
2, 115070, Note_on_c, 0, 56, 51
2, 115082, Control_c, 0, 64, 73
2, 115098, Control_c, 0, 64, 67
2, 115098, Note_on_c, 0, 83, 50
2, 115112, Control_c, 0, 64, 56
2, 115127, Control_c, 0, 64, 0
2, 115303, Note_on_c, 0, 81, 68
2, 115326, Control_c, 0, 64, 53
2, 115349, Control_c, 0, 64, 64
2, 115350, Note_on_c, 0, 83, 0
2, 115364, Control_c, 0, 64, 69
2, 115379, Control_c, 0, 64, 76
2, 115391, Note_on_c, 0, 56, 0
2, 115394, Control_c, 0, 64, 80
2, 115409, Control_c, 0, 64, 82
2, 115425, Control_c, 0, 64, 84
2, 115440, Control_c, 0, 64, 85
2, 115455, Control_c, 0, 64, 86
2, 115471, Control_c, 0, 64, 88
2, 115486, Control_c, 0, 64, 89
2, 115495, Note_on_c, 0, 83, 69
2, 115501, Control_c, 0, 64, 90
2, 115507, Note_on_c, 0, 81, 0
2, 115516, Control_c, 0, 64, 90
2, 115531, Control_c, 0, 64, 91
2, 115547, Control_c, 0, 64, 91
2, 115624, Control_c, 0, 64, 92
2, 115680, Note_on_c, 0, 83, 0
2, 115682, Note_on_c, 0, 80, 71
2, 115737, Note_on_c, 0, 80, 0
2, 115850, Control_c, 0, 64, 91
2, 115881, Control_c, 0, 64, 90
2, 115897, Control_c, 0, 64, 87
2, 115899, Note_on_c, 0, 74, 47
2, 115911, Control_c, 0, 64, 81
2, 115913, Note_on_c, 0, 71, 33
2, 115914, Note_on_c, 0, 80, 56
2, 115926, Control_c, 0, 64, 72
2, 115942, Control_c, 0, 64, 58
2, 115957, Control_c, 0, 64, 0
2, 116048, Control_c, 0, 64, 13
2, 116064, Control_c, 0, 64, 44
2, 116079, Control_c, 0, 64, 59
2, 116094, Control_c, 0, 64, 65
2, 116097, Note_on_c, 0, 78, 63
2, 116116, Control_c, 0, 64, 68
2, 116126, Note_on_c, 0, 80, 0
2, 116131, Control_c, 0, 64, 73
2, 116148, Control_c, 0, 64, 77
2, 116163, Control_c, 0, 64, 80
2, 116179, Control_c, 0, 64, 81
2, 116193, Control_c, 0, 64, 82
2, 116208, Control_c, 0, 64, 82
2, 116224, Control_c, 0, 64, 83
2, 116232, Note_on_c, 0, 71, 0
2, 116254, Control_c, 0, 64, 84
2, 116263, Note_on_c, 0, 74, 0
2, 116269, Control_c, 0, 64, 85
2, 116284, Control_c, 0, 64, 85
2, 116284, Note_on_c, 0, 80, 60
2, 116300, Control_c, 0, 64, 86
2, 116375, Control_c, 0, 64, 86
2, 116447, Note_on_c, 0, 68, 54
2, 116448, Note_on_c, 0, 78, 0
2, 116449, Note_on_c, 0, 80, 0
2, 116458, Note_on_c, 0, 76, 61
2, 116481, Note_on_c, 0, 68, 0
2, 116483, Note_on_c, 0, 76, 0
2, 116619, Control_c, 0, 64, 86
2, 116649, Control_c, 0, 64, 83
2, 116657, Note_on_c, 0, 68, 37
2, 116660, Note_on_c, 0, 71, 45
2, 116660, Note_on_c, 0, 76, 59
2, 116665, Control_c, 0, 64, 79
2, 116679, Control_c, 0, 64, 72
2, 116694, Control_c, 0, 64, 60
2, 116710, Control_c, 0, 64, 0
2, 116815, Control_c, 0, 64, 18
2, 116831, Control_c, 0, 64, 55
2, 116831, Note_on_c, 0, 74, 63
2, 116846, Control_c, 0, 64, 63
2, 116847, Note_on_c, 0, 76, 0
2, 116862, Control_c, 0, 64, 66
2, 116884, Control_c, 0, 64, 69
2, 116900, Control_c, 0, 64, 73
2, 116915, Control_c, 0, 64, 77
2, 116930, Control_c, 0, 64, 79
2, 116946, Control_c, 0, 64, 81
2, 116962, Control_c, 0, 64, 81
2, 116978, Control_c, 0, 64, 82
2, 116992, Control_c, 0, 64, 83
2, 117003, Note_on_c, 0, 74, 0
2, 117018, Note_on_c, 0, 76, 73
2, 117024, Note_on_c, 0, 68, 0
2, 117025, Note_on_c, 0, 71, 0
2, 117037, Control_c, 0, 64, 83
2, 117068, Control_c, 0, 64, 84
2, 117128, Control_c, 0, 64, 84
2, 117174, Control_c, 0, 64, 85
2, 117182, Note_on_c, 0, 69, 65
2, 117183, Note_on_c, 0, 73, 74
2, 117198, Note_on_c, 0, 64, 51
2, 117206, Note_on_c, 0, 69, 0
2, 117220, Control_c, 0, 64, 85
2, 117220, Note_on_c, 0, 76, 0
2, 117223, Note_on_c, 0, 64, 0
2, 117264, Note_on_c, 0, 73, 0
2, 117387, Control_c, 0, 64, 85
2, 117398, Note_on_c, 0, 73, 68
2, 117402, Control_c, 0, 64, 84
2, 117405, Note_on_c, 0, 69, 66
2, 117413, Note_on_c, 0, 64, 61
2, 117418, Control_c, 0, 64, 82
2, 117418, Note_on_c, 0, 45, 41
2, 117433, Control_c, 0, 64, 78
2, 117447, Control_c, 0, 64, 73
2, 117463, Control_c, 0, 64, 67
2, 117478, Control_c, 0, 64, 48
2, 117493, Control_c, 0, 64, 0
2, 117503, Note_on_c, 0, 47, 60
2, 117525, Note_on_c, 0, 45, 0
2, 117588, Note_on_c, 0, 49, 67
2, 117597, Note_on_c, 0, 47, 0
2, 117670, Note_on_c, 0, 49, 0
2, 117675, Note_on_c, 0, 50, 67
2, 117685, Note_on_c, 0, 64, 0
2, 117726, Note_on_c, 0, 69, 0
2, 117744, Control_c, 0, 64, 36
2, 117752, Note_on_c, 0, 49, 73
2, 117755, Note_on_c, 0, 73, 0
2, 117759, Control_c, 0, 64, 61
2, 117762, Note_on_c, 0, 50, 0
2, 117774, Control_c, 0, 64, 66
2, 117791, Control_c, 0, 64, 71
2, 117806, Control_c, 0, 64, 75
2, 117820, Note_on_c, 0, 47, 74
2, 117822, Control_c, 0, 64, 78
2, 117824, Note_on_c, 0, 49, 0
2, 117836, Control_c, 0, 64, 79
2, 117851, Control_c, 0, 64, 80
2, 117881, Control_c, 0, 64, 80
2, 117902, Note_on_c, 0, 49, 72
2, 117912, Control_c, 0, 64, 81
2, 117927, Control_c, 0, 64, 81
2, 117938, Note_on_c, 0, 47, 0
2, 117950, Note_on_c, 0, 49, 0
2, 117956, Note_on_c, 0, 45, 66
2, 117957, Control_c, 0, 64, 82
2, 118093, Control_c, 0, 64, 80
2, 118104, Note_on_c, 0, 45, 0
2, 118109, Control_c, 0, 64, 77
2, 118118, Note_on_c, 0, 81, 77
2, 118124, Control_c, 0, 64, 70
2, 118133, Note_on_c, 0, 54, 61
2, 118140, Control_c, 0, 64, 47
2, 118155, Control_c, 0, 64, 0
2, 118323, Note_on_c, 0, 79, 78
2, 118367, Control_c, 0, 64, 37
2, 118380, Note_on_c, 0, 81, 0
2, 118383, Control_c, 0, 64, 59
2, 118398, Control_c, 0, 64, 64
2, 118421, Control_c, 0, 64, 67
2, 118425, Note_on_c, 0, 54, 0
2, 118436, Control_c, 0, 64, 71
2, 118451, Control_c, 0, 64, 75
2, 118469, Control_c, 0, 64, 78
2, 118484, Control_c, 0, 64, 79
2, 118499, Control_c, 0, 64, 80
2, 118512, Note_on_c, 0, 81, 82
2, 118514, Control_c, 0, 64, 80
2, 118530, Control_c, 0, 64, 81
2, 118545, Control_c, 0, 64, 81
2, 118556, Note_on_c, 0, 79, 0
2, 118560, Control_c, 0, 64, 82
2, 118683, Note_on_c, 0, 78, 82
2, 118696, Note_on_c, 0, 81, 0
2, 118747, Note_on_c, 0, 78, 0
2, 118864, Control_c, 0, 64, 81
2, 118879, Control_c, 0, 64, 80
2, 118895, Control_c, 0, 64, 76
2, 118896, Note_on_c, 0, 78, 67
2, 118897, Note_on_c, 0, 72, 47
2, 118900, Note_on_c, 0, 69, 43
2, 118910, Control_c, 0, 64, 70
2, 118925, Control_c, 0, 64, 57
2, 118940, Control_c, 0, 64, 0
2, 118949, Note_on_c, 0, 72, 0
2, 118949, Note_on_c, 0, 72, 12
2, 119062, Control_c, 0, 64, 47
2, 119077, Control_c, 0, 64, 62
2, 119093, Control_c, 0, 64, 66
2, 119093, Note_on_c, 0, 76, 58
2, 119104, Note_on_c, 0, 78, 0
2, 119108, Control_c, 0, 64, 69
2, 119123, Control_c, 0, 64, 73
2, 119138, Control_c, 0, 64, 76
2, 119153, Control_c, 0, 64, 79
2, 119168, Control_c, 0, 64, 81
2, 119191, Control_c, 0, 64, 82
2, 119206, Control_c, 0, 64, 83
2, 119221, Control_c, 0, 64, 83
2, 119236, Control_c, 0, 64, 84
2, 119252, Control_c, 0, 64, 85
2, 119261, Note_on_c, 0, 69, 0
2, 119261, Note_on_c, 0, 78, 60
2, 119267, Control_c, 0, 64, 85
2, 119276, Note_on_c, 0, 72, 0
2, 119282, Control_c, 0, 64, 86
2, 119300, Note_on_c, 0, 76, 0
2, 119313, Control_c, 0, 64, 86
2, 119389, Control_c, 0, 64, 87
2, 119428, Note_on_c, 0, 78, 0
2, 119435, Note_on_c, 0, 69, 48
2, 119435, Note_on_c, 0, 74, 65
2, 119445, Note_on_c, 0, 66, 48
2, 119463, Note_on_c, 0, 69, 0
2, 119465, Note_on_c, 0, 74, 0
2, 119473, Note_on_c, 0, 66, 0
2, 119572, Control_c, 0, 64, 86
2, 119587, Control_c, 0, 64, 86
2, 119602, Control_c, 0, 64, 83
2, 119618, Control_c, 0, 64, 78
2, 119626, Note_on_c, 0, 69, 54
2, 119626, Note_on_c, 0, 74, 59
2, 119633, Control_c, 0, 64, 71
2, 119638, Note_on_c, 0, 66, 39
2, 119647, Control_c, 0, 64, 58
2, 119663, Control_c, 0, 64, 0
2, 119784, Control_c, 0, 64, 46
2, 119799, Control_c, 0, 64, 60
2, 119811, Note_on_c, 0, 72, 65
2, 119815, Control_c, 0, 64, 65
2, 119821, Note_on_c, 0, 74, 0
2, 119830, Control_c, 0, 64, 68
2, 119845, Control_c, 0, 64, 72
2, 119860, Control_c, 0, 64, 77
2, 119875, Control_c, 0, 64, 81
2, 119891, Control_c, 0, 64, 83
2, 119906, Control_c, 0, 64, 85
2, 119921, Control_c, 0, 64, 87
2, 119937, Control_c, 0, 64, 88
2, 119959, Control_c, 0, 64, 89
2, 119975, Control_c, 0, 64, 90
2, 119987, Note_on_c, 0, 74, 69
2, 119989, Control_c, 0, 64, 90
2, 120021, Note_on_c, 0, 72, 0
2, 120054, Note_on_c, 0, 69, 0
2, 120069, Note_on_c, 0, 66, 0
2, 120147, Note_on_c, 0, 71, 80
2, 120150, Note_on_c, 0, 67, 67
2, 120154, Note_on_c, 0, 62, 65
2, 120156, Note_on_c, 0, 74, 0
2, 120178, Note_on_c, 0, 67, 0
2, 120184, Note_on_c, 0, 62, 0
2, 120203, Note_on_c, 0, 71, 0
2, 120351, Note_on_c, 0, 43, 64
2, 120352, Note_on_c, 0, 67, 66
2, 120353, Note_on_c, 0, 71, 65
2, 120363, Note_on_c, 0, 62, 65
2, 120371, Control_c, 0, 64, 90
2, 120386, Control_c, 0, 64, 88
2, 120401, Control_c, 0, 64, 85
2, 120416, Control_c, 0, 64, 80
2, 120431, Control_c, 0, 64, 73
2, 120446, Control_c, 0, 64, 65
2, 120454, Note_on_c, 0, 45, 62
2, 120462, Control_c, 0, 64, 0
2, 120469, Note_on_c, 0, 43, 0
2, 120525, Note_on_c, 0, 47, 75
2, 120538, Note_on_c, 0, 45, 0
2, 120551, Note_on_c, 0, 62, 0
2, 120596, Note_on_c, 0, 67, 0
2, 120597, Note_on_c, 0, 47, 0
2, 120607, Note_on_c, 0, 48, 72
2, 120669, Note_on_c, 0, 47, 72
2, 120674, Note_on_c, 0, 48, 0
2, 120752, Note_on_c, 0, 47, 0
2, 120753, Note_on_c, 0, 45, 77
2, 120833, Note_on_c, 0, 47, 78
2, 120835, Note_on_c, 0, 45, 0
2, 120906, Note_on_c, 0, 47, 0
2, 120908, Note_on_c, 0, 43, 69
2, 121007, Note_on_c, 0, 43, 0
2, 121013, Note_on_c, 0, 71, 0
2, 121019, Note_on_c, 0, 67, 72
2, 121031, Note_on_c, 0, 52, 63
2, 121106, Note_on_c, 0, 69, 78
2, 121110, Note_on_c, 0, 67, 0
2, 121190, Note_on_c, 0, 71, 79
2, 121199, Note_on_c, 0, 69, 0
2, 121252, Note_on_c, 0, 71, 0
2, 121261, Note_on_c, 0, 72, 77
2, 121328, Note_on_c, 0, 71, 80
2, 121365, Note_on_c, 0, 72, 0
2, 121401, Note_on_c, 0, 69, 86
2, 121402, Note_on_c, 0, 71, 0
2, 121474, Note_on_c, 0, 71, 87
2, 121480, Note_on_c, 0, 69, 0
2, 121549, Note_on_c, 0, 67, 84
2, 121550, Note_on_c, 0, 71, 0
2, 121564, Note_on_c, 0, 50, 70
2, 121566, Note_on_c, 0, 52, 0
2, 121666, Note_on_c, 0, 76, 82
2, 121670, Note_on_c, 0, 48, 65
2, 121670, Note_on_c, 0, 50, 0
2, 121679, Note_on_c, 0, 67, 0
2, 121998, Control_c, 0, 64, 46
2, 122014, Control_c, 0, 64, 63
2, 122028, Control_c, 0, 64, 67
2, 122043, Control_c, 0, 64, 74
2, 122059, Control_c, 0, 64, 79
2, 122074, Control_c, 0, 64, 83
2, 122090, Control_c, 0, 64, 86
2, 122103, Note_on_c, 0, 76, 0
2, 122104, Control_c, 0, 64, 88
2, 122119, Control_c, 0, 64, 90
2, 122135, Control_c, 0, 64, 92
2, 122150, Control_c, 0, 64, 94
2, 122165, Control_c, 0, 64, 95
2, 122181, Control_c, 0, 64, 95
2, 122196, Control_c, 0, 64, 96
2, 122226, Control_c, 0, 64, 96
2, 122429, Note_on_c, 0, 76, 68
2, 122462, Control_c, 0, 64, 95
2, 122477, Control_c, 0, 64, 93
2, 122486, Note_on_c, 0, 48, 0
2, 122490, Note_on_c, 0, 74, 80
2, 122492, Control_c, 0, 64, 88
2, 122502, Note_on_c, 0, 50, 43
2, 122507, Control_c, 0, 64, 80
2, 122520, Control_c, 0, 64, 71
2, 122536, Control_c, 0, 64, 37
2, 122549, Note_on_c, 0, 76, 0
2, 122551, Control_c, 0, 64, 0
2, 122688, Control_c, 0, 64, 29
2, 122704, Control_c, 0, 64, 60
2, 122719, Control_c, 0, 64, 66
2, 122735, Control_c, 0, 64, 72
2, 122749, Control_c, 0, 64, 77
2, 122764, Control_c, 0, 64, 81
2, 122780, Control_c, 0, 64, 84
2, 122795, Control_c, 0, 64, 86
2, 122811, Control_c, 0, 64, 88
2, 122819, Note_on_c, 0, 50, 0
2, 122826, Control_c, 0, 64, 89
2, 122841, Control_c, 0, 64, 90
2, 122857, Control_c, 0, 64, 90
2, 122871, Control_c, 0, 64, 91
2, 122886, Control_c, 0, 64, 91
2, 122932, Control_c, 0, 64, 92
2, 123241, Note_on_c, 0, 72, 52
2, 123246, Note_on_c, 0, 74, 0
2, 123274, Control_c, 0, 64, 91
2, 123281, Note_on_c, 0, 72, 0
2, 123288, Control_c, 0, 64, 91
2, 123304, Control_c, 0, 64, 89
2, 123309, Note_on_c, 0, 71, 57
2, 123313, Note_on_c, 0, 55, 41
2, 123319, Control_c, 0, 64, 84
2, 123334, Control_c, 0, 64, 79
2, 123349, Control_c, 0, 64, 72
2, 123364, Control_c, 0, 64, 64
2, 123380, Control_c, 0, 64, 0
2, 123890, Control_c, 0, 64, 29
2, 123905, Control_c, 0, 64, 52
2, 123909, Note_on_c, 0, 57, 46
2, 123920, Control_c, 0, 64, 62
2, 123930, Note_on_c, 0, 71, 0
2, 123936, Control_c, 0, 64, 66
2, 123938, Note_on_c, 0, 55, 0
2, 123939, Note_on_c, 0, 73, 57
2, 123951, Control_c, 0, 64, 69
2, 123966, Control_c, 0, 64, 73
2, 123981, Control_c, 0, 64, 77
2, 123996, Control_c, 0, 64, 79
2, 124012, Control_c, 0, 64, 81
2, 124023, Note_on_c, 0, 57, 0
2, 124045, Note_on_c, 0, 74, 59
2, 124061, Note_on_c, 0, 59, 47
2, 124062, Note_on_c, 0, 62, 48
2, 124085, Note_on_c, 0, 73, 0
2, 124087, Note_on_c, 0, 74, 0
2, 124118, Control_c, 0, 64, 80
2, 124120, Note_on_c, 0, 64, 70
2, 124133, Control_c, 0, 64, 78
2, 124148, Control_c, 0, 64, 75
2, 124163, Control_c, 0, 64, 70
2, 124175, Note_on_c, 0, 62, 0
2, 124179, Control_c, 0, 64, 62
2, 124194, Control_c, 0, 64, 0
2, 124196, Note_on_c, 0, 64, 0
2, 124207, Note_on_c, 0, 66, 67
2, 124266, Note_on_c, 0, 66, 0
2, 124269, Note_on_c, 0, 67, 72
2, 124351, Note_on_c, 0, 66, 78
2, 124385, Note_on_c, 0, 67, 0
2, 124417, Note_on_c, 0, 64, 80
2, 124422, Note_on_c, 0, 66, 0
2, 124494, Note_on_c, 0, 66, 85
2, 124498, Note_on_c, 0, 64, 0
2, 124528, Note_on_c, 0, 57, 52
2, 124537, Note_on_c, 0, 59, 0
2, 124568, Note_on_c, 0, 66, 0
2, 124571, Note_on_c, 0, 62, 88
2, 124628, Note_on_c, 0, 57, 0
2, 124664, Note_on_c, 0, 55, 54
2, 124679, Note_on_c, 0, 71, 73
2, 124688, Note_on_c, 0, 62, 0
2, 124917, Control_c, 0, 64, 18
2, 124933, Control_c, 0, 64, 59
2, 124947, Control_c, 0, 64, 66
2, 124962, Control_c, 0, 64, 71
2, 124978, Control_c, 0, 64, 76
2, 124993, Control_c, 0, 64, 81
2, 125008, Control_c, 0, 64, 84
2, 125023, Control_c, 0, 64, 85
2, 125038, Control_c, 0, 64, 86
2, 125069, Control_c, 0, 64, 86
2, 125084, Control_c, 0, 64, 87
2, 125099, Control_c, 0, 64, 88
2, 125114, Control_c, 0, 64, 88
2, 125138, Note_on_c, 0, 71, 0
2, 125177, Control_c, 0, 64, 89
2, 125222, Control_c, 0, 64, 89
2, 125282, Control_c, 0, 64, 90
2, 125351, Control_c, 0, 64, 90
2, 125361, Note_on_c, 0, 55, 0
2, 125383, Note_on_c, 0, 71, 70
2, 125388, Note_on_c, 0, 52, 49
2, 125472, Control_c, 0, 64, 90
2, 125486, Note_on_c, 0, 52, 0
2, 125487, Control_c, 0, 64, 88
2, 125490, Note_on_c, 0, 71, 0
2, 125503, Control_c, 0, 64, 83
2, 125506, Note_on_c, 0, 73, 79
2, 125510, Note_on_c, 0, 69, 73
2, 125511, Note_on_c, 0, 57, 56
2, 125518, Control_c, 0, 64, 77
2, 125534, Control_c, 0, 64, 67
2, 125548, Control_c, 0, 64, 32
2, 125563, Control_c, 0, 64, 0
2, 125715, Control_c, 0, 64, 47
2, 125731, Control_c, 0, 64, 63
2, 125745, Control_c, 0, 64, 67
2, 125760, Control_c, 0, 64, 72
2, 125776, Control_c, 0, 64, 79
2, 125791, Control_c, 0, 64, 83
2, 125806, Control_c, 0, 64, 86
2, 125822, Control_c, 0, 64, 88
2, 125827, Note_on_c, 0, 57, 0
2, 125837, Control_c, 0, 64, 89
2, 125839, Note_on_c, 0, 73, 0
2, 125853, Control_c, 0, 64, 90
2, 125867, Control_c, 0, 64, 91
2, 125882, Control_c, 0, 64, 91
2, 125898, Control_c, 0, 64, 92
2, 125913, Control_c, 0, 64, 93
2, 125947, Note_on_c, 0, 69, 0
2, 126051, Control_c, 0, 64, 93
2, 126135, Note_on_c, 0, 45, 44
2, 126142, Note_on_c, 0, 67, 60
2, 126173, Note_on_c, 0, 67, 0
2, 126193, Note_on_c, 0, 45, 0
2, 126271, Control_c, 0, 64, 93
2, 126286, Control_c, 0, 64, 92
2, 126302, Control_c, 0, 64, 91
2, 126315, Note_on_c, 0, 74, 65
2, 126316, Control_c, 0, 64, 88
2, 126323, Note_on_c, 0, 47, 52
2, 126325, Note_on_c, 0, 66, 64
2, 126332, Control_c, 0, 64, 85
2, 126347, Control_c, 0, 64, 79
2, 126362, Control_c, 0, 64, 70
2, 126378, Control_c, 0, 64, 58
2, 126392, Control_c, 0, 64, 0
2, 126418, Note_on_c, 0, 49, 58
2, 126423, Note_on_c, 0, 47, 0
2, 126488, Note_on_c, 0, 66, 0
2, 126496, Note_on_c, 0, 50, 66
2, 126497, Note_on_c, 0, 49, 0
2, 126553, Note_on_c, 0, 50, 0
2, 126565, Note_on_c, 0, 52, 74
2, 126635, Note_on_c, 0, 50, 72
2, 126635, Note_on_c, 0, 52, 0
2, 126703, Note_on_c, 0, 49, 79
2, 126704, Note_on_c, 0, 50, 0
2, 126711, Control_c, 0, 64, 32
2, 126726, Control_c, 0, 64, 60
2, 126742, Control_c, 0, 64, 67
2, 126757, Control_c, 0, 64, 75
2, 126766, Note_on_c, 0, 49, 0
2, 126772, Control_c, 0, 64, 83
2, 126772, Note_on_c, 0, 50, 76
2, 126788, Control_c, 0, 64, 87
2, 126803, Control_c, 0, 64, 90
2, 126819, Control_c, 0, 64, 91
2, 126834, Control_c, 0, 64, 91
2, 126838, Note_on_c, 0, 47, 72
2, 126844, Note_on_c, 0, 69, 90
2, 126852, Note_on_c, 0, 74, 0
2, 126871, Control_c, 0, 64, 92
2, 126872, Note_on_c, 0, 50, 0
2, 126879, Note_on_c, 0, 69, 0
2, 126885, Note_on_c, 0, 47, 0
2, 126977, Note_on_c, 0, 74, 78
2, 126978, Control_c, 0, 64, 91
2, 126988, Note_on_c, 0, 59, 68
2, 126993, Control_c, 0, 64, 90
2, 127008, Control_c, 0, 64, 85
2, 127024, Control_c, 0, 64, 75
2, 127038, Control_c, 0, 64, 54
2, 127054, Control_c, 0, 64, 0
2, 127063, Note_on_c, 0, 76, 79
2, 127072, Note_on_c, 0, 74, 0
2, 127143, Note_on_c, 0, 78, 81
2, 127197, Note_on_c, 0, 76, 0
2, 127203, Note_on_c, 0, 79, 78
2, 127216, Note_on_c, 0, 78, 0
2, 127280, Note_on_c, 0, 78, 85
2, 127326, Note_on_c, 0, 79, 0
2, 127339, Note_on_c, 0, 76, 84
2, 127361, Note_on_c, 0, 78, 0
2, 127421, Note_on_c, 0, 78, 89
2, 127442, Note_on_c, 0, 57, 66
2, 127442, Note_on_c, 0, 76, 0
2, 127451, Note_on_c, 0, 59, 0
2, 127488, Note_on_c, 0, 74, 87
2, 127505, Note_on_c, 0, 78, 0
2, 127573, Note_on_c, 0, 55, 65
2, 127576, Note_on_c, 0, 57, 0
2, 127589, Note_on_c, 0, 83, 82
2, 127791, Control_c, 0, 64, 53
2, 127806, Control_c, 0, 64, 65
2, 127822, Control_c, 0, 64, 70
2, 127836, Control_c, 0, 64, 79
2, 127852, Control_c, 0, 64, 85
2, 127867, Control_c, 0, 64, 89
2, 127882, Control_c, 0, 64, 92
2, 127898, Control_c, 0, 64, 94
2, 127908, Note_on_c, 0, 83, 0
2, 127913, Control_c, 0, 64, 95
2, 127928, Control_c, 0, 64, 97
2, 127944, Control_c, 0, 64, 98
2, 127944, Note_on_c, 0, 74, 0
2, 127959, Control_c, 0, 64, 99
2, 127975, Control_c, 0, 64, 100
2, 127989, Control_c, 0, 64, 101
2, 128020, Control_c, 0, 64, 101
2, 128322, Control_c, 0, 64, 101
2, 128325, Note_on_c, 0, 52, 48
2, 128328, Note_on_c, 0, 55, 0
2, 128328, Note_on_c, 0, 83, 59
2, 128353, Control_c, 0, 64, 100
2, 128368, Control_c, 0, 64, 99
2, 128384, Control_c, 0, 64, 97
2, 128406, Control_c, 0, 64, 93
2, 128422, Control_c, 0, 64, 87
2, 128438, Control_c, 0, 64, 80
2, 128440, Note_on_c, 0, 52, 0
2, 128441, Note_on_c, 0, 83, 0
2, 128442, Note_on_c, 0, 72, 52
2, 128445, Note_on_c, 0, 57, 49
2, 128448, Note_on_c, 0, 81, 63
2, 128454, Control_c, 0, 64, 72
2, 128469, Control_c, 0, 64, 62
2, 128483, Control_c, 0, 64, 0
2, 128773, Control_c, 0, 64, 34
2, 128788, Control_c, 0, 64, 50
2, 128803, Control_c, 0, 64, 53
2, 128819, Control_c, 0, 64, 54
2, 128848, Control_c, 0, 64, 55
2, 128941, Control_c, 0, 64, 54
2, 128955, Control_c, 0, 64, 53
2, 128971, Control_c, 0, 64, 52
2, 128986, Control_c, 0, 64, 52
2, 129001, Control_c, 0, 64, 51
2, 129016, Control_c, 0, 64, 50
2, 129031, Control_c, 0, 64, 48
2, 129046, Control_c, 0, 64, 46
2, 129062, Control_c, 0, 64, 43
2, 129077, Control_c, 0, 64, 40
2, 129092, Control_c, 0, 64, 37
2, 129107, Control_c, 0, 64, 32
2, 129122, Control_c, 0, 64, 23
2, 129138, Control_c, 0, 64, 0
2, 129158, Note_on_c, 0, 79, 46
2, 129163, Note_on_c, 0, 45, 35
2, 129270, Note_on_c, 0, 45, 0
2, 129270, Note_on_c, 0, 78, 59
2, 129273, Note_on_c, 0, 57, 0
2, 129279, Note_on_c, 0, 81, 0
2, 129288, Note_on_c, 0, 50, 31
2, 129295, Note_on_c, 0, 79, 0
2, 129404, Control_c, 0, 64, 36
2, 129420, Control_c, 0, 64, 61
2, 129434, Control_c, 0, 64, 65
2, 129443, Note_on_c, 0, 78, 0
2, 129449, Control_c, 0, 64, 68
2, 129465, Control_c, 0, 64, 72
2, 129479, Control_c, 0, 64, 77
2, 129495, Control_c, 0, 64, 81
2, 129510, Control_c, 0, 64, 84
2, 129525, Control_c, 0, 64, 86
2, 129540, Control_c, 0, 64, 89
2, 129555, Control_c, 0, 64, 90
2, 129571, Control_c, 0, 64, 91
2, 129596, Note_on_c, 0, 50, 0
2, 129601, Control_c, 0, 64, 91
2, 129616, Control_c, 0, 64, 92
2, 129646, Control_c, 0, 64, 92
2, 129784, Note_on_c, 0, 72, 0
2, 129848, Note_on_c, 0, 74, 30
2, 129889, Note_on_c, 0, 76, 53
2, 129900, Note_on_c, 0, 74, 0
2, 129950, Note_on_c, 0, 78, 60
2, 130013, Note_on_c, 0, 71, 36
2, 130019, Note_on_c, 0, 76, 0
2, 130033, Note_on_c, 0, 55, 43
2, 130034, Control_c, 0, 64, 92
2, 130049, Control_c, 0, 64, 91
2, 130065, Control_c, 0, 64, 89
2, 130074, Note_on_c, 0, 79, 57
2, 130080, Control_c, 0, 64, 87
2, 130091, Note_on_c, 0, 52, 9
2, 130096, Control_c, 0, 64, 83
2, 130108, Note_on_c, 0, 57, 53
2, 130111, Control_c, 0, 64, 77
2, 130126, Control_c, 0, 64, 71
2, 130142, Control_c, 0, 64, 62
2, 130151, Note_on_c, 0, 78, 0
2, 130157, Control_c, 0, 64, 0
2, 130163, Note_on_c, 0, 55, 0
2, 130203, Note_on_c, 0, 57, 0
2, 130206, Note_on_c, 0, 59, 55
2, 130251, Note_on_c, 0, 59, 0
2, 130265, Note_on_c, 0, 60, 61
2, 130308, Note_on_c, 0, 79, 0
2, 130329, Note_on_c, 0, 60, 0
2, 130335, Note_on_c, 0, 59, 59
2, 130366, Note_on_c, 0, 52, 0
2, 130397, Control_c, 0, 64, 45
2, 130401, Note_on_c, 0, 59, 0
2, 130411, Note_on_c, 0, 57, 67
2, 130412, Control_c, 0, 64, 64
2, 130428, Control_c, 0, 64, 69
2, 130443, Control_c, 0, 64, 75
2, 130458, Control_c, 0, 64, 81
2, 130473, Control_c, 0, 64, 86
2, 130476, Note_on_c, 0, 59, 65
2, 130481, Note_on_c, 0, 57, 0
2, 130488, Control_c, 0, 64, 89
2, 130504, Control_c, 0, 64, 92
2, 130519, Control_c, 0, 64, 94
2, 130534, Control_c, 0, 64, 95
2, 130541, Note_on_c, 0, 55, 70
2, 130549, Control_c, 0, 64, 96
2, 130549, Note_on_c, 0, 79, 78
2, 130564, Control_c, 0, 64, 97
2, 130570, Note_on_c, 0, 59, 0
2, 130570, Note_on_c, 0, 71, 0
2, 130580, Control_c, 0, 64, 97
2, 130582, Note_on_c, 0, 55, 0
2, 130597, Note_on_c, 0, 79, 0
2, 130655, Control_c, 0, 64, 97
2, 130671, Control_c, 0, 64, 94
2, 130686, Control_c, 0, 64, 89
2, 130686, Note_on_c, 0, 79, 79
2, 130700, Note_on_c, 0, 69, 71
2, 130708, Control_c, 0, 64, 81
2, 130716, Note_on_c, 0, 64, 46
2, 130723, Control_c, 0, 64, 70
2, 130732, Note_on_c, 0, 60, 50
2, 130739, Control_c, 0, 64, 47
2, 130754, Control_c, 0, 64, 0
2, 130907, Control_c, 0, 64, 56
2, 130922, Control_c, 0, 64, 65
2, 130938, Control_c, 0, 64, 69
2, 130953, Control_c, 0, 64, 75
2, 130965, Note_on_c, 0, 64, 0
2, 130968, Control_c, 0, 64, 82
2, 130984, Control_c, 0, 64, 86
2, 130999, Control_c, 0, 64, 89
2, 131011, Note_on_c, 0, 60, 0
2, 131013, Control_c, 0, 64, 91
2, 131029, Control_c, 0, 64, 93
2, 131044, Control_c, 0, 64, 95
2, 131060, Control_c, 0, 64, 98
2, 131075, Control_c, 0, 64, 100
2, 131089, Control_c, 0, 64, 101
2, 131150, Control_c, 0, 64, 101
2, 131414, Note_on_c, 0, 81, 67
2, 131418, Note_on_c, 0, 57, 50
2, 131418, Note_on_c, 0, 64, 44
2, 131442, Note_on_c, 0, 64, 0
2, 131445, Note_on_c, 0, 57, 0
2, 131454, Control_c, 0, 64, 101
2, 131476, Control_c, 0, 64, 99
2, 131491, Control_c, 0, 64, 95
2, 131507, Control_c, 0, 64, 86
2, 131517, Note_on_c, 0, 78, 84
2, 131519, Note_on_c, 0, 62, 68
2, 131522, Control_c, 0, 64, 74
2, 131538, Control_c, 0, 64, 55
2, 131548, Note_on_c, 0, 81, 0
2, 131552, Control_c, 0, 64, 0
2, 131564, Note_on_c, 0, 79, 0
2, 131660, Control_c, 0, 64, 41
2, 131674, Control_c, 0, 64, 62
2, 131689, Control_c, 0, 64, 68
2, 131706, Control_c, 0, 64, 74
2, 131721, Control_c, 0, 64, 82
2, 131735, Control_c, 0, 64, 88
2, 131751, Control_c, 0, 64, 91
2, 131766, Control_c, 0, 64, 93
2, 131778, Note_on_c, 0, 62, 0
2, 131782, Control_c, 0, 64, 95
2, 131782, Note_on_c, 0, 78, 0
2, 131797, Control_c, 0, 64, 96
2, 131812, Control_c, 0, 64, 98
2, 131827, Control_c, 0, 64, 99
2, 131842, Control_c, 0, 64, 100
2, 131858, Control_c, 0, 64, 101
2, 132195, Note_on_c, 0, 50, 48
2, 132197, Note_on_c, 0, 78, 62
2, 132201, Note_on_c, 0, 60, 46
2, 132214, Note_on_c, 0, 69, 0
2, 132226, Note_on_c, 0, 60, 0
2, 132244, Note_on_c, 0, 50, 0
2, 132250, Note_on_c, 0, 78, 0
2, 132290, Control_c, 0, 64, 100
2, 132306, Control_c, 0, 64, 100
2, 132320, Control_c, 0, 64, 99
2, 132335, Control_c, 0, 64, 98
2, 132351, Control_c, 0, 64, 93
2, 132366, Control_c, 0, 64, 86
2, 132381, Note_on_c, 0, 78, 59
2, 132382, Control_c, 0, 64, 74
2, 132392, Note_on_c, 0, 59, 36
2, 132396, Control_c, 0, 64, 56
2, 132397, Note_on_c, 0, 55, 40
2, 132397, Note_on_c, 0, 67, 60
2, 132411, Control_c, 0, 64, 0
2, 132504, Control_c, 0, 64, 29
2, 132519, Control_c, 0, 64, 58
2, 132535, Control_c, 0, 64, 65
2, 132550, Control_c, 0, 64, 71
2, 132558, Note_on_c, 0, 78, 0
2, 132565, Control_c, 0, 64, 77
2, 132581, Control_c, 0, 64, 82
2, 132596, Control_c, 0, 64, 86
2, 132611, Control_c, 0, 64, 88
2, 132614, Note_on_c, 0, 59, 0
2, 132626, Control_c, 0, 64, 89
2, 132641, Control_c, 0, 64, 90
2, 132647, Note_on_c, 0, 55, 0
2, 132656, Control_c, 0, 64, 91
2, 132980, Note_on_c, 0, 76, 58
2, 133060, Note_on_c, 0, 75, 71
2, 133082, Note_on_c, 0, 76, 0
2, 133093, Note_on_c, 0, 67, 0
2, 133157, Note_on_c, 0, 75, 0
2, 133175, Note_on_c, 0, 40, 49
2, 133196, Control_c, 0, 64, 90
2, 133200, Note_on_c, 0, 76, 72
2, 133205, Note_on_c, 0, 67, 56
2, 133208, Note_on_c, 0, 71, 66
2, 133227, Control_c, 0, 64, 89
2, 133241, Control_c, 0, 64, 87
2, 133256, Control_c, 0, 64, 84
2, 133265, Note_on_c, 0, 42, 55
2, 133272, Control_c, 0, 64, 80
2, 133287, Control_c, 0, 64, 75
2, 133290, Note_on_c, 0, 40, 0
2, 133302, Control_c, 0, 64, 69
2, 133317, Control_c, 0, 64, 57
2, 133332, Control_c, 0, 64, 0
2, 133346, Note_on_c, 0, 43, 64
2, 133352, Note_on_c, 0, 42, 0
2, 133414, Note_on_c, 0, 43, 0
2, 133420, Note_on_c, 0, 45, 67
2, 133493, Note_on_c, 0, 43, 67
2, 133493, Note_on_c, 0, 45, 0
2, 133529, Note_on_c, 0, 71, 0
2, 133564, Note_on_c, 0, 42, 73
2, 133565, Note_on_c, 0, 43, 0
2, 133570, Note_on_c, 0, 67, 0
2, 133635, Note_on_c, 0, 43, 70
2, 133641, Note_on_c, 0, 42, 0
2, 133710, Note_on_c, 0, 43, 0
2, 133715, Note_on_c, 0, 40, 66
2, 133836, Note_on_c, 0, 40, 0
2, 133852, Note_on_c, 0, 69, 69
2, 133855, Note_on_c, 0, 48, 62
2, 133859, Note_on_c, 0, 66, 80
2, 134009, Control_c, 0, 64, 56
2, 134025, Control_c, 0, 64, 65
2, 134039, Control_c, 0, 64, 70
2, 134054, Control_c, 0, 64, 77
2, 134070, Control_c, 0, 64, 84
2, 134084, Control_c, 0, 64, 89
2, 134100, Control_c, 0, 64, 92
2, 134115, Control_c, 0, 64, 95
2, 134130, Control_c, 0, 64, 97
2, 134145, Control_c, 0, 64, 99
2, 134162, Control_c, 0, 64, 100
2, 134178, Control_c, 0, 64, 101
2, 134204, Note_on_c, 0, 48, 0
2, 134207, Control_c, 0, 64, 101
2, 134621, Note_on_c, 0, 48, 41
2, 134624, Note_on_c, 0, 76, 0
2, 134625, Control_c, 0, 64, 101
2, 134628, Note_on_c, 0, 69, 0
2, 134631, Note_on_c, 0, 75, 60
2, 134640, Control_c, 0, 64, 100
2, 134655, Control_c, 0, 64, 99
2, 134666, Note_on_c, 0, 48, 0
2, 134671, Control_c, 0, 64, 96
2, 134680, Note_on_c, 0, 47, 53
2, 134686, Control_c, 0, 64, 92
2, 134702, Control_c, 0, 64, 84
2, 134708, Note_on_c, 0, 75, 0
2, 134716, Control_c, 0, 64, 76
2, 134722, Note_on_c, 0, 76, 65
2, 134731, Control_c, 0, 64, 66
2, 134747, Control_c, 0, 64, 23
2, 134762, Control_c, 0, 64, 0
2, 135410, Note_on_c, 0, 78, 37
2, 135432, Note_on_c, 0, 45, 41
2, 135456, Note_on_c, 0, 47, 0
2, 135486, Note_on_c, 0, 45, 0
2, 135507, Note_on_c, 0, 71, 54
2, 135528, Note_on_c, 0, 43, 40
2, 135538, Note_on_c, 0, 76, 0
2, 135542, Note_on_c, 0, 78, 0
2, 135704, Note_on_c, 0, 71, 0
2, 135727, Control_c, 0, 64, 54
2, 135743, Control_c, 0, 64, 64
2, 135757, Control_c, 0, 64, 69
2, 135772, Control_c, 0, 64, 75
2, 135788, Control_c, 0, 64, 82
2, 135804, Control_c, 0, 64, 86
2, 135820, Control_c, 0, 64, 88
2, 135835, Control_c, 0, 64, 90
2, 135849, Control_c, 0, 64, 91
2, 135865, Control_c, 0, 64, 91
2, 135880, Control_c, 0, 64, 92
2, 135941, Control_c, 0, 64, 92
2, 136092, Note_on_c, 0, 72, 53
2, 136106, Note_on_c, 0, 42, 45
2, 136125, Note_on_c, 0, 43, 0
2, 136176, Note_on_c, 0, 66, 0
2, 136176, Note_on_c, 0, 72, 0
2, 136179, Note_on_c, 0, 69, 58
2, 136231, Note_on_c, 0, 42, 0
2, 136267, Control_c, 0, 64, 92
2, 136282, Control_c, 0, 64, 91
2, 136293, Note_on_c, 0, 43, 26
2, 136298, Control_c, 0, 64, 87
2, 136313, Control_c, 0, 64, 81
2, 136322, Note_on_c, 0, 69, 0
2, 136327, Note_on_c, 0, 71, 57
2, 136328, Control_c, 0, 64, 72
2, 136328, Note_on_c, 0, 67, 50
2, 136333, Note_on_c, 0, 64, 44
2, 136343, Control_c, 0, 64, 56
2, 136358, Control_c, 0, 64, 0
2, 136449, Control_c, 0, 64, 25
2, 136464, Control_c, 0, 64, 56
2, 136479, Control_c, 0, 64, 64
2, 136494, Control_c, 0, 64, 69
2, 136510, Control_c, 0, 64, 75
2, 136525, Control_c, 0, 64, 81
2, 136540, Control_c, 0, 64, 86
2, 136555, Control_c, 0, 64, 89
2, 136570, Control_c, 0, 64, 91
2, 136581, Note_on_c, 0, 43, 0
2, 136586, Control_c, 0, 64, 93
2, 136600, Control_c, 0, 64, 94
2, 136616, Control_c, 0, 64, 94
2, 136632, Control_c, 0, 64, 95
2, 136647, Control_c, 0, 64, 96
2, 136663, Control_c, 0, 64, 97
2, 136678, Control_c, 0, 64, 98
2, 136708, Control_c, 0, 64, 98
2, 136739, Control_c, 0, 64, 99
2, 136754, Control_c, 0, 64, 99
2, 136784, Control_c, 0, 64, 100
2, 136814, Control_c, 0, 64, 100
2, 136852, Control_c, 0, 64, 101
2, 136899, Control_c, 0, 64, 101
2, 136944, Control_c, 0, 64, 102
2, 136987, Note_on_c, 0, 54, 47
2, 136989, Control_c, 0, 64, 102
2, 136993, Note_on_c, 0, 45, 41
2, 136995, Note_on_c, 0, 67, 0
2, 137009, Note_on_c, 0, 72, 51
2, 137015, Note_on_c, 0, 64, 0
2, 137019, Note_on_c, 0, 54, 0
2, 137025, Note_on_c, 0, 45, 0
2, 137065, Control_c, 0, 64, 103
2, 137202, Control_c, 0, 64, 102
2, 137203, Note_on_c, 0, 71, 0
2, 137218, Control_c, 0, 64, 100
2, 137220, Note_on_c, 0, 67, 48
2, 137223, Note_on_c, 0, 72, 0
2, 137230, Note_on_c, 0, 64, 36
2, 137232, Control_c, 0, 64, 95
2, 137234, Note_on_c, 0, 47, 38
2, 137247, Control_c, 0, 64, 86
2, 137263, Control_c, 0, 64, 75
2, 137265, Note_on_c, 0, 55, 39
2, 137278, Control_c, 0, 64, 63
2, 137293, Control_c, 0, 64, 0
2, 137329, Note_on_c, 0, 55, 0
2, 137329, Note_on_c, 0, 55, 3
2, 137384, Control_c, 0, 64, 29
2, 137399, Control_c, 0, 64, 52
2, 137414, Control_c, 0, 64, 60
2, 137430, Control_c, 0, 64, 64
2, 137446, Control_c, 0, 64, 68
2, 137461, Control_c, 0, 64, 74
2, 137476, Control_c, 0, 64, 80
2, 137491, Control_c, 0, 64, 84
2, 137507, Control_c, 0, 64, 87
2, 137522, Control_c, 0, 64, 88
2, 137536, Control_c, 0, 64, 90
2, 137542, Note_on_c, 0, 55, 0
2, 137552, Control_c, 0, 64, 91
2, 137567, Control_c, 0, 64, 92
2, 137570, Note_on_c, 0, 64, 0
2, 137583, Control_c, 0, 64, 92
2, 137598, Control_c, 0, 64, 93
2, 137636, Control_c, 0, 64, 93
2, 137651, Control_c, 0, 64, 94
2, 137712, Control_c, 0, 64, 94
2, 137844, Note_on_c, 0, 67, 0
2, 137875, Note_on_c, 0, 57, 34
2, 137922, Note_on_c, 0, 57, 0
2, 138091, Control_c, 0, 64, 94
2, 138107, Control_c, 0, 64, 93
2, 138122, Control_c, 0, 64, 93
2, 138138, Control_c, 0, 64, 90
2, 138147, Note_on_c, 0, 67, 52
2, 138150, Note_on_c, 0, 59, 44
2, 138152, Control_c, 0, 64, 88
2, 138167, Control_c, 0, 64, 85
2, 138168, Note_on_c, 0, 63, 16
2, 138183, Control_c, 0, 64, 81
2, 138198, Control_c, 0, 64, 77
2, 138212, Control_c, 0, 64, 72
2, 138228, Control_c, 0, 64, 66
2, 138228, Note_on_c, 0, 67, 0
2, 138243, Control_c, 0, 64, 58
2, 138255, Note_on_c, 0, 66, 61
2, 138260, Control_c, 0, 64, 38
2, 138275, Control_c, 0, 64, 18
2, 138290, Control_c, 0, 64, 15
2, 138296, Note_on_c, 0, 67, 57
2, 138300, Note_on_c, 0, 66, 0
2, 138305, Control_c, 0, 64, 13
2, 138320, Control_c, 0, 64, 0
2, 138333, Note_on_c, 0, 67, 0
2, 138370, Note_on_c, 0, 59, 0
2, 138380, Note_on_c, 0, 67, 72
2, 138455, Note_on_c, 0, 67, 0
2, 138571, Control_c, 0, 64, 52
2, 138587, Control_c, 0, 64, 64
2, 138601, Control_c, 0, 64, 68
2, 138616, Control_c, 0, 64, 74
2, 138632, Control_c, 0, 64, 81
2, 138647, Control_c, 0, 64, 84
2, 138663, Control_c, 0, 64, 87
2, 138678, Control_c, 0, 64, 89
2, 138693, Control_c, 0, 64, 90
2, 138709, Control_c, 0, 64, 91
2, 138712, Note_on_c, 0, 63, 0
2, 138723, Control_c, 0, 64, 91
2, 138731, Note_on_c, 0, 57, 41
2, 138754, Control_c, 0, 64, 92
2, 138766, Note_on_c, 0, 47, 0
2, 138776, Note_on_c, 0, 57, 0
2, 138997, Control_c, 0, 64, 91
2, 139019, Note_on_c, 0, 64, 46
2, 139025, Note_on_c, 0, 52, 35
2, 139028, Control_c, 0, 64, 91
2, 139030, Note_on_c, 0, 55, 31
2, 139042, Control_c, 0, 64, 90
2, 139058, Control_c, 0, 64, 87
2, 139073, Control_c, 0, 64, 84
2, 139088, Control_c, 0, 64, 80
2, 139098, Note_on_c, 0, 66, 63
2, 139100, Note_on_c, 0, 64, 0
2, 139104, Control_c, 0, 64, 73
2, 139119, Control_c, 0, 64, 63
2, 139134, Control_c, 0, 64, 0
2, 139183, Note_on_c, 0, 66, 0
2, 139196, Note_on_c, 0, 67, 61
2, 139251, Note_on_c, 0, 67, 0
2, 139267, Note_on_c, 0, 69, 68
2, 139309, Control_c, 0, 64, 58
2, 139324, Control_c, 0, 64, 65
2, 139340, Control_c, 0, 64, 70
2, 139348, Note_on_c, 0, 67, 72
2, 139354, Control_c, 0, 64, 76
2, 139360, Note_on_c, 0, 69, 0
2, 139368, Note_on_c, 0, 55, 0
2, 139369, Control_c, 0, 64, 83
2, 139385, Control_c, 0, 64, 87
2, 139385, Note_on_c, 0, 52, 0
2, 139400, Control_c, 0, 64, 91
2, 139404, Note_on_c, 0, 67, 0
2, 139415, Control_c, 0, 64, 93
2, 139418, Note_on_c, 0, 66, 81
2, 139431, Control_c, 0, 64, 94
2, 139446, Control_c, 0, 64, 95
2, 139462, Control_c, 0, 64, 95
2, 139477, Control_c, 0, 64, 96
2, 139483, Note_on_c, 0, 67, 75
2, 139487, Note_on_c, 0, 66, 0
2, 139491, Control_c, 0, 64, 97
2, 139507, Control_c, 0, 64, 97
2, 139543, Note_on_c, 0, 67, 0
2, 139560, Note_on_c, 0, 64, 82
2, 139567, Control_c, 0, 64, 98
2, 139583, Control_c, 0, 64, 98
2, 139587, Note_on_c, 0, 64, 0
2, 139598, Control_c, 0, 64, 99
2, 139674, Control_c, 0, 64, 99
2, 139740, Note_on_c, 0, 59, 48
2, 139741, Note_on_c, 0, 79, 83
2, 139750, Control_c, 0, 64, 99
2, 139764, Control_c, 0, 64, 97
2, 139780, Control_c, 0, 64, 93
2, 139795, Control_c, 0, 64, 83
2, 139810, Control_c, 0, 64, 72
2, 139826, Control_c, 0, 64, 54
2, 139840, Control_c, 0, 64, 0
2, 139963, Note_on_c, 0, 57, 58
2, 140001, Control_c, 0, 64, 36
2, 140008, Note_on_c, 0, 59, 0
2, 140016, Control_c, 0, 64, 60
2, 140032, Control_c, 0, 64, 65
2, 140047, Control_c, 0, 64, 69
2, 140063, Control_c, 0, 64, 74
2, 140077, Control_c, 0, 64, 80
2, 140085, Note_on_c, 0, 79, 0
2, 140092, Control_c, 0, 64, 84
2, 140108, Control_c, 0, 64, 87
2, 140123, Control_c, 0, 64, 88
2, 140138, Control_c, 0, 64, 89
2, 140139, Note_on_c, 0, 59, 66
2, 140153, Control_c, 0, 64, 91
2, 140168, Control_c, 0, 64, 92
2, 140175, Note_on_c, 0, 57, 0
2, 140183, Control_c, 0, 64, 93
2, 140198, Control_c, 0, 64, 94
2, 140213, Control_c, 0, 64, 95
2, 140229, Control_c, 0, 64, 96
2, 140244, Control_c, 0, 64, 96
2, 140275, Control_c, 0, 64, 97
2, 140323, Note_on_c, 0, 55, 66
2, 140352, Note_on_c, 0, 59, 0
2, 140359, Note_on_c, 0, 55, 0
2, 140532, Control_c, 0, 64, 96
2, 140542, Note_on_c, 0, 64, 64
2, 140547, Control_c, 0, 64, 94
2, 140551, Note_on_c, 0, 59, 35
2, 140561, Note_on_c, 0, 55, 52
2, 140562, Control_c, 0, 64, 89
2, 140578, Control_c, 0, 64, 80
2, 140593, Control_c, 0, 64, 66
2, 140608, Control_c, 0, 64, 0
2, 140723, Control_c, 0, 64, 23
2, 140728, Note_on_c, 0, 55, 0
2, 140735, Note_on_c, 0, 54, 52
2, 140739, Control_c, 0, 64, 51
2, 140754, Control_c, 0, 64, 61
2, 140768, Control_c, 0, 64, 65
2, 140784, Control_c, 0, 64, 69
2, 140799, Control_c, 0, 64, 74
2, 140814, Control_c, 0, 64, 79
2, 140830, Control_c, 0, 64, 82
2, 140844, Control_c, 0, 64, 84
2, 140860, Control_c, 0, 64, 86
2, 140875, Control_c, 0, 64, 87
2, 140890, Control_c, 0, 64, 87
2, 140908, Note_on_c, 0, 55, 56
2, 140911, Note_on_c, 0, 54, 0
2, 140964, Note_on_c, 0, 55, 0
2, 140965, Note_on_c, 0, 59, 0
2, 141075, Note_on_c, 0, 61, 75
2, 141081, Note_on_c, 0, 55, 51
2, 141088, Note_on_c, 0, 52, 50
2, 141092, Note_on_c, 0, 64, 0
2, 141100, Note_on_c, 0, 55, 0
2, 141112, Note_on_c, 0, 52, 0
2, 141129, Note_on_c, 0, 61, 0
2, 141194, Control_c, 0, 64, 87
2, 141209, Control_c, 0, 64, 86
2, 141225, Control_c, 0, 64, 85
2, 141240, Control_c, 0, 64, 82
2, 141254, Control_c, 0, 64, 77
2, 141260, Note_on_c, 0, 55, 47
2, 141267, Note_on_c, 0, 52, 44
2, 141270, Control_c, 0, 64, 67
2, 141279, Note_on_c, 0, 61, 72
2, 141285, Control_c, 0, 64, 0
2, 141422, Control_c, 0, 64, 31
2, 141437, Control_c, 0, 64, 59
2, 141438, Note_on_c, 0, 50, 56
2, 141443, Note_on_c, 0, 52, 0
2, 141452, Control_c, 0, 64, 65
2, 141475, Control_c, 0, 64, 69
2, 141490, Control_c, 0, 64, 74
2, 141506, Control_c, 0, 64, 79
2, 141520, Control_c, 0, 64, 82
2, 141536, Control_c, 0, 64, 83
2, 141552, Control_c, 0, 64, 84
2, 141567, Control_c, 0, 64, 85
2, 141598, Control_c, 0, 64, 86
2, 141612, Control_c, 0, 64, 87
2, 141628, Control_c, 0, 64, 88
2, 141635, Note_on_c, 0, 52, 59
2, 141638, Note_on_c, 0, 50, 0
2, 141643, Control_c, 0, 64, 88
2, 141659, Control_c, 0, 64, 89
2, 141666, Note_on_c, 0, 55, 0
2, 141674, Control_c, 0, 64, 89
2, 141684, Note_on_c, 0, 52, 0
2, 141688, Control_c, 0, 64, 90
2, 141704, Control_c, 0, 64, 90
2, 141764, Control_c, 0, 64, 91
2, 141780, Note_on_c, 0, 61, 0
2, 141782, Note_on_c, 0, 57, 71
2, 141783, Note_on_c, 0, 52, 63
2, 141795, Control_c, 0, 64, 91
2, 141806, Note_on_c, 0, 49, 56
2, 141806, Note_on_c, 0, 57, 0
2, 141810, Control_c, 0, 64, 92
2, 141818, Note_on_c, 0, 52, 0
2, 141837, Note_on_c, 0, 49, 0
2, 141840, Control_c, 0, 64, 92
2, 141871, Control_c, 0, 64, 93
2, 141958, Note_on_c, 0, 49, 46
2, 141959, Note_on_c, 0, 57, 44
2, 141968, Note_on_c, 0, 52, 51
2, 141970, Note_on_c, 0, 69, 68
2, 141993, Control_c, 0, 64, 92
2, 142008, Control_c, 0, 64, 90
2, 142023, Control_c, 0, 64, 85
2, 142038, Control_c, 0, 64, 78
2, 142042, Note_on_c, 0, 71, 71
2, 142053, Control_c, 0, 64, 66
2, 142069, Control_c, 0, 64, 0
2, 142070, Note_on_c, 0, 69, 0
2, 142125, Note_on_c, 0, 73, 72
2, 142156, Note_on_c, 0, 71, 0
2, 142198, Note_on_c, 0, 74, 74
2, 142207, Note_on_c, 0, 73, 0
2, 142243, Control_c, 0, 64, 41
2, 142259, Control_c, 0, 64, 61
2, 142274, Control_c, 0, 64, 66
2, 142285, Note_on_c, 0, 73, 76
2, 142289, Control_c, 0, 64, 71
2, 142304, Control_c, 0, 64, 78
2, 142319, Control_c, 0, 64, 85
2, 142323, Note_on_c, 0, 74, 0
2, 142334, Control_c, 0, 64, 89
2, 142350, Control_c, 0, 64, 91
2, 142357, Note_on_c, 0, 71, 78
2, 142362, Note_on_c, 0, 57, 0
2, 142366, Control_c, 0, 64, 93
2, 142369, Note_on_c, 0, 73, 0
2, 142381, Control_c, 0, 64, 94
2, 142390, Note_on_c, 0, 52, 0
2, 142396, Control_c, 0, 64, 96
2, 142411, Control_c, 0, 64, 97
2, 142414, Note_on_c, 0, 49, 0
2, 142427, Control_c, 0, 64, 98
2, 142432, Note_on_c, 0, 73, 83
2, 142442, Control_c, 0, 64, 99
2, 142445, Note_on_c, 0, 71, 0
2, 142456, Control_c, 0, 64, 100
2, 142472, Control_c, 0, 64, 101
2, 142488, Control_c, 0, 64, 101
2, 142496, Note_on_c, 0, 73, 0
2, 142508, Note_on_c, 0, 69, 83
2, 142519, Control_c, 0, 64, 102
2, 142564, Control_c, 0, 64, 102
2, 142646, Note_on_c, 0, 57, 54
2, 142653, Note_on_c, 0, 78, 80
2, 142655, Control_c, 0, 64, 102
2, 142670, Control_c, 0, 64, 100
2, 142670, Note_on_c, 0, 69, 0
2, 142685, Control_c, 0, 64, 94
2, 142701, Control_c, 0, 64, 83
2, 142715, Control_c, 0, 64, 69
2, 142730, Control_c, 0, 64, 0
2, 142822, Control_c, 0, 64, 23
2, 142837, Control_c, 0, 64, 58
2, 142852, Control_c, 0, 64, 66
2, 142852, Note_on_c, 0, 55, 47
2, 142868, Control_c, 0, 64, 71
2, 142879, Note_on_c, 0, 57, 0
2, 142882, Control_c, 0, 64, 77
2, 142898, Control_c, 0, 64, 83
2, 142898, Note_on_c, 0, 78, 0
2, 142913, Control_c, 0, 64, 87
2, 142928, Control_c, 0, 64, 88
2, 142944, Control_c, 0, 64, 89
2, 142959, Control_c, 0, 64, 90
2, 142974, Control_c, 0, 64, 92
2, 142996, Control_c, 0, 64, 93
2, 143011, Control_c, 0, 64, 94
2, 143027, Control_c, 0, 64, 95
2, 143042, Control_c, 0, 64, 95
2, 143049, Note_on_c, 0, 57, 48
2, 143055, Note_on_c, 0, 55, 0
2, 143058, Control_c, 0, 64, 96
2, 143087, Control_c, 0, 64, 96
2, 143225, Note_on_c, 0, 54, 45
2, 143235, Note_on_c, 0, 57, 0
2, 143249, Note_on_c, 0, 54, 0
2, 143378, Control_c, 0, 64, 96
2, 143393, Control_c, 0, 64, 95
2, 143406, Note_on_c, 0, 62, 64
2, 143408, Control_c, 0, 64, 93
2, 143414, Note_on_c, 0, 57, 49
2, 143424, Control_c, 0, 64, 88
2, 143429, Note_on_c, 0, 54, 45
2, 143438, Control_c, 0, 64, 77
2, 143453, Control_c, 0, 64, 64
2, 143469, Control_c, 0, 64, 0
2, 143559, Control_c, 0, 64, 27
2, 143577, Control_c, 0, 64, 55
2, 143590, Note_on_c, 0, 54, 0
2, 143592, Control_c, 0, 64, 64
2, 143598, Note_on_c, 0, 52, 53
2, 143607, Control_c, 0, 64, 68
2, 143623, Control_c, 0, 64, 73
2, 143637, Control_c, 0, 64, 80
2, 143653, Control_c, 0, 64, 84
2, 143668, Control_c, 0, 64, 87
2, 143683, Control_c, 0, 64, 89
2, 143699, Control_c, 0, 64, 91
2, 143713, Control_c, 0, 64, 91
2, 143766, Control_c, 0, 64, 92
2, 143781, Note_on_c, 0, 54, 55
2, 143796, Note_on_c, 0, 52, 0
2, 143833, Note_on_c, 0, 54, 0
2, 143851, Note_on_c, 0, 57, 0
2, 143951, Note_on_c, 0, 54, 59
2, 143953, Note_on_c, 0, 59, 65
2, 143958, Note_on_c, 0, 50, 52
2, 143974, Note_on_c, 0, 62, 0
2, 143989, Note_on_c, 0, 54, 0
2, 143994, Note_on_c, 0, 50, 0
2, 143997, Note_on_c, 0, 59, 0
2, 144057, Control_c, 0, 64, 91
2, 144071, Control_c, 0, 64, 90
2, 144086, Control_c, 0, 64, 87
2, 144102, Control_c, 0, 64, 83
2, 144117, Control_c, 0, 64, 74
2, 144133, Control_c, 0, 64, 61
2, 144138, Note_on_c, 0, 54, 47
2, 144142, Note_on_c, 0, 50, 50
2, 144147, Note_on_c, 0, 59, 67
2, 144148, Control_c, 0, 64, 0
2, 144255, Control_c, 0, 64, 34
2, 144270, Control_c, 0, 64, 58
2, 144284, Control_c, 0, 64, 63
2, 144300, Control_c, 0, 64, 66
2, 144312, Note_on_c, 0, 49, 63
2, 144315, Control_c, 0, 64, 69
2, 144328, Note_on_c, 0, 50, 0
2, 144331, Control_c, 0, 64, 73
2, 144346, Control_c, 0, 64, 76
2, 144360, Control_c, 0, 64, 78
2, 144376, Control_c, 0, 64, 79
2, 144405, Control_c, 0, 64, 79
2, 144472, Note_on_c, 0, 50, 67
2, 144497, Control_c, 0, 64, 80
2, 144498, Note_on_c, 0, 49, 0
2, 144505, Note_on_c, 0, 54, 0
2, 144540, Note_on_c, 0, 50, 0
2, 144633, Note_on_c, 0, 59, 0
2, 144639, Note_on_c, 0, 55, 75
2, 144648, Note_on_c, 0, 50, 63
2, 144652, Note_on_c, 0, 47, 62
2, 144665, Note_on_c, 0, 55, 0
2, 144680, Note_on_c, 0, 50, 0
2, 144685, Note_on_c, 0, 47, 0
2, 144807, Control_c, 0, 64, 79
2, 144809, Note_on_c, 0, 47, 51
2, 144814, Note_on_c, 0, 55, 59
2, 144818, Note_on_c, 0, 50, 59
2, 144824, Control_c, 0, 64, 77
2, 144824, Note_on_c, 0, 67, 78
2, 144838, Control_c, 0, 64, 72
2, 144854, Control_c, 0, 64, 64
2, 144869, Control_c, 0, 64, 30
2, 144884, Control_c, 0, 64, 0
2, 144899, Note_on_c, 0, 69, 82
2, 144904, Note_on_c, 0, 67, 0
2, 144979, Note_on_c, 0, 71, 83
2, 145009, Note_on_c, 0, 69, 0
2, 145046, Note_on_c, 0, 71, 0
2, 145052, Note_on_c, 0, 72, 77
2, 145079, Note_on_c, 0, 47, 0
2, 145096, Note_on_c, 0, 55, 0
2, 145098, Control_c, 0, 64, 59
2, 145099, Note_on_c, 0, 50, 0
2, 145113, Control_c, 0, 64, 67
2, 145114, Note_on_c, 0, 71, 77
2, 145127, Control_c, 0, 64, 73
2, 145143, Control_c, 0, 64, 79
2, 145154, Note_on_c, 0, 72, 0
2, 145158, Control_c, 0, 64, 84
2, 145173, Control_c, 0, 64, 86
2, 145184, Note_on_c, 0, 69, 89
2, 145188, Control_c, 0, 64, 87
2, 145196, Note_on_c, 0, 71, 0
2, 145203, Control_c, 0, 64, 88
2, 145219, Control_c, 0, 64, 89
2, 145234, Control_c, 0, 64, 90
2, 145248, Control_c, 0, 64, 91
2, 145258, Note_on_c, 0, 71, 83
2, 145264, Control_c, 0, 64, 92
2, 145264, Note_on_c, 0, 69, 0
2, 145279, Control_c, 0, 64, 93
2, 145295, Control_c, 0, 64, 94
2, 145327, Note_on_c, 0, 67, 90
2, 145333, Control_c, 0, 64, 94
2, 145335, Note_on_c, 0, 71, 0
2, 145348, Control_c, 0, 64, 95
2, 145424, Control_c, 0, 64, 93
2, 145439, Control_c, 0, 64, 89
2, 145447, Note_on_c, 0, 55, 56
2, 145452, Note_on_c, 0, 76, 81
2, 145454, Control_c, 0, 64, 81
2, 145467, Note_on_c, 0, 67, 0
2, 145469, Control_c, 0, 64, 70
2, 145484, Control_c, 0, 64, 0
2, 145622, Control_c, 0, 64, 55
2, 145638, Control_c, 0, 64, 65
2, 145645, Note_on_c, 0, 54, 59
2, 145654, Control_c, 0, 64, 70
2, 145663, Note_on_c, 0, 76, 0
2, 145669, Control_c, 0, 64, 78
2, 145681, Note_on_c, 0, 55, 0
2, 145683, Control_c, 0, 64, 85
2, 145699, Control_c, 0, 64, 91
2, 145714, Control_c, 0, 64, 93
2, 145729, Control_c, 0, 64, 95
2, 145745, Control_c, 0, 64, 97
2, 145759, Control_c, 0, 64, 99
2, 145775, Control_c, 0, 64, 101
2, 145790, Control_c, 0, 64, 103
2, 145805, Control_c, 0, 64, 105
2, 145820, Control_c, 0, 64, 105
2, 145831, Note_on_c, 0, 55, 56
2, 145835, Control_c, 0, 64, 106
2, 145866, Control_c, 0, 64, 106
2, 145875, Note_on_c, 0, 54, 0
2, 145976, Note_on_c, 0, 52, 66
2, 146003, Note_on_c, 0, 55, 0
2, 146013, Note_on_c, 0, 52, 0
2, 146116, Control_c, 0, 64, 106
2, 146147, Control_c, 0, 64, 105
2, 146156, Note_on_c, 0, 55, 58
2, 146156, Note_on_c, 0, 61, 77
2, 146162, Control_c, 0, 64, 101
2, 146169, Note_on_c, 0, 52, 57
2, 146178, Control_c, 0, 64, 93
2, 146193, Control_c, 0, 64, 77
2, 146208, Control_c, 0, 64, 58
2, 146223, Control_c, 0, 64, 0
2, 146314, Control_c, 0, 64, 41
2, 146328, Note_on_c, 0, 52, 0
2, 146329, Control_c, 0, 64, 59
2, 146345, Control_c, 0, 64, 64
2, 146346, Note_on_c, 0, 50, 48
2, 146360, Control_c, 0, 64, 68
2, 146375, Control_c, 0, 64, 72
2, 146390, Control_c, 0, 64, 78
2, 146405, Control_c, 0, 64, 82
2, 146421, Control_c, 0, 64, 84
2, 146435, Control_c, 0, 64, 85
2, 146452, Control_c, 0, 64, 86
2, 146507, Note_on_c, 0, 50, 0
2, 146526, Note_on_c, 0, 52, 63
2, 146575, Note_on_c, 0, 55, 0
2, 146679, Note_on_c, 0, 57, 72
2, 146681, Note_on_c, 0, 49, 62
2, 146687, Note_on_c, 0, 61, 0
2, 146707, Note_on_c, 0, 52, 0
2, 146727, Note_on_c, 0, 49, 0
2, 146738, Note_on_c, 0, 57, 0
2, 146855, Control_c, 0, 64, 85
2, 146869, Control_c, 0, 64, 81
2, 146872, Note_on_c, 0, 57, 69
2, 146875, Note_on_c, 0, 49, 58
2, 146878, Note_on_c, 0, 52, 53
2, 146884, Control_c, 0, 64, 73
2, 146900, Control_c, 0, 64, 58
2, 146915, Control_c, 0, 64, 0
2, 147027, Note_on_c, 0, 49, 0
2, 147031, Note_on_c, 0, 47, 62
2, 147037, Control_c, 0, 64, 25
2, 147052, Control_c, 0, 64, 57
2, 147067, Control_c, 0, 64, 65
2, 147082, Control_c, 0, 64, 69
2, 147098, Control_c, 0, 64, 74
2, 147113, Control_c, 0, 64, 79
2, 147128, Control_c, 0, 64, 82
2, 147144, Control_c, 0, 64, 84
2, 147158, Control_c, 0, 64, 85
2, 147174, Control_c, 0, 64, 86
2, 147189, Control_c, 0, 64, 86
2, 147201, Note_on_c, 0, 49, 64
2, 147203, Control_c, 0, 64, 87
2, 147219, Control_c, 0, 64, 87
2, 147234, Control_c, 0, 64, 88
2, 147236, Note_on_c, 0, 47, 0
2, 147249, Control_c, 0, 64, 89
2, 147257, Note_on_c, 0, 49, 0
2, 147259, Note_on_c, 0, 52, 0
2, 147265, Control_c, 0, 64, 91
2, 147281, Control_c, 0, 64, 92
2, 147296, Control_c, 0, 64, 92
2, 147311, Control_c, 0, 64, 93
2, 147326, Control_c, 0, 64, 93
2, 147342, Control_c, 0, 64, 94
2, 147349, Note_on_c, 0, 57, 0
2, 147357, Control_c, 0, 64, 96
2, 147363, Note_on_c, 0, 49, 63
2, 147363, Note_on_c, 0, 54, 73
2, 147372, Control_c, 0, 64, 96
2, 147374, Note_on_c, 0, 45, 51
2, 147387, Control_c, 0, 64, 97
2, 147387, Note_on_c, 0, 54, 0
2, 147401, Note_on_c, 0, 49, 0
2, 147402, Control_c, 0, 64, 98
2, 147412, Note_on_c, 0, 45, 0
2, 147418, Control_c, 0, 64, 98
2, 147519, Note_on_c, 0, 45, 49
2, 147538, Note_on_c, 0, 54, 42
2, 147545, Note_on_c, 0, 49, 56
2, 147554, Control_c, 0, 64, 98
2, 147569, Control_c, 0, 64, 94
2, 147572, Note_on_c, 0, 66, 66
2, 147584, Control_c, 0, 64, 87
2, 147607, Control_c, 0, 64, 74
2, 147623, Control_c, 0, 64, 53
2, 147637, Control_c, 0, 64, 0
2, 147652, Note_on_c, 0, 67, 71
2, 147658, Note_on_c, 0, 66, 0
2, 147740, Note_on_c, 0, 69, 76
2, 147759, Control_c, 0, 64, 52
2, 147763, Note_on_c, 0, 45, 0
2, 147768, Note_on_c, 0, 67, 0
2, 147775, Control_c, 0, 64, 64
2, 147789, Control_c, 0, 64, 70
2, 147804, Control_c, 0, 64, 77
2, 147806, Note_on_c, 0, 69, 0
2, 147809, Note_on_c, 0, 71, 62
2, 147814, Note_on_c, 0, 54, 0
2, 147820, Control_c, 0, 64, 84
2, 147820, Note_on_c, 0, 49, 0
2, 147835, Control_c, 0, 64, 89
2, 147849, Control_c, 0, 64, 93
2, 147864, Control_c, 0, 64, 96
2, 147874, Note_on_c, 0, 69, 69
2, 147879, Control_c, 0, 64, 98
2, 147895, Control_c, 0, 64, 100
2, 147909, Control_c, 0, 64, 102
2, 147918, Note_on_c, 0, 71, 0
2, 147924, Control_c, 0, 64, 103
2, 147940, Control_c, 0, 64, 103
2, 147941, Note_on_c, 0, 67, 83
2, 147948, Note_on_c, 0, 69, 0
2, 147955, Control_c, 0, 64, 104
2, 147985, Control_c, 0, 64, 104
2, 148012, Note_on_c, 0, 69, 77
2, 148020, Note_on_c, 0, 67, 0
2, 148061, Control_c, 0, 64, 105
2, 148088, Note_on_c, 0, 69, 0
2, 148094, Note_on_c, 0, 66, 88
2, 148175, Note_on_c, 0, 66, 0
2, 148215, Control_c, 0, 64, 104
2, 148223, Note_on_c, 0, 59, 49
2, 148229, Control_c, 0, 64, 101
2, 148238, Note_on_c, 0, 74, 82
2, 148244, Control_c, 0, 64, 95
2, 148260, Control_c, 0, 64, 85
2, 148275, Control_c, 0, 64, 73
2, 148291, Control_c, 0, 64, 50
2, 148306, Control_c, 0, 64, 0
2, 148326, Note_on_c, 0, 61, 58
2, 148342, Note_on_c, 0, 59, 0
2, 148408, Note_on_c, 0, 62, 69
2, 148419, Note_on_c, 0, 61, 0
2, 148467, Note_on_c, 0, 62, 0
2, 148474, Note_on_c, 0, 64, 69
2, 148495, Control_c, 0, 64, 44
2, 148510, Control_c, 0, 64, 58
2, 148525, Control_c, 0, 64, 64
2, 148541, Control_c, 0, 64, 69
2, 148547, Note_on_c, 0, 74, 0
2, 148552, Note_on_c, 0, 62, 75
2, 148553, Note_on_c, 0, 64, 0
2, 148556, Control_c, 0, 64, 75
2, 148572, Control_c, 0, 64, 80
2, 148587, Control_c, 0, 64, 82
2, 148602, Control_c, 0, 64, 84
2, 148616, Note_on_c, 0, 61, 77
2, 148616, Note_on_c, 0, 62, 0
2, 148618, Control_c, 0, 64, 85
2, 148633, Control_c, 0, 64, 86
2, 148647, Control_c, 0, 64, 88
2, 148663, Control_c, 0, 64, 89
2, 148678, Control_c, 0, 64, 90
2, 148687, Note_on_c, 0, 61, 0
2, 148694, Control_c, 0, 64, 91
2, 148697, Note_on_c, 0, 62, 80
2, 148709, Control_c, 0, 64, 94
2, 148724, Control_c, 0, 64, 96
2, 148740, Control_c, 0, 64, 98
2, 148751, Note_on_c, 0, 74, 90
2, 148753, Note_on_c, 0, 59, 73
2, 148754, Control_c, 0, 64, 99
2, 148769, Control_c, 0, 64, 100
2, 148774, Note_on_c, 0, 62, 0
2, 148779, Note_on_c, 0, 59, 0
2, 148803, Note_on_c, 0, 74, 0
2, 148845, Control_c, 0, 64, 99
2, 148861, Control_c, 0, 64, 95
2, 148876, Control_c, 0, 64, 87
2, 148880, Note_on_c, 0, 67, 79
2, 148880, Note_on_c, 0, 74, 82
2, 148886, Note_on_c, 0, 52, 67
2, 148891, Control_c, 0, 64, 75
2, 148907, Control_c, 0, 64, 56
2, 148922, Control_c, 0, 64, 0
2, 148974, Note_on_c, 0, 54, 66
2, 148995, Note_on_c, 0, 52, 0
2, 149051, Note_on_c, 0, 55, 71
2, 149064, Note_on_c, 0, 54, 0
2, 149115, Note_on_c, 0, 55, 0
2, 149120, Note_on_c, 0, 57, 71
2, 149198, Note_on_c, 0, 57, 0
2, 149199, Note_on_c, 0, 55, 73
2, 149265, Control_c, 0, 64, 56
2, 149266, Note_on_c, 0, 54, 76
2, 149266, Note_on_c, 0, 55, 0
2, 149279, Control_c, 0, 64, 66
2, 149295, Control_c, 0, 64, 72
2, 149310, Control_c, 0, 64, 82
2, 149324, Control_c, 0, 64, 91
2, 149338, Note_on_c, 0, 55, 76
2, 149339, Note_on_c, 0, 54, 0
2, 149340, Control_c, 0, 64, 98
2, 149355, Control_c, 0, 64, 106
2, 149371, Control_c, 0, 64, 114
2, 149386, Control_c, 0, 64, 127
2, 149400, Control_c, 0, 64, 127
2, 149403, Note_on_c, 0, 52, 72
2, 149406, Note_on_c, 0, 76, 85
2, 149422, Note_on_c, 0, 55, 0
2, 149423, Note_on_c, 0, 74, 0
2, 149431, Note_on_c, 0, 52, 0
2, 149444, Note_on_c, 0, 67, 0
2, 149520, Note_on_c, 0, 74, 76
2, 149531, Note_on_c, 0, 76, 0
2, 149543, Note_on_c, 0, 57, 64
2, 149566, Note_on_c, 0, 74, 0
2, 149568, Control_c, 0, 64, 105
2, 149573, Note_on_c, 0, 73, 81
2, 149577, Note_on_c, 0, 59, 69
2, 149584, Control_c, 0, 64, 88
2, 149598, Control_c, 0, 64, 69
2, 149607, Note_on_c, 0, 57, 0
2, 149614, Control_c, 0, 64, 0
2, 149617, Note_on_c, 0, 74, 68
2, 149625, Note_on_c, 0, 73, 0
2, 149657, Note_on_c, 0, 61, 75
2, 149666, Note_on_c, 0, 73, 76
2, 149670, Note_on_c, 0, 59, 0
2, 149696, Note_on_c, 0, 74, 0
2, 149724, Note_on_c, 0, 61, 0
2, 149734, Note_on_c, 0, 62, 73
2, 149805, Note_on_c, 0, 61, 79
2, 149819, Note_on_c, 0, 62, 0
2, 149877, Note_on_c, 0, 59, 71
2, 149880, Note_on_c, 0, 61, 0
2, 149966, Note_on_c, 0, 61, 69
2, 149977, Note_on_c, 0, 74, 77
2, 150023, Note_on_c, 0, 57, 70
2, 150024, Note_on_c, 0, 73, 0
2, 150048, Note_on_c, 0, 61, 0
2, 150054, Note_on_c, 0, 59, 0
2, 150054, Note_on_c, 0, 76, 83
2, 150075, Note_on_c, 0, 57, 0
2, 150139, Note_on_c, 0, 74, 0
2, 150187, Note_on_c, 0, 78, 83
2, 150193, Note_on_c, 0, 62, 60
2, 150196, Note_on_c, 0, 66, 68
2, 150199, Note_on_c, 0, 50, 63
2, 150234, Note_on_c, 0, 50, 0
2, 150283, Note_on_c, 0, 52, 60
2, 150363, Note_on_c, 0, 54, 67
2, 150383, Note_on_c, 0, 52, 0
2, 150429, Note_on_c, 0, 55, 72
2, 150431, Note_on_c, 0, 54, 0
2, 150473, Note_on_c, 0, 76, 0
2, 150478, Note_on_c, 0, 66, 0
2, 150509, Note_on_c, 0, 78, 0
2, 150523, Note_on_c, 0, 54, 74
2, 150559, Note_on_c, 0, 55, 0
2, 150580, Control_c, 0, 64, 32
2, 150581, Note_on_c, 0, 52, 60
2, 150584, Note_on_c, 0, 54, 0
2, 150595, Control_c, 0, 64, 60
2, 150611, Control_c, 0, 64, 64
2, 150626, Control_c, 0, 64, 67
2, 150641, Control_c, 0, 64, 69
2, 150657, Control_c, 0, 64, 72
2, 150657, Note_on_c, 0, 54, 74
2, 150665, Note_on_c, 0, 52, 0
2, 150678, Control_c, 0, 64, 75
2, 150694, Control_c, 0, 64, 77
2, 150709, Control_c, 0, 64, 79
2, 150724, Control_c, 0, 64, 79
2, 150747, Note_on_c, 0, 54, 0
2, 150776, Note_on_c, 0, 50, 47
2, 150785, Control_c, 0, 64, 79
2, 150800, Control_c, 0, 64, 77
2, 150816, Control_c, 0, 64, 74
2, 150831, Control_c, 0, 64, 68
2, 150846, Control_c, 0, 64, 55
2, 150847, Note_on_c, 0, 55, 66
2, 150847, Note_on_c, 0, 62, 0
2, 150849, Note_on_c, 0, 50, 0
2, 150862, Control_c, 0, 64, 0
2, 150877, Note_on_c, 0, 83, 84
2, 151054, Note_on_c, 0, 81, 83
2, 151087, Control_c, 0, 64, 56
2, 151103, Control_c, 0, 64, 65
2, 151109, Note_on_c, 0, 83, 0
2, 151118, Control_c, 0, 64, 70
2, 151134, Control_c, 0, 64, 76
2, 151149, Control_c, 0, 64, 81
2, 151164, Control_c, 0, 64, 84
2, 151180, Control_c, 0, 64, 85
2, 151183, Note_on_c, 0, 55, 0
2, 151195, Control_c, 0, 64, 87
2, 151209, Control_c, 0, 64, 88
2, 151223, Note_on_c, 0, 83, 87
2, 151225, Control_c, 0, 64, 89
2, 151240, Control_c, 0, 64, 91
2, 151256, Control_c, 0, 64, 92
2, 151268, Note_on_c, 0, 81, 0
2, 151270, Control_c, 0, 64, 93
2, 151285, Control_c, 0, 64, 94
2, 151301, Control_c, 0, 64, 94
2, 151388, Note_on_c, 0, 79, 83
2, 151419, Note_on_c, 0, 83, 0
2, 151467, Note_on_c, 0, 79, 0
2, 151583, Control_c, 0, 64, 93
2, 151598, Control_c, 0, 64, 90
2, 151607, Note_on_c, 0, 79, 82
2, 151611, Note_on_c, 0, 74, 56
2, 151614, Control_c, 0, 64, 84
2, 151617, Note_on_c, 0, 71, 60
2, 151629, Control_c, 0, 64, 75
2, 151644, Control_c, 0, 64, 61
2, 151659, Control_c, 0, 64, 0
2, 151778, Note_on_c, 0, 78, 84
2, 151795, Control_c, 0, 64, 55
2, 151811, Control_c, 0, 64, 64
2, 151816, Note_on_c, 0, 79, 0
2, 151826, Control_c, 0, 64, 68
2, 151841, Control_c, 0, 64, 74
2, 151856, Control_c, 0, 64, 79
2, 151871, Control_c, 0, 64, 83
2, 151886, Control_c, 0, 64, 85
2, 151901, Control_c, 0, 64, 87
2, 151916, Control_c, 0, 64, 87
2, 151932, Control_c, 0, 64, 88
2, 151935, Note_on_c, 0, 74, 0
2, 151947, Note_on_c, 0, 71, 0
2, 151953, Note_on_c, 0, 79, 87
2, 151962, Control_c, 0, 64, 88
2, 152022, Note_on_c, 0, 78, 0
2, 152054, Control_c, 0, 64, 89
2, 152118, Note_on_c, 0, 76, 82
2, 152123, Note_on_c, 0, 71, 70
2, 152126, Note_on_c, 0, 67, 69
2, 152141, Note_on_c, 0, 79, 0
2, 152146, Note_on_c, 0, 71, 0
2, 152153, Note_on_c, 0, 67, 0
2, 152162, Note_on_c, 0, 76, 0
2, 152242, Control_c, 0, 64, 89
2, 152333, Control_c, 0, 64, 88
2, 152336, Note_on_c, 0, 76, 82
2, 152339, Note_on_c, 0, 67, 62
2, 152343, Note_on_c, 0, 71, 59
2, 152348, Control_c, 0, 64, 86
2, 152363, Control_c, 0, 64, 80
2, 152379, Control_c, 0, 64, 72
2, 152394, Control_c, 0, 64, 58
2, 152409, Control_c, 0, 64, 0
2, 152528, Note_on_c, 0, 74, 80
2, 152562, Control_c, 0, 64, 36
2, 152570, Note_on_c, 0, 76, 0
2, 152578, Control_c, 0, 64, 63
2, 152593, Control_c, 0, 64, 69
2, 152608, Control_c, 0, 64, 75
2, 152623, Control_c, 0, 64, 82
2, 152638, Control_c, 0, 64, 87
2, 152653, Control_c, 0, 64, 91
2, 152669, Control_c, 0, 64, 93
2, 152684, Control_c, 0, 64, 95
2, 152699, Control_c, 0, 64, 98
2, 152703, Note_on_c, 0, 74, 0
2, 152709, Note_on_c, 0, 76, 85
2, 152714, Control_c, 0, 64, 101
2, 152729, Control_c, 0, 64, 103
2, 152744, Control_c, 0, 64, 105
2, 152759, Control_c, 0, 64, 105
2, 152774, Control_c, 0, 64, 106
2, 152805, Control_c, 0, 64, 106
2, 152828, Note_on_c, 0, 71, 0
2, 152882, Note_on_c, 0, 73, 90
2, 152885, Note_on_c, 0, 69, 84
2, 152889, Note_on_c, 0, 64, 72
2, 152903, Note_on_c, 0, 69, 0
2, 152908, Note_on_c, 0, 76, 0
2, 152912, Note_on_c, 0, 67, 0
2, 152915, Note_on_c, 0, 64, 0
2, 152957, Control_c, 0, 64, 107
2, 152959, Note_on_c, 0, 73, 0
2, 153132, Control_c, 0, 64, 106
2, 153148, Control_c, 0, 64, 104
2, 153163, Control_c, 0, 64, 99
2, 153166, Note_on_c, 0, 69, 77
2, 153166, Note_on_c, 0, 73, 87
2, 153167, Note_on_c, 0, 55, 78
2, 153167, Note_on_c, 0, 64, 83
2, 153173, Note_on_c, 0, 43, 82
2, 153179, Control_c, 0, 64, 88
2, 153193, Control_c, 0, 64, 73
2, 153208, Control_c, 0, 64, 0
2, 153330, Control_c, 0, 64, 26
2, 153345, Control_c, 0, 64, 61
2, 153360, Control_c, 0, 64, 66
2, 153375, Control_c, 0, 64, 70
2, 153391, Control_c, 0, 64, 75
2, 153406, Control_c, 0, 64, 80
2, 153422, Control_c, 0, 64, 82
2, 153437, Control_c, 0, 64, 84
2, 153450, Control_c, 0, 64, 85
2, 153465, Control_c, 0, 64, 85
2, 153480, Control_c, 0, 64, 86
2, 153495, Control_c, 0, 64, 87
2, 153525, Control_c, 0, 64, 87
2, 153540, Control_c, 0, 64, 88
2, 153556, Control_c, 0, 64, 88
2, 153601, Control_c, 0, 64, 89
2, 153632, Control_c, 0, 64, 89
2, 153661, Control_c, 0, 64, 90
2, 153669, Note_on_c, 0, 64, 0
2, 153678, Note_on_c, 0, 43, 0
2, 153692, Control_c, 0, 64, 90
2, 153722, Control_c, 0, 64, 91
2, 153737, Control_c, 0, 64, 91
2, 153737, Note_on_c, 0, 69, 0
2, 153804, Note_on_c, 0, 73, 0
2, 154141, Control_c, 0, 64, 91
2, 154159, Note_on_c, 0, 55, 0
2, 154172, Control_c, 0, 64, 90
2, 154180, Note_on_c, 0, 54, 48
2, 154187, Control_c, 0, 64, 89
2, 154192, Note_on_c, 0, 69, 54
2, 154195, Note_on_c, 0, 74, 57
2, 154200, Note_on_c, 0, 66, 49
2, 154202, Control_c, 0, 64, 87
2, 154217, Control_c, 0, 64, 84
2, 154233, Control_c, 0, 64, 79
2, 154247, Control_c, 0, 64, 74
2, 154262, Control_c, 0, 64, 68
2, 154278, Control_c, 0, 64, 59
2, 154293, Control_c, 0, 64, 13
2, 154299, Note_on_c, 0, 54, 0
2, 154302, Note_on_c, 0, 55, 49
2, 154309, Control_c, 0, 64, 0
2, 154376, Note_on_c, 0, 55, 0
2, 154418, Note_on_c, 0, 57, 51
2, 154483, Note_on_c, 0, 57, 0
2, 154502, Note_on_c, 0, 55, 54
2, 154517, Note_on_c, 0, 66, 0
2, 154532, Note_on_c, 0, 69, 0
2, 154545, Note_on_c, 0, 74, 0
2, 154573, Note_on_c, 0, 54, 62
2, 154582, Note_on_c, 0, 55, 0
2, 154638, Note_on_c, 0, 54, 0
2, 154656, Note_on_c, 0, 52, 72
2, 154724, Note_on_c, 0, 52, 0
2, 154739, Note_on_c, 0, 50, 69
2, 154786, Note_on_c, 0, 49, 70
2, 154802, Note_on_c, 0, 69, 76
2, 154803, Note_on_c, 0, 66, 75
2, 154808, Note_on_c, 0, 74, 57
2, 154829, Note_on_c, 0, 50, 0
2, 154836, Note_on_c, 0, 66, 0
2, 154839, Note_on_c, 0, 74, 0
2, 154849, Note_on_c, 0, 69, 0
2, 154875, Note_on_c, 0, 49, 0
2, 154886, Note_on_c, 0, 47, 68
2, 154895, Note_on_c, 0, 66, 84
2, 154898, Note_on_c, 0, 74, 68
2, 154906, Note_on_c, 0, 71, 78
2, 154981, Note_on_c, 0, 49, 74
2, 154996, Note_on_c, 0, 47, 0
2, 155055, Note_on_c, 0, 49, 0
2, 155064, Note_on_c, 0, 50, 71
2, 155133, Note_on_c, 0, 49, 78
2, 155137, Note_on_c, 0, 71, 0
2, 155140, Control_c, 0, 64, 37
2, 155140, Note_on_c, 0, 66, 0
2, 155146, Note_on_c, 0, 74, 0
2, 155152, Note_on_c, 0, 50, 0
2, 155155, Control_c, 0, 64, 55
2, 155170, Control_c, 0, 64, 62
2, 155188, Control_c, 0, 64, 65
2, 155202, Control_c, 0, 64, 70
2, 155205, Note_on_c, 0, 47, 76
2, 155218, Control_c, 0, 64, 78
2, 155233, Control_c, 0, 64, 84
2, 155242, Note_on_c, 0, 49, 0
2, 155248, Control_c, 0, 64, 87
2, 155264, Control_c, 0, 64, 89
2, 155274, Note_on_c, 0, 45, 69
2, 155285, Note_on_c, 0, 47, 0
2, 155367, Note_on_c, 0, 45, 0
2, 155369, Note_on_c, 0, 47, 75
2, 155441, Note_on_c, 0, 67, 81
2, 155442, Note_on_c, 0, 76, 79
2, 155444, Note_on_c, 0, 71, 77
2, 155458, Note_on_c, 0, 43, 67
2, 155463, Note_on_c, 0, 67, 0
2, 155466, Note_on_c, 0, 71, 0
2, 155467, Note_on_c, 0, 47, 0
2, 155481, Note_on_c, 0, 76, 0
2, 155545, Control_c, 0, 64, 88
2, 155560, Control_c, 0, 64, 86
2, 155576, Control_c, 0, 64, 81
2, 155591, Control_c, 0, 64, 71
2, 155597, Note_on_c, 0, 74, 82
2, 155603, Note_on_c, 0, 69, 72
2, 155604, Note_on_c, 0, 45, 68
2, 155604, Note_on_c, 0, 64, 74
2, 155606, Control_c, 0, 64, 42
2, 155612, Note_on_c, 0, 43, 0
2, 155621, Control_c, 0, 64, 0
2, 155745, Note_on_c, 0, 73, 68
2, 155771, Note_on_c, 0, 74, 0
2, 155774, Note_on_c, 0, 69, 0
2, 155826, Note_on_c, 0, 73, 0
2, 155828, Note_on_c, 0, 71, 69
2, 155890, Note_on_c, 0, 73, 60
2, 155901, Note_on_c, 0, 71, 0
2, 155956, Note_on_c, 0, 74, 73
2, 155957, Note_on_c, 0, 73, 0
2, 156023, Note_on_c, 0, 73, 72
2, 156049, Note_on_c, 0, 74, 0
2, 156094, Note_on_c, 0, 73, 0
2, 156103, Note_on_c, 0, 74, 68
2, 156149, Note_on_c, 0, 73, 69
2, 156202, Note_on_c, 0, 74, 0
2, 156371, Control_c, 0, 64, 35
2, 156387, Control_c, 0, 64, 61
2, 156402, Control_c, 0, 64, 66
2, 156417, Control_c, 0, 64, 70
2, 156433, Control_c, 0, 64, 74
2, 156448, Control_c, 0, 64, 78
2, 156464, Control_c, 0, 64, 81
2, 156479, Control_c, 0, 64, 83
2, 156493, Control_c, 0, 64, 84
2, 156509, Control_c, 0, 64, 85
2, 156524, Control_c, 0, 64, 86
2, 156540, Control_c, 0, 64, 87
2, 156555, Control_c, 0, 64, 88
2, 156569, Control_c, 0, 64, 89
2, 156600, Control_c, 0, 64, 89
2, 156613, Note_on_c, 0, 45, 0
2, 156771, Note_on_c, 0, 74, 67
2, 156773, Note_on_c, 0, 45, 58
2, 156781, Note_on_c, 0, 64, 0
2, 156786, Note_on_c, 0, 73, 0
2, 156804, Note_on_c, 0, 45, 0
2, 156826, Note_on_c, 0, 74, 0
2, 156942, Control_c, 0, 64, 87
2, 156957, Control_c, 0, 64, 80
2, 156959, Note_on_c, 0, 74, 68
2, 156967, Note_on_c, 0, 66, 75
2, 156968, Note_on_c, 0, 69, 72
2, 156971, Control_c, 0, 64, 66
2, 156976, Note_on_c, 0, 38, 50
2, 156987, Control_c, 0, 64, 0
2, 157093, Control_c, 0, 64, 54
2, 157110, Control_c, 0, 64, 64
2, 157124, Control_c, 0, 64, 70
2, 157140, Control_c, 0, 64, 78
2, 157155, Control_c, 0, 64, 86
2, 157160, Note_on_c, 0, 38, 0
2, 157170, Control_c, 0, 64, 93
2, 157186, Control_c, 0, 64, 98
2, 157200, Control_c, 0, 64, 101
2, 157215, Control_c, 0, 64, 102
2, 157231, Control_c, 0, 64, 103
2, 157243, Note_on_c, 0, 74, 0
2, 157246, Control_c, 0, 64, 104
2, 157246, Note_on_c, 0, 66, 0
2, 157257, Note_on_c, 0, 69, 0
2, 157262, Control_c, 0, 64, 105
2, 157277, Control_c, 0, 64, 106
2, 157291, Control_c, 0, 64, 107
2, 157322, Control_c, 0, 64, 107
2, 157604, Note_on_c, 0, 50, 45
2, 157619, Control_c, 0, 64, 108
2, 157653, Note_on_c, 0, 52, 61
2, 157659, Note_on_c, 0, 50, 0
2, 157693, Note_on_c, 0, 54, 71
2, 157716, Note_on_c, 0, 52, 0
2, 157738, Control_c, 0, 64, 106
2, 157750, Note_on_c, 0, 55, 65
2, 157753, Control_c, 0, 64, 101
2, 157766, Note_on_c, 0, 71, 79
2, 157768, Control_c, 0, 64, 92
2, 157779, Note_on_c, 0, 54, 0
2, 157783, Control_c, 0, 64, 80
2, 157799, Control_c, 0, 64, 64
2, 157814, Control_c, 0, 64, 0
2, 157861, Note_on_c, 0, 73, 76
2, 157910, Note_on_c, 0, 71, 0
2, 157921, Control_c, 0, 64, 26
2, 157936, Control_c, 0, 64, 59
2, 157940, Note_on_c, 0, 74, 70
2, 157952, Control_c, 0, 64, 66
2, 157956, Note_on_c, 0, 73, 0
2, 157966, Control_c, 0, 64, 72
2, 157981, Control_c, 0, 64, 79
2, 157997, Control_c, 0, 64, 86
2, 158008, Note_on_c, 0, 74, 0
2, 158009, Note_on_c, 0, 76, 71
2, 158012, Control_c, 0, 64, 90
2, 158028, Control_c, 0, 64, 93
2, 158039, Note_on_c, 0, 55, 0
2, 158042, Control_c, 0, 64, 94
2, 158057, Control_c, 0, 64, 96
2, 158073, Control_c, 0, 64, 97
2, 158087, Note_on_c, 0, 74, 72
2, 158088, Control_c, 0, 64, 98
2, 158102, Control_c, 0, 64, 99
2, 158118, Control_c, 0, 64, 100
2, 158125, Note_on_c, 0, 76, 0
2, 158133, Control_c, 0, 64, 101
2, 158149, Control_c, 0, 64, 101
2, 158158, Note_on_c, 0, 74, 0
2, 158167, Note_on_c, 0, 73, 81
2, 158195, Control_c, 0, 64, 102
2, 158233, Note_on_c, 0, 74, 76
2, 158249, Note_on_c, 0, 73, 0
2, 158306, Note_on_c, 0, 71, 79
2, 158312, Note_on_c, 0, 74, 0
2, 158328, Note_on_c, 0, 71, 0
2, 158428, Note_on_c, 0, 76, 82
2, 158430, Control_c, 0, 64, 101
2, 158433, Note_on_c, 0, 71, 68
2, 158437, Note_on_c, 0, 49, 52
2, 158439, Note_on_c, 0, 64, 65
2, 158445, Control_c, 0, 64, 101
2, 158460, Control_c, 0, 64, 99
2, 158476, Control_c, 0, 64, 94
2, 158491, Control_c, 0, 64, 88
2, 158506, Control_c, 0, 64, 80
2, 158521, Control_c, 0, 64, 70
2, 158535, Note_on_c, 0, 50, 54
2, 158536, Control_c, 0, 64, 21
2, 158539, Note_on_c, 0, 49, 0
2, 158552, Control_c, 0, 64, 0
2, 158598, Note_on_c, 0, 50, 0
2, 158601, Note_on_c, 0, 52, 66
2, 158664, Note_on_c, 0, 52, 0
2, 158677, Note_on_c, 0, 54, 69
2, 158740, Note_on_c, 0, 52, 64
2, 158749, Note_on_c, 0, 54, 0
2, 158766, Note_on_c, 0, 64, 0
2, 158800, Note_on_c, 0, 52, 0
2, 158811, Note_on_c, 0, 50, 64
2, 158882, Note_on_c, 0, 50, 0
2, 158885, Note_on_c, 0, 52, 71
2, 158962, Note_on_c, 0, 52, 0
2, 158972, Note_on_c, 0, 49, 61
2, 158972, Note_on_c, 0, 76, 0
2, 159054, Note_on_c, 0, 71, 0
2, 159056, Note_on_c, 0, 49, 0
2, 159078, Note_on_c, 0, 54, 50
2, 159086, Note_on_c, 0, 69, 56
2, 159161, Note_on_c, 0, 69, 0
2, 159176, Note_on_c, 0, 71, 64
2, 159250, Note_on_c, 0, 71, 0
2, 159254, Note_on_c, 0, 73, 67
2, 159258, Control_c, 0, 64, 29
2, 159274, Control_c, 0, 64, 58
2, 159289, Control_c, 0, 64, 65
2, 159304, Control_c, 0, 64, 68
2, 159320, Control_c, 0, 64, 73
2, 159320, Note_on_c, 0, 73, 0
2, 159325, Note_on_c, 0, 74, 68
2, 159335, Control_c, 0, 64, 79
2, 159350, Control_c, 0, 64, 83
2, 159365, Control_c, 0, 64, 85
2, 159380, Control_c, 0, 64, 86
2, 159383, Note_on_c, 0, 54, 0
2, 159396, Control_c, 0, 64, 87
2, 159401, Note_on_c, 0, 73, 72
2, 159411, Control_c, 0, 64, 88
2, 159426, Control_c, 0, 64, 89
2, 159442, Note_on_c, 0, 74, 0
2, 159456, Control_c, 0, 64, 89
2, 159482, Note_on_c, 0, 73, 0
2, 159483, Note_on_c, 0, 71, 73
2, 159501, Control_c, 0, 64, 90
2, 159555, Note_on_c, 0, 73, 64
2, 159579, Note_on_c, 0, 71, 0
2, 159614, Note_on_c, 0, 69, 74
2, 159631, Note_on_c, 0, 73, 0
2, 159641, Note_on_c, 0, 69, 0
2, 159721, Note_on_c, 0, 47, 47
2, 159749, Note_on_c, 0, 69, 66
2, 159751, Note_on_c, 0, 74, 66
2, 159763, Note_on_c, 0, 62, 52
2, 159776, Control_c, 0, 64, 89
2, 159791, Control_c, 0, 64, 88
2, 159806, Control_c, 0, 64, 85
2, 159821, Control_c, 0, 64, 79
2, 159834, Note_on_c, 0, 49, 49
2, 159837, Control_c, 0, 64, 71
2, 159852, Control_c, 0, 64, 59
2, 159863, Note_on_c, 0, 47, 0
2, 159867, Control_c, 0, 64, 0
2, 159899, Note_on_c, 0, 49, 0
2, 159914, Note_on_c, 0, 50, 54
2, 159959, Note_on_c, 0, 50, 0
2, 159979, Note_on_c, 0, 52, 63
2, 160032, Note_on_c, 0, 62, 0
2, 160043, Note_on_c, 0, 52, 0
2, 160054, Note_on_c, 0, 50, 68
2, 160072, Control_c, 0, 64, 53
2, 160087, Control_c, 0, 64, 64
2, 160102, Control_c, 0, 64, 69
2, 160108, Note_on_c, 0, 50, 0
2, 160116, Note_on_c, 0, 49, 72
2, 160118, Control_c, 0, 64, 77
2, 160133, Control_c, 0, 64, 86
2, 160149, Control_c, 0, 64, 92
2, 160163, Control_c, 0, 64, 97
2, 160178, Control_c, 0, 64, 100
2, 160194, Control_c, 0, 64, 102
2, 160203, Note_on_c, 0, 50, 65
2, 160205, Note_on_c, 0, 49, 0
2, 160209, Control_c, 0, 64, 104
2, 160224, Control_c, 0, 64, 106
2, 160240, Control_c, 0, 64, 107
2, 160255, Control_c, 0, 64, 108
2, 160261, Note_on_c, 0, 47, 65
2, 160270, Control_c, 0, 64, 109
2, 160281, Note_on_c, 0, 50, 0
2, 160295, Note_on_c, 0, 47, 0
2, 160300, Control_c, 0, 64, 110
2, 160389, Note_on_c, 0, 74, 0
2, 160393, Control_c, 0, 64, 109
2, 160393, Note_on_c, 0, 69, 0
2, 160408, Control_c, 0, 64, 108
2, 160422, Control_c, 0, 64, 105
2, 160432, Note_on_c, 0, 67, 64
2, 160438, Control_c, 0, 64, 101
2, 160438, Note_on_c, 0, 52, 54
2, 160453, Control_c, 0, 64, 95
2, 160469, Control_c, 0, 64, 86
2, 160484, Control_c, 0, 64, 76
2, 160495, Note_on_c, 0, 54, 57
2, 160496, Note_on_c, 0, 52, 0
2, 160499, Control_c, 0, 64, 63
2, 160514, Control_c, 0, 64, 0
2, 160514, Note_on_c, 0, 69, 65
2, 160515, Note_on_c, 0, 67, 0
2, 160569, Note_on_c, 0, 54, 0
2, 160570, Note_on_c, 0, 55, 63
2, 160590, Note_on_c, 0, 69, 0
2, 160598, Note_on_c, 0, 71, 67
2, 160620, Note_on_c, 0, 55, 0
2, 160643, Note_on_c, 0, 57, 66
2, 160661, Note_on_c, 0, 71, 0
2, 160671, Note_on_c, 0, 72, 68
2, 160674, Control_c, 0, 64, 30
2, 160689, Control_c, 0, 64, 60
2, 160704, Control_c, 0, 64, 67
2, 160716, Note_on_c, 0, 57, 0
2, 160719, Control_c, 0, 64, 72
2, 160724, Note_on_c, 0, 55, 70
2, 160734, Control_c, 0, 64, 80
2, 160740, Note_on_c, 0, 71, 68
2, 160750, Control_c, 0, 64, 86
2, 160764, Control_c, 0, 64, 90
2, 160771, Note_on_c, 0, 72, 0
2, 160777, Note_on_c, 0, 55, 0
2, 160779, Control_c, 0, 64, 92
2, 160784, Note_on_c, 0, 54, 70
2, 160795, Control_c, 0, 64, 94
2, 160804, Note_on_c, 0, 71, 0
2, 160810, Control_c, 0, 64, 95
2, 160811, Note_on_c, 0, 69, 78
2, 160826, Control_c, 0, 64, 96
2, 160840, Control_c, 0, 64, 96
2, 160855, Control_c, 0, 64, 97
2, 160859, Note_on_c, 0, 54, 0
2, 160868, Note_on_c, 0, 55, 67
2, 160871, Control_c, 0, 64, 98
2, 160879, Note_on_c, 0, 71, 72
2, 160885, Control_c, 0, 64, 100
2, 160886, Note_on_c, 0, 69, 0
2, 160900, Control_c, 0, 64, 102
2, 160916, Control_c, 0, 64, 103
2, 160916, Note_on_c, 0, 52, 73
2, 160931, Control_c, 0, 64, 104
2, 160935, Note_on_c, 0, 71, 0
2, 160937, Note_on_c, 0, 67, 79
2, 160947, Control_c, 0, 64, 105
2, 160948, Note_on_c, 0, 55, 0
2, 160953, Note_on_c, 0, 52, 0
2, 160959, Note_on_c, 0, 67, 0
2, 160961, Control_c, 0, 64, 105
2, 160992, Control_c, 0, 64, 105
2, 161007, Control_c, 0, 64, 103
2, 161022, Control_c, 0, 64, 99
2, 161037, Control_c, 0, 64, 91
2, 161041, Note_on_c, 0, 73, 81
2, 161050, Note_on_c, 0, 57, 64
2, 161052, Control_c, 0, 64, 79
2, 161068, Control_c, 0, 64, 65
2, 161083, Control_c, 0, 64, 0
2, 161094, Note_on_c, 0, 59, 67
2, 161102, Note_on_c, 0, 74, 72
2, 161128, Note_on_c, 0, 57, 0
2, 161165, Note_on_c, 0, 73, 0
2, 161166, Note_on_c, 0, 61, 74
2, 161184, Note_on_c, 0, 59, 0
2, 161188, Note_on_c, 0, 76, 78
2, 161206, Note_on_c, 0, 74, 0
2, 161245, Note_on_c, 0, 61, 0
2, 161252, Note_on_c, 0, 62, 75
2, 161257, Note_on_c, 0, 78, 76
2, 161260, Note_on_c, 0, 76, 0
2, 161281, Control_c, 0, 64, 55
2, 161296, Control_c, 0, 64, 63
2, 161312, Control_c, 0, 64, 68
2, 161318, Note_on_c, 0, 61, 76
2, 161327, Control_c, 0, 64, 74
2, 161332, Note_on_c, 0, 62, 0
2, 161334, Note_on_c, 0, 76, 78
2, 161341, Control_c, 0, 64, 82
2, 161357, Control_c, 0, 64, 88
2, 161372, Control_c, 0, 64, 92
2, 161381, Note_on_c, 0, 78, 0
2, 161388, Control_c, 0, 64, 96
2, 161390, Note_on_c, 0, 59, 77
2, 161395, Note_on_c, 0, 61, 0
2, 161402, Control_c, 0, 64, 100
2, 161410, Note_on_c, 0, 74, 79
2, 161411, Note_on_c, 0, 76, 0
2, 161426, Control_c, 0, 64, 102
2, 161441, Control_c, 0, 64, 105
2, 161456, Control_c, 0, 64, 106
2, 161472, Control_c, 0, 64, 107
2, 161476, Note_on_c, 0, 59, 0
2, 161477, Note_on_c, 0, 61, 74
2, 161486, Control_c, 0, 64, 109
2, 161489, Note_on_c, 0, 76, 79
2, 161501, Control_c, 0, 64, 109
2, 161502, Note_on_c, 0, 74, 0
2, 161517, Control_c, 0, 64, 110
2, 161531, Control_c, 0, 64, 110
2, 161534, Note_on_c, 0, 57, 75
2, 161559, Note_on_c, 0, 73, 88
2, 161560, Note_on_c, 0, 76, 0
2, 161569, Note_on_c, 0, 61, 0
2, 161574, Note_on_c, 0, 57, 0
2, 161596, Note_on_c, 0, 73, 0
2, 161638, Control_c, 0, 64, 110
2, 161653, Control_c, 0, 64, 108
2, 161664, Note_on_c, 0, 78, 87
2, 161668, Note_on_c, 0, 62, 75
2, 161669, Control_c, 0, 64, 104
2, 161683, Control_c, 0, 64, 96
2, 161698, Control_c, 0, 64, 86
2, 161714, Control_c, 0, 64, 73
2, 161727, Note_on_c, 0, 64, 67
2, 161728, Control_c, 0, 64, 0
2, 161735, Note_on_c, 0, 78, 0
2, 161735, Note_on_c, 0, 79, 81
2, 161758, Note_on_c, 0, 62, 0
2, 161797, Note_on_c, 0, 66, 79
2, 161814, Note_on_c, 0, 81, 80
2, 161830, Note_on_c, 0, 64, 0
2, 161837, Note_on_c, 0, 79, 0
2, 161886, Note_on_c, 0, 66, 0
2, 161891, Note_on_c, 0, 67, 73
2, 161899, Note_on_c, 0, 83, 73
2, 161900, Note_on_c, 0, 81, 0
2, 161969, Note_on_c, 0, 66, 78
2, 161976, Note_on_c, 0, 81, 80
2, 161983, Note_on_c, 0, 67, 0
2, 162019, Note_on_c, 0, 83, 0
2, 162039, Note_on_c, 0, 79, 82
2, 162044, Note_on_c, 0, 64, 75
2, 162047, Note_on_c, 0, 66, 0
2, 162050, Note_on_c, 0, 81, 0
2, 162117, Note_on_c, 0, 64, 0
2, 162120, Note_on_c, 0, 66, 82
2, 162120, Note_on_c, 0, 81, 85
2, 162135, Note_on_c, 0, 79, 0
2, 162200, Note_on_c, 0, 66, 0
2, 162201, Note_on_c, 0, 78, 90
2, 162212, Note_on_c, 0, 62, 71
2, 162251, Note_on_c, 0, 81, 0
2, 162307, Note_on_c, 0, 62, 0
2, 162330, Note_on_c, 0, 83, 85
2, 162334, Note_on_c, 0, 78, 0
2, 162337, Note_on_c, 0, 67, 71
2, 162497, Control_c, 0, 64, 37
2, 162513, Control_c, 0, 64, 62
2, 162527, Control_c, 0, 64, 67
2, 162542, Control_c, 0, 64, 72
2, 162558, Control_c, 0, 64, 79
2, 162573, Control_c, 0, 64, 87
2, 162588, Control_c, 0, 64, 91
2, 162603, Control_c, 0, 64, 95
2, 162609, Note_on_c, 0, 83, 0
2, 162618, Control_c, 0, 64, 99
2, 162634, Control_c, 0, 64, 102
2, 162649, Control_c, 0, 64, 106
2, 162649, Note_on_c, 0, 67, 0
2, 162664, Control_c, 0, 64, 109
2, 162680, Control_c, 0, 64, 113
2, 162695, Control_c, 0, 64, 115
2, 162710, Control_c, 0, 64, 117
2, 162725, Control_c, 0, 64, 118
2, 162740, Control_c, 0, 64, 118
2, 163084, Note_on_c, 0, 73, 67
2, 163085, Note_on_c, 0, 64, 65
2, 163089, Note_on_c, 0, 55, 59
2, 163116, Note_on_c, 0, 64, 0
2, 163120, Note_on_c, 0, 55, 0
2, 163160, Control_c, 0, 64, 118
2, 163162, Note_on_c, 0, 73, 0
2, 163174, Control_c, 0, 64, 115
2, 163190, Control_c, 0, 64, 109
2, 163201, Note_on_c, 0, 74, 68
2, 163205, Control_c, 0, 64, 101
2, 163208, Note_on_c, 0, 66, 66
2, 163212, Note_on_c, 0, 69, 31
2, 163215, Note_on_c, 0, 54, 58
2, 163219, Control_c, 0, 64, 90
2, 163235, Control_c, 0, 64, 77
2, 163250, Control_c, 0, 64, 55
2, 163266, Control_c, 0, 64, 0
2, 163371, Control_c, 0, 64, 23
2, 163387, Control_c, 0, 64, 58
2, 163402, Control_c, 0, 64, 66
2, 163417, Control_c, 0, 64, 71
2, 163432, Control_c, 0, 64, 79
2, 163447, Control_c, 0, 64, 88
2, 163462, Control_c, 0, 64, 93
2, 163462, Note_on_c, 0, 74, 0
2, 163478, Control_c, 0, 64, 96
2, 163493, Control_c, 0, 64, 99
2, 163509, Control_c, 0, 64, 101
2, 163515, Note_on_c, 0, 66, 0
2, 163517, Note_on_c, 0, 69, 0
2, 163524, Control_c, 0, 64, 103
2, 163538, Control_c, 0, 64, 106
2, 163554, Control_c, 0, 64, 108
2, 163554, Note_on_c, 0, 54, 0
2, 163569, Control_c, 0, 64, 109
2, 163584, Control_c, 0, 64, 110
2, 163600, Control_c, 0, 64, 110
2, 163915, Note_on_c, 0, 76, 71
2, 163918, Note_on_c, 0, 67, 63
2, 163919, Note_on_c, 0, 73, 72
2, 163932, Note_on_c, 0, 52, 52
2, 163936, Note_on_c, 0, 67, 0
2, 163958, Note_on_c, 0, 52, 0
2, 163962, Note_on_c, 0, 73, 0
2, 163963, Note_on_c, 0, 76, 0
2, 163973, Control_c, 0, 64, 109
2, 163988, Control_c, 0, 64, 104
2, 164003, Control_c, 0, 64, 97
2, 164008, Note_on_c, 0, 74, 79
2, 164012, Note_on_c, 0, 78, 87
2, 164014, Note_on_c, 0, 50, 64
2, 164018, Control_c, 0, 64, 87
2, 164022, Note_on_c, 0, 69, 72
2, 164034, Control_c, 0, 64, 75
2, 164049, Control_c, 0, 64, 51
2, 164063, Control_c, 0, 64, 0
2, 164155, Control_c, 0, 64, 23
2, 164170, Control_c, 0, 64, 56
2, 164184, Control_c, 0, 64, 65
2, 164200, Control_c, 0, 64, 70
2, 164215, Control_c, 0, 64, 76
2, 164231, Control_c, 0, 64, 85
2, 164246, Control_c, 0, 64, 90
2, 164260, Control_c, 0, 64, 93
2, 164270, Note_on_c, 0, 78, 0
2, 164276, Control_c, 0, 64, 96
2, 164291, Control_c, 0, 64, 98
2, 164307, Control_c, 0, 64, 100
2, 164318, Note_on_c, 0, 74, 0
2, 164322, Control_c, 0, 64, 101
2, 164322, Note_on_c, 0, 69, 0
2, 164337, Control_c, 0, 64, 102
2, 164352, Control_c, 0, 64, 102
2, 164357, Note_on_c, 0, 50, 0
2, 164367, Control_c, 0, 64, 103
2, 164382, Control_c, 0, 64, 104
2, 164429, Control_c, 0, 64, 104
2, 164751, Note_on_c, 0, 48, 54
2, 164753, Note_on_c, 0, 66, 66
2, 164754, Note_on_c, 0, 57, 55
2, 164779, Note_on_c, 0, 62, 40
2, 164780, Note_on_c, 0, 57, 0
2, 164787, Note_on_c, 0, 48, 0
2, 164802, Control_c, 0, 64, 104
2, 164811, Note_on_c, 0, 62, 0
2, 164816, Control_c, 0, 64, 103
2, 164819, Note_on_c, 0, 66, 0
2, 164832, Control_c, 0, 64, 101
2, 164847, Control_c, 0, 64, 97
2, 164862, Control_c, 0, 64, 91
2, 164878, Control_c, 0, 64, 82
2, 164892, Note_on_c, 0, 47, 59
2, 164893, Control_c, 0, 64, 71
2, 164894, Note_on_c, 0, 67, 69
2, 164897, Note_on_c, 0, 62, 65
2, 164904, Note_on_c, 0, 59, 58
2, 164908, Control_c, 0, 64, 36
2, 164923, Control_c, 0, 64, 0
2, 165044, Control_c, 0, 64, 53
2, 165059, Control_c, 0, 64, 64
2, 165075, Control_c, 0, 64, 68
2, 165090, Control_c, 0, 64, 74
2, 165104, Control_c, 0, 64, 81
2, 165120, Control_c, 0, 64, 87
2, 165135, Control_c, 0, 64, 91
2, 165151, Control_c, 0, 64, 93
2, 165165, Control_c, 0, 64, 95
2, 165180, Control_c, 0, 64, 96
2, 165190, Note_on_c, 0, 59, 0
2, 165196, Control_c, 0, 64, 96
2, 165197, Note_on_c, 0, 47, 0
2, 165213, Note_on_c, 0, 67, 0
2, 165217, Note_on_c, 0, 62, 0
2, 165242, Control_c, 0, 64, 97
2, 165608, Note_on_c, 0, 60, 67
2, 165608, Note_on_c, 0, 69, 68
2, 165611, Note_on_c, 0, 66, 68
2, 165622, Note_on_c, 0, 45, 59
2, 165638, Note_on_c, 0, 60, 0
2, 165655, Note_on_c, 0, 45, 0
2, 165660, Note_on_c, 0, 66, 0
2, 165673, Note_on_c, 0, 69, 0
2, 165716, Note_on_c, 0, 71, 79
2, 165718, Note_on_c, 0, 62, 81
2, 165722, Control_c, 0, 64, 96
2, 165722, Note_on_c, 0, 67, 78
2, 165726, Note_on_c, 0, 43, 62
2, 165737, Control_c, 0, 64, 92
2, 165753, Control_c, 0, 64, 85
2, 165767, Control_c, 0, 64, 74
2, 165782, Control_c, 0, 64, 60
2, 165798, Control_c, 0, 64, 0
2, 165935, Control_c, 0, 64, 56
2, 165950, Control_c, 0, 64, 65
2, 165965, Control_c, 0, 64, 70
2, 165980, Control_c, 0, 64, 77
2, 165996, Control_c, 0, 64, 84
2, 166010, Control_c, 0, 64, 87
2, 166034, Control_c, 0, 64, 90
2, 166049, Control_c, 0, 64, 91
2, 166064, Control_c, 0, 64, 93
2, 166078, Note_on_c, 0, 71, 0
2, 166080, Control_c, 0, 64, 95
2, 166094, Control_c, 0, 64, 96
2, 166110, Control_c, 0, 64, 97
2, 166115, Note_on_c, 0, 67, 0
2, 166120, Note_on_c, 0, 62, 0
2, 166125, Control_c, 0, 64, 99
2, 166140, Control_c, 0, 64, 100
2, 166153, Note_on_c, 0, 43, 0
2, 166156, Control_c, 0, 64, 101
2, 166171, Control_c, 0, 64, 101
2, 166217, Control_c, 0, 64, 102
2, 166474, Note_on_c, 0, 42, 65
2, 166475, Note_on_c, 0, 62, 76
2, 166481, Note_on_c, 0, 67, 73
2, 166482, Note_on_c, 0, 71, 68
2, 166504, Control_c, 0, 64, 102
2, 166512, Note_on_c, 0, 62, 0
2, 166537, Note_on_c, 0, 42, 0
2, 166566, Note_on_c, 0, 67, 0
2, 166600, Note_on_c, 0, 71, 0
2, 166661, Note_on_c, 0, 40, 66
2, 166663, Note_on_c, 0, 69, 75
2, 166663, Note_on_c, 0, 73, 77
2, 166670, Note_on_c, 0, 64, 78
2, 166672, Control_c, 0, 64, 100
2, 166687, Control_c, 0, 64, 91
2, 166702, Control_c, 0, 64, 78
2, 166717, Control_c, 0, 64, 62
2, 166732, Control_c, 0, 64, 0
2, 166832, Control_c, 0, 64, 54
2, 166847, Control_c, 0, 64, 65
2, 166861, Control_c, 0, 64, 70
2, 166877, Control_c, 0, 64, 78
2, 166892, Control_c, 0, 64, 87
2, 166908, Control_c, 0, 64, 92
2, 166923, Control_c, 0, 64, 97
2, 166938, Control_c, 0, 64, 100
2, 166954, Control_c, 0, 64, 103
2, 166969, Control_c, 0, 64, 106
2, 166984, Control_c, 0, 64, 110
2, 167000, Control_c, 0, 64, 112
2, 167015, Control_c, 0, 64, 114
2, 167015, Note_on_c, 0, 64, 0
2, 167030, Control_c, 0, 64, 115
2, 167034, Note_on_c, 0, 73, 0
2, 167045, Control_c, 0, 64, 116
2, 167070, Note_on_c, 0, 40, 0
2, 167072, Note_on_c, 0, 69, 0
2, 167400, Note_on_c, 0, 74, 71
2, 167406, Note_on_c, 0, 66, 80
2, 167411, Note_on_c, 0, 69, 74
2, 167413, Note_on_c, 0, 38, 57
2, 167473, Note_on_c, 0, 66, 0
2, 167476, Note_on_c, 0, 74, 0
2, 167489, Note_on_c, 0, 69, 0
2, 167519, Note_on_c, 0, 38, 0
2, 167614, Control_c, 0, 64, 116
2, 167798, Control_c, 0, 64, 117
2, 167858, Control_c, 0, 64, 116
2, 167873, Note_on_c, 0, 66, 78
2, 167874, Control_c, 0, 64, 115
2, 167878, Note_on_c, 0, 57, 70
2, 167881, Note_on_c, 0, 62, 76
2, 167884, Note_on_c, 0, 45, 63
2, 167889, Control_c, 0, 64, 109
2, 167904, Control_c, 0, 64, 101
2, 167920, Control_c, 0, 64, 89
2, 167934, Control_c, 0, 64, 76
2, 167950, Control_c, 0, 64, 61
2, 167965, Control_c, 0, 64, 0
2, 168236, Control_c, 0, 64, 18
2, 168251, Control_c, 0, 64, 26
2, 168266, Control_c, 0, 64, 35
2, 168282, Control_c, 0, 64, 44
2, 168297, Control_c, 0, 64, 51
2, 168313, Control_c, 0, 64, 55
2, 168327, Control_c, 0, 64, 58
2, 168349, Control_c, 0, 64, 60
2, 168365, Control_c, 0, 64, 64
2, 168380, Control_c, 0, 64, 66
2, 168396, Control_c, 0, 64, 69
2, 168410, Control_c, 0, 64, 73
2, 168425, Control_c, 0, 64, 76
2, 168441, Control_c, 0, 64, 78
2, 168456, Control_c, 0, 64, 79
2, 168471, Control_c, 0, 64, 81
2, 168486, Control_c, 0, 64, 82
2, 168501, Control_c, 0, 64, 83
2, 168517, Control_c, 0, 64, 84
2, 168532, Control_c, 0, 64, 85
2, 168547, Control_c, 0, 64, 86
2, 168563, Control_c, 0, 64, 86
2, 168578, Control_c, 0, 64, 87
2, 168594, Control_c, 0, 64, 87
2, 168609, Control_c, 0, 64, 88
2, 168624, Control_c, 0, 64, 88
2, 168640, Control_c, 0, 64, 89
2, 168669, Control_c, 0, 64, 89
2, 168716, Control_c, 0, 64, 90
2, 168807, Note_on_c, 0, 66, 0
2, 168816, Note_on_c, 0, 57, 0
2, 168863, Note_on_c, 0, 62, 0
2, 169093, Control_c, 0, 64, 89
2, 169131, Control_c, 0, 64, 89
2, 169162, Control_c, 0, 64, 88
2, 169177, Control_c, 0, 64, 87
2, 169191, Control_c, 0, 64, 86
2, 169198, Note_on_c, 0, 61, 46
2, 169206, Note_on_c, 0, 66, 51
2, 169207, Control_c, 0, 64, 85
2, 169214, Note_on_c, 0, 55, 40
2, 169222, Control_c, 0, 64, 84
2, 169237, Control_c, 0, 64, 82
2, 169253, Control_c, 0, 64, 81
2, 169267, Control_c, 0, 64, 78
2, 169283, Control_c, 0, 64, 75
2, 169298, Control_c, 0, 64, 71
2, 169312, Control_c, 0, 64, 65
2, 169328, Control_c, 0, 64, 52
2, 169343, Control_c, 0, 64, 0
2, 169372, Note_on_c, 0, 66, 0
2, 169398, Note_on_c, 0, 64, 56
2, 169456, Note_on_c, 0, 64, 0
2, 169491, Note_on_c, 0, 66, 62
2, 169530, Note_on_c, 0, 66, 0
2, 169533, Note_on_c, 0, 64, 60
2, 169596, Note_on_c, 0, 64, 0
2, 169601, Note_on_c, 0, 66, 72
2, 169659, Note_on_c, 0, 64, 58
2, 169675, Note_on_c, 0, 66, 0
2, 169716, Note_on_c, 0, 66, 54
2, 169734, Note_on_c, 0, 64, 0
2, 169746, Note_on_c, 0, 64, 51
2, 169786, Note_on_c, 0, 66, 0
2, 170553, Control_c, 0, 64, 20
2, 170569, Control_c, 0, 64, 36
2, 170583, Control_c, 0, 64, 45
2, 170598, Control_c, 0, 64, 54
2, 170614, Control_c, 0, 64, 58
2, 170636, Control_c, 0, 64, 60
2, 170652, Control_c, 0, 64, 62
2, 170667, Control_c, 0, 64, 64
2, 170683, Control_c, 0, 64, 65
2, 170698, Control_c, 0, 64, 66
2, 170712, Control_c, 0, 64, 68
2, 170728, Control_c, 0, 64, 69
2, 170743, Control_c, 0, 64, 71
2, 170758, Control_c, 0, 64, 72
2, 170774, Control_c, 0, 64, 74
2, 170788, Control_c, 0, 64, 76
2, 170804, Control_c, 0, 64, 77
2, 170819, Control_c, 0, 64, 77
2, 170834, Control_c, 0, 64, 78
2, 170850, Control_c, 0, 64, 78
2, 170864, Control_c, 0, 64, 79
2, 170880, Control_c, 0, 64, 80
2, 170895, Control_c, 0, 64, 81
2, 170910, Control_c, 0, 64, 82
2, 170925, Control_c, 0, 64, 83
2, 170940, Control_c, 0, 64, 84
2, 170955, Control_c, 0, 64, 86
2, 170971, Control_c, 0, 64, 86
2, 170986, Control_c, 0, 64, 87
2, 170994, Note_on_c, 0, 62, 67
2, 171001, Control_c, 0, 64, 87
2, 171007, Note_on_c, 0, 64, 0
2, 171025, Note_on_c, 0, 55, 0
2, 171032, Control_c, 0, 64, 88
2, 171044, Note_on_c, 0, 61, 0
2, 171055, Note_on_c, 0, 62, 0
2, 171124, Control_c, 0, 64, 88
2, 171147, Note_on_c, 0, 45, 0
2, 171798, Note_on_c, 0, 54, 39
2, 171856, Note_on_c, 0, 57, 51
2, 171872, Note_on_c, 0, 38, 31
2, 171876, Control_c, 0, 64, 87
2, 171892, Control_c, 0, 64, 85
2, 171907, Control_c, 0, 64, 80
2, 171923, Control_c, 0, 64, 74
2, 171924, Note_on_c, 0, 62, 53
2, 171938, Control_c, 0, 64, 66
2, 171952, Control_c, 0, 64, 48
2, 171968, Control_c, 0, 64, 0
2, 176970, Note_on_c, 0, 54, 0
2, 176977, Note_on_c, 0, 62, 0
2, 176980, Note_on_c, 0, 57, 0
2, 176982, Note_on_c, 0, 38, 0
2, 176983, End_track
0, 0, End_of_file
