0, 0, Header, 1, 2, 384
1, 0, Start_track
1, 0, Tempo, 500000
1, 0, Time_signature, 4, 2, 24, 8
1, 1, End_track
2, 0, Start_track
2, 0, Program_c, 0, 0
2, 0, Control_c, 0, 64, 50
2, 773, Note_on_c, 0, 49, 42
2, 779, Note_on_c, 0, 77, 59
2, 850, Note_on_c, 0, 77, 0
2, 855, Note_on_c, 0, 73, 63
2, 920, Note_on_c, 0, 73, 0
2, 958, Note_on_c, 0, 68, 53
2, 1050, Note_on_c, 0, 73, 63
2, 1053, Note_on_c, 0, 68, 0
2, 1120, Note_on_c, 0, 73, 0
2, 1127, Note_on_c, 0, 61, 42
2, 1132, Note_on_c, 0, 49, 0
2, 1136, Note_on_c, 0, 77, 67
2, 1158, Note_on_c, 0, 61, 0
2, 1200, Note_on_c, 0, 77, 0
2, 1202, Note_on_c, 0, 73, 53
2, 1284, Note_on_c, 0, 73, 0
2, 1296, Note_on_c, 0, 78, 64
2, 1298, Note_on_c, 0, 51, 53
2, 1378, Note_on_c, 0, 78, 0
2, 1398, Note_on_c, 0, 73, 65
2, 1451, Note_on_c, 0, 73, 0
2, 1474, Note_on_c, 0, 78, 72
2, 1539, Note_on_c, 0, 51, 0
2, 1543, Note_on_c, 0, 78, 0
2, 1564, Note_on_c, 0, 73, 64
2, 1617, Note_on_c, 0, 73, 0
2, 1629, Note_on_c, 0, 78, 75
2, 1651, Note_on_c, 0, 61, 55
2, 1687, Note_on_c, 0, 61, 0
2, 1703, Note_on_c, 0, 78, 0
2, 1725, Note_on_c, 0, 73, 68
2, 1796, Note_on_c, 0, 73, 0
2, 1811, Note_on_c, 0, 80, 78
2, 1818, Control_c, 0, 64, 50
2, 1821, Note_on_c, 0, 53, 57
2, 1893, Note_on_c, 0, 80, 0
2, 1901, Note_on_c, 0, 73, 65
2, 1967, Note_on_c, 0, 73, 0
2, 1980, Note_on_c, 0, 80, 86
2, 2031, Note_on_c, 0, 53, 0
2, 2063, Note_on_c, 0, 80, 0
2, 2078, Note_on_c, 0, 73, 66
2, 2121, Note_on_c, 0, 73, 0
2, 2142, Note_on_c, 0, 80, 83
2, 2157, Note_on_c, 0, 61, 56
2, 2197, Note_on_c, 0, 61, 0
2, 2220, Note_on_c, 0, 73, 73
2, 2225, Note_on_c, 0, 80, 0
2, 2307, Note_on_c, 0, 73, 0
2, 2320, Note_on_c, 0, 82, 80
2, 2324, Note_on_c, 0, 54, 61
2, 2381, Control_c, 0, 64, 49
2, 2409, Note_on_c, 0, 82, 0
2, 2412, Note_on_c, 0, 73, 70
2, 2478, Note_on_c, 0, 73, 0
2, 2479, Note_on_c, 0, 82, 82
2, 2537, Note_on_c, 0, 54, 0
2, 2577, Note_on_c, 0, 82, 0
2, 2586, Note_on_c, 0, 73, 72
2, 2617, Control_c, 0, 64, 49
2, 2649, Note_on_c, 0, 73, 0
2, 2664, Note_on_c, 0, 82, 81
2, 2684, Note_on_c, 0, 61, 50
2, 2729, Note_on_c, 0, 61, 0
2, 2757, Note_on_c, 0, 73, 66
2, 2757, Note_on_c, 0, 82, 0
2, 2834, Note_on_c, 0, 73, 0
2, 2852, Note_on_c, 0, 53, 66
2, 2854, Note_on_c, 0, 80, 70
2, 2860, Control_c, 0, 64, 48
2, 2922, Note_on_c, 0, 80, 0
2, 2929, Note_on_c, 0, 73, 62
2, 3008, Note_on_c, 0, 73, 0
2, 3023, Note_on_c, 0, 80, 70
2, 3049, Note_on_c, 0, 53, 0
2, 3091, Note_on_c, 0, 80, 0
2, 3101, Note_on_c, 0, 73, 62
2, 3157, Note_on_c, 0, 73, 0
2, 3192, Note_on_c, 0, 80, 62
2, 3200, Note_on_c, 0, 61, 49
2, 3234, Note_on_c, 0, 80, 0
2, 3243, Note_on_c, 0, 61, 0
2, 3272, Note_on_c, 0, 73, 61
2, 3384, Note_on_c, 0, 51, 57
2, 3385, Note_on_c, 0, 73, 0
2, 3390, Note_on_c, 0, 78, 61
2, 3472, Note_on_c, 0, 77, 66
2, 3481, Note_on_c, 0, 78, 0
2, 3551, Note_on_c, 0, 77, 0
2, 3552, Control_c, 0, 64, 48
2, 3561, Note_on_c, 0, 75, 73
2, 3564, Note_on_c, 0, 51, 0
2, 3634, Note_on_c, 0, 75, 0
2, 3639, Note_on_c, 0, 77, 72
2, 3723, Note_on_c, 0, 78, 67
2, 3727, Note_on_c, 0, 77, 0
2, 3735, Note_on_c, 0, 60, 49
2, 3781, Note_on_c, 0, 60, 0
2, 3797, Note_on_c, 0, 75, 71
2, 3801, Note_on_c, 0, 78, 0
2, 3885, Note_on_c, 0, 75, 0
2, 3900, Note_on_c, 0, 77, 66
2, 3902, Note_on_c, 0, 49, 57
2, 3989, Note_on_c, 0, 77, 0
2, 3996, Note_on_c, 0, 75, 70
2, 4012, Note_on_c, 0, 49, 0
2, 4072, Note_on_c, 0, 75, 0
2, 4092, Note_on_c, 0, 73, 71
2, 4168, Control_c, 0, 64, 48
2, 4173, Note_on_c, 0, 75, 64
2, 4176, Note_on_c, 0, 73, 0
2, 4260, Control_c, 0, 64, 50
2, 4261, Note_on_c, 0, 61, 71
2, 4262, Note_on_c, 0, 75, 0
2, 4264, Note_on_c, 0, 77, 64
2, 4275, Control_c, 0, 64, 52
2, 4291, Control_c, 0, 64, 57
2, 4306, Control_c, 0, 64, 63
2, 4319, Control_c, 0, 64, 71
2, 4335, Control_c, 0, 64, 83
2, 4338, Note_on_c, 0, 73, 66
2, 4343, Note_on_c, 0, 77, 0
2, 4350, Control_c, 0, 64, 127
2, 4425, Note_on_c, 0, 75, 70
2, 4433, Note_on_c, 0, 61, 0
2, 4441, Note_on_c, 0, 73, 0
2, 4501, Note_on_c, 0, 75, 0
2, 4521, Note_on_c, 0, 77, 69
2, 4579, Control_c, 0, 64, 107
2, 4594, Control_c, 0, 64, 97
2, 4594, Note_on_c, 0, 60, 45
2, 4607, Note_on_c, 0, 75, 72
2, 4609, Control_c, 0, 64, 89
2, 4624, Control_c, 0, 64, 82
2, 4634, Note_on_c, 0, 77, 0
2, 4639, Control_c, 0, 64, 75
2, 4654, Control_c, 0, 64, 67
2, 4658, Note_on_c, 0, 60, 0
2, 4669, Control_c, 0, 64, 63
2, 4684, Control_c, 0, 64, 58
2, 4688, Note_on_c, 0, 58, 59
2, 4695, Note_on_c, 0, 73, 69
2, 4697, Note_on_c, 0, 75, 0
2, 4700, Control_c, 0, 64, 58
2, 4745, Control_c, 0, 64, 56
2, 4747, Note_on_c, 0, 58, 0
2, 4751, Note_on_c, 0, 73, 0
2, 4759, Note_on_c, 0, 56, 60
2, 4760, Control_c, 0, 64, 54
2, 4775, Control_c, 0, 64, 51
2, 4775, Note_on_c, 0, 72, 63
2, 4790, Control_c, 0, 64, 49
2, 4805, Control_c, 0, 64, 49
2, 4815, Note_on_c, 0, 72, 0
2, 4837, Note_on_c, 0, 56, 0
2, 4863, Note_on_c, 0, 70, 68
2, 4872, Note_on_c, 0, 58, 58
2, 4922, Note_on_c, 0, 70, 0
2, 4924, Note_on_c, 0, 58, 0
2, 4955, Note_on_c, 0, 68, 59
2, 4964, Note_on_c, 0, 60, 55
2, 5026, Note_on_c, 0, 60, 0
2, 5040, Note_on_c, 0, 56, 51
2, 5042, Control_c, 0, 64, 48
2, 5073, Control_c, 0, 64, 48
2, 5096, Note_on_c, 0, 56, 0
2, 5117, Note_on_c, 0, 51, 59
2, 5118, Control_c, 0, 64, 47
2, 5142, Note_on_c, 0, 68, 0
2, 5221, Note_on_c, 0, 51, 0
2, 5226, Note_on_c, 0, 56, 50
2, 5261, Note_on_c, 0, 56, 0
2, 5283, Note_on_c, 0, 80, 60
2, 5296, Note_on_c, 0, 60, 58
2, 5316, Note_on_c, 0, 80, 0
2, 5338, Note_on_c, 0, 60, 0
2, 5361, Note_on_c, 0, 56, 52
2, 5435, Note_on_c, 0, 56, 0
2, 5453, Control_c, 0, 64, 47
2, 5457, Note_on_c, 0, 70, 69
2, 5471, Note_on_c, 0, 61, 57
2, 5533, Note_on_c, 0, 61, 0
2, 5551, Note_on_c, 0, 56, 54
2, 5608, Note_on_c, 0, 56, 0
2, 5642, Note_on_c, 0, 61, 64
2, 5678, Note_on_c, 0, 70, 0
2, 5702, Note_on_c, 0, 61, 0
2, 5714, Note_on_c, 0, 56, 57
2, 5785, Note_on_c, 0, 56, 0
2, 5803, Note_on_c, 0, 61, 59
2, 5809, Note_on_c, 0, 80, 68
2, 5853, Note_on_c, 0, 80, 0
2, 5865, Note_on_c, 0, 61, 0
2, 5868, Note_on_c, 0, 56, 57
2, 5958, Note_on_c, 0, 56, 0
2, 5986, Note_on_c, 0, 63, 63
2, 5988, Note_on_c, 0, 72, 82
2, 6057, Note_on_c, 0, 63, 0
2, 6067, Note_on_c, 0, 56, 62
2, 6144, Note_on_c, 0, 56, 0
2, 6162, Note_on_c, 0, 63, 70
2, 6213, Note_on_c, 0, 72, 0
2, 6226, Note_on_c, 0, 63, 0
2, 6237, Note_on_c, 0, 56, 64
2, 6324, Note_on_c, 0, 56, 0
2, 6328, Note_on_c, 0, 80, 68
2, 6342, Note_on_c, 0, 63, 70
2, 6371, Note_on_c, 0, 80, 0
2, 6413, Note_on_c, 0, 63, 0
2, 6426, Note_on_c, 0, 56, 61
2, 6502, Note_on_c, 0, 56, 0
2, 6520, Note_on_c, 0, 73, 80
2, 6542, Note_on_c, 0, 65, 61
2, 6597, Note_on_c, 0, 65, 0
2, 6614, Note_on_c, 0, 56, 68
2, 6682, Note_on_c, 0, 56, 0
2, 6712, Note_on_c, 0, 65, 65
2, 6747, Note_on_c, 0, 65, 0
2, 6779, Note_on_c, 0, 73, 0
2, 6791, Note_on_c, 0, 56, 60
2, 6838, Note_on_c, 0, 56, 0
2, 6869, Note_on_c, 0, 80, 66
2, 6871, Note_on_c, 0, 65, 55
2, 6909, Note_on_c, 0, 65, 0
2, 6909, Note_on_c, 0, 80, 0
2, 6927, Control_c, 0, 64, 46
2, 6952, Note_on_c, 0, 56, 63
2, 7013, Note_on_c, 0, 56, 0
2, 7055, Note_on_c, 0, 72, 72
2, 7058, Note_on_c, 0, 63, 56
2, 7107, Note_on_c, 0, 63, 0
2, 7132, Note_on_c, 0, 56, 62
2, 7205, Note_on_c, 0, 56, 0
2, 7238, Control_c, 0, 64, 46
2, 7242, Note_on_c, 0, 63, 62
2, 7281, Note_on_c, 0, 72, 0
2, 7283, Note_on_c, 0, 63, 0
2, 7319, Note_on_c, 0, 56, 60
2, 7377, Note_on_c, 0, 56, 0
2, 7408, Note_on_c, 0, 80, 63
2, 7419, Note_on_c, 0, 63, 58
2, 7470, Note_on_c, 0, 80, 0
2, 7505, Note_on_c, 0, 63, 0
2, 7550, Note_on_c, 0, 60, 48
2, 7597, Note_on_c, 0, 60, 0
2, 7602, Note_on_c, 0, 70, 67
2, 7623, Note_on_c, 0, 61, 71
2, 7721, Note_on_c, 0, 61, 0
2, 7740, Note_on_c, 0, 60, 64
2, 7780, Note_on_c, 0, 79, 57
2, 7799, Note_on_c, 0, 60, 0
2, 7814, Note_on_c, 0, 70, 0
2, 7838, Note_on_c, 0, 58, 42
2, 7872, Note_on_c, 0, 79, 0
2, 7956, Note_on_c, 0, 58, 0
2, 8022, Note_on_c, 0, 60, 57
2, 8060, Note_on_c, 0, 68, 77
2, 8146, Note_on_c, 0, 60, 0
2, 8147, Note_on_c, 0, 68, 0
2, 8188, Note_on_c, 0, 56, 50
2, 8253, Note_on_c, 0, 58, 61
2, 8263, Note_on_c, 0, 56, 0
2, 8331, Note_on_c, 0, 58, 0
2, 8340, Note_on_c, 0, 60, 70
2, 8421, Note_on_c, 0, 60, 0
2, 8516, Note_on_c, 0, 68, 78
2, 8517, Note_on_c, 0, 60, 66
2, 8539, Control_c, 0, 64, 52
2, 8554, Control_c, 0, 64, 57
2, 8570, Control_c, 0, 64, 61
2, 8599, Control_c, 0, 64, 59
2, 8615, Control_c, 0, 64, 56
2, 8615, Note_on_c, 0, 58, 66
2, 8615, Note_on_c, 0, 60, 0
2, 8630, Control_c, 0, 64, 50
2, 8639, Note_on_c, 0, 68, 0
2, 8645, Control_c, 0, 64, 28
2, 8661, Control_c, 0, 64, 0
2, 8674, Note_on_c, 0, 58, 0
2, 8695, Note_on_c, 0, 56, 65
2, 8772, Note_on_c, 0, 56, 0
2, 8775, Note_on_c, 0, 58, 68
2, 8838, Note_on_c, 0, 58, 0
2, 8854, Note_on_c, 0, 60, 67
2, 8875, Note_on_c, 0, 80, 87
2, 8934, Note_on_c, 0, 60, 0
2, 8948, Note_on_c, 0, 56, 63
2, 9039, Note_on_c, 0, 58, 70
2, 9049, Note_on_c, 0, 56, 0
2, 9107, Note_on_c, 0, 58, 0
2, 9122, Note_on_c, 0, 59, 69
2, 9204, Note_on_c, 0, 59, 0
2, 9225, Note_on_c, 0, 58, 59
2, 9232, Note_on_c, 0, 78, 63
2, 9235, Note_on_c, 0, 80, 0
2, 9295, Note_on_c, 0, 58, 0
2, 9296, Note_on_c, 0, 56, 60
2, 9314, Note_on_c, 0, 77, 67
2, 9347, Note_on_c, 0, 78, 0
2, 9373, Note_on_c, 0, 56, 0
2, 9391, Note_on_c, 0, 54, 7
2, 9391, Note_on_c, 0, 77, 0
2, 9410, Note_on_c, 0, 75, 67
2, 9419, Note_on_c, 0, 54, 0
2, 9441, Note_on_c, 0, 53, 56
2, 9487, Note_on_c, 0, 75, 0
2, 9503, Note_on_c, 0, 77, 59
2, 9524, Note_on_c, 0, 53, 0
2, 9566, Note_on_c, 0, 51, 46
2, 9587, Note_on_c, 0, 77, 0
2, 9588, Control_c, 0, 67, 20
2, 9599, Note_on_c, 0, 78, 60
2, 9603, Control_c, 0, 67, 34
2, 9619, Control_c, 0, 67, 46
2, 9634, Control_c, 0, 67, 69
2, 9651, Control_c, 0, 67, 110
2, 9666, Control_c, 0, 67, 127
2, 9668, Note_on_c, 0, 75, 62
2, 9670, Note_on_c, 0, 78, 0
2, 9727, Note_on_c, 0, 51, 0
2, 9740, Note_on_c, 0, 75, 0
2, 9757, Note_on_c, 0, 70, 59
2, 9849, Note_on_c, 0, 70, 0
2, 9854, Note_on_c, 0, 75, 62
2, 9889, Note_on_c, 0, 63, 38
2, 9904, Note_on_c, 0, 75, 0
2, 9930, Note_on_c, 0, 63, 0
2, 9931, Note_on_c, 0, 78, 63
2, 10015, Note_on_c, 0, 78, 0
2, 10026, Note_on_c, 0, 75, 58
2, 10065, Note_on_c, 0, 53, 38
2, 10103, Note_on_c, 0, 75, 0
2, 10106, Note_on_c, 0, 80, 64
2, 10162, Note_on_c, 0, 80, 0
2, 10193, Note_on_c, 0, 75, 67
2, 10257, Note_on_c, 0, 53, 0
2, 10271, Note_on_c, 0, 75, 0
2, 10288, Note_on_c, 0, 80, 73
2, 10362, Note_on_c, 0, 80, 0
2, 10382, Note_on_c, 0, 75, 70
2, 10445, Note_on_c, 0, 75, 0
2, 10447, Note_on_c, 0, 63, 45
2, 10460, Note_on_c, 0, 80, 78
2, 10487, Note_on_c, 0, 63, 0
2, 10528, Note_on_c, 0, 80, 0
2, 10553, Note_on_c, 0, 75, 67
2, 10617, Note_on_c, 0, 75, 0
2, 10634, Note_on_c, 0, 82, 76
2, 10639, Note_on_c, 0, 54, 48
2, 10708, Note_on_c, 0, 82, 0
2, 10727, Note_on_c, 0, 75, 67
2, 10789, Note_on_c, 0, 75, 0
2, 10810, Note_on_c, 0, 82, 80
2, 10812, Note_on_c, 0, 54, 0
2, 10891, Note_on_c, 0, 82, 0
2, 10906, Note_on_c, 0, 75, 66
2, 10971, Note_on_c, 0, 75, 0
2, 10988, Note_on_c, 0, 63, 48
2, 10989, Note_on_c, 0, 82, 75
2, 11048, Note_on_c, 0, 63, 0
2, 11069, Note_on_c, 0, 82, 0
2, 11088, Note_on_c, 0, 75, 62
2, 11167, Note_on_c, 0, 75, 0
2, 11179, Note_on_c, 0, 56, 41
2, 11184, Note_on_c, 0, 83, 65
2, 11265, Note_on_c, 0, 83, 0
2, 11285, Note_on_c, 0, 75, 58
2, 11353, Note_on_c, 0, 56, 0
2, 11353, Note_on_c, 0, 75, 0
2, 11375, Note_on_c, 0, 83, 65
2, 11435, Note_on_c, 0, 83, 0
2, 11456, Note_on_c, 0, 75, 57
2, 11515, Note_on_c, 0, 75, 0
2, 11527, Note_on_c, 0, 63, 45
2, 11540, Note_on_c, 0, 83, 67
2, 11570, Note_on_c, 0, 63, 0
2, 11605, Note_on_c, 0, 83, 0
2, 11628, Note_on_c, 0, 75, 52
2, 11684, Note_on_c, 0, 75, 0
2, 11714, Note_on_c, 0, 82, 63
2, 11721, Note_on_c, 0, 54, 50
2, 11791, Note_on_c, 0, 82, 0
2, 11813, Note_on_c, 0, 75, 61
2, 11879, Note_on_c, 0, 75, 0
2, 11898, Note_on_c, 0, 54, 0
2, 11903, Note_on_c, 0, 82, 63
2, 11964, Note_on_c, 0, 82, 0
2, 11989, Note_on_c, 0, 75, 56
2, 12046, Note_on_c, 0, 75, 0
2, 12063, Note_on_c, 0, 63, 49
2, 12082, Note_on_c, 0, 82, 59
2, 12113, Note_on_c, 0, 63, 0
2, 12146, Note_on_c, 0, 75, 53
2, 12249, Note_on_c, 0, 53, 57
2, 12255, Note_on_c, 0, 80, 58
2, 12262, Note_on_c, 0, 75, 0
2, 12277, Note_on_c, 0, 82, 0
2, 12344, Note_on_c, 0, 78, 68
2, 12344, Note_on_c, 0, 80, 0
2, 12414, Note_on_c, 0, 78, 0
2, 12428, Note_on_c, 0, 53, 0
2, 12442, Note_on_c, 0, 77, 68
2, 12515, Note_on_c, 0, 77, 0
2, 12518, Note_on_c, 0, 78, 69
2, 12613, Note_on_c, 0, 80, 66
2, 12615, Note_on_c, 0, 62, 43
2, 12622, Note_on_c, 0, 78, 0
2, 12644, Note_on_c, 0, 62, 0
2, 12672, Note_on_c, 0, 80, 0
2, 12693, Note_on_c, 0, 77, 71
2, 12787, Note_on_c, 0, 77, 0
2, 12788, Note_on_c, 0, 51, 65
2, 12799, Note_on_c, 0, 78, 68
2, 12890, Note_on_c, 0, 77, 73
2, 12900, Note_on_c, 0, 51, 0
2, 12950, Note_on_c, 0, 78, 0
2, 12967, Note_on_c, 0, 77, 0
2, 12974, Note_on_c, 0, 75, 74
2, 13068, Note_on_c, 0, 75, 0
2, 13073, Note_on_c, 0, 77, 67
2, 13157, Note_on_c, 0, 63, 75
2, 13158, Note_on_c, 0, 77, 0
2, 13158, Note_on_c, 0, 78, 64
2, 13164, Control_c, 0, 64, 19
2, 13179, Control_c, 0, 64, 48
2, 13195, Control_c, 0, 64, 62
2, 13211, Control_c, 0, 64, 67
2, 13226, Control_c, 0, 64, 74
2, 13241, Note_on_c, 0, 75, 68
2, 13242, Control_c, 0, 64, 85
2, 13248, Note_on_c, 0, 78, 0
2, 13256, Control_c, 0, 64, 101
2, 13271, Control_c, 0, 64, 127
2, 13277, Note_on_c, 0, 63, 0
2, 13341, Note_on_c, 0, 75, 0
2, 13344, Note_on_c, 0, 77, 73
2, 13416, Control_c, 0, 64, 112
2, 13420, Note_on_c, 0, 77, 0
2, 13430, Note_on_c, 0, 78, 70
2, 13431, Control_c, 0, 64, 103
2, 13447, Control_c, 0, 64, 99
2, 13461, Control_c, 0, 64, 97
2, 13476, Control_c, 0, 64, 95
2, 13492, Control_c, 0, 64, 92
2, 13494, Note_on_c, 0, 61, 53
2, 13507, Control_c, 0, 64, 87
2, 13522, Control_c, 0, 64, 81
2, 13528, Note_on_c, 0, 77, 71
2, 13537, Control_c, 0, 64, 73
2, 13552, Control_c, 0, 64, 67
2, 13558, Note_on_c, 0, 61, 0
2, 13568, Control_c, 0, 64, 61
2, 13574, Note_on_c, 0, 78, 0
2, 13583, Control_c, 0, 64, 55
2, 13597, Control_c, 0, 64, 51
2, 13606, Note_on_c, 0, 60, 59
2, 13612, Note_on_c, 0, 75, 75
2, 13613, Control_c, 0, 64, 50
2, 13616, Note_on_c, 0, 77, 0
2, 13628, Control_c, 0, 64, 49
2, 13644, Control_c, 0, 64, 47
2, 13659, Control_c, 0, 64, 46
2, 13664, Note_on_c, 0, 60, 0
2, 13673, Control_c, 0, 64, 45
2, 13679, Note_on_c, 0, 75, 0
2, 13696, Note_on_c, 0, 58, 56
2, 13701, Note_on_c, 0, 73, 63
2, 13719, Control_c, 0, 64, 45
2, 13766, Note_on_c, 0, 73, 0
2, 13769, Note_on_c, 0, 58, 0
2, 13779, Note_on_c, 0, 72, 70
2, 13791, Note_on_c, 0, 60, 56
2, 13834, Note_on_c, 0, 60, 0
2, 13857, Note_on_c, 0, 72, 0
2, 13874, Note_on_c, 0, 61, 54
2, 13885, Note_on_c, 0, 70, 66
2, 13937, Note_on_c, 0, 61, 0
2, 13948, Note_on_c, 0, 58, 56
2, 14008, Note_on_c, 0, 58, 0
2, 14036, Note_on_c, 0, 53, 58
2, 14078, Note_on_c, 0, 70, 0
2, 14150, Note_on_c, 0, 58, 53
2, 14152, Note_on_c, 0, 53, 0
2, 14153, Control_c, 0, 64, 44
2, 14181, Note_on_c, 0, 58, 0
2, 14203, Note_on_c, 0, 61, 62
2, 14211, Note_on_c, 0, 82, 68
2, 14242, Control_c, 0, 64, 44
2, 14248, Note_on_c, 0, 82, 0
2, 14258, Control_c, 0, 64, 43
2, 14269, Note_on_c, 0, 61, 0
2, 14271, Note_on_c, 0, 58, 56
2, 14289, Control_c, 0, 64, 43
2, 14303, Control_c, 0, 64, 42
2, 14343, Note_on_c, 0, 58, 0
2, 14363, Control_c, 0, 64, 42
2, 14381, Note_on_c, 0, 63, 60
2, 14387, Note_on_c, 0, 72, 80
2, 14439, Control_c, 0, 64, 41
2, 14450, Note_on_c, 0, 63, 0
2, 14469, Note_on_c, 0, 58, 61
2, 14501, Control_c, 0, 67, 127
2, 14515, Control_c, 0, 64, 41
2, 14544, Note_on_c, 0, 58, 0
2, 14546, Control_c, 0, 64, 40
2, 14546, Control_c, 0, 67, 126
2, 14558, Note_on_c, 0, 63, 72
2, 14561, Control_c, 0, 67, 125
2, 14577, Control_c, 0, 67, 125
2, 14592, Control_c, 0, 67, 113
2, 14608, Control_c, 0, 67, 92
2, 14622, Control_c, 0, 64, 40
2, 14622, Control_c, 0, 67, 78
2, 14627, Note_on_c, 0, 63, 0
2, 14637, Control_c, 0, 67, 67
2, 14640, Note_on_c, 0, 58, 58
2, 14646, Note_on_c, 0, 72, 0
2, 14653, Control_c, 0, 67, 59
2, 14668, Control_c, 0, 67, 55
2, 14683, Control_c, 0, 67, 51
2, 14699, Control_c, 0, 67, 48
2, 14713, Control_c, 0, 67, 47
2, 14717, Note_on_c, 0, 58, 0
2, 14729, Control_c, 0, 67, 46
2, 14736, Note_on_c, 0, 63, 67
2, 14736, Note_on_c, 0, 82, 71
2, 14744, Control_c, 0, 67, 45
2, 14758, Control_c, 0, 67, 44
2, 14774, Control_c, 0, 67, 42
2, 14789, Control_c, 0, 67, 41
2, 14790, Note_on_c, 0, 82, 0
2, 14793, Note_on_c, 0, 63, 0
2, 14804, Control_c, 0, 67, 40
2, 14816, Note_on_c, 0, 58, 62
2, 14820, Control_c, 0, 64, 39
2, 14843, Control_c, 0, 67, 40
2, 14873, Control_c, 0, 67, 39
2, 14889, Control_c, 0, 64, 39
2, 14909, Note_on_c, 0, 58, 0
2, 14919, Control_c, 0, 67, 38
2, 14925, Note_on_c, 0, 73, 85
2, 14935, Control_c, 0, 64, 38
2, 14942, Note_on_c, 0, 65, 63
2, 14949, Control_c, 0, 64, 38
2, 14949, Control_c, 0, 67, 38
2, 14964, Control_c, 0, 64, 36
2, 14964, Control_c, 0, 67, 37
2, 14980, Control_c, 0, 64, 35
2, 14980, Control_c, 0, 67, 36
2, 14995, Control_c, 0, 64, 34
2, 14995, Control_c, 0, 67, 35
2, 15010, Note_on_c, 0, 65, 0
2, 15011, Control_c, 0, 64, 34
2, 15011, Control_c, 0, 67, 34
2, 15019, Note_on_c, 0, 58, 72
2, 15026, Control_c, 0, 64, 33
2, 15026, Control_c, 0, 67, 32
2, 15041, Control_c, 0, 64, 32
2, 15041, Control_c, 0, 67, 30
2, 15057, Control_c, 0, 67, 26
2, 15071, Control_c, 0, 67, 24
2, 15086, Control_c, 0, 67, 21
2, 15098, Note_on_c, 0, 58, 0
2, 15102, Control_c, 0, 67, 20
2, 15117, Control_c, 0, 67, 20
2, 15118, Note_on_c, 0, 65, 75
2, 15133, Control_c, 0, 64, 32
2, 15133, Control_c, 0, 67, 19
2, 15162, Control_c, 0, 67, 18
2, 15180, Note_on_c, 0, 65, 0
2, 15182, Note_on_c, 0, 73, 0
2, 15200, Note_on_c, 0, 58, 70
2, 15254, Control_c, 0, 67, 18
2, 15275, Note_on_c, 0, 58, 0
2, 15289, Note_on_c, 0, 65, 71
2, 15294, Note_on_c, 0, 82, 71
2, 15335, Note_on_c, 0, 65, 0
2, 15363, Note_on_c, 0, 82, 0
2, 15371, Note_on_c, 0, 58, 63
2, 15455, Note_on_c, 0, 58, 0
2, 15472, Note_on_c, 0, 75, 86
2, 15480, Note_on_c, 0, 66, 65
2, 15497, Control_c, 0, 64, 31
2, 15549, Note_on_c, 0, 66, 0
2, 15556, Note_on_c, 0, 58, 66
2, 15610, Control_c, 0, 64, 31
2, 15646, Note_on_c, 0, 58, 0
2, 15661, Note_on_c, 0, 66, 70
2, 15672, Control_c, 0, 64, 30
2, 15672, Control_c, 0, 67, 18
2, 15688, Control_c, 0, 64, 29
2, 15703, Control_c, 0, 64, 28
2, 15717, Control_c, 0, 64, 27
2, 15717, Control_c, 0, 67, 19
2, 15730, Note_on_c, 0, 66, 0
2, 15733, Control_c, 0, 64, 26
2, 15733, Control_c, 0, 67, 20
2, 15741, Note_on_c, 0, 58, 62
2, 15748, Control_c, 0, 64, 26
2, 15763, Control_c, 0, 64, 25
2, 15763, Control_c, 0, 67, 20
2, 15778, Note_on_c, 0, 75, 0
2, 15793, Control_c, 0, 64, 24
2, 15793, Control_c, 0, 67, 21
2, 15812, Note_on_c, 0, 58, 0
2, 15824, Control_c, 0, 67, 22
2, 15836, Note_on_c, 0, 66, 66
2, 15839, Control_c, 0, 64, 24
2, 15839, Control_c, 0, 67, 22
2, 15848, Note_on_c, 0, 82, 69
2, 15870, Control_c, 0, 64, 23
2, 15870, Control_c, 0, 67, 23
2, 15892, Note_on_c, 0, 66, 0
2, 15901, Control_c, 0, 64, 22
2, 15911, Note_on_c, 0, 58, 61
2, 15915, Control_c, 0, 67, 24
2, 15919, Note_on_c, 0, 82, 0
2, 15979, Note_on_c, 0, 58, 0
2, 16006, Control_c, 0, 64, 21
2, 16019, Note_on_c, 0, 73, 74
2, 16020, Note_on_c, 0, 65, 62
2, 16059, Note_on_c, 0, 65, 0
2, 16082, Control_c, 0, 64, 20
2, 16099, Note_on_c, 0, 58, 65
2, 16113, Control_c, 0, 67, 24
2, 16143, Control_c, 0, 67, 25
2, 16155, Note_on_c, 0, 58, 0
2, 16192, Note_on_c, 0, 65, 62
2, 16231, Note_on_c, 0, 65, 0
2, 16234, Control_c, 0, 67, 26
2, 16269, Note_on_c, 0, 58, 64
2, 16288, Note_on_c, 0, 73, 0
2, 16311, Note_on_c, 0, 58, 0
2, 16352, Note_on_c, 0, 65, 61
2, 16353, Note_on_c, 0, 82, 60
2, 16406, Note_on_c, 0, 65, 0
2, 16426, Note_on_c, 0, 82, 0
2, 16429, Note_on_c, 0, 58, 57
2, 16503, Note_on_c, 0, 58, 0
2, 16537, Note_on_c, 0, 63, 61
2, 16558, Note_on_c, 0, 72, 69
2, 16608, Control_c, 0, 64, 19
2, 16631, Note_on_c, 0, 61, 67
2, 16644, Note_on_c, 0, 63, 0
2, 16708, Note_on_c, 0, 61, 0
2, 16720, Note_on_c, 0, 60, 70
2, 16732, Note_on_c, 0, 72, 0
2, 16805, Note_on_c, 0, 60, 0
2, 16814, Note_on_c, 0, 61, 71
2, 16890, Note_on_c, 0, 61, 0
2, 16893, Note_on_c, 0, 81, 67
2, 16900, Note_on_c, 0, 63, 71
2, 16942, Note_on_c, 0, 81, 0
2, 16968, Note_on_c, 0, 63, 0
2, 16984, Note_on_c, 0, 60, 60
2, 17058, Note_on_c, 0, 60, 0
2, 17073, Note_on_c, 0, 61, 72
2, 17081, Note_on_c, 0, 70, 82
2, 17095, Control_c, 0, 67, 26
2, 17156, Note_on_c, 0, 61, 0
2, 17162, Note_on_c, 0, 60, 70
2, 17260, Note_on_c, 0, 58, 74
2, 17260, Note_on_c, 0, 60, 0
2, 17317, Control_c, 0, 67, 27
2, 17347, Control_c, 0, 67, 28
2, 17349, Note_on_c, 0, 70, 0
2, 17357, Note_on_c, 0, 58, 0
2, 17358, Note_on_c, 0, 60, 78
2, 17391, Control_c, 0, 67, 28
2, 17434, Note_on_c, 0, 60, 0
2, 17443, Note_on_c, 0, 61, 71
2, 17449, Note_on_c, 0, 82, 90
2, 17467, Control_c, 0, 67, 29
2, 17511, Note_on_c, 0, 61, 0
2, 17531, Note_on_c, 0, 58, 66
2, 17599, Note_on_c, 0, 58, 0
2, 17630, Note_on_c, 0, 64, 71
2, 17650, Control_c, 0, 67, 28
2, 17678, Note_on_c, 0, 82, 0
2, 17679, Control_c, 0, 67, 28
2, 17718, Note_on_c, 0, 64, 0
2, 17721, Note_on_c, 0, 62, 74
2, 17755, Control_c, 0, 67, 27
2, 17801, Note_on_c, 0, 62, 0
2, 17808, Note_on_c, 0, 60, 68
2, 17811, Note_on_c, 0, 80, 85
2, 17831, Control_c, 0, 67, 26
2, 17893, Control_c, 0, 64, 18
2, 17899, Note_on_c, 0, 60, 0
2, 17902, Note_on_c, 0, 62, 66
2, 17915, Control_c, 0, 67, 26
2, 17973, Note_on_c, 0, 62, 0
2, 17982, Note_on_c, 0, 79, 83
2, 17990, Note_on_c, 0, 64, 68
2, 17993, Note_on_c, 0, 80, 0
2, 18007, Control_c, 0, 64, 17
2, 18019, Note_on_c, 0, 79, 0
2, 18036, Control_c, 0, 64, 15
2, 18039, Note_on_c, 0, 60, 65
2, 18052, Control_c, 0, 64, 12
2, 18067, Control_c, 0, 64, 10
2, 18067, Control_c, 0, 67, 25
2, 18083, Control_c, 0, 64, 8
2, 18089, Note_on_c, 0, 64, 0
2, 18113, Control_c, 0, 67, 24
2, 18113, Note_on_c, 0, 60, 0
2, 18149, Note_on_c, 0, 65, 65
2, 18152, Note_on_c, 0, 80, 89
2, 18189, Control_c, 0, 64, 0
2, 18189, Note_on_c, 0, 80, 0
2, 18213, Note_on_c, 0, 65, 0
2, 18220, Control_c, 0, 67, 25
2, 18231, Note_on_c, 0, 64, 62
2, 18306, Note_on_c, 0, 64, 0
2, 18322, Note_on_c, 0, 65, 68
2, 18336, Note_on_c, 0, 68, 80
2, 18371, Note_on_c, 0, 65, 0
2, 18372, Note_on_c, 0, 68, 0
2, 18396, Note_on_c, 0, 67, 61
2, 18464, Note_on_c, 0, 67, 0
2, 18491, Note_on_c, 0, 65, 66
2, 18501, Note_on_c, 0, 80, 87
2, 18575, Note_on_c, 0, 63, 70
2, 18575, Note_on_c, 0, 65, 0
2, 18645, Note_on_c, 0, 63, 0
2, 18687, Note_on_c, 0, 62, 72
2, 18752, Note_on_c, 0, 62, 0
2, 18768, Note_on_c, 0, 60, 71
2, 18845, Note_on_c, 0, 60, 0
2, 18857, Note_on_c, 0, 80, 0
2, 18858, Note_on_c, 0, 78, 75
2, 18859, Note_on_c, 0, 58, 71
2, 18865, Control_c, 0, 67, 26
2, 18942, Control_c, 0, 67, 26
2, 18945, Note_on_c, 0, 58, 0
2, 18952, Note_on_c, 0, 60, 71
2, 19007, Note_on_c, 0, 60, 0
2, 19021, Note_on_c, 0, 62, 68
2, 19063, Note_on_c, 0, 77, 76
2, 19092, Note_on_c, 0, 62, 0
2, 19098, Note_on_c, 0, 78, 0
2, 19103, Note_on_c, 0, 58, 70
2, 19166, Note_on_c, 0, 58, 0
2, 19205, Note_on_c, 0, 63, 74
2, 19210, Note_on_c, 0, 77, 0
2, 19222, Note_on_c, 0, 78, 76
2, 19239, Note_on_c, 0, 63, 0
2, 19277, Control_c, 0, 67, 26
2, 19307, Control_c, 0, 67, 25
2, 19313, Note_on_c, 0, 77, 78
2, 19333, Note_on_c, 0, 78, 0
2, 19338, Control_c, 0, 67, 24
2, 19352, Control_c, 0, 67, 24
2, 19379, Note_on_c, 0, 51, 73
2, 19383, Control_c, 0, 67, 23
2, 19396, Note_on_c, 0, 77, 0
2, 19404, Note_on_c, 0, 75, 81
2, 19416, Note_on_c, 0, 51, 0
2, 19452, Control_c, 0, 67, 22
2, 19498, Note_on_c, 0, 77, 76
2, 19501, Note_on_c, 0, 75, 0
2, 19528, Control_c, 0, 67, 22
2, 19557, Control_c, 0, 67, 21
2, 19581, Note_on_c, 0, 78, 73
2, 19582, Note_on_c, 0, 63, 79
2, 19589, Note_on_c, 0, 77, 0
2, 19619, Control_c, 0, 67, 20
2, 19655, Note_on_c, 0, 75, 77
2, 19669, Note_on_c, 0, 78, 0
2, 19695, Control_c, 0, 67, 20
2, 19744, Note_on_c, 0, 81, 77
2, 19745, Note_on_c, 0, 75, 0
2, 19831, Note_on_c, 0, 79, 80
2, 19850, Note_on_c, 0, 81, 0
2, 19912, Note_on_c, 0, 79, 0
2, 19924, Note_on_c, 0, 77, 84
2, 19930, Note_on_c, 0, 61, 73
2, 19950, Note_on_c, 0, 63, 0
2, 19954, Control_c, 0, 67, 19
2, 20006, Note_on_c, 0, 79, 82
2, 20015, Note_on_c, 0, 77, 0
2, 20093, Note_on_c, 0, 81, 83
2, 20097, Note_on_c, 0, 60, 76
2, 20102, Note_on_c, 0, 79, 0
2, 20109, Note_on_c, 0, 61, 0
2, 20122, Control_c, 0, 67, 18
2, 20128, Note_on_c, 0, 60, 0
2, 20164, Note_on_c, 0, 81, 0
2, 20181, Note_on_c, 0, 77, 82
2, 20279, Note_on_c, 0, 82, 83
2, 20282, Note_on_c, 0, 77, 0
2, 20285, Note_on_c, 0, 61, 76
2, 20333, Note_on_c, 0, 61, 0
2, 20369, Note_on_c, 0, 81, 78
2, 20373, Note_on_c, 0, 82, 0
2, 20458, Note_on_c, 0, 82, 86
2, 20463, Note_on_c, 0, 49, 61
2, 20467, Note_on_c, 0, 81, 0
2, 20501, Note_on_c, 0, 49, 0
2, 20529, Note_on_c, 0, 82, 0
2, 20539, Note_on_c, 0, 84, 78
2, 20586, Control_c, 0, 67, 19
2, 20629, Note_on_c, 0, 82, 82
2, 20649, Note_on_c, 0, 84, 0
2, 20653, Note_on_c, 0, 61, 71
2, 20714, Note_on_c, 0, 80, 79
2, 20752, Control_c, 0, 67, 20
2, 20757, Note_on_c, 0, 82, 0
2, 20805, Note_on_c, 0, 79, 79
2, 20817, Note_on_c, 0, 80, 0
2, 20859, Control_c, 0, 67, 20
2, 20869, Note_on_c, 0, 79, 0
2, 20887, Note_on_c, 0, 77, 77
2, 20975, Note_on_c, 0, 77, 0
2, 20988, Note_on_c, 0, 75, 77
2, 21015, Note_on_c, 0, 60, 64
2, 21017, Note_on_c, 0, 61, 0
2, 21019, Control_c, 0, 67, 21
2, 21064, Control_c, 0, 67, 22
2, 21075, Note_on_c, 0, 78, 57
2, 21082, Note_on_c, 0, 75, 0
2, 21087, Note_on_c, 0, 77, 83
2, 21100, Note_on_c, 0, 78, 0
2, 21147, Note_on_c, 0, 60, 0
2, 21163, Note_on_c, 0, 58, 65
2, 21165, Note_on_c, 0, 77, 0
2, 21173, Note_on_c, 0, 79, 76
2, 21186, Control_c, 0, 67, 22
2, 21201, Note_on_c, 0, 58, 0
2, 21235, Note_on_c, 0, 79, 0
2, 21241, Note_on_c, 0, 75, 76
2, 21302, Note_on_c, 0, 75, 0
2, 21338, Control_c, 0, 67, 23
2, 21339, Note_on_c, 0, 80, 82
2, 21353, Note_on_c, 0, 60, 54
2, 21374, Note_on_c, 0, 80, 0
2, 21412, Note_on_c, 0, 60, 0
2, 21415, Control_c, 0, 67, 24
2, 21446, Note_on_c, 0, 58, 64
2, 21475, Control_c, 0, 67, 24
2, 21521, Note_on_c, 0, 68, 76
2, 21522, Control_c, 0, 67, 25
2, 21534, Note_on_c, 0, 58, 0
2, 21546, Note_on_c, 0, 68, 0
2, 21553, Note_on_c, 0, 56, 58
2, 21643, Control_c, 0, 67, 26
2, 21684, Note_on_c, 0, 58, 26
2, 21698, Note_on_c, 0, 80, 80
2, 21699, Note_on_c, 0, 56, 0
2, 21715, Note_on_c, 0, 58, 0
2, 21715, Note_on_c, 0, 60, 74
2, 21797, Note_on_c, 0, 60, 0
2, 21819, Note_on_c, 0, 56, 62
2, 21881, Note_on_c, 0, 62, 63
2, 21891, Note_on_c, 0, 56, 0
2, 21973, Note_on_c, 0, 62, 0
2, 21981, Note_on_c, 0, 60, 56
2, 22052, Note_on_c, 0, 60, 0
2, 22066, Note_on_c, 0, 58, 66
2, 22091, Note_on_c, 0, 78, 73
2, 22112, Note_on_c, 0, 80, 0
2, 22146, Note_on_c, 0, 58, 0
2, 22157, Note_on_c, 0, 60, 59
2, 22203, Note_on_c, 0, 60, 0
2, 22237, Note_on_c, 0, 62, 56
2, 22248, Note_on_c, 0, 77, 80
2, 22271, Note_on_c, 0, 78, 0
2, 22273, Note_on_c, 0, 77, 0
2, 22302, Note_on_c, 0, 62, 0
2, 22314, Note_on_c, 0, 58, 52
2, 22381, Note_on_c, 0, 58, 0
2, 22397, Note_on_c, 0, 63, 63
2, 22441, Note_on_c, 0, 77, 67
2, 22470, Note_on_c, 0, 77, 0
2, 22472, Note_on_c, 0, 63, 0
2, 22500, Note_on_c, 0, 62, 53
2, 22590, Note_on_c, 0, 62, 0
2, 22602, Note_on_c, 0, 66, 71
2, 22608, Note_on_c, 0, 63, 61
2, 22634, Note_on_c, 0, 66, 0
2, 22643, Note_on_c, 0, 63, 0
2, 22674, Note_on_c, 0, 65, 50
2, 22745, Note_on_c, 0, 65, 0
2, 22759, Note_on_c, 0, 63, 56
2, 22776, Note_on_c, 0, 78, 78
2, 22796, Control_c, 0, 67, 26
2, 22867, Note_on_c, 0, 63, 0
2, 22868, Note_on_c, 0, 61, 62
2, 22873, Control_c, 0, 67, 27
2, 22904, Control_c, 0, 67, 28
2, 22910, Note_on_c, 0, 61, 0
2, 22934, Control_c, 0, 67, 29
2, 22949, Control_c, 0, 67, 30
2, 22965, Control_c, 0, 67, 32
2, 22967, Note_on_c, 0, 60, 62
2, 22979, Control_c, 0, 67, 33
2, 22994, Control_c, 0, 67, 35
2, 23010, Control_c, 0, 67, 36
2, 23025, Control_c, 0, 67, 39
2, 23042, Control_c, 0, 67, 41
2, 23045, Note_on_c, 0, 60, 0
2, 23057, Control_c, 0, 67, 44
2, 23057, Note_on_c, 0, 58, 63
2, 23072, Control_c, 0, 67, 46
2, 23087, Control_c, 0, 67, 49
2, 23102, Control_c, 0, 67, 54
2, 23107, Note_on_c, 0, 78, 0
2, 23117, Control_c, 0, 67, 66
2, 23124, Note_on_c, 0, 77, 63
2, 23126, Note_on_c, 0, 58, 0
2, 23133, Control_c, 0, 67, 79
2, 23144, Note_on_c, 0, 56, 61
2, 23146, Control_c, 0, 67, 95
2, 23160, Control_c, 0, 67, 114
2, 23176, Control_c, 0, 67, 127
2, 23215, Note_on_c, 0, 56, 0
2, 23220, Note_on_c, 0, 58, 54
2, 23268, Note_on_c, 0, 58, 0
2, 23298, Note_on_c, 0, 60, 59
2, 23311, Note_on_c, 0, 77, 0
2, 23323, Note_on_c, 0, 75, 66
2, 23354, Note_on_c, 0, 60, 0
2, 23380, Note_on_c, 0, 56, 59
2, 23428, Note_on_c, 0, 56, 0
2, 23458, Note_on_c, 0, 75, 0
2, 23485, Note_on_c, 0, 77, 60
2, 23492, Note_on_c, 0, 61, 60
2, 23526, Note_on_c, 0, 61, 0
2, 23570, Note_on_c, 0, 77, 0
2, 23575, Note_on_c, 0, 75, 64
2, 23643, Note_on_c, 0, 75, 0
2, 23658, Note_on_c, 0, 49, 52
2, 23663, Note_on_c, 0, 73, 63
2, 23692, Note_on_c, 0, 49, 0
2, 23757, Note_on_c, 0, 73, 0
2, 23757, Note_on_c, 0, 75, 55
2, 23831, Note_on_c, 0, 75, 0
2, 23836, Note_on_c, 0, 77, 60
2, 23850, Note_on_c, 0, 61, 49
2, 23922, Note_on_c, 0, 73, 55
2, 23922, Note_on_c, 0, 77, 0
2, 23999, Note_on_c, 0, 73, 0
2, 24005, Note_on_c, 0, 79, 60
2, 24089, Note_on_c, 0, 79, 0
2, 24092, Note_on_c, 0, 77, 68
2, 24153, Note_on_c, 0, 77, 0
2, 24176, Note_on_c, 0, 61, 0
2, 24191, Note_on_c, 0, 75, 65
2, 24197, Note_on_c, 0, 59, 55
2, 24262, Note_on_c, 0, 75, 0
2, 24272, Note_on_c, 0, 77, 70
2, 24344, Note_on_c, 0, 77, 0
2, 24346, Note_on_c, 0, 59, 0
2, 24351, Note_on_c, 0, 80, 71
2, 24359, Note_on_c, 0, 58, 61
2, 24382, Note_on_c, 0, 80, 0
2, 24387, Note_on_c, 0, 58, 0
2, 24401, Note_on_c, 0, 79, 36
2, 24431, Note_on_c, 0, 79, 0
2, 24440, Note_on_c, 0, 75, 64
2, 24504, Note_on_c, 0, 75, 0
2, 24525, Note_on_c, 0, 59, 59
2, 24525, Note_on_c, 0, 80, 64
2, 24563, Note_on_c, 0, 59, 0
2, 24592, Note_on_c, 0, 80, 0
2, 24612, Note_on_c, 0, 79, 65
2, 24690, Note_on_c, 0, 47, 59
2, 24698, Note_on_c, 0, 79, 0
2, 24708, Note_on_c, 0, 80, 62
2, 24720, Note_on_c, 0, 47, 0
2, 24748, Note_on_c, 0, 80, 0
2, 24771, Note_on_c, 0, 82, 62
2, 24873, Note_on_c, 0, 80, 63
2, 24890, Note_on_c, 0, 59, 57
2, 24893, Note_on_c, 0, 82, 0
2, 24956, Note_on_c, 0, 78, 67
2, 24957, Note_on_c, 0, 80, 0
2, 25021, Note_on_c, 0, 78, 0
2, 25048, Note_on_c, 0, 77, 65
2, 25123, Note_on_c, 0, 77, 0
2, 25136, Note_on_c, 0, 75, 60
2, 25194, Note_on_c, 0, 59, 0
2, 25209, Note_on_c, 0, 75, 0
2, 25225, Note_on_c, 0, 73, 61
2, 25230, Note_on_c, 0, 58, 45
2, 25294, Note_on_c, 0, 75, 52
2, 25302, Note_on_c, 0, 73, 0
2, 25371, Note_on_c, 0, 75, 0
2, 25386, Note_on_c, 0, 58, 0
2, 25390, Note_on_c, 0, 77, 64
2, 25398, Note_on_c, 0, 56, 45
2, 25430, Note_on_c, 0, 56, 0
2, 25464, Note_on_c, 0, 77, 0
2, 25476, Note_on_c, 0, 73, 53
2, 25559, Note_on_c, 0, 73, 0
2, 25568, Note_on_c, 0, 58, 41
2, 25599, Note_on_c, 0, 66, 50
2, 25638, Note_on_c, 0, 58, 0
2, 25665, Note_on_c, 0, 54, 49
2, 25714, Note_on_c, 0, 54, 0
2, 25742, Note_on_c, 0, 49, 50
2, 25770, Note_on_c, 0, 66, 0
2, 25827, Note_on_c, 0, 54, 54
2, 25839, Note_on_c, 0, 49, 0
2, 25880, Note_on_c, 0, 54, 0
2, 25910, Note_on_c, 0, 58, 55
2, 25911, Note_on_c, 0, 78, 59
2, 25942, Note_on_c, 0, 78, 0
2, 25974, Note_on_c, 0, 58, 0
2, 26021, Note_on_c, 0, 54, 46
2, 26056, Note_on_c, 0, 54, 0
2, 26075, Note_on_c, 0, 68, 63
2, 26092, Note_on_c, 0, 59, 54
2, 26147, Note_on_c, 0, 59, 0
2, 26169, Note_on_c, 0, 54, 50
2, 26239, Note_on_c, 0, 54, 0
2, 26264, Note_on_c, 0, 59, 61
2, 26288, Note_on_c, 0, 68, 0
2, 26313, Note_on_c, 0, 59, 0
2, 26364, Note_on_c, 0, 54, 54
2, 26405, Note_on_c, 0, 54, 0
2, 26436, Note_on_c, 0, 59, 63
2, 26446, Note_on_c, 0, 78, 63
2, 26479, Note_on_c, 0, 59, 0
2, 26481, Note_on_c, 0, 78, 0
2, 26511, Note_on_c, 0, 54, 55
2, 26577, Note_on_c, 0, 54, 0
2, 26617, Note_on_c, 0, 70, 77
2, 26618, Note_on_c, 0, 61, 54
2, 26670, Note_on_c, 0, 61, 0
2, 26697, Note_on_c, 0, 54, 61
2, 26772, Note_on_c, 0, 54, 0
2, 26783, Note_on_c, 0, 61, 67
2, 26849, Note_on_c, 0, 70, 0
2, 26855, Note_on_c, 0, 61, 0
2, 26860, Note_on_c, 0, 54, 57
2, 26944, Note_on_c, 0, 54, 0
2, 26960, Note_on_c, 0, 61, 62
2, 26968, Note_on_c, 0, 78, 71
2, 27006, Note_on_c, 0, 78, 0
2, 27014, Note_on_c, 0, 61, 0
2, 27024, Note_on_c, 0, 54, 59
2, 27129, Note_on_c, 0, 54, 0
2, 27151, Note_on_c, 0, 63, 64
2, 27154, Note_on_c, 0, 71, 78
2, 27225, Note_on_c, 0, 63, 0
2, 27237, Note_on_c, 0, 54, 62
2, 27319, Note_on_c, 0, 54, 0
2, 27334, Note_on_c, 0, 63, 65
2, 27400, Note_on_c, 0, 63, 0
2, 27416, Note_on_c, 0, 54, 60
2, 27423, Note_on_c, 0, 71, 0
2, 27488, Note_on_c, 0, 54, 0
2, 27513, Note_on_c, 0, 63, 60
2, 27523, Note_on_c, 0, 78, 59
2, 27556, Note_on_c, 0, 63, 0
2, 27575, Note_on_c, 0, 78, 0
2, 27586, Note_on_c, 0, 54, 60
2, 27643, Note_on_c, 0, 54, 0
2, 27680, Note_on_c, 0, 61, 57
2, 27696, Note_on_c, 0, 70, 67
2, 27740, Note_on_c, 0, 61, 0
2, 27762, Note_on_c, 0, 54, 64
2, 27813, Note_on_c, 0, 54, 0
2, 27850, Note_on_c, 0, 61, 67
2, 27906, Note_on_c, 0, 61, 0
2, 27942, Note_on_c, 0, 54, 60
2, 27979, Note_on_c, 0, 70, 0
2, 28009, Note_on_c, 0, 54, 0
2, 28041, Note_on_c, 0, 78, 59
2, 28052, Note_on_c, 0, 61, 47
2, 28075, Note_on_c, 0, 54, 42
2, 28076, Note_on_c, 0, 61, 0
2, 28119, Note_on_c, 0, 78, 0
2, 28163, Note_on_c, 0, 54, 0
2, 28215, Note_on_c, 0, 59, 60
2, 28224, Note_on_c, 0, 68, 65
2, 28296, Note_on_c, 0, 59, 0
2, 28306, Note_on_c, 0, 58, 62
2, 28349, Note_on_c, 0, 58, 0
2, 28371, Note_on_c, 0, 56, 60
2, 28455, Note_on_c, 0, 56, 0
2, 28462, Note_on_c, 0, 58, 64
2, 28462, Note_on_c, 0, 68, 0
2, 28517, Note_on_c, 0, 58, 0
2, 28531, Note_on_c, 0, 59, 55
2, 28546, Note_on_c, 0, 77, 65
2, 28580, Note_on_c, 0, 77, 0
2, 28606, Note_on_c, 0, 59, 0
2, 28616, Note_on_c, 0, 56, 56
2, 28703, Note_on_c, 0, 56, 0
2, 28725, Note_on_c, 0, 58, 62
2, 28727, Note_on_c, 0, 66, 73
2, 28805, Note_on_c, 0, 58, 0
2, 28817, Note_on_c, 0, 56, 67
2, 28902, Note_on_c, 0, 56, 0
2, 28916, Note_on_c, 0, 54, 63
2, 28973, Note_on_c, 0, 66, 0
2, 28998, Note_on_c, 0, 54, 0
2, 29003, Note_on_c, 0, 56, 60
2, 29061, Note_on_c, 0, 78, 77
2, 29064, Note_on_c, 0, 56, 0
2, 29076, Note_on_c, 0, 58, 66
2, 29163, Note_on_c, 0, 54, 65
2, 29167, Note_on_c, 0, 58, 0
2, 29254, Note_on_c, 0, 56, 66
2, 29261, Note_on_c, 0, 54, 0
2, 29330, Note_on_c, 0, 56, 0
2, 29345, Note_on_c, 0, 58, 65
2, 29401, Note_on_c, 0, 78, 0
2, 29404, Note_on_c, 0, 77, 72
2, 29436, Note_on_c, 0, 58, 0
2, 29447, Note_on_c, 0, 56, 67
2, 29496, Note_on_c, 0, 75, 71
2, 29502, Note_on_c, 0, 77, 0
2, 29510, Note_on_c, 0, 56, 0
2, 29516, Note_on_c, 0, 54, 51
2, 29545, Note_on_c, 0, 54, 0
2, 29578, Note_on_c, 0, 75, 0
2, 29584, Note_on_c, 0, 53, 62
2, 29593, Note_on_c, 0, 73, 71
2, 29659, Note_on_c, 0, 53, 0
2, 29666, Note_on_c, 0, 73, 0
2, 29666, Note_on_c, 0, 75, 65
2, 29677, Note_on_c, 0, 51, 54
2, 29763, Note_on_c, 0, 75, 0
2, 29765, Note_on_c, 0, 51, 0
2, 29771, Note_on_c, 0, 77, 70
2, 29792, Note_on_c, 0, 49, 55
2, 29857, Note_on_c, 0, 73, 67
2, 29858, Note_on_c, 0, 77, 0
2, 29940, Note_on_c, 0, 73, 0
2, 29947, Note_on_c, 0, 68, 72
2, 29979, Note_on_c, 0, 49, 0
2, 30036, Note_on_c, 0, 73, 66
2, 30042, Note_on_c, 0, 68, 0
2, 30112, Note_on_c, 0, 73, 0
2, 30121, Note_on_c, 0, 77, 78
2, 30126, Note_on_c, 0, 61, 52
2, 30174, Note_on_c, 0, 61, 0
2, 30220, Note_on_c, 0, 73, 67
2, 30220, Note_on_c, 0, 77, 0
2, 30300, Note_on_c, 0, 51, 57
2, 30314, Note_on_c, 0, 78, 75
2, 30315, Note_on_c, 0, 73, 0
2, 30384, Note_on_c, 0, 78, 0
2, 30409, Note_on_c, 0, 73, 71
2, 30476, Note_on_c, 0, 73, 0
2, 30491, Note_on_c, 0, 51, 0
2, 30492, Note_on_c, 0, 78, 85
2, 30567, Note_on_c, 0, 78, 0
2, 30581, Note_on_c, 0, 73, 73
2, 30645, Note_on_c, 0, 73, 0
2, 30660, Note_on_c, 0, 78, 86
2, 30662, Note_on_c, 0, 61, 54
2, 30711, Note_on_c, 0, 61, 0
2, 30742, Note_on_c, 0, 78, 0
2, 30751, Note_on_c, 0, 73, 72
2, 30818, Note_on_c, 0, 73, 0
2, 30839, Note_on_c, 0, 80, 84
2, 30841, Note_on_c, 0, 53, 49
2, 30930, Note_on_c, 0, 80, 0
2, 30933, Note_on_c, 0, 73, 72
2, 31003, Note_on_c, 0, 73, 0
2, 31021, Note_on_c, 0, 80, 88
2, 31024, Note_on_c, 0, 53, 0
2, 31115, Note_on_c, 0, 73, 73
2, 31115, Note_on_c, 0, 80, 0
2, 31180, Note_on_c, 0, 73, 0
2, 31189, Note_on_c, 0, 80, 87
2, 31197, Note_on_c, 0, 61, 51
2, 31251, Note_on_c, 0, 61, 0
2, 31284, Note_on_c, 0, 73, 71
2, 31293, Note_on_c, 0, 80, 0
2, 31366, Note_on_c, 0, 73, 0
2, 31375, Note_on_c, 0, 54, 51
2, 31378, Note_on_c, 0, 82, 82
2, 31462, Note_on_c, 0, 82, 0
2, 31470, Note_on_c, 0, 73, 71
2, 31534, Note_on_c, 0, 73, 0
2, 31555, Note_on_c, 0, 82, 82
2, 31575, Note_on_c, 0, 54, 0
2, 31637, Note_on_c, 0, 82, 0
2, 31648, Note_on_c, 0, 73, 65
2, 31709, Note_on_c, 0, 73, 0
2, 31737, Note_on_c, 0, 61, 52
2, 31740, Note_on_c, 0, 82, 75
2, 31786, Note_on_c, 0, 61, 0
2, 31825, Note_on_c, 0, 82, 0
2, 31829, Note_on_c, 0, 73, 61
2, 31896, Note_on_c, 0, 73, 0
2, 31913, Note_on_c, 0, 53, 63
2, 31917, Note_on_c, 0, 80, 69
2, 31990, Note_on_c, 0, 80, 0
2, 31998, Note_on_c, 0, 73, 65
2, 32066, Note_on_c, 0, 73, 0
2, 32082, Note_on_c, 0, 53, 0
2, 32092, Note_on_c, 0, 80, 70
2, 32164, Note_on_c, 0, 80, 0
2, 32183, Note_on_c, 0, 73, 63
2, 32249, Note_on_c, 0, 73, 0
2, 32256, Note_on_c, 0, 61, 46
2, 32277, Note_on_c, 0, 80, 65
2, 32295, Note_on_c, 0, 61, 0
2, 32323, Note_on_c, 0, 80, 0
2, 32367, Note_on_c, 0, 73, 58
2, 32432, Note_on_c, 0, 73, 0
2, 32438, Note_on_c, 0, 51, 60
2, 32455, Note_on_c, 0, 78, 63
2, 32544, Note_on_c, 0, 77, 70
2, 32565, Note_on_c, 0, 78, 0
2, 32620, Note_on_c, 0, 51, 0
2, 32622, Note_on_c, 0, 77, 0
2, 32630, Note_on_c, 0, 75, 76
2, 32712, Note_on_c, 0, 75, 0
2, 32712, Note_on_c, 0, 77, 75
2, 32797, Note_on_c, 0, 60, 55
2, 32797, Note_on_c, 0, 78, 71
2, 32802, Note_on_c, 0, 77, 0
2, 32828, Note_on_c, 0, 60, 0
2, 32876, Note_on_c, 0, 75, 72
2, 32877, Note_on_c, 0, 78, 0
2, 32965, Note_on_c, 0, 75, 0
2, 32972, Note_on_c, 0, 49, 63
2, 32981, Note_on_c, 0, 77, 69
2, 33070, Note_on_c, 0, 75, 69
2, 33075, Note_on_c, 0, 77, 0
2, 33104, Note_on_c, 0, 49, 0
2, 33143, Note_on_c, 0, 75, 0
2, 33152, Note_on_c, 0, 73, 71
2, 33239, Note_on_c, 0, 73, 0
2, 33251, Note_on_c, 0, 75, 66
2, 33314, Note_on_c, 0, 61, 62
2, 33331, Note_on_c, 0, 75, 0
2, 33343, Note_on_c, 0, 77, 68
2, 33345, Note_on_c, 0, 61, 0
2, 33436, Note_on_c, 0, 73, 59
2, 33436, Note_on_c, 0, 77, 0
2, 33493, Note_on_c, 0, 54, 73
2, 33508, Note_on_c, 0, 73, 0
2, 33514, Note_on_c, 0, 75, 66
2, 33528, Note_on_c, 0, 54, 0
2, 33570, Note_on_c, 0, 75, 0
2, 33600, Note_on_c, 0, 77, 60
2, 33660, Note_on_c, 0, 53, 59
2, 33681, Note_on_c, 0, 75, 60
2, 33681, Note_on_c, 0, 77, 0
2, 33695, Note_on_c, 0, 53, 0
2, 33741, Note_on_c, 0, 75, 0
2, 33749, Note_on_c, 0, 73, 63
2, 33804, Note_on_c, 0, 73, 0
2, 33826, Note_on_c, 0, 51, 62
2, 33846, Note_on_c, 0, 72, 55
2, 33859, Note_on_c, 0, 51, 0
2, 33892, Note_on_c, 0, 72, 0
2, 33919, Note_on_c, 0, 70, 60
2, 33962, Note_on_c, 0, 70, 0
2, 33996, Note_on_c, 0, 56, 46
2, 34005, Note_on_c, 0, 72, 71
2, 34024, Note_on_c, 0, 56, 0
2, 34061, Note_on_c, 0, 72, 0
2, 34110, Note_on_c, 0, 68, 55
2, 34136, Note_on_c, 0, 68, 0
2, 34175, Note_on_c, 0, 66, 55
2, 34199, Note_on_c, 0, 66, 0
2, 34263, Note_on_c, 0, 68, 63
2, 34294, Note_on_c, 0, 68, 0
2, 34351, Note_on_c, 0, 63, 63
2, 34385, Note_on_c, 0, 63, 0
2, 34412, Note_on_c, 0, 68, 60
2, 34446, Note_on_c, 0, 68, 0
2, 34507, Note_on_c, 0, 56, 62
2, 34516, Note_on_c, 0, 72, 73
2, 34546, Note_on_c, 0, 56, 0
2, 34581, Note_on_c, 0, 72, 0
2, 34608, Note_on_c, 0, 68, 56
2, 34630, Note_on_c, 0, 68, 0
2, 34691, Note_on_c, 0, 66, 59
2, 34721, Note_on_c, 0, 66, 0
2, 34768, Note_on_c, 0, 68, 53
2, 34797, Note_on_c, 0, 68, 0
2, 34871, Note_on_c, 0, 63, 61
2, 34906, Note_on_c, 0, 63, 0
2, 34933, Note_on_c, 0, 68, 57
2, 34974, Note_on_c, 0, 68, 0
2, 35026, Note_on_c, 0, 73, 73
2, 35027, Note_on_c, 0, 56, 57
2, 35070, Note_on_c, 0, 56, 0
2, 35097, Note_on_c, 0, 73, 0
2, 35112, Note_on_c, 0, 68, 57
2, 35139, Note_on_c, 0, 68, 0
2, 35201, Note_on_c, 0, 65, 55
2, 35225, Note_on_c, 0, 65, 0
2, 35274, Note_on_c, 0, 68, 57
2, 35296, Note_on_c, 0, 68, 0
2, 35376, Note_on_c, 0, 61, 62
2, 35410, Note_on_c, 0, 61, 0
2, 35422, Note_on_c, 0, 68, 56
2, 35462, Note_on_c, 0, 68, 0
2, 35535, Note_on_c, 0, 56, 59
2, 35535, Note_on_c, 0, 73, 79
2, 35588, Note_on_c, 0, 56, 0
2, 35614, Note_on_c, 0, 73, 0
2, 35633, Note_on_c, 0, 68, 67
2, 35666, Note_on_c, 0, 68, 0
2, 35720, Note_on_c, 0, 65, 67
2, 35754, Note_on_c, 0, 65, 0
2, 35785, Note_on_c, 0, 68, 69
2, 35817, Note_on_c, 0, 68, 0
2, 35891, Note_on_c, 0, 61, 66
2, 35927, Note_on_c, 0, 61, 0
2, 35965, Note_on_c, 0, 68, 54
2, 36011, Note_on_c, 0, 68, 0
2, 36049, Note_on_c, 0, 56, 59
2, 36056, Note_on_c, 0, 78, 85
2, 36091, Note_on_c, 0, 56, 0
2, 36154, Note_on_c, 0, 68, 67
2, 36159, Note_on_c, 0, 78, 0
2, 36186, Note_on_c, 0, 68, 0
2, 36229, Note_on_c, 0, 63, 67
2, 36262, Note_on_c, 0, 63, 0
2, 36302, Note_on_c, 0, 68, 73
2, 36348, Note_on_c, 0, 68, 0
2, 36416, Note_on_c, 0, 60, 70
2, 36457, Note_on_c, 0, 60, 0
2, 36475, Note_on_c, 0, 68, 63
2, 36553, Note_on_c, 0, 68, 0
2, 36581, Note_on_c, 0, 56, 62
2, 36586, Note_on_c, 0, 78, 82
2, 36632, Note_on_c, 0, 56, 0
2, 36674, Note_on_c, 0, 68, 68
2, 36678, Note_on_c, 0, 78, 0
2, 36714, Note_on_c, 0, 68, 0
2, 36765, Note_on_c, 0, 63, 63
2, 36804, Note_on_c, 0, 63, 0
2, 36834, Note_on_c, 0, 68, 64
2, 36868, Note_on_c, 0, 68, 0
2, 36932, Note_on_c, 0, 60, 59
2, 36978, Note_on_c, 0, 60, 0
2, 37001, Note_on_c, 0, 68, 49
2, 37064, Note_on_c, 0, 68, 0
2, 37114, Note_on_c, 0, 56, 48
2, 37115, Note_on_c, 0, 77, 67
2, 37157, Note_on_c, 0, 56, 0
2, 37201, Note_on_c, 0, 68, 58
2, 37201, Note_on_c, 0, 77, 0
2, 37245, Note_on_c, 0, 68, 0
2, 37293, Note_on_c, 0, 65, 54
2, 37339, Note_on_c, 0, 65, 0
2, 37378, Note_on_c, 0, 68, 53
2, 37406, Note_on_c, 0, 68, 0
2, 37466, Note_on_c, 0, 61, 51
2, 37508, Note_on_c, 0, 61, 0
2, 37522, Note_on_c, 0, 68, 50
2, 37617, Note_on_c, 0, 68, 0
2, 37624, Note_on_c, 0, 56, 45
2, 37635, Note_on_c, 0, 77, 71
2, 37670, Note_on_c, 0, 56, 0
2, 37726, Note_on_c, 0, 77, 0
2, 37739, Note_on_c, 0, 68, 55
2, 37773, Note_on_c, 0, 68, 0
2, 37806, Note_on_c, 0, 65, 57
2, 37853, Note_on_c, 0, 65, 0
2, 37899, Note_on_c, 0, 68, 64
2, 37933, Note_on_c, 0, 68, 0
2, 37989, Note_on_c, 0, 61, 62
2, 38029, Note_on_c, 0, 61, 0
2, 38056, Note_on_c, 0, 68, 69
2, 38111, Note_on_c, 0, 68, 0
2, 38153, Note_on_c, 0, 56, 61
2, 38155, Note_on_c, 0, 79, 82
2, 38200, Note_on_c, 0, 56, 0
2, 38230, Note_on_c, 0, 79, 0
2, 38250, Note_on_c, 0, 70, 65
2, 38290, Note_on_c, 0, 70, 0
2, 38330, Note_on_c, 0, 64, 71
2, 38390, Note_on_c, 0, 64, 0
2, 38411, Note_on_c, 0, 70, 68
2, 38449, Note_on_c, 0, 70, 0
2, 38511, Note_on_c, 0, 61, 67
2, 38545, Note_on_c, 0, 61, 0
2, 38579, Note_on_c, 0, 70, 69
2, 38636, Note_on_c, 0, 70, 0
2, 38676, Note_on_c, 0, 56, 65
2, 38680, Note_on_c, 0, 79, 88
2, 38719, Note_on_c, 0, 56, 0
2, 38776, Note_on_c, 0, 70, 64
2, 38776, Note_on_c, 0, 79, 0
2, 38815, Note_on_c, 0, 70, 0
2, 38852, Note_on_c, 0, 64, 68
2, 38892, Note_on_c, 0, 64, 0
2, 38935, Note_on_c, 0, 70, 64
2, 38963, Note_on_c, 0, 70, 0
2, 39026, Note_on_c, 0, 61, 55
2, 39065, Note_on_c, 0, 61, 0
2, 39066, Note_on_c, 0, 70, 60
2, 39135, Note_on_c, 0, 70, 0
2, 39176, Note_on_c, 0, 80, 64
2, 39178, Note_on_c, 0, 56, 54
2, 39225, Note_on_c, 0, 56, 0
2, 39257, Note_on_c, 0, 72, 68
2, 39259, Note_on_c, 0, 80, 0
2, 39287, Note_on_c, 0, 72, 0
2, 39356, Note_on_c, 0, 63, 61
2, 39391, Note_on_c, 0, 63, 0
2, 39447, Note_on_c, 0, 72, 70
2, 39484, Note_on_c, 0, 72, 0
2, 39534, Note_on_c, 0, 60, 74
2, 39572, Note_on_c, 0, 60, 0
2, 39603, Note_on_c, 0, 72, 73
2, 39631, Control_c, 0, 67, 127
2, 39641, Note_on_c, 0, 72, 0
2, 39644, Control_c, 0, 67, 126
2, 39674, Control_c, 0, 67, 125
2, 39690, Control_c, 0, 67, 123
2, 39703, Note_on_c, 0, 54, 68
2, 39703, Note_on_c, 0, 80, 82
2, 39705, Control_c, 0, 67, 106
2, 39720, Control_c, 0, 64, 45
2, 39720, Control_c, 0, 67, 83
2, 39736, Control_c, 0, 64, 58
2, 39736, Control_c, 0, 67, 57
2, 39751, Control_c, 0, 64, 63
2, 39751, Control_c, 0, 67, 24
2, 39756, Note_on_c, 0, 54, 0
2, 39765, Control_c, 0, 64, 64
2, 39765, Control_c, 0, 67, 0
2, 39781, Control_c, 0, 64, 64
2, 39788, Note_on_c, 0, 72, 75
2, 39796, Control_c, 0, 64, 62
2, 39812, Control_c, 0, 64, 58
2, 39815, Note_on_c, 0, 80, 0
2, 39827, Control_c, 0, 64, 51
2, 39827, Note_on_c, 0, 72, 0
2, 39842, Control_c, 0, 64, 35
2, 39858, Control_c, 0, 64, 0
2, 39882, Note_on_c, 0, 63, 75
2, 39916, Note_on_c, 0, 63, 0
2, 39961, Note_on_c, 0, 72, 72
2, 40001, Note_on_c, 0, 72, 0
2, 40049, Note_on_c, 0, 60, 79
2, 40105, Note_on_c, 0, 60, 0
2, 40115, Note_on_c, 0, 72, 77
2, 40166, Note_on_c, 0, 72, 0
2, 40219, Note_on_c, 0, 53, 75
2, 40231, Note_on_c, 0, 80, 83
2, 40245, Control_c, 0, 64, 45
2, 40261, Control_c, 0, 64, 61
2, 40276, Control_c, 0, 64, 65
2, 40285, Note_on_c, 0, 53, 0
2, 40292, Control_c, 0, 64, 66
2, 40307, Control_c, 0, 64, 65
2, 40321, Control_c, 0, 64, 63
2, 40331, Note_on_c, 0, 73, 75
2, 40332, Note_on_c, 0, 80, 0
2, 40337, Control_c, 0, 64, 58
2, 40352, Control_c, 0, 64, 49
2, 40367, Control_c, 0, 64, 37
2, 40369, Note_on_c, 0, 73, 0
2, 40383, Control_c, 0, 64, 29
2, 40397, Control_c, 0, 64, 26
2, 40405, Note_on_c, 0, 65, 74
2, 40413, Control_c, 0, 64, 20
2, 40428, Control_c, 0, 64, 16
2, 40442, Control_c, 0, 64, 15
2, 40450, Note_on_c, 0, 65, 0
2, 40458, Control_c, 0, 64, 14
2, 40481, Note_on_c, 0, 68, 77
2, 40489, Control_c, 0, 64, 12
2, 40536, Note_on_c, 0, 68, 0
2, 40563, Control_c, 0, 64, 10
2, 40582, Note_on_c, 0, 61, 77
2, 40594, Control_c, 0, 64, 8
2, 40610, Control_c, 0, 64, 0
2, 40645, Note_on_c, 0, 73, 82
2, 40662, Note_on_c, 0, 61, 0
2, 40694, Note_on_c, 0, 73, 0
2, 40746, Note_on_c, 0, 56, 83
2, 40798, Note_on_c, 0, 56, 0
2, 40837, Note_on_c, 0, 77, 82
2, 40892, Note_on_c, 0, 77, 0
2, 40926, Note_on_c, 0, 53, 86
2, 40994, Note_on_c, 0, 53, 0
2, 41023, Note_on_c, 0, 80, 89
2, 41077, Note_on_c, 0, 80, 0
2, 41101, Note_on_c, 0, 51, 77
2, 41157, Note_on_c, 0, 51, 0
2, 41178, Note_on_c, 0, 82, 88
2, 41227, Note_on_c, 0, 82, 0
2, 41264, Note_on_c, 0, 50, 67
2, 41279, Note_on_c, 0, 83, 82
2, 41344, Note_on_c, 0, 50, 0
2, 41366, Note_on_c, 0, 82, 80
2, 41389, Note_on_c, 0, 83, 0
2, 41433, Note_on_c, 0, 53, 62
2, 41444, Note_on_c, 0, 80, 81
2, 41481, Note_on_c, 0, 82, 0
2, 41503, Note_on_c, 0, 53, 0
2, 41517, Note_on_c, 0, 78, 82
2, 41537, Note_on_c, 0, 80, 0
2, 41592, Note_on_c, 0, 78, 0
2, 41605, Note_on_c, 0, 58, 69
2, 41610, Note_on_c, 0, 77, 85
2, 41690, Note_on_c, 0, 58, 0
2, 41691, Note_on_c, 0, 75, 80
2, 41692, Note_on_c, 0, 77, 0
2, 41760, Note_on_c, 0, 75, 0
2, 41786, Note_on_c, 0, 62, 69
2, 41790, Note_on_c, 0, 77, 84
2, 41839, Note_on_c, 0, 62, 0
2, 41866, Note_on_c, 0, 77, 0
2, 41873, Note_on_c, 0, 78, 83
2, 41945, Note_on_c, 0, 65, 75
2, 41962, Note_on_c, 0, 80, 86
2, 41974, Note_on_c, 0, 78, 0
2, 42014, Note_on_c, 0, 65, 0
2, 42042, Note_on_c, 0, 80, 0
2, 42057, Note_on_c, 0, 83, 70
2, 42064, Note_on_c, 0, 82, 58
2, 42113, Note_on_c, 0, 68, 79
2, 42113, Note_on_c, 0, 82, 0
2, 42127, Note_on_c, 0, 82, 63
2, 42150, Note_on_c, 0, 68, 0
2, 42155, Note_on_c, 0, 83, 0
2, 42218, Note_on_c, 0, 80, 80
2, 42229, Note_on_c, 0, 82, 0
2, 42276, Note_on_c, 0, 66, 77
2, 42298, Control_c, 0, 64, 30
2, 42307, Note_on_c, 0, 82, 81
2, 42312, Note_on_c, 0, 80, 0
2, 42313, Control_c, 0, 64, 54
2, 42329, Control_c, 0, 64, 60
2, 42329, Note_on_c, 0, 66, 0
2, 42343, Control_c, 0, 64, 59
2, 42358, Control_c, 0, 64, 56
2, 42371, Note_on_c, 0, 75, 73
2, 42374, Control_c, 0, 64, 48
2, 42376, Note_on_c, 0, 82, 0
2, 42389, Control_c, 0, 64, 0
2, 42398, Note_on_c, 0, 75, 0
2, 42457, Note_on_c, 0, 63, 70
2, 42525, Note_on_c, 0, 63, 0
2, 42536, Note_on_c, 0, 66, 67
2, 42570, Note_on_c, 0, 66, 0
2, 42626, Note_on_c, 0, 58, 71
2, 42658, Note_on_c, 0, 58, 0
2, 42710, Note_on_c, 0, 70, 69
2, 42741, Note_on_c, 0, 70, 0
2, 42793, Note_on_c, 0, 54, 69
2, 42829, Note_on_c, 0, 54, 0
2, 42869, Control_c, 0, 67, 14
2, 42881, Note_on_c, 0, 75, 77
2, 42884, Control_c, 0, 67, 26
2, 42900, Control_c, 0, 67, 39
2, 42915, Control_c, 0, 67, 50
2, 42917, Note_on_c, 0, 75, 0
2, 42931, Control_c, 0, 67, 62
2, 42946, Control_c, 0, 67, 73
2, 42960, Control_c, 0, 67, 82
2, 42975, Note_on_c, 0, 51, 66
2, 42976, Control_c, 0, 67, 92
2, 42991, Control_c, 0, 67, 104
2, 43006, Control_c, 0, 67, 116
2, 43016, Note_on_c, 0, 51, 0
2, 43022, Control_c, 0, 67, 127
2, 43053, Note_on_c, 0, 78, 69
2, 43093, Note_on_c, 0, 78, 0
2, 43143, Note_on_c, 0, 49, 55
2, 43183, Note_on_c, 0, 49, 0
2, 43199, Note_on_c, 0, 80, 65
2, 43246, Note_on_c, 0, 80, 0
2, 43303, Note_on_c, 0, 48, 47
2, 43311, Note_on_c, 0, 81, 59
2, 43352, Note_on_c, 0, 48, 0
2, 43386, Note_on_c, 0, 80, 62
2, 43401, Note_on_c, 0, 81, 0
2, 43461, Note_on_c, 0, 51, 54
2, 43474, Note_on_c, 0, 80, 0
2, 43477, Note_on_c, 0, 78, 68
2, 43505, Note_on_c, 0, 51, 0
2, 43527, Note_on_c, 0, 78, 0
2, 43550, Note_on_c, 0, 76, 67
2, 43636, Note_on_c, 0, 56, 61
2, 43645, Note_on_c, 0, 75, 68
2, 43645, Note_on_c, 0, 76, 0
2, 43676, Note_on_c, 0, 56, 0
2, 43721, Note_on_c, 0, 75, 0
2, 43732, Note_on_c, 0, 73, 70
2, 43813, Note_on_c, 0, 73, 0
2, 43817, Note_on_c, 0, 60, 61
2, 43819, Note_on_c, 0, 75, 70
2, 43854, Note_on_c, 0, 75, 0
2, 43862, Note_on_c, 0, 60, 0
2, 43885, Note_on_c, 0, 76, 75
2, 43967, Note_on_c, 0, 76, 0
2, 43974, Note_on_c, 0, 63, 65
2, 43979, Note_on_c, 0, 78, 76
2, 44011, Note_on_c, 0, 63, 0
2, 44061, Note_on_c, 0, 78, 0
2, 44067, Note_on_c, 0, 81, 73
2, 44147, Note_on_c, 0, 80, 76
2, 44150, Note_on_c, 0, 66, 67
2, 44166, Note_on_c, 0, 81, 0
2, 44184, Note_on_c, 0, 66, 0
2, 44230, Note_on_c, 0, 78, 79
2, 44231, Note_on_c, 0, 80, 0
2, 44315, Note_on_c, 0, 78, 0
2, 44318, Note_on_c, 0, 64, 68
2, 44322, Note_on_c, 0, 80, 84
2, 44374, Note_on_c, 0, 64, 0
2, 44378, Note_on_c, 0, 80, 0
2, 44398, Note_on_c, 0, 73, 68
2, 44434, Note_on_c, 0, 73, 0
2, 44496, Note_on_c, 0, 61, 71
2, 44548, Note_on_c, 0, 61, 0
2, 44572, Note_on_c, 0, 76, 70
2, 44605, Note_on_c, 0, 76, 0
2, 44660, Note_on_c, 0, 57, 77
2, 44704, Note_on_c, 0, 57, 0
2, 44738, Note_on_c, 0, 73, 78
2, 44780, Note_on_c, 0, 73, 0
2, 44844, Note_on_c, 0, 54, 76
2, 44905, Note_on_c, 0, 54, 0
2, 44913, Note_on_c, 0, 69, 75
2, 44952, Note_on_c, 0, 69, 0
2, 45016, Note_on_c, 0, 63, 79
2, 45064, Note_on_c, 0, 63, 0
2, 45073, Note_on_c, 0, 66, 77
2, 45130, Note_on_c, 0, 66, 0
2, 45188, Note_on_c, 0, 60, 76
2, 45239, Note_on_c, 0, 60, 0
2, 45245, Note_on_c, 0, 75, 78
2, 45311, Note_on_c, 0, 75, 0
2, 45346, Note_on_c, 0, 52, 77
2, 45400, Note_on_c, 0, 52, 0
2, 45433, Note_on_c, 0, 68, 82
2, 45490, Note_on_c, 0, 68, 0
2, 45523, Note_on_c, 0, 61, 82
2, 45587, Note_on_c, 0, 61, 0
2, 45622, Note_on_c, 0, 64, 78
2, 45655, Note_on_c, 0, 64, 0
2, 45699, Note_on_c, 0, 57, 80
2, 45744, Note_on_c, 0, 57, 0
2, 45801, Note_on_c, 0, 73, 79
2, 45861, Note_on_c, 0, 73, 0
2, 45876, Note_on_c, 0, 54, 82
2, 45920, Note_on_c, 0, 54, 0
2, 45969, Note_on_c, 0, 69, 76
2, 46004, Note_on_c, 0, 69, 0
2, 46047, Note_on_c, 0, 51, 71
2, 46096, Note_on_c, 0, 51, 0
2, 46131, Note_on_c, 0, 66, 68
2, 46164, Note_on_c, 0, 66, 0
2, 46202, Note_on_c, 0, 48, 53
2, 46247, Note_on_c, 0, 48, 0
2, 46284, Note_on_c, 0, 63, 50
2, 46310, Note_on_c, 0, 63, 0
2, 46354, Note_on_c, 0, 44, 52
2, 46392, Note_on_c, 0, 44, 0
2, 46399, Note_on_c, 0, 60, 56
2, 46449, Note_on_c, 0, 60, 0
2, 46491, Note_on_c, 0, 57, 44
2, 46520, Note_on_c, 0, 57, 0
2, 46536, Note_on_c, 0, 54, 57
2, 46569, Note_on_c, 0, 54, 0
2, 46629, Note_on_c, 0, 56, 59
2, 46664, Note_on_c, 0, 56, 0
2, 46710, Note_on_c, 0, 51, 63
2, 46745, Note_on_c, 0, 51, 0
2, 46782, Note_on_c, 0, 56, 55
2, 46823, Note_on_c, 0, 56, 0
2, 46877, Note_on_c, 0, 44, 44
2, 46890, Note_on_c, 0, 60, 67
2, 46909, Note_on_c, 0, 44, 0
2, 46955, Note_on_c, 0, 60, 0
2, 46977, Note_on_c, 0, 56, 55
2, 47001, Note_on_c, 0, 56, 0
2, 47059, Note_on_c, 0, 54, 55
2, 47100, Note_on_c, 0, 54, 0
2, 47130, Note_on_c, 0, 56, 58
2, 47171, Note_on_c, 0, 56, 0
2, 47224, Note_on_c, 0, 51, 65
2, 47265, Note_on_c, 0, 51, 0
2, 47293, Note_on_c, 0, 56, 59
2, 47346, Note_on_c, 0, 56, 0
2, 47386, Note_on_c, 0, 44, 56
2, 47392, Note_on_c, 0, 61, 71
2, 47428, Note_on_c, 0, 44, 0
2, 47467, Note_on_c, 0, 61, 0
2, 47479, Note_on_c, 0, 56, 58
2, 47511, Note_on_c, 0, 56, 0
2, 47567, Note_on_c, 0, 53, 63
2, 47600, Note_on_c, 0, 53, 0
2, 47626, Note_on_c, 0, 56, 52
2, 47666, Note_on_c, 0, 56, 0
2, 47731, Note_on_c, 0, 49, 62
2, 47770, Note_on_c, 0, 49, 0
2, 47786, Note_on_c, 0, 56, 57
2, 47829, Note_on_c, 0, 56, 0
2, 47909, Note_on_c, 0, 61, 79
2, 47911, Note_on_c, 0, 44, 49
2, 47951, Note_on_c, 0, 44, 0
2, 47974, Note_on_c, 0, 61, 0
2, 47998, Note_on_c, 0, 56, 71
2, 48034, Note_on_c, 0, 56, 0
2, 48077, Note_on_c, 0, 53, 69
2, 48115, Note_on_c, 0, 53, 0
2, 48149, Note_on_c, 0, 56, 70
2, 48182, Note_on_c, 0, 56, 0
2, 48233, Note_on_c, 0, 49, 64
2, 48271, Note_on_c, 0, 49, 0
2, 48312, Note_on_c, 0, 56, 65
2, 48388, Note_on_c, 0, 56, 0
2, 48412, Note_on_c, 0, 44, 60
2, 48426, Note_on_c, 0, 66, 79
2, 48455, Note_on_c, 0, 44, 0
2, 48513, Note_on_c, 0, 56, 70
2, 48520, Note_on_c, 0, 66, 0
2, 48546, Note_on_c, 0, 56, 0
2, 48596, Note_on_c, 0, 51, 62
2, 48643, Note_on_c, 0, 51, 0
2, 48674, Note_on_c, 0, 56, 69
2, 48711, Note_on_c, 0, 56, 0
2, 48771, Note_on_c, 0, 48, 59
2, 48810, Note_on_c, 0, 48, 0
2, 48827, Note_on_c, 0, 56, 62
2, 48900, Note_on_c, 0, 56, 0
2, 48925, Note_on_c, 0, 44, 55
2, 48946, Note_on_c, 0, 66, 74
2, 48975, Note_on_c, 0, 44, 0
2, 49029, Note_on_c, 0, 56, 60
2, 49030, Note_on_c, 0, 66, 0
2, 49069, Note_on_c, 0, 56, 0
2, 49106, Note_on_c, 0, 51, 61
2, 49147, Note_on_c, 0, 51, 0
2, 49191, Note_on_c, 0, 56, 57
2, 49235, Note_on_c, 0, 56, 0
2, 49279, Note_on_c, 0, 48, 44
2, 49326, Note_on_c, 0, 48, 0
2, 49352, Note_on_c, 0, 56, 51
2, 49420, Note_on_c, 0, 56, 0
2, 49461, Note_on_c, 0, 44, 43
2, 49470, Note_on_c, 0, 65, 65
2, 49498, Note_on_c, 0, 44, 0
2, 49551, Note_on_c, 0, 56, 56
2, 49556, Note_on_c, 0, 65, 0
2, 49591, Note_on_c, 0, 56, 0
2, 49639, Note_on_c, 0, 53, 55
2, 49683, Note_on_c, 0, 53, 0
2, 49717, Note_on_c, 0, 56, 55
2, 49750, Note_on_c, 0, 56, 0
2, 49802, Note_on_c, 0, 49, 54
2, 49843, Note_on_c, 0, 49, 0
2, 49877, Note_on_c, 0, 56, 53
2, 49932, Note_on_c, 0, 56, 0
2, 49960, Note_on_c, 0, 44, 50
2, 49971, Note_on_c, 0, 65, 74
2, 50002, Note_on_c, 0, 44, 0
2, 50057, Note_on_c, 0, 56, 60
2, 50068, Note_on_c, 0, 65, 0
2, 50099, Note_on_c, 0, 56, 0
2, 50137, Note_on_c, 0, 53, 67
2, 50192, Note_on_c, 0, 53, 0
2, 50213, Note_on_c, 0, 56, 70
2, 50253, Note_on_c, 0, 56, 0
2, 50315, Note_on_c, 0, 49, 67
2, 50350, Note_on_c, 0, 49, 0
2, 50384, Note_on_c, 0, 56, 71
2, 50432, Note_on_c, 0, 56, 0
2, 50442, Control_c, 0, 67, 127
2, 50458, Control_c, 0, 67, 125
2, 50479, Note_on_c, 0, 44, 64
2, 50479, Note_on_c, 0, 67, 81
2, 50487, Control_c, 0, 67, 124
2, 50503, Control_c, 0, 67, 121
2, 50518, Control_c, 0, 67, 112
2, 50518, Note_on_c, 0, 44, 0
2, 50534, Control_c, 0, 67, 102
2, 50549, Control_c, 0, 67, 85
2, 50563, Control_c, 0, 67, 73
2, 50573, Note_on_c, 0, 67, 0
2, 50575, Note_on_c, 0, 58, 67
2, 50579, Control_c, 0, 67, 65
2, 50594, Control_c, 0, 67, 58
2, 50610, Control_c, 0, 67, 51
2, 50611, Note_on_c, 0, 58, 0
2, 50625, Control_c, 0, 67, 42
2, 50639, Control_c, 0, 67, 28
2, 50653, Note_on_c, 0, 52, 77
2, 50655, Control_c, 0, 67, 14
2, 50670, Control_c, 0, 67, 0
2, 50694, Note_on_c, 0, 52, 0
2, 50739, Note_on_c, 0, 58, 69
2, 50771, Note_on_c, 0, 58, 0
2, 50815, Note_on_c, 0, 49, 72
2, 50866, Note_on_c, 0, 49, 0
2, 50897, Note_on_c, 0, 58, 73
2, 50956, Note_on_c, 0, 58, 0
2, 50990, Note_on_c, 0, 44, 71
2, 51000, Note_on_c, 0, 67, 86
2, 51057, Note_on_c, 0, 44, 0
2, 51084, Note_on_c, 0, 58, 75
2, 51091, Note_on_c, 0, 67, 0
2, 51126, Note_on_c, 0, 58, 0
2, 51166, Note_on_c, 0, 52, 74
2, 51205, Note_on_c, 0, 52, 0
2, 51234, Note_on_c, 0, 58, 77
2, 51282, Note_on_c, 0, 58, 0
2, 51325, Note_on_c, 0, 49, 69
2, 51369, Note_on_c, 0, 49, 0
2, 51396, Note_on_c, 0, 58, 77
2, 51451, Note_on_c, 0, 58, 0
2, 51491, Note_on_c, 0, 44, 69
2, 51573, Note_on_c, 0, 48, 72
2, 51600, Note_on_c, 0, 44, 0
2, 51662, Note_on_c, 0, 51, 82
2, 51665, Note_on_c, 0, 48, 0
2, 51718, Note_on_c, 0, 51, 0
2, 51745, Note_on_c, 0, 54, 75
2, 51822, Note_on_c, 0, 57, 74
2, 51824, Note_on_c, 0, 54, 0
2, 51909, Note_on_c, 0, 60, 79
2, 51925, Note_on_c, 0, 57, 0
2, 51971, Note_on_c, 0, 60, 0
2, 51993, Note_on_c, 0, 61, 74
2, 52083, Note_on_c, 0, 64, 80
2, 52093, Note_on_c, 0, 61, 0
2, 52173, Note_on_c, 0, 67, 82
2, 52200, Note_on_c, 0, 64, 0
2, 52211, Note_on_c, 0, 67, 0
2, 52237, Note_on_c, 0, 70, 77
2, 52325, Note_on_c, 0, 73, 81
2, 52356, Note_on_c, 0, 70, 0
2, 52416, Note_on_c, 0, 73, 0
2, 52420, Note_on_c, 0, 76, 70
2, 52454, Note_on_c, 0, 76, 0
2, 52495, Note_on_c, 0, 44, 77
2, 52495, Note_on_c, 0, 72, 83
2, 52517, Control_c, 0, 64, 49
2, 52534, Control_c, 0, 64, 63
2, 52549, Control_c, 0, 64, 71
2, 52563, Control_c, 0, 64, 82
2, 52579, Control_c, 0, 64, 107
2, 52584, Note_on_c, 0, 75, 82
2, 52587, Note_on_c, 0, 72, 0
2, 52588, Note_on_c, 0, 44, 0
2, 52594, Control_c, 0, 64, 127
2, 52662, Note_on_c, 0, 75, 0
2, 52672, Note_on_c, 0, 78, 78
2, 52685, Control_c, 0, 64, 123
2, 52701, Control_c, 0, 64, 96
2, 52716, Control_c, 0, 64, 79
2, 52732, Control_c, 0, 64, 68
2, 52747, Control_c, 0, 64, 58
2, 52760, Note_on_c, 0, 75, 84
2, 52761, Control_c, 0, 64, 46
2, 52777, Control_c, 0, 64, 46
2, 52788, Note_on_c, 0, 78, 0
2, 52817, Note_on_c, 0, 75, 0
2, 52845, Note_on_c, 0, 72, 72
2, 52853, Control_c, 0, 64, 45
2, 52923, Note_on_c, 0, 68, 79
2, 52926, Note_on_c, 0, 72, 0
2, 53015, Note_on_c, 0, 68, 0
2, 53016, Note_on_c, 0, 66, 77
2, 53099, Note_on_c, 0, 63, 69
2, 53133, Note_on_c, 0, 66, 0
2, 53185, Note_on_c, 0, 60, 74
2, 53195, Note_on_c, 0, 63, 0
2, 53287, Note_on_c, 0, 60, 0
2, 53289, Note_on_c, 0, 56, 75
2, 53387, Note_on_c, 0, 60, 73
2, 53388, Note_on_c, 0, 56, 0
2, 53464, Note_on_c, 0, 60, 0
2, 53467, Control_c, 0, 64, 45
2, 53469, Note_on_c, 0, 63, 71
2, 53482, Control_c, 0, 64, 43
2, 53498, Control_c, 0, 64, 40
2, 53513, Control_c, 0, 64, 34
2, 53527, Control_c, 0, 64, 23
2, 53543, Control_c, 0, 64, 16
2, 53549, Note_on_c, 0, 63, 0
2, 53550, Note_on_c, 0, 65, 72
2, 53559, Note_on_c, 0, 56, 66
2, 53589, Control_c, 0, 64, 30
2, 53603, Control_c, 0, 64, 45
2, 53619, Control_c, 0, 64, 55
2, 53634, Control_c, 0, 64, 62
2, 53636, Note_on_c, 0, 68, 76
2, 53641, Note_on_c, 0, 65, 0
2, 53648, Control_c, 0, 64, 66
2, 53664, Control_c, 0, 64, 69
2, 53671, Note_on_c, 0, 56, 0
2, 53679, Control_c, 0, 64, 72
2, 53694, Control_c, 0, 64, 75
2, 53703, Note_on_c, 0, 68, 0
2, 53710, Control_c, 0, 64, 79
2, 53718, Note_on_c, 0, 73, 76
2, 53724, Control_c, 0, 64, 80
2, 53755, Control_c, 0, 64, 78
2, 53770, Control_c, 0, 64, 75
2, 53785, Control_c, 0, 64, 71
2, 53795, Note_on_c, 0, 68, 79
2, 53800, Control_c, 0, 64, 66
2, 53811, Note_on_c, 0, 73, 0
2, 53816, Control_c, 0, 64, 62
2, 53831, Control_c, 0, 64, 56
2, 53846, Control_c, 0, 64, 53
2, 53861, Control_c, 0, 64, 52
2, 53876, Control_c, 0, 64, 50
2, 53883, Note_on_c, 0, 68, 0
2, 53887, Note_on_c, 0, 65, 65
2, 53891, Control_c, 0, 64, 46
2, 53897, Note_on_c, 0, 64, 66
2, 53907, Control_c, 0, 64, 42
2, 53921, Note_on_c, 0, 64, 0
2, 53922, Control_c, 0, 64, 40
2, 53938, Control_c, 0, 64, 40
2, 53949, Note_on_c, 0, 65, 0
2, 53953, Control_c, 0, 64, 39
2, 53967, Note_on_c, 0, 61, 72
2, 53968, Control_c, 0, 64, 39
2, 53983, Control_c, 0, 64, 38
2, 54005, Control_c, 0, 64, 38
2, 54065, Note_on_c, 0, 58, 78
2, 54069, Note_on_c, 0, 61, 0
2, 54153, Note_on_c, 0, 55, 70
2, 54191, Note_on_c, 0, 58, 0
2, 54245, Note_on_c, 0, 52, 68
2, 54253, Note_on_c, 0, 55, 0
2, 54296, Control_c, 0, 64, 37
2, 54325, Control_c, 0, 64, 36
2, 54331, Note_on_c, 0, 49, 76
2, 54334, Note_on_c, 0, 52, 0
2, 54341, Control_c, 0, 64, 35
2, 54356, Control_c, 0, 64, 34
2, 54371, Control_c, 0, 64, 32
2, 54387, Control_c, 0, 64, 32
2, 54402, Control_c, 0, 64, 31
2, 54417, Control_c, 0, 64, 31
2, 54427, Note_on_c, 0, 49, 0
2, 54429, Note_on_c, 0, 52, 79
2, 54432, Control_c, 0, 64, 30
2, 54447, Control_c, 0, 64, 30
2, 54492, Control_c, 0, 64, 29
2, 54504, Note_on_c, 0, 52, 0
2, 54506, Note_on_c, 0, 55, 74
2, 54577, Note_on_c, 0, 55, 0
2, 54601, Note_on_c, 0, 44, 84
2, 54874, Note_on_c, 0, 73, 84
2, 54879, Note_on_c, 0, 56, 77
2, 54884, Note_on_c, 0, 49, 46
2, 54885, Note_on_c, 0, 65, 65
2, 54888, Note_on_c, 0, 68, 67
2, 54889, Note_on_c, 0, 53, 61
2, 54904, Note_on_c, 0, 65, 0
2, 54910, Control_c, 0, 64, 29
2, 54915, Note_on_c, 0, 56, 0
2, 54919, Note_on_c, 0, 68, 0
2, 54919, Note_on_c, 0, 73, 0
2, 54925, Note_on_c, 0, 53, 0
2, 54937, Note_on_c, 0, 49, 0
2, 54941, Control_c, 0, 64, 28
2, 55176, Note_on_c, 0, 72, 82
2, 55177, Note_on_c, 0, 63, 73
2, 55180, Note_on_c, 0, 68, 73
2, 55185, Note_on_c, 0, 54, 65
2, 55186, Note_on_c, 0, 56, 66
2, 55203, Note_on_c, 0, 51, 57
2, 55203, Note_on_c, 0, 63, 0
2, 55214, Note_on_c, 0, 68, 0
2, 55223, Note_on_c, 0, 56, 0
2, 55228, Note_on_c, 0, 72, 0
2, 55231, Control_c, 0, 64, 28
2, 55234, Note_on_c, 0, 54, 0
2, 55237, Note_on_c, 0, 51, 0
2, 55622, Note_on_c, 0, 53, 35
2, 55622, Note_on_c, 0, 73, 54
2, 55625, Note_on_c, 0, 56, 14
2, 55625, Note_on_c, 0, 61, 44
2, 55625, Note_on_c, 0, 68, 48
2, 55628, Note_on_c, 0, 49, 31
2, 55648, Control_c, 0, 64, 28
2, 55720, Note_on_c, 0, 44, 0
2, 55801, Control_c, 0, 64, 29
2, 55817, Control_c, 0, 64, 31
2, 55832, Control_c, 0, 64, 34
2, 55846, Control_c, 0, 64, 36
2, 55862, Control_c, 0, 64, 40
2, 55877, Control_c, 0, 64, 44
2, 55892, Control_c, 0, 64, 48
2, 55907, Control_c, 0, 64, 52
2, 55922, Control_c, 0, 64, 56
2, 55938, Control_c, 0, 64, 60
2, 55953, Control_c, 0, 64, 63
2, 55968, Control_c, 0, 64, 65
2, 55983, Control_c, 0, 64, 68
2, 55998, Control_c, 0, 64, 71
2, 56013, Control_c, 0, 64, 77
2, 56029, Control_c, 0, 64, 86
2, 56044, Control_c, 0, 64, 105
2, 56060, Control_c, 0, 64, 127
2, 56671, Note_on_c, 0, 61, 0
2, 56707, Note_on_c, 0, 73, 0
2, 56743, Note_on_c, 0, 56, 0
2, 56759, Note_on_c, 0, 68, 0
2, 56766, Control_c, 0, 64, 112
2, 56781, Note_on_c, 0, 53, 0
2, 56782, Control_c, 0, 64, 107
2, 56797, Control_c, 0, 64, 102
2, 56812, Control_c, 0, 64, 95
2, 56814, Note_on_c, 0, 49, 0
2, 56827, Control_c, 0, 64, 89
2, 56842, Control_c, 0, 64, 82
2, 56858, Control_c, 0, 64, 75
2, 56873, Control_c, 0, 64, 69
2, 56887, Control_c, 0, 64, 66
2, 56903, Control_c, 0, 64, 63
2, 56918, Control_c, 0, 64, 60
2, 56933, Control_c, 0, 64, 55
2, 56949, Control_c, 0, 64, 48
2, 56964, Control_c, 0, 64, 41
2, 56980, Control_c, 0, 64, 36
2, 56995, Control_c, 0, 64, 33
2, 57010, Control_c, 0, 64, 30
2, 57025, Control_c, 0, 64, 29
2, 57040, Control_c, 0, 64, 26
2, 57056, Control_c, 0, 64, 22
2, 57077, Control_c, 0, 64, 18
2, 57092, Control_c, 0, 64, 12
2, 57108, Control_c, 0, 64, 0
2, 57443, Note_on_c, 0, 68, 63
2, 57475, Note_on_c, 0, 68, 0
2, 57709, Note_on_c, 0, 70, 59
2, 57823, Note_on_c, 0, 68, 77
2, 57830, Note_on_c, 0, 70, 0
2, 57929, Note_on_c, 0, 68, 0
2, 57946, Note_on_c, 0, 66, 74
2, 58039, Note_on_c, 0, 66, 0
2, 58044, Note_on_c, 0, 68, 80
2, 58163, Note_on_c, 0, 68, 0
2, 58163, Note_on_c, 0, 77, 83
2, 58199, Note_on_c, 0, 77, 0
2, 58398, Note_on_c, 0, 73, 85
2, 58437, Note_on_c, 0, 73, 0
2, 58661, Note_on_c, 0, 68, 82
2, 58901, Note_on_c, 0, 66, 70
2, 58909, Note_on_c, 0, 68, 0
2, 58996, Note_on_c, 0, 66, 0
2, 59009, Note_on_c, 0, 65, 75
2, 59133, Note_on_c, 0, 65, 0
2, 59133, Note_on_c, 0, 66, 82
2, 59160, Note_on_c, 0, 66, 0
2, 59376, Note_on_c, 0, 75, 77
2, 59416, Note_on_c, 0, 75, 0
2, 59621, Note_on_c, 0, 65, 77
2, 59647, Note_on_c, 0, 65, 0
2, 59865, Note_on_c, 0, 73, 68
2, 59892, Note_on_c, 0, 73, 0
2, 60094, Note_on_c, 0, 63, 72
2, 60124, Note_on_c, 0, 63, 0
2, 60349, Note_on_c, 0, 72, 65
2, 60379, Note_on_c, 0, 72, 0
2, 60590, Note_on_c, 0, 61, 65
2, 60617, Note_on_c, 0, 61, 0
2, 60835, Note_on_c, 0, 73, 53
2, 60907, Note_on_c, 0, 73, 0
2, 60942, Note_on_c, 0, 72, 59
2, 61043, Note_on_c, 0, 72, 0
2, 61048, Note_on_c, 0, 73, 63
2, 61144, Note_on_c, 0, 73, 0
2, 61152, Note_on_c, 0, 75, 66
2, 61231, Note_on_c, 0, 75, 0
2, 61261, Note_on_c, 0, 61, 66
2, 61265, Note_on_c, 0, 77, 71
2, 61291, Note_on_c, 0, 61, 0
2, 61354, Note_on_c, 0, 77, 0
2, 61366, Note_on_c, 0, 78, 64
2, 61475, Note_on_c, 0, 78, 0
2, 61478, Note_on_c, 0, 65, 50
2, 61485, Note_on_c, 0, 80, 68
2, 61589, Note_on_c, 0, 65, 0
2, 61589, Note_on_c, 0, 79, 78
2, 61595, Note_on_c, 0, 63, 70
2, 61601, Note_on_c, 0, 80, 0
2, 61696, Note_on_c, 0, 63, 0
2, 61698, Note_on_c, 0, 79, 0
2, 61706, Note_on_c, 0, 77, 83
2, 61710, Note_on_c, 0, 61, 73
2, 61806, Note_on_c, 0, 63, 75
2, 61806, Note_on_c, 0, 79, 82
2, 61827, Note_on_c, 0, 77, 0
2, 61837, Note_on_c, 0, 61, 0
2, 61872, Note_on_c, 0, 63, 0
2, 61913, Note_on_c, 0, 79, 0
2, 61916, Note_on_c, 0, 72, 75
2, 61921, Note_on_c, 0, 80, 83
2, 61956, Note_on_c, 0, 72, 0
2, 62032, Note_on_c, 0, 78, 82
2, 62036, Note_on_c, 0, 80, 0
2, 62103, Note_on_c, 0, 78, 0
2, 62138, Note_on_c, 0, 68, 85
2, 62140, Note_on_c, 0, 77, 79
2, 62191, Note_on_c, 0, 68, 0
2, 62253, Note_on_c, 0, 75, 76
2, 62274, Note_on_c, 0, 77, 0
2, 62362, Note_on_c, 0, 63, 79
2, 62365, Note_on_c, 0, 77, 85
2, 62381, Note_on_c, 0, 75, 0
2, 62598, Note_on_c, 0, 63, 0
2, 62607, Note_on_c, 0, 61, 71
2, 62706, Note_on_c, 0, 60, 67
2, 62707, Note_on_c, 0, 61, 0
2, 62811, Note_on_c, 0, 60, 0
2, 62815, Note_on_c, 0, 61, 85
2, 62862, Note_on_c, 0, 61, 0
2, 62925, Note_on_c, 0, 77, 0
2, 62932, Note_on_c, 0, 75, 64
2, 63044, Note_on_c, 0, 73, 70
2, 63045, Note_on_c, 0, 70, 74
2, 63045, Note_on_c, 0, 75, 0
2, 63082, Note_on_c, 0, 70, 0
2, 63140, Note_on_c, 0, 73, 0
2, 63149, Note_on_c, 0, 77, 67
2, 63271, Note_on_c, 0, 60, 80
2, 63283, Note_on_c, 0, 75, 71
2, 63297, Note_on_c, 0, 77, 0
2, 63319, Note_on_c, 0, 60, 0
2, 63377, Note_on_c, 0, 75, 0
2, 63379, Note_on_c, 0, 73, 70
2, 63468, Note_on_c, 0, 73, 0
2, 63476, Note_on_c, 0, 68, 70
2, 63478, Note_on_c, 0, 72, 71
2, 63525, Note_on_c, 0, 68, 0
2, 63580, Note_on_c, 0, 72, 0
2, 63595, Note_on_c, 0, 75, 66
2, 63699, Note_on_c, 0, 58, 73
2, 63702, Note_on_c, 0, 73, 73
2, 63738, Note_on_c, 0, 75, 0
2, 63753, Note_on_c, 0, 58, 0
2, 63800, Note_on_c, 0, 73, 0
2, 63807, Note_on_c, 0, 72, 75
2, 63901, Note_on_c, 0, 72, 0
2, 63911, Note_on_c, 0, 67, 54
2, 63914, Note_on_c, 0, 73, 78
2, 63937, Note_on_c, 0, 67, 0
2, 64016, Note_on_c, 0, 73, 0
2, 64026, Note_on_c, 0, 70, 76
2, 64071, Note_on_c, 0, 70, 0
2, 64120, Note_on_c, 0, 56, 54
2, 64139, Note_on_c, 0, 70, 70
2, 64178, Note_on_c, 0, 56, 0
2, 64198, Note_on_c, 0, 70, 0
2, 64229, Note_on_c, 0, 72, 74
2, 64268, Note_on_c, 0, 72, 0
2, 64340, Note_on_c, 0, 68, 76
2, 64348, Note_on_c, 0, 75, 84
2, 64414, Note_on_c, 0, 75, 0
2, 64438, Note_on_c, 0, 68, 0
2, 64441, Note_on_c, 0, 67, 76
2, 64541, Note_on_c, 0, 67, 0
2, 64549, Note_on_c, 0, 68, 84
2, 64556, Note_on_c, 0, 78, 90
2, 64579, Note_on_c, 0, 68, 0
2, 64677, Note_on_c, 0, 70, 63
2, 64774, Note_on_c, 0, 56, 78
2, 64777, Note_on_c, 0, 72, 74
2, 64791, Note_on_c, 0, 70, 0
2, 64808, Note_on_c, 0, 56, 0
2, 64845, Note_on_c, 0, 78, 0
2, 64867, Note_on_c, 0, 72, 0
2, 64882, Note_on_c, 0, 78, 23
2, 64887, Note_on_c, 0, 68, 71
2, 64990, Note_on_c, 0, 58, 58
2, 65003, Note_on_c, 0, 73, 75
2, 65039, Note_on_c, 0, 68, 0
2, 65068, Note_on_c, 0, 78, 0
2, 65102, Note_on_c, 0, 72, 82
2, 65105, Note_on_c, 0, 56, 71
2, 65130, Note_on_c, 0, 58, 0
2, 65147, Note_on_c, 0, 73, 0
2, 65200, Note_on_c, 0, 56, 0
2, 65210, Note_on_c, 0, 54, 74
2, 65212, Note_on_c, 0, 70, 82
2, 65213, Note_on_c, 0, 72, 0
2, 65295, Note_on_c, 0, 56, 73
2, 65310, Note_on_c, 0, 54, 0
2, 65315, Note_on_c, 0, 70, 0
2, 65316, Note_on_c, 0, 72, 77
2, 65348, Note_on_c, 0, 72, 0
2, 65363, Note_on_c, 0, 56, 0
2, 65411, Note_on_c, 0, 77, 87
2, 65417, Note_on_c, 0, 65, 64
2, 65418, Note_on_c, 0, 73, 79
2, 65463, Note_on_c, 0, 65, 0
2, 65548, Note_on_c, 0, 72, 59
2, 65585, Note_on_c, 0, 72, 0
2, 65647, Note_on_c, 0, 61, 82
2, 65674, Note_on_c, 0, 70, 66
2, 65702, Note_on_c, 0, 61, 0
2, 65753, Note_on_c, 0, 70, 0
2, 65762, Note_on_c, 0, 73, 0
2, 65776, Note_on_c, 0, 68, 55
2, 65883, Note_on_c, 0, 56, 81
2, 65891, Note_on_c, 0, 70, 68
2, 65912, Note_on_c, 0, 68, 0
2, 66120, Note_on_c, 0, 54, 71
2, 66126, Note_on_c, 0, 56, 0
2, 66160, Note_on_c, 0, 77, 0
2, 66215, Note_on_c, 0, 53, 70
2, 66217, Note_on_c, 0, 54, 0
2, 66327, Note_on_c, 0, 53, 0
2, 66331, Note_on_c, 0, 54, 87
2, 66352, Note_on_c, 0, 75, 80
2, 66366, Note_on_c, 0, 70, 0
2, 66380, Note_on_c, 0, 54, 0
2, 66450, Note_on_c, 0, 68, 63
2, 66496, Note_on_c, 0, 68, 0
2, 66565, Note_on_c, 0, 63, 71
2, 66582, Note_on_c, 0, 66, 62
2, 66601, Note_on_c, 0, 63, 0
2, 66685, Note_on_c, 0, 70, 64
2, 66690, Note_on_c, 0, 66, 0
2, 66706, Note_on_c, 0, 75, 0
2, 66781, Note_on_c, 0, 53, 82
2, 66799, Note_on_c, 0, 68, 73
2, 66827, Note_on_c, 0, 53, 0
2, 66845, Note_on_c, 0, 70, 0
2, 66912, Note_on_c, 0, 66, 60
2, 66965, Note_on_c, 0, 68, 0
2, 66998, Note_on_c, 0, 66, 0
2, 67000, Note_on_c, 0, 61, 61
2, 67002, Note_on_c, 0, 73, 70
2, 67010, Note_on_c, 0, 65, 74
2, 67031, Note_on_c, 0, 61, 0
2, 67118, Note_on_c, 0, 73, 0
2, 67128, Note_on_c, 0, 68, 53
2, 67139, Note_on_c, 0, 65, 0
2, 67190, Note_on_c, 0, 68, 0
2, 67207, Note_on_c, 0, 51, 63
2, 67220, Note_on_c, 0, 66, 68
2, 67224, Note_on_c, 0, 72, 66
2, 67253, Note_on_c, 0, 51, 0
2, 67287, Note_on_c, 0, 66, 0
2, 67319, Note_on_c, 0, 65, 55
2, 67411, Note_on_c, 0, 65, 0
2, 67426, Note_on_c, 0, 66, 56
2, 67443, Note_on_c, 0, 60, 45
2, 67451, Note_on_c, 0, 75, 73
2, 67471, Note_on_c, 0, 60, 0
2, 67502, Note_on_c, 0, 66, 0
2, 67537, Note_on_c, 0, 63, 68
2, 67571, Note_on_c, 0, 63, 0
2, 67628, Note_on_c, 0, 75, 0
2, 67653, Note_on_c, 0, 49, 47
2, 67667, Note_on_c, 0, 65, 76
2, 67686, Note_on_c, 0, 72, 0
2, 67730, Note_on_c, 0, 49, 0
2, 67891, Note_on_c, 0, 68, 75
2, 67904, Note_on_c, 0, 61, 51
2, 67921, Note_on_c, 0, 68, 0
2, 67954, Note_on_c, 0, 61, 0
2, 67995, Note_on_c, 0, 60, 50
2, 68107, Note_on_c, 0, 60, 0
2, 68107, Note_on_c, 0, 61, 47
2, 68110, Note_on_c, 0, 77, 87
2, 68131, Note_on_c, 0, 65, 0
2, 68197, Note_on_c, 0, 61, 0
2, 68218, Note_on_c, 0, 63, 59
2, 68269, Note_on_c, 0, 63, 0
2, 68312, Note_on_c, 0, 65, 42
2, 68327, Note_on_c, 0, 68, 70
2, 68404, Note_on_c, 0, 68, 0
2, 68430, Note_on_c, 0, 65, 0
2, 68450, Note_on_c, 0, 61, 47
2, 68545, Note_on_c, 0, 73, 79
2, 68572, Note_on_c, 0, 58, 56
2, 68574, Note_on_c, 0, 61, 0
2, 68620, Note_on_c, 0, 77, 0
2, 68676, Note_on_c, 0, 58, 0
2, 68679, Note_on_c, 0, 60, 53
2, 68727, Note_on_c, 0, 60, 0
2, 68767, Note_on_c, 0, 61, 60
2, 68767, Note_on_c, 0, 73, 0
2, 68781, Note_on_c, 0, 77, 75
2, 68879, Note_on_c, 0, 73, 73
2, 68881, Note_on_c, 0, 58, 57
2, 68908, Note_on_c, 0, 61, 0
2, 68911, Note_on_c, 0, 77, 0
2, 68987, Note_on_c, 0, 70, 78
2, 68988, Note_on_c, 0, 55, 51
2, 69016, Note_on_c, 0, 58, 0
2, 69034, Note_on_c, 0, 73, 0
2, 69084, Note_on_c, 0, 55, 0
2, 69087, Note_on_c, 0, 56, 62
2, 69167, Note_on_c, 0, 56, 0
2, 69175, Note_on_c, 0, 70, 0
2, 69201, Note_on_c, 0, 73, 67
2, 69202, Note_on_c, 0, 58, 58
2, 69260, Note_on_c, 0, 58, 0
2, 69301, Note_on_c, 0, 55, 58
2, 69307, Note_on_c, 0, 70, 67
2, 69312, Note_on_c, 0, 73, 0
2, 69416, Note_on_c, 0, 70, 0
2, 69417, Note_on_c, 0, 55, 0
2, 69436, Note_on_c, 0, 48, 57
2, 69437, Note_on_c, 0, 63, 68
2, 69477, Note_on_c, 0, 48, 0
2, 69652, Note_on_c, 0, 70, 73
2, 69668, Note_on_c, 0, 60, 53
2, 69707, Note_on_c, 0, 70, 0
2, 69731, Note_on_c, 0, 60, 0
2, 69759, Note_on_c, 0, 58, 57
2, 69883, Note_on_c, 0, 75, 81
2, 69893, Note_on_c, 0, 63, 0
2, 69897, Note_on_c, 0, 60, 59
2, 69904, Note_on_c, 0, 58, 0
2, 69971, Note_on_c, 0, 60, 0
2, 69985, Note_on_c, 0, 61, 67
2, 70058, Note_on_c, 0, 61, 0
2, 70090, Note_on_c, 0, 63, 62
2, 70098, Note_on_c, 0, 67, 67
2, 70145, Note_on_c, 0, 67, 0
2, 70183, Note_on_c, 0, 63, 0
2, 70199, Note_on_c, 0, 60, 61
2, 70315, Note_on_c, 0, 72, 75
2, 70328, Note_on_c, 0, 56, 51
2, 70337, Note_on_c, 0, 60, 0
2, 70382, Note_on_c, 0, 75, 0
2, 70419, Note_on_c, 0, 56, 0
2, 70419, Note_on_c, 0, 58, 59
2, 70490, Note_on_c, 0, 58, 0
2, 70530, Note_on_c, 0, 72, 0
2, 70539, Note_on_c, 0, 60, 57
2, 70550, Note_on_c, 0, 75, 69
2, 70621, Note_on_c, 0, 60, 0
2, 70640, Note_on_c, 0, 72, 71
2, 70659, Note_on_c, 0, 56, 54
2, 70680, Note_on_c, 0, 75, 0
2, 70744, Note_on_c, 0, 72, 0
2, 70752, Note_on_c, 0, 56, 0
2, 70752, Note_on_c, 0, 68, 68
2, 70773, Note_on_c, 0, 53, 54
2, 70850, Note_on_c, 0, 53, 0
2, 70859, Note_on_c, 0, 55, 57
2, 70920, Note_on_c, 0, 55, 0
2, 70960, Note_on_c, 0, 68, 0
2, 70970, Note_on_c, 0, 56, 53
2, 70991, Note_on_c, 0, 72, 58
2, 71027, Note_on_c, 0, 56, 0
2, 71081, Note_on_c, 0, 53, 46
2, 71082, Note_on_c, 0, 72, 0
2, 71100, Note_on_c, 0, 68, 58
2, 71172, Note_on_c, 0, 53, 0
2, 71185, Note_on_c, 0, 68, 0
2, 71192, Control_c, 0, 67, 8
2, 71193, Note_on_c, 0, 46, 48
2, 71219, Note_on_c, 0, 61, 54
2, 71223, Control_c, 0, 67, 9
2, 71243, Note_on_c, 0, 46, 0
2, 71283, Control_c, 0, 67, 8
2, 71299, Control_c, 0, 67, 0
2, 71424, Note_on_c, 0, 68, 64
2, 71425, Note_on_c, 0, 58, 46
2, 71453, Note_on_c, 0, 68, 0
2, 71479, Note_on_c, 0, 58, 0
2, 71532, Note_on_c, 0, 56, 48
2, 71627, Note_on_c, 0, 58, 46
2, 71645, Note_on_c, 0, 56, 0
2, 71659, Note_on_c, 0, 61, 0
2, 71676, Note_on_c, 0, 73, 66
2, 71731, Note_on_c, 0, 58, 0
2, 71760, Note_on_c, 0, 60, 51
2, 71832, Note_on_c, 0, 60, 0
2, 71874, Note_on_c, 0, 61, 59
2, 71885, Note_on_c, 0, 65, 58
2, 71946, Note_on_c, 0, 65, 0
2, 71972, Note_on_c, 0, 61, 0
2, 71979, Note_on_c, 0, 58, 53
2, 72077, Note_on_c, 0, 58, 0
2, 72096, Note_on_c, 0, 55, 46
2, 72103, Note_on_c, 0, 70, 62
2, 72128, Note_on_c, 0, 73, 0
2, 72204, Note_on_c, 0, 55, 0
2, 72204, Note_on_c, 0, 72, 73
2, 72211, Note_on_c, 0, 56, 56
2, 72238, Note_on_c, 0, 70, 0
2, 72279, Note_on_c, 0, 56, 0
2, 72309, Note_on_c, 0, 58, 61
2, 72319, Note_on_c, 0, 72, 0
2, 72319, Note_on_c, 0, 73, 77
2, 72392, Note_on_c, 0, 73, 0
2, 72394, Note_on_c, 0, 58, 0
2, 72412, Note_on_c, 0, 55, 56
2, 72426, Note_on_c, 0, 70, 68
2, 72518, Note_on_c, 0, 70, 0
2, 72533, Note_on_c, 0, 82, 81
2, 72543, Note_on_c, 0, 51, 51
2, 72642, Note_on_c, 0, 55, 0
2, 72644, Note_on_c, 0, 81, 47
2, 72652, Note_on_c, 0, 53, 57
2, 72657, Note_on_c, 0, 73, 74
2, 72664, Note_on_c, 0, 51, 0
2, 72724, Note_on_c, 0, 53, 0
2, 72730, Note_on_c, 0, 81, 0
2, 72733, Note_on_c, 0, 82, 0
2, 72753, Note_on_c, 0, 55, 64
2, 72755, Note_on_c, 0, 75, 70
2, 72791, Note_on_c, 0, 73, 0
2, 72834, Note_on_c, 0, 55, 0
2, 72837, Note_on_c, 0, 70, 71
2, 72840, Note_on_c, 0, 75, 0
2, 72861, Note_on_c, 0, 51, 67
2, 72877, Note_on_c, 0, 70, 0
2, 72910, Note_on_c, 0, 51, 0
2, 72940, Control_c, 0, 64, 30
2, 72954, Control_c, 0, 64, 57
2, 72955, Note_on_c, 0, 72, 79
2, 72956, Note_on_c, 0, 44, 69
2, 72970, Control_c, 0, 64, 66
2, 72985, Control_c, 0, 64, 72
2, 72993, Note_on_c, 0, 44, 0
2, 73001, Control_c, 0, 64, 82
2, 73017, Control_c, 0, 64, 93
2, 73032, Control_c, 0, 64, 108
2, 73046, Control_c, 0, 64, 127
2, 73051, Note_on_c, 0, 80, 76
2, 73110, Note_on_c, 0, 72, 0
2, 73138, Control_c, 0, 64, 119
2, 73153, Control_c, 0, 64, 106
2, 73168, Control_c, 0, 64, 96
2, 73171, Note_on_c, 0, 79, 75
2, 73178, Note_on_c, 0, 56, 77
2, 73183, Note_on_c, 0, 80, 0
2, 73184, Control_c, 0, 64, 84
2, 73206, Control_c, 0, 64, 71
2, 73222, Control_c, 0, 64, 60
2, 73237, Control_c, 0, 64, 42
2, 73253, Control_c, 0, 64, 39
2, 73276, Note_on_c, 0, 58, 76
2, 73277, Note_on_c, 0, 79, 0
2, 73281, Note_on_c, 0, 82, 83
2, 73302, Note_on_c, 0, 56, 0
2, 73313, Control_c, 0, 64, 38
2, 73358, Control_c, 0, 64, 37
2, 73370, Note_on_c, 0, 58, 0
2, 73384, Note_on_c, 0, 60, 88
2, 73391, Note_on_c, 0, 80, 79
2, 73408, Note_on_c, 0, 82, 0
2, 73424, Note_on_c, 0, 60, 0
2, 73451, Control_c, 0, 64, 36
2, 73465, Control_c, 0, 64, 36
2, 73480, Control_c, 0, 64, 34
2, 73496, Control_c, 0, 64, 34
2, 73497, Note_on_c, 0, 75, 77
2, 73497, Note_on_c, 0, 80, 0
2, 73511, Control_c, 0, 64, 33
2, 73526, Control_c, 0, 64, 33
2, 73541, Control_c, 0, 64, 32
2, 73556, Control_c, 0, 64, 32
2, 73614, Note_on_c, 0, 77, 81
2, 73617, Control_c, 0, 64, 31
2, 73620, Note_on_c, 0, 56, 65
2, 73620, Note_on_c, 0, 75, 0
2, 73621, Note_on_c, 0, 68, 68
2, 73665, Note_on_c, 0, 56, 0
2, 73717, Note_on_c, 0, 77, 0
2, 73717, Note_on_c, 0, 78, 77
2, 73785, Control_c, 0, 64, 31
2, 73827, Note_on_c, 0, 77, 83
2, 73837, Note_on_c, 0, 61, 53
2, 73858, Note_on_c, 0, 78, 0
2, 73933, Note_on_c, 0, 68, 0
2, 73935, Note_on_c, 0, 75, 86
2, 73944, Note_on_c, 0, 77, 0
2, 73945, Note_on_c, 0, 67, 62
2, 74024, Note_on_c, 0, 67, 0
2, 74030, Note_on_c, 0, 75, 0
2, 74041, Note_on_c, 0, 73, 87
2, 74051, Note_on_c, 0, 65, 59
2, 74104, Note_on_c, 0, 61, 0
2, 74131, Note_on_c, 0, 73, 0
2, 74138, Note_on_c, 0, 75, 87
2, 74146, Note_on_c, 0, 65, 0
2, 74146, Note_on_c, 0, 67, 73
2, 74228, Note_on_c, 0, 75, 0
2, 74229, Note_on_c, 0, 67, 0
2, 74255, Note_on_c, 0, 84, 86
2, 74260, Note_on_c, 0, 60, 58
2, 74261, Note_on_c, 0, 68, 71
2, 74290, Note_on_c, 0, 84, 0
2, 74313, Note_on_c, 0, 68, 0
2, 74361, Note_on_c, 0, 66, 65
2, 74399, Note_on_c, 0, 66, 0
2, 74470, Note_on_c, 0, 65, 35
2, 74470, Note_on_c, 0, 80, 86
2, 74514, Note_on_c, 0, 80, 0
2, 74553, Note_on_c, 0, 65, 0
2, 74568, Note_on_c, 0, 63, 59
2, 74638, Note_on_c, 0, 60, 0
2, 74684, Note_on_c, 0, 63, 0
2, 74702, Note_on_c, 0, 75, 91
2, 74705, Note_on_c, 0, 65, 51
2, 74708, Note_on_c, 0, 58, 53
2, 74913, Note_on_c, 0, 58, 0
2, 74941, Note_on_c, 0, 56, 52
2, 74941, Note_on_c, 0, 73, 81
2, 74948, Note_on_c, 0, 75, 0
2, 75017, Control_c, 0, 64, 30
2, 75041, Note_on_c, 0, 72, 80
2, 75043, Note_on_c, 0, 73, 0
2, 75047, Control_c, 0, 64, 30
2, 75063, Control_c, 0, 64, 29
2, 75077, Control_c, 0, 64, 29
2, 75118, Note_on_c, 0, 56, 0
2, 75139, Control_c, 0, 64, 28
2, 75154, Note_on_c, 0, 73, 86
2, 75155, Note_on_c, 0, 72, 0
2, 75166, Note_on_c, 0, 55, 57
2, 75185, Note_on_c, 0, 73, 0
2, 75208, Note_on_c, 0, 65, 0
2, 75229, Control_c, 0, 64, 28
2, 75258, Note_on_c, 0, 63, 66
2, 75356, Note_on_c, 0, 63, 0
2, 75362, Note_on_c, 0, 61, 58
2, 75372, Note_on_c, 0, 82, 79
2, 75402, Note_on_c, 0, 55, 0
2, 75431, Note_on_c, 0, 82, 0
2, 75438, Note_on_c, 0, 61, 0
2, 75458, Note_on_c, 0, 65, 63
2, 75597, Note_on_c, 0, 56, 60
2, 75601, Note_on_c, 0, 72, 79
2, 75603, Note_on_c, 0, 63, 66
2, 75612, Note_on_c, 0, 65, 0
2, 75634, Note_on_c, 0, 72, 0
2, 75696, Note_on_c, 0, 56, 0
2, 75711, Note_on_c, 0, 61, 64
2, 75764, Note_on_c, 0, 63, 0
2, 75818, Note_on_c, 0, 61, 0
2, 75818, Note_on_c, 0, 80, 71
2, 75822, Note_on_c, 0, 60, 66
2, 75877, Note_on_c, 0, 80, 0
2, 75888, Note_on_c, 0, 60, 0
2, 75907, Note_on_c, 0, 63, 66
2, 75946, Note_on_c, 0, 63, 0
2, 76029, Note_on_c, 0, 61, 61
2, 76030, Note_on_c, 0, 51, 59
2, 76041, Note_on_c, 0, 70, 70
2, 76121, Note_on_c, 0, 61, 0
2, 76142, Note_on_c, 0, 60, 54
2, 76142, Note_on_c, 0, 70, 0
2, 76247, Note_on_c, 0, 79, 59
2, 76250, Note_on_c, 0, 60, 0
2, 76269, Note_on_c, 0, 61, 58
2, 76286, Note_on_c, 0, 79, 0
2, 76374, Note_on_c, 0, 61, 0
2, 76393, Note_on_c, 0, 58, 54
2, 76432, Note_on_c, 0, 51, 0
2, 76481, Note_on_c, 0, 60, 54
2, 76487, Note_on_c, 0, 58, 0
2, 76492, Note_on_c, 0, 56, 48
2, 76494, Note_on_c, 0, 68, 56
2, 76503, Note_on_c, 0, 60, 0
2, 76556, Note_on_c, 0, 68, 0
2, 76596, Note_on_c, 0, 70, 56
2, 76696, Note_on_c, 0, 70, 0
2, 76702, Note_on_c, 0, 63, 56
2, 76713, Note_on_c, 0, 72, 59
2, 76743, Note_on_c, 0, 63, 0
2, 76787, Note_on_c, 0, 72, 0
2, 76812, Note_on_c, 0, 73, 59
2, 76886, Control_c, 0, 64, 30
2, 76901, Control_c, 0, 64, 37
2, 76916, Control_c, 0, 64, 44
2, 76928, Note_on_c, 0, 72, 63
2, 76931, Note_on_c, 0, 68, 56
2, 76932, Control_c, 0, 64, 52
2, 76947, Control_c, 0, 64, 60
2, 76961, Control_c, 0, 64, 65
2, 76966, Note_on_c, 0, 73, 0
2, 76977, Control_c, 0, 64, 71
2, 76992, Control_c, 0, 64, 79
2, 76997, Note_on_c, 0, 56, 0
2, 77007, Control_c, 0, 64, 92
2, 77011, Note_on_c, 0, 68, 0
2, 77023, Control_c, 0, 64, 127
2, 77033, Note_on_c, 0, 72, 0
2, 77050, Note_on_c, 0, 70, 70
2, 77142, Note_on_c, 0, 63, 61
2, 77145, Note_on_c, 0, 70, 0
2, 77167, Note_on_c, 0, 68, 72
2, 77238, Note_on_c, 0, 60, 64
2, 77242, Note_on_c, 0, 68, 0
2, 77253, Note_on_c, 0, 72, 77
2, 77306, Control_c, 0, 64, 112
2, 77321, Control_c, 0, 64, 93
2, 77337, Control_c, 0, 64, 74
2, 77352, Control_c, 0, 64, 57
2, 77360, Note_on_c, 0, 72, 0
2, 77365, Note_on_c, 0, 77, 83
2, 77366, Control_c, 0, 64, 0
2, 77368, Note_on_c, 0, 57, 57
2, 77376, Note_on_c, 0, 63, 0
2, 77384, Note_on_c, 0, 60, 0
2, 77412, Control_c, 0, 64, 48
2, 77414, Note_on_c, 0, 57, 0
2, 77427, Control_c, 0, 64, 64
2, 77442, Control_c, 0, 64, 72
2, 77458, Control_c, 0, 64, 88
2, 77461, Note_on_c, 0, 75, 89
2, 77473, Control_c, 0, 64, 121
2, 77485, Note_on_c, 0, 77, 0
2, 77487, Control_c, 0, 64, 127
2, 77548, Note_on_c, 0, 75, 0
2, 77567, Note_on_c, 0, 74, 85
2, 77571, Note_on_c, 0, 59, 72
2, 77640, Control_c, 0, 64, 115
2, 77656, Control_c, 0, 64, 109
2, 77659, Note_on_c, 0, 77, 87
2, 77678, Note_on_c, 0, 74, 0
2, 77679, Note_on_c, 0, 56, 76
2, 77685, Control_c, 0, 64, 108
2, 77700, Note_on_c, 0, 59, 0
2, 77701, Control_c, 0, 64, 105
2, 77716, Control_c, 0, 64, 99
2, 77732, Control_c, 0, 64, 90
2, 77746, Control_c, 0, 64, 83
2, 77761, Control_c, 0, 64, 77
2, 77777, Control_c, 0, 64, 71
2, 77788, Note_on_c, 0, 80, 88
2, 77792, Control_c, 0, 64, 63
2, 77794, Note_on_c, 0, 53, 76
2, 77798, Note_on_c, 0, 77, 0
2, 77815, Control_c, 0, 64, 43
2, 77824, Note_on_c, 0, 56, 0
2, 77830, Control_c, 0, 64, 0
2, 77895, Note_on_c, 0, 78, 90
2, 77921, Control_c, 0, 64, 35
2, 77934, Note_on_c, 0, 80, 0
2, 77937, Control_c, 0, 64, 60
2, 77952, Control_c, 0, 64, 66
2, 77967, Control_c, 0, 64, 72
2, 77983, Control_c, 0, 64, 78
2, 77998, Control_c, 0, 64, 89
2, 78004, Note_on_c, 0, 56, 76
2, 78004, Note_on_c, 0, 77, 89
2, 78007, Note_on_c, 0, 53, 0
2, 78014, Control_c, 0, 64, 110
2, 78018, Note_on_c, 0, 78, 0
2, 78028, Control_c, 0, 64, 127
2, 78094, Note_on_c, 0, 80, 88
2, 78102, Note_on_c, 0, 77, 0
2, 78123, Note_on_c, 0, 53, 74
2, 78142, Note_on_c, 0, 80, 0
2, 78154, Note_on_c, 0, 56, 0
2, 78218, Note_on_c, 0, 80, 86
2, 78241, Control_c, 0, 64, 99
2, 78242, Note_on_c, 0, 50, 73
2, 78256, Control_c, 0, 64, 80
2, 78258, Note_on_c, 0, 53, 0
2, 78262, Note_on_c, 0, 82, 75
2, 78271, Control_c, 0, 64, 66
2, 78283, Note_on_c, 0, 83, 92
2, 78286, Control_c, 0, 64, 48
2, 78294, Note_on_c, 0, 80, 0
2, 78296, Note_on_c, 0, 82, 0
2, 78302, Control_c, 0, 64, 32
2, 78475, Note_on_c, 0, 50, 0
2, 78484, Note_on_c, 0, 53, 64
2, 78485, Note_on_c, 0, 82, 82
2, 78514, Control_c, 0, 64, 32
2, 78524, Note_on_c, 0, 83, 0
2, 78591, Note_on_c, 0, 80, 86
2, 78603, Note_on_c, 0, 56, 77
2, 78619, Note_on_c, 0, 53, 0
2, 78631, Note_on_c, 0, 82, 0
2, 78699, Note_on_c, 0, 78, 88
2, 78703, Note_on_c, 0, 56, 0
2, 78716, Note_on_c, 0, 59, 85
2, 78717, Note_on_c, 0, 80, 0
2, 78787, Note_on_c, 0, 78, 0
2, 78794, Note_on_c, 0, 77, 82
2, 78924, Note_on_c, 0, 75, 80
2, 78930, Note_on_c, 0, 53, 74
2, 78948, Note_on_c, 0, 77, 0
2, 78995, Note_on_c, 0, 53, 0
2, 79027, Note_on_c, 0, 74, 76
2, 79027, Note_on_c, 0, 75, 0
2, 79149, Note_on_c, 0, 54, 78
2, 79149, Note_on_c, 0, 58, 78
2, 79152, Note_on_c, 0, 75, 85
2, 79171, Note_on_c, 0, 59, 0
2, 79171, Note_on_c, 0, 74, 0
2, 79258, Note_on_c, 0, 78, 76
2, 79267, Note_on_c, 0, 75, 0
2, 79300, Control_c, 0, 64, 32
2, 79330, Control_c, 0, 64, 30
2, 79345, Control_c, 0, 64, 30
2, 79379, Note_on_c, 0, 59, 77
2, 79379, Note_on_c, 0, 77, 81
2, 79383, Note_on_c, 0, 56, 71
2, 79394, Note_on_c, 0, 54, 0
2, 79397, Note_on_c, 0, 58, 0
2, 79410, Note_on_c, 0, 59, 0
2, 79416, Note_on_c, 0, 78, 0
2, 79426, Note_on_c, 0, 56, 0
2, 79429, Control_c, 0, 64, 29
2, 79444, Control_c, 0, 64, 29
2, 79459, Control_c, 0, 64, 28
2, 79474, Control_c, 0, 64, 28
2, 79479, Note_on_c, 0, 75, 78
2, 79490, Control_c, 0, 64, 26
2, 79505, Control_c, 0, 64, 26
2, 79507, Note_on_c, 0, 77, 0
2, 79519, Control_c, 0, 64, 25
2, 79567, Control_c, 0, 64, 24
2, 79580, Note_on_c, 0, 75, 0
2, 79590, Note_on_c, 0, 58, 70
2, 79591, Note_on_c, 0, 74, 75
2, 79596, Control_c, 0, 64, 23
2, 79612, Control_c, 0, 64, 21
2, 79622, Note_on_c, 0, 58, 0
2, 79626, Control_c, 0, 64, 20
2, 79657, Control_c, 0, 64, 19
2, 79672, Control_c, 0, 64, 18
2, 79685, Note_on_c, 0, 74, 0
2, 79685, Note_on_c, 0, 77, 72
2, 79688, Control_c, 0, 64, 17
2, 79703, Control_c, 0, 64, 16
2, 79733, Control_c, 0, 64, 15
2, 79751, Note_on_c, 0, 77, 0
2, 79794, Note_on_c, 0, 50, 52
2, 79800, Note_on_c, 0, 70, 60
2, 79807, Note_on_c, 0, 46, 48
2, 79822, Note_on_c, 0, 50, 0
2, 79824, Control_c, 0, 64, 14
2, 79840, Note_on_c, 0, 46, 0
2, 79869, Control_c, 0, 64, 10
2, 79883, Note_on_c, 0, 70, 0
2, 79885, Control_c, 0, 64, 0
2, 79900, Control_c, 0, 67, 28
2, 79909, Note_on_c, 0, 68, 53
2, 79915, Control_c, 0, 67, 48
2, 79931, Control_c, 0, 67, 69
2, 79945, Control_c, 0, 67, 97
2, 79960, Control_c, 0, 67, 122
2, 79976, Control_c, 0, 67, 127
2, 80009, Note_on_c, 0, 68, 0
2, 80015, Note_on_c, 0, 66, 59
2, 80016, Note_on_c, 0, 51, 47
2, 80033, Note_on_c, 0, 39, 44
2, 80098, Note_on_c, 0, 66, 0
2, 80140, Note_on_c, 0, 65, 55
2, 80238, Note_on_c, 0, 65, 0
2, 80246, Note_on_c, 0, 63, 56
2, 80277, Note_on_c, 0, 39, 0
2, 80297, Note_on_c, 0, 51, 0
2, 80327, Note_on_c, 0, 63, 0
2, 80351, Note_on_c, 0, 62, 55
2, 80422, Note_on_c, 0, 62, 0
2, 80456, Note_on_c, 0, 63, 57
2, 80505, Note_on_c, 0, 63, 0
2, 80553, Note_on_c, 0, 65, 51
2, 80638, Note_on_c, 0, 65, 0
2, 80648, Note_on_c, 0, 51, 62
2, 80662, Note_on_c, 0, 66, 52
2, 80678, Note_on_c, 0, 51, 0
2, 80727, Note_on_c, 0, 66, 0
2, 80769, Note_on_c, 0, 68, 54
2, 80847, Note_on_c, 0, 68, 0
2, 80866, Note_on_c, 0, 54, 49
2, 80890, Note_on_c, 0, 70, 55
2, 80984, Note_on_c, 0, 54, 0
2, 80985, Note_on_c, 0, 70, 0
2, 80994, Note_on_c, 0, 53, 60
2, 80994, Note_on_c, 0, 68, 58
2, 81070, Note_on_c, 0, 53, 0
2, 81091, Note_on_c, 0, 51, 65
2, 81092, Note_on_c, 0, 68, 0
2, 81109, Note_on_c, 0, 66, 63
2, 81182, Note_on_c, 0, 51, 0
2, 81199, Note_on_c, 0, 66, 0
2, 81201, Note_on_c, 0, 53, 54
2, 81217, Note_on_c, 0, 68, 67
2, 81240, Note_on_c, 0, 53, 0
2, 81286, Note_on_c, 0, 61, 65
2, 81293, Note_on_c, 0, 68, 0
2, 81315, Note_on_c, 0, 70, 60
2, 81316, Note_on_c, 0, 61, 0
2, 81413, Note_on_c, 0, 70, 0
2, 81418, Note_on_c, 0, 68, 58
2, 81517, Note_on_c, 0, 58, 73
2, 81519, Note_on_c, 0, 68, 0
2, 81529, Note_on_c, 0, 66, 65
2, 81546, Note_on_c, 0, 58, 0
2, 81591, Note_on_c, 0, 66, 0
2, 81624, Note_on_c, 0, 65, 55
2, 81748, Note_on_c, 0, 65, 0
2, 81754, Note_on_c, 0, 66, 58
2, 81760, Note_on_c, 0, 53, 68
2, 81959, Note_on_c, 0, 53, 0
2, 81970, Note_on_c, 0, 51, 62
2, 82072, Note_on_c, 0, 51, 0
2, 82073, Note_on_c, 0, 49, 61
2, 82174, Note_on_c, 0, 49, 0
2, 82184, Note_on_c, 0, 51, 74
2, 82216, Note_on_c, 0, 51, 0
2, 82292, Note_on_c, 0, 65, 55
2, 82344, Note_on_c, 0, 66, 0
2, 82396, Note_on_c, 0, 60, 65
2, 82403, Note_on_c, 0, 65, 0
2, 82417, Note_on_c, 0, 63, 62
2, 82434, Note_on_c, 0, 60, 0
2, 82531, Note_on_c, 0, 63, 0
2, 82545, Note_on_c, 0, 66, 54
2, 82622, Note_on_c, 0, 49, 67
2, 82646, Note_on_c, 0, 65, 56
2, 82657, Note_on_c, 0, 49, 0
2, 82705, Note_on_c, 0, 66, 0
2, 82739, Note_on_c, 0, 65, 0
2, 82744, Note_on_c, 0, 63, 57
2, 82834, Note_on_c, 0, 63, 0
2, 82843, Note_on_c, 0, 58, 68
2, 82856, Note_on_c, 0, 61, 58
2, 82880, Note_on_c, 0, 58, 0
2, 82932, Note_on_c, 0, 61, 0
2, 82951, Note_on_c, 0, 65, 50
2, 83062, Note_on_c, 0, 65, 0
2, 83069, Note_on_c, 0, 48, 64
2, 83075, Note_on_c, 0, 63, 57
2, 83102, Note_on_c, 0, 48, 0
2, 83167, Note_on_c, 0, 63, 0
2, 83181, Note_on_c, 0, 61, 62
2, 83276, Note_on_c, 0, 61, 0
2, 83290, Note_on_c, 0, 63, 65
2, 83295, Note_on_c, 0, 57, 50
2, 83319, Note_on_c, 0, 57, 0
2, 83348, Note_on_c, 0, 63, 0
2, 83391, Note_on_c, 0, 60, 53
2, 83446, Note_on_c, 0, 60, 0
2, 83465, Control_c, 0, 64, 31
2, 83480, Control_c, 0, 64, 51
2, 83488, Note_on_c, 0, 46, 47
2, 83496, Control_c, 0, 64, 61
2, 83502, Note_on_c, 0, 61, 61
2, 83510, Control_c, 0, 64, 65
2, 83523, Note_on_c, 0, 46, 0
2, 83526, Control_c, 0, 64, 68
2, 83541, Control_c, 0, 64, 72
2, 83556, Control_c, 0, 64, 77
2, 83572, Control_c, 0, 64, 83
2, 83586, Control_c, 0, 64, 87
2, 83594, Note_on_c, 0, 61, 0
2, 83601, Control_c, 0, 64, 88
2, 83610, Note_on_c, 0, 65, 67
2, 83617, Control_c, 0, 64, 87
2, 83632, Control_c, 0, 64, 85
2, 83649, Control_c, 0, 64, 84
2, 83664, Control_c, 0, 64, 83
2, 83678, Control_c, 0, 64, 82
2, 83694, Control_c, 0, 64, 80
2, 83709, Control_c, 0, 64, 77
2, 83713, Note_on_c, 0, 58, 56
2, 83724, Note_on_c, 0, 66, 60
2, 83725, Control_c, 0, 64, 74
2, 83733, Note_on_c, 0, 65, 0
2, 83740, Control_c, 0, 64, 70
2, 83754, Control_c, 0, 64, 66
2, 83767, Note_on_c, 0, 66, 0
2, 83770, Control_c, 0, 64, 63
2, 83785, Control_c, 0, 64, 61
2, 83785, Note_on_c, 0, 58, 0
2, 83800, Control_c, 0, 64, 60
2, 83807, Note_on_c, 0, 57, 57
2, 83815, Control_c, 0, 64, 57
2, 83821, Note_on_c, 0, 65, 61
2, 83830, Control_c, 0, 64, 54
2, 83846, Control_c, 0, 64, 46
2, 83861, Control_c, 0, 64, 40
2, 83876, Control_c, 0, 64, 39
2, 83904, Note_on_c, 0, 65, 0
2, 83923, Note_on_c, 0, 58, 56
2, 83926, Note_on_c, 0, 73, 79
2, 83938, Control_c, 0, 64, 37
2, 83940, Note_on_c, 0, 57, 0
2, 83952, Control_c, 0, 64, 35
2, 83975, Control_c, 0, 64, 35
2, 83990, Control_c, 0, 64, 34
2, 84022, Note_on_c, 0, 58, 0
2, 84043, Note_on_c, 0, 60, 60
2, 84066, Control_c, 0, 64, 34
2, 84120, Note_on_c, 0, 60, 0
2, 84150, Note_on_c, 0, 61, 61
2, 84160, Note_on_c, 0, 65, 59
2, 84244, Note_on_c, 0, 65, 0
2, 84248, Note_on_c, 0, 58, 58
2, 84254, Note_on_c, 0, 61, 0
2, 84359, Note_on_c, 0, 58, 0
2, 84365, Note_on_c, 0, 70, 70
2, 84368, Note_on_c, 0, 55, 56
2, 84370, Control_c, 0, 67, 127
2, 84385, Control_c, 0, 67, 125
2, 84398, Note_on_c, 0, 73, 0
2, 84400, Control_c, 0, 67, 122
2, 84416, Control_c, 0, 67, 114
2, 84430, Control_c, 0, 67, 106
2, 84446, Control_c, 0, 67, 104
2, 84463, Note_on_c, 0, 72, 78
2, 84467, Note_on_c, 0, 55, 0
2, 84471, Note_on_c, 0, 56, 59
2, 84477, Control_c, 0, 67, 104
2, 84493, Control_c, 0, 67, 103
2, 84508, Control_c, 0, 67, 102
2, 84515, Note_on_c, 0, 70, 0
2, 84523, Control_c, 0, 67, 101
2, 84534, Note_on_c, 0, 56, 0
2, 84538, Control_c, 0, 67, 100
2, 84553, Control_c, 0, 67, 100
2, 84568, Note_on_c, 0, 58, 65
2, 84569, Control_c, 0, 67, 96
2, 84571, Note_on_c, 0, 72, 0
2, 84571, Note_on_c, 0, 73, 81
2, 84584, Control_c, 0, 67, 90
2, 84598, Control_c, 0, 67, 80
2, 84614, Control_c, 0, 67, 70
2, 84629, Control_c, 0, 67, 63
2, 84631, Note_on_c, 0, 73, 0
2, 84644, Control_c, 0, 67, 59
2, 84649, Note_on_c, 0, 58, 0
2, 84659, Control_c, 0, 67, 59
2, 84659, Note_on_c, 0, 55, 58
2, 84667, Note_on_c, 0, 70, 71
2, 84674, Control_c, 0, 67, 58
2, 84690, Control_c, 0, 67, 57
2, 84705, Control_c, 0, 67, 55
2, 84720, Control_c, 0, 67, 53
2, 84743, Control_c, 0, 64, 37
2, 84743, Control_c, 0, 67, 52
2, 84757, Note_on_c, 0, 70, 0
2, 84758, Control_c, 0, 64, 44
2, 84774, Control_c, 0, 64, 49
2, 84786, Note_on_c, 0, 82, 83
2, 84787, Note_on_c, 0, 51, 54
2, 84788, Control_c, 0, 64, 55
2, 84804, Control_c, 0, 64, 59
2, 84819, Control_c, 0, 64, 61
2, 84834, Control_c, 0, 64, 62
2, 84842, Note_on_c, 0, 55, 0
2, 84890, Note_on_c, 0, 73, 73
2, 84895, Control_c, 0, 64, 62
2, 84896, Note_on_c, 0, 82, 0
2, 84897, Note_on_c, 0, 53, 59
2, 84910, Control_c, 0, 64, 61
2, 84926, Control_c, 0, 64, 61
2, 84926, Control_c, 0, 67, 53
2, 84940, Control_c, 0, 64, 60
2, 84956, Control_c, 0, 64, 59
2, 84956, Note_on_c, 0, 51, 0
2, 84964, Note_on_c, 0, 53, 0
2, 84972, Control_c, 0, 64, 58
2, 84972, Control_c, 0, 67, 53
2, 84986, Control_c, 0, 64, 57
2, 84986, Control_c, 0, 67, 54
2, 84996, Note_on_c, 0, 55, 60
2, 85000, Note_on_c, 0, 73, 0
2, 85000, Note_on_c, 0, 75, 72
2, 85001, Control_c, 0, 64, 54
2, 85001, Control_c, 0, 67, 55
2, 85017, Control_c, 0, 64, 51
2, 85017, Control_c, 0, 67, 57
2, 85032, Control_c, 0, 64, 46
2, 85032, Control_c, 0, 67, 57
2, 85036, Note_on_c, 0, 75, 0
2, 85048, Control_c, 0, 64, 40
2, 85063, Control_c, 0, 64, 33
2, 85077, Control_c, 0, 64, 29
2, 85077, Control_c, 0, 67, 58
2, 85077, Note_on_c, 0, 70, 67
2, 85084, Note_on_c, 0, 55, 0
2, 85093, Control_c, 0, 64, 27
2, 85105, Note_on_c, 0, 51, 56
2, 85108, Control_c, 0, 64, 26
2, 85108, Control_c, 0, 67, 59
2, 85150, Note_on_c, 0, 70, 0
2, 85154, Control_c, 0, 64, 27
2, 85154, Control_c, 0, 67, 59
2, 85170, Control_c, 0, 64, 38
2, 85170, Control_c, 0, 67, 60
2, 85185, Control_c, 0, 64, 50
2, 85185, Control_c, 0, 67, 61
2, 85199, Control_c, 0, 64, 60
2, 85199, Control_c, 0, 67, 62
2, 85199, Note_on_c, 0, 72, 79
2, 85207, Note_on_c, 0, 44, 59
2, 85215, Control_c, 0, 64, 64
2, 85215, Control_c, 0, 67, 63
2, 85225, Note_on_c, 0, 51, 0
2, 85230, Control_c, 0, 64, 66
2, 85230, Control_c, 0, 67, 63
2, 85241, Note_on_c, 0, 44, 0
2, 85246, Control_c, 0, 64, 67
2, 85261, Control_c, 0, 64, 69
2, 85261, Control_c, 0, 67, 64
2, 85274, Note_on_c, 0, 72, 0
2, 85275, Control_c, 0, 64, 71
2, 85292, Control_c, 0, 64, 71
2, 85292, Control_c, 0, 67, 65
2, 85307, Control_c, 0, 64, 71
2, 85307, Control_c, 0, 67, 65
2, 85315, Note_on_c, 0, 63, 66
2, 85322, Control_c, 0, 64, 69
2, 85322, Control_c, 0, 67, 66
2, 85338, Control_c, 0, 64, 69
2, 85353, Control_c, 0, 64, 68
2, 85368, Control_c, 0, 64, 67
2, 85368, Control_c, 0, 67, 67
2, 85383, Control_c, 0, 64, 66
2, 85383, Control_c, 0, 67, 67
2, 85385, Note_on_c, 0, 63, 0
2, 85398, Control_c, 0, 64, 64
2, 85398, Control_c, 0, 67, 68
2, 85407, Note_on_c, 0, 56, 57
2, 85414, Control_c, 0, 64, 60
2, 85414, Control_c, 0, 67, 69
2, 85422, Note_on_c, 0, 65, 68
2, 85428, Control_c, 0, 64, 54
2, 85428, Control_c, 0, 67, 70
2, 85444, Control_c, 0, 64, 52
2, 85459, Control_c, 0, 64, 50
2, 85474, Control_c, 0, 64, 48
2, 85474, Control_c, 0, 67, 71
2, 85497, Control_c, 0, 64, 44
2, 85497, Control_c, 0, 67, 71
2, 85506, Note_on_c, 0, 56, 0
2, 85508, Note_on_c, 0, 65, 0
2, 85512, Control_c, 0, 64, 40
2, 85515, Note_on_c, 0, 63, 65
2, 85528, Control_c, 0, 64, 35
2, 85528, Note_on_c, 0, 55, 57
2, 85543, Control_c, 0, 64, 34
2, 85557, Control_c, 0, 64, 34
2, 85604, Control_c, 0, 64, 33
2, 85619, Control_c, 0, 64, 33
2, 85634, Note_on_c, 0, 55, 0
2, 85635, Note_on_c, 0, 56, 65
2, 85639, Note_on_c, 0, 72, 80
2, 85649, Control_c, 0, 64, 32
2, 85649, Control_c, 0, 67, 71
2, 85664, Control_c, 0, 64, 32
2, 85665, Note_on_c, 0, 63, 0
2, 85695, Control_c, 0, 64, 31
2, 85729, Note_on_c, 0, 56, 0
2, 85744, Note_on_c, 0, 58, 67
2, 85785, Control_c, 0, 67, 70
2, 85800, Control_c, 0, 64, 31
2, 85814, Note_on_c, 0, 58, 0
2, 85831, Control_c, 0, 64, 30
2, 85849, Note_on_c, 0, 60, 54
2, 85868, Note_on_c, 0, 63, 66
2, 85892, Control_c, 0, 67, 69
2, 85906, Control_c, 0, 64, 30
2, 85962, Note_on_c, 0, 56, 56
2, 85974, Note_on_c, 0, 60, 0
2, 85983, Control_c, 0, 67, 69
2, 86059, Control_c, 0, 64, 29
2, 86074, Note_on_c, 0, 68, 70
2, 86081, Note_on_c, 0, 63, 0
2, 86086, Note_on_c, 0, 53, 55
2, 86087, Note_on_c, 0, 56, 0
2, 86116, Note_on_c, 0, 72, 0
2, 86179, Note_on_c, 0, 53, 0
2, 86179, Note_on_c, 0, 70, 72
2, 86185, Note_on_c, 0, 55, 62
2, 86247, Note_on_c, 0, 55, 0
2, 86251, Note_on_c, 0, 68, 0
2, 86288, Note_on_c, 0, 56, 67
2, 86289, Note_on_c, 0, 72, 79
2, 86308, Note_on_c, 0, 70, 0
2, 86352, Note_on_c, 0, 72, 0
2, 86371, Control_c, 0, 64, 28
2, 86374, Note_on_c, 0, 56, 0
2, 86386, Control_c, 0, 64, 26
2, 86391, Note_on_c, 0, 68, 72
2, 86396, Note_on_c, 0, 53, 60
2, 86401, Control_c, 0, 64, 24
2, 86417, Control_c, 0, 64, 24
2, 86448, Control_c, 0, 64, 34
2, 86463, Control_c, 0, 64, 46
2, 86470, Note_on_c, 0, 68, 0
2, 86477, Control_c, 0, 64, 56
2, 86492, Control_c, 0, 64, 61
2, 86494, Note_on_c, 0, 80, 78
2, 86507, Control_c, 0, 64, 64
2, 86520, Note_on_c, 0, 49, 50
2, 86522, Control_c, 0, 64, 65
2, 86538, Control_c, 0, 64, 65
2, 86552, Control_c, 0, 64, 65
2, 86556, Note_on_c, 0, 53, 0
2, 86583, Control_c, 0, 64, 64
2, 86593, Note_on_c, 0, 51, 62
2, 86593, Note_on_c, 0, 72, 66
2, 86598, Control_c, 0, 64, 64
2, 86598, Control_c, 0, 67, 69
2, 86598, Note_on_c, 0, 80, 0
2, 86614, Control_c, 0, 64, 63
2, 86614, Control_c, 0, 67, 71
2, 86619, Note_on_c, 0, 49, 0
2, 86629, Control_c, 0, 64, 63
2, 86629, Control_c, 0, 67, 71
2, 86645, Control_c, 0, 64, 62
2, 86654, Note_on_c, 0, 51, 0
2, 86660, Control_c, 0, 64, 60
2, 86660, Control_c, 0, 67, 72
2, 86674, Control_c, 0, 64, 57
2, 86674, Control_c, 0, 67, 73
2, 86684, Note_on_c, 0, 72, 0
2, 86690, Control_c, 0, 64, 52
2, 86690, Control_c, 0, 67, 73
2, 86691, Note_on_c, 0, 53, 61
2, 86697, Note_on_c, 0, 73, 70
2, 86705, Control_c, 0, 64, 48
2, 86705, Control_c, 0, 67, 75
2, 86720, Control_c, 0, 64, 46
2, 86720, Control_c, 0, 67, 75
2, 86736, Control_c, 0, 64, 44
2, 86736, Control_c, 0, 67, 76
2, 86750, Control_c, 0, 64, 40
2, 86750, Control_c, 0, 67, 77
2, 86765, Note_on_c, 0, 73, 0
2, 86766, Control_c, 0, 64, 34
2, 86766, Control_c, 0, 67, 78
2, 86776, Note_on_c, 0, 53, 0
2, 86781, Control_c, 0, 64, 21
2, 86781, Control_c, 0, 67, 80
2, 86790, Note_on_c, 0, 68, 61
2, 86796, Control_c, 0, 64, 0
2, 86796, Control_c, 0, 67, 82
2, 86796, Note_on_c, 0, 49, 48
2, 86812, Control_c, 0, 67, 83
2, 86827, Control_c, 0, 67, 89
2, 86841, Control_c, 0, 67, 100
2, 86856, Note_on_c, 0, 68, 0
2, 86857, Control_c, 0, 67, 115
2, 86872, Control_c, 0, 67, 127
2, 86906, Note_on_c, 0, 49, 0
2, 86911, Note_on_c, 0, 43, 56
2, 86912, Note_on_c, 0, 70, 67
2, 86918, Control_c, 0, 64, 53
2, 86934, Control_c, 0, 64, 63
2, 86947, Note_on_c, 0, 43, 0
2, 86949, Control_c, 0, 64, 67
2, 86965, Control_c, 0, 64, 68
2, 86971, Note_on_c, 0, 70, 0
2, 86980, Control_c, 0, 64, 69
2, 86994, Control_c, 0, 64, 70
2, 87017, Note_on_c, 0, 61, 55
2, 87049, Control_c, 0, 64, 69
2, 87071, Note_on_c, 0, 61, 0
2, 87078, Control_c, 0, 64, 69
2, 87094, Control_c, 0, 64, 68
2, 87109, Control_c, 0, 64, 67
2, 87124, Control_c, 0, 64, 65
2, 87127, Note_on_c, 0, 55, 48
2, 87137, Note_on_c, 0, 63, 52
2, 87139, Control_c, 0, 64, 63
2, 87154, Control_c, 0, 64, 56
2, 87170, Control_c, 0, 64, 44
2, 87184, Note_on_c, 0, 55, 0
2, 87185, Control_c, 0, 64, 30
2, 87198, Note_on_c, 0, 63, 0
2, 87199, Control_c, 0, 64, 18
2, 87215, Control_c, 0, 64, 12
2, 87225, Note_on_c, 0, 53, 50
2, 87230, Control_c, 0, 64, 0
2, 87233, Note_on_c, 0, 61, 40
2, 87331, Note_on_c, 0, 53, 0
2, 87337, Note_on_c, 0, 61, 0
2, 87340, Note_on_c, 0, 55, 43
2, 87348, Note_on_c, 0, 70, 58
2, 87405, Note_on_c, 0, 55, 0
2, 87432, Note_on_c, 0, 56, 53
2, 87495, Note_on_c, 0, 56, 0
2, 87537, Note_on_c, 0, 58, 50
2, 87568, Note_on_c, 0, 61, 50
2, 87616, Note_on_c, 0, 58, 0
2, 87669, Note_on_c, 0, 61, 0
2, 87677, Note_on_c, 0, 55, 37
2, 87731, Note_on_c, 0, 70, 0
2, 87746, Note_on_c, 0, 55, 0
2, 87753, Note_on_c, 0, 67, 48
2, 87769, Note_on_c, 0, 52, 45
2, 87861, Note_on_c, 0, 67, 0
2, 87872, Note_on_c, 0, 52, 0
2, 87872, Note_on_c, 0, 68, 54
2, 87893, Note_on_c, 0, 53, 39
2, 87946, Note_on_c, 0, 53, 0
2, 87980, Note_on_c, 0, 68, 0
2, 87985, Note_on_c, 0, 55, 53
2, 87985, Note_on_c, 0, 70, 58
2, 88049, Note_on_c, 0, 70, 0
2, 88074, Note_on_c, 0, 55, 0
2, 88091, Note_on_c, 0, 67, 52
2, 88093, Note_on_c, 0, 52, 50
2, 88150, Control_c, 0, 64, 21
2, 88166, Control_c, 0, 64, 36
2, 88166, Note_on_c, 0, 67, 0
2, 88181, Control_c, 0, 64, 50
2, 88191, Note_on_c, 0, 79, 73
2, 88196, Control_c, 0, 64, 59
2, 88202, Note_on_c, 0, 48, 49
2, 88212, Control_c, 0, 64, 63
2, 88227, Control_c, 0, 64, 66
2, 88232, Note_on_c, 0, 52, 0
2, 88241, Control_c, 0, 64, 69
2, 88255, Note_on_c, 0, 79, 0
2, 88257, Control_c, 0, 64, 72
2, 88272, Control_c, 0, 64, 77
2, 88287, Control_c, 0, 64, 81
2, 88302, Control_c, 0, 64, 85
2, 88304, Note_on_c, 0, 48, 0
2, 88309, Note_on_c, 0, 50, 59
2, 88309, Note_on_c, 0, 70, 61
2, 88317, Control_c, 0, 64, 87
2, 88381, Note_on_c, 0, 50, 0
2, 88393, Control_c, 0, 64, 87
2, 88405, Note_on_c, 0, 52, 68
2, 88405, Note_on_c, 0, 72, 67
2, 88409, Control_c, 0, 64, 86
2, 88423, Note_on_c, 0, 70, 0
2, 88424, Control_c, 0, 64, 86
2, 88477, Note_on_c, 0, 72, 0
2, 88485, Note_on_c, 0, 67, 61
2, 88495, Note_on_c, 0, 52, 0
2, 88505, Note_on_c, 0, 48, 67
2, 88520, Note_on_c, 0, 67, 0
2, 88560, Control_c, 0, 64, 85
2, 88585, Control_c, 0, 64, 83
2, 88599, Control_c, 0, 64, 79
2, 88609, Note_on_c, 0, 41, 62
2, 88613, Note_on_c, 0, 48, 0
2, 88615, Control_c, 0, 64, 73
2, 88617, Note_on_c, 0, 68, 78
2, 88630, Control_c, 0, 64, 65
2, 88646, Control_c, 0, 64, 50
2, 88661, Control_c, 0, 64, 36
2, 88705, Note_on_c, 0, 43, 57
2, 88721, Control_c, 0, 64, 36
2, 88729, Note_on_c, 0, 76, 61
2, 88735, Note_on_c, 0, 41, 0
2, 88736, Control_c, 0, 64, 35
2, 88737, Note_on_c, 0, 77, 59
2, 88792, Note_on_c, 0, 77, 0
2, 88808, Note_on_c, 0, 44, 60
2, 88815, Note_on_c, 0, 43, 0
2, 88815, Note_on_c, 0, 76, 0
2, 88828, Control_c, 0, 64, 35
2, 88891, Note_on_c, 0, 68, 0
2, 88912, Note_on_c, 0, 46, 68
2, 88914, Note_on_c, 0, 44, 0
2, 88922, Note_on_c, 0, 73, 78
2, 89016, Note_on_c, 0, 46, 0
2, 89032, Note_on_c, 0, 48, 69
2, 89034, Note_on_c, 0, 73, 0
2, 89039, Note_on_c, 0, 70, 80
2, 89101, Control_c, 0, 64, 34
2, 89129, Note_on_c, 0, 48, 0
2, 89139, Note_on_c, 0, 50, 69
2, 89234, Note_on_c, 0, 50, 0
2, 89251, Note_on_c, 0, 52, 68
2, 89253, Note_on_c, 0, 60, 75
2, 89277, Note_on_c, 0, 60, 0
2, 89285, Control_c, 0, 67, 120
2, 89299, Control_c, 0, 67, 106
2, 89314, Control_c, 0, 67, 92
2, 89324, Note_on_c, 0, 52, 0
2, 89330, Control_c, 0, 67, 77
2, 89349, Note_on_c, 0, 48, 61
2, 89352, Control_c, 0, 67, 55
2, 89368, Control_c, 0, 67, 30
2, 89383, Control_c, 0, 67, 13
2, 89398, Control_c, 0, 67, 0
2, 89452, Note_on_c, 0, 48, 0
2, 89478, Note_on_c, 0, 61, 75
2, 89508, Note_on_c, 0, 53, 54
2, 89518, Note_on_c, 0, 70, 0
2, 89585, Note_on_c, 0, 60, 78
2, 89588, Note_on_c, 0, 61, 0
2, 89606, Note_on_c, 0, 51, 66
2, 89612, Note_on_c, 0, 53, 0
2, 89694, Note_on_c, 0, 51, 0
2, 89698, Note_on_c, 0, 58, 89
2, 89698, Note_on_c, 0, 60, 0
2, 89707, Note_on_c, 0, 49, 66
2, 89800, Note_on_c, 0, 60, 85
2, 89801, Note_on_c, 0, 51, 72
2, 89806, Note_on_c, 0, 49, 0
2, 89810, Note_on_c, 0, 58, 0
2, 89885, Note_on_c, 0, 51, 0
2, 89902, Note_on_c, 0, 53, 69
2, 89911, Note_on_c, 0, 68, 89
2, 89936, Note_on_c, 0, 60, 0
2, 90002, Note_on_c, 0, 51, 75
2, 90021, Note_on_c, 0, 53, 0
2, 90122, Note_on_c, 0, 51, 0
2, 90128, Note_on_c, 0, 49, 68
2, 90144, Note_on_c, 0, 65, 77
2, 90184, Note_on_c, 0, 65, 0
2, 90221, Note_on_c, 0, 49, 0
2, 90231, Note_on_c, 0, 48, 66
2, 90311, Note_on_c, 0, 48, 0
2, 90334, Control_c, 0, 64, 23
2, 90349, Control_c, 0, 64, 0
2, 90354, Note_on_c, 0, 49, 75
2, 90364, Note_on_c, 0, 60, 87
2, 90424, Control_c, 0, 64, 28
2, 90439, Control_c, 0, 64, 58
2, 90450, Note_on_c, 0, 68, 0
2, 90455, Control_c, 0, 64, 69
2, 90470, Control_c, 0, 64, 78
2, 90486, Control_c, 0, 64, 90
2, 90494, Note_on_c, 0, 60, 0
2, 90500, Control_c, 0, 64, 97
2, 90515, Control_c, 0, 64, 98
2, 90531, Control_c, 0, 64, 96
2, 90544, Control_c, 0, 64, 92
2, 90559, Control_c, 0, 64, 89
2, 90574, Control_c, 0, 64, 85
2, 90589, Control_c, 0, 64, 82
2, 90598, Note_on_c, 0, 58, 78
2, 90604, Control_c, 0, 64, 78
2, 90619, Control_c, 0, 64, 75
2, 90634, Control_c, 0, 64, 69
2, 90649, Control_c, 0, 64, 64
2, 90665, Control_c, 0, 64, 59
2, 90673, Note_on_c, 0, 58, 0
2, 90680, Control_c, 0, 64, 57
2, 90682, Note_on_c, 0, 56, 78
2, 90695, Control_c, 0, 64, 56
2, 90710, Control_c, 0, 64, 55
2, 90725, Control_c, 0, 64, 50
2, 90727, Note_on_c, 0, 56, 0
2, 90741, Control_c, 0, 64, 42
2, 90756, Control_c, 0, 64, 38
2, 90772, Control_c, 0, 64, 37
2, 90787, Control_c, 0, 64, 36
2, 90802, Control_c, 0, 64, 35
2, 90806, Note_on_c, 0, 67, 83
2, 90817, Control_c, 0, 64, 34
2, 90829, Note_on_c, 0, 59, 66
2, 90832, Control_c, 0, 64, 33
2, 90840, Note_on_c, 0, 58, 19
2, 90847, Control_c, 0, 64, 32
2, 90860, Note_on_c, 0, 59, 0
2, 90863, Note_on_c, 0, 67, 0
2, 90885, Control_c, 0, 64, 31
2, 90889, Note_on_c, 0, 58, 0
2, 90907, Note_on_c, 0, 48, 54
2, 90915, Control_c, 0, 64, 31
2, 90920, Note_on_c, 0, 49, 0
2, 90961, Control_c, 0, 64, 30
2, 91005, Note_on_c, 0, 48, 0
2, 91006, Note_on_c, 0, 46, 57
2, 91035, Note_on_c, 0, 67, 85
2, 91053, Control_c, 0, 64, 30
2, 91098, Note_on_c, 0, 46, 0
2, 91101, Note_on_c, 0, 49, 59
2, 91194, Note_on_c, 0, 49, 0
2, 91244, Note_on_c, 0, 56, 82
2, 91245, Note_on_c, 0, 48, 66
2, 91286, Note_on_c, 0, 56, 0
2, 91357, Control_c, 0, 64, 29
2, 91358, Note_on_c, 0, 46, 59
2, 91358, Note_on_c, 0, 48, 0
2, 91395, Note_on_c, 0, 67, 0
2, 91459, Note_on_c, 0, 65, 73
2, 91465, Note_on_c, 0, 46, 0
2, 91471, Note_on_c, 0, 44, 59
2, 91496, Note_on_c, 0, 65, 0
2, 91538, Note_on_c, 0, 44, 0
2, 91548, Note_on_c, 0, 48, 65
2, 91671, Note_on_c, 0, 46, 62
2, 91673, Note_on_c, 0, 48, 0
2, 91673, Note_on_c, 0, 64, 68
2, 91678, Note_on_c, 0, 55, 58
2, 91702, Note_on_c, 0, 55, 0
2, 91725, Note_on_c, 0, 64, 0
2, 91753, Note_on_c, 0, 46, 0
2, 91781, Note_on_c, 0, 44, 59
2, 91841, Note_on_c, 0, 44, 0
2, 91863, Note_on_c, 0, 46, 57
2, 91896, Note_on_c, 0, 64, 56
2, 91896, Note_on_c, 0, 67, 55
2, 91918, Note_on_c, 0, 64, 0
2, 91928, Note_on_c, 0, 67, 0
2, 91963, Note_on_c, 0, 43, 49
2, 91967, Note_on_c, 0, 46, 0
2, 92034, Note_on_c, 0, 43, 0
2, 92065, Control_c, 0, 64, 29
2, 92072, Note_on_c, 0, 53, 45
2, 92080, Control_c, 0, 64, 28
2, 92082, Note_on_c, 0, 44, 38
2, 92096, Control_c, 0, 64, 26
2, 92107, Note_on_c, 0, 72, 59
2, 92110, Control_c, 0, 64, 24
2, 92119, Note_on_c, 0, 44, 0
2, 92125, Control_c, 0, 64, 24
2, 92141, Control_c, 0, 64, 23
2, 92172, Control_c, 0, 64, 21
2, 92186, Control_c, 0, 64, 17
2, 92201, Control_c, 0, 64, 14
2, 92208, Note_on_c, 0, 72, 0
2, 92212, Note_on_c, 0, 70, 58
2, 92217, Control_c, 0, 64, 12
2, 92231, Control_c, 0, 64, 10
2, 92307, Control_c, 0, 64, 8
2, 92312, Note_on_c, 0, 70, 0
2, 92321, Note_on_c, 0, 49, 48
2, 92326, Note_on_c, 0, 68, 66
2, 92353, Control_c, 0, 64, 0
2, 92364, Note_on_c, 0, 49, 0
2, 92424, Note_on_c, 0, 68, 0
2, 92429, Note_on_c, 0, 72, 63
2, 92514, Note_on_c, 0, 53, 0
2, 92543, Note_on_c, 0, 43, 66
2, 92543, Note_on_c, 0, 70, 67
2, 92576, Note_on_c, 0, 72, 0
2, 92585, Note_on_c, 0, 43, 0
2, 92644, Note_on_c, 0, 68, 72
2, 92646, Note_on_c, 0, 70, 0
2, 92750, Note_on_c, 0, 68, 0
2, 92757, Note_on_c, 0, 67, 77
2, 92761, Note_on_c, 0, 52, 68
2, 92767, Note_on_c, 0, 48, 61
2, 92791, Note_on_c, 0, 52, 0
2, 92798, Note_on_c, 0, 48, 0
2, 92866, Note_on_c, 0, 70, 70
2, 92881, Note_on_c, 0, 67, 0
2, 92982, Note_on_c, 0, 53, 88
2, 92983, Note_on_c, 0, 70, 0
2, 92985, Note_on_c, 0, 68, 81
2, 92988, Note_on_c, 0, 41, 74
2, 93013, Note_on_c, 0, 53, 0
2, 93029, Note_on_c, 0, 41, 0
2, 93081, Note_on_c, 0, 65, 74
2, 93081, Note_on_c, 0, 68, 0
2, 93198, Note_on_c, 0, 65, 0
2, 93212, Note_on_c, 0, 52, 88
2, 93216, Note_on_c, 0, 73, 79
2, 93220, Note_on_c, 0, 46, 77
2, 93251, Note_on_c, 0, 52, 0
2, 93270, Note_on_c, 0, 46, 0
2, 93306, Note_on_c, 0, 70, 78
2, 93315, Note_on_c, 0, 73, 0
2, 93424, Note_on_c, 0, 70, 0
2, 93425, Note_on_c, 0, 72, 87
2, 93434, Note_on_c, 0, 55, 80
2, 93435, Note_on_c, 0, 46, 75
2, 93437, Note_on_c, 0, 53, 74
2, 93460, Note_on_c, 0, 44, 43
2, 93461, Note_on_c, 0, 44, 0
2, 93465, Note_on_c, 0, 55, 0
2, 93472, Note_on_c, 0, 46, 0
2, 93474, Note_on_c, 0, 53, 0
2, 93500, Note_on_c, 0, 72, 0
2, 93518, Note_on_c, 0, 68, 82
2, 93561, Note_on_c, 0, 68, 0
2, 93628, Note_on_c, 0, 58, 84
2, 93630, Note_on_c, 0, 78, 81
2, 93649, Note_on_c, 0, 49, 49
2, 93672, Note_on_c, 0, 78, 0
2, 93682, Note_on_c, 0, 49, 0
2, 93691, Note_on_c, 0, 58, 0
2, 93737, Note_on_c, 0, 76, 80
2, 93791, Note_on_c, 0, 76, 0
2, 93846, Note_on_c, 0, 56, 68
2, 93847, Note_on_c, 0, 76, 82
2, 93869, Note_on_c, 0, 48, 52
2, 93951, Note_on_c, 0, 77, 88
2, 93971, Note_on_c, 0, 76, 0
2, 94061, Note_on_c, 0, 56, 0
2, 94063, Note_on_c, 0, 55, 67
2, 94070, Note_on_c, 0, 83, 90
2, 94081, Note_on_c, 0, 77, 0
2, 94153, Note_on_c, 0, 55, 0
2, 94167, Note_on_c, 0, 84, 83
2, 94168, Note_on_c, 0, 53, 67
2, 94172, Note_on_c, 0, 83, 0
2, 94272, Note_on_c, 0, 84, 0
2, 94274, Note_on_c, 0, 53, 0
2, 94284, Note_on_c, 0, 77, 84
2, 94286, Note_on_c, 0, 55, 73
2, 94333, Note_on_c, 0, 76, 77
2, 94334, Note_on_c, 0, 77, 0
2, 94340, Note_on_c, 0, 55, 0
2, 94384, Note_on_c, 0, 77, 78
2, 94388, Note_on_c, 0, 76, 0
2, 94453, Note_on_c, 0, 76, 83
2, 94464, Note_on_c, 0, 77, 0
2, 94519, Note_on_c, 0, 58, 74
2, 94542, Note_on_c, 0, 48, 0
2, 94565, Note_on_c, 0, 58, 0
2, 94599, Note_on_c, 0, 77, 91
2, 94624, Note_on_c, 0, 76, 0
2, 94648, Note_on_c, 0, 77, 0
2, 94746, Note_on_c, 0, 53, 41
2, 94752, Note_on_c, 0, 56, 46
2, 94758, Note_on_c, 0, 77, 91
2, 94874, Note_on_c, 0, 58, 71
2, 94884, Note_on_c, 0, 56, 0
2, 94956, Note_on_c, 0, 58, 0
2, 94977, Note_on_c, 0, 60, 64
2, 95076, Note_on_c, 0, 53, 0
2, 95081, Note_on_c, 0, 60, 0
2, 95082, Note_on_c, 0, 56, 65
2, 95177, Note_on_c, 0, 77, 0
2, 95190, Note_on_c, 0, 56, 0
2, 95204, Note_on_c, 0, 53, 66
2, 95284, Note_on_c, 0, 53, 0
2, 95288, Note_on_c, 0, 54, 61
2, 95332, Note_on_c, 0, 54, 0
2, 95364, Note_on_c, 0, 56, 53
2, 95402, Note_on_c, 0, 77, 82
2, 95426, Note_on_c, 0, 77, 0
2, 95440, Note_on_c, 0, 56, 0
2, 95472, Note_on_c, 0, 53, 57
2, 95590, Note_on_c, 0, 53, 0
2, 95618, Note_on_c, 0, 50, 44
2, 95621, Note_on_c, 0, 71, 69
2, 95719, Note_on_c, 0, 51, 55
2, 95726, Note_on_c, 0, 71, 0
2, 95731, Note_on_c, 0, 70, 79
2, 95734, Note_on_c, 0, 50, 0
2, 95813, Note_on_c, 0, 51, 0
2, 95826, Note_on_c, 0, 70, 0
2, 95835, Note_on_c, 0, 68, 83
2, 95836, Note_on_c, 0, 53, 54
2, 95917, Note_on_c, 0, 53, 0
2, 95918, Note_on_c, 0, 68, 0
2, 95923, Note_on_c, 0, 70, 84
2, 95928, Note_on_c, 0, 50, 58
2, 96019, Note_on_c, 0, 50, 0
2, 96032, Note_on_c, 0, 70, 0
2, 96033, Note_on_c, 0, 77, 87
2, 96051, Note_on_c, 0, 46, 56
2, 96068, Note_on_c, 0, 77, 0
2, 96138, Note_on_c, 0, 46, 0
2, 96143, Note_on_c, 0, 50, 56
2, 96235, Note_on_c, 0, 50, 0
2, 96260, Note_on_c, 0, 53, 58
2, 96264, Note_on_c, 0, 74, 84
2, 96293, Note_on_c, 0, 74, 0
2, 96308, Note_on_c, 0, 53, 0
2, 96343, Note_on_c, 0, 58, 60
2, 96475, Note_on_c, 0, 68, 84
2, 96489, Note_on_c, 0, 51, 54
2, 96510, Note_on_c, 0, 58, 0
2, 96595, Note_on_c, 0, 54, 60
2, 96598, Note_on_c, 0, 51, 0
2, 96685, Note_on_c, 0, 66, 81
2, 96692, Note_on_c, 0, 54, 0
2, 96694, Note_on_c, 0, 68, 0
2, 96700, Note_on_c, 0, 58, 62
2, 96754, Note_on_c, 0, 58, 0
2, 96785, Note_on_c, 0, 66, 0
2, 96791, Note_on_c, 0, 65, 80
2, 96793, Note_on_c, 0, 62, 56
2, 96893, Note_on_c, 0, 65, 0
2, 96896, Note_on_c, 0, 62, 0
2, 96905, Note_on_c, 0, 66, 83
2, 96923, Note_on_c, 0, 63, 61
2, 96932, Note_on_c, 0, 66, 0
2, 96993, Note_on_c, 0, 63, 0
2, 97024, Note_on_c, 0, 65, 65
2, 97093, Note_on_c, 0, 65, 0
2, 97121, Note_on_c, 0, 66, 59
2, 97138, Note_on_c, 0, 75, 62
2, 97178, Note_on_c, 0, 75, 0
2, 97207, Note_on_c, 0, 66, 0
2, 97233, Note_on_c, 0, 63, 53
2, 97319, Note_on_c, 0, 63, 0
2, 97349, Note_on_c, 0, 69, 56
2, 97356, Note_on_c, 0, 60, 52
2, 97438, Note_on_c, 0, 69, 0
2, 97439, Note_on_c, 0, 60, 0
2, 97459, Note_on_c, 0, 61, 52
2, 97459, Note_on_c, 0, 68, 65
2, 97543, Note_on_c, 0, 61, 0
2, 97546, Note_on_c, 0, 68, 0
2, 97571, Note_on_c, 0, 63, 53
2, 97572, Note_on_c, 0, 66, 61
2, 97647, Note_on_c, 0, 63, 0
2, 97667, Note_on_c, 0, 60, 51
2, 97668, Note_on_c, 0, 68, 73
2, 97674, Note_on_c, 0, 66, 0
2, 97697, Note_on_c, 0, 60, 0
2, 97773, Note_on_c, 0, 68, 0
2, 97778, Note_on_c, 0, 75, 72
2, 97813, Note_on_c, 0, 56, 56
2, 97830, Note_on_c, 0, 75, 0
2, 97904, Note_on_c, 0, 44, 53
2, 97996, Note_on_c, 0, 44, 0
2, 98003, Note_on_c, 0, 46, 48
2, 98018, Note_on_c, 0, 72, 68
2, 98080, Note_on_c, 0, 72, 0
2, 98084, Note_on_c, 0, 48, 59
2, 98110, Note_on_c, 0, 46, 0
2, 98128, Note_on_c, 0, 48, 0
2, 98129, Note_on_c, 0, 56, 0
2, 98129, Note_on_c, 0, 56, 6
2, 98202, Note_on_c, 0, 56, 0
2, 98227, Note_on_c, 0, 66, 65
2, 98230, Note_on_c, 0, 49, 53
2, 98237, Control_c, 0, 64, 35
2, 98253, Control_c, 0, 64, 49
2, 98268, Control_c, 0, 64, 59
2, 98283, Control_c, 0, 64, 64
2, 98299, Control_c, 0, 64, 67
2, 98314, Control_c, 0, 64, 70
2, 98329, Control_c, 0, 64, 74
2, 98338, Note_on_c, 0, 56, 61
2, 98344, Control_c, 0, 64, 80
2, 98359, Control_c, 0, 64, 87
2, 98365, Note_on_c, 0, 49, 0
2, 98375, Control_c, 0, 64, 93
2, 98390, Control_c, 0, 64, 95
2, 98405, Control_c, 0, 64, 95
2, 98412, Note_on_c, 0, 66, 0
2, 98421, Control_c, 0, 64, 94
2, 98436, Control_c, 0, 64, 93
2, 98436, Note_on_c, 0, 65, 65
2, 98438, Note_on_c, 0, 56, 0
2, 98448, Note_on_c, 0, 58, 61
2, 98467, Control_c, 0, 64, 93
2, 98482, Control_c, 0, 64, 92
2, 98497, Control_c, 0, 64, 91
2, 98512, Control_c, 0, 64, 91
2, 98522, Note_on_c, 0, 58, 0
2, 98527, Control_c, 0, 64, 90
2, 98540, Note_on_c, 0, 65, 0
2, 98543, Control_c, 0, 64, 90
2, 98558, Note_on_c, 0, 63, 69
2, 98565, Control_c, 0, 64, 89
2, 98577, Note_on_c, 0, 60, 53
2, 98580, Control_c, 0, 64, 88
2, 98595, Control_c, 0, 64, 87
2, 98611, Control_c, 0, 64, 86
2, 98626, Control_c, 0, 64, 85
2, 98628, Note_on_c, 0, 63, 0
2, 98640, Note_on_c, 0, 60, 0
2, 98641, Control_c, 0, 64, 84
2, 98657, Control_c, 0, 64, 83
2, 98660, Note_on_c, 0, 61, 52
2, 98663, Note_on_c, 0, 65, 74
2, 98672, Control_c, 0, 64, 82
2, 98685, Note_on_c, 0, 61, 0
2, 98686, Control_c, 0, 64, 81
2, 98702, Control_c, 0, 64, 79
2, 98717, Control_c, 0, 64, 76
2, 98733, Control_c, 0, 64, 73
2, 98748, Control_c, 0, 64, 70
2, 98763, Control_c, 0, 64, 68
2, 98766, Note_on_c, 0, 51, 57
2, 98768, Note_on_c, 0, 68, 71
2, 98769, Note_on_c, 0, 65, 0
2, 98779, Control_c, 0, 64, 67
2, 98793, Control_c, 0, 64, 66
2, 98808, Control_c, 0, 64, 63
2, 98824, Control_c, 0, 64, 60
2, 98838, Control_c, 0, 64, 54
2, 98854, Control_c, 0, 64, 46
2, 98860, Note_on_c, 0, 53, 56
2, 98869, Control_c, 0, 64, 40
2, 98870, Note_on_c, 0, 73, 79
2, 98874, Note_on_c, 0, 51, 0
2, 98880, Note_on_c, 0, 68, 0
2, 98884, Control_c, 0, 64, 38
2, 98900, Control_c, 0, 64, 36
2, 98914, Control_c, 0, 64, 34
2, 98929, Control_c, 0, 64, 33
2, 98945, Control_c, 0, 64, 31
2, 98950, Note_on_c, 0, 53, 0
2, 98962, Note_on_c, 0, 55, 68
2, 98976, Control_c, 0, 64, 31
2, 98978, Note_on_c, 0, 75, 82
2, 98981, Note_on_c, 0, 73, 0
2, 99035, Control_c, 0, 64, 30
2, 99060, Note_on_c, 0, 55, 0
2, 99078, Note_on_c, 0, 77, 86
2, 99079, Note_on_c, 0, 75, 0
2, 99081, Note_on_c, 0, 56, 73
2, 99143, Control_c, 0, 64, 30
2, 99183, Note_on_c, 0, 56, 0
2, 99184, Note_on_c, 0, 75, 89
2, 99190, Note_on_c, 0, 55, 63
2, 99191, Note_on_c, 0, 77, 0
2, 99278, Note_on_c, 0, 75, 0
2, 99286, Note_on_c, 0, 55, 0
2, 99293, Note_on_c, 0, 73, 84
2, 99297, Note_on_c, 0, 53, 51
2, 99359, Note_on_c, 0, 73, 0
2, 99365, Note_on_c, 0, 53, 0
2, 99395, Note_on_c, 0, 75, 81
2, 99401, Note_on_c, 0, 55, 61
2, 99427, Note_on_c, 0, 75, 0
2, 99452, Note_on_c, 0, 55, 0
2, 99496, Note_on_c, 0, 56, 69
2, 99501, Note_on_c, 0, 84, 91
2, 99504, Note_on_c, 0, 72, 80
2, 99567, Note_on_c, 0, 56, 0
2, 99572, Note_on_c, 0, 84, 0
2, 99603, Note_on_c, 0, 55, 62
2, 99698, Note_on_c, 0, 72, 0
2, 99721, Note_on_c, 0, 80, 86
2, 99722, Note_on_c, 0, 55, 0
2, 99724, Note_on_c, 0, 53, 69
2, 99745, Note_on_c, 0, 72, 37
2, 99769, Note_on_c, 0, 80, 0
2, 99821, Note_on_c, 0, 53, 0
2, 99827, Note_on_c, 0, 51, 69
2, 99942, Note_on_c, 0, 51, 0
2, 99954, Note_on_c, 0, 53, 72
2, 99955, Note_on_c, 0, 75, 88
2, 99983, Note_on_c, 0, 76, 80
2, 100044, Note_on_c, 0, 72, 0
2, 100125, Note_on_c, 0, 76, 0
2, 100126, Note_on_c, 0, 75, 0
2, 100188, Note_on_c, 0, 73, 78
2, 100296, Note_on_c, 0, 73, 0
2, 100298, Note_on_c, 0, 72, 84
2, 100328, Control_c, 0, 64, 29
2, 100390, Control_c, 0, 64, 29
2, 100411, Note_on_c, 0, 73, 88
2, 100412, Note_on_c, 0, 72, 0
2, 100421, Control_c, 0, 64, 28
2, 100421, Note_on_c, 0, 70, 69
2, 100435, Control_c, 0, 64, 28
2, 100451, Control_c, 0, 64, 27
2, 100466, Control_c, 0, 64, 26
2, 100468, Note_on_c, 0, 73, 0
2, 100481, Control_c, 0, 64, 26
2, 100508, Note_on_c, 0, 53, 0
2, 100513, Note_on_c, 0, 51, 65
2, 100622, Note_on_c, 0, 49, 49
2, 100633, Control_c, 0, 64, 25
2, 100634, Note_on_c, 0, 82, 87
2, 100641, Note_on_c, 0, 51, 0
2, 100665, Note_on_c, 0, 82, 0
2, 100683, Note_on_c, 0, 49, 0
2, 100715, Note_on_c, 0, 53, 58
2, 100758, Note_on_c, 0, 70, 0
2, 100817, Note_on_c, 0, 53, 0
2, 100836, Note_on_c, 0, 51, 65
2, 100843, Note_on_c, 0, 72, 87
2, 100888, Note_on_c, 0, 72, 0
2, 100961, Note_on_c, 0, 51, 0
2, 100968, Note_on_c, 0, 49, 53
2, 101047, Note_on_c, 0, 49, 0
2, 101066, Note_on_c, 0, 48, 56
2, 101066, Note_on_c, 0, 68, 80
2, 101067, Note_on_c, 0, 80, 80
2, 101086, Note_on_c, 0, 68, 0
2, 101092, Note_on_c, 0, 80, 0
2, 101112, Control_c, 0, 64, 24
2, 101121, Note_on_c, 0, 48, 0
2, 101148, Note_on_c, 0, 51, 57
2, 101273, Note_on_c, 0, 51, 0
2, 101273, Note_on_c, 0, 70, 76
2, 101276, Note_on_c, 0, 49, 55
2, 101283, Note_on_c, 0, 67, 58
2, 101303, Note_on_c, 0, 67, 0
2, 101335, Note_on_c, 0, 70, 0
2, 101371, Note_on_c, 0, 49, 0
2, 101378, Note_on_c, 0, 48, 52
2, 101466, Note_on_c, 0, 48, 0
2, 101492, Note_on_c, 0, 46, 56
2, 101495, Note_on_c, 0, 70, 74
2, 101496, Note_on_c, 0, 79, 61
2, 101521, Note_on_c, 0, 79, 0
2, 101531, Note_on_c, 0, 70, 0
2, 101588, Note_on_c, 0, 49, 51
2, 101615, Note_on_c, 0, 46, 0
2, 101666, Note_on_c, 0, 49, 0
2, 101715, Note_on_c, 0, 63, 63
2, 101716, Note_on_c, 0, 48, 54
2, 101720, Note_on_c, 0, 68, 66
2, 101746, Note_on_c, 0, 63, 0
2, 101757, Note_on_c, 0, 48, 0
2, 101816, Note_on_c, 0, 63, 60
2, 101875, Note_on_c, 0, 68, 0
2, 101917, Note_on_c, 0, 63, 0
2, 101938, Note_on_c, 0, 51, 72
2, 101944, Note_on_c, 0, 65, 70
2, 101965, Note_on_c, 0, 51, 0
2, 101969, Control_c, 0, 64, 24
2, 102032, Note_on_c, 0, 65, 0
2, 102034, Note_on_c, 0, 67, 63
2, 102152, Note_on_c, 0, 68, 68
2, 102158, Note_on_c, 0, 54, 68
2, 102167, Control_c, 0, 64, 24
2, 102181, Note_on_c, 0, 67, 0
2, 102258, Note_on_c, 0, 68, 0
2, 102261, Note_on_c, 0, 70, 69
2, 102357, Note_on_c, 0, 70, 0
2, 102371, Note_on_c, 0, 72, 66
2, 102378, Note_on_c, 0, 56, 69
2, 102442, Note_on_c, 0, 56, 0
2, 102462, Note_on_c, 0, 72, 0
2, 102480, Note_on_c, 0, 68, 60
2, 102616, Note_on_c, 0, 73, 66
2, 102622, Note_on_c, 0, 58, 65
2, 102626, Note_on_c, 0, 68, 0
2, 102644, Note_on_c, 0, 54, 0
2, 102714, Note_on_c, 0, 72, 71
2, 102726, Note_on_c, 0, 56, 73
2, 102760, Note_on_c, 0, 73, 0
2, 102762, Note_on_c, 0, 58, 0
2, 102827, Note_on_c, 0, 56, 0
2, 102830, Note_on_c, 0, 70, 82
2, 102834, Note_on_c, 0, 72, 0
2, 102836, Note_on_c, 0, 54, 74
2, 102928, Note_on_c, 0, 56, 74
2, 102934, Note_on_c, 0, 72, 81
2, 102944, Note_on_c, 0, 54, 0
2, 102958, Note_on_c, 0, 70, 0
2, 103007, Note_on_c, 0, 56, 0
2, 103036, Note_on_c, 0, 72, 0
2, 103038, Note_on_c, 0, 65, 78
2, 103041, Note_on_c, 0, 73, 81
2, 103050, Note_on_c, 0, 53, 58
2, 103056, Control_c, 0, 64, 24
2, 103103, Control_c, 0, 64, 24
2, 103116, Note_on_c, 0, 65, 0
2, 103117, Control_c, 0, 64, 24
2, 103144, Note_on_c, 0, 72, 76
2, 103222, Note_on_c, 0, 73, 0
2, 103261, Note_on_c, 0, 70, 79
2, 103262, Note_on_c, 0, 61, 82
2, 103262, Note_on_c, 0, 72, 0
2, 103320, Note_on_c, 0, 61, 0
2, 103344, Note_on_c, 0, 70, 0
2, 103353, Note_on_c, 0, 68, 76
2, 103482, Note_on_c, 0, 70, 73
2, 103490, Control_c, 0, 64, 23
2, 103491, Note_on_c, 0, 56, 77
2, 103506, Note_on_c, 0, 68, 0
2, 103541, Note_on_c, 0, 53, 0
2, 103597, Control_c, 0, 64, 22
2, 103703, Control_c, 0, 64, 21
2, 103723, Note_on_c, 0, 54, 68
2, 103755, Note_on_c, 0, 56, 0
2, 103813, Note_on_c, 0, 53, 68
2, 103833, Note_on_c, 0, 54, 0
2, 103854, Control_c, 0, 64, 20
2, 103885, Control_c, 0, 64, 21
2, 103901, Control_c, 0, 64, 20
2, 103935, Note_on_c, 0, 51, 65
2, 103935, Note_on_c, 0, 54, 80
2, 103947, Note_on_c, 0, 53, 0
2, 103998, Note_on_c, 0, 54, 0
2, 104026, Note_on_c, 0, 68, 65
2, 104040, Note_on_c, 0, 70, 0
2, 104159, Note_on_c, 0, 63, 73
2, 104166, Note_on_c, 0, 66, 62
2, 104180, Note_on_c, 0, 68, 0
2, 104199, Note_on_c, 0, 63, 0
2, 104252, Note_on_c, 0, 70, 59
2, 104258, Note_on_c, 0, 66, 0
2, 104372, Note_on_c, 0, 51, 0
2, 104375, Note_on_c, 0, 53, 77
2, 104381, Note_on_c, 0, 68, 68
2, 104382, Note_on_c, 0, 70, 0
2, 104422, Note_on_c, 0, 53, 0
2, 104472, Note_on_c, 0, 68, 0
2, 104475, Note_on_c, 0, 66, 65
2, 104559, Note_on_c, 0, 66, 0
2, 104591, Note_on_c, 0, 65, 64
2, 104599, Note_on_c, 0, 61, 60
2, 104602, Note_on_c, 0, 49, 53
2, 104625, Note_on_c, 0, 61, 0
2, 104638, Note_on_c, 0, 49, 0
2, 104670, Note_on_c, 0, 65, 0
2, 104689, Note_on_c, 0, 68, 61
2, 104795, Note_on_c, 0, 68, 0
2, 104809, Note_on_c, 0, 51, 66
2, 104811, Note_on_c, 0, 66, 61
2, 104842, Note_on_c, 0, 51, 0
2, 104900, Note_on_c, 0, 65, 58
2, 104912, Note_on_c, 0, 66, 0
2, 104996, Note_on_c, 0, 65, 0
2, 105026, Note_on_c, 0, 44, 42
2, 105027, Note_on_c, 0, 60, 54
2, 105031, Note_on_c, 0, 63, 51
2, 105074, Note_on_c, 0, 44, 0
2, 105106, Note_on_c, 0, 63, 0
2, 105124, Note_on_c, 0, 66, 55
2, 105173, Note_on_c, 0, 60, 0
2, 105218, Note_on_c, 0, 66, 0
2, 105220, Note_on_c, 0, 65, 60
2, 105234, Note_on_c, 0, 61, 40
2, 105251, Note_on_c, 0, 65, 0
2, 105263, Note_on_c, 0, 61, 0
2, 105313, Note_on_c, 0, 51, 61
2, 105389, Note_on_c, 0, 51, 0
2, 105431, Note_on_c, 0, 53, 59
2, 105437, Note_on_c, 0, 68, 64
2, 105498, Note_on_c, 0, 68, 0
2, 105536, Note_on_c, 0, 53, 0
2, 105543, Note_on_c, 0, 54, 60
2, 105645, Note_on_c, 0, 54, 0
2, 105648, Note_on_c, 0, 73, 72
2, 105660, Note_on_c, 0, 53, 54
2, 105759, Note_on_c, 0, 53, 0
2, 105761, Note_on_c, 0, 51, 64
2, 105861, Note_on_c, 0, 80, 70
2, 105872, Note_on_c, 0, 49, 57
2, 105885, Note_on_c, 0, 51, 0
2, 105895, Note_on_c, 0, 73, 0
2, 105952, Note_on_c, 0, 77, 77
2, 105957, Note_on_c, 0, 49, 0
2, 105957, Note_on_c, 0, 53, 61
2, 105984, Note_on_c, 0, 80, 0
2, 106031, Note_on_c, 0, 53, 0
2, 106063, Note_on_c, 0, 58, 65
2, 106065, Note_on_c, 0, 73, 82
2, 106067, Note_on_c, 0, 77, 0
2, 106158, Note_on_c, 0, 56, 67
2, 106163, Note_on_c, 0, 58, 0
2, 106280, Note_on_c, 0, 56, 0
2, 106294, Note_on_c, 0, 55, 69
2, 106300, Note_on_c, 0, 76, 77
2, 106307, Note_on_c, 0, 73, 0
2, 106398, Note_on_c, 0, 73, 85
2, 106406, Note_on_c, 0, 55, 0
2, 106408, Note_on_c, 0, 58, 73
2, 106413, Note_on_c, 0, 76, 0
2, 106508, Note_on_c, 0, 61, 77
2, 106509, Note_on_c, 0, 58, 0
2, 106511, Note_on_c, 0, 70, 88
2, 106518, Note_on_c, 0, 73, 0
2, 106562, Control_c, 0, 64, 24
2, 106578, Control_c, 0, 64, 41
2, 106594, Control_c, 0, 64, 55
2, 106609, Control_c, 0, 64, 62
2, 106613, Note_on_c, 0, 61, 0
2, 106617, Note_on_c, 0, 59, 73
2, 106625, Control_c, 0, 64, 66
2, 106640, Control_c, 0, 64, 69
2, 106656, Control_c, 0, 64, 74
2, 106670, Control_c, 0, 64, 81
2, 106685, Control_c, 0, 64, 90
2, 106694, Note_on_c, 0, 59, 0
2, 106701, Control_c, 0, 64, 97
2, 106703, Note_on_c, 0, 70, 0
2, 106711, Note_on_c, 0, 58, 69
2, 106712, Note_on_c, 0, 73, 83
2, 106716, Control_c, 0, 64, 100
2, 106777, Control_c, 0, 64, 99
2, 106792, Control_c, 0, 64, 98
2, 106793, Note_on_c, 0, 58, 0
2, 106807, Control_c, 0, 64, 97
2, 106807, Note_on_c, 0, 61, 79
2, 106812, Note_on_c, 0, 70, 84
2, 106823, Control_c, 0, 64, 96
2, 106828, Note_on_c, 0, 73, 0
2, 106837, Control_c, 0, 64, 95
2, 106853, Control_c, 0, 64, 94
2, 106868, Control_c, 0, 64, 93
2, 106883, Control_c, 0, 64, 93
2, 106899, Control_c, 0, 64, 92
2, 106914, Control_c, 0, 64, 88
2, 106917, Note_on_c, 0, 61, 0
2, 106928, Control_c, 0, 64, 81
2, 106937, Note_on_c, 0, 67, 86
2, 106943, Note_on_c, 0, 64, 85
2, 106944, Control_c, 0, 64, 71
2, 106959, Control_c, 0, 64, 60
2, 106963, Note_on_c, 0, 70, 0
2, 106975, Control_c, 0, 64, 30
2, 106990, Control_c, 0, 64, 20
2, 107042, Control_c, 0, 64, 19
2, 107104, Control_c, 0, 64, 18
2, 107186, Note_on_c, 0, 64, 0
2, 107189, Note_on_c, 0, 70, 73
2, 107192, Note_on_c, 0, 63, 66
2, 107207, Note_on_c, 0, 67, 0
2, 107288, Note_on_c, 0, 73, 80
2, 107302, Note_on_c, 0, 61, 72
2, 107321, Note_on_c, 0, 63, 0
2, 107322, Note_on_c, 0, 70, 0
2, 107383, Note_on_c, 0, 61, 0
2, 107406, Note_on_c, 0, 73, 0
2, 107406, Note_on_c, 0, 76, 77
2, 107422, Note_on_c, 0, 59, 68
2, 107522, Note_on_c, 0, 59, 0
2, 107523, Note_on_c, 0, 58, 65
2, 107630, Note_on_c, 0, 73, 70
2, 107632, Note_on_c, 0, 56, 65
2, 107633, Note_on_c, 0, 58, 0
2, 107667, Note_on_c, 0, 73, 0
2, 107718, Note_on_c, 0, 56, 0
2, 107727, Note_on_c, 0, 55, 60
2, 107843, Note_on_c, 0, 76, 0
2, 107856, Note_on_c, 0, 56, 67
2, 107857, Note_on_c, 0, 75, 79
2, 107859, Note_on_c, 0, 55, 0
2, 107859, Note_on_c, 0, 71, 76
2, 107926, Note_on_c, 0, 75, 0
2, 107940, Note_on_c, 0, 56, 0
2, 107952, Note_on_c, 0, 59, 68
2, 108071, Note_on_c, 0, 80, 81
2, 108082, Note_on_c, 0, 58, 75
2, 108094, Note_on_c, 0, 59, 0
2, 108096, Note_on_c, 0, 71, 0
2, 108143, Note_on_c, 0, 80, 0
2, 108177, Note_on_c, 0, 56, 71
2, 108214, Note_on_c, 0, 58, 0
2, 108253, Control_c, 0, 64, 19
2, 108278, Note_on_c, 0, 56, 0
2, 108289, Note_on_c, 0, 70, 88
2, 108293, Note_on_c, 0, 73, 79
2, 108297, Note_on_c, 0, 55, 77
2, 108409, Note_on_c, 0, 53, 68
2, 108414, Note_on_c, 0, 55, 0
2, 108434, Control_c, 0, 64, 20
2, 108475, Note_on_c, 0, 70, 0
2, 108513, Note_on_c, 0, 51, 79
2, 108522, Note_on_c, 0, 79, 76
2, 108527, Note_on_c, 0, 53, 0
2, 108578, Note_on_c, 0, 73, 0
2, 108602, Note_on_c, 0, 79, 0
2, 108634, Note_on_c, 0, 49, 63
2, 108643, Note_on_c, 0, 51, 0
2, 108732, Note_on_c, 0, 49, 0
2, 108733, Note_on_c, 0, 68, 77
2, 108746, Note_on_c, 0, 47, 61
2, 108762, Note_on_c, 0, 68, 0
2, 108836, Note_on_c, 0, 47, 0
2, 108844, Note_on_c, 0, 49, 62
2, 108949, Note_on_c, 0, 49, 0
2, 108956, Note_on_c, 0, 80, 81
2, 108966, Note_on_c, 0, 51, 71
2, 109055, Note_on_c, 0, 79, 82
2, 109069, Note_on_c, 0, 80, 0
2, 109076, Note_on_c, 0, 51, 0
2, 109082, Note_on_c, 0, 47, 59
2, 109165, Note_on_c, 0, 80, 88
2, 109183, Note_on_c, 0, 47, 0
2, 109186, Note_on_c, 0, 44, 65
2, 109203, Note_on_c, 0, 79, 0
2, 109236, Note_on_c, 0, 44, 0
2, 109265, Note_on_c, 0, 82, 84
2, 109275, Note_on_c, 0, 80, 0
2, 109382, Note_on_c, 0, 83, 82
2, 109392, Note_on_c, 0, 82, 0
2, 109397, Note_on_c, 0, 56, 71
2, 109477, Note_on_c, 0, 80, 81
2, 109495, Note_on_c, 0, 56, 0
2, 109501, Note_on_c, 0, 53, 66
2, 109504, Note_on_c, 0, 83, 0
2, 109577, Note_on_c, 0, 80, 0
2, 109594, Note_on_c, 0, 77, 86
2, 109596, Note_on_c, 0, 49, 71
2, 109620, Note_on_c, 0, 53, 0
2, 109635, Control_c, 0, 64, 19
2, 109651, Control_c, 0, 64, 20
2, 109659, Note_on_c, 0, 49, 0
2, 109689, Note_on_c, 0, 78, 86
2, 109707, Note_on_c, 0, 77, 0
2, 109797, Note_on_c, 0, 80, 86
2, 109800, Note_on_c, 0, 59, 72
2, 109808, Note_on_c, 0, 78, 0
2, 109892, Note_on_c, 0, 77, 87
2, 109904, Note_on_c, 0, 56, 77
2, 109911, Note_on_c, 0, 80, 0
2, 109917, Note_on_c, 0, 59, 0
2, 109988, Note_on_c, 0, 77, 0
2, 109998, Note_on_c, 0, 73, 82
2, 110005, Note_on_c, 0, 53, 75
2, 110038, Note_on_c, 0, 56, 0
2, 110046, Control_c, 0, 64, 19
2, 110076, Note_on_c, 0, 53, 0
2, 110111, Note_on_c, 0, 75, 84
2, 110115, Control_c, 0, 64, 20
2, 110123, Note_on_c, 0, 73, 0
2, 110221, Note_on_c, 0, 77, 83
2, 110226, Note_on_c, 0, 49, 57
2, 110234, Note_on_c, 0, 75, 0
2, 110314, Note_on_c, 0, 73, 82
2, 110317, Note_on_c, 0, 46, 62
2, 110319, Note_on_c, 0, 49, 0
2, 110329, Note_on_c, 0, 77, 0
2, 110425, Note_on_c, 0, 42, 66
2, 110427, Note_on_c, 0, 73, 0
2, 110430, Note_on_c, 0, 70, 80
2, 110433, Note_on_c, 0, 46, 0
2, 110464, Control_c, 0, 64, 21
2, 110478, Note_on_c, 0, 42, 0
2, 110510, Control_c, 0, 64, 22
2, 110527, Note_on_c, 0, 72, 79
2, 110531, Note_on_c, 0, 70, 0
2, 110540, Control_c, 0, 64, 23
2, 110571, Control_c, 0, 64, 24
2, 110586, Control_c, 0, 64, 24
2, 110601, Control_c, 0, 64, 25
2, 110632, Control_c, 0, 64, 26
2, 110637, Note_on_c, 0, 58, 58
2, 110644, Note_on_c, 0, 73, 81
2, 110651, Note_on_c, 0, 72, 0
2, 110693, Control_c, 0, 64, 26
2, 110714, Note_on_c, 0, 73, 0
2, 110735, Note_on_c, 0, 70, 74
2, 110737, Note_on_c, 0, 58, 0
2, 110754, Note_on_c, 0, 54, 57
2, 110825, Note_on_c, 0, 70, 0
2, 110844, Note_on_c, 0, 51, 64
2, 110852, Note_on_c, 0, 54, 0
2, 110864, Note_on_c, 0, 78, 74
2, 110888, Note_on_c, 0, 51, 0
2, 110962, Note_on_c, 0, 80, 78
2, 110977, Note_on_c, 0, 78, 0
2, 111071, Note_on_c, 0, 82, 80
2, 111078, Note_on_c, 0, 54, 64
2, 111107, Note_on_c, 0, 80, 0
2, 111166, Note_on_c, 0, 78, 82
2, 111184, Note_on_c, 0, 51, 66
2, 111197, Note_on_c, 0, 82, 0
2, 111206, Note_on_c, 0, 54, 0
2, 111270, Note_on_c, 0, 48, 58
2, 111270, Note_on_c, 0, 51, 0
2, 111274, Note_on_c, 0, 78, 0
2, 111277, Note_on_c, 0, 75, 89
2, 111314, Note_on_c, 0, 48, 0
2, 111380, Note_on_c, 0, 77, 81
2, 111381, Note_on_c, 0, 75, 0
2, 111487, Note_on_c, 0, 78, 82
2, 111491, Note_on_c, 0, 58, 74
2, 111515, Note_on_c, 0, 77, 0
2, 111584, Note_on_c, 0, 75, 82
2, 111614, Note_on_c, 0, 58, 0
2, 111616, Note_on_c, 0, 54, 67
2, 111616, Note_on_c, 0, 78, 0
2, 111685, Note_on_c, 0, 75, 0
2, 111700, Note_on_c, 0, 72, 78
2, 111708, Note_on_c, 0, 51, 73
2, 111722, Note_on_c, 0, 54, 0
2, 111748, Note_on_c, 0, 51, 0
2, 111757, Control_c, 0, 64, 26
2, 111796, Note_on_c, 0, 73, 80
2, 111808, Note_on_c, 0, 72, 0
2, 111818, Control_c, 0, 64, 25
2, 111905, Note_on_c, 0, 75, 80
2, 111909, Note_on_c, 0, 48, 62
2, 111910, Note_on_c, 0, 73, 0
2, 111923, Control_c, 0, 64, 24
2, 112001, Note_on_c, 0, 72, 80
2, 112011, Note_on_c, 0, 48, 0
2, 112013, Note_on_c, 0, 75, 0
2, 112015, Control_c, 0, 64, 24
2, 112019, Note_on_c, 0, 44, 57
2, 112097, Note_on_c, 0, 72, 0
2, 112100, Note_on_c, 0, 44, 0
2, 112109, Note_on_c, 0, 41, 71
2, 112112, Note_on_c, 0, 68, 82
2, 112149, Note_on_c, 0, 41, 0
2, 112219, Note_on_c, 0, 68, 0
2, 112226, Note_on_c, 0, 70, 70
2, 112305, Note_on_c, 0, 56, 68
2, 112322, Note_on_c, 0, 70, 0
2, 112322, Note_on_c, 0, 72, 77
2, 112391, Note_on_c, 0, 72, 0
2, 112408, Note_on_c, 0, 56, 0
2, 112422, Note_on_c, 0, 68, 75
2, 112424, Note_on_c, 0, 53, 54
2, 112487, Note_on_c, 0, 68, 0
2, 112540, Note_on_c, 0, 53, 0
2, 112544, Note_on_c, 0, 49, 37
2, 112549, Note_on_c, 0, 77, 72
2, 112577, Note_on_c, 0, 49, 0
2, 112617, Control_c, 0, 64, 24
2, 112640, Note_on_c, 0, 78, 72
2, 112676, Note_on_c, 0, 77, 0
2, 112727, Note_on_c, 0, 80, 77
2, 112746, Note_on_c, 0, 53, 61
2, 112754, Note_on_c, 0, 78, 0
2, 112837, Note_on_c, 0, 80, 0
2, 112839, Note_on_c, 0, 76, 52
2, 112850, Note_on_c, 0, 77, 55
2, 112877, Note_on_c, 0, 53, 0
2, 112877, Note_on_c, 0, 77, 0
2, 112879, Note_on_c, 0, 76, 0
2, 112886, Note_on_c, 0, 50, 54
2, 112900, Note_on_c, 0, 74, 68
2, 112965, Note_on_c, 0, 50, 0
2, 112989, Note_on_c, 0, 74, 0
2, 112990, Note_on_c, 0, 46, 49
2, 112992, Note_on_c, 0, 75, 69
2, 113034, Note_on_c, 0, 46, 0
2, 113093, Note_on_c, 0, 75, 0
2, 113093, Note_on_c, 0, 77, 66
2, 113166, Note_on_c, 0, 56, 69
2, 113187, Note_on_c, 0, 74, 67
2, 113197, Note_on_c, 0, 77, 0
2, 113252, Note_on_c, 0, 56, 0
2, 113256, Note_on_c, 0, 74, 0
2, 113279, Note_on_c, 0, 53, 64
2, 113283, Note_on_c, 0, 70, 70
2, 113368, Note_on_c, 0, 50, 64
2, 113368, Note_on_c, 0, 53, 0
2, 113387, Note_on_c, 0, 70, 0
2, 113388, Note_on_c, 0, 72, 71
2, 113399, Note_on_c, 0, 50, 0
2, 113480, Note_on_c, 0, 74, 75
2, 113484, Note_on_c, 0, 72, 0
2, 113544, Note_on_c, 0, 46, 57
2, 113548, Note_on_c, 0, 74, 0
2, 113576, Note_on_c, 0, 70, 71
2, 113628, Note_on_c, 0, 46, 0
2, 113638, Note_on_c, 0, 42, 50
2, 113680, Note_on_c, 0, 70, 0
2, 113697, Note_on_c, 0, 66, 65
2, 113714, Note_on_c, 0, 42, 0
2, 113725, Note_on_c, 0, 39, 54
2, 113762, Note_on_c, 0, 39, 0
2, 113787, Note_on_c, 0, 68, 68
2, 113790, Note_on_c, 0, 66, 0
2, 113894, Note_on_c, 0, 70, 61
2, 113905, Note_on_c, 0, 68, 0
2, 113927, Note_on_c, 0, 54, 56
2, 113949, Note_on_c, 0, 70, 0
2, 113989, Note_on_c, 0, 66, 60
2, 114000, Note_on_c, 0, 54, 0
2, 114020, Note_on_c, 0, 51, 59
2, 114064, Note_on_c, 0, 66, 0
2, 114097, Note_on_c, 0, 51, 0
2, 114115, Note_on_c, 0, 48, 47
2, 114123, Note_on_c, 0, 75, 59
2, 114151, Note_on_c, 0, 48, 0
2, 114196, Note_on_c, 0, 75, 0
2, 114202, Note_on_c, 0, 77, 66
2, 114315, Note_on_c, 0, 77, 0
2, 114317, Note_on_c, 0, 78, 59
2, 114321, Note_on_c, 0, 51, 56
2, 114401, Note_on_c, 0, 75, 64
2, 114408, Note_on_c, 0, 51, 0
2, 114424, Note_on_c, 0, 78, 0
2, 114429, Note_on_c, 0, 48, 49
2, 114478, Note_on_c, 0, 75, 0
2, 114515, Note_on_c, 0, 72, 61
2, 114519, Note_on_c, 0, 48, 0
2, 114530, Note_on_c, 0, 44, 45
2, 114568, Note_on_c, 0, 44, 0
2, 114585, Note_on_c, 0, 72, 0
2, 114613, Note_on_c, 0, 73, 61
2, 114716, Note_on_c, 0, 73, 0
2, 114729, Note_on_c, 0, 75, 62
2, 114738, Note_on_c, 0, 54, 47
2, 114822, Note_on_c, 0, 75, 0
2, 114825, Note_on_c, 0, 51, 53
2, 114826, Note_on_c, 0, 54, 0
2, 114827, Note_on_c, 0, 72, 64
2, 114903, Note_on_c, 0, 72, 0
2, 114927, Note_on_c, 0, 68, 64
2, 114933, Note_on_c, 0, 51, 0
2, 114934, Note_on_c, 0, 48, 50
2, 114974, Note_on_c, 0, 48, 0
2, 115013, Note_on_c, 0, 68, 0
2, 115028, Note_on_c, 0, 70, 58
2, 115126, Note_on_c, 0, 70, 0
2, 115142, Note_on_c, 0, 72, 57
2, 115145, Note_on_c, 0, 44, 35
2, 115189, Note_on_c, 0, 44, 0
2, 115225, Note_on_c, 0, 72, 0
2, 115226, Note_on_c, 0, 41, 46
2, 115242, Note_on_c, 0, 68, 58
2, 115295, Note_on_c, 0, 41, 0
2, 115318, Note_on_c, 0, 68, 0
2, 115348, Note_on_c, 0, 65, 53
2, 115350, Note_on_c, 0, 37, 46
2, 115392, Control_c, 0, 64, 24
2, 115426, Note_on_c, 0, 65, 0
2, 115450, Note_on_c, 0, 66, 60
2, 115552, Note_on_c, 0, 66, 0
2, 115552, Note_on_c, 0, 68, 65
2, 115563, Note_on_c, 0, 37, 0
2, 115643, Note_on_c, 0, 68, 0
2, 115648, Note_on_c, 0, 65, 68
2, 115749, Note_on_c, 0, 65, 0
2, 115768, Note_on_c, 0, 61, 72
2, 115863, Note_on_c, 0, 61, 0
2, 115869, Note_on_c, 0, 65, 73
2, 115969, Note_on_c, 0, 68, 75
2, 115987, Note_on_c, 0, 65, 0
2, 116070, Note_on_c, 0, 70, 70
2, 116083, Note_on_c, 0, 68, 0
2, 116173, Note_on_c, 0, 70, 0
2, 116177, Note_on_c, 0, 71, 81
2, 116286, Note_on_c, 0, 70, 80
2, 116287, Note_on_c, 0, 71, 0
2, 116360, Note_on_c, 0, 70, 0
2, 116391, Note_on_c, 0, 59, 65
2, 116392, Note_on_c, 0, 68, 80
2, 116453, Note_on_c, 0, 59, 0
2, 116474, Note_on_c, 0, 49, 54
2, 116477, Note_on_c, 0, 68, 0
2, 116489, Note_on_c, 0, 70, 77
2, 116552, Note_on_c, 0, 49, 0
2, 116555, Note_on_c, 0, 70, 0
2, 116588, Note_on_c, 0, 78, 90
2, 116593, Note_on_c, 0, 58, 61
2, 116625, Note_on_c, 0, 78, 0
2, 116656, Note_on_c, 0, 58, 0
2, 116676, Note_on_c, 0, 49, 58
2, 116773, Note_on_c, 0, 49, 0
2, 116792, Note_on_c, 0, 56, 65
2, 116803, Note_on_c, 0, 73, 90
2, 116835, Note_on_c, 0, 73, 0
2, 116879, Note_on_c, 0, 56, 0
2, 116895, Note_on_c, 0, 49, 55
2, 116997, Note_on_c, 0, 49, 0
2, 117031, Note_on_c, 0, 70, 87
2, 117035, Note_on_c, 0, 54, 59
2, 117119, Note_on_c, 0, 49, 61
2, 117143, Note_on_c, 0, 54, 0
2, 117221, Note_on_c, 0, 49, 0
2, 117227, Note_on_c, 0, 68, 78
2, 117241, Note_on_c, 0, 53, 68
2, 117260, Note_on_c, 0, 70, 0
2, 117325, Note_on_c, 0, 66, 78
2, 117329, Note_on_c, 0, 68, 0
2, 117343, Note_on_c, 0, 53, 0
2, 117349, Note_on_c, 0, 51, 77
2, 117424, Note_on_c, 0, 51, 0
2, 117441, Note_on_c, 0, 66, 0
2, 117442, Note_on_c, 0, 68, 77
2, 117449, Note_on_c, 0, 53, 82
2, 117494, Note_on_c, 0, 53, 0
2, 117513, Control_c, 0, 64, 22
2, 117528, Control_c, 0, 64, 20
2, 117534, Note_on_c, 0, 61, 68
2, 117541, Note_on_c, 0, 68, 0
2, 117543, Control_c, 0, 64, 18
2, 117558, Control_c, 0, 64, 17
2, 117574, Control_c, 0, 64, 16
2, 117646, Note_on_c, 0, 61, 0
2, 117658, Note_on_c, 0, 44, 70
2, 117662, Note_on_c, 0, 65, 65
2, 117695, Note_on_c, 0, 44, 0
2, 117741, Control_c, 0, 64, 15
2, 117754, Note_on_c, 0, 65, 0
2, 117763, Control_c, 0, 64, 14
2, 117764, Note_on_c, 0, 68, 71
2, 117779, Control_c, 0, 64, 12
2, 117794, Control_c, 0, 64, 10
2, 117808, Control_c, 0, 64, 8
2, 117824, Control_c, 0, 64, 0
2, 117865, Note_on_c, 0, 68, 0
2, 117878, Note_on_c, 0, 70, 73
2, 117975, Note_on_c, 0, 70, 0
2, 117985, Note_on_c, 0, 68, 74
2, 118067, Note_on_c, 0, 68, 0
2, 118094, Note_on_c, 0, 66, 68
2, 118095, Note_on_c, 0, 58, 58
2, 118141, Note_on_c, 0, 58, 0
2, 118168, Note_on_c, 0, 66, 0
2, 118189, Note_on_c, 0, 68, 74
2, 118190, Note_on_c, 0, 49, 47
2, 118260, Note_on_c, 0, 68, 0
2, 118265, Note_on_c, 0, 49, 0
2, 118294, Note_on_c, 0, 77, 81
2, 118298, Note_on_c, 0, 56, 57
2, 118318, Note_on_c, 0, 77, 0
2, 118367, Note_on_c, 0, 56, 0
2, 118391, Note_on_c, 0, 49, 49
2, 118484, Note_on_c, 0, 49, 0
2, 118504, Note_on_c, 0, 73, 79
2, 118530, Note_on_c, 0, 54, 55
2, 118533, Note_on_c, 0, 73, 0
2, 118601, Note_on_c, 0, 54, 0
2, 118607, Note_on_c, 0, 49, 46
2, 118700, Note_on_c, 0, 49, 0
2, 118728, Note_on_c, 0, 53, 51
2, 118729, Note_on_c, 0, 68, 75
2, 118812, Note_on_c, 0, 53, 0
2, 118828, Note_on_c, 0, 49, 56
2, 118917, Note_on_c, 0, 49, 0
2, 118937, Note_on_c, 0, 51, 62
2, 118938, Note_on_c, 0, 66, 64
2, 118952, Note_on_c, 0, 68, 0
2, 119017, Note_on_c, 0, 51, 0
2, 119029, Note_on_c, 0, 66, 0
2, 119039, Note_on_c, 0, 49, 59
2, 119042, Note_on_c, 0, 65, 66
2, 119128, Note_on_c, 0, 49, 0
2, 119140, Note_on_c, 0, 65, 0
2, 119152, Note_on_c, 0, 66, 64
2, 119153, Note_on_c, 0, 51, 71
2, 119184, Note_on_c, 0, 51, 0
2, 119227, Note_on_c, 0, 66, 0
2, 119254, Note_on_c, 0, 60, 52
2, 119360, Note_on_c, 0, 60, 0
2, 119375, Note_on_c, 0, 63, 55
2, 119380, Note_on_c, 0, 44, 55
2, 119416, Note_on_c, 0, 44, 0
2, 119455, Note_on_c, 0, 63, 0
2, 119480, Note_on_c, 0, 66, 51
2, 119568, Note_on_c, 0, 66, 0
2, 119596, Note_on_c, 0, 68, 56
2, 119680, Note_on_c, 0, 68, 0
2, 119705, Note_on_c, 0, 66, 55
2, 119777, Note_on_c, 0, 66, 0
2, 119794, Note_on_c, 0, 56, 45
2, 119819, Note_on_c, 0, 65, 51
2, 119849, Note_on_c, 0, 56, 0
2, 119872, Note_on_c, 0, 65, 0
2, 119893, Note_on_c, 0, 44, 41
2, 119919, Note_on_c, 0, 66, 57
2, 119984, Note_on_c, 0, 66, 0
2, 119988, Note_on_c, 0, 44, 0
2, 120021, Note_on_c, 0, 54, 53
2, 120023, Note_on_c, 0, 75, 68
2, 120060, Note_on_c, 0, 75, 0
2, 120079, Note_on_c, 0, 54, 0
2, 120118, Note_on_c, 0, 44, 46
2, 120220, Note_on_c, 0, 44, 0
2, 120238, Note_on_c, 0, 72, 69
2, 120264, Note_on_c, 0, 53, 47
2, 120264, Note_on_c, 0, 72, 0
2, 120300, Note_on_c, 0, 53, 0
2, 120357, Note_on_c, 0, 44, 49
2, 120419, Note_on_c, 0, 44, 0
2, 120453, Note_on_c, 0, 51, 59
2, 120464, Note_on_c, 0, 66, 60
2, 120525, Note_on_c, 0, 51, 0
2, 120558, Note_on_c, 0, 44, 44
2, 120646, Note_on_c, 0, 44, 0
2, 120672, Note_on_c, 0, 49, 55
2, 120676, Note_on_c, 0, 65, 57
2, 120724, Note_on_c, 0, 66, 0
2, 120740, Note_on_c, 0, 49, 0
2, 120770, Note_on_c, 0, 65, 0
2, 120776, Note_on_c, 0, 48, 50
2, 120776, Note_on_c, 0, 63, 66
2, 120868, Note_on_c, 0, 63, 0
2, 120870, Note_on_c, 0, 48, 0
2, 120876, Note_on_c, 0, 49, 57
2, 120904, Note_on_c, 0, 65, 69
2, 120975, Note_on_c, 0, 49, 0
2, 120981, Note_on_c, 0, 44, 54
2, 120996, Note_on_c, 0, 65, 0
2, 121001, Note_on_c, 0, 68, 71
2, 121076, Note_on_c, 0, 44, 0
2, 121095, Note_on_c, 0, 53, 62
2, 121099, Note_on_c, 0, 70, 73
2, 121100, Note_on_c, 0, 68, 0
2, 121180, Note_on_c, 0, 70, 0
2, 121189, Note_on_c, 0, 53, 0
2, 121199, Note_on_c, 0, 51, 71
2, 121199, Note_on_c, 0, 72, 82
2, 121311, Note_on_c, 0, 53, 69
2, 121312, Note_on_c, 0, 73, 80
2, 121317, Note_on_c, 0, 72, 0
2, 121324, Note_on_c, 0, 51, 0
2, 121402, Note_on_c, 0, 53, 0
2, 121413, Note_on_c, 0, 44, 66
2, 121417, Note_on_c, 0, 75, 85
2, 121442, Note_on_c, 0, 73, 0
2, 121500, Note_on_c, 0, 44, 0
2, 121524, Note_on_c, 0, 77, 81
2, 121532, Note_on_c, 0, 56, 70
2, 121533, Note_on_c, 0, 75, 0
2, 121621, Note_on_c, 0, 77, 0
2, 121631, Note_on_c, 0, 56, 0
2, 121633, Note_on_c, 0, 75, 87
2, 121641, Note_on_c, 0, 53, 65
2, 121718, Note_on_c, 0, 53, 0
2, 121734, Note_on_c, 0, 56, 81
2, 121743, Note_on_c, 0, 78, 87
2, 121754, Note_on_c, 0, 75, 0
2, 121810, Note_on_c, 0, 56, 0
2, 121840, Note_on_c, 0, 44, 69
2, 121841, Note_on_c, 0, 77, 86
2, 121872, Note_on_c, 0, 78, 0
2, 121900, Note_on_c, 0, 44, 0
2, 121947, Note_on_c, 0, 77, 0
2, 121948, Note_on_c, 0, 58, 76
2, 121950, Note_on_c, 0, 75, 82
2, 121984, Note_on_c, 0, 58, 0
2, 121999, Control_c, 0, 64, 48
2, 122008, Note_on_c, 0, 75, 0
2, 122015, Control_c, 0, 64, 65
2, 122029, Control_c, 0, 64, 76
2, 122030, Note_on_c, 0, 73, 77
2, 122031, Note_on_c, 0, 44, 70
2, 122044, Control_c, 0, 64, 106
2, 122060, Control_c, 0, 64, 127
2, 122062, Note_on_c, 0, 44, 0
2, 122090, Note_on_c, 0, 73, 0
2, 122136, Control_c, 0, 64, 104
2, 122152, Control_c, 0, 64, 78
2, 122158, Note_on_c, 0, 82, 73
2, 122164, Note_on_c, 0, 60, 79
2, 122167, Control_c, 0, 64, 59
2, 122182, Control_c, 0, 64, 19
2, 122197, Control_c, 0, 64, 0
2, 122219, Note_on_c, 0, 80, 72
2, 122221, Note_on_c, 0, 82, 0
2, 122254, Note_on_c, 0, 60, 0
2, 122254, Note_on_c, 0, 80, 0
2, 122265, Note_on_c, 0, 61, 77
2, 122268, Note_on_c, 0, 79, 75
2, 122333, Note_on_c, 0, 79, 0
2, 122335, Note_on_c, 0, 80, 66
2, 122344, Note_on_c, 0, 61, 0
2, 122366, Note_on_c, 0, 63, 75
2, 122372, Note_on_c, 0, 80, 0
2, 122376, Note_on_c, 0, 82, 70
2, 122427, Note_on_c, 0, 82, 0
2, 122439, Note_on_c, 0, 80, 72
2, 122454, Note_on_c, 0, 63, 0
2, 122470, Note_on_c, 0, 60, 71
2, 122487, Note_on_c, 0, 80, 0
2, 122487, Note_on_c, 0, 82, 54
2, 122518, Note_on_c, 0, 82, 0
2, 122527, Note_on_c, 0, 80, 49
2, 122573, Note_on_c, 0, 80, 0
2, 122579, Note_on_c, 0, 60, 0
2, 122580, Note_on_c, 0, 82, 67
2, 122583, Note_on_c, 0, 56, 80
2, 122605, Note_on_c, 0, 82, 0
2, 122664, Note_on_c, 0, 82, 70
2, 122687, Note_on_c, 0, 60, 76
2, 122699, Note_on_c, 0, 56, 0
2, 122699, Note_on_c, 0, 82, 0
2, 122719, Note_on_c, 0, 80, 59
2, 122757, Note_on_c, 0, 80, 0
2, 122764, Note_on_c, 0, 82, 65
2, 122789, Note_on_c, 0, 60, 0
2, 122789, Note_on_c, 0, 63, 78
2, 122802, Note_on_c, 0, 82, 0
2, 122823, Note_on_c, 0, 80, 60
2, 122869, Note_on_c, 0, 82, 61
2, 122878, Note_on_c, 0, 63, 0
2, 122879, Note_on_c, 0, 80, 0
2, 122882, Note_on_c, 0, 65, 74
2, 122928, Note_on_c, 0, 82, 0
2, 123003, Note_on_c, 0, 66, 81
2, 123027, Note_on_c, 0, 65, 0
2, 123090, Note_on_c, 0, 80, 76
2, 123112, Note_on_c, 0, 65, 81
2, 123116, Note_on_c, 0, 66, 0
2, 123187, Note_on_c, 0, 65, 0
2, 123219, Note_on_c, 0, 78, 81
2, 123221, Note_on_c, 0, 80, 0
2, 123228, Note_on_c, 0, 63, 79
2, 123323, Note_on_c, 0, 65, 74
2, 123323, Note_on_c, 0, 80, 83
2, 123327, Note_on_c, 0, 63, 0
2, 123332, Note_on_c, 0, 78, 0
2, 123396, Note_on_c, 0, 65, 0
2, 123427, Note_on_c, 0, 73, 87
2, 123430, Note_on_c, 0, 77, 86
2, 123432, Note_on_c, 0, 80, 0
2, 123461, Note_on_c, 0, 73, 0
2, 123533, Note_on_c, 0, 77, 0
2, 123537, Note_on_c, 0, 80, 76
2, 123644, Note_on_c, 0, 68, 87
2, 123646, Note_on_c, 0, 80, 0
2, 123661, Note_on_c, 0, 75, 76
2, 123686, Note_on_c, 0, 68, 0
2, 123736, Note_on_c, 0, 75, 0
2, 123762, Note_on_c, 0, 80, 67
2, 123873, Note_on_c, 0, 65, 79
2, 123895, Note_on_c, 0, 73, 77
2, 123897, Note_on_c, 0, 80, 0
2, 123998, Note_on_c, 0, 80, 69
2, 124058, Note_on_c, 0, 73, 0
2, 124061, Note_on_c, 0, 63, 67
2, 124066, Note_on_c, 0, 65, 0
2, 124088, Note_on_c, 0, 80, 0
2, 124105, Note_on_c, 0, 72, 68
2, 124155, Note_on_c, 0, 63, 0
2, 124173, Note_on_c, 0, 61, 62
2, 124188, Note_on_c, 0, 72, 0
2, 124200, Note_on_c, 0, 70, 72
2, 124265, Note_on_c, 0, 61, 0
2, 124277, Note_on_c, 0, 70, 0
2, 124278, Note_on_c, 0, 63, 64
2, 124304, Note_on_c, 0, 72, 74
2, 124362, Note_on_c, 0, 56, 56
2, 124363, Note_on_c, 0, 63, 0
2, 124396, Note_on_c, 0, 72, 0
2, 124404, Note_on_c, 0, 75, 73
2, 124481, Note_on_c, 0, 60, 60
2, 124492, Note_on_c, 0, 56, 0
2, 124502, Note_on_c, 0, 77, 77
2, 124522, Note_on_c, 0, 75, 0
2, 124593, Note_on_c, 0, 60, 0
2, 124604, Note_on_c, 0, 77, 0
2, 124604, Note_on_c, 0, 78, 77
2, 124609, Note_on_c, 0, 63, 64
2, 124702, Note_on_c, 0, 63, 0
2, 124712, Note_on_c, 0, 80, 82
2, 124719, Note_on_c, 0, 78, 0
2, 124720, Note_on_c, 0, 65, 67
2, 124812, Note_on_c, 0, 65, 0
2, 124823, Note_on_c, 0, 63, 69
2, 124827, Note_on_c, 0, 78, 78
2, 124870, Note_on_c, 0, 80, 0
2, 124917, Note_on_c, 0, 63, 0
2, 124928, Note_on_c, 0, 77, 81
2, 124939, Note_on_c, 0, 61, 73
2, 124942, Note_on_c, 0, 78, 0
2, 125029, Note_on_c, 0, 63, 75
2, 125030, Note_on_c, 0, 80, 75
2, 125036, Note_on_c, 0, 77, 0
2, 125046, Note_on_c, 0, 61, 0
2, 125093, Note_on_c, 0, 63, 0
2, 125130, Note_on_c, 0, 80, 0
2, 125142, Note_on_c, 0, 75, 79
2, 125154, Note_on_c, 0, 72, 66
2, 125188, Note_on_c, 0, 72, 0
2, 125233, Note_on_c, 0, 75, 0
2, 125243, Note_on_c, 0, 80, 66
2, 125343, Note_on_c, 0, 80, 0
2, 125362, Note_on_c, 0, 68, 81
2, 125369, Note_on_c, 0, 73, 70
2, 125393, Note_on_c, 0, 68, 0
2, 125457, Note_on_c, 0, 73, 0
2, 125473, Note_on_c, 0, 80, 67
2, 125565, Note_on_c, 0, 80, 0
2, 125592, Note_on_c, 0, 63, 73
2, 125598, Note_on_c, 0, 72, 74
2, 125693, Note_on_c, 0, 80, 64
2, 125757, Note_on_c, 0, 72, 0
2, 125773, Note_on_c, 0, 80, 0
2, 125794, Note_on_c, 0, 61, 63
2, 125798, Note_on_c, 0, 63, 0
2, 125812, Note_on_c, 0, 70, 64
2, 125872, Note_on_c, 0, 61, 0
2, 125890, Note_on_c, 0, 70, 0
2, 125901, Note_on_c, 0, 60, 60
2, 125908, Note_on_c, 0, 68, 61
2, 125930, Note_on_c, 0, 68, 0
2, 125959, Note_on_c, 0, 69, 37
2, 125984, Note_on_c, 0, 60, 0
2, 125989, Note_on_c, 0, 69, 0
2, 125998, Note_on_c, 0, 61, 62
2, 126007, Note_on_c, 0, 70, 74
2, 126081, Note_on_c, 0, 61, 0
2, 126096, Note_on_c, 0, 56, 55
2, 126096, Note_on_c, 0, 70, 0
2, 126110, Note_on_c, 0, 73, 71
2, 126203, Note_on_c, 0, 56, 0
2, 126209, Note_on_c, 0, 60, 57
2, 126215, Note_on_c, 0, 75, 73
2, 126246, Note_on_c, 0, 73, 0
2, 126306, Note_on_c, 0, 60, 0
2, 126319, Note_on_c, 0, 61, 56
2, 126320, Note_on_c, 0, 75, 0
2, 126324, Note_on_c, 0, 77, 74
2, 126398, Note_on_c, 0, 61, 0
2, 126421, Note_on_c, 0, 63, 54
2, 126423, Note_on_c, 0, 77, 0
2, 126432, Note_on_c, 0, 78, 64
2, 126510, Note_on_c, 0, 63, 0
2, 126528, Note_on_c, 0, 61, 52
2, 126545, Note_on_c, 0, 77, 65
2, 126573, Note_on_c, 0, 78, 0
2, 126617, Note_on_c, 0, 61, 0
2, 126624, Note_on_c, 0, 77, 0
2, 126632, Note_on_c, 0, 75, 69
2, 126640, Note_on_c, 0, 60, 56
2, 126722, Note_on_c, 0, 60, 0
2, 126722, Note_on_c, 0, 75, 0
2, 126732, Note_on_c, 0, 77, 69
2, 126736, Note_on_c, 0, 61, 60
2, 126793, Note_on_c, 0, 61, 0
2, 126816, Note_on_c, 0, 77, 0
2, 126836, Note_on_c, 0, 73, 69
2, 126839, Note_on_c, 0, 70, 64
2, 126871, Note_on_c, 0, 70, 0
2, 126928, Note_on_c, 0, 73, 0
2, 126928, Note_on_c, 0, 75, 64
2, 127007, Note_on_c, 0, 75, 0
2, 127045, Note_on_c, 0, 72, 62
2, 127048, Note_on_c, 0, 67, 61
2, 127080, Note_on_c, 0, 67, 0
2, 127133, Note_on_c, 0, 72, 0
2, 127148, Note_on_c, 0, 75, 58
2, 127239, Note_on_c, 0, 75, 0
2, 127260, Note_on_c, 0, 61, 52
2, 127274, Note_on_c, 0, 70, 53
2, 127330, Note_on_c, 0, 70, 0
2, 127368, Note_on_c, 0, 75, 52
2, 127423, Note_on_c, 0, 75, 0
2, 127435, Note_on_c, 0, 61, 0
2, 127454, Note_on_c, 0, 60, 48
2, 127459, Note_on_c, 0, 68, 62
2, 127526, Note_on_c, 0, 60, 0
2, 127536, Note_on_c, 0, 68, 0
2, 127554, Note_on_c, 0, 58, 51
2, 127564, Note_on_c, 0, 67, 57
2, 127600, Note_on_c, 0, 58, 0
2, 127644, Note_on_c, 0, 67, 0
2, 127663, Note_on_c, 0, 60, 44
2, 127667, Note_on_c, 0, 68, 66
2, 127728, Note_on_c, 0, 60, 0
2, 127747, Note_on_c, 0, 68, 0
2, 127775, Note_on_c, 0, 56, 55
2, 127778, Note_on_c, 0, 72, 69
2, 127881, Note_on_c, 0, 56, 0
2, 127881, Note_on_c, 0, 72, 0
2, 127884, Note_on_c, 0, 73, 72
2, 127888, Note_on_c, 0, 58, 61
2, 127961, Note_on_c, 0, 58, 0
2, 127986, Note_on_c, 0, 75, 80
2, 127993, Note_on_c, 0, 60, 58
2, 127995, Note_on_c, 0, 73, 0
2, 128071, Note_on_c, 0, 75, 0
2, 128085, Note_on_c, 0, 77, 85
2, 128093, Note_on_c, 0, 61, 68
2, 128097, Note_on_c, 0, 60, 0
2, 128179, Note_on_c, 0, 77, 0
2, 128186, Note_on_c, 0, 78, 82
2, 128194, Note_on_c, 0, 61, 0
2, 128194, Note_on_c, 0, 63, 71
2, 128271, Note_on_c, 0, 79, 34
2, 128284, Note_on_c, 0, 78, 0
2, 128285, Note_on_c, 0, 63, 0
2, 128293, Note_on_c, 0, 80, 81
2, 128297, Note_on_c, 0, 79, 0
2, 128300, Note_on_c, 0, 65, 69
2, 128382, Note_on_c, 0, 65, 0
2, 128398, Note_on_c, 0, 82, 77
2, 128404, Note_on_c, 0, 63, 61
2, 128429, Note_on_c, 0, 80, 0
2, 128480, Note_on_c, 0, 82, 0
2, 128509, Note_on_c, 0, 72, 77
2, 128518, Note_on_c, 0, 66, 71
2, 128520, Note_on_c, 0, 63, 0
2, 128539, Note_on_c, 0, 72, 0
2, 128586, Note_on_c, 0, 66, 0
2, 128615, Note_on_c, 0, 65, 69
2, 128711, Note_on_c, 0, 65, 0
2, 128725, Note_on_c, 0, 63, 66
2, 128726, Note_on_c, 0, 68, 85
2, 128753, Note_on_c, 0, 68, 0
2, 128810, Note_on_c, 0, 61, 62
2, 128819, Note_on_c, 0, 63, 0
2, 128898, Note_on_c, 0, 61, 0
2, 128936, Note_on_c, 0, 70, 78
2, 128938, Note_on_c, 0, 66, 56
2, 128968, Note_on_c, 0, 66, 0
2, 129037, Note_on_c, 0, 68, 83
2, 129046, Note_on_c, 0, 70, 0
2, 129127, Note_on_c, 0, 68, 0
2, 129135, Note_on_c, 0, 66, 79
2, 129152, Note_on_c, 0, 58, 55
2, 129206, Note_on_c, 0, 66, 0
2, 129227, Note_on_c, 0, 68, 87
2, 129248, Note_on_c, 0, 60, 61
2, 129261, Note_on_c, 0, 58, 0
2, 129329, Note_on_c, 0, 68, 0
2, 129349, Note_on_c, 0, 60, 0
2, 129355, Note_on_c, 0, 77, 86
2, 129363, Note_on_c, 0, 61, 65
2, 129393, Note_on_c, 0, 77, 0
2, 129432, Note_on_c, 0, 61, 0
2, 129462, Note_on_c, 0, 60, 63
2, 129569, Note_on_c, 0, 60, 0
2, 129575, Note_on_c, 0, 73, 84
2, 129586, Note_on_c, 0, 58, 64
2, 129605, Note_on_c, 0, 73, 0
2, 129660, Note_on_c, 0, 58, 0
2, 129675, Note_on_c, 0, 56, 64
2, 129801, Note_on_c, 0, 56, 0
2, 129801, Note_on_c, 0, 68, 85
2, 129805, Note_on_c, 0, 58, 70
2, 130031, Note_on_c, 0, 66, 76
2, 130032, Note_on_c, 0, 68, 0
2, 130130, Note_on_c, 0, 66, 0
2, 130141, Note_on_c, 0, 65, 76
2, 130249, Note_on_c, 0, 65, 0
2, 130250, Note_on_c, 0, 66, 85
2, 130284, Note_on_c, 0, 66, 0
2, 130330, Note_on_c, 0, 58, 0
2, 130348, Note_on_c, 0, 56, 58
2, 130467, Note_on_c, 0, 56, 0
2, 130476, Note_on_c, 0, 75, 78
2, 130478, Note_on_c, 0, 54, 57
2, 130517, Note_on_c, 0, 75, 0
2, 130549, Note_on_c, 0, 54, 0
2, 130565, Note_on_c, 0, 58, 63
2, 130688, Note_on_c, 0, 65, 82
2, 130700, Note_on_c, 0, 58, 0
2, 130704, Note_on_c, 0, 56, 65
2, 130724, Note_on_c, 0, 65, 0
2, 130823, Note_on_c, 0, 54, 58
2, 130831, Note_on_c, 0, 56, 0
2, 130913, Note_on_c, 0, 54, 0
2, 130923, Note_on_c, 0, 73, 75
2, 130929, Note_on_c, 0, 53, 59
2, 130963, Note_on_c, 0, 73, 0
2, 130997, Note_on_c, 0, 53, 0
2, 131021, Note_on_c, 0, 56, 62
2, 131142, Note_on_c, 0, 63, 73
2, 131144, Note_on_c, 0, 54, 62
2, 131148, Note_on_c, 0, 56, 0
2, 131179, Note_on_c, 0, 63, 0
2, 131232, Note_on_c, 0, 54, 0
2, 131242, Note_on_c, 0, 53, 58
2, 131334, Note_on_c, 0, 53, 0
2, 131357, Note_on_c, 0, 51, 57
2, 131366, Note_on_c, 0, 72, 70
2, 131403, Note_on_c, 0, 72, 0
2, 131427, Note_on_c, 0, 51, 0
2, 131453, Note_on_c, 0, 54, 56
2, 131542, Note_on_c, 0, 54, 0
2, 131563, Control_c, 0, 64, 20
2, 131586, Note_on_c, 0, 53, 70
2, 131587, Control_c, 0, 64, 46
2, 131597, Note_on_c, 0, 61, 63
2, 131602, Control_c, 0, 64, 60
2, 131617, Control_c, 0, 64, 67
2, 131626, Note_on_c, 0, 61, 0
2, 131632, Control_c, 0, 64, 77
2, 131647, Control_c, 0, 64, 96
2, 131662, Control_c, 0, 64, 127
2, 131710, Note_on_c, 0, 53, 0
2, 131826, Note_on_c, 0, 73, 66
2, 131896, Note_on_c, 0, 56, 52
2, 131905, Note_on_c, 0, 73, 0
2, 131926, Note_on_c, 0, 72, 73
2, 131951, Control_c, 0, 64, 112
2, 131966, Control_c, 0, 64, 97
2, 131983, Control_c, 0, 64, 89
2, 131998, Control_c, 0, 64, 82
2, 132014, Control_c, 0, 64, 73
2, 132019, Note_on_c, 0, 56, 0
2, 132025, Note_on_c, 0, 58, 61
2, 132029, Control_c, 0, 64, 66
2, 132029, Note_on_c, 0, 73, 75
2, 132033, Note_on_c, 0, 72, 0
2, 132043, Control_c, 0, 64, 59
2, 132059, Control_c, 0, 64, 53
2, 132099, Note_on_c, 0, 58, 0
2, 132117, Note_on_c, 0, 75, 79
2, 132119, Control_c, 0, 64, 53
2, 132125, Note_on_c, 0, 60, 60
2, 132127, Note_on_c, 0, 73, 0
2, 132135, Control_c, 0, 64, 52
2, 132195, Control_c, 0, 64, 52
2, 132212, Note_on_c, 0, 75, 0
2, 132232, Note_on_c, 0, 77, 83
2, 132238, Note_on_c, 0, 61, 73
2, 132254, Note_on_c, 0, 60, 0
2, 132327, Note_on_c, 0, 63, 69
2, 132328, Note_on_c, 0, 78, 81
2, 132339, Note_on_c, 0, 77, 0
2, 132449, Note_on_c, 0, 80, 81
2, 132458, Note_on_c, 0, 78, 0
2, 132459, Note_on_c, 0, 63, 0
2, 132464, Note_on_c, 0, 61, 0
2, 132464, Note_on_c, 0, 65, 76
2, 132555, Note_on_c, 0, 78, 87
2, 132568, Note_on_c, 0, 63, 78
2, 132569, Note_on_c, 0, 80, 0
2, 132587, Note_on_c, 0, 65, 0
2, 132663, Note_on_c, 0, 78, 0
2, 132665, Note_on_c, 0, 63, 0
2, 132665, Note_on_c, 0, 77, 89
2, 132674, Note_on_c, 0, 61, 78
2, 132750, Control_c, 0, 64, 51
2, 132760, Note_on_c, 0, 78, 89
2, 132770, Note_on_c, 0, 63, 75
2, 132782, Note_on_c, 0, 77, 0
2, 132788, Note_on_c, 0, 61, 0
2, 132812, Control_c, 0, 64, 51
2, 132856, Note_on_c, 0, 63, 0
2, 132871, Note_on_c, 0, 80, 89
2, 132873, Control_c, 0, 64, 50
2, 132878, Note_on_c, 0, 78, 0
2, 132883, Note_on_c, 0, 72, 82
2, 132887, Control_c, 0, 64, 50
2, 132889, Note_on_c, 0, 60, 60
2, 132933, Control_c, 0, 64, 49
2, 132944, Note_on_c, 0, 72, 0
2, 132979, Note_on_c, 0, 78, 87
2, 132999, Note_on_c, 0, 80, 0
2, 133070, Control_c, 0, 64, 49
2, 133081, Note_on_c, 0, 78, 0
2, 133093, Note_on_c, 0, 77, 85
2, 133102, Note_on_c, 0, 68, 82
2, 133161, Note_on_c, 0, 68, 0
2, 133207, Note_on_c, 0, 75, 78
2, 133233, Note_on_c, 0, 77, 0
2, 133325, Note_on_c, 0, 77, 84
2, 133334, Note_on_c, 0, 75, 0
2, 133335, Note_on_c, 0, 63, 74
2, 133384, Note_on_c, 0, 60, 0
2, 133555, Note_on_c, 0, 61, 66
2, 133583, Note_on_c, 0, 63, 0
2, 133641, Note_on_c, 0, 60, 70
2, 133655, Note_on_c, 0, 61, 0
2, 133751, Note_on_c, 0, 61, 78
2, 133757, Note_on_c, 0, 58, 56
2, 133766, Note_on_c, 0, 60, 0
2, 133806, Note_on_c, 0, 61, 0
2, 133895, Note_on_c, 0, 77, 0
2, 133901, Note_on_c, 0, 75, 61
2, 133991, Note_on_c, 0, 70, 74
2, 134010, Note_on_c, 0, 75, 0
2, 134014, Note_on_c, 0, 73, 71
2, 134026, Note_on_c, 0, 70, 0
2, 134096, Note_on_c, 0, 73, 0
2, 134111, Note_on_c, 0, 77, 67
2, 134179, Note_on_c, 0, 58, 0
2, 134216, Note_on_c, 0, 60, 79
2, 134217, Note_on_c, 0, 75, 73
2, 134222, Note_on_c, 0, 77, 0
2, 134240, Control_c, 0, 64, 48
2, 134255, Note_on_c, 0, 60, 0
2, 134314, Note_on_c, 0, 75, 0
2, 134316, Note_on_c, 0, 73, 73
2, 134406, Note_on_c, 0, 73, 0
2, 134424, Note_on_c, 0, 72, 73
2, 134430, Note_on_c, 0, 68, 67
2, 134440, Note_on_c, 0, 56, 51
2, 134452, Note_on_c, 0, 68, 0
2, 134481, Note_on_c, 0, 56, 0
2, 134502, Note_on_c, 0, 72, 0
2, 134528, Note_on_c, 0, 75, 70
2, 134636, Note_on_c, 0, 58, 73
2, 134638, Note_on_c, 0, 73, 75
2, 134666, Note_on_c, 0, 75, 0
2, 134674, Note_on_c, 0, 58, 0
2, 134734, Note_on_c, 0, 73, 0
2, 134740, Note_on_c, 0, 72, 78
2, 134834, Note_on_c, 0, 72, 0
2, 134855, Note_on_c, 0, 73, 73
2, 134863, Note_on_c, 0, 67, 72
2, 134867, Note_on_c, 0, 51, 63
2, 134903, Note_on_c, 0, 51, 0
2, 134925, Note_on_c, 0, 67, 0
2, 134957, Note_on_c, 0, 70, 79
2, 134975, Note_on_c, 0, 73, 0
2, 135033, Note_on_c, 0, 70, 0
2, 135067, Note_on_c, 0, 56, 76
2, 135074, Note_on_c, 0, 72, 84
2, 135097, Note_on_c, 0, 56, 0
2, 135118, Note_on_c, 0, 72, 0
2, 135296, Note_on_c, 0, 68, 76
2, 135301, Note_on_c, 0, 75, 80
2, 135353, Note_on_c, 0, 75, 0
2, 135387, Note_on_c, 0, 66, 76
2, 135396, Note_on_c, 0, 68, 0
2, 135508, Note_on_c, 0, 78, 82
2, 135515, Note_on_c, 0, 68, 86
2, 135524, Note_on_c, 0, 66, 0
2, 135543, Note_on_c, 0, 68, 0
2, 135629, Note_on_c, 0, 70, 63
2, 135729, Note_on_c, 0, 72, 73
2, 135732, Note_on_c, 0, 56, 72
2, 135733, Note_on_c, 0, 70, 0
2, 135766, Note_on_c, 0, 56, 0
2, 135809, Note_on_c, 0, 78, 0
2, 135813, Note_on_c, 0, 72, 0
2, 135831, Note_on_c, 0, 78, 35
2, 135839, Note_on_c, 0, 68, 67
2, 135951, Note_on_c, 0, 58, 57
2, 135956, Note_on_c, 0, 73, 72
2, 135993, Note_on_c, 0, 68, 0
2, 135996, Note_on_c, 0, 78, 0
2, 136054, Note_on_c, 0, 72, 81
2, 136067, Note_on_c, 0, 56, 70
2, 136078, Note_on_c, 0, 58, 0
2, 136093, Note_on_c, 0, 73, 0
2, 136166, Note_on_c, 0, 70, 85
2, 136167, Note_on_c, 0, 56, 0
2, 136168, Note_on_c, 0, 72, 0
2, 136172, Note_on_c, 0, 54, 77
2, 136264, Note_on_c, 0, 56, 77
2, 136279, Note_on_c, 0, 72, 81
2, 136283, Note_on_c, 0, 54, 0
2, 136285, Note_on_c, 0, 70, 0
2, 136326, Note_on_c, 0, 72, 0
2, 136341, Note_on_c, 0, 56, 0
2, 136381, Note_on_c, 0, 77, 84
2, 136383, Note_on_c, 0, 65, 73
2, 136383, Note_on_c, 0, 73, 82
2, 136419, Note_on_c, 0, 65, 0
2, 136493, Note_on_c, 0, 72, 65
2, 136536, Note_on_c, 0, 72, 0
2, 136601, Note_on_c, 0, 61, 80
2, 136636, Note_on_c, 0, 70, 69
2, 136653, Note_on_c, 0, 61, 0
2, 136653, Note_on_c, 0, 73, 0
2, 136707, Note_on_c, 0, 70, 0
2, 136718, Note_on_c, 0, 68, 62
2, 136827, Note_on_c, 0, 56, 83
2, 136838, Note_on_c, 0, 70, 70
2, 137057, Note_on_c, 0, 54, 67
2, 137084, Note_on_c, 0, 56, 0
2, 137133, Note_on_c, 0, 77, 0
2, 137155, Note_on_c, 0, 53, 66
2, 137169, Note_on_c, 0, 54, 0
2, 137222, Note_on_c, 0, 68, 0
2, 137259, Note_on_c, 0, 53, 0
2, 137275, Note_on_c, 0, 54, 85
2, 137288, Note_on_c, 0, 75, 80
2, 137296, Note_on_c, 0, 70, 0
2, 137323, Note_on_c, 0, 54, 0
2, 137370, Note_on_c, 0, 68, 61
2, 137438, Note_on_c, 0, 68, 0
2, 137503, Note_on_c, 0, 63, 76
2, 137510, Note_on_c, 0, 66, 62
2, 137549, Note_on_c, 0, 63, 0
2, 137597, Note_on_c, 0, 75, 0
2, 137600, Note_on_c, 0, 70, 64
2, 137613, Note_on_c, 0, 66, 0
2, 137728, Note_on_c, 0, 68, 70
2, 137730, Note_on_c, 0, 53, 82
2, 137768, Note_on_c, 0, 70, 0
2, 137782, Note_on_c, 0, 53, 0
2, 137829, Note_on_c, 0, 66, 60
2, 137889, Note_on_c, 0, 68, 0
2, 137933, Note_on_c, 0, 66, 0
2, 137944, Note_on_c, 0, 61, 65
2, 137946, Note_on_c, 0, 65, 74
2, 137946, Note_on_c, 0, 73, 76
2, 137980, Note_on_c, 0, 61, 0
2, 138062, Note_on_c, 0, 73, 0
2, 138086, Note_on_c, 0, 68, 43
2, 138089, Note_on_c, 0, 65, 0
2, 138116, Note_on_c, 0, 68, 0
2, 138164, Note_on_c, 0, 51, 67
2, 138167, Note_on_c, 0, 66, 73
2, 138174, Note_on_c, 0, 72, 77
2, 138204, Note_on_c, 0, 51, 0
2, 138232, Control_c, 0, 64, 48
2, 138251, Note_on_c, 0, 66, 0
2, 138272, Note_on_c, 0, 65, 65
2, 138342, Note_on_c, 0, 65, 0
2, 138373, Note_on_c, 0, 60, 56
2, 138380, Note_on_c, 0, 75, 76
2, 138383, Note_on_c, 0, 66, 45
2, 138409, Note_on_c, 0, 60, 0
2, 138426, Note_on_c, 0, 66, 0
2, 138467, Note_on_c, 0, 63, 70
2, 138512, Note_on_c, 0, 63, 0
2, 138567, Note_on_c, 0, 49, 47
2, 138600, Note_on_c, 0, 65, 71
2, 138610, Note_on_c, 0, 75, 0
2, 138656, Note_on_c, 0, 49, 0
2, 138676, Note_on_c, 0, 72, 0
2, 138686, Note_on_c, 0, 44, 51
2, 138784, Note_on_c, 0, 44, 0
2, 138788, Note_on_c, 0, 49, 54
2, 138816, Note_on_c, 0, 68, 68
2, 138863, Note_on_c, 0, 68, 0
2, 138883, Note_on_c, 0, 51, 62
2, 138884, Note_on_c, 0, 49, 0
2, 139007, Note_on_c, 0, 51, 0
2, 139030, Note_on_c, 0, 73, 80
2, 139037, Note_on_c, 0, 53, 52
2, 139150, Note_on_c, 0, 53, 0
2, 139158, Note_on_c, 0, 54, 57
2, 139248, Note_on_c, 0, 54, 0
2, 139251, Note_on_c, 0, 71, 72
2, 139275, Note_on_c, 0, 56, 59
2, 139290, Note_on_c, 0, 73, 0
2, 139309, Note_on_c, 0, 71, 0
2, 139350, Note_on_c, 0, 56, 0
2, 139381, Note_on_c, 0, 53, 51
2, 139439, Note_on_c, 0, 53, 0
2, 139445, Note_on_c, 0, 65, 0
2, 139473, Note_on_c, 0, 70, 73
2, 139486, Note_on_c, 0, 54, 61
2, 139538, Note_on_c, 0, 54, 0
2, 139588, Note_on_c, 0, 42, 59
2, 139658, Note_on_c, 0, 42, 0
2, 139695, Note_on_c, 0, 54, 64
2, 139698, Note_on_c, 0, 61, 62
2, 139724, Note_on_c, 0, 54, 0
2, 139742, Note_on_c, 0, 61, 0
2, 139795, Note_on_c, 0, 53, 57
2, 139897, Note_on_c, 0, 53, 0
2, 139915, Note_on_c, 0, 54, 56
2, 139915, Note_on_c, 0, 66, 72
2, 140000, Note_on_c, 0, 54, 0
2, 140018, Note_on_c, 0, 56, 60
2, 140031, Note_on_c, 0, 70, 0
2, 140094, Note_on_c, 0, 56, 0
2, 140126, Note_on_c, 0, 58, 61
2, 140137, Note_on_c, 0, 65, 65
2, 140143, Note_on_c, 0, 66, 0
2, 140169, Note_on_c, 0, 70, 23
2, 140208, Note_on_c, 0, 65, 0
2, 140217, Note_on_c, 0, 58, 0
2, 140233, Note_on_c, 0, 54, 51
2, 140343, Note_on_c, 0, 54, 0
2, 140350, Note_on_c, 0, 51, 56
2, 140357, Note_on_c, 0, 66, 74
2, 140438, Note_on_c, 0, 70, 0
2, 140449, Note_on_c, 0, 51, 0
2, 140458, Note_on_c, 0, 53, 53
2, 140518, Note_on_c, 0, 53, 0
2, 140560, Note_on_c, 0, 54, 58
2, 140571, Note_on_c, 0, 66, 0
2, 140581, Note_on_c, 0, 70, 68
2, 140662, Note_on_c, 0, 54, 0
2, 140667, Note_on_c, 0, 51, 65
2, 140673, Note_on_c, 0, 66, 72
2, 140713, Note_on_c, 0, 70, 0
2, 140775, Note_on_c, 0, 48, 55
2, 140778, Note_on_c, 0, 51, 0
2, 140795, Note_on_c, 0, 63, 74
2, 140828, Note_on_c, 0, 66, 0
2, 140880, Note_on_c, 0, 48, 0
2, 140881, Note_on_c, 0, 49, 56
2, 140966, Note_on_c, 0, 49, 0
2, 140979, Note_on_c, 0, 63, 0
2, 140992, Note_on_c, 0, 51, 64
2, 141005, Note_on_c, 0, 66, 61
2, 141057, Note_on_c, 0, 51, 0
2, 141107, Note_on_c, 0, 48, 53
2, 141114, Note_on_c, 0, 63, 66
2, 141126, Note_on_c, 0, 66, 0
2, 141221, Note_on_c, 0, 48, 0
2, 141227, Note_on_c, 0, 41, 55
2, 141239, Note_on_c, 0, 56, 68
2, 141242, Note_on_c, 0, 63, 0
2, 141284, Note_on_c, 0, 41, 0
2, 141458, Note_on_c, 0, 63, 70
2, 141467, Note_on_c, 0, 53, 56
2, 141505, Note_on_c, 0, 63, 0
2, 141523, Note_on_c, 0, 53, 0
2, 141560, Note_on_c, 0, 51, 54
2, 141691, Note_on_c, 0, 68, 81
2, 141699, Note_on_c, 0, 56, 0
2, 141701, Note_on_c, 0, 51, 0
2, 141707, Note_on_c, 0, 53, 52
2, 141780, Note_on_c, 0, 53, 0
2, 141793, Note_on_c, 0, 54, 67
2, 141876, Note_on_c, 0, 54, 0
2, 141904, Note_on_c, 0, 56, 60
2, 141908, Note_on_c, 0, 60, 65
2, 141958, Note_on_c, 0, 60, 0
2, 141986, Note_on_c, 0, 56, 0
2, 142008, Note_on_c, 0, 53, 53
2, 142122, Note_on_c, 0, 53, 0
2, 142129, Note_on_c, 0, 65, 71
2, 142133, Note_on_c, 0, 50, 46
2, 142186, Note_on_c, 0, 68, 0
2, 142224, Note_on_c, 0, 50, 0
2, 142228, Note_on_c, 0, 51, 63
2, 142302, Note_on_c, 0, 51, 0
2, 142350, Note_on_c, 0, 65, 0
2, 142354, Note_on_c, 0, 53, 57
2, 142364, Note_on_c, 0, 68, 67
2, 142398, Control_c, 0, 64, 46
2, 142413, Control_c, 0, 64, 46
2, 142428, Control_c, 0, 64, 45
2, 142434, Note_on_c, 0, 53, 0
2, 142456, Note_on_c, 0, 50, 56
2, 142459, Control_c, 0, 64, 45
2, 142462, Note_on_c, 0, 65, 66
2, 142480, Note_on_c, 0, 68, 0
2, 142489, Control_c, 0, 64, 44
2, 142505, Control_c, 0, 64, 42
2, 142520, Control_c, 0, 64, 41
2, 142536, Control_c, 0, 64, 40
2, 142550, Control_c, 0, 64, 40
2, 142556, Note_on_c, 0, 65, 0
2, 142565, Control_c, 0, 64, 39
2, 142568, Note_on_c, 0, 62, 64
2, 142577, Note_on_c, 0, 46, 50
2, 142581, Control_c, 0, 64, 39
2, 142596, Control_c, 0, 64, 38
2, 142610, Control_c, 0, 64, 38
2, 142626, Control_c, 0, 64, 37
2, 142631, Note_on_c, 0, 50, 0
2, 142642, Control_c, 0, 64, 34
2, 142658, Control_c, 0, 64, 29
2, 142673, Control_c, 0, 64, 26
2, 142688, Control_c, 0, 64, 24
2, 142695, Note_on_c, 0, 46, 0
2, 142695, Note_on_c, 0, 48, 50
2, 142703, Control_c, 0, 64, 23
2, 142718, Control_c, 0, 64, 22
2, 142734, Control_c, 0, 64, 20
2, 142739, Note_on_c, 0, 48, 0
2, 142749, Control_c, 0, 64, 17
2, 142764, Control_c, 0, 64, 10
2, 142765, Note_on_c, 0, 62, 0
2, 142779, Note_on_c, 0, 50, 52
2, 142780, Control_c, 0, 64, 0
2, 142807, Note_on_c, 0, 65, 56
2, 142809, Control_c, 0, 67, 20
2, 142825, Control_c, 0, 67, 38
2, 142839, Control_c, 0, 67, 55
2, 142855, Control_c, 0, 67, 73
2, 142860, Note_on_c, 0, 50, 0
2, 142870, Control_c, 0, 67, 92
2, 142885, Control_c, 0, 67, 111
2, 142890, Note_on_c, 0, 46, 46
2, 142893, Note_on_c, 0, 62, 55
2, 142894, Note_on_c, 0, 65, 0
2, 142901, Control_c, 0, 67, 126
2, 142915, Control_c, 0, 67, 127
2, 142976, Note_on_c, 0, 62, 0
2, 143021, Note_on_c, 0, 54, 60
2, 143022, Note_on_c, 0, 39, 45
2, 143035, Note_on_c, 0, 46, 0
2, 143066, Note_on_c, 0, 39, 0
2, 143232, Note_on_c, 0, 58, 58
2, 143235, Note_on_c, 0, 51, 53
2, 143263, Note_on_c, 0, 58, 0
2, 143286, Note_on_c, 0, 51, 0
2, 143325, Note_on_c, 0, 50, 48
2, 143445, Note_on_c, 0, 51, 48
2, 143451, Note_on_c, 0, 50, 0
2, 143462, Note_on_c, 0, 66, 66
2, 143473, Note_on_c, 0, 54, 0
2, 143530, Note_on_c, 0, 51, 0
2, 143565, Note_on_c, 0, 53, 48
2, 143637, Note_on_c, 0, 53, 0
2, 143672, Note_on_c, 0, 58, 59
2, 143673, Note_on_c, 0, 54, 55
2, 143738, Note_on_c, 0, 58, 0
2, 143767, Note_on_c, 0, 54, 0
2, 143768, Note_on_c, 0, 51, 57
2, 143891, Note_on_c, 0, 51, 0
2, 143904, Note_on_c, 0, 48, 48
2, 143904, Note_on_c, 0, 63, 62
2, 143920, Note_on_c, 0, 66, 0
2, 144002, Note_on_c, 0, 48, 0
2, 144002, Note_on_c, 0, 49, 56
2, 144009, Note_on_c, 0, 65, 67
2, 144033, Note_on_c, 0, 63, 0
2, 144076, Note_on_c, 0, 49, 0
2, 144101, Note_on_c, 0, 51, 61
2, 144120, Note_on_c, 0, 66, 71
2, 144125, Note_on_c, 0, 65, 0
2, 144183, Note_on_c, 0, 51, 0
2, 144201, Note_on_c, 0, 66, 0
2, 144214, Note_on_c, 0, 48, 48
2, 144229, Note_on_c, 0, 63, 68
2, 144315, Control_c, 0, 67, 124
2, 144324, Note_on_c, 0, 44, 49
2, 144325, Note_on_c, 0, 63, 0
2, 144329, Control_c, 0, 67, 120
2, 144333, Note_on_c, 0, 75, 80
2, 144345, Control_c, 0, 67, 114
2, 144360, Control_c, 0, 67, 106
2, 144376, Control_c, 0, 67, 100
2, 144391, Control_c, 0, 67, 96
2, 144406, Control_c, 0, 67, 94
2, 144413, Note_on_c, 0, 48, 0
2, 144422, Control_c, 0, 67, 93
2, 144430, Note_on_c, 0, 46, 52
2, 144437, Control_c, 0, 67, 92
2, 144459, Note_on_c, 0, 44, 0
2, 144461, Note_on_c, 0, 66, 69
2, 144467, Control_c, 0, 67, 91
2, 144486, Note_on_c, 0, 46, 0
2, 144527, Control_c, 0, 67, 90
2, 144531, Note_on_c, 0, 48, 61
2, 144560, Note_on_c, 0, 68, 68
2, 144593, Note_on_c, 0, 75, 0
2, 144615, Note_on_c, 0, 66, 0
2, 144618, Note_on_c, 0, 48, 0
2, 144636, Note_on_c, 0, 44, 58
2, 144654, Note_on_c, 0, 63, 68
2, 144666, Note_on_c, 0, 68, 0
2, 144687, Control_c, 0, 67, 91
2, 144688, Note_on_c, 0, 63, 0
2, 144705, Note_on_c, 0, 44, 0
2, 144734, Control_c, 0, 64, 33
2, 144748, Control_c, 0, 64, 51
2, 144748, Control_c, 0, 67, 92
2, 144751, Note_on_c, 0, 37, 63
2, 144763, Control_c, 0, 64, 62
2, 144779, Control_c, 0, 64, 67
2, 144781, Note_on_c, 0, 64, 47
2, 144782, Note_on_c, 0, 65, 49
2, 144785, Note_on_c, 0, 37, 0
2, 144794, Control_c, 0, 64, 72
2, 144809, Control_c, 0, 64, 81
2, 144824, Control_c, 0, 64, 92
2, 144837, Note_on_c, 0, 64, 0
2, 144839, Control_c, 0, 64, 107
2, 144855, Control_c, 0, 64, 127
2, 144862, Note_on_c, 0, 73, 66
2, 144884, Control_c, 0, 67, 92
2, 144903, Note_on_c, 0, 65, 0
2, 144915, Control_c, 0, 67, 93
2, 144945, Control_c, 0, 64, 110
2, 144947, Note_on_c, 0, 49, 73
2, 144960, Control_c, 0, 64, 94
2, 144960, Control_c, 0, 67, 94
2, 144975, Note_on_c, 0, 72, 75
2, 144976, Control_c, 0, 64, 82
2, 144990, Note_on_c, 0, 73, 0
2, 144991, Control_c, 0, 64, 69
2, 145006, Control_c, 0, 64, 60
2, 145021, Control_c, 0, 64, 50
2, 145036, Control_c, 0, 64, 49
2, 145051, Control_c, 0, 67, 94
2, 145056, Note_on_c, 0, 51, 72
2, 145058, Note_on_c, 0, 72, 0
2, 145058, Note_on_c, 0, 75, 77
2, 145099, Control_c, 0, 64, 48
2, 145109, Note_on_c, 0, 49, 0
2, 145163, Note_on_c, 0, 51, 0
2, 145164, Note_on_c, 0, 75, 0
2, 145165, Note_on_c, 0, 73, 77
2, 145174, Note_on_c, 0, 53, 81
2, 145204, Control_c, 0, 64, 48
2, 145215, Note_on_c, 0, 53, 0
2, 145220, Control_c, 0, 67, 93
2, 145235, Control_c, 0, 64, 47
2, 145235, Control_c, 0, 67, 92
2, 145250, Control_c, 0, 64, 46
2, 145250, Control_c, 0, 67, 90
2, 145265, Control_c, 0, 67, 88
2, 145265, Note_on_c, 0, 73, 0
2, 145274, Note_on_c, 0, 68, 75
2, 145280, Control_c, 0, 67, 86
2, 145296, Control_c, 0, 67, 80
2, 145311, Control_c, 0, 67, 61
2, 145326, Control_c, 0, 64, 46
2, 145326, Control_c, 0, 67, 36
2, 145342, Control_c, 0, 67, 9
2, 145357, Control_c, 0, 67, 0
2, 145392, Note_on_c, 0, 70, 73
2, 145393, Note_on_c, 0, 68, 0
2, 145415, Note_on_c, 0, 61, 72
2, 145419, Note_on_c, 0, 49, 44
2, 145440, Control_c, 0, 64, 45
2, 145451, Note_on_c, 0, 49, 0
2, 145470, Control_c, 0, 64, 45
2, 145485, Control_c, 0, 64, 44
2, 145498, Note_on_c, 0, 70, 0
2, 145501, Control_c, 0, 64, 44
2, 145510, Note_on_c, 0, 71, 74
2, 145516, Control_c, 0, 64, 42
2, 145531, Control_c, 0, 64, 41
2, 145547, Control_c, 0, 64, 39
2, 145562, Control_c, 0, 64, 37
2, 145578, Control_c, 0, 64, 35
2, 145592, Control_c, 0, 64, 33
2, 145607, Control_c, 0, 64, 31
2, 145618, Note_on_c, 0, 54, 57
2, 145620, Note_on_c, 0, 70, 76
2, 145623, Control_c, 0, 64, 29
2, 145638, Control_c, 0, 64, 28
2, 145647, Note_on_c, 0, 71, 0
2, 145654, Control_c, 0, 64, 28
2, 145675, Note_on_c, 0, 61, 0
2, 145725, Note_on_c, 0, 68, 82
2, 145737, Note_on_c, 0, 60, 64
2, 145737, Note_on_c, 0, 70, 0
2, 145744, Control_c, 0, 64, 27
2, 145775, Control_c, 0, 64, 26
2, 145804, Control_c, 0, 64, 26
2, 145820, Control_c, 0, 64, 25
2, 145820, Note_on_c, 0, 68, 0
2, 145824, Note_on_c, 0, 60, 0
2, 145827, Note_on_c, 0, 66, 85
2, 145835, Control_c, 0, 64, 24
2, 145840, Note_on_c, 0, 58, 68
2, 145850, Control_c, 0, 64, 23
2, 145865, Control_c, 0, 64, 21
2, 145880, Control_c, 0, 64, 20
2, 145880, Note_on_c, 0, 54, 0
2, 145896, Control_c, 0, 64, 18
2, 145912, Control_c, 0, 64, 17
2, 145923, Note_on_c, 0, 66, 0
2, 145927, Control_c, 0, 64, 15
2, 145927, Note_on_c, 0, 68, 85
2, 145931, Note_on_c, 0, 58, 0
2, 145935, Note_on_c, 0, 60, 74
2, 145942, Control_c, 0, 64, 14
2, 145973, Control_c, 0, 64, 12
2, 146003, Control_c, 0, 64, 8
2, 146008, Note_on_c, 0, 68, 0
2, 146018, Control_c, 0, 64, 0
2, 146038, Note_on_c, 0, 77, 91
2, 146039, Note_on_c, 0, 60, 0
2, 146059, Note_on_c, 0, 53, 64
2, 146061, Note_on_c, 0, 61, 74
2, 146078, Note_on_c, 0, 77, 0
2, 146152, Note_on_c, 0, 61, 0
2, 146157, Note_on_c, 0, 60, 72
2, 146236, Note_on_c, 0, 60, 0
2, 146274, Note_on_c, 0, 73, 84
2, 146286, Note_on_c, 0, 58, 59
2, 146312, Note_on_c, 0, 73, 0
2, 146363, Note_on_c, 0, 58, 0
2, 146390, Note_on_c, 0, 56, 58
2, 146437, Note_on_c, 0, 53, 0
2, 146504, Note_on_c, 0, 68, 90
2, 146513, Note_on_c, 0, 56, 0
2, 146520, Note_on_c, 0, 58, 45
2, 146525, Note_on_c, 0, 51, 58
2, 146702, Note_on_c, 0, 51, 0
2, 146734, Note_on_c, 0, 66, 80
2, 146735, Note_on_c, 0, 49, 48
2, 146746, Note_on_c, 0, 68, 0
2, 146834, Note_on_c, 0, 65, 80
2, 146834, Note_on_c, 0, 66, 0
2, 146919, Note_on_c, 0, 49, 0
2, 146955, Note_on_c, 0, 66, 86
2, 146956, Note_on_c, 0, 48, 63
2, 146956, Note_on_c, 0, 65, 0
2, 146958, Note_on_c, 0, 58, 0
2, 146987, Note_on_c, 0, 66, 0
2, 147060, Note_on_c, 0, 56, 62
2, 147148, Note_on_c, 0, 48, 0
2, 147164, Note_on_c, 0, 54, 60
2, 147170, Note_on_c, 0, 75, 83
2, 147178, Note_on_c, 0, 56, 0
2, 147237, Note_on_c, 0, 75, 0
2, 147251, Note_on_c, 0, 54, 0
2, 147262, Note_on_c, 0, 58, 63
2, 147379, Note_on_c, 0, 65, 82
2, 147383, Note_on_c, 0, 49, 61
2, 147390, Note_on_c, 0, 56, 72
2, 147390, Note_on_c, 0, 58, 0
2, 147423, Note_on_c, 0, 65, 0
2, 147477, Note_on_c, 0, 49, 0
2, 147502, Note_on_c, 0, 54, 66
2, 147553, Note_on_c, 0, 56, 0
2, 147611, Note_on_c, 0, 73, 77
2, 147614, Note_on_c, 0, 53, 63
2, 147620, Note_on_c, 0, 54, 0
2, 147664, Note_on_c, 0, 53, 0
2, 147671, Note_on_c, 0, 73, 0
2, 147689, Note_on_c, 0, 56, 68
2, 147733, Note_on_c, 0, 56, 0
2, 147814, Note_on_c, 0, 54, 68
2, 147830, Note_on_c, 0, 44, 58
2, 147832, Note_on_c, 0, 63, 76
2, 147896, Note_on_c, 0, 54, 0
2, 147906, Note_on_c, 0, 53, 64
2, 147919, Note_on_c, 0, 63, 0
2, 148032, Note_on_c, 0, 53, 0
2, 148038, Note_on_c, 0, 72, 71
2, 148046, Note_on_c, 0, 51, 62
2, 148066, Note_on_c, 0, 72, 0
2, 148093, Note_on_c, 0, 44, 0
2, 148124, Note_on_c, 0, 54, 58
2, 148136, Note_on_c, 0, 51, 0
2, 148216, Control_c, 0, 64, 16
2, 148231, Control_c, 0, 64, 39
2, 148246, Control_c, 0, 64, 57
2, 148246, Note_on_c, 0, 61, 71
2, 148248, Note_on_c, 0, 54, 0
2, 148250, Note_on_c, 0, 46, 54
2, 148262, Control_c, 0, 64, 66
2, 148262, Note_on_c, 0, 53, 56
2, 148277, Control_c, 0, 64, 73
2, 148288, Note_on_c, 0, 46, 0
2, 148293, Control_c, 0, 64, 84
2, 148307, Control_c, 0, 64, 99
2, 148316, Note_on_c, 0, 61, 0
2, 148322, Control_c, 0, 64, 121
2, 148338, Control_c, 0, 64, 127
2, 148339, Note_on_c, 0, 53, 0
2, 148365, Note_on_c, 0, 65, 64
2, 148368, Control_c, 0, 64, 107
2, 148376, Note_on_c, 0, 56, 63
2, 148384, Control_c, 0, 64, 97
2, 148399, Control_c, 0, 64, 92
2, 148415, Control_c, 0, 64, 90
2, 148430, Control_c, 0, 64, 87
2, 148445, Control_c, 0, 64, 81
2, 148451, Note_on_c, 0, 56, 0
2, 148459, Note_on_c, 0, 65, 0
2, 148459, Note_on_c, 0, 66, 66
2, 148461, Control_c, 0, 64, 74
2, 148466, Note_on_c, 0, 58, 64
2, 148482, Control_c, 0, 64, 68
2, 148498, Control_c, 0, 64, 63
2, 148513, Control_c, 0, 64, 59
2, 148528, Control_c, 0, 64, 57
2, 148541, Note_on_c, 0, 58, 0
2, 148544, Control_c, 0, 64, 56
2, 148558, Control_c, 0, 64, 55
2, 148565, Note_on_c, 0, 68, 74
2, 148574, Control_c, 0, 64, 52
2, 148577, Note_on_c, 0, 66, 0
2, 148584, Note_on_c, 0, 60, 57
2, 148589, Control_c, 0, 64, 47
2, 148604, Control_c, 0, 64, 41
2, 148620, Control_c, 0, 64, 39
2, 148634, Control_c, 0, 64, 38
2, 148664, Note_on_c, 0, 60, 0
2, 148671, Note_on_c, 0, 70, 73
2, 148680, Note_on_c, 0, 61, 66
2, 148689, Note_on_c, 0, 68, 0
2, 148696, Control_c, 0, 64, 38
2, 148737, Note_on_c, 0, 70, 0
2, 148747, Note_on_c, 0, 61, 0
2, 148769, Note_on_c, 0, 72, 75
2, 148782, Note_on_c, 0, 60, 60
2, 148786, Control_c, 0, 64, 37
2, 148801, Control_c, 0, 64, 36
2, 148873, Note_on_c, 0, 60, 0
2, 148876, Note_on_c, 0, 72, 0
2, 148878, Note_on_c, 0, 73, 78
2, 148882, Note_on_c, 0, 58, 61
2, 148969, Note_on_c, 0, 75, 84
2, 148991, Note_on_c, 0, 58, 0
2, 148992, Note_on_c, 0, 56, 62
2, 148998, Note_on_c, 0, 73, 0
2, 149082, Note_on_c, 0, 76, 83
2, 149083, Note_on_c, 0, 56, 0
2, 149084, Note_on_c, 0, 75, 0
2, 149098, Note_on_c, 0, 55, 64
2, 149105, Control_c, 0, 64, 36
2, 149120, Control_c, 0, 64, 29
2, 149136, Control_c, 0, 64, 0
2, 149185, Note_on_c, 0, 75, 89
2, 149194, Note_on_c, 0, 55, 0
2, 149205, Note_on_c, 0, 56, 69
2, 149219, Note_on_c, 0, 76, 0
2, 149249, Control_c, 0, 64, 15
2, 149265, Control_c, 0, 64, 50
2, 149280, Control_c, 0, 64, 61
2, 149282, Note_on_c, 0, 56, 0
2, 149296, Control_c, 0, 64, 65
2, 149301, Note_on_c, 0, 73, 88
2, 149306, Note_on_c, 0, 75, 0
2, 149311, Control_c, 0, 64, 68
2, 149315, Note_on_c, 0, 58, 64
2, 149325, Control_c, 0, 64, 71
2, 149341, Control_c, 0, 64, 75
2, 149356, Control_c, 0, 64, 80
2, 149371, Control_c, 0, 64, 86
2, 149384, Note_on_c, 0, 58, 0
2, 149387, Control_c, 0, 64, 92
2, 149392, Note_on_c, 0, 55, 66
2, 149398, Note_on_c, 0, 75, 93
2, 149402, Control_c, 0, 64, 93
2, 149418, Control_c, 0, 64, 93
2, 149418, Note_on_c, 0, 73, 0
2, 149423, Note_on_c, 0, 55, 0
2, 149432, Control_c, 0, 64, 92
2, 149447, Control_c, 0, 64, 91
2, 149463, Control_c, 0, 64, 91
2, 149476, Note_on_c, 0, 75, 0
2, 149477, Control_c, 0, 64, 89
2, 149493, Control_c, 0, 64, 86
2, 149504, Note_on_c, 0, 51, 70
2, 149506, Note_on_c, 0, 76, 90
2, 149508, Control_c, 0, 64, 83
2, 149522, Control_c, 0, 64, 80
2, 149538, Control_c, 0, 64, 77
2, 149553, Control_c, 0, 64, 73
2, 149568, Control_c, 0, 64, 69
2, 149584, Control_c, 0, 64, 64
2, 149598, Control_c, 0, 64, 60
2, 149603, Note_on_c, 0, 79, 87
2, 149614, Control_c, 0, 64, 57
2, 149614, Note_on_c, 0, 49, 58
2, 149619, Note_on_c, 0, 76, 0
2, 149629, Control_c, 0, 64, 55
2, 149644, Control_c, 0, 64, 55
2, 149659, Control_c, 0, 64, 54
2, 149674, Control_c, 0, 64, 52
2, 149689, Control_c, 0, 64, 48
2, 149700, Note_on_c, 0, 48, 59
2, 149705, Control_c, 0, 64, 43
2, 149710, Note_on_c, 0, 49, 0
2, 149710, Note_on_c, 0, 79, 0
2, 149711, Note_on_c, 0, 80, 87
2, 149720, Control_c, 0, 64, 41
2, 149736, Control_c, 0, 64, 41
2, 149750, Control_c, 0, 64, 40
2, 149765, Control_c, 0, 64, 40
2, 149781, Control_c, 0, 64, 36
2, 149796, Control_c, 0, 64, 29
2, 149805, Note_on_c, 0, 82, 87
2, 149811, Control_c, 0, 64, 20
2, 149827, Control_c, 0, 64, 0
2, 149835, Note_on_c, 0, 80, 0
2, 149838, Note_on_c, 0, 48, 0
2, 149876, Note_on_c, 0, 46, 26
2, 149887, Control_c, 0, 64, 29
2, 149903, Control_c, 0, 64, 55
2, 149905, Note_on_c, 0, 51, 0
2, 149908, Note_on_c, 0, 44, 59
2, 149912, Note_on_c, 0, 73, 87
2, 149918, Control_c, 0, 64, 66
2, 149925, Note_on_c, 0, 82, 0
2, 149933, Control_c, 0, 64, 77
2, 149948, Control_c, 0, 64, 96
2, 149963, Control_c, 0, 64, 116
2, 149979, Control_c, 0, 64, 108
2, 149994, Control_c, 0, 64, 96
2, 149994, Note_on_c, 0, 73, 0
2, 150014, Note_on_c, 0, 72, 80
2, 150015, Control_c, 0, 64, 82
2, 150024, Note_on_c, 0, 51, 64
2, 150030, Control_c, 0, 64, 70
2, 150037, Note_on_c, 0, 46, 0
2, 150045, Control_c, 0, 64, 60
2, 150049, Note_on_c, 0, 44, 0
2, 150061, Control_c, 0, 64, 45
2, 150076, Control_c, 0, 64, 43
2, 150081, Note_on_c, 0, 72, 0
2, 150090, Control_c, 0, 64, 42
2, 150105, Note_on_c, 0, 51, 0
2, 150121, Control_c, 0, 64, 42
2, 150124, Note_on_c, 0, 53, 64
2, 150128, Note_on_c, 0, 70, 84
2, 150136, Control_c, 0, 64, 41
2, 150152, Control_c, 0, 64, 40
2, 150167, Control_c, 0, 64, 40
2, 150216, Note_on_c, 0, 68, 85
2, 150241, Note_on_c, 0, 70, 0
2, 150245, Note_on_c, 0, 54, 64
2, 150254, Note_on_c, 0, 53, 0
2, 150292, Note_on_c, 0, 68, 0
2, 150304, Control_c, 0, 64, 39
2, 150334, Control_c, 0, 64, 39
2, 150335, Note_on_c, 0, 75, 90
2, 150343, Note_on_c, 0, 54, 0
2, 150343, Note_on_c, 0, 56, 71
2, 150372, Note_on_c, 0, 75, 0
2, 150395, Control_c, 0, 64, 38
2, 150448, Note_on_c, 0, 56, 0
2, 150448, Note_on_c, 0, 58, 77
2, 150552, Note_on_c, 0, 66, 91
2, 150558, Note_on_c, 0, 58, 0
2, 150562, Control_c, 0, 64, 38
2, 150564, Note_on_c, 0, 60, 76
2, 150595, Note_on_c, 0, 66, 0
2, 150650, Note_on_c, 0, 60, 0
2, 150660, Note_on_c, 0, 56, 73
2, 150698, Control_c, 0, 64, 37
2, 150714, Control_c, 0, 64, 36
2, 150764, Note_on_c, 0, 56, 0
2, 150782, Control_c, 0, 64, 36
2, 150795, Note_on_c, 0, 61, 84
2, 150797, Control_c, 0, 64, 35
2, 150801, Note_on_c, 0, 65, 96
2, 150812, Control_c, 0, 64, 34
2, 150827, Note_on_c, 0, 61, 0
2, 150829, Control_c, 0, 64, 33
2, 150840, Note_on_c, 0, 65, 0
2, 150844, Control_c, 0, 64, 32
2, 150860, Control_c, 0, 64, 32
2, 151054, Note_on_c, 0, 41, 81
2, 151054, Note_on_c, 0, 61, 92
2, 151056, Note_on_c, 0, 73, 86
2, 151085, Note_on_c, 0, 41, 0
2, 151098, Note_on_c, 0, 68, 13
2, 151099, Note_on_c, 0, 61, 0
2, 151100, Note_on_c, 0, 73, 0
2, 151144, Note_on_c, 0, 68, 0
2, 151333, Note_on_c, 0, 42, 78
2, 151334, Note_on_c, 0, 63, 93
2, 151338, Note_on_c, 0, 70, 87
2, 151366, Note_on_c, 0, 42, 0
2, 151392, Note_on_c, 0, 70, 0
2, 151594, Control_c, 0, 64, 32
2, 151681, Note_on_c, 0, 72, 92
2, 151686, Note_on_c, 0, 44, 71
2, 151697, Note_on_c, 0, 66, 54
2, 151726, Note_on_c, 0, 66, 0
2, 151732, Note_on_c, 0, 44, 0
2, 151747, Control_c, 0, 64, 32
2, 151762, Control_c, 0, 64, 17
2, 151776, Control_c, 0, 64, 0
2, 151781, Note_on_c, 0, 72, 0
2, 151898, Control_c, 0, 64, 53
2, 151914, Control_c, 0, 64, 66
2, 151929, Control_c, 0, 64, 79
2, 151944, Control_c, 0, 64, 127
2, 151989, Note_on_c, 0, 63, 0
2, 152180, Note_on_c, 0, 73, 94
2, 152191, Note_on_c, 0, 37, 61
2, 152194, Note_on_c, 0, 61, 75
2, 152196, Note_on_c, 0, 65, 72
2, 152201, Note_on_c, 0, 68, 66
2, 152202, Control_c, 0, 64, 117
2, 152217, Control_c, 0, 64, 79
2, 152233, Control_c, 0, 64, 61
2, 152248, Control_c, 0, 64, 0
2, 152453, Control_c, 0, 64, 40
2, 152470, Control_c, 0, 64, 55
2, 152485, Control_c, 0, 64, 62
2, 152499, Control_c, 0, 64, 66
2, 152515, Control_c, 0, 64, 72
2, 152530, Control_c, 0, 64, 83
2, 152544, Control_c, 0, 64, 127
2, 153675, Note_on_c, 0, 61, 0
2, 153700, Note_on_c, 0, 73, 0
2, 153742, Note_on_c, 0, 65, 0
2, 153744, Note_on_c, 0, 37, 0
2, 153765, Note_on_c, 0, 68, 0
2, 153830, Control_c, 0, 64, 114
2, 153852, Control_c, 0, 64, 104
2, 153868, Control_c, 0, 64, 98
2, 153883, Control_c, 0, 64, 90
2, 153898, Control_c, 0, 64, 82
2, 153913, Control_c, 0, 64, 74
2, 153928, Control_c, 0, 64, 68
2, 153943, Control_c, 0, 64, 64
2, 153959, Control_c, 0, 64, 61
2, 153974, Control_c, 0, 64, 59
2, 153990, Control_c, 0, 64, 56
2, 154004, Control_c, 0, 64, 52
2, 154019, Control_c, 0, 64, 47
2, 154035, Control_c, 0, 64, 43
2, 154050, Control_c, 0, 64, 41
2, 154095, Control_c, 0, 64, 40
2, 154127, Control_c, 0, 64, 40
2, 154142, Control_c, 0, 64, 39
2, 154158, Control_c, 0, 64, 39
2, 154384, Control_c, 0, 64, 35
2, 154400, Control_c, 0, 64, 0
2, 154401, End_track
0, 0, End_of_file
