0, 0, Header, 1, 2, 384
1, 0, Start_track
1, 0, Tempo, 500000
1, 0, Time_signature, 4, 2, 24, 8
1, 1, End_track
2,0,Start_track
2,0, Note_on_c, 0, 68, 63
2,32, Note_on_c, 0, 68, 0
2,266, Note_on_c, 0, 70, 59
2,380, Note_on_c, 0, 68, 77
2,387, Note_on_c, 0, 70, 0
2,486, Note_on_c, 0, 68, 0
2,503, Note_on_c, 0, 66, 74
2,596, Note_on_c, 0, 66, 0
2,601, Note_on_c, 0, 68, 80
2,720, Note_on_c, 0, 68, 0
2,720, Note_on_c, 0, 77, 83
2,756, Note_on_c, 0, 77, 0
2,955, Note_on_c, 0, 73, 85
2,994, Note_on_c, 0, 73, 0
2,1218, Note_on_c, 0, 68, 82
2,1458, Note_on_c, 0, 66, 70
2,1466, Note_on_c, 0, 68, 0
2,1553, Note_on_c, 0, 66, 0
2,1566, Note_on_c, 0, 65, 75
2,1690, Note_on_c, 0, 65, 0
2,1690, Note_on_c, 0, 66, 82
2,1717, Note_on_c, 0, 66, 0
2,1933, Note_on_c, 0, 75, 77
2,1973, Note_on_c, 0, 75, 0
2,2178, Note_on_c, 0, 65, 77
2,2204, Note_on_c, 0, 65, 0
2,2422, Note_on_c, 0, 73, 68
2,2449, Note_on_c, 0, 73, 0
2,2651, Note_on_c, 0, 63, 72
2,2681, Note_on_c, 0, 63, 0
2,2906, Note_on_c, 0, 72, 65
2,2936, Note_on_c, 0, 72, 0
2,3147, Note_on_c, 0, 61, 65
2,3174, Note_on_c, 0, 61, 0
2,3392, Note_on_c, 0, 73, 53
2,3464, Note_on_c, 0, 73, 0
2,3499, Note_on_c, 0, 72, 59
2,3600, Note_on_c, 0, 72, 0
2,3605, Note_on_c, 0, 73, 63
2,3701, Note_on_c, 0, 73, 0
2,3709, Note_on_c, 0, 75, 66
2,3788, Note_on_c, 0, 75, 0
2,3818, Note_on_c, 0, 61, 66
2,3822, Note_on_c, 0, 77, 71
2,3848, Note_on_c, 0, 61, 0
2,3911, Note_on_c, 0, 77, 0
2,3923, Note_on_c, 0, 78, 64
2,4032, Note_on_c, 0, 78, 0
2,4035, Note_on_c, 0, 65, 50
2,4042, Note_on_c, 0, 80, 68
2,4146, Note_on_c, 0, 65, 0
2,4146, Note_on_c, 0, 79, 78
2,4152, Note_on_c, 0, 63, 70
2,4158, Note_on_c, 0, 80, 0
2,4253, Note_on_c, 0, 63, 0
2,4255, Note_on_c, 0, 79, 0
2,4263, Note_on_c, 0, 77, 83
2,4267, Note_on_c, 0, 61, 73
2,4363, Note_on_c, 0, 63, 75
2,4363, Note_on_c, 0, 79, 82
2,4384, Note_on_c, 0, 77, 0
2,4394, Note_on_c, 0, 61, 0
2,4429, Note_on_c, 0, 63, 0
2,4470, Note_on_c, 0, 79, 0
2,4473, Note_on_c, 0, 72, 75
2,4478, Note_on_c, 0, 80, 83
2,4513, Note_on_c, 0, 72, 0
2,4589, Note_on_c, 0, 78, 82
2,4593, Note_on_c, 0, 80, 0
2,4660, Note_on_c, 0, 78, 0
2,4695, Note_on_c, 0, 68, 85
2,4697, Note_on_c, 0, 77, 79
2,4748, Note_on_c, 0, 68, 0
2,4810, Note_on_c, 0, 75, 76
2,4831, Note_on_c, 0, 77, 0
2,4919, Note_on_c, 0, 63, 79
2,4922, Note_on_c, 0, 77, 85
2,4938, Note_on_c, 0, 75, 0
2,5155, Note_on_c, 0, 63, 0
2,5164, Note_on_c, 0, 61, 71
2,5263, Note_on_c, 0, 60, 67
2,5264, Note_on_c, 0, 61, 0
2,5368, Note_on_c, 0, 60, 0
2,5372, Note_on_c, 0, 61, 85
2,5419, Note_on_c, 0, 61, 0
2,5482, Note_on_c, 0, 77, 0
2,5489, Note_on_c, 0, 75, 64
2,5601, Note_on_c, 0, 73, 70
2,5602, Note_on_c, 0, 70, 74
2,5602, Note_on_c, 0, 75, 0
2,5639, Note_on_c, 0, 70, 0
2,5697, Note_on_c, 0, 73, 0
2,5706, Note_on_c, 0, 77, 67
2,5828, Note_on_c, 0, 60, 80
2,5840, Note_on_c, 0, 75, 71
2,5854, Note_on_c, 0, 77, 0
2,5876, Note_on_c, 0, 60, 0
2,5934, Note_on_c, 0, 75, 0
2,5936, Note_on_c, 0, 73, 70
2,6025, Note_on_c, 0, 73, 0
2,6033, Note_on_c, 0, 68, 70
2,6035, Note_on_c, 0, 72, 71
2,6082, Note_on_c, 0, 68, 0
2,6137, Note_on_c, 0, 72, 0
2,6152, Note_on_c, 0, 75, 66
2,6256, Note_on_c, 0, 58, 73
2,6259, Note_on_c, 0, 73, 73
2,6295, Note_on_c, 0, 75, 0
2,6310, Note_on_c, 0, 58, 0
2,6357, Note_on_c, 0, 73, 0
2,6364, Note_on_c, 0, 72, 75
2,6458, Note_on_c, 0, 72, 0
2,6468, Note_on_c, 0, 67, 54
2,6471, Note_on_c, 0, 73, 78
2,6494, Note_on_c, 0, 67, 0
2,6573, Note_on_c, 0, 73, 0
2,6583, Note_on_c, 0, 70, 76
2,6628, Note_on_c, 0, 70, 0
2,6677, Note_on_c, 0, 56, 54
2,6696, Note_on_c, 0, 70, 70
2,6735, Note_on_c, 0, 56, 0
2,6755, Note_on_c, 0, 70, 0
2,6786, Note_on_c, 0, 72, 74
2,6825, Note_on_c, 0, 72, 0
2,6897, Note_on_c, 0, 68, 76
2,6905, Note_on_c, 0, 75, 84
2,6971, Note_on_c, 0, 75, 0
2,6995, Note_on_c, 0, 68, 0
2,6998, Note_on_c, 0, 67, 76
2,7098, Note_on_c, 0, 67, 0
2,7106, Note_on_c, 0, 68, 84
2,7113, Note_on_c, 0, 78, 90
2,7136, Note_on_c, 0, 68, 0
2,7234, Note_on_c, 0, 70, 63
2,7331, Note_on_c, 0, 56, 78
2,7334, Note_on_c, 0, 72, 74
2,7348, Note_on_c, 0, 70, 0
2,7365, Note_on_c, 0, 56, 0
2,7402, Note_on_c, 0, 78, 0
2,7424, Note_on_c, 0, 72, 0
2,7439, Note_on_c, 0, 78, 23
2,7444, Note_on_c, 0, 68, 71
2,7547, Note_on_c, 0, 58, 58
2,7560, Note_on_c, 0, 73, 75
2,7596, Note_on_c, 0, 68, 0
2,7625, Note_on_c, 0, 78, 0
2,7659, Note_on_c, 0, 72, 82
2,7662, Note_on_c, 0, 56, 71
2,7687, Note_on_c, 0, 58, 0
2,7704, Note_on_c, 0, 73, 0
2,7757, Note_on_c, 0, 56, 0
2,7767, Note_on_c, 0, 54, 74
2,7769, Note_on_c, 0, 70, 82
2,7770, Note_on_c, 0, 72, 0
2,7852, Note_on_c, 0, 56, 73
2,7867, Note_on_c, 0, 54, 0
2,7872, Note_on_c, 0, 70, 0
2,7873, Note_on_c, 0, 72, 77
2,7905, Note_on_c, 0, 72, 0
2,7920, Note_on_c, 0, 56, 0
2,7968, Note_on_c, 0, 77, 87
2,7974, Note_on_c, 0, 65, 64
2,7975, Note_on_c, 0, 73, 79
2,8020, Note_on_c, 0, 65, 0
2,8105, Note_on_c, 0, 72, 59
2,8142, Note_on_c, 0, 72, 0
2,8204, Note_on_c, 0, 61, 82
2,8231, Note_on_c, 0, 70, 66
2,8259, Note_on_c, 0, 61, 0
2,8310, Note_on_c, 0, 70, 0
2,8319, Note_on_c, 0, 73, 0
2,8333, Note_on_c, 0, 68, 55
2,8440, Note_on_c, 0, 56, 81
2,8448, Note_on_c, 0, 70, 68
2,8469, Note_on_c, 0, 68, 0
2,8677, Note_on_c, 0, 54, 71
2,8683, Note_on_c, 0, 56, 0
2,8717, Note_on_c, 0, 77, 0
2,8772, Note_on_c, 0, 53, 70
2,8774, Note_on_c, 0, 54, 0
2,8884, Note_on_c, 0, 53, 0
2,8888, Note_on_c, 0, 54, 87
2,8909, Note_on_c, 0, 75, 80
2,8923, Note_on_c, 0, 70, 0
2,8937, Note_on_c, 0, 54, 0
2,9007, Note_on_c, 0, 68, 63
2,9053, Note_on_c, 0, 68, 0
2,9122, Note_on_c, 0, 63, 71
2,9139, Note_on_c, 0, 66, 62
2,9158, Note_on_c, 0, 63, 0
2,9242, Note_on_c, 0, 70, 64
2,9247, Note_on_c, 0, 66, 0
2,9263, Note_on_c, 0, 75, 0
2,9338, Note_on_c, 0, 53, 82
2,9356, Note_on_c, 0, 68, 73
2,9384, Note_on_c, 0, 53, 0
2,9402, Note_on_c, 0, 70, 0
2,9469, Note_on_c, 0, 66, 60
2,9522, Note_on_c, 0, 68, 0
2,9555, Note_on_c, 0, 66, 0
2,9557, Note_on_c, 0, 61, 61
2,9559, Note_on_c, 0, 73, 70
2,9567, Note_on_c, 0, 65, 74
2,9588, Note_on_c, 0, 61, 0
2,9675, Note_on_c, 0, 73, 0
2,9685, Note_on_c, 0, 68, 53
2,9696, Note_on_c, 0, 65, 0
2,9747, Note_on_c, 0, 68, 0
2,9764, Note_on_c, 0, 51, 63
2,9777, Note_on_c, 0, 66, 68
2,9781, Note_on_c, 0, 72, 66
2,9810, Note_on_c, 0, 51, 0
2,9844, Note_on_c, 0, 66, 0
2,9876, Note_on_c, 0, 65, 55
2,9968, Note_on_c, 0, 65, 0
2,9983, Note_on_c, 0, 66, 56
2,10000, Note_on_c, 0, 60, 45
2,10008, Note_on_c, 0, 75, 73
2,10028, Note_on_c, 0, 60, 0
2,10059, Note_on_c, 0, 66, 0
2,10094, Note_on_c, 0, 63, 68
2,10128, Note_on_c, 0, 63, 0
2,10185, Note_on_c, 0, 75, 0
2,10210, Note_on_c, 0, 49, 47
2,10224, Note_on_c, 0, 65, 76
2,10243, Note_on_c, 0, 72, 0
2,10287, Note_on_c, 0, 49, 0
2,10448, Note_on_c, 0, 68, 75
2,10461, Note_on_c, 0, 61, 51
2,10478, Note_on_c, 0, 68, 0
2,10511, Note_on_c, 0, 61, 0
2,10552, Note_on_c, 0, 60, 50
2,10664, Note_on_c, 0, 60, 0
2,10664, Note_on_c, 0, 61, 47
2,10667, Note_on_c, 0, 77, 87
2,10688, Note_on_c, 0, 65, 0
2,10754, Note_on_c, 0, 61, 0
2,10775, Note_on_c, 0, 63, 59
2,10826, Note_on_c, 0, 63, 0
2,10869, Note_on_c, 0, 65, 42
2,10884, Note_on_c, 0, 68, 70
2,10961, Note_on_c, 0, 68, 0
2,10987, Note_on_c, 0, 65, 0
2,11007, Note_on_c, 0, 61, 47
2,11102, Note_on_c, 0, 73, 79
2,11129, Note_on_c, 0, 58, 56
2,11131, Note_on_c, 0, 61, 0
2,11177, Note_on_c, 0, 77, 0
2,11233, Note_on_c, 0, 58, 0
2,11236, Note_on_c, 0, 60, 53
2,11284, Note_on_c, 0, 60, 0
2,11324, Note_on_c, 0, 61, 60
2,11324, Note_on_c, 0, 73, 0
2,11338, Note_on_c, 0, 77, 75
2,11436, Note_on_c, 0, 73, 73
2,11438, Note_on_c, 0, 58, 57
2,11465, Note_on_c, 0, 61, 0
2,11468, Note_on_c, 0, 77, 0
2,11544, Note_on_c, 0, 70, 78
2,11545, Note_on_c, 0, 55, 51
2,11573, Note_on_c, 0, 58, 0
2,11591, Note_on_c, 0, 73, 0
2,11641, Note_on_c, 0, 55, 0
2,11644, Note_on_c, 0, 56, 62
2,11724, Note_on_c, 0, 56, 0
2,11732, Note_on_c, 0, 70, 0
2,11758, Note_on_c, 0, 73, 67
2,11759, Note_on_c, 0, 58, 58
2,11817, Note_on_c, 0, 58, 0
2,11858, Note_on_c, 0, 55, 58
2,11864, Note_on_c, 0, 70, 67
2,11869, Note_on_c, 0, 73, 0
2,11973, Note_on_c, 0, 70, 0
2,11974, Note_on_c, 0, 55, 0
2,11993, Note_on_c, 0, 48, 57
2,11994, Note_on_c, 0, 63, 68
2,12034, Note_on_c, 0, 48, 0
2,12209, Note_on_c, 0, 70, 73
2,12225, Note_on_c, 0, 60, 53
2,12264, Note_on_c, 0, 70, 0
2,12288, Note_on_c, 0, 60, 0
2,12316, Note_on_c, 0, 58, 57
2,12440, Note_on_c, 0, 75, 81
2,12450, Note_on_c, 0, 63, 0
2,12454, Note_on_c, 0, 60, 59
2,12461, Note_on_c, 0, 58, 0
2,12528, Note_on_c, 0, 60, 0
2,12542, Note_on_c, 0, 61, 67
2,12615, Note_on_c, 0, 61, 0
2,12647, Note_on_c, 0, 63, 62
2,12655, Note_on_c, 0, 67, 67
2,12702, Note_on_c, 0, 67, 0
2,12740, Note_on_c, 0, 63, 0
2,12756, Note_on_c, 0, 60, 61
2,12872, Note_on_c, 0, 72, 75
2,12885, Note_on_c, 0, 56, 51
2,12894, Note_on_c, 0, 60, 0
2,12939, Note_on_c, 0, 75, 0
2,12976, Note_on_c, 0, 56, 0
2,12976, Note_on_c, 0, 58, 59
2,13047, Note_on_c, 0, 58, 0
2,13087, Note_on_c, 0, 72, 0
2,13096, Note_on_c, 0, 60, 57
2,13107, Note_on_c, 0, 75, 69
2,13178, Note_on_c, 0, 60, 0
2,13197, Note_on_c, 0, 72, 71
2,13216, Note_on_c, 0, 56, 54
2,13237, Note_on_c, 0, 75, 0
2,13301, Note_on_c, 0, 72, 0
2,13309, Note_on_c, 0, 56, 0
2,13309, Note_on_c, 0, 68, 68
2,13330, Note_on_c, 0, 53, 54
2,13407, Note_on_c, 0, 53, 0
2,13416, Note_on_c, 0, 55, 57
2,13477, Note_on_c, 0, 55, 0
2,13517, Note_on_c, 0, 68, 0
2,13527, Note_on_c, 0, 56, 53
2,13548, Note_on_c, 0, 72, 58
2,13584, Note_on_c, 0, 56, 0
2,13638, Note_on_c, 0, 53, 46
2,13639, Note_on_c, 0, 72, 0
2,13657, Note_on_c, 0, 68, 58
2,13729, Note_on_c, 0, 53, 0
2,13742, Note_on_c, 0, 68, 0
2,13749, Control_c, 0, 67, 8
2,13750, Note_on_c, 0, 46, 48
2,13776, Note_on_c, 0, 61, 54
2,13780, Control_c, 0, 67, 9
2,13800, Note_on_c, 0, 46, 0
2,13840, Control_c, 0, 67, 8
2,13856, Control_c, 0, 67, 0
2,13981, Note_on_c, 0, 68, 64
2,13982, Note_on_c, 0, 58, 46
2,14010, Note_on_c, 0, 68, 0
2,14036, Note_on_c, 0, 58, 0
2,14089, Note_on_c, 0, 56, 48
2,14184, Note_on_c, 0, 58, 46
2,14202, Note_on_c, 0, 56, 0
2,14216, Note_on_c, 0, 61, 0
2,14233, Note_on_c, 0, 73, 66
2,14288, Note_on_c, 0, 58, 0
2,14317, Note_on_c, 0, 60, 51
2,14389, Note_on_c, 0, 60, 0
2,14431, Note_on_c, 0, 61, 59
2,14442, Note_on_c, 0, 65, 58
2,14503, Note_on_c, 0, 65, 0
2,14529, Note_on_c, 0, 61, 0
2,14536, Note_on_c, 0, 58, 53
2,14634, Note_on_c, 0, 58, 0
2,14653, Note_on_c, 0, 55, 46
2,14660, Note_on_c, 0, 70, 62
2,14685, Note_on_c, 0, 73, 0
2,14761, Note_on_c, 0, 55, 0
2,14761, Note_on_c, 0, 72, 73
2,14768, Note_on_c, 0, 56, 56
2,14795, Note_on_c, 0, 70, 0
2,14836, Note_on_c, 0, 56, 0
2,14866, Note_on_c, 0, 58, 61
2,14876, Note_on_c, 0, 72, 0
2,14876, Note_on_c, 0, 73, 77
2,14949, Note_on_c, 0, 73, 0
2,14951, Note_on_c, 0, 58, 0
2,14969, Note_on_c, 0, 55, 56
2,14983, Note_on_c, 0, 70, 68
2,15075, Note_on_c, 0, 70, 0
2,15090, Note_on_c, 0, 82, 81
2,15100, Note_on_c, 0, 51, 51
2,15199, Note_on_c, 0, 55, 0
2,15201, Note_on_c, 0, 81, 47
2,15209, Note_on_c, 0, 53, 57
2,15214, Note_on_c, 0, 73, 74
2,15221, Note_on_c, 0, 51, 0
2,15281, Note_on_c, 0, 53, 0
2,15287, Note_on_c, 0, 81, 0
2,15290, Note_on_c, 0, 82, 0
2,15310, Note_on_c, 0, 55, 64
2,15312, Note_on_c, 0, 75, 70
2,15348, Note_on_c, 0, 73, 0
2,15391, Note_on_c, 0, 55, 0
2,15394, Note_on_c, 0, 70, 71
2,15397, Note_on_c, 0, 75, 0
2,15418, Note_on_c, 0, 51, 67
2,15434, Note_on_c, 0, 70, 0
2,15467, Note_on_c, 0, 51, 0
2,15497, Control_c, 0, 64, 30
2,15511, Control_c, 0, 64, 57
2,15512, Note_on_c, 0, 72, 79
2,15513, Note_on_c, 0, 44, 69
2,15527, Control_c, 0, 64, 66
2,15542, Control_c, 0, 64, 72
2,15550, Note_on_c, 0, 44, 0
2,15558, Control_c, 0, 64, 82
2,15574, Control_c, 0, 64, 93
2,15589, Control_c, 0, 64, 108
2,15603, Control_c, 0, 64, 127
2,15608, Note_on_c, 0, 80, 76
2,15667, Note_on_c, 0, 72, 0
2,15695, Control_c, 0, 64, 119
2,15710, Control_c, 0, 64, 106
2,15725, Control_c, 0, 64, 96
2,15728, Note_on_c, 0, 79, 75
2,15735, Note_on_c, 0, 56, 77
2,15740, Note_on_c, 0, 80, 0
2,15741, Control_c, 0, 64, 84
2,15763, Control_c, 0, 64, 71
2,15779, Control_c, 0, 64, 60
2,15794, Control_c, 0, 64, 42
2,15810, Control_c, 0, 64, 39
2,15833, Note_on_c, 0, 58, 76
2,15834, Note_on_c, 0, 79, 0
2,15838, Note_on_c, 0, 82, 83
2,15859, Note_on_c, 0, 56, 0
2,15870, Control_c, 0, 64, 38
2,15915, Control_c, 0, 64, 37
2,15927, Note_on_c, 0, 58, 0
2,15941, Note_on_c, 0, 60, 88
2,15948, Note_on_c, 0, 80, 79
2,15965, Note_on_c, 0, 82, 0
2,15981, Note_on_c, 0, 60, 0
2,16008, Control_c, 0, 64, 36
2,16022, Control_c, 0, 64, 36
2,16037, Control_c, 0, 64, 34
2,16053, Control_c, 0, 64, 34
2,16054, Note_on_c, 0, 75, 77
2,16054, Note_on_c, 0, 80, 0
2,16068, Control_c, 0, 64, 33
2,16083, Control_c, 0, 64, 33
2,16098, Control_c, 0, 64, 32
2,16113, Control_c, 0, 64, 32
2,16171, Note_on_c, 0, 77, 81
2,16174, Control_c, 0, 64, 31
2,16177, Note_on_c, 0, 56, 65
2,16177, Note_on_c, 0, 75, 0
2,16178, Note_on_c, 0, 68, 68
2,16222, Note_on_c, 0, 56, 0
2,16274, Note_on_c, 0, 77, 0
2,16274, Note_on_c, 0, 78, 77
2,16342, Control_c, 0, 64, 31
2,16384, Note_on_c, 0, 77, 83
2,16394, Note_on_c, 0, 61, 53
2,16415, Note_on_c, 0, 78, 0
2,16490, Note_on_c, 0, 68, 0
2,16492, Note_on_c, 0, 75, 86
2,16501, Note_on_c, 0, 77, 0
2,16502, Note_on_c, 0, 67, 62
2,16581, Note_on_c, 0, 67, 0
2,16587, Note_on_c, 0, 75, 0
2,16598, Note_on_c, 0, 73, 87
2,16608, Note_on_c, 0, 65, 59
2,16661, Note_on_c, 0, 61, 0
2,16688, Note_on_c, 0, 73, 0
2,16695, Note_on_c, 0, 75, 87
2,16703, Note_on_c, 0, 65, 0
2,16703, Note_on_c, 0, 67, 73
2,16785, Note_on_c, 0, 75, 0
2,16786, Note_on_c, 0, 67, 0
2,16812, Note_on_c, 0, 84, 86
2,16817, Note_on_c, 0, 60, 58
2,16818, Note_on_c, 0, 68, 71
2,16847, Note_on_c, 0, 84, 0
2,16870, Note_on_c, 0, 68, 0
2,16918, Note_on_c, 0, 66, 65
2,16956, Note_on_c, 0, 66, 0
2,17027, Note_on_c, 0, 65, 35
2,17027, Note_on_c, 0, 80, 86
2,17071, Note_on_c, 0, 80, 0
2,17110, Note_on_c, 0, 65, 0
2,17125, Note_on_c, 0, 63, 59
2,17195, Note_on_c, 0, 60, 0
2,17241, Note_on_c, 0, 63, 0
2,17259, Note_on_c, 0, 75, 91
2,17262, Note_on_c, 0, 65, 51
2,17265, Note_on_c, 0, 58, 53
2,17470, Note_on_c, 0, 58, 0
2,17498, Note_on_c, 0, 56, 52
2,17498, Note_on_c, 0, 73, 81
2,17505, Note_on_c, 0, 75, 0
2,17574, Control_c, 0, 64, 30
2,17598, Note_on_c, 0, 72, 80
2,17600, Note_on_c, 0, 73, 0
2,17604, Control_c, 0, 64, 30
2,17620, Control_c, 0, 64, 29
2,17634, Control_c, 0, 64, 29
2,17675, Note_on_c, 0, 56, 0
2,17696, Control_c, 0, 64, 28
2,17711, Note_on_c, 0, 73, 86
2,17712, Note_on_c, 0, 72, 0
2,17723, Note_on_c, 0, 55, 57
2,17742, Note_on_c, 0, 73, 0
2,17765, Note_on_c, 0, 65, 0
2,17786, Control_c, 0, 64, 28
2,17815, Note_on_c, 0, 63, 66
2,17913, Note_on_c, 0, 63, 0
2,17919, Note_on_c, 0, 61, 58
2,17929, Note_on_c, 0, 82, 79
2,17959, Note_on_c, 0, 55, 0
2,17988, Note_on_c, 0, 82, 0
2,17995, Note_on_c, 0, 61, 0
2,18015, Note_on_c, 0, 65, 63
2,18154, Note_on_c, 0, 56, 60
2,18158, Note_on_c, 0, 72, 79
2,18160, Note_on_c, 0, 63, 66
2,18169, Note_on_c, 0, 65, 0
2,18191, Note_on_c, 0, 72, 0
2,18253, Note_on_c, 0, 56, 0
2,18268, Note_on_c, 0, 61, 64
2,18321, Note_on_c, 0, 63, 0
2,18375, Note_on_c, 0, 61, 0
2,18375, Note_on_c, 0, 80, 71
2,18379, Note_on_c, 0, 60, 66
2,18434, Note_on_c, 0, 80, 0
2,18445, Note_on_c, 0, 60, 0
2,18464, Note_on_c, 0, 63, 66
2,18503, Note_on_c, 0, 63, 0
2,18586, Note_on_c, 0, 61, 61
2,18587, Note_on_c, 0, 51, 59
2,18598, Note_on_c, 0, 70, 70
2,18678, Note_on_c, 0, 61, 0
2,18699, Note_on_c, 0, 60, 54
2,18699, Note_on_c, 0, 70, 0
2,18804, Note_on_c, 0, 79, 59
2,18807, Note_on_c, 0, 60, 0
2,18826, Note_on_c, 0, 61, 58
2,18843, Note_on_c, 0, 79, 0
2,18931, Note_on_c, 0, 61, 0
2,18950, Note_on_c, 0, 58, 54
2,18989, Note_on_c, 0, 51, 0
2,19038, Note_on_c, 0, 60, 54
2,19044, Note_on_c, 0, 58, 0
2,19049, Note_on_c, 0, 56, 48
2,19051, Note_on_c, 0, 68, 56
2,19060, Note_on_c, 0, 60, 0
2,19113, Note_on_c, 0, 68, 0
2,19153, Note_on_c, 0, 70, 56
2,19253, Note_on_c, 0, 70, 0
2,19259, Note_on_c, 0, 63, 56
2,19270, Note_on_c, 0, 72, 59
2,19300, Note_on_c, 0, 63, 0
2,19344, Note_on_c, 0, 72, 0
2,19369, Note_on_c, 0, 73, 59
2,19443, Control_c, 0, 64, 30
2,19458, Control_c, 0, 64, 37
2,19473, Control_c, 0, 64, 44
2,19485, Note_on_c, 0, 72, 63
2,19488, Note_on_c, 0, 68, 56
2,19489, Control_c, 0, 64, 52
2,19504, Control_c, 0, 64, 60
2,19518, Control_c, 0, 64, 65
2,19523, Note_on_c, 0, 73, 0
2,19534, Control_c, 0, 64, 71
2,19549, Control_c, 0, 64, 79
2,19554, Note_on_c, 0, 56, 0
2,19564, Control_c, 0, 64, 92
2,19568, Note_on_c, 0, 68, 0
2,19580, Control_c, 0, 64, 127
2,19590, Note_on_c, 0, 72, 0
2,19607, Note_on_c, 0, 70, 70
2,19699, Note_on_c, 0, 63, 61
2,19702, Note_on_c, 0, 70, 0
2,19724, Note_on_c, 0, 68, 72
2,19795, Note_on_c, 0, 60, 64
2,19799, Note_on_c, 0, 68, 0
2,19810, Note_on_c, 0, 72, 77
2,19863, Control_c, 0, 64, 112
2,19878, Control_c, 0, 64, 93
2,19894, Control_c, 0, 64, 74
2,19909, Control_c, 0, 64, 57
2,19917, Note_on_c, 0, 72, 0
2,19922, Note_on_c, 0, 77, 83
2,19923, Control_c, 0, 64, 0
2,19925, Note_on_c, 0, 57, 57
2,19933, Note_on_c, 0, 63, 0
2,19941, Note_on_c, 0, 60, 0
2,19969, Control_c, 0, 64, 48
2,19971, Note_on_c, 0, 57, 0
2,19984, Control_c, 0, 64, 64
2,19999, Control_c, 0, 64, 72
2,20015, Control_c, 0, 64, 88
2,20018, Note_on_c, 0, 75, 89
2,20030, Control_c, 0, 64, 121
2,20042, Note_on_c, 0, 77, 0
2,20044, Control_c, 0, 64, 127
2,20105, Note_on_c, 0, 75, 0
2,20124, Note_on_c, 0, 74, 85
2,20128, Note_on_c, 0, 59, 72
2,20197, Control_c, 0, 64, 115
2,20213, Control_c, 0, 64, 109
2,20216, Note_on_c, 0, 77, 87
2,20235, Note_on_c, 0, 74, 0
2,20236, Note_on_c, 0, 56, 76
2,20242, Control_c, 0, 64, 108
2,20257, Note_on_c, 0, 59, 0
2,20258, Control_c, 0, 64, 105
2,20273, Control_c, 0, 64, 99
2,20289, Control_c, 0, 64, 90
2,20303, Control_c, 0, 64, 83
2,20318, Control_c, 0, 64, 77
2,20334, Control_c, 0, 64, 71
2,20345, Note_on_c, 0, 80, 88
2,20349, Control_c, 0, 64, 63
2,20351, Note_on_c, 0, 53, 76
2,20355, Note_on_c, 0, 77, 0
2,20372, Control_c, 0, 64, 43
2,20381, Note_on_c, 0, 56, 0
2,20387, Control_c, 0, 64, 0
2,20452, Note_on_c, 0, 78, 90
2,20478, Control_c, 0, 64, 35
2,20491, Note_on_c, 0, 80, 0
2,20494, Control_c, 0, 64, 60
2,20509, Control_c, 0, 64, 66
2,20524, Control_c, 0, 64, 72
2,20540, Control_c, 0, 64, 78
2,20555, Control_c, 0, 64, 89
2,20561, Note_on_c, 0, 56, 76
2,20561, Note_on_c, 0, 77, 89
2,20564, Note_on_c, 0, 53, 0
2,20571, Control_c, 0, 64, 110
2,20575, Note_on_c, 0, 78, 0
2,20585, Control_c, 0, 64, 127
2,20651, Note_on_c, 0, 80, 88
2,20659, Note_on_c, 0, 77, 0
2,20680, Note_on_c, 0, 53, 74
2,20699, Note_on_c, 0, 80, 0
2,20711, Note_on_c, 0, 56, 0
2,20775, Note_on_c, 0, 80, 86
2,20798, Control_c, 0, 64, 99
2,20799, Note_on_c, 0, 50, 73
2,20813, Control_c, 0, 64, 80
2,20815, Note_on_c, 0, 53, 0
2,20819, Note_on_c, 0, 82, 75
2,20828, Control_c, 0, 64, 66
2,20840, Note_on_c, 0, 83, 92
2,20843, Control_c, 0, 64, 48
2,20851, Note_on_c, 0, 80, 0
2,20853, Note_on_c, 0, 82, 0
2,20859, Control_c, 0, 64, 32
2,21032, Note_on_c, 0, 50, 0
2,21041, Note_on_c, 0, 53, 64
2,21042, Note_on_c, 0, 82, 82
2,21071, Control_c, 0, 64, 32
2,21081, Note_on_c, 0, 83, 0
2,21148, Note_on_c, 0, 80, 86
2,21160, Note_on_c, 0, 56, 77
2,21176, Note_on_c, 0, 53, 0
2,21188, Note_on_c, 0, 82, 0
2,21256, Note_on_c, 0, 78, 88
2,21260, Note_on_c, 0, 56, 0
2,21273, Note_on_c, 0, 59, 85
2,21274, Note_on_c, 0, 80, 0
2,21344, Note_on_c, 0, 78, 0
2,21351, Note_on_c, 0, 77, 82
2,21481, Note_on_c, 0, 75, 80
2,21487, Note_on_c, 0, 53, 74
2,21505, Note_on_c, 0, 77, 0
2,21552, Note_on_c, 0, 53, 0
2,21584, Note_on_c, 0, 74, 76
2,21584, Note_on_c, 0, 75, 0
2,21706, Note_on_c, 0, 54, 78
2,21706, Note_on_c, 0, 58, 78
2,21709, Note_on_c, 0, 75, 85
2,21728, Note_on_c, 0, 59, 0
2,21728, Note_on_c, 0, 74, 0
2,21815, Note_on_c, 0, 78, 76
2,21824, Note_on_c, 0, 75, 0
2,21857, Control_c, 0, 64, 32
2,21887, Control_c, 0, 64, 30
2,21902, Control_c, 0, 64, 30
2,21936, Note_on_c, 0, 59, 77
2,21936, Note_on_c, 0, 77, 81
2,21940, Note_on_c, 0, 56, 71
2,21951, Note_on_c, 0, 54, 0
2,21954, Note_on_c, 0, 58, 0
2,21967, Note_on_c, 0, 59, 0
2,21973, Note_on_c, 0, 78, 0
2,21983, Note_on_c, 0, 56, 0
2,21986, Control_c, 0, 64, 29
2,22001, Control_c, 0, 64, 29
2,22016, Control_c, 0, 64, 28
2,22031, Control_c, 0, 64, 28
2,22036, Note_on_c, 0, 75, 78
2,22047, Control_c, 0, 64, 26
2,22062, Control_c, 0, 64, 26
2,22064, Note_on_c, 0, 77, 0
2,22076, Control_c, 0, 64, 25
2,22124, Control_c, 0, 64, 24
2,22137, Note_on_c, 0, 75, 0
2,22147, Note_on_c, 0, 58, 70
2,22148, Note_on_c, 0, 74, 75
2,22153, Control_c, 0, 64, 23
2,22169, Control_c, 0, 64, 21
2,22179, Note_on_c, 0, 58, 0
2,22183, Control_c, 0, 64, 20
2,22214, Control_c, 0, 64, 19
2,22229, Control_c, 0, 64, 18
2,22242, Note_on_c, 0, 74, 0
2,22242, Note_on_c, 0, 77, 72
2,22245, Control_c, 0, 64, 17
2,22260, Control_c, 0, 64, 16
2,22290, Control_c, 0, 64, 15
2,22308, Note_on_c, 0, 77, 0
2,22351, Note_on_c, 0, 50, 52
2,22357, Note_on_c, 0, 70, 60
2,22364, Note_on_c, 0, 46, 48
2,22379, Note_on_c, 0, 50, 0
2,22381, Control_c, 0, 64, 14
2,22397, Note_on_c, 0, 46, 0
2,22426, Control_c, 0, 64, 10
2,22440, Note_on_c, 0, 70, 0
2,22442, Control_c, 0, 64, 0
2,22457, Control_c, 0, 67, 28
2,22466, Note_on_c, 0, 68, 53
2,22472, Control_c, 0, 67, 48
2,22488, Control_c, 0, 67, 69
2,22502, Control_c, 0, 67, 97
2,22517, Control_c, 0, 67, 122
2,22533, Control_c, 0, 67, 127
2,22566, Note_on_c, 0, 68, 0
2,22572, Note_on_c, 0, 66, 59
2,22573, Note_on_c, 0, 51, 47
2,22590, Note_on_c, 0, 39, 44
2,22655, Note_on_c, 0, 66, 0
2,22697, Note_on_c, 0, 65, 55
2,22795, Note_on_c, 0, 65, 0
2,22803, Note_on_c, 0, 63, 56
2,22834, Note_on_c, 0, 39, 0
2,22854, Note_on_c, 0, 51, 0
2,22884, Note_on_c, 0, 63, 0
2,22908, Note_on_c, 0, 62, 55
2,22979, Note_on_c, 0, 62, 0
2,23013, Note_on_c, 0, 63, 57
2,23062, Note_on_c, 0, 63, 0
2,23110, Note_on_c, 0, 65, 51
2,23195, Note_on_c, 0, 65, 0
2,23205, Note_on_c, 0, 51, 62
2,23219, Note_on_c, 0, 66, 52
2,23235, Note_on_c, 0, 51, 0
2,23284, Note_on_c, 0, 66, 0
2,23326, Note_on_c, 0, 68, 54
2,23404, Note_on_c, 0, 68, 0
2,23423, Note_on_c, 0, 54, 49
2,23447, Note_on_c, 0, 70, 55
2,23541, Note_on_c, 0, 54, 0
2,23542, Note_on_c, 0, 70, 0
2,23551, Note_on_c, 0, 53, 60
2,23551, Note_on_c, 0, 68, 58
2,23627, Note_on_c, 0, 53, 0
2,23648, Note_on_c, 0, 51, 65
2,23649, Note_on_c, 0, 68, 0
2,23666, Note_on_c, 0, 66, 63
2,23739, Note_on_c, 0, 51, 0
2,23756, Note_on_c, 0, 66, 0
2,23758, Note_on_c, 0, 53, 54
2,23774, Note_on_c, 0, 68, 67
2,23797, Note_on_c, 0, 53, 0
2,23843, Note_on_c, 0, 61, 65
2,23850, Note_on_c, 0, 68, 0
2,23872, Note_on_c, 0, 70, 60
2,23873, Note_on_c, 0, 61, 0
2,23970, Note_on_c, 0, 70, 0
2,23975, Note_on_c, 0, 68, 58
2,24074, Note_on_c, 0, 58, 73
2,24076, Note_on_c, 0, 68, 0
2,24086, Note_on_c, 0, 66, 65
2,24103, Note_on_c, 0, 58, 0
2,24148, Note_on_c, 0, 66, 0
2,24181, Note_on_c, 0, 65, 55
2,24305, Note_on_c, 0, 65, 0
2,24311, Note_on_c, 0, 66, 58
2,24317, Note_on_c, 0, 53, 68
2,24516, Note_on_c, 0, 53, 0
2,24527, Note_on_c, 0, 51, 62
2,24629, Note_on_c, 0, 51, 0
2,24630, Note_on_c, 0, 49, 61
2,24731, Note_on_c, 0, 49, 0
2,24741, Note_on_c, 0, 51, 74
2,24773, Note_on_c, 0, 51, 0
2,24849, Note_on_c, 0, 65, 55
2,24901, Note_on_c, 0, 66, 0
2,24953, Note_on_c, 0, 60, 65
2,24960, Note_on_c, 0, 65, 0
2,24974, Note_on_c, 0, 63, 62
2,24991, Note_on_c, 0, 60, 0
2,25088, Note_on_c, 0, 63, 0
2,25102, Note_on_c, 0, 66, 54
2,25179, Note_on_c, 0, 49, 67
2,25203, Note_on_c, 0, 65, 56
2,25214, Note_on_c, 0, 49, 0
2,25262, Note_on_c, 0, 66, 0
2,25296, Note_on_c, 0, 65, 0
2,25301, Note_on_c, 0, 63, 57
2,25391, Note_on_c, 0, 63, 0
2,25400, Note_on_c, 0, 58, 68
2,25413, Note_on_c, 0, 61, 58
2,25437, Note_on_c, 0, 58, 0
2,25489, Note_on_c, 0, 61, 0
2,25508, Note_on_c, 0, 65, 50
2,25619, Note_on_c, 0, 65, 0
2,25626, Note_on_c, 0, 48, 64
2,25632, Note_on_c, 0, 63, 57
2,25659, Note_on_c, 0, 48, 0
2,25724, Note_on_c, 0, 63, 0
2,25738, Note_on_c, 0, 61, 62
2,25833, Note_on_c, 0, 61, 0
2,25847, Note_on_c, 0, 63, 65
2,25852, Note_on_c, 0, 57, 50
2,25876, Note_on_c, 0, 57, 0
2,25905, Note_on_c, 0, 63, 0
2,25948, Note_on_c, 0, 60, 53
2,26003, Note_on_c, 0, 60, 0
2,26022, Control_c, 0, 64, 31
2,26037, Control_c, 0, 64, 51
2,26045, Note_on_c, 0, 46, 47
2,26053, Control_c, 0, 64, 61
2,26059, Note_on_c, 0, 61, 61
2,26067, Control_c, 0, 64, 65
2,26080, Note_on_c, 0, 46, 0
2,26083, Control_c, 0, 64, 68
2,26098, Control_c, 0, 64, 72
2,26113, Control_c, 0, 64, 77
2,26129, Control_c, 0, 64, 83
2,26143, Control_c, 0, 64, 87
2,26151, Note_on_c, 0, 61, 0
2,26158, Control_c, 0, 64, 88
2,26167, Note_on_c, 0, 65, 67
2,26174, Control_c, 0, 64, 87
2,26189, Control_c, 0, 64, 85
2,26206, Control_c, 0, 64, 84
2,26221, Control_c, 0, 64, 83
2,26235, Control_c, 0, 64, 82
2,26251, Control_c, 0, 64, 80
2,26266, Control_c, 0, 64, 77
2,26270, Note_on_c, 0, 58, 56
2,26281, Note_on_c, 0, 66, 60
2,26282, Control_c, 0, 64, 74
2,26290, Note_on_c, 0, 65, 0
2,26297, Control_c, 0, 64, 70
2,26311, Control_c, 0, 64, 66
2,26324, Note_on_c, 0, 66, 0
2,26327, Control_c, 0, 64, 63
2,26342, Control_c, 0, 64, 61
2,26342, Note_on_c, 0, 58, 0
2,26357, Control_c, 0, 64, 60
2,26364, Note_on_c, 0, 57, 57
2,26372, Control_c, 0, 64, 57
2,26378, Note_on_c, 0, 65, 61
2,26387, Control_c, 0, 64, 54
2,26403, Control_c, 0, 64, 46
2,26418, Control_c, 0, 64, 40
2,26433, Control_c, 0, 64, 39
2,26461, Note_on_c, 0, 65, 0
2,26480, Note_on_c, 0, 58, 56
2,26483, Note_on_c, 0, 73, 79
2,26495, Control_c, 0, 64, 37
2,26497, Note_on_c, 0, 57, 0
2,26509, Control_c, 0, 64, 35
2,26532, Control_c, 0, 64, 35
2,26547, Control_c, 0, 64, 34
2,26579, Note_on_c, 0, 58, 0
2,26600, Note_on_c, 0, 60, 60
2,26623, Control_c, 0, 64, 34
2,26677, Note_on_c, 0, 60, 0
2,26707, Note_on_c, 0, 61, 61
2,26717, Note_on_c, 0, 65, 59
2,26801, Note_on_c, 0, 65, 0
2,26805, Note_on_c, 0, 58, 58
2,26811, Note_on_c, 0, 61, 0
2,26916, Note_on_c, 0, 58, 0
2,26922, Note_on_c, 0, 70, 70
2,26925, Note_on_c, 0, 55, 56
2,26927, Control_c, 0, 67, 127
2,26942, Control_c, 0, 67, 125
2,26955, Note_on_c, 0, 73, 0
2,26957, Control_c, 0, 67, 122
2,26973, Control_c, 0, 67, 114
2,26987, Control_c, 0, 67, 106
2,27003, Control_c, 0, 67, 104
2,27020, Note_on_c, 0, 72, 78
2,27024, Note_on_c, 0, 55, 0
2,27028, Note_on_c, 0, 56, 59
2,27034, Control_c, 0, 67, 104
2,27050, Control_c, 0, 67, 103
2,27065, Control_c, 0, 67, 102
2,27072, Note_on_c, 0, 70, 0
2,27080, Control_c, 0, 67, 101
2,27091, Note_on_c, 0, 56, 0
2,27095, Control_c, 0, 67, 100
2,27110, Control_c, 0, 67, 100
2,27125, Note_on_c, 0, 58, 65
2,27126, Control_c, 0, 67, 96
2,27128, Note_on_c, 0, 72, 0
2,27128, Note_on_c, 0, 73, 81
2,27141, Control_c, 0, 67, 90
2,27155, Control_c, 0, 67, 80
2,27171, Control_c, 0, 67, 70
2,27186, Control_c, 0, 67, 63
2,27188, Note_on_c, 0, 73, 0
2,27201, Control_c, 0, 67, 59
2,27206, Note_on_c, 0, 58, 0
2,27216, Control_c, 0, 67, 59
2,27216, Note_on_c, 0, 55, 58
2,27224, Note_on_c, 0, 70, 71
2,27231, Control_c, 0, 67, 58
2,27247, Control_c, 0, 67, 57
2,27262, Control_c, 0, 67, 55
2,27277, Control_c, 0, 67, 53
2,27300, Control_c, 0, 64, 37
2,27300, Control_c, 0, 67, 52
2,27314, Note_on_c, 0, 70, 0
2,27315, Control_c, 0, 64, 44
2,27331, Control_c, 0, 64, 49
2,27343, Note_on_c, 0, 82, 83
2,27344, Note_on_c, 0, 51, 54
2,27345, Control_c, 0, 64, 55
2,27361, Control_c, 0, 64, 59
2,27376, Control_c, 0, 64, 61
2,27391, Control_c, 0, 64, 62
2,27399, Note_on_c, 0, 55, 0
2,27447, Note_on_c, 0, 73, 73
2,27452, Control_c, 0, 64, 62
2,27453, Note_on_c, 0, 82, 0
2,27454, Note_on_c, 0, 53, 59
2,27467, Control_c, 0, 64, 61
2,27483, Control_c, 0, 64, 61
2,27483, Control_c, 0, 67, 53
2,27497, Control_c, 0, 64, 60
2,27513, Control_c, 0, 64, 59
2,27513, Note_on_c, 0, 51, 0
2,27521, Note_on_c, 0, 53, 0
2,27529, Control_c, 0, 64, 58
2,27529, Control_c, 0, 67, 53
2,27543, Control_c, 0, 64, 57
2,27543, Control_c, 0, 67, 54
2,27553, Note_on_c, 0, 55, 60
2,27557, Note_on_c, 0, 73, 0
2,27557, Note_on_c, 0, 75, 72
2,27558, Control_c, 0, 64, 54
2,27558, Control_c, 0, 67, 55
2,27574, Control_c, 0, 64, 51
2,27574, Control_c, 0, 67, 57
2,27589, Control_c, 0, 64, 46
2,27589, Control_c, 0, 67, 57
2,27593, Note_on_c, 0, 75, 0
2,27605, Control_c, 0, 64, 40
2,27620, Control_c, 0, 64, 33
2,27634, Control_c, 0, 64, 29
2,27634, Control_c, 0, 67, 58
2,27634, Note_on_c, 0, 70, 67
2,27641, Note_on_c, 0, 55, 0
2,27650, Control_c, 0, 64, 27
2,27662, Note_on_c, 0, 51, 56
2,27665, Control_c, 0, 64, 26
2,27665, Control_c, 0, 67, 59
2,27707, Note_on_c, 0, 70, 0
2,27711, Control_c, 0, 64, 27
2,27711, Control_c, 0, 67, 59
2,27727, Control_c, 0, 64, 38
2,27727, Control_c, 0, 67, 60
2,27742, Control_c, 0, 64, 50
2,27742, Control_c, 0, 67, 61
2,27756, Control_c, 0, 64, 60
2,27756, Control_c, 0, 67, 62
2,27756, Note_on_c, 0, 72, 79
2,27764, Note_on_c, 0, 44, 59
2,27772, Control_c, 0, 64, 64
2,27772, Control_c, 0, 67, 63
2,27782, Note_on_c, 0, 51, 0
2,27787, Control_c, 0, 64, 66
2,27787, Control_c, 0, 67, 63
2,27798, Note_on_c, 0, 44, 0
2,27803, Control_c, 0, 64, 67
2,27818, Control_c, 0, 64, 69
2,27818, Control_c, 0, 67, 64
2,27831, Note_on_c, 0, 72, 0
2,27832, Control_c, 0, 64, 71
2,27849, Control_c, 0, 64, 71
2,27849, Control_c, 0, 67, 65
2,27864, Control_c, 0, 64, 71
2,27864, Control_c, 0, 67, 65
2,27872, Note_on_c, 0, 63, 66
2,27879, Control_c, 0, 64, 69
2,27879, Control_c, 0, 67, 66
2,27895, Control_c, 0, 64, 69
2,27910, Control_c, 0, 64, 68
2,27925, Control_c, 0, 64, 67
2,27925, Control_c, 0, 67, 67
2,27940, Control_c, 0, 64, 66
2,27940, Control_c, 0, 67, 67
2,27942, Note_on_c, 0, 63, 0
2,27955, Control_c, 0, 64, 64
2,27955, Control_c, 0, 67, 68
2,27964, Note_on_c, 0, 56, 57
2,27971, Control_c, 0, 64, 60
2,27971, Control_c, 0, 67, 69
2,27979, Note_on_c, 0, 65, 68
2,27985, Control_c, 0, 64, 54
2,27985, Control_c, 0, 67, 70
2,28001, Control_c, 0, 64, 52
2,28016, Control_c, 0, 64, 50
2,28031, Control_c, 0, 64, 48
2,28031, Control_c, 0, 67, 71
2,28054, Control_c, 0, 64, 44
2,28054, Control_c, 0, 67, 71
2,28063, Note_on_c, 0, 56, 0
2,28065, Note_on_c, 0, 65, 0
2,28069, Control_c, 0, 64, 40
2,28072, Note_on_c, 0, 63, 65
2,28085, Control_c, 0, 64, 35
2,28085, Note_on_c, 0, 55, 57
2,28100, Control_c, 0, 64, 34
2,28114, Control_c, 0, 64, 34
2,28161, Control_c, 0, 64, 33
2,28176, Control_c, 0, 64, 33
2,28191, Note_on_c, 0, 55, 0
2,28192, Note_on_c, 0, 56, 65
2,28196, Note_on_c, 0, 72, 80
2,28206, Control_c, 0, 64, 32
2,28206, Control_c, 0, 67, 71
2,28221, Control_c, 0, 64, 32
2,28222, Note_on_c, 0, 63, 0
2,28252, Control_c, 0, 64, 31
2,28286, Note_on_c, 0, 56, 0
2,28301, Note_on_c, 0, 58, 67
2,28342, Control_c, 0, 67, 70
2,28357, Control_c, 0, 64, 31
2,28371, Note_on_c, 0, 58, 0
2,28388, Control_c, 0, 64, 30
2,28406, Note_on_c, 0, 60, 54
2,28425, Note_on_c, 0, 63, 66
2,28449, Control_c, 0, 67, 69
2,28463, Control_c, 0, 64, 30
2,28519, Note_on_c, 0, 56, 56
2,28531, Note_on_c, 0, 60, 0
2,28540, Control_c, 0, 67, 69
2,28616, Control_c, 0, 64, 29
2,28631, Note_on_c, 0, 68, 70
2,28638, Note_on_c, 0, 63, 0
2,28643, Note_on_c, 0, 53, 55
2,28644, Note_on_c, 0, 56, 0
2,28673, Note_on_c, 0, 72, 0
2,28736, Note_on_c, 0, 53, 0
2,28736, Note_on_c, 0, 70, 72
2,28742, Note_on_c, 0, 55, 62
2,28804, Note_on_c, 0, 55, 0
2,28808, Note_on_c, 0, 68, 0
2,28845, Note_on_c, 0, 56, 67
2,28846, Note_on_c, 0, 72, 79
2,28865, Note_on_c, 0, 70, 0
2,28909, Note_on_c, 0, 72, 0
2,28928, Control_c, 0, 64, 28
2,28931, Note_on_c, 0, 56, 0
2,28943, Control_c, 0, 64, 26
2,28948, Note_on_c, 0, 68, 72
2,28953, Note_on_c, 0, 53, 60
2,28958, Control_c, 0, 64, 24
2,28974, Control_c, 0, 64, 24
2,29005, Control_c, 0, 64, 34
2,29020, Control_c, 0, 64, 46
2,29027, Note_on_c, 0, 68, 0
2,29034, Control_c, 0, 64, 56
2,29049, Control_c, 0, 64, 61
2,29051, Note_on_c, 0, 80, 78
2,29064, Control_c, 0, 64, 64
2,29077, Note_on_c, 0, 49, 50
2,29079, Control_c, 0, 64, 65
2,29095, Control_c, 0, 64, 65
2,29109, Control_c, 0, 64, 65
2,29113, Note_on_c, 0, 53, 0
2,29140, Control_c, 0, 64, 64
2,29150, Note_on_c, 0, 51, 62
2,29150, Note_on_c, 0, 72, 66
2,29155, Control_c, 0, 64, 64
2,29155, Control_c, 0, 67, 69
2,29155, Note_on_c, 0, 80, 0
2,29171, Control_c, 0, 64, 63
2,29171, Control_c, 0, 67, 71
2,29176, Note_on_c, 0, 49, 0
2,29186, Control_c, 0, 64, 63
2,29186, Control_c, 0, 67, 71
2,29202, Control_c, 0, 64, 62
2,29211, Note_on_c, 0, 51, 0
2,29217, Control_c, 0, 64, 60
2,29217, Control_c, 0, 67, 72
2,29231, Control_c, 0, 64, 57
2,29231, Control_c, 0, 67, 73
2,29241, Note_on_c, 0, 72, 0
2,29247, Control_c, 0, 64, 52
2,29247, Control_c, 0, 67, 73
2,29248, Note_on_c, 0, 53, 61
2,29254, Note_on_c, 0, 73, 70
2,29262, Control_c, 0, 64, 48
2,29262, Control_c, 0, 67, 75
2,29277, Control_c, 0, 64, 46
2,29277, Control_c, 0, 67, 75
2,29293, Control_c, 0, 64, 44
2,29293, Control_c, 0, 67, 76
2,29307, Control_c, 0, 64, 40
2,29307, Control_c, 0, 67, 77
2,29322, Note_on_c, 0, 73, 0
2,29323, Control_c, 0, 64, 34
2,29323, Control_c, 0, 67, 78
2,29333, Note_on_c, 0, 53, 0
2,29338, Control_c, 0, 64, 21
2,29338, Control_c, 0, 67, 80
2,29347, Note_on_c, 0, 68, 61
2,29353, Control_c, 0, 64, 0
2,29353, Control_c, 0, 67, 82
2,29353, Note_on_c, 0, 49, 48
2,29369, Control_c, 0, 67, 83
2,29384, Control_c, 0, 67, 89
2,29398, Control_c, 0, 67, 100
2,29413, Note_on_c, 0, 68, 0
2,29414, Control_c, 0, 67, 115
2,29429, Control_c, 0, 67, 127
2,29463, Note_on_c, 0, 49, 0
2,29468, Note_on_c, 0, 43, 56
2,29469, Note_on_c, 0, 70, 67
2,29475, Control_c, 0, 64, 53
2,29491, Control_c, 0, 64, 63
2,29504, Note_on_c, 0, 43, 0
2,29506, Control_c, 0, 64, 67
2,29522, Control_c, 0, 64, 68
2,29528, Note_on_c, 0, 70, 0
2,29537, Control_c, 0, 64, 69
2,29551, Control_c, 0, 64, 70
2,29574, Note_on_c, 0, 61, 55
2,29606, Control_c, 0, 64, 69
2,29628, Note_on_c, 0, 61, 0
2,29635, Control_c, 0, 64, 69
2,29651, Control_c, 0, 64, 68
2,29666, Control_c, 0, 64, 67
2,29681, Control_c, 0, 64, 65
2,29684, Note_on_c, 0, 55, 48
2,29694, Note_on_c, 0, 63, 52
2,29696, Control_c, 0, 64, 63
2,29711, Control_c, 0, 64, 56
2,29727, Control_c, 0, 64, 44
2,29741, Note_on_c, 0, 55, 0
2,29742, Control_c, 0, 64, 30
2,29755, Note_on_c, 0, 63, 0
2,29756, Control_c, 0, 64, 18
2,29772, Control_c, 0, 64, 12
2,29782, Note_on_c, 0, 53, 50
2,29787, Control_c, 0, 64, 0
2,29790, Note_on_c, 0, 61, 40
2,29888, Note_on_c, 0, 53, 0
2,29894, Note_on_c, 0, 61, 0
2,29897, Note_on_c, 0, 55, 43
2,29905, Note_on_c, 0, 70, 58
2,29962, Note_on_c, 0, 55, 0
2,29989, Note_on_c, 0, 56, 53
2,30052, Note_on_c, 0, 56, 0
2,30094, Note_on_c, 0, 58, 50
2,30125, Note_on_c, 0, 61, 50
2,30173, Note_on_c, 0, 58, 0
2,30226, Note_on_c, 0, 61, 0
2,30234, Note_on_c, 0, 55, 37
2,30288, Note_on_c, 0, 70, 0
2,30303, Note_on_c, 0, 55, 0
2,30310, Note_on_c, 0, 67, 48
2,30326, Note_on_c, 0, 52, 45
2,30418, Note_on_c, 0, 67, 0
2,30429, Note_on_c, 0, 52, 0
2,30429, Note_on_c, 0, 68, 54
2,30450, Note_on_c, 0, 53, 39
2,30503, Note_on_c, 0, 53, 0
2,30537, Note_on_c, 0, 68, 0
2,30542, Note_on_c, 0, 55, 53
2,30542, Note_on_c, 0, 70, 58
2,30606, Note_on_c, 0, 70, 0
2,30631, Note_on_c, 0, 55, 0
2,30648, Note_on_c, 0, 67, 52
2,30650, Note_on_c, 0, 52, 50
2,30707, Control_c, 0, 64, 21
2,30723, Control_c, 0, 64, 36
2,30723, Note_on_c, 0, 67, 0
2,30738, Control_c, 0, 64, 50
2,30748, Note_on_c, 0, 79, 73
2,30753, Control_c, 0, 64, 59
2,30759, Note_on_c, 0, 48, 49
2,30769, Control_c, 0, 64, 63
2,30784, Control_c, 0, 64, 66
2,30789, Note_on_c, 0, 52, 0
2,30798, Control_c, 0, 64, 69
2,30812, Note_on_c, 0, 79, 0
2,30814, Control_c, 0, 64, 72
2,30829, Control_c, 0, 64, 77
2,30844, Control_c, 0, 64, 81
2,30859, Control_c, 0, 64, 85
2,30861, Note_on_c, 0, 48, 0
2,30866, Note_on_c, 0, 50, 59
2,30866, Note_on_c, 0, 70, 61
2,30874, Control_c, 0, 64, 87
2,30938, Note_on_c, 0, 50, 0
2,30950, Control_c, 0, 64, 87
2,30962, Note_on_c, 0, 52, 68
2,30962, Note_on_c, 0, 72, 67
2,30966, Control_c, 0, 64, 86
2,30980, Note_on_c, 0, 70, 0
2,30981, Control_c, 0, 64, 86
2,31034, Note_on_c, 0, 72, 0
2,31042, Note_on_c, 0, 67, 61
2,31052, Note_on_c, 0, 52, 0
2,31062, Note_on_c, 0, 48, 67
2,31077, Note_on_c, 0, 67, 0
2,31117, Control_c, 0, 64, 85
2,31142, Control_c, 0, 64, 83
2,31156, Control_c, 0, 64, 79
2,31166, Note_on_c, 0, 41, 62
2,31170, Note_on_c, 0, 48, 0
2,31172, Control_c, 0, 64, 73
2,31174, Note_on_c, 0, 68, 78
2,31187, Control_c, 0, 64, 65
2,31203, Control_c, 0, 64, 50
2,31218, Control_c, 0, 64, 36
2,31262, Note_on_c, 0, 43, 57
2,31278, Control_c, 0, 64, 36
2,31286, Note_on_c, 0, 76, 61
2,31292, Note_on_c, 0, 41, 0
2,31293, Control_c, 0, 64, 35
2,31294, Note_on_c, 0, 77, 59
2,31349, Note_on_c, 0, 77, 0
2,31365, Note_on_c, 0, 44, 60
2,31372, Note_on_c, 0, 43, 0
2,31372, Note_on_c, 0, 76, 0
2,31385, Control_c, 0, 64, 35
2,31448, Note_on_c, 0, 68, 0
2,31469, Note_on_c, 0, 46, 68
2,31471, Note_on_c, 0, 44, 0
2,31479, Note_on_c, 0, 73, 78
2,31573, Note_on_c, 0, 46, 0
2,31589, Note_on_c, 0, 48, 69
2,31591, Note_on_c, 0, 73, 0
2,31596, Note_on_c, 0, 70, 80
2,31658, Control_c, 0, 64, 34
2,31686, Note_on_c, 0, 48, 0
2,31696, Note_on_c, 0, 50, 69
2,31791, Note_on_c, 0, 50, 0
2,31808, Note_on_c, 0, 52, 68
2,31810, Note_on_c, 0, 60, 75
2,31834, Note_on_c, 0, 60, 0
2,31842, Control_c, 0, 67, 120
2,31856, Control_c, 0, 67, 106
2,31871, Control_c, 0, 67, 92
2,31881, Note_on_c, 0, 52, 0
2,31887, Control_c, 0, 67, 77
2,31906, Note_on_c, 0, 48, 61
2,31909, Control_c, 0, 67, 55
2,31925, Control_c, 0, 67, 30
2,31940, Control_c, 0, 67, 13
2,31955, Control_c, 0, 67, 0
2,32009, Note_on_c, 0, 48, 0
2,32035, Note_on_c, 0, 61, 75
2,32065, Note_on_c, 0, 53, 54
2,32075, Note_on_c, 0, 70, 0
2,32142, Note_on_c, 0, 60, 78
2,32145, Note_on_c, 0, 61, 0
2,32163, Note_on_c, 0, 51, 66
2,32169, Note_on_c, 0, 53, 0
2,32251, Note_on_c, 0, 51, 0
2,32255, Note_on_c, 0, 58, 89
2,32255, Note_on_c, 0, 60, 0
2,32264, Note_on_c, 0, 49, 66
2,32357, Note_on_c, 0, 60, 85
2,32358, Note_on_c, 0, 51, 72
2,32363, Note_on_c, 0, 49, 0
2,32367, Note_on_c, 0, 58, 0
2,32442, Note_on_c, 0, 51, 0
2,32459, Note_on_c, 0, 53, 69
2,32468, Note_on_c, 0, 68, 89
2,32493, Note_on_c, 0, 60, 0
2,32559, Note_on_c, 0, 51, 75
2,32578, Note_on_c, 0, 53, 0
2,32679, Note_on_c, 0, 51, 0
2,32685, Note_on_c, 0, 49, 68
2,32701, Note_on_c, 0, 65, 77
2,32741, Note_on_c, 0, 65, 0
2,32778, Note_on_c, 0, 49, 0
2,32788, Note_on_c, 0, 48, 66
2,32868, Note_on_c, 0, 48, 0
2,32891, Control_c, 0, 64, 23
2,32906, Control_c, 0, 64, 0
2,32911, Note_on_c, 0, 49, 75
2,32921, Note_on_c, 0, 60, 87
2,32981, Control_c, 0, 64, 28
2,32996, Control_c, 0, 64, 58
2,33007, Note_on_c, 0, 68, 0
2,33012, Control_c, 0, 64, 69
2,33027, Control_c, 0, 64, 78
2,33043, Control_c, 0, 64, 90
2,33051, Note_on_c, 0, 60, 0
2,33057, Control_c, 0, 64, 97
2,33072, Control_c, 0, 64, 98
2,33088, Control_c, 0, 64, 96
2,33101, Control_c, 0, 64, 92
2,33116, Control_c, 0, 64, 89
2,33131, Control_c, 0, 64, 85
2,33146, Control_c, 0, 64, 82
2,33155, Note_on_c, 0, 58, 78
2,33161, Control_c, 0, 64, 78
2,33176, Control_c, 0, 64, 75
2,33191, Control_c, 0, 64, 69
2,33206, Control_c, 0, 64, 64
2,33222, Control_c, 0, 64, 59
2,33230, Note_on_c, 0, 58, 0
2,33237, Control_c, 0, 64, 57
2,33239, Note_on_c, 0, 56, 78
2,33252, Control_c, 0, 64, 56
2,33267, Control_c, 0, 64, 55
2,33282, Control_c, 0, 64, 50
2,33284, Note_on_c, 0, 56, 0
2,33298, Control_c, 0, 64, 42
2,33313, Control_c, 0, 64, 38
2,33329, Control_c, 0, 64, 37
2,33344, Control_c, 0, 64, 36
2,33359, Control_c, 0, 64, 35
2,33363, Note_on_c, 0, 67, 83
2,33374, Control_c, 0, 64, 34
2,33386, Note_on_c, 0, 59, 66
2,33389, Control_c, 0, 64, 33
2,33397, Note_on_c, 0, 58, 19
2,33404, Control_c, 0, 64, 32
2,33417, Note_on_c, 0, 59, 0
2,33420, Note_on_c, 0, 67, 0
2,33442, Control_c, 0, 64, 31
2,33446, Note_on_c, 0, 58, 0
2,33464, Note_on_c, 0, 48, 54
2,33472, Control_c, 0, 64, 31
2,33477, Note_on_c, 0, 49, 0
2,33518, Control_c, 0, 64, 30
2,33562, Note_on_c, 0, 48, 0
2,33563, Note_on_c, 0, 46, 57
2,33592, Note_on_c, 0, 67, 85
2,33610, Control_c, 0, 64, 30
2,33655, Note_on_c, 0, 46, 0
2,33658, Note_on_c, 0, 49, 59
2,33751, Note_on_c, 0, 49, 0
2,33801, Note_on_c, 0, 56, 82
2,33802, Note_on_c, 0, 48, 66
2,33843, Note_on_c, 0, 56, 0
2,33914, Control_c, 0, 64, 29
2,33915, Note_on_c, 0, 46, 59
2,33915, Note_on_c, 0, 48, 0
2,33952, Note_on_c, 0, 67, 0
2,34016, Note_on_c, 0, 65, 73
2,34022, Note_on_c, 0, 46, 0
2,34028, Note_on_c, 0, 44, 59
2,34053, Note_on_c, 0, 65, 0
2,34095, Note_on_c, 0, 44, 0
2,34105, Note_on_c, 0, 48, 65
2,34228, Note_on_c, 0, 46, 62
2,34230, Note_on_c, 0, 48, 0
2,34230, Note_on_c, 0, 64, 68
2,34235, Note_on_c, 0, 55, 58
2,34259, Note_on_c, 0, 55, 0
2,34282, Note_on_c, 0, 64, 0
2,34310, Note_on_c, 0, 46, 0
2,34338, Note_on_c, 0, 44, 59
2,34398, Note_on_c, 0, 44, 0
2,34420, Note_on_c, 0, 46, 57
2,34453, Note_on_c, 0, 64, 56
2,34453, Note_on_c, 0, 67, 55
2,34475, Note_on_c, 0, 64, 0
2,34485, Note_on_c, 0, 67, 0
2,34520, Note_on_c, 0, 43, 49
2,34524, Note_on_c, 0, 46, 0
2,34591, Note_on_c, 0, 43, 0
2,34622, Control_c, 0, 64, 29
2,34629, Note_on_c, 0, 53, 45
2,34637, Control_c, 0, 64, 28
2,34639, Note_on_c, 0, 44, 38
2,34653, Control_c, 0, 64, 26
2,34664, Note_on_c, 0, 72, 59
2,34667, Control_c, 0, 64, 24
2,34676, Note_on_c, 0, 44, 0
2,34682, Control_c, 0, 64, 24
2,34698, Control_c, 0, 64, 23
2,34729, Control_c, 0, 64, 21
2,34743, Control_c, 0, 64, 17
2,34758, Control_c, 0, 64, 14
2,34765, Note_on_c, 0, 72, 0
2,34769, Note_on_c, 0, 70, 58
2,34774, Control_c, 0, 64, 12
2,34788, Control_c, 0, 64, 10
2,34864, Control_c, 0, 64, 8
2,34869, Note_on_c, 0, 70, 0
2,34878, Note_on_c, 0, 49, 48
2,34883, Note_on_c, 0, 68, 66
2,34910, Control_c, 0, 64, 0
2,34921, Note_on_c, 0, 49, 0
2,34981, Note_on_c, 0, 68, 0
2,34986, Note_on_c, 0, 72, 63
2,35071, Note_on_c, 0, 53, 0
2,35100, Note_on_c, 0, 43, 66
2,35100, Note_on_c, 0, 70, 67
2,35133, Note_on_c, 0, 72, 0
2,35142, Note_on_c, 0, 43, 0
2,35201, Note_on_c, 0, 68, 72
2,35203, Note_on_c, 0, 70, 0
2,35307, Note_on_c, 0, 68, 0
2,35314, Note_on_c, 0, 67, 77
2,35318, Note_on_c, 0, 52, 68
2,35324, Note_on_c, 0, 48, 61
2,35348, Note_on_c, 0, 52, 0
2,35355, Note_on_c, 0, 48, 0
2,35423, Note_on_c, 0, 70, 70
2,35438, Note_on_c, 0, 67, 0
2,35539, Note_on_c, 0, 53, 88
2,35540, Note_on_c, 0, 70, 0
2,35542, Note_on_c, 0, 68, 81
2,35545, Note_on_c, 0, 41, 74
2,35570, Note_on_c, 0, 53, 0
2,35586, Note_on_c, 0, 41, 0
2,35638, Note_on_c, 0, 65, 74
2,35638, Note_on_c, 0, 68, 0
2,35755, Note_on_c, 0, 65, 0
2,35769, Note_on_c, 0, 52, 88
2,35773, Note_on_c, 0, 73, 79
2,35777, Note_on_c, 0, 46, 77
2,35808, Note_on_c, 0, 52, 0
2,35827, Note_on_c, 0, 46, 0
2,35863, Note_on_c, 0, 70, 78
2,35872, Note_on_c, 0, 73, 0
2,35981, Note_on_c, 0, 70, 0
2,35982, Note_on_c, 0, 72, 87
2,35991, Note_on_c, 0, 55, 80
2,35992, Note_on_c, 0, 46, 75
2,35994, Note_on_c, 0, 53, 74
2,36017, Note_on_c, 0, 44, 43
2,36018, Note_on_c, 0, 44, 0
2,36022, Note_on_c, 0, 55, 0
2,36029, Note_on_c, 0, 46, 0
2,36031, Note_on_c, 0, 53, 0
2,36057, Note_on_c, 0, 72, 0
2,36075, Note_on_c, 0, 68, 82
2,36118, Note_on_c, 0, 68, 0
2,36185, Note_on_c, 0, 58, 84
2,36187, Note_on_c, 0, 78, 81
2,36206, Note_on_c, 0, 49, 49
2,36229, Note_on_c, 0, 78, 0
2,36239, Note_on_c, 0, 49, 0
2,36248, Note_on_c, 0, 58, 0
2,36294, Note_on_c, 0, 76, 80
2,36348, Note_on_c, 0, 76, 0
2,36403, Note_on_c, 0, 56, 68
2,36404, Note_on_c, 0, 76, 82
2,36426, Note_on_c, 0, 48, 52
2,36508, Note_on_c, 0, 77, 88
2,36528, Note_on_c, 0, 76, 0
2,36618, Note_on_c, 0, 56, 0
2,36620, Note_on_c, 0, 55, 67
2,36627, Note_on_c, 0, 83, 90
2,36638, Note_on_c, 0, 77, 0
2,36710, Note_on_c, 0, 55, 0
2,36724, Note_on_c, 0, 84, 83
2,36725, Note_on_c, 0, 53, 67
2,36729, Note_on_c, 0, 83, 0
2,36829, Note_on_c, 0, 84, 0
2,36831, Note_on_c, 0, 53, 0
2,36841, Note_on_c, 0, 77, 84
2,36843, Note_on_c, 0, 55, 73
2,36890, Note_on_c, 0, 76, 77
2,36891, Note_on_c, 0, 77, 0
2,36897, Note_on_c, 0, 55, 0
2,36941, Note_on_c, 0, 77, 78
2,36945, Note_on_c, 0, 76, 0
2,37010, Note_on_c, 0, 76, 83
2,37021, Note_on_c, 0, 77, 0
2,37076, Note_on_c, 0, 58, 74
2,37099, Note_on_c, 0, 48, 0
2,37122, Note_on_c, 0, 58, 0
2,37156, Note_on_c, 0, 77, 91
2,37181, Note_on_c, 0, 76, 0
2,37205, Note_on_c, 0, 77, 0
2,37303, Note_on_c, 0, 53, 41
2,37309, Note_on_c, 0, 56, 46
2,37315, Note_on_c, 0, 77, 91
2,37431, Note_on_c, 0, 58, 71
2,37441, Note_on_c, 0, 56, 0
2,37513, Note_on_c, 0, 58, 0
2,37534, Note_on_c, 0, 60, 64
2,37633, Note_on_c, 0, 53, 0
2,37638, Note_on_c, 0, 60, 0
2,37639, Note_on_c, 0, 56, 65
2,37734, Note_on_c, 0, 77, 0
2,37747, Note_on_c, 0, 56, 0
2,37761, Note_on_c, 0, 53, 66
2,37841, Note_on_c, 0, 53, 0
2,37845, Note_on_c, 0, 54, 61
2,37889, Note_on_c, 0, 54, 0
2,37921, Note_on_c, 0, 56, 53
2,37959, Note_on_c, 0, 77, 82
2,37983, Note_on_c, 0, 77, 0
2,37997, Note_on_c, 0, 56, 0
2,38029, Note_on_c, 0, 53, 57
2,38147, Note_on_c, 0, 53, 0
2,38175, Note_on_c, 0, 50, 44
2,38178, Note_on_c, 0, 71, 69
2,38276, Note_on_c, 0, 51, 55
2,38283, Note_on_c, 0, 71, 0
2,38288, Note_on_c, 0, 70, 79
2,38291, Note_on_c, 0, 50, 0
2,38370, Note_on_c, 0, 51, 0
2,38383, Note_on_c, 0, 70, 0
2,38392, Note_on_c, 0, 68, 83
2,38393, Note_on_c, 0, 53, 54
2,38474, Note_on_c, 0, 53, 0
2,38475, Note_on_c, 0, 68, 0
2,38480, Note_on_c, 0, 70, 84
2,38485, Note_on_c, 0, 50, 58
2,38576, Note_on_c, 0, 50, 0
2,38589, Note_on_c, 0, 70, 0
2,38590, Note_on_c, 0, 77, 87
2,38608, Note_on_c, 0, 46, 56
2,38625, Note_on_c, 0, 77, 0
2,38695, Note_on_c, 0, 46, 0
2,38700, Note_on_c, 0, 50, 56
2,38792, Note_on_c, 0, 50, 0
2,38817, Note_on_c, 0, 53, 58
2,38821, Note_on_c, 0, 74, 84
2,38850, Note_on_c, 0, 74, 0
2,38865, Note_on_c, 0, 53, 0
2,38900, Note_on_c, 0, 58, 60
2,39032, Note_on_c, 0, 68, 84
2,39046, Note_on_c, 0, 51, 54
2,39067, Note_on_c, 0, 58, 0
2,39152, Note_on_c, 0, 54, 60
2,39155, Note_on_c, 0, 51, 0
2,39242, Note_on_c, 0, 66, 81
2,39249, Note_on_c, 0, 54, 0
2,39251, Note_on_c, 0, 68, 0
2,39257, Note_on_c, 0, 58, 62
2,39311, Note_on_c, 0, 58, 0
2,39342, Note_on_c, 0, 66, 0
2,39348, Note_on_c, 0, 65, 80
2,39350, Note_on_c, 0, 62, 56
2,39450, Note_on_c, 0, 65, 0
2,39453, Note_on_c, 0, 62, 0
2,39462, Note_on_c, 0, 66, 83
2,39480, Note_on_c, 0, 63, 61
2,39489, Note_on_c, 0, 66, 0
2,39550, Note_on_c, 0, 63, 0
2,39581, Note_on_c, 0, 65, 65
2,39650, Note_on_c, 0, 65, 0
2,39678, Note_on_c, 0, 66, 59
2,39695, Note_on_c, 0, 75, 62
2,39735, Note_on_c, 0, 75, 0
2,39764, Note_on_c, 0, 66, 0
2,39790, Note_on_c, 0, 63, 53
2,39876, Note_on_c, 0, 63, 0
2,39906, Note_on_c, 0, 69, 56
2,39913, Note_on_c, 0, 60, 52
2,39995, Note_on_c, 0, 69, 0
2,39996, Note_on_c, 0, 60, 0
2,40016, Note_on_c, 0, 61, 52
2,40016, Note_on_c, 0, 68, 65
2,40100, Note_on_c, 0, 61, 0
2,40103, Note_on_c, 0, 68, 0
2,40128, Note_on_c, 0, 63, 53
2,40129, Note_on_c, 0, 66, 61
2,40204, Note_on_c, 0, 63, 0
2,40224, Note_on_c, 0, 60, 51
2,40225, Note_on_c, 0, 68, 73
2,40231, Note_on_c, 0, 66, 0
2,40254, Note_on_c, 0, 60, 0
2,40330, Note_on_c, 0, 68, 0
2,40335, Note_on_c, 0, 75, 72
2,40370, Note_on_c, 0, 56, 56
2,40387, Note_on_c, 0, 75, 0
2,40461, Note_on_c, 0, 44, 53
2,40553, Note_on_c, 0, 44, 0
2,40560, Note_on_c, 0, 46, 48
2,40575, Note_on_c, 0, 72, 68
2,40637, Note_on_c, 0, 72, 0
2,40641, Note_on_c, 0, 48, 59
2,40667, Note_on_c, 0, 46, 0
2,40685, Note_on_c, 0, 48, 0
2,40686, Note_on_c, 0, 56, 0
2,40686, Note_on_c, 0, 56, 6
2,40759, Note_on_c, 0, 56, 0
2,40784, Note_on_c, 0, 66, 65
2,40787, Note_on_c, 0, 49, 53
2,40794, Control_c, 0, 64, 35
2,40810, Control_c, 0, 64, 49
2,40825, Control_c, 0, 64, 59
2,40840, Control_c, 0, 64, 64
2,40856, Control_c, 0, 64, 67
2,40871, Control_c, 0, 64, 70
2,40886, Control_c, 0, 64, 74
2,40895, Note_on_c, 0, 56, 61
2,40901, Control_c, 0, 64, 80
2,40916, Control_c, 0, 64, 87
2,40922, Note_on_c, 0, 49, 0
2,40932, Control_c, 0, 64, 93
2,40947, Control_c, 0, 64, 95
2,40962, Control_c, 0, 64, 95
2,40969, Note_on_c, 0, 66, 0
2,40978, Control_c, 0, 64, 94
2,40993, Control_c, 0, 64, 93
2,40993, Note_on_c, 0, 65, 65
2,40995, Note_on_c, 0, 56, 0
2,41005, Note_on_c, 0, 58, 61
2,41024, Control_c, 0, 64, 93
2,41039, Control_c, 0, 64, 92
2,41054, Control_c, 0, 64, 91
2,41069, Control_c, 0, 64, 91
2,41079, Note_on_c, 0, 58, 0
2,41084, Control_c, 0, 64, 90
2,41097, Note_on_c, 0, 65, 0
2,41100, Control_c, 0, 64, 90
2,41115, Note_on_c, 0, 63, 69
2,41122, Control_c, 0, 64, 89
2,41134, Note_on_c, 0, 60, 53
2,41137, Control_c, 0, 64, 88
2,41152, Control_c, 0, 64, 87
2,41168, Control_c, 0, 64, 86
2,41183, Control_c, 0, 64, 85
2,41185, Note_on_c, 0, 63, 0
2,41197, Note_on_c, 0, 60, 0
2,41198, Control_c, 0, 64, 84
2,41214, Control_c, 0, 64, 83
2,41217, Note_on_c, 0, 61, 52
2,41220, Note_on_c, 0, 65, 74
2,41229, Control_c, 0, 64, 82
2,41242, Note_on_c, 0, 61, 0
2,41243, Control_c, 0, 64, 81
2,41259, Control_c, 0, 64, 79
2,41274, Control_c, 0, 64, 76
2,41290, Control_c, 0, 64, 73
2,41305, Control_c, 0, 64, 70
2,41320, Control_c, 0, 64, 68
2,41323, Note_on_c, 0, 51, 57
2,41325, Note_on_c, 0, 68, 71
2,41326, Note_on_c, 0, 65, 0
2,41336, Control_c, 0, 64, 67
2,41350, Control_c, 0, 64, 66
2,41365, Control_c, 0, 64, 63
2,41381, Control_c, 0, 64, 60
2,41395, Control_c, 0, 64, 54
2,41411, Control_c, 0, 64, 46
2,41417, Note_on_c, 0, 53, 56
2,41426, Control_c, 0, 64, 40
2,41427, Note_on_c, 0, 73, 79
2,41431, Note_on_c, 0, 51, 0
2,41437, Note_on_c, 0, 68, 0
2,41441, Control_c, 0, 64, 38
2,41457, Control_c, 0, 64, 36
2,41471, Control_c, 0, 64, 34
2,41486, Control_c, 0, 64, 33
2,41502, Control_c, 0, 64, 31
2,41507, Note_on_c, 0, 53, 0
2,41519, Note_on_c, 0, 55, 68
2,41533, Control_c, 0, 64, 31
2,41535, Note_on_c, 0, 75, 82
2,41538, Note_on_c, 0, 73, 0
2,41592, Control_c, 0, 64, 30
2,41617, Note_on_c, 0, 55, 0
2,41635, Note_on_c, 0, 77, 86
2,41636, Note_on_c, 0, 75, 0
2,41638, Note_on_c, 0, 56, 73
2,41700, Control_c, 0, 64, 30
2,41740, Note_on_c, 0, 56, 0
2,41741, Note_on_c, 0, 75, 89
2,41747, Note_on_c, 0, 55, 63
2,41748, Note_on_c, 0, 77, 0
2,41835, Note_on_c, 0, 75, 0
2,41843, Note_on_c, 0, 55, 0
2,41850, Note_on_c, 0, 73, 84
2,41854, Note_on_c, 0, 53, 51
2,41916, Note_on_c, 0, 73, 0
2,41922, Note_on_c, 0, 53, 0
2,41952, Note_on_c, 0, 75, 81
2,41958, Note_on_c, 0, 55, 61
2,41984, Note_on_c, 0, 75, 0
2,42009, Note_on_c, 0, 55, 0
2,42053, Note_on_c, 0, 56, 69
2,42058, Note_on_c, 0, 84, 91
2,42061, Note_on_c, 0, 72, 80
2,42124, Note_on_c, 0, 56, 0
2,42129, Note_on_c, 0, 84, 0
2,42160, Note_on_c, 0, 55, 62
2,42255, Note_on_c, 0, 72, 0
2,42278, Note_on_c, 0, 80, 86
2,42279, Note_on_c, 0, 55, 0
2,42281, Note_on_c, 0, 53, 69
2,42302, Note_on_c, 0, 72, 37
2,42326, Note_on_c, 0, 80, 0
2,42378, Note_on_c, 0, 53, 0
2,42384, Note_on_c, 0, 51, 69
2,42499, Note_on_c, 0, 51, 0
2,42511, Note_on_c, 0, 53, 72
2,42512, Note_on_c, 0, 75, 88
2,42540, Note_on_c, 0, 76, 80
2,42601, Note_on_c, 0, 72, 0
2,42682, Note_on_c, 0, 76, 0
2,42683, Note_on_c, 0, 75, 0
2,42745, Note_on_c, 0, 73, 78
2,42853, Note_on_c, 0, 73, 0
2,42855, Note_on_c, 0, 72, 84
2,42885, Control_c, 0, 64, 29
2,42947, Control_c, 0, 64, 29
2,42968, Note_on_c, 0, 73, 88
2,42969, Note_on_c, 0, 72, 0
2,42978, Control_c, 0, 64, 28
2,42978, Note_on_c, 0, 70, 69
2,42992, Control_c, 0, 64, 28
2,43008, Control_c, 0, 64, 27
2,43023, Control_c, 0, 64, 26
2,43025, Note_on_c, 0, 73, 0
2,43038, Control_c, 0, 64, 26
2,43065, Note_on_c, 0, 53, 0
2,43070, Note_on_c, 0, 51, 65
2,43179, Note_on_c, 0, 49, 49
2,43190, Control_c, 0, 64, 25
2,43191, Note_on_c, 0, 82, 87
2,43198, Note_on_c, 0, 51, 0
2,43222, Note_on_c, 0, 82, 0
2,43240, Note_on_c, 0, 49, 0
2,43272, Note_on_c, 0, 53, 58
2,43315, Note_on_c, 0, 70, 0
2,43374, Note_on_c, 0, 53, 0
2,43393, Note_on_c, 0, 51, 65
2,43400, Note_on_c, 0, 72, 87
2,43445, Note_on_c, 0, 72, 0
2,43518, Note_on_c, 0, 51, 0
2,43525, Note_on_c, 0, 49, 53
2,43604, Note_on_c, 0, 49, 0
2,43623, Note_on_c, 0, 48, 56
2,43623, Note_on_c, 0, 68, 80
2,43624, Note_on_c, 0, 80, 80
2,43643, Note_on_c, 0, 68, 0
2,43649, Note_on_c, 0, 80, 0
2,43669, Control_c, 0, 64, 24
2,43678, Note_on_c, 0, 48, 0
2,43705, Note_on_c, 0, 51, 57
2,43830, Note_on_c, 0, 51, 0
2,43830, Note_on_c, 0, 70, 76
2,43833, Note_on_c, 0, 49, 55
2,43840, Note_on_c, 0, 67, 58
2,43860, Note_on_c, 0, 67, 0
2,43892, Note_on_c, 0, 70, 0
2,43928, Note_on_c, 0, 49, 0
2,43935, Note_on_c, 0, 48, 52
2,44023, Note_on_c, 0, 48, 0
2,44049, Note_on_c, 0, 46, 56
2,44052, Note_on_c, 0, 70, 74
2,44053, Note_on_c, 0, 79, 61
2,44078, Note_on_c, 0, 79, 0
2,44088, Note_on_c, 0, 70, 0
2,44145, Note_on_c, 0, 49, 51
2,44172, Note_on_c, 0, 46, 0
2,44223, Note_on_c, 0, 49, 0
2,44272, Note_on_c, 0, 63, 63
2,44273, Note_on_c, 0, 48, 54
2,44277, Note_on_c, 0, 68, 66
2,44303, Note_on_c, 0, 63, 0
2,44314, Note_on_c, 0, 48, 0
2,44373, Note_on_c, 0, 63, 60
2,44432, Note_on_c, 0, 68, 0
2,44474, Note_on_c, 0, 63, 0
2,44495, Note_on_c, 0, 51, 72
2,44501, Note_on_c, 0, 65, 70
2,44522, Note_on_c, 0, 51, 0
2,44526, Control_c, 0, 64, 24
2,44589, Note_on_c, 0, 65, 0
2,44591, Note_on_c, 0, 67, 63
2,44709, Note_on_c, 0, 68, 68
2,44715, Note_on_c, 0, 54, 68
2,44724, Control_c, 0, 64, 24
2,44738, Note_on_c, 0, 67, 0
2,44815, Note_on_c, 0, 68, 0
2,44818, Note_on_c, 0, 70, 69
2,44914, Note_on_c, 0, 70, 0
2,44928, Note_on_c, 0, 72, 66
2,44935, Note_on_c, 0, 56, 69
2,44999, Note_on_c, 0, 56, 0
2,45019, Note_on_c, 0, 72, 0
2,45037, Note_on_c, 0, 68, 60
2,45173, Note_on_c, 0, 73, 66
2,45179, Note_on_c, 0, 58, 65
2,45183, Note_on_c, 0, 68, 0
2,45201, Note_on_c, 0, 54, 0
2,45271, Note_on_c, 0, 72, 71
2,45283, Note_on_c, 0, 56, 73
2,45317, Note_on_c, 0, 73, 0
2,45319, Note_on_c, 0, 58, 0
2,45384, Note_on_c, 0, 56, 0
2,45387, Note_on_c, 0, 70, 82
2,45391, Note_on_c, 0, 72, 0
2,45393, Note_on_c, 0, 54, 74
2,45485, Note_on_c, 0, 56, 74
2,45491, Note_on_c, 0, 72, 81
2,45501, Note_on_c, 0, 54, 0
2,45515, Note_on_c, 0, 70, 0
2,45564, Note_on_c, 0, 56, 0
2,45593, Note_on_c, 0, 72, 0
2,45595, Note_on_c, 0, 65, 78
2,45598, Note_on_c, 0, 73, 81
2,45607, Note_on_c, 0, 53, 58
2,45613, Control_c, 0, 64, 24
2,45660, Control_c, 0, 64, 24
2,45673, Note_on_c, 0, 65, 0
2,45674, Control_c, 0, 64, 24
2,45701, Note_on_c, 0, 72, 76
2,45779, Note_on_c, 0, 73, 0
2,45818, Note_on_c, 0, 70, 79
2,45819, Note_on_c, 0, 61, 82
2,45819, Note_on_c, 0, 72, 0
2,45877, Note_on_c, 0, 61, 0
2,45901, Note_on_c, 0, 70, 0
2,45910, Note_on_c, 0, 68, 76
2,46039, Note_on_c, 0, 70, 73
2,46047, Control_c, 0, 64, 23
2,46048, Note_on_c, 0, 56, 77
2,46063, Note_on_c, 0, 68, 0
2,46098, Note_on_c, 0, 53, 0
2,46154, Control_c, 0, 64, 22
2,46260, Control_c, 0, 64, 21
2,46280, Note_on_c, 0, 54, 68
2,46312, Note_on_c, 0, 56, 0
2,46370, Note_on_c, 0, 53, 68
2,46390, Note_on_c, 0, 54, 0
2,46411, Control_c, 0, 64, 20
2,46442, Control_c, 0, 64, 21
2,46458, Control_c, 0, 64, 20
2,46492, Note_on_c, 0, 51, 65
2,46492, Note_on_c, 0, 54, 80
2,46504, Note_on_c, 0, 53, 0
2,46555, Note_on_c, 0, 54, 0
2,46583, Note_on_c, 0, 68, 65
2,46597, Note_on_c, 0, 70, 0
2,46716, Note_on_c, 0, 63, 73
2,46723, Note_on_c, 0, 66, 62
2,46737, Note_on_c, 0, 68, 0
2,46756, Note_on_c, 0, 63, 0
2,46809, Note_on_c, 0, 70, 59
2,46815, Note_on_c, 0, 66, 0
2,46929, Note_on_c, 0, 51, 0
2,46932, Note_on_c, 0, 53, 77
2,46938, Note_on_c, 0, 68, 68
2,46939, Note_on_c, 0, 70, 0
2,46979, Note_on_c, 0, 53, 0
2,47029, Note_on_c, 0, 68, 0
2,47032, Note_on_c, 0, 66, 65
2,47116, Note_on_c, 0, 66, 0
2,47148, Note_on_c, 0, 65, 64
2,47156, Note_on_c, 0, 61, 60
2,47159, Note_on_c, 0, 49, 53
2,47182, Note_on_c, 0, 61, 0
2,47195, Note_on_c, 0, 49, 0
2,47227, Note_on_c, 0, 65, 0
2,47246, Note_on_c, 0, 68, 61
2,47352, Note_on_c, 0, 68, 0
2,47366, Note_on_c, 0, 51, 66
2,47368, Note_on_c, 0, 66, 61
2,47399, Note_on_c, 0, 51, 0
2,47457, Note_on_c, 0, 65, 58
2,47469, Note_on_c, 0, 66, 0
2,47553, Note_on_c, 0, 65, 0
2,47583, Note_on_c, 0, 44, 42
2,47584, Note_on_c, 0, 60, 54
2,47588, Note_on_c, 0, 63, 51
2,47631, Note_on_c, 0, 44, 0
2,47663, Note_on_c, 0, 63, 0
2,47681, Note_on_c, 0, 66, 55
2,47730, Note_on_c, 0, 60, 0
2,47775, Note_on_c, 0, 66, 0
2,47777, Note_on_c, 0, 65, 60
2,47791, Note_on_c, 0, 61, 40
2,47808, Note_on_c, 0, 65, 0
2,47820, Note_on_c, 0, 61, 0
2,47870, Note_on_c, 0, 51, 61
2,47946, Note_on_c, 0, 51, 0
2,47988, Note_on_c, 0, 53, 59
2,47994, Note_on_c, 0, 68, 64
2,48055, Note_on_c, 0, 68, 0
2,48093, Note_on_c, 0, 53, 0
2,48100, Note_on_c, 0, 54, 60
2,48202, Note_on_c, 0, 54, 0
2,48205, Note_on_c, 0, 73, 72
2,48217, Note_on_c, 0, 53, 54
2,48316, Note_on_c, 0, 53, 0
2,48318, Note_on_c, 0, 51, 64
2,48418, Note_on_c, 0, 80, 70
2,48429, Note_on_c, 0, 49, 57
2,48442, Note_on_c, 0, 51, 0
2,48452, Note_on_c, 0, 73, 0
2,48509, Note_on_c, 0, 77, 77
2,48514, Note_on_c, 0, 49, 0
2,48514, Note_on_c, 0, 53, 61
2,48541, Note_on_c, 0, 80, 0
2,48588, Note_on_c, 0, 53, 0
2,48620, Note_on_c, 0, 58, 65
2,48622, Note_on_c, 0, 73, 82
2,48624, Note_on_c, 0, 77, 0
2,48715, Note_on_c, 0, 56, 67
2,48720, Note_on_c, 0, 58, 0
2,48837, Note_on_c, 0, 56, 0
2,48851, Note_on_c, 0, 55, 69
2,48857, Note_on_c, 0, 76, 77
2,48864, Note_on_c, 0, 73, 0
2,48955, Note_on_c, 0, 73, 85
2,48963, Note_on_c, 0, 55, 0
2,48965, Note_on_c, 0, 58, 73
2,48970, Note_on_c, 0, 76, 0
2,49065, Note_on_c, 0, 61, 77
2,49066, Note_on_c, 0, 58, 0
2,49068, Note_on_c, 0, 70, 88
2,49075, Note_on_c, 0, 73, 0
2,49119, Control_c, 0, 64, 24
2,49135, Control_c, 0, 64, 41
2,49151, Control_c, 0, 64, 55
2,49166, Control_c, 0, 64, 62
2,49170, Note_on_c, 0, 61, 0
2,49174, Note_on_c, 0, 59, 73
2,49182, Control_c, 0, 64, 66
2,49197, Control_c, 0, 64, 69
2,49213, Control_c, 0, 64, 74
2,49227, Control_c, 0, 64, 81
2,49242, Control_c, 0, 64, 90
2,49251, Note_on_c, 0, 59, 0
2,49258, Control_c, 0, 64, 97
2,49260, Note_on_c, 0, 70, 0
2,49268, Note_on_c, 0, 58, 69
2,49269, Note_on_c, 0, 73, 83
2,49273, Control_c, 0, 64, 100
2,49334, Control_c, 0, 64, 99
2,49349, Control_c, 0, 64, 98
2,49350, Note_on_c, 0, 58, 0
2,49364, Control_c, 0, 64, 97
2,49364, Note_on_c, 0, 61, 79
2,49369, Note_on_c, 0, 70, 84
2,49380, Control_c, 0, 64, 96
2,49385, Note_on_c, 0, 73, 0
2,49394, Control_c, 0, 64, 95
2,49410, Control_c, 0, 64, 94
2,49425, Control_c, 0, 64, 93
2,49440, Control_c, 0, 64, 93
2,49456, Control_c, 0, 64, 92
2,49471, Control_c, 0, 64, 88
2,49474, Note_on_c, 0, 61, 0
2,49485, Control_c, 0, 64, 81
2,49494, Note_on_c, 0, 67, 86
2,49500, Note_on_c, 0, 64, 85
2,49501, Control_c, 0, 64, 71
2,49516, Control_c, 0, 64, 60
2,49520, Note_on_c, 0, 70, 0
2,49532, Control_c, 0, 64, 30
2,49547, Control_c, 0, 64, 20
2,49599, Control_c, 0, 64, 19
2,49661, Control_c, 0, 64, 18
2,49743, Note_on_c, 0, 64, 0
2,49746, Note_on_c, 0, 70, 73
2,49749, Note_on_c, 0, 63, 66
2,49764, Note_on_c, 0, 67, 0
2,49845, Note_on_c, 0, 73, 80
2,49859, Note_on_c, 0, 61, 72
2,49878, Note_on_c, 0, 63, 0
2,49879, Note_on_c, 0, 70, 0
2,49940, Note_on_c, 0, 61, 0
2,49963, Note_on_c, 0, 73, 0
2,49963, Note_on_c, 0, 76, 77
2,49979, Note_on_c, 0, 59, 68
2,50079, Note_on_c, 0, 59, 0
2,50080, Note_on_c, 0, 58, 65
2,50187, Note_on_c, 0, 73, 70
2,50189, Note_on_c, 0, 56, 65
2,50190, Note_on_c, 0, 58, 0
2,50224, Note_on_c, 0, 73, 0
2,50275, Note_on_c, 0, 56, 0
2,50284, Note_on_c, 0, 55, 60
2,50400, Note_on_c, 0, 76, 0
2,50413, Note_on_c, 0, 56, 67
2,50414, Note_on_c, 0, 75, 79
2,50416, Note_on_c, 0, 55, 0
2,50416, Note_on_c, 0, 71, 76
2,50483, Note_on_c, 0, 75, 0
2,50497, Note_on_c, 0, 56, 0
2,50509, Note_on_c, 0, 59, 68
2,50628, Note_on_c, 0, 80, 81
2,50639, Note_on_c, 0, 58, 75
2,50651, Note_on_c, 0, 59, 0
2,50653, Note_on_c, 0, 71, 0
2,50700, Note_on_c, 0, 80, 0
2,50734, Note_on_c, 0, 56, 71
2,50771, Note_on_c, 0, 58, 0
2,50810, Control_c, 0, 64, 19
2,50835, Note_on_c, 0, 56, 0
2,50846, Note_on_c, 0, 70, 88
2,50850, Note_on_c, 0, 73, 79
2,50854, Note_on_c, 0, 55, 77
2,50966, Note_on_c, 0, 53, 68
2,50971, Note_on_c, 0, 55, 0
2,50991, Control_c, 0, 64, 20
2,51032, Note_on_c, 0, 70, 0
2,51070, Note_on_c, 0, 51, 79
2,51079, Note_on_c, 0, 79, 76
2,51084, Note_on_c, 0, 53, 0
2,51135, Note_on_c, 0, 73, 0
2,51159, Note_on_c, 0, 79, 0
2,51191, Note_on_c, 0, 49, 63
2,51200, Note_on_c, 0, 51, 0
2,51289, Note_on_c, 0, 49, 0
2,51290, Note_on_c, 0, 68, 77
2,51303, Note_on_c, 0, 47, 61
2,51319, Note_on_c, 0, 68, 0
2,51393, Note_on_c, 0, 47, 0
2,51401, Note_on_c, 0, 49, 62
2,51506, Note_on_c, 0, 49, 0
2,51513, Note_on_c, 0, 80, 81
2,51523, Note_on_c, 0, 51, 71
2,51612, Note_on_c, 0, 79, 82
2,51626, Note_on_c, 0, 80, 0
2,51633, Note_on_c, 0, 51, 0
2,51639, Note_on_c, 0, 47, 59
2,51722, Note_on_c, 0, 80, 88
2,51740, Note_on_c, 0, 47, 0
2,51743, Note_on_c, 0, 44, 65
2,51760, Note_on_c, 0, 79, 0
2,51793, Note_on_c, 0, 44, 0
2,51822, Note_on_c, 0, 82, 84
2,51832, Note_on_c, 0, 80, 0
2,51939, Note_on_c, 0, 83, 82
2,51949, Note_on_c, 0, 82, 0
2,51954, Note_on_c, 0, 56, 71
2,52034, Note_on_c, 0, 80, 81
2,52052, Note_on_c, 0, 56, 0
2,52058, Note_on_c, 0, 53, 66
2,52061, Note_on_c, 0, 83, 0
2,52134, Note_on_c, 0, 80, 0
2,52151, Note_on_c, 0, 77, 86
2,52153, Note_on_c, 0, 49, 71
2,52177, Note_on_c, 0, 53, 0
2,52192, Control_c, 0, 64, 19
2,52208, Control_c, 0, 64, 20
2,52216, Note_on_c, 0, 49, 0
2,52246, Note_on_c, 0, 78, 86
2,52264, Note_on_c, 0, 77, 0
2,52354, Note_on_c, 0, 80, 86
2,52357, Note_on_c, 0, 59, 72
2,52365, Note_on_c, 0, 78, 0
2,52449, Note_on_c, 0, 77, 87
2,52461, Note_on_c, 0, 56, 77
2,52468, Note_on_c, 0, 80, 0
2,52474, Note_on_c, 0, 59, 0
2,52545, Note_on_c, 0, 77, 0
2,52555, Note_on_c, 0, 73, 82
2,52562, Note_on_c, 0, 53, 75
2,52595, Note_on_c, 0, 56, 0
2,52603, Control_c, 0, 64, 19
2,52633, Note_on_c, 0, 53, 0
2,52668, Note_on_c, 0, 75, 84
2,52672, Control_c, 0, 64, 20
2,52680, Note_on_c, 0, 73, 0
2,52778, Note_on_c, 0, 77, 83
2,52783, Note_on_c, 0, 49, 57
2,52791, Note_on_c, 0, 75, 0
2,52871, Note_on_c, 0, 73, 82
2,52874, Note_on_c, 0, 46, 62
2,52876, Note_on_c, 0, 49, 0
2,52886, Note_on_c, 0, 77, 0
2,52982, Note_on_c, 0, 42, 66
2,52984, Note_on_c, 0, 73, 0
2,52987, Note_on_c, 0, 70, 80
2,52990, Note_on_c, 0, 46, 0
2,53021, Control_c, 0, 64, 21
2,53035, Note_on_c, 0, 42, 0
2,53067, Control_c, 0, 64, 22
2,53084, Note_on_c, 0, 72, 79
2,53088, Note_on_c, 0, 70, 0
2,53097, Control_c, 0, 64, 23
2,53128, Control_c, 0, 64, 24
2,53143, Control_c, 0, 64, 24
2,53158, Control_c, 0, 64, 25
2,53189, Control_c, 0, 64, 26
2,53194, Note_on_c, 0, 58, 58
2,53201, Note_on_c, 0, 73, 81
2,53208, Note_on_c, 0, 72, 0
2,53250, Control_c, 0, 64, 26
2,53271, Note_on_c, 0, 73, 0
2,53292, Note_on_c, 0, 70, 74
2,53294, Note_on_c, 0, 58, 0
2,53311, Note_on_c, 0, 54, 57
2,53382, Note_on_c, 0, 70, 0
2,53401, Note_on_c, 0, 51, 64
2,53409, Note_on_c, 0, 54, 0
2,53421, Note_on_c, 0, 78, 74
2,53445, Note_on_c, 0, 51, 0
2,53519, Note_on_c, 0, 80, 78
2,53534, Note_on_c, 0, 78, 0
2,53628, Note_on_c, 0, 82, 80
2,53635, Note_on_c, 0, 54, 64
2,53664, Note_on_c, 0, 80, 0
2,53723, Note_on_c, 0, 78, 82
2,53741, Note_on_c, 0, 51, 66
2,53754, Note_on_c, 0, 82, 0
2,53763, Note_on_c, 0, 54, 0
2,53827, Note_on_c, 0, 48, 58
2,53827, Note_on_c, 0, 51, 0
2,53831, Note_on_c, 0, 78, 0
2,53834, Note_on_c, 0, 75, 89
2,53871, Note_on_c, 0, 48, 0
2,53937, Note_on_c, 0, 77, 81
2,53938, Note_on_c, 0, 75, 0
2,54044, Note_on_c, 0, 78, 82
2,54048, Note_on_c, 0, 58, 74
2,54072, Note_on_c, 0, 77, 0
2,54141, Note_on_c, 0, 75, 82
2,54171, Note_on_c, 0, 58, 0
2,54173, Note_on_c, 0, 54, 67
2,54173, Note_on_c, 0, 78, 0
2,54242, Note_on_c, 0, 75, 0
2,54257, Note_on_c, 0, 72, 78
2,54265, Note_on_c, 0, 51, 73
2,54279, Note_on_c, 0, 54, 0
2,54305, Note_on_c, 0, 51, 0
2,54314, Control_c, 0, 64, 26
2,54353, Note_on_c, 0, 73, 80
2,54365, Note_on_c, 0, 72, 0
2,54375, Control_c, 0, 64, 25
2,54462, Note_on_c, 0, 75, 80
2,54466, Note_on_c, 0, 48, 62
2,54467, Note_on_c, 0, 73, 0
2,54480, Control_c, 0, 64, 24
2,54558, Note_on_c, 0, 72, 80
2,54568, Note_on_c, 0, 48, 0
2,54570, Note_on_c, 0, 75, 0
2,54572, Control_c, 0, 64, 24
2,54576, Note_on_c, 0, 44, 57
2,54654, Note_on_c, 0, 72, 0
2,54657, Note_on_c, 0, 44, 0
2,54666, Note_on_c, 0, 41, 71
2,54669, Note_on_c, 0, 68, 82
2,54706, Note_on_c, 0, 41, 0
2,54776, Note_on_c, 0, 68, 0
2,54783, Note_on_c, 0, 70, 70
2,54862, Note_on_c, 0, 56, 68
2,54879, Note_on_c, 0, 70, 0
2,54879, Note_on_c, 0, 72, 77
2,54948, Note_on_c, 0, 72, 0
2,54965, Note_on_c, 0, 56, 0
2,54979, Note_on_c, 0, 68, 75
2,54981, Note_on_c, 0, 53, 54
2,55044, Note_on_c, 0, 68, 0
2,55097, Note_on_c, 0, 53, 0
2,55101, Note_on_c, 0, 49, 37
2,55106, Note_on_c, 0, 77, 72
2,55134, Note_on_c, 0, 49, 0
2,55174, Control_c, 0, 64, 24
2,55197, Note_on_c, 0, 78, 72
2,55233, Note_on_c, 0, 77, 0
2,55284, Note_on_c, 0, 80, 77
2,55303, Note_on_c, 0, 53, 61
2,55311, Note_on_c, 0, 78, 0
2,55394, Note_on_c, 0, 80, 0
2,55396, Note_on_c, 0, 76, 52
2,55407, Note_on_c, 0, 77, 55
2,55434, Note_on_c, 0, 53, 0
2,55434, Note_on_c, 0, 77, 0
2,55436, Note_on_c, 0, 76, 0
2,55443, Note_on_c, 0, 50, 54
2,55457, Note_on_c, 0, 74, 68
2,55522, Note_on_c, 0, 50, 0
2,55546, Note_on_c, 0, 74, 0
2,55547, Note_on_c, 0, 46, 49
2,55549, Note_on_c, 0, 75, 69
2,55591, Note_on_c, 0, 46, 0
2,55650, Note_on_c, 0, 75, 0
2,55650, Note_on_c, 0, 77, 66
2,55723, Note_on_c, 0, 56, 69
2,55744, Note_on_c, 0, 74, 67
2,55754, Note_on_c, 0, 77, 0
2,55809, Note_on_c, 0, 56, 0
2,55813, Note_on_c, 0, 74, 0
2,55836, Note_on_c, 0, 53, 64
2,55840, Note_on_c, 0, 70, 70
2,55925, Note_on_c, 0, 50, 64
2,55925, Note_on_c, 0, 53, 0
2,55944, Note_on_c, 0, 70, 0
2,55945, Note_on_c, 0, 72, 71
2,55956, Note_on_c, 0, 50, 0
2,56037, Note_on_c, 0, 74, 75
2,56041, Note_on_c, 0, 72, 0
2,56101, Note_on_c, 0, 46, 57
2,56105, Note_on_c, 0, 74, 0
2,56133, Note_on_c, 0, 70, 71
2,56185, Note_on_c, 0, 46, 0
2,56195, Note_on_c, 0, 42, 50
2,56237, Note_on_c, 0, 70, 0
2,56254, Note_on_c, 0, 66, 65
2,56271, Note_on_c, 0, 42, 0
2,56282, Note_on_c, 0, 39, 54
2,56319, Note_on_c, 0, 39, 0
2,56344, Note_on_c, 0, 68, 68
2,56347, Note_on_c, 0, 66, 0
2,56451, Note_on_c, 0, 70, 61
2,56462, Note_on_c, 0, 68, 0
2,56484, Note_on_c, 0, 54, 56
2,56506, Note_on_c, 0, 70, 0
2,56546, Note_on_c, 0, 66, 60
2,56557, Note_on_c, 0, 54, 0
2,56577, Note_on_c, 0, 51, 59
2,56621, Note_on_c, 0, 66, 0
2,56654, Note_on_c, 0, 51, 0
2,56672, Note_on_c, 0, 48, 47
2,56680, Note_on_c, 0, 75, 59
2,56708, Note_on_c, 0, 48, 0
2,56753, Note_on_c, 0, 75, 0
2,56759, Note_on_c, 0, 77, 66
2,56872, Note_on_c, 0, 77, 0
2,56874, Note_on_c, 0, 78, 59
2,56878, Note_on_c, 0, 51, 56
2,56958, Note_on_c, 0, 75, 64
2,56965, Note_on_c, 0, 51, 0
2,56981, Note_on_c, 0, 78, 0
2,56986, Note_on_c, 0, 48, 49
2,57035, Note_on_c, 0, 75, 0
2,57072, Note_on_c, 0, 72, 61
2,57076, Note_on_c, 0, 48, 0
2,57087, Note_on_c, 0, 44, 45
2,57125, Note_on_c, 0, 44, 0
2,57142, Note_on_c, 0, 72, 0
2,57170, Note_on_c, 0, 73, 61
2,57273, Note_on_c, 0, 73, 0
2,57286, Note_on_c, 0, 75, 62
2,57295, Note_on_c, 0, 54, 47
2,57379, Note_on_c, 0, 75, 0
2,57382, Note_on_c, 0, 51, 53
2,57383, Note_on_c, 0, 54, 0
2,57384, Note_on_c, 0, 72, 64
2,57460, Note_on_c, 0, 72, 0
2,57484, Note_on_c, 0, 68, 64
2,57490, Note_on_c, 0, 51, 0
2,57491, Note_on_c, 0, 48, 50
2,57531, Note_on_c, 0, 48, 0
2,57570, Note_on_c, 0, 68, 0
2,57585, Note_on_c, 0, 70, 58
2,57683, Note_on_c, 0, 70, 0
2,57699, Note_on_c, 0, 72, 57
2,57702, Note_on_c, 0, 44, 35
2,57746, Note_on_c, 0, 44, 0
2,57782, Note_on_c, 0, 72, 0
2,57783, Note_on_c, 0, 41, 46
2,57799, Note_on_c, 0, 68, 58
2,57852, Note_on_c, 0, 41, 0
2,57875, Note_on_c, 0, 68, 0
2,57905, Note_on_c, 0, 65, 53
2,57907, Note_on_c, 0, 37, 46
2,57949, Control_c, 0, 64, 24
2,57983, Note_on_c, 0, 65, 0
2,58007, Note_on_c, 0, 66, 60
2,58109, Note_on_c, 0, 66, 0
2,58109, Note_on_c, 0, 68, 65
2,58120, Note_on_c, 0, 37, 0
2,58200, Note_on_c, 0, 68, 0
2,58205, Note_on_c, 0, 65, 68
2,58306, Note_on_c, 0, 65, 0
2,58325, Note_on_c, 0, 61, 72
2,58420, Note_on_c, 0, 61, 0
2,58426, Note_on_c, 0, 65, 73
2,58526, Note_on_c, 0, 68, 75
2,58544, Note_on_c, 0, 65, 0
2,58627, Note_on_c, 0, 70, 70
2,58640, Note_on_c, 0, 68, 0
2,58730, Note_on_c, 0, 70, 0
2,58734, Note_on_c, 0, 71, 81
2,58843, Note_on_c, 0, 70, 80
2,58844, Note_on_c, 0, 71, 0
2,58917, Note_on_c, 0, 70, 0
2,58948, Note_on_c, 0, 59, 65
2,58949, Note_on_c, 0, 68, 80
2,59010, Note_on_c, 0, 59, 0
2,59031, Note_on_c, 0, 49, 54
2,59034, Note_on_c, 0, 68, 0
2,59046, Note_on_c, 0, 70, 77
2,59109, Note_on_c, 0, 49, 0
2,59112, Note_on_c, 0, 70, 0
2,59145, Note_on_c, 0, 78, 90
2,59150, Note_on_c, 0, 58, 61
2,59182, Note_on_c, 0, 78, 0
2,59213, Note_on_c, 0, 58, 0
2,59233, Note_on_c, 0, 49, 58
2,59330, Note_on_c, 0, 49, 0
2,59349, Note_on_c, 0, 56, 65
2,59360, Note_on_c, 0, 73, 90
2,59392, Note_on_c, 0, 73, 0
2,59436, Note_on_c, 0, 56, 0
2,59452, Note_on_c, 0, 49, 55
2,59554, Note_on_c, 0, 49, 0
2,59588, Note_on_c, 0, 70, 87
2,59592, Note_on_c, 0, 54, 59
2,59676, Note_on_c, 0, 49, 61
2,59700, Note_on_c, 0, 54, 0
2,59778, Note_on_c, 0, 49, 0
2,59784, Note_on_c, 0, 68, 78
2,59798, Note_on_c, 0, 53, 68
2,59817, Note_on_c, 0, 70, 0
2,59882, Note_on_c, 0, 66, 78
2,59886, Note_on_c, 0, 68, 0
2,59900, Note_on_c, 0, 53, 0
2,59906, Note_on_c, 0, 51, 77
2,59981, Note_on_c, 0, 51, 0
2,59998, Note_on_c, 0, 66, 0
2,59999, Note_on_c, 0, 68, 77
2,60006, Note_on_c, 0, 53, 82
2,60051, Note_on_c, 0, 53, 0
2,60070, Control_c, 0, 64, 22
2,60085, Control_c, 0, 64, 20
2,60091, Note_on_c, 0, 61, 68
2,60098, Note_on_c, 0, 68, 0
2,60100, Control_c, 0, 64, 18
2,60115, Control_c, 0, 64, 17
2,60131, Control_c, 0, 64, 16
2,60203, Note_on_c, 0, 61, 0
2,60215, Note_on_c, 0, 44, 70
2,60219, Note_on_c, 0, 65, 65
2,60252, Note_on_c, 0, 44, 0
2,60298, Control_c, 0, 64, 15
2,60311, Note_on_c, 0, 65, 0
2,60320, Control_c, 0, 64, 14
2,60321, Note_on_c, 0, 68, 71
2,60336, Control_c, 0, 64, 12
2,60351, Control_c, 0, 64, 10
2,60365, Control_c, 0, 64, 8
2,60381, Control_c, 0, 64, 0
2,60422, Note_on_c, 0, 68, 0
2,60435, Note_on_c, 0, 70, 73
2,60532, Note_on_c, 0, 70, 0
2,60542, Note_on_c, 0, 68, 74
2,60624, Note_on_c, 0, 68, 0
2,60651, Note_on_c, 0, 66, 68
2,60652, Note_on_c, 0, 58, 58
2,60698, Note_on_c, 0, 58, 0
2,60725, Note_on_c, 0, 66, 0
2,60746, Note_on_c, 0, 68, 74
2,60747, Note_on_c, 0, 49, 47
2,60817, Note_on_c, 0, 68, 0
2,60822, Note_on_c, 0, 49, 0
2,60851, Note_on_c, 0, 77, 81
2,60855, Note_on_c, 0, 56, 57
2,60875, Note_on_c, 0, 77, 0
2,60924, Note_on_c, 0, 56, 0
2,60948, Note_on_c, 0, 49, 49
2,61041, Note_on_c, 0, 49, 0
2,61061, Note_on_c, 0, 73, 79
2,61087, Note_on_c, 0, 54, 55
2,61090, Note_on_c, 0, 73, 0
2,61158, Note_on_c, 0, 54, 0
2,61164, Note_on_c, 0, 49, 46
2,61257, Note_on_c, 0, 49, 0
2,61285, Note_on_c, 0, 53, 51
2,61286, Note_on_c, 0, 68, 75
2,61369, Note_on_c, 0, 53, 0
2,61385, Note_on_c, 0, 49, 56
2,61474, Note_on_c, 0, 49, 0
2,61494, Note_on_c, 0, 51, 62
2,61495, Note_on_c, 0, 66, 64
2,61509, Note_on_c, 0, 68, 0
2,61574, Note_on_c, 0, 51, 0
2,61586, Note_on_c, 0, 66, 0
2,61596, Note_on_c, 0, 49, 59
2,61599, Note_on_c, 0, 65, 66
2,61685, Note_on_c, 0, 49, 0
2,61697, Note_on_c, 0, 65, 0
2,61709, Note_on_c, 0, 66, 64
2,61710, Note_on_c, 0, 51, 71
2,61741, Note_on_c, 0, 51, 0
2,61784, Note_on_c, 0, 66, 0
2,61811, Note_on_c, 0, 60, 52
2,61917, Note_on_c, 0, 60, 0
2,61932, Note_on_c, 0, 63, 55
2,61937, Note_on_c, 0, 44, 55
2,61973, Note_on_c, 0, 44, 0
2,62012, Note_on_c, 0, 63, 0
2,62037, Note_on_c, 0, 66, 51
2,62125, Note_on_c, 0, 66, 0
2,62153, Note_on_c, 0, 68, 56
2,62237, Note_on_c, 0, 68, 0
2,62262, Note_on_c, 0, 66, 55
2,62334, Note_on_c, 0, 66, 0
2,62351, Note_on_c, 0, 56, 45
2,62376, Note_on_c, 0, 65, 51
2,62406, Note_on_c, 0, 56, 0
2,62429, Note_on_c, 0, 65, 0
2,62450, Note_on_c, 0, 44, 41
2,62476, Note_on_c, 0, 66, 57
2,62541, Note_on_c, 0, 66, 0
2,62545, Note_on_c, 0, 44, 0
2,62578, Note_on_c, 0, 54, 53
2,62580, Note_on_c, 0, 75, 68
2,62617, Note_on_c, 0, 75, 0
2,62636, Note_on_c, 0, 54, 0
2,62675, Note_on_c, 0, 44, 46
2,62777, Note_on_c, 0, 44, 0
2,62795, Note_on_c, 0, 72, 69
2,62821, Note_on_c, 0, 53, 47
2,62821, Note_on_c, 0, 72, 0
2,62857, Note_on_c, 0, 53, 0
2,62914, Note_on_c, 0, 44, 49
2,62976, Note_on_c, 0, 44, 0
2,63010, Note_on_c, 0, 51, 59
2,63021, Note_on_c, 0, 66, 60
2,63082, Note_on_c, 0, 51, 0
2,63115, Note_on_c, 0, 44, 44
2,63203, Note_on_c, 0, 44, 0
2,63229, Note_on_c, 0, 49, 55
2,63233, Note_on_c, 0, 65, 57
2,63281, Note_on_c, 0, 66, 0
2,63297, Note_on_c, 0, 49, 0
2,63327, Note_on_c, 0, 65, 0
2,63333, Note_on_c, 0, 48, 50
2,63333, Note_on_c, 0, 63, 66
2,63425, Note_on_c, 0, 63, 0
2,63427, Note_on_c, 0, 48, 0
2,63433, Note_on_c, 0, 49, 57
2,63461, Note_on_c, 0, 65, 69
2,63532, Note_on_c, 0, 49, 0
2,63538, Note_on_c, 0, 44, 54
2,63553, Note_on_c, 0, 65, 0
2,63558, Note_on_c, 0, 68, 71
2,63633, Note_on_c, 0, 44, 0
2,63652, Note_on_c, 0, 53, 62
2,63656, Note_on_c, 0, 70, 73
2,63657, Note_on_c, 0, 68, 0
2,63737, Note_on_c, 0, 70, 0
2,63746, Note_on_c, 0, 53, 0
2,63756, Note_on_c, 0, 51, 71
2,63756, Note_on_c, 0, 72, 82
2,63868, Note_on_c, 0, 53, 69
2,63869, Note_on_c, 0, 73, 80
2,63874, Note_on_c, 0, 72, 0
2,63881, Note_on_c, 0, 51, 0
2,63959, Note_on_c, 0, 53, 0
2,63970, Note_on_c, 0, 44, 66
2,63974, Note_on_c, 0, 75, 85
2,63999, Note_on_c, 0, 73, 0
2,64057, Note_on_c, 0, 44, 0
2,64081, Note_on_c, 0, 77, 81
2,64089, Note_on_c, 0, 56, 70
2,64090, Note_on_c, 0, 75, 0
2,64178, Note_on_c, 0, 77, 0
2,64188, Note_on_c, 0, 56, 0
2,64190, Note_on_c, 0, 75, 87
2,64198, Note_on_c, 0, 53, 65
2,64275, Note_on_c, 0, 53, 0
2,64291, Note_on_c, 0, 56, 81
2,64300, Note_on_c, 0, 78, 87
2,64311, Note_on_c, 0, 75, 0
2,64367, Note_on_c, 0, 56, 0
2,64397, Note_on_c, 0, 44, 69
2,64398, Note_on_c, 0, 77, 86
2,64429, Note_on_c, 0, 78, 0
2,64457, Note_on_c, 0, 44, 0
2,64504, Note_on_c, 0, 77, 0
2,64505, Note_on_c, 0, 58, 76
2,64507, Note_on_c, 0, 75, 82
2,64541, Note_on_c, 0, 58, 0
2,64556, Control_c, 0, 64, 48
2,64565, Note_on_c, 0, 75, 0
2,64572, Control_c, 0, 64, 65
2,64586, Control_c, 0, 64, 76
2,64587, Note_on_c, 0, 73, 77
2,64588, Note_on_c, 0, 44, 70
2,64601, Control_c, 0, 64, 106
2,64617, Control_c, 0, 64, 127
2,64619, Note_on_c, 0, 44, 0
2,64647, Note_on_c, 0, 73, 0
2,64693, Control_c, 0, 64, 104
2,64709, Control_c, 0, 64, 78
2,64715, Note_on_c, 0, 82, 73
2,64721, Note_on_c, 0, 60, 79
2,64724, Control_c, 0, 64, 59
2,64739, Control_c, 0, 64, 19
2,64754, Control_c, 0, 64, 0
2,64776, Note_on_c, 0, 80, 72
2,64778, Note_on_c, 0, 82, 0
2,64811, Note_on_c, 0, 60, 0
2,64811, Note_on_c, 0, 80, 0
2,64822, Note_on_c, 0, 61, 77
2,64825, Note_on_c, 0, 79, 75
2,64890, Note_on_c, 0, 79, 0
2,64892, Note_on_c, 0, 80, 66
2,64901, Note_on_c, 0, 61, 0
2,64923, Note_on_c, 0, 63, 75
2,64929, Note_on_c, 0, 80, 0
2,64933, Note_on_c, 0, 82, 70
2,64984, Note_on_c, 0, 82, 0
2,64996, Note_on_c, 0, 80, 72
2,65011, Note_on_c, 0, 63, 0
2,65027, Note_on_c, 0, 60, 71
2,65044, Note_on_c, 0, 80, 0
2,65044, Note_on_c, 0, 82, 54
2,65075, Note_on_c, 0, 82, 0
2,65084, Note_on_c, 0, 80, 49
2,65130, Note_on_c, 0, 80, 0
2,65136, Note_on_c, 0, 60, 0
2,65137, Note_on_c, 0, 82, 67
2,65140, Note_on_c, 0, 56, 80
2,65162, Note_on_c, 0, 82, 0
2,65221, Note_on_c, 0, 82, 70
2,65244, Note_on_c, 0, 60, 76
2,65256, Note_on_c, 0, 56, 0
2,65256, Note_on_c, 0, 82, 0
2,65276, Note_on_c, 0, 80, 59
2,65314, Note_on_c, 0, 80, 0
2,65321, Note_on_c, 0, 82, 65
2,65346, Note_on_c, 0, 60, 0
2,65346, Note_on_c, 0, 63, 78
2,65359, Note_on_c, 0, 82, 0
2,65380, Note_on_c, 0, 80, 60
2,65426, Note_on_c, 0, 82, 61
2,65435, Note_on_c, 0, 63, 0
2,65436, Note_on_c, 0, 80, 0
2,65439, Note_on_c, 0, 65, 74
2,65485, Note_on_c, 0, 82, 0
2,65560, Note_on_c, 0, 66, 81
2,65584, Note_on_c, 0, 65, 0
2,65647, Note_on_c, 0, 80, 76
2,65669, Note_on_c, 0, 65, 81
2,65673, Note_on_c, 0, 66, 0
2,65744, Note_on_c, 0, 65, 0
2,65776, Note_on_c, 0, 78, 81
2,65778, Note_on_c, 0, 80, 0
2,65785, Note_on_c, 0, 63, 79
2,65880, Note_on_c, 0, 65, 74
2,65880, Note_on_c, 0, 80, 83
2,65884, Note_on_c, 0, 63, 0
2,65889, Note_on_c, 0, 78, 0
2,65953, Note_on_c, 0, 65, 0
2,65984, Note_on_c, 0, 73, 87
2,65987, Note_on_c, 0, 77, 86
2,65989, Note_on_c, 0, 80, 0
2,66018, Note_on_c, 0, 73, 0
2,66090, Note_on_c, 0, 77, 0
2,66094, Note_on_c, 0, 80, 76
2,66201, Note_on_c, 0, 68, 87
2,66203, Note_on_c, 0, 80, 0
2,66218, Note_on_c, 0, 75, 76
2,66243, Note_on_c, 0, 68, 0
2,66293, Note_on_c, 0, 75, 0
2,66319, Note_on_c, 0, 80, 67
2,66430, Note_on_c, 0, 65, 79
2,66452, Note_on_c, 0, 73, 77
2,66454, Note_on_c, 0, 80, 0
2,66555, Note_on_c, 0, 80, 69
2,66615, Note_on_c, 0, 73, 0
2,66618, Note_on_c, 0, 63, 67
2,66623, Note_on_c, 0, 65, 0
2,66645, Note_on_c, 0, 80, 0
2,66662, Note_on_c, 0, 72, 68
2,66712, Note_on_c, 0, 63, 0
2,66730, Note_on_c, 0, 61, 62
2,66745, Note_on_c, 0, 72, 0
2,66757, Note_on_c, 0, 70, 72
2,66822, Note_on_c, 0, 61, 0
2,66834, Note_on_c, 0, 70, 0
2,66835, Note_on_c, 0, 63, 64
2,66861, Note_on_c, 0, 72, 74
2,66919, Note_on_c, 0, 56, 56
2,66920, Note_on_c, 0, 63, 0
2,66953, Note_on_c, 0, 72, 0
2,66961, Note_on_c, 0, 75, 73
2,67038, Note_on_c, 0, 60, 60
2,67049, Note_on_c, 0, 56, 0
2,67059, Note_on_c, 0, 77, 77
2,67079, Note_on_c, 0, 75, 0
2,67150, Note_on_c, 0, 60, 0
2,67161, Note_on_c, 0, 77, 0
2,67161, Note_on_c, 0, 78, 77
2,67166, Note_on_c, 0, 63, 64
2,67259, Note_on_c, 0, 63, 0
2,67269, Note_on_c, 0, 80, 82
2,67276, Note_on_c, 0, 78, 0
2,67277, Note_on_c, 0, 65, 67
2,67369, Note_on_c, 0, 65, 0
2,67380, Note_on_c, 0, 63, 69
2,67384, Note_on_c, 0, 78, 78
2,67427, Note_on_c, 0, 80, 0
2,67474, Note_on_c, 0, 63, 0
2,67485, Note_on_c, 0, 77, 81
2,67496, Note_on_c, 0, 61, 73
2,67499, Note_on_c, 0, 78, 0
2,67586, Note_on_c, 0, 63, 75
2,67587, Note_on_c, 0, 80, 75
2,67593, Note_on_c, 0, 77, 0
2,67603, Note_on_c, 0, 61, 0
2,67650, Note_on_c, 0, 63, 0
2,67687, Note_on_c, 0, 80, 0
2,67699, Note_on_c, 0, 75, 79
2,67711, Note_on_c, 0, 72, 66
2,67745, Note_on_c, 0, 72, 0
2,67790, Note_on_c, 0, 75, 0
2,67800, Note_on_c, 0, 80, 66
2,67900, Note_on_c, 0, 80, 0
2,67919, Note_on_c, 0, 68, 81
2,67926, Note_on_c, 0, 73, 70
2,67950, Note_on_c, 0, 68, 0
2,68014, Note_on_c, 0, 73, 0
2,68030, Note_on_c, 0, 80, 67
2,68122, Note_on_c, 0, 80, 0
2,68149, Note_on_c, 0, 63, 73
2,68155, Note_on_c, 0, 72, 74
2,68250, Note_on_c, 0, 80, 64
2,68314, Note_on_c, 0, 72, 0
2,68330, Note_on_c, 0, 80, 0
2,68351, Note_on_c, 0, 61, 63
2,68355, Note_on_c, 0, 63, 0
2,68369, Note_on_c, 0, 70, 64
2,68429, Note_on_c, 0, 61, 0
2,68447, Note_on_c, 0, 70, 0
2,68458, Note_on_c, 0, 60, 60
2,68465, Note_on_c, 0, 68, 61
2,68487, Note_on_c, 0, 68, 0
2,68516, Note_on_c, 0, 69, 37
2,68541, Note_on_c, 0, 60, 0
2,68546, Note_on_c, 0, 69, 0
2,68555, Note_on_c, 0, 61, 62
2,68564, Note_on_c, 0, 70, 74
2,68638, Note_on_c, 0, 61, 0
2,68653, Note_on_c, 0, 56, 55
2,68653, Note_on_c, 0, 70, 0
2,68667, Note_on_c, 0, 73, 71
2,68760, Note_on_c, 0, 56, 0
2,68766, Note_on_c, 0, 60, 57
2,68772, Note_on_c, 0, 75, 73
2,68803, Note_on_c, 0, 73, 0
2,68863, Note_on_c, 0, 60, 0
2,68876, Note_on_c, 0, 61, 56
2,68877, Note_on_c, 0, 75, 0
2,68881, Note_on_c, 0, 77, 74
2,68955, Note_on_c, 0, 61, 0
2,68978, Note_on_c, 0, 63, 54
2,68980, Note_on_c, 0, 77, 0
2,68989, Note_on_c, 0, 78, 64
2,69067, Note_on_c, 0, 63, 0
2,69085, Note_on_c, 0, 61, 52
2,69102, Note_on_c, 0, 77, 65
2,69130, Note_on_c, 0, 78, 0
2,69174, Note_on_c, 0, 61, 0
2,69181, Note_on_c, 0, 77, 0
2,69189, Note_on_c, 0, 75, 69
2,69197, Note_on_c, 0, 60, 56
2,69279, Note_on_c, 0, 60, 0
2,69279, Note_on_c, 0, 75, 0
2,69289, Note_on_c, 0, 77, 69
2,69293, Note_on_c, 0, 61, 60
2,69350, Note_on_c, 0, 61, 0
2,69373, Note_on_c, 0, 77, 0
2,69393, Note_on_c, 0, 73, 69
2,69396, Note_on_c, 0, 70, 64
2,69428, Note_on_c, 0, 70, 0
2,69485, Note_on_c, 0, 73, 0
2,69485, Note_on_c, 0, 75, 64
2,69564, Note_on_c, 0, 75, 0
2,69602, Note_on_c, 0, 72, 62
2,69605, Note_on_c, 0, 67, 61
2,69637, Note_on_c, 0, 67, 0
2,69690, Note_on_c, 0, 72, 0
2,69705, Note_on_c, 0, 75, 58
2,69796, Note_on_c, 0, 75, 0
2,69817, Note_on_c, 0, 61, 52
2,69831, Note_on_c, 0, 70, 53
2,69887, Note_on_c, 0, 70, 0
2,69925, Note_on_c, 0, 75, 52
2,69980, Note_on_c, 0, 75, 0
2,69992, Note_on_c, 0, 61, 0
2,70011, Note_on_c, 0, 60, 48
2,70016, Note_on_c, 0, 68, 62
2,70083, Note_on_c, 0, 60, 0
2,70093, Note_on_c, 0, 68, 0
2,70111, Note_on_c, 0, 58, 51
2,70121, Note_on_c, 0, 67, 57
2,70157, Note_on_c, 0, 58, 0
2,70201, Note_on_c, 0, 67, 0
2,70220, Note_on_c, 0, 60, 44
2,70224, Note_on_c, 0, 68, 66
2,70285, Note_on_c, 0, 60, 0
2,70304, Note_on_c, 0, 68, 0
2,70332, Note_on_c, 0, 56, 55
2,70335, Note_on_c, 0, 72, 69
2,70438, Note_on_c, 0, 56, 0
2,70438, Note_on_c, 0, 72, 0
2,70441, Note_on_c, 0, 73, 72
2,70445, Note_on_c, 0, 58, 61
2,70518, Note_on_c, 0, 58, 0
2,70543, Note_on_c, 0, 75, 80
2,70550, Note_on_c, 0, 60, 58
2,70552, Note_on_c, 0, 73, 0
2,70628, Note_on_c, 0, 75, 0
2,70642, Note_on_c, 0, 77, 85
2,70650, Note_on_c, 0, 61, 68
2,70654, Note_on_c, 0, 60, 0
2,70736, Note_on_c, 0, 77, 0
2,70743, Note_on_c, 0, 78, 82
2,70751, Note_on_c, 0, 61, 0
2,70751, Note_on_c, 0, 63, 71
2,70828, Note_on_c, 0, 79, 34
2,70841, Note_on_c, 0, 78, 0
2,70842, Note_on_c, 0, 63, 0
2,70850, Note_on_c, 0, 80, 81
2,70854, Note_on_c, 0, 79, 0
2,70857, Note_on_c, 0, 65, 69
2,70939, Note_on_c, 0, 65, 0
2,70955, Note_on_c, 0, 82, 77
2,70961, Note_on_c, 0, 63, 61
2,70986, Note_on_c, 0, 80, 0
2,71037, Note_on_c, 0, 82, 0
2,71066, Note_on_c, 0, 72, 77
2,71075, Note_on_c, 0, 66, 71
2,71077, Note_on_c, 0, 63, 0
2,71096, Note_on_c, 0, 72, 0
2,71143, Note_on_c, 0, 66, 0
2,71172, Note_on_c, 0, 65, 69
2,71268, Note_on_c, 0, 65, 0
2,71282, Note_on_c, 0, 63, 66
2,71283, Note_on_c, 0, 68, 85
2,71310, Note_on_c, 0, 68, 0
2,71367, Note_on_c, 0, 61, 62
2,71376, Note_on_c, 0, 63, 0
2,71455, Note_on_c, 0, 61, 0
2,71493, Note_on_c, 0, 70, 78
2,71495, Note_on_c, 0, 66, 56
2,71525, Note_on_c, 0, 66, 0
2,71594, Note_on_c, 0, 68, 83
2,71603, Note_on_c, 0, 70, 0
2,71684, Note_on_c, 0, 68, 0
2,71692, Note_on_c, 0, 66, 79
2,71709, Note_on_c, 0, 58, 55
2,71763, Note_on_c, 0, 66, 0
2,71784, Note_on_c, 0, 68, 87
2,71805, Note_on_c, 0, 60, 61
2,71818, Note_on_c, 0, 58, 0
2,71886, Note_on_c, 0, 68, 0
2,71906, Note_on_c, 0, 60, 0
2,71912, Note_on_c, 0, 77, 86
2,71920, Note_on_c, 0, 61, 65
2,71950, Note_on_c, 0, 77, 0
2,71989, Note_on_c, 0, 61, 0
2,72019, Note_on_c, 0, 60, 63
2,72126, Note_on_c, 0, 60, 0
2,72132, Note_on_c, 0, 73, 84
2,72143, Note_on_c, 0, 58, 64
2,72162, Note_on_c, 0, 73, 0
2,72217, Note_on_c, 0, 58, 0
2,72232, Note_on_c, 0, 56, 64
2,72358, Note_on_c, 0, 56, 0
2,72358, Note_on_c, 0, 68, 85
2,72362, Note_on_c, 0, 58, 70
2,72588, Note_on_c, 0, 66, 76
2,72589, Note_on_c, 0, 68, 0
2,72687, Note_on_c, 0, 66, 0
2,72698, Note_on_c, 0, 65, 76
2,72806, Note_on_c, 0, 65, 0
2,72807, Note_on_c, 0, 66, 85
2,72841, Note_on_c, 0, 66, 0
2,72887, Note_on_c, 0, 58, 0
2,72905, Note_on_c, 0, 56, 58
2,73024, Note_on_c, 0, 56, 0
2,73033, Note_on_c, 0, 75, 78
2,73035, Note_on_c, 0, 54, 57
2,73074, Note_on_c, 0, 75, 0
2,73106, Note_on_c, 0, 54, 0
2,73122, Note_on_c, 0, 58, 63
2,73245, Note_on_c, 0, 65, 82
2,73257, Note_on_c, 0, 58, 0
2,73261, Note_on_c, 0, 56, 65
2,73281, Note_on_c, 0, 65, 0
2,73380, Note_on_c, 0, 54, 58
2,73388, Note_on_c, 0, 56, 0
2,73470, Note_on_c, 0, 54, 0
2,73480, Note_on_c, 0, 73, 75
2,73486, Note_on_c, 0, 53, 59
2,73520, Note_on_c, 0, 73, 0
2,73554, Note_on_c, 0, 53, 0
2,73578, Note_on_c, 0, 56, 62
2,73699, Note_on_c, 0, 63, 73
2,73701, Note_on_c, 0, 54, 62
2,73705, Note_on_c, 0, 56, 0
2,73736, Note_on_c, 0, 63, 0
2,73789, Note_on_c, 0, 54, 0
2,73799, Note_on_c, 0, 53, 58
2,73891, Note_on_c, 0, 53, 0
2,73914, Note_on_c, 0, 51, 57
2,73923, Note_on_c, 0, 72, 70
2,73960, Note_on_c, 0, 72, 0
2,73984, Note_on_c, 0, 51, 0
2,74010, Note_on_c, 0, 54, 56
2,74099, Note_on_c, 0, 54, 0
2,74120, Control_c, 0, 64, 20
2,74143, Note_on_c, 0, 53, 70
2,74144, Control_c, 0, 64, 46
2,74154, Note_on_c, 0, 61, 63
2,74159, Control_c, 0, 64, 60
2,74174, Control_c, 0, 64, 67
2,74183, Note_on_c, 0, 61, 0
2,74189, Control_c, 0, 64, 77
2,74204, Control_c, 0, 64, 96
2,74219, Control_c, 0, 64, 127
2,74267, Note_on_c, 0, 53, 0
2,74383, Note_on_c, 0, 73, 66
2,74453, Note_on_c, 0, 56, 52
2,74462, Note_on_c, 0, 73, 0
2,74483, Note_on_c, 0, 72, 73
2,74508, Control_c, 0, 64, 112
2,74523, Control_c, 0, 64, 97
2,74540, Control_c, 0, 64, 89
2,74555, Control_c, 0, 64, 82
2,74571, Control_c, 0, 64, 73
2,74576, Note_on_c, 0, 56, 0
2,74582, Note_on_c, 0, 58, 61
2,74586, Control_c, 0, 64, 66
2,74586, Note_on_c, 0, 73, 75
2,74590, Note_on_c, 0, 72, 0
2,74600, Control_c, 0, 64, 59
2,74616, Control_c, 0, 64, 53
2,74656, Note_on_c, 0, 58, 0
2,74674, Note_on_c, 0, 75, 79
2,74676, Control_c, 0, 64, 53
2,74682, Note_on_c, 0, 60, 60
2,74684, Note_on_c, 0, 73, 0
2,74692, Control_c, 0, 64, 52
2,74752, Control_c, 0, 64, 52
2,74769, Note_on_c, 0, 75, 0
2,74789, Note_on_c, 0, 77, 83
2,74795, Note_on_c, 0, 61, 73
2,74811, Note_on_c, 0, 60, 0
2,74884, Note_on_c, 0, 63, 69
2,74885, Note_on_c, 0, 78, 81
2,74896, Note_on_c, 0, 77, 0
2,75006, Note_on_c, 0, 80, 81
2,75015, Note_on_c, 0, 78, 0
2,75016, Note_on_c, 0, 63, 0
2,75021, Note_on_c, 0, 61, 0
2,75021, Note_on_c, 0, 65, 76
2,75112, Note_on_c, 0, 78, 87
2,75125, Note_on_c, 0, 63, 78
2,75126, Note_on_c, 0, 80, 0
2,75144, Note_on_c, 0, 65, 0
2,75220, Note_on_c, 0, 78, 0
2,75222, Note_on_c, 0, 63, 0
2,75222, Note_on_c, 0, 77, 89
2,75231, Note_on_c, 0, 61, 78
2,75307, Control_c, 0, 64, 51
2,75317, Note_on_c, 0, 78, 89
2,75327, Note_on_c, 0, 63, 75
2,75339, Note_on_c, 0, 77, 0
2,75345, Note_on_c, 0, 61, 0
2,75369, Control_c, 0, 64, 51
2,75413, Note_on_c, 0, 63, 0
2,75428, Note_on_c, 0, 80, 89
2,75430, Control_c, 0, 64, 50
2,75435, Note_on_c, 0, 78, 0
2,75440, Note_on_c, 0, 72, 82
2,75444, Control_c, 0, 64, 50
2,75446, Note_on_c, 0, 60, 60
2,75490, Control_c, 0, 64, 49
2,75501, Note_on_c, 0, 72, 0
2,75536, Note_on_c, 0, 78, 87
2,75556, Note_on_c, 0, 80, 0
2,75627, Control_c, 0, 64, 49
2,75638, Note_on_c, 0, 78, 0
2,75650, Note_on_c, 0, 77, 85
2,75659, Note_on_c, 0, 68, 82
2,75718, Note_on_c, 0, 68, 0
2,75764, Note_on_c, 0, 75, 78
2,75790, Note_on_c, 0, 77, 0
2,75882, Note_on_c, 0, 77, 84
2,75891, Note_on_c, 0, 75, 0
2,75892, Note_on_c, 0, 63, 74
2,75941, Note_on_c, 0, 60, 0
2,76112, Note_on_c, 0, 61, 66
2,76140, Note_on_c, 0, 63, 0
2,76198, Note_on_c, 0, 60, 70
2,76212, Note_on_c, 0, 61, 0
2,76308, Note_on_c, 0, 61, 78
2,76314, Note_on_c, 0, 58, 56
2,76323, Note_on_c, 0, 60, 0
2,76363, Note_on_c, 0, 61, 0
2,76452, Note_on_c, 0, 77, 0
2,76458, Note_on_c, 0, 75, 61
2,76548, Note_on_c, 0, 70, 74
2,76567, Note_on_c, 0, 75, 0
2,76571, Note_on_c, 0, 73, 71
2,76583, Note_on_c, 0, 70, 0
2,76653, Note_on_c, 0, 73, 0
2,76668, Note_on_c, 0, 77, 67
2,76736, Note_on_c, 0, 58, 0
2,76773, Note_on_c, 0, 60, 79
2,76774, Note_on_c, 0, 75, 73
2,76779, Note_on_c, 0, 77, 0
2,76797, Control_c, 0, 64, 48
2,76812, Note_on_c, 0, 60, 0
2,76871, Note_on_c, 0, 75, 0
2,76873, Note_on_c, 0, 73, 73
2,76963, Note_on_c, 0, 73, 0
2,76981, Note_on_c, 0, 72, 73
2,76987, Note_on_c, 0, 68, 67
2,76997, Note_on_c, 0, 56, 51
2,77009, Note_on_c, 0, 68, 0
2,77038, Note_on_c, 0, 56, 0
2,77059, Note_on_c, 0, 72, 0
2,77085, Note_on_c, 0, 75, 70
2,77193, Note_on_c, 0, 58, 73
2,77195, Note_on_c, 0, 73, 75
2,77223, Note_on_c, 0, 75, 0
2,77231, Note_on_c, 0, 58, 0
2,77291, Note_on_c, 0, 73, 0
2,77297, Note_on_c, 0, 72, 78
2,77391, Note_on_c, 0, 72, 0
2,77412, Note_on_c, 0, 73, 73
2,77420, Note_on_c, 0, 67, 72
2,77424, Note_on_c, 0, 51, 63
2,77460, Note_on_c, 0, 51, 0
2,77482, Note_on_c, 0, 67, 0
2,77514, Note_on_c, 0, 70, 79
2,77532, Note_on_c, 0, 73, 0
2,77590, Note_on_c, 0, 70, 0
2,77624, Note_on_c, 0, 56, 76
2,77631, Note_on_c, 0, 72, 84
2,77654, Note_on_c, 0, 56, 0
2,77675, Note_on_c, 0, 72, 0
2,77853, Note_on_c, 0, 68, 76
2,77858, Note_on_c, 0, 75, 80
2,77910, Note_on_c, 0, 75, 0
2,77944, Note_on_c, 0, 66, 76
2,77953, Note_on_c, 0, 68, 0
2,78065, Note_on_c, 0, 78, 82
2,78072, Note_on_c, 0, 68, 86
2,78081, Note_on_c, 0, 66, 0
2,78100, Note_on_c, 0, 68, 0
2,78186, Note_on_c, 0, 70, 63
2,78286, Note_on_c, 0, 72, 73
2,78289, Note_on_c, 0, 56, 72
2,78290, Note_on_c, 0, 70, 0
2,78323, Note_on_c, 0, 56, 0
2,78366, Note_on_c, 0, 78, 0
2,78370, Note_on_c, 0, 72, 0
2,78388, Note_on_c, 0, 78, 35
2,78396, Note_on_c, 0, 68, 67
2,78508, Note_on_c, 0, 58, 57
2,78513, Note_on_c, 0, 73, 72
2,78550, Note_on_c, 0, 68, 0
2,78553, Note_on_c, 0, 78, 0
2,78611, Note_on_c, 0, 72, 81
2,78624, Note_on_c, 0, 56, 70
2,78635, Note_on_c, 0, 58, 0
2,78650, Note_on_c, 0, 73, 0
2,78723, Note_on_c, 0, 70, 85
2,78724, Note_on_c, 0, 56, 0
2,78725, Note_on_c, 0, 72, 0
2,78729, Note_on_c, 0, 54, 77
2,78821, Note_on_c, 0, 56, 77
2,78836, Note_on_c, 0, 72, 81
2,78840, Note_on_c, 0, 54, 0
2,78842, Note_on_c, 0, 70, 0
2,78883, Note_on_c, 0, 72, 0
2,78898, Note_on_c, 0, 56, 0
2,78938, Note_on_c, 0, 77, 84
2,78940, Note_on_c, 0, 65, 73
2,78940, Note_on_c, 0, 73, 82
2,78976, Note_on_c, 0, 65, 0
2,79050, Note_on_c, 0, 72, 65
2,79093, Note_on_c, 0, 72, 0
2,79158, Note_on_c, 0, 61, 80
2,79193, Note_on_c, 0, 70, 69
2,79210, Note_on_c, 0, 61, 0
2,79210, Note_on_c, 0, 73, 0
2,79264, Note_on_c, 0, 70, 0
2,79275, Note_on_c, 0, 68, 62
2,79384, Note_on_c, 0, 56, 83
2,79395, Note_on_c, 0, 70, 70
2,79614, Note_on_c, 0, 54, 67
2,79641, Note_on_c, 0, 56, 0
2,79690, Note_on_c, 0, 77, 0
2,79712, Note_on_c, 0, 53, 66
2,79726, Note_on_c, 0, 54, 0
2,79779, Note_on_c, 0, 68, 0
2,79816, Note_on_c, 0, 53, 0
2,79832, Note_on_c, 0, 54, 85
2,79845, Note_on_c, 0, 75, 80
2,79853, Note_on_c, 0, 70, 0
2,79880, Note_on_c, 0, 54, 0
2,79927, Note_on_c, 0, 68, 61
2,79995, Note_on_c, 0, 68, 0
2,80060, Note_on_c, 0, 63, 76
2,80067, Note_on_c, 0, 66, 62
2,80106, Note_on_c, 0, 63, 0
2,80154, Note_on_c, 0, 75, 0
2,80157, Note_on_c, 0, 70, 64
2,80170, Note_on_c, 0, 66, 0
2,80285, Note_on_c, 0, 68, 70
2,80287, Note_on_c, 0, 53, 82
2,80325, Note_on_c, 0, 70, 0
2,80339, Note_on_c, 0, 53, 0
2,80386, Note_on_c, 0, 66, 60
2,80446, Note_on_c, 0, 68, 0
2,80490, Note_on_c, 0, 66, 0
2,80501, Note_on_c, 0, 61, 65
2,80503, Note_on_c, 0, 65, 74
2,80503, Note_on_c, 0, 73, 76
2,80537, Note_on_c, 0, 61, 0
2,80619, Note_on_c, 0, 73, 0
2,80643, Note_on_c, 0, 68, 43
2,80646, Note_on_c, 0, 65, 0
2,80673, Note_on_c, 0, 68, 0
2,80721, Note_on_c, 0, 51, 67
2,80724, Note_on_c, 0, 66, 73
2,80731, Note_on_c, 0, 72, 77
2,80761, Note_on_c, 0, 51, 0
2,80789, Control_c, 0, 64, 48
2,80808, Note_on_c, 0, 66, 0
2,80829, Note_on_c, 0, 65, 65
2,80899, Note_on_c, 0, 65, 0
2,80930, Note_on_c, 0, 60, 56
2,80937, Note_on_c, 0, 75, 76
2,80940, Note_on_c, 0, 66, 45
2,80966, Note_on_c, 0, 60, 0
2,80983, Note_on_c, 0, 66, 0
2,81024, Note_on_c, 0, 63, 70
2,81069, Note_on_c, 0, 63, 0
2,81124, Note_on_c, 0, 49, 47
2,81157, Note_on_c, 0, 65, 71
2,81167, Note_on_c, 0, 75, 0
2,81213, Note_on_c, 0, 49, 0
2,81233, Note_on_c, 0, 72, 0
2,81243, Note_on_c, 0, 44, 51
2,81341, Note_on_c, 0, 44, 0
2,81345, Note_on_c, 0, 49, 54
2,81373, Note_on_c, 0, 68, 68
2,81420, Note_on_c, 0, 68, 0
2,81440, Note_on_c, 0, 51, 62
2,81441, Note_on_c, 0, 49, 0
2,81564, Note_on_c, 0, 51, 0
2,81587, Note_on_c, 0, 73, 80
2,81594, Note_on_c, 0, 53, 52
2,81707, Note_on_c, 0, 53, 0
2,81715, Note_on_c, 0, 54, 57
2,81805, Note_on_c, 0, 54, 0
2,81808, Note_on_c, 0, 71, 72
2,81832, Note_on_c, 0, 56, 59
2,81847, Note_on_c, 0, 73, 0
2,81866, Note_on_c, 0, 71, 0
2,81907, Note_on_c, 0, 56, 0
2,81938, Note_on_c, 0, 53, 51
2,81996, Note_on_c, 0, 53, 0
2,82002, Note_on_c, 0, 65, 0
2,82030, Note_on_c, 0, 70, 73
2,82043, Note_on_c, 0, 54, 61
2,82095, Note_on_c, 0, 54, 0
2,82145, Note_on_c, 0, 42, 59
2,82215, Note_on_c, 0, 42, 0
2,82252, Note_on_c, 0, 54, 64
2,82255, Note_on_c, 0, 61, 62
2,82281, Note_on_c, 0, 54, 0
2,82299, Note_on_c, 0, 61, 0
2,82352, Note_on_c, 0, 53, 57
2,82454, Note_on_c, 0, 53, 0
2,82472, Note_on_c, 0, 54, 56
2,82472, Note_on_c, 0, 66, 72
2,82557, Note_on_c, 0, 54, 0
2,82575, Note_on_c, 0, 56, 60
2,82588, Note_on_c, 0, 70, 0
2,82651, Note_on_c, 0, 56, 0
2,82683, Note_on_c, 0, 58, 61
2,82694, Note_on_c, 0, 65, 65
2,82700, Note_on_c, 0, 66, 0
2,82726, Note_on_c, 0, 70, 23
2,82765, Note_on_c, 0, 65, 0
2,82774, Note_on_c, 0, 58, 0
2,82790, Note_on_c, 0, 54, 51
2,82900, Note_on_c, 0, 54, 0
2,82907, Note_on_c, 0, 51, 56
2,82914, Note_on_c, 0, 66, 74
2,82995, Note_on_c, 0, 70, 0
2,83006, Note_on_c, 0, 51, 0
2,83015, Note_on_c, 0, 53, 53
2,83075, Note_on_c, 0, 53, 0
2,83117, Note_on_c, 0, 54, 58
2,83128, Note_on_c, 0, 66, 0
2,83138, Note_on_c, 0, 70, 68
2,83219, Note_on_c, 0, 54, 0
2,83224, Note_on_c, 0, 51, 65
2,83230, Note_on_c, 0, 66, 72
2,83270, Note_on_c, 0, 70, 0
2,83332, Note_on_c, 0, 48, 55
2,83335, Note_on_c, 0, 51, 0
2,83352, Note_on_c, 0, 63, 74
2,83385, Note_on_c, 0, 66, 0
2,83437, Note_on_c, 0, 48, 0
2,83438, Note_on_c, 0, 49, 56
2,83523, Note_on_c, 0, 49, 0
2,83536, Note_on_c, 0, 63, 0
2,83549, Note_on_c, 0, 51, 64
2,83562, Note_on_c, 0, 66, 61
2,83614, Note_on_c, 0, 51, 0
2,83664, Note_on_c, 0, 48, 53
2,83671, Note_on_c, 0, 63, 66
2,83683, Note_on_c, 0, 66, 0
2,83778, Note_on_c, 0, 48, 0
2,83784, Note_on_c, 0, 41, 55
2,83796, Note_on_c, 0, 56, 68
2,83799, Note_on_c, 0, 63, 0
2,83841, Note_on_c, 0, 41, 0
2,84015, Note_on_c, 0, 63, 70
2,84024, Note_on_c, 0, 53, 56
2,84062, Note_on_c, 0, 63, 0
2,84080, Note_on_c, 0, 53, 0
2,84117, Note_on_c, 0, 51, 54
2,84248, Note_on_c, 0, 68, 81
2,84256, Note_on_c, 0, 56, 0
2,84258, Note_on_c, 0, 51, 0
2,84264, Note_on_c, 0, 53, 52
2,84337, Note_on_c, 0, 53, 0
2,84350, Note_on_c, 0, 54, 67
2,84433, Note_on_c, 0, 54, 0
2,84461, Note_on_c, 0, 56, 60
2,84465, Note_on_c, 0, 60, 65
2,84515, Note_on_c, 0, 60, 0
2,84543, Note_on_c, 0, 56, 0
2,84565, Note_on_c, 0, 53, 53
2,84679, Note_on_c, 0, 53, 0
2,84686, Note_on_c, 0, 65, 71
2,84690, Note_on_c, 0, 50, 46
2,84743, Note_on_c, 0, 68, 0
2,84781, Note_on_c, 0, 50, 0
2,84785, Note_on_c, 0, 51, 63
2,84859, Note_on_c, 0, 51, 0
2,84907, Note_on_c, 0, 65, 0
2,84911, Note_on_c, 0, 53, 57
2,84921, Note_on_c, 0, 68, 67
2,84955, Control_c, 0, 64, 46
2,84970, Control_c, 0, 64, 46
2,84985, Control_c, 0, 64, 45
2,84991, Note_on_c, 0, 53, 0
2,85013, Note_on_c, 0, 50, 56
2,85016, Control_c, 0, 64, 45
2,85019, Note_on_c, 0, 65, 66
2,85037, Note_on_c, 0, 68, 0
2,85046, Control_c, 0, 64, 44
2,85062, Control_c, 0, 64, 42
2,85077, Control_c, 0, 64, 41
2,85093, Control_c, 0, 64, 40
2,85107, Control_c, 0, 64, 40
2,85113, Note_on_c, 0, 65, 0
2,85122, Control_c, 0, 64, 39
2,85125, Note_on_c, 0, 62, 64
2,85134, Note_on_c, 0, 46, 50
2,85138, Control_c, 0, 64, 39
2,85153, Control_c, 0, 64, 38
2,85167, Control_c, 0, 64, 38
2,85183, Control_c, 0, 64, 37
2,85188, Note_on_c, 0, 50, 0
2,85199, Control_c, 0, 64, 34
2,85215, Control_c, 0, 64, 29
2,85230, Control_c, 0, 64, 26
2,85245, Control_c, 0, 64, 24
2,85252, Note_on_c, 0, 46, 0
2,85252, Note_on_c, 0, 48, 50
2,85260, Control_c, 0, 64, 23
2,85275, Control_c, 0, 64, 22
2,85291, Control_c, 0, 64, 20
2,85296, Note_on_c, 0, 48, 0
2,85306, Control_c, 0, 64, 17
2,85321, Control_c, 0, 64, 10
2,85322, Note_on_c, 0, 62, 0
2,85336, Note_on_c, 0, 50, 52
2,85337, Control_c, 0, 64, 0
2,85364, Note_on_c, 0, 65, 56
2,85366, Control_c, 0, 67, 20
2,85382, Control_c, 0, 67, 38
2,85396, Control_c, 0, 67, 55
2,85412, Control_c, 0, 67, 73
2,85417, Note_on_c, 0, 50, 0
2,85427, Control_c, 0, 67, 92
2,85442, Control_c, 0, 67, 111
2,85447, Note_on_c, 0, 46, 46
2,85450, Note_on_c, 0, 62, 55
2,85451, Note_on_c, 0, 65, 0
2,85458, Control_c, 0, 67, 126
2,85472, Control_c, 0, 67, 127
2,85533, Note_on_c, 0, 62, 0
2,85578, Note_on_c, 0, 54, 60
2,85579, Note_on_c, 0, 39, 45
2,85592, Note_on_c, 0, 46, 0
2,85623, Note_on_c, 0, 39, 0
2,85789, Note_on_c, 0, 58, 58
2,85792, Note_on_c, 0, 51, 53
2,85820, Note_on_c, 0, 58, 0
2,85843, Note_on_c, 0, 51, 0
2,85882, Note_on_c, 0, 50, 48
2,86002, Note_on_c, 0, 51, 48
2,86008, Note_on_c, 0, 50, 0
2,86019, Note_on_c, 0, 66, 66
2,86030, Note_on_c, 0, 54, 0
2,86087, Note_on_c, 0, 51, 0
2,86122, Note_on_c, 0, 53, 48
2,86194, Note_on_c, 0, 53, 0
2,86229, Note_on_c, 0, 58, 59
2,86230, Note_on_c, 0, 54, 55
2,86295, Note_on_c, 0, 58, 0
2,86324, Note_on_c, 0, 54, 0
2,86325, Note_on_c, 0, 51, 57
2,86448, Note_on_c, 0, 51, 0
2,86461, Note_on_c, 0, 48, 48
2,86461, Note_on_c, 0, 63, 62
2,86477, Note_on_c, 0, 66, 0
2,86559, Note_on_c, 0, 48, 0
2,86559, Note_on_c, 0, 49, 56
2,86566, Note_on_c, 0, 65, 67
2,86590, Note_on_c, 0, 63, 0
2,86633, Note_on_c, 0, 49, 0
2,86658, Note_on_c, 0, 51, 61
2,86677, Note_on_c, 0, 66, 71
2,86682, Note_on_c, 0, 65, 0
2,86740, Note_on_c, 0, 51, 0
2,86758, Note_on_c, 0, 66, 0
2,86771, Note_on_c, 0, 48, 48
2,86786, Note_on_c, 0, 63, 68
2,86872, Control_c, 0, 67, 124
2,86881, Note_on_c, 0, 44, 49
2,86882, Note_on_c, 0, 63, 0
2,86886, Control_c, 0, 67, 120
2,86890, Note_on_c, 0, 75, 80
2,86902, Control_c, 0, 67, 114
2,86917, Control_c, 0, 67, 106
2,86933, Control_c, 0, 67, 100
2,86948, Control_c, 0, 67, 96
2,86963, Control_c, 0, 67, 94
2,86970, Note_on_c, 0, 48, 0
2,86979, Control_c, 0, 67, 93
2,86987, Note_on_c, 0, 46, 52
2,86994, Control_c, 0, 67, 92
2,87016, Note_on_c, 0, 44, 0
2,87018, Note_on_c, 0, 66, 69
2,87024, Control_c, 0, 67, 91
2,87043, Note_on_c, 0, 46, 0
2,87084, Control_c, 0, 67, 90
2,87088, Note_on_c, 0, 48, 61
2,87117, Note_on_c, 0, 68, 68
2,87150, Note_on_c, 0, 75, 0
2,87172, Note_on_c, 0, 66, 0
2,87175, Note_on_c, 0, 48, 0
2,87193, Note_on_c, 0, 44, 58
2,87211, Note_on_c, 0, 63, 68
2,87223, Note_on_c, 0, 68, 0
2,87244, Control_c, 0, 67, 91
2,87245, Note_on_c, 0, 63, 0
2,87262, Note_on_c, 0, 44, 0
2,87291, Control_c, 0, 64, 33
2,87305, Control_c, 0, 64, 51
2,87305, Control_c, 0, 67, 92
2,87308, Note_on_c, 0, 37, 63
2,87320, Control_c, 0, 64, 62
2,87336, Control_c, 0, 64, 67
2,87338, Note_on_c, 0, 64, 47
2,87339, Note_on_c, 0, 65, 49
2,87342, Note_on_c, 0, 37, 0
2,87351, Control_c, 0, 64, 72
2,87366, Control_c, 0, 64, 81
2,87381, Control_c, 0, 64, 92
2,87394, Note_on_c, 0, 64, 0
2,87396, Control_c, 0, 64, 107
2,87412, Control_c, 0, 64, 127
2,87419, Note_on_c, 0, 73, 66
2,87441, Control_c, 0, 67, 92
2,87460, Note_on_c, 0, 65, 0
2,87472, Control_c, 0, 67, 93
2,87502, Control_c, 0, 64, 110
2,87504, Note_on_c, 0, 49, 73
2,87517, Control_c, 0, 64, 94
2,87517, Control_c, 0, 67, 94
2,87532, Note_on_c, 0, 72, 75
2,87533, Control_c, 0, 64, 82
2,87547, Note_on_c, 0, 73, 0
2,87548, Control_c, 0, 64, 69
2,87563, Control_c, 0, 64, 60
2,87578, Control_c, 0, 64, 50
2,87593, Control_c, 0, 64, 49
2,87608, Control_c, 0, 67, 94
2,87613, Note_on_c, 0, 51, 72
2,87615, Note_on_c, 0, 72, 0
2,87615, Note_on_c, 0, 75, 77
2,87656, Control_c, 0, 64, 48
2,87666, Note_on_c, 0, 49, 0
2,87720, Note_on_c, 0, 51, 0
2,87721, Note_on_c, 0, 75, 0
2,87722, Note_on_c, 0, 73, 77
2,87731, Note_on_c, 0, 53, 81
2,87761, Control_c, 0, 64, 48
2,87772, Note_on_c, 0, 53, 0
2,87777, Control_c, 0, 67, 93
2,87792, Control_c, 0, 64, 47
2,87792, Control_c, 0, 67, 92
2,87807, Control_c, 0, 64, 46
2,87807, Control_c, 0, 67, 90
2,87822, Control_c, 0, 67, 88
2,87822, Note_on_c, 0, 73, 0
2,87831, Note_on_c, 0, 68, 75
2,87837, Control_c, 0, 67, 86
2,87853, Control_c, 0, 67, 80
2,87868, Control_c, 0, 67, 61
2,87883, Control_c, 0, 64, 46
2,87883, Control_c, 0, 67, 36
2,87899, Control_c, 0, 67, 9
2,87914, Control_c, 0, 67, 0
2,87949, Note_on_c, 0, 70, 73
2,87950, Note_on_c, 0, 68, 0
2,87972, Note_on_c, 0, 61, 72
2,87976, Note_on_c, 0, 49, 44
2,87997, Control_c, 0, 64, 45
2,88008, Note_on_c, 0, 49, 0
2,88027, Control_c, 0, 64, 45
2,88042, Control_c, 0, 64, 44
2,88055, Note_on_c, 0, 70, 0
2,88058, Control_c, 0, 64, 44
2,88067, Note_on_c, 0, 71, 74
2,88073, Control_c, 0, 64, 42
2,88088, Control_c, 0, 64, 41
2,88104, Control_c, 0, 64, 39
2,88119, Control_c, 0, 64, 37
2,88135, Control_c, 0, 64, 35
2,88149, Control_c, 0, 64, 33
2,88164, Control_c, 0, 64, 31
2,88175, Note_on_c, 0, 54, 57
2,88177, Note_on_c, 0, 70, 76
2,88180, Control_c, 0, 64, 29
2,88195, Control_c, 0, 64, 28
2,88204, Note_on_c, 0, 71, 0
2,88211, Control_c, 0, 64, 28
2,88232, Note_on_c, 0, 61, 0
2,88282, Note_on_c, 0, 68, 82
2,88294, Note_on_c, 0, 60, 64
2,88294, Note_on_c, 0, 70, 0
2,88301, Control_c, 0, 64, 27
2,88332, Control_c, 0, 64, 26
2,88361, Control_c, 0, 64, 26
2,88377, Control_c, 0, 64, 25
2,88377, Note_on_c, 0, 68, 0
2,88381, Note_on_c, 0, 60, 0
2,88384, Note_on_c, 0, 66, 85
2,88392, Control_c, 0, 64, 24
2,88397, Note_on_c, 0, 58, 68
2,88407, Control_c, 0, 64, 23
2,88422, Control_c, 0, 64, 21
2,88437, Control_c, 0, 64, 20
2,88437, Note_on_c, 0, 54, 0
2,88453, Control_c, 0, 64, 18
2,88469, Control_c, 0, 64, 17
2,88480, Note_on_c, 0, 66, 0
2,88484, Control_c, 0, 64, 15
2,88484, Note_on_c, 0, 68, 85
2,88488, Note_on_c, 0, 58, 0
2,88492, Note_on_c, 0, 60, 74
2,88499, Control_c, 0, 64, 14
2,88530, Control_c, 0, 64, 12
2,88560, Control_c, 0, 64, 8
2,88565, Note_on_c, 0, 68, 0
2,88575, Control_c, 0, 64, 0
2,88595, Note_on_c, 0, 77, 91
2,88596, Note_on_c, 0, 60, 0
2,88616, Note_on_c, 0, 53, 64
2,88618, Note_on_c, 0, 61, 74
2,88635, Note_on_c, 0, 77, 0
2,88709, Note_on_c, 0, 61, 0
2,88714, Note_on_c, 0, 60, 72
2,88793, Note_on_c, 0, 60, 0
2,88831, Note_on_c, 0, 73, 84
2,88843, Note_on_c, 0, 58, 59
2,88869, Note_on_c, 0, 73, 0
2,88920, Note_on_c, 0, 58, 0
2,88947, Note_on_c, 0, 56, 58
2,88994, Note_on_c, 0, 53, 0
2,89061, Note_on_c, 0, 68, 90
2,89070, Note_on_c, 0, 56, 0
2,89077, Note_on_c, 0, 58, 45
2,89082, Note_on_c, 0, 51, 58
2,89259, Note_on_c, 0, 51, 0
2,89291, Note_on_c, 0, 66, 80
2,89292, Note_on_c, 0, 49, 48
2,89303, Note_on_c, 0, 68, 0
2,89391, Note_on_c, 0, 65, 80
2,89391, Note_on_c, 0, 66, 0
2,89476, Note_on_c, 0, 49, 0
2,89512, Note_on_c, 0, 66, 86
2,89513, Note_on_c, 0, 48, 63
2,89513, Note_on_c, 0, 65, 0
2,89515, Note_on_c, 0, 58, 0
2,89544, Note_on_c, 0, 66, 0
2,89617, Note_on_c, 0, 56, 62
2,89705, Note_on_c, 0, 48, 0
2,89721, Note_on_c, 0, 54, 60
2,89727, Note_on_c, 0, 75, 83
2,89735, Note_on_c, 0, 56, 0
2,89794, Note_on_c, 0, 75, 0
2,89808, Note_on_c, 0, 54, 0
2,89819, Note_on_c, 0, 58, 63
2,89936, Note_on_c, 0, 65, 82
2,89940, Note_on_c, 0, 49, 61
2,89947, Note_on_c, 0, 56, 72
2,89947, Note_on_c, 0, 58, 0
2,89980, Note_on_c, 0, 65, 0
2,90034, Note_on_c, 0, 49, 0
2,90059, Note_on_c, 0, 54, 66
2,90110, Note_on_c, 0, 56, 0
2,90168, Note_on_c, 0, 73, 77
2,90171, Note_on_c, 0, 53, 63
2,90177, Note_on_c, 0, 54, 0
2,90221, Note_on_c, 0, 53, 0
2,90228, Note_on_c, 0, 73, 0
2,90246, Note_on_c, 0, 56, 68
2,90290, Note_on_c, 0, 56, 0
2,90371, Note_on_c, 0, 54, 68
2,90387, Note_on_c, 0, 44, 58
2,90389, Note_on_c, 0, 63, 76
2,90453, Note_on_c, 0, 54, 0
2,90463, Note_on_c, 0, 53, 64
2,90476, Note_on_c, 0, 63, 0
2,90589, Note_on_c, 0, 53, 0
2,90595, Note_on_c, 0, 72, 71
2,90603, Note_on_c, 0, 51, 62
2,90623, Note_on_c, 0, 72, 0
2,90650, Note_on_c, 0, 44, 0
2,90681, Note_on_c, 0, 54, 58
2,90693, Note_on_c, 0, 51, 0
2,90773, Control_c, 0, 64, 16
2,90788, Control_c, 0, 64, 39
2,90803, Control_c, 0, 64, 57
2,90803, Note_on_c, 0, 61, 71
2,90805, Note_on_c, 0, 54, 0
2,90807, Note_on_c, 0, 46, 54
2,90819, Control_c, 0, 64, 66
2,90819, Note_on_c, 0, 53, 56
2,90834, Control_c, 0, 64, 73
2,90845, Note_on_c, 0, 46, 0
2,90850, Control_c, 0, 64, 84
2,90864, Control_c, 0, 64, 99
2,90873, Note_on_c, 0, 61, 0
2,90879, Control_c, 0, 64, 121
2,90895, Control_c, 0, 64, 127
2,90896, Note_on_c, 0, 53, 0
2,90922, Note_on_c, 0, 65, 64
2,90925, Control_c, 0, 64, 107
2,90933, Note_on_c, 0, 56, 63
2,90941, Control_c, 0, 64, 97
2,90956, Control_c, 0, 64, 92
2,90972, Control_c, 0, 64, 90
2,90987, Control_c, 0, 64, 87
2,91002, Control_c, 0, 64, 81
2,91008, Note_on_c, 0, 56, 0
2,91016, Note_on_c, 0, 65, 0
2,91016, Note_on_c, 0, 66, 66
2,91018, Control_c, 0, 64, 74
2,91023, Note_on_c, 0, 58, 64
2,91039, Control_c, 0, 64, 68
2,91055, Control_c, 0, 64, 63
2,91070, Control_c, 0, 64, 59
2,91085, Control_c, 0, 64, 57
2,91098, Note_on_c, 0, 58, 0
2,91101, Control_c, 0, 64, 56
2,91115, Control_c, 0, 64, 55
2,91122, Note_on_c, 0, 68, 74
2,91131, Control_c, 0, 64, 52
2,91134, Note_on_c, 0, 66, 0
2,91141, Note_on_c, 0, 60, 57
2,91146, Control_c, 0, 64, 47
2,91161, Control_c, 0, 64, 41
2,91177, Control_c, 0, 64, 39
2,91191, Control_c, 0, 64, 38
2,91221, Note_on_c, 0, 60, 0
2,91228, Note_on_c, 0, 70, 73
2,91237, Note_on_c, 0, 61, 66
2,91246, Note_on_c, 0, 68, 0
2,91253, Control_c, 0, 64, 38
2,91294, Note_on_c, 0, 70, 0
2,91304, Note_on_c, 0, 61, 0
2,91326, Note_on_c, 0, 72, 75
2,91339, Note_on_c, 0, 60, 60
2,91343, Control_c, 0, 64, 37
2,91358, Control_c, 0, 64, 36
2,91430, Note_on_c, 0, 60, 0
2,91433, Note_on_c, 0, 72, 0
2,91435, Note_on_c, 0, 73, 78
2,91439, Note_on_c, 0, 58, 61
2,91526, Note_on_c, 0, 75, 84
2,91548, Note_on_c, 0, 58, 0
2,91549, Note_on_c, 0, 56, 62
2,91555, Note_on_c, 0, 73, 0
2,91639, Note_on_c, 0, 76, 83
2,91640, Note_on_c, 0, 56, 0
2,91641, Note_on_c, 0, 75, 0
2,91655, Note_on_c, 0, 55, 64
2,91662, Control_c, 0, 64, 36
2,91677, Control_c, 0, 64, 29
2,91693, Control_c, 0, 64, 0
2,91742, Note_on_c, 0, 75, 89
2,91751, Note_on_c, 0, 55, 0
2,91762, Note_on_c, 0, 56, 69
2,91776, Note_on_c, 0, 76, 0
2,91806, Control_c, 0, 64, 15
2,91822, Control_c, 0, 64, 50
2,91837, Control_c, 0, 64, 61
2,91839, Note_on_c, 0, 56, 0
2,91853, Control_c, 0, 64, 65
2,91858, Note_on_c, 0, 73, 88
2,91863, Note_on_c, 0, 75, 0
2,91868, Control_c, 0, 64, 68
2,91872, Note_on_c, 0, 58, 64
2,91882, Control_c, 0, 64, 71
2,91898, Control_c, 0, 64, 75
2,91913, Control_c, 0, 64, 80
2,91928, Control_c, 0, 64, 86
2,91941, Note_on_c, 0, 58, 0
2,91944, Control_c, 0, 64, 92
2,91949, Note_on_c, 0, 55, 66
2,91955, Note_on_c, 0, 75, 93
2,91959, Control_c, 0, 64, 93
2,91975, Control_c, 0, 64, 93
2,91975, Note_on_c, 0, 73, 0
2,91980, Note_on_c, 0, 55, 0
2,91989, Control_c, 0, 64, 92
2,92004, Control_c, 0, 64, 91
2,92020, Control_c, 0, 64, 91
2,92033, Note_on_c, 0, 75, 0
2,92034, Control_c, 0, 64, 89
2,92050, Control_c, 0, 64, 86
2,92061, Note_on_c, 0, 51, 70
2,92063, Note_on_c, 0, 76, 90
2,92065, Control_c, 0, 64, 83
2,92079, Control_c, 0, 64, 80
2,92095, Control_c, 0, 64, 77
2,92110, Control_c, 0, 64, 73
2,92125, Control_c, 0, 64, 69
2,92141, Control_c, 0, 64, 64
2,92155, Control_c, 0, 64, 60
2,92160, Note_on_c, 0, 79, 87
2,92171, Control_c, 0, 64, 57
2,92171, Note_on_c, 0, 49, 58
2,92176, Note_on_c, 0, 76, 0
2,92186, Control_c, 0, 64, 55
2,92201, Control_c, 0, 64, 55
2,92216, Control_c, 0, 64, 54
2,92231, Control_c, 0, 64, 52
2,92246, Control_c, 0, 64, 48
2,92257, Note_on_c, 0, 48, 59
2,92262, Control_c, 0, 64, 43
2,92267, Note_on_c, 0, 49, 0
2,92267, Note_on_c, 0, 79, 0
2,92268, Note_on_c, 0, 80, 87
2,92277, Control_c, 0, 64, 41
2,92293, Control_c, 0, 64, 41
2,92307, Control_c, 0, 64, 40
2,92322, Control_c, 0, 64, 40
2,92338, Control_c, 0, 64, 36
2,92353, Control_c, 0, 64, 29
2,92362, Note_on_c, 0, 82, 87
2,92368, Control_c, 0, 64, 20
2,92384, Control_c, 0, 64, 0
2,92392, Note_on_c, 0, 80, 0
2,92395, Note_on_c, 0, 48, 0
2,92433, Note_on_c, 0, 46, 26
2,92444, Control_c, 0, 64, 29
2,92460, Control_c, 0, 64, 55
2,92462, Note_on_c, 0, 51, 0
2,92465, Note_on_c, 0, 44, 59
2,92469, Note_on_c, 0, 73, 87
2,92475, Control_c, 0, 64, 66
2,92482, Note_on_c, 0, 82, 0
2,92490, Control_c, 0, 64, 77
2,92505, Control_c, 0, 64, 96
2,92520, Control_c, 0, 64, 116
2,92536, Control_c, 0, 64, 108
2,92551, Control_c, 0, 64, 96
2,92551, Note_on_c, 0, 73, 0
2,92571, Note_on_c, 0, 72, 80
2,92572, Control_c, 0, 64, 82
2,92581, Note_on_c, 0, 51, 64
2,92587, Control_c, 0, 64, 70
2,92594, Note_on_c, 0, 46, 0
2,92602, Control_c, 0, 64, 60
2,92606, Note_on_c, 0, 44, 0
2,92618, Control_c, 0, 64, 45
2,92633, Control_c, 0, 64, 43
2,92638, Note_on_c, 0, 72, 0
2,92647, Control_c, 0, 64, 42
2,92662, Note_on_c, 0, 51, 0
2,92678, Control_c, 0, 64, 42
2,92681, Note_on_c, 0, 53, 64
2,92685, Note_on_c, 0, 70, 84
2,92693, Control_c, 0, 64, 41
2,92709, Control_c, 0, 64, 40
2,92724, Control_c, 0, 64, 40
2,92773, Note_on_c, 0, 68, 85
2,92798, Note_on_c, 0, 70, 0
2,92802, Note_on_c, 0, 54, 64
2,92811, Note_on_c, 0, 53, 0
2,92849, Note_on_c, 0, 68, 0
2,92861, Control_c, 0, 64, 39
2,92891, Control_c, 0, 64, 39
2,92892, Note_on_c, 0, 75, 90
2,92900, Note_on_c, 0, 54, 0
2,92900, Note_on_c, 0, 56, 71
2,92929, Note_on_c, 0, 75, 0
2,92952, Control_c, 0, 64, 38
2,93005, Note_on_c, 0, 56, 0
2,93005, Note_on_c, 0, 58, 77
2,93109, Note_on_c, 0, 66, 91
2,93115, Note_on_c, 0, 58, 0
2,93119, Control_c, 0, 64, 38
2,93121, Note_on_c, 0, 60, 76
2,93152, Note_on_c, 0, 66, 0
2,93207, Note_on_c, 0, 60, 0
2,93217, Note_on_c, 0, 56, 73
2,93255, Control_c, 0, 64, 37
2,93271, Control_c, 0, 64, 36
2,93321, Note_on_c, 0, 56, 0
2,93339, Control_c, 0, 64, 36
2,93352, Note_on_c, 0, 61, 84
2,93354, Control_c, 0, 64, 35
2,93358, Note_on_c, 0, 65, 96
2,93369, Control_c, 0, 64, 34
2,93384, Note_on_c, 0, 61, 0
2,93386, Control_c, 0, 64, 33
2,93397, Note_on_c, 0, 65, 0
2,93401, Control_c, 0, 64, 32
2,93417, Control_c, 0, 64, 32
2,93611, Note_on_c, 0, 41, 81
2,93611, Note_on_c, 0, 61, 92
2,93613, Note_on_c, 0, 73, 86
2,93642, Note_on_c, 0, 41, 0
2,93655, Note_on_c, 0, 68, 13
2,93656, Note_on_c, 0, 61, 0
2,93657, Note_on_c, 0, 73, 0
2,93701, Note_on_c, 0, 68, 0
2,93890, Note_on_c, 0, 42, 78
2,93891, Note_on_c, 0, 63, 93
2,93895, Note_on_c, 0, 70, 87
2,93923, Note_on_c, 0, 42, 0
2,93949, Note_on_c, 0, 70, 0
2,94151, Control_c, 0, 64, 32
2,94238, Note_on_c, 0, 72, 92
2,94243, Note_on_c, 0, 44, 71
2,94254, Note_on_c, 0, 66, 54
2,94283, Note_on_c, 0, 66, 0
2,94289, Note_on_c, 0, 44, 0
2,94304, Control_c, 0, 64, 32
2,94319, Control_c, 0, 64, 17
2,94333, Control_c, 0, 64, 0
2,94338, Note_on_c, 0, 72, 0
2,94455, Control_c, 0, 64, 53
2,94471, Control_c, 0, 64, 66
2,94486, Control_c, 0, 64, 79
2,94501, Control_c, 0, 64, 127
2,94546, Note_on_c, 0, 63, 0
2,94737, Note_on_c, 0, 73, 94
2,94748, Note_on_c, 0, 37, 61
2,94751, Note_on_c, 0, 61, 75
2,94753, Note_on_c, 0, 65, 72
2,94758, Note_on_c, 0, 68, 66
2,94759, Control_c, 0, 64, 117
2,94774, Control_c, 0, 64, 79
2,94790, Control_c, 0, 64, 61
2,94805, Control_c, 0, 64, 0
2,95010, Control_c, 0, 64, 40
2,95027, Control_c, 0, 64, 55
2,95042, Control_c, 0, 64, 62
2,95056, Control_c, 0, 64, 66
2,95072, Control_c, 0, 64, 72
2,95087, Control_c, 0, 64, 83
2,95101, Control_c, 0, 64, 127
2,96232, Note_on_c, 0, 61, 0
2,96257, Note_on_c, 0, 73, 0
2,96299, Note_on_c, 0, 65, 0
2,96301, Note_on_c, 0, 37, 0
2,96322, Note_on_c, 0, 68, 0
2,96387, Control_c, 0, 64, 114
2,96409, Control_c, 0, 64, 104
2,96425, Control_c, 0, 64, 98
2,96440, Control_c, 0, 64, 90
2,96455, Control_c, 0, 64, 82
2,96470, Control_c, 0, 64, 74
2,96485, Control_c, 0, 64, 68
2,96500, Control_c, 0, 64, 64
2,96516, Control_c, 0, 64, 61
2,96531, Control_c, 0, 64, 59
2,96547, Control_c, 0, 64, 56
2,96561, Control_c, 0, 64, 52
2,96576, Control_c, 0, 64, 47
2,96592, Control_c, 0, 64, 43
2,96607, Control_c, 0, 64, 41
2,96652, Control_c, 0, 64, 40
2,96684, Control_c, 0, 64, 40
2,96699, Control_c, 0, 64, 39
2,96715, Control_c, 0, 64, 39
2,96941, Control_c, 0, 64, 35
2,96957, Control_c, 0, 64, 0
2,96958, End_track
0, 0, End_of_file
