0, 0, Header, 1, 2, 384
1, 0, Start_track
1, 0, Tempo, 500000
1, 0, Time_signature, 4, 2, 24, 8
1, 1, End_track
2, 0, Start_track
2, 0, Program_c, 0, 0
2, 0, Control_c, 0, 64, 50
2, 773, Note_on_c, 0, 49, 42
2, 779, Note_on_c, 0, 77, 59
2, 850, Note_on_c, 0, 77, 0
2, 855, Note_on_c, 0, 73, 63
2, 920, Note_on_c, 0, 73, 0
2, 958, Note_on_c, 0, 68, 53
2, 1050, Note_on_c, 0, 73, 63
2, 1053, Note_on_c, 0, 68, 0
2, 1120, Note_on_c, 0, 73, 0
2, 1127, Note_on_c, 0, 61, 42
2, 1132, Note_on_c, 0, 49, 0
2, 1136, Note_on_c, 0, 77, 67
2, 1158, Note_on_c, 0, 61, 0
2, 1200, Note_on_c, 0, 77, 0
2, 1202, Note_on_c, 0, 73, 53
2, 1284, Note_on_c, 0, 73, 0
2, 1296, Note_on_c, 0, 78, 64
2, 1298, Note_on_c, 0, 51, 53
2, 1378, Note_on_c, 0, 78, 0
2, 1398, Note_on_c, 0, 73, 65
2, 1451, Note_on_c, 0, 73, 0
2, 1474, Note_on_c, 0, 78, 72
2, 1539, Note_on_c, 0, 51, 0
2, 1543, Note_on_c, 0, 78, 0
2, 1564, Note_on_c, 0, 73, 64
2, 1617, Note_on_c, 0, 73, 0
2, 1629, Note_on_c, 0, 78, 75
2, 1651, Note_on_c, 0, 61, 55
2, 1687, Note_on_c, 0, 61, 0
2, 1703, Note_on_c, 0, 78, 0
2, 1725, Note_on_c, 0, 73, 68
2, 1796, Note_on_c, 0, 73, 0
2, 1811, Note_on_c, 0, 80, 78
2, 1818, Control_c, 0, 64, 50
2, 1821, Note_on_c, 0, 53, 57
2, 1893, Note_on_c, 0, 80, 0
2, 1901, Note_on_c, 0, 73, 65
2, 1967, Note_on_c, 0, 73, 0
2, 1980, Note_on_c, 0, 80, 86
2, 2031, Note_on_c, 0, 53, 0
2, 2063, Note_on_c, 0, 80, 0
2, 2078, Note_on_c, 0, 73, 66
2, 2121, Note_on_c, 0, 73, 0
2, 2142, Note_on_c, 0, 80, 83
2, 2157, Note_on_c, 0, 61, 56
2, 2197, Note_on_c, 0, 61, 0
2, 2220, Note_on_c, 0, 73, 73
2, 2225, Note_on_c, 0, 80, 0
2, 2307, Note_on_c, 0, 73, 0
2, 2320, Note_on_c, 0, 82, 80
2, 2324, Note_on_c, 0, 54, 61
2, 2381, Control_c, 0, 64, 49
2, 2409, Note_on_c, 0, 82, 0
2, 2412, Note_on_c, 0, 73, 70
2, 2478, Note_on_c, 0, 73, 0
2, 2479, Note_on_c, 0, 82, 82
2, 2537, Note_on_c, 0, 54, 0
2, 2577, Note_on_c, 0, 82, 0
2, 2586, Note_on_c, 0, 73, 72
2, 2617, Control_c, 0, 64, 49
2, 2649, Note_on_c, 0, 73, 0
2, 2664, Note_on_c, 0, 82, 81
2, 2684, Note_on_c, 0, 61, 50
2, 2729, Note_on_c, 0, 61, 0
2, 2757, Note_on_c, 0, 73, 66
2, 2757, Note_on_c, 0, 82, 0
2, 2834, Note_on_c, 0, 73, 0
2, 2852, Note_on_c, 0, 53, 66
2, 2854, Note_on_c, 0, 80, 70
2, 2860, Control_c, 0, 64, 48
2, 2922, Note_on_c, 0, 80, 0
2, 2929, Note_on_c, 0, 73, 62
2, 3008, Note_on_c, 0, 73, 0
2, 3023, Note_on_c, 0, 80, 70
2, 3049, Note_on_c, 0, 53, 0
2, 3091, Note_on_c, 0, 80, 0
2, 3101, Note_on_c, 0, 73, 62
2, 3157, Note_on_c, 0, 73, 0
2, 3192, Note_on_c, 0, 80, 62
2, 3200, Note_on_c, 0, 61, 49
2, 3234, Note_on_c, 0, 80, 0
2, 3243, Note_on_c, 0, 61, 0
2, 3272, Note_on_c, 0, 73, 61
2, 3384, Note_on_c, 0, 51, 57
2, 3385, Note_on_c, 0, 73, 0
2, 3390, Note_on_c, 0, 78, 61
2, 3472, Note_on_c, 0, 77, 66
2, 3481, Note_on_c, 0, 78, 0
2, 3551, Note_on_c, 0, 77, 0
2, 3552, Control_c, 0, 64, 48
2, 3561, Note_on_c, 0, 75, 73
2, 3564, Note_on_c, 0, 51, 0
2, 3634, Note_on_c, 0, 75, 0
2, 3639, Note_on_c, 0, 77, 72
2, 3723, Note_on_c, 0, 78, 67
2, 3727, Note_on_c, 0, 77, 0
2, 3735, Note_on_c, 0, 60, 49
2, 3781, Note_on_c, 0, 60, 0
2, 3797, Note_on_c, 0, 75, 71
2, 3801, Note_on_c, 0, 78, 0
2, 3885, Note_on_c, 0, 75, 0
2, 3900, Note_on_c, 0, 77, 66
2, 3902, Note_on_c, 0, 49, 57
2, 3989, Note_on_c, 0, 77, 0
2, 3996, Note_on_c, 0, 75, 70
2, 4012, Note_on_c, 0, 49, 0
2, 4072, Note_on_c, 0, 75, 0
2, 4092, Note_on_c, 0, 73, 71
2, 4168, Control_c, 0, 64, 48
2, 4173, Note_on_c, 0, 75, 64
2, 4176, Note_on_c, 0, 73, 0
2, 4260, Control_c, 0, 64, 50
2, 4261, Note_on_c, 0, 61, 71
2, 4262, Note_on_c, 0, 75, 0
2, 4264, Note_on_c, 0, 77, 64
2, 4275, Control_c, 0, 64, 52
2, 4291, Control_c, 0, 64, 57
2, 4306, Control_c, 0, 64, 63
2, 4319, Control_c, 0, 64, 71
2, 4335, Control_c, 0, 64, 83
2, 4338, Note_on_c, 0, 73, 66
2, 4343, Note_on_c, 0, 77, 0
2, 4350, Control_c, 0, 64, 127
2, 4425, Note_on_c, 0, 75, 70
2, 4433, Note_on_c, 0, 61, 0
2, 4441, Note_on_c, 0, 73, 0
2, 4501, Note_on_c, 0, 75, 0
2, 4521, Note_on_c, 0, 77, 69
2, 4579, Control_c, 0, 64, 107
2, 4594, Control_c, 0, 64, 97
2, 4594, Note_on_c, 0, 60, 45
2, 4607, Note_on_c, 0, 75, 72
2, 4609, Control_c, 0, 64, 89
2, 4624, Control_c, 0, 64, 82
2, 4634, Note_on_c, 0, 77, 0
2, 4639, Control_c, 0, 64, 75
2, 4654, Control_c, 0, 64, 67
2, 4658, Note_on_c, 0, 60, 0
2, 4669, Control_c, 0, 64, 63
2, 4684, Control_c, 0, 64, 58
2, 4688, Note_on_c, 0, 58, 59
2, 4695, Note_on_c, 0, 73, 69
2, 4697, Note_on_c, 0, 75, 0
2, 4700, Control_c, 0, 64, 58
2, 4745, Control_c, 0, 64, 56
2, 4747, Note_on_c, 0, 58, 0
2, 4751, Note_on_c, 0, 73, 0
2, 4759, Note_on_c, 0, 56, 60
2, 4760, Control_c, 0, 64, 54
2, 4775, Control_c, 0, 64, 51
2, 4775, Note_on_c, 0, 72, 63
2, 4790, Control_c, 0, 64, 49
2, 4805, Control_c, 0, 64, 49
2, 4815, Note_on_c, 0, 72, 0
2, 4837, Note_on_c, 0, 56, 0
2, 4863, Note_on_c, 0, 70, 68
2, 4872, Note_on_c, 0, 58, 58
2, 4922, Note_on_c, 0, 70, 0
2, 4924, Note_on_c, 0, 58, 0
2, 4955, Note_on_c, 0, 68, 59
2, 4964, Note_on_c, 0, 60, 55
2, 5026, Note_on_c, 0, 60, 0
2, 5040, Note_on_c, 0, 56, 51
2, 5042, Control_c, 0, 64, 48
2, 5073, Control_c, 0, 64, 48
2, 5096, Note_on_c, 0, 56, 0
2, 5117, Note_on_c, 0, 51, 59
2, 5118, Control_c, 0, 64, 47
2, 5142, Note_on_c, 0, 68, 0
2, 5221, Note_on_c, 0, 51, 0
2, 5226, Note_on_c, 0, 56, 50
2, 5261, Note_on_c, 0, 56, 0
2, 5283, Note_on_c, 0, 80, 60
2, 5296, Note_on_c, 0, 60, 58
2, 5316, Note_on_c, 0, 80, 0
2, 5338, Note_on_c, 0, 60, 0
2, 5361, Note_on_c, 0, 56, 52
2, 5435, Note_on_c, 0, 56, 0
2, 5453, Control_c, 0, 64, 47
2, 5457, Note_on_c, 0, 70, 69
2, 5471, Note_on_c, 0, 61, 57
2, 5533, Note_on_c, 0, 61, 0
2, 5551, Note_on_c, 0, 56, 54
2, 5608, Note_on_c, 0, 56, 0
2, 5642, Note_on_c, 0, 61, 64
2, 5678, Note_on_c, 0, 70, 0
2, 5702, Note_on_c, 0, 61, 0
2, 5714, Note_on_c, 0, 56, 57
2, 5785, Note_on_c, 0, 56, 0
2, 5803, Note_on_c, 0, 61, 59
2, 5809, Note_on_c, 0, 80, 68
2, 5853, Note_on_c, 0, 80, 0
2, 5865, Note_on_c, 0, 61, 0
2, 5868, Note_on_c, 0, 56, 57
2, 5958, Note_on_c, 0, 56, 0
2, 5986, Note_on_c, 0, 63, 63
2, 5988, Note_on_c, 0, 72, 82
2, 6057, Note_on_c, 0, 63, 0
2, 6067, Note_on_c, 0, 56, 62
2, 6144, Note_on_c, 0, 56, 0
2, 6162, Note_on_c, 0, 63, 70
2, 6213, Note_on_c, 0, 72, 0
2, 6226, Note_on_c, 0, 63, 0
2, 6237, Note_on_c, 0, 56, 64
2, 6324, Note_on_c, 0, 56, 0
2, 6328, Note_on_c, 0, 80, 68
2, 6342, Note_on_c, 0, 63, 70
2, 6371, Note_on_c, 0, 80, 0
2, 6413, Note_on_c, 0, 63, 0
2, 6426, Note_on_c, 0, 56, 61
2, 6502, Note_on_c, 0, 56, 0
2, 6520, Note_on_c, 0, 73, 80
2, 6542, Note_on_c, 0, 65, 61
2, 6597, Note_on_c, 0, 65, 0
2, 6614, Note_on_c, 0, 56, 68
2, 6682, Note_on_c, 0, 56, 0
2, 6712, Note_on_c, 0, 65, 65
2, 6747, Note_on_c, 0, 65, 0
2, 6779, Note_on_c, 0, 73, 0
2, 6791, Note_on_c, 0, 56, 60
2, 6838, Note_on_c, 0, 56, 0
2, 6869, Note_on_c, 0, 80, 66
2, 6871, Note_on_c, 0, 65, 55
2, 6909, Note_on_c, 0, 65, 0
2, 6909, Note_on_c, 0, 80, 0
2, 6927, Control_c, 0, 64, 46
2, 6952, Note_on_c, 0, 56, 63
2, 7013, Note_on_c, 0, 56, 0
2, 7055, Note_on_c, 0, 72, 72
2, 7058, Note_on_c, 0, 63, 56
2, 7107, Note_on_c, 0, 63, 0
2, 7132, Note_on_c, 0, 56, 62
2, 7205, Note_on_c, 0, 56, 0
2, 7238, Control_c, 0, 64, 46
2, 7242, Note_on_c, 0, 63, 62
2, 7281, Note_on_c, 0, 72, 0
2, 7283, Note_on_c, 0, 63, 0
2, 7319, Note_on_c, 0, 56, 60
2, 7377, Note_on_c, 0, 56, 0
2, 7408, Note_on_c, 0, 80, 63
2, 7419, Note_on_c, 0, 63, 58
2, 7470, Note_on_c, 0, 80, 0
2, 7505, Note_on_c, 0, 63, 0
2, 7550, Note_on_c, 0, 60, 48
2, 7597, Note_on_c, 0, 60, 0
2, 7602, Note_on_c, 0, 70, 67
2, 7623, Note_on_c, 0, 61, 71
2, 7721, Note_on_c, 0, 61, 0
2, 7740, Note_on_c, 0, 60, 64
2, 7780, Note_on_c, 0, 79, 57
2, 7799, Note_on_c, 0, 60, 0
2, 7814, Note_on_c, 0, 70, 0
2, 7838, Note_on_c, 0, 58, 42
2, 7872, Note_on_c, 0, 79, 0
2, 7956, Note_on_c, 0, 58, 0
2, 8022, Note_on_c, 0, 60, 57
2, 8060, Note_on_c, 0, 68, 77
2, 8146, Note_on_c, 0, 60, 0
2, 8147, Note_on_c, 0, 68, 0
2, 8188, Note_on_c, 0, 56, 50
2, 8253, Note_on_c, 0, 58, 61
2, 8263, Note_on_c, 0, 56, 0
2, 8331, Note_on_c, 0, 58, 0
2, 8340, Note_on_c, 0, 60, 70
2, 8421, Note_on_c, 0, 60, 0
2, 8516, Note_on_c, 0, 68, 78
2, 8517, Note_on_c, 0, 60, 66
2, 8539, Control_c, 0, 64, 52
2, 8554, Control_c, 0, 64, 57
2, 8570, Control_c, 0, 64, 61
2, 8599, Control_c, 0, 64, 59
2, 8615, Control_c, 0, 64, 56
2, 8615, Note_on_c, 0, 58, 66
2, 8615, Note_on_c, 0, 60, 0
2, 8630, Control_c, 0, 64, 50
2, 8639, Note_on_c, 0, 68, 0
2, 8645, Control_c, 0, 64, 28
2, 8661, Control_c, 0, 64, 0
2, 8674, Note_on_c, 0, 58, 0
2, 8695, Note_on_c, 0, 56, 65
2, 8772, Note_on_c, 0, 56, 0
2, 8775, Note_on_c, 0, 58, 68
2, 8838, Note_on_c, 0, 58, 0
2, 8854, Note_on_c, 0, 60, 67
2, 8875, Note_on_c, 0, 80, 87
2, 8934, Note_on_c, 0, 60, 0
2, 8948, Note_on_c, 0, 56, 63
2, 9039, Note_on_c, 0, 58, 70
2, 9049, Note_on_c, 0, 56, 0
2, 9107, Note_on_c, 0, 58, 0
2, 9122, Note_on_c, 0, 59, 69
2, 9204, Note_on_c, 0, 59, 0
2, 9225, Note_on_c, 0, 58, 59
2, 9232, Note_on_c, 0, 78, 63
2, 9235, Note_on_c, 0, 80, 0
2, 9295, Note_on_c, 0, 58, 0
2, 9296, Note_on_c, 0, 56, 60
2, 9314, Note_on_c, 0, 77, 67
2, 9347, Note_on_c, 0, 78, 0
2, 9373, Note_on_c, 0, 56, 0
2, 9391, Note_on_c, 0, 54, 7
2, 9391, Note_on_c, 0, 77, 0
2, 9410, Note_on_c, 0, 75, 67
2, 9419, Note_on_c, 0, 54, 0
2, 9441, Note_on_c, 0, 53, 56
2, 9487, Note_on_c, 0, 75, 0
2, 9503, Note_on_c, 0, 77, 59
2, 9524, Note_on_c, 0, 53, 0
2, 9566, Note_on_c, 0, 51, 46
2, 9587, Note_on_c, 0, 77, 0
2, 9588, Control_c, 0, 67, 20
2, 9599, Note_on_c, 0, 78, 60
2, 9603, Control_c, 0, 67, 34
2, 9619, Control_c, 0, 67, 46
2, 9634, Control_c, 0, 67, 69
2, 9651, Control_c, 0, 67, 110
2, 9666, Control_c, 0, 67, 127
2, 9668, Note_on_c, 0, 75, 62
2, 9670, Note_on_c, 0, 78, 0
2, 9727, Note_on_c, 0, 51, 0
2, 9740, Note_on_c, 0, 75, 0
2, 9757, Note_on_c, 0, 70, 59
2, 9849, Note_on_c, 0, 70, 0
2, 9854, Note_on_c, 0, 75, 62
2, 9889, Note_on_c, 0, 63, 38
2, 9904, Note_on_c, 0, 75, 0
2, 9930, Note_on_c, 0, 63, 0
2, 9931, Note_on_c, 0, 78, 63
2, 10015, Note_on_c, 0, 78, 0
2, 10026, Note_on_c, 0, 75, 58
2, 10065, Note_on_c, 0, 53, 38
2, 10103, Note_on_c, 0, 75, 0
2, 10106, Note_on_c, 0, 80, 64
2, 10162, Note_on_c, 0, 80, 0
2, 10193, Note_on_c, 0, 75, 67
2, 10257, Note_on_c, 0, 53, 0
2, 10271, Note_on_c, 0, 75, 0
2, 10288, Note_on_c, 0, 80, 73
2, 10362, Note_on_c, 0, 80, 0
2, 10382, Note_on_c, 0, 75, 70
2, 10445, Note_on_c, 0, 75, 0
2, 10447, Note_on_c, 0, 63, 45
2, 10460, Note_on_c, 0, 80, 78
2, 10487, Note_on_c, 0, 63, 0
2, 10528, Note_on_c, 0, 80, 0
2, 10553, Note_on_c, 0, 75, 67
2, 10617, Note_on_c, 0, 75, 0
2, 10634, Note_on_c, 0, 82, 76
2, 10639, Note_on_c, 0, 54, 48
2, 10708, Note_on_c, 0, 82, 0
2, 10727, Note_on_c, 0, 75, 67
2, 10789, Note_on_c, 0, 75, 0
2, 10810, Note_on_c, 0, 82, 80
2, 10812, Note_on_c, 0, 54, 0
2, 10891, Note_on_c, 0, 82, 0
2, 10906, Note_on_c, 0, 75, 66
2, 10971, Note_on_c, 0, 75, 0
2, 10988, Note_on_c, 0, 63, 48
2, 10989, Note_on_c, 0, 82, 75
2, 11048, Note_on_c, 0, 63, 0
2, 11069, Note_on_c, 0, 82, 0
2, 11088, Note_on_c, 0, 75, 62
2, 11167, Note_on_c, 0, 75, 0
2, 11179, Note_on_c, 0, 56, 41
2, 11184, Note_on_c, 0, 83, 65
2, 11265, Note_on_c, 0, 83, 0
2, 11285, Note_on_c, 0, 75, 58
2, 11353, Note_on_c, 0, 56, 0
2, 11353, Note_on_c, 0, 75, 0
2, 11375, Note_on_c, 0, 83, 65
2, 11435, Note_on_c, 0, 83, 0
2, 11456, Note_on_c, 0, 75, 57
2, 11515, Note_on_c, 0, 75, 0
2, 11527, Note_on_c, 0, 63, 45
2, 11540, Note_on_c, 0, 83, 67
2, 11570, Note_on_c, 0, 63, 0
2, 11605, Note_on_c, 0, 83, 0
2, 11628, Note_on_c, 0, 75, 52
2, 11684, Note_on_c, 0, 75, 0
2, 11714, Note_on_c, 0, 82, 63
2, 11721, Note_on_c, 0, 54, 50
2, 11791, Note_on_c, 0, 82, 0
2, 11813, Note_on_c, 0, 75, 61
2, 11879, Note_on_c, 0, 75, 0
2, 11898, Note_on_c, 0, 54, 0
2, 11903, Note_on_c, 0, 82, 63
2, 11964, Note_on_c, 0, 82, 0
2, 11989, Note_on_c, 0, 75, 56
2, 12046, Note_on_c, 0, 75, 0
2, 12063, Note_on_c, 0, 63, 49
2, 12082, Note_on_c, 0, 82, 59
2, 12113, Note_on_c, 0, 63, 0
2, 12146, Note_on_c, 0, 75, 53
2, 12249, Note_on_c, 0, 53, 57
2, 12255, Note_on_c, 0, 80, 58
2, 12262, Note_on_c, 0, 75, 0
2, 12277, Note_on_c, 0, 82, 0
2, 12344, Note_on_c, 0, 78, 68
2, 12344, Note_on_c, 0, 80, 0
2, 12414, Note_on_c, 0, 78, 0
2, 12428, Note_on_c, 0, 53, 0
2, 12442, Note_on_c, 0, 77, 68
2, 12515, Note_on_c, 0, 77, 0
2, 12518, Note_on_c, 0, 78, 69
2, 12613, Note_on_c, 0, 80, 66
2, 12615, Note_on_c, 0, 62, 43
2, 12622, Note_on_c, 0, 78, 0
2, 12644, Note_on_c, 0, 62, 0
2, 12672, Note_on_c, 0, 80, 0
2, 12693, Note_on_c, 0, 77, 71
2, 12787, Note_on_c, 0, 77, 0
2, 12788, Note_on_c, 0, 51, 65
2, 12799, Note_on_c, 0, 78, 68
2, 12890, Note_on_c, 0, 77, 73
2, 12900, Note_on_c, 0, 51, 0
2, 12950, Note_on_c, 0, 78, 0
2, 12967, Note_on_c, 0, 77, 0
2, 12974, Note_on_c, 0, 75, 74
2, 13068, Note_on_c, 0, 75, 0
2, 13073, Note_on_c, 0, 77, 67
2, 13157, Note_on_c, 0, 63, 75
2, 13158, Note_on_c, 0, 77, 0
2, 13158, Note_on_c, 0, 78, 64
2, 13164, Control_c, 0, 64, 19
2, 13179, Control_c, 0, 64, 48
2, 13195, Control_c, 0, 64, 62
2, 13211, Control_c, 0, 64, 67
2, 13226, Control_c, 0, 64, 74
2, 13241, Note_on_c, 0, 75, 68
2, 13242, Control_c, 0, 64, 85
2, 13248, Note_on_c, 0, 78, 0
2, 13256, Control_c, 0, 64, 101
2, 13271, Control_c, 0, 64, 127
2, 13277, Note_on_c, 0, 63, 0
2, 13341, Note_on_c, 0, 75, 0
2, 13344, Note_on_c, 0, 77, 73
2, 13416, Control_c, 0, 64, 112
2, 13420, Note_on_c, 0, 77, 0
2, 13430, Note_on_c, 0, 78, 70
2, 13431, Control_c, 0, 64, 103
2, 13447, Control_c, 0, 64, 99
2, 13461, Control_c, 0, 64, 97
2, 13476, Control_c, 0, 64, 95
2, 13492, Control_c, 0, 64, 92
2, 13494, Note_on_c, 0, 61, 53
2, 13507, Control_c, 0, 64, 87
2, 13522, Control_c, 0, 64, 81
2, 13528, Note_on_c, 0, 77, 71
2, 13537, Control_c, 0, 64, 73
2, 13552, Control_c, 0, 64, 67
2, 13558, Note_on_c, 0, 61, 0
2, 13568, Control_c, 0, 64, 61
2, 13574, Note_on_c, 0, 78, 0
2, 13583, Control_c, 0, 64, 55
2, 13597, Control_c, 0, 64, 51
2, 13606, Note_on_c, 0, 60, 59
2, 13612, Note_on_c, 0, 75, 75
2, 13613, Control_c, 0, 64, 50
2, 13616, Note_on_c, 0, 77, 0
2, 13628, Control_c, 0, 64, 49
2, 13644, Control_c, 0, 64, 47
2, 13659, Control_c, 0, 64, 46
2, 13664, Note_on_c, 0, 60, 0
2, 13673, Control_c, 0, 64, 45
2, 13679, Note_on_c, 0, 75, 0
2, 13696, Note_on_c, 0, 58, 56
2, 13701, Note_on_c, 0, 73, 63
2, 13719, Control_c, 0, 64, 45
2, 13766, Note_on_c, 0, 73, 0
2, 13769, Note_on_c, 0, 58, 0
2, 13779, Note_on_c, 0, 72, 70
2, 13791, Note_on_c, 0, 60, 56
2, 13834, Note_on_c, 0, 60, 0
2, 13857, Note_on_c, 0, 72, 0
2, 13874, Note_on_c, 0, 61, 54
2, 13885, Note_on_c, 0, 70, 66
2, 13937, Note_on_c, 0, 61, 0
2, 13948, Note_on_c, 0, 58, 56
2, 14008, Note_on_c, 0, 58, 0
2, 14036, Note_on_c, 0, 53, 58
2, 14078, Note_on_c, 0, 70, 0
2, 14150, Note_on_c, 0, 58, 53
2, 14152, Note_on_c, 0, 53, 0
2, 14153, Control_c, 0, 64, 44
2, 14181, Note_on_c, 0, 58, 0
2, 14203, Note_on_c, 0, 61, 62
2, 14211, Note_on_c, 0, 82, 68
2, 14242, Control_c, 0, 64, 44
2, 14248, Note_on_c, 0, 82, 0
2, 14258, Control_c, 0, 64, 43
2, 14269, Note_on_c, 0, 61, 0
2, 14271, Note_on_c, 0, 58, 56
2, 14289, Control_c, 0, 64, 43
2, 14303, Control_c, 0, 64, 42
2, 14343, Note_on_c, 0, 58, 0
2, 14363, Control_c, 0, 64, 42
2, 14381, Note_on_c, 0, 63, 60
2, 14387, Note_on_c, 0, 72, 80
2, 14439, Control_c, 0, 64, 41
2, 14450, Note_on_c, 0, 63, 0
2, 14469, Note_on_c, 0, 58, 61
2, 14501, Control_c, 0, 67, 127
2, 14515, Control_c, 0, 64, 41
2, 14544, Note_on_c, 0, 58, 0
2, 14546, Control_c, 0, 64, 40
2, 14546, Control_c, 0, 67, 126
2, 14558, Note_on_c, 0, 63, 72
2, 14561, Control_c, 0, 67, 125
2, 14577, Control_c, 0, 67, 125
2, 14592, Control_c, 0, 67, 113
2, 14608, Control_c, 0, 67, 92
2, 14622, Control_c, 0, 64, 40
2, 14622, Control_c, 0, 67, 78
2, 14627, Note_on_c, 0, 63, 0
2, 14637, Control_c, 0, 67, 67
2, 14640, Note_on_c, 0, 58, 58
2, 14646, Note_on_c, 0, 72, 0
2, 14653, Control_c, 0, 67, 59
2, 14668, Control_c, 0, 67, 55
2, 14683, Control_c, 0, 67, 51
2, 14699, Control_c, 0, 67, 48
2, 14713, Control_c, 0, 67, 47
2, 14717, Note_on_c, 0, 58, 0
2, 14729, Control_c, 0, 67, 46
2, 14736, Note_on_c, 0, 63, 67
2, 14736, Note_on_c, 0, 82, 71
2, 14744, Control_c, 0, 67, 45
2, 14758, Control_c, 0, 67, 44
2, 14774, Control_c, 0, 67, 42
2, 14789, Control_c, 0, 67, 41
2, 14790, Note_on_c, 0, 82, 0
2, 14793, Note_on_c, 0, 63, 0
2, 14804, Control_c, 0, 67, 40
2, 14816, Note_on_c, 0, 58, 62
2, 14820, Control_c, 0, 64, 39
2, 14843, Control_c, 0, 67, 40
2, 14873, Control_c, 0, 67, 39
2, 14889, Control_c, 0, 64, 39
2, 14909, Note_on_c, 0, 58, 0
2, 14919, Control_c, 0, 67, 38
2, 14925, Note_on_c, 0, 73, 85
2, 14935, Control_c, 0, 64, 38
2, 14942, Note_on_c, 0, 65, 63
2, 14949, Control_c, 0, 64, 38
2, 14949, Control_c, 0, 67, 38
2, 14964, Control_c, 0, 64, 36
2, 14964, Control_c, 0, 67, 37
2, 14980, Control_c, 0, 64, 35
2, 14980, Control_c, 0, 67, 36
2, 14995, Control_c, 0, 64, 34
2, 14995, Control_c, 0, 67, 35
2, 15010, Note_on_c, 0, 65, 0
2, 15011, Control_c, 0, 64, 34
2, 15011, Control_c, 0, 67, 34
2, 15019, Note_on_c, 0, 58, 72
2, 15026, Control_c, 0, 64, 33
2, 15026, Control_c, 0, 67, 32
2, 15041, Control_c, 0, 64, 32
2, 15041, Control_c, 0, 67, 30
2, 15057, Control_c, 0, 67, 26
2, 15071, Control_c, 0, 67, 24
2, 15086, Control_c, 0, 67, 21
2, 15098, Note_on_c, 0, 58, 0
2, 15102, Control_c, 0, 67, 20
2, 15117, Control_c, 0, 67, 20
2, 15118, Note_on_c, 0, 65, 75
2, 15133, Control_c, 0, 64, 32
2, 15133, Control_c, 0, 67, 19
2, 15162, Control_c, 0, 67, 18
2, 15180, Note_on_c, 0, 65, 0
2, 15182, Note_on_c, 0, 73, 0
2, 15200, Note_on_c, 0, 58, 70
2, 15254, Control_c, 0, 67, 18
2, 15275, Note_on_c, 0, 58, 0
2, 15289, Note_on_c, 0, 65, 71
2, 15294, Note_on_c, 0, 82, 71
2, 15335, Note_on_c, 0, 65, 0
2, 15363, Note_on_c, 0, 82, 0
2, 15371, Note_on_c, 0, 58, 63
2, 15455, Note_on_c, 0, 58, 0
2, 15472, Note_on_c, 0, 75, 86
2, 15480, Note_on_c, 0, 66, 65
2, 15497, Control_c, 0, 64, 31
2, 15549, Note_on_c, 0, 66, 0
2, 15556, Note_on_c, 0, 58, 66
2, 15610, Control_c, 0, 64, 31
2, 15646, Note_on_c, 0, 58, 0
2, 15661, Note_on_c, 0, 66, 70
2, 15672, Control_c, 0, 64, 30
2, 15672, Control_c, 0, 67, 18
2, 15688, Control_c, 0, 64, 29
2, 15703, Control_c, 0, 64, 28
2, 15717, Control_c, 0, 64, 27
2, 15717, Control_c, 0, 67, 19
2, 15730, Note_on_c, 0, 66, 0
2, 15733, Control_c, 0, 64, 26
2, 15733, Control_c, 0, 67, 20
2, 15741, Note_on_c, 0, 58, 62
2, 15748, Control_c, 0, 64, 26
2, 15763, Control_c, 0, 64, 25
2, 15763, Control_c, 0, 67, 20
2, 15778, Note_on_c, 0, 75, 0
2, 15793, Control_c, 0, 64, 24
2, 15793, Control_c, 0, 67, 21
2, 15812, Note_on_c, 0, 58, 0
2, 15824, Control_c, 0, 67, 22
2, 15836, Note_on_c, 0, 66, 66
2, 15839, Control_c, 0, 64, 24
2, 15839, Control_c, 0, 67, 22
2, 15848, Note_on_c, 0, 82, 69
2, 15870, Control_c, 0, 64, 23
2, 15870, Control_c, 0, 67, 23
2, 15892, Note_on_c, 0, 66, 0
2, 15901, Control_c, 0, 64, 22
2, 15911, Note_on_c, 0, 58, 61
2, 15915, Control_c, 0, 67, 24
2, 15919, Note_on_c, 0, 82, 0
2, 15979, Note_on_c, 0, 58, 0
2, 16006, Control_c, 0, 64, 21
2, 16019, Note_on_c, 0, 73, 74
2, 16020, Note_on_c, 0, 65, 62
2, 16059, Note_on_c, 0, 65, 0
2, 16082, Control_c, 0, 64, 20
2, 16099, Note_on_c, 0, 58, 65
2, 16113, Control_c, 0, 67, 24
2, 16143, Control_c, 0, 67, 25
2, 16155, Note_on_c, 0, 58, 0
2, 16192, Note_on_c, 0, 65, 62
2, 16231, Note_on_c, 0, 65, 0
2, 16234, Control_c, 0, 67, 26
2, 16269, Note_on_c, 0, 58, 64
2, 16288, Note_on_c, 0, 73, 0
2, 16311, Note_on_c, 0, 58, 0
2, 16352, Note_on_c, 0, 65, 61
2, 16353, Note_on_c, 0, 82, 60
2, 16406, Note_on_c, 0, 65, 0
2, 16426, Note_on_c, 0, 82, 0
2, 16429, Note_on_c, 0, 58, 57
2, 16503, Note_on_c, 0, 58, 0
2, 16537, Note_on_c, 0, 63, 61
2, 16558, Note_on_c, 0, 72, 69
2, 16608, Control_c, 0, 64, 19
2, 16631, Note_on_c, 0, 61, 67
2, 16644, Note_on_c, 0, 63, 0
2, 16708, Note_on_c, 0, 61, 0
2, 16720, Note_on_c, 0, 60, 70
2, 16732, Note_on_c, 0, 72, 0
2, 16805, Note_on_c, 0, 60, 0
2, 16814, Note_on_c, 0, 61, 71
2, 16890, Note_on_c, 0, 61, 0
2, 16893, Note_on_c, 0, 81, 67
2, 16900, Note_on_c, 0, 63, 71
2, 16942, Note_on_c, 0, 81, 0
2, 16968, Note_on_c, 0, 63, 0
2, 16984, Note_on_c, 0, 60, 60
2, 17058, Note_on_c, 0, 60, 0
2, 17073, Note_on_c, 0, 61, 72
2, 17081, Note_on_c, 0, 70, 82
2, 17095, Control_c, 0, 67, 26
2, 17156, Note_on_c, 0, 61, 0
2, 17162, Note_on_c, 0, 60, 70
2, 17260, Note_on_c, 0, 58, 74
2, 17260, Note_on_c, 0, 60, 0
2, 17317, Control_c, 0, 67, 27
2, 17347, Control_c, 0, 67, 28
2, 17349, Note_on_c, 0, 70, 0
2, 17357, Note_on_c, 0, 58, 0
2, 17358, Note_on_c, 0, 60, 78
2, 17391, Control_c, 0, 67, 28
2, 17434, Note_on_c, 0, 60, 0
2, 17443, Note_on_c, 0, 61, 71
2, 17449, Note_on_c, 0, 82, 90
2, 17467, Control_c, 0, 67, 29
2, 17511, Note_on_c, 0, 61, 0
2, 17531, Note_on_c, 0, 58, 66
2, 17599, Note_on_c, 0, 58, 0
2, 17630, Note_on_c, 0, 64, 71
2, 17650, Control_c, 0, 67, 28
2, 17678, Note_on_c, 0, 82, 0
2, 17679, Control_c, 0, 67, 28
2, 17718, Note_on_c, 0, 64, 0
2, 17721, Note_on_c, 0, 62, 74
2, 17755, Control_c, 0, 67, 27
2, 17801, Note_on_c, 0, 62, 0
2, 17808, Note_on_c, 0, 60, 68
2, 17811, Note_on_c, 0, 80, 85
2, 17831, Control_c, 0, 67, 26
2, 17893, Control_c, 0, 64, 18
2, 17899, Note_on_c, 0, 60, 0
2, 17902, Note_on_c, 0, 62, 66
2, 17915, Control_c, 0, 67, 26
2, 17973, Note_on_c, 0, 62, 0
2, 17982, Note_on_c, 0, 79, 83
2, 17990, Note_on_c, 0, 64, 68
2, 17993, Note_on_c, 0, 80, 0
2, 18007, Control_c, 0, 64, 17
2, 18019, Note_on_c, 0, 79, 0
2, 18036, Control_c, 0, 64, 15
2, 18039, Note_on_c, 0, 60, 65
2, 18052, Control_c, 0, 64, 12
2, 18067, Control_c, 0, 64, 10
2, 18067, Control_c, 0, 67, 25
2, 18083, Control_c, 0, 64, 8
2, 18089, Note_on_c, 0, 64, 0
2, 18113, Control_c, 0, 67, 24
2, 18113, Note_on_c, 0, 60, 0
2, 18149, Note_on_c, 0, 65, 65
2, 18152, Note_on_c, 0, 80, 89
2, 18189, Control_c, 0, 64, 0
2, 18189, Note_on_c, 0, 80, 0
2, 18213, Note_on_c, 0, 65, 0
2, 18220, Control_c, 0, 67, 25
2, 18231, Note_on_c, 0, 64, 62
2, 18306, Note_on_c, 0, 64, 0
2, 18322, Note_on_c, 0, 65, 68
2, 18336, Note_on_c, 0, 68, 80
2, 18371, Note_on_c, 0, 65, 0
2, 18372, Note_on_c, 0, 68, 0
2, 18396, Note_on_c, 0, 67, 61
2, 18464, Note_on_c, 0, 67, 0
2, 18491, Note_on_c, 0, 65, 66
2, 18501, Note_on_c, 0, 80, 87
2, 18575, Note_on_c, 0, 63, 70
2, 18575, Note_on_c, 0, 65, 0
2, 18645, Note_on_c, 0, 63, 0
2, 18687, Note_on_c, 0, 62, 72
2, 18752, Note_on_c, 0, 62, 0
2, 18768, Note_on_c, 0, 60, 71
2, 18845, Note_on_c, 0, 60, 0
2, 18857, Note_on_c, 0, 80, 0
2, 18858, Note_on_c, 0, 78, 75
2, 18859, Note_on_c, 0, 58, 71
2, 18865, Control_c, 0, 67, 26
2, 18942, Control_c, 0, 67, 26
2, 18945, Note_on_c, 0, 58, 0
2, 18952, Note_on_c, 0, 60, 71
2, 19007, Note_on_c, 0, 60, 0
2, 19021, Note_on_c, 0, 62, 68
2, 19063, Note_on_c, 0, 77, 76
2, 19092, Note_on_c, 0, 62, 0
2, 19098, Note_on_c, 0, 78, 0
2, 19103, Note_on_c, 0, 58, 70
2, 19166, Note_on_c, 0, 58, 0
2, 19205, Note_on_c, 0, 63, 74
2, 19210, Note_on_c, 0, 77, 0
2, 19222, Note_on_c, 0, 78, 76
2, 19239, Note_on_c, 0, 63, 0
2, 19277, Control_c, 0, 67, 26
2, 19307, Control_c, 0, 67, 25
2, 19313, Note_on_c, 0, 77, 78
2, 19333, Note_on_c, 0, 78, 0
2, 19338, Control_c, 0, 67, 24
2, 19352, Control_c, 0, 67, 24
2, 19379, Note_on_c, 0, 51, 73
2, 19383, Control_c, 0, 67, 23
2, 19396, Note_on_c, 0, 77, 0
2, 19404, Note_on_c, 0, 75, 81
2, 19416, Note_on_c, 0, 51, 0
2, 19452, Control_c, 0, 67, 22
2, 19498, Note_on_c, 0, 77, 76
2, 19501, Note_on_c, 0, 75, 0
2, 19528, Control_c, 0, 67, 22
2, 19557, Control_c, 0, 67, 21
2, 19581, Note_on_c, 0, 78, 73
2, 19582, Note_on_c, 0, 63, 79
2, 19589, Note_on_c, 0, 77, 0
2, 19619, Control_c, 0, 67, 20
2, 19655, Note_on_c, 0, 75, 77
2, 19669, Note_on_c, 0, 78, 0
2, 19695, Control_c, 0, 67, 20
2, 19744, Note_on_c, 0, 81, 77
2, 19745, Note_on_c, 0, 75, 0
2, 19831, Note_on_c, 0, 79, 80
2, 19850, Note_on_c, 0, 81, 0
2, 19912, Note_on_c, 0, 79, 0
2, 19924, Note_on_c, 0, 77, 84
2, 19930, Note_on_c, 0, 61, 73
2, 19950, Note_on_c, 0, 63, 0
2, 19954, Control_c, 0, 67, 19
2, 20006, Note_on_c, 0, 79, 82
2, 20015, Note_on_c, 0, 77, 0
2, 20093, Note_on_c, 0, 81, 83
2, 20097, Note_on_c, 0, 60, 76
2, 20102, Note_on_c, 0, 79, 0
2, 20109, Note_on_c, 0, 61, 0
2, 20122, Control_c, 0, 67, 18
2, 20128, Note_on_c, 0, 60, 0
2, 20164, Note_on_c, 0, 81, 0
2, 20181, Note_on_c, 0, 77, 82
2, 20279, Note_on_c, 0, 82, 83
2, 20282, Note_on_c, 0, 77, 0
2, 20285, Note_on_c, 0, 61, 76
2, 20333, Note_on_c, 0, 61, 0
2, 20369, Note_on_c, 0, 81, 78
2, 20373, Note_on_c, 0, 82, 0
2, 20458, Note_on_c, 0, 82, 86
2, 20463, Note_on_c, 0, 49, 61
2, 20467, Note_on_c, 0, 81, 0
2, 20501, Note_on_c, 0, 49, 0
2, 20529, Note_on_c, 0, 82, 0
2, 20539, Note_on_c, 0, 84, 78
2, 20586, Control_c, 0, 67, 19
2, 20629, Note_on_c, 0, 82, 82
2, 20649, Note_on_c, 0, 84, 0
2, 20653, Note_on_c, 0, 61, 71
2, 20714, Note_on_c, 0, 80, 79
2, 20752, Control_c, 0, 67, 20
2, 20757, Note_on_c, 0, 82, 0
2, 20805, Note_on_c, 0, 79, 79
2, 20817, Note_on_c, 0, 80, 0
2, 20859, Control_c, 0, 67, 20
2, 20869, Note_on_c, 0, 79, 0
2, 20887, Note_on_c, 0, 77, 77
2, 20975, Note_on_c, 0, 77, 0
2, 20988, Note_on_c, 0, 75, 77
2, 21015, Note_on_c, 0, 60, 64
2, 21017, Note_on_c, 0, 61, 0
2, 21019, Control_c, 0, 67, 21
2, 21064, Control_c, 0, 67, 22
2, 21075, Note_on_c, 0, 78, 57
2, 21082, Note_on_c, 0, 75, 0
2, 21087, Note_on_c, 0, 77, 83
2, 21100, Note_on_c, 0, 78, 0
2, 21147, Note_on_c, 0, 60, 0
2, 21163, Note_on_c, 0, 58, 65
2, 21165, Note_on_c, 0, 77, 0
2, 21173, Note_on_c, 0, 79, 76
2, 21186, Control_c, 0, 67, 22
2, 21201, Note_on_c, 0, 58, 0
2, 21235, Note_on_c, 0, 79, 0
2, 21241, Note_on_c, 0, 75, 76
2, 21302, Note_on_c, 0, 75, 0
2, 21338, Control_c, 0, 67, 23
2, 21339, Note_on_c, 0, 80, 82
2, 21353, Note_on_c, 0, 60, 54
2, 21374, Note_on_c, 0, 80, 0
2, 21412, Note_on_c, 0, 60, 0
2, 21415, Control_c, 0, 67, 24
2, 21446, Note_on_c, 0, 58, 64
2, 21475, Control_c, 0, 67, 24
2, 21521, Note_on_c, 0, 68, 76
2, 21522, Control_c, 0, 67, 25
2, 21534, Note_on_c, 0, 58, 0
2, 21546, Note_on_c, 0, 68, 0
2, 21553, Note_on_c, 0, 56, 58
2, 21643, Control_c, 0, 67, 26
2, 21684, Note_on_c, 0, 58, 26
2, 21698, Note_on_c, 0, 80, 80
2, 21699, Note_on_c, 0, 56, 0
2, 21715, Note_on_c, 0, 58, 0
2, 21715, Note_on_c, 0, 60, 74
2, 21797, Note_on_c, 0, 60, 0
2, 21819, Note_on_c, 0, 56, 62
2, 21881, Note_on_c, 0, 62, 63
2, 21891, Note_on_c, 0, 56, 0
2, 21973, Note_on_c, 0, 62, 0
2, 21981, Note_on_c, 0, 60, 56
2, 22052, Note_on_c, 0, 60, 0
2, 22066, Note_on_c, 0, 58, 66
2, 22091, Note_on_c, 0, 78, 73
2, 22112, Note_on_c, 0, 80, 0
2, 22146, Note_on_c, 0, 58, 0
2, 22157, Note_on_c, 0, 60, 59
2, 22203, Note_on_c, 0, 60, 0
2, 22237, Note_on_c, 0, 62, 56
2, 22248, Note_on_c, 0, 77, 80
2, 22271, Note_on_c, 0, 78, 0
2, 22273, Note_on_c, 0, 77, 0
2, 22302, Note_on_c, 0, 62, 0
2, 22314, Note_on_c, 0, 58, 52
2, 22381, Note_on_c, 0, 58, 0
2, 22397, Note_on_c, 0, 63, 63
2, 22441, Note_on_c, 0, 77, 67
2, 22470, Note_on_c, 0, 77, 0
2, 22472, Note_on_c, 0, 63, 0
2, 22500, Note_on_c, 0, 62, 53
2, 22590, Note_on_c, 0, 62, 0
2, 22602, Note_on_c, 0, 66, 71
2, 22608, Note_on_c, 0, 63, 61
2, 22634, Note_on_c, 0, 66, 0
2, 22643, Note_on_c, 0, 63, 0
2, 22674, Note_on_c, 0, 65, 50
2, 22745, Note_on_c, 0, 65, 0
2, 22759, Note_on_c, 0, 63, 56
2, 22776, Note_on_c, 0, 78, 78
2, 22796, Control_c, 0, 67, 26
2, 22867, Note_on_c, 0, 63, 0
2, 22868, Note_on_c, 0, 61, 62
2, 22873, Control_c, 0, 67, 27
2, 22904, Control_c, 0, 67, 28
2, 22910, Note_on_c, 0, 61, 0
2, 22934, Control_c, 0, 67, 29
2, 22949, Control_c, 0, 67, 30
2, 22965, Control_c, 0, 67, 32
2, 22967, Note_on_c, 0, 60, 62
2, 22979, Control_c, 0, 67, 33
2, 22994, Control_c, 0, 67, 35
2, 23010, Control_c, 0, 67, 36
2, 23025, Control_c, 0, 67, 39
2, 23042, Control_c, 0, 67, 41
2, 23045, Note_on_c, 0, 60, 0
2, 23057, Control_c, 0, 67, 44
2, 23057, Note_on_c, 0, 58, 63
2, 23072, Control_c, 0, 67, 46
2, 23087, Control_c, 0, 67, 49
2, 23102, Control_c, 0, 67, 54
2, 23107, Note_on_c, 0, 78, 0
2, 23117, Control_c, 0, 67, 66
2, 23124, Note_on_c, 0, 77, 63
2, 23126, Note_on_c, 0, 58, 0
2, 23133, Control_c, 0, 67, 79
2, 23144, Note_on_c, 0, 56, 61
2, 23146, Control_c, 0, 67, 95
2, 23160, Control_c, 0, 67, 114
2, 23176, Control_c, 0, 67, 127
2, 23215, Note_on_c, 0, 56, 0
2, 23220, Note_on_c, 0, 58, 54
2, 23268, Note_on_c, 0, 58, 0
2, 23298, Note_on_c, 0, 60, 59
2, 23311, Note_on_c, 0, 77, 0
2, 23323, Note_on_c, 0, 75, 66
2, 23354, Note_on_c, 0, 60, 0
2, 23380, Note_on_c, 0, 56, 59
2, 23428, Note_on_c, 0, 56, 0
2, 23458, Note_on_c, 0, 75, 0
2, 23485, Note_on_c, 0, 77, 60
2, 23492, Note_on_c, 0, 61, 60
2, 23526, Note_on_c, 0, 61, 0
2, 23570, Note_on_c, 0, 77, 0
2, 23575, Note_on_c, 0, 75, 64
2, 23643, Note_on_c, 0, 75, 0
2, 23658, Note_on_c, 0, 49, 52
2, 23663, Note_on_c, 0, 73, 63
2, 23692, Note_on_c, 0, 49, 0
2, 23757, Note_on_c, 0, 73, 0
2, 23757, Note_on_c, 0, 75, 55
2, 23831, Note_on_c, 0, 75, 0
2, 23836, Note_on_c, 0, 77, 60
2, 23850, Note_on_c, 0, 61, 49
2, 23922, Note_on_c, 0, 73, 55
2, 23922, Note_on_c, 0, 77, 0
2, 23999, Note_on_c, 0, 73, 0
2, 24005, Note_on_c, 0, 79, 60
2, 24089, Note_on_c, 0, 79, 0
2, 24092, Note_on_c, 0, 77, 68
2, 24153, Note_on_c, 0, 77, 0
2, 24176, Note_on_c, 0, 61, 0
2, 24191, Note_on_c, 0, 75, 65
2, 24197, Note_on_c, 0, 59, 55
2, 24262, Note_on_c, 0, 75, 0
2, 24272, Note_on_c, 0, 77, 70
2, 24344, Note_on_c, 0, 77, 0
2, 24346, Note_on_c, 0, 59, 0
2, 24351, Note_on_c, 0, 80, 71
2, 24359, Note_on_c, 0, 58, 61
2, 24382, Note_on_c, 0, 80, 0
2, 24387, Note_on_c, 0, 58, 0
2, 24401, Note_on_c, 0, 79, 36
2, 24431, Note_on_c, 0, 79, 0
2, 24440, Note_on_c, 0, 75, 64
2, 24504, Note_on_c, 0, 75, 0
2, 24525, Note_on_c, 0, 59, 59
2, 24525, Note_on_c, 0, 80, 64
2, 24563, Note_on_c, 0, 59, 0
2, 24592, Note_on_c, 0, 80, 0
2, 24612, Note_on_c, 0, 79, 65
2, 24690, Note_on_c, 0, 47, 59
2, 24698, Note_on_c, 0, 79, 0
2, 24708, Note_on_c, 0, 80, 62
2, 24720, Note_on_c, 0, 47, 0
2, 24748, Note_on_c, 0, 80, 0
2, 24771, Note_on_c, 0, 82, 62
2, 24873, Note_on_c, 0, 80, 63
2, 24890, Note_on_c, 0, 59, 57
2, 24893, Note_on_c, 0, 82, 0
2, 24956, Note_on_c, 0, 78, 67
2, 24957, Note_on_c, 0, 80, 0
2, 25021, Note_on_c, 0, 78, 0
2, 25048, Note_on_c, 0, 77, 65
2, 25123, Note_on_c, 0, 77, 0
2, 25136, Note_on_c, 0, 75, 60
2, 25194, Note_on_c, 0, 59, 0
2, 25209, Note_on_c, 0, 75, 0
2, 25225, Note_on_c, 0, 73, 61
2, 25230, Note_on_c, 0, 58, 45
2, 25294, Note_on_c, 0, 75, 52
2, 25302, Note_on_c, 0, 73, 0
2, 25371, Note_on_c, 0, 75, 0
2, 25386, Note_on_c, 0, 58, 0
2, 25390, Note_on_c, 0, 77, 64
2, 25398, Note_on_c, 0, 56, 45
2, 25430, Note_on_c, 0, 56, 0
2, 25464, Note_on_c, 0, 77, 0
2, 25476, Note_on_c, 0, 73, 53
2, 25559, Note_on_c, 0, 73, 0
2, 25568, Note_on_c, 0, 58, 41
2, 25599, Note_on_c, 0, 66, 50
2, 25638, Note_on_c, 0, 58, 0
2, 25665, Note_on_c, 0, 54, 49
2, 25714, Note_on_c, 0, 54, 0
2, 25742, Note_on_c, 0, 49, 50
2, 25770, Note_on_c, 0, 66, 0
2, 25827, Note_on_c, 0, 54, 54
2, 25839, Note_on_c, 0, 49, 0
2, 25880, Note_on_c, 0, 54, 0
2, 25910, Note_on_c, 0, 58, 55
2, 25911, Note_on_c, 0, 78, 59
2, 25942, Note_on_c, 0, 78, 0
2, 25974, Note_on_c, 0, 58, 0
2, 26021, Note_on_c, 0, 54, 46
2, 26056, Note_on_c, 0, 54, 0
2, 26075, Note_on_c, 0, 68, 63
2, 26092, Note_on_c, 0, 59, 54
2, 26147, Note_on_c, 0, 59, 0
2, 26169, Note_on_c, 0, 54, 50
2, 26239, Note_on_c, 0, 54, 0
2, 26264, Note_on_c, 0, 59, 61
2, 26288, Note_on_c, 0, 68, 0
2, 26313, Note_on_c, 0, 59, 0
2, 26364, Note_on_c, 0, 54, 54
2, 26405, Note_on_c, 0, 54, 0
2, 26436, Note_on_c, 0, 59, 63
2, 26446, Note_on_c, 0, 78, 63
2, 26479, Note_on_c, 0, 59, 0
2, 26481, Note_on_c, 0, 78, 0
2, 26511, Note_on_c, 0, 54, 55
2, 26577, Note_on_c, 0, 54, 0
2, 26617, Note_on_c, 0, 70, 77
2, 26618, Note_on_c, 0, 61, 54
2, 26670, Note_on_c, 0, 61, 0
2, 26697, Note_on_c, 0, 54, 61
2, 26772, Note_on_c, 0, 54, 0
2, 26783, Note_on_c, 0, 61, 67
2, 26849, Note_on_c, 0, 70, 0
2, 26855, Note_on_c, 0, 61, 0
2, 26860, Note_on_c, 0, 54, 57
2, 26944, Note_on_c, 0, 54, 0
2, 26960, Note_on_c, 0, 61, 62
2, 26968, Note_on_c, 0, 78, 71
2, 27006, Note_on_c, 0, 78, 0
2, 27014, Note_on_c, 0, 61, 0
2, 27024, Note_on_c, 0, 54, 59
2, 27129, Note_on_c, 0, 54, 0
2, 27151, Note_on_c, 0, 63, 64
2, 27154, Note_on_c, 0, 71, 78
2, 27225, Note_on_c, 0, 63, 0
2, 27237, Note_on_c, 0, 54, 62
2, 27319, Note_on_c, 0, 54, 0
2, 27334, Note_on_c, 0, 63, 65
2, 27400, Note_on_c, 0, 63, 0
2, 27416, Note_on_c, 0, 54, 60
2, 27423, Note_on_c, 0, 71, 0
2, 27488, Note_on_c, 0, 54, 0
2, 27513, Note_on_c, 0, 63, 60
2, 27523, Note_on_c, 0, 78, 59
2, 27556, Note_on_c, 0, 63, 0
2, 27575, Note_on_c, 0, 78, 0
2, 27586, Note_on_c, 0, 54, 60
2, 27643, Note_on_c, 0, 54, 0
2, 27680, Note_on_c, 0, 61, 57
2, 27696, Note_on_c, 0, 70, 67
2, 27740, Note_on_c, 0, 61, 0
2, 27762, Note_on_c, 0, 54, 64
2, 27813, Note_on_c, 0, 54, 0
2, 27850, Note_on_c, 0, 61, 67
2, 27906, Note_on_c, 0, 61, 0
2, 27942, Note_on_c, 0, 54, 60
2, 27979, Note_on_c, 0, 70, 0
2, 28009, Note_on_c, 0, 54, 0
2, 28041, Note_on_c, 0, 78, 59
2, 28052, Note_on_c, 0, 61, 47
2, 28075, Note_on_c, 0, 54, 42
2, 28076, Note_on_c, 0, 61, 0
2, 28119, Note_on_c, 0, 78, 0
2, 28163, Note_on_c, 0, 54, 0
2, 28215, Note_on_c, 0, 59, 60
2, 28224, Note_on_c, 0, 68, 65
2, 28296, Note_on_c, 0, 59, 0
2, 28306, Note_on_c, 0, 58, 62
2, 28349, Note_on_c, 0, 58, 0
2, 28371, Note_on_c, 0, 56, 60
2, 28455, Note_on_c, 0, 56, 0
2, 28462, Note_on_c, 0, 58, 64
2, 28462, Note_on_c, 0, 68, 0
2, 28517, Note_on_c, 0, 58, 0
2, 28531, Note_on_c, 0, 59, 55
2, 28546, Note_on_c, 0, 77, 65
2, 28580, Note_on_c, 0, 77, 0
2, 28606, Note_on_c, 0, 59, 0
2, 28616, Note_on_c, 0, 56, 56
2, 28703, Note_on_c, 0, 56, 0
2, 28725, Note_on_c, 0, 58, 62
2, 28727, Note_on_c, 0, 66, 73
2, 28805, Note_on_c, 0, 58, 0
2, 28817, Note_on_c, 0, 56, 67
2, 28902, Note_on_c, 0, 56, 0
2, 28916, Note_on_c, 0, 54, 63
2, 28973, Note_on_c, 0, 66, 0
2, 28998, Note_on_c, 0, 54, 0
2, 29003, Note_on_c, 0, 56, 60
2, 29061, Note_on_c, 0, 78, 77
2, 29064, Note_on_c, 0, 56, 0
2, 29076, Note_on_c, 0, 58, 66
2, 29163, Note_on_c, 0, 54, 65
2, 29167, Note_on_c, 0, 58, 0
2, 29254, Note_on_c, 0, 56, 66
2, 29261, Note_on_c, 0, 54, 0
2, 29330, Note_on_c, 0, 56, 0
2, 29345, Note_on_c, 0, 58, 65
2, 29401, Note_on_c, 0, 78, 0
2, 29404, Note_on_c, 0, 77, 72
2, 29436, Note_on_c, 0, 58, 0
2, 29447, Note_on_c, 0, 56, 67
2, 29496, Note_on_c, 0, 75, 71
2, 29502, Note_on_c, 0, 77, 0
2, 29510, Note_on_c, 0, 56, 0
2, 29516, Note_on_c, 0, 54, 51
2, 29545, Note_on_c, 0, 54, 0
2, 29578, Note_on_c, 0, 75, 0
2, 29584, Note_on_c, 0, 53, 62
2, 29593, Note_on_c, 0, 73, 71
2, 29659, Note_on_c, 0, 53, 0
2, 29666, Note_on_c, 0, 73, 0
2, 29666, Note_on_c, 0, 75, 65
2, 29677, Note_on_c, 0, 51, 54
2, 29763, Note_on_c, 0, 75, 0
2, 29765, Note_on_c, 0, 51, 0
2, 29771, Note_on_c, 0, 77, 70
2, 29792, Note_on_c, 0, 49, 55
2, 29857, Note_on_c, 0, 73, 67
2, 29858, Note_on_c, 0, 77, 0
2, 29940, Note_on_c, 0, 73, 0
2, 29947, Note_on_c, 0, 68, 72
2, 29979, Note_on_c, 0, 49, 0
2, 30036, Note_on_c, 0, 73, 66
2, 30042, Note_on_c, 0, 68, 0
2, 30112, Note_on_c, 0, 73, 0
2, 30121, Note_on_c, 0, 77, 78
2, 30126, Note_on_c, 0, 61, 52
2, 30174, Note_on_c, 0, 61, 0
2, 30220, Note_on_c, 0, 73, 67
2, 30220, Note_on_c, 0, 77, 0
2, 30300, Note_on_c, 0, 51, 57
2, 30314, Note_on_c, 0, 78, 75
2, 30315, Note_on_c, 0, 73, 0
2, 30384, Note_on_c, 0, 78, 0
2, 30409, Note_on_c, 0, 73, 71
2, 30476, Note_on_c, 0, 73, 0
2, 30491, Note_on_c, 0, 51, 0
2, 30492, Note_on_c, 0, 78, 85
2, 30567, Note_on_c, 0, 78, 0
2, 30581, Note_on_c, 0, 73, 73
2, 30645, Note_on_c, 0, 73, 0
2, 30660, Note_on_c, 0, 78, 86
2, 30662, Note_on_c, 0, 61, 54
2, 30711, Note_on_c, 0, 61, 0
2, 30742, Note_on_c, 0, 78, 0
2, 30751, Note_on_c, 0, 73, 72
2, 30818, Note_on_c, 0, 73, 0
2, 30839, Note_on_c, 0, 80, 84
2, 30841, Note_on_c, 0, 53, 49
2, 30930, Note_on_c, 0, 80, 0
2, 30933, Note_on_c, 0, 73, 72
2, 31003, Note_on_c, 0, 73, 0
2, 31021, Note_on_c, 0, 80, 88
2, 31024, Note_on_c, 0, 53, 0
2, 31115, Note_on_c, 0, 73, 73
2, 31115, Note_on_c, 0, 80, 0
2, 31180, Note_on_c, 0, 73, 0
2, 31189, Note_on_c, 0, 80, 87
2, 31197, Note_on_c, 0, 61, 51
2, 31251, Note_on_c, 0, 61, 0
2, 31284, Note_on_c, 0, 73, 71
2, 31293, Note_on_c, 0, 80, 0
2, 31366, Note_on_c, 0, 73, 0
2, 31375, Note_on_c, 0, 54, 51
2, 31378, Note_on_c, 0, 82, 82
2, 31462, Note_on_c, 0, 82, 0
2, 31470, Note_on_c, 0, 73, 71
2, 31534, Note_on_c, 0, 73, 0
2, 31555, Note_on_c, 0, 82, 82
2, 31575, Note_on_c, 0, 54, 0
2, 31637, Note_on_c, 0, 82, 0
2, 31648, Note_on_c, 0, 73, 65
2, 31709, Note_on_c, 0, 73, 0
2, 31737, Note_on_c, 0, 61, 52
2, 31740, Note_on_c, 0, 82, 75
2, 31786, Note_on_c, 0, 61, 0
2, 31825, Note_on_c, 0, 82, 0
2, 31829, Note_on_c, 0, 73, 61
2, 31896, Note_on_c, 0, 73, 0
2, 31913, Note_on_c, 0, 53, 63
2, 31917, Note_on_c, 0, 80, 69
2, 31990, Note_on_c, 0, 80, 0
2, 31998, Note_on_c, 0, 73, 65
2, 32066, Note_on_c, 0, 73, 0
2, 32082, Note_on_c, 0, 53, 0
2, 32092, Note_on_c, 0, 80, 70
2, 32164, Note_on_c, 0, 80, 0
2, 32183, Note_on_c, 0, 73, 63
2, 32249, Note_on_c, 0, 73, 0
2, 32256, Note_on_c, 0, 61, 46
2, 32277, Note_on_c, 0, 80, 65
2, 32295, Note_on_c, 0, 61, 0
2, 32323, Note_on_c, 0, 80, 0
2, 32367, Note_on_c, 0, 73, 58
2, 32432, Note_on_c, 0, 73, 0
2, 32438, Note_on_c, 0, 51, 60
2, 32455, Note_on_c, 0, 78, 63
2, 32544, Note_on_c, 0, 77, 70
2, 32565, Note_on_c, 0, 78, 0
2, 32620, Note_on_c, 0, 51, 0
2, 32622, Note_on_c, 0, 77, 0
2, 32630, Note_on_c, 0, 75, 76
2, 32712, Note_on_c, 0, 75, 0
2, 32712, Note_on_c, 0, 77, 75
2, 32797, Note_on_c, 0, 60, 55
2, 32797, Note_on_c, 0, 78, 71
2, 32802, Note_on_c, 0, 77, 0
2, 32828, Note_on_c, 0, 60, 0
2, 32876, Note_on_c, 0, 75, 72
2, 32877, Note_on_c, 0, 78, 0
2, 32965, Note_on_c, 0, 75, 0
2, 32972, Note_on_c, 0, 49, 63
2, 32981, Note_on_c, 0, 77, 69
2, 33070, Note_on_c, 0, 75, 69
2, 33075, Note_on_c, 0, 77, 0
2, 33104, Note_on_c, 0, 49, 0
2, 33143, Note_on_c, 0, 75, 0
2, 33152, Note_on_c, 0, 73, 71
2, 33239, Note_on_c, 0, 73, 0
2, 33251, Note_on_c, 0, 75, 66
2, 33314, Note_on_c, 0, 61, 62
2, 33331, Note_on_c, 0, 75, 0
2, 33343, Note_on_c, 0, 77, 68
2, 33345, Note_on_c, 0, 61, 0
2, 33436, Note_on_c, 0, 73, 59
2, 33436, Note_on_c, 0, 77, 0
2, 33493, Note_on_c, 0, 54, 73
2, 33508, Note_on_c, 0, 73, 0
2, 33514, Note_on_c, 0, 75, 66
2, 33528, Note_on_c, 0, 54, 0
2, 33570, Note_on_c, 0, 75, 0
2, 33600, Note_on_c, 0, 77, 60
2, 33660, Note_on_c, 0, 53, 59
2, 33681, Note_on_c, 0, 75, 60
2, 33681, Note_on_c, 0, 77, 0
2, 33695, Note_on_c, 0, 53, 0
2, 33741, Note_on_c, 0, 75, 0
2, 33749, Note_on_c, 0, 73, 63
2, 33804, Note_on_c, 0, 73, 0
2, 33826, Note_on_c, 0, 51, 62
2, 33846, Note_on_c, 0, 72, 55
2, 33859, Note_on_c, 0, 51, 0
2, 33892, Note_on_c, 0, 72, 0
2, 33919, Note_on_c, 0, 70, 60
2, 33962, Note_on_c, 0, 70, 0
2, 33996, Note_on_c, 0, 56, 46
2, 34005, Note_on_c, 0, 72, 71
2, 34024, Note_on_c, 0, 56, 0
2, 34061, Note_on_c, 0, 72, 0
2, 34110, Note_on_c, 0, 68, 55
2, 34136, Note_on_c, 0, 68, 0
2, 34175, Note_on_c, 0, 66, 55
2, 34199, Note_on_c, 0, 66, 0
2, 34263, Note_on_c, 0, 68, 63
2, 34294, Note_on_c, 0, 68, 0
2, 34351, Note_on_c, 0, 63, 63
2, 34385, Note_on_c, 0, 63, 0
2, 34412, Note_on_c, 0, 68, 60
2, 34446, Note_on_c, 0, 68, 0
2, 34507, Note_on_c, 0, 56, 62
2, 34516, Note_on_c, 0, 72, 73
2, 34546, Note_on_c, 0, 56, 0
2, 34581, Note_on_c, 0, 72, 0
2, 34608, Note_on_c, 0, 68, 56
2, 34630, Note_on_c, 0, 68, 0
2, 34691, Note_on_c, 0, 66, 59
2, 34721, Note_on_c, 0, 66, 0
2, 34768, Note_on_c, 0, 68, 53
2, 34797, Note_on_c, 0, 68, 0
2, 34871, Note_on_c, 0, 63, 61
2, 34906, Note_on_c, 0, 63, 0
2, 34933, Note_on_c, 0, 68, 57
2, 34974, Note_on_c, 0, 68, 0
2, 35026, Note_on_c, 0, 73, 73
2, 35027, Note_on_c, 0, 56, 57
2, 35070, Note_on_c, 0, 56, 0
2, 35097, Note_on_c, 0, 73, 0
2, 35112, Note_on_c, 0, 68, 57
2, 35139, Note_on_c, 0, 68, 0
2, 35201, Note_on_c, 0, 65, 55
2, 35225, Note_on_c, 0, 65, 0
2, 35274, Note_on_c, 0, 68, 57
2, 35296, Note_on_c, 0, 68, 0
2, 35376, Note_on_c, 0, 61, 62
2, 35410, Note_on_c, 0, 61, 0
2, 35422, Note_on_c, 0, 68, 56
2, 35462, Note_on_c, 0, 68, 0
2, 35535, Note_on_c, 0, 56, 59
2, 35535, Note_on_c, 0, 73, 79
2, 35588, Note_on_c, 0, 56, 0
2, 35614, Note_on_c, 0, 73, 0
2, 35633, Note_on_c, 0, 68, 67
2, 35666, Note_on_c, 0, 68, 0
2, 35720, Note_on_c, 0, 65, 67
2, 35754, Note_on_c, 0, 65, 0
2, 35785, Note_on_c, 0, 68, 69
2, 35817, Note_on_c, 0, 68, 0
2, 35891, Note_on_c, 0, 61, 66
2, 35927, Note_on_c, 0, 61, 0
2, 35965, Note_on_c, 0, 68, 54
2, 36011, Note_on_c, 0, 68, 0
2, 36049, Note_on_c, 0, 56, 59
2, 36056, Note_on_c, 0, 78, 85
2, 36091, Note_on_c, 0, 56, 0
2, 36154, Note_on_c, 0, 68, 67
2, 36159, Note_on_c, 0, 78, 0
2, 36186, Note_on_c, 0, 68, 0
2, 36229, Note_on_c, 0, 63, 67
2, 36262, Note_on_c, 0, 63, 0
2, 36302, Note_on_c, 0, 68, 73
2, 36348, Note_on_c, 0, 68, 0
2, 36416, Note_on_c, 0, 60, 70
2, 36457, Note_on_c, 0, 60, 0
2, 36475, Note_on_c, 0, 68, 63
2, 36553, Note_on_c, 0, 68, 0
2, 36581, Note_on_c, 0, 56, 62
2, 36586, Note_on_c, 0, 78, 82
2, 36632, Note_on_c, 0, 56, 0
2, 36674, Note_on_c, 0, 68, 68
2, 36678, Note_on_c, 0, 78, 0
2, 36714, Note_on_c, 0, 68, 0
2, 36765, Note_on_c, 0, 63, 63
2, 36804, Note_on_c, 0, 63, 0
2, 36834, Note_on_c, 0, 68, 64
2, 36868, Note_on_c, 0, 68, 0
2, 36932, Note_on_c, 0, 60, 59
2, 36978, Note_on_c, 0, 60, 0
2, 37001, Note_on_c, 0, 68, 49
2, 37064, Note_on_c, 0, 68, 0
2, 37114, Note_on_c, 0, 56, 48
2, 37115, Note_on_c, 0, 77, 67
2, 37157, Note_on_c, 0, 56, 0
2, 37201, Note_on_c, 0, 68, 58
2, 37201, Note_on_c, 0, 77, 0
2, 37245, Note_on_c, 0, 68, 0
2, 37293, Note_on_c, 0, 65, 54
2, 37339, Note_on_c, 0, 65, 0
2, 37378, Note_on_c, 0, 68, 53
2, 37406, Note_on_c, 0, 68, 0
2, 37466, Note_on_c, 0, 61, 51
2, 37508, Note_on_c, 0, 61, 0
2, 37522, Note_on_c, 0, 68, 50
2, 37617, Note_on_c, 0, 68, 0
2, 37624, Note_on_c, 0, 56, 45
2, 37635, Note_on_c, 0, 77, 71
2, 37670, Note_on_c, 0, 56, 0
2, 37726, Note_on_c, 0, 77, 0
2, 37739, Note_on_c, 0, 68, 55
2, 37773, Note_on_c, 0, 68, 0
2, 37806, Note_on_c, 0, 65, 57
2, 37853, Note_on_c, 0, 65, 0
2, 37899, Note_on_c, 0, 68, 64
2, 37933, Note_on_c, 0, 68, 0
2, 37989, Note_on_c, 0, 61, 62
2, 38029, Note_on_c, 0, 61, 0
2, 38056, Note_on_c, 0, 68, 69
2, 38111, Note_on_c, 0, 68, 0
2, 38153, Note_on_c, 0, 56, 61
2, 38155, Note_on_c, 0, 79, 82
2, 38200, Note_on_c, 0, 56, 0
2, 38230, Note_on_c, 0, 79, 0
2, 38250, Note_on_c, 0, 70, 65
2, 38290, Note_on_c, 0, 70, 0
2, 38330, Note_on_c, 0, 64, 71
2, 38390, Note_on_c, 0, 64, 0
2, 38411, Note_on_c, 0, 70, 68
2, 38449, Note_on_c, 0, 70, 0
2, 38511, Note_on_c, 0, 61, 67
2, 38545, Note_on_c, 0, 61, 0
2, 38579, Note_on_c, 0, 70, 69
2, 38636, Note_on_c, 0, 70, 0
2, 38676, Note_on_c, 0, 56, 65
2, 38680, Note_on_c, 0, 79, 88
2, 38719, Note_on_c, 0, 56, 0
2, 38776, Note_on_c, 0, 70, 64
2, 38776, Note_on_c, 0, 79, 0
2, 38815, Note_on_c, 0, 70, 0
2, 38852, Note_on_c, 0, 64, 68
2, 38892, Note_on_c, 0, 64, 0
2, 38935, Note_on_c, 0, 70, 64
2, 38963, Note_on_c, 0, 70, 0
2, 39026, Note_on_c, 0, 61, 55
2, 39065, Note_on_c, 0, 61, 0
2, 39066, Note_on_c, 0, 70, 60
2, 39135, Note_on_c, 0, 70, 0
2, 39176, Note_on_c, 0, 80, 64
2, 39178, Note_on_c, 0, 56, 54
2, 39225, Note_on_c, 0, 56, 0
2, 39257, Note_on_c, 0, 72, 68
2, 39259, Note_on_c, 0, 80, 0
2, 39287, Note_on_c, 0, 72, 0
2, 39356, Note_on_c, 0, 63, 61
2, 39391, Note_on_c, 0, 63, 0
2, 39447, Note_on_c, 0, 72, 70
2, 39484, Note_on_c, 0, 72, 0
2, 39534, Note_on_c, 0, 60, 74
2, 39572, Note_on_c, 0, 60, 0
2, 39603, Note_on_c, 0, 72, 73
2, 39631, Control_c, 0, 67, 127
2, 39641, Note_on_c, 0, 72, 0
2, 39644, Control_c, 0, 67, 126
2, 39674, Control_c, 0, 67, 125
2, 39690, Control_c, 0, 67, 123
2, 39703, Note_on_c, 0, 54, 68
2, 39703, Note_on_c, 0, 80, 82
2, 39705, Control_c, 0, 67, 106
2, 39720, Control_c, 0, 64, 45
2, 39720, Control_c, 0, 67, 83
2, 39736, Control_c, 0, 64, 58
2, 39736, Control_c, 0, 67, 57
2, 39751, Control_c, 0, 64, 63
2, 39751, Control_c, 0, 67, 24
2, 39756, Note_on_c, 0, 54, 0
2, 39765, Control_c, 0, 64, 64
2, 39765, Control_c, 0, 67, 0
2, 39781, Control_c, 0, 64, 64
2, 39788, Note_on_c, 0, 72, 75
2, 39796, Control_c, 0, 64, 62
2, 39812, Control_c, 0, 64, 58
2, 39815, Note_on_c, 0, 80, 0
2, 39827, Control_c, 0, 64, 51
2, 39827, Note_on_c, 0, 72, 0
2, 39842, Control_c, 0, 64, 35
2, 39858, Control_c, 0, 64, 0
2, 39882, Note_on_c, 0, 63, 75
2, 39916, Note_on_c, 0, 63, 0
2, 39961, Note_on_c, 0, 72, 72
2, 40001, Note_on_c, 0, 72, 0
2, 40049, Note_on_c, 0, 60, 79
2, 40105, Note_on_c, 0, 60, 0
2, 40115, Note_on_c, 0, 72, 77
2, 40166, Note_on_c, 0, 72, 0
2, 40219, Note_on_c, 0, 53, 75
2, 40231, Note_on_c, 0, 80, 83
2, 40245, Control_c, 0, 64, 45
2, 40261, Control_c, 0, 64, 61
2, 40276, Control_c, 0, 64, 65
2, 40285, Note_on_c, 0, 53, 0
2, 40292, Control_c, 0, 64, 66
2, 40307, Control_c, 0, 64, 65
2, 40321, Control_c, 0, 64, 63
2, 40331, Note_on_c, 0, 73, 75
2, 40332, Note_on_c, 0, 80, 0
2, 40337, Control_c, 0, 64, 58
2, 40352, Control_c, 0, 64, 49
2, 40367, Control_c, 0, 64, 37
2, 40369, Note_on_c, 0, 73, 0
2, 40383, Control_c, 0, 64, 29
2, 40397, Control_c, 0, 64, 26
2, 40405, Note_on_c, 0, 65, 74
2, 40413, Control_c, 0, 64, 20
2, 40428, Control_c, 0, 64, 16
2, 40442, Control_c, 0, 64, 15
2, 40450, Note_on_c, 0, 65, 0
2, 40458, Control_c, 0, 64, 14
2, 40481, Note_on_c, 0, 68, 77
2, 40489, Control_c, 0, 64, 12
2, 40536, Note_on_c, 0, 68, 0
2, 40563, Control_c, 0, 64, 10
2, 40582, Note_on_c, 0, 61, 77
2, 40594, Control_c, 0, 64, 8
2, 40610, Control_c, 0, 64, 0
2, 40645, Note_on_c, 0, 73, 82
2, 40662, Note_on_c, 0, 61, 0
2, 40694, Note_on_c, 0, 73, 0
2, 40746, Note_on_c, 0, 56, 83
2, 40798, Note_on_c, 0, 56, 0
2, 40837, Note_on_c, 0, 77, 82
2, 40892, Note_on_c, 0, 77, 0
2, 40926, Note_on_c, 0, 53, 86
2, 40994, Note_on_c, 0, 53, 0
2, 41023, Note_on_c, 0, 80, 89
2, 41077, Note_on_c, 0, 80, 0
2, 41101, Note_on_c, 0, 51, 77
2, 41157, Note_on_c, 0, 51, 0
2, 41178, Note_on_c, 0, 82, 88
2, 41227, Note_on_c, 0, 82, 0
2, 41264, Note_on_c, 0, 50, 67
2, 41279, Note_on_c, 0, 83, 82
2, 41344, Note_on_c, 0, 50, 0
2, 41366, Note_on_c, 0, 82, 80
2, 41389, Note_on_c, 0, 83, 0
2, 41433, Note_on_c, 0, 53, 62
2, 41444, Note_on_c, 0, 80, 81
2, 41481, Note_on_c, 0, 82, 0
2, 41503, Note_on_c, 0, 53, 0
2, 41517, Note_on_c, 0, 78, 82
2, 41537, Note_on_c, 0, 80, 0
2, 41592, Note_on_c, 0, 78, 0
2, 41605, Note_on_c, 0, 58, 69
2, 41610, Note_on_c, 0, 77, 85
2, 41690, Note_on_c, 0, 58, 0
2, 41691, Note_on_c, 0, 75, 80
2, 41692, Note_on_c, 0, 77, 0
2, 41760, Note_on_c, 0, 75, 0
2, 41786, Note_on_c, 0, 62, 69
2, 41790, Note_on_c, 0, 77, 84
2, 41839, Note_on_c, 0, 62, 0
2, 41866, Note_on_c, 0, 77, 0
2, 41873, Note_on_c, 0, 78, 83
2, 41945, Note_on_c, 0, 65, 75
2, 41962, Note_on_c, 0, 80, 86
2, 41974, Note_on_c, 0, 78, 0
2, 42014, Note_on_c, 0, 65, 0
2, 42042, Note_on_c, 0, 80, 0
2, 42057, Note_on_c, 0, 83, 70
2, 42064, Note_on_c, 0, 82, 58
2, 42113, Note_on_c, 0, 68, 79
2, 42113, Note_on_c, 0, 82, 0
2, 42127, Note_on_c, 0, 82, 63
2, 42150, Note_on_c, 0, 68, 0
2, 42155, Note_on_c, 0, 83, 0
2, 42218, Note_on_c, 0, 80, 80
2, 42229, Note_on_c, 0, 82, 0
2, 42276, Note_on_c, 0, 66, 77
2, 42298, Control_c, 0, 64, 30
2, 42307, Note_on_c, 0, 82, 81
2, 42312, Note_on_c, 0, 80, 0
2, 42313, Control_c, 0, 64, 54
2, 42329, Control_c, 0, 64, 60
2, 42329, Note_on_c, 0, 66, 0
2, 42343, Control_c, 0, 64, 59
2, 42358, Control_c, 0, 64, 56
2, 42371, Note_on_c, 0, 75, 73
2, 42374, Control_c, 0, 64, 48
2, 42376, Note_on_c, 0, 82, 0
2, 42389, Control_c, 0, 64, 0
2, 42398, Note_on_c, 0, 75, 0
2, 42457, Note_on_c, 0, 63, 70
2, 42525, Note_on_c, 0, 63, 0
2, 42536, Note_on_c, 0, 66, 67
2, 42570, Note_on_c, 0, 66, 0
2, 42626, Note_on_c, 0, 58, 71
2, 42658, Note_on_c, 0, 58, 0
2, 42710, Note_on_c, 0, 70, 69
2, 42741, Note_on_c, 0, 70, 0
2, 42793, Note_on_c, 0, 54, 69
2, 42829, Note_on_c, 0, 54, 0
2, 42869, Control_c, 0, 67, 14
2, 42881, Note_on_c, 0, 75, 77
2, 42884, Control_c, 0, 67, 26
2, 42900, Control_c, 0, 67, 39
2, 42915, Control_c, 0, 67, 50
2, 42917, Note_on_c, 0, 75, 0
2, 42931, Control_c, 0, 67, 62
2, 42946, Control_c, 0, 67, 73
2, 42960, Control_c, 0, 67, 82
2, 42975, Note_on_c, 0, 51, 66
2, 42976, Control_c, 0, 67, 92
2, 42991, Control_c, 0, 67, 104
2, 43006, Control_c, 0, 67, 116
2, 43016, Note_on_c, 0, 51, 0
2, 43022, Control_c, 0, 67, 127
2, 43053, Note_on_c, 0, 78, 69
2, 43093, Note_on_c, 0, 78, 0
2, 43143, Note_on_c, 0, 49, 55
2, 43183, Note_on_c, 0, 49, 0
2, 43199, Note_on_c, 0, 80, 65
2, 43246, Note_on_c, 0, 80, 0
2, 43303, Note_on_c, 0, 48, 47
2, 43311, Note_on_c, 0, 81, 59
2, 43352, Note_on_c, 0, 48, 0
2, 43386, Note_on_c, 0, 80, 62
2, 43401, Note_on_c, 0, 81, 0
2, 43461, Note_on_c, 0, 51, 54
2, 43474, Note_on_c, 0, 80, 0
2, 43477, Note_on_c, 0, 78, 68
2, 43505, Note_on_c, 0, 51, 0
2, 43527, Note_on_c, 0, 78, 0
2, 43550, Note_on_c, 0, 76, 67
2, 43636, Note_on_c, 0, 56, 61
2, 43645, Note_on_c, 0, 75, 68
2, 43645, Note_on_c, 0, 76, 0
2, 43676, Note_on_c, 0, 56, 0
2, 43721, Note_on_c, 0, 75, 0
2, 43732, Note_on_c, 0, 73, 70
2, 43813, Note_on_c, 0, 73, 0
2, 43817, Note_on_c, 0, 60, 61
2, 43819, Note_on_c, 0, 75, 70
2, 43854, Note_on_c, 0, 75, 0
2, 43862, Note_on_c, 0, 60, 0
2, 43885, Note_on_c, 0, 76, 75
2, 43967, Note_on_c, 0, 76, 0
2, 43974, Note_on_c, 0, 63, 65
2, 43979, Note_on_c, 0, 78, 76
2, 44011, Note_on_c, 0, 63, 0
2, 44061, Note_on_c, 0, 78, 0
2, 44067, Note_on_c, 0, 81, 73
2, 44147, Note_on_c, 0, 80, 76
2, 44150, Note_on_c, 0, 66, 67
2, 44166, Note_on_c, 0, 81, 0
2, 44184, Note_on_c, 0, 66, 0
2, 44230, Note_on_c, 0, 78, 79
2, 44231, Note_on_c, 0, 80, 0
2, 44315, Note_on_c, 0, 78, 0
2, 44318, Note_on_c, 0, 64, 68
2, 44322, Note_on_c, 0, 80, 84
2, 44374, Note_on_c, 0, 64, 0
2, 44378, Note_on_c, 0, 80, 0
2, 44398, Note_on_c, 0, 73, 68
2, 44434, Note_on_c, 0, 73, 0
2, 44496, Note_on_c, 0, 61, 71
2, 44548, Note_on_c, 0, 61, 0
2, 44572, Note_on_c, 0, 76, 70
2, 44605, Note_on_c, 0, 76, 0
2, 44660, Note_on_c, 0, 57, 77
2, 44704, Note_on_c, 0, 57, 0
2, 44738, Note_on_c, 0, 73, 78
2, 44780, Note_on_c, 0, 73, 0
2, 44844, Note_on_c, 0, 54, 76
2, 44905, Note_on_c, 0, 54, 0
2, 44913, Note_on_c, 0, 69, 75
2, 44952, Note_on_c, 0, 69, 0
2, 45016, Note_on_c, 0, 63, 79
2, 45064, Note_on_c, 0, 63, 0
2, 45073, Note_on_c, 0, 66, 77
2, 45130, Note_on_c, 0, 66, 0
2, 45188, Note_on_c, 0, 60, 76
2, 45239, Note_on_c, 0, 60, 0
2, 45245, Note_on_c, 0, 75, 78
2, 45311, Note_on_c, 0, 75, 0
2, 45346, Note_on_c, 0, 52, 77
2, 45400, Note_on_c, 0, 52, 0
2, 45433, Note_on_c, 0, 68, 82
2, 45490, Note_on_c, 0, 68, 0
2, 45523, Note_on_c, 0, 61, 82
2, 45587, Note_on_c, 0, 61, 0
2, 45622, Note_on_c, 0, 64, 78
2, 45655, Note_on_c, 0, 64, 0
2, 45699, Note_on_c, 0, 57, 80
2, 45744, Note_on_c, 0, 57, 0
2, 45801, Note_on_c, 0, 73, 79
2, 45861, Note_on_c, 0, 73, 0
2, 45876, Note_on_c, 0, 54, 82
2, 45920, Note_on_c, 0, 54, 0
2, 45969, Note_on_c, 0, 69, 76
2, 46004, Note_on_c, 0, 69, 0
2, 46047, Note_on_c, 0, 51, 71
2, 46096, Note_on_c, 0, 51, 0
2, 46131, Note_on_c, 0, 66, 68
2, 46164, Note_on_c, 0, 66, 0
2, 46202, Note_on_c, 0, 48, 53
2, 46247, Note_on_c, 0, 48, 0
2, 46284, Note_on_c, 0, 63, 50
2, 46310, Note_on_c, 0, 63, 0
2, 46354, Note_on_c, 0, 44, 52
2, 46392, Note_on_c, 0, 44, 0
2, 46399, Note_on_c, 0, 60, 56
2, 46449, Note_on_c, 0, 60, 0
2, 46491, Note_on_c, 0, 57, 44
2, 46520, Note_on_c, 0, 57, 0
2, 46536, Note_on_c, 0, 54, 57
2, 46569, Note_on_c, 0, 54, 0
2, 46629, Note_on_c, 0, 56, 59
2, 46664, Note_on_c, 0, 56, 0
2, 46710, Note_on_c, 0, 51, 63
2, 46745, Note_on_c, 0, 51, 0
2, 46782, Note_on_c, 0, 56, 55
2, 46823, Note_on_c, 0, 56, 0
2, 46877, Note_on_c, 0, 44, 44
2, 46890, Note_on_c, 0, 60, 67
2, 46909, Note_on_c, 0, 44, 0
2, 46955, Note_on_c, 0, 60, 0
2, 46977, Note_on_c, 0, 56, 55
2, 47001, Note_on_c, 0, 56, 0
2, 47059, Note_on_c, 0, 54, 55
2, 47100, Note_on_c, 0, 54, 0
2, 47130, Note_on_c, 0, 56, 58
2, 47171, Note_on_c, 0, 56, 0
2, 47224, Note_on_c, 0, 51, 65
2, 47265, Note_on_c, 0, 51, 0
2, 47293, Note_on_c, 0, 56, 59
2, 47346, Note_on_c, 0, 56, 0
2, 47386, Note_on_c, 0, 44, 56
2, 47392, Note_on_c, 0, 61, 71
2, 47428, Note_on_c, 0, 44, 0
2, 47467, Note_on_c, 0, 61, 0
2, 47479, Note_on_c, 0, 56, 58
2, 47511, Note_on_c, 0, 56, 0
2, 47567, Note_on_c, 0, 53, 63
2, 47600, Note_on_c, 0, 53, 0
2, 47626, Note_on_c, 0, 56, 52
2, 47666, Note_on_c, 0, 56, 0
2, 47731, Note_on_c, 0, 49, 62
2, 47770, Note_on_c, 0, 49, 0
2, 47786, Note_on_c, 0, 56, 57
2, 47829, Note_on_c, 0, 56, 0
2, 47909, Note_on_c, 0, 61, 79
2, 47911, Note_on_c, 0, 44, 49
2, 47951, Note_on_c, 0, 44, 0
2, 47974, Note_on_c, 0, 61, 0
2, 47998, Note_on_c, 0, 56, 71
2, 48034, Note_on_c, 0, 56, 0
2, 48077, Note_on_c, 0, 53, 69
2, 48115, Note_on_c, 0, 53, 0
2, 48149, Note_on_c, 0, 56, 70
2, 48182, Note_on_c, 0, 56, 0
2, 48233, Note_on_c, 0, 49, 64
2, 48271, Note_on_c, 0, 49, 0
2, 48312, Note_on_c, 0, 56, 65
2, 48388, Note_on_c, 0, 56, 0
2, 48412, Note_on_c, 0, 44, 60
2, 48426, Note_on_c, 0, 66, 79
2, 48455, Note_on_c, 0, 44, 0
2, 48513, Note_on_c, 0, 56, 70
2, 48520, Note_on_c, 0, 66, 0
2, 48546, Note_on_c, 0, 56, 0
2, 48596, Note_on_c, 0, 51, 62
2, 48643, Note_on_c, 0, 51, 0
2, 48674, Note_on_c, 0, 56, 69
2, 48711, Note_on_c, 0, 56, 0
2, 48771, Note_on_c, 0, 48, 59
2, 48810, Note_on_c, 0, 48, 0
2, 48827, Note_on_c, 0, 56, 62
2, 48900, Note_on_c, 0, 56, 0
2, 48925, Note_on_c, 0, 44, 55
2, 48946, Note_on_c, 0, 66, 74
2, 48975, Note_on_c, 0, 44, 0
2, 49029, Note_on_c, 0, 56, 60
2, 49030, Note_on_c, 0, 66, 0
2, 49069, Note_on_c, 0, 56, 0
2, 49106, Note_on_c, 0, 51, 61
2, 49147, Note_on_c, 0, 51, 0
2, 49191, Note_on_c, 0, 56, 57
2, 49235, Note_on_c, 0, 56, 0
2, 49279, Note_on_c, 0, 48, 44
2, 49326, Note_on_c, 0, 48, 0
2, 49352, Note_on_c, 0, 56, 51
2, 49420, Note_on_c, 0, 56, 0
2, 49461, Note_on_c, 0, 44, 43
2, 49470, Note_on_c, 0, 65, 65
2, 49498, Note_on_c, 0, 44, 0
2, 49551, Note_on_c, 0, 56, 56
2, 49556, Note_on_c, 0, 65, 0
2, 49591, Note_on_c, 0, 56, 0
2, 49639, Note_on_c, 0, 53, 55
2, 49683, Note_on_c, 0, 53, 0
2, 49717, Note_on_c, 0, 56, 55
2, 49750, Note_on_c, 0, 56, 0
2, 49802, Note_on_c, 0, 49, 54
2, 49843, Note_on_c, 0, 49, 0
2, 49877, Note_on_c, 0, 56, 53
2, 49932, Note_on_c, 0, 56, 0
2, 49960, Note_on_c, 0, 44, 50
2, 49971, Note_on_c, 0, 65, 74
2, 50002, Note_on_c, 0, 44, 0
2, 50057, Note_on_c, 0, 56, 60
2, 50068, Note_on_c, 0, 65, 0
2, 50099, Note_on_c, 0, 56, 0
2, 50137, Note_on_c, 0, 53, 67
2, 50192, Note_on_c, 0, 53, 0
2, 50213, Note_on_c, 0, 56, 70
2, 50253, Note_on_c, 0, 56, 0
2, 50315, Note_on_c, 0, 49, 67
2, 50350, Note_on_c, 0, 49, 0
2, 50384, Note_on_c, 0, 56, 71
2, 50432, Note_on_c, 0, 56, 0
2, 50442, Control_c, 0, 67, 127
2, 50458, Control_c, 0, 67, 125
2, 50479, Note_on_c, 0, 44, 64
2, 50479, Note_on_c, 0, 67, 81
2, 50487, Control_c, 0, 67, 124
2, 50503, Control_c, 0, 67, 121
2, 50518, Control_c, 0, 67, 112
2, 50518, Note_on_c, 0, 44, 0
2, 50534, Control_c, 0, 67, 102
2, 50549, Control_c, 0, 67, 85
2, 50563, Control_c, 0, 67, 73
2, 50573, Note_on_c, 0, 67, 0
2, 50575, Note_on_c, 0, 58, 67
2, 50579, Control_c, 0, 67, 65
2, 50594, Control_c, 0, 67, 58
2, 50610, Control_c, 0, 67, 51
2, 50611, Note_on_c, 0, 58, 0
2, 50625, Control_c, 0, 67, 42
2, 50639, Control_c, 0, 67, 28
2, 50653, Note_on_c, 0, 52, 77
2, 50655, Control_c, 0, 67, 14
2, 50670, Control_c, 0, 67, 0
2, 50694, Note_on_c, 0, 52, 0
2, 50739, Note_on_c, 0, 58, 69
2, 50771, Note_on_c, 0, 58, 0
2, 50815, Note_on_c, 0, 49, 72
2, 50866, Note_on_c, 0, 49, 0
2, 50897, Note_on_c, 0, 58, 73
2, 50956, Note_on_c, 0, 58, 0
2, 50990, Note_on_c, 0, 44, 71
2, 51000, Note_on_c, 0, 67, 86
2, 51057, Note_on_c, 0, 44, 0
2, 51084, Note_on_c, 0, 58, 75
2, 51091, Note_on_c, 0, 67, 0
2, 51126, Note_on_c, 0, 58, 0
2, 51166, Note_on_c, 0, 52, 74
2, 51205, Note_on_c, 0, 52, 0
2, 51234, Note_on_c, 0, 58, 77
2, 51282, Note_on_c, 0, 58, 0
2, 51325, Note_on_c, 0, 49, 69
2, 51369, Note_on_c, 0, 49, 0
2, 51396, Note_on_c, 0, 58, 77
2, 51451, Note_on_c, 0, 58, 0
2, 51491, Note_on_c, 0, 44, 69
2, 51573, Note_on_c, 0, 48, 72
2, 51600, Note_on_c, 0, 44, 0
2, 51662, Note_on_c, 0, 51, 82
2, 51665, Note_on_c, 0, 48, 0
2, 51718, Note_on_c, 0, 51, 0
2, 51745, Note_on_c, 0, 54, 75
2, 51822, Note_on_c, 0, 57, 74
2, 51824, Note_on_c, 0, 54, 0
2, 51909, Note_on_c, 0, 60, 79
2, 51925, Note_on_c, 0, 57, 0
2, 51971, Note_on_c, 0, 60, 0
2, 51993, Note_on_c, 0, 61, 74
2, 52083, Note_on_c, 0, 64, 80
2, 52093, Note_on_c, 0, 61, 0
2, 52173, Note_on_c, 0, 67, 82
2, 52200, Note_on_c, 0, 64, 0
2, 52211, Note_on_c, 0, 67, 0
2, 52237, Note_on_c, 0, 70, 77
2, 52325, Note_on_c, 0, 73, 81
2, 52356, Note_on_c, 0, 70, 0
2, 52416, Note_on_c, 0, 73, 0
2, 52420, Note_on_c, 0, 76, 70
2, 52454, Note_on_c, 0, 76, 0
2, 52495, Note_on_c, 0, 44, 77
2, 52495, Note_on_c, 0, 72, 83
2, 52517, Control_c, 0, 64, 49
2, 52534, Control_c, 0, 64, 63
2, 52549, Control_c, 0, 64, 71
2, 52563, Control_c, 0, 64, 82
2, 52579, Control_c, 0, 64, 107
2, 52584, Note_on_c, 0, 75, 82
2, 52587, Note_on_c, 0, 72, 0
2, 52588, Note_on_c, 0, 44, 0
2, 52594, Control_c, 0, 64, 127
2, 52662, Note_on_c, 0, 75, 0
2, 52672, Note_on_c, 0, 78, 78
2, 52685, Control_c, 0, 64, 123
2, 52701, Control_c, 0, 64, 96
2, 52716, Control_c, 0, 64, 79
2, 52732, Control_c, 0, 64, 68
2, 52747, Control_c, 0, 64, 58
2, 52760, Note_on_c, 0, 75, 84
2, 52761, Control_c, 0, 64, 46
2, 52777, Control_c, 0, 64, 46
2, 52788, Note_on_c, 0, 78, 0
2, 52817, Note_on_c, 0, 75, 0
2, 52845, Note_on_c, 0, 72, 72
2, 52853, Control_c, 0, 64, 45
2, 52923, Note_on_c, 0, 68, 79
2, 52926, Note_on_c, 0, 72, 0
2, 53015, Note_on_c, 0, 68, 0
2, 53016, Note_on_c, 0, 66, 77
2, 53099, Note_on_c, 0, 63, 69
2, 53133, Note_on_c, 0, 66, 0
2, 53185, Note_on_c, 0, 60, 74
2, 53195, Note_on_c, 0, 63, 0
2, 53287, Note_on_c, 0, 60, 0
2, 53289, Note_on_c, 0, 56, 75
2, 53387, Note_on_c, 0, 60, 73
2, 53388, Note_on_c, 0, 56, 0
2, 53464, Note_on_c, 0, 60, 0
2, 53467, Control_c, 0, 64, 45
2, 53469, Note_on_c, 0, 63, 71
2, 53482, Control_c, 0, 64, 43
2, 53498, Control_c, 0, 64, 40
2, 53513, Control_c, 0, 64, 34
2, 53527, Control_c, 0, 64, 23
2, 53543, Control_c, 0, 64, 16
2, 53549, Note_on_c, 0, 63, 0
2, 53550, Note_on_c, 0, 65, 72
2, 53559, Note_on_c, 0, 56, 66
2, 53589, Control_c, 0, 64, 30
2, 53603, Control_c, 0, 64, 45
2, 53619, Control_c, 0, 64, 55
2, 53634, Control_c, 0, 64, 62
2, 53636, Note_on_c, 0, 68, 76
2, 53641, Note_on_c, 0, 65, 0
2, 53648, Control_c, 0, 64, 66
2, 53664, Control_c, 0, 64, 69
2, 53671, Note_on_c, 0, 56, 0
2, 53679, Control_c, 0, 64, 72
2, 53694, Control_c, 0, 64, 75
2, 53703, Note_on_c, 0, 68, 0
2, 53710, Control_c, 0, 64, 79
2, 53718, Note_on_c, 0, 73, 76
2, 53724, Control_c, 0, 64, 80
2, 53755, Control_c, 0, 64, 78
2, 53770, Control_c, 0, 64, 75
2, 53785, Control_c, 0, 64, 71
2, 53795, Note_on_c, 0, 68, 79
2, 53800, Control_c, 0, 64, 66
2, 53811, Note_on_c, 0, 73, 0
2, 53816, Control_c, 0, 64, 62
2, 53831, Control_c, 0, 64, 56
2, 53846, Control_c, 0, 64, 53
2, 53861, Control_c, 0, 64, 52
2, 53876, Control_c, 0, 64, 50
2, 53883, Note_on_c, 0, 68, 0
2, 53887, Note_on_c, 0, 65, 65
2, 53891, Control_c, 0, 64, 46
2, 53897, Note_on_c, 0, 64, 66
2, 53907, Control_c, 0, 64, 42
2, 53921, Note_on_c, 0, 64, 0
2, 53922, Control_c, 0, 64, 40
2, 53938, Control_c, 0, 64, 40
2, 53949, Note_on_c, 0, 65, 0
2, 53953, Control_c, 0, 64, 39
2, 53967, Note_on_c, 0, 61, 72
2, 53968, Control_c, 0, 64, 39
2, 53983, Control_c, 0, 64, 38
2, 54005, Control_c, 0, 64, 38
2, 54065, Note_on_c, 0, 58, 78
2, 54069, Note_on_c, 0, 61, 0
2, 54153, Note_on_c, 0, 55, 70
2, 54191, Note_on_c, 0, 58, 0
2, 54245, Note_on_c, 0, 52, 68
2, 54253, Note_on_c, 0, 55, 0
2, 54296, Control_c, 0, 64, 37
2, 54325, Control_c, 0, 64, 36
2, 54331, Note_on_c, 0, 49, 76
2, 54334, Note_on_c, 0, 52, 0
2, 54341, Control_c, 0, 64, 35
2, 54356, Control_c, 0, 64, 34
2, 54371, Control_c, 0, 64, 32
2, 54387, Control_c, 0, 64, 32
2, 54402, Control_c, 0, 64, 31
2, 54417, Control_c, 0, 64, 31
2, 54427, Note_on_c, 0, 49, 0
2, 54429, Note_on_c, 0, 52, 79
2, 54432, Control_c, 0, 64, 30
2, 54447, Control_c, 0, 64, 30
2, 54492, Control_c, 0, 64, 29
2, 54504, Note_on_c, 0, 52, 0
2, 54506, Note_on_c, 0, 55, 74
2, 54577, Note_on_c, 0, 55, 0
2, 54601, Note_on_c, 0, 44, 84
2, 54874, Note_on_c, 0, 73, 84
2, 54879, Note_on_c, 0, 56, 77
2, 54884, Note_on_c, 0, 49, 46
2, 54885, Note_on_c, 0, 65, 65
2, 54888, Note_on_c, 0, 68, 67
2, 54889, Note_on_c, 0, 53, 61
2, 54904, Note_on_c, 0, 65, 0
2, 54910, Control_c, 0, 64, 29
2, 54915, Note_on_c, 0, 56, 0
2, 54919, Note_on_c, 0, 68, 0
2, 54919, Note_on_c, 0, 73, 0
2, 54925, Note_on_c, 0, 53, 0
2, 54937, Note_on_c, 0, 49, 0
2, 54941, Control_c, 0, 64, 28
2, 55176, Note_on_c, 0, 72, 82
2, 55177, Note_on_c, 0, 63, 73
2, 55180, Note_on_c, 0, 68, 73
2, 55185, Note_on_c, 0, 54, 65
2, 55186, Note_on_c, 0, 56, 66
2, 55203, Note_on_c, 0, 51, 57
2, 55203, Note_on_c, 0, 63, 0
2, 55214, Note_on_c, 0, 68, 0
2, 55223, Note_on_c, 0, 56, 0
2, 55228, Note_on_c, 0, 72, 0
2, 55231, Control_c, 0, 64, 28
2, 55234, Note_on_c, 0, 54, 0
2, 55237, Note_on_c, 0, 51, 0
2, 55622, Note_on_c, 0, 53, 35
2, 55622, Note_on_c, 0, 73, 54
2, 55625, Note_on_c, 0, 56, 14
2, 55625, Note_on_c, 0, 61, 44
2, 55625, Note_on_c, 0, 68, 48
2, 55628, Note_on_c, 0, 49, 31
2, 55648, Control_c, 0, 64, 28
2, 55720, Note_on_c, 0, 44, 0
2, 55801, Control_c, 0, 64, 29
2, 55817, Control_c, 0, 64, 31
2, 55832, Control_c, 0, 64, 34
2, 55846, Control_c, 0, 64, 36
2, 55862, Control_c, 0, 64, 40
2, 55877, Control_c, 0, 64, 44
2, 55892, Control_c, 0, 64, 48
2, 55907, Control_c, 0, 64, 52
2, 55922, Control_c, 0, 64, 56
2, 55938, Control_c, 0, 64, 60
2, 55953, Control_c, 0, 64, 63
2, 55968, Control_c, 0, 64, 65
2, 55983, Control_c, 0, 64, 68
2, 55998, Control_c, 0, 64, 71
2, 56013, Control_c, 0, 64, 77
2, 56029, Control_c, 0, 64, 86
2, 56044, Control_c, 0, 64, 105
2, 56060, Control_c, 0, 64, 127
2, 56671, Note_on_c, 0, 61, 0
2, 56707, Note_on_c, 0, 73, 0
2, 56743, Note_on_c, 0, 56, 0
2, 56759, Note_on_c, 0, 68, 0
2, 56766, Control_c, 0, 64, 112
2, 56781, Note_on_c, 0, 53, 0
2, 56782, Control_c, 0, 64, 107
2, 56797, Control_c, 0, 64, 102
2, 56812, Control_c, 0, 64, 95
2, 56814, Note_on_c, 0, 49, 0
2, 56827, Control_c, 0, 64, 89
2, 56842, Control_c, 0, 64, 82
2, 56858, Control_c, 0, 64, 75
2, 56873, Control_c, 0, 64, 69
2, 56887, Control_c, 0, 64, 66
2, 56903, Control_c, 0, 64, 63
2, 56918, Control_c, 0, 64, 60
2, 56933, Control_c, 0, 64, 55
2, 56949, Control_c, 0, 64, 48
2, 56964, Control_c, 0, 64, 41
2, 56980, Control_c, 0, 64, 36
2, 56995, Control_c, 0, 64, 33
2, 57010, Control_c, 0, 64, 30
2, 57025, Control_c, 0, 64, 29
2, 57040, Control_c, 0, 64, 26
2, 57056, Control_c, 0, 64, 22
2, 57077, Control_c, 0, 64, 18
2, 57092, Control_c, 0, 64, 12
2, 57108, Control_c, 0, 64, 0
2, 57443,End_track
0, 0, End_of_file
