0, 0, Header, 1, 2, 480
1, 0, Start_track
1, 0, Tempo, 500000
1, 0, Time_signature, 4, 2, 24, 8
1, 1, End_track
2, 0, Start_track
2, 0, Program_c, 0, 0
2, 0, Control_c, 0, 64, 55
2, 47, Control_c, 0, 64, 54
2, 67, Control_c, 0, 64, 54
2, 86, Control_c, 0, 64, 53
2, 105, Control_c, 0, 64, 53
2, 144, Control_c, 0, 64, 52
2, 163, Control_c, 0, 64, 52
2, 182, Control_c, 0, 64, 51
2, 201, Control_c, 0, 64, 50
2, 221, Control_c, 0, 64, 49
2, 239, Control_c, 0, 64, 48
2, 258, Control_c, 0, 64, 46
2, 278, Control_c, 0, 64, 44
2, 297, Control_c, 0, 64, 41
2, 316, Control_c, 0, 64, 36
2, 335, Control_c, 0, 64, 24
2, 355, Control_c, 0, 64, 0
2, 927, Note_on_c, 0, 77, 57
2, 940, Note_on_c, 0, 49, 47
2, 1045, Note_on_c, 0, 73, 62
2, 1060, Note_on_c, 0, 77, 0
2, 1131, Note_on_c, 0, 73, 0
2, 1146, Note_on_c, 0, 68, 73
2, 1255, Note_on_c, 0, 68, 0
2, 1259, Note_on_c, 0, 73, 67
2, 1334, Note_on_c, 0, 49, 0
2, 1367, Note_on_c, 0, 77, 69
2, 1372, Note_on_c, 0, 73, 0
2, 1374, Note_on_c, 0, 61, 63
2, 1423, Note_on_c, 0, 61, 0
2, 1437, Note_on_c, 0, 77, 0
2, 1480, Note_on_c, 0, 73, 66
2, 1575, Note_on_c, 0, 73, 0
2, 1590, Note_on_c, 0, 51, 51
2, 1594, Note_on_c, 0, 78, 72
2, 1697, Note_on_c, 0, 78, 0
2, 1714, Note_on_c, 0, 73, 63
2, 1806, Note_on_c, 0, 73, 0
2, 1825, Note_on_c, 0, 78, 74
2, 1920, Note_on_c, 0, 78, 0
2, 1937, Note_on_c, 0, 73, 66
2, 2020, Note_on_c, 0, 51, 0
2, 2032, Note_on_c, 0, 73, 0
2, 2047, Note_on_c, 0, 61, 65
2, 2052, Note_on_c, 0, 78, 75
2, 2093, Note_on_c, 0, 61, 0
2, 2146, Note_on_c, 0, 78, 0
2, 2168, Note_on_c, 0, 73, 64
2, 2251, Note_on_c, 0, 73, 0
2, 2278, Note_on_c, 0, 80, 77
2, 2283, Note_on_c, 0, 53, 56
2, 2382, Note_on_c, 0, 80, 0
2, 2395, Note_on_c, 0, 73, 64
2, 2481, Note_on_c, 0, 73, 0
2, 2498, Note_on_c, 0, 80, 83
2, 2610, Note_on_c, 0, 80, 0
2, 2617, Note_on_c, 0, 73, 68
2, 2716, Note_on_c, 0, 73, 0
2, 2726, Note_on_c, 0, 53, 0
2, 2731, Note_on_c, 0, 80, 85
2, 2745, Note_on_c, 0, 61, 61
2, 2795, Note_on_c, 0, 61, 0
2, 2839, Note_on_c, 0, 73, 68
2, 2843, Note_on_c, 0, 80, 0
2, 2937, Note_on_c, 0, 73, 0
2, 2963, Note_on_c, 0, 82, 75
2, 2980, Note_on_c, 0, 54, 52
2, 3074, Note_on_c, 0, 73, 65
2, 3075, Note_on_c, 0, 82, 0
2, 3185, Note_on_c, 0, 73, 0
2, 3206, Note_on_c, 0, 82, 78
2, 3316, Note_on_c, 0, 82, 0
2, 3322, Note_on_c, 0, 73, 69
2, 3424, Note_on_c, 0, 73, 0
2, 3425, Note_on_c, 0, 54, 0
2, 3450, Note_on_c, 0, 82, 75
2, 3456, Note_on_c, 0, 61, 55
2, 3528, Note_on_c, 0, 61, 0
2, 3550, Note_on_c, 0, 73, 62
2, 3555, Note_on_c, 0, 82, 0
2, 3653, Note_on_c, 0, 73, 0
2, 3672, Note_on_c, 0, 80, 72
2, 3692, Note_on_c, 0, 53, 50
2, 3787, Note_on_c, 0, 80, 0
2, 3801, Note_on_c, 0, 73, 56
2, 3890, Note_on_c, 0, 73, 0
2, 3916, Note_on_c, 0, 80, 65
2, 3999, Note_on_c, 0, 80, 0
2, 4019, Note_on_c, 0, 73, 59
2, 4104, Note_on_c, 0, 73, 0
2, 4133, Note_on_c, 0, 53, 0
2, 4140, Note_on_c, 0, 80, 68
2, 4162, Note_on_c, 0, 61, 48
2, 4223, Note_on_c, 0, 61, 0
2, 4235, Note_on_c, 0, 80, 0
2, 4247, Note_on_c, 0, 73, 60
2, 4370, Note_on_c, 0, 73, 0
2, 4377, Note_on_c, 0, 78, 59
2, 4402, Note_on_c, 0, 51, 41
2, 4487, Note_on_c, 0, 77, 64
2, 4590, Note_on_c, 0, 78, 0
2, 4597, Note_on_c, 0, 77, 0
2, 4599, Note_on_c, 0, 75, 75
2, 4696, Note_on_c, 0, 75, 0
2, 4699, Note_on_c, 0, 77, 66
2, 4798, Note_on_c, 0, 77, 0
2, 4814, Note_on_c, 0, 78, 77
2, 4823, Note_on_c, 0, 51, 0
2, 4834, Note_on_c, 0, 60, 55
2, 4872, Note_on_c, 0, 60, 0
2, 4927, Note_on_c, 0, 75, 76
2, 4936, Note_on_c, 0, 78, 0
2, 4990, Note_on_c, 0, 75, 0
2, 5039, Note_on_c, 0, 77, 76
2, 5061, Note_on_c, 0, 49, 57
2, 5155, Note_on_c, 0, 75, 79
2, 5193, Note_on_c, 0, 77, 0
2, 5273, Note_on_c, 0, 73, 79
2, 5274, Note_on_c, 0, 49, 0
2, 5284, Note_on_c, 0, 75, 0
2, 5290, Control_c, 0, 64, 15
2, 5309, Control_c, 0, 64, 19
2, 5367, Control_c, 0, 64, 9
2, 5374, Note_on_c, 0, 75, 72
2, 5380, Note_on_c, 0, 73, 0
2, 5386, Control_c, 0, 64, 0
2, 5486, Note_on_c, 0, 77, 78
2, 5506, Note_on_c, 0, 61, 85
2, 5534, Note_on_c, 0, 75, 0
2, 5597, Note_on_c, 0, 73, 81
2, 5602, Note_on_c, 0, 77, 0
2, 5705, Note_on_c, 0, 75, 81
2, 5717, Note_on_c, 0, 73, 0
2, 5814, Note_on_c, 0, 77, 76
2, 5842, Note_on_c, 0, 75, 0
2, 5851, Note_on_c, 0, 61, 0
2, 5926, Note_on_c, 0, 75, 76
2, 5931, Note_on_c, 0, 60, 72
2, 5940, Note_on_c, 0, 77, 0
2, 6032, Note_on_c, 0, 58, 64
2, 6035, Note_on_c, 0, 73, 71
2, 6041, Note_on_c, 0, 60, 0
2, 6084, Note_on_c, 0, 75, 0
2, 6130, Note_on_c, 0, 58, 0
2, 6137, Note_on_c, 0, 73, 0
2, 6140, Note_on_c, 0, 56, 65
2, 6143, Note_on_c, 0, 72, 78
2, 6240, Note_on_c, 0, 70, 76
2, 6243, Note_on_c, 0, 72, 0
2, 6260, Note_on_c, 0, 58, 60
2, 6273, Note_on_c, 0, 56, 0
2, 6338, Note_on_c, 0, 58, 0
2, 6367, Note_on_c, 0, 60, 59
2, 6367, Note_on_c, 0, 68, 72
2, 6400, Note_on_c, 0, 70, 0
2, 6476, Note_on_c, 0, 60, 0
2, 6483, Note_on_c, 0, 56, 57
2, 6562, Note_on_c, 0, 56, 0
2, 6608, Note_on_c, 0, 51, 48
2, 6703, Note_on_c, 0, 51, 0
2, 6718, Note_on_c, 0, 56, 60
2, 6788, Note_on_c, 0, 56, 0
2, 6840, Note_on_c, 0, 68, 0
2, 6848, Note_on_c, 0, 60, 55
2, 6867, Note_on_c, 0, 80, 70
2, 6909, Note_on_c, 0, 80, 0
2, 6910, Note_on_c, 0, 60, 0
2, 6960, Note_on_c, 0, 56, 57
2, 7067, Note_on_c, 0, 56, 0
2, 7092, Note_on_c, 0, 70, 75
2, 7093, Note_on_c, 0, 61, 63
2, 7215, Note_on_c, 0, 61, 0
2, 7222, Note_on_c, 0, 56, 68
2, 7319, Note_on_c, 0, 56, 0
2, 7340, Note_on_c, 0, 61, 70
2, 7443, Note_on_c, 0, 61, 0
2, 7447, Note_on_c, 0, 56, 70
2, 7541, Note_on_c, 0, 56, 0
2, 7543, Note_on_c, 0, 70, 0
2, 7562, Note_on_c, 0, 61, 76
2, 7568, Note_on_c, 0, 80, 77
2, 7650, Note_on_c, 0, 80, 0
2, 7665, Note_on_c, 0, 61, 0
2, 7673, Note_on_c, 0, 56, 65
2, 7785, Note_on_c, 0, 56, 0
2, 7804, Note_on_c, 0, 63, 65
2, 7804, Note_on_c, 0, 72, 77
2, 7929, Note_on_c, 0, 63, 0
2, 7932, Note_on_c, 0, 56, 67
2, 8052, Note_on_c, 0, 56, 0
2, 8058, Note_on_c, 0, 63, 76
2, 8159, Note_on_c, 0, 63, 0
2, 8165, Note_on_c, 0, 56, 70
2, 8288, Note_on_c, 0, 56, 0
2, 8289, Note_on_c, 0, 63, 76
2, 8299, Note_on_c, 0, 80, 76
2, 8311, Note_on_c, 0, 72, 0
2, 8369, Note_on_c, 0, 80, 0
2, 8383, Note_on_c, 0, 63, 0
2, 8408, Note_on_c, 0, 56, 63
2, 8527, Note_on_c, 0, 56, 0
2, 8543, Note_on_c, 0, 65, 61
2, 8556, Note_on_c, 0, 73, 76
2, 8676, Note_on_c, 0, 56, 66
2, 8679, Note_on_c, 0, 65, 0
2, 8768, Note_on_c, 0, 56, 0
2, 8788, Note_on_c, 0, 65, 65
2, 8887, Note_on_c, 0, 65, 0
2, 8902, Note_on_c, 0, 56, 68
2, 9012, Note_on_c, 0, 56, 0
2, 9022, Note_on_c, 0, 65, 65
2, 9043, Note_on_c, 0, 73, 0
2, 9045, Note_on_c, 0, 80, 66
2, 9095, Note_on_c, 0, 80, 0
2, 9104, Note_on_c, 0, 65, 0
2, 9140, Note_on_c, 0, 56, 59
2, 9254, Note_on_c, 0, 56, 0
2, 9269, Note_on_c, 0, 63, 62
2, 9278, Note_on_c, 0, 72, 60
2, 9385, Note_on_c, 0, 63, 0
2, 9400, Note_on_c, 0, 56, 59
2, 9507, Note_on_c, 0, 56, 0
2, 9514, Note_on_c, 0, 63, 72
2, 9620, Note_on_c, 0, 56, 61
2, 9620, Note_on_c, 0, 63, 0
2, 9730, Note_on_c, 0, 56, 0
2, 9753, Note_on_c, 0, 63, 69
2, 9765, Note_on_c, 0, 80, 60
2, 9783, Note_on_c, 0, 72, 0
2, 9836, Note_on_c, 0, 80, 0
2, 9860, Note_on_c, 0, 63, 0
2, 9872, Note_on_c, 0, 56, 60
2, 9979, Note_on_c, 0, 61, 66
2, 9984, Note_on_c, 0, 70, 57
2, 9989, Note_on_c, 0, 56, 0
2, 10118, Note_on_c, 0, 60, 65
2, 10193, Note_on_c, 0, 61, 0
2, 10229, Note_on_c, 0, 60, 0
2, 10231, Note_on_c, 0, 58, 67
2, 10339, Note_on_c, 0, 60, 69
2, 10361, Note_on_c, 0, 58, 0
2, 10436, Note_on_c, 0, 70, 0
2, 10441, Note_on_c, 0, 60, 0
2, 10445, Note_on_c, 0, 61, 71
2, 10462, Note_on_c, 0, 79, 66
2, 10529, Note_on_c, 0, 79, 0
2, 10558, Note_on_c, 0, 58, 62
2, 10568, Note_on_c, 0, 61, 0
2, 10670, Note_on_c, 0, 58, 0
2, 10683, Note_on_c, 0, 60, 64
2, 10687, Note_on_c, 0, 68, 61
2, 10817, Note_on_c, 0, 58, 64
2, 10854, Note_on_c, 0, 60, 0
2, 10909, Note_on_c, 0, 58, 0
2, 10922, Note_on_c, 0, 56, 73
2, 11034, Note_on_c, 0, 58, 67
2, 11069, Note_on_c, 0, 56, 0
2, 11124, Note_on_c, 0, 58, 0
2, 11134, Note_on_c, 0, 60, 70
2, 11143, Note_on_c, 0, 80, 90
2, 11145, Note_on_c, 0, 68, 0
2, 11252, Note_on_c, 0, 60, 0
2, 11253, Note_on_c, 0, 56, 69
2, 11369, Note_on_c, 0, 58, 76
2, 11420, Note_on_c, 0, 56, 0
2, 11464, Note_on_c, 0, 58, 0
2, 11477, Note_on_c, 0, 59, 82
2, 11592, Note_on_c, 0, 59, 0
2, 11594, Note_on_c, 0, 78, 75
2, 11603, Note_on_c, 0, 58, 72
2, 11617, Note_on_c, 0, 80, 0
2, 11690, Note_on_c, 0, 56, 74
2, 11716, Note_on_c, 0, 77, 71
2, 11720, Note_on_c, 0, 58, 0
2, 11800, Note_on_c, 0, 54, 68
2, 11823, Note_on_c, 0, 78, 0
2, 11832, Note_on_c, 0, 75, 79
2, 11845, Note_on_c, 0, 77, 0
2, 11849, Note_on_c, 0, 56, 0
2, 11880, Note_on_c, 0, 54, 0
2, 11919, Note_on_c, 0, 53, 65
2, 11939, Note_on_c, 0, 75, 0
2, 11942, Note_on_c, 0, 77, 73
2, 12033, Note_on_c, 0, 53, 0
2, 12039, Note_on_c, 0, 51, 53
2, 12059, Note_on_c, 0, 78, 73
2, 12068, Note_on_c, 0, 77, 0
2, 12168, Note_on_c, 0, 75, 70
2, 12208, Note_on_c, 0, 78, 0
2, 12258, Note_on_c, 0, 75, 0
2, 12284, Note_on_c, 0, 70, 72
2, 12393, Note_on_c, 0, 70, 0
2, 12403, Note_on_c, 0, 75, 63
2, 12505, Note_on_c, 0, 78, 69
2, 12508, Note_on_c, 0, 51, 0
2, 12512, Note_on_c, 0, 63, 54
2, 12522, Note_on_c, 0, 75, 0
2, 12569, Note_on_c, 0, 63, 0
2, 12578, Note_on_c, 0, 78, 0
2, 12620, Note_on_c, 0, 75, 61
2, 12725, Note_on_c, 0, 75, 0
2, 12731, Note_on_c, 0, 53, 48
2, 12746, Note_on_c, 0, 80, 66
2, 12852, Note_on_c, 0, 80, 0
2, 12865, Note_on_c, 0, 75, 66
2, 12968, Note_on_c, 0, 75, 0
2, 12987, Note_on_c, 0, 80, 76
2, 13092, Note_on_c, 0, 80, 0
2, 13096, Note_on_c, 0, 75, 73
2, 13201, Note_on_c, 0, 53, 0
2, 13214, Note_on_c, 0, 75, 0
2, 13218, Note_on_c, 0, 80, 79
2, 13232, Note_on_c, 0, 63, 50
2, 13286, Note_on_c, 0, 63, 0
2, 13333, Note_on_c, 0, 75, 70
2, 13333, Note_on_c, 0, 80, 0
2, 13437, Note_on_c, 0, 75, 0
2, 13445, Note_on_c, 0, 82, 82
2, 13455, Note_on_c, 0, 54, 51
2, 13560, Note_on_c, 0, 75, 73
2, 13564, Note_on_c, 0, 82, 0
2, 13666, Note_on_c, 0, 75, 0
2, 13672, Note_on_c, 0, 82, 86
2, 13785, Note_on_c, 0, 75, 74
2, 13789, Note_on_c, 0, 82, 0
2, 13907, Note_on_c, 0, 75, 0
2, 13910, Note_on_c, 0, 54, 0
2, 13910, Note_on_c, 0, 63, 61
2, 13910, Note_on_c, 0, 82, 89
2, 13977, Note_on_c, 0, 63, 0
2, 14025, Note_on_c, 0, 75, 76
2, 14038, Note_on_c, 0, 82, 0
2, 14137, Note_on_c, 0, 75, 0
2, 14142, Note_on_c, 0, 56, 57
2, 14148, Note_on_c, 0, 83, 80
2, 14256, Note_on_c, 0, 75, 78
2, 14263, Note_on_c, 0, 83, 0
2, 14367, Note_on_c, 0, 75, 0
2, 14387, Note_on_c, 0, 83, 85
2, 14491, Note_on_c, 0, 75, 77
2, 14497, Note_on_c, 0, 83, 0
2, 14600, Note_on_c, 0, 75, 0
2, 14624, Note_on_c, 0, 56, 0
2, 14625, Note_on_c, 0, 83, 79
2, 14631, Note_on_c, 0, 63, 57
2, 14690, Note_on_c, 0, 63, 0
2, 14728, Note_on_c, 0, 75, 71
2, 14733, Note_on_c, 0, 83, 0
2, 14839, Note_on_c, 0, 75, 0
2, 14855, Note_on_c, 0, 82, 72
2, 14872, Note_on_c, 0, 54, 49
2, 14973, Note_on_c, 0, 75, 65
2, 14974, Note_on_c, 0, 82, 0
2, 15078, Note_on_c, 0, 75, 0
2, 15093, Note_on_c, 0, 82, 73
2, 15188, Note_on_c, 0, 82, 0
2, 15194, Note_on_c, 0, 75, 62
2, 15318, Note_on_c, 0, 75, 0
2, 15332, Note_on_c, 0, 82, 68
2, 15359, Note_on_c, 0, 63, 43
2, 15364, Note_on_c, 0, 54, 0
2, 15432, Note_on_c, 0, 82, 0
2, 15433, Note_on_c, 0, 63, 0
2, 15460, Note_on_c, 0, 75, 60
2, 15570, Note_on_c, 0, 80, 67
2, 15584, Note_on_c, 0, 53, 45
2, 15585, Note_on_c, 0, 75, 0
2, 15682, Note_on_c, 0, 78, 66
2, 15737, Note_on_c, 0, 80, 0
2, 15794, Note_on_c, 0, 77, 68
2, 15795, Note_on_c, 0, 78, 0
2, 15906, Note_on_c, 0, 78, 73
2, 15920, Note_on_c, 0, 77, 0
2, 16012, Note_on_c, 0, 53, 0
2, 16020, Note_on_c, 0, 80, 75
2, 16022, Note_on_c, 0, 78, 0
2, 16033, Note_on_c, 0, 62, 56
2, 16085, Note_on_c, 0, 62, 0
2, 16129, Note_on_c, 0, 80, 0
2, 16133, Note_on_c, 0, 77, 70
2, 16197, Note_on_c, 0, 77, 0
2, 16252, Note_on_c, 0, 78, 75
2, 16255, Note_on_c, 0, 51, 57
2, 16361, Note_on_c, 0, 77, 70
2, 16388, Control_c, 0, 64, 64
2, 16406, Control_c, 0, 64, 74
2, 16426, Control_c, 0, 64, 104
2, 16437, Note_on_c, 0, 78, 0
2, 16445, Control_c, 0, 64, 127
2, 16463, Note_on_c, 0, 51, 0
2, 16475, Note_on_c, 0, 75, 81
2, 16482, Note_on_c, 0, 77, 0
2, 16522, Control_c, 0, 64, 94
2, 16541, Control_c, 0, 64, 67
2, 16560, Control_c, 0, 64, 32
2, 16579, Note_on_c, 0, 77, 74
2, 16580, Control_c, 0, 64, 0
2, 16586, Note_on_c, 0, 75, 0
2, 16688, Note_on_c, 0, 78, 79
2, 16696, Note_on_c, 0, 63, 82
2, 16696, Note_on_c, 0, 77, 0
2, 16806, Note_on_c, 0, 75, 78
2, 16810, Control_c, 0, 64, 52
2, 16816, Note_on_c, 0, 78, 0
2, 16829, Control_c, 0, 64, 65
2, 16849, Control_c, 0, 64, 72
2, 16868, Control_c, 0, 64, 89
2, 16886, Control_c, 0, 64, 127
2, 16929, Note_on_c, 0, 77, 77
2, 16953, Note_on_c, 0, 75, 0
2, 16962, Control_c, 0, 64, 92
2, 16982, Control_c, 0, 64, 73
2, 17001, Control_c, 0, 64, 64
2, 17020, Control_c, 0, 64, 59
2, 17024, Note_on_c, 0, 63, 0
2, 17039, Control_c, 0, 64, 53
2, 17041, Note_on_c, 0, 78, 74
2, 17059, Control_c, 0, 64, 37
2, 17069, Note_on_c, 0, 77, 0
2, 17078, Control_c, 0, 64, 0
2, 17144, Note_on_c, 0, 61, 71
2, 17148, Note_on_c, 0, 77, 69
2, 17197, Note_on_c, 0, 78, 0
2, 17251, Note_on_c, 0, 61, 0
2, 17258, Note_on_c, 0, 60, 66
2, 17259, Note_on_c, 0, 75, 77
2, 17313, Note_on_c, 0, 77, 0
2, 17353, Note_on_c, 0, 60, 0
2, 17359, Note_on_c, 0, 58, 67
2, 17363, Note_on_c, 0, 73, 75
2, 17414, Note_on_c, 0, 75, 0
2, 17476, Note_on_c, 0, 60, 68
2, 17481, Note_on_c, 0, 72, 73
2, 17490, Note_on_c, 0, 73, 0
2, 17509, Note_on_c, 0, 58, 0
2, 17580, Note_on_c, 0, 60, 0
2, 17587, Note_on_c, 0, 61, 71
2, 17604, Note_on_c, 0, 70, 78
2, 17608, Note_on_c, 0, 72, 0
2, 17707, Note_on_c, 0, 58, 62
2, 17722, Note_on_c, 0, 61, 0
2, 17797, Note_on_c, 0, 58, 0
2, 17824, Note_on_c, 0, 53, 61
2, 17941, Note_on_c, 0, 53, 0
2, 17957, Note_on_c, 0, 58, 55
2, 18026, Note_on_c, 0, 58, 0
2, 18054, Note_on_c, 0, 82, 73
2, 18062, Note_on_c, 0, 70, 0
2, 18065, Note_on_c, 0, 61, 64
2, 18142, Note_on_c, 0, 82, 0
2, 18169, Note_on_c, 0, 61, 0
2, 18178, Note_on_c, 0, 58, 62
2, 18275, Note_on_c, 0, 58, 0
2, 18300, Note_on_c, 0, 72, 71
2, 18307, Note_on_c, 0, 63, 65
2, 18411, Note_on_c, 0, 63, 0
2, 18426, Note_on_c, 0, 58, 66
2, 18523, Note_on_c, 0, 58, 0
2, 18542, Note_on_c, 0, 63, 74
2, 18658, Note_on_c, 0, 63, 0
2, 18663, Note_on_c, 0, 58, 72
2, 18754, Note_on_c, 0, 58, 0
2, 18775, Note_on_c, 0, 63, 74
2, 18783, Note_on_c, 0, 82, 74
2, 18790, Note_on_c, 0, 72, 0
2, 18855, Note_on_c, 0, 82, 0
2, 18870, Note_on_c, 0, 63, 0
2, 18886, Note_on_c, 0, 58, 69
2, 18946, Note_on_c, 0, 58, 0
2, 18999, Note_on_c, 0, 65, 72
2, 19014, Note_on_c, 0, 73, 74
2, 19139, Note_on_c, 0, 58, 68
2, 19163, Note_on_c, 0, 65, 0
2, 19264, Note_on_c, 0, 65, 73
2, 19266, Note_on_c, 0, 58, 0
2, 19377, Note_on_c, 0, 58, 75
2, 19385, Note_on_c, 0, 65, 0
2, 19483, Note_on_c, 0, 58, 0
2, 19484, Note_on_c, 0, 82, 79
2, 19491, Note_on_c, 0, 65, 76
2, 19498, Note_on_c, 0, 73, 0
2, 19567, Note_on_c, 0, 82, 0
2, 19601, Note_on_c, 0, 58, 74
2, 19614, Note_on_c, 0, 65, 0
2, 19736, Note_on_c, 0, 66, 74
2, 19737, Note_on_c, 0, 75, 81
2, 19746, Note_on_c, 0, 58, 0
2, 19860, Note_on_c, 0, 58, 71
2, 19875, Note_on_c, 0, 66, 0
2, 19980, Note_on_c, 0, 66, 74
2, 19982, Note_on_c, 0, 58, 0
2, 20084, Note_on_c, 0, 66, 0
2, 20092, Note_on_c, 0, 58, 69
2, 20207, Note_on_c, 0, 58, 0
2, 20213, Note_on_c, 0, 66, 72
2, 20243, Note_on_c, 0, 82, 63
2, 20244, Note_on_c, 0, 75, 0
2, 20319, Note_on_c, 0, 82, 0
2, 20333, Note_on_c, 0, 66, 0
2, 20343, Note_on_c, 0, 58, 63
2, 20461, Note_on_c, 0, 58, 0
2, 20466, Note_on_c, 0, 73, 63
2, 20471, Note_on_c, 0, 65, 58
2, 20588, Note_on_c, 0, 65, 0
2, 20597, Note_on_c, 0, 58, 58
2, 20718, Note_on_c, 0, 58, 0
2, 20738, Note_on_c, 0, 65, 51
2, 20807, Note_on_c, 0, 65, 0
2, 20850, Note_on_c, 0, 58, 48
2, 20953, Note_on_c, 0, 58, 0
2, 20953, Note_on_c, 0, 82, 64
2, 20964, Note_on_c, 0, 65, 56
2, 21000, Note_on_c, 0, 73, 0
2, 21036, Note_on_c, 0, 65, 0
2, 21072, Note_on_c, 0, 82, 0
2, 21112, Note_on_c, 0, 58, 45
2, 21167, Note_on_c, 0, 58, 0
2, 21191, Note_on_c, 0, 72, 67
2, 21195, Note_on_c, 0, 63, 63
2, 21305, Note_on_c, 0, 63, 0
2, 21310, Note_on_c, 0, 61, 67
2, 21418, Note_on_c, 0, 61, 0
2, 21436, Note_on_c, 0, 60, 68
2, 21549, Note_on_c, 0, 61, 71
2, 21563, Note_on_c, 0, 60, 0
2, 21626, Note_on_c, 0, 72, 0
2, 21628, Note_on_c, 0, 61, 0
2, 21649, Note_on_c, 0, 63, 73
2, 21680, Note_on_c, 0, 81, 67
2, 21727, Note_on_c, 0, 81, 0
2, 21749, Note_on_c, 0, 63, 0
2, 21773, Note_on_c, 0, 60, 66
2, 21871, Note_on_c, 0, 60, 0
2, 21893, Note_on_c, 0, 61, 68
2, 21895, Note_on_c, 0, 70, 68
2, 22000, Note_on_c, 0, 61, 0
2, 22023, Note_on_c, 0, 60, 66
2, 22121, Note_on_c, 0, 60, 0
2, 22135, Note_on_c, 0, 58, 63
2, 22253, Note_on_c, 0, 60, 66
2, 22263, Note_on_c, 0, 58, 0
2, 22276, Note_on_c, 0, 70, 0
2, 22336, Note_on_c, 0, 60, 0
2, 22343, Note_on_c, 0, 61, 71
2, 22350, Note_on_c, 0, 82, 93
2, 22463, Note_on_c, 0, 61, 0
2, 22474, Note_on_c, 0, 58, 62
2, 22567, Note_on_c, 0, 58, 0
2, 22589, Note_on_c, 0, 64, 74
2, 22712, Note_on_c, 0, 62, 67
2, 22717, Note_on_c, 0, 64, 0
2, 22806, Note_on_c, 0, 62, 0
2, 22819, Note_on_c, 0, 80, 72
2, 22823, Note_on_c, 0, 60, 67
2, 22838, Note_on_c, 0, 82, 0
2, 22935, Note_on_c, 0, 80, 0
2, 22947, Note_on_c, 0, 60, 0
2, 22953, Note_on_c, 0, 62, 58
2, 23014, Note_on_c, 0, 62, 0
2, 23037, Note_on_c, 0, 64, 70
2, 23050, Note_on_c, 0, 79, 74
2, 23121, Note_on_c, 0, 64, 0
2, 23127, Note_on_c, 0, 79, 0
2, 23151, Note_on_c, 0, 60, 63
2, 23211, Note_on_c, 0, 60, 0
2, 23258, Note_on_c, 0, 65, 67
2, 23269, Note_on_c, 0, 80, 77
2, 23356, Note_on_c, 0, 65, 0
2, 23363, Note_on_c, 0, 80, 0
2, 23372, Note_on_c, 0, 64, 69
2, 23463, Note_on_c, 0, 64, 0
2, 23486, Note_on_c, 0, 68, 74
2, 23492, Note_on_c, 0, 65, 70
2, 23558, Note_on_c, 0, 68, 0
2, 23580, Note_on_c, 0, 65, 0
2, 23587, Note_on_c, 0, 67, 68
2, 23667, Note_on_c, 0, 67, 0
2, 23706, Note_on_c, 0, 65, 72
2, 23731, Note_on_c, 0, 80, 89
2, 23796, Note_on_c, 0, 65, 0
2, 23839, Note_on_c, 0, 63, 67
2, 23934, Note_on_c, 0, 63, 0
2, 23963, Note_on_c, 0, 62, 72
2, 24068, Note_on_c, 0, 62, 0
2, 24072, Note_on_c, 0, 60, 71
2, 24138, Note_on_c, 0, 80, 0
2, 24167, Note_on_c, 0, 60, 0
2, 24193, Note_on_c, 0, 78, 71
2, 24194, Note_on_c, 0, 58, 65
2, 24296, Note_on_c, 0, 78, 0
2, 24321, Note_on_c, 0, 60, 56
2, 24328, Note_on_c, 0, 58, 0
2, 24372, Note_on_c, 0, 60, 0
2, 24410, Note_on_c, 0, 62, 62
2, 24443, Note_on_c, 0, 77, 61
2, 24497, Note_on_c, 0, 62, 0
2, 24530, Note_on_c, 0, 58, 54
2, 24548, Note_on_c, 0, 77, 0
2, 24584, Note_on_c, 0, 58, 0
2, 24646, Note_on_c, 0, 78, 65
2, 24653, Note_on_c, 0, 63, 70
2, 24692, Note_on_c, 0, 63, 0
2, 24759, Note_on_c, 0, 77, 69
2, 24840, Note_on_c, 0, 78, 0
2, 24850, Note_on_c, 0, 77, 0
2, 24880, Note_on_c, 0, 75, 79
2, 24883, Note_on_c, 0, 51, 65
2, 24923, Note_on_c, 0, 51, 0
2, 24992, Note_on_c, 0, 77, 76
2, 25010, Note_on_c, 0, 75, 0
2, 25111, Note_on_c, 0, 78, 75
2, 25115, Note_on_c, 0, 77, 0
2, 25120, Note_on_c, 0, 63, 78
2, 25224, Note_on_c, 0, 75, 76
2, 25261, Note_on_c, 0, 78, 0
2, 25307, Note_on_c, 0, 75, 0
2, 25341, Note_on_c, 0, 81, 77
2, 25454, Note_on_c, 0, 79, 79
2, 25508, Note_on_c, 0, 81, 0
2, 25540, Note_on_c, 0, 79, 0
2, 25568, Note_on_c, 0, 77, 80
2, 25570, Note_on_c, 0, 61, 73
2, 25576, Note_on_c, 0, 63, 0
2, 25663, Note_on_c, 0, 61, 0
2, 25675, Note_on_c, 0, 79, 84
2, 25704, Note_on_c, 0, 77, 0
2, 25783, Note_on_c, 0, 79, 0
2, 25795, Note_on_c, 0, 81, 86
2, 25796, Note_on_c, 0, 60, 72
2, 25829, Note_on_c, 0, 60, 0
2, 25879, Note_on_c, 0, 81, 0
2, 25906, Note_on_c, 0, 77, 81
2, 26025, Note_on_c, 0, 82, 86
2, 26033, Note_on_c, 0, 61, 73
2, 26052, Note_on_c, 0, 77, 0
2, 26068, Note_on_c, 0, 61, 0
2, 26131, Note_on_c, 0, 82, 0
2, 26141, Note_on_c, 0, 81, 86
2, 26257, Note_on_c, 0, 82, 89
2, 26260, Note_on_c, 0, 81, 0
2, 26264, Note_on_c, 0, 49, 76
2, 26313, Note_on_c, 0, 49, 0
2, 26363, Note_on_c, 0, 84, 79
2, 26370, Note_on_c, 0, 82, 0
2, 26491, Note_on_c, 0, 82, 83
2, 26498, Note_on_c, 0, 61, 70
2, 26531, Note_on_c, 0, 84, 0
2, 26593, Note_on_c, 0, 80, 79
2, 26624, Note_on_c, 0, 82, 0
2, 26658, Note_on_c, 0, 80, 0
2, 26722, Note_on_c, 0, 79, 79
2, 26832, Note_on_c, 0, 77, 70
2, 26870, Note_on_c, 0, 79, 0
2, 26908, Note_on_c, 0, 61, 0
2, 26943, Note_on_c, 0, 77, 0
2, 26954, Note_on_c, 0, 75, 78
2, 26959, Note_on_c, 0, 60, 60
2, 27012, Note_on_c, 0, 60, 0
2, 27062, Note_on_c, 0, 75, 0
2, 27068, Note_on_c, 0, 77, 74
2, 27163, Note_on_c, 0, 77, 0
2, 27176, Note_on_c, 0, 79, 75
2, 27178, Note_on_c, 0, 58, 57
2, 27215, Note_on_c, 0, 58, 0
2, 27274, Note_on_c, 0, 79, 0
2, 27291, Note_on_c, 0, 75, 73
2, 27367, Note_on_c, 0, 75, 0
2, 27393, Note_on_c, 0, 60, 71
2, 27400, Note_on_c, 0, 80, 83
2, 27451, Note_on_c, 0, 80, 0
2, 27478, Note_on_c, 0, 60, 0
2, 27510, Note_on_c, 0, 58, 62
2, 27605, Note_on_c, 0, 58, 0
2, 27620, Note_on_c, 0, 56, 67
2, 27625, Note_on_c, 0, 68, 83
2, 27680, Note_on_c, 0, 68, 0
2, 27745, Note_on_c, 0, 58, 60
2, 27759, Note_on_c, 0, 56, 0
2, 27813, Note_on_c, 0, 58, 0
2, 27840, Note_on_c, 0, 60, 63
2, 27855, Note_on_c, 0, 80, 88
2, 27952, Note_on_c, 0, 60, 0
2, 27975, Note_on_c, 0, 56, 64
2, 28073, Note_on_c, 0, 56, 0
2, 28099, Note_on_c, 0, 62, 74
2, 28213, Note_on_c, 0, 60, 67
2, 28223, Note_on_c, 0, 62, 0
2, 28292, Note_on_c, 0, 80, 0
2, 28315, Note_on_c, 0, 60, 0
2, 28334, Note_on_c, 0, 58, 66
2, 28338, Note_on_c, 0, 78, 74
2, 28433, Note_on_c, 0, 78, 0
2, 28463, Note_on_c, 0, 60, 64
2, 28469, Note_on_c, 0, 58, 0
2, 28535, Note_on_c, 0, 60, 0
2, 28546, Note_on_c, 0, 62, 67
2, 28577, Note_on_c, 0, 77, 71
2, 28648, Note_on_c, 0, 58, 63
2, 28654, Note_on_c, 0, 77, 0
2, 28660, Note_on_c, 0, 62, 0
2, 28745, Note_on_c, 0, 58, 0
2, 28792, Note_on_c, 0, 63, 68
2, 28794, Note_on_c, 0, 78, 79
2, 28883, Note_on_c, 0, 78, 0
2, 28892, Note_on_c, 0, 63, 0
2, 28910, Note_on_c, 0, 62, 70
2, 29024, Note_on_c, 0, 63, 78
2, 29030, Note_on_c, 0, 62, 0
2, 29033, Note_on_c, 0, 66, 77
2, 29099, Note_on_c, 0, 66, 0
2, 29106, Note_on_c, 0, 63, 0
2, 29138, Note_on_c, 0, 65, 72
2, 29243, Note_on_c, 0, 65, 0
2, 29256, Note_on_c, 0, 78, 83
2, 29257, Note_on_c, 0, 63, 68
2, 29368, Note_on_c, 0, 61, 72
2, 29384, Note_on_c, 0, 63, 0
2, 29452, Note_on_c, 0, 61, 0
2, 29486, Note_on_c, 0, 60, 73
2, 29598, Note_on_c, 0, 58, 68
2, 29600, Note_on_c, 0, 60, 0
2, 29667, Note_on_c, 0, 78, 0
2, 29693, Note_on_c, 0, 58, 0
2, 29716, Note_on_c, 0, 56, 67
2, 29733, Note_on_c, 0, 77, 66
2, 29836, Note_on_c, 0, 56, 0
2, 29838, Note_on_c, 0, 77, 0
2, 29839, Note_on_c, 0, 58, 57
2, 29888, Note_on_c, 0, 58, 0
2, 29935, Note_on_c, 0, 60, 61
2, 29948, Note_on_c, 0, 75, 64
2, 30007, Note_on_c, 0, 60, 0
2, 30063, Note_on_c, 0, 56, 63
2, 30114, Note_on_c, 0, 56, 0
2, 30124, Note_on_c, 0, 75, 0
2, 30186, Note_on_c, 0, 61, 74
2, 30193, Note_on_c, 0, 77, 72
2, 30222, Note_on_c, 0, 61, 0
2, 30303, Note_on_c, 0, 75, 74
2, 30344, Note_on_c, 0, 77, 0
2, 30413, Note_on_c, 0, 49, 79
2, 30423, Note_on_c, 0, 75, 0
2, 30428, Note_on_c, 0, 73, 77
2, 30456, Note_on_c, 0, 49, 0
2, 30537, Note_on_c, 0, 75, 76
2, 30552, Note_on_c, 0, 73, 0
2, 30653, Note_on_c, 0, 75, 0
2, 30653, Note_on_c, 0, 77, 74
2, 30657, Note_on_c, 0, 61, 81
2, 30768, Note_on_c, 0, 73, 73
2, 30775, Note_on_c, 0, 77, 0
2, 30839, Note_on_c, 0, 73, 0
2, 30895, Note_on_c, 0, 79, 78
2, 30993, Note_on_c, 0, 77, 52
2, 31037, Note_on_c, 0, 79, 0
2, 31078, Note_on_c, 0, 61, 0
2, 31122, Note_on_c, 0, 59, 72
2, 31131, Note_on_c, 0, 75, 79
2, 31134, Note_on_c, 0, 77, 0
2, 31168, Note_on_c, 0, 59, 0
2, 31237, Note_on_c, 0, 77, 72
2, 31243, Note_on_c, 0, 75, 0
2, 31341, Note_on_c, 0, 77, 0
2, 31348, Note_on_c, 0, 79, 79
2, 31357, Note_on_c, 0, 58, 62
2, 31391, Note_on_c, 0, 58, 0
2, 31440, Note_on_c, 0, 79, 0
2, 31460, Note_on_c, 0, 75, 79
2, 31558, Note_on_c, 0, 75, 0
2, 31576, Note_on_c, 0, 80, 79
2, 31594, Note_on_c, 0, 59, 75
2, 31640, Note_on_c, 0, 59, 0
2, 31696, Note_on_c, 0, 79, 81
2, 31709, Note_on_c, 0, 80, 0
2, 31805, Note_on_c, 0, 47, 78
2, 31811, Note_on_c, 0, 79, 0
2, 31816, Note_on_c, 0, 80, 87
2, 31846, Note_on_c, 0, 47, 0
2, 31938, Note_on_c, 0, 82, 79
2, 31951, Note_on_c, 0, 80, 0
2, 32048, Note_on_c, 0, 59, 78
2, 32060, Note_on_c, 0, 80, 79
2, 32110, Note_on_c, 0, 82, 0
2, 32168, Note_on_c, 0, 78, 71
2, 32176, Note_on_c, 0, 80, 0
2, 32213, Note_on_c, 0, 78, 0
2, 32285, Note_on_c, 0, 77, 69
2, 32393, Note_on_c, 0, 75, 70
2, 32407, Note_on_c, 0, 77, 0
2, 32497, Note_on_c, 0, 59, 0
2, 32503, Note_on_c, 0, 58, 63
2, 32518, Note_on_c, 0, 75, 0
2, 32523, Note_on_c, 0, 73, 67
2, 32569, Note_on_c, 0, 58, 0
2, 32602, Note_on_c, 0, 73, 0
2, 32624, Note_on_c, 0, 75, 62
2, 32742, Note_on_c, 0, 77, 66
2, 32746, Note_on_c, 0, 56, 59
2, 32786, Note_on_c, 0, 56, 0
2, 32825, Note_on_c, 0, 77, 0
2, 32854, Note_on_c, 0, 73, 62
2, 32875, Note_on_c, 0, 75, 0
2, 32933, Note_on_c, 0, 73, 0
2, 32994, Note_on_c, 0, 66, 59
2, 33012, Note_on_c, 0, 58, 48
2, 33105, Note_on_c, 0, 58, 0
2, 33127, Note_on_c, 0, 54, 53
2, 33212, Note_on_c, 0, 54, 0
2, 33241, Note_on_c, 0, 49, 55
2, 33338, Note_on_c, 0, 49, 0
2, 33366, Note_on_c, 0, 54, 53
2, 33431, Note_on_c, 0, 54, 0
2, 33479, Note_on_c, 0, 78, 50
2, 33484, Note_on_c, 0, 58, 52
2, 33489, Note_on_c, 0, 66, 0
2, 33548, Note_on_c, 0, 78, 0
2, 33554, Note_on_c, 0, 58, 0
2, 33591, Note_on_c, 0, 54, 49
2, 33664, Note_on_c, 0, 54, 0
2, 33720, Note_on_c, 0, 68, 57
2, 33724, Note_on_c, 0, 59, 51
2, 33838, Note_on_c, 0, 54, 55
2, 33843, Note_on_c, 0, 59, 0
2, 33953, Note_on_c, 0, 54, 0
2, 33985, Note_on_c, 0, 59, 60
2, 34053, Note_on_c, 0, 59, 0
2, 34073, Note_on_c, 0, 54, 55
2, 34173, Note_on_c, 0, 54, 0
2, 34196, Note_on_c, 0, 59, 65
2, 34234, Note_on_c, 0, 68, 0
2, 34238, Note_on_c, 0, 78, 60
2, 34292, Note_on_c, 0, 78, 0
2, 34307, Note_on_c, 0, 59, 0
2, 34335, Note_on_c, 0, 54, 59
2, 34459, Note_on_c, 0, 70, 66
2, 34461, Note_on_c, 0, 54, 0
2, 34463, Note_on_c, 0, 61, 63
2, 34577, Note_on_c, 0, 61, 0
2, 34581, Note_on_c, 0, 54, 63
2, 34703, Note_on_c, 0, 54, 0
2, 34707, Note_on_c, 0, 61, 73
2, 34813, Note_on_c, 0, 54, 70
2, 34818, Note_on_c, 0, 61, 0
2, 34941, Note_on_c, 0, 54, 0
2, 34952, Note_on_c, 0, 61, 74
2, 34967, Note_on_c, 0, 78, 72
2, 34981, Note_on_c, 0, 70, 0
2, 35064, Note_on_c, 0, 78, 0
2, 35069, Note_on_c, 0, 54, 68
2, 35075, Note_on_c, 0, 61, 0
2, 35187, Note_on_c, 0, 71, 75
2, 35189, Note_on_c, 0, 54, 0
2, 35192, Note_on_c, 0, 63, 70
2, 35324, Note_on_c, 0, 63, 0
2, 35325, Note_on_c, 0, 54, 68
2, 35443, Note_on_c, 0, 54, 0
2, 35446, Note_on_c, 0, 63, 72
2, 35553, Note_on_c, 0, 63, 0
2, 35565, Note_on_c, 0, 54, 66
2, 35670, Note_on_c, 0, 54, 0
2, 35684, Note_on_c, 0, 63, 69
2, 35705, Note_on_c, 0, 78, 70
2, 35732, Note_on_c, 0, 71, 0
2, 35797, Note_on_c, 0, 63, 0
2, 35812, Note_on_c, 0, 54, 59
2, 35817, Note_on_c, 0, 78, 0
2, 35919, Note_on_c, 0, 54, 0
2, 35940, Note_on_c, 0, 70, 65
2, 35945, Note_on_c, 0, 61, 59
2, 36053, Note_on_c, 0, 61, 0
2, 36070, Note_on_c, 0, 54, 59
2, 36177, Note_on_c, 0, 54, 0
2, 36204, Note_on_c, 0, 61, 59
2, 36265, Note_on_c, 0, 61, 0
2, 36303, Note_on_c, 0, 54, 57
2, 36401, Note_on_c, 0, 54, 0
2, 36433, Note_on_c, 0, 61, 54
2, 36467, Note_on_c, 0, 78, 60
2, 36510, Note_on_c, 0, 70, 0
2, 36554, Note_on_c, 0, 78, 0
2, 36563, Note_on_c, 0, 54, 56
2, 36567, Note_on_c, 0, 61, 0
2, 36631, Note_on_c, 0, 54, 0
2, 36669, Note_on_c, 0, 59, 57
2, 36698, Note_on_c, 0, 68, 59
2, 36743, Note_on_c, 0, 59, 0
2, 36791, Note_on_c, 0, 58, 58
2, 36894, Note_on_c, 0, 58, 0
2, 36915, Note_on_c, 0, 56, 65
2, 37032, Note_on_c, 0, 58, 64
2, 37070, Note_on_c, 0, 56, 0
2, 37116, Note_on_c, 0, 58, 0
2, 37143, Note_on_c, 0, 59, 73
2, 37168, Note_on_c, 0, 77, 68
2, 37188, Note_on_c, 0, 68, 0
2, 37228, Note_on_c, 0, 59, 0
2, 37261, Note_on_c, 0, 56, 66
2, 37261, Note_on_c, 0, 77, 0
2, 37370, Note_on_c, 0, 56, 0
2, 37379, Note_on_c, 0, 66, 73
2, 37384, Note_on_c, 0, 58, 67
2, 37505, Note_on_c, 0, 56, 77
2, 37508, Note_on_c, 0, 58, 0
2, 37579, Note_on_c, 0, 66, 0
2, 37615, Note_on_c, 0, 54, 76
2, 37617, Note_on_c, 0, 56, 0
2, 37712, Note_on_c, 0, 56, 78
2, 37723, Note_on_c, 0, 54, 0
2, 37798, Note_on_c, 0, 56, 0
2, 37818, Note_on_c, 0, 58, 78
2, 37854, Note_on_c, 0, 78, 83
2, 37952, Note_on_c, 0, 54, 70
2, 37961, Note_on_c, 0, 58, 0
2, 38081, Note_on_c, 0, 56, 84
2, 38114, Note_on_c, 0, 54, 0
2, 38191, Note_on_c, 0, 56, 0
2, 38197, Note_on_c, 0, 58, 82
2, 38243, Note_on_c, 0, 78, 0
2, 38308, Note_on_c, 0, 77, 77
2, 38315, Note_on_c, 0, 56, 83
2, 38315, Note_on_c, 0, 58, 0
2, 38421, Note_on_c, 0, 54, 79
2, 38426, Note_on_c, 0, 75, 84
2, 38435, Note_on_c, 0, 56, 0
2, 38488, Note_on_c, 0, 77, 0
2, 38513, Note_on_c, 0, 54, 0
2, 38535, Note_on_c, 0, 53, 74
2, 38562, Note_on_c, 0, 73, 83
2, 38584, Note_on_c, 0, 75, 0
2, 38644, Note_on_c, 0, 53, 0
2, 38652, Note_on_c, 0, 51, 66
2, 38679, Note_on_c, 0, 75, 86
2, 38698, Note_on_c, 0, 73, 0
2, 38800, Note_on_c, 0, 51, 0
2, 38815, Note_on_c, 0, 49, 69
2, 38831, Note_on_c, 0, 77, 81
2, 38833, Note_on_c, 0, 75, 0
2, 38959, Note_on_c, 0, 73, 76
2, 38977, Note_on_c, 0, 77, 0
2, 39060, Note_on_c, 0, 73, 0
2, 39076, Note_on_c, 0, 68, 83
2, 39182, Note_on_c, 0, 68, 0
2, 39189, Note_on_c, 0, 73, 76
2, 39302, Note_on_c, 0, 49, 0
2, 39315, Note_on_c, 0, 77, 75
2, 39317, Note_on_c, 0, 73, 0
2, 39330, Note_on_c, 0, 61, 57
2, 39374, Note_on_c, 0, 61, 0
2, 39389, Note_on_c, 0, 77, 0
2, 39430, Note_on_c, 0, 73, 74
2, 39538, Note_on_c, 0, 51, 51
2, 39546, Note_on_c, 0, 73, 0
2, 39555, Note_on_c, 0, 78, 75
2, 39664, Note_on_c, 0, 78, 0
2, 39675, Note_on_c, 0, 73, 74
2, 39774, Note_on_c, 0, 73, 0
2, 39794, Note_on_c, 0, 78, 76
2, 39903, Note_on_c, 0, 78, 0
2, 39905, Note_on_c, 0, 73, 73
2, 40004, Note_on_c, 0, 51, 0
2, 40022, Note_on_c, 0, 73, 0
2, 40032, Note_on_c, 0, 78, 77
2, 40038, Note_on_c, 0, 61, 54
2, 40083, Note_on_c, 0, 61, 0
2, 40149, Note_on_c, 0, 78, 0
2, 40155, Note_on_c, 0, 73, 69
2, 40253, Note_on_c, 0, 73, 0
2, 40265, Note_on_c, 0, 80, 78
2, 40266, Note_on_c, 0, 53, 52
2, 40386, Note_on_c, 0, 73, 71
2, 40395, Note_on_c, 0, 80, 0
2, 40499, Note_on_c, 0, 73, 0
2, 40510, Note_on_c, 0, 80, 81
2, 40621, Note_on_c, 0, 80, 0
2, 40623, Note_on_c, 0, 73, 73
2, 40738, Note_on_c, 0, 73, 0
2, 40746, Note_on_c, 0, 80, 82
2, 40768, Note_on_c, 0, 61, 52
2, 40787, Note_on_c, 0, 53, 0
2, 40834, Note_on_c, 0, 61, 0
2, 40867, Note_on_c, 0, 73, 70
2, 40868, Note_on_c, 0, 80, 0
2, 40982, Note_on_c, 0, 73, 0
2, 40997, Note_on_c, 0, 82, 75
2, 41004, Note_on_c, 0, 54, 50
2, 41118, Note_on_c, 0, 73, 70
2, 41129, Note_on_c, 0, 82, 0
2, 41232, Note_on_c, 0, 73, 0
2, 41257, Note_on_c, 0, 82, 78
2, 41368, Note_on_c, 0, 73, 67
2, 41380, Note_on_c, 0, 82, 0
2, 41472, Note_on_c, 0, 73, 0
2, 41494, Note_on_c, 0, 54, 0
2, 41502, Note_on_c, 0, 82, 74
2, 41509, Note_on_c, 0, 61, 49
2, 41566, Note_on_c, 0, 61, 0
2, 41603, Note_on_c, 0, 73, 63
2, 41606, Note_on_c, 0, 82, 0
2, 41707, Note_on_c, 0, 73, 0
2, 41724, Note_on_c, 0, 80, 69
2, 41743, Note_on_c, 0, 53, 48
2, 41818, Note_on_c, 0, 80, 0
2, 41844, Note_on_c, 0, 73, 60
2, 41948, Note_on_c, 0, 73, 0
2, 41965, Note_on_c, 0, 80, 64
2, 42066, Note_on_c, 0, 80, 0
2, 42084, Note_on_c, 0, 73, 57
2, 42197, Note_on_c, 0, 73, 0
2, 42211, Note_on_c, 0, 80, 60
2, 42213, Note_on_c, 0, 53, 0
2, 42232, Note_on_c, 0, 61, 43
2, 42311, Note_on_c, 0, 80, 0
2, 42323, Note_on_c, 0, 61, 0
2, 42344, Note_on_c, 0, 73, 55
2, 42425, Note_on_c, 0, 73, 0
2, 42450, Note_on_c, 0, 78, 63
2, 42464, Note_on_c, 0, 51, 37
2, 42581, Note_on_c, 0, 77, 55
2, 42684, Note_on_c, 0, 78, 0
2, 42685, Note_on_c, 0, 75, 75
2, 42694, Note_on_c, 0, 77, 0
2, 42801, Note_on_c, 0, 75, 0
2, 42806, Note_on_c, 0, 77, 66
2, 42906, Note_on_c, 0, 77, 0
2, 42922, Note_on_c, 0, 60, 46
2, 42926, Note_on_c, 0, 78, 70
2, 42942, Note_on_c, 0, 51, 0
2, 42969, Note_on_c, 0, 60, 0
2, 43041, Note_on_c, 0, 78, 0
2, 43043, Note_on_c, 0, 75, 70
2, 43094, Note_on_c, 0, 75, 0
2, 43152, Note_on_c, 0, 77, 70
2, 43154, Note_on_c, 0, 49, 50
2, 43262, Note_on_c, 0, 75, 76
2, 43302, Note_on_c, 0, 77, 0
2, 43387, Note_on_c, 0, 73, 72
2, 43399, Note_on_c, 0, 75, 0
2, 43489, Note_on_c, 0, 75, 73
2, 43508, Note_on_c, 0, 73, 0
2, 43598, Note_on_c, 0, 49, 0
2, 43610, Note_on_c, 0, 77, 72
2, 43614, Note_on_c, 0, 61, 62
2, 43659, Note_on_c, 0, 75, 0
2, 43668, Note_on_c, 0, 61, 0
2, 43714, Note_on_c, 0, 73, 70
2, 43720, Note_on_c, 0, 77, 0
2, 43836, Note_on_c, 0, 75, 73
2, 43846, Note_on_c, 0, 54, 60
2, 43886, Note_on_c, 0, 73, 0
2, 43930, Note_on_c, 0, 54, 0
2, 43961, Note_on_c, 0, 75, 0
2, 43962, Note_on_c, 0, 77, 67
2, 44080, Note_on_c, 0, 53, 58
2, 44080, Note_on_c, 0, 77, 0
2, 44085, Note_on_c, 0, 75, 71
2, 44131, Note_on_c, 0, 53, 0
2, 44195, Note_on_c, 0, 73, 60
2, 44226, Note_on_c, 0, 75, 0
2, 44290, Note_on_c, 0, 73, 0
2, 44314, Note_on_c, 0, 72, 67
2, 44327, Note_on_c, 0, 51, 50
2, 44368, Note_on_c, 0, 51, 0
2, 44409, Note_on_c, 0, 72, 0
2, 44426, Note_on_c, 0, 70, 68
2, 44515, Note_on_c, 0, 70, 0
2, 44564, Note_on_c, 0, 72, 60
2, 44569, Note_on_c, 0, 56, 47
2, 44611, Note_on_c, 0, 56, 0
2, 44625, Note_on_c, 0, 72, 0
2, 44667, Note_on_c, 0, 68, 59
2, 44721, Note_on_c, 0, 68, 0
2, 44802, Note_on_c, 0, 66, 56
2, 44841, Note_on_c, 0, 66, 0
2, 44924, Note_on_c, 0, 68, 58
2, 44971, Note_on_c, 0, 68, 0
2, 45038, Note_on_c, 0, 63, 57
2, 45075, Note_on_c, 0, 63, 0
2, 45164, Note_on_c, 0, 68, 51
2, 45217, Note_on_c, 0, 68, 0
2, 45278, Note_on_c, 0, 72, 60
2, 45293, Note_on_c, 0, 56, 43
2, 45380, Note_on_c, 0, 56, 0
2, 45393, Note_on_c, 0, 72, 0
2, 45413, Note_on_c, 0, 68, 52
2, 45473, Note_on_c, 0, 68, 0
2, 45536, Note_on_c, 0, 66, 54
2, 45582, Note_on_c, 0, 66, 0
2, 45671, Note_on_c, 0, 68, 58
2, 45720, Note_on_c, 0, 68, 0
2, 45772, Note_on_c, 0, 63, 55
2, 45812, Note_on_c, 0, 63, 0
2, 45907, Note_on_c, 0, 68, 54
2, 45952, Note_on_c, 0, 68, 0
2, 46033, Note_on_c, 0, 73, 59
2, 46043, Note_on_c, 0, 56, 39
2, 46140, Note_on_c, 0, 56, 0
2, 46172, Note_on_c, 0, 73, 0
2, 46177, Note_on_c, 0, 68, 59
2, 46233, Note_on_c, 0, 68, 0
2, 46292, Note_on_c, 0, 65, 44
2, 46328, Note_on_c, 0, 65, 0
2, 46401, Note_on_c, 0, 68, 60
2, 46455, Note_on_c, 0, 68, 0
2, 46524, Note_on_c, 0, 61, 54
2, 46565, Note_on_c, 0, 61, 0
2, 46632, Note_on_c, 0, 68, 55
2, 46687, Note_on_c, 0, 68, 0
2, 46764, Note_on_c, 0, 73, 59
2, 46777, Note_on_c, 0, 56, 41
2, 46852, Note_on_c, 0, 56, 0
2, 46907, Note_on_c, 0, 68, 47
2, 46911, Note_on_c, 0, 73, 0
2, 46962, Note_on_c, 0, 68, 0
2, 47016, Note_on_c, 0, 65, 51
2, 47054, Note_on_c, 0, 65, 0
2, 47135, Note_on_c, 0, 68, 51
2, 47185, Note_on_c, 0, 68, 0
2, 47253, Note_on_c, 0, 61, 54
2, 47297, Note_on_c, 0, 61, 0
2, 47379, Note_on_c, 0, 68, 41
2, 47436, Note_on_c, 0, 68, 0
2, 47491, Note_on_c, 0, 56, 55
2, 47497, Note_on_c, 0, 78, 61
2, 47555, Note_on_c, 0, 56, 0
2, 47630, Note_on_c, 0, 78, 0
2, 47632, Note_on_c, 0, 68, 43
2, 47686, Note_on_c, 0, 68, 0
2, 47737, Note_on_c, 0, 63, 55
2, 47784, Note_on_c, 0, 63, 0
2, 47851, Note_on_c, 0, 68, 52
2, 47906, Note_on_c, 0, 68, 0
2, 47979, Note_on_c, 0, 60, 53
2, 48024, Note_on_c, 0, 60, 0
2, 48104, Note_on_c, 0, 68, 48
2, 48160, Note_on_c, 0, 68, 0
2, 48232, Note_on_c, 0, 78, 63
2, 48246, Note_on_c, 0, 56, 45
2, 48325, Note_on_c, 0, 56, 0
2, 48348, Note_on_c, 0, 78, 0
2, 48355, Note_on_c, 0, 68, 48
2, 48412, Note_on_c, 0, 68, 0
2, 48479, Note_on_c, 0, 63, 52
2, 48527, Note_on_c, 0, 63, 0
2, 48600, Note_on_c, 0, 68, 55
2, 48648, Note_on_c, 0, 68, 0
2, 48715, Note_on_c, 0, 60, 49
2, 48760, Note_on_c, 0, 60, 0
2, 48836, Note_on_c, 0, 68, 51
2, 48892, Note_on_c, 0, 68, 0
2, 48964, Note_on_c, 0, 77, 65
2, 48983, Note_on_c, 0, 56, 47
2, 49064, Note_on_c, 0, 56, 0
2, 49097, Note_on_c, 0, 77, 0
2, 49098, Note_on_c, 0, 68, 55
2, 49149, Note_on_c, 0, 68, 0
2, 49226, Note_on_c, 0, 65, 48
2, 49263, Note_on_c, 0, 65, 0
2, 49352, Note_on_c, 0, 68, 57
2, 49396, Note_on_c, 0, 68, 0
2, 49461, Note_on_c, 0, 61, 48
2, 49497, Note_on_c, 0, 61, 0
2, 49579, Note_on_c, 0, 68, 49
2, 49643, Note_on_c, 0, 68, 0
2, 49699, Note_on_c, 0, 77, 69
2, 49714, Note_on_c, 0, 56, 49
2, 49792, Note_on_c, 0, 56, 0
2, 49832, Note_on_c, 0, 68, 56
2, 49838, Note_on_c, 0, 77, 0
2, 49912, Note_on_c, 0, 68, 0
2, 49951, Note_on_c, 0, 65, 66
2, 49999, Note_on_c, 0, 65, 0
2, 50061, Note_on_c, 0, 68, 67
2, 50141, Note_on_c, 0, 68, 0
2, 50187, Note_on_c, 0, 61, 67
2, 50234, Note_on_c, 0, 61, 0
2, 50300, Note_on_c, 0, 68, 67
2, 50377, Note_on_c, 0, 68, 0
2, 50437, Note_on_c, 0, 79, 78
2, 50451, Note_on_c, 0, 56, 56
2, 50558, Note_on_c, 0, 70, 62
2, 50611, Note_on_c, 0, 56, 0
2, 50626, Note_on_c, 0, 79, 0
2, 50627, Note_on_c, 0, 70, 0
2, 50684, Note_on_c, 0, 64, 73
2, 50729, Note_on_c, 0, 64, 0
2, 50798, Note_on_c, 0, 70, 69
2, 50847, Note_on_c, 0, 70, 0
2, 50936, Note_on_c, 0, 61, 66
2, 50978, Note_on_c, 0, 61, 0
2, 51029, Note_on_c, 0, 70, 68
2, 51086, Note_on_c, 0, 70, 0
2, 51165, Note_on_c, 0, 79, 85
2, 51172, Note_on_c, 0, 56, 64
2, 51281, Note_on_c, 0, 70, 73
2, 51361, Note_on_c, 0, 70, 0
2, 51369, Note_on_c, 0, 56, 0
2, 51372, Note_on_c, 0, 79, 0
2, 51415, Note_on_c, 0, 64, 78
2, 51472, Note_on_c, 0, 64, 0
2, 51530, Note_on_c, 0, 70, 75
2, 51594, Note_on_c, 0, 70, 0
2, 51655, Note_on_c, 0, 61, 75
2, 51697, Note_on_c, 0, 61, 0
2, 51761, Note_on_c, 0, 70, 80
2, 51840, Note_on_c, 0, 70, 0
2, 51891, Note_on_c, 0, 56, 71
2, 51893, Note_on_c, 0, 80, 86
2, 52005, Note_on_c, 0, 72, 87
2, 52090, Note_on_c, 0, 72, 0
2, 52097, Note_on_c, 0, 56, 0
2, 52128, Note_on_c, 0, 80, 0
2, 52140, Note_on_c, 0, 63, 81
2, 52220, Note_on_c, 0, 63, 0
2, 52252, Note_on_c, 0, 72, 79
2, 52319, Note_on_c, 0, 72, 0
2, 52382, Note_on_c, 0, 60, 76
2, 52430, Note_on_c, 0, 60, 0
2, 52473, Note_on_c, 0, 72, 76
2, 52550, Note_on_c, 0, 72, 0
2, 52600, Note_on_c, 0, 54, 79
2, 52609, Note_on_c, 0, 80, 89
2, 52719, Note_on_c, 0, 72, 81
2, 52727, Note_on_c, 0, 54, 0
2, 52802, Note_on_c, 0, 72, 0
2, 52851, Note_on_c, 0, 63, 85
2, 52885, Note_on_c, 0, 80, 0
2, 52934, Note_on_c, 0, 63, 0
2, 52953, Note_on_c, 0, 72, 82
2, 53025, Note_on_c, 0, 72, 0
2, 53079, Note_on_c, 0, 60, 79
2, 53136, Note_on_c, 0, 60, 0
2, 53188, Note_on_c, 0, 72, 83
2, 53260, Note_on_c, 0, 72, 0
2, 53320, Note_on_c, 0, 53, 65
2, 53344, Note_on_c, 0, 80, 82
2, 53396, Note_on_c, 0, 53, 0
2, 53453, Note_on_c, 0, 73, 74
2, 53507, Note_on_c, 0, 80, 0
2, 53540, Note_on_c, 0, 73, 0
2, 53575, Note_on_c, 0, 65, 71
2, 53642, Note_on_c, 0, 65, 0
2, 53667, Note_on_c, 0, 68, 79
2, 53743, Note_on_c, 0, 68, 0
2, 53802, Note_on_c, 0, 61, 75
2, 53893, Note_on_c, 0, 61, 0
2, 53895, Note_on_c, 0, 73, 76
2, 53986, Note_on_c, 0, 73, 0
2, 54027, Note_on_c, 0, 56, 80
2, 54064, Note_on_c, 0, 56, 0
2, 54140, Note_on_c, 0, 77, 78
2, 54180, Note_on_c, 0, 77, 0
2, 54259, Note_on_c, 0, 53, 78
2, 54355, Note_on_c, 0, 53, 0
2, 54365, Note_on_c, 0, 80, 83
2, 54460, Note_on_c, 0, 80, 0
2, 54496, Note_on_c, 0, 51, 72
2, 54535, Note_on_c, 0, 51, 0
2, 54605, Note_on_c, 0, 82, 83
2, 54713, Note_on_c, 0, 82, 0
2, 54753, Note_on_c, 0, 83, 77
2, 54755, Note_on_c, 0, 50, 57
2, 54870, Note_on_c, 0, 82, 83
2, 54872, Note_on_c, 0, 50, 0
2, 54922, Note_on_c, 0, 83, 0
2, 54984, Note_on_c, 0, 80, 85
2, 54992, Note_on_c, 0, 53, 61
2, 55051, Note_on_c, 0, 53, 0
2, 55097, Note_on_c, 0, 78, 80
2, 55097, Note_on_c, 0, 82, 0
2, 55166, Note_on_c, 0, 80, 0
2, 55225, Note_on_c, 0, 78, 0
2, 55227, Note_on_c, 0, 56, 66
2, 55227, Note_on_c, 0, 77, 84
2, 55283, Note_on_c, 0, 56, 0
2, 55337, Note_on_c, 0, 75, 81
2, 55353, Note_on_c, 0, 77, 0
2, 55436, Note_on_c, 0, 75, 0
2, 55456, Note_on_c, 0, 62, 64
2, 55464, Note_on_c, 0, 77, 89
2, 55507, Note_on_c, 0, 62, 0
2, 55577, Note_on_c, 0, 78, 82
2, 55593, Note_on_c, 0, 77, 0
2, 55684, Note_on_c, 0, 78, 0
2, 55704, Note_on_c, 0, 80, 82
2, 55713, Note_on_c, 0, 65, 70
2, 55747, Note_on_c, 0, 65, 0
2, 55816, Note_on_c, 0, 83, 81
2, 55824, Note_on_c, 0, 80, 0
2, 55933, Note_on_c, 0, 68, 80
2, 55939, Note_on_c, 0, 82, 82
2, 55967, Note_on_c, 0, 68, 0
2, 55969, Note_on_c, 0, 83, 0
2, 56047, Note_on_c, 0, 80, 79
2, 56070, Note_on_c, 0, 82, 0
2, 56128, Note_on_c, 0, 80, 0
2, 56178, Note_on_c, 0, 66, 76
2, 56184, Note_on_c, 0, 82, 85
2, 56272, Note_on_c, 0, 66, 0
2, 56304, Note_on_c, 0, 75, 68
2, 56328, Note_on_c, 0, 82, 0
2, 56357, Note_on_c, 0, 75, 0
2, 56414, Note_on_c, 0, 63, 69
2, 56459, Note_on_c, 0, 63, 0
2, 56522, Note_on_c, 0, 66, 68
2, 56569, Note_on_c, 0, 66, 0
2, 56657, Note_on_c, 0, 58, 66
2, 56692, Note_on_c, 0, 58, 0
2, 56766, Note_on_c, 0, 70, 73
2, 56814, Note_on_c, 0, 70, 0
2, 56888, Note_on_c, 0, 54, 67
2, 56939, Note_on_c, 0, 54, 0
2, 57000, Note_on_c, 0, 75, 76
2, 57054, Note_on_c, 0, 75, 0
2, 57131, Note_on_c, 0, 51, 56
2, 57179, Note_on_c, 0, 51, 0
2, 57234, Note_on_c, 0, 78, 68
2, 57294, Note_on_c, 0, 78, 0
2, 57361, Note_on_c, 0, 49, 58
2, 57411, Note_on_c, 0, 49, 0
2, 57478, Note_on_c, 0, 80, 59
2, 57562, Note_on_c, 0, 80, 0
2, 57599, Note_on_c, 0, 48, 51
2, 57601, Note_on_c, 0, 81, 66
2, 57672, Note_on_c, 0, 48, 0
2, 57709, Note_on_c, 0, 80, 67
2, 57727, Note_on_c, 0, 81, 0
2, 57841, Note_on_c, 0, 78, 61
2, 57856, Note_on_c, 0, 51, 39
2, 57864, Note_on_c, 0, 80, 0
2, 57899, Note_on_c, 0, 51, 0
2, 57923, Note_on_c, 0, 78, 0
2, 57943, Note_on_c, 0, 76, 64
2, 58067, Note_on_c, 0, 75, 66
2, 58071, Note_on_c, 0, 76, 0
2, 58083, Note_on_c, 0, 54, 50
2, 58137, Note_on_c, 0, 54, 0
2, 58177, Note_on_c, 0, 73, 65
2, 58185, Note_on_c, 0, 75, 0
2, 58299, Note_on_c, 0, 73, 0
2, 58312, Note_on_c, 0, 75, 73
2, 58322, Note_on_c, 0, 60, 49
2, 58357, Note_on_c, 0, 60, 0
2, 58376, Note_on_c, 0, 75, 0
2, 58416, Note_on_c, 0, 76, 67
2, 58518, Note_on_c, 0, 76, 0
2, 58538, Note_on_c, 0, 78, 67
2, 58548, Note_on_c, 0, 63, 54
2, 58597, Note_on_c, 0, 63, 0
2, 58639, Note_on_c, 0, 81, 71
2, 58645, Note_on_c, 0, 78, 0
2, 58768, Note_on_c, 0, 80, 71
2, 58781, Note_on_c, 0, 66, 60
2, 58796, Note_on_c, 0, 81, 0
2, 58819, Note_on_c, 0, 66, 0
2, 58892, Note_on_c, 0, 78, 67
2, 58896, Note_on_c, 0, 80, 0
2, 58951, Note_on_c, 0, 78, 0
2, 59025, Note_on_c, 0, 80, 72
2, 59032, Note_on_c, 0, 64, 49
2, 59091, Note_on_c, 0, 64, 0
2, 59137, Note_on_c, 0, 73, 59
2, 59149, Note_on_c, 0, 80, 0
2, 59183, Note_on_c, 0, 73, 0
2, 59250, Note_on_c, 0, 61, 48
2, 59316, Note_on_c, 0, 61, 0
2, 59379, Note_on_c, 0, 76, 64
2, 59450, Note_on_c, 0, 76, 0
2, 59504, Note_on_c, 0, 57, 54
2, 59561, Note_on_c, 0, 57, 0
2, 59630, Note_on_c, 0, 73, 52
2, 59732, Note_on_c, 0, 73, 0
2, 59754, Note_on_c, 0, 54, 55
2, 59808, Note_on_c, 0, 54, 0
2, 59873, Note_on_c, 0, 69, 56
2, 59925, Note_on_c, 0, 69, 0
2, 60008, Note_on_c, 0, 63, 53
2, 60070, Note_on_c, 0, 63, 0
2, 60111, Note_on_c, 0, 66, 51
2, 60157, Note_on_c, 0, 66, 0
2, 60223, Note_on_c, 0, 60, 58
2, 60277, Note_on_c, 0, 60, 0
2, 60366, Note_on_c, 0, 75, 58
2, 60437, Note_on_c, 0, 75, 0
2, 60462, Note_on_c, 0, 52, 52
2, 60512, Note_on_c, 0, 52, 0
2, 60605, Note_on_c, 0, 68, 64
2, 60656, Note_on_c, 0, 68, 0
2, 60720, Note_on_c, 0, 61, 58
2, 60785, Note_on_c, 0, 61, 0
2, 60851, Note_on_c, 0, 64, 46
2, 60895, Note_on_c, 0, 64, 0
2, 60952, Note_on_c, 0, 57, 57
2, 61008, Note_on_c, 0, 57, 0
2, 61094, Note_on_c, 0, 73, 52
2, 61154, Note_on_c, 0, 73, 0
2, 61188, Note_on_c, 0, 54, 57
2, 61254, Note_on_c, 0, 54, 0
2, 61311, Note_on_c, 0, 69, 60
2, 61376, Note_on_c, 0, 69, 0
2, 61421, Note_on_c, 0, 51, 49
2, 61463, Control_c, 0, 67, 8
2, 61483, Control_c, 0, 67, 11
2, 61493, Note_on_c, 0, 51, 0
2, 61502, Control_c, 0, 67, 13
2, 61522, Control_c, 0, 67, 16
2, 61540, Control_c, 0, 67, 19
2, 61552, Note_on_c, 0, 66, 55
2, 61560, Control_c, 0, 67, 24
2, 61579, Control_c, 0, 67, 28
2, 61597, Note_on_c, 0, 66, 0
2, 61598, Control_c, 0, 67, 31
2, 61617, Control_c, 0, 67, 33
2, 61637, Control_c, 0, 67, 36
2, 61656, Control_c, 0, 67, 40
2, 61671, Note_on_c, 0, 48, 45
2, 61675, Control_c, 0, 67, 46
2, 61694, Control_c, 0, 67, 52
2, 61714, Control_c, 0, 67, 58
2, 61720, Note_on_c, 0, 48, 0
2, 61732, Control_c, 0, 67, 64
2, 61752, Control_c, 0, 67, 69
2, 61771, Control_c, 0, 67, 74
2, 61791, Control_c, 0, 67, 79
2, 61799, Note_on_c, 0, 63, 65
2, 61809, Control_c, 0, 67, 83
2, 61829, Control_c, 0, 67, 88
2, 61841, Note_on_c, 0, 63, 0
2, 61849, Control_c, 0, 67, 92
2, 61868, Control_c, 0, 67, 96
2, 61887, Control_c, 0, 67, 98
2, 61906, Control_c, 0, 67, 100
2, 61926, Control_c, 0, 67, 102
2, 61944, Control_c, 0, 67, 103
2, 61958, Note_on_c, 0, 44, 44
2, 61964, Control_c, 0, 67, 105
2, 61982, Note_on_c, 0, 60, 66
2, 61983, Control_c, 0, 67, 106
2, 62002, Control_c, 0, 67, 107
2, 62021, Control_c, 0, 67, 109
2, 62041, Control_c, 0, 67, 110
2, 62043, Note_on_c, 0, 44, 0
2, 62061, Control_c, 0, 67, 112
2, 62076, Note_on_c, 0, 60, 0
2, 62080, Control_c, 0, 67, 115
2, 62099, Control_c, 0, 67, 118
2, 62099, Note_on_c, 0, 56, 61
2, 62119, Control_c, 0, 67, 121
2, 62137, Control_c, 0, 67, 125
2, 62154, Note_on_c, 0, 56, 0
2, 62157, Control_c, 0, 67, 126
2, 62176, Control_c, 0, 67, 127
2, 62237, Note_on_c, 0, 54, 53
2, 62283, Note_on_c, 0, 54, 0
2, 62361, Note_on_c, 0, 56, 53
2, 62407, Note_on_c, 0, 56, 0
2, 62469, Note_on_c, 0, 51, 50
2, 62512, Note_on_c, 0, 51, 0
2, 62569, Note_on_c, 0, 56, 51
2, 62636, Note_on_c, 0, 56, 0
2, 62704, Note_on_c, 0, 44, 47
2, 62725, Note_on_c, 0, 60, 57
2, 62767, Note_on_c, 0, 44, 0
2, 62861, Note_on_c, 0, 60, 0
2, 62869, Note_on_c, 0, 56, 48
2, 62917, Note_on_c, 0, 56, 0
2, 62954, Note_on_c, 0, 54, 58
2, 63007, Note_on_c, 0, 54, 0
2, 63080, Note_on_c, 0, 56, 51
2, 63136, Note_on_c, 0, 56, 0
2, 63188, Note_on_c, 0, 51, 45
2, 63235, Note_on_c, 0, 51, 0
2, 63299, Note_on_c, 0, 56, 55
2, 63352, Note_on_c, 0, 56, 0
2, 63444, Note_on_c, 0, 61, 60
2, 63454, Note_on_c, 0, 44, 39
2, 63532, Note_on_c, 0, 44, 0
2, 63584, Note_on_c, 0, 56, 52
2, 63647, Note_on_c, 0, 61, 0
2, 63652, Note_on_c, 0, 56, 0
2, 63720, Note_on_c, 0, 53, 39
2, 63762, Note_on_c, 0, 53, 0
2, 63835, Note_on_c, 0, 56, 53
2, 63884, Note_on_c, 0, 56, 0
2, 63943, Note_on_c, 0, 49, 53
2, 63990, Note_on_c, 0, 49, 0
2, 64056, Note_on_c, 0, 56, 49
2, 64107, Note_on_c, 0, 56, 0
2, 64199, Note_on_c, 0, 61, 63
2, 64201, Note_on_c, 0, 44, 43
2, 64274, Note_on_c, 0, 44, 0
2, 64330, Note_on_c, 0, 56, 48
2, 64358, Note_on_c, 0, 61, 0
2, 64381, Note_on_c, 0, 56, 0
2, 64450, Note_on_c, 0, 53, 54
2, 64498, Note_on_c, 0, 53, 0
2, 64583, Note_on_c, 0, 56, 47
2, 64629, Note_on_c, 0, 56, 0
2, 64691, Note_on_c, 0, 49, 58
2, 64736, Note_on_c, 0, 49, 0
2, 64800, Note_on_c, 0, 56, 50
2, 64866, Note_on_c, 0, 56, 0
2, 64954, Note_on_c, 0, 44, 44
2, 64954, Note_on_c, 0, 66, 60
2, 65049, Note_on_c, 0, 44, 0
2, 65089, Note_on_c, 0, 66, 0
2, 65100, Note_on_c, 0, 56, 42
2, 65152, Note_on_c, 0, 56, 0
2, 65206, Note_on_c, 0, 51, 54
2, 65256, Note_on_c, 0, 51, 0
2, 65314, Note_on_c, 0, 56, 47
2, 65370, Note_on_c, 0, 56, 0
2, 65435, Note_on_c, 0, 48, 58
2, 65479, Note_on_c, 0, 48, 0
2, 65546, Note_on_c, 0, 56, 52
2, 65601, Note_on_c, 0, 56, 0
2, 65689, Note_on_c, 0, 66, 65
2, 65696, Note_on_c, 0, 44, 48
2, 65752, Note_on_c, 0, 44, 0
2, 65822, Note_on_c, 0, 56, 55
2, 65823, Note_on_c, 0, 66, 0
2, 65876, Note_on_c, 0, 56, 0
2, 65930, Note_on_c, 0, 51, 58
2, 65979, Note_on_c, 0, 51, 0
2, 66056, Note_on_c, 0, 56, 61
2, 66109, Note_on_c, 0, 56, 0
2, 66178, Note_on_c, 0, 48, 61
2, 66230, Note_on_c, 0, 48, 0
2, 66299, Note_on_c, 0, 56, 59
2, 66352, Note_on_c, 0, 56, 0
2, 66438, Note_on_c, 0, 65, 70
2, 66453, Note_on_c, 0, 44, 40
2, 66517, Note_on_c, 0, 44, 0
2, 66559, Note_on_c, 0, 56, 67
2, 66611, Note_on_c, 0, 65, 0
2, 66619, Note_on_c, 0, 56, 0
2, 66687, Note_on_c, 0, 53, 60
2, 66731, Note_on_c, 0, 53, 0
2, 66795, Note_on_c, 0, 56, 62
2, 66849, Note_on_c, 0, 56, 0
2, 66922, Note_on_c, 0, 49, 62
2, 66959, Note_on_c, 0, 49, 0
2, 67021, Note_on_c, 0, 56, 65
2, 67085, Note_on_c, 0, 56, 0
2, 67152, Note_on_c, 0, 65, 73
2, 67174, Note_on_c, 0, 44, 47
2, 67236, Note_on_c, 0, 44, 0
2, 67272, Note_on_c, 0, 56, 69
2, 67342, Note_on_c, 0, 65, 0
2, 67363, Note_on_c, 0, 56, 0
2, 67412, Note_on_c, 0, 53, 71
2, 67460, Note_on_c, 0, 53, 0
2, 67530, Note_on_c, 0, 56, 73
2, 67589, Note_on_c, 0, 56, 0
2, 67645, Note_on_c, 0, 49, 74
2, 67687, Note_on_c, 0, 49, 0
2, 67752, Note_on_c, 0, 56, 77
2, 67831, Note_on_c, 0, 56, 0
2, 67886, Note_on_c, 0, 67, 81
2, 67895, Note_on_c, 0, 44, 58
2, 67973, Control_c, 0, 67, 127
2, 67993, Control_c, 0, 67, 125
2, 68001, Note_on_c, 0, 58, 75
2, 68012, Control_c, 0, 67, 124
2, 68032, Control_c, 0, 67, 122
2, 68050, Control_c, 0, 67, 119
2, 68070, Control_c, 0, 67, 112
2, 68075, Note_on_c, 0, 44, 0
2, 68077, Note_on_c, 0, 58, 0
2, 68089, Control_c, 0, 67, 100
2, 68107, Control_c, 0, 67, 82
2, 68113, Note_on_c, 0, 67, 0
2, 68123, Note_on_c, 0, 52, 76
2, 68127, Control_c, 0, 67, 56
2, 68146, Control_c, 0, 67, 22
2, 68166, Control_c, 0, 67, 0
2, 68183, Note_on_c, 0, 52, 0
2, 68226, Note_on_c, 0, 58, 78
2, 68280, Note_on_c, 0, 58, 0
2, 68347, Note_on_c, 0, 49, 79
2, 68392, Note_on_c, 0, 49, 0
2, 68442, Note_on_c, 0, 58, 79
2, 68521, Note_on_c, 0, 58, 0
2, 68577, Note_on_c, 0, 44, 69
2, 68585, Note_on_c, 0, 67, 83
2, 68696, Note_on_c, 0, 58, 77
2, 68755, Note_on_c, 0, 44, 0
2, 68778, Note_on_c, 0, 58, 0
2, 68787, Note_on_c, 0, 67, 0
2, 68831, Note_on_c, 0, 52, 76
2, 68911, Note_on_c, 0, 52, 0
2, 68940, Note_on_c, 0, 58, 78
2, 69002, Note_on_c, 0, 58, 0
2, 69062, Note_on_c, 0, 49, 81
2, 69157, Note_on_c, 0, 49, 0
2, 69187, Note_on_c, 0, 58, 76
2, 69254, Note_on_c, 0, 58, 0
2, 69316, Note_on_c, 0, 44, 70
2, 69491, Note_on_c, 0, 48, 68
2, 69508, Control_c, 0, 64, 52
2, 69514, Note_on_c, 0, 44, 0
2, 69528, Control_c, 0, 64, 61
2, 69547, Control_c, 0, 64, 63
2, 69566, Control_c, 0, 64, 61
2, 69585, Control_c, 0, 64, 58
2, 69605, Control_c, 0, 64, 53
2, 69621, Note_on_c, 0, 51, 71
2, 69623, Control_c, 0, 64, 48
2, 69643, Control_c, 0, 64, 47
2, 69648, Note_on_c, 0, 48, 0
2, 69662, Control_c, 0, 64, 48
2, 69682, Control_c, 0, 64, 49
2, 69682, Note_on_c, 0, 51, 0
2, 69700, Control_c, 0, 64, 50
2, 69720, Control_c, 0, 64, 50
2, 69729, Note_on_c, 0, 54, 74
2, 69739, Control_c, 0, 64, 51
2, 69797, Control_c, 0, 64, 52
2, 69818, Note_on_c, 0, 54, 0
2, 69835, Control_c, 0, 64, 51
2, 69842, Note_on_c, 0, 57, 78
2, 69854, Control_c, 0, 64, 51
2, 69931, Control_c, 0, 64, 51
2, 69951, Control_c, 0, 64, 52
2, 69969, Control_c, 0, 64, 54
2, 69969, Note_on_c, 0, 60, 72
2, 69997, Note_on_c, 0, 57, 0
2, 70008, Control_c, 0, 64, 53
2, 70027, Control_c, 0, 64, 51
2, 70042, Note_on_c, 0, 60, 0
2, 70046, Control_c, 0, 64, 48
2, 70060, Note_on_c, 0, 61, 78
2, 70065, Control_c, 0, 64, 43
2, 70085, Control_c, 0, 64, 38
2, 70103, Control_c, 0, 64, 33
2, 70123, Control_c, 0, 64, 29
2, 70142, Control_c, 0, 64, 23
2, 70162, Control_c, 0, 64, 0
2, 70186, Note_on_c, 0, 64, 74
2, 70217, Note_on_c, 0, 61, 0
2, 70299, Note_on_c, 0, 67, 76
2, 70346, Note_on_c, 0, 64, 0
2, 70354, Control_c, 0, 64, 19
2, 70372, Control_c, 0, 64, 46
2, 70372, Note_on_c, 0, 67, 0
2, 70390, Note_on_c, 0, 70, 87
2, 70392, Control_c, 0, 64, 52
2, 70468, Control_c, 0, 64, 51
2, 70507, Note_on_c, 0, 73, 83
2, 70545, Control_c, 0, 64, 52
2, 70556, Note_on_c, 0, 70, 0
2, 70565, Control_c, 0, 64, 52
2, 70583, Control_c, 0, 64, 53
2, 70603, Control_c, 0, 64, 53
2, 70615, Note_on_c, 0, 76, 80
2, 70622, Control_c, 0, 64, 54
2, 70642, Control_c, 0, 64, 54
2, 70678, Note_on_c, 0, 73, 0
2, 70680, Control_c, 0, 64, 53
2, 70700, Control_c, 0, 64, 51
2, 70718, Note_on_c, 0, 76, 0
2, 70719, Control_c, 0, 64, 47
2, 70721, Note_on_c, 0, 44, 63
2, 70738, Control_c, 0, 64, 37
2, 70739, Note_on_c, 0, 72, 86
2, 70758, Control_c, 0, 64, 0
2, 70858, Note_on_c, 0, 75, 80
2, 70893, Note_on_c, 0, 72, 0
2, 70912, Control_c, 0, 64, 55
2, 70930, Control_c, 0, 64, 65
2, 70950, Control_c, 0, 64, 74
2, 70969, Control_c, 0, 64, 100
2, 70971, Note_on_c, 0, 78, 88
2, 70987, Control_c, 0, 64, 127
2, 70992, Note_on_c, 0, 75, 0
2, 71032, Note_on_c, 0, 44, 0
2, 71085, Note_on_c, 0, 75, 81
2, 71134, Note_on_c, 0, 78, 0
2, 71197, Note_on_c, 0, 72, 84
2, 71247, Note_on_c, 0, 75, 0
2, 71302, Note_on_c, 0, 68, 80
2, 71355, Note_on_c, 0, 72, 0
2, 71384, Note_on_c, 0, 68, 0
2, 71432, Note_on_c, 0, 66, 80
2, 71489, Control_c, 0, 64, 104
2, 71508, Control_c, 0, 64, 80
2, 71527, Control_c, 0, 64, 65
2, 71546, Control_c, 0, 64, 38
2, 71550, Note_on_c, 0, 63, 75
2, 71560, Note_on_c, 0, 66, 0
2, 71566, Control_c, 0, 64, 0
2, 71665, Note_on_c, 0, 60, 71
2, 71678, Note_on_c, 0, 63, 0
2, 71772, Note_on_c, 0, 60, 0
2, 71779, Note_on_c, 0, 56, 73
2, 71904, Note_on_c, 0, 60, 69
2, 71916, Note_on_c, 0, 56, 0
2, 72013, Note_on_c, 0, 63, 75
2, 72038, Note_on_c, 0, 60, 0
2, 72125, Note_on_c, 0, 63, 0
2, 72160, Note_on_c, 0, 56, 63
2, 72166, Note_on_c, 0, 65, 68
2, 72302, Note_on_c, 0, 68, 76
2, 72353, Control_c, 0, 64, 56
2, 72353, Note_on_c, 0, 65, 0
2, 72371, Control_c, 0, 64, 69
2, 72391, Control_c, 0, 64, 83
2, 72411, Control_c, 0, 64, 127
2, 72422, Note_on_c, 0, 73, 82
2, 72442, Note_on_c, 0, 68, 0
2, 72502, Note_on_c, 0, 56, 0
2, 72548, Note_on_c, 0, 68, 85
2, 72582, Note_on_c, 0, 73, 0
2, 72621, Control_c, 0, 64, 99
2, 72640, Control_c, 0, 64, 77
2, 72659, Control_c, 0, 64, 62
2, 72661, Note_on_c, 0, 65, 76
2, 72679, Control_c, 0, 64, 32
2, 72697, Control_c, 0, 64, 0
2, 72703, Note_on_c, 0, 68, 0
2, 72783, Note_on_c, 0, 61, 74
2, 72820, Note_on_c, 0, 65, 0
2, 72897, Note_on_c, 0, 58, 79
2, 72933, Note_on_c, 0, 61, 0
2, 73033, Note_on_c, 0, 55, 70
2, 73056, Note_on_c, 0, 58, 0
2, 73158, Note_on_c, 0, 52, 71
2, 73193, Note_on_c, 0, 55, 0
2, 73275, Note_on_c, 0, 52, 0
2, 73276, Note_on_c, 0, 49, 77
2, 73424, Note_on_c, 0, 52, 68
2, 73435, Note_on_c, 0, 49, 0
2, 73573, Note_on_c, 0, 55, 68
2, 73579, Control_c, 0, 64, 55
2, 73598, Control_c, 0, 64, 70
2, 73603, Note_on_c, 0, 52, 0
2, 73617, Control_c, 0, 64, 109
2, 73637, Control_c, 0, 64, 127
2, 73662, Note_on_c, 0, 55, 0
2, 73803, Note_on_c, 0, 44, 68
2, 73809, Control_c, 0, 64, 83
2, 73828, Control_c, 0, 64, 65
2, 73848, Control_c, 0, 64, 0
2, 74136, Control_c, 0, 67, 8
2, 74155, Control_c, 0, 67, 10
2, 74194, Control_c, 0, 67, 11
2, 74212, Control_c, 0, 67, 12
2, 74212, Note_on_c, 0, 73, 77
2, 74232, Control_c, 0, 67, 14
2, 74236, Note_on_c, 0, 49, 53
2, 74236, Note_on_c, 0, 68, 66
2, 74237, Note_on_c, 0, 56, 53
2, 74238, Note_on_c, 0, 65, 57
2, 74242, Note_on_c, 0, 53, 50
2, 74251, Control_c, 0, 67, 17
2, 74271, Control_c, 0, 67, 20
2, 74289, Control_c, 0, 67, 22
2, 74308, Control_c, 0, 64, 59
2, 74308, Control_c, 0, 67, 25
2, 74332, Control_c, 0, 64, 67
2, 74332, Control_c, 0, 67, 27
2, 74351, Control_c, 0, 64, 76
2, 74351, Control_c, 0, 67, 30
2, 74370, Control_c, 0, 64, 99
2, 74370, Control_c, 0, 67, 34
2, 74389, Control_c, 0, 64, 127
2, 74389, Control_c, 0, 67, 37
2, 74389, Note_on_c, 0, 53, 0
2, 74404, Note_on_c, 0, 68, 0
2, 74407, Note_on_c, 0, 49, 0
2, 74408, Control_c, 0, 67, 42
2, 74427, Control_c, 0, 67, 49
2, 74431, Note_on_c, 0, 73, 0
2, 74440, Note_on_c, 0, 56, 0
2, 74441, Note_on_c, 0, 65, 0
2, 74447, Control_c, 0, 67, 58
2, 74466, Control_c, 0, 67, 66
2, 74485, Control_c, 0, 67, 72
2, 74504, Control_c, 0, 64, 112
2, 74504, Control_c, 0, 67, 77
2, 74524, Control_c, 0, 64, 97
2, 74524, Control_c, 0, 67, 82
2, 74542, Control_c, 0, 64, 86
2, 74542, Control_c, 0, 67, 87
2, 74561, Control_c, 0, 64, 76
2, 74561, Control_c, 0, 67, 92
2, 74580, Control_c, 0, 64, 68
2, 74580, Control_c, 0, 67, 96
2, 74600, Control_c, 0, 64, 63
2, 74600, Control_c, 0, 67, 103
2, 74618, Control_c, 0, 64, 60
2, 74618, Control_c, 0, 67, 108
2, 74638, Control_c, 0, 64, 54
2, 74638, Control_c, 0, 67, 113
2, 74656, Note_on_c, 0, 72, 71
2, 74657, Control_c, 0, 64, 41
2, 74657, Control_c, 0, 67, 119
2, 74676, Note_on_c, 0, 68, 60
2, 74677, Control_c, 0, 64, 0
2, 74677, Control_c, 0, 67, 125
2, 74678, Note_on_c, 0, 63, 56
2, 74682, Note_on_c, 0, 56, 38
2, 74688, Note_on_c, 0, 51, 42
2, 74689, Note_on_c, 0, 54, 46
2, 74695, Control_c, 0, 67, 127
2, 74829, Control_c, 0, 64, 57
2, 74849, Control_c, 0, 64, 68
2, 74868, Control_c, 0, 64, 87
2, 74887, Control_c, 0, 64, 127
2, 74917, Note_on_c, 0, 51, 0
2, 74919, Note_on_c, 0, 63, 0
2, 74927, Note_on_c, 0, 54, 0
2, 74938, Note_on_c, 0, 72, 0
2, 74955, Note_on_c, 0, 68, 0
2, 74988, Note_on_c, 0, 56, 0
2, 75080, Control_c, 0, 64, 100
2, 75098, Control_c, 0, 64, 90
2, 75118, Control_c, 0, 64, 83
2, 75137, Control_c, 0, 64, 77
2, 75157, Control_c, 0, 64, 72
2, 75175, Control_c, 0, 64, 66
2, 75195, Control_c, 0, 64, 60
2, 75214, Control_c, 0, 64, 48
2, 75233, Control_c, 0, 64, 31
2, 75252, Control_c, 0, 64, 0
2, 75336, Note_on_c, 0, 49, 61
2, 75399, Note_on_c, 0, 44, 0
2, 75780, Note_on_c, 0, 53, 50
2, 75895, Note_on_c, 0, 56, 57
2, 76007, Note_on_c, 0, 61, 54
2, 76100, Note_on_c, 0, 68, 59
2, 76215, Note_on_c, 0, 73, 61
2, 76824, Control_c, 0, 64, 18
2, 76844, Control_c, 0, 64, 28
2, 76863, Control_c, 0, 64, 36
2, 76882, Control_c, 0, 64, 42
2, 76901, Control_c, 0, 64, 46
2, 76921, Control_c, 0, 64, 48
2, 76940, Control_c, 0, 64, 49
2, 76959, Control_c, 0, 64, 50
2, 76978, Control_c, 0, 64, 51
2, 76998, Control_c, 0, 64, 52
2, 77017, Control_c, 0, 64, 53
2, 77036, Control_c, 0, 64, 54
2, 77055, Control_c, 0, 64, 55
2, 77075, Control_c, 0, 64, 56
2, 77093, Control_c, 0, 64, 57
2, 77113, Control_c, 0, 64, 57
2, 77152, Control_c, 0, 64, 58
2, 77170, Control_c, 0, 64, 58
2, 77189, Control_c, 0, 64, 59
2, 77210, Control_c, 0, 64, 60
2, 77228, Control_c, 0, 64, 60
2, 77248, Control_c, 0, 64, 61
2, 77267, Control_c, 0, 64, 62
2, 77287, Control_c, 0, 64, 63
2, 77305, Control_c, 0, 64, 63
2, 77325, Control_c, 0, 64, 64
2, 77344, Control_c, 0, 64, 65
2, 77363, Control_c, 0, 64, 66
2, 77382, Control_c, 0, 64, 67
2, 77402, Control_c, 0, 64, 69
2, 77420, Control_c, 0, 64, 71
2, 77439, Control_c, 0, 64, 73
2, 77458, Control_c, 0, 64, 76
2, 77478, Control_c, 0, 64, 80
2, 77497, Control_c, 0, 64, 82
2, 77516, Control_c, 0, 64, 84
2, 77535, Control_c, 0, 64, 86
2, 77555, Control_c, 0, 64, 90
2, 77573, Control_c, 0, 64, 94
2, 77593, Control_c, 0, 64, 101
2, 77612, Control_c, 0, 64, 112
2, 77632, Control_c, 0, 64, 127
2, 77767, Note_on_c, 0, 61, 0
2, 77902, Note_on_c, 0, 56, 0
2, 77954, Note_on_c, 0, 53, 0
2, 77959, Note_on_c, 0, 73, 0
2, 77974, Note_on_c, 0, 68, 0
2, 78054, Note_on_c, 0, 49, 0
2, 78571, Control_c, 0, 64, 121
2, 78591, Control_c, 0, 64, 115
2, 78609, Control_c, 0, 64, 110
2, 78628, Control_c, 0, 64, 106
2, 78648, Control_c, 0, 64, 101
2, 78667, Control_c, 0, 64, 95
2, 78686, Control_c, 0, 64, 88
2, 78705, Control_c, 0, 64, 78
2, 78725, Control_c, 0, 64, 70
2, 78743, Control_c, 0, 64, 64
2, 78763, Control_c, 0, 64, 57
2, 78782, Control_c, 0, 64, 48
2, 78802, Control_c, 0, 64, 41
2, 78820, Control_c, 0, 64, 38
2, 78859, Control_c, 0, 64, 37
2, 78878, Control_c, 0, 64, 36
2, 78897, Control_c, 0, 64, 35
2, 78917, Control_c, 0, 64, 33
2, 78936, Control_c, 0, 64, 32
2, 78974, Control_c, 0, 64, 31
2, 79223, Control_c, 0, 64, 32
2, 79262, Control_c, 0, 64, 33
2, 79300, Control_c, 0, 64, 34
2, 79415, Control_c, 0, 64, 34
2, 79453, Control_c, 0, 64, 35
2, 79684, Control_c, 0, 64, 34
2, 79722, Control_c, 0, 64, 33
2, 79741, Control_c, 0, 64, 32
2, 79761, Control_c, 0, 64, 31
2, 79779, Control_c, 0, 64, 30
2, 79799, Control_c, 0, 64, 28
2, 79818, Control_c, 0, 64, 27
2, 79838, Control_c, 0, 64, 27
2, 79856, Control_c, 0, 64, 26
2, 79933, Control_c, 0, 64, 25
2, 80299, Note_on_c, 0, 68, 62
2, 80343, Note_on_c, 0, 68, 0
2, 80414, Control_c, 0, 64, 23
2, 80434, Control_c, 0, 64, 21
2, 80452, Control_c, 0, 64, 20
2, 80472, Control_c, 0, 64, 18
2, 80491, Control_c, 0, 64, 17
2, 80529, Control_c, 0, 64, 15
2, 80640, Note_on_c, 0, 70, 60
2, 80666, Control_c, 0, 64, 13
2, 80686, Control_c, 0, 64, 9
2, 80705, Control_c, 0, 64, 0
2, 80793, Note_on_c, 0, 68, 70
2, 80867, Note_on_c, 0, 70, 0
2, 80939, Note_on_c, 0, 68, 0
2, 80963, Note_on_c, 0, 66, 72
2, 81070, Control_c, 0, 67, 121
2, 81081, Note_on_c, 0, 66, 0
2, 81089, Control_c, 0, 67, 110
2, 81097, Note_on_c, 0, 68, 73
2, 81108, Control_c, 0, 67, 93
2, 81128, Control_c, 0, 67, 73
2, 81146, Control_c, 0, 67, 51
2, 81166, Control_c, 0, 67, 30
2, 81185, Control_c, 0, 67, 11
2, 81205, Control_c, 0, 67, 0
2, 81279, Note_on_c, 0, 77, 74
2, 81293, Note_on_c, 0, 68, 0
2, 81333, Note_on_c, 0, 77, 0
2, 81615, Note_on_c, 0, 73, 65
2, 81671, Note_on_c, 0, 73, 0
2, 81959, Note_on_c, 0, 68, 61
2, 82323, Note_on_c, 0, 66, 57
2, 82356, Note_on_c, 0, 68, 0
2, 82449, Note_on_c, 0, 66, 0
2, 82468, Note_on_c, 0, 65, 46
2, 82630, Note_on_c, 0, 65, 0
2, 82630, Note_on_c, 0, 66, 59
2, 82677, Note_on_c, 0, 66, 0
2, 82975, Note_on_c, 0, 75, 61
2, 83020, Note_on_c, 0, 75, 0
2, 83047, Control_c, 0, 67, 9
2, 83065, Control_c, 0, 67, 10
2, 83085, Control_c, 0, 67, 11
2, 83104, Control_c, 0, 67, 12
2, 83124, Control_c, 0, 67, 13
2, 83142, Control_c, 0, 67, 15
2, 83161, Control_c, 0, 67, 15
2, 83180, Control_c, 0, 67, 16
2, 83199, Control_c, 0, 67, 17
2, 83218, Control_c, 0, 67, 18
2, 83237, Control_c, 0, 67, 18
2, 83275, Control_c, 0, 67, 19
2, 83316, Note_on_c, 0, 65, 52
2, 83360, Note_on_c, 0, 65, 0
2, 83663, Note_on_c, 0, 73, 57
2, 83712, Note_on_c, 0, 73, 0
2, 84019, Note_on_c, 0, 63, 58
2, 84025, Control_c, 0, 67, 19
2, 84067, Note_on_c, 0, 63, 0
2, 84160, Control_c, 0, 67, 20
2, 84236, Control_c, 0, 67, 20
2, 84333, Control_c, 0, 67, 21
2, 84352, Control_c, 0, 67, 21
2, 84365, Note_on_c, 0, 72, 55
2, 84371, Control_c, 0, 67, 22
2, 84390, Control_c, 0, 67, 25
2, 84410, Control_c, 0, 67, 28
2, 84413, Note_on_c, 0, 72, 0
2, 84429, Control_c, 0, 67, 30
2, 84448, Control_c, 0, 67, 32
2, 84467, Control_c, 0, 67, 34
2, 84487, Control_c, 0, 67, 36
2, 84505, Control_c, 0, 67, 37
2, 84525, Control_c, 0, 67, 39
2, 84544, Control_c, 0, 67, 41
2, 84564, Control_c, 0, 67, 43
2, 84582, Control_c, 0, 67, 45
2, 84601, Control_c, 0, 67, 47
2, 84621, Control_c, 0, 67, 48
2, 84640, Control_c, 0, 67, 48
2, 84659, Control_c, 0, 67, 49
2, 84704, Note_on_c, 0, 61, 49
2, 84716, Control_c, 0, 64, 52
2, 84736, Control_c, 0, 64, 65
2, 84736, Control_c, 0, 67, 48
2, 84741, Note_on_c, 0, 61, 0
2, 84755, Control_c, 0, 64, 74
2, 84775, Control_c, 0, 64, 88
2, 84793, Control_c, 0, 64, 111
2, 84813, Control_c, 0, 64, 127
2, 84832, Control_c, 0, 67, 48
2, 84851, Control_c, 0, 67, 47
2, 84870, Control_c, 0, 67, 47
2, 84890, Control_c, 0, 67, 46
2, 84909, Control_c, 0, 67, 46
2, 85024, Control_c, 0, 64, 116
2, 85026, Note_on_c, 0, 73, 56
2, 85044, Control_c, 0, 64, 102
2, 85062, Control_c, 0, 64, 94
2, 85081, Control_c, 0, 64, 84
2, 85081, Control_c, 0, 67, 45
2, 85101, Control_c, 0, 64, 72
2, 85120, Control_c, 0, 64, 63
2, 85120, Control_c, 0, 67, 45
2, 85139, Control_c, 0, 64, 42
2, 85140, Note_on_c, 0, 73, 0
2, 85158, Control_c, 0, 64, 0
2, 85180, Note_on_c, 0, 72, 67
2, 85235, Control_c, 0, 67, 44
2, 85273, Control_c, 0, 67, 44
2, 85312, Control_c, 0, 67, 43
2, 85331, Control_c, 0, 67, 43
2, 85356, Note_on_c, 0, 73, 71
2, 85358, Note_on_c, 0, 72, 0
2, 85502, Note_on_c, 0, 75, 72
2, 85525, Note_on_c, 0, 73, 0
2, 85601, Note_on_c, 0, 75, 0
2, 85658, Control_c, 0, 67, 42
2, 85660, Note_on_c, 0, 77, 75
2, 85667, Note_on_c, 0, 61, 78
2, 85676, Control_c, 0, 67, 41
2, 85696, Control_c, 0, 67, 39
2, 85702, Note_on_c, 0, 61, 0
2, 85715, Control_c, 0, 67, 35
2, 85735, Control_c, 0, 67, 31
2, 85753, Control_c, 0, 67, 21
2, 85773, Control_c, 0, 67, 0
2, 85813, Note_on_c, 0, 78, 75
2, 85844, Note_on_c, 0, 77, 0
2, 85979, Note_on_c, 0, 65, 71
2, 85985, Note_on_c, 0, 80, 78
2, 86012, Note_on_c, 0, 78, 0
2, 86103, Note_on_c, 0, 63, 78
2, 86138, Note_on_c, 0, 79, 78
2, 86140, Note_on_c, 0, 65, 0
2, 86188, Note_on_c, 0, 80, 0
2, 86257, Note_on_c, 0, 61, 68
2, 86277, Note_on_c, 0, 63, 0
2, 86284, Note_on_c, 0, 77, 76
2, 86293, Note_on_c, 0, 79, 0
2, 86412, Note_on_c, 0, 63, 78
2, 86425, Note_on_c, 0, 79, 82
2, 86426, Note_on_c, 0, 61, 0
2, 86469, Note_on_c, 0, 77, 0
2, 86477, Note_on_c, 0, 63, 0
2, 86585, Note_on_c, 0, 72, 87
2, 86596, Note_on_c, 0, 79, 0
2, 86605, Note_on_c, 0, 80, 74
2, 86627, Note_on_c, 0, 72, 0
2, 86748, Note_on_c, 0, 78, 65
2, 86788, Note_on_c, 0, 80, 0
2, 86899, Note_on_c, 0, 78, 0
2, 86909, Note_on_c, 0, 68, 80
2, 86918, Note_on_c, 0, 77, 66
2, 86943, Note_on_c, 0, 68, 0
2, 87053, Note_on_c, 0, 77, 0
2, 87063, Note_on_c, 0, 75, 70
2, 87234, Note_on_c, 0, 77, 67
2, 87241, Note_on_c, 0, 63, 65
2, 87248, Note_on_c, 0, 75, 0
2, 87577, Note_on_c, 0, 61, 64
2, 87624, Note_on_c, 0, 63, 0
2, 87709, Note_on_c, 0, 60, 69
2, 87711, Note_on_c, 0, 61, 0
2, 87837, Note_on_c, 0, 60, 0
2, 87885, Note_on_c, 0, 61, 73
2, 87923, Note_on_c, 0, 61, 0
2, 88028, Note_on_c, 0, 75, 67
2, 88072, Note_on_c, 0, 77, 0
2, 88195, Note_on_c, 0, 70, 85
2, 88206, Note_on_c, 0, 73, 62
2, 88212, Note_on_c, 0, 75, 0
2, 88239, Note_on_c, 0, 70, 0
2, 88301, Note_on_c, 0, 73, 0
2, 88349, Note_on_c, 0, 77, 59
2, 88492, Note_on_c, 0, 77, 0
2, 88518, Note_on_c, 0, 60, 74
2, 88530, Note_on_c, 0, 75, 62
2, 88565, Note_on_c, 0, 60, 0
2, 88676, Note_on_c, 0, 73, 55
2, 88746, Note_on_c, 0, 75, 0
2, 88832, Note_on_c, 0, 68, 78
2, 88837, Note_on_c, 0, 73, 0
2, 88848, Note_on_c, 0, 72, 63
2, 88930, Note_on_c, 0, 68, 0
2, 88994, Note_on_c, 0, 72, 0
2, 88996, Note_on_c, 0, 75, 61
2, 89172, Note_on_c, 0, 58, 65
2, 89192, Note_on_c, 0, 73, 53
2, 89233, Note_on_c, 0, 58, 0
2, 89250, Note_on_c, 0, 75, 0
2, 89327, Note_on_c, 0, 72, 56
2, 89349, Note_on_c, 0, 73, 0
2, 89485, Note_on_c, 0, 72, 0
2, 89490, Note_on_c, 0, 67, 61
2, 89499, Note_on_c, 0, 73, 64
2, 89542, Note_on_c, 0, 67, 0
2, 89645, Note_on_c, 0, 70, 63
2, 89647, Note_on_c, 0, 73, 0
2, 89745, Note_on_c, 0, 70, 0
2, 89803, Note_on_c, 0, 56, 53
2, 89810, Note_on_c, 0, 72, 62
2, 89846, Control_c, 0, 64, 42
2, 89864, Control_c, 0, 64, 65
2, 89883, Control_c, 0, 64, 76
2, 89890, Note_on_c, 0, 56, 0
2, 89902, Control_c, 0, 64, 121
2, 89920, Control_c, 0, 64, 127
2, 90107, Note_on_c, 0, 72, 0
2, 90127, Note_on_c, 0, 75, 80
2, 90133, Note_on_c, 0, 68, 71
2, 90190, Control_c, 0, 64, 94
2, 90209, Control_c, 0, 64, 71
2, 90228, Control_c, 0, 64, 55
2, 90248, Control_c, 0, 64, 0
2, 90260, Note_on_c, 0, 68, 0
2, 90272, Note_on_c, 0, 67, 64
2, 90422, Note_on_c, 0, 67, 0
2, 90423, Note_on_c, 0, 68, 81
2, 90429, Note_on_c, 0, 78, 83
2, 90431, Note_on_c, 0, 75, 0
2, 90455, Note_on_c, 0, 68, 0
2, 90574, Note_on_c, 0, 70, 68
2, 90716, Note_on_c, 0, 70, 0
2, 90734, Note_on_c, 0, 56, 80
2, 90745, Note_on_c, 0, 72, 74
2, 90776, Note_on_c, 0, 56, 0
2, 90862, Note_on_c, 0, 72, 0
2, 90883, Note_on_c, 0, 68, 76
2, 91046, Note_on_c, 0, 73, 72
2, 91062, Note_on_c, 0, 58, 75
2, 91090, Note_on_c, 0, 68, 0
2, 91180, Note_on_c, 0, 56, 81
2, 91191, Note_on_c, 0, 72, 76
2, 91204, Note_on_c, 0, 58, 0
2, 91298, Note_on_c, 0, 73, 0
2, 91328, Note_on_c, 0, 54, 72
2, 91344, Note_on_c, 0, 56, 0
2, 91344, Note_on_c, 0, 72, 0
2, 91346, Note_on_c, 0, 70, 77
2, 91436, Note_on_c, 0, 78, 0
2, 91456, Note_on_c, 0, 70, 0
2, 91458, Note_on_c, 0, 54, 0
2, 91483, Note_on_c, 0, 56, 76
2, 91491, Note_on_c, 0, 72, 82
2, 91552, Note_on_c, 0, 56, 0
2, 91574, Note_on_c, 0, 72, 0
2, 91657, Note_on_c, 0, 77, 76
2, 91658, Note_on_c, 0, 65, 77
2, 91670, Note_on_c, 0, 73, 77
2, 91710, Note_on_c, 0, 65, 0
2, 91764, Note_on_c, 0, 73, 0
2, 91808, Note_on_c, 0, 72, 77
2, 91964, Note_on_c, 0, 61, 77
2, 91972, Note_on_c, 0, 70, 74
2, 91974, Note_on_c, 0, 72, 0
2, 91996, Note_on_c, 0, 61, 0
2, 92104, Note_on_c, 0, 70, 0
2, 92105, Note_on_c, 0, 68, 71
2, 92283, Note_on_c, 0, 56, 73
2, 92283, Note_on_c, 0, 70, 77
2, 92290, Note_on_c, 0, 68, 0
2, 92597, Note_on_c, 0, 54, 66
2, 92627, Note_on_c, 0, 56, 0
2, 92629, Note_on_c, 0, 77, 0
2, 92734, Note_on_c, 0, 53, 71
2, 92767, Note_on_c, 0, 54, 0
2, 92858, Note_on_c, 0, 53, 0
2, 92896, Note_on_c, 0, 75, 75
2, 92908, Note_on_c, 0, 70, 0
2, 92916, Note_on_c, 0, 54, 78
2, 92950, Note_on_c, 0, 54, 0
2, 93046, Note_on_c, 0, 68, 68
2, 93219, Note_on_c, 0, 63, 79
2, 93227, Note_on_c, 0, 68, 0
2, 93238, Note_on_c, 0, 66, 63
2, 93275, Note_on_c, 0, 63, 0
2, 93382, Note_on_c, 0, 70, 64
2, 93409, Note_on_c, 0, 66, 0
2, 93532, Note_on_c, 0, 53, 72
2, 93544, Note_on_c, 0, 68, 60
2, 93588, Note_on_c, 0, 53, 0
2, 93619, Note_on_c, 0, 70, 0
2, 93696, Note_on_c, 0, 66, 56
2, 93738, Note_on_c, 0, 75, 0
2, 93786, Note_on_c, 0, 68, 0
2, 93819, Note_on_c, 0, 66, 0
2, 93856, Note_on_c, 0, 61, 76
2, 93862, Note_on_c, 0, 73, 64
2, 93872, Note_on_c, 0, 65, 55
2, 93910, Control_c, 0, 67, 9
2, 93917, Note_on_c, 0, 61, 0
2, 93930, Control_c, 0, 67, 10
2, 93949, Control_c, 0, 67, 12
2, 93968, Control_c, 0, 67, 13
2, 93987, Control_c, 0, 67, 15
2, 94007, Control_c, 0, 67, 16
2, 94009, Note_on_c, 0, 68, 61
2, 94017, Note_on_c, 0, 73, 0
2, 94026, Control_c, 0, 67, 17
2, 94045, Control_c, 0, 67, 19
2, 94064, Control_c, 0, 67, 20
2, 94079, Note_on_c, 0, 65, 0
2, 94084, Control_c, 0, 67, 22
2, 94102, Control_c, 0, 67, 25
2, 94122, Control_c, 0, 67, 28
2, 94141, Control_c, 0, 67, 32
2, 94161, Control_c, 0, 67, 37
2, 94164, Note_on_c, 0, 68, 0
2, 94174, Note_on_c, 0, 51, 66
2, 94179, Control_c, 0, 67, 44
2, 94180, Note_on_c, 0, 72, 64
2, 94199, Control_c, 0, 67, 53
2, 94207, Note_on_c, 0, 66, 53
2, 94218, Control_c, 0, 67, 61
2, 94228, Note_on_c, 0, 51, 0
2, 94238, Control_c, 0, 67, 70
2, 94256, Control_c, 0, 67, 78
2, 94276, Control_c, 0, 67, 84
2, 94285, Note_on_c, 0, 72, 0
2, 94295, Control_c, 0, 67, 89
2, 94314, Control_c, 0, 67, 92
2, 94317, Note_on_c, 0, 66, 0
2, 94333, Control_c, 0, 67, 95
2, 94339, Note_on_c, 0, 65, 54
2, 94352, Control_c, 0, 67, 98
2, 94372, Control_c, 0, 67, 100
2, 94390, Control_c, 0, 67, 102
2, 94410, Control_c, 0, 67, 104
2, 94429, Control_c, 0, 67, 106
2, 94443, Note_on_c, 0, 65, 0
2, 94448, Control_c, 0, 67, 107
2, 94467, Control_c, 0, 67, 108
2, 94479, Note_on_c, 0, 60, 69
2, 94488, Control_c, 0, 67, 109
2, 94499, Note_on_c, 0, 75, 64
2, 94505, Note_on_c, 0, 66, 51
2, 94507, Control_c, 0, 67, 111
2, 94526, Control_c, 0, 67, 112
2, 94533, Note_on_c, 0, 60, 0
2, 94545, Control_c, 0, 67, 112
2, 94583, Control_c, 0, 67, 113
2, 94634, Note_on_c, 0, 63, 59
2, 94671, Note_on_c, 0, 66, 0
2, 94686, Note_on_c, 0, 63, 0
2, 94699, Control_c, 0, 67, 113
2, 94802, Note_on_c, 0, 49, 67
2, 94813, Note_on_c, 0, 65, 52
2, 94834, Control_c, 0, 67, 113
2, 94852, Control_c, 0, 64, 47
2, 94871, Control_c, 0, 64, 66
2, 94891, Control_c, 0, 64, 76
2, 94891, Control_c, 0, 67, 112
2, 94891, Note_on_c, 0, 49, 0
2, 94910, Control_c, 0, 64, 104
2, 94929, Control_c, 0, 64, 127
2, 94929, Control_c, 0, 67, 112
2, 94987, Control_c, 0, 67, 111
2, 95078, Note_on_c, 0, 75, 0
2, 95122, Control_c, 0, 67, 112
2, 95150, Note_on_c, 0, 65, 0
2, 95156, Note_on_c, 0, 68, 72
2, 95160, Control_c, 0, 67, 112
2, 95169, Note_on_c, 0, 61, 59
2, 95237, Control_c, 0, 64, 90
2, 95256, Control_c, 0, 64, 73
2, 95275, Control_c, 0, 64, 63
2, 95294, Control_c, 0, 64, 43
2, 95294, Control_c, 0, 67, 113
2, 95301, Note_on_c, 0, 61, 0
2, 95313, Control_c, 0, 64, 0
2, 95322, Note_on_c, 0, 60, 53
2, 95351, Control_c, 0, 67, 113
2, 95455, Note_on_c, 0, 60, 0
2, 95460, Note_on_c, 0, 77, 80
2, 95480, Note_on_c, 0, 61, 55
2, 95486, Control_c, 0, 67, 114
2, 95495, Note_on_c, 0, 68, 0
2, 95505, Control_c, 0, 67, 114
2, 95525, Control_c, 0, 67, 115
2, 95563, Control_c, 0, 67, 116
2, 95602, Control_c, 0, 67, 116
2, 95617, Note_on_c, 0, 63, 48
2, 95648, Note_on_c, 0, 61, 0
2, 95696, Control_c, 0, 67, 117
2, 95731, Note_on_c, 0, 63, 0
2, 95735, Control_c, 0, 67, 117
2, 95773, Control_c, 0, 67, 118
2, 95773, Note_on_c, 0, 68, 79
2, 95783, Note_on_c, 0, 65, 37
2, 95807, Note_on_c, 0, 68, 0
2, 95864, Note_on_c, 0, 65, 0
2, 95869, Control_c, 0, 67, 117
2, 95933, Note_on_c, 0, 61, 38
2, 95984, Control_c, 0, 67, 117
2, 96041, Note_on_c, 0, 61, 0
2, 96042, Control_c, 0, 67, 116
2, 96097, Note_on_c, 0, 73, 73
2, 96107, Note_on_c, 0, 58, 42
2, 96214, Note_on_c, 0, 77, 0
2, 96215, Control_c, 0, 67, 116
2, 96250, Note_on_c, 0, 58, 0
2, 96257, Note_on_c, 0, 60, 54
2, 96337, Note_on_c, 0, 60, 0
2, 96349, Control_c, 0, 67, 115
2, 96391, Note_on_c, 0, 61, 58
2, 96411, Note_on_c, 0, 77, 76
2, 96426, Control_c, 0, 67, 115
2, 96436, Note_on_c, 0, 73, 0
2, 96499, Note_on_c, 0, 61, 0
2, 96549, Note_on_c, 0, 58, 48
2, 96549, Note_on_c, 0, 73, 80
2, 96606, Note_on_c, 0, 77, 0
2, 96667, Note_on_c, 0, 58, 0
2, 96715, Note_on_c, 0, 55, 50
2, 96728, Note_on_c, 0, 70, 74
2, 96746, Note_on_c, 0, 73, 0
2, 96864, Note_on_c, 0, 56, 55
2, 96866, Note_on_c, 0, 55, 0
2, 96959, Note_on_c, 0, 56, 0
2, 97014, Note_on_c, 0, 58, 52
2, 97029, Note_on_c, 0, 73, 65
2, 97045, Note_on_c, 0, 70, 0
2, 97079, Control_c, 0, 67, 115
2, 97086, Note_on_c, 0, 58, 0
2, 97164, Note_on_c, 0, 55, 49
2, 97186, Note_on_c, 0, 70, 65
2, 97237, Note_on_c, 0, 73, 0
2, 97242, Note_on_c, 0, 55, 0
2, 97344, Note_on_c, 0, 70, 0
2, 97357, Note_on_c, 0, 63, 56
2, 97373, Note_on_c, 0, 48, 33
2, 97404, Control_c, 0, 67, 115
2, 97462, Control_c, 0, 64, 55
2, 97481, Control_c, 0, 64, 66
2, 97500, Control_c, 0, 64, 74
2, 97520, Control_c, 0, 64, 91
2, 97538, Control_c, 0, 64, 127
2, 97558, Control_c, 0, 67, 114
2, 97561, Note_on_c, 0, 63, 0
2, 97570, Note_on_c, 0, 48, 0
2, 97597, Control_c, 0, 67, 114
2, 97615, Control_c, 0, 67, 113
2, 97635, Control_c, 0, 67, 113
2, 97693, Note_on_c, 0, 70, 73
2, 97699, Note_on_c, 0, 60, 51
2, 97749, Control_c, 0, 67, 113
2, 97808, Control_c, 0, 64, 108
2, 97826, Control_c, 0, 64, 84
2, 97840, Note_on_c, 0, 58, 60
2, 97846, Control_c, 0, 64, 70
2, 97846, Control_c, 0, 67, 113
2, 97856, Note_on_c, 0, 60, 0
2, 97865, Control_c, 0, 64, 59
2, 97884, Control_c, 0, 64, 26
2, 97903, Control_c, 0, 64, 0
2, 97923, Control_c, 0, 67, 113
2, 98016, Note_on_c, 0, 75, 82
2, 98026, Note_on_c, 0, 58, 0
2, 98045, Note_on_c, 0, 60, 54
2, 98047, Note_on_c, 0, 70, 0
2, 98134, Control_c, 0, 67, 114
2, 98145, Note_on_c, 0, 60, 0
2, 98172, Control_c, 0, 67, 114
2, 98175, Note_on_c, 0, 61, 59
2, 98328, Note_on_c, 0, 61, 0
2, 98335, Note_on_c, 0, 63, 57
2, 98356, Note_on_c, 0, 67, 66
2, 98408, Note_on_c, 0, 67, 0
2, 98412, Note_on_c, 0, 63, 0
2, 98491, Note_on_c, 0, 60, 46
2, 98590, Note_on_c, 0, 60, 0
2, 98672, Note_on_c, 0, 56, 49
2, 98685, Note_on_c, 0, 72, 64
2, 98798, Note_on_c, 0, 75, 0
2, 98812, Note_on_c, 0, 56, 0
2, 98825, Control_c, 0, 67, 114
2, 98831, Note_on_c, 0, 58, 48
2, 98940, Control_c, 0, 67, 113
2, 98940, Note_on_c, 0, 58, 0
2, 98984, Note_on_c, 0, 75, 71
2, 98993, Note_on_c, 0, 72, 0
2, 98998, Control_c, 0, 67, 113
2, 99011, Note_on_c, 0, 60, 49
2, 99145, Note_on_c, 0, 72, 72
2, 99158, Note_on_c, 0, 56, 51
2, 99169, Note_on_c, 0, 75, 0
2, 99243, Note_on_c, 0, 60, 0
2, 99292, Note_on_c, 0, 56, 0
2, 99309, Note_on_c, 0, 72, 0
2, 99319, Note_on_c, 0, 68, 64
2, 99328, Note_on_c, 0, 53, 52
2, 99363, Control_c, 0, 67, 113
2, 99440, Control_c, 0, 67, 114
2, 99449, Note_on_c, 0, 53, 0
2, 99471, Note_on_c, 0, 55, 51
2, 99478, Control_c, 0, 67, 114
2, 99497, Control_c, 0, 67, 115
2, 99574, Control_c, 0, 67, 115
2, 99575, Note_on_c, 0, 55, 0
2, 99605, Note_on_c, 0, 72, 62
2, 99630, Note_on_c, 0, 56, 55
2, 99631, Control_c, 0, 67, 116
2, 99637, Note_on_c, 0, 68, 0
2, 99669, Control_c, 0, 67, 116
2, 99708, Note_on_c, 0, 56, 0
2, 99722, Note_on_c, 0, 72, 0
2, 99751, Note_on_c, 0, 68, 58
2, 99775, Note_on_c, 0, 53, 45
2, 99870, Note_on_c, 0, 53, 0
2, 99882, Note_on_c, 0, 68, 0
2, 99937, Note_on_c, 0, 61, 55
2, 99939, Note_on_c, 0, 46, 46
2, 100000, Note_on_c, 0, 46, 0
2, 100015, Control_c, 0, 64, 59
2, 100015, Control_c, 0, 67, 116
2, 100035, Control_c, 0, 64, 67
2, 100054, Control_c, 0, 64, 75
2, 100072, Control_c, 0, 64, 88
2, 100080, Note_on_c, 0, 61, 0
2, 100092, Control_c, 0, 64, 111
2, 100111, Control_c, 0, 64, 127
2, 100149, Control_c, 0, 67, 115
2, 100169, Control_c, 0, 67, 115
2, 100291, Note_on_c, 0, 68, 66
2, 100308, Note_on_c, 0, 58, 49
2, 100323, Control_c, 0, 64, 107
2, 100342, Control_c, 0, 64, 93
2, 100361, Control_c, 0, 64, 79
2, 100380, Control_c, 0, 64, 67
2, 100400, Control_c, 0, 64, 53
2, 100403, Note_on_c, 0, 58, 0
2, 100418, Control_c, 0, 64, 0
2, 100453, Note_on_c, 0, 56, 58
2, 100514, Control_c, 0, 67, 114
2, 100534, Control_c, 0, 67, 114
2, 100552, Control_c, 0, 67, 113
2, 100572, Control_c, 0, 67, 112
2, 100591, Control_c, 0, 67, 110
2, 100603, Note_on_c, 0, 73, 81
2, 100611, Control_c, 0, 67, 108
2, 100613, Note_on_c, 0, 56, 0
2, 100615, Note_on_c, 0, 58, 58
2, 100629, Control_c, 0, 67, 105
2, 100631, Note_on_c, 0, 68, 0
2, 100649, Control_c, 0, 67, 101
2, 100668, Control_c, 0, 67, 95
2, 100688, Control_c, 0, 67, 80
2, 100706, Control_c, 0, 67, 54
2, 100726, Control_c, 0, 67, 21
2, 100741, Note_on_c, 0, 58, 0
2, 100745, Control_c, 0, 67, 0
2, 100752, Note_on_c, 0, 60, 64
2, 100910, Note_on_c, 0, 60, 0
2, 100916, Note_on_c, 0, 61, 68
2, 100916, Note_on_c, 0, 65, 72
2, 100970, Note_on_c, 0, 65, 0
2, 101058, Note_on_c, 0, 58, 62
2, 101070, Note_on_c, 0, 61, 0
2, 101204, Note_on_c, 0, 58, 0
2, 101229, Note_on_c, 0, 70, 81
2, 101230, Note_on_c, 0, 73, 0
2, 101241, Note_on_c, 0, 55, 54
2, 101364, Note_on_c, 0, 72, 86
2, 101374, Note_on_c, 0, 70, 0
2, 101376, Note_on_c, 0, 56, 71
2, 101394, Note_on_c, 0, 55, 0
2, 101461, Note_on_c, 0, 56, 0
2, 101514, Note_on_c, 0, 58, 72
2, 101517, Note_on_c, 0, 73, 87
2, 101548, Note_on_c, 0, 72, 0
2, 101605, Note_on_c, 0, 58, 0
2, 101621, Note_on_c, 0, 73, 0
2, 101662, Note_on_c, 0, 70, 87
2, 101668, Note_on_c, 0, 55, 72
2, 101817, Note_on_c, 0, 82, 91
2, 101818, Note_on_c, 0, 55, 0
2, 101821, Note_on_c, 0, 51, 74
2, 101855, Note_on_c, 0, 70, 0
2, 101955, Note_on_c, 0, 51, 0
2, 101971, Note_on_c, 0, 53, 69
2, 101980, Note_on_c, 0, 73, 71
2, 102121, Note_on_c, 0, 55, 68
2, 102142, Note_on_c, 0, 73, 0
2, 102149, Note_on_c, 0, 75, 80
2, 102184, Note_on_c, 0, 53, 0
2, 102188, Control_c, 0, 64, 9
2, 102200, Note_on_c, 0, 82, 0
2, 102207, Control_c, 0, 64, 42
2, 102226, Control_c, 0, 64, 58
2, 102245, Control_c, 0, 64, 63
2, 102265, Control_c, 0, 64, 65
2, 102272, Note_on_c, 0, 51, 68
2, 102278, Note_on_c, 0, 55, 0
2, 102283, Control_c, 0, 64, 67
2, 102284, Note_on_c, 0, 70, 80
2, 102303, Control_c, 0, 64, 68
2, 102311, Note_on_c, 0, 51, 0
2, 102322, Control_c, 0, 64, 67
2, 102341, Control_c, 0, 64, 64
2, 102360, Control_c, 0, 64, 56
2, 102371, Note_on_c, 0, 75, 0
2, 102380, Control_c, 0, 64, 0
2, 102404, Note_on_c, 0, 70, 0
2, 102435, Note_on_c, 0, 72, 84
2, 102444, Note_on_c, 0, 44, 77
2, 102495, Control_c, 0, 64, 27
2, 102511, Note_on_c, 0, 44, 0
2, 102514, Control_c, 0, 64, 65
2, 102534, Control_c, 0, 64, 74
2, 102552, Control_c, 0, 64, 103
2, 102572, Control_c, 0, 64, 127
2, 102574, Note_on_c, 0, 72, 0
2, 102584, Note_on_c, 0, 80, 83
2, 102735, Note_on_c, 0, 79, 79
2, 102739, Note_on_c, 0, 56, 72
2, 102745, Control_c, 0, 64, 88
2, 102763, Control_c, 0, 64, 70
2, 102783, Control_c, 0, 64, 53
2, 102793, Note_on_c, 0, 80, 0
2, 102802, Control_c, 0, 64, 0
2, 102876, Note_on_c, 0, 82, 83
2, 102877, Note_on_c, 0, 58, 65
2, 102893, Note_on_c, 0, 56, 0
2, 102896, Note_on_c, 0, 79, 0
2, 102980, Note_on_c, 0, 58, 0
2, 103047, Note_on_c, 0, 80, 82
2, 103053, Note_on_c, 0, 60, 76
2, 103092, Note_on_c, 0, 60, 0
2, 103092, Note_on_c, 0, 82, 0
2, 103191, Note_on_c, 0, 75, 77
2, 103221, Note_on_c, 0, 80, 0
2, 103342, Note_on_c, 0, 75, 0
2, 103343, Note_on_c, 0, 68, 86
2, 103345, Note_on_c, 0, 56, 69
2, 103362, Note_on_c, 0, 77, 71
2, 103384, Note_on_c, 0, 56, 0
2, 103517, Note_on_c, 0, 78, 70
2, 103525, Note_on_c, 0, 77, 0
2, 103670, Note_on_c, 0, 61, 68
2, 103685, Note_on_c, 0, 77, 69
2, 103815, Note_on_c, 0, 78, 0
2, 103828, Note_on_c, 0, 75, 83
2, 103831, Note_on_c, 0, 67, 65
2, 103861, Note_on_c, 0, 77, 0
2, 103872, Note_on_c, 0, 68, 0
2, 103980, Note_on_c, 0, 73, 83
2, 103985, Note_on_c, 0, 65, 67
2, 103985, Note_on_c, 0, 75, 0
2, 104002, Note_on_c, 0, 67, 0
2, 104110, Note_on_c, 0, 75, 87
2, 104117, Note_on_c, 0, 67, 71
2, 104121, Note_on_c, 0, 73, 0
2, 104135, Note_on_c, 0, 61, 0
2, 104280, Note_on_c, 0, 84, 91
2, 104297, Note_on_c, 0, 68, 73
2, 104300, Note_on_c, 0, 75, 0
2, 104301, Note_on_c, 0, 60, 65
2, 104302, Note_on_c, 0, 67, 0
2, 104318, Note_on_c, 0, 65, 0
2, 104336, Note_on_c, 0, 84, 0
2, 104420, Note_on_c, 0, 68, 0
2, 104443, Note_on_c, 0, 67, 63
2, 104602, Note_on_c, 0, 80, 85
2, 104626, Note_on_c, 0, 65, 59
2, 104646, Note_on_c, 0, 60, 0
2, 104666, Note_on_c, 0, 80, 0
2, 104678, Note_on_c, 0, 67, 0
2, 104746, Note_on_c, 0, 65, 0
2, 104764, Note_on_c, 0, 63, 61
2, 104824, Note_on_c, 0, 63, 0
2, 104925, Note_on_c, 0, 65, 55
2, 104928, Note_on_c, 0, 75, 79
2, 104952, Note_on_c, 0, 58, 52
2, 105049, Note_on_c, 0, 58, 0
2, 105272, Note_on_c, 0, 73, 71
2, 105287, Note_on_c, 0, 56, 49
2, 105334, Note_on_c, 0, 75, 0
2, 105352, Note_on_c, 0, 56, 0
2, 105419, Note_on_c, 0, 72, 71
2, 105431, Note_on_c, 0, 73, 0
2, 105576, Note_on_c, 0, 55, 63
2, 105577, Note_on_c, 0, 72, 0
2, 105578, Note_on_c, 0, 73, 75
2, 105644, Note_on_c, 0, 73, 0
2, 105734, Note_on_c, 0, 63, 72
2, 105787, Note_on_c, 0, 65, 0
2, 105890, Note_on_c, 0, 61, 68
2, 105891, Note_on_c, 0, 63, 0
2, 105895, Note_on_c, 0, 82, 77
2, 105969, Note_on_c, 0, 82, 0
2, 105989, Note_on_c, 0, 61, 0
2, 106039, Note_on_c, 0, 65, 66
2, 106088, Note_on_c, 0, 55, 0
2, 106089, Note_on_c, 0, 65, 0
2, 106198, Note_on_c, 0, 63, 73
2, 106205, Note_on_c, 0, 72, 81
2, 106210, Note_on_c, 0, 56, 66
2, 106269, Note_on_c, 0, 72, 0
2, 106331, Note_on_c, 0, 63, 0
2, 106352, Note_on_c, 0, 61, 66
2, 106480, Note_on_c, 0, 61, 0
2, 106507, Note_on_c, 0, 60, 62
2, 106527, Note_on_c, 0, 80, 75
2, 106609, Note_on_c, 0, 80, 0
2, 106657, Note_on_c, 0, 60, 0
2, 106672, Note_on_c, 0, 63, 70
2, 106712, Note_on_c, 0, 63, 0
2, 106732, Note_on_c, 0, 56, 0
2, 106824, Note_on_c, 0, 70, 70
2, 106834, Note_on_c, 0, 61, 58
2, 106862, Note_on_c, 0, 51, 44
2, 106872, Note_on_c, 0, 70, 0
2, 106953, Note_on_c, 0, 61, 0
2, 106980, Note_on_c, 0, 60, 65
2, 107085, Note_on_c, 0, 60, 0
2, 107135, Note_on_c, 0, 79, 70
2, 107139, Note_on_c, 0, 61, 61
2, 107189, Note_on_c, 0, 79, 0
2, 107261, Note_on_c, 0, 61, 0
2, 107272, Note_on_c, 0, 58, 54
2, 107290, Note_on_c, 0, 51, 0
2, 107318, Note_on_c, 0, 58, 0
2, 107445, Note_on_c, 0, 60, 49
2, 107447, Note_on_c, 0, 68, 59
2, 107471, Note_on_c, 0, 56, 52
2, 107615, Note_on_c, 0, 70, 64
2, 107629, Note_on_c, 0, 68, 0
2, 107736, Note_on_c, 0, 70, 0
2, 107737, Note_on_c, 0, 60, 0
2, 107776, Note_on_c, 0, 63, 53
2, 107779, Note_on_c, 0, 72, 67
2, 107919, Note_on_c, 0, 73, 64
2, 107920, Note_on_c, 0, 72, 0
2, 108053, Note_on_c, 0, 63, 0
2, 108057, Note_on_c, 0, 73, 0
2, 108072, Note_on_c, 0, 68, 68
2, 108096, Note_on_c, 0, 72, 63
2, 108111, Note_on_c, 0, 68, 0
2, 108139, Note_on_c, 0, 56, 0
2, 108231, Note_on_c, 0, 72, 0
2, 108235, Note_on_c, 0, 70, 64
2, 108393, Note_on_c, 0, 63, 54
2, 108397, Note_on_c, 0, 68, 62
2, 108445, Note_on_c, 0, 70, 0
2, 108461, Note_on_c, 0, 63, 0
2, 108511, Note_on_c, 0, 68, 0
2, 108529, Note_on_c, 0, 60, 46
2, 108545, Note_on_c, 0, 72, 73
2, 108695, Note_on_c, 0, 56, 63
2, 108697, Note_on_c, 0, 77, 77
2, 108698, Note_on_c, 0, 60, 0
2, 108739, Note_on_c, 0, 72, 0
2, 108742, Note_on_c, 0, 56, 0
2, 108839, Note_on_c, 0, 75, 82
2, 108910, Note_on_c, 0, 77, 0
2, 108962, Note_on_c, 0, 75, 0
2, 108999, Note_on_c, 0, 74, 77
2, 109007, Note_on_c, 0, 59, 75
2, 109124, Note_on_c, 0, 56, 63
2, 109137, Note_on_c, 0, 77, 79
2, 109160, Note_on_c, 0, 59, 0
2, 109165, Note_on_c, 0, 74, 0
2, 109281, Note_on_c, 0, 77, 0
2, 109284, Note_on_c, 0, 80, 84
2, 109290, Note_on_c, 0, 56, 0
2, 109293, Note_on_c, 0, 53, 72
2, 109330, Note_on_c, 0, 53, 0
2, 109435, Note_on_c, 0, 78, 84
2, 109487, Note_on_c, 0, 80, 0
2, 109577, Note_on_c, 0, 77, 85
2, 109578, Note_on_c, 0, 78, 0
2, 109579, Control_c, 0, 64, 41
2, 109581, Note_on_c, 0, 56, 73
2, 109598, Control_c, 0, 64, 64
2, 109617, Control_c, 0, 64, 74
2, 109636, Control_c, 0, 64, 99
2, 109654, Note_on_c, 0, 56, 0
2, 109656, Control_c, 0, 64, 127
2, 109693, Note_on_c, 0, 80, 89
2, 109707, Note_on_c, 0, 77, 0
2, 109721, Note_on_c, 0, 53, 72
2, 109751, Note_on_c, 0, 80, 0
2, 109806, Note_on_c, 0, 80, 82
2, 109869, Control_c, 0, 64, 96
2, 109877, Note_on_c, 0, 82, 85
2, 109878, Note_on_c, 0, 53, 0
2, 109885, Note_on_c, 0, 50, 62
2, 109887, Control_c, 0, 64, 80
2, 109889, Note_on_c, 0, 80, 0
2, 109907, Control_c, 0, 64, 69
2, 109926, Control_c, 0, 64, 59
2, 109941, Note_on_c, 0, 83, 81
2, 109945, Control_c, 0, 64, 0
2, 109986, Note_on_c, 0, 82, 0
2, 110022, Control_c, 0, 67, 8
2, 110041, Control_c, 0, 67, 10
2, 110060, Control_c, 0, 67, 12
2, 110079, Control_c, 0, 67, 13
2, 110098, Control_c, 0, 67, 14
2, 110267, Note_on_c, 0, 82, 78
2, 110279, Note_on_c, 0, 53, 45
2, 110318, Note_on_c, 0, 83, 0
2, 110348, Control_c, 0, 67, 13
2, 110409, Note_on_c, 0, 80, 78
2, 110434, Note_on_c, 0, 56, 56
2, 110480, Note_on_c, 0, 82, 0
2, 110482, Control_c, 0, 67, 14
2, 110497, Note_on_c, 0, 53, 0
2, 110533, Note_on_c, 0, 50, 0
2, 110563, Note_on_c, 0, 56, 0
2, 110570, Note_on_c, 0, 78, 76
2, 110590, Note_on_c, 0, 59, 64
2, 110604, Note_on_c, 0, 80, 0
2, 110635, Control_c, 0, 67, 14
2, 110707, Note_on_c, 0, 78, 0
2, 110725, Note_on_c, 0, 77, 71
2, 110732, Control_c, 0, 67, 14
2, 110751, Control_c, 0, 67, 13
2, 110789, Control_c, 0, 67, 13
2, 110809, Control_c, 0, 67, 12
2, 110828, Control_c, 0, 67, 12
2, 110846, Control_c, 0, 67, 11
2, 110866, Control_c, 0, 67, 10
2, 110875, Note_on_c, 0, 53, 67
2, 110875, Note_on_c, 0, 75, 74
2, 110885, Control_c, 0, 64, 30
2, 110885, Control_c, 0, 67, 10
2, 110905, Control_c, 0, 64, 62
2, 110905, Control_c, 0, 67, 9
2, 110909, Note_on_c, 0, 77, 0
2, 110923, Control_c, 0, 64, 69
2, 110943, Control_c, 0, 64, 78
2, 110962, Control_c, 0, 64, 94
2, 110981, Control_c, 0, 64, 127
2, 110986, Note_on_c, 0, 59, 0
2, 111036, Note_on_c, 0, 74, 64
2, 111057, Note_on_c, 0, 75, 0
2, 111077, Control_c, 0, 67, 10
2, 111097, Control_c, 0, 64, 119
2, 111115, Control_c, 0, 64, 102
2, 111135, Control_c, 0, 64, 86
2, 111135, Control_c, 0, 67, 10
2, 111154, Control_c, 0, 64, 71
2, 111154, Control_c, 0, 67, 11
2, 111160, Note_on_c, 0, 53, 0
2, 111174, Control_c, 0, 64, 55
2, 111184, Note_on_c, 0, 74, 0
2, 111188, Note_on_c, 0, 54, 59
2, 111192, Control_c, 0, 64, 0
2, 111195, Note_on_c, 0, 58, 62
2, 111200, Note_on_c, 0, 75, 71
2, 111212, Control_c, 0, 67, 11
2, 111289, Control_c, 0, 64, 32
2, 111308, Control_c, 0, 64, 59
2, 111326, Control_c, 0, 64, 64
2, 111345, Note_on_c, 0, 75, 0
2, 111346, Control_c, 0, 64, 67
2, 111346, Note_on_c, 0, 78, 67
2, 111365, Control_c, 0, 64, 70
2, 111385, Control_c, 0, 64, 73
2, 111394, Note_on_c, 0, 58, 0
2, 111403, Control_c, 0, 64, 75
2, 111403, Control_c, 0, 67, 12
2, 111442, Control_c, 0, 64, 73
2, 111442, Control_c, 0, 67, 11
2, 111449, Note_on_c, 0, 54, 0
2, 111461, Control_c, 0, 64, 70
2, 111461, Control_c, 0, 67, 11
2, 111474, Note_on_c, 0, 78, 0
2, 111480, Control_c, 0, 64, 63
2, 111480, Control_c, 0, 67, 10
2, 111500, Control_c, 0, 64, 46
2, 111500, Control_c, 0, 67, 10
2, 111510, Note_on_c, 0, 56, 69
2, 111512, Note_on_c, 0, 59, 68
2, 111519, Control_c, 0, 64, 0
2, 111519, Note_on_c, 0, 77, 63
2, 111557, Control_c, 0, 67, 9
2, 111577, Control_c, 0, 64, 35
2, 111595, Control_c, 0, 64, 59
2, 111615, Control_c, 0, 64, 65
2, 111615, Control_c, 0, 67, 10
2, 111618, Note_on_c, 0, 59, 0
2, 111634, Control_c, 0, 64, 68
2, 111645, Note_on_c, 0, 56, 0
2, 111654, Control_c, 0, 64, 73
2, 111665, Note_on_c, 0, 75, 68
2, 111672, Control_c, 0, 64, 79
2, 111692, Control_c, 0, 64, 84
2, 111711, Control_c, 0, 64, 84
2, 111731, Control_c, 0, 64, 81
2, 111735, Note_on_c, 0, 77, 0
2, 111749, Control_c, 0, 64, 75
2, 111771, Control_c, 0, 64, 66
2, 111790, Control_c, 0, 64, 50
2, 111809, Control_c, 0, 64, 0
2, 111830, Note_on_c, 0, 58, 59
2, 111839, Note_on_c, 0, 74, 60
2, 111885, Control_c, 0, 64, 42
2, 111898, Note_on_c, 0, 75, 0
2, 111905, Control_c, 0, 64, 61
2, 111924, Control_c, 0, 64, 66
2, 111943, Control_c, 0, 64, 70
2, 111957, Note_on_c, 0, 74, 0
2, 111962, Control_c, 0, 64, 77
2, 111973, Note_on_c, 0, 77, 68
2, 111980, Control_c, 0, 64, 85
2, 111999, Control_c, 0, 64, 90
2, 112024, Note_on_c, 0, 77, 0
2, 112037, Control_c, 0, 64, 87
2, 112057, Control_c, 0, 64, 80
2, 112075, Control_c, 0, 64, 70
2, 112095, Control_c, 0, 64, 59
2, 112114, Control_c, 0, 64, 0
2, 112125, Note_on_c, 0, 50, 52
2, 112138, Note_on_c, 0, 46, 48
2, 112142, Note_on_c, 0, 70, 70
2, 112211, Control_c, 0, 64, 51
2, 112225, Note_on_c, 0, 58, 0
2, 112229, Control_c, 0, 64, 64
2, 112249, Control_c, 0, 64, 70
2, 112262, Note_on_c, 0, 50, 0
2, 112268, Control_c, 0, 64, 83
2, 112273, Note_on_c, 0, 46, 0
2, 112277, Note_on_c, 0, 68, 71
2, 112286, Control_c, 0, 64, 95
2, 112306, Control_c, 0, 64, 104
2, 112306, Control_c, 0, 67, 10
2, 112345, Control_c, 0, 64, 99
2, 112363, Control_c, 0, 64, 89
2, 112376, Note_on_c, 0, 70, 0
2, 112383, Control_c, 0, 64, 79
2, 112402, Control_c, 0, 64, 72
2, 112421, Control_c, 0, 64, 66
2, 112440, Control_c, 0, 64, 62
2, 112440, Control_c, 0, 67, 11
2, 112455, Note_on_c, 0, 66, 67
2, 112460, Control_c, 0, 64, 49
2, 112466, Note_on_c, 0, 51, 59
2, 112479, Control_c, 0, 64, 0
2, 112479, Control_c, 0, 67, 11
2, 112485, Note_on_c, 0, 39, 57
2, 112492, Note_on_c, 0, 68, 0
2, 112612, Note_on_c, 0, 66, 0
2, 112614, Control_c, 0, 67, 11
2, 112618, Note_on_c, 0, 65, 67
2, 112632, Control_c, 0, 67, 10
2, 112652, Control_c, 0, 67, 9
2, 112671, Control_c, 0, 67, 0
2, 112778, Note_on_c, 0, 63, 77
2, 112790, Note_on_c, 0, 65, 0
2, 112922, Note_on_c, 0, 62, 74
2, 112954, Note_on_c, 0, 63, 0
2, 112979, Note_on_c, 0, 51, 0
2, 112992, Note_on_c, 0, 39, 0
2, 113078, Note_on_c, 0, 63, 81
2, 113087, Note_on_c, 0, 62, 0
2, 113159, Note_on_c, 0, 63, 0
2, 113212, Note_on_c, 0, 65, 77
2, 113372, Note_on_c, 0, 51, 78
2, 113375, Note_on_c, 0, 66, 76
2, 113402, Note_on_c, 0, 65, 0
2, 113414, Note_on_c, 0, 51, 0
2, 113519, Note_on_c, 0, 68, 79
2, 113545, Note_on_c, 0, 66, 0
2, 113677, Note_on_c, 0, 70, 80
2, 113681, Note_on_c, 0, 54, 80
2, 113711, Note_on_c, 0, 68, 0
2, 113745, Control_c, 0, 67, 9
2, 113764, Control_c, 0, 67, 12
2, 113784, Control_c, 0, 67, 13
2, 113802, Control_c, 0, 67, 13
2, 113809, Note_on_c, 0, 53, 79
2, 113822, Control_c, 0, 67, 14
2, 113831, Note_on_c, 0, 54, 0
2, 113840, Note_on_c, 0, 68, 81
2, 113841, Control_c, 0, 67, 15
2, 113861, Control_c, 0, 67, 15
2, 113899, Control_c, 0, 67, 15
2, 113908, Note_on_c, 0, 70, 0
2, 113918, Control_c, 0, 67, 14
2, 113937, Control_c, 0, 67, 12
2, 113956, Control_c, 0, 67, 11
2, 113976, Control_c, 0, 67, 9
2, 113977, Note_on_c, 0, 51, 73
2, 113995, Control_c, 0, 67, 0
2, 113995, Note_on_c, 0, 66, 72
2, 114011, Note_on_c, 0, 53, 0
2, 114013, Note_on_c, 0, 68, 0
2, 114098, Note_on_c, 0, 51, 0
2, 114137, Note_on_c, 0, 53, 82
2, 114145, Note_on_c, 0, 68, 80
2, 114159, Note_on_c, 0, 66, 0
2, 114197, Note_on_c, 0, 53, 0
2, 114299, Note_on_c, 0, 61, 86
2, 114309, Note_on_c, 0, 70, 76
2, 114331, Note_on_c, 0, 68, 0
2, 114355, Note_on_c, 0, 61, 0
2, 114456, Note_on_c, 0, 68, 72
2, 114497, Note_on_c, 0, 70, 0
2, 114608, Note_on_c, 0, 66, 69
2, 114610, Note_on_c, 0, 58, 78
2, 114638, Note_on_c, 0, 68, 0
2, 114653, Note_on_c, 0, 58, 0
2, 114715, Note_on_c, 0, 66, 0
2, 114751, Note_on_c, 0, 65, 67
2, 114933, Note_on_c, 0, 53, 81
2, 114941, Note_on_c, 0, 66, 73
2, 114966, Note_on_c, 0, 65, 0
2, 115280, Note_on_c, 0, 51, 65
2, 115327, Note_on_c, 0, 53, 0
2, 115412, Note_on_c, 0, 49, 75
2, 115432, Note_on_c, 0, 51, 0
2, 115560, Note_on_c, 0, 49, 0
2, 115592, Note_on_c, 0, 51, 78
2, 115645, Note_on_c, 0, 51, 0
2, 115739, Note_on_c, 0, 65, 65
2, 115821, Note_on_c, 0, 66, 0
2, 115878, Note_on_c, 0, 65, 0
2, 115907, Note_on_c, 0, 60, 76
2, 115907, Note_on_c, 0, 63, 65
2, 115952, Note_on_c, 0, 60, 0
2, 116048, Note_on_c, 0, 63, 0
2, 116062, Note_on_c, 0, 66, 64
2, 116193, Note_on_c, 0, 66, 0
2, 116219, Note_on_c, 0, 49, 76
2, 116242, Note_on_c, 0, 65, 54
2, 116310, Note_on_c, 0, 49, 0
2, 116381, Note_on_c, 0, 63, 58
2, 116442, Note_on_c, 0, 65, 0
2, 116520, Note_on_c, 0, 63, 0
2, 116540, Note_on_c, 0, 58, 76
2, 116545, Note_on_c, 0, 61, 61
2, 116586, Note_on_c, 0, 58, 0
2, 116677, Note_on_c, 0, 61, 0
2, 116706, Note_on_c, 0, 65, 52
2, 116859, Note_on_c, 0, 48, 64
2, 116874, Note_on_c, 0, 63, 57
2, 116893, Note_on_c, 0, 65, 0
2, 116894, Control_c, 0, 67, 9
2, 116911, Note_on_c, 0, 48, 0
2, 116913, Control_c, 0, 67, 13
2, 116933, Control_c, 0, 67, 17
2, 116951, Control_c, 0, 67, 21
2, 116971, Control_c, 0, 67, 25
2, 116990, Control_c, 0, 67, 30
2, 116995, Note_on_c, 0, 63, 0
2, 117010, Control_c, 0, 67, 35
2, 117021, Note_on_c, 0, 61, 55
2, 117028, Control_c, 0, 67, 39
2, 117047, Control_c, 0, 67, 42
2, 117067, Control_c, 0, 67, 44
2, 117085, Control_c, 0, 67, 46
2, 117105, Control_c, 0, 67, 49
2, 117124, Control_c, 0, 67, 51
2, 117144, Control_c, 0, 67, 55
2, 117158, Note_on_c, 0, 61, 0
2, 117162, Control_c, 0, 67, 58
2, 117176, Note_on_c, 0, 63, 52
2, 117182, Control_c, 0, 67, 63
2, 117185, Note_on_c, 0, 57, 54
2, 117201, Control_c, 0, 67, 68
2, 117218, Note_on_c, 0, 57, 0
2, 117221, Control_c, 0, 67, 74
2, 117239, Control_c, 0, 67, 80
2, 117259, Control_c, 0, 67, 88
2, 117278, Control_c, 0, 64, 39
2, 117278, Control_c, 0, 67, 97
2, 117297, Control_c, 0, 64, 52
2, 117297, Control_c, 0, 67, 109
2, 117316, Control_c, 0, 64, 54
2, 117316, Control_c, 0, 67, 119
2, 117321, Note_on_c, 0, 60, 55
2, 117336, Control_c, 0, 64, 53
2, 117336, Control_c, 0, 67, 127
2, 117355, Control_c, 0, 64, 50
2, 117366, Note_on_c, 0, 60, 0
2, 117366, Note_on_c, 0, 63, 0
2, 117374, Control_c, 0, 64, 41
2, 117393, Control_c, 0, 64, 0
2, 117476, Note_on_c, 0, 46, 52
2, 117482, Note_on_c, 0, 61, 63
2, 117508, Control_c, 0, 64, 21
2, 117530, Control_c, 0, 64, 56
2, 117546, Note_on_c, 0, 46, 0
2, 117549, Control_c, 0, 64, 64
2, 117567, Control_c, 0, 64, 66
2, 117587, Control_c, 0, 64, 66
2, 117608, Note_on_c, 0, 61, 0
2, 117639, Note_on_c, 0, 65, 58
2, 117644, Control_c, 0, 64, 66
2, 117664, Control_c, 0, 64, 65
2, 117683, Control_c, 0, 64, 64
2, 117702, Control_c, 0, 64, 63
2, 117721, Control_c, 0, 64, 60
2, 117739, Control_c, 0, 64, 56
2, 117758, Control_c, 0, 64, 48
2, 117777, Control_c, 0, 64, 23
2, 117788, Note_on_c, 0, 65, 0
2, 117796, Control_c, 0, 64, 0
2, 117796, Note_on_c, 0, 66, 61
2, 117800, Note_on_c, 0, 58, 53
2, 117891, Note_on_c, 0, 58, 0
2, 117901, Note_on_c, 0, 66, 0
2, 117945, Note_on_c, 0, 57, 55
2, 117946, Note_on_c, 0, 65, 58
2, 118087, Note_on_c, 0, 57, 0
2, 118098, Note_on_c, 0, 65, 0
2, 118106, Note_on_c, 0, 73, 68
2, 118107, Note_on_c, 0, 58, 48
2, 118232, Note_on_c, 0, 58, 0
2, 118281, Note_on_c, 0, 60, 45
2, 118385, Note_on_c, 0, 60, 0
2, 118419, Note_on_c, 0, 65, 59
2, 118425, Note_on_c, 0, 61, 54
2, 118464, Note_on_c, 0, 65, 0
2, 118535, Note_on_c, 0, 61, 0
2, 118580, Note_on_c, 0, 58, 48
2, 118684, Note_on_c, 0, 58, 0
2, 118739, Note_on_c, 0, 70, 65
2, 118742, Note_on_c, 0, 55, 52
2, 118754, Note_on_c, 0, 73, 0
2, 118878, Note_on_c, 0, 55, 0
2, 118886, Note_on_c, 0, 72, 77
2, 118891, Note_on_c, 0, 56, 55
2, 118894, Note_on_c, 0, 70, 0
2, 118964, Note_on_c, 0, 56, 0
2, 119027, Note_on_c, 0, 58, 59
2, 119036, Note_on_c, 0, 73, 78
2, 119070, Note_on_c, 0, 72, 0
2, 119108, Note_on_c, 0, 58, 0
2, 119128, Note_on_c, 0, 73, 0
2, 119168, Note_on_c, 0, 70, 82
2, 119185, Note_on_c, 0, 55, 57
2, 119319, Note_on_c, 0, 55, 0
2, 119329, Note_on_c, 0, 70, 0
2, 119344, Note_on_c, 0, 82, 82
2, 119360, Note_on_c, 0, 51, 50
2, 119473, Note_on_c, 0, 51, 0
2, 119487, Note_on_c, 0, 73, 60
2, 119497, Note_on_c, 0, 53, 51
2, 119606, Note_on_c, 0, 53, 0
2, 119613, Note_on_c, 0, 73, 0
2, 119624, Note_on_c, 0, 82, 0
2, 119643, Note_on_c, 0, 55, 48
2, 119655, Note_on_c, 0, 75, 62
2, 119659, Control_c, 0, 64, 24
2, 119678, Control_c, 0, 64, 58
2, 119697, Control_c, 0, 64, 65
2, 119716, Control_c, 0, 64, 69
2, 119736, Control_c, 0, 64, 75
2, 119755, Control_c, 0, 64, 82
2, 119764, Note_on_c, 0, 75, 0
2, 119767, Note_on_c, 0, 55, 0
2, 119774, Control_c, 0, 64, 88
2, 119775, Note_on_c, 0, 51, 56
2, 119793, Control_c, 0, 64, 92
2, 119794, Note_on_c, 0, 70, 69
2, 119813, Control_c, 0, 64, 93
2, 119817, Note_on_c, 0, 51, 0
2, 119831, Control_c, 0, 64, 94
2, 119832, Note_on_c, 0, 70, 0
2, 119889, Control_c, 0, 64, 93
2, 119908, Control_c, 0, 64, 91
2, 119927, Control_c, 0, 64, 86
2, 119947, Control_c, 0, 64, 78
2, 119953, Note_on_c, 0, 72, 67
2, 119958, Note_on_c, 0, 44, 54
2, 119965, Control_c, 0, 64, 69
2, 119985, Control_c, 0, 64, 56
2, 120004, Control_c, 0, 64, 0
2, 120038, Note_on_c, 0, 44, 0
2, 120094, Note_on_c, 0, 63, 62
2, 120176, Note_on_c, 0, 72, 0
2, 120252, Note_on_c, 0, 56, 60
2, 120259, Note_on_c, 0, 65, 64
2, 120265, Note_on_c, 0, 63, 0
2, 120338, Note_on_c, 0, 56, 0
2, 120390, Note_on_c, 0, 55, 63
2, 120407, Note_on_c, 0, 65, 0
2, 120412, Note_on_c, 0, 63, 68
2, 120549, Note_on_c, 0, 63, 0
2, 120566, Note_on_c, 0, 56, 71
2, 120567, Note_on_c, 0, 72, 66
2, 120594, Note_on_c, 0, 55, 0
2, 120707, Note_on_c, 0, 58, 73
2, 120764, Note_on_c, 0, 56, 0
2, 120866, Note_on_c, 0, 58, 0
2, 120870, Note_on_c, 0, 60, 68
2, 120887, Note_on_c, 0, 63, 53
2, 120939, Note_on_c, 0, 63, 0
2, 121015, Note_on_c, 0, 56, 69
2, 121033, Note_on_c, 0, 60, 0
2, 121165, Note_on_c, 0, 56, 0
2, 121179, Note_on_c, 0, 68, 66
2, 121187, Note_on_c, 0, 53, 60
2, 121195, Note_on_c, 0, 72, 0
2, 121334, Note_on_c, 0, 53, 0
2, 121343, Note_on_c, 0, 70, 74
2, 121344, Note_on_c, 0, 55, 59
2, 121356, Note_on_c, 0, 68, 0
2, 121432, Note_on_c, 0, 55, 0
2, 121478, Note_on_c, 0, 72, 80
2, 121486, Note_on_c, 0, 56, 63
2, 121519, Note_on_c, 0, 70, 0
2, 121548, Note_on_c, 0, 56, 0
2, 121585, Note_on_c, 0, 72, 0
2, 121623, Note_on_c, 0, 68, 86
2, 121640, Note_on_c, 0, 53, 59
2, 121753, Note_on_c, 0, 53, 0
2, 121782, Note_on_c, 0, 80, 84
2, 121795, Note_on_c, 0, 68, 0
2, 121799, Note_on_c, 0, 49, 56
2, 121907, Note_on_c, 0, 49, 0
2, 121935, Note_on_c, 0, 72, 62
2, 121940, Note_on_c, 0, 51, 50
2, 122032, Note_on_c, 0, 80, 0
2, 122047, Note_on_c, 0, 51, 0
2, 122070, Note_on_c, 0, 72, 0
2, 122084, Note_on_c, 0, 73, 64
2, 122085, Note_on_c, 0, 53, 50
2, 122118, Control_c, 0, 64, 50
2, 122138, Control_c, 0, 64, 61
2, 122156, Control_c, 0, 64, 64
2, 122176, Control_c, 0, 64, 66
2, 122195, Control_c, 0, 64, 67
2, 122200, Note_on_c, 0, 53, 0
2, 122213, Note_on_c, 0, 73, 0
2, 122215, Control_c, 0, 64, 69
2, 122223, Note_on_c, 0, 68, 63
2, 122225, Note_on_c, 0, 49, 53
2, 122233, Control_c, 0, 64, 69
2, 122253, Control_c, 0, 64, 69
2, 122265, Note_on_c, 0, 68, 0
2, 122267, Note_on_c, 0, 49, 0
2, 122272, Control_c, 0, 64, 68
2, 122291, Control_c, 0, 64, 68
2, 122310, Control_c, 0, 64, 67
2, 122329, Control_c, 0, 64, 66
2, 122349, Control_c, 0, 64, 64
2, 122367, Control_c, 0, 64, 61
2, 122387, Control_c, 0, 64, 57
2, 122390, Note_on_c, 0, 70, 69
2, 122393, Note_on_c, 0, 43, 55
2, 122406, Control_c, 0, 64, 52
2, 122426, Control_c, 0, 64, 43
2, 122444, Control_c, 0, 64, 28
2, 122464, Control_c, 0, 64, 0
2, 122464, Control_c, 0, 67, 127
2, 122471, Note_on_c, 0, 43, 0
2, 122483, Control_c, 0, 67, 125
2, 122502, Control_c, 0, 67, 123
2, 122521, Control_c, 0, 67, 121
2, 122533, Note_on_c, 0, 61, 62
2, 122540, Control_c, 0, 67, 121
2, 122559, Control_c, 0, 67, 120
2, 122578, Control_c, 0, 67, 118
2, 122597, Control_c, 0, 67, 117
2, 122617, Control_c, 0, 67, 116
2, 122635, Control_c, 0, 67, 113
2, 122655, Control_c, 0, 67, 111
2, 122674, Control_c, 0, 67, 108
2, 122685, Note_on_c, 0, 55, 67
2, 122686, Note_on_c, 0, 63, 69
2, 122689, Note_on_c, 0, 61, 0
2, 122694, Control_c, 0, 67, 105
2, 122712, Control_c, 0, 67, 101
2, 122721, Note_on_c, 0, 70, 0
2, 122732, Control_c, 0, 67, 97
2, 122751, Control_c, 0, 67, 94
2, 122768, Note_on_c, 0, 55, 0
2, 122771, Control_c, 0, 67, 90
2, 122789, Control_c, 0, 67, 86
2, 122808, Control_c, 0, 67, 82
2, 122828, Control_c, 0, 67, 79
2, 122833, Note_on_c, 0, 61, 70
2, 122840, Note_on_c, 0, 53, 66
2, 122846, Control_c, 0, 67, 76
2, 122863, Note_on_c, 0, 63, 0
2, 122866, Control_c, 0, 67, 72
2, 122885, Control_c, 0, 67, 69
2, 122905, Control_c, 0, 67, 65
2, 122923, Control_c, 0, 67, 61
2, 122943, Control_c, 0, 67, 55
2, 122962, Control_c, 0, 67, 46
2, 122981, Control_c, 0, 67, 30
2, 122983, Note_on_c, 0, 53, 0
2, 122994, Note_on_c, 0, 61, 0
2, 122994, Note_on_c, 0, 70, 78
2, 123000, Control_c, 0, 67, 10
2, 123019, Note_on_c, 0, 55, 65
2, 123020, Control_c, 0, 67, 0
2, 123132, Note_on_c, 0, 55, 0
2, 123159, Note_on_c, 0, 56, 61
2, 123316, Note_on_c, 0, 56, 0
2, 123327, Note_on_c, 0, 58, 59
2, 123328, Note_on_c, 0, 61, 68
2, 123376, Note_on_c, 0, 61, 0
2, 123400, Note_on_c, 0, 58, 0
2, 123464, Note_on_c, 0, 55, 57
2, 123584, Note_on_c, 0, 55, 0
2, 123602, Note_on_c, 0, 70, 0
2, 123628, Note_on_c, 0, 67, 65
2, 123634, Note_on_c, 0, 52, 56
2, 123763, Note_on_c, 0, 52, 0
2, 123772, Note_on_c, 0, 53, 70
2, 123780, Note_on_c, 0, 68, 76
2, 123801, Note_on_c, 0, 67, 0
2, 123870, Note_on_c, 0, 53, 0
2, 123926, Note_on_c, 0, 55, 77
2, 123936, Note_on_c, 0, 70, 83
2, 123981, Note_on_c, 0, 68, 0
2, 124028, Note_on_c, 0, 55, 0
2, 124034, Note_on_c, 0, 70, 0
2, 124079, Note_on_c, 0, 67, 73
2, 124082, Note_on_c, 0, 52, 76
2, 124232, Note_on_c, 0, 52, 0
2, 124238, Note_on_c, 0, 79, 88
2, 124241, Note_on_c, 0, 48, 75
2, 124281, Note_on_c, 0, 67, 0
2, 124373, Note_on_c, 0, 70, 73
2, 124391, Note_on_c, 0, 50, 76
2, 124429, Note_on_c, 0, 48, 0
2, 124513, Note_on_c, 0, 50, 0
2, 124546, Note_on_c, 0, 72, 74
2, 124548, Note_on_c, 0, 52, 72
2, 124560, Control_c, 0, 64, 47
2, 124574, Note_on_c, 0, 70, 0
2, 124580, Control_c, 0, 64, 63
2, 124599, Control_c, 0, 64, 69
2, 124618, Control_c, 0, 64, 79
2, 124626, Note_on_c, 0, 79, 0
2, 124637, Control_c, 0, 64, 96
2, 124657, Control_c, 0, 64, 127
2, 124664, Note_on_c, 0, 52, 0
2, 124677, Note_on_c, 0, 67, 78
2, 124682, Note_on_c, 0, 48, 74
2, 124722, Note_on_c, 0, 48, 0
2, 124734, Control_c, 0, 64, 104
2, 124747, Note_on_c, 0, 72, 0
2, 124752, Control_c, 0, 64, 90
2, 124772, Control_c, 0, 64, 78
2, 124791, Control_c, 0, 64, 67
2, 124810, Control_c, 0, 64, 59
2, 124829, Control_c, 0, 64, 46
2, 124837, Note_on_c, 0, 68, 85
2, 124840, Note_on_c, 0, 41, 82
2, 124848, Control_c, 0, 64, 24
2, 124868, Control_c, 0, 64, 0
2, 124916, Note_on_c, 0, 67, 0
2, 124960, Note_on_c, 0, 68, 0
2, 124993, Note_on_c, 0, 43, 78
2, 124995, Note_on_c, 0, 76, 83
2, 125022, Note_on_c, 0, 41, 0
2, 125144, Note_on_c, 0, 44, 81
2, 125144, Note_on_c, 0, 77, 81
2, 125183, Note_on_c, 0, 43, 0
2, 125244, Note_on_c, 0, 76, 0
2, 125278, Note_on_c, 0, 73, 81
2, 125281, Note_on_c, 0, 46, 77
2, 125318, Note_on_c, 0, 77, 0
2, 125362, Note_on_c, 0, 44, 0
2, 125423, Note_on_c, 0, 46, 0
2, 125430, Note_on_c, 0, 48, 80
2, 125436, Note_on_c, 0, 70, 86
2, 125443, Note_on_c, 0, 73, 0
2, 125548, Note_on_c, 0, 48, 0
2, 125587, Note_on_c, 0, 50, 78
2, 125741, Note_on_c, 0, 60, 86
2, 125760, Note_on_c, 0, 52, 73
2, 125765, Note_on_c, 0, 50, 0
2, 125838, Note_on_c, 0, 60, 0
2, 125873, Note_on_c, 0, 52, 0
2, 125903, Note_on_c, 0, 48, 65
2, 126077, Note_on_c, 0, 48, 0
2, 126087, Note_on_c, 0, 61, 81
2, 126100, Note_on_c, 0, 53, 70
2, 126162, Note_on_c, 0, 70, 0
2, 126234, Note_on_c, 0, 60, 81
2, 126256, Note_on_c, 0, 61, 0
2, 126265, Note_on_c, 0, 52, 70
2, 126287, Note_on_c, 0, 53, 0
2, 126404, Note_on_c, 0, 58, 83
2, 126407, Note_on_c, 0, 50, 70
2, 126408, Note_on_c, 0, 52, 0
2, 126445, Note_on_c, 0, 60, 0
2, 126547, Note_on_c, 0, 60, 87
2, 126548, Note_on_c, 0, 50, 0
2, 126550, Note_on_c, 0, 58, 0
2, 126553, Note_on_c, 0, 52, 72
2, 126688, Note_on_c, 0, 52, 0
2, 126714, Note_on_c, 0, 53, 68
2, 126716, Note_on_c, 0, 68, 89
2, 126737, Note_on_c, 0, 60, 0
2, 126865, Note_on_c, 0, 51, 61
2, 126868, Note_on_c, 0, 53, 0
2, 127042, Note_on_c, 0, 49, 61
2, 127048, Note_on_c, 0, 65, 78
2, 127082, Note_on_c, 0, 51, 0
2, 127125, Note_on_c, 0, 65, 0
2, 127189, Note_on_c, 0, 49, 0
2, 127216, Note_on_c, 0, 48, 64
2, 127373, Note_on_c, 0, 60, 80
2, 127395, Note_on_c, 0, 48, 0
2, 127401, Note_on_c, 0, 49, 61
2, 127493, Control_c, 0, 64, 29
2, 127513, Control_c, 0, 64, 59
2, 127531, Control_c, 0, 64, 66
2, 127551, Control_c, 0, 64, 71
2, 127570, Control_c, 0, 64, 81
2, 127581, Note_on_c, 0, 60, 0
2, 127589, Control_c, 0, 64, 99
2, 127608, Control_c, 0, 64, 127
2, 127713, Note_on_c, 0, 58, 74
2, 127819, Control_c, 0, 64, 99
2, 127839, Control_c, 0, 64, 81
2, 127842, Note_on_c, 0, 58, 0
2, 127854, Note_on_c, 0, 56, 76
2, 127858, Control_c, 0, 64, 68
2, 127867, Note_on_c, 0, 68, 0
2, 127877, Control_c, 0, 64, 54
2, 127896, Control_c, 0, 64, 0
2, 127973, Note_on_c, 0, 56, 0
2, 128042, Note_on_c, 0, 58, 75
2, 128169, Note_on_c, 0, 48, 73
2, 128171, Note_on_c, 0, 49, 0
2, 128339, Note_on_c, 0, 46, 70
2, 128346, Note_on_c, 0, 67, 75
2, 128365, Note_on_c, 0, 48, 0
2, 128487, Note_on_c, 0, 49, 74
2, 128489, Note_on_c, 0, 46, 0
2, 128620, Note_on_c, 0, 58, 0
2, 128630, Note_on_c, 0, 49, 0
2, 128659, Note_on_c, 0, 56, 82
2, 128666, Note_on_c, 0, 48, 68
2, 128715, Note_on_c, 0, 67, 0
2, 128818, Note_on_c, 0, 46, 65
2, 128868, Note_on_c, 0, 48, 0
2, 128969, Note_on_c, 0, 56, 0
2, 128979, Note_on_c, 0, 44, 62
2, 128979, Note_on_c, 0, 65, 79
2, 128996, Note_on_c, 0, 46, 0
2, 129011, Control_c, 0, 64, 34
2, 129030, Control_c, 0, 64, 56
2, 129049, Control_c, 0, 64, 62
2, 129069, Control_c, 0, 64, 64
2, 129088, Control_c, 0, 64, 64
2, 129123, Note_on_c, 0, 65, 0
2, 129128, Note_on_c, 0, 48, 63
2, 129130, Note_on_c, 0, 44, 0
2, 129203, Control_c, 0, 64, 64
2, 129222, Control_c, 0, 64, 61
2, 129241, Control_c, 0, 64, 48
2, 129260, Control_c, 0, 64, 0
2, 129292, Note_on_c, 0, 55, 77
2, 129296, Note_on_c, 0, 46, 59
2, 129307, Note_on_c, 0, 64, 68
2, 129319, Note_on_c, 0, 48, 0
2, 129375, Control_c, 0, 64, 49
2, 129395, Control_c, 0, 64, 63
2, 129414, Control_c, 0, 64, 67
2, 129434, Control_c, 0, 64, 72
2, 129434, Note_on_c, 0, 46, 0
2, 129439, Note_on_c, 0, 64, 0
2, 129448, Note_on_c, 0, 44, 60
2, 129452, Control_c, 0, 64, 79
2, 129472, Control_c, 0, 64, 86
2, 129472, Note_on_c, 0, 55, 0
2, 129491, Control_c, 0, 64, 89
2, 129529, Control_c, 0, 64, 84
2, 129549, Control_c, 0, 64, 73
2, 129568, Control_c, 0, 64, 58
2, 129587, Control_c, 0, 64, 0
2, 129604, Note_on_c, 0, 46, 55
2, 129611, Note_on_c, 0, 64, 65
2, 129614, Note_on_c, 0, 67, 65
2, 129656, Note_on_c, 0, 44, 0
2, 129683, Control_c, 0, 64, 55
2, 129693, Note_on_c, 0, 64, 0
2, 129702, Control_c, 0, 64, 65
2, 129704, Note_on_c, 0, 67, 0
2, 129721, Control_c, 0, 64, 72
2, 129735, Note_on_c, 0, 46, 0
2, 129740, Control_c, 0, 64, 88
2, 129760, Control_c, 0, 64, 119
2, 129771, Note_on_c, 0, 43, 63
2, 129778, Control_c, 0, 64, 127
2, 129827, Note_on_c, 0, 43, 0
2, 129875, Control_c, 0, 64, 112
2, 129894, Control_c, 0, 64, 92
2, 129914, Control_c, 0, 64, 79
2, 129932, Control_c, 0, 64, 69
2, 129952, Control_c, 0, 64, 61
2, 129971, Control_c, 0, 64, 48
2, 129980, Note_on_c, 0, 53, 61
2, 129980, Note_on_c, 0, 72, 69
2, 129990, Control_c, 0, 64, 9
2, 130006, Note_on_c, 0, 44, 52
2, 130014, Control_c, 0, 64, 0
2, 130125, Note_on_c, 0, 72, 0
2, 130135, Note_on_c, 0, 70, 72
2, 130276, Note_on_c, 0, 44, 0
2, 130282, Note_on_c, 0, 49, 65
2, 130290, Note_on_c, 0, 68, 72
2, 130308, Note_on_c, 0, 70, 0
2, 130394, Note_on_c, 0, 68, 0
2, 130438, Note_on_c, 0, 72, 71
2, 130567, Note_on_c, 0, 72, 0
2, 130569, Note_on_c, 0, 49, 0
2, 130593, Note_on_c, 0, 43, 44
2, 130601, Note_on_c, 0, 70, 61
2, 130681, Control_c, 0, 64, 26
2, 130700, Control_c, 0, 64, 36
2, 130720, Control_c, 0, 64, 39
2, 130724, Note_on_c, 0, 53, 0
2, 130738, Control_c, 0, 64, 41
2, 130755, Note_on_c, 0, 68, 57
2, 130758, Control_c, 0, 64, 42
2, 130763, Note_on_c, 0, 70, 0
2, 130797, Control_c, 0, 64, 41
2, 130815, Control_c, 0, 64, 36
2, 130835, Control_c, 0, 64, 0
2, 130853, Note_on_c, 0, 43, 0
2, 130877, Note_on_c, 0, 68, 0
2, 130890, Note_on_c, 0, 48, 45
2, 130901, Note_on_c, 0, 52, 53
2, 130919, Note_on_c, 0, 70, 58
2, 130972, Control_c, 0, 64, 46
2, 130992, Control_c, 0, 64, 57
2, 131010, Control_c, 0, 64, 60
2, 131030, Control_c, 0, 64, 61
2, 131049, Control_c, 0, 64, 62
2, 131068, Note_on_c, 0, 52, 0
2, 131069, Control_c, 0, 64, 63
2, 131080, Note_on_c, 0, 67, 50
2, 131087, Control_c, 0, 64, 63
2, 131125, Note_on_c, 0, 70, 0
2, 131145, Control_c, 0, 64, 63
2, 131164, Control_c, 0, 64, 62
2, 131180, Control_c, 0, 64, 58
2, 131200, Control_c, 0, 64, 44
2, 131210, Note_on_c, 0, 48, 0
2, 131218, Control_c, 0, 64, 0
2, 131218, Note_on_c, 0, 67, 0
2, 131237, Note_on_c, 0, 53, 59
2, 131237, Note_on_c, 0, 68, 66
2, 131240, Note_on_c, 0, 41, 57
2, 131315, Control_c, 0, 64, 21
2, 131334, Control_c, 0, 64, 52
2, 131354, Control_c, 0, 64, 62
2, 131354, Note_on_c, 0, 68, 0
2, 131371, Note_on_c, 0, 41, 0
2, 131372, Control_c, 0, 64, 65
2, 131379, Note_on_c, 0, 65, 62
2, 131392, Control_c, 0, 64, 67
2, 131411, Control_c, 0, 64, 70
2, 131430, Control_c, 0, 64, 75
2, 131449, Control_c, 0, 64, 81
2, 131464, Note_on_c, 0, 53, 0
2, 131469, Control_c, 0, 64, 86
2, 131488, Control_c, 0, 64, 87
2, 131507, Control_c, 0, 64, 85
2, 131526, Control_c, 0, 64, 72
2, 131536, Note_on_c, 0, 52, 72
2, 131546, Control_c, 0, 64, 59
2, 131547, Note_on_c, 0, 73, 75
2, 131556, Note_on_c, 0, 46, 58
2, 131564, Control_c, 0, 64, 0
2, 131581, Note_on_c, 0, 65, 0
2, 131622, Control_c, 0, 64, 33
2, 131641, Control_c, 0, 64, 58
2, 131660, Control_c, 0, 64, 65
2, 131680, Control_c, 0, 64, 71
2, 131683, Note_on_c, 0, 70, 79
2, 131696, Note_on_c, 0, 52, 0
2, 131698, Control_c, 0, 64, 82
2, 131718, Control_c, 0, 64, 102
2, 131737, Control_c, 0, 64, 127
2, 131738, Note_on_c, 0, 46, 0
2, 131738, Note_on_c, 0, 73, 0
2, 131795, Control_c, 0, 64, 78
2, 131808, Note_on_c, 0, 70, 0
2, 131814, Control_c, 0, 64, 44
2, 131834, Control_c, 0, 64, 0
2, 131849, Note_on_c, 0, 72, 81
2, 131853, Note_on_c, 0, 53, 73
2, 131859, Note_on_c, 0, 44, 67
2, 131891, Control_c, 0, 64, 54
2, 131904, Note_on_c, 0, 53, 0
2, 131910, Control_c, 0, 64, 65
2, 131911, Note_on_c, 0, 44, 0
2, 131931, Control_c, 0, 64, 72
2, 131951, Control_c, 0, 64, 92
2, 131959, Note_on_c, 0, 72, 0
2, 131969, Control_c, 0, 64, 127
2, 131991, Note_on_c, 0, 68, 85
2, 132068, Note_on_c, 0, 68, 0
2, 132147, Note_on_c, 0, 58, 69
2, 132152, Note_on_c, 0, 78, 85
2, 132159, Control_c, 0, 64, 87
2, 132166, Note_on_c, 0, 49, 65
2, 132178, Control_c, 0, 64, 64
2, 132197, Control_c, 0, 64, 0
2, 132254, Control_c, 0, 64, 39
2, 132274, Control_c, 0, 64, 62
2, 132281, Note_on_c, 0, 78, 0
2, 132293, Control_c, 0, 64, 69
2, 132313, Control_c, 0, 64, 80
2, 132319, Note_on_c, 0, 76, 84
2, 132331, Control_c, 0, 64, 104
2, 132347, Note_on_c, 0, 49, 0
2, 132349, Note_on_c, 0, 58, 0
2, 132351, Control_c, 0, 64, 127
2, 132401, Note_on_c, 0, 76, 0
2, 132516, Note_on_c, 0, 76, 84
2, 132521, Note_on_c, 0, 56, 65
2, 132529, Note_on_c, 0, 48, 55
2, 132600, Control_c, 0, 64, 88
2, 132619, Control_c, 0, 64, 69
2, 132639, Control_c, 0, 64, 45
2, 132658, Control_c, 0, 64, 0
2, 132707, Note_on_c, 0, 77, 79
2, 132762, Note_on_c, 0, 76, 0
2, 132826, Note_on_c, 0, 55, 65
2, 132850, Note_on_c, 0, 77, 0
2, 132851, Note_on_c, 0, 56, 0
2, 132853, Note_on_c, 0, 83, 79
2, 132977, Note_on_c, 0, 55, 0
2, 132978, Note_on_c, 0, 84, 79
2, 132986, Note_on_c, 0, 83, 0
2, 132989, Note_on_c, 0, 53, 62
2, 133046, Note_on_c, 0, 84, 0
2, 133091, Note_on_c, 0, 53, 0
2, 133105, Note_on_c, 0, 77, 70
2, 133147, Note_on_c, 0, 55, 51
2, 133153, Note_on_c, 0, 77, 0
2, 133164, Note_on_c, 0, 76, 72
2, 133217, Note_on_c, 0, 76, 0
2, 133230, Note_on_c, 0, 77, 75
2, 133295, Note_on_c, 0, 77, 0
2, 133305, Note_on_c, 0, 76, 70
2, 133422, Note_on_c, 0, 55, 0
2, 133427, Control_c, 0, 64, 42
2, 133446, Control_c, 0, 64, 60
2, 133447, Note_on_c, 0, 58, 44
2, 133466, Control_c, 0, 64, 65
2, 133484, Control_c, 0, 64, 69
2, 133503, Control_c, 0, 64, 75
2, 133519, Note_on_c, 0, 48, 0
2, 133523, Control_c, 0, 64, 86
2, 133542, Control_c, 0, 64, 99
2, 133561, Control_c, 0, 64, 119
2, 133576, Note_on_c, 0, 76, 0
2, 133580, Control_c, 0, 64, 127
2, 133614, Note_on_c, 0, 58, 0
2, 133630, Note_on_c, 0, 77, 70
2, 133699, Note_on_c, 0, 77, 0
2, 133811, Control_c, 0, 64, 113
2, 133830, Control_c, 0, 64, 104
2, 133844, Control_c, 0, 64, 94
2, 133852, Note_on_c, 0, 53, 49
2, 133855, Note_on_c, 0, 56, 52
2, 133855, Note_on_c, 0, 77, 60
2, 133863, Control_c, 0, 64, 82
2, 133883, Control_c, 0, 64, 72
2, 133901, Control_c, 0, 64, 64
2, 133920, Control_c, 0, 64, 53
2, 133940, Control_c, 0, 64, 19
2, 133958, Control_c, 0, 64, 0
2, 134028, Note_on_c, 0, 58, 57
2, 134127, Note_on_c, 0, 56, 0
2, 134172, Note_on_c, 0, 58, 0
2, 134191, Note_on_c, 0, 60, 63
2, 134255, Note_on_c, 0, 53, 0
2, 134333, Note_on_c, 0, 56, 58
2, 134357, Note_on_c, 0, 77, 0
2, 134422, Note_on_c, 0, 60, 0
2, 134473, Note_on_c, 0, 56, 0
2, 134513, Note_on_c, 0, 53, 54
2, 134631, Note_on_c, 0, 53, 0
2, 134646, Note_on_c, 0, 54, 58
2, 134740, Note_on_c, 0, 54, 0
2, 134806, Note_on_c, 0, 56, 50
2, 134812, Note_on_c, 0, 77, 68
2, 134871, Note_on_c, 0, 77, 0
2, 134913, Note_on_c, 0, 56, 0
2, 134949, Note_on_c, 0, 53, 51
2, 135059, Note_on_c, 0, 53, 0
2, 135115, Note_on_c, 0, 50, 53
2, 135131, Note_on_c, 0, 71, 58
2, 135249, Note_on_c, 0, 50, 0
2, 135257, Note_on_c, 0, 51, 55
2, 135262, Note_on_c, 0, 70, 68
2, 135278, Note_on_c, 0, 71, 0
2, 135368, Note_on_c, 0, 51, 0
2, 135408, Note_on_c, 0, 70, 0
2, 135426, Note_on_c, 0, 53, 52
2, 135444, Note_on_c, 0, 68, 67
2, 135572, Note_on_c, 0, 53, 0
2, 135574, Note_on_c, 0, 68, 0
2, 135583, Note_on_c, 0, 70, 68
2, 135594, Note_on_c, 0, 50, 48
2, 135698, Note_on_c, 0, 50, 0
2, 135701, Note_on_c, 0, 70, 0
2, 135747, Note_on_c, 0, 77, 69
2, 135756, Note_on_c, 0, 46, 46
2, 135786, Note_on_c, 0, 77, 0
2, 135836, Note_on_c, 0, 46, 0
2, 135895, Note_on_c, 0, 50, 42
2, 136055, Note_on_c, 0, 50, 0
2, 136060, Note_on_c, 0, 74, 60
2, 136084, Note_on_c, 0, 53, 47
2, 136097, Note_on_c, 0, 74, 0
2, 136172, Note_on_c, 0, 53, 0
2, 136203, Note_on_c, 0, 56, 58
2, 136306, Note_on_c, 0, 56, 0
2, 136372, Note_on_c, 0, 51, 51
2, 136376, Note_on_c, 0, 68, 63
2, 136508, Note_on_c, 0, 51, 0
2, 136528, Note_on_c, 0, 54, 59
2, 136691, Note_on_c, 0, 58, 58
2, 136702, Note_on_c, 0, 66, 68
2, 136728, Note_on_c, 0, 54, 0
2, 136771, Note_on_c, 0, 68, 0
2, 136795, Note_on_c, 0, 58, 0
2, 136819, Note_on_c, 0, 66, 0
2, 136828, Note_on_c, 0, 65, 72
2, 136832, Note_on_c, 0, 62, 57
2, 136973, Note_on_c, 0, 65, 0
2, 136995, Note_on_c, 0, 66, 70
2, 137013, Note_on_c, 0, 62, 0
2, 137033, Note_on_c, 0, 63, 53
2, 137037, Note_on_c, 0, 66, 0
2, 137155, Note_on_c, 0, 65, 54
2, 137165, Note_on_c, 0, 63, 0
2, 137301, Note_on_c, 0, 65, 0
2, 137318, Note_on_c, 0, 75, 69
2, 137325, Note_on_c, 0, 66, 65
2, 137383, Note_on_c, 0, 75, 0
2, 137460, Note_on_c, 0, 63, 60
2, 137471, Note_on_c, 0, 66, 0
2, 137590, Note_on_c, 0, 63, 0
2, 137630, Note_on_c, 0, 69, 68
2, 137648, Note_on_c, 0, 60, 51
2, 137758, Note_on_c, 0, 60, 0
2, 137758, Note_on_c, 0, 69, 0
2, 137764, Note_on_c, 0, 68, 70
2, 137778, Note_on_c, 0, 61, 58
2, 137868, Note_on_c, 0, 61, 0
2, 137917, Note_on_c, 0, 68, 0
2, 137933, Note_on_c, 0, 63, 57
2, 137935, Note_on_c, 0, 66, 71
2, 138025, Note_on_c, 0, 63, 0
2, 138062, Note_on_c, 0, 66, 0
2, 138065, Note_on_c, 0, 68, 78
2, 138084, Note_on_c, 0, 60, 62
2, 138120, Note_on_c, 0, 60, 0
2, 138207, Note_on_c, 0, 68, 0
2, 138236, Note_on_c, 0, 75, 80
2, 138238, Note_on_c, 0, 56, 69
2, 138314, Note_on_c, 0, 75, 0
2, 138394, Note_on_c, 0, 44, 62
2, 138536, Note_on_c, 0, 72, 75
2, 138546, Note_on_c, 0, 46, 56
2, 138568, Control_c, 0, 64, 9
2, 138587, Control_c, 0, 64, 57
2, 138607, Control_c, 0, 64, 67
2, 138608, Note_on_c, 0, 72, 0
2, 138625, Control_c, 0, 64, 77
2, 138636, Note_on_c, 0, 44, 0
2, 138645, Control_c, 0, 64, 104
2, 138664, Control_c, 0, 64, 127
2, 138686, Note_on_c, 0, 48, 67
2, 138728, Note_on_c, 0, 46, 0
2, 138749, Note_on_c, 0, 48, 0
2, 138779, Control_c, 0, 64, 103
2, 138798, Control_c, 0, 64, 78
2, 138818, Control_c, 0, 64, 62
2, 138820, Note_on_c, 0, 56, 0
2, 138831, Note_on_c, 0, 66, 73
2, 138836, Control_c, 0, 64, 0
2, 138856, Note_on_c, 0, 49, 73
2, 138999, Note_on_c, 0, 56, 64
2, 139160, Note_on_c, 0, 65, 80
2, 139166, Note_on_c, 0, 58, 66
2, 139191, Note_on_c, 0, 66, 0
2, 139221, Control_c, 0, 64, 27
2, 139239, Control_c, 0, 64, 54
2, 139246, Note_on_c, 0, 56, 0
2, 139259, Control_c, 0, 64, 61
2, 139262, Note_on_c, 0, 49, 0
2, 139278, Control_c, 0, 64, 64
2, 139293, Note_on_c, 0, 58, 0
2, 139298, Control_c, 0, 64, 65
2, 139298, Note_on_c, 0, 63, 78
2, 139302, Note_on_c, 0, 60, 68
2, 139316, Control_c, 0, 64, 66
2, 139335, Note_on_c, 0, 65, 0
2, 139336, Control_c, 0, 64, 67
2, 139374, Control_c, 0, 64, 66
2, 139393, Control_c, 0, 64, 65
2, 139413, Control_c, 0, 64, 62
2, 139422, Note_on_c, 0, 63, 0
2, 139432, Control_c, 0, 64, 56
2, 139451, Control_c, 0, 64, 42
2, 139462, Note_on_c, 0, 65, 82
2, 139464, Note_on_c, 0, 61, 75
2, 139470, Control_c, 0, 64, 0
2, 139480, Note_on_c, 0, 60, 0
2, 139544, Note_on_c, 0, 61, 0
2, 139614, Note_on_c, 0, 68, 84
2, 139633, Note_on_c, 0, 49, 81
2, 139652, Note_on_c, 0, 65, 0
2, 139759, Note_on_c, 0, 49, 0
2, 139775, Note_on_c, 0, 73, 85
2, 139778, Note_on_c, 0, 68, 0
2, 139788, Note_on_c, 0, 53, 75
2, 139912, Note_on_c, 0, 53, 0
2, 139920, Note_on_c, 0, 75, 84
2, 139926, Note_on_c, 0, 55, 83
2, 139944, Note_on_c, 0, 73, 0
2, 140045, Note_on_c, 0, 75, 0
2, 140073, Note_on_c, 0, 77, 83
2, 140076, Note_on_c, 0, 56, 87
2, 140096, Note_on_c, 0, 55, 0
2, 140181, Note_on_c, 0, 56, 0
2, 140218, Note_on_c, 0, 75, 84
2, 140225, Note_on_c, 0, 55, 85
2, 140258, Note_on_c, 0, 77, 0
2, 140376, Note_on_c, 0, 53, 78
2, 140378, Note_on_c, 0, 73, 85
2, 140397, Note_on_c, 0, 55, 0
2, 140412, Control_c, 0, 64, 54
2, 140424, Note_on_c, 0, 75, 0
2, 140431, Control_c, 0, 64, 63
2, 140451, Control_c, 0, 64, 65
2, 140469, Control_c, 0, 64, 67
2, 140477, Note_on_c, 0, 73, 0
2, 140489, Control_c, 0, 64, 69
2, 140508, Control_c, 0, 64, 71
2, 140513, Note_on_c, 0, 53, 0
2, 140513, Note_on_c, 0, 75, 85
2, 140523, Note_on_c, 0, 55, 81
2, 140528, Control_c, 0, 64, 73
2, 140546, Control_c, 0, 64, 74
2, 140588, Note_on_c, 0, 75, 0
2, 140591, Control_c, 0, 64, 73
2, 140611, Control_c, 0, 64, 70
2, 140630, Control_c, 0, 64, 65
2, 140649, Control_c, 0, 64, 54
2, 140668, Control_c, 0, 64, 0
2, 140683, Note_on_c, 0, 56, 80
2, 140691, Note_on_c, 0, 72, 96
2, 140695, Note_on_c, 0, 84, 81
2, 140701, Note_on_c, 0, 55, 0
2, 140712, Note_on_c, 0, 86, 80
2, 140725, Note_on_c, 0, 86, 0
2, 140790, Note_on_c, 0, 56, 0
2, 140832, Note_on_c, 0, 55, 81
2, 140999, Note_on_c, 0, 80, 91
2, 141004, Note_on_c, 0, 53, 73
2, 141029, Note_on_c, 0, 84, 0
2, 141050, Note_on_c, 0, 55, 0
2, 141097, Note_on_c, 0, 80, 0
2, 141146, Note_on_c, 0, 53, 0
2, 141151, Note_on_c, 0, 51, 69
2, 141335, Note_on_c, 0, 51, 0
2, 141353, Note_on_c, 0, 75, 82
2, 141361, Note_on_c, 0, 53, 77
2, 141602, Note_on_c, 0, 72, 0
2, 141701, Control_c, 0, 64, 55
2, 141701, Note_on_c, 0, 73, 76
2, 141719, Control_c, 0, 64, 65
2, 141738, Control_c, 0, 64, 71
2, 141757, Control_c, 0, 64, 83
2, 141776, Control_c, 0, 64, 115
2, 141777, Note_on_c, 0, 75, 0
2, 141795, Control_c, 0, 64, 127
2, 141838, Note_on_c, 0, 72, 77
2, 141841, Note_on_c, 0, 73, 0
2, 141906, Note_on_c, 0, 72, 0
2, 141949, Control_c, 0, 64, 96
2, 141968, Control_c, 0, 64, 72
2, 141987, Control_c, 0, 64, 46
2, 142005, Note_on_c, 0, 73, 78
2, 142006, Control_c, 0, 64, 0
2, 142010, Note_on_c, 0, 70, 82
2, 142149, Note_on_c, 0, 51, 71
2, 142223, Note_on_c, 0, 53, 0
2, 142307, Note_on_c, 0, 82, 80
2, 142315, Note_on_c, 0, 73, 0
2, 142316, Note_on_c, 0, 49, 73
2, 142337, Note_on_c, 0, 51, 0
2, 142445, Note_on_c, 0, 49, 0
2, 142472, Note_on_c, 0, 53, 75
2, 142508, Note_on_c, 0, 82, 0
2, 142627, Note_on_c, 0, 72, 83
2, 142630, Note_on_c, 0, 53, 0
2, 142631, Note_on_c, 0, 51, 64
2, 142644, Note_on_c, 0, 70, 0
2, 142771, Note_on_c, 0, 49, 64
2, 142825, Note_on_c, 0, 51, 0
2, 142864, Note_on_c, 0, 72, 0
2, 142895, Note_on_c, 0, 49, 0
2, 142946, Note_on_c, 0, 80, 73
2, 142952, Note_on_c, 0, 68, 72
2, 142957, Note_on_c, 0, 48, 55
2, 143101, Note_on_c, 0, 80, 0
2, 143108, Note_on_c, 0, 51, 60
2, 143112, Note_on_c, 0, 48, 0
2, 143125, Note_on_c, 0, 68, 0
2, 143276, Note_on_c, 0, 70, 74
2, 143279, Note_on_c, 0, 49, 56
2, 143288, Note_on_c, 0, 67, 58
2, 143296, Note_on_c, 0, 51, 0
2, 143408, Note_on_c, 0, 49, 0
2, 143434, Note_on_c, 0, 67, 0
2, 143445, Note_on_c, 0, 48, 54
2, 143526, Note_on_c, 0, 70, 0
2, 143551, Note_on_c, 0, 48, 0
2, 143599, Control_c, 0, 64, 22
2, 143600, Note_on_c, 0, 49, 47
2, 143602, Note_on_c, 0, 79, 68
2, 143619, Control_c, 0, 64, 58
2, 143619, Note_on_c, 0, 67, 50
2, 143637, Control_c, 0, 64, 66
2, 143640, Note_on_c, 0, 79, 0
2, 143656, Control_c, 0, 64, 72
2, 143675, Control_c, 0, 64, 82
2, 143685, Note_on_c, 0, 67, 0
2, 143695, Control_c, 0, 64, 92
2, 143713, Control_c, 0, 64, 98
2, 143732, Control_c, 0, 64, 99
2, 143746, Note_on_c, 0, 49, 0
2, 143768, Note_on_c, 0, 46, 50
2, 143770, Control_c, 0, 64, 98
2, 143790, Control_c, 0, 64, 96
2, 143809, Control_c, 0, 64, 93
2, 143829, Control_c, 0, 64, 89
2, 143837, Note_on_c, 0, 46, 0
2, 143847, Control_c, 0, 64, 82
2, 143867, Control_c, 0, 64, 75
2, 143867, Control_c, 0, 67, 8
2, 143886, Control_c, 0, 64, 69
2, 143886, Control_c, 0, 67, 10
2, 143906, Control_c, 0, 64, 61
2, 143906, Control_c, 0, 67, 12
2, 143924, Control_c, 0, 64, 47
2, 143924, Control_c, 0, 67, 14
2, 143937, Note_on_c, 0, 68, 63
2, 143944, Control_c, 0, 64, 0
2, 143944, Control_c, 0, 67, 15
2, 143949, Note_on_c, 0, 48, 45
2, 143963, Control_c, 0, 67, 17
2, 143982, Control_c, 0, 67, 18
2, 144001, Control_c, 0, 67, 20
2, 144021, Control_c, 0, 67, 22
2, 144036, Note_on_c, 0, 48, 0
2, 144040, Control_c, 0, 67, 25
2, 144059, Control_c, 0, 67, 28
2, 144078, Control_c, 0, 67, 30
2, 144098, Control_c, 0, 67, 33
2, 144099, Note_on_c, 0, 63, 56
2, 144116, Control_c, 0, 67, 36
2, 144136, Control_c, 0, 67, 38
2, 144155, Control_c, 0, 67, 41
2, 144158, Note_on_c, 0, 68, 0
2, 144175, Control_c, 0, 67, 43
2, 144193, Control_c, 0, 67, 45
2, 144212, Control_c, 0, 67, 48
2, 144218, Note_on_c, 0, 63, 0
2, 144232, Control_c, 0, 67, 52
2, 144237, Note_on_c, 0, 51, 53
2, 144250, Control_c, 0, 67, 56
2, 144265, Note_on_c, 0, 65, 56
2, 144270, Control_c, 0, 67, 61
2, 144278, Note_on_c, 0, 51, 0
2, 144289, Control_c, 0, 67, 65
2, 144309, Control_c, 0, 67, 68
2, 144327, Control_c, 0, 67, 71
2, 144347, Control_c, 0, 67, 73
2, 144366, Control_c, 0, 67, 75
2, 144386, Control_c, 0, 67, 78
2, 144407, Note_on_c, 0, 66, 55
2, 144408, Control_c, 0, 67, 81
2, 144428, Control_c, 0, 67, 82
2, 144439, Note_on_c, 0, 65, 0
2, 144446, Control_c, 0, 67, 84
2, 144466, Control_c, 0, 67, 85
2, 144485, Control_c, 0, 67, 88
2, 144505, Control_c, 0, 67, 90
2, 144523, Control_c, 0, 67, 92
2, 144543, Control_c, 0, 67, 92
2, 144551, Note_on_c, 0, 66, 0
2, 144562, Control_c, 0, 67, 93
2, 144575, Note_on_c, 0, 68, 53
2, 144581, Control_c, 0, 67, 93
2, 144592, Note_on_c, 0, 54, 53
2, 144600, Control_c, 0, 67, 94
2, 144615, Control_c, 0, 67, 94
2, 144634, Control_c, 0, 67, 96
2, 144653, Control_c, 0, 67, 98
2, 144672, Control_c, 0, 67, 102
2, 144691, Control_c, 0, 67, 105
2, 144705, Note_on_c, 0, 68, 0
2, 144711, Control_c, 0, 67, 108
2, 144730, Control_c, 0, 67, 111
2, 144736, Note_on_c, 0, 70, 47
2, 144749, Control_c, 0, 67, 114
2, 144768, Control_c, 0, 67, 116
2, 144788, Control_c, 0, 67, 118
2, 144806, Control_c, 0, 67, 120
2, 144826, Control_c, 0, 67, 123
2, 144845, Control_c, 0, 67, 125
2, 144865, Control_c, 0, 67, 126
2, 144881, Note_on_c, 0, 70, 0
2, 144883, Control_c, 0, 67, 127
2, 144914, Note_on_c, 0, 72, 54
2, 144916, Note_on_c, 0, 56, 59
2, 144941, Control_c, 0, 67, 127
2, 144960, Control_c, 0, 64, 43
2, 144980, Control_c, 0, 64, 59
2, 144999, Control_c, 0, 64, 64
2, 145005, Note_on_c, 0, 72, 0
2, 145018, Control_c, 0, 64, 66
2, 145037, Control_c, 0, 64, 67
2, 145057, Control_c, 0, 64, 69
2, 145076, Control_c, 0, 64, 71
2, 145084, Note_on_c, 0, 68, 50
2, 145095, Control_c, 0, 64, 73
2, 145133, Control_c, 0, 64, 73
2, 145152, Control_c, 0, 64, 71
2, 145171, Control_c, 0, 64, 70
2, 145182, Note_on_c, 0, 68, 0
2, 145191, Control_c, 0, 64, 67
2, 145210, Control_c, 0, 64, 64
2, 145226, Note_on_c, 0, 58, 67
2, 145229, Control_c, 0, 64, 60
2, 145235, Note_on_c, 0, 73, 62
2, 145248, Control_c, 0, 64, 53
2, 145264, Note_on_c, 0, 56, 0
2, 145268, Control_c, 0, 64, 45
2, 145286, Control_c, 0, 64, 31
2, 145306, Control_c, 0, 64, 19
2, 145325, Control_c, 0, 64, 0
2, 145389, Note_on_c, 0, 56, 77
2, 145391, Note_on_c, 0, 72, 61
2, 145451, Note_on_c, 0, 73, 0
2, 145452, Note_on_c, 0, 54, 0
2, 145463, Note_on_c, 0, 58, 0
2, 145540, Note_on_c, 0, 72, 0
2, 145552, Note_on_c, 0, 54, 76
2, 145554, Note_on_c, 0, 56, 0
2, 145563, Note_on_c, 0, 70, 61
2, 145691, Note_on_c, 0, 70, 0
2, 145705, Note_on_c, 0, 56, 67
2, 145715, Note_on_c, 0, 72, 60
2, 145771, Note_on_c, 0, 54, 0
2, 145828, Note_on_c, 0, 56, 0
2, 145858, Note_on_c, 0, 72, 0
2, 145864, Note_on_c, 0, 53, 52
2, 145868, Note_on_c, 0, 65, 63
2, 145885, Note_on_c, 0, 73, 61
2, 146037, Note_on_c, 0, 72, 51
2, 146040, Note_on_c, 0, 73, 0
2, 146066, Note_on_c, 0, 65, 0
2, 146181, Note_on_c, 0, 72, 0
2, 146191, Note_on_c, 0, 61, 70
2, 146223, Note_on_c, 0, 70, 59
2, 146346, Note_on_c, 0, 61, 0
2, 146368, Note_on_c, 0, 68, 53
2, 146370, Note_on_c, 0, 70, 0
2, 146542, Note_on_c, 0, 56, 69
2, 146549, Note_on_c, 0, 68, 0
2, 146552, Note_on_c, 0, 70, 53
2, 146849, Note_on_c, 0, 53, 0
2, 146873, Note_on_c, 0, 54, 65
2, 146940, Control_c, 0, 64, 22
2, 146959, Control_c, 0, 64, 59
2, 146977, Note_on_c, 0, 56, 0
2, 146979, Control_c, 0, 64, 66
2, 146997, Control_c, 0, 64, 73
2, 147017, Control_c, 0, 64, 87
2, 147023, Note_on_c, 0, 53, 69
2, 147036, Control_c, 0, 64, 127
2, 147074, Note_on_c, 0, 54, 0
2, 147097, Note_on_c, 0, 53, 0
2, 147170, Control_c, 0, 64, 104
2, 147190, Control_c, 0, 64, 82
2, 147200, Note_on_c, 0, 51, 59
2, 147208, Control_c, 0, 64, 66
2, 147208, Note_on_c, 0, 54, 60
2, 147228, Control_c, 0, 64, 51
2, 147247, Control_c, 0, 64, 0
2, 147368, Note_on_c, 0, 68, 57
2, 147439, Note_on_c, 0, 54, 0
2, 147472, Note_on_c, 0, 70, 0
2, 147505, Note_on_c, 0, 63, 73
2, 147537, Note_on_c, 0, 68, 0
2, 147551, Note_on_c, 0, 66, 53
2, 147680, Note_on_c, 0, 66, 0
2, 147692, Note_on_c, 0, 63, 0
2, 147702, Note_on_c, 0, 70, 54
2, 147836, Note_on_c, 0, 51, 0
2, 147846, Note_on_c, 0, 53, 67
2, 147864, Note_on_c, 0, 68, 54
2, 147916, Note_on_c, 0, 70, 0
2, 147997, Note_on_c, 0, 53, 0
2, 148001, Note_on_c, 0, 66, 48
2, 148096, Note_on_c, 0, 68, 0
2, 148137, Note_on_c, 0, 66, 0
2, 148183, Note_on_c, 0, 61, 64
2, 148189, Note_on_c, 0, 49, 59
2, 148208, Note_on_c, 0, 65, 47
2, 148323, Note_on_c, 0, 65, 0
2, 148336, Note_on_c, 0, 68, 58
2, 148341, Note_on_c, 0, 61, 0
2, 148446, Note_on_c, 0, 49, 0
2, 148487, Note_on_c, 0, 51, 61
2, 148519, Note_on_c, 0, 66, 52
2, 148594, Note_on_c, 0, 51, 0
2, 148605, Note_on_c, 0, 68, 0
2, 148632, Note_on_c, 0, 66, 0
2, 148656, Note_on_c, 0, 65, 51
2, 148784, Note_on_c, 0, 65, 0
2, 148810, Note_on_c, 0, 44, 47
2, 148818, Note_on_c, 0, 66, 52
2, 148827, Note_on_c, 0, 60, 53
2, 148915, Note_on_c, 0, 44, 0
2, 148938, Note_on_c, 0, 60, 0
2, 148981, Note_on_c, 0, 63, 57
2, 149056, Note_on_c, 0, 66, 0
2, 149097, Note_on_c, 0, 63, 0
2, 149155, Note_on_c, 0, 49, 52
2, 149160, Note_on_c, 0, 65, 57
2, 149308, Note_on_c, 0, 51, 49
2, 149321, Note_on_c, 0, 49, 0
2, 149404, Note_on_c, 0, 51, 0
2, 149462, Note_on_c, 0, 68, 66
2, 149470, Note_on_c, 0, 53, 48
2, 149490, Note_on_c, 0, 65, 0
2, 149588, Note_on_c, 0, 53, 0
2, 149621, Note_on_c, 0, 54, 53
2, 149741, Note_on_c, 0, 54, 0
2, 149792, Note_on_c, 0, 73, 66
2, 149796, Note_on_c, 0, 53, 52
2, 149805, Note_on_c, 0, 68, 0
2, 149839, Note_on_c, 0, 73, 0
2, 149925, Note_on_c, 0, 53, 0
2, 149936, Note_on_c, 0, 51, 49
2, 150099, Note_on_c, 0, 51, 0
2, 150101, Note_on_c, 0, 80, 76
2, 150116, Note_on_c, 0, 49, 53
2, 150227, Note_on_c, 0, 49, 0
2, 150242, Note_on_c, 0, 77, 64
2, 150266, Note_on_c, 0, 53, 51
2, 150275, Note_on_c, 0, 80, 0
2, 150372, Note_on_c, 0, 53, 0
2, 150414, Note_on_c, 0, 77, 0
2, 150425, Note_on_c, 0, 58, 51
2, 150426, Note_on_c, 0, 73, 65
2, 150469, Note_on_c, 0, 73, 0
2, 150551, Note_on_c, 0, 58, 0
2, 150568, Note_on_c, 0, 56, 60
2, 150685, Note_on_c, 0, 56, 0
2, 150713, Note_on_c, 0, 76, 74
2, 150720, Note_on_c, 0, 55, 62
2, 150819, Control_c, 0, 67, 127
2, 150837, Control_c, 0, 67, 123
2, 150850, Note_on_c, 0, 58, 63
2, 150857, Control_c, 0, 67, 118
2, 150857, Note_on_c, 0, 73, 79
2, 150858, Note_on_c, 0, 55, 0
2, 150876, Control_c, 0, 67, 111
2, 150895, Control_c, 0, 67, 103
2, 150902, Note_on_c, 0, 76, 0
2, 150914, Control_c, 0, 67, 87
2, 150933, Control_c, 0, 67, 65
2, 150953, Control_c, 0, 67, 36
2, 150971, Control_c, 0, 67, 0
2, 150989, Note_on_c, 0, 58, 0
2, 151008, Note_on_c, 0, 61, 70
2, 151027, Note_on_c, 0, 70, 81
2, 151046, Note_on_c, 0, 73, 0
2, 151090, Note_on_c, 0, 70, 0
2, 151095, Note_on_c, 0, 61, 0
2, 151162, Note_on_c, 0, 59, 82
2, 151290, Note_on_c, 0, 59, 0
2, 151319, Note_on_c, 0, 73, 84
2, 151324, Note_on_c, 0, 58, 74
2, 151457, Note_on_c, 0, 61, 76
2, 151466, Note_on_c, 0, 70, 92
2, 151524, Note_on_c, 0, 73, 0
2, 151527, Note_on_c, 0, 58, 0
2, 151661, Note_on_c, 0, 67, 81
2, 151677, Note_on_c, 0, 61, 0
2, 151690, Note_on_c, 0, 64, 72
2, 151690, Note_on_c, 0, 70, 0
2, 151994, Note_on_c, 0, 64, 0
2, 151994, Note_on_c, 0, 70, 87
2, 152006, Note_on_c, 0, 63, 68
2, 152031, Note_on_c, 0, 67, 0
2, 152141, Note_on_c, 0, 61, 67
2, 152143, Note_on_c, 0, 73, 85
2, 152149, Note_on_c, 0, 63, 0
2, 152190, Note_on_c, 0, 70, 0
2, 152261, Note_on_c, 0, 61, 0
2, 152290, Note_on_c, 0, 59, 76
2, 152307, Note_on_c, 0, 76, 84
2, 152353, Note_on_c, 0, 73, 0
2, 152443, Note_on_c, 0, 58, 63
2, 152468, Note_on_c, 0, 59, 0
2, 152605, Note_on_c, 0, 56, 67
2, 152621, Note_on_c, 0, 58, 0
2, 152622, Note_on_c, 0, 73, 71
2, 152669, Note_on_c, 0, 73, 0
2, 152714, Note_on_c, 0, 56, 0
2, 152763, Note_on_c, 0, 55, 61
2, 152917, Note_on_c, 0, 76, 0
2, 152918, Note_on_c, 0, 55, 0
2, 152921, Note_on_c, 0, 75, 77
2, 152932, Note_on_c, 0, 71, 63
2, 152947, Note_on_c, 0, 56, 66
2, 153043, Note_on_c, 0, 56, 0
2, 153085, Note_on_c, 0, 59, 67
2, 153211, Note_on_c, 0, 59, 0
2, 153224, Note_on_c, 0, 75, 0
2, 153235, Note_on_c, 0, 80, 87
2, 153267, Note_on_c, 0, 58, 53
2, 153400, Note_on_c, 0, 56, 64
2, 153405, Note_on_c, 0, 58, 0
2, 153520, Note_on_c, 0, 56, 0
2, 153573, Note_on_c, 0, 73, 65
2, 153577, Note_on_c, 0, 55, 53
2, 153586, Note_on_c, 0, 70, 62
2, 153671, Note_on_c, 0, 55, 0
2, 153715, Note_on_c, 0, 80, 0
2, 153721, Note_on_c, 0, 53, 51
2, 153763, Note_on_c, 0, 71, 0
2, 153863, Note_on_c, 0, 53, 0
2, 153873, Note_on_c, 0, 51, 51
2, 153888, Note_on_c, 0, 79, 73
2, 153962, Note_on_c, 0, 73, 0
2, 153984, Note_on_c, 0, 51, 0
2, 154023, Note_on_c, 0, 49, 52
2, 154135, Note_on_c, 0, 49, 0
2, 154140, Note_on_c, 0, 70, 0
2, 154195, Note_on_c, 0, 68, 68
2, 154196, Note_on_c, 0, 47, 48
2, 154202, Control_c, 0, 64, 37
2, 154219, Control_c, 0, 64, 63
2, 154229, Note_on_c, 0, 68, 0
2, 154239, Control_c, 0, 64, 72
2, 154246, Note_on_c, 0, 79, 0
2, 154258, Control_c, 0, 64, 91
2, 154277, Control_c, 0, 64, 127
2, 154303, Note_on_c, 0, 47, 0
2, 154322, Note_on_c, 0, 49, 54
2, 154424, Note_on_c, 0, 49, 0
2, 154491, Note_on_c, 0, 51, 50
2, 154514, Note_on_c, 0, 80, 69
2, 154545, Control_c, 0, 64, 103
2, 154565, Control_c, 0, 64, 87
2, 154584, Control_c, 0, 64, 74
2, 154587, Note_on_c, 0, 51, 0
2, 154604, Control_c, 0, 64, 64
2, 154622, Control_c, 0, 64, 49
2, 154640, Note_on_c, 0, 80, 0
2, 154642, Control_c, 0, 64, 0
2, 154651, Note_on_c, 0, 47, 49
2, 154659, Note_on_c, 0, 79, 62
2, 154769, Note_on_c, 0, 47, 0
2, 154810, Note_on_c, 0, 44, 53
2, 154820, Note_on_c, 0, 79, 0
2, 154833, Note_on_c, 0, 80, 63
2, 154854, Note_on_c, 0, 44, 0
2, 154977, Note_on_c, 0, 82, 67
2, 155004, Note_on_c, 0, 80, 0
2, 155094, Note_on_c, 0, 82, 0
2, 155132, Note_on_c, 0, 56, 51
2, 155134, Note_on_c, 0, 83, 67
2, 155201, Note_on_c, 0, 56, 0
2, 155271, Note_on_c, 0, 83, 0
2, 155273, Note_on_c, 0, 53, 47
2, 155281, Note_on_c, 0, 80, 64
2, 155384, Note_on_c, 0, 53, 0
2, 155426, Note_on_c, 0, 49, 52
2, 155430, Note_on_c, 0, 80, 0
2, 155446, Note_on_c, 0, 77, 62
2, 155476, Note_on_c, 0, 49, 0
2, 155591, Note_on_c, 0, 78, 63
2, 155595, Note_on_c, 0, 77, 0
2, 155747, Note_on_c, 0, 80, 67
2, 155760, Note_on_c, 0, 59, 59
2, 155805, Note_on_c, 0, 78, 0
2, 155832, Note_on_c, 0, 59, 0
2, 155890, Note_on_c, 0, 56, 58
2, 155890, Note_on_c, 0, 77, 64
2, 155910, Note_on_c, 0, 80, 0
2, 156029, Note_on_c, 0, 77, 0
2, 156047, Note_on_c, 0, 56, 0
2, 156050, Note_on_c, 0, 73, 69
2, 156052, Note_on_c, 0, 53, 61
2, 156089, Note_on_c, 0, 53, 0
2, 156189, Note_on_c, 0, 75, 75
2, 156228, Note_on_c, 0, 73, 0
2, 156342, Note_on_c, 0, 49, 69
2, 156361, Note_on_c, 0, 77, 71
2, 156374, Note_on_c, 0, 75, 0
2, 156476, Note_on_c, 0, 49, 0
2, 156487, Note_on_c, 0, 46, 63
2, 156498, Note_on_c, 0, 73, 75
2, 156600, Note_on_c, 0, 77, 0
2, 156633, Note_on_c, 0, 46, 0
2, 156650, Note_on_c, 0, 42, 75
2, 156673, Note_on_c, 0, 70, 76
2, 156675, Note_on_c, 0, 73, 0
2, 156710, Note_on_c, 0, 42, 0
2, 156815, Note_on_c, 0, 72, 77
2, 156851, Note_on_c, 0, 70, 0
2, 156973, Note_on_c, 0, 73, 80
2, 156980, Note_on_c, 0, 58, 69
2, 156981, Note_on_c, 0, 72, 0
2, 157060, Note_on_c, 0, 73, 0
2, 157103, Note_on_c, 0, 58, 0
2, 157103, Note_on_c, 0, 70, 82
2, 157108, Note_on_c, 0, 54, 65
2, 157279, Note_on_c, 0, 78, 76
2, 157284, Note_on_c, 0, 51, 58
2, 157306, Note_on_c, 0, 54, 0
2, 157343, Note_on_c, 0, 70, 0
2, 157347, Note_on_c, 0, 51, 0
2, 157416, Note_on_c, 0, 80, 81
2, 157501, Note_on_c, 0, 78, 0
2, 157571, Note_on_c, 0, 82, 79
2, 157591, Note_on_c, 0, 54, 61
2, 157646, Note_on_c, 0, 80, 0
2, 157654, Note_on_c, 0, 54, 0
2, 157716, Note_on_c, 0, 51, 54
2, 157718, Note_on_c, 0, 78, 74
2, 157755, Note_on_c, 0, 82, 0
2, 157871, Note_on_c, 0, 51, 0
2, 157871, Note_on_c, 0, 78, 0
2, 157879, Note_on_c, 0, 48, 52
2, 157885, Note_on_c, 0, 75, 70
2, 157925, Note_on_c, 0, 48, 0
2, 158036, Note_on_c, 0, 77, 63
2, 158040, Note_on_c, 0, 75, 0
2, 158171, Note_on_c, 0, 77, 0
2, 158182, Note_on_c, 0, 58, 51
2, 158188, Note_on_c, 0, 78, 69
2, 158266, Note_on_c, 0, 58, 0
2, 158327, Note_on_c, 0, 54, 51
2, 158338, Note_on_c, 0, 75, 69
2, 158379, Note_on_c, 0, 78, 0
2, 158484, Note_on_c, 0, 75, 0
2, 158493, Note_on_c, 0, 54, 0
2, 158500, Note_on_c, 0, 51, 51
2, 158507, Note_on_c, 0, 72, 66
2, 158542, Note_on_c, 0, 51, 0
2, 158641, Note_on_c, 0, 73, 66
2, 158658, Note_on_c, 0, 72, 0
2, 158803, Note_on_c, 0, 75, 70
2, 158809, Note_on_c, 0, 48, 61
2, 158882, Note_on_c, 0, 73, 0
2, 158939, Note_on_c, 0, 72, 70
2, 158948, Note_on_c, 0, 44, 56
2, 158965, Note_on_c, 0, 48, 0
2, 159005, Note_on_c, 0, 75, 0
2, 159090, Note_on_c, 0, 72, 0
2, 159102, Note_on_c, 0, 44, 0
2, 159105, Note_on_c, 0, 68, 79
2, 159116, Note_on_c, 0, 41, 72
2, 159170, Note_on_c, 0, 41, 0
2, 159256, Note_on_c, 0, 70, 77
2, 159302, Note_on_c, 0, 68, 0
2, 159411, Note_on_c, 0, 70, 0
2, 159422, Note_on_c, 0, 72, 79
2, 159437, Note_on_c, 0, 56, 76
2, 159516, Note_on_c, 0, 72, 0
2, 159528, Note_on_c, 0, 56, 0
2, 159562, Note_on_c, 0, 68, 80
2, 159565, Note_on_c, 0, 53, 74
2, 159679, Note_on_c, 0, 68, 0
2, 159716, Note_on_c, 0, 77, 75
2, 159717, Note_on_c, 0, 50, 68
2, 159755, Note_on_c, 0, 53, 0
2, 159793, Note_on_c, 0, 50, 0
2, 159861, Note_on_c, 0, 78, 82
2, 159903, Note_on_c, 0, 77, 0
2, 160008, Note_on_c, 0, 80, 79
2, 160025, Note_on_c, 0, 53, 64
2, 160127, Note_on_c, 0, 53, 0
2, 160154, Note_on_c, 0, 50, 62
2, 160160, Note_on_c, 0, 80, 0
2, 160163, Note_on_c, 0, 77, 76
2, 160299, Note_on_c, 0, 78, 0
2, 160324, Note_on_c, 0, 74, 76
2, 160326, Note_on_c, 0, 46, 60
2, 160334, Note_on_c, 0, 77, 0
2, 160346, Note_on_c, 0, 50, 0
2, 160456, Note_on_c, 0, 46, 0
2, 160485, Note_on_c, 0, 75, 79
2, 160548, Note_on_c, 0, 74, 0
2, 160628, Note_on_c, 0, 77, 73
2, 160634, Note_on_c, 0, 75, 0
2, 160640, Note_on_c, 0, 56, 75
2, 160718, Note_on_c, 0, 56, 0
2, 160767, Note_on_c, 0, 77, 0
2, 160770, Note_on_c, 0, 53, 64
2, 160772, Note_on_c, 0, 74, 76
2, 160903, Note_on_c, 0, 53, 0
2, 160916, Note_on_c, 0, 74, 0
2, 160934, Note_on_c, 0, 70, 78
2, 160935, Note_on_c, 0, 50, 61
2, 160973, Note_on_c, 0, 50, 0
2, 161077, Note_on_c, 0, 72, 68
2, 161119, Note_on_c, 0, 70, 0
2, 161214, Note_on_c, 0, 72, 0
2, 161220, Note_on_c, 0, 46, 57
2, 161223, Note_on_c, 0, 74, 64
2, 161328, Note_on_c, 0, 74, 0
2, 161339, Note_on_c, 0, 46, 0
2, 161368, Note_on_c, 0, 70, 71
2, 161374, Note_on_c, 0, 42, 48
2, 161516, Note_on_c, 0, 42, 0
2, 161530, Note_on_c, 0, 39, 59
2, 161532, Note_on_c, 0, 66, 67
2, 161557, Note_on_c, 0, 70, 0
2, 161589, Note_on_c, 0, 39, 0
2, 161704, Note_on_c, 0, 68, 70
2, 161712, Note_on_c, 0, 66, 0
2, 161855, Note_on_c, 0, 70, 68
2, 161876, Note_on_c, 0, 54, 45
2, 161878, Note_on_c, 0, 68, 0
2, 161936, Note_on_c, 0, 70, 0
2, 161994, Note_on_c, 0, 54, 0
2, 161998, Note_on_c, 0, 66, 57
2, 162000, Note_on_c, 0, 51, 50
2, 162147, Note_on_c, 0, 66, 0
2, 162152, Note_on_c, 0, 48, 49
2, 162166, Note_on_c, 0, 51, 0
2, 162179, Note_on_c, 0, 75, 61
2, 162214, Note_on_c, 0, 48, 0
2, 162322, Note_on_c, 0, 75, 0
2, 162325, Note_on_c, 0, 77, 61
2, 162464, Note_on_c, 0, 51, 51
2, 162476, Note_on_c, 0, 78, 70
2, 162536, Note_on_c, 0, 77, 0
2, 162540, Note_on_c, 0, 51, 0
2, 162606, Note_on_c, 0, 78, 0
2, 162616, Note_on_c, 0, 75, 69
2, 162628, Note_on_c, 0, 48, 40
2, 162742, Note_on_c, 0, 48, 0
2, 162766, Note_on_c, 0, 75, 0
2, 162775, Note_on_c, 0, 72, 60
2, 162779, Note_on_c, 0, 44, 49
2, 162824, Note_on_c, 0, 44, 0
2, 162930, Note_on_c, 0, 73, 63
2, 162944, Note_on_c, 0, 72, 0
2, 163086, Note_on_c, 0, 73, 0
2, 163086, Note_on_c, 0, 75, 62
2, 163097, Note_on_c, 0, 54, 47
2, 163165, Note_on_c, 0, 54, 0
2, 163229, Note_on_c, 0, 51, 42
2, 163246, Note_on_c, 0, 72, 62
2, 163306, Note_on_c, 0, 75, 0
2, 163363, Note_on_c, 0, 51, 0
2, 163371, Note_on_c, 0, 72, 0
2, 163387, Note_on_c, 0, 48, 49
2, 163395, Note_on_c, 0, 68, 64
2, 163429, Note_on_c, 0, 48, 0
2, 163509, Control_c, 0, 67, 9
2, 163527, Control_c, 0, 67, 12
2, 163547, Control_c, 0, 67, 14
2, 163556, Note_on_c, 0, 68, 0
2, 163556, Note_on_c, 0, 70, 64
2, 163566, Control_c, 0, 67, 17
2, 163586, Control_c, 0, 67, 22
2, 163604, Control_c, 0, 67, 28
2, 163624, Control_c, 0, 67, 34
2, 163643, Control_c, 0, 67, 40
2, 163662, Control_c, 0, 67, 45
2, 163681, Control_c, 0, 67, 50
2, 163701, Control_c, 0, 67, 55
2, 163715, Note_on_c, 0, 70, 0
2, 163720, Control_c, 0, 67, 61
2, 163727, Note_on_c, 0, 44, 44
2, 163736, Note_on_c, 0, 72, 64
2, 163739, Control_c, 0, 67, 67
2, 163758, Control_c, 0, 67, 72
2, 163777, Control_c, 0, 67, 79
2, 163796, Control_c, 0, 67, 84
2, 163815, Control_c, 0, 67, 89
2, 163835, Control_c, 0, 67, 93
2, 163854, Control_c, 0, 67, 96
2, 163873, Control_c, 0, 67, 99
2, 163874, Note_on_c, 0, 44, 0
2, 163892, Control_c, 0, 67, 101
2, 163895, Note_on_c, 0, 68, 60
2, 163895, Note_on_c, 0, 72, 0
2, 163912, Control_c, 0, 67, 105
2, 163916, Note_on_c, 0, 41, 46
2, 163931, Control_c, 0, 67, 107
2, 163950, Control_c, 0, 67, 109
2, 163969, Control_c, 0, 67, 112
2, 163989, Control_c, 0, 67, 115
2, 164007, Control_c, 0, 67, 117
2, 164027, Control_c, 0, 67, 120
2, 164046, Control_c, 0, 67, 123
2, 164059, Note_on_c, 0, 41, 0
2, 164066, Control_c, 0, 67, 125
2, 164084, Control_c, 0, 67, 126
2, 164103, Note_on_c, 0, 68, 0
2, 164104, Control_c, 0, 67, 127
2, 164123, Note_on_c, 0, 37, 39
2, 164132, Note_on_c, 0, 65, 48
2, 164161, Control_c, 0, 67, 127
2, 164309, Note_on_c, 0, 66, 55
2, 164344, Note_on_c, 0, 65, 0
2, 164464, Note_on_c, 0, 66, 0
2, 164470, Note_on_c, 0, 68, 60
2, 164612, Note_on_c, 0, 65, 53
2, 164640, Note_on_c, 0, 68, 0
2, 164748, Note_on_c, 0, 65, 0
2, 164766, Note_on_c, 0, 61, 55
2, 164906, Note_on_c, 0, 61, 0
2, 164915, Note_on_c, 0, 65, 55
2, 165063, Note_on_c, 0, 65, 0
2, 165065, Note_on_c, 0, 68, 64
2, 165145, Note_on_c, 0, 37, 0
2, 165223, Note_on_c, 0, 68, 0
2, 165229, Note_on_c, 0, 70, 62
2, 165381, Note_on_c, 0, 71, 66
2, 165432, Note_on_c, 0, 70, 0
2, 165536, Note_on_c, 0, 71, 0
2, 165540, Note_on_c, 0, 70, 63
2, 165655, Note_on_c, 0, 70, 0
2, 165701, Note_on_c, 0, 68, 79
2, 165704, Note_on_c, 0, 59, 64
2, 165836, Note_on_c, 0, 59, 0
2, 165846, Note_on_c, 0, 49, 53
2, 165851, Note_on_c, 0, 70, 72
2, 165853, Note_on_c, 0, 68, 0
2, 165986, Note_on_c, 0, 49, 0
2, 166000, Note_on_c, 0, 78, 74
2, 166006, Note_on_c, 0, 70, 0
2, 166009, Note_on_c, 0, 58, 55
2, 166042, Note_on_c, 0, 78, 0
2, 166113, Note_on_c, 0, 58, 0
2, 166157, Note_on_c, 0, 49, 55
2, 166311, Note_on_c, 0, 49, 0
2, 166313, Note_on_c, 0, 73, 65
2, 166337, Note_on_c, 0, 56, 53
2, 166352, Note_on_c, 0, 73, 0
2, 166411, Note_on_c, 0, 56, 0
2, 166478, Note_on_c, 0, 49, 56
2, 166631, Note_on_c, 0, 49, 0
2, 166640, Note_on_c, 0, 70, 63
2, 166646, Note_on_c, 0, 54, 53
2, 166799, Note_on_c, 0, 49, 53
2, 166800, Note_on_c, 0, 54, 0
2, 166933, Note_on_c, 0, 49, 0
2, 166952, Note_on_c, 0, 68, 61
2, 166961, Note_on_c, 0, 53, 55
2, 166984, Control_c, 0, 67, 127
2, 167015, Note_on_c, 0, 70, 0
2, 167073, Note_on_c, 0, 53, 0
2, 167096, Note_on_c, 0, 66, 60
2, 167096, Note_on_c, 0, 68, 0
2, 167108, Note_on_c, 0, 51, 46
2, 167190, Note_on_c, 0, 51, 0
2, 167233, Control_c, 0, 67, 126
2, 167268, Note_on_c, 0, 53, 51
2, 167274, Note_on_c, 0, 68, 65
2, 167283, Note_on_c, 0, 66, 0
2, 167304, Note_on_c, 0, 53, 0
2, 167413, Note_on_c, 0, 68, 0
2, 167420, Note_on_c, 0, 61, 61
2, 167521, Control_c, 0, 67, 127
2, 167549, Note_on_c, 0, 61, 0
2, 167575, Note_on_c, 0, 44, 60
2, 167585, Note_on_c, 0, 65, 60
2, 167636, Control_c, 0, 67, 126
2, 167640, Note_on_c, 0, 44, 0
2, 167655, Control_c, 0, 67, 126
2, 167694, Control_c, 0, 67, 125
2, 167717, Note_on_c, 0, 65, 0
2, 167724, Note_on_c, 0, 68, 69
2, 167732, Control_c, 0, 67, 125
2, 167847, Control_c, 0, 67, 125
2, 167885, Note_on_c, 0, 70, 70
2, 167890, Note_on_c, 0, 68, 0
2, 168001, Control_c, 0, 67, 126
2, 168027, Note_on_c, 0, 68, 69
2, 168040, Control_c, 0, 67, 127
2, 168069, Note_on_c, 0, 70, 0
2, 168097, Control_c, 0, 67, 127
2, 168157, Note_on_c, 0, 68, 0
2, 168189, Note_on_c, 0, 58, 72
2, 168202, Note_on_c, 0, 66, 61
2, 168344, Note_on_c, 0, 66, 0
2, 168347, Note_on_c, 0, 68, 59
2, 168348, Note_on_c, 0, 49, 53
2, 168421, Note_on_c, 0, 58, 0
2, 168479, Note_on_c, 0, 68, 0
2, 168496, Note_on_c, 0, 56, 65
2, 168497, Note_on_c, 0, 49, 0
2, 168511, Note_on_c, 0, 77, 60
2, 168559, Control_c, 0, 67, 127
2, 168581, Note_on_c, 0, 77, 0
2, 168650, Note_on_c, 0, 56, 0
2, 168669, Note_on_c, 0, 49, 56
2, 168731, Control_c, 0, 67, 127
2, 168808, Note_on_c, 0, 49, 0
2, 168817, Note_on_c, 0, 73, 62
2, 168831, Note_on_c, 0, 54, 58
2, 168908, Note_on_c, 0, 73, 0
2, 168976, Note_on_c, 0, 54, 0
2, 168983, Note_on_c, 0, 49, 52
2, 169115, Note_on_c, 0, 49, 0
2, 169138, Note_on_c, 0, 68, 65
2, 169151, Note_on_c, 0, 53, 52
2, 169291, Note_on_c, 0, 53, 0
2, 169316, Note_on_c, 0, 49, 44
2, 169467, Note_on_c, 0, 66, 58
2, 169468, Note_on_c, 0, 49, 0
2, 169487, Note_on_c, 0, 51, 51
2, 169503, Note_on_c, 0, 68, 0
2, 169571, Note_on_c, 0, 51, 0
2, 169606, Note_on_c, 0, 66, 0
2, 169639, Note_on_c, 0, 65, 49
2, 169657, Note_on_c, 0, 49, 41
2, 169748, Note_on_c, 0, 65, 0
2, 169774, Note_on_c, 0, 49, 0
2, 169795, Note_on_c, 0, 51, 52
2, 169797, Note_on_c, 0, 66, 49
2, 169837, Note_on_c, 0, 51, 0
2, 169919, Control_c, 0, 67, 127
2, 169946, Note_on_c, 0, 66, 0
2, 169957, Note_on_c, 0, 60, 53
2, 170112, Note_on_c, 0, 44, 54
2, 170135, Note_on_c, 0, 63, 61
2, 170137, Note_on_c, 0, 60, 0
2, 170171, Note_on_c, 0, 44, 0
2, 170265, Control_c, 0, 67, 126
2, 170277, Note_on_c, 0, 66, 60
2, 170279, Note_on_c, 0, 63, 0
2, 170426, Note_on_c, 0, 68, 67
2, 170429, Note_on_c, 0, 66, 0
2, 170457, Control_c, 0, 67, 126
2, 170496, Control_c, 0, 67, 125
2, 170553, Control_c, 0, 67, 125
2, 170572, Note_on_c, 0, 66, 66
2, 170618, Note_on_c, 0, 68, 0
2, 170668, Control_c, 0, 67, 124
2, 170687, Control_c, 0, 67, 124
2, 170707, Note_on_c, 0, 66, 0
2, 170725, Control_c, 0, 67, 123
2, 170731, Note_on_c, 0, 65, 68
2, 170744, Note_on_c, 0, 56, 71
2, 170861, Note_on_c, 0, 66, 72
2, 170879, Note_on_c, 0, 65, 0
2, 170893, Note_on_c, 0, 44, 54
2, 170898, Note_on_c, 0, 56, 0
2, 171043, Note_on_c, 0, 75, 73
2, 171052, Note_on_c, 0, 44, 0
2, 171052, Note_on_c, 0, 66, 0
2, 171053, Control_c, 0, 67, 123
2, 171054, Note_on_c, 0, 54, 72
2, 171091, Control_c, 0, 67, 122
2, 171110, Control_c, 0, 67, 122
2, 171129, Control_c, 0, 67, 121
2, 171130, Note_on_c, 0, 75, 0
2, 171148, Control_c, 0, 67, 121
2, 171187, Control_c, 0, 67, 120
2, 171201, Note_on_c, 0, 44, 60
2, 171225, Control_c, 0, 67, 120
2, 171232, Note_on_c, 0, 54, 0
2, 171349, Note_on_c, 0, 44, 0
2, 171364, Note_on_c, 0, 72, 70
2, 171365, Note_on_c, 0, 53, 69
2, 171443, Note_on_c, 0, 72, 0
2, 171495, Note_on_c, 0, 44, 62
2, 171537, Note_on_c, 0, 53, 0
2, 171670, Note_on_c, 0, 51, 56
2, 171670, Note_on_c, 0, 66, 64
2, 171672, Note_on_c, 0, 44, 0
2, 171819, Note_on_c, 0, 51, 0
2, 171835, Note_on_c, 0, 44, 51
2, 171985, Note_on_c, 0, 65, 63
2, 171997, Note_on_c, 0, 49, 54
2, 172003, Note_on_c, 0, 66, 0
2, 172031, Note_on_c, 0, 44, 0
2, 172071, Control_c, 0, 67, 119
2, 172127, Note_on_c, 0, 49, 0
2, 172132, Note_on_c, 0, 63, 67
2, 172135, Note_on_c, 0, 48, 58
2, 172135, Note_on_c, 0, 65, 0
2, 172273, Note_on_c, 0, 63, 0
2, 172284, Note_on_c, 0, 48, 0
2, 172284, Note_on_c, 0, 49, 63
2, 172301, Control_c, 0, 67, 119
2, 172301, Note_on_c, 0, 65, 67
2, 172320, Control_c, 0, 67, 118
2, 172358, Control_c, 0, 67, 117
2, 172378, Control_c, 0, 67, 116
2, 172397, Control_c, 0, 67, 116
2, 172417, Control_c, 0, 67, 115
2, 172433, Note_on_c, 0, 49, 0
2, 172435, Control_c, 0, 67, 113
2, 172452, Note_on_c, 0, 68, 74
2, 172455, Control_c, 0, 67, 111
2, 172457, Note_on_c, 0, 44, 57
2, 172458, Note_on_c, 0, 65, 0
2, 172474, Control_c, 0, 67, 109
2, 172494, Control_c, 0, 67, 102
2, 172512, Control_c, 0, 67, 91
2, 172532, Control_c, 0, 67, 76
2, 172551, Control_c, 0, 67, 58
2, 172570, Control_c, 0, 67, 37
2, 172589, Control_c, 0, 67, 12
2, 172609, Control_c, 0, 67, 0
2, 172611, Note_on_c, 0, 70, 81
2, 172623, Note_on_c, 0, 53, 73
2, 172632, Note_on_c, 0, 68, 0
2, 172687, Note_on_c, 0, 44, 0
2, 172701, Note_on_c, 0, 70, 0
2, 172753, Note_on_c, 0, 72, 82
2, 172761, Note_on_c, 0, 51, 72
2, 172778, Note_on_c, 0, 53, 0
2, 172884, Note_on_c, 0, 51, 0
2, 172911, Note_on_c, 0, 73, 81
2, 172913, Note_on_c, 0, 53, 79
2, 172955, Note_on_c, 0, 72, 0
2, 173000, Note_on_c, 0, 53, 0
2, 173061, Note_on_c, 0, 44, 74
2, 173066, Note_on_c, 0, 75, 86
2, 173083, Note_on_c, 0, 73, 0
2, 173206, Note_on_c, 0, 75, 0
2, 173216, Note_on_c, 0, 56, 84
2, 173219, Note_on_c, 0, 44, 0
2, 173222, Note_on_c, 0, 77, 83
2, 173323, Note_on_c, 0, 56, 0
2, 173352, Note_on_c, 0, 54, 79
2, 173355, Note_on_c, 0, 75, 86
2, 173373, Note_on_c, 0, 77, 0
2, 173377, Control_c, 0, 64, 17
2, 173395, Control_c, 0, 64, 41
2, 173414, Control_c, 0, 64, 50
2, 173433, Control_c, 0, 64, 54
2, 173453, Control_c, 0, 64, 56
2, 173465, Note_on_c, 0, 54, 0
2, 173471, Control_c, 0, 64, 57
2, 173486, Note_on_c, 0, 75, 0
2, 173491, Control_c, 0, 64, 57
2, 173510, Control_c, 0, 64, 53
2, 173516, Note_on_c, 0, 56, 85
2, 173521, Note_on_c, 0, 78, 83
2, 173528, Control_c, 0, 64, 32
2, 173548, Control_c, 0, 64, 0
2, 173661, Note_on_c, 0, 44, 74
2, 173664, Note_on_c, 0, 77, 84
2, 173682, Control_c, 0, 64, 13
2, 173686, Note_on_c, 0, 56, 0
2, 173702, Control_c, 0, 64, 60
2, 173721, Control_c, 0, 64, 67
2, 173740, Control_c, 0, 64, 74
2, 173749, Note_on_c, 0, 78, 0
2, 173759, Control_c, 0, 64, 90
2, 173773, Note_on_c, 0, 44, 0
2, 173779, Control_c, 0, 64, 127
2, 173803, Note_on_c, 0, 77, 0
2, 173823, Note_on_c, 0, 75, 90
2, 173826, Note_on_c, 0, 58, 84
2, 173888, Note_on_c, 0, 58, 0
2, 173950, Note_on_c, 0, 44, 78
2, 173962, Note_on_c, 0, 73, 87
2, 173990, Note_on_c, 0, 75, 0
2, 173999, Note_on_c, 0, 44, 0
2, 174022, Note_on_c, 0, 73, 0
2, 174143, Control_c, 0, 64, 89
2, 174145, Note_on_c, 0, 82, 86
2, 174150, Note_on_c, 0, 60, 83
2, 174161, Control_c, 0, 64, 67
2, 174181, Control_c, 0, 64, 0
2, 174248, Note_on_c, 0, 80, 77
2, 174280, Note_on_c, 0, 82, 0
2, 174300, Note_on_c, 0, 61, 77
2, 174320, Note_on_c, 0, 60, 0
2, 174335, Note_on_c, 0, 80, 0
2, 174336, Note_on_c, 0, 79, 79
2, 174425, Note_on_c, 0, 80, 86
2, 174427, Note_on_c, 0, 79, 0
2, 174431, Note_on_c, 0, 63, 81
2, 174439, Note_on_c, 0, 61, 0
2, 174495, Note_on_c, 0, 82, 82
2, 174499, Note_on_c, 0, 80, 0
2, 174555, Note_on_c, 0, 63, 0
2, 174561, Note_on_c, 0, 60, 79
2, 174561, Note_on_c, 0, 80, 75
2, 174565, Note_on_c, 0, 82, 0
2, 174644, Note_on_c, 0, 80, 0
2, 174659, Note_on_c, 0, 82, 53
2, 174665, Note_on_c, 0, 81, 70
2, 174699, Note_on_c, 0, 81, 0
2, 174710, Note_on_c, 0, 82, 0
2, 174718, Note_on_c, 0, 56, 77
2, 174718, Note_on_c, 0, 60, 0
2, 174718, Note_on_c, 0, 80, 76
2, 174777, Note_on_c, 0, 80, 0
2, 174798, Note_on_c, 0, 82, 81
2, 174854, Note_on_c, 0, 60, 74
2, 174862, Note_on_c, 0, 82, 0
2, 174866, Note_on_c, 0, 80, 83
2, 174918, Note_on_c, 0, 56, 0
2, 174932, Note_on_c, 0, 80, 0
2, 174935, Note_on_c, 0, 82, 76
2, 174988, Note_on_c, 0, 82, 0
2, 174992, Note_on_c, 0, 63, 78
2, 175001, Note_on_c, 0, 80, 77
2, 175046, Note_on_c, 0, 60, 0
2, 175066, Note_on_c, 0, 80, 0
2, 175067, Note_on_c, 0, 82, 80
2, 175116, Note_on_c, 0, 82, 0
2, 175117, Note_on_c, 0, 63, 0
2, 175130, Note_on_c, 0, 65, 74
2, 175131, Note_on_c, 0, 80, 75
2, 175196, Note_on_c, 0, 80, 0
2, 175199, Note_on_c, 0, 82, 78
2, 175253, Note_on_c, 0, 82, 0
2, 175257, Control_c, 0, 64, 52
2, 175262, Note_on_c, 0, 80, 77
2, 175275, Note_on_c, 0, 66, 82
2, 175277, Control_c, 0, 64, 68
2, 175296, Control_c, 0, 64, 79
2, 175306, Note_on_c, 0, 65, 0
2, 175316, Control_c, 0, 64, 112
2, 175331, Note_on_c, 0, 80, 0
2, 175334, Control_c, 0, 64, 127
2, 175411, Control_c, 0, 64, 91
2, 175427, Note_on_c, 0, 65, 82
2, 175427, Note_on_c, 0, 80, 84
2, 175431, Control_c, 0, 64, 71
2, 175450, Control_c, 0, 64, 57
2, 175469, Control_c, 0, 64, 0
2, 175524, Note_on_c, 0, 66, 0
2, 175551, Note_on_c, 0, 65, 0
2, 175571, Note_on_c, 0, 63, 79
2, 175602, Note_on_c, 0, 78, 78
2, 175622, Note_on_c, 0, 80, 0
2, 175674, Note_on_c, 0, 63, 0
2, 175705, Note_on_c, 0, 78, 0
2, 175721, Note_on_c, 0, 65, 76
2, 175741, Note_on_c, 0, 80, 80
2, 175848, Note_on_c, 0, 65, 0
2, 175888, Note_on_c, 0, 80, 0
2, 175893, Note_on_c, 0, 73, 87
2, 175912, Note_on_c, 0, 77, 70
2, 175949, Note_on_c, 0, 73, 0
2, 176006, Note_on_c, 0, 77, 0
2, 176038, Note_on_c, 0, 80, 69
2, 176202, Note_on_c, 0, 68, 85
2, 176219, Note_on_c, 0, 75, 72
2, 176223, Note_on_c, 0, 80, 0
2, 176249, Note_on_c, 0, 68, 0
2, 176365, Note_on_c, 0, 80, 72
2, 176371, Note_on_c, 0, 75, 0
2, 176519, Note_on_c, 0, 65, 78
2, 176525, Note_on_c, 0, 73, 65
2, 176531, Note_on_c, 0, 80, 0
2, 176681, Note_on_c, 0, 80, 62
2, 176747, Note_on_c, 0, 73, 0
2, 176833, Note_on_c, 0, 63, 65
2, 176840, Note_on_c, 0, 80, 0
2, 176853, Note_on_c, 0, 72, 71
2, 176862, Note_on_c, 0, 65, 0
2, 176980, Note_on_c, 0, 61, 59
2, 176982, Note_on_c, 0, 63, 0
2, 176995, Note_on_c, 0, 70, 72
2, 177017, Note_on_c, 0, 72, 0
2, 177121, Note_on_c, 0, 70, 0
2, 177130, Note_on_c, 0, 63, 67
2, 177147, Note_on_c, 0, 61, 0
2, 177159, Note_on_c, 0, 72, 77
2, 177234, Note_on_c, 0, 63, 0
2, 177277, Note_on_c, 0, 56, 69
2, 177305, Note_on_c, 0, 75, 82
2, 177347, Note_on_c, 0, 72, 0
2, 177438, Note_on_c, 0, 61, 68
2, 177451, Note_on_c, 0, 56, 0
2, 177463, Note_on_c, 0, 77, 81
2, 177465, Note_on_c, 0, 75, 0
2, 177584, Note_on_c, 0, 63, 73
2, 177601, Note_on_c, 0, 78, 82
2, 177611, Note_on_c, 0, 77, 0
2, 177635, Note_on_c, 0, 61, 0
2, 177730, Note_on_c, 0, 63, 0
2, 177752, Note_on_c, 0, 65, 68
2, 177761, Note_on_c, 0, 80, 87
2, 177797, Note_on_c, 0, 78, 0
2, 177851, Note_on_c, 0, 65, 0
2, 177881, Note_on_c, 0, 63, 74
2, 177906, Note_on_c, 0, 78, 86
2, 177997, Note_on_c, 0, 80, 0
2, 178038, Note_on_c, 0, 63, 0
2, 178051, Note_on_c, 0, 61, 71
2, 178055, Note_on_c, 0, 77, 84
2, 178094, Note_on_c, 0, 78, 0
2, 178187, Note_on_c, 0, 77, 0
2, 178191, Note_on_c, 0, 80, 82
2, 178196, Note_on_c, 0, 61, 0
2, 178199, Note_on_c, 0, 63, 68
2, 178267, Note_on_c, 0, 63, 0
2, 178364, Note_on_c, 0, 72, 88
2, 178364, Note_on_c, 0, 75, 76
2, 178376, Note_on_c, 0, 80, 0
2, 178424, Note_on_c, 0, 72, 0
2, 178496, Note_on_c, 0, 75, 0
2, 178511, Note_on_c, 0, 80, 70
2, 178678, Note_on_c, 0, 68, 79
2, 178685, Note_on_c, 0, 73, 70
2, 178692, Note_on_c, 0, 80, 0
2, 178728, Note_on_c, 0, 68, 0
2, 178835, Note_on_c, 0, 80, 65
2, 178867, Note_on_c, 0, 73, 0
2, 178995, Note_on_c, 0, 63, 68
2, 179007, Note_on_c, 0, 80, 0
2, 179022, Note_on_c, 0, 72, 61
2, 179147, Note_on_c, 0, 72, 0
2, 179167, Note_on_c, 0, 80, 60
2, 179289, Note_on_c, 0, 80, 0
2, 179315, Note_on_c, 0, 61, 61
2, 179332, Note_on_c, 0, 70, 66
2, 179359, Note_on_c, 0, 63, 0
2, 179445, Note_on_c, 0, 61, 0
2, 179454, Note_on_c, 0, 60, 62
2, 179473, Note_on_c, 0, 70, 0
2, 179474, Note_on_c, 0, 68, 69
2, 179613, Note_on_c, 0, 61, 63
2, 179622, Note_on_c, 0, 60, 0
2, 179625, Note_on_c, 0, 70, 69
2, 179668, Note_on_c, 0, 68, 0
2, 179711, Note_on_c, 0, 61, 0
2, 179758, Note_on_c, 0, 56, 71
2, 179775, Note_on_c, 0, 70, 0
2, 179776, Note_on_c, 0, 73, 69
2, 179895, Note_on_c, 0, 73, 0
2, 179920, Note_on_c, 0, 56, 0
2, 179928, Note_on_c, 0, 75, 69
2, 179935, Note_on_c, 0, 60, 71
2, 180067, Note_on_c, 0, 61, 79
2, 180080, Note_on_c, 0, 77, 70
2, 180093, Note_on_c, 0, 60, 0
2, 180116, Control_c, 0, 64, 35
2, 180125, Note_on_c, 0, 75, 0
2, 180132, Control_c, 0, 64, 50
2, 180139, Note_on_c, 0, 77, 0
2, 180171, Control_c, 0, 64, 47
2, 180188, Note_on_c, 0, 61, 0
2, 180191, Control_c, 0, 64, 41
2, 180209, Control_c, 0, 64, 18
2, 180210, Note_on_c, 0, 63, 83
2, 180229, Control_c, 0, 64, 0
2, 180237, Note_on_c, 0, 78, 80
2, 180307, Note_on_c, 0, 63, 0
2, 180346, Note_on_c, 0, 61, 74
2, 180376, Note_on_c, 0, 77, 73
2, 180470, Note_on_c, 0, 61, 0
2, 180494, Note_on_c, 0, 78, 0
2, 180527, Note_on_c, 0, 60, 77
2, 180539, Note_on_c, 0, 75, 77
2, 180559, Note_on_c, 0, 77, 0
2, 180650, Note_on_c, 0, 60, 0
2, 180658, Note_on_c, 0, 75, 0
2, 180679, Note_on_c, 0, 61, 76
2, 180680, Note_on_c, 0, 77, 75
2, 180739, Note_on_c, 0, 61, 0
2, 180833, Note_on_c, 0, 77, 0
2, 180834, Note_on_c, 0, 73, 75
2, 180841, Note_on_c, 0, 70, 87
2, 180910, Note_on_c, 0, 70, 0
2, 180945, Note_on_c, 0, 73, 0
2, 180986, Note_on_c, 0, 75, 71
2, 181151, Note_on_c, 0, 67, 74
2, 181165, Note_on_c, 0, 75, 0
2, 181170, Note_on_c, 0, 72, 77
2, 181180, Note_on_c, 0, 67, 0
2, 181297, Note_on_c, 0, 72, 0
2, 181304, Note_on_c, 0, 75, 73
2, 181453, Note_on_c, 0, 75, 0
2, 181465, Note_on_c, 0, 70, 73
2, 181469, Note_on_c, 0, 61, 73
2, 181611, Note_on_c, 0, 75, 66
2, 181636, Note_on_c, 0, 70, 0
2, 181761, Note_on_c, 0, 60, 64
2, 181767, Note_on_c, 0, 61, 0
2, 181775, Note_on_c, 0, 68, 69
2, 181862, Note_on_c, 0, 75, 0
2, 181902, Note_on_c, 0, 58, 62
2, 181908, Note_on_c, 0, 68, 0
2, 181910, Note_on_c, 0, 60, 0
2, 181925, Note_on_c, 0, 67, 54
2, 182036, Note_on_c, 0, 58, 0
2, 182079, Note_on_c, 0, 60, 61
2, 182082, Note_on_c, 0, 68, 69
2, 182086, Note_on_c, 0, 67, 0
2, 182152, Note_on_c, 0, 68, 0
2, 182201, Note_on_c, 0, 60, 0
2, 182217, Note_on_c, 0, 56, 71
2, 182235, Note_on_c, 0, 72, 76
2, 182368, Note_on_c, 0, 58, 64
2, 182380, Note_on_c, 0, 73, 80
2, 182398, Note_on_c, 0, 56, 0
2, 182405, Note_on_c, 0, 72, 0
2, 182517, Note_on_c, 0, 60, 70
2, 182520, Note_on_c, 0, 75, 83
2, 182548, Note_on_c, 0, 73, 0
2, 182556, Note_on_c, 0, 58, 0
2, 182589, Note_on_c, 0, 60, 0
2, 182612, Note_on_c, 0, 75, 0
2, 182669, Note_on_c, 0, 77, 83
2, 182677, Note_on_c, 0, 61, 74
2, 182824, Note_on_c, 0, 63, 74
2, 182829, Note_on_c, 0, 78, 84
2, 182839, Note_on_c, 0, 77, 0
2, 182901, Note_on_c, 0, 61, 0
2, 182947, Note_on_c, 0, 78, 0
2, 182958, Note_on_c, 0, 63, 0
2, 182978, Note_on_c, 0, 80, 83
2, 182984, Note_on_c, 0, 65, 74
2, 183065, Note_on_c, 0, 65, 0
2, 183107, Note_on_c, 0, 63, 74
2, 183125, Note_on_c, 0, 82, 80
2, 183197, Note_on_c, 0, 80, 0
2, 183233, Note_on_c, 0, 63, 0
2, 183259, Note_on_c, 0, 82, 0
2, 183264, Note_on_c, 0, 66, 74
2, 183278, Note_on_c, 0, 72, 86
2, 183332, Note_on_c, 0, 72, 0
2, 183351, Note_on_c, 0, 66, 0
2, 183420, Note_on_c, 0, 65, 75
2, 183577, Note_on_c, 0, 63, 73
2, 183585, Note_on_c, 0, 68, 79
2, 183611, Note_on_c, 0, 65, 0
2, 183619, Note_on_c, 0, 68, 0
2, 183676, Note_on_c, 0, 63, 0
2, 183721, Note_on_c, 0, 61, 71
2, 183865, Note_on_c, 0, 61, 0
2, 183888, Note_on_c, 0, 66, 78
2, 183890, Note_on_c, 0, 70, 82
2, 183936, Control_c, 0, 64, 55
2, 183950, Note_on_c, 0, 66, 0
2, 183956, Control_c, 0, 64, 64
2, 183974, Control_c, 0, 64, 67
2, 183994, Control_c, 0, 64, 70
2, 184013, Control_c, 0, 64, 71
2, 184032, Control_c, 0, 64, 70
2, 184044, Note_on_c, 0, 68, 82
2, 184051, Control_c, 0, 64, 66
2, 184071, Control_c, 0, 64, 61
2, 184085, Note_on_c, 0, 70, 0
2, 184090, Control_c, 0, 64, 52
2, 184109, Control_c, 0, 64, 38
2, 184128, Control_c, 0, 64, 0
2, 184200, Note_on_c, 0, 66, 84
2, 184205, Note_on_c, 0, 68, 0
2, 184210, Note_on_c, 0, 58, 65
2, 184333, Note_on_c, 0, 58, 0
2, 184339, Note_on_c, 0, 68, 85
2, 184348, Note_on_c, 0, 60, 70
2, 184362, Note_on_c, 0, 66, 0
2, 184467, Note_on_c, 0, 60, 0
2, 184503, Note_on_c, 0, 61, 75
2, 184504, Note_on_c, 0, 77, 86
2, 184524, Note_on_c, 0, 68, 0
2, 184568, Note_on_c, 0, 77, 0
2, 184593, Note_on_c, 0, 61, 0
2, 184655, Note_on_c, 0, 60, 73
2, 184824, Note_on_c, 0, 73, 81
2, 184840, Note_on_c, 0, 58, 64
2, 184850, Note_on_c, 0, 60, 0
2, 184888, Note_on_c, 0, 73, 0
2, 184970, Note_on_c, 0, 58, 0
2, 184991, Note_on_c, 0, 56, 74
2, 185199, Note_on_c, 0, 68, 81
2, 185216, Note_on_c, 0, 58, 65
2, 185218, Note_on_c, 0, 56, 0
2, 185559, Note_on_c, 0, 66, 69
2, 185602, Note_on_c, 0, 68, 0
2, 185704, Note_on_c, 0, 66, 0
2, 185711, Note_on_c, 0, 65, 64
2, 185881, Note_on_c, 0, 66, 73
2, 185894, Note_on_c, 0, 65, 0
2, 185942, Note_on_c, 0, 66, 0
2, 186021, Note_on_c, 0, 56, 75
2, 186041, Note_on_c, 0, 58, 0
2, 186187, Note_on_c, 0, 54, 68
2, 186187, Note_on_c, 0, 75, 79
2, 186195, Note_on_c, 0, 56, 0
2, 186245, Note_on_c, 0, 75, 0
2, 186350, Note_on_c, 0, 54, 0
2, 186355, Note_on_c, 0, 58, 73
2, 186516, Note_on_c, 0, 56, 69
2, 186516, Note_on_c, 0, 58, 0
2, 186517, Note_on_c, 0, 65, 77
2, 186582, Note_on_c, 0, 65, 0
2, 186657, Note_on_c, 0, 54, 68
2, 186712, Note_on_c, 0, 56, 0
2, 186800, Note_on_c, 0, 54, 0
2, 186823, Note_on_c, 0, 73, 74
2, 186829, Note_on_c, 0, 53, 68
2, 186924, Note_on_c, 0, 73, 0
2, 186975, Note_on_c, 0, 56, 73
2, 186996, Note_on_c, 0, 53, 0
2, 187148, Note_on_c, 0, 54, 62
2, 187153, Note_on_c, 0, 63, 75
2, 187186, Note_on_c, 0, 56, 0
2, 187284, Note_on_c, 0, 63, 0
2, 187312, Note_on_c, 0, 53, 67
2, 187313, Note_on_c, 0, 54, 0
2, 187466, Note_on_c, 0, 72, 74
2, 187476, Note_on_c, 0, 53, 0
2, 187476, Note_on_c, 0, 54, 63
2, 187569, Note_on_c, 0, 72, 0
2, 187626, Note_on_c, 0, 54, 0
2, 187627, Note_on_c, 0, 51, 64
2, 187714, Note_on_c, 0, 51, 0
2, 187787, Note_on_c, 0, 61, 73
2, 187793, Note_on_c, 0, 53, 67
2, 187852, Control_c, 0, 64, 68
2, 187858, Note_on_c, 0, 61, 0
2, 187870, Control_c, 0, 64, 90
2, 187889, Control_c, 0, 64, 127
2, 188118, Note_on_c, 0, 73, 77
2, 188158, Control_c, 0, 64, 111
2, 188178, Control_c, 0, 64, 81
2, 188197, Control_c, 0, 64, 65
2, 188216, Control_c, 0, 64, 0
2, 188232, Note_on_c, 0, 73, 0
2, 188259, Note_on_c, 0, 53, 0
2, 188262, Note_on_c, 0, 56, 71
2, 188263, Note_on_c, 0, 72, 80
2, 188413, Note_on_c, 0, 58, 67
2, 188416, Note_on_c, 0, 73, 82
2, 188428, Note_on_c, 0, 72, 0
2, 188444, Note_on_c, 0, 56, 0
2, 188513, Note_on_c, 0, 58, 0
2, 188558, Note_on_c, 0, 60, 73
2, 188568, Note_on_c, 0, 75, 85
2, 188590, Note_on_c, 0, 73, 0
2, 188671, Note_on_c, 0, 75, 0
2, 188712, Note_on_c, 0, 61, 71
2, 188714, Note_on_c, 0, 77, 81
2, 188722, Note_on_c, 0, 60, 0
2, 188862, Note_on_c, 0, 78, 84
2, 188873, Note_on_c, 0, 63, 80
2, 188900, Note_on_c, 0, 77, 0
2, 188919, Note_on_c, 0, 61, 0
2, 189022, Note_on_c, 0, 80, 87
2, 189031, Note_on_c, 0, 63, 0
2, 189038, Note_on_c, 0, 65, 79
2, 189059, Note_on_c, 0, 78, 0
2, 189179, Note_on_c, 0, 79, 87
2, 189180, Note_on_c, 0, 63, 78
2, 189211, Note_on_c, 0, 65, 0
2, 189244, Note_on_c, 0, 80, 0
2, 189303, Note_on_c, 0, 63, 0
2, 189334, Note_on_c, 0, 79, 0
2, 189336, Note_on_c, 0, 77, 84
2, 189339, Note_on_c, 0, 61, 70
2, 189406, Control_c, 0, 64, 39
2, 189426, Control_c, 0, 64, 59
2, 189444, Control_c, 0, 64, 63
2, 189464, Control_c, 0, 64, 64
2, 189485, Note_on_c, 0, 79, 87
2, 189486, Note_on_c, 0, 63, 76
2, 189497, Note_on_c, 0, 61, 0
2, 189503, Control_c, 0, 64, 64
2, 189521, Control_c, 0, 64, 62
2, 189521, Note_on_c, 0, 77, 0
2, 189541, Control_c, 0, 64, 56
2, 189543, Note_on_c, 0, 63, 0
2, 189560, Control_c, 0, 64, 44
2, 189579, Control_c, 0, 64, 0
2, 189657, Note_on_c, 0, 72, 94
2, 189669, Note_on_c, 0, 80, 82
2, 189671, Note_on_c, 0, 60, 79
2, 189684, Note_on_c, 0, 79, 0
2, 189768, Note_on_c, 0, 72, 0
2, 189828, Note_on_c, 0, 78, 73
2, 189878, Note_on_c, 0, 80, 0
2, 189973, Note_on_c, 0, 68, 88
2, 189984, Note_on_c, 0, 78, 0
2, 189998, Note_on_c, 0, 77, 71
2, 190038, Note_on_c, 0, 68, 0
2, 190141, Note_on_c, 0, 75, 83
2, 190152, Note_on_c, 0, 77, 0
2, 190324, Note_on_c, 0, 77, 76
2, 190329, Note_on_c, 0, 63, 77
2, 190421, Note_on_c, 0, 75, 0
2, 190656, Note_on_c, 0, 60, 0
2, 190658, Note_on_c, 0, 61, 72
2, 190673, Control_c, 0, 64, 47
2, 190690, Control_c, 0, 64, 63
2, 190710, Control_c, 0, 64, 69
2, 190729, Control_c, 0, 64, 81
2, 190739, Note_on_c, 0, 63, 0
2, 190749, Control_c, 0, 64, 107
2, 190767, Control_c, 0, 64, 127
2, 190807, Note_on_c, 0, 60, 74
2, 190858, Note_on_c, 0, 61, 0
2, 190880, Note_on_c, 0, 60, 0
2, 190941, Control_c, 0, 64, 85
2, 190959, Control_c, 0, 64, 67
2, 190979, Control_c, 0, 64, 42
2, 190980, Note_on_c, 0, 61, 77
2, 190986, Note_on_c, 0, 58, 56
2, 190998, Control_c, 0, 64, 0
2, 191152, Note_on_c, 0, 75, 73
2, 191169, Note_on_c, 0, 61, 0
2, 191224, Note_on_c, 0, 77, 0
2, 191296, Note_on_c, 0, 70, 80
2, 191309, Note_on_c, 0, 73, 71
2, 191335, Note_on_c, 0, 75, 0
2, 191392, Note_on_c, 0, 70, 0
2, 191419, Note_on_c, 0, 73, 0
2, 191467, Note_on_c, 0, 77, 73
2, 191579, Note_on_c, 0, 58, 0
2, 191616, Note_on_c, 0, 60, 76
2, 191630, Note_on_c, 0, 75, 74
2, 191651, Note_on_c, 0, 77, 0
2, 191727, Note_on_c, 0, 60, 0
2, 191777, Note_on_c, 0, 73, 70
2, 191893, Note_on_c, 0, 75, 0
2, 191939, Note_on_c, 0, 68, 87
2, 191946, Note_on_c, 0, 72, 72
2, 191947, Note_on_c, 0, 56, 72
2, 191963, Note_on_c, 0, 73, 0
2, 192037, Note_on_c, 0, 68, 0
2, 192085, Note_on_c, 0, 75, 73
2, 192112, Note_on_c, 0, 72, 0
2, 192133, Note_on_c, 0, 56, 0
2, 192254, Note_on_c, 0, 58, 74
2, 192257, Note_on_c, 0, 73, 73
2, 192325, Note_on_c, 0, 58, 0
2, 192347, Note_on_c, 0, 75, 0
2, 192401, Note_on_c, 0, 72, 74
2, 192414, Note_on_c, 0, 73, 0
2, 192537, Note_on_c, 0, 72, 0
2, 192561, Note_on_c, 0, 67, 68
2, 192563, Note_on_c, 0, 51, 67
2, 192563, Note_on_c, 0, 73, 75
2, 192607, Note_on_c, 0, 51, 0
2, 192647, Note_on_c, 0, 67, 0
2, 192701, Note_on_c, 0, 70, 78
2, 192758, Note_on_c, 0, 73, 0
2, 192824, Note_on_c, 0, 70, 0
2, 192864, Note_on_c, 0, 72, 86
2, 192873, Note_on_c, 0, 56, 82
2, 192917, Control_c, 0, 64, 19
2, 192937, Control_c, 0, 64, 68
2, 192944, Note_on_c, 0, 56, 0
2, 192955, Control_c, 0, 64, 84
2, 192975, Control_c, 0, 64, 127
2, 193198, Note_on_c, 0, 75, 86
2, 193205, Control_c, 0, 64, 104
2, 193209, Note_on_c, 0, 68, 84
2, 193224, Control_c, 0, 64, 74
2, 193233, Note_on_c, 0, 72, 0
2, 193243, Control_c, 0, 64, 54
2, 193263, Control_c, 0, 64, 0
2, 193355, Note_on_c, 0, 67, 71
2, 193365, Note_on_c, 0, 68, 0
2, 193485, Note_on_c, 0, 67, 0
2, 193507, Note_on_c, 0, 78, 86
2, 193512, Note_on_c, 0, 68, 89
2, 193524, Note_on_c, 0, 75, 0
2, 193547, Note_on_c, 0, 68, 0
2, 193647, Note_on_c, 0, 70, 72
2, 193795, Note_on_c, 0, 70, 0
2, 193808, Note_on_c, 0, 56, 79
2, 193822, Note_on_c, 0, 72, 73
2, 193849, Note_on_c, 0, 56, 0
2, 193947, Note_on_c, 0, 72, 0
2, 193971, Note_on_c, 0, 68, 74
2, 194140, Note_on_c, 0, 73, 73
2, 194142, Note_on_c, 0, 58, 78
2, 194194, Note_on_c, 0, 68, 0
2, 194284, Note_on_c, 0, 56, 77
2, 194287, Note_on_c, 0, 72, 75
2, 194291, Note_on_c, 0, 58, 0
2, 194371, Note_on_c, 0, 73, 0
2, 194443, Note_on_c, 0, 54, 73
2, 194447, Note_on_c, 0, 70, 78
2, 194449, Note_on_c, 0, 72, 0
2, 194458, Note_on_c, 0, 56, 0
2, 194530, Note_on_c, 0, 78, 0
2, 194558, Note_on_c, 0, 70, 0
2, 194569, Note_on_c, 0, 54, 0
2, 194592, Note_on_c, 0, 72, 86
2, 194599, Note_on_c, 0, 56, 73
2, 194643, Note_on_c, 0, 56, 0
2, 194665, Note_on_c, 0, 72, 0
2, 194749, Note_on_c, 0, 77, 78
2, 194756, Note_on_c, 0, 65, 75
2, 194773, Note_on_c, 0, 73, 75
2, 194812, Note_on_c, 0, 65, 0
2, 194873, Note_on_c, 0, 73, 0
2, 194916, Note_on_c, 0, 72, 72
2, 195073, Note_on_c, 0, 61, 71
2, 195093, Note_on_c, 0, 70, 77
2, 195108, Note_on_c, 0, 61, 0
2, 195110, Note_on_c, 0, 72, 0
2, 195187, Control_c, 0, 64, 46
2, 195196, Note_on_c, 0, 68, 77
2, 195206, Control_c, 0, 64, 64
2, 195225, Control_c, 0, 64, 76
2, 195234, Note_on_c, 0, 70, 0
2, 195239, Note_on_c, 0, 68, 0
2, 195244, Control_c, 0, 64, 101
2, 195263, Control_c, 0, 64, 127
2, 195305, Note_on_c, 0, 68, 81
2, 195394, Note_on_c, 0, 68, 0
2, 195394, Note_on_c, 0, 70, 82
2, 195398, Control_c, 0, 64, 85
2, 195401, Note_on_c, 0, 56, 76
2, 195416, Control_c, 0, 64, 65
2, 195436, Control_c, 0, 64, 0
2, 195732, Note_on_c, 0, 54, 74
2, 195754, Note_on_c, 0, 56, 0
2, 195838, Note_on_c, 0, 77, 0
2, 195888, Note_on_c, 0, 53, 74
2, 195897, Note_on_c, 0, 54, 0
2, 196021, Note_on_c, 0, 53, 0
2, 196043, Note_on_c, 0, 75, 74
2, 196055, Note_on_c, 0, 54, 65
2, 196058, Note_on_c, 0, 70, 0
2, 196101, Note_on_c, 0, 54, 0
2, 196190, Note_on_c, 0, 68, 69
2, 196319, Note_on_c, 0, 68, 0
2, 196350, Note_on_c, 0, 63, 62
2, 196353, Note_on_c, 0, 66, 62
2, 196404, Note_on_c, 0, 63, 0
2, 196488, Note_on_c, 0, 70, 72
2, 196508, Note_on_c, 0, 66, 0
2, 196649, Note_on_c, 0, 68, 68
2, 196654, Note_on_c, 0, 53, 59
2, 196703, Note_on_c, 0, 53, 0
2, 196709, Note_on_c, 0, 70, 0
2, 196796, Note_on_c, 0, 66, 65
2, 196837, Note_on_c, 0, 75, 0
2, 196893, Note_on_c, 0, 66, 0
2, 196906, Note_on_c, 0, 68, 0
2, 196953, Note_on_c, 0, 73, 71
2, 196961, Note_on_c, 0, 61, 54
2, 196966, Note_on_c, 0, 65, 55
2, 197025, Note_on_c, 0, 61, 0
2, 197112, Note_on_c, 0, 73, 0
2, 197116, Note_on_c, 0, 68, 64
2, 197196, Note_on_c, 0, 65, 0
2, 197257, Note_on_c, 0, 68, 0
2, 197263, Note_on_c, 0, 72, 69
2, 197283, Note_on_c, 0, 51, 52
2, 197301, Note_on_c, 0, 66, 49
2, 197338, Note_on_c, 0, 51, 0
2, 197381, Note_on_c, 0, 72, 0
2, 197405, Note_on_c, 0, 66, 0
2, 197425, Note_on_c, 0, 65, 50
2, 197550, Note_on_c, 0, 65, 0
2, 197567, Control_c, 0, 67, 19
2, 197587, Control_c, 0, 67, 35
2, 197588, Note_on_c, 0, 75, 64
2, 197604, Note_on_c, 0, 60, 47
2, 197606, Control_c, 0, 67, 54
2, 197621, Note_on_c, 0, 66, 44
2, 197625, Control_c, 0, 67, 75
2, 197638, Note_on_c, 0, 60, 0
2, 197644, Control_c, 0, 67, 100
2, 197663, Control_c, 0, 67, 127
2, 197759, Note_on_c, 0, 63, 48
2, 197811, Note_on_c, 0, 63, 0
2, 197899, Note_on_c, 0, 66, 0
2, 197924, Note_on_c, 0, 49, 54
2, 197929, Note_on_c, 0, 65, 47
2, 198049, Note_on_c, 0, 49, 0
2, 198086, Note_on_c, 0, 44, 46
2, 198224, Note_on_c, 0, 44, 0
2, 198230, Note_on_c, 0, 75, 0
2, 198240, Note_on_c, 0, 68, 71
2, 198264, Note_on_c, 0, 49, 51
2, 198422, Note_on_c, 0, 51, 48
2, 198482, Note_on_c, 0, 49, 0
2, 198531, Note_on_c, 0, 51, 0
2, 198565, Note_on_c, 0, 73, 73
2, 198576, Note_on_c, 0, 53, 54
2, 198595, Note_on_c, 0, 68, 0
2, 198679, Note_on_c, 0, 53, 0
2, 198733, Note_on_c, 0, 54, 46
2, 198827, Note_on_c, 0, 54, 0
2, 198880, Note_on_c, 0, 56, 57
2, 198895, Note_on_c, 0, 71, 66
2, 198956, Note_on_c, 0, 73, 0
2, 199023, Note_on_c, 0, 56, 0
2, 199057, Note_on_c, 0, 53, 52
2, 199136, Note_on_c, 0, 53, 0
2, 199209, Note_on_c, 0, 71, 0
2, 199211, Note_on_c, 0, 70, 66
2, 199218, Note_on_c, 0, 54, 45
2, 199257, Note_on_c, 0, 65, 0
2, 199360, Note_on_c, 0, 54, 0
2, 199378, Note_on_c, 0, 42, 48
2, 199498, Note_on_c, 0, 42, 0
2, 199549, Note_on_c, 0, 61, 66
2, 199562, Note_on_c, 0, 54, 53
2, 199645, Note_on_c, 0, 54, 0
2, 199713, Note_on_c, 0, 53, 51
2, 199866, Note_on_c, 0, 53, 0
2, 199881, Note_on_c, 0, 54, 57
2, 199881, Note_on_c, 0, 66, 74
2, 199931, Note_on_c, 0, 61, 0
2, 200014, Note_on_c, 0, 54, 0
2, 200014, Note_on_c, 0, 56, 62
2, 200156, Note_on_c, 0, 56, 0
2, 200176, Note_on_c, 0, 66, 0
2, 200178, Note_on_c, 0, 65, 70
2, 200182, Note_on_c, 0, 58, 51
2, 200289, Note_on_c, 0, 58, 0
2, 200321, Note_on_c, 0, 54, 54
2, 200461, Note_on_c, 0, 54, 0
2, 200511, Note_on_c, 0, 66, 64
2, 200515, Note_on_c, 0, 51, 46
2, 200531, Note_on_c, 0, 65, 0
2, 200550, Note_on_c, 0, 70, 0
2, 200653, Note_on_c, 0, 51, 0
2, 200663, Note_on_c, 0, 53, 46
2, 200757, Note_on_c, 0, 53, 0
2, 200816, Note_on_c, 0, 54, 48
2, 200823, Note_on_c, 0, 70, 71
2, 200834, Note_on_c, 0, 66, 0
2, 200934, Note_on_c, 0, 54, 0
2, 200972, Note_on_c, 0, 51, 38
2, 200973, Note_on_c, 0, 66, 70
2, 201035, Note_on_c, 0, 70, 0
2, 201083, Note_on_c, 0, 51, 0
2, 201149, Note_on_c, 0, 66, 0
2, 201150, Note_on_c, 0, 63, 54
2, 201152, Note_on_c, 0, 48, 45
2, 201279, Note_on_c, 0, 48, 0
2, 201303, Note_on_c, 0, 49, 48
2, 201407, Note_on_c, 0, 49, 0
2, 201461, Note_on_c, 0, 51, 43
2, 201471, Note_on_c, 0, 66, 57
2, 201476, Note_on_c, 0, 63, 0
2, 201540, Note_on_c, 0, 51, 0
2, 201612, Note_on_c, 0, 49, 27
2, 201638, Note_on_c, 0, 63, 57
2, 201682, Note_on_c, 0, 49, 0
2, 201699, Note_on_c, 0, 66, 0
2, 201703, Note_on_c, 0, 48, 6
2, 201771, Note_on_c, 0, 48, 0
2, 201777, Note_on_c, 0, 63, 0
2, 201793, Note_on_c, 0, 56, 48
2, 201799, Note_on_c, 0, 41, 44
2, 201962, Control_c, 0, 64, 51
2, 201982, Control_c, 0, 64, 63
2, 202000, Control_c, 0, 64, 68
2, 202020, Control_c, 0, 64, 76
2, 202031, Note_on_c, 0, 41, 0
2, 202039, Control_c, 0, 64, 93
2, 202059, Control_c, 0, 64, 127
2, 202102, Note_on_c, 0, 56, 0
2, 202137, Note_on_c, 0, 63, 65
2, 202140, Note_on_c, 0, 53, 51
2, 202250, Control_c, 0, 64, 91
2, 202269, Control_c, 0, 64, 75
2, 202288, Control_c, 0, 64, 65
2, 202289, Note_on_c, 0, 53, 0
2, 202301, Note_on_c, 0, 51, 56
2, 202308, Control_c, 0, 64, 56
2, 202327, Control_c, 0, 64, 35
2, 202346, Control_c, 0, 64, 0
2, 202462, Note_on_c, 0, 51, 0
2, 202465, Note_on_c, 0, 68, 68
2, 202480, Note_on_c, 0, 53, 64
2, 202521, Note_on_c, 0, 63, 0
2, 202629, Note_on_c, 0, 53, 0
2, 202635, Note_on_c, 0, 54, 70
2, 202776, Note_on_c, 0, 56, 73
2, 202787, Note_on_c, 0, 54, 0
2, 202792, Note_on_c, 0, 60, 62
2, 202865, Note_on_c, 0, 56, 0
2, 202875, Note_on_c, 0, 60, 0
2, 202918, Note_on_c, 0, 53, 73
2, 203052, Note_on_c, 0, 53, 0
2, 203088, Note_on_c, 0, 50, 62
2, 203111, Note_on_c, 0, 65, 54
2, 203191, Note_on_c, 0, 68, 0
2, 203240, Note_on_c, 0, 51, 66
2, 203265, Note_on_c, 0, 50, 0
2, 203352, Note_on_c, 0, 51, 0
2, 203395, Note_on_c, 0, 53, 68
2, 203408, Note_on_c, 0, 68, 69
2, 203421, Note_on_c, 0, 65, 0
2, 203541, Note_on_c, 0, 53, 0
2, 203551, Note_on_c, 0, 50, 65
2, 203567, Note_on_c, 0, 65, 61
2, 203568, Note_on_c, 0, 68, 0
2, 203700, Note_on_c, 0, 50, 0
2, 203713, Note_on_c, 0, 65, 0
2, 203725, Note_on_c, 0, 62, 58
2, 203728, Note_on_c, 0, 46, 57
2, 203848, Note_on_c, 0, 46, 0
2, 203866, Note_on_c, 0, 48, 58
2, 203999, Note_on_c, 0, 48, 0
2, 204027, Note_on_c, 0, 50, 59
2, 204027, Note_on_c, 0, 65, 52
2, 204040, Note_on_c, 0, 62, 0
2, 204135, Note_on_c, 0, 65, 0
2, 204153, Note_on_c, 0, 50, 0
2, 204176, Note_on_c, 0, 46, 59
2, 204178, Note_on_c, 0, 62, 59
2, 204222, Note_on_c, 0, 46, 0
2, 204347, Note_on_c, 0, 54, 58
2, 204363, Control_c, 0, 64, 48
2, 204365, Note_on_c, 0, 39, 51
2, 204365, Note_on_c, 0, 62, 0
2, 204383, Control_c, 0, 64, 63
2, 204401, Control_c, 0, 64, 70
2, 204421, Control_c, 0, 64, 83
2, 204440, Control_c, 0, 64, 127
2, 204459, Note_on_c, 0, 39, 0
2, 204498, Control_c, 0, 67, 121
2, 204517, Control_c, 0, 67, 107
2, 204528, Note_on_c, 0, 54, 0
2, 204536, Control_c, 0, 67, 91
2, 204555, Control_c, 0, 67, 75
2, 204575, Control_c, 0, 67, 57
2, 204594, Control_c, 0, 67, 43
2, 204612, Control_c, 0, 67, 29
2, 204632, Control_c, 0, 67, 17
2, 204651, Control_c, 0, 67, 0
2, 204660, Note_on_c, 0, 51, 62
2, 204677, Note_on_c, 0, 58, 64
2, 204689, Control_c, 0, 64, 107
2, 204709, Control_c, 0, 64, 85
2, 204728, Control_c, 0, 64, 71
2, 204747, Control_c, 0, 64, 63
2, 204766, Control_c, 0, 64, 53
2, 204786, Control_c, 0, 64, 39
2, 204799, Note_on_c, 0, 51, 0
2, 204804, Control_c, 0, 64, 20
2, 204824, Control_c, 0, 64, 0
2, 204831, Note_on_c, 0, 50, 72
2, 204988, Note_on_c, 0, 66, 65
2, 204994, Note_on_c, 0, 51, 76
2, 205013, Note_on_c, 0, 58, 0
2, 205039, Note_on_c, 0, 50, 0
2, 205138, Note_on_c, 0, 53, 80
2, 205148, Note_on_c, 0, 51, 0
2, 205298, Note_on_c, 0, 54, 78
2, 205308, Note_on_c, 0, 53, 0
2, 205310, Note_on_c, 0, 58, 60
2, 205377, Note_on_c, 0, 58, 0
2, 205434, Note_on_c, 0, 54, 0
2, 205437, Note_on_c, 0, 51, 71
2, 205601, Note_on_c, 0, 51, 0
2, 205629, Note_on_c, 0, 48, 68
2, 205635, Note_on_c, 0, 63, 76
2, 205646, Note_on_c, 0, 66, 0
2, 205772, Note_on_c, 0, 63, 0
2, 205772, Note_on_c, 0, 65, 75
2, 205783, Note_on_c, 0, 49, 71
2, 205796, Note_on_c, 0, 48, 0
2, 205894, Note_on_c, 0, 49, 0
2, 205925, Note_on_c, 0, 66, 87
2, 205929, Note_on_c, 0, 51, 69
2, 205958, Note_on_c, 0, 65, 0
2, 206022, Note_on_c, 0, 51, 0
2, 206028, Note_on_c, 0, 66, 0
2, 206065, Note_on_c, 0, 63, 87
2, 206082, Note_on_c, 0, 48, 73
2, 206216, Note_on_c, 0, 75, 89
2, 206221, Note_on_c, 0, 48, 0
2, 206240, Note_on_c, 0, 44, 74
2, 206242, Note_on_c, 0, 63, 0
2, 206387, Note_on_c, 0, 66, 65
2, 206389, Note_on_c, 0, 46, 62
2, 206414, Note_on_c, 0, 44, 0
2, 206492, Note_on_c, 0, 46, 0
2, 206531, Note_on_c, 0, 48, 69
2, 206544, Note_on_c, 0, 68, 77
2, 206570, Note_on_c, 0, 66, 0
2, 206606, Control_c, 0, 64, 29
2, 206626, Control_c, 0, 64, 54
2, 206645, Control_c, 0, 64, 60
2, 206645, Note_on_c, 0, 75, 0
2, 206664, Control_c, 0, 64, 62
2, 206669, Note_on_c, 0, 48, 0
2, 206677, Note_on_c, 0, 63, 78
2, 206679, Note_on_c, 0, 44, 70
2, 206718, Note_on_c, 0, 44, 0
2, 206722, Control_c, 0, 64, 61
2, 206741, Control_c, 0, 64, 55
2, 206760, Control_c, 0, 64, 34
2, 206780, Control_c, 0, 64, 0
2, 206784, Note_on_c, 0, 68, 0
2, 206836, Note_on_c, 0, 65, 78
2, 206839, Note_on_c, 0, 37, 80
2, 206871, Note_on_c, 0, 63, 0
2, 206889, Note_on_c, 0, 37, 0
2, 206894, Control_c, 0, 64, 53
2, 206914, Control_c, 0, 64, 70
2, 206933, Control_c, 0, 64, 94
2, 206952, Control_c, 0, 64, 127
2, 206980, Note_on_c, 0, 65, 0
2, 206984, Note_on_c, 0, 73, 79
2, 207154, Note_on_c, 0, 49, 78
2, 207155, Note_on_c, 0, 72, 81
2, 207189, Note_on_c, 0, 73, 0
2, 207292, Note_on_c, 0, 51, 71
2, 207294, Note_on_c, 0, 75, 86
2, 207327, Note_on_c, 0, 49, 0
2, 207330, Note_on_c, 0, 72, 0
2, 207355, Control_c, 0, 64, 106
2, 207374, Control_c, 0, 64, 76
2, 207394, Control_c, 0, 64, 58
2, 207399, Note_on_c, 0, 51, 0
2, 207413, Control_c, 0, 64, 0
2, 207460, Note_on_c, 0, 73, 83
2, 207472, Note_on_c, 0, 53, 74
2, 207502, Note_on_c, 0, 75, 0
2, 207513, Note_on_c, 0, 53, 0
2, 207606, Note_on_c, 0, 68, 77
2, 207626, Note_on_c, 0, 73, 0
2, 207763, Note_on_c, 0, 61, 90
2, 207778, Note_on_c, 0, 49, 74
2, 207787, Note_on_c, 0, 70, 80
2, 207803, Note_on_c, 0, 68, 0
2, 207827, Note_on_c, 0, 49, 0
2, 207943, Note_on_c, 0, 70, 0
2, 207944, Note_on_c, 0, 71, 80
2, 208115, Note_on_c, 0, 54, 72
2, 208126, Note_on_c, 0, 70, 78
2, 208145, Control_c, 0, 64, 18
2, 208165, Control_c, 0, 64, 59
2, 208183, Control_c, 0, 64, 67
2, 208188, Note_on_c, 0, 71, 0
2, 208203, Control_c, 0, 64, 78
2, 208222, Control_c, 0, 64, 127
2, 208296, Note_on_c, 0, 60, 74
2, 208303, Note_on_c, 0, 68, 81
2, 208338, Note_on_c, 0, 61, 0
2, 208357, Control_c, 0, 64, 111
2, 208361, Note_on_c, 0, 70, 0
2, 208376, Control_c, 0, 64, 77
2, 208395, Control_c, 0, 64, 61
2, 208414, Control_c, 0, 64, 0
2, 208441, Note_on_c, 0, 58, 71
2, 208454, Note_on_c, 0, 66, 78
2, 208456, Note_on_c, 0, 68, 0
2, 208472, Note_on_c, 0, 60, 0
2, 208566, Note_on_c, 0, 66, 0
2, 208569, Note_on_c, 0, 60, 72
2, 208591, Note_on_c, 0, 68, 84
2, 208616, Note_on_c, 0, 54, 0
2, 208744, Note_on_c, 0, 77, 83
2, 208749, Note_on_c, 0, 61, 81
2, 208759, Note_on_c, 0, 58, 0
2, 208774, Note_on_c, 0, 53, 55
2, 208775, Note_on_c, 0, 60, 0
2, 208777, Note_on_c, 0, 68, 0
2, 208819, Note_on_c, 0, 77, 0
2, 208887, Note_on_c, 0, 60, 76
2, 208895, Note_on_c, 0, 61, 0
2, 209037, Note_on_c, 0, 73, 80
2, 209080, Note_on_c, 0, 58, 69
2, 209105, Control_c, 0, 64, 54
2, 209112, Note_on_c, 0, 73, 0
2, 209113, Note_on_c, 0, 60, 0
2, 209125, Control_c, 0, 64, 65
2, 209143, Control_c, 0, 64, 73
2, 209163, Control_c, 0, 64, 89
2, 209166, Note_on_c, 0, 53, 0
2, 209182, Control_c, 0, 64, 127
2, 209203, Note_on_c, 0, 58, 0
2, 209211, Note_on_c, 0, 56, 80
2, 209289, Note_on_c, 0, 56, 0
2, 209297, Control_c, 0, 64, 121
2, 209317, Control_c, 0, 64, 88
2, 209336, Control_c, 0, 64, 70
2, 209355, Control_c, 0, 64, 55
2, 209374, Control_c, 0, 64, 0
2, 209392, Note_on_c, 0, 68, 81
2, 209398, Note_on_c, 0, 58, 73
2, 209415, Note_on_c, 0, 51, 67
2, 209556, Note_on_c, 0, 51, 0
2, 209745, Note_on_c, 0, 49, 68
2, 209750, Note_on_c, 0, 66, 74
2, 209815, Note_on_c, 0, 68, 0
2, 209861, Note_on_c, 0, 49, 0
2, 209895, Note_on_c, 0, 65, 74
2, 209914, Note_on_c, 0, 66, 0
2, 210055, Note_on_c, 0, 48, 65
2, 210070, Note_on_c, 0, 66, 78
2, 210086, Note_on_c, 0, 65, 0
2, 210192, Note_on_c, 0, 66, 0
2, 210211, Note_on_c, 0, 56, 79
2, 210245, Note_on_c, 0, 58, 0
2, 210375, Note_on_c, 0, 54, 74
2, 210385, Note_on_c, 0, 75, 81
2, 210390, Note_on_c, 0, 56, 0
2, 210492, Note_on_c, 0, 75, 0
2, 210529, Note_on_c, 0, 54, 0
2, 210540, Note_on_c, 0, 58, 79
2, 210619, Note_on_c, 0, 48, 0
2, 210623, Note_on_c, 0, 58, 0
2, 210701, Note_on_c, 0, 65, 76
2, 210717, Note_on_c, 0, 56, 81
2, 210722, Note_on_c, 0, 49, 75
2, 210862, Note_on_c, 0, 65, 0
2, 210870, Note_on_c, 0, 54, 72
2, 210902, Note_on_c, 0, 56, 0
2, 211011, Note_on_c, 0, 54, 0
2, 211028, Note_on_c, 0, 53, 68
2, 211032, Note_on_c, 0, 73, 81
2, 211045, Control_c, 0, 64, 22
2, 211063, Control_c, 0, 64, 51
2, 211083, Control_c, 0, 64, 57
2, 211102, Control_c, 0, 64, 57
2, 211122, Control_c, 0, 64, 54
2, 211140, Control_c, 0, 64, 52
2, 211160, Control_c, 0, 64, 50
2, 211181, Note_on_c, 0, 73, 0
2, 211184, Note_on_c, 0, 53, 0
2, 211184, Note_on_c, 0, 56, 75
2, 211198, Control_c, 0, 64, 49
2, 211217, Control_c, 0, 64, 47
2, 211237, Control_c, 0, 64, 45
2, 211256, Control_c, 0, 64, 44
2, 211263, Note_on_c, 0, 56, 0
2, 211274, Note_on_c, 0, 49, 0
2, 211275, Control_c, 0, 64, 41
2, 211294, Control_c, 0, 64, 22
2, 211314, Control_c, 0, 64, 0
2, 211359, Note_on_c, 0, 54, 67
2, 211361, Note_on_c, 0, 63, 82
2, 211376, Note_on_c, 0, 44, 57
2, 211509, Note_on_c, 0, 63, 0
2, 211516, Note_on_c, 0, 53, 74
2, 211631, Note_on_c, 0, 54, 0
2, 211690, Note_on_c, 0, 53, 0
2, 211699, Note_on_c, 0, 54, 75
2, 211706, Note_on_c, 0, 72, 79
2, 211797, Control_c, 0, 64, 22
2, 211809, Note_on_c, 0, 72, 0
2, 211815, Control_c, 0, 64, 58
2, 211835, Control_c, 0, 64, 65
2, 211837, Note_on_c, 0, 51, 70
2, 211854, Control_c, 0, 64, 71
2, 211856, Note_on_c, 0, 54, 0
2, 211873, Control_c, 0, 64, 81
2, 211874, Note_on_c, 0, 44, 0
2, 211892, Control_c, 0, 64, 91
2, 211912, Control_c, 0, 64, 99
2, 211931, Control_c, 0, 64, 100
2, 211950, Control_c, 0, 64, 98
2, 211969, Control_c, 0, 64, 93
2, 211989, Control_c, 0, 64, 85
2, 212007, Control_c, 0, 64, 73
2, 212026, Control_c, 0, 64, 64
2, 212046, Control_c, 0, 64, 39
2, 212064, Note_on_c, 0, 51, 0
2, 212065, Control_c, 0, 64, 0
2, 212086, Note_on_c, 0, 61, 73
2, 212091, Note_on_c, 0, 46, 56
2, 212091, Note_on_c, 0, 53, 64
2, 212175, Note_on_c, 0, 46, 0
2, 212180, Control_c, 0, 64, 40
2, 212200, Control_c, 0, 64, 63
2, 212218, Control_c, 0, 64, 70
2, 212238, Control_c, 0, 64, 83
2, 212257, Control_c, 0, 64, 119
2, 212259, Note_on_c, 0, 61, 0
2, 212277, Control_c, 0, 64, 127
2, 212312, Note_on_c, 0, 65, 70
2, 212322, Note_on_c, 0, 53, 0
2, 212323, Note_on_c, 0, 56, 65
2, 212449, Control_c, 0, 64, 97
2, 212469, Control_c, 0, 64, 78
2, 212474, Note_on_c, 0, 66, 74
2, 212486, Note_on_c, 0, 65, 0
2, 212487, Control_c, 0, 64, 64
2, 212494, Note_on_c, 0, 58, 62
2, 212506, Control_c, 0, 64, 37
2, 212514, Note_on_c, 0, 56, 0
2, 212526, Control_c, 0, 64, 0
2, 212591, Note_on_c, 0, 58, 0
2, 212619, Note_on_c, 0, 68, 81
2, 212634, Note_on_c, 0, 66, 0
2, 212637, Note_on_c, 0, 60, 60
2, 212785, Note_on_c, 0, 60, 0
2, 212788, Note_on_c, 0, 70, 75
2, 212799, Note_on_c, 0, 61, 63
2, 212844, Note_on_c, 0, 68, 0
2, 212905, Note_on_c, 0, 70, 0
2, 212918, Note_on_c, 0, 61, 0
2, 212934, Note_on_c, 0, 60, 65
2, 212962, Note_on_c, 0, 72, 68
2, 213039, Note_on_c, 0, 60, 0
2, 213087, Note_on_c, 0, 58, 60
2, 213111, Note_on_c, 0, 73, 76
2, 213131, Note_on_c, 0, 72, 0
2, 213232, Note_on_c, 0, 56, 69
2, 213257, Note_on_c, 0, 75, 79
2, 213268, Note_on_c, 0, 73, 0
2, 213281, Note_on_c, 0, 58, 0
2, 213376, Note_on_c, 0, 56, 0
2, 213408, Note_on_c, 0, 75, 0
2, 213416, Note_on_c, 0, 55, 73
2, 213419, Note_on_c, 0, 76, 81
2, 213555, Note_on_c, 0, 75, 80
2, 213562, Note_on_c, 0, 56, 78
2, 213564, Note_on_c, 0, 55, 0
2, 213602, Note_on_c, 0, 76, 0
2, 213683, Note_on_c, 0, 56, 0
2, 213713, Note_on_c, 0, 58, 76
2, 213717, Note_on_c, 0, 73, 83
2, 213747, Note_on_c, 0, 75, 0
2, 213810, Note_on_c, 0, 58, 0
2, 213864, Note_on_c, 0, 55, 75
2, 213869, Note_on_c, 0, 75, 91
2, 213905, Note_on_c, 0, 73, 0
2, 213929, Note_on_c, 0, 55, 0
2, 213993, Note_on_c, 0, 75, 0
2, 214022, Note_on_c, 0, 76, 84
2, 214027, Note_on_c, 0, 51, 82
2, 214172, Note_on_c, 0, 49, 74
2, 214181, Note_on_c, 0, 79, 87
2, 214274, Note_on_c, 0, 76, 0
2, 214325, Note_on_c, 0, 48, 66
2, 214333, Note_on_c, 0, 49, 0
2, 214333, Note_on_c, 0, 80, 89
2, 214349, Note_on_c, 0, 79, 0
2, 214385, Control_c, 0, 64, 24
2, 214405, Control_c, 0, 64, 59
2, 214423, Control_c, 0, 64, 66
2, 214442, Note_on_c, 0, 80, 0
2, 214443, Control_c, 0, 64, 75
2, 214462, Control_c, 0, 64, 93
2, 214481, Note_on_c, 0, 46, 75
2, 214481, Note_on_c, 0, 82, 86
2, 214485, Control_c, 0, 64, 127
2, 214503, Note_on_c, 0, 48, 0
2, 214537, Note_on_c, 0, 51, 0
2, 214538, Note_on_c, 0, 82, 0
2, 214604, Note_on_c, 0, 46, 0
2, 214639, Control_c, 0, 64, 91
2, 214645, Note_on_c, 0, 44, 70
2, 214655, Note_on_c, 0, 73, 81
2, 214658, Control_c, 0, 64, 71
2, 214677, Control_c, 0, 64, 52
2, 214696, Control_c, 0, 64, 0
2, 214798, Note_on_c, 0, 72, 84
2, 214806, Note_on_c, 0, 51, 69
2, 214810, Note_on_c, 0, 73, 0
2, 214898, Note_on_c, 0, 44, 0
2, 214931, Note_on_c, 0, 51, 0
2, 214950, Note_on_c, 0, 53, 75
2, 214952, Note_on_c, 0, 70, 85
2, 214980, Note_on_c, 0, 72, 0
2, 215100, Note_on_c, 0, 54, 79
2, 215100, Note_on_c, 0, 68, 86
2, 215133, Note_on_c, 0, 53, 0
2, 215150, Note_on_c, 0, 70, 0
2, 215267, Note_on_c, 0, 75, 88
2, 215274, Note_on_c, 0, 56, 82
2, 215294, Note_on_c, 0, 68, 0
2, 215306, Note_on_c, 0, 54, 0
2, 215439, Note_on_c, 0, 58, 82
2, 215461, Note_on_c, 0, 56, 0
2, 215605, Note_on_c, 0, 58, 0
2, 215605, Note_on_c, 0, 66, 79
2, 215607, Note_on_c, 0, 60, 76
2, 215728, Note_on_c, 0, 60, 0
2, 215741, Note_on_c, 0, 66, 0
2, 215769, Note_on_c, 0, 56, 80
2, 215997, Note_on_c, 0, 56, 0
2, 216009, Note_on_c, 0, 65, 74
2, 216025, Note_on_c, 0, 61, 71
2, 216152, Control_c, 0, 64, 66
2, 216171, Control_c, 0, 64, 85
2, 216191, Control_c, 0, 64, 127
2, 216192, Note_on_c, 0, 65, 0
2, 216196, Note_on_c, 0, 61, 0
2, 216230, Note_on_c, 0, 75, 0
2, 216452, Note_on_c, 0, 73, 87
2, 216462, Note_on_c, 0, 68, 74
2, 216472, Note_on_c, 0, 61, 70
2, 216483, Note_on_c, 0, 41, 67
2, 216520, Control_c, 0, 64, 88
2, 216538, Control_c, 0, 64, 64
2, 216558, Control_c, 0, 64, 56
2, 216577, Control_c, 0, 64, 62
2, 216597, Control_c, 0, 64, 67
2, 216613, Control_c, 0, 64, 76
2, 216633, Control_c, 0, 64, 112
2, 216652, Control_c, 0, 64, 127
2, 216656, Note_on_c, 0, 61, 0
2, 216679, Note_on_c, 0, 41, 0
2, 216731, Note_on_c, 0, 68, 0
2, 216772, Note_on_c, 0, 73, 0
2, 216899, Note_on_c, 0, 70, 82
2, 216929, Note_on_c, 0, 42, 65
2, 216954, Note_on_c, 0, 66, 66
2, 216978, Control_c, 0, 64, 91
2, 216998, Control_c, 0, 64, 67
2, 217016, Control_c, 0, 64, 0
2, 217054, Note_on_c, 0, 63, 50
2, 217113, Control_c, 0, 64, 49
2, 217126, Note_on_c, 0, 66, 0
2, 217132, Control_c, 0, 64, 64
2, 217152, Control_c, 0, 64, 71
2, 217170, Control_c, 0, 64, 86
2, 217190, Control_c, 0, 64, 127
2, 217266, Note_on_c, 0, 70, 0
2, 217319, Note_on_c, 0, 63, 0
2, 217369, Note_on_c, 0, 42, 0
2, 217520, Note_on_c, 0, 72, 76
2, 217551, Note_on_c, 0, 44, 54
2, 217556, Note_on_c, 0, 66, 53
2, 217562, Note_on_c, 0, 68, 57
2, 217594, Control_c, 0, 64, 106
2, 217613, Control_c, 0, 64, 78
2, 217632, Control_c, 0, 64, 61
2, 217651, Control_c, 0, 64, 0
2, 217747, Control_c, 0, 64, 35
2, 217767, Control_c, 0, 64, 60
2, 217785, Control_c, 0, 64, 68
2, 217805, Control_c, 0, 64, 77
2, 217824, Control_c, 0, 64, 99
2, 217843, Control_c, 0, 64, 127
2, 217923, Note_on_c, 0, 72, 0
2, 217935, Note_on_c, 0, 44, 0
2, 217935, Note_on_c, 0, 66, 0
2, 217959, Note_on_c, 0, 68, 0
2, 218189, Control_c, 0, 67, 15
2, 218208, Control_c, 0, 67, 29
2, 218227, Control_c, 0, 67, 40
2, 218247, Control_c, 0, 67, 49
2, 218265, Control_c, 0, 67, 61
2, 218285, Control_c, 0, 67, 74
2, 218304, Control_c, 0, 67, 91
2, 218323, Control_c, 0, 67, 109
2, 218342, Control_c, 0, 67, 127
2, 218419, Note_on_c, 0, 37, 57
2, 218494, Note_on_c, 0, 61, 60
2, 218569, Note_on_c, 0, 65, 64
2, 218646, Note_on_c, 0, 68, 76
2, 218727, Note_on_c, 0, 73, 76
2, 218764, Control_c, 0, 64, 119
2, 218783, Control_c, 0, 64, 110
2, 218802, Control_c, 0, 64, 102
2, 218824, Control_c, 0, 64, 91
2, 218844, Control_c, 0, 64, 81
2, 218863, Control_c, 0, 64, 71
2, 218882, Control_c, 0, 64, 63
2, 218901, Control_c, 0, 64, 52
2, 218921, Control_c, 0, 64, 21
2, 218939, Control_c, 0, 64, 0
2, 219752, Control_c, 0, 64, 17
2, 219770, Control_c, 0, 64, 38
2, 219790, Control_c, 0, 64, 49
2, 219809, Control_c, 0, 64, 54
2, 219829, Control_c, 0, 64, 57
2, 219847, Control_c, 0, 64, 59
2, 219867, Control_c, 0, 64, 60
2, 219889, Control_c, 0, 64, 61
2, 219907, Control_c, 0, 64, 63
2, 219927, Control_c, 0, 64, 64
2, 219946, Control_c, 0, 64, 65
2, 219966, Control_c, 0, 64, 66
2, 219984, Control_c, 0, 64, 69
2, 220004, Control_c, 0, 64, 72
2, 220023, Control_c, 0, 64, 76
2, 220043, Control_c, 0, 64, 80
2, 220061, Control_c, 0, 64, 83
2, 220081, Control_c, 0, 64, 86
2, 220103, Control_c, 0, 64, 89
2, 220121, Control_c, 0, 64, 93
2, 220141, Control_c, 0, 64, 99
2, 220160, Control_c, 0, 64, 105
2, 220180, Control_c, 0, 64, 115
2, 220198, Control_c, 0, 64, 127
2, 220295, Note_on_c, 0, 61, 0
2, 220435, Note_on_c, 0, 65, 0
2, 220560, Note_on_c, 0, 73, 0
2, 220619, Note_on_c, 0, 37, 0
2, 220624, Note_on_c, 0, 68, 0
2, 221292, Control_c, 0, 64, 117
2, 221311, Control_c, 0, 64, 106
2, 221331, Control_c, 0, 64, 99
2, 221350, Control_c, 0, 64, 93
2, 221369, Control_c, 0, 64, 88
2, 221388, Control_c, 0, 64, 84
2, 221408, Control_c, 0, 64, 80
2, 221426, Control_c, 0, 64, 76
2, 221445, Control_c, 0, 64, 74
2, 221465, Control_c, 0, 64, 72
2, 221484, Control_c, 0, 64, 71
2, 221503, Control_c, 0, 64, 69
2, 221522, Control_c, 0, 64, 67
2, 221542, Control_c, 0, 64, 65
2, 221560, Control_c, 0, 64, 63
2, 221580, Control_c, 0, 64, 61
2, 221599, Control_c, 0, 64, 59
2, 221619, Control_c, 0, 64, 58
2, 221637, Control_c, 0, 64, 57
2, 221657, Control_c, 0, 64, 55
2, 221676, Control_c, 0, 64, 50
2, 221696, Control_c, 0, 64, 42
2, 221714, Control_c, 0, 64, 29
2, 221734, Control_c, 0, 64, 13
2, 221753, Control_c, 0, 64, 0
2, 221754, End_track
0, 0, End_of_file
