0, 0, Header, 1, 2, 480
1, 0, Start_track
1, 0, Tempo, 500000
1, 0, Time_signature, 4, 2, 24, 8
1, 1, End_track
2,0,Start_track
2,0, Note_on_c, 0, 68, 62
2,44, Note_on_c, 0, 68, 0
2,115, Control_c, 0, 64, 23
2,135, Control_c, 0, 64, 21
2,153, Control_c, 0, 64, 20
2,173, Control_c, 0, 64, 18
2,192, Control_c, 0, 64, 17
2,230, Control_c, 0, 64, 15
2,341, Note_on_c, 0, 70, 60
2,367, Control_c, 0, 64, 13
2,387, Control_c, 0, 64, 9
2,406, Control_c, 0, 64, 0
2,494, Note_on_c, 0, 68, 70
2,568, Note_on_c, 0, 70, 0
2,640, Note_on_c, 0, 68, 0
2,664, Note_on_c, 0, 66, 72
2,771, Control_c, 0, 67, 121
2,782, Note_on_c, 0, 66, 0
2,790, Control_c, 0, 67, 110
2,798, Note_on_c, 0, 68, 73
2,809, Control_c, 0, 67, 93
2,829, Control_c, 0, 67, 73
2,847, Control_c, 0, 67, 51
2,867, Control_c, 0, 67, 30
2,886, Control_c, 0, 67, 11
2,906, Control_c, 0, 67, 0
2,980, Note_on_c, 0, 77, 74
2,994, Note_on_c, 0, 68, 0
2,1034, Note_on_c, 0, 77, 0
2,1316, Note_on_c, 0, 73, 65
2,1372, Note_on_c, 0, 73, 0
2,1660, Note_on_c, 0, 68, 61
2,2024, Note_on_c, 0, 66, 57
2,2057, Note_on_c, 0, 68, 0
2,2150, Note_on_c, 0, 66, 0
2,2169, Note_on_c, 0, 65, 46
2,2331, Note_on_c, 0, 65, 0
2,2331, Note_on_c, 0, 66, 59
2,2378, Note_on_c, 0, 66, 0
2,2676, Note_on_c, 0, 75, 61
2,2721, Note_on_c, 0, 75, 0
2,2748, Control_c, 0, 67, 9
2,2766, Control_c, 0, 67, 10
2,2786, Control_c, 0, 67, 11
2,2805, Control_c, 0, 67, 12
2,2825, Control_c, 0, 67, 13
2,2843, Control_c, 0, 67, 15
2,2862, Control_c, 0, 67, 15
2,2881, Control_c, 0, 67, 16
2,2900, Control_c, 0, 67, 17
2,2919, Control_c, 0, 67, 18
2,2938, Control_c, 0, 67, 18
2,2976, Control_c, 0, 67, 19
2,3017, Note_on_c, 0, 65, 52
2,3061, Note_on_c, 0, 65, 0
2,3364, Note_on_c, 0, 73, 57
2,3413, Note_on_c, 0, 73, 0
2,3720, Note_on_c, 0, 63, 58
2,3726, Control_c, 0, 67, 19
2,3768, Note_on_c, 0, 63, 0
2,3861, Control_c, 0, 67, 20
2,3937, Control_c, 0, 67, 20
2,4034, Control_c, 0, 67, 21
2,4053, Control_c, 0, 67, 21
2,4066, Note_on_c, 0, 72, 55
2,4072, Control_c, 0, 67, 22
2,4091, Control_c, 0, 67, 25
2,4111, Control_c, 0, 67, 28
2,4114, Note_on_c, 0, 72, 0
2,4130, Control_c, 0, 67, 30
2,4149, Control_c, 0, 67, 32
2,4168, Control_c, 0, 67, 34
2,4188, Control_c, 0, 67, 36
2,4206, Control_c, 0, 67, 37
2,4226, Control_c, 0, 67, 39
2,4245, Control_c, 0, 67, 41
2,4265, Control_c, 0, 67, 43
2,4283, Control_c, 0, 67, 45
2,4302, Control_c, 0, 67, 47
2,4322, Control_c, 0, 67, 48
2,4341, Control_c, 0, 67, 48
2,4360, Control_c, 0, 67, 49
2,4405, Note_on_c, 0, 61, 49
2,4417, Control_c, 0, 64, 52
2,4437, Control_c, 0, 64, 65
2,4437, Control_c, 0, 67, 48
2,4442, Note_on_c, 0, 61, 0
2,4456, Control_c, 0, 64, 74
2,4476, Control_c, 0, 64, 88
2,4494, Control_c, 0, 64, 111
2,4514, Control_c, 0, 64, 127
2,4533, Control_c, 0, 67, 48
2,4552, Control_c, 0, 67, 47
2,4571, Control_c, 0, 67, 47
2,4591, Control_c, 0, 67, 46
2,4610, Control_c, 0, 67, 46
2,4725, Control_c, 0, 64, 116
2,4727, Note_on_c, 0, 73, 56
2,4745, Control_c, 0, 64, 102
2,4763, Control_c, 0, 64, 94
2,4782, Control_c, 0, 64, 84
2,4782, Control_c, 0, 67, 45
2,4802, Control_c, 0, 64, 72
2,4821, Control_c, 0, 64, 63
2,4821, Control_c, 0, 67, 45
2,4840, Control_c, 0, 64, 42
2,4841, Note_on_c, 0, 73, 0
2,4859, Control_c, 0, 64, 0
2,4881, Note_on_c, 0, 72, 67
2,4936, Control_c, 0, 67, 44
2,4974, Control_c, 0, 67, 44
2,5013, Control_c, 0, 67, 43
2,5032, Control_c, 0, 67, 43
2,5057, Note_on_c, 0, 73, 71
2,5059, Note_on_c, 0, 72, 0
2,5203, Note_on_c, 0, 75, 72
2,5226, Note_on_c, 0, 73, 0
2,5302, Note_on_c, 0, 75, 0
2,5359, Control_c, 0, 67, 42
2,5361, Note_on_c, 0, 77, 75
2,5368, Note_on_c, 0, 61, 78
2,5377, Control_c, 0, 67, 41
2,5397, Control_c, 0, 67, 39
2,5403, Note_on_c, 0, 61, 0
2,5416, Control_c, 0, 67, 35
2,5436, Control_c, 0, 67, 31
2,5454, Control_c, 0, 67, 21
2,5474, Control_c, 0, 67, 0
2,5514, Note_on_c, 0, 78, 75
2,5545, Note_on_c, 0, 77, 0
2,5680, Note_on_c, 0, 65, 71
2,5686, Note_on_c, 0, 80, 78
2,5713, Note_on_c, 0, 78, 0
2,5804, Note_on_c, 0, 63, 78
2,5839, Note_on_c, 0, 79, 78
2,5841, Note_on_c, 0, 65, 0
2,5889, Note_on_c, 0, 80, 0
2,5958, Note_on_c, 0, 61, 68
2,5978, Note_on_c, 0, 63, 0
2,5985, Note_on_c, 0, 77, 76
2,5994, Note_on_c, 0, 79, 0
2,6113, Note_on_c, 0, 63, 78
2,6126, Note_on_c, 0, 79, 82
2,6127, Note_on_c, 0, 61, 0
2,6170, Note_on_c, 0, 77, 0
2,6178, Note_on_c, 0, 63, 0
2,6286, Note_on_c, 0, 72, 87
2,6297, Note_on_c, 0, 79, 0
2,6306, Note_on_c, 0, 80, 74
2,6328, Note_on_c, 0, 72, 0
2,6449, Note_on_c, 0, 78, 65
2,6489, Note_on_c, 0, 80, 0
2,6600, Note_on_c, 0, 78, 0
2,6610, Note_on_c, 0, 68, 80
2,6619, Note_on_c, 0, 77, 66
2,6644, Note_on_c, 0, 68, 0
2,6754, Note_on_c, 0, 77, 0
2,6764, Note_on_c, 0, 75, 70
2,6935, Note_on_c, 0, 77, 67
2,6942, Note_on_c, 0, 63, 65
2,6949, Note_on_c, 0, 75, 0
2,7278, Note_on_c, 0, 61, 64
2,7325, Note_on_c, 0, 63, 0
2,7410, Note_on_c, 0, 60, 69
2,7412, Note_on_c, 0, 61, 0
2,7538, Note_on_c, 0, 60, 0
2,7586, Note_on_c, 0, 61, 73
2,7624, Note_on_c, 0, 61, 0
2,7729, Note_on_c, 0, 75, 67
2,7773, Note_on_c, 0, 77, 0
2,7896, Note_on_c, 0, 70, 85
2,7907, Note_on_c, 0, 73, 62
2,7913, Note_on_c, 0, 75, 0
2,7940, Note_on_c, 0, 70, 0
2,8002, Note_on_c, 0, 73, 0
2,8050, Note_on_c, 0, 77, 59
2,8193, Note_on_c, 0, 77, 0
2,8219, Note_on_c, 0, 60, 74
2,8231, Note_on_c, 0, 75, 62
2,8266, Note_on_c, 0, 60, 0
2,8377, Note_on_c, 0, 73, 55
2,8447, Note_on_c, 0, 75, 0
2,8533, Note_on_c, 0, 68, 78
2,8538, Note_on_c, 0, 73, 0
2,8549, Note_on_c, 0, 72, 63
2,8631, Note_on_c, 0, 68, 0
2,8695, Note_on_c, 0, 72, 0
2,8697, Note_on_c, 0, 75, 61
2,8873, Note_on_c, 0, 58, 65
2,8893, Note_on_c, 0, 73, 53
2,8934, Note_on_c, 0, 58, 0
2,8951, Note_on_c, 0, 75, 0
2,9028, Note_on_c, 0, 72, 56
2,9050, Note_on_c, 0, 73, 0
2,9186, Note_on_c, 0, 72, 0
2,9191, Note_on_c, 0, 67, 61
2,9200, Note_on_c, 0, 73, 64
2,9243, Note_on_c, 0, 67, 0
2,9346, Note_on_c, 0, 70, 63
2,9348, Note_on_c, 0, 73, 0
2,9446, Note_on_c, 0, 70, 0
2,9504, Note_on_c, 0, 56, 53
2,9511, Note_on_c, 0, 72, 62
2,9547, Control_c, 0, 64, 42
2,9565, Control_c, 0, 64, 65
2,9584, Control_c, 0, 64, 76
2,9591, Note_on_c, 0, 56, 0
2,9603, Control_c, 0, 64, 121
2,9621, Control_c, 0, 64, 127
2,9808, Note_on_c, 0, 72, 0
2,9828, Note_on_c, 0, 75, 80
2,9834, Note_on_c, 0, 68, 71
2,9891, Control_c, 0, 64, 94
2,9910, Control_c, 0, 64, 71
2,9929, Control_c, 0, 64, 55
2,9949, Control_c, 0, 64, 0
2,9961, Note_on_c, 0, 68, 0
2,9973, Note_on_c, 0, 67, 64
2,10123, Note_on_c, 0, 67, 0
2,10124, Note_on_c, 0, 68, 81
2,10130, Note_on_c, 0, 78, 83
2,10132, Note_on_c, 0, 75, 0
2,10156, Note_on_c, 0, 68, 0
2,10275, Note_on_c, 0, 70, 68
2,10417, Note_on_c, 0, 70, 0
2,10435, Note_on_c, 0, 56, 80
2,10446, Note_on_c, 0, 72, 74
2,10477, Note_on_c, 0, 56, 0
2,10563, Note_on_c, 0, 72, 0
2,10584, Note_on_c, 0, 68, 76
2,10747, Note_on_c, 0, 73, 72
2,10763, Note_on_c, 0, 58, 75
2,10791, Note_on_c, 0, 68, 0
2,10881, Note_on_c, 0, 56, 81
2,10892, Note_on_c, 0, 72, 76
2,10905, Note_on_c, 0, 58, 0
2,10999, Note_on_c, 0, 73, 0
2,11029, Note_on_c, 0, 54, 72
2,11045, Note_on_c, 0, 56, 0
2,11045, Note_on_c, 0, 72, 0
2,11047, Note_on_c, 0, 70, 77
2,11137, Note_on_c, 0, 78, 0
2,11157, Note_on_c, 0, 70, 0
2,11159, Note_on_c, 0, 54, 0
2,11184, Note_on_c, 0, 56, 76
2,11192, Note_on_c, 0, 72, 82
2,11253, Note_on_c, 0, 56, 0
2,11275, Note_on_c, 0, 72, 0
2,11358, Note_on_c, 0, 77, 76
2,11359, Note_on_c, 0, 65, 77
2,11371, Note_on_c, 0, 73, 77
2,11411, Note_on_c, 0, 65, 0
2,11465, Note_on_c, 0, 73, 0
2,11509, Note_on_c, 0, 72, 77
2,11665, Note_on_c, 0, 61, 77
2,11673, Note_on_c, 0, 70, 74
2,11675, Note_on_c, 0, 72, 0
2,11697, Note_on_c, 0, 61, 0
2,11805, Note_on_c, 0, 70, 0
2,11806, Note_on_c, 0, 68, 71
2,11984, Note_on_c, 0, 56, 73
2,11984, Note_on_c, 0, 70, 77
2,11991, Note_on_c, 0, 68, 0
2,12298, Note_on_c, 0, 54, 66
2,12328, Note_on_c, 0, 56, 0
2,12330, Note_on_c, 0, 77, 0
2,12435, Note_on_c, 0, 53, 71
2,12468, Note_on_c, 0, 54, 0
2,12559, Note_on_c, 0, 53, 0
2,12597, Note_on_c, 0, 75, 75
2,12609, Note_on_c, 0, 70, 0
2,12617, Note_on_c, 0, 54, 78
2,12651, Note_on_c, 0, 54, 0
2,12747, Note_on_c, 0, 68, 68
2,12920, Note_on_c, 0, 63, 79
2,12928, Note_on_c, 0, 68, 0
2,12939, Note_on_c, 0, 66, 63
2,12976, Note_on_c, 0, 63, 0
2,13083, Note_on_c, 0, 70, 64
2,13110, Note_on_c, 0, 66, 0
2,13233, Note_on_c, 0, 53, 72
2,13245, Note_on_c, 0, 68, 60
2,13289, Note_on_c, 0, 53, 0
2,13320, Note_on_c, 0, 70, 0
2,13397, Note_on_c, 0, 66, 56
2,13439, Note_on_c, 0, 75, 0
2,13487, Note_on_c, 0, 68, 0
2,13520, Note_on_c, 0, 66, 0
2,13557, Note_on_c, 0, 61, 76
2,13563, Note_on_c, 0, 73, 64
2,13573, Note_on_c, 0, 65, 55
2,13611, Control_c, 0, 67, 9
2,13618, Note_on_c, 0, 61, 0
2,13631, Control_c, 0, 67, 10
2,13650, Control_c, 0, 67, 12
2,13669, Control_c, 0, 67, 13
2,13688, Control_c, 0, 67, 15
2,13708, Control_c, 0, 67, 16
2,13710, Note_on_c, 0, 68, 61
2,13718, Note_on_c, 0, 73, 0
2,13727, Control_c, 0, 67, 17
2,13746, Control_c, 0, 67, 19
2,13765, Control_c, 0, 67, 20
2,13780, Note_on_c, 0, 65, 0
2,13785, Control_c, 0, 67, 22
2,13803, Control_c, 0, 67, 25
2,13823, Control_c, 0, 67, 28
2,13842, Control_c, 0, 67, 32
2,13862, Control_c, 0, 67, 37
2,13865, Note_on_c, 0, 68, 0
2,13875, Note_on_c, 0, 51, 66
2,13880, Control_c, 0, 67, 44
2,13881, Note_on_c, 0, 72, 64
2,13900, Control_c, 0, 67, 53
2,13908, Note_on_c, 0, 66, 53
2,13919, Control_c, 0, 67, 61
2,13929, Note_on_c, 0, 51, 0
2,13939, Control_c, 0, 67, 70
2,13957, Control_c, 0, 67, 78
2,13977, Control_c, 0, 67, 84
2,13986, Note_on_c, 0, 72, 0
2,13996, Control_c, 0, 67, 89
2,14015, Control_c, 0, 67, 92
2,14018, Note_on_c, 0, 66, 0
2,14034, Control_c, 0, 67, 95
2,14040, Note_on_c, 0, 65, 54
2,14053, Control_c, 0, 67, 98
2,14073, Control_c, 0, 67, 100
2,14091, Control_c, 0, 67, 102
2,14111, Control_c, 0, 67, 104
2,14130, Control_c, 0, 67, 106
2,14144, Note_on_c, 0, 65, 0
2,14149, Control_c, 0, 67, 107
2,14168, Control_c, 0, 67, 108
2,14180, Note_on_c, 0, 60, 69
2,14189, Control_c, 0, 67, 109
2,14200, Note_on_c, 0, 75, 64
2,14206, Note_on_c, 0, 66, 51
2,14208, Control_c, 0, 67, 111
2,14227, Control_c, 0, 67, 112
2,14234, Note_on_c, 0, 60, 0
2,14246, Control_c, 0, 67, 112
2,14284, Control_c, 0, 67, 113
2,14335, Note_on_c, 0, 63, 59
2,14372, Note_on_c, 0, 66, 0
2,14387, Note_on_c, 0, 63, 0
2,14400, Control_c, 0, 67, 113
2,14503, Note_on_c, 0, 49, 67
2,14514, Note_on_c, 0, 65, 52
2,14535, Control_c, 0, 67, 113
2,14553, Control_c, 0, 64, 47
2,14572, Control_c, 0, 64, 66
2,14592, Control_c, 0, 64, 76
2,14592, Control_c, 0, 67, 112
2,14592, Note_on_c, 0, 49, 0
2,14611, Control_c, 0, 64, 104
2,14630, Control_c, 0, 64, 127
2,14630, Control_c, 0, 67, 112
2,14688, Control_c, 0, 67, 111
2,14779, Note_on_c, 0, 75, 0
2,14823, Control_c, 0, 67, 112
2,14851, Note_on_c, 0, 65, 0
2,14857, Note_on_c, 0, 68, 72
2,14861, Control_c, 0, 67, 112
2,14870, Note_on_c, 0, 61, 59
2,14938, Control_c, 0, 64, 90
2,14957, Control_c, 0, 64, 73
2,14976, Control_c, 0, 64, 63
2,14995, Control_c, 0, 64, 43
2,14995, Control_c, 0, 67, 113
2,15002, Note_on_c, 0, 61, 0
2,15014, Control_c, 0, 64, 0
2,15023, Note_on_c, 0, 60, 53
2,15052, Control_c, 0, 67, 113
2,15156, Note_on_c, 0, 60, 0
2,15161, Note_on_c, 0, 77, 80
2,15181, Note_on_c, 0, 61, 55
2,15187, Control_c, 0, 67, 114
2,15196, Note_on_c, 0, 68, 0
2,15206, Control_c, 0, 67, 114
2,15226, Control_c, 0, 67, 115
2,15264, Control_c, 0, 67, 116
2,15303, Control_c, 0, 67, 116
2,15318, Note_on_c, 0, 63, 48
2,15349, Note_on_c, 0, 61, 0
2,15397, Control_c, 0, 67, 117
2,15432, Note_on_c, 0, 63, 0
2,15436, Control_c, 0, 67, 117
2,15474, Control_c, 0, 67, 118
2,15474, Note_on_c, 0, 68, 79
2,15484, Note_on_c, 0, 65, 37
2,15508, Note_on_c, 0, 68, 0
2,15565, Note_on_c, 0, 65, 0
2,15570, Control_c, 0, 67, 117
2,15634, Note_on_c, 0, 61, 38
2,15685, Control_c, 0, 67, 117
2,15742, Note_on_c, 0, 61, 0
2,15743, Control_c, 0, 67, 116
2,15798, Note_on_c, 0, 73, 73
2,15808, Note_on_c, 0, 58, 42
2,15915, Note_on_c, 0, 77, 0
2,15916, Control_c, 0, 67, 116
2,15951, Note_on_c, 0, 58, 0
2,15958, Note_on_c, 0, 60, 54
2,16038, Note_on_c, 0, 60, 0
2,16050, Control_c, 0, 67, 115
2,16092, Note_on_c, 0, 61, 58
2,16112, Note_on_c, 0, 77, 76
2,16127, Control_c, 0, 67, 115
2,16137, Note_on_c, 0, 73, 0
2,16200, Note_on_c, 0, 61, 0
2,16250, Note_on_c, 0, 58, 48
2,16250, Note_on_c, 0, 73, 80
2,16307, Note_on_c, 0, 77, 0
2,16368, Note_on_c, 0, 58, 0
2,16416, Note_on_c, 0, 55, 50
2,16429, Note_on_c, 0, 70, 74
2,16447, Note_on_c, 0, 73, 0
2,16565, Note_on_c, 0, 56, 55
2,16567, Note_on_c, 0, 55, 0
2,16660, Note_on_c, 0, 56, 0
2,16715, Note_on_c, 0, 58, 52
2,16730, Note_on_c, 0, 73, 65
2,16746, Note_on_c, 0, 70, 0
2,16780, Control_c, 0, 67, 115
2,16787, Note_on_c, 0, 58, 0
2,16865, Note_on_c, 0, 55, 49
2,16887, Note_on_c, 0, 70, 65
2,16938, Note_on_c, 0, 73, 0
2,16943, Note_on_c, 0, 55, 0
2,17045, Note_on_c, 0, 70, 0
2,17058, Note_on_c, 0, 63, 56
2,17074, Note_on_c, 0, 48, 33
2,17105, Control_c, 0, 67, 115
2,17163, Control_c, 0, 64, 55
2,17182, Control_c, 0, 64, 66
2,17201, Control_c, 0, 64, 74
2,17221, Control_c, 0, 64, 91
2,17239, Control_c, 0, 64, 127
2,17259, Control_c, 0, 67, 114
2,17262, Note_on_c, 0, 63, 0
2,17271, Note_on_c, 0, 48, 0
2,17298, Control_c, 0, 67, 114
2,17316, Control_c, 0, 67, 113
2,17336, Control_c, 0, 67, 113
2,17394, Note_on_c, 0, 70, 73
2,17400, Note_on_c, 0, 60, 51
2,17450, Control_c, 0, 67, 113
2,17509, Control_c, 0, 64, 108
2,17527, Control_c, 0, 64, 84
2,17541, Note_on_c, 0, 58, 60
2,17547, Control_c, 0, 64, 70
2,17547, Control_c, 0, 67, 113
2,17557, Note_on_c, 0, 60, 0
2,17566, Control_c, 0, 64, 59
2,17585, Control_c, 0, 64, 26
2,17604, Control_c, 0, 64, 0
2,17624, Control_c, 0, 67, 113
2,17717, Note_on_c, 0, 75, 82
2,17727, Note_on_c, 0, 58, 0
2,17746, Note_on_c, 0, 60, 54
2,17748, Note_on_c, 0, 70, 0
2,17835, Control_c, 0, 67, 114
2,17846, Note_on_c, 0, 60, 0
2,17873, Control_c, 0, 67, 114
2,17876, Note_on_c, 0, 61, 59
2,18029, Note_on_c, 0, 61, 0
2,18036, Note_on_c, 0, 63, 57
2,18057, Note_on_c, 0, 67, 66
2,18109, Note_on_c, 0, 67, 0
2,18113, Note_on_c, 0, 63, 0
2,18192, Note_on_c, 0, 60, 46
2,18291, Note_on_c, 0, 60, 0
2,18373, Note_on_c, 0, 56, 49
2,18386, Note_on_c, 0, 72, 64
2,18499, Note_on_c, 0, 75, 0
2,18513, Note_on_c, 0, 56, 0
2,18526, Control_c, 0, 67, 114
2,18532, Note_on_c, 0, 58, 48
2,18641, Control_c, 0, 67, 113
2,18641, Note_on_c, 0, 58, 0
2,18685, Note_on_c, 0, 75, 71
2,18694, Note_on_c, 0, 72, 0
2,18699, Control_c, 0, 67, 113
2,18712, Note_on_c, 0, 60, 49
2,18846, Note_on_c, 0, 72, 72
2,18859, Note_on_c, 0, 56, 51
2,18870, Note_on_c, 0, 75, 0
2,18944, Note_on_c, 0, 60, 0
2,18993, Note_on_c, 0, 56, 0
2,19010, Note_on_c, 0, 72, 0
2,19020, Note_on_c, 0, 68, 64
2,19029, Note_on_c, 0, 53, 52
2,19064, Control_c, 0, 67, 113
2,19141, Control_c, 0, 67, 114
2,19150, Note_on_c, 0, 53, 0
2,19172, Note_on_c, 0, 55, 51
2,19179, Control_c, 0, 67, 114
2,19198, Control_c, 0, 67, 115
2,19275, Control_c, 0, 67, 115
2,19276, Note_on_c, 0, 55, 0
2,19306, Note_on_c, 0, 72, 62
2,19331, Note_on_c, 0, 56, 55
2,19332, Control_c, 0, 67, 116
2,19338, Note_on_c, 0, 68, 0
2,19370, Control_c, 0, 67, 116
2,19409, Note_on_c, 0, 56, 0
2,19423, Note_on_c, 0, 72, 0
2,19452, Note_on_c, 0, 68, 58
2,19476, Note_on_c, 0, 53, 45
2,19571, Note_on_c, 0, 53, 0
2,19583, Note_on_c, 0, 68, 0
2,19638, Note_on_c, 0, 61, 55
2,19640, Note_on_c, 0, 46, 46
2,19701, Note_on_c, 0, 46, 0
2,19716, Control_c, 0, 64, 59
2,19716, Control_c, 0, 67, 116
2,19736, Control_c, 0, 64, 67
2,19755, Control_c, 0, 64, 75
2,19773, Control_c, 0, 64, 88
2,19781, Note_on_c, 0, 61, 0
2,19793, Control_c, 0, 64, 111
2,19812, Control_c, 0, 64, 127
2,19850, Control_c, 0, 67, 115
2,19870, Control_c, 0, 67, 115
2,19992, Note_on_c, 0, 68, 66
2,20009, Note_on_c, 0, 58, 49
2,20024, Control_c, 0, 64, 107
2,20043, Control_c, 0, 64, 93
2,20062, Control_c, 0, 64, 79
2,20081, Control_c, 0, 64, 67
2,20101, Control_c, 0, 64, 53
2,20104, Note_on_c, 0, 58, 0
2,20119, Control_c, 0, 64, 0
2,20154, Note_on_c, 0, 56, 58
2,20215, Control_c, 0, 67, 114
2,20235, Control_c, 0, 67, 114
2,20253, Control_c, 0, 67, 113
2,20273, Control_c, 0, 67, 112
2,20292, Control_c, 0, 67, 110
2,20304, Note_on_c, 0, 73, 81
2,20312, Control_c, 0, 67, 108
2,20314, Note_on_c, 0, 56, 0
2,20316, Note_on_c, 0, 58, 58
2,20330, Control_c, 0, 67, 105
2,20332, Note_on_c, 0, 68, 0
2,20350, Control_c, 0, 67, 101
2,20369, Control_c, 0, 67, 95
2,20389, Control_c, 0, 67, 80
2,20407, Control_c, 0, 67, 54
2,20427, Control_c, 0, 67, 21
2,20442, Note_on_c, 0, 58, 0
2,20446, Control_c, 0, 67, 0
2,20453, Note_on_c, 0, 60, 64
2,20611, Note_on_c, 0, 60, 0
2,20617, Note_on_c, 0, 61, 68
2,20617, Note_on_c, 0, 65, 72
2,20671, Note_on_c, 0, 65, 0
2,20759, Note_on_c, 0, 58, 62
2,20771, Note_on_c, 0, 61, 0
2,20905, Note_on_c, 0, 58, 0
2,20930, Note_on_c, 0, 70, 81
2,20931, Note_on_c, 0, 73, 0
2,20942, Note_on_c, 0, 55, 54
2,21065, Note_on_c, 0, 72, 86
2,21075, Note_on_c, 0, 70, 0
2,21077, Note_on_c, 0, 56, 71
2,21095, Note_on_c, 0, 55, 0
2,21162, Note_on_c, 0, 56, 0
2,21215, Note_on_c, 0, 58, 72
2,21218, Note_on_c, 0, 73, 87
2,21249, Note_on_c, 0, 72, 0
2,21306, Note_on_c, 0, 58, 0
2,21322, Note_on_c, 0, 73, 0
2,21363, Note_on_c, 0, 70, 87
2,21369, Note_on_c, 0, 55, 72
2,21518, Note_on_c, 0, 82, 91
2,21519, Note_on_c, 0, 55, 0
2,21522, Note_on_c, 0, 51, 74
2,21556, Note_on_c, 0, 70, 0
2,21656, Note_on_c, 0, 51, 0
2,21672, Note_on_c, 0, 53, 69
2,21681, Note_on_c, 0, 73, 71
2,21822, Note_on_c, 0, 55, 68
2,21843, Note_on_c, 0, 73, 0
2,21850, Note_on_c, 0, 75, 80
2,21885, Note_on_c, 0, 53, 0
2,21889, Control_c, 0, 64, 9
2,21901, Note_on_c, 0, 82, 0
2,21908, Control_c, 0, 64, 42
2,21927, Control_c, 0, 64, 58
2,21946, Control_c, 0, 64, 63
2,21966, Control_c, 0, 64, 65
2,21973, Note_on_c, 0, 51, 68
2,21979, Note_on_c, 0, 55, 0
2,21984, Control_c, 0, 64, 67
2,21985, Note_on_c, 0, 70, 80
2,22004, Control_c, 0, 64, 68
2,22012, Note_on_c, 0, 51, 0
2,22023, Control_c, 0, 64, 67
2,22042, Control_c, 0, 64, 64
2,22061, Control_c, 0, 64, 56
2,22072, Note_on_c, 0, 75, 0
2,22081, Control_c, 0, 64, 0
2,22105, Note_on_c, 0, 70, 0
2,22136, Note_on_c, 0, 72, 84
2,22145, Note_on_c, 0, 44, 77
2,22196, Control_c, 0, 64, 27
2,22212, Note_on_c, 0, 44, 0
2,22215, Control_c, 0, 64, 65
2,22235, Control_c, 0, 64, 74
2,22253, Control_c, 0, 64, 103
2,22273, Control_c, 0, 64, 127
2,22275, Note_on_c, 0, 72, 0
2,22285, Note_on_c, 0, 80, 83
2,22436, Note_on_c, 0, 79, 79
2,22440, Note_on_c, 0, 56, 72
2,22446, Control_c, 0, 64, 88
2,22464, Control_c, 0, 64, 70
2,22484, Control_c, 0, 64, 53
2,22494, Note_on_c, 0, 80, 0
2,22503, Control_c, 0, 64, 0
2,22577, Note_on_c, 0, 82, 83
2,22578, Note_on_c, 0, 58, 65
2,22594, Note_on_c, 0, 56, 0
2,22597, Note_on_c, 0, 79, 0
2,22681, Note_on_c, 0, 58, 0
2,22748, Note_on_c, 0, 80, 82
2,22754, Note_on_c, 0, 60, 76
2,22793, Note_on_c, 0, 60, 0
2,22793, Note_on_c, 0, 82, 0
2,22892, Note_on_c, 0, 75, 77
2,22922, Note_on_c, 0, 80, 0
2,23043, Note_on_c, 0, 75, 0
2,23044, Note_on_c, 0, 68, 86
2,23046, Note_on_c, 0, 56, 69
2,23063, Note_on_c, 0, 77, 71
2,23085, Note_on_c, 0, 56, 0
2,23218, Note_on_c, 0, 78, 70
2,23226, Note_on_c, 0, 77, 0
2,23371, Note_on_c, 0, 61, 68
2,23386, Note_on_c, 0, 77, 69
2,23516, Note_on_c, 0, 78, 0
2,23529, Note_on_c, 0, 75, 83
2,23532, Note_on_c, 0, 67, 65
2,23562, Note_on_c, 0, 77, 0
2,23573, Note_on_c, 0, 68, 0
2,23681, Note_on_c, 0, 73, 83
2,23686, Note_on_c, 0, 65, 67
2,23686, Note_on_c, 0, 75, 0
2,23703, Note_on_c, 0, 67, 0
2,23811, Note_on_c, 0, 75, 87
2,23818, Note_on_c, 0, 67, 71
2,23822, Note_on_c, 0, 73, 0
2,23836, Note_on_c, 0, 61, 0
2,23981, Note_on_c, 0, 84, 91
2,23998, Note_on_c, 0, 68, 73
2,24001, Note_on_c, 0, 75, 0
2,24002, Note_on_c, 0, 60, 65
2,24003, Note_on_c, 0, 67, 0
2,24019, Note_on_c, 0, 65, 0
2,24037, Note_on_c, 0, 84, 0
2,24121, Note_on_c, 0, 68, 0
2,24144, Note_on_c, 0, 67, 63
2,24303, Note_on_c, 0, 80, 85
2,24327, Note_on_c, 0, 65, 59
2,24347, Note_on_c, 0, 60, 0
2,24367, Note_on_c, 0, 80, 0
2,24379, Note_on_c, 0, 67, 0
2,24447, Note_on_c, 0, 65, 0
2,24465, Note_on_c, 0, 63, 61
2,24525, Note_on_c, 0, 63, 0
2,24626, Note_on_c, 0, 65, 55
2,24629, Note_on_c, 0, 75, 79
2,24653, Note_on_c, 0, 58, 52
2,24750, Note_on_c, 0, 58, 0
2,24973, Note_on_c, 0, 73, 71
2,24988, Note_on_c, 0, 56, 49
2,25035, Note_on_c, 0, 75, 0
2,25053, Note_on_c, 0, 56, 0
2,25120, Note_on_c, 0, 72, 71
2,25132, Note_on_c, 0, 73, 0
2,25277, Note_on_c, 0, 55, 63
2,25278, Note_on_c, 0, 72, 0
2,25279, Note_on_c, 0, 73, 75
2,25345, Note_on_c, 0, 73, 0
2,25435, Note_on_c, 0, 63, 72
2,25488, Note_on_c, 0, 65, 0
2,25591, Note_on_c, 0, 61, 68
2,25592, Note_on_c, 0, 63, 0
2,25596, Note_on_c, 0, 82, 77
2,25670, Note_on_c, 0, 82, 0
2,25690, Note_on_c, 0, 61, 0
2,25740, Note_on_c, 0, 65, 66
2,25789, Note_on_c, 0, 55, 0
2,25790, Note_on_c, 0, 65, 0
2,25899, Note_on_c, 0, 63, 73
2,25906, Note_on_c, 0, 72, 81
2,25911, Note_on_c, 0, 56, 66
2,25970, Note_on_c, 0, 72, 0
2,26032, Note_on_c, 0, 63, 0
2,26053, Note_on_c, 0, 61, 66
2,26181, Note_on_c, 0, 61, 0
2,26208, Note_on_c, 0, 60, 62
2,26228, Note_on_c, 0, 80, 75
2,26310, Note_on_c, 0, 80, 0
2,26358, Note_on_c, 0, 60, 0
2,26373, Note_on_c, 0, 63, 70
2,26413, Note_on_c, 0, 63, 0
2,26433, Note_on_c, 0, 56, 0
2,26525, Note_on_c, 0, 70, 70
2,26535, Note_on_c, 0, 61, 58
2,26563, Note_on_c, 0, 51, 44
2,26573, Note_on_c, 0, 70, 0
2,26654, Note_on_c, 0, 61, 0
2,26681, Note_on_c, 0, 60, 65
2,26786, Note_on_c, 0, 60, 0
2,26836, Note_on_c, 0, 79, 70
2,26840, Note_on_c, 0, 61, 61
2,26890, Note_on_c, 0, 79, 0
2,26962, Note_on_c, 0, 61, 0
2,26973, Note_on_c, 0, 58, 54
2,26991, Note_on_c, 0, 51, 0
2,27019, Note_on_c, 0, 58, 0
2,27146, Note_on_c, 0, 60, 49
2,27148, Note_on_c, 0, 68, 59
2,27172, Note_on_c, 0, 56, 52
2,27316, Note_on_c, 0, 70, 64
2,27330, Note_on_c, 0, 68, 0
2,27437, Note_on_c, 0, 70, 0
2,27438, Note_on_c, 0, 60, 0
2,27477, Note_on_c, 0, 63, 53
2,27480, Note_on_c, 0, 72, 67
2,27620, Note_on_c, 0, 73, 64
2,27621, Note_on_c, 0, 72, 0
2,27754, Note_on_c, 0, 63, 0
2,27758, Note_on_c, 0, 73, 0
2,27773, Note_on_c, 0, 68, 68
2,27797, Note_on_c, 0, 72, 63
2,27812, Note_on_c, 0, 68, 0
2,27840, Note_on_c, 0, 56, 0
2,27932, Note_on_c, 0, 72, 0
2,27936, Note_on_c, 0, 70, 64
2,28094, Note_on_c, 0, 63, 54
2,28098, Note_on_c, 0, 68, 62
2,28146, Note_on_c, 0, 70, 0
2,28162, Note_on_c, 0, 63, 0
2,28212, Note_on_c, 0, 68, 0
2,28230, Note_on_c, 0, 60, 46
2,28246, Note_on_c, 0, 72, 73
2,28396, Note_on_c, 0, 56, 63
2,28398, Note_on_c, 0, 77, 77
2,28399, Note_on_c, 0, 60, 0
2,28440, Note_on_c, 0, 72, 0
2,28443, Note_on_c, 0, 56, 0
2,28540, Note_on_c, 0, 75, 82
2,28611, Note_on_c, 0, 77, 0
2,28663, Note_on_c, 0, 75, 0
2,28700, Note_on_c, 0, 74, 77
2,28708, Note_on_c, 0, 59, 75
2,28825, Note_on_c, 0, 56, 63
2,28838, Note_on_c, 0, 77, 79
2,28861, Note_on_c, 0, 59, 0
2,28866, Note_on_c, 0, 74, 0
2,28982, Note_on_c, 0, 77, 0
2,28985, Note_on_c, 0, 80, 84
2,28991, Note_on_c, 0, 56, 0
2,28994, Note_on_c, 0, 53, 72
2,29031, Note_on_c, 0, 53, 0
2,29136, Note_on_c, 0, 78, 84
2,29188, Note_on_c, 0, 80, 0
2,29278, Note_on_c, 0, 77, 85
2,29279, Note_on_c, 0, 78, 0
2,29280, Control_c, 0, 64, 41
2,29282, Note_on_c, 0, 56, 73
2,29299, Control_c, 0, 64, 64
2,29318, Control_c, 0, 64, 74
2,29337, Control_c, 0, 64, 99
2,29355, Note_on_c, 0, 56, 0
2,29357, Control_c, 0, 64, 127
2,29394, Note_on_c, 0, 80, 89
2,29408, Note_on_c, 0, 77, 0
2,29422, Note_on_c, 0, 53, 72
2,29452, Note_on_c, 0, 80, 0
2,29507, Note_on_c, 0, 80, 82
2,29570, Control_c, 0, 64, 96
2,29578, Note_on_c, 0, 82, 85
2,29579, Note_on_c, 0, 53, 0
2,29586, Note_on_c, 0, 50, 62
2,29588, Control_c, 0, 64, 80
2,29590, Note_on_c, 0, 80, 0
2,29608, Control_c, 0, 64, 69
2,29627, Control_c, 0, 64, 59
2,29642, Note_on_c, 0, 83, 81
2,29646, Control_c, 0, 64, 0
2,29687, Note_on_c, 0, 82, 0
2,29723, Control_c, 0, 67, 8
2,29742, Control_c, 0, 67, 10
2,29761, Control_c, 0, 67, 12
2,29780, Control_c, 0, 67, 13
2,29799, Control_c, 0, 67, 14
2,29968, Note_on_c, 0, 82, 78
2,29980, Note_on_c, 0, 53, 45
2,30019, Note_on_c, 0, 83, 0
2,30049, Control_c, 0, 67, 13
2,30110, Note_on_c, 0, 80, 78
2,30135, Note_on_c, 0, 56, 56
2,30181, Note_on_c, 0, 82, 0
2,30183, Control_c, 0, 67, 14
2,30198, Note_on_c, 0, 53, 0
2,30234, Note_on_c, 0, 50, 0
2,30264, Note_on_c, 0, 56, 0
2,30271, Note_on_c, 0, 78, 76
2,30291, Note_on_c, 0, 59, 64
2,30305, Note_on_c, 0, 80, 0
2,30336, Control_c, 0, 67, 14
2,30408, Note_on_c, 0, 78, 0
2,30426, Note_on_c, 0, 77, 71
2,30433, Control_c, 0, 67, 14
2,30452, Control_c, 0, 67, 13
2,30490, Control_c, 0, 67, 13
2,30510, Control_c, 0, 67, 12
2,30529, Control_c, 0, 67, 12
2,30547, Control_c, 0, 67, 11
2,30567, Control_c, 0, 67, 10
2,30576, Note_on_c, 0, 53, 67
2,30576, Note_on_c, 0, 75, 74
2,30586, Control_c, 0, 64, 30
2,30586, Control_c, 0, 67, 10
2,30606, Control_c, 0, 64, 62
2,30606, Control_c, 0, 67, 9
2,30610, Note_on_c, 0, 77, 0
2,30624, Control_c, 0, 64, 69
2,30644, Control_c, 0, 64, 78
2,30663, Control_c, 0, 64, 94
2,30682, Control_c, 0, 64, 127
2,30687, Note_on_c, 0, 59, 0
2,30737, Note_on_c, 0, 74, 64
2,30758, Note_on_c, 0, 75, 0
2,30778, Control_c, 0, 67, 10
2,30798, Control_c, 0, 64, 119
2,30816, Control_c, 0, 64, 102
2,30836, Control_c, 0, 64, 86
2,30836, Control_c, 0, 67, 10
2,30855, Control_c, 0, 64, 71
2,30855, Control_c, 0, 67, 11
2,30861, Note_on_c, 0, 53, 0
2,30875, Control_c, 0, 64, 55
2,30885, Note_on_c, 0, 74, 0
2,30889, Note_on_c, 0, 54, 59
2,30893, Control_c, 0, 64, 0
2,30896, Note_on_c, 0, 58, 62
2,30901, Note_on_c, 0, 75, 71
2,30913, Control_c, 0, 67, 11
2,30990, Control_c, 0, 64, 32
2,31009, Control_c, 0, 64, 59
2,31027, Control_c, 0, 64, 64
2,31046, Note_on_c, 0, 75, 0
2,31047, Control_c, 0, 64, 67
2,31047, Note_on_c, 0, 78, 67
2,31066, Control_c, 0, 64, 70
2,31086, Control_c, 0, 64, 73
2,31095, Note_on_c, 0, 58, 0
2,31104, Control_c, 0, 64, 75
2,31104, Control_c, 0, 67, 12
2,31143, Control_c, 0, 64, 73
2,31143, Control_c, 0, 67, 11
2,31150, Note_on_c, 0, 54, 0
2,31162, Control_c, 0, 64, 70
2,31162, Control_c, 0, 67, 11
2,31175, Note_on_c, 0, 78, 0
2,31181, Control_c, 0, 64, 63
2,31181, Control_c, 0, 67, 10
2,31201, Control_c, 0, 64, 46
2,31201, Control_c, 0, 67, 10
2,31211, Note_on_c, 0, 56, 69
2,31213, Note_on_c, 0, 59, 68
2,31220, Control_c, 0, 64, 0
2,31220, Note_on_c, 0, 77, 63
2,31258, Control_c, 0, 67, 9
2,31278, Control_c, 0, 64, 35
2,31296, Control_c, 0, 64, 59
2,31316, Control_c, 0, 64, 65
2,31316, Control_c, 0, 67, 10
2,31319, Note_on_c, 0, 59, 0
2,31335, Control_c, 0, 64, 68
2,31346, Note_on_c, 0, 56, 0
2,31355, Control_c, 0, 64, 73
2,31366, Note_on_c, 0, 75, 68
2,31373, Control_c, 0, 64, 79
2,31393, Control_c, 0, 64, 84
2,31412, Control_c, 0, 64, 84
2,31432, Control_c, 0, 64, 81
2,31436, Note_on_c, 0, 77, 0
2,31450, Control_c, 0, 64, 75
2,31472, Control_c, 0, 64, 66
2,31491, Control_c, 0, 64, 50
2,31510, Control_c, 0, 64, 0
2,31531, Note_on_c, 0, 58, 59
2,31540, Note_on_c, 0, 74, 60
2,31586, Control_c, 0, 64, 42
2,31599, Note_on_c, 0, 75, 0
2,31606, Control_c, 0, 64, 61
2,31625, Control_c, 0, 64, 66
2,31644, Control_c, 0, 64, 70
2,31658, Note_on_c, 0, 74, 0
2,31663, Control_c, 0, 64, 77
2,31674, Note_on_c, 0, 77, 68
2,31681, Control_c, 0, 64, 85
2,31700, Control_c, 0, 64, 90
2,31725, Note_on_c, 0, 77, 0
2,31738, Control_c, 0, 64, 87
2,31758, Control_c, 0, 64, 80
2,31776, Control_c, 0, 64, 70
2,31796, Control_c, 0, 64, 59
2,31815, Control_c, 0, 64, 0
2,31826, Note_on_c, 0, 50, 52
2,31839, Note_on_c, 0, 46, 48
2,31843, Note_on_c, 0, 70, 70
2,31912, Control_c, 0, 64, 51
2,31926, Note_on_c, 0, 58, 0
2,31930, Control_c, 0, 64, 64
2,31950, Control_c, 0, 64, 70
2,31963, Note_on_c, 0, 50, 0
2,31969, Control_c, 0, 64, 83
2,31974, Note_on_c, 0, 46, 0
2,31978, Note_on_c, 0, 68, 71
2,31987, Control_c, 0, 64, 95
2,32007, Control_c, 0, 64, 104
2,32007, Control_c, 0, 67, 10
2,32046, Control_c, 0, 64, 99
2,32064, Control_c, 0, 64, 89
2,32077, Note_on_c, 0, 70, 0
2,32084, Control_c, 0, 64, 79
2,32103, Control_c, 0, 64, 72
2,32122, Control_c, 0, 64, 66
2,32141, Control_c, 0, 64, 62
2,32141, Control_c, 0, 67, 11
2,32156, Note_on_c, 0, 66, 67
2,32161, Control_c, 0, 64, 49
2,32167, Note_on_c, 0, 51, 59
2,32180, Control_c, 0, 64, 0
2,32180, Control_c, 0, 67, 11
2,32186, Note_on_c, 0, 39, 57
2,32193, Note_on_c, 0, 68, 0
2,32313, Note_on_c, 0, 66, 0
2,32315, Control_c, 0, 67, 11
2,32319, Note_on_c, 0, 65, 67
2,32333, Control_c, 0, 67, 10
2,32353, Control_c, 0, 67, 9
2,32372, Control_c, 0, 67, 0
2,32479, Note_on_c, 0, 63, 77
2,32491, Note_on_c, 0, 65, 0
2,32623, Note_on_c, 0, 62, 74
2,32655, Note_on_c, 0, 63, 0
2,32680, Note_on_c, 0, 51, 0
2,32693, Note_on_c, 0, 39, 0
2,32779, Note_on_c, 0, 63, 81
2,32788, Note_on_c, 0, 62, 0
2,32860, Note_on_c, 0, 63, 0
2,32913, Note_on_c, 0, 65, 77
2,33073, Note_on_c, 0, 51, 78
2,33076, Note_on_c, 0, 66, 76
2,33103, Note_on_c, 0, 65, 0
2,33115, Note_on_c, 0, 51, 0
2,33220, Note_on_c, 0, 68, 79
2,33246, Note_on_c, 0, 66, 0
2,33378, Note_on_c, 0, 70, 80
2,33382, Note_on_c, 0, 54, 80
2,33412, Note_on_c, 0, 68, 0
2,33446, Control_c, 0, 67, 9
2,33465, Control_c, 0, 67, 12
2,33485, Control_c, 0, 67, 13
2,33503, Control_c, 0, 67, 13
2,33510, Note_on_c, 0, 53, 79
2,33523, Control_c, 0, 67, 14
2,33532, Note_on_c, 0, 54, 0
2,33541, Note_on_c, 0, 68, 81
2,33542, Control_c, 0, 67, 15
2,33562, Control_c, 0, 67, 15
2,33600, Control_c, 0, 67, 15
2,33609, Note_on_c, 0, 70, 0
2,33619, Control_c, 0, 67, 14
2,33638, Control_c, 0, 67, 12
2,33657, Control_c, 0, 67, 11
2,33677, Control_c, 0, 67, 9
2,33678, Note_on_c, 0, 51, 73
2,33696, Control_c, 0, 67, 0
2,33696, Note_on_c, 0, 66, 72
2,33712, Note_on_c, 0, 53, 0
2,33714, Note_on_c, 0, 68, 0
2,33799, Note_on_c, 0, 51, 0
2,33838, Note_on_c, 0, 53, 82
2,33846, Note_on_c, 0, 68, 80
2,33860, Note_on_c, 0, 66, 0
2,33898, Note_on_c, 0, 53, 0
2,34000, Note_on_c, 0, 61, 86
2,34010, Note_on_c, 0, 70, 76
2,34032, Note_on_c, 0, 68, 0
2,34056, Note_on_c, 0, 61, 0
2,34157, Note_on_c, 0, 68, 72
2,34198, Note_on_c, 0, 70, 0
2,34309, Note_on_c, 0, 66, 69
2,34311, Note_on_c, 0, 58, 78
2,34339, Note_on_c, 0, 68, 0
2,34354, Note_on_c, 0, 58, 0
2,34416, Note_on_c, 0, 66, 0
2,34452, Note_on_c, 0, 65, 67
2,34634, Note_on_c, 0, 53, 81
2,34642, Note_on_c, 0, 66, 73
2,34667, Note_on_c, 0, 65, 0
2,34981, Note_on_c, 0, 51, 65
2,35028, Note_on_c, 0, 53, 0
2,35113, Note_on_c, 0, 49, 75
2,35133, Note_on_c, 0, 51, 0
2,35261, Note_on_c, 0, 49, 0
2,35293, Note_on_c, 0, 51, 78
2,35346, Note_on_c, 0, 51, 0
2,35440, Note_on_c, 0, 65, 65
2,35522, Note_on_c, 0, 66, 0
2,35579, Note_on_c, 0, 65, 0
2,35608, Note_on_c, 0, 60, 76
2,35608, Note_on_c, 0, 63, 65
2,35653, Note_on_c, 0, 60, 0
2,35749, Note_on_c, 0, 63, 0
2,35763, Note_on_c, 0, 66, 64
2,35894, Note_on_c, 0, 66, 0
2,35920, Note_on_c, 0, 49, 76
2,35943, Note_on_c, 0, 65, 54
2,36011, Note_on_c, 0, 49, 0
2,36082, Note_on_c, 0, 63, 58
2,36143, Note_on_c, 0, 65, 0
2,36221, Note_on_c, 0, 63, 0
2,36241, Note_on_c, 0, 58, 76
2,36246, Note_on_c, 0, 61, 61
2,36287, Note_on_c, 0, 58, 0
2,36378, Note_on_c, 0, 61, 0
2,36407, Note_on_c, 0, 65, 52
2,36560, Note_on_c, 0, 48, 64
2,36575, Note_on_c, 0, 63, 57
2,36594, Note_on_c, 0, 65, 0
2,36595, Control_c, 0, 67, 9
2,36612, Note_on_c, 0, 48, 0
2,36614, Control_c, 0, 67, 13
2,36634, Control_c, 0, 67, 17
2,36652, Control_c, 0, 67, 21
2,36672, Control_c, 0, 67, 25
2,36691, Control_c, 0, 67, 30
2,36696, Note_on_c, 0, 63, 0
2,36711, Control_c, 0, 67, 35
2,36722, Note_on_c, 0, 61, 55
2,36729, Control_c, 0, 67, 39
2,36748, Control_c, 0, 67, 42
2,36768, Control_c, 0, 67, 44
2,36786, Control_c, 0, 67, 46
2,36806, Control_c, 0, 67, 49
2,36825, Control_c, 0, 67, 51
2,36845, Control_c, 0, 67, 55
2,36859, Note_on_c, 0, 61, 0
2,36863, Control_c, 0, 67, 58
2,36877, Note_on_c, 0, 63, 52
2,36883, Control_c, 0, 67, 63
2,36886, Note_on_c, 0, 57, 54
2,36902, Control_c, 0, 67, 68
2,36919, Note_on_c, 0, 57, 0
2,36922, Control_c, 0, 67, 74
2,36940, Control_c, 0, 67, 80
2,36960, Control_c, 0, 67, 88
2,36979, Control_c, 0, 64, 39
2,36979, Control_c, 0, 67, 97
2,36998, Control_c, 0, 64, 52
2,36998, Control_c, 0, 67, 109
2,37017, Control_c, 0, 64, 54
2,37017, Control_c, 0, 67, 119
2,37022, Note_on_c, 0, 60, 55
2,37037, Control_c, 0, 64, 53
2,37037, Control_c, 0, 67, 127
2,37056, Control_c, 0, 64, 50
2,37067, Note_on_c, 0, 60, 0
2,37067, Note_on_c, 0, 63, 0
2,37075, Control_c, 0, 64, 41
2,37094, Control_c, 0, 64, 0
2,37177, Note_on_c, 0, 46, 52
2,37183, Note_on_c, 0, 61, 63
2,37209, Control_c, 0, 64, 21
2,37231, Control_c, 0, 64, 56
2,37247, Note_on_c, 0, 46, 0
2,37250, Control_c, 0, 64, 64
2,37268, Control_c, 0, 64, 66
2,37288, Control_c, 0, 64, 66
2,37309, Note_on_c, 0, 61, 0
2,37340, Note_on_c, 0, 65, 58
2,37345, Control_c, 0, 64, 66
2,37365, Control_c, 0, 64, 65
2,37384, Control_c, 0, 64, 64
2,37403, Control_c, 0, 64, 63
2,37422, Control_c, 0, 64, 60
2,37440, Control_c, 0, 64, 56
2,37459, Control_c, 0, 64, 48
2,37478, Control_c, 0, 64, 23
2,37489, Note_on_c, 0, 65, 0
2,37497, Control_c, 0, 64, 0
2,37497, Note_on_c, 0, 66, 61
2,37501, Note_on_c, 0, 58, 53
2,37592, Note_on_c, 0, 58, 0
2,37602, Note_on_c, 0, 66, 0
2,37646, Note_on_c, 0, 57, 55
2,37647, Note_on_c, 0, 65, 58
2,37788, Note_on_c, 0, 57, 0
2,37799, Note_on_c, 0, 65, 0
2,37807, Note_on_c, 0, 73, 68
2,37808, Note_on_c, 0, 58, 48
2,37933, Note_on_c, 0, 58, 0
2,37982, Note_on_c, 0, 60, 45
2,38086, Note_on_c, 0, 60, 0
2,38120, Note_on_c, 0, 65, 59
2,38126, Note_on_c, 0, 61, 54
2,38165, Note_on_c, 0, 65, 0
2,38236, Note_on_c, 0, 61, 0
2,38281, Note_on_c, 0, 58, 48
2,38385, Note_on_c, 0, 58, 0
2,38440, Note_on_c, 0, 70, 65
2,38443, Note_on_c, 0, 55, 52
2,38455, Note_on_c, 0, 73, 0
2,38579, Note_on_c, 0, 55, 0
2,38587, Note_on_c, 0, 72, 77
2,38592, Note_on_c, 0, 56, 55
2,38595, Note_on_c, 0, 70, 0
2,38665, Note_on_c, 0, 56, 0
2,38728, Note_on_c, 0, 58, 59
2,38737, Note_on_c, 0, 73, 78
2,38771, Note_on_c, 0, 72, 0
2,38809, Note_on_c, 0, 58, 0
2,38829, Note_on_c, 0, 73, 0
2,38869, Note_on_c, 0, 70, 82
2,38886, Note_on_c, 0, 55, 57
2,39020, Note_on_c, 0, 55, 0
2,39030, Note_on_c, 0, 70, 0
2,39045, Note_on_c, 0, 82, 82
2,39061, Note_on_c, 0, 51, 50
2,39174, Note_on_c, 0, 51, 0
2,39188, Note_on_c, 0, 73, 60
2,39198, Note_on_c, 0, 53, 51
2,39307, Note_on_c, 0, 53, 0
2,39314, Note_on_c, 0, 73, 0
2,39325, Note_on_c, 0, 82, 0
2,39344, Note_on_c, 0, 55, 48
2,39356, Note_on_c, 0, 75, 62
2,39360, Control_c, 0, 64, 24
2,39379, Control_c, 0, 64, 58
2,39398, Control_c, 0, 64, 65
2,39417, Control_c, 0, 64, 69
2,39437, Control_c, 0, 64, 75
2,39456, Control_c, 0, 64, 82
2,39465, Note_on_c, 0, 75, 0
2,39468, Note_on_c, 0, 55, 0
2,39475, Control_c, 0, 64, 88
2,39476, Note_on_c, 0, 51, 56
2,39494, Control_c, 0, 64, 92
2,39495, Note_on_c, 0, 70, 69
2,39514, Control_c, 0, 64, 93
2,39518, Note_on_c, 0, 51, 0
2,39532, Control_c, 0, 64, 94
2,39533, Note_on_c, 0, 70, 0
2,39590, Control_c, 0, 64, 93
2,39609, Control_c, 0, 64, 91
2,39628, Control_c, 0, 64, 86
2,39648, Control_c, 0, 64, 78
2,39654, Note_on_c, 0, 72, 67
2,39659, Note_on_c, 0, 44, 54
2,39666, Control_c, 0, 64, 69
2,39686, Control_c, 0, 64, 56
2,39705, Control_c, 0, 64, 0
2,39739, Note_on_c, 0, 44, 0
2,39795, Note_on_c, 0, 63, 62
2,39877, Note_on_c, 0, 72, 0
2,39953, Note_on_c, 0, 56, 60
2,39960, Note_on_c, 0, 65, 64
2,39966, Note_on_c, 0, 63, 0
2,40039, Note_on_c, 0, 56, 0
2,40091, Note_on_c, 0, 55, 63
2,40108, Note_on_c, 0, 65, 0
2,40113, Note_on_c, 0, 63, 68
2,40250, Note_on_c, 0, 63, 0
2,40267, Note_on_c, 0, 56, 71
2,40268, Note_on_c, 0, 72, 66
2,40295, Note_on_c, 0, 55, 0
2,40408, Note_on_c, 0, 58, 73
2,40465, Note_on_c, 0, 56, 0
2,40567, Note_on_c, 0, 58, 0
2,40571, Note_on_c, 0, 60, 68
2,40588, Note_on_c, 0, 63, 53
2,40640, Note_on_c, 0, 63, 0
2,40716, Note_on_c, 0, 56, 69
2,40734, Note_on_c, 0, 60, 0
2,40866, Note_on_c, 0, 56, 0
2,40880, Note_on_c, 0, 68, 66
2,40888, Note_on_c, 0, 53, 60
2,40896, Note_on_c, 0, 72, 0
2,41035, Note_on_c, 0, 53, 0
2,41044, Note_on_c, 0, 70, 74
2,41045, Note_on_c, 0, 55, 59
2,41057, Note_on_c, 0, 68, 0
2,41133, Note_on_c, 0, 55, 0
2,41179, Note_on_c, 0, 72, 80
2,41187, Note_on_c, 0, 56, 63
2,41220, Note_on_c, 0, 70, 0
2,41249, Note_on_c, 0, 56, 0
2,41286, Note_on_c, 0, 72, 0
2,41324, Note_on_c, 0, 68, 86
2,41341, Note_on_c, 0, 53, 59
2,41454, Note_on_c, 0, 53, 0
2,41483, Note_on_c, 0, 80, 84
2,41496, Note_on_c, 0, 68, 0
2,41500, Note_on_c, 0, 49, 56
2,41608, Note_on_c, 0, 49, 0
2,41636, Note_on_c, 0, 72, 62
2,41641, Note_on_c, 0, 51, 50
2,41733, Note_on_c, 0, 80, 0
2,41748, Note_on_c, 0, 51, 0
2,41771, Note_on_c, 0, 72, 0
2,41785, Note_on_c, 0, 73, 64
2,41786, Note_on_c, 0, 53, 50
2,41819, Control_c, 0, 64, 50
2,41839, Control_c, 0, 64, 61
2,41857, Control_c, 0, 64, 64
2,41877, Control_c, 0, 64, 66
2,41896, Control_c, 0, 64, 67
2,41901, Note_on_c, 0, 53, 0
2,41914, Note_on_c, 0, 73, 0
2,41916, Control_c, 0, 64, 69
2,41924, Note_on_c, 0, 68, 63
2,41926, Note_on_c, 0, 49, 53
2,41934, Control_c, 0, 64, 69
2,41954, Control_c, 0, 64, 69
2,41966, Note_on_c, 0, 68, 0
2,41968, Note_on_c, 0, 49, 0
2,41973, Control_c, 0, 64, 68
2,41992, Control_c, 0, 64, 68
2,42011, Control_c, 0, 64, 67
2,42030, Control_c, 0, 64, 66
2,42050, Control_c, 0, 64, 64
2,42068, Control_c, 0, 64, 61
2,42088, Control_c, 0, 64, 57
2,42091, Note_on_c, 0, 70, 69
2,42094, Note_on_c, 0, 43, 55
2,42107, Control_c, 0, 64, 52
2,42127, Control_c, 0, 64, 43
2,42145, Control_c, 0, 64, 28
2,42165, Control_c, 0, 64, 0
2,42165, Control_c, 0, 67, 127
2,42172, Note_on_c, 0, 43, 0
2,42184, Control_c, 0, 67, 125
2,42203, Control_c, 0, 67, 123
2,42222, Control_c, 0, 67, 121
2,42234, Note_on_c, 0, 61, 62
2,42241, Control_c, 0, 67, 121
2,42260, Control_c, 0, 67, 120
2,42279, Control_c, 0, 67, 118
2,42298, Control_c, 0, 67, 117
2,42318, Control_c, 0, 67, 116
2,42336, Control_c, 0, 67, 113
2,42356, Control_c, 0, 67, 111
2,42375, Control_c, 0, 67, 108
2,42386, Note_on_c, 0, 55, 67
2,42387, Note_on_c, 0, 63, 69
2,42390, Note_on_c, 0, 61, 0
2,42395, Control_c, 0, 67, 105
2,42413, Control_c, 0, 67, 101
2,42422, Note_on_c, 0, 70, 0
2,42433, Control_c, 0, 67, 97
2,42452, Control_c, 0, 67, 94
2,42469, Note_on_c, 0, 55, 0
2,42472, Control_c, 0, 67, 90
2,42490, Control_c, 0, 67, 86
2,42509, Control_c, 0, 67, 82
2,42529, Control_c, 0, 67, 79
2,42534, Note_on_c, 0, 61, 70
2,42541, Note_on_c, 0, 53, 66
2,42547, Control_c, 0, 67, 76
2,42564, Note_on_c, 0, 63, 0
2,42567, Control_c, 0, 67, 72
2,42586, Control_c, 0, 67, 69
2,42606, Control_c, 0, 67, 65
2,42624, Control_c, 0, 67, 61
2,42644, Control_c, 0, 67, 55
2,42663, Control_c, 0, 67, 46
2,42682, Control_c, 0, 67, 30
2,42684, Note_on_c, 0, 53, 0
2,42695, Note_on_c, 0, 61, 0
2,42695, Note_on_c, 0, 70, 78
2,42701, Control_c, 0, 67, 10
2,42720, Note_on_c, 0, 55, 65
2,42721, Control_c, 0, 67, 0
2,42833, Note_on_c, 0, 55, 0
2,42860, Note_on_c, 0, 56, 61
2,43017, Note_on_c, 0, 56, 0
2,43028, Note_on_c, 0, 58, 59
2,43029, Note_on_c, 0, 61, 68
2,43077, Note_on_c, 0, 61, 0
2,43101, Note_on_c, 0, 58, 0
2,43165, Note_on_c, 0, 55, 57
2,43285, Note_on_c, 0, 55, 0
2,43303, Note_on_c, 0, 70, 0
2,43329, Note_on_c, 0, 67, 65
2,43335, Note_on_c, 0, 52, 56
2,43464, Note_on_c, 0, 52, 0
2,43473, Note_on_c, 0, 53, 70
2,43481, Note_on_c, 0, 68, 76
2,43502, Note_on_c, 0, 67, 0
2,43571, Note_on_c, 0, 53, 0
2,43627, Note_on_c, 0, 55, 77
2,43637, Note_on_c, 0, 70, 83
2,43682, Note_on_c, 0, 68, 0
2,43729, Note_on_c, 0, 55, 0
2,43735, Note_on_c, 0, 70, 0
2,43780, Note_on_c, 0, 67, 73
2,43783, Note_on_c, 0, 52, 76
2,43933, Note_on_c, 0, 52, 0
2,43939, Note_on_c, 0, 79, 88
2,43942, Note_on_c, 0, 48, 75
2,43982, Note_on_c, 0, 67, 0
2,44074, Note_on_c, 0, 70, 73
2,44092, Note_on_c, 0, 50, 76
2,44130, Note_on_c, 0, 48, 0
2,44214, Note_on_c, 0, 50, 0
2,44247, Note_on_c, 0, 72, 74
2,44249, Note_on_c, 0, 52, 72
2,44261, Control_c, 0, 64, 47
2,44275, Note_on_c, 0, 70, 0
2,44281, Control_c, 0, 64, 63
2,44300, Control_c, 0, 64, 69
2,44319, Control_c, 0, 64, 79
2,44327, Note_on_c, 0, 79, 0
2,44338, Control_c, 0, 64, 96
2,44358, Control_c, 0, 64, 127
2,44365, Note_on_c, 0, 52, 0
2,44378, Note_on_c, 0, 67, 78
2,44383, Note_on_c, 0, 48, 74
2,44423, Note_on_c, 0, 48, 0
2,44435, Control_c, 0, 64, 104
2,44448, Note_on_c, 0, 72, 0
2,44453, Control_c, 0, 64, 90
2,44473, Control_c, 0, 64, 78
2,44492, Control_c, 0, 64, 67
2,44511, Control_c, 0, 64, 59
2,44530, Control_c, 0, 64, 46
2,44538, Note_on_c, 0, 68, 85
2,44541, Note_on_c, 0, 41, 82
2,44549, Control_c, 0, 64, 24
2,44569, Control_c, 0, 64, 0
2,44617, Note_on_c, 0, 67, 0
2,44661, Note_on_c, 0, 68, 0
2,44694, Note_on_c, 0, 43, 78
2,44696, Note_on_c, 0, 76, 83
2,44723, Note_on_c, 0, 41, 0
2,44845, Note_on_c, 0, 44, 81
2,44845, Note_on_c, 0, 77, 81
2,44884, Note_on_c, 0, 43, 0
2,44945, Note_on_c, 0, 76, 0
2,44979, Note_on_c, 0, 73, 81
2,44982, Note_on_c, 0, 46, 77
2,45019, Note_on_c, 0, 77, 0
2,45063, Note_on_c, 0, 44, 0
2,45124, Note_on_c, 0, 46, 0
2,45131, Note_on_c, 0, 48, 80
2,45137, Note_on_c, 0, 70, 86
2,45144, Note_on_c, 0, 73, 0
2,45249, Note_on_c, 0, 48, 0
2,45288, Note_on_c, 0, 50, 78
2,45442, Note_on_c, 0, 60, 86
2,45461, Note_on_c, 0, 52, 73
2,45466, Note_on_c, 0, 50, 0
2,45539, Note_on_c, 0, 60, 0
2,45574, Note_on_c, 0, 52, 0
2,45604, Note_on_c, 0, 48, 65
2,45778, Note_on_c, 0, 48, 0
2,45788, Note_on_c, 0, 61, 81
2,45801, Note_on_c, 0, 53, 70
2,45863, Note_on_c, 0, 70, 0
2,45935, Note_on_c, 0, 60, 81
2,45957, Note_on_c, 0, 61, 0
2,45966, Note_on_c, 0, 52, 70
2,45988, Note_on_c, 0, 53, 0
2,46105, Note_on_c, 0, 58, 83
2,46108, Note_on_c, 0, 50, 70
2,46109, Note_on_c, 0, 52, 0
2,46146, Note_on_c, 0, 60, 0
2,46248, Note_on_c, 0, 60, 87
2,46249, Note_on_c, 0, 50, 0
2,46251, Note_on_c, 0, 58, 0
2,46254, Note_on_c, 0, 52, 72
2,46389, Note_on_c, 0, 52, 0
2,46415, Note_on_c, 0, 53, 68
2,46417, Note_on_c, 0, 68, 89
2,46438, Note_on_c, 0, 60, 0
2,46566, Note_on_c, 0, 51, 61
2,46569, Note_on_c, 0, 53, 0
2,46743, Note_on_c, 0, 49, 61
2,46749, Note_on_c, 0, 65, 78
2,46783, Note_on_c, 0, 51, 0
2,46826, Note_on_c, 0, 65, 0
2,46890, Note_on_c, 0, 49, 0
2,46917, Note_on_c, 0, 48, 64
2,47074, Note_on_c, 0, 60, 80
2,47096, Note_on_c, 0, 48, 0
2,47102, Note_on_c, 0, 49, 61
2,47194, Control_c, 0, 64, 29
2,47214, Control_c, 0, 64, 59
2,47232, Control_c, 0, 64, 66
2,47252, Control_c, 0, 64, 71
2,47271, Control_c, 0, 64, 81
2,47282, Note_on_c, 0, 60, 0
2,47290, Control_c, 0, 64, 99
2,47309, Control_c, 0, 64, 127
2,47414, Note_on_c, 0, 58, 74
2,47520, Control_c, 0, 64, 99
2,47540, Control_c, 0, 64, 81
2,47543, Note_on_c, 0, 58, 0
2,47555, Note_on_c, 0, 56, 76
2,47559, Control_c, 0, 64, 68
2,47568, Note_on_c, 0, 68, 0
2,47578, Control_c, 0, 64, 54
2,47597, Control_c, 0, 64, 0
2,47674, Note_on_c, 0, 56, 0
2,47743, Note_on_c, 0, 58, 75
2,47870, Note_on_c, 0, 48, 73
2,47872, Note_on_c, 0, 49, 0
2,48040, Note_on_c, 0, 46, 70
2,48047, Note_on_c, 0, 67, 75
2,48066, Note_on_c, 0, 48, 0
2,48188, Note_on_c, 0, 49, 74
2,48190, Note_on_c, 0, 46, 0
2,48321, Note_on_c, 0, 58, 0
2,48331, Note_on_c, 0, 49, 0
2,48360, Note_on_c, 0, 56, 82
2,48367, Note_on_c, 0, 48, 68
2,48416, Note_on_c, 0, 67, 0
2,48519, Note_on_c, 0, 46, 65
2,48569, Note_on_c, 0, 48, 0
2,48670, Note_on_c, 0, 56, 0
2,48680, Note_on_c, 0, 44, 62
2,48680, Note_on_c, 0, 65, 79
2,48697, Note_on_c, 0, 46, 0
2,48712, Control_c, 0, 64, 34
2,48731, Control_c, 0, 64, 56
2,48750, Control_c, 0, 64, 62
2,48770, Control_c, 0, 64, 64
2,48789, Control_c, 0, 64, 64
2,48824, Note_on_c, 0, 65, 0
2,48829, Note_on_c, 0, 48, 63
2,48831, Note_on_c, 0, 44, 0
2,48904, Control_c, 0, 64, 64
2,48923, Control_c, 0, 64, 61
2,48942, Control_c, 0, 64, 48
2,48961, Control_c, 0, 64, 0
2,48993, Note_on_c, 0, 55, 77
2,48997, Note_on_c, 0, 46, 59
2,49008, Note_on_c, 0, 64, 68
2,49020, Note_on_c, 0, 48, 0
2,49076, Control_c, 0, 64, 49
2,49096, Control_c, 0, 64, 63
2,49115, Control_c, 0, 64, 67
2,49135, Control_c, 0, 64, 72
2,49135, Note_on_c, 0, 46, 0
2,49140, Note_on_c, 0, 64, 0
2,49149, Note_on_c, 0, 44, 60
2,49153, Control_c, 0, 64, 79
2,49173, Control_c, 0, 64, 86
2,49173, Note_on_c, 0, 55, 0
2,49192, Control_c, 0, 64, 89
2,49230, Control_c, 0, 64, 84
2,49250, Control_c, 0, 64, 73
2,49269, Control_c, 0, 64, 58
2,49288, Control_c, 0, 64, 0
2,49305, Note_on_c, 0, 46, 55
2,49312, Note_on_c, 0, 64, 65
2,49315, Note_on_c, 0, 67, 65
2,49357, Note_on_c, 0, 44, 0
2,49384, Control_c, 0, 64, 55
2,49394, Note_on_c, 0, 64, 0
2,49403, Control_c, 0, 64, 65
2,49405, Note_on_c, 0, 67, 0
2,49422, Control_c, 0, 64, 72
2,49436, Note_on_c, 0, 46, 0
2,49441, Control_c, 0, 64, 88
2,49461, Control_c, 0, 64, 119
2,49472, Note_on_c, 0, 43, 63
2,49479, Control_c, 0, 64, 127
2,49528, Note_on_c, 0, 43, 0
2,49576, Control_c, 0, 64, 112
2,49595, Control_c, 0, 64, 92
2,49615, Control_c, 0, 64, 79
2,49633, Control_c, 0, 64, 69
2,49653, Control_c, 0, 64, 61
2,49672, Control_c, 0, 64, 48
2,49681, Note_on_c, 0, 53, 61
2,49681, Note_on_c, 0, 72, 69
2,49691, Control_c, 0, 64, 9
2,49707, Note_on_c, 0, 44, 52
2,49715, Control_c, 0, 64, 0
2,49826, Note_on_c, 0, 72, 0
2,49836, Note_on_c, 0, 70, 72
2,49977, Note_on_c, 0, 44, 0
2,49983, Note_on_c, 0, 49, 65
2,49991, Note_on_c, 0, 68, 72
2,50009, Note_on_c, 0, 70, 0
2,50095, Note_on_c, 0, 68, 0
2,50139, Note_on_c, 0, 72, 71
2,50268, Note_on_c, 0, 72, 0
2,50270, Note_on_c, 0, 49, 0
2,50294, Note_on_c, 0, 43, 44
2,50302, Note_on_c, 0, 70, 61
2,50382, Control_c, 0, 64, 26
2,50401, Control_c, 0, 64, 36
2,50421, Control_c, 0, 64, 39
2,50425, Note_on_c, 0, 53, 0
2,50439, Control_c, 0, 64, 41
2,50456, Note_on_c, 0, 68, 57
2,50459, Control_c, 0, 64, 42
2,50464, Note_on_c, 0, 70, 0
2,50498, Control_c, 0, 64, 41
2,50516, Control_c, 0, 64, 36
2,50536, Control_c, 0, 64, 0
2,50554, Note_on_c, 0, 43, 0
2,50578, Note_on_c, 0, 68, 0
2,50591, Note_on_c, 0, 48, 45
2,50602, Note_on_c, 0, 52, 53
2,50620, Note_on_c, 0, 70, 58
2,50673, Control_c, 0, 64, 46
2,50693, Control_c, 0, 64, 57
2,50711, Control_c, 0, 64, 60
2,50731, Control_c, 0, 64, 61
2,50750, Control_c, 0, 64, 62
2,50769, Note_on_c, 0, 52, 0
2,50770, Control_c, 0, 64, 63
2,50781, Note_on_c, 0, 67, 50
2,50788, Control_c, 0, 64, 63
2,50826, Note_on_c, 0, 70, 0
2,50846, Control_c, 0, 64, 63
2,50865, Control_c, 0, 64, 62
2,50881, Control_c, 0, 64, 58
2,50901, Control_c, 0, 64, 44
2,50911, Note_on_c, 0, 48, 0
2,50919, Control_c, 0, 64, 0
2,50919, Note_on_c, 0, 67, 0
2,50938, Note_on_c, 0, 53, 59
2,50938, Note_on_c, 0, 68, 66
2,50941, Note_on_c, 0, 41, 57
2,51016, Control_c, 0, 64, 21
2,51035, Control_c, 0, 64, 52
2,51055, Control_c, 0, 64, 62
2,51055, Note_on_c, 0, 68, 0
2,51072, Note_on_c, 0, 41, 0
2,51073, Control_c, 0, 64, 65
2,51080, Note_on_c, 0, 65, 62
2,51093, Control_c, 0, 64, 67
2,51112, Control_c, 0, 64, 70
2,51131, Control_c, 0, 64, 75
2,51150, Control_c, 0, 64, 81
2,51165, Note_on_c, 0, 53, 0
2,51170, Control_c, 0, 64, 86
2,51189, Control_c, 0, 64, 87
2,51208, Control_c, 0, 64, 85
2,51227, Control_c, 0, 64, 72
2,51237, Note_on_c, 0, 52, 72
2,51247, Control_c, 0, 64, 59
2,51248, Note_on_c, 0, 73, 75
2,51257, Note_on_c, 0, 46, 58
2,51265, Control_c, 0, 64, 0
2,51282, Note_on_c, 0, 65, 0
2,51323, Control_c, 0, 64, 33
2,51342, Control_c, 0, 64, 58
2,51361, Control_c, 0, 64, 65
2,51381, Control_c, 0, 64, 71
2,51384, Note_on_c, 0, 70, 79
2,51397, Note_on_c, 0, 52, 0
2,51399, Control_c, 0, 64, 82
2,51419, Control_c, 0, 64, 102
2,51438, Control_c, 0, 64, 127
2,51439, Note_on_c, 0, 46, 0
2,51439, Note_on_c, 0, 73, 0
2,51496, Control_c, 0, 64, 78
2,51509, Note_on_c, 0, 70, 0
2,51515, Control_c, 0, 64, 44
2,51535, Control_c, 0, 64, 0
2,51550, Note_on_c, 0, 72, 81
2,51554, Note_on_c, 0, 53, 73
2,51560, Note_on_c, 0, 44, 67
2,51592, Control_c, 0, 64, 54
2,51605, Note_on_c, 0, 53, 0
2,51611, Control_c, 0, 64, 65
2,51612, Note_on_c, 0, 44, 0
2,51632, Control_c, 0, 64, 72
2,51652, Control_c, 0, 64, 92
2,51660, Note_on_c, 0, 72, 0
2,51670, Control_c, 0, 64, 127
2,51692, Note_on_c, 0, 68, 85
2,51769, Note_on_c, 0, 68, 0
2,51848, Note_on_c, 0, 58, 69
2,51853, Note_on_c, 0, 78, 85
2,51860, Control_c, 0, 64, 87
2,51867, Note_on_c, 0, 49, 65
2,51879, Control_c, 0, 64, 64
2,51898, Control_c, 0, 64, 0
2,51955, Control_c, 0, 64, 39
2,51975, Control_c, 0, 64, 62
2,51982, Note_on_c, 0, 78, 0
2,51994, Control_c, 0, 64, 69
2,52014, Control_c, 0, 64, 80
2,52020, Note_on_c, 0, 76, 84
2,52032, Control_c, 0, 64, 104
2,52048, Note_on_c, 0, 49, 0
2,52050, Note_on_c, 0, 58, 0
2,52052, Control_c, 0, 64, 127
2,52102, Note_on_c, 0, 76, 0
2,52217, Note_on_c, 0, 76, 84
2,52222, Note_on_c, 0, 56, 65
2,52230, Note_on_c, 0, 48, 55
2,52301, Control_c, 0, 64, 88
2,52320, Control_c, 0, 64, 69
2,52340, Control_c, 0, 64, 45
2,52359, Control_c, 0, 64, 0
2,52408, Note_on_c, 0, 77, 79
2,52463, Note_on_c, 0, 76, 0
2,52527, Note_on_c, 0, 55, 65
2,52551, Note_on_c, 0, 77, 0
2,52552, Note_on_c, 0, 56, 0
2,52554, Note_on_c, 0, 83, 79
2,52678, Note_on_c, 0, 55, 0
2,52679, Note_on_c, 0, 84, 79
2,52687, Note_on_c, 0, 83, 0
2,52690, Note_on_c, 0, 53, 62
2,52747, Note_on_c, 0, 84, 0
2,52792, Note_on_c, 0, 53, 0
2,52806, Note_on_c, 0, 77, 70
2,52848, Note_on_c, 0, 55, 51
2,52854, Note_on_c, 0, 77, 0
2,52865, Note_on_c, 0, 76, 72
2,52918, Note_on_c, 0, 76, 0
2,52931, Note_on_c, 0, 77, 75
2,52996, Note_on_c, 0, 77, 0
2,53006, Note_on_c, 0, 76, 70
2,53123, Note_on_c, 0, 55, 0
2,53128, Control_c, 0, 64, 42
2,53147, Control_c, 0, 64, 60
2,53148, Note_on_c, 0, 58, 44
2,53167, Control_c, 0, 64, 65
2,53185, Control_c, 0, 64, 69
2,53204, Control_c, 0, 64, 75
2,53220, Note_on_c, 0, 48, 0
2,53224, Control_c, 0, 64, 86
2,53243, Control_c, 0, 64, 99
2,53262, Control_c, 0, 64, 119
2,53277, Note_on_c, 0, 76, 0
2,53281, Control_c, 0, 64, 127
2,53315, Note_on_c, 0, 58, 0
2,53331, Note_on_c, 0, 77, 70
2,53400, Note_on_c, 0, 77, 0
2,53512, Control_c, 0, 64, 113
2,53531, Control_c, 0, 64, 104
2,53545, Control_c, 0, 64, 94
2,53553, Note_on_c, 0, 53, 49
2,53556, Note_on_c, 0, 56, 52
2,53556, Note_on_c, 0, 77, 60
2,53564, Control_c, 0, 64, 82
2,53584, Control_c, 0, 64, 72
2,53602, Control_c, 0, 64, 64
2,53621, Control_c, 0, 64, 53
2,53641, Control_c, 0, 64, 19
2,53659, Control_c, 0, 64, 0
2,53729, Note_on_c, 0, 58, 57
2,53828, Note_on_c, 0, 56, 0
2,53873, Note_on_c, 0, 58, 0
2,53892, Note_on_c, 0, 60, 63
2,53956, Note_on_c, 0, 53, 0
2,54034, Note_on_c, 0, 56, 58
2,54058, Note_on_c, 0, 77, 0
2,54123, Note_on_c, 0, 60, 0
2,54174, Note_on_c, 0, 56, 0
2,54214, Note_on_c, 0, 53, 54
2,54332, Note_on_c, 0, 53, 0
2,54347, Note_on_c, 0, 54, 58
2,54441, Note_on_c, 0, 54, 0
2,54507, Note_on_c, 0, 56, 50
2,54513, Note_on_c, 0, 77, 68
2,54572, Note_on_c, 0, 77, 0
2,54614, Note_on_c, 0, 56, 0
2,54650, Note_on_c, 0, 53, 51
2,54760, Note_on_c, 0, 53, 0
2,54816, Note_on_c, 0, 50, 53
2,54832, Note_on_c, 0, 71, 58
2,54950, Note_on_c, 0, 50, 0
2,54958, Note_on_c, 0, 51, 55
2,54963, Note_on_c, 0, 70, 68
2,54979, Note_on_c, 0, 71, 0
2,55069, Note_on_c, 0, 51, 0
2,55109, Note_on_c, 0, 70, 0
2,55127, Note_on_c, 0, 53, 52
2,55145, Note_on_c, 0, 68, 67
2,55273, Note_on_c, 0, 53, 0
2,55275, Note_on_c, 0, 68, 0
2,55284, Note_on_c, 0, 70, 68
2,55295, Note_on_c, 0, 50, 48
2,55399, Note_on_c, 0, 50, 0
2,55402, Note_on_c, 0, 70, 0
2,55448, Note_on_c, 0, 77, 69
2,55457, Note_on_c, 0, 46, 46
2,55487, Note_on_c, 0, 77, 0
2,55537, Note_on_c, 0, 46, 0
2,55596, Note_on_c, 0, 50, 42
2,55756, Note_on_c, 0, 50, 0
2,55761, Note_on_c, 0, 74, 60
2,55785, Note_on_c, 0, 53, 47
2,55798, Note_on_c, 0, 74, 0
2,55873, Note_on_c, 0, 53, 0
2,55904, Note_on_c, 0, 56, 58
2,56007, Note_on_c, 0, 56, 0
2,56073, Note_on_c, 0, 51, 51
2,56077, Note_on_c, 0, 68, 63
2,56209, Note_on_c, 0, 51, 0
2,56229, Note_on_c, 0, 54, 59
2,56392, Note_on_c, 0, 58, 58
2,56403, Note_on_c, 0, 66, 68
2,56429, Note_on_c, 0, 54, 0
2,56472, Note_on_c, 0, 68, 0
2,56496, Note_on_c, 0, 58, 0
2,56520, Note_on_c, 0, 66, 0
2,56529, Note_on_c, 0, 65, 72
2,56533, Note_on_c, 0, 62, 57
2,56674, Note_on_c, 0, 65, 0
2,56696, Note_on_c, 0, 66, 70
2,56714, Note_on_c, 0, 62, 0
2,56734, Note_on_c, 0, 63, 53
2,56738, Note_on_c, 0, 66, 0
2,56856, Note_on_c, 0, 65, 54
2,56866, Note_on_c, 0, 63, 0
2,57002, Note_on_c, 0, 65, 0
2,57019, Note_on_c, 0, 75, 69
2,57026, Note_on_c, 0, 66, 65
2,57084, Note_on_c, 0, 75, 0
2,57161, Note_on_c, 0, 63, 60
2,57172, Note_on_c, 0, 66, 0
2,57291, Note_on_c, 0, 63, 0
2,57331, Note_on_c, 0, 69, 68
2,57349, Note_on_c, 0, 60, 51
2,57459, Note_on_c, 0, 60, 0
2,57459, Note_on_c, 0, 69, 0
2,57465, Note_on_c, 0, 68, 70
2,57479, Note_on_c, 0, 61, 58
2,57569, Note_on_c, 0, 61, 0
2,57618, Note_on_c, 0, 68, 0
2,57634, Note_on_c, 0, 63, 57
2,57636, Note_on_c, 0, 66, 71
2,57726, Note_on_c, 0, 63, 0
2,57763, Note_on_c, 0, 66, 0
2,57766, Note_on_c, 0, 68, 78
2,57785, Note_on_c, 0, 60, 62
2,57821, Note_on_c, 0, 60, 0
2,57908, Note_on_c, 0, 68, 0
2,57937, Note_on_c, 0, 75, 80
2,57939, Note_on_c, 0, 56, 69
2,58015, Note_on_c, 0, 75, 0
2,58095, Note_on_c, 0, 44, 62
2,58237, Note_on_c, 0, 72, 75
2,58247, Note_on_c, 0, 46, 56
2,58269, Control_c, 0, 64, 9
2,58288, Control_c, 0, 64, 57
2,58308, Control_c, 0, 64, 67
2,58309, Note_on_c, 0, 72, 0
2,58326, Control_c, 0, 64, 77
2,58337, Note_on_c, 0, 44, 0
2,58346, Control_c, 0, 64, 104
2,58365, Control_c, 0, 64, 127
2,58387, Note_on_c, 0, 48, 67
2,58429, Note_on_c, 0, 46, 0
2,58450, Note_on_c, 0, 48, 0
2,58480, Control_c, 0, 64, 103
2,58499, Control_c, 0, 64, 78
2,58519, Control_c, 0, 64, 62
2,58521, Note_on_c, 0, 56, 0
2,58532, Note_on_c, 0, 66, 73
2,58537, Control_c, 0, 64, 0
2,58557, Note_on_c, 0, 49, 73
2,58700, Note_on_c, 0, 56, 64
2,58861, Note_on_c, 0, 65, 80
2,58867, Note_on_c, 0, 58, 66
2,58892, Note_on_c, 0, 66, 0
2,58922, Control_c, 0, 64, 27
2,58940, Control_c, 0, 64, 54
2,58947, Note_on_c, 0, 56, 0
2,58960, Control_c, 0, 64, 61
2,58963, Note_on_c, 0, 49, 0
2,58979, Control_c, 0, 64, 64
2,58994, Note_on_c, 0, 58, 0
2,58999, Control_c, 0, 64, 65
2,58999, Note_on_c, 0, 63, 78
2,59003, Note_on_c, 0, 60, 68
2,59017, Control_c, 0, 64, 66
2,59036, Note_on_c, 0, 65, 0
2,59037, Control_c, 0, 64, 67
2,59075, Control_c, 0, 64, 66
2,59094, Control_c, 0, 64, 65
2,59114, Control_c, 0, 64, 62
2,59123, Note_on_c, 0, 63, 0
2,59133, Control_c, 0, 64, 56
2,59152, Control_c, 0, 64, 42
2,59163, Note_on_c, 0, 65, 82
2,59165, Note_on_c, 0, 61, 75
2,59171, Control_c, 0, 64, 0
2,59181, Note_on_c, 0, 60, 0
2,59245, Note_on_c, 0, 61, 0
2,59315, Note_on_c, 0, 68, 84
2,59334, Note_on_c, 0, 49, 81
2,59353, Note_on_c, 0, 65, 0
2,59460, Note_on_c, 0, 49, 0
2,59476, Note_on_c, 0, 73, 85
2,59479, Note_on_c, 0, 68, 0
2,59489, Note_on_c, 0, 53, 75
2,59613, Note_on_c, 0, 53, 0
2,59621, Note_on_c, 0, 75, 84
2,59627, Note_on_c, 0, 55, 83
2,59645, Note_on_c, 0, 73, 0
2,59746, Note_on_c, 0, 75, 0
2,59774, Note_on_c, 0, 77, 83
2,59777, Note_on_c, 0, 56, 87
2,59797, Note_on_c, 0, 55, 0
2,59882, Note_on_c, 0, 56, 0
2,59919, Note_on_c, 0, 75, 84
2,59926, Note_on_c, 0, 55, 85
2,59959, Note_on_c, 0, 77, 0
2,60077, Note_on_c, 0, 53, 78
2,60079, Note_on_c, 0, 73, 85
2,60098, Note_on_c, 0, 55, 0
2,60113, Control_c, 0, 64, 54
2,60125, Note_on_c, 0, 75, 0
2,60132, Control_c, 0, 64, 63
2,60152, Control_c, 0, 64, 65
2,60170, Control_c, 0, 64, 67
2,60178, Note_on_c, 0, 73, 0
2,60190, Control_c, 0, 64, 69
2,60209, Control_c, 0, 64, 71
2,60214, Note_on_c, 0, 53, 0
2,60214, Note_on_c, 0, 75, 85
2,60224, Note_on_c, 0, 55, 81
2,60229, Control_c, 0, 64, 73
2,60247, Control_c, 0, 64, 74
2,60289, Note_on_c, 0, 75, 0
2,60292, Control_c, 0, 64, 73
2,60312, Control_c, 0, 64, 70
2,60331, Control_c, 0, 64, 65
2,60350, Control_c, 0, 64, 54
2,60369, Control_c, 0, 64, 0
2,60384, Note_on_c, 0, 56, 80
2,60392, Note_on_c, 0, 72, 96
2,60396, Note_on_c, 0, 84, 81
2,60402, Note_on_c, 0, 55, 0
2,60413, Note_on_c, 0, 86, 80
2,60426, Note_on_c, 0, 86, 0
2,60491, Note_on_c, 0, 56, 0
2,60533, Note_on_c, 0, 55, 81
2,60700, Note_on_c, 0, 80, 91
2,60705, Note_on_c, 0, 53, 73
2,60730, Note_on_c, 0, 84, 0
2,60751, Note_on_c, 0, 55, 0
2,60798, Note_on_c, 0, 80, 0
2,60847, Note_on_c, 0, 53, 0
2,60852, Note_on_c, 0, 51, 69
2,61036, Note_on_c, 0, 51, 0
2,61054, Note_on_c, 0, 75, 82
2,61062, Note_on_c, 0, 53, 77
2,61303, Note_on_c, 0, 72, 0
2,61402, Control_c, 0, 64, 55
2,61402, Note_on_c, 0, 73, 76
2,61420, Control_c, 0, 64, 65
2,61439, Control_c, 0, 64, 71
2,61458, Control_c, 0, 64, 83
2,61477, Control_c, 0, 64, 115
2,61478, Note_on_c, 0, 75, 0
2,61496, Control_c, 0, 64, 127
2,61539, Note_on_c, 0, 72, 77
2,61542, Note_on_c, 0, 73, 0
2,61607, Note_on_c, 0, 72, 0
2,61650, Control_c, 0, 64, 96
2,61669, Control_c, 0, 64, 72
2,61688, Control_c, 0, 64, 46
2,61706, Note_on_c, 0, 73, 78
2,61707, Control_c, 0, 64, 0
2,61711, Note_on_c, 0, 70, 82
2,61850, Note_on_c, 0, 51, 71
2,61924, Note_on_c, 0, 53, 0
2,62008, Note_on_c, 0, 82, 80
2,62016, Note_on_c, 0, 73, 0
2,62017, Note_on_c, 0, 49, 73
2,62038, Note_on_c, 0, 51, 0
2,62146, Note_on_c, 0, 49, 0
2,62173, Note_on_c, 0, 53, 75
2,62209, Note_on_c, 0, 82, 0
2,62328, Note_on_c, 0, 72, 83
2,62331, Note_on_c, 0, 53, 0
2,62332, Note_on_c, 0, 51, 64
2,62345, Note_on_c, 0, 70, 0
2,62472, Note_on_c, 0, 49, 64
2,62526, Note_on_c, 0, 51, 0
2,62565, Note_on_c, 0, 72, 0
2,62596, Note_on_c, 0, 49, 0
2,62647, Note_on_c, 0, 80, 73
2,62653, Note_on_c, 0, 68, 72
2,62658, Note_on_c, 0, 48, 55
2,62802, Note_on_c, 0, 80, 0
2,62809, Note_on_c, 0, 51, 60
2,62813, Note_on_c, 0, 48, 0
2,62826, Note_on_c, 0, 68, 0
2,62977, Note_on_c, 0, 70, 74
2,62980, Note_on_c, 0, 49, 56
2,62989, Note_on_c, 0, 67, 58
2,62997, Note_on_c, 0, 51, 0
2,63109, Note_on_c, 0, 49, 0
2,63135, Note_on_c, 0, 67, 0
2,63146, Note_on_c, 0, 48, 54
2,63227, Note_on_c, 0, 70, 0
2,63252, Note_on_c, 0, 48, 0
2,63300, Control_c, 0, 64, 22
2,63301, Note_on_c, 0, 49, 47
2,63303, Note_on_c, 0, 79, 68
2,63320, Control_c, 0, 64, 58
2,63320, Note_on_c, 0, 67, 50
2,63338, Control_c, 0, 64, 66
2,63341, Note_on_c, 0, 79, 0
2,63357, Control_c, 0, 64, 72
2,63376, Control_c, 0, 64, 82
2,63386, Note_on_c, 0, 67, 0
2,63396, Control_c, 0, 64, 92
2,63414, Control_c, 0, 64, 98
2,63433, Control_c, 0, 64, 99
2,63447, Note_on_c, 0, 49, 0
2,63469, Note_on_c, 0, 46, 50
2,63471, Control_c, 0, 64, 98
2,63491, Control_c, 0, 64, 96
2,63510, Control_c, 0, 64, 93
2,63530, Control_c, 0, 64, 89
2,63538, Note_on_c, 0, 46, 0
2,63548, Control_c, 0, 64, 82
2,63568, Control_c, 0, 64, 75
2,63568, Control_c, 0, 67, 8
2,63587, Control_c, 0, 64, 69
2,63587, Control_c, 0, 67, 10
2,63607, Control_c, 0, 64, 61
2,63607, Control_c, 0, 67, 12
2,63625, Control_c, 0, 64, 47
2,63625, Control_c, 0, 67, 14
2,63638, Note_on_c, 0, 68, 63
2,63645, Control_c, 0, 64, 0
2,63645, Control_c, 0, 67, 15
2,63650, Note_on_c, 0, 48, 45
2,63664, Control_c, 0, 67, 17
2,63683, Control_c, 0, 67, 18
2,63702, Control_c, 0, 67, 20
2,63722, Control_c, 0, 67, 22
2,63737, Note_on_c, 0, 48, 0
2,63741, Control_c, 0, 67, 25
2,63760, Control_c, 0, 67, 28
2,63779, Control_c, 0, 67, 30
2,63799, Control_c, 0, 67, 33
2,63800, Note_on_c, 0, 63, 56
2,63817, Control_c, 0, 67, 36
2,63837, Control_c, 0, 67, 38
2,63856, Control_c, 0, 67, 41
2,63859, Note_on_c, 0, 68, 0
2,63876, Control_c, 0, 67, 43
2,63894, Control_c, 0, 67, 45
2,63913, Control_c, 0, 67, 48
2,63919, Note_on_c, 0, 63, 0
2,63933, Control_c, 0, 67, 52
2,63938, Note_on_c, 0, 51, 53
2,63951, Control_c, 0, 67, 56
2,63966, Note_on_c, 0, 65, 56
2,63971, Control_c, 0, 67, 61
2,63979, Note_on_c, 0, 51, 0
2,63990, Control_c, 0, 67, 65
2,64010, Control_c, 0, 67, 68
2,64028, Control_c, 0, 67, 71
2,64048, Control_c, 0, 67, 73
2,64067, Control_c, 0, 67, 75
2,64087, Control_c, 0, 67, 78
2,64108, Note_on_c, 0, 66, 55
2,64109, Control_c, 0, 67, 81
2,64129, Control_c, 0, 67, 82
2,64140, Note_on_c, 0, 65, 0
2,64147, Control_c, 0, 67, 84
2,64167, Control_c, 0, 67, 85
2,64186, Control_c, 0, 67, 88
2,64206, Control_c, 0, 67, 90
2,64224, Control_c, 0, 67, 92
2,64244, Control_c, 0, 67, 92
2,64252, Note_on_c, 0, 66, 0
2,64263, Control_c, 0, 67, 93
2,64276, Note_on_c, 0, 68, 53
2,64282, Control_c, 0, 67, 93
2,64293, Note_on_c, 0, 54, 53
2,64301, Control_c, 0, 67, 94
2,64316, Control_c, 0, 67, 94
2,64335, Control_c, 0, 67, 96
2,64354, Control_c, 0, 67, 98
2,64373, Control_c, 0, 67, 102
2,64392, Control_c, 0, 67, 105
2,64406, Note_on_c, 0, 68, 0
2,64412, Control_c, 0, 67, 108
2,64431, Control_c, 0, 67, 111
2,64437, Note_on_c, 0, 70, 47
2,64450, Control_c, 0, 67, 114
2,64469, Control_c, 0, 67, 116
2,64489, Control_c, 0, 67, 118
2,64507, Control_c, 0, 67, 120
2,64527, Control_c, 0, 67, 123
2,64546, Control_c, 0, 67, 125
2,64566, Control_c, 0, 67, 126
2,64582, Note_on_c, 0, 70, 0
2,64584, Control_c, 0, 67, 127
2,64615, Note_on_c, 0, 72, 54
2,64617, Note_on_c, 0, 56, 59
2,64642, Control_c, 0, 67, 127
2,64661, Control_c, 0, 64, 43
2,64681, Control_c, 0, 64, 59
2,64700, Control_c, 0, 64, 64
2,64706, Note_on_c, 0, 72, 0
2,64719, Control_c, 0, 64, 66
2,64738, Control_c, 0, 64, 67
2,64758, Control_c, 0, 64, 69
2,64777, Control_c, 0, 64, 71
2,64785, Note_on_c, 0, 68, 50
2,64796, Control_c, 0, 64, 73
2,64834, Control_c, 0, 64, 73
2,64853, Control_c, 0, 64, 71
2,64872, Control_c, 0, 64, 70
2,64883, Note_on_c, 0, 68, 0
2,64892, Control_c, 0, 64, 67
2,64911, Control_c, 0, 64, 64
2,64927, Note_on_c, 0, 58, 67
2,64930, Control_c, 0, 64, 60
2,64936, Note_on_c, 0, 73, 62
2,64949, Control_c, 0, 64, 53
2,64965, Note_on_c, 0, 56, 0
2,64969, Control_c, 0, 64, 45
2,64987, Control_c, 0, 64, 31
2,65007, Control_c, 0, 64, 19
2,65026, Control_c, 0, 64, 0
2,65090, Note_on_c, 0, 56, 77
2,65092, Note_on_c, 0, 72, 61
2,65152, Note_on_c, 0, 73, 0
2,65153, Note_on_c, 0, 54, 0
2,65164, Note_on_c, 0, 58, 0
2,65241, Note_on_c, 0, 72, 0
2,65253, Note_on_c, 0, 54, 76
2,65255, Note_on_c, 0, 56, 0
2,65264, Note_on_c, 0, 70, 61
2,65392, Note_on_c, 0, 70, 0
2,65406, Note_on_c, 0, 56, 67
2,65416, Note_on_c, 0, 72, 60
2,65472, Note_on_c, 0, 54, 0
2,65529, Note_on_c, 0, 56, 0
2,65559, Note_on_c, 0, 72, 0
2,65565, Note_on_c, 0, 53, 52
2,65569, Note_on_c, 0, 65, 63
2,65586, Note_on_c, 0, 73, 61
2,65738, Note_on_c, 0, 72, 51
2,65741, Note_on_c, 0, 73, 0
2,65767, Note_on_c, 0, 65, 0
2,65882, Note_on_c, 0, 72, 0
2,65892, Note_on_c, 0, 61, 70
2,65924, Note_on_c, 0, 70, 59
2,66047, Note_on_c, 0, 61, 0
2,66069, Note_on_c, 0, 68, 53
2,66071, Note_on_c, 0, 70, 0
2,66243, Note_on_c, 0, 56, 69
2,66250, Note_on_c, 0, 68, 0
2,66253, Note_on_c, 0, 70, 53
2,66550, Note_on_c, 0, 53, 0
2,66574, Note_on_c, 0, 54, 65
2,66641, Control_c, 0, 64, 22
2,66660, Control_c, 0, 64, 59
2,66678, Note_on_c, 0, 56, 0
2,66680, Control_c, 0, 64, 66
2,66698, Control_c, 0, 64, 73
2,66718, Control_c, 0, 64, 87
2,66724, Note_on_c, 0, 53, 69
2,66737, Control_c, 0, 64, 127
2,66775, Note_on_c, 0, 54, 0
2,66798, Note_on_c, 0, 53, 0
2,66871, Control_c, 0, 64, 104
2,66891, Control_c, 0, 64, 82
2,66901, Note_on_c, 0, 51, 59
2,66909, Control_c, 0, 64, 66
2,66909, Note_on_c, 0, 54, 60
2,66929, Control_c, 0, 64, 51
2,66948, Control_c, 0, 64, 0
2,67069, Note_on_c, 0, 68, 57
2,67140, Note_on_c, 0, 54, 0
2,67173, Note_on_c, 0, 70, 0
2,67206, Note_on_c, 0, 63, 73
2,67238, Note_on_c, 0, 68, 0
2,67252, Note_on_c, 0, 66, 53
2,67381, Note_on_c, 0, 66, 0
2,67393, Note_on_c, 0, 63, 0
2,67403, Note_on_c, 0, 70, 54
2,67537, Note_on_c, 0, 51, 0
2,67547, Note_on_c, 0, 53, 67
2,67565, Note_on_c, 0, 68, 54
2,67617, Note_on_c, 0, 70, 0
2,67698, Note_on_c, 0, 53, 0
2,67702, Note_on_c, 0, 66, 48
2,67797, Note_on_c, 0, 68, 0
2,67838, Note_on_c, 0, 66, 0
2,67884, Note_on_c, 0, 61, 64
2,67890, Note_on_c, 0, 49, 59
2,67909, Note_on_c, 0, 65, 47
2,68024, Note_on_c, 0, 65, 0
2,68037, Note_on_c, 0, 68, 58
2,68042, Note_on_c, 0, 61, 0
2,68147, Note_on_c, 0, 49, 0
2,68188, Note_on_c, 0, 51, 61
2,68220, Note_on_c, 0, 66, 52
2,68295, Note_on_c, 0, 51, 0
2,68306, Note_on_c, 0, 68, 0
2,68333, Note_on_c, 0, 66, 0
2,68357, Note_on_c, 0, 65, 51
2,68485, Note_on_c, 0, 65, 0
2,68511, Note_on_c, 0, 44, 47
2,68519, Note_on_c, 0, 66, 52
2,68528, Note_on_c, 0, 60, 53
2,68616, Note_on_c, 0, 44, 0
2,68639, Note_on_c, 0, 60, 0
2,68682, Note_on_c, 0, 63, 57
2,68757, Note_on_c, 0, 66, 0
2,68798, Note_on_c, 0, 63, 0
2,68856, Note_on_c, 0, 49, 52
2,68861, Note_on_c, 0, 65, 57
2,69009, Note_on_c, 0, 51, 49
2,69022, Note_on_c, 0, 49, 0
2,69105, Note_on_c, 0, 51, 0
2,69163, Note_on_c, 0, 68, 66
2,69171, Note_on_c, 0, 53, 48
2,69191, Note_on_c, 0, 65, 0
2,69289, Note_on_c, 0, 53, 0
2,69322, Note_on_c, 0, 54, 53
2,69442, Note_on_c, 0, 54, 0
2,69493, Note_on_c, 0, 73, 66
2,69497, Note_on_c, 0, 53, 52
2,69506, Note_on_c, 0, 68, 0
2,69540, Note_on_c, 0, 73, 0
2,69626, Note_on_c, 0, 53, 0
2,69637, Note_on_c, 0, 51, 49
2,69800, Note_on_c, 0, 51, 0
2,69802, Note_on_c, 0, 80, 76
2,69817, Note_on_c, 0, 49, 53
2,69928, Note_on_c, 0, 49, 0
2,69943, Note_on_c, 0, 77, 64
2,69967, Note_on_c, 0, 53, 51
2,69976, Note_on_c, 0, 80, 0
2,70073, Note_on_c, 0, 53, 0
2,70115, Note_on_c, 0, 77, 0
2,70126, Note_on_c, 0, 58, 51
2,70127, Note_on_c, 0, 73, 65
2,70170, Note_on_c, 0, 73, 0
2,70252, Note_on_c, 0, 58, 0
2,70269, Note_on_c, 0, 56, 60
2,70386, Note_on_c, 0, 56, 0
2,70414, Note_on_c, 0, 76, 74
2,70421, Note_on_c, 0, 55, 62
2,70520, Control_c, 0, 67, 127
2,70538, Control_c, 0, 67, 123
2,70551, Note_on_c, 0, 58, 63
2,70558, Control_c, 0, 67, 118
2,70558, Note_on_c, 0, 73, 79
2,70559, Note_on_c, 0, 55, 0
2,70577, Control_c, 0, 67, 111
2,70596, Control_c, 0, 67, 103
2,70603, Note_on_c, 0, 76, 0
2,70615, Control_c, 0, 67, 87
2,70634, Control_c, 0, 67, 65
2,70654, Control_c, 0, 67, 36
2,70672, Control_c, 0, 67, 0
2,70690, Note_on_c, 0, 58, 0
2,70709, Note_on_c, 0, 61, 70
2,70728, Note_on_c, 0, 70, 81
2,70747, Note_on_c, 0, 73, 0
2,70791, Note_on_c, 0, 70, 0
2,70796, Note_on_c, 0, 61, 0
2,70863, Note_on_c, 0, 59, 82
2,70991, Note_on_c, 0, 59, 0
2,71020, Note_on_c, 0, 73, 84
2,71025, Note_on_c, 0, 58, 74
2,71158, Note_on_c, 0, 61, 76
2,71167, Note_on_c, 0, 70, 92
2,71225, Note_on_c, 0, 73, 0
2,71228, Note_on_c, 0, 58, 0
2,71362, Note_on_c, 0, 67, 81
2,71378, Note_on_c, 0, 61, 0
2,71391, Note_on_c, 0, 64, 72
2,71391, Note_on_c, 0, 70, 0
2,71695, Note_on_c, 0, 64, 0
2,71695, Note_on_c, 0, 70, 87
2,71707, Note_on_c, 0, 63, 68
2,71732, Note_on_c, 0, 67, 0
2,71842, Note_on_c, 0, 61, 67
2,71844, Note_on_c, 0, 73, 85
2,71850, Note_on_c, 0, 63, 0
2,71891, Note_on_c, 0, 70, 0
2,71962, Note_on_c, 0, 61, 0
2,71991, Note_on_c, 0, 59, 76
2,72008, Note_on_c, 0, 76, 84
2,72054, Note_on_c, 0, 73, 0
2,72144, Note_on_c, 0, 58, 63
2,72169, Note_on_c, 0, 59, 0
2,72306, Note_on_c, 0, 56, 67
2,72322, Note_on_c, 0, 58, 0
2,72323, Note_on_c, 0, 73, 71
2,72370, Note_on_c, 0, 73, 0
2,72415, Note_on_c, 0, 56, 0
2,72464, Note_on_c, 0, 55, 61
2,72618, Note_on_c, 0, 76, 0
2,72619, Note_on_c, 0, 55, 0
2,72622, Note_on_c, 0, 75, 77
2,72633, Note_on_c, 0, 71, 63
2,72648, Note_on_c, 0, 56, 66
2,72744, Note_on_c, 0, 56, 0
2,72786, Note_on_c, 0, 59, 67
2,72912, Note_on_c, 0, 59, 0
2,72925, Note_on_c, 0, 75, 0
2,72936, Note_on_c, 0, 80, 87
2,72968, Note_on_c, 0, 58, 53
2,73101, Note_on_c, 0, 56, 64
2,73106, Note_on_c, 0, 58, 0
2,73221, Note_on_c, 0, 56, 0
2,73274, Note_on_c, 0, 73, 65
2,73278, Note_on_c, 0, 55, 53
2,73287, Note_on_c, 0, 70, 62
2,73372, Note_on_c, 0, 55, 0
2,73416, Note_on_c, 0, 80, 0
2,73422, Note_on_c, 0, 53, 51
2,73464, Note_on_c, 0, 71, 0
2,73564, Note_on_c, 0, 53, 0
2,73574, Note_on_c, 0, 51, 51
2,73589, Note_on_c, 0, 79, 73
2,73663, Note_on_c, 0, 73, 0
2,73685, Note_on_c, 0, 51, 0
2,73724, Note_on_c, 0, 49, 52
2,73836, Note_on_c, 0, 49, 0
2,73841, Note_on_c, 0, 70, 0
2,73896, Note_on_c, 0, 68, 68
2,73897, Note_on_c, 0, 47, 48
2,73903, Control_c, 0, 64, 37
2,73920, Control_c, 0, 64, 63
2,73930, Note_on_c, 0, 68, 0
2,73940, Control_c, 0, 64, 72
2,73947, Note_on_c, 0, 79, 0
2,73959, Control_c, 0, 64, 91
2,73978, Control_c, 0, 64, 127
2,74004, Note_on_c, 0, 47, 0
2,74023, Note_on_c, 0, 49, 54
2,74125, Note_on_c, 0, 49, 0
2,74192, Note_on_c, 0, 51, 50
2,74215, Note_on_c, 0, 80, 69
2,74246, Control_c, 0, 64, 103
2,74266, Control_c, 0, 64, 87
2,74285, Control_c, 0, 64, 74
2,74288, Note_on_c, 0, 51, 0
2,74305, Control_c, 0, 64, 64
2,74323, Control_c, 0, 64, 49
2,74341, Note_on_c, 0, 80, 0
2,74343, Control_c, 0, 64, 0
2,74352, Note_on_c, 0, 47, 49
2,74360, Note_on_c, 0, 79, 62
2,74470, Note_on_c, 0, 47, 0
2,74511, Note_on_c, 0, 44, 53
2,74521, Note_on_c, 0, 79, 0
2,74534, Note_on_c, 0, 80, 63
2,74555, Note_on_c, 0, 44, 0
2,74678, Note_on_c, 0, 82, 67
2,74705, Note_on_c, 0, 80, 0
2,74795, Note_on_c, 0, 82, 0
2,74833, Note_on_c, 0, 56, 51
2,74835, Note_on_c, 0, 83, 67
2,74902, Note_on_c, 0, 56, 0
2,74972, Note_on_c, 0, 83, 0
2,74974, Note_on_c, 0, 53, 47
2,74982, Note_on_c, 0, 80, 64
2,75085, Note_on_c, 0, 53, 0
2,75127, Note_on_c, 0, 49, 52
2,75131, Note_on_c, 0, 80, 0
2,75147, Note_on_c, 0, 77, 62
2,75177, Note_on_c, 0, 49, 0
2,75292, Note_on_c, 0, 78, 63
2,75296, Note_on_c, 0, 77, 0
2,75448, Note_on_c, 0, 80, 67
2,75461, Note_on_c, 0, 59, 59
2,75506, Note_on_c, 0, 78, 0
2,75533, Note_on_c, 0, 59, 0
2,75591, Note_on_c, 0, 56, 58
2,75591, Note_on_c, 0, 77, 64
2,75611, Note_on_c, 0, 80, 0
2,75730, Note_on_c, 0, 77, 0
2,75748, Note_on_c, 0, 56, 0
2,75751, Note_on_c, 0, 73, 69
2,75753, Note_on_c, 0, 53, 61
2,75790, Note_on_c, 0, 53, 0
2,75890, Note_on_c, 0, 75, 75
2,75929, Note_on_c, 0, 73, 0
2,76043, Note_on_c, 0, 49, 69
2,76062, Note_on_c, 0, 77, 71
2,76075, Note_on_c, 0, 75, 0
2,76177, Note_on_c, 0, 49, 0
2,76188, Note_on_c, 0, 46, 63
2,76199, Note_on_c, 0, 73, 75
2,76301, Note_on_c, 0, 77, 0
2,76334, Note_on_c, 0, 46, 0
2,76351, Note_on_c, 0, 42, 75
2,76374, Note_on_c, 0, 70, 76
2,76376, Note_on_c, 0, 73, 0
2,76411, Note_on_c, 0, 42, 0
2,76516, Note_on_c, 0, 72, 77
2,76552, Note_on_c, 0, 70, 0
2,76674, Note_on_c, 0, 73, 80
2,76681, Note_on_c, 0, 58, 69
2,76682, Note_on_c, 0, 72, 0
2,76761, Note_on_c, 0, 73, 0
2,76804, Note_on_c, 0, 58, 0
2,76804, Note_on_c, 0, 70, 82
2,76809, Note_on_c, 0, 54, 65
2,76980, Note_on_c, 0, 78, 76
2,76985, Note_on_c, 0, 51, 58
2,77007, Note_on_c, 0, 54, 0
2,77044, Note_on_c, 0, 70, 0
2,77048, Note_on_c, 0, 51, 0
2,77117, Note_on_c, 0, 80, 81
2,77202, Note_on_c, 0, 78, 0
2,77272, Note_on_c, 0, 82, 79
2,77292, Note_on_c, 0, 54, 61
2,77347, Note_on_c, 0, 80, 0
2,77355, Note_on_c, 0, 54, 0
2,77417, Note_on_c, 0, 51, 54
2,77419, Note_on_c, 0, 78, 74
2,77456, Note_on_c, 0, 82, 0
2,77572, Note_on_c, 0, 51, 0
2,77572, Note_on_c, 0, 78, 0
2,77580, Note_on_c, 0, 48, 52
2,77586, Note_on_c, 0, 75, 70
2,77626, Note_on_c, 0, 48, 0
2,77737, Note_on_c, 0, 77, 63
2,77741, Note_on_c, 0, 75, 0
2,77872, Note_on_c, 0, 77, 0
2,77883, Note_on_c, 0, 58, 51
2,77889, Note_on_c, 0, 78, 69
2,77967, Note_on_c, 0, 58, 0
2,78028, Note_on_c, 0, 54, 51
2,78039, Note_on_c, 0, 75, 69
2,78080, Note_on_c, 0, 78, 0
2,78185, Note_on_c, 0, 75, 0
2,78194, Note_on_c, 0, 54, 0
2,78201, Note_on_c, 0, 51, 51
2,78208, Note_on_c, 0, 72, 66
2,78243, Note_on_c, 0, 51, 0
2,78342, Note_on_c, 0, 73, 66
2,78359, Note_on_c, 0, 72, 0
2,78504, Note_on_c, 0, 75, 70
2,78510, Note_on_c, 0, 48, 61
2,78583, Note_on_c, 0, 73, 0
2,78640, Note_on_c, 0, 72, 70
2,78649, Note_on_c, 0, 44, 56
2,78666, Note_on_c, 0, 48, 0
2,78706, Note_on_c, 0, 75, 0
2,78791, Note_on_c, 0, 72, 0
2,78803, Note_on_c, 0, 44, 0
2,78806, Note_on_c, 0, 68, 79
2,78817, Note_on_c, 0, 41, 72
2,78871, Note_on_c, 0, 41, 0
2,78957, Note_on_c, 0, 70, 77
2,79003, Note_on_c, 0, 68, 0
2,79112, Note_on_c, 0, 70, 0
2,79123, Note_on_c, 0, 72, 79
2,79138, Note_on_c, 0, 56, 76
2,79217, Note_on_c, 0, 72, 0
2,79229, Note_on_c, 0, 56, 0
2,79263, Note_on_c, 0, 68, 80
2,79266, Note_on_c, 0, 53, 74
2,79380, Note_on_c, 0, 68, 0
2,79417, Note_on_c, 0, 77, 75
2,79418, Note_on_c, 0, 50, 68
2,79456, Note_on_c, 0, 53, 0
2,79494, Note_on_c, 0, 50, 0
2,79562, Note_on_c, 0, 78, 82
2,79604, Note_on_c, 0, 77, 0
2,79709, Note_on_c, 0, 80, 79
2,79726, Note_on_c, 0, 53, 64
2,79828, Note_on_c, 0, 53, 0
2,79855, Note_on_c, 0, 50, 62
2,79861, Note_on_c, 0, 80, 0
2,79864, Note_on_c, 0, 77, 76
2,80000, Note_on_c, 0, 78, 0
2,80025, Note_on_c, 0, 74, 76
2,80027, Note_on_c, 0, 46, 60
2,80035, Note_on_c, 0, 77, 0
2,80047, Note_on_c, 0, 50, 0
2,80157, Note_on_c, 0, 46, 0
2,80186, Note_on_c, 0, 75, 79
2,80249, Note_on_c, 0, 74, 0
2,80329, Note_on_c, 0, 77, 73
2,80335, Note_on_c, 0, 75, 0
2,80341, Note_on_c, 0, 56, 75
2,80419, Note_on_c, 0, 56, 0
2,80468, Note_on_c, 0, 77, 0
2,80471, Note_on_c, 0, 53, 64
2,80473, Note_on_c, 0, 74, 76
2,80604, Note_on_c, 0, 53, 0
2,80617, Note_on_c, 0, 74, 0
2,80635, Note_on_c, 0, 70, 78
2,80636, Note_on_c, 0, 50, 61
2,80674, Note_on_c, 0, 50, 0
2,80778, Note_on_c, 0, 72, 68
2,80820, Note_on_c, 0, 70, 0
2,80915, Note_on_c, 0, 72, 0
2,80921, Note_on_c, 0, 46, 57
2,80924, Note_on_c, 0, 74, 64
2,81029, Note_on_c, 0, 74, 0
2,81040, Note_on_c, 0, 46, 0
2,81069, Note_on_c, 0, 70, 71
2,81075, Note_on_c, 0, 42, 48
2,81217, Note_on_c, 0, 42, 0
2,81231, Note_on_c, 0, 39, 59
2,81233, Note_on_c, 0, 66, 67
2,81258, Note_on_c, 0, 70, 0
2,81290, Note_on_c, 0, 39, 0
2,81405, Note_on_c, 0, 68, 70
2,81413, Note_on_c, 0, 66, 0
2,81556, Note_on_c, 0, 70, 68
2,81577, Note_on_c, 0, 54, 45
2,81579, Note_on_c, 0, 68, 0
2,81637, Note_on_c, 0, 70, 0
2,81695, Note_on_c, 0, 54, 0
2,81699, Note_on_c, 0, 66, 57
2,81701, Note_on_c, 0, 51, 50
2,81848, Note_on_c, 0, 66, 0
2,81853, Note_on_c, 0, 48, 49
2,81867, Note_on_c, 0, 51, 0
2,81880, Note_on_c, 0, 75, 61
2,81915, Note_on_c, 0, 48, 0
2,82023, Note_on_c, 0, 75, 0
2,82026, Note_on_c, 0, 77, 61
2,82165, Note_on_c, 0, 51, 51
2,82177, Note_on_c, 0, 78, 70
2,82237, Note_on_c, 0, 77, 0
2,82241, Note_on_c, 0, 51, 0
2,82307, Note_on_c, 0, 78, 0
2,82317, Note_on_c, 0, 75, 69
2,82329, Note_on_c, 0, 48, 40
2,82443, Note_on_c, 0, 48, 0
2,82467, Note_on_c, 0, 75, 0
2,82476, Note_on_c, 0, 72, 60
2,82480, Note_on_c, 0, 44, 49
2,82525, Note_on_c, 0, 44, 0
2,82631, Note_on_c, 0, 73, 63
2,82645, Note_on_c, 0, 72, 0
2,82787, Note_on_c, 0, 73, 0
2,82787, Note_on_c, 0, 75, 62
2,82798, Note_on_c, 0, 54, 47
2,82866, Note_on_c, 0, 54, 0
2,82930, Note_on_c, 0, 51, 42
2,82947, Note_on_c, 0, 72, 62
2,83007, Note_on_c, 0, 75, 0
2,83064, Note_on_c, 0, 51, 0
2,83072, Note_on_c, 0, 72, 0
2,83088, Note_on_c, 0, 48, 49
2,83096, Note_on_c, 0, 68, 64
2,83130, Note_on_c, 0, 48, 0
2,83210, Control_c, 0, 67, 9
2,83228, Control_c, 0, 67, 12
2,83248, Control_c, 0, 67, 14
2,83257, Note_on_c, 0, 68, 0
2,83257, Note_on_c, 0, 70, 64
2,83267, Control_c, 0, 67, 17
2,83287, Control_c, 0, 67, 22
2,83305, Control_c, 0, 67, 28
2,83325, Control_c, 0, 67, 34
2,83344, Control_c, 0, 67, 40
2,83363, Control_c, 0, 67, 45
2,83382, Control_c, 0, 67, 50
2,83402, Control_c, 0, 67, 55
2,83416, Note_on_c, 0, 70, 0
2,83421, Control_c, 0, 67, 61
2,83428, Note_on_c, 0, 44, 44
2,83437, Note_on_c, 0, 72, 64
2,83440, Control_c, 0, 67, 67
2,83459, Control_c, 0, 67, 72
2,83478, Control_c, 0, 67, 79
2,83497, Control_c, 0, 67, 84
2,83516, Control_c, 0, 67, 89
2,83536, Control_c, 0, 67, 93
2,83555, Control_c, 0, 67, 96
2,83574, Control_c, 0, 67, 99
2,83575, Note_on_c, 0, 44, 0
2,83593, Control_c, 0, 67, 101
2,83596, Note_on_c, 0, 68, 60
2,83596, Note_on_c, 0, 72, 0
2,83613, Control_c, 0, 67, 105
2,83617, Note_on_c, 0, 41, 46
2,83632, Control_c, 0, 67, 107
2,83651, Control_c, 0, 67, 109
2,83670, Control_c, 0, 67, 112
2,83690, Control_c, 0, 67, 115
2,83708, Control_c, 0, 67, 117
2,83728, Control_c, 0, 67, 120
2,83747, Control_c, 0, 67, 123
2,83760, Note_on_c, 0, 41, 0
2,83767, Control_c, 0, 67, 125
2,83785, Control_c, 0, 67, 126
2,83804, Note_on_c, 0, 68, 0
2,83805, Control_c, 0, 67, 127
2,83824, Note_on_c, 0, 37, 39
2,83833, Note_on_c, 0, 65, 48
2,83862, Control_c, 0, 67, 127
2,84010, Note_on_c, 0, 66, 55
2,84045, Note_on_c, 0, 65, 0
2,84165, Note_on_c, 0, 66, 0
2,84171, Note_on_c, 0, 68, 60
2,84313, Note_on_c, 0, 65, 53
2,84341, Note_on_c, 0, 68, 0
2,84449, Note_on_c, 0, 65, 0
2,84467, Note_on_c, 0, 61, 55
2,84607, Note_on_c, 0, 61, 0
2,84616, Note_on_c, 0, 65, 55
2,84764, Note_on_c, 0, 65, 0
2,84766, Note_on_c, 0, 68, 64
2,84846, Note_on_c, 0, 37, 0
2,84924, Note_on_c, 0, 68, 0
2,84930, Note_on_c, 0, 70, 62
2,85082, Note_on_c, 0, 71, 66
2,85133, Note_on_c, 0, 70, 0
2,85237, Note_on_c, 0, 71, 0
2,85241, Note_on_c, 0, 70, 63
2,85356, Note_on_c, 0, 70, 0
2,85402, Note_on_c, 0, 68, 79
2,85405, Note_on_c, 0, 59, 64
2,85537, Note_on_c, 0, 59, 0
2,85547, Note_on_c, 0, 49, 53
2,85552, Note_on_c, 0, 70, 72
2,85554, Note_on_c, 0, 68, 0
2,85687, Note_on_c, 0, 49, 0
2,85701, Note_on_c, 0, 78, 74
2,85707, Note_on_c, 0, 70, 0
2,85710, Note_on_c, 0, 58, 55
2,85743, Note_on_c, 0, 78, 0
2,85814, Note_on_c, 0, 58, 0
2,85858, Note_on_c, 0, 49, 55
2,86012, Note_on_c, 0, 49, 0
2,86014, Note_on_c, 0, 73, 65
2,86038, Note_on_c, 0, 56, 53
2,86053, Note_on_c, 0, 73, 0
2,86112, Note_on_c, 0, 56, 0
2,86179, Note_on_c, 0, 49, 56
2,86332, Note_on_c, 0, 49, 0
2,86341, Note_on_c, 0, 70, 63
2,86347, Note_on_c, 0, 54, 53
2,86500, Note_on_c, 0, 49, 53
2,86501, Note_on_c, 0, 54, 0
2,86634, Note_on_c, 0, 49, 0
2,86653, Note_on_c, 0, 68, 61
2,86662, Note_on_c, 0, 53, 55
2,86685, Control_c, 0, 67, 127
2,86716, Note_on_c, 0, 70, 0
2,86774, Note_on_c, 0, 53, 0
2,86797, Note_on_c, 0, 66, 60
2,86797, Note_on_c, 0, 68, 0
2,86809, Note_on_c, 0, 51, 46
2,86891, Note_on_c, 0, 51, 0
2,86934, Control_c, 0, 67, 126
2,86969, Note_on_c, 0, 53, 51
2,86975, Note_on_c, 0, 68, 65
2,86984, Note_on_c, 0, 66, 0
2,87005, Note_on_c, 0, 53, 0
2,87114, Note_on_c, 0, 68, 0
2,87121, Note_on_c, 0, 61, 61
2,87222, Control_c, 0, 67, 127
2,87250, Note_on_c, 0, 61, 0
2,87276, Note_on_c, 0, 44, 60
2,87286, Note_on_c, 0, 65, 60
2,87337, Control_c, 0, 67, 126
2,87341, Note_on_c, 0, 44, 0
2,87356, Control_c, 0, 67, 126
2,87395, Control_c, 0, 67, 125
2,87418, Note_on_c, 0, 65, 0
2,87425, Note_on_c, 0, 68, 69
2,87433, Control_c, 0, 67, 125
2,87548, Control_c, 0, 67, 125
2,87586, Note_on_c, 0, 70, 70
2,87591, Note_on_c, 0, 68, 0
2,87702, Control_c, 0, 67, 126
2,87728, Note_on_c, 0, 68, 69
2,87741, Control_c, 0, 67, 127
2,87770, Note_on_c, 0, 70, 0
2,87798, Control_c, 0, 67, 127
2,87858, Note_on_c, 0, 68, 0
2,87890, Note_on_c, 0, 58, 72
2,87903, Note_on_c, 0, 66, 61
2,88045, Note_on_c, 0, 66, 0
2,88048, Note_on_c, 0, 68, 59
2,88049, Note_on_c, 0, 49, 53
2,88122, Note_on_c, 0, 58, 0
2,88180, Note_on_c, 0, 68, 0
2,88197, Note_on_c, 0, 56, 65
2,88198, Note_on_c, 0, 49, 0
2,88212, Note_on_c, 0, 77, 60
2,88260, Control_c, 0, 67, 127
2,88282, Note_on_c, 0, 77, 0
2,88351, Note_on_c, 0, 56, 0
2,88370, Note_on_c, 0, 49, 56
2,88432, Control_c, 0, 67, 127
2,88509, Note_on_c, 0, 49, 0
2,88518, Note_on_c, 0, 73, 62
2,88532, Note_on_c, 0, 54, 58
2,88609, Note_on_c, 0, 73, 0
2,88677, Note_on_c, 0, 54, 0
2,88684, Note_on_c, 0, 49, 52
2,88816, Note_on_c, 0, 49, 0
2,88839, Note_on_c, 0, 68, 65
2,88852, Note_on_c, 0, 53, 52
2,88992, Note_on_c, 0, 53, 0
2,89017, Note_on_c, 0, 49, 44
2,89168, Note_on_c, 0, 66, 58
2,89169, Note_on_c, 0, 49, 0
2,89188, Note_on_c, 0, 51, 51
2,89204, Note_on_c, 0, 68, 0
2,89272, Note_on_c, 0, 51, 0
2,89307, Note_on_c, 0, 66, 0
2,89340, Note_on_c, 0, 65, 49
2,89358, Note_on_c, 0, 49, 41
2,89449, Note_on_c, 0, 65, 0
2,89475, Note_on_c, 0, 49, 0
2,89496, Note_on_c, 0, 51, 52
2,89498, Note_on_c, 0, 66, 49
2,89538, Note_on_c, 0, 51, 0
2,89620, Control_c, 0, 67, 127
2,89647, Note_on_c, 0, 66, 0
2,89658, Note_on_c, 0, 60, 53
2,89813, Note_on_c, 0, 44, 54
2,89836, Note_on_c, 0, 63, 61
2,89838, Note_on_c, 0, 60, 0
2,89872, Note_on_c, 0, 44, 0
2,89966, Control_c, 0, 67, 126
2,89978, Note_on_c, 0, 66, 60
2,89980, Note_on_c, 0, 63, 0
2,90127, Note_on_c, 0, 68, 67
2,90130, Note_on_c, 0, 66, 0
2,90158, Control_c, 0, 67, 126
2,90197, Control_c, 0, 67, 125
2,90254, Control_c, 0, 67, 125
2,90273, Note_on_c, 0, 66, 66
2,90319, Note_on_c, 0, 68, 0
2,90369, Control_c, 0, 67, 124
2,90388, Control_c, 0, 67, 124
2,90408, Note_on_c, 0, 66, 0
2,90426, Control_c, 0, 67, 123
2,90432, Note_on_c, 0, 65, 68
2,90445, Note_on_c, 0, 56, 71
2,90562, Note_on_c, 0, 66, 72
2,90580, Note_on_c, 0, 65, 0
2,90594, Note_on_c, 0, 44, 54
2,90599, Note_on_c, 0, 56, 0
2,90744, Note_on_c, 0, 75, 73
2,90753, Note_on_c, 0, 44, 0
2,90753, Note_on_c, 0, 66, 0
2,90754, Control_c, 0, 67, 123
2,90755, Note_on_c, 0, 54, 72
2,90792, Control_c, 0, 67, 122
2,90811, Control_c, 0, 67, 122
2,90830, Control_c, 0, 67, 121
2,90831, Note_on_c, 0, 75, 0
2,90849, Control_c, 0, 67, 121
2,90888, Control_c, 0, 67, 120
2,90902, Note_on_c, 0, 44, 60
2,90926, Control_c, 0, 67, 120
2,90933, Note_on_c, 0, 54, 0
2,91050, Note_on_c, 0, 44, 0
2,91065, Note_on_c, 0, 72, 70
2,91066, Note_on_c, 0, 53, 69
2,91144, Note_on_c, 0, 72, 0
2,91196, Note_on_c, 0, 44, 62
2,91238, Note_on_c, 0, 53, 0
2,91371, Note_on_c, 0, 51, 56
2,91371, Note_on_c, 0, 66, 64
2,91373, Note_on_c, 0, 44, 0
2,91520, Note_on_c, 0, 51, 0
2,91536, Note_on_c, 0, 44, 51
2,91686, Note_on_c, 0, 65, 63
2,91698, Note_on_c, 0, 49, 54
2,91704, Note_on_c, 0, 66, 0
2,91732, Note_on_c, 0, 44, 0
2,91772, Control_c, 0, 67, 119
2,91828, Note_on_c, 0, 49, 0
2,91833, Note_on_c, 0, 63, 67
2,91836, Note_on_c, 0, 48, 58
2,91836, Note_on_c, 0, 65, 0
2,91974, Note_on_c, 0, 63, 0
2,91985, Note_on_c, 0, 48, 0
2,91985, Note_on_c, 0, 49, 63
2,92002, Control_c, 0, 67, 119
2,92002, Note_on_c, 0, 65, 67
2,92021, Control_c, 0, 67, 118
2,92059, Control_c, 0, 67, 117
2,92079, Control_c, 0, 67, 116
2,92098, Control_c, 0, 67, 116
2,92118, Control_c, 0, 67, 115
2,92134, Note_on_c, 0, 49, 0
2,92136, Control_c, 0, 67, 113
2,92153, Note_on_c, 0, 68, 74
2,92156, Control_c, 0, 67, 111
2,92158, Note_on_c, 0, 44, 57
2,92159, Note_on_c, 0, 65, 0
2,92175, Control_c, 0, 67, 109
2,92195, Control_c, 0, 67, 102
2,92213, Control_c, 0, 67, 91
2,92233, Control_c, 0, 67, 76
2,92252, Control_c, 0, 67, 58
2,92271, Control_c, 0, 67, 37
2,92290, Control_c, 0, 67, 12
2,92310, Control_c, 0, 67, 0
2,92312, Note_on_c, 0, 70, 81
2,92324, Note_on_c, 0, 53, 73
2,92333, Note_on_c, 0, 68, 0
2,92388, Note_on_c, 0, 44, 0
2,92402, Note_on_c, 0, 70, 0
2,92454, Note_on_c, 0, 72, 82
2,92462, Note_on_c, 0, 51, 72
2,92479, Note_on_c, 0, 53, 0
2,92585, Note_on_c, 0, 51, 0
2,92612, Note_on_c, 0, 73, 81
2,92614, Note_on_c, 0, 53, 79
2,92656, Note_on_c, 0, 72, 0
2,92701, Note_on_c, 0, 53, 0
2,92762, Note_on_c, 0, 44, 74
2,92767, Note_on_c, 0, 75, 86
2,92784, Note_on_c, 0, 73, 0
2,92907, Note_on_c, 0, 75, 0
2,92917, Note_on_c, 0, 56, 84
2,92920, Note_on_c, 0, 44, 0
2,92923, Note_on_c, 0, 77, 83
2,93024, Note_on_c, 0, 56, 0
2,93053, Note_on_c, 0, 54, 79
2,93056, Note_on_c, 0, 75, 86
2,93074, Note_on_c, 0, 77, 0
2,93078, Control_c, 0, 64, 17
2,93096, Control_c, 0, 64, 41
2,93115, Control_c, 0, 64, 50
2,93134, Control_c, 0, 64, 54
2,93154, Control_c, 0, 64, 56
2,93166, Note_on_c, 0, 54, 0
2,93172, Control_c, 0, 64, 57
2,93187, Note_on_c, 0, 75, 0
2,93192, Control_c, 0, 64, 57
2,93211, Control_c, 0, 64, 53
2,93217, Note_on_c, 0, 56, 85
2,93222, Note_on_c, 0, 78, 83
2,93229, Control_c, 0, 64, 32
2,93249, Control_c, 0, 64, 0
2,93362, Note_on_c, 0, 44, 74
2,93365, Note_on_c, 0, 77, 84
2,93383, Control_c, 0, 64, 13
2,93387, Note_on_c, 0, 56, 0
2,93403, Control_c, 0, 64, 60
2,93422, Control_c, 0, 64, 67
2,93441, Control_c, 0, 64, 74
2,93450, Note_on_c, 0, 78, 0
2,93460, Control_c, 0, 64, 90
2,93474, Note_on_c, 0, 44, 0
2,93480, Control_c, 0, 64, 127
2,93504, Note_on_c, 0, 77, 0
2,93524, Note_on_c, 0, 75, 90
2,93527, Note_on_c, 0, 58, 84
2,93589, Note_on_c, 0, 58, 0
2,93651, Note_on_c, 0, 44, 78
2,93663, Note_on_c, 0, 73, 87
2,93691, Note_on_c, 0, 75, 0
2,93700, Note_on_c, 0, 44, 0
2,93723, Note_on_c, 0, 73, 0
2,93844, Control_c, 0, 64, 89
2,93846, Note_on_c, 0, 82, 86
2,93851, Note_on_c, 0, 60, 83
2,93862, Control_c, 0, 64, 67
2,93882, Control_c, 0, 64, 0
2,93949, Note_on_c, 0, 80, 77
2,93981, Note_on_c, 0, 82, 0
2,94001, Note_on_c, 0, 61, 77
2,94021, Note_on_c, 0, 60, 0
2,94036, Note_on_c, 0, 80, 0
2,94037, Note_on_c, 0, 79, 79
2,94126, Note_on_c, 0, 80, 86
2,94128, Note_on_c, 0, 79, 0
2,94132, Note_on_c, 0, 63, 81
2,94140, Note_on_c, 0, 61, 0
2,94196, Note_on_c, 0, 82, 82
2,94200, Note_on_c, 0, 80, 0
2,94256, Note_on_c, 0, 63, 0
2,94262, Note_on_c, 0, 60, 79
2,94262, Note_on_c, 0, 80, 75
2,94266, Note_on_c, 0, 82, 0
2,94345, Note_on_c, 0, 80, 0
2,94360, Note_on_c, 0, 82, 53
2,94366, Note_on_c, 0, 81, 70
2,94400, Note_on_c, 0, 81, 0
2,94411, Note_on_c, 0, 82, 0
2,94419, Note_on_c, 0, 56, 77
2,94419, Note_on_c, 0, 60, 0
2,94419, Note_on_c, 0, 80, 76
2,94478, Note_on_c, 0, 80, 0
2,94499, Note_on_c, 0, 82, 81
2,94555, Note_on_c, 0, 60, 74
2,94563, Note_on_c, 0, 82, 0
2,94567, Note_on_c, 0, 80, 83
2,94619, Note_on_c, 0, 56, 0
2,94633, Note_on_c, 0, 80, 0
2,94636, Note_on_c, 0, 82, 76
2,94689, Note_on_c, 0, 82, 0
2,94693, Note_on_c, 0, 63, 78
2,94702, Note_on_c, 0, 80, 77
2,94747, Note_on_c, 0, 60, 0
2,94767, Note_on_c, 0, 80, 0
2,94768, Note_on_c, 0, 82, 80
2,94817, Note_on_c, 0, 82, 0
2,94818, Note_on_c, 0, 63, 0
2,94831, Note_on_c, 0, 65, 74
2,94832, Note_on_c, 0, 80, 75
2,94897, Note_on_c, 0, 80, 0
2,94900, Note_on_c, 0, 82, 78
2,94954, Note_on_c, 0, 82, 0
2,94958, Control_c, 0, 64, 52
2,94963, Note_on_c, 0, 80, 77
2,94976, Note_on_c, 0, 66, 82
2,94978, Control_c, 0, 64, 68
2,94997, Control_c, 0, 64, 79
2,95007, Note_on_c, 0, 65, 0
2,95017, Control_c, 0, 64, 112
2,95032, Note_on_c, 0, 80, 0
2,95035, Control_c, 0, 64, 127
2,95112, Control_c, 0, 64, 91
2,95128, Note_on_c, 0, 65, 82
2,95128, Note_on_c, 0, 80, 84
2,95132, Control_c, 0, 64, 71
2,95151, Control_c, 0, 64, 57
2,95170, Control_c, 0, 64, 0
2,95225, Note_on_c, 0, 66, 0
2,95252, Note_on_c, 0, 65, 0
2,95272, Note_on_c, 0, 63, 79
2,95303, Note_on_c, 0, 78, 78
2,95323, Note_on_c, 0, 80, 0
2,95375, Note_on_c, 0, 63, 0
2,95406, Note_on_c, 0, 78, 0
2,95422, Note_on_c, 0, 65, 76
2,95442, Note_on_c, 0, 80, 80
2,95549, Note_on_c, 0, 65, 0
2,95589, Note_on_c, 0, 80, 0
2,95594, Note_on_c, 0, 73, 87
2,95613, Note_on_c, 0, 77, 70
2,95650, Note_on_c, 0, 73, 0
2,95707, Note_on_c, 0, 77, 0
2,95739, Note_on_c, 0, 80, 69
2,95903, Note_on_c, 0, 68, 85
2,95920, Note_on_c, 0, 75, 72
2,95924, Note_on_c, 0, 80, 0
2,95950, Note_on_c, 0, 68, 0
2,96066, Note_on_c, 0, 80, 72
2,96072, Note_on_c, 0, 75, 0
2,96220, Note_on_c, 0, 65, 78
2,96226, Note_on_c, 0, 73, 65
2,96232, Note_on_c, 0, 80, 0
2,96382, Note_on_c, 0, 80, 62
2,96448, Note_on_c, 0, 73, 0
2,96534, Note_on_c, 0, 63, 65
2,96541, Note_on_c, 0, 80, 0
2,96554, Note_on_c, 0, 72, 71
2,96563, Note_on_c, 0, 65, 0
2,96681, Note_on_c, 0, 61, 59
2,96683, Note_on_c, 0, 63, 0
2,96696, Note_on_c, 0, 70, 72
2,96718, Note_on_c, 0, 72, 0
2,96822, Note_on_c, 0, 70, 0
2,96831, Note_on_c, 0, 63, 67
2,96848, Note_on_c, 0, 61, 0
2,96860, Note_on_c, 0, 72, 77
2,96935, Note_on_c, 0, 63, 0
2,96978, Note_on_c, 0, 56, 69
2,97006, Note_on_c, 0, 75, 82
2,97048, Note_on_c, 0, 72, 0
2,97139, Note_on_c, 0, 61, 68
2,97152, Note_on_c, 0, 56, 0
2,97164, Note_on_c, 0, 77, 81
2,97166, Note_on_c, 0, 75, 0
2,97285, Note_on_c, 0, 63, 73
2,97302, Note_on_c, 0, 78, 82
2,97312, Note_on_c, 0, 77, 0
2,97336, Note_on_c, 0, 61, 0
2,97431, Note_on_c, 0, 63, 0
2,97453, Note_on_c, 0, 65, 68
2,97462, Note_on_c, 0, 80, 87
2,97498, Note_on_c, 0, 78, 0
2,97552, Note_on_c, 0, 65, 0
2,97582, Note_on_c, 0, 63, 74
2,97607, Note_on_c, 0, 78, 86
2,97698, Note_on_c, 0, 80, 0
2,97739, Note_on_c, 0, 63, 0
2,97752, Note_on_c, 0, 61, 71
2,97756, Note_on_c, 0, 77, 84
2,97795, Note_on_c, 0, 78, 0
2,97888, Note_on_c, 0, 77, 0
2,97892, Note_on_c, 0, 80, 82
2,97897, Note_on_c, 0, 61, 0
2,97900, Note_on_c, 0, 63, 68
2,97968, Note_on_c, 0, 63, 0
2,98065, Note_on_c, 0, 72, 88
2,98065, Note_on_c, 0, 75, 76
2,98077, Note_on_c, 0, 80, 0
2,98125, Note_on_c, 0, 72, 0
2,98197, Note_on_c, 0, 75, 0
2,98212, Note_on_c, 0, 80, 70
2,98379, Note_on_c, 0, 68, 79
2,98386, Note_on_c, 0, 73, 70
2,98393, Note_on_c, 0, 80, 0
2,98429, Note_on_c, 0, 68, 0
2,98536, Note_on_c, 0, 80, 65
2,98568, Note_on_c, 0, 73, 0
2,98696, Note_on_c, 0, 63, 68
2,98708, Note_on_c, 0, 80, 0
2,98723, Note_on_c, 0, 72, 61
2,98848, Note_on_c, 0, 72, 0
2,98868, Note_on_c, 0, 80, 60
2,98990, Note_on_c, 0, 80, 0
2,99016, Note_on_c, 0, 61, 61
2,99033, Note_on_c, 0, 70, 66
2,99060, Note_on_c, 0, 63, 0
2,99146, Note_on_c, 0, 61, 0
2,99155, Note_on_c, 0, 60, 62
2,99174, Note_on_c, 0, 70, 0
2,99175, Note_on_c, 0, 68, 69
2,99314, Note_on_c, 0, 61, 63
2,99323, Note_on_c, 0, 60, 0
2,99326, Note_on_c, 0, 70, 69
2,99369, Note_on_c, 0, 68, 0
2,99412, Note_on_c, 0, 61, 0
2,99459, Note_on_c, 0, 56, 71
2,99476, Note_on_c, 0, 70, 0
2,99477, Note_on_c, 0, 73, 69
2,99596, Note_on_c, 0, 73, 0
2,99621, Note_on_c, 0, 56, 0
2,99629, Note_on_c, 0, 75, 69
2,99636, Note_on_c, 0, 60, 71
2,99768, Note_on_c, 0, 61, 79
2,99781, Note_on_c, 0, 77, 70
2,99794, Note_on_c, 0, 60, 0
2,99817, Control_c, 0, 64, 35
2,99826, Note_on_c, 0, 75, 0
2,99833, Control_c, 0, 64, 50
2,99840, Note_on_c, 0, 77, 0
2,99872, Control_c, 0, 64, 47
2,99889, Note_on_c, 0, 61, 0
2,99892, Control_c, 0, 64, 41
2,99910, Control_c, 0, 64, 18
2,99911, Note_on_c, 0, 63, 83
2,99930, Control_c, 0, 64, 0
2,99938, Note_on_c, 0, 78, 80
2,100008, Note_on_c, 0, 63, 0
2,100047, Note_on_c, 0, 61, 74
2,100077, Note_on_c, 0, 77, 73
2,100171, Note_on_c, 0, 61, 0
2,100195, Note_on_c, 0, 78, 0
2,100228, Note_on_c, 0, 60, 77
2,100240, Note_on_c, 0, 75, 77
2,100260, Note_on_c, 0, 77, 0
2,100351, Note_on_c, 0, 60, 0
2,100359, Note_on_c, 0, 75, 0
2,100380, Note_on_c, 0, 61, 76
2,100381, Note_on_c, 0, 77, 75
2,100440, Note_on_c, 0, 61, 0
2,100534, Note_on_c, 0, 77, 0
2,100535, Note_on_c, 0, 73, 75
2,100542, Note_on_c, 0, 70, 87
2,100611, Note_on_c, 0, 70, 0
2,100646, Note_on_c, 0, 73, 0
2,100687, Note_on_c, 0, 75, 71
2,100852, Note_on_c, 0, 67, 74
2,100866, Note_on_c, 0, 75, 0
2,100871, Note_on_c, 0, 72, 77
2,100881, Note_on_c, 0, 67, 0
2,100998, Note_on_c, 0, 72, 0
2,101005, Note_on_c, 0, 75, 73
2,101154, Note_on_c, 0, 75, 0
2,101166, Note_on_c, 0, 70, 73
2,101170, Note_on_c, 0, 61, 73
2,101312, Note_on_c, 0, 75, 66
2,101337, Note_on_c, 0, 70, 0
2,101462, Note_on_c, 0, 60, 64
2,101468, Note_on_c, 0, 61, 0
2,101476, Note_on_c, 0, 68, 69
2,101563, Note_on_c, 0, 75, 0
2,101603, Note_on_c, 0, 58, 62
2,101609, Note_on_c, 0, 68, 0
2,101611, Note_on_c, 0, 60, 0
2,101626, Note_on_c, 0, 67, 54
2,101737, Note_on_c, 0, 58, 0
2,101780, Note_on_c, 0, 60, 61
2,101783, Note_on_c, 0, 68, 69
2,101787, Note_on_c, 0, 67, 0
2,101853, Note_on_c, 0, 68, 0
2,101902, Note_on_c, 0, 60, 0
2,101918, Note_on_c, 0, 56, 71
2,101936, Note_on_c, 0, 72, 76
2,102069, Note_on_c, 0, 58, 64
2,102081, Note_on_c, 0, 73, 80
2,102099, Note_on_c, 0, 56, 0
2,102106, Note_on_c, 0, 72, 0
2,102218, Note_on_c, 0, 60, 70
2,102221, Note_on_c, 0, 75, 83
2,102249, Note_on_c, 0, 73, 0
2,102257, Note_on_c, 0, 58, 0
2,102290, Note_on_c, 0, 60, 0
2,102313, Note_on_c, 0, 75, 0
2,102370, Note_on_c, 0, 77, 83
2,102378, Note_on_c, 0, 61, 74
2,102525, Note_on_c, 0, 63, 74
2,102530, Note_on_c, 0, 78, 84
2,102540, Note_on_c, 0, 77, 0
2,102602, Note_on_c, 0, 61, 0
2,102648, Note_on_c, 0, 78, 0
2,102659, Note_on_c, 0, 63, 0
2,102679, Note_on_c, 0, 80, 83
2,102685, Note_on_c, 0, 65, 74
2,102766, Note_on_c, 0, 65, 0
2,102808, Note_on_c, 0, 63, 74
2,102826, Note_on_c, 0, 82, 80
2,102898, Note_on_c, 0, 80, 0
2,102934, Note_on_c, 0, 63, 0
2,102960, Note_on_c, 0, 82, 0
2,102965, Note_on_c, 0, 66, 74
2,102979, Note_on_c, 0, 72, 86
2,103033, Note_on_c, 0, 72, 0
2,103052, Note_on_c, 0, 66, 0
2,103121, Note_on_c, 0, 65, 75
2,103278, Note_on_c, 0, 63, 73
2,103286, Note_on_c, 0, 68, 79
2,103312, Note_on_c, 0, 65, 0
2,103320, Note_on_c, 0, 68, 0
2,103377, Note_on_c, 0, 63, 0
2,103422, Note_on_c, 0, 61, 71
2,103566, Note_on_c, 0, 61, 0
2,103589, Note_on_c, 0, 66, 78
2,103591, Note_on_c, 0, 70, 82
2,103637, Control_c, 0, 64, 55
2,103651, Note_on_c, 0, 66, 0
2,103657, Control_c, 0, 64, 64
2,103675, Control_c, 0, 64, 67
2,103695, Control_c, 0, 64, 70
2,103714, Control_c, 0, 64, 71
2,103733, Control_c, 0, 64, 70
2,103745, Note_on_c, 0, 68, 82
2,103752, Control_c, 0, 64, 66
2,103772, Control_c, 0, 64, 61
2,103786, Note_on_c, 0, 70, 0
2,103791, Control_c, 0, 64, 52
2,103810, Control_c, 0, 64, 38
2,103829, Control_c, 0, 64, 0
2,103901, Note_on_c, 0, 66, 84
2,103906, Note_on_c, 0, 68, 0
2,103911, Note_on_c, 0, 58, 65
2,104034, Note_on_c, 0, 58, 0
2,104040, Note_on_c, 0, 68, 85
2,104049, Note_on_c, 0, 60, 70
2,104063, Note_on_c, 0, 66, 0
2,104168, Note_on_c, 0, 60, 0
2,104204, Note_on_c, 0, 61, 75
2,104205, Note_on_c, 0, 77, 86
2,104225, Note_on_c, 0, 68, 0
2,104269, Note_on_c, 0, 77, 0
2,104294, Note_on_c, 0, 61, 0
2,104356, Note_on_c, 0, 60, 73
2,104525, Note_on_c, 0, 73, 81
2,104541, Note_on_c, 0, 58, 64
2,104551, Note_on_c, 0, 60, 0
2,104589, Note_on_c, 0, 73, 0
2,104671, Note_on_c, 0, 58, 0
2,104692, Note_on_c, 0, 56, 74
2,104900, Note_on_c, 0, 68, 81
2,104917, Note_on_c, 0, 58, 65
2,104919, Note_on_c, 0, 56, 0
2,105260, Note_on_c, 0, 66, 69
2,105303, Note_on_c, 0, 68, 0
2,105405, Note_on_c, 0, 66, 0
2,105412, Note_on_c, 0, 65, 64
2,105582, Note_on_c, 0, 66, 73
2,105595, Note_on_c, 0, 65, 0
2,105643, Note_on_c, 0, 66, 0
2,105722, Note_on_c, 0, 56, 75
2,105742, Note_on_c, 0, 58, 0
2,105888, Note_on_c, 0, 54, 68
2,105888, Note_on_c, 0, 75, 79
2,105896, Note_on_c, 0, 56, 0
2,105946, Note_on_c, 0, 75, 0
2,106051, Note_on_c, 0, 54, 0
2,106056, Note_on_c, 0, 58, 73
2,106217, Note_on_c, 0, 56, 69
2,106217, Note_on_c, 0, 58, 0
2,106218, Note_on_c, 0, 65, 77
2,106283, Note_on_c, 0, 65, 0
2,106358, Note_on_c, 0, 54, 68
2,106413, Note_on_c, 0, 56, 0
2,106501, Note_on_c, 0, 54, 0
2,106524, Note_on_c, 0, 73, 74
2,106530, Note_on_c, 0, 53, 68
2,106625, Note_on_c, 0, 73, 0
2,106676, Note_on_c, 0, 56, 73
2,106697, Note_on_c, 0, 53, 0
2,106849, Note_on_c, 0, 54, 62
2,106854, Note_on_c, 0, 63, 75
2,106887, Note_on_c, 0, 56, 0
2,106985, Note_on_c, 0, 63, 0
2,107013, Note_on_c, 0, 53, 67
2,107014, Note_on_c, 0, 54, 0
2,107167, Note_on_c, 0, 72, 74
2,107177, Note_on_c, 0, 53, 0
2,107177, Note_on_c, 0, 54, 63
2,107270, Note_on_c, 0, 72, 0
2,107327, Note_on_c, 0, 54, 0
2,107328, Note_on_c, 0, 51, 64
2,107415, Note_on_c, 0, 51, 0
2,107488, Note_on_c, 0, 61, 73
2,107494, Note_on_c, 0, 53, 67
2,107553, Control_c, 0, 64, 68
2,107559, Note_on_c, 0, 61, 0
2,107571, Control_c, 0, 64, 90
2,107590, Control_c, 0, 64, 127
2,107819, Note_on_c, 0, 73, 77
2,107859, Control_c, 0, 64, 111
2,107879, Control_c, 0, 64, 81
2,107898, Control_c, 0, 64, 65
2,107917, Control_c, 0, 64, 0
2,107933, Note_on_c, 0, 73, 0
2,107960, Note_on_c, 0, 53, 0
2,107963, Note_on_c, 0, 56, 71
2,107964, Note_on_c, 0, 72, 80
2,108114, Note_on_c, 0, 58, 67
2,108117, Note_on_c, 0, 73, 82
2,108129, Note_on_c, 0, 72, 0
2,108145, Note_on_c, 0, 56, 0
2,108214, Note_on_c, 0, 58, 0
2,108259, Note_on_c, 0, 60, 73
2,108269, Note_on_c, 0, 75, 85
2,108291, Note_on_c, 0, 73, 0
2,108372, Note_on_c, 0, 75, 0
2,108413, Note_on_c, 0, 61, 71
2,108415, Note_on_c, 0, 77, 81
2,108423, Note_on_c, 0, 60, 0
2,108563, Note_on_c, 0, 78, 84
2,108574, Note_on_c, 0, 63, 80
2,108601, Note_on_c, 0, 77, 0
2,108620, Note_on_c, 0, 61, 0
2,108723, Note_on_c, 0, 80, 87
2,108732, Note_on_c, 0, 63, 0
2,108739, Note_on_c, 0, 65, 79
2,108760, Note_on_c, 0, 78, 0
2,108880, Note_on_c, 0, 79, 87
2,108881, Note_on_c, 0, 63, 78
2,108912, Note_on_c, 0, 65, 0
2,108945, Note_on_c, 0, 80, 0
2,109004, Note_on_c, 0, 63, 0
2,109035, Note_on_c, 0, 79, 0
2,109037, Note_on_c, 0, 77, 84
2,109040, Note_on_c, 0, 61, 70
2,109107, Control_c, 0, 64, 39
2,109127, Control_c, 0, 64, 59
2,109145, Control_c, 0, 64, 63
2,109165, Control_c, 0, 64, 64
2,109186, Note_on_c, 0, 79, 87
2,109187, Note_on_c, 0, 63, 76
2,109198, Note_on_c, 0, 61, 0
2,109204, Control_c, 0, 64, 64
2,109222, Control_c, 0, 64, 62
2,109222, Note_on_c, 0, 77, 0
2,109242, Control_c, 0, 64, 56
2,109244, Note_on_c, 0, 63, 0
2,109261, Control_c, 0, 64, 44
2,109280, Control_c, 0, 64, 0
2,109358, Note_on_c, 0, 72, 94
2,109370, Note_on_c, 0, 80, 82
2,109372, Note_on_c, 0, 60, 79
2,109385, Note_on_c, 0, 79, 0
2,109469, Note_on_c, 0, 72, 0
2,109529, Note_on_c, 0, 78, 73
2,109579, Note_on_c, 0, 80, 0
2,109674, Note_on_c, 0, 68, 88
2,109685, Note_on_c, 0, 78, 0
2,109699, Note_on_c, 0, 77, 71
2,109739, Note_on_c, 0, 68, 0
2,109842, Note_on_c, 0, 75, 83
2,109853, Note_on_c, 0, 77, 0
2,110025, Note_on_c, 0, 77, 76
2,110030, Note_on_c, 0, 63, 77
2,110122, Note_on_c, 0, 75, 0
2,110357, Note_on_c, 0, 60, 0
2,110359, Note_on_c, 0, 61, 72
2,110374, Control_c, 0, 64, 47
2,110391, Control_c, 0, 64, 63
2,110411, Control_c, 0, 64, 69
2,110430, Control_c, 0, 64, 81
2,110440, Note_on_c, 0, 63, 0
2,110450, Control_c, 0, 64, 107
2,110468, Control_c, 0, 64, 127
2,110508, Note_on_c, 0, 60, 74
2,110559, Note_on_c, 0, 61, 0
2,110581, Note_on_c, 0, 60, 0
2,110642, Control_c, 0, 64, 85
2,110660, Control_c, 0, 64, 67
2,110680, Control_c, 0, 64, 42
2,110681, Note_on_c, 0, 61, 77
2,110687, Note_on_c, 0, 58, 56
2,110699, Control_c, 0, 64, 0
2,110853, Note_on_c, 0, 75, 73
2,110870, Note_on_c, 0, 61, 0
2,110925, Note_on_c, 0, 77, 0
2,110997, Note_on_c, 0, 70, 80
2,111010, Note_on_c, 0, 73, 71
2,111036, Note_on_c, 0, 75, 0
2,111093, Note_on_c, 0, 70, 0
2,111120, Note_on_c, 0, 73, 0
2,111168, Note_on_c, 0, 77, 73
2,111280, Note_on_c, 0, 58, 0
2,111317, Note_on_c, 0, 60, 76
2,111331, Note_on_c, 0, 75, 74
2,111352, Note_on_c, 0, 77, 0
2,111428, Note_on_c, 0, 60, 0
2,111478, Note_on_c, 0, 73, 70
2,111594, Note_on_c, 0, 75, 0
2,111640, Note_on_c, 0, 68, 87
2,111647, Note_on_c, 0, 72, 72
2,111648, Note_on_c, 0, 56, 72
2,111664, Note_on_c, 0, 73, 0
2,111738, Note_on_c, 0, 68, 0
2,111786, Note_on_c, 0, 75, 73
2,111813, Note_on_c, 0, 72, 0
2,111834, Note_on_c, 0, 56, 0
2,111955, Note_on_c, 0, 58, 74
2,111958, Note_on_c, 0, 73, 73
2,112026, Note_on_c, 0, 58, 0
2,112048, Note_on_c, 0, 75, 0
2,112102, Note_on_c, 0, 72, 74
2,112115, Note_on_c, 0, 73, 0
2,112238, Note_on_c, 0, 72, 0
2,112262, Note_on_c, 0, 67, 68
2,112264, Note_on_c, 0, 51, 67
2,112264, Note_on_c, 0, 73, 75
2,112308, Note_on_c, 0, 51, 0
2,112348, Note_on_c, 0, 67, 0
2,112402, Note_on_c, 0, 70, 78
2,112459, Note_on_c, 0, 73, 0
2,112525, Note_on_c, 0, 70, 0
2,112565, Note_on_c, 0, 72, 86
2,112574, Note_on_c, 0, 56, 82
2,112618, Control_c, 0, 64, 19
2,112638, Control_c, 0, 64, 68
2,112645, Note_on_c, 0, 56, 0
2,112656, Control_c, 0, 64, 84
2,112676, Control_c, 0, 64, 127
2,112899, Note_on_c, 0, 75, 86
2,112906, Control_c, 0, 64, 104
2,112910, Note_on_c, 0, 68, 84
2,112925, Control_c, 0, 64, 74
2,112934, Note_on_c, 0, 72, 0
2,112944, Control_c, 0, 64, 54
2,112964, Control_c, 0, 64, 0
2,113056, Note_on_c, 0, 67, 71
2,113066, Note_on_c, 0, 68, 0
2,113186, Note_on_c, 0, 67, 0
2,113208, Note_on_c, 0, 78, 86
2,113213, Note_on_c, 0, 68, 89
2,113225, Note_on_c, 0, 75, 0
2,113248, Note_on_c, 0, 68, 0
2,113348, Note_on_c, 0, 70, 72
2,113496, Note_on_c, 0, 70, 0
2,113509, Note_on_c, 0, 56, 79
2,113523, Note_on_c, 0, 72, 73
2,113550, Note_on_c, 0, 56, 0
2,113648, Note_on_c, 0, 72, 0
2,113672, Note_on_c, 0, 68, 74
2,113841, Note_on_c, 0, 73, 73
2,113843, Note_on_c, 0, 58, 78
2,113895, Note_on_c, 0, 68, 0
2,113985, Note_on_c, 0, 56, 77
2,113988, Note_on_c, 0, 72, 75
2,113992, Note_on_c, 0, 58, 0
2,114072, Note_on_c, 0, 73, 0
2,114144, Note_on_c, 0, 54, 73
2,114148, Note_on_c, 0, 70, 78
2,114150, Note_on_c, 0, 72, 0
2,114159, Note_on_c, 0, 56, 0
2,114231, Note_on_c, 0, 78, 0
2,114259, Note_on_c, 0, 70, 0
2,114270, Note_on_c, 0, 54, 0
2,114293, Note_on_c, 0, 72, 86
2,114300, Note_on_c, 0, 56, 73
2,114344, Note_on_c, 0, 56, 0
2,114366, Note_on_c, 0, 72, 0
2,114450, Note_on_c, 0, 77, 78
2,114457, Note_on_c, 0, 65, 75
2,114474, Note_on_c, 0, 73, 75
2,114513, Note_on_c, 0, 65, 0
2,114574, Note_on_c, 0, 73, 0
2,114617, Note_on_c, 0, 72, 72
2,114774, Note_on_c, 0, 61, 71
2,114794, Note_on_c, 0, 70, 77
2,114809, Note_on_c, 0, 61, 0
2,114811, Note_on_c, 0, 72, 0
2,114888, Control_c, 0, 64, 46
2,114897, Note_on_c, 0, 68, 77
2,114907, Control_c, 0, 64, 64
2,114926, Control_c, 0, 64, 76
2,114935, Note_on_c, 0, 70, 0
2,114940, Note_on_c, 0, 68, 0
2,114945, Control_c, 0, 64, 101
2,114964, Control_c, 0, 64, 127
2,115006, Note_on_c, 0, 68, 81
2,115095, Note_on_c, 0, 68, 0
2,115095, Note_on_c, 0, 70, 82
2,115099, Control_c, 0, 64, 85
2,115102, Note_on_c, 0, 56, 76
2,115117, Control_c, 0, 64, 65
2,115137, Control_c, 0, 64, 0
2,115433, Note_on_c, 0, 54, 74
2,115455, Note_on_c, 0, 56, 0
2,115539, Note_on_c, 0, 77, 0
2,115589, Note_on_c, 0, 53, 74
2,115598, Note_on_c, 0, 54, 0
2,115722, Note_on_c, 0, 53, 0
2,115744, Note_on_c, 0, 75, 74
2,115756, Note_on_c, 0, 54, 65
2,115759, Note_on_c, 0, 70, 0
2,115802, Note_on_c, 0, 54, 0
2,115891, Note_on_c, 0, 68, 69
2,116020, Note_on_c, 0, 68, 0
2,116051, Note_on_c, 0, 63, 62
2,116054, Note_on_c, 0, 66, 62
2,116105, Note_on_c, 0, 63, 0
2,116189, Note_on_c, 0, 70, 72
2,116209, Note_on_c, 0, 66, 0
2,116350, Note_on_c, 0, 68, 68
2,116355, Note_on_c, 0, 53, 59
2,116404, Note_on_c, 0, 53, 0
2,116410, Note_on_c, 0, 70, 0
2,116497, Note_on_c, 0, 66, 65
2,116538, Note_on_c, 0, 75, 0
2,116594, Note_on_c, 0, 66, 0
2,116607, Note_on_c, 0, 68, 0
2,116654, Note_on_c, 0, 73, 71
2,116662, Note_on_c, 0, 61, 54
2,116667, Note_on_c, 0, 65, 55
2,116726, Note_on_c, 0, 61, 0
2,116813, Note_on_c, 0, 73, 0
2,116817, Note_on_c, 0, 68, 64
2,116897, Note_on_c, 0, 65, 0
2,116958, Note_on_c, 0, 68, 0
2,116964, Note_on_c, 0, 72, 69
2,116984, Note_on_c, 0, 51, 52
2,117002, Note_on_c, 0, 66, 49
2,117039, Note_on_c, 0, 51, 0
2,117082, Note_on_c, 0, 72, 0
2,117106, Note_on_c, 0, 66, 0
2,117126, Note_on_c, 0, 65, 50
2,117251, Note_on_c, 0, 65, 0
2,117268, Control_c, 0, 67, 19
2,117288, Control_c, 0, 67, 35
2,117289, Note_on_c, 0, 75, 64
2,117305, Note_on_c, 0, 60, 47
2,117307, Control_c, 0, 67, 54
2,117322, Note_on_c, 0, 66, 44
2,117326, Control_c, 0, 67, 75
2,117339, Note_on_c, 0, 60, 0
2,117345, Control_c, 0, 67, 100
2,117364, Control_c, 0, 67, 127
2,117460, Note_on_c, 0, 63, 48
2,117512, Note_on_c, 0, 63, 0
2,117600, Note_on_c, 0, 66, 0
2,117625, Note_on_c, 0, 49, 54
2,117630, Note_on_c, 0, 65, 47
2,117750, Note_on_c, 0, 49, 0
2,117787, Note_on_c, 0, 44, 46
2,117925, Note_on_c, 0, 44, 0
2,117931, Note_on_c, 0, 75, 0
2,117941, Note_on_c, 0, 68, 71
2,117965, Note_on_c, 0, 49, 51
2,118123, Note_on_c, 0, 51, 48
2,118183, Note_on_c, 0, 49, 0
2,118232, Note_on_c, 0, 51, 0
2,118266, Note_on_c, 0, 73, 73
2,118277, Note_on_c, 0, 53, 54
2,118296, Note_on_c, 0, 68, 0
2,118380, Note_on_c, 0, 53, 0
2,118434, Note_on_c, 0, 54, 46
2,118528, Note_on_c, 0, 54, 0
2,118581, Note_on_c, 0, 56, 57
2,118596, Note_on_c, 0, 71, 66
2,118657, Note_on_c, 0, 73, 0
2,118724, Note_on_c, 0, 56, 0
2,118758, Note_on_c, 0, 53, 52
2,118837, Note_on_c, 0, 53, 0
2,118910, Note_on_c, 0, 71, 0
2,118912, Note_on_c, 0, 70, 66
2,118919, Note_on_c, 0, 54, 45
2,118958, Note_on_c, 0, 65, 0
2,119061, Note_on_c, 0, 54, 0
2,119079, Note_on_c, 0, 42, 48
2,119199, Note_on_c, 0, 42, 0
2,119250, Note_on_c, 0, 61, 66
2,119263, Note_on_c, 0, 54, 53
2,119346, Note_on_c, 0, 54, 0
2,119414, Note_on_c, 0, 53, 51
2,119567, Note_on_c, 0, 53, 0
2,119582, Note_on_c, 0, 54, 57
2,119582, Note_on_c, 0, 66, 74
2,119632, Note_on_c, 0, 61, 0
2,119715, Note_on_c, 0, 54, 0
2,119715, Note_on_c, 0, 56, 62
2,119857, Note_on_c, 0, 56, 0
2,119877, Note_on_c, 0, 66, 0
2,119879, Note_on_c, 0, 65, 70
2,119883, Note_on_c, 0, 58, 51
2,119990, Note_on_c, 0, 58, 0
2,120022, Note_on_c, 0, 54, 54
2,120162, Note_on_c, 0, 54, 0
2,120212, Note_on_c, 0, 66, 64
2,120216, Note_on_c, 0, 51, 46
2,120232, Note_on_c, 0, 65, 0
2,120251, Note_on_c, 0, 70, 0
2,120354, Note_on_c, 0, 51, 0
2,120364, Note_on_c, 0, 53, 46
2,120458, Note_on_c, 0, 53, 0
2,120517, Note_on_c, 0, 54, 48
2,120524, Note_on_c, 0, 70, 71
2,120535, Note_on_c, 0, 66, 0
2,120635, Note_on_c, 0, 54, 0
2,120673, Note_on_c, 0, 51, 38
2,120674, Note_on_c, 0, 66, 70
2,120736, Note_on_c, 0, 70, 0
2,120784, Note_on_c, 0, 51, 0
2,120850, Note_on_c, 0, 66, 0
2,120851, Note_on_c, 0, 63, 54
2,120853, Note_on_c, 0, 48, 45
2,120980, Note_on_c, 0, 48, 0
2,121004, Note_on_c, 0, 49, 48
2,121108, Note_on_c, 0, 49, 0
2,121162, Note_on_c, 0, 51, 43
2,121172, Note_on_c, 0, 66, 57
2,121177, Note_on_c, 0, 63, 0
2,121241, Note_on_c, 0, 51, 0
2,121313, Note_on_c, 0, 49, 27
2,121339, Note_on_c, 0, 63, 57
2,121383, Note_on_c, 0, 49, 0
2,121400, Note_on_c, 0, 66, 0
2,121404, Note_on_c, 0, 48, 6
2,121472, Note_on_c, 0, 48, 0
2,121478, Note_on_c, 0, 63, 0
2,121494, Note_on_c, 0, 56, 48
2,121500, Note_on_c, 0, 41, 44
2,121663, Control_c, 0, 64, 51
2,121683, Control_c, 0, 64, 63
2,121701, Control_c, 0, 64, 68
2,121721, Control_c, 0, 64, 76
2,121732, Note_on_c, 0, 41, 0
2,121740, Control_c, 0, 64, 93
2,121760, Control_c, 0, 64, 127
2,121803, Note_on_c, 0, 56, 0
2,121838, Note_on_c, 0, 63, 65
2,121841, Note_on_c, 0, 53, 51
2,121951, Control_c, 0, 64, 91
2,121970, Control_c, 0, 64, 75
2,121989, Control_c, 0, 64, 65
2,121990, Note_on_c, 0, 53, 0
2,122002, Note_on_c, 0, 51, 56
2,122009, Control_c, 0, 64, 56
2,122028, Control_c, 0, 64, 35
2,122047, Control_c, 0, 64, 0
2,122163, Note_on_c, 0, 51, 0
2,122166, Note_on_c, 0, 68, 68
2,122181, Note_on_c, 0, 53, 64
2,122222, Note_on_c, 0, 63, 0
2,122330, Note_on_c, 0, 53, 0
2,122336, Note_on_c, 0, 54, 70
2,122477, Note_on_c, 0, 56, 73
2,122488, Note_on_c, 0, 54, 0
2,122493, Note_on_c, 0, 60, 62
2,122566, Note_on_c, 0, 56, 0
2,122576, Note_on_c, 0, 60, 0
2,122619, Note_on_c, 0, 53, 73
2,122753, Note_on_c, 0, 53, 0
2,122789, Note_on_c, 0, 50, 62
2,122812, Note_on_c, 0, 65, 54
2,122892, Note_on_c, 0, 68, 0
2,122941, Note_on_c, 0, 51, 66
2,122966, Note_on_c, 0, 50, 0
2,123053, Note_on_c, 0, 51, 0
2,123096, Note_on_c, 0, 53, 68
2,123109, Note_on_c, 0, 68, 69
2,123122, Note_on_c, 0, 65, 0
2,123242, Note_on_c, 0, 53, 0
2,123252, Note_on_c, 0, 50, 65
2,123268, Note_on_c, 0, 65, 61
2,123269, Note_on_c, 0, 68, 0
2,123401, Note_on_c, 0, 50, 0
2,123414, Note_on_c, 0, 65, 0
2,123426, Note_on_c, 0, 62, 58
2,123429, Note_on_c, 0, 46, 57
2,123549, Note_on_c, 0, 46, 0
2,123567, Note_on_c, 0, 48, 58
2,123700, Note_on_c, 0, 48, 0
2,123728, Note_on_c, 0, 50, 59
2,123728, Note_on_c, 0, 65, 52
2,123741, Note_on_c, 0, 62, 0
2,123836, Note_on_c, 0, 65, 0
2,123854, Note_on_c, 0, 50, 0
2,123877, Note_on_c, 0, 46, 59
2,123879, Note_on_c, 0, 62, 59
2,123923, Note_on_c, 0, 46, 0
2,124048, Note_on_c, 0, 54, 58
2,124064, Control_c, 0, 64, 48
2,124066, Note_on_c, 0, 39, 51
2,124066, Note_on_c, 0, 62, 0
2,124084, Control_c, 0, 64, 63
2,124102, Control_c, 0, 64, 70
2,124122, Control_c, 0, 64, 83
2,124141, Control_c, 0, 64, 127
2,124160, Note_on_c, 0, 39, 0
2,124199, Control_c, 0, 67, 121
2,124218, Control_c, 0, 67, 107
2,124229, Note_on_c, 0, 54, 0
2,124237, Control_c, 0, 67, 91
2,124256, Control_c, 0, 67, 75
2,124276, Control_c, 0, 67, 57
2,124295, Control_c, 0, 67, 43
2,124313, Control_c, 0, 67, 29
2,124333, Control_c, 0, 67, 17
2,124352, Control_c, 0, 67, 0
2,124361, Note_on_c, 0, 51, 62
2,124378, Note_on_c, 0, 58, 64
2,124390, Control_c, 0, 64, 107
2,124410, Control_c, 0, 64, 85
2,124429, Control_c, 0, 64, 71
2,124448, Control_c, 0, 64, 63
2,124467, Control_c, 0, 64, 53
2,124487, Control_c, 0, 64, 39
2,124500, Note_on_c, 0, 51, 0
2,124505, Control_c, 0, 64, 20
2,124525, Control_c, 0, 64, 0
2,124532, Note_on_c, 0, 50, 72
2,124689, Note_on_c, 0, 66, 65
2,124695, Note_on_c, 0, 51, 76
2,124714, Note_on_c, 0, 58, 0
2,124740, Note_on_c, 0, 50, 0
2,124839, Note_on_c, 0, 53, 80
2,124849, Note_on_c, 0, 51, 0
2,124999, Note_on_c, 0, 54, 78
2,125009, Note_on_c, 0, 53, 0
2,125011, Note_on_c, 0, 58, 60
2,125078, Note_on_c, 0, 58, 0
2,125135, Note_on_c, 0, 54, 0
2,125138, Note_on_c, 0, 51, 71
2,125302, Note_on_c, 0, 51, 0
2,125330, Note_on_c, 0, 48, 68
2,125336, Note_on_c, 0, 63, 76
2,125347, Note_on_c, 0, 66, 0
2,125473, Note_on_c, 0, 63, 0
2,125473, Note_on_c, 0, 65, 75
2,125484, Note_on_c, 0, 49, 71
2,125497, Note_on_c, 0, 48, 0
2,125595, Note_on_c, 0, 49, 0
2,125626, Note_on_c, 0, 66, 87
2,125630, Note_on_c, 0, 51, 69
2,125659, Note_on_c, 0, 65, 0
2,125723, Note_on_c, 0, 51, 0
2,125729, Note_on_c, 0, 66, 0
2,125766, Note_on_c, 0, 63, 87
2,125783, Note_on_c, 0, 48, 73
2,125917, Note_on_c, 0, 75, 89
2,125922, Note_on_c, 0, 48, 0
2,125941, Note_on_c, 0, 44, 74
2,125943, Note_on_c, 0, 63, 0
2,126088, Note_on_c, 0, 66, 65
2,126090, Note_on_c, 0, 46, 62
2,126115, Note_on_c, 0, 44, 0
2,126193, Note_on_c, 0, 46, 0
2,126232, Note_on_c, 0, 48, 69
2,126245, Note_on_c, 0, 68, 77
2,126271, Note_on_c, 0, 66, 0
2,126307, Control_c, 0, 64, 29
2,126327, Control_c, 0, 64, 54
2,126346, Control_c, 0, 64, 60
2,126346, Note_on_c, 0, 75, 0
2,126365, Control_c, 0, 64, 62
2,126370, Note_on_c, 0, 48, 0
2,126378, Note_on_c, 0, 63, 78
2,126380, Note_on_c, 0, 44, 70
2,126419, Note_on_c, 0, 44, 0
2,126423, Control_c, 0, 64, 61
2,126442, Control_c, 0, 64, 55
2,126461, Control_c, 0, 64, 34
2,126481, Control_c, 0, 64, 0
2,126485, Note_on_c, 0, 68, 0
2,126537, Note_on_c, 0, 65, 78
2,126540, Note_on_c, 0, 37, 80
2,126572, Note_on_c, 0, 63, 0
2,126590, Note_on_c, 0, 37, 0
2,126595, Control_c, 0, 64, 53
2,126615, Control_c, 0, 64, 70
2,126634, Control_c, 0, 64, 94
2,126653, Control_c, 0, 64, 127
2,126681, Note_on_c, 0, 65, 0
2,126685, Note_on_c, 0, 73, 79
2,126855, Note_on_c, 0, 49, 78
2,126856, Note_on_c, 0, 72, 81
2,126890, Note_on_c, 0, 73, 0
2,126993, Note_on_c, 0, 51, 71
2,126995, Note_on_c, 0, 75, 86
2,127028, Note_on_c, 0, 49, 0
2,127031, Note_on_c, 0, 72, 0
2,127056, Control_c, 0, 64, 106
2,127075, Control_c, 0, 64, 76
2,127095, Control_c, 0, 64, 58
2,127100, Note_on_c, 0, 51, 0
2,127114, Control_c, 0, 64, 0
2,127161, Note_on_c, 0, 73, 83
2,127173, Note_on_c, 0, 53, 74
2,127203, Note_on_c, 0, 75, 0
2,127214, Note_on_c, 0, 53, 0
2,127307, Note_on_c, 0, 68, 77
2,127327, Note_on_c, 0, 73, 0
2,127464, Note_on_c, 0, 61, 90
2,127479, Note_on_c, 0, 49, 74
2,127488, Note_on_c, 0, 70, 80
2,127504, Note_on_c, 0, 68, 0
2,127528, Note_on_c, 0, 49, 0
2,127644, Note_on_c, 0, 70, 0
2,127645, Note_on_c, 0, 71, 80
2,127816, Note_on_c, 0, 54, 72
2,127827, Note_on_c, 0, 70, 78
2,127846, Control_c, 0, 64, 18
2,127866, Control_c, 0, 64, 59
2,127884, Control_c, 0, 64, 67
2,127889, Note_on_c, 0, 71, 0
2,127904, Control_c, 0, 64, 78
2,127923, Control_c, 0, 64, 127
2,127997, Note_on_c, 0, 60, 74
2,128004, Note_on_c, 0, 68, 81
2,128039, Note_on_c, 0, 61, 0
2,128058, Control_c, 0, 64, 111
2,128062, Note_on_c, 0, 70, 0
2,128077, Control_c, 0, 64, 77
2,128096, Control_c, 0, 64, 61
2,128115, Control_c, 0, 64, 0
2,128142, Note_on_c, 0, 58, 71
2,128155, Note_on_c, 0, 66, 78
2,128157, Note_on_c, 0, 68, 0
2,128173, Note_on_c, 0, 60, 0
2,128267, Note_on_c, 0, 66, 0
2,128270, Note_on_c, 0, 60, 72
2,128292, Note_on_c, 0, 68, 84
2,128317, Note_on_c, 0, 54, 0
2,128445, Note_on_c, 0, 77, 83
2,128450, Note_on_c, 0, 61, 81
2,128460, Note_on_c, 0, 58, 0
2,128475, Note_on_c, 0, 53, 55
2,128476, Note_on_c, 0, 60, 0
2,128478, Note_on_c, 0, 68, 0
2,128520, Note_on_c, 0, 77, 0
2,128588, Note_on_c, 0, 60, 76
2,128596, Note_on_c, 0, 61, 0
2,128738, Note_on_c, 0, 73, 80
2,128781, Note_on_c, 0, 58, 69
2,128806, Control_c, 0, 64, 54
2,128813, Note_on_c, 0, 73, 0
2,128814, Note_on_c, 0, 60, 0
2,128826, Control_c, 0, 64, 65
2,128844, Control_c, 0, 64, 73
2,128864, Control_c, 0, 64, 89
2,128867, Note_on_c, 0, 53, 0
2,128883, Control_c, 0, 64, 127
2,128904, Note_on_c, 0, 58, 0
2,128912, Note_on_c, 0, 56, 80
2,128990, Note_on_c, 0, 56, 0
2,128998, Control_c, 0, 64, 121
2,129018, Control_c, 0, 64, 88
2,129037, Control_c, 0, 64, 70
2,129056, Control_c, 0, 64, 55
2,129075, Control_c, 0, 64, 0
2,129093, Note_on_c, 0, 68, 81
2,129099, Note_on_c, 0, 58, 73
2,129116, Note_on_c, 0, 51, 67
2,129257, Note_on_c, 0, 51, 0
2,129446, Note_on_c, 0, 49, 68
2,129451, Note_on_c, 0, 66, 74
2,129516, Note_on_c, 0, 68, 0
2,129562, Note_on_c, 0, 49, 0
2,129596, Note_on_c, 0, 65, 74
2,129615, Note_on_c, 0, 66, 0
2,129756, Note_on_c, 0, 48, 65
2,129771, Note_on_c, 0, 66, 78
2,129787, Note_on_c, 0, 65, 0
2,129893, Note_on_c, 0, 66, 0
2,129912, Note_on_c, 0, 56, 79
2,129946, Note_on_c, 0, 58, 0
2,130076, Note_on_c, 0, 54, 74
2,130086, Note_on_c, 0, 75, 81
2,130091, Note_on_c, 0, 56, 0
2,130193, Note_on_c, 0, 75, 0
2,130230, Note_on_c, 0, 54, 0
2,130241, Note_on_c, 0, 58, 79
2,130320, Note_on_c, 0, 48, 0
2,130324, Note_on_c, 0, 58, 0
2,130402, Note_on_c, 0, 65, 76
2,130418, Note_on_c, 0, 56, 81
2,130423, Note_on_c, 0, 49, 75
2,130563, Note_on_c, 0, 65, 0
2,130571, Note_on_c, 0, 54, 72
2,130603, Note_on_c, 0, 56, 0
2,130712, Note_on_c, 0, 54, 0
2,130729, Note_on_c, 0, 53, 68
2,130733, Note_on_c, 0, 73, 81
2,130746, Control_c, 0, 64, 22
2,130764, Control_c, 0, 64, 51
2,130784, Control_c, 0, 64, 57
2,130803, Control_c, 0, 64, 57
2,130823, Control_c, 0, 64, 54
2,130841, Control_c, 0, 64, 52
2,130861, Control_c, 0, 64, 50
2,130882, Note_on_c, 0, 73, 0
2,130885, Note_on_c, 0, 53, 0
2,130885, Note_on_c, 0, 56, 75
2,130899, Control_c, 0, 64, 49
2,130918, Control_c, 0, 64, 47
2,130938, Control_c, 0, 64, 45
2,130957, Control_c, 0, 64, 44
2,130964, Note_on_c, 0, 56, 0
2,130975, Note_on_c, 0, 49, 0
2,130976, Control_c, 0, 64, 41
2,130995, Control_c, 0, 64, 22
2,131015, Control_c, 0, 64, 0
2,131060, Note_on_c, 0, 54, 67
2,131062, Note_on_c, 0, 63, 82
2,131077, Note_on_c, 0, 44, 57
2,131210, Note_on_c, 0, 63, 0
2,131217, Note_on_c, 0, 53, 74
2,131332, Note_on_c, 0, 54, 0
2,131391, Note_on_c, 0, 53, 0
2,131400, Note_on_c, 0, 54, 75
2,131407, Note_on_c, 0, 72, 79
2,131498, Control_c, 0, 64, 22
2,131510, Note_on_c, 0, 72, 0
2,131516, Control_c, 0, 64, 58
2,131536, Control_c, 0, 64, 65
2,131538, Note_on_c, 0, 51, 70
2,131555, Control_c, 0, 64, 71
2,131557, Note_on_c, 0, 54, 0
2,131574, Control_c, 0, 64, 81
2,131575, Note_on_c, 0, 44, 0
2,131593, Control_c, 0, 64, 91
2,131613, Control_c, 0, 64, 99
2,131632, Control_c, 0, 64, 100
2,131651, Control_c, 0, 64, 98
2,131670, Control_c, 0, 64, 93
2,131690, Control_c, 0, 64, 85
2,131708, Control_c, 0, 64, 73
2,131727, Control_c, 0, 64, 64
2,131747, Control_c, 0, 64, 39
2,131765, Note_on_c, 0, 51, 0
2,131766, Control_c, 0, 64, 0
2,131787, Note_on_c, 0, 61, 73
2,131792, Note_on_c, 0, 46, 56
2,131792, Note_on_c, 0, 53, 64
2,131876, Note_on_c, 0, 46, 0
2,131881, Control_c, 0, 64, 40
2,131901, Control_c, 0, 64, 63
2,131919, Control_c, 0, 64, 70
2,131939, Control_c, 0, 64, 83
2,131958, Control_c, 0, 64, 119
2,131960, Note_on_c, 0, 61, 0
2,131978, Control_c, 0, 64, 127
2,132013, Note_on_c, 0, 65, 70
2,132023, Note_on_c, 0, 53, 0
2,132024, Note_on_c, 0, 56, 65
2,132150, Control_c, 0, 64, 97
2,132170, Control_c, 0, 64, 78
2,132175, Note_on_c, 0, 66, 74
2,132187, Note_on_c, 0, 65, 0
2,132188, Control_c, 0, 64, 64
2,132195, Note_on_c, 0, 58, 62
2,132207, Control_c, 0, 64, 37
2,132215, Note_on_c, 0, 56, 0
2,132227, Control_c, 0, 64, 0
2,132292, Note_on_c, 0, 58, 0
2,132320, Note_on_c, 0, 68, 81
2,132335, Note_on_c, 0, 66, 0
2,132338, Note_on_c, 0, 60, 60
2,132486, Note_on_c, 0, 60, 0
2,132489, Note_on_c, 0, 70, 75
2,132500, Note_on_c, 0, 61, 63
2,132545, Note_on_c, 0, 68, 0
2,132606, Note_on_c, 0, 70, 0
2,132619, Note_on_c, 0, 61, 0
2,132635, Note_on_c, 0, 60, 65
2,132663, Note_on_c, 0, 72, 68
2,132740, Note_on_c, 0, 60, 0
2,132788, Note_on_c, 0, 58, 60
2,132812, Note_on_c, 0, 73, 76
2,132832, Note_on_c, 0, 72, 0
2,132933, Note_on_c, 0, 56, 69
2,132958, Note_on_c, 0, 75, 79
2,132969, Note_on_c, 0, 73, 0
2,132982, Note_on_c, 0, 58, 0
2,133077, Note_on_c, 0, 56, 0
2,133109, Note_on_c, 0, 75, 0
2,133117, Note_on_c, 0, 55, 73
2,133120, Note_on_c, 0, 76, 81
2,133256, Note_on_c, 0, 75, 80
2,133263, Note_on_c, 0, 56, 78
2,133265, Note_on_c, 0, 55, 0
2,133303, Note_on_c, 0, 76, 0
2,133384, Note_on_c, 0, 56, 0
2,133414, Note_on_c, 0, 58, 76
2,133418, Note_on_c, 0, 73, 83
2,133448, Note_on_c, 0, 75, 0
2,133511, Note_on_c, 0, 58, 0
2,133565, Note_on_c, 0, 55, 75
2,133570, Note_on_c, 0, 75, 91
2,133606, Note_on_c, 0, 73, 0
2,133630, Note_on_c, 0, 55, 0
2,133694, Note_on_c, 0, 75, 0
2,133723, Note_on_c, 0, 76, 84
2,133728, Note_on_c, 0, 51, 82
2,133873, Note_on_c, 0, 49, 74
2,133882, Note_on_c, 0, 79, 87
2,133975, Note_on_c, 0, 76, 0
2,134026, Note_on_c, 0, 48, 66
2,134034, Note_on_c, 0, 49, 0
2,134034, Note_on_c, 0, 80, 89
2,134050, Note_on_c, 0, 79, 0
2,134086, Control_c, 0, 64, 24
2,134106, Control_c, 0, 64, 59
2,134124, Control_c, 0, 64, 66
2,134143, Note_on_c, 0, 80, 0
2,134144, Control_c, 0, 64, 75
2,134163, Control_c, 0, 64, 93
2,134182, Note_on_c, 0, 46, 75
2,134182, Note_on_c, 0, 82, 86
2,134186, Control_c, 0, 64, 127
2,134204, Note_on_c, 0, 48, 0
2,134238, Note_on_c, 0, 51, 0
2,134239, Note_on_c, 0, 82, 0
2,134305, Note_on_c, 0, 46, 0
2,134340, Control_c, 0, 64, 91
2,134346, Note_on_c, 0, 44, 70
2,134356, Note_on_c, 0, 73, 81
2,134359, Control_c, 0, 64, 71
2,134378, Control_c, 0, 64, 52
2,134397, Control_c, 0, 64, 0
2,134499, Note_on_c, 0, 72, 84
2,134507, Note_on_c, 0, 51, 69
2,134511, Note_on_c, 0, 73, 0
2,134599, Note_on_c, 0, 44, 0
2,134632, Note_on_c, 0, 51, 0
2,134651, Note_on_c, 0, 53, 75
2,134653, Note_on_c, 0, 70, 85
2,134681, Note_on_c, 0, 72, 0
2,134801, Note_on_c, 0, 54, 79
2,134801, Note_on_c, 0, 68, 86
2,134834, Note_on_c, 0, 53, 0
2,134851, Note_on_c, 0, 70, 0
2,134968, Note_on_c, 0, 75, 88
2,134975, Note_on_c, 0, 56, 82
2,134995, Note_on_c, 0, 68, 0
2,135007, Note_on_c, 0, 54, 0
2,135140, Note_on_c, 0, 58, 82
2,135162, Note_on_c, 0, 56, 0
2,135306, Note_on_c, 0, 58, 0
2,135306, Note_on_c, 0, 66, 79
2,135308, Note_on_c, 0, 60, 76
2,135429, Note_on_c, 0, 60, 0
2,135442, Note_on_c, 0, 66, 0
2,135470, Note_on_c, 0, 56, 80
2,135698, Note_on_c, 0, 56, 0
2,135710, Note_on_c, 0, 65, 74
2,135726, Note_on_c, 0, 61, 71
2,135853, Control_c, 0, 64, 66
2,135872, Control_c, 0, 64, 85
2,135892, Control_c, 0, 64, 127
2,135893, Note_on_c, 0, 65, 0
2,135897, Note_on_c, 0, 61, 0
2,135931, Note_on_c, 0, 75, 0
2,136153, Note_on_c, 0, 73, 87
2,136163, Note_on_c, 0, 68, 74
2,136173, Note_on_c, 0, 61, 70
2,136184, Note_on_c, 0, 41, 67
2,136221, Control_c, 0, 64, 88
2,136239, Control_c, 0, 64, 64
2,136259, Control_c, 0, 64, 56
2,136278, Control_c, 0, 64, 62
2,136298, Control_c, 0, 64, 67
2,136314, Control_c, 0, 64, 76
2,136334, Control_c, 0, 64, 112
2,136353, Control_c, 0, 64, 127
2,136357, Note_on_c, 0, 61, 0
2,136380, Note_on_c, 0, 41, 0
2,136432, Note_on_c, 0, 68, 0
2,136473, Note_on_c, 0, 73, 0
2,136600, Note_on_c, 0, 70, 82
2,136630, Note_on_c, 0, 42, 65
2,136655, Note_on_c, 0, 66, 66
2,136679, Control_c, 0, 64, 91
2,136699, Control_c, 0, 64, 67
2,136717, Control_c, 0, 64, 0
2,136755, Note_on_c, 0, 63, 50
2,136814, Control_c, 0, 64, 49
2,136827, Note_on_c, 0, 66, 0
2,136833, Control_c, 0, 64, 64
2,136853, Control_c, 0, 64, 71
2,136871, Control_c, 0, 64, 86
2,136891, Control_c, 0, 64, 127
2,136967, Note_on_c, 0, 70, 0
2,137020, Note_on_c, 0, 63, 0
2,137070, Note_on_c, 0, 42, 0
2,137221, Note_on_c, 0, 72, 76
2,137252, Note_on_c, 0, 44, 54
2,137257, Note_on_c, 0, 66, 53
2,137263, Note_on_c, 0, 68, 57
2,137295, Control_c, 0, 64, 106
2,137314, Control_c, 0, 64, 78
2,137333, Control_c, 0, 64, 61
2,137352, Control_c, 0, 64, 0
2,137448, Control_c, 0, 64, 35
2,137468, Control_c, 0, 64, 60
2,137486, Control_c, 0, 64, 68
2,137506, Control_c, 0, 64, 77
2,137525, Control_c, 0, 64, 99
2,137544, Control_c, 0, 64, 127
2,137624, Note_on_c, 0, 72, 0
2,137636, Note_on_c, 0, 44, 0
2,137636, Note_on_c, 0, 66, 0
2,137660, Note_on_c, 0, 68, 0
2,137890, Control_c, 0, 67, 15
2,137909, Control_c, 0, 67, 29
2,137928, Control_c, 0, 67, 40
2,137948, Control_c, 0, 67, 49
2,137966, Control_c, 0, 67, 61
2,137986, Control_c, 0, 67, 74
2,138005, Control_c, 0, 67, 91
2,138024, Control_c, 0, 67, 109
2,138043, Control_c, 0, 67, 127
2,138120, Note_on_c, 0, 37, 57
2,138195, Note_on_c, 0, 61, 60
2,138270, Note_on_c, 0, 65, 64
2,138347, Note_on_c, 0, 68, 76
2,138428, Note_on_c, 0, 73, 76
2,138465, Control_c, 0, 64, 119
2,138484, Control_c, 0, 64, 110
2,138503, Control_c, 0, 64, 102
2,138525, Control_c, 0, 64, 91
2,138545, Control_c, 0, 64, 81
2,138564, Control_c, 0, 64, 71
2,138583, Control_c, 0, 64, 63
2,138602, Control_c, 0, 64, 52
2,138622, Control_c, 0, 64, 21
2,138640, Control_c, 0, 64, 0
2,139453, Control_c, 0, 64, 17
2,139471, Control_c, 0, 64, 38
2,139491, Control_c, 0, 64, 49
2,139510, Control_c, 0, 64, 54
2,139530, Control_c, 0, 64, 57
2,139548, Control_c, 0, 64, 59
2,139568, Control_c, 0, 64, 60
2,139590, Control_c, 0, 64, 61
2,139608, Control_c, 0, 64, 63
2,139628, Control_c, 0, 64, 64
2,139647, Control_c, 0, 64, 65
2,139667, Control_c, 0, 64, 66
2,139685, Control_c, 0, 64, 69
2,139705, Control_c, 0, 64, 72
2,139724, Control_c, 0, 64, 76
2,139744, Control_c, 0, 64, 80
2,139762, Control_c, 0, 64, 83
2,139782, Control_c, 0, 64, 86
2,139804, Control_c, 0, 64, 89
2,139822, Control_c, 0, 64, 93
2,139842, Control_c, 0, 64, 99
2,139861, Control_c, 0, 64, 105
2,139881, Control_c, 0, 64, 115
2,139899, Control_c, 0, 64, 127
2,139996, Note_on_c, 0, 61, 0
2,140136, Note_on_c, 0, 65, 0
2,140261, Note_on_c, 0, 73, 0
2,140320, Note_on_c, 0, 37, 0
2,140325, Note_on_c, 0, 68, 0
2,140993, Control_c, 0, 64, 117
2,141012, Control_c, 0, 64, 106
2,141032, Control_c, 0, 64, 99
2,141051, Control_c, 0, 64, 93
2,141070, Control_c, 0, 64, 88
2,141089, Control_c, 0, 64, 84
2,141109, Control_c, 0, 64, 80
2,141127, Control_c, 0, 64, 76
2,141146, Control_c, 0, 64, 74
2,141166, Control_c, 0, 64, 72
2,141185, Control_c, 0, 64, 71
2,141204, Control_c, 0, 64, 69
2,141223, Control_c, 0, 64, 67
2,141243, Control_c, 0, 64, 65
2,141261, Control_c, 0, 64, 63
2,141281, Control_c, 0, 64, 61
2,141300, Control_c, 0, 64, 59
2,141320, Control_c, 0, 64, 58
2,141338, Control_c, 0, 64, 57
2,141358, Control_c, 0, 64, 55
2,141377, Control_c, 0, 64, 50
2,141397, Control_c, 0, 64, 42
2,141415, Control_c, 0, 64, 29
2,141435, Control_c, 0, 64, 13
2,141454, Control_c, 0, 64, 0
2,141455, End_track
0, 0, End_of_file
