0, 0, Header, 1, 2, 480
1, 0, Start_track
1, 0, Tempo, 500000
1, 0, Time_signature, 4, 2, 24, 8
1, 1, End_track
2, 0, Start_track
2, 0, Program_c, 0, 0
2, 0, Control_c, 0, 64, 55
2, 47, Control_c, 0, 64, 54
2, 67, Control_c, 0, 64, 54
2, 86, Control_c, 0, 64, 53
2, 105, Control_c, 0, 64, 53
2, 144, Control_c, 0, 64, 52
2, 163, Control_c, 0, 64, 52
2, 182, Control_c, 0, 64, 51
2, 201, Control_c, 0, 64, 50
2, 221, Control_c, 0, 64, 49
2, 239, Control_c, 0, 64, 48
2, 258, Control_c, 0, 64, 46
2, 278, Control_c, 0, 64, 44
2, 297, Control_c, 0, 64, 41
2, 316, Control_c, 0, 64, 36
2, 335, Control_c, 0, 64, 24
2, 355, Control_c, 0, 64, 0
2, 927, Note_on_c, 0, 77, 57
2, 940, Note_on_c, 0, 49, 47
2, 1045, Note_on_c, 0, 73, 62
2, 1060, Note_on_c, 0, 77, 0
2, 1131, Note_on_c, 0, 73, 0
2, 1146, Note_on_c, 0, 68, 73
2, 1255, Note_on_c, 0, 68, 0
2, 1259, Note_on_c, 0, 73, 67
2, 1334, Note_on_c, 0, 49, 0
2, 1367, Note_on_c, 0, 77, 69
2, 1372, Note_on_c, 0, 73, 0
2, 1374, Note_on_c, 0, 61, 63
2, 1423, Note_on_c, 0, 61, 0
2, 1437, Note_on_c, 0, 77, 0
2, 1480, Note_on_c, 0, 73, 66
2, 1575, Note_on_c, 0, 73, 0
2, 1590, Note_on_c, 0, 51, 51
2, 1594, Note_on_c, 0, 78, 72
2, 1697, Note_on_c, 0, 78, 0
2, 1714, Note_on_c, 0, 73, 63
2, 1806, Note_on_c, 0, 73, 0
2, 1825, Note_on_c, 0, 78, 74
2, 1920, Note_on_c, 0, 78, 0
2, 1937, Note_on_c, 0, 73, 66
2, 2020, Note_on_c, 0, 51, 0
2, 2032, Note_on_c, 0, 73, 0
2, 2047, Note_on_c, 0, 61, 65
2, 2052, Note_on_c, 0, 78, 75
2, 2093, Note_on_c, 0, 61, 0
2, 2146, Note_on_c, 0, 78, 0
2, 2168, Note_on_c, 0, 73, 64
2, 2251, Note_on_c, 0, 73, 0
2, 2278, Note_on_c, 0, 80, 77
2, 2283, Note_on_c, 0, 53, 56
2, 2382, Note_on_c, 0, 80, 0
2, 2395, Note_on_c, 0, 73, 64
2, 2481, Note_on_c, 0, 73, 0
2, 2498, Note_on_c, 0, 80, 83
2, 2610, Note_on_c, 0, 80, 0
2, 2617, Note_on_c, 0, 73, 68
2, 2716, Note_on_c, 0, 73, 0
2, 2726, Note_on_c, 0, 53, 0
2, 2731, Note_on_c, 0, 80, 85
2, 2745, Note_on_c, 0, 61, 61
2, 2795, Note_on_c, 0, 61, 0
2, 2839, Note_on_c, 0, 73, 68
2, 2843, Note_on_c, 0, 80, 0
2, 2937, Note_on_c, 0, 73, 0
2, 2963, Note_on_c, 0, 82, 75
2, 2980, Note_on_c, 0, 54, 52
2, 3074, Note_on_c, 0, 73, 65
2, 3075, Note_on_c, 0, 82, 0
2, 3185, Note_on_c, 0, 73, 0
2, 3206, Note_on_c, 0, 82, 78
2, 3316, Note_on_c, 0, 82, 0
2, 3322, Note_on_c, 0, 73, 69
2, 3424, Note_on_c, 0, 73, 0
2, 3425, Note_on_c, 0, 54, 0
2, 3450, Note_on_c, 0, 82, 75
2, 3456, Note_on_c, 0, 61, 55
2, 3528, Note_on_c, 0, 61, 0
2, 3550, Note_on_c, 0, 73, 62
2, 3555, Note_on_c, 0, 82, 0
2, 3653, Note_on_c, 0, 73, 0
2, 3672, Note_on_c, 0, 80, 72
2, 3692, Note_on_c, 0, 53, 50
2, 3787, Note_on_c, 0, 80, 0
2, 3801, Note_on_c, 0, 73, 56
2, 3890, Note_on_c, 0, 73, 0
2, 3916, Note_on_c, 0, 80, 65
2, 3999, Note_on_c, 0, 80, 0
2, 4019, Note_on_c, 0, 73, 59
2, 4104, Note_on_c, 0, 73, 0
2, 4133, Note_on_c, 0, 53, 0
2, 4140, Note_on_c, 0, 80, 68
2, 4162, Note_on_c, 0, 61, 48
2, 4223, Note_on_c, 0, 61, 0
2, 4235, Note_on_c, 0, 80, 0
2, 4247, Note_on_c, 0, 73, 60
2, 4370, Note_on_c, 0, 73, 0
2, 4377, Note_on_c, 0, 78, 59
2, 4402, Note_on_c, 0, 51, 41
2, 4487, Note_on_c, 0, 77, 64
2, 4590, Note_on_c, 0, 78, 0
2, 4597, Note_on_c, 0, 77, 0
2, 4599, Note_on_c, 0, 75, 75
2, 4696, Note_on_c, 0, 75, 0
2, 4699, Note_on_c, 0, 77, 66
2, 4798, Note_on_c, 0, 77, 0
2, 4814, Note_on_c, 0, 78, 77
2, 4823, Note_on_c, 0, 51, 0
2, 4834, Note_on_c, 0, 60, 55
2, 4872, Note_on_c, 0, 60, 0
2, 4927, Note_on_c, 0, 75, 76
2, 4936, Note_on_c, 0, 78, 0
2, 4990, Note_on_c, 0, 75, 0
2, 5039, Note_on_c, 0, 77, 76
2, 5061, Note_on_c, 0, 49, 57
2, 5155, Note_on_c, 0, 75, 79
2, 5193, Note_on_c, 0, 77, 0
2, 5273, Note_on_c, 0, 73, 79
2, 5274, Note_on_c, 0, 49, 0
2, 5284, Note_on_c, 0, 75, 0
2, 5290, Control_c, 0, 64, 15
2, 5309, Control_c, 0, 64, 19
2, 5367, Control_c, 0, 64, 9
2, 5374, Note_on_c, 0, 75, 72
2, 5380, Note_on_c, 0, 73, 0
2, 5386, Control_c, 0, 64, 0
2, 5486, Note_on_c, 0, 77, 78
2, 5506, Note_on_c, 0, 61, 85
2, 5534, Note_on_c, 0, 75, 0
2, 5597, Note_on_c, 0, 73, 81
2, 5602, Note_on_c, 0, 77, 0
2, 5705, Note_on_c, 0, 75, 81
2, 5717, Note_on_c, 0, 73, 0
2, 5814, Note_on_c, 0, 77, 76
2, 5842, Note_on_c, 0, 75, 0
2, 5851, Note_on_c, 0, 61, 0
2, 5926, Note_on_c, 0, 75, 76
2, 5931, Note_on_c, 0, 60, 72
2, 5940, Note_on_c, 0, 77, 0
2, 6032, Note_on_c, 0, 58, 64
2, 6035, Note_on_c, 0, 73, 71
2, 6041, Note_on_c, 0, 60, 0
2, 6084, Note_on_c, 0, 75, 0
2, 6130, Note_on_c, 0, 58, 0
2, 6137, Note_on_c, 0, 73, 0
2, 6140, Note_on_c, 0, 56, 65
2, 6143, Note_on_c, 0, 72, 78
2, 6240, Note_on_c, 0, 70, 76
2, 6243, Note_on_c, 0, 72, 0
2, 6260, Note_on_c, 0, 58, 60
2, 6273, Note_on_c, 0, 56, 0
2, 6338, Note_on_c, 0, 58, 0
2, 6367, Note_on_c, 0, 60, 59
2, 6367, Note_on_c, 0, 68, 72
2, 6400, Note_on_c, 0, 70, 0
2, 6476, Note_on_c, 0, 60, 0
2, 6483, Note_on_c, 0, 56, 57
2, 6562, Note_on_c, 0, 56, 0
2, 6608, Note_on_c, 0, 51, 48
2, 6703, Note_on_c, 0, 51, 0
2, 6718, Note_on_c, 0, 56, 60
2, 6788, Note_on_c, 0, 56, 0
2, 6840, Note_on_c, 0, 68, 0
2, 6848, Note_on_c, 0, 60, 55
2, 6867, Note_on_c, 0, 80, 70
2, 6909, Note_on_c, 0, 80, 0
2, 6910, Note_on_c, 0, 60, 0
2, 6960, Note_on_c, 0, 56, 57
2, 7067, Note_on_c, 0, 56, 0
2, 7092, Note_on_c, 0, 70, 75
2, 7093, Note_on_c, 0, 61, 63
2, 7215, Note_on_c, 0, 61, 0
2, 7222, Note_on_c, 0, 56, 68
2, 7319, Note_on_c, 0, 56, 0
2, 7340, Note_on_c, 0, 61, 70
2, 7443, Note_on_c, 0, 61, 0
2, 7447, Note_on_c, 0, 56, 70
2, 7541, Note_on_c, 0, 56, 0
2, 7543, Note_on_c, 0, 70, 0
2, 7562, Note_on_c, 0, 61, 76
2, 7568, Note_on_c, 0, 80, 77
2, 7650, Note_on_c, 0, 80, 0
2, 7665, Note_on_c, 0, 61, 0
2, 7673, Note_on_c, 0, 56, 65
2, 7785, Note_on_c, 0, 56, 0
2, 7804, Note_on_c, 0, 63, 65
2, 7804, Note_on_c, 0, 72, 77
2, 7929, Note_on_c, 0, 63, 0
2, 7932, Note_on_c, 0, 56, 67
2, 8052, Note_on_c, 0, 56, 0
2, 8058, Note_on_c, 0, 63, 76
2, 8159, Note_on_c, 0, 63, 0
2, 8165, Note_on_c, 0, 56, 70
2, 8288, Note_on_c, 0, 56, 0
2, 8289, Note_on_c, 0, 63, 76
2, 8299, Note_on_c, 0, 80, 76
2, 8311, Note_on_c, 0, 72, 0
2, 8369, Note_on_c, 0, 80, 0
2, 8383, Note_on_c, 0, 63, 0
2, 8408, Note_on_c, 0, 56, 63
2, 8527, Note_on_c, 0, 56, 0
2, 8543, Note_on_c, 0, 65, 61
2, 8556, Note_on_c, 0, 73, 76
2, 8676, Note_on_c, 0, 56, 66
2, 8679, Note_on_c, 0, 65, 0
2, 8768, Note_on_c, 0, 56, 0
2, 8788, Note_on_c, 0, 65, 65
2, 8887, Note_on_c, 0, 65, 0
2, 8902, Note_on_c, 0, 56, 68
2, 9012, Note_on_c, 0, 56, 0
2, 9022, Note_on_c, 0, 65, 65
2, 9043, Note_on_c, 0, 73, 0
2, 9045, Note_on_c, 0, 80, 66
2, 9095, Note_on_c, 0, 80, 0
2, 9104, Note_on_c, 0, 65, 0
2, 9140, Note_on_c, 0, 56, 59
2, 9254, Note_on_c, 0, 56, 0
2, 9269, Note_on_c, 0, 63, 62
2, 9278, Note_on_c, 0, 72, 60
2, 9385, Note_on_c, 0, 63, 0
2, 9400, Note_on_c, 0, 56, 59
2, 9507, Note_on_c, 0, 56, 0
2, 9514, Note_on_c, 0, 63, 72
2, 9620, Note_on_c, 0, 56, 61
2, 9620, Note_on_c, 0, 63, 0
2, 9730, Note_on_c, 0, 56, 0
2, 9753, Note_on_c, 0, 63, 69
2, 9765, Note_on_c, 0, 80, 60
2, 9783, Note_on_c, 0, 72, 0
2, 9836, Note_on_c, 0, 80, 0
2, 9860, Note_on_c, 0, 63, 0
2, 9872, Note_on_c, 0, 56, 60
2, 9979, Note_on_c, 0, 61, 66
2, 9984, Note_on_c, 0, 70, 57
2, 9989, Note_on_c, 0, 56, 0
2, 10118, Note_on_c, 0, 60, 65
2, 10193, Note_on_c, 0, 61, 0
2, 10229, Note_on_c, 0, 60, 0
2, 10231, Note_on_c, 0, 58, 67
2, 10339, Note_on_c, 0, 60, 69
2, 10361, Note_on_c, 0, 58, 0
2, 10436, Note_on_c, 0, 70, 0
2, 10441, Note_on_c, 0, 60, 0
2, 10445, Note_on_c, 0, 61, 71
2, 10462, Note_on_c, 0, 79, 66
2, 10529, Note_on_c, 0, 79, 0
2, 10558, Note_on_c, 0, 58, 62
2, 10568, Note_on_c, 0, 61, 0
2, 10670, Note_on_c, 0, 58, 0
2, 10683, Note_on_c, 0, 60, 64
2, 10687, Note_on_c, 0, 68, 61
2, 10817, Note_on_c, 0, 58, 64
2, 10854, Note_on_c, 0, 60, 0
2, 10909, Note_on_c, 0, 58, 0
2, 10922, Note_on_c, 0, 56, 73
2, 11034, Note_on_c, 0, 58, 67
2, 11069, Note_on_c, 0, 56, 0
2, 11124, Note_on_c, 0, 58, 0
2, 11134, Note_on_c, 0, 60, 70
2, 11143, Note_on_c, 0, 80, 90
2, 11145, Note_on_c, 0, 68, 0
2, 11252, Note_on_c, 0, 60, 0
2, 11253, Note_on_c, 0, 56, 69
2, 11369, Note_on_c, 0, 58, 76
2, 11420, Note_on_c, 0, 56, 0
2, 11464, Note_on_c, 0, 58, 0
2, 11477, Note_on_c, 0, 59, 82
2, 11592, Note_on_c, 0, 59, 0
2, 11594, Note_on_c, 0, 78, 75
2, 11603, Note_on_c, 0, 58, 72
2, 11617, Note_on_c, 0, 80, 0
2, 11690, Note_on_c, 0, 56, 74
2, 11716, Note_on_c, 0, 77, 71
2, 11720, Note_on_c, 0, 58, 0
2, 11800, Note_on_c, 0, 54, 68
2, 11823, Note_on_c, 0, 78, 0
2, 11832, Note_on_c, 0, 75, 79
2, 11845, Note_on_c, 0, 77, 0
2, 11849, Note_on_c, 0, 56, 0
2, 11880, Note_on_c, 0, 54, 0
2, 11919, Note_on_c, 0, 53, 65
2, 11939, Note_on_c, 0, 75, 0
2, 11942, Note_on_c, 0, 77, 73
2, 12033, Note_on_c, 0, 53, 0
2, 12039, Note_on_c, 0, 51, 53
2, 12059, Note_on_c, 0, 78, 73
2, 12068, Note_on_c, 0, 77, 0
2, 12168, Note_on_c, 0, 75, 70
2, 12208, Note_on_c, 0, 78, 0
2, 12258, Note_on_c, 0, 75, 0
2, 12284, Note_on_c, 0, 70, 72
2, 12393, Note_on_c, 0, 70, 0
2, 12403, Note_on_c, 0, 75, 63
2, 12505, Note_on_c, 0, 78, 69
2, 12508, Note_on_c, 0, 51, 0
2, 12512, Note_on_c, 0, 63, 54
2, 12522, Note_on_c, 0, 75, 0
2, 12569, Note_on_c, 0, 63, 0
2, 12578, Note_on_c, 0, 78, 0
2, 12620, Note_on_c, 0, 75, 61
2, 12725, Note_on_c, 0, 75, 0
2, 12731, Note_on_c, 0, 53, 48
2, 12746, Note_on_c, 0, 80, 66
2, 12852, Note_on_c, 0, 80, 0
2, 12865, Note_on_c, 0, 75, 66
2, 12968, Note_on_c, 0, 75, 0
2, 12987, Note_on_c, 0, 80, 76
2, 13092, Note_on_c, 0, 80, 0
2, 13096, Note_on_c, 0, 75, 73
2, 13201, Note_on_c, 0, 53, 0
2, 13214, Note_on_c, 0, 75, 0
2, 13218, Note_on_c, 0, 80, 79
2, 13232, Note_on_c, 0, 63, 50
2, 13286, Note_on_c, 0, 63, 0
2, 13333, Note_on_c, 0, 75, 70
2, 13333, Note_on_c, 0, 80, 0
2, 13437, Note_on_c, 0, 75, 0
2, 13445, Note_on_c, 0, 82, 82
2, 13455, Note_on_c, 0, 54, 51
2, 13560, Note_on_c, 0, 75, 73
2, 13564, Note_on_c, 0, 82, 0
2, 13666, Note_on_c, 0, 75, 0
2, 13672, Note_on_c, 0, 82, 86
2, 13785, Note_on_c, 0, 75, 74
2, 13789, Note_on_c, 0, 82, 0
2, 13907, Note_on_c, 0, 75, 0
2, 13910, Note_on_c, 0, 54, 0
2, 13910, Note_on_c, 0, 63, 61
2, 13910, Note_on_c, 0, 82, 89
2, 13977, Note_on_c, 0, 63, 0
2, 14025, Note_on_c, 0, 75, 76
2, 14038, Note_on_c, 0, 82, 0
2, 14137, Note_on_c, 0, 75, 0
2, 14142, Note_on_c, 0, 56, 57
2, 14148, Note_on_c, 0, 83, 80
2, 14256, Note_on_c, 0, 75, 78
2, 14263, Note_on_c, 0, 83, 0
2, 14367, Note_on_c, 0, 75, 0
2, 14387, Note_on_c, 0, 83, 85
2, 14491, Note_on_c, 0, 75, 77
2, 14497, Note_on_c, 0, 83, 0
2, 14600, Note_on_c, 0, 75, 0
2, 14624, Note_on_c, 0, 56, 0
2, 14625, Note_on_c, 0, 83, 79
2, 14631, Note_on_c, 0, 63, 57
2, 14690, Note_on_c, 0, 63, 0
2, 14728, Note_on_c, 0, 75, 71
2, 14733, Note_on_c, 0, 83, 0
2, 14839, Note_on_c, 0, 75, 0
2, 14855, Note_on_c, 0, 82, 72
2, 14872, Note_on_c, 0, 54, 49
2, 14973, Note_on_c, 0, 75, 65
2, 14974, Note_on_c, 0, 82, 0
2, 15078, Note_on_c, 0, 75, 0
2, 15093, Note_on_c, 0, 82, 73
2, 15188, Note_on_c, 0, 82, 0
2, 15194, Note_on_c, 0, 75, 62
2, 15318, Note_on_c, 0, 75, 0
2, 15332, Note_on_c, 0, 82, 68
2, 15359, Note_on_c, 0, 63, 43
2, 15364, Note_on_c, 0, 54, 0
2, 15432, Note_on_c, 0, 82, 0
2, 15433, Note_on_c, 0, 63, 0
2, 15460, Note_on_c, 0, 75, 60
2, 15570, Note_on_c, 0, 80, 67
2, 15584, Note_on_c, 0, 53, 45
2, 15585, Note_on_c, 0, 75, 0
2, 15682, Note_on_c, 0, 78, 66
2, 15737, Note_on_c, 0, 80, 0
2, 15794, Note_on_c, 0, 77, 68
2, 15795, Note_on_c, 0, 78, 0
2, 15906, Note_on_c, 0, 78, 73
2, 15920, Note_on_c, 0, 77, 0
2, 16012, Note_on_c, 0, 53, 0
2, 16020, Note_on_c, 0, 80, 75
2, 16022, Note_on_c, 0, 78, 0
2, 16033, Note_on_c, 0, 62, 56
2, 16085, Note_on_c, 0, 62, 0
2, 16129, Note_on_c, 0, 80, 0
2, 16133, Note_on_c, 0, 77, 70
2, 16197, Note_on_c, 0, 77, 0
2, 16252, Note_on_c, 0, 78, 75
2, 16255, Note_on_c, 0, 51, 57
2, 16361, Note_on_c, 0, 77, 70
2, 16388, Control_c, 0, 64, 64
2, 16406, Control_c, 0, 64, 74
2, 16426, Control_c, 0, 64, 104
2, 16437, Note_on_c, 0, 78, 0
2, 16445, Control_c, 0, 64, 127
2, 16463, Note_on_c, 0, 51, 0
2, 16475, Note_on_c, 0, 75, 81
2, 16482, Note_on_c, 0, 77, 0
2, 16522, Control_c, 0, 64, 94
2, 16541, Control_c, 0, 64, 67
2, 16560, Control_c, 0, 64, 32
2, 16579, Note_on_c, 0, 77, 74
2, 16580, Control_c, 0, 64, 0
2, 16586, Note_on_c, 0, 75, 0
2, 16688, Note_on_c, 0, 78, 79
2, 16696, Note_on_c, 0, 63, 82
2, 16696, Note_on_c, 0, 77, 0
2, 16806, Note_on_c, 0, 75, 78
2, 16810, Control_c, 0, 64, 52
2, 16816, Note_on_c, 0, 78, 0
2, 16829, Control_c, 0, 64, 65
2, 16849, Control_c, 0, 64, 72
2, 16868, Control_c, 0, 64, 89
2, 16886, Control_c, 0, 64, 127
2, 16929, Note_on_c, 0, 77, 77
2, 16953, Note_on_c, 0, 75, 0
2, 16962, Control_c, 0, 64, 92
2, 16982, Control_c, 0, 64, 73
2, 17001, Control_c, 0, 64, 64
2, 17020, Control_c, 0, 64, 59
2, 17024, Note_on_c, 0, 63, 0
2, 17039, Control_c, 0, 64, 53
2, 17041, Note_on_c, 0, 78, 74
2, 17059, Control_c, 0, 64, 37
2, 17069, Note_on_c, 0, 77, 0
2, 17078, Control_c, 0, 64, 0
2, 17144, Note_on_c, 0, 61, 71
2, 17148, Note_on_c, 0, 77, 69
2, 17197, Note_on_c, 0, 78, 0
2, 17251, Note_on_c, 0, 61, 0
2, 17258, Note_on_c, 0, 60, 66
2, 17259, Note_on_c, 0, 75, 77
2, 17313, Note_on_c, 0, 77, 0
2, 17353, Note_on_c, 0, 60, 0
2, 17359, Note_on_c, 0, 58, 67
2, 17363, Note_on_c, 0, 73, 75
2, 17414, Note_on_c, 0, 75, 0
2, 17476, Note_on_c, 0, 60, 68
2, 17481, Note_on_c, 0, 72, 73
2, 17490, Note_on_c, 0, 73, 0
2, 17509, Note_on_c, 0, 58, 0
2, 17580, Note_on_c, 0, 60, 0
2, 17587, Note_on_c, 0, 61, 71
2, 17604, Note_on_c, 0, 70, 78
2, 17608, Note_on_c, 0, 72, 0
2, 17707, Note_on_c, 0, 58, 62
2, 17722, Note_on_c, 0, 61, 0
2, 17797, Note_on_c, 0, 58, 0
2, 17824, Note_on_c, 0, 53, 61
2, 17941, Note_on_c, 0, 53, 0
2, 17957, Note_on_c, 0, 58, 55
2, 18026, Note_on_c, 0, 58, 0
2, 18054, Note_on_c, 0, 82, 73
2, 18062, Note_on_c, 0, 70, 0
2, 18065, Note_on_c, 0, 61, 64
2, 18142, Note_on_c, 0, 82, 0
2, 18169, Note_on_c, 0, 61, 0
2, 18178, Note_on_c, 0, 58, 62
2, 18275, Note_on_c, 0, 58, 0
2, 18300, Note_on_c, 0, 72, 71
2, 18307, Note_on_c, 0, 63, 65
2, 18411, Note_on_c, 0, 63, 0
2, 18426, Note_on_c, 0, 58, 66
2, 18523, Note_on_c, 0, 58, 0
2, 18542, Note_on_c, 0, 63, 74
2, 18658, Note_on_c, 0, 63, 0
2, 18663, Note_on_c, 0, 58, 72
2, 18754, Note_on_c, 0, 58, 0
2, 18775, Note_on_c, 0, 63, 74
2, 18783, Note_on_c, 0, 82, 74
2, 18790, Note_on_c, 0, 72, 0
2, 18855, Note_on_c, 0, 82, 0
2, 18870, Note_on_c, 0, 63, 0
2, 18886, Note_on_c, 0, 58, 69
2, 18946, Note_on_c, 0, 58, 0
2, 18999, Note_on_c, 0, 65, 72
2, 19014, Note_on_c, 0, 73, 74
2, 19139, Note_on_c, 0, 58, 68
2, 19163, Note_on_c, 0, 65, 0
2, 19264, Note_on_c, 0, 65, 73
2, 19266, Note_on_c, 0, 58, 0
2, 19377, Note_on_c, 0, 58, 75
2, 19385, Note_on_c, 0, 65, 0
2, 19483, Note_on_c, 0, 58, 0
2, 19484, Note_on_c, 0, 82, 79
2, 19491, Note_on_c, 0, 65, 76
2, 19498, Note_on_c, 0, 73, 0
2, 19567, Note_on_c, 0, 82, 0
2, 19601, Note_on_c, 0, 58, 74
2, 19614, Note_on_c, 0, 65, 0
2, 19736, Note_on_c, 0, 66, 74
2, 19737, Note_on_c, 0, 75, 81
2, 19746, Note_on_c, 0, 58, 0
2, 19860, Note_on_c, 0, 58, 71
2, 19875, Note_on_c, 0, 66, 0
2, 19980, Note_on_c, 0, 66, 74
2, 19982, Note_on_c, 0, 58, 0
2, 20084, Note_on_c, 0, 66, 0
2, 20092, Note_on_c, 0, 58, 69
2, 20207, Note_on_c, 0, 58, 0
2, 20213, Note_on_c, 0, 66, 72
2, 20243, Note_on_c, 0, 82, 63
2, 20244, Note_on_c, 0, 75, 0
2, 20319, Note_on_c, 0, 82, 0
2, 20333, Note_on_c, 0, 66, 0
2, 20343, Note_on_c, 0, 58, 63
2, 20461, Note_on_c, 0, 58, 0
2, 20466, Note_on_c, 0, 73, 63
2, 20471, Note_on_c, 0, 65, 58
2, 20588, Note_on_c, 0, 65, 0
2, 20597, Note_on_c, 0, 58, 58
2, 20718, Note_on_c, 0, 58, 0
2, 20738, Note_on_c, 0, 65, 51
2, 20807, Note_on_c, 0, 65, 0
2, 20850, Note_on_c, 0, 58, 48
2, 20953, Note_on_c, 0, 58, 0
2, 20953, Note_on_c, 0, 82, 64
2, 20964, Note_on_c, 0, 65, 56
2, 21000, Note_on_c, 0, 73, 0
2, 21036, Note_on_c, 0, 65, 0
2, 21072, Note_on_c, 0, 82, 0
2, 21112, Note_on_c, 0, 58, 45
2, 21167, Note_on_c, 0, 58, 0
2, 21191, Note_on_c, 0, 72, 67
2, 21195, Note_on_c, 0, 63, 63
2, 21305, Note_on_c, 0, 63, 0
2, 21310, Note_on_c, 0, 61, 67
2, 21418, Note_on_c, 0, 61, 0
2, 21436, Note_on_c, 0, 60, 68
2, 21549, Note_on_c, 0, 61, 71
2, 21563, Note_on_c, 0, 60, 0
2, 21626, Note_on_c, 0, 72, 0
2, 21628, Note_on_c, 0, 61, 0
2, 21649, Note_on_c, 0, 63, 73
2, 21680, Note_on_c, 0, 81, 67
2, 21727, Note_on_c, 0, 81, 0
2, 21749, Note_on_c, 0, 63, 0
2, 21773, Note_on_c, 0, 60, 66
2, 21871, Note_on_c, 0, 60, 0
2, 21893, Note_on_c, 0, 61, 68
2, 21895, Note_on_c, 0, 70, 68
2, 22000, Note_on_c, 0, 61, 0
2, 22023, Note_on_c, 0, 60, 66
2, 22121, Note_on_c, 0, 60, 0
2, 22135, Note_on_c, 0, 58, 63
2, 22253, Note_on_c, 0, 60, 66
2, 22263, Note_on_c, 0, 58, 0
2, 22276, Note_on_c, 0, 70, 0
2, 22336, Note_on_c, 0, 60, 0
2, 22343, Note_on_c, 0, 61, 71
2, 22350, Note_on_c, 0, 82, 93
2, 22463, Note_on_c, 0, 61, 0
2, 22474, Note_on_c, 0, 58, 62
2, 22567, Note_on_c, 0, 58, 0
2, 22589, Note_on_c, 0, 64, 74
2, 22712, Note_on_c, 0, 62, 67
2, 22717, Note_on_c, 0, 64, 0
2, 22806, Note_on_c, 0, 62, 0
2, 22819, Note_on_c, 0, 80, 72
2, 22823, Note_on_c, 0, 60, 67
2, 22838, Note_on_c, 0, 82, 0
2, 22935, Note_on_c, 0, 80, 0
2, 22947, Note_on_c, 0, 60, 0
2, 22953, Note_on_c, 0, 62, 58
2, 23014, Note_on_c, 0, 62, 0
2, 23037, Note_on_c, 0, 64, 70
2, 23050, Note_on_c, 0, 79, 74
2, 23121, Note_on_c, 0, 64, 0
2, 23127, Note_on_c, 0, 79, 0
2, 23151, Note_on_c, 0, 60, 63
2, 23211, Note_on_c, 0, 60, 0
2, 23258, Note_on_c, 0, 65, 67
2, 23269, Note_on_c, 0, 80, 77
2, 23356, Note_on_c, 0, 65, 0
2, 23363, Note_on_c, 0, 80, 0
2, 23372, Note_on_c, 0, 64, 69
2, 23463, Note_on_c, 0, 64, 0
2, 23486, Note_on_c, 0, 68, 74
2, 23492, Note_on_c, 0, 65, 70
2, 23558, Note_on_c, 0, 68, 0
2, 23580, Note_on_c, 0, 65, 0
2, 23587, Note_on_c, 0, 67, 68
2, 23667, Note_on_c, 0, 67, 0
2, 23706, Note_on_c, 0, 65, 72
2, 23731, Note_on_c, 0, 80, 89
2, 23796, Note_on_c, 0, 65, 0
2, 23839, Note_on_c, 0, 63, 67
2, 23934, Note_on_c, 0, 63, 0
2, 23963, Note_on_c, 0, 62, 72
2, 24068, Note_on_c, 0, 62, 0
2, 24072, Note_on_c, 0, 60, 71
2, 24138, Note_on_c, 0, 80, 0
2, 24167, Note_on_c, 0, 60, 0
2, 24193, Note_on_c, 0, 78, 71
2, 24194, Note_on_c, 0, 58, 65
2, 24296, Note_on_c, 0, 78, 0
2, 24321, Note_on_c, 0, 60, 56
2, 24328, Note_on_c, 0, 58, 0
2, 24372, Note_on_c, 0, 60, 0
2, 24410, Note_on_c, 0, 62, 62
2, 24443, Note_on_c, 0, 77, 61
2, 24497, Note_on_c, 0, 62, 0
2, 24530, Note_on_c, 0, 58, 54
2, 24548, Note_on_c, 0, 77, 0
2, 24584, Note_on_c, 0, 58, 0
2, 24646, Note_on_c, 0, 78, 65
2, 24653, Note_on_c, 0, 63, 70
2, 24692, Note_on_c, 0, 63, 0
2, 24759, Note_on_c, 0, 77, 69
2, 24840, Note_on_c, 0, 78, 0
2, 24850, Note_on_c, 0, 77, 0
2, 24880, Note_on_c, 0, 75, 79
2, 24883, Note_on_c, 0, 51, 65
2, 24923, Note_on_c, 0, 51, 0
2, 24992, Note_on_c, 0, 77, 76
2, 25010, Note_on_c, 0, 75, 0
2, 25111, Note_on_c, 0, 78, 75
2, 25115, Note_on_c, 0, 77, 0
2, 25120, Note_on_c, 0, 63, 78
2, 25224, Note_on_c, 0, 75, 76
2, 25261, Note_on_c, 0, 78, 0
2, 25307, Note_on_c, 0, 75, 0
2, 25341, Note_on_c, 0, 81, 77
2, 25454, Note_on_c, 0, 79, 79
2, 25508, Note_on_c, 0, 81, 0
2, 25540, Note_on_c, 0, 79, 0
2, 25568, Note_on_c, 0, 77, 80
2, 25570, Note_on_c, 0, 61, 73
2, 25576, Note_on_c, 0, 63, 0
2, 25663, Note_on_c, 0, 61, 0
2, 25675, Note_on_c, 0, 79, 84
2, 25704, Note_on_c, 0, 77, 0
2, 25783, Note_on_c, 0, 79, 0
2, 25795, Note_on_c, 0, 81, 86
2, 25796, Note_on_c, 0, 60, 72
2, 25829, Note_on_c, 0, 60, 0
2, 25879, Note_on_c, 0, 81, 0
2, 25906, Note_on_c, 0, 77, 81
2, 26025, Note_on_c, 0, 82, 86
2, 26033, Note_on_c, 0, 61, 73
2, 26052, Note_on_c, 0, 77, 0
2, 26068, Note_on_c, 0, 61, 0
2, 26131, Note_on_c, 0, 82, 0
2, 26141, Note_on_c, 0, 81, 86
2, 26257, Note_on_c, 0, 82, 89
2, 26260, Note_on_c, 0, 81, 0
2, 26264, Note_on_c, 0, 49, 76
2, 26313, Note_on_c, 0, 49, 0
2, 26363, Note_on_c, 0, 84, 79
2, 26370, Note_on_c, 0, 82, 0
2, 26491, Note_on_c, 0, 82, 83
2, 26498, Note_on_c, 0, 61, 70
2, 26531, Note_on_c, 0, 84, 0
2, 26593, Note_on_c, 0, 80, 79
2, 26624, Note_on_c, 0, 82, 0
2, 26658, Note_on_c, 0, 80, 0
2, 26722, Note_on_c, 0, 79, 79
2, 26832, Note_on_c, 0, 77, 70
2, 26870, Note_on_c, 0, 79, 0
2, 26908, Note_on_c, 0, 61, 0
2, 26943, Note_on_c, 0, 77, 0
2, 26954, Note_on_c, 0, 75, 78
2, 26959, Note_on_c, 0, 60, 60
2, 27012, Note_on_c, 0, 60, 0
2, 27062, Note_on_c, 0, 75, 0
2, 27068, Note_on_c, 0, 77, 74
2, 27163, Note_on_c, 0, 77, 0
2, 27176, Note_on_c, 0, 79, 75
2, 27178, Note_on_c, 0, 58, 57
2, 27215, Note_on_c, 0, 58, 0
2, 27274, Note_on_c, 0, 79, 0
2, 27291, Note_on_c, 0, 75, 73
2, 27367, Note_on_c, 0, 75, 0
2, 27393, Note_on_c, 0, 60, 71
2, 27400, Note_on_c, 0, 80, 83
2, 27451, Note_on_c, 0, 80, 0
2, 27478, Note_on_c, 0, 60, 0
2, 27510, Note_on_c, 0, 58, 62
2, 27605, Note_on_c, 0, 58, 0
2, 27620, Note_on_c, 0, 56, 67
2, 27625, Note_on_c, 0, 68, 83
2, 27680, Note_on_c, 0, 68, 0
2, 27745, Note_on_c, 0, 58, 60
2, 27759, Note_on_c, 0, 56, 0
2, 27813, Note_on_c, 0, 58, 0
2, 27840, Note_on_c, 0, 60, 63
2, 27855, Note_on_c, 0, 80, 88
2, 27952, Note_on_c, 0, 60, 0
2, 27975, Note_on_c, 0, 56, 64
2, 28073, Note_on_c, 0, 56, 0
2, 28099, Note_on_c, 0, 62, 74
2, 28213, Note_on_c, 0, 60, 67
2, 28223, Note_on_c, 0, 62, 0
2, 28292, Note_on_c, 0, 80, 0
2, 28315, Note_on_c, 0, 60, 0
2, 28334, Note_on_c, 0, 58, 66
2, 28338, Note_on_c, 0, 78, 74
2, 28433, Note_on_c, 0, 78, 0
2, 28463, Note_on_c, 0, 60, 64
2, 28469, Note_on_c, 0, 58, 0
2, 28535, Note_on_c, 0, 60, 0
2, 28546, Note_on_c, 0, 62, 67
2, 28577, Note_on_c, 0, 77, 71
2, 28648, Note_on_c, 0, 58, 63
2, 28654, Note_on_c, 0, 77, 0
2, 28660, Note_on_c, 0, 62, 0
2, 28745, Note_on_c, 0, 58, 0
2, 28792, Note_on_c, 0, 63, 68
2, 28794, Note_on_c, 0, 78, 79
2, 28883, Note_on_c, 0, 78, 0
2, 28892, Note_on_c, 0, 63, 0
2, 28910, Note_on_c, 0, 62, 70
2, 29024, Note_on_c, 0, 63, 78
2, 29030, Note_on_c, 0, 62, 0
2, 29033, Note_on_c, 0, 66, 77
2, 29099, Note_on_c, 0, 66, 0
2, 29106, Note_on_c, 0, 63, 0
2, 29138, Note_on_c, 0, 65, 72
2, 29243, Note_on_c, 0, 65, 0
2, 29256, Note_on_c, 0, 78, 83
2, 29257, Note_on_c, 0, 63, 68
2, 29368, Note_on_c, 0, 61, 72
2, 29384, Note_on_c, 0, 63, 0
2, 29452, Note_on_c, 0, 61, 0
2, 29486, Note_on_c, 0, 60, 73
2, 29598, Note_on_c, 0, 58, 68
2, 29600, Note_on_c, 0, 60, 0
2, 29667, Note_on_c, 0, 78, 0
2, 29693, Note_on_c, 0, 58, 0
2, 29716, Note_on_c, 0, 56, 67
2, 29733, Note_on_c, 0, 77, 66
2, 29836, Note_on_c, 0, 56, 0
2, 29838, Note_on_c, 0, 77, 0
2, 29839, Note_on_c, 0, 58, 57
2, 29888, Note_on_c, 0, 58, 0
2, 29935, Note_on_c, 0, 60, 61
2, 29948, Note_on_c, 0, 75, 64
2, 30007, Note_on_c, 0, 60, 0
2, 30063, Note_on_c, 0, 56, 63
2, 30114, Note_on_c, 0, 56, 0
2, 30124, Note_on_c, 0, 75, 0
2, 30186, Note_on_c, 0, 61, 74
2, 30193, Note_on_c, 0, 77, 72
2, 30222, Note_on_c, 0, 61, 0
2, 30303, Note_on_c, 0, 75, 74
2, 30344, Note_on_c, 0, 77, 0
2, 30413, Note_on_c, 0, 49, 79
2, 30423, Note_on_c, 0, 75, 0
2, 30428, Note_on_c, 0, 73, 77
2, 30456, Note_on_c, 0, 49, 0
2, 30537, Note_on_c, 0, 75, 76
2, 30552, Note_on_c, 0, 73, 0
2, 30653, Note_on_c, 0, 75, 0
2, 30653, Note_on_c, 0, 77, 74
2, 30657, Note_on_c, 0, 61, 81
2, 30768, Note_on_c, 0, 73, 73
2, 30775, Note_on_c, 0, 77, 0
2, 30839, Note_on_c, 0, 73, 0
2, 30895, Note_on_c, 0, 79, 78
2, 30993, Note_on_c, 0, 77, 52
2, 31037, Note_on_c, 0, 79, 0
2, 31078, Note_on_c, 0, 61, 0
2, 31122, Note_on_c, 0, 59, 72
2, 31131, Note_on_c, 0, 75, 79
2, 31134, Note_on_c, 0, 77, 0
2, 31168, Note_on_c, 0, 59, 0
2, 31237, Note_on_c, 0, 77, 72
2, 31243, Note_on_c, 0, 75, 0
2, 31341, Note_on_c, 0, 77, 0
2, 31348, Note_on_c, 0, 79, 79
2, 31357, Note_on_c, 0, 58, 62
2, 31391, Note_on_c, 0, 58, 0
2, 31440, Note_on_c, 0, 79, 0
2, 31460, Note_on_c, 0, 75, 79
2, 31558, Note_on_c, 0, 75, 0
2, 31576, Note_on_c, 0, 80, 79
2, 31594, Note_on_c, 0, 59, 75
2, 31640, Note_on_c, 0, 59, 0
2, 31696, Note_on_c, 0, 79, 81
2, 31709, Note_on_c, 0, 80, 0
2, 31805, Note_on_c, 0, 47, 78
2, 31811, Note_on_c, 0, 79, 0
2, 31816, Note_on_c, 0, 80, 87
2, 31846, Note_on_c, 0, 47, 0
2, 31938, Note_on_c, 0, 82, 79
2, 31951, Note_on_c, 0, 80, 0
2, 32048, Note_on_c, 0, 59, 78
2, 32060, Note_on_c, 0, 80, 79
2, 32110, Note_on_c, 0, 82, 0
2, 32168, Note_on_c, 0, 78, 71
2, 32176, Note_on_c, 0, 80, 0
2, 32213, Note_on_c, 0, 78, 0
2, 32285, Note_on_c, 0, 77, 69
2, 32393, Note_on_c, 0, 75, 70
2, 32407, Note_on_c, 0, 77, 0
2, 32497, Note_on_c, 0, 59, 0
2, 32503, Note_on_c, 0, 58, 63
2, 32518, Note_on_c, 0, 75, 0
2, 32523, Note_on_c, 0, 73, 67
2, 32569, Note_on_c, 0, 58, 0
2, 32602, Note_on_c, 0, 73, 0
2, 32624, Note_on_c, 0, 75, 62
2, 32742, Note_on_c, 0, 77, 66
2, 32746, Note_on_c, 0, 56, 59
2, 32786, Note_on_c, 0, 56, 0
2, 32825, Note_on_c, 0, 77, 0
2, 32854, Note_on_c, 0, 73, 62
2, 32875, Note_on_c, 0, 75, 0
2, 32933, Note_on_c, 0, 73, 0
2, 32994, Note_on_c, 0, 66, 59
2, 33012, Note_on_c, 0, 58, 48
2, 33105, Note_on_c, 0, 58, 0
2, 33127, Note_on_c, 0, 54, 53
2, 33212, Note_on_c, 0, 54, 0
2, 33241, Note_on_c, 0, 49, 55
2, 33338, Note_on_c, 0, 49, 0
2, 33366, Note_on_c, 0, 54, 53
2, 33431, Note_on_c, 0, 54, 0
2, 33479, Note_on_c, 0, 78, 50
2, 33484, Note_on_c, 0, 58, 52
2, 33489, Note_on_c, 0, 66, 0
2, 33548, Note_on_c, 0, 78, 0
2, 33554, Note_on_c, 0, 58, 0
2, 33591, Note_on_c, 0, 54, 49
2, 33664, Note_on_c, 0, 54, 0
2, 33720, Note_on_c, 0, 68, 57
2, 33724, Note_on_c, 0, 59, 51
2, 33838, Note_on_c, 0, 54, 55
2, 33843, Note_on_c, 0, 59, 0
2, 33953, Note_on_c, 0, 54, 0
2, 33985, Note_on_c, 0, 59, 60
2, 34053, Note_on_c, 0, 59, 0
2, 34073, Note_on_c, 0, 54, 55
2, 34173, Note_on_c, 0, 54, 0
2, 34196, Note_on_c, 0, 59, 65
2, 34234, Note_on_c, 0, 68, 0
2, 34238, Note_on_c, 0, 78, 60
2, 34292, Note_on_c, 0, 78, 0
2, 34307, Note_on_c, 0, 59, 0
2, 34335, Note_on_c, 0, 54, 59
2, 34459, Note_on_c, 0, 70, 66
2, 34461, Note_on_c, 0, 54, 0
2, 34463, Note_on_c, 0, 61, 63
2, 34577, Note_on_c, 0, 61, 0
2, 34581, Note_on_c, 0, 54, 63
2, 34703, Note_on_c, 0, 54, 0
2, 34707, Note_on_c, 0, 61, 73
2, 34813, Note_on_c, 0, 54, 70
2, 34818, Note_on_c, 0, 61, 0
2, 34941, Note_on_c, 0, 54, 0
2, 34952, Note_on_c, 0, 61, 74
2, 34967, Note_on_c, 0, 78, 72
2, 34981, Note_on_c, 0, 70, 0
2, 35064, Note_on_c, 0, 78, 0
2, 35069, Note_on_c, 0, 54, 68
2, 35075, Note_on_c, 0, 61, 0
2, 35187, Note_on_c, 0, 71, 75
2, 35189, Note_on_c, 0, 54, 0
2, 35192, Note_on_c, 0, 63, 70
2, 35324, Note_on_c, 0, 63, 0
2, 35325, Note_on_c, 0, 54, 68
2, 35443, Note_on_c, 0, 54, 0
2, 35446, Note_on_c, 0, 63, 72
2, 35553, Note_on_c, 0, 63, 0
2, 35565, Note_on_c, 0, 54, 66
2, 35670, Note_on_c, 0, 54, 0
2, 35684, Note_on_c, 0, 63, 69
2, 35705, Note_on_c, 0, 78, 70
2, 35732, Note_on_c, 0, 71, 0
2, 35797, Note_on_c, 0, 63, 0
2, 35812, Note_on_c, 0, 54, 59
2, 35817, Note_on_c, 0, 78, 0
2, 35919, Note_on_c, 0, 54, 0
2, 35940, Note_on_c, 0, 70, 65
2, 35945, Note_on_c, 0, 61, 59
2, 36053, Note_on_c, 0, 61, 0
2, 36070, Note_on_c, 0, 54, 59
2, 36177, Note_on_c, 0, 54, 0
2, 36204, Note_on_c, 0, 61, 59
2, 36265, Note_on_c, 0, 61, 0
2, 36303, Note_on_c, 0, 54, 57
2, 36401, Note_on_c, 0, 54, 0
2, 36433, Note_on_c, 0, 61, 54
2, 36467, Note_on_c, 0, 78, 60
2, 36510, Note_on_c, 0, 70, 0
2, 36554, Note_on_c, 0, 78, 0
2, 36563, Note_on_c, 0, 54, 56
2, 36567, Note_on_c, 0, 61, 0
2, 36631, Note_on_c, 0, 54, 0
2, 36669, Note_on_c, 0, 59, 57
2, 36698, Note_on_c, 0, 68, 59
2, 36743, Note_on_c, 0, 59, 0
2, 36791, Note_on_c, 0, 58, 58
2, 36894, Note_on_c, 0, 58, 0
2, 36915, Note_on_c, 0, 56, 65
2, 37032, Note_on_c, 0, 58, 64
2, 37070, Note_on_c, 0, 56, 0
2, 37116, Note_on_c, 0, 58, 0
2, 37143, Note_on_c, 0, 59, 73
2, 37168, Note_on_c, 0, 77, 68
2, 37188, Note_on_c, 0, 68, 0
2, 37228, Note_on_c, 0, 59, 0
2, 37261, Note_on_c, 0, 56, 66
2, 37261, Note_on_c, 0, 77, 0
2, 37370, Note_on_c, 0, 56, 0
2, 37379, Note_on_c, 0, 66, 73
2, 37384, Note_on_c, 0, 58, 67
2, 37505, Note_on_c, 0, 56, 77
2, 37508, Note_on_c, 0, 58, 0
2, 37579, Note_on_c, 0, 66, 0
2, 37615, Note_on_c, 0, 54, 76
2, 37617, Note_on_c, 0, 56, 0
2, 37712, Note_on_c, 0, 56, 78
2, 37723, Note_on_c, 0, 54, 0
2, 37798, Note_on_c, 0, 56, 0
2, 37818, Note_on_c, 0, 58, 78
2, 37854, Note_on_c, 0, 78, 83
2, 37952, Note_on_c, 0, 54, 70
2, 37961, Note_on_c, 0, 58, 0
2, 38081, Note_on_c, 0, 56, 84
2, 38114, Note_on_c, 0, 54, 0
2, 38191, Note_on_c, 0, 56, 0
2, 38197, Note_on_c, 0, 58, 82
2, 38243, Note_on_c, 0, 78, 0
2, 38308, Note_on_c, 0, 77, 77
2, 38315, Note_on_c, 0, 56, 83
2, 38315, Note_on_c, 0, 58, 0
2, 38421, Note_on_c, 0, 54, 79
2, 38426, Note_on_c, 0, 75, 84
2, 38435, Note_on_c, 0, 56, 0
2, 38488, Note_on_c, 0, 77, 0
2, 38513, Note_on_c, 0, 54, 0
2, 38535, Note_on_c, 0, 53, 74
2, 38562, Note_on_c, 0, 73, 83
2, 38584, Note_on_c, 0, 75, 0
2, 38644, Note_on_c, 0, 53, 0
2, 38652, Note_on_c, 0, 51, 66
2, 38679, Note_on_c, 0, 75, 86
2, 38698, Note_on_c, 0, 73, 0
2, 38800, Note_on_c, 0, 51, 0
2, 38815, Note_on_c, 0, 49, 69
2, 38831, Note_on_c, 0, 77, 81
2, 38833, Note_on_c, 0, 75, 0
2, 38959, Note_on_c, 0, 73, 76
2, 38977, Note_on_c, 0, 77, 0
2, 39060, Note_on_c, 0, 73, 0
2, 39076, Note_on_c, 0, 68, 83
2, 39182, Note_on_c, 0, 68, 0
2, 39189, Note_on_c, 0, 73, 76
2, 39302, Note_on_c, 0, 49, 0
2, 39315, Note_on_c, 0, 77, 75
2, 39317, Note_on_c, 0, 73, 0
2, 39330, Note_on_c, 0, 61, 57
2, 39374, Note_on_c, 0, 61, 0
2, 39389, Note_on_c, 0, 77, 0
2, 39430, Note_on_c, 0, 73, 74
2, 39538, Note_on_c, 0, 51, 51
2, 39546, Note_on_c, 0, 73, 0
2, 39555, Note_on_c, 0, 78, 75
2, 39664, Note_on_c, 0, 78, 0
2, 39675, Note_on_c, 0, 73, 74
2, 39774, Note_on_c, 0, 73, 0
2, 39794, Note_on_c, 0, 78, 76
2, 39903, Note_on_c, 0, 78, 0
2, 39905, Note_on_c, 0, 73, 73
2, 40004, Note_on_c, 0, 51, 0
2, 40022, Note_on_c, 0, 73, 0
2, 40032, Note_on_c, 0, 78, 77
2, 40038, Note_on_c, 0, 61, 54
2, 40083, Note_on_c, 0, 61, 0
2, 40149, Note_on_c, 0, 78, 0
2, 40155, Note_on_c, 0, 73, 69
2, 40253, Note_on_c, 0, 73, 0
2, 40265, Note_on_c, 0, 80, 78
2, 40266, Note_on_c, 0, 53, 52
2, 40386, Note_on_c, 0, 73, 71
2, 40395, Note_on_c, 0, 80, 0
2, 40499, Note_on_c, 0, 73, 0
2, 40510, Note_on_c, 0, 80, 81
2, 40621, Note_on_c, 0, 80, 0
2, 40623, Note_on_c, 0, 73, 73
2, 40738, Note_on_c, 0, 73, 0
2, 40746, Note_on_c, 0, 80, 82
2, 40768, Note_on_c, 0, 61, 52
2, 40787, Note_on_c, 0, 53, 0
2, 40834, Note_on_c, 0, 61, 0
2, 40867, Note_on_c, 0, 73, 70
2, 40868, Note_on_c, 0, 80, 0
2, 40982, Note_on_c, 0, 73, 0
2, 40997, Note_on_c, 0, 82, 75
2, 41004, Note_on_c, 0, 54, 50
2, 41118, Note_on_c, 0, 73, 70
2, 41129, Note_on_c, 0, 82, 0
2, 41232, Note_on_c, 0, 73, 0
2, 41257, Note_on_c, 0, 82, 78
2, 41368, Note_on_c, 0, 73, 67
2, 41380, Note_on_c, 0, 82, 0
2, 41472, Note_on_c, 0, 73, 0
2, 41494, Note_on_c, 0, 54, 0
2, 41502, Note_on_c, 0, 82, 74
2, 41509, Note_on_c, 0, 61, 49
2, 41566, Note_on_c, 0, 61, 0
2, 41603, Note_on_c, 0, 73, 63
2, 41606, Note_on_c, 0, 82, 0
2, 41707, Note_on_c, 0, 73, 0
2, 41724, Note_on_c, 0, 80, 69
2, 41743, Note_on_c, 0, 53, 48
2, 41818, Note_on_c, 0, 80, 0
2, 41844, Note_on_c, 0, 73, 60
2, 41948, Note_on_c, 0, 73, 0
2, 41965, Note_on_c, 0, 80, 64
2, 42066, Note_on_c, 0, 80, 0
2, 42084, Note_on_c, 0, 73, 57
2, 42197, Note_on_c, 0, 73, 0
2, 42211, Note_on_c, 0, 80, 60
2, 42213, Note_on_c, 0, 53, 0
2, 42232, Note_on_c, 0, 61, 43
2, 42311, Note_on_c, 0, 80, 0
2, 42323, Note_on_c, 0, 61, 0
2, 42344, Note_on_c, 0, 73, 55
2, 42425, Note_on_c, 0, 73, 0
2, 42450, Note_on_c, 0, 78, 63
2, 42464, Note_on_c, 0, 51, 37
2, 42581, Note_on_c, 0, 77, 55
2, 42684, Note_on_c, 0, 78, 0
2, 42685, Note_on_c, 0, 75, 75
2, 42694, Note_on_c, 0, 77, 0
2, 42801, Note_on_c, 0, 75, 0
2, 42806, Note_on_c, 0, 77, 66
2, 42906, Note_on_c, 0, 77, 0
2, 42922, Note_on_c, 0, 60, 46
2, 42926, Note_on_c, 0, 78, 70
2, 42942, Note_on_c, 0, 51, 0
2, 42969, Note_on_c, 0, 60, 0
2, 43041, Note_on_c, 0, 78, 0
2, 43043, Note_on_c, 0, 75, 70
2, 43094, Note_on_c, 0, 75, 0
2, 43152, Note_on_c, 0, 77, 70
2, 43154, Note_on_c, 0, 49, 50
2, 43262, Note_on_c, 0, 75, 76
2, 43302, Note_on_c, 0, 77, 0
2, 43387, Note_on_c, 0, 73, 72
2, 43399, Note_on_c, 0, 75, 0
2, 43489, Note_on_c, 0, 75, 73
2, 43508, Note_on_c, 0, 73, 0
2, 43598, Note_on_c, 0, 49, 0
2, 43610, Note_on_c, 0, 77, 72
2, 43614, Note_on_c, 0, 61, 62
2, 43659, Note_on_c, 0, 75, 0
2, 43668, Note_on_c, 0, 61, 0
2, 43714, Note_on_c, 0, 73, 70
2, 43720, Note_on_c, 0, 77, 0
2, 43836, Note_on_c, 0, 75, 73
2, 43846, Note_on_c, 0, 54, 60
2, 43886, Note_on_c, 0, 73, 0
2, 43930, Note_on_c, 0, 54, 0
2, 43961, Note_on_c, 0, 75, 0
2, 43962, Note_on_c, 0, 77, 67
2, 44080, Note_on_c, 0, 53, 58
2, 44080, Note_on_c, 0, 77, 0
2, 44085, Note_on_c, 0, 75, 71
2, 44131, Note_on_c, 0, 53, 0
2, 44195, Note_on_c, 0, 73, 60
2, 44226, Note_on_c, 0, 75, 0
2, 44290, Note_on_c, 0, 73, 0
2, 44314, Note_on_c, 0, 72, 67
2, 44327, Note_on_c, 0, 51, 50
2, 44368, Note_on_c, 0, 51, 0
2, 44409, Note_on_c, 0, 72, 0
2, 44426, Note_on_c, 0, 70, 68
2, 44515, Note_on_c, 0, 70, 0
2, 44564, Note_on_c, 0, 72, 60
2, 44569, Note_on_c, 0, 56, 47
2, 44611, Note_on_c, 0, 56, 0
2, 44625, Note_on_c, 0, 72, 0
2, 44667, Note_on_c, 0, 68, 59
2, 44721, Note_on_c, 0, 68, 0
2, 44802, Note_on_c, 0, 66, 56
2, 44841, Note_on_c, 0, 66, 0
2, 44924, Note_on_c, 0, 68, 58
2, 44971, Note_on_c, 0, 68, 0
2, 45038, Note_on_c, 0, 63, 57
2, 45075, Note_on_c, 0, 63, 0
2, 45164, Note_on_c, 0, 68, 51
2, 45217, Note_on_c, 0, 68, 0
2, 45278, Note_on_c, 0, 72, 60
2, 45293, Note_on_c, 0, 56, 43
2, 45380, Note_on_c, 0, 56, 0
2, 45393, Note_on_c, 0, 72, 0
2, 45413, Note_on_c, 0, 68, 52
2, 45473, Note_on_c, 0, 68, 0
2, 45536, Note_on_c, 0, 66, 54
2, 45582, Note_on_c, 0, 66, 0
2, 45671, Note_on_c, 0, 68, 58
2, 45720, Note_on_c, 0, 68, 0
2, 45772, Note_on_c, 0, 63, 55
2, 45812, Note_on_c, 0, 63, 0
2, 45907, Note_on_c, 0, 68, 54
2, 45952, Note_on_c, 0, 68, 0
2, 46033, Note_on_c, 0, 73, 59
2, 46043, Note_on_c, 0, 56, 39
2, 46140, Note_on_c, 0, 56, 0
2, 46172, Note_on_c, 0, 73, 0
2, 46177, Note_on_c, 0, 68, 59
2, 46233, Note_on_c, 0, 68, 0
2, 46292, Note_on_c, 0, 65, 44
2, 46328, Note_on_c, 0, 65, 0
2, 46401, Note_on_c, 0, 68, 60
2, 46455, Note_on_c, 0, 68, 0
2, 46524, Note_on_c, 0, 61, 54
2, 46565, Note_on_c, 0, 61, 0
2, 46632, Note_on_c, 0, 68, 55
2, 46687, Note_on_c, 0, 68, 0
2, 46764, Note_on_c, 0, 73, 59
2, 46777, Note_on_c, 0, 56, 41
2, 46852, Note_on_c, 0, 56, 0
2, 46907, Note_on_c, 0, 68, 47
2, 46911, Note_on_c, 0, 73, 0
2, 46962, Note_on_c, 0, 68, 0
2, 47016, Note_on_c, 0, 65, 51
2, 47054, Note_on_c, 0, 65, 0
2, 47135, Note_on_c, 0, 68, 51
2, 47185, Note_on_c, 0, 68, 0
2, 47253, Note_on_c, 0, 61, 54
2, 47297, Note_on_c, 0, 61, 0
2, 47379, Note_on_c, 0, 68, 41
2, 47436, Note_on_c, 0, 68, 0
2, 47491, Note_on_c, 0, 56, 55
2, 47497, Note_on_c, 0, 78, 61
2, 47555, Note_on_c, 0, 56, 0
2, 47630, Note_on_c, 0, 78, 0
2, 47632, Note_on_c, 0, 68, 43
2, 47686, Note_on_c, 0, 68, 0
2, 47737, Note_on_c, 0, 63, 55
2, 47784, Note_on_c, 0, 63, 0
2, 47851, Note_on_c, 0, 68, 52
2, 47906, Note_on_c, 0, 68, 0
2, 47979, Note_on_c, 0, 60, 53
2, 48024, Note_on_c, 0, 60, 0
2, 48104, Note_on_c, 0, 68, 48
2, 48160, Note_on_c, 0, 68, 0
2, 48232, Note_on_c, 0, 78, 63
2, 48246, Note_on_c, 0, 56, 45
2, 48325, Note_on_c, 0, 56, 0
2, 48348, Note_on_c, 0, 78, 0
2, 48355, Note_on_c, 0, 68, 48
2, 48412, Note_on_c, 0, 68, 0
2, 48479, Note_on_c, 0, 63, 52
2, 48527, Note_on_c, 0, 63, 0
2, 48600, Note_on_c, 0, 68, 55
2, 48648, Note_on_c, 0, 68, 0
2, 48715, Note_on_c, 0, 60, 49
2, 48760, Note_on_c, 0, 60, 0
2, 48836, Note_on_c, 0, 68, 51
2, 48892, Note_on_c, 0, 68, 0
2, 48964, Note_on_c, 0, 77, 65
2, 48983, Note_on_c, 0, 56, 47
2, 49064, Note_on_c, 0, 56, 0
2, 49097, Note_on_c, 0, 77, 0
2, 49098, Note_on_c, 0, 68, 55
2, 49149, Note_on_c, 0, 68, 0
2, 49226, Note_on_c, 0, 65, 48
2, 49263, Note_on_c, 0, 65, 0
2, 49352, Note_on_c, 0, 68, 57
2, 49396, Note_on_c, 0, 68, 0
2, 49461, Note_on_c, 0, 61, 48
2, 49497, Note_on_c, 0, 61, 0
2, 49579, Note_on_c, 0, 68, 49
2, 49643, Note_on_c, 0, 68, 0
2, 49699, Note_on_c, 0, 77, 69
2, 49714, Note_on_c, 0, 56, 49
2, 49792, Note_on_c, 0, 56, 0
2, 49832, Note_on_c, 0, 68, 56
2, 49838, Note_on_c, 0, 77, 0
2, 49912, Note_on_c, 0, 68, 0
2, 49951, Note_on_c, 0, 65, 66
2, 49999, Note_on_c, 0, 65, 0
2, 50061, Note_on_c, 0, 68, 67
2, 50141, Note_on_c, 0, 68, 0
2, 50187, Note_on_c, 0, 61, 67
2, 50234, Note_on_c, 0, 61, 0
2, 50300, Note_on_c, 0, 68, 67
2, 50377, Note_on_c, 0, 68, 0
2, 50437, Note_on_c, 0, 79, 78
2, 50451, Note_on_c, 0, 56, 56
2, 50558, Note_on_c, 0, 70, 62
2, 50611, Note_on_c, 0, 56, 0
2, 50626, Note_on_c, 0, 79, 0
2, 50627, Note_on_c, 0, 70, 0
2, 50684, Note_on_c, 0, 64, 73
2, 50729, Note_on_c, 0, 64, 0
2, 50798, Note_on_c, 0, 70, 69
2, 50847, Note_on_c, 0, 70, 0
2, 50936, Note_on_c, 0, 61, 66
2, 50978, Note_on_c, 0, 61, 0
2, 51029, Note_on_c, 0, 70, 68
2, 51086, Note_on_c, 0, 70, 0
2, 51165, Note_on_c, 0, 79, 85
2, 51172, Note_on_c, 0, 56, 64
2, 51281, Note_on_c, 0, 70, 73
2, 51361, Note_on_c, 0, 70, 0
2, 51369, Note_on_c, 0, 56, 0
2, 51372, Note_on_c, 0, 79, 0
2, 51415, Note_on_c, 0, 64, 78
2, 51472, Note_on_c, 0, 64, 0
2, 51530, Note_on_c, 0, 70, 75
2, 51594, Note_on_c, 0, 70, 0
2, 51655, Note_on_c, 0, 61, 75
2, 51697, Note_on_c, 0, 61, 0
2, 51761, Note_on_c, 0, 70, 80
2, 51840, Note_on_c, 0, 70, 0
2, 51891, Note_on_c, 0, 56, 71
2, 51893, Note_on_c, 0, 80, 86
2, 52005, Note_on_c, 0, 72, 87
2, 52090, Note_on_c, 0, 72, 0
2, 52097, Note_on_c, 0, 56, 0
2, 52128, Note_on_c, 0, 80, 0
2, 52140, Note_on_c, 0, 63, 81
2, 52220, Note_on_c, 0, 63, 0
2, 52252, Note_on_c, 0, 72, 79
2, 52319, Note_on_c, 0, 72, 0
2, 52382, Note_on_c, 0, 60, 76
2, 52430, Note_on_c, 0, 60, 0
2, 52473, Note_on_c, 0, 72, 76
2, 52550, Note_on_c, 0, 72, 0
2, 52600, Note_on_c, 0, 54, 79
2, 52609, Note_on_c, 0, 80, 89
2, 52719, Note_on_c, 0, 72, 81
2, 52727, Note_on_c, 0, 54, 0
2, 52802, Note_on_c, 0, 72, 0
2, 52851, Note_on_c, 0, 63, 85
2, 52885, Note_on_c, 0, 80, 0
2, 52934, Note_on_c, 0, 63, 0
2, 52953, Note_on_c, 0, 72, 82
2, 53025, Note_on_c, 0, 72, 0
2, 53079, Note_on_c, 0, 60, 79
2, 53136, Note_on_c, 0, 60, 0
2, 53188, Note_on_c, 0, 72, 83
2, 53260, Note_on_c, 0, 72, 0
2, 53320, Note_on_c, 0, 53, 65
2, 53344, Note_on_c, 0, 80, 82
2, 53396, Note_on_c, 0, 53, 0
2, 53453, Note_on_c, 0, 73, 74
2, 53507, Note_on_c, 0, 80, 0
2, 53540, Note_on_c, 0, 73, 0
2, 53575, Note_on_c, 0, 65, 71
2, 53642, Note_on_c, 0, 65, 0
2, 53667, Note_on_c, 0, 68, 79
2, 53743, Note_on_c, 0, 68, 0
2, 53802, Note_on_c, 0, 61, 75
2, 53893, Note_on_c, 0, 61, 0
2, 53895, Note_on_c, 0, 73, 76
2, 53986, Note_on_c, 0, 73, 0
2, 54027, Note_on_c, 0, 56, 80
2, 54064, Note_on_c, 0, 56, 0
2, 54140, Note_on_c, 0, 77, 78
2, 54180, Note_on_c, 0, 77, 0
2, 54259, Note_on_c, 0, 53, 78
2, 54355, Note_on_c, 0, 53, 0
2, 54365, Note_on_c, 0, 80, 83
2, 54460, Note_on_c, 0, 80, 0
2, 54496, Note_on_c, 0, 51, 72
2, 54535, Note_on_c, 0, 51, 0
2, 54605, Note_on_c, 0, 82, 83
2, 54713, Note_on_c, 0, 82, 0
2, 54753, Note_on_c, 0, 83, 77
2, 54755, Note_on_c, 0, 50, 57
2, 54870, Note_on_c, 0, 82, 83
2, 54872, Note_on_c, 0, 50, 0
2, 54922, Note_on_c, 0, 83, 0
2, 54984, Note_on_c, 0, 80, 85
2, 54992, Note_on_c, 0, 53, 61
2, 55051, Note_on_c, 0, 53, 0
2, 55097, Note_on_c, 0, 78, 80
2, 55097, Note_on_c, 0, 82, 0
2, 55166, Note_on_c, 0, 80, 0
2, 55225, Note_on_c, 0, 78, 0
2, 55227, Note_on_c, 0, 56, 66
2, 55227, Note_on_c, 0, 77, 84
2, 55283, Note_on_c, 0, 56, 0
2, 55337, Note_on_c, 0, 75, 81
2, 55353, Note_on_c, 0, 77, 0
2, 55436, Note_on_c, 0, 75, 0
2, 55456, Note_on_c, 0, 62, 64
2, 55464, Note_on_c, 0, 77, 89
2, 55507, Note_on_c, 0, 62, 0
2, 55577, Note_on_c, 0, 78, 82
2, 55593, Note_on_c, 0, 77, 0
2, 55684, Note_on_c, 0, 78, 0
2, 55704, Note_on_c, 0, 80, 82
2, 55713, Note_on_c, 0, 65, 70
2, 55747, Note_on_c, 0, 65, 0
2, 55816, Note_on_c, 0, 83, 81
2, 55824, Note_on_c, 0, 80, 0
2, 55933, Note_on_c, 0, 68, 80
2, 55939, Note_on_c, 0, 82, 82
2, 55967, Note_on_c, 0, 68, 0
2, 55969, Note_on_c, 0, 83, 0
2, 56047, Note_on_c, 0, 80, 79
2, 56070, Note_on_c, 0, 82, 0
2, 56128, Note_on_c, 0, 80, 0
2, 56178, Note_on_c, 0, 66, 76
2, 56184, Note_on_c, 0, 82, 85
2, 56272, Note_on_c, 0, 66, 0
2, 56304, Note_on_c, 0, 75, 68
2, 56328, Note_on_c, 0, 82, 0
2, 56357, Note_on_c, 0, 75, 0
2, 56414, Note_on_c, 0, 63, 69
2, 56459, Note_on_c, 0, 63, 0
2, 56522, Note_on_c, 0, 66, 68
2, 56569, Note_on_c, 0, 66, 0
2, 56657, Note_on_c, 0, 58, 66
2, 56692, Note_on_c, 0, 58, 0
2, 56766, Note_on_c, 0, 70, 73
2, 56814, Note_on_c, 0, 70, 0
2, 56888, Note_on_c, 0, 54, 67
2, 56939, Note_on_c, 0, 54, 0
2, 57000, Note_on_c, 0, 75, 76
2, 57054, Note_on_c, 0, 75, 0
2, 57131, Note_on_c, 0, 51, 56
2, 57179, Note_on_c, 0, 51, 0
2, 57234, Note_on_c, 0, 78, 68
2, 57294, Note_on_c, 0, 78, 0
2, 57361, Note_on_c, 0, 49, 58
2, 57411, Note_on_c, 0, 49, 0
2, 57478, Note_on_c, 0, 80, 59
2, 57562, Note_on_c, 0, 80, 0
2, 57599, Note_on_c, 0, 48, 51
2, 57601, Note_on_c, 0, 81, 66
2, 57672, Note_on_c, 0, 48, 0
2, 57709, Note_on_c, 0, 80, 67
2, 57727, Note_on_c, 0, 81, 0
2, 57841, Note_on_c, 0, 78, 61
2, 57856, Note_on_c, 0, 51, 39
2, 57864, Note_on_c, 0, 80, 0
2, 57899, Note_on_c, 0, 51, 0
2, 57923, Note_on_c, 0, 78, 0
2, 57943, Note_on_c, 0, 76, 64
2, 58067, Note_on_c, 0, 75, 66
2, 58071, Note_on_c, 0, 76, 0
2, 58083, Note_on_c, 0, 54, 50
2, 58137, Note_on_c, 0, 54, 0
2, 58177, Note_on_c, 0, 73, 65
2, 58185, Note_on_c, 0, 75, 0
2, 58299, Note_on_c, 0, 73, 0
2, 58312, Note_on_c, 0, 75, 73
2, 58322, Note_on_c, 0, 60, 49
2, 58357, Note_on_c, 0, 60, 0
2, 58376, Note_on_c, 0, 75, 0
2, 58416, Note_on_c, 0, 76, 67
2, 58518, Note_on_c, 0, 76, 0
2, 58538, Note_on_c, 0, 78, 67
2, 58548, Note_on_c, 0, 63, 54
2, 58597, Note_on_c, 0, 63, 0
2, 58639, Note_on_c, 0, 81, 71
2, 58645, Note_on_c, 0, 78, 0
2, 58768, Note_on_c, 0, 80, 71
2, 58781, Note_on_c, 0, 66, 60
2, 58796, Note_on_c, 0, 81, 0
2, 58819, Note_on_c, 0, 66, 0
2, 58892, Note_on_c, 0, 78, 67
2, 58896, Note_on_c, 0, 80, 0
2, 58951, Note_on_c, 0, 78, 0
2, 59025, Note_on_c, 0, 80, 72
2, 59032, Note_on_c, 0, 64, 49
2, 59091, Note_on_c, 0, 64, 0
2, 59137, Note_on_c, 0, 73, 59
2, 59149, Note_on_c, 0, 80, 0
2, 59183, Note_on_c, 0, 73, 0
2, 59250, Note_on_c, 0, 61, 48
2, 59316, Note_on_c, 0, 61, 0
2, 59379, Note_on_c, 0, 76, 64
2, 59450, Note_on_c, 0, 76, 0
2, 59504, Note_on_c, 0, 57, 54
2, 59561, Note_on_c, 0, 57, 0
2, 59630, Note_on_c, 0, 73, 52
2, 59732, Note_on_c, 0, 73, 0
2, 59754, Note_on_c, 0, 54, 55
2, 59808, Note_on_c, 0, 54, 0
2, 59873, Note_on_c, 0, 69, 56
2, 59925, Note_on_c, 0, 69, 0
2, 60008, Note_on_c, 0, 63, 53
2, 60070, Note_on_c, 0, 63, 0
2, 60111, Note_on_c, 0, 66, 51
2, 60157, Note_on_c, 0, 66, 0
2, 60223, Note_on_c, 0, 60, 58
2, 60277, Note_on_c, 0, 60, 0
2, 60366, Note_on_c, 0, 75, 58
2, 60437, Note_on_c, 0, 75, 0
2, 60462, Note_on_c, 0, 52, 52
2, 60512, Note_on_c, 0, 52, 0
2, 60605, Note_on_c, 0, 68, 64
2, 60656, Note_on_c, 0, 68, 0
2, 60720, Note_on_c, 0, 61, 58
2, 60785, Note_on_c, 0, 61, 0
2, 60851, Note_on_c, 0, 64, 46
2, 60895, Note_on_c, 0, 64, 0
2, 60952, Note_on_c, 0, 57, 57
2, 61008, Note_on_c, 0, 57, 0
2, 61094, Note_on_c, 0, 73, 52
2, 61154, Note_on_c, 0, 73, 0
2, 61188, Note_on_c, 0, 54, 57
2, 61254, Note_on_c, 0, 54, 0
2, 61311, Note_on_c, 0, 69, 60
2, 61376, Note_on_c, 0, 69, 0
2, 61421, Note_on_c, 0, 51, 49
2, 61463, Control_c, 0, 67, 8
2, 61483, Control_c, 0, 67, 11
2, 61493, Note_on_c, 0, 51, 0
2, 61502, Control_c, 0, 67, 13
2, 61522, Control_c, 0, 67, 16
2, 61540, Control_c, 0, 67, 19
2, 61552, Note_on_c, 0, 66, 55
2, 61560, Control_c, 0, 67, 24
2, 61579, Control_c, 0, 67, 28
2, 61597, Note_on_c, 0, 66, 0
2, 61598, Control_c, 0, 67, 31
2, 61617, Control_c, 0, 67, 33
2, 61637, Control_c, 0, 67, 36
2, 61656, Control_c, 0, 67, 40
2, 61671, Note_on_c, 0, 48, 45
2, 61675, Control_c, 0, 67, 46
2, 61694, Control_c, 0, 67, 52
2, 61714, Control_c, 0, 67, 58
2, 61720, Note_on_c, 0, 48, 0
2, 61732, Control_c, 0, 67, 64
2, 61752, Control_c, 0, 67, 69
2, 61771, Control_c, 0, 67, 74
2, 61791, Control_c, 0, 67, 79
2, 61799, Note_on_c, 0, 63, 65
2, 61809, Control_c, 0, 67, 83
2, 61829, Control_c, 0, 67, 88
2, 61841, Note_on_c, 0, 63, 0
2, 61849, Control_c, 0, 67, 92
2, 61868, Control_c, 0, 67, 96
2, 61887, Control_c, 0, 67, 98
2, 61906, Control_c, 0, 67, 100
2, 61926, Control_c, 0, 67, 102
2, 61944, Control_c, 0, 67, 103
2, 61958, Note_on_c, 0, 44, 44
2, 61964, Control_c, 0, 67, 105
2, 61982, Note_on_c, 0, 60, 66
2, 61983, Control_c, 0, 67, 106
2, 62002, Control_c, 0, 67, 107
2, 62021, Control_c, 0, 67, 109
2, 62041, Control_c, 0, 67, 110
2, 62043, Note_on_c, 0, 44, 0
2, 62061, Control_c, 0, 67, 112
2, 62076, Note_on_c, 0, 60, 0
2, 62080, Control_c, 0, 67, 115
2, 62099, Control_c, 0, 67, 118
2, 62099, Note_on_c, 0, 56, 61
2, 62119, Control_c, 0, 67, 121
2, 62137, Control_c, 0, 67, 125
2, 62154, Note_on_c, 0, 56, 0
2, 62157, Control_c, 0, 67, 126
2, 62176, Control_c, 0, 67, 127
2, 62237, Note_on_c, 0, 54, 53
2, 62283, Note_on_c, 0, 54, 0
2, 62361, Note_on_c, 0, 56, 53
2, 62407, Note_on_c, 0, 56, 0
2, 62469, Note_on_c, 0, 51, 50
2, 62512, Note_on_c, 0, 51, 0
2, 62569, Note_on_c, 0, 56, 51
2, 62636, Note_on_c, 0, 56, 0
2, 62704, Note_on_c, 0, 44, 47
2, 62725, Note_on_c, 0, 60, 57
2, 62767, Note_on_c, 0, 44, 0
2, 62861, Note_on_c, 0, 60, 0
2, 62869, Note_on_c, 0, 56, 48
2, 62917, Note_on_c, 0, 56, 0
2, 62954, Note_on_c, 0, 54, 58
2, 63007, Note_on_c, 0, 54, 0
2, 63080, Note_on_c, 0, 56, 51
2, 63136, Note_on_c, 0, 56, 0
2, 63188, Note_on_c, 0, 51, 45
2, 63235, Note_on_c, 0, 51, 0
2, 63299, Note_on_c, 0, 56, 55
2, 63352, Note_on_c, 0, 56, 0
2, 63444, Note_on_c, 0, 61, 60
2, 63454, Note_on_c, 0, 44, 39
2, 63532, Note_on_c, 0, 44, 0
2, 63584, Note_on_c, 0, 56, 52
2, 63647, Note_on_c, 0, 61, 0
2, 63652, Note_on_c, 0, 56, 0
2, 63720, Note_on_c, 0, 53, 39
2, 63762, Note_on_c, 0, 53, 0
2, 63835, Note_on_c, 0, 56, 53
2, 63884, Note_on_c, 0, 56, 0
2, 63943, Note_on_c, 0, 49, 53
2, 63990, Note_on_c, 0, 49, 0
2, 64056, Note_on_c, 0, 56, 49
2, 64107, Note_on_c, 0, 56, 0
2, 64199, Note_on_c, 0, 61, 63
2, 64201, Note_on_c, 0, 44, 43
2, 64274, Note_on_c, 0, 44, 0
2, 64330, Note_on_c, 0, 56, 48
2, 64358, Note_on_c, 0, 61, 0
2, 64381, Note_on_c, 0, 56, 0
2, 64450, Note_on_c, 0, 53, 54
2, 64498, Note_on_c, 0, 53, 0
2, 64583, Note_on_c, 0, 56, 47
2, 64629, Note_on_c, 0, 56, 0
2, 64691, Note_on_c, 0, 49, 58
2, 64736, Note_on_c, 0, 49, 0
2, 64800, Note_on_c, 0, 56, 50
2, 64866, Note_on_c, 0, 56, 0
2, 64954, Note_on_c, 0, 44, 44
2, 64954, Note_on_c, 0, 66, 60
2, 65049, Note_on_c, 0, 44, 0
2, 65089, Note_on_c, 0, 66, 0
2, 65100, Note_on_c, 0, 56, 42
2, 65152, Note_on_c, 0, 56, 0
2, 65206, Note_on_c, 0, 51, 54
2, 65256, Note_on_c, 0, 51, 0
2, 65314, Note_on_c, 0, 56, 47
2, 65370, Note_on_c, 0, 56, 0
2, 65435, Note_on_c, 0, 48, 58
2, 65479, Note_on_c, 0, 48, 0
2, 65546, Note_on_c, 0, 56, 52
2, 65601, Note_on_c, 0, 56, 0
2, 65689, Note_on_c, 0, 66, 65
2, 65696, Note_on_c, 0, 44, 48
2, 65752, Note_on_c, 0, 44, 0
2, 65822, Note_on_c, 0, 56, 55
2, 65823, Note_on_c, 0, 66, 0
2, 65876, Note_on_c, 0, 56, 0
2, 65930, Note_on_c, 0, 51, 58
2, 65979, Note_on_c, 0, 51, 0
2, 66056, Note_on_c, 0, 56, 61
2, 66109, Note_on_c, 0, 56, 0
2, 66178, Note_on_c, 0, 48, 61
2, 66230, Note_on_c, 0, 48, 0
2, 66299, Note_on_c, 0, 56, 59
2, 66352, Note_on_c, 0, 56, 0
2, 66438, Note_on_c, 0, 65, 70
2, 66453, Note_on_c, 0, 44, 40
2, 66517, Note_on_c, 0, 44, 0
2, 66559, Note_on_c, 0, 56, 67
2, 66611, Note_on_c, 0, 65, 0
2, 66619, Note_on_c, 0, 56, 0
2, 66687, Note_on_c, 0, 53, 60
2, 66731, Note_on_c, 0, 53, 0
2, 66795, Note_on_c, 0, 56, 62
2, 66849, Note_on_c, 0, 56, 0
2, 66922, Note_on_c, 0, 49, 62
2, 66959, Note_on_c, 0, 49, 0
2, 67021, Note_on_c, 0, 56, 65
2, 67085, Note_on_c, 0, 56, 0
2, 67152, Note_on_c, 0, 65, 73
2, 67174, Note_on_c, 0, 44, 47
2, 67236, Note_on_c, 0, 44, 0
2, 67272, Note_on_c, 0, 56, 69
2, 67342, Note_on_c, 0, 65, 0
2, 67363, Note_on_c, 0, 56, 0
2, 67412, Note_on_c, 0, 53, 71
2, 67460, Note_on_c, 0, 53, 0
2, 67530, Note_on_c, 0, 56, 73
2, 67589, Note_on_c, 0, 56, 0
2, 67645, Note_on_c, 0, 49, 74
2, 67687, Note_on_c, 0, 49, 0
2, 67752, Note_on_c, 0, 56, 77
2, 67831, Note_on_c, 0, 56, 0
2, 67886, Note_on_c, 0, 67, 81
2, 67895, Note_on_c, 0, 44, 58
2, 67973, Control_c, 0, 67, 127
2, 67993, Control_c, 0, 67, 125
2, 68001, Note_on_c, 0, 58, 75
2, 68012, Control_c, 0, 67, 124
2, 68032, Control_c, 0, 67, 122
2, 68050, Control_c, 0, 67, 119
2, 68070, Control_c, 0, 67, 112
2, 68075, Note_on_c, 0, 44, 0
2, 68077, Note_on_c, 0, 58, 0
2, 68089, Control_c, 0, 67, 100
2, 68107, Control_c, 0, 67, 82
2, 68113, Note_on_c, 0, 67, 0
2, 68123, Note_on_c, 0, 52, 76
2, 68127, Control_c, 0, 67, 56
2, 68146, Control_c, 0, 67, 22
2, 68166, Control_c, 0, 67, 0
2, 68183, Note_on_c, 0, 52, 0
2, 68226, Note_on_c, 0, 58, 78
2, 68280, Note_on_c, 0, 58, 0
2, 68347, Note_on_c, 0, 49, 79
2, 68392, Note_on_c, 0, 49, 0
2, 68442, Note_on_c, 0, 58, 79
2, 68521, Note_on_c, 0, 58, 0
2, 68577, Note_on_c, 0, 44, 69
2, 68585, Note_on_c, 0, 67, 83
2, 68696, Note_on_c, 0, 58, 77
2, 68755, Note_on_c, 0, 44, 0
2, 68778, Note_on_c, 0, 58, 0
2, 68787, Note_on_c, 0, 67, 0
2, 68831, Note_on_c, 0, 52, 76
2, 68911, Note_on_c, 0, 52, 0
2, 68940, Note_on_c, 0, 58, 78
2, 69002, Note_on_c, 0, 58, 0
2, 69062, Note_on_c, 0, 49, 81
2, 69157, Note_on_c, 0, 49, 0
2, 69187, Note_on_c, 0, 58, 76
2, 69254, Note_on_c, 0, 58, 0
2, 69316, Note_on_c, 0, 44, 70
2, 69491, Note_on_c, 0, 48, 68
2, 69508, Control_c, 0, 64, 52
2, 69514, Note_on_c, 0, 44, 0
2, 69528, Control_c, 0, 64, 61
2, 69547, Control_c, 0, 64, 63
2, 69566, Control_c, 0, 64, 61
2, 69585, Control_c, 0, 64, 58
2, 69605, Control_c, 0, 64, 53
2, 69621, Note_on_c, 0, 51, 71
2, 69623, Control_c, 0, 64, 48
2, 69643, Control_c, 0, 64, 47
2, 69648, Note_on_c, 0, 48, 0
2, 69662, Control_c, 0, 64, 48
2, 69682, Control_c, 0, 64, 49
2, 69682, Note_on_c, 0, 51, 0
2, 69700, Control_c, 0, 64, 50
2, 69720, Control_c, 0, 64, 50
2, 69729, Note_on_c, 0, 54, 74
2, 69739, Control_c, 0, 64, 51
2, 69797, Control_c, 0, 64, 52
2, 69818, Note_on_c, 0, 54, 0
2, 69835, Control_c, 0, 64, 51
2, 69842, Note_on_c, 0, 57, 78
2, 69854, Control_c, 0, 64, 51
2, 69931, Control_c, 0, 64, 51
2, 69951, Control_c, 0, 64, 52
2, 69969, Control_c, 0, 64, 54
2, 69969, Note_on_c, 0, 60, 72
2, 69997, Note_on_c, 0, 57, 0
2, 70008, Control_c, 0, 64, 53
2, 70027, Control_c, 0, 64, 51
2, 70042, Note_on_c, 0, 60, 0
2, 70046, Control_c, 0, 64, 48
2, 70060, Note_on_c, 0, 61, 78
2, 70065, Control_c, 0, 64, 43
2, 70085, Control_c, 0, 64, 38
2, 70103, Control_c, 0, 64, 33
2, 70123, Control_c, 0, 64, 29
2, 70142, Control_c, 0, 64, 23
2, 70162, Control_c, 0, 64, 0
2, 70186, Note_on_c, 0, 64, 74
2, 70217, Note_on_c, 0, 61, 0
2, 70299, Note_on_c, 0, 67, 76
2, 70346, Note_on_c, 0, 64, 0
2, 70354, Control_c, 0, 64, 19
2, 70372, Control_c, 0, 64, 46
2, 70372, Note_on_c, 0, 67, 0
2, 70390, Note_on_c, 0, 70, 87
2, 70392, Control_c, 0, 64, 52
2, 70468, Control_c, 0, 64, 51
2, 70507, Note_on_c, 0, 73, 83
2, 70545, Control_c, 0, 64, 52
2, 70556, Note_on_c, 0, 70, 0
2, 70565, Control_c, 0, 64, 52
2, 70583, Control_c, 0, 64, 53
2, 70603, Control_c, 0, 64, 53
2, 70615, Note_on_c, 0, 76, 80
2, 70622, Control_c, 0, 64, 54
2, 70642, Control_c, 0, 64, 54
2, 70678, Note_on_c, 0, 73, 0
2, 70680, Control_c, 0, 64, 53
2, 70700, Control_c, 0, 64, 51
2, 70718, Note_on_c, 0, 76, 0
2, 70719, Control_c, 0, 64, 47
2, 70721, Note_on_c, 0, 44, 63
2, 70738, Control_c, 0, 64, 37
2, 70739, Note_on_c, 0, 72, 86
2, 70758, Control_c, 0, 64, 0
2, 70858, Note_on_c, 0, 75, 80
2, 70893, Note_on_c, 0, 72, 0
2, 70912, Control_c, 0, 64, 55
2, 70930, Control_c, 0, 64, 65
2, 70950, Control_c, 0, 64, 74
2, 70969, Control_c, 0, 64, 100
2, 70971, Note_on_c, 0, 78, 88
2, 70987, Control_c, 0, 64, 127
2, 70992, Note_on_c, 0, 75, 0
2, 71032, Note_on_c, 0, 44, 0
2, 71085, Note_on_c, 0, 75, 81
2, 71134, Note_on_c, 0, 78, 0
2, 71197, Note_on_c, 0, 72, 84
2, 71247, Note_on_c, 0, 75, 0
2, 71302, Note_on_c, 0, 68, 80
2, 71355, Note_on_c, 0, 72, 0
2, 71384, Note_on_c, 0, 68, 0
2, 71432, Note_on_c, 0, 66, 80
2, 71489, Control_c, 0, 64, 104
2, 71508, Control_c, 0, 64, 80
2, 71527, Control_c, 0, 64, 65
2, 71546, Control_c, 0, 64, 38
2, 71550, Note_on_c, 0, 63, 75
2, 71560, Note_on_c, 0, 66, 0
2, 71566, Control_c, 0, 64, 0
2, 71665, Note_on_c, 0, 60, 71
2, 71678, Note_on_c, 0, 63, 0
2, 71772, Note_on_c, 0, 60, 0
2, 71779, Note_on_c, 0, 56, 73
2, 71904, Note_on_c, 0, 60, 69
2, 71916, Note_on_c, 0, 56, 0
2, 72013, Note_on_c, 0, 63, 75
2, 72038, Note_on_c, 0, 60, 0
2, 72125, Note_on_c, 0, 63, 0
2, 72160, Note_on_c, 0, 56, 63
2, 72166, Note_on_c, 0, 65, 68
2, 72302, Note_on_c, 0, 68, 76
2, 72353, Control_c, 0, 64, 56
2, 72353, Note_on_c, 0, 65, 0
2, 72371, Control_c, 0, 64, 69
2, 72391, Control_c, 0, 64, 83
2, 72411, Control_c, 0, 64, 127
2, 72422, Note_on_c, 0, 73, 82
2, 72442, Note_on_c, 0, 68, 0
2, 72502, Note_on_c, 0, 56, 0
2, 72548, Note_on_c, 0, 68, 85
2, 72582, Note_on_c, 0, 73, 0
2, 72621, Control_c, 0, 64, 99
2, 72640, Control_c, 0, 64, 77
2, 72659, Control_c, 0, 64, 62
2, 72661, Note_on_c, 0, 65, 76
2, 72679, Control_c, 0, 64, 32
2, 72697, Control_c, 0, 64, 0
2, 72703, Note_on_c, 0, 68, 0
2, 72783, Note_on_c, 0, 61, 74
2, 72820, Note_on_c, 0, 65, 0
2, 72897, Note_on_c, 0, 58, 79
2, 72933, Note_on_c, 0, 61, 0
2, 73033, Note_on_c, 0, 55, 70
2, 73056, Note_on_c, 0, 58, 0
2, 73158, Note_on_c, 0, 52, 71
2, 73193, Note_on_c, 0, 55, 0
2, 73275, Note_on_c, 0, 52, 0
2, 73276, Note_on_c, 0, 49, 77
2, 73424, Note_on_c, 0, 52, 68
2, 73435, Note_on_c, 0, 49, 0
2, 73573, Note_on_c, 0, 55, 68
2, 73579, Control_c, 0, 64, 55
2, 73598, Control_c, 0, 64, 70
2, 73603, Note_on_c, 0, 52, 0
2, 73617, Control_c, 0, 64, 109
2, 73637, Control_c, 0, 64, 127
2, 73662, Note_on_c, 0, 55, 0
2, 73803, Note_on_c, 0, 44, 68
2, 73809, Control_c, 0, 64, 83
2, 73828, Control_c, 0, 64, 65
2, 73848, Control_c, 0, 64, 0
2, 74136, Control_c, 0, 67, 8
2, 74155, Control_c, 0, 67, 10
2, 74194, Control_c, 0, 67, 11
2, 74212, Control_c, 0, 67, 12
2, 74212, Note_on_c, 0, 73, 77
2, 74232, Control_c, 0, 67, 14
2, 74236, Note_on_c, 0, 49, 53
2, 74236, Note_on_c, 0, 68, 66
2, 74237, Note_on_c, 0, 56, 53
2, 74238, Note_on_c, 0, 65, 57
2, 74242, Note_on_c, 0, 53, 50
2, 74251, Control_c, 0, 67, 17
2, 74271, Control_c, 0, 67, 20
2, 74289, Control_c, 0, 67, 22
2, 74308, Control_c, 0, 64, 59
2, 74308, Control_c, 0, 67, 25
2, 74332, Control_c, 0, 64, 67
2, 74332, Control_c, 0, 67, 27
2, 74351, Control_c, 0, 64, 76
2, 74351, Control_c, 0, 67, 30
2, 74370, Control_c, 0, 64, 99
2, 74370, Control_c, 0, 67, 34
2, 74389, Control_c, 0, 64, 127
2, 74389, Control_c, 0, 67, 37
2, 74389, Note_on_c, 0, 53, 0
2, 74404, Note_on_c, 0, 68, 0
2, 74407, Note_on_c, 0, 49, 0
2, 74408, Control_c, 0, 67, 42
2, 74427, Control_c, 0, 67, 49
2, 74431, Note_on_c, 0, 73, 0
2, 74440, Note_on_c, 0, 56, 0
2, 74441, Note_on_c, 0, 65, 0
2, 74447, Control_c, 0, 67, 58
2, 74466, Control_c, 0, 67, 66
2, 74485, Control_c, 0, 67, 72
2, 74504, Control_c, 0, 64, 112
2, 74504, Control_c, 0, 67, 77
2, 74524, Control_c, 0, 64, 97
2, 74524, Control_c, 0, 67, 82
2, 74542, Control_c, 0, 64, 86
2, 74542, Control_c, 0, 67, 87
2, 74561, Control_c, 0, 64, 76
2, 74561, Control_c, 0, 67, 92
2, 74580, Control_c, 0, 64, 68
2, 74580, Control_c, 0, 67, 96
2, 74600, Control_c, 0, 64, 63
2, 74600, Control_c, 0, 67, 103
2, 74618, Control_c, 0, 64, 60
2, 74618, Control_c, 0, 67, 108
2, 74638, Control_c, 0, 64, 54
2, 74638, Control_c, 0, 67, 113
2, 74656, Note_on_c, 0, 72, 71
2, 74657, Control_c, 0, 64, 41
2, 74657, Control_c, 0, 67, 119
2, 74676, Note_on_c, 0, 68, 60
2, 74677, Control_c, 0, 64, 0
2, 74677, Control_c, 0, 67, 125
2, 74678, Note_on_c, 0, 63, 56
2, 74682, Note_on_c, 0, 56, 38
2, 74688, Note_on_c, 0, 51, 42
2, 74689, Note_on_c, 0, 54, 46
2, 74695, Control_c, 0, 67, 127
2, 74829, Control_c, 0, 64, 57
2, 74849, Control_c, 0, 64, 68
2, 74868, Control_c, 0, 64, 87
2, 74887, Control_c, 0, 64, 127
2, 74917, Note_on_c, 0, 51, 0
2, 74919, Note_on_c, 0, 63, 0
2, 74927, Note_on_c, 0, 54, 0
2, 74938, Note_on_c, 0, 72, 0
2, 74955, Note_on_c, 0, 68, 0
2, 74988, Note_on_c, 0, 56, 0
2, 75080, Control_c, 0, 64, 100
2, 75098, Control_c, 0, 64, 90
2, 75118, Control_c, 0, 64, 83
2, 75137, Control_c, 0, 64, 77
2, 75157, Control_c, 0, 64, 72
2, 75175, Control_c, 0, 64, 66
2, 75195, Control_c, 0, 64, 60
2, 75214, Control_c, 0, 64, 48
2, 75233, Control_c, 0, 64, 31
2, 75252, Control_c, 0, 64, 0
2, 75336, Note_on_c, 0, 49, 61
2, 75399, Note_on_c, 0, 44, 0
2, 75780, Note_on_c, 0, 53, 50
2, 75895, Note_on_c, 0, 56, 57
2, 76007, Note_on_c, 0, 61, 54
2, 76100, Note_on_c, 0, 68, 59
2, 76215, Note_on_c, 0, 73, 61
2, 76824, Control_c, 0, 64, 18
2, 76844, Control_c, 0, 64, 28
2, 76863, Control_c, 0, 64, 36
2, 76882, Control_c, 0, 64, 42
2, 76901, Control_c, 0, 64, 46
2, 76921, Control_c, 0, 64, 48
2, 76940, Control_c, 0, 64, 49
2, 76959, Control_c, 0, 64, 50
2, 76978, Control_c, 0, 64, 51
2, 76998, Control_c, 0, 64, 52
2, 77017, Control_c, 0, 64, 53
2, 77036, Control_c, 0, 64, 54
2, 77055, Control_c, 0, 64, 55
2, 77075, Control_c, 0, 64, 56
2, 77093, Control_c, 0, 64, 57
2, 77113, Control_c, 0, 64, 57
2, 77152, Control_c, 0, 64, 58
2, 77170, Control_c, 0, 64, 58
2, 77189, Control_c, 0, 64, 59
2, 77210, Control_c, 0, 64, 60
2, 77228, Control_c, 0, 64, 60
2, 77248, Control_c, 0, 64, 61
2, 77267, Control_c, 0, 64, 62
2, 77287, Control_c, 0, 64, 63
2, 77305, Control_c, 0, 64, 63
2, 77325, Control_c, 0, 64, 64
2, 77344, Control_c, 0, 64, 65
2, 77363, Control_c, 0, 64, 66
2, 77382, Control_c, 0, 64, 67
2, 77402, Control_c, 0, 64, 69
2, 77420, Control_c, 0, 64, 71
2, 77439, Control_c, 0, 64, 73
2, 77458, Control_c, 0, 64, 76
2, 77478, Control_c, 0, 64, 80
2, 77497, Control_c, 0, 64, 82
2, 77516, Control_c, 0, 64, 84
2, 77535, Control_c, 0, 64, 86
2, 77555, Control_c, 0, 64, 90
2, 77573, Control_c, 0, 64, 94
2, 77593, Control_c, 0, 64, 101
2, 77612, Control_c, 0, 64, 112
2, 77632, Control_c, 0, 64, 127
2, 77767, Note_on_c, 0, 61, 0
2, 77902, Note_on_c, 0, 56, 0
2, 77954, Note_on_c, 0, 53, 0
2, 77959, Note_on_c, 0, 73, 0
2, 77974, Note_on_c, 0, 68, 0
2, 78054, Note_on_c, 0, 49, 0
2, 78571, Control_c, 0, 64, 121
2, 78591, Control_c, 0, 64, 115
2, 78609, Control_c, 0, 64, 110
2, 78628, Control_c, 0, 64, 106
2, 78648, Control_c, 0, 64, 101
2, 78667, Control_c, 0, 64, 95
2, 78686, Control_c, 0, 64, 88
2, 78705, Control_c, 0, 64, 78
2, 78725, Control_c, 0, 64, 70
2, 78743, Control_c, 0, 64, 64
2, 78763, Control_c, 0, 64, 57
2, 78782, Control_c, 0, 64, 48
2, 78802, Control_c, 0, 64, 41
2, 78820, Control_c, 0, 64, 38
2, 78859, Control_c, 0, 64, 37
2, 78878, Control_c, 0, 64, 36
2, 78897, Control_c, 0, 64, 35
2, 78917, Control_c, 0, 64, 33
2, 78936, Control_c, 0, 64, 32
2, 78974, Control_c, 0, 64, 31
2, 79223, Control_c, 0, 64, 32
2, 79262, Control_c, 0, 64, 33
2, 79300, Control_c, 0, 64, 34
2, 79415, Control_c, 0, 64, 34
2, 79453, Control_c, 0, 64, 35
2, 79684, Control_c, 0, 64, 34
2, 79722, Control_c, 0, 64, 33
2, 79741, Control_c, 0, 64, 32
2, 79761, Control_c, 0, 64, 31
2, 79779, Control_c, 0, 64, 30
2, 79799, Control_c, 0, 64, 28
2, 79818, Control_c, 0, 64, 27
2, 79838, Control_c, 0, 64, 27
2, 79856, Control_c, 0, 64, 26
2, 79933, Control_c, 0, 64, 25
2, 80299,End_track
0, 0, End_of_file
