0, 0, Header, 1, 2, 384
1, 0, Start_track
1, 0, Tempo, 500000
1, 0, Time_signature, 4, 2, 24, 8
1, 1, End_track
2, 0, Start_track
2, 0, Title_t, "7.7.13 Group 1"
2, 0, Program_c, 0, 0
2, 0, Control_c, 0, 64, 0
2, 0, Control_c, 0, 67, 127
2, 753, Note_on_c, 0, 51, 49
2, 766, Note_on_c, 0, 63, 57
2, 835, Note_on_c, 0, 51, 0
2, 840, Note_on_c, 0, 50, 64
2, 895, Note_on_c, 0, 50, 0
2, 914, Note_on_c, 0, 51, 56
2, 960, Note_on_c, 0, 66, 54
2, 962, Note_on_c, 0, 63, 0
2, 1118, Note_on_c, 0, 65, 61
2, 1120, Note_on_c, 0, 66, 0
2, 1160, Control_c, 0, 67, 122
2, 1175, Control_c, 0, 67, 114
2, 1191, Control_c, 0, 67, 103
2, 1206, Control_c, 0, 67, 88
2, 1220, Control_c, 0, 67, 66
2, 1236, Control_c, 0, 67, 39
2, 1251, Control_c, 0, 67, 9
2, 1266, Control_c, 0, 67, 0
2, 1284, Note_on_c, 0, 68, 58
2, 1289, Note_on_c, 0, 65, 0
2, 1457, Note_on_c, 0, 66, 58
2, 1457, Note_on_c, 0, 68, 0
2, 1474, Note_on_c, 0, 39, 46
2, 1540, Control_c, 0, 64, 36
2, 1541, Note_on_c, 0, 51, 0
2, 1555, Control_c, 0, 64, 58
2, 1570, Control_c, 0, 64, 63
2, 1585, Control_c, 0, 64, 69
2, 1601, Control_c, 0, 64, 85
2, 1615, Control_c, 0, 64, 127
2, 1623, Note_on_c, 0, 66, 0
2, 1623, Note_on_c, 0, 70, 65
2, 1660, Note_on_c, 0, 39, 0
2, 1670, Note_on_c, 0, 70, 0
2, 1795, Note_on_c, 0, 68, 67
2, 1943, Note_on_c, 0, 71, 80
2, 2000, Note_on_c, 0, 68, 0
2, 2065, Control_c, 0, 64, 88
2, 2080, Control_c, 0, 64, 73
2, 2095, Control_c, 0, 64, 61
2, 2100, Note_on_c, 0, 71, 0
2, 2111, Control_c, 0, 64, 32
2, 2115, Note_on_c, 0, 70, 71
2, 2125, Control_c, 0, 64, 0
2, 2171, Control_c, 0, 67, 16
2, 2186, Control_c, 0, 67, 56
2, 2201, Control_c, 0, 67, 89
2, 2216, Control_c, 0, 67, 108
2, 2232, Control_c, 0, 67, 125
2, 2247, Control_c, 0, 67, 127
2, 2271, Note_on_c, 0, 75, 68
2, 2293, Note_on_c, 0, 70, 0
2, 2443, Note_on_c, 0, 74, 60
2, 2490, Note_on_c, 0, 75, 0
2, 2619, Note_on_c, 0, 72, 59
2, 2643, Note_on_c, 0, 74, 0
2, 2784, Note_on_c, 0, 70, 56
2, 2794, Note_on_c, 0, 72, 0
2, 2930, Note_on_c, 0, 70, 0
2, 2934, Note_on_c, 0, 68, 59
2, 3092, Note_on_c, 0, 68, 0
2, 3101, Note_on_c, 0, 66, 61
2, 3246, Note_on_c, 0, 66, 0
2, 3263, Note_on_c, 0, 65, 57
2, 3428, Note_on_c, 0, 51, 41
2, 3428, Note_on_c, 0, 65, 0
2, 3440, Note_on_c, 0, 66, 53
2, 3551, Note_on_c, 0, 66, 0
2, 3593, Note_on_c, 0, 54, 61
2, 3607, Note_on_c, 0, 51, 0
2, 3754, Note_on_c, 0, 62, 70
2, 3757, Note_on_c, 0, 53, 56
2, 3822, Note_on_c, 0, 62, 0
2, 3825, Control_c, 0, 67, 101
2, 3841, Control_c, 0, 67, 58
2, 3856, Control_c, 0, 67, 8
2, 3871, Control_c, 0, 67, 0
2, 3901, Note_on_c, 0, 54, 0
2, 3914, Note_on_c, 0, 56, 69
2, 3938, Note_on_c, 0, 53, 0
2, 4069, Note_on_c, 0, 63, 73
2, 4081, Note_on_c, 0, 54, 70
2, 4108, Note_on_c, 0, 63, 0
2, 4218, Note_on_c, 0, 56, 0
2, 4223, Note_on_c, 0, 54, 0
2, 4232, Note_on_c, 0, 58, 74
2, 4389, Note_on_c, 0, 56, 72
2, 4397, Note_on_c, 0, 75, 74
2, 4437, Note_on_c, 0, 58, 0
2, 4439, Note_on_c, 0, 75, 0
2, 4560, Note_on_c, 0, 59, 68
2, 4561, Note_on_c, 0, 56, 0
2, 4593, Control_c, 0, 67, 33
2, 4609, Control_c, 0, 67, 81
2, 4624, Control_c, 0, 67, 125
2, 4640, Control_c, 0, 67, 127
2, 4694, Note_on_c, 0, 59, 0
2, 4703, Note_on_c, 0, 74, 61
2, 4706, Note_on_c, 0, 58, 68
2, 4748, Note_on_c, 0, 74, 0
2, 4782, Note_on_c, 0, 75, 64
2, 4819, Note_on_c, 0, 58, 0
2, 4852, Note_on_c, 0, 74, 69
2, 4873, Note_on_c, 0, 63, 54
2, 4910, Note_on_c, 0, 74, 0
2, 4913, Note_on_c, 0, 75, 0
2, 4941, Note_on_c, 0, 72, 55
2, 5007, Note_on_c, 0, 63, 0
2, 5033, Note_on_c, 0, 62, 57
2, 5044, Note_on_c, 0, 72, 0
2, 5056, Note_on_c, 0, 70, 58
2, 5143, Note_on_c, 0, 62, 0
2, 5166, Note_on_c, 0, 70, 0
2, 5212, Note_on_c, 0, 60, 57
2, 5369, Note_on_c, 0, 58, 61
2, 5371, Note_on_c, 0, 60, 0
2, 5422, Control_c, 0, 67, 106
2, 5438, Control_c, 0, 67, 71
2, 5453, Control_c, 0, 67, 30
2, 5468, Control_c, 0, 67, 0
2, 5499, Note_on_c, 0, 58, 0
2, 5519, Note_on_c, 0, 56, 61
2, 5661, Note_on_c, 0, 56, 0
2, 5668, Note_on_c, 0, 75, 65
2, 5684, Note_on_c, 0, 54, 66
2, 5739, Note_on_c, 0, 74, 70
2, 5774, Note_on_c, 0, 75, 0
2, 5811, Note_on_c, 0, 74, 0
2, 5815, Note_on_c, 0, 54, 0
2, 5815, Note_on_c, 0, 72, 69
2, 5819, Note_on_c, 0, 53, 62
2, 5864, Note_on_c, 0, 72, 0
2, 5887, Note_on_c, 0, 74, 71
2, 5944, Note_on_c, 0, 53, 0
2, 5963, Note_on_c, 0, 54, 66
2, 5974, Note_on_c, 0, 75, 81
2, 6002, Note_on_c, 0, 54, 0
2, 6007, Note_on_c, 0, 74, 0
2, 6128, Note_on_c, 0, 78, 78
2, 6155, Note_on_c, 0, 75, 0
2, 6290, Note_on_c, 0, 77, 78
2, 6298, Note_on_c, 0, 50, 50
2, 6347, Note_on_c, 0, 50, 0
2, 6405, Note_on_c, 0, 78, 0
2, 6452, Note_on_c, 0, 80, 68
2, 6467, Note_on_c, 0, 77, 0
2, 6518, Control_c, 0, 67, 28
2, 6533, Control_c, 0, 67, 78
2, 6547, Control_c, 0, 67, 127
2, 6616, Note_on_c, 0, 51, 61
2, 6618, Note_on_c, 0, 78, 68
2, 6650, Note_on_c, 0, 80, 0
2, 6656, Note_on_c, 0, 51, 0
2, 6763, Note_on_c, 0, 77, 64
2, 6827, Note_on_c, 0, 78, 0
2, 6915, Note_on_c, 0, 77, 0
2, 6927, Note_on_c, 0, 54, 57
2, 6939, Note_on_c, 0, 75, 62
2, 6989, Note_on_c, 0, 54, 0
2, 7005, Control_c, 0, 64, 57
2, 7020, Control_c, 0, 64, 64
2, 7035, Control_c, 0, 64, 68
2, 7050, Control_c, 0, 64, 74
2, 7054, Note_on_c, 0, 75, 0
2, 7065, Control_c, 0, 64, 81
2, 7088, Control_c, 0, 64, 91
2, 7093, Note_on_c, 0, 73, 64
2, 7103, Control_c, 0, 64, 106
2, 7119, Control_c, 0, 64, 127
2, 7131, Note_on_c, 0, 73, 0
2, 7269, Note_on_c, 0, 56, 54
2, 7270, Control_c, 0, 64, 108
2, 7274, Note_on_c, 0, 71, 60
2, 7286, Control_c, 0, 64, 97
2, 7301, Control_c, 0, 64, 88
2, 7304, Note_on_c, 0, 71, 0
2, 7315, Control_c, 0, 64, 78
2, 7331, Control_c, 0, 64, 70
2, 7346, Control_c, 0, 64, 64
2, 7362, Control_c, 0, 64, 52
2, 7377, Control_c, 0, 64, 0
2, 7407, Control_c, 0, 67, 112
2, 7422, Control_c, 0, 67, 94
2, 7431, Note_on_c, 0, 56, 0
2, 7433, Note_on_c, 0, 59, 64
2, 7438, Control_c, 0, 67, 68
2, 7453, Control_c, 0, 67, 33
2, 7467, Control_c, 0, 67, 0
2, 7580, Note_on_c, 0, 58, 70
2, 7580, Note_on_c, 0, 75, 77
2, 7628, Note_on_c, 0, 75, 0
2, 7669, Note_on_c, 0, 59, 0
2, 7727, Note_on_c, 0, 61, 83
2, 7816, Note_on_c, 0, 58, 0
2, 7889, Note_on_c, 0, 61, 0
2, 7901, Note_on_c, 0, 80, 68
2, 7909, Note_on_c, 0, 59, 69
2, 7948, Note_on_c, 0, 80, 0
2, 7962, Note_on_c, 0, 79, 67
2, 8048, Note_on_c, 0, 79, 0
2, 8051, Note_on_c, 0, 80, 70
2, 8069, Note_on_c, 0, 58, 60
2, 8090, Note_on_c, 0, 59, 0
2, 8175, Control_c, 0, 67, 9
2, 8190, Control_c, 0, 67, 59
2, 8206, Control_c, 0, 67, 102
2, 8219, Note_on_c, 0, 58, 0
2, 8220, Note_on_c, 0, 56, 66
2, 8221, Control_c, 0, 67, 127
2, 8357, Note_on_c, 0, 56, 0
2, 8375, Note_on_c, 0, 54, 67
2, 8546, Note_on_c, 0, 54, 0
2, 8558, Note_on_c, 0, 53, 64
2, 8619, Note_on_c, 0, 53, 0
2, 8700, Control_c, 0, 67, 105
2, 8708, Note_on_c, 0, 80, 0
2, 8715, Control_c, 0, 67, 66
2, 8723, Note_on_c, 0, 77, 75
2, 8731, Control_c, 0, 67, 23
2, 8746, Control_c, 0, 67, 0
2, 8868, Note_on_c, 0, 78, 75
2, 8881, Note_on_c, 0, 56, 66
2, 8917, Note_on_c, 0, 56, 0
2, 8946, Note_on_c, 0, 77, 0
2, 9038, Note_on_c, 0, 75, 78
2, 9081, Note_on_c, 0, 78, 0
2, 9178, Note_on_c, 0, 61, 59
2, 9183, Note_on_c, 0, 77, 77
2, 9187, Note_on_c, 0, 75, 0
2, 9260, Note_on_c, 0, 60, 71
2, 9279, Control_c, 0, 67, 44
2, 9294, Control_c, 0, 67, 106
2, 9295, Note_on_c, 0, 61, 0
2, 9308, Control_c, 0, 67, 127
2, 9322, Note_on_c, 0, 60, 0
2, 9343, Note_on_c, 0, 77, 0
2, 9347, Note_on_c, 0, 61, 50
2, 9348, Note_on_c, 0, 80, 65
2, 9533, Note_on_c, 0, 73, 64
2, 9619, Note_on_c, 0, 80, 0
2, 9664, Note_on_c, 0, 73, 0
2, 9689, Note_on_c, 0, 71, 60
2, 9855, Note_on_c, 0, 70, 59
2, 9889, Note_on_c, 0, 71, 0
2, 9906, Note_on_c, 0, 70, 0
2, 10000, Note_on_c, 0, 58, 61
2, 10060, Note_on_c, 0, 61, 0
2, 10077, Control_c, 0, 67, 112
2, 10092, Control_c, 0, 67, 68
2, 10107, Control_c, 0, 67, 12
2, 10123, Control_c, 0, 67, 0
2, 10171, Note_on_c, 0, 59, 64
2, 10176, Note_on_c, 0, 73, 81
2, 10197, Note_on_c, 0, 58, 0
2, 10217, Note_on_c, 0, 73, 0
2, 10323, Note_on_c, 0, 56, 75
2, 10379, Note_on_c, 0, 59, 0
2, 10472, Note_on_c, 0, 58, 72
2, 10493, Note_on_c, 0, 78, 65
2, 10542, Note_on_c, 0, 78, 0
2, 10558, Note_on_c, 0, 56, 0
2, 10558, Note_on_c, 0, 77, 73
2, 10604, Note_on_c, 0, 58, 0
2, 10621, Note_on_c, 0, 61, 70
2, 10646, Note_on_c, 0, 78, 77
2, 10667, Note_on_c, 0, 77, 0
2, 10805, Note_on_c, 0, 54, 72
2, 10839, Note_on_c, 0, 61, 0
2, 10972, Note_on_c, 0, 54, 0
2, 10975, Note_on_c, 0, 53, 76
2, 11146, Note_on_c, 0, 51, 73
2, 11188, Note_on_c, 0, 53, 0
2, 11246, Note_on_c, 0, 51, 0
2, 11310, Note_on_c, 0, 77, 78
2, 11311, Note_on_c, 0, 78, 0
2, 11474, Note_on_c, 0, 75, 78
2, 11480, Note_on_c, 0, 54, 73
2, 11522, Note_on_c, 0, 54, 0
2, 11559, Note_on_c, 0, 77, 0
2, 11641, Note_on_c, 0, 74, 79
2, 11693, Note_on_c, 0, 75, 0
2, 11804, Note_on_c, 0, 59, 62
2, 11804, Note_on_c, 0, 75, 82
2, 11815, Note_on_c, 0, 74, 0
2, 11863, Note_on_c, 0, 59, 0
2, 11876, Note_on_c, 0, 58, 68
2, 11912, Note_on_c, 0, 58, 0
2, 11955, Note_on_c, 0, 59, 63
2, 11960, Note_on_c, 0, 75, 0
2, 11961, Note_on_c, 0, 78, 75
2, 12117, Note_on_c, 0, 68, 68
2, 12119, Control_c, 0, 67, 37
2, 12135, Control_c, 0, 67, 70
2, 12150, Control_c, 0, 67, 97
2, 12166, Control_c, 0, 67, 111
2, 12180, Control_c, 0, 67, 113
2, 12180, Note_on_c, 0, 78, 0
2, 12211, Control_c, 0, 67, 111
2, 12226, Control_c, 0, 67, 108
2, 12241, Control_c, 0, 67, 105
2, 12256, Control_c, 0, 67, 100
2, 12271, Control_c, 0, 67, 95
2, 12287, Control_c, 0, 67, 87
2, 12289, Note_on_c, 0, 78, 79
2, 12292, Note_on_c, 0, 59, 0
2, 12301, Control_c, 0, 67, 72
2, 12307, Note_on_c, 0, 68, 0
2, 12316, Control_c, 0, 67, 45
2, 12332, Control_c, 0, 67, 17
2, 12347, Control_c, 0, 67, 0
2, 12438, Note_on_c, 0, 78, 0
2, 12445, Note_on_c, 0, 49, 62
2, 12464, Note_on_c, 0, 77, 75
2, 12511, Note_on_c, 0, 49, 0
2, 12617, Note_on_c, 0, 75, 80
2, 12656, Note_on_c, 0, 77, 0
2, 12778, Note_on_c, 0, 53, 80
2, 12778, Note_on_c, 0, 73, 90
2, 12833, Note_on_c, 0, 53, 0
2, 12891, Note_on_c, 0, 75, 0
2, 12928, Note_on_c, 0, 72, 85
2, 12951, Note_on_c, 0, 73, 0
2, 13085, Note_on_c, 0, 58, 67
2, 13086, Note_on_c, 0, 73, 86
2, 13119, Note_on_c, 0, 72, 0
2, 13152, Note_on_c, 0, 58, 0
2, 13153, Note_on_c, 0, 56, 68
2, 13225, Note_on_c, 0, 56, 0
2, 13252, Note_on_c, 0, 58, 77
2, 13252, Note_on_c, 0, 73, 0
2, 13258, Note_on_c, 0, 77, 79
2, 13410, Note_on_c, 0, 66, 81
2, 13426, Note_on_c, 0, 77, 0
2, 13576, Note_on_c, 0, 76, 83
2, 13582, Note_on_c, 0, 58, 0
2, 13591, Note_on_c, 0, 66, 0
2, 13738, Note_on_c, 0, 75, 83
2, 13745, Note_on_c, 0, 47, 74
2, 13778, Note_on_c, 0, 76, 0
2, 13821, Note_on_c, 0, 47, 0
2, 13895, Note_on_c, 0, 73, 87
2, 13931, Note_on_c, 0, 75, 0
2, 14069, Note_on_c, 0, 71, 88
2, 14077, Note_on_c, 0, 51, 80
2, 14105, Note_on_c, 0, 73, 0
2, 14152, Note_on_c, 0, 51, 0
2, 14235, Note_on_c, 0, 70, 86
2, 14265, Note_on_c, 0, 71, 0
2, 14427, Note_on_c, 0, 71, 84
2, 14451, Note_on_c, 0, 56, 77
2, 14459, Note_on_c, 0, 70, 0
2, 14593, Note_on_c, 0, 56, 0
2, 14604, Note_on_c, 0, 71, 0
2, 14605, Note_on_c, 0, 75, 86
2, 14778, Note_on_c, 0, 65, 84
2, 14784, Note_on_c, 0, 49, 62
2, 14823, Note_on_c, 0, 75, 0
2, 14916, Note_on_c, 0, 49, 0
2, 14939, Note_on_c, 0, 75, 80
2, 14954, Note_on_c, 0, 65, 0
2, 15096, Note_on_c, 0, 71, 85
2, 15101, Note_on_c, 0, 51, 72
2, 15129, Note_on_c, 0, 75, 0
2, 15151, Note_on_c, 0, 51, 0
2, 15257, Note_on_c, 0, 75, 78
2, 15293, Note_on_c, 0, 71, 0
2, 15440, Note_on_c, 0, 66, 85
2, 15461, Note_on_c, 0, 59, 56
2, 15490, Note_on_c, 0, 75, 0
2, 15604, Note_on_c, 0, 75, 79
2, 15621, Note_on_c, 0, 66, 0
2, 15622, Note_on_c, 0, 59, 0
2, 15765, Note_on_c, 0, 71, 73
2, 15771, Note_on_c, 0, 56, 71
2, 15796, Note_on_c, 0, 75, 0
2, 15867, Note_on_c, 0, 56, 0
2, 15919, Note_on_c, 0, 75, 71
2, 16014, Note_on_c, 0, 71, 0
2, 16084, Note_on_c, 0, 68, 74
2, 16091, Note_on_c, 0, 53, 61
2, 16141, Note_on_c, 0, 75, 0
2, 16161, Note_on_c, 0, 53, 0
2, 16260, Note_on_c, 0, 75, 74
2, 16345, Note_on_c, 0, 68, 0
2, 16421, Note_on_c, 0, 46, 70
2, 16423, Note_on_c, 0, 73, 70
2, 16474, Note_on_c, 0, 46, 0
2, 16499, Note_on_c, 0, 75, 0
2, 16587, Note_on_c, 0, 71, 78
2, 16622, Note_on_c, 0, 73, 0
2, 16746, Note_on_c, 0, 70, 82
2, 16761, Note_on_c, 0, 49, 74
2, 16769, Note_on_c, 0, 71, 0
2, 16818, Note_on_c, 0, 49, 0
2, 16902, Note_on_c, 0, 68, 86
2, 16934, Note_on_c, 0, 70, 0
2, 17076, Note_on_c, 0, 70, 86
2, 17095, Note_on_c, 0, 54, 64
2, 17137, Note_on_c, 0, 68, 0
2, 17196, Note_on_c, 0, 54, 0
2, 17232, Note_on_c, 0, 73, 85
2, 17264, Note_on_c, 0, 70, 0
2, 17409, Note_on_c, 0, 63, 79
2, 17437, Note_on_c, 0, 47, 61
2, 17437, Note_on_c, 0, 73, 0
2, 17552, Note_on_c, 0, 47, 0
2, 17569, Note_on_c, 0, 73, 72
2, 17679, Note_on_c, 0, 63, 0
2, 17729, Note_on_c, 0, 70, 74
2, 17734, Note_on_c, 0, 49, 69
2, 17734, Note_on_c, 0, 73, 0
2, 17853, Note_on_c, 0, 49, 0
2, 17901, Note_on_c, 0, 73, 72
2, 17942, Note_on_c, 0, 70, 0
2, 18081, Note_on_c, 0, 58, 75
2, 18088, Note_on_c, 0, 65, 66
2, 18131, Note_on_c, 0, 73, 0
2, 18220, Note_on_c, 0, 65, 0
2, 18226, Note_on_c, 0, 58, 0
2, 18250, Note_on_c, 0, 73, 71
2, 18398, Note_on_c, 0, 54, 72
2, 18410, Note_on_c, 0, 70, 67
2, 18444, Note_on_c, 0, 73, 0
2, 18515, Note_on_c, 0, 54, 0
2, 18521, Control_c, 0, 67, 14
2, 18537, Control_c, 0, 67, 56
2, 18552, Control_c, 0, 67, 94
2, 18567, Control_c, 0, 67, 122
2, 18568, Note_on_c, 0, 73, 70
2, 18582, Control_c, 0, 67, 127
2, 18604, Note_on_c, 0, 70, 0
2, 18748, Note_on_c, 0, 66, 74
2, 18762, Note_on_c, 0, 51, 57
2, 18802, Note_on_c, 0, 73, 0
2, 18838, Note_on_c, 0, 51, 0
2, 18918, Note_on_c, 0, 73, 70
2, 18973, Note_on_c, 0, 66, 0
2, 19086, Note_on_c, 0, 71, 75
2, 19096, Note_on_c, 0, 44, 58
2, 19117, Note_on_c, 0, 73, 0
2, 19176, Note_on_c, 0, 44, 0
2, 19250, Note_on_c, 0, 70, 73
2, 19260, Note_on_c, 0, 71, 0
2, 19415, Note_on_c, 0, 68, 76
2, 19431, Note_on_c, 0, 47, 60
2, 19461, Note_on_c, 0, 70, 0
2, 19482, Note_on_c, 0, 47, 0
2, 19577, Note_on_c, 0, 66, 81
2, 19604, Note_on_c, 0, 68, 0
2, 19617, Control_c, 0, 67, 118
2, 19631, Control_c, 0, 67, 106
2, 19647, Control_c, 0, 67, 88
2, 19662, Control_c, 0, 67, 62
2, 19677, Control_c, 0, 67, 34
2, 19693, Control_c, 0, 67, 0
2, 19741, Note_on_c, 0, 68, 74
2, 19752, Note_on_c, 0, 53, 59
2, 19790, Note_on_c, 0, 66, 0
2, 19840, Note_on_c, 0, 53, 0
2, 19903, Note_on_c, 0, 71, 75
2, 19905, Note_on_c, 0, 68, 0
2, 20066, Note_on_c, 0, 61, 70
2, 20087, Note_on_c, 0, 46, 53
2, 20087, Note_on_c, 0, 71, 0
2, 20142, Control_c, 0, 67, 9
2, 20157, Control_c, 0, 67, 39
2, 20160, Note_on_c, 0, 46, 0
2, 20173, Control_c, 0, 67, 67
2, 20188, Control_c, 0, 67, 88
2, 20204, Control_c, 0, 67, 105
2, 20218, Control_c, 0, 67, 117
2, 20233, Control_c, 0, 67, 126
2, 20244, Note_on_c, 0, 71, 58
2, 20249, Control_c, 0, 67, 127
2, 20294, Note_on_c, 0, 61, 0
2, 20397, Note_on_c, 0, 47, 58
2, 20399, Note_on_c, 0, 71, 0
2, 20409, Note_on_c, 0, 68, 60
2, 20457, Note_on_c, 0, 47, 0
2, 20568, Note_on_c, 0, 68, 0
2, 20577, Note_on_c, 0, 71, 52
2, 20730, Note_on_c, 0, 63, 69
2, 20751, Note_on_c, 0, 56, 51
2, 20769, Note_on_c, 0, 71, 0
2, 20855, Note_on_c, 0, 56, 0
2, 20894, Note_on_c, 0, 71, 55
2, 20952, Note_on_c, 0, 63, 0
2, 21077, Note_on_c, 0, 68, 58
2, 21080, Note_on_c, 0, 53, 51
2, 21086, Note_on_c, 0, 71, 0
2, 21129, Note_on_c, 0, 53, 0
2, 21233, Note_on_c, 0, 71, 55
2, 21274, Note_on_c, 0, 68, 0
2, 21391, Note_on_c, 0, 65, 54
2, 21405, Note_on_c, 0, 71, 0
2, 21419, Note_on_c, 0, 49, 51
2, 21471, Note_on_c, 0, 49, 0
2, 21545, Note_on_c, 0, 65, 0
2, 21557, Note_on_c, 0, 71, 52
2, 21755, Note_on_c, 0, 70, 55
2, 21757, Note_on_c, 0, 42, 46
2, 21840, Note_on_c, 0, 71, 0
2, 21905, Note_on_c, 0, 42, 0
2, 21917, Note_on_c, 0, 66, 54
2, 21925, Note_on_c, 0, 70, 0
2, 21929, Note_on_c, 0, 46, 54
2, 22071, Note_on_c, 0, 66, 0
2, 22084, Note_on_c, 0, 65, 55
2, 22097, Note_on_c, 0, 44, 58
2, 22097, Note_on_c, 0, 46, 0
2, 22243, Control_c, 0, 67, 122
2, 22246, Note_on_c, 0, 75, 64
2, 22255, Note_on_c, 0, 65, 0
2, 22257, Control_c, 0, 67, 109
2, 22259, Note_on_c, 0, 47, 65
2, 22272, Control_c, 0, 67, 94
2, 22288, Control_c, 0, 67, 75
2, 22303, Control_c, 0, 67, 44
2, 22319, Control_c, 0, 67, 10
2, 22333, Control_c, 0, 67, 0
2, 22351, Note_on_c, 0, 44, 0
2, 22402, Note_on_c, 0, 47, 0
2, 22412, Note_on_c, 0, 46, 68
2, 22412, Note_on_c, 0, 73, 63
2, 22429, Note_on_c, 0, 75, 0
2, 22580, Note_on_c, 0, 49, 69
2, 22584, Note_on_c, 0, 70, 65
2, 22584, Note_on_c, 0, 73, 0
2, 22585, Note_on_c, 0, 46, 0
2, 22726, Note_on_c, 0, 49, 0
2, 22735, Note_on_c, 0, 47, 61
2, 22741, Note_on_c, 0, 70, 0
2, 22754, Note_on_c, 0, 68, 70
2, 22888, Note_on_c, 0, 68, 0
2, 22895, Note_on_c, 0, 78, 72
2, 22904, Note_on_c, 0, 51, 70
2, 22955, Note_on_c, 0, 47, 0
2, 23023, Note_on_c, 0, 78, 0
2, 23058, Note_on_c, 0, 77, 72
2, 23060, Note_on_c, 0, 49, 70
2, 23087, Control_c, 0, 67, 32
2, 23102, Control_c, 0, 67, 98
2, 23117, Control_c, 0, 67, 127
2, 23126, Note_on_c, 0, 77, 0
2, 23130, Note_on_c, 0, 51, 0
2, 23132, Note_on_c, 0, 78, 69
2, 23201, Note_on_c, 0, 77, 76
2, 23233, Note_on_c, 0, 49, 0
2, 23260, Note_on_c, 0, 54, 43
2, 23300, Note_on_c, 0, 77, 0
2, 23302, Note_on_c, 0, 75, 74
2, 23325, Note_on_c, 0, 78, 0
2, 23404, Note_on_c, 0, 54, 0
2, 23417, Note_on_c, 0, 73, 75
2, 23417, Note_on_c, 0, 75, 0
2, 23435, Note_on_c, 0, 53, 54
2, 23601, Note_on_c, 0, 51, 59
2, 23615, Note_on_c, 0, 73, 0
2, 23638, Note_on_c, 0, 53, 0
2, 23758, Note_on_c, 0, 51, 0
2, 23768, Note_on_c, 0, 49, 58
2, 23891, Note_on_c, 0, 49, 0
2, 23922, Note_on_c, 0, 47, 55
2, 24098, Note_on_c, 0, 46, 57
2, 24170, Note_on_c, 0, 47, 0
2, 24265, Note_on_c, 0, 44, 53
2, 24308, Note_on_c, 0, 46, 0
2, 24430, Note_on_c, 0, 66, 51
2, 24436, Note_on_c, 0, 46, 52
2, 24500, Note_on_c, 0, 44, 0
2, 24527, Note_on_c, 0, 46, 0
2, 24568, Note_on_c, 0, 66, 0
2, 24596, Note_on_c, 0, 70, 57
2, 24680, Control_c, 0, 67, 104
2, 24696, Control_c, 0, 67, 74
2, 24711, Control_c, 0, 67, 51
2, 24727, Control_c, 0, 67, 37
2, 24749, Control_c, 0, 67, 25
2, 24765, Control_c, 0, 67, 12
2, 24766, Note_on_c, 0, 70, 0
2, 24772, Note_on_c, 0, 68, 64
2, 24780, Control_c, 0, 67, 0
2, 24786, Note_on_c, 0, 49, 58
2, 24854, Note_on_c, 0, 49, 0
2, 24932, Note_on_c, 0, 71, 78
2, 25061, Note_on_c, 0, 71, 0
2, 25090, Note_on_c, 0, 70, 73
2, 25106, Note_on_c, 0, 54, 67
2, 25149, Note_on_c, 0, 68, 0
2, 25180, Note_on_c, 0, 54, 0
2, 25253, Note_on_c, 0, 73, 80
2, 25270, Note_on_c, 0, 70, 0
2, 25412, Note_on_c, 0, 73, 0
2, 25425, Note_on_c, 0, 56, 71
2, 25425, Note_on_c, 0, 71, 83
2, 25457, Note_on_c, 0, 56, 0
2, 25593, Note_on_c, 0, 75, 80
2, 25640, Note_on_c, 0, 71, 0
2, 25762, Note_on_c, 0, 73, 87
2, 25772, Note_on_c, 0, 58, 71
2, 25849, Note_on_c, 0, 58, 0
2, 25928, Note_on_c, 0, 78, 80
2, 25930, Note_on_c, 0, 75, 0
2, 25961, Note_on_c, 0, 73, 0
2, 26086, Note_on_c, 0, 78, 0
2, 26093, Note_on_c, 0, 77, 81
2, 26096, Note_on_c, 0, 59, 70
2, 26172, Note_on_c, 0, 59, 0
2, 26247, Note_on_c, 0, 75, 84
2, 26284, Note_on_c, 0, 77, 0
2, 26427, Note_on_c, 0, 73, 80
2, 26436, Note_on_c, 0, 61, 68
2, 26502, Note_on_c, 0, 75, 0
2, 26503, Note_on_c, 0, 61, 0
2, 26585, Note_on_c, 0, 71, 76
2, 26599, Note_on_c, 0, 73, 0
2, 26750, Note_on_c, 0, 49, 59
2, 26750, Note_on_c, 0, 70, 76
2, 26786, Note_on_c, 0, 71, 0
2, 26796, Note_on_c, 0, 49, 0
2, 26918, Note_on_c, 0, 68, 69
2, 26922, Note_on_c, 0, 70, 0
2, 27094, Note_on_c, 0, 54, 72
2, 27094, Note_on_c, 0, 70, 76
2, 27140, Note_on_c, 0, 68, 0
2, 27141, Note_on_c, 0, 54, 0
2, 27249, Note_on_c, 0, 73, 78
2, 27271, Note_on_c, 0, 70, 0
2, 27376, Note_on_c, 0, 73, 0
2, 27404, Note_on_c, 0, 51, 73
2, 27407, Note_on_c, 0, 72, 83
2, 27445, Note_on_c, 0, 51, 0
2, 27548, Note_on_c, 0, 75, 83
2, 27604, Note_on_c, 0, 72, 0
2, 27716, Note_on_c, 0, 73, 86
2, 27731, Note_on_c, 0, 53, 58
2, 27767, Note_on_c, 0, 75, 0
2, 27847, Note_on_c, 0, 53, 0
2, 27875, Note_on_c, 0, 73, 0
2, 27878, Note_on_c, 0, 77, 85
2, 28038, Note_on_c, 0, 75, 87
2, 28043, Note_on_c, 0, 77, 0
2, 28061, Note_on_c, 0, 48, 72
2, 28119, Note_on_c, 0, 48, 0
2, 28196, Note_on_c, 0, 78, 87
2, 28205, Note_on_c, 0, 75, 0
2, 28334, Note_on_c, 0, 78, 0
2, 28361, Note_on_c, 0, 77, 85
2, 28378, Note_on_c, 0, 49, 68
2, 28423, Note_on_c, 0, 49, 0
2, 28532, Note_on_c, 0, 82, 84
2, 28548, Note_on_c, 0, 77, 0
2, 28710, Note_on_c, 0, 81, 83
2, 28722, Note_on_c, 0, 51, 73
2, 28776, Note_on_c, 0, 51, 0
2, 28777, Note_on_c, 0, 82, 0
2, 28871, Note_on_c, 0, 79, 89
2, 28921, Note_on_c, 0, 81, 0
2, 29016, Note_on_c, 0, 79, 0
2, 29023, Note_on_c, 0, 77, 84
2, 29046, Note_on_c, 0, 53, 61
2, 29127, Note_on_c, 0, 53, 0
2, 29168, Note_on_c, 0, 75, 73
2, 29220, Note_on_c, 0, 77, 0
2, 29332, Note_on_c, 0, 73, 70
2, 29339, Note_on_c, 0, 41, 51
2, 29374, Control_c, 0, 67, 12
2, 29387, Note_on_c, 0, 41, 0
2, 29389, Control_c, 0, 67, 33
2, 29405, Control_c, 0, 67, 59
2, 29405, Note_on_c, 0, 75, 0
2, 29420, Control_c, 0, 67, 81
2, 29434, Control_c, 0, 67, 102
2, 29450, Control_c, 0, 67, 124
2, 29465, Control_c, 0, 67, 127
2, 29497, Note_on_c, 0, 73, 0
2, 29498, Note_on_c, 0, 72, 67
2, 29678, Note_on_c, 0, 73, 64
2, 29682, Note_on_c, 0, 46, 50
2, 29694, Note_on_c, 0, 72, 0
2, 29791, Note_on_c, 0, 73, 0
2, 29813, Note_on_c, 0, 46, 0
2, 29845, Note_on_c, 0, 49, 55
2, 29978, Note_on_c, 0, 49, 0
2, 29985, Note_on_c, 0, 69, 67
2, 29990, Note_on_c, 0, 48, 53
2, 30062, Note_on_c, 0, 69, 0
2, 30158, Note_on_c, 0, 51, 70
2, 30174, Note_on_c, 0, 48, 0
2, 30320, Note_on_c, 0, 70, 81
2, 30323, Note_on_c, 0, 49, 65
2, 30326, Control_c, 0, 67, 108
2, 30340, Control_c, 0, 67, 73
2, 30355, Control_c, 0, 67, 33
2, 30371, Control_c, 0, 67, 0
2, 30387, Note_on_c, 0, 70, 0
2, 30393, Note_on_c, 0, 51, 0
2, 30462, Note_on_c, 0, 49, 0
2, 30489, Note_on_c, 0, 53, 75
2, 30640, Note_on_c, 0, 78, 85
2, 30642, Note_on_c, 0, 51, 69
2, 30674, Note_on_c, 0, 53, 0
2, 30725, Note_on_c, 0, 78, 0
2, 30799, Note_on_c, 0, 54, 77
2, 30869, Note_on_c, 0, 51, 0
2, 30960, Note_on_c, 0, 53, 73
2, 30963, Note_on_c, 0, 69, 72
2, 30995, Note_on_c, 0, 54, 0
2, 31045, Note_on_c, 0, 69, 0
2, 31046, Note_on_c, 0, 67, 73
2, 31048, Control_c, 0, 67, 29
2, 31063, Control_c, 0, 67, 79
2, 31079, Control_c, 0, 67, 127
2, 31084, Note_on_c, 0, 53, 0
2, 31094, Control_c, 0, 67, 127
2, 31106, Note_on_c, 0, 67, 0
2, 31125, Note_on_c, 0, 58, 67
2, 31125, Note_on_c, 0, 65, 70
2, 31281, Note_on_c, 0, 58, 0
2, 31312, Note_on_c, 0, 75, 71
2, 31318, Note_on_c, 0, 57, 53
2, 31358, Note_on_c, 0, 65, 0
2, 31407, Note_on_c, 0, 57, 0
2, 31469, Note_on_c, 0, 55, 62
2, 31485, Note_on_c, 0, 75, 0
2, 31619, Note_on_c, 0, 53, 57
2, 31632, Note_on_c, 0, 55, 0
2, 31760, Note_on_c, 0, 53, 0
2, 31799, Note_on_c, 0, 69, 67
2, 31806, Note_on_c, 0, 51, 60
2, 31876, Control_c, 0, 67, 116
2, 31891, Control_c, 0, 67, 90
2, 31906, Control_c, 0, 67, 52
2, 31922, Control_c, 0, 67, 0
2, 31945, Note_on_c, 0, 51, 0
2, 31956, Note_on_c, 0, 70, 75
2, 31968, Note_on_c, 0, 49, 65
2, 32029, Note_on_c, 0, 69, 0
2, 32118, Note_on_c, 0, 49, 0
2, 32122, Note_on_c, 0, 72, 80
2, 32133, Note_on_c, 0, 70, 0
2, 32134, Note_on_c, 0, 48, 64
2, 32288, Note_on_c, 0, 72, 0
2, 32289, Note_on_c, 0, 48, 0
2, 32292, Note_on_c, 0, 65, 75
2, 32295, Note_on_c, 0, 49, 51
2, 32476, Note_on_c, 0, 73, 70
2, 32485, Note_on_c, 0, 53, 51
2, 32497, Note_on_c, 0, 49, 0
2, 32577, Note_on_c, 0, 65, 0
2, 32585, Note_on_c, 0, 53, 0
2, 32603, Note_on_c, 0, 73, 0
2, 32631, Note_on_c, 0, 72, 70
2, 32635, Note_on_c, 0, 51, 58
2, 32764, Note_on_c, 0, 51, 0
2, 32782, Note_on_c, 0, 54, 62
2, 32792, Note_on_c, 0, 72, 0
2, 32801, Note_on_c, 0, 75, 77
2, 32905, Note_on_c, 0, 54, 0
2, 32936, Note_on_c, 0, 53, 72
2, 32945, Note_on_c, 0, 73, 81
2, 33029, Note_on_c, 0, 75, 0
2, 33081, Note_on_c, 0, 72, 69
2, 33107, Note_on_c, 0, 51, 74
2, 33143, Note_on_c, 0, 53, 0
2, 33182, Note_on_c, 0, 73, 0
2, 33267, Note_on_c, 0, 70, 81
2, 33270, Note_on_c, 0, 51, 0
2, 33273, Note_on_c, 0, 49, 71
2, 33344, Note_on_c, 0, 72, 0
2, 33416, Note_on_c, 0, 69, 76
2, 33420, Note_on_c, 0, 48, 72
2, 33439, Note_on_c, 0, 70, 0
2, 33458, Note_on_c, 0, 49, 0
2, 33576, Note_on_c, 0, 48, 0
2, 33582, Note_on_c, 0, 69, 0
2, 33589, Note_on_c, 0, 73, 80
2, 33595, Note_on_c, 0, 46, 65
2, 33744, Note_on_c, 0, 70, 72
2, 33756, Note_on_c, 0, 49, 65
2, 33760, Note_on_c, 0, 46, 0
2, 33790, Note_on_c, 0, 73, 0
2, 33894, Note_on_c, 0, 49, 0
2, 33906, Note_on_c, 0, 69, 77
2, 33909, Note_on_c, 0, 70, 0
2, 33922, Note_on_c, 0, 48, 69
2, 34070, Note_on_c, 0, 72, 80
2, 34087, Note_on_c, 0, 69, 0
2, 34089, Note_on_c, 0, 51, 72
2, 34092, Note_on_c, 0, 48, 0
2, 34231, Note_on_c, 0, 51, 0
2, 34242, Note_on_c, 0, 70, 79
2, 34245, Note_on_c, 0, 49, 71
2, 34255, Note_on_c, 0, 72, 0
2, 34286, Control_c, 0, 64, 16
2, 34301, Control_c, 0, 64, 53
2, 34316, Control_c, 0, 64, 62
2, 34332, Control_c, 0, 64, 68
2, 34346, Control_c, 0, 64, 77
2, 34358, Note_on_c, 0, 49, 0
2, 34362, Control_c, 0, 64, 92
2, 34377, Control_c, 0, 64, 127
2, 34382, Note_on_c, 0, 70, 0
2, 34398, Note_on_c, 0, 68, 80
2, 34403, Note_on_c, 0, 48, 80
2, 34548, Note_on_c, 0, 68, 0
2, 34551, Note_on_c, 0, 66, 80
2, 34568, Note_on_c, 0, 46, 79
2, 34583, Note_on_c, 0, 48, 0
2, 34588, Control_c, 0, 64, 100
2, 34603, Control_c, 0, 64, 80
2, 34619, Control_c, 0, 64, 68
2, 34634, Control_c, 0, 64, 57
2, 34649, Control_c, 0, 64, 0
2, 34717, Note_on_c, 0, 65, 78
2, 34731, Note_on_c, 0, 44, 77
2, 34771, Note_on_c, 0, 46, 0
2, 34776, Note_on_c, 0, 66, 0
2, 34914, Note_on_c, 0, 65, 0
2, 34917, Note_on_c, 0, 63, 80
2, 34920, Note_on_c, 0, 44, 0
2, 34942, Note_on_c, 0, 43, 70
2, 35086, Note_on_c, 0, 73, 79
2, 35092, Note_on_c, 0, 43, 0
2, 35099, Note_on_c, 0, 46, 73
2, 35136, Note_on_c, 0, 63, 0
2, 35226, Note_on_c, 0, 46, 0
2, 35247, Note_on_c, 0, 72, 80
2, 35247, Note_on_c, 0, 73, 0
2, 35253, Note_on_c, 0, 45, 76
2, 35381, Note_on_c, 0, 45, 0
2, 35397, Note_on_c, 0, 48, 75
2, 35400, Note_on_c, 0, 75, 89
2, 35409, Note_on_c, 0, 72, 0
2, 35560, Note_on_c, 0, 73, 82
2, 35572, Note_on_c, 0, 48, 0
2, 35576, Note_on_c, 0, 46, 75
2, 35617, Note_on_c, 0, 75, 0
2, 35620, Control_c, 0, 64, 32
2, 35635, Control_c, 0, 64, 53
2, 35650, Control_c, 0, 64, 62
2, 35666, Control_c, 0, 64, 67
2, 35681, Control_c, 0, 64, 77
2, 35697, Control_c, 0, 64, 110
2, 35708, Note_on_c, 0, 72, 87
2, 35711, Control_c, 0, 64, 127
2, 35722, Note_on_c, 0, 44, 79
2, 35745, Note_on_c, 0, 46, 0
2, 35828, Note_on_c, 0, 44, 0
2, 35853, Note_on_c, 0, 73, 0
2, 35867, Note_on_c, 0, 43, 79
2, 35871, Note_on_c, 0, 70, 81
2, 35884, Note_on_c, 0, 72, 0
2, 35939, Control_c, 0, 64, 92
2, 35953, Control_c, 0, 64, 69
2, 35968, Control_c, 0, 64, 44
2, 35984, Control_c, 0, 64, 0
2, 35994, Note_on_c, 0, 43, 0
2, 36015, Note_on_c, 0, 70, 0
2, 36020, Note_on_c, 0, 69, 85
2, 36029, Note_on_c, 0, 41, 86
2, 36231, Note_on_c, 0, 41, 0
2, 36234, Note_on_c, 0, 40, 85
2, 36236, Note_on_c, 0, 79, 88
2, 36250, Note_on_c, 0, 69, 0
2, 36283, Control_c, 0, 64, 8
2, 36299, Control_c, 0, 64, 53
2, 36314, Control_c, 0, 64, 66
2, 36321, Note_on_c, 0, 40, 0
2, 36330, Control_c, 0, 64, 84
2, 36344, Control_c, 0, 64, 127
2, 36415, Note_on_c, 0, 73, 89
2, 36438, Note_on_c, 0, 79, 0
2, 36481, Control_c, 0, 64, 116
2, 36497, Control_c, 0, 64, 69
2, 36512, Control_c, 0, 64, 0
2, 36575, Note_on_c, 0, 69, 84
2, 36585, Note_on_c, 0, 73, 0
2, 36591, Note_on_c, 0, 52, 82
2, 36668, Note_on_c, 0, 52, 0
2, 36679, Control_c, 0, 64, 60
2, 36695, Control_c, 0, 64, 74
2, 36710, Control_c, 0, 64, 127
2, 36743, Note_on_c, 0, 70, 86
2, 36813, Note_on_c, 0, 69, 0
2, 36847, Control_c, 0, 64, 71
2, 36862, Control_c, 0, 64, 0
2, 36891, Note_on_c, 0, 70, 0
2, 36892, Control_c, 0, 64, 55
2, 36897, Note_on_c, 0, 81, 88
2, 36907, Control_c, 0, 64, 68
2, 36922, Control_c, 0, 64, 92
2, 36937, Note_on_c, 0, 81, 0
2, 36938, Control_c, 0, 64, 127
2, 37055, Note_on_c, 0, 82, 80
2, 37067, Note_on_c, 0, 54, 78
2, 37125, Note_on_c, 0, 82, 0
2, 37134, Note_on_c, 0, 81, 83
2, 37158, Note_on_c, 0, 54, 0
2, 37189, Control_c, 0, 64, 91
2, 37195, Note_on_c, 0, 53, 72
2, 37201, Note_on_c, 0, 82, 85
2, 37203, Note_on_c, 0, 81, 0
2, 37205, Control_c, 0, 64, 70
2, 37220, Control_c, 0, 64, 53
2, 37235, Control_c, 0, 64, 0
2, 37270, Note_on_c, 0, 81, 85
2, 37293, Note_on_c, 0, 82, 0
2, 37344, Note_on_c, 0, 81, 0
2, 37355, Note_on_c, 0, 53, 0
2, 37358, Note_on_c, 0, 79, 84
2, 37389, Note_on_c, 0, 51, 74
2, 37439, Note_on_c, 0, 81, 85
2, 37468, Note_on_c, 0, 79, 0
2, 37547, Note_on_c, 0, 82, 86
2, 37548, Note_on_c, 0, 81, 0
2, 37566, Note_on_c, 0, 49, 75
2, 37618, Note_on_c, 0, 51, 0
2, 37703, Note_on_c, 0, 49, 0
2, 37720, Note_on_c, 0, 80, 79
2, 37740, Note_on_c, 0, 48, 71
2, 37773, Note_on_c, 0, 82, 0
2, 37784, Note_on_c, 0, 78, 85
2, 37833, Note_on_c, 0, 80, 0
2, 37870, Note_on_c, 0, 77, 85
2, 37883, Note_on_c, 0, 49, 73
2, 37910, Note_on_c, 0, 78, 0
2, 37921, Note_on_c, 0, 48, 0
2, 38031, Note_on_c, 0, 75, 87
2, 38044, Note_on_c, 0, 51, 79
2, 38067, Note_on_c, 0, 77, 0
2, 38086, Note_on_c, 0, 49, 0
2, 38179, Note_on_c, 0, 51, 0
2, 38202, Note_on_c, 0, 53, 75
2, 38205, Note_on_c, 0, 73, 92
2, 38358, Note_on_c, 0, 75, 0
2, 38368, Note_on_c, 0, 82, 93
2, 38379, Note_on_c, 0, 54, 72
2, 38384, Control_c, 0, 64, 37
2, 38400, Control_c, 0, 64, 55
2, 38401, Note_on_c, 0, 73, 0
2, 38413, Note_on_c, 0, 53, 0
2, 38415, Control_c, 0, 64, 61
2, 38430, Control_c, 0, 64, 63
2, 38445, Control_c, 0, 64, 67
2, 38460, Control_c, 0, 64, 75
2, 38475, Control_c, 0, 64, 91
2, 38490, Control_c, 0, 64, 127
2, 38518, Note_on_c, 0, 54, 0
2, 38528, Note_on_c, 0, 72, 81
2, 38541, Note_on_c, 0, 51, 80
2, 38646, Note_on_c, 0, 72, 0
2, 38646, Note_on_c, 0, 82, 0
2, 38680, Note_on_c, 0, 51, 0
2, 38696, Note_on_c, 0, 81, 69
2, 38701, Note_on_c, 0, 53, 85
2, 38742, Control_c, 0, 64, 93
2, 38758, Control_c, 0, 64, 66
2, 38773, Control_c, 0, 64, 0
2, 38868, Note_on_c, 0, 53, 0
2, 38887, Note_on_c, 0, 54, 96
2, 38896, Note_on_c, 0, 82, 85
2, 38918, Note_on_c, 0, 81, 0
2, 38924, Control_c, 0, 64, 55
2, 38933, Note_on_c, 0, 54, 0
2, 38939, Control_c, 0, 64, 68
2, 38948, Note_on_c, 0, 83, 32
2, 38954, Control_c, 0, 64, 115
2, 38970, Control_c, 0, 64, 127
2, 38984, Note_on_c, 0, 83, 0
2, 39040, Note_on_c, 0, 82, 0
2, 39057, Note_on_c, 0, 70, 83
2, 39092, Control_c, 0, 64, 85
2, 39107, Control_c, 0, 64, 60
2, 39123, Control_c, 0, 64, 0
2, 39236, Note_on_c, 0, 42, 85
2, 39241, Note_on_c, 0, 75, 77
2, 39244, Control_c, 0, 64, 60
2, 39259, Control_c, 0, 64, 72
2, 39260, Note_on_c, 0, 70, 0
2, 39269, Note_on_c, 0, 42, 0
2, 39274, Control_c, 0, 64, 127
2, 39314, Note_on_c, 0, 73, 80
2, 39389, Note_on_c, 0, 75, 0
2, 39392, Note_on_c, 0, 72, 80
2, 39431, Control_c, 0, 64, 97
2, 39432, Note_on_c, 0, 73, 0
2, 39448, Control_c, 0, 64, 72
2, 39462, Control_c, 0, 64, 47
2, 39477, Control_c, 0, 64, 0
2, 39570, Note_on_c, 0, 41, 88
2, 39573, Note_on_c, 0, 73, 85
2, 39588, Note_on_c, 0, 72, 0
2, 39616, Note_on_c, 0, 41, 0
2, 39630, Control_c, 0, 64, 55
2, 39645, Control_c, 0, 64, 67
2, 39660, Control_c, 0, 64, 87
2, 39675, Control_c, 0, 64, 127
2, 39729, Note_on_c, 0, 72, 67
2, 39781, Control_c, 0, 64, 96
2, 39796, Control_c, 0, 64, 70
2, 39812, Control_c, 0, 64, 40
2, 39827, Control_c, 0, 64, 0
2, 39829, Note_on_c, 0, 70, 76
2, 39833, Note_on_c, 0, 73, 0
2, 39866, Note_on_c, 0, 72, 0
2, 39916, Note_on_c, 0, 69, 83
2, 39918, Note_on_c, 0, 70, 0
2, 39935, Note_on_c, 0, 39, 82
2, 39948, Control_c, 0, 64, 48
2, 39963, Control_c, 0, 64, 62
2, 39963, Note_on_c, 0, 39, 0
2, 39979, Control_c, 0, 64, 70
2, 39994, Control_c, 0, 64, 112
2, 40010, Control_c, 0, 64, 127
2, 40013, Note_on_c, 0, 70, 84
2, 40024, Note_on_c, 0, 69, 0
2, 40104, Note_on_c, 0, 72, 85
2, 40123, Control_c, 0, 64, 83
2, 40129, Note_on_c, 0, 70, 0
2, 40138, Control_c, 0, 64, 62
2, 40153, Control_c, 0, 64, 0
2, 40263, Note_on_c, 0, 72, 0
2, 40282, Note_on_c, 0, 65, 81
2, 40285, Note_on_c, 0, 37, 84
2, 40291, Control_c, 0, 64, 39
2, 40306, Control_c, 0, 64, 61
2, 40316, Note_on_c, 0, 37, 0
2, 40321, Control_c, 0, 64, 66
2, 40337, Control_c, 0, 64, 76
2, 40352, Control_c, 0, 64, 127
2, 40374, Note_on_c, 0, 70, 84
2, 40401, Note_on_c, 0, 65, 0
2, 40457, Note_on_c, 0, 68, 79
2, 40505, Control_c, 0, 64, 111
2, 40520, Control_c, 0, 64, 81
2, 40520, Note_on_c, 0, 70, 0
2, 40536, Control_c, 0, 64, 66
2, 40541, Note_on_c, 0, 66, 78
2, 40551, Control_c, 0, 64, 37
2, 40566, Control_c, 0, 64, 0
2, 40602, Note_on_c, 0, 68, 0
2, 40634, Note_on_c, 0, 65, 88
2, 40639, Note_on_c, 0, 49, 68
2, 40665, Note_on_c, 0, 66, 0
2, 40795, Note_on_c, 0, 63, 86
2, 40805, Note_on_c, 0, 51, 85
2, 40826, Note_on_c, 0, 49, 0
2, 40845, Note_on_c, 0, 65, 0
2, 40974, Note_on_c, 0, 51, 0
2, 40979, Note_on_c, 0, 53, 87
2, 40979, Note_on_c, 0, 61, 91
2, 41048, Note_on_c, 0, 63, 0
2, 41060, Note_on_c, 0, 53, 0
2, 41153, Note_on_c, 0, 60, 82
2, 41158, Note_on_c, 0, 61, 0
2, 41251, Note_on_c, 0, 61, 87
2, 41253, Note_on_c, 0, 60, 0
2, 41322, Note_on_c, 0, 41, 78
2, 41337, Note_on_c, 0, 63, 86
2, 41359, Note_on_c, 0, 41, 0
2, 41365, Note_on_c, 0, 61, 0
2, 41440, Note_on_c, 0, 61, 93
2, 41490, Note_on_c, 0, 63, 0
2, 41552, Note_on_c, 0, 60, 90
2, 41596, Note_on_c, 0, 61, 0
2, 41808, Note_on_c, 0, 58, 90
2, 41817, Note_on_c, 0, 60, 0
2, 41818, Note_on_c, 0, 46, 79
2, 42073, Note_on_c, 0, 61, 84
2, 42271, Note_on_c, 0, 65, 82
2, 42274, Note_on_c, 0, 61, 0
2, 42444, Control_c, 0, 64, 20
2, 42459, Control_c, 0, 64, 55
2, 42474, Control_c, 0, 64, 62
2, 42476, Note_on_c, 0, 69, 79
2, 42480, Note_on_c, 0, 65, 0
2, 42490, Control_c, 0, 64, 65
2, 42495, Note_on_c, 0, 58, 0
2, 42500, Note_on_c, 0, 68, 14
2, 42505, Control_c, 0, 64, 69
2, 42508, Note_on_c, 0, 68, 0
2, 42519, Note_on_c, 0, 69, 0
2, 42520, Control_c, 0, 64, 78
2, 42535, Control_c, 0, 64, 92
2, 42550, Control_c, 0, 64, 117
2, 42566, Control_c, 0, 64, 127
2, 42779, Control_c, 0, 64, 119
2, 42785, Note_on_c, 0, 69, 84
2, 42794, Control_c, 0, 64, 94
2, 42810, Control_c, 0, 64, 79
2, 42824, Control_c, 0, 64, 67
2, 42840, Control_c, 0, 64, 53
2, 42855, Control_c, 0, 64, 0
2, 43313, Note_on_c, 0, 70, 76
2, 43345, Note_on_c, 0, 69, 0
2, 43364, Control_c, 0, 64, 43
2, 43379, Control_c, 0, 64, 54
2, 43394, Control_c, 0, 64, 61
2, 43410, Control_c, 0, 64, 65
2, 43425, Control_c, 0, 64, 73
2, 43440, Control_c, 0, 64, 89
2, 43455, Control_c, 0, 64, 127
2, 43468, Note_on_c, 0, 70, 0
2, 43548, Control_c, 0, 67, 10
2, 43563, Note_on_c, 0, 46, 0
2, 43564, Control_c, 0, 67, 49
2, 43579, Control_c, 0, 67, 84
2, 43593, Control_c, 0, 67, 114
2, 43609, Control_c, 0, 67, 127
2, 43996, Control_c, 0, 64, 106
2, 44008, Note_on_c, 0, 80, 57
2, 44011, Control_c, 0, 64, 95
2, 44011, Note_on_c, 0, 46, 46
2, 44026, Control_c, 0, 64, 88
2, 44042, Control_c, 0, 64, 82
2, 44057, Control_c, 0, 64, 72
2, 44072, Control_c, 0, 64, 64
2, 44088, Control_c, 0, 64, 49
2, 44103, Control_c, 0, 64, 0
2, 44198, Note_on_c, 0, 46, 0
2, 44213, Note_on_c, 0, 77, 60
2, 44239, Note_on_c, 0, 50, 52
2, 44280, Note_on_c, 0, 80, 0
2, 44303, Note_on_c, 0, 74, 61
2, 44304, Note_on_c, 0, 77, 0
2, 44381, Note_on_c, 0, 70, 54
2, 44383, Note_on_c, 0, 74, 0
2, 44400, Note_on_c, 0, 50, 0
2, 44405, Note_on_c, 0, 48, 52
2, 44583, Note_on_c, 0, 51, 55
2, 44644, Note_on_c, 0, 48, 0
2, 44745, Note_on_c, 0, 51, 0
2, 44750, Note_on_c, 0, 50, 55
2, 44859, Note_on_c, 0, 50, 0
2, 44905, Note_on_c, 0, 74, 59
2, 44907, Note_on_c, 0, 53, 59
2, 44922, Note_on_c, 0, 70, 0
2, 44964, Note_on_c, 0, 74, 0
2, 44974, Note_on_c, 0, 77, 69
2, 45051, Note_on_c, 0, 78, 73
2, 45052, Control_c, 0, 67, 86
2, 45054, Note_on_c, 0, 77, 0
2, 45060, Note_on_c, 0, 53, 0
2, 45067, Control_c, 0, 67, 24
2, 45083, Control_c, 0, 67, 0
2, 45088, Note_on_c, 0, 51, 55
2, 45124, Note_on_c, 0, 77, 64
2, 45201, Note_on_c, 0, 78, 0
2, 45207, Note_on_c, 0, 77, 0
2, 45218, Note_on_c, 0, 75, 70
2, 45247, Note_on_c, 0, 54, 63
2, 45311, Note_on_c, 0, 51, 0
2, 45358, Note_on_c, 0, 75, 0
2, 45375, Note_on_c, 0, 54, 0
2, 45382, Note_on_c, 0, 74, 71
2, 45406, Note_on_c, 0, 53, 58
2, 45530, Note_on_c, 0, 53, 0
2, 45545, Control_c, 0, 67, 32
2, 45559, Control_c, 0, 67, 79
2, 45575, Control_c, 0, 67, 127
2, 45577, Note_on_c, 0, 56, 52
2, 45577, Note_on_c, 0, 74, 0
2, 45577, Note_on_c, 0, 77, 70
2, 45648, Note_on_c, 0, 77, 0
2, 45655, Note_on_c, 0, 80, 69
2, 45751, Note_on_c, 0, 80, 0
2, 45758, Note_on_c, 0, 83, 69
2, 45769, Note_on_c, 0, 56, 0
2, 45782, Note_on_c, 0, 54, 55
2, 45904, Note_on_c, 0, 54, 0
2, 45959, Note_on_c, 0, 53, 25
2, 46147, Note_on_c, 0, 51, 52
2, 46171, Note_on_c, 0, 53, 0
2, 46273, Note_on_c, 0, 51, 0
2, 46279, Note_on_c, 0, 83, 0
2, 46310, Note_on_c, 0, 50, 55
2, 46317, Note_on_c, 0, 77, 63
2, 46391, Note_on_c, 0, 77, 0
2, 46406, Note_on_c, 0, 75, 66
2, 46457, Note_on_c, 0, 50, 0
2, 46470, Note_on_c, 0, 77, 65
2, 46478, Note_on_c, 0, 48, 57
2, 46492, Note_on_c, 0, 75, 0
2, 46552, Note_on_c, 0, 78, 79
2, 46558, Note_on_c, 0, 77, 0
2, 46636, Note_on_c, 0, 80, 81
2, 46639, Note_on_c, 0, 78, 0
2, 46647, Note_on_c, 0, 46, 55
2, 46687, Note_on_c, 0, 48, 0
2, 46791, Note_on_c, 0, 46, 0
2, 46824, Note_on_c, 0, 78, 75
2, 46829, Note_on_c, 0, 51, 65
2, 46852, Note_on_c, 0, 80, 0
2, 46904, Note_on_c, 0, 51, 0
2, 46992, Note_on_c, 0, 77, 79
2, 47021, Control_c, 0, 67, 113
2, 47036, Control_c, 0, 67, 83
2, 47051, Control_c, 0, 67, 41
2, 47066, Control_c, 0, 67, 0
2, 47170, Note_on_c, 0, 54, 78
2, 47170, Note_on_c, 0, 75, 75
2, 47194, Note_on_c, 0, 78, 0
2, 47205, Note_on_c, 0, 77, 0
2, 47214, Note_on_c, 0, 54, 0
2, 47328, Note_on_c, 0, 74, 74
2, 47338, Note_on_c, 0, 75, 0
2, 47494, Note_on_c, 0, 75, 73
2, 47500, Note_on_c, 0, 60, 79
2, 47525, Note_on_c, 0, 74, 0
2, 47540, Note_on_c, 0, 60, 0
2, 47661, Note_on_c, 0, 78, 77
2, 47680, Note_on_c, 0, 75, 0
2, 47833, Note_on_c, 0, 68, 74
2, 47839, Note_on_c, 0, 78, 0
2, 47861, Note_on_c, 0, 53, 46
2, 47898, Note_on_c, 0, 53, 0
2, 48009, Note_on_c, 0, 78, 65
2, 48063, Control_c, 0, 67, 40
2, 48078, Control_c, 0, 67, 77
2, 48091, Note_on_c, 0, 68, 0
2, 48093, Control_c, 0, 67, 110
2, 48108, Control_c, 0, 67, 127
2, 48174, Note_on_c, 0, 75, 73
2, 48180, Note_on_c, 0, 54, 68
2, 48202, Note_on_c, 0, 78, 0
2, 48226, Note_on_c, 0, 54, 0
2, 48345, Note_on_c, 0, 78, 67
2, 48390, Note_on_c, 0, 75, 0
2, 48509, Note_on_c, 0, 70, 70
2, 48515, Note_on_c, 0, 63, 52
2, 48551, Note_on_c, 0, 78, 0
2, 48632, Note_on_c, 0, 63, 0
2, 48678, Note_on_c, 0, 78, 65
2, 48770, Note_on_c, 0, 70, 0
2, 48832, Note_on_c, 0, 60, 54
2, 48835, Note_on_c, 0, 75, 61
2, 48846, Note_on_c, 0, 78, 0
2, 48896, Note_on_c, 0, 60, 0
2, 48992, Note_on_c, 0, 78, 58
2, 49008, Note_on_c, 0, 75, 0
2, 49116, Note_on_c, 0, 78, 0
2, 49160, Note_on_c, 0, 72, 62
2, 49170, Note_on_c, 0, 56, 57
2, 49213, Note_on_c, 0, 56, 0
2, 49326, Note_on_c, 0, 72, 0
2, 49335, Note_on_c, 0, 78, 62
2, 49492, Note_on_c, 0, 73, 63
2, 49504, Note_on_c, 0, 59, 47
2, 49552, Control_c, 0, 64, 29
2, 49560, Note_on_c, 0, 78, 0
2, 49568, Control_c, 0, 64, 52
2, 49582, Control_c, 0, 64, 60
2, 49597, Control_c, 0, 64, 64
2, 49597, Note_on_c, 0, 59, 0
2, 49613, Control_c, 0, 64, 67
2, 49621, Note_on_c, 0, 73, 0
2, 49628, Control_c, 0, 64, 72
2, 49643, Control_c, 0, 64, 80
2, 49645, Note_on_c, 0, 56, 53
2, 49647, Note_on_c, 0, 77, 67
2, 49659, Control_c, 0, 64, 92
2, 49674, Control_c, 0, 64, 105
2, 49689, Note_on_c, 0, 53, 69
2, 49690, Control_c, 0, 64, 127
2, 49692, Note_on_c, 0, 56, 0
2, 49735, Note_on_c, 0, 77, 0
2, 49777, Note_on_c, 0, 53, 0
2, 49780, Control_c, 0, 64, 121
2, 49795, Control_c, 0, 64, 103
2, 49798, Note_on_c, 0, 49, 68
2, 49798, Note_on_c, 0, 75, 74
2, 49811, Control_c, 0, 64, 88
2, 49826, Control_c, 0, 64, 75
2, 49840, Control_c, 0, 64, 64
2, 49856, Control_c, 0, 64, 30
2, 49871, Control_c, 0, 64, 0
2, 49877, Note_on_c, 0, 49, 0
2, 49944, Note_on_c, 0, 75, 0
2, 49968, Note_on_c, 0, 78, 72
2, 50135, Note_on_c, 0, 78, 0
2, 50139, Note_on_c, 0, 77, 69
2, 50292, Note_on_c, 0, 80, 73
2, 50297, Note_on_c, 0, 53, 52
2, 50304, Note_on_c, 0, 77, 0
2, 50320, Control_c, 0, 64, 39
2, 50336, Control_c, 0, 64, 51
2, 50343, Note_on_c, 0, 53, 0
2, 50350, Control_c, 0, 64, 55
2, 50350, Note_on_c, 0, 56, 65
2, 50366, Control_c, 0, 64, 58
2, 50381, Control_c, 0, 64, 62
2, 50393, Note_on_c, 0, 56, 0
2, 50396, Control_c, 0, 64, 64
2, 50412, Control_c, 0, 64, 65
2, 50435, Note_on_c, 0, 58, 66
2, 50440, Note_on_c, 0, 78, 76
2, 50457, Control_c, 0, 64, 65
2, 50472, Control_c, 0, 64, 63
2, 50488, Control_c, 0, 64, 59
2, 50503, Control_c, 0, 64, 46
2, 50506, Note_on_c, 0, 56, 72
2, 50506, Note_on_c, 0, 80, 0
2, 50508, Note_on_c, 0, 58, 0
2, 50517, Control_c, 0, 64, 0
2, 50579, Note_on_c, 0, 56, 0
2, 50594, Note_on_c, 0, 54, 68
2, 50595, Note_on_c, 0, 78, 0
2, 50596, Note_on_c, 0, 82, 77
2, 50755, Note_on_c, 0, 54, 0
2, 50770, Note_on_c, 0, 80, 75
2, 50795, Note_on_c, 0, 53, 44
2, 50802, Note_on_c, 0, 82, 0
2, 50896, Note_on_c, 0, 53, 0
2, 50941, Note_on_c, 0, 80, 0
2, 50942, Note_on_c, 0, 83, 79
2, 50955, Note_on_c, 0, 56, 60
2, 51009, Note_on_c, 0, 56, 0
2, 51014, Note_on_c, 0, 59, 62
2, 51100, Note_on_c, 0, 82, 75
2, 51103, Note_on_c, 0, 59, 0
2, 51109, Note_on_c, 0, 63, 70
2, 51138, Note_on_c, 0, 83, 0
2, 51280, Note_on_c, 0, 80, 69
2, 51300, Note_on_c, 0, 82, 0
2, 51361, Control_c, 0, 64, 27
2, 51377, Control_c, 0, 64, 49
2, 51391, Control_c, 0, 64, 55
2, 51407, Control_c, 0, 64, 58
2, 51422, Control_c, 0, 64, 61
2, 51437, Control_c, 0, 64, 64
2, 51437, Note_on_c, 0, 78, 73
2, 51452, Control_c, 0, 64, 69
2, 51460, Note_on_c, 0, 80, 0
2, 51467, Control_c, 0, 64, 75
2, 51482, Control_c, 0, 64, 83
2, 51498, Control_c, 0, 64, 90
2, 51513, Control_c, 0, 64, 92
2, 51528, Control_c, 0, 64, 93
2, 51580, Note_on_c, 0, 78, 0
2, 51591, Note_on_c, 0, 77, 71
2, 51605, Note_on_c, 0, 56, 52
2, 51625, Note_on_c, 0, 63, 0
2, 51646, Note_on_c, 0, 56, 0
2, 51652, Note_on_c, 0, 54, 70
2, 51688, Control_c, 0, 64, 92
2, 51703, Control_c, 0, 64, 91
2, 51718, Control_c, 0, 64, 88
2, 51729, Note_on_c, 0, 56, 67
2, 51735, Control_c, 0, 64, 84
2, 51739, Note_on_c, 0, 54, 0
2, 51746, Note_on_c, 0, 75, 74
2, 51750, Control_c, 0, 64, 79
2, 51765, Control_c, 0, 64, 75
2, 51780, Control_c, 0, 64, 69
2, 51782, Note_on_c, 0, 77, 0
2, 51795, Control_c, 0, 64, 63
2, 51811, Control_c, 0, 64, 48
2, 51814, Note_on_c, 0, 58, 64
2, 51815, Note_on_c, 0, 56, 0
2, 51826, Control_c, 0, 64, 0
2, 51902, Note_on_c, 0, 73, 76
2, 51904, Note_on_c, 0, 58, 0
2, 51915, Note_on_c, 0, 59, 62
2, 51938, Note_on_c, 0, 75, 0
2, 52099, Note_on_c, 0, 78, 70
2, 52111, Note_on_c, 0, 73, 0
2, 52126, Note_on_c, 0, 59, 0
2, 52134, Note_on_c, 0, 58, 56
2, 52288, Note_on_c, 0, 71, 75
2, 52306, Note_on_c, 0, 58, 0
2, 52308, Note_on_c, 0, 56, 66
2, 52327, Control_c, 0, 64, 33
2, 52342, Control_c, 0, 64, 51
2, 52356, Control_c, 0, 64, 57
2, 52372, Control_c, 0, 64, 60
2, 52395, Control_c, 0, 64, 62
2, 52395, Note_on_c, 0, 78, 0
2, 52411, Control_c, 0, 64, 63
2, 52426, Control_c, 0, 64, 64
2, 52426, Control_c, 0, 67, 115
2, 52440, Control_c, 0, 64, 67
2, 52440, Control_c, 0, 67, 66
2, 52456, Control_c, 0, 64, 70
2, 52456, Control_c, 0, 67, 0
2, 52456, Note_on_c, 0, 70, 80
2, 52458, Note_on_c, 0, 56, 0
2, 52468, Note_on_c, 0, 54, 67
2, 52471, Control_c, 0, 64, 72
2, 52480, Note_on_c, 0, 71, 0
2, 52593, Control_c, 0, 64, 71
2, 52602, Note_on_c, 0, 54, 0
2, 52609, Control_c, 0, 64, 70
2, 52611, Note_on_c, 0, 68, 84
2, 52618, Note_on_c, 0, 70, 0
2, 52624, Control_c, 0, 64, 68
2, 52629, Note_on_c, 0, 53, 63
2, 52639, Control_c, 0, 64, 65
2, 52655, Control_c, 0, 64, 62
2, 52670, Control_c, 0, 64, 49
2, 52685, Control_c, 0, 64, 0
2, 52778, Note_on_c, 0, 70, 88
2, 52786, Note_on_c, 0, 53, 0
2, 52800, Note_on_c, 0, 54, 53
2, 52952, Note_on_c, 0, 54, 0
2, 52957, Note_on_c, 0, 68, 0
2, 52985, Note_on_c, 0, 76, 80
2, 53013, Note_on_c, 0, 58, 54
2, 53019, Note_on_c, 0, 70, 0
2, 53125, Control_c, 0, 67, 30
2, 53140, Control_c, 0, 67, 86
2, 53162, Control_c, 0, 67, 127
2, 53178, Note_on_c, 0, 58, 0
2, 53190, Note_on_c, 0, 47, 54
2, 53339, Note_on_c, 0, 58, 57
2, 53345, Note_on_c, 0, 75, 70
2, 53360, Note_on_c, 0, 76, 0
2, 53496, Note_on_c, 0, 47, 0
2, 53505, Note_on_c, 0, 73, 80
2, 53514, Control_c, 0, 67, 108
2, 53527, Note_on_c, 0, 54, 64
2, 53527, Note_on_c, 0, 58, 0
2, 53530, Control_c, 0, 67, 70
2, 53543, Note_on_c, 0, 75, 0
2, 53545, Control_c, 0, 67, 20
2, 53559, Control_c, 0, 67, 0
2, 53664, Note_on_c, 0, 54, 0
2, 53670, Note_on_c, 0, 78, 85
2, 53695, Note_on_c, 0, 58, 52
2, 53707, Note_on_c, 0, 73, 0
2, 53831, Note_on_c, 0, 49, 73
2, 53835, Note_on_c, 0, 58, 0
2, 54013, Note_on_c, 0, 58, 67
2, 54013, Note_on_c, 0, 76, 78
2, 54042, Note_on_c, 0, 78, 0
2, 54099, Control_c, 0, 64, 25
2, 54113, Note_on_c, 0, 76, 0
2, 54114, Control_c, 0, 64, 46
2, 54129, Control_c, 0, 64, 55
2, 54144, Control_c, 0, 64, 60
2, 54156, Note_on_c, 0, 75, 82
2, 54159, Control_c, 0, 64, 64
2, 54169, Note_on_c, 0, 54, 73
2, 54174, Note_on_c, 0, 49, 0
2, 54175, Control_c, 0, 64, 68
2, 54191, Control_c, 0, 64, 75
2, 54207, Control_c, 0, 64, 86
2, 54217, Note_on_c, 0, 58, 0
2, 54221, Control_c, 0, 64, 93
2, 54236, Control_c, 0, 64, 94
2, 54292, Note_on_c, 0, 54, 0
2, 54312, Control_c, 0, 64, 93
2, 54315, Note_on_c, 0, 78, 88
2, 54328, Control_c, 0, 64, 88
2, 54331, Note_on_c, 0, 58, 78
2, 54331, Note_on_c, 0, 75, 0
2, 54343, Control_c, 0, 64, 81
2, 54358, Control_c, 0, 64, 74
2, 54373, Control_c, 0, 64, 66
2, 54388, Control_c, 0, 64, 57
2, 54403, Control_c, 0, 64, 0
2, 54503, Note_on_c, 0, 83, 82
2, 54505, Note_on_c, 0, 78, 0
2, 54509, Note_on_c, 0, 51, 69
2, 54521, Note_on_c, 0, 58, 0
2, 54667, Note_on_c, 0, 58, 63
2, 54669, Note_on_c, 0, 79, 72
2, 54709, Note_on_c, 0, 51, 0
2, 54734, Note_on_c, 0, 83, 0
2, 54791, Control_c, 0, 67, 35
2, 54807, Control_c, 0, 67, 66
2, 54822, Control_c, 0, 67, 94
2, 54836, Control_c, 0, 67, 116
2, 54852, Control_c, 0, 67, 127
2, 54862, Note_on_c, 0, 80, 72
2, 54866, Note_on_c, 0, 52, 63
2, 54868, Note_on_c, 0, 58, 0
2, 54869, Note_on_c, 0, 79, 0
2, 54992, Note_on_c, 0, 80, 0
2, 55020, Note_on_c, 0, 76, 76
2, 55025, Note_on_c, 0, 52, 0
2, 55038, Note_on_c, 0, 56, 63
2, 55166, Note_on_c, 0, 56, 0
2, 55183, Note_on_c, 0, 75, 77
2, 55192, Note_on_c, 0, 54, 67
2, 55201, Note_on_c, 0, 76, 0
2, 55314, Note_on_c, 0, 54, 0
2, 55347, Note_on_c, 0, 75, 0
2, 55347, Note_on_c, 0, 78, 72
2, 55353, Note_on_c, 0, 57, 60
2, 55520, Note_on_c, 0, 76, 78
2, 55529, Control_c, 0, 67, 120
2, 55535, Note_on_c, 0, 56, 68
2, 55543, Control_c, 0, 67, 96
2, 55558, Control_c, 0, 67, 63
2, 55559, Note_on_c, 0, 57, 0
2, 55574, Control_c, 0, 67, 26
2, 55577, Note_on_c, 0, 78, 0
2, 55589, Control_c, 0, 67, 0
2, 55676, Note_on_c, 0, 75, 85
2, 55688, Note_on_c, 0, 54, 72
2, 55691, Note_on_c, 0, 56, 0
2, 55740, Note_on_c, 0, 76, 0
2, 55804, Note_on_c, 0, 54, 0
2, 55838, Note_on_c, 0, 52, 71
2, 55844, Note_on_c, 0, 73, 85
2, 55952, Note_on_c, 0, 75, 0
2, 56002, Note_on_c, 0, 72, 72
2, 56028, Note_on_c, 0, 73, 0
2, 56029, Note_on_c, 0, 51, 66
2, 56058, Note_on_c, 0, 52, 0
2, 56061, Control_c, 0, 67, 20
2, 56076, Control_c, 0, 67, 76
2, 56092, Control_c, 0, 67, 122
2, 56106, Control_c, 0, 67, 127
2, 56182, Note_on_c, 0, 51, 0
2, 56244, Note_on_c, 0, 76, 65
2, 56259, Note_on_c, 0, 49, 56
2, 56260, Note_on_c, 0, 72, 0
2, 56303, Note_on_c, 0, 49, 0
2, 56415, Note_on_c, 0, 73, 64
2, 56467, Note_on_c, 0, 76, 0
2, 56566, Note_on_c, 0, 73, 0
2, 56572, Note_on_c, 0, 71, 66
2, 56587, Note_on_c, 0, 52, 69
2, 56619, Note_on_c, 0, 52, 0
2, 56739, Note_on_c, 0, 75, 70
2, 56779, Note_on_c, 0, 71, 0
2, 56882, Note_on_c, 0, 58, 64
2, 56889, Note_on_c, 0, 73, 71
2, 56938, Note_on_c, 0, 75, 0
2, 56948, Note_on_c, 0, 56, 70
2, 56953, Note_on_c, 0, 58, 0
2, 57015, Note_on_c, 0, 56, 0
2, 57020, Note_on_c, 0, 71, 67
2, 57023, Note_on_c, 0, 73, 0
2, 57054, Note_on_c, 0, 58, 65
2, 57217, Note_on_c, 0, 70, 62
2, 57263, Note_on_c, 0, 71, 0
2, 57402, Note_on_c, 0, 68, 65
2, 57412, Note_on_c, 0, 70, 0
2, 57573, Note_on_c, 0, 67, 80
2, 57584, Note_on_c, 0, 68, 0
2, 57629, Note_on_c, 0, 67, 0
2, 57714, Note_on_c, 0, 55, 71
2, 57719, Control_c, 0, 67, 124
2, 57735, Control_c, 0, 67, 97
2, 57749, Control_c, 0, 67, 59
2, 57773, Control_c, 0, 67, 9
2, 57786, Note_on_c, 0, 58, 0
2, 57788, Control_c, 0, 67, 0
2, 57888, Note_on_c, 0, 55, 0
2, 57893, Note_on_c, 0, 70, 83
2, 57903, Note_on_c, 0, 56, 73
2, 57936, Note_on_c, 0, 70, 0
2, 58066, Note_on_c, 0, 53, 64
2, 58071, Note_on_c, 0, 56, 0
2, 58201, Note_on_c, 0, 53, 0
2, 58208, Note_on_c, 0, 75, 71
2, 58219, Note_on_c, 0, 55, 66
2, 58290, Note_on_c, 0, 73, 75
2, 58297, Note_on_c, 0, 55, 0
2, 58317, Note_on_c, 0, 75, 0
2, 58342, Note_on_c, 0, 58, 70
2, 58356, Note_on_c, 0, 75, 75
2, 58358, Note_on_c, 0, 73, 0
2, 58497, Note_on_c, 0, 58, 0
2, 58551, Note_on_c, 0, 51, 62
2, 58699, Note_on_c, 0, 51, 0
2, 58722, Note_on_c, 0, 49, 70
2, 58879, Note_on_c, 0, 49, 0
2, 58894, Note_on_c, 0, 47, 80
2, 58956, Note_on_c, 0, 47, 0
2, 59076, Note_on_c, 0, 71, 76
2, 59152, Note_on_c, 0, 75, 0
2, 59231, Note_on_c, 0, 73, 84
2, 59233, Note_on_c, 0, 51, 80
2, 59265, Note_on_c, 0, 51, 0
2, 59270, Note_on_c, 0, 71, 0
2, 59395, Note_on_c, 0, 70, 85
2, 59506, Note_on_c, 0, 73, 0
2, 59518, Note_on_c, 0, 70, 0
2, 59549, Note_on_c, 0, 71, 76
2, 59556, Note_on_c, 0, 56, 63
2, 59628, Note_on_c, 0, 55, 70
2, 59659, Note_on_c, 0, 56, 0
2, 59684, Note_on_c, 0, 55, 0
2, 59705, Note_on_c, 0, 71, 0
2, 59711, Note_on_c, 0, 75, 86
2, 59718, Note_on_c, 0, 56, 67
2, 59869, Note_on_c, 0, 68, 81
2, 59977, Control_c, 0, 64, 55
2, 59992, Control_c, 0, 64, 64
2, 59999, Note_on_c, 0, 75, 0
2, 60008, Control_c, 0, 64, 76
2, 60023, Control_c, 0, 64, 127
2, 60023, Note_on_c, 0, 66, 88
2, 60028, Note_on_c, 0, 68, 0
2, 60050, Note_on_c, 0, 66, 0
2, 60228, Control_c, 0, 64, 86
2, 60237, Note_on_c, 0, 64, 90
2, 60243, Control_c, 0, 64, 68
2, 60258, Control_c, 0, 64, 49
2, 60273, Control_c, 0, 64, 0
2, 60340, Note_on_c, 0, 64, 0
2, 60397, Note_on_c, 0, 54, 70
2, 60448, Note_on_c, 0, 56, 0
2, 60550, Note_on_c, 0, 52, 74
2, 60551, Note_on_c, 0, 68, 84
2, 60554, Note_on_c, 0, 54, 0
2, 60601, Note_on_c, 0, 68, 0
2, 60687, Note_on_c, 0, 52, 0
2, 60702, Note_on_c, 0, 51, 74
2, 60879, Note_on_c, 0, 52, 66
2, 60879, Note_on_c, 0, 73, 72
2, 60898, Note_on_c, 0, 51, 0
2, 60954, Note_on_c, 0, 71, 76
2, 60973, Note_on_c, 0, 73, 0
2, 60991, Note_on_c, 0, 52, 0
2, 61027, Note_on_c, 0, 56, 75
2, 61035, Note_on_c, 0, 71, 0
2, 61038, Note_on_c, 0, 73, 83
2, 61218, Note_on_c, 0, 49, 70
2, 61248, Note_on_c, 0, 56, 0
2, 61376, Note_on_c, 0, 49, 0
2, 61387, Note_on_c, 0, 47, 78
2, 61571, Note_on_c, 0, 46, 83
2, 61582, Note_on_c, 0, 47, 0
2, 61738, Note_on_c, 0, 46, 0
2, 61738, Note_on_c, 0, 56, 71
2, 61751, Note_on_c, 0, 64, 73
2, 61839, Note_on_c, 0, 73, 0
2, 61901, Note_on_c, 0, 55, 74
2, 61912, Note_on_c, 0, 56, 0
2, 61913, Note_on_c, 0, 63, 84
2, 61921, Note_on_c, 0, 64, 0
2, 62071, Note_on_c, 0, 62, 85
2, 62075, Note_on_c, 0, 53, 76
2, 62099, Note_on_c, 0, 63, 0
2, 62102, Note_on_c, 0, 55, 0
2, 62240, Note_on_c, 0, 63, 90
2, 62247, Note_on_c, 0, 62, 0
2, 62250, Note_on_c, 0, 53, 0
2, 62252, Note_on_c, 0, 55, 77
2, 62341, Control_c, 0, 64, 41
2, 62355, Control_c, 0, 64, 55
2, 62367, Note_on_c, 0, 55, 0
2, 62379, Control_c, 0, 64, 61
2, 62394, Control_c, 0, 64, 64
2, 62410, Control_c, 0, 64, 68
2, 62418, Note_on_c, 0, 58, 80
2, 62425, Control_c, 0, 64, 74
2, 62440, Control_c, 0, 64, 82
2, 62455, Control_c, 0, 64, 90
2, 62470, Control_c, 0, 64, 91
2, 62545, Note_on_c, 0, 58, 0
2, 62546, Control_c, 0, 64, 90
2, 62561, Control_c, 0, 64, 85
2, 62577, Control_c, 0, 64, 78
2, 62591, Control_c, 0, 64, 70
2, 62591, Note_on_c, 0, 51, 76
2, 62607, Control_c, 0, 64, 62
2, 62622, Control_c, 0, 64, 35
2, 62637, Control_c, 0, 64, 0
2, 62724, Note_on_c, 0, 51, 0
2, 62741, Note_on_c, 0, 70, 87
2, 62746, Note_on_c, 0, 49, 69
2, 62790, Note_on_c, 0, 63, 0
2, 62888, Note_on_c, 0, 49, 0
2, 62915, Note_on_c, 0, 47, 82
2, 62923, Note_on_c, 0, 75, 83
2, 62932, Note_on_c, 0, 70, 0
2, 63031, Note_on_c, 0, 47, 0
2, 63075, Note_on_c, 0, 73, 71
2, 63087, Note_on_c, 0, 75, 0
2, 63170, Note_on_c, 0, 71, 75
2, 63172, Note_on_c, 0, 73, 0
2, 63241, Note_on_c, 0, 52, 63
2, 63247, Note_on_c, 0, 70, 84
2, 63248, Note_on_c, 0, 71, 0
2, 63279, Note_on_c, 0, 52, 0
2, 63321, Note_on_c, 0, 71, 88
2, 63342, Note_on_c, 0, 70, 0
2, 63406, Note_on_c, 0, 73, 93
2, 63419, Note_on_c, 0, 71, 0
2, 63573, Note_on_c, 0, 73, 0
2, 63576, Note_on_c, 0, 71, 91
2, 63583, Note_on_c, 0, 49, 75
2, 63686, Note_on_c, 0, 49, 0
2, 63724, Control_c, 0, 64, 50
2, 63729, Note_on_c, 0, 71, 0
2, 63735, Note_on_c, 0, 80, 92
2, 63740, Control_c, 0, 64, 58
2, 63755, Control_c, 0, 64, 61
2, 63771, Control_c, 0, 64, 63
2, 63785, Control_c, 0, 64, 65
2, 63800, Control_c, 0, 64, 69
2, 63816, Control_c, 0, 64, 79
2, 63830, Control_c, 0, 64, 91
2, 63846, Control_c, 0, 64, 96
2, 63891, Note_on_c, 0, 51, 79
2, 63897, Note_on_c, 0, 70, 79
2, 63930, Control_c, 0, 64, 95
2, 63945, Control_c, 0, 64, 93
2, 63955, Note_on_c, 0, 51, 0
2, 63960, Control_c, 0, 64, 91
2, 64018, Note_on_c, 0, 80, 0
2, 64053, Control_c, 0, 64, 89
2, 64067, Control_c, 0, 64, 86
2, 64073, Note_on_c, 0, 79, 93
2, 64082, Control_c, 0, 64, 81
2, 64088, Note_on_c, 0, 70, 0
2, 64098, Control_c, 0, 64, 73
2, 64113, Control_c, 0, 64, 64
2, 64129, Control_c, 0, 64, 47
2, 64143, Control_c, 0, 64, 0
2, 64278, Note_on_c, 0, 80, 89
2, 64292, Note_on_c, 0, 44, 80
2, 64301, Note_on_c, 0, 79, 0
2, 64311, Control_c, 0, 64, 54
2, 64327, Control_c, 0, 64, 60
2, 64342, Control_c, 0, 64, 65
2, 64349, Note_on_c, 0, 44, 0
2, 64356, Control_c, 0, 64, 82
2, 64372, Control_c, 0, 64, 127
2, 64451, Note_on_c, 0, 76, 85
2, 64454, Note_on_c, 0, 80, 0
2, 64506, Control_c, 0, 64, 117
2, 64521, Control_c, 0, 64, 79
2, 64537, Control_c, 0, 64, 62
2, 64552, Control_c, 0, 64, 0
2, 64603, Note_on_c, 0, 76, 0
2, 64606, Note_on_c, 0, 75, 85
2, 64618, Note_on_c, 0, 46, 87
2, 64712, Note_on_c, 0, 46, 0
2, 64781, Note_on_c, 0, 73, 86
2, 64785, Note_on_c, 0, 75, 0
2, 64911, Note_on_c, 0, 73, 0
2, 64939, Note_on_c, 0, 75, 79
2, 64945, Note_on_c, 0, 47, 85
2, 65030, Note_on_c, 0, 47, 0
2, 65106, Note_on_c, 0, 68, 77
2, 65153, Note_on_c, 0, 75, 0
2, 65276, Note_on_c, 0, 67, 80
2, 65279, Note_on_c, 0, 68, 0
2, 65285, Note_on_c, 0, 46, 81
2, 65334, Note_on_c, 0, 46, 0
2, 65450, Note_on_c, 0, 73, 82
2, 65454, Note_on_c, 0, 67, 0
2, 65617, Note_on_c, 0, 71, 79
2, 65623, Note_on_c, 0, 44, 63
2, 65662, Note_on_c, 0, 44, 0
2, 65674, Note_on_c, 0, 73, 0
2, 65780, Note_on_c, 0, 70, 85
2, 65826, Note_on_c, 0, 71, 0
2, 65946, Note_on_c, 0, 68, 84
2, 65952, Note_on_c, 0, 47, 75
2, 66010, Note_on_c, 0, 47, 0
2, 66042, Note_on_c, 0, 70, 0
2, 66105, Note_on_c, 0, 67, 92
2, 66125, Note_on_c, 0, 68, 0
2, 66278, Note_on_c, 0, 68, 81
2, 66294, Note_on_c, 0, 53, 71
2, 66330, Note_on_c, 0, 67, 0
2, 66336, Note_on_c, 0, 53, 0
2, 66443, Note_on_c, 0, 71, 79
2, 66456, Note_on_c, 0, 68, 0
2, 66653, Note_on_c, 0, 61, 81
2, 66679, Note_on_c, 0, 46, 53
2, 66713, Note_on_c, 0, 71, 0
2, 66787, Note_on_c, 0, 46, 0
2, 66843, Note_on_c, 0, 71, 67
2, 66953, Note_on_c, 0, 61, 0
2, 67000, Note_on_c, 0, 71, 0
2, 67013, Note_on_c, 0, 68, 71
2, 67016, Note_on_c, 0, 47, 78
2, 67087, Note_on_c, 0, 47, 0
2, 67186, Note_on_c, 0, 71, 79
2, 67209, Note_on_c, 0, 68, 0
2, 67347, Note_on_c, 0, 63, 83
2, 67349, Note_on_c, 0, 56, 74
2, 67421, Note_on_c, 0, 71, 0
2, 67515, Note_on_c, 0, 56, 0
2, 67527, Note_on_c, 0, 71, 84
2, 67563, Note_on_c, 0, 63, 0
2, 67693, Note_on_c, 0, 68, 80
2, 67698, Note_on_c, 0, 53, 79
2, 67709, Note_on_c, 0, 71, 0
2, 67783, Note_on_c, 0, 53, 0
2, 67863, Note_on_c, 0, 71, 85
2, 67887, Note_on_c, 0, 68, 0
2, 68020, Note_on_c, 0, 65, 86
2, 68046, Note_on_c, 0, 49, 74
2, 68080, Note_on_c, 0, 71, 0
2, 68145, Note_on_c, 0, 49, 0
2, 68190, Note_on_c, 0, 71, 78
2, 68294, Note_on_c, 0, 65, 0
2, 68370, Note_on_c, 0, 42, 67
2, 68373, Note_on_c, 0, 70, 78
2, 68414, Note_on_c, 0, 71, 0
2, 68493, Note_on_c, 0, 42, 0
2, 68538, Note_on_c, 0, 68, 83
2, 68564, Note_on_c, 0, 70, 0
2, 68703, Note_on_c, 0, 46, 77
2, 68707, Note_on_c, 0, 66, 86
2, 68817, Note_on_c, 0, 68, 0
2, 68826, Note_on_c, 0, 46, 0
2, 68869, Note_on_c, 0, 65, 82
2, 68896, Note_on_c, 0, 66, 0
2, 69031, Note_on_c, 0, 66, 82
2, 69045, Note_on_c, 0, 51, 69
2, 69091, Note_on_c, 0, 65, 0
2, 69165, Note_on_c, 0, 51, 0
2, 69200, Note_on_c, 0, 70, 76
2, 69229, Note_on_c, 0, 66, 0
2, 69389, Note_on_c, 0, 60, 83
2, 69415, Note_on_c, 0, 44, 51
2, 69466, Note_on_c, 0, 70, 0
2, 69534, Note_on_c, 0, 44, 0
2, 69574, Note_on_c, 0, 70, 80
2, 69627, Note_on_c, 0, 60, 0
2, 69733, Note_on_c, 0, 66, 75
2, 69743, Note_on_c, 0, 46, 71
2, 69766, Note_on_c, 0, 70, 0
2, 69843, Note_on_c, 0, 46, 0
2, 69892, Note_on_c, 0, 70, 74
2, 69941, Note_on_c, 0, 66, 0
2, 70063, Note_on_c, 0, 62, 78
2, 70101, Note_on_c, 0, 54, 53
2, 70113, Note_on_c, 0, 70, 0
2, 70183, Note_on_c, 0, 54, 0
2, 70231, Note_on_c, 0, 70, 71
2, 70283, Note_on_c, 0, 62, 0
2, 70399, Note_on_c, 0, 51, 68
2, 70403, Note_on_c, 0, 66, 70
2, 70422, Note_on_c, 0, 70, 0
2, 70486, Note_on_c, 0, 51, 0
2, 70567, Note_on_c, 0, 70, 62
2, 70591, Note_on_c, 0, 66, 0
2, 70728, Control_c, 0, 67, 11
2, 70728, Note_on_c, 0, 63, 69
2, 70742, Control_c, 0, 67, 38
2, 70757, Control_c, 0, 67, 59
2, 70760, Note_on_c, 0, 47, 49
2, 70772, Note_on_c, 0, 70, 0
2, 70773, Control_c, 0, 67, 72
2, 70788, Control_c, 0, 67, 82
2, 70800, Note_on_c, 0, 47, 0
2, 70803, Control_c, 0, 67, 93
2, 70826, Control_c, 0, 67, 100
2, 70841, Control_c, 0, 67, 107
2, 70857, Control_c, 0, 67, 112
2, 70872, Control_c, 0, 67, 116
2, 70888, Control_c, 0, 67, 122
2, 70898, Note_on_c, 0, 70, 70
2, 70902, Control_c, 0, 67, 127
2, 70963, Note_on_c, 0, 63, 0
2, 71068, Note_on_c, 0, 68, 66
2, 71082, Note_on_c, 0, 41, 49
2, 71114, Note_on_c, 0, 70, 0
2, 71170, Note_on_c, 0, 41, 0
2, 71243, Note_on_c, 0, 66, 66
2, 71250, Note_on_c, 0, 68, 0
2, 71400, Note_on_c, 0, 66, 0
2, 71414, Note_on_c, 0, 44, 50
2, 71415, Note_on_c, 0, 65, 61
2, 71475, Note_on_c, 0, 44, 0
2, 71581, Note_on_c, 0, 65, 0
2, 71593, Note_on_c, 0, 63, 63
2, 71750, Note_on_c, 0, 65, 57
2, 71769, Note_on_c, 0, 50, 48
2, 71799, Note_on_c, 0, 63, 0
2, 71855, Note_on_c, 0, 50, 0
2, 71901, Note_on_c, 0, 65, 0
2, 71926, Note_on_c, 0, 68, 55
2, 72100, Note_on_c, 0, 68, 0
2, 72103, Note_on_c, 0, 58, 63
2, 72136, Note_on_c, 0, 42, 44
2, 72227, Note_on_c, 0, 42, 0
2, 72278, Note_on_c, 0, 68, 51
2, 72373, Note_on_c, 0, 58, 0
2, 72421, Note_on_c, 0, 68, 0
2, 72439, Note_on_c, 0, 65, 62
2, 72446, Note_on_c, 0, 44, 57
2, 72497, Note_on_c, 0, 44, 0
2, 72598, Note_on_c, 0, 65, 0
2, 72609, Note_on_c, 0, 68, 57
2, 72730, Note_on_c, 0, 68, 0
2, 72775, Note_on_c, 0, 60, 64
2, 72796, Note_on_c, 0, 53, 42
2, 72953, Note_on_c, 0, 68, 57
2, 72964, Note_on_c, 0, 53, 0
2, 73009, Note_on_c, 0, 60, 0
2, 73107, Note_on_c, 0, 68, 0
2, 73111, Note_on_c, 0, 65, 58
2, 73135, Note_on_c, 0, 50, 47
2, 73219, Note_on_c, 0, 50, 0
2, 73286, Note_on_c, 0, 65, 0
2, 73298, Note_on_c, 0, 68, 54
2, 73453, Note_on_c, 0, 62, 56
2, 73463, Note_on_c, 0, 68, 0
2, 73473, Note_on_c, 0, 46, 47
2, 73480, Control_c, 0, 67, 127
2, 73495, Control_c, 0, 67, 125
2, 73510, Control_c, 0, 64, 50
2, 73510, Control_c, 0, 67, 123
2, 73523, Note_on_c, 0, 46, 0
2, 73526, Control_c, 0, 64, 58
2, 73526, Control_c, 0, 67, 122
2, 73541, Control_c, 0, 64, 62
2, 73541, Control_c, 0, 67, 120
2, 73556, Control_c, 0, 64, 64
2, 73556, Control_c, 0, 67, 119
2, 73571, Control_c, 0, 64, 67
2, 73571, Control_c, 0, 67, 119
2, 73586, Control_c, 0, 64, 72
2, 73586, Control_c, 0, 67, 118
2, 73601, Control_c, 0, 64, 78
2, 73601, Control_c, 0, 67, 118
2, 73609, Note_on_c, 0, 62, 0
2, 73616, Control_c, 0, 64, 84
2, 73616, Control_c, 0, 67, 116
2, 73622, Note_on_c, 0, 68, 53
2, 73631, Control_c, 0, 64, 88
2, 73631, Control_c, 0, 67, 115
2, 73647, Control_c, 0, 64, 92
2, 73647, Control_c, 0, 67, 114
2, 73662, Control_c, 0, 64, 95
2, 73662, Control_c, 0, 67, 113
2, 73677, Control_c, 0, 64, 97
2, 73677, Control_c, 0, 67, 112
2, 73677, Note_on_c, 0, 68, 0
2, 73693, Control_c, 0, 64, 98
2, 73693, Control_c, 0, 67, 109
2, 73708, Control_c, 0, 67, 104
2, 73722, Control_c, 0, 67, 100
2, 73738, Control_c, 0, 67, 98
2, 73784, Control_c, 0, 67, 99
2, 73814, Control_c, 0, 64, 96
2, 73814, Control_c, 0, 67, 100
2, 73829, Control_c, 0, 64, 91
2, 73829, Control_c, 0, 67, 100
2, 73838, Note_on_c, 0, 66, 57
2, 73846, Control_c, 0, 64, 84
2, 73846, Control_c, 0, 67, 101
2, 73861, Control_c, 0, 64, 74
2, 73861, Control_c, 0, 67, 101
2, 73865, Note_on_c, 0, 39, 44
2, 73876, Control_c, 0, 64, 67
2, 73899, Control_c, 0, 64, 59
2, 73914, Control_c, 0, 64, 31
2, 73929, Control_c, 0, 64, 0
2, 73959, Control_c, 0, 67, 102
2, 74021, Note_on_c, 0, 70, 58
2, 74033, Note_on_c, 0, 42, 56
2, 74057, Note_on_c, 0, 39, 0
2, 74096, Control_c, 0, 67, 101
2, 74111, Control_c, 0, 67, 100
2, 74127, Control_c, 0, 67, 99
2, 74128, Note_on_c, 0, 66, 0
2, 74142, Control_c, 0, 67, 97
2, 74157, Control_c, 0, 67, 95
2, 74173, Control_c, 0, 67, 88
2, 74176, Note_on_c, 0, 74, 55
2, 74177, Note_on_c, 0, 70, 0
2, 74188, Control_c, 0, 67, 71
2, 74194, Note_on_c, 0, 41, 61
2, 74202, Control_c, 0, 67, 45
2, 74218, Control_c, 0, 67, 21
2, 74233, Control_c, 0, 67, 0
2, 74258, Note_on_c, 0, 42, 0
2, 74329, Note_on_c, 0, 74, 0
2, 74347, Note_on_c, 0, 77, 63
2, 74350, Note_on_c, 0, 44, 68
2, 74377, Note_on_c, 0, 41, 0
2, 74495, Note_on_c, 0, 77, 0
2, 74500, Note_on_c, 0, 42, 70
2, 74516, Note_on_c, 0, 70, 63
2, 74629, Note_on_c, 0, 44, 0
2, 74667, Note_on_c, 0, 74, 68
2, 74671, Note_on_c, 0, 42, 0
2, 74674, Note_on_c, 0, 46, 71
2, 74701, Note_on_c, 0, 70, 0
2, 74830, Note_on_c, 0, 44, 74
2, 74836, Note_on_c, 0, 74, 0
2, 74836, Note_on_c, 0, 77, 75
2, 74881, Note_on_c, 0, 46, 0
2, 74972, Note_on_c, 0, 77, 0
2, 74988, Note_on_c, 0, 47, 68
2, 74992, Note_on_c, 0, 80, 67
2, 74999, Note_on_c, 0, 44, 0
2, 75137, Note_on_c, 0, 78, 72
2, 75157, Note_on_c, 0, 80, 0
2, 75167, Note_on_c, 0, 46, 65
2, 75175, Note_on_c, 0, 47, 0
2, 75222, Note_on_c, 0, 77, 62
2, 75250, Note_on_c, 0, 78, 0
2, 75289, Note_on_c, 0, 46, 0
2, 75318, Note_on_c, 0, 75, 69
2, 75336, Control_c, 0, 67, 33
2, 75345, Note_on_c, 0, 51, 52
2, 75351, Control_c, 0, 67, 101
2, 75361, Note_on_c, 0, 77, 0
2, 75367, Control_c, 0, 67, 127
2, 75466, Note_on_c, 0, 75, 0
2, 75487, Note_on_c, 0, 77, 71
2, 75514, Note_on_c, 0, 51, 0
2, 75524, Note_on_c, 0, 50, 64
2, 75617, Note_on_c, 0, 50, 0
2, 75654, Note_on_c, 0, 48, 62
2, 75712, Note_on_c, 0, 77, 0
2, 75826, Note_on_c, 0, 46, 64
2, 75851, Note_on_c, 0, 48, 0
2, 75984, Note_on_c, 0, 44, 63
2, 76095, Note_on_c, 0, 46, 0
2, 76156, Note_on_c, 0, 42, 65
2, 76187, Note_on_c, 0, 44, 0
2, 76233, Control_c, 0, 67, 127
2, 76249, Control_c, 0, 67, 103
2, 76264, Control_c, 0, 67, 63
2, 76279, Control_c, 0, 67, 20
2, 76294, Control_c, 0, 67, 0
2, 76330, Note_on_c, 0, 41, 57
2, 76333, Note_on_c, 0, 42, 0
2, 76494, Note_on_c, 0, 42, 50
2, 76494, Note_on_c, 0, 63, 50
2, 76552, Note_on_c, 0, 41, 0
2, 76649, Note_on_c, 0, 63, 0
2, 76654, Note_on_c, 0, 66, 64
2, 76674, Note_on_c, 0, 46, 56
2, 76800, Note_on_c, 0, 42, 0
2, 76817, Note_on_c, 0, 46, 0
2, 76824, Note_on_c, 0, 65, 69
2, 76826, Note_on_c, 0, 66, 0
2, 76858, Note_on_c, 0, 50, 54
2, 76996, Note_on_c, 0, 68, 70
2, 77009, Note_on_c, 0, 53, 61
2, 77027, Note_on_c, 0, 65, 0
2, 77047, Note_on_c, 0, 50, 0
2, 77169, Note_on_c, 0, 66, 79
2, 77181, Note_on_c, 0, 46, 63
2, 77199, Note_on_c, 0, 53, 0
2, 77202, Note_on_c, 0, 68, 0
2, 77304, Control_c, 0, 64, 42
2, 77319, Control_c, 0, 64, 56
2, 77333, Note_on_c, 0, 66, 0
2, 77333, Note_on_c, 0, 70, 84
2, 77335, Control_c, 0, 64, 61
2, 77350, Control_c, 0, 64, 63
2, 77353, Note_on_c, 0, 50, 71
2, 77365, Control_c, 0, 64, 66
2, 77380, Control_c, 0, 64, 71
2, 77395, Control_c, 0, 64, 78
2, 77396, Note_on_c, 0, 46, 0
2, 77410, Control_c, 0, 64, 86
2, 77425, Control_c, 0, 64, 91
2, 77474, Note_on_c, 0, 70, 0
2, 77486, Control_c, 0, 64, 89
2, 77501, Control_c, 0, 64, 84
2, 77503, Note_on_c, 0, 68, 86
2, 77505, Note_on_c, 0, 53, 69
2, 77516, Control_c, 0, 64, 77
2, 77527, Note_on_c, 0, 50, 0
2, 77531, Control_c, 0, 64, 69
2, 77547, Control_c, 0, 64, 62
2, 77562, Control_c, 0, 64, 24
2, 77577, Control_c, 0, 64, 0
2, 77651, Note_on_c, 0, 53, 0
2, 77651, Note_on_c, 0, 71, 88
2, 77666, Note_on_c, 0, 56, 66
2, 77685, Note_on_c, 0, 68, 0
2, 77801, Note_on_c, 0, 71, 0
2, 77819, Note_on_c, 0, 70, 82
2, 77827, Note_on_c, 0, 54, 70
2, 77830, Note_on_c, 0, 56, 0
2, 77893, Note_on_c, 0, 53, 63
2, 77906, Note_on_c, 0, 54, 0
2, 77981, Control_c, 0, 67, 13
2, 77994, Note_on_c, 0, 53, 0
2, 77996, Control_c, 0, 67, 49
2, 78004, Note_on_c, 0, 70, 0
2, 78004, Note_on_c, 0, 75, 69
2, 78006, Note_on_c, 0, 51, 58
2, 78011, Control_c, 0, 67, 87
2, 78026, Control_c, 0, 67, 113
2, 78041, Control_c, 0, 67, 127
2, 78179, Note_on_c, 0, 75, 0
2, 78181, Note_on_c, 0, 74, 67
2, 78197, Note_on_c, 0, 53, 52
2, 78204, Note_on_c, 0, 51, 0
2, 78338, Note_on_c, 0, 72, 69
2, 78355, Note_on_c, 0, 74, 0
2, 78386, Note_on_c, 0, 53, 0
2, 78523, Note_on_c, 0, 70, 69
2, 78562, Note_on_c, 0, 72, 0
2, 78686, Note_on_c, 0, 68, 66
2, 78695, Note_on_c, 0, 70, 0
2, 78749, Note_on_c, 0, 53, 6
2, 78764, Control_c, 0, 67, 116
2, 78780, Control_c, 0, 67, 99
2, 78781, Note_on_c, 0, 53, 0
2, 78794, Control_c, 0, 67, 76
2, 78809, Control_c, 0, 67, 49
2, 78827, Control_c, 0, 67, 21
2, 78842, Control_c, 0, 67, 0
2, 78842, Note_on_c, 0, 68, 0
2, 78843, Note_on_c, 0, 58, 56
2, 78843, Note_on_c, 0, 66, 60
2, 78943, Note_on_c, 0, 58, 0
2, 78985, Note_on_c, 0, 66, 0
2, 79009, Note_on_c, 0, 65, 65
2, 79171, Note_on_c, 0, 66, 69
2, 79187, Note_on_c, 0, 51, 52
2, 79205, Note_on_c, 0, 65, 0
2, 79259, Note_on_c, 0, 51, 0
2, 79340, Note_on_c, 0, 70, 77
2, 79356, Note_on_c, 0, 66, 0
2, 79507, Note_on_c, 0, 68, 80
2, 79511, Note_on_c, 0, 59, 65
2, 79595, Note_on_c, 0, 59, 0
2, 79613, Note_on_c, 0, 70, 0
2, 79663, Note_on_c, 0, 71, 86
2, 79669, Note_on_c, 0, 68, 0
2, 79831, Note_on_c, 0, 70, 72
2, 79856, Note_on_c, 0, 49, 53
2, 79865, Note_on_c, 0, 71, 0
2, 79917, Note_on_c, 0, 49, 0
2, 79991, Note_on_c, 0, 68, 71
2, 80014, Note_on_c, 0, 70, 0
2, 80161, Note_on_c, 0, 66, 70
2, 80171, Note_on_c, 0, 58, 55
2, 80229, Note_on_c, 0, 68, 0
2, 80240, Note_on_c, 0, 58, 0
2, 80317, Note_on_c, 0, 66, 0
2, 80327, Note_on_c, 0, 65, 72
2, 80501, Note_on_c, 0, 63, 73
2, 80518, Note_on_c, 0, 47, 60
2, 80540, Note_on_c, 0, 65, 0
2, 80595, Note_on_c, 0, 47, 0
2, 80655, Note_on_c, 0, 66, 75
2, 80657, Note_on_c, 0, 63, 0
2, 80817, Note_on_c, 0, 66, 0
2, 80828, Note_on_c, 0, 65, 76
2, 80837, Note_on_c, 0, 56, 71
2, 80893, Note_on_c, 0, 56, 0
2, 80997, Note_on_c, 0, 68, 80
2, 80998, Note_on_c, 0, 65, 0
2, 81182, Note_on_c, 0, 66, 67
2, 81205, Note_on_c, 0, 46, 51
2, 81247, Note_on_c, 0, 68, 0
2, 81280, Note_on_c, 0, 46, 0
2, 81347, Note_on_c, 0, 65, 65
2, 81507, Note_on_c, 0, 65, 0
2, 81508, Note_on_c, 0, 66, 0
2, 81513, Note_on_c, 0, 58, 61
2, 81518, Note_on_c, 0, 63, 63
2, 81584, Note_on_c, 0, 58, 0
2, 81667, Note_on_c, 0, 63, 0
2, 81687, Note_on_c, 0, 62, 68
2, 81856, Note_on_c, 0, 63, 62
2, 81865, Note_on_c, 0, 59, 45
2, 81902, Note_on_c, 0, 62, 0
2, 82011, Note_on_c, 0, 68, 66
2, 82026, Note_on_c, 0, 56, 61
2, 82095, Note_on_c, 0, 59, 0
2, 82113, Note_on_c, 0, 63, 0
2, 82180, Note_on_c, 0, 67, 72
2, 82185, Note_on_c, 0, 58, 67
2, 82195, Note_on_c, 0, 56, 0
2, 82216, Note_on_c, 0, 68, 0
2, 82332, Note_on_c, 0, 58, 0
2, 82333, Note_on_c, 0, 70, 76
2, 82353, Note_on_c, 0, 61, 73
2, 82354, Note_on_c, 0, 67, 0
2, 82496, Note_on_c, 0, 61, 0
2, 82498, Note_on_c, 0, 68, 75
2, 82509, Note_on_c, 0, 59, 80
2, 82543, Note_on_c, 0, 70, 0
2, 82659, Note_on_c, 0, 68, 0
2, 82661, Note_on_c, 0, 66, 77
2, 82677, Note_on_c, 0, 58, 76
2, 82729, Note_on_c, 0, 59, 0
2, 82830, Note_on_c, 0, 65, 78
2, 82835, Note_on_c, 0, 58, 0
2, 82840, Note_on_c, 0, 56, 69
2, 82867, Note_on_c, 0, 66, 0
2, 82981, Note_on_c, 0, 56, 0
2, 82988, Note_on_c, 0, 63, 77
2, 82989, Note_on_c, 0, 65, 0
2, 82994, Note_on_c, 0, 59, 67
2, 83138, Note_on_c, 0, 63, 0
2, 83171, Note_on_c, 0, 62, 74
2, 83178, Note_on_c, 0, 58, 72
2, 83236, Note_on_c, 0, 59, 0
2, 83315, Note_on_c, 0, 65, 76
2, 83346, Note_on_c, 0, 53, 67
2, 83358, Note_on_c, 0, 62, 0
2, 83370, Note_on_c, 0, 58, 0
2, 83489, Note_on_c, 0, 63, 84
2, 83491, Note_on_c, 0, 65, 0
2, 83496, Note_on_c, 0, 53, 0
2, 83498, Note_on_c, 0, 54, 74
2, 83646, Note_on_c, 0, 66, 82
2, 83656, Note_on_c, 0, 54, 0
2, 83657, Note_on_c, 0, 58, 69
2, 83667, Note_on_c, 0, 63, 0
2, 83794, Note_on_c, 0, 58, 0
2, 83811, Note_on_c, 0, 65, 79
2, 83816, Note_on_c, 0, 56, 73
2, 83975, Note_on_c, 0, 63, 85
2, 83985, Note_on_c, 0, 54, 75
2, 84007, Note_on_c, 0, 66, 0
2, 84068, Note_on_c, 0, 65, 0
2, 84088, Note_on_c, 0, 56, 0
2, 84104, Note_on_c, 0, 54, 0
2, 84135, Note_on_c, 0, 63, 0
2, 84137, Note_on_c, 0, 62, 82
2, 84142, Note_on_c, 0, 53, 63
2, 84262, Note_on_c, 0, 53, 0
2, 84296, Note_on_c, 0, 60, 75
2, 84299, Note_on_c, 0, 62, 0
2, 84304, Note_on_c, 0, 56, 61
2, 84429, Note_on_c, 0, 56, 0
2, 84476, Note_on_c, 0, 54, 61
2, 84481, Note_on_c, 0, 58, 72
2, 84501, Note_on_c, 0, 60, 0
2, 84585, Note_on_c, 0, 58, 0
2, 84621, Note_on_c, 0, 54, 0
2, 84643, Note_on_c, 0, 50, 72
2, 84802, Note_on_c, 0, 70, 83
2, 84829, Note_on_c, 0, 51, 69
2, 84869, Note_on_c, 0, 50, 0
2, 84906, Note_on_c, 0, 70, 0
2, 84975, Note_on_c, 0, 51, 0
2, 84979, Note_on_c, 0, 54, 78
2, 85153, Note_on_c, 0, 68, 72
2, 85172, Note_on_c, 0, 58, 64
2, 85175, Note_on_c, 0, 54, 0
2, 85284, Note_on_c, 0, 58, 0
2, 85322, Note_on_c, 0, 66, 72
2, 85346, Note_on_c, 0, 68, 0
2, 85480, Note_on_c, 0, 66, 0
2, 85490, Note_on_c, 0, 65, 64
2, 85500, Note_on_c, 0, 46, 63
2, 85572, Note_on_c, 0, 46, 0
2, 85664, Note_on_c, 0, 66, 70
2, 85671, Note_on_c, 0, 65, 0
2, 85791, Note_on_c, 0, 66, 0
2, 85821, Note_on_c, 0, 63, 77
2, 85845, Note_on_c, 0, 61, 52
2, 85956, Note_on_c, 0, 61, 0
2, 85994, Note_on_c, 0, 58, 56
2, 86007, Note_on_c, 0, 67, 72
2, 86019, Note_on_c, 0, 63, 0
2, 86050, Note_on_c, 0, 55, 63
2, 86062, Note_on_c, 0, 58, 0
2, 86141, Note_on_c, 0, 55, 0
2, 86170, Note_on_c, 0, 51, 57
2, 86173, Note_on_c, 0, 65, 77
2, 86193, Note_on_c, 0, 67, 0
2, 86334, Note_on_c, 0, 65, 0
2, 86343, Note_on_c, 0, 68, 79
2, 86417, Control_c, 0, 64, 41
2, 86432, Control_c, 0, 64, 56
2, 86447, Control_c, 0, 64, 62
2, 86462, Control_c, 0, 64, 64
2, 86464, Note_on_c, 0, 68, 0
2, 86477, Control_c, 0, 64, 65
2, 86493, Control_c, 0, 64, 67
2, 86499, Note_on_c, 0, 67, 84
2, 86508, Control_c, 0, 64, 69
2, 86524, Control_c, 0, 64, 74
2, 86538, Control_c, 0, 64, 79
2, 86553, Control_c, 0, 64, 84
2, 86569, Control_c, 0, 64, 86
2, 86584, Control_c, 0, 64, 87
2, 86620, Note_on_c, 0, 51, 0
2, 86658, Note_on_c, 0, 70, 79
2, 86673, Note_on_c, 0, 55, 65
2, 86675, Control_c, 0, 64, 86
2, 86691, Control_c, 0, 64, 82
2, 86698, Note_on_c, 0, 67, 0
2, 86706, Control_c, 0, 64, 76
2, 86721, Control_c, 0, 64, 70
2, 86736, Control_c, 0, 64, 64
2, 86737, Note_on_c, 0, 55, 0
2, 86751, Control_c, 0, 64, 50
2, 86756, Note_on_c, 0, 58, 65
2, 86767, Control_c, 0, 64, 0
2, 86804, Note_on_c, 0, 58, 0
2, 86818, Note_on_c, 0, 59, 72
2, 86826, Note_on_c, 0, 68, 79
2, 86862, Note_on_c, 0, 70, 0
2, 86885, Note_on_c, 0, 59, 0
2, 86914, Note_on_c, 0, 58, 67
2, 86990, Note_on_c, 0, 71, 88
2, 86995, Note_on_c, 0, 68, 0
2, 87000, Note_on_c, 0, 56, 76
2, 87010, Note_on_c, 0, 58, 0
2, 87152, Note_on_c, 0, 70, 82
2, 87172, Note_on_c, 0, 56, 0
2, 87172, Note_on_c, 0, 71, 0
2, 87191, Note_on_c, 0, 55, 56
2, 87307, Note_on_c, 0, 55, 0
2, 87324, Note_on_c, 0, 73, 85
2, 87332, Note_on_c, 0, 58, 66
2, 87335, Note_on_c, 0, 70, 0
2, 87401, Note_on_c, 0, 61, 74
2, 87402, Note_on_c, 0, 58, 0
2, 87474, Note_on_c, 0, 71, 82
2, 87483, Note_on_c, 0, 61, 0
2, 87488, Note_on_c, 0, 64, 78
2, 87511, Note_on_c, 0, 73, 0
2, 87651, Note_on_c, 0, 70, 79
2, 87679, Note_on_c, 0, 71, 0
2, 87830, Note_on_c, 0, 68, 79
2, 87844, Control_c, 0, 64, 39
2, 87860, Control_c, 0, 64, 53
2, 87874, Control_c, 0, 64, 58
2, 87887, Note_on_c, 0, 70, 0
2, 87890, Control_c, 0, 64, 61
2, 87905, Control_c, 0, 64, 63
2, 87920, Control_c, 0, 64, 65
2, 87935, Control_c, 0, 64, 69
2, 87950, Control_c, 0, 64, 73
2, 87956, Note_on_c, 0, 64, 0
2, 87956, Note_on_c, 0, 68, 0
2, 87965, Control_c, 0, 64, 77
2, 87970, Note_on_c, 0, 67, 81
2, 87972, Note_on_c, 0, 58, 67
2, 87981, Control_c, 0, 64, 80
2, 87996, Control_c, 0, 64, 83
2, 88011, Control_c, 0, 64, 84
2, 88026, Control_c, 0, 64, 84
2, 88035, Note_on_c, 0, 58, 0
2, 88055, Note_on_c, 0, 56, 67
2, 88057, Control_c, 0, 64, 85
2, 88115, Note_on_c, 0, 67, 0
2, 88116, Note_on_c, 0, 58, 63
2, 88120, Note_on_c, 0, 65, 72
2, 88127, Note_on_c, 0, 56, 0
2, 88148, Control_c, 0, 64, 84
2, 88163, Control_c, 0, 64, 82
2, 88179, Control_c, 0, 64, 79
2, 88183, Note_on_c, 0, 58, 0
2, 88192, Note_on_c, 0, 59, 67
2, 88194, Control_c, 0, 64, 73
2, 88209, Control_c, 0, 64, 66
2, 88224, Control_c, 0, 64, 57
2, 88239, Control_c, 0, 64, 0
2, 88267, Note_on_c, 0, 59, 0
2, 88283, Note_on_c, 0, 65, 0
2, 88289, Note_on_c, 0, 61, 67
2, 88309, Note_on_c, 0, 63, 71
2, 88520, Note_on_c, 0, 53, 41
2, 88536, Note_on_c, 0, 75, 75
2, 88578, Note_on_c, 0, 63, 0
2, 88638, Note_on_c, 0, 61, 0
2, 88695, Note_on_c, 0, 72, 68
2, 88701, Note_on_c, 0, 53, 0
2, 88710, Note_on_c, 0, 75, 0
2, 88737, Note_on_c, 0, 57, 58
2, 88779, Note_on_c, 0, 69, 64
2, 88788, Note_on_c, 0, 72, 0
2, 88830, Note_on_c, 0, 57, 0
2, 88841, Note_on_c, 0, 69, 0
2, 88861, Note_on_c, 0, 65, 66
2, 88883, Note_on_c, 0, 55, 58
2, 89039, Note_on_c, 0, 58, 72
2, 89117, Note_on_c, 0, 55, 0
2, 89192, Note_on_c, 0, 57, 74
2, 89309, Note_on_c, 0, 58, 0
2, 89345, Note_on_c, 0, 57, 0
2, 89372, Note_on_c, 0, 60, 78
2, 89386, Note_on_c, 0, 69, 62
2, 89389, Note_on_c, 0, 65, 0
2, 89441, Note_on_c, 0, 69, 0
2, 89459, Note_on_c, 0, 72, 72
2, 89532, Note_on_c, 0, 73, 84
2, 89534, Note_on_c, 0, 58, 69
2, 89536, Note_on_c, 0, 72, 0
2, 89572, Note_on_c, 0, 60, 0
2, 89609, Note_on_c, 0, 72, 68
2, 89624, Note_on_c, 0, 71, 61
2, 89655, Note_on_c, 0, 71, 0
2, 89697, Note_on_c, 0, 70, 82
2, 89700, Note_on_c, 0, 72, 0
2, 89712, Note_on_c, 0, 61, 85
2, 89741, Note_on_c, 0, 73, 0
2, 89818, Note_on_c, 0, 58, 0
2, 89870, Note_on_c, 0, 70, 0
2, 89876, Note_on_c, 0, 69, 81
2, 89877, Note_on_c, 0, 60, 87
2, 89916, Note_on_c, 0, 61, 0
2, 90009, Note_on_c, 0, 60, 0
2, 90035, Note_on_c, 0, 69, 0
2, 90045, Note_on_c, 0, 72, 78
2, 90057, Note_on_c, 0, 63, 80
2, 90114, Note_on_c, 0, 75, 86
2, 90135, Note_on_c, 0, 72, 0
2, 90191, Note_on_c, 0, 78, 90
2, 90210, Note_on_c, 0, 75, 0
2, 90213, Note_on_c, 0, 61, 81
2, 90234, Note_on_c, 0, 63, 0
2, 90339, Note_on_c, 0, 61, 0
2, 90372, Note_on_c, 0, 60, 85
2, 90530, Control_c, 0, 64, 27
2, 90532, Note_on_c, 0, 58, 86
2, 90544, Control_c, 0, 64, 53
2, 90560, Control_c, 0, 64, 61
2, 90572, Note_on_c, 0, 60, 0
2, 90575, Control_c, 0, 64, 65
2, 90589, Control_c, 0, 64, 68
2, 90605, Control_c, 0, 64, 75
2, 90620, Control_c, 0, 64, 84
2, 90635, Control_c, 0, 64, 94
2, 90651, Control_c, 0, 64, 100
2, 90665, Note_on_c, 0, 58, 0
2, 90666, Control_c, 0, 64, 101
2, 90682, Control_c, 0, 64, 101
2, 90710, Note_on_c, 0, 57, 73
2, 90714, Note_on_c, 0, 72, 79
2, 90716, Note_on_c, 0, 78, 0
2, 90727, Control_c, 0, 64, 101
2, 90757, Control_c, 0, 64, 100
2, 90773, Control_c, 0, 64, 95
2, 90784, Note_on_c, 0, 70, 78
2, 90794, Control_c, 0, 64, 85
2, 90797, Note_on_c, 0, 72, 0
2, 90810, Control_c, 0, 64, 75
2, 90825, Control_c, 0, 64, 66
2, 90841, Control_c, 0, 64, 49
2, 90856, Control_c, 0, 64, 0
2, 90864, Note_on_c, 0, 57, 0
2, 90875, Note_on_c, 0, 72, 81
2, 90877, Note_on_c, 0, 55, 78
2, 90897, Note_on_c, 0, 70, 0
2, 90950, Note_on_c, 0, 72, 0
2, 90953, Note_on_c, 0, 74, 79
2, 90978, Control_c, 0, 64, 44
2, 90993, Control_c, 0, 64, 58
2, 91008, Control_c, 0, 64, 62
2, 91014, Note_on_c, 0, 53, 78
2, 91023, Control_c, 0, 64, 66
2, 91024, Note_on_c, 0, 75, 88
2, 91038, Control_c, 0, 64, 76
2, 91043, Note_on_c, 0, 55, 0
2, 91043, Note_on_c, 0, 74, 0
2, 91054, Control_c, 0, 64, 110
2, 91065, Note_on_c, 0, 53, 0
2, 91069, Control_c, 0, 64, 127
2, 91165, Note_on_c, 0, 75, 0
2, 91191, Control_c, 0, 64, 105
2, 91196, Note_on_c, 0, 74, 88
2, 91207, Control_c, 0, 64, 77
2, 91215, Note_on_c, 0, 56, 79
2, 91222, Control_c, 0, 64, 63
2, 91237, Control_c, 0, 64, 0
2, 91340, Note_on_c, 0, 56, 0
2, 91381, Note_on_c, 0, 53, 73
2, 91381, Note_on_c, 0, 77, 82
2, 91406, Note_on_c, 0, 74, 0
2, 91463, Note_on_c, 0, 50, 81
2, 91500, Note_on_c, 0, 53, 0
2, 91572, Note_on_c, 0, 75, 87
2, 91582, Note_on_c, 0, 46, 86
2, 91584, Note_on_c, 0, 50, 0
2, 91608, Note_on_c, 0, 77, 0
2, 91743, Note_on_c, 0, 78, 77
2, 91749, Note_on_c, 0, 75, 0
2, 91762, Control_c, 0, 64, 24
2, 91777, Control_c, 0, 64, 49
2, 91791, Control_c, 0, 64, 58
2, 91807, Control_c, 0, 64, 62
2, 91822, Control_c, 0, 64, 64
2, 91837, Control_c, 0, 64, 67
2, 91852, Control_c, 0, 64, 70
2, 91862, Note_on_c, 0, 78, 0
2, 91869, Control_c, 0, 64, 75
2, 91885, Control_c, 0, 64, 80
2, 91899, Control_c, 0, 64, 83
2, 91910, Note_on_c, 0, 77, 90
2, 91914, Control_c, 0, 64, 86
2, 91930, Control_c, 0, 64, 86
2, 91944, Control_c, 0, 64, 87
2, 91960, Control_c, 0, 64, 87
2, 92063, Note_on_c, 0, 46, 0
2, 92072, Note_on_c, 0, 80, 83
2, 92076, Note_on_c, 0, 50, 74
2, 92112, Note_on_c, 0, 77, 0
2, 92143, Note_on_c, 0, 53, 79
2, 92157, Control_c, 0, 64, 87
2, 92173, Control_c, 0, 64, 85
2, 92179, Note_on_c, 0, 50, 0
2, 92188, Control_c, 0, 64, 81
2, 92204, Control_c, 0, 64, 75
2, 92219, Control_c, 0, 64, 67
2, 92233, Control_c, 0, 64, 55
2, 92237, Note_on_c, 0, 58, 91
2, 92237, Note_on_c, 0, 78, 88
2, 92249, Control_c, 0, 64, 0
2, 92261, Note_on_c, 0, 53, 0
2, 92384, Note_on_c, 0, 80, 0
2, 92421, Note_on_c, 0, 82, 85
2, 92452, Note_on_c, 0, 78, 0
2, 92454, Control_c, 0, 64, 31
2, 92469, Control_c, 0, 64, 51
2, 92485, Control_c, 0, 64, 59
2, 92499, Control_c, 0, 64, 62
2, 92514, Control_c, 0, 64, 63
2, 92530, Control_c, 0, 64, 64
2, 92545, Control_c, 0, 64, 67
2, 92561, Control_c, 0, 64, 72
2, 92575, Control_c, 0, 64, 80
2, 92586, Note_on_c, 0, 80, 90
2, 92590, Control_c, 0, 64, 90
2, 92606, Control_c, 0, 64, 94
2, 92616, Note_on_c, 0, 82, 0
2, 92621, Control_c, 0, 64, 96
2, 92636, Control_c, 0, 64, 97
2, 92734, Note_on_c, 0, 56, 77
2, 92738, Note_on_c, 0, 58, 0
2, 92740, Note_on_c, 0, 80, 0
2, 92745, Note_on_c, 0, 83, 89
2, 92800, Note_on_c, 0, 53, 67
2, 92831, Note_on_c, 0, 56, 0
2, 92895, Control_c, 0, 64, 96
2, 92896, Note_on_c, 0, 53, 0
2, 92909, Note_on_c, 0, 50, 79
2, 92910, Control_c, 0, 64, 94
2, 92911, Note_on_c, 0, 82, 91
2, 92926, Control_c, 0, 64, 90
2, 92940, Control_c, 0, 64, 85
2, 92943, Note_on_c, 0, 83, 0
2, 92955, Control_c, 0, 64, 79
2, 92971, Control_c, 0, 64, 73
2, 92986, Control_c, 0, 64, 67
2, 93002, Control_c, 0, 64, 55
2, 93017, Control_c, 0, 64, 0
2, 93088, Note_on_c, 0, 80, 87
2, 93100, Note_on_c, 0, 59, 91
2, 93139, Note_on_c, 0, 82, 0
2, 93212, Note_on_c, 0, 50, 0
2, 93271, Note_on_c, 0, 58, 89
2, 93271, Note_on_c, 0, 78, 90
2, 93276, Note_on_c, 0, 59, 0
2, 93313, Control_c, 0, 64, 41
2, 93322, Note_on_c, 0, 58, 0
2, 93326, Note_on_c, 0, 80, 0
2, 93329, Control_c, 0, 64, 53
2, 93343, Control_c, 0, 64, 59
2, 93358, Control_c, 0, 64, 64
2, 93374, Control_c, 0, 64, 69
2, 93389, Control_c, 0, 64, 79
2, 93405, Control_c, 0, 64, 93
2, 93419, Control_c, 0, 64, 124
2, 93434, Control_c, 0, 64, 127
2, 93440, Note_on_c, 0, 77, 88
2, 93447, Note_on_c, 0, 56, 81
2, 93451, Note_on_c, 0, 78, 0
2, 93499, Note_on_c, 0, 54, 73
2, 93509, Note_on_c, 0, 56, 0
2, 93577, Note_on_c, 0, 53, 73
2, 93587, Control_c, 0, 64, 121
2, 93597, Note_on_c, 0, 54, 0
2, 93597, Note_on_c, 0, 75, 78
2, 93603, Control_c, 0, 64, 90
2, 93618, Control_c, 0, 64, 73
2, 93632, Control_c, 0, 64, 58
2, 93645, Note_on_c, 0, 77, 0
2, 93648, Control_c, 0, 64, 0
2, 93684, Note_on_c, 0, 53, 0
2, 93690, Note_on_c, 0, 54, 78
2, 93747, Note_on_c, 0, 54, 0
2, 93758, Note_on_c, 0, 56, 85
2, 93758, Note_on_c, 0, 74, 84
2, 93776, Note_on_c, 0, 75, 0
2, 93952, Note_on_c, 0, 54, 89
2, 93961, Note_on_c, 0, 74, 0
2, 93962, Note_on_c, 0, 56, 0
2, 93965, Note_on_c, 0, 75, 92
2, 93974, Control_c, 0, 64, 54
2, 93989, Control_c, 0, 64, 65
2, 93994, Note_on_c, 0, 54, 0
2, 94005, Control_c, 0, 64, 76
2, 94020, Control_c, 0, 64, 107
2, 94035, Control_c, 0, 64, 127
2, 94105, Note_on_c, 0, 75, 0
2, 94135, Note_on_c, 0, 77, 85
2, 94217, Control_c, 0, 64, 101
2, 94218, Note_on_c, 0, 78, 82
2, 94221, Note_on_c, 0, 77, 0
2, 94232, Control_c, 0, 64, 81
2, 94247, Control_c, 0, 64, 67
2, 94262, Control_c, 0, 64, 40
2, 94277, Control_c, 0, 64, 0
2, 94294, Note_on_c, 0, 80, 86
2, 94308, Note_on_c, 0, 78, 0
2, 94314, Note_on_c, 0, 47, 81
2, 94362, Note_on_c, 0, 47, 0
2, 94388, Note_on_c, 0, 78, 94
2, 94426, Note_on_c, 0, 80, 0
2, 94478, Note_on_c, 0, 77, 87
2, 94503, Note_on_c, 0, 78, 0
2, 94655, Note_on_c, 0, 77, 0
2, 94656, Note_on_c, 0, 46, 91
2, 94658, Note_on_c, 0, 78, 84
2, 94773, Note_on_c, 0, 46, 0
2, 94837, Note_on_c, 0, 77, 74
2, 94931, Note_on_c, 0, 75, 81
2, 94947, Note_on_c, 0, 78, 0
2, 94967, Note_on_c, 0, 77, 0
2, 95005, Note_on_c, 0, 74, 88
2, 95008, Note_on_c, 0, 44, 92
2, 95027, Note_on_c, 0, 75, 0
2, 95079, Note_on_c, 0, 44, 0
2, 95103, Note_on_c, 0, 75, 84
2, 95118, Note_on_c, 0, 74, 0
2, 95191, Note_on_c, 0, 77, 84
2, 95210, Note_on_c, 0, 75, 0
2, 95344, Note_on_c, 0, 77, 0
2, 95358, Note_on_c, 0, 70, 81
2, 95368, Note_on_c, 0, 42, 93
2, 95395, Control_c, 0, 64, 44
2, 95418, Control_c, 0, 64, 60
2, 95419, Note_on_c, 0, 42, 0
2, 95433, Control_c, 0, 64, 66
2, 95449, Control_c, 0, 64, 79
2, 95463, Control_c, 0, 64, 108
2, 95465, Note_on_c, 0, 75, 75
2, 95478, Control_c, 0, 64, 127
2, 95489, Note_on_c, 0, 70, 0
2, 95531, Note_on_c, 0, 73, 76
2, 95573, Note_on_c, 0, 75, 0
2, 95629, Note_on_c, 0, 71, 78
2, 95629, Note_on_c, 0, 73, 0
2, 95691, Control_c, 0, 64, 95
2, 95706, Control_c, 0, 64, 72
2, 95721, Control_c, 0, 64, 52
2, 95734, Note_on_c, 0, 70, 80
2, 95736, Control_c, 0, 64, 0
2, 95739, Note_on_c, 0, 54, 81
2, 95775, Note_on_c, 0, 71, 0
2, 95904, Note_on_c, 0, 56, 86
2, 95909, Note_on_c, 0, 68, 88
2, 95910, Note_on_c, 0, 54, 0
2, 95957, Note_on_c, 0, 70, 0
2, 96101, Note_on_c, 0, 58, 94
2, 96101, Note_on_c, 0, 66, 86
2, 96103, Note_on_c, 0, 56, 0
2, 96152, Note_on_c, 0, 58, 0
2, 96194, Note_on_c, 0, 68, 0
2, 96293, Note_on_c, 0, 66, 0
2, 96307, Note_on_c, 0, 65, 79
2, 96401, Note_on_c, 0, 66, 84
2, 96427, Note_on_c, 0, 65, 0
2, 96500, Note_on_c, 0, 46, 84
2, 96503, Note_on_c, 0, 68, 88
2, 96545, Note_on_c, 0, 66, 0
2, 96561, Note_on_c, 0, 46, 0
2, 96614, Note_on_c, 0, 66, 87
2, 96690, Note_on_c, 0, 68, 0
2, 96748, Note_on_c, 0, 65, 88
2, 96781, Note_on_c, 0, 66, 0
2, 97036, Note_on_c, 0, 63, 82
2, 97047, Note_on_c, 0, 65, 0
2, 97051, Note_on_c, 0, 37, 71
2, 97280, Note_on_c, 0, 37, 0
2, 97310, Note_on_c, 0, 66, 71
2, 97338, Note_on_c, 0, 39, 53
2, 97521, Note_on_c, 0, 70, 81
2, 97588, Note_on_c, 0, 66, 0
2, 97748, Note_on_c, 0, 74, 79
2, 97769, Note_on_c, 0, 70, 0
2, 97794, Note_on_c, 0, 63, 0
2, 97824, Note_on_c, 0, 74, 0
2, 97828, Control_c, 0, 64, 45
2, 97843, Control_c, 0, 64, 62
2, 97858, Control_c, 0, 64, 70
2, 97873, Control_c, 0, 64, 103
2, 97889, Control_c, 0, 64, 127
2, 98070, Note_on_c, 0, 74, 79
2, 98085, Control_c, 0, 64, 81
2, 98101, Control_c, 0, 64, 64
2, 98115, Control_c, 0, 64, 0
2, 98764, Note_on_c, 0, 75, 65
2, 98795, Note_on_c, 0, 74, 0
2, 98914, Control_c, 0, 64, 39
2, 98930, Control_c, 0, 64, 51
2, 98945, Control_c, 0, 64, 57
2, 98959, Control_c, 0, 64, 62
2, 98975, Control_c, 0, 64, 65
2, 98990, Control_c, 0, 64, 71
2, 99005, Control_c, 0, 64, 83
2, 99021, Control_c, 0, 64, 127
2, 99117, Note_on_c, 0, 75, 0
2, 99541, Note_on_c, 0, 39, 0
2, 99789, Control_c, 0, 64, 98
2, 99803, Control_c, 0, 64, 87
2, 99819, Control_c, 0, 64, 78
2, 99834, Control_c, 0, 64, 70
2, 99850, Control_c, 0, 64, 62
2, 99865, Control_c, 0, 64, 44
2, 99879, Control_c, 0, 64, 0
2, 101052, Note_on_c, 0, 63, 41
2, 101172, Control_c, 0, 64, 22
2, 101187, Control_c, 0, 64, 41
2, 101202, Control_c, 0, 64, 50
2, 101218, Control_c, 0, 64, 56
2, 101233, Control_c, 0, 64, 61
2, 101249, Control_c, 0, 64, 64
2, 101263, Control_c, 0, 64, 69
2, 101278, Control_c, 0, 64, 78
2, 101294, Control_c, 0, 64, 93
2, 101309, Control_c, 0, 64, 127
2, 101422, Note_on_c, 0, 63, 0
2, 101657, Note_on_c, 0, 63, 61
2, 102002, Note_on_c, 0, 63, 0
2, 102183, Note_on_c, 0, 63, 61
2, 102291, Control_c, 0, 64, 116
2, 102313, Control_c, 0, 64, 91
2, 102329, Control_c, 0, 64, 81
2, 102343, Control_c, 0, 64, 72
2, 102358, Control_c, 0, 64, 65
2, 102374, Control_c, 0, 64, 54
2, 102389, Control_c, 0, 64, 0
2, 102723, Note_on_c, 0, 62, 57
2, 102765, Note_on_c, 0, 63, 0
2, 103261, Note_on_c, 0, 63, 72
2, 103308, Note_on_c, 0, 62, 0
2, 103900, Note_on_c, 0, 65, 67
2, 103924, Note_on_c, 0, 63, 0
2, 105420, Note_on_c, 0, 63, 52
2, 105458, Note_on_c, 0, 65, 0
2, 106066, Note_on_c, 0, 68, 68
2, 106129, Note_on_c, 0, 63, 0
2, 107542, Note_on_c, 0, 66, 51
2, 107750, Note_on_c, 0, 68, 0
2, 107779, Note_on_c, 0, 65, 59
2, 107806, Note_on_c, 0, 66, 0
2, 108106, Note_on_c, 0, 70, 62
2, 108131, Note_on_c, 0, 65, 0
2, 108733, Note_on_c, 0, 68, 51
2, 108789, Note_on_c, 0, 70, 0
2, 109295, Note_on_c, 0, 66, 48
2, 109356, Note_on_c, 0, 68, 0
2, 109842, Note_on_c, 0, 58, 46
2, 109842, Note_on_c, 0, 65, 46
2, 109842, Note_on_c, 0, 66, 0
2, 109971, Control_c, 0, 64, 22
2, 109993, Control_c, 0, 64, 47
2, 110009, Control_c, 0, 64, 57
2, 110024, Control_c, 0, 64, 63
2, 110039, Control_c, 0, 64, 66
2, 110054, Control_c, 0, 64, 73
2, 110069, Control_c, 0, 64, 85
2, 110084, Control_c, 0, 64, 119
2, 110099, Control_c, 0, 64, 127
2, 110170, Note_on_c, 0, 58, 0
2, 110364, Note_on_c, 0, 58, 67
2, 110378, Note_on_c, 0, 63, 54
2, 110395, Note_on_c, 0, 65, 0
2, 110419, Control_c, 0, 64, 104
2, 110434, Control_c, 0, 64, 81
2, 110449, Control_c, 0, 64, 67
2, 110464, Control_c, 0, 64, 60
2, 110479, Control_c, 0, 64, 54
2, 110495, Control_c, 0, 64, 57
2, 110509, Control_c, 0, 64, 60
2, 110524, Control_c, 0, 64, 63
2, 110540, Control_c, 0, 64, 65
2, 110555, Control_c, 0, 64, 70
2, 110571, Control_c, 0, 64, 78
2, 110585, Control_c, 0, 64, 90
2, 110600, Control_c, 0, 64, 119
2, 110616, Control_c, 0, 64, 127
2, 110639, Note_on_c, 0, 58, 0
2, 110888, Note_on_c, 0, 58, 63
2, 110901, Note_on_c, 0, 61, 53
2, 110918, Note_on_c, 0, 63, 0
2, 110929, Control_c, 0, 64, 115
2, 110943, Control_c, 0, 64, 94
2, 110958, Control_c, 0, 64, 82
2, 110974, Control_c, 0, 64, 70
2, 110989, Control_c, 0, 64, 62
2, 111004, Control_c, 0, 64, 36
2, 111020, Control_c, 0, 64, 0
2, 111133, Note_on_c, 0, 63, 67
2, 111177, Note_on_c, 0, 61, 0
2, 111475, Note_on_c, 0, 65, 60
2, 111494, Note_on_c, 0, 63, 0
2, 111502, Note_on_c, 0, 57, 53
2, 111554, Note_on_c, 0, 58, 0
2, 112006, Note_on_c, 0, 58, 67
2, 112060, Note_on_c, 0, 57, 0
2, 112604, Note_on_c, 0, 60, 63
2, 112658, Note_on_c, 0, 58, 0
2, 113133, Note_on_c, 0, 63, 46
2, 113165, Note_on_c, 0, 65, 0
2, 113374, Note_on_c, 0, 65, 67
2, 113392, Note_on_c, 0, 63, 0
2, 113674, Note_on_c, 0, 66, 68
2, 113722, Note_on_c, 0, 65, 0
2, 114218, Note_on_c, 0, 58, 65
2, 114284, Note_on_c, 0, 60, 0
2, 114798, Note_on_c, 0, 63, 72
2, 114912, Note_on_c, 0, 58, 0
2, 115336, Note_on_c, 0, 65, 43
2, 115374, Note_on_c, 0, 66, 0
2, 115578, Note_on_c, 0, 67, 66
2, 115667, Note_on_c, 0, 65, 0
2, 115937, Note_on_c, 0, 68, 68
2, 116006, Note_on_c, 0, 67, 0
2, 116463, Note_on_c, 0, 61, 52
2, 116641, Note_on_c, 0, 63, 0
2, 116701, Note_on_c, 0, 60, 73
2, 116736, Note_on_c, 0, 61, 0
2, 117039, Note_on_c, 0, 65, 72
2, 117101, Note_on_c, 0, 60, 0
2, 117516, Note_on_c, 0, 68, 0
2, 117544, Note_on_c, 0, 67, 51
2, 117547, Note_on_c, 0, 63, 51
2, 117634, Note_on_c, 0, 65, 0
2, 117786, Note_on_c, 0, 69, 58
2, 117896, Note_on_c, 0, 67, 0
2, 118099, Note_on_c, 0, 70, 60
2, 118109, Note_on_c, 0, 61, 45
2, 118122, Note_on_c, 0, 69, 0
2, 118173, Note_on_c, 0, 63, 0
2, 118670, Note_on_c, 0, 72, 52
2, 118688, Note_on_c, 0, 60, 40
2, 118690, Note_on_c, 0, 70, 0
2, 118733, Note_on_c, 0, 61, 0
2, 119309, Note_on_c, 0, 73, 55
2, 119330, Note_on_c, 0, 58, 27
2, 119336, Note_on_c, 0, 72, 0
2, 119405, Note_on_c, 0, 60, 0
2, 119932, Note_on_c, 0, 70, 47
2, 120039, Control_c, 0, 64, 22
2, 120055, Control_c, 0, 64, 50
2, 120070, Control_c, 0, 64, 59
2, 120086, Control_c, 0, 64, 63
2, 120101, Control_c, 0, 64, 68
2, 120114, Note_on_c, 0, 58, 0
2, 120115, Control_c, 0, 64, 77
2, 120131, Control_c, 0, 64, 94
2, 120146, Control_c, 0, 64, 127
2, 120219, Note_on_c, 0, 70, 0
2, 120436, Note_on_c, 0, 63, 55
2, 120481, Control_c, 0, 64, 98
2, 120495, Control_c, 0, 64, 84
2, 120510, Control_c, 0, 64, 75
2, 120526, Control_c, 0, 64, 68
2, 120542, Control_c, 0, 64, 60
2, 120557, Control_c, 0, 64, 32
2, 120573, Control_c, 0, 64, 0
2, 120952, Note_on_c, 0, 67, 59
2, 121467, Note_on_c, 0, 68, 69
2, 121517, Note_on_c, 0, 73, 0
2, 121887, Note_on_c, 0, 67, 0
2, 122036, Note_on_c, 0, 70, 60
2, 122041, Note_on_c, 0, 68, 0
2, 122056, Note_on_c, 0, 61, 40
2, 122101, Note_on_c, 0, 63, 0
2, 122654, Note_on_c, 0, 63, 63
2, 122686, Note_on_c, 0, 59, 31
2, 122698, Note_on_c, 0, 61, 0
2, 122706, Note_on_c, 0, 70, 0
2, 123283, Note_on_c, 0, 68, 70
2, 123329, Note_on_c, 0, 63, 0
2, 123798, Note_on_c, 0, 58, 58
2, 123867, Note_on_c, 0, 59, 0
2, 124336, Note_on_c, 0, 67, 71
2, 124341, Note_on_c, 0, 68, 0
2, 124770, Control_c, 0, 67, 18
2, 124785, Control_c, 0, 67, 28
2, 124801, Control_c, 0, 67, 35
2, 124816, Control_c, 0, 67, 39
2, 124830, Control_c, 0, 67, 41
2, 124906, Control_c, 0, 67, 40
2, 124922, Control_c, 0, 67, 39
2, 124937, Control_c, 0, 67, 38
2, 124951, Control_c, 0, 67, 37
2, 124966, Note_on_c, 0, 71, 62
2, 124967, Control_c, 0, 67, 35
2, 124982, Control_c, 0, 67, 35
2, 124986, Note_on_c, 0, 56, 39
2, 124987, Note_on_c, 0, 67, 0
2, 124997, Control_c, 0, 67, 34
2, 125013, Control_c, 0, 67, 34
2, 125043, Control_c, 0, 67, 33
2, 125058, Control_c, 0, 67, 33
2, 125069, Note_on_c, 0, 58, 0
2, 125073, Control_c, 0, 67, 32
2, 125089, Control_c, 0, 67, 31
2, 125104, Control_c, 0, 67, 31
2, 125149, Control_c, 0, 67, 30
2, 125165, Control_c, 0, 67, 30
2, 125180, Control_c, 0, 67, 29
2, 125195, Control_c, 0, 67, 29
2, 125211, Control_c, 0, 67, 28
2, 125225, Control_c, 0, 67, 27
2, 125256, Control_c, 0, 67, 27
2, 125271, Control_c, 0, 67, 26
2, 125287, Control_c, 0, 67, 26
2, 125301, Control_c, 0, 67, 25
2, 125316, Control_c, 0, 67, 24
2, 125347, Control_c, 0, 67, 24
2, 125370, Control_c, 0, 67, 23
2, 125385, Control_c, 0, 67, 23
2, 125401, Control_c, 0, 67, 22
2, 125542, Note_on_c, 0, 68, 49
2, 125659, Control_c, 0, 67, 22
2, 125690, Control_c, 0, 67, 20
2, 125706, Control_c, 0, 64, 47
2, 125706, Control_c, 0, 67, 20
2, 125722, Control_c, 0, 64, 55
2, 125722, Control_c, 0, 67, 18
2, 125736, Control_c, 0, 64, 59
2, 125736, Control_c, 0, 67, 16
2, 125751, Control_c, 0, 64, 62
2, 125751, Control_c, 0, 67, 15
2, 125767, Control_c, 0, 64, 64
2, 125767, Control_c, 0, 67, 13
2, 125782, Control_c, 0, 64, 70
2, 125782, Control_c, 0, 67, 13
2, 125796, Control_c, 0, 64, 79
2, 125796, Control_c, 0, 67, 12
2, 125812, Control_c, 0, 64, 89
2, 125812, Control_c, 0, 67, 12
2, 125814, Note_on_c, 0, 56, 0
2, 125827, Control_c, 0, 64, 96
2, 125843, Control_c, 0, 64, 101
2, 125843, Note_on_c, 0, 68, 0
2, 125858, Control_c, 0, 64, 106
2, 125872, Control_c, 0, 64, 110
2, 125888, Control_c, 0, 64, 114
2, 125903, Control_c, 0, 64, 116
2, 126039, Control_c, 0, 67, 12
2, 126055, Control_c, 0, 64, 112
2, 126069, Note_on_c, 0, 62, 43
2, 126070, Control_c, 0, 64, 107
2, 126085, Control_c, 0, 64, 102
2, 126100, Control_c, 0, 64, 96
2, 126115, Control_c, 0, 64, 90
2, 126115, Control_c, 0, 67, 13
2, 126139, Control_c, 0, 64, 84
2, 126153, Control_c, 0, 64, 78
2, 126169, Control_c, 0, 64, 73
2, 126169, Control_c, 0, 67, 13
2, 126184, Control_c, 0, 64, 68
2, 126199, Control_c, 0, 64, 63
2, 126214, Control_c, 0, 64, 52
2, 126229, Control_c, 0, 64, 24
2, 126245, Control_c, 0, 64, 0
2, 126292, Control_c, 0, 67, 14
2, 126337, Control_c, 0, 67, 15
2, 126570, Note_on_c, 0, 70, 42
2, 126646, Note_on_c, 0, 71, 0
2, 126700, Control_c, 0, 67, 14
2, 126807, Control_c, 0, 67, 13
2, 126825, Note_on_c, 0, 68, 52
2, 126827, Note_on_c, 0, 70, 0
2, 127115, Note_on_c, 0, 62, 0
2, 127134, Control_c, 0, 67, 12
2, 127149, Control_c, 0, 67, 11
2, 127165, Control_c, 0, 67, 9
2, 127165, Note_on_c, 0, 66, 49
2, 127171, Note_on_c, 0, 68, 0
2, 127180, Control_c, 0, 67, 0
2, 127185, Note_on_c, 0, 63, 38
2, 127225, Control_c, 0, 64, 51
2, 127241, Control_c, 0, 64, 60
2, 127256, Control_c, 0, 64, 65
2, 127270, Control_c, 0, 64, 69
2, 127283, Note_on_c, 0, 63, 0
2, 127286, Control_c, 0, 64, 76
2, 127301, Control_c, 0, 64, 91
2, 127316, Control_c, 0, 64, 127
2, 127834, Note_on_c, 0, 68, 64
2, 127843, Note_on_c, 0, 51, 57
2, 127860, Note_on_c, 0, 53, 44
2, 127867, Note_on_c, 0, 66, 0
2, 127916, Control_c, 0, 64, 97
2, 127932, Control_c, 0, 64, 89
2, 127947, Control_c, 0, 64, 88
2, 127993, Control_c, 0, 64, 89
2, 128008, Control_c, 0, 64, 92
2, 128023, Control_c, 0, 64, 102
2, 128038, Control_c, 0, 64, 127
2, 128169, Note_on_c, 0, 53, 0
2, 128286, Note_on_c, 0, 51, 0
2, 128368, Note_on_c, 0, 70, 70
2, 128369, Note_on_c, 0, 51, 61
2, 128387, Note_on_c, 0, 54, 64
2, 128388, Control_c, 0, 64, 111
2, 128389, Note_on_c, 0, 68, 0
2, 128403, Control_c, 0, 64, 80
2, 128426, Control_c, 0, 64, 62
2, 128442, Control_c, 0, 64, 0
2, 128502, Control_c, 0, 64, 48
2, 128517, Control_c, 0, 64, 59
2, 128532, Control_c, 0, 64, 63
2, 128547, Control_c, 0, 64, 65
2, 128563, Control_c, 0, 64, 70
2, 128578, Control_c, 0, 64, 81
2, 128593, Control_c, 0, 64, 127
2, 128662, Note_on_c, 0, 51, 0
2, 128677, Note_on_c, 0, 54, 0
2, 128867, Note_on_c, 0, 71, 69
2, 128871, Note_on_c, 0, 51, 71
2, 128873, Note_on_c, 0, 56, 72
2, 128883, Control_c, 0, 64, 104
2, 128898, Control_c, 0, 64, 76
2, 128906, Note_on_c, 0, 70, 0
2, 128913, Control_c, 0, 64, 62
2, 128929, Control_c, 0, 64, 28
2, 128944, Control_c, 0, 64, 0
2, 128958, Control_c, 0, 64, 43
2, 128974, Control_c, 0, 64, 59
2, 128989, Control_c, 0, 64, 65
2, 129005, Control_c, 0, 64, 71
2, 129020, Control_c, 0, 64, 89
2, 129034, Control_c, 0, 64, 127
2, 129051, Note_on_c, 0, 56, 0
2, 129397, Note_on_c, 0, 58, 64
2, 129399, Note_on_c, 0, 50, 64
2, 129411, Note_on_c, 0, 65, 54
2, 129437, Control_c, 0, 64, 93
2, 129443, Note_on_c, 0, 51, 0
2, 129452, Control_c, 0, 64, 77
2, 129467, Control_c, 0, 64, 66
2, 129483, Control_c, 0, 64, 44
2, 129489, Note_on_c, 0, 71, 0
2, 129497, Control_c, 0, 64, 0
2, 129650, Note_on_c, 0, 66, 67
2, 129690, Note_on_c, 0, 65, 0
2, 129898, Note_on_c, 0, 51, 71
2, 129909, Note_on_c, 0, 65, 61
2, 129949, Note_on_c, 0, 50, 0
2, 130020, Note_on_c, 0, 66, 0
2, 130152, Note_on_c, 0, 63, 68
2, 130178, Note_on_c, 0, 65, 0
2, 130397, Note_on_c, 0, 63, 0
2, 130400, Note_on_c, 0, 53, 75
2, 130406, Note_on_c, 0, 62, 54
2, 130475, Note_on_c, 0, 51, 0
2, 130616, Control_c, 0, 64, 37
2, 130631, Control_c, 0, 64, 56
2, 130640, Note_on_c, 0, 62, 0
2, 130647, Control_c, 0, 64, 63
2, 130650, Note_on_c, 0, 63, 65
2, 130662, Control_c, 0, 64, 68
2, 130677, Control_c, 0, 64, 75
2, 130693, Control_c, 0, 64, 85
2, 130708, Control_c, 0, 64, 93
2, 130723, Control_c, 0, 64, 98
2, 130745, Control_c, 0, 64, 103
2, 130760, Control_c, 0, 64, 105
2, 130852, Control_c, 0, 64, 104
2, 130867, Control_c, 0, 64, 98
2, 130882, Control_c, 0, 64, 91
2, 130886, Note_on_c, 0, 63, 0
2, 130894, Note_on_c, 0, 56, 62
2, 130897, Control_c, 0, 64, 81
2, 130912, Control_c, 0, 64, 72
2, 130913, Note_on_c, 0, 65, 60
2, 130928, Control_c, 0, 64, 64
2, 130943, Control_c, 0, 64, 39
2, 130947, Note_on_c, 0, 58, 0
2, 130958, Control_c, 0, 64, 0
2, 131110, Control_c, 0, 64, 43
2, 131126, Control_c, 0, 64, 52
2, 131136, Note_on_c, 0, 66, 77
2, 131140, Control_c, 0, 64, 58
2, 131148, Note_on_c, 0, 58, 60
2, 131155, Control_c, 0, 64, 62
2, 131171, Control_c, 0, 64, 64
2, 131187, Control_c, 0, 64, 67
2, 131203, Control_c, 0, 64, 71
2, 131215, Note_on_c, 0, 65, 0
2, 131218, Control_c, 0, 64, 74
2, 131233, Control_c, 0, 64, 78
2, 131248, Control_c, 0, 64, 80
2, 131263, Control_c, 0, 64, 80
2, 131278, Control_c, 0, 64, 81
2, 131364, Note_on_c, 0, 58, 0
2, 131384, Control_c, 0, 64, 78
2, 131399, Control_c, 0, 64, 73
2, 131415, Control_c, 0, 64, 67
2, 131426, Note_on_c, 0, 68, 69
2, 131430, Control_c, 0, 64, 58
2, 131431, Note_on_c, 0, 59, 55
2, 131445, Control_c, 0, 64, 0
2, 131463, Note_on_c, 0, 66, 0
2, 131532, Note_on_c, 0, 56, 0
2, 131664, Note_on_c, 0, 68, 0
2, 131675, Note_on_c, 0, 70, 67
2, 131912, Note_on_c, 0, 51, 78
2, 131928, Note_on_c, 0, 68, 64
2, 132023, Note_on_c, 0, 70, 0
2, 132117, Note_on_c, 0, 53, 0
2, 132154, Note_on_c, 0, 66, 75
2, 132313, Note_on_c, 0, 68, 0
2, 132453, Note_on_c, 0, 66, 0
2, 132459, Note_on_c, 0, 65, 64
2, 132469, Note_on_c, 0, 56, 78
2, 132539, Note_on_c, 0, 51, 0
2, 132978, Note_on_c, 0, 59, 0
2, 133000, Note_on_c, 0, 58, 48
2, 133251, Note_on_c, 0, 60, 71
2, 133295, Note_on_c, 0, 58, 0
2, 133552, Note_on_c, 0, 61, 72
2, 133592, Note_on_c, 0, 60, 0
2, 134076, Control_c, 0, 64, 35
2, 134079, Note_on_c, 0, 65, 0
2, 134079, Note_on_c, 0, 66, 62
2, 134089, Note_on_c, 0, 54, 61
2, 134092, Control_c, 0, 64, 52
2, 134106, Control_c, 0, 64, 58
2, 134122, Control_c, 0, 64, 61
2, 134137, Control_c, 0, 64, 63
2, 134139, Note_on_c, 0, 56, 0
2, 134152, Control_c, 0, 64, 66
2, 134167, Control_c, 0, 64, 71
2, 134182, Control_c, 0, 64, 80
2, 134197, Control_c, 0, 64, 93
2, 134213, Control_c, 0, 64, 121
2, 134228, Control_c, 0, 64, 127
2, 134284, Note_on_c, 0, 54, 0
2, 134317, Note_on_c, 0, 53, 78
2, 134329, Note_on_c, 0, 68, 73
2, 134373, Note_on_c, 0, 66, 0
2, 134548, Control_c, 0, 64, 121
2, 134563, Control_c, 0, 64, 105
2, 134586, Control_c, 0, 64, 94
2, 134600, Control_c, 0, 64, 82
2, 134616, Control_c, 0, 64, 72
2, 134631, Control_c, 0, 64, 64
2, 134647, Control_c, 0, 64, 44
2, 134662, Control_c, 0, 64, 0
2, 134670, Note_on_c, 0, 58, 77
2, 134683, Note_on_c, 0, 66, 67
2, 134738, Note_on_c, 0, 68, 0
2, 134746, Note_on_c, 0, 53, 0
2, 134890, Control_c, 0, 64, 29
2, 134905, Control_c, 0, 64, 50
2, 134920, Control_c, 0, 64, 58
2, 134936, Control_c, 0, 64, 62
2, 134950, Control_c, 0, 64, 65
2, 134966, Control_c, 0, 64, 70
2, 134981, Control_c, 0, 64, 82
2, 134996, Control_c, 0, 64, 99
2, 135011, Control_c, 0, 64, 127
2, 135159, Note_on_c, 0, 61, 0
2, 135207, Note_on_c, 0, 65, 72
2, 135213, Note_on_c, 0, 56, 69
2, 135224, Note_on_c, 0, 60, 55
2, 135234, Note_on_c, 0, 58, 0
2, 135238, Control_c, 0, 64, 115
2, 135254, Control_c, 0, 64, 84
2, 135269, Control_c, 0, 64, 70
2, 135286, Control_c, 0, 64, 60
2, 135301, Control_c, 0, 64, 54
2, 135315, Control_c, 0, 64, 57
2, 135339, Control_c, 0, 64, 61
2, 135354, Control_c, 0, 64, 63
2, 135370, Control_c, 0, 64, 66
2, 135385, Control_c, 0, 64, 70
2, 135399, Control_c, 0, 64, 80
2, 135415, Control_c, 0, 64, 94
2, 135430, Control_c, 0, 64, 127
2, 135435, Note_on_c, 0, 56, 0
2, 135458, Note_on_c, 0, 62, 83
2, 135483, Note_on_c, 0, 66, 0
2, 135499, Note_on_c, 0, 60, 0
2, 135539, Note_on_c, 0, 62, 0
2, 135762, Note_on_c, 0, 63, 85
2, 135764, Control_c, 0, 64, 99
2, 135779, Control_c, 0, 64, 74
2, 135780, Note_on_c, 0, 54, 64
2, 135794, Control_c, 0, 64, 60
2, 135809, Control_c, 0, 64, 0
2, 135869, Control_c, 0, 64, 49
2, 135885, Control_c, 0, 64, 57
2, 135900, Control_c, 0, 64, 60
2, 135902, Note_on_c, 0, 65, 0
2, 135915, Control_c, 0, 64, 63
2, 135930, Control_c, 0, 64, 66
2, 135945, Control_c, 0, 64, 71
2, 135960, Control_c, 0, 64, 81
2, 135976, Control_c, 0, 64, 97
2, 135991, Control_c, 0, 64, 127
2, 136145, Note_on_c, 0, 54, 0
2, 136303, Control_c, 0, 64, 105
2, 136304, Note_on_c, 0, 70, 85
2, 136318, Control_c, 0, 64, 77
2, 136331, Note_on_c, 0, 63, 0
2, 136332, Note_on_c, 0, 53, 52
2, 136333, Note_on_c, 0, 62, 56
2, 136334, Control_c, 0, 64, 63
2, 136342, Note_on_c, 0, 56, 49
2, 136349, Control_c, 0, 64, 0
2, 136394, Control_c, 0, 64, 33
2, 136410, Control_c, 0, 64, 52
2, 136425, Control_c, 0, 64, 57
2, 136440, Control_c, 0, 64, 60
2, 136456, Control_c, 0, 64, 63
2, 136471, Control_c, 0, 64, 66
2, 136477, Note_on_c, 0, 53, 0
2, 136480, Note_on_c, 0, 56, 0
2, 136486, Control_c, 0, 64, 72
2, 136501, Control_c, 0, 64, 81
2, 136516, Control_c, 0, 64, 96
2, 136532, Control_c, 0, 64, 127
2, 136606, Note_on_c, 0, 70, 0
2, 136789, Control_c, 0, 64, 96
2, 136789, Note_on_c, 0, 70, 81
2, 136805, Control_c, 0, 64, 77
2, 136809, Note_on_c, 0, 62, 0
2, 136820, Control_c, 0, 64, 69
2, 136822, Note_on_c, 0, 63, 59
2, 136824, Note_on_c, 0, 54, 57
2, 136835, Control_c, 0, 64, 68
2, 136835, Note_on_c, 0, 51, 46
2, 136865, Control_c, 0, 64, 70
2, 136889, Control_c, 0, 64, 73
2, 136903, Control_c, 0, 64, 77
2, 136918, Control_c, 0, 64, 82
2, 136935, Control_c, 0, 64, 87
2, 136950, Control_c, 0, 64, 92
2, 136966, Control_c, 0, 64, 98
2, 136981, Control_c, 0, 64, 127
2, 136996, Note_on_c, 0, 63, 0
2, 137003, Note_on_c, 0, 51, 0
2, 137025, Note_on_c, 0, 54, 0
2, 137029, Note_on_c, 0, 70, 0
2, 137033, Note_on_c, 0, 65, 80
2, 137039, Note_on_c, 0, 56, 64
2, 137120, Note_on_c, 0, 56, 0
2, 137239, Note_on_c, 0, 65, 0
2, 137271, Note_on_c, 0, 70, 88
2, 137284, Control_c, 0, 64, 84
2, 137293, Note_on_c, 0, 66, 67
2, 137296, Note_on_c, 0, 58, 71
2, 137299, Control_c, 0, 64, 55
2, 137314, Control_c, 0, 64, 0
2, 137317, Note_on_c, 0, 49, 59
2, 137391, Control_c, 0, 64, 49
2, 137407, Control_c, 0, 64, 59
2, 137421, Control_c, 0, 64, 62
2, 137421, Note_on_c, 0, 58, 0
2, 137435, Note_on_c, 0, 49, 0
2, 137436, Control_c, 0, 64, 65
2, 137452, Control_c, 0, 64, 70
2, 137466, Control_c, 0, 64, 81
2, 137482, Control_c, 0, 64, 110
2, 137497, Control_c, 0, 64, 127
2, 137513, Note_on_c, 0, 60, 87
2, 137523, Note_on_c, 0, 51, 80
2, 137523, Note_on_c, 0, 66, 0
2, 137595, Note_on_c, 0, 60, 0
2, 137825, Control_c, 0, 64, 87
2, 137840, Control_c, 0, 64, 65
2, 137855, Control_c, 0, 64, 31
2, 137858, Note_on_c, 0, 69, 93
2, 137870, Control_c, 0, 64, 0
2, 137876, Note_on_c, 0, 53, 65
2, 137884, Note_on_c, 0, 65, 59
2, 137886, Note_on_c, 0, 70, 0
2, 137889, Note_on_c, 0, 61, 74
2, 137924, Note_on_c, 0, 51, 0
2, 138250, Control_c, 0, 64, 37
2, 138265, Control_c, 0, 64, 55
2, 138280, Control_c, 0, 64, 62
2, 138296, Control_c, 0, 64, 66
2, 138311, Control_c, 0, 64, 74
2, 138327, Control_c, 0, 64, 88
2, 138341, Control_c, 0, 64, 121
2, 138356, Control_c, 0, 64, 127
2, 138391, Note_on_c, 0, 61, 0
2, 138446, Note_on_c, 0, 70, 84
2, 138455, Control_c, 0, 64, 114
2, 138458, Note_on_c, 0, 69, 0
2, 138467, Note_on_c, 0, 60, 59
2, 138470, Control_c, 0, 64, 78
2, 138486, Control_c, 0, 64, 63
2, 138501, Control_c, 0, 64, 0
2, 138691, Note_on_c, 0, 60, 0
2, 138693, Note_on_c, 0, 58, 67
2, 138971, Note_on_c, 0, 72, 82
2, 138989, Note_on_c, 0, 58, 0
2, 138999, Note_on_c, 0, 57, 51
2, 139006, Note_on_c, 0, 70, 0
2, 139192, Control_c, 0, 64, 45
2, 139208, Control_c, 0, 64, 56
2, 139223, Control_c, 0, 64, 60
2, 139237, Control_c, 0, 64, 63
2, 139253, Control_c, 0, 64, 66
2, 139268, Control_c, 0, 64, 71
2, 139284, Control_c, 0, 64, 81
2, 139299, Control_c, 0, 64, 94
2, 139314, Control_c, 0, 64, 108
2, 139330, Control_c, 0, 64, 113
2, 139363, Note_on_c, 0, 53, 0
2, 139391, Control_c, 0, 64, 114
2, 139504, Note_on_c, 0, 66, 52
2, 139538, Note_on_c, 0, 51, 47
2, 139555, Note_on_c, 0, 65, 0
2, 139696, Note_on_c, 0, 51, 0
2, 139729, Note_on_c, 0, 65, 69
2, 139732, Note_on_c, 0, 66, 0
2, 139742, Note_on_c, 0, 53, 62
2, 140006, Control_c, 0, 64, 108
2, 140021, Control_c, 0, 64, 95
2, 140023, Note_on_c, 0, 63, 69
2, 140026, Note_on_c, 0, 54, 64
2, 140036, Control_c, 0, 64, 81
2, 140040, Note_on_c, 0, 53, 0
2, 140052, Control_c, 0, 64, 66
2, 140060, Note_on_c, 0, 65, 0
2, 140067, Control_c, 0, 64, 33
2, 140082, Control_c, 0, 64, 0
2, 140158, Control_c, 0, 64, 35
2, 140173, Control_c, 0, 64, 51
2, 140188, Control_c, 0, 64, 58
2, 140205, Control_c, 0, 64, 62
2, 140220, Control_c, 0, 64, 64
2, 140234, Control_c, 0, 64, 67
2, 140250, Control_c, 0, 64, 72
2, 140265, Control_c, 0, 64, 82
2, 140280, Control_c, 0, 64, 97
2, 140296, Control_c, 0, 64, 127
2, 140301, Note_on_c, 0, 63, 0
2, 140503, Note_on_c, 0, 72, 0
2, 140515, Note_on_c, 0, 70, 89
2, 140549, Note_on_c, 0, 57, 0
2, 140549, Note_on_c, 0, 61, 57
2, 140566, Note_on_c, 0, 58, 56
2, 140738, Note_on_c, 0, 58, 0
2, 140771, Note_on_c, 0, 57, 86
2, 141112, Note_on_c, 0, 61, 0
2, 141125, Note_on_c, 0, 57, 0
2, 141134, Note_on_c, 0, 75, 88
2, 141145, Note_on_c, 0, 58, 65
2, 141154, Control_c, 0, 64, 94
2, 141166, Note_on_c, 0, 70, 0
2, 141170, Control_c, 0, 64, 80
2, 141185, Control_c, 0, 64, 67
2, 141200, Control_c, 0, 64, 42
2, 141216, Control_c, 0, 64, 0
2, 141338, Control_c, 0, 64, 36
2, 141352, Control_c, 0, 64, 54
2, 141368, Control_c, 0, 64, 60
2, 141383, Control_c, 0, 64, 62
2, 141398, Control_c, 0, 64, 63
2, 141414, Control_c, 0, 64, 63
2, 141428, Control_c, 0, 64, 65
2, 141444, Control_c, 0, 64, 68
2, 141459, Control_c, 0, 64, 71
2, 141474, Control_c, 0, 64, 76
2, 141497, Control_c, 0, 64, 79
2, 141512, Control_c, 0, 64, 80
2, 141528, Control_c, 0, 64, 81
2, 141543, Control_c, 0, 64, 83
2, 141558, Control_c, 0, 64, 85
2, 141573, Control_c, 0, 64, 87
2, 141588, Control_c, 0, 64, 88
2, 141613, Note_on_c, 0, 54, 0
2, 141619, Control_c, 0, 64, 88
2, 141634, Control_c, 0, 64, 82
2, 141649, Control_c, 0, 64, 73
2, 141663, Note_on_c, 0, 73, 71
2, 141664, Control_c, 0, 64, 65
2, 141677, Note_on_c, 0, 53, 51
2, 141679, Control_c, 0, 64, 53
2, 141694, Control_c, 0, 64, 43
2, 141709, Control_c, 0, 64, 46
2, 141725, Control_c, 0, 64, 53
2, 141740, Control_c, 0, 64, 59
2, 141755, Control_c, 0, 64, 61
2, 141770, Control_c, 0, 64, 62
2, 141785, Control_c, 0, 64, 63
2, 141795, Note_on_c, 0, 58, 0
2, 141800, Control_c, 0, 64, 63
2, 141816, Control_c, 0, 64, 64
2, 141848, Control_c, 0, 64, 64
2, 141862, Control_c, 0, 64, 65
2, 141876, Note_on_c, 0, 53, 0
2, 141877, Control_c, 0, 64, 65
2, 141896, Note_on_c, 0, 55, 77
2, 141908, Control_c, 0, 64, 66
2, 141938, Control_c, 0, 64, 66
2, 141953, Control_c, 0, 64, 67
2, 141969, Control_c, 0, 64, 67
2, 141984, Control_c, 0, 64, 68
2, 141998, Control_c, 0, 64, 69
2, 142014, Control_c, 0, 64, 71
2, 142029, Control_c, 0, 64, 74
2, 142045, Control_c, 0, 64, 76
2, 142060, Control_c, 0, 64, 78
2, 142105, Control_c, 0, 64, 77
2, 142120, Control_c, 0, 64, 74
2, 142136, Control_c, 0, 64, 68
2, 142151, Control_c, 0, 64, 60
2, 142160, Note_on_c, 0, 56, 70
2, 142163, Note_on_c, 0, 55, 0
2, 142167, Control_c, 0, 64, 0
2, 142177, Note_on_c, 0, 72, 68
2, 142199, Note_on_c, 0, 73, 0
2, 142295, Control_c, 0, 64, 46
2, 142310, Control_c, 0, 64, 57
2, 142326, Control_c, 0, 64, 60
2, 142341, Control_c, 0, 64, 62
2, 142356, Control_c, 0, 64, 64
2, 142372, Control_c, 0, 64, 66
2, 142387, Control_c, 0, 64, 69
2, 142403, Control_c, 0, 64, 75
2, 142417, Control_c, 0, 64, 81
2, 142432, Control_c, 0, 64, 87
2, 142448, Control_c, 0, 64, 95
2, 142463, Control_c, 0, 64, 107
2, 142478, Control_c, 0, 64, 127
2, 142478, Note_on_c, 0, 75, 0
2, 142625, Note_on_c, 0, 72, 0
2, 142663, Note_on_c, 0, 73, 77
2, 142677, Note_on_c, 0, 70, 60
2, 142680, Note_on_c, 0, 63, 61
2, 142844, Note_on_c, 0, 73, 0
2, 142867, Note_on_c, 0, 70, 0
2, 142902, Note_on_c, 0, 72, 89
2, 143181, Note_on_c, 0, 77, 89
2, 143185, Control_c, 0, 64, 85
2, 143200, Control_c, 0, 64, 65
2, 143200, Note_on_c, 0, 60, 73
2, 143203, Note_on_c, 0, 68, 67
2, 143212, Note_on_c, 0, 72, 0
2, 143216, Control_c, 0, 64, 0
2, 143256, Note_on_c, 0, 63, 0
2, 143261, Control_c, 0, 64, 35
2, 143276, Control_c, 0, 64, 57
2, 143292, Control_c, 0, 64, 63
2, 143307, Control_c, 0, 64, 68
2, 143323, Control_c, 0, 64, 76
2, 143338, Control_c, 0, 64, 96
2, 143353, Control_c, 0, 64, 127
2, 143437, Note_on_c, 0, 70, 84
2, 143488, Note_on_c, 0, 56, 0
2, 143488, Note_on_c, 0, 77, 0
2, 143490, Note_on_c, 0, 68, 0
2, 143719, Note_on_c, 0, 75, 89
2, 143730, Note_on_c, 0, 70, 0
2, 143732, Note_on_c, 0, 60, 0
2, 143745, Note_on_c, 0, 72, 60
2, 143748, Control_c, 0, 64, 99
2, 143759, Note_on_c, 0, 55, 54
2, 143763, Control_c, 0, 64, 74
2, 143767, Note_on_c, 0, 65, 45
2, 143786, Control_c, 0, 64, 59
2, 143802, Control_c, 0, 64, 0
2, 143862, Control_c, 0, 64, 52
2, 143877, Control_c, 0, 64, 60
2, 143892, Control_c, 0, 64, 63
2, 143907, Control_c, 0, 64, 65
2, 143912, Note_on_c, 0, 55, 0
2, 143923, Control_c, 0, 64, 68
2, 143938, Control_c, 0, 64, 72
2, 143950, Note_on_c, 0, 65, 0
2, 143953, Control_c, 0, 64, 79
2, 143968, Control_c, 0, 64, 88
2, 143983, Control_c, 0, 64, 93
2, 143986, Note_on_c, 0, 57, 76
2, 143987, Note_on_c, 0, 75, 0
2, 143998, Control_c, 0, 64, 95
2, 144014, Control_c, 0, 64, 96
2, 144028, Control_c, 0, 64, 97
2, 144044, Control_c, 0, 64, 98
2, 144059, Control_c, 0, 64, 98
2, 144272, Control_c, 0, 64, 97
2, 144288, Control_c, 0, 64, 93
2, 144304, Control_c, 0, 64, 87
2, 144312, Note_on_c, 0, 58, 56
2, 144312, Note_on_c, 0, 73, 88
2, 144318, Control_c, 0, 64, 80
2, 144319, Note_on_c, 0, 65, 66
2, 144334, Control_c, 0, 64, 72
2, 144343, Note_on_c, 0, 72, 0
2, 144349, Control_c, 0, 64, 65
2, 144365, Control_c, 0, 64, 49
2, 144375, Note_on_c, 0, 57, 0
2, 144380, Control_c, 0, 64, 0
2, 144855, Note_on_c, 0, 70, 60
2, 144873, Note_on_c, 0, 60, 49
2, 145077, Note_on_c, 0, 69, 69
2, 145077, Note_on_c, 0, 70, 0
2, 145110, Note_on_c, 0, 60, 0
2, 145336, Note_on_c, 0, 69, 0
2, 145368, Note_on_c, 0, 70, 61
2, 145407, Note_on_c, 0, 61, 53
2, 145412, Note_on_c, 0, 65, 0
2, 145503, Control_c, 0, 64, 17
2, 145518, Control_c, 0, 64, 48
2, 145534, Control_c, 0, 64, 58
2, 145549, Control_c, 0, 64, 64
2, 145565, Control_c, 0, 64, 70
2, 145579, Control_c, 0, 64, 84
2, 145594, Control_c, 0, 64, 127
2, 145603, Note_on_c, 0, 73, 0
2, 145762, Note_on_c, 0, 58, 0
2, 145910, Note_on_c, 0, 75, 70
2, 145913, Control_c, 0, 64, 90
2, 145929, Control_c, 0, 64, 69
2, 145945, Control_c, 0, 64, 51
2, 145947, Note_on_c, 0, 68, 40
2, 145954, Note_on_c, 0, 70, 0
2, 145960, Control_c, 0, 64, 0
2, 146007, Control_c, 0, 64, 35
2, 146021, Control_c, 0, 64, 53
2, 146036, Control_c, 0, 64, 57
2, 146052, Control_c, 0, 64, 60
2, 146067, Control_c, 0, 64, 62
2, 146083, Control_c, 0, 64, 64
2, 146104, Control_c, 0, 64, 66
2, 146119, Control_c, 0, 64, 68
2, 146135, Control_c, 0, 64, 71
2, 146150, Control_c, 0, 64, 74
2, 146159, Note_on_c, 0, 75, 0
2, 146166, Control_c, 0, 64, 76
2, 146181, Control_c, 0, 64, 76
2, 146185, Note_on_c, 0, 76, 44
2, 146192, Note_on_c, 0, 77, 43
2, 146196, Control_c, 0, 64, 77
2, 146200, Note_on_c, 0, 68, 0
2, 146226, Control_c, 0, 64, 77
2, 146250, Note_on_c, 0, 77, 0
2, 146317, Control_c, 0, 64, 78
2, 146333, Control_c, 0, 64, 79
2, 146347, Control_c, 0, 64, 80
2, 146363, Control_c, 0, 64, 80
2, 146378, Control_c, 0, 64, 81
2, 146423, Control_c, 0, 64, 80
2, 146438, Control_c, 0, 64, 78
2, 146454, Control_c, 0, 64, 73
2, 146468, Control_c, 0, 64, 67
2, 146484, Control_c, 0, 64, 58
2, 146486, Note_on_c, 0, 70, 50
2, 146498, Note_on_c, 0, 67, 42
2, 146499, Control_c, 0, 64, 0
2, 146606, Control_c, 0, 64, 43
2, 146621, Control_c, 0, 64, 58
2, 146623, Note_on_c, 0, 76, 0
2, 146636, Control_c, 0, 64, 62
2, 146652, Control_c, 0, 64, 64
2, 146667, Control_c, 0, 64, 66
2, 146682, Control_c, 0, 64, 70
2, 146697, Control_c, 0, 64, 78
2, 146712, Control_c, 0, 64, 96
2, 146728, Control_c, 0, 64, 127
2, 146789, Note_on_c, 0, 70, 0
2, 146832, Note_on_c, 0, 61, 0
2, 147112, Note_on_c, 0, 61, 41
2, 147116, Note_on_c, 0, 55, 37
2, 147146, Control_c, 0, 64, 94
2, 147162, Control_c, 0, 64, 75
2, 147177, Control_c, 0, 64, 62
2, 147184, Note_on_c, 0, 75, 67
2, 147191, Control_c, 0, 64, 0
2, 147217, Note_on_c, 0, 70, 41
2, 147279, Note_on_c, 0, 67, 0
2, 147283, Control_c, 0, 64, 39
2, 147298, Control_c, 0, 64, 51
2, 147313, Control_c, 0, 64, 57
2, 147328, Control_c, 0, 64, 60
2, 147343, Control_c, 0, 64, 62
2, 147358, Control_c, 0, 64, 64
2, 147374, Control_c, 0, 64, 66
2, 147389, Control_c, 0, 64, 69
2, 147404, Control_c, 0, 64, 74
2, 147413, Note_on_c, 0, 61, 0
2, 147419, Control_c, 0, 64, 78
2, 147434, Control_c, 0, 64, 83
2, 147450, Control_c, 0, 64, 87
2, 147465, Control_c, 0, 64, 89
2, 147465, Note_on_c, 0, 55, 0
2, 147480, Control_c, 0, 64, 91
2, 147496, Control_c, 0, 64, 93
2, 147511, Control_c, 0, 64, 93
2, 147526, Control_c, 0, 64, 94
2, 147541, Control_c, 0, 64, 94
2, 147556, Control_c, 0, 64, 95
2, 147572, Control_c, 0, 64, 97
2, 147587, Control_c, 0, 64, 97
2, 147671, Control_c, 0, 64, 92
2, 147685, Note_on_c, 0, 56, 44
2, 147687, Control_c, 0, 64, 83
2, 147687, Note_on_c, 0, 65, 56
2, 147694, Note_on_c, 0, 59, 48
2, 147701, Control_c, 0, 64, 78
2, 147716, Control_c, 0, 64, 78
2, 147723, Note_on_c, 0, 70, 0
2, 147763, Control_c, 0, 64, 79
2, 147778, Control_c, 0, 64, 83
2, 147792, Control_c, 0, 64, 87
2, 147808, Control_c, 0, 64, 93
2, 147823, Control_c, 0, 64, 101
2, 147835, Note_on_c, 0, 56, 0
2, 147838, Control_c, 0, 64, 113
2, 147853, Control_c, 0, 64, 127
2, 147864, Note_on_c, 0, 59, 0
2, 147877, Note_on_c, 0, 65, 0
2, 147911, Note_on_c, 0, 75, 0
2, 148157, Control_c, 0, 64, 108
2, 148157, Note_on_c, 0, 73, 87
2, 148172, Control_c, 0, 64, 80
2, 148186, Note_on_c, 0, 67, 58
2, 148187, Control_c, 0, 64, 67
2, 148189, Note_on_c, 0, 58, 54
2, 148192, Note_on_c, 0, 61, 57
2, 148203, Control_c, 0, 64, 63
2, 148233, Control_c, 0, 64, 65
2, 148248, Control_c, 0, 64, 67
2, 148263, Control_c, 0, 64, 71
2, 148278, Control_c, 0, 64, 75
2, 148291, Note_on_c, 0, 61, 0
2, 148294, Control_c, 0, 64, 80
2, 148309, Control_c, 0, 64, 85
2, 148325, Control_c, 0, 64, 91
2, 148325, Note_on_c, 0, 58, 0
2, 148339, Control_c, 0, 64, 99
2, 148354, Control_c, 0, 64, 114
2, 148370, Control_c, 0, 64, 127
2, 148379, Note_on_c, 0, 67, 0
2, 148412, Note_on_c, 0, 68, 80
2, 148599, Note_on_c, 0, 73, 0
2, 148675, Note_on_c, 0, 70, 86
2, 148680, Note_on_c, 0, 55, 73
2, 148682, Control_c, 0, 64, 93
2, 148697, Control_c, 0, 64, 67
2, 148703, Note_on_c, 0, 51, 68
2, 148712, Control_c, 0, 64, 0
2, 148737, Note_on_c, 0, 68, 0
2, 148774, Control_c, 0, 64, 53
2, 148789, Control_c, 0, 64, 62
2, 148804, Control_c, 0, 64, 64
2, 148819, Control_c, 0, 64, 68
2, 148831, Note_on_c, 0, 55, 0
2, 148834, Control_c, 0, 64, 78
2, 148850, Control_c, 0, 64, 103
2, 148865, Control_c, 0, 64, 127
2, 149052, Note_on_c, 0, 70, 0
2, 149110, Note_on_c, 0, 51, 0
2, 149268, Note_on_c, 0, 71, 87
2, 149283, Note_on_c, 0, 56, 78
2, 149290, Note_on_c, 0, 68, 69
2, 149293, Note_on_c, 0, 64, 69
2, 149313, Control_c, 0, 64, 86
2, 149329, Control_c, 0, 64, 67
2, 149344, Control_c, 0, 64, 36
2, 149359, Control_c, 0, 64, 0
2, 149830, Note_on_c, 0, 71, 0
2, 149831, Control_c, 0, 64, 40
2, 149847, Control_c, 0, 64, 59
2, 149861, Control_c, 0, 64, 64
2, 149861, Note_on_c, 0, 70, 84
2, 149876, Control_c, 0, 64, 69
2, 149876, Note_on_c, 0, 64, 0
2, 149892, Control_c, 0, 64, 80
2, 149907, Control_c, 0, 64, 127
2, 149949, Note_on_c, 0, 56, 0
2, 150337, Note_on_c, 0, 63, 61
2, 150348, Note_on_c, 0, 55, 54
2, 150407, Note_on_c, 0, 68, 0
2, 150555, Note_on_c, 0, 63, 0
2, 150570, Note_on_c, 0, 62, 85
2, 150773, Note_on_c, 0, 55, 0
2, 150813, Note_on_c, 0, 62, 0
2, 150895, Note_on_c, 0, 63, 90
2, 150910, Note_on_c, 0, 59, 73
2, 150941, Control_c, 0, 64, 86
2, 150956, Control_c, 0, 64, 68
2, 150972, Control_c, 0, 64, 52
2, 150987, Control_c, 0, 64, 0
2, 151416, Note_on_c, 0, 68, 86
2, 151432, Note_on_c, 0, 70, 0
2, 152009, Note_on_c, 0, 80, 85
2, 152104, Control_c, 0, 64, 39
2, 152119, Control_c, 0, 64, 55
2, 152134, Control_c, 0, 64, 61
2, 152149, Control_c, 0, 64, 64
2, 152165, Control_c, 0, 64, 68
2, 152167, Note_on_c, 0, 59, 0
2, 152179, Control_c, 0, 64, 79
2, 152194, Control_c, 0, 64, 114
2, 152210, Control_c, 0, 64, 127
2, 152512, Note_on_c, 0, 71, 83
2, 152524, Note_on_c, 0, 58, 53
2, 152566, Note_on_c, 0, 68, 0
2, 152716, Note_on_c, 0, 63, 0
2, 152744, Note_on_c, 0, 56, 81
2, 152790, Note_on_c, 0, 58, 0
2, 153056, Note_on_c, 0, 63, 86
2, 153063, Control_c, 0, 64, 76
2, 153078, Control_c, 0, 64, 56
2, 153080, Note_on_c, 0, 70, 60
2, 153094, Control_c, 0, 64, 0
2, 153116, Note_on_c, 0, 71, 0
2, 153184, Control_c, 0, 64, 34
2, 153199, Control_c, 0, 64, 52
2, 153215, Control_c, 0, 64, 60
2, 153229, Control_c, 0, 64, 64
2, 153245, Control_c, 0, 64, 71
2, 153260, Control_c, 0, 64, 84
2, 153275, Control_c, 0, 64, 127
2, 153334, Note_on_c, 0, 63, 0
2, 153631, Note_on_c, 0, 78, 86
2, 153647, Note_on_c, 0, 80, 0
2, 153656, Control_c, 0, 64, 103
2, 153658, Note_on_c, 0, 61, 58
2, 153660, Note_on_c, 0, 63, 56
2, 153671, Control_c, 0, 64, 73
2, 153687, Control_c, 0, 64, 49
2, 153702, Control_c, 0, 64, 0
2, 153709, Note_on_c, 0, 56, 0
2, 153763, Control_c, 0, 64, 34
2, 153785, Control_c, 0, 64, 50
2, 153800, Control_c, 0, 64, 55
2, 153816, Control_c, 0, 64, 59
2, 153830, Control_c, 0, 64, 63
2, 153846, Control_c, 0, 64, 66
2, 153861, Control_c, 0, 64, 71
2, 153876, Control_c, 0, 64, 79
2, 153892, Control_c, 0, 64, 91
2, 153892, Note_on_c, 0, 70, 0
2, 153907, Control_c, 0, 64, 103
2, 153923, Control_c, 0, 64, 119
2, 153937, Control_c, 0, 64, 127
2, 154186, Note_on_c, 0, 68, 60
2, 154194, Control_c, 0, 64, 104
2, 154194, Note_on_c, 0, 59, 56
2, 154202, Note_on_c, 0, 61, 0
2, 154210, Control_c, 0, 64, 81
2, 154225, Control_c, 0, 64, 64
2, 154240, Control_c, 0, 64, 0
2, 154316, Control_c, 0, 64, 43
2, 154332, Control_c, 0, 64, 56
2, 154347, Control_c, 0, 64, 61
2, 154363, Control_c, 0, 64, 64
2, 154378, Control_c, 0, 64, 67
2, 154392, Control_c, 0, 64, 74
2, 154408, Control_c, 0, 64, 86
2, 154423, Control_c, 0, 64, 127
2, 154476, Note_on_c, 0, 78, 0
2, 154582, Note_on_c, 0, 63, 0
2, 154669, Note_on_c, 0, 77, 72
2, 154885, Note_on_c, 0, 75, 90
2, 154903, Note_on_c, 0, 77, 0
2, 155029, Note_on_c, 0, 59, 0
2, 155180, Note_on_c, 0, 74, 83
2, 155210, Note_on_c, 0, 58, 61
2, 155252, Control_c, 0, 64, 112
2, 155267, Control_c, 0, 64, 84
2, 155281, Control_c, 0, 64, 71
2, 155297, Control_c, 0, 64, 61
2, 155319, Control_c, 0, 64, 0
2, 155518, Note_on_c, 0, 75, 0
2, 155724, Note_on_c, 0, 77, 80
2, 155753, Note_on_c, 0, 62, 45
2, 155775, Note_on_c, 0, 74, 0
2, 155943, Control_c, 0, 64, 53
2, 155958, Control_c, 0, 64, 62
2, 155974, Control_c, 0, 64, 66
2, 155989, Control_c, 0, 64, 70
2, 156005, Control_c, 0, 64, 78
2, 156019, Control_c, 0, 64, 95
2, 156034, Control_c, 0, 64, 127
2, 156226, Note_on_c, 0, 78, 72
2, 156239, Control_c, 0, 64, 99
2, 156246, Note_on_c, 0, 63, 52
2, 156255, Control_c, 0, 64, 70
2, 156262, Note_on_c, 0, 77, 0
2, 156267, Note_on_c, 0, 62, 0
2, 156270, Control_c, 0, 64, 41
2, 156286, Control_c, 0, 64, 0
2, 156392, Control_c, 0, 64, 43
2, 156407, Control_c, 0, 64, 58
2, 156422, Control_c, 0, 64, 63
2, 156437, Control_c, 0, 64, 66
2, 156453, Control_c, 0, 64, 71
2, 156468, Control_c, 0, 64, 77
2, 156483, Control_c, 0, 64, 85
2, 156498, Control_c, 0, 64, 92
2, 156513, Control_c, 0, 64, 98
2, 156529, Control_c, 0, 64, 101
2, 156543, Control_c, 0, 64, 106
2, 156558, Control_c, 0, 64, 124
2, 156574, Control_c, 0, 64, 127
2, 156728, Note_on_c, 0, 74, 65
2, 156732, Note_on_c, 0, 63, 0
2, 156742, Control_c, 0, 64, 112
2, 156754, Note_on_c, 0, 65, 52
2, 156757, Control_c, 0, 64, 77
2, 156761, Note_on_c, 0, 56, 49
2, 156772, Control_c, 0, 64, 63
2, 156787, Control_c, 0, 64, 36
2, 156800, Note_on_c, 0, 68, 0
2, 156803, Control_c, 0, 64, 0
2, 156810, Note_on_c, 0, 58, 0
2, 156818, Control_c, 0, 64, 22
2, 156823, Note_on_c, 0, 78, 0
2, 156840, Control_c, 0, 64, 47
2, 156856, Control_c, 0, 64, 56
2, 156871, Control_c, 0, 64, 61
2, 156887, Control_c, 0, 64, 64
2, 156902, Control_c, 0, 64, 69
2, 156917, Control_c, 0, 64, 78
2, 156932, Control_c, 0, 64, 97
2, 156947, Control_c, 0, 64, 127
2, 157004, Note_on_c, 0, 56, 0
2, 157006, Note_on_c, 0, 65, 0
2, 157303, Note_on_c, 0, 74, 0
2, 157339, Note_on_c, 0, 75, 67
2, 157368, Note_on_c, 0, 54, 52
2, 157368, Note_on_c, 0, 58, 50
2, 157434, Control_c, 0, 64, 101
2, 157450, Control_c, 0, 64, 89
2, 157465, Control_c, 0, 64, 80
2, 157479, Control_c, 0, 64, 71
2, 157495, Control_c, 0, 64, 64
2, 157510, Control_c, 0, 64, 52
2, 157526, Control_c, 0, 64, 13
2, 157541, Control_c, 0, 64, 0
2, 157664, Note_on_c, 0, 73, 68
2, 157778, Note_on_c, 0, 75, 0
2, 157897, Note_on_c, 0, 73, 0
2, 157906, Note_on_c, 0, 58, 0
2, 157910, Note_on_c, 0, 63, 66
2, 157912, Note_on_c, 0, 71, 52
2, 158156, Control_c, 0, 64, 40
2, 158163, Note_on_c, 0, 70, 60
2, 158171, Control_c, 0, 64, 49
2, 158186, Control_c, 0, 64, 55
2, 158201, Control_c, 0, 64, 59
2, 158215, Note_on_c, 0, 71, 0
2, 158217, Control_c, 0, 64, 61
2, 158233, Control_c, 0, 64, 63
2, 158248, Control_c, 0, 64, 64
2, 158263, Control_c, 0, 64, 64
2, 158278, Control_c, 0, 64, 66
2, 158294, Control_c, 0, 64, 67
2, 158309, Control_c, 0, 64, 68
2, 158422, Control_c, 0, 64, 67
2, 158437, Control_c, 0, 64, 64
2, 158453, Control_c, 0, 64, 59
2, 158468, Control_c, 0, 64, 43
2, 158470, Note_on_c, 0, 53, 51
2, 158471, Note_on_c, 0, 68, 59
2, 158478, Note_on_c, 0, 54, 0
2, 158484, Control_c, 0, 64, 0
2, 158504, Note_on_c, 0, 70, 0
2, 158665, Control_c, 0, 64, 46
2, 158680, Control_c, 0, 64, 60
2, 158696, Control_c, 0, 64, 64
2, 158711, Control_c, 0, 64, 67
2, 158727, Control_c, 0, 64, 74
2, 158741, Control_c, 0, 64, 85
2, 158756, Control_c, 0, 64, 114
2, 158772, Control_c, 0, 64, 127
2, 158954, Note_on_c, 0, 63, 0
2, 158981, Note_on_c, 0, 62, 72
2, 158993, Note_on_c, 0, 53, 0
2, 159023, Note_on_c, 0, 71, 42
2, 159090, Note_on_c, 0, 71, 0
2, 159116, Note_on_c, 0, 68, 0
2, 159245, Note_on_c, 0, 70, 76
2, 159600, Note_on_c, 0, 66, 69
2, 159615, Note_on_c, 0, 71, 73
2, 159632, Control_c, 0, 64, 104
2, 159635, Note_on_c, 0, 51, 51
2, 159635, Note_on_c, 0, 62, 0
2, 159643, Note_on_c, 0, 70, 0
2, 159648, Control_c, 0, 64, 80
2, 159662, Control_c, 0, 64, 65
2, 159677, Control_c, 0, 64, 21
2, 159693, Control_c, 0, 64, 0
2, 160152, Note_on_c, 0, 51, 0
2, 160156, Note_on_c, 0, 71, 0
2, 160159, Note_on_c, 0, 49, 45
2, 160164, Note_on_c, 0, 70, 66
2, 160654, Note_on_c, 0, 70, 0
2, 160690, Note_on_c, 0, 68, 61
2, 160743, Note_on_c, 0, 47, 38
2, 160795, Note_on_c, 0, 49, 0
2, 161225, Note_on_c, 0, 59, 57
2, 161232, Note_on_c, 0, 65, 47
2, 161239, Note_on_c, 0, 66, 0
2, 161304, Control_c, 0, 64, 38
2, 161318, Control_c, 0, 64, 54
2, 161334, Control_c, 0, 64, 62
2, 161349, Control_c, 0, 64, 66
2, 161365, Control_c, 0, 64, 74
2, 161380, Control_c, 0, 64, 90
2, 161394, Control_c, 0, 64, 127
2, 161489, Note_on_c, 0, 59, 0
2, 161504, Note_on_c, 0, 63, 57
2, 161512, Note_on_c, 0, 65, 0
2, 161857, Note_on_c, 0, 58, 51
2, 161863, Control_c, 0, 64, 97
2, 161863, Note_on_c, 0, 62, 52
2, 161864, Note_on_c, 0, 63, 0
2, 161879, Control_c, 0, 64, 74
2, 161894, Control_c, 0, 64, 60
2, 161910, Control_c, 0, 64, 0
2, 162061, Control_c, 0, 64, 42
2, 162077, Control_c, 0, 64, 54
2, 162092, Control_c, 0, 64, 60
2, 162107, Control_c, 0, 64, 64
2, 162122, Control_c, 0, 64, 69
2, 162137, Control_c, 0, 64, 79
2, 162153, Control_c, 0, 64, 97
2, 162167, Control_c, 0, 64, 127
2, 162244, Note_on_c, 0, 47, 0
2, 162517, Note_on_c, 0, 63, 48
2, 162526, Control_c, 0, 64, 100
2, 162533, Note_on_c, 0, 66, 51
2, 162541, Control_c, 0, 64, 81
2, 162543, Note_on_c, 0, 46, 40
2, 162556, Control_c, 0, 64, 68
2, 162571, Control_c, 0, 64, 52
2, 162586, Control_c, 0, 64, 0
2, 162594, Note_on_c, 0, 68, 0
2, 162597, Note_on_c, 0, 62, 0
2, 162647, Control_c, 0, 64, 32
2, 162662, Control_c, 0, 64, 43
2, 162678, Control_c, 0, 64, 50
2, 162692, Control_c, 0, 64, 56
2, 162707, Control_c, 0, 64, 60
2, 162723, Control_c, 0, 64, 63
2, 162738, Control_c, 0, 64, 65
2, 162753, Control_c, 0, 64, 69
2, 162768, Control_c, 0, 64, 75
2, 162783, Control_c, 0, 64, 85
2, 162799, Control_c, 0, 64, 92
2, 162814, Control_c, 0, 64, 96
2, 162830, Control_c, 0, 64, 98
2, 162845, Control_c, 0, 64, 101
2, 162860, Control_c, 0, 64, 105
2, 162876, Control_c, 0, 64, 111
2, 162890, Control_c, 0, 64, 114
2, 162905, Note_on_c, 0, 46, 0
2, 163098, Note_on_c, 0, 65, 56
2, 163110, Note_on_c, 0, 66, 0
2, 163111, Control_c, 0, 64, 115
2, 163126, Control_c, 0, 64, 117
2, 163141, Control_c, 0, 64, 124
2, 163146, Note_on_c, 0, 46, 52
2, 163157, Control_c, 0, 64, 127
2, 163229, Note_on_c, 0, 58, 0
2, 163262, Note_on_c, 0, 46, 0
2, 163320, Note_on_c, 0, 63, 0
2, 163612, Note_on_c, 0, 64, 66
2, 163637, Note_on_c, 0, 61, 51
2, 163640, Note_on_c, 0, 46, 47
2, 163652, Note_on_c, 0, 65, 0
2, 163658, Control_c, 0, 64, 95
2, 163674, Control_c, 0, 64, 78
2, 163689, Control_c, 0, 64, 67
2, 163704, Control_c, 0, 64, 53
2, 163720, Control_c, 0, 64, 0
2, 164141, Note_on_c, 0, 64, 0
2, 164147, Note_on_c, 0, 46, 0
2, 164167, Note_on_c, 0, 63, 52
2, 164172, Note_on_c, 0, 43, 45
2, 164403, Note_on_c, 0, 61, 0
2, 164408, Note_on_c, 0, 59, 59
2, 164652, Note_on_c, 0, 59, 0
2, 164655, Note_on_c, 0, 58, 60
2, 164661, Note_on_c, 0, 44, 65
2, 164695, Note_on_c, 0, 43, 0
2, 164912, Note_on_c, 0, 56, 63
2, 164955, Note_on_c, 0, 58, 0
2, 165205, Note_on_c, 0, 56, 0
2, 165221, Note_on_c, 0, 46, 68
2, 165237, Note_on_c, 0, 55, 42
2, 165269, Note_on_c, 0, 44, 0
2, 165414, Control_c, 0, 64, 24
2, 165429, Control_c, 0, 64, 55
2, 165444, Control_c, 0, 64, 62
2, 165459, Control_c, 0, 64, 66
2, 165475, Control_c, 0, 64, 72
2, 165488, Note_on_c, 0, 55, 0
2, 165490, Control_c, 0, 64, 88
2, 165497, Note_on_c, 0, 56, 60
2, 165504, Control_c, 0, 64, 127
2, 165505, Note_on_c, 0, 63, 0
2, 165531, Note_on_c, 0, 56, 0
2, 165725, Note_on_c, 0, 61, 72
2, 165762, Note_on_c, 0, 58, 44
2, 165765, Control_c, 0, 64, 111
2, 165779, Control_c, 0, 64, 83
2, 165795, Control_c, 0, 64, 70
2, 165810, Control_c, 0, 64, 63
2, 165825, Control_c, 0, 64, 57
2, 165841, Control_c, 0, 64, 59
2, 165855, Control_c, 0, 64, 63
2, 165871, Control_c, 0, 64, 65
2, 165886, Control_c, 0, 64, 66
2, 165901, Control_c, 0, 64, 68
2, 165901, Note_on_c, 0, 58, 0
2, 165917, Control_c, 0, 64, 69
2, 165931, Control_c, 0, 64, 72
2, 165946, Control_c, 0, 64, 75
2, 165960, Control_c, 0, 64, 78
2, 165961, Note_on_c, 0, 63, 78
2, 165965, Note_on_c, 0, 61, 0
2, 165970, Note_on_c, 0, 59, 61
2, 165975, Control_c, 0, 64, 81
2, 165989, Control_c, 0, 64, 82
2, 166005, Control_c, 0, 64, 83
2, 166020, Control_c, 0, 64, 84
2, 166036, Control_c, 0, 64, 85
2, 166051, Control_c, 0, 64, 86
2, 166073, Control_c, 0, 64, 86
2, 166104, Control_c, 0, 64, 87
2, 166135, Control_c, 0, 64, 88
2, 166182, Note_on_c, 0, 63, 0
2, 166190, Note_on_c, 0, 59, 0
2, 166224, Note_on_c, 0, 64, 87
2, 166225, Control_c, 0, 64, 87
2, 166241, Control_c, 0, 64, 84
2, 166246, Note_on_c, 0, 61, 58
2, 166256, Control_c, 0, 64, 80
2, 166270, Control_c, 0, 64, 75
2, 166286, Control_c, 0, 64, 71
2, 166301, Control_c, 0, 64, 67
2, 166317, Control_c, 0, 64, 63
2, 166332, Control_c, 0, 64, 52
2, 166346, Control_c, 0, 64, 25
2, 166362, Control_c, 0, 64, 0
2, 166457, Note_on_c, 0, 61, 0
2, 166473, Note_on_c, 0, 63, 64
2, 166695, Note_on_c, 0, 44, 76
2, 166698, Note_on_c, 0, 46, 0
2, 166710, Note_on_c, 0, 61, 62
2, 166948, Note_on_c, 0, 59, 73
2, 166953, Note_on_c, 0, 61, 0
2, 167038, Note_on_c, 0, 63, 0
2, 167215, Note_on_c, 0, 49, 73
2, 167224, Note_on_c, 0, 59, 0
2, 167225, Note_on_c, 0, 58, 53
2, 167260, Note_on_c, 0, 44, 0
2, 167495, Note_on_c, 0, 64, 0
2, 167497, Note_on_c, 0, 56, 53
2, 167541, Control_c, 0, 64, 49
2, 167557, Control_c, 0, 64, 57
2, 167572, Control_c, 0, 64, 61
2, 167587, Control_c, 0, 64, 64
2, 167610, Control_c, 0, 64, 67
2, 167624, Control_c, 0, 64, 72
2, 167640, Control_c, 0, 64, 81
2, 167655, Control_c, 0, 64, 95
2, 167670, Control_c, 0, 64, 105
2, 167686, Control_c, 0, 64, 110
2, 167713, Note_on_c, 0, 56, 0
2, 167718, Note_on_c, 0, 63, 69
2, 167746, Note_on_c, 0, 54, 56
2, 167926, Note_on_c, 0, 54, 0
2, 167929, Control_c, 0, 64, 109
2, 167944, Control_c, 0, 64, 106
2, 167959, Control_c, 0, 64, 100
2, 167959, Note_on_c, 0, 65, 82
2, 167974, Control_c, 0, 64, 92
2, 167978, Note_on_c, 0, 53, 56
2, 167983, Note_on_c, 0, 63, 0
2, 167989, Control_c, 0, 64, 84
2, 168005, Control_c, 0, 64, 77
2, 168020, Control_c, 0, 64, 70
2, 168034, Control_c, 0, 64, 63
2, 168050, Control_c, 0, 64, 50
2, 168066, Control_c, 0, 64, 0
2, 168285, Note_on_c, 0, 66, 81
2, 168294, Note_on_c, 0, 53, 0
2, 168297, Note_on_c, 0, 65, 0
2, 168313, Note_on_c, 0, 51, 54
2, 168529, Control_c, 0, 64, 44
2, 168544, Control_c, 0, 64, 59
2, 168560, Control_c, 0, 64, 66
2, 168575, Control_c, 0, 64, 77
2, 168590, Control_c, 0, 64, 127
2, 168756, Note_on_c, 0, 49, 0
2, 168758, Note_on_c, 0, 51, 0
2, 168807, Note_on_c, 0, 47, 57
2, 169003, Note_on_c, 0, 47, 0
2, 169037, Note_on_c, 0, 46, 82
2, 169107, Control_c, 0, 64, 94
2, 169123, Control_c, 0, 64, 78
2, 169146, Control_c, 0, 64, 69
2, 169161, Control_c, 0, 64, 62
2, 169176, Control_c, 0, 64, 46
2, 169191, Control_c, 0, 64, 0
2, 169364, Note_on_c, 0, 51, 76
2, 169440, Note_on_c, 0, 46, 0
2, 169599, Control_c, 0, 64, 31
2, 169615, Control_c, 0, 64, 52
2, 169630, Control_c, 0, 64, 58
2, 169634, Note_on_c, 0, 58, 0
2, 169645, Control_c, 0, 64, 62
2, 169660, Control_c, 0, 64, 65
2, 169675, Control_c, 0, 64, 68
2, 169692, Control_c, 0, 64, 74
2, 169707, Control_c, 0, 64, 87
2, 169723, Control_c, 0, 64, 119
2, 169723, Control_c, 0, 67, 31
2, 169738, Control_c, 0, 64, 127
2, 169738, Control_c, 0, 67, 69
2, 169752, Control_c, 0, 67, 104
2, 169768, Control_c, 0, 67, 127
2, 169829, Note_on_c, 0, 66, 0
2, 169902, Note_on_c, 0, 65, 71
2, 169915, Note_on_c, 0, 49, 66
2, 169928, Control_c, 0, 64, 78
2, 169943, Control_c, 0, 64, 60
2, 169943, Note_on_c, 0, 58, 44
2, 169955, Note_on_c, 0, 51, 0
2, 169957, Control_c, 0, 64, 0
2, 170018, Control_c, 0, 64, 48
2, 170033, Control_c, 0, 64, 58
2, 170049, Control_c, 0, 64, 60
2, 170064, Control_c, 0, 64, 62
2, 170078, Control_c, 0, 64, 64
2, 170094, Control_c, 0, 64, 67
2, 170109, Control_c, 0, 64, 73
2, 170125, Control_c, 0, 64, 83
2, 170138, Note_on_c, 0, 49, 0
2, 170139, Control_c, 0, 64, 92
2, 170154, Control_c, 0, 64, 98
2, 170155, Note_on_c, 0, 67, 71
2, 170170, Control_c, 0, 64, 100
2, 170172, Note_on_c, 0, 65, 0
2, 170185, Control_c, 0, 64, 102
2, 170200, Control_c, 0, 64, 104
2, 170215, Control_c, 0, 64, 106
2, 170230, Control_c, 0, 64, 108
2, 170259, Note_on_c, 0, 58, 0
2, 170474, Note_on_c, 0, 67, 0
2, 170490, Control_c, 0, 64, 106
2, 170494, Note_on_c, 0, 68, 58
2, 170505, Control_c, 0, 64, 91
2, 170520, Control_c, 0, 64, 75
2, 170520, Note_on_c, 0, 63, 52
2, 170528, Note_on_c, 0, 47, 44
2, 170536, Control_c, 0, 64, 62
2, 170551, Control_c, 0, 64, 0
2, 170643, Control_c, 0, 64, 42
2, 170658, Control_c, 0, 64, 52
2, 170680, Control_c, 0, 64, 58
2, 170696, Control_c, 0, 64, 61
2, 170711, Control_c, 0, 64, 64
2, 170726, Control_c, 0, 64, 66
2, 170741, Control_c, 0, 64, 70
2, 170756, Control_c, 0, 64, 76
2, 170768, Note_on_c, 0, 68, 0
2, 170772, Control_c, 0, 64, 84
2, 170787, Control_c, 0, 64, 93
2, 170801, Control_c, 0, 64, 105
2, 170817, Control_c, 0, 64, 127
2, 170832, Control_c, 0, 67, 119
2, 170848, Control_c, 0, 67, 101
2, 170863, Control_c, 0, 67, 77
2, 170878, Control_c, 0, 67, 46
2, 170885, Note_on_c, 0, 64, 61
2, 170894, Control_c, 0, 67, 0
2, 170898, Note_on_c, 0, 63, 0
2, 171117, Note_on_c, 0, 64, 0
2, 171128, Note_on_c, 0, 68, 82
2, 171156, Note_on_c, 0, 63, 47
2, 171340, Note_on_c, 0, 63, 0
2, 171343, Note_on_c, 0, 68, 0
2, 171349, Note_on_c, 0, 61, 66
2, 171376, Note_on_c, 0, 46, 50
2, 171394, Note_on_c, 0, 61, 0
2, 171479, Note_on_c, 0, 47, 0
2, 171588, Note_on_c, 0, 68, 89
2, 171600, Control_c, 0, 64, 91
2, 171615, Control_c, 0, 64, 70
2, 171621, Note_on_c, 0, 59, 45
2, 171622, Note_on_c, 0, 44, 54
2, 171630, Control_c, 0, 64, 55
2, 171646, Control_c, 0, 64, 25
2, 171649, Note_on_c, 0, 46, 0
2, 171661, Control_c, 0, 64, 39
2, 171676, Control_c, 0, 64, 52
2, 171692, Control_c, 0, 64, 60
2, 171706, Control_c, 0, 64, 63
2, 171721, Control_c, 0, 64, 66
2, 171737, Control_c, 0, 64, 70
2, 171752, Control_c, 0, 64, 77
2, 171768, Control_c, 0, 64, 93
2, 171770, Note_on_c, 0, 59, 0
2, 171782, Control_c, 0, 64, 127
2, 171812, Note_on_c, 0, 68, 0
2, 171832, Note_on_c, 0, 61, 62
2, 171850, Note_on_c, 0, 44, 0
2, 171857, Note_on_c, 0, 46, 47
2, 172044, Note_on_c, 0, 46, 0
2, 172050, Note_on_c, 0, 68, 87
2, 172088, Note_on_c, 0, 61, 0
2, 172099, Note_on_c, 0, 47, 52
2, 172100, Note_on_c, 0, 63, 44
2, 172216, Note_on_c, 0, 47, 0
2, 172250, Note_on_c, 0, 63, 0
2, 172277, Note_on_c, 0, 68, 0
2, 172312, Note_on_c, 0, 44, 53
2, 172318, Note_on_c, 0, 59, 43
2, 172364, Note_on_c, 0, 59, 0
2, 172505, Control_c, 0, 64, 116
2, 172519, Control_c, 0, 64, 77
2, 172532, Note_on_c, 0, 65, 78
2, 172535, Control_c, 0, 64, 60
2, 172550, Control_c, 0, 64, 0
2, 172555, Note_on_c, 0, 63, 56
2, 172558, Note_on_c, 0, 44, 0
2, 172560, Note_on_c, 0, 49, 60
2, 172596, Control_c, 0, 64, 49
2, 172611, Control_c, 0, 64, 61
2, 172626, Control_c, 0, 64, 64
2, 172641, Control_c, 0, 64, 66
2, 172657, Control_c, 0, 64, 69
2, 172671, Control_c, 0, 64, 73
2, 172687, Control_c, 0, 64, 78
2, 172702, Control_c, 0, 64, 83
2, 172717, Control_c, 0, 64, 89
2, 172733, Control_c, 0, 64, 92
2, 172746, Note_on_c, 0, 63, 0
2, 172747, Control_c, 0, 64, 94
2, 172763, Control_c, 0, 64, 96
2, 172778, Control_c, 0, 64, 98
2, 172786, Note_on_c, 0, 61, 66
2, 172793, Control_c, 0, 64, 102
2, 172809, Control_c, 0, 64, 106
2, 172823, Control_c, 0, 64, 112
2, 172838, Control_c, 0, 64, 119
2, 172854, Control_c, 0, 64, 127
2, 172999, Control_c, 0, 64, 92
2, 173005, Note_on_c, 0, 66, 87
2, 173015, Control_c, 0, 64, 69
2, 173030, Control_c, 0, 64, 48
2, 173031, Note_on_c, 0, 61, 0
2, 173032, Note_on_c, 0, 59, 66
2, 173038, Note_on_c, 0, 51, 56
2, 173039, Note_on_c, 0, 65, 0
2, 173046, Control_c, 0, 64, 0
2, 173075, Control_c, 0, 64, 39
2, 173091, Control_c, 0, 64, 57
2, 173105, Control_c, 0, 64, 62
2, 173120, Control_c, 0, 64, 64
2, 173136, Control_c, 0, 64, 65
2, 173151, Control_c, 0, 64, 68
2, 173167, Control_c, 0, 64, 73
2, 173181, Control_c, 0, 64, 81
2, 173184, Note_on_c, 0, 59, 0
2, 173196, Control_c, 0, 64, 91
2, 173212, Control_c, 0, 64, 106
2, 173227, Control_c, 0, 64, 127
2, 173247, Note_on_c, 0, 66, 0
2, 173258, Note_on_c, 0, 58, 66
2, 173568, Note_on_c, 0, 51, 0
2, 173569, Note_on_c, 0, 49, 0
2, 173571, Note_on_c, 0, 68, 85
2, 173579, Control_c, 0, 64, 96
2, 173588, Note_on_c, 0, 56, 69
2, 173593, Control_c, 0, 64, 72
2, 173608, Note_on_c, 0, 53, 58
2, 173609, Control_c, 0, 64, 52
2, 173624, Control_c, 0, 64, 0
2, 173636, Note_on_c, 0, 58, 0
2, 173753, Control_c, 0, 64, 33
2, 173769, Control_c, 0, 64, 51
2, 173784, Control_c, 0, 64, 58
2, 173800, Control_c, 0, 64, 61
2, 173815, Control_c, 0, 64, 63
2, 173830, Control_c, 0, 64, 65
2, 173846, Control_c, 0, 64, 67
2, 173861, Control_c, 0, 64, 72
2, 173861, Note_on_c, 0, 58, 54
2, 173877, Control_c, 0, 64, 78
2, 173884, Note_on_c, 0, 56, 0
2, 173892, Control_c, 0, 64, 87
2, 173906, Control_c, 0, 64, 95
2, 173922, Control_c, 0, 64, 104
2, 173928, Note_on_c, 0, 58, 0
2, 173937, Control_c, 0, 64, 119
2, 173951, Control_c, 0, 64, 127
2, 174076, Note_on_c, 0, 53, 0
2, 174113, Note_on_c, 0, 59, 73
2, 174114, Note_on_c, 0, 49, 61
2, 174118, Control_c, 0, 64, 104
2, 174133, Control_c, 0, 64, 75
2, 174148, Control_c, 0, 64, 60
2, 174164, Control_c, 0, 64, 17
2, 174179, Control_c, 0, 64, 8
2, 174194, Control_c, 0, 64, 43
2, 174210, Control_c, 0, 64, 56
2, 174224, Control_c, 0, 64, 60
2, 174240, Control_c, 0, 64, 63
2, 174255, Control_c, 0, 64, 65
2, 174270, Control_c, 0, 64, 67
2, 174286, Control_c, 0, 64, 71
2, 174291, Note_on_c, 0, 59, 0
2, 174300, Control_c, 0, 64, 78
2, 174316, Control_c, 0, 64, 88
2, 174331, Control_c, 0, 64, 99
2, 174342, Note_on_c, 0, 56, 78
2, 174346, Control_c, 0, 64, 114
2, 174361, Control_c, 0, 64, 127
2, 174540, Note_on_c, 0, 49, 0
2, 174603, Note_on_c, 0, 56, 0
2, 174633, Note_on_c, 0, 58, 79
2, 174646, Note_on_c, 0, 54, 66
2, 174673, Control_c, 0, 64, 95
2, 174689, Control_c, 0, 64, 71
2, 174704, Control_c, 0, 64, 46
2, 174720, Control_c, 0, 64, 0
2, 174870, Control_c, 0, 64, 42
2, 174886, Control_c, 0, 64, 60
2, 174901, Control_c, 0, 64, 65
2, 174911, Note_on_c, 0, 68, 0
2, 174917, Control_c, 0, 64, 72
2, 174932, Control_c, 0, 64, 95
2, 174946, Control_c, 0, 64, 127
2, 175132, Note_on_c, 0, 58, 0
2, 175135, Note_on_c, 0, 66, 86
2, 175162, Note_on_c, 0, 63, 65
2, 175660, Note_on_c, 0, 71, 92
2, 175662, Note_on_c, 0, 66, 0
2, 175687, Note_on_c, 0, 56, 67
2, 175696, Note_on_c, 0, 54, 0
2, 175700, Control_c, 0, 64, 119
2, 175714, Control_c, 0, 64, 76
2, 175730, Control_c, 0, 64, 55
2, 175745, Control_c, 0, 64, 0
2, 175821, Control_c, 0, 64, 37
2, 175837, Control_c, 0, 64, 47
2, 175852, Control_c, 0, 64, 54
2, 175867, Control_c, 0, 64, 59
2, 175882, Control_c, 0, 64, 62
2, 175897, Control_c, 0, 64, 65
2, 175912, Control_c, 0, 64, 69
2, 175928, Control_c, 0, 64, 77
2, 175943, Control_c, 0, 64, 90
2, 175959, Control_c, 0, 64, 103
2, 175974, Control_c, 0, 64, 121
2, 175988, Control_c, 0, 64, 127
2, 176131, Note_on_c, 0, 56, 0
2, 176199, Note_on_c, 0, 68, 63
2, 176219, Note_on_c, 0, 53, 39
2, 176221, Note_on_c, 0, 63, 0
2, 176443, Note_on_c, 0, 51, 53
2, 176445, Note_on_c, 0, 53, 0
2, 176672, Note_on_c, 0, 53, 57
2, 176680, Control_c, 0, 64, 88
2, 176680, Note_on_c, 0, 61, 62
2, 176695, Control_c, 0, 64, 69
2, 176710, Control_c, 0, 64, 57
2, 176726, Control_c, 0, 64, 39
2, 176741, Control_c, 0, 64, 42
2, 176757, Control_c, 0, 64, 52
2, 176772, Control_c, 0, 64, 59
2, 176776, Note_on_c, 0, 51, 0
2, 176787, Control_c, 0, 64, 62
2, 176803, Control_c, 0, 64, 64
2, 176825, Control_c, 0, 64, 67
2, 176840, Control_c, 0, 64, 72
2, 176855, Control_c, 0, 64, 85
2, 176869, Note_on_c, 0, 53, 0
2, 176870, Control_c, 0, 64, 110
2, 176886, Control_c, 0, 64, 127
2, 176912, Note_on_c, 0, 56, 65
2, 176922, Note_on_c, 0, 68, 0
2, 177002, Note_on_c, 0, 71, 0
2, 177163, Note_on_c, 0, 70, 81
2, 177176, Note_on_c, 0, 49, 56
2, 177365, Note_on_c, 0, 49, 0
2, 177368, Note_on_c, 0, 70, 0
2, 177400, Note_on_c, 0, 68, 92
2, 177418, Note_on_c, 0, 51, 69
2, 177631, Note_on_c, 0, 56, 0
2, 177725, Note_on_c, 0, 73, 96
2, 177745, Control_c, 0, 64, 92
2, 177747, Note_on_c, 0, 53, 62
2, 177761, Control_c, 0, 64, 68
2, 177776, Control_c, 0, 64, 34
2, 177791, Control_c, 0, 64, 0
2, 177820, Note_on_c, 0, 51, 0
2, 177866, Control_c, 0, 64, 47
2, 177882, Control_c, 0, 64, 54
2, 177899, Control_c, 0, 64, 59
2, 177913, Control_c, 0, 64, 62
2, 177928, Control_c, 0, 64, 65
2, 177943, Control_c, 0, 64, 69
2, 177959, Control_c, 0, 64, 77
2, 177960, Note_on_c, 0, 53, 0
2, 177965, Note_on_c, 0, 73, 0
2, 177973, Control_c, 0, 64, 90
2, 177988, Control_c, 0, 64, 108
2, 177991, Note_on_c, 0, 54, 60
2, 178004, Control_c, 0, 64, 127
2, 178200, Note_on_c, 0, 54, 0
2, 178200, Note_on_c, 0, 68, 0
2, 178202, Control_c, 0, 64, 83
2, 178203, Note_on_c, 0, 71, 81
2, 178217, Control_c, 0, 64, 62
2, 178232, Control_c, 0, 64, 0
2, 178235, Note_on_c, 0, 56, 52
2, 178262, Control_c, 0, 67, 29
2, 178278, Control_c, 0, 67, 77
2, 178293, Control_c, 0, 64, 41
2, 178293, Control_c, 0, 67, 114
2, 178308, Control_c, 0, 64, 57
2, 178308, Control_c, 0, 67, 127
2, 178323, Control_c, 0, 64, 61
2, 178338, Control_c, 0, 64, 62
2, 178362, Control_c, 0, 64, 63
2, 178376, Control_c, 0, 64, 65
2, 178391, Control_c, 0, 64, 67
2, 178407, Control_c, 0, 64, 73
2, 178422, Control_c, 0, 64, 81
2, 178438, Control_c, 0, 64, 89
2, 178452, Control_c, 0, 64, 92
2, 178456, Note_on_c, 0, 53, 59
2, 178462, Note_on_c, 0, 56, 0
2, 178467, Control_c, 0, 64, 93
2, 178483, Control_c, 0, 64, 93
2, 178498, Control_c, 0, 64, 94
2, 178512, Control_c, 0, 64, 98
2, 178528, Control_c, 0, 64, 104
2, 178543, Control_c, 0, 64, 116
2, 178559, Control_c, 0, 64, 127
2, 178657, Note_on_c, 0, 53, 0
2, 178695, Control_c, 0, 64, 92
2, 178711, Control_c, 0, 64, 69
2, 178711, Note_on_c, 0, 71, 0
2, 178720, Note_on_c, 0, 70, 74
2, 178727, Control_c, 0, 64, 46
2, 178738, Note_on_c, 0, 54, 54
2, 178742, Control_c, 0, 64, 0
2, 178766, Note_on_c, 0, 61, 0
2, 178772, Control_c, 0, 64, 25
2, 178787, Control_c, 0, 64, 54
2, 178803, Control_c, 0, 64, 60
2, 178817, Control_c, 0, 64, 63
2, 178832, Control_c, 0, 64, 66
2, 178848, Control_c, 0, 64, 73
2, 178863, Control_c, 0, 64, 82
2, 178879, Control_c, 0, 64, 98
2, 178891, Note_on_c, 0, 70, 0
2, 178894, Control_c, 0, 64, 127
2, 178909, Control_c, 0, 67, 109
2, 178924, Control_c, 0, 67, 77
2, 178939, Control_c, 0, 67, 26
2, 178954, Control_c, 0, 67, 0
2, 179234, Note_on_c, 0, 54, 0
2, 179249, Note_on_c, 0, 61, 82
2, 179266, Note_on_c, 0, 68, 62
2, 179267, Note_on_c, 0, 53, 60
2, 179460, Note_on_c, 0, 61, 0
2, 179487, Note_on_c, 0, 68, 0
2, 179537, Note_on_c, 0, 66, 79
2, 179550, Note_on_c, 0, 51, 53
2, 179590, Note_on_c, 0, 53, 0
2, 179742, Note_on_c, 0, 66, 0
2, 179746, Note_on_c, 0, 51, 0
2, 179768, Note_on_c, 0, 61, 90
2, 179777, Note_on_c, 0, 65, 73
2, 179783, Control_c, 0, 64, 86
2, 179784, Note_on_c, 0, 49, 65
2, 179799, Control_c, 0, 64, 59
2, 179814, Control_c, 0, 64, 0
2, 179859, Control_c, 0, 64, 55
2, 179874, Control_c, 0, 64, 65
2, 179897, Control_c, 0, 64, 73
2, 179912, Control_c, 0, 64, 89
2, 179928, Control_c, 0, 64, 127
2, 179953, Note_on_c, 0, 61, 0
2, 179984, Note_on_c, 0, 65, 0
2, 179985, Note_on_c, 0, 49, 0
2, 180002, Note_on_c, 0, 67, 88
2, 180016, Note_on_c, 0, 51, 66
2, 180027, Note_on_c, 0, 65, 29
2, 180053, Note_on_c, 0, 65, 0
2, 180218, Note_on_c, 0, 51, 0
2, 180227, Note_on_c, 0, 68, 84
2, 180229, Note_on_c, 0, 61, 98
2, 180240, Note_on_c, 0, 67, 0
2, 180248, Control_c, 0, 64, 89
2, 180252, Note_on_c, 0, 52, 70
2, 180263, Control_c, 0, 64, 62
2, 180278, Control_c, 0, 64, 0
2, 180339, Control_c, 0, 64, 56
2, 180354, Control_c, 0, 64, 63
2, 180370, Control_c, 0, 64, 66
2, 180385, Control_c, 0, 64, 70
2, 180401, Control_c, 0, 64, 76
2, 180416, Control_c, 0, 64, 87
2, 180418, Note_on_c, 0, 61, 0
2, 180425, Note_on_c, 0, 52, 0
2, 180430, Control_c, 0, 64, 112
2, 180446, Control_c, 0, 64, 127
2, 180468, Note_on_c, 0, 49, 78
2, 180783, Note_on_c, 0, 49, 0
2, 180786, Note_on_c, 0, 58, 92
2, 180803, Control_c, 0, 64, 74
2, 180805, Note_on_c, 0, 51, 74
2, 180818, Control_c, 0, 64, 33
2, 180832, Control_c, 0, 64, 0
2, 180894, Control_c, 0, 64, 26
2, 180908, Control_c, 0, 64, 52
2, 180924, Control_c, 0, 64, 59
2, 180939, Control_c, 0, 64, 63
2, 180954, Control_c, 0, 64, 67
2, 180970, Control_c, 0, 64, 77
2, 180985, Control_c, 0, 64, 102
2, 181000, Control_c, 0, 64, 127
2, 181061, Note_on_c, 0, 68, 0
2, 181083, Note_on_c, 0, 58, 0
2, 181260, Note_on_c, 0, 59, 90
2, 181272, Note_on_c, 0, 67, 82
2, 181393, Note_on_c, 0, 67, 0
2, 181500, Note_on_c, 0, 68, 87
2, 181810, Note_on_c, 0, 68, 0
2, 181819, Note_on_c, 0, 70, 84
2, 181822, Note_on_c, 0, 61, 91
2, 181844, Control_c, 0, 64, 103
2, 181859, Control_c, 0, 64, 70
2, 181874, Control_c, 0, 64, 25
2, 181890, Control_c, 0, 64, 0
2, 181908, Note_on_c, 0, 59, 0
2, 182089, Control_c, 0, 64, 13
2, 182104, Control_c, 0, 64, 48
2, 182119, Control_c, 0, 64, 58
2, 182134, Control_c, 0, 64, 62
2, 182149, Control_c, 0, 64, 64
2, 182160, Note_on_c, 0, 39, 78
2, 182165, Control_c, 0, 64, 66
2, 182180, Control_c, 0, 64, 69
2, 182202, Control_c, 0, 64, 74
2, 182217, Control_c, 0, 64, 81
2, 182232, Control_c, 0, 64, 91
2, 182248, Control_c, 0, 64, 99
2, 182263, Control_c, 0, 64, 110
2, 182278, Control_c, 0, 64, 127
2, 182284, Note_on_c, 0, 51, 0
2, 182368, Note_on_c, 0, 39, 0
2, 182416, Note_on_c, 0, 41, 78
2, 182491, Control_c, 0, 64, 104
2, 182506, Control_c, 0, 64, 85
2, 182521, Control_c, 0, 64, 71
2, 182535, Control_c, 0, 64, 60
2, 182550, Control_c, 0, 64, 0
2, 182562, Note_on_c, 0, 61, 0
2, 182651, Note_on_c, 0, 43, 81
2, 182686, Note_on_c, 0, 41, 0
2, 182917, Note_on_c, 0, 44, 80
2, 182936, Note_on_c, 0, 43, 0
2, 183091, Control_c, 0, 64, 10
2, 183106, Control_c, 0, 64, 52
2, 183122, Control_c, 0, 64, 61
2, 183137, Control_c, 0, 64, 65
2, 183152, Control_c, 0, 64, 70
2, 183167, Control_c, 0, 64, 79
2, 183182, Control_c, 0, 64, 110
2, 183198, Control_c, 0, 64, 127
2, 183249, Note_on_c, 0, 70, 0
2, 183416, Note_on_c, 0, 59, 82
2, 183437, Note_on_c, 0, 68, 60
2, 183510, Note_on_c, 0, 59, 0
2, 183578, Note_on_c, 0, 68, 0
2, 183656, Note_on_c, 0, 67, 90
2, 183704, Note_on_c, 0, 67, 0
2, 183970, Note_on_c, 0, 64, 94
2, 183991, Note_on_c, 0, 68, 71
2, 184009, Control_c, 0, 64, 119
2, 184024, Control_c, 0, 64, 80
2, 184039, Control_c, 0, 64, 63
2, 184055, Control_c, 0, 64, 39
2, 184070, Control_c, 0, 64, 0
2, 184100, Control_c, 0, 64, 47
2, 184115, Control_c, 0, 64, 60
2, 184131, Control_c, 0, 64, 64
2, 184146, Control_c, 0, 64, 70
2, 184160, Control_c, 0, 64, 80
2, 184176, Control_c, 0, 64, 104
2, 184191, Control_c, 0, 64, 127
2, 184242, Note_on_c, 0, 44, 0
2, 184448, Note_on_c, 0, 68, 0
2, 184453, Note_on_c, 0, 70, 75
2, 184474, Note_on_c, 0, 43, 50
2, 184633, Note_on_c, 0, 70, 0
2, 184660, Note_on_c, 0, 43, 0
2, 184674, Note_on_c, 0, 71, 93
2, 184681, Note_on_c, 0, 44, 69
2, 184945, Note_on_c, 0, 73, 93
2, 184964, Note_on_c, 0, 46, 78
2, 184974, Control_c, 0, 64, 98
2, 184976, Note_on_c, 0, 71, 0
2, 184989, Control_c, 0, 64, 74
2, 184991, Note_on_c, 0, 44, 0
2, 185004, Control_c, 0, 64, 60
2, 185019, Control_c, 0, 64, 0
2, 185248, Control_c, 0, 64, 31
2, 185271, Control_c, 0, 64, 47
2, 185286, Control_c, 0, 64, 54
2, 185301, Control_c, 0, 64, 60
2, 185316, Control_c, 0, 64, 63
2, 185332, Control_c, 0, 64, 66
2, 185345, Note_on_c, 0, 64, 0
2, 185347, Control_c, 0, 64, 70
2, 185361, Control_c, 0, 64, 77
2, 185377, Control_c, 0, 64, 88
2, 185392, Control_c, 0, 64, 117
2, 185408, Control_c, 0, 64, 127
2, 185488, Note_on_c, 0, 63, 82
2, 185709, Note_on_c, 0, 61, 89
2, 185734, Note_on_c, 0, 63, 0
2, 186022, Note_on_c, 0, 66, 95
2, 186035, Control_c, 0, 64, 104
2, 186051, Control_c, 0, 64, 72
2, 186065, Note_on_c, 0, 61, 0
2, 186066, Control_c, 0, 64, 45
2, 186082, Control_c, 0, 64, 0
2, 186203, Control_c, 0, 64, 23
2, 186219, Control_c, 0, 64, 57
2, 186234, Control_c, 0, 64, 62
2, 186249, Control_c, 0, 64, 63
2, 186265, Control_c, 0, 64, 65
2, 186279, Control_c, 0, 64, 68
2, 186295, Control_c, 0, 64, 75
2, 186310, Control_c, 0, 64, 88
2, 186325, Control_c, 0, 64, 113
2, 186340, Control_c, 0, 64, 127
2, 186529, Note_on_c, 0, 64, 92
2, 186559, Note_on_c, 0, 44, 59
2, 186572, Note_on_c, 0, 66, 0
2, 186593, Note_on_c, 0, 46, 0
2, 186754, Note_on_c, 0, 44, 0
2, 186774, Note_on_c, 0, 46, 82
2, 187094, Control_c, 0, 64, 94
2, 187095, Note_on_c, 0, 46, 0
2, 187095, Note_on_c, 0, 63, 91
2, 187109, Control_c, 0, 64, 70
2, 187117, Note_on_c, 0, 47, 68
2, 187123, Control_c, 0, 64, 47
2, 187125, Note_on_c, 0, 64, 0
2, 187140, Control_c, 0, 64, 0
2, 187215, Note_on_c, 0, 73, 0
2, 187246, Control_c, 0, 64, 37
2, 187261, Control_c, 0, 64, 57
2, 187276, Control_c, 0, 64, 62
2, 187292, Control_c, 0, 64, 65
2, 187306, Control_c, 0, 64, 69
2, 187321, Control_c, 0, 64, 77
2, 187337, Control_c, 0, 64, 94
2, 187352, Control_c, 0, 64, 127
2, 187686, Note_on_c, 0, 75, 94
2, 187704, Note_on_c, 0, 71, 66
2, 187721, Note_on_c, 0, 55, 56
2, 187932, Note_on_c, 0, 71, 0
2, 187938, Note_on_c, 0, 75, 0
2, 187949, Note_on_c, 0, 63, 0
2, 187986, Note_on_c, 0, 70, 85
2, 188071, Note_on_c, 0, 70, 0
2, 188213, Note_on_c, 0, 75, 92
2, 188215, Note_on_c, 0, 55, 0
2, 188225, Control_c, 0, 64, 89
2, 188227, Note_on_c, 0, 71, 75
2, 188233, Note_on_c, 0, 56, 79
2, 188240, Control_c, 0, 64, 63
2, 188255, Control_c, 0, 64, 0
2, 188301, Control_c, 0, 64, 16
2, 188316, Control_c, 0, 64, 58
2, 188340, Control_c, 0, 64, 64
2, 188354, Control_c, 0, 64, 68
2, 188369, Control_c, 0, 64, 74
2, 188385, Control_c, 0, 64, 82
2, 188400, Control_c, 0, 64, 97
2, 188415, Control_c, 0, 64, 127
2, 188451, Note_on_c, 0, 68, 87
2, 188460, Note_on_c, 0, 75, 0
2, 188463, Note_on_c, 0, 56, 0
2, 188505, Note_on_c, 0, 71, 0
2, 188676, Note_on_c, 0, 75, 96
2, 188688, Note_on_c, 0, 66, 82
2, 188694, Note_on_c, 0, 57, 80
2, 188750, Note_on_c, 0, 57, 0
2, 188756, Note_on_c, 0, 47, 0
2, 188844, Note_on_c, 0, 66, 0
2, 188853, Note_on_c, 0, 68, 0
2, 188872, Note_on_c, 0, 75, 0
2, 188909, Note_on_c, 0, 65, 90
2, 189153, Note_on_c, 0, 65, 0
2, 189172, Note_on_c, 0, 74, 95
2, 189183, Note_on_c, 0, 66, 84
2, 189189, Note_on_c, 0, 58, 88
2, 189197, Control_c, 0, 64, 74
2, 189200, Note_on_c, 0, 46, 75
2, 189212, Control_c, 0, 64, 0
2, 189288, Control_c, 0, 64, 49
2, 189304, Control_c, 0, 64, 59
2, 189319, Control_c, 0, 64, 63
2, 189334, Control_c, 0, 64, 66
2, 189351, Control_c, 0, 64, 73
2, 189366, Control_c, 0, 64, 89
2, 189381, Control_c, 0, 64, 127
2, 189466, Note_on_c, 0, 74, 0
2, 189648, Note_on_c, 0, 66, 0
2, 189686, Note_on_c, 0, 75, 98
2, 189702, Note_on_c, 0, 46, 0
2, 189703, Note_on_c, 0, 48, 73
2, 189935, Note_on_c, 0, 66, 84
2, 190015, Note_on_c, 0, 66, 0
2, 190237, Note_on_c, 0, 75, 0
2, 190248, Note_on_c, 0, 77, 94
2, 190260, Note_on_c, 0, 48, 0
2, 190267, Note_on_c, 0, 50, 74
2, 190267, Note_on_c, 0, 65, 78
2, 190302, Control_c, 0, 64, 80
2, 190317, Control_c, 0, 64, 48
2, 190332, Control_c, 0, 64, 0
2, 190408, Control_c, 0, 64, 26
2, 190423, Control_c, 0, 64, 52
2, 190438, Control_c, 0, 64, 61
2, 190453, Control_c, 0, 64, 66
2, 190469, Control_c, 0, 64, 77
2, 190483, Control_c, 0, 64, 97
2, 190486, Note_on_c, 0, 50, 0
2, 190499, Control_c, 0, 64, 127
2, 190585, Note_on_c, 0, 66, 73
2, 190594, Note_on_c, 0, 65, 0
2, 190633, Note_on_c, 0, 58, 0
2, 190822, Note_on_c, 0, 68, 76
2, 190834, Note_on_c, 0, 48, 57
2, 190835, Note_on_c, 0, 56, 60
2, 190845, Note_on_c, 0, 66, 0
2, 190952, Note_on_c, 0, 48, 0
2, 191004, Note_on_c, 0, 56, 0
2, 191039, Note_on_c, 0, 58, 90
2, 191054, Note_on_c, 0, 50, 67
2, 191097, Note_on_c, 0, 68, 0
2, 191100, Note_on_c, 0, 50, 0
2, 191140, Note_on_c, 0, 58, 0
2, 191308, Note_on_c, 0, 59, 89
2, 191327, Note_on_c, 0, 51, 65
2, 191345, Control_c, 0, 64, 87
2, 191360, Control_c, 0, 64, 63
2, 191376, Control_c, 0, 64, 0
2, 191489, Control_c, 0, 64, 23
2, 191505, Control_c, 0, 64, 55
2, 191520, Control_c, 0, 64, 63
2, 191535, Control_c, 0, 64, 68
2, 191550, Control_c, 0, 64, 78
2, 191565, Control_c, 0, 64, 106
2, 191578, Note_on_c, 0, 51, 0
2, 191581, Control_c, 0, 64, 127
2, 191785, Note_on_c, 0, 77, 0
2, 191809, Note_on_c, 0, 75, 94
2, 191829, Note_on_c, 0, 66, 71
2, 191834, Note_on_c, 0, 50, 60
2, 191978, Note_on_c, 0, 50, 0
2, 192055, Note_on_c, 0, 51, 86
2, 192312, Note_on_c, 0, 66, 0
2, 192332, Note_on_c, 0, 80, 92
2, 192350, Note_on_c, 0, 53, 81
2, 192354, Note_on_c, 0, 75, 0
2, 192381, Control_c, 0, 64, 112
2, 192396, Control_c, 0, 64, 75
2, 192399, Note_on_c, 0, 51, 0
2, 192412, Control_c, 0, 64, 55
2, 192427, Control_c, 0, 64, 0
2, 192562, Control_c, 0, 64, 37
2, 192577, Control_c, 0, 64, 54
2, 192592, Control_c, 0, 64, 61
2, 192608, Control_c, 0, 64, 64
2, 192623, Control_c, 0, 64, 66
2, 192639, Control_c, 0, 64, 70
2, 192655, Control_c, 0, 64, 78
2, 192670, Control_c, 0, 64, 93
2, 192685, Control_c, 0, 64, 127
2, 192805, Note_on_c, 0, 59, 0
2, 192823, Note_on_c, 0, 78, 75
2, 192830, Note_on_c, 0, 58, 63
2, 193031, Note_on_c, 0, 58, 0
2, 193059, Note_on_c, 0, 60, 78
2, 193107, Note_on_c, 0, 60, 0
2, 193316, Note_on_c, 0, 61, 91
2, 193318, Note_on_c, 0, 77, 70
2, 193331, Control_c, 0, 64, 71
2, 193345, Control_c, 0, 64, 36
2, 193360, Control_c, 0, 64, 0
2, 193365, Note_on_c, 0, 78, 0
2, 193407, Control_c, 0, 64, 33
2, 193421, Control_c, 0, 64, 60
2, 193436, Control_c, 0, 64, 65
2, 193453, Control_c, 0, 64, 71
2, 193463, Note_on_c, 0, 77, 0
2, 193468, Control_c, 0, 64, 83
2, 193480, Note_on_c, 0, 53, 0
2, 193484, Control_c, 0, 64, 127
2, 193778, Note_on_c, 0, 80, 0
2, 193816, Note_on_c, 0, 78, 81
2, 193826, Note_on_c, 0, 51, 67
2, 194008, Note_on_c, 0, 51, 0
2, 194045, Note_on_c, 0, 77, 88
2, 194045, Note_on_c, 0, 78, 0
2, 194049, Note_on_c, 0, 53, 74
2, 194091, Note_on_c, 0, 77, 0
2, 194336, Note_on_c, 0, 53, 0
2, 194378, Note_on_c, 0, 82, 91
2, 194388, Note_on_c, 0, 54, 71
2, 194420, Control_c, 0, 64, 113
2, 194435, Control_c, 0, 64, 72
2, 194450, Control_c, 0, 64, 44
2, 194465, Control_c, 0, 64, 0
2, 194594, Control_c, 0, 64, 46
2, 194609, Control_c, 0, 64, 60
2, 194624, Control_c, 0, 64, 64
2, 194639, Control_c, 0, 64, 66
2, 194655, Control_c, 0, 64, 69
2, 194670, Control_c, 0, 64, 76
2, 194686, Control_c, 0, 64, 91
2, 194701, Control_c, 0, 64, 127
2, 194890, Note_on_c, 0, 61, 0
2, 194949, Note_on_c, 0, 80, 81
2, 194979, Note_on_c, 0, 60, 52
2, 194981, Note_on_c, 0, 77, 52
2, 195079, Note_on_c, 0, 82, 0
2, 195208, Note_on_c, 0, 62, 54
2, 195232, Note_on_c, 0, 60, 0
2, 195234, Note_on_c, 0, 62, 0
2, 195453, Control_c, 0, 64, 102
2, 195462, Note_on_c, 0, 78, 73
2, 195468, Control_c, 0, 64, 80
2, 195475, Note_on_c, 0, 63, 59
2, 195480, Note_on_c, 0, 77, 0
2, 195484, Control_c, 0, 64, 69
2, 195488, Note_on_c, 0, 75, 59
2, 195492, Note_on_c, 0, 80, 0
2, 195499, Control_c, 0, 64, 64
2, 195514, Control_c, 0, 64, 63
2, 195530, Control_c, 0, 64, 64
2, 195545, Control_c, 0, 64, 66
2, 195559, Control_c, 0, 64, 70
2, 195575, Control_c, 0, 64, 75
2, 195589, Control_c, 0, 64, 81
2, 195605, Control_c, 0, 64, 91
2, 195620, Control_c, 0, 64, 106
2, 195634, Control_c, 0, 64, 127
2, 195765, Note_on_c, 0, 75, 0
2, 195925, Note_on_c, 0, 54, 0
2, 196038, Control_c, 0, 64, 92
2, 196052, Note_on_c, 0, 82, 67
2, 196054, Control_c, 0, 64, 69
2, 196055, Note_on_c, 0, 73, 76
2, 196058, Note_on_c, 0, 78, 0
2, 196068, Control_c, 0, 64, 41
2, 196070, Note_on_c, 0, 53, 47
2, 196084, Control_c, 0, 64, 0
2, 196159, Control_c, 0, 64, 24
2, 196175, Control_c, 0, 64, 48
2, 196190, Control_c, 0, 64, 57
2, 196205, Control_c, 0, 64, 61
2, 196220, Control_c, 0, 64, 63
2, 196235, Control_c, 0, 64, 66
2, 196245, Note_on_c, 0, 53, 0
2, 196251, Control_c, 0, 64, 71
2, 196266, Control_c, 0, 64, 79
2, 196281, Control_c, 0, 64, 88
2, 196297, Control_c, 0, 64, 97
2, 196300, Note_on_c, 0, 55, 50
2, 196312, Control_c, 0, 64, 101
2, 196327, Control_c, 0, 64, 103
2, 196342, Control_c, 0, 64, 110
2, 196357, Control_c, 0, 64, 127
2, 196494, Control_c, 0, 64, 90
2, 196500, Note_on_c, 0, 55, 0
2, 196509, Control_c, 0, 64, 65
2, 196524, Control_c, 0, 64, 0
2, 196529, Note_on_c, 0, 75, 73
2, 196529, Note_on_c, 0, 82, 0
2, 196542, Note_on_c, 0, 56, 53
2, 196585, Control_c, 0, 64, 55
2, 196599, Control_c, 0, 64, 62
2, 196615, Control_c, 0, 64, 65
2, 196630, Control_c, 0, 64, 67
2, 196646, Control_c, 0, 64, 70
2, 196661, Control_c, 0, 64, 74
2, 196676, Control_c, 0, 64, 79
2, 196691, Control_c, 0, 64, 85
2, 196706, Control_c, 0, 64, 90
2, 196722, Control_c, 0, 64, 93
2, 196731, Note_on_c, 0, 63, 0
2, 196738, Control_c, 0, 64, 94
2, 196738, Note_on_c, 0, 73, 0
2, 196753, Control_c, 0, 64, 95
2, 196769, Control_c, 0, 64, 96
2, 196806, Note_on_c, 0, 64, 48
2, 196943, Control_c, 0, 64, 96
2, 196957, Control_c, 0, 64, 97
2, 197032, Note_on_c, 0, 71, 64
2, 197064, Control_c, 0, 64, 98
2, 197067, Note_on_c, 0, 63, 44
2, 197079, Control_c, 0, 64, 98
2, 197088, Note_on_c, 0, 64, 0
2, 197095, Control_c, 0, 64, 100
2, 197110, Control_c, 0, 64, 106
2, 197126, Control_c, 0, 64, 116
2, 197141, Control_c, 0, 64, 127
2, 197232, Note_on_c, 0, 63, 0
2, 197238, Note_on_c, 0, 71, 0
2, 197258, Note_on_c, 0, 70, 76
2, 197294, Note_on_c, 0, 61, 51
2, 197508, Note_on_c, 0, 61, 0
2, 197536, Control_c, 0, 64, 96
2, 197559, Control_c, 0, 64, 78
2, 197561, Note_on_c, 0, 68, 74
2, 197575, Control_c, 0, 64, 64
2, 197584, Note_on_c, 0, 59, 45
2, 197590, Control_c, 0, 64, 43
2, 197606, Control_c, 0, 64, 0
2, 197627, Note_on_c, 0, 70, 0
2, 197651, Control_c, 0, 64, 41
2, 197666, Control_c, 0, 64, 52
2, 197681, Control_c, 0, 64, 57
2, 197697, Control_c, 0, 64, 60
2, 197712, Control_c, 0, 64, 63
2, 197728, Control_c, 0, 64, 66
2, 197743, Control_c, 0, 64, 70
2, 197757, Control_c, 0, 64, 77
2, 197773, Control_c, 0, 64, 87
2, 197788, Control_c, 0, 64, 94
2, 197802, Control_c, 0, 64, 97
2, 197818, Control_c, 0, 64, 100
2, 197833, Control_c, 0, 64, 103
2, 197835, Note_on_c, 0, 63, 60
2, 197840, Note_on_c, 0, 68, 0
2, 197849, Control_c, 0, 64, 108
2, 197864, Control_c, 0, 64, 114
2, 197878, Control_c, 0, 64, 119
2, 197894, Control_c, 0, 64, 121
2, 197909, Control_c, 0, 64, 124
2, 197925, Control_c, 0, 64, 127
2, 198089, Note_on_c, 0, 68, 79
2, 198092, Control_c, 0, 64, 88
2, 198103, Note_on_c, 0, 56, 0
2, 198107, Control_c, 0, 64, 71
2, 198109, Note_on_c, 0, 54, 50
2, 198121, Control_c, 0, 64, 60
2, 198137, Control_c, 0, 64, 35
2, 198138, Note_on_c, 0, 63, 0
2, 198152, Control_c, 0, 64, 25
2, 198168, Control_c, 0, 64, 43
2, 198183, Control_c, 0, 64, 54
2, 198198, Control_c, 0, 64, 59
2, 198213, Control_c, 0, 64, 61
2, 198228, Control_c, 0, 64, 64
2, 198244, Control_c, 0, 64, 68
2, 198259, Control_c, 0, 64, 77
2, 198266, Note_on_c, 0, 68, 0
2, 198274, Control_c, 0, 64, 88
2, 198289, Control_c, 0, 64, 101
2, 198304, Control_c, 0, 64, 111
2, 198327, Control_c, 0, 64, 124
2, 198342, Control_c, 0, 64, 127
2, 198601, Control_c, 0, 64, 104
2, 198617, Control_c, 0, 64, 72
2, 198626, Note_on_c, 0, 68, 70
2, 198632, Control_c, 0, 64, 53
2, 198647, Control_c, 0, 64, 0
2, 198653, Note_on_c, 0, 52, 44
2, 198690, Note_on_c, 0, 54, 0
2, 198722, Control_c, 0, 64, 32
2, 198738, Control_c, 0, 64, 52
2, 198753, Control_c, 0, 64, 59
2, 198769, Control_c, 0, 64, 62
2, 198784, Control_c, 0, 64, 66
2, 198798, Control_c, 0, 64, 71
2, 198814, Control_c, 0, 64, 77
2, 198819, Note_on_c, 0, 59, 0
2, 198829, Control_c, 0, 64, 82
2, 198845, Control_c, 0, 64, 84
2, 198859, Control_c, 0, 64, 86
2, 198866, Note_on_c, 0, 75, 0
2, 198874, Control_c, 0, 64, 88
2, 198890, Control_c, 0, 64, 91
2, 198891, Note_on_c, 0, 68, 0
2, 198905, Control_c, 0, 64, 94
2, 198920, Control_c, 0, 64, 96
2, 198935, Control_c, 0, 64, 97
2, 198981, Control_c, 0, 64, 97
2, 198996, Control_c, 0, 64, 100
2, 199012, Control_c, 0, 64, 105
2, 199027, Control_c, 0, 64, 117
2, 199042, Control_c, 0, 64, 127
2, 199110, Control_c, 0, 64, 111
2, 199126, Control_c, 0, 64, 89
2, 199137, Note_on_c, 0, 74, 61
2, 199140, Control_c, 0, 64, 73
2, 199140, Note_on_c, 0, 68, 57
2, 199150, Note_on_c, 0, 58, 46
2, 199155, Control_c, 0, 64, 59
2, 199171, Control_c, 0, 64, 10
2, 199187, Control_c, 0, 64, 0
2, 199202, Control_c, 0, 64, 18
2, 199218, Control_c, 0, 64, 50
2, 199233, Control_c, 0, 64, 58
2, 199248, Control_c, 0, 64, 61
2, 199263, Control_c, 0, 64, 64
2, 199278, Control_c, 0, 64, 67
2, 199293, Control_c, 0, 64, 71
2, 199308, Control_c, 0, 64, 78
2, 199309, Note_on_c, 0, 68, 0
2, 199324, Control_c, 0, 64, 90
2, 199339, Control_c, 0, 64, 106
2, 199354, Control_c, 0, 64, 127
2, 199365, Note_on_c, 0, 52, 0
2, 199406, Note_on_c, 0, 56, 42
2, 199418, Note_on_c, 0, 58, 0
2, 199618, Note_on_c, 0, 56, 0
2, 199733, Control_c, 0, 64, 115
2, 199745, Note_on_c, 0, 75, 66
2, 199748, Control_c, 0, 64, 85
2, 199761, Note_on_c, 0, 74, 0
2, 199764, Control_c, 0, 64, 67
2, 199770, Note_on_c, 0, 58, 42
2, 199770, Note_on_c, 0, 67, 58
2, 199779, Control_c, 0, 64, 0
2, 199779, Note_on_c, 0, 51, 45
2, 199893, Control_c, 0, 64, 35
2, 199907, Control_c, 0, 64, 57
2, 199922, Control_c, 0, 64, 62
2, 199938, Control_c, 0, 64, 65
2, 199953, Control_c, 0, 64, 69
2, 199969, Control_c, 0, 64, 76
2, 199984, Control_c, 0, 64, 92
2, 199999, Control_c, 0, 64, 127
2, 200009, Note_on_c, 0, 67, 0
2, 200020, Note_on_c, 0, 75, 0
2, 200335, Note_on_c, 0, 68, 71
2, 200351, Note_on_c, 0, 64, 58
2, 200504, Note_on_c, 0, 58, 0
2, 200526, Note_on_c, 0, 51, 0
2, 200560, Note_on_c, 0, 64, 0
2, 200885, Note_on_c, 0, 70, 74
2, 200910, Note_on_c, 0, 49, 55
2, 200916, Note_on_c, 0, 68, 0
2, 200925, Note_on_c, 0, 64, 57
2, 200935, Control_c, 0, 64, 92
2, 200950, Control_c, 0, 64, 64
2, 200967, Control_c, 0, 64, 0
2, 201057, Control_c, 0, 64, 16
2, 201072, Control_c, 0, 64, 46
2, 201088, Control_c, 0, 64, 56
2, 201103, Control_c, 0, 64, 61
2, 201118, Control_c, 0, 64, 64
2, 201134, Control_c, 0, 64, 70
2, 201149, Control_c, 0, 64, 80
2, 201164, Control_c, 0, 64, 106
2, 201174, Note_on_c, 0, 64, 0
2, 201179, Control_c, 0, 64, 127
2, 201398, Note_on_c, 0, 64, 71
2, 201415, Note_on_c, 0, 49, 0
2, 201900, Note_on_c, 0, 63, 63
2, 201934, Note_on_c, 0, 64, 0
2, 201947, Note_on_c, 0, 47, 43
2, 201961, Control_c, 0, 64, 83
2, 201976, Control_c, 0, 64, 62
2, 201991, Control_c, 0, 64, 0
2, 202112, Control_c, 0, 64, 48
2, 202128, Control_c, 0, 64, 57
2, 202143, Control_c, 0, 64, 61
2, 202167, Control_c, 0, 64, 64
2, 202182, Control_c, 0, 64, 68
2, 202196, Control_c, 0, 64, 76
2, 202212, Control_c, 0, 64, 98
2, 202227, Control_c, 0, 64, 127
2, 202409, Note_on_c, 0, 63, 0
2, 202424, Note_on_c, 0, 68, 71
2, 202424, Note_on_c, 0, 70, 0
2, 202462, Note_on_c, 0, 65, 35
2, 202486, Control_c, 0, 64, 100
2, 202501, Control_c, 0, 64, 79
2, 202516, Control_c, 0, 64, 68
2, 202532, Control_c, 0, 64, 60
2, 202546, Control_c, 0, 64, 53
2, 202561, Control_c, 0, 64, 55
2, 202577, Control_c, 0, 64, 60
2, 202592, Control_c, 0, 64, 63
2, 202608, Control_c, 0, 64, 64
2, 202622, Control_c, 0, 64, 65
2, 202637, Control_c, 0, 64, 67
2, 202653, Control_c, 0, 64, 71
2, 202668, Control_c, 0, 64, 78
2, 202684, Control_c, 0, 64, 88
2, 202699, Control_c, 0, 64, 100
2, 202714, Control_c, 0, 64, 117
2, 202730, Control_c, 0, 64, 127
2, 202730, Control_c, 0, 67, 19
2, 202744, Control_c, 0, 67, 38
2, 202759, Control_c, 0, 67, 44
2, 202790, Control_c, 0, 67, 44
2, 202806, Control_c, 0, 67, 42
2, 202820, Control_c, 0, 67, 41
2, 202835, Control_c, 0, 67, 40
2, 202851, Control_c, 0, 67, 38
2, 202865, Control_c, 0, 67, 38
2, 202880, Control_c, 0, 67, 37
2, 202896, Control_c, 0, 67, 35
2, 202911, Control_c, 0, 67, 35
2, 202934, Control_c, 0, 67, 34
2, 202965, Control_c, 0, 64, 97
2, 202977, Note_on_c, 0, 73, 69
2, 202980, Control_c, 0, 64, 73
2, 202989, Note_on_c, 0, 68, 0
2, 202993, Note_on_c, 0, 67, 54
2, 202995, Control_c, 0, 64, 56
2, 203010, Control_c, 0, 64, 0
2, 203020, Note_on_c, 0, 65, 0
2, 203116, Control_c, 0, 67, 35
2, 203132, Control_c, 0, 64, 38
2, 203147, Control_c, 0, 64, 53
2, 203147, Control_c, 0, 67, 35
2, 203161, Control_c, 0, 64, 58
2, 203177, Control_c, 0, 64, 61
2, 203192, Control_c, 0, 64, 64
2, 203207, Control_c, 0, 64, 66
2, 203222, Control_c, 0, 64, 69
2, 203237, Control_c, 0, 64, 73
2, 203253, Control_c, 0, 64, 79
2, 203268, Control_c, 0, 64, 84
2, 203268, Control_c, 0, 67, 35
2, 203285, Control_c, 0, 64, 88
2, 203300, Control_c, 0, 64, 91
2, 203314, Control_c, 0, 64, 92
2, 203314, Control_c, 0, 67, 34
2, 203330, Control_c, 0, 64, 93
2, 203330, Control_c, 0, 67, 34
2, 203360, Control_c, 0, 64, 94
2, 203376, Control_c, 0, 64, 96
2, 203390, Control_c, 0, 64, 98
2, 203406, Control_c, 0, 64, 99
2, 203452, Control_c, 0, 67, 33
2, 203464, Note_on_c, 0, 47, 0
2, 203481, Control_c, 0, 67, 33
2, 203488, Note_on_c, 0, 68, 57
2, 203492, Note_on_c, 0, 46, 42
2, 203567, Note_on_c, 0, 67, 0
2, 203604, Control_c, 0, 67, 32
2, 203755, Note_on_c, 0, 44, 56
2, 203770, Note_on_c, 0, 46, 0
2, 204021, Control_c, 0, 64, 97
2, 204037, Control_c, 0, 64, 91
2, 204052, Control_c, 0, 64, 82
2, 204066, Note_on_c, 0, 68, 0
2, 204067, Control_c, 0, 64, 73
2, 204075, Note_on_c, 0, 70, 55
2, 204082, Control_c, 0, 64, 63
2, 204091, Note_on_c, 0, 44, 0
2, 204099, Control_c, 0, 64, 27
2, 204099, Note_on_c, 0, 43, 45
2, 204114, Control_c, 0, 64, 0
2, 204221, Control_c, 0, 64, 43
2, 204235, Control_c, 0, 64, 56
2, 204251, Control_c, 0, 64, 60
2, 204266, Control_c, 0, 64, 62
2, 204280, Control_c, 0, 64, 64
2, 204296, Control_c, 0, 64, 67
2, 204311, Control_c, 0, 64, 73
2, 204314, Note_on_c, 0, 70, 0
2, 204327, Control_c, 0, 64, 87
2, 204342, Control_c, 0, 64, 111
2, 204356, Control_c, 0, 64, 127
2, 204668, Control_c, 0, 67, 31
2, 204677, Note_on_c, 0, 71, 62
2, 204690, Note_on_c, 0, 51, 47
2, 204706, Note_on_c, 0, 68, 41
2, 204750, Note_on_c, 0, 73, 0
2, 204851, Control_c, 0, 67, 31
2, 204905, Note_on_c, 0, 71, 0
2, 204939, Note_on_c, 0, 70, 69
2, 204940, Note_on_c, 0, 51, 0
2, 204974, Control_c, 0, 67, 30
2, 205050, Control_c, 0, 67, 30
2, 205065, Control_c, 0, 67, 29
2, 205086, Note_on_c, 0, 68, 0
2, 205140, Control_c, 0, 67, 29
2, 205255, Control_c, 0, 67, 29
2, 205259, Note_on_c, 0, 75, 67
2, 205270, Control_c, 0, 67, 30
2, 205274, Note_on_c, 0, 70, 0
2, 205285, Control_c, 0, 64, 89
2, 205286, Note_on_c, 0, 67, 46
2, 205289, Note_on_c, 0, 51, 43
2, 205300, Control_c, 0, 64, 71
2, 205315, Control_c, 0, 64, 57
2, 205315, Control_c, 0, 67, 30
2, 205330, Control_c, 0, 64, 0
2, 205421, Control_c, 0, 64, 35
2, 205436, Control_c, 0, 64, 48
2, 205452, Control_c, 0, 64, 55
2, 205467, Control_c, 0, 64, 59
2, 205481, Control_c, 0, 64, 62
2, 205497, Control_c, 0, 64, 65
2, 205497, Control_c, 0, 67, 30
2, 205512, Control_c, 0, 64, 67
2, 205523, Note_on_c, 0, 51, 0
2, 205528, Control_c, 0, 64, 72
2, 205542, Control_c, 0, 64, 79
2, 205557, Control_c, 0, 64, 88
2, 205573, Control_c, 0, 64, 96
2, 205588, Control_c, 0, 64, 105
2, 205603, Control_c, 0, 64, 119
2, 205619, Control_c, 0, 64, 127
2, 205793, Note_on_c, 0, 73, 63
2, 205799, Note_on_c, 0, 51, 43
2, 205820, Note_on_c, 0, 75, 0
2, 205881, Note_on_c, 0, 73, 0
2, 206003, Note_on_c, 0, 43, 0
2, 206068, Control_c, 0, 67, 29
2, 206114, Control_c, 0, 67, 29
2, 206295, Note_on_c, 0, 71, 57
2, 206306, Note_on_c, 0, 68, 53
2, 206309, Note_on_c, 0, 51, 0
2, 206323, Note_on_c, 0, 50, 49
2, 206340, Control_c, 0, 67, 29
2, 206355, Control_c, 0, 64, 88
2, 206371, Control_c, 0, 64, 70
2, 206386, Control_c, 0, 64, 55
2, 206401, Control_c, 0, 64, 0
2, 206538, Control_c, 0, 67, 28
2, 206554, Control_c, 0, 67, 27
2, 206570, Control_c, 0, 67, 26
2, 206585, Control_c, 0, 67, 24
2, 206615, Control_c, 0, 67, 24
2, 206630, Control_c, 0, 67, 23
2, 206661, Control_c, 0, 67, 23
2, 206676, Control_c, 0, 67, 22
2, 206691, Control_c, 0, 67, 18
2, 206706, Control_c, 0, 67, 10
2, 206721, Control_c, 0, 67, 0
2, 206826, Note_on_c, 0, 70, 52
2, 206835, Note_on_c, 0, 51, 56
2, 206835, Note_on_c, 0, 68, 0
2, 206839, Note_on_c, 0, 66, 56
2, 206857, Note_on_c, 0, 71, 0
2, 206888, Note_on_c, 0, 67, 0
2, 206893, Note_on_c, 0, 50, 0
2, 207374, Note_on_c, 0, 70, 0
2, 207386, Note_on_c, 0, 68, 60
2, 207409, Note_on_c, 0, 53, 54
2, 207450, Note_on_c, 0, 51, 0
2, 207979, Note_on_c, 0, 65, 51
2, 207994, Note_on_c, 0, 66, 0
2, 208206, Note_on_c, 0, 63, 56
2, 208218, Note_on_c, 0, 65, 0
2, 208474, Note_on_c, 0, 62, 60
2, 208482, Note_on_c, 0, 63, 0
2, 208646, Control_c, 0, 64, 36
2, 208661, Control_c, 0, 64, 60
2, 208676, Control_c, 0, 64, 65
2, 208691, Control_c, 0, 64, 72
2, 208706, Control_c, 0, 64, 85
2, 208721, Control_c, 0, 64, 127
2, 208722, Note_on_c, 0, 68, 0
2, 208985, Note_on_c, 0, 51, 61
2, 208994, Note_on_c, 0, 66, 56
2, 208995, Note_on_c, 0, 53, 0
2, 209003, Note_on_c, 0, 63, 52
2, 209026, Control_c, 0, 64, 92
2, 209039, Note_on_c, 0, 62, 0
2, 209041, Control_c, 0, 64, 79
2, 209057, Control_c, 0, 64, 69
2, 209079, Control_c, 0, 64, 63
2, 209095, Control_c, 0, 64, 49
2, 209110, Control_c, 0, 64, 41
2, 209126, Control_c, 0, 64, 43
2, 209141, Control_c, 0, 64, 48
2, 209155, Control_c, 0, 64, 53
2, 209171, Control_c, 0, 64, 57
2, 209186, Control_c, 0, 64, 60
2, 209201, Control_c, 0, 64, 63
2, 209217, Control_c, 0, 64, 66
2, 209231, Control_c, 0, 64, 69
2, 209247, Control_c, 0, 64, 74
2, 209262, Control_c, 0, 64, 80
2, 209277, Control_c, 0, 64, 84
2, 209293, Control_c, 0, 64, 85
2, 209307, Control_c, 0, 64, 86
2, 209322, Control_c, 0, 64, 87
2, 209352, Control_c, 0, 64, 87
2, 209459, Control_c, 0, 64, 86
2, 209474, Control_c, 0, 64, 83
2, 209490, Control_c, 0, 64, 77
2, 209504, Control_c, 0, 64, 71
2, 209519, Control_c, 0, 64, 67
2, 209532, Note_on_c, 0, 56, 63
2, 209535, Control_c, 0, 64, 63
2, 209536, Note_on_c, 0, 65, 63
2, 209544, Note_on_c, 0, 63, 0
2, 209550, Control_c, 0, 64, 53
2, 209566, Control_c, 0, 64, 0
2, 209628, Note_on_c, 0, 51, 0
2, 209668, Note_on_c, 0, 66, 0
2, 210086, Note_on_c, 0, 62, 51
2, 210303, Note_on_c, 0, 60, 54
2, 210351, Note_on_c, 0, 62, 0
2, 210577, Note_on_c, 0, 60, 0
2, 210586, Note_on_c, 0, 62, 39
2, 210813, Control_c, 0, 64, 50
2, 210828, Control_c, 0, 64, 60
2, 210842, Control_c, 0, 64, 64
2, 210858, Control_c, 0, 64, 67
2, 210873, Control_c, 0, 64, 72
2, 210889, Control_c, 0, 64, 84
2, 210904, Control_c, 0, 64, 127
2, 211067, Note_on_c, 0, 70, 55
2, 211087, Note_on_c, 0, 54, 44
2, 211146, Note_on_c, 0, 65, 0
2, 211296, Note_on_c, 0, 53, 58
2, 211299, Note_on_c, 0, 68, 70
2, 211309, Note_on_c, 0, 56, 0
2, 211363, Note_on_c, 0, 70, 0
2, 211376, Note_on_c, 0, 54, 0
2, 211641, Control_c, 0, 64, 117
2, 211651, Note_on_c, 0, 58, 66
2, 211654, Note_on_c, 0, 66, 69
2, 211657, Control_c, 0, 64, 92
2, 211657, Note_on_c, 0, 62, 0
2, 211672, Control_c, 0, 64, 78
2, 211687, Control_c, 0, 64, 65
2, 211691, Note_on_c, 0, 68, 0
2, 211695, Note_on_c, 0, 61, 43
2, 211702, Control_c, 0, 64, 16
2, 211717, Control_c, 0, 64, 0
2, 211794, Note_on_c, 0, 53, 0
2, 212256, Note_on_c, 0, 64, 62
2, 212258, Note_on_c, 0, 56, 55
2, 212308, Note_on_c, 0, 58, 0
2, 212530, Control_c, 0, 64, 21
2, 212545, Control_c, 0, 64, 44
2, 212560, Control_c, 0, 64, 52
2, 212576, Control_c, 0, 64, 56
2, 212591, Control_c, 0, 64, 59
2, 212606, Control_c, 0, 64, 61
2, 212621, Control_c, 0, 64, 64
2, 212636, Control_c, 0, 64, 67
2, 212651, Control_c, 0, 64, 73
2, 212666, Control_c, 0, 64, 82
2, 212681, Control_c, 0, 64, 94
2, 212697, Control_c, 0, 64, 103
2, 212712, Control_c, 0, 64, 106
2, 212757, Control_c, 0, 64, 99
2, 212763, Note_on_c, 0, 55, 53
2, 212767, Note_on_c, 0, 63, 62
2, 212773, Control_c, 0, 64, 88
2, 212778, Note_on_c, 0, 64, 0
2, 212787, Note_on_c, 0, 66, 0
2, 212788, Control_c, 0, 64, 78
2, 212803, Control_c, 0, 64, 74
2, 212803, Note_on_c, 0, 56, 0
2, 212834, Control_c, 0, 64, 75
2, 212849, Control_c, 0, 64, 78
2, 212864, Control_c, 0, 64, 86
2, 212879, Control_c, 0, 64, 105
2, 212895, Control_c, 0, 64, 127
2, 212961, Note_on_c, 0, 61, 0
2, 212975, Note_on_c, 0, 55, 0
2, 213363, Note_on_c, 0, 75, 60
2, 213399, Note_on_c, 0, 59, 41
2, 213405, Control_c, 0, 64, 96
2, 213409, Note_on_c, 0, 51, 36
2, 213420, Control_c, 0, 64, 72
2, 213435, Control_c, 0, 64, 61
2, 213450, Control_c, 0, 64, 38
2, 213465, Control_c, 0, 64, 18
2, 213480, Control_c, 0, 64, 36
2, 213495, Control_c, 0, 64, 50
2, 213510, Control_c, 0, 64, 56
2, 213526, Control_c, 0, 64, 59
2, 213541, Control_c, 0, 64, 62
2, 213556, Control_c, 0, 64, 64
2, 213571, Control_c, 0, 64, 68
2, 213586, Control_c, 0, 64, 77
2, 213601, Control_c, 0, 64, 91
2, 213617, Control_c, 0, 64, 115
2, 213623, Note_on_c, 0, 63, 0
2, 213632, Control_c, 0, 64, 127
2, 213647, Note_on_c, 0, 58, 54
2, 213679, Note_on_c, 0, 59, 0
2, 213831, Note_on_c, 0, 58, 0
2, 213905, Note_on_c, 0, 56, 48
2, 213921, Note_on_c, 0, 59, 61
2, 213930, Note_on_c, 0, 51, 0
2, 213959, Control_c, 0, 64, 108
2, 213975, Control_c, 0, 64, 88
2, 213990, Control_c, 0, 64, 72
2, 214005, Control_c, 0, 64, 60
2, 214021, Control_c, 0, 64, 0
2, 214167, Note_on_c, 0, 71, 65
2, 214387, Note_on_c, 0, 64, 68
2, 214395, Note_on_c, 0, 70, 61
2, 214396, Note_on_c, 0, 59, 0
2, 214396, Note_on_c, 0, 71, 0
2, 214632, Note_on_c, 0, 70, 0
2, 214641, Note_on_c, 0, 68, 64
2, 214937, Note_on_c, 0, 70, 56
2, 214947, Note_on_c, 0, 68, 0
2, 214949, Note_on_c, 0, 61, 51
2, 215015, Note_on_c, 0, 64, 0
2, 215063, Control_c, 0, 64, 8
2, 215078, Control_c, 0, 64, 51
2, 215093, Control_c, 0, 64, 59
2, 215108, Control_c, 0, 64, 63
2, 215123, Control_c, 0, 64, 67
2, 215139, Control_c, 0, 64, 75
2, 215154, Control_c, 0, 64, 94
2, 215170, Control_c, 0, 64, 127
2, 215237, Note_on_c, 0, 56, 0
2, 215247, Note_on_c, 0, 61, 0
2, 215521, Note_on_c, 0, 75, 0
2, 215528, Note_on_c, 0, 73, 64
2, 215578, Note_on_c, 0, 55, 39
2, 215582, Note_on_c, 0, 58, 37
2, 215747, Note_on_c, 0, 73, 0
2, 215800, Note_on_c, 0, 53, 59
2, 215814, Note_on_c, 0, 55, 0
2, 215865, Note_on_c, 0, 58, 0
2, 216002, Note_on_c, 0, 53, 0
2, 216050, Note_on_c, 0, 55, 50
2, 216054, Note_on_c, 0, 73, 81
2, 216075, Note_on_c, 0, 62, 52
2, 216128, Note_on_c, 0, 62, 0
2, 216210, Note_on_c, 0, 70, 0
2, 216239, Note_on_c, 0, 73, 0
2, 216533, Note_on_c, 0, 73, 82
2, 216534, Note_on_c, 0, 54, 63
2, 216539, Control_c, 0, 64, 85
2, 216541, Note_on_c, 0, 55, 0
2, 216544, Note_on_c, 0, 64, 63
2, 216553, Control_c, 0, 64, 67
2, 216559, Note_on_c, 0, 69, 59
2, 216569, Control_c, 0, 64, 42
2, 216584, Control_c, 0, 64, 0
2, 216703, Control_c, 0, 64, 41
2, 216718, Control_c, 0, 64, 53
2, 216734, Control_c, 0, 64, 58
2, 216756, Control_c, 0, 64, 61
2, 216772, Control_c, 0, 64, 64
2, 216787, Control_c, 0, 64, 67
2, 216802, Control_c, 0, 64, 74
2, 216818, Control_c, 0, 64, 85
2, 216832, Control_c, 0, 64, 109
2, 216847, Control_c, 0, 64, 127
2, 217029, Control_c, 0, 64, 102
2, 217032, Note_on_c, 0, 69, 0
2, 217041, Note_on_c, 0, 72, 83
2, 217044, Control_c, 0, 64, 67
2, 217046, Note_on_c, 0, 68, 71
2, 217050, Note_on_c, 0, 63, 71
2, 217060, Control_c, 0, 64, 0
2, 217087, Note_on_c, 0, 73, 0
2, 217150, Control_c, 0, 64, 38
2, 217150, Note_on_c, 0, 64, 0
2, 217165, Control_c, 0, 64, 56
2, 217181, Control_c, 0, 64, 62
2, 217196, Control_c, 0, 64, 65
2, 217213, Control_c, 0, 64, 68
2, 217228, Control_c, 0, 64, 76
2, 217243, Control_c, 0, 64, 92
2, 217249, Note_on_c, 0, 63, 0
2, 217257, Note_on_c, 0, 54, 0
2, 217258, Control_c, 0, 64, 127
2, 217547, Note_on_c, 0, 73, 86
2, 217553, Note_on_c, 0, 61, 69
2, 217567, Note_on_c, 0, 52, 72
2, 217569, Control_c, 0, 64, 103
2, 217585, Control_c, 0, 64, 72
2, 217589, Note_on_c, 0, 72, 0
2, 217600, Control_c, 0, 64, 48
2, 217616, Control_c, 0, 64, 0
2, 217662, Control_c, 0, 64, 36
2, 217676, Control_c, 0, 64, 58
2, 217692, Control_c, 0, 64, 62
2, 217707, Control_c, 0, 64, 63
2, 217721, Control_c, 0, 64, 65
2, 217737, Control_c, 0, 64, 68
2, 217752, Control_c, 0, 64, 78
2, 217767, Control_c, 0, 64, 92
2, 217783, Control_c, 0, 64, 127
2, 218115, Note_on_c, 0, 52, 0
2, 218129, Note_on_c, 0, 75, 84
2, 218140, Note_on_c, 0, 69, 76
2, 218145, Note_on_c, 0, 54, 72
2, 218163, Control_c, 0, 64, 98
2, 218173, Note_on_c, 0, 68, 0
2, 218179, Control_c, 0, 64, 70
2, 218186, Note_on_c, 0, 73, 0
2, 218194, Control_c, 0, 64, 51
2, 218209, Control_c, 0, 64, 0
2, 218415, Control_c, 0, 64, 22
2, 218430, Control_c, 0, 64, 44
2, 218445, Control_c, 0, 64, 52
2, 218460, Control_c, 0, 64, 57
2, 218475, Control_c, 0, 64, 61
2, 218490, Control_c, 0, 64, 64
2, 218506, Control_c, 0, 64, 68
2, 218521, Control_c, 0, 64, 78
2, 218537, Control_c, 0, 64, 105
2, 218552, Control_c, 0, 64, 127
2, 218662, Note_on_c, 0, 61, 0
2, 218673, Control_c, 0, 64, 92
2, 218677, Note_on_c, 0, 60, 62
2, 218677, Note_on_c, 0, 68, 71
2, 218682, Note_on_c, 0, 56, 56
2, 218687, Control_c, 0, 64, 67
2, 218703, Control_c, 0, 64, 0
2, 218739, Note_on_c, 0, 69, 0
2, 218761, Note_on_c, 0, 54, 0
2, 218763, Control_c, 0, 64, 8
2, 218779, Control_c, 0, 64, 51
2, 218794, Control_c, 0, 64, 57
2, 218809, Control_c, 0, 64, 60
2, 218825, Control_c, 0, 64, 62
2, 218841, Control_c, 0, 64, 63
2, 218857, Control_c, 0, 64, 66
2, 218871, Control_c, 0, 64, 68
2, 218886, Control_c, 0, 64, 73
2, 218900, Note_on_c, 0, 66, 85
2, 218902, Control_c, 0, 64, 78
2, 218917, Control_c, 0, 64, 82
2, 218933, Control_c, 0, 64, 86
2, 218947, Control_c, 0, 64, 89
2, 218962, Control_c, 0, 64, 96
2, 218978, Control_c, 0, 64, 112
2, 218992, Control_c, 0, 64, 127
2, 219174, Note_on_c, 0, 68, 0
2, 219185, Note_on_c, 0, 64, 84
2, 219205, Note_on_c, 0, 57, 69
2, 219208, Note_on_c, 0, 66, 0
2, 219213, Control_c, 0, 64, 87
2, 219219, Note_on_c, 0, 61, 60
2, 219228, Control_c, 0, 64, 65
2, 219243, Control_c, 0, 64, 0
2, 219247, Note_on_c, 0, 60, 0
2, 219257, Note_on_c, 0, 56, 0
2, 219365, Control_c, 0, 64, 35
2, 219381, Control_c, 0, 64, 58
2, 219396, Control_c, 0, 64, 64
2, 219410, Control_c, 0, 64, 70
2, 219410, Note_on_c, 0, 64, 0
2, 219426, Control_c, 0, 64, 78
2, 219441, Control_c, 0, 64, 89
2, 219457, Control_c, 0, 64, 117
2, 219472, Control_c, 0, 64, 127
2, 219536, Note_on_c, 0, 75, 0
2, 219679, Note_on_c, 0, 73, 87
2, 219701, Note_on_c, 0, 66, 66
2, 219873, Note_on_c, 0, 66, 0
2, 219915, Note_on_c, 0, 68, 86
2, 220191, Note_on_c, 0, 78, 92
2, 220194, Control_c, 0, 64, 95
2, 220209, Control_c, 0, 64, 64
2, 220209, Note_on_c, 0, 73, 0
2, 220215, Note_on_c, 0, 69, 67
2, 220224, Control_c, 0, 64, 0
2, 220244, Note_on_c, 0, 68, 0
2, 220285, Control_c, 0, 64, 34
2, 220301, Control_c, 0, 64, 60
2, 220316, Control_c, 0, 64, 64
2, 220330, Control_c, 0, 64, 67
2, 220346, Control_c, 0, 64, 71
2, 220361, Control_c, 0, 64, 82
2, 220377, Control_c, 0, 64, 113
2, 220386, Note_on_c, 0, 57, 0
2, 220391, Control_c, 0, 64, 127
2, 220426, Note_on_c, 0, 61, 0
2, 220485, Note_on_c, 0, 69, 0
2, 220709, Note_on_c, 0, 63, 72
2, 220710, Note_on_c, 0, 56, 61
2, 220934, Note_on_c, 0, 56, 0
2, 220937, Note_on_c, 0, 54, 78
2, 220974, Note_on_c, 0, 63, 0
2, 221198, Note_on_c, 0, 68, 80
2, 221200, Note_on_c, 0, 56, 66
2, 221209, Note_on_c, 0, 60, 76
2, 221215, Note_on_c, 0, 54, 0
2, 221220, Control_c, 0, 64, 75
2, 221234, Control_c, 0, 64, 29
2, 221249, Control_c, 0, 64, 0
2, 221326, Control_c, 0, 64, 52
2, 221342, Control_c, 0, 64, 62
2, 221364, Control_c, 0, 64, 66
2, 221380, Control_c, 0, 64, 74
2, 221395, Control_c, 0, 64, 95
2, 221410, Control_c, 0, 64, 127
2, 221432, Note_on_c, 0, 56, 0
2, 221469, Note_on_c, 0, 78, 0
2, 221689, Note_on_c, 0, 60, 0
2, 221701, Note_on_c, 0, 76, 82
2, 221709, Note_on_c, 0, 58, 72
2, 221710, Note_on_c, 0, 61, 74
2, 221839, Note_on_c, 0, 61, 0
2, 221877, Note_on_c, 0, 58, 0
2, 221909, Note_on_c, 0, 76, 0
2, 221949, Note_on_c, 0, 75, 89
2, 222301, Note_on_c, 0, 80, 92
2, 222326, Note_on_c, 0, 62, 75
2, 222330, Control_c, 0, 64, 108
2, 222334, Note_on_c, 0, 59, 68
2, 222346, Control_c, 0, 64, 72
2, 222361, Control_c, 0, 64, 46
2, 222376, Control_c, 0, 64, 0
2, 222482, Control_c, 0, 64, 36
2, 222498, Control_c, 0, 64, 57
2, 222512, Control_c, 0, 64, 64
2, 222527, Control_c, 0, 64, 68
2, 222543, Control_c, 0, 64, 74
2, 222558, Control_c, 0, 64, 88
2, 222574, Control_c, 0, 64, 127
2, 222576, Note_on_c, 0, 75, 0
2, 222579, Note_on_c, 0, 68, 0
2, 222582, Note_on_c, 0, 80, 0
2, 222844, Note_on_c, 0, 78, 84
2, 222847, Control_c, 0, 64, 80
2, 222862, Control_c, 0, 64, 66
2, 222877, Control_c, 0, 64, 60
2, 222881, Note_on_c, 0, 69, 50
2, 222900, Control_c, 0, 64, 61
2, 222915, Control_c, 0, 64, 63
2, 222930, Control_c, 0, 64, 67
2, 222946, Control_c, 0, 64, 71
2, 222961, Control_c, 0, 64, 77
2, 222977, Control_c, 0, 64, 83
2, 222992, Control_c, 0, 64, 91
2, 223007, Control_c, 0, 64, 97
2, 223013, Note_on_c, 0, 78, 0
2, 223022, Control_c, 0, 64, 104
2, 223032, Note_on_c, 0, 69, 0
2, 223037, Control_c, 0, 64, 111
2, 223053, Control_c, 0, 64, 127
2, 223059, Note_on_c, 0, 62, 0
2, 223080, Note_on_c, 0, 71, 79
2, 223352, Note_on_c, 0, 77, 82
2, 223355, Control_c, 0, 64, 80
2, 223367, Note_on_c, 0, 71, 0
2, 223370, Control_c, 0, 64, 61
2, 223386, Control_c, 0, 64, 0
2, 223397, Note_on_c, 0, 61, 45
2, 223462, Control_c, 0, 64, 22
2, 223477, Control_c, 0, 64, 51
2, 223493, Control_c, 0, 64, 58
2, 223501, Note_on_c, 0, 59, 0
2, 223508, Control_c, 0, 64, 63
2, 223523, Control_c, 0, 64, 67
2, 223539, Control_c, 0, 64, 74
2, 223553, Control_c, 0, 64, 87
2, 223568, Control_c, 0, 64, 127
2, 223641, Note_on_c, 0, 61, 0
2, 223841, Note_on_c, 0, 63, 47
2, 223849, Note_on_c, 0, 73, 72
2, 223880, Note_on_c, 0, 58, 46
2, 223890, Note_on_c, 0, 77, 0
2, 223915, Note_on_c, 0, 63, 0
2, 224070, Note_on_c, 0, 65, 79
2, 224073, Note_on_c, 0, 58, 0
2, 224078, Note_on_c, 0, 56, 66
2, 224271, Note_on_c, 0, 65, 0
2, 224299, Note_on_c, 0, 56, 0
2, 224329, Note_on_c, 0, 78, 91
2, 224344, Note_on_c, 0, 66, 72
2, 224346, Note_on_c, 0, 58, 63
2, 224347, Note_on_c, 0, 73, 0
2, 224352, Control_c, 0, 64, 108
2, 224367, Control_c, 0, 64, 77
2, 224382, Control_c, 0, 64, 62
2, 224397, Control_c, 0, 64, 0
2, 224401, Note_on_c, 0, 66, 0
2, 224561, Note_on_c, 0, 68, 76
2, 224633, Control_c, 0, 64, 53
2, 224648, Control_c, 0, 64, 67
2, 224664, Control_c, 0, 64, 80
2, 224679, Control_c, 0, 64, 127
2, 224853, Note_on_c, 0, 75, 84
2, 224871, Note_on_c, 0, 69, 53
2, 224888, Note_on_c, 0, 68, 0
2, 224893, Control_c, 0, 64, 81
2, 224897, Note_on_c, 0, 60, 59
2, 224908, Control_c, 0, 64, 64
2, 224915, Note_on_c, 0, 58, 0
2, 224923, Control_c, 0, 64, 0
2, 225406, Note_on_c, 0, 60, 0
2, 225433, Note_on_c, 0, 61, 62
2, 225437, Note_on_c, 0, 73, 70
2, 225524, Control_c, 0, 64, 48
2, 225540, Control_c, 0, 64, 59
2, 225554, Control_c, 0, 64, 64
2, 225569, Control_c, 0, 64, 69
2, 225585, Control_c, 0, 64, 85
2, 225600, Control_c, 0, 64, 127
2, 225663, Note_on_c, 0, 73, 0
2, 225882, Note_on_c, 0, 69, 0
2, 225893, Note_on_c, 0, 75, 0
2, 225897, Note_on_c, 0, 78, 0
2, 225954, Note_on_c, 0, 71, 76
2, 226005, Note_on_c, 0, 68, 43
2, 226192, Note_on_c, 0, 68, 0
2, 226223, Note_on_c, 0, 66, 63
2, 226232, Note_on_c, 0, 71, 0
2, 226293, Note_on_c, 0, 66, 0
2, 226561, Note_on_c, 0, 77, 84
2, 226568, Note_on_c, 0, 71, 76
2, 226582, Note_on_c, 0, 68, 63
2, 226586, Note_on_c, 0, 49, 67
2, 226596, Control_c, 0, 64, 77
2, 226612, Control_c, 0, 64, 58
2, 226626, Control_c, 0, 64, 0
2, 226659, Note_on_c, 0, 61, 0
2, 226685, Control_c, 0, 64, 53
2, 226701, Control_c, 0, 64, 60
2, 226716, Control_c, 0, 64, 62
2, 226737, Control_c, 0, 64, 65
2, 226753, Control_c, 0, 64, 68
2, 226768, Control_c, 0, 64, 73
2, 226784, Control_c, 0, 64, 87
2, 226799, Control_c, 0, 64, 127
2, 226832, Note_on_c, 0, 71, 0
2, 226956, Note_on_c, 0, 68, 0
2, 227048, Note_on_c, 0, 77, 0
2, 227108, Note_on_c, 0, 71, 90
2, 227587, Note_on_c, 0, 71, 0
2, 227617, Note_on_c, 0, 70, 82
2, 227627, Note_on_c, 0, 78, 75
2, 227643, Control_c, 0, 64, 103
2, 227647, Note_on_c, 0, 54, 64
2, 227652, Note_on_c, 0, 66, 50
2, 227657, Control_c, 0, 64, 69
2, 227664, Note_on_c, 0, 49, 0
2, 227673, Control_c, 0, 64, 0
2, 227733, Note_on_c, 0, 66, 0
2, 227749, Control_c, 0, 64, 54
2, 227764, Control_c, 0, 64, 60
2, 227780, Control_c, 0, 64, 63
2, 227795, Control_c, 0, 64, 66
2, 227810, Control_c, 0, 64, 70
2, 227826, Control_c, 0, 64, 79
2, 227838, Note_on_c, 0, 54, 0
2, 227841, Control_c, 0, 64, 98
2, 227856, Control_c, 0, 64, 127
2, 227876, Note_on_c, 0, 53, 67
2, 228094, Note_on_c, 0, 71, 92
2, 228100, Control_c, 0, 64, 93
2, 228101, Note_on_c, 0, 54, 69
2, 228115, Control_c, 0, 64, 66
2, 228119, Note_on_c, 0, 53, 0
2, 228125, Note_on_c, 0, 70, 0
2, 228129, Control_c, 0, 64, 37
2, 228145, Control_c, 0, 64, 0
2, 228175, Control_c, 0, 64, 42
2, 228191, Control_c, 0, 64, 60
2, 228206, Control_c, 0, 64, 64
2, 228221, Control_c, 0, 64, 67
2, 228236, Control_c, 0, 64, 70
2, 228251, Control_c, 0, 64, 76
2, 228275, Control_c, 0, 64, 87
2, 228289, Control_c, 0, 64, 121
2, 228305, Control_c, 0, 64, 127
2, 228313, Note_on_c, 0, 54, 0
2, 228340, Note_on_c, 0, 56, 81
2, 228602, Note_on_c, 0, 73, 95
2, 228605, Note_on_c, 0, 56, 0
2, 228608, Control_c, 0, 64, 117
2, 228624, Control_c, 0, 64, 77
2, 228626, Note_on_c, 0, 58, 62
2, 228634, Note_on_c, 0, 71, 0
2, 228639, Control_c, 0, 64, 54
2, 228654, Control_c, 0, 64, 0
2, 228823, Control_c, 0, 64, 43
2, 228838, Control_c, 0, 64, 53
2, 228846, Note_on_c, 0, 54, 59
2, 228852, Control_c, 0, 64, 58
2, 228865, Note_on_c, 0, 58, 0
2, 228868, Control_c, 0, 64, 61
2, 228883, Control_c, 0, 64, 63
2, 228899, Control_c, 0, 64, 67
2, 228914, Control_c, 0, 64, 76
2, 228928, Control_c, 0, 64, 94
2, 228944, Control_c, 0, 64, 127
2, 229110, Note_on_c, 0, 56, 61
2, 229116, Note_on_c, 0, 76, 72
2, 229134, Control_c, 0, 64, 94
2, 229149, Control_c, 0, 64, 70
2, 229164, Control_c, 0, 64, 50
2, 229180, Control_c, 0, 64, 0
2, 229195, Note_on_c, 0, 54, 0
2, 229240, Control_c, 0, 64, 33
2, 229255, Control_c, 0, 64, 54
2, 229270, Control_c, 0, 64, 59
2, 229285, Control_c, 0, 64, 63
2, 229301, Control_c, 0, 64, 65
2, 229316, Control_c, 0, 64, 70
2, 229319, Note_on_c, 0, 56, 0
2, 229331, Control_c, 0, 64, 80
2, 229335, Note_on_c, 0, 58, 73
2, 229346, Control_c, 0, 64, 98
2, 229361, Control_c, 0, 64, 127
2, 229552, Note_on_c, 0, 58, 0
2, 229577, Note_on_c, 0, 75, 86
2, 229590, Control_c, 0, 64, 100
2, 229603, Note_on_c, 0, 59, 56
2, 229605, Control_c, 0, 64, 70
2, 229621, Control_c, 0, 64, 42
2, 229636, Control_c, 0, 64, 0
2, 229669, Note_on_c, 0, 76, 0
2, 229681, Control_c, 0, 64, 40
2, 229696, Control_c, 0, 64, 61
2, 229712, Control_c, 0, 64, 64
2, 229727, Control_c, 0, 64, 67
2, 229736, Note_on_c, 0, 59, 0
2, 229743, Control_c, 0, 64, 70
2, 229758, Control_c, 0, 64, 76
2, 229772, Control_c, 0, 64, 88
2, 229788, Control_c, 0, 64, 127
2, 229824, Note_on_c, 0, 61, 82
2, 230029, Note_on_c, 0, 61, 0
2, 230054, Note_on_c, 0, 71, 96
2, 230069, Note_on_c, 0, 63, 73
2, 230071, Note_on_c, 0, 75, 0
2, 230084, Note_on_c, 0, 73, 0
2, 230227, Note_on_c, 0, 63, 0
2, 230301, Note_on_c, 0, 59, 80
2, 230586, Note_on_c, 0, 59, 0
2, 230600, Note_on_c, 0, 76, 92
2, 230602, Note_on_c, 0, 71, 0
2, 230622, Note_on_c, 0, 61, 74
2, 230625, Control_c, 0, 64, 121
2, 230640, Control_c, 0, 64, 73
2, 230656, Control_c, 0, 64, 0
2, 230732, Control_c, 0, 64, 45
2, 230747, Control_c, 0, 64, 60
2, 230761, Control_c, 0, 64, 64
2, 230777, Control_c, 0, 64, 69
2, 230792, Control_c, 0, 64, 77
2, 230807, Control_c, 0, 64, 97
2, 230823, Control_c, 0, 64, 127
2, 230833, Note_on_c, 0, 61, 0
2, 230882, Note_on_c, 0, 59, 61
2, 231093, Note_on_c, 0, 59, 0
2, 231129, Note_on_c, 0, 73, 71
2, 231135, Note_on_c, 0, 58, 57
2, 231345, Note_on_c, 0, 73, 0
2, 231357, Note_on_c, 0, 71, 86
2, 231368, Note_on_c, 0, 58, 0
2, 231377, Note_on_c, 0, 56, 68
2, 231586, Note_on_c, 0, 56, 0
2, 231598, Note_on_c, 0, 70, 95
2, 231613, Note_on_c, 0, 54, 76
2, 231627, Note_on_c, 0, 71, 0
2, 231636, Control_c, 0, 64, 124
2, 231652, Control_c, 0, 64, 74
2, 231667, Control_c, 0, 64, 43
2, 231682, Control_c, 0, 64, 0
2, 231757, Note_on_c, 0, 76, 0
2, 231774, Control_c, 0, 64, 29
2, 231789, Control_c, 0, 64, 57
2, 231796, Note_on_c, 0, 54, 0
2, 231803, Control_c, 0, 64, 63
2, 231819, Control_c, 0, 64, 70
2, 231832, Note_on_c, 0, 56, 80
2, 231834, Control_c, 0, 64, 85
2, 231849, Control_c, 0, 64, 127
2, 232050, Note_on_c, 0, 75, 83
2, 232053, Note_on_c, 0, 54, 73
2, 232065, Note_on_c, 0, 56, 0
2, 232093, Note_on_c, 0, 54, 0
2, 232135, Note_on_c, 0, 70, 0
2, 232252, Note_on_c, 0, 78, 0
2, 232264, Note_on_c, 0, 75, 0
2, 232284, Note_on_c, 0, 73, 89
2, 232319, Note_on_c, 0, 52, 72
2, 232327, Note_on_c, 0, 73, 0
2, 232542, Note_on_c, 0, 52, 0
2, 232555, Note_on_c, 0, 78, 96
2, 232556, Note_on_c, 0, 82, 88
2, 232583, Note_on_c, 0, 51, 85
2, 232602, Control_c, 0, 64, 98
2, 232618, Control_c, 0, 64, 68
2, 232633, Control_c, 0, 64, 35
2, 232647, Control_c, 0, 64, 0
2, 232693, Control_c, 0, 64, 13
2, 232708, Control_c, 0, 64, 57
2, 232723, Control_c, 0, 64, 63
2, 232739, Control_c, 0, 64, 68
2, 232754, Control_c, 0, 64, 74
2, 232763, Note_on_c, 0, 51, 0
2, 232770, Control_c, 0, 64, 93
2, 232786, Control_c, 0, 64, 127
2, 232799, Note_on_c, 0, 49, 82
2, 233007, Note_on_c, 0, 49, 0
2, 233024, Note_on_c, 0, 76, 99
2, 233037, Note_on_c, 0, 47, 77
2, 233049, Note_on_c, 0, 78, 0
2, 233049, Note_on_c, 0, 78, 6
2, 233083, Note_on_c, 0, 78, 0
2, 233193, Note_on_c, 0, 47, 0
2, 233261, Note_on_c, 0, 46, 80
2, 233405, Note_on_c, 0, 46, 0
2, 233507, Control_c, 0, 64, 77
2, 233508, Note_on_c, 0, 75, 98
2, 233522, Control_c, 0, 64, 47
2, 233524, Note_on_c, 0, 47, 93
2, 233537, Control_c, 0, 64, 0
2, 233551, Note_on_c, 0, 82, 0
2, 233560, Note_on_c, 0, 76, 0
2, 233575, Note_on_c, 0, 47, 0
2, 233583, Control_c, 0, 64, 55
2, 233599, Control_c, 0, 64, 69
2, 233615, Control_c, 0, 64, 91
2, 233630, Control_c, 0, 64, 127
2, 234026, Note_on_c, 0, 63, 88
2, 234040, Note_on_c, 0, 80, 72
2, 234047, Note_on_c, 0, 75, 0
2, 234053, Note_on_c, 0, 59, 61
2, 234273, Note_on_c, 0, 59, 0
2, 234274, Note_on_c, 0, 80, 0
2, 234276, Note_on_c, 0, 58, 82
2, 234282, Note_on_c, 0, 79, 83
2, 234283, Note_on_c, 0, 63, 0
2, 234556, Note_on_c, 0, 58, 0
2, 234576, Note_on_c, 0, 63, 91
2, 234582, Note_on_c, 0, 80, 73
2, 234590, Note_on_c, 0, 59, 61
2, 234606, Note_on_c, 0, 79, 0
2, 234618, Control_c, 0, 64, 90
2, 234633, Control_c, 0, 64, 65
2, 234647, Control_c, 0, 64, 0
2, 234708, Control_c, 0, 64, 53
2, 234723, Control_c, 0, 64, 64
2, 234739, Control_c, 0, 64, 69
2, 234755, Control_c, 0, 64, 76
2, 234769, Control_c, 0, 64, 87
2, 234785, Control_c, 0, 64, 119
2, 234800, Control_c, 0, 64, 127
2, 234836, Note_on_c, 0, 63, 0
2, 234909, Note_on_c, 0, 59, 0
2, 235049, Note_on_c, 0, 68, 80
2, 235060, Note_on_c, 0, 63, 89
2, 235081, Note_on_c, 0, 61, 62
2, 235233, Note_on_c, 0, 61, 0
2, 235293, Note_on_c, 0, 59, 69
2, 235521, Note_on_c, 0, 59, 0
2, 235544, Note_on_c, 0, 61, 89
2, 235546, Note_on_c, 0, 58, 58
2, 235563, Note_on_c, 0, 70, 73
2, 235568, Control_c, 0, 64, 116
2, 235579, Note_on_c, 0, 63, 0
2, 235584, Control_c, 0, 64, 77
2, 235596, Note_on_c, 0, 68, 0
2, 235599, Control_c, 0, 64, 58
2, 235614, Control_c, 0, 64, 0
2, 235674, Control_c, 0, 64, 39
2, 235689, Control_c, 0, 64, 59
2, 235705, Control_c, 0, 64, 63
2, 235720, Control_c, 0, 64, 65
2, 235736, Control_c, 0, 64, 68
2, 235750, Control_c, 0, 64, 73
2, 235765, Control_c, 0, 64, 82
2, 235781, Control_c, 0, 64, 95
2, 235796, Control_c, 0, 64, 115
2, 235811, Control_c, 0, 64, 127
2, 236036, Note_on_c, 0, 63, 86
2, 236054, Note_on_c, 0, 71, 64
2, 236079, Note_on_c, 0, 70, 0
2, 236193, Note_on_c, 0, 61, 0
2, 236248, Note_on_c, 0, 63, 0
2, 236278, Note_on_c, 0, 58, 0
2, 236605, Note_on_c, 0, 64, 90
2, 236625, Control_c, 0, 64, 86
2, 236629, Note_on_c, 0, 73, 56
2, 236631, Note_on_c, 0, 57, 61
2, 236640, Control_c, 0, 64, 64
2, 236656, Control_c, 0, 64, 0
2, 236670, Note_on_c, 0, 71, 0
2, 236754, Control_c, 0, 64, 37
2, 236769, Control_c, 0, 64, 52
2, 236785, Control_c, 0, 64, 60
2, 236799, Control_c, 0, 64, 63
2, 236815, Control_c, 0, 64, 66
2, 236830, Control_c, 0, 64, 70
2, 236845, Control_c, 0, 64, 79
2, 236861, Control_c, 0, 64, 94
2, 236870, Note_on_c, 0, 80, 0
2, 236877, Control_c, 0, 64, 127
2, 237081, Note_on_c, 0, 64, 0
2, 237107, Note_on_c, 0, 57, 0
2, 237119, Note_on_c, 0, 79, 83
2, 237654, Note_on_c, 0, 56, 81
2, 237677, Note_on_c, 0, 80, 73
2, 237690, Control_c, 0, 64, 95
2, 237706, Control_c, 0, 64, 67
2, 237706, Note_on_c, 0, 79, 0
2, 237721, Control_c, 0, 64, 0
2, 237782, Control_c, 0, 64, 13
2, 237796, Control_c, 0, 64, 57
2, 237811, Control_c, 0, 64, 63
2, 237827, Control_c, 0, 64, 67
2, 237842, Control_c, 0, 64, 73
2, 237858, Control_c, 0, 64, 86
2, 237872, Control_c, 0, 64, 127
2, 237880, Note_on_c, 0, 73, 0
2, 237909, Note_on_c, 0, 73, 9
2, 238183, Note_on_c, 0, 71, 73
2, 238191, Note_on_c, 0, 63, 90
2, 238445, Note_on_c, 0, 70, 92
2, 238488, Note_on_c, 0, 71, 0
2, 238525, Note_on_c, 0, 70, 0
2, 238602, Note_on_c, 0, 63, 0
2, 238637, Note_on_c, 0, 56, 0
2, 238758, Note_on_c, 0, 80, 0
2, 238759, Note_on_c, 0, 68, 98
2, 238766, Note_on_c, 0, 73, 0
2, 238769, Note_on_c, 0, 71, 84
2, 238807, Control_c, 0, 64, 83
2, 238823, Control_c, 0, 64, 67
2, 238837, Control_c, 0, 64, 61
2, 238853, Control_c, 0, 64, 61
2, 238868, Control_c, 0, 64, 64
2, 238883, Control_c, 0, 64, 69
2, 238899, Control_c, 0, 64, 79
2, 238916, Control_c, 0, 64, 96
2, 238932, Control_c, 0, 64, 127
2, 239032, Note_on_c, 0, 54, 70
2, 239113, Note_on_c, 0, 54, 0
2, 239250, Note_on_c, 0, 78, 89
2, 239268, Note_on_c, 0, 53, 52
2, 239458, Note_on_c, 0, 78, 0
2, 239471, Note_on_c, 0, 53, 0
2, 239499, Note_on_c, 0, 51, 85
2, 239720, Note_on_c, 0, 51, 0
2, 239756, Note_on_c, 0, 77, 88
2, 239766, Note_on_c, 0, 50, 77
2, 239775, Control_c, 0, 64, 73
2, 239797, Control_c, 0, 64, 43
2, 239813, Control_c, 0, 64, 0
2, 239904, Control_c, 0, 64, 35
2, 239918, Control_c, 0, 64, 59
2, 239932, Note_on_c, 0, 71, 0
2, 239934, Control_c, 0, 64, 66
2, 239949, Control_c, 0, 64, 73
2, 239964, Control_c, 0, 64, 91
2, 239978, Note_on_c, 0, 68, 0
2, 239980, Control_c, 0, 64, 127
2, 240242, Note_on_c, 0, 66, 87
2, 240264, Note_on_c, 0, 70, 54
2, 240323, Note_on_c, 0, 70, 0
2, 240342, Note_on_c, 0, 66, 0
2, 240481, Note_on_c, 0, 65, 90
2, 240486, Note_on_c, 0, 68, 77
2, 240544, Note_on_c, 0, 68, 0
2, 240603, Note_on_c, 0, 65, 0
2, 240786, Note_on_c, 0, 70, 87
2, 240809, Control_c, 0, 64, 86
2, 240824, Control_c, 0, 64, 63
2, 240839, Control_c, 0, 64, 0
2, 240899, Control_c, 0, 64, 40
2, 240914, Control_c, 0, 64, 62
2, 240930, Control_c, 0, 64, 65
2, 240944, Control_c, 0, 64, 68
2, 240960, Control_c, 0, 64, 72
2, 240976, Control_c, 0, 64, 79
2, 240991, Control_c, 0, 64, 91
2, 241007, Control_c, 0, 64, 114
2, 241022, Control_c, 0, 64, 127
2, 241241, Note_on_c, 0, 50, 0
2, 241300, Note_on_c, 0, 68, 74
2, 241308, Note_on_c, 0, 48, 50
2, 241548, Note_on_c, 0, 46, 55
2, 241562, Note_on_c, 0, 48, 0
2, 241735, Note_on_c, 0, 68, 0
2, 241806, Control_c, 0, 64, 90
2, 241821, Control_c, 0, 64, 65
2, 241822, Note_on_c, 0, 66, 70
2, 241835, Control_c, 0, 64, 0
2, 241838, Note_on_c, 0, 51, 60
2, 241912, Control_c, 0, 64, 50
2, 241928, Control_c, 0, 64, 58
2, 241929, Note_on_c, 0, 77, 0
2, 241943, Control_c, 0, 64, 61
2, 241957, Control_c, 0, 64, 63
2, 241973, Control_c, 0, 64, 66
2, 241975, Note_on_c, 0, 46, 0
2, 241988, Control_c, 0, 64, 70
2, 242003, Control_c, 0, 64, 78
2, 242018, Control_c, 0, 64, 91
2, 242033, Control_c, 0, 64, 127
2, 242332, Note_on_c, 0, 75, 75
2, 242346, Note_on_c, 0, 70, 0
2, 242363, Note_on_c, 0, 39, 52
2, 242400, Note_on_c, 0, 66, 0
2, 242458, Note_on_c, 0, 75, 0
2, 242567, Note_on_c, 0, 73, 79
2, 242582, Note_on_c, 0, 51, 0
2, 242602, Note_on_c, 0, 65, 35
2, 242606, Note_on_c, 0, 73, 0
2, 242636, Note_on_c, 0, 65, 0
2, 242895, Note_on_c, 0, 71, 68
2, 242902, Control_c, 0, 64, 83
2, 242905, Note_on_c, 0, 63, 57
2, 242911, Note_on_c, 0, 66, 52
2, 242917, Control_c, 0, 64, 65
2, 242933, Control_c, 0, 64, 0
2, 242936, Note_on_c, 0, 51, 43
2, 243009, Control_c, 0, 64, 25
2, 243024, Control_c, 0, 64, 51
2, 243040, Control_c, 0, 64, 58
2, 243055, Control_c, 0, 64, 62
2, 243066, Note_on_c, 0, 39, 0
2, 243069, Control_c, 0, 64, 65
2, 243085, Control_c, 0, 64, 70
2, 243100, Control_c, 0, 64, 77
2, 243115, Control_c, 0, 64, 85
2, 243115, Note_on_c, 0, 63, 0
2, 243115, Note_on_c, 0, 66, 0
2, 243131, Control_c, 0, 64, 99
2, 243145, Control_c, 0, 64, 127
2, 243237, Note_on_c, 0, 51, 0
2, 243388, Control_c, 0, 64, 121
2, 243391, Note_on_c, 0, 70, 65
2, 243392, Note_on_c, 0, 71, 0
2, 243404, Control_c, 0, 64, 80
2, 243404, Note_on_c, 0, 65, 57
2, 243408, Note_on_c, 0, 61, 48
2, 243420, Control_c, 0, 64, 63
2, 243424, Note_on_c, 0, 53, 47
2, 243435, Control_c, 0, 64, 0
2, 243510, Control_c, 0, 64, 34
2, 243526, Control_c, 0, 64, 54
2, 243541, Control_c, 0, 64, 60
2, 243547, Note_on_c, 0, 61, 0
2, 243556, Control_c, 0, 64, 64
2, 243572, Control_c, 0, 64, 67
2, 243576, Note_on_c, 0, 65, 0
2, 243587, Control_c, 0, 64, 73
2, 243602, Control_c, 0, 64, 83
2, 243617, Control_c, 0, 64, 100
2, 243641, Control_c, 0, 64, 127
2, 243735, Note_on_c, 0, 70, 0
2, 243972, Note_on_c, 0, 53, 0
2, 243989, Control_c, 0, 64, 105
2, 243999, Note_on_c, 0, 69, 57
2, 244002, Note_on_c, 0, 54, 50
2, 244005, Control_c, 0, 64, 80
2, 244006, Note_on_c, 0, 63, 51
2, 244020, Control_c, 0, 64, 66
2, 244026, Note_on_c, 0, 60, 38
2, 244035, Control_c, 0, 64, 43
2, 244050, Control_c, 0, 64, 0
2, 244126, Control_c, 0, 64, 41
2, 244141, Control_c, 0, 64, 52
2, 244156, Control_c, 0, 64, 57
2, 244172, Control_c, 0, 64, 60
2, 244187, Control_c, 0, 64, 63
2, 244202, Control_c, 0, 64, 66
2, 244217, Control_c, 0, 64, 70
2, 244232, Control_c, 0, 64, 75
2, 244249, Control_c, 0, 64, 80
2, 244264, Control_c, 0, 64, 85
2, 244279, Control_c, 0, 64, 89
2, 244294, Control_c, 0, 64, 91
2, 244309, Control_c, 0, 64, 92
2, 244312, Note_on_c, 0, 63, 0
2, 244325, Control_c, 0, 64, 92
2, 244326, Note_on_c, 0, 65, 66
2, 244340, Control_c, 0, 64, 94
2, 244354, Control_c, 0, 64, 97
2, 244370, Control_c, 0, 64, 100
2, 244385, Control_c, 0, 64, 101
2, 244409, Control_c, 0, 64, 106
2, 244415, Note_on_c, 0, 54, 0
2, 244423, Control_c, 0, 64, 127
2, 244439, Note_on_c, 0, 69, 0
2, 244482, Note_on_c, 0, 60, 0
2, 244560, Control_c, 0, 64, 100
2, 244575, Control_c, 0, 64, 87
2, 244580, Note_on_c, 0, 53, 51
2, 244587, Note_on_c, 0, 66, 73
2, 244590, Control_c, 0, 64, 83
2, 244603, Note_on_c, 0, 65, 0
2, 244666, Control_c, 0, 64, 85
2, 244682, Control_c, 0, 64, 88
2, 244697, Control_c, 0, 64, 92
2, 244712, Control_c, 0, 64, 94
2, 244727, Control_c, 0, 64, 95
2, 244757, Control_c, 0, 64, 96
2, 244799, Note_on_c, 0, 51, 68
2, 244831, Note_on_c, 0, 53, 0
2, 244849, Control_c, 0, 64, 96
2, 244864, Control_c, 0, 64, 102
2, 244880, Control_c, 0, 64, 127
2, 245016, Control_c, 0, 64, 93
2, 245016, Note_on_c, 0, 51, 0
2, 245031, Control_c, 0, 64, 68
2, 245040, Note_on_c, 0, 66, 0
2, 245042, Note_on_c, 0, 70, 66
2, 245046, Control_c, 0, 64, 37
2, 245062, Control_c, 0, 64, 0
2, 245068, Note_on_c, 0, 65, 52
2, 245075, Note_on_c, 0, 49, 59
2, 245083, Note_on_c, 0, 61, 47
2, 245268, Note_on_c, 0, 49, 0
2, 245296, Note_on_c, 0, 48, 59
2, 245343, Control_c, 0, 64, 38
2, 245359, Control_c, 0, 64, 53
2, 245359, Control_c, 0, 67, 39
2, 245374, Control_c, 0, 64, 59
2, 245374, Control_c, 0, 67, 77
2, 245389, Control_c, 0, 64, 62
2, 245389, Control_c, 0, 67, 112
2, 245404, Control_c, 0, 64, 64
2, 245404, Control_c, 0, 67, 127
2, 245419, Control_c, 0, 64, 66
2, 245434, Control_c, 0, 64, 69
2, 245450, Control_c, 0, 64, 73
2, 245465, Control_c, 0, 64, 74
2, 245510, Control_c, 0, 64, 71
2, 245525, Control_c, 0, 64, 65
2, 245534, Note_on_c, 0, 65, 0
2, 245537, Note_on_c, 0, 46, 54
2, 245537, Note_on_c, 0, 66, 59
2, 245540, Control_c, 0, 64, 52
2, 245550, Note_on_c, 0, 48, 0
2, 245555, Control_c, 0, 64, 0
2, 245728, Note_on_c, 0, 46, 0
2, 245753, Control_c, 0, 64, 40
2, 245769, Control_c, 0, 64, 56
2, 245784, Control_c, 0, 64, 60
2, 245789, Note_on_c, 0, 64, 64
2, 245792, Note_on_c, 0, 49, 50
2, 245799, Control_c, 0, 64, 62
2, 245814, Control_c, 0, 64, 64
2, 245829, Control_c, 0, 64, 67
2, 245845, Control_c, 0, 64, 71
2, 245850, Note_on_c, 0, 66, 0
2, 245860, Control_c, 0, 64, 76
2, 245866, Note_on_c, 0, 61, 0
2, 245875, Control_c, 0, 64, 83
2, 245890, Control_c, 0, 64, 88
2, 245904, Control_c, 0, 64, 92
2, 245919, Control_c, 0, 64, 95
2, 245942, Control_c, 0, 64, 96
2, 245957, Control_c, 0, 64, 97
2, 245973, Control_c, 0, 64, 97
2, 245988, Control_c, 0, 64, 100
2, 246002, Control_c, 0, 64, 102
2, 246018, Control_c, 0, 64, 104
2, 246033, Control_c, 0, 64, 104
2, 246113, Note_on_c, 0, 64, 0
2, 246124, Control_c, 0, 64, 104
2, 246137, Note_on_c, 0, 60, 68
2, 246140, Control_c, 0, 64, 98
2, 246140, Note_on_c, 0, 65, 50
2, 246155, Control_c, 0, 64, 88
2, 246170, Control_c, 0, 64, 77
2, 246179, Note_on_c, 0, 41, 49
2, 246185, Control_c, 0, 64, 67
2, 246197, Note_on_c, 0, 49, 0
2, 246200, Control_c, 0, 64, 51
2, 246216, Control_c, 0, 64, 0
2, 246639, Control_c, 0, 64, 15
2, 246642, Note_on_c, 0, 61, 57
2, 246650, Note_on_c, 0, 60, 0
2, 246654, Control_c, 0, 64, 46
2, 246669, Control_c, 0, 64, 56
2, 246684, Control_c, 0, 64, 61
2, 246708, Control_c, 0, 64, 64
2, 246723, Control_c, 0, 64, 67
2, 246739, Control_c, 0, 64, 71
2, 246753, Control_c, 0, 64, 77
2, 246768, Control_c, 0, 64, 85
2, 246784, Control_c, 0, 64, 95
2, 246798, Control_c, 0, 64, 106
2, 246814, Control_c, 0, 64, 127
2, 246840, Note_on_c, 0, 70, 0
2, 246897, Note_on_c, 0, 58, 62
2, 246994, Note_on_c, 0, 58, 0
2, 247251, Note_on_c, 0, 69, 64
2, 247257, Note_on_c, 0, 60, 51
2, 247284, Control_c, 0, 64, 91
2, 247300, Control_c, 0, 64, 74
2, 247300, Note_on_c, 0, 61, 0
2, 247308, Note_on_c, 0, 65, 0
2, 247315, Control_c, 0, 64, 62
2, 247330, Control_c, 0, 64, 0
2, 247785, Note_on_c, 0, 63, 51
2, 247795, Control_c, 0, 64, 41
2, 247810, Control_c, 0, 64, 56
2, 247826, Control_c, 0, 64, 61
2, 247841, Control_c, 0, 64, 65
2, 247856, Control_c, 0, 64, 68
2, 247857, Note_on_c, 0, 60, 0
2, 247871, Control_c, 0, 64, 74
2, 247886, Control_c, 0, 64, 87
2, 247902, Control_c, 0, 64, 110
2, 247909, Note_on_c, 0, 69, 0
2, 247917, Control_c, 0, 64, 127
2, 248027, Note_on_c, 0, 41, 0
2, 248377, Note_on_c, 0, 70, 62
2, 248381, Control_c, 0, 64, 98
2, 248388, Note_on_c, 0, 61, 54
2, 248396, Control_c, 0, 64, 75
2, 248397, Note_on_c, 0, 58, 47
2, 248411, Control_c, 0, 64, 58
2, 248421, Note_on_c, 0, 46, 38
2, 248427, Control_c, 0, 64, 0
2, 248446, Note_on_c, 0, 63, 0
2, 248486, Control_c, 0, 64, 41
2, 248502, Control_c, 0, 64, 57
2, 248517, Control_c, 0, 64, 62
2, 248533, Control_c, 0, 64, 65
2, 248533, Note_on_c, 0, 46, 0
2, 248548, Control_c, 0, 64, 68
2, 248562, Control_c, 0, 64, 72
2, 248579, Control_c, 0, 64, 77
2, 248594, Control_c, 0, 64, 83
2, 248609, Control_c, 0, 64, 89
2, 248625, Control_c, 0, 64, 96
2, 248639, Control_c, 0, 64, 101
2, 248642, Note_on_c, 0, 58, 0
2, 248655, Control_c, 0, 64, 103
2, 248670, Control_c, 0, 64, 103
2, 249051, Note_on_c, 0, 63, 58
2, 249085, Note_on_c, 0, 61, 0
2, 249091, Note_on_c, 0, 60, 61
2, 249498, Control_c, 0, 64, 102
2, 249513, Control_c, 0, 64, 99
2, 249528, Control_c, 0, 64, 96
2, 249543, Control_c, 0, 64, 92
2, 249558, Control_c, 0, 64, 88
2, 249568, Note_on_c, 0, 63, 0
2, 249571, Note_on_c, 0, 65, 62
2, 249574, Control_c, 0, 64, 83
2, 249581, Note_on_c, 0, 61, 66
2, 249589, Control_c, 0, 64, 78
2, 249604, Control_c, 0, 64, 72
2, 249606, Note_on_c, 0, 60, 0
2, 249619, Control_c, 0, 64, 66
2, 249634, Control_c, 0, 64, 59
2, 249649, Control_c, 0, 64, 33
2, 249664, Control_c, 0, 64, 0
2, 250055, Note_on_c, 0, 65, 0
2, 250069, Note_on_c, 0, 64, 65
2, 250080, Note_on_c, 0, 68, 64
2, 250237, Note_on_c, 0, 70, 0
2, 250250, Control_c, 0, 64, 26
2, 250266, Control_c, 0, 64, 49
2, 250281, Control_c, 0, 64, 57
2, 250297, Control_c, 0, 64, 61
2, 250311, Control_c, 0, 64, 64
2, 250326, Control_c, 0, 64, 66
2, 250342, Control_c, 0, 64, 68
2, 250357, Control_c, 0, 64, 72
2, 250373, Control_c, 0, 64, 78
2, 250387, Control_c, 0, 64, 85
2, 250402, Control_c, 0, 64, 92
2, 250418, Control_c, 0, 64, 97
2, 250433, Control_c, 0, 64, 101
2, 250448, Control_c, 0, 64, 103
2, 250463, Control_c, 0, 64, 103
2, 250478, Control_c, 0, 64, 104
2, 250623, Control_c, 0, 64, 98
2, 250638, Control_c, 0, 64, 84
2, 250641, Note_on_c, 0, 68, 0
2, 250649, Note_on_c, 0, 67, 64
2, 250654, Control_c, 0, 64, 71
2, 250668, Control_c, 0, 64, 58
2, 250676, Note_on_c, 0, 64, 0
2, 250683, Control_c, 0, 64, 0
2, 250683, Note_on_c, 0, 63, 39
2, 250806, Control_c, 0, 64, 43
2, 250821, Control_c, 0, 64, 56
2, 250836, Control_c, 0, 64, 60
2, 250851, Control_c, 0, 64, 62
2, 250867, Control_c, 0, 64, 64
2, 250882, Control_c, 0, 64, 68
2, 250897, Control_c, 0, 64, 75
2, 250912, Control_c, 0, 64, 84
2, 250927, Control_c, 0, 64, 95
2, 250943, Control_c, 0, 64, 104
2, 250958, Control_c, 0, 64, 124
2, 250973, Control_c, 0, 64, 127
2, 251013, Note_on_c, 0, 67, 0
2, 251281, Note_on_c, 0, 73, 73
2, 251336, Note_on_c, 0, 55, 37
2, 251500, Note_on_c, 0, 73, 0
2, 251547, Note_on_c, 0, 61, 0
2, 251817, Note_on_c, 0, 56, 54
2, 251822, Note_on_c, 0, 71, 68
2, 251847, Note_on_c, 0, 55, 0
2, 251905, Note_on_c, 0, 63, 0
2, 251984, Control_c, 0, 67, 118
2, 251999, Control_c, 0, 67, 88
2, 252015, Control_c, 0, 67, 44
2, 252030, Control_c, 0, 67, 0
2, 252129, Note_on_c, 0, 71, 0
2, 252325, Note_on_c, 0, 70, 71
2, 252337, Note_on_c, 0, 58, 62
2, 252339, Note_on_c, 0, 56, 0
2, 252342, Note_on_c, 0, 61, 60
2, 252356, Control_c, 0, 64, 94
2, 252371, Control_c, 0, 64, 72
2, 252387, Control_c, 0, 64, 57
2, 252401, Control_c, 0, 64, 0
2, 252464, Control_c, 0, 64, 34
2, 252479, Control_c, 0, 64, 51
2, 252495, Control_c, 0, 64, 56
2, 252509, Control_c, 0, 64, 59
2, 252524, Control_c, 0, 64, 62
2, 252540, Control_c, 0, 64, 65
2, 252555, Control_c, 0, 64, 69
2, 252570, Control_c, 0, 64, 76
2, 252585, Control_c, 0, 64, 84
2, 252600, Control_c, 0, 64, 95
2, 252616, Control_c, 0, 64, 110
2, 252631, Control_c, 0, 64, 127
2, 252848, Note_on_c, 0, 51, 70
2, 252866, Control_c, 0, 64, 81
2, 252872, Note_on_c, 0, 59, 51
2, 252881, Control_c, 0, 64, 64
2, 252882, Note_on_c, 0, 58, 0
2, 252897, Control_c, 0, 64, 29
2, 252912, Control_c, 0, 64, 0
2, 252973, Control_c, 0, 64, 42
2, 252988, Control_c, 0, 64, 49
2, 253002, Control_c, 0, 64, 53
2, 253018, Control_c, 0, 64, 57
2, 253033, Control_c, 0, 64, 60
2, 253047, Control_c, 0, 64, 63
2, 253063, Control_c, 0, 64, 67
2, 253078, Control_c, 0, 64, 71
2, 253094, Control_c, 0, 64, 78
2, 253109, Control_c, 0, 64, 88
2, 253124, Control_c, 0, 64, 101
2, 253140, Control_c, 0, 64, 124
2, 253155, Control_c, 0, 64, 127
2, 253356, Note_on_c, 0, 56, 63
2, 253368, Control_c, 0, 64, 96
2, 253368, Note_on_c, 0, 68, 68
2, 253384, Control_c, 0, 64, 68
2, 253395, Note_on_c, 0, 70, 0
2, 253399, Control_c, 0, 64, 38
2, 253415, Control_c, 0, 64, 0
2, 253428, Note_on_c, 0, 51, 0
2, 253520, Control_c, 0, 64, 40
2, 253536, Control_c, 0, 64, 58
2, 253551, Control_c, 0, 64, 63
2, 253565, Control_c, 0, 64, 67
2, 253581, Control_c, 0, 64, 71
2, 253596, Control_c, 0, 64, 82
2, 253620, Control_c, 0, 64, 103
2, 253635, Control_c, 0, 64, 127
2, 253879, Note_on_c, 0, 58, 59
2, 253889, Note_on_c, 0, 73, 76
2, 253907, Control_c, 0, 64, 114
2, 253915, Note_on_c, 0, 59, 0
2, 253922, Control_c, 0, 64, 75
2, 253930, Note_on_c, 0, 61, 0
2, 253938, Control_c, 0, 64, 59
2, 253953, Control_c, 0, 64, 0
2, 253984, Control_c, 0, 64, 29
2, 253998, Control_c, 0, 64, 55
2, 254014, Control_c, 0, 64, 62
2, 254029, Control_c, 0, 64, 63
2, 254044, Control_c, 0, 64, 65
2, 254060, Control_c, 0, 64, 68
2, 254075, Control_c, 0, 64, 75
2, 254090, Control_c, 0, 64, 92
2, 254106, Control_c, 0, 64, 127
2, 254366, Note_on_c, 0, 55, 71
2, 254368, Note_on_c, 0, 70, 69
2, 254411, Note_on_c, 0, 68, 0
2, 254418, Control_c, 0, 64, 85
2, 254421, Note_on_c, 0, 56, 0
2, 254433, Control_c, 0, 64, 66
2, 254448, Control_c, 0, 64, 13
2, 254464, Control_c, 0, 64, 0
2, 254524, Control_c, 0, 64, 40
2, 254539, Control_c, 0, 64, 55
2, 254554, Control_c, 0, 64, 60
2, 254569, Control_c, 0, 64, 63
2, 254585, Control_c, 0, 64, 65
2, 254600, Control_c, 0, 64, 69
2, 254615, Control_c, 0, 64, 77
2, 254630, Control_c, 0, 64, 92
2, 254645, Control_c, 0, 64, 127
2, 254889, Note_on_c, 0, 58, 0
2, 254904, Note_on_c, 0, 59, 72
2, 254916, Note_on_c, 0, 63, 63
2, 254935, Control_c, 0, 64, 90
2, 254944, Note_on_c, 0, 70, 0
2, 254950, Control_c, 0, 64, 67
2, 254964, Control_c, 0, 64, 0
2, 255103, Control_c, 0, 64, 15
2, 255117, Control_c, 0, 64, 48
2, 255133, Control_c, 0, 64, 57
2, 255155, Control_c, 0, 64, 61
2, 255169, Control_c, 0, 64, 63
2, 255185, Control_c, 0, 64, 66
2, 255193, Note_on_c, 0, 55, 0
2, 255200, Control_c, 0, 64, 70
2, 255216, Control_c, 0, 64, 77
2, 255231, Control_c, 0, 64, 88
2, 255246, Control_c, 0, 64, 110
2, 255262, Control_c, 0, 64, 127
2, 255384, Note_on_c, 0, 73, 0
2, 255402, Note_on_c, 0, 63, 0
2, 255414, Note_on_c, 0, 71, 65
2, 255424, Note_on_c, 0, 68, 54
2, 255586, Note_on_c, 0, 71, 0
2, 255594, Note_on_c, 0, 68, 0
2, 255637, Note_on_c, 0, 70, 78
2, 255649, Note_on_c, 0, 67, 65
2, 255825, Note_on_c, 0, 70, 0
2, 255878, Note_on_c, 0, 67, 0
2, 255914, Note_on_c, 0, 71, 90
2, 255921, Note_on_c, 0, 68, 80
2, 255968, Control_c, 0, 64, 87
2, 255984, Control_c, 0, 64, 67
2, 255999, Control_c, 0, 64, 44
2, 256015, Control_c, 0, 64, 0
2, 256060, Control_c, 0, 64, 46
2, 256070, Note_on_c, 0, 71, 0
2, 256075, Control_c, 0, 64, 59
2, 256089, Control_c, 0, 64, 63
2, 256105, Control_c, 0, 64, 64
2, 256120, Control_c, 0, 64, 65
2, 256136, Control_c, 0, 64, 67
2, 256151, Control_c, 0, 64, 70
2, 256166, Control_c, 0, 64, 73
2, 256182, Control_c, 0, 64, 78
2, 256197, Control_c, 0, 64, 82
2, 256213, Control_c, 0, 64, 86
2, 256227, Control_c, 0, 64, 87
2, 256242, Control_c, 0, 64, 89
2, 256258, Control_c, 0, 64, 92
2, 256273, Control_c, 0, 64, 98
2, 256288, Control_c, 0, 64, 107
2, 256303, Control_c, 0, 64, 117
2, 256318, Control_c, 0, 64, 127
2, 256369, Note_on_c, 0, 59, 0
2, 256393, Note_on_c, 0, 76, 82
2, 256416, Note_on_c, 0, 58, 63
2, 256616, Note_on_c, 0, 56, 84
2, 256635, Note_on_c, 0, 68, 0
2, 256649, Note_on_c, 0, 58, 0
2, 256884, Note_on_c, 0, 74, 88
2, 256894, Note_on_c, 0, 58, 79
2, 256904, Control_c, 0, 64, 104
2, 256908, Note_on_c, 0, 76, 0
2, 256919, Control_c, 0, 64, 74
2, 256930, Note_on_c, 0, 56, 0
2, 256935, Control_c, 0, 64, 55
2, 256949, Control_c, 0, 64, 0
2, 257056, Control_c, 0, 64, 51
2, 257071, Control_c, 0, 64, 61
2, 257086, Control_c, 0, 64, 65
2, 257102, Control_c, 0, 64, 67
2, 257117, Control_c, 0, 64, 72
2, 257133, Control_c, 0, 64, 79
2, 257147, Control_c, 0, 64, 88
2, 257162, Control_c, 0, 64, 102
2, 257178, Control_c, 0, 64, 127
2, 257366, Note_on_c, 0, 63, 62
2, 257375, Note_on_c, 0, 66, 88
2, 257375, Note_on_c, 0, 70, 62
2, 257500, Note_on_c, 0, 74, 0
2, 257632, Note_on_c, 0, 66, 0
2, 257881, Note_on_c, 0, 65, 6
2, 257883, Note_on_c, 0, 80, 93
2, 257915, Control_c, 0, 64, 117
2, 257930, Control_c, 0, 64, 70
2, 257946, Control_c, 0, 64, 31
2, 257961, Control_c, 0, 64, 0
2, 258067, Control_c, 0, 64, 47
2, 258082, Control_c, 0, 64, 62
2, 258098, Control_c, 0, 64, 67
2, 258112, Control_c, 0, 64, 74
2, 258127, Control_c, 0, 64, 87
2, 258143, Control_c, 0, 64, 127
2, 258346, Note_on_c, 0, 63, 0
2, 258350, Note_on_c, 0, 77, 82
2, 258352, Note_on_c, 0, 62, 70
2, 258380, Control_c, 0, 64, 119
2, 258395, Control_c, 0, 64, 77
2, 258410, Control_c, 0, 64, 60
2, 258416, Note_on_c, 0, 58, 0
2, 258425, Control_c, 0, 64, 0
2, 258486, Control_c, 0, 64, 51
2, 258501, Control_c, 0, 64, 59
2, 258516, Control_c, 0, 64, 62
2, 258531, Control_c, 0, 64, 64
2, 258542, Note_on_c, 0, 70, 0
2, 258547, Control_c, 0, 64, 67
2, 258560, Control_c, 0, 64, 73
2, 258576, Control_c, 0, 64, 86
2, 258591, Control_c, 0, 64, 114
2, 258606, Control_c, 0, 64, 127
2, 258903, Note_on_c, 0, 70, 62
2, 258910, Control_c, 0, 64, 97
2, 258914, Note_on_c, 0, 66, 85
2, 258925, Control_c, 0, 64, 72
2, 258941, Control_c, 0, 64, 49
2, 258952, Note_on_c, 0, 65, 0
2, 258955, Control_c, 0, 64, 0
2, 259074, Note_on_c, 0, 62, 0
2, 259145, Note_on_c, 0, 80, 0
2, 259162, Control_c, 0, 64, 41
2, 259178, Control_c, 0, 64, 59
2, 259192, Control_c, 0, 64, 65
2, 259207, Control_c, 0, 64, 70
2, 259223, Control_c, 0, 64, 80
2, 259238, Control_c, 0, 64, 108
2, 259249, Note_on_c, 0, 77, 0
2, 259254, Control_c, 0, 64, 127
2, 259352, Note_on_c, 0, 70, 0
2, 259432, Note_on_c, 0, 78, 60
2, 259440, Note_on_c, 0, 75, 59
2, 259546, Note_on_c, 0, 75, 0
2, 259630, Note_on_c, 0, 78, 0
2, 259655, Note_on_c, 0, 77, 87
2, 259661, Note_on_c, 0, 74, 74
2, 259834, Note_on_c, 0, 74, 0
2, 259869, Note_on_c, 0, 77, 0
2, 259912, Note_on_c, 0, 78, 93
2, 259919, Note_on_c, 0, 75, 91
2, 259929, Control_c, 0, 64, 90
2, 259945, Control_c, 0, 64, 67
2, 259960, Control_c, 0, 64, 56
2, 259976, Control_c, 0, 64, 53
2, 259991, Control_c, 0, 64, 59
2, 260006, Control_c, 0, 64, 64
2, 260022, Control_c, 0, 64, 68
2, 260036, Control_c, 0, 64, 77
2, 260051, Control_c, 0, 64, 100
2, 260067, Control_c, 0, 64, 127
2, 260075, Note_on_c, 0, 78, 0
2, 260364, Note_on_c, 0, 83, 93
2, 260372, Note_on_c, 0, 66, 0
2, 260394, Note_on_c, 0, 65, 71
2, 260537, Note_on_c, 0, 65, 0
2, 260553, Note_on_c, 0, 75, 0
2, 260599, Note_on_c, 0, 63, 83
2, 260869, Note_on_c, 0, 83, 0
2, 260880, Control_c, 0, 64, 103
2, 260880, Note_on_c, 0, 65, 87
2, 260883, Note_on_c, 0, 81, 90
2, 260889, Note_on_c, 0, 63, 0
2, 260896, Control_c, 0, 64, 71
2, 260911, Control_c, 0, 64, 43
2, 260926, Control_c, 0, 64, 0
2, 260956, Control_c, 0, 64, 35
2, 260971, Control_c, 0, 64, 63
2, 260987, Control_c, 0, 64, 71
2, 261001, Control_c, 0, 64, 90
2, 261017, Control_c, 0, 64, 127
2, 261425, Note_on_c, 0, 81, 0
2, 261462, Note_on_c, 0, 70, 90
2, 261467, Control_c, 0, 64, 84
2, 261467, Note_on_c, 0, 77, 63
2, 261481, Control_c, 0, 64, 62
2, 261486, Note_on_c, 0, 73, 43
2, 261497, Control_c, 0, 64, 0
2, 261602, Control_c, 0, 64, 21
2, 261618, Control_c, 0, 64, 45
2, 261633, Control_c, 0, 64, 57
2, 261648, Control_c, 0, 64, 61
2, 261664, Control_c, 0, 64, 64
2, 261678, Control_c, 0, 64, 68
2, 261694, Control_c, 0, 64, 74
2, 261709, Control_c, 0, 64, 84
2, 261723, Note_on_c, 0, 72, 79
2, 261724, Control_c, 0, 64, 106
2, 261728, Note_on_c, 0, 73, 0
2, 261740, Control_c, 0, 64, 127
2, 261971, Note_on_c, 0, 82, 90
2, 261985, Note_on_c, 0, 73, 74
2, 262011, Note_on_c, 0, 72, 0
2, 262030, Note_on_c, 0, 77, 0
2, 262118, Note_on_c, 0, 82, 0
2, 262195, Note_on_c, 0, 80, 83
2, 262287, Note_on_c, 0, 80, 0
2, 262418, Note_on_c, 0, 70, 0
2, 262421, Note_on_c, 0, 79, 82
2, 262428, Note_on_c, 0, 68, 75
2, 262432, Control_c, 0, 64, 87
2, 262446, Control_c, 0, 64, 62
2, 262462, Control_c, 0, 64, 0
2, 262522, Control_c, 0, 64, 23
2, 262531, Note_on_c, 0, 65, 0
2, 262538, Control_c, 0, 64, 58
2, 262553, Control_c, 0, 64, 64
2, 262568, Control_c, 0, 64, 67
2, 262584, Control_c, 0, 64, 73
2, 262599, Control_c, 0, 64, 82
2, 262615, Control_c, 0, 64, 100
2, 262630, Control_c, 0, 64, 127
2, 262631, Note_on_c, 0, 77, 84
2, 262647, Note_on_c, 0, 79, 0
2, 262673, Note_on_c, 0, 73, 0
2, 262860, Note_on_c, 0, 68, 0
2, 262868, Note_on_c, 0, 75, 89
2, 262896, Control_c, 0, 64, 80
2, 262910, Control_c, 0, 64, 60
2, 262922, Note_on_c, 0, 77, 0
2, 262923, Note_on_c, 0, 67, 51
2, 262925, Control_c, 0, 64, 0
2, 262971, Control_c, 0, 64, 44
2, 262986, Control_c, 0, 64, 59
2, 263001, Control_c, 0, 64, 63
2, 263017, Control_c, 0, 64, 64
2, 263032, Control_c, 0, 64, 65
2, 263047, Control_c, 0, 64, 69
2, 263062, Control_c, 0, 64, 77
2, 263077, Control_c, 0, 64, 91
2, 263091, Note_on_c, 0, 73, 76
2, 263094, Control_c, 0, 64, 116
2, 263109, Control_c, 0, 64, 127
2, 263287, Note_on_c, 0, 73, 0
2, 263315, Note_on_c, 0, 71, 82
2, 263326, Note_on_c, 0, 63, 64
2, 263384, Note_on_c, 0, 67, 0
2, 263492, Note_on_c, 0, 71, 0
2, 263531, Note_on_c, 0, 70, 90
2, 263808, Note_on_c, 0, 70, 0
2, 263836, Note_on_c, 0, 71, 87
2, 263845, Control_c, 0, 64, 85
2, 263861, Control_c, 0, 64, 66
2, 263875, Control_c, 0, 64, 22
2, 263877, Note_on_c, 0, 68, 55
2, 263890, Control_c, 0, 64, 0
2, 263953, Control_c, 0, 64, 31
2, 263961, Note_on_c, 0, 63, 0
2, 263968, Control_c, 0, 64, 54
2, 263983, Control_c, 0, 64, 60
2, 263998, Control_c, 0, 64, 64
2, 264014, Control_c, 0, 64, 67
2, 264029, Control_c, 0, 64, 73
2, 264044, Control_c, 0, 64, 87
2, 264059, Control_c, 0, 64, 127
2, 264151, Note_on_c, 0, 75, 0
2, 264161, Note_on_c, 0, 78, 72
2, 264242, Note_on_c, 0, 78, 0
2, 264382, Note_on_c, 0, 77, 88
2, 264595, Note_on_c, 0, 75, 92
2, 264665, Note_on_c, 0, 77, 0
2, 264852, Note_on_c, 0, 74, 87
2, 264873, Control_c, 0, 64, 89
2, 264888, Control_c, 0, 64, 64
2, 264888, Note_on_c, 0, 70, 68
2, 264891, Note_on_c, 0, 75, 0
2, 264892, Note_on_c, 0, 68, 0
2, 264903, Control_c, 0, 64, 0
2, 265009, Control_c, 0, 64, 52
2, 265024, Control_c, 0, 64, 60
2, 265039, Control_c, 0, 64, 63
2, 265055, Control_c, 0, 64, 65
2, 265070, Control_c, 0, 64, 70
2, 265085, Control_c, 0, 64, 81
2, 265087, Note_on_c, 0, 74, 0
2, 265094, Note_on_c, 0, 77, 79
2, 265100, Control_c, 0, 64, 112
2, 265115, Control_c, 0, 64, 127
2, 265252, Note_on_c, 0, 71, 0
2, 265295, Note_on_c, 0, 77, 0
2, 265322, Note_on_c, 0, 75, 87
2, 265332, Note_on_c, 0, 66, 62
2, 265360, Note_on_c, 0, 70, 0
2, 265519, Note_on_c, 0, 73, 87
2, 265592, Note_on_c, 0, 75, 0
2, 265732, Control_c, 0, 64, 102
2, 265748, Control_c, 0, 64, 66
2, 265763, Control_c, 0, 64, 0
2, 265767, Note_on_c, 0, 72, 92
2, 265783, Note_on_c, 0, 66, 0
2, 265788, Note_on_c, 0, 73, 0
2, 265798, Note_on_c, 0, 68, 57
2, 265869, Control_c, 0, 64, 54
2, 265884, Control_c, 0, 64, 63
2, 265907, Control_c, 0, 64, 67
2, 265922, Control_c, 0, 64, 77
2, 265938, Control_c, 0, 64, 107
2, 265953, Control_c, 0, 64, 127
2, 266009, Note_on_c, 0, 75, 73
2, 266010, Note_on_c, 0, 72, 0
2, 266011, Note_on_c, 0, 68, 0
2, 266025, Note_on_c, 0, 66, 61
2, 266159, Note_on_c, 0, 66, 0
2, 266190, Note_on_c, 0, 75, 0
2, 266214, Note_on_c, 0, 65, 61
2, 266217, Note_on_c, 0, 73, 82
2, 266376, Note_on_c, 0, 65, 0
2, 266407, Note_on_c, 0, 73, 0
2, 266408, Note_on_c, 0, 71, 88
2, 266421, Note_on_c, 0, 63, 66
2, 266447, Note_on_c, 0, 71, 0
2, 266646, Note_on_c, 0, 63, 0
2, 266680, Note_on_c, 0, 70, 88
2, 266698, Note_on_c, 0, 62, 68
2, 266705, Control_c, 0, 64, 85
2, 266720, Control_c, 0, 64, 64
2, 266736, Control_c, 0, 64, 0
2, 266811, Control_c, 0, 64, 54
2, 266827, Control_c, 0, 64, 60
2, 266842, Control_c, 0, 64, 63
2, 266857, Control_c, 0, 64, 65
2, 266872, Control_c, 0, 64, 69
2, 266875, Note_on_c, 0, 62, 0
2, 266887, Control_c, 0, 64, 78
2, 266903, Control_c, 0, 64, 101
2, 266918, Control_c, 0, 64, 127
2, 266953, Note_on_c, 0, 68, 59
2, 266964, Note_on_c, 0, 65, 45
2, 267084, Note_on_c, 0, 65, 0
2, 267159, Note_on_c, 0, 66, 71
2, 267189, Note_on_c, 0, 63, 52
2, 267350, Note_on_c, 0, 63, 0
2, 267369, Note_on_c, 0, 65, 89
2, 267380, Note_on_c, 0, 68, 0
2, 267393, Note_on_c, 0, 61, 73
2, 267398, Note_on_c, 0, 66, 0
2, 267593, Note_on_c, 0, 61, 0
2, 267597, Control_c, 0, 64, 121
2, 267612, Control_c, 0, 64, 79
2, 267613, Note_on_c, 0, 63, 83
2, 267627, Control_c, 0, 64, 61
2, 267630, Note_on_c, 0, 65, 0
2, 267634, Note_on_c, 0, 60, 70
2, 267642, Control_c, 0, 64, 0
2, 267703, Control_c, 0, 64, 36
2, 267718, Control_c, 0, 64, 56
2, 267734, Control_c, 0, 64, 59
2, 267749, Control_c, 0, 64, 61
2, 267764, Control_c, 0, 64, 64
2, 267778, Control_c, 0, 64, 66
2, 267793, Control_c, 0, 64, 69
2, 267809, Control_c, 0, 64, 78
2, 267824, Control_c, 0, 64, 92
2, 267835, Note_on_c, 0, 66, 79
2, 267839, Control_c, 0, 64, 124
2, 267854, Control_c, 0, 64, 127
2, 267890, Note_on_c, 0, 70, 0
2, 268032, Note_on_c, 0, 63, 0
2, 268041, Note_on_c, 0, 66, 0
2, 268061, Note_on_c, 0, 68, 88
2, 268080, Note_on_c, 0, 60, 0
2, 268080, Note_on_c, 0, 65, 69
2, 268083, Control_c, 0, 64, 76
2, 268098, Control_c, 0, 64, 53
2, 268101, Note_on_c, 0, 59, 66
2, 268113, Control_c, 0, 64, 0
2, 268175, Control_c, 0, 64, 53
2, 268190, Control_c, 0, 64, 61
2, 268212, Control_c, 0, 64, 64
2, 268227, Control_c, 0, 64, 66
2, 268242, Control_c, 0, 64, 69
2, 268245, Note_on_c, 0, 59, 0
2, 268258, Control_c, 0, 64, 75
2, 268273, Control_c, 0, 64, 85
2, 268288, Control_c, 0, 64, 101
2, 268303, Control_c, 0, 64, 127
2, 268327, Note_on_c, 0, 63, 75
2, 268434, Note_on_c, 0, 65, 0
2, 268483, Note_on_c, 0, 63, 0
2, 268539, Note_on_c, 0, 58, 86
2, 268545, Control_c, 0, 64, 119
2, 268548, Note_on_c, 0, 62, 84
2, 268560, Control_c, 0, 64, 77
2, 268576, Control_c, 0, 64, 62
2, 268591, Control_c, 0, 64, 46
2, 268605, Control_c, 0, 64, 53
2, 268621, Control_c, 0, 64, 63
2, 268636, Control_c, 0, 64, 68
2, 268652, Control_c, 0, 64, 78
2, 268667, Control_c, 0, 64, 96
2, 268682, Control_c, 0, 64, 127
2, 268715, Note_on_c, 0, 68, 0
2, 268724, Note_on_c, 0, 58, 0
2, 268778, Note_on_c, 0, 65, 90
2, 268801, Note_on_c, 0, 62, 0
2, 269003, Note_on_c, 0, 65, 0
2, 269039, Note_on_c, 0, 66, 85
2, 269040, Control_c, 0, 64, 80
2, 269054, Note_on_c, 0, 51, 74
2, 269055, Control_c, 0, 64, 53
2, 269055, Note_on_c, 0, 63, 83
2, 269070, Control_c, 0, 64, 0
2, 269147, Control_c, 0, 64, 50
2, 269162, Control_c, 0, 64, 58
2, 269177, Control_c, 0, 64, 62
2, 269192, Control_c, 0, 64, 67
2, 269208, Control_c, 0, 64, 74
2, 269223, Control_c, 0, 64, 88
2, 269238, Control_c, 0, 64, 127
2, 269266, Note_on_c, 0, 70, 86
2, 269282, Note_on_c, 0, 66, 0
2, 269310, Note_on_c, 0, 70, 0
2, 269323, Note_on_c, 0, 51, 0
2, 269502, Note_on_c, 0, 75, 88
2, 269505, Note_on_c, 0, 51, 87
2, 269528, Control_c, 0, 64, 92
2, 269542, Control_c, 0, 64, 69
2, 269557, Control_c, 0, 64, 51
2, 269573, Control_c, 0, 64, 50
2, 269587, Control_c, 0, 64, 60
2, 269602, Control_c, 0, 64, 66
2, 269618, Control_c, 0, 64, 77
2, 269634, Control_c, 0, 64, 127
2, 269666, Note_on_c, 0, 63, 0
2, 269703, Note_on_c, 0, 51, 0
2, 269750, Note_on_c, 0, 75, 0
2, 269757, Note_on_c, 0, 70, 90
2, 270032, Control_c, 0, 64, 89
2, 270036, Note_on_c, 0, 78, 94
2, 270044, Note_on_c, 0, 69, 80
2, 270047, Control_c, 0, 64, 63
2, 270050, Note_on_c, 0, 60, 90
2, 270053, Note_on_c, 0, 51, 82
2, 270063, Control_c, 0, 64, 0
2, 270083, Note_on_c, 0, 70, 0
2, 270139, Control_c, 0, 64, 52
2, 270155, Control_c, 0, 64, 62
2, 270169, Control_c, 0, 64, 65
2, 270185, Control_c, 0, 64, 72
2, 270200, Control_c, 0, 64, 84
2, 270212, Note_on_c, 0, 69, 0
2, 270215, Control_c, 0, 64, 119
2, 270230, Control_c, 0, 64, 127
2, 270254, Note_on_c, 0, 78, 0
2, 270330, Note_on_c, 0, 51, 0
2, 270627, Note_on_c, 0, 77, 94
2, 270638, Note_on_c, 0, 70, 80
2, 270643, Note_on_c, 0, 65, 83
2, 270649, Control_c, 0, 64, 98
2, 270652, Note_on_c, 0, 50, 74
2, 270664, Control_c, 0, 64, 67
2, 270679, Control_c, 0, 64, 0
2, 270801, Control_c, 0, 64, 49
2, 270815, Control_c, 0, 64, 59
2, 270831, Control_c, 0, 64, 63
2, 270846, Control_c, 0, 64, 65
2, 270861, Control_c, 0, 64, 68
2, 270870, Note_on_c, 0, 50, 0
2, 270876, Control_c, 0, 64, 73
2, 270891, Control_c, 0, 64, 82
2, 270907, Control_c, 0, 64, 97
2, 270922, Control_c, 0, 64, 127
2, 270938, Note_on_c, 0, 65, 0
2, 270970, Note_on_c, 0, 77, 0
2, 270993, Note_on_c, 0, 70, 0
2, 271118, Note_on_c, 0, 51, 86
2, 271135, Control_c, 0, 64, 80
2, 271150, Control_c, 0, 64, 58
2, 271165, Control_c, 0, 64, 0
2, 271341, Control_c, 0, 64, 57
2, 271356, Control_c, 0, 64, 66
2, 271371, Control_c, 0, 64, 73
2, 271387, Control_c, 0, 64, 83
2, 271402, Control_c, 0, 64, 97
2, 271417, Control_c, 0, 64, 127
2, 271452, Note_on_c, 0, 60, 0
2, 271506, Note_on_c, 0, 51, 0
2, 271615, Note_on_c, 0, 53, 88
2, 271659, Control_c, 0, 64, 105
2, 271675, Control_c, 0, 64, 74
2, 271690, Control_c, 0, 64, 59
2, 271705, Control_c, 0, 64, 0
2, 272141, Note_on_c, 0, 83, 88
2, 272166, Note_on_c, 0, 74, 68
2, 272170, Note_on_c, 0, 65, 68
2, 272215, Control_c, 0, 64, 32
2, 272231, Control_c, 0, 64, 57
2, 272242, Note_on_c, 0, 74, 0
2, 272245, Control_c, 0, 64, 63
2, 272261, Control_c, 0, 64, 66
2, 272270, Note_on_c, 0, 65, 0
2, 272276, Control_c, 0, 64, 70
2, 272291, Control_c, 0, 64, 77
2, 272292, Note_on_c, 0, 83, 0
2, 272307, Control_c, 0, 64, 93
2, 272322, Control_c, 0, 64, 127
2, 272520, Control_c, 0, 64, 97
2, 272535, Control_c, 0, 64, 74
2, 272550, Control_c, 0, 64, 58
2, 272565, Control_c, 0, 64, 0
2, 272679, Note_on_c, 0, 82, 86
2, 272692, Note_on_c, 0, 78, 72
2, 272704, Note_on_c, 0, 58, 68
2, 272732, Control_c, 0, 64, 42
2, 272748, Control_c, 0, 64, 56
2, 272762, Control_c, 0, 64, 61
2, 272777, Control_c, 0, 64, 63
2, 272793, Control_c, 0, 64, 65
2, 272814, Note_on_c, 0, 53, 0
2, 272816, Control_c, 0, 64, 67
2, 272832, Control_c, 0, 64, 72
2, 272846, Control_c, 0, 64, 84
2, 272862, Control_c, 0, 64, 105
2, 272877, Control_c, 0, 64, 127
2, 272879, Note_on_c, 0, 78, 0
2, 272892, Note_on_c, 0, 82, 0
2, 273121, Control_c, 0, 64, 97
2, 273136, Control_c, 0, 64, 78
2, 273151, Control_c, 0, 64, 62
2, 273166, Control_c, 0, 64, 0
2, 273176, Note_on_c, 0, 51, 84
2, 273249, Note_on_c, 0, 58, 0
2, 273690, Note_on_c, 0, 51, 0
2, 273697, Note_on_c, 0, 56, 90
2, 274235, Note_on_c, 0, 80, 86
2, 274252, Control_c, 0, 64, 25
2, 274253, Note_on_c, 0, 63, 68
2, 274256, Note_on_c, 0, 71, 72
2, 274268, Control_c, 0, 64, 57
2, 274283, Control_c, 0, 64, 64
2, 274298, Control_c, 0, 64, 70
2, 274313, Control_c, 0, 64, 85
2, 274322, Note_on_c, 0, 71, 0
2, 274328, Control_c, 0, 64, 127
2, 274357, Note_on_c, 0, 80, 0
2, 274519, Note_on_c, 0, 63, 0
2, 274550, Control_c, 0, 64, 92
2, 274565, Control_c, 0, 64, 71
2, 274581, Control_c, 0, 64, 55
2, 274596, Control_c, 0, 64, 0
2, 274786, Note_on_c, 0, 74, 81
2, 274804, Note_on_c, 0, 70, 58
2, 274807, Note_on_c, 0, 65, 56
2, 274884, Control_c, 0, 64, 20
2, 274899, Control_c, 0, 64, 53
2, 274915, Control_c, 0, 64, 62
2, 274930, Control_c, 0, 64, 65
2, 274946, Control_c, 0, 64, 71
2, 274960, Control_c, 0, 64, 80
2, 274975, Control_c, 0, 64, 95
2, 274976, Note_on_c, 0, 65, 0
2, 274991, Control_c, 0, 64, 127
2, 275018, Note_on_c, 0, 70, 0
2, 275031, Note_on_c, 0, 74, 0
2, 275272, Control_c, 0, 64, 115
2, 275287, Control_c, 0, 64, 78
2, 275297, Note_on_c, 0, 54, 74
2, 275302, Control_c, 0, 64, 63
2, 275308, Note_on_c, 0, 56, 0
2, 275317, Control_c, 0, 64, 47
2, 275332, Control_c, 0, 64, 48
2, 275348, Control_c, 0, 64, 55
2, 275364, Control_c, 0, 64, 60
2, 275379, Control_c, 0, 64, 63
2, 275394, Control_c, 0, 64, 65
2, 275409, Control_c, 0, 64, 68
2, 275425, Control_c, 0, 64, 73
2, 275440, Control_c, 0, 64, 80
2, 275455, Control_c, 0, 64, 88
2, 275470, Control_c, 0, 64, 93
2, 275485, Control_c, 0, 64, 94
2, 275486, Note_on_c, 0, 54, 0
2, 275542, Note_on_c, 0, 53, 86
2, 275546, Control_c, 0, 64, 95
2, 275576, Control_c, 0, 64, 96
2, 275759, Control_c, 0, 64, 96
2, 275811, Note_on_c, 0, 53, 0
2, 275835, Control_c, 0, 64, 94
2, 275849, Control_c, 0, 64, 84
2, 275865, Control_c, 0, 64, 72
2, 275883, Note_on_c, 0, 58, 90
2, 275887, Control_c, 0, 64, 61
2, 275903, Control_c, 0, 64, 0
2, 276055, Control_c, 0, 64, 36
2, 276070, Control_c, 0, 64, 51
2, 276085, Control_c, 0, 64, 57
2, 276101, Control_c, 0, 64, 59
2, 276116, Control_c, 0, 64, 61
2, 276131, Control_c, 0, 64, 64
2, 276146, Control_c, 0, 64, 67
2, 276161, Control_c, 0, 64, 74
2, 276176, Control_c, 0, 64, 85
2, 276193, Control_c, 0, 64, 101
2, 276208, Control_c, 0, 64, 127
2, 276398, Note_on_c, 0, 58, 0
2, 276419, Note_on_c, 0, 77, 93
2, 276437, Control_c, 0, 64, 88
2, 276437, Note_on_c, 0, 56, 75
2, 276438, Note_on_c, 0, 62, 77
2, 276443, Note_on_c, 0, 65, 64
2, 276451, Control_c, 0, 64, 65
2, 276467, Control_c, 0, 64, 0
2, 276527, Control_c, 0, 64, 28
2, 276543, Control_c, 0, 64, 56
2, 276558, Control_c, 0, 64, 61
2, 276572, Control_c, 0, 64, 63
2, 276587, Note_on_c, 0, 65, 0
2, 276588, Control_c, 0, 64, 64
2, 276603, Control_c, 0, 64, 67
2, 276618, Control_c, 0, 64, 71
2, 276634, Control_c, 0, 64, 80
2, 276641, Note_on_c, 0, 62, 0
2, 276649, Control_c, 0, 64, 89
2, 276672, Control_c, 0, 64, 98
2, 276687, Control_c, 0, 64, 104
2, 276702, Control_c, 0, 64, 108
2, 276717, Control_c, 0, 64, 112
2, 276732, Control_c, 0, 64, 127
2, 276905, Note_on_c, 0, 56, 0
2, 276967, Note_on_c, 0, 77, 0
2, 276971, Note_on_c, 0, 70, 90
2, 276975, Control_c, 0, 64, 76
2, 276985, Note_on_c, 0, 54, 71
2, 276985, Note_on_c, 0, 63, 78
2, 276990, Control_c, 0, 64, 54
2, 276990, Note_on_c, 0, 66, 75
2, 277006, Control_c, 0, 64, 0
2, 277067, Control_c, 0, 64, 42
2, 277082, Control_c, 0, 64, 59
2, 277094, Note_on_c, 0, 63, 0
2, 277097, Control_c, 0, 64, 63
2, 277113, Control_c, 0, 64, 66
2, 277122, Note_on_c, 0, 54, 0
2, 277127, Control_c, 0, 64, 70
2, 277143, Control_c, 0, 64, 78
2, 277158, Control_c, 0, 64, 96
2, 277173, Control_c, 0, 64, 127
2, 277197, Note_on_c, 0, 66, 0
2, 277470, Note_on_c, 0, 75, 89
2, 277488, Note_on_c, 0, 58, 69
2, 277490, Note_on_c, 0, 66, 72
2, 277499, Note_on_c, 0, 51, 60
2, 277573, Note_on_c, 0, 66, 0
2, 277624, Note_on_c, 0, 75, 0
2, 277639, Note_on_c, 0, 51, 0
2, 277652, Note_on_c, 0, 58, 0
2, 277679, Note_on_c, 0, 70, 0
2, 277695, Note_on_c, 0, 74, 93
2, 277699, Note_on_c, 0, 65, 84
2, 277706, Note_on_c, 0, 56, 85
2, 277710, Note_on_c, 0, 53, 76
2, 277759, Note_on_c, 0, 65, 0
2, 277925, Note_on_c, 0, 74, 0
2, 277932, Note_on_c, 0, 53, 0
2, 277932, Note_on_c, 0, 56, 0
2, 277945, Note_on_c, 0, 75, 96
2, 277952, Note_on_c, 0, 54, 84
2, 277954, Note_on_c, 0, 58, 92
2, 277956, Note_on_c, 0, 63, 82
2, 277986, Control_c, 0, 64, 76
2, 278001, Control_c, 0, 64, 42
2, 278016, Control_c, 0, 64, 0
2, 278122, Control_c, 0, 64, 58
2, 278137, Control_c, 0, 64, 67
2, 278153, Control_c, 0, 64, 80
2, 278168, Control_c, 0, 64, 127
2, 278244, Note_on_c, 0, 63, 0
2, 278283, Note_on_c, 0, 58, 0
2, 278321, Note_on_c, 0, 75, 0
2, 278443, Note_on_c, 0, 65, 91
2, 278450, Note_on_c, 0, 68, 86
2, 278465, Control_c, 0, 64, 93
2, 278468, Note_on_c, 0, 59, 80
2, 278480, Control_c, 0, 64, 65
2, 278480, Note_on_c, 0, 56, 67
2, 278494, Control_c, 0, 64, 0
2, 278601, Control_c, 0, 64, 26
2, 278604, Note_on_c, 0, 54, 0
2, 278616, Control_c, 0, 64, 55
2, 278632, Control_c, 0, 64, 63
2, 278647, Control_c, 0, 64, 67
2, 278663, Control_c, 0, 64, 72
2, 278678, Control_c, 0, 64, 77
2, 278690, Note_on_c, 0, 59, 0
2, 278693, Control_c, 0, 64, 87
2, 278709, Control_c, 0, 64, 110
2, 278724, Control_c, 0, 64, 127
2, 278960, Control_c, 0, 64, 100
2, 278974, Control_c, 0, 64, 76
2, 278990, Control_c, 0, 64, 64
2, 279005, Control_c, 0, 64, 0
2, 279036, Note_on_c, 0, 66, 84
2, 279050, Note_on_c, 0, 68, 0
2, 279053, Note_on_c, 0, 58, 71
2, 279055, Note_on_c, 0, 56, 0
2, 279663, Note_on_c, 0, 63, 73
2, 279685, Note_on_c, 0, 65, 0
2, 280176, Note_on_c, 0, 65, 64
2, 280191, Note_on_c, 0, 66, 0
2, 280212, Note_on_c, 0, 46, 46
2, 280460, Control_c, 0, 64, 21
2, 280475, Control_c, 0, 64, 59
2, 280498, Control_c, 0, 64, 65
2, 280513, Control_c, 0, 64, 70
2, 280527, Control_c, 0, 64, 74
2, 280543, Control_c, 0, 64, 79
2, 280558, Control_c, 0, 64, 85
2, 280574, Control_c, 0, 64, 91
2, 280589, Control_c, 0, 64, 95
2, 280603, Control_c, 0, 64, 97
2, 280649, Control_c, 0, 64, 98
2, 280650, Note_on_c, 0, 58, 0
2, 280665, Control_c, 0, 64, 99
2, 280680, Control_c, 0, 64, 101
2, 280696, Control_c, 0, 64, 103
2, 280711, Control_c, 0, 64, 104
2, 280739, Note_on_c, 0, 62, 55
2, 280775, Note_on_c, 0, 63, 0
2, 280787, Control_c, 0, 64, 97
2, 280801, Control_c, 0, 64, 85
2, 280817, Control_c, 0, 64, 73
2, 280832, Control_c, 0, 64, 64
2, 280847, Control_c, 0, 64, 50
2, 280863, Control_c, 0, 64, 31
2, 280877, Control_c, 0, 64, 40
2, 280892, Control_c, 0, 64, 54
2, 280908, Control_c, 0, 64, 59
2, 280922, Control_c, 0, 64, 61
2, 280938, Control_c, 0, 64, 62
2, 280953, Control_c, 0, 64, 64
2, 280968, Control_c, 0, 64, 68
2, 280984, Control_c, 0, 64, 75
2, 280998, Control_c, 0, 64, 85
2, 280998, Note_on_c, 0, 56, 50
2, 281014, Control_c, 0, 64, 97
2, 281029, Control_c, 0, 64, 114
2, 281044, Control_c, 0, 64, 127
2, 281086, Note_on_c, 0, 56, 0
2, 281099, Note_on_c, 0, 62, 0
2, 281144, Note_on_c, 0, 46, 0
2, 281206, Note_on_c, 0, 65, 0
2, 281402, Control_c, 0, 64, 100
2, 281405, Note_on_c, 0, 63, 53
2, 281418, Control_c, 0, 64, 77
2, 281420, Note_on_c, 0, 54, 37
2, 281423, Note_on_c, 0, 51, 42
2, 281433, Control_c, 0, 64, 64
2, 281447, Control_c, 0, 64, 15
2, 281463, Control_c, 0, 64, 0
2, 281509, Control_c, 0, 64, 25
2, 281524, Control_c, 0, 64, 51
2, 281539, Control_c, 0, 64, 57
2, 281551, Note_on_c, 0, 63, 0
2, 281554, Control_c, 0, 64, 62
2, 281569, Control_c, 0, 64, 65
2, 281585, Control_c, 0, 64, 71
2, 281600, Control_c, 0, 64, 79
2, 281616, Control_c, 0, 64, 92
2, 281631, Control_c, 0, 64, 105
2, 281645, Control_c, 0, 64, 127
2, 281777, Note_on_c, 0, 54, 0
2, 282096, Note_on_c, 0, 75, 59
2, 282107, Note_on_c, 0, 58, 37
2, 282115, Note_on_c, 0, 66, 39
2, 282363, Note_on_c, 0, 58, 0
2, 282440, Note_on_c, 0, 65, 46
2, 282465, Note_on_c, 0, 66, 0
2, 282471, Note_on_c, 0, 75, 0
2, 282652, Note_on_c, 0, 65, 0
2, 282675, Note_on_c, 0, 75, 68
2, 282694, Note_on_c, 0, 58, 52
2, 282697, Note_on_c, 0, 66, 45
2, 282896, Note_on_c, 0, 75, 0
2, 282922, Note_on_c, 0, 58, 0
2, 282931, Note_on_c, 0, 66, 0
2, 282936, Note_on_c, 0, 70, 57
2, 283155, Note_on_c, 0, 75, 76
2, 283178, Note_on_c, 0, 58, 56
2, 283180, Note_on_c, 0, 68, 56
2, 283354, Note_on_c, 0, 75, 0
2, 283362, Note_on_c, 0, 70, 0
2, 283383, Note_on_c, 0, 58, 0
2, 283396, Note_on_c, 0, 66, 67
2, 283431, Note_on_c, 0, 68, 0
2, 283619, Control_c, 0, 64, 103
2, 283620, Note_on_c, 0, 66, 0
2, 283630, Note_on_c, 0, 74, 81
2, 283634, Control_c, 0, 64, 72
2, 283649, Control_c, 0, 64, 51
2, 283651, Note_on_c, 0, 59, 61
2, 283664, Control_c, 0, 64, 0
2, 283668, Note_on_c, 0, 65, 56
2, 283709, Control_c, 0, 64, 36
2, 283724, Control_c, 0, 64, 62
2, 283740, Control_c, 0, 64, 66
2, 283755, Control_c, 0, 64, 72
2, 283771, Control_c, 0, 64, 84
2, 283785, Control_c, 0, 64, 112
2, 283798, Note_on_c, 0, 59, 0
2, 283800, Control_c, 0, 64, 127
2, 283817, Note_on_c, 0, 65, 0
2, 283865, Note_on_c, 0, 68, 68
2, 283868, Note_on_c, 0, 74, 0
2, 283892, Note_on_c, 0, 51, 0
2, 283893, Note_on_c, 0, 68, 0
2, 284089, Note_on_c, 0, 75, 89
2, 284116, Note_on_c, 0, 58, 63
2, 284116, Note_on_c, 0, 66, 61
2, 284134, Note_on_c, 0, 51, 57
2, 284255, Note_on_c, 0, 66, 0
2, 284284, Note_on_c, 0, 58, 0
2, 284293, Note_on_c, 0, 51, 0
2, 284336, Note_on_c, 0, 70, 73
2, 284343, Note_on_c, 0, 50, 69
2, 284577, Note_on_c, 0, 50, 0
2, 284583, Note_on_c, 0, 77, 91
2, 284594, Note_on_c, 0, 51, 67
2, 284598, Control_c, 0, 64, 76
2, 284604, Note_on_c, 0, 71, 76
2, 284609, Note_on_c, 0, 56, 73
2, 284613, Note_on_c, 0, 70, 0
2, 284614, Control_c, 0, 64, 54
2, 284629, Control_c, 0, 64, 0
2, 284674, Control_c, 0, 64, 32
2, 284690, Control_c, 0, 64, 60
2, 284705, Control_c, 0, 64, 64
2, 284720, Control_c, 0, 64, 67
2, 284736, Control_c, 0, 64, 72
2, 284750, Control_c, 0, 64, 79
2, 284765, Control_c, 0, 64, 90
2, 284775, Note_on_c, 0, 51, 0
2, 284781, Control_c, 0, 64, 108
2, 284796, Control_c, 0, 64, 127
2, 284811, Note_on_c, 0, 71, 0
2, 284828, Note_on_c, 0, 70, 74
2, 284831, Note_on_c, 0, 54, 68
2, 284837, Note_on_c, 0, 75, 0
2, 284923, Note_on_c, 0, 56, 0
2, 284985, Note_on_c, 0, 54, 0
2, 285062, Note_on_c, 0, 71, 89
2, 285066, Note_on_c, 0, 70, 0
2, 285069, Note_on_c, 0, 53, 71
2, 285274, Note_on_c, 0, 53, 0
2, 285290, Note_on_c, 0, 51, 79
2, 285516, Note_on_c, 0, 51, 0
2, 285547, Note_on_c, 0, 50, 91
2, 285578, Control_c, 0, 64, 76
2, 285592, Control_c, 0, 64, 35
2, 285607, Control_c, 0, 64, 0
2, 286061, Note_on_c, 0, 75, 89
2, 286062, Note_on_c, 0, 70, 78
2, 286072, Control_c, 0, 64, 42
2, 286075, Note_on_c, 0, 54, 79
2, 286077, Note_on_c, 0, 58, 83
2, 286080, Note_on_c, 0, 77, 0
2, 286087, Control_c, 0, 64, 61
2, 286091, Note_on_c, 0, 71, 0
2, 286102, Control_c, 0, 64, 68
2, 286117, Control_c, 0, 64, 84
2, 286131, Note_on_c, 0, 58, 0
2, 286132, Control_c, 0, 64, 127
2, 286143, Note_on_c, 0, 50, 0
2, 286155, Note_on_c, 0, 54, 0
2, 286558, Note_on_c, 0, 80, 89
2, 286575, Note_on_c, 0, 53, 93
2, 286580, Note_on_c, 0, 75, 0
2, 286589, Control_c, 0, 64, 90
2, 286596, Note_on_c, 0, 70, 0
2, 286604, Control_c, 0, 64, 61
2, 286620, Control_c, 0, 64, 0
2, 286718, Control_c, 0, 64, 42
2, 286733, Control_c, 0, 64, 58
2, 286749, Control_c, 0, 64, 64
2, 286763, Control_c, 0, 64, 68
2, 286779, Control_c, 0, 64, 74
2, 286794, Control_c, 0, 64, 86
2, 286809, Control_c, 0, 64, 105
2, 286825, Control_c, 0, 64, 127
2, 286848, Note_on_c, 0, 75, 79
2, 286867, Note_on_c, 0, 47, 53
2, 287018, Note_on_c, 0, 47, 0
2, 287070, Note_on_c, 0, 74, 87
2, 287084, Note_on_c, 0, 46, 62
2, 287154, Note_on_c, 0, 75, 0
2, 287265, Note_on_c, 0, 80, 0
2, 287280, Note_on_c, 0, 72, 97
2, 287302, Note_on_c, 0, 44, 76
2, 287306, Note_on_c, 0, 46, 0
2, 287309, Note_on_c, 0, 74, 0
2, 287533, Note_on_c, 0, 44, 0
2, 287555, Note_on_c, 0, 74, 97
2, 287557, Note_on_c, 0, 46, 70
2, 287576, Control_c, 0, 64, 95
2, 287591, Control_c, 0, 64, 63
2, 287605, Control_c, 0, 64, 0
2, 287615, Note_on_c, 0, 72, 0
2, 287683, Control_c, 0, 64, 43
2, 287699, Control_c, 0, 64, 61
2, 287713, Control_c, 0, 64, 67
2, 287727, Note_on_c, 0, 53, 0
2, 287728, Control_c, 0, 64, 79
2, 287744, Control_c, 0, 64, 127
2, 287883, Note_on_c, 0, 74, 0
2, 288056, Note_on_c, 0, 54, 85
2, 288058, Note_on_c, 0, 78, 89
2, 288060, Note_on_c, 0, 75, 89
2, 288236, Note_on_c, 0, 54, 0
2, 288325, Note_on_c, 0, 46, 0
2, 288333, Note_on_c, 0, 75, 0
2, 288335, Note_on_c, 0, 77, 102
2, 288339, Note_on_c, 0, 56, 96
2, 288342, Note_on_c, 0, 44, 86
2, 288346, Note_on_c, 0, 78, 0
2, 288376, Note_on_c, 0, 56, 0
2, 288382, Note_on_c, 0, 44, 0
2, 288708, Note_on_c, 0, 77, 0
2, 288741, Note_on_c, 0, 82, 97
2, 288746, Note_on_c, 0, 78, 93
2, 288754, Note_on_c, 0, 42, 85
2, 288755, Note_on_c, 0, 51, 96
2, 288769, Control_c, 0, 64, 83
2, 288785, Control_c, 0, 64, 49
2, 288800, Control_c, 0, 64, 0
2, 288877, Control_c, 0, 64, 55
2, 288891, Control_c, 0, 64, 63
2, 288907, Control_c, 0, 64, 72
2, 288922, Control_c, 0, 64, 95
2, 288945, Control_c, 0, 64, 127
2, 289080, Note_on_c, 0, 51, 0
2, 289105, Note_on_c, 0, 42, 0
2, 289206, Note_on_c, 0, 82, 0
2, 289281, Note_on_c, 0, 78, 0
2, 289310, Note_on_c, 0, 80, 94
2, 289312, Note_on_c, 0, 53, 99
2, 289318, Note_on_c, 0, 74, 88
2, 289324, Note_on_c, 0, 46, 83
2, 289329, Control_c, 0, 64, 72
2, 289344, Control_c, 0, 64, 0
2, 289404, Control_c, 0, 64, 60
2, 289420, Control_c, 0, 64, 69
2, 289435, Control_c, 0, 64, 82
2, 289451, Control_c, 0, 64, 111
2, 289466, Control_c, 0, 64, 127
2, 289475, Note_on_c, 0, 46, 0
2, 289516, Note_on_c, 0, 80, 0
2, 289627, Note_on_c, 0, 53, 0
2, 289760, Note_on_c, 0, 74, 0
2, 289798, Note_on_c, 0, 78, 89
2, 289805, Note_on_c, 0, 75, 82
2, 289809, Note_on_c, 0, 54, 89
2, 289820, Note_on_c, 0, 51, 72
2, 289822, Control_c, 0, 64, 76
2, 289837, Control_c, 0, 64, 36
2, 289853, Control_c, 0, 64, 0
2, 289929, Control_c, 0, 64, 29
2, 289943, Control_c, 0, 64, 51
2, 289958, Control_c, 0, 64, 59
2, 289974, Control_c, 0, 64, 64
2, 289989, Control_c, 0, 64, 68
2, 290004, Control_c, 0, 64, 76
2, 290019, Control_c, 0, 64, 89
2, 290034, Control_c, 0, 64, 108
2, 290039, Note_on_c, 0, 75, 0
2, 290050, Control_c, 0, 64, 127
2, 290271, Note_on_c, 0, 54, 0
2, 290278, Control_c, 0, 64, 84
2, 290279, Note_on_c, 0, 74, 82
2, 290282, Note_on_c, 0, 59, 74
2, 290291, Note_on_c, 0, 68, 78
2, 290294, Control_c, 0, 64, 59
2, 290301, Note_on_c, 0, 53, 59
2, 290309, Control_c, 0, 64, 0
2, 290312, Note_on_c, 0, 78, 0
2, 290399, Control_c, 0, 64, 34
2, 290415, Control_c, 0, 64, 53
2, 290417, Note_on_c, 0, 51, 0
2, 290430, Control_c, 0, 64, 60
2, 290444, Control_c, 0, 64, 64
2, 290453, Note_on_c, 0, 59, 0
2, 290460, Control_c, 0, 64, 68
2, 290477, Note_on_c, 0, 74, 0
2, 290483, Control_c, 0, 64, 77
2, 290499, Control_c, 0, 64, 99
2, 290514, Control_c, 0, 64, 127
2, 290521, Note_on_c, 0, 68, 0
2, 290820, Control_c, 0, 64, 79
2, 290827, Note_on_c, 0, 75, 75
2, 290828, Note_on_c, 0, 66, 73
2, 290834, Control_c, 0, 64, 57
2, 290847, Note_on_c, 0, 53, 0
2, 290849, Note_on_c, 0, 54, 61
2, 290850, Control_c, 0, 64, 0
2, 290851, Note_on_c, 0, 58, 63
2, 290926, Control_c, 0, 64, 47
2, 290942, Control_c, 0, 64, 58
2, 290957, Control_c, 0, 64, 63
2, 290973, Control_c, 0, 64, 66
2, 290987, Control_c, 0, 64, 71
2, 291003, Control_c, 0, 64, 78
2, 291018, Control_c, 0, 64, 91
2, 291022, Note_on_c, 0, 58, 0
2, 291033, Control_c, 0, 64, 113
2, 291042, Note_on_c, 0, 54, 0
2, 291049, Control_c, 0, 64, 127
2, 291110, Note_on_c, 0, 65, 77
2, 291119, Note_on_c, 0, 66, 0
2, 291394, Note_on_c, 0, 65, 0
2, 291394, Note_on_c, 0, 71, 83
2, 291406, Control_c, 0, 64, 82
2, 291413, Note_on_c, 0, 66, 71
2, 291421, Control_c, 0, 64, 61
2, 291426, Note_on_c, 0, 45, 47
2, 291430, Note_on_c, 0, 51, 42
2, 291435, Control_c, 0, 64, 0
2, 291497, Control_c, 0, 64, 31
2, 291511, Control_c, 0, 64, 58
2, 291527, Control_c, 0, 64, 63
2, 291542, Control_c, 0, 64, 66
2, 291556, Control_c, 0, 64, 69
2, 291572, Control_c, 0, 64, 74
2, 291587, Control_c, 0, 64, 82
2, 291603, Control_c, 0, 64, 92
2, 291618, Control_c, 0, 64, 104
2, 291632, Control_c, 0, 64, 119
2, 291648, Control_c, 0, 64, 127
2, 291715, Note_on_c, 0, 53, 81
2, 291724, Note_on_c, 0, 51, 0
2, 291754, Note_on_c, 0, 45, 0
2, 291773, Note_on_c, 0, 71, 0
2, 292127, Note_on_c, 0, 70, 81
2, 292143, Control_c, 0, 64, 103
2, 292143, Note_on_c, 0, 54, 71
2, 292149, Note_on_c, 0, 46, 61
2, 292158, Control_c, 0, 64, 86
2, 292174, Control_c, 0, 64, 73
2, 292186, Note_on_c, 0, 53, 0
2, 292189, Control_c, 0, 64, 60
2, 292204, Control_c, 0, 64, 0
2, 292569, Control_c, 0, 64, 40
2, 292584, Control_c, 0, 64, 52
2, 292599, Control_c, 0, 64, 56
2, 292599, Control_c, 0, 67, 9
2, 292615, Control_c, 0, 64, 59
2, 292615, Control_c, 0, 67, 44
2, 292630, Control_c, 0, 64, 60
2, 292630, Control_c, 0, 67, 70
2, 292646, Control_c, 0, 64, 62
2, 292646, Control_c, 0, 67, 92
2, 292660, Control_c, 0, 64, 63
2, 292660, Control_c, 0, 67, 111
2, 292675, Control_c, 0, 64, 64
2, 292675, Control_c, 0, 67, 126
2, 292691, Control_c, 0, 64, 65
2, 292691, Control_c, 0, 67, 127
2, 292706, Control_c, 0, 64, 65
2, 292722, Control_c, 0, 64, 66
2, 292737, Control_c, 0, 64, 67
2, 292739, Note_on_c, 0, 66, 0
2, 292742, Note_on_c, 0, 68, 79
2, 292751, Control_c, 0, 64, 68
2, 292758, Note_on_c, 0, 54, 0
2, 292767, Control_c, 0, 64, 70
2, 292770, Note_on_c, 0, 53, 49
2, 292789, Control_c, 0, 64, 72
2, 292805, Control_c, 0, 64, 74
2, 292820, Control_c, 0, 64, 76
2, 292834, Control_c, 0, 64, 76
2, 292850, Control_c, 0, 64, 77
2, 292865, Control_c, 0, 64, 78
2, 292881, Control_c, 0, 64, 79
2, 292896, Control_c, 0, 64, 79
2, 292910, Control_c, 0, 64, 80
2, 292941, Control_c, 0, 64, 80
2, 293048, Control_c, 0, 64, 81
2, 293115, Note_on_c, 0, 53, 0
2, 293122, Note_on_c, 0, 66, 81
2, 293141, Note_on_c, 0, 51, 61
2, 293165, Note_on_c, 0, 75, 0
2, 293195, Note_on_c, 0, 70, 0
2, 293490, Control_c, 0, 64, 80
2, 293492, Note_on_c, 0, 74, 73
2, 293495, Note_on_c, 0, 68, 0
2, 293505, Control_c, 0, 64, 78
2, 293521, Control_c, 0, 64, 73
2, 293526, Note_on_c, 0, 66, 0
2, 293527, Note_on_c, 0, 51, 0
2, 293529, Note_on_c, 0, 58, 47
2, 293536, Control_c, 0, 64, 65
2, 293555, Note_on_c, 0, 65, 33
2, 293558, Control_c, 0, 64, 51
2, 293574, Control_c, 0, 64, 0
2, 293895, Note_on_c, 0, 66, 53
2, 293923, Control_c, 0, 64, 50
2, 293938, Control_c, 0, 64, 62
2, 293953, Control_c, 0, 64, 67
2, 293969, Control_c, 0, 64, 74
2, 293972, Note_on_c, 0, 65, 0
2, 293984, Control_c, 0, 64, 90
2, 293999, Control_c, 0, 64, 127
2, 294048, Note_on_c, 0, 66, 0
2, 294372, Control_c, 0, 64, 99
2, 294372, Note_on_c, 0, 68, 54
2, 294387, Control_c, 0, 64, 74
2, 294393, Note_on_c, 0, 65, 40
2, 294403, Control_c, 0, 64, 56
2, 294418, Control_c, 0, 64, 0
2, 294478, Control_c, 0, 64, 46
2, 294494, Control_c, 0, 64, 55
2, 294509, Control_c, 0, 64, 58
2, 294524, Control_c, 0, 64, 61
2, 294539, Control_c, 0, 64, 64
2, 294554, Control_c, 0, 64, 68
2, 294570, Control_c, 0, 64, 75
2, 294585, Control_c, 0, 64, 85
2, 294601, Control_c, 0, 64, 100
2, 294615, Control_c, 0, 64, 127
2, 294660, Note_on_c, 0, 65, 0
2, 294665, Note_on_c, 0, 58, 0
2, 294712, Note_on_c, 0, 74, 0
2, 294895, Note_on_c, 0, 46, 0
2, 295022, Note_on_c, 0, 68, 0
2, 295495, Note_on_c, 0, 75, 63
2, 295504, Note_on_c, 0, 70, 51
2, 295523, Note_on_c, 0, 67, 49
2, 295525, Note_on_c, 0, 39, 41
2, 295534, Note_on_c, 0, 63, 45
2, 295641, Control_c, 0, 64, 95
2, 295656, Control_c, 0, 64, 82
2, 295671, Control_c, 0, 64, 71
2, 295687, Control_c, 0, 64, 63
2, 295702, Control_c, 0, 64, 49
2, 295717, Control_c, 0, 64, 0
2, 297054, Control_c, 0, 64, 16
2, 297069, Control_c, 0, 64, 35
2, 297085, Control_c, 0, 64, 44
2, 297100, Control_c, 0, 64, 50
2, 297115, Control_c, 0, 64, 55
2, 297130, Control_c, 0, 64, 59
2, 297145, Control_c, 0, 64, 63
2, 297161, Control_c, 0, 64, 66
2, 297176, Control_c, 0, 64, 70
2, 297191, Control_c, 0, 64, 77
2, 297207, Control_c, 0, 64, 87
2, 297222, Control_c, 0, 64, 99
2, 297236, Control_c, 0, 64, 115
2, 297252, Control_c, 0, 64, 127
2, 298369, Note_on_c, 0, 75, 0
2, 298390, Note_on_c, 0, 63, 0
2, 298409, Note_on_c, 0, 67, 0
2, 298421, Note_on_c, 0, 70, 0
2, 298453, Note_on_c, 0, 39, 0
2, 298652, Control_c, 0, 64, 117
2, 298667, Control_c, 0, 64, 108
2, 298683, Control_c, 0, 64, 104
2, 298697, Control_c, 0, 64, 100
2, 298712, Control_c, 0, 64, 97
2, 298728, Control_c, 0, 64, 94
2, 298742, Control_c, 0, 64, 92
2, 298757, Control_c, 0, 64, 90
2, 298773, Control_c, 0, 64, 87
2, 298788, Control_c, 0, 64, 85
2, 298804, Control_c, 0, 64, 82
2, 298818, Control_c, 0, 64, 79
2, 298833, Control_c, 0, 64, 75
2, 298849, Control_c, 0, 64, 69
2, 298864, Control_c, 0, 64, 64
2, 298878, Control_c, 0, 64, 55
2, 298894, Control_c, 0, 64, 37
2, 298909, Control_c, 0, 64, 0
2, 298910, End_track
0, 0, End_of_file
