0, 0, Header, 1, 2, 384
1, 0, Start_track
1, 0, Tempo, 500000
1, 0, Time_signature, 4, 2, 24, 8
1, 1, End_track
2,0,Start_track
2,0, Note_on_c, 0, 63, 41
2,120, Control_c, 0, 64, 22
2,135, Control_c, 0, 64, 41
2,150, Control_c, 0, 64, 50
2,166, Control_c, 0, 64, 56
2,181, Control_c, 0, 64, 61
2,197, Control_c, 0, 64, 64
2,211, Control_c, 0, 64, 69
2,226, Control_c, 0, 64, 78
2,242, Control_c, 0, 64, 93
2,257, Control_c, 0, 64, 127
2,370, Note_on_c, 0, 63, 0
2,605, Note_on_c, 0, 63, 61
2,950, Note_on_c, 0, 63, 0
2,1131, Note_on_c, 0, 63, 61
2,1239, Control_c, 0, 64, 116
2,1261, Control_c, 0, 64, 91
2,1277, Control_c, 0, 64, 81
2,1291, Control_c, 0, 64, 72
2,1306, Control_c, 0, 64, 65
2,1322, Control_c, 0, 64, 54
2,1337, Control_c, 0, 64, 0
2,1671, Note_on_c, 0, 62, 57
2,1713, Note_on_c, 0, 63, 0
2,2209, Note_on_c, 0, 63, 72
2,2256, Note_on_c, 0, 62, 0
2,2848, Note_on_c, 0, 65, 67
2,2872, Note_on_c, 0, 63, 0
2,4368, Note_on_c, 0, 63, 52
2,4406, Note_on_c, 0, 65, 0
2,5014, Note_on_c, 0, 68, 68
2,5077, Note_on_c, 0, 63, 0
2,6490, Note_on_c, 0, 66, 51
2,6698, Note_on_c, 0, 68, 0
2,6727, Note_on_c, 0, 65, 59
2,6754, Note_on_c, 0, 66, 0
2,7054, Note_on_c, 0, 70, 62
2,7079, Note_on_c, 0, 65, 0
2,7681, Note_on_c, 0, 68, 51
2,7737, Note_on_c, 0, 70, 0
2,8243, Note_on_c, 0, 66, 48
2,8304, Note_on_c, 0, 68, 0
2,8790, Note_on_c, 0, 58, 46
2,8790, Note_on_c, 0, 65, 46
2,8790, Note_on_c, 0, 66, 0
2,8919, Control_c, 0, 64, 22
2,8941, Control_c, 0, 64, 47
2,8957, Control_c, 0, 64, 57
2,8972, Control_c, 0, 64, 63
2,8987, Control_c, 0, 64, 66
2,9002, Control_c, 0, 64, 73
2,9017, Control_c, 0, 64, 85
2,9032, Control_c, 0, 64, 119
2,9047, Control_c, 0, 64, 127
2,9118, Note_on_c, 0, 58, 0
2,9312, Note_on_c, 0, 58, 67
2,9326, Note_on_c, 0, 63, 54
2,9343, Note_on_c, 0, 65, 0
2,9367, Control_c, 0, 64, 104
2,9382, Control_c, 0, 64, 81
2,9397, Control_c, 0, 64, 67
2,9412, Control_c, 0, 64, 60
2,9427, Control_c, 0, 64, 54
2,9443, Control_c, 0, 64, 57
2,9457, Control_c, 0, 64, 60
2,9472, Control_c, 0, 64, 63
2,9488, Control_c, 0, 64, 65
2,9503, Control_c, 0, 64, 70
2,9519, Control_c, 0, 64, 78
2,9533, Control_c, 0, 64, 90
2,9548, Control_c, 0, 64, 119
2,9564, Control_c, 0, 64, 127
2,9587, Note_on_c, 0, 58, 0
2,9836, Note_on_c, 0, 58, 63
2,9849, Note_on_c, 0, 61, 53
2,9866, Note_on_c, 0, 63, 0
2,9877, Control_c, 0, 64, 115
2,9891, Control_c, 0, 64, 94
2,9906, Control_c, 0, 64, 82
2,9922, Control_c, 0, 64, 70
2,9937, Control_c, 0, 64, 62
2,9952, Control_c, 0, 64, 36
2,9968, Control_c, 0, 64, 0
2,10081, Note_on_c, 0, 63, 67
2,10125, Note_on_c, 0, 61, 0
2,10423, Note_on_c, 0, 65, 60
2,10442, Note_on_c, 0, 63, 0
2,10450, Note_on_c, 0, 57, 53
2,10502, Note_on_c, 0, 58, 0
2,10954, Note_on_c, 0, 58, 67
2,11008, Note_on_c, 0, 57, 0
2,11552, Note_on_c, 0, 60, 63
2,11606, Note_on_c, 0, 58, 0
2,12081, Note_on_c, 0, 63, 46
2,12113, Note_on_c, 0, 65, 0
2,12322, Note_on_c, 0, 65, 67
2,12340, Note_on_c, 0, 63, 0
2,12622, Note_on_c, 0, 66, 68
2,12670, Note_on_c, 0, 65, 0
2,13166, Note_on_c, 0, 58, 65
2,13232, Note_on_c, 0, 60, 0
2,13746, Note_on_c, 0, 63, 72
2,13860, Note_on_c, 0, 58, 0
2,14284, Note_on_c, 0, 65, 43
2,14322, Note_on_c, 0, 66, 0
2,14526, Note_on_c, 0, 67, 66
2,14615, Note_on_c, 0, 65, 0
2,14885, Note_on_c, 0, 68, 68
2,14954, Note_on_c, 0, 67, 0
2,15411, Note_on_c, 0, 61, 52
2,15589, Note_on_c, 0, 63, 0
2,15649, Note_on_c, 0, 60, 73
2,15684, Note_on_c, 0, 61, 0
2,15987, Note_on_c, 0, 65, 72
2,16049, Note_on_c, 0, 60, 0
2,16464, Note_on_c, 0, 68, 0
2,16492, Note_on_c, 0, 67, 51
2,16495, Note_on_c, 0, 63, 51
2,16582, Note_on_c, 0, 65, 0
2,16734, Note_on_c, 0, 69, 58
2,16844, Note_on_c, 0, 67, 0
2,17047, Note_on_c, 0, 70, 60
2,17057, Note_on_c, 0, 61, 45
2,17070, Note_on_c, 0, 69, 0
2,17121, Note_on_c, 0, 63, 0
2,17618, Note_on_c, 0, 72, 52
2,17636, Note_on_c, 0, 60, 40
2,17638, Note_on_c, 0, 70, 0
2,17681, Note_on_c, 0, 61, 0
2,18257, Note_on_c, 0, 73, 55
2,18278, Note_on_c, 0, 58, 27
2,18284, Note_on_c, 0, 72, 0
2,18353, Note_on_c, 0, 60, 0
2,18880, Note_on_c, 0, 70, 47
2,18987, Control_c, 0, 64, 22
2,19003, Control_c, 0, 64, 50
2,19018, Control_c, 0, 64, 59
2,19034, Control_c, 0, 64, 63
2,19049, Control_c, 0, 64, 68
2,19062, Note_on_c, 0, 58, 0
2,19063, Control_c, 0, 64, 77
2,19079, Control_c, 0, 64, 94
2,19094, Control_c, 0, 64, 127
2,19167, Note_on_c, 0, 70, 0
2,19384, Note_on_c, 0, 63, 55
2,19429, Control_c, 0, 64, 98
2,19443, Control_c, 0, 64, 84
2,19458, Control_c, 0, 64, 75
2,19474, Control_c, 0, 64, 68
2,19490, Control_c, 0, 64, 60
2,19505, Control_c, 0, 64, 32
2,19521, Control_c, 0, 64, 0
2,19900, Note_on_c, 0, 67, 59
2,20415, Note_on_c, 0, 68, 69
2,20465, Note_on_c, 0, 73, 0
2,20835, Note_on_c, 0, 67, 0
2,20984, Note_on_c, 0, 70, 60
2,20989, Note_on_c, 0, 68, 0
2,21004, Note_on_c, 0, 61, 40
2,21049, Note_on_c, 0, 63, 0
2,21602, Note_on_c, 0, 63, 63
2,21634, Note_on_c, 0, 59, 31
2,21646, Note_on_c, 0, 61, 0
2,21654, Note_on_c, 0, 70, 0
2,22231, Note_on_c, 0, 68, 70
2,22277, Note_on_c, 0, 63, 0
2,22746, Note_on_c, 0, 58, 58
2,22815, Note_on_c, 0, 59, 0
2,23284, Note_on_c, 0, 67, 71
2,23289, Note_on_c, 0, 68, 0
2,23718, Control_c, 0, 67, 18
2,23733, Control_c, 0, 67, 28
2,23749, Control_c, 0, 67, 35
2,23764, Control_c, 0, 67, 39
2,23778, Control_c, 0, 67, 41
2,23854, Control_c, 0, 67, 40
2,23870, Control_c, 0, 67, 39
2,23885, Control_c, 0, 67, 38
2,23899, Control_c, 0, 67, 37
2,23914, Note_on_c, 0, 71, 62
2,23915, Control_c, 0, 67, 35
2,23930, Control_c, 0, 67, 35
2,23934, Note_on_c, 0, 56, 39
2,23935, Note_on_c, 0, 67, 0
2,23945, Control_c, 0, 67, 34
2,23961, Control_c, 0, 67, 34
2,23991, Control_c, 0, 67, 33
2,24006, Control_c, 0, 67, 33
2,24017, Note_on_c, 0, 58, 0
2,24021, Control_c, 0, 67, 32
2,24037, Control_c, 0, 67, 31
2,24052, Control_c, 0, 67, 31
2,24097, Control_c, 0, 67, 30
2,24113, Control_c, 0, 67, 30
2,24128, Control_c, 0, 67, 29
2,24143, Control_c, 0, 67, 29
2,24159, Control_c, 0, 67, 28
2,24173, Control_c, 0, 67, 27
2,24204, Control_c, 0, 67, 27
2,24219, Control_c, 0, 67, 26
2,24235, Control_c, 0, 67, 26
2,24249, Control_c, 0, 67, 25
2,24264, Control_c, 0, 67, 24
2,24295, Control_c, 0, 67, 24
2,24318, Control_c, 0, 67, 23
2,24333, Control_c, 0, 67, 23
2,24349, Control_c, 0, 67, 22
2,24490, Note_on_c, 0, 68, 49
2,24607, Control_c, 0, 67, 22
2,24638, Control_c, 0, 67, 20
2,24654, Control_c, 0, 64, 47
2,24654, Control_c, 0, 67, 20
2,24670, Control_c, 0, 64, 55
2,24670, Control_c, 0, 67, 18
2,24684, Control_c, 0, 64, 59
2,24684, Control_c, 0, 67, 16
2,24699, Control_c, 0, 64, 62
2,24699, Control_c, 0, 67, 15
2,24715, Control_c, 0, 64, 64
2,24715, Control_c, 0, 67, 13
2,24730, Control_c, 0, 64, 70
2,24730, Control_c, 0, 67, 13
2,24744, Control_c, 0, 64, 79
2,24744, Control_c, 0, 67, 12
2,24760, Control_c, 0, 64, 89
2,24760, Control_c, 0, 67, 12
2,24762, Note_on_c, 0, 56, 0
2,24775, Control_c, 0, 64, 96
2,24791, Control_c, 0, 64, 101
2,24791, Note_on_c, 0, 68, 0
2,24806, Control_c, 0, 64, 106
2,24820, Control_c, 0, 64, 110
2,24836, Control_c, 0, 64, 114
2,24851, Control_c, 0, 64, 116
2,24987, Control_c, 0, 67, 12
2,25003, Control_c, 0, 64, 112
2,25017, Note_on_c, 0, 62, 43
2,25018, Control_c, 0, 64, 107
2,25033, Control_c, 0, 64, 102
2,25048, Control_c, 0, 64, 96
2,25063, Control_c, 0, 64, 90
2,25063, Control_c, 0, 67, 13
2,25087, Control_c, 0, 64, 84
2,25101, Control_c, 0, 64, 78
2,25117, Control_c, 0, 64, 73
2,25117, Control_c, 0, 67, 13
2,25132, Control_c, 0, 64, 68
2,25147, Control_c, 0, 64, 63
2,25162, Control_c, 0, 64, 52
2,25177, Control_c, 0, 64, 24
2,25193, Control_c, 0, 64, 0
2,25240, Control_c, 0, 67, 14
2,25285, Control_c, 0, 67, 15
2,25518, Note_on_c, 0, 70, 42
2,25594, Note_on_c, 0, 71, 0
2,25648, Control_c, 0, 67, 14
2,25755, Control_c, 0, 67, 13
2,25773, Note_on_c, 0, 68, 52
2,25775, Note_on_c, 0, 70, 0
2,26063, Note_on_c, 0, 62, 0
2,26082, Control_c, 0, 67, 12
2,26097, Control_c, 0, 67, 11
2,26113, Control_c, 0, 67, 9
2,26113, Note_on_c, 0, 66, 49
2,26119, Note_on_c, 0, 68, 0
2,26128, Control_c, 0, 67, 0
2,26133, Note_on_c, 0, 63, 38
2,26173, Control_c, 0, 64, 51
2,26189, Control_c, 0, 64, 60
2,26204, Control_c, 0, 64, 65
2,26218, Control_c, 0, 64, 69
2,26231, Note_on_c, 0, 63, 0
2,26234, Control_c, 0, 64, 76
2,26249, Control_c, 0, 64, 91
2,26264, Control_c, 0, 64, 127
2,26782, Note_on_c, 0, 68, 64
2,26791, Note_on_c, 0, 51, 57
2,26808, Note_on_c, 0, 53, 44
2,26815, Note_on_c, 0, 66, 0
2,26864, Control_c, 0, 64, 97
2,26880, Control_c, 0, 64, 89
2,26895, Control_c, 0, 64, 88
2,26941, Control_c, 0, 64, 89
2,26956, Control_c, 0, 64, 92
2,26971, Control_c, 0, 64, 102
2,26986, Control_c, 0, 64, 127
2,27117, Note_on_c, 0, 53, 0
2,27234, Note_on_c, 0, 51, 0
2,27316, Note_on_c, 0, 70, 70
2,27317, Note_on_c, 0, 51, 61
2,27335, Note_on_c, 0, 54, 64
2,27336, Control_c, 0, 64, 111
2,27337, Note_on_c, 0, 68, 0
2,27351, Control_c, 0, 64, 80
2,27374, Control_c, 0, 64, 62
2,27390, Control_c, 0, 64, 0
2,27450, Control_c, 0, 64, 48
2,27465, Control_c, 0, 64, 59
2,27480, Control_c, 0, 64, 63
2,27495, Control_c, 0, 64, 65
2,27511, Control_c, 0, 64, 70
2,27526, Control_c, 0, 64, 81
2,27541, Control_c, 0, 64, 127
2,27610, Note_on_c, 0, 51, 0
2,27625, Note_on_c, 0, 54, 0
2,27815, Note_on_c, 0, 71, 69
2,27819, Note_on_c, 0, 51, 71
2,27821, Note_on_c, 0, 56, 72
2,27831, Control_c, 0, 64, 104
2,27846, Control_c, 0, 64, 76
2,27854, Note_on_c, 0, 70, 0
2,27861, Control_c, 0, 64, 62
2,27877, Control_c, 0, 64, 28
2,27892, Control_c, 0, 64, 0
2,27906, Control_c, 0, 64, 43
2,27922, Control_c, 0, 64, 59
2,27937, Control_c, 0, 64, 65
2,27953, Control_c, 0, 64, 71
2,27968, Control_c, 0, 64, 89
2,27982, Control_c, 0, 64, 127
2,27999, Note_on_c, 0, 56, 0
2,28345, Note_on_c, 0, 58, 64
2,28347, Note_on_c, 0, 50, 64
2,28359, Note_on_c, 0, 65, 54
2,28385, Control_c, 0, 64, 93
2,28391, Note_on_c, 0, 51, 0
2,28400, Control_c, 0, 64, 77
2,28415, Control_c, 0, 64, 66
2,28431, Control_c, 0, 64, 44
2,28437, Note_on_c, 0, 71, 0
2,28445, Control_c, 0, 64, 0
2,28598, Note_on_c, 0, 66, 67
2,28638, Note_on_c, 0, 65, 0
2,28846, Note_on_c, 0, 51, 71
2,28857, Note_on_c, 0, 65, 61
2,28897, Note_on_c, 0, 50, 0
2,28968, Note_on_c, 0, 66, 0
2,29100, Note_on_c, 0, 63, 68
2,29126, Note_on_c, 0, 65, 0
2,29345, Note_on_c, 0, 63, 0
2,29348, Note_on_c, 0, 53, 75
2,29354, Note_on_c, 0, 62, 54
2,29423, Note_on_c, 0, 51, 0
2,29564, Control_c, 0, 64, 37
2,29579, Control_c, 0, 64, 56
2,29588, Note_on_c, 0, 62, 0
2,29595, Control_c, 0, 64, 63
2,29598, Note_on_c, 0, 63, 65
2,29610, Control_c, 0, 64, 68
2,29625, Control_c, 0, 64, 75
2,29641, Control_c, 0, 64, 85
2,29656, Control_c, 0, 64, 93
2,29671, Control_c, 0, 64, 98
2,29693, Control_c, 0, 64, 103
2,29708, Control_c, 0, 64, 105
2,29800, Control_c, 0, 64, 104
2,29815, Control_c, 0, 64, 98
2,29830, Control_c, 0, 64, 91
2,29834, Note_on_c, 0, 63, 0
2,29842, Note_on_c, 0, 56, 62
2,29845, Control_c, 0, 64, 81
2,29860, Control_c, 0, 64, 72
2,29861, Note_on_c, 0, 65, 60
2,29876, Control_c, 0, 64, 64
2,29891, Control_c, 0, 64, 39
2,29895, Note_on_c, 0, 58, 0
2,29906, Control_c, 0, 64, 0
2,30058, Control_c, 0, 64, 43
2,30074, Control_c, 0, 64, 52
2,30084, Note_on_c, 0, 66, 77
2,30088, Control_c, 0, 64, 58
2,30096, Note_on_c, 0, 58, 60
2,30103, Control_c, 0, 64, 62
2,30119, Control_c, 0, 64, 64
2,30135, Control_c, 0, 64, 67
2,30151, Control_c, 0, 64, 71
2,30163, Note_on_c, 0, 65, 0
2,30166, Control_c, 0, 64, 74
2,30181, Control_c, 0, 64, 78
2,30196, Control_c, 0, 64, 80
2,30211, Control_c, 0, 64, 80
2,30226, Control_c, 0, 64, 81
2,30312, Note_on_c, 0, 58, 0
2,30332, Control_c, 0, 64, 78
2,30347, Control_c, 0, 64, 73
2,30363, Control_c, 0, 64, 67
2,30374, Note_on_c, 0, 68, 69
2,30378, Control_c, 0, 64, 58
2,30379, Note_on_c, 0, 59, 55
2,30393, Control_c, 0, 64, 0
2,30411, Note_on_c, 0, 66, 0
2,30480, Note_on_c, 0, 56, 0
2,30612, Note_on_c, 0, 68, 0
2,30623, Note_on_c, 0, 70, 67
2,30860, Note_on_c, 0, 51, 78
2,30876, Note_on_c, 0, 68, 64
2,30971, Note_on_c, 0, 70, 0
2,31065, Note_on_c, 0, 53, 0
2,31102, Note_on_c, 0, 66, 75
2,31261, Note_on_c, 0, 68, 0
2,31401, Note_on_c, 0, 66, 0
2,31407, Note_on_c, 0, 65, 64
2,31417, Note_on_c, 0, 56, 78
2,31487, Note_on_c, 0, 51, 0
2,31926, Note_on_c, 0, 59, 0
2,31948, Note_on_c, 0, 58, 48
2,32199, Note_on_c, 0, 60, 71
2,32243, Note_on_c, 0, 58, 0
2,32500, Note_on_c, 0, 61, 72
2,32540, Note_on_c, 0, 60, 0
2,33024, Control_c, 0, 64, 35
2,33027, Note_on_c, 0, 65, 0
2,33027, Note_on_c, 0, 66, 62
2,33037, Note_on_c, 0, 54, 61
2,33040, Control_c, 0, 64, 52
2,33054, Control_c, 0, 64, 58
2,33070, Control_c, 0, 64, 61
2,33085, Control_c, 0, 64, 63
2,33087, Note_on_c, 0, 56, 0
2,33100, Control_c, 0, 64, 66
2,33115, Control_c, 0, 64, 71
2,33130, Control_c, 0, 64, 80
2,33145, Control_c, 0, 64, 93
2,33161, Control_c, 0, 64, 121
2,33176, Control_c, 0, 64, 127
2,33232, Note_on_c, 0, 54, 0
2,33265, Note_on_c, 0, 53, 78
2,33277, Note_on_c, 0, 68, 73
2,33321, Note_on_c, 0, 66, 0
2,33496, Control_c, 0, 64, 121
2,33511, Control_c, 0, 64, 105
2,33534, Control_c, 0, 64, 94
2,33548, Control_c, 0, 64, 82
2,33564, Control_c, 0, 64, 72
2,33579, Control_c, 0, 64, 64
2,33595, Control_c, 0, 64, 44
2,33610, Control_c, 0, 64, 0
2,33618, Note_on_c, 0, 58, 77
2,33631, Note_on_c, 0, 66, 67
2,33686, Note_on_c, 0, 68, 0
2,33694, Note_on_c, 0, 53, 0
2,33838, Control_c, 0, 64, 29
2,33853, Control_c, 0, 64, 50
2,33868, Control_c, 0, 64, 58
2,33884, Control_c, 0, 64, 62
2,33898, Control_c, 0, 64, 65
2,33914, Control_c, 0, 64, 70
2,33929, Control_c, 0, 64, 82
2,33944, Control_c, 0, 64, 99
2,33959, Control_c, 0, 64, 127
2,34107, Note_on_c, 0, 61, 0
2,34155, Note_on_c, 0, 65, 72
2,34161, Note_on_c, 0, 56, 69
2,34172, Note_on_c, 0, 60, 55
2,34182, Note_on_c, 0, 58, 0
2,34186, Control_c, 0, 64, 115
2,34202, Control_c, 0, 64, 84
2,34217, Control_c, 0, 64, 70
2,34234, Control_c, 0, 64, 60
2,34249, Control_c, 0, 64, 54
2,34263, Control_c, 0, 64, 57
2,34287, Control_c, 0, 64, 61
2,34302, Control_c, 0, 64, 63
2,34318, Control_c, 0, 64, 66
2,34333, Control_c, 0, 64, 70
2,34347, Control_c, 0, 64, 80
2,34363, Control_c, 0, 64, 94
2,34378, Control_c, 0, 64, 127
2,34383, Note_on_c, 0, 56, 0
2,34406, Note_on_c, 0, 62, 83
2,34431, Note_on_c, 0, 66, 0
2,34447, Note_on_c, 0, 60, 0
2,34487, Note_on_c, 0, 62, 0
2,34710, Note_on_c, 0, 63, 85
2,34712, Control_c, 0, 64, 99
2,34727, Control_c, 0, 64, 74
2,34728, Note_on_c, 0, 54, 64
2,34742, Control_c, 0, 64, 60
2,34757, Control_c, 0, 64, 0
2,34817, Control_c, 0, 64, 49
2,34833, Control_c, 0, 64, 57
2,34848, Control_c, 0, 64, 60
2,34850, Note_on_c, 0, 65, 0
2,34863, Control_c, 0, 64, 63
2,34878, Control_c, 0, 64, 66
2,34893, Control_c, 0, 64, 71
2,34908, Control_c, 0, 64, 81
2,34924, Control_c, 0, 64, 97
2,34939, Control_c, 0, 64, 127
2,35093, Note_on_c, 0, 54, 0
2,35251, Control_c, 0, 64, 105
2,35252, Note_on_c, 0, 70, 85
2,35266, Control_c, 0, 64, 77
2,35279, Note_on_c, 0, 63, 0
2,35280, Note_on_c, 0, 53, 52
2,35281, Note_on_c, 0, 62, 56
2,35282, Control_c, 0, 64, 63
2,35290, Note_on_c, 0, 56, 49
2,35297, Control_c, 0, 64, 0
2,35342, Control_c, 0, 64, 33
2,35358, Control_c, 0, 64, 52
2,35373, Control_c, 0, 64, 57
2,35388, Control_c, 0, 64, 60
2,35404, Control_c, 0, 64, 63
2,35419, Control_c, 0, 64, 66
2,35425, Note_on_c, 0, 53, 0
2,35428, Note_on_c, 0, 56, 0
2,35434, Control_c, 0, 64, 72
2,35449, Control_c, 0, 64, 81
2,35464, Control_c, 0, 64, 96
2,35480, Control_c, 0, 64, 127
2,35554, Note_on_c, 0, 70, 0
2,35737, Control_c, 0, 64, 96
2,35737, Note_on_c, 0, 70, 81
2,35753, Control_c, 0, 64, 77
2,35757, Note_on_c, 0, 62, 0
2,35768, Control_c, 0, 64, 69
2,35770, Note_on_c, 0, 63, 59
2,35772, Note_on_c, 0, 54, 57
2,35783, Control_c, 0, 64, 68
2,35783, Note_on_c, 0, 51, 46
2,35813, Control_c, 0, 64, 70
2,35837, Control_c, 0, 64, 73
2,35851, Control_c, 0, 64, 77
2,35866, Control_c, 0, 64, 82
2,35883, Control_c, 0, 64, 87
2,35898, Control_c, 0, 64, 92
2,35914, Control_c, 0, 64, 98
2,35929, Control_c, 0, 64, 127
2,35944, Note_on_c, 0, 63, 0
2,35951, Note_on_c, 0, 51, 0
2,35973, Note_on_c, 0, 54, 0
2,35977, Note_on_c, 0, 70, 0
2,35981, Note_on_c, 0, 65, 80
2,35987, Note_on_c, 0, 56, 64
2,36068, Note_on_c, 0, 56, 0
2,36187, Note_on_c, 0, 65, 0
2,36219, Note_on_c, 0, 70, 88
2,36232, Control_c, 0, 64, 84
2,36241, Note_on_c, 0, 66, 67
2,36244, Note_on_c, 0, 58, 71
2,36247, Control_c, 0, 64, 55
2,36262, Control_c, 0, 64, 0
2,36265, Note_on_c, 0, 49, 59
2,36339, Control_c, 0, 64, 49
2,36355, Control_c, 0, 64, 59
2,36369, Control_c, 0, 64, 62
2,36369, Note_on_c, 0, 58, 0
2,36383, Note_on_c, 0, 49, 0
2,36384, Control_c, 0, 64, 65
2,36400, Control_c, 0, 64, 70
2,36414, Control_c, 0, 64, 81
2,36430, Control_c, 0, 64, 110
2,36445, Control_c, 0, 64, 127
2,36461, Note_on_c, 0, 60, 87
2,36471, Note_on_c, 0, 51, 80
2,36471, Note_on_c, 0, 66, 0
2,36543, Note_on_c, 0, 60, 0
2,36773, Control_c, 0, 64, 87
2,36788, Control_c, 0, 64, 65
2,36803, Control_c, 0, 64, 31
2,36806, Note_on_c, 0, 69, 93
2,36818, Control_c, 0, 64, 0
2,36824, Note_on_c, 0, 53, 65
2,36832, Note_on_c, 0, 65, 59
2,36834, Note_on_c, 0, 70, 0
2,36837, Note_on_c, 0, 61, 74
2,36872, Note_on_c, 0, 51, 0
2,37198, Control_c, 0, 64, 37
2,37213, Control_c, 0, 64, 55
2,37228, Control_c, 0, 64, 62
2,37244, Control_c, 0, 64, 66
2,37259, Control_c, 0, 64, 74
2,37275, Control_c, 0, 64, 88
2,37289, Control_c, 0, 64, 121
2,37304, Control_c, 0, 64, 127
2,37339, Note_on_c, 0, 61, 0
2,37394, Note_on_c, 0, 70, 84
2,37403, Control_c, 0, 64, 114
2,37406, Note_on_c, 0, 69, 0
2,37415, Note_on_c, 0, 60, 59
2,37418, Control_c, 0, 64, 78
2,37434, Control_c, 0, 64, 63
2,37449, Control_c, 0, 64, 0
2,37639, Note_on_c, 0, 60, 0
2,37641, Note_on_c, 0, 58, 67
2,37919, Note_on_c, 0, 72, 82
2,37937, Note_on_c, 0, 58, 0
2,37947, Note_on_c, 0, 57, 51
2,37954, Note_on_c, 0, 70, 0
2,38140, Control_c, 0, 64, 45
2,38156, Control_c, 0, 64, 56
2,38171, Control_c, 0, 64, 60
2,38185, Control_c, 0, 64, 63
2,38201, Control_c, 0, 64, 66
2,38216, Control_c, 0, 64, 71
2,38232, Control_c, 0, 64, 81
2,38247, Control_c, 0, 64, 94
2,38262, Control_c, 0, 64, 108
2,38278, Control_c, 0, 64, 113
2,38311, Note_on_c, 0, 53, 0
2,38339, Control_c, 0, 64, 114
2,38452, Note_on_c, 0, 66, 52
2,38486, Note_on_c, 0, 51, 47
2,38503, Note_on_c, 0, 65, 0
2,38644, Note_on_c, 0, 51, 0
2,38677, Note_on_c, 0, 65, 69
2,38680, Note_on_c, 0, 66, 0
2,38690, Note_on_c, 0, 53, 62
2,38954, Control_c, 0, 64, 108
2,38969, Control_c, 0, 64, 95
2,38971, Note_on_c, 0, 63, 69
2,38974, Note_on_c, 0, 54, 64
2,38984, Control_c, 0, 64, 81
2,38988, Note_on_c, 0, 53, 0
2,39000, Control_c, 0, 64, 66
2,39008, Note_on_c, 0, 65, 0
2,39015, Control_c, 0, 64, 33
2,39030, Control_c, 0, 64, 0
2,39106, Control_c, 0, 64, 35
2,39121, Control_c, 0, 64, 51
2,39136, Control_c, 0, 64, 58
2,39153, Control_c, 0, 64, 62
2,39168, Control_c, 0, 64, 64
2,39182, Control_c, 0, 64, 67
2,39198, Control_c, 0, 64, 72
2,39213, Control_c, 0, 64, 82
2,39228, Control_c, 0, 64, 97
2,39244, Control_c, 0, 64, 127
2,39249, Note_on_c, 0, 63, 0
2,39451, Note_on_c, 0, 72, 0
2,39463, Note_on_c, 0, 70, 89
2,39497, Note_on_c, 0, 57, 0
2,39497, Note_on_c, 0, 61, 57
2,39514, Note_on_c, 0, 58, 56
2,39686, Note_on_c, 0, 58, 0
2,39719, Note_on_c, 0, 57, 86
2,40060, Note_on_c, 0, 61, 0
2,40073, Note_on_c, 0, 57, 0
2,40082, Note_on_c, 0, 75, 88
2,40093, Note_on_c, 0, 58, 65
2,40102, Control_c, 0, 64, 94
2,40114, Note_on_c, 0, 70, 0
2,40118, Control_c, 0, 64, 80
2,40133, Control_c, 0, 64, 67
2,40148, Control_c, 0, 64, 42
2,40164, Control_c, 0, 64, 0
2,40286, Control_c, 0, 64, 36
2,40300, Control_c, 0, 64, 54
2,40316, Control_c, 0, 64, 60
2,40331, Control_c, 0, 64, 62
2,40346, Control_c, 0, 64, 63
2,40362, Control_c, 0, 64, 63
2,40376, Control_c, 0, 64, 65
2,40392, Control_c, 0, 64, 68
2,40407, Control_c, 0, 64, 71
2,40422, Control_c, 0, 64, 76
2,40445, Control_c, 0, 64, 79
2,40460, Control_c, 0, 64, 80
2,40476, Control_c, 0, 64, 81
2,40491, Control_c, 0, 64, 83
2,40506, Control_c, 0, 64, 85
2,40521, Control_c, 0, 64, 87
2,40536, Control_c, 0, 64, 88
2,40561, Note_on_c, 0, 54, 0
2,40567, Control_c, 0, 64, 88
2,40582, Control_c, 0, 64, 82
2,40597, Control_c, 0, 64, 73
2,40611, Note_on_c, 0, 73, 71
2,40612, Control_c, 0, 64, 65
2,40625, Note_on_c, 0, 53, 51
2,40627, Control_c, 0, 64, 53
2,40642, Control_c, 0, 64, 43
2,40657, Control_c, 0, 64, 46
2,40673, Control_c, 0, 64, 53
2,40688, Control_c, 0, 64, 59
2,40703, Control_c, 0, 64, 61
2,40718, Control_c, 0, 64, 62
2,40733, Control_c, 0, 64, 63
2,40743, Note_on_c, 0, 58, 0
2,40748, Control_c, 0, 64, 63
2,40764, Control_c, 0, 64, 64
2,40796, Control_c, 0, 64, 64
2,40810, Control_c, 0, 64, 65
2,40824, Note_on_c, 0, 53, 0
2,40825, Control_c, 0, 64, 65
2,40844, Note_on_c, 0, 55, 77
2,40856, Control_c, 0, 64, 66
2,40886, Control_c, 0, 64, 66
2,40901, Control_c, 0, 64, 67
2,40917, Control_c, 0, 64, 67
2,40932, Control_c, 0, 64, 68
2,40946, Control_c, 0, 64, 69
2,40962, Control_c, 0, 64, 71
2,40977, Control_c, 0, 64, 74
2,40993, Control_c, 0, 64, 76
2,41008, Control_c, 0, 64, 78
2,41053, Control_c, 0, 64, 77
2,41068, Control_c, 0, 64, 74
2,41084, Control_c, 0, 64, 68
2,41099, Control_c, 0, 64, 60
2,41108, Note_on_c, 0, 56, 70
2,41111, Note_on_c, 0, 55, 0
2,41115, Control_c, 0, 64, 0
2,41125, Note_on_c, 0, 72, 68
2,41147, Note_on_c, 0, 73, 0
2,41243, Control_c, 0, 64, 46
2,41258, Control_c, 0, 64, 57
2,41274, Control_c, 0, 64, 60
2,41289, Control_c, 0, 64, 62
2,41304, Control_c, 0, 64, 64
2,41320, Control_c, 0, 64, 66
2,41335, Control_c, 0, 64, 69
2,41351, Control_c, 0, 64, 75
2,41365, Control_c, 0, 64, 81
2,41380, Control_c, 0, 64, 87
2,41396, Control_c, 0, 64, 95
2,41411, Control_c, 0, 64, 107
2,41426, Control_c, 0, 64, 127
2,41426, Note_on_c, 0, 75, 0
2,41573, Note_on_c, 0, 72, 0
2,41611, Note_on_c, 0, 73, 77
2,41625, Note_on_c, 0, 70, 60
2,41628, Note_on_c, 0, 63, 61
2,41792, Note_on_c, 0, 73, 0
2,41815, Note_on_c, 0, 70, 0
2,41850, Note_on_c, 0, 72, 89
2,42129, Note_on_c, 0, 77, 89
2,42133, Control_c, 0, 64, 85
2,42148, Control_c, 0, 64, 65
2,42148, Note_on_c, 0, 60, 73
2,42151, Note_on_c, 0, 68, 67
2,42160, Note_on_c, 0, 72, 0
2,42164, Control_c, 0, 64, 0
2,42204, Note_on_c, 0, 63, 0
2,42209, Control_c, 0, 64, 35
2,42224, Control_c, 0, 64, 57
2,42240, Control_c, 0, 64, 63
2,42255, Control_c, 0, 64, 68
2,42271, Control_c, 0, 64, 76
2,42286, Control_c, 0, 64, 96
2,42301, Control_c, 0, 64, 127
2,42385, Note_on_c, 0, 70, 84
2,42436, Note_on_c, 0, 56, 0
2,42436, Note_on_c, 0, 77, 0
2,42438, Note_on_c, 0, 68, 0
2,42667, Note_on_c, 0, 75, 89
2,42678, Note_on_c, 0, 70, 0
2,42680, Note_on_c, 0, 60, 0
2,42693, Note_on_c, 0, 72, 60
2,42696, Control_c, 0, 64, 99
2,42707, Note_on_c, 0, 55, 54
2,42711, Control_c, 0, 64, 74
2,42715, Note_on_c, 0, 65, 45
2,42734, Control_c, 0, 64, 59
2,42750, Control_c, 0, 64, 0
2,42810, Control_c, 0, 64, 52
2,42825, Control_c, 0, 64, 60
2,42840, Control_c, 0, 64, 63
2,42855, Control_c, 0, 64, 65
2,42860, Note_on_c, 0, 55, 0
2,42871, Control_c, 0, 64, 68
2,42886, Control_c, 0, 64, 72
2,42898, Note_on_c, 0, 65, 0
2,42901, Control_c, 0, 64, 79
2,42916, Control_c, 0, 64, 88
2,42931, Control_c, 0, 64, 93
2,42934, Note_on_c, 0, 57, 76
2,42935, Note_on_c, 0, 75, 0
2,42946, Control_c, 0, 64, 95
2,42962, Control_c, 0, 64, 96
2,42976, Control_c, 0, 64, 97
2,42992, Control_c, 0, 64, 98
2,43007, Control_c, 0, 64, 98
2,43220, Control_c, 0, 64, 97
2,43236, Control_c, 0, 64, 93
2,43252, Control_c, 0, 64, 87
2,43260, Note_on_c, 0, 58, 56
2,43260, Note_on_c, 0, 73, 88
2,43266, Control_c, 0, 64, 80
2,43267, Note_on_c, 0, 65, 66
2,43282, Control_c, 0, 64, 72
2,43291, Note_on_c, 0, 72, 0
2,43297, Control_c, 0, 64, 65
2,43313, Control_c, 0, 64, 49
2,43323, Note_on_c, 0, 57, 0
2,43328, Control_c, 0, 64, 0
2,43803, Note_on_c, 0, 70, 60
2,43821, Note_on_c, 0, 60, 49
2,44025, Note_on_c, 0, 69, 69
2,44025, Note_on_c, 0, 70, 0
2,44058, Note_on_c, 0, 60, 0
2,44284, Note_on_c, 0, 69, 0
2,44316, Note_on_c, 0, 70, 61
2,44355, Note_on_c, 0, 61, 53
2,44360, Note_on_c, 0, 65, 0
2,44451, Control_c, 0, 64, 17
2,44466, Control_c, 0, 64, 48
2,44482, Control_c, 0, 64, 58
2,44497, Control_c, 0, 64, 64
2,44513, Control_c, 0, 64, 70
2,44527, Control_c, 0, 64, 84
2,44542, Control_c, 0, 64, 127
2,44551, Note_on_c, 0, 73, 0
2,44710, Note_on_c, 0, 58, 0
2,44858, Note_on_c, 0, 75, 70
2,44861, Control_c, 0, 64, 90
2,44877, Control_c, 0, 64, 69
2,44893, Control_c, 0, 64, 51
2,44895, Note_on_c, 0, 68, 40
2,44902, Note_on_c, 0, 70, 0
2,44908, Control_c, 0, 64, 0
2,44955, Control_c, 0, 64, 35
2,44969, Control_c, 0, 64, 53
2,44984, Control_c, 0, 64, 57
2,45000, Control_c, 0, 64, 60
2,45015, Control_c, 0, 64, 62
2,45031, Control_c, 0, 64, 64
2,45052, Control_c, 0, 64, 66
2,45067, Control_c, 0, 64, 68
2,45083, Control_c, 0, 64, 71
2,45098, Control_c, 0, 64, 74
2,45107, Note_on_c, 0, 75, 0
2,45114, Control_c, 0, 64, 76
2,45129, Control_c, 0, 64, 76
2,45133, Note_on_c, 0, 76, 44
2,45140, Note_on_c, 0, 77, 43
2,45144, Control_c, 0, 64, 77
2,45148, Note_on_c, 0, 68, 0
2,45174, Control_c, 0, 64, 77
2,45198, Note_on_c, 0, 77, 0
2,45265, Control_c, 0, 64, 78
2,45281, Control_c, 0, 64, 79
2,45295, Control_c, 0, 64, 80
2,45311, Control_c, 0, 64, 80
2,45326, Control_c, 0, 64, 81
2,45371, Control_c, 0, 64, 80
2,45386, Control_c, 0, 64, 78
2,45402, Control_c, 0, 64, 73
2,45416, Control_c, 0, 64, 67
2,45432, Control_c, 0, 64, 58
2,45434, Note_on_c, 0, 70, 50
2,45446, Note_on_c, 0, 67, 42
2,45447, Control_c, 0, 64, 0
2,45554, Control_c, 0, 64, 43
2,45569, Control_c, 0, 64, 58
2,45571, Note_on_c, 0, 76, 0
2,45584, Control_c, 0, 64, 62
2,45600, Control_c, 0, 64, 64
2,45615, Control_c, 0, 64, 66
2,45630, Control_c, 0, 64, 70
2,45645, Control_c, 0, 64, 78
2,45660, Control_c, 0, 64, 96
2,45676, Control_c, 0, 64, 127
2,45737, Note_on_c, 0, 70, 0
2,45780, Note_on_c, 0, 61, 0
2,46060, Note_on_c, 0, 61, 41
2,46064, Note_on_c, 0, 55, 37
2,46094, Control_c, 0, 64, 94
2,46110, Control_c, 0, 64, 75
2,46125, Control_c, 0, 64, 62
2,46132, Note_on_c, 0, 75, 67
2,46139, Control_c, 0, 64, 0
2,46165, Note_on_c, 0, 70, 41
2,46227, Note_on_c, 0, 67, 0
2,46231, Control_c, 0, 64, 39
2,46246, Control_c, 0, 64, 51
2,46261, Control_c, 0, 64, 57
2,46276, Control_c, 0, 64, 60
2,46291, Control_c, 0, 64, 62
2,46306, Control_c, 0, 64, 64
2,46322, Control_c, 0, 64, 66
2,46337, Control_c, 0, 64, 69
2,46352, Control_c, 0, 64, 74
2,46361, Note_on_c, 0, 61, 0
2,46367, Control_c, 0, 64, 78
2,46382, Control_c, 0, 64, 83
2,46398, Control_c, 0, 64, 87
2,46413, Control_c, 0, 64, 89
2,46413, Note_on_c, 0, 55, 0
2,46428, Control_c, 0, 64, 91
2,46444, Control_c, 0, 64, 93
2,46459, Control_c, 0, 64, 93
2,46474, Control_c, 0, 64, 94
2,46489, Control_c, 0, 64, 94
2,46504, Control_c, 0, 64, 95
2,46520, Control_c, 0, 64, 97
2,46535, Control_c, 0, 64, 97
2,46619, Control_c, 0, 64, 92
2,46633, Note_on_c, 0, 56, 44
2,46635, Control_c, 0, 64, 83
2,46635, Note_on_c, 0, 65, 56
2,46642, Note_on_c, 0, 59, 48
2,46649, Control_c, 0, 64, 78
2,46664, Control_c, 0, 64, 78
2,46671, Note_on_c, 0, 70, 0
2,46711, Control_c, 0, 64, 79
2,46726, Control_c, 0, 64, 83
2,46740, Control_c, 0, 64, 87
2,46756, Control_c, 0, 64, 93
2,46771, Control_c, 0, 64, 101
2,46783, Note_on_c, 0, 56, 0
2,46786, Control_c, 0, 64, 113
2,46801, Control_c, 0, 64, 127
2,46812, Note_on_c, 0, 59, 0
2,46825, Note_on_c, 0, 65, 0
2,46859, Note_on_c, 0, 75, 0
2,47105, Control_c, 0, 64, 108
2,47105, Note_on_c, 0, 73, 87
2,47120, Control_c, 0, 64, 80
2,47134, Note_on_c, 0, 67, 58
2,47135, Control_c, 0, 64, 67
2,47137, Note_on_c, 0, 58, 54
2,47140, Note_on_c, 0, 61, 57
2,47151, Control_c, 0, 64, 63
2,47181, Control_c, 0, 64, 65
2,47196, Control_c, 0, 64, 67
2,47211, Control_c, 0, 64, 71
2,47226, Control_c, 0, 64, 75
2,47239, Note_on_c, 0, 61, 0
2,47242, Control_c, 0, 64, 80
2,47257, Control_c, 0, 64, 85
2,47273, Control_c, 0, 64, 91
2,47273, Note_on_c, 0, 58, 0
2,47287, Control_c, 0, 64, 99
2,47302, Control_c, 0, 64, 114
2,47318, Control_c, 0, 64, 127
2,47327, Note_on_c, 0, 67, 0
2,47360, Note_on_c, 0, 68, 80
2,47547, Note_on_c, 0, 73, 0
2,47623, Note_on_c, 0, 70, 86
2,47628, Note_on_c, 0, 55, 73
2,47630, Control_c, 0, 64, 93
2,47645, Control_c, 0, 64, 67
2,47651, Note_on_c, 0, 51, 68
2,47660, Control_c, 0, 64, 0
2,47685, Note_on_c, 0, 68, 0
2,47722, Control_c, 0, 64, 53
2,47737, Control_c, 0, 64, 62
2,47752, Control_c, 0, 64, 64
2,47767, Control_c, 0, 64, 68
2,47779, Note_on_c, 0, 55, 0
2,47782, Control_c, 0, 64, 78
2,47798, Control_c, 0, 64, 103
2,47813, Control_c, 0, 64, 127
2,48000, Note_on_c, 0, 70, 0
2,48058, Note_on_c, 0, 51, 0
2,48216, Note_on_c, 0, 71, 87
2,48231, Note_on_c, 0, 56, 78
2,48238, Note_on_c, 0, 68, 69
2,48241, Note_on_c, 0, 64, 69
2,48261, Control_c, 0, 64, 86
2,48277, Control_c, 0, 64, 67
2,48292, Control_c, 0, 64, 36
2,48307, Control_c, 0, 64, 0
2,48778, Note_on_c, 0, 71, 0
2,48779, Control_c, 0, 64, 40
2,48795, Control_c, 0, 64, 59
2,48809, Control_c, 0, 64, 64
2,48809, Note_on_c, 0, 70, 84
2,48824, Control_c, 0, 64, 69
2,48824, Note_on_c, 0, 64, 0
2,48840, Control_c, 0, 64, 80
2,48855, Control_c, 0, 64, 127
2,48897, Note_on_c, 0, 56, 0
2,49285, Note_on_c, 0, 63, 61
2,49296, Note_on_c, 0, 55, 54
2,49355, Note_on_c, 0, 68, 0
2,49503, Note_on_c, 0, 63, 0
2,49518, Note_on_c, 0, 62, 85
2,49721, Note_on_c, 0, 55, 0
2,49761, Note_on_c, 0, 62, 0
2,49843, Note_on_c, 0, 63, 90
2,49858, Note_on_c, 0, 59, 73
2,49889, Control_c, 0, 64, 86
2,49904, Control_c, 0, 64, 68
2,49920, Control_c, 0, 64, 52
2,49935, Control_c, 0, 64, 0
2,50364, Note_on_c, 0, 68, 86
2,50380, Note_on_c, 0, 70, 0
2,50957, Note_on_c, 0, 80, 85
2,51052, Control_c, 0, 64, 39
2,51067, Control_c, 0, 64, 55
2,51082, Control_c, 0, 64, 61
2,51097, Control_c, 0, 64, 64
2,51113, Control_c, 0, 64, 68
2,51115, Note_on_c, 0, 59, 0
2,51127, Control_c, 0, 64, 79
2,51142, Control_c, 0, 64, 114
2,51158, Control_c, 0, 64, 127
2,51460, Note_on_c, 0, 71, 83
2,51472, Note_on_c, 0, 58, 53
2,51514, Note_on_c, 0, 68, 0
2,51664, Note_on_c, 0, 63, 0
2,51692, Note_on_c, 0, 56, 81
2,51738, Note_on_c, 0, 58, 0
2,52004, Note_on_c, 0, 63, 86
2,52011, Control_c, 0, 64, 76
2,52026, Control_c, 0, 64, 56
2,52028, Note_on_c, 0, 70, 60
2,52042, Control_c, 0, 64, 0
2,52064, Note_on_c, 0, 71, 0
2,52132, Control_c, 0, 64, 34
2,52147, Control_c, 0, 64, 52
2,52163, Control_c, 0, 64, 60
2,52177, Control_c, 0, 64, 64
2,52193, Control_c, 0, 64, 71
2,52208, Control_c, 0, 64, 84
2,52223, Control_c, 0, 64, 127
2,52282, Note_on_c, 0, 63, 0
2,52579, Note_on_c, 0, 78, 86
2,52595, Note_on_c, 0, 80, 0
2,52604, Control_c, 0, 64, 103
2,52606, Note_on_c, 0, 61, 58
2,52608, Note_on_c, 0, 63, 56
2,52619, Control_c, 0, 64, 73
2,52635, Control_c, 0, 64, 49
2,52650, Control_c, 0, 64, 0
2,52657, Note_on_c, 0, 56, 0
2,52711, Control_c, 0, 64, 34
2,52733, Control_c, 0, 64, 50
2,52748, Control_c, 0, 64, 55
2,52764, Control_c, 0, 64, 59
2,52778, Control_c, 0, 64, 63
2,52794, Control_c, 0, 64, 66
2,52809, Control_c, 0, 64, 71
2,52824, Control_c, 0, 64, 79
2,52840, Control_c, 0, 64, 91
2,52840, Note_on_c, 0, 70, 0
2,52855, Control_c, 0, 64, 103
2,52871, Control_c, 0, 64, 119
2,52885, Control_c, 0, 64, 127
2,53134, Note_on_c, 0, 68, 60
2,53142, Control_c, 0, 64, 104
2,53142, Note_on_c, 0, 59, 56
2,53150, Note_on_c, 0, 61, 0
2,53158, Control_c, 0, 64, 81
2,53173, Control_c, 0, 64, 64
2,53188, Control_c, 0, 64, 0
2,53264, Control_c, 0, 64, 43
2,53280, Control_c, 0, 64, 56
2,53295, Control_c, 0, 64, 61
2,53311, Control_c, 0, 64, 64
2,53326, Control_c, 0, 64, 67
2,53340, Control_c, 0, 64, 74
2,53356, Control_c, 0, 64, 86
2,53371, Control_c, 0, 64, 127
2,53424, Note_on_c, 0, 78, 0
2,53530, Note_on_c, 0, 63, 0
2,53617, Note_on_c, 0, 77, 72
2,53833, Note_on_c, 0, 75, 90
2,53851, Note_on_c, 0, 77, 0
2,53977, Note_on_c, 0, 59, 0
2,54128, Note_on_c, 0, 74, 83
2,54158, Note_on_c, 0, 58, 61
2,54200, Control_c, 0, 64, 112
2,54215, Control_c, 0, 64, 84
2,54229, Control_c, 0, 64, 71
2,54245, Control_c, 0, 64, 61
2,54267, Control_c, 0, 64, 0
2,54466, Note_on_c, 0, 75, 0
2,54672, Note_on_c, 0, 77, 80
2,54701, Note_on_c, 0, 62, 45
2,54723, Note_on_c, 0, 74, 0
2,54891, Control_c, 0, 64, 53
2,54906, Control_c, 0, 64, 62
2,54922, Control_c, 0, 64, 66
2,54937, Control_c, 0, 64, 70
2,54953, Control_c, 0, 64, 78
2,54967, Control_c, 0, 64, 95
2,54982, Control_c, 0, 64, 127
2,55174, Note_on_c, 0, 78, 72
2,55187, Control_c, 0, 64, 99
2,55194, Note_on_c, 0, 63, 52
2,55203, Control_c, 0, 64, 70
2,55210, Note_on_c, 0, 77, 0
2,55215, Note_on_c, 0, 62, 0
2,55218, Control_c, 0, 64, 41
2,55234, Control_c, 0, 64, 0
2,55340, Control_c, 0, 64, 43
2,55355, Control_c, 0, 64, 58
2,55370, Control_c, 0, 64, 63
2,55385, Control_c, 0, 64, 66
2,55401, Control_c, 0, 64, 71
2,55416, Control_c, 0, 64, 77
2,55431, Control_c, 0, 64, 85
2,55446, Control_c, 0, 64, 92
2,55461, Control_c, 0, 64, 98
2,55477, Control_c, 0, 64, 101
2,55491, Control_c, 0, 64, 106
2,55506, Control_c, 0, 64, 124
2,55522, Control_c, 0, 64, 127
2,55676, Note_on_c, 0, 74, 65
2,55680, Note_on_c, 0, 63, 0
2,55690, Control_c, 0, 64, 112
2,55702, Note_on_c, 0, 65, 52
2,55705, Control_c, 0, 64, 77
2,55709, Note_on_c, 0, 56, 49
2,55720, Control_c, 0, 64, 63
2,55735, Control_c, 0, 64, 36
2,55748, Note_on_c, 0, 68, 0
2,55751, Control_c, 0, 64, 0
2,55758, Note_on_c, 0, 58, 0
2,55766, Control_c, 0, 64, 22
2,55771, Note_on_c, 0, 78, 0
2,55788, Control_c, 0, 64, 47
2,55804, Control_c, 0, 64, 56
2,55819, Control_c, 0, 64, 61
2,55835, Control_c, 0, 64, 64
2,55850, Control_c, 0, 64, 69
2,55865, Control_c, 0, 64, 78
2,55880, Control_c, 0, 64, 97
2,55895, Control_c, 0, 64, 127
2,55952, Note_on_c, 0, 56, 0
2,55954, Note_on_c, 0, 65, 0
2,56251, Note_on_c, 0, 74, 0
2,56287, Note_on_c, 0, 75, 67
2,56316, Note_on_c, 0, 54, 52
2,56316, Note_on_c, 0, 58, 50
2,56382, Control_c, 0, 64, 101
2,56398, Control_c, 0, 64, 89
2,56413, Control_c, 0, 64, 80
2,56427, Control_c, 0, 64, 71
2,56443, Control_c, 0, 64, 64
2,56458, Control_c, 0, 64, 52
2,56474, Control_c, 0, 64, 13
2,56489, Control_c, 0, 64, 0
2,56612, Note_on_c, 0, 73, 68
2,56726, Note_on_c, 0, 75, 0
2,56845, Note_on_c, 0, 73, 0
2,56854, Note_on_c, 0, 58, 0
2,56858, Note_on_c, 0, 63, 66
2,56860, Note_on_c, 0, 71, 52
2,57104, Control_c, 0, 64, 40
2,57111, Note_on_c, 0, 70, 60
2,57119, Control_c, 0, 64, 49
2,57134, Control_c, 0, 64, 55
2,57149, Control_c, 0, 64, 59
2,57163, Note_on_c, 0, 71, 0
2,57165, Control_c, 0, 64, 61
2,57181, Control_c, 0, 64, 63
2,57196, Control_c, 0, 64, 64
2,57211, Control_c, 0, 64, 64
2,57226, Control_c, 0, 64, 66
2,57242, Control_c, 0, 64, 67
2,57257, Control_c, 0, 64, 68
2,57370, Control_c, 0, 64, 67
2,57385, Control_c, 0, 64, 64
2,57401, Control_c, 0, 64, 59
2,57416, Control_c, 0, 64, 43
2,57418, Note_on_c, 0, 53, 51
2,57419, Note_on_c, 0, 68, 59
2,57426, Note_on_c, 0, 54, 0
2,57432, Control_c, 0, 64, 0
2,57452, Note_on_c, 0, 70, 0
2,57613, Control_c, 0, 64, 46
2,57628, Control_c, 0, 64, 60
2,57644, Control_c, 0, 64, 64
2,57659, Control_c, 0, 64, 67
2,57675, Control_c, 0, 64, 74
2,57689, Control_c, 0, 64, 85
2,57704, Control_c, 0, 64, 114
2,57720, Control_c, 0, 64, 127
2,57902, Note_on_c, 0, 63, 0
2,57929, Note_on_c, 0, 62, 72
2,57941, Note_on_c, 0, 53, 0
2,57971, Note_on_c, 0, 71, 42
2,58038, Note_on_c, 0, 71, 0
2,58064, Note_on_c, 0, 68, 0
2,58193, Note_on_c, 0, 70, 76
2,58548, Note_on_c, 0, 66, 69
2,58563, Note_on_c, 0, 71, 73
2,58580, Control_c, 0, 64, 104
2,58583, Note_on_c, 0, 51, 51
2,58583, Note_on_c, 0, 62, 0
2,58591, Note_on_c, 0, 70, 0
2,58596, Control_c, 0, 64, 80
2,58610, Control_c, 0, 64, 65
2,58625, Control_c, 0, 64, 21
2,58641, Control_c, 0, 64, 0
2,59100, Note_on_c, 0, 51, 0
2,59104, Note_on_c, 0, 71, 0
2,59107, Note_on_c, 0, 49, 45
2,59112, Note_on_c, 0, 70, 66
2,59602, Note_on_c, 0, 70, 0
2,59638, Note_on_c, 0, 68, 61
2,59691, Note_on_c, 0, 47, 38
2,59743, Note_on_c, 0, 49, 0
2,60173, Note_on_c, 0, 59, 57
2,60180, Note_on_c, 0, 65, 47
2,60187, Note_on_c, 0, 66, 0
2,60252, Control_c, 0, 64, 38
2,60266, Control_c, 0, 64, 54
2,60282, Control_c, 0, 64, 62
2,60297, Control_c, 0, 64, 66
2,60313, Control_c, 0, 64, 74
2,60328, Control_c, 0, 64, 90
2,60342, Control_c, 0, 64, 127
2,60437, Note_on_c, 0, 59, 0
2,60452, Note_on_c, 0, 63, 57
2,60460, Note_on_c, 0, 65, 0
2,60805, Note_on_c, 0, 58, 51
2,60811, Control_c, 0, 64, 97
2,60811, Note_on_c, 0, 62, 52
2,60812, Note_on_c, 0, 63, 0
2,60827, Control_c, 0, 64, 74
2,60842, Control_c, 0, 64, 60
2,60858, Control_c, 0, 64, 0
2,61009, Control_c, 0, 64, 42
2,61025, Control_c, 0, 64, 54
2,61040, Control_c, 0, 64, 60
2,61055, Control_c, 0, 64, 64
2,61070, Control_c, 0, 64, 69
2,61085, Control_c, 0, 64, 79
2,61101, Control_c, 0, 64, 97
2,61115, Control_c, 0, 64, 127
2,61192, Note_on_c, 0, 47, 0
2,61465, Note_on_c, 0, 63, 48
2,61474, Control_c, 0, 64, 100
2,61481, Note_on_c, 0, 66, 51
2,61489, Control_c, 0, 64, 81
2,61491, Note_on_c, 0, 46, 40
2,61504, Control_c, 0, 64, 68
2,61519, Control_c, 0, 64, 52
2,61534, Control_c, 0, 64, 0
2,61542, Note_on_c, 0, 68, 0
2,61545, Note_on_c, 0, 62, 0
2,61595, Control_c, 0, 64, 32
2,61610, Control_c, 0, 64, 43
2,61626, Control_c, 0, 64, 50
2,61640, Control_c, 0, 64, 56
2,61655, Control_c, 0, 64, 60
2,61671, Control_c, 0, 64, 63
2,61686, Control_c, 0, 64, 65
2,61701, Control_c, 0, 64, 69
2,61716, Control_c, 0, 64, 75
2,61731, Control_c, 0, 64, 85
2,61747, Control_c, 0, 64, 92
2,61762, Control_c, 0, 64, 96
2,61778, Control_c, 0, 64, 98
2,61793, Control_c, 0, 64, 101
2,61808, Control_c, 0, 64, 105
2,61824, Control_c, 0, 64, 111
2,61838, Control_c, 0, 64, 114
2,61853, Note_on_c, 0, 46, 0
2,62046, Note_on_c, 0, 65, 56
2,62058, Note_on_c, 0, 66, 0
2,62059, Control_c, 0, 64, 115
2,62074, Control_c, 0, 64, 117
2,62089, Control_c, 0, 64, 124
2,62094, Note_on_c, 0, 46, 52
2,62105, Control_c, 0, 64, 127
2,62177, Note_on_c, 0, 58, 0
2,62210, Note_on_c, 0, 46, 0
2,62268, Note_on_c, 0, 63, 0
2,62560, Note_on_c, 0, 64, 66
2,62585, Note_on_c, 0, 61, 51
2,62588, Note_on_c, 0, 46, 47
2,62600, Note_on_c, 0, 65, 0
2,62606, Control_c, 0, 64, 95
2,62622, Control_c, 0, 64, 78
2,62637, Control_c, 0, 64, 67
2,62652, Control_c, 0, 64, 53
2,62668, Control_c, 0, 64, 0
2,63089, Note_on_c, 0, 64, 0
2,63095, Note_on_c, 0, 46, 0
2,63115, Note_on_c, 0, 63, 52
2,63120, Note_on_c, 0, 43, 45
2,63351, Note_on_c, 0, 61, 0
2,63356, Note_on_c, 0, 59, 59
2,63600, Note_on_c, 0, 59, 0
2,63603, Note_on_c, 0, 58, 60
2,63609, Note_on_c, 0, 44, 65
2,63643, Note_on_c, 0, 43, 0
2,63860, Note_on_c, 0, 56, 63
2,63903, Note_on_c, 0, 58, 0
2,64153, Note_on_c, 0, 56, 0
2,64169, Note_on_c, 0, 46, 68
2,64185, Note_on_c, 0, 55, 42
2,64217, Note_on_c, 0, 44, 0
2,64362, Control_c, 0, 64, 24
2,64377, Control_c, 0, 64, 55
2,64392, Control_c, 0, 64, 62
2,64407, Control_c, 0, 64, 66
2,64423, Control_c, 0, 64, 72
2,64436, Note_on_c, 0, 55, 0
2,64438, Control_c, 0, 64, 88
2,64445, Note_on_c, 0, 56, 60
2,64452, Control_c, 0, 64, 127
2,64453, Note_on_c, 0, 63, 0
2,64479, Note_on_c, 0, 56, 0
2,64673, Note_on_c, 0, 61, 72
2,64710, Note_on_c, 0, 58, 44
2,64713, Control_c, 0, 64, 111
2,64727, Control_c, 0, 64, 83
2,64743, Control_c, 0, 64, 70
2,64758, Control_c, 0, 64, 63
2,64773, Control_c, 0, 64, 57
2,64789, Control_c, 0, 64, 59
2,64803, Control_c, 0, 64, 63
2,64819, Control_c, 0, 64, 65
2,64834, Control_c, 0, 64, 66
2,64849, Control_c, 0, 64, 68
2,64849, Note_on_c, 0, 58, 0
2,64865, Control_c, 0, 64, 69
2,64879, Control_c, 0, 64, 72
2,64894, Control_c, 0, 64, 75
2,64908, Control_c, 0, 64, 78
2,64909, Note_on_c, 0, 63, 78
2,64913, Note_on_c, 0, 61, 0
2,64918, Note_on_c, 0, 59, 61
2,64923, Control_c, 0, 64, 81
2,64937, Control_c, 0, 64, 82
2,64953, Control_c, 0, 64, 83
2,64968, Control_c, 0, 64, 84
2,64984, Control_c, 0, 64, 85
2,64999, Control_c, 0, 64, 86
2,65021, Control_c, 0, 64, 86
2,65052, Control_c, 0, 64, 87
2,65083, Control_c, 0, 64, 88
2,65130, Note_on_c, 0, 63, 0
2,65138, Note_on_c, 0, 59, 0
2,65172, Note_on_c, 0, 64, 87
2,65173, Control_c, 0, 64, 87
2,65189, Control_c, 0, 64, 84
2,65194, Note_on_c, 0, 61, 58
2,65204, Control_c, 0, 64, 80
2,65218, Control_c, 0, 64, 75
2,65234, Control_c, 0, 64, 71
2,65249, Control_c, 0, 64, 67
2,65265, Control_c, 0, 64, 63
2,65280, Control_c, 0, 64, 52
2,65294, Control_c, 0, 64, 25
2,65310, Control_c, 0, 64, 0
2,65405, Note_on_c, 0, 61, 0
2,65421, Note_on_c, 0, 63, 64
2,65643, Note_on_c, 0, 44, 76
2,65646, Note_on_c, 0, 46, 0
2,65658, Note_on_c, 0, 61, 62
2,65896, Note_on_c, 0, 59, 73
2,65901, Note_on_c, 0, 61, 0
2,65986, Note_on_c, 0, 63, 0
2,66163, Note_on_c, 0, 49, 73
2,66172, Note_on_c, 0, 59, 0
2,66173, Note_on_c, 0, 58, 53
2,66208, Note_on_c, 0, 44, 0
2,66443, Note_on_c, 0, 64, 0
2,66445, Note_on_c, 0, 56, 53
2,66489, Control_c, 0, 64, 49
2,66505, Control_c, 0, 64, 57
2,66520, Control_c, 0, 64, 61
2,66535, Control_c, 0, 64, 64
2,66558, Control_c, 0, 64, 67
2,66572, Control_c, 0, 64, 72
2,66588, Control_c, 0, 64, 81
2,66603, Control_c, 0, 64, 95
2,66618, Control_c, 0, 64, 105
2,66634, Control_c, 0, 64, 110
2,66661, Note_on_c, 0, 56, 0
2,66666, Note_on_c, 0, 63, 69
2,66694, Note_on_c, 0, 54, 56
2,66874, Note_on_c, 0, 54, 0
2,66877, Control_c, 0, 64, 109
2,66892, Control_c, 0, 64, 106
2,66907, Control_c, 0, 64, 100
2,66907, Note_on_c, 0, 65, 82
2,66922, Control_c, 0, 64, 92
2,66926, Note_on_c, 0, 53, 56
2,66931, Note_on_c, 0, 63, 0
2,66937, Control_c, 0, 64, 84
2,66953, Control_c, 0, 64, 77
2,66968, Control_c, 0, 64, 70
2,66982, Control_c, 0, 64, 63
2,66998, Control_c, 0, 64, 50
2,67014, Control_c, 0, 64, 0
2,67233, Note_on_c, 0, 66, 81
2,67242, Note_on_c, 0, 53, 0
2,67245, Note_on_c, 0, 65, 0
2,67261, Note_on_c, 0, 51, 54
2,67477, Control_c, 0, 64, 44
2,67492, Control_c, 0, 64, 59
2,67508, Control_c, 0, 64, 66
2,67523, Control_c, 0, 64, 77
2,67538, Control_c, 0, 64, 127
2,67704, Note_on_c, 0, 49, 0
2,67706, Note_on_c, 0, 51, 0
2,67755, Note_on_c, 0, 47, 57
2,67951, Note_on_c, 0, 47, 0
2,67985, Note_on_c, 0, 46, 82
2,68055, Control_c, 0, 64, 94
2,68071, Control_c, 0, 64, 78
2,68094, Control_c, 0, 64, 69
2,68109, Control_c, 0, 64, 62
2,68124, Control_c, 0, 64, 46
2,68139, Control_c, 0, 64, 0
2,68312, Note_on_c, 0, 51, 76
2,68388, Note_on_c, 0, 46, 0
2,68547, Control_c, 0, 64, 31
2,68563, Control_c, 0, 64, 52
2,68578, Control_c, 0, 64, 58
2,68582, Note_on_c, 0, 58, 0
2,68593, Control_c, 0, 64, 62
2,68608, Control_c, 0, 64, 65
2,68623, Control_c, 0, 64, 68
2,68640, Control_c, 0, 64, 74
2,68655, Control_c, 0, 64, 87
2,68671, Control_c, 0, 64, 119
2,68671, Control_c, 0, 67, 31
2,68686, Control_c, 0, 64, 127
2,68686, Control_c, 0, 67, 69
2,68700, Control_c, 0, 67, 104
2,68716, Control_c, 0, 67, 127
2,68777, Note_on_c, 0, 66, 0
2,68850, Note_on_c, 0, 65, 71
2,68863, Note_on_c, 0, 49, 66
2,68876, Control_c, 0, 64, 78
2,68891, Control_c, 0, 64, 60
2,68891, Note_on_c, 0, 58, 44
2,68903, Note_on_c, 0, 51, 0
2,68905, Control_c, 0, 64, 0
2,68966, Control_c, 0, 64, 48
2,68981, Control_c, 0, 64, 58
2,68997, Control_c, 0, 64, 60
2,69012, Control_c, 0, 64, 62
2,69026, Control_c, 0, 64, 64
2,69042, Control_c, 0, 64, 67
2,69057, Control_c, 0, 64, 73
2,69073, Control_c, 0, 64, 83
2,69086, Note_on_c, 0, 49, 0
2,69087, Control_c, 0, 64, 92
2,69102, Control_c, 0, 64, 98
2,69103, Note_on_c, 0, 67, 71
2,69118, Control_c, 0, 64, 100
2,69120, Note_on_c, 0, 65, 0
2,69133, Control_c, 0, 64, 102
2,69148, Control_c, 0, 64, 104
2,69163, Control_c, 0, 64, 106
2,69178, Control_c, 0, 64, 108
2,69207, Note_on_c, 0, 58, 0
2,69422, Note_on_c, 0, 67, 0
2,69438, Control_c, 0, 64, 106
2,69442, Note_on_c, 0, 68, 58
2,69453, Control_c, 0, 64, 91
2,69468, Control_c, 0, 64, 75
2,69468, Note_on_c, 0, 63, 52
2,69476, Note_on_c, 0, 47, 44
2,69484, Control_c, 0, 64, 62
2,69499, Control_c, 0, 64, 0
2,69591, Control_c, 0, 64, 42
2,69606, Control_c, 0, 64, 52
2,69628, Control_c, 0, 64, 58
2,69644, Control_c, 0, 64, 61
2,69659, Control_c, 0, 64, 64
2,69674, Control_c, 0, 64, 66
2,69689, Control_c, 0, 64, 70
2,69704, Control_c, 0, 64, 76
2,69716, Note_on_c, 0, 68, 0
2,69720, Control_c, 0, 64, 84
2,69735, Control_c, 0, 64, 93
2,69749, Control_c, 0, 64, 105
2,69765, Control_c, 0, 64, 127
2,69780, Control_c, 0, 67, 119
2,69796, Control_c, 0, 67, 101
2,69811, Control_c, 0, 67, 77
2,69826, Control_c, 0, 67, 46
2,69833, Note_on_c, 0, 64, 61
2,69842, Control_c, 0, 67, 0
2,69846, Note_on_c, 0, 63, 0
2,70065, Note_on_c, 0, 64, 0
2,70076, Note_on_c, 0, 68, 82
2,70104, Note_on_c, 0, 63, 47
2,70288, Note_on_c, 0, 63, 0
2,70291, Note_on_c, 0, 68, 0
2,70297, Note_on_c, 0, 61, 66
2,70324, Note_on_c, 0, 46, 50
2,70342, Note_on_c, 0, 61, 0
2,70427, Note_on_c, 0, 47, 0
2,70536, Note_on_c, 0, 68, 89
2,70548, Control_c, 0, 64, 91
2,70563, Control_c, 0, 64, 70
2,70569, Note_on_c, 0, 59, 45
2,70570, Note_on_c, 0, 44, 54
2,70578, Control_c, 0, 64, 55
2,70594, Control_c, 0, 64, 25
2,70597, Note_on_c, 0, 46, 0
2,70609, Control_c, 0, 64, 39
2,70624, Control_c, 0, 64, 52
2,70640, Control_c, 0, 64, 60
2,70654, Control_c, 0, 64, 63
2,70669, Control_c, 0, 64, 66
2,70685, Control_c, 0, 64, 70
2,70700, Control_c, 0, 64, 77
2,70716, Control_c, 0, 64, 93
2,70718, Note_on_c, 0, 59, 0
2,70730, Control_c, 0, 64, 127
2,70760, Note_on_c, 0, 68, 0
2,70780, Note_on_c, 0, 61, 62
2,70798, Note_on_c, 0, 44, 0
2,70805, Note_on_c, 0, 46, 47
2,70992, Note_on_c, 0, 46, 0
2,70998, Note_on_c, 0, 68, 87
2,71036, Note_on_c, 0, 61, 0
2,71047, Note_on_c, 0, 47, 52
2,71048, Note_on_c, 0, 63, 44
2,71164, Note_on_c, 0, 47, 0
2,71198, Note_on_c, 0, 63, 0
2,71225, Note_on_c, 0, 68, 0
2,71260, Note_on_c, 0, 44, 53
2,71266, Note_on_c, 0, 59, 43
2,71312, Note_on_c, 0, 59, 0
2,71453, Control_c, 0, 64, 116
2,71467, Control_c, 0, 64, 77
2,71480, Note_on_c, 0, 65, 78
2,71483, Control_c, 0, 64, 60
2,71498, Control_c, 0, 64, 0
2,71503, Note_on_c, 0, 63, 56
2,71506, Note_on_c, 0, 44, 0
2,71508, Note_on_c, 0, 49, 60
2,71544, Control_c, 0, 64, 49
2,71559, Control_c, 0, 64, 61
2,71574, Control_c, 0, 64, 64
2,71589, Control_c, 0, 64, 66
2,71605, Control_c, 0, 64, 69
2,71619, Control_c, 0, 64, 73
2,71635, Control_c, 0, 64, 78
2,71650, Control_c, 0, 64, 83
2,71665, Control_c, 0, 64, 89
2,71681, Control_c, 0, 64, 92
2,71694, Note_on_c, 0, 63, 0
2,71695, Control_c, 0, 64, 94
2,71711, Control_c, 0, 64, 96
2,71726, Control_c, 0, 64, 98
2,71734, Note_on_c, 0, 61, 66
2,71741, Control_c, 0, 64, 102
2,71757, Control_c, 0, 64, 106
2,71771, Control_c, 0, 64, 112
2,71786, Control_c, 0, 64, 119
2,71802, Control_c, 0, 64, 127
2,71947, Control_c, 0, 64, 92
2,71953, Note_on_c, 0, 66, 87
2,71963, Control_c, 0, 64, 69
2,71978, Control_c, 0, 64, 48
2,71979, Note_on_c, 0, 61, 0
2,71980, Note_on_c, 0, 59, 66
2,71986, Note_on_c, 0, 51, 56
2,71987, Note_on_c, 0, 65, 0
2,71994, Control_c, 0, 64, 0
2,72023, Control_c, 0, 64, 39
2,72039, Control_c, 0, 64, 57
2,72053, Control_c, 0, 64, 62
2,72068, Control_c, 0, 64, 64
2,72084, Control_c, 0, 64, 65
2,72099, Control_c, 0, 64, 68
2,72115, Control_c, 0, 64, 73
2,72129, Control_c, 0, 64, 81
2,72132, Note_on_c, 0, 59, 0
2,72144, Control_c, 0, 64, 91
2,72160, Control_c, 0, 64, 106
2,72175, Control_c, 0, 64, 127
2,72195, Note_on_c, 0, 66, 0
2,72206, Note_on_c, 0, 58, 66
2,72516, Note_on_c, 0, 51, 0
2,72517, Note_on_c, 0, 49, 0
2,72519, Note_on_c, 0, 68, 85
2,72527, Control_c, 0, 64, 96
2,72536, Note_on_c, 0, 56, 69
2,72541, Control_c, 0, 64, 72
2,72556, Note_on_c, 0, 53, 58
2,72557, Control_c, 0, 64, 52
2,72572, Control_c, 0, 64, 0
2,72584, Note_on_c, 0, 58, 0
2,72701, Control_c, 0, 64, 33
2,72717, Control_c, 0, 64, 51
2,72732, Control_c, 0, 64, 58
2,72748, Control_c, 0, 64, 61
2,72763, Control_c, 0, 64, 63
2,72778, Control_c, 0, 64, 65
2,72794, Control_c, 0, 64, 67
2,72809, Control_c, 0, 64, 72
2,72809, Note_on_c, 0, 58, 54
2,72825, Control_c, 0, 64, 78
2,72832, Note_on_c, 0, 56, 0
2,72840, Control_c, 0, 64, 87
2,72854, Control_c, 0, 64, 95
2,72870, Control_c, 0, 64, 104
2,72876, Note_on_c, 0, 58, 0
2,72885, Control_c, 0, 64, 119
2,72899, Control_c, 0, 64, 127
2,73024, Note_on_c, 0, 53, 0
2,73061, Note_on_c, 0, 59, 73
2,73062, Note_on_c, 0, 49, 61
2,73066, Control_c, 0, 64, 104
2,73081, Control_c, 0, 64, 75
2,73096, Control_c, 0, 64, 60
2,73112, Control_c, 0, 64, 17
2,73127, Control_c, 0, 64, 8
2,73142, Control_c, 0, 64, 43
2,73158, Control_c, 0, 64, 56
2,73172, Control_c, 0, 64, 60
2,73188, Control_c, 0, 64, 63
2,73203, Control_c, 0, 64, 65
2,73218, Control_c, 0, 64, 67
2,73234, Control_c, 0, 64, 71
2,73239, Note_on_c, 0, 59, 0
2,73248, Control_c, 0, 64, 78
2,73264, Control_c, 0, 64, 88
2,73279, Control_c, 0, 64, 99
2,73290, Note_on_c, 0, 56, 78
2,73294, Control_c, 0, 64, 114
2,73309, Control_c, 0, 64, 127
2,73488, Note_on_c, 0, 49, 0
2,73551, Note_on_c, 0, 56, 0
2,73581, Note_on_c, 0, 58, 79
2,73594, Note_on_c, 0, 54, 66
2,73621, Control_c, 0, 64, 95
2,73637, Control_c, 0, 64, 71
2,73652, Control_c, 0, 64, 46
2,73668, Control_c, 0, 64, 0
2,73818, Control_c, 0, 64, 42
2,73834, Control_c, 0, 64, 60
2,73849, Control_c, 0, 64, 65
2,73859, Note_on_c, 0, 68, 0
2,73865, Control_c, 0, 64, 72
2,73880, Control_c, 0, 64, 95
2,73894, Control_c, 0, 64, 127
2,74080, Note_on_c, 0, 58, 0
2,74083, Note_on_c, 0, 66, 86
2,74110, Note_on_c, 0, 63, 65
2,74608, Note_on_c, 0, 71, 92
2,74610, Note_on_c, 0, 66, 0
2,74635, Note_on_c, 0, 56, 67
2,74644, Note_on_c, 0, 54, 0
2,74648, Control_c, 0, 64, 119
2,74662, Control_c, 0, 64, 76
2,74678, Control_c, 0, 64, 55
2,74693, Control_c, 0, 64, 0
2,74769, Control_c, 0, 64, 37
2,74785, Control_c, 0, 64, 47
2,74800, Control_c, 0, 64, 54
2,74815, Control_c, 0, 64, 59
2,74830, Control_c, 0, 64, 62
2,74845, Control_c, 0, 64, 65
2,74860, Control_c, 0, 64, 69
2,74876, Control_c, 0, 64, 77
2,74891, Control_c, 0, 64, 90
2,74907, Control_c, 0, 64, 103
2,74922, Control_c, 0, 64, 121
2,74936, Control_c, 0, 64, 127
2,75079, Note_on_c, 0, 56, 0
2,75147, Note_on_c, 0, 68, 63
2,75167, Note_on_c, 0, 53, 39
2,75169, Note_on_c, 0, 63, 0
2,75391, Note_on_c, 0, 51, 53
2,75393, Note_on_c, 0, 53, 0
2,75620, Note_on_c, 0, 53, 57
2,75628, Control_c, 0, 64, 88
2,75628, Note_on_c, 0, 61, 62
2,75643, Control_c, 0, 64, 69
2,75658, Control_c, 0, 64, 57
2,75674, Control_c, 0, 64, 39
2,75689, Control_c, 0, 64, 42
2,75705, Control_c, 0, 64, 52
2,75720, Control_c, 0, 64, 59
2,75724, Note_on_c, 0, 51, 0
2,75735, Control_c, 0, 64, 62
2,75751, Control_c, 0, 64, 64
2,75773, Control_c, 0, 64, 67
2,75788, Control_c, 0, 64, 72
2,75803, Control_c, 0, 64, 85
2,75817, Note_on_c, 0, 53, 0
2,75818, Control_c, 0, 64, 110
2,75834, Control_c, 0, 64, 127
2,75860, Note_on_c, 0, 56, 65
2,75870, Note_on_c, 0, 68, 0
2,75950, Note_on_c, 0, 71, 0
2,76111, Note_on_c, 0, 70, 81
2,76124, Note_on_c, 0, 49, 56
2,76313, Note_on_c, 0, 49, 0
2,76316, Note_on_c, 0, 70, 0
2,76348, Note_on_c, 0, 68, 92
2,76366, Note_on_c, 0, 51, 69
2,76579, Note_on_c, 0, 56, 0
2,76673, Note_on_c, 0, 73, 96
2,76693, Control_c, 0, 64, 92
2,76695, Note_on_c, 0, 53, 62
2,76709, Control_c, 0, 64, 68
2,76724, Control_c, 0, 64, 34
2,76739, Control_c, 0, 64, 0
2,76768, Note_on_c, 0, 51, 0
2,76814, Control_c, 0, 64, 47
2,76830, Control_c, 0, 64, 54
2,76847, Control_c, 0, 64, 59
2,76861, Control_c, 0, 64, 62
2,76876, Control_c, 0, 64, 65
2,76891, Control_c, 0, 64, 69
2,76907, Control_c, 0, 64, 77
2,76908, Note_on_c, 0, 53, 0
2,76913, Note_on_c, 0, 73, 0
2,76921, Control_c, 0, 64, 90
2,76936, Control_c, 0, 64, 108
2,76939, Note_on_c, 0, 54, 60
2,76952, Control_c, 0, 64, 127
2,77148, Note_on_c, 0, 54, 0
2,77148, Note_on_c, 0, 68, 0
2,77150, Control_c, 0, 64, 83
2,77151, Note_on_c, 0, 71, 81
2,77165, Control_c, 0, 64, 62
2,77180, Control_c, 0, 64, 0
2,77183, Note_on_c, 0, 56, 52
2,77210, Control_c, 0, 67, 29
2,77226, Control_c, 0, 67, 77
2,77241, Control_c, 0, 64, 41
2,77241, Control_c, 0, 67, 114
2,77256, Control_c, 0, 64, 57
2,77256, Control_c, 0, 67, 127
2,77271, Control_c, 0, 64, 61
2,77286, Control_c, 0, 64, 62
2,77310, Control_c, 0, 64, 63
2,77324, Control_c, 0, 64, 65
2,77339, Control_c, 0, 64, 67
2,77355, Control_c, 0, 64, 73
2,77370, Control_c, 0, 64, 81
2,77386, Control_c, 0, 64, 89
2,77400, Control_c, 0, 64, 92
2,77404, Note_on_c, 0, 53, 59
2,77410, Note_on_c, 0, 56, 0
2,77415, Control_c, 0, 64, 93
2,77431, Control_c, 0, 64, 93
2,77446, Control_c, 0, 64, 94
2,77460, Control_c, 0, 64, 98
2,77476, Control_c, 0, 64, 104
2,77491, Control_c, 0, 64, 116
2,77507, Control_c, 0, 64, 127
2,77605, Note_on_c, 0, 53, 0
2,77643, Control_c, 0, 64, 92
2,77659, Control_c, 0, 64, 69
2,77659, Note_on_c, 0, 71, 0
2,77668, Note_on_c, 0, 70, 74
2,77675, Control_c, 0, 64, 46
2,77686, Note_on_c, 0, 54, 54
2,77690, Control_c, 0, 64, 0
2,77714, Note_on_c, 0, 61, 0
2,77720, Control_c, 0, 64, 25
2,77735, Control_c, 0, 64, 54
2,77751, Control_c, 0, 64, 60
2,77765, Control_c, 0, 64, 63
2,77780, Control_c, 0, 64, 66
2,77796, Control_c, 0, 64, 73
2,77811, Control_c, 0, 64, 82
2,77827, Control_c, 0, 64, 98
2,77839, Note_on_c, 0, 70, 0
2,77842, Control_c, 0, 64, 127
2,77857, Control_c, 0, 67, 109
2,77872, Control_c, 0, 67, 77
2,77887, Control_c, 0, 67, 26
2,77902, Control_c, 0, 67, 0
2,78182, Note_on_c, 0, 54, 0
2,78197, Note_on_c, 0, 61, 82
2,78214, Note_on_c, 0, 68, 62
2,78215, Note_on_c, 0, 53, 60
2,78408, Note_on_c, 0, 61, 0
2,78435, Note_on_c, 0, 68, 0
2,78485, Note_on_c, 0, 66, 79
2,78498, Note_on_c, 0, 51, 53
2,78538, Note_on_c, 0, 53, 0
2,78690, Note_on_c, 0, 66, 0
2,78694, Note_on_c, 0, 51, 0
2,78716, Note_on_c, 0, 61, 90
2,78725, Note_on_c, 0, 65, 73
2,78731, Control_c, 0, 64, 86
2,78732, Note_on_c, 0, 49, 65
2,78747, Control_c, 0, 64, 59
2,78762, Control_c, 0, 64, 0
2,78807, Control_c, 0, 64, 55
2,78822, Control_c, 0, 64, 65
2,78845, Control_c, 0, 64, 73
2,78860, Control_c, 0, 64, 89
2,78876, Control_c, 0, 64, 127
2,78901, Note_on_c, 0, 61, 0
2,78932, Note_on_c, 0, 65, 0
2,78933, Note_on_c, 0, 49, 0
2,78950, Note_on_c, 0, 67, 88
2,78964, Note_on_c, 0, 51, 66
2,78975, Note_on_c, 0, 65, 29
2,79001, Note_on_c, 0, 65, 0
2,79166, Note_on_c, 0, 51, 0
2,79175, Note_on_c, 0, 68, 84
2,79177, Note_on_c, 0, 61, 98
2,79188, Note_on_c, 0, 67, 0
2,79196, Control_c, 0, 64, 89
2,79200, Note_on_c, 0, 52, 70
2,79211, Control_c, 0, 64, 62
2,79226, Control_c, 0, 64, 0
2,79287, Control_c, 0, 64, 56
2,79302, Control_c, 0, 64, 63
2,79318, Control_c, 0, 64, 66
2,79333, Control_c, 0, 64, 70
2,79349, Control_c, 0, 64, 76
2,79364, Control_c, 0, 64, 87
2,79366, Note_on_c, 0, 61, 0
2,79373, Note_on_c, 0, 52, 0
2,79378, Control_c, 0, 64, 112
2,79394, Control_c, 0, 64, 127
2,79416, Note_on_c, 0, 49, 78
2,79731, Note_on_c, 0, 49, 0
2,79734, Note_on_c, 0, 58, 92
2,79751, Control_c, 0, 64, 74
2,79753, Note_on_c, 0, 51, 74
2,79766, Control_c, 0, 64, 33
2,79780, Control_c, 0, 64, 0
2,79842, Control_c, 0, 64, 26
2,79856, Control_c, 0, 64, 52
2,79872, Control_c, 0, 64, 59
2,79887, Control_c, 0, 64, 63
2,79902, Control_c, 0, 64, 67
2,79918, Control_c, 0, 64, 77
2,79933, Control_c, 0, 64, 102
2,79948, Control_c, 0, 64, 127
2,80009, Note_on_c, 0, 68, 0
2,80031, Note_on_c, 0, 58, 0
2,80208, Note_on_c, 0, 59, 90
2,80220, Note_on_c, 0, 67, 82
2,80341, Note_on_c, 0, 67, 0
2,80448, Note_on_c, 0, 68, 87
2,80758, Note_on_c, 0, 68, 0
2,80767, Note_on_c, 0, 70, 84
2,80770, Note_on_c, 0, 61, 91
2,80792, Control_c, 0, 64, 103
2,80807, Control_c, 0, 64, 70
2,80822, Control_c, 0, 64, 25
2,80838, Control_c, 0, 64, 0
2,80856, Note_on_c, 0, 59, 0
2,81037, Control_c, 0, 64, 13
2,81052, Control_c, 0, 64, 48
2,81067, Control_c, 0, 64, 58
2,81082, Control_c, 0, 64, 62
2,81097, Control_c, 0, 64, 64
2,81108, Note_on_c, 0, 39, 78
2,81113, Control_c, 0, 64, 66
2,81128, Control_c, 0, 64, 69
2,81150, Control_c, 0, 64, 74
2,81165, Control_c, 0, 64, 81
2,81180, Control_c, 0, 64, 91
2,81196, Control_c, 0, 64, 99
2,81211, Control_c, 0, 64, 110
2,81226, Control_c, 0, 64, 127
2,81232, Note_on_c, 0, 51, 0
2,81316, Note_on_c, 0, 39, 0
2,81364, Note_on_c, 0, 41, 78
2,81439, Control_c, 0, 64, 104
2,81454, Control_c, 0, 64, 85
2,81469, Control_c, 0, 64, 71
2,81483, Control_c, 0, 64, 60
2,81498, Control_c, 0, 64, 0
2,81510, Note_on_c, 0, 61, 0
2,81599, Note_on_c, 0, 43, 81
2,81634, Note_on_c, 0, 41, 0
2,81865, Note_on_c, 0, 44, 80
2,81884, Note_on_c, 0, 43, 0
2,82039, Control_c, 0, 64, 10
2,82054, Control_c, 0, 64, 52
2,82070, Control_c, 0, 64, 61
2,82085, Control_c, 0, 64, 65
2,82100, Control_c, 0, 64, 70
2,82115, Control_c, 0, 64, 79
2,82130, Control_c, 0, 64, 110
2,82146, Control_c, 0, 64, 127
2,82197, Note_on_c, 0, 70, 0
2,82364, Note_on_c, 0, 59, 82
2,82385, Note_on_c, 0, 68, 60
2,82458, Note_on_c, 0, 59, 0
2,82526, Note_on_c, 0, 68, 0
2,82604, Note_on_c, 0, 67, 90
2,82652, Note_on_c, 0, 67, 0
2,82918, Note_on_c, 0, 64, 94
2,82939, Note_on_c, 0, 68, 71
2,82957, Control_c, 0, 64, 119
2,82972, Control_c, 0, 64, 80
2,82987, Control_c, 0, 64, 63
2,83003, Control_c, 0, 64, 39
2,83018, Control_c, 0, 64, 0
2,83048, Control_c, 0, 64, 47
2,83063, Control_c, 0, 64, 60
2,83079, Control_c, 0, 64, 64
2,83094, Control_c, 0, 64, 70
2,83108, Control_c, 0, 64, 80
2,83124, Control_c, 0, 64, 104
2,83139, Control_c, 0, 64, 127
2,83190, Note_on_c, 0, 44, 0
2,83396, Note_on_c, 0, 68, 0
2,83401, Note_on_c, 0, 70, 75
2,83422, Note_on_c, 0, 43, 50
2,83581, Note_on_c, 0, 70, 0
2,83608, Note_on_c, 0, 43, 0
2,83622, Note_on_c, 0, 71, 93
2,83629, Note_on_c, 0, 44, 69
2,83893, Note_on_c, 0, 73, 93
2,83912, Note_on_c, 0, 46, 78
2,83922, Control_c, 0, 64, 98
2,83924, Note_on_c, 0, 71, 0
2,83937, Control_c, 0, 64, 74
2,83939, Note_on_c, 0, 44, 0
2,83952, Control_c, 0, 64, 60
2,83967, Control_c, 0, 64, 0
2,84196, Control_c, 0, 64, 31
2,84219, Control_c, 0, 64, 47
2,84234, Control_c, 0, 64, 54
2,84249, Control_c, 0, 64, 60
2,84264, Control_c, 0, 64, 63
2,84280, Control_c, 0, 64, 66
2,84293, Note_on_c, 0, 64, 0
2,84295, Control_c, 0, 64, 70
2,84309, Control_c, 0, 64, 77
2,84325, Control_c, 0, 64, 88
2,84340, Control_c, 0, 64, 117
2,84356, Control_c, 0, 64, 127
2,84436, Note_on_c, 0, 63, 82
2,84657, Note_on_c, 0, 61, 89
2,84682, Note_on_c, 0, 63, 0
2,84970, Note_on_c, 0, 66, 95
2,84983, Control_c, 0, 64, 104
2,84999, Control_c, 0, 64, 72
2,85013, Note_on_c, 0, 61, 0
2,85014, Control_c, 0, 64, 45
2,85030, Control_c, 0, 64, 0
2,85151, Control_c, 0, 64, 23
2,85167, Control_c, 0, 64, 57
2,85182, Control_c, 0, 64, 62
2,85197, Control_c, 0, 64, 63
2,85213, Control_c, 0, 64, 65
2,85227, Control_c, 0, 64, 68
2,85243, Control_c, 0, 64, 75
2,85258, Control_c, 0, 64, 88
2,85273, Control_c, 0, 64, 113
2,85288, Control_c, 0, 64, 127
2,85477, Note_on_c, 0, 64, 92
2,85507, Note_on_c, 0, 44, 59
2,85520, Note_on_c, 0, 66, 0
2,85541, Note_on_c, 0, 46, 0
2,85702, Note_on_c, 0, 44, 0
2,85722, Note_on_c, 0, 46, 82
2,86042, Control_c, 0, 64, 94
2,86043, Note_on_c, 0, 46, 0
2,86043, Note_on_c, 0, 63, 91
2,86057, Control_c, 0, 64, 70
2,86065, Note_on_c, 0, 47, 68
2,86071, Control_c, 0, 64, 47
2,86073, Note_on_c, 0, 64, 0
2,86088, Control_c, 0, 64, 0
2,86163, Note_on_c, 0, 73, 0
2,86194, Control_c, 0, 64, 37
2,86209, Control_c, 0, 64, 57
2,86224, Control_c, 0, 64, 62
2,86240, Control_c, 0, 64, 65
2,86254, Control_c, 0, 64, 69
2,86269, Control_c, 0, 64, 77
2,86285, Control_c, 0, 64, 94
2,86300, Control_c, 0, 64, 127
2,86634, Note_on_c, 0, 75, 94
2,86652, Note_on_c, 0, 71, 66
2,86669, Note_on_c, 0, 55, 56
2,86880, Note_on_c, 0, 71, 0
2,86886, Note_on_c, 0, 75, 0
2,86897, Note_on_c, 0, 63, 0
2,86934, Note_on_c, 0, 70, 85
2,87019, Note_on_c, 0, 70, 0
2,87161, Note_on_c, 0, 75, 92
2,87163, Note_on_c, 0, 55, 0
2,87173, Control_c, 0, 64, 89
2,87175, Note_on_c, 0, 71, 75
2,87181, Note_on_c, 0, 56, 79
2,87188, Control_c, 0, 64, 63
2,87203, Control_c, 0, 64, 0
2,87249, Control_c, 0, 64, 16
2,87264, Control_c, 0, 64, 58
2,87288, Control_c, 0, 64, 64
2,87302, Control_c, 0, 64, 68
2,87317, Control_c, 0, 64, 74
2,87333, Control_c, 0, 64, 82
2,87348, Control_c, 0, 64, 97
2,87363, Control_c, 0, 64, 127
2,87399, Note_on_c, 0, 68, 87
2,87408, Note_on_c, 0, 75, 0
2,87411, Note_on_c, 0, 56, 0
2,87453, Note_on_c, 0, 71, 0
2,87624, Note_on_c, 0, 75, 96
2,87636, Note_on_c, 0, 66, 82
2,87642, Note_on_c, 0, 57, 80
2,87698, Note_on_c, 0, 57, 0
2,87704, Note_on_c, 0, 47, 0
2,87792, Note_on_c, 0, 66, 0
2,87801, Note_on_c, 0, 68, 0
2,87820, Note_on_c, 0, 75, 0
2,87857, Note_on_c, 0, 65, 90
2,88101, Note_on_c, 0, 65, 0
2,88120, Note_on_c, 0, 74, 95
2,88131, Note_on_c, 0, 66, 84
2,88137, Note_on_c, 0, 58, 88
2,88145, Control_c, 0, 64, 74
2,88148, Note_on_c, 0, 46, 75
2,88160, Control_c, 0, 64, 0
2,88236, Control_c, 0, 64, 49
2,88252, Control_c, 0, 64, 59
2,88267, Control_c, 0, 64, 63
2,88282, Control_c, 0, 64, 66
2,88299, Control_c, 0, 64, 73
2,88314, Control_c, 0, 64, 89
2,88329, Control_c, 0, 64, 127
2,88414, Note_on_c, 0, 74, 0
2,88596, Note_on_c, 0, 66, 0
2,88634, Note_on_c, 0, 75, 98
2,88650, Note_on_c, 0, 46, 0
2,88651, Note_on_c, 0, 48, 73
2,88883, Note_on_c, 0, 66, 84
2,88963, Note_on_c, 0, 66, 0
2,89185, Note_on_c, 0, 75, 0
2,89196, Note_on_c, 0, 77, 94
2,89208, Note_on_c, 0, 48, 0
2,89215, Note_on_c, 0, 50, 74
2,89215, Note_on_c, 0, 65, 78
2,89250, Control_c, 0, 64, 80
2,89265, Control_c, 0, 64, 48
2,89280, Control_c, 0, 64, 0
2,89356, Control_c, 0, 64, 26
2,89371, Control_c, 0, 64, 52
2,89386, Control_c, 0, 64, 61
2,89401, Control_c, 0, 64, 66
2,89417, Control_c, 0, 64, 77
2,89431, Control_c, 0, 64, 97
2,89434, Note_on_c, 0, 50, 0
2,89447, Control_c, 0, 64, 127
2,89533, Note_on_c, 0, 66, 73
2,89542, Note_on_c, 0, 65, 0
2,89581, Note_on_c, 0, 58, 0
2,89770, Note_on_c, 0, 68, 76
2,89782, Note_on_c, 0, 48, 57
2,89783, Note_on_c, 0, 56, 60
2,89793, Note_on_c, 0, 66, 0
2,89900, Note_on_c, 0, 48, 0
2,89952, Note_on_c, 0, 56, 0
2,89987, Note_on_c, 0, 58, 90
2,90002, Note_on_c, 0, 50, 67
2,90045, Note_on_c, 0, 68, 0
2,90048, Note_on_c, 0, 50, 0
2,90088, Note_on_c, 0, 58, 0
2,90256, Note_on_c, 0, 59, 89
2,90275, Note_on_c, 0, 51, 65
2,90293, Control_c, 0, 64, 87
2,90308, Control_c, 0, 64, 63
2,90324, Control_c, 0, 64, 0
2,90437, Control_c, 0, 64, 23
2,90453, Control_c, 0, 64, 55
2,90468, Control_c, 0, 64, 63
2,90483, Control_c, 0, 64, 68
2,90498, Control_c, 0, 64, 78
2,90513, Control_c, 0, 64, 106
2,90526, Note_on_c, 0, 51, 0
2,90529, Control_c, 0, 64, 127
2,90733, Note_on_c, 0, 77, 0
2,90757, Note_on_c, 0, 75, 94
2,90777, Note_on_c, 0, 66, 71
2,90782, Note_on_c, 0, 50, 60
2,90926, Note_on_c, 0, 50, 0
2,91003, Note_on_c, 0, 51, 86
2,91260, Note_on_c, 0, 66, 0
2,91280, Note_on_c, 0, 80, 92
2,91298, Note_on_c, 0, 53, 81
2,91302, Note_on_c, 0, 75, 0
2,91329, Control_c, 0, 64, 112
2,91344, Control_c, 0, 64, 75
2,91347, Note_on_c, 0, 51, 0
2,91360, Control_c, 0, 64, 55
2,91375, Control_c, 0, 64, 0
2,91510, Control_c, 0, 64, 37
2,91525, Control_c, 0, 64, 54
2,91540, Control_c, 0, 64, 61
2,91556, Control_c, 0, 64, 64
2,91571, Control_c, 0, 64, 66
2,91587, Control_c, 0, 64, 70
2,91603, Control_c, 0, 64, 78
2,91618, Control_c, 0, 64, 93
2,91633, Control_c, 0, 64, 127
2,91753, Note_on_c, 0, 59, 0
2,91771, Note_on_c, 0, 78, 75
2,91778, Note_on_c, 0, 58, 63
2,91979, Note_on_c, 0, 58, 0
2,92007, Note_on_c, 0, 60, 78
2,92055, Note_on_c, 0, 60, 0
2,92264, Note_on_c, 0, 61, 91
2,92266, Note_on_c, 0, 77, 70
2,92279, Control_c, 0, 64, 71
2,92293, Control_c, 0, 64, 36
2,92308, Control_c, 0, 64, 0
2,92313, Note_on_c, 0, 78, 0
2,92355, Control_c, 0, 64, 33
2,92369, Control_c, 0, 64, 60
2,92384, Control_c, 0, 64, 65
2,92401, Control_c, 0, 64, 71
2,92411, Note_on_c, 0, 77, 0
2,92416, Control_c, 0, 64, 83
2,92428, Note_on_c, 0, 53, 0
2,92432, Control_c, 0, 64, 127
2,92726, Note_on_c, 0, 80, 0
2,92764, Note_on_c, 0, 78, 81
2,92774, Note_on_c, 0, 51, 67
2,92956, Note_on_c, 0, 51, 0
2,92993, Note_on_c, 0, 77, 88
2,92993, Note_on_c, 0, 78, 0
2,92997, Note_on_c, 0, 53, 74
2,93039, Note_on_c, 0, 77, 0
2,93284, Note_on_c, 0, 53, 0
2,93326, Note_on_c, 0, 82, 91
2,93336, Note_on_c, 0, 54, 71
2,93368, Control_c, 0, 64, 113
2,93383, Control_c, 0, 64, 72
2,93398, Control_c, 0, 64, 44
2,93413, Control_c, 0, 64, 0
2,93542, Control_c, 0, 64, 46
2,93557, Control_c, 0, 64, 60
2,93572, Control_c, 0, 64, 64
2,93587, Control_c, 0, 64, 66
2,93603, Control_c, 0, 64, 69
2,93618, Control_c, 0, 64, 76
2,93634, Control_c, 0, 64, 91
2,93649, Control_c, 0, 64, 127
2,93838, Note_on_c, 0, 61, 0
2,93897, Note_on_c, 0, 80, 81
2,93927, Note_on_c, 0, 60, 52
2,93929, Note_on_c, 0, 77, 52
2,94027, Note_on_c, 0, 82, 0
2,94156, Note_on_c, 0, 62, 54
2,94180, Note_on_c, 0, 60, 0
2,94182, Note_on_c, 0, 62, 0
2,94401, Control_c, 0, 64, 102
2,94410, Note_on_c, 0, 78, 73
2,94416, Control_c, 0, 64, 80
2,94423, Note_on_c, 0, 63, 59
2,94428, Note_on_c, 0, 77, 0
2,94432, Control_c, 0, 64, 69
2,94436, Note_on_c, 0, 75, 59
2,94440, Note_on_c, 0, 80, 0
2,94447, Control_c, 0, 64, 64
2,94462, Control_c, 0, 64, 63
2,94478, Control_c, 0, 64, 64
2,94493, Control_c, 0, 64, 66
2,94507, Control_c, 0, 64, 70
2,94523, Control_c, 0, 64, 75
2,94537, Control_c, 0, 64, 81
2,94553, Control_c, 0, 64, 91
2,94568, Control_c, 0, 64, 106
2,94582, Control_c, 0, 64, 127
2,94713, Note_on_c, 0, 75, 0
2,94873, Note_on_c, 0, 54, 0
2,94986, Control_c, 0, 64, 92
2,95000, Note_on_c, 0, 82, 67
2,95002, Control_c, 0, 64, 69
2,95003, Note_on_c, 0, 73, 76
2,95006, Note_on_c, 0, 78, 0
2,95016, Control_c, 0, 64, 41
2,95018, Note_on_c, 0, 53, 47
2,95032, Control_c, 0, 64, 0
2,95107, Control_c, 0, 64, 24
2,95123, Control_c, 0, 64, 48
2,95138, Control_c, 0, 64, 57
2,95153, Control_c, 0, 64, 61
2,95168, Control_c, 0, 64, 63
2,95183, Control_c, 0, 64, 66
2,95193, Note_on_c, 0, 53, 0
2,95199, Control_c, 0, 64, 71
2,95214, Control_c, 0, 64, 79
2,95229, Control_c, 0, 64, 88
2,95245, Control_c, 0, 64, 97
2,95248, Note_on_c, 0, 55, 50
2,95260, Control_c, 0, 64, 101
2,95275, Control_c, 0, 64, 103
2,95290, Control_c, 0, 64, 110
2,95305, Control_c, 0, 64, 127
2,95442, Control_c, 0, 64, 90
2,95448, Note_on_c, 0, 55, 0
2,95457, Control_c, 0, 64, 65
2,95472, Control_c, 0, 64, 0
2,95477, Note_on_c, 0, 75, 73
2,95477, Note_on_c, 0, 82, 0
2,95490, Note_on_c, 0, 56, 53
2,95533, Control_c, 0, 64, 55
2,95547, Control_c, 0, 64, 62
2,95563, Control_c, 0, 64, 65
2,95578, Control_c, 0, 64, 67
2,95594, Control_c, 0, 64, 70
2,95609, Control_c, 0, 64, 74
2,95624, Control_c, 0, 64, 79
2,95639, Control_c, 0, 64, 85
2,95654, Control_c, 0, 64, 90
2,95670, Control_c, 0, 64, 93
2,95679, Note_on_c, 0, 63, 0
2,95686, Control_c, 0, 64, 94
2,95686, Note_on_c, 0, 73, 0
2,95701, Control_c, 0, 64, 95
2,95717, Control_c, 0, 64, 96
2,95754, Note_on_c, 0, 64, 48
2,95891, Control_c, 0, 64, 96
2,95905, Control_c, 0, 64, 97
2,95980, Note_on_c, 0, 71, 64
2,96012, Control_c, 0, 64, 98
2,96015, Note_on_c, 0, 63, 44
2,96027, Control_c, 0, 64, 98
2,96036, Note_on_c, 0, 64, 0
2,96043, Control_c, 0, 64, 100
2,96058, Control_c, 0, 64, 106
2,96074, Control_c, 0, 64, 116
2,96089, Control_c, 0, 64, 127
2,96180, Note_on_c, 0, 63, 0
2,96186, Note_on_c, 0, 71, 0
2,96206, Note_on_c, 0, 70, 76
2,96242, Note_on_c, 0, 61, 51
2,96456, Note_on_c, 0, 61, 0
2,96484, Control_c, 0, 64, 96
2,96507, Control_c, 0, 64, 78
2,96509, Note_on_c, 0, 68, 74
2,96523, Control_c, 0, 64, 64
2,96532, Note_on_c, 0, 59, 45
2,96538, Control_c, 0, 64, 43
2,96554, Control_c, 0, 64, 0
2,96575, Note_on_c, 0, 70, 0
2,96599, Control_c, 0, 64, 41
2,96614, Control_c, 0, 64, 52
2,96629, Control_c, 0, 64, 57
2,96645, Control_c, 0, 64, 60
2,96660, Control_c, 0, 64, 63
2,96676, Control_c, 0, 64, 66
2,96691, Control_c, 0, 64, 70
2,96705, Control_c, 0, 64, 77
2,96721, Control_c, 0, 64, 87
2,96736, Control_c, 0, 64, 94
2,96750, Control_c, 0, 64, 97
2,96766, Control_c, 0, 64, 100
2,96781, Control_c, 0, 64, 103
2,96783, Note_on_c, 0, 63, 60
2,96788, Note_on_c, 0, 68, 0
2,96797, Control_c, 0, 64, 108
2,96812, Control_c, 0, 64, 114
2,96826, Control_c, 0, 64, 119
2,96842, Control_c, 0, 64, 121
2,96857, Control_c, 0, 64, 124
2,96873, Control_c, 0, 64, 127
2,97037, Note_on_c, 0, 68, 79
2,97040, Control_c, 0, 64, 88
2,97051, Note_on_c, 0, 56, 0
2,97055, Control_c, 0, 64, 71
2,97057, Note_on_c, 0, 54, 50
2,97069, Control_c, 0, 64, 60
2,97085, Control_c, 0, 64, 35
2,97086, Note_on_c, 0, 63, 0
2,97100, Control_c, 0, 64, 25
2,97116, Control_c, 0, 64, 43
2,97131, Control_c, 0, 64, 54
2,97146, Control_c, 0, 64, 59
2,97161, Control_c, 0, 64, 61
2,97176, Control_c, 0, 64, 64
2,97192, Control_c, 0, 64, 68
2,97207, Control_c, 0, 64, 77
2,97214, Note_on_c, 0, 68, 0
2,97222, Control_c, 0, 64, 88
2,97237, Control_c, 0, 64, 101
2,97252, Control_c, 0, 64, 111
2,97275, Control_c, 0, 64, 124
2,97290, Control_c, 0, 64, 127
2,97549, Control_c, 0, 64, 104
2,97565, Control_c, 0, 64, 72
2,97574, Note_on_c, 0, 68, 70
2,97580, Control_c, 0, 64, 53
2,97595, Control_c, 0, 64, 0
2,97601, Note_on_c, 0, 52, 44
2,97638, Note_on_c, 0, 54, 0
2,97670, Control_c, 0, 64, 32
2,97686, Control_c, 0, 64, 52
2,97701, Control_c, 0, 64, 59
2,97717, Control_c, 0, 64, 62
2,97732, Control_c, 0, 64, 66
2,97746, Control_c, 0, 64, 71
2,97762, Control_c, 0, 64, 77
2,97767, Note_on_c, 0, 59, 0
2,97777, Control_c, 0, 64, 82
2,97793, Control_c, 0, 64, 84
2,97807, Control_c, 0, 64, 86
2,97814, Note_on_c, 0, 75, 0
2,97822, Control_c, 0, 64, 88
2,97838, Control_c, 0, 64, 91
2,97839, Note_on_c, 0, 68, 0
2,97853, Control_c, 0, 64, 94
2,97868, Control_c, 0, 64, 96
2,97883, Control_c, 0, 64, 97
2,97929, Control_c, 0, 64, 97
2,97944, Control_c, 0, 64, 100
2,97960, Control_c, 0, 64, 105
2,97975, Control_c, 0, 64, 117
2,97990, Control_c, 0, 64, 127
2,98058, Control_c, 0, 64, 111
2,98074, Control_c, 0, 64, 89
2,98085, Note_on_c, 0, 74, 61
2,98088, Control_c, 0, 64, 73
2,98088, Note_on_c, 0, 68, 57
2,98098, Note_on_c, 0, 58, 46
2,98103, Control_c, 0, 64, 59
2,98119, Control_c, 0, 64, 10
2,98135, Control_c, 0, 64, 0
2,98150, Control_c, 0, 64, 18
2,98166, Control_c, 0, 64, 50
2,98181, Control_c, 0, 64, 58
2,98196, Control_c, 0, 64, 61
2,98211, Control_c, 0, 64, 64
2,98226, Control_c, 0, 64, 67
2,98241, Control_c, 0, 64, 71
2,98256, Control_c, 0, 64, 78
2,98257, Note_on_c, 0, 68, 0
2,98272, Control_c, 0, 64, 90
2,98287, Control_c, 0, 64, 106
2,98302, Control_c, 0, 64, 127
2,98313, Note_on_c, 0, 52, 0
2,98354, Note_on_c, 0, 56, 42
2,98366, Note_on_c, 0, 58, 0
2,98566, Note_on_c, 0, 56, 0
2,98681, Control_c, 0, 64, 115
2,98693, Note_on_c, 0, 75, 66
2,98696, Control_c, 0, 64, 85
2,98709, Note_on_c, 0, 74, 0
2,98712, Control_c, 0, 64, 67
2,98718, Note_on_c, 0, 58, 42
2,98718, Note_on_c, 0, 67, 58
2,98727, Control_c, 0, 64, 0
2,98727, Note_on_c, 0, 51, 45
2,98841, Control_c, 0, 64, 35
2,98855, Control_c, 0, 64, 57
2,98870, Control_c, 0, 64, 62
2,98886, Control_c, 0, 64, 65
2,98901, Control_c, 0, 64, 69
2,98917, Control_c, 0, 64, 76
2,98932, Control_c, 0, 64, 92
2,98947, Control_c, 0, 64, 127
2,98957, Note_on_c, 0, 67, 0
2,98968, Note_on_c, 0, 75, 0
2,99283, Note_on_c, 0, 68, 71
2,99299, Note_on_c, 0, 64, 58
2,99452, Note_on_c, 0, 58, 0
2,99474, Note_on_c, 0, 51, 0
2,99508, Note_on_c, 0, 64, 0
2,99833, Note_on_c, 0, 70, 74
2,99858, Note_on_c, 0, 49, 55
2,99864, Note_on_c, 0, 68, 0
2,99873, Note_on_c, 0, 64, 57
2,99883, Control_c, 0, 64, 92
2,99898, Control_c, 0, 64, 64
2,99915, Control_c, 0, 64, 0
2,100005, Control_c, 0, 64, 16
2,100020, Control_c, 0, 64, 46
2,100036, Control_c, 0, 64, 56
2,100051, Control_c, 0, 64, 61
2,100066, Control_c, 0, 64, 64
2,100082, Control_c, 0, 64, 70
2,100097, Control_c, 0, 64, 80
2,100112, Control_c, 0, 64, 106
2,100122, Note_on_c, 0, 64, 0
2,100127, Control_c, 0, 64, 127
2,100346, Note_on_c, 0, 64, 71
2,100363, Note_on_c, 0, 49, 0
2,100848, Note_on_c, 0, 63, 63
2,100882, Note_on_c, 0, 64, 0
2,100895, Note_on_c, 0, 47, 43
2,100909, Control_c, 0, 64, 83
2,100924, Control_c, 0, 64, 62
2,100939, Control_c, 0, 64, 0
2,101060, Control_c, 0, 64, 48
2,101076, Control_c, 0, 64, 57
2,101091, Control_c, 0, 64, 61
2,101115, Control_c, 0, 64, 64
2,101130, Control_c, 0, 64, 68
2,101144, Control_c, 0, 64, 76
2,101160, Control_c, 0, 64, 98
2,101175, Control_c, 0, 64, 127
2,101357, Note_on_c, 0, 63, 0
2,101372, Note_on_c, 0, 68, 71
2,101372, Note_on_c, 0, 70, 0
2,101410, Note_on_c, 0, 65, 35
2,101434, Control_c, 0, 64, 100
2,101449, Control_c, 0, 64, 79
2,101464, Control_c, 0, 64, 68
2,101480, Control_c, 0, 64, 60
2,101494, Control_c, 0, 64, 53
2,101509, Control_c, 0, 64, 55
2,101525, Control_c, 0, 64, 60
2,101540, Control_c, 0, 64, 63
2,101556, Control_c, 0, 64, 64
2,101570, Control_c, 0, 64, 65
2,101585, Control_c, 0, 64, 67
2,101601, Control_c, 0, 64, 71
2,101616, Control_c, 0, 64, 78
2,101632, Control_c, 0, 64, 88
2,101647, Control_c, 0, 64, 100
2,101662, Control_c, 0, 64, 117
2,101678, Control_c, 0, 64, 127
2,101678, Control_c, 0, 67, 19
2,101692, Control_c, 0, 67, 38
2,101707, Control_c, 0, 67, 44
2,101738, Control_c, 0, 67, 44
2,101754, Control_c, 0, 67, 42
2,101768, Control_c, 0, 67, 41
2,101783, Control_c, 0, 67, 40
2,101799, Control_c, 0, 67, 38
2,101813, Control_c, 0, 67, 38
2,101828, Control_c, 0, 67, 37
2,101844, Control_c, 0, 67, 35
2,101859, Control_c, 0, 67, 35
2,101882, Control_c, 0, 67, 34
2,101913, Control_c, 0, 64, 97
2,101925, Note_on_c, 0, 73, 69
2,101928, Control_c, 0, 64, 73
2,101937, Note_on_c, 0, 68, 0
2,101941, Note_on_c, 0, 67, 54
2,101943, Control_c, 0, 64, 56
2,101958, Control_c, 0, 64, 0
2,101968, Note_on_c, 0, 65, 0
2,102064, Control_c, 0, 67, 35
2,102080, Control_c, 0, 64, 38
2,102095, Control_c, 0, 64, 53
2,102095, Control_c, 0, 67, 35
2,102109, Control_c, 0, 64, 58
2,102125, Control_c, 0, 64, 61
2,102140, Control_c, 0, 64, 64
2,102155, Control_c, 0, 64, 66
2,102170, Control_c, 0, 64, 69
2,102185, Control_c, 0, 64, 73
2,102201, Control_c, 0, 64, 79
2,102216, Control_c, 0, 64, 84
2,102216, Control_c, 0, 67, 35
2,102233, Control_c, 0, 64, 88
2,102248, Control_c, 0, 64, 91
2,102262, Control_c, 0, 64, 92
2,102262, Control_c, 0, 67, 34
2,102278, Control_c, 0, 64, 93
2,102278, Control_c, 0, 67, 34
2,102308, Control_c, 0, 64, 94
2,102324, Control_c, 0, 64, 96
2,102338, Control_c, 0, 64, 98
2,102354, Control_c, 0, 64, 99
2,102400, Control_c, 0, 67, 33
2,102412, Note_on_c, 0, 47, 0
2,102429, Control_c, 0, 67, 33
2,102436, Note_on_c, 0, 68, 57
2,102440, Note_on_c, 0, 46, 42
2,102515, Note_on_c, 0, 67, 0
2,102552, Control_c, 0, 67, 32
2,102703, Note_on_c, 0, 44, 56
2,102718, Note_on_c, 0, 46, 0
2,102969, Control_c, 0, 64, 97
2,102985, Control_c, 0, 64, 91
2,103000, Control_c, 0, 64, 82
2,103014, Note_on_c, 0, 68, 0
2,103015, Control_c, 0, 64, 73
2,103023, Note_on_c, 0, 70, 55
2,103030, Control_c, 0, 64, 63
2,103039, Note_on_c, 0, 44, 0
2,103047, Control_c, 0, 64, 27
2,103047, Note_on_c, 0, 43, 45
2,103062, Control_c, 0, 64, 0
2,103169, Control_c, 0, 64, 43
2,103183, Control_c, 0, 64, 56
2,103199, Control_c, 0, 64, 60
2,103214, Control_c, 0, 64, 62
2,103228, Control_c, 0, 64, 64
2,103244, Control_c, 0, 64, 67
2,103259, Control_c, 0, 64, 73
2,103262, Note_on_c, 0, 70, 0
2,103275, Control_c, 0, 64, 87
2,103290, Control_c, 0, 64, 111
2,103304, Control_c, 0, 64, 127
2,103616, Control_c, 0, 67, 31
2,103625, Note_on_c, 0, 71, 62
2,103638, Note_on_c, 0, 51, 47
2,103654, Note_on_c, 0, 68, 41
2,103698, Note_on_c, 0, 73, 0
2,103799, Control_c, 0, 67, 31
2,103853, Note_on_c, 0, 71, 0
2,103887, Note_on_c, 0, 70, 69
2,103888, Note_on_c, 0, 51, 0
2,103922, Control_c, 0, 67, 30
2,103998, Control_c, 0, 67, 30
2,104013, Control_c, 0, 67, 29
2,104034, Note_on_c, 0, 68, 0
2,104088, Control_c, 0, 67, 29
2,104203, Control_c, 0, 67, 29
2,104207, Note_on_c, 0, 75, 67
2,104218, Control_c, 0, 67, 30
2,104222, Note_on_c, 0, 70, 0
2,104233, Control_c, 0, 64, 89
2,104234, Note_on_c, 0, 67, 46
2,104237, Note_on_c, 0, 51, 43
2,104248, Control_c, 0, 64, 71
2,104263, Control_c, 0, 64, 57
2,104263, Control_c, 0, 67, 30
2,104278, Control_c, 0, 64, 0
2,104369, Control_c, 0, 64, 35
2,104384, Control_c, 0, 64, 48
2,104400, Control_c, 0, 64, 55
2,104415, Control_c, 0, 64, 59
2,104429, Control_c, 0, 64, 62
2,104445, Control_c, 0, 64, 65
2,104445, Control_c, 0, 67, 30
2,104460, Control_c, 0, 64, 67
2,104471, Note_on_c, 0, 51, 0
2,104476, Control_c, 0, 64, 72
2,104490, Control_c, 0, 64, 79
2,104505, Control_c, 0, 64, 88
2,104521, Control_c, 0, 64, 96
2,104536, Control_c, 0, 64, 105
2,104551, Control_c, 0, 64, 119
2,104567, Control_c, 0, 64, 127
2,104741, Note_on_c, 0, 73, 63
2,104747, Note_on_c, 0, 51, 43
2,104768, Note_on_c, 0, 75, 0
2,104829, Note_on_c, 0, 73, 0
2,104951, Note_on_c, 0, 43, 0
2,105016, Control_c, 0, 67, 29
2,105062, Control_c, 0, 67, 29
2,105243, Note_on_c, 0, 71, 57
2,105254, Note_on_c, 0, 68, 53
2,105257, Note_on_c, 0, 51, 0
2,105271, Note_on_c, 0, 50, 49
2,105288, Control_c, 0, 67, 29
2,105303, Control_c, 0, 64, 88
2,105319, Control_c, 0, 64, 70
2,105334, Control_c, 0, 64, 55
2,105349, Control_c, 0, 64, 0
2,105486, Control_c, 0, 67, 28
2,105502, Control_c, 0, 67, 27
2,105518, Control_c, 0, 67, 26
2,105533, Control_c, 0, 67, 24
2,105563, Control_c, 0, 67, 24
2,105578, Control_c, 0, 67, 23
2,105609, Control_c, 0, 67, 23
2,105624, Control_c, 0, 67, 22
2,105639, Control_c, 0, 67, 18
2,105654, Control_c, 0, 67, 10
2,105669, Control_c, 0, 67, 0
2,105774, Note_on_c, 0, 70, 52
2,105783, Note_on_c, 0, 51, 56
2,105783, Note_on_c, 0, 68, 0
2,105787, Note_on_c, 0, 66, 56
2,105805, Note_on_c, 0, 71, 0
2,105836, Note_on_c, 0, 67, 0
2,105841, Note_on_c, 0, 50, 0
2,106322, Note_on_c, 0, 70, 0
2,106334, Note_on_c, 0, 68, 60
2,106357, Note_on_c, 0, 53, 54
2,106398, Note_on_c, 0, 51, 0
2,106927, Note_on_c, 0, 65, 51
2,106942, Note_on_c, 0, 66, 0
2,107154, Note_on_c, 0, 63, 56
2,107166, Note_on_c, 0, 65, 0
2,107422, Note_on_c, 0, 62, 60
2,107430, Note_on_c, 0, 63, 0
2,107594, Control_c, 0, 64, 36
2,107609, Control_c, 0, 64, 60
2,107624, Control_c, 0, 64, 65
2,107639, Control_c, 0, 64, 72
2,107654, Control_c, 0, 64, 85
2,107669, Control_c, 0, 64, 127
2,107670, Note_on_c, 0, 68, 0
2,107933, Note_on_c, 0, 51, 61
2,107942, Note_on_c, 0, 66, 56
2,107943, Note_on_c, 0, 53, 0
2,107951, Note_on_c, 0, 63, 52
2,107974, Control_c, 0, 64, 92
2,107987, Note_on_c, 0, 62, 0
2,107989, Control_c, 0, 64, 79
2,108005, Control_c, 0, 64, 69
2,108027, Control_c, 0, 64, 63
2,108043, Control_c, 0, 64, 49
2,108058, Control_c, 0, 64, 41
2,108074, Control_c, 0, 64, 43
2,108089, Control_c, 0, 64, 48
2,108103, Control_c, 0, 64, 53
2,108119, Control_c, 0, 64, 57
2,108134, Control_c, 0, 64, 60
2,108149, Control_c, 0, 64, 63
2,108165, Control_c, 0, 64, 66
2,108179, Control_c, 0, 64, 69
2,108195, Control_c, 0, 64, 74
2,108210, Control_c, 0, 64, 80
2,108225, Control_c, 0, 64, 84
2,108241, Control_c, 0, 64, 85
2,108255, Control_c, 0, 64, 86
2,108270, Control_c, 0, 64, 87
2,108300, Control_c, 0, 64, 87
2,108407, Control_c, 0, 64, 86
2,108422, Control_c, 0, 64, 83
2,108438, Control_c, 0, 64, 77
2,108452, Control_c, 0, 64, 71
2,108467, Control_c, 0, 64, 67
2,108480, Note_on_c, 0, 56, 63
2,108483, Control_c, 0, 64, 63
2,108484, Note_on_c, 0, 65, 63
2,108492, Note_on_c, 0, 63, 0
2,108498, Control_c, 0, 64, 53
2,108514, Control_c, 0, 64, 0
2,108576, Note_on_c, 0, 51, 0
2,108616, Note_on_c, 0, 66, 0
2,109034, Note_on_c, 0, 62, 51
2,109251, Note_on_c, 0, 60, 54
2,109299, Note_on_c, 0, 62, 0
2,109525, Note_on_c, 0, 60, 0
2,109534, Note_on_c, 0, 62, 39
2,109761, Control_c, 0, 64, 50
2,109776, Control_c, 0, 64, 60
2,109790, Control_c, 0, 64, 64
2,109806, Control_c, 0, 64, 67
2,109821, Control_c, 0, 64, 72
2,109837, Control_c, 0, 64, 84
2,109852, Control_c, 0, 64, 127
2,110015, Note_on_c, 0, 70, 55
2,110035, Note_on_c, 0, 54, 44
2,110094, Note_on_c, 0, 65, 0
2,110244, Note_on_c, 0, 53, 58
2,110247, Note_on_c, 0, 68, 70
2,110257, Note_on_c, 0, 56, 0
2,110311, Note_on_c, 0, 70, 0
2,110324, Note_on_c, 0, 54, 0
2,110589, Control_c, 0, 64, 117
2,110599, Note_on_c, 0, 58, 66
2,110602, Note_on_c, 0, 66, 69
2,110605, Control_c, 0, 64, 92
2,110605, Note_on_c, 0, 62, 0
2,110620, Control_c, 0, 64, 78
2,110635, Control_c, 0, 64, 65
2,110639, Note_on_c, 0, 68, 0
2,110643, Note_on_c, 0, 61, 43
2,110650, Control_c, 0, 64, 16
2,110665, Control_c, 0, 64, 0
2,110742, Note_on_c, 0, 53, 0
2,111204, Note_on_c, 0, 64, 62
2,111206, Note_on_c, 0, 56, 55
2,111256, Note_on_c, 0, 58, 0
2,111478, Control_c, 0, 64, 21
2,111493, Control_c, 0, 64, 44
2,111508, Control_c, 0, 64, 52
2,111524, Control_c, 0, 64, 56
2,111539, Control_c, 0, 64, 59
2,111554, Control_c, 0, 64, 61
2,111569, Control_c, 0, 64, 64
2,111584, Control_c, 0, 64, 67
2,111599, Control_c, 0, 64, 73
2,111614, Control_c, 0, 64, 82
2,111629, Control_c, 0, 64, 94
2,111645, Control_c, 0, 64, 103
2,111660, Control_c, 0, 64, 106
2,111705, Control_c, 0, 64, 99
2,111711, Note_on_c, 0, 55, 53
2,111715, Note_on_c, 0, 63, 62
2,111721, Control_c, 0, 64, 88
2,111726, Note_on_c, 0, 64, 0
2,111735, Note_on_c, 0, 66, 0
2,111736, Control_c, 0, 64, 78
2,111751, Control_c, 0, 64, 74
2,111751, Note_on_c, 0, 56, 0
2,111782, Control_c, 0, 64, 75
2,111797, Control_c, 0, 64, 78
2,111812, Control_c, 0, 64, 86
2,111827, Control_c, 0, 64, 105
2,111843, Control_c, 0, 64, 127
2,111909, Note_on_c, 0, 61, 0
2,111923, Note_on_c, 0, 55, 0
2,112311, Note_on_c, 0, 75, 60
2,112347, Note_on_c, 0, 59, 41
2,112353, Control_c, 0, 64, 96
2,112357, Note_on_c, 0, 51, 36
2,112368, Control_c, 0, 64, 72
2,112383, Control_c, 0, 64, 61
2,112398, Control_c, 0, 64, 38
2,112413, Control_c, 0, 64, 18
2,112428, Control_c, 0, 64, 36
2,112443, Control_c, 0, 64, 50
2,112458, Control_c, 0, 64, 56
2,112474, Control_c, 0, 64, 59
2,112489, Control_c, 0, 64, 62
2,112504, Control_c, 0, 64, 64
2,112519, Control_c, 0, 64, 68
2,112534, Control_c, 0, 64, 77
2,112549, Control_c, 0, 64, 91
2,112565, Control_c, 0, 64, 115
2,112571, Note_on_c, 0, 63, 0
2,112580, Control_c, 0, 64, 127
2,112595, Note_on_c, 0, 58, 54
2,112627, Note_on_c, 0, 59, 0
2,112779, Note_on_c, 0, 58, 0
2,112853, Note_on_c, 0, 56, 48
2,112869, Note_on_c, 0, 59, 61
2,112878, Note_on_c, 0, 51, 0
2,112907, Control_c, 0, 64, 108
2,112923, Control_c, 0, 64, 88
2,112938, Control_c, 0, 64, 72
2,112953, Control_c, 0, 64, 60
2,112969, Control_c, 0, 64, 0
2,113115, Note_on_c, 0, 71, 65
2,113335, Note_on_c, 0, 64, 68
2,113343, Note_on_c, 0, 70, 61
2,113344, Note_on_c, 0, 59, 0
2,113344, Note_on_c, 0, 71, 0
2,113580, Note_on_c, 0, 70, 0
2,113589, Note_on_c, 0, 68, 64
2,113885, Note_on_c, 0, 70, 56
2,113895, Note_on_c, 0, 68, 0
2,113897, Note_on_c, 0, 61, 51
2,113963, Note_on_c, 0, 64, 0
2,114011, Control_c, 0, 64, 8
2,114026, Control_c, 0, 64, 51
2,114041, Control_c, 0, 64, 59
2,114056, Control_c, 0, 64, 63
2,114071, Control_c, 0, 64, 67
2,114087, Control_c, 0, 64, 75
2,114102, Control_c, 0, 64, 94
2,114118, Control_c, 0, 64, 127
2,114185, Note_on_c, 0, 56, 0
2,114195, Note_on_c, 0, 61, 0
2,114469, Note_on_c, 0, 75, 0
2,114476, Note_on_c, 0, 73, 64
2,114526, Note_on_c, 0, 55, 39
2,114530, Note_on_c, 0, 58, 37
2,114695, Note_on_c, 0, 73, 0
2,114748, Note_on_c, 0, 53, 59
2,114762, Note_on_c, 0, 55, 0
2,114813, Note_on_c, 0, 58, 0
2,114950, Note_on_c, 0, 53, 0
2,114998, Note_on_c, 0, 55, 50
2,115002, Note_on_c, 0, 73, 81
2,115023, Note_on_c, 0, 62, 52
2,115076, Note_on_c, 0, 62, 0
2,115158, Note_on_c, 0, 70, 0
2,115187, Note_on_c, 0, 73, 0
2,115481, Note_on_c, 0, 73, 82
2,115482, Note_on_c, 0, 54, 63
2,115487, Control_c, 0, 64, 85
2,115489, Note_on_c, 0, 55, 0
2,115492, Note_on_c, 0, 64, 63
2,115501, Control_c, 0, 64, 67
2,115507, Note_on_c, 0, 69, 59
2,115517, Control_c, 0, 64, 42
2,115532, Control_c, 0, 64, 0
2,115651, Control_c, 0, 64, 41
2,115666, Control_c, 0, 64, 53
2,115682, Control_c, 0, 64, 58
2,115704, Control_c, 0, 64, 61
2,115720, Control_c, 0, 64, 64
2,115735, Control_c, 0, 64, 67
2,115750, Control_c, 0, 64, 74
2,115766, Control_c, 0, 64, 85
2,115780, Control_c, 0, 64, 109
2,115795, Control_c, 0, 64, 127
2,115977, Control_c, 0, 64, 102
2,115980, Note_on_c, 0, 69, 0
2,115989, Note_on_c, 0, 72, 83
2,115992, Control_c, 0, 64, 67
2,115994, Note_on_c, 0, 68, 71
2,115998, Note_on_c, 0, 63, 71
2,116008, Control_c, 0, 64, 0
2,116035, Note_on_c, 0, 73, 0
2,116098, Control_c, 0, 64, 38
2,116098, Note_on_c, 0, 64, 0
2,116113, Control_c, 0, 64, 56
2,116129, Control_c, 0, 64, 62
2,116144, Control_c, 0, 64, 65
2,116161, Control_c, 0, 64, 68
2,116176, Control_c, 0, 64, 76
2,116191, Control_c, 0, 64, 92
2,116197, Note_on_c, 0, 63, 0
2,116205, Note_on_c, 0, 54, 0
2,116206, Control_c, 0, 64, 127
2,116495, Note_on_c, 0, 73, 86
2,116501, Note_on_c, 0, 61, 69
2,116515, Note_on_c, 0, 52, 72
2,116517, Control_c, 0, 64, 103
2,116533, Control_c, 0, 64, 72
2,116537, Note_on_c, 0, 72, 0
2,116548, Control_c, 0, 64, 48
2,116564, Control_c, 0, 64, 0
2,116610, Control_c, 0, 64, 36
2,116624, Control_c, 0, 64, 58
2,116640, Control_c, 0, 64, 62
2,116655, Control_c, 0, 64, 63
2,116669, Control_c, 0, 64, 65
2,116685, Control_c, 0, 64, 68
2,116700, Control_c, 0, 64, 78
2,116715, Control_c, 0, 64, 92
2,116731, Control_c, 0, 64, 127
2,117063, Note_on_c, 0, 52, 0
2,117077, Note_on_c, 0, 75, 84
2,117088, Note_on_c, 0, 69, 76
2,117093, Note_on_c, 0, 54, 72
2,117111, Control_c, 0, 64, 98
2,117121, Note_on_c, 0, 68, 0
2,117127, Control_c, 0, 64, 70
2,117134, Note_on_c, 0, 73, 0
2,117142, Control_c, 0, 64, 51
2,117157, Control_c, 0, 64, 0
2,117363, Control_c, 0, 64, 22
2,117378, Control_c, 0, 64, 44
2,117393, Control_c, 0, 64, 52
2,117408, Control_c, 0, 64, 57
2,117423, Control_c, 0, 64, 61
2,117438, Control_c, 0, 64, 64
2,117454, Control_c, 0, 64, 68
2,117469, Control_c, 0, 64, 78
2,117485, Control_c, 0, 64, 105
2,117500, Control_c, 0, 64, 127
2,117610, Note_on_c, 0, 61, 0
2,117621, Control_c, 0, 64, 92
2,117625, Note_on_c, 0, 60, 62
2,117625, Note_on_c, 0, 68, 71
2,117630, Note_on_c, 0, 56, 56
2,117635, Control_c, 0, 64, 67
2,117651, Control_c, 0, 64, 0
2,117687, Note_on_c, 0, 69, 0
2,117709, Note_on_c, 0, 54, 0
2,117711, Control_c, 0, 64, 8
2,117727, Control_c, 0, 64, 51
2,117742, Control_c, 0, 64, 57
2,117757, Control_c, 0, 64, 60
2,117773, Control_c, 0, 64, 62
2,117789, Control_c, 0, 64, 63
2,117805, Control_c, 0, 64, 66
2,117819, Control_c, 0, 64, 68
2,117834, Control_c, 0, 64, 73
2,117848, Note_on_c, 0, 66, 85
2,117850, Control_c, 0, 64, 78
2,117865, Control_c, 0, 64, 82
2,117881, Control_c, 0, 64, 86
2,117895, Control_c, 0, 64, 89
2,117910, Control_c, 0, 64, 96
2,117926, Control_c, 0, 64, 112
2,117940, Control_c, 0, 64, 127
2,118122, Note_on_c, 0, 68, 0
2,118133, Note_on_c, 0, 64, 84
2,118153, Note_on_c, 0, 57, 69
2,118156, Note_on_c, 0, 66, 0
2,118161, Control_c, 0, 64, 87
2,118167, Note_on_c, 0, 61, 60
2,118176, Control_c, 0, 64, 65
2,118191, Control_c, 0, 64, 0
2,118195, Note_on_c, 0, 60, 0
2,118205, Note_on_c, 0, 56, 0
2,118313, Control_c, 0, 64, 35
2,118329, Control_c, 0, 64, 58
2,118344, Control_c, 0, 64, 64
2,118358, Control_c, 0, 64, 70
2,118358, Note_on_c, 0, 64, 0
2,118374, Control_c, 0, 64, 78
2,118389, Control_c, 0, 64, 89
2,118405, Control_c, 0, 64, 117
2,118420, Control_c, 0, 64, 127
2,118484, Note_on_c, 0, 75, 0
2,118627, Note_on_c, 0, 73, 87
2,118649, Note_on_c, 0, 66, 66
2,118821, Note_on_c, 0, 66, 0
2,118863, Note_on_c, 0, 68, 86
2,119139, Note_on_c, 0, 78, 92
2,119142, Control_c, 0, 64, 95
2,119157, Control_c, 0, 64, 64
2,119157, Note_on_c, 0, 73, 0
2,119163, Note_on_c, 0, 69, 67
2,119172, Control_c, 0, 64, 0
2,119192, Note_on_c, 0, 68, 0
2,119233, Control_c, 0, 64, 34
2,119249, Control_c, 0, 64, 60
2,119264, Control_c, 0, 64, 64
2,119278, Control_c, 0, 64, 67
2,119294, Control_c, 0, 64, 71
2,119309, Control_c, 0, 64, 82
2,119325, Control_c, 0, 64, 113
2,119334, Note_on_c, 0, 57, 0
2,119339, Control_c, 0, 64, 127
2,119374, Note_on_c, 0, 61, 0
2,119433, Note_on_c, 0, 69, 0
2,119657, Note_on_c, 0, 63, 72
2,119658, Note_on_c, 0, 56, 61
2,119882, Note_on_c, 0, 56, 0
2,119885, Note_on_c, 0, 54, 78
2,119922, Note_on_c, 0, 63, 0
2,120146, Note_on_c, 0, 68, 80
2,120148, Note_on_c, 0, 56, 66
2,120157, Note_on_c, 0, 60, 76
2,120163, Note_on_c, 0, 54, 0
2,120168, Control_c, 0, 64, 75
2,120182, Control_c, 0, 64, 29
2,120197, Control_c, 0, 64, 0
2,120274, Control_c, 0, 64, 52
2,120290, Control_c, 0, 64, 62
2,120312, Control_c, 0, 64, 66
2,120328, Control_c, 0, 64, 74
2,120343, Control_c, 0, 64, 95
2,120358, Control_c, 0, 64, 127
2,120380, Note_on_c, 0, 56, 0
2,120417, Note_on_c, 0, 78, 0
2,120637, Note_on_c, 0, 60, 0
2,120649, Note_on_c, 0, 76, 82
2,120657, Note_on_c, 0, 58, 72
2,120658, Note_on_c, 0, 61, 74
2,120787, Note_on_c, 0, 61, 0
2,120825, Note_on_c, 0, 58, 0
2,120857, Note_on_c, 0, 76, 0
2,120897, Note_on_c, 0, 75, 89
2,121249, Note_on_c, 0, 80, 92
2,121274, Note_on_c, 0, 62, 75
2,121278, Control_c, 0, 64, 108
2,121282, Note_on_c, 0, 59, 68
2,121294, Control_c, 0, 64, 72
2,121309, Control_c, 0, 64, 46
2,121324, Control_c, 0, 64, 0
2,121430, Control_c, 0, 64, 36
2,121446, Control_c, 0, 64, 57
2,121460, Control_c, 0, 64, 64
2,121475, Control_c, 0, 64, 68
2,121491, Control_c, 0, 64, 74
2,121506, Control_c, 0, 64, 88
2,121522, Control_c, 0, 64, 127
2,121524, Note_on_c, 0, 75, 0
2,121527, Note_on_c, 0, 68, 0
2,121530, Note_on_c, 0, 80, 0
2,121792, Note_on_c, 0, 78, 84
2,121795, Control_c, 0, 64, 80
2,121810, Control_c, 0, 64, 66
2,121825, Control_c, 0, 64, 60
2,121829, Note_on_c, 0, 69, 50
2,121848, Control_c, 0, 64, 61
2,121863, Control_c, 0, 64, 63
2,121878, Control_c, 0, 64, 67
2,121894, Control_c, 0, 64, 71
2,121909, Control_c, 0, 64, 77
2,121925, Control_c, 0, 64, 83
2,121940, Control_c, 0, 64, 91
2,121955, Control_c, 0, 64, 97
2,121961, Note_on_c, 0, 78, 0
2,121970, Control_c, 0, 64, 104
2,121980, Note_on_c, 0, 69, 0
2,121985, Control_c, 0, 64, 111
2,122001, Control_c, 0, 64, 127
2,122007, Note_on_c, 0, 62, 0
2,122028, Note_on_c, 0, 71, 79
2,122300, Note_on_c, 0, 77, 82
2,122303, Control_c, 0, 64, 80
2,122315, Note_on_c, 0, 71, 0
2,122318, Control_c, 0, 64, 61
2,122334, Control_c, 0, 64, 0
2,122345, Note_on_c, 0, 61, 45
2,122410, Control_c, 0, 64, 22
2,122425, Control_c, 0, 64, 51
2,122441, Control_c, 0, 64, 58
2,122449, Note_on_c, 0, 59, 0
2,122456, Control_c, 0, 64, 63
2,122471, Control_c, 0, 64, 67
2,122487, Control_c, 0, 64, 74
2,122501, Control_c, 0, 64, 87
2,122516, Control_c, 0, 64, 127
2,122589, Note_on_c, 0, 61, 0
2,122789, Note_on_c, 0, 63, 47
2,122797, Note_on_c, 0, 73, 72
2,122828, Note_on_c, 0, 58, 46
2,122838, Note_on_c, 0, 77, 0
2,122863, Note_on_c, 0, 63, 0
2,123018, Note_on_c, 0, 65, 79
2,123021, Note_on_c, 0, 58, 0
2,123026, Note_on_c, 0, 56, 66
2,123219, Note_on_c, 0, 65, 0
2,123247, Note_on_c, 0, 56, 0
2,123277, Note_on_c, 0, 78, 91
2,123292, Note_on_c, 0, 66, 72
2,123294, Note_on_c, 0, 58, 63
2,123295, Note_on_c, 0, 73, 0
2,123300, Control_c, 0, 64, 108
2,123315, Control_c, 0, 64, 77
2,123330, Control_c, 0, 64, 62
2,123345, Control_c, 0, 64, 0
2,123349, Note_on_c, 0, 66, 0
2,123509, Note_on_c, 0, 68, 76
2,123581, Control_c, 0, 64, 53
2,123596, Control_c, 0, 64, 67
2,123612, Control_c, 0, 64, 80
2,123627, Control_c, 0, 64, 127
2,123801, Note_on_c, 0, 75, 84
2,123819, Note_on_c, 0, 69, 53
2,123836, Note_on_c, 0, 68, 0
2,123841, Control_c, 0, 64, 81
2,123845, Note_on_c, 0, 60, 59
2,123856, Control_c, 0, 64, 64
2,123863, Note_on_c, 0, 58, 0
2,123871, Control_c, 0, 64, 0
2,124354, Note_on_c, 0, 60, 0
2,124381, Note_on_c, 0, 61, 62
2,124385, Note_on_c, 0, 73, 70
2,124472, Control_c, 0, 64, 48
2,124488, Control_c, 0, 64, 59
2,124502, Control_c, 0, 64, 64
2,124517, Control_c, 0, 64, 69
2,124533, Control_c, 0, 64, 85
2,124548, Control_c, 0, 64, 127
2,124611, Note_on_c, 0, 73, 0
2,124830, Note_on_c, 0, 69, 0
2,124841, Note_on_c, 0, 75, 0
2,124845, Note_on_c, 0, 78, 0
2,124902, Note_on_c, 0, 71, 76
2,124953, Note_on_c, 0, 68, 43
2,125140, Note_on_c, 0, 68, 0
2,125171, Note_on_c, 0, 66, 63
2,125180, Note_on_c, 0, 71, 0
2,125241, Note_on_c, 0, 66, 0
2,125509, Note_on_c, 0, 77, 84
2,125516, Note_on_c, 0, 71, 76
2,125530, Note_on_c, 0, 68, 63
2,125534, Note_on_c, 0, 49, 67
2,125544, Control_c, 0, 64, 77
2,125560, Control_c, 0, 64, 58
2,125574, Control_c, 0, 64, 0
2,125607, Note_on_c, 0, 61, 0
2,125633, Control_c, 0, 64, 53
2,125649, Control_c, 0, 64, 60
2,125664, Control_c, 0, 64, 62
2,125685, Control_c, 0, 64, 65
2,125701, Control_c, 0, 64, 68
2,125716, Control_c, 0, 64, 73
2,125732, Control_c, 0, 64, 87
2,125747, Control_c, 0, 64, 127
2,125780, Note_on_c, 0, 71, 0
2,125904, Note_on_c, 0, 68, 0
2,125996, Note_on_c, 0, 77, 0
2,126056, Note_on_c, 0, 71, 90
2,126535, Note_on_c, 0, 71, 0
2,126565, Note_on_c, 0, 70, 82
2,126575, Note_on_c, 0, 78, 75
2,126591, Control_c, 0, 64, 103
2,126595, Note_on_c, 0, 54, 64
2,126600, Note_on_c, 0, 66, 50
2,126605, Control_c, 0, 64, 69
2,126612, Note_on_c, 0, 49, 0
2,126621, Control_c, 0, 64, 0
2,126681, Note_on_c, 0, 66, 0
2,126697, Control_c, 0, 64, 54
2,126712, Control_c, 0, 64, 60
2,126728, Control_c, 0, 64, 63
2,126743, Control_c, 0, 64, 66
2,126758, Control_c, 0, 64, 70
2,126774, Control_c, 0, 64, 79
2,126786, Note_on_c, 0, 54, 0
2,126789, Control_c, 0, 64, 98
2,126804, Control_c, 0, 64, 127
2,126824, Note_on_c, 0, 53, 67
2,127042, Note_on_c, 0, 71, 92
2,127048, Control_c, 0, 64, 93
2,127049, Note_on_c, 0, 54, 69
2,127063, Control_c, 0, 64, 66
2,127067, Note_on_c, 0, 53, 0
2,127073, Note_on_c, 0, 70, 0
2,127077, Control_c, 0, 64, 37
2,127093, Control_c, 0, 64, 0
2,127123, Control_c, 0, 64, 42
2,127139, Control_c, 0, 64, 60
2,127154, Control_c, 0, 64, 64
2,127169, Control_c, 0, 64, 67
2,127184, Control_c, 0, 64, 70
2,127199, Control_c, 0, 64, 76
2,127223, Control_c, 0, 64, 87
2,127237, Control_c, 0, 64, 121
2,127253, Control_c, 0, 64, 127
2,127261, Note_on_c, 0, 54, 0
2,127288, Note_on_c, 0, 56, 81
2,127550, Note_on_c, 0, 73, 95
2,127553, Note_on_c, 0, 56, 0
2,127556, Control_c, 0, 64, 117
2,127572, Control_c, 0, 64, 77
2,127574, Note_on_c, 0, 58, 62
2,127582, Note_on_c, 0, 71, 0
2,127587, Control_c, 0, 64, 54
2,127602, Control_c, 0, 64, 0
2,127771, Control_c, 0, 64, 43
2,127786, Control_c, 0, 64, 53
2,127794, Note_on_c, 0, 54, 59
2,127800, Control_c, 0, 64, 58
2,127813, Note_on_c, 0, 58, 0
2,127816, Control_c, 0, 64, 61
2,127831, Control_c, 0, 64, 63
2,127847, Control_c, 0, 64, 67
2,127862, Control_c, 0, 64, 76
2,127876, Control_c, 0, 64, 94
2,127892, Control_c, 0, 64, 127
2,128058, Note_on_c, 0, 56, 61
2,128064, Note_on_c, 0, 76, 72
2,128082, Control_c, 0, 64, 94
2,128097, Control_c, 0, 64, 70
2,128112, Control_c, 0, 64, 50
2,128128, Control_c, 0, 64, 0
2,128143, Note_on_c, 0, 54, 0
2,128188, Control_c, 0, 64, 33
2,128203, Control_c, 0, 64, 54
2,128218, Control_c, 0, 64, 59
2,128233, Control_c, 0, 64, 63
2,128249, Control_c, 0, 64, 65
2,128264, Control_c, 0, 64, 70
2,128267, Note_on_c, 0, 56, 0
2,128279, Control_c, 0, 64, 80
2,128283, Note_on_c, 0, 58, 73
2,128294, Control_c, 0, 64, 98
2,128309, Control_c, 0, 64, 127
2,128500, Note_on_c, 0, 58, 0
2,128525, Note_on_c, 0, 75, 86
2,128538, Control_c, 0, 64, 100
2,128551, Note_on_c, 0, 59, 56
2,128553, Control_c, 0, 64, 70
2,128569, Control_c, 0, 64, 42
2,128584, Control_c, 0, 64, 0
2,128617, Note_on_c, 0, 76, 0
2,128629, Control_c, 0, 64, 40
2,128644, Control_c, 0, 64, 61
2,128660, Control_c, 0, 64, 64
2,128675, Control_c, 0, 64, 67
2,128684, Note_on_c, 0, 59, 0
2,128691, Control_c, 0, 64, 70
2,128706, Control_c, 0, 64, 76
2,128720, Control_c, 0, 64, 88
2,128736, Control_c, 0, 64, 127
2,128772, Note_on_c, 0, 61, 82
2,128977, Note_on_c, 0, 61, 0
2,129002, Note_on_c, 0, 71, 96
2,129017, Note_on_c, 0, 63, 73
2,129019, Note_on_c, 0, 75, 0
2,129032, Note_on_c, 0, 73, 0
2,129175, Note_on_c, 0, 63, 0
2,129249, Note_on_c, 0, 59, 80
2,129534, Note_on_c, 0, 59, 0
2,129548, Note_on_c, 0, 76, 92
2,129550, Note_on_c, 0, 71, 0
2,129570, Note_on_c, 0, 61, 74
2,129573, Control_c, 0, 64, 121
2,129588, Control_c, 0, 64, 73
2,129604, Control_c, 0, 64, 0
2,129680, Control_c, 0, 64, 45
2,129695, Control_c, 0, 64, 60
2,129709, Control_c, 0, 64, 64
2,129725, Control_c, 0, 64, 69
2,129740, Control_c, 0, 64, 77
2,129755, Control_c, 0, 64, 97
2,129771, Control_c, 0, 64, 127
2,129781, Note_on_c, 0, 61, 0
2,129830, Note_on_c, 0, 59, 61
2,130041, Note_on_c, 0, 59, 0
2,130077, Note_on_c, 0, 73, 71
2,130083, Note_on_c, 0, 58, 57
2,130293, Note_on_c, 0, 73, 0
2,130305, Note_on_c, 0, 71, 86
2,130316, Note_on_c, 0, 58, 0
2,130325, Note_on_c, 0, 56, 68
2,130534, Note_on_c, 0, 56, 0
2,130546, Note_on_c, 0, 70, 95
2,130561, Note_on_c, 0, 54, 76
2,130575, Note_on_c, 0, 71, 0
2,130584, Control_c, 0, 64, 124
2,130600, Control_c, 0, 64, 74
2,130615, Control_c, 0, 64, 43
2,130630, Control_c, 0, 64, 0
2,130705, Note_on_c, 0, 76, 0
2,130722, Control_c, 0, 64, 29
2,130737, Control_c, 0, 64, 57
2,130744, Note_on_c, 0, 54, 0
2,130751, Control_c, 0, 64, 63
2,130767, Control_c, 0, 64, 70
2,130780, Note_on_c, 0, 56, 80
2,130782, Control_c, 0, 64, 85
2,130797, Control_c, 0, 64, 127
2,130998, Note_on_c, 0, 75, 83
2,131001, Note_on_c, 0, 54, 73
2,131013, Note_on_c, 0, 56, 0
2,131041, Note_on_c, 0, 54, 0
2,131083, Note_on_c, 0, 70, 0
2,131200, Note_on_c, 0, 78, 0
2,131212, Note_on_c, 0, 75, 0
2,131232, Note_on_c, 0, 73, 89
2,131267, Note_on_c, 0, 52, 72
2,131275, Note_on_c, 0, 73, 0
2,131490, Note_on_c, 0, 52, 0
2,131503, Note_on_c, 0, 78, 96
2,131504, Note_on_c, 0, 82, 88
2,131531, Note_on_c, 0, 51, 85
2,131550, Control_c, 0, 64, 98
2,131566, Control_c, 0, 64, 68
2,131581, Control_c, 0, 64, 35
2,131595, Control_c, 0, 64, 0
2,131641, Control_c, 0, 64, 13
2,131656, Control_c, 0, 64, 57
2,131671, Control_c, 0, 64, 63
2,131687, Control_c, 0, 64, 68
2,131702, Control_c, 0, 64, 74
2,131711, Note_on_c, 0, 51, 0
2,131718, Control_c, 0, 64, 93
2,131734, Control_c, 0, 64, 127
2,131747, Note_on_c, 0, 49, 82
2,131955, Note_on_c, 0, 49, 0
2,131972, Note_on_c, 0, 76, 99
2,131985, Note_on_c, 0, 47, 77
2,131997, Note_on_c, 0, 78, 0
2,131997, Note_on_c, 0, 78, 6
2,132031, Note_on_c, 0, 78, 0
2,132141, Note_on_c, 0, 47, 0
2,132209, Note_on_c, 0, 46, 80
2,132353, Note_on_c, 0, 46, 0
2,132455, Control_c, 0, 64, 77
2,132456, Note_on_c, 0, 75, 98
2,132470, Control_c, 0, 64, 47
2,132472, Note_on_c, 0, 47, 93
2,132485, Control_c, 0, 64, 0
2,132499, Note_on_c, 0, 82, 0
2,132508, Note_on_c, 0, 76, 0
2,132523, Note_on_c, 0, 47, 0
2,132531, Control_c, 0, 64, 55
2,132547, Control_c, 0, 64, 69
2,132563, Control_c, 0, 64, 91
2,132578, Control_c, 0, 64, 127
2,132974, Note_on_c, 0, 63, 88
2,132988, Note_on_c, 0, 80, 72
2,132995, Note_on_c, 0, 75, 0
2,133001, Note_on_c, 0, 59, 61
2,133221, Note_on_c, 0, 59, 0
2,133222, Note_on_c, 0, 80, 0
2,133224, Note_on_c, 0, 58, 82
2,133230, Note_on_c, 0, 79, 83
2,133231, Note_on_c, 0, 63, 0
2,133504, Note_on_c, 0, 58, 0
2,133524, Note_on_c, 0, 63, 91
2,133530, Note_on_c, 0, 80, 73
2,133538, Note_on_c, 0, 59, 61
2,133554, Note_on_c, 0, 79, 0
2,133566, Control_c, 0, 64, 90
2,133581, Control_c, 0, 64, 65
2,133595, Control_c, 0, 64, 0
2,133656, Control_c, 0, 64, 53
2,133671, Control_c, 0, 64, 64
2,133687, Control_c, 0, 64, 69
2,133703, Control_c, 0, 64, 76
2,133717, Control_c, 0, 64, 87
2,133733, Control_c, 0, 64, 119
2,133748, Control_c, 0, 64, 127
2,133784, Note_on_c, 0, 63, 0
2,133857, Note_on_c, 0, 59, 0
2,133997, Note_on_c, 0, 68, 80
2,134008, Note_on_c, 0, 63, 89
2,134029, Note_on_c, 0, 61, 62
2,134181, Note_on_c, 0, 61, 0
2,134241, Note_on_c, 0, 59, 69
2,134469, Note_on_c, 0, 59, 0
2,134492, Note_on_c, 0, 61, 89
2,134494, Note_on_c, 0, 58, 58
2,134511, Note_on_c, 0, 70, 73
2,134516, Control_c, 0, 64, 116
2,134527, Note_on_c, 0, 63, 0
2,134532, Control_c, 0, 64, 77
2,134544, Note_on_c, 0, 68, 0
2,134547, Control_c, 0, 64, 58
2,134562, Control_c, 0, 64, 0
2,134622, Control_c, 0, 64, 39
2,134637, Control_c, 0, 64, 59
2,134653, Control_c, 0, 64, 63
2,134668, Control_c, 0, 64, 65
2,134684, Control_c, 0, 64, 68
2,134698, Control_c, 0, 64, 73
2,134713, Control_c, 0, 64, 82
2,134729, Control_c, 0, 64, 95
2,134744, Control_c, 0, 64, 115
2,134759, Control_c, 0, 64, 127
2,134984, Note_on_c, 0, 63, 86
2,135002, Note_on_c, 0, 71, 64
2,135027, Note_on_c, 0, 70, 0
2,135141, Note_on_c, 0, 61, 0
2,135196, Note_on_c, 0, 63, 0
2,135226, Note_on_c, 0, 58, 0
2,135553, Note_on_c, 0, 64, 90
2,135573, Control_c, 0, 64, 86
2,135577, Note_on_c, 0, 73, 56
2,135579, Note_on_c, 0, 57, 61
2,135588, Control_c, 0, 64, 64
2,135604, Control_c, 0, 64, 0
2,135618, Note_on_c, 0, 71, 0
2,135702, Control_c, 0, 64, 37
2,135717, Control_c, 0, 64, 52
2,135733, Control_c, 0, 64, 60
2,135747, Control_c, 0, 64, 63
2,135763, Control_c, 0, 64, 66
2,135778, Control_c, 0, 64, 70
2,135793, Control_c, 0, 64, 79
2,135809, Control_c, 0, 64, 94
2,135818, Note_on_c, 0, 80, 0
2,135825, Control_c, 0, 64, 127
2,136029, Note_on_c, 0, 64, 0
2,136055, Note_on_c, 0, 57, 0
2,136067, Note_on_c, 0, 79, 83
2,136602, Note_on_c, 0, 56, 81
2,136625, Note_on_c, 0, 80, 73
2,136638, Control_c, 0, 64, 95
2,136654, Control_c, 0, 64, 67
2,136654, Note_on_c, 0, 79, 0
2,136669, Control_c, 0, 64, 0
2,136730, Control_c, 0, 64, 13
2,136744, Control_c, 0, 64, 57
2,136759, Control_c, 0, 64, 63
2,136775, Control_c, 0, 64, 67
2,136790, Control_c, 0, 64, 73
2,136806, Control_c, 0, 64, 86
2,136820, Control_c, 0, 64, 127
2,136828, Note_on_c, 0, 73, 0
2,136857, Note_on_c, 0, 73, 9
2,137131, Note_on_c, 0, 71, 73
2,137139, Note_on_c, 0, 63, 90
2,137393, Note_on_c, 0, 70, 92
2,137436, Note_on_c, 0, 71, 0
2,137473, Note_on_c, 0, 70, 0
2,137550, Note_on_c, 0, 63, 0
2,137585, Note_on_c, 0, 56, 0
2,137706, Note_on_c, 0, 80, 0
2,137707, Note_on_c, 0, 68, 98
2,137714, Note_on_c, 0, 73, 0
2,137717, Note_on_c, 0, 71, 84
2,137755, Control_c, 0, 64, 83
2,137771, Control_c, 0, 64, 67
2,137785, Control_c, 0, 64, 61
2,137801, Control_c, 0, 64, 61
2,137816, Control_c, 0, 64, 64
2,137831, Control_c, 0, 64, 69
2,137847, Control_c, 0, 64, 79
2,137864, Control_c, 0, 64, 96
2,137880, Control_c, 0, 64, 127
2,137980, Note_on_c, 0, 54, 70
2,138061, Note_on_c, 0, 54, 0
2,138198, Note_on_c, 0, 78, 89
2,138216, Note_on_c, 0, 53, 52
2,138406, Note_on_c, 0, 78, 0
2,138419, Note_on_c, 0, 53, 0
2,138447, Note_on_c, 0, 51, 85
2,138668, Note_on_c, 0, 51, 0
2,138704, Note_on_c, 0, 77, 88
2,138714, Note_on_c, 0, 50, 77
2,138723, Control_c, 0, 64, 73
2,138745, Control_c, 0, 64, 43
2,138761, Control_c, 0, 64, 0
2,138852, Control_c, 0, 64, 35
2,138866, Control_c, 0, 64, 59
2,138880, Note_on_c, 0, 71, 0
2,138882, Control_c, 0, 64, 66
2,138897, Control_c, 0, 64, 73
2,138912, Control_c, 0, 64, 91
2,138926, Note_on_c, 0, 68, 0
2,138928, Control_c, 0, 64, 127
2,139190, Note_on_c, 0, 66, 87
2,139212, Note_on_c, 0, 70, 54
2,139271, Note_on_c, 0, 70, 0
2,139290, Note_on_c, 0, 66, 0
2,139429, Note_on_c, 0, 65, 90
2,139434, Note_on_c, 0, 68, 77
2,139492, Note_on_c, 0, 68, 0
2,139551, Note_on_c, 0, 65, 0
2,139734, Note_on_c, 0, 70, 87
2,139757, Control_c, 0, 64, 86
2,139772, Control_c, 0, 64, 63
2,139787, Control_c, 0, 64, 0
2,139847, Control_c, 0, 64, 40
2,139862, Control_c, 0, 64, 62
2,139878, Control_c, 0, 64, 65
2,139892, Control_c, 0, 64, 68
2,139908, Control_c, 0, 64, 72
2,139924, Control_c, 0, 64, 79
2,139939, Control_c, 0, 64, 91
2,139955, Control_c, 0, 64, 114
2,139970, Control_c, 0, 64, 127
2,140189, Note_on_c, 0, 50, 0
2,140248, Note_on_c, 0, 68, 74
2,140256, Note_on_c, 0, 48, 50
2,140496, Note_on_c, 0, 46, 55
2,140510, Note_on_c, 0, 48, 0
2,140683, Note_on_c, 0, 68, 0
2,140754, Control_c, 0, 64, 90
2,140769, Control_c, 0, 64, 65
2,140770, Note_on_c, 0, 66, 70
2,140783, Control_c, 0, 64, 0
2,140786, Note_on_c, 0, 51, 60
2,140860, Control_c, 0, 64, 50
2,140876, Control_c, 0, 64, 58
2,140877, Note_on_c, 0, 77, 0
2,140891, Control_c, 0, 64, 61
2,140905, Control_c, 0, 64, 63
2,140921, Control_c, 0, 64, 66
2,140923, Note_on_c, 0, 46, 0
2,140936, Control_c, 0, 64, 70
2,140951, Control_c, 0, 64, 78
2,140966, Control_c, 0, 64, 91
2,140981, Control_c, 0, 64, 127
2,141280, Note_on_c, 0, 75, 75
2,141294, Note_on_c, 0, 70, 0
2,141311, Note_on_c, 0, 39, 52
2,141348, Note_on_c, 0, 66, 0
2,141406, Note_on_c, 0, 75, 0
2,141515, Note_on_c, 0, 73, 79
2,141530, Note_on_c, 0, 51, 0
2,141550, Note_on_c, 0, 65, 35
2,141554, Note_on_c, 0, 73, 0
2,141584, Note_on_c, 0, 65, 0
2,141843, Note_on_c, 0, 71, 68
2,141850, Control_c, 0, 64, 83
2,141853, Note_on_c, 0, 63, 57
2,141859, Note_on_c, 0, 66, 52
2,141865, Control_c, 0, 64, 65
2,141881, Control_c, 0, 64, 0
2,141884, Note_on_c, 0, 51, 43
2,141957, Control_c, 0, 64, 25
2,141972, Control_c, 0, 64, 51
2,141988, Control_c, 0, 64, 58
2,142003, Control_c, 0, 64, 62
2,142014, Note_on_c, 0, 39, 0
2,142017, Control_c, 0, 64, 65
2,142033, Control_c, 0, 64, 70
2,142048, Control_c, 0, 64, 77
2,142063, Control_c, 0, 64, 85
2,142063, Note_on_c, 0, 63, 0
2,142063, Note_on_c, 0, 66, 0
2,142079, Control_c, 0, 64, 99
2,142093, Control_c, 0, 64, 127
2,142185, Note_on_c, 0, 51, 0
2,142336, Control_c, 0, 64, 121
2,142339, Note_on_c, 0, 70, 65
2,142340, Note_on_c, 0, 71, 0
2,142352, Control_c, 0, 64, 80
2,142352, Note_on_c, 0, 65, 57
2,142356, Note_on_c, 0, 61, 48
2,142368, Control_c, 0, 64, 63
2,142372, Note_on_c, 0, 53, 47
2,142383, Control_c, 0, 64, 0
2,142458, Control_c, 0, 64, 34
2,142474, Control_c, 0, 64, 54
2,142489, Control_c, 0, 64, 60
2,142495, Note_on_c, 0, 61, 0
2,142504, Control_c, 0, 64, 64
2,142520, Control_c, 0, 64, 67
2,142524, Note_on_c, 0, 65, 0
2,142535, Control_c, 0, 64, 73
2,142550, Control_c, 0, 64, 83
2,142565, Control_c, 0, 64, 100
2,142589, Control_c, 0, 64, 127
2,142683, Note_on_c, 0, 70, 0
2,142920, Note_on_c, 0, 53, 0
2,142937, Control_c, 0, 64, 105
2,142947, Note_on_c, 0, 69, 57
2,142950, Note_on_c, 0, 54, 50
2,142953, Control_c, 0, 64, 80
2,142954, Note_on_c, 0, 63, 51
2,142968, Control_c, 0, 64, 66
2,142974, Note_on_c, 0, 60, 38
2,142983, Control_c, 0, 64, 43
2,142998, Control_c, 0, 64, 0
2,143074, Control_c, 0, 64, 41
2,143089, Control_c, 0, 64, 52
2,143104, Control_c, 0, 64, 57
2,143120, Control_c, 0, 64, 60
2,143135, Control_c, 0, 64, 63
2,143150, Control_c, 0, 64, 66
2,143165, Control_c, 0, 64, 70
2,143180, Control_c, 0, 64, 75
2,143197, Control_c, 0, 64, 80
2,143212, Control_c, 0, 64, 85
2,143227, Control_c, 0, 64, 89
2,143242, Control_c, 0, 64, 91
2,143257, Control_c, 0, 64, 92
2,143260, Note_on_c, 0, 63, 0
2,143273, Control_c, 0, 64, 92
2,143274, Note_on_c, 0, 65, 66
2,143288, Control_c, 0, 64, 94
2,143302, Control_c, 0, 64, 97
2,143318, Control_c, 0, 64, 100
2,143333, Control_c, 0, 64, 101
2,143357, Control_c, 0, 64, 106
2,143363, Note_on_c, 0, 54, 0
2,143371, Control_c, 0, 64, 127
2,143387, Note_on_c, 0, 69, 0
2,143430, Note_on_c, 0, 60, 0
2,143508, Control_c, 0, 64, 100
2,143523, Control_c, 0, 64, 87
2,143528, Note_on_c, 0, 53, 51
2,143535, Note_on_c, 0, 66, 73
2,143538, Control_c, 0, 64, 83
2,143551, Note_on_c, 0, 65, 0
2,143614, Control_c, 0, 64, 85
2,143630, Control_c, 0, 64, 88
2,143645, Control_c, 0, 64, 92
2,143660, Control_c, 0, 64, 94
2,143675, Control_c, 0, 64, 95
2,143705, Control_c, 0, 64, 96
2,143747, Note_on_c, 0, 51, 68
2,143779, Note_on_c, 0, 53, 0
2,143797, Control_c, 0, 64, 96
2,143812, Control_c, 0, 64, 102
2,143828, Control_c, 0, 64, 127
2,143964, Control_c, 0, 64, 93
2,143964, Note_on_c, 0, 51, 0
2,143979, Control_c, 0, 64, 68
2,143988, Note_on_c, 0, 66, 0
2,143990, Note_on_c, 0, 70, 66
2,143994, Control_c, 0, 64, 37
2,144010, Control_c, 0, 64, 0
2,144016, Note_on_c, 0, 65, 52
2,144023, Note_on_c, 0, 49, 59
2,144031, Note_on_c, 0, 61, 47
2,144216, Note_on_c, 0, 49, 0
2,144244, Note_on_c, 0, 48, 59
2,144291, Control_c, 0, 64, 38
2,144307, Control_c, 0, 64, 53
2,144307, Control_c, 0, 67, 39
2,144322, Control_c, 0, 64, 59
2,144322, Control_c, 0, 67, 77
2,144337, Control_c, 0, 64, 62
2,144337, Control_c, 0, 67, 112
2,144352, Control_c, 0, 64, 64
2,144352, Control_c, 0, 67, 127
2,144367, Control_c, 0, 64, 66
2,144382, Control_c, 0, 64, 69
2,144398, Control_c, 0, 64, 73
2,144413, Control_c, 0, 64, 74
2,144458, Control_c, 0, 64, 71
2,144473, Control_c, 0, 64, 65
2,144482, Note_on_c, 0, 65, 0
2,144485, Note_on_c, 0, 46, 54
2,144485, Note_on_c, 0, 66, 59
2,144488, Control_c, 0, 64, 52
2,144498, Note_on_c, 0, 48, 0
2,144503, Control_c, 0, 64, 0
2,144676, Note_on_c, 0, 46, 0
2,144701, Control_c, 0, 64, 40
2,144717, Control_c, 0, 64, 56
2,144732, Control_c, 0, 64, 60
2,144737, Note_on_c, 0, 64, 64
2,144740, Note_on_c, 0, 49, 50
2,144747, Control_c, 0, 64, 62
2,144762, Control_c, 0, 64, 64
2,144777, Control_c, 0, 64, 67
2,144793, Control_c, 0, 64, 71
2,144798, Note_on_c, 0, 66, 0
2,144808, Control_c, 0, 64, 76
2,144814, Note_on_c, 0, 61, 0
2,144823, Control_c, 0, 64, 83
2,144838, Control_c, 0, 64, 88
2,144852, Control_c, 0, 64, 92
2,144867, Control_c, 0, 64, 95
2,144890, Control_c, 0, 64, 96
2,144905, Control_c, 0, 64, 97
2,144921, Control_c, 0, 64, 97
2,144936, Control_c, 0, 64, 100
2,144950, Control_c, 0, 64, 102
2,144966, Control_c, 0, 64, 104
2,144981, Control_c, 0, 64, 104
2,145061, Note_on_c, 0, 64, 0
2,145072, Control_c, 0, 64, 104
2,145085, Note_on_c, 0, 60, 68
2,145088, Control_c, 0, 64, 98
2,145088, Note_on_c, 0, 65, 50
2,145103, Control_c, 0, 64, 88
2,145118, Control_c, 0, 64, 77
2,145127, Note_on_c, 0, 41, 49
2,145133, Control_c, 0, 64, 67
2,145145, Note_on_c, 0, 49, 0
2,145148, Control_c, 0, 64, 51
2,145164, Control_c, 0, 64, 0
2,145587, Control_c, 0, 64, 15
2,145590, Note_on_c, 0, 61, 57
2,145598, Note_on_c, 0, 60, 0
2,145602, Control_c, 0, 64, 46
2,145617, Control_c, 0, 64, 56
2,145632, Control_c, 0, 64, 61
2,145656, Control_c, 0, 64, 64
2,145671, Control_c, 0, 64, 67
2,145687, Control_c, 0, 64, 71
2,145701, Control_c, 0, 64, 77
2,145716, Control_c, 0, 64, 85
2,145732, Control_c, 0, 64, 95
2,145746, Control_c, 0, 64, 106
2,145762, Control_c, 0, 64, 127
2,145788, Note_on_c, 0, 70, 0
2,145845, Note_on_c, 0, 58, 62
2,145942, Note_on_c, 0, 58, 0
2,146199, Note_on_c, 0, 69, 64
2,146205, Note_on_c, 0, 60, 51
2,146232, Control_c, 0, 64, 91
2,146248, Control_c, 0, 64, 74
2,146248, Note_on_c, 0, 61, 0
2,146256, Note_on_c, 0, 65, 0
2,146263, Control_c, 0, 64, 62
2,146278, Control_c, 0, 64, 0
2,146733, Note_on_c, 0, 63, 51
2,146743, Control_c, 0, 64, 41
2,146758, Control_c, 0, 64, 56
2,146774, Control_c, 0, 64, 61
2,146789, Control_c, 0, 64, 65
2,146804, Control_c, 0, 64, 68
2,146805, Note_on_c, 0, 60, 0
2,146819, Control_c, 0, 64, 74
2,146834, Control_c, 0, 64, 87
2,146850, Control_c, 0, 64, 110
2,146857, Note_on_c, 0, 69, 0
2,146865, Control_c, 0, 64, 127
2,146975, Note_on_c, 0, 41, 0
2,147325, Note_on_c, 0, 70, 62
2,147329, Control_c, 0, 64, 98
2,147336, Note_on_c, 0, 61, 54
2,147344, Control_c, 0, 64, 75
2,147345, Note_on_c, 0, 58, 47
2,147359, Control_c, 0, 64, 58
2,147369, Note_on_c, 0, 46, 38
2,147375, Control_c, 0, 64, 0
2,147394, Note_on_c, 0, 63, 0
2,147434, Control_c, 0, 64, 41
2,147450, Control_c, 0, 64, 57
2,147465, Control_c, 0, 64, 62
2,147481, Control_c, 0, 64, 65
2,147481, Note_on_c, 0, 46, 0
2,147496, Control_c, 0, 64, 68
2,147510, Control_c, 0, 64, 72
2,147527, Control_c, 0, 64, 77
2,147542, Control_c, 0, 64, 83
2,147557, Control_c, 0, 64, 89
2,147573, Control_c, 0, 64, 96
2,147587, Control_c, 0, 64, 101
2,147590, Note_on_c, 0, 58, 0
2,147603, Control_c, 0, 64, 103
2,147618, Control_c, 0, 64, 103
2,147999, Note_on_c, 0, 63, 58
2,148033, Note_on_c, 0, 61, 0
2,148039, Note_on_c, 0, 60, 61
2,148446, Control_c, 0, 64, 102
2,148461, Control_c, 0, 64, 99
2,148476, Control_c, 0, 64, 96
2,148491, Control_c, 0, 64, 92
2,148506, Control_c, 0, 64, 88
2,148516, Note_on_c, 0, 63, 0
2,148519, Note_on_c, 0, 65, 62
2,148522, Control_c, 0, 64, 83
2,148529, Note_on_c, 0, 61, 66
2,148537, Control_c, 0, 64, 78
2,148552, Control_c, 0, 64, 72
2,148554, Note_on_c, 0, 60, 0
2,148567, Control_c, 0, 64, 66
2,148582, Control_c, 0, 64, 59
2,148597, Control_c, 0, 64, 33
2,148612, Control_c, 0, 64, 0
2,149003, Note_on_c, 0, 65, 0
2,149017, Note_on_c, 0, 64, 65
2,149028, Note_on_c, 0, 68, 64
2,149185, Note_on_c, 0, 70, 0
2,149198, Control_c, 0, 64, 26
2,149214, Control_c, 0, 64, 49
2,149229, Control_c, 0, 64, 57
2,149245, Control_c, 0, 64, 61
2,149259, Control_c, 0, 64, 64
2,149274, Control_c, 0, 64, 66
2,149290, Control_c, 0, 64, 68
2,149305, Control_c, 0, 64, 72
2,149321, Control_c, 0, 64, 78
2,149335, Control_c, 0, 64, 85
2,149350, Control_c, 0, 64, 92
2,149366, Control_c, 0, 64, 97
2,149381, Control_c, 0, 64, 101
2,149396, Control_c, 0, 64, 103
2,149411, Control_c, 0, 64, 103
2,149426, Control_c, 0, 64, 104
2,149571, Control_c, 0, 64, 98
2,149586, Control_c, 0, 64, 84
2,149589, Note_on_c, 0, 68, 0
2,149597, Note_on_c, 0, 67, 64
2,149602, Control_c, 0, 64, 71
2,149616, Control_c, 0, 64, 58
2,149624, Note_on_c, 0, 64, 0
2,149631, Control_c, 0, 64, 0
2,149631, Note_on_c, 0, 63, 39
2,149754, Control_c, 0, 64, 43
2,149769, Control_c, 0, 64, 56
2,149784, Control_c, 0, 64, 60
2,149799, Control_c, 0, 64, 62
2,149815, Control_c, 0, 64, 64
2,149830, Control_c, 0, 64, 68
2,149845, Control_c, 0, 64, 75
2,149860, Control_c, 0, 64, 84
2,149875, Control_c, 0, 64, 95
2,149891, Control_c, 0, 64, 104
2,149906, Control_c, 0, 64, 124
2,149921, Control_c, 0, 64, 127
2,149961, Note_on_c, 0, 67, 0
2,150229, Note_on_c, 0, 73, 73
2,150284, Note_on_c, 0, 55, 37
2,150448, Note_on_c, 0, 73, 0
2,150495, Note_on_c, 0, 61, 0
2,150765, Note_on_c, 0, 56, 54
2,150770, Note_on_c, 0, 71, 68
2,150795, Note_on_c, 0, 55, 0
2,150853, Note_on_c, 0, 63, 0
2,150932, Control_c, 0, 67, 118
2,150947, Control_c, 0, 67, 88
2,150963, Control_c, 0, 67, 44
2,150978, Control_c, 0, 67, 0
2,151077, Note_on_c, 0, 71, 0
2,151273, Note_on_c, 0, 70, 71
2,151285, Note_on_c, 0, 58, 62
2,151287, Note_on_c, 0, 56, 0
2,151290, Note_on_c, 0, 61, 60
2,151304, Control_c, 0, 64, 94
2,151319, Control_c, 0, 64, 72
2,151335, Control_c, 0, 64, 57
2,151349, Control_c, 0, 64, 0
2,151412, Control_c, 0, 64, 34
2,151427, Control_c, 0, 64, 51
2,151443, Control_c, 0, 64, 56
2,151457, Control_c, 0, 64, 59
2,151472, Control_c, 0, 64, 62
2,151488, Control_c, 0, 64, 65
2,151503, Control_c, 0, 64, 69
2,151518, Control_c, 0, 64, 76
2,151533, Control_c, 0, 64, 84
2,151548, Control_c, 0, 64, 95
2,151564, Control_c, 0, 64, 110
2,151579, Control_c, 0, 64, 127
2,151796, Note_on_c, 0, 51, 70
2,151814, Control_c, 0, 64, 81
2,151820, Note_on_c, 0, 59, 51
2,151829, Control_c, 0, 64, 64
2,151830, Note_on_c, 0, 58, 0
2,151845, Control_c, 0, 64, 29
2,151860, Control_c, 0, 64, 0
2,151921, Control_c, 0, 64, 42
2,151936, Control_c, 0, 64, 49
2,151950, Control_c, 0, 64, 53
2,151966, Control_c, 0, 64, 57
2,151981, Control_c, 0, 64, 60
2,151995, Control_c, 0, 64, 63
2,152011, Control_c, 0, 64, 67
2,152026, Control_c, 0, 64, 71
2,152042, Control_c, 0, 64, 78
2,152057, Control_c, 0, 64, 88
2,152072, Control_c, 0, 64, 101
2,152088, Control_c, 0, 64, 124
2,152103, Control_c, 0, 64, 127
2,152304, Note_on_c, 0, 56, 63
2,152316, Control_c, 0, 64, 96
2,152316, Note_on_c, 0, 68, 68
2,152332, Control_c, 0, 64, 68
2,152343, Note_on_c, 0, 70, 0
2,152347, Control_c, 0, 64, 38
2,152363, Control_c, 0, 64, 0
2,152376, Note_on_c, 0, 51, 0
2,152468, Control_c, 0, 64, 40
2,152484, Control_c, 0, 64, 58
2,152499, Control_c, 0, 64, 63
2,152513, Control_c, 0, 64, 67
2,152529, Control_c, 0, 64, 71
2,152544, Control_c, 0, 64, 82
2,152568, Control_c, 0, 64, 103
2,152583, Control_c, 0, 64, 127
2,152827, Note_on_c, 0, 58, 59
2,152837, Note_on_c, 0, 73, 76
2,152855, Control_c, 0, 64, 114
2,152863, Note_on_c, 0, 59, 0
2,152870, Control_c, 0, 64, 75
2,152878, Note_on_c, 0, 61, 0
2,152886, Control_c, 0, 64, 59
2,152901, Control_c, 0, 64, 0
2,152932, Control_c, 0, 64, 29
2,152946, Control_c, 0, 64, 55
2,152962, Control_c, 0, 64, 62
2,152977, Control_c, 0, 64, 63
2,152992, Control_c, 0, 64, 65
2,153008, Control_c, 0, 64, 68
2,153023, Control_c, 0, 64, 75
2,153038, Control_c, 0, 64, 92
2,153054, Control_c, 0, 64, 127
2,153314, Note_on_c, 0, 55, 71
2,153316, Note_on_c, 0, 70, 69
2,153359, Note_on_c, 0, 68, 0
2,153366, Control_c, 0, 64, 85
2,153369, Note_on_c, 0, 56, 0
2,153381, Control_c, 0, 64, 66
2,153396, Control_c, 0, 64, 13
2,153412, Control_c, 0, 64, 0
2,153472, Control_c, 0, 64, 40
2,153487, Control_c, 0, 64, 55
2,153502, Control_c, 0, 64, 60
2,153517, Control_c, 0, 64, 63
2,153533, Control_c, 0, 64, 65
2,153548, Control_c, 0, 64, 69
2,153563, Control_c, 0, 64, 77
2,153578, Control_c, 0, 64, 92
2,153593, Control_c, 0, 64, 127
2,153837, Note_on_c, 0, 58, 0
2,153852, Note_on_c, 0, 59, 72
2,153864, Note_on_c, 0, 63, 63
2,153883, Control_c, 0, 64, 90
2,153892, Note_on_c, 0, 70, 0
2,153898, Control_c, 0, 64, 67
2,153912, Control_c, 0, 64, 0
2,154051, Control_c, 0, 64, 15
2,154065, Control_c, 0, 64, 48
2,154081, Control_c, 0, 64, 57
2,154103, Control_c, 0, 64, 61
2,154117, Control_c, 0, 64, 63
2,154133, Control_c, 0, 64, 66
2,154141, Note_on_c, 0, 55, 0
2,154148, Control_c, 0, 64, 70
2,154164, Control_c, 0, 64, 77
2,154179, Control_c, 0, 64, 88
2,154194, Control_c, 0, 64, 110
2,154210, Control_c, 0, 64, 127
2,154332, Note_on_c, 0, 73, 0
2,154350, Note_on_c, 0, 63, 0
2,154362, Note_on_c, 0, 71, 65
2,154372, Note_on_c, 0, 68, 54
2,154534, Note_on_c, 0, 71, 0
2,154542, Note_on_c, 0, 68, 0
2,154585, Note_on_c, 0, 70, 78
2,154597, Note_on_c, 0, 67, 65
2,154773, Note_on_c, 0, 70, 0
2,154826, Note_on_c, 0, 67, 0
2,154862, Note_on_c, 0, 71, 90
2,154869, Note_on_c, 0, 68, 80
2,154916, Control_c, 0, 64, 87
2,154932, Control_c, 0, 64, 67
2,154947, Control_c, 0, 64, 44
2,154963, Control_c, 0, 64, 0
2,155008, Control_c, 0, 64, 46
2,155018, Note_on_c, 0, 71, 0
2,155023, Control_c, 0, 64, 59
2,155037, Control_c, 0, 64, 63
2,155053, Control_c, 0, 64, 64
2,155068, Control_c, 0, 64, 65
2,155084, Control_c, 0, 64, 67
2,155099, Control_c, 0, 64, 70
2,155114, Control_c, 0, 64, 73
2,155130, Control_c, 0, 64, 78
2,155145, Control_c, 0, 64, 82
2,155161, Control_c, 0, 64, 86
2,155175, Control_c, 0, 64, 87
2,155190, Control_c, 0, 64, 89
2,155206, Control_c, 0, 64, 92
2,155221, Control_c, 0, 64, 98
2,155236, Control_c, 0, 64, 107
2,155251, Control_c, 0, 64, 117
2,155266, Control_c, 0, 64, 127
2,155317, Note_on_c, 0, 59, 0
2,155341, Note_on_c, 0, 76, 82
2,155364, Note_on_c, 0, 58, 63
2,155564, Note_on_c, 0, 56, 84
2,155583, Note_on_c, 0, 68, 0
2,155597, Note_on_c, 0, 58, 0
2,155832, Note_on_c, 0, 74, 88
2,155842, Note_on_c, 0, 58, 79
2,155852, Control_c, 0, 64, 104
2,155856, Note_on_c, 0, 76, 0
2,155867, Control_c, 0, 64, 74
2,155878, Note_on_c, 0, 56, 0
2,155883, Control_c, 0, 64, 55
2,155897, Control_c, 0, 64, 0
2,156004, Control_c, 0, 64, 51
2,156019, Control_c, 0, 64, 61
2,156034, Control_c, 0, 64, 65
2,156050, Control_c, 0, 64, 67
2,156065, Control_c, 0, 64, 72
2,156081, Control_c, 0, 64, 79
2,156095, Control_c, 0, 64, 88
2,156110, Control_c, 0, 64, 102
2,156126, Control_c, 0, 64, 127
2,156314, Note_on_c, 0, 63, 62
2,156323, Note_on_c, 0, 66, 88
2,156323, Note_on_c, 0, 70, 62
2,156448, Note_on_c, 0, 74, 0
2,156580, Note_on_c, 0, 66, 0
2,156829, Note_on_c, 0, 65, 6
2,156831, Note_on_c, 0, 80, 93
2,156863, Control_c, 0, 64, 117
2,156878, Control_c, 0, 64, 70
2,156894, Control_c, 0, 64, 31
2,156909, Control_c, 0, 64, 0
2,157015, Control_c, 0, 64, 47
2,157030, Control_c, 0, 64, 62
2,157046, Control_c, 0, 64, 67
2,157060, Control_c, 0, 64, 74
2,157075, Control_c, 0, 64, 87
2,157091, Control_c, 0, 64, 127
2,157294, Note_on_c, 0, 63, 0
2,157298, Note_on_c, 0, 77, 82
2,157300, Note_on_c, 0, 62, 70
2,157328, Control_c, 0, 64, 119
2,157343, Control_c, 0, 64, 77
2,157358, Control_c, 0, 64, 60
2,157364, Note_on_c, 0, 58, 0
2,157373, Control_c, 0, 64, 0
2,157434, Control_c, 0, 64, 51
2,157449, Control_c, 0, 64, 59
2,157464, Control_c, 0, 64, 62
2,157479, Control_c, 0, 64, 64
2,157490, Note_on_c, 0, 70, 0
2,157495, Control_c, 0, 64, 67
2,157508, Control_c, 0, 64, 73
2,157524, Control_c, 0, 64, 86
2,157539, Control_c, 0, 64, 114
2,157554, Control_c, 0, 64, 127
2,157851, Note_on_c, 0, 70, 62
2,157858, Control_c, 0, 64, 97
2,157862, Note_on_c, 0, 66, 85
2,157873, Control_c, 0, 64, 72
2,157889, Control_c, 0, 64, 49
2,157900, Note_on_c, 0, 65, 0
2,157903, Control_c, 0, 64, 0
2,158022, Note_on_c, 0, 62, 0
2,158093, Note_on_c, 0, 80, 0
2,158110, Control_c, 0, 64, 41
2,158126, Control_c, 0, 64, 59
2,158140, Control_c, 0, 64, 65
2,158155, Control_c, 0, 64, 70
2,158171, Control_c, 0, 64, 80
2,158186, Control_c, 0, 64, 108
2,158197, Note_on_c, 0, 77, 0
2,158202, Control_c, 0, 64, 127
2,158300, Note_on_c, 0, 70, 0
2,158380, Note_on_c, 0, 78, 60
2,158388, Note_on_c, 0, 75, 59
2,158494, Note_on_c, 0, 75, 0
2,158578, Note_on_c, 0, 78, 0
2,158603, Note_on_c, 0, 77, 87
2,158609, Note_on_c, 0, 74, 74
2,158782, Note_on_c, 0, 74, 0
2,158817, Note_on_c, 0, 77, 0
2,158860, Note_on_c, 0, 78, 93
2,158867, Note_on_c, 0, 75, 91
2,158877, Control_c, 0, 64, 90
2,158893, Control_c, 0, 64, 67
2,158908, Control_c, 0, 64, 56
2,158924, Control_c, 0, 64, 53
2,158939, Control_c, 0, 64, 59
2,158954, Control_c, 0, 64, 64
2,158970, Control_c, 0, 64, 68
2,158984, Control_c, 0, 64, 77
2,158999, Control_c, 0, 64, 100
2,159015, Control_c, 0, 64, 127
2,159023, Note_on_c, 0, 78, 0
2,159312, Note_on_c, 0, 83, 93
2,159320, Note_on_c, 0, 66, 0
2,159342, Note_on_c, 0, 65, 71
2,159485, Note_on_c, 0, 65, 0
2,159501, Note_on_c, 0, 75, 0
2,159547, Note_on_c, 0, 63, 83
2,159817, Note_on_c, 0, 83, 0
2,159828, Control_c, 0, 64, 103
2,159828, Note_on_c, 0, 65, 87
2,159831, Note_on_c, 0, 81, 90
2,159837, Note_on_c, 0, 63, 0
2,159844, Control_c, 0, 64, 71
2,159859, Control_c, 0, 64, 43
2,159874, Control_c, 0, 64, 0
2,159904, Control_c, 0, 64, 35
2,159919, Control_c, 0, 64, 63
2,159935, Control_c, 0, 64, 71
2,159949, Control_c, 0, 64, 90
2,159965, Control_c, 0, 64, 127
2,160373, Note_on_c, 0, 81, 0
2,160410, Note_on_c, 0, 70, 90
2,160415, Control_c, 0, 64, 84
2,160415, Note_on_c, 0, 77, 63
2,160429, Control_c, 0, 64, 62
2,160434, Note_on_c, 0, 73, 43
2,160445, Control_c, 0, 64, 0
2,160550, Control_c, 0, 64, 21
2,160566, Control_c, 0, 64, 45
2,160581, Control_c, 0, 64, 57
2,160596, Control_c, 0, 64, 61
2,160612, Control_c, 0, 64, 64
2,160626, Control_c, 0, 64, 68
2,160642, Control_c, 0, 64, 74
2,160657, Control_c, 0, 64, 84
2,160671, Note_on_c, 0, 72, 79
2,160672, Control_c, 0, 64, 106
2,160676, Note_on_c, 0, 73, 0
2,160688, Control_c, 0, 64, 127
2,160919, Note_on_c, 0, 82, 90
2,160933, Note_on_c, 0, 73, 74
2,160959, Note_on_c, 0, 72, 0
2,160978, Note_on_c, 0, 77, 0
2,161066, Note_on_c, 0, 82, 0
2,161143, Note_on_c, 0, 80, 83
2,161235, Note_on_c, 0, 80, 0
2,161366, Note_on_c, 0, 70, 0
2,161369, Note_on_c, 0, 79, 82
2,161376, Note_on_c, 0, 68, 75
2,161380, Control_c, 0, 64, 87
2,161394, Control_c, 0, 64, 62
2,161410, Control_c, 0, 64, 0
2,161470, Control_c, 0, 64, 23
2,161479, Note_on_c, 0, 65, 0
2,161486, Control_c, 0, 64, 58
2,161501, Control_c, 0, 64, 64
2,161516, Control_c, 0, 64, 67
2,161532, Control_c, 0, 64, 73
2,161547, Control_c, 0, 64, 82
2,161563, Control_c, 0, 64, 100
2,161578, Control_c, 0, 64, 127
2,161579, Note_on_c, 0, 77, 84
2,161595, Note_on_c, 0, 79, 0
2,161621, Note_on_c, 0, 73, 0
2,161808, Note_on_c, 0, 68, 0
2,161816, Note_on_c, 0, 75, 89
2,161844, Control_c, 0, 64, 80
2,161858, Control_c, 0, 64, 60
2,161870, Note_on_c, 0, 77, 0
2,161871, Note_on_c, 0, 67, 51
2,161873, Control_c, 0, 64, 0
2,161919, Control_c, 0, 64, 44
2,161934, Control_c, 0, 64, 59
2,161949, Control_c, 0, 64, 63
2,161965, Control_c, 0, 64, 64
2,161980, Control_c, 0, 64, 65
2,161995, Control_c, 0, 64, 69
2,162010, Control_c, 0, 64, 77
2,162025, Control_c, 0, 64, 91
2,162039, Note_on_c, 0, 73, 76
2,162042, Control_c, 0, 64, 116
2,162057, Control_c, 0, 64, 127
2,162235, Note_on_c, 0, 73, 0
2,162263, Note_on_c, 0, 71, 82
2,162274, Note_on_c, 0, 63, 64
2,162332, Note_on_c, 0, 67, 0
2,162440, Note_on_c, 0, 71, 0
2,162479, Note_on_c, 0, 70, 90
2,162756, Note_on_c, 0, 70, 0
2,162784, Note_on_c, 0, 71, 87
2,162793, Control_c, 0, 64, 85
2,162809, Control_c, 0, 64, 66
2,162823, Control_c, 0, 64, 22
2,162825, Note_on_c, 0, 68, 55
2,162838, Control_c, 0, 64, 0
2,162901, Control_c, 0, 64, 31
2,162909, Note_on_c, 0, 63, 0
2,162916, Control_c, 0, 64, 54
2,162931, Control_c, 0, 64, 60
2,162946, Control_c, 0, 64, 64
2,162962, Control_c, 0, 64, 67
2,162977, Control_c, 0, 64, 73
2,162992, Control_c, 0, 64, 87
2,163007, Control_c, 0, 64, 127
2,163099, Note_on_c, 0, 75, 0
2,163109, Note_on_c, 0, 78, 72
2,163190, Note_on_c, 0, 78, 0
2,163330, Note_on_c, 0, 77, 88
2,163543, Note_on_c, 0, 75, 92
2,163613, Note_on_c, 0, 77, 0
2,163800, Note_on_c, 0, 74, 87
2,163821, Control_c, 0, 64, 89
2,163836, Control_c, 0, 64, 64
2,163836, Note_on_c, 0, 70, 68
2,163839, Note_on_c, 0, 75, 0
2,163840, Note_on_c, 0, 68, 0
2,163851, Control_c, 0, 64, 0
2,163957, Control_c, 0, 64, 52
2,163972, Control_c, 0, 64, 60
2,163987, Control_c, 0, 64, 63
2,164003, Control_c, 0, 64, 65
2,164018, Control_c, 0, 64, 70
2,164033, Control_c, 0, 64, 81
2,164035, Note_on_c, 0, 74, 0
2,164042, Note_on_c, 0, 77, 79
2,164048, Control_c, 0, 64, 112
2,164063, Control_c, 0, 64, 127
2,164200, Note_on_c, 0, 71, 0
2,164243, Note_on_c, 0, 77, 0
2,164270, Note_on_c, 0, 75, 87
2,164280, Note_on_c, 0, 66, 62
2,164308, Note_on_c, 0, 70, 0
2,164467, Note_on_c, 0, 73, 87
2,164540, Note_on_c, 0, 75, 0
2,164680, Control_c, 0, 64, 102
2,164696, Control_c, 0, 64, 66
2,164711, Control_c, 0, 64, 0
2,164715, Note_on_c, 0, 72, 92
2,164731, Note_on_c, 0, 66, 0
2,164736, Note_on_c, 0, 73, 0
2,164746, Note_on_c, 0, 68, 57
2,164817, Control_c, 0, 64, 54
2,164832, Control_c, 0, 64, 63
2,164855, Control_c, 0, 64, 67
2,164870, Control_c, 0, 64, 77
2,164886, Control_c, 0, 64, 107
2,164901, Control_c, 0, 64, 127
2,164957, Note_on_c, 0, 75, 73
2,164958, Note_on_c, 0, 72, 0
2,164959, Note_on_c, 0, 68, 0
2,164973, Note_on_c, 0, 66, 61
2,165107, Note_on_c, 0, 66, 0
2,165138, Note_on_c, 0, 75, 0
2,165162, Note_on_c, 0, 65, 61
2,165165, Note_on_c, 0, 73, 82
2,165324, Note_on_c, 0, 65, 0
2,165355, Note_on_c, 0, 73, 0
2,165356, Note_on_c, 0, 71, 88
2,165369, Note_on_c, 0, 63, 66
2,165395, Note_on_c, 0, 71, 0
2,165594, Note_on_c, 0, 63, 0
2,165628, Note_on_c, 0, 70, 88
2,165646, Note_on_c, 0, 62, 68
2,165653, Control_c, 0, 64, 85
2,165668, Control_c, 0, 64, 64
2,165684, Control_c, 0, 64, 0
2,165759, Control_c, 0, 64, 54
2,165775, Control_c, 0, 64, 60
2,165790, Control_c, 0, 64, 63
2,165805, Control_c, 0, 64, 65
2,165820, Control_c, 0, 64, 69
2,165823, Note_on_c, 0, 62, 0
2,165835, Control_c, 0, 64, 78
2,165851, Control_c, 0, 64, 101
2,165866, Control_c, 0, 64, 127
2,165901, Note_on_c, 0, 68, 59
2,165912, Note_on_c, 0, 65, 45
2,166032, Note_on_c, 0, 65, 0
2,166107, Note_on_c, 0, 66, 71
2,166137, Note_on_c, 0, 63, 52
2,166298, Note_on_c, 0, 63, 0
2,166317, Note_on_c, 0, 65, 89
2,166328, Note_on_c, 0, 68, 0
2,166341, Note_on_c, 0, 61, 73
2,166346, Note_on_c, 0, 66, 0
2,166541, Note_on_c, 0, 61, 0
2,166545, Control_c, 0, 64, 121
2,166560, Control_c, 0, 64, 79
2,166561, Note_on_c, 0, 63, 83
2,166575, Control_c, 0, 64, 61
2,166578, Note_on_c, 0, 65, 0
2,166582, Note_on_c, 0, 60, 70
2,166590, Control_c, 0, 64, 0
2,166651, Control_c, 0, 64, 36
2,166666, Control_c, 0, 64, 56
2,166682, Control_c, 0, 64, 59
2,166697, Control_c, 0, 64, 61
2,166712, Control_c, 0, 64, 64
2,166726, Control_c, 0, 64, 66
2,166741, Control_c, 0, 64, 69
2,166757, Control_c, 0, 64, 78
2,166772, Control_c, 0, 64, 92
2,166783, Note_on_c, 0, 66, 79
2,166787, Control_c, 0, 64, 124
2,166802, Control_c, 0, 64, 127
2,166838, Note_on_c, 0, 70, 0
2,166980, Note_on_c, 0, 63, 0
2,166989, Note_on_c, 0, 66, 0
2,167009, Note_on_c, 0, 68, 88
2,167028, Note_on_c, 0, 60, 0
2,167028, Note_on_c, 0, 65, 69
2,167031, Control_c, 0, 64, 76
2,167046, Control_c, 0, 64, 53
2,167049, Note_on_c, 0, 59, 66
2,167061, Control_c, 0, 64, 0
2,167123, Control_c, 0, 64, 53
2,167138, Control_c, 0, 64, 61
2,167160, Control_c, 0, 64, 64
2,167175, Control_c, 0, 64, 66
2,167190, Control_c, 0, 64, 69
2,167193, Note_on_c, 0, 59, 0
2,167206, Control_c, 0, 64, 75
2,167221, Control_c, 0, 64, 85
2,167236, Control_c, 0, 64, 101
2,167251, Control_c, 0, 64, 127
2,167275, Note_on_c, 0, 63, 75
2,167382, Note_on_c, 0, 65, 0
2,167431, Note_on_c, 0, 63, 0
2,167487, Note_on_c, 0, 58, 86
2,167493, Control_c, 0, 64, 119
2,167496, Note_on_c, 0, 62, 84
2,167508, Control_c, 0, 64, 77
2,167524, Control_c, 0, 64, 62
2,167539, Control_c, 0, 64, 46
2,167553, Control_c, 0, 64, 53
2,167569, Control_c, 0, 64, 63
2,167584, Control_c, 0, 64, 68
2,167600, Control_c, 0, 64, 78
2,167615, Control_c, 0, 64, 96
2,167630, Control_c, 0, 64, 127
2,167663, Note_on_c, 0, 68, 0
2,167672, Note_on_c, 0, 58, 0
2,167726, Note_on_c, 0, 65, 90
2,167749, Note_on_c, 0, 62, 0
2,167951, Note_on_c, 0, 65, 0
2,167987, Note_on_c, 0, 66, 85
2,167988, Control_c, 0, 64, 80
2,168002, Note_on_c, 0, 51, 74
2,168003, Control_c, 0, 64, 53
2,168003, Note_on_c, 0, 63, 83
2,168018, Control_c, 0, 64, 0
2,168095, Control_c, 0, 64, 50
2,168110, Control_c, 0, 64, 58
2,168125, Control_c, 0, 64, 62
2,168140, Control_c, 0, 64, 67
2,168156, Control_c, 0, 64, 74
2,168171, Control_c, 0, 64, 88
2,168186, Control_c, 0, 64, 127
2,168214, Note_on_c, 0, 70, 86
2,168230, Note_on_c, 0, 66, 0
2,168258, Note_on_c, 0, 70, 0
2,168271, Note_on_c, 0, 51, 0
2,168450, Note_on_c, 0, 75, 88
2,168453, Note_on_c, 0, 51, 87
2,168476, Control_c, 0, 64, 92
2,168490, Control_c, 0, 64, 69
2,168505, Control_c, 0, 64, 51
2,168521, Control_c, 0, 64, 50
2,168535, Control_c, 0, 64, 60
2,168550, Control_c, 0, 64, 66
2,168566, Control_c, 0, 64, 77
2,168582, Control_c, 0, 64, 127
2,168614, Note_on_c, 0, 63, 0
2,168651, Note_on_c, 0, 51, 0
2,168698, Note_on_c, 0, 75, 0
2,168705, Note_on_c, 0, 70, 90
2,168980, Control_c, 0, 64, 89
2,168984, Note_on_c, 0, 78, 94
2,168992, Note_on_c, 0, 69, 80
2,168995, Control_c, 0, 64, 63
2,168998, Note_on_c, 0, 60, 90
2,169001, Note_on_c, 0, 51, 82
2,169011, Control_c, 0, 64, 0
2,169031, Note_on_c, 0, 70, 0
2,169087, Control_c, 0, 64, 52
2,169103, Control_c, 0, 64, 62
2,169117, Control_c, 0, 64, 65
2,169133, Control_c, 0, 64, 72
2,169148, Control_c, 0, 64, 84
2,169160, Note_on_c, 0, 69, 0
2,169163, Control_c, 0, 64, 119
2,169178, Control_c, 0, 64, 127
2,169202, Note_on_c, 0, 78, 0
2,169278, Note_on_c, 0, 51, 0
2,169575, Note_on_c, 0, 77, 94
2,169586, Note_on_c, 0, 70, 80
2,169591, Note_on_c, 0, 65, 83
2,169597, Control_c, 0, 64, 98
2,169600, Note_on_c, 0, 50, 74
2,169612, Control_c, 0, 64, 67
2,169627, Control_c, 0, 64, 0
2,169749, Control_c, 0, 64, 49
2,169763, Control_c, 0, 64, 59
2,169779, Control_c, 0, 64, 63
2,169794, Control_c, 0, 64, 65
2,169809, Control_c, 0, 64, 68
2,169818, Note_on_c, 0, 50, 0
2,169824, Control_c, 0, 64, 73
2,169839, Control_c, 0, 64, 82
2,169855, Control_c, 0, 64, 97
2,169870, Control_c, 0, 64, 127
2,169886, Note_on_c, 0, 65, 0
2,169918, Note_on_c, 0, 77, 0
2,169941, Note_on_c, 0, 70, 0
2,170066, Note_on_c, 0, 51, 86
2,170083, Control_c, 0, 64, 80
2,170098, Control_c, 0, 64, 58
2,170113, Control_c, 0, 64, 0
2,170289, Control_c, 0, 64, 57
2,170304, Control_c, 0, 64, 66
2,170319, Control_c, 0, 64, 73
2,170335, Control_c, 0, 64, 83
2,170350, Control_c, 0, 64, 97
2,170365, Control_c, 0, 64, 127
2,170400, Note_on_c, 0, 60, 0
2,170454, Note_on_c, 0, 51, 0
2,170563, Note_on_c, 0, 53, 88
2,170607, Control_c, 0, 64, 105
2,170623, Control_c, 0, 64, 74
2,170638, Control_c, 0, 64, 59
2,170653, Control_c, 0, 64, 0
2,171089, Note_on_c, 0, 83, 88
2,171114, Note_on_c, 0, 74, 68
2,171118, Note_on_c, 0, 65, 68
2,171163, Control_c, 0, 64, 32
2,171179, Control_c, 0, 64, 57
2,171190, Note_on_c, 0, 74, 0
2,171193, Control_c, 0, 64, 63
2,171209, Control_c, 0, 64, 66
2,171218, Note_on_c, 0, 65, 0
2,171224, Control_c, 0, 64, 70
2,171239, Control_c, 0, 64, 77
2,171240, Note_on_c, 0, 83, 0
2,171255, Control_c, 0, 64, 93
2,171270, Control_c, 0, 64, 127
2,171468, Control_c, 0, 64, 97
2,171483, Control_c, 0, 64, 74
2,171498, Control_c, 0, 64, 58
2,171513, Control_c, 0, 64, 0
2,171627, Note_on_c, 0, 82, 86
2,171640, Note_on_c, 0, 78, 72
2,171652, Note_on_c, 0, 58, 68
2,171680, Control_c, 0, 64, 42
2,171696, Control_c, 0, 64, 56
2,171710, Control_c, 0, 64, 61
2,171725, Control_c, 0, 64, 63
2,171741, Control_c, 0, 64, 65
2,171762, Note_on_c, 0, 53, 0
2,171764, Control_c, 0, 64, 67
2,171780, Control_c, 0, 64, 72
2,171794, Control_c, 0, 64, 84
2,171810, Control_c, 0, 64, 105
2,171825, Control_c, 0, 64, 127
2,171827, Note_on_c, 0, 78, 0
2,171840, Note_on_c, 0, 82, 0
2,172069, Control_c, 0, 64, 97
2,172084, Control_c, 0, 64, 78
2,172099, Control_c, 0, 64, 62
2,172114, Control_c, 0, 64, 0
2,172124, Note_on_c, 0, 51, 84
2,172197, Note_on_c, 0, 58, 0
2,172638, Note_on_c, 0, 51, 0
2,172645, Note_on_c, 0, 56, 90
2,173183, Note_on_c, 0, 80, 86
2,173200, Control_c, 0, 64, 25
2,173201, Note_on_c, 0, 63, 68
2,173204, Note_on_c, 0, 71, 72
2,173216, Control_c, 0, 64, 57
2,173231, Control_c, 0, 64, 64
2,173246, Control_c, 0, 64, 70
2,173261, Control_c, 0, 64, 85
2,173270, Note_on_c, 0, 71, 0
2,173276, Control_c, 0, 64, 127
2,173305, Note_on_c, 0, 80, 0
2,173467, Note_on_c, 0, 63, 0
2,173498, Control_c, 0, 64, 92
2,173513, Control_c, 0, 64, 71
2,173529, Control_c, 0, 64, 55
2,173544, Control_c, 0, 64, 0
2,173734, Note_on_c, 0, 74, 81
2,173752, Note_on_c, 0, 70, 58
2,173755, Note_on_c, 0, 65, 56
2,173832, Control_c, 0, 64, 20
2,173847, Control_c, 0, 64, 53
2,173863, Control_c, 0, 64, 62
2,173878, Control_c, 0, 64, 65
2,173894, Control_c, 0, 64, 71
2,173908, Control_c, 0, 64, 80
2,173923, Control_c, 0, 64, 95
2,173924, Note_on_c, 0, 65, 0
2,173939, Control_c, 0, 64, 127
2,173966, Note_on_c, 0, 70, 0
2,173979, Note_on_c, 0, 74, 0
2,174220, Control_c, 0, 64, 115
2,174235, Control_c, 0, 64, 78
2,174245, Note_on_c, 0, 54, 74
2,174250, Control_c, 0, 64, 63
2,174256, Note_on_c, 0, 56, 0
2,174265, Control_c, 0, 64, 47
2,174280, Control_c, 0, 64, 48
2,174296, Control_c, 0, 64, 55
2,174312, Control_c, 0, 64, 60
2,174327, Control_c, 0, 64, 63
2,174342, Control_c, 0, 64, 65
2,174357, Control_c, 0, 64, 68
2,174373, Control_c, 0, 64, 73
2,174388, Control_c, 0, 64, 80
2,174403, Control_c, 0, 64, 88
2,174418, Control_c, 0, 64, 93
2,174433, Control_c, 0, 64, 94
2,174434, Note_on_c, 0, 54, 0
2,174490, Note_on_c, 0, 53, 86
2,174494, Control_c, 0, 64, 95
2,174524, Control_c, 0, 64, 96
2,174707, Control_c, 0, 64, 96
2,174759, Note_on_c, 0, 53, 0
2,174783, Control_c, 0, 64, 94
2,174797, Control_c, 0, 64, 84
2,174813, Control_c, 0, 64, 72
2,174831, Note_on_c, 0, 58, 90
2,174835, Control_c, 0, 64, 61
2,174851, Control_c, 0, 64, 0
2,175003, Control_c, 0, 64, 36
2,175018, Control_c, 0, 64, 51
2,175033, Control_c, 0, 64, 57
2,175049, Control_c, 0, 64, 59
2,175064, Control_c, 0, 64, 61
2,175079, Control_c, 0, 64, 64
2,175094, Control_c, 0, 64, 67
2,175109, Control_c, 0, 64, 74
2,175124, Control_c, 0, 64, 85
2,175141, Control_c, 0, 64, 101
2,175156, Control_c, 0, 64, 127
2,175346, Note_on_c, 0, 58, 0
2,175367, Note_on_c, 0, 77, 93
2,175385, Control_c, 0, 64, 88
2,175385, Note_on_c, 0, 56, 75
2,175386, Note_on_c, 0, 62, 77
2,175391, Note_on_c, 0, 65, 64
2,175399, Control_c, 0, 64, 65
2,175415, Control_c, 0, 64, 0
2,175475, Control_c, 0, 64, 28
2,175491, Control_c, 0, 64, 56
2,175506, Control_c, 0, 64, 61
2,175520, Control_c, 0, 64, 63
2,175535, Note_on_c, 0, 65, 0
2,175536, Control_c, 0, 64, 64
2,175551, Control_c, 0, 64, 67
2,175566, Control_c, 0, 64, 71
2,175582, Control_c, 0, 64, 80
2,175589, Note_on_c, 0, 62, 0
2,175597, Control_c, 0, 64, 89
2,175620, Control_c, 0, 64, 98
2,175635, Control_c, 0, 64, 104
2,175650, Control_c, 0, 64, 108
2,175665, Control_c, 0, 64, 112
2,175680, Control_c, 0, 64, 127
2,175853, Note_on_c, 0, 56, 0
2,175915, Note_on_c, 0, 77, 0
2,175919, Note_on_c, 0, 70, 90
2,175923, Control_c, 0, 64, 76
2,175933, Note_on_c, 0, 54, 71
2,175933, Note_on_c, 0, 63, 78
2,175938, Control_c, 0, 64, 54
2,175938, Note_on_c, 0, 66, 75
2,175954, Control_c, 0, 64, 0
2,176015, Control_c, 0, 64, 42
2,176030, Control_c, 0, 64, 59
2,176042, Note_on_c, 0, 63, 0
2,176045, Control_c, 0, 64, 63
2,176061, Control_c, 0, 64, 66
2,176070, Note_on_c, 0, 54, 0
2,176075, Control_c, 0, 64, 70
2,176091, Control_c, 0, 64, 78
2,176106, Control_c, 0, 64, 96
2,176121, Control_c, 0, 64, 127
2,176145, Note_on_c, 0, 66, 0
2,176418, Note_on_c, 0, 75, 89
2,176436, Note_on_c, 0, 58, 69
2,176438, Note_on_c, 0, 66, 72
2,176447, Note_on_c, 0, 51, 60
2,176521, Note_on_c, 0, 66, 0
2,176572, Note_on_c, 0, 75, 0
2,176587, Note_on_c, 0, 51, 0
2,176600, Note_on_c, 0, 58, 0
2,176627, Note_on_c, 0, 70, 0
2,176643, Note_on_c, 0, 74, 93
2,176647, Note_on_c, 0, 65, 84
2,176654, Note_on_c, 0, 56, 85
2,176658, Note_on_c, 0, 53, 76
2,176707, Note_on_c, 0, 65, 0
2,176873, Note_on_c, 0, 74, 0
2,176880, Note_on_c, 0, 53, 0
2,176880, Note_on_c, 0, 56, 0
2,176893, Note_on_c, 0, 75, 96
2,176900, Note_on_c, 0, 54, 84
2,176902, Note_on_c, 0, 58, 92
2,176904, Note_on_c, 0, 63, 82
2,176934, Control_c, 0, 64, 76
2,176949, Control_c, 0, 64, 42
2,176964, Control_c, 0, 64, 0
2,177070, Control_c, 0, 64, 58
2,177085, Control_c, 0, 64, 67
2,177101, Control_c, 0, 64, 80
2,177116, Control_c, 0, 64, 127
2,177192, Note_on_c, 0, 63, 0
2,177231, Note_on_c, 0, 58, 0
2,177269, Note_on_c, 0, 75, 0
2,177391, Note_on_c, 0, 65, 91
2,177398, Note_on_c, 0, 68, 86
2,177413, Control_c, 0, 64, 93
2,177416, Note_on_c, 0, 59, 80
2,177428, Control_c, 0, 64, 65
2,177428, Note_on_c, 0, 56, 67
2,177442, Control_c, 0, 64, 0
2,177549, Control_c, 0, 64, 26
2,177552, Note_on_c, 0, 54, 0
2,177564, Control_c, 0, 64, 55
2,177580, Control_c, 0, 64, 63
2,177595, Control_c, 0, 64, 67
2,177611, Control_c, 0, 64, 72
2,177626, Control_c, 0, 64, 77
2,177638, Note_on_c, 0, 59, 0
2,177641, Control_c, 0, 64, 87
2,177657, Control_c, 0, 64, 110
2,177672, Control_c, 0, 64, 127
2,177908, Control_c, 0, 64, 100
2,177922, Control_c, 0, 64, 76
2,177938, Control_c, 0, 64, 64
2,177953, Control_c, 0, 64, 0
2,177984, Note_on_c, 0, 66, 84
2,177998, Note_on_c, 0, 68, 0
2,178001, Note_on_c, 0, 58, 71
2,178003, Note_on_c, 0, 56, 0
2,178611, Note_on_c, 0, 63, 73
2,178633, Note_on_c, 0, 65, 0
2,179124, Note_on_c, 0, 65, 64
2,179139, Note_on_c, 0, 66, 0
2,179160, Note_on_c, 0, 46, 46
2,179408, Control_c, 0, 64, 21
2,179423, Control_c, 0, 64, 59
2,179446, Control_c, 0, 64, 65
2,179461, Control_c, 0, 64, 70
2,179475, Control_c, 0, 64, 74
2,179491, Control_c, 0, 64, 79
2,179506, Control_c, 0, 64, 85
2,179522, Control_c, 0, 64, 91
2,179537, Control_c, 0, 64, 95
2,179551, Control_c, 0, 64, 97
2,179597, Control_c, 0, 64, 98
2,179598, Note_on_c, 0, 58, 0
2,179613, Control_c, 0, 64, 99
2,179628, Control_c, 0, 64, 101
2,179644, Control_c, 0, 64, 103
2,179659, Control_c, 0, 64, 104
2,179687, Note_on_c, 0, 62, 55
2,179723, Note_on_c, 0, 63, 0
2,179735, Control_c, 0, 64, 97
2,179749, Control_c, 0, 64, 85
2,179765, Control_c, 0, 64, 73
2,179780, Control_c, 0, 64, 64
2,179795, Control_c, 0, 64, 50
2,179811, Control_c, 0, 64, 31
2,179825, Control_c, 0, 64, 40
2,179840, Control_c, 0, 64, 54
2,179856, Control_c, 0, 64, 59
2,179870, Control_c, 0, 64, 61
2,179886, Control_c, 0, 64, 62
2,179901, Control_c, 0, 64, 64
2,179916, Control_c, 0, 64, 68
2,179932, Control_c, 0, 64, 75
2,179946, Control_c, 0, 64, 85
2,179946, Note_on_c, 0, 56, 50
2,179962, Control_c, 0, 64, 97
2,179977, Control_c, 0, 64, 114
2,179992, Control_c, 0, 64, 127
2,180034, Note_on_c, 0, 56, 0
2,180047, Note_on_c, 0, 62, 0
2,180092, Note_on_c, 0, 46, 0
2,180154, Note_on_c, 0, 65, 0
2,180350, Control_c, 0, 64, 100
2,180353, Note_on_c, 0, 63, 53
2,180366, Control_c, 0, 64, 77
2,180368, Note_on_c, 0, 54, 37
2,180371, Note_on_c, 0, 51, 42
2,180381, Control_c, 0, 64, 64
2,180395, Control_c, 0, 64, 15
2,180411, Control_c, 0, 64, 0
2,180457, Control_c, 0, 64, 25
2,180472, Control_c, 0, 64, 51
2,180487, Control_c, 0, 64, 57
2,180499, Note_on_c, 0, 63, 0
2,180502, Control_c, 0, 64, 62
2,180517, Control_c, 0, 64, 65
2,180533, Control_c, 0, 64, 71
2,180548, Control_c, 0, 64, 79
2,180564, Control_c, 0, 64, 92
2,180579, Control_c, 0, 64, 105
2,180593, Control_c, 0, 64, 127
2,180725, Note_on_c, 0, 54, 0
2,181044, Note_on_c, 0, 75, 59
2,181055, Note_on_c, 0, 58, 37
2,181063, Note_on_c, 0, 66, 39
2,181311, Note_on_c, 0, 58, 0
2,181388, Note_on_c, 0, 65, 46
2,181413, Note_on_c, 0, 66, 0
2,181419, Note_on_c, 0, 75, 0
2,181600, Note_on_c, 0, 65, 0
2,181623, Note_on_c, 0, 75, 68
2,181642, Note_on_c, 0, 58, 52
2,181645, Note_on_c, 0, 66, 45
2,181844, Note_on_c, 0, 75, 0
2,181870, Note_on_c, 0, 58, 0
2,181879, Note_on_c, 0, 66, 0
2,181884, Note_on_c, 0, 70, 57
2,182103, Note_on_c, 0, 75, 76
2,182126, Note_on_c, 0, 58, 56
2,182128, Note_on_c, 0, 68, 56
2,182302, Note_on_c, 0, 75, 0
2,182310, Note_on_c, 0, 70, 0
2,182331, Note_on_c, 0, 58, 0
2,182344, Note_on_c, 0, 66, 67
2,182379, Note_on_c, 0, 68, 0
2,182567, Control_c, 0, 64, 103
2,182568, Note_on_c, 0, 66, 0
2,182578, Note_on_c, 0, 74, 81
2,182582, Control_c, 0, 64, 72
2,182597, Control_c, 0, 64, 51
2,182599, Note_on_c, 0, 59, 61
2,182612, Control_c, 0, 64, 0
2,182616, Note_on_c, 0, 65, 56
2,182657, Control_c, 0, 64, 36
2,182672, Control_c, 0, 64, 62
2,182688, Control_c, 0, 64, 66
2,182703, Control_c, 0, 64, 72
2,182719, Control_c, 0, 64, 84
2,182733, Control_c, 0, 64, 112
2,182746, Note_on_c, 0, 59, 0
2,182748, Control_c, 0, 64, 127
2,182765, Note_on_c, 0, 65, 0
2,182813, Note_on_c, 0, 68, 68
2,182816, Note_on_c, 0, 74, 0
2,182840, Note_on_c, 0, 51, 0
2,182841, Note_on_c, 0, 68, 0
2,183037, Note_on_c, 0, 75, 89
2,183064, Note_on_c, 0, 58, 63
2,183064, Note_on_c, 0, 66, 61
2,183082, Note_on_c, 0, 51, 57
2,183203, Note_on_c, 0, 66, 0
2,183232, Note_on_c, 0, 58, 0
2,183241, Note_on_c, 0, 51, 0
2,183284, Note_on_c, 0, 70, 73
2,183291, Note_on_c, 0, 50, 69
2,183525, Note_on_c, 0, 50, 0
2,183531, Note_on_c, 0, 77, 91
2,183542, Note_on_c, 0, 51, 67
2,183546, Control_c, 0, 64, 76
2,183552, Note_on_c, 0, 71, 76
2,183557, Note_on_c, 0, 56, 73
2,183561, Note_on_c, 0, 70, 0
2,183562, Control_c, 0, 64, 54
2,183577, Control_c, 0, 64, 0
2,183622, Control_c, 0, 64, 32
2,183638, Control_c, 0, 64, 60
2,183653, Control_c, 0, 64, 64
2,183668, Control_c, 0, 64, 67
2,183684, Control_c, 0, 64, 72
2,183698, Control_c, 0, 64, 79
2,183713, Control_c, 0, 64, 90
2,183723, Note_on_c, 0, 51, 0
2,183729, Control_c, 0, 64, 108
2,183744, Control_c, 0, 64, 127
2,183759, Note_on_c, 0, 71, 0
2,183776, Note_on_c, 0, 70, 74
2,183779, Note_on_c, 0, 54, 68
2,183785, Note_on_c, 0, 75, 0
2,183871, Note_on_c, 0, 56, 0
2,183933, Note_on_c, 0, 54, 0
2,184010, Note_on_c, 0, 71, 89
2,184014, Note_on_c, 0, 70, 0
2,184017, Note_on_c, 0, 53, 71
2,184222, Note_on_c, 0, 53, 0
2,184238, Note_on_c, 0, 51, 79
2,184464, Note_on_c, 0, 51, 0
2,184495, Note_on_c, 0, 50, 91
2,184526, Control_c, 0, 64, 76
2,184540, Control_c, 0, 64, 35
2,184555, Control_c, 0, 64, 0
2,185009, Note_on_c, 0, 75, 89
2,185010, Note_on_c, 0, 70, 78
2,185020, Control_c, 0, 64, 42
2,185023, Note_on_c, 0, 54, 79
2,185025, Note_on_c, 0, 58, 83
2,185028, Note_on_c, 0, 77, 0
2,185035, Control_c, 0, 64, 61
2,185039, Note_on_c, 0, 71, 0
2,185050, Control_c, 0, 64, 68
2,185065, Control_c, 0, 64, 84
2,185079, Note_on_c, 0, 58, 0
2,185080, Control_c, 0, 64, 127
2,185091, Note_on_c, 0, 50, 0
2,185103, Note_on_c, 0, 54, 0
2,185506, Note_on_c, 0, 80, 89
2,185523, Note_on_c, 0, 53, 93
2,185528, Note_on_c, 0, 75, 0
2,185537, Control_c, 0, 64, 90
2,185544, Note_on_c, 0, 70, 0
2,185552, Control_c, 0, 64, 61
2,185568, Control_c, 0, 64, 0
2,185666, Control_c, 0, 64, 42
2,185681, Control_c, 0, 64, 58
2,185697, Control_c, 0, 64, 64
2,185711, Control_c, 0, 64, 68
2,185727, Control_c, 0, 64, 74
2,185742, Control_c, 0, 64, 86
2,185757, Control_c, 0, 64, 105
2,185773, Control_c, 0, 64, 127
2,185796, Note_on_c, 0, 75, 79
2,185815, Note_on_c, 0, 47, 53
2,185966, Note_on_c, 0, 47, 0
2,186018, Note_on_c, 0, 74, 87
2,186032, Note_on_c, 0, 46, 62
2,186102, Note_on_c, 0, 75, 0
2,186213, Note_on_c, 0, 80, 0
2,186228, Note_on_c, 0, 72, 97
2,186250, Note_on_c, 0, 44, 76
2,186254, Note_on_c, 0, 46, 0
2,186257, Note_on_c, 0, 74, 0
2,186481, Note_on_c, 0, 44, 0
2,186503, Note_on_c, 0, 74, 97
2,186505, Note_on_c, 0, 46, 70
2,186524, Control_c, 0, 64, 95
2,186539, Control_c, 0, 64, 63
2,186553, Control_c, 0, 64, 0
2,186563, Note_on_c, 0, 72, 0
2,186631, Control_c, 0, 64, 43
2,186647, Control_c, 0, 64, 61
2,186661, Control_c, 0, 64, 67
2,186675, Note_on_c, 0, 53, 0
2,186676, Control_c, 0, 64, 79
2,186692, Control_c, 0, 64, 127
2,186831, Note_on_c, 0, 74, 0
2,187004, Note_on_c, 0, 54, 85
2,187006, Note_on_c, 0, 78, 89
2,187008, Note_on_c, 0, 75, 89
2,187184, Note_on_c, 0, 54, 0
2,187273, Note_on_c, 0, 46, 0
2,187281, Note_on_c, 0, 75, 0
2,187283, Note_on_c, 0, 77, 102
2,187287, Note_on_c, 0, 56, 96
2,187290, Note_on_c, 0, 44, 86
2,187294, Note_on_c, 0, 78, 0
2,187324, Note_on_c, 0, 56, 0
2,187330, Note_on_c, 0, 44, 0
2,187656, Note_on_c, 0, 77, 0
2,187689, Note_on_c, 0, 82, 97
2,187694, Note_on_c, 0, 78, 93
2,187702, Note_on_c, 0, 42, 85
2,187703, Note_on_c, 0, 51, 96
2,187717, Control_c, 0, 64, 83
2,187733, Control_c, 0, 64, 49
2,187748, Control_c, 0, 64, 0
2,187825, Control_c, 0, 64, 55
2,187839, Control_c, 0, 64, 63
2,187855, Control_c, 0, 64, 72
2,187870, Control_c, 0, 64, 95
2,187893, Control_c, 0, 64, 127
2,188028, Note_on_c, 0, 51, 0
2,188053, Note_on_c, 0, 42, 0
2,188154, Note_on_c, 0, 82, 0
2,188229, Note_on_c, 0, 78, 0
2,188258, Note_on_c, 0, 80, 94
2,188260, Note_on_c, 0, 53, 99
2,188266, Note_on_c, 0, 74, 88
2,188272, Note_on_c, 0, 46, 83
2,188277, Control_c, 0, 64, 72
2,188292, Control_c, 0, 64, 0
2,188352, Control_c, 0, 64, 60
2,188368, Control_c, 0, 64, 69
2,188383, Control_c, 0, 64, 82
2,188399, Control_c, 0, 64, 111
2,188414, Control_c, 0, 64, 127
2,188423, Note_on_c, 0, 46, 0
2,188464, Note_on_c, 0, 80, 0
2,188575, Note_on_c, 0, 53, 0
2,188708, Note_on_c, 0, 74, 0
2,188746, Note_on_c, 0, 78, 89
2,188753, Note_on_c, 0, 75, 82
2,188757, Note_on_c, 0, 54, 89
2,188768, Note_on_c, 0, 51, 72
2,188770, Control_c, 0, 64, 76
2,188785, Control_c, 0, 64, 36
2,188801, Control_c, 0, 64, 0
2,188877, Control_c, 0, 64, 29
2,188891, Control_c, 0, 64, 51
2,188906, Control_c, 0, 64, 59
2,188922, Control_c, 0, 64, 64
2,188937, Control_c, 0, 64, 68
2,188952, Control_c, 0, 64, 76
2,188967, Control_c, 0, 64, 89
2,188982, Control_c, 0, 64, 108
2,188987, Note_on_c, 0, 75, 0
2,188998, Control_c, 0, 64, 127
2,189219, Note_on_c, 0, 54, 0
2,189226, Control_c, 0, 64, 84
2,189227, Note_on_c, 0, 74, 82
2,189230, Note_on_c, 0, 59, 74
2,189239, Note_on_c, 0, 68, 78
2,189242, Control_c, 0, 64, 59
2,189249, Note_on_c, 0, 53, 59
2,189257, Control_c, 0, 64, 0
2,189260, Note_on_c, 0, 78, 0
2,189347, Control_c, 0, 64, 34
2,189363, Control_c, 0, 64, 53
2,189365, Note_on_c, 0, 51, 0
2,189378, Control_c, 0, 64, 60
2,189392, Control_c, 0, 64, 64
2,189401, Note_on_c, 0, 59, 0
2,189408, Control_c, 0, 64, 68
2,189425, Note_on_c, 0, 74, 0
2,189431, Control_c, 0, 64, 77
2,189447, Control_c, 0, 64, 99
2,189462, Control_c, 0, 64, 127
2,189469, Note_on_c, 0, 68, 0
2,189768, Control_c, 0, 64, 79
2,189775, Note_on_c, 0, 75, 75
2,189776, Note_on_c, 0, 66, 73
2,189782, Control_c, 0, 64, 57
2,189795, Note_on_c, 0, 53, 0
2,189797, Note_on_c, 0, 54, 61
2,189798, Control_c, 0, 64, 0
2,189799, Note_on_c, 0, 58, 63
2,189874, Control_c, 0, 64, 47
2,189890, Control_c, 0, 64, 58
2,189905, Control_c, 0, 64, 63
2,189921, Control_c, 0, 64, 66
2,189935, Control_c, 0, 64, 71
2,189951, Control_c, 0, 64, 78
2,189966, Control_c, 0, 64, 91
2,189970, Note_on_c, 0, 58, 0
2,189981, Control_c, 0, 64, 113
2,189990, Note_on_c, 0, 54, 0
2,189997, Control_c, 0, 64, 127
2,190058, Note_on_c, 0, 65, 77
2,190067, Note_on_c, 0, 66, 0
2,190342, Note_on_c, 0, 65, 0
2,190342, Note_on_c, 0, 71, 83
2,190354, Control_c, 0, 64, 82
2,190361, Note_on_c, 0, 66, 71
2,190369, Control_c, 0, 64, 61
2,190374, Note_on_c, 0, 45, 47
2,190378, Note_on_c, 0, 51, 42
2,190383, Control_c, 0, 64, 0
2,190445, Control_c, 0, 64, 31
2,190459, Control_c, 0, 64, 58
2,190475, Control_c, 0, 64, 63
2,190490, Control_c, 0, 64, 66
2,190504, Control_c, 0, 64, 69
2,190520, Control_c, 0, 64, 74
2,190535, Control_c, 0, 64, 82
2,190551, Control_c, 0, 64, 92
2,190566, Control_c, 0, 64, 104
2,190580, Control_c, 0, 64, 119
2,190596, Control_c, 0, 64, 127
2,190663, Note_on_c, 0, 53, 81
2,190672, Note_on_c, 0, 51, 0
2,190702, Note_on_c, 0, 45, 0
2,190721, Note_on_c, 0, 71, 0
2,191075, Note_on_c, 0, 70, 81
2,191091, Control_c, 0, 64, 103
2,191091, Note_on_c, 0, 54, 71
2,191097, Note_on_c, 0, 46, 61
2,191106, Control_c, 0, 64, 86
2,191122, Control_c, 0, 64, 73
2,191134, Note_on_c, 0, 53, 0
2,191137, Control_c, 0, 64, 60
2,191152, Control_c, 0, 64, 0
2,191517, Control_c, 0, 64, 40
2,191532, Control_c, 0, 64, 52
2,191547, Control_c, 0, 64, 56
2,191547, Control_c, 0, 67, 9
2,191563, Control_c, 0, 64, 59
2,191563, Control_c, 0, 67, 44
2,191578, Control_c, 0, 64, 60
2,191578, Control_c, 0, 67, 70
2,191594, Control_c, 0, 64, 62
2,191594, Control_c, 0, 67, 92
2,191608, Control_c, 0, 64, 63
2,191608, Control_c, 0, 67, 111
2,191623, Control_c, 0, 64, 64
2,191623, Control_c, 0, 67, 126
2,191639, Control_c, 0, 64, 65
2,191639, Control_c, 0, 67, 127
2,191654, Control_c, 0, 64, 65
2,191670, Control_c, 0, 64, 66
2,191685, Control_c, 0, 64, 67
2,191687, Note_on_c, 0, 66, 0
2,191690, Note_on_c, 0, 68, 79
2,191699, Control_c, 0, 64, 68
2,191706, Note_on_c, 0, 54, 0
2,191715, Control_c, 0, 64, 70
2,191718, Note_on_c, 0, 53, 49
2,191737, Control_c, 0, 64, 72
2,191753, Control_c, 0, 64, 74
2,191768, Control_c, 0, 64, 76
2,191782, Control_c, 0, 64, 76
2,191798, Control_c, 0, 64, 77
2,191813, Control_c, 0, 64, 78
2,191829, Control_c, 0, 64, 79
2,191844, Control_c, 0, 64, 79
2,191858, Control_c, 0, 64, 80
2,191889, Control_c, 0, 64, 80
2,191996, Control_c, 0, 64, 81
2,192063, Note_on_c, 0, 53, 0
2,192070, Note_on_c, 0, 66, 81
2,192089, Note_on_c, 0, 51, 61
2,192113, Note_on_c, 0, 75, 0
2,192143, Note_on_c, 0, 70, 0
2,192438, Control_c, 0, 64, 80
2,192440, Note_on_c, 0, 74, 73
2,192443, Note_on_c, 0, 68, 0
2,192453, Control_c, 0, 64, 78
2,192469, Control_c, 0, 64, 73
2,192474, Note_on_c, 0, 66, 0
2,192475, Note_on_c, 0, 51, 0
2,192477, Note_on_c, 0, 58, 47
2,192484, Control_c, 0, 64, 65
2,192503, Note_on_c, 0, 65, 33
2,192506, Control_c, 0, 64, 51
2,192522, Control_c, 0, 64, 0
2,192843, Note_on_c, 0, 66, 53
2,192871, Control_c, 0, 64, 50
2,192886, Control_c, 0, 64, 62
2,192901, Control_c, 0, 64, 67
2,192917, Control_c, 0, 64, 74
2,192920, Note_on_c, 0, 65, 0
2,192932, Control_c, 0, 64, 90
2,192947, Control_c, 0, 64, 127
2,192996, Note_on_c, 0, 66, 0
2,193320, Control_c, 0, 64, 99
2,193320, Note_on_c, 0, 68, 54
2,193335, Control_c, 0, 64, 74
2,193341, Note_on_c, 0, 65, 40
2,193351, Control_c, 0, 64, 56
2,193366, Control_c, 0, 64, 0
2,193426, Control_c, 0, 64, 46
2,193442, Control_c, 0, 64, 55
2,193457, Control_c, 0, 64, 58
2,193472, Control_c, 0, 64, 61
2,193487, Control_c, 0, 64, 64
2,193502, Control_c, 0, 64, 68
2,193518, Control_c, 0, 64, 75
2,193533, Control_c, 0, 64, 85
2,193549, Control_c, 0, 64, 100
2,193563, Control_c, 0, 64, 127
2,193608, Note_on_c, 0, 65, 0
2,193613, Note_on_c, 0, 58, 0
2,193660, Note_on_c, 0, 74, 0
2,193843, Note_on_c, 0, 46, 0
2,193970, Note_on_c, 0, 68, 0
2,194443, Note_on_c, 0, 75, 63
2,194452, Note_on_c, 0, 70, 51
2,194471, Note_on_c, 0, 67, 49
2,194473, Note_on_c, 0, 39, 41
2,194482, Note_on_c, 0, 63, 45
2,194589, Control_c, 0, 64, 95
2,194604, Control_c, 0, 64, 82
2,194619, Control_c, 0, 64, 71
2,194635, Control_c, 0, 64, 63
2,194650, Control_c, 0, 64, 49
2,194665, Control_c, 0, 64, 0
2,196002, Control_c, 0, 64, 16
2,196017, Control_c, 0, 64, 35
2,196033, Control_c, 0, 64, 44
2,196048, Control_c, 0, 64, 50
2,196063, Control_c, 0, 64, 55
2,196078, Control_c, 0, 64, 59
2,196093, Control_c, 0, 64, 63
2,196109, Control_c, 0, 64, 66
2,196124, Control_c, 0, 64, 70
2,196139, Control_c, 0, 64, 77
2,196155, Control_c, 0, 64, 87
2,196170, Control_c, 0, 64, 99
2,196184, Control_c, 0, 64, 115
2,196200, Control_c, 0, 64, 127
2,197317, Note_on_c, 0, 75, 0
2,197338, Note_on_c, 0, 63, 0
2,197357, Note_on_c, 0, 67, 0
2,197369, Note_on_c, 0, 70, 0
2,197401, Note_on_c, 0, 39, 0
2,197600, Control_c, 0, 64, 117
2,197615, Control_c, 0, 64, 108
2,197631, Control_c, 0, 64, 104
2,197645, Control_c, 0, 64, 100
2,197660, Control_c, 0, 64, 97
2,197676, Control_c, 0, 64, 94
2,197690, Control_c, 0, 64, 92
2,197705, Control_c, 0, 64, 90
2,197721, Control_c, 0, 64, 87
2,197736, Control_c, 0, 64, 85
2,197752, Control_c, 0, 64, 82
2,197766, Control_c, 0, 64, 79
2,197781, Control_c, 0, 64, 75
2,197797, Control_c, 0, 64, 69
2,197812, Control_c, 0, 64, 64
2,197826, Control_c, 0, 64, 55
2,197842, Control_c, 0, 64, 37
2,197857, Control_c, 0, 64, 0
2,197858, End_track
0, 0, End_of_file
