0, 0, Header, 1, 2, 384
1, 0, Start_track
1, 0, Tempo, 500000
1, 0, Time_signature, 4, 2, 24, 8
1, 1, End_track
2, 0, Start_track
2, 0, Title_t," ""7.7.13 Group 1"""
2, 0, Program_c, 0, 0
2, 0, Control_c, 0, 64, 0
2, 0, Control_c, 0, 67, 127
2, 753, Note_on_c, 0, 51, 49
2, 766, Note_on_c, 0, 63, 57
2, 835, Note_on_c, 0, 51, 0
2, 840, Note_on_c, 0, 50, 64
2, 895, Note_on_c, 0, 50, 0
2, 914, Note_on_c, 0, 51, 56
2, 960, Note_on_c, 0, 66, 54
2, 962, Note_on_c, 0, 63, 0
2, 1118, Note_on_c, 0, 65, 61
2, 1120, Note_on_c, 0, 66, 0
2, 1160, Control_c, 0, 67, 122
2, 1175, Control_c, 0, 67, 114
2, 1191, Control_c, 0, 67, 103
2, 1206, Control_c, 0, 67, 88
2, 1220, Control_c, 0, 67, 66
2, 1236, Control_c, 0, 67, 39
2, 1251, Control_c, 0, 67, 9
2, 1266, Control_c, 0, 67, 0
2, 1284, Note_on_c, 0, 68, 58
2, 1289, Note_on_c, 0, 65, 0
2, 1457, Note_on_c, 0, 66, 58
2, 1457, Note_on_c, 0, 68, 0
2, 1474, Note_on_c, 0, 39, 46
2, 1540, Control_c, 0, 64, 36
2, 1541, Note_on_c, 0, 51, 0
2, 1555, Control_c, 0, 64, 58
2, 1570, Control_c, 0, 64, 63
2, 1585, Control_c, 0, 64, 69
2, 1601, Control_c, 0, 64, 85
2, 1615, Control_c, 0, 64, 127
2, 1623, Note_on_c, 0, 66, 0
2, 1623, Note_on_c, 0, 70, 65
2, 1660, Note_on_c, 0, 39, 0
2, 1670, Note_on_c, 0, 70, 0
2, 1795, Note_on_c, 0, 68, 67
2, 1943, Note_on_c, 0, 71, 80
2, 2000, Note_on_c, 0, 68, 0
2, 2065, Control_c, 0, 64, 88
2, 2080, Control_c, 0, 64, 73
2, 2095, Control_c, 0, 64, 61
2, 2100, Note_on_c, 0, 71, 0
2, 2111, Control_c, 0, 64, 32
2, 2115, Note_on_c, 0, 70, 71
2, 2125, Control_c, 0, 64, 0
2, 2171, Control_c, 0, 67, 16
2, 2186, Control_c, 0, 67, 56
2, 2201, Control_c, 0, 67, 89
2, 2216, Control_c, 0, 67, 108
2, 2232, Control_c, 0, 67, 125
2, 2247, Control_c, 0, 67, 127
2, 2271, Note_on_c, 0, 75, 68
2, 2293, Note_on_c, 0, 70, 0
2, 2443, Note_on_c, 0, 74, 60
2, 2490, Note_on_c, 0, 75, 0
2, 2619, Note_on_c, 0, 72, 59
2, 2643, Note_on_c, 0, 74, 0
2, 2784, Note_on_c, 0, 70, 56
2, 2794, Note_on_c, 0, 72, 0
2, 2930, Note_on_c, 0, 70, 0
2, 2934, Note_on_c, 0, 68, 59
2, 3092, Note_on_c, 0, 68, 0
2, 3101, Note_on_c, 0, 66, 61
2, 3246, Note_on_c, 0, 66, 0
2, 3263, Note_on_c, 0, 65, 57
2, 3428, Note_on_c, 0, 51, 41
2, 3428, Note_on_c, 0, 65, 0
2, 3440, Note_on_c, 0, 66, 53
2, 3551, Note_on_c, 0, 66, 0
2, 3593, Note_on_c, 0, 54, 61
2, 3607, Note_on_c, 0, 51, 0
2, 3754, Note_on_c, 0, 62, 70
2, 3757, Note_on_c, 0, 53, 56
2, 3822, Note_on_c, 0, 62, 0
2, 3825, Control_c, 0, 67, 101
2, 3841, Control_c, 0, 67, 58
2, 3856, Control_c, 0, 67, 8
2, 3871, Control_c, 0, 67, 0
2, 3901, Note_on_c, 0, 54, 0
2, 3914, Note_on_c, 0, 56, 69
2, 3938, Note_on_c, 0, 53, 0
2, 4069, Note_on_c, 0, 63, 73
2, 4081, Note_on_c, 0, 54, 70
2, 4108, Note_on_c, 0, 63, 0
2, 4218, Note_on_c, 0, 56, 0
2, 4223, Note_on_c, 0, 54, 0
2, 4232, Note_on_c, 0, 58, 74
2, 4389, Note_on_c, 0, 56, 72
2, 4397, Note_on_c, 0, 75, 74
2, 4437, Note_on_c, 0, 58, 0
2, 4439, Note_on_c, 0, 75, 0
2, 4560, Note_on_c, 0, 59, 68
2, 4561, Note_on_c, 0, 56, 0
2, 4593, Control_c, 0, 67, 33
2, 4609, Control_c, 0, 67, 81
2, 4624, Control_c, 0, 67, 125
2, 4640, Control_c, 0, 67, 127
2, 4694, Note_on_c, 0, 59, 0
2, 4703, Note_on_c, 0, 74, 61
2, 4706, Note_on_c, 0, 58, 68
2, 4748, Note_on_c, 0, 74, 0
2, 4782, Note_on_c, 0, 75, 64
2, 4819, Note_on_c, 0, 58, 0
2, 4852, Note_on_c, 0, 74, 69
2, 4873, Note_on_c, 0, 63, 54
2, 4910, Note_on_c, 0, 74, 0
2, 4913, Note_on_c, 0, 75, 0
2, 4941, Note_on_c, 0, 72, 55
2, 5007, Note_on_c, 0, 63, 0
2, 5033, Note_on_c, 0, 62, 57
2, 5044, Note_on_c, 0, 72, 0
2, 5056, Note_on_c, 0, 70, 58
2, 5143, Note_on_c, 0, 62, 0
2, 5166, Note_on_c, 0, 70, 0
2, 5212, Note_on_c, 0, 60, 57
2, 5369, Note_on_c, 0, 58, 61
2, 5371, Note_on_c, 0, 60, 0
2, 5422, Control_c, 0, 67, 106
2, 5438, Control_c, 0, 67, 71
2, 5453, Control_c, 0, 67, 30
2, 5468, Control_c, 0, 67, 0
2, 5499, Note_on_c, 0, 58, 0
2, 5519, Note_on_c, 0, 56, 61
2, 5661, Note_on_c, 0, 56, 0
2, 5668, Note_on_c, 0, 75, 65
2, 5684, Note_on_c, 0, 54, 66
2, 5739, Note_on_c, 0, 74, 70
2, 5774, Note_on_c, 0, 75, 0
2, 5811, Note_on_c, 0, 74, 0
2, 5815, Note_on_c, 0, 54, 0
2, 5815, Note_on_c, 0, 72, 69
2, 5819, Note_on_c, 0, 53, 62
2, 5864, Note_on_c, 0, 72, 0
2, 5887, Note_on_c, 0, 74, 71
2, 5944, Note_on_c, 0, 53, 0
2, 5963, Note_on_c, 0, 54, 66
2, 5974, Note_on_c, 0, 75, 81
2, 6002, Note_on_c, 0, 54, 0
2, 6007, Note_on_c, 0, 74, 0
2, 6128, Note_on_c, 0, 78, 78
2, 6155, Note_on_c, 0, 75, 0
2, 6290, Note_on_c, 0, 77, 78
2, 6298, Note_on_c, 0, 50, 50
2, 6347, Note_on_c, 0, 50, 0
2, 6405, Note_on_c, 0, 78, 0
2, 6452, Note_on_c, 0, 80, 68
2, 6467, Note_on_c, 0, 77, 0
2, 6518, Control_c, 0, 67, 28
2, 6533, Control_c, 0, 67, 78
2, 6547, Control_c, 0, 67, 127
2, 6616, Note_on_c, 0, 51, 61
2, 6618, Note_on_c, 0, 78, 68
2, 6650, Note_on_c, 0, 80, 0
2, 6656, Note_on_c, 0, 51, 0
2, 6763, Note_on_c, 0, 77, 64
2, 6827, Note_on_c, 0, 78, 0
2, 6915, Note_on_c, 0, 77, 0
2, 6927, Note_on_c, 0, 54, 57
2, 6939, Note_on_c, 0, 75, 62
2, 6989, Note_on_c, 0, 54, 0
2, 7005, Control_c, 0, 64, 57
2, 7020, Control_c, 0, 64, 64
2, 7035, Control_c, 0, 64, 68
2, 7050, Control_c, 0, 64, 74
2, 7054, Note_on_c, 0, 75, 0
2, 7065, Control_c, 0, 64, 81
2, 7088, Control_c, 0, 64, 91
2, 7093, Note_on_c, 0, 73, 64
2, 7103, Control_c, 0, 64, 106
2, 7119, Control_c, 0, 64, 127
2, 7131, Note_on_c, 0, 73, 0
2, 7269, Note_on_c, 0, 56, 54
2, 7270, Control_c, 0, 64, 108
2, 7274, Note_on_c, 0, 71, 60
2, 7286, Control_c, 0, 64, 97
2, 7301, Control_c, 0, 64, 88
2, 7304, Note_on_c, 0, 71, 0
2, 7315, Control_c, 0, 64, 78
2, 7331, Control_c, 0, 64, 70
2, 7346, Control_c, 0, 64, 64
2, 7362, Control_c, 0, 64, 52
2, 7377, Control_c, 0, 64, 0
2, 7407, Control_c, 0, 67, 112
2, 7422, Control_c, 0, 67, 94
2, 7431, Note_on_c, 0, 56, 0
2, 7433, Note_on_c, 0, 59, 64
2, 7438, Control_c, 0, 67, 68
2, 7453, Control_c, 0, 67, 33
2, 7467, Control_c, 0, 67, 0
2, 7580, Note_on_c, 0, 58, 70
2, 7580, Note_on_c, 0, 75, 77
2, 7628, Note_on_c, 0, 75, 0
2, 7669, Note_on_c, 0, 59, 0
2, 7727, Note_on_c, 0, 61, 83
2, 7816, Note_on_c, 0, 58, 0
2, 7889, Note_on_c, 0, 61, 0
2, 7901, Note_on_c, 0, 80, 68
2, 7909, Note_on_c, 0, 59, 69
2, 7948, Note_on_c, 0, 80, 0
2, 7962, Note_on_c, 0, 79, 67
2, 8048, Note_on_c, 0, 79, 0
2, 8051, Note_on_c, 0, 80, 70
2, 8069, Note_on_c, 0, 58, 60
2, 8090, Note_on_c, 0, 59, 0
2, 8175, Control_c, 0, 67, 9
2, 8190, Control_c, 0, 67, 59
2, 8206, Control_c, 0, 67, 102
2, 8219, Note_on_c, 0, 58, 0
2, 8220, Note_on_c, 0, 56, 66
2, 8221, Control_c, 0, 67, 127
2, 8357, Note_on_c, 0, 56, 0
2, 8375, Note_on_c, 0, 54, 67
2, 8546, Note_on_c, 0, 54, 0
2, 8558, Note_on_c, 0, 53, 64
2, 8619, Note_on_c, 0, 53, 0
2, 8700, Control_c, 0, 67, 105
2, 8708, Note_on_c, 0, 80, 0
2, 8715, Control_c, 0, 67, 66
2, 8723, Note_on_c, 0, 77, 75
2, 8731, Control_c, 0, 67, 23
2, 8746, Control_c, 0, 67, 0
2, 8868, Note_on_c, 0, 78, 75
2, 8881, Note_on_c, 0, 56, 66
2, 8917, Note_on_c, 0, 56, 0
2, 8946, Note_on_c, 0, 77, 0
2, 9038, Note_on_c, 0, 75, 78
2, 9081, Note_on_c, 0, 78, 0
2, 9178, Note_on_c, 0, 61, 59
2, 9183, Note_on_c, 0, 77, 77
2, 9187, Note_on_c, 0, 75, 0
2, 9260, Note_on_c, 0, 60, 71
2, 9279, Control_c, 0, 67, 44
2, 9294, Control_c, 0, 67, 106
2, 9295, Note_on_c, 0, 61, 0
2, 9308, Control_c, 0, 67, 127
2, 9322, Note_on_c, 0, 60, 0
2, 9343, Note_on_c, 0, 77, 0
2, 9347, Note_on_c, 0, 61, 50
2, 9348, Note_on_c, 0, 80, 65
2, 9533, Note_on_c, 0, 73, 64
2, 9619, Note_on_c, 0, 80, 0
2, 9664, Note_on_c, 0, 73, 0
2, 9689, Note_on_c, 0, 71, 60
2, 9855, Note_on_c, 0, 70, 59
2, 9889, Note_on_c, 0, 71, 0
2, 9906, Note_on_c, 0, 70, 0
2, 10000, Note_on_c, 0, 58, 61
2, 10060, Note_on_c, 0, 61, 0
2, 10077, Control_c, 0, 67, 112
2, 10092, Control_c, 0, 67, 68
2, 10107, Control_c, 0, 67, 12
2, 10123, Control_c, 0, 67, 0
2, 10171, Note_on_c, 0, 59, 64
2, 10176, Note_on_c, 0, 73, 81
2, 10197, Note_on_c, 0, 58, 0
2, 10217, Note_on_c, 0, 73, 0
2, 10323, Note_on_c, 0, 56, 75
2, 10379, Note_on_c, 0, 59, 0
2, 10472, Note_on_c, 0, 58, 72
2, 10493, Note_on_c, 0, 78, 65
2, 10542, Note_on_c, 0, 78, 0
2, 10558, Note_on_c, 0, 56, 0
2, 10558, Note_on_c, 0, 77, 73
2, 10604, Note_on_c, 0, 58, 0
2, 10621, Note_on_c, 0, 61, 70
2, 10646, Note_on_c, 0, 78, 77
2, 10667, Note_on_c, 0, 77, 0
2, 10805, Note_on_c, 0, 54, 72
2, 10839, Note_on_c, 0, 61, 0
2, 10972, Note_on_c, 0, 54, 0
2, 10975, Note_on_c, 0, 53, 76
2, 11146, Note_on_c, 0, 51, 73
2, 11188, Note_on_c, 0, 53, 0
2, 11246, Note_on_c, 0, 51, 0
2, 11310, Note_on_c, 0, 77, 78
2, 11311, Note_on_c, 0, 78, 0
2, 11474, Note_on_c, 0, 75, 78
2, 11480, Note_on_c, 0, 54, 73
2, 11522, Note_on_c, 0, 54, 0
2, 11559, Note_on_c, 0, 77, 0
2, 11641, Note_on_c, 0, 74, 79
2, 11693, Note_on_c, 0, 75, 0
2, 11804, Note_on_c, 0, 59, 62
2, 11804, Note_on_c, 0, 75, 82
2, 11815, Note_on_c, 0, 74, 0
2, 11863, Note_on_c, 0, 59, 0
2, 11876, Note_on_c, 0, 58, 68
2, 11912, Note_on_c, 0, 58, 0
2, 11955, Note_on_c, 0, 59, 63
2, 11960, Note_on_c, 0, 75, 0
2, 11961, Note_on_c, 0, 78, 75
2, 12117, Note_on_c, 0, 68, 68
2, 12119, Control_c, 0, 67, 37
2, 12135, Control_c, 0, 67, 70
2, 12150, Control_c, 0, 67, 97
2, 12166, Control_c, 0, 67, 111
2, 12180, Control_c, 0, 67, 113
2, 12180, Note_on_c, 0, 78, 0
2, 12211, Control_c, 0, 67, 111
2, 12226, Control_c, 0, 67, 108
2, 12241, Control_c, 0, 67, 105
2, 12256, Control_c, 0, 67, 100
2, 12271, Control_c, 0, 67, 95
2, 12287, Control_c, 0, 67, 87
2, 12289, Note_on_c, 0, 78, 79
2, 12292, Note_on_c, 0, 59, 0
2, 12301, Control_c, 0, 67, 72
2, 12307, Note_on_c, 0, 68, 0
2, 12316, Control_c, 0, 67, 45
2, 12332, Control_c, 0, 67, 17
2, 12347, Control_c, 0, 67, 0
2, 12438, Note_on_c, 0, 78, 0
2, 12445, Note_on_c, 0, 49, 62
2, 12464, Note_on_c, 0, 77, 75
2, 12511, Note_on_c, 0, 49, 0
2, 12617, Note_on_c, 0, 75, 80
2, 12656, Note_on_c, 0, 77, 0
2, 12778, Note_on_c, 0, 53, 80
2, 12778, Note_on_c, 0, 73, 90
2, 12833, Note_on_c, 0, 53, 0
2, 12891, Note_on_c, 0, 75, 0
2, 12928, Note_on_c, 0, 72, 85
2, 12951, Note_on_c, 0, 73, 0
2, 13085, Note_on_c, 0, 58, 67
2, 13086, Note_on_c, 0, 73, 86
2, 13119, Note_on_c, 0, 72, 0
2, 13152, Note_on_c, 0, 58, 0
2, 13153, Note_on_c, 0, 56, 68
2, 13225, Note_on_c, 0, 56, 0
2, 13252, Note_on_c, 0, 58, 77
2, 13252, Note_on_c, 0, 73, 0
2, 13258, Note_on_c, 0, 77, 79
2, 13410, Note_on_c, 0, 66, 81
2, 13426, Note_on_c, 0, 77, 0
2, 13576, Note_on_c, 0, 76, 83
2, 13582, Note_on_c, 0, 58, 0
2, 13591, Note_on_c, 0, 66, 0
2, 13738, Note_on_c, 0, 75, 83
2, 13745, Note_on_c, 0, 47, 74
2, 13778, Note_on_c, 0, 76, 0
2, 13821, Note_on_c, 0, 47, 0
2, 13895, Note_on_c, 0, 73, 87
2, 13931, Note_on_c, 0, 75, 0
2, 14069, Note_on_c, 0, 71, 88
2, 14077, Note_on_c, 0, 51, 80
2, 14105, Note_on_c, 0, 73, 0
2, 14152, Note_on_c, 0, 51, 0
2, 14235, Note_on_c, 0, 70, 86
2, 14265, Note_on_c, 0, 71, 0
2, 14427, Note_on_c, 0, 71, 84
2, 14451, Note_on_c, 0, 56, 77
2, 14459, Note_on_c, 0, 70, 0
2, 14593, Note_on_c, 0, 56, 0
2, 14604, Note_on_c, 0, 71, 0
2, 14605, Note_on_c, 0, 75, 86
2, 14778, Note_on_c, 0, 65, 84
2, 14784, Note_on_c, 0, 49, 62
2, 14823, Note_on_c, 0, 75, 0
2, 14916, Note_on_c, 0, 49, 0
2, 14939, Note_on_c, 0, 75, 80
2, 14954, Note_on_c, 0, 65, 0
2, 15096, Note_on_c, 0, 71, 85
2, 15101, Note_on_c, 0, 51, 72
2, 15129, Note_on_c, 0, 75, 0
2, 15151, Note_on_c, 0, 51, 0
2, 15257, Note_on_c, 0, 75, 78
2, 15293, Note_on_c, 0, 71, 0
2, 15440, Note_on_c, 0, 66, 85
2, 15461, Note_on_c, 0, 59, 56
2, 15490, Note_on_c, 0, 75, 0
2, 15604, Note_on_c, 0, 75, 79
2, 15621, Note_on_c, 0, 66, 0
2, 15622, Note_on_c, 0, 59, 0
2, 15765, Note_on_c, 0, 71, 73
2, 15771, Note_on_c, 0, 56, 71
2, 15796, Note_on_c, 0, 75, 0
2, 15867, Note_on_c, 0, 56, 0
2, 15919, Note_on_c, 0, 75, 71
2, 16014, Note_on_c, 0, 71, 0
2, 16084, Note_on_c, 0, 68, 74
2, 16091, Note_on_c, 0, 53, 61
2, 16141, Note_on_c, 0, 75, 0
2, 16161, Note_on_c, 0, 53, 0
2, 16260, Note_on_c, 0, 75, 74
2, 16345, Note_on_c, 0, 68, 0
2, 16421, Note_on_c, 0, 46, 70
2, 16423, Note_on_c, 0, 73, 70
2, 16474, Note_on_c, 0, 46, 0
2, 16499, Note_on_c, 0, 75, 0
2, 16587, Note_on_c, 0, 71, 78
2, 16622, Note_on_c, 0, 73, 0
2, 16746, Note_on_c, 0, 70, 82
2, 16761, Note_on_c, 0, 49, 74
2, 16769, Note_on_c, 0, 71, 0
2, 16818, Note_on_c, 0, 49, 0
2, 16902, Note_on_c, 0, 68, 86
2, 16934, Note_on_c, 0, 70, 0
2, 17076, Note_on_c, 0, 70, 86
2, 17095, Note_on_c, 0, 54, 64
2, 17137, Note_on_c, 0, 68, 0
2, 17196, Note_on_c, 0, 54, 0
2, 17232, Note_on_c, 0, 73, 85
2, 17264, Note_on_c, 0, 70, 0
2, 17409, Note_on_c, 0, 63, 79
2, 17437, Note_on_c, 0, 47, 61
2, 17437, Note_on_c, 0, 73, 0
2, 17552, Note_on_c, 0, 47, 0
2, 17569, Note_on_c, 0, 73, 72
2, 17679, Note_on_c, 0, 63, 0
2, 17729, Note_on_c, 0, 70, 74
2, 17734, Note_on_c, 0, 49, 69
2, 17734, Note_on_c, 0, 73, 0
2, 17853, Note_on_c, 0, 49, 0
2, 17901, Note_on_c, 0, 73, 72
2, 17942, Note_on_c, 0, 70, 0
2, 18081, Note_on_c, 0, 58, 75
2, 18088, Note_on_c, 0, 65, 66
2, 18131, Note_on_c, 0, 73, 0
2, 18220, Note_on_c, 0, 65, 0
2, 18226, Note_on_c, 0, 58, 0
2, 18250, Note_on_c, 0, 73, 71
2, 18398, Note_on_c, 0, 54, 72
2, 18410, Note_on_c, 0, 70, 67
2, 18444, Note_on_c, 0, 73, 0
2, 18515, Note_on_c, 0, 54, 0
2, 18521, Control_c, 0, 67, 14
2, 18537, Control_c, 0, 67, 56
2, 18552, Control_c, 0, 67, 94
2, 18567, Control_c, 0, 67, 122
2, 18568, Note_on_c, 0, 73, 70
2, 18582, Control_c, 0, 67, 127
2, 18604, Note_on_c, 0, 70, 0
2, 18748, Note_on_c, 0, 66, 74
2, 18762, Note_on_c, 0, 51, 57
2, 18802, Note_on_c, 0, 73, 0
2, 18838, Note_on_c, 0, 51, 0
2, 18918, Note_on_c, 0, 73, 70
2, 18973, Note_on_c, 0, 66, 0
2, 19086, Note_on_c, 0, 71, 75
2, 19096, Note_on_c, 0, 44, 58
2, 19117, Note_on_c, 0, 73, 0
2, 19176, Note_on_c, 0, 44, 0
2, 19250, Note_on_c, 0, 70, 73
2, 19260, Note_on_c, 0, 71, 0
2, 19415, Note_on_c, 0, 68, 76
2, 19431, Note_on_c, 0, 47, 60
2, 19461, Note_on_c, 0, 70, 0
2, 19482, Note_on_c, 0, 47, 0
2, 19577, Note_on_c, 0, 66, 81
2, 19604, Note_on_c, 0, 68, 0
2, 19617, Control_c, 0, 67, 118
2, 19631, Control_c, 0, 67, 106
2, 19647, Control_c, 0, 67, 88
2, 19662, Control_c, 0, 67, 62
2, 19677, Control_c, 0, 67, 34
2, 19693, Control_c, 0, 67, 0
2, 19741, Note_on_c, 0, 68, 74
2, 19752, Note_on_c, 0, 53, 59
2, 19790, Note_on_c, 0, 66, 0
2, 19840, Note_on_c, 0, 53, 0
2, 19903, Note_on_c, 0, 71, 75
2, 19905, Note_on_c, 0, 68, 0
2, 20066, Note_on_c, 0, 61, 70
2, 20087, Note_on_c, 0, 46, 53
2, 20087, Note_on_c, 0, 71, 0
2, 20142, Control_c, 0, 67, 9
2, 20157, Control_c, 0, 67, 39
2, 20160, Note_on_c, 0, 46, 0
2, 20173, Control_c, 0, 67, 67
2, 20188, Control_c, 0, 67, 88
2, 20204, Control_c, 0, 67, 105
2, 20218, Control_c, 0, 67, 117
2, 20233, Control_c, 0, 67, 126
2, 20244, Note_on_c, 0, 71, 58
2, 20249, Control_c, 0, 67, 127
2, 20294, Note_on_c, 0, 61, 0
2, 20397, Note_on_c, 0, 47, 58
2, 20399, Note_on_c, 0, 71, 0
2, 20409, Note_on_c, 0, 68, 60
2, 20457, Note_on_c, 0, 47, 0
2, 20568, Note_on_c, 0, 68, 0
2, 20577, Note_on_c, 0, 71, 52
2, 20730, Note_on_c, 0, 63, 69
2, 20751, Note_on_c, 0, 56, 51
2, 20769, Note_on_c, 0, 71, 0
2, 20855, Note_on_c, 0, 56, 0
2, 20894, Note_on_c, 0, 71, 55
2, 20952, Note_on_c, 0, 63, 0
2, 21077, Note_on_c, 0, 68, 58
2, 21080, Note_on_c, 0, 53, 51
2, 21086, Note_on_c, 0, 71, 0
2, 21129, Note_on_c, 0, 53, 0
2, 21233, Note_on_c, 0, 71, 55
2, 21274, Note_on_c, 0, 68, 0
2, 21391, Note_on_c, 0, 65, 54
2, 21405, Note_on_c, 0, 71, 0
2, 21419, Note_on_c, 0, 49, 51
2, 21471, Note_on_c, 0, 49, 0
2, 21545, Note_on_c, 0, 65, 0
2, 21557, Note_on_c, 0, 71, 52
2, 21755, Note_on_c, 0, 70, 55
2, 21757, Note_on_c, 0, 42, 46
2, 21840, Note_on_c, 0, 71, 0
2, 21905, Note_on_c, 0, 42, 0
2, 21917, Note_on_c, 0, 66, 54
2, 21925, Note_on_c, 0, 70, 0
2, 21929, Note_on_c, 0, 46, 54
2, 22071, Note_on_c, 0, 66, 0
2, 22084, Note_on_c, 0, 65, 55
2, 22097, Note_on_c, 0, 44, 58
2, 22097, Note_on_c, 0, 46, 0
2, 22243, Control_c, 0, 67, 122
2, 22246, Note_on_c, 0, 75, 64
2, 22255, Note_on_c, 0, 65, 0
2, 22257, Control_c, 0, 67, 109
2, 22259, Note_on_c, 0, 47, 65
2, 22272, Control_c, 0, 67, 94
2, 22288, Control_c, 0, 67, 75
2, 22303, Control_c, 0, 67, 44
2, 22319, Control_c, 0, 67, 10
2, 22333, Control_c, 0, 67, 0
2, 22351, Note_on_c, 0, 44, 0
2, 22402, Note_on_c, 0, 47, 0
2, 22412, Note_on_c, 0, 46, 68
2, 22412, Note_on_c, 0, 73, 63
2, 22429, Note_on_c, 0, 75, 0
2, 22580, Note_on_c, 0, 49, 69
2, 22584, Note_on_c, 0, 70, 65
2, 22584, Note_on_c, 0, 73, 0
2, 22585, Note_on_c, 0, 46, 0
2, 22726, Note_on_c, 0, 49, 0
2, 22735, Note_on_c, 0, 47, 61
2, 22741, Note_on_c, 0, 70, 0
2, 22754, Note_on_c, 0, 68, 70
2, 22888, Note_on_c, 0, 68, 0
2, 22895, Note_on_c, 0, 78, 72
2, 22904, Note_on_c, 0, 51, 70
2, 22955, Note_on_c, 0, 47, 0
2, 23023, Note_on_c, 0, 78, 0
2, 23058, Note_on_c, 0, 77, 72
2, 23060, Note_on_c, 0, 49, 70
2, 23087, Control_c, 0, 67, 32
2, 23102, Control_c, 0, 67, 98
2, 23117, Control_c, 0, 67, 127
2, 23126, Note_on_c, 0, 77, 0
2, 23130, Note_on_c, 0, 51, 0
2, 23132, Note_on_c, 0, 78, 69
2, 23201, Note_on_c, 0, 77, 76
2, 23233, Note_on_c, 0, 49, 0
2, 23260, Note_on_c, 0, 54, 43
2, 23300, Note_on_c, 0, 77, 0
2, 23302, Note_on_c, 0, 75, 74
2, 23325, Note_on_c, 0, 78, 0
2, 23404, Note_on_c, 0, 54, 0
2, 23417, Note_on_c, 0, 73, 75
2, 23417, Note_on_c, 0, 75, 0
2, 23435, Note_on_c, 0, 53, 54
2, 23601, Note_on_c, 0, 51, 59
2, 23615, Note_on_c, 0, 73, 0
2, 23638, Note_on_c, 0, 53, 0
2, 23758, Note_on_c, 0, 51, 0
2, 23768, Note_on_c, 0, 49, 58
2, 23891, Note_on_c, 0, 49, 0
2, 23922, Note_on_c, 0, 47, 55
2, 24098, Note_on_c, 0, 46, 57
2, 24170, Note_on_c, 0, 47, 0
2, 24265, Note_on_c, 0, 44, 53
2, 24308, Note_on_c, 0, 46, 0
2, 24430, Note_on_c, 0, 66, 51
2, 24436, Note_on_c, 0, 46, 52
2, 24500, Note_on_c, 0, 44, 0
2, 24527, Note_on_c, 0, 46, 0
2, 24568, Note_on_c, 0, 66, 0
2, 24596, Note_on_c, 0, 70, 57
2, 24680, Control_c, 0, 67, 104
2, 24696, Control_c, 0, 67, 74
2, 24711, Control_c, 0, 67, 51
2, 24727, Control_c, 0, 67, 37
2, 24749, Control_c, 0, 67, 25
2, 24765, Control_c, 0, 67, 12
2, 24766, Note_on_c, 0, 70, 0
2, 24772, Note_on_c, 0, 68, 64
2, 24780, Control_c, 0, 67, 0
2, 24786, Note_on_c, 0, 49, 58
2, 24854, Note_on_c, 0, 49, 0
2, 24932, Note_on_c, 0, 71, 78
2, 25061, Note_on_c, 0, 71, 0
2, 25090, Note_on_c, 0, 70, 73
2, 25106, Note_on_c, 0, 54, 67
2, 25149, Note_on_c, 0, 68, 0
2, 25180, Note_on_c, 0, 54, 0
2, 25253, Note_on_c, 0, 73, 80
2, 25270, Note_on_c, 0, 70, 0
2, 25412, Note_on_c, 0, 73, 0
2, 25425, Note_on_c, 0, 56, 71
2, 25425, Note_on_c, 0, 71, 83
2, 25457, Note_on_c, 0, 56, 0
2, 25593, Note_on_c, 0, 75, 80
2, 25640, Note_on_c, 0, 71, 0
2, 25762, Note_on_c, 0, 73, 87
2, 25772, Note_on_c, 0, 58, 71
2, 25849, Note_on_c, 0, 58, 0
2, 25928, Note_on_c, 0, 78, 80
2, 25930, Note_on_c, 0, 75, 0
2, 25961, Note_on_c, 0, 73, 0
2, 26086, Note_on_c, 0, 78, 0
2, 26093, Note_on_c, 0, 77, 81
2, 26096, Note_on_c, 0, 59, 70
2, 26172, Note_on_c, 0, 59, 0
2, 26247, Note_on_c, 0, 75, 84
2, 26284, Note_on_c, 0, 77, 0
2, 26427, Note_on_c, 0, 73, 80
2, 26436, Note_on_c, 0, 61, 68
2, 26502, Note_on_c, 0, 75, 0
2, 26503, Note_on_c, 0, 61, 0
2, 26585, Note_on_c, 0, 71, 76
2, 26599, Note_on_c, 0, 73, 0
2, 26750, Note_on_c, 0, 49, 59
2, 26750, Note_on_c, 0, 70, 76
2, 26786, Note_on_c, 0, 71, 0
2, 26796, Note_on_c, 0, 49, 0
2, 26918, Note_on_c, 0, 68, 69
2, 26922, Note_on_c, 0, 70, 0
2, 27094, Note_on_c, 0, 54, 72
2, 27094, Note_on_c, 0, 70, 76
2, 27140, Note_on_c, 0, 68, 0
2, 27141, Note_on_c, 0, 54, 0
2, 27249, Note_on_c, 0, 73, 78
2, 27271, Note_on_c, 0, 70, 0
2, 27376, Note_on_c, 0, 73, 0
2, 27404, Note_on_c, 0, 51, 73
2, 27407, Note_on_c, 0, 72, 83
2, 27445, Note_on_c, 0, 51, 0
2, 27548, Note_on_c, 0, 75, 83
2, 27604, Note_on_c, 0, 72, 0
2, 27716, Note_on_c, 0, 73, 86
2, 27731, Note_on_c, 0, 53, 58
2, 27767, Note_on_c, 0, 75, 0
2, 27847, Note_on_c, 0, 53, 0
2, 27875, Note_on_c, 0, 73, 0
2, 27878, Note_on_c, 0, 77, 85
2, 28038, Note_on_c, 0, 75, 87
2, 28043, Note_on_c, 0, 77, 0
2, 28061, Note_on_c, 0, 48, 72
2, 28119, Note_on_c, 0, 48, 0
2, 28196, Note_on_c, 0, 78, 87
2, 28205, Note_on_c, 0, 75, 0
2, 28334, Note_on_c, 0, 78, 0
2, 28361, Note_on_c, 0, 77, 85
2, 28378, Note_on_c, 0, 49, 68
2, 28423, Note_on_c, 0, 49, 0
2, 28532, Note_on_c, 0, 82, 84
2, 28548, Note_on_c, 0, 77, 0
2, 28710, Note_on_c, 0, 81, 83
2, 28722, Note_on_c, 0, 51, 73
2, 28776, Note_on_c, 0, 51, 0
2, 28777, Note_on_c, 0, 82, 0
2, 28871, Note_on_c, 0, 79, 89
2, 28921, Note_on_c, 0, 81, 0
2, 29016, Note_on_c, 0, 79, 0
2, 29023, Note_on_c, 0, 77, 84
2, 29046, Note_on_c, 0, 53, 61
2, 29127, Note_on_c, 0, 53, 0
2, 29168, Note_on_c, 0, 75, 73
2, 29220, Note_on_c, 0, 77, 0
2, 29332, Note_on_c, 0, 73, 70
2, 29339, Note_on_c, 0, 41, 51
2, 29374, Control_c, 0, 67, 12
2, 29387, Note_on_c, 0, 41, 0
2, 29389, Control_c, 0, 67, 33
2, 29405, Control_c, 0, 67, 59
2, 29405, Note_on_c, 0, 75, 0
2, 29420, Control_c, 0, 67, 81
2, 29434, Control_c, 0, 67, 102
2, 29450, Control_c, 0, 67, 124
2, 29465, Control_c, 0, 67, 127
2, 29497, Note_on_c, 0, 73, 0
2, 29498, Note_on_c, 0, 72, 67
2, 29678, Note_on_c, 0, 73, 64
2, 29682, Note_on_c, 0, 46, 50
2, 29694, Note_on_c, 0, 72, 0
2, 29791, Note_on_c, 0, 73, 0
2, 29813, Note_on_c, 0, 46, 0
2, 29845, Note_on_c, 0, 49, 55
2, 29978, Note_on_c, 0, 49, 0
2, 29985, Note_on_c, 0, 69, 67
2, 29990, Note_on_c, 0, 48, 53
2, 30062, Note_on_c, 0, 69, 0
2, 30158, Note_on_c, 0, 51, 70
2, 30174, Note_on_c, 0, 48, 0
2, 30320, Note_on_c, 0, 70, 81
2, 30323, Note_on_c, 0, 49, 65
2, 30326, Control_c, 0, 67, 108
2, 30340, Control_c, 0, 67, 73
2, 30355, Control_c, 0, 67, 33
2, 30371, Control_c, 0, 67, 0
2, 30387, Note_on_c, 0, 70, 0
2, 30393, Note_on_c, 0, 51, 0
2, 30462, Note_on_c, 0, 49, 0
2, 30489, Note_on_c, 0, 53, 75
2, 30640, Note_on_c, 0, 78, 85
2, 30642, Note_on_c, 0, 51, 69
2, 30674, Note_on_c, 0, 53, 0
2, 30725, Note_on_c, 0, 78, 0
2, 30799, Note_on_c, 0, 54, 77
2, 30869, Note_on_c, 0, 51, 0
2, 30960, Note_on_c, 0, 53, 73
2, 30963, Note_on_c, 0, 69, 72
2, 30995, Note_on_c, 0, 54, 0
2, 31045, Note_on_c, 0, 69, 0
2, 31046, Note_on_c, 0, 67, 73
2, 31048, Control_c, 0, 67, 29
2, 31063, Control_c, 0, 67, 79
2, 31079, Control_c, 0, 67, 127
2, 31084, Note_on_c, 0, 53, 0
2, 31094, Control_c, 0, 67, 127
2, 31106, Note_on_c, 0, 67, 0
2, 31125, Note_on_c, 0, 58, 67
2, 31125, Note_on_c, 0, 65, 70
2, 31281, Note_on_c, 0, 58, 0
2, 31312, Note_on_c, 0, 75, 71
2, 31318, Note_on_c, 0, 57, 53
2, 31358, Note_on_c, 0, 65, 0
2, 31407, Note_on_c, 0, 57, 0
2, 31469, Note_on_c, 0, 55, 62
2, 31485, Note_on_c, 0, 75, 0
2, 31619, Note_on_c, 0, 53, 57
2, 31632, Note_on_c, 0, 55, 0
2, 31760, Note_on_c, 0, 53, 0
2, 31799, Note_on_c, 0, 69, 67
2, 31806, Note_on_c, 0, 51, 60
2, 31876, Control_c, 0, 67, 116
2, 31891, Control_c, 0, 67, 90
2, 31906, Control_c, 0, 67, 52
2, 31922, Control_c, 0, 67, 0
2, 31945, Note_on_c, 0, 51, 0
2, 31956, Note_on_c, 0, 70, 75
2, 31968, Note_on_c, 0, 49, 65
2, 32029, Note_on_c, 0, 69, 0
2, 32118, Note_on_c, 0, 49, 0
2, 32122, Note_on_c, 0, 72, 80
2, 32133, Note_on_c, 0, 70, 0
2, 32134, Note_on_c, 0, 48, 64
2, 32288, Note_on_c, 0, 72, 0
2, 32289, Note_on_c, 0, 48, 0
2, 32292, Note_on_c, 0, 65, 75
2, 32295, Note_on_c, 0, 49, 51
2, 32476, Note_on_c, 0, 73, 70
2, 32485, Note_on_c, 0, 53, 51
2, 32497, Note_on_c, 0, 49, 0
2, 32577, Note_on_c, 0, 65, 0
2, 32585, Note_on_c, 0, 53, 0
2, 32603, Note_on_c, 0, 73, 0
2, 32631, Note_on_c, 0, 72, 70
2, 32635, Note_on_c, 0, 51, 58
2, 32764, Note_on_c, 0, 51, 0
2, 32782, Note_on_c, 0, 54, 62
2, 32792, Note_on_c, 0, 72, 0
2, 32801, Note_on_c, 0, 75, 77
2, 32905, Note_on_c, 0, 54, 0
2, 32936, Note_on_c, 0, 53, 72
2, 32945, Note_on_c, 0, 73, 81
2, 33029, Note_on_c, 0, 75, 0
2, 33081, Note_on_c, 0, 72, 69
2, 33107, Note_on_c, 0, 51, 74
2, 33143, Note_on_c, 0, 53, 0
2, 33182, Note_on_c, 0, 73, 0
2, 33267, Note_on_c, 0, 70, 81
2, 33270, Note_on_c, 0, 51, 0
2, 33273, Note_on_c, 0, 49, 71
2, 33344, Note_on_c, 0, 72, 0
2, 33416, Note_on_c, 0, 69, 76
2, 33420, Note_on_c, 0, 48, 72
2, 33439, Note_on_c, 0, 70, 0
2, 33458, Note_on_c, 0, 49, 0
2, 33576, Note_on_c, 0, 48, 0
2, 33582, Note_on_c, 0, 69, 0
2, 33589, Note_on_c, 0, 73, 80
2, 33595, Note_on_c, 0, 46, 65
2, 33744, Note_on_c, 0, 70, 72
2, 33756, Note_on_c, 0, 49, 65
2, 33760, Note_on_c, 0, 46, 0
2, 33790, Note_on_c, 0, 73, 0
2, 33894, Note_on_c, 0, 49, 0
2, 33906, Note_on_c, 0, 69, 77
2, 33909, Note_on_c, 0, 70, 0
2, 33922, Note_on_c, 0, 48, 69
2, 34070, Note_on_c, 0, 72, 80
2, 34087, Note_on_c, 0, 69, 0
2, 34089, Note_on_c, 0, 51, 72
2, 34092, Note_on_c, 0, 48, 0
2, 34231, Note_on_c, 0, 51, 0
2, 34242, Note_on_c, 0, 70, 79
2, 34245, Note_on_c, 0, 49, 71
2, 34255, Note_on_c, 0, 72, 0
2, 34286, Control_c, 0, 64, 16
2, 34301, Control_c, 0, 64, 53
2, 34316, Control_c, 0, 64, 62
2, 34332, Control_c, 0, 64, 68
2, 34346, Control_c, 0, 64, 77
2, 34358, Note_on_c, 0, 49, 0
2, 34362, Control_c, 0, 64, 92
2, 34377, Control_c, 0, 64, 127
2, 34382, Note_on_c, 0, 70, 0
2, 34398, Note_on_c, 0, 68, 80
2, 34403, Note_on_c, 0, 48, 80
2, 34548, Note_on_c, 0, 68, 0
2, 34551, Note_on_c, 0, 66, 80
2, 34568, Note_on_c, 0, 46, 79
2, 34583, Note_on_c, 0, 48, 0
2, 34588, Control_c, 0, 64, 100
2, 34603, Control_c, 0, 64, 80
2, 34619, Control_c, 0, 64, 68
2, 34634, Control_c, 0, 64, 57
2, 34649, Control_c, 0, 64, 0
2, 34717, Note_on_c, 0, 65, 78
2, 34731, Note_on_c, 0, 44, 77
2, 34771, Note_on_c, 0, 46, 0
2, 34776, Note_on_c, 0, 66, 0
2, 34914, Note_on_c, 0, 65, 0
2, 34917, Note_on_c, 0, 63, 80
2, 34920, Note_on_c, 0, 44, 0
2, 34942, Note_on_c, 0, 43, 70
2, 35086, Note_on_c, 0, 73, 79
2, 35092, Note_on_c, 0, 43, 0
2, 35099, Note_on_c, 0, 46, 73
2, 35136, Note_on_c, 0, 63, 0
2, 35226, Note_on_c, 0, 46, 0
2, 35247, Note_on_c, 0, 72, 80
2, 35247, Note_on_c, 0, 73, 0
2, 35253, Note_on_c, 0, 45, 76
2, 35381, Note_on_c, 0, 45, 0
2, 35397, Note_on_c, 0, 48, 75
2, 35400, Note_on_c, 0, 75, 89
2, 35409, Note_on_c, 0, 72, 0
2, 35560, Note_on_c, 0, 73, 82
2, 35572, Note_on_c, 0, 48, 0
2, 35576, Note_on_c, 0, 46, 75
2, 35617, Note_on_c, 0, 75, 0
2, 35620, Control_c, 0, 64, 32
2, 35635, Control_c, 0, 64, 53
2, 35650, Control_c, 0, 64, 62
2, 35666, Control_c, 0, 64, 67
2, 35681, Control_c, 0, 64, 77
2, 35697, Control_c, 0, 64, 110
2, 35708, Note_on_c, 0, 72, 87
2, 35711, Control_c, 0, 64, 127
2, 35722, Note_on_c, 0, 44, 79
2, 35745, Note_on_c, 0, 46, 0
2, 35828, Note_on_c, 0, 44, 0
2, 35853, Note_on_c, 0, 73, 0
2, 35867, Note_on_c, 0, 43, 79
2, 35871, Note_on_c, 0, 70, 81
2, 35884, Note_on_c, 0, 72, 0
2, 35939, Control_c, 0, 64, 92
2, 35953, Control_c, 0, 64, 69
2, 35968, Control_c, 0, 64, 44
2, 35984, Control_c, 0, 64, 0
2, 35994, Note_on_c, 0, 43, 0
2, 36015, Note_on_c, 0, 70, 0
2, 36020, Note_on_c, 0, 69, 85
2, 36029, Note_on_c, 0, 41, 86
2, 36231, Note_on_c, 0, 41, 0
2, 36234, Note_on_c, 0, 40, 85
2, 36236, Note_on_c, 0, 79, 88
2, 36250, Note_on_c, 0, 69, 0
2, 36283, Control_c, 0, 64, 8
2, 36299, Control_c, 0, 64, 53
2, 36314, Control_c, 0, 64, 66
2, 36321, Note_on_c, 0, 40, 0
2, 36330, Control_c, 0, 64, 84
2, 36344, Control_c, 0, 64, 127
2, 36415, Note_on_c, 0, 73, 89
2, 36438, Note_on_c, 0, 79, 0
2, 36481, Control_c, 0, 64, 116
2, 36497, Control_c, 0, 64, 69
2, 36512, Control_c, 0, 64, 0
2, 36575, Note_on_c, 0, 69, 84
2, 36585, Note_on_c, 0, 73, 0
2, 36591, Note_on_c, 0, 52, 82
2, 36668, Note_on_c, 0, 52, 0
2, 36679, Control_c, 0, 64, 60
2, 36695, Control_c, 0, 64, 74
2, 36710, Control_c, 0, 64, 127
2, 36743, Note_on_c, 0, 70, 86
2, 36813, Note_on_c, 0, 69, 0
2, 36847, Control_c, 0, 64, 71
2, 36862, Control_c, 0, 64, 0
2, 36891, Note_on_c, 0, 70, 0
2, 36892, Control_c, 0, 64, 55
2, 36897, Note_on_c, 0, 81, 88
2, 36907, Control_c, 0, 64, 68
2, 36922, Control_c, 0, 64, 92
2, 36937, Note_on_c, 0, 81, 0
2, 36938, Control_c, 0, 64, 127
2, 37055, Note_on_c, 0, 82, 80
2, 37067, Note_on_c, 0, 54, 78
2, 37125, Note_on_c, 0, 82, 0
2, 37134, Note_on_c, 0, 81, 83
2, 37158, Note_on_c, 0, 54, 0
2, 37189, Control_c, 0, 64, 91
2, 37195, Note_on_c, 0, 53, 72
2, 37201, Note_on_c, 0, 82, 85
2, 37203, Note_on_c, 0, 81, 0
2, 37205, Control_c, 0, 64, 70
2, 37220, Control_c, 0, 64, 53
2, 37235, Control_c, 0, 64, 0
2, 37270, Note_on_c, 0, 81, 85
2, 37293, Note_on_c, 0, 82, 0
2, 37344, Note_on_c, 0, 81, 0
2, 37355, Note_on_c, 0, 53, 0
2, 37358, Note_on_c, 0, 79, 84
2, 37389, Note_on_c, 0, 51, 74
2, 37439, Note_on_c, 0, 81, 85
2, 37468, Note_on_c, 0, 79, 0
2, 37547, Note_on_c, 0, 82, 86
2, 37548, Note_on_c, 0, 81, 0
2, 37566, Note_on_c, 0, 49, 75
2, 37618, Note_on_c, 0, 51, 0
2, 37703, Note_on_c, 0, 49, 0
2, 37720, Note_on_c, 0, 80, 79
2, 37740, Note_on_c, 0, 48, 71
2, 37773, Note_on_c, 0, 82, 0
2, 37784, Note_on_c, 0, 78, 85
2, 37833, Note_on_c, 0, 80, 0
2, 37870, Note_on_c, 0, 77, 85
2, 37883, Note_on_c, 0, 49, 73
2, 37910, Note_on_c, 0, 78, 0
2, 37921, Note_on_c, 0, 48, 0
2, 38031, Note_on_c, 0, 75, 87
2, 38044, Note_on_c, 0, 51, 79
2, 38067, Note_on_c, 0, 77, 0
2, 38086, Note_on_c, 0, 49, 0
2, 38179, Note_on_c, 0, 51, 0
2, 38202, Note_on_c, 0, 53, 75
2, 38205, Note_on_c, 0, 73, 92
2, 38358, Note_on_c, 0, 75, 0
2, 38368, Note_on_c, 0, 82, 93
2, 38379, Note_on_c, 0, 54, 72
2, 38384, Control_c, 0, 64, 37
2, 38400, Control_c, 0, 64, 55
2, 38401, Note_on_c, 0, 73, 0
2, 38413, Note_on_c, 0, 53, 0
2, 38415, Control_c, 0, 64, 61
2, 38430, Control_c, 0, 64, 63
2, 38445, Control_c, 0, 64, 67
2, 38460, Control_c, 0, 64, 75
2, 38475, Control_c, 0, 64, 91
2, 38490, Control_c, 0, 64, 127
2, 38518, Note_on_c, 0, 54, 0
2, 38528, Note_on_c, 0, 72, 81
2, 38541, Note_on_c, 0, 51, 80
2, 38646, Note_on_c, 0, 72, 0
2, 38646, Note_on_c, 0, 82, 0
2, 38680, Note_on_c, 0, 51, 0
2, 38696, Note_on_c, 0, 81, 69
2, 38701, Note_on_c, 0, 53, 85
2, 38742, Control_c, 0, 64, 93
2, 38758, Control_c, 0, 64, 66
2, 38773, Control_c, 0, 64, 0
2, 38868, Note_on_c, 0, 53, 0
2, 38887, Note_on_c, 0, 54, 96
2, 38896, Note_on_c, 0, 82, 85
2, 38918, Note_on_c, 0, 81, 0
2, 38924, Control_c, 0, 64, 55
2, 38933, Note_on_c, 0, 54, 0
2, 38939, Control_c, 0, 64, 68
2, 38948, Note_on_c, 0, 83, 32
2, 38954, Control_c, 0, 64, 115
2, 38970, Control_c, 0, 64, 127
2, 38984, Note_on_c, 0, 83, 0
2, 39040, Note_on_c, 0, 82, 0
2, 39057, Note_on_c, 0, 70, 83
2, 39092, Control_c, 0, 64, 85
2, 39107, Control_c, 0, 64, 60
2, 39123, Control_c, 0, 64, 0
2, 39236, Note_on_c, 0, 42, 85
2, 39241, Note_on_c, 0, 75, 77
2, 39244, Control_c, 0, 64, 60
2, 39259, Control_c, 0, 64, 72
2, 39260, Note_on_c, 0, 70, 0
2, 39269, Note_on_c, 0, 42, 0
2, 39274, Control_c, 0, 64, 127
2, 39314, Note_on_c, 0, 73, 80
2, 39389, Note_on_c, 0, 75, 0
2, 39392, Note_on_c, 0, 72, 80
2, 39431, Control_c, 0, 64, 97
2, 39432, Note_on_c, 0, 73, 0
2, 39448, Control_c, 0, 64, 72
2, 39462, Control_c, 0, 64, 47
2, 39477, Control_c, 0, 64, 0
2, 39570, Note_on_c, 0, 41, 88
2, 39573, Note_on_c, 0, 73, 85
2, 39588, Note_on_c, 0, 72, 0
2, 39616, Note_on_c, 0, 41, 0
2, 39630, Control_c, 0, 64, 55
2, 39645, Control_c, 0, 64, 67
2, 39660, Control_c, 0, 64, 87
2, 39675, Control_c, 0, 64, 127
2, 39729, Note_on_c, 0, 72, 67
2, 39781, Control_c, 0, 64, 96
2, 39796, Control_c, 0, 64, 70
2, 39812, Control_c, 0, 64, 40
2, 39827, Control_c, 0, 64, 0
2, 39829, Note_on_c, 0, 70, 76
2, 39833, Note_on_c, 0, 73, 0
2, 39866, Note_on_c, 0, 72, 0
2, 39916, Note_on_c, 0, 69, 83
2, 39918, Note_on_c, 0, 70, 0
2, 39935, Note_on_c, 0, 39, 82
2, 39948, Control_c, 0, 64, 48
2, 39963, Control_c, 0, 64, 62
2, 39963, Note_on_c, 0, 39, 0
2, 39979, Control_c, 0, 64, 70
2, 39994, Control_c, 0, 64, 112
2, 40010, Control_c, 0, 64, 127
2, 40013, Note_on_c, 0, 70, 84
2, 40024, Note_on_c, 0, 69, 0
2, 40104, Note_on_c, 0, 72, 85
2, 40123, Control_c, 0, 64, 83
2, 40129, Note_on_c, 0, 70, 0
2, 40138, Control_c, 0, 64, 62
2, 40153, Control_c, 0, 64, 0
2, 40263, Note_on_c, 0, 72, 0
2, 40282, Note_on_c, 0, 65, 81
2, 40285, Note_on_c, 0, 37, 84
2, 40291, Control_c, 0, 64, 39
2, 40306, Control_c, 0, 64, 61
2, 40316, Note_on_c, 0, 37, 0
2, 40321, Control_c, 0, 64, 66
2, 40337, Control_c, 0, 64, 76
2, 40352, Control_c, 0, 64, 127
2, 40374, Note_on_c, 0, 70, 84
2, 40401, Note_on_c, 0, 65, 0
2, 40457, Note_on_c, 0, 68, 79
2, 40505, Control_c, 0, 64, 111
2, 40520, Control_c, 0, 64, 81
2, 40520, Note_on_c, 0, 70, 0
2, 40536, Control_c, 0, 64, 66
2, 40541, Note_on_c, 0, 66, 78
2, 40551, Control_c, 0, 64, 37
2, 40566, Control_c, 0, 64, 0
2, 40602, Note_on_c, 0, 68, 0
2, 40634, Note_on_c, 0, 65, 88
2, 40639, Note_on_c, 0, 49, 68
2, 40665, Note_on_c, 0, 66, 0
2, 40795, Note_on_c, 0, 63, 86
2, 40805, Note_on_c, 0, 51, 85
2, 40826, Note_on_c, 0, 49, 0
2, 40845, Note_on_c, 0, 65, 0
2, 40974, Note_on_c, 0, 51, 0
2, 40979, Note_on_c, 0, 53, 87
2, 40979, Note_on_c, 0, 61, 91
2, 41048, Note_on_c, 0, 63, 0
2, 41060, Note_on_c, 0, 53, 0
2, 41153, Note_on_c, 0, 60, 82
2, 41158, Note_on_c, 0, 61, 0
2, 41251, Note_on_c, 0, 61, 87
2, 41253, Note_on_c, 0, 60, 0
2, 41322, Note_on_c, 0, 41, 78
2, 41337, Note_on_c, 0, 63, 86
2, 41359, Note_on_c, 0, 41, 0
2, 41365, Note_on_c, 0, 61, 0
2, 41440, Note_on_c, 0, 61, 93
2, 41490, Note_on_c, 0, 63, 0
2, 41552, Note_on_c, 0, 60, 90
2, 41596, Note_on_c, 0, 61, 0
2, 41808, Note_on_c, 0, 58, 90
2, 41817, Note_on_c, 0, 60, 0
2, 41818, Note_on_c, 0, 46, 79
2, 42073, Note_on_c, 0, 61, 84
2, 42271, Note_on_c, 0, 65, 82
2, 42274, Note_on_c, 0, 61, 0
2, 42444, Control_c, 0, 64, 20
2, 42459, Control_c, 0, 64, 55
2, 42474, Control_c, 0, 64, 62
2, 42476, Note_on_c, 0, 69, 79
2, 42480, Note_on_c, 0, 65, 0
2, 42490, Control_c, 0, 64, 65
2, 42495, Note_on_c, 0, 58, 0
2, 42500, Note_on_c, 0, 68, 14
2, 42505, Control_c, 0, 64, 69
2, 42508, Note_on_c, 0, 68, 0
2, 42519, Note_on_c, 0, 69, 0
2, 42520, Control_c, 0, 64, 78
2, 42535, Control_c, 0, 64, 92
2, 42550, Control_c, 0, 64, 117
2, 42566, Control_c, 0, 64, 127
2, 42779, Control_c, 0, 64, 119
2, 42785, Note_on_c, 0, 69, 84
2, 42794, Control_c, 0, 64, 94
2, 42810, Control_c, 0, 64, 79
2, 42824, Control_c, 0, 64, 67
2, 42840, Control_c, 0, 64, 53
2, 42855, Control_c, 0, 64, 0
2, 43313, Note_on_c, 0, 70, 76
2, 43345, Note_on_c, 0, 69, 0
2, 43364, Control_c, 0, 64, 43
2, 43379, Control_c, 0, 64, 54
2, 43394, Control_c, 0, 64, 61
2, 43410, Control_c, 0, 64, 65
2, 43425, Control_c, 0, 64, 73
2, 43440, Control_c, 0, 64, 89
2, 43455, Control_c, 0, 64, 127
2, 43468, Note_on_c, 0, 70, 0
2, 43548, Control_c, 0, 67, 10
2, 43563, Note_on_c, 0, 46, 0
2, 43564, Control_c, 0, 67, 49
2, 43579, Control_c, 0, 67, 84
2, 43593, Control_c, 0, 67, 114
2, 43609, Control_c, 0, 67, 127
2, 43996, Control_c, 0, 64, 106
2, 44008, Note_on_c, 0, 80, 57
2, 44011, Control_c, 0, 64, 95
2, 44011, Note_on_c, 0, 46, 46
2, 44026, Control_c, 0, 64, 88
2, 44042, Control_c, 0, 64, 82
2, 44057, Control_c, 0, 64, 72
2, 44072, Control_c, 0, 64, 64
2, 44088, Control_c, 0, 64, 49
2, 44103, Control_c, 0, 64, 0
2, 44198, Note_on_c, 0, 46, 0
2, 44213, Note_on_c, 0, 77, 60
2, 44239, Note_on_c, 0, 50, 52
2, 44280, Note_on_c, 0, 80, 0
2, 44303, Note_on_c, 0, 74, 61
2, 44304, Note_on_c, 0, 77, 0
2, 44381, Note_on_c, 0, 70, 54
2, 44383, Note_on_c, 0, 74, 0
2, 44400, Note_on_c, 0, 50, 0
2, 44405, Note_on_c, 0, 48, 52
2, 44583, Note_on_c, 0, 51, 55
2, 44644, Note_on_c, 0, 48, 0
2, 44745, Note_on_c, 0, 51, 0
2, 44750, Note_on_c, 0, 50, 55
2, 44859, Note_on_c, 0, 50, 0
2, 44905, Note_on_c, 0, 74, 59
2, 44907, Note_on_c, 0, 53, 59
2, 44922, Note_on_c, 0, 70, 0
2, 44964, Note_on_c, 0, 74, 0
2, 44974, Note_on_c, 0, 77, 69
2, 45051, Note_on_c, 0, 78, 73
2, 45052, Control_c, 0, 67, 86
2, 45054, Note_on_c, 0, 77, 0
2, 45060, Note_on_c, 0, 53, 0
2, 45067, Control_c, 0, 67, 24
2, 45083, Control_c, 0, 67, 0
2, 45088, Note_on_c, 0, 51, 55
2, 45124, Note_on_c, 0, 77, 64
2, 45201, Note_on_c, 0, 78, 0
2, 45207, Note_on_c, 0, 77, 0
2, 45218, Note_on_c, 0, 75, 70
2, 45247, Note_on_c, 0, 54, 63
2, 45311, Note_on_c, 0, 51, 0
2, 45358, Note_on_c, 0, 75, 0
2, 45375, Note_on_c, 0, 54, 0
2, 45382, Note_on_c, 0, 74, 71
2, 45406, Note_on_c, 0, 53, 58
2, 45530, Note_on_c, 0, 53, 0
2, 45545, Control_c, 0, 67, 32
2, 45559, Control_c, 0, 67, 79
2, 45575, Control_c, 0, 67, 127
2, 45577, Note_on_c, 0, 56, 52
2, 45577, Note_on_c, 0, 74, 0
2, 45577, Note_on_c, 0, 77, 70
2, 45648, Note_on_c, 0, 77, 0
2, 45655, Note_on_c, 0, 80, 69
2, 45751, Note_on_c, 0, 80, 0
2, 45758, Note_on_c, 0, 83, 69
2, 45769, Note_on_c, 0, 56, 0
2, 45782, Note_on_c, 0, 54, 55
2, 45904, Note_on_c, 0, 54, 0
2, 45959, Note_on_c, 0, 53, 25
2, 46147, Note_on_c, 0, 51, 52
2, 46171, Note_on_c, 0, 53, 0
2, 46273, Note_on_c, 0, 51, 0
2, 46279, Note_on_c, 0, 83, 0
2, 46310, Note_on_c, 0, 50, 55
2, 46317, Note_on_c, 0, 77, 63
2, 46391, Note_on_c, 0, 77, 0
2, 46406, Note_on_c, 0, 75, 66
2, 46457, Note_on_c, 0, 50, 0
2, 46470, Note_on_c, 0, 77, 65
2, 46478, Note_on_c, 0, 48, 57
2, 46492, Note_on_c, 0, 75, 0
2, 46552, Note_on_c, 0, 78, 79
2, 46558, Note_on_c, 0, 77, 0
2, 46636, Note_on_c, 0, 80, 81
2, 46639, Note_on_c, 0, 78, 0
2, 46647, Note_on_c, 0, 46, 55
2, 46687, Note_on_c, 0, 48, 0
2, 46791, Note_on_c, 0, 46, 0
2, 46824, Note_on_c, 0, 78, 75
2, 46829, Note_on_c, 0, 51, 65
2, 46852, Note_on_c, 0, 80, 0
2, 46904, Note_on_c, 0, 51, 0
2, 46992, Note_on_c, 0, 77, 79
2, 47021, Control_c, 0, 67, 113
2, 47036, Control_c, 0, 67, 83
2, 47051, Control_c, 0, 67, 41
2, 47066, Control_c, 0, 67, 0
2, 47170, Note_on_c, 0, 54, 78
2, 47170, Note_on_c, 0, 75, 75
2, 47194, Note_on_c, 0, 78, 0
2, 47205, Note_on_c, 0, 77, 0
2, 47214, Note_on_c, 0, 54, 0
2, 47328, Note_on_c, 0, 74, 74
2, 47338, Note_on_c, 0, 75, 0
2, 47494, Note_on_c, 0, 75, 73
2, 47500, Note_on_c, 0, 60, 79
2, 47525, Note_on_c, 0, 74, 0
2, 47540, Note_on_c, 0, 60, 0
2, 47661, Note_on_c, 0, 78, 77
2, 47680, Note_on_c, 0, 75, 0
2, 47833, Note_on_c, 0, 68, 74
2, 47839, Note_on_c, 0, 78, 0
2, 47861, Note_on_c, 0, 53, 46
2, 47898, Note_on_c, 0, 53, 0
2, 48009, Note_on_c, 0, 78, 65
2, 48063, Control_c, 0, 67, 40
2, 48078, Control_c, 0, 67, 77
2, 48091, Note_on_c, 0, 68, 0
2, 48093, Control_c, 0, 67, 110
2, 48108, Control_c, 0, 67, 127
2, 48174, Note_on_c, 0, 75, 73
2, 48180, Note_on_c, 0, 54, 68
2, 48202, Note_on_c, 0, 78, 0
2, 48226, Note_on_c, 0, 54, 0
2, 48345, Note_on_c, 0, 78, 67
2, 48390, Note_on_c, 0, 75, 0
2, 48509, Note_on_c, 0, 70, 70
2, 48515, Note_on_c, 0, 63, 52
2, 48551, Note_on_c, 0, 78, 0
2, 48632, Note_on_c, 0, 63, 0
2, 48678, Note_on_c, 0, 78, 65
2, 48770, Note_on_c, 0, 70, 0
2, 48832, Note_on_c, 0, 60, 54
2, 48835, Note_on_c, 0, 75, 61
2, 48846, Note_on_c, 0, 78, 0
2, 48896, Note_on_c, 0, 60, 0
2, 48992, Note_on_c, 0, 78, 58
2, 49008, Note_on_c, 0, 75, 0
2, 49116, Note_on_c, 0, 78, 0
2, 49160, Note_on_c, 0, 72, 62
2, 49170, Note_on_c, 0, 56, 57
2, 49213, Note_on_c, 0, 56, 0
2, 49326, Note_on_c, 0, 72, 0
2, 49335, Note_on_c, 0, 78, 62
2, 49492, Note_on_c, 0, 73, 63
2, 49504, Note_on_c, 0, 59, 47
2, 49552, Control_c, 0, 64, 29
2, 49560, Note_on_c, 0, 78, 0
2, 49568, Control_c, 0, 64, 52
2, 49582, Control_c, 0, 64, 60
2, 49597, Control_c, 0, 64, 64
2, 49597, Note_on_c, 0, 59, 0
2, 49613, Control_c, 0, 64, 67
2, 49621, Note_on_c, 0, 73, 0
2, 49628, Control_c, 0, 64, 72
2, 49643, Control_c, 0, 64, 80
2, 49645, Note_on_c, 0, 56, 53
2, 49647, Note_on_c, 0, 77, 67
2, 49659, Control_c, 0, 64, 92
2, 49674, Control_c, 0, 64, 105
2, 49689, Note_on_c, 0, 53, 69
2, 49690, Control_c, 0, 64, 127
2, 49692, Note_on_c, 0, 56, 0
2, 49735, Note_on_c, 0, 77, 0
2, 49777, Note_on_c, 0, 53, 0
2, 49780, Control_c, 0, 64, 121
2, 49795, Control_c, 0, 64, 103
2, 49798, Note_on_c, 0, 49, 68
2, 49798, Note_on_c, 0, 75, 74
2, 49811, Control_c, 0, 64, 88
2, 49826, Control_c, 0, 64, 75
2, 49840, Control_c, 0, 64, 64
2, 49856, Control_c, 0, 64, 30
2, 49871, Control_c, 0, 64, 0
2, 49877, Note_on_c, 0, 49, 0
2, 49944, Note_on_c, 0, 75, 0
2, 49968, Note_on_c, 0, 78, 72
2, 50135, Note_on_c, 0, 78, 0
2, 50139, Note_on_c, 0, 77, 69
2, 50292, Note_on_c, 0, 80, 73
2, 50297, Note_on_c, 0, 53, 52
2, 50304, Note_on_c, 0, 77, 0
2, 50320, Control_c, 0, 64, 39
2, 50336, Control_c, 0, 64, 51
2, 50343, Note_on_c, 0, 53, 0
2, 50350, Control_c, 0, 64, 55
2, 50350, Note_on_c, 0, 56, 65
2, 50366, Control_c, 0, 64, 58
2, 50381, Control_c, 0, 64, 62
2, 50393, Note_on_c, 0, 56, 0
2, 50396, Control_c, 0, 64, 64
2, 50412, Control_c, 0, 64, 65
2, 50435, Note_on_c, 0, 58, 66
2, 50440, Note_on_c, 0, 78, 76
2, 50457, Control_c, 0, 64, 65
2, 50472, Control_c, 0, 64, 63
2, 50488, Control_c, 0, 64, 59
2, 50503, Control_c, 0, 64, 46
2, 50506, Note_on_c, 0, 56, 72
2, 50506, Note_on_c, 0, 80, 0
2, 50508, Note_on_c, 0, 58, 0
2, 50517, Control_c, 0, 64, 0
2, 50579, Note_on_c, 0, 56, 0
2, 50594, Note_on_c, 0, 54, 68
2, 50595, Note_on_c, 0, 78, 0
2, 50596, Note_on_c, 0, 82, 77
2, 50755, Note_on_c, 0, 54, 0
2, 50770, Note_on_c, 0, 80, 75
2, 50795, Note_on_c, 0, 53, 44
2, 50802, Note_on_c, 0, 82, 0
2, 50896, Note_on_c, 0, 53, 0
2, 50941, Note_on_c, 0, 80, 0
2, 50942, Note_on_c, 0, 83, 79
2, 50955, Note_on_c, 0, 56, 60
2, 51009, Note_on_c, 0, 56, 0
2, 51014, Note_on_c, 0, 59, 62
2, 51100, Note_on_c, 0, 82, 75
2, 51103, Note_on_c, 0, 59, 0
2, 51109, Note_on_c, 0, 63, 70
2, 51138, Note_on_c, 0, 83, 0
2, 51280, Note_on_c, 0, 80, 69
2, 51300, Note_on_c, 0, 82, 0
2, 51361, Control_c, 0, 64, 27
2, 51377, Control_c, 0, 64, 49
2, 51391, Control_c, 0, 64, 55
2, 51407, Control_c, 0, 64, 58
2, 51422, Control_c, 0, 64, 61
2, 51437, Control_c, 0, 64, 64
2, 51437, Note_on_c, 0, 78, 73
2, 51452, Control_c, 0, 64, 69
2, 51460, Note_on_c, 0, 80, 0
2, 51467, Control_c, 0, 64, 75
2, 51482, Control_c, 0, 64, 83
2, 51498, Control_c, 0, 64, 90
2, 51513, Control_c, 0, 64, 92
2, 51528, Control_c, 0, 64, 93
2, 51580, Note_on_c, 0, 78, 0
2, 51591, Note_on_c, 0, 77, 71
2, 51605, Note_on_c, 0, 56, 52
2, 51625, Note_on_c, 0, 63, 0
2, 51646, Note_on_c, 0, 56, 0
2, 51652, Note_on_c, 0, 54, 70
2, 51688, Control_c, 0, 64, 92
2, 51703, Control_c, 0, 64, 91
2, 51718, Control_c, 0, 64, 88
2, 51729, Note_on_c, 0, 56, 67
2, 51735, Control_c, 0, 64, 84
2, 51739, Note_on_c, 0, 54, 0
2, 51746, Note_on_c, 0, 75, 74
2, 51750, Control_c, 0, 64, 79
2, 51765, Control_c, 0, 64, 75
2, 51780, Control_c, 0, 64, 69
2, 51782, Note_on_c, 0, 77, 0
2, 51795, Control_c, 0, 64, 63
2, 51811, Control_c, 0, 64, 48
2, 51814, Note_on_c, 0, 58, 64
2, 51815, Note_on_c, 0, 56, 0
2, 51826, Control_c, 0, 64, 0
2, 51902, Note_on_c, 0, 73, 76
2, 51904, Note_on_c, 0, 58, 0
2, 51915, Note_on_c, 0, 59, 62
2, 51938, Note_on_c, 0, 75, 0
2, 52099, Note_on_c, 0, 78, 70
2, 52111, Note_on_c, 0, 73, 0
2, 52126, Note_on_c, 0, 59, 0
2, 52134, Note_on_c, 0, 58, 56
2, 52288, Note_on_c, 0, 71, 75
2, 52306, Note_on_c, 0, 58, 0
2, 52308, Note_on_c, 0, 56, 66
2, 52327, Control_c, 0, 64, 33
2, 52342, Control_c, 0, 64, 51
2, 52356, Control_c, 0, 64, 57
2, 52372, Control_c, 0, 64, 60
2, 52395, Control_c, 0, 64, 62
2, 52395, Note_on_c, 0, 78, 0
2, 52411, Control_c, 0, 64, 63
2, 52426, Control_c, 0, 64, 64
2, 52426, Control_c, 0, 67, 115
2, 52440, Control_c, 0, 64, 67
2, 52440, Control_c, 0, 67, 66
2, 52456, Control_c, 0, 64, 70
2, 52456, Control_c, 0, 67, 0
2, 52456, Note_on_c, 0, 70, 80
2, 52458, Note_on_c, 0, 56, 0
2, 52468, Note_on_c, 0, 54, 67
2, 52471, Control_c, 0, 64, 72
2, 52480, Note_on_c, 0, 71, 0
2, 52593, Control_c, 0, 64, 71
2, 52602, Note_on_c, 0, 54, 0
2, 52609, Control_c, 0, 64, 70
2, 52611, Note_on_c, 0, 68, 84
2, 52618, Note_on_c, 0, 70, 0
2, 52624, Control_c, 0, 64, 68
2, 52629, Note_on_c, 0, 53, 63
2, 52639, Control_c, 0, 64, 65
2, 52655, Control_c, 0, 64, 62
2, 52670, Control_c, 0, 64, 49
2, 52685, Control_c, 0, 64, 0
2, 52778, Note_on_c, 0, 70, 88
2, 52786, Note_on_c, 0, 53, 0
2, 52800, Note_on_c, 0, 54, 53
2, 52952, Note_on_c, 0, 54, 0
2, 52957, Note_on_c, 0, 68, 0
2, 52985, Note_on_c, 0, 76, 80
2, 53013, Note_on_c, 0, 58, 54
2, 53019, Note_on_c, 0, 70, 0
2, 53125, Control_c, 0, 67, 30
2, 53140, Control_c, 0, 67, 86
2, 53162, Control_c, 0, 67, 127
2, 53178, Note_on_c, 0, 58, 0
2, 53190, Note_on_c, 0, 47, 54
2, 53339, Note_on_c, 0, 58, 57
2, 53345, Note_on_c, 0, 75, 70
2, 53360, Note_on_c, 0, 76, 0
2, 53496, Note_on_c, 0, 47, 0
2, 53505, Note_on_c, 0, 73, 80
2, 53514, Control_c, 0, 67, 108
2, 53527, Note_on_c, 0, 54, 64
2, 53527, Note_on_c, 0, 58, 0
2, 53530, Control_c, 0, 67, 70
2, 53543, Note_on_c, 0, 75, 0
2, 53545, Control_c, 0, 67, 20
2, 53559, Control_c, 0, 67, 0
2, 53664, Note_on_c, 0, 54, 0
2, 53670, Note_on_c, 0, 78, 85
2, 53695, Note_on_c, 0, 58, 52
2, 53707, Note_on_c, 0, 73, 0
2, 53831, Note_on_c, 0, 49, 73
2, 53835, Note_on_c, 0, 58, 0
2, 54013, Note_on_c, 0, 58, 67
2, 54013, Note_on_c, 0, 76, 78
2, 54042, Note_on_c, 0, 78, 0
2, 54099, Control_c, 0, 64, 25
2, 54113, Note_on_c, 0, 76, 0
2, 54114, Control_c, 0, 64, 46
2, 54129, Control_c, 0, 64, 55
2, 54144, Control_c, 0, 64, 60
2, 54156, Note_on_c, 0, 75, 82
2, 54159, Control_c, 0, 64, 64
2, 54169, Note_on_c, 0, 54, 73
2, 54174, Note_on_c, 0, 49, 0
2, 54175, Control_c, 0, 64, 68
2, 54191, Control_c, 0, 64, 75
2, 54207, Control_c, 0, 64, 86
2, 54217, Note_on_c, 0, 58, 0
2, 54221, Control_c, 0, 64, 93
2, 54236, Control_c, 0, 64, 94
2, 54292, Note_on_c, 0, 54, 0
2, 54312, Control_c, 0, 64, 93
2, 54315, Note_on_c, 0, 78, 88
2, 54328, Control_c, 0, 64, 88
2, 54331, Note_on_c, 0, 58, 78
2, 54331, Note_on_c, 0, 75, 0
2, 54343, Control_c, 0, 64, 81
2, 54358, Control_c, 0, 64, 74
2, 54373, Control_c, 0, 64, 66
2, 54388, Control_c, 0, 64, 57
2, 54403, Control_c, 0, 64, 0
2, 54503, Note_on_c, 0, 83, 82
2, 54505, Note_on_c, 0, 78, 0
2, 54509, Note_on_c, 0, 51, 69
2, 54521, Note_on_c, 0, 58, 0
2, 54667, Note_on_c, 0, 58, 63
2, 54669, Note_on_c, 0, 79, 72
2, 54709, Note_on_c, 0, 51, 0
2, 54734, Note_on_c, 0, 83, 0
2, 54791, Control_c, 0, 67, 35
2, 54807, Control_c, 0, 67, 66
2, 54822, Control_c, 0, 67, 94
2, 54836, Control_c, 0, 67, 116
2, 54852, Control_c, 0, 67, 127
2, 54862, Note_on_c, 0, 80, 72
2, 54866, Note_on_c, 0, 52, 63
2, 54868, Note_on_c, 0, 58, 0
2, 54869, Note_on_c, 0, 79, 0
2, 54992, Note_on_c, 0, 80, 0
2, 55020, Note_on_c, 0, 76, 76
2, 55025, Note_on_c, 0, 52, 0
2, 55038, Note_on_c, 0, 56, 63
2, 55166, Note_on_c, 0, 56, 0
2, 55183, Note_on_c, 0, 75, 77
2, 55192, Note_on_c, 0, 54, 67
2, 55201, Note_on_c, 0, 76, 0
2, 55314, Note_on_c, 0, 54, 0
2, 55347, Note_on_c, 0, 75, 0
2, 55347, Note_on_c, 0, 78, 72
2, 55353, Note_on_c, 0, 57, 60
2, 55520, Note_on_c, 0, 76, 78
2, 55529, Control_c, 0, 67, 120
2, 55535, Note_on_c, 0, 56, 68
2, 55543, Control_c, 0, 67, 96
2, 55558, Control_c, 0, 67, 63
2, 55559, Note_on_c, 0, 57, 0
2, 55574, Control_c, 0, 67, 26
2, 55577, Note_on_c, 0, 78, 0
2, 55589, Control_c, 0, 67, 0
2, 55676, Note_on_c, 0, 75, 85
2, 55688, Note_on_c, 0, 54, 72
2, 55691, Note_on_c, 0, 56, 0
2, 55740, Note_on_c, 0, 76, 0
2, 55804, Note_on_c, 0, 54, 0
2, 55838, Note_on_c, 0, 52, 71
2, 55844, Note_on_c, 0, 73, 85
2, 55952, Note_on_c, 0, 75, 0
2, 56002, Note_on_c, 0, 72, 72
2, 56028, Note_on_c, 0, 73, 0
2, 56029, Note_on_c, 0, 51, 66
2, 56058, Note_on_c, 0, 52, 0
2, 56061, Control_c, 0, 67, 20
2, 56076, Control_c, 0, 67, 76
2, 56092, Control_c, 0, 67, 122
2, 56106, Control_c, 0, 67, 127
2, 56182, Note_on_c, 0, 51, 0
2, 56244, Note_on_c, 0, 76, 65
2, 56259, Note_on_c, 0, 49, 56
2, 56260, Note_on_c, 0, 72, 0
2, 56303, Note_on_c, 0, 49, 0
2, 56415, Note_on_c, 0, 73, 64
2, 56467, Note_on_c, 0, 76, 0
2, 56566, Note_on_c, 0, 73, 0
2, 56572, Note_on_c, 0, 71, 66
2, 56587, Note_on_c, 0, 52, 69
2, 56619, Note_on_c, 0, 52, 0
2, 56739, Note_on_c, 0, 75, 70
2, 56779, Note_on_c, 0, 71, 0
2, 56882, Note_on_c, 0, 58, 64
2, 56889, Note_on_c, 0, 73, 71
2, 56938, Note_on_c, 0, 75, 0
2, 56948, Note_on_c, 0, 56, 70
2, 56953, Note_on_c, 0, 58, 0
2, 57015, Note_on_c, 0, 56, 0
2, 57020, Note_on_c, 0, 71, 67
2, 57023, Note_on_c, 0, 73, 0
2, 57054, Note_on_c, 0, 58, 65
2, 57217, Note_on_c, 0, 70, 62
2, 57263, Note_on_c, 0, 71, 0
2, 57402, Note_on_c, 0, 68, 65
2, 57412, Note_on_c, 0, 70, 0
2, 57573, Note_on_c, 0, 67, 80
2, 57584, Note_on_c, 0, 68, 0
2, 57629, Note_on_c, 0, 67, 0
2, 57714, Note_on_c, 0, 55, 71
2, 57719, Control_c, 0, 67, 124
2, 57735, Control_c, 0, 67, 97
2, 57749, Control_c, 0, 67, 59
2, 57773, Control_c, 0, 67, 9
2, 57786, Note_on_c, 0, 58, 0
2, 57788, Control_c, 0, 67, 0
2, 57888, Note_on_c, 0, 55, 0
2, 57893, Note_on_c, 0, 70, 83
2, 57903, Note_on_c, 0, 56, 73
2, 57936, Note_on_c, 0, 70, 0
2, 58066, Note_on_c, 0, 53, 64
2, 58071, Note_on_c, 0, 56, 0
2, 58201, Note_on_c, 0, 53, 0
2, 58208, Note_on_c, 0, 75, 71
2, 58219, Note_on_c, 0, 55, 66
2, 58290, Note_on_c, 0, 73, 75
2, 58297, Note_on_c, 0, 55, 0
2, 58317, Note_on_c, 0, 75, 0
2, 58342, Note_on_c, 0, 58, 70
2, 58356, Note_on_c, 0, 75, 75
2, 58358, Note_on_c, 0, 73, 0
2, 58497, Note_on_c, 0, 58, 0
2, 58551, Note_on_c, 0, 51, 62
2, 58699, Note_on_c, 0, 51, 0
2, 58722, Note_on_c, 0, 49, 70
2, 58879, Note_on_c, 0, 49, 0
2, 58894, Note_on_c, 0, 47, 80
2, 58956, Note_on_c, 0, 47, 0
2, 59076, Note_on_c, 0, 71, 76
2, 59152, Note_on_c, 0, 75, 0
2, 59231, Note_on_c, 0, 73, 84
2, 59233, Note_on_c, 0, 51, 80
2, 59265, Note_on_c, 0, 51, 0
2, 59270, Note_on_c, 0, 71, 0
2, 59395, Note_on_c, 0, 70, 85
2, 59506, Note_on_c, 0, 73, 0
2, 59518, Note_on_c, 0, 70, 0
2, 59549, Note_on_c, 0, 71, 76
2, 59556, Note_on_c, 0, 56, 63
2, 59628, Note_on_c, 0, 55, 70
2, 59659, Note_on_c, 0, 56, 0
2, 59684, Note_on_c, 0, 55, 0
2, 59705, Note_on_c, 0, 71, 0
2, 59711, Note_on_c, 0, 75, 86
2, 59718, Note_on_c, 0, 56, 67
2, 59869, Note_on_c, 0, 68, 81
2, 59977, Control_c, 0, 64, 55
2, 59992, Control_c, 0, 64, 64
2, 59999, Note_on_c, 0, 75, 0
2, 60008, Control_c, 0, 64, 76
2, 60023, Control_c, 0, 64, 127
2, 60023, Note_on_c, 0, 66, 88
2, 60028, Note_on_c, 0, 68, 0
2, 60050, Note_on_c, 0, 66, 0
2, 60228, Control_c, 0, 64, 86
2, 60237, Note_on_c, 0, 64, 90
2, 60243, Control_c, 0, 64, 68
2, 60258, Control_c, 0, 64, 49
2, 60273, Control_c, 0, 64, 0
2, 60340, Note_on_c, 0, 64, 0
2, 60397, Note_on_c, 0, 54, 70
2, 60448, Note_on_c, 0, 56, 0
2, 60550, Note_on_c, 0, 52, 74
2, 60551, Note_on_c, 0, 68, 84
2, 60554, Note_on_c, 0, 54, 0
2, 60601, Note_on_c, 0, 68, 0
2, 60687, Note_on_c, 0, 52, 0
2, 60702, Note_on_c, 0, 51, 74
2, 60879, Note_on_c, 0, 52, 66
2, 60879, Note_on_c, 0, 73, 72
2, 60898, Note_on_c, 0, 51, 0
2, 60954, Note_on_c, 0, 71, 76
2, 60973, Note_on_c, 0, 73, 0
2, 60991, Note_on_c, 0, 52, 0
2, 61027, Note_on_c, 0, 56, 75
2, 61035, Note_on_c, 0, 71, 0
2, 61038, Note_on_c, 0, 73, 83
2, 61218, Note_on_c, 0, 49, 70
2, 61248, Note_on_c, 0, 56, 0
2, 61376, Note_on_c, 0, 49, 0
2, 61387, Note_on_c, 0, 47, 78
2, 61571, Note_on_c, 0, 46, 83
2, 61582, Note_on_c, 0, 47, 0
2, 61738, Note_on_c, 0, 46, 0
2, 61738, Note_on_c, 0, 56, 71
2, 61751, Note_on_c, 0, 64, 73
2, 61839, Note_on_c, 0, 73, 0
2, 61901, Note_on_c, 0, 55, 74
2, 61912, Note_on_c, 0, 56, 0
2, 61913, Note_on_c, 0, 63, 84
2, 61921, Note_on_c, 0, 64, 0
2, 62071, Note_on_c, 0, 62, 85
2, 62075, Note_on_c, 0, 53, 76
2, 62099, Note_on_c, 0, 63, 0
2, 62102, Note_on_c, 0, 55, 0
2, 62240, Note_on_c, 0, 63, 90
2, 62247, Note_on_c, 0, 62, 0
2, 62250, Note_on_c, 0, 53, 0
2, 62252, Note_on_c, 0, 55, 77
2, 62341, Control_c, 0, 64, 41
2, 62355, Control_c, 0, 64, 55
2, 62367, Note_on_c, 0, 55, 0
2, 62379, Control_c, 0, 64, 61
2, 62394, Control_c, 0, 64, 64
2, 62410, Control_c, 0, 64, 68
2, 62418, Note_on_c, 0, 58, 80
2, 62425, Control_c, 0, 64, 74
2, 62440, Control_c, 0, 64, 82
2, 62455, Control_c, 0, 64, 90
2, 62470, Control_c, 0, 64, 91
2, 62545, Note_on_c, 0, 58, 0
2, 62546, Control_c, 0, 64, 90
2, 62561, Control_c, 0, 64, 85
2, 62577, Control_c, 0, 64, 78
2, 62591, Control_c, 0, 64, 70
2, 62591, Note_on_c, 0, 51, 76
2, 62607, Control_c, 0, 64, 62
2, 62622, Control_c, 0, 64, 35
2, 62637, Control_c, 0, 64, 0
2, 62724, Note_on_c, 0, 51, 0
2, 62741, Note_on_c, 0, 70, 87
2, 62746, Note_on_c, 0, 49, 69
2, 62790, Note_on_c, 0, 63, 0
2, 62888, Note_on_c, 0, 49, 0
2, 62915, Note_on_c, 0, 47, 82
2, 62923, Note_on_c, 0, 75, 83
2, 62932, Note_on_c, 0, 70, 0
2, 63031, Note_on_c, 0, 47, 0
2, 63075, Note_on_c, 0, 73, 71
2, 63087, Note_on_c, 0, 75, 0
2, 63170, Note_on_c, 0, 71, 75
2, 63172, Note_on_c, 0, 73, 0
2, 63241, Note_on_c, 0, 52, 63
2, 63247, Note_on_c, 0, 70, 84
2, 63248, Note_on_c, 0, 71, 0
2, 63279, Note_on_c, 0, 52, 0
2, 63321, Note_on_c, 0, 71, 88
2, 63342, Note_on_c, 0, 70, 0
2, 63406, Note_on_c, 0, 73, 93
2, 63419, Note_on_c, 0, 71, 0
2, 63573, Note_on_c, 0, 73, 0
2, 63576, Note_on_c, 0, 71, 91
2, 63583, Note_on_c, 0, 49, 75
2, 63686, Note_on_c, 0, 49, 0
2, 63724, Control_c, 0, 64, 50
2, 63729, Note_on_c, 0, 71, 0
2, 63735, Note_on_c, 0, 80, 92
2, 63740, Control_c, 0, 64, 58
2, 63755, Control_c, 0, 64, 61
2, 63771, Control_c, 0, 64, 63
2, 63785, Control_c, 0, 64, 65
2, 63800, Control_c, 0, 64, 69
2, 63816, Control_c, 0, 64, 79
2, 63830, Control_c, 0, 64, 91
2, 63846, Control_c, 0, 64, 96
2, 63891, Note_on_c, 0, 51, 79
2, 63897, Note_on_c, 0, 70, 79
2, 63930, Control_c, 0, 64, 95
2, 63945, Control_c, 0, 64, 93
2, 63955, Note_on_c, 0, 51, 0
2, 63960, Control_c, 0, 64, 91
2, 64018, Note_on_c, 0, 80, 0
2, 64053, Control_c, 0, 64, 89
2, 64067, Control_c, 0, 64, 86
2, 64073, Note_on_c, 0, 79, 93
2, 64082, Control_c, 0, 64, 81
2, 64088, Note_on_c, 0, 70, 0
2, 64098, Control_c, 0, 64, 73
2, 64113, Control_c, 0, 64, 64
2, 64129, Control_c, 0, 64, 47
2, 64143, Control_c, 0, 64, 0
2, 64278, Note_on_c, 0, 80, 89
2, 64292, Note_on_c, 0, 44, 80
2, 64301, Note_on_c, 0, 79, 0
2, 64311, Control_c, 0, 64, 54
2, 64327, Control_c, 0, 64, 60
2, 64342, Control_c, 0, 64, 65
2, 64349, Note_on_c, 0, 44, 0
2, 64356, Control_c, 0, 64, 82
2, 64372, Control_c, 0, 64, 127
2, 64451, Note_on_c, 0, 76, 85
2, 64454, Note_on_c, 0, 80, 0
2, 64506, Control_c, 0, 64, 117
2, 64521, Control_c, 0, 64, 79
2, 64537, Control_c, 0, 64, 62
2, 64552, Control_c, 0, 64, 0
2, 64603, Note_on_c, 0, 76, 0
2, 64606, Note_on_c, 0, 75, 85
2, 64618, Note_on_c, 0, 46, 87
2, 64712, Note_on_c, 0, 46, 0
2, 64781, Note_on_c, 0, 73, 86
2, 64785, Note_on_c, 0, 75, 0
2, 64911, Note_on_c, 0, 73, 0
2, 64939, Note_on_c, 0, 75, 79
2, 64945, Note_on_c, 0, 47, 85
2, 65030, Note_on_c, 0, 47, 0
2, 65106, Note_on_c, 0, 68, 77
2, 65153, Note_on_c, 0, 75, 0
2, 65276, Note_on_c, 0, 67, 80
2, 65279, Note_on_c, 0, 68, 0
2, 65285, Note_on_c, 0, 46, 81
2, 65334, Note_on_c, 0, 46, 0
2, 65450, Note_on_c, 0, 73, 82
2, 65454, Note_on_c, 0, 67, 0
2, 65617, Note_on_c, 0, 71, 79
2, 65623, Note_on_c, 0, 44, 63
2, 65662, Note_on_c, 0, 44, 0
2, 65674, Note_on_c, 0, 73, 0
2, 65780, Note_on_c, 0, 70, 85
2, 65826, Note_on_c, 0, 71, 0
2, 65946, Note_on_c, 0, 68, 84
2, 65952, Note_on_c, 0, 47, 75
2, 66010, Note_on_c, 0, 47, 0
2, 66042, Note_on_c, 0, 70, 0
2, 66105, Note_on_c, 0, 67, 92
2, 66125, Note_on_c, 0, 68, 0
2, 66278, Note_on_c, 0, 68, 81
2, 66294, Note_on_c, 0, 53, 71
2, 66330, Note_on_c, 0, 67, 0
2, 66336, Note_on_c, 0, 53, 0
2, 66443, Note_on_c, 0, 71, 79
2, 66456, Note_on_c, 0, 68, 0
2, 66653, Note_on_c, 0, 61, 81
2, 66679, Note_on_c, 0, 46, 53
2, 66713, Note_on_c, 0, 71, 0
2, 66787, Note_on_c, 0, 46, 0
2, 66843, Note_on_c, 0, 71, 67
2, 66953, Note_on_c, 0, 61, 0
2, 67000, Note_on_c, 0, 71, 0
2, 67013, Note_on_c, 0, 68, 71
2, 67016, Note_on_c, 0, 47, 78
2, 67087, Note_on_c, 0, 47, 0
2, 67186, Note_on_c, 0, 71, 79
2, 67209, Note_on_c, 0, 68, 0
2, 67347, Note_on_c, 0, 63, 83
2, 67349, Note_on_c, 0, 56, 74
2, 67421, Note_on_c, 0, 71, 0
2, 67515, Note_on_c, 0, 56, 0
2, 67527, Note_on_c, 0, 71, 84
2, 67563, Note_on_c, 0, 63, 0
2, 67693, Note_on_c, 0, 68, 80
2, 67698, Note_on_c, 0, 53, 79
2, 67709, Note_on_c, 0, 71, 0
2, 67783, Note_on_c, 0, 53, 0
2, 67863, Note_on_c, 0, 71, 85
2, 67887, Note_on_c, 0, 68, 0
2, 68020, Note_on_c, 0, 65, 86
2, 68046, Note_on_c, 0, 49, 74
2, 68080, Note_on_c, 0, 71, 0
2, 68145, Note_on_c, 0, 49, 0
2, 68190, Note_on_c, 0, 71, 78
2, 68294, Note_on_c, 0, 65, 0
2, 68370, Note_on_c, 0, 42, 67
2, 68373, Note_on_c, 0, 70, 78
2, 68414, Note_on_c, 0, 71, 0
2, 68493, Note_on_c, 0, 42, 0
2, 68538, Note_on_c, 0, 68, 83
2, 68564, Note_on_c, 0, 70, 0
2, 68703, Note_on_c, 0, 46, 77
2, 68707, Note_on_c, 0, 66, 86
2, 68817, Note_on_c, 0, 68, 0
2, 68826, Note_on_c, 0, 46, 0
2, 68869, Note_on_c, 0, 65, 82
2, 68896, Note_on_c, 0, 66, 0
2, 69031, Note_on_c, 0, 66, 82
2, 69045, Note_on_c, 0, 51, 69
2, 69091, Note_on_c, 0, 65, 0
2, 69165, Note_on_c, 0, 51, 0
2, 69200, Note_on_c, 0, 70, 76
2, 69229, Note_on_c, 0, 66, 0
2, 69389, Note_on_c, 0, 60, 83
2, 69415, Note_on_c, 0, 44, 51
2, 69466, Note_on_c, 0, 70, 0
2, 69534, Note_on_c, 0, 44, 0
2, 69574, Note_on_c, 0, 70, 80
2, 69627, Note_on_c, 0, 60, 0
2, 69733, Note_on_c, 0, 66, 75
2, 69743, Note_on_c, 0, 46, 71
2, 69766, Note_on_c, 0, 70, 0
2, 69843, Note_on_c, 0, 46, 0
2, 69892, Note_on_c, 0, 70, 74
2, 69941, Note_on_c, 0, 66, 0
2, 70063, Note_on_c, 0, 62, 78
2, 70101, Note_on_c, 0, 54, 53
2, 70113, Note_on_c, 0, 70, 0
2, 70183, Note_on_c, 0, 54, 0
2, 70231, Note_on_c, 0, 70, 71
2, 70283, Note_on_c, 0, 62, 0
2, 70399, Note_on_c, 0, 51, 68
2, 70403, Note_on_c, 0, 66, 70
2, 70422, Note_on_c, 0, 70, 0
2, 70486, Note_on_c, 0, 51, 0
2, 70567, Note_on_c, 0, 70, 62
2, 70591, Note_on_c, 0, 66, 0
2, 70728, Control_c, 0, 67, 11
2, 70728, Note_on_c, 0, 63, 69
2, 70742, Control_c, 0, 67, 38
2, 70757, Control_c, 0, 67, 59
2, 70760, Note_on_c, 0, 47, 49
2, 70772, Note_on_c, 0, 70, 0
2, 70773, Control_c, 0, 67, 72
2, 70788, Control_c, 0, 67, 82
2, 70800, Note_on_c, 0, 47, 0
2, 70803, Control_c, 0, 67, 93
2, 70826, Control_c, 0, 67, 100
2, 70841, Control_c, 0, 67, 107
2, 70857, Control_c, 0, 67, 112
2, 70872, Control_c, 0, 67, 116
2, 70888, Control_c, 0, 67, 122
2, 70898, Note_on_c, 0, 70, 70
2, 70902, Control_c, 0, 67, 127
2, 70963, Note_on_c, 0, 63, 0
2, 71068, Note_on_c, 0, 68, 66
2, 71082, Note_on_c, 0, 41, 49
2, 71114, Note_on_c, 0, 70, 0
2, 71170, Note_on_c, 0, 41, 0
2, 71243, Note_on_c, 0, 66, 66
2, 71250, Note_on_c, 0, 68, 0
2, 71400, Note_on_c, 0, 66, 0
2, 71414, Note_on_c, 0, 44, 50
2, 71415, Note_on_c, 0, 65, 61
2, 71475, Note_on_c, 0, 44, 0
2, 71581, Note_on_c, 0, 65, 0
2, 71593, Note_on_c, 0, 63, 63
2, 71750, Note_on_c, 0, 65, 57
2, 71769, Note_on_c, 0, 50, 48
2, 71799, Note_on_c, 0, 63, 0
2, 71855, Note_on_c, 0, 50, 0
2, 71901, Note_on_c, 0, 65, 0
2, 71926, Note_on_c, 0, 68, 55
2, 72100, Note_on_c, 0, 68, 0
2, 72103, Note_on_c, 0, 58, 63
2, 72136, Note_on_c, 0, 42, 44
2, 72227, Note_on_c, 0, 42, 0
2, 72278, Note_on_c, 0, 68, 51
2, 72373, Note_on_c, 0, 58, 0
2, 72421, Note_on_c, 0, 68, 0
2, 72439, Note_on_c, 0, 65, 62
2, 72446, Note_on_c, 0, 44, 57
2, 72497, Note_on_c, 0, 44, 0
2, 72598, Note_on_c, 0, 65, 0
2, 72609, Note_on_c, 0, 68, 57
2, 72730, Note_on_c, 0, 68, 0
2, 72775, Note_on_c, 0, 60, 64
2, 72796, Note_on_c, 0, 53, 42
2, 72953, Note_on_c, 0, 68, 57
2, 72964, Note_on_c, 0, 53, 0
2, 73009, Note_on_c, 0, 60, 0
2, 73107, Note_on_c, 0, 68, 0
2, 73111, Note_on_c, 0, 65, 58
2, 73135, Note_on_c, 0, 50, 47
2, 73219, Note_on_c, 0, 50, 0
2, 73286, Note_on_c, 0, 65, 0
2, 73298, Note_on_c, 0, 68, 54
2, 73453, Note_on_c, 0, 62, 56
2, 73463, Note_on_c, 0, 68, 0
2, 73473, Note_on_c, 0, 46, 47
2, 73480, Control_c, 0, 67, 127
2, 73495, Control_c, 0, 67, 125
2, 73510, Control_c, 0, 64, 50
2, 73510, Control_c, 0, 67, 123
2, 73523, Note_on_c, 0, 46, 0
2, 73526, Control_c, 0, 64, 58
2, 73526, Control_c, 0, 67, 122
2, 73541, Control_c, 0, 64, 62
2, 73541, Control_c, 0, 67, 120
2, 73556, Control_c, 0, 64, 64
2, 73556, Control_c, 0, 67, 119
2, 73571, Control_c, 0, 64, 67
2, 73571, Control_c, 0, 67, 119
2, 73586, Control_c, 0, 64, 72
2, 73586, Control_c, 0, 67, 118
2, 73601, Control_c, 0, 64, 78
2, 73601, Control_c, 0, 67, 118
2, 73609, Note_on_c, 0, 62, 0
2, 73616, Control_c, 0, 64, 84
2, 73616, Control_c, 0, 67, 116
2, 73622, Note_on_c, 0, 68, 53
2, 73631, Control_c, 0, 64, 88
2, 73631, Control_c, 0, 67, 115
2, 73647, Control_c, 0, 64, 92
2, 73647, Control_c, 0, 67, 114
2, 73662, Control_c, 0, 64, 95
2, 73662, Control_c, 0, 67, 113
2, 73677, Control_c, 0, 64, 97
2, 73677, Control_c, 0, 67, 112
2, 73677, Note_on_c, 0, 68, 0
2, 73693, Control_c, 0, 64, 98
2, 73693, Control_c, 0, 67, 109
2, 73708, Control_c, 0, 67, 104
2, 73722, Control_c, 0, 67, 100
2, 73738, Control_c, 0, 67, 98
2, 73784, Control_c, 0, 67, 99
2, 73814, Control_c, 0, 64, 96
2, 73814, Control_c, 0, 67, 100
2, 73829, Control_c, 0, 64, 91
2, 73829, Control_c, 0, 67, 100
2, 73838, Note_on_c, 0, 66, 57
2, 73846, Control_c, 0, 64, 84
2, 73846, Control_c, 0, 67, 101
2, 73861, Control_c, 0, 64, 74
2, 73861, Control_c, 0, 67, 101
2, 73865, Note_on_c, 0, 39, 44
2, 73876, Control_c, 0, 64, 67
2, 73899, Control_c, 0, 64, 59
2, 73914, Control_c, 0, 64, 31
2, 73929, Control_c, 0, 64, 0
2, 73959, Control_c, 0, 67, 102
2, 74021, Note_on_c, 0, 70, 58
2, 74033, Note_on_c, 0, 42, 56
2, 74057, Note_on_c, 0, 39, 0
2, 74096, Control_c, 0, 67, 101
2, 74111, Control_c, 0, 67, 100
2, 74127, Control_c, 0, 67, 99
2, 74128, Note_on_c, 0, 66, 0
2, 74142, Control_c, 0, 67, 97
2, 74157, Control_c, 0, 67, 95
2, 74173, Control_c, 0, 67, 88
2, 74176, Note_on_c, 0, 74, 55
2, 74177, Note_on_c, 0, 70, 0
2, 74188, Control_c, 0, 67, 71
2, 74194, Note_on_c, 0, 41, 61
2, 74202, Control_c, 0, 67, 45
2, 74218, Control_c, 0, 67, 21
2, 74233, Control_c, 0, 67, 0
2, 74258, Note_on_c, 0, 42, 0
2, 74329, Note_on_c, 0, 74, 0
2, 74347, Note_on_c, 0, 77, 63
2, 74350, Note_on_c, 0, 44, 68
2, 74377, Note_on_c, 0, 41, 0
2, 74495, Note_on_c, 0, 77, 0
2, 74500, Note_on_c, 0, 42, 70
2, 74516, Note_on_c, 0, 70, 63
2, 74629, Note_on_c, 0, 44, 0
2, 74667, Note_on_c, 0, 74, 68
2, 74671, Note_on_c, 0, 42, 0
2, 74674, Note_on_c, 0, 46, 71
2, 74701, Note_on_c, 0, 70, 0
2, 74830, Note_on_c, 0, 44, 74
2, 74836, Note_on_c, 0, 74, 0
2, 74836, Note_on_c, 0, 77, 75
2, 74881, Note_on_c, 0, 46, 0
2, 74972, Note_on_c, 0, 77, 0
2, 74988, Note_on_c, 0, 47, 68
2, 74992, Note_on_c, 0, 80, 67
2, 74999, Note_on_c, 0, 44, 0
2, 75137, Note_on_c, 0, 78, 72
2, 75157, Note_on_c, 0, 80, 0
2, 75167, Note_on_c, 0, 46, 65
2, 75175, Note_on_c, 0, 47, 0
2, 75222, Note_on_c, 0, 77, 62
2, 75250, Note_on_c, 0, 78, 0
2, 75289, Note_on_c, 0, 46, 0
2, 75318, Note_on_c, 0, 75, 69
2, 75336, Control_c, 0, 67, 33
2, 75345, Note_on_c, 0, 51, 52
2, 75351, Control_c, 0, 67, 101
2, 75361, Note_on_c, 0, 77, 0
2, 75367, Control_c, 0, 67, 127
2, 75466, Note_on_c, 0, 75, 0
2, 75487, Note_on_c, 0, 77, 71
2, 75514, Note_on_c, 0, 51, 0
2, 75524, Note_on_c, 0, 50, 64
2, 75617, Note_on_c, 0, 50, 0
2, 75654, Note_on_c, 0, 48, 62
2, 75712, Note_on_c, 0, 77, 0
2, 75826, Note_on_c, 0, 46, 64
2, 75851, Note_on_c, 0, 48, 0
2, 75984, Note_on_c, 0, 44, 63
2, 76095, Note_on_c, 0, 46, 0
2, 76156, Note_on_c, 0, 42, 65
2, 76187, Note_on_c, 0, 44, 0
2, 76233, Control_c, 0, 67, 127
2, 76249, Control_c, 0, 67, 103
2, 76264, Control_c, 0, 67, 63
2, 76279, Control_c, 0, 67, 20
2, 76294, Control_c, 0, 67, 0
2, 76330, Note_on_c, 0, 41, 57
2, 76333, Note_on_c, 0, 42, 0
2, 76494, Note_on_c, 0, 42, 50
2, 76494, Note_on_c, 0, 63, 50
2, 76552, Note_on_c, 0, 41, 0
2, 76649, Note_on_c, 0, 63, 0
2, 76654, Note_on_c, 0, 66, 64
2, 76674, Note_on_c, 0, 46, 56
2, 76800, Note_on_c, 0, 42, 0
2, 76817, Note_on_c, 0, 46, 0
2, 76824, Note_on_c, 0, 65, 69
2, 76826, Note_on_c, 0, 66, 0
2, 76858, Note_on_c, 0, 50, 54
2, 76996, Note_on_c, 0, 68, 70
2, 77009, Note_on_c, 0, 53, 61
2, 77027, Note_on_c, 0, 65, 0
2, 77047, Note_on_c, 0, 50, 0
2, 77169, Note_on_c, 0, 66, 79
2, 77181, Note_on_c, 0, 46, 63
2, 77199, Note_on_c, 0, 53, 0
2, 77202, Note_on_c, 0, 68, 0
2, 77304, Control_c, 0, 64, 42
2, 77319, Control_c, 0, 64, 56
2, 77333, Note_on_c, 0, 66, 0
2, 77333, Note_on_c, 0, 70, 84
2, 77335, Control_c, 0, 64, 61
2, 77350, Control_c, 0, 64, 63
2, 77353, Note_on_c, 0, 50, 71
2, 77365, Control_c, 0, 64, 66
2, 77380, Control_c, 0, 64, 71
2, 77395, Control_c, 0, 64, 78
2, 77396, Note_on_c, 0, 46, 0
2, 77410, Control_c, 0, 64, 86
2, 77425, Control_c, 0, 64, 91
2, 77474, Note_on_c, 0, 70, 0
2, 77486, Control_c, 0, 64, 89
2, 77501, Control_c, 0, 64, 84
2, 77503, Note_on_c, 0, 68, 86
2, 77505, Note_on_c, 0, 53, 69
2, 77516, Control_c, 0, 64, 77
2, 77527, Note_on_c, 0, 50, 0
2, 77531, Control_c, 0, 64, 69
2, 77547, Control_c, 0, 64, 62
2, 77562, Control_c, 0, 64, 24
2, 77577, Control_c, 0, 64, 0
2, 77651, Note_on_c, 0, 53, 0
2, 77651, Note_on_c, 0, 71, 88
2, 77666, Note_on_c, 0, 56, 66
2, 77685, Note_on_c, 0, 68, 0
2, 77801, Note_on_c, 0, 71, 0
2, 77819, Note_on_c, 0, 70, 82
2, 77827, Note_on_c, 0, 54, 70
2, 77830, Note_on_c, 0, 56, 0
2, 77893, Note_on_c, 0, 53, 63
2, 77906, Note_on_c, 0, 54, 0
2, 77981, Control_c, 0, 67, 13
2, 77994, Note_on_c, 0, 53, 0
2, 77996, Control_c, 0, 67, 49
2, 78004, Note_on_c, 0, 70, 0
2, 78004, Note_on_c, 0, 75, 69
2, 78006, Note_on_c, 0, 51, 58
2, 78011, Control_c, 0, 67, 87
2, 78026, Control_c, 0, 67, 113
2, 78041, Control_c, 0, 67, 127
2, 78179, Note_on_c, 0, 75, 0
2, 78181, Note_on_c, 0, 74, 67
2, 78197, Note_on_c, 0, 53, 52
2, 78204, Note_on_c, 0, 51, 0
2, 78338, Note_on_c, 0, 72, 69
2, 78355, Note_on_c, 0, 74, 0
2, 78386, Note_on_c, 0, 53, 0
2, 78523, Note_on_c, 0, 70, 69
2, 78562, Note_on_c, 0, 72, 0
2, 78686, Note_on_c, 0, 68, 66
2, 78695, Note_on_c, 0, 70, 0
2, 78749, Note_on_c, 0, 53, 6
2, 78764, Control_c, 0, 67, 116
2, 78780, Control_c, 0, 67, 99
2, 78781, Note_on_c, 0, 53, 0
2, 78794, Control_c, 0, 67, 76
2, 78809, Control_c, 0, 67, 49
2, 78827, Control_c, 0, 67, 21
2, 78842, Control_c, 0, 67, 0
2, 78842, Note_on_c, 0, 68, 0
2, 78843, Note_on_c, 0, 58, 56
2, 78843, Note_on_c, 0, 66, 60
2, 78943, Note_on_c, 0, 58, 0
2, 78985, Note_on_c, 0, 66, 0
2, 79009, Note_on_c, 0, 65, 65
2, 79171, Note_on_c, 0, 66, 69
2, 79187, Note_on_c, 0, 51, 52
2, 79205, Note_on_c, 0, 65, 0
2, 79259, Note_on_c, 0, 51, 0
2, 79340, Note_on_c, 0, 70, 77
2, 79356, Note_on_c, 0, 66, 0
2, 79507, Note_on_c, 0, 68, 80
2, 79511, Note_on_c, 0, 59, 65
2, 79595, Note_on_c, 0, 59, 0
2, 79613, Note_on_c, 0, 70, 0
2, 79663, Note_on_c, 0, 71, 86
2, 79669, Note_on_c, 0, 68, 0
2, 79831, Note_on_c, 0, 70, 72
2, 79856, Note_on_c, 0, 49, 53
2, 79865, Note_on_c, 0, 71, 0
2, 79917, Note_on_c, 0, 49, 0
2, 79991, Note_on_c, 0, 68, 71
2, 80014, Note_on_c, 0, 70, 0
2, 80161, Note_on_c, 0, 66, 70
2, 80171, Note_on_c, 0, 58, 55
2, 80229, Note_on_c, 0, 68, 0
2, 80240, Note_on_c, 0, 58, 0
2, 80317, Note_on_c, 0, 66, 0
2, 80327, Note_on_c, 0, 65, 72
2, 80501, Note_on_c, 0, 63, 73
2, 80518, Note_on_c, 0, 47, 60
2, 80540, Note_on_c, 0, 65, 0
2, 80595, Note_on_c, 0, 47, 0
2, 80655, Note_on_c, 0, 66, 75
2, 80657, Note_on_c, 0, 63, 0
2, 80817, Note_on_c, 0, 66, 0
2, 80828, Note_on_c, 0, 65, 76
2, 80837, Note_on_c, 0, 56, 71
2, 80893, Note_on_c, 0, 56, 0
2, 80997, Note_on_c, 0, 68, 80
2, 80998, Note_on_c, 0, 65, 0
2, 81182, Note_on_c, 0, 66, 67
2, 81205, Note_on_c, 0, 46, 51
2, 81247, Note_on_c, 0, 68, 0
2, 81280, Note_on_c, 0, 46, 0
2, 81347, Note_on_c, 0, 65, 65
2, 81507, Note_on_c, 0, 65, 0
2, 81508, Note_on_c, 0, 66, 0
2, 81513, Note_on_c, 0, 58, 61
2, 81518, Note_on_c, 0, 63, 63
2, 81584, Note_on_c, 0, 58, 0
2, 81667, Note_on_c, 0, 63, 0
2, 81687, Note_on_c, 0, 62, 68
2, 81856, Note_on_c, 0, 63, 62
2, 81865, Note_on_c, 0, 59, 45
2, 81902, Note_on_c, 0, 62, 0
2, 82011, Note_on_c, 0, 68, 66
2, 82026, Note_on_c, 0, 56, 61
2, 82095, Note_on_c, 0, 59, 0
2, 82113, Note_on_c, 0, 63, 0
2, 82180, Note_on_c, 0, 67, 72
2, 82185, Note_on_c, 0, 58, 67
2, 82195, Note_on_c, 0, 56, 0
2, 82216, Note_on_c, 0, 68, 0
2, 82332, Note_on_c, 0, 58, 0
2, 82333, Note_on_c, 0, 70, 76
2, 82353, Note_on_c, 0, 61, 73
2, 82354, Note_on_c, 0, 67, 0
2, 82496, Note_on_c, 0, 61, 0
2, 82498, Note_on_c, 0, 68, 75
2, 82509, Note_on_c, 0, 59, 80
2, 82543, Note_on_c, 0, 70, 0
2, 82659, Note_on_c, 0, 68, 0
2, 82661, Note_on_c, 0, 66, 77
2, 82677, Note_on_c, 0, 58, 76
2, 82729, Note_on_c, 0, 59, 0
2, 82830, Note_on_c, 0, 65, 78
2, 82835, Note_on_c, 0, 58, 0
2, 82840, Note_on_c, 0, 56, 69
2, 82867, Note_on_c, 0, 66, 0
2, 82981, Note_on_c, 0, 56, 0
2, 82988, Note_on_c, 0, 63, 77
2, 82989, Note_on_c, 0, 65, 0
2, 82994, Note_on_c, 0, 59, 67
2, 83138, Note_on_c, 0, 63, 0
2, 83171, Note_on_c, 0, 62, 74
2, 83178, Note_on_c, 0, 58, 72
2, 83236, Note_on_c, 0, 59, 0
2, 83315, Note_on_c, 0, 65, 76
2, 83346, Note_on_c, 0, 53, 67
2, 83358, Note_on_c, 0, 62, 0
2, 83370, Note_on_c, 0, 58, 0
2, 83489, Note_on_c, 0, 63, 84
2, 83491, Note_on_c, 0, 65, 0
2, 83496, Note_on_c, 0, 53, 0
2, 83498, Note_on_c, 0, 54, 74
2, 83646, Note_on_c, 0, 66, 82
2, 83656, Note_on_c, 0, 54, 0
2, 83657, Note_on_c, 0, 58, 69
2, 83667, Note_on_c, 0, 63, 0
2, 83794, Note_on_c, 0, 58, 0
2, 83811, Note_on_c, 0, 65, 79
2, 83816, Note_on_c, 0, 56, 73
2, 83975, Note_on_c, 0, 63, 85
2, 83985, Note_on_c, 0, 54, 75
2, 84007, Note_on_c, 0, 66, 0
2, 84068, Note_on_c, 0, 65, 0
2, 84088, Note_on_c, 0, 56, 0
2, 84104, Note_on_c, 0, 54, 0
2, 84135, Note_on_c, 0, 63, 0
2, 84137, Note_on_c, 0, 62, 82
2, 84142, Note_on_c, 0, 53, 63
2, 84262, Note_on_c, 0, 53, 0
2, 84296, Note_on_c, 0, 60, 75
2, 84299, Note_on_c, 0, 62, 0
2, 84304, Note_on_c, 0, 56, 61
2, 84429, Note_on_c, 0, 56, 0
2, 84476, Note_on_c, 0, 54, 61
2, 84481, Note_on_c, 0, 58, 72
2, 84501, Note_on_c, 0, 60, 0
2, 84585, Note_on_c, 0, 58, 0
2, 84621, Note_on_c, 0, 54, 0
2, 84643, Note_on_c, 0, 50, 72
2, 84802, Note_on_c, 0, 70, 83
2, 84829, Note_on_c, 0, 51, 69
2, 84869, Note_on_c, 0, 50, 0
2, 84906, Note_on_c, 0, 70, 0
2, 84975, Note_on_c, 0, 51, 0
2, 84979, Note_on_c, 0, 54, 78
2, 85153, Note_on_c, 0, 68, 72
2, 85172, Note_on_c, 0, 58, 64
2, 85175, Note_on_c, 0, 54, 0
2, 85284, Note_on_c, 0, 58, 0
2, 85322, Note_on_c, 0, 66, 72
2, 85346, Note_on_c, 0, 68, 0
2, 85480, Note_on_c, 0, 66, 0
2, 85490, Note_on_c, 0, 65, 64
2, 85500, Note_on_c, 0, 46, 63
2, 85572, Note_on_c, 0, 46, 0
2, 85664, Note_on_c, 0, 66, 70
2, 85671, Note_on_c, 0, 65, 0
2, 85791, Note_on_c, 0, 66, 0
2, 85821, Note_on_c, 0, 63, 77
2, 85845, Note_on_c, 0, 61, 52
2, 85956, Note_on_c, 0, 61, 0
2, 85994, Note_on_c, 0, 58, 56
2, 86007, Note_on_c, 0, 67, 72
2, 86019, Note_on_c, 0, 63, 0
2, 86050, Note_on_c, 0, 55, 63
2, 86062, Note_on_c, 0, 58, 0
2, 86141, Note_on_c, 0, 55, 0
2, 86170, Note_on_c, 0, 51, 57
2, 86173, Note_on_c, 0, 65, 77
2, 86193, Note_on_c, 0, 67, 0
2, 86334, Note_on_c, 0, 65, 0
2, 86343, Note_on_c, 0, 68, 79
2, 86417, Control_c, 0, 64, 41
2, 86432, Control_c, 0, 64, 56
2, 86447, Control_c, 0, 64, 62
2, 86462, Control_c, 0, 64, 64
2, 86464, Note_on_c, 0, 68, 0
2, 86477, Control_c, 0, 64, 65
2, 86493, Control_c, 0, 64, 67
2, 86499, Note_on_c, 0, 67, 84
2, 86508, Control_c, 0, 64, 69
2, 86524, Control_c, 0, 64, 74
2, 86538, Control_c, 0, 64, 79
2, 86553, Control_c, 0, 64, 84
2, 86569, Control_c, 0, 64, 86
2, 86584, Control_c, 0, 64, 87
2, 86620, Note_on_c, 0, 51, 0
2, 86658, Note_on_c, 0, 70, 79
2, 86673, Note_on_c, 0, 55, 65
2, 86675, Control_c, 0, 64, 86
2, 86691, Control_c, 0, 64, 82
2, 86698, Note_on_c, 0, 67, 0
2, 86706, Control_c, 0, 64, 76
2, 86721, Control_c, 0, 64, 70
2, 86736, Control_c, 0, 64, 64
2, 86737, Note_on_c, 0, 55, 0
2, 86751, Control_c, 0, 64, 50
2, 86756, Note_on_c, 0, 58, 65
2, 86767, Control_c, 0, 64, 0
2, 86804, Note_on_c, 0, 58, 0
2, 86818, Note_on_c, 0, 59, 72
2, 86826, Note_on_c, 0, 68, 79
2, 86862, Note_on_c, 0, 70, 0
2, 86885, Note_on_c, 0, 59, 0
2, 86914, Note_on_c, 0, 58, 67
2, 86990, Note_on_c, 0, 71, 88
2, 86995, Note_on_c, 0, 68, 0
2, 87000, Note_on_c, 0, 56, 76
2, 87010, Note_on_c, 0, 58, 0
2, 87152, Note_on_c, 0, 70, 82
2, 87172, Note_on_c, 0, 56, 0
2, 87172, Note_on_c, 0, 71, 0
2, 87191, Note_on_c, 0, 55, 56
2, 87307, Note_on_c, 0, 55, 0
2, 87324, Note_on_c, 0, 73, 85
2, 87332, Note_on_c, 0, 58, 66
2, 87335, Note_on_c, 0, 70, 0
2, 87401, Note_on_c, 0, 61, 74
2, 87402, Note_on_c, 0, 58, 0
2, 87474, Note_on_c, 0, 71, 82
2, 87483, Note_on_c, 0, 61, 0
2, 87488, Note_on_c, 0, 64, 78
2, 87511, Note_on_c, 0, 73, 0
2, 87651, Note_on_c, 0, 70, 79
2, 87679, Note_on_c, 0, 71, 0
2, 87830, Note_on_c, 0, 68, 79
2, 87844, Control_c, 0, 64, 39
2, 87860, Control_c, 0, 64, 53
2, 87874, Control_c, 0, 64, 58
2, 87887, Note_on_c, 0, 70, 0
2, 87890, Control_c, 0, 64, 61
2, 87905, Control_c, 0, 64, 63
2, 87920, Control_c, 0, 64, 65
2, 87935, Control_c, 0, 64, 69
2, 87950, Control_c, 0, 64, 73
2, 87956, Note_on_c, 0, 64, 0
2, 87956, Note_on_c, 0, 68, 0
2, 87965, Control_c, 0, 64, 77
2, 87970, Note_on_c, 0, 67, 81
2, 87972, Note_on_c, 0, 58, 67
2, 87981, Control_c, 0, 64, 80
2, 87996, Control_c, 0, 64, 83
2, 88011, Control_c, 0, 64, 84
2, 88026, Control_c, 0, 64, 84
2, 88035, Note_on_c, 0, 58, 0
2, 88055, Note_on_c, 0, 56, 67
2, 88057, Control_c, 0, 64, 85
2, 88115, Note_on_c, 0, 67, 0
2, 88116, Note_on_c, 0, 58, 63
2, 88120, Note_on_c, 0, 65, 72
2, 88127, Note_on_c, 0, 56, 0
2, 88148, Control_c, 0, 64, 84
2, 88163, Control_c, 0, 64, 82
2, 88179, Control_c, 0, 64, 79
2, 88183, Note_on_c, 0, 58, 0
2, 88192, Note_on_c, 0, 59, 67
2, 88194, Control_c, 0, 64, 73
2, 88209, Control_c, 0, 64, 66
2, 88224, Control_c, 0, 64, 57
2, 88239, Control_c, 0, 64, 0
2, 88267, Note_on_c, 0, 59, 0
2, 88283, Note_on_c, 0, 65, 0
2, 88289, Note_on_c, 0, 61, 67
2, 88309, Note_on_c, 0, 63, 71
2, 88520, Note_on_c, 0, 53, 41
2, 88536, Note_on_c, 0, 75, 75
2, 88578, Note_on_c, 0, 63, 0
2, 88638, Note_on_c, 0, 61, 0
2, 88695, Note_on_c, 0, 72, 68
2, 88701, Note_on_c, 0, 53, 0
2, 88710, Note_on_c, 0, 75, 0
2, 88737, Note_on_c, 0, 57, 58
2, 88779, Note_on_c, 0, 69, 64
2, 88788, Note_on_c, 0, 72, 0
2, 88830, Note_on_c, 0, 57, 0
2, 88841, Note_on_c, 0, 69, 0
2, 88861, Note_on_c, 0, 65, 66
2, 88883, Note_on_c, 0, 55, 58
2, 89039, Note_on_c, 0, 58, 72
2, 89117, Note_on_c, 0, 55, 0
2, 89192, Note_on_c, 0, 57, 74
2, 89309, Note_on_c, 0, 58, 0
2, 89345, Note_on_c, 0, 57, 0
2, 89372, Note_on_c, 0, 60, 78
2, 89386, Note_on_c, 0, 69, 62
2, 89389, Note_on_c, 0, 65, 0
2, 89441, Note_on_c, 0, 69, 0
2, 89459, Note_on_c, 0, 72, 72
2, 89532, Note_on_c, 0, 73, 84
2, 89534, Note_on_c, 0, 58, 69
2, 89536, Note_on_c, 0, 72, 0
2, 89572, Note_on_c, 0, 60, 0
2, 89609, Note_on_c, 0, 72, 68
2, 89624, Note_on_c, 0, 71, 61
2, 89655, Note_on_c, 0, 71, 0
2, 89697, Note_on_c, 0, 70, 82
2, 89700, Note_on_c, 0, 72, 0
2, 89712, Note_on_c, 0, 61, 85
2, 89741, Note_on_c, 0, 73, 0
2, 89818, Note_on_c, 0, 58, 0
2, 89870, Note_on_c, 0, 70, 0
2, 89876, Note_on_c, 0, 69, 81
2, 89877, Note_on_c, 0, 60, 87
2, 89916, Note_on_c, 0, 61, 0
2, 90009, Note_on_c, 0, 60, 0
2, 90035, Note_on_c, 0, 69, 0
2, 90045, Note_on_c, 0, 72, 78
2, 90057, Note_on_c, 0, 63, 80
2, 90114, Note_on_c, 0, 75, 86
2, 90135, Note_on_c, 0, 72, 0
2, 90191, Note_on_c, 0, 78, 90
2, 90210, Note_on_c, 0, 75, 0
2, 90213, Note_on_c, 0, 61, 81
2, 90234, Note_on_c, 0, 63, 0
2, 90339, Note_on_c, 0, 61, 0
2, 90372, Note_on_c, 0, 60, 85
2, 90530, Control_c, 0, 64, 27
2, 90532, Note_on_c, 0, 58, 86
2, 90544, Control_c, 0, 64, 53
2, 90560, Control_c, 0, 64, 61
2, 90572, Note_on_c, 0, 60, 0
2, 90575, Control_c, 0, 64, 65
2, 90589, Control_c, 0, 64, 68
2, 90605, Control_c, 0, 64, 75
2, 90620, Control_c, 0, 64, 84
2, 90635, Control_c, 0, 64, 94
2, 90651, Control_c, 0, 64, 100
2, 90665, Note_on_c, 0, 58, 0
2, 90666, Control_c, 0, 64, 101
2, 90682, Control_c, 0, 64, 101
2, 90710, Note_on_c, 0, 57, 73
2, 90714, Note_on_c, 0, 72, 79
2, 90716, Note_on_c, 0, 78, 0
2, 90727, Control_c, 0, 64, 101
2, 90757, Control_c, 0, 64, 100
2, 90773, Control_c, 0, 64, 95
2, 90784, Note_on_c, 0, 70, 78
2, 90794, Control_c, 0, 64, 85
2, 90797, Note_on_c, 0, 72, 0
2, 90810, Control_c, 0, 64, 75
2, 90825, Control_c, 0, 64, 66
2, 90841, Control_c, 0, 64, 49
2, 90856, Control_c, 0, 64, 0
2, 90864, Note_on_c, 0, 57, 0
2, 90875, Note_on_c, 0, 72, 81
2, 90877, Note_on_c, 0, 55, 78
2, 90897, Note_on_c, 0, 70, 0
2, 90950, Note_on_c, 0, 72, 0
2, 90953, Note_on_c, 0, 74, 79
2, 90978, Control_c, 0, 64, 44
2, 90993, Control_c, 0, 64, 58
2, 91008, Control_c, 0, 64, 62
2, 91014, Note_on_c, 0, 53, 78
2, 91023, Control_c, 0, 64, 66
2, 91024, Note_on_c, 0, 75, 88
2, 91038, Control_c, 0, 64, 76
2, 91043, Note_on_c, 0, 55, 0
2, 91043, Note_on_c, 0, 74, 0
2, 91054, Control_c, 0, 64, 110
2, 91065, Note_on_c, 0, 53, 0
2, 91069, Control_c, 0, 64, 127
2, 91165, Note_on_c, 0, 75, 0
2, 91191, Control_c, 0, 64, 105
2, 91196, Note_on_c, 0, 74, 88
2, 91207, Control_c, 0, 64, 77
2, 91215, Note_on_c, 0, 56, 79
2, 91222, Control_c, 0, 64, 63
2, 91237, Control_c, 0, 64, 0
2, 91340, Note_on_c, 0, 56, 0
2, 91381, Note_on_c, 0, 53, 73
2, 91381, Note_on_c, 0, 77, 82
2, 91406, Note_on_c, 0, 74, 0
2, 91463, Note_on_c, 0, 50, 81
2, 91500, Note_on_c, 0, 53, 0
2, 91572, Note_on_c, 0, 75, 87
2, 91582, Note_on_c, 0, 46, 86
2, 91584, Note_on_c, 0, 50, 0
2, 91608, Note_on_c, 0, 77, 0
2, 91743, Note_on_c, 0, 78, 77
2, 91749, Note_on_c, 0, 75, 0
2, 91762, Control_c, 0, 64, 24
2, 91777, Control_c, 0, 64, 49
2, 91791, Control_c, 0, 64, 58
2, 91807, Control_c, 0, 64, 62
2, 91822, Control_c, 0, 64, 64
2, 91837, Control_c, 0, 64, 67
2, 91852, Control_c, 0, 64, 70
2, 91862, Note_on_c, 0, 78, 0
2, 91869, Control_c, 0, 64, 75
2, 91885, Control_c, 0, 64, 80
2, 91899, Control_c, 0, 64, 83
2, 91910, Note_on_c, 0, 77, 90
2, 91914, Control_c, 0, 64, 86
2, 91930, Control_c, 0, 64, 86
2, 91944, Control_c, 0, 64, 87
2, 91960, Control_c, 0, 64, 87
2, 92063, Note_on_c, 0, 46, 0
2, 92072, Note_on_c, 0, 80, 83
2, 92076, Note_on_c, 0, 50, 74
2, 92112, Note_on_c, 0, 77, 0
2, 92143, Note_on_c, 0, 53, 79
2, 92157, Control_c, 0, 64, 87
2, 92173, Control_c, 0, 64, 85
2, 92179, Note_on_c, 0, 50, 0
2, 92188, Control_c, 0, 64, 81
2, 92204, Control_c, 0, 64, 75
2, 92219, Control_c, 0, 64, 67
2, 92233, Control_c, 0, 64, 55
2, 92237, Note_on_c, 0, 58, 91
2, 92237, Note_on_c, 0, 78, 88
2, 92249, Control_c, 0, 64, 0
2, 92261, Note_on_c, 0, 53, 0
2, 92384, Note_on_c, 0, 80, 0
2, 92421, Note_on_c, 0, 82, 85
2, 92452, Note_on_c, 0, 78, 0
2, 92454, Control_c, 0, 64, 31
2, 92469, Control_c, 0, 64, 51
2, 92485, Control_c, 0, 64, 59
2, 92499, Control_c, 0, 64, 62
2, 92514, Control_c, 0, 64, 63
2, 92530, Control_c, 0, 64, 64
2, 92545, Control_c, 0, 64, 67
2, 92561, Control_c, 0, 64, 72
2, 92575, Control_c, 0, 64, 80
2, 92586, Note_on_c, 0, 80, 90
2, 92590, Control_c, 0, 64, 90
2, 92606, Control_c, 0, 64, 94
2, 92616, Note_on_c, 0, 82, 0
2, 92621, Control_c, 0, 64, 96
2, 92636, Control_c, 0, 64, 97
2, 92734, Note_on_c, 0, 56, 77
2, 92738, Note_on_c, 0, 58, 0
2, 92740, Note_on_c, 0, 80, 0
2, 92745, Note_on_c, 0, 83, 89
2, 92800, Note_on_c, 0, 53, 67
2, 92831, Note_on_c, 0, 56, 0
2, 92895, Control_c, 0, 64, 96
2, 92896, Note_on_c, 0, 53, 0
2, 92909, Note_on_c, 0, 50, 79
2, 92910, Control_c, 0, 64, 94
2, 92911, Note_on_c, 0, 82, 91
2, 92926, Control_c, 0, 64, 90
2, 92940, Control_c, 0, 64, 85
2, 92943, Note_on_c, 0, 83, 0
2, 92955, Control_c, 0, 64, 79
2, 92971, Control_c, 0, 64, 73
2, 92986, Control_c, 0, 64, 67
2, 93002, Control_c, 0, 64, 55
2, 93017, Control_c, 0, 64, 0
2, 93088, Note_on_c, 0, 80, 87
2, 93100, Note_on_c, 0, 59, 91
2, 93139, Note_on_c, 0, 82, 0
2, 93212, Note_on_c, 0, 50, 0
2, 93271, Note_on_c, 0, 58, 89
2, 93271, Note_on_c, 0, 78, 90
2, 93276, Note_on_c, 0, 59, 0
2, 93313, Control_c, 0, 64, 41
2, 93322, Note_on_c, 0, 58, 0
2, 93326, Note_on_c, 0, 80, 0
2, 93329, Control_c, 0, 64, 53
2, 93343, Control_c, 0, 64, 59
2, 93358, Control_c, 0, 64, 64
2, 93374, Control_c, 0, 64, 69
2, 93389, Control_c, 0, 64, 79
2, 93405, Control_c, 0, 64, 93
2, 93419, Control_c, 0, 64, 124
2, 93434, Control_c, 0, 64, 127
2, 93440, Note_on_c, 0, 77, 88
2, 93447, Note_on_c, 0, 56, 81
2, 93451, Note_on_c, 0, 78, 0
2, 93499, Note_on_c, 0, 54, 73
2, 93509, Note_on_c, 0, 56, 0
2, 93577, Note_on_c, 0, 53, 73
2, 93587, Control_c, 0, 64, 121
2, 93597, Note_on_c, 0, 54, 0
2, 93597, Note_on_c, 0, 75, 78
2, 93603, Control_c, 0, 64, 90
2, 93618, Control_c, 0, 64, 73
2, 93632, Control_c, 0, 64, 58
2, 93645, Note_on_c, 0, 77, 0
2, 93648, Control_c, 0, 64, 0
2, 93684, Note_on_c, 0, 53, 0
2, 93690, Note_on_c, 0, 54, 78
2, 93747, Note_on_c, 0, 54, 0
2, 93758, Note_on_c, 0, 56, 85
2, 93758, Note_on_c, 0, 74, 84
2, 93776, Note_on_c, 0, 75, 0
2, 93952, Note_on_c, 0, 54, 89
2, 93961, Note_on_c, 0, 74, 0
2, 93962, Note_on_c, 0, 56, 0
2, 93965, Note_on_c, 0, 75, 92
2, 93974, Control_c, 0, 64, 54
2, 93989, Control_c, 0, 64, 65
2, 93994, Note_on_c, 0, 54, 0
2, 94005, Control_c, 0, 64, 76
2, 94020, Control_c, 0, 64, 107
2, 94035, Control_c, 0, 64, 127
2, 94105, Note_on_c, 0, 75, 0
2, 94135, Note_on_c, 0, 77, 85
2, 94217, Control_c, 0, 64, 101
2, 94218, Note_on_c, 0, 78, 82
2, 94221, Note_on_c, 0, 77, 0
2, 94232, Control_c, 0, 64, 81
2, 94247, Control_c, 0, 64, 67
2, 94262, Control_c, 0, 64, 40
2, 94277, Control_c, 0, 64, 0
2, 94294, Note_on_c, 0, 80, 86
2, 94308, Note_on_c, 0, 78, 0
2, 94314, Note_on_c, 0, 47, 81
2, 94362, Note_on_c, 0, 47, 0
2, 94388, Note_on_c, 0, 78, 94
2, 94426, Note_on_c, 0, 80, 0
2, 94478, Note_on_c, 0, 77, 87
2, 94503, Note_on_c, 0, 78, 0
2, 94655, Note_on_c, 0, 77, 0
2, 94656, Note_on_c, 0, 46, 91
2, 94658, Note_on_c, 0, 78, 84
2, 94773, Note_on_c, 0, 46, 0
2, 94837, Note_on_c, 0, 77, 74
2, 94931, Note_on_c, 0, 75, 81
2, 94947, Note_on_c, 0, 78, 0
2, 94967, Note_on_c, 0, 77, 0
2, 95005, Note_on_c, 0, 74, 88
2, 95008, Note_on_c, 0, 44, 92
2, 95027, Note_on_c, 0, 75, 0
2, 95079, Note_on_c, 0, 44, 0
2, 95103, Note_on_c, 0, 75, 84
2, 95118, Note_on_c, 0, 74, 0
2, 95191, Note_on_c, 0, 77, 84
2, 95210, Note_on_c, 0, 75, 0
2, 95344, Note_on_c, 0, 77, 0
2, 95358, Note_on_c, 0, 70, 81
2, 95368, Note_on_c, 0, 42, 93
2, 95395, Control_c, 0, 64, 44
2, 95418, Control_c, 0, 64, 60
2, 95419, Note_on_c, 0, 42, 0
2, 95433, Control_c, 0, 64, 66
2, 95449, Control_c, 0, 64, 79
2, 95463, Control_c, 0, 64, 108
2, 95465, Note_on_c, 0, 75, 75
2, 95478, Control_c, 0, 64, 127
2, 95489, Note_on_c, 0, 70, 0
2, 95531, Note_on_c, 0, 73, 76
2, 95573, Note_on_c, 0, 75, 0
2, 95629, Note_on_c, 0, 71, 78
2, 95629, Note_on_c, 0, 73, 0
2, 95691, Control_c, 0, 64, 95
2, 95706, Control_c, 0, 64, 72
2, 95721, Control_c, 0, 64, 52
2, 95734, Note_on_c, 0, 70, 80
2, 95736, Control_c, 0, 64, 0
2, 95739, Note_on_c, 0, 54, 81
2, 95775, Note_on_c, 0, 71, 0
2, 95904, Note_on_c, 0, 56, 86
2, 95909, Note_on_c, 0, 68, 88
2, 95910, Note_on_c, 0, 54, 0
2, 95957, Note_on_c, 0, 70, 0
2, 96101, Note_on_c, 0, 58, 94
2, 96101, Note_on_c, 0, 66, 86
2, 96103, Note_on_c, 0, 56, 0
2, 96152, Note_on_c, 0, 58, 0
2, 96194, Note_on_c, 0, 68, 0
2, 96293, Note_on_c, 0, 66, 0
2, 96307, Note_on_c, 0, 65, 79
2, 96401, Note_on_c, 0, 66, 84
2, 96427, Note_on_c, 0, 65, 0
2, 96500, Note_on_c, 0, 46, 84
2, 96503, Note_on_c, 0, 68, 88
2, 96545, Note_on_c, 0, 66, 0
2, 96561, Note_on_c, 0, 46, 0
2, 96614, Note_on_c, 0, 66, 87
2, 96690, Note_on_c, 0, 68, 0
2, 96748, Note_on_c, 0, 65, 88
2, 96781, Note_on_c, 0, 66, 0
2, 97036, Note_on_c, 0, 63, 82
2, 97047, Note_on_c, 0, 65, 0
2, 97051, Note_on_c, 0, 37, 71
2, 97280, Note_on_c, 0, 37, 0
2, 97310, Note_on_c, 0, 66, 71
2, 97338, Note_on_c, 0, 39, 53
2, 97521, Note_on_c, 0, 70, 81
2, 97588, Note_on_c, 0, 66, 0
2, 97748, Note_on_c, 0, 74, 79
2, 97769, Note_on_c, 0, 70, 0
2, 97794, Note_on_c, 0, 63, 0
2, 97824, Note_on_c, 0, 74, 0
2, 97828, Control_c, 0, 64, 45
2, 97843, Control_c, 0, 64, 62
2, 97858, Control_c, 0, 64, 70
2, 97873, Control_c, 0, 64, 103
2, 97889, Control_c, 0, 64, 127
2, 98070, Note_on_c, 0, 74, 79
2, 98085, Control_c, 0, 64, 81
2, 98101, Control_c, 0, 64, 64
2, 98115, Control_c, 0, 64, 0
2, 98764, Note_on_c, 0, 75, 65
2, 98795, Note_on_c, 0, 74, 0
2, 98914, Control_c, 0, 64, 39
2, 98930, Control_c, 0, 64, 51
2, 98945, Control_c, 0, 64, 57
2, 98959, Control_c, 0, 64, 62
2, 98975, Control_c, 0, 64, 65
2, 98990, Control_c, 0, 64, 71
2, 99005, Control_c, 0, 64, 83
2, 99021, Control_c, 0, 64, 127
2, 99117, Note_on_c, 0, 75, 0
2, 99541, Note_on_c, 0, 39, 0
2, 99789, Control_c, 0, 64, 98
2, 99803, Control_c, 0, 64, 87
2, 99819, Control_c, 0, 64, 78
2, 99834, Control_c, 0, 64, 70
2, 99850, Control_c, 0, 64, 62
2, 99865, Control_c, 0, 64, 44
2, 99879, Control_c, 0, 64, 0
2, 101052,End_track
0, 0, End_of_file
