0, 0, Header, 1, 2, 384
1, 0, Start_track
1, 0, Tempo, 500000
1, 0, Time_signature, 4, 2, 24, 8
1, 1, End_track
2, 0, Start_track
2, 0, Title_t, "7.6.13 Group 2"
2, 0, Program_c, 0, 0
2, 0, Control_c, 0, 64, 0
2, 0, Control_c, 0, 66, 0
2, 0, Control_c, 0, 67, 0
2, 773, Note_on_c, 0, 64, 49
2, 777, Note_on_c, 0, 52, 38
2, 1080, Note_on_c, 0, 68, 63
2, 1240, Note_on_c, 0, 64, 0
2, 1293, Note_on_c, 0, 71, 69
2, 1529, Note_on_c, 0, 56, 52
2, 1542, Note_on_c, 0, 76, 63
2, 1567, Note_on_c, 0, 71, 0
2, 1585, Note_on_c, 0, 68, 0
2, 1772, Note_on_c, 0, 75, 65
2, 1800, Note_on_c, 0, 76, 0
2, 1985, Note_on_c, 0, 76, 68
2, 2028, Note_on_c, 0, 75, 0
2, 2222, Note_on_c, 0, 57, 45
2, 2225, Note_on_c, 0, 75, 59
2, 2230, Note_on_c, 0, 76, 0
2, 2264, Note_on_c, 0, 75, 0
2, 2272, Note_on_c, 0, 73, 61
2, 2306, Note_on_c, 0, 73, 0
2, 2315, Note_on_c, 0, 56, 0
2, 2343, Note_on_c, 0, 75, 62
2, 2374, Note_on_c, 0, 73, 73
2, 2409, Note_on_c, 0, 75, 0
2, 2455, Note_on_c, 0, 71, 70
2, 2466, Note_on_c, 0, 73, 0
2, 2662, Note_on_c, 0, 73, 70
2, 2766, Note_on_c, 0, 71, 0
2, 2885, Note_on_c, 0, 76, 64
2, 2909, Note_on_c, 0, 73, 0
2, 3107, Note_on_c, 0, 56, 48
2, 3156, Note_on_c, 0, 57, 0
2, 3307, Note_on_c, 0, 54, 51
2, 3331, Note_on_c, 0, 56, 0
2, 3521, Note_on_c, 0, 73, 62
2, 3521, Note_on_c, 0, 76, 0
2, 3522, Note_on_c, 0, 56, 45
2, 3523, Note_on_c, 0, 54, 0
2, 3555, Note_on_c, 0, 73, 0
2, 3566, Note_on_c, 0, 71, 61
2, 3600, Note_on_c, 0, 71, 0
2, 3627, Note_on_c, 0, 73, 69
2, 3673, Note_on_c, 0, 71, 69
2, 3676, Note_on_c, 0, 73, 0
2, 3716, Note_on_c, 0, 71, 0
2, 3733, Note_on_c, 0, 69, 60
2, 3933, Note_on_c, 0, 71, 66
2, 3949, Note_on_c, 0, 69, 0
2, 4170, Note_on_c, 0, 76, 60
2, 4236, Note_on_c, 0, 71, 0
2, 4377, Note_on_c, 0, 57, 43
2, 4383, Note_on_c, 0, 56, 0
2, 4609, Note_on_c, 0, 56, 47
2, 4649, Note_on_c, 0, 57, 0
2, 4848, Note_on_c, 0, 54, 47
2, 4848, Note_on_c, 0, 69, 51
2, 4940, Note_on_c, 0, 56, 0
2, 5082, Note_on_c, 0, 71, 63
2, 5146, Note_on_c, 0, 76, 0
2, 5177, Note_on_c, 0, 69, 0
2, 5245, Note_on_c, 0, 52, 0
2, 5303, Note_on_c, 0, 73, 71
2, 5377, Note_on_c, 0, 71, 0
2, 5526, Note_on_c, 0, 71, 63
2, 5530, Note_on_c, 0, 51, 50
2, 5572, Note_on_c, 0, 73, 0
2, 5752, Note_on_c, 0, 73, 72
2, 5810, Note_on_c, 0, 71, 0
2, 5957, Note_on_c, 0, 69, 65
2, 5973, Note_on_c, 0, 73, 0
2, 6179, Note_on_c, 0, 68, 56
2, 6183, Note_on_c, 0, 52, 44
2, 6205, Note_on_c, 0, 69, 0
2, 6236, Note_on_c, 0, 51, 0
2, 6251, Note_on_c, 0, 54, 0
2, 6411, Note_on_c, 0, 71, 66
2, 6415, Note_on_c, 0, 56, 64
2, 6419, Note_on_c, 0, 68, 0
2, 6603, Note_on_c, 0, 52, 0
2, 6618, Note_on_c, 0, 59, 66
2, 6629, Note_on_c, 0, 76, 70
2, 6673, Note_on_c, 0, 71, 0
2, 6716, Note_on_c, 0, 56, 0
2, 6849, Note_on_c, 0, 59, 0
2, 6851, Note_on_c, 0, 64, 71
2, 6858, Note_on_c, 0, 80, 75
2, 6948, Note_on_c, 0, 76, 0
2, 7061, Note_on_c, 0, 63, 67
2, 7089, Note_on_c, 0, 64, 0
2, 7263, Note_on_c, 0, 64, 72
2, 7282, Note_on_c, 0, 63, 0
2, 7505, Note_on_c, 0, 58, 67
2, 7565, Note_on_c, 0, 64, 0
2, 7732, Note_on_c, 0, 78, 71
2, 7940, Note_on_c, 0, 61, 63
2, 7947, Note_on_c, 0, 76, 64
2, 7989, Note_on_c, 0, 78, 0
2, 8030, Note_on_c, 0, 61, 0
2, 8038, Note_on_c, 0, 80, 0
2, 8193, Note_on_c, 0, 66, 58
2, 8204, Note_on_c, 0, 75, 62
2, 8209, Note_on_c, 0, 76, 0
2, 8296, Control_c, 0, 64, 33
2, 8311, Control_c, 0, 64, 49
2, 8327, Control_c, 0, 64, 60
2, 8342, Control_c, 0, 64, 64
2, 8365, Control_c, 0, 64, 67
2, 8380, Control_c, 0, 64, 71
2, 8394, Control_c, 0, 64, 77
2, 8410, Control_c, 0, 64, 84
2, 8424, Note_on_c, 0, 76, 64
2, 8425, Control_c, 0, 64, 94
2, 8439, Control_c, 0, 64, 127
2, 8456, Note_on_c, 0, 75, 0
2, 8508, Note_on_c, 0, 58, 0
2, 8564, Note_on_c, 0, 66, 0
2, 8631, Note_on_c, 0, 73, 65
2, 8678, Note_on_c, 0, 76, 0
2, 8728, Note_on_c, 0, 73, 0
2, 8859, Note_on_c, 0, 47, 38
2, 8860, Note_on_c, 0, 73, 57
2, 8987, Note_on_c, 0, 75, 62
2, 9013, Note_on_c, 0, 73, 0
2, 9018, Control_c, 0, 64, 118
2, 9062, Note_on_c, 0, 75, 0
2, 9094, Note_on_c, 0, 76, 56
2, 9107, Note_on_c, 0, 51, 49
2, 9136, Note_on_c, 0, 76, 0
2, 9155, Note_on_c, 0, 75, 56
2, 9190, Note_on_c, 0, 75, 0
2, 9216, Note_on_c, 0, 76, 64
2, 9250, Note_on_c, 0, 76, 0
2, 9271, Note_on_c, 0, 75, 68
2, 9293, Note_on_c, 0, 75, 0
2, 9311, Note_on_c, 0, 54, 55
2, 9324, Note_on_c, 0, 76, 68
2, 9355, Note_on_c, 0, 76, 0
2, 9372, Note_on_c, 0, 75, 66
2, 9417, Note_on_c, 0, 47, 0
2, 9439, Note_on_c, 0, 75, 0
2, 9456, Note_on_c, 0, 75, 42
2, 9491, Note_on_c, 0, 75, 0
2, 9492, Note_on_c, 0, 76, 45
2, 9528, Note_on_c, 0, 51, 0
2, 9548, Note_on_c, 0, 59, 59
2, 9550, Note_on_c, 0, 75, 54
2, 9552, Note_on_c, 0, 54, 0
2, 9558, Control_c, 0, 64, 115
2, 9568, Note_on_c, 0, 76, 0
2, 9574, Control_c, 0, 64, 111
2, 9588, Control_c, 0, 64, 106
2, 9604, Control_c, 0, 64, 100
2, 9619, Control_c, 0, 64, 94
2, 9634, Control_c, 0, 64, 86
2, 9650, Control_c, 0, 64, 79
2, 9664, Control_c, 0, 64, 73
2, 9679, Control_c, 0, 64, 67
2, 9695, Control_c, 0, 64, 59
2, 9709, Control_c, 0, 64, 42
2, 9725, Control_c, 0, 64, 0
2, 9750, Note_on_c, 0, 58, 58
2, 9757, Note_on_c, 0, 59, 0
2, 9976, Note_on_c, 0, 59, 59
2, 9991, Note_on_c, 0, 58, 0
2, 10209, Note_on_c, 0, 52, 56
2, 10313, Note_on_c, 0, 59, 0
2, 10427, Note_on_c, 0, 76, 68
2, 10632, Note_on_c, 0, 78, 75
2, 10643, Note_on_c, 0, 59, 52
2, 10696, Note_on_c, 0, 75, 0
2, 10696, Note_on_c, 0, 76, 0
2, 10736, Note_on_c, 0, 59, 0
2, 10891, Note_on_c, 0, 64, 58
2, 10908, Note_on_c, 0, 80, 69
2, 11121, Note_on_c, 0, 73, 65
2, 11145, Note_on_c, 0, 78, 0
2, 11159, Note_on_c, 0, 80, 0
2, 11331, Note_on_c, 0, 76, 65
2, 11392, Note_on_c, 0, 73, 0
2, 11558, Note_on_c, 0, 54, 48
2, 11562, Note_on_c, 0, 66, 56
2, 11580, Note_on_c, 0, 76, 0
2, 11619, Note_on_c, 0, 52, 0
2, 11785, Note_on_c, 0, 70, 65
2, 11843, Note_on_c, 0, 64, 0
2, 11995, Note_on_c, 0, 73, 73
2, 12239, Note_on_c, 0, 63, 54
2, 12241, Note_on_c, 0, 78, 69
2, 12330, Note_on_c, 0, 66, 0
2, 12454, Note_on_c, 0, 76, 67
2, 12483, Note_on_c, 0, 70, 0
2, 12497, Note_on_c, 0, 78, 0
2, 12499, Note_on_c, 0, 73, 0
2, 12677, Note_on_c, 0, 78, 74
2, 12722, Note_on_c, 0, 76, 0
2, 12903, Note_on_c, 0, 68, 63
2, 13117, Note_on_c, 0, 78, 0
2, 13121, Note_on_c, 0, 71, 68
2, 13151, Note_on_c, 0, 68, 0
2, 13329, Note_on_c, 0, 75, 66
2, 13569, Note_on_c, 0, 76, 61
2, 13597, Note_on_c, 0, 75, 0
2, 13602, Note_on_c, 0, 71, 0
2, 13766, Note_on_c, 0, 63, 0
2, 13781, Note_on_c, 0, 61, 51
2, 13994, Note_on_c, 0, 59, 55
2, 14002, Note_on_c, 0, 61, 0
2, 14226, Note_on_c, 0, 66, 51
2, 14228, Note_on_c, 0, 58, 48
2, 14230, Note_on_c, 0, 59, 0
2, 14454, Note_on_c, 0, 70, 62
2, 14687, Note_on_c, 0, 73, 73
2, 14753, Note_on_c, 0, 76, 0
2, 14783, Note_on_c, 0, 66, 0
2, 14931, Note_on_c, 0, 76, 66
2, 14954, Note_on_c, 0, 73, 0
2, 15142, Note_on_c, 0, 75, 65
2, 15175, Note_on_c, 0, 70, 0
2, 15185, Note_on_c, 0, 76, 0
2, 15352, Control_c, 0, 64, 12
2, 15365, Note_on_c, 0, 49, 43
2, 15368, Control_c, 0, 64, 43
2, 15383, Control_c, 0, 64, 53
2, 15389, Note_on_c, 0, 76, 57
2, 15398, Control_c, 0, 64, 59
2, 15406, Note_on_c, 0, 75, 0
2, 15414, Control_c, 0, 64, 64
2, 15428, Control_c, 0, 64, 68
2, 15444, Control_c, 0, 64, 73
2, 15459, Control_c, 0, 64, 80
2, 15474, Control_c, 0, 64, 87
2, 15490, Control_c, 0, 64, 96
2, 15504, Control_c, 0, 64, 108
2, 15519, Control_c, 0, 64, 127
2, 15588, Note_on_c, 0, 49, 0
2, 15636, Note_on_c, 0, 50, 49
2, 15652, Note_on_c, 0, 66, 55
2, 15726, Note_on_c, 0, 54, 0
2, 15762, Control_c, 0, 64, 113
2, 15777, Control_c, 0, 64, 96
2, 15792, Control_c, 0, 64, 86
2, 15808, Control_c, 0, 64, 78
2, 15823, Control_c, 0, 64, 71
2, 15837, Control_c, 0, 64, 65
2, 15853, Control_c, 0, 64, 57
2, 15868, Control_c, 0, 64, 34
2, 15878, Note_on_c, 0, 70, 58
2, 15883, Control_c, 0, 64, 0
2, 16001, Note_on_c, 0, 66, 0
2, 16109, Note_on_c, 0, 73, 65
2, 16378, Note_on_c, 0, 59, 40
2, 16379, Note_on_c, 0, 74, 57
2, 16389, Note_on_c, 0, 73, 0
2, 16421, Note_on_c, 0, 58, 0
2, 16503, Note_on_c, 0, 70, 0
2, 16604, Note_on_c, 0, 52, 43
2, 16649, Note_on_c, 0, 76, 0
2, 16813, Note_on_c, 0, 54, 59
2, 16815, Note_on_c, 0, 50, 0
2, 16833, Note_on_c, 0, 52, 0
2, 17071, Note_on_c, 0, 55, 56
2, 17093, Note_on_c, 0, 54, 0
2, 17288, Note_on_c, 0, 61, 54
2, 17307, Note_on_c, 0, 76, 62
2, 17309, Note_on_c, 0, 59, 0
2, 17323, Note_on_c, 0, 74, 0
2, 17522, Note_on_c, 0, 62, 58
2, 17534, Note_on_c, 0, 74, 63
2, 17536, Note_on_c, 0, 61, 0
2, 17660, Note_on_c, 0, 76, 0
2, 17771, Note_on_c, 0, 62, 0
2, 17777, Note_on_c, 0, 73, 69
2, 17780, Note_on_c, 0, 64, 58
2, 17798, Note_on_c, 0, 74, 0
2, 18009, Note_on_c, 0, 74, 64
2, 18036, Note_on_c, 0, 73, 0
2, 18096, Control_c, 0, 64, 29
2, 18112, Control_c, 0, 64, 41
2, 18128, Control_c, 0, 64, 47
2, 18143, Control_c, 0, 64, 52
2, 18157, Control_c, 0, 64, 57
2, 18173, Control_c, 0, 64, 60
2, 18188, Control_c, 0, 64, 62
2, 18192, Note_on_c, 0, 74, 0
2, 18204, Control_c, 0, 64, 64
2, 18216, Note_on_c, 0, 71, 63
2, 18219, Control_c, 0, 64, 65
2, 18234, Control_c, 0, 64, 67
2, 18250, Control_c, 0, 64, 69
2, 18265, Control_c, 0, 64, 71
2, 18281, Control_c, 0, 64, 73
2, 18295, Control_c, 0, 64, 74
2, 18310, Control_c, 0, 64, 75
2, 18348, Control_c, 0, 64, 75
2, 18368, Note_on_c, 0, 71, 0
2, 18415, Note_on_c, 0, 70, 58
2, 18447, Note_on_c, 0, 71, 61
2, 18450, Note_on_c, 0, 54, 48
2, 18450, Note_on_c, 0, 70, 0
2, 18498, Note_on_c, 0, 55, 0
2, 18515, Control_c, 0, 64, 75
2, 18529, Note_on_c, 0, 71, 0
2, 18531, Control_c, 0, 64, 74
2, 18547, Control_c, 0, 64, 72
2, 18563, Control_c, 0, 64, 69
2, 18578, Control_c, 0, 64, 66
2, 18593, Control_c, 0, 64, 63
2, 18608, Control_c, 0, 64, 60
2, 18623, Control_c, 0, 64, 56
2, 18638, Control_c, 0, 64, 52
2, 18653, Control_c, 0, 64, 49
2, 18668, Control_c, 0, 64, 46
2, 18684, Control_c, 0, 64, 44
2, 18699, Control_c, 0, 64, 41
2, 18714, Control_c, 0, 64, 35
2, 18717, Note_on_c, 0, 68, 51
2, 18729, Control_c, 0, 64, 24
2, 18744, Control_c, 0, 64, 0
2, 18881, Control_c, 0, 64, 38
2, 18896, Control_c, 0, 64, 49
2, 18911, Control_c, 0, 64, 55
2, 18927, Control_c, 0, 64, 59
2, 18932, Note_on_c, 0, 68, 0
2, 18942, Control_c, 0, 64, 62
2, 18944, Note_on_c, 0, 66, 56
2, 18956, Control_c, 0, 64, 64
2, 18972, Control_c, 0, 64, 68
2, 18987, Control_c, 0, 64, 73
2, 19003, Control_c, 0, 64, 81
2, 19018, Control_c, 0, 64, 91
2, 19033, Control_c, 0, 64, 104
2, 19049, Control_c, 0, 64, 127
2, 19229, Note_on_c, 0, 79, 59
2, 19308, Note_on_c, 0, 64, 0
2, 19375, Note_on_c, 0, 66, 0
2, 19481, Note_on_c, 0, 78, 71
2, 19490, Note_on_c, 0, 56, 50
2, 19499, Note_on_c, 0, 63, 46
2, 19678, Control_c, 0, 64, 112
2, 19694, Control_c, 0, 64, 103
2, 19699, Note_on_c, 0, 54, 0
2, 19706, Note_on_c, 0, 63, 0
2, 19709, Control_c, 0, 64, 97
2, 19713, Note_on_c, 0, 58, 46
2, 19718, Note_on_c, 0, 61, 50
2, 19718, Note_on_c, 0, 77, 76
2, 19725, Control_c, 0, 64, 92
2, 19736, Note_on_c, 0, 56, 0
2, 19740, Control_c, 0, 64, 88
2, 19751, Note_on_c, 0, 79, 0
2, 19755, Control_c, 0, 64, 85
2, 19770, Control_c, 0, 64, 82
2, 19785, Control_c, 0, 64, 79
2, 19801, Control_c, 0, 64, 77
2, 19816, Control_c, 0, 64, 74
2, 19831, Control_c, 0, 64, 71
2, 19834, Note_on_c, 0, 78, 0
2, 19846, Control_c, 0, 64, 69
2, 19861, Control_c, 0, 64, 66
2, 19884, Control_c, 0, 64, 63
2, 19899, Control_c, 0, 64, 60
2, 19914, Control_c, 0, 64, 55
2, 19929, Control_c, 0, 64, 50
2, 19944, Control_c, 0, 64, 46
2, 19954, Note_on_c, 0, 58, 0
2, 19959, Control_c, 0, 64, 44
2, 19975, Control_c, 0, 64, 43
2, 19975, Note_on_c, 0, 61, 0
2, 19978, Note_on_c, 0, 59, 51
2, 19978, Note_on_c, 0, 76, 73
2, 19990, Control_c, 0, 64, 41
2, 20006, Control_c, 0, 64, 38
2, 20021, Control_c, 0, 64, 33
2, 20036, Control_c, 0, 64, 28
2, 20052, Control_c, 0, 64, 21
2, 20053, Note_on_c, 0, 77, 0
2, 20066, Control_c, 0, 64, 0
2, 20220, Note_on_c, 0, 75, 73
2, 20253, Note_on_c, 0, 76, 0
2, 20423, Note_on_c, 0, 53, 33
2, 20428, Note_on_c, 0, 74, 63
2, 20449, Note_on_c, 0, 75, 0
2, 20598, Control_c, 0, 64, 12
2, 20614, Control_c, 0, 64, 24
2, 20629, Control_c, 0, 64, 30
2, 20652, Control_c, 0, 64, 35
2, 20667, Control_c, 0, 64, 37
2, 20672, Note_on_c, 0, 54, 41
2, 20678, Note_on_c, 0, 73, 50
2, 20683, Control_c, 0, 64, 39
2, 20698, Control_c, 0, 64, 41
2, 20699, Note_on_c, 0, 74, 0
2, 20703, Note_on_c, 0, 59, 0
2, 20712, Control_c, 0, 64, 44
2, 20728, Control_c, 0, 64, 45
2, 20743, Control_c, 0, 64, 47
2, 20757, Control_c, 0, 64, 48
2, 20772, Note_on_c, 0, 53, 0
2, 20773, Control_c, 0, 64, 48
2, 20784, Note_on_c, 0, 75, 65
2, 20865, Control_c, 0, 64, 46
2, 20865, Note_on_c, 0, 73, 0
2, 20879, Control_c, 0, 64, 43
2, 20894, Note_on_c, 0, 58, 42
2, 20895, Control_c, 0, 64, 36
2, 20906, Note_on_c, 0, 76, 60
2, 20910, Control_c, 0, 64, 12
2, 20925, Note_on_c, 0, 75, 0
2, 20926, Control_c, 0, 64, 0
2, 21078, Control_c, 0, 64, 47
2, 21094, Control_c, 0, 64, 57
2, 21109, Control_c, 0, 64, 63
2, 21125, Control_c, 0, 64, 67
2, 21139, Control_c, 0, 64, 75
2, 21145, Note_on_c, 0, 76, 0
2, 21154, Control_c, 0, 64, 91
2, 21156, Note_on_c, 0, 64, 41
2, 21157, Note_on_c, 0, 70, 55
2, 21170, Control_c, 0, 64, 127
2, 21186, Note_on_c, 0, 58, 0
2, 21189, Note_on_c, 0, 54, 0
2, 21255, Note_on_c, 0, 64, 0
2, 21483, Note_on_c, 0, 47, 41
2, 21494, Note_on_c, 0, 63, 39
2, 21501, Note_on_c, 0, 71, 55
2, 21579, Note_on_c, 0, 70, 0
2, 21602, Control_c, 0, 64, 102
2, 21617, Control_c, 0, 64, 86
2, 21632, Control_c, 0, 64, 75
2, 21648, Control_c, 0, 64, 66
2, 21663, Control_c, 0, 64, 58
2, 21677, Control_c, 0, 64, 21
2, 21693, Control_c, 0, 64, 0
2, 21771, Note_on_c, 0, 51, 46
2, 21936, Note_on_c, 0, 47, 0
2, 21990, Note_on_c, 0, 54, 60
2, 22069, Note_on_c, 0, 51, 0
2, 22156, Note_on_c, 0, 63, 0
2, 22235, Note_on_c, 0, 59, 62
2, 22241, Note_on_c, 0, 54, 0
2, 22453, Note_on_c, 0, 57, 59
2, 22467, Note_on_c, 0, 59, 0
2, 22677, Note_on_c, 0, 59, 63
2, 22683, Note_on_c, 0, 57, 0
2, 22928, Note_on_c, 0, 56, 58
2, 22974, Note_on_c, 0, 59, 0
2, 23169, Note_on_c, 0, 75, 68
2, 23390, Note_on_c, 0, 78, 69
2, 23427, Note_on_c, 0, 71, 0
2, 23613, Note_on_c, 0, 83, 72
2, 23805, Note_on_c, 0, 78, 0
2, 23846, Note_on_c, 0, 54, 46
2, 23855, Note_on_c, 0, 81, 70
2, 23885, Note_on_c, 0, 56, 0
2, 23917, Note_on_c, 0, 83, 0
2, 23950, Note_on_c, 0, 75, 0
2, 24081, Note_on_c, 0, 83, 72
2, 24087, Note_on_c, 0, 56, 50
2, 24133, Note_on_c, 0, 54, 0
2, 24140, Note_on_c, 0, 81, 0
2, 24332, Note_on_c, 0, 73, 68
2, 24335, Note_on_c, 0, 53, 46
2, 24336, Note_on_c, 0, 56, 0
2, 24577, Note_on_c, 0, 56, 54
2, 24579, Note_on_c, 0, 77, 75
2, 24620, Note_on_c, 0, 73, 0
2, 24741, Note_on_c, 0, 83, 0
2, 24808, Note_on_c, 0, 59, 51
2, 24809, Note_on_c, 0, 80, 71
2, 24869, Note_on_c, 0, 56, 0
2, 25030, Note_on_c, 0, 59, 0
2, 25050, Note_on_c, 0, 62, 52
2, 25053, Note_on_c, 0, 83, 73
2, 25108, Note_on_c, 0, 80, 0
2, 25182, Note_on_c, 0, 77, 0
2, 25270, Note_on_c, 0, 62, 0
2, 25291, Note_on_c, 0, 59, 49
2, 25508, Note_on_c, 0, 59, 0
2, 25509, Note_on_c, 0, 61, 53
2, 25743, Note_on_c, 0, 54, 50
2, 25799, Note_on_c, 0, 53, 0
2, 25969, Note_on_c, 0, 80, 54
2, 26076, Note_on_c, 0, 83, 0
2, 26086, Note_on_c, 0, 80, 0
2, 26196, Note_on_c, 0, 81, 58
2, 26420, Note_on_c, 0, 59, 55
2, 26431, Note_on_c, 0, 50, 49
2, 26451, Note_on_c, 0, 61, 0
2, 26467, Note_on_c, 0, 54, 0
2, 26646, Note_on_c, 0, 78, 68
2, 26670, Note_on_c, 0, 81, 0
2, 26753, Note_on_c, 0, 78, 0
2, 26874, Note_on_c, 0, 80, 71
2, 27096, Note_on_c, 0, 51, 62
2, 27103, Note_on_c, 0, 60, 62
2, 27116, Note_on_c, 0, 50, 0
2, 27221, Note_on_c, 0, 59, 0
2, 27318, Note_on_c, 0, 77, 73
2, 27387, Note_on_c, 0, 80, 0
2, 27430, Note_on_c, 0, 77, 0
2, 27545, Note_on_c, 0, 78, 78
2, 27637, Note_on_c, 0, 60, 0
2, 27762, Control_c, 0, 64, 8
2, 27784, Note_on_c, 0, 78, 0
2, 27785, Note_on_c, 0, 61, 54
2, 27789, Note_on_c, 0, 49, 48
2, 27789, Note_on_c, 0, 77, 66
2, 27857, Note_on_c, 0, 51, 0
2, 27867, Control_c, 0, 64, 0
2, 27884, Note_on_c, 0, 78, 75
2, 27886, Note_on_c, 0, 77, 0
2, 27998, Note_on_c, 0, 80, 70
2, 28024, Note_on_c, 0, 78, 0
2, 28050, Control_c, 0, 64, 19
2, 28065, Control_c, 0, 64, 43
2, 28081, Control_c, 0, 64, 53
2, 28096, Control_c, 0, 64, 60
2, 28111, Control_c, 0, 64, 63
2, 28127, Control_c, 0, 64, 67
2, 28141, Control_c, 0, 64, 73
2, 28156, Control_c, 0, 64, 84
2, 28172, Control_c, 0, 64, 105
2, 28187, Control_c, 0, 64, 127
2, 28231, Note_on_c, 0, 73, 72
2, 28260, Note_on_c, 0, 80, 0
2, 28307, Note_on_c, 0, 61, 0
2, 28525, Note_on_c, 0, 47, 42
2, 28527, Note_on_c, 0, 74, 63
2, 28590, Note_on_c, 0, 73, 0
2, 28598, Note_on_c, 0, 49, 0
2, 28636, Control_c, 0, 64, 112
2, 28652, Control_c, 0, 64, 94
2, 28667, Control_c, 0, 64, 84
2, 28683, Control_c, 0, 64, 76
2, 28698, Control_c, 0, 64, 70
2, 28712, Control_c, 0, 64, 65
2, 28728, Control_c, 0, 64, 58
2, 28743, Control_c, 0, 64, 44
2, 28758, Control_c, 0, 64, 18
2, 28774, Control_c, 0, 64, 0
2, 28787, Note_on_c, 0, 71, 53
2, 28806, Note_on_c, 0, 50, 49
2, 29004, Note_on_c, 0, 53, 54
2, 29004, Note_on_c, 0, 68, 61
2, 29052, Note_on_c, 0, 71, 0
2, 29243, Note_on_c, 0, 56, 61
2, 29256, Note_on_c, 0, 65, 60
2, 29279, Note_on_c, 0, 68, 0
2, 29402, Note_on_c, 0, 53, 0
2, 29479, Note_on_c, 0, 59, 62
2, 29484, Note_on_c, 0, 56, 0
2, 29484, Note_on_c, 0, 65, 0
2, 29487, Note_on_c, 0, 68, 65
2, 29550, Note_on_c, 0, 50, 0
2, 29681, Note_on_c, 0, 59, 0
2, 29686, Note_on_c, 0, 66, 66
2, 29691, Note_on_c, 0, 68, 0
2, 29695, Note_on_c, 0, 57, 58
2, 29914, Note_on_c, 0, 68, 70
2, 29924, Note_on_c, 0, 57, 0
2, 29924, Note_on_c, 0, 59, 63
2, 29930, Note_on_c, 0, 47, 0
2, 29941, Note_on_c, 0, 66, 0
2, 30005, Control_c, 0, 64, 26
2, 30021, Control_c, 0, 64, 32
2, 30036, Control_c, 0, 64, 35
2, 30052, Control_c, 0, 64, 37
2, 30066, Control_c, 0, 64, 38
2, 30082, Control_c, 0, 64, 39
2, 30097, Control_c, 0, 64, 40
2, 30112, Control_c, 0, 64, 41
2, 30126, Note_on_c, 0, 59, 0
2, 30128, Control_c, 0, 64, 42
2, 30132, Note_on_c, 0, 56, 64
2, 30134, Note_on_c, 0, 71, 72
2, 30142, Control_c, 0, 64, 43
2, 30176, Note_on_c, 0, 68, 0
2, 30325, Note_on_c, 0, 56, 0
2, 30337, Note_on_c, 0, 54, 58
2, 30340, Note_on_c, 0, 69, 66
2, 30348, Note_on_c, 0, 71, 0
2, 30492, Note_on_c, 0, 74, 0
2, 30559, Note_on_c, 0, 56, 56
2, 30580, Note_on_c, 0, 71, 69
2, 30596, Note_on_c, 0, 54, 0
2, 30658, Note_on_c, 0, 56, 0
2, 30660, Note_on_c, 0, 69, 0
2, 30671, Note_on_c, 0, 57, 53
2, 30771, Control_c, 0, 64, 44
2, 30777, Note_on_c, 0, 57, 0
2, 30786, Control_c, 0, 64, 44
2, 30802, Control_c, 0, 64, 45
2, 30807, Note_on_c, 0, 59, 55
2, 30809, Note_on_c, 0, 74, 68
2, 30816, Control_c, 0, 64, 46
2, 30832, Control_c, 0, 64, 47
2, 30848, Control_c, 0, 64, 47
2, 30863, Control_c, 0, 64, 48
2, 30878, Control_c, 0, 64, 49
2, 30894, Control_c, 0, 64, 51
2, 30908, Control_c, 0, 64, 53
2, 30924, Control_c, 0, 64, 55
2, 30939, Control_c, 0, 64, 56
2, 30954, Control_c, 0, 64, 58
2, 30970, Control_c, 0, 64, 60
2, 30984, Control_c, 0, 64, 62
2, 30999, Control_c, 0, 64, 64
2, 31015, Control_c, 0, 64, 67
2, 31030, Control_c, 0, 64, 71
2, 31041, Note_on_c, 0, 73, 77
2, 31043, Note_on_c, 0, 53, 54
2, 31046, Control_c, 0, 64, 76
2, 31052, Note_on_c, 0, 59, 0
2, 31061, Control_c, 0, 64, 81
2, 31076, Control_c, 0, 64, 87
2, 31092, Control_c, 0, 64, 93
2, 31107, Control_c, 0, 64, 99
2, 31113, Note_on_c, 0, 74, 0
2, 31122, Control_c, 0, 64, 104
2, 31137, Control_c, 0, 64, 108
2, 31152, Control_c, 0, 64, 108
2, 31168, Control_c, 0, 64, 109
2, 31193, Note_on_c, 0, 73, 0
2, 31367, Control_c, 0, 64, 108
2, 31370, Note_on_c, 0, 54, 52
2, 31375, Note_on_c, 0, 73, 74
2, 31382, Control_c, 0, 64, 105
2, 31405, Control_c, 0, 64, 99
2, 31420, Control_c, 0, 64, 92
2, 31421, Note_on_c, 0, 53, 0
2, 31436, Control_c, 0, 64, 85
2, 31450, Control_c, 0, 64, 79
2, 31465, Control_c, 0, 64, 72
2, 31481, Control_c, 0, 64, 66
2, 31496, Control_c, 0, 64, 61
2, 31511, Control_c, 0, 64, 51
2, 31526, Control_c, 0, 64, 34
2, 31541, Control_c, 0, 64, 0
2, 31619, Note_on_c, 0, 71, 0
2, 31642, Note_on_c, 0, 69, 56
2, 31854, Note_on_c, 0, 68, 57
2, 31856, Note_on_c, 0, 69, 0
2, 32085, Note_on_c, 0, 45, 52
2, 32098, Note_on_c, 0, 66, 62
2, 32148, Note_on_c, 0, 68, 0
2, 32185, Note_on_c, 0, 54, 0
2, 32311, Note_on_c, 0, 71, 68
2, 32534, Note_on_c, 0, 69, 67
2, 32638, Note_on_c, 0, 73, 0
2, 32651, Note_on_c, 0, 71, 0
2, 32775, Note_on_c, 0, 68, 61
2, 32779, Note_on_c, 0, 47, 53
2, 32810, Note_on_c, 0, 69, 0
2, 32841, Note_on_c, 0, 45, 0
2, 32991, Note_on_c, 0, 69, 59
2, 33027, Note_on_c, 0, 68, 0
2, 33218, Note_on_c, 0, 71, 67
2, 33222, Note_on_c, 0, 69, 0
2, 33461, Note_on_c, 0, 65, 50
2, 33468, Note_on_c, 0, 49, 43
2, 33485, Note_on_c, 0, 66, 0
2, 33517, Note_on_c, 0, 47, 0
2, 33684, Note_on_c, 0, 69, 54
2, 33901, Note_on_c, 0, 69, 0
2, 33908, Note_on_c, 0, 68, 55
2, 34185, Note_on_c, 0, 66, 43
2, 34198, Note_on_c, 0, 42, 41
2, 34201, Note_on_c, 0, 69, 51
2, 34224, Note_on_c, 0, 68, 0
2, 34256, Note_on_c, 0, 49, 0
2, 34323, Note_on_c, 0, 65, 0
2, 34452, Note_on_c, 0, 45, 52
2, 34509, Note_on_c, 0, 71, 0
2, 34687, Note_on_c, 0, 49, 62
2, 34717, Note_on_c, 0, 45, 0
2, 34723, Note_on_c, 0, 42, 0
2, 34904, Note_on_c, 0, 49, 0
2, 34909, Note_on_c, 0, 54, 66
2, 35120, Note_on_c, 0, 54, 0
2, 35127, Note_on_c, 0, 71, 69
2, 35128, Note_on_c, 0, 52, 51
2, 35200, Note_on_c, 0, 69, 0
2, 35326, Note_on_c, 0, 52, 0
2, 35344, Note_on_c, 0, 64, 63
2, 35346, Note_on_c, 0, 68, 64
2, 35350, Note_on_c, 0, 54, 56
2, 35396, Note_on_c, 0, 66, 0
2, 35576, Note_on_c, 0, 47, 50
2, 35582, Note_on_c, 0, 63, 54
2, 35583, Note_on_c, 0, 69, 63
2, 35604, Note_on_c, 0, 54, 0
2, 35620, Note_on_c, 0, 68, 0
2, 35664, Note_on_c, 0, 64, 0
2, 35785, Note_on_c, 0, 71, 0
2, 35803, Note_on_c, 0, 51, 58
2, 35861, Note_on_c, 0, 47, 0
2, 36032, Note_on_c, 0, 54, 69
2, 36064, Note_on_c, 0, 51, 0
2, 36258, Note_on_c, 0, 54, 0
2, 36260, Note_on_c, 0, 59, 67
2, 36447, Note_on_c, 0, 69, 0
2, 36467, Note_on_c, 0, 59, 0
2, 36472, Note_on_c, 0, 71, 63
2, 36473, Note_on_c, 0, 57, 56
2, 36507, Note_on_c, 0, 63, 0
2, 36577, Note_on_c, 0, 69, 68
2, 36627, Note_on_c, 0, 71, 0
2, 36640, Note_on_c, 0, 57, 0
2, 36668, Note_on_c, 0, 59, 50
2, 36676, Note_on_c, 0, 68, 62
2, 36690, Note_on_c, 0, 69, 0
2, 36772, Note_on_c, 0, 68, 0
2, 36775, Note_on_c, 0, 66, 64
2, 36892, Note_on_c, 0, 66, 0
2, 36895, Note_on_c, 0, 52, 44
2, 36903, Note_on_c, 0, 68, 59
2, 37022, Note_on_c, 0, 66, 61
2, 37046, Note_on_c, 0, 68, 0
2, 37060, Note_on_c, 0, 59, 0
2, 37103, Note_on_c, 0, 66, 0
2, 37130, Note_on_c, 0, 56, 54
2, 37132, Note_on_c, 0, 64, 63
2, 37220, Note_on_c, 0, 64, 0
2, 37227, Note_on_c, 0, 66, 70
2, 37245, Note_on_c, 0, 52, 0
2, 37333, Note_on_c, 0, 68, 70
2, 37336, Note_on_c, 0, 59, 61
2, 37352, Note_on_c, 0, 66, 0
2, 37380, Note_on_c, 0, 56, 0
2, 37431, Note_on_c, 0, 68, 0
2, 37444, Note_on_c, 0, 69, 68
2, 37550, Note_on_c, 0, 69, 0
2, 37559, Note_on_c, 0, 71, 74
2, 37563, Note_on_c, 0, 59, 0
2, 37569, Note_on_c, 0, 64, 65
2, 37647, Note_on_c, 0, 71, 0
2, 37667, Note_on_c, 0, 69, 72
2, 37765, Note_on_c, 0, 69, 0
2, 37770, Note_on_c, 0, 68, 72
2, 37776, Note_on_c, 0, 62, 57
2, 37778, Note_on_c, 0, 64, 0
2, 37856, Note_on_c, 0, 68, 0
2, 37874, Note_on_c, 0, 69, 72
2, 37956, Note_on_c, 0, 62, 0
2, 37972, Note_on_c, 0, 61, 58
2, 37983, Note_on_c, 0, 69, 0
2, 37983, Note_on_c, 0, 71, 76
2, 38081, Note_on_c, 0, 73, 77
2, 38113, Note_on_c, 0, 71, 0
2, 38191, Note_on_c, 0, 61, 0
2, 38212, Note_on_c, 0, 59, 46
2, 38219, Note_on_c, 0, 74, 72
2, 38226, Note_on_c, 0, 73, 0
2, 38333, Note_on_c, 0, 73, 76
2, 38361, Note_on_c, 0, 74, 0
2, 38434, Note_on_c, 0, 71, 74
2, 38479, Note_on_c, 0, 73, 0
2, 38518, Note_on_c, 0, 71, 0
2, 38536, Note_on_c, 0, 69, 64
2, 38628, Note_on_c, 0, 69, 0
2, 38635, Note_on_c, 0, 59, 0
2, 38646, Note_on_c, 0, 68, 60
2, 38656, Note_on_c, 0, 57, 46
2, 38752, Note_on_c, 0, 57, 0
2, 38757, Note_on_c, 0, 66, 57
2, 38800, Note_on_c, 0, 68, 0
2, 38858, Note_on_c, 0, 66, 0
2, 38882, Note_on_c, 0, 64, 56
2, 38887, Note_on_c, 0, 56, 44
2, 38992, Note_on_c, 0, 56, 0
2, 39019, Note_on_c, 0, 62, 53
2, 39115, Note_on_c, 0, 62, 0
2, 39139, Note_on_c, 0, 61, 55
2, 39223, Note_on_c, 0, 61, 0
2, 39264, Note_on_c, 0, 59, 51
2, 39342, Note_on_c, 0, 64, 0
2, 39363, Note_on_c, 0, 59, 0
2, 39380, Note_on_c, 0, 57, 54
2, 39490, Note_on_c, 0, 57, 0
2, 39506, Note_on_c, 0, 56, 50
2, 39732, Note_on_c, 0, 57, 44
2, 39732, Note_on_c, 0, 69, 52
2, 39774, Note_on_c, 0, 56, 0
2, 39994, Note_on_c, 0, 73, 63
2, 40045, Note_on_c, 0, 69, 0
2, 40213, Note_on_c, 0, 76, 70
2, 40331, Note_on_c, 0, 73, 0
2, 40438, Note_on_c, 0, 61, 48
2, 40446, Note_on_c, 0, 81, 65
2, 40459, Note_on_c, 0, 76, 0
2, 40683, Note_on_c, 0, 80, 67
2, 40704, Note_on_c, 0, 81, 0
2, 40901, Note_on_c, 0, 81, 71
2, 40920, Note_on_c, 0, 80, 0
2, 41107, Note_on_c, 0, 62, 48
2, 41113, Note_on_c, 0, 61, 0
2, 41116, Note_on_c, 0, 80, 57
2, 41129, Note_on_c, 0, 81, 0
2, 41150, Note_on_c, 0, 80, 0
2, 41177, Note_on_c, 0, 78, 45
2, 41199, Note_on_c, 0, 78, 0
2, 41223, Note_on_c, 0, 80, 70
2, 41271, Note_on_c, 0, 78, 71
2, 41282, Note_on_c, 0, 80, 0
2, 41334, Note_on_c, 0, 76, 63
2, 41349, Note_on_c, 0, 78, 0
2, 41545, Note_on_c, 0, 78, 71
2, 41593, Note_on_c, 0, 76, 0
2, 41778, Note_on_c, 0, 81, 65
2, 41808, Note_on_c, 0, 78, 0
2, 41963, Note_on_c, 0, 62, 0
2, 41967, Note_on_c, 0, 61, 43
2, 42180, Note_on_c, 0, 61, 0
2, 42187, Note_on_c, 0, 59, 42
2, 42376, Note_on_c, 0, 59, 0
2, 42393, Note_on_c, 0, 61, 52
2, 42407, Note_on_c, 0, 81, 0
2, 42410, Note_on_c, 0, 78, 52
2, 42442, Note_on_c, 0, 78, 0
2, 42465, Note_on_c, 0, 76, 44
2, 42487, Note_on_c, 0, 76, 0
2, 42513, Note_on_c, 0, 78, 68
2, 42558, Note_on_c, 0, 78, 0
2, 42562, Note_on_c, 0, 76, 68
2, 42603, Note_on_c, 0, 76, 0
2, 42615, Note_on_c, 0, 74, 61
2, 42824, Note_on_c, 0, 76, 61
2, 42847, Note_on_c, 0, 74, 0
2, 43076, Note_on_c, 0, 81, 61
2, 43101, Note_on_c, 0, 76, 0
2, 43278, Note_on_c, 0, 62, 47
2, 43283, Note_on_c, 0, 61, 0
2, 43496, Note_on_c, 0, 62, 0
2, 43504, Note_on_c, 0, 61, 51
2, 43766, Note_on_c, 0, 74, 56
2, 43770, Note_on_c, 0, 59, 39
2, 43813, Note_on_c, 0, 61, 0
2, 43972, Note_on_c, 0, 76, 62
2, 44023, Note_on_c, 0, 74, 0
2, 44192, Control_c, 0, 64, 10
2, 44196, Note_on_c, 0, 78, 67
2, 44208, Control_c, 0, 64, 13
2, 44223, Control_c, 0, 64, 15
2, 44238, Control_c, 0, 64, 16
2, 44254, Control_c, 0, 64, 18
2, 44265, Note_on_c, 0, 76, 0
2, 44268, Control_c, 0, 64, 20
2, 44284, Control_c, 0, 64, 21
2, 44299, Control_c, 0, 64, 23
2, 44330, Control_c, 0, 64, 24
2, 44376, Control_c, 0, 64, 24
2, 44391, Control_c, 0, 64, 25
2, 44405, Note_on_c, 0, 56, 49
2, 44411, Note_on_c, 0, 76, 60
2, 44467, Note_on_c, 0, 78, 0
2, 44550, Control_c, 0, 64, 28
2, 44566, Control_c, 0, 64, 35
2, 44580, Control_c, 0, 64, 44
2, 44580, Note_on_c, 0, 57, 0
2, 44595, Control_c, 0, 64, 50
2, 44611, Control_c, 0, 64, 54
2, 44626, Control_c, 0, 64, 58
2, 44639, Note_on_c, 0, 78, 68
2, 44642, Control_c, 0, 64, 61
2, 44657, Control_c, 0, 64, 64
2, 44672, Control_c, 0, 64, 67
2, 44687, Control_c, 0, 64, 75
2, 44702, Control_c, 0, 64, 85
2, 44704, Note_on_c, 0, 76, 0
2, 44717, Control_c, 0, 64, 100
2, 44733, Control_c, 0, 64, 127
2, 44745, Note_on_c, 0, 81, 0
2, 44804, Note_on_c, 0, 56, 0
2, 44847, Note_on_c, 0, 74, 66
2, 44966, Note_on_c, 0, 78, 0
2, 45036, Note_on_c, 0, 59, 0
2, 45086, Note_on_c, 0, 73, 65
2, 45090, Note_on_c, 0, 45, 39
2, 45118, Note_on_c, 0, 74, 0
2, 45331, Note_on_c, 0, 49, 61
2, 45331, Note_on_c, 0, 69, 65
2, 45347, Control_c, 0, 64, 107
2, 45362, Control_c, 0, 64, 90
2, 45376, Note_on_c, 0, 73, 0
2, 45378, Control_c, 0, 64, 80
2, 45393, Control_c, 0, 64, 72
2, 45407, Control_c, 0, 64, 66
2, 45423, Control_c, 0, 64, 60
2, 45438, Control_c, 0, 64, 49
2, 45453, Control_c, 0, 64, 31
2, 45462, Note_on_c, 0, 45, 0
2, 45468, Control_c, 0, 64, 0
2, 45538, Note_on_c, 0, 71, 76
2, 45551, Note_on_c, 0, 52, 61
2, 45581, Note_on_c, 0, 69, 0
2, 45632, Note_on_c, 0, 49, 0
2, 45755, Note_on_c, 0, 52, 0
2, 45770, Note_on_c, 0, 73, 75
2, 45773, Note_on_c, 0, 57, 62
2, 45865, Note_on_c, 0, 71, 0
2, 45972, Note_on_c, 0, 56, 63
2, 45982, Note_on_c, 0, 57, 0
2, 46204, Note_on_c, 0, 57, 61
2, 46214, Note_on_c, 0, 56, 0
2, 46446, Note_on_c, 0, 51, 59
2, 46486, Note_on_c, 0, 57, 0
2, 46664, Note_on_c, 0, 71, 66
2, 46775, Note_on_c, 0, 73, 0
2, 46886, Note_on_c, 0, 54, 68
2, 46899, Control_c, 0, 64, 8
2, 46905, Note_on_c, 0, 69, 65
2, 46905, Note_on_c, 0, 71, 0
2, 46914, Control_c, 0, 64, 12
2, 46930, Control_c, 0, 64, 13
2, 46944, Control_c, 0, 64, 15
2, 46959, Control_c, 0, 64, 16
2, 46975, Note_on_c, 0, 54, 0
2, 46990, Control_c, 0, 64, 17
2, 47066, Control_c, 0, 64, 16
2, 47081, Control_c, 0, 64, 0
2, 47136, Note_on_c, 0, 59, 61
2, 47140, Note_on_c, 0, 68, 61
2, 47174, Note_on_c, 0, 69, 0
2, 47202, Control_c, 0, 64, 10
2, 47219, Control_c, 0, 64, 48
2, 47234, Control_c, 0, 64, 58
2, 47249, Control_c, 0, 64, 63
2, 47264, Control_c, 0, 64, 67
2, 47279, Control_c, 0, 64, 78
2, 47295, Control_c, 0, 64, 112
2, 47310, Control_c, 0, 64, 127
2, 47351, Note_on_c, 0, 69, 59
2, 47353, Note_on_c, 0, 68, 0
2, 47482, Note_on_c, 0, 59, 0
2, 47491, Note_on_c, 0, 51, 0
2, 47578, Note_on_c, 0, 66, 63
2, 47663, Note_on_c, 0, 69, 0
2, 47815, Note_on_c, 0, 40, 48
2, 47831, Note_on_c, 0, 68, 64
2, 47971, Control_c, 0, 64, 99
2, 47985, Control_c, 0, 64, 86
2, 48000, Control_c, 0, 64, 78
2, 48016, Control_c, 0, 64, 72
2, 48032, Control_c, 0, 64, 67
2, 48047, Control_c, 0, 64, 63
2, 48064, Control_c, 0, 64, 52
2, 48070, Note_on_c, 0, 44, 55
2, 48078, Note_on_c, 0, 64, 64
2, 48079, Control_c, 0, 64, 32
2, 48094, Control_c, 0, 64, 0
2, 48114, Note_on_c, 0, 66, 0
2, 48253, Note_on_c, 0, 40, 0
2, 48283, Note_on_c, 0, 47, 61
2, 48300, Note_on_c, 0, 66, 73
2, 48341, Note_on_c, 0, 68, 0
2, 48356, Note_on_c, 0, 44, 0
2, 48365, Note_on_c, 0, 64, 0
2, 48506, Note_on_c, 0, 47, 0
2, 48517, Note_on_c, 0, 52, 62
2, 48537, Note_on_c, 0, 68, 72
2, 48711, Note_on_c, 0, 66, 0
2, 48741, Note_on_c, 0, 51, 64
2, 48744, Note_on_c, 0, 52, 0
2, 48964, Note_on_c, 0, 52, 61
2, 48974, Note_on_c, 0, 51, 0
2, 49220, Note_on_c, 0, 45, 60
2, 49292, Note_on_c, 0, 52, 0
2, 49455, Note_on_c, 0, 69, 64
2, 49677, Note_on_c, 0, 71, 72
2, 49687, Note_on_c, 0, 52, 56
2, 49713, Note_on_c, 0, 69, 0
2, 49723, Note_on_c, 0, 68, 0
2, 49763, Note_on_c, 0, 52, 0
2, 49934, Note_on_c, 0, 57, 55
2, 49940, Note_on_c, 0, 73, 76
2, 50009, Note_on_c, 0, 71, 0
2, 50168, Note_on_c, 0, 66, 72
2, 50206, Note_on_c, 0, 73, 0
2, 50385, Note_on_c, 0, 69, 65
2, 50431, Note_on_c, 0, 66, 0
2, 50604, Note_on_c, 0, 69, 0
2, 50613, Note_on_c, 0, 47, 48
2, 50624, Note_on_c, 0, 59, 54
2, 50659, Note_on_c, 0, 45, 0
2, 50855, Note_on_c, 0, 63, 58
2, 50929, Note_on_c, 0, 57, 0
2, 51050, Note_on_c, 0, 59, 0
2, 51074, Note_on_c, 0, 66, 70
2, 51303, Note_on_c, 0, 56, 60
2, 51319, Note_on_c, 0, 71, 69
2, 51446, Note_on_c, 0, 63, 0
2, 51478, Note_on_c, 0, 66, 0
2, 51533, Note_on_c, 0, 69, 67
2, 51578, Note_on_c, 0, 71, 0
2, 51752, Note_on_c, 0, 71, 69
2, 51792, Note_on_c, 0, 69, 0
2, 51983, Note_on_c, 0, 61, 64
2, 52184, Note_on_c, 0, 71, 0
2, 52206, Note_on_c, 0, 64, 71
2, 52253, Note_on_c, 0, 61, 0
2, 52424, Note_on_c, 0, 68, 65
2, 52483, Note_on_c, 0, 64, 0
2, 52663, Note_on_c, 0, 69, 58
2, 52701, Note_on_c, 0, 68, 0
2, 52854, Note_on_c, 0, 56, 0
2, 52865, Note_on_c, 0, 54, 50
2, 53090, Note_on_c, 0, 54, 0
2, 53102, Note_on_c, 0, 52, 50
2, 53336, Note_on_c, 0, 51, 52
2, 53336, Note_on_c, 0, 52, 0
2, 53350, Note_on_c, 0, 59, 54
2, 53575, Note_on_c, 0, 63, 63
2, 53653, Note_on_c, 0, 59, 0
2, 53810, Note_on_c, 0, 66, 70
2, 53859, Note_on_c, 0, 69, 0
2, 54008, Note_on_c, 0, 63, 0
2, 54042, Note_on_c, 0, 69, 71
2, 54055, Note_on_c, 0, 66, 0
2, 54254, Note_on_c, 0, 68, 67
2, 54294, Note_on_c, 0, 69, 0
2, 54443, Control_c, 0, 64, 10
2, 54458, Control_c, 0, 64, 37
2, 54472, Control_c, 0, 64, 48
2, 54479, Note_on_c, 0, 42, 42
2, 54484, Note_on_c, 0, 69, 65
2, 54488, Control_c, 0, 64, 54
2, 54503, Control_c, 0, 64, 59
2, 54510, Note_on_c, 0, 68, 0
2, 54518, Control_c, 0, 64, 62
2, 54534, Control_c, 0, 64, 65
2, 54548, Control_c, 0, 64, 69
2, 54564, Control_c, 0, 64, 78
2, 54579, Control_c, 0, 64, 94
2, 54595, Control_c, 0, 64, 127
2, 54682, Note_on_c, 0, 42, 0
2, 54755, Note_on_c, 0, 43, 43
2, 54768, Note_on_c, 0, 59, 58
2, 54773, Note_on_c, 0, 47, 0
2, 54838, Control_c, 0, 64, 103
2, 54853, Control_c, 0, 64, 88
2, 54868, Control_c, 0, 64, 77
2, 54884, Control_c, 0, 64, 69
2, 54899, Control_c, 0, 64, 64
2, 54914, Control_c, 0, 64, 54
2, 54930, Control_c, 0, 64, 33
2, 54945, Control_c, 0, 64, 0
2, 55007, Note_on_c, 0, 63, 60
2, 55126, Note_on_c, 0, 59, 0
2, 55250, Note_on_c, 0, 66, 58
2, 55536, Note_on_c, 0, 52, 39
2, 55545, Note_on_c, 0, 67, 54
2, 55563, Note_on_c, 0, 66, 0
2, 55588, Note_on_c, 0, 63, 0
2, 55596, Note_on_c, 0, 51, 0
2, 55755, Note_on_c, 0, 69, 0
2, 55779, Note_on_c, 0, 45, 33
2, 55920, Note_on_c, 0, 43, 0
2, 56013, Note_on_c, 0, 47, 56
2, 56014, Note_on_c, 0, 45, 0
2, 56270, Note_on_c, 0, 47, 0
2, 56271, Note_on_c, 0, 48, 58
2, 56479, Note_on_c, 0, 54, 53
2, 56498, Note_on_c, 0, 69, 62
2, 56501, Note_on_c, 0, 52, 0
2, 56513, Note_on_c, 0, 67, 0
2, 56722, Note_on_c, 0, 55, 54
2, 56724, Note_on_c, 0, 67, 68
2, 56749, Note_on_c, 0, 54, 0
2, 56788, Note_on_c, 0, 69, 0
2, 56963, Note_on_c, 0, 55, 0
2, 56970, Note_on_c, 0, 57, 50
2, 56973, Note_on_c, 0, 66, 65
2, 57003, Note_on_c, 0, 67, 0
2, 57196, Note_on_c, 0, 67, 66
2, 57244, Note_on_c, 0, 66, 0
2, 57409, Note_on_c, 0, 64, 61
2, 57412, Note_on_c, 0, 67, 0
2, 57659, Note_on_c, 0, 47, 37
2, 57669, Note_on_c, 0, 63, 54
2, 57703, Note_on_c, 0, 64, 0
2, 57754, Note_on_c, 0, 48, 0
2, 57919, Note_on_c, 0, 61, 52
2, 57965, Note_on_c, 0, 63, 0
2, 58170, Control_c, 0, 64, 8
2, 58182, Note_on_c, 0, 59, 49
2, 58185, Control_c, 0, 64, 41
2, 58199, Control_c, 0, 64, 51
2, 58215, Control_c, 0, 64, 57
2, 58217, Note_on_c, 0, 61, 0
2, 58230, Control_c, 0, 64, 61
2, 58246, Control_c, 0, 64, 64
2, 58261, Control_c, 0, 64, 66
2, 58284, Control_c, 0, 64, 70
2, 58299, Control_c, 0, 64, 76
2, 58314, Control_c, 0, 64, 86
2, 58330, Control_c, 0, 64, 107
2, 58344, Control_c, 0, 64, 127
2, 58496, Note_on_c, 0, 72, 63
2, 58584, Note_on_c, 0, 57, 0
2, 58679, Note_on_c, 0, 59, 0
2, 58748, Note_on_c, 0, 49, 45
2, 58754, Note_on_c, 0, 71, 68
2, 58757, Note_on_c, 0, 56, 38
2, 58816, Control_c, 0, 64, 111
2, 58830, Control_c, 0, 64, 101
2, 58846, Control_c, 0, 64, 92
2, 58861, Control_c, 0, 64, 86
2, 58876, Control_c, 0, 64, 80
2, 58892, Control_c, 0, 64, 75
2, 58907, Control_c, 0, 64, 69
2, 58922, Control_c, 0, 64, 65
2, 58937, Control_c, 0, 64, 61
2, 58951, Note_on_c, 0, 47, 0
2, 58952, Control_c, 0, 64, 51
2, 58968, Control_c, 0, 64, 40
2, 58983, Control_c, 0, 64, 30
2, 58986, Note_on_c, 0, 49, 0
2, 58997, Control_c, 0, 64, 26
2, 58997, Note_on_c, 0, 51, 42
2, 58997, Note_on_c, 0, 54, 50
2, 58997, Note_on_c, 0, 70, 71
2, 59013, Control_c, 0, 64, 24
2, 59021, Note_on_c, 0, 56, 0
2, 59028, Control_c, 0, 64, 23
2, 59051, Control_c, 0, 64, 21
2, 59051, Note_on_c, 0, 72, 0
2, 59066, Control_c, 0, 64, 18
2, 59080, Note_on_c, 0, 71, 0
2, 59082, Control_c, 0, 64, 17
2, 59097, Control_c, 0, 64, 15
2, 59112, Control_c, 0, 64, 13
2, 59127, Control_c, 0, 64, 12
2, 59173, Control_c, 0, 64, 10
2, 59250, Note_on_c, 0, 52, 50
2, 59253, Note_on_c, 0, 69, 65
2, 59264, Note_on_c, 0, 51, 0
2, 59265, Note_on_c, 0, 54, 0
2, 59278, Control_c, 0, 64, 8
2, 59316, Note_on_c, 0, 70, 0
2, 59479, Note_on_c, 0, 68, 68
2, 59517, Note_on_c, 0, 69, 0
2, 59674, Control_c, 0, 64, 26
2, 59690, Control_c, 0, 64, 43
2, 59705, Control_c, 0, 64, 52
2, 59711, Note_on_c, 0, 46, 43
2, 59716, Note_on_c, 0, 67, 65
2, 59720, Control_c, 0, 64, 58
2, 59727, Note_on_c, 0, 68, 0
2, 59736, Control_c, 0, 64, 61
2, 59751, Control_c, 0, 64, 64
2, 59766, Control_c, 0, 64, 67
2, 59781, Control_c, 0, 64, 72
2, 59796, Control_c, 0, 64, 83
2, 59819, Control_c, 0, 64, 98
2, 59834, Control_c, 0, 64, 127
2, 59872, Note_on_c, 0, 46, 0
2, 59954, Note_on_c, 0, 47, 37
2, 59965, Note_on_c, 0, 66, 55
2, 59998, Note_on_c, 0, 67, 0
2, 60074, Note_on_c, 0, 68, 58
2, 60077, Control_c, 0, 64, 104
2, 60093, Control_c, 0, 64, 87
2, 60107, Control_c, 0, 64, 75
2, 60107, Note_on_c, 0, 52, 0
2, 60123, Control_c, 0, 64, 64
2, 60138, Control_c, 0, 64, 50
2, 60148, Note_on_c, 0, 66, 0
2, 60153, Control_c, 0, 64, 0
2, 60194, Note_on_c, 0, 69, 62
2, 60199, Note_on_c, 0, 51, 45
2, 60269, Note_on_c, 0, 68, 0
2, 60412, Control_c, 0, 64, 19
2, 60427, Control_c, 0, 64, 50
2, 60443, Control_c, 0, 64, 56
2, 60450, Note_on_c, 0, 63, 59
2, 60458, Control_c, 0, 64, 60
2, 60469, Note_on_c, 0, 57, 41
2, 60472, Control_c, 0, 64, 63
2, 60481, Note_on_c, 0, 47, 0
2, 60488, Control_c, 0, 64, 65
2, 60503, Control_c, 0, 64, 69
2, 60518, Control_c, 0, 64, 76
2, 60525, Note_on_c, 0, 51, 0
2, 60534, Control_c, 0, 64, 85
2, 60549, Control_c, 0, 64, 97
2, 60565, Control_c, 0, 64, 111
2, 60587, Control_c, 0, 64, 127
2, 60759, Note_on_c, 0, 49, 47
2, 60769, Note_on_c, 0, 56, 40
2, 60782, Note_on_c, 0, 64, 63
2, 60815, Control_c, 0, 64, 113
2, 60827, Note_on_c, 0, 63, 0
2, 60830, Control_c, 0, 64, 94
2, 60830, Note_on_c, 0, 69, 0
2, 60844, Note_on_c, 0, 57, 0
2, 60846, Control_c, 0, 64, 82
2, 60861, Control_c, 0, 64, 71
2, 60876, Control_c, 0, 64, 64
2, 60891, Control_c, 0, 64, 55
2, 60906, Control_c, 0, 64, 35
2, 60921, Control_c, 0, 64, 0
2, 61057, Note_on_c, 0, 52, 50
2, 61073, Note_on_c, 0, 56, 0
2, 61297, Note_on_c, 0, 52, 0
2, 61302, Note_on_c, 0, 56, 54
2, 61554, Note_on_c, 0, 57, 51
2, 61557, Note_on_c, 0, 56, 0
2, 61780, Note_on_c, 0, 57, 0
2, 61787, Note_on_c, 0, 56, 52
2, 61964, Control_c, 0, 64, 32
2, 61979, Control_c, 0, 64, 48
2, 61994, Control_c, 0, 64, 56
2, 62009, Control_c, 0, 64, 61
2, 62024, Control_c, 0, 64, 65
2, 62037, Note_on_c, 0, 57, 52
2, 62039, Control_c, 0, 64, 71
2, 62051, Note_on_c, 0, 56, 0
2, 62055, Control_c, 0, 64, 83
2, 62070, Control_c, 0, 64, 114
2, 62074, Note_on_c, 0, 49, 0
2, 62085, Control_c, 0, 64, 127
2, 62300, Note_on_c, 0, 44, 49
2, 62315, Note_on_c, 0, 52, 45
2, 62398, Note_on_c, 0, 57, 0
2, 62426, Control_c, 0, 64, 96
2, 62441, Control_c, 0, 64, 82
2, 62457, Control_c, 0, 64, 74
2, 62472, Control_c, 0, 64, 67
2, 62488, Control_c, 0, 64, 62
2, 62502, Control_c, 0, 64, 52
2, 62517, Control_c, 0, 64, 35
2, 62533, Control_c, 0, 64, 10
2, 62548, Control_c, 0, 64, 0
2, 62563, Note_on_c, 0, 56, 59
2, 62808, Note_on_c, 0, 59, 63
2, 63056, Note_on_c, 0, 62, 64
2, 63090, Note_on_c, 0, 59, 0
2, 63284, Note_on_c, 0, 62, 0
2, 63285, Note_on_c, 0, 61, 63
2, 63316, Control_c, 0, 64, 12
2, 63332, Control_c, 0, 64, 16
2, 63423, Control_c, 0, 64, 8
2, 63438, Control_c, 0, 64, 0
2, 63524, Note_on_c, 0, 62, 64
2, 63549, Note_on_c, 0, 61, 0
2, 63575, Control_c, 0, 64, 10
2, 63590, Control_c, 0, 64, 39
2, 63607, Control_c, 0, 64, 56
2, 63622, Control_c, 0, 64, 62
2, 63636, Control_c, 0, 64, 66
2, 63659, Control_c, 0, 64, 73
2, 63674, Control_c, 0, 64, 88
2, 63690, Control_c, 0, 64, 127
2, 63732, Note_on_c, 0, 56, 0
2, 63738, Note_on_c, 0, 44, 0
2, 63810, Note_on_c, 0, 45, 38
2, 63819, Note_on_c, 0, 61, 62
2, 63845, Note_on_c, 0, 62, 0
2, 63848, Note_on_c, 0, 52, 0
2, 63948, Control_c, 0, 64, 98
2, 63964, Control_c, 0, 64, 82
2, 63979, Control_c, 0, 64, 72
2, 63993, Control_c, 0, 64, 65
2, 64009, Control_c, 0, 64, 58
2, 64024, Control_c, 0, 64, 41
2, 64038, Control_c, 0, 64, 0
2, 64075, Note_on_c, 0, 49, 49
2, 64338, Note_on_c, 0, 52, 52
2, 64341, Note_on_c, 0, 49, 0
2, 64689, Note_on_c, 0, 57, 46
2, 64703, Note_on_c, 0, 52, 0
2, 65072, Note_on_c, 0, 56, 50
2, 65112, Note_on_c, 0, 57, 0
2, 65681, Note_on_c, 0, 63, 56
2, 65690, Note_on_c, 0, 57, 34
2, 65692, Note_on_c, 0, 60, 48
2, 65734, Note_on_c, 0, 56, 0
2, 65764, Note_on_c, 0, 64, 0
2, 65770, Note_on_c, 0, 61, 0
2, 65978, Control_c, 0, 64, 13
2, 65993, Control_c, 0, 64, 51
2, 66008, Control_c, 0, 64, 60
2, 66023, Control_c, 0, 64, 65
2, 66038, Control_c, 0, 64, 75
2, 66054, Control_c, 0, 64, 106
2, 66070, Control_c, 0, 64, 127
2, 66269, Note_on_c, 0, 57, 0
2, 66285, Note_on_c, 0, 63, 0
2, 66344, Note_on_c, 0, 45, 0
2, 66382, Note_on_c, 0, 60, 0
2, 66842, Note_on_c, 0, 59, 35
2, 66844, Note_on_c, 0, 40, 35
2, 66846, Note_on_c, 0, 64, 49
2, 66864, Note_on_c, 0, 56, 38
2, 66970, Control_c, 0, 64, 117
2, 66986, Control_c, 0, 64, 86
2, 67001, Control_c, 0, 64, 74
2, 67017, Control_c, 0, 64, 65
2, 67031, Control_c, 0, 64, 54
2, 67046, Control_c, 0, 64, 0
2, 69212, Control_c, 0, 64, 37
2, 69227, Control_c, 0, 64, 46
2, 69242, Control_c, 0, 64, 52
2, 69258, Control_c, 0, 64, 56
2, 69273, Control_c, 0, 64, 59
2, 69288, Control_c, 0, 64, 62
2, 69304, Control_c, 0, 64, 63
2, 69318, Control_c, 0, 64, 65
2, 69334, Control_c, 0, 64, 67
2, 69350, Control_c, 0, 64, 69
2, 69365, Control_c, 0, 64, 72
2, 69381, Control_c, 0, 64, 73
2, 69395, Control_c, 0, 64, 74
2, 69410, Control_c, 0, 64, 75
2, 69426, Control_c, 0, 64, 76
2, 69441, Control_c, 0, 64, 77
2, 69502, Control_c, 0, 64, 78
2, 69517, Control_c, 0, 64, 78
2, 69578, Control_c, 0, 64, 79
2, 69593, Control_c, 0, 64, 80
2, 69608, Control_c, 0, 64, 81
2, 69638, Control_c, 0, 64, 82
2, 69669, Control_c, 0, 64, 83
2, 69684, Control_c, 0, 64, 84
2, 69699, Control_c, 0, 64, 86
2, 69714, Control_c, 0, 64, 87
2, 69774, Control_c, 0, 64, 87
2, 70301, Control_c, 0, 64, 87
2, 70406, Control_c, 0, 64, 86
2, 70482, Control_c, 0, 64, 86
2, 70585, Note_on_c, 0, 64, 0
2, 70596, Control_c, 0, 64, 85
2, 70600, Note_on_c, 0, 59, 0
2, 70627, Note_on_c, 0, 56, 0
2, 70642, Control_c, 0, 64, 85
2, 70672, Control_c, 0, 64, 84
2, 70687, Control_c, 0, 64, 84
2, 70699, Note_on_c, 0, 40, 0
2, 70703, Control_c, 0, 64, 83
2, 70718, Control_c, 0, 64, 83
2, 70733, Control_c, 0, 64, 82
2, 70748, Control_c, 0, 64, 81
2, 70763, Control_c, 0, 64, 80
2, 70779, Control_c, 0, 64, 79
2, 70793, Control_c, 0, 64, 78
2, 70808, Control_c, 0, 64, 78
2, 70824, Control_c, 0, 64, 77
2, 70839, Control_c, 0, 64, 75
2, 70854, Control_c, 0, 64, 72
2, 70869, Control_c, 0, 64, 70
2, 70884, Control_c, 0, 64, 67
2, 70900, Control_c, 0, 64, 64
2, 70915, Control_c, 0, 64, 62
2, 70930, Control_c, 0, 64, 60
2, 70946, Control_c, 0, 64, 59
2, 70961, Control_c, 0, 64, 58
2, 70977, Control_c, 0, 64, 57
2, 70992, Control_c, 0, 64, 56
2, 71007, Control_c, 0, 64, 56
2, 71022, Control_c, 0, 64, 55
2, 71037, Control_c, 0, 64, 54
2, 71052, Control_c, 0, 64, 53
2, 71068, Control_c, 0, 64, 52
2, 71083, Control_c, 0, 64, 50
2, 71099, Control_c, 0, 64, 49
2, 71114, Control_c, 0, 64, 48
2, 71129, Control_c, 0, 64, 47
2, 71144, Control_c, 0, 64, 46
2, 71159, Control_c, 0, 64, 44
2, 71174, Control_c, 0, 64, 44
2, 71190, Control_c, 0, 64, 43
2, 71205, Control_c, 0, 64, 42
2, 71235, Control_c, 0, 64, 42
2, 71250, Control_c, 0, 64, 41
2, 71311, Control_c, 0, 64, 41
2, 71410, Control_c, 0, 64, 40
2, 71699, Control_c, 0, 64, 40
2, 71713, Control_c, 0, 64, 39
2, 71728, Control_c, 0, 64, 39
2, 71744, Control_c, 0, 64, 38
2, 71759, Control_c, 0, 64, 37
2, 71774, Control_c, 0, 64, 37
2, 72131, Control_c, 0, 64, 36
2, 72147, Control_c, 0, 64, 35
2, 72178, Control_c, 0, 64, 35
2, 72193, Control_c, 0, 64, 34
2, 72208, Control_c, 0, 64, 34
2, 72299, Control_c, 0, 64, 33
2, 72314, Control_c, 0, 64, 32
2, 72329, Control_c, 0, 64, 31
2, 72345, Control_c, 0, 64, 30
2, 72359, Control_c, 0, 64, 30
2, 72374, Control_c, 0, 64, 29
2, 72390, Control_c, 0, 64, 29
2, 72404, Control_c, 0, 64, 28
2, 72435, Control_c, 0, 64, 28
2, 72466, Control_c, 0, 64, 27
2, 72670, Note_on_c, 0, 64, 54
2, 72704, Note_on_c, 0, 64, 0
2, 72870, Control_c, 0, 64, 30
2, 72885, Control_c, 0, 64, 45
2, 72901, Control_c, 0, 64, 59
2, 72907, Note_on_c, 0, 66, 62
2, 72915, Control_c, 0, 64, 64
2, 72930, Control_c, 0, 64, 68
2, 72939, Note_on_c, 0, 66, 0
2, 72946, Control_c, 0, 64, 79
2, 72961, Control_c, 0, 64, 108
2, 72977, Control_c, 0, 64, 127
2, 73280, Control_c, 0, 64, 114
2, 73295, Control_c, 0, 64, 82
2, 73311, Control_c, 0, 64, 68
2, 73325, Control_c, 0, 64, 50
2, 73341, Control_c, 0, 64, 0
2, 73388, Note_on_c, 0, 59, 51
2, 73446, Note_on_c, 0, 59, 0
2, 73477, Note_on_c, 0, 61, 58
2, 73550, Note_on_c, 0, 61, 0
2, 73568, Note_on_c, 0, 63, 60
2, 73614, Note_on_c, 0, 63, 0
2, 73661, Note_on_c, 0, 64, 71
2, 73714, Note_on_c, 0, 64, 0
2, 73749, Note_on_c, 0, 63, 62
2, 73792, Note_on_c, 0, 63, 0
2, 73847, Note_on_c, 0, 64, 62
2, 73916, Note_on_c, 0, 64, 0
2, 73944, Note_on_c, 0, 66, 64
2, 74022, Note_on_c, 0, 66, 0
2, 74038, Note_on_c, 0, 68, 70
2, 74110, Note_on_c, 0, 68, 0
2, 74133, Note_on_c, 0, 69, 59
2, 74172, Note_on_c, 0, 69, 0
2, 74224, Note_on_c, 0, 71, 85
2, 74272, Note_on_c, 0, 71, 0
2, 74345, Note_on_c, 0, 68, 60
2, 74394, Note_on_c, 0, 68, 0
2, 74437, Note_on_c, 0, 73, 80
2, 74459, Note_on_c, 0, 64, 67
2, 74505, Note_on_c, 0, 64, 0
2, 74545, Note_on_c, 0, 63, 56
2, 74589, Note_on_c, 0, 63, 0
2, 74635, Note_on_c, 0, 64, 61
2, 74680, Note_on_c, 0, 64, 0
2, 74728, Note_on_c, 0, 66, 58
2, 74732, Note_on_c, 0, 73, 0
2, 74780, Note_on_c, 0, 66, 0
2, 74824, Note_on_c, 0, 64, 66
2, 74866, Note_on_c, 0, 64, 0
2, 74911, Note_on_c, 0, 66, 71
2, 74912, Note_on_c, 0, 63, 63
2, 74948, Note_on_c, 0, 63, 0
2, 74999, Note_on_c, 0, 64, 53
2, 74999, Note_on_c, 0, 66, 0
2, 75010, Note_on_c, 0, 68, 66
2, 75051, Note_on_c, 0, 64, 0
2, 75098, Note_on_c, 0, 66, 56
2, 75106, Note_on_c, 0, 70, 64
2, 75114, Note_on_c, 0, 68, 0
2, 75171, Note_on_c, 0, 70, 0
2, 75178, Note_on_c, 0, 66, 0
2, 75209, Note_on_c, 0, 63, 66
2, 75211, Note_on_c, 0, 71, 77
2, 75253, Note_on_c, 0, 63, 0
2, 75290, Note_on_c, 0, 71, 0
2, 75300, Note_on_c, 0, 61, 59
2, 75304, Note_on_c, 0, 70, 68
2, 75362, Note_on_c, 0, 70, 0
2, 75369, Note_on_c, 0, 61, 0
2, 75389, Note_on_c, 0, 63, 59
2, 75408, Note_on_c, 0, 71, 76
2, 75433, Note_on_c, 0, 63, 0
2, 75482, Note_on_c, 0, 71, 0
2, 75485, Note_on_c, 0, 64, 69
2, 75497, Note_on_c, 0, 73, 74
2, 75553, Note_on_c, 0, 64, 0
2, 75593, Note_on_c, 0, 66, 74
2, 75597, Note_on_c, 0, 75, 74
2, 75641, Note_on_c, 0, 73, 0
2, 75653, Note_on_c, 0, 66, 0
2, 75685, Note_on_c, 0, 68, 71
2, 75685, Note_on_c, 0, 76, 68
2, 75747, Note_on_c, 0, 68, 0
2, 75781, Note_on_c, 0, 75, 0
2, 75788, Note_on_c, 0, 69, 68
2, 75788, Note_on_c, 0, 78, 76
2, 75815, Note_on_c, 0, 76, 0
2, 75840, Note_on_c, 0, 69, 0
2, 75871, Note_on_c, 0, 66, 71
2, 75878, Note_on_c, 0, 75, 69
2, 75883, Note_on_c, 0, 78, 0
2, 75917, Note_on_c, 0, 66, 0
2, 75956, Note_on_c, 0, 75, 0
2, 75997, Note_on_c, 0, 68, 65
2, 75999, Note_on_c, 0, 71, 72
2, 76024, Note_on_c, 0, 68, 0
2, 76061, Note_on_c, 0, 71, 0
2, 76084, Note_on_c, 0, 69, 62
2, 76138, Note_on_c, 0, 69, 0
2, 76197, Note_on_c, 0, 59, 62
2, 76203, Note_on_c, 0, 71, 75
2, 76226, Note_on_c, 0, 59, 0
2, 76249, Note_on_c, 0, 71, 0
2, 76280, Note_on_c, 0, 73, 55
2, 76367, Note_on_c, 0, 73, 0
2, 76394, Note_on_c, 0, 64, 78
2, 76402, Note_on_c, 0, 71, 64
2, 76457, Note_on_c, 0, 71, 0
2, 76491, Note_on_c, 0, 69, 57
2, 76562, Note_on_c, 0, 69, 0
2, 76601, Note_on_c, 0, 71, 67
2, 76604, Note_on_c, 0, 52, 62
2, 76644, Note_on_c, 0, 52, 0
2, 76657, Note_on_c, 0, 71, 0
2, 76809, Note_on_c, 0, 54, 74
2, 76825, Note_on_c, 0, 69, 52
2, 76828, Note_on_c, 0, 64, 0
2, 76875, Note_on_c, 0, 69, 0
2, 76911, Note_on_c, 0, 68, 55
2, 77002, Note_on_c, 0, 63, 72
2, 77012, Note_on_c, 0, 69, 65
2, 77015, Note_on_c, 0, 68, 0
2, 77058, Note_on_c, 0, 63, 0
2, 77102, Note_on_c, 0, 69, 0
2, 77118, Note_on_c, 0, 71, 65
2, 77129, Note_on_c, 0, 54, 0
2, 77209, Note_on_c, 0, 66, 81
2, 77220, Note_on_c, 0, 69, 75
2, 77234, Note_on_c, 0, 71, 0
2, 77304, Note_on_c, 0, 69, 0
2, 77317, Note_on_c, 0, 68, 66
2, 77334, Note_on_c, 0, 47, 56
2, 77387, Note_on_c, 0, 47, 0
2, 77413, Note_on_c, 0, 69, 73
2, 77417, Note_on_c, 0, 68, 0
2, 77430, Note_on_c, 0, 49, 60
2, 77487, Note_on_c, 0, 49, 0
2, 77498, Note_on_c, 0, 69, 0
2, 77516, Note_on_c, 0, 71, 72
2, 77549, Note_on_c, 0, 66, 0
2, 77577, Note_on_c, 0, 50, 24
2, 77615, Note_on_c, 0, 71, 0
2, 77617, Note_on_c, 0, 52, 69
2, 77620, Note_on_c, 0, 68, 77
2, 77623, Note_on_c, 0, 50, 0
2, 77670, Note_on_c, 0, 52, 0
2, 77703, Note_on_c, 0, 66, 72
2, 77705, Note_on_c, 0, 68, 0
2, 77708, Note_on_c, 0, 51, 63
2, 77750, Note_on_c, 0, 51, 0
2, 77782, Note_on_c, 0, 66, 0
2, 77803, Note_on_c, 0, 52, 62
2, 77812, Note_on_c, 0, 68, 78
2, 77820, Note_on_c, 0, 59, 79
2, 77855, Note_on_c, 0, 59, 0
2, 77859, Note_on_c, 0, 52, 0
2, 77906, Note_on_c, 0, 54, 64
2, 77908, Note_on_c, 0, 70, 72
2, 77948, Note_on_c, 0, 68, 0
2, 77983, Note_on_c, 0, 54, 0
2, 78008, Note_on_c, 0, 56, 71
2, 78022, Note_on_c, 0, 64, 72
2, 78022, Note_on_c, 0, 71, 74
2, 78049, Note_on_c, 0, 64, 0
2, 78050, Note_on_c, 0, 70, 0
2, 78076, Note_on_c, 0, 56, 0
2, 78102, Note_on_c, 0, 57, 67
2, 78168, Note_on_c, 0, 57, 0
2, 78204, Note_on_c, 0, 59, 62
2, 78221, Note_on_c, 0, 63, 69
2, 78255, Note_on_c, 0, 63, 0
2, 78267, Note_on_c, 0, 59, 0
2, 78305, Note_on_c, 0, 56, 68
2, 78374, Note_on_c, 0, 56, 0
2, 78425, Note_on_c, 0, 52, 66
2, 78433, Note_on_c, 0, 61, 71
2, 78476, Note_on_c, 0, 52, 0
2, 78527, Note_on_c, 0, 51, 52
2, 78569, Note_on_c, 0, 51, 0
2, 78620, Note_on_c, 0, 52, 62
2, 78690, Note_on_c, 0, 52, 0
2, 78732, Note_on_c, 0, 54, 61
2, 78800, Note_on_c, 0, 54, 0
2, 78836, Note_on_c, 0, 52, 61
2, 78839, Note_on_c, 0, 70, 76
2, 78879, Note_on_c, 0, 52, 0
2, 78925, Note_on_c, 0, 71, 0
2, 78932, Note_on_c, 0, 51, 57
2, 78977, Note_on_c, 0, 51, 0
2, 79010, Note_on_c, 0, 61, 0
2, 79035, Note_on_c, 0, 52, 51
2, 79099, Note_on_c, 0, 52, 0
2, 79123, Note_on_c, 0, 54, 54
2, 79185, Note_on_c, 0, 70, 0
2, 79217, Note_on_c, 0, 54, 0
2, 79226, Control_c, 0, 64, 51
2, 79240, Note_on_c, 0, 71, 70
2, 79241, Control_c, 0, 64, 62
2, 79241, Note_on_c, 0, 59, 60
2, 79244, Note_on_c, 0, 51, 59
2, 79257, Control_c, 0, 64, 65
2, 79262, Note_on_c, 0, 59, 0
2, 79271, Control_c, 0, 64, 68
2, 79286, Control_c, 0, 64, 74
2, 79286, Note_on_c, 0, 71, 0
2, 79300, Note_on_c, 0, 51, 0
2, 79302, Control_c, 0, 64, 85
2, 79317, Control_c, 0, 64, 99
2, 79332, Control_c, 0, 64, 120
2, 79347, Control_c, 0, 64, 127
2, 79348, Note_on_c, 0, 49, 53
2, 79408, Control_c, 0, 64, 105
2, 79424, Control_c, 0, 64, 89
2, 79433, Note_on_c, 0, 49, 0
2, 79439, Control_c, 0, 64, 74
2, 79439, Note_on_c, 0, 51, 65
2, 79454, Control_c, 0, 64, 60
2, 79460, Note_on_c, 0, 83, 48
2, 79469, Control_c, 0, 64, 0
2, 79482, Note_on_c, 0, 83, 0
2, 79497, Note_on_c, 0, 51, 0
2, 79537, Note_on_c, 0, 52, 64
2, 79611, Note_on_c, 0, 52, 0
2, 79626, Note_on_c, 0, 75, 73
2, 79637, Note_on_c, 0, 54, 68
2, 79668, Note_on_c, 0, 75, 0
2, 79707, Note_on_c, 0, 54, 0
2, 79727, Note_on_c, 0, 56, 66
2, 79812, Note_on_c, 0, 56, 0
2, 79826, Note_on_c, 0, 57, 66
2, 79828, Note_on_c, 0, 78, 85
2, 79861, Note_on_c, 0, 78, 0
2, 79905, Note_on_c, 0, 57, 0
2, 79929, Note_on_c, 0, 54, 61
2, 80028, Note_on_c, 0, 54, 0
2, 80031, Note_on_c, 0, 71, 83
2, 80041, Note_on_c, 0, 56, 67
2, 80120, Note_on_c, 0, 56, 0
2, 80151, Note_on_c, 0, 54, 66
2, 80229, Note_on_c, 0, 76, 69
2, 80241, Note_on_c, 0, 54, 0
2, 80259, Note_on_c, 0, 56, 67
2, 80322, Note_on_c, 0, 76, 0
2, 80334, Note_on_c, 0, 56, 0
2, 80357, Note_on_c, 0, 57, 63
2, 80418, Note_on_c, 0, 57, 0
2, 80429, Note_on_c, 0, 68, 84
2, 80444, Note_on_c, 0, 59, 67
2, 80459, Note_on_c, 0, 71, 0
2, 80487, Note_on_c, 0, 68, 0
2, 80507, Note_on_c, 0, 59, 0
2, 80537, Note_on_c, 0, 61, 67
2, 80626, Note_on_c, 0, 61, 0
2, 80634, Note_on_c, 0, 71, 81
2, 80640, Note_on_c, 0, 62, 72
2, 80699, Note_on_c, 0, 62, 0
2, 80743, Note_on_c, 0, 59, 59
2, 80830, Note_on_c, 0, 59, 0
2, 80836, Note_on_c, 0, 64, 77
2, 80839, Note_on_c, 0, 61, 78
2, 80876, Note_on_c, 0, 64, 0
2, 80905, Note_on_c, 0, 61, 0
2, 80952, Note_on_c, 0, 59, 65
2, 81002, Note_on_c, 0, 71, 0
2, 81030, Note_on_c, 0, 59, 0
2, 81030, Note_on_c, 0, 69, 66
2, 81031, Note_on_c, 0, 66, 82
2, 81038, Note_on_c, 0, 61, 77
2, 81076, Note_on_c, 0, 69, 0
2, 81092, Note_on_c, 0, 71, 6
2, 81105, Note_on_c, 0, 61, 0
2, 81139, Note_on_c, 0, 63, 77
2, 81200, Note_on_c, 0, 66, 0
2, 81207, Note_on_c, 0, 63, 0
2, 81228, Note_on_c, 0, 68, 80
2, 81253, Note_on_c, 0, 64, 76
2, 81262, Note_on_c, 0, 71, 0
2, 81276, Note_on_c, 0, 68, 0
2, 81304, Note_on_c, 0, 64, 0
2, 81328, Note_on_c, 0, 63, 76
2, 81424, Note_on_c, 0, 63, 0
2, 81426, Note_on_c, 0, 61, 73
2, 81436, Note_on_c, 0, 76, 86
2, 81444, Note_on_c, 0, 64, 66
2, 81484, Note_on_c, 0, 76, 0
2, 81488, Note_on_c, 0, 64, 0
2, 81506, Note_on_c, 0, 61, 0
2, 81525, Note_on_c, 0, 59, 64
2, 81608, Note_on_c, 0, 59, 0
2, 81644, Note_on_c, 0, 57, 66
2, 81654, Note_on_c, 0, 78, 86
2, 81659, Note_on_c, 0, 64, 68
2, 81728, Control_c, 0, 64, 35
2, 81743, Note_on_c, 0, 57, 0
2, 81744, Control_c, 0, 64, 45
2, 81751, Note_on_c, 0, 56, 71
2, 81759, Control_c, 0, 64, 50
2, 81774, Control_c, 0, 64, 53
2, 81780, Note_on_c, 0, 64, 0
2, 81790, Control_c, 0, 64, 55
2, 81804, Control_c, 0, 64, 57
2, 81820, Control_c, 0, 64, 57
2, 81836, Note_on_c, 0, 56, 0
2, 81841, Note_on_c, 0, 57, 68
2, 81866, Control_c, 0, 64, 56
2, 81880, Control_c, 0, 64, 50
2, 81884, Note_on_c, 0, 78, 0
2, 81895, Control_c, 0, 64, 38
2, 81911, Control_c, 0, 64, 0
2, 81921, Note_on_c, 0, 57, 0
2, 81927, Note_on_c, 0, 59, 70
2, 82026, Note_on_c, 0, 59, 0
2, 82036, Note_on_c, 0, 63, 78
2, 82043, Note_on_c, 0, 56, 68
2, 82065, Note_on_c, 0, 56, 0
2, 82066, Note_on_c, 0, 57, 68
2, 82116, Note_on_c, 0, 63, 0
2, 82133, Note_on_c, 0, 57, 0
2, 82133, Note_on_c, 0, 71, 65
2, 82139, Note_on_c, 0, 56, 73
2, 82208, Note_on_c, 0, 56, 0
2, 82224, Note_on_c, 0, 66, 74
2, 82226, Note_on_c, 0, 73, 85
2, 82233, Note_on_c, 0, 57, 57
2, 82248, Note_on_c, 0, 71, 0
2, 82267, Note_on_c, 0, 66, 0
2, 82288, Note_on_c, 0, 57, 0
2, 82306, Note_on_c, 0, 59, 74
2, 82322, Note_on_c, 0, 75, 80
2, 82339, Note_on_c, 0, 59, 0
2, 82356, Note_on_c, 0, 73, 0
2, 82385, Note_on_c, 0, 75, 0
2, 82438, Note_on_c, 0, 56, 74
2, 82438, Note_on_c, 0, 59, 62
2, 82445, Note_on_c, 0, 76, 74
2, 82548, Note_on_c, 0, 76, 0
2, 82549, Note_on_c, 0, 75, 77
2, 82560, Note_on_c, 0, 56, 0
2, 82607, Note_on_c, 0, 75, 0
2, 82651, Note_on_c, 0, 54, 72
2, 82652, Note_on_c, 0, 59, 0
2, 82654, Note_on_c, 0, 76, 81
2, 82688, Note_on_c, 0, 54, 0
2, 82721, Note_on_c, 0, 76, 0
2, 82747, Note_on_c, 0, 78, 74
2, 82852, Note_on_c, 0, 80, 79
2, 82855, Note_on_c, 0, 52, 64
2, 82886, Note_on_c, 0, 78, 0
2, 82895, Note_on_c, 0, 52, 0
2, 82934, Note_on_c, 0, 80, 0
2, 82953, Note_on_c, 0, 81, 77
2, 83031, Note_on_c, 0, 81, 0
2, 83052, Note_on_c, 0, 51, 57
2, 83062, Note_on_c, 0, 71, 85
2, 83062, Note_on_c, 0, 83, 78
2, 83095, Note_on_c, 0, 51, 0
2, 83108, Note_on_c, 0, 83, 0
2, 83117, Note_on_c, 0, 71, 0
2, 83157, Note_on_c, 0, 80, 77
2, 83192, Note_on_c, 0, 80, 0
2, 83264, Note_on_c, 0, 49, 59
2, 83271, Note_on_c, 0, 73, 85
2, 83284, Note_on_c, 0, 76, 70
2, 83298, Note_on_c, 0, 49, 0
2, 83377, Note_on_c, 0, 76, 0
2, 83396, Note_on_c, 0, 75, 63
2, 83474, Note_on_c, 0, 59, 70
2, 83481, Note_on_c, 0, 76, 79
2, 83483, Note_on_c, 0, 75, 0
2, 83509, Note_on_c, 0, 59, 0
2, 83564, Note_on_c, 0, 76, 0
2, 83582, Note_on_c, 0, 78, 75
2, 83658, Note_on_c, 0, 73, 0
2, 83684, Note_on_c, 0, 58, 71
2, 83685, Note_on_c, 0, 76, 82
2, 83691, Note_on_c, 0, 78, 0
2, 83722, Note_on_c, 0, 58, 0
2, 83768, Note_on_c, 0, 76, 0
2, 83771, Note_on_c, 0, 66, 67
2, 83780, Note_on_c, 0, 75, 77
2, 83829, Note_on_c, 0, 66, 0
2, 83845, Note_on_c, 0, 75, 0
2, 83869, Note_on_c, 0, 68, 75
2, 83871, Note_on_c, 0, 76, 81
2, 83873, Note_on_c, 0, 54, 60
2, 83922, Note_on_c, 0, 68, 0
2, 83924, Note_on_c, 0, 54, 0
2, 83977, Note_on_c, 0, 70, 73
2, 83980, Note_on_c, 0, 78, 66
2, 84015, Note_on_c, 0, 76, 0
2, 84019, Note_on_c, 0, 70, 0
2, 84065, Note_on_c, 0, 78, 0
2, 84086, Note_on_c, 0, 59, 61
2, 84088, Note_on_c, 0, 75, 69
2, 84089, Note_on_c, 0, 71, 67
2, 84093, Control_c, 0, 64, 39
2, 84109, Control_c, 0, 64, 60
2, 84116, Note_on_c, 0, 59, 0
2, 84123, Control_c, 0, 64, 63
2, 84139, Control_c, 0, 64, 65
2, 84139, Note_on_c, 0, 71, 0
2, 84154, Control_c, 0, 64, 68
2, 84169, Control_c, 0, 64, 74
2, 84181, Note_on_c, 0, 75, 0
2, 84184, Control_c, 0, 64, 84
2, 84190, Note_on_c, 0, 73, 80
2, 84199, Control_c, 0, 64, 95
2, 84202, Note_on_c, 0, 70, 69
2, 84214, Control_c, 0, 64, 105
2, 84230, Control_c, 0, 64, 105
2, 84235, Note_on_c, 0, 70, 0
2, 84284, Note_on_c, 0, 71, 74
2, 84285, Note_on_c, 0, 73, 0
2, 84287, Note_on_c, 0, 75, 79
2, 84306, Control_c, 0, 64, 104
2, 84321, Control_c, 0, 64, 95
2, 84337, Control_c, 0, 64, 85
2, 84338, Note_on_c, 0, 75, 0
2, 84352, Control_c, 0, 64, 74
2, 84354, Note_on_c, 0, 71, 0
2, 84367, Control_c, 0, 64, 65
2, 84387, Note_on_c, 0, 76, 76
2, 84389, Control_c, 0, 64, 52
2, 84395, Note_on_c, 0, 73, 73
2, 84404, Control_c, 0, 64, 0
2, 84449, Note_on_c, 0, 73, 0
2, 84472, Note_on_c, 0, 76, 0
2, 84483, Note_on_c, 0, 75, 74
2, 84486, Note_on_c, 0, 78, 82
2, 84542, Note_on_c, 0, 75, 0
2, 84569, Note_on_c, 0, 80, 77
2, 84578, Note_on_c, 0, 78, 0
2, 84581, Note_on_c, 0, 76, 70
2, 84614, Note_on_c, 0, 80, 0
2, 84661, Note_on_c, 0, 76, 0
2, 84674, Note_on_c, 0, 78, 70
2, 84674, Note_on_c, 0, 81, 88
2, 84720, Note_on_c, 0, 78, 0
2, 84758, Note_on_c, 0, 75, 70
2, 84783, Note_on_c, 0, 75, 0
2, 84855, Note_on_c, 0, 71, 76
2, 84907, Note_on_c, 0, 71, 0
2, 84937, Note_on_c, 0, 69, 68
2, 84993, Note_on_c, 0, 69, 0
2, 85022, Note_on_c, 0, 81, 0
2, 85037, Note_on_c, 0, 71, 72
2, 85054, Note_on_c, 0, 75, 81
2, 85089, Note_on_c, 0, 75, 0
2, 85090, Note_on_c, 0, 71, 0
2, 85124, Note_on_c, 0, 73, 70
2, 85184, Note_on_c, 0, 73, 0
2, 85240, Note_on_c, 0, 71, 61
2, 85253, Note_on_c, 0, 80, 83
2, 85300, Note_on_c, 0, 71, 0
2, 85345, Note_on_c, 0, 69, 58
2, 85394, Note_on_c, 0, 69, 0
2, 85443, Note_on_c, 0, 71, 59
2, 85514, Note_on_c, 0, 71, 0
2, 85520, Note_on_c, 0, 73, 69
2, 85601, Note_on_c, 0, 73, 0
2, 85628, Note_on_c, 0, 69, 66
2, 85694, Note_on_c, 0, 69, 0
2, 85718, Note_on_c, 0, 68, 65
2, 85781, Note_on_c, 0, 68, 0
2, 85818, Note_on_c, 0, 78, 73
2, 85820, Note_on_c, 0, 69, 60
2, 85832, Note_on_c, 0, 80, 0
2, 85863, Note_on_c, 0, 69, 0
2, 85876, Note_on_c, 0, 78, 0
2, 85907, Note_on_c, 0, 76, 66
2, 85914, Note_on_c, 0, 71, 65
2, 85951, Note_on_c, 0, 76, 0
2, 85972, Note_on_c, 0, 71, 0
2, 86025, Note_on_c, 0, 75, 74
2, 86035, Note_on_c, 0, 69, 53
2, 86057, Note_on_c, 0, 69, 0
2, 86127, Note_on_c, 0, 68, 54
2, 86163, Note_on_c, 0, 68, 0
2, 86235, Note_on_c, 0, 59, 72
2, 86238, Note_on_c, 0, 69, 68
2, 86269, Note_on_c, 0, 59, 0
2, 86275, Note_on_c, 0, 69, 0
2, 86329, Note_on_c, 0, 75, 0
2, 86332, Note_on_c, 0, 71, 66
2, 86417, Note_on_c, 0, 71, 0
2, 86446, Note_on_c, 0, 61, 81
2, 86455, Note_on_c, 0, 76, 69
2, 86459, Note_on_c, 0, 68, 66
2, 86490, Note_on_c, 0, 68, 0
2, 86542, Note_on_c, 0, 76, 0
2, 86551, Note_on_c, 0, 75, 74
2, 86654, Note_on_c, 0, 64, 75
2, 86654, Note_on_c, 0, 76, 79
2, 86664, Note_on_c, 0, 75, 0
2, 86714, Note_on_c, 0, 64, 0
2, 86748, Note_on_c, 0, 61, 0
2, 86756, Note_on_c, 0, 76, 0
2, 86763, Note_on_c, 0, 78, 73
2, 86868, Note_on_c, 0, 69, 79
2, 86870, Note_on_c, 0, 76, 76
2, 86909, Note_on_c, 0, 78, 0
2, 86961, Note_on_c, 0, 76, 0
2, 86963, Note_on_c, 0, 75, 73
2, 86965, Note_on_c, 0, 54, 68
2, 87029, Note_on_c, 0, 54, 0
2, 87046, Note_on_c, 0, 56, 67
2, 87052, Note_on_c, 0, 76, 79
2, 87063, Note_on_c, 0, 75, 0
2, 87110, Note_on_c, 0, 56, 0
2, 87146, Note_on_c, 0, 78, 79
2, 87147, Note_on_c, 0, 76, 0
2, 87151, Note_on_c, 0, 57, 68
2, 87199, Note_on_c, 0, 57, 0
2, 87240, Note_on_c, 0, 59, 70
2, 87245, Note_on_c, 0, 78, 0
2, 87247, Note_on_c, 0, 75, 80
2, 87294, Note_on_c, 0, 59, 0
2, 87331, Note_on_c, 0, 57, 70
2, 87341, Note_on_c, 0, 73, 79
2, 87342, Note_on_c, 0, 75, 0
2, 87382, Note_on_c, 0, 57, 0
2, 87433, Note_on_c, 0, 59, 71
2, 87438, Note_on_c, 0, 75, 86
2, 87479, Note_on_c, 0, 73, 0
2, 87513, Note_on_c, 0, 59, 0
2, 87532, Note_on_c, 0, 61, 72
2, 87532, Note_on_c, 0, 76, 77
2, 87556, Note_on_c, 0, 75, 0
2, 87598, Note_on_c, 0, 61, 0
2, 87638, Note_on_c, 0, 78, 83
2, 87639, Note_on_c, 0, 63, 73
2, 87662, Note_on_c, 0, 76, 0
2, 87697, Note_on_c, 0, 63, 0
2, 87718, Note_on_c, 0, 69, 0
2, 87721, Note_on_c, 0, 64, 78
2, 87726, Note_on_c, 0, 72, 74
2, 87740, Note_on_c, 0, 78, 0
2, 87786, Note_on_c, 0, 64, 0
2, 87819, Note_on_c, 0, 63, 73
2, 87826, Note_on_c, 0, 73, 79
2, 87835, Note_on_c, 0, 72, 0
2, 87881, Note_on_c, 0, 63, 0
2, 87912, Note_on_c, 0, 61, 71
2, 87916, Note_on_c, 0, 75, 76
2, 87929, Note_on_c, 0, 73, 0
2, 87958, Note_on_c, 0, 61, 0
2, 88014, Note_on_c, 0, 60, 73
2, 88024, Note_on_c, 0, 68, 74
2, 88042, Note_on_c, 0, 75, 0
2, 88058, Note_on_c, 0, 60, 0
2, 88113, Note_on_c, 0, 56, 56
2, 88180, Note_on_c, 0, 56, 0
2, 88206, Note_on_c, 0, 58, 71
2, 88252, Note_on_c, 0, 76, 69
2, 88283, Note_on_c, 0, 58, 0
2, 88312, Note_on_c, 0, 68, 0
2, 88314, Note_on_c, 0, 60, 70
2, 88335, Note_on_c, 0, 75, 77
2, 88353, Note_on_c, 0, 76, 0
2, 88400, Note_on_c, 0, 60, 0
2, 88423, Note_on_c, 0, 61, 74
2, 88434, Note_on_c, 0, 76, 78
2, 88448, Note_on_c, 0, 75, 0
2, 88489, Note_on_c, 0, 61, 0
2, 88529, Note_on_c, 0, 63, 70
2, 88580, Note_on_c, 0, 63, 0
2, 88622, Note_on_c, 0, 73, 71
2, 88625, Note_on_c, 0, 64, 68
2, 88662, Note_on_c, 0, 73, 0
2, 88677, Note_on_c, 0, 64, 0
2, 88731, Note_on_c, 0, 61, 57
2, 88771, Note_on_c, 0, 61, 0
2, 88819, Note_on_c, 0, 66, 73
2, 88836, Note_on_c, 0, 57, 57
2, 88851, Note_on_c, 0, 76, 0
2, 88879, Note_on_c, 0, 57, 0
2, 88916, Note_on_c, 0, 56, 60
2, 88971, Note_on_c, 0, 56, 0
2, 89036, Note_on_c, 0, 57, 53
2, 89039, Note_on_c, 0, 76, 68
2, 89073, Note_on_c, 0, 76, 0
2, 89079, Note_on_c, 0, 57, 0
2, 89119, Note_on_c, 0, 59, 57
2, 89182, Note_on_c, 0, 59, 0
2, 89230, Note_on_c, 0, 57, 50
2, 89236, Note_on_c, 0, 75, 72
2, 89270, Note_on_c, 0, 75, 0
2, 89292, Note_on_c, 0, 57, 0
2, 89325, Note_on_c, 0, 56, 57
2, 89375, Note_on_c, 0, 56, 0
2, 89420, Note_on_c, 0, 57, 58
2, 89431, Note_on_c, 0, 73, 75
2, 89475, Note_on_c, 0, 57, 0
2, 89506, Note_on_c, 0, 73, 0
2, 89518, Note_on_c, 0, 59, 54
2, 89598, Note_on_c, 0, 59, 0
2, 89613, Note_on_c, 0, 72, 71
2, 89618, Note_on_c, 0, 56, 67
2, 89678, Note_on_c, 0, 56, 0
2, 89687, Note_on_c, 0, 72, 0
2, 89765, Note_on_c, 0, 52, 27
2, 89791, Note_on_c, 0, 53, 10
2, 89814, Note_on_c, 0, 68, 72
2, 89828, Note_on_c, 0, 52, 0
2, 89837, Note_on_c, 0, 53, 0
2, 89838, Note_on_c, 0, 54, 60
2, 89844, Note_on_c, 0, 66, 0
2, 89888, Note_on_c, 0, 68, 0
2, 89910, Note_on_c, 0, 56, 67
2, 89914, Note_on_c, 0, 54, 0
2, 89989, Note_on_c, 0, 56, 0
2, 90006, Note_on_c, 0, 73, 81
2, 90013, Note_on_c, 0, 57, 64
2, 90016, Note_on_c, 0, 64, 71
2, 90055, Note_on_c, 0, 64, 0
2, 90063, Note_on_c, 0, 57, 0
2, 90097, Note_on_c, 0, 59, 65
2, 90161, Note_on_c, 0, 59, 0
2, 90199, Note_on_c, 0, 61, 71
2, 90202, Note_on_c, 0, 70, 72
2, 90222, Note_on_c, 0, 70, 0
2, 90227, Note_on_c, 0, 69, 67
2, 90241, Note_on_c, 0, 61, 0
2, 90259, Note_on_c, 0, 69, 0
2, 90295, Note_on_c, 0, 57, 66
2, 90353, Note_on_c, 0, 57, 0
2, 90396, Note_on_c, 0, 54, 73
2, 90413, Note_on_c, 0, 63, 66
2, 90441, Note_on_c, 0, 63, 0
2, 90462, Note_on_c, 0, 54, 0
2, 90500, Note_on_c, 0, 52, 60
2, 90569, Note_on_c, 0, 52, 0
2, 90596, Note_on_c, 0, 75, 74
2, 90598, Note_on_c, 0, 54, 70
2, 90604, Note_on_c, 0, 66, 71
2, 90624, Note_on_c, 0, 73, 0
2, 90641, Note_on_c, 0, 66, 0
2, 90646, Note_on_c, 0, 54, 0
2, 90653, Note_on_c, 0, 75, 0
2, 90692, Note_on_c, 0, 56, 63
2, 90748, Note_on_c, 0, 56, 0
2, 90807, Note_on_c, 0, 54, 61
2, 90814, Note_on_c, 0, 68, 68
2, 90822, Note_on_c, 0, 60, 67
2, 90848, Note_on_c, 0, 54, 0
2, 90904, Note_on_c, 0, 52, 52
2, 90941, Note_on_c, 0, 60, 0
2, 90994, Note_on_c, 0, 52, 0
2, 91006, Note_on_c, 0, 54, 60
2, 91026, Note_on_c, 0, 63, 38
2, 91029, Note_on_c, 0, 70, 54
2, 91061, Note_on_c, 0, 54, 0
2, 91063, Note_on_c, 0, 68, 0
2, 91077, Note_on_c, 0, 63, 0
2, 91092, Note_on_c, 0, 56, 63
2, 91124, Note_on_c, 0, 56, 0
2, 91127, Note_on_c, 0, 72, 59
2, 91140, Note_on_c, 0, 70, 0
2, 91157, Note_on_c, 0, 72, 0
2, 91218, Note_on_c, 0, 56, 61
2, 91233, Note_on_c, 0, 73, 64
2, 91235, Note_on_c, 0, 52, 52
2, 91327, Note_on_c, 0, 73, 0
2, 91344, Note_on_c, 0, 72, 66
2, 91402, Note_on_c, 0, 52, 0
2, 91430, Note_on_c, 0, 56, 0
2, 91439, Note_on_c, 0, 51, 60
2, 91445, Note_on_c, 0, 73, 76
2, 91448, Note_on_c, 0, 72, 0
2, 91473, Note_on_c, 0, 51, 0
2, 91536, Note_on_c, 0, 75, 76
2, 91546, Note_on_c, 0, 73, 0
2, 91602, Note_on_c, 0, 75, 0
2, 91643, Note_on_c, 0, 49, 63
2, 91649, Note_on_c, 0, 76, 71
2, 91677, Note_on_c, 0, 49, 0
2, 91748, Note_on_c, 0, 78, 76
2, 91754, Note_on_c, 0, 76, 0
2, 91842, Note_on_c, 0, 52, 73
2, 91849, Note_on_c, 0, 80, 78
2, 91878, Note_on_c, 0, 78, 0
2, 91885, Note_on_c, 0, 52, 0
2, 91926, Note_on_c, 0, 80, 0
2, 91947, Note_on_c, 0, 76, 71
2, 92020, Note_on_c, 0, 76, 0
2, 92037, Note_on_c, 0, 46, 79
2, 92056, Note_on_c, 0, 73, 74
2, 92115, Note_on_c, 0, 46, 0
2, 92126, Note_on_c, 0, 73, 0
2, 92154, Note_on_c, 0, 71, 72
2, 92244, Note_on_c, 0, 56, 81
2, 92249, Note_on_c, 0, 71, 0
2, 92255, Note_on_c, 0, 73, 76
2, 92335, Note_on_c, 0, 73, 0
2, 92345, Note_on_c, 0, 56, 0
2, 92346, Note_on_c, 0, 75, 75
2, 92476, Note_on_c, 0, 58, 80
2, 92490, Note_on_c, 0, 55, 67
2, 92490, Note_on_c, 0, 73, 65
2, 92512, Note_on_c, 0, 75, 0
2, 92530, Note_on_c, 0, 55, 0
2, 92568, Note_on_c, 0, 73, 0
2, 92594, Note_on_c, 0, 71, 67
2, 92672, Note_on_c, 0, 71, 0
2, 92693, Note_on_c, 0, 51, 61
2, 92693, Note_on_c, 0, 73, 65
2, 92735, Note_on_c, 0, 51, 0
2, 92782, Note_on_c, 0, 75, 64
2, 92799, Note_on_c, 0, 73, 0
2, 92895, Note_on_c, 0, 75, 0
2, 92901, Note_on_c, 0, 44, 69
2, 92910, Note_on_c, 0, 71, 62
2, 92982, Note_on_c, 0, 71, 0
2, 92986, Note_on_c, 0, 44, 0
2, 93001, Note_on_c, 0, 70, 61
2, 93061, Note_on_c, 0, 70, 0
2, 93105, Note_on_c, 0, 46, 66
2, 93114, Note_on_c, 0, 71, 63
2, 93154, Note_on_c, 0, 46, 0
2, 93154, Note_on_c, 0, 58, 0
2, 93184, Note_on_c, 0, 71, 0
2, 93206, Note_on_c, 0, 73, 59
2, 93322, Note_on_c, 0, 56, 72
2, 93328, Note_on_c, 0, 47, 64
2, 93331, Note_on_c, 0, 75, 62
2, 93378, Note_on_c, 0, 47, 0
2, 93399, Note_on_c, 0, 73, 0
2, 93441, Note_on_c, 0, 76, 63
2, 93454, Note_on_c, 0, 75, 0
2, 93542, Note_on_c, 0, 46, 63
2, 93546, Note_on_c, 0, 78, 69
2, 93582, Note_on_c, 0, 46, 0
2, 93583, Note_on_c, 0, 76, 0
2, 93650, Note_on_c, 0, 75, 67
2, 93650, Note_on_c, 0, 78, 0
2, 93719, Note_on_c, 0, 75, 0
2, 93755, Note_on_c, 0, 44, 76
2, 93767, Note_on_c, 0, 71, 66
2, 93797, Note_on_c, 0, 44, 0
2, 93799, Note_on_c, 0, 56, 0
2, 93839, Note_on_c, 0, 71, 0
2, 93863, Note_on_c, 0, 69, 57
2, 93912, Note_on_c, 0, 69, 0
2, 93961, Note_on_c, 0, 54, 85
2, 93970, Note_on_c, 0, 71, 72
2, 94043, Note_on_c, 0, 71, 0
2, 94044, Note_on_c, 0, 54, 0
2, 94074, Note_on_c, 0, 73, 67
2, 94188, Note_on_c, 0, 56, 74
2, 94200, Note_on_c, 0, 53, 58
2, 94208, Note_on_c, 0, 71, 65
2, 94254, Note_on_c, 0, 53, 0
2, 94264, Note_on_c, 0, 73, 0
2, 94293, Note_on_c, 0, 71, 0
2, 94316, Note_on_c, 0, 69, 65
2, 94398, Note_on_c, 0, 69, 0
2, 94418, Note_on_c, 0, 49, 56
2, 94428, Note_on_c, 0, 71, 65
2, 94454, Note_on_c, 0, 49, 0
2, 94507, Note_on_c, 0, 73, 65
2, 94514, Note_on_c, 0, 71, 0
2, 94588, Note_on_c, 0, 73, 0
2, 94619, Note_on_c, 0, 42, 64
2, 94619, Note_on_c, 0, 69, 61
2, 94674, Note_on_c, 0, 42, 0
2, 94685, Note_on_c, 0, 69, 0
2, 94710, Note_on_c, 0, 68, 58
2, 94764, Note_on_c, 0, 68, 0
2, 94822, Note_on_c, 0, 69, 63
2, 94824, Note_on_c, 0, 44, 62
2, 94867, Note_on_c, 0, 44, 0
2, 94868, Note_on_c, 0, 56, 0
2, 94899, Note_on_c, 0, 69, 0
2, 94919, Note_on_c, 0, 71, 64
2, 95034, Note_on_c, 0, 54, 69
2, 95042, Note_on_c, 0, 45, 57
2, 95044, Note_on_c, 0, 73, 71
2, 95045, Note_on_c, 0, 71, 0
2, 95094, Note_on_c, 0, 45, 0
2, 95161, Note_on_c, 0, 75, 70
2, 95168, Note_on_c, 0, 73, 0
2, 95258, Note_on_c, 0, 44, 65
2, 95267, Note_on_c, 0, 76, 72
2, 95300, Note_on_c, 0, 44, 0
2, 95301, Note_on_c, 0, 75, 0
2, 95344, Note_on_c, 0, 76, 0
2, 95364, Note_on_c, 0, 73, 71
2, 95469, Note_on_c, 0, 42, 73
2, 95473, Note_on_c, 0, 73, 0
2, 95477, Note_on_c, 0, 75, 79
2, 95502, Note_on_c, 0, 42, 0
2, 95571, Note_on_c, 0, 75, 0
2, 95578, Note_on_c, 0, 73, 80
2, 95605, Note_on_c, 0, 54, 0
2, 95667, Note_on_c, 0, 52, 72
2, 95673, Note_on_c, 0, 75, 88
2, 95687, Note_on_c, 0, 73, 0
2, 95720, Note_on_c, 0, 52, 0
2, 95738, Note_on_c, 0, 75, 0
2, 95782, Note_on_c, 0, 76, 77
2, 95874, Note_on_c, 0, 54, 67
2, 95881, Note_on_c, 0, 51, 63
2, 95889, Note_on_c, 0, 78, 81
2, 95924, Note_on_c, 0, 76, 0
2, 95929, Note_on_c, 0, 51, 0
2, 96000, Note_on_c, 0, 80, 83
2, 96052, Note_on_c, 0, 78, 0
2, 96078, Note_on_c, 0, 49, 60
2, 96094, Note_on_c, 0, 81, 83
2, 96119, Note_on_c, 0, 49, 0
2, 96128, Note_on_c, 0, 80, 0
2, 96192, Note_on_c, 0, 78, 79
2, 96197, Note_on_c, 0, 81, 0
2, 96294, Note_on_c, 0, 48, 66
2, 96301, Note_on_c, 0, 80, 87
2, 96310, Note_on_c, 0, 78, 0
2, 96339, Note_on_c, 0, 48, 0
2, 96410, Note_on_c, 0, 78, 79
2, 96439, Note_on_c, 0, 80, 0
2, 96482, Note_on_c, 0, 78, 0
2, 96505, Note_on_c, 0, 44, 66
2, 96511, Note_on_c, 0, 76, 79
2, 96551, Note_on_c, 0, 44, 0
2, 96554, Note_on_c, 0, 54, 0
2, 96595, Note_on_c, 0, 76, 0
2, 96603, Note_on_c, 0, 75, 77
2, 96722, Note_on_c, 0, 73, 79
2, 96727, Note_on_c, 0, 45, 64
2, 96729, Note_on_c, 0, 52, 70
2, 96760, Note_on_c, 0, 45, 0
2, 96778, Note_on_c, 0, 75, 0
2, 96810, Note_on_c, 0, 52, 0
2, 96810, Note_on_c, 0, 71, 75
2, 96847, Note_on_c, 0, 73, 0
2, 96887, Note_on_c, 0, 71, 0
2, 96927, Note_on_c, 0, 61, 84
2, 96931, Note_on_c, 0, 52, 70
2, 96933, Note_on_c, 0, 69, 74
2, 96965, Note_on_c, 0, 52, 0
2, 96976, Note_on_c, 0, 61, 0
2, 96991, Note_on_c, 0, 69, 0
2, 97027, Note_on_c, 0, 68, 66
2, 97107, Note_on_c, 0, 68, 0
2, 97148, Note_on_c, 0, 66, 71
2, 97153, Note_on_c, 0, 54, 75
2, 97156, Note_on_c, 0, 63, 81
2, 97210, Note_on_c, 0, 54, 0
2, 97231, Note_on_c, 0, 52, 65
2, 97234, Note_on_c, 0, 68, 71
2, 97247, Note_on_c, 0, 66, 0
2, 97333, Note_on_c, 0, 69, 71
2, 97347, Note_on_c, 0, 68, 0
2, 97350, Note_on_c, 0, 52, 0
2, 97351, Note_on_c, 0, 54, 71
2, 97413, Note_on_c, 0, 69, 0
2, 97449, Note_on_c, 0, 66, 76
2, 97491, Note_on_c, 0, 63, 0
2, 97492, Note_on_c, 0, 66, 0
2, 97571, Note_on_c, 0, 56, 65
2, 97574, Note_on_c, 0, 54, 0
2, 97582, Note_on_c, 0, 63, 70
2, 97609, Note_on_c, 0, 56, 0
2, 97674, Note_on_c, 0, 56, 72
2, 97750, Note_on_c, 0, 56, 0
2, 97767, Note_on_c, 0, 58, 68
2, 97770, Note_on_c, 0, 44, 58
2, 97780, Note_on_c, 0, 68, 74
2, 97806, Note_on_c, 0, 63, 0
2, 97816, Note_on_c, 0, 58, 0
2, 97819, Note_on_c, 0, 44, 0
2, 97882, Note_on_c, 0, 60, 68
2, 97970, Note_on_c, 0, 68, 0
2, 97973, Note_on_c, 0, 49, 60
2, 97979, Note_on_c, 0, 60, 0
2, 97983, Note_on_c, 0, 64, 69
2, 97991, Control_c, 0, 64, 28
2, 97993, Note_on_c, 0, 61, 58
2, 98007, Control_c, 0, 64, 53
2, 98019, Note_on_c, 0, 49, 0
2, 98023, Control_c, 0, 64, 59
2, 98028, Note_on_c, 0, 64, 0
2, 98030, Note_on_c, 0, 61, 0
2, 98038, Control_c, 0, 64, 62
2, 98052, Control_c, 0, 64, 63
2, 98068, Control_c, 0, 64, 65
2, 98083, Control_c, 0, 64, 65
2, 98094, Note_on_c, 0, 60, 61
2, 98114, Control_c, 0, 64, 65
2, 98128, Control_c, 0, 64, 62
2, 98144, Control_c, 0, 64, 56
2, 98159, Control_c, 0, 64, 40
2, 98168, Note_on_c, 0, 60, 0
2, 98174, Control_c, 0, 64, 0
2, 98180, Note_on_c, 0, 68, 69
2, 98186, Note_on_c, 0, 61, 69
2, 98225, Note_on_c, 0, 68, 0
2, 98265, Note_on_c, 0, 61, 0
2, 98288, Note_on_c, 0, 63, 74
2, 98357, Note_on_c, 0, 63, 0
2, 98385, Note_on_c, 0, 64, 68
2, 98386, Note_on_c, 0, 73, 85
2, 98448, Note_on_c, 0, 73, 0
2, 98466, Note_on_c, 0, 64, 0
2, 98481, Note_on_c, 0, 66, 65
2, 98557, Note_on_c, 0, 66, 0
2, 98580, Note_on_c, 0, 71, 84
2, 98587, Note_on_c, 0, 68, 68
2, 98622, Note_on_c, 0, 71, 0
2, 98642, Note_on_c, 0, 68, 0
2, 98679, Note_on_c, 0, 64, 69
2, 98764, Note_on_c, 0, 64, 0
2, 98788, Note_on_c, 0, 61, 69
2, 98789, Note_on_c, 0, 76, 72
2, 98856, Note_on_c, 0, 61, 0
2, 98880, Note_on_c, 0, 75, 74
2, 98896, Note_on_c, 0, 76, 0
2, 98921, Note_on_c, 0, 59, 17
2, 98943, Note_on_c, 0, 60, 19
2, 98978, Note_on_c, 0, 59, 0
2, 98984, Note_on_c, 0, 73, 80
2, 98992, Note_on_c, 0, 60, 0
2, 98992, Note_on_c, 0, 61, 66
2, 99001, Note_on_c, 0, 75, 0
2, 99050, Note_on_c, 0, 61, 0
2, 99077, Note_on_c, 0, 71, 76
2, 99081, Note_on_c, 0, 73, 0
2, 99087, Note_on_c, 0, 63, 62
2, 99119, Note_on_c, 0, 71, 0
2, 99169, Note_on_c, 0, 63, 0
2, 99187, Note_on_c, 0, 61, 64
2, 99195, Note_on_c, 0, 69, 66
2, 99238, Note_on_c, 0, 61, 0
2, 99284, Note_on_c, 0, 59, 56
2, 99361, Note_on_c, 0, 59, 0
2, 99366, Note_on_c, 0, 61, 59
2, 99423, Note_on_c, 0, 61, 0
2, 99462, Note_on_c, 0, 63, 64
2, 99513, Note_on_c, 0, 63, 0
2, 99559, Note_on_c, 0, 59, 61
2, 99622, Note_on_c, 0, 59, 0
2, 99650, Note_on_c, 0, 56, 55
2, 99721, Note_on_c, 0, 56, 0
2, 99758, Note_on_c, 0, 57, 58
2, 99787, Note_on_c, 0, 63, 66
2, 99804, Note_on_c, 0, 57, 0
2, 99820, Note_on_c, 0, 63, 0
2, 99825, Note_on_c, 0, 69, 0
2, 99858, Note_on_c, 0, 59, 59
2, 99933, Note_on_c, 0, 59, 0
2, 99974, Note_on_c, 0, 69, 72
2, 99976, Note_on_c, 0, 61, 62
2, 100016, Note_on_c, 0, 69, 0
2, 100032, Note_on_c, 0, 61, 0
2, 100079, Note_on_c, 0, 63, 61
2, 100138, Note_on_c, 0, 63, 0
2, 100165, Note_on_c, 0, 68, 71
2, 100180, Note_on_c, 0, 64, 64
2, 100200, Note_on_c, 0, 68, 0
2, 100226, Note_on_c, 0, 64, 0
2, 100276, Note_on_c, 0, 61, 55
2, 100314, Note_on_c, 0, 61, 0
2, 100363, Note_on_c, 0, 73, 74
2, 100372, Note_on_c, 0, 57, 59
2, 100422, Note_on_c, 0, 57, 0
2, 100445, Note_on_c, 0, 73, 0
2, 100451, Note_on_c, 0, 56, 53
2, 100467, Note_on_c, 0, 71, 62
2, 100518, Note_on_c, 0, 56, 0
2, 100555, Note_on_c, 0, 57, 54
2, 100561, Note_on_c, 0, 69, 67
2, 100562, Note_on_c, 0, 71, 0
2, 100613, Note_on_c, 0, 57, 0
2, 100627, Note_on_c, 0, 69, 0
2, 100658, Note_on_c, 0, 59, 56
2, 100667, Note_on_c, 0, 68, 47
2, 100707, Note_on_c, 0, 68, 0
2, 100718, Note_on_c, 0, 59, 0
2, 100758, Note_on_c, 0, 57, 55
2, 100760, Note_on_c, 0, 66, 64
2, 100829, Note_on_c, 0, 57, 0
2, 100865, Note_on_c, 0, 56, 56
2, 100920, Note_on_c, 0, 56, 0
2, 100961, Note_on_c, 0, 57, 57
2, 101009, Note_on_c, 0, 57, 0
2, 101046, Note_on_c, 0, 59, 59
2, 101116, Note_on_c, 0, 59, 0
2, 101149, Note_on_c, 0, 56, 68
2, 101197, Note_on_c, 0, 56, 0
2, 101240, Note_on_c, 0, 54, 66
2, 101311, Note_on_c, 0, 66, 0
2, 101322, Note_on_c, 0, 54, 0
2, 101332, Note_on_c, 0, 56, 64
2, 101349, Note_on_c, 0, 64, 73
2, 101400, Note_on_c, 0, 56, 0
2, 101421, Note_on_c, 0, 64, 0
2, 101424, Note_on_c, 0, 57, 65
2, 101439, Note_on_c, 0, 63, 67
2, 101501, Note_on_c, 0, 57, 0
2, 101501, Note_on_c, 0, 63, 0
2, 101540, Note_on_c, 0, 56, 73
2, 101541, Note_on_c, 0, 64, 73
2, 101568, Note_on_c, 0, 56, 0
2, 101607, Note_on_c, 0, 64, 0
2, 101643, Note_on_c, 0, 66, 60
2, 101751, Note_on_c, 0, 68, 65
2, 101756, Note_on_c, 0, 59, 73
2, 101760, Note_on_c, 0, 52, 67
2, 101766, Note_on_c, 0, 66, 0
2, 101794, Note_on_c, 0, 52, 0
2, 101809, Note_on_c, 0, 68, 0
2, 101843, Note_on_c, 0, 64, 60
2, 101965, Note_on_c, 0, 59, 0
2, 101968, Note_on_c, 0, 54, 81
2, 101981, Note_on_c, 0, 61, 61
2, 102003, Note_on_c, 0, 64, 0
2, 102063, Note_on_c, 0, 61, 0
2, 102087, Note_on_c, 0, 68, 58
2, 102188, Note_on_c, 0, 57, 64
2, 102200, Note_on_c, 0, 66, 63
2, 102208, Note_on_c, 0, 68, 0
2, 102245, Note_on_c, 0, 66, 0
2, 102267, Note_on_c, 0, 57, 0
2, 102282, Note_on_c, 0, 56, 72
2, 102291, Note_on_c, 0, 64, 69
2, 102292, Note_on_c, 0, 54, 0
2, 102342, Note_on_c, 0, 56, 0
2, 102391, Note_on_c, 0, 57, 75
2, 102399, Note_on_c, 0, 64, 0
2, 102402, Note_on_c, 0, 63, 68
2, 102444, Note_on_c, 0, 57, 0
2, 102499, Note_on_c, 0, 47, 63
2, 102500, Note_on_c, 0, 61, 75
2, 102510, Note_on_c, 0, 63, 0
2, 102575, Note_on_c, 0, 47, 0
2, 102598, Note_on_c, 0, 49, 64
2, 102603, Note_on_c, 0, 59, 73
2, 102629, Note_on_c, 0, 61, 0
2, 102653, Note_on_c, 0, 49, 0
2, 102660, Note_on_c, 0, 59, 0
2, 102691, Note_on_c, 0, 51, 73
2, 102695, Note_on_c, 0, 57, 67
2, 102748, Note_on_c, 0, 51, 0
2, 102790, Note_on_c, 0, 52, 71
2, 102793, Note_on_c, 0, 57, 0
2, 102801, Note_on_c, 0, 56, 76
2, 102856, Note_on_c, 0, 52, 0
2, 102865, Note_on_c, 0, 56, 0
2, 102894, Note_on_c, 0, 51, 72
2, 102903, Note_on_c, 0, 59, 74
2, 102940, Note_on_c, 0, 51, 0
2, 102984, Note_on_c, 0, 59, 0
2, 102987, Note_on_c, 0, 52, 72
2, 102996, Note_on_c, 0, 61, 80
2, 103050, Note_on_c, 0, 52, 0
2, 103089, Note_on_c, 0, 63, 81
2, 103093, Note_on_c, 0, 54, 68
2, 103098, Note_on_c, 0, 61, 0
2, 103150, Note_on_c, 0, 63, 0
2, 103163, Note_on_c, 0, 54, 0
2, 103185, Note_on_c, 0, 56, 73
2, 103192, Note_on_c, 0, 64, 80
2, 103250, Note_on_c, 0, 56, 0
2, 103265, Note_on_c, 0, 64, 0
2, 103283, Note_on_c, 0, 57, 72
2, 103286, Note_on_c, 0, 66, 77
2, 103343, Note_on_c, 0, 57, 0
2, 103381, Note_on_c, 0, 59, 68
2, 103381, Note_on_c, 0, 68, 82
2, 103393, Note_on_c, 0, 66, 0
2, 103432, Note_on_c, 0, 59, 0
2, 103444, Note_on_c, 0, 68, 0
2, 103470, Note_on_c, 0, 56, 70
2, 103470, Note_on_c, 0, 64, 84
2, 103524, Note_on_c, 0, 56, 0
2, 103600, Note_on_c, 0, 52, 65
2, 103611, Note_on_c, 0, 73, 91
2, 103659, Note_on_c, 0, 64, 0
2, 103677, Note_on_c, 0, 52, 0
2, 103704, Note_on_c, 0, 51, 58
2, 103761, Note_on_c, 0, 51, 0
2, 103803, Note_on_c, 0, 52, 66
2, 103871, Note_on_c, 0, 52, 0
2, 103904, Note_on_c, 0, 54, 69
2, 103964, Note_on_c, 0, 54, 0
2, 103964, Note_on_c, 0, 73, 0
2, 104002, Note_on_c, 0, 52, 72
2, 104062, Note_on_c, 0, 52, 0
2, 104099, Note_on_c, 0, 51, 74
2, 104115, Note_on_c, 0, 66, 78
2, 104136, Note_on_c, 0, 51, 0
2, 104191, Note_on_c, 0, 52, 68
2, 104200, Note_on_c, 0, 66, 0
2, 104206, Note_on_c, 0, 68, 80
2, 104278, Note_on_c, 0, 54, 78
2, 104280, Note_on_c, 0, 52, 0
2, 104299, Note_on_c, 0, 70, 75
2, 104310, Note_on_c, 0, 68, 0
2, 104330, Note_on_c, 0, 54, 0
2, 104365, Note_on_c, 0, 70, 0
2, 104405, Note_on_c, 0, 51, 71
2, 104415, Note_on_c, 0, 71, 80
2, 104439, Note_on_c, 0, 51, 0
2, 104485, Note_on_c, 0, 71, 0
2, 104507, Note_on_c, 0, 70, 73
2, 104567, Note_on_c, 0, 70, 0
2, 104608, Note_on_c, 0, 54, 71
2, 104609, Note_on_c, 0, 71, 81
2, 104641, Note_on_c, 0, 54, 0
2, 104684, Note_on_c, 0, 71, 0
2, 104729, Note_on_c, 0, 72, 59
2, 104799, Note_on_c, 0, 72, 0
2, 104802, Note_on_c, 0, 75, 79
2, 104808, Note_on_c, 0, 47, 71
2, 104842, Note_on_c, 0, 47, 0
2, 104862, Note_on_c, 0, 75, 0
2, 104900, Note_on_c, 0, 76, 72
2, 105006, Note_on_c, 0, 64, 83
2, 105014, Note_on_c, 0, 78, 75
2, 105019, Note_on_c, 0, 76, 0
2, 105023, Note_on_c, 0, 52, 68
2, 105058, Note_on_c, 0, 64, 0
2, 105111, Note_on_c, 0, 78, 0
2, 105131, Note_on_c, 0, 80, 38
2, 105138, Note_on_c, 0, 79, 48
2, 105145, Note_on_c, 0, 80, 0
2, 105159, Note_on_c, 0, 79, 0
2, 105252, Note_on_c, 0, 66, 84
2, 105270, Note_on_c, 0, 69, 67
2, 105376, Note_on_c, 0, 69, 0
2, 105388, Note_on_c, 0, 68, 70
2, 105453, Note_on_c, 0, 52, 0
2, 105473, Note_on_c, 0, 51, 70
2, 105479, Note_on_c, 0, 69, 74
2, 105554, Note_on_c, 0, 51, 0
2, 105557, Note_on_c, 0, 68, 0
2, 105569, Note_on_c, 0, 69, 0
2, 105582, Note_on_c, 0, 71, 75
2, 105590, Note_on_c, 0, 66, 0
2, 105591, Note_on_c, 0, 49, 69
2, 105668, Note_on_c, 0, 49, 0
2, 105681, Note_on_c, 0, 51, 76
2, 105689, Note_on_c, 0, 69, 77
2, 105716, Note_on_c, 0, 71, 0
2, 105741, Note_on_c, 0, 51, 0
2, 105763, Note_on_c, 0, 69, 0
2, 105776, Note_on_c, 0, 59, 75
2, 105783, Note_on_c, 0, 68, 72
2, 105811, Note_on_c, 0, 59, 0
2, 105856, Note_on_c, 0, 68, 0
2, 105890, Note_on_c, 0, 59, 65
2, 105893, Note_on_c, 0, 69, 76
2, 105899, Note_on_c, 0, 61, 81
2, 105928, Note_on_c, 0, 59, 0
2, 105983, Note_on_c, 0, 69, 0
2, 105986, Note_on_c, 0, 61, 0
2, 105989, Note_on_c, 0, 63, 77
2, 105992, Note_on_c, 0, 71, 73
2, 106055, Note_on_c, 0, 63, 0
2, 106096, Note_on_c, 0, 64, 79
2, 106104, Note_on_c, 0, 68, 79
2, 106120, Note_on_c, 0, 71, 0
2, 106134, Note_on_c, 0, 60, 48
2, 106165, Note_on_c, 0, 64, 0
2, 106178, Note_on_c, 0, 68, 0
2, 106196, Note_on_c, 0, 66, 76
2, 106216, Note_on_c, 0, 63, 53
2, 106269, Note_on_c, 0, 63, 0
2, 106281, Note_on_c, 0, 60, 0
2, 106289, Note_on_c, 0, 68, 81
2, 106295, Note_on_c, 0, 64, 72
2, 106304, Note_on_c, 0, 66, 0
2, 106355, Note_on_c, 0, 68, 0
2, 106394, Note_on_c, 0, 66, 77
2, 106398, Note_on_c, 0, 64, 0
2, 106398, Note_on_c, 0, 69, 75
2, 106428, Note_on_c, 0, 66, 0
2, 106468, Note_on_c, 0, 69, 0
2, 106488, Note_on_c, 0, 68, 77
2, 106500, Note_on_c, 0, 71, 83
2, 106554, Note_on_c, 0, 68, 0
2, 106589, Note_on_c, 0, 69, 73
2, 106597, Note_on_c, 0, 73, 80
2, 106608, Note_on_c, 0, 71, 0
2, 106646, Note_on_c, 0, 69, 0
2, 106698, Note_on_c, 0, 56, 76
2, 106705, Note_on_c, 0, 74, 68
2, 106710, Note_on_c, 0, 71, 85
2, 106728, Note_on_c, 0, 56, 0
2, 106799, Note_on_c, 0, 71, 0
2, 106805, Note_on_c, 0, 68, 75
2, 106808, Note_on_c, 0, 73, 0
2, 106818, Note_on_c, 0, 74, 0
2, 106878, Note_on_c, 0, 68, 0
2, 106909, Note_on_c, 0, 57, 80
2, 106913, Note_on_c, 0, 64, 82
2, 106951, Note_on_c, 0, 57, 0
2, 106999, Note_on_c, 0, 64, 0
2, 107004, Note_on_c, 0, 63, 81
2, 107080, Note_on_c, 0, 63, 0
2, 107117, Note_on_c, 0, 56, 74
2, 107120, Note_on_c, 0, 73, 85
2, 107121, Note_on_c, 0, 64, 81
2, 107156, Note_on_c, 0, 56, 0
2, 107181, Note_on_c, 0, 64, 0
2, 107208, Note_on_c, 0, 71, 76
2, 107222, Note_on_c, 0, 73, 0
2, 107225, Note_on_c, 0, 66, 70
2, 107325, Note_on_c, 0, 66, 0
2, 107335, Note_on_c, 0, 73, 86
2, 107345, Note_on_c, 0, 64, 78
2, 107349, Note_on_c, 0, 57, 54
2, 107362, Note_on_c, 0, 71, 0
2, 107378, Note_on_c, 0, 57, 0
2, 107387, Note_on_c, 0, 64, 0
2, 107467, Note_on_c, 0, 63, 64
2, 107528, Note_on_c, 0, 63, 0
2, 107547, Note_on_c, 0, 52, 71
2, 107551, Note_on_c, 0, 64, 76
2, 107588, Note_on_c, 0, 52, 0
2, 107609, Note_on_c, 0, 64, 0
2, 107650, Note_on_c, 0, 66, 73
2, 107759, Note_on_c, 0, 54, 79
2, 107778, Note_on_c, 0, 63, 69
2, 107789, Note_on_c, 0, 66, 0
2, 107860, Note_on_c, 0, 63, 0
2, 107868, Note_on_c, 0, 61, 70
2, 107944, Note_on_c, 0, 61, 0
2, 107962, Note_on_c, 0, 73, 0
2, 107968, Note_on_c, 0, 54, 0
2, 107973, Note_on_c, 0, 63, 70
2, 107979, Note_on_c, 0, 57, 76
2, 108016, Note_on_c, 0, 57, 0
2, 108037, Note_on_c, 0, 63, 0
2, 108068, Note_on_c, 0, 64, 69
2, 108159, Note_on_c, 0, 64, 0
2, 108181, Note_on_c, 0, 71, 76
2, 108188, Note_on_c, 0, 66, 62
2, 108201, Note_on_c, 0, 56, 75
2, 108235, Note_on_c, 0, 56, 0
2, 108242, Note_on_c, 0, 66, 0
2, 108300, Note_on_c, 0, 68, 64
2, 108404, Note_on_c, 0, 69, 70
2, 108406, Note_on_c, 0, 54, 79
2, 108432, Note_on_c, 0, 68, 0
2, 108438, Note_on_c, 0, 54, 0
2, 108493, Note_on_c, 0, 69, 0
2, 108509, Note_on_c, 0, 66, 58
2, 108597, Note_on_c, 0, 66, 0
2, 108619, Note_on_c, 0, 52, 59
2, 108630, Note_on_c, 0, 62, 66
2, 108713, Note_on_c, 0, 62, 0
2, 108734, Note_on_c, 0, 61, 63
2, 108820, Note_on_c, 0, 61, 0
2, 108829, Note_on_c, 0, 54, 75
2, 108837, Note_on_c, 0, 52, 0
2, 108847, Note_on_c, 0, 62, 69
2, 108880, Note_on_c, 0, 54, 0
2, 108889, Note_on_c, 0, 71, 0
2, 108899, Note_on_c, 0, 62, 0
2, 108944, Note_on_c, 0, 64, 66
2, 109032, Note_on_c, 0, 64, 0
2, 109059, Note_on_c, 0, 56, 71
2, 109065, Note_on_c, 0, 71, 80
2, 109083, Note_on_c, 0, 62, 62
2, 109098, Note_on_c, 0, 56, 0
2, 109119, Note_on_c, 0, 62, 0
2, 109180, Note_on_c, 0, 61, 59
2, 109247, Note_on_c, 0, 61, 0
2, 109261, Note_on_c, 0, 52, 76
2, 109280, Note_on_c, 0, 62, 70
2, 109303, Note_on_c, 0, 52, 0
2, 109332, Note_on_c, 0, 62, 0
2, 109367, Note_on_c, 0, 64, 74
2, 109485, Note_on_c, 0, 57, 77
2, 109507, Note_on_c, 0, 64, 0
2, 109508, Note_on_c, 0, 61, 67
2, 109560, Note_on_c, 0, 61, 0
2, 109586, Note_on_c, 0, 59, 74
2, 109641, Note_on_c, 0, 59, 0
2, 109670, Note_on_c, 0, 57, 0
2, 109710, Note_on_c, 0, 61, 69
2, 109713, Note_on_c, 0, 59, 83
2, 109766, Note_on_c, 0, 59, 0
2, 109774, Note_on_c, 0, 61, 0
2, 109807, Note_on_c, 0, 71, 0
2, 109821, Note_on_c, 0, 62, 74
2, 109887, Note_on_c, 0, 62, 0
2, 109935, Note_on_c, 0, 69, 78
2, 109936, Note_on_c, 0, 61, 78
2, 109942, Note_on_c, 0, 64, 66
2, 109978, Note_on_c, 0, 64, 0
2, 109999, Note_on_c, 0, 61, 0
2, 110047, Note_on_c, 0, 66, 70
2, 110138, Note_on_c, 0, 68, 74
2, 110147, Note_on_c, 0, 59, 79
2, 110156, Note_on_c, 0, 66, 0
2, 110179, Note_on_c, 0, 59, 0
2, 110228, Note_on_c, 0, 68, 0
2, 110251, Note_on_c, 0, 64, 72
2, 110362, Note_on_c, 0, 61, 70
2, 110364, Note_on_c, 0, 64, 0
2, 110365, Note_on_c, 0, 57, 76
2, 110403, Note_on_c, 0, 57, 0
2, 110431, Note_on_c, 0, 61, 0
2, 110468, Note_on_c, 0, 59, 61
2, 110527, Note_on_c, 0, 59, 0
2, 110572, Note_on_c, 0, 52, 70
2, 110574, Note_on_c, 0, 61, 69
2, 110612, Note_on_c, 0, 52, 0
2, 110624, Note_on_c, 0, 69, 0
2, 110638, Note_on_c, 0, 61, 0
2, 110686, Note_on_c, 0, 62, 65
2, 110747, Note_on_c, 0, 62, 0
2, 110787, Note_on_c, 0, 54, 75
2, 110794, Note_on_c, 0, 69, 72
2, 110795, Note_on_c, 0, 61, 66
2, 110828, Note_on_c, 0, 54, 0
2, 110833, Note_on_c, 0, 61, 0
2, 110895, Note_on_c, 0, 59, 56
2, 110947, Note_on_c, 0, 59, 0
2, 110995, Note_on_c, 0, 49, 61
2, 110997, Note_on_c, 0, 61, 64
2, 111048, Note_on_c, 0, 49, 0
2, 111049, Note_on_c, 0, 61, 0
2, 111106, Note_on_c, 0, 62, 57
2, 111142, Note_on_c, 0, 62, 0
2, 111213, Note_on_c, 0, 51, 60
2, 111227, Note_on_c, 0, 59, 63
2, 111263, Note_on_c, 0, 51, 0
2, 111289, Note_on_c, 0, 59, 0
2, 111300, Note_on_c, 0, 69, 0
2, 111329, Note_on_c, 0, 57, 62
2, 111421, Note_on_c, 0, 57, 0
2, 111424, Note_on_c, 0, 47, 57
2, 111431, Note_on_c, 0, 59, 63
2, 111465, Note_on_c, 0, 47, 0
2, 111519, Note_on_c, 0, 59, 0
2, 111522, Note_on_c, 0, 61, 70
2, 111549, Note_on_c, 0, 61, 0
2, 111630, Note_on_c, 0, 68, 70
2, 111644, Note_on_c, 0, 59, 61
2, 111647, Note_on_c, 0, 52, 54
2, 111669, Note_on_c, 0, 68, 0
2, 111695, Note_on_c, 0, 59, 0
2, 111742, Note_on_c, 0, 57, 55
2, 111828, Note_on_c, 0, 57, 0
2, 111832, Note_on_c, 0, 59, 64
2, 111843, Note_on_c, 0, 76, 80
2, 111868, Note_on_c, 0, 76, 0
2, 111893, Note_on_c, 0, 59, 0
2, 111934, Note_on_c, 0, 61, 59
2, 111977, Note_on_c, 0, 80, 41
2, 112020, Note_on_c, 0, 80, 0
2, 112023, Note_on_c, 0, 61, 0
2, 112054, Control_c, 0, 64, 48
2, 112069, Control_c, 0, 64, 64
2, 112069, Note_on_c, 0, 57, 62
2, 112081, Note_on_c, 0, 78, 86
2, 112084, Control_c, 0, 64, 74
2, 112100, Control_c, 0, 64, 100
2, 112115, Control_c, 0, 64, 127
2, 112137, Note_on_c, 0, 78, 0
2, 112157, Note_on_c, 0, 57, 0
2, 112173, Note_on_c, 0, 56, 63
2, 112268, Note_on_c, 0, 56, 0
2, 112277, Note_on_c, 0, 52, 0
2, 112278, Note_on_c, 0, 57, 66
2, 112353, Note_on_c, 0, 57, 0
2, 112378, Note_on_c, 0, 59, 63
2, 112490, Note_on_c, 0, 57, 77
2, 112494, Control_c, 0, 64, 108
2, 112494, Note_on_c, 0, 51, 76
2, 112494, Note_on_c, 0, 59, 0
2, 112509, Control_c, 0, 64, 80
2, 112524, Control_c, 0, 64, 65
2, 112540, Control_c, 0, 64, 0
2, 112574, Note_on_c, 0, 57, 0
2, 112583, Note_on_c, 0, 56, 73
2, 112598, Note_on_c, 0, 71, 78
2, 112671, Note_on_c, 0, 71, 0
2, 112677, Note_on_c, 0, 56, 0
2, 112677, Note_on_c, 0, 57, 74
2, 112687, Note_on_c, 0, 73, 88
2, 112752, Note_on_c, 0, 57, 0
2, 112780, Note_on_c, 0, 75, 89
2, 112787, Note_on_c, 0, 73, 0
2, 112793, Note_on_c, 0, 59, 69
2, 112841, Note_on_c, 0, 75, 0
2, 112899, Note_on_c, 0, 76, 83
2, 112907, Note_on_c, 0, 56, 77
2, 112910, Note_on_c, 0, 59, 0
2, 112968, Note_on_c, 0, 56, 0
2, 112982, Note_on_c, 0, 76, 0
2, 113001, Note_on_c, 0, 75, 83
2, 113058, Note_on_c, 0, 75, 0
2, 113075, Note_on_c, 0, 51, 0
2, 113101, Note_on_c, 0, 59, 79
2, 113103, Note_on_c, 0, 76, 84
2, 113157, Note_on_c, 0, 59, 0
2, 113194, Note_on_c, 0, 76, 0
2, 113202, Note_on_c, 0, 78, 84
2, 113309, Note_on_c, 0, 52, 69
2, 113310, Note_on_c, 0, 49, 69
2, 113310, Note_on_c, 0, 80, 87
2, 113352, Note_on_c, 0, 78, 0
2, 113388, Note_on_c, 0, 52, 0
2, 113414, Note_on_c, 0, 81, 81
2, 113429, Note_on_c, 0, 80, 0
2, 113503, Note_on_c, 0, 49, 0
2, 113515, Note_on_c, 0, 56, 80
2, 113524, Note_on_c, 0, 83, 85
2, 113562, Note_on_c, 0, 81, 0
2, 113630, Note_on_c, 0, 80, 87
2, 113632, Note_on_c, 0, 83, 0
2, 113745, Note_on_c, 0, 42, 72
2, 113758, Note_on_c, 0, 81, 89
2, 113762, Note_on_c, 0, 56, 0
2, 113769, Note_on_c, 0, 80, 0
2, 113877, Note_on_c, 0, 80, 85
2, 113880, Note_on_c, 0, 81, 0
2, 113936, Note_on_c, 0, 42, 0
2, 113974, Note_on_c, 0, 54, 81
2, 113982, Note_on_c, 0, 81, 91
2, 114007, Note_on_c, 0, 80, 0
2, 114063, Note_on_c, 0, 49, 74
2, 114078, Note_on_c, 0, 83, 89
2, 114085, Note_on_c, 0, 81, 0
2, 114143, Note_on_c, 0, 49, 0
2, 114163, Note_on_c, 0, 51, 76
2, 114182, Note_on_c, 0, 81, 92
2, 114198, Note_on_c, 0, 51, 0
2, 114199, Note_on_c, 0, 83, 0
2, 114260, Note_on_c, 0, 81, 0
2, 114280, Note_on_c, 0, 80, 82
2, 114382, Note_on_c, 0, 47, 62
2, 114386, Note_on_c, 0, 81, 84
2, 114407, Note_on_c, 0, 80, 0
2, 114433, Note_on_c, 0, 47, 0
2, 114475, Note_on_c, 0, 81, 0
2, 114484, Note_on_c, 0, 83, 86
2, 114588, Note_on_c, 0, 52, 71
2, 114593, Note_on_c, 0, 80, 86
2, 114599, Note_on_c, 0, 83, 0
2, 114630, Note_on_c, 0, 52, 0
2, 114682, Note_on_c, 0, 80, 0
2, 114689, Note_on_c, 0, 78, 78
2, 114799, Note_on_c, 0, 47, 59
2, 114799, Note_on_c, 0, 80, 75
2, 114848, Note_on_c, 0, 47, 0
2, 114906, Note_on_c, 0, 78, 0
2, 114909, Note_on_c, 0, 81, 72
2, 114910, Note_on_c, 0, 80, 0
2, 115009, Note_on_c, 0, 54, 0
2, 115010, Note_on_c, 0, 49, 67
2, 115012, Note_on_c, 0, 52, 69
2, 115021, Note_on_c, 0, 80, 84
2, 115046, Note_on_c, 0, 81, 0
2, 115063, Note_on_c, 0, 49, 0
2, 115118, Note_on_c, 0, 78, 69
2, 115149, Note_on_c, 0, 80, 0
2, 115188, Note_on_c, 0, 78, 0
2, 115220, Note_on_c, 0, 44, 72
2, 115225, Note_on_c, 0, 76, 73
2, 115297, Note_on_c, 0, 76, 0
2, 115302, Note_on_c, 0, 44, 0
2, 115322, Note_on_c, 0, 75, 70
2, 115433, Note_on_c, 0, 73, 85
2, 115442, Note_on_c, 0, 45, 71
2, 115509, Note_on_c, 0, 75, 0
2, 115533, Note_on_c, 0, 52, 0
2, 115540, Note_on_c, 0, 71, 76
2, 115540, Note_on_c, 0, 73, 0
2, 115581, Note_on_c, 0, 45, 0
2, 115649, Note_on_c, 0, 73, 80
2, 115655, Note_on_c, 0, 64, 77
2, 115693, Note_on_c, 0, 64, 0
2, 115705, Note_on_c, 0, 71, 0
2, 115747, Note_on_c, 0, 74, 76
2, 115751, Note_on_c, 0, 40, 62
2, 115766, Note_on_c, 0, 73, 0
2, 115800, Note_on_c, 0, 40, 0
2, 115852, Note_on_c, 0, 42, 80
2, 115864, Note_on_c, 0, 69, 72
2, 115865, Note_on_c, 0, 73, 83
2, 115891, Note_on_c, 0, 74, 0
2, 115896, Note_on_c, 0, 42, 0
2, 115968, Note_on_c, 0, 73, 0
2, 115975, Note_on_c, 0, 71, 71
2, 116075, Note_on_c, 0, 37, 76
2, 116081, Note_on_c, 0, 73, 80
2, 116131, Note_on_c, 0, 71, 0
2, 116152, Note_on_c, 0, 37, 0
2, 116193, Note_on_c, 0, 74, 69
2, 116199, Note_on_c, 0, 73, 0
2, 116291, Note_on_c, 0, 39, 81
2, 116305, Note_on_c, 0, 74, 0
2, 116306, Note_on_c, 0, 71, 79
2, 116321, Note_on_c, 0, 69, 0
2, 116353, Note_on_c, 0, 39, 0
2, 116406, Note_on_c, 0, 71, 0
2, 116408, Note_on_c, 0, 73, 82
2, 116527, Note_on_c, 0, 59, 86
2, 116536, Note_on_c, 0, 75, 86
2, 116574, Note_on_c, 0, 73, 0
2, 116584, Note_on_c, 0, 59, 0
2, 116652, Note_on_c, 0, 75, 0
2, 116659, Note_on_c, 0, 71, 83
2, 116798, Note_on_c, 0, 61, 78
2, 116808, Note_on_c, 0, 76, 84
2, 116815, Note_on_c, 0, 71, 0
2, 116827, Note_on_c, 0, 68, 62
2, 116870, Note_on_c, 0, 68, 0
2, 116925, Note_on_c, 0, 64, 75
2, 117024, Note_on_c, 0, 66, 79
2, 117037, Note_on_c, 0, 64, 0
2, 117125, Note_on_c, 0, 68, 79
2, 117149, Note_on_c, 0, 66, 0
2, 117163, Note_on_c, 0, 61, 0
2, 117215, Note_on_c, 0, 68, 0
2, 117243, Note_on_c, 0, 69, 77
2, 117347, Note_on_c, 0, 54, 69
2, 117359, Note_on_c, 0, 71, 83
2, 117393, Note_on_c, 0, 69, 0
2, 117464, Note_on_c, 0, 54, 0
2, 117494, Note_on_c, 0, 56, 74
2, 117495, Note_on_c, 0, 73, 88
2, 117499, Note_on_c, 0, 76, 0
2, 117537, Note_on_c, 0, 71, 0
2, 117614, Note_on_c, 0, 56, 0
2, 117650, Note_on_c, 0, 57, 60
2, 117830, Note_on_c, 0, 57, 0
2, 117847, Note_on_c, 0, 59, 71
2, 117847, Note_on_c, 0, 75, 86
2, 117882, Note_on_c, 0, 73, 0
2, 117987, Note_on_c, 0, 59, 0
2, 118029, Note_on_c, 0, 73, 81
2, 118239, Note_on_c, 0, 47, 57
2, 118239, Note_on_c, 0, 71, 77
2, 118307, Note_on_c, 0, 73, 0
2, 118417, Note_on_c, 0, 47, 0
2, 118448, Note_on_c, 0, 71, 0
2, 118457, Note_on_c, 0, 69, 71
2, 118831, Note_on_c, 0, 40, 54
2, 118836, Note_on_c, 0, 76, 72
2, 118839, Note_on_c, 0, 68, 61
2, 118865, Note_on_c, 0, 75, 0
2, 118872, Note_on_c, 0, 69, 0
2, 120598, Note_on_c, 0, 76, 0
2, 120601, Note_on_c, 0, 68, 0
2, 120631, Note_on_c, 0, 40, 0
2, 120632, End_track
0, 0, End_of_file
