0, 0, Header, 1, 2, 384
1, 0, Start_track
1, 0, Tempo, 500000
1, 0, Time_signature, 4, 2, 24, 8
1, 1, End_track
2, 0, Start_track
2, 0, Title_t," ""7.6.13 Group 2"""
2, 0, Program_c, 0, 0
2, 0, Control_c, 0, 64, 0
2, 0, Control_c, 0, 66, 0
2, 0, Control_c, 0, 67, 0
2, 773, Note_on_c, 0, 64, 49
2, 777, Note_on_c, 0, 52, 38
2, 1080, Note_on_c, 0, 68, 63
2, 1240, Note_on_c, 0, 64, 0
2, 1293, Note_on_c, 0, 71, 69
2, 1529, Note_on_c, 0, 56, 52
2, 1542, Note_on_c, 0, 76, 63
2, 1567, Note_on_c, 0, 71, 0
2, 1585, Note_on_c, 0, 68, 0
2, 1772, Note_on_c, 0, 75, 65
2, 1800, Note_on_c, 0, 76, 0
2, 1985, Note_on_c, 0, 76, 68
2, 2028, Note_on_c, 0, 75, 0
2, 2222, Note_on_c, 0, 57, 45
2, 2225, Note_on_c, 0, 75, 59
2, 2230, Note_on_c, 0, 76, 0
2, 2264, Note_on_c, 0, 75, 0
2, 2272, Note_on_c, 0, 73, 61
2, 2306, Note_on_c, 0, 73, 0
2, 2315, Note_on_c, 0, 56, 0
2, 2343, Note_on_c, 0, 75, 62
2, 2374, Note_on_c, 0, 73, 73
2, 2409, Note_on_c, 0, 75, 0
2, 2455, Note_on_c, 0, 71, 70
2, 2466, Note_on_c, 0, 73, 0
2, 2662, Note_on_c, 0, 73, 70
2, 2766, Note_on_c, 0, 71, 0
2, 2885, Note_on_c, 0, 76, 64
2, 2909, Note_on_c, 0, 73, 0
2, 3107, Note_on_c, 0, 56, 48
2, 3156, Note_on_c, 0, 57, 0
2, 3307, Note_on_c, 0, 54, 51
2, 3331, Note_on_c, 0, 56, 0
2, 3521, Note_on_c, 0, 73, 62
2, 3521, Note_on_c, 0, 76, 0
2, 3522, Note_on_c, 0, 56, 45
2, 3523, Note_on_c, 0, 54, 0
2, 3555, Note_on_c, 0, 73, 0
2, 3566, Note_on_c, 0, 71, 61
2, 3600, Note_on_c, 0, 71, 0
2, 3627, Note_on_c, 0, 73, 69
2, 3673, Note_on_c, 0, 71, 69
2, 3676, Note_on_c, 0, 73, 0
2, 3716, Note_on_c, 0, 71, 0
2, 3733, Note_on_c, 0, 69, 60
2, 3933, Note_on_c, 0, 71, 66
2, 3949, Note_on_c, 0, 69, 0
2, 4170, Note_on_c, 0, 76, 60
2, 4236, Note_on_c, 0, 71, 0
2, 4377, Note_on_c, 0, 57, 43
2, 4383, Note_on_c, 0, 56, 0
2, 4609, Note_on_c, 0, 56, 47
2, 4649, Note_on_c, 0, 57, 0
2, 4848, Note_on_c, 0, 54, 47
2, 4848, Note_on_c, 0, 69, 51
2, 4940, Note_on_c, 0, 56, 0
2, 5082, Note_on_c, 0, 71, 63
2, 5146, Note_on_c, 0, 76, 0
2, 5177, Note_on_c, 0, 69, 0
2, 5245, Note_on_c, 0, 52, 0
2, 5303, Note_on_c, 0, 73, 71
2, 5377, Note_on_c, 0, 71, 0
2, 5526, Note_on_c, 0, 71, 63
2, 5530, Note_on_c, 0, 51, 50
2, 5572, Note_on_c, 0, 73, 0
2, 5752, Note_on_c, 0, 73, 72
2, 5810, Note_on_c, 0, 71, 0
2, 5957, Note_on_c, 0, 69, 65
2, 5973, Note_on_c, 0, 73, 0
2, 6179, Note_on_c, 0, 68, 56
2, 6183, Note_on_c, 0, 52, 44
2, 6205, Note_on_c, 0, 69, 0
2, 6236, Note_on_c, 0, 51, 0
2, 6251, Note_on_c, 0, 54, 0
2, 6411, Note_on_c, 0, 71, 66
2, 6415, Note_on_c, 0, 56, 64
2, 6419, Note_on_c, 0, 68, 0
2, 6603, Note_on_c, 0, 52, 0
2, 6618, Note_on_c, 0, 59, 66
2, 6629, Note_on_c, 0, 76, 70
2, 6673, Note_on_c, 0, 71, 0
2, 6716, Note_on_c, 0, 56, 0
2, 6849, Note_on_c, 0, 59, 0
2, 6851, Note_on_c, 0, 64, 71
2, 6858, Note_on_c, 0, 80, 75
2, 6948, Note_on_c, 0, 76, 0
2, 7061, Note_on_c, 0, 63, 67
2, 7089, Note_on_c, 0, 64, 0
2, 7263, Note_on_c, 0, 64, 72
2, 7282, Note_on_c, 0, 63, 0
2, 7505, Note_on_c, 0, 58, 67
2, 7565, Note_on_c, 0, 64, 0
2, 7732, Note_on_c, 0, 78, 71
2, 7940, Note_on_c, 0, 61, 63
2, 7947, Note_on_c, 0, 76, 64
2, 7989, Note_on_c, 0, 78, 0
2, 8030, Note_on_c, 0, 61, 0
2, 8038, Note_on_c, 0, 80, 0
2, 8193, Note_on_c, 0, 66, 58
2, 8204, Note_on_c, 0, 75, 62
2, 8209, Note_on_c, 0, 76, 0
2, 8296, Control_c, 0, 64, 33
2, 8311, Control_c, 0, 64, 49
2, 8327, Control_c, 0, 64, 60
2, 8342, Control_c, 0, 64, 64
2, 8365, Control_c, 0, 64, 67
2, 8380, Control_c, 0, 64, 71
2, 8394, Control_c, 0, 64, 77
2, 8410, Control_c, 0, 64, 84
2, 8424, Note_on_c, 0, 76, 64
2, 8425, Control_c, 0, 64, 94
2, 8439, Control_c, 0, 64, 127
2, 8456, Note_on_c, 0, 75, 0
2, 8508, Note_on_c, 0, 58, 0
2, 8564, Note_on_c, 0, 66, 0
2, 8631, Note_on_c, 0, 73, 65
2, 8678, Note_on_c, 0, 76, 0
2, 8728, Note_on_c, 0, 73, 0
2, 8859, Note_on_c, 0, 47, 38
2, 8860, Note_on_c, 0, 73, 57
2, 8987, Note_on_c, 0, 75, 62
2, 9013, Note_on_c, 0, 73, 0
2, 9018, Control_c, 0, 64, 118
2, 9062, Note_on_c, 0, 75, 0
2, 9094, Note_on_c, 0, 76, 56
2, 9107, Note_on_c, 0, 51, 49
2, 9136, Note_on_c, 0, 76, 0
2, 9155, Note_on_c, 0, 75, 56
2, 9190, Note_on_c, 0, 75, 0
2, 9216, Note_on_c, 0, 76, 64
2, 9250, Note_on_c, 0, 76, 0
2, 9271, Note_on_c, 0, 75, 68
2, 9293, Note_on_c, 0, 75, 0
2, 9311, Note_on_c, 0, 54, 55
2, 9324, Note_on_c, 0, 76, 68
2, 9355, Note_on_c, 0, 76, 0
2, 9372, Note_on_c, 0, 75, 66
2, 9417, Note_on_c, 0, 47, 0
2, 9439, Note_on_c, 0, 75, 0
2, 9456, Note_on_c, 0, 75, 42
2, 9491, Note_on_c, 0, 75, 0
2, 9492, Note_on_c, 0, 76, 45
2, 9528, Note_on_c, 0, 51, 0
2, 9548, Note_on_c, 0, 59, 59
2, 9550, Note_on_c, 0, 75, 54
2, 9552, Note_on_c, 0, 54, 0
2, 9558, Control_c, 0, 64, 115
2, 9568, Note_on_c, 0, 76, 0
2, 9574, Control_c, 0, 64, 111
2, 9588, Control_c, 0, 64, 106
2, 9604, Control_c, 0, 64, 100
2, 9619, Control_c, 0, 64, 94
2, 9634, Control_c, 0, 64, 86
2, 9650, Control_c, 0, 64, 79
2, 9664, Control_c, 0, 64, 73
2, 9679, Control_c, 0, 64, 67
2, 9695, Control_c, 0, 64, 59
2, 9709, Control_c, 0, 64, 42
2, 9725, Control_c, 0, 64, 0
2, 9750, Note_on_c, 0, 58, 58
2, 9757, Note_on_c, 0, 59, 0
2, 9976, Note_on_c, 0, 59, 59
2, 9991, Note_on_c, 0, 58, 0
2, 10209, Note_on_c, 0, 52, 56
2, 10313, Note_on_c, 0, 59, 0
2, 10427, Note_on_c, 0, 76, 68
2, 10632, Note_on_c, 0, 78, 75
2, 10643, Note_on_c, 0, 59, 52
2, 10696, Note_on_c, 0, 75, 0
2, 10696, Note_on_c, 0, 76, 0
2, 10736, Note_on_c, 0, 59, 0
2, 10891, Note_on_c, 0, 64, 58
2, 10908, Note_on_c, 0, 80, 69
2, 11121, Note_on_c, 0, 73, 65
2, 11145, Note_on_c, 0, 78, 0
2, 11159, Note_on_c, 0, 80, 0
2, 11331, Note_on_c, 0, 76, 65
2, 11392, Note_on_c, 0, 73, 0
2, 11558, Note_on_c, 0, 54, 48
2, 11562, Note_on_c, 0, 66, 56
2, 11580, Note_on_c, 0, 76, 0
2, 11619, Note_on_c, 0, 52, 0
2, 11785, Note_on_c, 0, 70, 65
2, 11843, Note_on_c, 0, 64, 0
2, 11995, Note_on_c, 0, 73, 73
2, 12239, Note_on_c, 0, 63, 54
2, 12241, Note_on_c, 0, 78, 69
2, 12330, Note_on_c, 0, 66, 0
2, 12454, Note_on_c, 0, 76, 67
2, 12483, Note_on_c, 0, 70, 0
2, 12497, Note_on_c, 0, 78, 0
2, 12499, Note_on_c, 0, 73, 0
2, 12677, Note_on_c, 0, 78, 74
2, 12722, Note_on_c, 0, 76, 0
2, 12903, Note_on_c, 0, 68, 63
2, 13117, Note_on_c, 0, 78, 0
2, 13121, Note_on_c, 0, 71, 68
2, 13151, Note_on_c, 0, 68, 0
2, 13329, Note_on_c, 0, 75, 66
2, 13569, Note_on_c, 0, 76, 61
2, 13597, Note_on_c, 0, 75, 0
2, 13602, Note_on_c, 0, 71, 0
2, 13766, Note_on_c, 0, 63, 0
2, 13781, Note_on_c, 0, 61, 51
2, 13994, Note_on_c, 0, 59, 55
2, 14002, Note_on_c, 0, 61, 0
2, 14226, Note_on_c, 0, 66, 51
2, 14228, Note_on_c, 0, 58, 48
2, 14230, Note_on_c, 0, 59, 0
2, 14454, Note_on_c, 0, 70, 62
2, 14687, Note_on_c, 0, 73, 73
2, 14753, Note_on_c, 0, 76, 0
2, 14783, Note_on_c, 0, 66, 0
2, 14931, Note_on_c, 0, 76, 66
2, 14954, Note_on_c, 0, 73, 0
2, 15142, Note_on_c, 0, 75, 65
2, 15175, Note_on_c, 0, 70, 0
2, 15185, Note_on_c, 0, 76, 0
2, 15352, Control_c, 0, 64, 12
2, 15365, Note_on_c, 0, 49, 43
2, 15368, Control_c, 0, 64, 43
2, 15383, Control_c, 0, 64, 53
2, 15389, Note_on_c, 0, 76, 57
2, 15398, Control_c, 0, 64, 59
2, 15406, Note_on_c, 0, 75, 0
2, 15414, Control_c, 0, 64, 64
2, 15428, Control_c, 0, 64, 68
2, 15444, Control_c, 0, 64, 73
2, 15459, Control_c, 0, 64, 80
2, 15474, Control_c, 0, 64, 87
2, 15490, Control_c, 0, 64, 96
2, 15504, Control_c, 0, 64, 108
2, 15519, Control_c, 0, 64, 127
2, 15588, Note_on_c, 0, 49, 0
2, 15636, Note_on_c, 0, 50, 49
2, 15652, Note_on_c, 0, 66, 55
2, 15726, Note_on_c, 0, 54, 0
2, 15762, Control_c, 0, 64, 113
2, 15777, Control_c, 0, 64, 96
2, 15792, Control_c, 0, 64, 86
2, 15808, Control_c, 0, 64, 78
2, 15823, Control_c, 0, 64, 71
2, 15837, Control_c, 0, 64, 65
2, 15853, Control_c, 0, 64, 57
2, 15868, Control_c, 0, 64, 34
2, 15878, Note_on_c, 0, 70, 58
2, 15883, Control_c, 0, 64, 0
2, 16001, Note_on_c, 0, 66, 0
2, 16109, Note_on_c, 0, 73, 65
2, 16378, Note_on_c, 0, 59, 40
2, 16379, Note_on_c, 0, 74, 57
2, 16389, Note_on_c, 0, 73, 0
2, 16421, Note_on_c, 0, 58, 0
2, 16503, Note_on_c, 0, 70, 0
2, 16604, Note_on_c, 0, 52, 43
2, 16649, Note_on_c, 0, 76, 0
2, 16813, Note_on_c, 0, 54, 59
2, 16815, Note_on_c, 0, 50, 0
2, 16833, Note_on_c, 0, 52, 0
2, 17071, Note_on_c, 0, 55, 56
2, 17093, Note_on_c, 0, 54, 0
2, 17288, Note_on_c, 0, 61, 54
2, 17307, Note_on_c, 0, 76, 62
2, 17309, Note_on_c, 0, 59, 0
2, 17323, Note_on_c, 0, 74, 0
2, 17522, Note_on_c, 0, 62, 58
2, 17534, Note_on_c, 0, 74, 63
2, 17536, Note_on_c, 0, 61, 0
2, 17660, Note_on_c, 0, 76, 0
2, 17771, Note_on_c, 0, 62, 0
2, 17777, Note_on_c, 0, 73, 69
2, 17780, Note_on_c, 0, 64, 58
2, 17798, Note_on_c, 0, 74, 0
2, 18009, Note_on_c, 0, 74, 64
2, 18036, Note_on_c, 0, 73, 0
2, 18096, Control_c, 0, 64, 29
2, 18112, Control_c, 0, 64, 41
2, 18128, Control_c, 0, 64, 47
2, 18143, Control_c, 0, 64, 52
2, 18157, Control_c, 0, 64, 57
2, 18173, Control_c, 0, 64, 60
2, 18188, Control_c, 0, 64, 62
2, 18192, Note_on_c, 0, 74, 0
2, 18204, Control_c, 0, 64, 64
2, 18216, Note_on_c, 0, 71, 63
2, 18219, Control_c, 0, 64, 65
2, 18234, Control_c, 0, 64, 67
2, 18250, Control_c, 0, 64, 69
2, 18265, Control_c, 0, 64, 71
2, 18281, Control_c, 0, 64, 73
2, 18295, Control_c, 0, 64, 74
2, 18310, Control_c, 0, 64, 75
2, 18348, Control_c, 0, 64, 75
2, 18368, Note_on_c, 0, 71, 0
2, 18415, Note_on_c, 0, 70, 58
2, 18447, Note_on_c, 0, 71, 61
2, 18450, Note_on_c, 0, 54, 48
2, 18450, Note_on_c, 0, 70, 0
2, 18498, Note_on_c, 0, 55, 0
2, 18515, Control_c, 0, 64, 75
2, 18529, Note_on_c, 0, 71, 0
2, 18531, Control_c, 0, 64, 74
2, 18547, Control_c, 0, 64, 72
2, 18563, Control_c, 0, 64, 69
2, 18578, Control_c, 0, 64, 66
2, 18593, Control_c, 0, 64, 63
2, 18608, Control_c, 0, 64, 60
2, 18623, Control_c, 0, 64, 56
2, 18638, Control_c, 0, 64, 52
2, 18653, Control_c, 0, 64, 49
2, 18668, Control_c, 0, 64, 46
2, 18684, Control_c, 0, 64, 44
2, 18699, Control_c, 0, 64, 41
2, 18714, Control_c, 0, 64, 35
2, 18717, Note_on_c, 0, 68, 51
2, 18729, Control_c, 0, 64, 24
2, 18744, Control_c, 0, 64, 0
2, 18881, Control_c, 0, 64, 38
2, 18896, Control_c, 0, 64, 49
2, 18911, Control_c, 0, 64, 55
2, 18927, Control_c, 0, 64, 59
2, 18932, Note_on_c, 0, 68, 0
2, 18942, Control_c, 0, 64, 62
2, 18944, Note_on_c, 0, 66, 56
2, 18956, Control_c, 0, 64, 64
2, 18972, Control_c, 0, 64, 68
2, 18987, Control_c, 0, 64, 73
2, 19003, Control_c, 0, 64, 81
2, 19018, Control_c, 0, 64, 91
2, 19033, Control_c, 0, 64, 104
2, 19049, Control_c, 0, 64, 127
2, 19229, Note_on_c, 0, 79, 59
2, 19308, Note_on_c, 0, 64, 0
2, 19375, Note_on_c, 0, 66, 0
2, 19481, Note_on_c, 0, 78, 71
2, 19490, Note_on_c, 0, 56, 50
2, 19499, Note_on_c, 0, 63, 46
2, 19678, Control_c, 0, 64, 112
2, 19694, Control_c, 0, 64, 103
2, 19699, Note_on_c, 0, 54, 0
2, 19706, Note_on_c, 0, 63, 0
2, 19709, Control_c, 0, 64, 97
2, 19713, Note_on_c, 0, 58, 46
2, 19718, Note_on_c, 0, 61, 50
2, 19718, Note_on_c, 0, 77, 76
2, 19725, Control_c, 0, 64, 92
2, 19736, Note_on_c, 0, 56, 0
2, 19740, Control_c, 0, 64, 88
2, 19751, Note_on_c, 0, 79, 0
2, 19755, Control_c, 0, 64, 85
2, 19770, Control_c, 0, 64, 82
2, 19785, Control_c, 0, 64, 79
2, 19801, Control_c, 0, 64, 77
2, 19816, Control_c, 0, 64, 74
2, 19831, Control_c, 0, 64, 71
2, 19834, Note_on_c, 0, 78, 0
2, 19846, Control_c, 0, 64, 69
2, 19861, Control_c, 0, 64, 66
2, 19884, Control_c, 0, 64, 63
2, 19899, Control_c, 0, 64, 60
2, 19914, Control_c, 0, 64, 55
2, 19929, Control_c, 0, 64, 50
2, 19944, Control_c, 0, 64, 46
2, 19954, Note_on_c, 0, 58, 0
2, 19959, Control_c, 0, 64, 44
2, 19975, Control_c, 0, 64, 43
2, 19975, Note_on_c, 0, 61, 0
2, 19978, Note_on_c, 0, 59, 51
2, 19978, Note_on_c, 0, 76, 73
2, 19990, Control_c, 0, 64, 41
2, 20006, Control_c, 0, 64, 38
2, 20021, Control_c, 0, 64, 33
2, 20036, Control_c, 0, 64, 28
2, 20052, Control_c, 0, 64, 21
2, 20053, Note_on_c, 0, 77, 0
2, 20066, Control_c, 0, 64, 0
2, 20220, Note_on_c, 0, 75, 73
2, 20253, Note_on_c, 0, 76, 0
2, 20423, Note_on_c, 0, 53, 33
2, 20428, Note_on_c, 0, 74, 63
2, 20449, Note_on_c, 0, 75, 0
2, 20598, Control_c, 0, 64, 12
2, 20614, Control_c, 0, 64, 24
2, 20629, Control_c, 0, 64, 30
2, 20652, Control_c, 0, 64, 35
2, 20667, Control_c, 0, 64, 37
2, 20672, Note_on_c, 0, 54, 41
2, 20678, Note_on_c, 0, 73, 50
2, 20683, Control_c, 0, 64, 39
2, 20698, Control_c, 0, 64, 41
2, 20699, Note_on_c, 0, 74, 0
2, 20703, Note_on_c, 0, 59, 0
2, 20712, Control_c, 0, 64, 44
2, 20728, Control_c, 0, 64, 45
2, 20743, Control_c, 0, 64, 47
2, 20757, Control_c, 0, 64, 48
2, 20772, Note_on_c, 0, 53, 0
2, 20773, Control_c, 0, 64, 48
2, 20784, Note_on_c, 0, 75, 65
2, 20865, Control_c, 0, 64, 46
2, 20865, Note_on_c, 0, 73, 0
2, 20879, Control_c, 0, 64, 43
2, 20894, Note_on_c, 0, 58, 42
2, 20895, Control_c, 0, 64, 36
2, 20906, Note_on_c, 0, 76, 60
2, 20910, Control_c, 0, 64, 12
2, 20925, Note_on_c, 0, 75, 0
2, 20926, Control_c, 0, 64, 0
2, 21078, Control_c, 0, 64, 47
2, 21094, Control_c, 0, 64, 57
2, 21109, Control_c, 0, 64, 63
2, 21125, Control_c, 0, 64, 67
2, 21139, Control_c, 0, 64, 75
2, 21145, Note_on_c, 0, 76, 0
2, 21154, Control_c, 0, 64, 91
2, 21156, Note_on_c, 0, 64, 41
2, 21157, Note_on_c, 0, 70, 55
2, 21170, Control_c, 0, 64, 127
2, 21186, Note_on_c, 0, 58, 0
2, 21189, Note_on_c, 0, 54, 0
2, 21255, Note_on_c, 0, 64, 0
2, 21483, Note_on_c, 0, 47, 41
2, 21494, Note_on_c, 0, 63, 39
2, 21501, Note_on_c, 0, 71, 55
2, 21579, Note_on_c, 0, 70, 0
2, 21602, Control_c, 0, 64, 102
2, 21617, Control_c, 0, 64, 86
2, 21632, Control_c, 0, 64, 75
2, 21648, Control_c, 0, 64, 66
2, 21663, Control_c, 0, 64, 58
2, 21677, Control_c, 0, 64, 21
2, 21693, Control_c, 0, 64, 0
2, 21771, Note_on_c, 0, 51, 46
2, 21936, Note_on_c, 0, 47, 0
2, 21990, Note_on_c, 0, 54, 60
2, 22069, Note_on_c, 0, 51, 0
2, 22156, Note_on_c, 0, 63, 0
2, 22235, Note_on_c, 0, 59, 62
2, 22241, Note_on_c, 0, 54, 0
2, 22453, Note_on_c, 0, 57, 59
2, 22467, Note_on_c, 0, 59, 0
2, 22677, Note_on_c, 0, 59, 63
2, 22683, Note_on_c, 0, 57, 0
2, 22928, Note_on_c, 0, 56, 58
2, 22974, Note_on_c, 0, 59, 0
2, 23169, Note_on_c, 0, 75, 68
2, 23390, Note_on_c, 0, 78, 69
2, 23427, Note_on_c, 0, 71, 0
2, 23613, Note_on_c, 0, 83, 72
2, 23805, Note_on_c, 0, 78, 0
2, 23846, Note_on_c, 0, 54, 46
2, 23855, Note_on_c, 0, 81, 70
2, 23885, Note_on_c, 0, 56, 0
2, 23917, Note_on_c, 0, 83, 0
2, 23950, Note_on_c, 0, 75, 0
2, 24081, Note_on_c, 0, 83, 72
2, 24087, Note_on_c, 0, 56, 50
2, 24133, Note_on_c, 0, 54, 0
2, 24140, Note_on_c, 0, 81, 0
2, 24332, Note_on_c, 0, 73, 68
2, 24335, Note_on_c, 0, 53, 46
2, 24336, Note_on_c, 0, 56, 0
2, 24577, Note_on_c, 0, 56, 54
2, 24579, Note_on_c, 0, 77, 75
2, 24620, Note_on_c, 0, 73, 0
2, 24741, Note_on_c, 0, 83, 0
2, 24808, Note_on_c, 0, 59, 51
2, 24809, Note_on_c, 0, 80, 71
2, 24869, Note_on_c, 0, 56, 0
2, 25030, Note_on_c, 0, 59, 0
2, 25050, Note_on_c, 0, 62, 52
2, 25053, Note_on_c, 0, 83, 73
2, 25108, Note_on_c, 0, 80, 0
2, 25182, Note_on_c, 0, 77, 0
2, 25270, Note_on_c, 0, 62, 0
2, 25291, Note_on_c, 0, 59, 49
2, 25508, Note_on_c, 0, 59, 0
2, 25509, Note_on_c, 0, 61, 53
2, 25743, Note_on_c, 0, 54, 50
2, 25799, Note_on_c, 0, 53, 0
2, 25969, Note_on_c, 0, 80, 54
2, 26076, Note_on_c, 0, 83, 0
2, 26086, Note_on_c, 0, 80, 0
2, 26196, Note_on_c, 0, 81, 58
2, 26420, Note_on_c, 0, 59, 55
2, 26431, Note_on_c, 0, 50, 49
2, 26451, Note_on_c, 0, 61, 0
2, 26467, Note_on_c, 0, 54, 0
2, 26646, Note_on_c, 0, 78, 68
2, 26670, Note_on_c, 0, 81, 0
2, 26753, Note_on_c, 0, 78, 0
2, 26874, Note_on_c, 0, 80, 71
2, 27096, Note_on_c, 0, 51, 62
2, 27103, Note_on_c, 0, 60, 62
2, 27116, Note_on_c, 0, 50, 0
2, 27221, Note_on_c, 0, 59, 0
2, 27318, Note_on_c, 0, 77, 73
2, 27387, Note_on_c, 0, 80, 0
2, 27430, Note_on_c, 0, 77, 0
2, 27545, Note_on_c, 0, 78, 78
2, 27637, Note_on_c, 0, 60, 0
2, 27762, Control_c, 0, 64, 8
2, 27784, Note_on_c, 0, 78, 0
2, 27785, Note_on_c, 0, 61, 54
2, 27789, Note_on_c, 0, 49, 48
2, 27789, Note_on_c, 0, 77, 66
2, 27857, Note_on_c, 0, 51, 0
2, 27867, Control_c, 0, 64, 0
2, 27884, Note_on_c, 0, 78, 75
2, 27886, Note_on_c, 0, 77, 0
2, 27998, Note_on_c, 0, 80, 70
2, 28024, Note_on_c, 0, 78, 0
2, 28050, Control_c, 0, 64, 19
2, 28065, Control_c, 0, 64, 43
2, 28081, Control_c, 0, 64, 53
2, 28096, Control_c, 0, 64, 60
2, 28111, Control_c, 0, 64, 63
2, 28127, Control_c, 0, 64, 67
2, 28141, Control_c, 0, 64, 73
2, 28156, Control_c, 0, 64, 84
2, 28172, Control_c, 0, 64, 105
2, 28187, Control_c, 0, 64, 127
2, 28231, Note_on_c, 0, 73, 72
2, 28260, Note_on_c, 0, 80, 0
2, 28307, Note_on_c, 0, 61, 0
2, 28525, Note_on_c, 0, 47, 42
2, 28527, Note_on_c, 0, 74, 63
2, 28590, Note_on_c, 0, 73, 0
2, 28598, Note_on_c, 0, 49, 0
2, 28636, Control_c, 0, 64, 112
2, 28652, Control_c, 0, 64, 94
2, 28667, Control_c, 0, 64, 84
2, 28683, Control_c, 0, 64, 76
2, 28698, Control_c, 0, 64, 70
2, 28712, Control_c, 0, 64, 65
2, 28728, Control_c, 0, 64, 58
2, 28743, Control_c, 0, 64, 44
2, 28758, Control_c, 0, 64, 18
2, 28774, Control_c, 0, 64, 0
2, 28787, Note_on_c, 0, 71, 53
2, 28806, Note_on_c, 0, 50, 49
2, 29004, Note_on_c, 0, 53, 54
2, 29004, Note_on_c, 0, 68, 61
2, 29052, Note_on_c, 0, 71, 0
2, 29243, Note_on_c, 0, 56, 61
2, 29256, Note_on_c, 0, 65, 60
2, 29279, Note_on_c, 0, 68, 0
2, 29402, Note_on_c, 0, 53, 0
2, 29479, Note_on_c, 0, 59, 62
2, 29484, Note_on_c, 0, 56, 0
2, 29484, Note_on_c, 0, 65, 0
2, 29487, Note_on_c, 0, 68, 65
2, 29550, Note_on_c, 0, 50, 0
2, 29681, Note_on_c, 0, 59, 0
2, 29686, Note_on_c, 0, 66, 66
2, 29691, Note_on_c, 0, 68, 0
2, 29695, Note_on_c, 0, 57, 58
2, 29914, Note_on_c, 0, 68, 70
2, 29924, Note_on_c, 0, 57, 0
2, 29924, Note_on_c, 0, 59, 63
2, 29930, Note_on_c, 0, 47, 0
2, 29941, Note_on_c, 0, 66, 0
2, 30005, Control_c, 0, 64, 26
2, 30021, Control_c, 0, 64, 32
2, 30036, Control_c, 0, 64, 35
2, 30052, Control_c, 0, 64, 37
2, 30066, Control_c, 0, 64, 38
2, 30082, Control_c, 0, 64, 39
2, 30097, Control_c, 0, 64, 40
2, 30112, Control_c, 0, 64, 41
2, 30126, Note_on_c, 0, 59, 0
2, 30128, Control_c, 0, 64, 42
2, 30132, Note_on_c, 0, 56, 64
2, 30134, Note_on_c, 0, 71, 72
2, 30142, Control_c, 0, 64, 43
2, 30176, Note_on_c, 0, 68, 0
2, 30325, Note_on_c, 0, 56, 0
2, 30337, Note_on_c, 0, 54, 58
2, 30340, Note_on_c, 0, 69, 66
2, 30348, Note_on_c, 0, 71, 0
2, 30492, Note_on_c, 0, 74, 0
2, 30559, Note_on_c, 0, 56, 56
2, 30580, Note_on_c, 0, 71, 69
2, 30596, Note_on_c, 0, 54, 0
2, 30658, Note_on_c, 0, 56, 0
2, 30660, Note_on_c, 0, 69, 0
2, 30671, Note_on_c, 0, 57, 53
2, 30771, Control_c, 0, 64, 44
2, 30777, Note_on_c, 0, 57, 0
2, 30786, Control_c, 0, 64, 44
2, 30802, Control_c, 0, 64, 45
2, 30807, Note_on_c, 0, 59, 55
2, 30809, Note_on_c, 0, 74, 68
2, 30816, Control_c, 0, 64, 46
2, 30832, Control_c, 0, 64, 47
2, 30848, Control_c, 0, 64, 47
2, 30863, Control_c, 0, 64, 48
2, 30878, Control_c, 0, 64, 49
2, 30894, Control_c, 0, 64, 51
2, 30908, Control_c, 0, 64, 53
2, 30924, Control_c, 0, 64, 55
2, 30939, Control_c, 0, 64, 56
2, 30954, Control_c, 0, 64, 58
2, 30970, Control_c, 0, 64, 60
2, 30984, Control_c, 0, 64, 62
2, 30999, Control_c, 0, 64, 64
2, 31015, Control_c, 0, 64, 67
2, 31030, Control_c, 0, 64, 71
2, 31041, Note_on_c, 0, 73, 77
2, 31043, Note_on_c, 0, 53, 54
2, 31046, Control_c, 0, 64, 76
2, 31052, Note_on_c, 0, 59, 0
2, 31061, Control_c, 0, 64, 81
2, 31076, Control_c, 0, 64, 87
2, 31092, Control_c, 0, 64, 93
2, 31107, Control_c, 0, 64, 99
2, 31113, Note_on_c, 0, 74, 0
2, 31122, Control_c, 0, 64, 104
2, 31137, Control_c, 0, 64, 108
2, 31152, Control_c, 0, 64, 108
2, 31168, Control_c, 0, 64, 109
2, 31193, Note_on_c, 0, 73, 0
2, 31367, Control_c, 0, 64, 108
2, 31370, Note_on_c, 0, 54, 52
2, 31375, Note_on_c, 0, 73, 74
2, 31382, Control_c, 0, 64, 105
2, 31405, Control_c, 0, 64, 99
2, 31420, Control_c, 0, 64, 92
2, 31421, Note_on_c, 0, 53, 0
2, 31436, Control_c, 0, 64, 85
2, 31450, Control_c, 0, 64, 79
2, 31465, Control_c, 0, 64, 72
2, 31481, Control_c, 0, 64, 66
2, 31496, Control_c, 0, 64, 61
2, 31511, Control_c, 0, 64, 51
2, 31526, Control_c, 0, 64, 34
2, 31541, Control_c, 0, 64, 0
2, 31619, Note_on_c, 0, 71, 0
2, 31642, Note_on_c, 0, 69, 56
2, 31854, Note_on_c, 0, 68, 57
2, 31856, Note_on_c, 0, 69, 0
2, 32085, Note_on_c, 0, 45, 52
2, 32098, Note_on_c, 0, 66, 62
2, 32148, Note_on_c, 0, 68, 0
2, 32185, Note_on_c, 0, 54, 0
2, 32311, Note_on_c, 0, 71, 68
2, 32534, Note_on_c, 0, 69, 67
2, 32638, Note_on_c, 0, 73, 0
2, 32651, Note_on_c, 0, 71, 0
2, 32775, Note_on_c, 0, 68, 61
2, 32779, Note_on_c, 0, 47, 53
2, 32810, Note_on_c, 0, 69, 0
2, 32841, Note_on_c, 0, 45, 0
2, 32991, Note_on_c, 0, 69, 59
2, 33027, Note_on_c, 0, 68, 0
2, 33218, Note_on_c, 0, 71, 67
2, 33222, Note_on_c, 0, 69, 0
2, 33461, Note_on_c, 0, 65, 50
2, 33468, Note_on_c, 0, 49, 43
2, 33485, Note_on_c, 0, 66, 0
2, 33517, Note_on_c, 0, 47, 0
2, 33684, Note_on_c, 0, 69, 54
2, 33901, Note_on_c, 0, 69, 0
2, 33908, Note_on_c, 0, 68, 55
2, 34185, Note_on_c, 0, 66, 43
2, 34198, Note_on_c, 0, 42, 41
2, 34201, Note_on_c, 0, 69, 51
2, 34224, Note_on_c, 0, 68, 0
2, 34256, Note_on_c, 0, 49, 0
2, 34323, Note_on_c, 0, 65, 0
2, 34452, Note_on_c, 0, 45, 52
2, 34509, Note_on_c, 0, 71, 0
2, 34687, Note_on_c, 0, 49, 62
2, 34717, Note_on_c, 0, 45, 0
2, 34723, Note_on_c, 0, 42, 0
2, 34904, Note_on_c, 0, 49, 0
2, 34909, Note_on_c, 0, 54, 66
2, 35120, Note_on_c, 0, 54, 0
2, 35127, Note_on_c, 0, 71, 69
2, 35128, Note_on_c, 0, 52, 51
2, 35200, Note_on_c, 0, 69, 0
2, 35326, Note_on_c, 0, 52, 0
2, 35344, Note_on_c, 0, 64, 63
2, 35346, Note_on_c, 0, 68, 64
2, 35350, Note_on_c, 0, 54, 56
2, 35396, Note_on_c, 0, 66, 0
2, 35576, Note_on_c, 0, 47, 50
2, 35582, Note_on_c, 0, 63, 54
2, 35583, Note_on_c, 0, 69, 63
2, 35604, Note_on_c, 0, 54, 0
2, 35620, Note_on_c, 0, 68, 0
2, 35664, Note_on_c, 0, 64, 0
2, 35785, Note_on_c, 0, 71, 0
2, 35803, Note_on_c, 0, 51, 58
2, 35861, Note_on_c, 0, 47, 0
2, 36032, Note_on_c, 0, 54, 69
2, 36064, Note_on_c, 0, 51, 0
2, 36258, Note_on_c, 0, 54, 0
2, 36260, Note_on_c, 0, 59, 67
2, 36447, Note_on_c, 0, 69, 0
2, 36467, Note_on_c, 0, 59, 0
2, 36472, Note_on_c, 0, 71, 63
2, 36473, Note_on_c, 0, 57, 56
2, 36507, Note_on_c, 0, 63, 0
2, 36577, Note_on_c, 0, 69, 68
2, 36627, Note_on_c, 0, 71, 0
2, 36640, Note_on_c, 0, 57, 0
2, 36668, Note_on_c, 0, 59, 50
2, 36676, Note_on_c, 0, 68, 62
2, 36690, Note_on_c, 0, 69, 0
2, 36772, Note_on_c, 0, 68, 0
2, 36775, Note_on_c, 0, 66, 64
2, 36892, Note_on_c, 0, 66, 0
2, 36895, Note_on_c, 0, 52, 44
2, 36903, Note_on_c, 0, 68, 59
2, 37022, Note_on_c, 0, 66, 61
2, 37046, Note_on_c, 0, 68, 0
2, 37060, Note_on_c, 0, 59, 0
2, 37103, Note_on_c, 0, 66, 0
2, 37130, Note_on_c, 0, 56, 54
2, 37132, Note_on_c, 0, 64, 63
2, 37220, Note_on_c, 0, 64, 0
2, 37227, Note_on_c, 0, 66, 70
2, 37245, Note_on_c, 0, 52, 0
2, 37333, Note_on_c, 0, 68, 70
2, 37336, Note_on_c, 0, 59, 61
2, 37352, Note_on_c, 0, 66, 0
2, 37380, Note_on_c, 0, 56, 0
2, 37431, Note_on_c, 0, 68, 0
2, 37444, Note_on_c, 0, 69, 68
2, 37550, Note_on_c, 0, 69, 0
2, 37559, Note_on_c, 0, 71, 74
2, 37563, Note_on_c, 0, 59, 0
2, 37569, Note_on_c, 0, 64, 65
2, 37647, Note_on_c, 0, 71, 0
2, 37667, Note_on_c, 0, 69, 72
2, 37765, Note_on_c, 0, 69, 0
2, 37770, Note_on_c, 0, 68, 72
2, 37776, Note_on_c, 0, 62, 57
2, 37778, Note_on_c, 0, 64, 0
2, 37856, Note_on_c, 0, 68, 0
2, 37874, Note_on_c, 0, 69, 72
2, 37956, Note_on_c, 0, 62, 0
2, 37972, Note_on_c, 0, 61, 58
2, 37983, Note_on_c, 0, 69, 0
2, 37983, Note_on_c, 0, 71, 76
2, 38081, Note_on_c, 0, 73, 77
2, 38113, Note_on_c, 0, 71, 0
2, 38191, Note_on_c, 0, 61, 0
2, 38212, Note_on_c, 0, 59, 46
2, 38219, Note_on_c, 0, 74, 72
2, 38226, Note_on_c, 0, 73, 0
2, 38333, Note_on_c, 0, 73, 76
2, 38361, Note_on_c, 0, 74, 0
2, 38434, Note_on_c, 0, 71, 74
2, 38479, Note_on_c, 0, 73, 0
2, 38518, Note_on_c, 0, 71, 0
2, 38536, Note_on_c, 0, 69, 64
2, 38628, Note_on_c, 0, 69, 0
2, 38635, Note_on_c, 0, 59, 0
2, 38646, Note_on_c, 0, 68, 60
2, 38656, Note_on_c, 0, 57, 46
2, 38752, Note_on_c, 0, 57, 0
2, 38757, Note_on_c, 0, 66, 57
2, 38800, Note_on_c, 0, 68, 0
2, 38858, Note_on_c, 0, 66, 0
2, 38882, Note_on_c, 0, 64, 56
2, 38887, Note_on_c, 0, 56, 44
2, 38992, Note_on_c, 0, 56, 0
2, 39019, Note_on_c, 0, 62, 53
2, 39115, Note_on_c, 0, 62, 0
2, 39139, Note_on_c, 0, 61, 55
2, 39223, Note_on_c, 0, 61, 0
2, 39264, Note_on_c, 0, 59, 51
2, 39342, Note_on_c, 0, 64, 0
2, 39363, Note_on_c, 0, 59, 0
2, 39380, Note_on_c, 0, 57, 54
2, 39490, Note_on_c, 0, 57, 0
2, 39506, Note_on_c, 0, 56, 50
2, 39732, Note_on_c, 0, 57, 44
2, 39732, Note_on_c, 0, 69, 52
2, 39774, Note_on_c, 0, 56, 0
2, 39994, Note_on_c, 0, 73, 63
2, 40045, Note_on_c, 0, 69, 0
2, 40213, Note_on_c, 0, 76, 70
2, 40331, Note_on_c, 0, 73, 0
2, 40438, Note_on_c, 0, 61, 48
2, 40446, Note_on_c, 0, 81, 65
2, 40459, Note_on_c, 0, 76, 0
2, 40683, Note_on_c, 0, 80, 67
2, 40704, Note_on_c, 0, 81, 0
2, 40901, Note_on_c, 0, 81, 71
2, 40920, Note_on_c, 0, 80, 0
2, 41107, Note_on_c, 0, 62, 48
2, 41113, Note_on_c, 0, 61, 0
2, 41116, Note_on_c, 0, 80, 57
2, 41129, Note_on_c, 0, 81, 0
2, 41150, Note_on_c, 0, 80, 0
2, 41177, Note_on_c, 0, 78, 45
2, 41199, Note_on_c, 0, 78, 0
2, 41223, Note_on_c, 0, 80, 70
2, 41271, Note_on_c, 0, 78, 71
2, 41282, Note_on_c, 0, 80, 0
2, 41334, Note_on_c, 0, 76, 63
2, 41349, Note_on_c, 0, 78, 0
2, 41545, Note_on_c, 0, 78, 71
2, 41593, Note_on_c, 0, 76, 0
2, 41778, Note_on_c, 0, 81, 65
2, 41808, Note_on_c, 0, 78, 0
2, 41963, Note_on_c, 0, 62, 0
2, 41967, Note_on_c, 0, 61, 43
2, 42180, Note_on_c, 0, 61, 0
2, 42187, Note_on_c, 0, 59, 42
2, 42376, Note_on_c, 0, 59, 0
2, 42393, Note_on_c, 0, 61, 52
2, 42407, Note_on_c, 0, 81, 0
2, 42410, Note_on_c, 0, 78, 52
2, 42442, Note_on_c, 0, 78, 0
2, 42465, Note_on_c, 0, 76, 44
2, 42487, Note_on_c, 0, 76, 0
2, 42513, Note_on_c, 0, 78, 68
2, 42558, Note_on_c, 0, 78, 0
2, 42562, Note_on_c, 0, 76, 68
2, 42603, Note_on_c, 0, 76, 0
2, 42615, Note_on_c, 0, 74, 61
2, 42824, Note_on_c, 0, 76, 61
2, 42847, Note_on_c, 0, 74, 0
2, 43076, Note_on_c, 0, 81, 61
2, 43101, Note_on_c, 0, 76, 0
2, 43278, Note_on_c, 0, 62, 47
2, 43283, Note_on_c, 0, 61, 0
2, 43496, Note_on_c, 0, 62, 0
2, 43504, Note_on_c, 0, 61, 51
2, 43766, Note_on_c, 0, 74, 56
2, 43770, Note_on_c, 0, 59, 39
2, 43813, Note_on_c, 0, 61, 0
2, 43972, Note_on_c, 0, 76, 62
2, 44023, Note_on_c, 0, 74, 0
2, 44192, Control_c, 0, 64, 10
2, 44196, Note_on_c, 0, 78, 67
2, 44208, Control_c, 0, 64, 13
2, 44223, Control_c, 0, 64, 15
2, 44238, Control_c, 0, 64, 16
2, 44254, Control_c, 0, 64, 18
2, 44265, Note_on_c, 0, 76, 0
2, 44268, Control_c, 0, 64, 20
2, 44284, Control_c, 0, 64, 21
2, 44299, Control_c, 0, 64, 23
2, 44330, Control_c, 0, 64, 24
2, 44376, Control_c, 0, 64, 24
2, 44391, Control_c, 0, 64, 25
2, 44405, Note_on_c, 0, 56, 49
2, 44411, Note_on_c, 0, 76, 60
2, 44467, Note_on_c, 0, 78, 0
2, 44550, Control_c, 0, 64, 28
2, 44566, Control_c, 0, 64, 35
2, 44580, Control_c, 0, 64, 44
2, 44580, Note_on_c, 0, 57, 0
2, 44595, Control_c, 0, 64, 50
2, 44611, Control_c, 0, 64, 54
2, 44626, Control_c, 0, 64, 58
2, 44639, Note_on_c, 0, 78, 68
2, 44642, Control_c, 0, 64, 61
2, 44657, Control_c, 0, 64, 64
2, 44672, Control_c, 0, 64, 67
2, 44687, Control_c, 0, 64, 75
2, 44702, Control_c, 0, 64, 85
2, 44704, Note_on_c, 0, 76, 0
2, 44717, Control_c, 0, 64, 100
2, 44733, Control_c, 0, 64, 127
2, 44745, Note_on_c, 0, 81, 0
2, 44804, Note_on_c, 0, 56, 0
2, 44847, Note_on_c, 0, 74, 66
2, 44966, Note_on_c, 0, 78, 0
2, 45036, Note_on_c, 0, 59, 0
2, 45086, Note_on_c, 0, 73, 65
2, 45090, Note_on_c, 0, 45, 39
2, 45118, Note_on_c, 0, 74, 0
2, 45331, Note_on_c, 0, 49, 61
2, 45331, Note_on_c, 0, 69, 65
2, 45347, Control_c, 0, 64, 107
2, 45362, Control_c, 0, 64, 90
2, 45376, Note_on_c, 0, 73, 0
2, 45378, Control_c, 0, 64, 80
2, 45393, Control_c, 0, 64, 72
2, 45407, Control_c, 0, 64, 66
2, 45423, Control_c, 0, 64, 60
2, 45438, Control_c, 0, 64, 49
2, 45453, Control_c, 0, 64, 31
2, 45462, Note_on_c, 0, 45, 0
2, 45468, Control_c, 0, 64, 0
2, 45538, Note_on_c, 0, 71, 76
2, 45551, Note_on_c, 0, 52, 61
2, 45581, Note_on_c, 0, 69, 0
2, 45632, Note_on_c, 0, 49, 0
2, 45755, Note_on_c, 0, 52, 0
2, 45770, Note_on_c, 0, 73, 75
2, 45773, Note_on_c, 0, 57, 62
2, 45865, Note_on_c, 0, 71, 0
2, 45972, Note_on_c, 0, 56, 63
2, 45982, Note_on_c, 0, 57, 0
2, 46204, Note_on_c, 0, 57, 61
2, 46214, Note_on_c, 0, 56, 0
2, 46446, Note_on_c, 0, 51, 59
2, 46486, Note_on_c, 0, 57, 0
2, 46664, Note_on_c, 0, 71, 66
2, 46775, Note_on_c, 0, 73, 0
2, 46886, Note_on_c, 0, 54, 68
2, 46899, Control_c, 0, 64, 8
2, 46905, Note_on_c, 0, 69, 65
2, 46905, Note_on_c, 0, 71, 0
2, 46914, Control_c, 0, 64, 12
2, 46930, Control_c, 0, 64, 13
2, 46944, Control_c, 0, 64, 15
2, 46959, Control_c, 0, 64, 16
2, 46975, Note_on_c, 0, 54, 0
2, 46990, Control_c, 0, 64, 17
2, 47066, Control_c, 0, 64, 16
2, 47081, Control_c, 0, 64, 0
2, 47136, Note_on_c, 0, 59, 61
2, 47140, Note_on_c, 0, 68, 61
2, 47174, Note_on_c, 0, 69, 0
2, 47202, Control_c, 0, 64, 10
2, 47219, Control_c, 0, 64, 48
2, 47234, Control_c, 0, 64, 58
2, 47249, Control_c, 0, 64, 63
2, 47264, Control_c, 0, 64, 67
2, 47279, Control_c, 0, 64, 78
2, 47295, Control_c, 0, 64, 112
2, 47310, Control_c, 0, 64, 127
2, 47351, Note_on_c, 0, 69, 59
2, 47353, Note_on_c, 0, 68, 0
2, 47482, Note_on_c, 0, 59, 0
2, 47491, Note_on_c, 0, 51, 0
2, 47578, Note_on_c, 0, 66, 63
2, 47663, Note_on_c, 0, 69, 0
2, 47815, Note_on_c, 0, 40, 48
2, 47831, Note_on_c, 0, 68, 64
2, 47971, Control_c, 0, 64, 99
2, 47985, Control_c, 0, 64, 86
2, 48000, Control_c, 0, 64, 78
2, 48016, Control_c, 0, 64, 72
2, 48032, Control_c, 0, 64, 67
2, 48047, Control_c, 0, 64, 63
2, 48064, Control_c, 0, 64, 52
2, 48070, Note_on_c, 0, 44, 55
2, 48078, Note_on_c, 0, 64, 64
2, 48079, Control_c, 0, 64, 32
2, 48094, Control_c, 0, 64, 0
2, 48114, Note_on_c, 0, 66, 0
2, 48253, Note_on_c, 0, 40, 0
2, 48283, Note_on_c, 0, 47, 61
2, 48300, Note_on_c, 0, 66, 73
2, 48341, Note_on_c, 0, 68, 0
2, 48356, Note_on_c, 0, 44, 0
2, 48365, Note_on_c, 0, 64, 0
2, 48506, Note_on_c, 0, 47, 0
2, 48517, Note_on_c, 0, 52, 62
2, 48537, Note_on_c, 0, 68, 72
2, 48711, Note_on_c, 0, 66, 0
2, 48741, Note_on_c, 0, 51, 64
2, 48744, Note_on_c, 0, 52, 0
2, 48964, Note_on_c, 0, 52, 61
2, 48974, Note_on_c, 0, 51, 0
2, 49220, Note_on_c, 0, 45, 60
2, 49292, Note_on_c, 0, 52, 0
2, 49455, Note_on_c, 0, 69, 64
2, 49677, Note_on_c, 0, 71, 72
2, 49687, Note_on_c, 0, 52, 56
2, 49713, Note_on_c, 0, 69, 0
2, 49723, Note_on_c, 0, 68, 0
2, 49763, Note_on_c, 0, 52, 0
2, 49934, Note_on_c, 0, 57, 55
2, 49940, Note_on_c, 0, 73, 76
2, 50009, Note_on_c, 0, 71, 0
2, 50168, Note_on_c, 0, 66, 72
2, 50206, Note_on_c, 0, 73, 0
2, 50385, Note_on_c, 0, 69, 65
2, 50431, Note_on_c, 0, 66, 0
2, 50604, Note_on_c, 0, 69, 0
2, 50613, Note_on_c, 0, 47, 48
2, 50624, Note_on_c, 0, 59, 54
2, 50659, Note_on_c, 0, 45, 0
2, 50855, Note_on_c, 0, 63, 58
2, 50929, Note_on_c, 0, 57, 0
2, 51050, Note_on_c, 0, 59, 0
2, 51074, Note_on_c, 0, 66, 70
2, 51303, Note_on_c, 0, 56, 60
2, 51319, Note_on_c, 0, 71, 69
2, 51446, Note_on_c, 0, 63, 0
2, 51478, Note_on_c, 0, 66, 0
2, 51533, Note_on_c, 0, 69, 67
2, 51578, Note_on_c, 0, 71, 0
2, 51752, Note_on_c, 0, 71, 69
2, 51792, Note_on_c, 0, 69, 0
2, 51983, Note_on_c, 0, 61, 64
2, 52184, Note_on_c, 0, 71, 0
2, 52206, Note_on_c, 0, 64, 71
2, 52253, Note_on_c, 0, 61, 0
2, 52424, Note_on_c, 0, 68, 65
2, 52483, Note_on_c, 0, 64, 0
2, 52663, Note_on_c, 0, 69, 58
2, 52701, Note_on_c, 0, 68, 0
2, 52854, Note_on_c, 0, 56, 0
2, 52865, Note_on_c, 0, 54, 50
2, 53090, Note_on_c, 0, 54, 0
2, 53102, Note_on_c, 0, 52, 50
2, 53336, Note_on_c, 0, 51, 52
2, 53336, Note_on_c, 0, 52, 0
2, 53350, Note_on_c, 0, 59, 54
2, 53575, Note_on_c, 0, 63, 63
2, 53653, Note_on_c, 0, 59, 0
2, 53810, Note_on_c, 0, 66, 70
2, 53859, Note_on_c, 0, 69, 0
2, 54008, Note_on_c, 0, 63, 0
2, 54042, Note_on_c, 0, 69, 71
2, 54055, Note_on_c, 0, 66, 0
2, 54254, Note_on_c, 0, 68, 67
2, 54294, Note_on_c, 0, 69, 0
2, 54443, Control_c, 0, 64, 10
2, 54458, Control_c, 0, 64, 37
2, 54472, Control_c, 0, 64, 48
2, 54479, Note_on_c, 0, 42, 42
2, 54484, Note_on_c, 0, 69, 65
2, 54488, Control_c, 0, 64, 54
2, 54503, Control_c, 0, 64, 59
2, 54510, Note_on_c, 0, 68, 0
2, 54518, Control_c, 0, 64, 62
2, 54534, Control_c, 0, 64, 65
2, 54548, Control_c, 0, 64, 69
2, 54564, Control_c, 0, 64, 78
2, 54579, Control_c, 0, 64, 94
2, 54595, Control_c, 0, 64, 127
2, 54682, Note_on_c, 0, 42, 0
2, 54755, Note_on_c, 0, 43, 43
2, 54768, Note_on_c, 0, 59, 58
2, 54773, Note_on_c, 0, 47, 0
2, 54838, Control_c, 0, 64, 103
2, 54853, Control_c, 0, 64, 88
2, 54868, Control_c, 0, 64, 77
2, 54884, Control_c, 0, 64, 69
2, 54899, Control_c, 0, 64, 64
2, 54914, Control_c, 0, 64, 54
2, 54930, Control_c, 0, 64, 33
2, 54945, Control_c, 0, 64, 0
2, 55007, Note_on_c, 0, 63, 60
2, 55126, Note_on_c, 0, 59, 0
2, 55250, Note_on_c, 0, 66, 58
2, 55536, Note_on_c, 0, 52, 39
2, 55545, Note_on_c, 0, 67, 54
2, 55563, Note_on_c, 0, 66, 0
2, 55588, Note_on_c, 0, 63, 0
2, 55596, Note_on_c, 0, 51, 0
2, 55755, Note_on_c, 0, 69, 0
2, 55779, Note_on_c, 0, 45, 33
2, 55920, Note_on_c, 0, 43, 0
2, 56013, Note_on_c, 0, 47, 56
2, 56014, Note_on_c, 0, 45, 0
2, 56270, Note_on_c, 0, 47, 0
2, 56271, Note_on_c, 0, 48, 58
2, 56479, Note_on_c, 0, 54, 53
2, 56498, Note_on_c, 0, 69, 62
2, 56501, Note_on_c, 0, 52, 0
2, 56513, Note_on_c, 0, 67, 0
2, 56722, Note_on_c, 0, 55, 54
2, 56724, Note_on_c, 0, 67, 68
2, 56749, Note_on_c, 0, 54, 0
2, 56788, Note_on_c, 0, 69, 0
2, 56963, Note_on_c, 0, 55, 0
2, 56970, Note_on_c, 0, 57, 50
2, 56973, Note_on_c, 0, 66, 65
2, 57003, Note_on_c, 0, 67, 0
2, 57196, Note_on_c, 0, 67, 66
2, 57244, Note_on_c, 0, 66, 0
2, 57409, Note_on_c, 0, 64, 61
2, 57412, Note_on_c, 0, 67, 0
2, 57659, Note_on_c, 0, 47, 37
2, 57669, Note_on_c, 0, 63, 54
2, 57703, Note_on_c, 0, 64, 0
2, 57754, Note_on_c, 0, 48, 0
2, 57919, Note_on_c, 0, 61, 52
2, 57965, Note_on_c, 0, 63, 0
2, 58170, Control_c, 0, 64, 8
2, 58182, Note_on_c, 0, 59, 49
2, 58185, Control_c, 0, 64, 41
2, 58199, Control_c, 0, 64, 51
2, 58215, Control_c, 0, 64, 57
2, 58217, Note_on_c, 0, 61, 0
2, 58230, Control_c, 0, 64, 61
2, 58246, Control_c, 0, 64, 64
2, 58261, Control_c, 0, 64, 66
2, 58284, Control_c, 0, 64, 70
2, 58299, Control_c, 0, 64, 76
2, 58314, Control_c, 0, 64, 86
2, 58330, Control_c, 0, 64, 107
2, 58344, Control_c, 0, 64, 127
2, 58496, Note_on_c, 0, 72, 63
2, 58584, Note_on_c, 0, 57, 0
2, 58679, Note_on_c, 0, 59, 0
2, 58748, Note_on_c, 0, 49, 45
2, 58754, Note_on_c, 0, 71, 68
2, 58757, Note_on_c, 0, 56, 38
2, 58816, Control_c, 0, 64, 111
2, 58830, Control_c, 0, 64, 101
2, 58846, Control_c, 0, 64, 92
2, 58861, Control_c, 0, 64, 86
2, 58876, Control_c, 0, 64, 80
2, 58892, Control_c, 0, 64, 75
2, 58907, Control_c, 0, 64, 69
2, 58922, Control_c, 0, 64, 65
2, 58937, Control_c, 0, 64, 61
2, 58951, Note_on_c, 0, 47, 0
2, 58952, Control_c, 0, 64, 51
2, 58968, Control_c, 0, 64, 40
2, 58983, Control_c, 0, 64, 30
2, 58986, Note_on_c, 0, 49, 0
2, 58997, Control_c, 0, 64, 26
2, 58997, Note_on_c, 0, 51, 42
2, 58997, Note_on_c, 0, 54, 50
2, 58997, Note_on_c, 0, 70, 71
2, 59013, Control_c, 0, 64, 24
2, 59021, Note_on_c, 0, 56, 0
2, 59028, Control_c, 0, 64, 23
2, 59051, Control_c, 0, 64, 21
2, 59051, Note_on_c, 0, 72, 0
2, 59066, Control_c, 0, 64, 18
2, 59080, Note_on_c, 0, 71, 0
2, 59082, Control_c, 0, 64, 17
2, 59097, Control_c, 0, 64, 15
2, 59112, Control_c, 0, 64, 13
2, 59127, Control_c, 0, 64, 12
2, 59173, Control_c, 0, 64, 10
2, 59250, Note_on_c, 0, 52, 50
2, 59253, Note_on_c, 0, 69, 65
2, 59264, Note_on_c, 0, 51, 0
2, 59265, Note_on_c, 0, 54, 0
2, 59278, Control_c, 0, 64, 8
2, 59316, Note_on_c, 0, 70, 0
2, 59479, Note_on_c, 0, 68, 68
2, 59517, Note_on_c, 0, 69, 0
2, 59674, Control_c, 0, 64, 26
2, 59690, Control_c, 0, 64, 43
2, 59705, Control_c, 0, 64, 52
2, 59711, Note_on_c, 0, 46, 43
2, 59716, Note_on_c, 0, 67, 65
2, 59720, Control_c, 0, 64, 58
2, 59727, Note_on_c, 0, 68, 0
2, 59736, Control_c, 0, 64, 61
2, 59751, Control_c, 0, 64, 64
2, 59766, Control_c, 0, 64, 67
2, 59781, Control_c, 0, 64, 72
2, 59796, Control_c, 0, 64, 83
2, 59819, Control_c, 0, 64, 98
2, 59834, Control_c, 0, 64, 127
2, 59872, Note_on_c, 0, 46, 0
2, 59954, Note_on_c, 0, 47, 37
2, 59965, Note_on_c, 0, 66, 55
2, 59998, Note_on_c, 0, 67, 0
2, 60074, Note_on_c, 0, 68, 58
2, 60077, Control_c, 0, 64, 104
2, 60093, Control_c, 0, 64, 87
2, 60107, Control_c, 0, 64, 75
2, 60107, Note_on_c, 0, 52, 0
2, 60123, Control_c, 0, 64, 64
2, 60138, Control_c, 0, 64, 50
2, 60148, Note_on_c, 0, 66, 0
2, 60153, Control_c, 0, 64, 0
2, 60194, Note_on_c, 0, 69, 62
2, 60199, Note_on_c, 0, 51, 45
2, 60269, Note_on_c, 0, 68, 0
2, 60412, Control_c, 0, 64, 19
2, 60427, Control_c, 0, 64, 50
2, 60443, Control_c, 0, 64, 56
2, 60450, Note_on_c, 0, 63, 59
2, 60458, Control_c, 0, 64, 60
2, 60469, Note_on_c, 0, 57, 41
2, 60472, Control_c, 0, 64, 63
2, 60481, Note_on_c, 0, 47, 0
2, 60488, Control_c, 0, 64, 65
2, 60503, Control_c, 0, 64, 69
2, 60518, Control_c, 0, 64, 76
2, 60525, Note_on_c, 0, 51, 0
2, 60534, Control_c, 0, 64, 85
2, 60549, Control_c, 0, 64, 97
2, 60565, Control_c, 0, 64, 111
2, 60587, Control_c, 0, 64, 127
2, 60759, Note_on_c, 0, 49, 47
2, 60769, Note_on_c, 0, 56, 40
2, 60782, Note_on_c, 0, 64, 63
2, 60815, Control_c, 0, 64, 113
2, 60827, Note_on_c, 0, 63, 0
2, 60830, Control_c, 0, 64, 94
2, 60830, Note_on_c, 0, 69, 0
2, 60844, Note_on_c, 0, 57, 0
2, 60846, Control_c, 0, 64, 82
2, 60861, Control_c, 0, 64, 71
2, 60876, Control_c, 0, 64, 64
2, 60891, Control_c, 0, 64, 55
2, 60906, Control_c, 0, 64, 35
2, 60921, Control_c, 0, 64, 0
2, 61057, Note_on_c, 0, 52, 50
2, 61073, Note_on_c, 0, 56, 0
2, 61297, Note_on_c, 0, 52, 0
2, 61302, Note_on_c, 0, 56, 54
2, 61554, Note_on_c, 0, 57, 51
2, 61557, Note_on_c, 0, 56, 0
2, 61780, Note_on_c, 0, 57, 0
2, 61787, Note_on_c, 0, 56, 52
2, 61964, Control_c, 0, 64, 32
2, 61979, Control_c, 0, 64, 48
2, 61994, Control_c, 0, 64, 56
2, 62009, Control_c, 0, 64, 61
2, 62024, Control_c, 0, 64, 65
2, 62037, Note_on_c, 0, 57, 52
2, 62039, Control_c, 0, 64, 71
2, 62051, Note_on_c, 0, 56, 0
2, 62055, Control_c, 0, 64, 83
2, 62070, Control_c, 0, 64, 114
2, 62074, Note_on_c, 0, 49, 0
2, 62085, Control_c, 0, 64, 127
2, 62300, Note_on_c, 0, 44, 49
2, 62315, Note_on_c, 0, 52, 45
2, 62398, Note_on_c, 0, 57, 0
2, 62426, Control_c, 0, 64, 96
2, 62441, Control_c, 0, 64, 82
2, 62457, Control_c, 0, 64, 74
2, 62472, Control_c, 0, 64, 67
2, 62488, Control_c, 0, 64, 62
2, 62502, Control_c, 0, 64, 52
2, 62517, Control_c, 0, 64, 35
2, 62533, Control_c, 0, 64, 10
2, 62548, Control_c, 0, 64, 0
2, 62563, Note_on_c, 0, 56, 59
2, 62808, Note_on_c, 0, 59, 63
2, 63056, Note_on_c, 0, 62, 64
2, 63090, Note_on_c, 0, 59, 0
2, 63284, Note_on_c, 0, 62, 0
2, 63285, Note_on_c, 0, 61, 63
2, 63316, Control_c, 0, 64, 12
2, 63332, Control_c, 0, 64, 16
2, 63423, Control_c, 0, 64, 8
2, 63438, Control_c, 0, 64, 0
2, 63524, Note_on_c, 0, 62, 64
2, 63549, Note_on_c, 0, 61, 0
2, 63575, Control_c, 0, 64, 10
2, 63590, Control_c, 0, 64, 39
2, 63607, Control_c, 0, 64, 56
2, 63622, Control_c, 0, 64, 62
2, 63636, Control_c, 0, 64, 66
2, 63659, Control_c, 0, 64, 73
2, 63674, Control_c, 0, 64, 88
2, 63690, Control_c, 0, 64, 127
2, 63732, Note_on_c, 0, 56, 0
2, 63738, Note_on_c, 0, 44, 0
2, 63810, Note_on_c, 0, 45, 38
2, 63819, Note_on_c, 0, 61, 62
2, 63845, Note_on_c, 0, 62, 0
2, 63848, Note_on_c, 0, 52, 0
2, 63948, Control_c, 0, 64, 98
2, 63964, Control_c, 0, 64, 82
2, 63979, Control_c, 0, 64, 72
2, 63993, Control_c, 0, 64, 65
2, 64009, Control_c, 0, 64, 58
2, 64024, Control_c, 0, 64, 41
2, 64038, Control_c, 0, 64, 0
2, 64075, Note_on_c, 0, 49, 49
2, 64338, Note_on_c, 0, 52, 52
2, 64341, Note_on_c, 0, 49, 0
2, 64689, Note_on_c, 0, 57, 46
2, 64703, Note_on_c, 0, 52, 0
2, 65072, Note_on_c, 0, 56, 50
2, 65112, Note_on_c, 0, 57, 0
2, 65681, Note_on_c, 0, 63, 56
2, 65690, Note_on_c, 0, 57, 34
2, 65692, Note_on_c, 0, 60, 48
2, 65734, Note_on_c, 0, 56, 0
2, 65764, Note_on_c, 0, 64, 0
2, 65770, Note_on_c, 0, 61, 0
2, 65978, Control_c, 0, 64, 13
2, 65993, Control_c, 0, 64, 51
2, 66008, Control_c, 0, 64, 60
2, 66023, Control_c, 0, 64, 65
2, 66038, Control_c, 0, 64, 75
2, 66054, Control_c, 0, 64, 106
2, 66070, Control_c, 0, 64, 127
2, 66269, Note_on_c, 0, 57, 0
2, 66285, Note_on_c, 0, 63, 0
2, 66344, Note_on_c, 0, 45, 0
2, 66382, Note_on_c, 0, 60, 0
2, 66842, Note_on_c, 0, 59, 35
2, 66844, Note_on_c, 0, 40, 35
2, 66846, Note_on_c, 0, 64, 49
2, 66864, Note_on_c, 0, 56, 38
2, 66970, Control_c, 0, 64, 117
2, 66986, Control_c, 0, 64, 86
2, 67001, Control_c, 0, 64, 74
2, 67017, Control_c, 0, 64, 65
2, 67031, Control_c, 0, 64, 54
2, 67046, Control_c, 0, 64, 0
2, 69212, Control_c, 0, 64, 37
2, 69227, Control_c, 0, 64, 46
2, 69242, Control_c, 0, 64, 52
2, 69258, Control_c, 0, 64, 56
2, 69273, Control_c, 0, 64, 59
2, 69288, Control_c, 0, 64, 62
2, 69304, Control_c, 0, 64, 63
2, 69318, Control_c, 0, 64, 65
2, 69334, Control_c, 0, 64, 67
2, 69350, Control_c, 0, 64, 69
2, 69365, Control_c, 0, 64, 72
2, 69381, Control_c, 0, 64, 73
2, 69395, Control_c, 0, 64, 74
2, 69410, Control_c, 0, 64, 75
2, 69426, Control_c, 0, 64, 76
2, 69441, Control_c, 0, 64, 77
2, 69502, Control_c, 0, 64, 78
2, 69517, Control_c, 0, 64, 78
2, 69578, Control_c, 0, 64, 79
2, 69593, Control_c, 0, 64, 80
2, 69608, Control_c, 0, 64, 81
2, 69638, Control_c, 0, 64, 82
2, 69669, Control_c, 0, 64, 83
2, 69684, Control_c, 0, 64, 84
2, 69699, Control_c, 0, 64, 86
2, 69714, Control_c, 0, 64, 87
2, 69774, Control_c, 0, 64, 87
2, 70301, Control_c, 0, 64, 87
2, 70406, Control_c, 0, 64, 86
2, 70482, Control_c, 0, 64, 86
2, 70585, Note_on_c, 0, 64, 0
2, 70596, Control_c, 0, 64, 85
2, 70600, Note_on_c, 0, 59, 0
2, 70627, Note_on_c, 0, 56, 0
2, 70642, Control_c, 0, 64, 85
2, 70672, Control_c, 0, 64, 84
2, 70687, Control_c, 0, 64, 84
2, 70699, Note_on_c, 0, 40, 0
2, 70703, Control_c, 0, 64, 83
2, 70718, Control_c, 0, 64, 83
2, 70733, Control_c, 0, 64, 82
2, 70748, Control_c, 0, 64, 81
2, 70763, Control_c, 0, 64, 80
2, 70779, Control_c, 0, 64, 79
2, 70793, Control_c, 0, 64, 78
2, 70808, Control_c, 0, 64, 78
2, 70824, Control_c, 0, 64, 77
2, 70839, Control_c, 0, 64, 75
2, 70854, Control_c, 0, 64, 72
2, 70869, Control_c, 0, 64, 70
2, 70884, Control_c, 0, 64, 67
2, 70900, Control_c, 0, 64, 64
2, 70915, Control_c, 0, 64, 62
2, 70930, Control_c, 0, 64, 60
2, 70946, Control_c, 0, 64, 59
2, 70961, Control_c, 0, 64, 58
2, 70977, Control_c, 0, 64, 57
2, 70992, Control_c, 0, 64, 56
2, 71007, Control_c, 0, 64, 56
2, 71022, Control_c, 0, 64, 55
2, 71037, Control_c, 0, 64, 54
2, 71052, Control_c, 0, 64, 53
2, 71068, Control_c, 0, 64, 52
2, 71083, Control_c, 0, 64, 50
2, 71099, Control_c, 0, 64, 49
2, 71114, Control_c, 0, 64, 48
2, 71129, Control_c, 0, 64, 47
2, 71144, Control_c, 0, 64, 46
2, 71159, Control_c, 0, 64, 44
2, 71174, Control_c, 0, 64, 44
2, 71190, Control_c, 0, 64, 43
2, 71205, Control_c, 0, 64, 42
2, 71235, Control_c, 0, 64, 42
2, 71250, Control_c, 0, 64, 41
2, 71311, Control_c, 0, 64, 41
2, 71410, Control_c, 0, 64, 40
2, 71699, Control_c, 0, 64, 40
2, 71713, Control_c, 0, 64, 39
2, 71728, Control_c, 0, 64, 39
2, 71744, Control_c, 0, 64, 38
2, 71759, Control_c, 0, 64, 37
2, 71774, Control_c, 0, 64, 37
2, 72131, Control_c, 0, 64, 36
2, 72147, Control_c, 0, 64, 35
2, 72178, Control_c, 0, 64, 35
2, 72193, Control_c, 0, 64, 34
2, 72208, Control_c, 0, 64, 34
2, 72299, Control_c, 0, 64, 33
2, 72314, Control_c, 0, 64, 32
2, 72329, Control_c, 0, 64, 31
2, 72345, Control_c, 0, 64, 30
2, 72359, Control_c, 0, 64, 30
2, 72374, Control_c, 0, 64, 29
2, 72390, Control_c, 0, 64, 29
2, 72404, Control_c, 0, 64, 28
2, 72435, Control_c, 0, 64, 28
2, 72466, Control_c, 0, 64, 27
2, 72670,End_track
0, 0, End_of_file
