0, 0, Header, 1, 2, 384
1, 0, Start_track
1, 0, Tempo, 500000
1, 0, Time_signature, 4, 2, 24, 8
1, 1, End_track
2,0,Start_track
2,0, Note_on_c, 0, 64, 54
2,34, Note_on_c, 0, 64, 0
2,200, Control_c, 0, 64, 30
2,215, Control_c, 0, 64, 45
2,231, Control_c, 0, 64, 59
2,237, Note_on_c, 0, 66, 62
2,245, Control_c, 0, 64, 64
2,260, Control_c, 0, 64, 68
2,269, Note_on_c, 0, 66, 0
2,276, Control_c, 0, 64, 79
2,291, Control_c, 0, 64, 108
2,307, Control_c, 0, 64, 127
2,610, Control_c, 0, 64, 114
2,625, Control_c, 0, 64, 82
2,641, Control_c, 0, 64, 68
2,655, Control_c, 0, 64, 50
2,671, Control_c, 0, 64, 0
2,718, Note_on_c, 0, 59, 51
2,776, Note_on_c, 0, 59, 0
2,807, Note_on_c, 0, 61, 58
2,880, Note_on_c, 0, 61, 0
2,898, Note_on_c, 0, 63, 60
2,944, Note_on_c, 0, 63, 0
2,991, Note_on_c, 0, 64, 71
2,1044, Note_on_c, 0, 64, 0
2,1079, Note_on_c, 0, 63, 62
2,1122, Note_on_c, 0, 63, 0
2,1177, Note_on_c, 0, 64, 62
2,1246, Note_on_c, 0, 64, 0
2,1274, Note_on_c, 0, 66, 64
2,1352, Note_on_c, 0, 66, 0
2,1368, Note_on_c, 0, 68, 70
2,1440, Note_on_c, 0, 68, 0
2,1463, Note_on_c, 0, 69, 59
2,1502, Note_on_c, 0, 69, 0
2,1554, Note_on_c, 0, 71, 85
2,1602, Note_on_c, 0, 71, 0
2,1675, Note_on_c, 0, 68, 60
2,1724, Note_on_c, 0, 68, 0
2,1767, Note_on_c, 0, 73, 80
2,1789, Note_on_c, 0, 64, 67
2,1835, Note_on_c, 0, 64, 0
2,1875, Note_on_c, 0, 63, 56
2,1919, Note_on_c, 0, 63, 0
2,1965, Note_on_c, 0, 64, 61
2,2010, Note_on_c, 0, 64, 0
2,2058, Note_on_c, 0, 66, 58
2,2062, Note_on_c, 0, 73, 0
2,2110, Note_on_c, 0, 66, 0
2,2154, Note_on_c, 0, 64, 66
2,2196, Note_on_c, 0, 64, 0
2,2241, Note_on_c, 0, 66, 71
2,2242, Note_on_c, 0, 63, 63
2,2278, Note_on_c, 0, 63, 0
2,2329, Note_on_c, 0, 64, 53
2,2329, Note_on_c, 0, 66, 0
2,2340, Note_on_c, 0, 68, 66
2,2381, Note_on_c, 0, 64, 0
2,2428, Note_on_c, 0, 66, 56
2,2436, Note_on_c, 0, 70, 64
2,2444, Note_on_c, 0, 68, 0
2,2501, Note_on_c, 0, 70, 0
2,2508, Note_on_c, 0, 66, 0
2,2539, Note_on_c, 0, 63, 66
2,2541, Note_on_c, 0, 71, 77
2,2583, Note_on_c, 0, 63, 0
2,2620, Note_on_c, 0, 71, 0
2,2630, Note_on_c, 0, 61, 59
2,2634, Note_on_c, 0, 70, 68
2,2692, Note_on_c, 0, 70, 0
2,2699, Note_on_c, 0, 61, 0
2,2719, Note_on_c, 0, 63, 59
2,2738, Note_on_c, 0, 71, 76
2,2763, Note_on_c, 0, 63, 0
2,2812, Note_on_c, 0, 71, 0
2,2815, Note_on_c, 0, 64, 69
2,2827, Note_on_c, 0, 73, 74
2,2883, Note_on_c, 0, 64, 0
2,2923, Note_on_c, 0, 66, 74
2,2927, Note_on_c, 0, 75, 74
2,2971, Note_on_c, 0, 73, 0
2,2983, Note_on_c, 0, 66, 0
2,3015, Note_on_c, 0, 68, 71
2,3015, Note_on_c, 0, 76, 68
2,3077, Note_on_c, 0, 68, 0
2,3111, Note_on_c, 0, 75, 0
2,3118, Note_on_c, 0, 69, 68
2,3118, Note_on_c, 0, 78, 76
2,3145, Note_on_c, 0, 76, 0
2,3170, Note_on_c, 0, 69, 0
2,3201, Note_on_c, 0, 66, 71
2,3208, Note_on_c, 0, 75, 69
2,3213, Note_on_c, 0, 78, 0
2,3247, Note_on_c, 0, 66, 0
2,3286, Note_on_c, 0, 75, 0
2,3327, Note_on_c, 0, 68, 65
2,3329, Note_on_c, 0, 71, 72
2,3354, Note_on_c, 0, 68, 0
2,3391, Note_on_c, 0, 71, 0
2,3414, Note_on_c, 0, 69, 62
2,3468, Note_on_c, 0, 69, 0
2,3527, Note_on_c, 0, 59, 62
2,3533, Note_on_c, 0, 71, 75
2,3556, Note_on_c, 0, 59, 0
2,3579, Note_on_c, 0, 71, 0
2,3610, Note_on_c, 0, 73, 55
2,3697, Note_on_c, 0, 73, 0
2,3724, Note_on_c, 0, 64, 78
2,3732, Note_on_c, 0, 71, 64
2,3787, Note_on_c, 0, 71, 0
2,3821, Note_on_c, 0, 69, 57
2,3892, Note_on_c, 0, 69, 0
2,3931, Note_on_c, 0, 71, 67
2,3934, Note_on_c, 0, 52, 62
2,3974, Note_on_c, 0, 52, 0
2,3987, Note_on_c, 0, 71, 0
2,4139, Note_on_c, 0, 54, 74
2,4155, Note_on_c, 0, 69, 52
2,4158, Note_on_c, 0, 64, 0
2,4205, Note_on_c, 0, 69, 0
2,4241, Note_on_c, 0, 68, 55
2,4332, Note_on_c, 0, 63, 72
2,4342, Note_on_c, 0, 69, 65
2,4345, Note_on_c, 0, 68, 0
2,4388, Note_on_c, 0, 63, 0
2,4432, Note_on_c, 0, 69, 0
2,4448, Note_on_c, 0, 71, 65
2,4459, Note_on_c, 0, 54, 0
2,4539, Note_on_c, 0, 66, 81
2,4550, Note_on_c, 0, 69, 75
2,4564, Note_on_c, 0, 71, 0
2,4634, Note_on_c, 0, 69, 0
2,4647, Note_on_c, 0, 68, 66
2,4664, Note_on_c, 0, 47, 56
2,4717, Note_on_c, 0, 47, 0
2,4743, Note_on_c, 0, 69, 73
2,4747, Note_on_c, 0, 68, 0
2,4760, Note_on_c, 0, 49, 60
2,4817, Note_on_c, 0, 49, 0
2,4828, Note_on_c, 0, 69, 0
2,4846, Note_on_c, 0, 71, 72
2,4879, Note_on_c, 0, 66, 0
2,4907, Note_on_c, 0, 50, 24
2,4945, Note_on_c, 0, 71, 0
2,4947, Note_on_c, 0, 52, 69
2,4950, Note_on_c, 0, 68, 77
2,4953, Note_on_c, 0, 50, 0
2,5000, Note_on_c, 0, 52, 0
2,5033, Note_on_c, 0, 66, 72
2,5035, Note_on_c, 0, 68, 0
2,5038, Note_on_c, 0, 51, 63
2,5080, Note_on_c, 0, 51, 0
2,5112, Note_on_c, 0, 66, 0
2,5133, Note_on_c, 0, 52, 62
2,5142, Note_on_c, 0, 68, 78
2,5150, Note_on_c, 0, 59, 79
2,5185, Note_on_c, 0, 59, 0
2,5189, Note_on_c, 0, 52, 0
2,5236, Note_on_c, 0, 54, 64
2,5238, Note_on_c, 0, 70, 72
2,5278, Note_on_c, 0, 68, 0
2,5313, Note_on_c, 0, 54, 0
2,5338, Note_on_c, 0, 56, 71
2,5352, Note_on_c, 0, 64, 72
2,5352, Note_on_c, 0, 71, 74
2,5379, Note_on_c, 0, 64, 0
2,5380, Note_on_c, 0, 70, 0
2,5406, Note_on_c, 0, 56, 0
2,5432, Note_on_c, 0, 57, 67
2,5498, Note_on_c, 0, 57, 0
2,5534, Note_on_c, 0, 59, 62
2,5551, Note_on_c, 0, 63, 69
2,5585, Note_on_c, 0, 63, 0
2,5597, Note_on_c, 0, 59, 0
2,5635, Note_on_c, 0, 56, 68
2,5704, Note_on_c, 0, 56, 0
2,5755, Note_on_c, 0, 52, 66
2,5763, Note_on_c, 0, 61, 71
2,5806, Note_on_c, 0, 52, 0
2,5857, Note_on_c, 0, 51, 52
2,5899, Note_on_c, 0, 51, 0
2,5950, Note_on_c, 0, 52, 62
2,6020, Note_on_c, 0, 52, 0
2,6062, Note_on_c, 0, 54, 61
2,6130, Note_on_c, 0, 54, 0
2,6166, Note_on_c, 0, 52, 61
2,6169, Note_on_c, 0, 70, 76
2,6209, Note_on_c, 0, 52, 0
2,6255, Note_on_c, 0, 71, 0
2,6262, Note_on_c, 0, 51, 57
2,6307, Note_on_c, 0, 51, 0
2,6340, Note_on_c, 0, 61, 0
2,6365, Note_on_c, 0, 52, 51
2,6429, Note_on_c, 0, 52, 0
2,6453, Note_on_c, 0, 54, 54
2,6515, Note_on_c, 0, 70, 0
2,6547, Note_on_c, 0, 54, 0
2,6556, Control_c, 0, 64, 51
2,6570, Note_on_c, 0, 71, 70
2,6571, Control_c, 0, 64, 62
2,6571, Note_on_c, 0, 59, 60
2,6574, Note_on_c, 0, 51, 59
2,6587, Control_c, 0, 64, 65
2,6592, Note_on_c, 0, 59, 0
2,6601, Control_c, 0, 64, 68
2,6616, Control_c, 0, 64, 74
2,6616, Note_on_c, 0, 71, 0
2,6630, Note_on_c, 0, 51, 0
2,6632, Control_c, 0, 64, 85
2,6647, Control_c, 0, 64, 99
2,6662, Control_c, 0, 64, 120
2,6677, Control_c, 0, 64, 127
2,6678, Note_on_c, 0, 49, 53
2,6738, Control_c, 0, 64, 105
2,6754, Control_c, 0, 64, 89
2,6763, Note_on_c, 0, 49, 0
2,6769, Control_c, 0, 64, 74
2,6769, Note_on_c, 0, 51, 65
2,6784, Control_c, 0, 64, 60
2,6790, Note_on_c, 0, 83, 48
2,6799, Control_c, 0, 64, 0
2,6812, Note_on_c, 0, 83, 0
2,6827, Note_on_c, 0, 51, 0
2,6867, Note_on_c, 0, 52, 64
2,6941, Note_on_c, 0, 52, 0
2,6956, Note_on_c, 0, 75, 73
2,6967, Note_on_c, 0, 54, 68
2,6998, Note_on_c, 0, 75, 0
2,7037, Note_on_c, 0, 54, 0
2,7057, Note_on_c, 0, 56, 66
2,7142, Note_on_c, 0, 56, 0
2,7156, Note_on_c, 0, 57, 66
2,7158, Note_on_c, 0, 78, 85
2,7191, Note_on_c, 0, 78, 0
2,7235, Note_on_c, 0, 57, 0
2,7259, Note_on_c, 0, 54, 61
2,7358, Note_on_c, 0, 54, 0
2,7361, Note_on_c, 0, 71, 83
2,7371, Note_on_c, 0, 56, 67
2,7450, Note_on_c, 0, 56, 0
2,7481, Note_on_c, 0, 54, 66
2,7559, Note_on_c, 0, 76, 69
2,7571, Note_on_c, 0, 54, 0
2,7589, Note_on_c, 0, 56, 67
2,7652, Note_on_c, 0, 76, 0
2,7664, Note_on_c, 0, 56, 0
2,7687, Note_on_c, 0, 57, 63
2,7748, Note_on_c, 0, 57, 0
2,7759, Note_on_c, 0, 68, 84
2,7774, Note_on_c, 0, 59, 67
2,7789, Note_on_c, 0, 71, 0
2,7817, Note_on_c, 0, 68, 0
2,7837, Note_on_c, 0, 59, 0
2,7867, Note_on_c, 0, 61, 67
2,7956, Note_on_c, 0, 61, 0
2,7964, Note_on_c, 0, 71, 81
2,7970, Note_on_c, 0, 62, 72
2,8029, Note_on_c, 0, 62, 0
2,8073, Note_on_c, 0, 59, 59
2,8160, Note_on_c, 0, 59, 0
2,8166, Note_on_c, 0, 64, 77
2,8169, Note_on_c, 0, 61, 78
2,8206, Note_on_c, 0, 64, 0
2,8235, Note_on_c, 0, 61, 0
2,8282, Note_on_c, 0, 59, 65
2,8332, Note_on_c, 0, 71, 0
2,8360, Note_on_c, 0, 59, 0
2,8360, Note_on_c, 0, 69, 66
2,8361, Note_on_c, 0, 66, 82
2,8368, Note_on_c, 0, 61, 77
2,8406, Note_on_c, 0, 69, 0
2,8422, Note_on_c, 0, 71, 6
2,8435, Note_on_c, 0, 61, 0
2,8469, Note_on_c, 0, 63, 77
2,8530, Note_on_c, 0, 66, 0
2,8537, Note_on_c, 0, 63, 0
2,8558, Note_on_c, 0, 68, 80
2,8583, Note_on_c, 0, 64, 76
2,8592, Note_on_c, 0, 71, 0
2,8606, Note_on_c, 0, 68, 0
2,8634, Note_on_c, 0, 64, 0
2,8658, Note_on_c, 0, 63, 76
2,8754, Note_on_c, 0, 63, 0
2,8756, Note_on_c, 0, 61, 73
2,8766, Note_on_c, 0, 76, 86
2,8774, Note_on_c, 0, 64, 66
2,8814, Note_on_c, 0, 76, 0
2,8818, Note_on_c, 0, 64, 0
2,8836, Note_on_c, 0, 61, 0
2,8855, Note_on_c, 0, 59, 64
2,8938, Note_on_c, 0, 59, 0
2,8974, Note_on_c, 0, 57, 66
2,8984, Note_on_c, 0, 78, 86
2,8989, Note_on_c, 0, 64, 68
2,9058, Control_c, 0, 64, 35
2,9073, Note_on_c, 0, 57, 0
2,9074, Control_c, 0, 64, 45
2,9081, Note_on_c, 0, 56, 71
2,9089, Control_c, 0, 64, 50
2,9104, Control_c, 0, 64, 53
2,9110, Note_on_c, 0, 64, 0
2,9120, Control_c, 0, 64, 55
2,9134, Control_c, 0, 64, 57
2,9150, Control_c, 0, 64, 57
2,9166, Note_on_c, 0, 56, 0
2,9171, Note_on_c, 0, 57, 68
2,9196, Control_c, 0, 64, 56
2,9210, Control_c, 0, 64, 50
2,9214, Note_on_c, 0, 78, 0
2,9225, Control_c, 0, 64, 38
2,9241, Control_c, 0, 64, 0
2,9251, Note_on_c, 0, 57, 0
2,9257, Note_on_c, 0, 59, 70
2,9356, Note_on_c, 0, 59, 0
2,9366, Note_on_c, 0, 63, 78
2,9373, Note_on_c, 0, 56, 68
2,9395, Note_on_c, 0, 56, 0
2,9396, Note_on_c, 0, 57, 68
2,9446, Note_on_c, 0, 63, 0
2,9463, Note_on_c, 0, 57, 0
2,9463, Note_on_c, 0, 71, 65
2,9469, Note_on_c, 0, 56, 73
2,9538, Note_on_c, 0, 56, 0
2,9554, Note_on_c, 0, 66, 74
2,9556, Note_on_c, 0, 73, 85
2,9563, Note_on_c, 0, 57, 57
2,9578, Note_on_c, 0, 71, 0
2,9597, Note_on_c, 0, 66, 0
2,9618, Note_on_c, 0, 57, 0
2,9636, Note_on_c, 0, 59, 74
2,9652, Note_on_c, 0, 75, 80
2,9669, Note_on_c, 0, 59, 0
2,9686, Note_on_c, 0, 73, 0
2,9715, Note_on_c, 0, 75, 0
2,9768, Note_on_c, 0, 56, 74
2,9768, Note_on_c, 0, 59, 62
2,9775, Note_on_c, 0, 76, 74
2,9878, Note_on_c, 0, 76, 0
2,9879, Note_on_c, 0, 75, 77
2,9890, Note_on_c, 0, 56, 0
2,9937, Note_on_c, 0, 75, 0
2,9981, Note_on_c, 0, 54, 72
2,9982, Note_on_c, 0, 59, 0
2,9984, Note_on_c, 0, 76, 81
2,10018, Note_on_c, 0, 54, 0
2,10051, Note_on_c, 0, 76, 0
2,10077, Note_on_c, 0, 78, 74
2,10182, Note_on_c, 0, 80, 79
2,10185, Note_on_c, 0, 52, 64
2,10216, Note_on_c, 0, 78, 0
2,10225, Note_on_c, 0, 52, 0
2,10264, Note_on_c, 0, 80, 0
2,10283, Note_on_c, 0, 81, 77
2,10361, Note_on_c, 0, 81, 0
2,10382, Note_on_c, 0, 51, 57
2,10392, Note_on_c, 0, 71, 85
2,10392, Note_on_c, 0, 83, 78
2,10425, Note_on_c, 0, 51, 0
2,10438, Note_on_c, 0, 83, 0
2,10447, Note_on_c, 0, 71, 0
2,10487, Note_on_c, 0, 80, 77
2,10522, Note_on_c, 0, 80, 0
2,10594, Note_on_c, 0, 49, 59
2,10601, Note_on_c, 0, 73, 85
2,10614, Note_on_c, 0, 76, 70
2,10628, Note_on_c, 0, 49, 0
2,10707, Note_on_c, 0, 76, 0
2,10726, Note_on_c, 0, 75, 63
2,10804, Note_on_c, 0, 59, 70
2,10811, Note_on_c, 0, 76, 79
2,10813, Note_on_c, 0, 75, 0
2,10839, Note_on_c, 0, 59, 0
2,10894, Note_on_c, 0, 76, 0
2,10912, Note_on_c, 0, 78, 75
2,10988, Note_on_c, 0, 73, 0
2,11014, Note_on_c, 0, 58, 71
2,11015, Note_on_c, 0, 76, 82
2,11021, Note_on_c, 0, 78, 0
2,11052, Note_on_c, 0, 58, 0
2,11098, Note_on_c, 0, 76, 0
2,11101, Note_on_c, 0, 66, 67
2,11110, Note_on_c, 0, 75, 77
2,11159, Note_on_c, 0, 66, 0
2,11175, Note_on_c, 0, 75, 0
2,11199, Note_on_c, 0, 68, 75
2,11201, Note_on_c, 0, 76, 81
2,11203, Note_on_c, 0, 54, 60
2,11252, Note_on_c, 0, 68, 0
2,11254, Note_on_c, 0, 54, 0
2,11307, Note_on_c, 0, 70, 73
2,11310, Note_on_c, 0, 78, 66
2,11345, Note_on_c, 0, 76, 0
2,11349, Note_on_c, 0, 70, 0
2,11395, Note_on_c, 0, 78, 0
2,11416, Note_on_c, 0, 59, 61
2,11418, Note_on_c, 0, 75, 69
2,11419, Note_on_c, 0, 71, 67
2,11423, Control_c, 0, 64, 39
2,11439, Control_c, 0, 64, 60
2,11446, Note_on_c, 0, 59, 0
2,11453, Control_c, 0, 64, 63
2,11469, Control_c, 0, 64, 65
2,11469, Note_on_c, 0, 71, 0
2,11484, Control_c, 0, 64, 68
2,11499, Control_c, 0, 64, 74
2,11511, Note_on_c, 0, 75, 0
2,11514, Control_c, 0, 64, 84
2,11520, Note_on_c, 0, 73, 80
2,11529, Control_c, 0, 64, 95
2,11532, Note_on_c, 0, 70, 69
2,11544, Control_c, 0, 64, 105
2,11560, Control_c, 0, 64, 105
2,11565, Note_on_c, 0, 70, 0
2,11614, Note_on_c, 0, 71, 74
2,11615, Note_on_c, 0, 73, 0
2,11617, Note_on_c, 0, 75, 79
2,11636, Control_c, 0, 64, 104
2,11651, Control_c, 0, 64, 95
2,11667, Control_c, 0, 64, 85
2,11668, Note_on_c, 0, 75, 0
2,11682, Control_c, 0, 64, 74
2,11684, Note_on_c, 0, 71, 0
2,11697, Control_c, 0, 64, 65
2,11717, Note_on_c, 0, 76, 76
2,11719, Control_c, 0, 64, 52
2,11725, Note_on_c, 0, 73, 73
2,11734, Control_c, 0, 64, 0
2,11779, Note_on_c, 0, 73, 0
2,11802, Note_on_c, 0, 76, 0
2,11813, Note_on_c, 0, 75, 74
2,11816, Note_on_c, 0, 78, 82
2,11872, Note_on_c, 0, 75, 0
2,11899, Note_on_c, 0, 80, 77
2,11908, Note_on_c, 0, 78, 0
2,11911, Note_on_c, 0, 76, 70
2,11944, Note_on_c, 0, 80, 0
2,11991, Note_on_c, 0, 76, 0
2,12004, Note_on_c, 0, 78, 70
2,12004, Note_on_c, 0, 81, 88
2,12050, Note_on_c, 0, 78, 0
2,12088, Note_on_c, 0, 75, 70
2,12113, Note_on_c, 0, 75, 0
2,12185, Note_on_c, 0, 71, 76
2,12237, Note_on_c, 0, 71, 0
2,12267, Note_on_c, 0, 69, 68
2,12323, Note_on_c, 0, 69, 0
2,12352, Note_on_c, 0, 81, 0
2,12367, Note_on_c, 0, 71, 72
2,12384, Note_on_c, 0, 75, 81
2,12419, Note_on_c, 0, 75, 0
2,12420, Note_on_c, 0, 71, 0
2,12454, Note_on_c, 0, 73, 70
2,12514, Note_on_c, 0, 73, 0
2,12570, Note_on_c, 0, 71, 61
2,12583, Note_on_c, 0, 80, 83
2,12630, Note_on_c, 0, 71, 0
2,12675, Note_on_c, 0, 69, 58
2,12724, Note_on_c, 0, 69, 0
2,12773, Note_on_c, 0, 71, 59
2,12844, Note_on_c, 0, 71, 0
2,12850, Note_on_c, 0, 73, 69
2,12931, Note_on_c, 0, 73, 0
2,12958, Note_on_c, 0, 69, 66
2,13024, Note_on_c, 0, 69, 0
2,13048, Note_on_c, 0, 68, 65
2,13111, Note_on_c, 0, 68, 0
2,13148, Note_on_c, 0, 78, 73
2,13150, Note_on_c, 0, 69, 60
2,13162, Note_on_c, 0, 80, 0
2,13193, Note_on_c, 0, 69, 0
2,13206, Note_on_c, 0, 78, 0
2,13237, Note_on_c, 0, 76, 66
2,13244, Note_on_c, 0, 71, 65
2,13281, Note_on_c, 0, 76, 0
2,13302, Note_on_c, 0, 71, 0
2,13355, Note_on_c, 0, 75, 74
2,13365, Note_on_c, 0, 69, 53
2,13387, Note_on_c, 0, 69, 0
2,13457, Note_on_c, 0, 68, 54
2,13493, Note_on_c, 0, 68, 0
2,13565, Note_on_c, 0, 59, 72
2,13568, Note_on_c, 0, 69, 68
2,13599, Note_on_c, 0, 59, 0
2,13605, Note_on_c, 0, 69, 0
2,13659, Note_on_c, 0, 75, 0
2,13662, Note_on_c, 0, 71, 66
2,13747, Note_on_c, 0, 71, 0
2,13776, Note_on_c, 0, 61, 81
2,13785, Note_on_c, 0, 76, 69
2,13789, Note_on_c, 0, 68, 66
2,13820, Note_on_c, 0, 68, 0
2,13872, Note_on_c, 0, 76, 0
2,13881, Note_on_c, 0, 75, 74
2,13984, Note_on_c, 0, 64, 75
2,13984, Note_on_c, 0, 76, 79
2,13994, Note_on_c, 0, 75, 0
2,14044, Note_on_c, 0, 64, 0
2,14078, Note_on_c, 0, 61, 0
2,14086, Note_on_c, 0, 76, 0
2,14093, Note_on_c, 0, 78, 73
2,14198, Note_on_c, 0, 69, 79
2,14200, Note_on_c, 0, 76, 76
2,14239, Note_on_c, 0, 78, 0
2,14291, Note_on_c, 0, 76, 0
2,14293, Note_on_c, 0, 75, 73
2,14295, Note_on_c, 0, 54, 68
2,14359, Note_on_c, 0, 54, 0
2,14376, Note_on_c, 0, 56, 67
2,14382, Note_on_c, 0, 76, 79
2,14393, Note_on_c, 0, 75, 0
2,14440, Note_on_c, 0, 56, 0
2,14476, Note_on_c, 0, 78, 79
2,14477, Note_on_c, 0, 76, 0
2,14481, Note_on_c, 0, 57, 68
2,14529, Note_on_c, 0, 57, 0
2,14570, Note_on_c, 0, 59, 70
2,14575, Note_on_c, 0, 78, 0
2,14577, Note_on_c, 0, 75, 80
2,14624, Note_on_c, 0, 59, 0
2,14661, Note_on_c, 0, 57, 70
2,14671, Note_on_c, 0, 73, 79
2,14672, Note_on_c, 0, 75, 0
2,14712, Note_on_c, 0, 57, 0
2,14763, Note_on_c, 0, 59, 71
2,14768, Note_on_c, 0, 75, 86
2,14809, Note_on_c, 0, 73, 0
2,14843, Note_on_c, 0, 59, 0
2,14862, Note_on_c, 0, 61, 72
2,14862, Note_on_c, 0, 76, 77
2,14886, Note_on_c, 0, 75, 0
2,14928, Note_on_c, 0, 61, 0
2,14968, Note_on_c, 0, 78, 83
2,14969, Note_on_c, 0, 63, 73
2,14992, Note_on_c, 0, 76, 0
2,15027, Note_on_c, 0, 63, 0
2,15048, Note_on_c, 0, 69, 0
2,15051, Note_on_c, 0, 64, 78
2,15056, Note_on_c, 0, 72, 74
2,15070, Note_on_c, 0, 78, 0
2,15116, Note_on_c, 0, 64, 0
2,15149, Note_on_c, 0, 63, 73
2,15156, Note_on_c, 0, 73, 79
2,15165, Note_on_c, 0, 72, 0
2,15211, Note_on_c, 0, 63, 0
2,15242, Note_on_c, 0, 61, 71
2,15246, Note_on_c, 0, 75, 76
2,15259, Note_on_c, 0, 73, 0
2,15288, Note_on_c, 0, 61, 0
2,15344, Note_on_c, 0, 60, 73
2,15354, Note_on_c, 0, 68, 74
2,15372, Note_on_c, 0, 75, 0
2,15388, Note_on_c, 0, 60, 0
2,15443, Note_on_c, 0, 56, 56
2,15510, Note_on_c, 0, 56, 0
2,15536, Note_on_c, 0, 58, 71
2,15582, Note_on_c, 0, 76, 69
2,15613, Note_on_c, 0, 58, 0
2,15642, Note_on_c, 0, 68, 0
2,15644, Note_on_c, 0, 60, 70
2,15665, Note_on_c, 0, 75, 77
2,15683, Note_on_c, 0, 76, 0
2,15730, Note_on_c, 0, 60, 0
2,15753, Note_on_c, 0, 61, 74
2,15764, Note_on_c, 0, 76, 78
2,15778, Note_on_c, 0, 75, 0
2,15819, Note_on_c, 0, 61, 0
2,15859, Note_on_c, 0, 63, 70
2,15910, Note_on_c, 0, 63, 0
2,15952, Note_on_c, 0, 73, 71
2,15955, Note_on_c, 0, 64, 68
2,15992, Note_on_c, 0, 73, 0
2,16007, Note_on_c, 0, 64, 0
2,16061, Note_on_c, 0, 61, 57
2,16101, Note_on_c, 0, 61, 0
2,16149, Note_on_c, 0, 66, 73
2,16166, Note_on_c, 0, 57, 57
2,16181, Note_on_c, 0, 76, 0
2,16209, Note_on_c, 0, 57, 0
2,16246, Note_on_c, 0, 56, 60
2,16301, Note_on_c, 0, 56, 0
2,16366, Note_on_c, 0, 57, 53
2,16369, Note_on_c, 0, 76, 68
2,16403, Note_on_c, 0, 76, 0
2,16409, Note_on_c, 0, 57, 0
2,16449, Note_on_c, 0, 59, 57
2,16512, Note_on_c, 0, 59, 0
2,16560, Note_on_c, 0, 57, 50
2,16566, Note_on_c, 0, 75, 72
2,16600, Note_on_c, 0, 75, 0
2,16622, Note_on_c, 0, 57, 0
2,16655, Note_on_c, 0, 56, 57
2,16705, Note_on_c, 0, 56, 0
2,16750, Note_on_c, 0, 57, 58
2,16761, Note_on_c, 0, 73, 75
2,16805, Note_on_c, 0, 57, 0
2,16836, Note_on_c, 0, 73, 0
2,16848, Note_on_c, 0, 59, 54
2,16928, Note_on_c, 0, 59, 0
2,16943, Note_on_c, 0, 72, 71
2,16948, Note_on_c, 0, 56, 67
2,17008, Note_on_c, 0, 56, 0
2,17017, Note_on_c, 0, 72, 0
2,17095, Note_on_c, 0, 52, 27
2,17121, Note_on_c, 0, 53, 10
2,17144, Note_on_c, 0, 68, 72
2,17158, Note_on_c, 0, 52, 0
2,17167, Note_on_c, 0, 53, 0
2,17168, Note_on_c, 0, 54, 60
2,17174, Note_on_c, 0, 66, 0
2,17218, Note_on_c, 0, 68, 0
2,17240, Note_on_c, 0, 56, 67
2,17244, Note_on_c, 0, 54, 0
2,17319, Note_on_c, 0, 56, 0
2,17336, Note_on_c, 0, 73, 81
2,17343, Note_on_c, 0, 57, 64
2,17346, Note_on_c, 0, 64, 71
2,17385, Note_on_c, 0, 64, 0
2,17393, Note_on_c, 0, 57, 0
2,17427, Note_on_c, 0, 59, 65
2,17491, Note_on_c, 0, 59, 0
2,17529, Note_on_c, 0, 61, 71
2,17532, Note_on_c, 0, 70, 72
2,17552, Note_on_c, 0, 70, 0
2,17557, Note_on_c, 0, 69, 67
2,17571, Note_on_c, 0, 61, 0
2,17589, Note_on_c, 0, 69, 0
2,17625, Note_on_c, 0, 57, 66
2,17683, Note_on_c, 0, 57, 0
2,17726, Note_on_c, 0, 54, 73
2,17743, Note_on_c, 0, 63, 66
2,17771, Note_on_c, 0, 63, 0
2,17792, Note_on_c, 0, 54, 0
2,17830, Note_on_c, 0, 52, 60
2,17899, Note_on_c, 0, 52, 0
2,17926, Note_on_c, 0, 75, 74
2,17928, Note_on_c, 0, 54, 70
2,17934, Note_on_c, 0, 66, 71
2,17954, Note_on_c, 0, 73, 0
2,17971, Note_on_c, 0, 66, 0
2,17976, Note_on_c, 0, 54, 0
2,17983, Note_on_c, 0, 75, 0
2,18022, Note_on_c, 0, 56, 63
2,18078, Note_on_c, 0, 56, 0
2,18137, Note_on_c, 0, 54, 61
2,18144, Note_on_c, 0, 68, 68
2,18152, Note_on_c, 0, 60, 67
2,18178, Note_on_c, 0, 54, 0
2,18234, Note_on_c, 0, 52, 52
2,18271, Note_on_c, 0, 60, 0
2,18324, Note_on_c, 0, 52, 0
2,18336, Note_on_c, 0, 54, 60
2,18356, Note_on_c, 0, 63, 38
2,18359, Note_on_c, 0, 70, 54
2,18391, Note_on_c, 0, 54, 0
2,18393, Note_on_c, 0, 68, 0
2,18407, Note_on_c, 0, 63, 0
2,18422, Note_on_c, 0, 56, 63
2,18454, Note_on_c, 0, 56, 0
2,18457, Note_on_c, 0, 72, 59
2,18470, Note_on_c, 0, 70, 0
2,18487, Note_on_c, 0, 72, 0
2,18548, Note_on_c, 0, 56, 61
2,18563, Note_on_c, 0, 73, 64
2,18565, Note_on_c, 0, 52, 52
2,18657, Note_on_c, 0, 73, 0
2,18674, Note_on_c, 0, 72, 66
2,18732, Note_on_c, 0, 52, 0
2,18760, Note_on_c, 0, 56, 0
2,18769, Note_on_c, 0, 51, 60
2,18775, Note_on_c, 0, 73, 76
2,18778, Note_on_c, 0, 72, 0
2,18803, Note_on_c, 0, 51, 0
2,18866, Note_on_c, 0, 75, 76
2,18876, Note_on_c, 0, 73, 0
2,18932, Note_on_c, 0, 75, 0
2,18973, Note_on_c, 0, 49, 63
2,18979, Note_on_c, 0, 76, 71
2,19007, Note_on_c, 0, 49, 0
2,19078, Note_on_c, 0, 78, 76
2,19084, Note_on_c, 0, 76, 0
2,19172, Note_on_c, 0, 52, 73
2,19179, Note_on_c, 0, 80, 78
2,19208, Note_on_c, 0, 78, 0
2,19215, Note_on_c, 0, 52, 0
2,19256, Note_on_c, 0, 80, 0
2,19277, Note_on_c, 0, 76, 71
2,19350, Note_on_c, 0, 76, 0
2,19367, Note_on_c, 0, 46, 79
2,19386, Note_on_c, 0, 73, 74
2,19445, Note_on_c, 0, 46, 0
2,19456, Note_on_c, 0, 73, 0
2,19484, Note_on_c, 0, 71, 72
2,19574, Note_on_c, 0, 56, 81
2,19579, Note_on_c, 0, 71, 0
2,19585, Note_on_c, 0, 73, 76
2,19665, Note_on_c, 0, 73, 0
2,19675, Note_on_c, 0, 56, 0
2,19676, Note_on_c, 0, 75, 75
2,19806, Note_on_c, 0, 58, 80
2,19820, Note_on_c, 0, 55, 67
2,19820, Note_on_c, 0, 73, 65
2,19842, Note_on_c, 0, 75, 0
2,19860, Note_on_c, 0, 55, 0
2,19898, Note_on_c, 0, 73, 0
2,19924, Note_on_c, 0, 71, 67
2,20002, Note_on_c, 0, 71, 0
2,20023, Note_on_c, 0, 51, 61
2,20023, Note_on_c, 0, 73, 65
2,20065, Note_on_c, 0, 51, 0
2,20112, Note_on_c, 0, 75, 64
2,20129, Note_on_c, 0, 73, 0
2,20225, Note_on_c, 0, 75, 0
2,20231, Note_on_c, 0, 44, 69
2,20240, Note_on_c, 0, 71, 62
2,20312, Note_on_c, 0, 71, 0
2,20316, Note_on_c, 0, 44, 0
2,20331, Note_on_c, 0, 70, 61
2,20391, Note_on_c, 0, 70, 0
2,20435, Note_on_c, 0, 46, 66
2,20444, Note_on_c, 0, 71, 63
2,20484, Note_on_c, 0, 46, 0
2,20484, Note_on_c, 0, 58, 0
2,20514, Note_on_c, 0, 71, 0
2,20536, Note_on_c, 0, 73, 59
2,20652, Note_on_c, 0, 56, 72
2,20658, Note_on_c, 0, 47, 64
2,20661, Note_on_c, 0, 75, 62
2,20708, Note_on_c, 0, 47, 0
2,20729, Note_on_c, 0, 73, 0
2,20771, Note_on_c, 0, 76, 63
2,20784, Note_on_c, 0, 75, 0
2,20872, Note_on_c, 0, 46, 63
2,20876, Note_on_c, 0, 78, 69
2,20912, Note_on_c, 0, 46, 0
2,20913, Note_on_c, 0, 76, 0
2,20980, Note_on_c, 0, 75, 67
2,20980, Note_on_c, 0, 78, 0
2,21049, Note_on_c, 0, 75, 0
2,21085, Note_on_c, 0, 44, 76
2,21097, Note_on_c, 0, 71, 66
2,21127, Note_on_c, 0, 44, 0
2,21129, Note_on_c, 0, 56, 0
2,21169, Note_on_c, 0, 71, 0
2,21193, Note_on_c, 0, 69, 57
2,21242, Note_on_c, 0, 69, 0
2,21291, Note_on_c, 0, 54, 85
2,21300, Note_on_c, 0, 71, 72
2,21373, Note_on_c, 0, 71, 0
2,21374, Note_on_c, 0, 54, 0
2,21404, Note_on_c, 0, 73, 67
2,21518, Note_on_c, 0, 56, 74
2,21530, Note_on_c, 0, 53, 58
2,21538, Note_on_c, 0, 71, 65
2,21584, Note_on_c, 0, 53, 0
2,21594, Note_on_c, 0, 73, 0
2,21623, Note_on_c, 0, 71, 0
2,21646, Note_on_c, 0, 69, 65
2,21728, Note_on_c, 0, 69, 0
2,21748, Note_on_c, 0, 49, 56
2,21758, Note_on_c, 0, 71, 65
2,21784, Note_on_c, 0, 49, 0
2,21837, Note_on_c, 0, 73, 65
2,21844, Note_on_c, 0, 71, 0
2,21918, Note_on_c, 0, 73, 0
2,21949, Note_on_c, 0, 42, 64
2,21949, Note_on_c, 0, 69, 61
2,22004, Note_on_c, 0, 42, 0
2,22015, Note_on_c, 0, 69, 0
2,22040, Note_on_c, 0, 68, 58
2,22094, Note_on_c, 0, 68, 0
2,22152, Note_on_c, 0, 69, 63
2,22154, Note_on_c, 0, 44, 62
2,22197, Note_on_c, 0, 44, 0
2,22198, Note_on_c, 0, 56, 0
2,22229, Note_on_c, 0, 69, 0
2,22249, Note_on_c, 0, 71, 64
2,22364, Note_on_c, 0, 54, 69
2,22372, Note_on_c, 0, 45, 57
2,22374, Note_on_c, 0, 73, 71
2,22375, Note_on_c, 0, 71, 0
2,22424, Note_on_c, 0, 45, 0
2,22491, Note_on_c, 0, 75, 70
2,22498, Note_on_c, 0, 73, 0
2,22588, Note_on_c, 0, 44, 65
2,22597, Note_on_c, 0, 76, 72
2,22630, Note_on_c, 0, 44, 0
2,22631, Note_on_c, 0, 75, 0
2,22674, Note_on_c, 0, 76, 0
2,22694, Note_on_c, 0, 73, 71
2,22799, Note_on_c, 0, 42, 73
2,22803, Note_on_c, 0, 73, 0
2,22807, Note_on_c, 0, 75, 79
2,22832, Note_on_c, 0, 42, 0
2,22901, Note_on_c, 0, 75, 0
2,22908, Note_on_c, 0, 73, 80
2,22935, Note_on_c, 0, 54, 0
2,22997, Note_on_c, 0, 52, 72
2,23003, Note_on_c, 0, 75, 88
2,23017, Note_on_c, 0, 73, 0
2,23050, Note_on_c, 0, 52, 0
2,23068, Note_on_c, 0, 75, 0
2,23112, Note_on_c, 0, 76, 77
2,23204, Note_on_c, 0, 54, 67
2,23211, Note_on_c, 0, 51, 63
2,23219, Note_on_c, 0, 78, 81
2,23254, Note_on_c, 0, 76, 0
2,23259, Note_on_c, 0, 51, 0
2,23330, Note_on_c, 0, 80, 83
2,23382, Note_on_c, 0, 78, 0
2,23408, Note_on_c, 0, 49, 60
2,23424, Note_on_c, 0, 81, 83
2,23449, Note_on_c, 0, 49, 0
2,23458, Note_on_c, 0, 80, 0
2,23522, Note_on_c, 0, 78, 79
2,23527, Note_on_c, 0, 81, 0
2,23624, Note_on_c, 0, 48, 66
2,23631, Note_on_c, 0, 80, 87
2,23640, Note_on_c, 0, 78, 0
2,23669, Note_on_c, 0, 48, 0
2,23740, Note_on_c, 0, 78, 79
2,23769, Note_on_c, 0, 80, 0
2,23812, Note_on_c, 0, 78, 0
2,23835, Note_on_c, 0, 44, 66
2,23841, Note_on_c, 0, 76, 79
2,23881, Note_on_c, 0, 44, 0
2,23884, Note_on_c, 0, 54, 0
2,23925, Note_on_c, 0, 76, 0
2,23933, Note_on_c, 0, 75, 77
2,24052, Note_on_c, 0, 73, 79
2,24057, Note_on_c, 0, 45, 64
2,24059, Note_on_c, 0, 52, 70
2,24090, Note_on_c, 0, 45, 0
2,24108, Note_on_c, 0, 75, 0
2,24140, Note_on_c, 0, 52, 0
2,24140, Note_on_c, 0, 71, 75
2,24177, Note_on_c, 0, 73, 0
2,24217, Note_on_c, 0, 71, 0
2,24257, Note_on_c, 0, 61, 84
2,24261, Note_on_c, 0, 52, 70
2,24263, Note_on_c, 0, 69, 74
2,24295, Note_on_c, 0, 52, 0
2,24306, Note_on_c, 0, 61, 0
2,24321, Note_on_c, 0, 69, 0
2,24357, Note_on_c, 0, 68, 66
2,24437, Note_on_c, 0, 68, 0
2,24478, Note_on_c, 0, 66, 71
2,24483, Note_on_c, 0, 54, 75
2,24486, Note_on_c, 0, 63, 81
2,24540, Note_on_c, 0, 54, 0
2,24561, Note_on_c, 0, 52, 65
2,24564, Note_on_c, 0, 68, 71
2,24577, Note_on_c, 0, 66, 0
2,24663, Note_on_c, 0, 69, 71
2,24677, Note_on_c, 0, 68, 0
2,24680, Note_on_c, 0, 52, 0
2,24681, Note_on_c, 0, 54, 71
2,24743, Note_on_c, 0, 69, 0
2,24779, Note_on_c, 0, 66, 76
2,24821, Note_on_c, 0, 63, 0
2,24822, Note_on_c, 0, 66, 0
2,24901, Note_on_c, 0, 56, 65
2,24904, Note_on_c, 0, 54, 0
2,24912, Note_on_c, 0, 63, 70
2,24939, Note_on_c, 0, 56, 0
2,25004, Note_on_c, 0, 56, 72
2,25080, Note_on_c, 0, 56, 0
2,25097, Note_on_c, 0, 58, 68
2,25100, Note_on_c, 0, 44, 58
2,25110, Note_on_c, 0, 68, 74
2,25136, Note_on_c, 0, 63, 0
2,25146, Note_on_c, 0, 58, 0
2,25149, Note_on_c, 0, 44, 0
2,25212, Note_on_c, 0, 60, 68
2,25300, Note_on_c, 0, 68, 0
2,25303, Note_on_c, 0, 49, 60
2,25309, Note_on_c, 0, 60, 0
2,25313, Note_on_c, 0, 64, 69
2,25321, Control_c, 0, 64, 28
2,25323, Note_on_c, 0, 61, 58
2,25337, Control_c, 0, 64, 53
2,25349, Note_on_c, 0, 49, 0
2,25353, Control_c, 0, 64, 59
2,25358, Note_on_c, 0, 64, 0
2,25360, Note_on_c, 0, 61, 0
2,25368, Control_c, 0, 64, 62
2,25382, Control_c, 0, 64, 63
2,25398, Control_c, 0, 64, 65
2,25413, Control_c, 0, 64, 65
2,25424, Note_on_c, 0, 60, 61
2,25444, Control_c, 0, 64, 65
2,25458, Control_c, 0, 64, 62
2,25474, Control_c, 0, 64, 56
2,25489, Control_c, 0, 64, 40
2,25498, Note_on_c, 0, 60, 0
2,25504, Control_c, 0, 64, 0
2,25510, Note_on_c, 0, 68, 69
2,25516, Note_on_c, 0, 61, 69
2,25555, Note_on_c, 0, 68, 0
2,25595, Note_on_c, 0, 61, 0
2,25618, Note_on_c, 0, 63, 74
2,25687, Note_on_c, 0, 63, 0
2,25715, Note_on_c, 0, 64, 68
2,25716, Note_on_c, 0, 73, 85
2,25778, Note_on_c, 0, 73, 0
2,25796, Note_on_c, 0, 64, 0
2,25811, Note_on_c, 0, 66, 65
2,25887, Note_on_c, 0, 66, 0
2,25910, Note_on_c, 0, 71, 84
2,25917, Note_on_c, 0, 68, 68
2,25952, Note_on_c, 0, 71, 0
2,25972, Note_on_c, 0, 68, 0
2,26009, Note_on_c, 0, 64, 69
2,26094, Note_on_c, 0, 64, 0
2,26118, Note_on_c, 0, 61, 69
2,26119, Note_on_c, 0, 76, 72
2,26186, Note_on_c, 0, 61, 0
2,26210, Note_on_c, 0, 75, 74
2,26226, Note_on_c, 0, 76, 0
2,26251, Note_on_c, 0, 59, 17
2,26273, Note_on_c, 0, 60, 19
2,26308, Note_on_c, 0, 59, 0
2,26314, Note_on_c, 0, 73, 80
2,26322, Note_on_c, 0, 60, 0
2,26322, Note_on_c, 0, 61, 66
2,26331, Note_on_c, 0, 75, 0
2,26380, Note_on_c, 0, 61, 0
2,26407, Note_on_c, 0, 71, 76
2,26411, Note_on_c, 0, 73, 0
2,26417, Note_on_c, 0, 63, 62
2,26449, Note_on_c, 0, 71, 0
2,26499, Note_on_c, 0, 63, 0
2,26517, Note_on_c, 0, 61, 64
2,26525, Note_on_c, 0, 69, 66
2,26568, Note_on_c, 0, 61, 0
2,26614, Note_on_c, 0, 59, 56
2,26691, Note_on_c, 0, 59, 0
2,26696, Note_on_c, 0, 61, 59
2,26753, Note_on_c, 0, 61, 0
2,26792, Note_on_c, 0, 63, 64
2,26843, Note_on_c, 0, 63, 0
2,26889, Note_on_c, 0, 59, 61
2,26952, Note_on_c, 0, 59, 0
2,26980, Note_on_c, 0, 56, 55
2,27051, Note_on_c, 0, 56, 0
2,27088, Note_on_c, 0, 57, 58
2,27117, Note_on_c, 0, 63, 66
2,27134, Note_on_c, 0, 57, 0
2,27150, Note_on_c, 0, 63, 0
2,27155, Note_on_c, 0, 69, 0
2,27188, Note_on_c, 0, 59, 59
2,27263, Note_on_c, 0, 59, 0
2,27304, Note_on_c, 0, 69, 72
2,27306, Note_on_c, 0, 61, 62
2,27346, Note_on_c, 0, 69, 0
2,27362, Note_on_c, 0, 61, 0
2,27409, Note_on_c, 0, 63, 61
2,27468, Note_on_c, 0, 63, 0
2,27495, Note_on_c, 0, 68, 71
2,27510, Note_on_c, 0, 64, 64
2,27530, Note_on_c, 0, 68, 0
2,27556, Note_on_c, 0, 64, 0
2,27606, Note_on_c, 0, 61, 55
2,27644, Note_on_c, 0, 61, 0
2,27693, Note_on_c, 0, 73, 74
2,27702, Note_on_c, 0, 57, 59
2,27752, Note_on_c, 0, 57, 0
2,27775, Note_on_c, 0, 73, 0
2,27781, Note_on_c, 0, 56, 53
2,27797, Note_on_c, 0, 71, 62
2,27848, Note_on_c, 0, 56, 0
2,27885, Note_on_c, 0, 57, 54
2,27891, Note_on_c, 0, 69, 67
2,27892, Note_on_c, 0, 71, 0
2,27943, Note_on_c, 0, 57, 0
2,27957, Note_on_c, 0, 69, 0
2,27988, Note_on_c, 0, 59, 56
2,27997, Note_on_c, 0, 68, 47
2,28037, Note_on_c, 0, 68, 0
2,28048, Note_on_c, 0, 59, 0
2,28088, Note_on_c, 0, 57, 55
2,28090, Note_on_c, 0, 66, 64
2,28159, Note_on_c, 0, 57, 0
2,28195, Note_on_c, 0, 56, 56
2,28250, Note_on_c, 0, 56, 0
2,28291, Note_on_c, 0, 57, 57
2,28339, Note_on_c, 0, 57, 0
2,28376, Note_on_c, 0, 59, 59
2,28446, Note_on_c, 0, 59, 0
2,28479, Note_on_c, 0, 56, 68
2,28527, Note_on_c, 0, 56, 0
2,28570, Note_on_c, 0, 54, 66
2,28641, Note_on_c, 0, 66, 0
2,28652, Note_on_c, 0, 54, 0
2,28662, Note_on_c, 0, 56, 64
2,28679, Note_on_c, 0, 64, 73
2,28730, Note_on_c, 0, 56, 0
2,28751, Note_on_c, 0, 64, 0
2,28754, Note_on_c, 0, 57, 65
2,28769, Note_on_c, 0, 63, 67
2,28831, Note_on_c, 0, 57, 0
2,28831, Note_on_c, 0, 63, 0
2,28870, Note_on_c, 0, 56, 73
2,28871, Note_on_c, 0, 64, 73
2,28898, Note_on_c, 0, 56, 0
2,28937, Note_on_c, 0, 64, 0
2,28973, Note_on_c, 0, 66, 60
2,29081, Note_on_c, 0, 68, 65
2,29086, Note_on_c, 0, 59, 73
2,29090, Note_on_c, 0, 52, 67
2,29096, Note_on_c, 0, 66, 0
2,29124, Note_on_c, 0, 52, 0
2,29139, Note_on_c, 0, 68, 0
2,29173, Note_on_c, 0, 64, 60
2,29295, Note_on_c, 0, 59, 0
2,29298, Note_on_c, 0, 54, 81
2,29311, Note_on_c, 0, 61, 61
2,29333, Note_on_c, 0, 64, 0
2,29393, Note_on_c, 0, 61, 0
2,29417, Note_on_c, 0, 68, 58
2,29518, Note_on_c, 0, 57, 64
2,29530, Note_on_c, 0, 66, 63
2,29538, Note_on_c, 0, 68, 0
2,29575, Note_on_c, 0, 66, 0
2,29597, Note_on_c, 0, 57, 0
2,29612, Note_on_c, 0, 56, 72
2,29621, Note_on_c, 0, 64, 69
2,29622, Note_on_c, 0, 54, 0
2,29672, Note_on_c, 0, 56, 0
2,29721, Note_on_c, 0, 57, 75
2,29729, Note_on_c, 0, 64, 0
2,29732, Note_on_c, 0, 63, 68
2,29774, Note_on_c, 0, 57, 0
2,29829, Note_on_c, 0, 47, 63
2,29830, Note_on_c, 0, 61, 75
2,29840, Note_on_c, 0, 63, 0
2,29905, Note_on_c, 0, 47, 0
2,29928, Note_on_c, 0, 49, 64
2,29933, Note_on_c, 0, 59, 73
2,29959, Note_on_c, 0, 61, 0
2,29983, Note_on_c, 0, 49, 0
2,29990, Note_on_c, 0, 59, 0
2,30021, Note_on_c, 0, 51, 73
2,30025, Note_on_c, 0, 57, 67
2,30078, Note_on_c, 0, 51, 0
2,30120, Note_on_c, 0, 52, 71
2,30123, Note_on_c, 0, 57, 0
2,30131, Note_on_c, 0, 56, 76
2,30186, Note_on_c, 0, 52, 0
2,30195, Note_on_c, 0, 56, 0
2,30224, Note_on_c, 0, 51, 72
2,30233, Note_on_c, 0, 59, 74
2,30270, Note_on_c, 0, 51, 0
2,30314, Note_on_c, 0, 59, 0
2,30317, Note_on_c, 0, 52, 72
2,30326, Note_on_c, 0, 61, 80
2,30380, Note_on_c, 0, 52, 0
2,30419, Note_on_c, 0, 63, 81
2,30423, Note_on_c, 0, 54, 68
2,30428, Note_on_c, 0, 61, 0
2,30480, Note_on_c, 0, 63, 0
2,30493, Note_on_c, 0, 54, 0
2,30515, Note_on_c, 0, 56, 73
2,30522, Note_on_c, 0, 64, 80
2,30580, Note_on_c, 0, 56, 0
2,30595, Note_on_c, 0, 64, 0
2,30613, Note_on_c, 0, 57, 72
2,30616, Note_on_c, 0, 66, 77
2,30673, Note_on_c, 0, 57, 0
2,30711, Note_on_c, 0, 59, 68
2,30711, Note_on_c, 0, 68, 82
2,30723, Note_on_c, 0, 66, 0
2,30762, Note_on_c, 0, 59, 0
2,30774, Note_on_c, 0, 68, 0
2,30800, Note_on_c, 0, 56, 70
2,30800, Note_on_c, 0, 64, 84
2,30854, Note_on_c, 0, 56, 0
2,30930, Note_on_c, 0, 52, 65
2,30941, Note_on_c, 0, 73, 91
2,30989, Note_on_c, 0, 64, 0
2,31007, Note_on_c, 0, 52, 0
2,31034, Note_on_c, 0, 51, 58
2,31091, Note_on_c, 0, 51, 0
2,31133, Note_on_c, 0, 52, 66
2,31201, Note_on_c, 0, 52, 0
2,31234, Note_on_c, 0, 54, 69
2,31294, Note_on_c, 0, 54, 0
2,31294, Note_on_c, 0, 73, 0
2,31332, Note_on_c, 0, 52, 72
2,31392, Note_on_c, 0, 52, 0
2,31429, Note_on_c, 0, 51, 74
2,31445, Note_on_c, 0, 66, 78
2,31466, Note_on_c, 0, 51, 0
2,31521, Note_on_c, 0, 52, 68
2,31530, Note_on_c, 0, 66, 0
2,31536, Note_on_c, 0, 68, 80
2,31608, Note_on_c, 0, 54, 78
2,31610, Note_on_c, 0, 52, 0
2,31629, Note_on_c, 0, 70, 75
2,31640, Note_on_c, 0, 68, 0
2,31660, Note_on_c, 0, 54, 0
2,31695, Note_on_c, 0, 70, 0
2,31735, Note_on_c, 0, 51, 71
2,31745, Note_on_c, 0, 71, 80
2,31769, Note_on_c, 0, 51, 0
2,31815, Note_on_c, 0, 71, 0
2,31837, Note_on_c, 0, 70, 73
2,31897, Note_on_c, 0, 70, 0
2,31938, Note_on_c, 0, 54, 71
2,31939, Note_on_c, 0, 71, 81
2,31971, Note_on_c, 0, 54, 0
2,32014, Note_on_c, 0, 71, 0
2,32059, Note_on_c, 0, 72, 59
2,32129, Note_on_c, 0, 72, 0
2,32132, Note_on_c, 0, 75, 79
2,32138, Note_on_c, 0, 47, 71
2,32172, Note_on_c, 0, 47, 0
2,32192, Note_on_c, 0, 75, 0
2,32230, Note_on_c, 0, 76, 72
2,32336, Note_on_c, 0, 64, 83
2,32344, Note_on_c, 0, 78, 75
2,32349, Note_on_c, 0, 76, 0
2,32353, Note_on_c, 0, 52, 68
2,32388, Note_on_c, 0, 64, 0
2,32441, Note_on_c, 0, 78, 0
2,32461, Note_on_c, 0, 80, 38
2,32468, Note_on_c, 0, 79, 48
2,32475, Note_on_c, 0, 80, 0
2,32489, Note_on_c, 0, 79, 0
2,32582, Note_on_c, 0, 66, 84
2,32600, Note_on_c, 0, 69, 67
2,32706, Note_on_c, 0, 69, 0
2,32718, Note_on_c, 0, 68, 70
2,32783, Note_on_c, 0, 52, 0
2,32803, Note_on_c, 0, 51, 70
2,32809, Note_on_c, 0, 69, 74
2,32884, Note_on_c, 0, 51, 0
2,32887, Note_on_c, 0, 68, 0
2,32899, Note_on_c, 0, 69, 0
2,32912, Note_on_c, 0, 71, 75
2,32920, Note_on_c, 0, 66, 0
2,32921, Note_on_c, 0, 49, 69
2,32998, Note_on_c, 0, 49, 0
2,33011, Note_on_c, 0, 51, 76
2,33019, Note_on_c, 0, 69, 77
2,33046, Note_on_c, 0, 71, 0
2,33071, Note_on_c, 0, 51, 0
2,33093, Note_on_c, 0, 69, 0
2,33106, Note_on_c, 0, 59, 75
2,33113, Note_on_c, 0, 68, 72
2,33141, Note_on_c, 0, 59, 0
2,33186, Note_on_c, 0, 68, 0
2,33220, Note_on_c, 0, 59, 65
2,33223, Note_on_c, 0, 69, 76
2,33229, Note_on_c, 0, 61, 81
2,33258, Note_on_c, 0, 59, 0
2,33313, Note_on_c, 0, 69, 0
2,33316, Note_on_c, 0, 61, 0
2,33319, Note_on_c, 0, 63, 77
2,33322, Note_on_c, 0, 71, 73
2,33385, Note_on_c, 0, 63, 0
2,33426, Note_on_c, 0, 64, 79
2,33434, Note_on_c, 0, 68, 79
2,33450, Note_on_c, 0, 71, 0
2,33464, Note_on_c, 0, 60, 48
2,33495, Note_on_c, 0, 64, 0
2,33508, Note_on_c, 0, 68, 0
2,33526, Note_on_c, 0, 66, 76
2,33546, Note_on_c, 0, 63, 53
2,33599, Note_on_c, 0, 63, 0
2,33611, Note_on_c, 0, 60, 0
2,33619, Note_on_c, 0, 68, 81
2,33625, Note_on_c, 0, 64, 72
2,33634, Note_on_c, 0, 66, 0
2,33685, Note_on_c, 0, 68, 0
2,33724, Note_on_c, 0, 66, 77
2,33728, Note_on_c, 0, 64, 0
2,33728, Note_on_c, 0, 69, 75
2,33758, Note_on_c, 0, 66, 0
2,33798, Note_on_c, 0, 69, 0
2,33818, Note_on_c, 0, 68, 77
2,33830, Note_on_c, 0, 71, 83
2,33884, Note_on_c, 0, 68, 0
2,33919, Note_on_c, 0, 69, 73
2,33927, Note_on_c, 0, 73, 80
2,33938, Note_on_c, 0, 71, 0
2,33976, Note_on_c, 0, 69, 0
2,34028, Note_on_c, 0, 56, 76
2,34035, Note_on_c, 0, 74, 68
2,34040, Note_on_c, 0, 71, 85
2,34058, Note_on_c, 0, 56, 0
2,34129, Note_on_c, 0, 71, 0
2,34135, Note_on_c, 0, 68, 75
2,34138, Note_on_c, 0, 73, 0
2,34148, Note_on_c, 0, 74, 0
2,34208, Note_on_c, 0, 68, 0
2,34239, Note_on_c, 0, 57, 80
2,34243, Note_on_c, 0, 64, 82
2,34281, Note_on_c, 0, 57, 0
2,34329, Note_on_c, 0, 64, 0
2,34334, Note_on_c, 0, 63, 81
2,34410, Note_on_c, 0, 63, 0
2,34447, Note_on_c, 0, 56, 74
2,34450, Note_on_c, 0, 73, 85
2,34451, Note_on_c, 0, 64, 81
2,34486, Note_on_c, 0, 56, 0
2,34511, Note_on_c, 0, 64, 0
2,34538, Note_on_c, 0, 71, 76
2,34552, Note_on_c, 0, 73, 0
2,34555, Note_on_c, 0, 66, 70
2,34655, Note_on_c, 0, 66, 0
2,34665, Note_on_c, 0, 73, 86
2,34675, Note_on_c, 0, 64, 78
2,34679, Note_on_c, 0, 57, 54
2,34692, Note_on_c, 0, 71, 0
2,34708, Note_on_c, 0, 57, 0
2,34717, Note_on_c, 0, 64, 0
2,34797, Note_on_c, 0, 63, 64
2,34858, Note_on_c, 0, 63, 0
2,34877, Note_on_c, 0, 52, 71
2,34881, Note_on_c, 0, 64, 76
2,34918, Note_on_c, 0, 52, 0
2,34939, Note_on_c, 0, 64, 0
2,34980, Note_on_c, 0, 66, 73
2,35089, Note_on_c, 0, 54, 79
2,35108, Note_on_c, 0, 63, 69
2,35119, Note_on_c, 0, 66, 0
2,35190, Note_on_c, 0, 63, 0
2,35198, Note_on_c, 0, 61, 70
2,35274, Note_on_c, 0, 61, 0
2,35292, Note_on_c, 0, 73, 0
2,35298, Note_on_c, 0, 54, 0
2,35303, Note_on_c, 0, 63, 70
2,35309, Note_on_c, 0, 57, 76
2,35346, Note_on_c, 0, 57, 0
2,35367, Note_on_c, 0, 63, 0
2,35398, Note_on_c, 0, 64, 69
2,35489, Note_on_c, 0, 64, 0
2,35511, Note_on_c, 0, 71, 76
2,35518, Note_on_c, 0, 66, 62
2,35531, Note_on_c, 0, 56, 75
2,35565, Note_on_c, 0, 56, 0
2,35572, Note_on_c, 0, 66, 0
2,35630, Note_on_c, 0, 68, 64
2,35734, Note_on_c, 0, 69, 70
2,35736, Note_on_c, 0, 54, 79
2,35762, Note_on_c, 0, 68, 0
2,35768, Note_on_c, 0, 54, 0
2,35823, Note_on_c, 0, 69, 0
2,35839, Note_on_c, 0, 66, 58
2,35927, Note_on_c, 0, 66, 0
2,35949, Note_on_c, 0, 52, 59
2,35960, Note_on_c, 0, 62, 66
2,36043, Note_on_c, 0, 62, 0
2,36064, Note_on_c, 0, 61, 63
2,36150, Note_on_c, 0, 61, 0
2,36159, Note_on_c, 0, 54, 75
2,36167, Note_on_c, 0, 52, 0
2,36177, Note_on_c, 0, 62, 69
2,36210, Note_on_c, 0, 54, 0
2,36219, Note_on_c, 0, 71, 0
2,36229, Note_on_c, 0, 62, 0
2,36274, Note_on_c, 0, 64, 66
2,36362, Note_on_c, 0, 64, 0
2,36389, Note_on_c, 0, 56, 71
2,36395, Note_on_c, 0, 71, 80
2,36413, Note_on_c, 0, 62, 62
2,36428, Note_on_c, 0, 56, 0
2,36449, Note_on_c, 0, 62, 0
2,36510, Note_on_c, 0, 61, 59
2,36577, Note_on_c, 0, 61, 0
2,36591, Note_on_c, 0, 52, 76
2,36610, Note_on_c, 0, 62, 70
2,36633, Note_on_c, 0, 52, 0
2,36662, Note_on_c, 0, 62, 0
2,36697, Note_on_c, 0, 64, 74
2,36815, Note_on_c, 0, 57, 77
2,36837, Note_on_c, 0, 64, 0
2,36838, Note_on_c, 0, 61, 67
2,36890, Note_on_c, 0, 61, 0
2,36916, Note_on_c, 0, 59, 74
2,36971, Note_on_c, 0, 59, 0
2,37000, Note_on_c, 0, 57, 0
2,37040, Note_on_c, 0, 61, 69
2,37043, Note_on_c, 0, 59, 83
2,37096, Note_on_c, 0, 59, 0
2,37104, Note_on_c, 0, 61, 0
2,37137, Note_on_c, 0, 71, 0
2,37151, Note_on_c, 0, 62, 74
2,37217, Note_on_c, 0, 62, 0
2,37265, Note_on_c, 0, 69, 78
2,37266, Note_on_c, 0, 61, 78
2,37272, Note_on_c, 0, 64, 66
2,37308, Note_on_c, 0, 64, 0
2,37329, Note_on_c, 0, 61, 0
2,37377, Note_on_c, 0, 66, 70
2,37468, Note_on_c, 0, 68, 74
2,37477, Note_on_c, 0, 59, 79
2,37486, Note_on_c, 0, 66, 0
2,37509, Note_on_c, 0, 59, 0
2,37558, Note_on_c, 0, 68, 0
2,37581, Note_on_c, 0, 64, 72
2,37692, Note_on_c, 0, 61, 70
2,37694, Note_on_c, 0, 64, 0
2,37695, Note_on_c, 0, 57, 76
2,37733, Note_on_c, 0, 57, 0
2,37761, Note_on_c, 0, 61, 0
2,37798, Note_on_c, 0, 59, 61
2,37857, Note_on_c, 0, 59, 0
2,37902, Note_on_c, 0, 52, 70
2,37904, Note_on_c, 0, 61, 69
2,37942, Note_on_c, 0, 52, 0
2,37954, Note_on_c, 0, 69, 0
2,37968, Note_on_c, 0, 61, 0
2,38016, Note_on_c, 0, 62, 65
2,38077, Note_on_c, 0, 62, 0
2,38117, Note_on_c, 0, 54, 75
2,38124, Note_on_c, 0, 69, 72
2,38125, Note_on_c, 0, 61, 66
2,38158, Note_on_c, 0, 54, 0
2,38163, Note_on_c, 0, 61, 0
2,38225, Note_on_c, 0, 59, 56
2,38277, Note_on_c, 0, 59, 0
2,38325, Note_on_c, 0, 49, 61
2,38327, Note_on_c, 0, 61, 64
2,38378, Note_on_c, 0, 49, 0
2,38379, Note_on_c, 0, 61, 0
2,38436, Note_on_c, 0, 62, 57
2,38472, Note_on_c, 0, 62, 0
2,38543, Note_on_c, 0, 51, 60
2,38557, Note_on_c, 0, 59, 63
2,38593, Note_on_c, 0, 51, 0
2,38619, Note_on_c, 0, 59, 0
2,38630, Note_on_c, 0, 69, 0
2,38659, Note_on_c, 0, 57, 62
2,38751, Note_on_c, 0, 57, 0
2,38754, Note_on_c, 0, 47, 57
2,38761, Note_on_c, 0, 59, 63
2,38795, Note_on_c, 0, 47, 0
2,38849, Note_on_c, 0, 59, 0
2,38852, Note_on_c, 0, 61, 70
2,38879, Note_on_c, 0, 61, 0
2,38960, Note_on_c, 0, 68, 70
2,38974, Note_on_c, 0, 59, 61
2,38977, Note_on_c, 0, 52, 54
2,38999, Note_on_c, 0, 68, 0
2,39025, Note_on_c, 0, 59, 0
2,39072, Note_on_c, 0, 57, 55
2,39158, Note_on_c, 0, 57, 0
2,39162, Note_on_c, 0, 59, 64
2,39173, Note_on_c, 0, 76, 80
2,39198, Note_on_c, 0, 76, 0
2,39223, Note_on_c, 0, 59, 0
2,39264, Note_on_c, 0, 61, 59
2,39307, Note_on_c, 0, 80, 41
2,39350, Note_on_c, 0, 80, 0
2,39353, Note_on_c, 0, 61, 0
2,39384, Control_c, 0, 64, 48
2,39399, Control_c, 0, 64, 64
2,39399, Note_on_c, 0, 57, 62
2,39411, Note_on_c, 0, 78, 86
2,39414, Control_c, 0, 64, 74
2,39430, Control_c, 0, 64, 100
2,39445, Control_c, 0, 64, 127
2,39467, Note_on_c, 0, 78, 0
2,39487, Note_on_c, 0, 57, 0
2,39503, Note_on_c, 0, 56, 63
2,39598, Note_on_c, 0, 56, 0
2,39607, Note_on_c, 0, 52, 0
2,39608, Note_on_c, 0, 57, 66
2,39683, Note_on_c, 0, 57, 0
2,39708, Note_on_c, 0, 59, 63
2,39820, Note_on_c, 0, 57, 77
2,39824, Control_c, 0, 64, 108
2,39824, Note_on_c, 0, 51, 76
2,39824, Note_on_c, 0, 59, 0
2,39839, Control_c, 0, 64, 80
2,39854, Control_c, 0, 64, 65
2,39870, Control_c, 0, 64, 0
2,39904, Note_on_c, 0, 57, 0
2,39913, Note_on_c, 0, 56, 73
2,39928, Note_on_c, 0, 71, 78
2,40001, Note_on_c, 0, 71, 0
2,40007, Note_on_c, 0, 56, 0
2,40007, Note_on_c, 0, 57, 74
2,40017, Note_on_c, 0, 73, 88
2,40082, Note_on_c, 0, 57, 0
2,40110, Note_on_c, 0, 75, 89
2,40117, Note_on_c, 0, 73, 0
2,40123, Note_on_c, 0, 59, 69
2,40171, Note_on_c, 0, 75, 0
2,40229, Note_on_c, 0, 76, 83
2,40237, Note_on_c, 0, 56, 77
2,40240, Note_on_c, 0, 59, 0
2,40298, Note_on_c, 0, 56, 0
2,40312, Note_on_c, 0, 76, 0
2,40331, Note_on_c, 0, 75, 83
2,40388, Note_on_c, 0, 75, 0
2,40405, Note_on_c, 0, 51, 0
2,40431, Note_on_c, 0, 59, 79
2,40433, Note_on_c, 0, 76, 84
2,40487, Note_on_c, 0, 59, 0
2,40524, Note_on_c, 0, 76, 0
2,40532, Note_on_c, 0, 78, 84
2,40639, Note_on_c, 0, 52, 69
2,40640, Note_on_c, 0, 49, 69
2,40640, Note_on_c, 0, 80, 87
2,40682, Note_on_c, 0, 78, 0
2,40718, Note_on_c, 0, 52, 0
2,40744, Note_on_c, 0, 81, 81
2,40759, Note_on_c, 0, 80, 0
2,40833, Note_on_c, 0, 49, 0
2,40845, Note_on_c, 0, 56, 80
2,40854, Note_on_c, 0, 83, 85
2,40892, Note_on_c, 0, 81, 0
2,40960, Note_on_c, 0, 80, 87
2,40962, Note_on_c, 0, 83, 0
2,41075, Note_on_c, 0, 42, 72
2,41088, Note_on_c, 0, 81, 89
2,41092, Note_on_c, 0, 56, 0
2,41099, Note_on_c, 0, 80, 0
2,41207, Note_on_c, 0, 80, 85
2,41210, Note_on_c, 0, 81, 0
2,41266, Note_on_c, 0, 42, 0
2,41304, Note_on_c, 0, 54, 81
2,41312, Note_on_c, 0, 81, 91
2,41337, Note_on_c, 0, 80, 0
2,41393, Note_on_c, 0, 49, 74
2,41408, Note_on_c, 0, 83, 89
2,41415, Note_on_c, 0, 81, 0
2,41473, Note_on_c, 0, 49, 0
2,41493, Note_on_c, 0, 51, 76
2,41512, Note_on_c, 0, 81, 92
2,41528, Note_on_c, 0, 51, 0
2,41529, Note_on_c, 0, 83, 0
2,41590, Note_on_c, 0, 81, 0
2,41610, Note_on_c, 0, 80, 82
2,41712, Note_on_c, 0, 47, 62
2,41716, Note_on_c, 0, 81, 84
2,41737, Note_on_c, 0, 80, 0
2,41763, Note_on_c, 0, 47, 0
2,41805, Note_on_c, 0, 81, 0
2,41814, Note_on_c, 0, 83, 86
2,41918, Note_on_c, 0, 52, 71
2,41923, Note_on_c, 0, 80, 86
2,41929, Note_on_c, 0, 83, 0
2,41960, Note_on_c, 0, 52, 0
2,42012, Note_on_c, 0, 80, 0
2,42019, Note_on_c, 0, 78, 78
2,42129, Note_on_c, 0, 47, 59
2,42129, Note_on_c, 0, 80, 75
2,42178, Note_on_c, 0, 47, 0
2,42236, Note_on_c, 0, 78, 0
2,42239, Note_on_c, 0, 81, 72
2,42240, Note_on_c, 0, 80, 0
2,42339, Note_on_c, 0, 54, 0
2,42340, Note_on_c, 0, 49, 67
2,42342, Note_on_c, 0, 52, 69
2,42351, Note_on_c, 0, 80, 84
2,42376, Note_on_c, 0, 81, 0
2,42393, Note_on_c, 0, 49, 0
2,42448, Note_on_c, 0, 78, 69
2,42479, Note_on_c, 0, 80, 0
2,42518, Note_on_c, 0, 78, 0
2,42550, Note_on_c, 0, 44, 72
2,42555, Note_on_c, 0, 76, 73
2,42627, Note_on_c, 0, 76, 0
2,42632, Note_on_c, 0, 44, 0
2,42652, Note_on_c, 0, 75, 70
2,42763, Note_on_c, 0, 73, 85
2,42772, Note_on_c, 0, 45, 71
2,42839, Note_on_c, 0, 75, 0
2,42863, Note_on_c, 0, 52, 0
2,42870, Note_on_c, 0, 71, 76
2,42870, Note_on_c, 0, 73, 0
2,42911, Note_on_c, 0, 45, 0
2,42979, Note_on_c, 0, 73, 80
2,42985, Note_on_c, 0, 64, 77
2,43023, Note_on_c, 0, 64, 0
2,43035, Note_on_c, 0, 71, 0
2,43077, Note_on_c, 0, 74, 76
2,43081, Note_on_c, 0, 40, 62
2,43096, Note_on_c, 0, 73, 0
2,43130, Note_on_c, 0, 40, 0
2,43182, Note_on_c, 0, 42, 80
2,43194, Note_on_c, 0, 69, 72
2,43195, Note_on_c, 0, 73, 83
2,43221, Note_on_c, 0, 74, 0
2,43226, Note_on_c, 0, 42, 0
2,43298, Note_on_c, 0, 73, 0
2,43305, Note_on_c, 0, 71, 71
2,43405, Note_on_c, 0, 37, 76
2,43411, Note_on_c, 0, 73, 80
2,43461, Note_on_c, 0, 71, 0
2,43482, Note_on_c, 0, 37, 0
2,43523, Note_on_c, 0, 74, 69
2,43529, Note_on_c, 0, 73, 0
2,43621, Note_on_c, 0, 39, 81
2,43635, Note_on_c, 0, 74, 0
2,43636, Note_on_c, 0, 71, 79
2,43651, Note_on_c, 0, 69, 0
2,43683, Note_on_c, 0, 39, 0
2,43736, Note_on_c, 0, 71, 0
2,43738, Note_on_c, 0, 73, 82
2,43857, Note_on_c, 0, 59, 86
2,43866, Note_on_c, 0, 75, 86
2,43904, Note_on_c, 0, 73, 0
2,43914, Note_on_c, 0, 59, 0
2,43982, Note_on_c, 0, 75, 0
2,43989, Note_on_c, 0, 71, 83
2,44128, Note_on_c, 0, 61, 78
2,44138, Note_on_c, 0, 76, 84
2,44145, Note_on_c, 0, 71, 0
2,44157, Note_on_c, 0, 68, 62
2,44200, Note_on_c, 0, 68, 0
2,44255, Note_on_c, 0, 64, 75
2,44354, Note_on_c, 0, 66, 79
2,44367, Note_on_c, 0, 64, 0
2,44455, Note_on_c, 0, 68, 79
2,44479, Note_on_c, 0, 66, 0
2,44493, Note_on_c, 0, 61, 0
2,44545, Note_on_c, 0, 68, 0
2,44573, Note_on_c, 0, 69, 77
2,44677, Note_on_c, 0, 54, 69
2,44689, Note_on_c, 0, 71, 83
2,44723, Note_on_c, 0, 69, 0
2,44794, Note_on_c, 0, 54, 0
2,44824, Note_on_c, 0, 56, 74
2,44825, Note_on_c, 0, 73, 88
2,44829, Note_on_c, 0, 76, 0
2,44867, Note_on_c, 0, 71, 0
2,44944, Note_on_c, 0, 56, 0
2,44980, Note_on_c, 0, 57, 60
2,45160, Note_on_c, 0, 57, 0
2,45177, Note_on_c, 0, 59, 71
2,45177, Note_on_c, 0, 75, 86
2,45212, Note_on_c, 0, 73, 0
2,45317, Note_on_c, 0, 59, 0
2,45359, Note_on_c, 0, 73, 81
2,45569, Note_on_c, 0, 47, 57
2,45569, Note_on_c, 0, 71, 77
2,45637, Note_on_c, 0, 73, 0
2,45747, Note_on_c, 0, 47, 0
2,45778, Note_on_c, 0, 71, 0
2,45787, Note_on_c, 0, 69, 71
2,46161, Note_on_c, 0, 40, 54
2,46166, Note_on_c, 0, 76, 72
2,46169, Note_on_c, 0, 68, 61
2,46195, Note_on_c, 0, 75, 0
2,46202, Note_on_c, 0, 69, 0
2,47928, Note_on_c, 0, 76, 0
2,47931, Note_on_c, 0, 68, 0
2,47961, Note_on_c, 0, 40, 0
2,47962, End_track
0, 0, End_of_file
