0, 0, Header, 1, 2, 384
1, 0, Start_track
1, 0, Tempo, 500000
1, 0, Time_signature, 4, 2, 24, 8
1, 1, End_track
2, 0, Start_track
2, 0, Title_t, "7.7.13 Group 2"
2, 0, Program_c, 0, 0
2, 0, Control_c, 0, 64, 0
2, 0, Control_c, 0, 67, 0
2, 766, Note_on_c, 0, 64, 46
2, 785, Note_on_c, 0, 52, 35
2, 980, Note_on_c, 0, 68, 72
2, 1022, Note_on_c, 0, 64, 0
2, 1066, Control_c, 0, 64, 16
2, 1082, Control_c, 0, 64, 28
2, 1097, Control_c, 0, 64, 35
2, 1112, Control_c, 0, 64, 40
2, 1127, Control_c, 0, 64, 45
2, 1142, Control_c, 0, 64, 48
2, 1158, Control_c, 0, 64, 50
2, 1166, Note_on_c, 0, 71, 81
2, 1173, Control_c, 0, 64, 51
2, 1194, Note_on_c, 0, 68, 0
2, 1311, Control_c, 0, 64, 50
2, 1325, Control_c, 0, 64, 50
2, 1340, Control_c, 0, 64, 49
2, 1350, Note_on_c, 0, 71, 0
2, 1356, Control_c, 0, 64, 49
2, 1362, Note_on_c, 0, 76, 73
2, 1378, Control_c, 0, 64, 48
2, 1378, Note_on_c, 0, 56, 48
2, 1394, Control_c, 0, 64, 47
2, 1408, Control_c, 0, 64, 45
2, 1422, Control_c, 0, 64, 41
2, 1438, Control_c, 0, 64, 36
2, 1452, Control_c, 0, 64, 26
2, 1468, Control_c, 0, 64, 0
2, 1554, Note_on_c, 0, 76, 0
2, 1556, Note_on_c, 0, 75, 82
2, 1604, Control_c, 0, 64, 21
2, 1619, Control_c, 0, 64, 32
2, 1635, Control_c, 0, 64, 38
2, 1650, Control_c, 0, 64, 44
2, 1665, Control_c, 0, 64, 47
2, 1681, Control_c, 0, 64, 50
2, 1696, Control_c, 0, 64, 52
2, 1711, Control_c, 0, 64, 54
2, 1727, Control_c, 0, 64, 55
2, 1742, Control_c, 0, 64, 56
2, 1751, Note_on_c, 0, 76, 78
2, 1757, Control_c, 0, 64, 57
2, 1792, Note_on_c, 0, 75, 0
2, 1914, Note_on_c, 0, 76, 0
2, 1926, Note_on_c, 0, 56, 0
2, 1955, Control_c, 0, 64, 56
2, 1955, Note_on_c, 0, 57, 39
2, 1964, Note_on_c, 0, 75, 54
2, 1970, Control_c, 0, 64, 55
2, 1985, Control_c, 0, 64, 53
2, 1990, Note_on_c, 0, 75, 0
2, 2001, Control_c, 0, 64, 52
2, 2005, Note_on_c, 0, 73, 73
2, 2016, Control_c, 0, 64, 51
2, 2031, Control_c, 0, 64, 49
2, 2038, Note_on_c, 0, 73, 0
2, 2046, Control_c, 0, 64, 45
2, 2054, Note_on_c, 0, 75, 76
2, 2061, Control_c, 0, 64, 38
2, 2077, Control_c, 0, 64, 24
2, 2092, Control_c, 0, 64, 0
2, 2100, Note_on_c, 0, 73, 81
2, 2109, Note_on_c, 0, 75, 0
2, 2164, Note_on_c, 0, 71, 76
2, 2170, Note_on_c, 0, 73, 0
2, 2357, Note_on_c, 0, 71, 0
2, 2363, Note_on_c, 0, 73, 77
2, 2545, Note_on_c, 0, 73, 0
2, 2570, Note_on_c, 0, 76, 59
2, 2708, Control_c, 0, 64, 18
2, 2723, Control_c, 0, 64, 29
2, 2738, Control_c, 0, 64, 35
2, 2754, Control_c, 0, 64, 39
2, 2762, Note_on_c, 0, 56, 56
2, 2769, Control_c, 0, 64, 42
2, 2784, Control_c, 0, 64, 45
2, 2794, Note_on_c, 0, 57, 0
2, 2799, Control_c, 0, 64, 48
2, 2814, Control_c, 0, 64, 50
2, 2830, Control_c, 0, 64, 52
2, 2845, Control_c, 0, 64, 53
2, 2860, Control_c, 0, 64, 54
2, 2875, Control_c, 0, 64, 55
2, 2890, Control_c, 0, 64, 55
2, 2934, Note_on_c, 0, 56, 0
2, 2963, Note_on_c, 0, 54, 63
2, 3004, Control_c, 0, 64, 55
2, 3019, Control_c, 0, 64, 54
2, 3050, Control_c, 0, 64, 54
2, 3065, Control_c, 0, 64, 53
2, 3081, Control_c, 0, 64, 53
2, 3095, Control_c, 0, 64, 52
2, 3111, Control_c, 0, 64, 52
2, 3127, Note_on_c, 0, 54, 0
2, 3133, Note_on_c, 0, 76, 0
2, 3140, Control_c, 0, 64, 51
2, 3156, Control_c, 0, 64, 51
2, 3169, Note_on_c, 0, 73, 62
2, 3171, Control_c, 0, 64, 50
2, 3177, Note_on_c, 0, 56, 51
2, 3186, Control_c, 0, 64, 48
2, 3198, Note_on_c, 0, 73, 0
2, 3202, Control_c, 0, 64, 47
2, 3208, Note_on_c, 0, 71, 73
2, 3216, Control_c, 0, 64, 46
2, 3232, Control_c, 0, 64, 44
2, 3238, Note_on_c, 0, 71, 0
2, 3247, Control_c, 0, 64, 42
2, 3262, Control_c, 0, 64, 37
2, 3270, Note_on_c, 0, 73, 61
2, 3278, Control_c, 0, 64, 30
2, 3292, Control_c, 0, 64, 19
2, 3296, Note_on_c, 0, 73, 0
2, 3303, Note_on_c, 0, 71, 80
2, 3308, Control_c, 0, 64, 0
2, 3368, Note_on_c, 0, 71, 0
2, 3382, Note_on_c, 0, 69, 62
2, 3542, Note_on_c, 0, 69, 0
2, 3568, Note_on_c, 0, 71, 68
2, 3746, Note_on_c, 0, 71, 0
2, 3780, Note_on_c, 0, 76, 56
2, 3939, Note_on_c, 0, 56, 0
2, 3970, Note_on_c, 0, 57, 47
2, 4151, Note_on_c, 0, 57, 0
2, 4171, Note_on_c, 0, 56, 52
2, 4361, Note_on_c, 0, 56, 0
2, 4370, Note_on_c, 0, 76, 0
2, 4375, Note_on_c, 0, 69, 55
2, 4376, Note_on_c, 0, 54, 46
2, 4415, Note_on_c, 0, 52, 0
2, 4578, Note_on_c, 0, 69, 0
2, 4591, Note_on_c, 0, 71, 68
2, 4783, Note_on_c, 0, 73, 72
2, 4797, Note_on_c, 0, 71, 0
2, 4966, Note_on_c, 0, 54, 0
2, 4974, Note_on_c, 0, 73, 0
2, 4986, Note_on_c, 0, 71, 61
2, 4995, Note_on_c, 0, 51, 34
2, 5136, Note_on_c, 0, 71, 0
2, 5180, Note_on_c, 0, 73, 68
2, 5195, Control_c, 0, 64, 28
2, 5217, Control_c, 0, 64, 46
2, 5233, Control_c, 0, 64, 57
2, 5248, Control_c, 0, 64, 63
2, 5262, Control_c, 0, 64, 67
2, 5278, Control_c, 0, 64, 73
2, 5293, Control_c, 0, 64, 84
2, 5309, Control_c, 0, 64, 100
2, 5324, Control_c, 0, 64, 127
2, 5373, Note_on_c, 0, 73, 0
2, 5382, Note_on_c, 0, 69, 64
2, 5444, Note_on_c, 0, 51, 0
2, 5576, Note_on_c, 0, 52, 45
2, 5584, Note_on_c, 0, 69, 0
2, 5586, Note_on_c, 0, 68, 71
2, 5628, Control_c, 0, 64, 113
2, 5643, Control_c, 0, 64, 96
2, 5658, Control_c, 0, 64, 83
2, 5673, Control_c, 0, 64, 71
2, 5688, Control_c, 0, 64, 63
2, 5703, Control_c, 0, 64, 45
2, 5719, Control_c, 0, 64, 0
2, 5765, Note_on_c, 0, 68, 0
2, 5777, Note_on_c, 0, 56, 57
2, 5783, Note_on_c, 0, 71, 83
2, 5826, Control_c, 0, 64, 10
2, 5842, Control_c, 0, 64, 17
2, 5856, Control_c, 0, 64, 19
2, 5979, Note_on_c, 0, 71, 0
2, 5980, Note_on_c, 0, 59, 60
2, 5980, Note_on_c, 0, 76, 81
2, 5992, Note_on_c, 0, 56, 0
2, 6134, Note_on_c, 0, 52, 0
2, 6156, Note_on_c, 0, 59, 0
2, 6163, Note_on_c, 0, 76, 0
2, 6168, Control_c, 0, 64, 12
2, 6182, Control_c, 0, 64, 0
2, 6183, Note_on_c, 0, 64, 68
2, 6186, Note_on_c, 0, 80, 80
2, 6378, Note_on_c, 0, 64, 0
2, 6380, Note_on_c, 0, 63, 70
2, 6572, Note_on_c, 0, 63, 0
2, 6577, Note_on_c, 0, 64, 70
2, 6759, Note_on_c, 0, 64, 0
2, 6786, Note_on_c, 0, 58, 58
2, 6972, Note_on_c, 0, 78, 72
2, 6980, Note_on_c, 0, 80, 0
2, 7161, Note_on_c, 0, 78, 0
2, 7168, Note_on_c, 0, 76, 69
2, 7171, Note_on_c, 0, 61, 55
2, 7342, Note_on_c, 0, 61, 0
2, 7367, Note_on_c, 0, 76, 0
2, 7377, Note_on_c, 0, 75, 63
2, 7395, Note_on_c, 0, 66, 44
2, 7546, Note_on_c, 0, 66, 0
2, 7553, Control_c, 0, 64, 22
2, 7568, Control_c, 0, 64, 39
2, 7579, Note_on_c, 0, 75, 0
2, 7583, Control_c, 0, 64, 49
2, 7583, Note_on_c, 0, 76, 63
2, 7598, Control_c, 0, 64, 55
2, 7613, Control_c, 0, 64, 60
2, 7629, Control_c, 0, 64, 64
2, 7644, Control_c, 0, 64, 69
2, 7650, Note_on_c, 0, 58, 0
2, 7659, Control_c, 0, 64, 77
2, 7674, Control_c, 0, 64, 94
2, 7689, Control_c, 0, 64, 127
2, 7753, Note_on_c, 0, 76, 0
2, 7768, Note_on_c, 0, 73, 68
2, 7834, Note_on_c, 0, 73, 0
2, 7954, Note_on_c, 0, 47, 40
2, 7994, Note_on_c, 0, 73, 63
2, 8037, Note_on_c, 0, 73, 0
2, 8039, Control_c, 0, 64, 114
2, 8054, Control_c, 0, 64, 87
2, 8070, Control_c, 0, 64, 72
2, 8074, Note_on_c, 0, 75, 74
2, 8084, Control_c, 0, 64, 61
2, 8099, Control_c, 0, 64, 0
2, 8125, Note_on_c, 0, 75, 0
2, 8160, Control_c, 0, 64, 28
2, 8161, Note_on_c, 0, 76, 74
2, 8175, Control_c, 0, 64, 36
2, 8180, Note_on_c, 0, 51, 50
2, 8191, Control_c, 0, 64, 39
2, 8205, Control_c, 0, 64, 41
2, 8208, Note_on_c, 0, 76, 0
2, 8220, Control_c, 0, 64, 42
2, 8226, Note_on_c, 0, 47, 0
2, 8234, Note_on_c, 0, 75, 80
2, 8293, Note_on_c, 0, 75, 0
2, 8323, Note_on_c, 0, 76, 67
2, 8362, Note_on_c, 0, 76, 0
2, 8375, Note_on_c, 0, 54, 57
2, 8384, Note_on_c, 0, 75, 74
2, 8392, Note_on_c, 0, 51, 0
2, 8414, Note_on_c, 0, 75, 0
2, 8433, Note_on_c, 0, 76, 59
2, 8441, Control_c, 0, 64, 41
2, 8456, Control_c, 0, 64, 40
2, 8472, Control_c, 0, 64, 39
2, 8477, Note_on_c, 0, 76, 0
2, 8484, Note_on_c, 0, 75, 54
2, 8487, Control_c, 0, 64, 37
2, 8502, Control_c, 0, 64, 33
2, 8508, Note_on_c, 0, 75, 0
2, 8514, Note_on_c, 0, 76, 66
2, 8517, Control_c, 0, 64, 25
2, 8520, Note_on_c, 0, 54, 0
2, 8532, Control_c, 0, 64, 0
2, 8570, Note_on_c, 0, 59, 57
2, 8570, Note_on_c, 0, 75, 78
2, 8580, Note_on_c, 0, 76, 0
2, 8639, Control_c, 0, 64, 10
2, 8685, Control_c, 0, 64, 0
2, 8749, Note_on_c, 0, 59, 0
2, 8752, Note_on_c, 0, 58, 63
2, 8934, Note_on_c, 0, 58, 0
2, 8953, Note_on_c, 0, 59, 67
2, 9128, Note_on_c, 0, 59, 0
2, 9162, Note_on_c, 0, 52, 52
2, 9349, Note_on_c, 0, 76, 77
2, 9367, Note_on_c, 0, 75, 0
2, 9546, Note_on_c, 0, 78, 79
2, 9549, Note_on_c, 0, 59, 56
2, 9565, Note_on_c, 0, 76, 0
2, 9719, Note_on_c, 0, 59, 0
2, 9756, Note_on_c, 0, 80, 71
2, 9761, Note_on_c, 0, 78, 0
2, 9772, Note_on_c, 0, 64, 48
2, 9886, Control_c, 0, 64, 29
2, 9901, Control_c, 0, 64, 44
2, 9917, Control_c, 0, 64, 53
2, 9932, Control_c, 0, 64, 60
2, 9948, Control_c, 0, 64, 65
2, 9963, Control_c, 0, 64, 70
2, 9966, Note_on_c, 0, 73, 75
2, 9978, Control_c, 0, 64, 81
2, 9994, Control_c, 0, 64, 104
2, 10009, Control_c, 0, 64, 127
2, 10018, Note_on_c, 0, 80, 0
2, 10119, Note_on_c, 0, 52, 0
2, 10156, Note_on_c, 0, 76, 78
2, 10196, Note_on_c, 0, 73, 0
2, 10341, Note_on_c, 0, 54, 51
2, 10342, Note_on_c, 0, 76, 0
2, 10381, Note_on_c, 0, 66, 72
2, 10403, Control_c, 0, 64, 111
2, 10418, Control_c, 0, 64, 90
2, 10434, Control_c, 0, 64, 72
2, 10449, Control_c, 0, 64, 59
2, 10464, Control_c, 0, 64, 0
2, 10576, Note_on_c, 0, 70, 82
2, 10604, Note_on_c, 0, 66, 0
2, 10623, Control_c, 0, 64, 28
2, 10639, Control_c, 0, 64, 41
2, 10654, Control_c, 0, 64, 47
2, 10669, Control_c, 0, 64, 50
2, 10684, Control_c, 0, 64, 53
2, 10699, Control_c, 0, 64, 54
2, 10715, Control_c, 0, 64, 55
2, 10772, Note_on_c, 0, 73, 86
2, 10812, Note_on_c, 0, 70, 0
2, 10838, Control_c, 0, 64, 54
2, 10852, Control_c, 0, 64, 53
2, 10868, Control_c, 0, 64, 53
2, 10898, Control_c, 0, 64, 52
2, 10914, Control_c, 0, 64, 51
2, 10929, Control_c, 0, 64, 50
2, 10944, Control_c, 0, 64, 48
2, 10960, Control_c, 0, 64, 47
2, 10970, Note_on_c, 0, 63, 56
2, 10973, Note_on_c, 0, 64, 0
2, 10974, Control_c, 0, 64, 46
2, 10974, Note_on_c, 0, 78, 77
2, 10984, Note_on_c, 0, 73, 0
2, 10990, Control_c, 0, 64, 45
2, 11005, Control_c, 0, 64, 43
2, 11020, Control_c, 0, 64, 40
2, 11036, Control_c, 0, 64, 36
2, 11050, Control_c, 0, 64, 33
2, 11065, Control_c, 0, 64, 30
2, 11081, Control_c, 0, 64, 27
2, 11095, Control_c, 0, 64, 24
2, 11111, Control_c, 0, 64, 22
2, 11126, Control_c, 0, 64, 19
2, 11141, Control_c, 0, 64, 16
2, 11157, Control_c, 0, 64, 10
2, 11159, Note_on_c, 0, 76, 75
2, 11171, Control_c, 0, 64, 0
2, 11188, Note_on_c, 0, 78, 0
2, 11368, Note_on_c, 0, 76, 0
2, 11370, Note_on_c, 0, 78, 75
2, 11580, Note_on_c, 0, 68, 63
2, 11592, Note_on_c, 0, 78, 0
2, 11774, Note_on_c, 0, 68, 0
2, 11775, Note_on_c, 0, 71, 74
2, 11968, Note_on_c, 0, 71, 0
2, 11978, Note_on_c, 0, 75, 71
2, 12176, Note_on_c, 0, 75, 0
2, 12198, Note_on_c, 0, 76, 50
2, 12381, Note_on_c, 0, 61, 44
2, 12430, Note_on_c, 0, 63, 0
2, 12448, Control_c, 0, 64, 12
2, 12463, Control_c, 0, 64, 26
2, 12479, Control_c, 0, 64, 33
2, 12494, Control_c, 0, 64, 38
2, 12510, Control_c, 0, 64, 41
2, 12525, Control_c, 0, 64, 43
2, 12539, Control_c, 0, 64, 44
2, 12555, Control_c, 0, 64, 44
2, 12572, Note_on_c, 0, 59, 62
2, 12572, Note_on_c, 0, 61, 0
2, 12584, Control_c, 0, 64, 45
2, 12736, Control_c, 0, 64, 44
2, 12744, Note_on_c, 0, 59, 0
2, 12752, Control_c, 0, 64, 42
2, 12767, Control_c, 0, 64, 41
2, 12777, Note_on_c, 0, 58, 47
2, 12781, Control_c, 0, 64, 40
2, 12781, Note_on_c, 0, 66, 59
2, 12797, Control_c, 0, 64, 39
2, 12812, Control_c, 0, 64, 38
2, 12828, Control_c, 0, 64, 36
2, 12843, Control_c, 0, 64, 34
2, 12858, Control_c, 0, 64, 32
2, 12874, Control_c, 0, 64, 29
2, 12896, Control_c, 0, 64, 24
2, 12912, Control_c, 0, 64, 10
2, 12927, Control_c, 0, 64, 0
2, 12970, Note_on_c, 0, 66, 0
2, 12990, Note_on_c, 0, 70, 63
2, 13018, Note_on_c, 0, 76, 0
2, 13180, Note_on_c, 0, 73, 66
2, 13190, Note_on_c, 0, 70, 0
2, 13358, Note_on_c, 0, 73, 0
2, 13388, Note_on_c, 0, 76, 55
2, 13520, Control_c, 0, 64, 8
2, 13535, Control_c, 0, 64, 30
2, 13551, Control_c, 0, 64, 40
2, 13562, Note_on_c, 0, 76, 0
2, 13566, Control_c, 0, 64, 48
2, 13573, Note_on_c, 0, 75, 58
2, 13580, Control_c, 0, 64, 55
2, 13596, Control_c, 0, 64, 59
2, 13611, Control_c, 0, 64, 61
2, 13625, Control_c, 0, 64, 63
2, 13641, Control_c, 0, 64, 64
2, 13664, Control_c, 0, 64, 66
2, 13680, Control_c, 0, 64, 67
2, 13695, Control_c, 0, 64, 69
2, 13711, Control_c, 0, 64, 69
2, 13741, Note_on_c, 0, 75, 0
2, 13779, Note_on_c, 0, 76, 49
2, 13781, Note_on_c, 0, 49, 35
2, 13817, Control_c, 0, 64, 69
2, 13833, Control_c, 0, 64, 68
2, 13847, Control_c, 0, 64, 68
2, 13878, Control_c, 0, 64, 67
2, 13893, Control_c, 0, 64, 67
2, 13909, Control_c, 0, 64, 66
2, 13916, Note_on_c, 0, 49, 0
2, 13923, Control_c, 0, 64, 66
2, 13954, Control_c, 0, 64, 65
2, 13974, Note_on_c, 0, 76, 0
2, 13984, Control_c, 0, 64, 65
2, 13986, Note_on_c, 0, 66, 50
2, 13999, Control_c, 0, 64, 64
2, 14011, Note_on_c, 0, 50, 35
2, 14015, Control_c, 0, 64, 64
2, 14031, Control_c, 0, 64, 63
2, 14046, Control_c, 0, 64, 61
2, 14047, Note_on_c, 0, 54, 0
2, 14061, Control_c, 0, 64, 54
2, 14076, Control_c, 0, 64, 39
2, 14091, Control_c, 0, 64, 0
2, 14151, Note_on_c, 0, 66, 0
2, 14177, Note_on_c, 0, 70, 58
2, 14350, Note_on_c, 0, 70, 0
2, 14357, Note_on_c, 0, 73, 64
2, 14547, Note_on_c, 0, 73, 0
2, 14576, Note_on_c, 0, 74, 52
2, 14581, Note_on_c, 0, 59, 46
2, 14627, Note_on_c, 0, 58, 0
2, 14771, Note_on_c, 0, 52, 57
2, 14795, Note_on_c, 0, 59, 0
2, 14812, Control_c, 0, 64, 8
2, 14827, Control_c, 0, 64, 32
2, 14836, Note_on_c, 0, 50, 0
2, 14844, Control_c, 0, 64, 41
2, 14858, Control_c, 0, 64, 47
2, 14874, Control_c, 0, 64, 53
2, 14889, Control_c, 0, 64, 57
2, 14904, Control_c, 0, 64, 60
2, 14919, Control_c, 0, 64, 62
2, 14934, Control_c, 0, 64, 64
2, 14950, Control_c, 0, 64, 67
2, 14965, Control_c, 0, 64, 73
2, 14980, Control_c, 0, 64, 80
2, 14980, Note_on_c, 0, 54, 68
2, 14995, Control_c, 0, 64, 89
2, 15010, Control_c, 0, 64, 97
2, 15015, Note_on_c, 0, 52, 0
2, 15025, Control_c, 0, 64, 104
2, 15041, Control_c, 0, 64, 107
2, 15053, Note_on_c, 0, 54, 0
2, 15163, Control_c, 0, 64, 106
2, 15178, Control_c, 0, 64, 104
2, 15184, Note_on_c, 0, 55, 69
2, 15200, Control_c, 0, 64, 101
2, 15215, Control_c, 0, 64, 98
2, 15231, Control_c, 0, 64, 94
2, 15246, Control_c, 0, 64, 86
2, 15261, Control_c, 0, 64, 77
2, 15277, Control_c, 0, 64, 70
2, 15292, Control_c, 0, 64, 64
2, 15307, Control_c, 0, 64, 59
2, 15322, Control_c, 0, 64, 49
2, 15337, Control_c, 0, 64, 34
2, 15353, Control_c, 0, 64, 0
2, 15368, Note_on_c, 0, 76, 76
2, 15377, Note_on_c, 0, 61, 67
2, 15379, Note_on_c, 0, 74, 0
2, 15564, Note_on_c, 0, 74, 80
2, 15574, Note_on_c, 0, 62, 66
2, 15604, Note_on_c, 0, 61, 0
2, 15615, Note_on_c, 0, 76, 0
2, 15737, Note_on_c, 0, 62, 0
2, 15757, Note_on_c, 0, 64, 55
2, 15761, Note_on_c, 0, 73, 80
2, 15775, Note_on_c, 0, 74, 0
2, 15964, Note_on_c, 0, 73, 0
2, 15968, Control_c, 0, 64, 24
2, 15975, Note_on_c, 0, 74, 77
2, 15983, Control_c, 0, 64, 39
2, 15999, Control_c, 0, 64, 47
2, 16014, Control_c, 0, 64, 52
2, 16030, Control_c, 0, 64, 58
2, 16044, Control_c, 0, 64, 62
2, 16059, Control_c, 0, 64, 65
2, 16075, Control_c, 0, 64, 69
2, 16090, Control_c, 0, 64, 77
2, 16105, Control_c, 0, 64, 90
2, 16120, Control_c, 0, 64, 114
2, 16135, Control_c, 0, 64, 127
2, 16136, Note_on_c, 0, 74, 0
2, 16163, Note_on_c, 0, 71, 78
2, 16201, Note_on_c, 0, 71, 0
2, 16358, Note_on_c, 0, 54, 47
2, 16368, Note_on_c, 0, 71, 69
2, 16371, Note_on_c, 0, 55, 0
2, 16406, Note_on_c, 0, 71, 0
2, 16411, Note_on_c, 0, 70, 77
2, 16412, Note_on_c, 0, 64, 0
2, 16454, Control_c, 0, 64, 108
2, 16457, Note_on_c, 0, 70, 0
2, 16471, Control_c, 0, 64, 87
2, 16471, Note_on_c, 0, 71, 82
2, 16486, Control_c, 0, 64, 73
2, 16501, Control_c, 0, 64, 61
2, 16510, Note_on_c, 0, 70, 74
2, 16517, Control_c, 0, 64, 0
2, 16539, Note_on_c, 0, 71, 0
2, 16574, Note_on_c, 0, 68, 83
2, 16589, Note_on_c, 0, 70, 0
2, 16784, Note_on_c, 0, 68, 0
2, 16786, Note_on_c, 0, 66, 80
2, 16799, Control_c, 0, 64, 32
2, 16813, Control_c, 0, 64, 44
2, 16829, Control_c, 0, 64, 51
2, 16844, Control_c, 0, 64, 57
2, 16859, Control_c, 0, 64, 62
2, 16875, Control_c, 0, 64, 65
2, 16889, Control_c, 0, 64, 70
2, 16904, Control_c, 0, 64, 78
2, 16920, Control_c, 0, 64, 87
2, 16935, Control_c, 0, 64, 98
2, 16951, Control_c, 0, 64, 110
2, 16965, Control_c, 0, 64, 127
2, 16995, Note_on_c, 0, 66, 0
2, 17013, Note_on_c, 0, 79, 85
2, 17224, Note_on_c, 0, 78, 83
2, 17230, Note_on_c, 0, 56, 56
2, 17237, Note_on_c, 0, 63, 60
2, 17271, Note_on_c, 0, 79, 0
2, 17285, Control_c, 0, 64, 121
2, 17300, Control_c, 0, 64, 110
2, 17303, Note_on_c, 0, 54, 0
2, 17310, Note_on_c, 0, 63, 0
2, 17316, Control_c, 0, 64, 104
2, 17331, Control_c, 0, 64, 100
2, 17346, Control_c, 0, 64, 96
2, 17362, Control_c, 0, 64, 92
2, 17377, Control_c, 0, 64, 88
2, 17392, Control_c, 0, 64, 84
2, 17407, Control_c, 0, 64, 80
2, 17418, Note_on_c, 0, 77, 86
2, 17422, Control_c, 0, 64, 77
2, 17422, Note_on_c, 0, 58, 57
2, 17422, Note_on_c, 0, 61, 56
2, 17438, Control_c, 0, 64, 74
2, 17449, Note_on_c, 0, 78, 0
2, 17452, Control_c, 0, 64, 72
2, 17467, Control_c, 0, 64, 70
2, 17483, Control_c, 0, 64, 69
2, 17505, Control_c, 0, 64, 67
2, 17518, Note_on_c, 0, 56, 0
2, 17521, Control_c, 0, 64, 65
2, 17536, Control_c, 0, 64, 63
2, 17551, Control_c, 0, 64, 60
2, 17560, Note_on_c, 0, 61, 0
2, 17566, Control_c, 0, 64, 57
2, 17581, Control_c, 0, 64, 52
2, 17597, Control_c, 0, 64, 46
2, 17612, Control_c, 0, 64, 35
2, 17625, Note_on_c, 0, 77, 0
2, 17627, Control_c, 0, 64, 0
2, 17627, Note_on_c, 0, 59, 57
2, 17630, Note_on_c, 0, 76, 73
2, 17656, Note_on_c, 0, 58, 0
2, 17826, Note_on_c, 0, 75, 74
2, 17839, Note_on_c, 0, 76, 0
2, 17945, Control_c, 0, 64, 28
2, 17961, Control_c, 0, 64, 40
2, 17976, Control_c, 0, 64, 47
2, 17992, Control_c, 0, 64, 52
2, 18007, Control_c, 0, 64, 55
2, 18019, Note_on_c, 0, 74, 67
2, 18022, Control_c, 0, 64, 58
2, 18023, Note_on_c, 0, 53, 44
2, 18025, Note_on_c, 0, 75, 0
2, 18037, Control_c, 0, 64, 61
2, 18052, Control_c, 0, 64, 63
2, 18067, Control_c, 0, 64, 64
2, 18083, Control_c, 0, 64, 65
2, 18098, Control_c, 0, 64, 65
2, 18181, Note_on_c, 0, 74, 0
2, 18191, Control_c, 0, 64, 65
2, 18205, Control_c, 0, 64, 64
2, 18208, Note_on_c, 0, 59, 0
2, 18220, Control_c, 0, 64, 63
2, 18224, Note_on_c, 0, 53, 0
2, 18236, Control_c, 0, 64, 61
2, 18236, Note_on_c, 0, 54, 44
2, 18239, Note_on_c, 0, 73, 69
2, 18251, Control_c, 0, 64, 59
2, 18274, Control_c, 0, 64, 56
2, 18289, Control_c, 0, 64, 51
2, 18295, Note_on_c, 0, 73, 0
2, 18303, Control_c, 0, 64, 43
2, 18319, Control_c, 0, 64, 19
2, 18332, Note_on_c, 0, 75, 71
2, 18334, Control_c, 0, 64, 0
2, 18409, Note_on_c, 0, 75, 0
2, 18437, Note_on_c, 0, 76, 60
2, 18441, Note_on_c, 0, 58, 44
2, 18563, Control_c, 0, 64, 26
2, 18577, Control_c, 0, 64, 46
2, 18593, Control_c, 0, 64, 53
2, 18607, Note_on_c, 0, 58, 0
2, 18608, Control_c, 0, 64, 58
2, 18618, Note_on_c, 0, 54, 0
2, 18622, Control_c, 0, 64, 63
2, 18633, Note_on_c, 0, 76, 0
2, 18635, Note_on_c, 0, 64, 46
2, 18637, Note_on_c, 0, 70, 63
2, 18638, Control_c, 0, 64, 66
2, 18653, Control_c, 0, 64, 71
2, 18667, Note_on_c, 0, 64, 0
2, 18669, Control_c, 0, 64, 79
2, 18684, Control_c, 0, 64, 89
2, 18698, Control_c, 0, 64, 95
2, 18714, Control_c, 0, 64, 98
2, 18729, Control_c, 0, 64, 98
2, 18805, Control_c, 0, 64, 98
2, 18823, Note_on_c, 0, 70, 0
2, 18835, Control_c, 0, 64, 97
2, 18847, Note_on_c, 0, 71, 66
2, 18850, Control_c, 0, 64, 94
2, 18853, Note_on_c, 0, 63, 52
2, 18860, Note_on_c, 0, 47, 45
2, 18865, Control_c, 0, 64, 92
2, 18881, Control_c, 0, 64, 88
2, 18896, Control_c, 0, 64, 85
2, 18912, Control_c, 0, 64, 81
2, 18927, Control_c, 0, 64, 76
2, 18942, Control_c, 0, 64, 72
2, 18958, Control_c, 0, 64, 68
2, 18973, Control_c, 0, 64, 64
2, 18989, Control_c, 0, 64, 60
2, 19003, Control_c, 0, 64, 53
2, 19018, Control_c, 0, 64, 41
2, 19042, Control_c, 0, 64, 0
2, 19058, Note_on_c, 0, 51, 64
2, 19094, Note_on_c, 0, 47, 0
2, 19168, Note_on_c, 0, 63, 0
2, 19251, Note_on_c, 0, 54, 69
2, 19285, Note_on_c, 0, 51, 0
2, 19440, Note_on_c, 0, 54, 0
2, 19465, Note_on_c, 0, 59, 58
2, 19635, Note_on_c, 0, 59, 0
2, 19663, Note_on_c, 0, 57, 54
2, 19855, Note_on_c, 0, 57, 0
2, 19878, Note_on_c, 0, 59, 51
2, 20026, Note_on_c, 0, 59, 0
2, 20067, Note_on_c, 0, 56, 46
2, 20234, Note_on_c, 0, 71, 0
2, 20242, Note_on_c, 0, 75, 64
2, 20295, Control_c, 0, 64, 22
2, 20310, Control_c, 0, 64, 31
2, 20325, Control_c, 0, 64, 38
2, 20340, Control_c, 0, 64, 43
2, 20356, Control_c, 0, 64, 48
2, 20371, Control_c, 0, 64, 52
2, 20386, Control_c, 0, 64, 55
2, 20401, Control_c, 0, 64, 58
2, 20416, Control_c, 0, 64, 60
2, 20432, Control_c, 0, 64, 62
2, 20447, Control_c, 0, 64, 64
2, 20448, Note_on_c, 0, 78, 72
2, 20462, Control_c, 0, 64, 67
2, 20464, Note_on_c, 0, 75, 0
2, 20477, Control_c, 0, 64, 72
2, 20492, Control_c, 0, 64, 78
2, 20507, Control_c, 0, 64, 83
2, 20523, Control_c, 0, 64, 89
2, 20538, Control_c, 0, 64, 94
2, 20554, Control_c, 0, 64, 98
2, 20577, Control_c, 0, 64, 101
2, 20593, Control_c, 0, 64, 103
2, 20608, Control_c, 0, 64, 103
2, 20656, Note_on_c, 0, 83, 79
2, 20663, Note_on_c, 0, 78, 0
2, 20790, Control_c, 0, 64, 103
2, 20805, Control_c, 0, 64, 102
2, 20847, Note_on_c, 0, 54, 58
2, 20849, Note_on_c, 0, 81, 81
2, 20864, Note_on_c, 0, 56, 0
2, 20875, Note_on_c, 0, 83, 0
2, 20912, Control_c, 0, 64, 102
2, 20957, Control_c, 0, 64, 101
2, 20972, Control_c, 0, 64, 100
2, 20987, Control_c, 0, 64, 98
2, 21003, Control_c, 0, 64, 96
2, 21018, Control_c, 0, 64, 93
2, 21033, Control_c, 0, 64, 90
2, 21046, Note_on_c, 0, 83, 84
2, 21048, Control_c, 0, 64, 87
2, 21051, Note_on_c, 0, 56, 66
2, 21052, Note_on_c, 0, 81, 0
2, 21058, Note_on_c, 0, 54, 0
2, 21063, Control_c, 0, 64, 84
2, 21079, Control_c, 0, 64, 81
2, 21094, Control_c, 0, 64, 78
2, 21109, Control_c, 0, 64, 74
2, 21124, Control_c, 0, 64, 71
2, 21139, Control_c, 0, 64, 69
2, 21154, Control_c, 0, 64, 66
2, 21169, Control_c, 0, 64, 64
2, 21184, Control_c, 0, 64, 63
2, 21200, Control_c, 0, 64, 61
2, 21215, Control_c, 0, 64, 58
2, 21230, Control_c, 0, 64, 55
2, 21245, Control_c, 0, 64, 53
2, 21246, Note_on_c, 0, 53, 52
2, 21247, Note_on_c, 0, 56, 0
2, 21249, Note_on_c, 0, 73, 79
2, 21260, Control_c, 0, 64, 50
2, 21276, Control_c, 0, 64, 46
2, 21291, Control_c, 0, 64, 40
2, 21306, Control_c, 0, 64, 28
2, 21321, Control_c, 0, 64, 0
2, 21437, Note_on_c, 0, 83, 0
2, 21444, Note_on_c, 0, 77, 82
2, 21445, Note_on_c, 0, 56, 59
2, 21448, Note_on_c, 0, 73, 0
2, 21637, Note_on_c, 0, 59, 61
2, 21639, Note_on_c, 0, 80, 77
2, 21646, Note_on_c, 0, 77, 0
2, 21652, Note_on_c, 0, 56, 0
2, 21804, Note_on_c, 0, 59, 0
2, 21836, Note_on_c, 0, 80, 0
2, 21838, Note_on_c, 0, 62, 51
2, 21846, Note_on_c, 0, 83, 71
2, 22009, Note_on_c, 0, 62, 0
2, 22038, Note_on_c, 0, 59, 61
2, 22194, Note_on_c, 0, 59, 0
2, 22219, Note_on_c, 0, 53, 0
2, 22239, Note_on_c, 0, 61, 61
2, 22425, Note_on_c, 0, 61, 0
2, 22456, Note_on_c, 0, 54, 61
2, 22636, Note_on_c, 0, 83, 0
2, 22641, Note_on_c, 0, 80, 73
2, 22840, Note_on_c, 0, 80, 0
2, 22850, Note_on_c, 0, 81, 72
2, 22880, Control_c, 0, 67, 18
2, 22895, Control_c, 0, 64, 30
2, 22895, Control_c, 0, 67, 33
2, 22911, Control_c, 0, 64, 44
2, 22911, Control_c, 0, 67, 42
2, 22925, Control_c, 0, 64, 51
2, 22925, Control_c, 0, 67, 43
2, 22940, Control_c, 0, 64, 57
2, 22956, Control_c, 0, 64, 61
2, 22956, Control_c, 0, 67, 42
2, 22971, Control_c, 0, 64, 64
2, 22971, Control_c, 0, 67, 42
2, 22986, Control_c, 0, 64, 66
2, 22986, Control_c, 0, 67, 41
2, 23001, Control_c, 0, 64, 69
2, 23001, Control_c, 0, 67, 39
2, 23016, Control_c, 0, 64, 74
2, 23016, Control_c, 0, 67, 37
2, 23033, Control_c, 0, 64, 78
2, 23033, Control_c, 0, 67, 35
2, 23039, Note_on_c, 0, 54, 0
2, 23048, Control_c, 0, 64, 80
2, 23076, Note_on_c, 0, 59, 54
2, 23079, Control_c, 0, 67, 34
2, 23082, Note_on_c, 0, 50, 48
2, 23093, Control_c, 0, 67, 33
2, 23109, Control_c, 0, 64, 79
2, 23124, Control_c, 0, 64, 77
2, 23139, Control_c, 0, 64, 73
2, 23139, Control_c, 0, 67, 33
2, 23155, Control_c, 0, 64, 68
2, 23169, Control_c, 0, 64, 63
2, 23169, Control_c, 0, 67, 32
2, 23184, Control_c, 0, 64, 53
2, 23184, Control_c, 0, 67, 31
2, 23200, Control_c, 0, 64, 27
2, 23200, Control_c, 0, 67, 30
2, 23215, Control_c, 0, 64, 0
2, 23215, Control_c, 0, 67, 29
2, 23231, Control_c, 0, 67, 28
2, 23245, Control_c, 0, 67, 27
2, 23260, Control_c, 0, 67, 25
2, 23267, Note_on_c, 0, 78, 78
2, 23276, Control_c, 0, 64, 20
2, 23276, Control_c, 0, 67, 20
2, 23290, Control_c, 0, 64, 43
2, 23290, Control_c, 0, 67, 12
2, 23293, Note_on_c, 0, 81, 0
2, 23305, Control_c, 0, 64, 52
2, 23305, Control_c, 0, 67, 0
2, 23321, Control_c, 0, 64, 57
2, 23336, Control_c, 0, 64, 61
2, 23352, Control_c, 0, 64, 64
2, 23366, Control_c, 0, 64, 67
2, 23381, Control_c, 0, 64, 71
2, 23397, Control_c, 0, 64, 78
2, 23412, Control_c, 0, 64, 85
2, 23427, Control_c, 0, 64, 92
2, 23443, Control_c, 0, 64, 96
2, 23458, Control_c, 0, 64, 97
2, 23470, Note_on_c, 0, 80, 79
2, 23479, Note_on_c, 0, 78, 0
2, 23500, Note_on_c, 0, 59, 0
2, 23649, Note_on_c, 0, 50, 0
2, 23665, Note_on_c, 0, 51, 52
2, 23675, Note_on_c, 0, 60, 54
2, 23678, Control_c, 0, 64, 96
2, 23693, Control_c, 0, 64, 94
2, 23709, Control_c, 0, 64, 91
2, 23724, Control_c, 0, 64, 87
2, 23739, Control_c, 0, 64, 81
2, 23755, Control_c, 0, 64, 73
2, 23770, Control_c, 0, 64, 66
2, 23785, Control_c, 0, 64, 58
2, 23800, Control_c, 0, 64, 32
2, 23815, Control_c, 0, 64, 0
2, 23862, Note_on_c, 0, 80, 0
2, 23880, Note_on_c, 0, 77, 64
2, 23983, Control_c, 0, 64, 33
2, 23999, Control_c, 0, 64, 45
2, 24014, Control_c, 0, 64, 51
2, 24030, Control_c, 0, 64, 56
2, 24032, Note_on_c, 0, 77, 0
2, 24045, Control_c, 0, 64, 59
2, 24051, Note_on_c, 0, 60, 0
2, 24060, Control_c, 0, 64, 62
2, 24063, Note_on_c, 0, 78, 69
2, 24075, Control_c, 0, 64, 64
2, 24090, Control_c, 0, 64, 65
2, 24105, Control_c, 0, 64, 67
2, 24121, Control_c, 0, 64, 69
2, 24135, Control_c, 0, 64, 71
2, 24151, Control_c, 0, 64, 72
2, 24222, Note_on_c, 0, 78, 0
2, 24239, Note_on_c, 0, 51, 0
2, 24261, Note_on_c, 0, 77, 59
2, 24272, Note_on_c, 0, 61, 36
2, 24282, Note_on_c, 0, 49, 30
2, 24301, Note_on_c, 0, 77, 0
2, 24302, Control_c, 0, 64, 71
2, 24318, Control_c, 0, 64, 70
2, 24332, Control_c, 0, 64, 67
2, 24344, Note_on_c, 0, 78, 67
2, 24347, Control_c, 0, 64, 62
2, 24363, Control_c, 0, 64, 52
2, 24378, Control_c, 0, 64, 0
2, 24429, Note_on_c, 0, 78, 0
2, 24448, Note_on_c, 0, 80, 66
2, 24466, Note_on_c, 0, 61, 0
2, 24492, Control_c, 0, 64, 47
2, 24507, Control_c, 0, 64, 57
2, 24523, Control_c, 0, 64, 61
2, 24537, Control_c, 0, 64, 63
2, 24553, Control_c, 0, 64, 66
2, 24568, Control_c, 0, 64, 71
2, 24583, Control_c, 0, 64, 82
2, 24599, Control_c, 0, 64, 108
2, 24613, Control_c, 0, 64, 127
2, 24627, Note_on_c, 0, 80, 0
2, 24654, Note_on_c, 0, 73, 68
2, 24692, Note_on_c, 0, 73, 0
2, 24702, Note_on_c, 0, 49, 0
2, 24892, Note_on_c, 0, 74, 72
2, 24922, Note_on_c, 0, 47, 48
2, 25086, Control_c, 0, 64, 105
2, 25101, Control_c, 0, 64, 85
2, 25114, Note_on_c, 0, 71, 71
2, 25117, Control_c, 0, 64, 71
2, 25123, Note_on_c, 0, 50, 55
2, 25131, Control_c, 0, 64, 56
2, 25146, Control_c, 0, 64, 0
2, 25311, Note_on_c, 0, 53, 62
2, 25319, Note_on_c, 0, 68, 76
2, 25423, Note_on_c, 0, 71, 0
2, 25519, Note_on_c, 0, 56, 61
2, 25543, Note_on_c, 0, 65, 63
2, 25550, Note_on_c, 0, 68, 0
2, 25558, Note_on_c, 0, 53, 0
2, 25597, Note_on_c, 0, 50, 0
2, 25720, Note_on_c, 0, 68, 71
2, 25724, Note_on_c, 0, 59, 58
2, 25728, Note_on_c, 0, 56, 0
2, 25729, Note_on_c, 0, 65, 0
2, 25900, Note_on_c, 0, 59, 0
2, 25919, Note_on_c, 0, 66, 68
2, 25922, Note_on_c, 0, 57, 57
2, 25929, Control_c, 0, 64, 22
2, 25952, Control_c, 0, 64, 40
2, 25955, Note_on_c, 0, 68, 0
2, 25967, Control_c, 0, 64, 49
2, 25976, Note_on_c, 0, 47, 0
2, 25982, Control_c, 0, 64, 55
2, 25998, Control_c, 0, 64, 58
2, 26013, Control_c, 0, 64, 60
2, 26027, Control_c, 0, 64, 62
2, 26043, Control_c, 0, 64, 63
2, 26053, Note_on_c, 0, 66, 0
2, 26058, Control_c, 0, 64, 63
2, 26074, Control_c, 0, 64, 64
2, 26121, Note_on_c, 0, 68, 68
2, 26126, Note_on_c, 0, 59, 55
2, 26150, Control_c, 0, 64, 63
2, 26164, Control_c, 0, 64, 62
2, 26179, Control_c, 0, 64, 60
2, 26195, Control_c, 0, 64, 56
2, 26198, Note_on_c, 0, 57, 0
2, 26210, Control_c, 0, 64, 53
2, 26225, Control_c, 0, 64, 50
2, 26240, Control_c, 0, 64, 48
2, 26286, Control_c, 0, 64, 51
2, 26289, Note_on_c, 0, 59, 0
2, 26302, Control_c, 0, 64, 53
2, 26302, Note_on_c, 0, 71, 77
2, 26305, Note_on_c, 0, 56, 61
2, 26318, Control_c, 0, 64, 55
2, 26332, Control_c, 0, 64, 57
2, 26335, Note_on_c, 0, 68, 0
2, 26341, Note_on_c, 0, 74, 0
2, 26347, Control_c, 0, 64, 59
2, 26363, Control_c, 0, 64, 59
2, 26378, Control_c, 0, 64, 60
2, 26454, Control_c, 0, 64, 59
2, 26470, Control_c, 0, 64, 57
2, 26485, Control_c, 0, 64, 54
2, 26494, Note_on_c, 0, 69, 76
2, 26500, Control_c, 0, 64, 52
2, 26503, Note_on_c, 0, 54, 62
2, 26504, Note_on_c, 0, 71, 0
2, 26510, Note_on_c, 0, 56, 0
2, 26545, Control_c, 0, 64, 52
2, 26561, Control_c, 0, 64, 54
2, 26576, Control_c, 0, 64, 56
2, 26592, Control_c, 0, 64, 58
2, 26606, Control_c, 0, 64, 59
2, 26621, Control_c, 0, 64, 60
2, 26637, Control_c, 0, 64, 61
2, 26665, Note_on_c, 0, 54, 0
2, 26683, Note_on_c, 0, 69, 0
2, 26688, Note_on_c, 0, 56, 58
2, 26695, Note_on_c, 0, 71, 78
2, 26697, Control_c, 0, 64, 60
2, 26720, Control_c, 0, 64, 57
2, 26735, Control_c, 0, 64, 52
2, 26751, Control_c, 0, 64, 43
2, 26766, Control_c, 0, 64, 22
2, 26770, Note_on_c, 0, 57, 64
2, 26781, Control_c, 0, 64, 0
2, 26794, Note_on_c, 0, 56, 0
2, 26878, Note_on_c, 0, 74, 78
2, 26882, Note_on_c, 0, 59, 63
2, 26923, Note_on_c, 0, 57, 0
2, 26947, Control_c, 0, 64, 35
2, 26963, Control_c, 0, 64, 46
2, 26978, Control_c, 0, 64, 54
2, 26994, Control_c, 0, 64, 60
2, 27008, Control_c, 0, 64, 63
2, 27023, Control_c, 0, 64, 66
2, 27039, Control_c, 0, 64, 71
2, 27054, Control_c, 0, 64, 77
2, 27054, Note_on_c, 0, 59, 0
2, 27062, Note_on_c, 0, 73, 87
2, 27069, Note_on_c, 0, 53, 54
2, 27070, Control_c, 0, 64, 84
2, 27077, Note_on_c, 0, 71, 0
2, 27084, Control_c, 0, 64, 92
2, 27097, Note_on_c, 0, 74, 0
2, 27099, Control_c, 0, 64, 97
2, 27115, Control_c, 0, 64, 101
2, 27131, Control_c, 0, 64, 102
2, 27180, Note_on_c, 0, 73, 0
2, 27252, Control_c, 0, 64, 101
2, 27256, Note_on_c, 0, 53, 0
2, 27263, Note_on_c, 0, 54, 54
2, 27264, Note_on_c, 0, 73, 83
2, 27267, Control_c, 0, 64, 95
2, 27283, Control_c, 0, 64, 85
2, 27298, Control_c, 0, 64, 74
2, 27314, Control_c, 0, 64, 65
2, 27328, Control_c, 0, 64, 49
2, 27343, Control_c, 0, 64, 0
2, 27420, Control_c, 0, 64, 43
2, 27435, Control_c, 0, 64, 54
2, 27450, Control_c, 0, 64, 61
2, 27465, Control_c, 0, 64, 64
2, 27470, Note_on_c, 0, 69, 73
2, 27481, Note_on_c, 0, 54, 0
2, 27485, Note_on_c, 0, 73, 0
2, 27488, Control_c, 0, 64, 67
2, 27503, Control_c, 0, 64, 70
2, 27518, Control_c, 0, 64, 76
2, 27533, Control_c, 0, 64, 83
2, 27550, Control_c, 0, 64, 93
2, 27565, Control_c, 0, 64, 104
2, 27580, Control_c, 0, 64, 116
2, 27595, Control_c, 0, 64, 127
2, 27671, Note_on_c, 0, 68, 79
2, 27695, Note_on_c, 0, 69, 0
2, 27838, Control_c, 0, 64, 124
2, 27853, Control_c, 0, 64, 121
2, 27869, Control_c, 0, 64, 115
2, 27877, Note_on_c, 0, 66, 78
2, 27883, Note_on_c, 0, 45, 61
2, 27884, Control_c, 0, 64, 104
2, 27899, Control_c, 0, 64, 91
2, 27914, Control_c, 0, 64, 78
2, 27918, Note_on_c, 0, 68, 0
2, 27929, Control_c, 0, 64, 68
2, 27945, Control_c, 0, 64, 57
2, 27961, Control_c, 0, 64, 0
2, 28090, Note_on_c, 0, 71, 59
2, 28097, Control_c, 0, 64, 36
2, 28113, Control_c, 0, 64, 47
2, 28128, Control_c, 0, 64, 55
2, 28142, Control_c, 0, 64, 62
2, 28158, Control_c, 0, 64, 65
2, 28173, Control_c, 0, 64, 69
2, 28189, Control_c, 0, 64, 77
2, 28204, Control_c, 0, 64, 86
2, 28218, Control_c, 0, 64, 96
2, 28234, Control_c, 0, 64, 103
2, 28257, Control_c, 0, 64, 104
2, 28269, Note_on_c, 0, 71, 0
2, 28284, Note_on_c, 0, 69, 59
2, 28287, Control_c, 0, 64, 105
2, 28302, Control_c, 0, 64, 106
2, 28318, Control_c, 0, 64, 106
2, 28470, Control_c, 0, 64, 103
2, 28484, Control_c, 0, 64, 97
2, 28489, Note_on_c, 0, 69, 0
2, 28492, Note_on_c, 0, 68, 66
2, 28495, Note_on_c, 0, 47, 59
2, 28499, Control_c, 0, 64, 87
2, 28515, Control_c, 0, 64, 75
2, 28529, Note_on_c, 0, 45, 0
2, 28530, Control_c, 0, 64, 65
2, 28540, Note_on_c, 0, 66, 0
2, 28545, Control_c, 0, 64, 49
2, 28561, Control_c, 0, 64, 0
2, 28667, Control_c, 0, 64, 29
2, 28682, Control_c, 0, 64, 45
2, 28689, Note_on_c, 0, 68, 0
2, 28697, Control_c, 0, 64, 52
2, 28711, Note_on_c, 0, 69, 58
2, 28713, Control_c, 0, 64, 56
2, 28728, Control_c, 0, 64, 60
2, 28743, Control_c, 0, 64, 62
2, 28759, Control_c, 0, 64, 65
2, 28774, Control_c, 0, 64, 68
2, 28790, Control_c, 0, 64, 71
2, 28805, Control_c, 0, 64, 74
2, 28820, Control_c, 0, 64, 78
2, 28836, Control_c, 0, 64, 79
2, 28887, Note_on_c, 0, 69, 0
2, 28901, Note_on_c, 0, 71, 62
2, 29110, Note_on_c, 0, 65, 62
2, 29117, Control_c, 0, 64, 78
2, 29117, Note_on_c, 0, 47, 0
2, 29120, Note_on_c, 0, 49, 53
2, 29129, Note_on_c, 0, 71, 0
2, 29131, Control_c, 0, 64, 74
2, 29146, Control_c, 0, 64, 68
2, 29162, Control_c, 0, 64, 61
2, 29177, Control_c, 0, 64, 40
2, 29193, Control_c, 0, 64, 0
2, 29298, Control_c, 0, 64, 26
2, 29314, Control_c, 0, 64, 44
2, 29322, Note_on_c, 0, 69, 53
2, 29328, Control_c, 0, 64, 50
2, 29343, Control_c, 0, 64, 54
2, 29359, Control_c, 0, 64, 58
2, 29374, Control_c, 0, 64, 61
2, 29390, Control_c, 0, 64, 64
2, 29404, Control_c, 0, 64, 66
2, 29419, Control_c, 0, 64, 69
2, 29435, Control_c, 0, 64, 73
2, 29445, Note_on_c, 0, 49, 0
2, 29450, Control_c, 0, 64, 76
2, 29465, Control_c, 0, 64, 78
2, 29481, Control_c, 0, 64, 79
2, 29516, Note_on_c, 0, 68, 58
2, 29529, Note_on_c, 0, 69, 0
2, 29705, Note_on_c, 0, 68, 0
2, 29722, Note_on_c, 0, 65, 0
2, 29732, Note_on_c, 0, 42, 43
2, 29734, Note_on_c, 0, 66, 51
2, 29738, Note_on_c, 0, 69, 56
2, 29756, Control_c, 0, 64, 78
2, 29770, Control_c, 0, 64, 75
2, 29793, Control_c, 0, 64, 71
2, 29808, Control_c, 0, 64, 66
2, 29823, Control_c, 0, 64, 60
2, 29839, Control_c, 0, 64, 47
2, 29852, Control_c, 0, 64, 0
2, 29945, Note_on_c, 0, 45, 52
2, 29973, Control_c, 0, 64, 31
2, 29989, Control_c, 0, 64, 45
2, 30004, Control_c, 0, 64, 50
2, 30019, Control_c, 0, 64, 53
2, 30029, Note_on_c, 0, 42, 0
2, 30035, Control_c, 0, 64, 55
2, 30049, Control_c, 0, 64, 56
2, 30064, Control_c, 0, 64, 57
2, 30159, Note_on_c, 0, 45, 0
2, 30166, Note_on_c, 0, 49, 54
2, 30171, Control_c, 0, 64, 56
2, 30186, Control_c, 0, 64, 55
2, 30293, Control_c, 0, 64, 54
2, 30309, Control_c, 0, 64, 53
2, 30315, Note_on_c, 0, 66, 0
2, 30323, Control_c, 0, 64, 50
2, 30336, Note_on_c, 0, 49, 0
2, 30338, Control_c, 0, 64, 42
2, 30354, Control_c, 0, 64, 28
2, 30368, Control_c, 0, 64, 0
2, 30372, Note_on_c, 0, 54, 53
2, 30431, Control_c, 0, 64, 15
2, 30446, Control_c, 0, 64, 31
2, 30461, Control_c, 0, 64, 40
2, 30476, Control_c, 0, 64, 46
2, 30491, Control_c, 0, 64, 49
2, 30506, Control_c, 0, 64, 53
2, 30522, Control_c, 0, 64, 55
2, 30537, Control_c, 0, 64, 56
2, 30556, Note_on_c, 0, 54, 0
2, 30560, Control_c, 0, 64, 57
2, 30575, Control_c, 0, 64, 58
2, 30575, Note_on_c, 0, 71, 70
2, 30577, Note_on_c, 0, 69, 0
2, 30584, Note_on_c, 0, 52, 52
2, 30591, Control_c, 0, 64, 58
2, 30605, Control_c, 0, 64, 59
2, 30652, Control_c, 0, 64, 59
2, 30759, Note_on_c, 0, 54, 46
2, 30767, Note_on_c, 0, 68, 70
2, 30776, Note_on_c, 0, 71, 0
2, 30780, Note_on_c, 0, 64, 58
2, 30804, Control_c, 0, 64, 59
2, 30818, Control_c, 0, 64, 58
2, 30825, Note_on_c, 0, 52, 0
2, 30834, Control_c, 0, 64, 58
2, 30849, Control_c, 0, 64, 57
2, 30864, Control_c, 0, 64, 57
2, 30880, Control_c, 0, 64, 56
2, 30894, Control_c, 0, 64, 55
2, 30910, Control_c, 0, 64, 54
2, 30917, Note_on_c, 0, 54, 0
2, 30925, Control_c, 0, 64, 53
2, 30940, Control_c, 0, 64, 52
2, 30943, Note_on_c, 0, 64, 0
2, 30956, Control_c, 0, 64, 51
2, 30970, Control_c, 0, 64, 50
2, 30983, Note_on_c, 0, 68, 0
2, 30985, Control_c, 0, 64, 48
2, 30989, Note_on_c, 0, 69, 57
2, 30992, Note_on_c, 0, 47, 39
2, 31001, Control_c, 0, 64, 45
2, 31003, Note_on_c, 0, 63, 46
2, 31015, Control_c, 0, 64, 41
2, 31031, Control_c, 0, 64, 34
2, 31046, Control_c, 0, 64, 0
2, 31208, Note_on_c, 0, 51, 53
2, 31407, Note_on_c, 0, 47, 0
2, 31408, Note_on_c, 0, 51, 0
2, 31410, Note_on_c, 0, 54, 58
2, 31411, Note_on_c, 0, 63, 0
2, 31595, Note_on_c, 0, 54, 0
2, 31620, Note_on_c, 0, 59, 51
2, 31693, Control_c, 0, 64, 19
2, 31709, Control_c, 0, 64, 25
2, 31724, Control_c, 0, 64, 27
2, 31738, Control_c, 0, 64, 28
2, 31754, Control_c, 0, 64, 28
2, 31769, Control_c, 0, 64, 29
2, 31777, Note_on_c, 0, 59, 0
2, 31784, Control_c, 0, 64, 30
2, 31800, Control_c, 0, 64, 30
2, 31813, Note_on_c, 0, 69, 0
2, 31829, Note_on_c, 0, 57, 47
2, 31841, Note_on_c, 0, 71, 59
2, 31890, Control_c, 0, 64, 30
2, 31905, Control_c, 0, 64, 28
2, 31921, Control_c, 0, 64, 26
2, 31925, Note_on_c, 0, 71, 0
2, 31927, Note_on_c, 0, 69, 64
2, 31936, Control_c, 0, 64, 23
2, 31952, Control_c, 0, 64, 20
2, 31966, Control_c, 0, 64, 16
2, 31981, Control_c, 0, 64, 10
2, 31994, Note_on_c, 0, 57, 0
2, 31997, Control_c, 0, 64, 0
2, 32017, Note_on_c, 0, 69, 0
2, 32018, Note_on_c, 0, 59, 41
2, 32018, Note_on_c, 0, 68, 64
2, 32111, Note_on_c, 0, 68, 0
2, 32123, Note_on_c, 0, 59, 0
2, 32125, Note_on_c, 0, 66, 63
2, 32180, Note_on_c, 0, 66, 0
2, 32199, Note_on_c, 0, 52, 46
2, 32202, Control_c, 0, 64, 8
2, 32225, Note_on_c, 0, 68, 66
2, 32310, Note_on_c, 0, 66, 68
2, 32324, Control_c, 0, 64, 0
2, 32343, Note_on_c, 0, 68, 0
2, 32379, Note_on_c, 0, 66, 0
2, 32402, Note_on_c, 0, 56, 57
2, 32404, Note_on_c, 0, 64, 73
2, 32416, Note_on_c, 0, 52, 0
2, 32492, Note_on_c, 0, 64, 0
2, 32492, Note_on_c, 0, 66, 76
2, 32552, Control_c, 0, 64, 8
2, 32567, Control_c, 0, 64, 12
2, 32578, Note_on_c, 0, 59, 60
2, 32581, Control_c, 0, 64, 13
2, 32586, Note_on_c, 0, 68, 77
2, 32593, Note_on_c, 0, 66, 0
2, 32597, Control_c, 0, 64, 15
2, 32604, Note_on_c, 0, 56, 0
2, 32666, Note_on_c, 0, 68, 0
2, 32678, Note_on_c, 0, 69, 79
2, 32719, Control_c, 0, 64, 12
2, 32734, Control_c, 0, 64, 0
2, 32743, Note_on_c, 0, 59, 0
2, 32747, Note_on_c, 0, 69, 0
2, 32771, Note_on_c, 0, 71, 81
2, 32775, Note_on_c, 0, 64, 61
2, 32872, Note_on_c, 0, 69, 79
2, 32884, Note_on_c, 0, 71, 0
2, 32957, Note_on_c, 0, 69, 0
2, 32963, Note_on_c, 0, 68, 79
2, 32973, Note_on_c, 0, 62, 65
2, 33021, Note_on_c, 0, 64, 0
2, 33027, Note_on_c, 0, 68, 0
2, 33047, Note_on_c, 0, 69, 85
2, 33118, Note_on_c, 0, 69, 0
2, 33137, Note_on_c, 0, 71, 80
2, 33138, Note_on_c, 0, 62, 0
2, 33150, Note_on_c, 0, 61, 62
2, 33230, Note_on_c, 0, 71, 0
2, 33232, Note_on_c, 0, 73, 83
2, 33302, Note_on_c, 0, 61, 0
2, 33324, Note_on_c, 0, 59, 59
2, 33324, Note_on_c, 0, 74, 74
2, 33327, Note_on_c, 0, 73, 0
2, 33419, Note_on_c, 0, 73, 86
2, 33452, Note_on_c, 0, 74, 0
2, 33506, Note_on_c, 0, 71, 80
2, 33522, Note_on_c, 0, 73, 0
2, 33582, Note_on_c, 0, 71, 0
2, 33596, Note_on_c, 0, 69, 74
2, 33680, Note_on_c, 0, 59, 0
2, 33682, Note_on_c, 0, 57, 56
2, 33692, Note_on_c, 0, 69, 0
2, 33696, Note_on_c, 0, 68, 72
2, 33782, Note_on_c, 0, 66, 70
2, 33782, Note_on_c, 0, 68, 0
2, 33863, Note_on_c, 0, 57, 0
2, 33865, Note_on_c, 0, 66, 0
2, 33893, Note_on_c, 0, 64, 62
2, 33901, Note_on_c, 0, 56, 53
2, 34000, Note_on_c, 0, 62, 59
2, 34012, Control_c, 0, 64, 26
2, 34027, Control_c, 0, 64, 37
2, 34027, Note_on_c, 0, 56, 0
2, 34043, Control_c, 0, 64, 44
2, 34048, Note_on_c, 0, 64, 0
2, 34057, Control_c, 0, 64, 49
2, 34073, Control_c, 0, 64, 54
2, 34088, Control_c, 0, 64, 57
2, 34088, Note_on_c, 0, 61, 65
2, 34088, Note_on_c, 0, 62, 0
2, 34103, Control_c, 0, 64, 59
2, 34119, Control_c, 0, 64, 61
2, 34134, Control_c, 0, 64, 61
2, 34186, Note_on_c, 0, 59, 63
2, 34189, Note_on_c, 0, 61, 0
2, 34195, Control_c, 0, 64, 61
2, 34210, Control_c, 0, 64, 60
2, 34225, Control_c, 0, 64, 59
2, 34241, Control_c, 0, 64, 59
2, 34256, Control_c, 0, 64, 58
2, 34271, Control_c, 0, 64, 57
2, 34284, Note_on_c, 0, 57, 55
2, 34285, Note_on_c, 0, 59, 0
2, 34286, Control_c, 0, 64, 55
2, 34286, Control_c, 0, 67, 13
2, 34301, Control_c, 0, 64, 54
2, 34301, Control_c, 0, 67, 28
2, 34316, Control_c, 0, 64, 53
2, 34316, Control_c, 0, 67, 37
2, 34331, Control_c, 0, 64, 52
2, 34331, Control_c, 0, 67, 42
2, 34346, Control_c, 0, 64, 51
2, 34346, Control_c, 0, 67, 47
2, 34362, Control_c, 0, 64, 50
2, 34362, Control_c, 0, 67, 51
2, 34374, Note_on_c, 0, 57, 0
2, 34377, Control_c, 0, 64, 49
2, 34377, Control_c, 0, 67, 56
2, 34379, Note_on_c, 0, 56, 51
2, 34400, Control_c, 0, 64, 48
2, 34400, Control_c, 0, 67, 63
2, 34415, Control_c, 0, 64, 48
2, 34415, Control_c, 0, 67, 70
2, 34431, Control_c, 0, 64, 47
2, 34431, Control_c, 0, 67, 74
2, 34446, Control_c, 0, 67, 78
2, 34461, Control_c, 0, 64, 46
2, 34461, Control_c, 0, 67, 80
2, 34476, Control_c, 0, 64, 45
2, 34476, Control_c, 0, 67, 81
2, 34491, Control_c, 0, 64, 45
2, 34491, Control_c, 0, 67, 84
2, 34507, Control_c, 0, 64, 44
2, 34507, Control_c, 0, 67, 89
2, 34522, Control_c, 0, 64, 42
2, 34522, Control_c, 0, 67, 95
2, 34527, Note_on_c, 0, 56, 0
2, 34527, Note_on_c, 0, 69, 52
2, 34529, Note_on_c, 0, 57, 46
2, 34537, Control_c, 0, 64, 37
2, 34537, Control_c, 0, 67, 103
2, 34555, Control_c, 0, 64, 26
2, 34555, Control_c, 0, 67, 112
2, 34570, Control_c, 0, 64, 0
2, 34570, Control_c, 0, 67, 122
2, 34586, Control_c, 0, 67, 127
2, 34751, Note_on_c, 0, 73, 63
2, 34757, Note_on_c, 0, 69, 0
2, 34952, Note_on_c, 0, 76, 69
2, 34958, Note_on_c, 0, 73, 0
2, 34965, Control_c, 0, 64, 13
2, 34980, Control_c, 0, 64, 26
2, 34996, Control_c, 0, 64, 33
2, 35010, Control_c, 0, 64, 38
2, 35026, Control_c, 0, 64, 43
2, 35041, Control_c, 0, 64, 48
2, 35056, Control_c, 0, 64, 51
2, 35072, Control_c, 0, 64, 54
2, 35087, Control_c, 0, 64, 55
2, 35125, Note_on_c, 0, 76, 0
2, 35159, Note_on_c, 0, 81, 62
2, 35160, Note_on_c, 0, 61, 45
2, 35185, Control_c, 0, 64, 54
2, 35200, Control_c, 0, 64, 52
2, 35215, Control_c, 0, 64, 51
2, 35231, Control_c, 0, 64, 48
2, 35246, Control_c, 0, 64, 45
2, 35262, Control_c, 0, 64, 40
2, 35277, Control_c, 0, 64, 26
2, 35292, Control_c, 0, 64, 0
2, 35335, Note_on_c, 0, 81, 0
2, 35366, Note_on_c, 0, 80, 70
2, 35399, Control_c, 0, 64, 26
2, 35414, Control_c, 0, 64, 36
2, 35430, Control_c, 0, 64, 42
2, 35445, Control_c, 0, 64, 46
2, 35460, Control_c, 0, 64, 51
2, 35475, Control_c, 0, 64, 54
2, 35490, Control_c, 0, 64, 57
2, 35506, Control_c, 0, 64, 59
2, 35521, Control_c, 0, 64, 61
2, 35524, Note_on_c, 0, 80, 0
2, 35536, Control_c, 0, 64, 62
2, 35551, Control_c, 0, 64, 63
2, 35563, Note_on_c, 0, 81, 65
2, 35566, Control_c, 0, 64, 64
2, 35703, Control_c, 0, 64, 63
2, 35727, Note_on_c, 0, 81, 0
2, 35749, Control_c, 0, 64, 63
2, 35763, Control_c, 0, 64, 62
2, 35778, Control_c, 0, 64, 61
2, 35778, Note_on_c, 0, 62, 34
2, 35783, Note_on_c, 0, 61, 0
2, 35785, Note_on_c, 0, 80, 53
2, 35794, Control_c, 0, 64, 60
2, 35813, Note_on_c, 0, 80, 0
2, 35824, Control_c, 0, 64, 60
2, 35833, Note_on_c, 0, 78, 61
2, 35839, Control_c, 0, 64, 59
2, 35854, Control_c, 0, 64, 58
2, 35858, Note_on_c, 0, 78, 0
2, 35870, Control_c, 0, 64, 56
2, 35875, Note_on_c, 0, 80, 68
2, 35885, Control_c, 0, 64, 54
2, 35900, Control_c, 0, 64, 51
2, 35916, Control_c, 0, 64, 46
2, 35923, Note_on_c, 0, 80, 0
2, 35924, Note_on_c, 0, 78, 77
2, 35938, Control_c, 0, 64, 38
2, 35954, Control_c, 0, 64, 20
2, 35968, Control_c, 0, 64, 0
2, 35990, Note_on_c, 0, 78, 0
2, 35992, Note_on_c, 0, 76, 64
2, 36165, Note_on_c, 0, 76, 0
2, 36192, Note_on_c, 0, 78, 66
2, 36376, Note_on_c, 0, 78, 0
2, 36398, Note_on_c, 0, 81, 58
2, 36500, Control_c, 0, 64, 17
2, 36516, Control_c, 0, 64, 26
2, 36530, Control_c, 0, 64, 32
2, 36546, Control_c, 0, 64, 36
2, 36561, Control_c, 0, 64, 39
2, 36576, Control_c, 0, 64, 41
2, 36585, Note_on_c, 0, 61, 52
2, 36592, Control_c, 0, 64, 44
2, 36606, Control_c, 0, 64, 46
2, 36622, Control_c, 0, 64, 47
2, 36637, Control_c, 0, 64, 48
2, 36652, Control_c, 0, 64, 48
2, 36668, Control_c, 0, 64, 49
2, 36681, Note_on_c, 0, 62, 0
2, 36683, Control_c, 0, 64, 50
2, 36706, Control_c, 0, 64, 52
2, 36721, Control_c, 0, 64, 53
2, 36735, Control_c, 0, 64, 54
2, 36742, Note_on_c, 0, 61, 0
2, 36793, Note_on_c, 0, 59, 54
2, 36904, Control_c, 0, 64, 53
2, 36919, Control_c, 0, 64, 53
2, 36933, Control_c, 0, 64, 52
2, 36949, Control_c, 0, 64, 51
2, 36964, Control_c, 0, 64, 50
2, 36964, Note_on_c, 0, 59, 0
2, 36972, Note_on_c, 0, 81, 0
2, 36979, Control_c, 0, 64, 49
2, 36995, Control_c, 0, 64, 48
2, 37008, Note_on_c, 0, 78, 63
2, 37010, Control_c, 0, 64, 47
2, 37010, Note_on_c, 0, 61, 44
2, 37026, Control_c, 0, 64, 46
2, 37039, Note_on_c, 0, 78, 0
2, 37041, Control_c, 0, 64, 44
2, 37053, Note_on_c, 0, 76, 65
2, 37056, Control_c, 0, 64, 42
2, 37072, Control_c, 0, 64, 40
2, 37082, Note_on_c, 0, 76, 0
2, 37086, Control_c, 0, 64, 38
2, 37098, Note_on_c, 0, 78, 72
2, 37102, Control_c, 0, 64, 35
2, 37117, Control_c, 0, 64, 32
2, 37132, Control_c, 0, 64, 29
2, 37135, Note_on_c, 0, 78, 0
2, 37146, Note_on_c, 0, 76, 76
2, 37148, Control_c, 0, 64, 25
2, 37162, Control_c, 0, 64, 18
2, 37177, Control_c, 0, 64, 10
2, 37193, Control_c, 0, 64, 0
2, 37205, Note_on_c, 0, 76, 0
2, 37220, Note_on_c, 0, 74, 59
2, 37397, Note_on_c, 0, 74, 0
2, 37422, Note_on_c, 0, 76, 64
2, 37596, Note_on_c, 0, 76, 0
2, 37636, Note_on_c, 0, 81, 57
2, 37717, Control_c, 0, 64, 8
2, 37732, Control_c, 0, 64, 10
2, 37748, Control_c, 0, 64, 12
2, 37763, Control_c, 0, 64, 15
2, 37779, Control_c, 0, 64, 16
2, 37804, Note_on_c, 0, 61, 0
2, 37809, Control_c, 0, 64, 17
2, 37825, Control_c, 0, 64, 18
2, 37830, Note_on_c, 0, 62, 52
2, 37840, Control_c, 0, 64, 19
2, 37871, Control_c, 0, 64, 20
2, 37885, Control_c, 0, 64, 21
2, 37900, Control_c, 0, 64, 22
2, 37930, Control_c, 0, 64, 22
2, 37976, Control_c, 0, 64, 23
2, 38020, Note_on_c, 0, 61, 56
2, 38088, Note_on_c, 0, 62, 0
2, 38184, Note_on_c, 0, 61, 0
2, 38235, Note_on_c, 0, 74, 59
2, 38241, Note_on_c, 0, 59, 44
2, 38361, Note_on_c, 0, 81, 0
2, 38442, Note_on_c, 0, 74, 0
2, 38448, Note_on_c, 0, 76, 71
2, 38606, Control_c, 0, 64, 22
2, 38633, Note_on_c, 0, 78, 76
2, 38638, Note_on_c, 0, 76, 0
2, 38806, Note_on_c, 0, 59, 0
2, 38808, Note_on_c, 0, 57, 0
2, 38835, Note_on_c, 0, 78, 0
2, 38837, Note_on_c, 0, 76, 65
2, 38845, Note_on_c, 0, 56, 43
2, 38894, Control_c, 0, 64, 27
2, 38910, Control_c, 0, 64, 34
2, 38925, Control_c, 0, 64, 41
2, 38940, Control_c, 0, 64, 47
2, 38956, Control_c, 0, 64, 52
2, 38970, Control_c, 0, 64, 57
2, 38985, Control_c, 0, 64, 60
2, 39008, Control_c, 0, 64, 63
2, 39008, Control_c, 0, 67, 122
2, 39016, Note_on_c, 0, 56, 0
2, 39023, Control_c, 0, 64, 65
2, 39023, Control_c, 0, 67, 116
2, 39039, Control_c, 0, 64, 69
2, 39039, Control_c, 0, 67, 107
2, 39041, Note_on_c, 0, 76, 0
2, 39047, Note_on_c, 0, 78, 68
2, 39053, Control_c, 0, 64, 76
2, 39053, Control_c, 0, 67, 98
2, 39067, Control_c, 0, 64, 85
2, 39067, Control_c, 0, 67, 85
2, 39083, Control_c, 0, 64, 100
2, 39083, Control_c, 0, 67, 70
2, 39098, Control_c, 0, 64, 124
2, 39098, Control_c, 0, 67, 53
2, 39114, Control_c, 0, 64, 127
2, 39114, Control_c, 0, 67, 36
2, 39128, Control_c, 0, 67, 19
2, 39143, Control_c, 0, 67, 0
2, 39237, Note_on_c, 0, 78, 0
2, 39249, Note_on_c, 0, 74, 68
2, 39441, Note_on_c, 0, 74, 0
2, 39448, Note_on_c, 0, 73, 70
2, 39453, Note_on_c, 0, 45, 48
2, 39524, Control_c, 0, 64, 117
2, 39539, Control_c, 0, 64, 110
2, 39555, Control_c, 0, 64, 104
2, 39570, Control_c, 0, 64, 97
2, 39585, Control_c, 0, 64, 90
2, 39601, Control_c, 0, 64, 81
2, 39615, Control_c, 0, 64, 72
2, 39631, Control_c, 0, 64, 65
2, 39645, Note_on_c, 0, 49, 60
2, 39646, Control_c, 0, 64, 54
2, 39649, Note_on_c, 0, 69, 75
2, 39661, Control_c, 0, 64, 0
2, 39673, Note_on_c, 0, 73, 0
2, 39743, Note_on_c, 0, 45, 0
2, 39820, Control_c, 0, 64, 8
2, 39836, Control_c, 0, 64, 19
2, 39840, Note_on_c, 0, 71, 78
2, 39844, Note_on_c, 0, 69, 0
2, 39845, Note_on_c, 0, 52, 62
2, 39851, Control_c, 0, 64, 24
2, 39866, Control_c, 0, 64, 26
2, 39883, Note_on_c, 0, 49, 0
2, 39987, Control_c, 0, 64, 25
2, 40003, Control_c, 0, 64, 23
2, 40013, Note_on_c, 0, 71, 0
2, 40018, Control_c, 0, 64, 21
2, 40031, Note_on_c, 0, 52, 0
2, 40033, Control_c, 0, 64, 17
2, 40042, Note_on_c, 0, 73, 79
2, 40048, Control_c, 0, 64, 10
2, 40053, Note_on_c, 0, 57, 58
2, 40063, Control_c, 0, 64, 0
2, 40231, Note_on_c, 0, 57, 0
2, 40245, Note_on_c, 0, 56, 69
2, 40414, Note_on_c, 0, 56, 0
2, 40445, Note_on_c, 0, 57, 64
2, 40646, Note_on_c, 0, 57, 0
2, 40657, Note_on_c, 0, 51, 59
2, 40839, Note_on_c, 0, 71, 74
2, 40881, Note_on_c, 0, 73, 0
2, 41010, Note_on_c, 0, 71, 0
2, 41035, Note_on_c, 0, 69, 68
2, 41038, Note_on_c, 0, 54, 54
2, 41206, Note_on_c, 0, 54, 0
2, 41237, Note_on_c, 0, 69, 0
2, 41244, Note_on_c, 0, 68, 62
2, 41266, Note_on_c, 0, 59, 41
2, 41289, Control_c, 0, 64, 17
2, 41293, Note_on_c, 0, 51, 0
2, 41312, Control_c, 0, 64, 34
2, 41327, Control_c, 0, 64, 43
2, 41342, Control_c, 0, 64, 49
2, 41358, Control_c, 0, 64, 54
2, 41373, Control_c, 0, 64, 58
2, 41387, Control_c, 0, 64, 62
2, 41402, Note_on_c, 0, 59, 0
2, 41403, Control_c, 0, 64, 66
2, 41418, Control_c, 0, 64, 72
2, 41434, Control_c, 0, 64, 82
2, 41447, Note_on_c, 0, 68, 0
2, 41449, Control_c, 0, 64, 101
2, 41459, Note_on_c, 0, 69, 66
2, 41463, Control_c, 0, 64, 127
2, 41648, Note_on_c, 0, 66, 65
2, 41672, Note_on_c, 0, 69, 0
2, 41842, Note_on_c, 0, 68, 68
2, 41854, Note_on_c, 0, 40, 47
2, 41854, Note_on_c, 0, 66, 0
2, 41890, Control_c, 0, 64, 113
2, 41905, Control_c, 0, 64, 96
2, 41921, Control_c, 0, 64, 82
2, 41936, Control_c, 0, 64, 67
2, 41951, Control_c, 0, 64, 51
2, 41966, Control_c, 0, 64, 0
2, 42040, Note_on_c, 0, 44, 59
2, 42050, Note_on_c, 0, 64, 76
2, 42062, Note_on_c, 0, 68, 0
2, 42105, Note_on_c, 0, 40, 0
2, 42156, Control_c, 0, 64, 26
2, 42171, Control_c, 0, 64, 33
2, 42186, Control_c, 0, 64, 37
2, 42202, Control_c, 0, 64, 40
2, 42217, Control_c, 0, 64, 41
2, 42255, Note_on_c, 0, 47, 63
2, 42256, Note_on_c, 0, 66, 75
2, 42278, Note_on_c, 0, 64, 0
2, 42294, Note_on_c, 0, 44, 0
2, 42323, Control_c, 0, 64, 41
2, 42338, Control_c, 0, 64, 39
2, 42354, Control_c, 0, 64, 37
2, 42368, Control_c, 0, 64, 36
2, 42383, Control_c, 0, 64, 35
2, 42414, Control_c, 0, 64, 35
2, 42430, Control_c, 0, 64, 34
2, 42444, Control_c, 0, 64, 32
2, 42451, Note_on_c, 0, 47, 0
2, 42459, Control_c, 0, 64, 29
2, 42459, Note_on_c, 0, 68, 78
2, 42460, Note_on_c, 0, 52, 67
2, 42467, Note_on_c, 0, 66, 0
2, 42475, Control_c, 0, 64, 28
2, 42490, Control_c, 0, 64, 26
2, 42521, Control_c, 0, 64, 25
2, 42535, Control_c, 0, 64, 24
2, 42652, Note_on_c, 0, 51, 70
2, 42671, Note_on_c, 0, 52, 0
2, 42857, Note_on_c, 0, 52, 65
2, 42859, Note_on_c, 0, 51, 0
2, 42999, Control_c, 0, 64, 23
2, 43014, Control_c, 0, 64, 22
2, 43030, Control_c, 0, 64, 21
2, 43045, Control_c, 0, 64, 19
2, 43060, Control_c, 0, 64, 16
2, 43074, Note_on_c, 0, 45, 59
2, 43075, Control_c, 0, 64, 10
2, 43078, Note_on_c, 0, 52, 0
2, 43090, Control_c, 0, 64, 0
2, 43242, Note_on_c, 0, 69, 68
2, 43260, Note_on_c, 0, 68, 0
2, 43449, Note_on_c, 0, 71, 79
2, 43457, Note_on_c, 0, 52, 61
2, 43468, Note_on_c, 0, 69, 0
2, 43644, Note_on_c, 0, 52, 0
2, 43666, Note_on_c, 0, 71, 0
2, 43676, Note_on_c, 0, 57, 50
2, 43676, Note_on_c, 0, 73, 74
2, 43782, Control_c, 0, 64, 16
2, 43798, Control_c, 0, 64, 43
2, 43813, Control_c, 0, 64, 54
2, 43828, Control_c, 0, 64, 60
2, 43843, Control_c, 0, 64, 64
2, 43858, Control_c, 0, 64, 68
2, 43870, Note_on_c, 0, 66, 75
2, 43874, Control_c, 0, 64, 75
2, 43889, Control_c, 0, 64, 88
2, 43904, Control_c, 0, 64, 108
2, 43919, Control_c, 0, 64, 127
2, 43941, Note_on_c, 0, 73, 0
2, 44026, Note_on_c, 0, 45, 0
2, 44060, Note_on_c, 0, 69, 79
2, 44107, Note_on_c, 0, 66, 0
2, 44190, Note_on_c, 0, 69, 0
2, 44251, Note_on_c, 0, 47, 48
2, 44280, Note_on_c, 0, 59, 71
2, 44284, Control_c, 0, 64, 119
2, 44299, Control_c, 0, 64, 96
2, 44315, Control_c, 0, 64, 81
2, 44330, Control_c, 0, 64, 69
2, 44345, Control_c, 0, 64, 58
2, 44361, Control_c, 0, 64, 0
2, 44489, Note_on_c, 0, 63, 80
2, 44517, Note_on_c, 0, 59, 0
2, 44521, Control_c, 0, 64, 24
2, 44536, Control_c, 0, 64, 35
2, 44552, Control_c, 0, 64, 43
2, 44566, Control_c, 0, 64, 49
2, 44581, Control_c, 0, 64, 54
2, 44597, Control_c, 0, 64, 57
2, 44611, Control_c, 0, 64, 59
2, 44626, Control_c, 0, 64, 59
2, 44677, Note_on_c, 0, 66, 82
2, 44716, Note_on_c, 0, 63, 0
2, 44734, Control_c, 0, 64, 59
2, 44750, Control_c, 0, 64, 58
2, 44764, Control_c, 0, 64, 57
2, 44809, Control_c, 0, 64, 57
2, 44824, Control_c, 0, 64, 56
2, 44840, Control_c, 0, 64, 55
2, 44855, Control_c, 0, 64, 53
2, 44871, Control_c, 0, 64, 53
2, 44884, Note_on_c, 0, 57, 0
2, 44885, Note_on_c, 0, 56, 59
2, 44886, Control_c, 0, 64, 52
2, 44890, Note_on_c, 0, 66, 0
2, 44890, Note_on_c, 0, 71, 74
2, 44900, Control_c, 0, 64, 52
2, 44916, Control_c, 0, 64, 50
2, 44931, Control_c, 0, 64, 47
2, 44946, Control_c, 0, 64, 44
2, 44961, Control_c, 0, 64, 41
2, 44976, Control_c, 0, 64, 33
2, 44992, Control_c, 0, 64, 0
2, 45088, Note_on_c, 0, 69, 69
2, 45088, Note_on_c, 0, 71, 0
2, 45276, Note_on_c, 0, 69, 0
2, 45289, Note_on_c, 0, 71, 70
2, 45476, Note_on_c, 0, 71, 0
2, 45507, Note_on_c, 0, 61, 58
2, 45685, Note_on_c, 0, 61, 0
2, 45697, Note_on_c, 0, 64, 69
2, 45896, Note_on_c, 0, 64, 0
2, 45914, Note_on_c, 0, 68, 64
2, 46090, Note_on_c, 0, 68, 0
2, 46126, Note_on_c, 0, 69, 49
2, 46338, Note_on_c, 0, 54, 58
2, 46341, Note_on_c, 0, 56, 0
2, 46348, Control_c, 0, 64, 10
2, 46363, Control_c, 0, 64, 22
2, 46377, Control_c, 0, 64, 29
2, 46393, Control_c, 0, 64, 33
2, 46408, Control_c, 0, 64, 35
2, 46424, Control_c, 0, 64, 38
2, 46439, Control_c, 0, 64, 40
2, 46454, Control_c, 0, 64, 41
2, 46470, Control_c, 0, 64, 42
2, 46485, Control_c, 0, 64, 43
2, 46507, Note_on_c, 0, 54, 0
2, 46526, Note_on_c, 0, 52, 62
2, 46591, Control_c, 0, 64, 42
2, 46606, Control_c, 0, 64, 41
2, 46621, Control_c, 0, 64, 40
2, 46637, Control_c, 0, 64, 39
2, 46651, Control_c, 0, 64, 38
2, 46667, Control_c, 0, 64, 36
2, 46690, Control_c, 0, 64, 35
2, 46705, Control_c, 0, 64, 33
2, 46711, Note_on_c, 0, 52, 0
2, 46720, Control_c, 0, 64, 32
2, 46729, Note_on_c, 0, 69, 0
2, 46735, Control_c, 0, 64, 30
2, 46740, Note_on_c, 0, 51, 49
2, 46748, Note_on_c, 0, 59, 56
2, 46750, Control_c, 0, 64, 27
2, 46765, Control_c, 0, 64, 22
2, 46780, Control_c, 0, 64, 10
2, 46797, Control_c, 0, 64, 0
2, 46939, Note_on_c, 0, 59, 0
2, 46958, Note_on_c, 0, 63, 61
2, 47153, Note_on_c, 0, 66, 60
2, 47178, Note_on_c, 0, 63, 0
2, 47335, Note_on_c, 0, 66, 0
2, 47363, Note_on_c, 0, 69, 52
2, 47473, Control_c, 0, 64, 13
2, 47488, Control_c, 0, 64, 27
2, 47503, Control_c, 0, 64, 35
2, 47518, Control_c, 0, 64, 40
2, 47533, Control_c, 0, 64, 44
2, 47549, Control_c, 0, 64, 49
2, 47551, Note_on_c, 0, 69, 0
2, 47564, Control_c, 0, 64, 52
2, 47571, Note_on_c, 0, 68, 49
2, 47579, Control_c, 0, 64, 56
2, 47595, Control_c, 0, 64, 59
2, 47610, Control_c, 0, 64, 61
2, 47626, Control_c, 0, 64, 64
2, 47641, Control_c, 0, 64, 65
2, 47655, Control_c, 0, 64, 68
2, 47671, Control_c, 0, 64, 72
2, 47686, Control_c, 0, 64, 76
2, 47701, Control_c, 0, 64, 80
2, 47717, Control_c, 0, 64, 83
2, 47732, Control_c, 0, 64, 84
2, 47733, Note_on_c, 0, 68, 0
2, 47773, Note_on_c, 0, 69, 48
2, 47774, Note_on_c, 0, 42, 45
2, 47869, Control_c, 0, 64, 83
2, 47878, Note_on_c, 0, 69, 0
2, 47878, Note_on_c, 0, 69, 5
2, 47884, Control_c, 0, 64, 82
2, 47899, Control_c, 0, 64, 81
2, 47910, Note_on_c, 0, 42, 0
2, 47915, Control_c, 0, 64, 79
2, 47930, Control_c, 0, 64, 77
2, 47945, Control_c, 0, 64, 74
2, 47960, Control_c, 0, 64, 72
2, 47974, Note_on_c, 0, 69, 0
2, 47975, Control_c, 0, 64, 70
2, 47990, Control_c, 0, 64, 68
2, 47997, Note_on_c, 0, 47, 0
2, 47998, Note_on_c, 0, 59, 43
2, 48002, Note_on_c, 0, 43, 39
2, 48005, Control_c, 0, 64, 66
2, 48020, Control_c, 0, 64, 65
2, 48036, Control_c, 0, 64, 64
2, 48051, Control_c, 0, 64, 63
2, 48066, Control_c, 0, 64, 61
2, 48081, Control_c, 0, 64, 58
2, 48096, Control_c, 0, 64, 53
2, 48112, Control_c, 0, 64, 46
2, 48127, Control_c, 0, 64, 33
2, 48141, Control_c, 0, 64, 0
2, 48225, Note_on_c, 0, 63, 52
2, 48229, Note_on_c, 0, 59, 0
2, 48413, Note_on_c, 0, 66, 59
2, 48452, Note_on_c, 0, 63, 0
2, 48592, Note_on_c, 0, 66, 0
2, 48618, Note_on_c, 0, 67, 53
2, 48627, Note_on_c, 0, 52, 42
2, 48644, Note_on_c, 0, 51, 0
2, 48811, Note_on_c, 0, 45, 53
2, 48818, Note_on_c, 0, 52, 0
2, 48849, Control_c, 0, 64, 28
2, 48865, Control_c, 0, 64, 40
2, 48867, Note_on_c, 0, 43, 0
2, 48880, Control_c, 0, 64, 47
2, 48895, Control_c, 0, 64, 52
2, 48910, Control_c, 0, 64, 58
2, 48925, Control_c, 0, 64, 62
2, 48940, Control_c, 0, 64, 64
2, 48956, Control_c, 0, 64, 68
2, 48971, Control_c, 0, 64, 73
2, 48994, Control_c, 0, 64, 80
2, 49009, Control_c, 0, 64, 87
2, 49016, Note_on_c, 0, 47, 65
2, 49025, Control_c, 0, 64, 95
2, 49040, Control_c, 0, 64, 99
2, 49053, Control_c, 0, 64, 100
2, 49079, Note_on_c, 0, 45, 0
2, 49092, Note_on_c, 0, 47, 0
2, 49174, Control_c, 0, 64, 100
2, 49190, Control_c, 0, 64, 98
2, 49205, Control_c, 0, 64, 95
2, 49220, Control_c, 0, 64, 93
2, 49227, Note_on_c, 0, 48, 64
2, 49236, Control_c, 0, 64, 89
2, 49252, Control_c, 0, 64, 86
2, 49267, Control_c, 0, 64, 82
2, 49282, Control_c, 0, 64, 78
2, 49297, Control_c, 0, 64, 75
2, 49313, Control_c, 0, 64, 71
2, 49328, Control_c, 0, 64, 68
2, 49343, Control_c, 0, 64, 65
2, 49358, Control_c, 0, 64, 62
2, 49373, Control_c, 0, 64, 57
2, 49389, Control_c, 0, 64, 49
2, 49404, Control_c, 0, 64, 35
2, 49418, Control_c, 0, 64, 0
2, 49435, Note_on_c, 0, 54, 66
2, 49438, Note_on_c, 0, 69, 76
2, 49446, Note_on_c, 0, 67, 0
2, 49629, Note_on_c, 0, 67, 79
2, 49643, Note_on_c, 0, 55, 63
2, 49665, Note_on_c, 0, 54, 0
2, 49681, Note_on_c, 0, 69, 0
2, 49808, Note_on_c, 0, 55, 0
2, 49837, Note_on_c, 0, 57, 53
2, 49837, Note_on_c, 0, 66, 76
2, 49868, Note_on_c, 0, 67, 0
2, 50018, Control_c, 0, 64, 25
2, 50034, Control_c, 0, 64, 39
2, 50041, Note_on_c, 0, 66, 0
2, 50044, Note_on_c, 0, 67, 80
2, 50049, Control_c, 0, 64, 47
2, 50065, Control_c, 0, 64, 52
2, 50080, Control_c, 0, 64, 57
2, 50095, Control_c, 0, 64, 60
2, 50111, Control_c, 0, 64, 62
2, 50126, Control_c, 0, 64, 65
2, 50141, Control_c, 0, 64, 67
2, 50157, Control_c, 0, 64, 71
2, 50172, Control_c, 0, 64, 76
2, 50187, Control_c, 0, 64, 81
2, 50202, Control_c, 0, 64, 85
2, 50217, Control_c, 0, 64, 87
2, 50220, Note_on_c, 0, 67, 0
2, 50235, Note_on_c, 0, 64, 78
2, 50283, Note_on_c, 0, 64, 0
2, 50399, Control_c, 0, 64, 86
2, 50414, Control_c, 0, 64, 85
2, 50430, Control_c, 0, 64, 83
2, 50441, Note_on_c, 0, 64, 67
2, 50444, Control_c, 0, 64, 81
2, 50459, Control_c, 0, 64, 78
2, 50466, Note_on_c, 0, 47, 44
2, 50475, Control_c, 0, 64, 76
2, 50481, Note_on_c, 0, 64, 0
2, 50486, Note_on_c, 0, 48, 0
2, 50487, Note_on_c, 0, 63, 74
2, 50490, Control_c, 0, 64, 73
2, 50506, Control_c, 0, 64, 71
2, 50528, Control_c, 0, 64, 68
2, 50543, Note_on_c, 0, 57, 0
2, 50544, Control_c, 0, 64, 64
2, 50552, Note_on_c, 0, 63, 0
2, 50559, Control_c, 0, 64, 59
2, 50560, Note_on_c, 0, 64, 76
2, 50572, Control_c, 0, 64, 44
2, 50587, Control_c, 0, 64, 0
2, 50587, Note_on_c, 0, 63, 62
2, 50623, Note_on_c, 0, 64, 0
2, 50659, Note_on_c, 0, 61, 82
2, 50695, Note_on_c, 0, 63, 0
2, 50860, Control_c, 0, 64, 13
2, 50870, Note_on_c, 0, 59, 84
2, 50876, Control_c, 0, 64, 35
2, 50883, Note_on_c, 0, 61, 0
2, 50892, Control_c, 0, 64, 43
2, 50906, Control_c, 0, 64, 49
2, 50922, Control_c, 0, 64, 54
2, 50937, Control_c, 0, 64, 58
2, 50953, Control_c, 0, 64, 60
2, 50968, Control_c, 0, 64, 62
2, 50983, Control_c, 0, 64, 64
2, 50999, Control_c, 0, 64, 65
2, 51013, Control_c, 0, 64, 66
2, 51028, Control_c, 0, 64, 68
2, 51044, Control_c, 0, 64, 70
2, 51059, Control_c, 0, 64, 72
2, 51074, Note_on_c, 0, 59, 0
2, 51075, Control_c, 0, 64, 75
2, 51090, Control_c, 0, 64, 78
2, 51104, Control_c, 0, 64, 80
2, 51105, Note_on_c, 0, 72, 84
2, 51120, Control_c, 0, 64, 83
2, 51135, Control_c, 0, 64, 86
2, 51151, Control_c, 0, 64, 89
2, 51165, Control_c, 0, 64, 90
2, 51180, Control_c, 0, 64, 91
2, 51196, Control_c, 0, 64, 92
2, 51211, Control_c, 0, 64, 94
2, 51226, Control_c, 0, 64, 95
2, 51348, Note_on_c, 0, 71, 87
2, 51359, Note_on_c, 0, 56, 63
2, 51365, Note_on_c, 0, 49, 58
2, 51371, Control_c, 0, 64, 95
2, 51386, Control_c, 0, 64, 94
2, 51402, Control_c, 0, 64, 93
2, 51411, Note_on_c, 0, 72, 0
2, 51417, Control_c, 0, 64, 92
2, 51433, Control_c, 0, 64, 90
2, 51441, Note_on_c, 0, 47, 0
2, 51445, Note_on_c, 0, 56, 0
2, 51447, Control_c, 0, 64, 87
2, 51462, Control_c, 0, 64, 84
2, 51478, Control_c, 0, 64, 81
2, 51492, Control_c, 0, 64, 78
2, 51507, Control_c, 0, 64, 76
2, 51523, Control_c, 0, 64, 74
2, 51536, Note_on_c, 0, 54, 63
2, 51537, Note_on_c, 0, 70, 82
2, 51538, Control_c, 0, 64, 72
2, 51544, Note_on_c, 0, 51, 57
2, 51554, Control_c, 0, 64, 70
2, 51568, Control_c, 0, 64, 68
2, 51579, Note_on_c, 0, 71, 0
2, 51583, Control_c, 0, 64, 66
2, 51599, Control_c, 0, 64, 65
2, 51606, Note_on_c, 0, 49, 0
2, 51614, Control_c, 0, 64, 64
2, 51630, Control_c, 0, 64, 63
2, 51644, Control_c, 0, 64, 62
2, 51659, Control_c, 0, 64, 61
2, 51675, Control_c, 0, 64, 60
2, 51685, Note_on_c, 0, 54, 0
2, 51690, Control_c, 0, 64, 59
2, 51706, Control_c, 0, 64, 56
2, 51722, Control_c, 0, 64, 48
2, 51732, Note_on_c, 0, 52, 59
2, 51737, Control_c, 0, 64, 27
2, 51739, Note_on_c, 0, 69, 73
2, 51745, Note_on_c, 0, 70, 0
2, 51752, Control_c, 0, 64, 0
2, 51810, Note_on_c, 0, 51, 0
2, 51918, Note_on_c, 0, 68, 73
2, 51927, Note_on_c, 0, 69, 0
2, 52079, Control_c, 0, 64, 10
2, 52093, Control_c, 0, 64, 36
2, 52108, Control_c, 0, 64, 45
2, 52124, Control_c, 0, 64, 51
2, 52124, Note_on_c, 0, 46, 47
2, 52135, Note_on_c, 0, 67, 73
2, 52138, Control_c, 0, 64, 57
2, 52142, Note_on_c, 0, 68, 0
2, 52154, Control_c, 0, 64, 62
2, 52169, Control_c, 0, 64, 64
2, 52184, Control_c, 0, 64, 67
2, 52200, Control_c, 0, 64, 72
2, 52215, Control_c, 0, 64, 77
2, 52231, Control_c, 0, 64, 80
2, 52246, Control_c, 0, 64, 81
2, 52249, Note_on_c, 0, 46, 0
2, 52336, Control_c, 0, 64, 80
2, 52337, Note_on_c, 0, 67, 0
2, 52348, Note_on_c, 0, 52, 0
2, 52352, Control_c, 0, 64, 79
2, 52362, Note_on_c, 0, 47, 45
2, 52367, Control_c, 0, 64, 75
2, 52379, Note_on_c, 0, 66, 61
2, 52382, Control_c, 0, 64, 71
2, 52398, Control_c, 0, 64, 66
2, 52412, Control_c, 0, 64, 62
2, 52427, Control_c, 0, 64, 57
2, 52431, Note_on_c, 0, 66, 0
2, 52443, Control_c, 0, 64, 49
2, 52458, Control_c, 0, 64, 35
2, 52460, Note_on_c, 0, 68, 71
2, 52474, Control_c, 0, 64, 0
2, 52532, Note_on_c, 0, 68, 0
2, 52568, Note_on_c, 0, 69, 65
2, 52571, Note_on_c, 0, 51, 48
2, 52763, Control_c, 0, 64, 36
2, 52769, Note_on_c, 0, 69, 0
2, 52771, Note_on_c, 0, 57, 44
2, 52771, Note_on_c, 0, 63, 65
2, 52777, Control_c, 0, 64, 44
2, 52793, Control_c, 0, 64, 49
2, 52808, Control_c, 0, 64, 53
2, 52832, Control_c, 0, 64, 56
2, 52833, Note_on_c, 0, 47, 0
2, 52847, Control_c, 0, 64, 58
2, 52861, Control_c, 0, 64, 60
2, 52877, Control_c, 0, 64, 61
2, 52892, Control_c, 0, 64, 61
2, 52967, Note_on_c, 0, 57, 0
2, 52968, Control_c, 0, 64, 61
2, 52979, Note_on_c, 0, 51, 0
2, 52982, Control_c, 0, 64, 60
2, 52991, Note_on_c, 0, 63, 0
2, 52993, Note_on_c, 0, 64, 65
2, 52997, Note_on_c, 0, 56, 44
2, 52998, Control_c, 0, 64, 59
2, 53013, Control_c, 0, 64, 57
2, 53014, Note_on_c, 0, 49, 43
2, 53028, Control_c, 0, 64, 55
2, 53044, Control_c, 0, 64, 52
2, 53059, Control_c, 0, 64, 50
2, 53075, Control_c, 0, 64, 48
2, 53090, Control_c, 0, 64, 47
2, 53104, Control_c, 0, 64, 44
2, 53120, Control_c, 0, 64, 41
2, 53135, Control_c, 0, 64, 36
2, 53151, Control_c, 0, 64, 30
2, 53166, Control_c, 0, 64, 22
2, 53181, Control_c, 0, 64, 0
2, 53206, Note_on_c, 0, 52, 61
2, 53213, Note_on_c, 0, 56, 0
2, 53374, Note_on_c, 0, 52, 0
2, 53417, Note_on_c, 0, 56, 63
2, 53574, Note_on_c, 0, 56, 0
2, 53624, Note_on_c, 0, 57, 55
2, 53833, Note_on_c, 0, 56, 56
2, 53833, Note_on_c, 0, 57, 0
2, 53842, Control_c, 0, 64, 10
2, 53857, Control_c, 0, 64, 30
2, 53873, Control_c, 0, 64, 38
2, 53888, Control_c, 0, 64, 45
2, 53902, Control_c, 0, 64, 50
2, 53918, Control_c, 0, 64, 54
2, 53933, Control_c, 0, 64, 58
2, 53948, Control_c, 0, 64, 60
2, 53964, Control_c, 0, 64, 62
2, 53978, Control_c, 0, 64, 64
2, 53994, Control_c, 0, 64, 66
2, 54009, Control_c, 0, 64, 69
2, 54013, Note_on_c, 0, 56, 0
2, 54024, Control_c, 0, 64, 73
2, 54025, Note_on_c, 0, 57, 52
2, 54035, Note_on_c, 0, 49, 0
2, 54039, Control_c, 0, 64, 77
2, 54054, Control_c, 0, 64, 79
2, 54136, Note_on_c, 0, 57, 0
2, 54193, Control_c, 0, 64, 78
2, 54207, Control_c, 0, 64, 78
2, 54222, Control_c, 0, 64, 77
2, 54238, Control_c, 0, 64, 76
2, 54252, Control_c, 0, 64, 74
2, 54254, Note_on_c, 0, 52, 54
2, 54267, Control_c, 0, 64, 72
2, 54273, Note_on_c, 0, 44, 45
2, 54283, Control_c, 0, 64, 69
2, 54298, Control_c, 0, 64, 65
2, 54314, Control_c, 0, 64, 61
2, 54328, Control_c, 0, 64, 57
2, 54343, Control_c, 0, 64, 50
2, 54367, Control_c, 0, 64, 42
2, 54382, Control_c, 0, 64, 28
2, 54398, Control_c, 0, 64, 0
2, 54466, Note_on_c, 0, 56, 57
2, 54642, Note_on_c, 0, 56, 0
2, 54665, Note_on_c, 0, 59, 61
2, 54878, Note_on_c, 0, 62, 56
2, 54884, Note_on_c, 0, 59, 0
2, 55037, Control_c, 0, 64, 29
2, 55052, Control_c, 0, 64, 38
2, 55067, Control_c, 0, 64, 45
2, 55076, Note_on_c, 0, 62, 0
2, 55083, Control_c, 0, 64, 50
2, 55085, Note_on_c, 0, 61, 53
2, 55097, Control_c, 0, 64, 54
2, 55113, Control_c, 0, 64, 58
2, 55135, Control_c, 0, 64, 60
2, 55151, Control_c, 0, 64, 63
2, 55166, Control_c, 0, 64, 64
2, 55180, Control_c, 0, 64, 66
2, 55196, Control_c, 0, 64, 69
2, 55211, Control_c, 0, 64, 71
2, 55226, Control_c, 0, 64, 73
2, 55242, Control_c, 0, 64, 73
2, 55273, Control_c, 0, 64, 74
2, 55288, Control_c, 0, 64, 75
2, 55303, Control_c, 0, 64, 76
2, 55312, Note_on_c, 0, 61, 0
2, 55316, Note_on_c, 0, 62, 58
2, 55318, Control_c, 0, 64, 77
2, 55333, Control_c, 0, 64, 77
2, 55364, Control_c, 0, 64, 78
2, 55404, Note_on_c, 0, 44, 0
2, 55545, Control_c, 0, 64, 77
2, 55557, Note_on_c, 0, 52, 0
2, 55557, Note_on_c, 0, 62, 0
2, 55561, Control_c, 0, 64, 76
2, 55571, Note_on_c, 0, 61, 54
2, 55572, Note_on_c, 0, 45, 42
2, 55576, Control_c, 0, 64, 74
2, 55591, Control_c, 0, 64, 72
2, 55606, Control_c, 0, 64, 70
2, 55621, Control_c, 0, 64, 66
2, 55637, Control_c, 0, 64, 62
2, 55652, Control_c, 0, 64, 57
2, 55666, Control_c, 0, 64, 50
2, 55682, Control_c, 0, 64, 41
2, 55697, Control_c, 0, 64, 28
2, 55713, Control_c, 0, 64, 0
2, 55811, Note_on_c, 0, 49, 48
2, 56051, Note_on_c, 0, 49, 0
2, 56051, Note_on_c, 0, 52, 50
2, 56271, Note_on_c, 0, 52, 0
2, 56317, Note_on_c, 0, 57, 39
2, 56612, Note_on_c, 0, 56, 46
2, 56618, Note_on_c, 0, 57, 0
2, 57067, Note_on_c, 0, 64, 0
2, 57070, Note_on_c, 0, 61, 0
2, 57077, Note_on_c, 0, 63, 49
2, 57086, Note_on_c, 0, 56, 0
2, 57092, Note_on_c, 0, 60, 35
2, 57104, Note_on_c, 0, 57, 40
2, 57188, Control_c, 0, 64, 39
2, 57203, Control_c, 0, 64, 49
2, 57218, Control_c, 0, 64, 54
2, 57220, Note_on_c, 0, 57, 0
2, 57234, Control_c, 0, 64, 58
2, 57249, Control_c, 0, 64, 62
2, 57264, Control_c, 0, 64, 66
2, 57279, Control_c, 0, 64, 72
2, 57294, Control_c, 0, 64, 83
2, 57310, Control_c, 0, 64, 99
2, 57324, Control_c, 0, 64, 127
2, 57357, Note_on_c, 0, 45, 0
2, 57475, Note_on_c, 0, 60, 0
2, 58091, Note_on_c, 0, 63, 0
2, 58102, Note_on_c, 0, 64, 49
2, 58116, Note_on_c, 0, 59, 40
2, 58122, Note_on_c, 0, 56, 40
2, 58137, Note_on_c, 0, 40, 34
2, 58207, Control_c, 0, 64, 101
2, 58222, Control_c, 0, 64, 86
2, 58238, Control_c, 0, 64, 77
2, 58253, Control_c, 0, 64, 70
2, 58268, Control_c, 0, 64, 64
2, 58283, Control_c, 0, 64, 57
2, 58298, Control_c, 0, 64, 45
2, 58314, Control_c, 0, 64, 29
2, 58329, Control_c, 0, 64, 0
2, 59231, Control_c, 0, 64, 31
2, 59247, Control_c, 0, 64, 43
2, 59262, Control_c, 0, 64, 50
2, 59277, Control_c, 0, 64, 56
2, 59292, Control_c, 0, 64, 59
2, 59307, Control_c, 0, 64, 62
2, 59323, Control_c, 0, 64, 63
2, 59328, Note_on_c, 0, 64, 0
2, 59337, Control_c, 0, 64, 65
2, 59337, Note_on_c, 0, 56, 0
2, 59337, Note_on_c, 0, 59, 0
2, 59352, Control_c, 0, 64, 67
2, 59368, Control_c, 0, 64, 70
2, 59383, Control_c, 0, 64, 74
2, 59399, Control_c, 0, 64, 79
2, 59413, Control_c, 0, 64, 85
2, 59428, Control_c, 0, 64, 91
2, 59444, Control_c, 0, 64, 98
2, 59459, Control_c, 0, 64, 106
2, 59474, Control_c, 0, 64, 114
2, 59490, Control_c, 0, 64, 116
2, 59504, Control_c, 0, 64, 117
2, 59535, Control_c, 0, 64, 119
2, 59550, Control_c, 0, 64, 121
2, 59776, Note_on_c, 0, 40, 0
2, 60014, Control_c, 0, 64, 116
2, 60029, Control_c, 0, 64, 112
2, 60044, Control_c, 0, 64, 108
2, 60059, Control_c, 0, 64, 104
2, 60074, Control_c, 0, 64, 100
2, 60089, Control_c, 0, 64, 96
2, 60104, Control_c, 0, 64, 93
2, 60120, Control_c, 0, 64, 89
2, 60135, Control_c, 0, 64, 85
2, 60150, Control_c, 0, 64, 83
2, 60165, Control_c, 0, 64, 80
2, 60180, Control_c, 0, 64, 78
2, 60195, Control_c, 0, 64, 75
2, 60211, Control_c, 0, 64, 73
2, 60226, Control_c, 0, 64, 70
2, 60242, Control_c, 0, 64, 68
2, 60257, Control_c, 0, 64, 66
2, 60272, Control_c, 0, 64, 65
2, 60288, Control_c, 0, 64, 63
2, 60302, Control_c, 0, 64, 61
2, 60318, Control_c, 0, 64, 59
2, 60333, Control_c, 0, 64, 57
2, 60348, Control_c, 0, 64, 55
2, 60364, Control_c, 0, 64, 53
2, 60378, Control_c, 0, 64, 52
2, 60393, Control_c, 0, 64, 50
2, 60409, Control_c, 0, 64, 49
2, 60424, Control_c, 0, 64, 47
2, 60440, Control_c, 0, 64, 44
2, 60454, Control_c, 0, 64, 42
2, 60469, Control_c, 0, 64, 39
2, 60485, Control_c, 0, 64, 34
2, 60507, Control_c, 0, 64, 29
2, 60523, Control_c, 0, 64, 23
2, 60538, Control_c, 0, 64, 20
2, 60553, Control_c, 0, 64, 18
2, 60569, Control_c, 0, 64, 15
2, 60583, Control_c, 0, 64, 0
2, 61755, Note_on_c, 0, 64, 71
2, 61774, Note_on_c, 0, 64, 0
2, 62015, Note_on_c, 0, 66, 80
2, 62060, Control_c, 0, 64, 48
2, 62074, Control_c, 0, 64, 61
2, 62090, Control_c, 0, 64, 68
2, 62105, Control_c, 0, 64, 82
2, 62121, Control_c, 0, 64, 127
2, 62232, Note_on_c, 0, 66, 0
2, 62424, Control_c, 0, 64, 103
2, 62440, Control_c, 0, 64, 80
2, 62455, Control_c, 0, 64, 67
2, 62470, Control_c, 0, 64, 54
2, 62486, Control_c, 0, 64, 0
2, 62624, Note_on_c, 0, 59, 66
2, 62697, Note_on_c, 0, 59, 0
2, 62714, Note_on_c, 0, 61, 75
2, 62813, Note_on_c, 0, 61, 0
2, 62825, Note_on_c, 0, 63, 73
2, 62912, Note_on_c, 0, 63, 0
2, 62923, Note_on_c, 0, 64, 82
2, 63019, Note_on_c, 0, 64, 0
2, 63026, Note_on_c, 0, 63, 75
2, 63095, Note_on_c, 0, 63, 0
2, 63130, Note_on_c, 0, 64, 81
2, 63204, Note_on_c, 0, 64, 0
2, 63221, Note_on_c, 0, 66, 82
2, 63278, Note_on_c, 0, 66, 0
2, 63325, Note_on_c, 0, 68, 77
2, 63375, Note_on_c, 0, 68, 0
2, 63419, Note_on_c, 0, 69, 73
2, 63446, Note_on_c, 0, 69, 0
2, 63522, Note_on_c, 0, 71, 85
2, 63545, Note_on_c, 0, 71, 0
2, 63629, Note_on_c, 0, 68, 72
2, 63679, Note_on_c, 0, 68, 0
2, 63731, Note_on_c, 0, 73, 87
2, 63745, Note_on_c, 0, 64, 76
2, 63809, Control_c, 0, 64, 12
2, 63813, Note_on_c, 0, 64, 0
2, 63824, Control_c, 0, 64, 39
2, 63839, Control_c, 0, 64, 48
2, 63845, Note_on_c, 0, 63, 73
2, 63854, Control_c, 0, 64, 54
2, 63869, Control_c, 0, 64, 59
2, 63884, Control_c, 0, 64, 62
2, 63899, Control_c, 0, 64, 64
2, 63914, Control_c, 0, 64, 66
2, 63915, Note_on_c, 0, 63, 0
2, 63930, Control_c, 0, 64, 68
2, 63945, Control_c, 0, 64, 70
2, 63946, Note_on_c, 0, 64, 75
2, 63960, Control_c, 0, 64, 72
2, 63975, Control_c, 0, 64, 73
2, 63991, Control_c, 0, 64, 74
2, 64022, Control_c, 0, 64, 75
2, 64022, Note_on_c, 0, 64, 0
2, 64050, Note_on_c, 0, 66, 78
2, 64082, Note_on_c, 0, 73, 0
2, 64083, Control_c, 0, 64, 74
2, 64098, Control_c, 0, 64, 72
2, 64112, Control_c, 0, 64, 68
2, 64115, Note_on_c, 0, 66, 0
2, 64128, Control_c, 0, 64, 63
2, 64143, Control_c, 0, 64, 55
2, 64152, Note_on_c, 0, 64, 76
2, 64159, Control_c, 0, 64, 40
2, 64174, Control_c, 0, 64, 0
2, 64239, Note_on_c, 0, 64, 0
2, 64251, Note_on_c, 0, 63, 73
2, 64254, Note_on_c, 0, 66, 76
2, 64312, Note_on_c, 0, 66, 0
2, 64359, Note_on_c, 0, 68, 78
2, 64360, Note_on_c, 0, 63, 0
2, 64360, Note_on_c, 0, 64, 74
2, 64422, Note_on_c, 0, 68, 0
2, 64424, Note_on_c, 0, 64, 0
2, 64458, Note_on_c, 0, 70, 80
2, 64466, Note_on_c, 0, 66, 71
2, 64509, Note_on_c, 0, 70, 0
2, 64532, Note_on_c, 0, 66, 0
2, 64554, Note_on_c, 0, 71, 84
2, 64564, Note_on_c, 0, 63, 72
2, 64606, Note_on_c, 0, 71, 0
2, 64632, Note_on_c, 0, 63, 0
2, 64653, Note_on_c, 0, 61, 73
2, 64655, Note_on_c, 0, 70, 80
2, 64706, Note_on_c, 0, 70, 0
2, 64745, Note_on_c, 0, 61, 0
2, 64754, Note_on_c, 0, 71, 79
2, 64757, Note_on_c, 0, 63, 72
2, 64824, Note_on_c, 0, 71, 0
2, 64827, Note_on_c, 0, 63, 0
2, 64853, Note_on_c, 0, 64, 78
2, 64854, Note_on_c, 0, 73, 85
2, 64903, Note_on_c, 0, 73, 0
2, 64910, Note_on_c, 0, 64, 0
2, 64947, Note_on_c, 0, 66, 81
2, 64949, Note_on_c, 0, 75, 86
2, 64999, Note_on_c, 0, 75, 0
2, 65042, Note_on_c, 0, 68, 79
2, 65046, Note_on_c, 0, 66, 0
2, 65049, Note_on_c, 0, 76, 87
2, 65091, Note_on_c, 0, 68, 0
2, 65121, Note_on_c, 0, 76, 0
2, 65151, Note_on_c, 0, 69, 81
2, 65158, Note_on_c, 0, 78, 84
2, 65206, Note_on_c, 0, 69, 0
2, 65250, Note_on_c, 0, 66, 78
2, 65256, Note_on_c, 0, 75, 83
2, 65265, Note_on_c, 0, 78, 0
2, 65278, Note_on_c, 0, 75, 0
2, 65289, Note_on_c, 0, 66, 0
2, 65349, Note_on_c, 0, 68, 80
2, 65350, Note_on_c, 0, 71, 86
2, 65372, Note_on_c, 0, 68, 0
2, 65397, Note_on_c, 0, 71, 0
2, 65450, Note_on_c, 0, 69, 79
2, 65493, Note_on_c, 0, 69, 0
2, 65550, Note_on_c, 0, 59, 78
2, 65562, Note_on_c, 0, 71, 79
2, 65571, Note_on_c, 0, 59, 0
2, 65594, Note_on_c, 0, 71, 0
2, 65656, Note_on_c, 0, 73, 79
2, 65760, Note_on_c, 0, 64, 90
2, 65769, Note_on_c, 0, 71, 83
2, 65771, Note_on_c, 0, 73, 0
2, 65850, Note_on_c, 0, 71, 0
2, 65867, Note_on_c, 0, 69, 78
2, 65925, Note_on_c, 0, 69, 0
2, 65977, Note_on_c, 0, 71, 85
2, 65984, Note_on_c, 0, 52, 83
2, 66012, Note_on_c, 0, 52, 0
2, 66028, Note_on_c, 0, 71, 0
2, 66079, Note_on_c, 0, 73, 80
2, 66179, Note_on_c, 0, 73, 0
2, 66197, Note_on_c, 0, 69, 82
2, 66201, Note_on_c, 0, 54, 89
2, 66207, Note_on_c, 0, 64, 0
2, 66264, Control_c, 0, 64, 36
2, 66280, Control_c, 0, 64, 49
2, 66295, Control_c, 0, 64, 56
2, 66295, Note_on_c, 0, 68, 87
2, 66298, Note_on_c, 0, 69, 0
2, 66310, Control_c, 0, 64, 62
2, 66326, Control_c, 0, 64, 67
2, 66340, Control_c, 0, 64, 74
2, 66355, Control_c, 0, 64, 88
2, 66357, Note_on_c, 0, 54, 0
2, 66365, Note_on_c, 0, 68, 0
2, 66371, Control_c, 0, 64, 100
2, 66386, Control_c, 0, 64, 108
2, 66402, Control_c, 0, 64, 110
2, 66408, Note_on_c, 0, 63, 71
2, 66408, Note_on_c, 0, 69, 89
2, 66435, Note_on_c, 0, 63, 0
2, 66497, Note_on_c, 0, 69, 0
2, 66505, Note_on_c, 0, 71, 89
2, 66554, Control_c, 0, 64, 109
2, 66570, Control_c, 0, 64, 97
2, 66585, Control_c, 0, 64, 82
2, 66600, Control_c, 0, 64, 69
2, 66607, Note_on_c, 0, 69, 87
2, 66611, Note_on_c, 0, 66, 88
2, 66615, Control_c, 0, 64, 57
2, 66625, Note_on_c, 0, 71, 0
2, 66630, Control_c, 0, 64, 0
2, 66715, Note_on_c, 0, 47, 73
2, 66726, Note_on_c, 0, 68, 83
2, 66729, Note_on_c, 0, 69, 0
2, 66765, Note_on_c, 0, 66, 0
2, 66809, Note_on_c, 0, 68, 0
2, 66815, Note_on_c, 0, 49, 76
2, 66824, Note_on_c, 0, 69, 82
2, 66826, Note_on_c, 0, 47, 0
2, 66885, Note_on_c, 0, 49, 0
2, 66923, Note_on_c, 0, 71, 84
2, 66925, Note_on_c, 0, 51, 79
2, 66925, Note_on_c, 0, 69, 0
2, 66991, Note_on_c, 0, 51, 0
2, 67017, Note_on_c, 0, 52, 80
2, 67031, Note_on_c, 0, 68, 86
2, 67038, Note_on_c, 0, 71, 0
2, 67071, Note_on_c, 0, 52, 0
2, 67110, Note_on_c, 0, 68, 0
2, 67123, Note_on_c, 0, 66, 84
2, 67126, Note_on_c, 0, 51, 73
2, 67174, Note_on_c, 0, 51, 0
2, 67176, Note_on_c, 0, 66, 0
2, 67221, Note_on_c, 0, 52, 74
2, 67227, Note_on_c, 0, 68, 82
2, 67231, Note_on_c, 0, 59, 80
2, 67264, Note_on_c, 0, 59, 0
2, 67287, Note_on_c, 0, 68, 0
2, 67301, Note_on_c, 0, 52, 0
2, 67320, Note_on_c, 0, 54, 76
2, 67326, Note_on_c, 0, 70, 87
2, 67381, Note_on_c, 0, 70, 0
2, 67398, Note_on_c, 0, 54, 0
2, 67434, Note_on_c, 0, 56, 77
2, 67434, Note_on_c, 0, 64, 92
2, 67439, Note_on_c, 0, 71, 86
2, 67468, Note_on_c, 0, 62, 48
2, 67469, Note_on_c, 0, 62, 0
2, 67539, Note_on_c, 0, 57, 75
2, 67552, Note_on_c, 0, 56, 0
2, 67601, Note_on_c, 0, 57, 0
2, 67612, Note_on_c, 0, 64, 0
2, 67634, Note_on_c, 0, 63, 89
2, 67636, Note_on_c, 0, 59, 78
2, 67737, Note_on_c, 0, 59, 0
2, 67739, Note_on_c, 0, 56, 80
2, 67799, Note_on_c, 0, 56, 0
2, 67841, Note_on_c, 0, 61, 87
2, 67847, Note_on_c, 0, 52, 74
2, 67856, Note_on_c, 0, 63, 0
2, 67914, Note_on_c, 0, 52, 0
2, 67943, Note_on_c, 0, 51, 76
2, 68012, Note_on_c, 0, 51, 0
2, 68053, Note_on_c, 0, 52, 61
2, 68137, Note_on_c, 0, 52, 0
2, 68153, Note_on_c, 0, 54, 73
2, 68220, Note_on_c, 0, 54, 0
2, 68234, Note_on_c, 0, 61, 0
2, 68267, Note_on_c, 0, 70, 79
2, 68272, Note_on_c, 0, 52, 68
2, 68278, Note_on_c, 0, 61, 40
2, 68287, Note_on_c, 0, 71, 0
2, 68319, Note_on_c, 0, 61, 0
2, 68343, Note_on_c, 0, 52, 0
2, 68368, Note_on_c, 0, 51, 75
2, 68445, Note_on_c, 0, 51, 0
2, 68465, Note_on_c, 0, 52, 68
2, 68483, Note_on_c, 0, 70, 0
2, 68541, Note_on_c, 0, 52, 0
2, 68569, Note_on_c, 0, 54, 71
2, 68621, Note_on_c, 0, 54, 0
2, 68658, Note_on_c, 0, 71, 86
2, 68668, Note_on_c, 0, 59, 63
2, 68670, Note_on_c, 0, 51, 72
2, 68681, Note_on_c, 0, 71, 0
2, 68689, Note_on_c, 0, 59, 0
2, 68722, Note_on_c, 0, 51, 0
2, 68763, Note_on_c, 0, 49, 72
2, 68830, Note_on_c, 0, 49, 0
2, 68858, Note_on_c, 0, 83, 82
2, 68872, Note_on_c, 0, 51, 65
2, 68882, Note_on_c, 0, 83, 0
2, 68922, Note_on_c, 0, 51, 0
2, 68975, Note_on_c, 0, 52, 69
2, 69028, Note_on_c, 0, 52, 0
2, 69081, Note_on_c, 0, 75, 83
2, 69082, Note_on_c, 0, 54, 70
2, 69101, Note_on_c, 0, 75, 0
2, 69139, Note_on_c, 0, 54, 0
2, 69174, Note_on_c, 0, 56, 67
2, 69219, Note_on_c, 0, 56, 0
2, 69278, Note_on_c, 0, 57, 67
2, 69282, Note_on_c, 0, 78, 85
2, 69300, Note_on_c, 0, 78, 0
2, 69323, Note_on_c, 0, 57, 0
2, 69383, Note_on_c, 0, 54, 73
2, 69488, Note_on_c, 0, 54, 0
2, 69493, Note_on_c, 0, 71, 93
2, 69497, Note_on_c, 0, 56, 74
2, 69565, Note_on_c, 0, 56, 0
2, 69585, Note_on_c, 0, 54, 74
2, 69692, Note_on_c, 0, 56, 75
2, 69695, Note_on_c, 0, 54, 0
2, 69707, Note_on_c, 0, 76, 78
2, 69806, Note_on_c, 0, 57, 75
2, 69814, Note_on_c, 0, 56, 0
2, 69849, Note_on_c, 0, 57, 0
2, 69876, Note_on_c, 0, 76, 0
2, 69908, Note_on_c, 0, 71, 0
2, 69910, Note_on_c, 0, 59, 72
2, 69911, Note_on_c, 0, 68, 77
2, 69934, Note_on_c, 0, 68, 0
2, 69962, Note_on_c, 0, 59, 0
2, 70004, Note_on_c, 0, 61, 74
2, 70072, Note_on_c, 0, 61, 0
2, 70105, Note_on_c, 0, 71, 80
2, 70110, Note_on_c, 0, 62, 72
2, 70161, Note_on_c, 0, 62, 0
2, 70203, Note_on_c, 0, 59, 71
2, 70266, Note_on_c, 0, 71, 0
2, 70285, Note_on_c, 0, 59, 0
2, 70305, Note_on_c, 0, 61, 73
2, 70307, Note_on_c, 0, 64, 71
2, 70334, Note_on_c, 0, 64, 0
2, 70350, Note_on_c, 0, 61, 0
2, 70404, Note_on_c, 0, 59, 70
2, 70507, Note_on_c, 0, 59, 0
2, 70508, Note_on_c, 0, 69, 81
2, 70513, Note_on_c, 0, 61, 71
2, 70519, Note_on_c, 0, 66, 64
2, 70552, Note_on_c, 0, 66, 0
2, 70593, Note_on_c, 0, 61, 0
2, 70618, Note_on_c, 0, 63, 66
2, 70643, Note_on_c, 0, 69, 0
2, 70658, Note_on_c, 0, 63, 0
2, 70706, Note_on_c, 0, 64, 78
2, 70706, Note_on_c, 0, 68, 78
2, 70730, Note_on_c, 0, 68, 0
2, 70749, Note_on_c, 0, 64, 0
2, 70795, Note_on_c, 0, 63, 70
2, 70859, Note_on_c, 0, 63, 0
2, 70904, Note_on_c, 0, 76, 93
2, 70905, Note_on_c, 0, 61, 71
2, 70909, Note_on_c, 0, 64, 70
2, 70924, Note_on_c, 0, 76, 0
2, 70945, Note_on_c, 0, 64, 0
2, 70968, Note_on_c, 0, 61, 0
2, 71012, Note_on_c, 0, 59, 66
2, 71083, Note_on_c, 0, 59, 0
2, 71126, Note_on_c, 0, 78, 90
2, 71127, Note_on_c, 0, 57, 72
2, 71132, Note_on_c, 0, 64, 83
2, 71160, Note_on_c, 0, 57, 0
2, 71175, Control_c, 0, 64, 33
2, 71190, Control_c, 0, 64, 49
2, 71205, Control_c, 0, 64, 59
2, 71207, Note_on_c, 0, 64, 0
2, 71220, Control_c, 0, 64, 63
2, 71226, Note_on_c, 0, 56, 78
2, 71235, Control_c, 0, 64, 66
2, 71259, Control_c, 0, 64, 68
2, 71274, Control_c, 0, 64, 72
2, 71289, Control_c, 0, 64, 75
2, 71296, Note_on_c, 0, 56, 0
2, 71304, Control_c, 0, 64, 77
2, 71321, Control_c, 0, 64, 78
2, 71336, Control_c, 0, 64, 79
2, 71340, Note_on_c, 0, 57, 79
2, 71364, Note_on_c, 0, 78, 0
2, 71432, Note_on_c, 0, 57, 0
2, 71435, Note_on_c, 0, 59, 82
2, 71489, Control_c, 0, 64, 78
2, 71496, Note_on_c, 0, 59, 0
2, 71504, Control_c, 0, 64, 75
2, 71519, Control_c, 0, 64, 68
2, 71534, Control_c, 0, 64, 57
2, 71547, Note_on_c, 0, 63, 84
2, 71549, Control_c, 0, 64, 0
2, 71558, Note_on_c, 0, 57, 70
2, 71606, Note_on_c, 0, 63, 0
2, 71632, Note_on_c, 0, 71, 86
2, 71654, Note_on_c, 0, 57, 0
2, 71655, Note_on_c, 0, 56, 76
2, 71686, Control_c, 0, 64, 10
2, 71701, Control_c, 0, 64, 25
2, 71715, Control_c, 0, 64, 32
2, 71731, Control_c, 0, 64, 37
2, 71744, Note_on_c, 0, 73, 83
2, 71746, Control_c, 0, 64, 42
2, 71746, Note_on_c, 0, 66, 81
2, 71749, Note_on_c, 0, 56, 0
2, 71755, Note_on_c, 0, 71, 0
2, 71759, Note_on_c, 0, 57, 74
2, 71762, Control_c, 0, 64, 46
2, 71777, Control_c, 0, 64, 49
2, 71792, Control_c, 0, 64, 51
2, 71795, Note_on_c, 0, 66, 0
2, 71806, Note_on_c, 0, 73, 0
2, 71808, Control_c, 0, 64, 53
2, 71822, Control_c, 0, 64, 55
2, 71834, Note_on_c, 0, 57, 0
2, 71838, Control_c, 0, 64, 56
2, 71841, Note_on_c, 0, 75, 86
2, 71844, Note_on_c, 0, 59, 77
2, 71853, Control_c, 0, 64, 56
2, 71853, Note_on_c, 0, 73, 50
2, 71868, Control_c, 0, 64, 56
2, 71874, Note_on_c, 0, 73, 0
2, 71884, Control_c, 0, 64, 51
2, 71893, Note_on_c, 0, 59, 0
2, 71899, Control_c, 0, 64, 30
2, 71902, Note_on_c, 0, 75, 0
2, 71914, Control_c, 0, 64, 0
2, 71945, Note_on_c, 0, 76, 87
2, 71951, Note_on_c, 0, 59, 69
2, 71952, Note_on_c, 0, 56, 73
2, 72011, Note_on_c, 0, 76, 0
2, 72029, Note_on_c, 0, 56, 0
2, 72056, Note_on_c, 0, 75, 91
2, 72104, Note_on_c, 0, 75, 0
2, 72147, Note_on_c, 0, 59, 0
2, 72162, Note_on_c, 0, 76, 82
2, 72169, Note_on_c, 0, 54, 76
2, 72192, Note_on_c, 0, 54, 0
2, 72229, Note_on_c, 0, 76, 0
2, 72257, Note_on_c, 0, 78, 86
2, 72308, Note_on_c, 0, 78, 0
2, 72355, Note_on_c, 0, 80, 86
2, 72363, Note_on_c, 0, 52, 72
2, 72392, Note_on_c, 0, 52, 0
2, 72403, Note_on_c, 0, 80, 0
2, 72455, Note_on_c, 0, 81, 84
2, 72501, Note_on_c, 0, 81, 0
2, 72560, Note_on_c, 0, 51, 68
2, 72564, Note_on_c, 0, 83, 89
2, 72566, Note_on_c, 0, 71, 85
2, 72590, Note_on_c, 0, 51, 0
2, 72594, Note_on_c, 0, 71, 0
2, 72634, Note_on_c, 0, 83, 0
2, 72667, Note_on_c, 0, 80, 73
2, 72688, Note_on_c, 0, 80, 0
2, 72768, Note_on_c, 0, 49, 74
2, 72775, Note_on_c, 0, 76, 86
2, 72777, Note_on_c, 0, 73, 88
2, 72807, Note_on_c, 0, 49, 0
2, 72812, Control_c, 0, 64, 50
2, 72827, Control_c, 0, 64, 59
2, 72843, Control_c, 0, 64, 63
2, 72850, Note_on_c, 0, 73, 0
2, 72857, Control_c, 0, 64, 64
2, 72872, Control_c, 0, 64, 65
2, 72893, Note_on_c, 0, 75, 86
2, 72903, Note_on_c, 0, 76, 0
2, 72933, Control_c, 0, 64, 65
2, 72948, Control_c, 0, 64, 64
2, 72958, Note_on_c, 0, 75, 0
2, 72988, Note_on_c, 0, 59, 72
2, 72993, Control_c, 0, 64, 64
2, 72995, Note_on_c, 0, 76, 89
2, 73010, Control_c, 0, 64, 63
2, 73016, Note_on_c, 0, 59, 0
2, 73025, Control_c, 0, 64, 62
2, 73041, Control_c, 0, 64, 60
2, 73056, Control_c, 0, 64, 56
2, 73071, Control_c, 0, 64, 51
2, 73086, Control_c, 0, 64, 44
2, 73091, Note_on_c, 0, 78, 87
2, 73092, Note_on_c, 0, 76, 0
2, 73101, Control_c, 0, 64, 29
2, 73116, Control_c, 0, 64, 0
2, 73186, Note_on_c, 0, 58, 74
2, 73186, Note_on_c, 0, 76, 86
2, 73211, Note_on_c, 0, 78, 0
2, 73214, Note_on_c, 0, 58, 0
2, 73271, Note_on_c, 0, 75, 83
2, 73274, Note_on_c, 0, 66, 80
2, 73280, Note_on_c, 0, 76, 0
2, 73307, Note_on_c, 0, 66, 0
2, 73324, Note_on_c, 0, 75, 0
2, 73373, Note_on_c, 0, 76, 89
2, 73376, Note_on_c, 0, 68, 77
2, 73416, Note_on_c, 0, 68, 0
2, 73461, Note_on_c, 0, 76, 0
2, 73465, Note_on_c, 0, 78, 78
2, 73467, Note_on_c, 0, 70, 87
2, 73513, Note_on_c, 0, 70, 0
2, 73529, Note_on_c, 0, 78, 0
2, 73570, Note_on_c, 0, 75, 82
2, 73572, Note_on_c, 0, 59, 69
2, 73574, Note_on_c, 0, 71, 86
2, 73599, Note_on_c, 0, 59, 0
2, 73611, Control_c, 0, 64, 33
2, 73611, Note_on_c, 0, 71, 0
2, 73625, Control_c, 0, 64, 44
2, 73630, Note_on_c, 0, 75, 0
2, 73641, Control_c, 0, 64, 49
2, 73656, Control_c, 0, 64, 52
2, 73660, Note_on_c, 0, 70, 76
2, 73666, Note_on_c, 0, 73, 78
2, 73670, Control_c, 0, 64, 52
2, 73686, Control_c, 0, 64, 53
2, 73686, Note_on_c, 0, 70, 0
2, 73716, Control_c, 0, 64, 52
2, 73732, Control_c, 0, 64, 51
2, 73746, Control_c, 0, 64, 48
2, 73761, Note_on_c, 0, 75, 82
2, 73762, Control_c, 0, 64, 43
2, 73762, Note_on_c, 0, 73, 0
2, 73763, Note_on_c, 0, 71, 88
2, 73777, Control_c, 0, 64, 35
2, 73792, Control_c, 0, 64, 22
2, 73794, Note_on_c, 0, 75, 0
2, 73808, Control_c, 0, 64, 0
2, 73840, Note_on_c, 0, 71, 0
2, 73855, Note_on_c, 0, 76, 82
2, 73862, Note_on_c, 0, 73, 79
2, 73910, Note_on_c, 0, 76, 0
2, 73933, Note_on_c, 0, 73, 0
2, 73949, Note_on_c, 0, 78, 85
2, 73956, Note_on_c, 0, 75, 79
2, 73994, Note_on_c, 0, 78, 0
2, 74019, Note_on_c, 0, 75, 0
2, 74040, Note_on_c, 0, 80, 87
2, 74052, Note_on_c, 0, 76, 70
2, 74083, Note_on_c, 0, 80, 0
2, 74140, Note_on_c, 0, 81, 86
2, 74141, Note_on_c, 0, 76, 0
2, 74154, Note_on_c, 0, 78, 77
2, 74214, Note_on_c, 0, 78, 0
2, 74250, Note_on_c, 0, 75, 79
2, 74273, Note_on_c, 0, 75, 0
2, 74358, Note_on_c, 0, 71, 67
2, 74401, Note_on_c, 0, 71, 0
2, 74446, Note_on_c, 0, 69, 66
2, 74503, Note_on_c, 0, 69, 0
2, 74513, Note_on_c, 0, 81, 0
2, 74547, Note_on_c, 0, 71, 67
2, 74549, Note_on_c, 0, 75, 77
2, 74574, Note_on_c, 0, 75, 0
2, 74598, Note_on_c, 0, 71, 0
2, 74644, Note_on_c, 0, 73, 72
2, 74700, Note_on_c, 0, 73, 0
2, 74751, Note_on_c, 0, 71, 73
2, 74751, Note_on_c, 0, 80, 81
2, 74798, Note_on_c, 0, 71, 0
2, 74846, Note_on_c, 0, 69, 70
2, 74915, Note_on_c, 0, 69, 0
2, 74953, Note_on_c, 0, 71, 74
2, 75012, Note_on_c, 0, 71, 0
2, 75045, Note_on_c, 0, 73, 74
2, 75111, Note_on_c, 0, 73, 0
2, 75168, Note_on_c, 0, 69, 69
2, 75233, Note_on_c, 0, 69, 0
2, 75252, Note_on_c, 0, 68, 71
2, 75324, Note_on_c, 0, 68, 0
2, 75346, Note_on_c, 0, 78, 80
2, 75351, Note_on_c, 0, 80, 0
2, 75356, Note_on_c, 0, 69, 70
2, 75400, Note_on_c, 0, 78, 0
2, 75420, Note_on_c, 0, 69, 0
2, 75439, Note_on_c, 0, 76, 81
2, 75446, Note_on_c, 0, 71, 76
2, 75486, Note_on_c, 0, 71, 0
2, 75494, Note_on_c, 0, 76, 0
2, 75534, Note_on_c, 0, 75, 81
2, 75541, Note_on_c, 0, 69, 77
2, 75599, Note_on_c, 0, 69, 0
2, 75632, Note_on_c, 0, 68, 82
2, 75654, Note_on_c, 0, 68, 0
2, 75708, Note_on_c, 0, 75, 0
2, 75743, Note_on_c, 0, 59, 88
2, 75743, Note_on_c, 0, 69, 75
2, 75766, Note_on_c, 0, 59, 0
2, 75787, Note_on_c, 0, 69, 0
2, 75843, Note_on_c, 0, 71, 87
2, 75924, Note_on_c, 0, 71, 0
2, 75962, Note_on_c, 0, 61, 86
2, 75967, Note_on_c, 0, 68, 86
2, 75971, Note_on_c, 0, 76, 87
2, 75990, Note_on_c, 0, 75, 20
2, 75991, Note_on_c, 0, 75, 0
2, 76023, Note_on_c, 0, 68, 0
2, 76035, Control_c, 0, 64, 38
2, 76051, Control_c, 0, 64, 48
2, 76066, Control_c, 0, 64, 54
2, 76070, Note_on_c, 0, 75, 85
2, 76071, Note_on_c, 0, 76, 0
2, 76082, Control_c, 0, 64, 58
2, 76097, Control_c, 0, 64, 62
2, 76112, Control_c, 0, 64, 64
2, 76128, Control_c, 0, 64, 65
2, 76143, Control_c, 0, 64, 66
2, 76154, Note_on_c, 0, 61, 0
2, 76158, Control_c, 0, 64, 68
2, 76164, Note_on_c, 0, 64, 75
2, 76173, Control_c, 0, 64, 69
2, 76173, Note_on_c, 0, 76, 83
2, 76183, Note_on_c, 0, 75, 0
2, 76188, Control_c, 0, 64, 71
2, 76198, Note_on_c, 0, 64, 0
2, 76203, Control_c, 0, 64, 71
2, 76269, Note_on_c, 0, 78, 85
2, 76274, Note_on_c, 0, 76, 0
2, 76295, Control_c, 0, 64, 71
2, 76310, Control_c, 0, 64, 69
2, 76326, Control_c, 0, 64, 65
2, 76341, Control_c, 0, 64, 60
2, 76356, Control_c, 0, 64, 50
2, 76369, Note_on_c, 0, 69, 81
2, 76372, Control_c, 0, 64, 28
2, 76373, Note_on_c, 0, 76, 77
2, 76386, Control_c, 0, 64, 0
2, 76402, Note_on_c, 0, 78, 0
2, 76460, Note_on_c, 0, 54, 75
2, 76473, Note_on_c, 0, 75, 85
2, 76475, Note_on_c, 0, 76, 0
2, 76562, Note_on_c, 0, 54, 0
2, 76566, Note_on_c, 0, 56, 79
2, 76571, Note_on_c, 0, 75, 0
2, 76576, Note_on_c, 0, 76, 86
2, 76673, Note_on_c, 0, 57, 79
2, 76675, Note_on_c, 0, 69, 0
2, 76675, Note_on_c, 0, 69, 17
2, 76676, Note_on_c, 0, 78, 86
2, 76688, Note_on_c, 0, 76, 0
2, 76695, Note_on_c, 0, 56, 0
2, 76723, Note_on_c, 0, 69, 0
2, 76739, Note_on_c, 0, 57, 0
2, 76776, Note_on_c, 0, 59, 77
2, 76778, Note_on_c, 0, 75, 88
2, 76798, Note_on_c, 0, 78, 0
2, 76831, Note_on_c, 0, 59, 0
2, 76863, Note_on_c, 0, 75, 0
2, 76864, Note_on_c, 0, 73, 85
2, 76874, Note_on_c, 0, 57, 74
2, 76929, Note_on_c, 0, 73, 0
2, 76966, Note_on_c, 0, 75, 91
2, 76970, Note_on_c, 0, 59, 76
2, 76981, Note_on_c, 0, 57, 0
2, 77029, Note_on_c, 0, 75, 0
2, 77066, Note_on_c, 0, 61, 80
2, 77069, Note_on_c, 0, 59, 0
2, 77069, Note_on_c, 0, 76, 87
2, 77146, Note_on_c, 0, 61, 0
2, 77172, Note_on_c, 0, 63, 72
2, 77172, Note_on_c, 0, 78, 86
2, 77191, Note_on_c, 0, 76, 0
2, 77227, Note_on_c, 0, 63, 0
2, 77272, Note_on_c, 0, 64, 69
2, 77283, Note_on_c, 0, 72, 72
2, 77327, Note_on_c, 0, 64, 0
2, 77330, Note_on_c, 0, 72, 0
2, 77372, Note_on_c, 0, 63, 64
2, 77384, Note_on_c, 0, 73, 71
2, 77426, Note_on_c, 0, 73, 0
2, 77429, Note_on_c, 0, 63, 0
2, 77485, Note_on_c, 0, 61, 66
2, 77485, Note_on_c, 0, 75, 78
2, 77522, Note_on_c, 0, 61, 0
2, 77562, Note_on_c, 0, 75, 0
2, 77584, Note_on_c, 0, 68, 74
2, 77590, Note_on_c, 0, 60, 67
2, 77631, Note_on_c, 0, 60, 0
2, 77675, Note_on_c, 0, 56, 69
2, 77691, Note_on_c, 0, 68, 0
2, 77772, Note_on_c, 0, 58, 73
2, 77779, Note_on_c, 0, 56, 0
2, 77792, Note_on_c, 0, 76, 80
2, 77799, Note_on_c, 0, 78, 0
2, 77831, Note_on_c, 0, 58, 0
2, 77847, Note_on_c, 0, 76, 0
2, 77874, Note_on_c, 0, 60, 74
2, 77883, Note_on_c, 0, 75, 91
2, 77932, Note_on_c, 0, 75, 0
2, 77936, Note_on_c, 0, 60, 0
2, 77971, Note_on_c, 0, 61, 76
2, 77982, Note_on_c, 0, 76, 84
2, 78061, Note_on_c, 0, 61, 0
2, 78071, Note_on_c, 0, 63, 71
2, 78112, Note_on_c, 0, 63, 0
2, 78133, Note_on_c, 0, 76, 0
2, 78177, Note_on_c, 0, 73, 82
2, 78181, Note_on_c, 0, 64, 73
2, 78201, Note_on_c, 0, 73, 0
2, 78240, Note_on_c, 0, 64, 0
2, 78273, Note_on_c, 0, 61, 76
2, 78338, Note_on_c, 0, 61, 0
2, 78378, Note_on_c, 0, 57, 70
2, 78380, Note_on_c, 0, 66, 82
2, 78451, Note_on_c, 0, 57, 0
2, 78472, Note_on_c, 0, 56, 75
2, 78549, Note_on_c, 0, 56, 0
2, 78582, Note_on_c, 0, 57, 64
2, 78598, Note_on_c, 0, 76, 75
2, 78644, Note_on_c, 0, 57, 0
2, 78679, Note_on_c, 0, 59, 65
2, 78737, Note_on_c, 0, 59, 0
2, 78784, Note_on_c, 0, 57, 64
2, 78793, Note_on_c, 0, 75, 77
2, 78821, Note_on_c, 0, 76, 0
2, 78835, Note_on_c, 0, 57, 0
2, 78885, Note_on_c, 0, 56, 64
2, 78958, Note_on_c, 0, 66, 0
2, 78976, Note_on_c, 0, 56, 0
2, 78992, Note_on_c, 0, 57, 64
2, 79007, Note_on_c, 0, 73, 80
2, 79032, Note_on_c, 0, 75, 0
2, 79053, Note_on_c, 0, 57, 0
2, 79093, Note_on_c, 0, 59, 70
2, 79162, Note_on_c, 0, 73, 0
2, 79173, Note_on_c, 0, 59, 0
2, 79204, Note_on_c, 0, 56, 64
2, 79209, Note_on_c, 0, 72, 80
2, 79296, Note_on_c, 0, 56, 0
2, 79315, Note_on_c, 0, 52, 68
2, 79365, Note_on_c, 0, 52, 0
2, 79396, Note_on_c, 0, 72, 0
2, 79407, Note_on_c, 0, 54, 75
2, 79423, Note_on_c, 0, 68, 82
2, 79446, Note_on_c, 0, 68, 0
2, 79473, Note_on_c, 0, 54, 0
2, 79506, Note_on_c, 0, 56, 74
2, 79583, Note_on_c, 0, 56, 0
2, 79613, Note_on_c, 0, 57, 72
2, 79616, Note_on_c, 0, 73, 88
2, 79624, Note_on_c, 0, 64, 77
2, 79656, Note_on_c, 0, 57, 0
2, 79670, Note_on_c, 0, 64, 0
2, 79718, Note_on_c, 0, 59, 73
2, 79813, Note_on_c, 0, 59, 0
2, 79817, Note_on_c, 0, 69, 79
2, 79826, Note_on_c, 0, 61, 75
2, 79857, Note_on_c, 0, 61, 0
2, 79890, Note_on_c, 0, 69, 0
2, 79919, Note_on_c, 0, 57, 71
2, 79980, Note_on_c, 0, 57, 0
2, 80021, Note_on_c, 0, 54, 75
2, 80028, Note_on_c, 0, 63, 78
2, 80028, Note_on_c, 0, 73, 0
2, 80053, Note_on_c, 0, 63, 0
2, 80093, Note_on_c, 0, 54, 0
2, 80130, Note_on_c, 0, 52, 68
2, 80218, Note_on_c, 0, 75, 82
2, 80224, Note_on_c, 0, 66, 79
2, 80230, Note_on_c, 0, 54, 73
2, 80234, Note_on_c, 0, 52, 0
2, 80242, Note_on_c, 0, 75, 0
2, 80245, Note_on_c, 0, 66, 0
2, 80303, Note_on_c, 0, 54, 0
2, 80310, Note_on_c, 0, 56, 74
2, 80386, Note_on_c, 0, 56, 0
2, 80423, Note_on_c, 0, 68, 85
2, 80426, Note_on_c, 0, 54, 73
2, 80429, Note_on_c, 0, 60, 82
2, 80476, Note_on_c, 0, 60, 0
2, 80492, Control_c, 0, 64, 13
2, 80507, Control_c, 0, 64, 36
2, 80515, Note_on_c, 0, 54, 0
2, 80523, Control_c, 0, 64, 45
2, 80532, Note_on_c, 0, 52, 71
2, 80537, Control_c, 0, 64, 51
2, 80552, Control_c, 0, 64, 54
2, 80568, Control_c, 0, 64, 57
2, 80583, Control_c, 0, 64, 60
2, 80599, Control_c, 0, 64, 62
2, 80612, Note_on_c, 0, 52, 0
2, 80613, Control_c, 0, 64, 64
2, 80628, Control_c, 0, 64, 65
2, 80640, Note_on_c, 0, 54, 68
2, 80644, Control_c, 0, 64, 67
2, 80650, Note_on_c, 0, 70, 80
2, 80654, Note_on_c, 0, 63, 73
2, 80658, Control_c, 0, 64, 68
2, 80661, Note_on_c, 0, 68, 0
2, 80673, Control_c, 0, 64, 70
2, 80680, Note_on_c, 0, 63, 0
2, 80689, Control_c, 0, 64, 71
2, 80704, Control_c, 0, 64, 71
2, 80725, Note_on_c, 0, 70, 0
2, 80727, Note_on_c, 0, 56, 73
2, 80731, Note_on_c, 0, 54, 0
2, 80735, Control_c, 0, 64, 71
2, 80748, Control_c, 0, 64, 69
2, 80748, Note_on_c, 0, 72, 76
2, 80757, Note_on_c, 0, 56, 0
2, 80763, Control_c, 0, 64, 65
2, 80779, Control_c, 0, 64, 61
2, 80779, Note_on_c, 0, 72, 0
2, 80793, Control_c, 0, 64, 53
2, 80809, Control_c, 0, 64, 42
2, 80824, Control_c, 0, 64, 23
2, 80839, Control_c, 0, 64, 0
2, 80851, Note_on_c, 0, 73, 80
2, 80856, Note_on_c, 0, 52, 65
2, 80857, Note_on_c, 0, 56, 73
2, 80904, Note_on_c, 0, 52, 0
2, 80904, Note_on_c, 0, 73, 0
2, 80944, Note_on_c, 0, 72, 77
2, 80985, Note_on_c, 0, 56, 0
2, 81006, Note_on_c, 0, 72, 0
2, 81043, Note_on_c, 0, 73, 75
2, 81046, Note_on_c, 0, 51, 66
2, 81075, Note_on_c, 0, 51, 0
2, 81090, Note_on_c, 0, 73, 0
2, 81151, Note_on_c, 0, 75, 70
2, 81179, Note_on_c, 0, 75, 0
2, 81257, Note_on_c, 0, 49, 59
2, 81259, Note_on_c, 0, 76, 62
2, 81287, Note_on_c, 0, 49, 0
2, 81292, Note_on_c, 0, 76, 0
2, 81347, Note_on_c, 0, 78, 66
2, 81379, Note_on_c, 0, 78, 0
2, 81440, Note_on_c, 0, 51, 73
2, 81450, Note_on_c, 0, 80, 60
2, 81463, Note_on_c, 0, 51, 0
2, 81483, Note_on_c, 0, 80, 0
2, 81543, Note_on_c, 0, 76, 64
2, 81579, Note_on_c, 0, 76, 0
2, 81643, Note_on_c, 0, 46, 57
2, 81647, Note_on_c, 0, 73, 68
2, 81674, Note_on_c, 0, 46, 0
2, 81682, Note_on_c, 0, 73, 0
2, 81734, Note_on_c, 0, 71, 70
2, 81787, Note_on_c, 0, 71, 0
2, 81838, Note_on_c, 0, 56, 67
2, 81848, Note_on_c, 0, 73, 68
2, 81858, Note_on_c, 0, 56, 0
2, 81880, Note_on_c, 0, 73, 0
2, 81939, Note_on_c, 0, 75, 66
2, 81997, Note_on_c, 0, 75, 0
2, 82057, Note_on_c, 0, 58, 80
2, 82064, Note_on_c, 0, 73, 66
2, 82085, Note_on_c, 0, 55, 46
2, 82099, Note_on_c, 0, 73, 0
2, 82111, Note_on_c, 0, 55, 0
2, 82153, Note_on_c, 0, 71, 69
2, 82216, Note_on_c, 0, 71, 0
2, 82255, Note_on_c, 0, 73, 73
2, 82274, Note_on_c, 0, 51, 55
2, 82292, Note_on_c, 0, 73, 0
2, 82304, Note_on_c, 0, 51, 0
2, 82359, Note_on_c, 0, 75, 71
2, 82406, Note_on_c, 0, 75, 0
2, 82460, Note_on_c, 0, 71, 76
2, 82469, Note_on_c, 0, 44, 64
2, 82498, Note_on_c, 0, 71, 0
2, 82500, Note_on_c, 0, 44, 0
2, 82557, Note_on_c, 0, 70, 71
2, 82591, Note_on_c, 0, 70, 0
2, 82613, Note_on_c, 0, 58, 0
2, 82647, Note_on_c, 0, 46, 71
2, 82659, Note_on_c, 0, 71, 71
2, 82674, Note_on_c, 0, 46, 0
2, 82712, Note_on_c, 0, 71, 0
2, 82750, Note_on_c, 0, 73, 78
2, 82809, Note_on_c, 0, 73, 0
2, 82861, Note_on_c, 0, 56, 75
2, 82862, Note_on_c, 0, 75, 77
2, 82871, Note_on_c, 0, 47, 59
2, 82903, Note_on_c, 0, 47, 0
2, 82912, Note_on_c, 0, 75, 0
2, 82956, Note_on_c, 0, 76, 76
2, 83017, Note_on_c, 0, 76, 0
2, 83047, Note_on_c, 0, 56, 0
2, 83059, Note_on_c, 0, 78, 76
2, 83071, Note_on_c, 0, 46, 65
2, 83101, Note_on_c, 0, 46, 0
2, 83141, Note_on_c, 0, 78, 0
2, 83157, Note_on_c, 0, 75, 78
2, 83180, Note_on_c, 0, 75, 0
2, 83250, Note_on_c, 0, 71, 78
2, 83265, Note_on_c, 0, 44, 62
2, 83293, Note_on_c, 0, 44, 0
2, 83294, Note_on_c, 0, 71, 0
2, 83339, Note_on_c, 0, 69, 74
2, 83378, Note_on_c, 0, 69, 0
2, 83445, Note_on_c, 0, 54, 77
2, 83448, Note_on_c, 0, 71, 73
2, 83466, Note_on_c, 0, 54, 0
2, 83485, Note_on_c, 0, 71, 0
2, 83560, Note_on_c, 0, 73, 71
2, 83660, Note_on_c, 0, 56, 78
2, 83665, Note_on_c, 0, 73, 0
2, 83668, Note_on_c, 0, 71, 78
2, 83683, Note_on_c, 0, 53, 57
2, 83708, Note_on_c, 0, 53, 0
2, 83731, Note_on_c, 0, 71, 0
2, 83773, Note_on_c, 0, 69, 66
2, 83810, Note_on_c, 0, 69, 0
2, 83866, Note_on_c, 0, 71, 75
2, 83882, Note_on_c, 0, 49, 54
2, 83912, Note_on_c, 0, 49, 0
2, 83915, Note_on_c, 0, 71, 0
2, 83968, Note_on_c, 0, 73, 75
2, 84038, Note_on_c, 0, 73, 0
2, 84068, Note_on_c, 0, 42, 59
2, 84074, Note_on_c, 0, 69, 68
2, 84096, Note_on_c, 0, 42, 0
2, 84117, Note_on_c, 0, 69, 0
2, 84165, Note_on_c, 0, 68, 73
2, 84209, Note_on_c, 0, 68, 0
2, 84220, Note_on_c, 0, 56, 0
2, 84248, Note_on_c, 0, 44, 72
2, 84263, Note_on_c, 0, 69, 72
2, 84273, Note_on_c, 0, 44, 0
2, 84318, Note_on_c, 0, 69, 0
2, 84365, Note_on_c, 0, 71, 74
2, 84411, Note_on_c, 0, 71, 0
2, 84473, Note_on_c, 0, 73, 78
2, 84474, Note_on_c, 0, 54, 73
2, 84490, Note_on_c, 0, 45, 54
2, 84518, Note_on_c, 0, 45, 0
2, 84523, Note_on_c, 0, 73, 0
2, 84571, Note_on_c, 0, 75, 81
2, 84623, Note_on_c, 0, 54, 0
2, 84623, Note_on_c, 0, 54, 3
2, 84662, Note_on_c, 0, 54, 0
2, 84672, Note_on_c, 0, 44, 70
2, 84674, Note_on_c, 0, 76, 77
2, 84696, Note_on_c, 0, 75, 0
2, 84699, Note_on_c, 0, 44, 0
2, 84736, Note_on_c, 0, 76, 0
2, 84769, Note_on_c, 0, 73, 84
2, 84821, Note_on_c, 0, 73, 0
2, 84869, Note_on_c, 0, 75, 83
2, 84876, Note_on_c, 0, 42, 69
2, 84903, Note_on_c, 0, 42, 0
2, 84929, Note_on_c, 0, 75, 0
2, 84960, Note_on_c, 0, 73, 82
2, 85012, Note_on_c, 0, 73, 0
2, 85063, Note_on_c, 0, 75, 82
2, 85077, Note_on_c, 0, 52, 68
2, 85101, Note_on_c, 0, 52, 0
2, 85110, Note_on_c, 0, 75, 0
2, 85114, Note_on_c, 0, 51, 11
2, 85115, Note_on_c, 0, 51, 0
2, 85167, Note_on_c, 0, 76, 79
2, 85235, Note_on_c, 0, 76, 0
2, 85272, Note_on_c, 0, 78, 84
2, 85274, Note_on_c, 0, 54, 87
2, 85302, Note_on_c, 0, 51, 43
2, 85322, Note_on_c, 0, 78, 0
2, 85329, Note_on_c, 0, 51, 0
2, 85373, Note_on_c, 0, 80, 84
2, 85432, Note_on_c, 0, 80, 0
2, 85472, Note_on_c, 0, 81, 81
2, 85480, Note_on_c, 0, 49, 75
2, 85514, Note_on_c, 0, 49, 0
2, 85532, Note_on_c, 0, 81, 0
2, 85569, Note_on_c, 0, 78, 85
2, 85617, Note_on_c, 0, 78, 0
2, 85671, Note_on_c, 0, 48, 74
2, 85671, Note_on_c, 0, 80, 81
2, 85731, Note_on_c, 0, 48, 0
2, 85769, Note_on_c, 0, 80, 0
2, 85772, Note_on_c, 0, 78, 84
2, 85829, Note_on_c, 0, 78, 0
2, 85873, Note_on_c, 0, 44, 79
2, 85878, Note_on_c, 0, 76, 84
2, 85897, Note_on_c, 0, 54, 0
2, 85933, Note_on_c, 0, 44, 0
2, 85935, Note_on_c, 0, 76, 0
2, 85969, Note_on_c, 0, 75, 84
2, 86065, Note_on_c, 0, 52, 81
2, 86068, Note_on_c, 0, 45, 74
2, 86069, Note_on_c, 0, 73, 87
2, 86089, Note_on_c, 0, 52, 0
2, 86094, Note_on_c, 0, 75, 0
2, 86097, Note_on_c, 0, 45, 0
2, 86137, Note_on_c, 0, 73, 0
2, 86168, Note_on_c, 0, 71, 87
2, 86213, Note_on_c, 0, 71, 0
2, 86263, Note_on_c, 0, 61, 92
2, 86269, Note_on_c, 0, 69, 79
2, 86285, Note_on_c, 0, 61, 0
2, 86294, Note_on_c, 0, 52, 44
2, 86295, Note_on_c, 0, 52, 0
2, 86330, Note_on_c, 0, 69, 0
2, 86378, Note_on_c, 0, 68, 80
2, 86475, Note_on_c, 0, 68, 0
2, 86477, Note_on_c, 0, 63, 88
2, 86487, Note_on_c, 0, 66, 86
2, 86490, Note_on_c, 0, 54, 68
2, 86539, Control_c, 0, 64, 29
2, 86555, Control_c, 0, 64, 52
2, 86569, Control_c, 0, 64, 58
2, 86571, Note_on_c, 0, 63, 0
2, 86581, Note_on_c, 0, 68, 85
2, 86587, Control_c, 0, 64, 61
2, 86597, Note_on_c, 0, 54, 0
2, 86602, Control_c, 0, 64, 64
2, 86612, Note_on_c, 0, 52, 71
2, 86614, Note_on_c, 0, 66, 0
2, 86625, Control_c, 0, 64, 66
2, 86640, Control_c, 0, 64, 70
2, 86655, Control_c, 0, 64, 75
2, 86669, Note_on_c, 0, 68, 0
2, 86671, Control_c, 0, 64, 80
2, 86684, Note_on_c, 0, 69, 85
2, 86685, Control_c, 0, 64, 81
2, 86699, Control_c, 0, 64, 81
2, 86715, Control_c, 0, 64, 82
2, 86726, Note_on_c, 0, 54, 77
2, 86727, Note_on_c, 0, 52, 0
2, 86730, Control_c, 0, 64, 82
2, 86746, Control_c, 0, 64, 83
2, 86767, Note_on_c, 0, 54, 0
2, 86785, Note_on_c, 0, 66, 82
2, 86785, Note_on_c, 0, 69, 0
2, 86806, Control_c, 0, 64, 81
2, 86821, Control_c, 0, 64, 75
2, 86837, Control_c, 0, 64, 68
2, 86851, Control_c, 0, 64, 60
2, 86867, Control_c, 0, 64, 22
2, 86882, Control_c, 0, 64, 0
2, 86884, Note_on_c, 0, 66, 0
2, 86885, Note_on_c, 0, 63, 85
2, 86899, Note_on_c, 0, 56, 78
2, 86923, Note_on_c, 0, 56, 0
2, 86959, Note_on_c, 0, 63, 0
2, 86975, Note_on_c, 0, 56, 84
2, 87032, Note_on_c, 0, 56, 0
2, 87080, Note_on_c, 0, 58, 77
2, 87086, Note_on_c, 0, 68, 75
2, 87091, Note_on_c, 0, 44, 69
2, 87114, Note_on_c, 0, 58, 0
2, 87116, Note_on_c, 0, 44, 0
2, 87176, Note_on_c, 0, 60, 78
2, 87219, Note_on_c, 0, 68, 0
2, 87253, Note_on_c, 0, 60, 0
2, 87287, Note_on_c, 0, 49, 67
2, 87296, Note_on_c, 0, 61, 69
2, 87307, Note_on_c, 0, 64, 74
2, 87356, Note_on_c, 0, 61, 0
2, 87368, Note_on_c, 0, 49, 0
2, 87411, Note_on_c, 0, 60, 65
2, 87451, Note_on_c, 0, 64, 0
2, 87488, Note_on_c, 0, 60, 0
2, 87498, Note_on_c, 0, 68, 70
2, 87504, Note_on_c, 0, 60, 33
2, 87524, Note_on_c, 0, 68, 0
2, 87566, Note_on_c, 0, 60, 0
2, 87595, Note_on_c, 0, 63, 69
2, 87645, Note_on_c, 0, 63, 0
2, 87693, Note_on_c, 0, 64, 66
2, 87693, Note_on_c, 0, 73, 76
2, 87718, Note_on_c, 0, 73, 0
2, 87748, Note_on_c, 0, 64, 0
2, 87785, Note_on_c, 0, 66, 67
2, 87880, Note_on_c, 0, 66, 0
2, 87880, Note_on_c, 0, 68, 63
2, 87892, Note_on_c, 0, 71, 82
2, 87916, Note_on_c, 0, 71, 0
2, 87925, Note_on_c, 0, 68, 0
2, 87973, Note_on_c, 0, 64, 62
2, 88056, Note_on_c, 0, 64, 0
2, 88089, Note_on_c, 0, 61, 58
2, 88102, Note_on_c, 0, 76, 77
2, 88173, Note_on_c, 0, 61, 0
2, 88201, Note_on_c, 0, 59, 62
2, 88203, Note_on_c, 0, 75, 81
2, 88217, Note_on_c, 0, 76, 0
2, 88273, Note_on_c, 0, 59, 0
2, 88295, Note_on_c, 0, 61, 71
2, 88297, Note_on_c, 0, 73, 82
2, 88308, Note_on_c, 0, 75, 0
2, 88369, Note_on_c, 0, 61, 0
2, 88389, Note_on_c, 0, 71, 84
2, 88391, Note_on_c, 0, 63, 67
2, 88403, Note_on_c, 0, 73, 0
2, 88452, Note_on_c, 0, 71, 0
2, 88457, Note_on_c, 0, 63, 0
2, 88494, Note_on_c, 0, 69, 70
2, 88506, Note_on_c, 0, 61, 63
2, 88560, Note_on_c, 0, 61, 0
2, 88608, Note_on_c, 0, 59, 60
2, 88659, Note_on_c, 0, 59, 0
2, 88694, Note_on_c, 0, 61, 68
2, 88795, Note_on_c, 0, 61, 0
2, 88799, Note_on_c, 0, 63, 67
2, 88844, Note_on_c, 0, 63, 0
2, 88889, Note_on_c, 0, 59, 66
2, 88961, Note_on_c, 0, 59, 0
2, 89009, Note_on_c, 0, 56, 56
2, 89032, Note_on_c, 0, 69, 0
2, 89080, Note_on_c, 0, 63, 71
2, 89098, Note_on_c, 0, 57, 65
2, 89099, Note_on_c, 0, 56, 0
2, 89104, Note_on_c, 0, 63, 0
2, 89140, Note_on_c, 0, 57, 0
2, 89199, Note_on_c, 0, 59, 60
2, 89246, Note_on_c, 0, 59, 0
2, 89274, Note_on_c, 0, 69, 78
2, 89296, Note_on_c, 0, 61, 59
2, 89298, Note_on_c, 0, 69, 0
2, 89359, Note_on_c, 0, 61, 0
2, 89389, Note_on_c, 0, 63, 62
2, 89433, Note_on_c, 0, 63, 0
2, 89472, Note_on_c, 0, 68, 74
2, 89482, Note_on_c, 0, 64, 66
2, 89495, Note_on_c, 0, 68, 0
2, 89552, Note_on_c, 0, 64, 0
2, 89577, Note_on_c, 0, 61, 67
2, 89663, Note_on_c, 0, 61, 0
2, 89680, Note_on_c, 0, 73, 78
2, 89696, Note_on_c, 0, 57, 61
2, 89769, Note_on_c, 0, 57, 0
2, 89782, Note_on_c, 0, 71, 75
2, 89788, Note_on_c, 0, 56, 65
2, 89790, Note_on_c, 0, 73, 0
2, 89848, Note_on_c, 0, 56, 0
2, 89889, Note_on_c, 0, 69, 74
2, 89892, Note_on_c, 0, 71, 0
2, 89895, Note_on_c, 0, 57, 53
2, 89932, Note_on_c, 0, 57, 0
2, 89952, Note_on_c, 0, 69, 0
2, 89977, Note_on_c, 0, 68, 79
2, 89979, Note_on_c, 0, 59, 58
2, 90030, Note_on_c, 0, 59, 0
2, 90040, Note_on_c, 0, 68, 0
2, 90082, Note_on_c, 0, 66, 70
2, 90099, Note_on_c, 0, 57, 52
2, 90140, Note_on_c, 0, 57, 0
2, 90182, Note_on_c, 0, 56, 64
2, 90279, Note_on_c, 0, 56, 0
2, 90295, Note_on_c, 0, 57, 58
2, 90336, Note_on_c, 0, 57, 0
2, 90384, Note_on_c, 0, 59, 68
2, 90447, Note_on_c, 0, 59, 0
2, 90488, Note_on_c, 0, 56, 67
2, 90546, Note_on_c, 0, 56, 0
2, 90586, Note_on_c, 0, 54, 66
2, 90669, Note_on_c, 0, 64, 81
2, 90675, Note_on_c, 0, 54, 0
2, 90681, Note_on_c, 0, 56, 69
2, 90696, Note_on_c, 0, 66, 0
2, 90745, Note_on_c, 0, 56, 0
2, 90753, Note_on_c, 0, 64, 0
2, 90756, Note_on_c, 0, 63, 79
2, 90772, Note_on_c, 0, 57, 73
2, 90814, Note_on_c, 0, 63, 0
2, 90826, Note_on_c, 0, 57, 0
2, 90861, Note_on_c, 0, 64, 81
2, 90867, Note_on_c, 0, 56, 80
2, 90892, Note_on_c, 0, 56, 0
2, 90901, Note_on_c, 0, 64, 0
2, 90955, Note_on_c, 0, 66, 81
2, 91023, Note_on_c, 0, 66, 0
2, 91060, Note_on_c, 0, 52, 84
2, 91060, Note_on_c, 0, 68, 82
2, 91067, Note_on_c, 0, 59, 74
2, 91084, Note_on_c, 0, 52, 0
2, 91097, Note_on_c, 0, 59, 0
2, 91136, Note_on_c, 0, 68, 0
2, 91167, Note_on_c, 0, 64, 84
2, 91281, Note_on_c, 0, 54, 86
2, 91284, Note_on_c, 0, 61, 86
2, 91288, Note_on_c, 0, 64, 0
2, 91350, Control_c, 0, 64, 32
2, 91360, Note_on_c, 0, 61, 0
2, 91365, Control_c, 0, 64, 46
2, 91374, Note_on_c, 0, 68, 82
2, 91380, Control_c, 0, 64, 52
2, 91395, Control_c, 0, 64, 56
2, 91411, Control_c, 0, 64, 59
2, 91426, Control_c, 0, 64, 60
2, 91441, Control_c, 0, 64, 61
2, 91456, Control_c, 0, 64, 62
2, 91470, Note_on_c, 0, 54, 0
2, 91485, Note_on_c, 0, 66, 79
2, 91486, Note_on_c, 0, 57, 68
2, 91516, Note_on_c, 0, 68, 0
2, 91562, Note_on_c, 0, 66, 0
2, 91574, Note_on_c, 0, 57, 0
2, 91577, Control_c, 0, 64, 62
2, 91587, Note_on_c, 0, 64, 85
2, 91592, Control_c, 0, 64, 60
2, 91601, Note_on_c, 0, 56, 75
2, 91608, Control_c, 0, 64, 56
2, 91623, Control_c, 0, 64, 45
2, 91638, Control_c, 0, 64, 25
2, 91653, Control_c, 0, 64, 0
2, 91653, Note_on_c, 0, 56, 0
2, 91668, Note_on_c, 0, 64, 0
2, 91683, Note_on_c, 0, 63, 78
2, 91692, Note_on_c, 0, 57, 66
2, 91746, Note_on_c, 0, 57, 0
2, 91775, Note_on_c, 0, 61, 81
2, 91781, Note_on_c, 0, 47, 68
2, 91805, Note_on_c, 0, 63, 0
2, 91864, Note_on_c, 0, 47, 0
2, 91872, Note_on_c, 0, 49, 71
2, 91887, Note_on_c, 0, 59, 68
2, 91891, Note_on_c, 0, 61, 0
2, 91931, Note_on_c, 0, 59, 0
2, 91974, Note_on_c, 0, 57, 75
2, 91975, Note_on_c, 0, 51, 73
2, 91977, Note_on_c, 0, 49, 0
2, 92044, Note_on_c, 0, 57, 0
2, 92078, Note_on_c, 0, 56, 79
2, 92084, Note_on_c, 0, 52, 73
2, 92121, Note_on_c, 0, 51, 0
2, 92133, Note_on_c, 0, 56, 0
2, 92178, Note_on_c, 0, 59, 81
2, 92184, Note_on_c, 0, 52, 0
2, 92187, Note_on_c, 0, 51, 68
2, 92263, Note_on_c, 0, 51, 0
2, 92264, Note_on_c, 0, 59, 0
2, 92274, Note_on_c, 0, 61, 83
2, 92283, Note_on_c, 0, 52, 73
2, 92340, Note_on_c, 0, 61, 0
2, 92343, Note_on_c, 0, 52, 0
2, 92374, Note_on_c, 0, 63, 84
2, 92376, Note_on_c, 0, 54, 77
2, 92420, Note_on_c, 0, 63, 0
2, 92469, Note_on_c, 0, 64, 87
2, 92472, Note_on_c, 0, 54, 0
2, 92476, Note_on_c, 0, 56, 74
2, 92527, Note_on_c, 0, 64, 0
2, 92567, Note_on_c, 0, 66, 86
2, 92570, Note_on_c, 0, 56, 0
2, 92570, Note_on_c, 0, 57, 74
2, 92613, Note_on_c, 0, 66, 0
2, 92623, Note_on_c, 0, 57, 0
2, 92662, Note_on_c, 0, 59, 77
2, 92664, Note_on_c, 0, 68, 87
2, 92735, Note_on_c, 0, 68, 0
2, 92768, Note_on_c, 0, 64, 83
2, 92777, Note_on_c, 0, 56, 80
2, 92784, Note_on_c, 0, 59, 0
2, 92833, Note_on_c, 0, 56, 0
2, 92845, Note_on_c, 0, 64, 0
2, 92879, Note_on_c, 0, 73, 92
2, 92882, Note_on_c, 0, 52, 78
2, 92962, Note_on_c, 0, 52, 0
2, 92980, Note_on_c, 0, 51, 81
2, 93039, Note_on_c, 0, 51, 0
2, 93077, Note_on_c, 0, 52, 76
2, 93171, Note_on_c, 0, 52, 0
2, 93179, Note_on_c, 0, 54, 81
2, 93231, Note_on_c, 0, 54, 0
2, 93277, Note_on_c, 0, 52, 81
2, 93312, Note_on_c, 0, 73, 0
2, 93353, Note_on_c, 0, 52, 0
2, 93373, Note_on_c, 0, 51, 76
2, 93388, Note_on_c, 0, 66, 80
2, 93421, Note_on_c, 0, 51, 0
2, 93443, Note_on_c, 0, 66, 0
2, 93469, Note_on_c, 0, 52, 73
2, 93481, Note_on_c, 0, 68, 85
2, 93548, Note_on_c, 0, 68, 0
2, 93566, Note_on_c, 0, 52, 0
2, 93575, Note_on_c, 0, 54, 80
2, 93585, Note_on_c, 0, 70, 88
2, 93624, Note_on_c, 0, 54, 0
2, 93634, Note_on_c, 0, 70, 0
2, 93683, Note_on_c, 0, 71, 91
2, 93688, Note_on_c, 0, 51, 88
2, 93716, Note_on_c, 0, 51, 0
2, 93736, Note_on_c, 0, 71, 0
2, 93786, Note_on_c, 0, 70, 89
2, 93835, Note_on_c, 0, 70, 0
2, 93885, Note_on_c, 0, 54, 85
2, 93891, Note_on_c, 0, 71, 91
2, 93907, Note_on_c, 0, 54, 0
2, 93953, Note_on_c, 0, 71, 0
2, 93985, Note_on_c, 0, 73, 94
2, 94041, Note_on_c, 0, 73, 0
2, 94086, Note_on_c, 0, 47, 80
2, 94086, Note_on_c, 0, 75, 89
2, 94108, Note_on_c, 0, 47, 0
2, 94129, Note_on_c, 0, 75, 0
2, 94180, Note_on_c, 0, 76, 89
2, 94230, Control_c, 0, 64, 15
2, 94245, Note_on_c, 0, 76, 0
2, 94246, Control_c, 0, 64, 38
2, 94261, Control_c, 0, 64, 52
2, 94276, Control_c, 0, 64, 59
2, 94290, Note_on_c, 0, 64, 95
2, 94300, Control_c, 0, 64, 64
2, 94300, Note_on_c, 0, 78, 85
2, 94312, Note_on_c, 0, 52, 73
2, 94315, Control_c, 0, 64, 68
2, 94331, Control_c, 0, 64, 78
2, 94344, Note_on_c, 0, 78, 0
2, 94346, Control_c, 0, 64, 94
2, 94362, Control_c, 0, 64, 113
2, 94377, Control_c, 0, 64, 121
2, 94391, Note_on_c, 0, 64, 0
2, 94394, Note_on_c, 0, 80, 87
2, 94416, Note_on_c, 0, 80, 0
2, 94497, Note_on_c, 0, 52, 0
2, 94526, Note_on_c, 0, 66, 96
2, 94527, Note_on_c, 0, 69, 90
2, 94529, Control_c, 0, 64, 119
2, 94543, Control_c, 0, 64, 113
2, 94559, Control_c, 0, 64, 108
2, 94574, Control_c, 0, 64, 105
2, 94589, Control_c, 0, 64, 103
2, 94600, Note_on_c, 0, 66, 0
2, 94619, Control_c, 0, 64, 103
2, 94636, Note_on_c, 0, 68, 86
2, 94655, Note_on_c, 0, 69, 0
2, 94680, Control_c, 0, 64, 94
2, 94695, Control_c, 0, 64, 80
2, 94710, Control_c, 0, 64, 67
2, 94721, Note_on_c, 0, 68, 0
2, 94723, Note_on_c, 0, 51, 75
2, 94726, Control_c, 0, 64, 54
2, 94740, Control_c, 0, 64, 12
2, 94740, Note_on_c, 0, 69, 88
2, 94755, Control_c, 0, 64, 10
2, 94771, Control_c, 0, 64, 31
2, 94786, Control_c, 0, 64, 40
2, 94802, Control_c, 0, 64, 44
2, 94817, Control_c, 0, 64, 45
2, 94830, Note_on_c, 0, 71, 87
2, 94834, Note_on_c, 0, 49, 76
2, 94836, Note_on_c, 0, 69, 0
2, 94842, Note_on_c, 0, 51, 0
2, 94848, Control_c, 0, 64, 42
2, 94862, Control_c, 0, 64, 32
2, 94877, Control_c, 0, 64, 0
2, 94879, Note_on_c, 0, 49, 0
2, 94931, Note_on_c, 0, 69, 86
2, 94933, Note_on_c, 0, 51, 80
2, 94963, Note_on_c, 0, 51, 0
2, 94966, Note_on_c, 0, 71, 0
2, 95022, Note_on_c, 0, 68, 79
2, 95024, Note_on_c, 0, 59, 79
2, 95027, Note_on_c, 0, 69, 0
2, 95055, Note_on_c, 0, 59, 0
2, 95098, Note_on_c, 0, 68, 0
2, 95132, Note_on_c, 0, 69, 83
2, 95140, Note_on_c, 0, 59, 75
2, 95144, Note_on_c, 0, 61, 73
2, 95168, Note_on_c, 0, 59, 0
2, 95175, Note_on_c, 0, 61, 0
2, 95227, Note_on_c, 0, 63, 85
2, 95231, Note_on_c, 0, 71, 82
2, 95232, Note_on_c, 0, 69, 0
2, 95279, Note_on_c, 0, 63, 0
2, 95331, Note_on_c, 0, 61, 77
2, 95331, Note_on_c, 0, 64, 79
2, 95336, Note_on_c, 0, 68, 83
2, 95352, Note_on_c, 0, 71, 0
2, 95401, Note_on_c, 0, 64, 0
2, 95417, Note_on_c, 0, 68, 0
2, 95428, Note_on_c, 0, 66, 81
2, 95431, Note_on_c, 0, 63, 74
2, 95449, Note_on_c, 0, 61, 0
2, 95503, Note_on_c, 0, 63, 0
2, 95520, Note_on_c, 0, 66, 0
2, 95522, Note_on_c, 0, 64, 75
2, 95531, Note_on_c, 0, 68, 79
2, 95578, Note_on_c, 0, 68, 0
2, 95590, Note_on_c, 0, 64, 0
2, 95626, Note_on_c, 0, 69, 82
2, 95633, Note_on_c, 0, 66, 79
2, 95654, Note_on_c, 0, 66, 0
2, 95687, Note_on_c, 0, 69, 0
2, 95713, Note_on_c, 0, 68, 75
2, 95723, Note_on_c, 0, 71, 78
2, 95767, Note_on_c, 0, 68, 0
2, 95807, Note_on_c, 0, 71, 0
2, 95807, Note_on_c, 0, 73, 79
2, 95814, Note_on_c, 0, 69, 76
2, 95852, Note_on_c, 0, 69, 0
2, 95874, Note_on_c, 0, 73, 0
2, 95924, Note_on_c, 0, 56, 77
2, 95925, Note_on_c, 0, 74, 79
2, 95928, Note_on_c, 0, 71, 86
2, 96019, Note_on_c, 0, 71, 0
2, 96031, Note_on_c, 0, 68, 80
2, 96073, Note_on_c, 0, 74, 0
2, 96099, Note_on_c, 0, 68, 0
2, 96107, Note_on_c, 0, 56, 0
2, 96126, Note_on_c, 0, 64, 76
2, 96135, Note_on_c, 0, 57, 72
2, 96180, Note_on_c, 0, 64, 0
2, 96223, Note_on_c, 0, 63, 77
2, 96246, Note_on_c, 0, 57, 0
2, 96263, Note_on_c, 0, 63, 0
2, 96324, Note_on_c, 0, 56, 71
2, 96330, Note_on_c, 0, 64, 75
2, 96336, Note_on_c, 0, 73, 78
2, 96347, Note_on_c, 0, 56, 0
2, 96365, Note_on_c, 0, 64, 0
2, 96419, Note_on_c, 0, 71, 79
2, 96421, Note_on_c, 0, 73, 0
2, 96432, Note_on_c, 0, 66, 69
2, 96480, Note_on_c, 0, 66, 0
2, 96502, Note_on_c, 0, 71, 0
2, 96528, Note_on_c, 0, 73, 81
2, 96535, Note_on_c, 0, 57, 59
2, 96536, Note_on_c, 0, 64, 73
2, 96561, Note_on_c, 0, 57, 0
2, 96569, Note_on_c, 0, 64, 0
2, 96636, Note_on_c, 0, 63, 72
2, 96698, Note_on_c, 0, 63, 0
2, 96740, Note_on_c, 0, 52, 73
2, 96749, Note_on_c, 0, 64, 72
2, 96764, Note_on_c, 0, 52, 0
2, 96780, Note_on_c, 0, 73, 0
2, 96786, Note_on_c, 0, 64, 0
2, 96832, Note_on_c, 0, 66, 70
2, 96944, Note_on_c, 0, 63, 75
2, 96945, Note_on_c, 0, 66, 0
2, 96946, Note_on_c, 0, 54, 74
2, 96973, Note_on_c, 0, 54, 0
2, 97000, Note_on_c, 0, 63, 0
2, 97042, Note_on_c, 0, 61, 71
2, 97084, Note_on_c, 0, 61, 0
2, 97142, Note_on_c, 0, 63, 72
2, 97152, Note_on_c, 0, 57, 61
2, 97181, Note_on_c, 0, 57, 0
2, 97182, Note_on_c, 0, 63, 0
2, 97246, Note_on_c, 0, 64, 73
2, 97283, Note_on_c, 0, 64, 0
2, 97348, Note_on_c, 0, 71, 78
2, 97355, Note_on_c, 0, 56, 59
2, 97355, Note_on_c, 0, 66, 71
2, 97384, Note_on_c, 0, 56, 0
2, 97391, Note_on_c, 0, 66, 0
2, 97457, Note_on_c, 0, 68, 76
2, 97510, Note_on_c, 0, 68, 0
2, 97560, Note_on_c, 0, 69, 72
2, 97560, Note_on_c, 0, 71, 0
2, 97560, Note_on_c, 0, 71, 9
2, 97565, Note_on_c, 0, 54, 66
2, 97593, Note_on_c, 0, 54, 0
2, 97600, Note_on_c, 0, 71, 0
2, 97642, Note_on_c, 0, 69, 0
2, 97657, Note_on_c, 0, 66, 77
2, 97717, Note_on_c, 0, 66, 0
2, 97760, Note_on_c, 0, 52, 71
2, 97769, Note_on_c, 0, 62, 71
2, 97783, Note_on_c, 0, 52, 0
2, 97815, Note_on_c, 0, 62, 0
2, 97867, Note_on_c, 0, 61, 76
2, 97921, Note_on_c, 0, 61, 0
2, 97969, Note_on_c, 0, 54, 74
2, 97969, Note_on_c, 0, 62, 70
2, 97991, Note_on_c, 0, 54, 0
2, 98012, Note_on_c, 0, 62, 0
2, 98060, Note_on_c, 0, 64, 78
2, 98099, Note_on_c, 0, 64, 0
2, 98169, Note_on_c, 0, 71, 79
2, 98171, Note_on_c, 0, 56, 74
2, 98180, Note_on_c, 0, 62, 66
2, 98193, Note_on_c, 0, 56, 0
2, 98214, Note_on_c, 0, 62, 0
2, 98282, Note_on_c, 0, 61, 71
2, 98336, Note_on_c, 0, 61, 0
2, 98371, Note_on_c, 0, 52, 74
2, 98384, Note_on_c, 0, 62, 71
2, 98397, Note_on_c, 0, 52, 0
2, 98412, Note_on_c, 0, 62, 0
2, 98479, Note_on_c, 0, 64, 75
2, 98490, Note_on_c, 0, 71, 0
2, 98540, Note_on_c, 0, 64, 0
2, 98580, Note_on_c, 0, 57, 74
2, 98589, Note_on_c, 0, 61, 75
2, 98605, Note_on_c, 0, 57, 0
2, 98635, Note_on_c, 0, 61, 0
2, 98681, Note_on_c, 0, 59, 76
2, 98730, Note_on_c, 0, 59, 0
2, 98781, Note_on_c, 0, 59, 66
2, 98782, Note_on_c, 0, 61, 78
2, 98809, Note_on_c, 0, 59, 0
2, 98813, Note_on_c, 0, 61, 0
2, 98873, Note_on_c, 0, 62, 74
2, 98916, Note_on_c, 0, 62, 0
2, 98981, Note_on_c, 0, 64, 77
2, 98985, Note_on_c, 0, 69, 77
2, 98991, Note_on_c, 0, 61, 69
2, 99012, Note_on_c, 0, 64, 0
2, 99019, Note_on_c, 0, 61, 0
2, 99073, Note_on_c, 0, 66, 78
2, 99131, Note_on_c, 0, 66, 0
2, 99173, Note_on_c, 0, 68, 76
2, 99194, Note_on_c, 0, 59, 67
2, 99204, Note_on_c, 0, 69, 0
2, 99222, Note_on_c, 0, 59, 0
2, 99259, Note_on_c, 0, 68, 0
2, 99274, Note_on_c, 0, 64, 74
2, 99323, Note_on_c, 0, 64, 0
2, 99385, Note_on_c, 0, 57, 68
2, 99387, Note_on_c, 0, 61, 75
2, 99412, Note_on_c, 0, 57, 0
2, 99426, Note_on_c, 0, 61, 0
2, 99483, Note_on_c, 0, 59, 71
2, 99523, Note_on_c, 0, 59, 0
2, 99581, Note_on_c, 0, 61, 72
2, 99582, Note_on_c, 0, 52, 58
2, 99604, Note_on_c, 0, 52, 0
2, 99615, Note_on_c, 0, 61, 0
2, 99677, Note_on_c, 0, 62, 74
2, 99723, Note_on_c, 0, 62, 0
2, 99783, Note_on_c, 0, 54, 74
2, 99792, Note_on_c, 0, 69, 76
2, 99802, Note_on_c, 0, 61, 74
2, 99807, Note_on_c, 0, 54, 0
2, 99837, Note_on_c, 0, 61, 0
2, 99901, Note_on_c, 0, 59, 64
2, 99944, Note_on_c, 0, 59, 0
2, 99986, Note_on_c, 0, 61, 64
2, 99990, Note_on_c, 0, 49, 67
2, 100017, Note_on_c, 0, 49, 0
2, 100019, Note_on_c, 0, 61, 0
2, 100081, Note_on_c, 0, 62, 71
2, 100134, Note_on_c, 0, 62, 0
2, 100193, Note_on_c, 0, 51, 73
2, 100193, Note_on_c, 0, 59, 73
2, 100222, Note_on_c, 0, 51, 0
2, 100241, Note_on_c, 0, 59, 0
2, 100241, Note_on_c, 0, 69, 0
2, 100280, Note_on_c, 0, 57, 73
2, 100317, Note_on_c, 0, 57, 0
2, 100371, Note_on_c, 0, 59, 76
2, 100381, Note_on_c, 0, 47, 73
2, 100407, Note_on_c, 0, 59, 0
2, 100410, Note_on_c, 0, 47, 0
2, 100481, Note_on_c, 0, 61, 80
2, 100525, Note_on_c, 0, 61, 0
2, 100577, Note_on_c, 0, 68, 85
2, 100578, Note_on_c, 0, 59, 79
2, 100588, Note_on_c, 0, 52, 63
2, 100599, Note_on_c, 0, 68, 0
2, 100611, Note_on_c, 0, 59, 0
2, 100699, Note_on_c, 0, 57, 71
2, 100778, Note_on_c, 0, 76, 88
2, 100781, Note_on_c, 0, 59, 73
2, 100791, Note_on_c, 0, 57, 0
2, 100797, Note_on_c, 0, 76, 0
2, 100870, Note_on_c, 0, 61, 70
2, 100880, Note_on_c, 0, 59, 0
2, 100965, Note_on_c, 0, 61, 0
2, 100993, Note_on_c, 0, 52, 0
2, 100997, Note_on_c, 0, 78, 91
2, 101006, Note_on_c, 0, 57, 70
2, 101052, Control_c, 0, 64, 28
2, 101067, Control_c, 0, 64, 44
2, 101082, Control_c, 0, 64, 51
2, 101090, Note_on_c, 0, 57, 0
2, 101097, Control_c, 0, 64, 55
2, 101100, Note_on_c, 0, 56, 75
2, 101112, Control_c, 0, 64, 58
2, 101127, Control_c, 0, 64, 59
2, 101142, Control_c, 0, 64, 61
2, 101157, Control_c, 0, 64, 63
2, 101173, Control_c, 0, 64, 64
2, 101188, Control_c, 0, 64, 66
2, 101211, Control_c, 0, 64, 68
2, 101216, Note_on_c, 0, 57, 77
2, 101226, Control_c, 0, 64, 71
2, 101234, Note_on_c, 0, 56, 0
2, 101242, Control_c, 0, 64, 74
2, 101255, Note_on_c, 0, 78, 0
2, 101257, Control_c, 0, 64, 76
2, 101272, Control_c, 0, 64, 77
2, 101287, Control_c, 0, 64, 80
2, 101290, Note_on_c, 0, 57, 0
2, 101302, Control_c, 0, 64, 82
2, 101316, Note_on_c, 0, 59, 78
2, 101317, Control_c, 0, 64, 86
2, 101333, Control_c, 0, 64, 88
2, 101347, Control_c, 0, 64, 88
2, 101378, Control_c, 0, 64, 87
2, 101390, Note_on_c, 0, 59, 0
2, 101393, Control_c, 0, 64, 81
2, 101409, Control_c, 0, 64, 72
2, 101415, Note_on_c, 0, 57, 80
2, 101419, Note_on_c, 0, 51, 71
2, 101424, Control_c, 0, 64, 64
2, 101440, Control_c, 0, 64, 44
2, 101454, Control_c, 0, 64, 0
2, 101484, Note_on_c, 0, 57, 0
2, 101508, Note_on_c, 0, 71, 85
2, 101525, Note_on_c, 0, 56, 73
2, 101604, Note_on_c, 0, 73, 89
2, 101612, Note_on_c, 0, 71, 0
2, 101616, Note_on_c, 0, 57, 72
2, 101633, Note_on_c, 0, 56, 0
2, 101675, Note_on_c, 0, 51, 0
2, 101692, Note_on_c, 0, 73, 0
2, 101697, Note_on_c, 0, 57, 0
2, 101698, Note_on_c, 0, 75, 90
2, 101707, Note_on_c, 0, 59, 73
2, 101766, Note_on_c, 0, 59, 0
2, 101772, Note_on_c, 0, 75, 0
2, 101799, Note_on_c, 0, 76, 89
2, 101806, Note_on_c, 0, 56, 80
2, 101830, Note_on_c, 0, 56, 0
2, 101856, Note_on_c, 0, 76, 0
2, 101898, Note_on_c, 0, 75, 87
2, 101948, Note_on_c, 0, 75, 0
2, 102002, Note_on_c, 0, 76, 87
2, 102007, Note_on_c, 0, 59, 80
2, 102035, Note_on_c, 0, 59, 0
2, 102068, Note_on_c, 0, 76, 0
2, 102092, Note_on_c, 0, 78, 90
2, 102146, Note_on_c, 0, 78, 0
2, 102187, Note_on_c, 0, 52, 81
2, 102188, Note_on_c, 0, 80, 92
2, 102207, Note_on_c, 0, 49, 76
2, 102246, Note_on_c, 0, 80, 0
2, 102276, Note_on_c, 0, 52, 0
2, 102284, Control_c, 0, 64, 41
2, 102289, Note_on_c, 0, 81, 93
2, 102299, Control_c, 0, 64, 52
2, 102314, Control_c, 0, 64, 56
2, 102330, Control_c, 0, 64, 59
2, 102344, Control_c, 0, 64, 61
2, 102360, Control_c, 0, 64, 64
2, 102375, Control_c, 0, 64, 66
2, 102384, Note_on_c, 0, 83, 91
2, 102390, Control_c, 0, 64, 69
2, 102402, Note_on_c, 0, 56, 80
2, 102405, Control_c, 0, 64, 73
2, 102417, Note_on_c, 0, 49, 0
2, 102420, Control_c, 0, 64, 74
2, 102435, Control_c, 0, 64, 75
2, 102439, Note_on_c, 0, 81, 0
2, 102451, Control_c, 0, 64, 75
2, 102466, Control_c, 0, 64, 76
2, 102481, Note_on_c, 0, 83, 0
2, 102482, Control_c, 0, 64, 77
2, 102483, Note_on_c, 0, 80, 90
2, 102497, Control_c, 0, 64, 77
2, 102507, Note_on_c, 0, 56, 0
2, 102528, Control_c, 0, 64, 77
2, 102533, Note_on_c, 0, 80, 0
2, 102543, Control_c, 0, 64, 72
2, 102559, Control_c, 0, 64, 63
2, 102573, Control_c, 0, 64, 33
2, 102580, Note_on_c, 0, 42, 83
2, 102585, Note_on_c, 0, 81, 88
2, 102588, Control_c, 0, 64, 0
2, 102671, Note_on_c, 0, 81, 0
2, 102681, Control_c, 0, 64, 34
2, 102687, Note_on_c, 0, 80, 87
2, 102695, Control_c, 0, 64, 42
2, 102710, Control_c, 0, 64, 47
2, 102726, Control_c, 0, 64, 52
2, 102748, Control_c, 0, 64, 54
2, 102750, Note_on_c, 0, 80, 0
2, 102764, Control_c, 0, 64, 57
2, 102778, Control_c, 0, 64, 59
2, 102787, Note_on_c, 0, 42, 0
2, 102793, Control_c, 0, 64, 62
2, 102793, Note_on_c, 0, 54, 82
2, 102796, Note_on_c, 0, 81, 87
2, 102809, Control_c, 0, 64, 65
2, 102823, Control_c, 0, 64, 66
2, 102864, Note_on_c, 0, 81, 0
2, 102869, Control_c, 0, 64, 62
2, 102885, Control_c, 0, 64, 38
2, 102890, Note_on_c, 0, 83, 85
2, 102894, Note_on_c, 0, 49, 84
2, 102899, Control_c, 0, 64, 0
2, 102980, Note_on_c, 0, 51, 80
2, 102984, Note_on_c, 0, 81, 88
2, 102992, Note_on_c, 0, 49, 0
2, 103010, Note_on_c, 0, 83, 0
2, 103020, Note_on_c, 0, 51, 0
2, 103030, Note_on_c, 0, 54, 0
2, 103054, Note_on_c, 0, 81, 0
2, 103088, Note_on_c, 0, 80, 86
2, 103138, Note_on_c, 0, 80, 0
2, 103172, Note_on_c, 0, 47, 81
2, 103190, Note_on_c, 0, 81, 86
2, 103201, Note_on_c, 0, 47, 0
2, 103241, Note_on_c, 0, 81, 0
2, 103285, Note_on_c, 0, 83, 87
2, 103370, Note_on_c, 0, 52, 84
2, 103380, Note_on_c, 0, 80, 87
2, 103384, Note_on_c, 0, 83, 0
2, 103390, Note_on_c, 0, 52, 0
2, 103448, Note_on_c, 0, 80, 0
2, 103469, Note_on_c, 0, 78, 86
2, 103488, Note_on_c, 0, 52, 3
2, 103489, Note_on_c, 0, 52, 0
2, 103531, Note_on_c, 0, 78, 0
2, 103574, Note_on_c, 0, 47, 80
2, 103580, Note_on_c, 0, 80, 87
2, 103598, Note_on_c, 0, 47, 0
2, 103630, Note_on_c, 0, 80, 0
2, 103673, Note_on_c, 0, 81, 85
2, 103776, Note_on_c, 0, 52, 85
2, 103776, Note_on_c, 0, 80, 90
2, 103780, Note_on_c, 0, 49, 83
2, 103804, Note_on_c, 0, 81, 0
2, 103813, Note_on_c, 0, 49, 0
2, 103876, Note_on_c, 0, 78, 86
2, 103882, Note_on_c, 0, 80, 0
2, 103942, Note_on_c, 0, 78, 0
2, 103972, Note_on_c, 0, 44, 82
2, 103981, Note_on_c, 0, 76, 85
2, 104009, Note_on_c, 0, 44, 0
2, 104036, Note_on_c, 0, 76, 0
2, 104078, Note_on_c, 0, 75, 86
2, 104115, Note_on_c, 0, 52, 0
2, 104166, Note_on_c, 0, 52, 65
2, 104180, Note_on_c, 0, 45, 90
2, 104181, Note_on_c, 0, 73, 94
2, 104228, Control_c, 0, 64, 16
2, 104233, Note_on_c, 0, 75, 0
2, 104237, Note_on_c, 0, 45, 0
2, 104243, Control_c, 0, 64, 41
2, 104259, Control_c, 0, 64, 54
2, 104259, Note_on_c, 0, 73, 0
2, 104281, Control_c, 0, 64, 60
2, 104295, Note_on_c, 0, 71, 88
2, 104297, Control_c, 0, 64, 62
2, 104311, Control_c, 0, 64, 63
2, 104327, Control_c, 0, 64, 64
2, 104359, Note_on_c, 0, 71, 0
2, 104396, Note_on_c, 0, 64, 87
2, 104396, Note_on_c, 0, 73, 84
2, 104452, Note_on_c, 0, 52, 0
2, 104456, Note_on_c, 0, 64, 0
2, 104464, Control_c, 0, 64, 64
2, 104497, Note_on_c, 0, 74, 83
2, 104503, Note_on_c, 0, 40, 76
2, 104504, Note_on_c, 0, 73, 0
2, 104540, Control_c, 0, 64, 60
2, 104549, Note_on_c, 0, 40, 0
2, 104555, Control_c, 0, 64, 42
2, 104571, Control_c, 0, 64, 0
2, 104572, Note_on_c, 0, 74, 0
2, 104598, Note_on_c, 0, 42, 89
2, 104601, Note_on_c, 0, 69, 89
2, 104604, Note_on_c, 0, 73, 91
2, 104692, Control_c, 0, 64, 39
2, 104705, Note_on_c, 0, 71, 88
2, 104707, Control_c, 0, 64, 48
2, 104714, Note_on_c, 0, 73, 0
2, 104721, Control_c, 0, 64, 55
2, 104737, Control_c, 0, 64, 58
2, 104752, Control_c, 0, 64, 59
2, 104768, Control_c, 0, 64, 60
2, 104776, Note_on_c, 0, 42, 0
2, 104776, Note_on_c, 0, 69, 0
2, 104802, Note_on_c, 0, 71, 0
2, 104812, Note_on_c, 0, 73, 93
2, 104814, Note_on_c, 0, 37, 81
2, 104889, Control_c, 0, 64, 59
2, 104891, Note_on_c, 0, 37, 0
2, 104904, Control_c, 0, 64, 58
2, 104910, Note_on_c, 0, 74, 86
2, 104913, Note_on_c, 0, 69, 45
2, 104916, Note_on_c, 0, 73, 0
2, 104919, Control_c, 0, 64, 57
2, 104935, Control_c, 0, 64, 53
2, 104943, Note_on_c, 0, 69, 0
2, 104950, Control_c, 0, 64, 45
2, 104966, Control_c, 0, 64, 19
2, 104981, Control_c, 0, 64, 0
2, 105011, Note_on_c, 0, 74, 0
2, 105023, Note_on_c, 0, 39, 84
2, 105026, Note_on_c, 0, 71, 96
2, 105063, Note_on_c, 0, 39, 0
2, 105078, Note_on_c, 0, 71, 0
2, 105137, Note_on_c, 0, 73, 90
2, 105194, Note_on_c, 0, 73, 0
2, 105236, Note_on_c, 0, 75, 92
2, 105241, Note_on_c, 0, 59, 82
2, 105265, Note_on_c, 0, 59, 0
2, 105275, Note_on_c, 0, 75, 0
2, 105345, Note_on_c, 0, 71, 93
2, 105425, Note_on_c, 0, 71, 0
2, 105458, Note_on_c, 0, 61, 92
2, 105459, Note_on_c, 0, 76, 92
2, 105462, Control_c, 0, 64, 55
2, 105474, Note_on_c, 0, 68, 85
2, 105493, Control_c, 0, 64, 57
2, 105507, Control_c, 0, 64, 61
2, 105507, Note_on_c, 0, 61, 0
2, 105523, Control_c, 0, 64, 65
2, 105538, Control_c, 0, 64, 71
2, 105541, Note_on_c, 0, 68, 0
2, 105554, Control_c, 0, 64, 78
2, 105569, Control_c, 0, 64, 86
2, 105569, Note_on_c, 0, 64, 84
2, 105575, Note_on_c, 0, 76, 0
2, 105584, Control_c, 0, 64, 89
2, 105614, Control_c, 0, 64, 90
2, 105676, Note_on_c, 0, 66, 90
2, 105678, Note_on_c, 0, 64, 0
2, 105776, Note_on_c, 0, 68, 90
2, 105792, Note_on_c, 0, 66, 0
2, 105840, Note_on_c, 0, 68, 0
2, 105884, Note_on_c, 0, 69, 88
2, 105897, Control_c, 0, 64, 89
2, 105913, Control_c, 0, 64, 88
2, 105928, Control_c, 0, 64, 84
2, 105943, Control_c, 0, 64, 77
2, 105958, Control_c, 0, 64, 69
2, 105965, Note_on_c, 0, 69, 0
2, 105973, Control_c, 0, 64, 59
2, 105981, Note_on_c, 0, 71, 94
2, 105986, Note_on_c, 0, 54, 83
2, 105988, Control_c, 0, 64, 0
2, 106057, Note_on_c, 0, 54, 0
2, 106059, Note_on_c, 0, 71, 0
2, 106091, Note_on_c, 0, 56, 88
2, 106094, Note_on_c, 0, 73, 90
2, 106208, Note_on_c, 0, 57, 92
2, 106223, Note_on_c, 0, 56, 0
2, 106272, Note_on_c, 0, 57, 0
2, 106337, Note_on_c, 0, 75, 97
2, 106342, Note_on_c, 0, 59, 84
2, 106365, Note_on_c, 0, 73, 0
2, 106486, Note_on_c, 0, 73, 89
2, 106489, Control_c, 0, 64, 40
2, 106504, Control_c, 0, 64, 53
2, 106520, Control_c, 0, 64, 60
2, 106535, Control_c, 0, 64, 65
2, 106550, Control_c, 0, 64, 70
2, 106566, Control_c, 0, 64, 78
2, 106589, Control_c, 0, 64, 93
2, 106595, Note_on_c, 0, 59, 0
2, 106605, Control_c, 0, 64, 127
2, 106650, Note_on_c, 0, 71, 98
2, 106652, Note_on_c, 0, 47, 68
2, 106694, Note_on_c, 0, 47, 0
2, 106718, Note_on_c, 0, 73, 0
2, 106792, Note_on_c, 0, 75, 0
2, 106812, Note_on_c, 0, 69, 90
2, 106836, Note_on_c, 0, 71, 0
2, 107225, Note_on_c, 0, 76, 85
2, 107228, Note_on_c, 0, 68, 80
2, 107231, Note_on_c, 0, 69, 0
2, 107243, Note_on_c, 0, 40, 60
2, 107290, Control_c, 0, 64, 94
2, 107306, Control_c, 0, 64, 76
2, 107321, Control_c, 0, 64, 63
2, 107335, Control_c, 0, 64, 23
2, 107359, Control_c, 0, 64, 0
2, 107769, Control_c, 0, 64, 21
2, 107785, Control_c, 0, 64, 34
2, 107800, Control_c, 0, 64, 43
2, 107815, Control_c, 0, 64, 50
2, 107831, Control_c, 0, 64, 57
2, 107846, Control_c, 0, 64, 61
2, 107860, Control_c, 0, 64, 63
2, 107876, Control_c, 0, 64, 65
2, 107891, Control_c, 0, 64, 68
2, 107907, Control_c, 0, 64, 73
2, 107922, Control_c, 0, 64, 80
2, 107937, Control_c, 0, 64, 89
2, 107953, Control_c, 0, 64, 99
2, 107967, Control_c, 0, 64, 124
2, 107982, Control_c, 0, 64, 127
2, 108352, Note_on_c, 0, 76, 0
2, 108432, Note_on_c, 0, 68, 0
2, 108441, Note_on_c, 0, 40, 0
2, 108910, Control_c, 0, 64, 110
2, 108925, Control_c, 0, 64, 100
2, 108940, Control_c, 0, 64, 93
2, 108956, Control_c, 0, 64, 87
2, 108971, Control_c, 0, 64, 80
2, 108987, Control_c, 0, 64, 74
2, 109002, Control_c, 0, 64, 68
2, 109017, Control_c, 0, 64, 63
2, 109032, Control_c, 0, 64, 54
2, 109048, Control_c, 0, 64, 34
2, 109063, Control_c, 0, 64, 0
2, 109064, End_track
0, 0, End_of_file
