0, 0, Header, 1, 2, 384
1, 0, Start_track
1, 0, Tempo, 500000
1, 0, Time_signature, 4, 2, 24, 8
1, 1, End_track
2,0,Start_track
2,0, Note_on_c, 0, 64, 71
2,19, Note_on_c, 0, 64, 0
2,260, Note_on_c, 0, 66, 80
2,305, Control_c, 0, 64, 48
2,319, Control_c, 0, 64, 61
2,335, Control_c, 0, 64, 68
2,350, Control_c, 0, 64, 82
2,366, Control_c, 0, 64, 127
2,477, Note_on_c, 0, 66, 0
2,669, Control_c, 0, 64, 103
2,685, Control_c, 0, 64, 80
2,700, Control_c, 0, 64, 67
2,715, Control_c, 0, 64, 54
2,731, Control_c, 0, 64, 0
2,869, Note_on_c, 0, 59, 66
2,942, Note_on_c, 0, 59, 0
2,959, Note_on_c, 0, 61, 75
2,1058, Note_on_c, 0, 61, 0
2,1070, Note_on_c, 0, 63, 73
2,1157, Note_on_c, 0, 63, 0
2,1168, Note_on_c, 0, 64, 82
2,1264, Note_on_c, 0, 64, 0
2,1271, Note_on_c, 0, 63, 75
2,1340, Note_on_c, 0, 63, 0
2,1375, Note_on_c, 0, 64, 81
2,1449, Note_on_c, 0, 64, 0
2,1466, Note_on_c, 0, 66, 82
2,1523, Note_on_c, 0, 66, 0
2,1570, Note_on_c, 0, 68, 77
2,1620, Note_on_c, 0, 68, 0
2,1664, Note_on_c, 0, 69, 73
2,1691, Note_on_c, 0, 69, 0
2,1767, Note_on_c, 0, 71, 85
2,1790, Note_on_c, 0, 71, 0
2,1874, Note_on_c, 0, 68, 72
2,1924, Note_on_c, 0, 68, 0
2,1976, Note_on_c, 0, 73, 87
2,1990, Note_on_c, 0, 64, 76
2,2054, Control_c, 0, 64, 12
2,2058, Note_on_c, 0, 64, 0
2,2069, Control_c, 0, 64, 39
2,2084, Control_c, 0, 64, 48
2,2090, Note_on_c, 0, 63, 73
2,2099, Control_c, 0, 64, 54
2,2114, Control_c, 0, 64, 59
2,2129, Control_c, 0, 64, 62
2,2144, Control_c, 0, 64, 64
2,2159, Control_c, 0, 64, 66
2,2160, Note_on_c, 0, 63, 0
2,2175, Control_c, 0, 64, 68
2,2190, Control_c, 0, 64, 70
2,2191, Note_on_c, 0, 64, 75
2,2205, Control_c, 0, 64, 72
2,2220, Control_c, 0, 64, 73
2,2236, Control_c, 0, 64, 74
2,2267, Control_c, 0, 64, 75
2,2267, Note_on_c, 0, 64, 0
2,2295, Note_on_c, 0, 66, 78
2,2327, Note_on_c, 0, 73, 0
2,2328, Control_c, 0, 64, 74
2,2343, Control_c, 0, 64, 72
2,2357, Control_c, 0, 64, 68
2,2360, Note_on_c, 0, 66, 0
2,2373, Control_c, 0, 64, 63
2,2388, Control_c, 0, 64, 55
2,2397, Note_on_c, 0, 64, 76
2,2404, Control_c, 0, 64, 40
2,2419, Control_c, 0, 64, 0
2,2484, Note_on_c, 0, 64, 0
2,2496, Note_on_c, 0, 63, 73
2,2499, Note_on_c, 0, 66, 76
2,2557, Note_on_c, 0, 66, 0
2,2604, Note_on_c, 0, 68, 78
2,2605, Note_on_c, 0, 63, 0
2,2605, Note_on_c, 0, 64, 74
2,2667, Note_on_c, 0, 68, 0
2,2669, Note_on_c, 0, 64, 0
2,2703, Note_on_c, 0, 70, 80
2,2711, Note_on_c, 0, 66, 71
2,2754, Note_on_c, 0, 70, 0
2,2777, Note_on_c, 0, 66, 0
2,2799, Note_on_c, 0, 71, 84
2,2809, Note_on_c, 0, 63, 72
2,2851, Note_on_c, 0, 71, 0
2,2877, Note_on_c, 0, 63, 0
2,2898, Note_on_c, 0, 61, 73
2,2900, Note_on_c, 0, 70, 80
2,2951, Note_on_c, 0, 70, 0
2,2990, Note_on_c, 0, 61, 0
2,2999, Note_on_c, 0, 71, 79
2,3002, Note_on_c, 0, 63, 72
2,3069, Note_on_c, 0, 71, 0
2,3072, Note_on_c, 0, 63, 0
2,3098, Note_on_c, 0, 64, 78
2,3099, Note_on_c, 0, 73, 85
2,3148, Note_on_c, 0, 73, 0
2,3155, Note_on_c, 0, 64, 0
2,3192, Note_on_c, 0, 66, 81
2,3194, Note_on_c, 0, 75, 86
2,3244, Note_on_c, 0, 75, 0
2,3287, Note_on_c, 0, 68, 79
2,3291, Note_on_c, 0, 66, 0
2,3294, Note_on_c, 0, 76, 87
2,3336, Note_on_c, 0, 68, 0
2,3366, Note_on_c, 0, 76, 0
2,3396, Note_on_c, 0, 69, 81
2,3403, Note_on_c, 0, 78, 84
2,3451, Note_on_c, 0, 69, 0
2,3495, Note_on_c, 0, 66, 78
2,3501, Note_on_c, 0, 75, 83
2,3510, Note_on_c, 0, 78, 0
2,3523, Note_on_c, 0, 75, 0
2,3534, Note_on_c, 0, 66, 0
2,3594, Note_on_c, 0, 68, 80
2,3595, Note_on_c, 0, 71, 86
2,3617, Note_on_c, 0, 68, 0
2,3642, Note_on_c, 0, 71, 0
2,3695, Note_on_c, 0, 69, 79
2,3738, Note_on_c, 0, 69, 0
2,3795, Note_on_c, 0, 59, 78
2,3807, Note_on_c, 0, 71, 79
2,3816, Note_on_c, 0, 59, 0
2,3839, Note_on_c, 0, 71, 0
2,3901, Note_on_c, 0, 73, 79
2,4005, Note_on_c, 0, 64, 90
2,4014, Note_on_c, 0, 71, 83
2,4016, Note_on_c, 0, 73, 0
2,4095, Note_on_c, 0, 71, 0
2,4112, Note_on_c, 0, 69, 78
2,4170, Note_on_c, 0, 69, 0
2,4222, Note_on_c, 0, 71, 85
2,4229, Note_on_c, 0, 52, 83
2,4257, Note_on_c, 0, 52, 0
2,4273, Note_on_c, 0, 71, 0
2,4324, Note_on_c, 0, 73, 80
2,4424, Note_on_c, 0, 73, 0
2,4442, Note_on_c, 0, 69, 82
2,4446, Note_on_c, 0, 54, 89
2,4452, Note_on_c, 0, 64, 0
2,4509, Control_c, 0, 64, 36
2,4525, Control_c, 0, 64, 49
2,4540, Control_c, 0, 64, 56
2,4540, Note_on_c, 0, 68, 87
2,4543, Note_on_c, 0, 69, 0
2,4555, Control_c, 0, 64, 62
2,4571, Control_c, 0, 64, 67
2,4585, Control_c, 0, 64, 74
2,4600, Control_c, 0, 64, 88
2,4602, Note_on_c, 0, 54, 0
2,4610, Note_on_c, 0, 68, 0
2,4616, Control_c, 0, 64, 100
2,4631, Control_c, 0, 64, 108
2,4647, Control_c, 0, 64, 110
2,4653, Note_on_c, 0, 63, 71
2,4653, Note_on_c, 0, 69, 89
2,4680, Note_on_c, 0, 63, 0
2,4742, Note_on_c, 0, 69, 0
2,4750, Note_on_c, 0, 71, 89
2,4799, Control_c, 0, 64, 109
2,4815, Control_c, 0, 64, 97
2,4830, Control_c, 0, 64, 82
2,4845, Control_c, 0, 64, 69
2,4852, Note_on_c, 0, 69, 87
2,4856, Note_on_c, 0, 66, 88
2,4860, Control_c, 0, 64, 57
2,4870, Note_on_c, 0, 71, 0
2,4875, Control_c, 0, 64, 0
2,4960, Note_on_c, 0, 47, 73
2,4971, Note_on_c, 0, 68, 83
2,4974, Note_on_c, 0, 69, 0
2,5010, Note_on_c, 0, 66, 0
2,5054, Note_on_c, 0, 68, 0
2,5060, Note_on_c, 0, 49, 76
2,5069, Note_on_c, 0, 69, 82
2,5071, Note_on_c, 0, 47, 0
2,5130, Note_on_c, 0, 49, 0
2,5168, Note_on_c, 0, 71, 84
2,5170, Note_on_c, 0, 51, 79
2,5170, Note_on_c, 0, 69, 0
2,5236, Note_on_c, 0, 51, 0
2,5262, Note_on_c, 0, 52, 80
2,5276, Note_on_c, 0, 68, 86
2,5283, Note_on_c, 0, 71, 0
2,5316, Note_on_c, 0, 52, 0
2,5355, Note_on_c, 0, 68, 0
2,5368, Note_on_c, 0, 66, 84
2,5371, Note_on_c, 0, 51, 73
2,5419, Note_on_c, 0, 51, 0
2,5421, Note_on_c, 0, 66, 0
2,5466, Note_on_c, 0, 52, 74
2,5472, Note_on_c, 0, 68, 82
2,5476, Note_on_c, 0, 59, 80
2,5509, Note_on_c, 0, 59, 0
2,5532, Note_on_c, 0, 68, 0
2,5546, Note_on_c, 0, 52, 0
2,5565, Note_on_c, 0, 54, 76
2,5571, Note_on_c, 0, 70, 87
2,5626, Note_on_c, 0, 70, 0
2,5643, Note_on_c, 0, 54, 0
2,5679, Note_on_c, 0, 56, 77
2,5679, Note_on_c, 0, 64, 92
2,5684, Note_on_c, 0, 71, 86
2,5713, Note_on_c, 0, 62, 48
2,5714, Note_on_c, 0, 62, 0
2,5784, Note_on_c, 0, 57, 75
2,5797, Note_on_c, 0, 56, 0
2,5846, Note_on_c, 0, 57, 0
2,5857, Note_on_c, 0, 64, 0
2,5879, Note_on_c, 0, 63, 89
2,5881, Note_on_c, 0, 59, 78
2,5982, Note_on_c, 0, 59, 0
2,5984, Note_on_c, 0, 56, 80
2,6044, Note_on_c, 0, 56, 0
2,6086, Note_on_c, 0, 61, 87
2,6092, Note_on_c, 0, 52, 74
2,6101, Note_on_c, 0, 63, 0
2,6159, Note_on_c, 0, 52, 0
2,6188, Note_on_c, 0, 51, 76
2,6257, Note_on_c, 0, 51, 0
2,6298, Note_on_c, 0, 52, 61
2,6382, Note_on_c, 0, 52, 0
2,6398, Note_on_c, 0, 54, 73
2,6465, Note_on_c, 0, 54, 0
2,6479, Note_on_c, 0, 61, 0
2,6512, Note_on_c, 0, 70, 79
2,6517, Note_on_c, 0, 52, 68
2,6523, Note_on_c, 0, 61, 40
2,6532, Note_on_c, 0, 71, 0
2,6564, Note_on_c, 0, 61, 0
2,6588, Note_on_c, 0, 52, 0
2,6613, Note_on_c, 0, 51, 75
2,6690, Note_on_c, 0, 51, 0
2,6710, Note_on_c, 0, 52, 68
2,6728, Note_on_c, 0, 70, 0
2,6786, Note_on_c, 0, 52, 0
2,6814, Note_on_c, 0, 54, 71
2,6866, Note_on_c, 0, 54, 0
2,6903, Note_on_c, 0, 71, 86
2,6913, Note_on_c, 0, 59, 63
2,6915, Note_on_c, 0, 51, 72
2,6926, Note_on_c, 0, 71, 0
2,6934, Note_on_c, 0, 59, 0
2,6967, Note_on_c, 0, 51, 0
2,7008, Note_on_c, 0, 49, 72
2,7075, Note_on_c, 0, 49, 0
2,7103, Note_on_c, 0, 83, 82
2,7117, Note_on_c, 0, 51, 65
2,7127, Note_on_c, 0, 83, 0
2,7167, Note_on_c, 0, 51, 0
2,7220, Note_on_c, 0, 52, 69
2,7273, Note_on_c, 0, 52, 0
2,7326, Note_on_c, 0, 75, 83
2,7327, Note_on_c, 0, 54, 70
2,7346, Note_on_c, 0, 75, 0
2,7384, Note_on_c, 0, 54, 0
2,7419, Note_on_c, 0, 56, 67
2,7464, Note_on_c, 0, 56, 0
2,7523, Note_on_c, 0, 57, 67
2,7527, Note_on_c, 0, 78, 85
2,7545, Note_on_c, 0, 78, 0
2,7568, Note_on_c, 0, 57, 0
2,7628, Note_on_c, 0, 54, 73
2,7733, Note_on_c, 0, 54, 0
2,7738, Note_on_c, 0, 71, 93
2,7742, Note_on_c, 0, 56, 74
2,7810, Note_on_c, 0, 56, 0
2,7830, Note_on_c, 0, 54, 74
2,7937, Note_on_c, 0, 56, 75
2,7940, Note_on_c, 0, 54, 0
2,7952, Note_on_c, 0, 76, 78
2,8051, Note_on_c, 0, 57, 75
2,8059, Note_on_c, 0, 56, 0
2,8094, Note_on_c, 0, 57, 0
2,8121, Note_on_c, 0, 76, 0
2,8153, Note_on_c, 0, 71, 0
2,8155, Note_on_c, 0, 59, 72
2,8156, Note_on_c, 0, 68, 77
2,8179, Note_on_c, 0, 68, 0
2,8207, Note_on_c, 0, 59, 0
2,8249, Note_on_c, 0, 61, 74
2,8317, Note_on_c, 0, 61, 0
2,8350, Note_on_c, 0, 71, 80
2,8355, Note_on_c, 0, 62, 72
2,8406, Note_on_c, 0, 62, 0
2,8448, Note_on_c, 0, 59, 71
2,8511, Note_on_c, 0, 71, 0
2,8530, Note_on_c, 0, 59, 0
2,8550, Note_on_c, 0, 61, 73
2,8552, Note_on_c, 0, 64, 71
2,8579, Note_on_c, 0, 64, 0
2,8595, Note_on_c, 0, 61, 0
2,8649, Note_on_c, 0, 59, 70
2,8752, Note_on_c, 0, 59, 0
2,8753, Note_on_c, 0, 69, 81
2,8758, Note_on_c, 0, 61, 71
2,8764, Note_on_c, 0, 66, 64
2,8797, Note_on_c, 0, 66, 0
2,8838, Note_on_c, 0, 61, 0
2,8863, Note_on_c, 0, 63, 66
2,8888, Note_on_c, 0, 69, 0
2,8903, Note_on_c, 0, 63, 0
2,8951, Note_on_c, 0, 64, 78
2,8951, Note_on_c, 0, 68, 78
2,8975, Note_on_c, 0, 68, 0
2,8994, Note_on_c, 0, 64, 0
2,9040, Note_on_c, 0, 63, 70
2,9104, Note_on_c, 0, 63, 0
2,9149, Note_on_c, 0, 76, 93
2,9150, Note_on_c, 0, 61, 71
2,9154, Note_on_c, 0, 64, 70
2,9169, Note_on_c, 0, 76, 0
2,9190, Note_on_c, 0, 64, 0
2,9213, Note_on_c, 0, 61, 0
2,9257, Note_on_c, 0, 59, 66
2,9328, Note_on_c, 0, 59, 0
2,9371, Note_on_c, 0, 78, 90
2,9372, Note_on_c, 0, 57, 72
2,9377, Note_on_c, 0, 64, 83
2,9405, Note_on_c, 0, 57, 0
2,9420, Control_c, 0, 64, 33
2,9435, Control_c, 0, 64, 49
2,9450, Control_c, 0, 64, 59
2,9452, Note_on_c, 0, 64, 0
2,9465, Control_c, 0, 64, 63
2,9471, Note_on_c, 0, 56, 78
2,9480, Control_c, 0, 64, 66
2,9504, Control_c, 0, 64, 68
2,9519, Control_c, 0, 64, 72
2,9534, Control_c, 0, 64, 75
2,9541, Note_on_c, 0, 56, 0
2,9549, Control_c, 0, 64, 77
2,9566, Control_c, 0, 64, 78
2,9581, Control_c, 0, 64, 79
2,9585, Note_on_c, 0, 57, 79
2,9609, Note_on_c, 0, 78, 0
2,9677, Note_on_c, 0, 57, 0
2,9680, Note_on_c, 0, 59, 82
2,9734, Control_c, 0, 64, 78
2,9741, Note_on_c, 0, 59, 0
2,9749, Control_c, 0, 64, 75
2,9764, Control_c, 0, 64, 68
2,9779, Control_c, 0, 64, 57
2,9792, Note_on_c, 0, 63, 84
2,9794, Control_c, 0, 64, 0
2,9803, Note_on_c, 0, 57, 70
2,9851, Note_on_c, 0, 63, 0
2,9877, Note_on_c, 0, 71, 86
2,9899, Note_on_c, 0, 57, 0
2,9900, Note_on_c, 0, 56, 76
2,9931, Control_c, 0, 64, 10
2,9946, Control_c, 0, 64, 25
2,9960, Control_c, 0, 64, 32
2,9976, Control_c, 0, 64, 37
2,9989, Note_on_c, 0, 73, 83
2,9991, Control_c, 0, 64, 42
2,9991, Note_on_c, 0, 66, 81
2,9994, Note_on_c, 0, 56, 0
2,10000, Note_on_c, 0, 71, 0
2,10004, Note_on_c, 0, 57, 74
2,10007, Control_c, 0, 64, 46
2,10022, Control_c, 0, 64, 49
2,10037, Control_c, 0, 64, 51
2,10040, Note_on_c, 0, 66, 0
2,10051, Note_on_c, 0, 73, 0
2,10053, Control_c, 0, 64, 53
2,10067, Control_c, 0, 64, 55
2,10079, Note_on_c, 0, 57, 0
2,10083, Control_c, 0, 64, 56
2,10086, Note_on_c, 0, 75, 86
2,10089, Note_on_c, 0, 59, 77
2,10098, Control_c, 0, 64, 56
2,10098, Note_on_c, 0, 73, 50
2,10113, Control_c, 0, 64, 56
2,10119, Note_on_c, 0, 73, 0
2,10129, Control_c, 0, 64, 51
2,10138, Note_on_c, 0, 59, 0
2,10144, Control_c, 0, 64, 30
2,10147, Note_on_c, 0, 75, 0
2,10159, Control_c, 0, 64, 0
2,10190, Note_on_c, 0, 76, 87
2,10196, Note_on_c, 0, 59, 69
2,10197, Note_on_c, 0, 56, 73
2,10256, Note_on_c, 0, 76, 0
2,10274, Note_on_c, 0, 56, 0
2,10301, Note_on_c, 0, 75, 91
2,10349, Note_on_c, 0, 75, 0
2,10392, Note_on_c, 0, 59, 0
2,10407, Note_on_c, 0, 76, 82
2,10414, Note_on_c, 0, 54, 76
2,10437, Note_on_c, 0, 54, 0
2,10474, Note_on_c, 0, 76, 0
2,10502, Note_on_c, 0, 78, 86
2,10553, Note_on_c, 0, 78, 0
2,10600, Note_on_c, 0, 80, 86
2,10608, Note_on_c, 0, 52, 72
2,10637, Note_on_c, 0, 52, 0
2,10648, Note_on_c, 0, 80, 0
2,10700, Note_on_c, 0, 81, 84
2,10746, Note_on_c, 0, 81, 0
2,10805, Note_on_c, 0, 51, 68
2,10809, Note_on_c, 0, 83, 89
2,10811, Note_on_c, 0, 71, 85
2,10835, Note_on_c, 0, 51, 0
2,10839, Note_on_c, 0, 71, 0
2,10879, Note_on_c, 0, 83, 0
2,10912, Note_on_c, 0, 80, 73
2,10933, Note_on_c, 0, 80, 0
2,11013, Note_on_c, 0, 49, 74
2,11020, Note_on_c, 0, 76, 86
2,11022, Note_on_c, 0, 73, 88
2,11052, Note_on_c, 0, 49, 0
2,11057, Control_c, 0, 64, 50
2,11072, Control_c, 0, 64, 59
2,11088, Control_c, 0, 64, 63
2,11095, Note_on_c, 0, 73, 0
2,11102, Control_c, 0, 64, 64
2,11117, Control_c, 0, 64, 65
2,11138, Note_on_c, 0, 75, 86
2,11148, Note_on_c, 0, 76, 0
2,11178, Control_c, 0, 64, 65
2,11193, Control_c, 0, 64, 64
2,11203, Note_on_c, 0, 75, 0
2,11233, Note_on_c, 0, 59, 72
2,11238, Control_c, 0, 64, 64
2,11240, Note_on_c, 0, 76, 89
2,11255, Control_c, 0, 64, 63
2,11261, Note_on_c, 0, 59, 0
2,11270, Control_c, 0, 64, 62
2,11286, Control_c, 0, 64, 60
2,11301, Control_c, 0, 64, 56
2,11316, Control_c, 0, 64, 51
2,11331, Control_c, 0, 64, 44
2,11336, Note_on_c, 0, 78, 87
2,11337, Note_on_c, 0, 76, 0
2,11346, Control_c, 0, 64, 29
2,11361, Control_c, 0, 64, 0
2,11431, Note_on_c, 0, 58, 74
2,11431, Note_on_c, 0, 76, 86
2,11456, Note_on_c, 0, 78, 0
2,11459, Note_on_c, 0, 58, 0
2,11516, Note_on_c, 0, 75, 83
2,11519, Note_on_c, 0, 66, 80
2,11525, Note_on_c, 0, 76, 0
2,11552, Note_on_c, 0, 66, 0
2,11569, Note_on_c, 0, 75, 0
2,11618, Note_on_c, 0, 76, 89
2,11621, Note_on_c, 0, 68, 77
2,11661, Note_on_c, 0, 68, 0
2,11706, Note_on_c, 0, 76, 0
2,11710, Note_on_c, 0, 78, 78
2,11712, Note_on_c, 0, 70, 87
2,11758, Note_on_c, 0, 70, 0
2,11774, Note_on_c, 0, 78, 0
2,11815, Note_on_c, 0, 75, 82
2,11817, Note_on_c, 0, 59, 69
2,11819, Note_on_c, 0, 71, 86
2,11844, Note_on_c, 0, 59, 0
2,11856, Control_c, 0, 64, 33
2,11856, Note_on_c, 0, 71, 0
2,11870, Control_c, 0, 64, 44
2,11875, Note_on_c, 0, 75, 0
2,11886, Control_c, 0, 64, 49
2,11901, Control_c, 0, 64, 52
2,11905, Note_on_c, 0, 70, 76
2,11911, Note_on_c, 0, 73, 78
2,11915, Control_c, 0, 64, 52
2,11931, Control_c, 0, 64, 53
2,11931, Note_on_c, 0, 70, 0
2,11961, Control_c, 0, 64, 52
2,11977, Control_c, 0, 64, 51
2,11991, Control_c, 0, 64, 48
2,12006, Note_on_c, 0, 75, 82
2,12007, Control_c, 0, 64, 43
2,12007, Note_on_c, 0, 73, 0
2,12008, Note_on_c, 0, 71, 88
2,12022, Control_c, 0, 64, 35
2,12037, Control_c, 0, 64, 22
2,12039, Note_on_c, 0, 75, 0
2,12053, Control_c, 0, 64, 0
2,12085, Note_on_c, 0, 71, 0
2,12100, Note_on_c, 0, 76, 82
2,12107, Note_on_c, 0, 73, 79
2,12155, Note_on_c, 0, 76, 0
2,12178, Note_on_c, 0, 73, 0
2,12194, Note_on_c, 0, 78, 85
2,12201, Note_on_c, 0, 75, 79
2,12239, Note_on_c, 0, 78, 0
2,12264, Note_on_c, 0, 75, 0
2,12285, Note_on_c, 0, 80, 87
2,12297, Note_on_c, 0, 76, 70
2,12328, Note_on_c, 0, 80, 0
2,12385, Note_on_c, 0, 81, 86
2,12386, Note_on_c, 0, 76, 0
2,12399, Note_on_c, 0, 78, 77
2,12459, Note_on_c, 0, 78, 0
2,12495, Note_on_c, 0, 75, 79
2,12518, Note_on_c, 0, 75, 0
2,12603, Note_on_c, 0, 71, 67
2,12646, Note_on_c, 0, 71, 0
2,12691, Note_on_c, 0, 69, 66
2,12748, Note_on_c, 0, 69, 0
2,12758, Note_on_c, 0, 81, 0
2,12792, Note_on_c, 0, 71, 67
2,12794, Note_on_c, 0, 75, 77
2,12819, Note_on_c, 0, 75, 0
2,12843, Note_on_c, 0, 71, 0
2,12889, Note_on_c, 0, 73, 72
2,12945, Note_on_c, 0, 73, 0
2,12996, Note_on_c, 0, 71, 73
2,12996, Note_on_c, 0, 80, 81
2,13043, Note_on_c, 0, 71, 0
2,13091, Note_on_c, 0, 69, 70
2,13160, Note_on_c, 0, 69, 0
2,13198, Note_on_c, 0, 71, 74
2,13257, Note_on_c, 0, 71, 0
2,13290, Note_on_c, 0, 73, 74
2,13356, Note_on_c, 0, 73, 0
2,13413, Note_on_c, 0, 69, 69
2,13478, Note_on_c, 0, 69, 0
2,13497, Note_on_c, 0, 68, 71
2,13569, Note_on_c, 0, 68, 0
2,13591, Note_on_c, 0, 78, 80
2,13596, Note_on_c, 0, 80, 0
2,13601, Note_on_c, 0, 69, 70
2,13645, Note_on_c, 0, 78, 0
2,13665, Note_on_c, 0, 69, 0
2,13684, Note_on_c, 0, 76, 81
2,13691, Note_on_c, 0, 71, 76
2,13731, Note_on_c, 0, 71, 0
2,13739, Note_on_c, 0, 76, 0
2,13779, Note_on_c, 0, 75, 81
2,13786, Note_on_c, 0, 69, 77
2,13844, Note_on_c, 0, 69, 0
2,13877, Note_on_c, 0, 68, 82
2,13899, Note_on_c, 0, 68, 0
2,13953, Note_on_c, 0, 75, 0
2,13988, Note_on_c, 0, 59, 88
2,13988, Note_on_c, 0, 69, 75
2,14011, Note_on_c, 0, 59, 0
2,14032, Note_on_c, 0, 69, 0
2,14088, Note_on_c, 0, 71, 87
2,14169, Note_on_c, 0, 71, 0
2,14207, Note_on_c, 0, 61, 86
2,14212, Note_on_c, 0, 68, 86
2,14216, Note_on_c, 0, 76, 87
2,14235, Note_on_c, 0, 75, 20
2,14236, Note_on_c, 0, 75, 0
2,14268, Note_on_c, 0, 68, 0
2,14280, Control_c, 0, 64, 38
2,14296, Control_c, 0, 64, 48
2,14311, Control_c, 0, 64, 54
2,14315, Note_on_c, 0, 75, 85
2,14316, Note_on_c, 0, 76, 0
2,14327, Control_c, 0, 64, 58
2,14342, Control_c, 0, 64, 62
2,14357, Control_c, 0, 64, 64
2,14373, Control_c, 0, 64, 65
2,14388, Control_c, 0, 64, 66
2,14399, Note_on_c, 0, 61, 0
2,14403, Control_c, 0, 64, 68
2,14409, Note_on_c, 0, 64, 75
2,14418, Control_c, 0, 64, 69
2,14418, Note_on_c, 0, 76, 83
2,14428, Note_on_c, 0, 75, 0
2,14433, Control_c, 0, 64, 71
2,14443, Note_on_c, 0, 64, 0
2,14448, Control_c, 0, 64, 71
2,14514, Note_on_c, 0, 78, 85
2,14519, Note_on_c, 0, 76, 0
2,14540, Control_c, 0, 64, 71
2,14555, Control_c, 0, 64, 69
2,14571, Control_c, 0, 64, 65
2,14586, Control_c, 0, 64, 60
2,14601, Control_c, 0, 64, 50
2,14614, Note_on_c, 0, 69, 81
2,14617, Control_c, 0, 64, 28
2,14618, Note_on_c, 0, 76, 77
2,14631, Control_c, 0, 64, 0
2,14647, Note_on_c, 0, 78, 0
2,14705, Note_on_c, 0, 54, 75
2,14718, Note_on_c, 0, 75, 85
2,14720, Note_on_c, 0, 76, 0
2,14807, Note_on_c, 0, 54, 0
2,14811, Note_on_c, 0, 56, 79
2,14816, Note_on_c, 0, 75, 0
2,14821, Note_on_c, 0, 76, 86
2,14918, Note_on_c, 0, 57, 79
2,14920, Note_on_c, 0, 69, 0
2,14920, Note_on_c, 0, 69, 17
2,14921, Note_on_c, 0, 78, 86
2,14933, Note_on_c, 0, 76, 0
2,14940, Note_on_c, 0, 56, 0
2,14968, Note_on_c, 0, 69, 0
2,14984, Note_on_c, 0, 57, 0
2,15021, Note_on_c, 0, 59, 77
2,15023, Note_on_c, 0, 75, 88
2,15043, Note_on_c, 0, 78, 0
2,15076, Note_on_c, 0, 59, 0
2,15108, Note_on_c, 0, 75, 0
2,15109, Note_on_c, 0, 73, 85
2,15119, Note_on_c, 0, 57, 74
2,15174, Note_on_c, 0, 73, 0
2,15211, Note_on_c, 0, 75, 91
2,15215, Note_on_c, 0, 59, 76
2,15226, Note_on_c, 0, 57, 0
2,15274, Note_on_c, 0, 75, 0
2,15311, Note_on_c, 0, 61, 80
2,15314, Note_on_c, 0, 59, 0
2,15314, Note_on_c, 0, 76, 87
2,15391, Note_on_c, 0, 61, 0
2,15417, Note_on_c, 0, 63, 72
2,15417, Note_on_c, 0, 78, 86
2,15436, Note_on_c, 0, 76, 0
2,15472, Note_on_c, 0, 63, 0
2,15517, Note_on_c, 0, 64, 69
2,15528, Note_on_c, 0, 72, 72
2,15572, Note_on_c, 0, 64, 0
2,15575, Note_on_c, 0, 72, 0
2,15617, Note_on_c, 0, 63, 64
2,15629, Note_on_c, 0, 73, 71
2,15671, Note_on_c, 0, 73, 0
2,15674, Note_on_c, 0, 63, 0
2,15730, Note_on_c, 0, 61, 66
2,15730, Note_on_c, 0, 75, 78
2,15767, Note_on_c, 0, 61, 0
2,15807, Note_on_c, 0, 75, 0
2,15829, Note_on_c, 0, 68, 74
2,15835, Note_on_c, 0, 60, 67
2,15876, Note_on_c, 0, 60, 0
2,15920, Note_on_c, 0, 56, 69
2,15936, Note_on_c, 0, 68, 0
2,16017, Note_on_c, 0, 58, 73
2,16024, Note_on_c, 0, 56, 0
2,16037, Note_on_c, 0, 76, 80
2,16044, Note_on_c, 0, 78, 0
2,16076, Note_on_c, 0, 58, 0
2,16092, Note_on_c, 0, 76, 0
2,16119, Note_on_c, 0, 60, 74
2,16128, Note_on_c, 0, 75, 91
2,16177, Note_on_c, 0, 75, 0
2,16181, Note_on_c, 0, 60, 0
2,16216, Note_on_c, 0, 61, 76
2,16227, Note_on_c, 0, 76, 84
2,16306, Note_on_c, 0, 61, 0
2,16316, Note_on_c, 0, 63, 71
2,16357, Note_on_c, 0, 63, 0
2,16378, Note_on_c, 0, 76, 0
2,16422, Note_on_c, 0, 73, 82
2,16426, Note_on_c, 0, 64, 73
2,16446, Note_on_c, 0, 73, 0
2,16485, Note_on_c, 0, 64, 0
2,16518, Note_on_c, 0, 61, 76
2,16583, Note_on_c, 0, 61, 0
2,16623, Note_on_c, 0, 57, 70
2,16625, Note_on_c, 0, 66, 82
2,16696, Note_on_c, 0, 57, 0
2,16717, Note_on_c, 0, 56, 75
2,16794, Note_on_c, 0, 56, 0
2,16827, Note_on_c, 0, 57, 64
2,16843, Note_on_c, 0, 76, 75
2,16889, Note_on_c, 0, 57, 0
2,16924, Note_on_c, 0, 59, 65
2,16982, Note_on_c, 0, 59, 0
2,17029, Note_on_c, 0, 57, 64
2,17038, Note_on_c, 0, 75, 77
2,17066, Note_on_c, 0, 76, 0
2,17080, Note_on_c, 0, 57, 0
2,17130, Note_on_c, 0, 56, 64
2,17203, Note_on_c, 0, 66, 0
2,17221, Note_on_c, 0, 56, 0
2,17237, Note_on_c, 0, 57, 64
2,17252, Note_on_c, 0, 73, 80
2,17277, Note_on_c, 0, 75, 0
2,17298, Note_on_c, 0, 57, 0
2,17338, Note_on_c, 0, 59, 70
2,17407, Note_on_c, 0, 73, 0
2,17418, Note_on_c, 0, 59, 0
2,17449, Note_on_c, 0, 56, 64
2,17454, Note_on_c, 0, 72, 80
2,17541, Note_on_c, 0, 56, 0
2,17560, Note_on_c, 0, 52, 68
2,17610, Note_on_c, 0, 52, 0
2,17641, Note_on_c, 0, 72, 0
2,17652, Note_on_c, 0, 54, 75
2,17668, Note_on_c, 0, 68, 82
2,17691, Note_on_c, 0, 68, 0
2,17718, Note_on_c, 0, 54, 0
2,17751, Note_on_c, 0, 56, 74
2,17828, Note_on_c, 0, 56, 0
2,17858, Note_on_c, 0, 57, 72
2,17861, Note_on_c, 0, 73, 88
2,17869, Note_on_c, 0, 64, 77
2,17901, Note_on_c, 0, 57, 0
2,17915, Note_on_c, 0, 64, 0
2,17963, Note_on_c, 0, 59, 73
2,18058, Note_on_c, 0, 59, 0
2,18062, Note_on_c, 0, 69, 79
2,18071, Note_on_c, 0, 61, 75
2,18102, Note_on_c, 0, 61, 0
2,18135, Note_on_c, 0, 69, 0
2,18164, Note_on_c, 0, 57, 71
2,18225, Note_on_c, 0, 57, 0
2,18266, Note_on_c, 0, 54, 75
2,18273, Note_on_c, 0, 63, 78
2,18273, Note_on_c, 0, 73, 0
2,18298, Note_on_c, 0, 63, 0
2,18338, Note_on_c, 0, 54, 0
2,18375, Note_on_c, 0, 52, 68
2,18463, Note_on_c, 0, 75, 82
2,18469, Note_on_c, 0, 66, 79
2,18475, Note_on_c, 0, 54, 73
2,18479, Note_on_c, 0, 52, 0
2,18487, Note_on_c, 0, 75, 0
2,18490, Note_on_c, 0, 66, 0
2,18548, Note_on_c, 0, 54, 0
2,18555, Note_on_c, 0, 56, 74
2,18631, Note_on_c, 0, 56, 0
2,18668, Note_on_c, 0, 68, 85
2,18671, Note_on_c, 0, 54, 73
2,18674, Note_on_c, 0, 60, 82
2,18721, Note_on_c, 0, 60, 0
2,18737, Control_c, 0, 64, 13
2,18752, Control_c, 0, 64, 36
2,18760, Note_on_c, 0, 54, 0
2,18768, Control_c, 0, 64, 45
2,18777, Note_on_c, 0, 52, 71
2,18782, Control_c, 0, 64, 51
2,18797, Control_c, 0, 64, 54
2,18813, Control_c, 0, 64, 57
2,18828, Control_c, 0, 64, 60
2,18844, Control_c, 0, 64, 62
2,18857, Note_on_c, 0, 52, 0
2,18858, Control_c, 0, 64, 64
2,18873, Control_c, 0, 64, 65
2,18885, Note_on_c, 0, 54, 68
2,18889, Control_c, 0, 64, 67
2,18895, Note_on_c, 0, 70, 80
2,18899, Note_on_c, 0, 63, 73
2,18903, Control_c, 0, 64, 68
2,18906, Note_on_c, 0, 68, 0
2,18918, Control_c, 0, 64, 70
2,18925, Note_on_c, 0, 63, 0
2,18934, Control_c, 0, 64, 71
2,18949, Control_c, 0, 64, 71
2,18970, Note_on_c, 0, 70, 0
2,18972, Note_on_c, 0, 56, 73
2,18976, Note_on_c, 0, 54, 0
2,18980, Control_c, 0, 64, 71
2,18993, Control_c, 0, 64, 69
2,18993, Note_on_c, 0, 72, 76
2,19002, Note_on_c, 0, 56, 0
2,19008, Control_c, 0, 64, 65
2,19024, Control_c, 0, 64, 61
2,19024, Note_on_c, 0, 72, 0
2,19038, Control_c, 0, 64, 53
2,19054, Control_c, 0, 64, 42
2,19069, Control_c, 0, 64, 23
2,19084, Control_c, 0, 64, 0
2,19096, Note_on_c, 0, 73, 80
2,19101, Note_on_c, 0, 52, 65
2,19102, Note_on_c, 0, 56, 73
2,19149, Note_on_c, 0, 52, 0
2,19149, Note_on_c, 0, 73, 0
2,19189, Note_on_c, 0, 72, 77
2,19230, Note_on_c, 0, 56, 0
2,19251, Note_on_c, 0, 72, 0
2,19288, Note_on_c, 0, 73, 75
2,19291, Note_on_c, 0, 51, 66
2,19320, Note_on_c, 0, 51, 0
2,19335, Note_on_c, 0, 73, 0
2,19396, Note_on_c, 0, 75, 70
2,19424, Note_on_c, 0, 75, 0
2,19502, Note_on_c, 0, 49, 59
2,19504, Note_on_c, 0, 76, 62
2,19532, Note_on_c, 0, 49, 0
2,19537, Note_on_c, 0, 76, 0
2,19592, Note_on_c, 0, 78, 66
2,19624, Note_on_c, 0, 78, 0
2,19685, Note_on_c, 0, 51, 73
2,19695, Note_on_c, 0, 80, 60
2,19708, Note_on_c, 0, 51, 0
2,19728, Note_on_c, 0, 80, 0
2,19788, Note_on_c, 0, 76, 64
2,19824, Note_on_c, 0, 76, 0
2,19888, Note_on_c, 0, 46, 57
2,19892, Note_on_c, 0, 73, 68
2,19919, Note_on_c, 0, 46, 0
2,19927, Note_on_c, 0, 73, 0
2,19979, Note_on_c, 0, 71, 70
2,20032, Note_on_c, 0, 71, 0
2,20083, Note_on_c, 0, 56, 67
2,20093, Note_on_c, 0, 73, 68
2,20103, Note_on_c, 0, 56, 0
2,20125, Note_on_c, 0, 73, 0
2,20184, Note_on_c, 0, 75, 66
2,20242, Note_on_c, 0, 75, 0
2,20302, Note_on_c, 0, 58, 80
2,20309, Note_on_c, 0, 73, 66
2,20330, Note_on_c, 0, 55, 46
2,20344, Note_on_c, 0, 73, 0
2,20356, Note_on_c, 0, 55, 0
2,20398, Note_on_c, 0, 71, 69
2,20461, Note_on_c, 0, 71, 0
2,20500, Note_on_c, 0, 73, 73
2,20519, Note_on_c, 0, 51, 55
2,20537, Note_on_c, 0, 73, 0
2,20549, Note_on_c, 0, 51, 0
2,20604, Note_on_c, 0, 75, 71
2,20651, Note_on_c, 0, 75, 0
2,20705, Note_on_c, 0, 71, 76
2,20714, Note_on_c, 0, 44, 64
2,20743, Note_on_c, 0, 71, 0
2,20745, Note_on_c, 0, 44, 0
2,20802, Note_on_c, 0, 70, 71
2,20836, Note_on_c, 0, 70, 0
2,20858, Note_on_c, 0, 58, 0
2,20892, Note_on_c, 0, 46, 71
2,20904, Note_on_c, 0, 71, 71
2,20919, Note_on_c, 0, 46, 0
2,20957, Note_on_c, 0, 71, 0
2,20995, Note_on_c, 0, 73, 78
2,21054, Note_on_c, 0, 73, 0
2,21106, Note_on_c, 0, 56, 75
2,21107, Note_on_c, 0, 75, 77
2,21116, Note_on_c, 0, 47, 59
2,21148, Note_on_c, 0, 47, 0
2,21157, Note_on_c, 0, 75, 0
2,21201, Note_on_c, 0, 76, 76
2,21262, Note_on_c, 0, 76, 0
2,21292, Note_on_c, 0, 56, 0
2,21304, Note_on_c, 0, 78, 76
2,21316, Note_on_c, 0, 46, 65
2,21346, Note_on_c, 0, 46, 0
2,21386, Note_on_c, 0, 78, 0
2,21402, Note_on_c, 0, 75, 78
2,21425, Note_on_c, 0, 75, 0
2,21495, Note_on_c, 0, 71, 78
2,21510, Note_on_c, 0, 44, 62
2,21538, Note_on_c, 0, 44, 0
2,21539, Note_on_c, 0, 71, 0
2,21584, Note_on_c, 0, 69, 74
2,21623, Note_on_c, 0, 69, 0
2,21690, Note_on_c, 0, 54, 77
2,21693, Note_on_c, 0, 71, 73
2,21711, Note_on_c, 0, 54, 0
2,21730, Note_on_c, 0, 71, 0
2,21805, Note_on_c, 0, 73, 71
2,21905, Note_on_c, 0, 56, 78
2,21910, Note_on_c, 0, 73, 0
2,21913, Note_on_c, 0, 71, 78
2,21928, Note_on_c, 0, 53, 57
2,21953, Note_on_c, 0, 53, 0
2,21976, Note_on_c, 0, 71, 0
2,22018, Note_on_c, 0, 69, 66
2,22055, Note_on_c, 0, 69, 0
2,22111, Note_on_c, 0, 71, 75
2,22127, Note_on_c, 0, 49, 54
2,22157, Note_on_c, 0, 49, 0
2,22160, Note_on_c, 0, 71, 0
2,22213, Note_on_c, 0, 73, 75
2,22283, Note_on_c, 0, 73, 0
2,22313, Note_on_c, 0, 42, 59
2,22319, Note_on_c, 0, 69, 68
2,22341, Note_on_c, 0, 42, 0
2,22362, Note_on_c, 0, 69, 0
2,22410, Note_on_c, 0, 68, 73
2,22454, Note_on_c, 0, 68, 0
2,22465, Note_on_c, 0, 56, 0
2,22493, Note_on_c, 0, 44, 72
2,22508, Note_on_c, 0, 69, 72
2,22518, Note_on_c, 0, 44, 0
2,22563, Note_on_c, 0, 69, 0
2,22610, Note_on_c, 0, 71, 74
2,22656, Note_on_c, 0, 71, 0
2,22718, Note_on_c, 0, 73, 78
2,22719, Note_on_c, 0, 54, 73
2,22735, Note_on_c, 0, 45, 54
2,22763, Note_on_c, 0, 45, 0
2,22768, Note_on_c, 0, 73, 0
2,22816, Note_on_c, 0, 75, 81
2,22868, Note_on_c, 0, 54, 0
2,22868, Note_on_c, 0, 54, 3
2,22907, Note_on_c, 0, 54, 0
2,22917, Note_on_c, 0, 44, 70
2,22919, Note_on_c, 0, 76, 77
2,22941, Note_on_c, 0, 75, 0
2,22944, Note_on_c, 0, 44, 0
2,22981, Note_on_c, 0, 76, 0
2,23014, Note_on_c, 0, 73, 84
2,23066, Note_on_c, 0, 73, 0
2,23114, Note_on_c, 0, 75, 83
2,23121, Note_on_c, 0, 42, 69
2,23148, Note_on_c, 0, 42, 0
2,23174, Note_on_c, 0, 75, 0
2,23205, Note_on_c, 0, 73, 82
2,23257, Note_on_c, 0, 73, 0
2,23308, Note_on_c, 0, 75, 82
2,23322, Note_on_c, 0, 52, 68
2,23346, Note_on_c, 0, 52, 0
2,23355, Note_on_c, 0, 75, 0
2,23359, Note_on_c, 0, 51, 11
2,23360, Note_on_c, 0, 51, 0
2,23412, Note_on_c, 0, 76, 79
2,23480, Note_on_c, 0, 76, 0
2,23517, Note_on_c, 0, 78, 84
2,23519, Note_on_c, 0, 54, 87
2,23547, Note_on_c, 0, 51, 43
2,23567, Note_on_c, 0, 78, 0
2,23574, Note_on_c, 0, 51, 0
2,23618, Note_on_c, 0, 80, 84
2,23677, Note_on_c, 0, 80, 0
2,23717, Note_on_c, 0, 81, 81
2,23725, Note_on_c, 0, 49, 75
2,23759, Note_on_c, 0, 49, 0
2,23777, Note_on_c, 0, 81, 0
2,23814, Note_on_c, 0, 78, 85
2,23862, Note_on_c, 0, 78, 0
2,23916, Note_on_c, 0, 48, 74
2,23916, Note_on_c, 0, 80, 81
2,23976, Note_on_c, 0, 48, 0
2,24014, Note_on_c, 0, 80, 0
2,24017, Note_on_c, 0, 78, 84
2,24074, Note_on_c, 0, 78, 0
2,24118, Note_on_c, 0, 44, 79
2,24123, Note_on_c, 0, 76, 84
2,24142, Note_on_c, 0, 54, 0
2,24178, Note_on_c, 0, 44, 0
2,24180, Note_on_c, 0, 76, 0
2,24214, Note_on_c, 0, 75, 84
2,24310, Note_on_c, 0, 52, 81
2,24313, Note_on_c, 0, 45, 74
2,24314, Note_on_c, 0, 73, 87
2,24334, Note_on_c, 0, 52, 0
2,24339, Note_on_c, 0, 75, 0
2,24342, Note_on_c, 0, 45, 0
2,24382, Note_on_c, 0, 73, 0
2,24413, Note_on_c, 0, 71, 87
2,24458, Note_on_c, 0, 71, 0
2,24508, Note_on_c, 0, 61, 92
2,24514, Note_on_c, 0, 69, 79
2,24530, Note_on_c, 0, 61, 0
2,24539, Note_on_c, 0, 52, 44
2,24540, Note_on_c, 0, 52, 0
2,24575, Note_on_c, 0, 69, 0
2,24623, Note_on_c, 0, 68, 80
2,24720, Note_on_c, 0, 68, 0
2,24722, Note_on_c, 0, 63, 88
2,24732, Note_on_c, 0, 66, 86
2,24735, Note_on_c, 0, 54, 68
2,24784, Control_c, 0, 64, 29
2,24800, Control_c, 0, 64, 52
2,24814, Control_c, 0, 64, 58
2,24816, Note_on_c, 0, 63, 0
2,24826, Note_on_c, 0, 68, 85
2,24832, Control_c, 0, 64, 61
2,24842, Note_on_c, 0, 54, 0
2,24847, Control_c, 0, 64, 64
2,24857, Note_on_c, 0, 52, 71
2,24859, Note_on_c, 0, 66, 0
2,24870, Control_c, 0, 64, 66
2,24885, Control_c, 0, 64, 70
2,24900, Control_c, 0, 64, 75
2,24914, Note_on_c, 0, 68, 0
2,24916, Control_c, 0, 64, 80
2,24929, Note_on_c, 0, 69, 85
2,24930, Control_c, 0, 64, 81
2,24944, Control_c, 0, 64, 81
2,24960, Control_c, 0, 64, 82
2,24971, Note_on_c, 0, 54, 77
2,24972, Note_on_c, 0, 52, 0
2,24975, Control_c, 0, 64, 82
2,24991, Control_c, 0, 64, 83
2,25012, Note_on_c, 0, 54, 0
2,25030, Note_on_c, 0, 66, 82
2,25030, Note_on_c, 0, 69, 0
2,25051, Control_c, 0, 64, 81
2,25066, Control_c, 0, 64, 75
2,25082, Control_c, 0, 64, 68
2,25096, Control_c, 0, 64, 60
2,25112, Control_c, 0, 64, 22
2,25127, Control_c, 0, 64, 0
2,25129, Note_on_c, 0, 66, 0
2,25130, Note_on_c, 0, 63, 85
2,25144, Note_on_c, 0, 56, 78
2,25168, Note_on_c, 0, 56, 0
2,25204, Note_on_c, 0, 63, 0
2,25220, Note_on_c, 0, 56, 84
2,25277, Note_on_c, 0, 56, 0
2,25325, Note_on_c, 0, 58, 77
2,25331, Note_on_c, 0, 68, 75
2,25336, Note_on_c, 0, 44, 69
2,25359, Note_on_c, 0, 58, 0
2,25361, Note_on_c, 0, 44, 0
2,25421, Note_on_c, 0, 60, 78
2,25464, Note_on_c, 0, 68, 0
2,25498, Note_on_c, 0, 60, 0
2,25532, Note_on_c, 0, 49, 67
2,25541, Note_on_c, 0, 61, 69
2,25552, Note_on_c, 0, 64, 74
2,25601, Note_on_c, 0, 61, 0
2,25613, Note_on_c, 0, 49, 0
2,25656, Note_on_c, 0, 60, 65
2,25696, Note_on_c, 0, 64, 0
2,25733, Note_on_c, 0, 60, 0
2,25743, Note_on_c, 0, 68, 70
2,25749, Note_on_c, 0, 60, 33
2,25769, Note_on_c, 0, 68, 0
2,25811, Note_on_c, 0, 60, 0
2,25840, Note_on_c, 0, 63, 69
2,25890, Note_on_c, 0, 63, 0
2,25938, Note_on_c, 0, 64, 66
2,25938, Note_on_c, 0, 73, 76
2,25963, Note_on_c, 0, 73, 0
2,25993, Note_on_c, 0, 64, 0
2,26030, Note_on_c, 0, 66, 67
2,26125, Note_on_c, 0, 66, 0
2,26125, Note_on_c, 0, 68, 63
2,26137, Note_on_c, 0, 71, 82
2,26161, Note_on_c, 0, 71, 0
2,26170, Note_on_c, 0, 68, 0
2,26218, Note_on_c, 0, 64, 62
2,26301, Note_on_c, 0, 64, 0
2,26334, Note_on_c, 0, 61, 58
2,26347, Note_on_c, 0, 76, 77
2,26418, Note_on_c, 0, 61, 0
2,26446, Note_on_c, 0, 59, 62
2,26448, Note_on_c, 0, 75, 81
2,26462, Note_on_c, 0, 76, 0
2,26518, Note_on_c, 0, 59, 0
2,26540, Note_on_c, 0, 61, 71
2,26542, Note_on_c, 0, 73, 82
2,26553, Note_on_c, 0, 75, 0
2,26614, Note_on_c, 0, 61, 0
2,26634, Note_on_c, 0, 71, 84
2,26636, Note_on_c, 0, 63, 67
2,26648, Note_on_c, 0, 73, 0
2,26697, Note_on_c, 0, 71, 0
2,26702, Note_on_c, 0, 63, 0
2,26739, Note_on_c, 0, 69, 70
2,26751, Note_on_c, 0, 61, 63
2,26805, Note_on_c, 0, 61, 0
2,26853, Note_on_c, 0, 59, 60
2,26904, Note_on_c, 0, 59, 0
2,26939, Note_on_c, 0, 61, 68
2,27040, Note_on_c, 0, 61, 0
2,27044, Note_on_c, 0, 63, 67
2,27089, Note_on_c, 0, 63, 0
2,27134, Note_on_c, 0, 59, 66
2,27206, Note_on_c, 0, 59, 0
2,27254, Note_on_c, 0, 56, 56
2,27277, Note_on_c, 0, 69, 0
2,27325, Note_on_c, 0, 63, 71
2,27343, Note_on_c, 0, 57, 65
2,27344, Note_on_c, 0, 56, 0
2,27349, Note_on_c, 0, 63, 0
2,27385, Note_on_c, 0, 57, 0
2,27444, Note_on_c, 0, 59, 60
2,27491, Note_on_c, 0, 59, 0
2,27519, Note_on_c, 0, 69, 78
2,27541, Note_on_c, 0, 61, 59
2,27543, Note_on_c, 0, 69, 0
2,27604, Note_on_c, 0, 61, 0
2,27634, Note_on_c, 0, 63, 62
2,27678, Note_on_c, 0, 63, 0
2,27717, Note_on_c, 0, 68, 74
2,27727, Note_on_c, 0, 64, 66
2,27740, Note_on_c, 0, 68, 0
2,27797, Note_on_c, 0, 64, 0
2,27822, Note_on_c, 0, 61, 67
2,27908, Note_on_c, 0, 61, 0
2,27925, Note_on_c, 0, 73, 78
2,27941, Note_on_c, 0, 57, 61
2,28014, Note_on_c, 0, 57, 0
2,28027, Note_on_c, 0, 71, 75
2,28033, Note_on_c, 0, 56, 65
2,28035, Note_on_c, 0, 73, 0
2,28093, Note_on_c, 0, 56, 0
2,28134, Note_on_c, 0, 69, 74
2,28137, Note_on_c, 0, 71, 0
2,28140, Note_on_c, 0, 57, 53
2,28177, Note_on_c, 0, 57, 0
2,28197, Note_on_c, 0, 69, 0
2,28222, Note_on_c, 0, 68, 79
2,28224, Note_on_c, 0, 59, 58
2,28275, Note_on_c, 0, 59, 0
2,28285, Note_on_c, 0, 68, 0
2,28327, Note_on_c, 0, 66, 70
2,28344, Note_on_c, 0, 57, 52
2,28385, Note_on_c, 0, 57, 0
2,28427, Note_on_c, 0, 56, 64
2,28524, Note_on_c, 0, 56, 0
2,28540, Note_on_c, 0, 57, 58
2,28581, Note_on_c, 0, 57, 0
2,28629, Note_on_c, 0, 59, 68
2,28692, Note_on_c, 0, 59, 0
2,28733, Note_on_c, 0, 56, 67
2,28791, Note_on_c, 0, 56, 0
2,28831, Note_on_c, 0, 54, 66
2,28914, Note_on_c, 0, 64, 81
2,28920, Note_on_c, 0, 54, 0
2,28926, Note_on_c, 0, 56, 69
2,28941, Note_on_c, 0, 66, 0
2,28990, Note_on_c, 0, 56, 0
2,28998, Note_on_c, 0, 64, 0
2,29001, Note_on_c, 0, 63, 79
2,29017, Note_on_c, 0, 57, 73
2,29059, Note_on_c, 0, 63, 0
2,29071, Note_on_c, 0, 57, 0
2,29106, Note_on_c, 0, 64, 81
2,29112, Note_on_c, 0, 56, 80
2,29137, Note_on_c, 0, 56, 0
2,29146, Note_on_c, 0, 64, 0
2,29200, Note_on_c, 0, 66, 81
2,29268, Note_on_c, 0, 66, 0
2,29305, Note_on_c, 0, 52, 84
2,29305, Note_on_c, 0, 68, 82
2,29312, Note_on_c, 0, 59, 74
2,29329, Note_on_c, 0, 52, 0
2,29342, Note_on_c, 0, 59, 0
2,29381, Note_on_c, 0, 68, 0
2,29412, Note_on_c, 0, 64, 84
2,29526, Note_on_c, 0, 54, 86
2,29529, Note_on_c, 0, 61, 86
2,29533, Note_on_c, 0, 64, 0
2,29595, Control_c, 0, 64, 32
2,29605, Note_on_c, 0, 61, 0
2,29610, Control_c, 0, 64, 46
2,29619, Note_on_c, 0, 68, 82
2,29625, Control_c, 0, 64, 52
2,29640, Control_c, 0, 64, 56
2,29656, Control_c, 0, 64, 59
2,29671, Control_c, 0, 64, 60
2,29686, Control_c, 0, 64, 61
2,29701, Control_c, 0, 64, 62
2,29715, Note_on_c, 0, 54, 0
2,29730, Note_on_c, 0, 66, 79
2,29731, Note_on_c, 0, 57, 68
2,29761, Note_on_c, 0, 68, 0
2,29807, Note_on_c, 0, 66, 0
2,29819, Note_on_c, 0, 57, 0
2,29822, Control_c, 0, 64, 62
2,29832, Note_on_c, 0, 64, 85
2,29837, Control_c, 0, 64, 60
2,29846, Note_on_c, 0, 56, 75
2,29853, Control_c, 0, 64, 56
2,29868, Control_c, 0, 64, 45
2,29883, Control_c, 0, 64, 25
2,29898, Control_c, 0, 64, 0
2,29898, Note_on_c, 0, 56, 0
2,29913, Note_on_c, 0, 64, 0
2,29928, Note_on_c, 0, 63, 78
2,29937, Note_on_c, 0, 57, 66
2,29991, Note_on_c, 0, 57, 0
2,30020, Note_on_c, 0, 61, 81
2,30026, Note_on_c, 0, 47, 68
2,30050, Note_on_c, 0, 63, 0
2,30109, Note_on_c, 0, 47, 0
2,30117, Note_on_c, 0, 49, 71
2,30132, Note_on_c, 0, 59, 68
2,30136, Note_on_c, 0, 61, 0
2,30176, Note_on_c, 0, 59, 0
2,30219, Note_on_c, 0, 57, 75
2,30220, Note_on_c, 0, 51, 73
2,30222, Note_on_c, 0, 49, 0
2,30289, Note_on_c, 0, 57, 0
2,30323, Note_on_c, 0, 56, 79
2,30329, Note_on_c, 0, 52, 73
2,30366, Note_on_c, 0, 51, 0
2,30378, Note_on_c, 0, 56, 0
2,30423, Note_on_c, 0, 59, 81
2,30429, Note_on_c, 0, 52, 0
2,30432, Note_on_c, 0, 51, 68
2,30508, Note_on_c, 0, 51, 0
2,30509, Note_on_c, 0, 59, 0
2,30519, Note_on_c, 0, 61, 83
2,30528, Note_on_c, 0, 52, 73
2,30585, Note_on_c, 0, 61, 0
2,30588, Note_on_c, 0, 52, 0
2,30619, Note_on_c, 0, 63, 84
2,30621, Note_on_c, 0, 54, 77
2,30665, Note_on_c, 0, 63, 0
2,30714, Note_on_c, 0, 64, 87
2,30717, Note_on_c, 0, 54, 0
2,30721, Note_on_c, 0, 56, 74
2,30772, Note_on_c, 0, 64, 0
2,30812, Note_on_c, 0, 66, 86
2,30815, Note_on_c, 0, 56, 0
2,30815, Note_on_c, 0, 57, 74
2,30858, Note_on_c, 0, 66, 0
2,30868, Note_on_c, 0, 57, 0
2,30907, Note_on_c, 0, 59, 77
2,30909, Note_on_c, 0, 68, 87
2,30980, Note_on_c, 0, 68, 0
2,31013, Note_on_c, 0, 64, 83
2,31022, Note_on_c, 0, 56, 80
2,31029, Note_on_c, 0, 59, 0
2,31078, Note_on_c, 0, 56, 0
2,31090, Note_on_c, 0, 64, 0
2,31124, Note_on_c, 0, 73, 92
2,31127, Note_on_c, 0, 52, 78
2,31207, Note_on_c, 0, 52, 0
2,31225, Note_on_c, 0, 51, 81
2,31284, Note_on_c, 0, 51, 0
2,31322, Note_on_c, 0, 52, 76
2,31416, Note_on_c, 0, 52, 0
2,31424, Note_on_c, 0, 54, 81
2,31476, Note_on_c, 0, 54, 0
2,31522, Note_on_c, 0, 52, 81
2,31557, Note_on_c, 0, 73, 0
2,31598, Note_on_c, 0, 52, 0
2,31618, Note_on_c, 0, 51, 76
2,31633, Note_on_c, 0, 66, 80
2,31666, Note_on_c, 0, 51, 0
2,31688, Note_on_c, 0, 66, 0
2,31714, Note_on_c, 0, 52, 73
2,31726, Note_on_c, 0, 68, 85
2,31793, Note_on_c, 0, 68, 0
2,31811, Note_on_c, 0, 52, 0
2,31820, Note_on_c, 0, 54, 80
2,31830, Note_on_c, 0, 70, 88
2,31869, Note_on_c, 0, 54, 0
2,31879, Note_on_c, 0, 70, 0
2,31928, Note_on_c, 0, 71, 91
2,31933, Note_on_c, 0, 51, 88
2,31961, Note_on_c, 0, 51, 0
2,31981, Note_on_c, 0, 71, 0
2,32031, Note_on_c, 0, 70, 89
2,32080, Note_on_c, 0, 70, 0
2,32130, Note_on_c, 0, 54, 85
2,32136, Note_on_c, 0, 71, 91
2,32152, Note_on_c, 0, 54, 0
2,32198, Note_on_c, 0, 71, 0
2,32230, Note_on_c, 0, 73, 94
2,32286, Note_on_c, 0, 73, 0
2,32331, Note_on_c, 0, 47, 80
2,32331, Note_on_c, 0, 75, 89
2,32353, Note_on_c, 0, 47, 0
2,32374, Note_on_c, 0, 75, 0
2,32425, Note_on_c, 0, 76, 89
2,32475, Control_c, 0, 64, 15
2,32490, Note_on_c, 0, 76, 0
2,32491, Control_c, 0, 64, 38
2,32506, Control_c, 0, 64, 52
2,32521, Control_c, 0, 64, 59
2,32535, Note_on_c, 0, 64, 95
2,32545, Control_c, 0, 64, 64
2,32545, Note_on_c, 0, 78, 85
2,32557, Note_on_c, 0, 52, 73
2,32560, Control_c, 0, 64, 68
2,32576, Control_c, 0, 64, 78
2,32589, Note_on_c, 0, 78, 0
2,32591, Control_c, 0, 64, 94
2,32607, Control_c, 0, 64, 113
2,32622, Control_c, 0, 64, 121
2,32636, Note_on_c, 0, 64, 0
2,32639, Note_on_c, 0, 80, 87
2,32661, Note_on_c, 0, 80, 0
2,32742, Note_on_c, 0, 52, 0
2,32771, Note_on_c, 0, 66, 96
2,32772, Note_on_c, 0, 69, 90
2,32774, Control_c, 0, 64, 119
2,32788, Control_c, 0, 64, 113
2,32804, Control_c, 0, 64, 108
2,32819, Control_c, 0, 64, 105
2,32834, Control_c, 0, 64, 103
2,32845, Note_on_c, 0, 66, 0
2,32864, Control_c, 0, 64, 103
2,32881, Note_on_c, 0, 68, 86
2,32900, Note_on_c, 0, 69, 0
2,32925, Control_c, 0, 64, 94
2,32940, Control_c, 0, 64, 80
2,32955, Control_c, 0, 64, 67
2,32966, Note_on_c, 0, 68, 0
2,32968, Note_on_c, 0, 51, 75
2,32971, Control_c, 0, 64, 54
2,32985, Control_c, 0, 64, 12
2,32985, Note_on_c, 0, 69, 88
2,33000, Control_c, 0, 64, 10
2,33016, Control_c, 0, 64, 31
2,33031, Control_c, 0, 64, 40
2,33047, Control_c, 0, 64, 44
2,33062, Control_c, 0, 64, 45
2,33075, Note_on_c, 0, 71, 87
2,33079, Note_on_c, 0, 49, 76
2,33081, Note_on_c, 0, 69, 0
2,33087, Note_on_c, 0, 51, 0
2,33093, Control_c, 0, 64, 42
2,33107, Control_c, 0, 64, 32
2,33122, Control_c, 0, 64, 0
2,33124, Note_on_c, 0, 49, 0
2,33176, Note_on_c, 0, 69, 86
2,33178, Note_on_c, 0, 51, 80
2,33208, Note_on_c, 0, 51, 0
2,33211, Note_on_c, 0, 71, 0
2,33267, Note_on_c, 0, 68, 79
2,33269, Note_on_c, 0, 59, 79
2,33272, Note_on_c, 0, 69, 0
2,33300, Note_on_c, 0, 59, 0
2,33343, Note_on_c, 0, 68, 0
2,33377, Note_on_c, 0, 69, 83
2,33385, Note_on_c, 0, 59, 75
2,33389, Note_on_c, 0, 61, 73
2,33413, Note_on_c, 0, 59, 0
2,33420, Note_on_c, 0, 61, 0
2,33472, Note_on_c, 0, 63, 85
2,33476, Note_on_c, 0, 71, 82
2,33477, Note_on_c, 0, 69, 0
2,33524, Note_on_c, 0, 63, 0
2,33576, Note_on_c, 0, 61, 77
2,33576, Note_on_c, 0, 64, 79
2,33581, Note_on_c, 0, 68, 83
2,33597, Note_on_c, 0, 71, 0
2,33646, Note_on_c, 0, 64, 0
2,33662, Note_on_c, 0, 68, 0
2,33673, Note_on_c, 0, 66, 81
2,33676, Note_on_c, 0, 63, 74
2,33694, Note_on_c, 0, 61, 0
2,33748, Note_on_c, 0, 63, 0
2,33765, Note_on_c, 0, 66, 0
2,33767, Note_on_c, 0, 64, 75
2,33776, Note_on_c, 0, 68, 79
2,33823, Note_on_c, 0, 68, 0
2,33835, Note_on_c, 0, 64, 0
2,33871, Note_on_c, 0, 69, 82
2,33878, Note_on_c, 0, 66, 79
2,33899, Note_on_c, 0, 66, 0
2,33932, Note_on_c, 0, 69, 0
2,33958, Note_on_c, 0, 68, 75
2,33968, Note_on_c, 0, 71, 78
2,34012, Note_on_c, 0, 68, 0
2,34052, Note_on_c, 0, 71, 0
2,34052, Note_on_c, 0, 73, 79
2,34059, Note_on_c, 0, 69, 76
2,34097, Note_on_c, 0, 69, 0
2,34119, Note_on_c, 0, 73, 0
2,34169, Note_on_c, 0, 56, 77
2,34170, Note_on_c, 0, 74, 79
2,34173, Note_on_c, 0, 71, 86
2,34264, Note_on_c, 0, 71, 0
2,34276, Note_on_c, 0, 68, 80
2,34318, Note_on_c, 0, 74, 0
2,34344, Note_on_c, 0, 68, 0
2,34352, Note_on_c, 0, 56, 0
2,34371, Note_on_c, 0, 64, 76
2,34380, Note_on_c, 0, 57, 72
2,34425, Note_on_c, 0, 64, 0
2,34468, Note_on_c, 0, 63, 77
2,34491, Note_on_c, 0, 57, 0
2,34508, Note_on_c, 0, 63, 0
2,34569, Note_on_c, 0, 56, 71
2,34575, Note_on_c, 0, 64, 75
2,34581, Note_on_c, 0, 73, 78
2,34592, Note_on_c, 0, 56, 0
2,34610, Note_on_c, 0, 64, 0
2,34664, Note_on_c, 0, 71, 79
2,34666, Note_on_c, 0, 73, 0
2,34677, Note_on_c, 0, 66, 69
2,34725, Note_on_c, 0, 66, 0
2,34747, Note_on_c, 0, 71, 0
2,34773, Note_on_c, 0, 73, 81
2,34780, Note_on_c, 0, 57, 59
2,34781, Note_on_c, 0, 64, 73
2,34806, Note_on_c, 0, 57, 0
2,34814, Note_on_c, 0, 64, 0
2,34881, Note_on_c, 0, 63, 72
2,34943, Note_on_c, 0, 63, 0
2,34985, Note_on_c, 0, 52, 73
2,34994, Note_on_c, 0, 64, 72
2,35009, Note_on_c, 0, 52, 0
2,35025, Note_on_c, 0, 73, 0
2,35031, Note_on_c, 0, 64, 0
2,35077, Note_on_c, 0, 66, 70
2,35189, Note_on_c, 0, 63, 75
2,35190, Note_on_c, 0, 66, 0
2,35191, Note_on_c, 0, 54, 74
2,35218, Note_on_c, 0, 54, 0
2,35245, Note_on_c, 0, 63, 0
2,35287, Note_on_c, 0, 61, 71
2,35329, Note_on_c, 0, 61, 0
2,35387, Note_on_c, 0, 63, 72
2,35397, Note_on_c, 0, 57, 61
2,35426, Note_on_c, 0, 57, 0
2,35427, Note_on_c, 0, 63, 0
2,35491, Note_on_c, 0, 64, 73
2,35528, Note_on_c, 0, 64, 0
2,35593, Note_on_c, 0, 71, 78
2,35600, Note_on_c, 0, 56, 59
2,35600, Note_on_c, 0, 66, 71
2,35629, Note_on_c, 0, 56, 0
2,35636, Note_on_c, 0, 66, 0
2,35702, Note_on_c, 0, 68, 76
2,35755, Note_on_c, 0, 68, 0
2,35805, Note_on_c, 0, 69, 72
2,35805, Note_on_c, 0, 71, 0
2,35805, Note_on_c, 0, 71, 9
2,35810, Note_on_c, 0, 54, 66
2,35838, Note_on_c, 0, 54, 0
2,35845, Note_on_c, 0, 71, 0
2,35887, Note_on_c, 0, 69, 0
2,35902, Note_on_c, 0, 66, 77
2,35962, Note_on_c, 0, 66, 0
2,36005, Note_on_c, 0, 52, 71
2,36014, Note_on_c, 0, 62, 71
2,36028, Note_on_c, 0, 52, 0
2,36060, Note_on_c, 0, 62, 0
2,36112, Note_on_c, 0, 61, 76
2,36166, Note_on_c, 0, 61, 0
2,36214, Note_on_c, 0, 54, 74
2,36214, Note_on_c, 0, 62, 70
2,36236, Note_on_c, 0, 54, 0
2,36257, Note_on_c, 0, 62, 0
2,36305, Note_on_c, 0, 64, 78
2,36344, Note_on_c, 0, 64, 0
2,36414, Note_on_c, 0, 71, 79
2,36416, Note_on_c, 0, 56, 74
2,36425, Note_on_c, 0, 62, 66
2,36438, Note_on_c, 0, 56, 0
2,36459, Note_on_c, 0, 62, 0
2,36527, Note_on_c, 0, 61, 71
2,36581, Note_on_c, 0, 61, 0
2,36616, Note_on_c, 0, 52, 74
2,36629, Note_on_c, 0, 62, 71
2,36642, Note_on_c, 0, 52, 0
2,36657, Note_on_c, 0, 62, 0
2,36724, Note_on_c, 0, 64, 75
2,36735, Note_on_c, 0, 71, 0
2,36785, Note_on_c, 0, 64, 0
2,36825, Note_on_c, 0, 57, 74
2,36834, Note_on_c, 0, 61, 75
2,36850, Note_on_c, 0, 57, 0
2,36880, Note_on_c, 0, 61, 0
2,36926, Note_on_c, 0, 59, 76
2,36975, Note_on_c, 0, 59, 0
2,37026, Note_on_c, 0, 59, 66
2,37027, Note_on_c, 0, 61, 78
2,37054, Note_on_c, 0, 59, 0
2,37058, Note_on_c, 0, 61, 0
2,37118, Note_on_c, 0, 62, 74
2,37161, Note_on_c, 0, 62, 0
2,37226, Note_on_c, 0, 64, 77
2,37230, Note_on_c, 0, 69, 77
2,37236, Note_on_c, 0, 61, 69
2,37257, Note_on_c, 0, 64, 0
2,37264, Note_on_c, 0, 61, 0
2,37318, Note_on_c, 0, 66, 78
2,37376, Note_on_c, 0, 66, 0
2,37418, Note_on_c, 0, 68, 76
2,37439, Note_on_c, 0, 59, 67
2,37449, Note_on_c, 0, 69, 0
2,37467, Note_on_c, 0, 59, 0
2,37504, Note_on_c, 0, 68, 0
2,37519, Note_on_c, 0, 64, 74
2,37568, Note_on_c, 0, 64, 0
2,37630, Note_on_c, 0, 57, 68
2,37632, Note_on_c, 0, 61, 75
2,37657, Note_on_c, 0, 57, 0
2,37671, Note_on_c, 0, 61, 0
2,37728, Note_on_c, 0, 59, 71
2,37768, Note_on_c, 0, 59, 0
2,37826, Note_on_c, 0, 61, 72
2,37827, Note_on_c, 0, 52, 58
2,37849, Note_on_c, 0, 52, 0
2,37860, Note_on_c, 0, 61, 0
2,37922, Note_on_c, 0, 62, 74
2,37968, Note_on_c, 0, 62, 0
2,38028, Note_on_c, 0, 54, 74
2,38037, Note_on_c, 0, 69, 76
2,38047, Note_on_c, 0, 61, 74
2,38052, Note_on_c, 0, 54, 0
2,38082, Note_on_c, 0, 61, 0
2,38146, Note_on_c, 0, 59, 64
2,38189, Note_on_c, 0, 59, 0
2,38231, Note_on_c, 0, 61, 64
2,38235, Note_on_c, 0, 49, 67
2,38262, Note_on_c, 0, 49, 0
2,38264, Note_on_c, 0, 61, 0
2,38326, Note_on_c, 0, 62, 71
2,38379, Note_on_c, 0, 62, 0
2,38438, Note_on_c, 0, 51, 73
2,38438, Note_on_c, 0, 59, 73
2,38467, Note_on_c, 0, 51, 0
2,38486, Note_on_c, 0, 59, 0
2,38486, Note_on_c, 0, 69, 0
2,38525, Note_on_c, 0, 57, 73
2,38562, Note_on_c, 0, 57, 0
2,38616, Note_on_c, 0, 59, 76
2,38626, Note_on_c, 0, 47, 73
2,38652, Note_on_c, 0, 59, 0
2,38655, Note_on_c, 0, 47, 0
2,38726, Note_on_c, 0, 61, 80
2,38770, Note_on_c, 0, 61, 0
2,38822, Note_on_c, 0, 68, 85
2,38823, Note_on_c, 0, 59, 79
2,38833, Note_on_c, 0, 52, 63
2,38844, Note_on_c, 0, 68, 0
2,38856, Note_on_c, 0, 59, 0
2,38944, Note_on_c, 0, 57, 71
2,39023, Note_on_c, 0, 76, 88
2,39026, Note_on_c, 0, 59, 73
2,39036, Note_on_c, 0, 57, 0
2,39042, Note_on_c, 0, 76, 0
2,39115, Note_on_c, 0, 61, 70
2,39125, Note_on_c, 0, 59, 0
2,39210, Note_on_c, 0, 61, 0
2,39238, Note_on_c, 0, 52, 0
2,39242, Note_on_c, 0, 78, 91
2,39251, Note_on_c, 0, 57, 70
2,39297, Control_c, 0, 64, 28
2,39312, Control_c, 0, 64, 44
2,39327, Control_c, 0, 64, 51
2,39335, Note_on_c, 0, 57, 0
2,39342, Control_c, 0, 64, 55
2,39345, Note_on_c, 0, 56, 75
2,39357, Control_c, 0, 64, 58
2,39372, Control_c, 0, 64, 59
2,39387, Control_c, 0, 64, 61
2,39402, Control_c, 0, 64, 63
2,39418, Control_c, 0, 64, 64
2,39433, Control_c, 0, 64, 66
2,39456, Control_c, 0, 64, 68
2,39461, Note_on_c, 0, 57, 77
2,39471, Control_c, 0, 64, 71
2,39479, Note_on_c, 0, 56, 0
2,39487, Control_c, 0, 64, 74
2,39500, Note_on_c, 0, 78, 0
2,39502, Control_c, 0, 64, 76
2,39517, Control_c, 0, 64, 77
2,39532, Control_c, 0, 64, 80
2,39535, Note_on_c, 0, 57, 0
2,39547, Control_c, 0, 64, 82
2,39561, Note_on_c, 0, 59, 78
2,39562, Control_c, 0, 64, 86
2,39578, Control_c, 0, 64, 88
2,39592, Control_c, 0, 64, 88
2,39623, Control_c, 0, 64, 87
2,39635, Note_on_c, 0, 59, 0
2,39638, Control_c, 0, 64, 81
2,39654, Control_c, 0, 64, 72
2,39660, Note_on_c, 0, 57, 80
2,39664, Note_on_c, 0, 51, 71
2,39669, Control_c, 0, 64, 64
2,39685, Control_c, 0, 64, 44
2,39699, Control_c, 0, 64, 0
2,39729, Note_on_c, 0, 57, 0
2,39753, Note_on_c, 0, 71, 85
2,39770, Note_on_c, 0, 56, 73
2,39849, Note_on_c, 0, 73, 89
2,39857, Note_on_c, 0, 71, 0
2,39861, Note_on_c, 0, 57, 72
2,39878, Note_on_c, 0, 56, 0
2,39920, Note_on_c, 0, 51, 0
2,39937, Note_on_c, 0, 73, 0
2,39942, Note_on_c, 0, 57, 0
2,39943, Note_on_c, 0, 75, 90
2,39952, Note_on_c, 0, 59, 73
2,40011, Note_on_c, 0, 59, 0
2,40017, Note_on_c, 0, 75, 0
2,40044, Note_on_c, 0, 76, 89
2,40051, Note_on_c, 0, 56, 80
2,40075, Note_on_c, 0, 56, 0
2,40101, Note_on_c, 0, 76, 0
2,40143, Note_on_c, 0, 75, 87
2,40193, Note_on_c, 0, 75, 0
2,40247, Note_on_c, 0, 76, 87
2,40252, Note_on_c, 0, 59, 80
2,40280, Note_on_c, 0, 59, 0
2,40313, Note_on_c, 0, 76, 0
2,40337, Note_on_c, 0, 78, 90
2,40391, Note_on_c, 0, 78, 0
2,40432, Note_on_c, 0, 52, 81
2,40433, Note_on_c, 0, 80, 92
2,40452, Note_on_c, 0, 49, 76
2,40491, Note_on_c, 0, 80, 0
2,40521, Note_on_c, 0, 52, 0
2,40529, Control_c, 0, 64, 41
2,40534, Note_on_c, 0, 81, 93
2,40544, Control_c, 0, 64, 52
2,40559, Control_c, 0, 64, 56
2,40575, Control_c, 0, 64, 59
2,40589, Control_c, 0, 64, 61
2,40605, Control_c, 0, 64, 64
2,40620, Control_c, 0, 64, 66
2,40629, Note_on_c, 0, 83, 91
2,40635, Control_c, 0, 64, 69
2,40647, Note_on_c, 0, 56, 80
2,40650, Control_c, 0, 64, 73
2,40662, Note_on_c, 0, 49, 0
2,40665, Control_c, 0, 64, 74
2,40680, Control_c, 0, 64, 75
2,40684, Note_on_c, 0, 81, 0
2,40696, Control_c, 0, 64, 75
2,40711, Control_c, 0, 64, 76
2,40726, Note_on_c, 0, 83, 0
2,40727, Control_c, 0, 64, 77
2,40728, Note_on_c, 0, 80, 90
2,40742, Control_c, 0, 64, 77
2,40752, Note_on_c, 0, 56, 0
2,40773, Control_c, 0, 64, 77
2,40778, Note_on_c, 0, 80, 0
2,40788, Control_c, 0, 64, 72
2,40804, Control_c, 0, 64, 63
2,40818, Control_c, 0, 64, 33
2,40825, Note_on_c, 0, 42, 83
2,40830, Note_on_c, 0, 81, 88
2,40833, Control_c, 0, 64, 0
2,40916, Note_on_c, 0, 81, 0
2,40926, Control_c, 0, 64, 34
2,40932, Note_on_c, 0, 80, 87
2,40940, Control_c, 0, 64, 42
2,40955, Control_c, 0, 64, 47
2,40971, Control_c, 0, 64, 52
2,40993, Control_c, 0, 64, 54
2,40995, Note_on_c, 0, 80, 0
2,41009, Control_c, 0, 64, 57
2,41023, Control_c, 0, 64, 59
2,41032, Note_on_c, 0, 42, 0
2,41038, Control_c, 0, 64, 62
2,41038, Note_on_c, 0, 54, 82
2,41041, Note_on_c, 0, 81, 87
2,41054, Control_c, 0, 64, 65
2,41068, Control_c, 0, 64, 66
2,41109, Note_on_c, 0, 81, 0
2,41114, Control_c, 0, 64, 62
2,41130, Control_c, 0, 64, 38
2,41135, Note_on_c, 0, 83, 85
2,41139, Note_on_c, 0, 49, 84
2,41144, Control_c, 0, 64, 0
2,41225, Note_on_c, 0, 51, 80
2,41229, Note_on_c, 0, 81, 88
2,41237, Note_on_c, 0, 49, 0
2,41255, Note_on_c, 0, 83, 0
2,41265, Note_on_c, 0, 51, 0
2,41275, Note_on_c, 0, 54, 0
2,41299, Note_on_c, 0, 81, 0
2,41333, Note_on_c, 0, 80, 86
2,41383, Note_on_c, 0, 80, 0
2,41417, Note_on_c, 0, 47, 81
2,41435, Note_on_c, 0, 81, 86
2,41446, Note_on_c, 0, 47, 0
2,41486, Note_on_c, 0, 81, 0
2,41530, Note_on_c, 0, 83, 87
2,41615, Note_on_c, 0, 52, 84
2,41625, Note_on_c, 0, 80, 87
2,41629, Note_on_c, 0, 83, 0
2,41635, Note_on_c, 0, 52, 0
2,41693, Note_on_c, 0, 80, 0
2,41714, Note_on_c, 0, 78, 86
2,41733, Note_on_c, 0, 52, 3
2,41734, Note_on_c, 0, 52, 0
2,41776, Note_on_c, 0, 78, 0
2,41819, Note_on_c, 0, 47, 80
2,41825, Note_on_c, 0, 80, 87
2,41843, Note_on_c, 0, 47, 0
2,41875, Note_on_c, 0, 80, 0
2,41918, Note_on_c, 0, 81, 85
2,42021, Note_on_c, 0, 52, 85
2,42021, Note_on_c, 0, 80, 90
2,42025, Note_on_c, 0, 49, 83
2,42049, Note_on_c, 0, 81, 0
2,42058, Note_on_c, 0, 49, 0
2,42121, Note_on_c, 0, 78, 86
2,42127, Note_on_c, 0, 80, 0
2,42187, Note_on_c, 0, 78, 0
2,42217, Note_on_c, 0, 44, 82
2,42226, Note_on_c, 0, 76, 85
2,42254, Note_on_c, 0, 44, 0
2,42281, Note_on_c, 0, 76, 0
2,42323, Note_on_c, 0, 75, 86
2,42360, Note_on_c, 0, 52, 0
2,42411, Note_on_c, 0, 52, 65
2,42425, Note_on_c, 0, 45, 90
2,42426, Note_on_c, 0, 73, 94
2,42473, Control_c, 0, 64, 16
2,42478, Note_on_c, 0, 75, 0
2,42482, Note_on_c, 0, 45, 0
2,42488, Control_c, 0, 64, 41
2,42504, Control_c, 0, 64, 54
2,42504, Note_on_c, 0, 73, 0
2,42526, Control_c, 0, 64, 60
2,42540, Note_on_c, 0, 71, 88
2,42542, Control_c, 0, 64, 62
2,42556, Control_c, 0, 64, 63
2,42572, Control_c, 0, 64, 64
2,42604, Note_on_c, 0, 71, 0
2,42641, Note_on_c, 0, 64, 87
2,42641, Note_on_c, 0, 73, 84
2,42697, Note_on_c, 0, 52, 0
2,42701, Note_on_c, 0, 64, 0
2,42709, Control_c, 0, 64, 64
2,42742, Note_on_c, 0, 74, 83
2,42748, Note_on_c, 0, 40, 76
2,42749, Note_on_c, 0, 73, 0
2,42785, Control_c, 0, 64, 60
2,42794, Note_on_c, 0, 40, 0
2,42800, Control_c, 0, 64, 42
2,42816, Control_c, 0, 64, 0
2,42817, Note_on_c, 0, 74, 0
2,42843, Note_on_c, 0, 42, 89
2,42846, Note_on_c, 0, 69, 89
2,42849, Note_on_c, 0, 73, 91
2,42937, Control_c, 0, 64, 39
2,42950, Note_on_c, 0, 71, 88
2,42952, Control_c, 0, 64, 48
2,42959, Note_on_c, 0, 73, 0
2,42966, Control_c, 0, 64, 55
2,42982, Control_c, 0, 64, 58
2,42997, Control_c, 0, 64, 59
2,43013, Control_c, 0, 64, 60
2,43021, Note_on_c, 0, 42, 0
2,43021, Note_on_c, 0, 69, 0
2,43047, Note_on_c, 0, 71, 0
2,43057, Note_on_c, 0, 73, 93
2,43059, Note_on_c, 0, 37, 81
2,43134, Control_c, 0, 64, 59
2,43136, Note_on_c, 0, 37, 0
2,43149, Control_c, 0, 64, 58
2,43155, Note_on_c, 0, 74, 86
2,43158, Note_on_c, 0, 69, 45
2,43161, Note_on_c, 0, 73, 0
2,43164, Control_c, 0, 64, 57
2,43180, Control_c, 0, 64, 53
2,43188, Note_on_c, 0, 69, 0
2,43195, Control_c, 0, 64, 45
2,43211, Control_c, 0, 64, 19
2,43226, Control_c, 0, 64, 0
2,43256, Note_on_c, 0, 74, 0
2,43268, Note_on_c, 0, 39, 84
2,43271, Note_on_c, 0, 71, 96
2,43308, Note_on_c, 0, 39, 0
2,43323, Note_on_c, 0, 71, 0
2,43382, Note_on_c, 0, 73, 90
2,43439, Note_on_c, 0, 73, 0
2,43481, Note_on_c, 0, 75, 92
2,43486, Note_on_c, 0, 59, 82
2,43510, Note_on_c, 0, 59, 0
2,43520, Note_on_c, 0, 75, 0
2,43590, Note_on_c, 0, 71, 93
2,43670, Note_on_c, 0, 71, 0
2,43703, Note_on_c, 0, 61, 92
2,43704, Note_on_c, 0, 76, 92
2,43707, Control_c, 0, 64, 55
2,43719, Note_on_c, 0, 68, 85
2,43738, Control_c, 0, 64, 57
2,43752, Control_c, 0, 64, 61
2,43752, Note_on_c, 0, 61, 0
2,43768, Control_c, 0, 64, 65
2,43783, Control_c, 0, 64, 71
2,43786, Note_on_c, 0, 68, 0
2,43799, Control_c, 0, 64, 78
2,43814, Control_c, 0, 64, 86
2,43814, Note_on_c, 0, 64, 84
2,43820, Note_on_c, 0, 76, 0
2,43829, Control_c, 0, 64, 89
2,43859, Control_c, 0, 64, 90
2,43921, Note_on_c, 0, 66, 90
2,43923, Note_on_c, 0, 64, 0
2,44021, Note_on_c, 0, 68, 90
2,44037, Note_on_c, 0, 66, 0
2,44085, Note_on_c, 0, 68, 0
2,44129, Note_on_c, 0, 69, 88
2,44142, Control_c, 0, 64, 89
2,44158, Control_c, 0, 64, 88
2,44173, Control_c, 0, 64, 84
2,44188, Control_c, 0, 64, 77
2,44203, Control_c, 0, 64, 69
2,44210, Note_on_c, 0, 69, 0
2,44218, Control_c, 0, 64, 59
2,44226, Note_on_c, 0, 71, 94
2,44231, Note_on_c, 0, 54, 83
2,44233, Control_c, 0, 64, 0
2,44302, Note_on_c, 0, 54, 0
2,44304, Note_on_c, 0, 71, 0
2,44336, Note_on_c, 0, 56, 88
2,44339, Note_on_c, 0, 73, 90
2,44453, Note_on_c, 0, 57, 92
2,44468, Note_on_c, 0, 56, 0
2,44517, Note_on_c, 0, 57, 0
2,44582, Note_on_c, 0, 75, 97
2,44587, Note_on_c, 0, 59, 84
2,44610, Note_on_c, 0, 73, 0
2,44731, Note_on_c, 0, 73, 89
2,44734, Control_c, 0, 64, 40
2,44749, Control_c, 0, 64, 53
2,44765, Control_c, 0, 64, 60
2,44780, Control_c, 0, 64, 65
2,44795, Control_c, 0, 64, 70
2,44811, Control_c, 0, 64, 78
2,44834, Control_c, 0, 64, 93
2,44840, Note_on_c, 0, 59, 0
2,44850, Control_c, 0, 64, 127
2,44895, Note_on_c, 0, 71, 98
2,44897, Note_on_c, 0, 47, 68
2,44939, Note_on_c, 0, 47, 0
2,44963, Note_on_c, 0, 73, 0
2,45037, Note_on_c, 0, 75, 0
2,45057, Note_on_c, 0, 69, 90
2,45081, Note_on_c, 0, 71, 0
2,45470, Note_on_c, 0, 76, 85
2,45473, Note_on_c, 0, 68, 80
2,45476, Note_on_c, 0, 69, 0
2,45488, Note_on_c, 0, 40, 60
2,45535, Control_c, 0, 64, 94
2,45551, Control_c, 0, 64, 76
2,45566, Control_c, 0, 64, 63
2,45580, Control_c, 0, 64, 23
2,45604, Control_c, 0, 64, 0
2,46014, Control_c, 0, 64, 21
2,46030, Control_c, 0, 64, 34
2,46045, Control_c, 0, 64, 43
2,46060, Control_c, 0, 64, 50
2,46076, Control_c, 0, 64, 57
2,46091, Control_c, 0, 64, 61
2,46105, Control_c, 0, 64, 63
2,46121, Control_c, 0, 64, 65
2,46136, Control_c, 0, 64, 68
2,46152, Control_c, 0, 64, 73
2,46167, Control_c, 0, 64, 80
2,46182, Control_c, 0, 64, 89
2,46198, Control_c, 0, 64, 99
2,46212, Control_c, 0, 64, 124
2,46227, Control_c, 0, 64, 127
2,46597, Note_on_c, 0, 76, 0
2,46677, Note_on_c, 0, 68, 0
2,46686, Note_on_c, 0, 40, 0
2,47155, Control_c, 0, 64, 110
2,47170, Control_c, 0, 64, 100
2,47185, Control_c, 0, 64, 93
2,47201, Control_c, 0, 64, 87
2,47216, Control_c, 0, 64, 80
2,47232, Control_c, 0, 64, 74
2,47247, Control_c, 0, 64, 68
2,47262, Control_c, 0, 64, 63
2,47277, Control_c, 0, 64, 54
2,47293, Control_c, 0, 64, 34
2,47308, Control_c, 0, 64, 0
2,47309, End_track
0, 0, End_of_file
