0, 0, Header, 1, 2, 384
1, 0, Start_track
1, 0, Tempo, 500000
1, 0, Time_signature, 4, 2, 24, 8
1, 1, End_track
2, 0, Start_track
2, 0, Program_c, 0, 0
2, 0, Control_c, 0, 64, 66
2, 25, Control_c, 0, 64, 65
2, 78, Control_c, 0, 64, 65
2, 108, Control_c, 0, 64, 64
2, 138, Control_c, 0, 64, 64
2, 154, Control_c, 0, 64, 63
2, 169, Control_c, 0, 64, 63
2, 185, Control_c, 0, 64, 61
2, 200, Control_c, 0, 64, 58
2, 214, Control_c, 0, 64, 53
2, 230, Control_c, 0, 64, 43
2, 245, Control_c, 0, 64, 30
2, 261, Control_c, 0, 64, 0
2, 768, Note_on_c, 0, 52, 44
2, 772, Note_on_c, 0, 64, 48
2, 1014, Note_on_c, 0, 68, 61
2, 1215, Note_on_c, 0, 71, 67
2, 1293, Note_on_c, 0, 64, 0
2, 1441, Note_on_c, 0, 56, 50
2, 1441, Note_on_c, 0, 68, 0
2, 1441, Note_on_c, 0, 76, 68
2, 1481, Note_on_c, 0, 71, 0
2, 1664, Note_on_c, 0, 75, 70
2, 1729, Note_on_c, 0, 76, 0
2, 1871, Note_on_c, 0, 76, 71
2, 1908, Note_on_c, 0, 75, 0
2, 2076, Note_on_c, 0, 76, 0
2, 2083, Note_on_c, 0, 75, 65
2, 2092, Note_on_c, 0, 57, 48
2, 2141, Note_on_c, 0, 75, 0
2, 2144, Note_on_c, 0, 56, 0
2, 2149, Note_on_c, 0, 73, 67
2, 2185, Note_on_c, 0, 73, 0
2, 2196, Note_on_c, 0, 75, 56
2, 2252, Note_on_c, 0, 73, 71
2, 2256, Note_on_c, 0, 75, 0
2, 2328, Note_on_c, 0, 71, 74
2, 2346, Note_on_c, 0, 73, 0
2, 2542, Note_on_c, 0, 73, 77
2, 2679, Note_on_c, 0, 71, 0
2, 2762, Note_on_c, 0, 76, 73
2, 2878, Note_on_c, 0, 73, 0
2, 2983, Note_on_c, 0, 56, 42
2, 3193, Note_on_c, 0, 57, 0
2, 3204, Note_on_c, 0, 54, 58
2, 3274, Note_on_c, 0, 56, 0
2, 3355, Note_on_c, 0, 76, 0
2, 3401, Note_on_c, 0, 73, 52
2, 3416, Note_on_c, 0, 56, 52
2, 3445, Note_on_c, 0, 73, 0
2, 3464, Note_on_c, 0, 71, 59
2, 3495, Note_on_c, 0, 54, 0
2, 3503, Note_on_c, 0, 71, 0
2, 3523, Note_on_c, 0, 73, 50
2, 3565, Note_on_c, 0, 71, 63
2, 3573, Note_on_c, 0, 73, 0
2, 3644, Note_on_c, 0, 69, 68
2, 3646, Note_on_c, 0, 71, 0
2, 3868, Note_on_c, 0, 71, 66
2, 3952, Note_on_c, 0, 69, 0
2, 4099, Note_on_c, 0, 76, 62
2, 4200, Note_on_c, 0, 71, 0
2, 4330, Note_on_c, 0, 57, 48
2, 4392, Note_on_c, 0, 56, 0
2, 4539, Note_on_c, 0, 56, 53
2, 4720, Note_on_c, 0, 57, 0
2, 4755, Note_on_c, 0, 76, 0
2, 4770, Note_on_c, 0, 69, 49
2, 4776, Note_on_c, 0, 54, 48
2, 4891, Note_on_c, 0, 56, 0
2, 5001, Note_on_c, 0, 71, 60
2, 5089, Note_on_c, 0, 69, 0
2, 5216, Note_on_c, 0, 73, 69
2, 5279, Note_on_c, 0, 71, 0
2, 5421, Note_on_c, 0, 51, 42
2, 5445, Note_on_c, 0, 71, 67
2, 5488, Note_on_c, 0, 73, 0
2, 5515, Note_on_c, 0, 52, 0
2, 5621, Control_c, 0, 64, 26
2, 5636, Control_c, 0, 64, 52
2, 5650, Control_c, 0, 64, 63
2, 5650, Note_on_c, 0, 73, 66
2, 5666, Control_c, 0, 64, 70
2, 5681, Control_c, 0, 64, 83
2, 5690, Note_on_c, 0, 71, 0
2, 5695, Control_c, 0, 64, 111
2, 5711, Control_c, 0, 64, 127
2, 5736, Note_on_c, 0, 51, 0
2, 5813, Note_on_c, 0, 54, 0
2, 5870, Note_on_c, 0, 69, 76
2, 5911, Note_on_c, 0, 73, 0
2, 5938, Control_c, 0, 64, 114
2, 5954, Control_c, 0, 64, 103
2, 5969, Control_c, 0, 64, 96
2, 5984, Control_c, 0, 64, 90
2, 6000, Control_c, 0, 64, 84
2, 6015, Control_c, 0, 64, 79
2, 6031, Control_c, 0, 64, 74
2, 6046, Control_c, 0, 64, 70
2, 6062, Control_c, 0, 64, 67
2, 6076, Control_c, 0, 64, 66
2, 6082, Note_on_c, 0, 52, 42
2, 6083, Note_on_c, 0, 68, 69
2, 6091, Control_c, 0, 64, 65
2, 6107, Control_c, 0, 64, 64
2, 6118, Note_on_c, 0, 69, 0
2, 6122, Control_c, 0, 64, 62
2, 6136, Control_c, 0, 64, 61
2, 6152, Control_c, 0, 64, 59
2, 6167, Control_c, 0, 64, 58
2, 6183, Control_c, 0, 64, 56
2, 6205, Control_c, 0, 64, 54
2, 6221, Control_c, 0, 64, 53
2, 6236, Control_c, 0, 64, 52
2, 6251, Control_c, 0, 64, 50
2, 6267, Control_c, 0, 64, 49
2, 6281, Control_c, 0, 64, 47
2, 6296, Control_c, 0, 64, 44
2, 6311, Note_on_c, 0, 71, 75
2, 6312, Control_c, 0, 64, 42
2, 6313, Note_on_c, 0, 56, 48
2, 6327, Control_c, 0, 64, 39
2, 6329, Note_on_c, 0, 68, 0
2, 6342, Control_c, 0, 64, 34
2, 6357, Control_c, 0, 64, 30
2, 6372, Control_c, 0, 64, 25
2, 6388, Control_c, 0, 64, 23
2, 6403, Control_c, 0, 64, 22
2, 6418, Control_c, 0, 64, 20
2, 6434, Control_c, 0, 64, 19
2, 6449, Control_c, 0, 64, 18
2, 6464, Control_c, 0, 64, 17
2, 6479, Control_c, 0, 64, 15
2, 6494, Control_c, 0, 64, 12
2, 6510, Control_c, 0, 64, 10
2, 6515, Note_on_c, 0, 59, 58
2, 6519, Note_on_c, 0, 52, 0
2, 6522, Note_on_c, 0, 76, 77
2, 6555, Control_c, 0, 64, 8
2, 6586, Control_c, 0, 64, 0
2, 6591, Note_on_c, 0, 71, 0
2, 6631, Note_on_c, 0, 56, 0
2, 6741, Note_on_c, 0, 80, 82
2, 6749, Note_on_c, 0, 64, 53
2, 6803, Note_on_c, 0, 59, 0
2, 6875, Note_on_c, 0, 76, 0
2, 6974, Note_on_c, 0, 63, 70
2, 7073, Note_on_c, 0, 64, 0
2, 7184, Note_on_c, 0, 64, 76
2, 7319, Note_on_c, 0, 63, 0
2, 7407, Note_on_c, 0, 58, 65
2, 7564, Note_on_c, 0, 64, 0
2, 7634, Note_on_c, 0, 78, 70
2, 7688, Note_on_c, 0, 80, 0
2, 7855, Note_on_c, 0, 61, 56
2, 7855, Note_on_c, 0, 76, 74
2, 7887, Note_on_c, 0, 78, 0
2, 7960, Note_on_c, 0, 61, 0
2, 8078, Note_on_c, 0, 76, 0
2, 8080, Note_on_c, 0, 66, 69
2, 8091, Note_on_c, 0, 75, 65
2, 8297, Note_on_c, 0, 76, 73
2, 8305, Control_c, 0, 64, 34
2, 8307, Note_on_c, 0, 75, 0
2, 8320, Control_c, 0, 64, 58
2, 8332, Note_on_c, 0, 66, 0
2, 8335, Control_c, 0, 64, 69
2, 8350, Control_c, 0, 64, 85
2, 8365, Control_c, 0, 64, 127
2, 8419, Note_on_c, 0, 58, 0
2, 8529, Note_on_c, 0, 73, 79
2, 8583, Note_on_c, 0, 76, 0
2, 8637, Note_on_c, 0, 73, 0
2, 8742, Note_on_c, 0, 47, 49
2, 8762, Note_on_c, 0, 73, 63
2, 8769, Control_c, 0, 64, 116
2, 8784, Control_c, 0, 64, 106
2, 8799, Control_c, 0, 64, 100
2, 8814, Control_c, 0, 64, 95
2, 8830, Control_c, 0, 64, 91
2, 8842, Note_on_c, 0, 73, 0
2, 8844, Control_c, 0, 64, 86
2, 8846, Note_on_c, 0, 75, 62
2, 8858, Control_c, 0, 64, 81
2, 8874, Control_c, 0, 64, 76
2, 8889, Control_c, 0, 64, 72
2, 8905, Control_c, 0, 64, 70
2, 8911, Note_on_c, 0, 75, 0
2, 8920, Control_c, 0, 64, 67
2, 8925, Note_on_c, 0, 76, 62
2, 8934, Control_c, 0, 64, 66
2, 8950, Control_c, 0, 64, 64
2, 8950, Note_on_c, 0, 51, 53
2, 8965, Control_c, 0, 64, 62
2, 8981, Control_c, 0, 64, 61
2, 8990, Note_on_c, 0, 76, 0
2, 8996, Control_c, 0, 64, 60
2, 9006, Note_on_c, 0, 75, 66
2, 9011, Control_c, 0, 64, 57
2, 9026, Control_c, 0, 64, 55
2, 9041, Control_c, 0, 64, 53
2, 9044, Note_on_c, 0, 75, 0
2, 9052, Note_on_c, 0, 47, 0
2, 9056, Control_c, 0, 64, 50
2, 9058, Note_on_c, 0, 76, 59
2, 9072, Control_c, 0, 64, 46
2, 9087, Control_c, 0, 64, 40
2, 9103, Control_c, 0, 64, 32
2, 9110, Note_on_c, 0, 76, 0
2, 9114, Note_on_c, 0, 75, 65
2, 9118, Control_c, 0, 64, 28
2, 9133, Control_c, 0, 64, 25
2, 9148, Control_c, 0, 64, 20
2, 9158, Note_on_c, 0, 75, 0
2, 9158, Note_on_c, 0, 76, 58
2, 9163, Control_c, 0, 64, 14
2, 9167, Note_on_c, 0, 54, 54
2, 9178, Control_c, 0, 64, 8
2, 9193, Control_c, 0, 64, 0
2, 9224, Note_on_c, 0, 51, 0
2, 9226, Note_on_c, 0, 75, 75
2, 9250, Note_on_c, 0, 76, 0
2, 9404, Note_on_c, 0, 59, 65
2, 9486, Note_on_c, 0, 54, 0
2, 9623, Note_on_c, 0, 58, 68
2, 9718, Note_on_c, 0, 59, 0
2, 9831, Note_on_c, 0, 59, 66
2, 9969, Note_on_c, 0, 58, 0
2, 10066, Note_on_c, 0, 52, 65
2, 10231, Note_on_c, 0, 59, 0
2, 10249, Note_on_c, 0, 75, 0
2, 10293, Note_on_c, 0, 76, 70
2, 10506, Note_on_c, 0, 59, 56
2, 10506, Note_on_c, 0, 78, 81
2, 10606, Note_on_c, 0, 76, 0
2, 10637, Note_on_c, 0, 59, 0
2, 10752, Note_on_c, 0, 80, 80
2, 10753, Note_on_c, 0, 64, 66
2, 10825, Note_on_c, 0, 78, 0
2, 10992, Note_on_c, 0, 73, 83
2, 11011, Control_c, 0, 64, 28
2, 11027, Control_c, 0, 64, 46
2, 11042, Control_c, 0, 64, 53
2, 11057, Control_c, 0, 64, 62
2, 11072, Control_c, 0, 64, 69
2, 11087, Control_c, 0, 64, 82
2, 11087, Note_on_c, 0, 52, 0
2, 11089, Note_on_c, 0, 80, 0
2, 11103, Control_c, 0, 64, 127
2, 11206, Note_on_c, 0, 76, 82
2, 11253, Note_on_c, 0, 73, 0
2, 11438, Control_c, 0, 64, 112
2, 11452, Control_c, 0, 64, 105
2, 11453, Note_on_c, 0, 54, 66
2, 11456, Note_on_c, 0, 66, 69
2, 11468, Control_c, 0, 64, 99
2, 11483, Control_c, 0, 64, 94
2, 11498, Control_c, 0, 64, 89
2, 11514, Control_c, 0, 64, 85
2, 11528, Control_c, 0, 64, 81
2, 11544, Control_c, 0, 64, 76
2, 11559, Control_c, 0, 64, 71
2, 11566, Note_on_c, 0, 76, 0
2, 11582, Control_c, 0, 64, 68
2, 11597, Control_c, 0, 64, 65
2, 11612, Control_c, 0, 64, 64
2, 11628, Control_c, 0, 64, 63
2, 11643, Control_c, 0, 64, 63
2, 11657, Control_c, 0, 64, 62
2, 11673, Control_c, 0, 64, 60
2, 11686, Note_on_c, 0, 70, 76
2, 11688, Control_c, 0, 64, 58
2, 11704, Control_c, 0, 64, 55
2, 11719, Control_c, 0, 64, 54
2, 11735, Control_c, 0, 64, 52
2, 11750, Control_c, 0, 64, 51
2, 11765, Control_c, 0, 64, 49
2, 11781, Control_c, 0, 64, 46
2, 11796, Control_c, 0, 64, 43
2, 11811, Control_c, 0, 64, 41
2, 11827, Control_c, 0, 64, 39
2, 11841, Control_c, 0, 64, 37
2, 11843, Note_on_c, 0, 66, 0
2, 11856, Control_c, 0, 64, 34
2, 11872, Control_c, 0, 64, 30
2, 11886, Control_c, 0, 64, 28
2, 11897, Note_on_c, 0, 73, 77
2, 11902, Control_c, 0, 64, 27
2, 11917, Control_c, 0, 64, 26
2, 11932, Control_c, 0, 64, 24
2, 11948, Control_c, 0, 64, 22
2, 11962, Control_c, 0, 64, 19
2, 11977, Control_c, 0, 64, 18
2, 11993, Control_c, 0, 64, 17
2, 12024, Control_c, 0, 64, 16
2, 12038, Control_c, 0, 64, 15
2, 12064, Note_on_c, 0, 70, 0
2, 12069, Control_c, 0, 64, 14
2, 12098, Control_c, 0, 64, 12
2, 12129, Control_c, 0, 64, 10
2, 12129, Note_on_c, 0, 78, 70
2, 12135, Note_on_c, 0, 63, 70
2, 12160, Control_c, 0, 64, 8
2, 12175, Control_c, 0, 64, 0
2, 12186, Note_on_c, 0, 73, 0
2, 12360, Note_on_c, 0, 76, 73
2, 12374, Note_on_c, 0, 64, 0
2, 12430, Note_on_c, 0, 78, 0
2, 12583, Note_on_c, 0, 78, 77
2, 12674, Note_on_c, 0, 76, 0
2, 12784, Note_on_c, 0, 68, 69
2, 12876, Note_on_c, 0, 78, 0
2, 13004, Note_on_c, 0, 71, 71
2, 13099, Note_on_c, 0, 68, 0
2, 13237, Note_on_c, 0, 75, 71
2, 13436, Note_on_c, 0, 71, 0
2, 13468, Note_on_c, 0, 76, 63
2, 13574, Note_on_c, 0, 75, 0
2, 13697, Note_on_c, 0, 61, 50
2, 13780, Note_on_c, 0, 63, 0
2, 13916, Note_on_c, 0, 59, 60
2, 13985, Note_on_c, 0, 61, 0
2, 14147, Note_on_c, 0, 58, 50
2, 14150, Note_on_c, 0, 66, 53
2, 14228, Note_on_c, 0, 76, 0
2, 14285, Note_on_c, 0, 59, 0
2, 14384, Note_on_c, 0, 70, 55
2, 14500, Note_on_c, 0, 66, 0
2, 14591, Note_on_c, 0, 73, 64
2, 14685, Note_on_c, 0, 70, 0
2, 14817, Note_on_c, 0, 76, 59
2, 14849, Note_on_c, 0, 73, 0
2, 15033, Note_on_c, 0, 75, 60
2, 15106, Note_on_c, 0, 76, 0
2, 15171, Note_on_c, 0, 54, 0
2, 15243, Note_on_c, 0, 49, 40
2, 15246, Note_on_c, 0, 76, 54
2, 15268, Note_on_c, 0, 75, 0
2, 15431, Note_on_c, 0, 49, 0
2, 15495, Note_on_c, 0, 50, 43
2, 15500, Note_on_c, 0, 66, 35
2, 15508, Note_on_c, 0, 76, 0
2, 15729, Note_on_c, 0, 70, 50
2, 15872, Note_on_c, 0, 66, 0
2, 15946, Note_on_c, 0, 73, 57
2, 16041, Note_on_c, 0, 70, 0
2, 16174, Note_on_c, 0, 74, 52
2, 16189, Note_on_c, 0, 59, 42
2, 16281, Note_on_c, 0, 73, 0
2, 16328, Note_on_c, 0, 58, 0
2, 16406, Note_on_c, 0, 52, 43
2, 16432, Control_c, 0, 64, 8
2, 16535, Note_on_c, 0, 50, 0
2, 16622, Note_on_c, 0, 54, 57
2, 16663, Note_on_c, 0, 52, 0
2, 16847, Note_on_c, 0, 55, 50
2, 16864, Note_on_c, 0, 54, 0
2, 17081, Note_on_c, 0, 76, 52
2, 17083, Note_on_c, 0, 61, 46
2, 17110, Note_on_c, 0, 74, 0
2, 17297, Note_on_c, 0, 74, 62
2, 17299, Note_on_c, 0, 62, 58
2, 17309, Note_on_c, 0, 59, 0
2, 17384, Note_on_c, 0, 76, 0
2, 17413, Note_on_c, 0, 61, 0
2, 17521, Note_on_c, 0, 64, 70
2, 17529, Note_on_c, 0, 73, 65
2, 17589, Note_on_c, 0, 74, 0
2, 17657, Control_c, 0, 64, 17
2, 17663, Note_on_c, 0, 62, 0
2, 17672, Control_c, 0, 64, 24
2, 17687, Control_c, 0, 64, 31
2, 17703, Control_c, 0, 64, 39
2, 17724, Control_c, 0, 64, 44
2, 17739, Control_c, 0, 64, 49
2, 17748, Note_on_c, 0, 74, 68
2, 17755, Control_c, 0, 64, 53
2, 17770, Control_c, 0, 64, 57
2, 17785, Note_on_c, 0, 73, 0
2, 17786, Control_c, 0, 64, 63
2, 17801, Control_c, 0, 64, 68
2, 17816, Control_c, 0, 64, 79
2, 17831, Control_c, 0, 64, 106
2, 17846, Control_c, 0, 64, 127
2, 17851, Note_on_c, 0, 55, 0
2, 17963, Note_on_c, 0, 71, 72
2, 17976, Note_on_c, 0, 74, 0
2, 18054, Note_on_c, 0, 71, 0
2, 18169, Note_on_c, 0, 71, 56
2, 18176, Note_on_c, 0, 54, 49
2, 18201, Note_on_c, 0, 71, 0
2, 18217, Note_on_c, 0, 70, 59
2, 18262, Note_on_c, 0, 70, 0
2, 18272, Control_c, 0, 64, 108
2, 18281, Note_on_c, 0, 71, 63
2, 18288, Control_c, 0, 64, 101
2, 18303, Control_c, 0, 64, 97
2, 18318, Control_c, 0, 64, 93
2, 18323, Note_on_c, 0, 70, 67
2, 18333, Control_c, 0, 64, 89
2, 18349, Control_c, 0, 64, 85
2, 18363, Control_c, 0, 64, 81
2, 18366, Note_on_c, 0, 71, 0
2, 18378, Control_c, 0, 64, 77
2, 18394, Control_c, 0, 64, 74
2, 18409, Control_c, 0, 64, 71
2, 18410, Note_on_c, 0, 68, 81
2, 18425, Control_c, 0, 64, 69
2, 18440, Control_c, 0, 64, 67
2, 18455, Control_c, 0, 64, 65
2, 18470, Control_c, 0, 64, 63
2, 18476, Note_on_c, 0, 70, 0
2, 18492, Control_c, 0, 64, 62
2, 18508, Control_c, 0, 64, 61
2, 18523, Control_c, 0, 64, 60
2, 18538, Control_c, 0, 64, 59
2, 18554, Control_c, 0, 64, 59
2, 18568, Control_c, 0, 64, 57
2, 18584, Control_c, 0, 64, 56
2, 18599, Control_c, 0, 64, 54
2, 18614, Control_c, 0, 64, 52
2, 18630, Control_c, 0, 64, 51
2, 18644, Control_c, 0, 64, 51
2, 18655, Note_on_c, 0, 66, 78
2, 18659, Control_c, 0, 64, 50
2, 18675, Control_c, 0, 64, 48
2, 18690, Control_c, 0, 64, 47
2, 18706, Control_c, 0, 64, 45
2, 18721, Control_c, 0, 64, 44
2, 18736, Control_c, 0, 64, 43
2, 18752, Control_c, 0, 64, 42
2, 18767, Control_c, 0, 64, 41
2, 18778, Note_on_c, 0, 68, 0
2, 18782, Control_c, 0, 64, 41
2, 18797, Control_c, 0, 64, 40
2, 18812, Control_c, 0, 64, 40
2, 18843, Control_c, 0, 64, 39
2, 18951, Note_on_c, 0, 79, 72
2, 19009, Control_c, 0, 64, 39
2, 19187, Note_on_c, 0, 56, 44
2, 19189, Note_on_c, 0, 63, 52
2, 19190, Note_on_c, 0, 78, 80
2, 19262, Note_on_c, 0, 66, 0
2, 19273, Note_on_c, 0, 79, 0
2, 19297, Note_on_c, 0, 54, 0
2, 19306, Note_on_c, 0, 64, 0
2, 19417, Note_on_c, 0, 58, 62
2, 19420, Note_on_c, 0, 61, 67
2, 19422, Note_on_c, 0, 77, 79
2, 19458, Note_on_c, 0, 78, 0
2, 19474, Control_c, 0, 64, 38
2, 19479, Note_on_c, 0, 63, 0
2, 19503, Note_on_c, 0, 56, 0
2, 19580, Control_c, 0, 64, 38
2, 19629, Note_on_c, 0, 59, 73
2, 19641, Control_c, 0, 64, 37
2, 19641, Note_on_c, 0, 76, 71
2, 19656, Control_c, 0, 64, 37
2, 19672, Control_c, 0, 64, 36
2, 19702, Control_c, 0, 64, 36
2, 19717, Control_c, 0, 64, 35
2, 19726, Note_on_c, 0, 77, 0
2, 19745, Note_on_c, 0, 58, 0
2, 19747, Control_c, 0, 64, 34
2, 19777, Control_c, 0, 64, 34
2, 19793, Control_c, 0, 64, 33
2, 19808, Control_c, 0, 64, 33
2, 19823, Control_c, 0, 64, 31
2, 19831, Note_on_c, 0, 61, 0
2, 19838, Control_c, 0, 64, 31
2, 19853, Control_c, 0, 64, 30
2, 19853, Note_on_c, 0, 75, 78
2, 19868, Control_c, 0, 64, 29
2, 19883, Control_c, 0, 64, 28
2, 19898, Control_c, 0, 64, 28
2, 19914, Control_c, 0, 64, 27
2, 19930, Control_c, 0, 64, 26
2, 19943, Note_on_c, 0, 76, 0
2, 19961, Control_c, 0, 64, 25
2, 19975, Control_c, 0, 64, 24
2, 19991, Control_c, 0, 64, 22
2, 20006, Control_c, 0, 64, 20
2, 20030, Control_c, 0, 64, 18
2, 20045, Control_c, 0, 64, 16
2, 20059, Control_c, 0, 64, 14
2, 20075, Control_c, 0, 64, 10
2, 20075, Note_on_c, 0, 53, 57
2, 20078, Note_on_c, 0, 74, 75
2, 20090, Control_c, 0, 64, 0
2, 20130, Note_on_c, 0, 75, 0
2, 20306, Note_on_c, 0, 54, 57
2, 20318, Note_on_c, 0, 73, 67
2, 20321, Note_on_c, 0, 53, 0
2, 20345, Note_on_c, 0, 74, 0
2, 20420, Note_on_c, 0, 75, 70
2, 20454, Note_on_c, 0, 73, 0
2, 20535, Note_on_c, 0, 58, 41
2, 20539, Note_on_c, 0, 76, 70
2, 20566, Note_on_c, 0, 59, 0
2, 20583, Note_on_c, 0, 75, 0
2, 20712, Control_c, 0, 64, 32
2, 20727, Control_c, 0, 64, 49
2, 20745, Control_c, 0, 64, 61
2, 20751, Note_on_c, 0, 58, 0
2, 20760, Control_c, 0, 64, 68
2, 20774, Control_c, 0, 64, 83
2, 20782, Note_on_c, 0, 70, 69
2, 20785, Note_on_c, 0, 54, 0
2, 20785, Note_on_c, 0, 64, 52
2, 20797, Control_c, 0, 64, 127
2, 20804, Note_on_c, 0, 76, 0
2, 20906, Note_on_c, 0, 70, 0
2, 21010, Control_c, 0, 64, 109
2, 21025, Control_c, 0, 64, 102
2, 21033, Note_on_c, 0, 47, 40
2, 21040, Control_c, 0, 64, 96
2, 21055, Control_c, 0, 64, 91
2, 21057, Note_on_c, 0, 71, 62
2, 21069, Note_on_c, 0, 63, 49
2, 21071, Control_c, 0, 64, 86
2, 21086, Control_c, 0, 64, 82
2, 21100, Control_c, 0, 64, 78
2, 21116, Control_c, 0, 64, 74
2, 21131, Control_c, 0, 64, 71
2, 21147, Control_c, 0, 64, 67
2, 21152, Note_on_c, 0, 64, 0
2, 21161, Control_c, 0, 64, 66
2, 21176, Control_c, 0, 64, 64
2, 21192, Control_c, 0, 64, 64
2, 21207, Control_c, 0, 64, 63
2, 21222, Control_c, 0, 64, 62
2, 21237, Control_c, 0, 64, 60
2, 21252, Control_c, 0, 64, 58
2, 21268, Control_c, 0, 64, 56
2, 21276, Note_on_c, 0, 51, 49
2, 21283, Control_c, 0, 64, 55
2, 21298, Control_c, 0, 64, 53
2, 21314, Control_c, 0, 64, 51
2, 21329, Control_c, 0, 64, 49
2, 21344, Control_c, 0, 64, 46
2, 21359, Control_c, 0, 64, 43
2, 21374, Control_c, 0, 64, 41
2, 21390, Control_c, 0, 64, 40
2, 21405, Control_c, 0, 64, 38
2, 21420, Control_c, 0, 64, 35
2, 21435, Control_c, 0, 64, 33
2, 21450, Control_c, 0, 64, 31
2, 21466, Control_c, 0, 64, 29
2, 21481, Control_c, 0, 64, 27
2, 21491, Note_on_c, 0, 54, 54
2, 21496, Control_c, 0, 64, 25
2, 21509, Note_on_c, 0, 47, 0
2, 21511, Control_c, 0, 64, 24
2, 21526, Control_c, 0, 64, 22
2, 21542, Control_c, 0, 64, 20
2, 21565, Control_c, 0, 64, 18
2, 21580, Control_c, 0, 64, 15
2, 21596, Control_c, 0, 64, 12
2, 21598, Note_on_c, 0, 51, 0
2, 21611, Control_c, 0, 64, 8
2, 21626, Control_c, 0, 64, 0
2, 21713, Note_on_c, 0, 59, 54
2, 21794, Note_on_c, 0, 54, 0
2, 21934, Note_on_c, 0, 57, 67
2, 22029, Note_on_c, 0, 59, 0
2, 22147, Note_on_c, 0, 59, 65
2, 22166, Note_on_c, 0, 63, 0
2, 22243, Note_on_c, 0, 57, 0
2, 22384, Note_on_c, 0, 56, 60
2, 22618, Note_on_c, 0, 75, 62
2, 22709, Note_on_c, 0, 59, 0
2, 22796, Note_on_c, 0, 71, 0
2, 22830, Note_on_c, 0, 78, 78
2, 22991, Note_on_c, 0, 75, 0
2, 23050, Note_on_c, 0, 83, 79
2, 23123, Note_on_c, 0, 78, 0
2, 23262, Note_on_c, 0, 54, 43
2, 23276, Note_on_c, 0, 81, 73
2, 23345, Control_c, 0, 64, 8
2, 23350, Note_on_c, 0, 56, 0
2, 23365, Note_on_c, 0, 83, 0
2, 23390, Control_c, 0, 64, 10
2, 23490, Note_on_c, 0, 56, 60
2, 23493, Note_on_c, 0, 83, 82
2, 23543, Control_c, 0, 64, 12
2, 23597, Note_on_c, 0, 81, 0
2, 23634, Note_on_c, 0, 54, 0
2, 23702, Note_on_c, 0, 53, 63
2, 23719, Note_on_c, 0, 73, 80
2, 23796, Note_on_c, 0, 56, 0
2, 23836, Note_on_c, 0, 83, 0
2, 23937, Note_on_c, 0, 56, 59
2, 23948, Note_on_c, 0, 77, 81
2, 24024, Note_on_c, 0, 73, 0
2, 24154, Note_on_c, 0, 59, 61
2, 24160, Note_on_c, 0, 80, 85
2, 24278, Note_on_c, 0, 56, 0
2, 24313, Note_on_c, 0, 77, 0
2, 24386, Note_on_c, 0, 83, 83
2, 24388, Note_on_c, 0, 62, 56
2, 24431, Control_c, 0, 64, 10
2, 24460, Control_c, 0, 64, 8
2, 24463, Note_on_c, 0, 80, 0
2, 24466, Note_on_c, 0, 59, 0
2, 24491, Control_c, 0, 64, 0
2, 24602, Note_on_c, 0, 59, 62
2, 24704, Note_on_c, 0, 62, 0
2, 24838, Note_on_c, 0, 61, 60
2, 24931, Note_on_c, 0, 59, 0
2, 25058, Note_on_c, 0, 54, 51
2, 25120, Note_on_c, 0, 53, 0
2, 25297, Note_on_c, 0, 80, 61
2, 25388, Note_on_c, 0, 83, 0
2, 25527, Note_on_c, 0, 81, 61
2, 25665, Note_on_c, 0, 80, 0
2, 25769, Note_on_c, 0, 59, 49
2, 25779, Note_on_c, 0, 50, 36
2, 25935, Note_on_c, 0, 54, 0
2, 26003, Note_on_c, 0, 78, 66
2, 26058, Note_on_c, 0, 61, 0
2, 26074, Note_on_c, 0, 81, 0
2, 26236, Note_on_c, 0, 80, 71
2, 26429, Note_on_c, 0, 78, 0
2, 26465, Note_on_c, 0, 60, 61
2, 26480, Note_on_c, 0, 51, 61
2, 26551, Note_on_c, 0, 50, 0
2, 26651, Note_on_c, 0, 59, 0
2, 26691, Note_on_c, 0, 77, 70
2, 26767, Note_on_c, 0, 80, 0
2, 26810, Control_c, 0, 64, 32
2, 26826, Control_c, 0, 64, 46
2, 26841, Control_c, 0, 64, 51
2, 26855, Control_c, 0, 64, 57
2, 26871, Control_c, 0, 64, 64
2, 26886, Control_c, 0, 64, 73
2, 26902, Control_c, 0, 64, 91
2, 26914, Note_on_c, 0, 78, 77
2, 26917, Control_c, 0, 64, 127
2, 26973, Note_on_c, 0, 60, 0
2, 26985, Note_on_c, 0, 77, 0
2, 27147, Note_on_c, 0, 77, 70
2, 27149, Note_on_c, 0, 49, 52
2, 27149, Note_on_c, 0, 78, 0
2, 27155, Note_on_c, 0, 61, 54
2, 27167, Control_c, 0, 64, 107
2, 27183, Control_c, 0, 64, 98
2, 27197, Control_c, 0, 64, 92
2, 27212, Control_c, 0, 64, 88
2, 27228, Control_c, 0, 64, 85
2, 27243, Control_c, 0, 64, 81
2, 27247, Note_on_c, 0, 51, 0
2, 27249, Note_on_c, 0, 78, 76
2, 27258, Control_c, 0, 64, 76
2, 27274, Control_c, 0, 64, 72
2, 27289, Control_c, 0, 64, 69
2, 27302, Note_on_c, 0, 77, 0
2, 27306, Control_c, 0, 64, 66
2, 27321, Control_c, 0, 64, 62
2, 27336, Control_c, 0, 64, 57
2, 27352, Control_c, 0, 64, 44
2, 27367, Control_c, 0, 64, 0
2, 27367, Note_on_c, 0, 80, 80
2, 27413, Note_on_c, 0, 78, 0
2, 27518, Control_c, 0, 64, 39
2, 27533, Control_c, 0, 64, 55
2, 27549, Control_c, 0, 64, 65
2, 27564, Control_c, 0, 64, 73
2, 27578, Control_c, 0, 64, 88
2, 27594, Control_c, 0, 64, 127
2, 27596, Note_on_c, 0, 49, 0
2, 27608, Note_on_c, 0, 73, 85
2, 27612, Note_on_c, 0, 61, 0
2, 27660, Note_on_c, 0, 80, 0
2, 27792, Note_on_c, 0, 73, 0
2, 27891, Note_on_c, 0, 47, 61
2, 27898, Note_on_c, 0, 74, 79
2, 27906, Control_c, 0, 64, 117
2, 27920, Control_c, 0, 64, 108
2, 27935, Control_c, 0, 64, 100
2, 27951, Control_c, 0, 64, 95
2, 27966, Control_c, 0, 64, 91
2, 27982, Control_c, 0, 64, 87
2, 27997, Control_c, 0, 64, 83
2, 28012, Control_c, 0, 64, 78
2, 28028, Control_c, 0, 64, 74
2, 28042, Control_c, 0, 64, 70
2, 28057, Control_c, 0, 64, 68
2, 28073, Control_c, 0, 64, 67
2, 28088, Control_c, 0, 64, 66
2, 28104, Control_c, 0, 64, 65
2, 28119, Control_c, 0, 64, 64
2, 28134, Control_c, 0, 64, 62
2, 28150, Control_c, 0, 64, 62
2, 28159, Note_on_c, 0, 71, 61
2, 28165, Control_c, 0, 64, 61
2, 28168, Note_on_c, 0, 50, 53
2, 28180, Control_c, 0, 64, 60
2, 28195, Control_c, 0, 64, 60
2, 28210, Control_c, 0, 64, 58
2, 28226, Control_c, 0, 64, 57
2, 28241, Control_c, 0, 64, 55
2, 28256, Control_c, 0, 64, 54
2, 28271, Control_c, 0, 64, 53
2, 28286, Control_c, 0, 64, 52
2, 28302, Control_c, 0, 64, 51
2, 28317, Control_c, 0, 64, 50
2, 28332, Control_c, 0, 64, 49
2, 28347, Control_c, 0, 64, 48
2, 28362, Control_c, 0, 64, 46
2, 28369, Note_on_c, 0, 68, 73
2, 28375, Note_on_c, 0, 53, 60
2, 28377, Control_c, 0, 64, 44
2, 28392, Control_c, 0, 64, 42
2, 28407, Control_c, 0, 64, 41
2, 28423, Control_c, 0, 64, 41
2, 28438, Control_c, 0, 64, 40
2, 28453, Control_c, 0, 64, 40
2, 28459, Note_on_c, 0, 71, 0
2, 28491, Control_c, 0, 64, 39
2, 28507, Control_c, 0, 64, 38
2, 28522, Control_c, 0, 64, 38
2, 28537, Control_c, 0, 64, 37
2, 28552, Control_c, 0, 64, 36
2, 28567, Control_c, 0, 64, 35
2, 28576, Note_on_c, 0, 50, 0
2, 28583, Control_c, 0, 64, 34
2, 28587, Note_on_c, 0, 56, 64
2, 28590, Note_on_c, 0, 65, 69
2, 28598, Control_c, 0, 64, 34
2, 28612, Control_c, 0, 64, 33
2, 28628, Control_c, 0, 64, 32
2, 28643, Control_c, 0, 64, 32
2, 28658, Control_c, 0, 64, 31
2, 28674, Control_c, 0, 64, 31
2, 28682, Note_on_c, 0, 68, 0
2, 28688, Control_c, 0, 64, 30
2, 28704, Note_on_c, 0, 53, 0
2, 28719, Control_c, 0, 64, 30
2, 28795, Control_c, 0, 64, 29
2, 28801, Note_on_c, 0, 68, 71
2, 28802, Note_on_c, 0, 59, 67
2, 28902, Note_on_c, 0, 56, 0
2, 29013, Note_on_c, 0, 57, 66
2, 29014, Note_on_c, 0, 66, 75
2, 29036, Note_on_c, 0, 65, 0
2, 29070, Note_on_c, 0, 68, 0
2, 29083, Note_on_c, 0, 47, 0
2, 29130, Note_on_c, 0, 59, 0
2, 29226, Note_on_c, 0, 59, 67
2, 29241, Note_on_c, 0, 68, 66
2, 29293, Note_on_c, 0, 66, 0
2, 29332, Note_on_c, 0, 57, 0
2, 29447, Note_on_c, 0, 71, 67
2, 29458, Note_on_c, 0, 56, 58
2, 29515, Note_on_c, 0, 68, 0
2, 29563, Control_c, 0, 64, 30
2, 29658, Note_on_c, 0, 59, 0
2, 29666, Note_on_c, 0, 69, 69
2, 29671, Note_on_c, 0, 54, 55
2, 29723, Note_on_c, 0, 56, 0
2, 29736, Note_on_c, 0, 71, 0
2, 29877, Note_on_c, 0, 71, 65
2, 29877, Note_on_c, 0, 74, 0
2, 29879, Note_on_c, 0, 56, 55
2, 29902, Note_on_c, 0, 54, 0
2, 29961, Note_on_c, 0, 69, 0
2, 29976, Note_on_c, 0, 57, 65
2, 29997, Note_on_c, 0, 56, 0
2, 30073, Control_c, 0, 64, 29
2, 30088, Control_c, 0, 64, 28
2, 30104, Control_c, 0, 64, 26
2, 30105, Note_on_c, 0, 59, 60
2, 30106, Note_on_c, 0, 74, 70
2, 30119, Control_c, 0, 64, 24
2, 30134, Control_c, 0, 64, 18
2, 30149, Control_c, 0, 64, 8
2, 30154, Note_on_c, 0, 57, 0
2, 30164, Control_c, 0, 64, 0
2, 30318, Note_on_c, 0, 53, 50
2, 30320, Note_on_c, 0, 73, 77
2, 30351, Note_on_c, 0, 74, 0
2, 30375, Control_c, 0, 64, 29
2, 30391, Control_c, 0, 64, 53
2, 30406, Control_c, 0, 64, 64
2, 30422, Control_c, 0, 64, 73
2, 30437, Control_c, 0, 64, 88
2, 30452, Control_c, 0, 64, 127
2, 30492, Note_on_c, 0, 73, 0
2, 30566, Note_on_c, 0, 54, 55
2, 30574, Control_c, 0, 64, 118
2, 30582, Note_on_c, 0, 73, 75
2, 30590, Control_c, 0, 64, 106
2, 30605, Control_c, 0, 64, 96
2, 30620, Control_c, 0, 64, 90
2, 30635, Control_c, 0, 64, 85
2, 30642, Note_on_c, 0, 53, 0
2, 30650, Control_c, 0, 64, 82
2, 30666, Control_c, 0, 64, 78
2, 30681, Control_c, 0, 64, 73
2, 30696, Control_c, 0, 64, 69
2, 30712, Control_c, 0, 64, 65
2, 30714, Note_on_c, 0, 59, 0
2, 30726, Control_c, 0, 64, 64
2, 30734, Note_on_c, 0, 71, 0
2, 30742, Control_c, 0, 64, 64
2, 30757, Control_c, 0, 64, 63
2, 30779, Control_c, 0, 64, 63
2, 30795, Control_c, 0, 64, 61
2, 30809, Control_c, 0, 64, 59
2, 30825, Control_c, 0, 64, 58
2, 30829, Note_on_c, 0, 69, 70
2, 30840, Control_c, 0, 64, 57
2, 30855, Control_c, 0, 64, 56
2, 30871, Control_c, 0, 64, 55
2, 30886, Control_c, 0, 64, 54
2, 30902, Control_c, 0, 64, 52
2, 30917, Control_c, 0, 64, 51
2, 30931, Control_c, 0, 64, 50
2, 30947, Control_c, 0, 64, 49
2, 30962, Control_c, 0, 64, 47
2, 30977, Control_c, 0, 64, 46
2, 30993, Control_c, 0, 64, 44
2, 31007, Control_c, 0, 64, 42
2, 31023, Control_c, 0, 64, 41
2, 31038, Control_c, 0, 64, 40
2, 31045, Note_on_c, 0, 68, 71
2, 31053, Control_c, 0, 64, 39
2, 31068, Control_c, 0, 64, 38
2, 31083, Control_c, 0, 64, 36
2, 31098, Control_c, 0, 64, 34
2, 31115, Control_c, 0, 64, 32
2, 31129, Note_on_c, 0, 69, 0
2, 31130, Control_c, 0, 64, 30
2, 31145, Control_c, 0, 64, 29
2, 31160, Control_c, 0, 64, 28
2, 31175, Control_c, 0, 64, 27
2, 31191, Control_c, 0, 64, 26
2, 31236, Control_c, 0, 64, 26
2, 31251, Control_c, 0, 64, 25
2, 31266, Control_c, 0, 64, 24
2, 31273, Note_on_c, 0, 66, 65
2, 31274, Note_on_c, 0, 45, 58
2, 31281, Control_c, 0, 64, 23
2, 31296, Control_c, 0, 64, 22
2, 31357, Control_c, 0, 64, 21
2, 31451, Note_on_c, 0, 68, 0
2, 31504, Note_on_c, 0, 71, 61
2, 31528, Note_on_c, 0, 54, 0
2, 31705, Note_on_c, 0, 73, 0
2, 31720, Note_on_c, 0, 69, 70
2, 31813, Note_on_c, 0, 71, 0
2, 31929, Note_on_c, 0, 68, 68
2, 31936, Note_on_c, 0, 47, 54
2, 32014, Note_on_c, 0, 69, 0
2, 32149, Note_on_c, 0, 45, 0
2, 32159, Note_on_c, 0, 69, 66
2, 32211, Note_on_c, 0, 68, 0
2, 32394, Note_on_c, 0, 71, 60
2, 32490, Note_on_c, 0, 69, 0
2, 32623, Note_on_c, 0, 49, 37
2, 32634, Note_on_c, 0, 65, 49
2, 32800, Note_on_c, 0, 47, 0
2, 32860, Note_on_c, 0, 69, 55
2, 32867, Note_on_c, 0, 66, 0
2, 32944, Note_on_c, 0, 71, 0
2, 33090, Note_on_c, 0, 68, 58
2, 33096, Note_on_c, 0, 69, 0
2, 33319, Note_on_c, 0, 66, 41
2, 33321, Note_on_c, 0, 42, 38
2, 33326, Note_on_c, 0, 69, 51
2, 33404, Note_on_c, 0, 68, 0
2, 33434, Note_on_c, 0, 65, 0
2, 33435, Note_on_c, 0, 49, 0
2, 33558, Note_on_c, 0, 45, 29
2, 33675, Note_on_c, 0, 42, 0
2, 33748, Note_on_c, 0, 49, 40
2, 33831, Note_on_c, 0, 45, 0
2, 33982, Note_on_c, 0, 54, 48
2, 34004, Note_on_c, 0, 49, 0
2, 34198, Note_on_c, 0, 71, 49
2, 34200, Note_on_c, 0, 52, 45
2, 34246, Note_on_c, 0, 54, 0
2, 34354, Note_on_c, 0, 69, 0
2, 34399, Note_on_c, 0, 54, 48
2, 34418, Note_on_c, 0, 68, 61
2, 34420, Note_on_c, 0, 64, 49
2, 34439, Note_on_c, 0, 71, 0
2, 34456, Note_on_c, 0, 52, 0
2, 34478, Note_on_c, 0, 66, 0
2, 34662, Note_on_c, 0, 47, 34
2, 34662, Note_on_c, 0, 69, 63
2, 34678, Note_on_c, 0, 63, 42
2, 34725, Note_on_c, 0, 68, 0
2, 34743, Note_on_c, 0, 64, 0
2, 34778, Note_on_c, 0, 54, 0
2, 34890, Note_on_c, 0, 51, 39
2, 34952, Note_on_c, 0, 47, 0
2, 35099, Note_on_c, 0, 54, 48
2, 35157, Note_on_c, 0, 51, 0
2, 35186, Note_on_c, 0, 63, 0
2, 35302, Note_on_c, 0, 59, 44
2, 35324, Note_on_c, 0, 54, 0
2, 35517, Note_on_c, 0, 69, 0
2, 35545, Note_on_c, 0, 57, 40
2, 35552, Note_on_c, 0, 71, 43
2, 35578, Note_on_c, 0, 59, 0
2, 35649, Note_on_c, 0, 69, 53
2, 35677, Note_on_c, 0, 71, 0
2, 35752, Note_on_c, 0, 68, 51
2, 35758, Note_on_c, 0, 59, 40
2, 35759, Note_on_c, 0, 57, 0
2, 35780, Note_on_c, 0, 69, 0
2, 35851, Note_on_c, 0, 66, 48
2, 35851, Note_on_c, 0, 68, 0
2, 35938, Note_on_c, 0, 66, 0
2, 35960, Note_on_c, 0, 68, 45
2, 35963, Note_on_c, 0, 52, 35
2, 36043, Note_on_c, 0, 59, 0
2, 36064, Note_on_c, 0, 66, 45
2, 36074, Note_on_c, 0, 68, 0
2, 36160, Note_on_c, 0, 66, 0
2, 36179, Note_on_c, 0, 64, 50
2, 36191, Note_on_c, 0, 56, 35
2, 36270, Note_on_c, 0, 64, 0
2, 36273, Note_on_c, 0, 66, 42
2, 36367, Note_on_c, 0, 52, 0
2, 36370, Note_on_c, 0, 59, 59
2, 36399, Note_on_c, 0, 68, 50
2, 36464, Note_on_c, 0, 68, 0
2, 36478, Note_on_c, 0, 69, 61
2, 36487, Note_on_c, 0, 66, 0
2, 36495, Note_on_c, 0, 56, 0
2, 36588, Note_on_c, 0, 64, 61
2, 36588, Note_on_c, 0, 69, 0
2, 36593, Note_on_c, 0, 71, 58
2, 36651, Note_on_c, 0, 59, 0
2, 36683, Note_on_c, 0, 71, 0
2, 36693, Note_on_c, 0, 69, 62
2, 36799, Note_on_c, 0, 62, 65
2, 36799, Note_on_c, 0, 68, 64
2, 36799, Note_on_c, 0, 69, 0
2, 36863, Note_on_c, 0, 64, 0
2, 36896, Note_on_c, 0, 69, 75
2, 36905, Note_on_c, 0, 68, 0
2, 37003, Note_on_c, 0, 61, 55
2, 37010, Note_on_c, 0, 71, 71
2, 37044, Note_on_c, 0, 69, 0
2, 37069, Note_on_c, 0, 62, 0
2, 37098, Note_on_c, 0, 73, 70
2, 37161, Note_on_c, 0, 71, 0
2, 37202, Note_on_c, 0, 59, 57
2, 37215, Note_on_c, 0, 74, 69
2, 37220, Note_on_c, 0, 73, 0
2, 37290, Note_on_c, 0, 61, 0
2, 37312, Note_on_c, 0, 73, 72
2, 37367, Note_on_c, 0, 74, 0
2, 37408, Note_on_c, 0, 71, 74
2, 37442, Note_on_c, 0, 73, 0
2, 37510, Note_on_c, 0, 69, 76
2, 37512, Note_on_c, 0, 71, 0
2, 37592, Control_c, 0, 64, 19
2, 37606, Control_c, 0, 64, 17
2, 37618, Note_on_c, 0, 68, 69
2, 37622, Control_c, 0, 64, 16
2, 37628, Note_on_c, 0, 57, 46
2, 37632, Note_on_c, 0, 69, 0
2, 37634, Note_on_c, 0, 59, 0
2, 37637, Control_c, 0, 64, 14
2, 37652, Control_c, 0, 64, 10
2, 37668, Control_c, 0, 64, 0
2, 37720, Note_on_c, 0, 66, 66
2, 37761, Note_on_c, 0, 68, 0
2, 37811, Note_on_c, 0, 57, 0
2, 37832, Note_on_c, 0, 56, 35
2, 37841, Note_on_c, 0, 64, 60
2, 37851, Note_on_c, 0, 66, 0
2, 37950, Note_on_c, 0, 62, 51
2, 37965, Control_c, 0, 64, 27
2, 37979, Control_c, 0, 64, 48
2, 37993, Note_on_c, 0, 56, 0
2, 37995, Control_c, 0, 64, 59
2, 38010, Control_c, 0, 64, 66
2, 38026, Control_c, 0, 64, 72
2, 38029, Note_on_c, 0, 64, 0
2, 38040, Note_on_c, 0, 62, 0
2, 38041, Control_c, 0, 64, 81
2, 38051, Note_on_c, 0, 61, 62
2, 38055, Control_c, 0, 64, 89
2, 38071, Control_c, 0, 64, 91
2, 38086, Control_c, 0, 64, 90
2, 38102, Control_c, 0, 64, 88
2, 38117, Control_c, 0, 64, 85
2, 38132, Control_c, 0, 64, 81
2, 38137, Note_on_c, 0, 61, 0
2, 38148, Control_c, 0, 64, 78
2, 38148, Note_on_c, 0, 59, 77
2, 38162, Control_c, 0, 64, 74
2, 38177, Control_c, 0, 64, 71
2, 38193, Control_c, 0, 64, 67
2, 38208, Control_c, 0, 64, 64
2, 38224, Control_c, 0, 64, 61
2, 38239, Control_c, 0, 64, 57
2, 38253, Control_c, 0, 64, 52
2, 38257, Note_on_c, 0, 57, 70
2, 38268, Note_on_c, 0, 59, 0
2, 38269, Control_c, 0, 64, 48
2, 38284, Control_c, 0, 64, 42
2, 38298, Control_c, 0, 64, 34
2, 38314, Control_c, 0, 64, 21
2, 38329, Control_c, 0, 64, 0
2, 38361, Note_on_c, 0, 56, 67
2, 38400, Note_on_c, 0, 57, 0
2, 38531, Note_on_c, 0, 69, 74
2, 38533, Note_on_c, 0, 57, 64
2, 38688, Note_on_c, 0, 56, 0
2, 38764, Note_on_c, 0, 73, 77
2, 38975, Note_on_c, 0, 76, 78
2, 39075, Note_on_c, 0, 69, 0
2, 39187, Note_on_c, 0, 81, 72
2, 39195, Note_on_c, 0, 61, 47
2, 39201, Note_on_c, 0, 73, 0
2, 39246, Note_on_c, 0, 76, 0
2, 39425, Note_on_c, 0, 80, 75
2, 39493, Note_on_c, 0, 81, 0
2, 39638, Note_on_c, 0, 81, 68
2, 39685, Note_on_c, 0, 80, 0
2, 39848, Note_on_c, 0, 81, 0
2, 39863, Note_on_c, 0, 80, 58
2, 39873, Note_on_c, 0, 62, 54
2, 39914, Note_on_c, 0, 80, 0
2, 39931, Note_on_c, 0, 78, 63
2, 39969, Note_on_c, 0, 78, 0
2, 39979, Note_on_c, 0, 80, 53
2, 40013, Note_on_c, 0, 61, 0
2, 40040, Note_on_c, 0, 78, 72
2, 40048, Note_on_c, 0, 80, 0
2, 40108, Note_on_c, 0, 76, 75
2, 40174, Note_on_c, 0, 78, 0
2, 40315, Note_on_c, 0, 78, 77
2, 40441, Note_on_c, 0, 76, 0
2, 40551, Note_on_c, 0, 81, 70
2, 40716, Note_on_c, 0, 78, 0
2, 40786, Note_on_c, 0, 61, 46
2, 40985, Note_on_c, 0, 59, 59
2, 41021, Note_on_c, 0, 62, 0
2, 41073, Note_on_c, 0, 61, 0
2, 41165, Note_on_c, 0, 81, 0
2, 41209, Note_on_c, 0, 61, 56
2, 41218, Note_on_c, 0, 78, 53
2, 41266, Note_on_c, 0, 78, 0
2, 41281, Note_on_c, 0, 76, 55
2, 41327, Note_on_c, 0, 76, 0
2, 41343, Note_on_c, 0, 78, 63
2, 41347, Note_on_c, 0, 59, 0
2, 41381, Note_on_c, 0, 76, 60
2, 41402, Note_on_c, 0, 78, 0
2, 41446, Note_on_c, 0, 74, 67
2, 41486, Note_on_c, 0, 76, 0
2, 41670, Note_on_c, 0, 76, 67
2, 41760, Note_on_c, 0, 74, 0
2, 41907, Note_on_c, 0, 81, 61
2, 42033, Note_on_c, 0, 76, 0
2, 42121, Note_on_c, 0, 62, 45
2, 42197, Note_on_c, 0, 61, 0
2, 42345, Note_on_c, 0, 61, 56
2, 42421, Note_on_c, 0, 62, 0
2, 42571, Note_on_c, 0, 59, 56
2, 42579, Note_on_c, 0, 74, 49
2, 42695, Note_on_c, 0, 81, 0
2, 42727, Note_on_c, 0, 61, 0
2, 42807, Note_on_c, 0, 76, 58
2, 42941, Note_on_c, 0, 74, 0
2, 43025, Note_on_c, 0, 78, 72
2, 43120, Note_on_c, 0, 76, 0
2, 43247, Note_on_c, 0, 76, 66
2, 43263, Note_on_c, 0, 56, 32
2, 43308, Note_on_c, 0, 78, 0
2, 43316, Note_on_c, 0, 57, 0
2, 43402, Control_c, 0, 64, 29
2, 43417, Control_c, 0, 64, 46
2, 43433, Control_c, 0, 64, 56
2, 43448, Control_c, 0, 64, 63
2, 43463, Control_c, 0, 64, 68
2, 43477, Note_on_c, 0, 59, 0
2, 43477, Note_on_c, 0, 78, 74
2, 43478, Control_c, 0, 64, 77
2, 43493, Control_c, 0, 64, 93
2, 43508, Control_c, 0, 64, 127
2, 43530, Note_on_c, 0, 76, 0
2, 43555, Note_on_c, 0, 56, 0
2, 43701, Note_on_c, 0, 74, 67
2, 43713, Note_on_c, 0, 78, 0
2, 43767, Control_c, 0, 64, 117
2, 43783, Control_c, 0, 64, 110
2, 43798, Control_c, 0, 64, 104
2, 43812, Control_c, 0, 64, 98
2, 43836, Control_c, 0, 64, 93
2, 43851, Control_c, 0, 64, 88
2, 43867, Control_c, 0, 64, 83
2, 43882, Control_c, 0, 64, 79
2, 43896, Control_c, 0, 64, 75
2, 43912, Control_c, 0, 64, 72
2, 43927, Control_c, 0, 64, 70
2, 43927, Note_on_c, 0, 45, 36
2, 43937, Note_on_c, 0, 73, 60
2, 43941, Control_c, 0, 64, 69
2, 43949, Note_on_c, 0, 74, 0
2, 43957, Control_c, 0, 64, 68
2, 43972, Control_c, 0, 64, 66
2, 43988, Control_c, 0, 64, 65
2, 44003, Control_c, 0, 64, 64
2, 44017, Control_c, 0, 64, 64
2, 44048, Control_c, 0, 64, 63
2, 44064, Control_c, 0, 64, 62
2, 44079, Control_c, 0, 64, 61
2, 44093, Control_c, 0, 64, 59
2, 44109, Control_c, 0, 64, 59
2, 44124, Control_c, 0, 64, 58
2, 44139, Control_c, 0, 64, 57
2, 44143, Note_on_c, 0, 49, 38
2, 44155, Control_c, 0, 64, 56
2, 44164, Note_on_c, 0, 69, 56
2, 44170, Control_c, 0, 64, 54
2, 44186, Control_c, 0, 64, 51
2, 44201, Control_c, 0, 64, 50
2, 44216, Control_c, 0, 64, 49
2, 44231, Control_c, 0, 64, 48
2, 44246, Control_c, 0, 64, 47
2, 44249, Note_on_c, 0, 73, 0
2, 44261, Control_c, 0, 64, 45
2, 44276, Control_c, 0, 64, 44
2, 44291, Control_c, 0, 64, 44
2, 44307, Control_c, 0, 64, 43
2, 44322, Control_c, 0, 64, 42
2, 44335, Note_on_c, 0, 45, 0
2, 44337, Control_c, 0, 64, 42
2, 44352, Control_c, 0, 64, 41
2, 44365, Note_on_c, 0, 52, 51
2, 44374, Note_on_c, 0, 71, 65
2, 44398, Control_c, 0, 64, 40
2, 44413, Control_c, 0, 64, 39
2, 44428, Control_c, 0, 64, 39
2, 44446, Note_on_c, 0, 69, 0
2, 44471, Note_on_c, 0, 49, 0
2, 44606, Note_on_c, 0, 73, 66
2, 44613, Note_on_c, 0, 57, 45
2, 44656, Note_on_c, 0, 52, 0
2, 44709, Note_on_c, 0, 71, 0
2, 44825, Note_on_c, 0, 56, 57
2, 44897, Note_on_c, 0, 57, 0
2, 45037, Note_on_c, 0, 57, 58
2, 45044, Control_c, 0, 64, 39
2, 45170, Note_on_c, 0, 56, 0
2, 45211, Control_c, 0, 64, 40
2, 45266, Note_on_c, 0, 51, 59
2, 45451, Note_on_c, 0, 57, 0
2, 45509, Note_on_c, 0, 71, 53
2, 45595, Note_on_c, 0, 73, 0
2, 45630, Control_c, 0, 64, 39
2, 45660, Control_c, 0, 64, 39
2, 45691, Control_c, 0, 64, 38
2, 45705, Control_c, 0, 64, 37
2, 45720, Control_c, 0, 64, 35
2, 45723, Note_on_c, 0, 54, 53
2, 45726, Note_on_c, 0, 69, 57
2, 45735, Control_c, 0, 64, 34
2, 45748, Note_on_c, 0, 71, 0
2, 45750, Control_c, 0, 64, 32
2, 45765, Control_c, 0, 64, 30
2, 45780, Control_c, 0, 64, 28
2, 45796, Control_c, 0, 64, 25
2, 45811, Control_c, 0, 64, 20
2, 45826, Control_c, 0, 64, 15
2, 45841, Control_c, 0, 64, 0
2, 45841, Note_on_c, 0, 54, 0
2, 45959, Note_on_c, 0, 59, 64
2, 45960, Note_on_c, 0, 68, 60
2, 45971, Note_on_c, 0, 69, 0
2, 46169, Control_c, 0, 64, 41
2, 46185, Control_c, 0, 64, 59
2, 46187, Note_on_c, 0, 69, 72
2, 46199, Control_c, 0, 64, 65
2, 46212, Note_on_c, 0, 59, 0
2, 46214, Control_c, 0, 64, 73
2, 46226, Note_on_c, 0, 68, 0
2, 46230, Control_c, 0, 64, 89
2, 46245, Control_c, 0, 64, 127
2, 46286, Note_on_c, 0, 51, 0
2, 46405, Note_on_c, 0, 66, 74
2, 46504, Control_c, 0, 64, 110
2, 46512, Note_on_c, 0, 69, 0
2, 46519, Control_c, 0, 64, 103
2, 46534, Control_c, 0, 64, 99
2, 46549, Control_c, 0, 64, 97
2, 46564, Control_c, 0, 64, 94
2, 46579, Control_c, 0, 64, 92
2, 46595, Control_c, 0, 64, 89
2, 46610, Control_c, 0, 64, 86
2, 46626, Control_c, 0, 64, 82
2, 46632, Note_on_c, 0, 68, 70
2, 46635, Note_on_c, 0, 40, 50
2, 46640, Control_c, 0, 64, 79
2, 46655, Control_c, 0, 64, 77
2, 46671, Control_c, 0, 64, 74
2, 46682, Note_on_c, 0, 66, 0
2, 46686, Control_c, 0, 64, 72
2, 46701, Control_c, 0, 64, 70
2, 46717, Control_c, 0, 64, 69
2, 46732, Control_c, 0, 64, 68
2, 46747, Control_c, 0, 64, 67
2, 46762, Control_c, 0, 64, 66
2, 46777, Control_c, 0, 64, 65
2, 46807, Control_c, 0, 64, 64
2, 46823, Control_c, 0, 64, 64
2, 46838, Control_c, 0, 64, 63
2, 46853, Control_c, 0, 64, 62
2, 46860, Note_on_c, 0, 44, 57
2, 46864, Note_on_c, 0, 64, 72
2, 46869, Control_c, 0, 64, 61
2, 46883, Control_c, 0, 64, 61
2, 46907, Control_c, 0, 64, 60
2, 46922, Control_c, 0, 64, 60
2, 46936, Control_c, 0, 64, 58
2, 46952, Control_c, 0, 64, 57
2, 46983, Control_c, 0, 64, 57
2, 46998, Control_c, 0, 64, 56
2, 46998, Note_on_c, 0, 68, 0
2, 47029, Control_c, 0, 64, 55
2, 47038, Note_on_c, 0, 40, 0
2, 47044, Control_c, 0, 64, 53
2, 47059, Control_c, 0, 64, 53
2, 47075, Control_c, 0, 64, 52
2, 47081, Note_on_c, 0, 47, 63
2, 47084, Note_on_c, 0, 66, 76
2, 47106, Control_c, 0, 64, 51
2, 47120, Control_c, 0, 64, 49
2, 47135, Control_c, 0, 64, 47
2, 47151, Control_c, 0, 64, 46
2, 47181, Control_c, 0, 64, 45
2, 47195, Note_on_c, 0, 64, 0
2, 47196, Control_c, 0, 64, 45
2, 47206, Note_on_c, 0, 44, 0
2, 47209, Control_c, 0, 64, 44
2, 47224, Control_c, 0, 64, 43
2, 47239, Control_c, 0, 64, 40
2, 47254, Control_c, 0, 64, 33
2, 47270, Control_c, 0, 64, 26
2, 47285, Control_c, 0, 64, 10
2, 47298, Note_on_c, 0, 68, 81
2, 47300, Control_c, 0, 64, 0
2, 47301, Note_on_c, 0, 52, 56
2, 47381, Note_on_c, 0, 47, 0
2, 47422, Note_on_c, 0, 66, 0
2, 47514, Note_on_c, 0, 51, 72
2, 47616, Note_on_c, 0, 52, 0
2, 47736, Note_on_c, 0, 52, 73
2, 47880, Note_on_c, 0, 51, 0
2, 47970, Note_on_c, 0, 45, 70
2, 48126, Note_on_c, 0, 52, 0
2, 48200, Note_on_c, 0, 69, 80
2, 48274, Note_on_c, 0, 68, 0
2, 48410, Note_on_c, 0, 52, 57
2, 48417, Note_on_c, 0, 71, 79
2, 48500, Note_on_c, 0, 69, 0
2, 48561, Note_on_c, 0, 52, 0
2, 48670, Note_on_c, 0, 57, 68
2, 48672, Note_on_c, 0, 73, 80
2, 48729, Note_on_c, 0, 71, 0
2, 48912, Control_c, 0, 64, 10
2, 48913, Note_on_c, 0, 66, 82
2, 48926, Control_c, 0, 64, 37
2, 48941, Control_c, 0, 64, 54
2, 48957, Control_c, 0, 64, 67
2, 48972, Control_c, 0, 64, 81
2, 48987, Control_c, 0, 64, 127
2, 48998, Note_on_c, 0, 45, 0
2, 49014, Note_on_c, 0, 73, 0
2, 49128, Note_on_c, 0, 69, 81
2, 49222, Note_on_c, 0, 66, 0
2, 49390, Control_c, 0, 64, 121
2, 49393, Note_on_c, 0, 59, 74
2, 49399, Note_on_c, 0, 47, 59
2, 49405, Control_c, 0, 64, 110
2, 49421, Control_c, 0, 64, 104
2, 49436, Control_c, 0, 64, 97
2, 49451, Control_c, 0, 64, 92
2, 49466, Control_c, 0, 64, 87
2, 49482, Control_c, 0, 64, 83
2, 49497, Control_c, 0, 64, 79
2, 49513, Control_c, 0, 64, 76
2, 49527, Control_c, 0, 64, 72
2, 49542, Control_c, 0, 64, 70
2, 49558, Control_c, 0, 64, 69
2, 49565, Note_on_c, 0, 69, 0
2, 49573, Control_c, 0, 64, 67
2, 49588, Control_c, 0, 64, 66
2, 49604, Control_c, 0, 64, 65
2, 49619, Control_c, 0, 64, 64
2, 49628, Note_on_c, 0, 63, 77
2, 49635, Control_c, 0, 64, 63
2, 49649, Control_c, 0, 64, 61
2, 49664, Control_c, 0, 64, 60
2, 49680, Control_c, 0, 64, 58
2, 49694, Control_c, 0, 64, 57
2, 49710, Control_c, 0, 64, 55
2, 49725, Control_c, 0, 64, 53
2, 49740, Control_c, 0, 64, 52
2, 49756, Control_c, 0, 64, 50
2, 49770, Control_c, 0, 64, 47
2, 49785, Control_c, 0, 64, 44
2, 49801, Control_c, 0, 64, 42
2, 49816, Control_c, 0, 64, 40
2, 49832, Control_c, 0, 64, 38
2, 49844, Note_on_c, 0, 66, 79
2, 49846, Control_c, 0, 64, 34
2, 49861, Control_c, 0, 64, 31
2, 49871, Note_on_c, 0, 59, 0
2, 49877, Control_c, 0, 64, 29
2, 49891, Control_c, 0, 64, 26
2, 49906, Control_c, 0, 64, 21
2, 49922, Control_c, 0, 64, 17
2, 49937, Control_c, 0, 64, 15
2, 49953, Control_c, 0, 64, 12
2, 49968, Control_c, 0, 64, 10
2, 49991, Control_c, 0, 64, 8
2, 50021, Control_c, 0, 64, 0
2, 50071, Note_on_c, 0, 71, 70
2, 50078, Note_on_c, 0, 56, 71
2, 50106, Note_on_c, 0, 63, 0
2, 50134, Note_on_c, 0, 66, 0
2, 50303, Note_on_c, 0, 69, 76
2, 50375, Note_on_c, 0, 57, 0
2, 50377, Note_on_c, 0, 71, 0
2, 50519, Note_on_c, 0, 71, 77
2, 50625, Note_on_c, 0, 69, 0
2, 50747, Note_on_c, 0, 61, 71
2, 50876, Note_on_c, 0, 71, 0
2, 50969, Note_on_c, 0, 64, 71
2, 51110, Note_on_c, 0, 61, 0
2, 51187, Note_on_c, 0, 68, 71
2, 51414, Note_on_c, 0, 69, 67
2, 51458, Note_on_c, 0, 64, 0
2, 51567, Note_on_c, 0, 68, 0
2, 51651, Note_on_c, 0, 54, 55
2, 51744, Note_on_c, 0, 56, 0
2, 51864, Note_on_c, 0, 52, 59
2, 51955, Note_on_c, 0, 54, 0
2, 52092, Note_on_c, 0, 51, 56
2, 52095, Note_on_c, 0, 59, 57
2, 52231, Note_on_c, 0, 69, 0
2, 52237, Note_on_c, 0, 52, 0
2, 52342, Note_on_c, 0, 63, 62
2, 52474, Note_on_c, 0, 59, 0
2, 52556, Note_on_c, 0, 66, 64
2, 52651, Note_on_c, 0, 63, 0
2, 52777, Note_on_c, 0, 69, 61
2, 52823, Note_on_c, 0, 66, 0
2, 52998, Note_on_c, 0, 68, 53
2, 53057, Note_on_c, 0, 69, 0
2, 53210, Note_on_c, 0, 69, 47
2, 53217, Note_on_c, 0, 42, 47
2, 53237, Note_on_c, 0, 47, 0
2, 53239, Note_on_c, 0, 68, 0
2, 53397, Note_on_c, 0, 42, 0
2, 53450, Note_on_c, 0, 43, 49
2, 53462, Note_on_c, 0, 59, 41
2, 53480, Note_on_c, 0, 69, 0
2, 53693, Note_on_c, 0, 63, 51
2, 53825, Note_on_c, 0, 59, 0
2, 53911, Note_on_c, 0, 66, 55
2, 53991, Note_on_c, 0, 63, 0
2, 54136, Note_on_c, 0, 52, 40
2, 54145, Note_on_c, 0, 67, 54
2, 54251, Note_on_c, 0, 66, 0
2, 54282, Note_on_c, 0, 51, 0
2, 54370, Note_on_c, 0, 45, 40
2, 54464, Note_on_c, 0, 43, 0
2, 54587, Note_on_c, 0, 47, 51
2, 54627, Note_on_c, 0, 45, 0
2, 54821, Note_on_c, 0, 47, 0
2, 54840, Note_on_c, 0, 48, 50
2, 55053, Note_on_c, 0, 69, 53
2, 55054, Note_on_c, 0, 67, 0
2, 55067, Note_on_c, 0, 54, 48
2, 55268, Note_on_c, 0, 67, 69
2, 55276, Note_on_c, 0, 55, 59
2, 55315, Note_on_c, 0, 52, 0
2, 55366, Note_on_c, 0, 69, 0
2, 55406, Note_on_c, 0, 54, 0
2, 55491, Note_on_c, 0, 66, 65
2, 55497, Note_on_c, 0, 57, 71
2, 55552, Note_on_c, 0, 67, 0
2, 55640, Note_on_c, 0, 55, 0
2, 55715, Note_on_c, 0, 67, 73
2, 55720, Control_c, 0, 64, 29
2, 55735, Control_c, 0, 64, 43
2, 55750, Control_c, 0, 64, 60
2, 55760, Note_on_c, 0, 66, 0
2, 55765, Control_c, 0, 64, 66
2, 55780, Control_c, 0, 64, 72
2, 55796, Control_c, 0, 64, 83
2, 55811, Control_c, 0, 64, 109
2, 55816, Note_on_c, 0, 48, 0
2, 55826, Control_c, 0, 64, 127
2, 55934, Note_on_c, 0, 64, 80
2, 55994, Note_on_c, 0, 67, 0
2, 56138, Control_c, 0, 64, 121
2, 56154, Control_c, 0, 64, 111
2, 56160, Note_on_c, 0, 63, 76
2, 56164, Note_on_c, 0, 47, 66
2, 56169, Control_c, 0, 64, 102
2, 56184, Control_c, 0, 64, 93
2, 56199, Control_c, 0, 64, 86
2, 56214, Control_c, 0, 64, 80
2, 56230, Control_c, 0, 64, 75
2, 56245, Control_c, 0, 64, 71
2, 56254, Note_on_c, 0, 64, 0
2, 56259, Control_c, 0, 64, 69
2, 56275, Control_c, 0, 64, 67
2, 56290, Control_c, 0, 64, 66
2, 56305, Control_c, 0, 64, 65
2, 56320, Control_c, 0, 64, 64
2, 56335, Control_c, 0, 64, 63
2, 56351, Control_c, 0, 64, 62
2, 56366, Control_c, 0, 64, 61
2, 56381, Control_c, 0, 64, 59
2, 56397, Control_c, 0, 64, 58
2, 56399, Note_on_c, 0, 61, 80
2, 56411, Control_c, 0, 64, 56
2, 56427, Control_c, 0, 64, 55
2, 56442, Control_c, 0, 64, 53
2, 56456, Control_c, 0, 64, 50
2, 56472, Control_c, 0, 64, 48
2, 56487, Control_c, 0, 64, 46
2, 56501, Control_c, 0, 64, 43
2, 56517, Control_c, 0, 64, 39
2, 56532, Control_c, 0, 64, 35
2, 56548, Control_c, 0, 64, 31
2, 56563, Control_c, 0, 64, 29
2, 56563, Note_on_c, 0, 63, 0
2, 56577, Control_c, 0, 64, 26
2, 56593, Control_c, 0, 64, 24
2, 56608, Control_c, 0, 64, 21
2, 56624, Control_c, 0, 64, 17
2, 56626, Note_on_c, 0, 59, 82
2, 56639, Control_c, 0, 64, 12
2, 56654, Control_c, 0, 64, 8
2, 56669, Control_c, 0, 64, 0
2, 56768, Note_on_c, 0, 61, 0
2, 56883, Control_c, 0, 64, 8
2, 56900, Note_on_c, 0, 72, 80
2, 56906, Control_c, 0, 64, 10
2, 56936, Control_c, 0, 64, 12
2, 56997, Control_c, 0, 64, 14
2, 57096, Note_on_c, 0, 59, 0
2, 57152, Note_on_c, 0, 56, 63
2, 57155, Note_on_c, 0, 49, 53
2, 57160, Note_on_c, 0, 71, 77
2, 57258, Note_on_c, 0, 57, 0
2, 57274, Note_on_c, 0, 47, 0
2, 57361, Note_on_c, 0, 72, 0
2, 57368, Note_on_c, 0, 51, 67
2, 57372, Note_on_c, 0, 70, 83
2, 57377, Note_on_c, 0, 54, 73
2, 57391, Control_c, 0, 64, 15
2, 57447, Note_on_c, 0, 56, 0
2, 57465, Note_on_c, 0, 49, 0
2, 57503, Note_on_c, 0, 71, 0
2, 57590, Note_on_c, 0, 52, 72
2, 57595, Note_on_c, 0, 69, 79
2, 57685, Note_on_c, 0, 70, 0
2, 57712, Note_on_c, 0, 51, 0
2, 57815, Note_on_c, 0, 54, 0
2, 57821, Note_on_c, 0, 68, 76
2, 57879, Note_on_c, 0, 69, 0
2, 57977, Control_c, 0, 64, 14
2, 58030, Note_on_c, 0, 67, 70
2, 58031, Note_on_c, 0, 46, 58
2, 58053, Control_c, 0, 64, 12
2, 58069, Control_c, 0, 64, 10
2, 58084, Control_c, 0, 64, 8
2, 58086, Note_on_c, 0, 68, 0
2, 58099, Control_c, 0, 64, 0
2, 58251, Note_on_c, 0, 47, 61
2, 58261, Note_on_c, 0, 66, 64
2, 58264, Note_on_c, 0, 46, 0
2, 58320, Note_on_c, 0, 67, 0
2, 58364, Note_on_c, 0, 68, 70
2, 58435, Note_on_c, 0, 66, 0
2, 58499, Note_on_c, 0, 51, 63
2, 58499, Note_on_c, 0, 69, 76
2, 58580, Note_on_c, 0, 68, 0
2, 58605, Note_on_c, 0, 52, 0
2, 58770, Note_on_c, 0, 57, 61
2, 58770, Note_on_c, 0, 63, 78
2, 58775, Control_c, 0, 64, 36
2, 58791, Control_c, 0, 64, 54
2, 58805, Control_c, 0, 64, 64
2, 58811, Note_on_c, 0, 69, 0
2, 58820, Control_c, 0, 64, 70
2, 58836, Control_c, 0, 64, 81
2, 58851, Control_c, 0, 64, 104
2, 58867, Control_c, 0, 64, 127
2, 58891, Note_on_c, 0, 47, 0
2, 58895, Note_on_c, 0, 51, 0
2, 59070, Note_on_c, 0, 56, 66
2, 59071, Note_on_c, 0, 49, 54
2, 59078, Note_on_c, 0, 64, 79
2, 59094, Control_c, 0, 64, 119
2, 59109, Control_c, 0, 64, 105
2, 59124, Control_c, 0, 64, 95
2, 59139, Control_c, 0, 64, 85
2, 59151, Note_on_c, 0, 63, 0
2, 59155, Control_c, 0, 64, 76
2, 59169, Control_c, 0, 64, 71
2, 59193, Control_c, 0, 64, 66
2, 59208, Control_c, 0, 64, 65
2, 59209, Note_on_c, 0, 57, 0
2, 59224, Control_c, 0, 64, 63
2, 59239, Control_c, 0, 64, 62
2, 59255, Control_c, 0, 64, 61
2, 59270, Control_c, 0, 64, 59
2, 59285, Control_c, 0, 64, 57
2, 59300, Control_c, 0, 64, 55
2, 59316, Control_c, 0, 64, 53
2, 59331, Control_c, 0, 64, 51
2, 59346, Control_c, 0, 64, 49
2, 59361, Control_c, 0, 64, 46
2, 59376, Control_c, 0, 64, 40
2, 59390, Note_on_c, 0, 52, 63
2, 59392, Control_c, 0, 64, 37
2, 59406, Control_c, 0, 64, 34
2, 59421, Control_c, 0, 64, 33
2, 59437, Control_c, 0, 64, 31
2, 59452, Control_c, 0, 64, 29
2, 59468, Control_c, 0, 64, 25
2, 59482, Control_c, 0, 64, 22
2, 59497, Control_c, 0, 64, 18
2, 59505, Note_on_c, 0, 56, 0
2, 59513, Control_c, 0, 64, 14
2, 59528, Control_c, 0, 64, 8
2, 59544, Control_c, 0, 64, 0
2, 59628, Note_on_c, 0, 56, 65
2, 59772, Note_on_c, 0, 52, 0
2, 59851, Note_on_c, 0, 57, 60
2, 59943, Note_on_c, 0, 56, 0
2, 60083, Note_on_c, 0, 56, 67
2, 60144, Note_on_c, 0, 57, 0
2, 60238, Control_c, 0, 64, 30
2, 60252, Control_c, 0, 64, 43
2, 60268, Control_c, 0, 64, 56
2, 60283, Control_c, 0, 64, 64
2, 60299, Control_c, 0, 64, 69
2, 60303, Note_on_c, 0, 57, 61
2, 60316, Control_c, 0, 64, 78
2, 60331, Control_c, 0, 64, 99
2, 60343, Note_on_c, 0, 49, 0
2, 60346, Control_c, 0, 64, 127
2, 60354, Note_on_c, 0, 56, 0
2, 60498, Control_c, 0, 64, 115
2, 60513, Control_c, 0, 64, 107
2, 60529, Control_c, 0, 64, 99
2, 60544, Control_c, 0, 64, 93
2, 60547, Note_on_c, 0, 44, 60
2, 60550, Note_on_c, 0, 52, 54
2, 60559, Control_c, 0, 64, 87
2, 60574, Control_c, 0, 64, 82
2, 60589, Control_c, 0, 64, 76
2, 60604, Control_c, 0, 64, 72
2, 60620, Control_c, 0, 64, 68
2, 60635, Control_c, 0, 64, 66
2, 60651, Control_c, 0, 64, 65
2, 60665, Control_c, 0, 64, 65
2, 60680, Control_c, 0, 64, 64
2, 60696, Control_c, 0, 64, 63
2, 60711, Control_c, 0, 64, 62
2, 60726, Control_c, 0, 64, 60
2, 60748, Control_c, 0, 64, 59
2, 60763, Control_c, 0, 64, 59
2, 60779, Control_c, 0, 64, 58
2, 60794, Control_c, 0, 64, 58
2, 60810, Control_c, 0, 64, 56
2, 60814, Note_on_c, 0, 56, 48
2, 60825, Control_c, 0, 64, 55
2, 60840, Control_c, 0, 64, 54
2, 60856, Control_c, 0, 64, 53
2, 60870, Control_c, 0, 64, 52
2, 60886, Control_c, 0, 64, 52
2, 60901, Control_c, 0, 64, 51
2, 60905, Note_on_c, 0, 57, 0
2, 60916, Control_c, 0, 64, 50
2, 60932, Control_c, 0, 64, 48
2, 60947, Control_c, 0, 64, 47
2, 60962, Control_c, 0, 64, 46
2, 60978, Control_c, 0, 64, 46
2, 60993, Control_c, 0, 64, 44
2, 61008, Control_c, 0, 64, 43
2, 61024, Control_c, 0, 64, 41
2, 61034, Note_on_c, 0, 59, 53
2, 61038, Control_c, 0, 64, 40
2, 61054, Control_c, 0, 64, 39
2, 61069, Control_c, 0, 64, 38
2, 61084, Control_c, 0, 64, 37
2, 61099, Control_c, 0, 64, 35
2, 61114, Control_c, 0, 64, 34
2, 61130, Control_c, 0, 64, 31
2, 61145, Control_c, 0, 64, 28
2, 61157, Note_on_c, 0, 56, 0
2, 61160, Control_c, 0, 64, 26
2, 61175, Control_c, 0, 64, 24
2, 61190, Control_c, 0, 64, 22
2, 61205, Control_c, 0, 64, 18
2, 61221, Control_c, 0, 64, 12
2, 61236, Control_c, 0, 64, 0
2, 61254, Note_on_c, 0, 62, 51
2, 61364, Note_on_c, 0, 59, 0
2, 61387, Control_c, 0, 64, 8
2, 61402, Control_c, 0, 64, 18
2, 61418, Control_c, 0, 64, 28
2, 61433, Control_c, 0, 64, 35
2, 61448, Control_c, 0, 64, 42
2, 61464, Control_c, 0, 64, 51
2, 61479, Control_c, 0, 64, 60
2, 61486, Note_on_c, 0, 61, 58
2, 61495, Control_c, 0, 64, 65
2, 61516, Control_c, 0, 64, 69
2, 61532, Control_c, 0, 64, 76
2, 61547, Control_c, 0, 64, 86
2, 61562, Control_c, 0, 64, 99
2, 61562, Note_on_c, 0, 62, 0
2, 61578, Control_c, 0, 64, 127
2, 61591, Note_on_c, 0, 44, 0
2, 61733, Note_on_c, 0, 62, 52
2, 61764, Note_on_c, 0, 61, 0
2, 61776, Control_c, 0, 64, 121
2, 61791, Control_c, 0, 64, 115
2, 61806, Control_c, 0, 64, 111
2, 61822, Control_c, 0, 64, 108
2, 61837, Control_c, 0, 64, 104
2, 61853, Control_c, 0, 64, 101
2, 61867, Control_c, 0, 64, 98
2, 61882, Control_c, 0, 64, 95
2, 61898, Control_c, 0, 64, 91
2, 61913, Control_c, 0, 64, 88
2, 61928, Control_c, 0, 64, 86
2, 61944, Control_c, 0, 64, 83
2, 61959, Control_c, 0, 64, 80
2, 61968, Note_on_c, 0, 45, 46
2, 61975, Control_c, 0, 64, 77
2, 61985, Note_on_c, 0, 61, 54
2, 61990, Control_c, 0, 64, 75
2, 62005, Control_c, 0, 64, 73
2, 62020, Control_c, 0, 64, 72
2, 62035, Control_c, 0, 64, 70
2, 62051, Control_c, 0, 64, 68
2, 62065, Control_c, 0, 64, 67
2, 62080, Control_c, 0, 64, 65
2, 62093, Note_on_c, 0, 62, 0
2, 62096, Control_c, 0, 64, 64
2, 62111, Control_c, 0, 64, 64
2, 62124, Note_on_c, 0, 52, 0
2, 62126, Control_c, 0, 64, 63
2, 62141, Control_c, 0, 64, 62
2, 62156, Control_c, 0, 64, 60
2, 62172, Control_c, 0, 64, 58
2, 62187, Control_c, 0, 64, 56
2, 62202, Control_c, 0, 64, 55
2, 62217, Control_c, 0, 64, 54
2, 62226, Note_on_c, 0, 49, 42
2, 62232, Control_c, 0, 64, 52
2, 62247, Control_c, 0, 64, 50
2, 62263, Control_c, 0, 64, 48
2, 62285, Control_c, 0, 64, 46
2, 62301, Control_c, 0, 64, 44
2, 62316, Control_c, 0, 64, 42
2, 62332, Control_c, 0, 64, 41
2, 62347, Control_c, 0, 64, 39
2, 62361, Control_c, 0, 64, 38
2, 62377, Control_c, 0, 64, 37
2, 62392, Control_c, 0, 64, 36
2, 62407, Control_c, 0, 64, 35
2, 62423, Control_c, 0, 64, 33
2, 62437, Control_c, 0, 64, 32
2, 62453, Control_c, 0, 64, 31
2, 62461, Note_on_c, 0, 52, 51
2, 62468, Control_c, 0, 64, 31
2, 62482, Control_c, 0, 64, 30
2, 62498, Control_c, 0, 64, 28
2, 62513, Control_c, 0, 64, 26
2, 62530, Control_c, 0, 64, 26
2, 62545, Control_c, 0, 64, 24
2, 62560, Control_c, 0, 64, 24
2, 62573, Note_on_c, 0, 49, 0
2, 62575, Control_c, 0, 64, 23
2, 62590, Control_c, 0, 64, 22
2, 62604, Control_c, 0, 64, 21
2, 62651, Control_c, 0, 64, 20
2, 62665, Control_c, 0, 64, 19
2, 62680, Control_c, 0, 64, 18
2, 62696, Control_c, 0, 64, 17
2, 62711, Control_c, 0, 64, 16
2, 62713, Note_on_c, 0, 57, 52
2, 62726, Control_c, 0, 64, 14
2, 62742, Control_c, 0, 64, 12
2, 62757, Control_c, 0, 64, 10
2, 62791, Note_on_c, 0, 52, 0
2, 62802, Control_c, 0, 64, 8
2, 62818, Control_c, 0, 64, 0
2, 63013, Note_on_c, 0, 56, 47
2, 63137, Note_on_c, 0, 57, 0
2, 63353, Note_on_c, 0, 63, 48
2, 63367, Note_on_c, 0, 60, 42
2, 63371, Note_on_c, 0, 57, 44
2, 63401, Note_on_c, 0, 61, 0
2, 63407, Note_on_c, 0, 56, 0
2, 63433, Note_on_c, 0, 64, 0
2, 63509, Control_c, 0, 64, 33
2, 63524, Control_c, 0, 64, 56
2, 63538, Note_on_c, 0, 45, 0
2, 63540, Control_c, 0, 64, 66
2, 63555, Control_c, 0, 64, 75
2, 63563, Note_on_c, 0, 60, 0
2, 63571, Control_c, 0, 64, 92
2, 63586, Control_c, 0, 64, 127
2, 63836, Control_c, 0, 64, 117
2, 63852, Control_c, 0, 64, 110
2, 63867, Control_c, 0, 64, 103
2, 63869, Note_on_c, 0, 57, 0
2, 63882, Control_c, 0, 64, 98
2, 63882, Note_on_c, 0, 64, 45
2, 63885, Note_on_c, 0, 56, 34
2, 63891, Note_on_c, 0, 40, 34
2, 63895, Note_on_c, 0, 59, 33
2, 63898, Control_c, 0, 64, 92
2, 63912, Control_c, 0, 64, 87
2, 63927, Control_c, 0, 64, 82
2, 63943, Control_c, 0, 64, 78
2, 63957, Control_c, 0, 64, 74
2, 63973, Control_c, 0, 64, 71
2, 63988, Control_c, 0, 64, 69
2, 64003, Control_c, 0, 64, 66
2, 64019, Control_c, 0, 64, 64
2, 64025, Note_on_c, 0, 63, 0
2, 64033, Control_c, 0, 64, 62
2, 64048, Control_c, 0, 64, 60
2, 64064, Control_c, 0, 64, 56
2, 64079, Control_c, 0, 64, 49
2, 64094, Control_c, 0, 64, 40
2, 64109, Control_c, 0, 64, 28
2, 64124, Control_c, 0, 64, 0
2, 64560, Control_c, 0, 64, 19
2, 64582, Control_c, 0, 64, 29
2, 64597, Control_c, 0, 64, 36
2, 64612, Control_c, 0, 64, 41
2, 64627, Control_c, 0, 64, 50
2, 64643, Control_c, 0, 64, 55
2, 64658, Control_c, 0, 64, 58
2, 64674, Control_c, 0, 64, 60
2, 64689, Control_c, 0, 64, 62
2, 64704, Control_c, 0, 64, 63
2, 64719, Control_c, 0, 64, 65
2, 64734, Control_c, 0, 64, 67
2, 64750, Control_c, 0, 64, 70
2, 64765, Control_c, 0, 64, 73
2, 64780, Control_c, 0, 64, 77
2, 64795, Control_c, 0, 64, 82
2, 64810, Control_c, 0, 64, 86
2, 64825, Control_c, 0, 64, 93
2, 64841, Control_c, 0, 64, 100
2, 64856, Control_c, 0, 64, 111
2, 64871, Control_c, 0, 64, 127
2, 64976, Note_on_c, 0, 40, 0
2, 65052, Note_on_c, 0, 64, 0
2, 65092, Note_on_c, 0, 56, 0
2, 65104, Note_on_c, 0, 59, 0
2, 65313, Control_c, 0, 64, 115
2, 65328, Control_c, 0, 64, 106
2, 65351, Control_c, 0, 64, 99
2, 65365, Control_c, 0, 64, 93
2, 65380, Control_c, 0, 64, 87
2, 65396, Control_c, 0, 64, 80
2, 65411, Control_c, 0, 64, 73
2, 65426, Control_c, 0, 64, 66
2, 65441, Control_c, 0, 64, 56
2, 65456, Control_c, 0, 64, 35
2, 65472, Control_c, 0, 64, 0
2, 66001, Note_on_c, 0, 64, 81
2, 66027, Note_on_c, 0, 64, 0
2, 66242, Note_on_c, 0, 66, 84
2, 66362, Control_c, 0, 64, 45
2, 66377, Control_c, 0, 64, 64
2, 66393, Control_c, 0, 64, 79
2, 66408, Control_c, 0, 64, 127
2, 66437, Note_on_c, 0, 66, 0
2, 66651, Control_c, 0, 64, 93
2, 66666, Control_c, 0, 64, 71
2, 66682, Control_c, 0, 64, 52
2, 66697, Control_c, 0, 64, 0
2, 66787, Note_on_c, 0, 59, 41
2, 66862, Note_on_c, 0, 59, 0
2, 66890, Note_on_c, 0, 61, 57
2, 66963, Note_on_c, 0, 61, 0
2, 66978, Note_on_c, 0, 63, 61
2, 67058, Note_on_c, 0, 63, 0
2, 67069, Note_on_c, 0, 64, 63
2, 67144, Note_on_c, 0, 64, 0
2, 67165, Note_on_c, 0, 63, 62
2, 67242, Note_on_c, 0, 63, 0
2, 67258, Note_on_c, 0, 64, 67
2, 67346, Note_on_c, 0, 64, 0
2, 67348, Note_on_c, 0, 66, 72
2, 67442, Note_on_c, 0, 68, 79
2, 67457, Note_on_c, 0, 66, 0
2, 67524, Note_on_c, 0, 69, 81
2, 67529, Note_on_c, 0, 68, 0
2, 67583, Note_on_c, 0, 69, 0
2, 67616, Note_on_c, 0, 71, 88
2, 67658, Note_on_c, 0, 71, 0
2, 67747, Note_on_c, 0, 68, 49
2, 67825, Note_on_c, 0, 68, 0
2, 67833, Note_on_c, 0, 73, 89
2, 67846, Note_on_c, 0, 64, 58
2, 67941, Note_on_c, 0, 64, 0
2, 67960, Note_on_c, 0, 63, 56
2, 68047, Note_on_c, 0, 63, 0
2, 68052, Note_on_c, 0, 64, 70
2, 68125, Note_on_c, 0, 64, 0
2, 68139, Note_on_c, 0, 66, 63
2, 68165, Note_on_c, 0, 73, 0
2, 68220, Note_on_c, 0, 66, 0
2, 68244, Note_on_c, 0, 64, 65
2, 68292, Note_on_c, 0, 64, 0
2, 68323, Note_on_c, 0, 63, 55
2, 68338, Note_on_c, 0, 66, 66
2, 68398, Note_on_c, 0, 63, 0
2, 68429, Note_on_c, 0, 64, 58
2, 68432, Note_on_c, 0, 66, 0
2, 68436, Note_on_c, 0, 68, 68
2, 68480, Note_on_c, 0, 64, 0
2, 68511, Note_on_c, 0, 66, 52
2, 68520, Note_on_c, 0, 70, 72
2, 68526, Note_on_c, 0, 68, 0
2, 68586, Note_on_c, 0, 66, 0
2, 68589, Note_on_c, 0, 70, 0
2, 68617, Note_on_c, 0, 63, 55
2, 68617, Note_on_c, 0, 71, 73
2, 68657, Note_on_c, 0, 63, 0
2, 68693, Note_on_c, 0, 71, 0
2, 68694, Note_on_c, 0, 61, 49
2, 68712, Note_on_c, 0, 70, 70
2, 68773, Note_on_c, 0, 61, 0
2, 68796, Note_on_c, 0, 70, 0
2, 68806, Note_on_c, 0, 63, 53
2, 68809, Note_on_c, 0, 71, 76
2, 68855, Note_on_c, 0, 63, 0
2, 68878, Note_on_c, 0, 64, 56
2, 68894, Note_on_c, 0, 73, 74
2, 68899, Note_on_c, 0, 71, 0
2, 68969, Note_on_c, 0, 64, 0
2, 68978, Note_on_c, 0, 66, 68
2, 68982, Note_on_c, 0, 75, 80
2, 69027, Note_on_c, 0, 73, 0
2, 69063, Note_on_c, 0, 76, 77
2, 69073, Note_on_c, 0, 68, 75
2, 69083, Note_on_c, 0, 66, 0
2, 69106, Note_on_c, 0, 75, 0
2, 69159, Note_on_c, 0, 68, 0
2, 69160, Note_on_c, 0, 78, 87
2, 69162, Note_on_c, 0, 69, 74
2, 69179, Note_on_c, 0, 76, 0
2, 69233, Note_on_c, 0, 69, 0
2, 69256, Note_on_c, 0, 66, 66
2, 69258, Note_on_c, 0, 75, 79
2, 69302, Note_on_c, 0, 78, 0
2, 69307, Note_on_c, 0, 66, 0
2, 69355, Note_on_c, 0, 68, 80
2, 69359, Note_on_c, 0, 71, 82
2, 69368, Note_on_c, 0, 75, 0
2, 69375, Note_on_c, 0, 68, 0
2, 69431, Note_on_c, 0, 71, 0
2, 69447, Note_on_c, 0, 69, 73
2, 69535, Note_on_c, 0, 69, 0
2, 69546, Note_on_c, 0, 71, 75
2, 69548, Note_on_c, 0, 59, 90
2, 69571, Note_on_c, 0, 59, 0
2, 69618, Note_on_c, 0, 71, 0
2, 69649, Note_on_c, 0, 73, 63
2, 69745, Note_on_c, 0, 64, 88
2, 69755, Note_on_c, 0, 73, 0
2, 69756, Note_on_c, 0, 71, 69
2, 69824, Note_on_c, 0, 71, 0
2, 69852, Note_on_c, 0, 69, 66
2, 69946, Note_on_c, 0, 69, 0
2, 69947, Note_on_c, 0, 52, 82
2, 69959, Note_on_c, 0, 71, 67
2, 69978, Note_on_c, 0, 52, 0
2, 70020, Note_on_c, 0, 71, 0
2, 70036, Note_on_c, 0, 73, 62
2, 70146, Note_on_c, 0, 73, 0
2, 70158, Note_on_c, 0, 54, 88
2, 70173, Note_on_c, 0, 69, 69
2, 70212, Note_on_c, 0, 64, 0
2, 70222, Note_on_c, 0, 69, 0
2, 70261, Note_on_c, 0, 68, 60
2, 70306, Note_on_c, 0, 68, 0
2, 70356, Note_on_c, 0, 69, 62
2, 70363, Note_on_c, 0, 63, 64
2, 70405, Note_on_c, 0, 63, 0
2, 70424, Note_on_c, 0, 69, 0
2, 70437, Note_on_c, 0, 71, 65
2, 70555, Note_on_c, 0, 54, 0
2, 70555, Note_on_c, 0, 71, 0
2, 70563, Note_on_c, 0, 69, 69
2, 70568, Note_on_c, 0, 66, 72
2, 70648, Note_on_c, 0, 69, 0
2, 70658, Note_on_c, 0, 47, 60
2, 70664, Note_on_c, 0, 68, 66
2, 70745, Note_on_c, 0, 47, 0
2, 70753, Note_on_c, 0, 68, 0
2, 70755, Note_on_c, 0, 49, 65
2, 70758, Note_on_c, 0, 69, 56
2, 70810, Note_on_c, 0, 69, 0
2, 70822, Note_on_c, 0, 71, 53
2, 70845, Note_on_c, 0, 51, 79
2, 70855, Note_on_c, 0, 49, 0
2, 70908, Note_on_c, 0, 66, 0
2, 70928, Note_on_c, 0, 71, 0
2, 70937, Note_on_c, 0, 51, 0
2, 70938, Note_on_c, 0, 52, 75
2, 70941, Note_on_c, 0, 68, 64
2, 71014, Note_on_c, 0, 68, 0
2, 71020, Note_on_c, 0, 66, 71
2, 71022, Note_on_c, 0, 52, 0
2, 71025, Note_on_c, 0, 51, 74
2, 71097, Note_on_c, 0, 51, 0
2, 71122, Note_on_c, 0, 52, 63
2, 71122, Note_on_c, 0, 68, 83
2, 71125, Note_on_c, 0, 59, 68
2, 71142, Note_on_c, 0, 66, 0
2, 71159, Note_on_c, 0, 59, 0
2, 71192, Note_on_c, 0, 52, 0
2, 71211, Note_on_c, 0, 70, 76
2, 71220, Note_on_c, 0, 54, 57
2, 71228, Note_on_c, 0, 68, 0
2, 71300, Note_on_c, 0, 54, 0
2, 71306, Note_on_c, 0, 56, 67
2, 71307, Note_on_c, 0, 64, 74
2, 71307, Note_on_c, 0, 71, 85
2, 71319, Note_on_c, 0, 70, 0
2, 71338, Note_on_c, 0, 64, 0
2, 71382, Note_on_c, 0, 56, 0
2, 71409, Note_on_c, 0, 57, 62
2, 71479, Note_on_c, 0, 57, 0
2, 71505, Note_on_c, 0, 63, 85
2, 71523, Note_on_c, 0, 59, 62
2, 71558, Note_on_c, 0, 63, 0
2, 71599, Note_on_c, 0, 59, 0
2, 71606, Note_on_c, 0, 56, 61
2, 71699, Note_on_c, 0, 56, 0
2, 71718, Note_on_c, 0, 52, 56
2, 71724, Note_on_c, 0, 61, 85
2, 71806, Note_on_c, 0, 52, 0
2, 71826, Note_on_c, 0, 51, 60
2, 71911, Note_on_c, 0, 51, 0
2, 71926, Note_on_c, 0, 52, 57
2, 71999, Note_on_c, 0, 52, 0
2, 72011, Note_on_c, 0, 54, 58
2, 72076, Note_on_c, 0, 71, 0
2, 72092, Note_on_c, 0, 54, 0
2, 72125, Note_on_c, 0, 52, 52
2, 72127, Note_on_c, 0, 70, 66
2, 72185, Note_on_c, 0, 52, 0
2, 72212, Note_on_c, 0, 51, 61
2, 72295, Note_on_c, 0, 51, 0
2, 72313, Note_on_c, 0, 52, 55
2, 72386, Note_on_c, 0, 52, 0
2, 72403, Note_on_c, 0, 61, 0
2, 72410, Note_on_c, 0, 54, 59
2, 72426, Note_on_c, 0, 70, 0
2, 72488, Note_on_c, 0, 54, 0
2, 72530, Note_on_c, 0, 51, 46
2, 72549, Note_on_c, 0, 71, 65
2, 72554, Note_on_c, 0, 59, 44
2, 72566, Control_c, 0, 64, 52
2, 72574, Note_on_c, 0, 51, 0
2, 72581, Control_c, 0, 64, 67
2, 72581, Note_on_c, 0, 71, 0
2, 72585, Note_on_c, 0, 59, 0
2, 72597, Control_c, 0, 64, 86
2, 72611, Control_c, 0, 64, 127
2, 72616, Note_on_c, 0, 49, 46
2, 72673, Control_c, 0, 64, 95
2, 72687, Control_c, 0, 64, 69
2, 72690, Note_on_c, 0, 49, 0
2, 72702, Control_c, 0, 64, 0
2, 72714, Note_on_c, 0, 51, 47
2, 72747, Note_on_c, 0, 83, 64
2, 72767, Note_on_c, 0, 51, 0
2, 72779, Note_on_c, 0, 83, 0
2, 72821, Note_on_c, 0, 52, 37
2, 72880, Note_on_c, 0, 52, 0
2, 72937, Note_on_c, 0, 54, 40
2, 72939, Note_on_c, 0, 75, 81
2, 72962, Note_on_c, 0, 75, 0
2, 73008, Note_on_c, 0, 54, 0
2, 73038, Note_on_c, 0, 56, 52
2, 73118, Note_on_c, 0, 56, 0
2, 73138, Note_on_c, 0, 78, 86
2, 73139, Note_on_c, 0, 57, 49
2, 73178, Note_on_c, 0, 78, 0
2, 73198, Note_on_c, 0, 57, 0
2, 73228, Note_on_c, 0, 54, 58
2, 73306, Note_on_c, 0, 54, 0
2, 73339, Note_on_c, 0, 56, 52
2, 73344, Note_on_c, 0, 71, 90
2, 73402, Note_on_c, 0, 56, 0
2, 73438, Note_on_c, 0, 54, 48
2, 73508, Note_on_c, 0, 54, 0
2, 73530, Note_on_c, 0, 56, 50
2, 73536, Note_on_c, 0, 76, 65
2, 73569, Note_on_c, 0, 76, 0
2, 73588, Note_on_c, 0, 56, 0
2, 73615, Note_on_c, 0, 57, 57
2, 73687, Note_on_c, 0, 57, 0
2, 73723, Note_on_c, 0, 59, 62
2, 73728, Note_on_c, 0, 68, 77
2, 73730, Note_on_c, 0, 71, 0
2, 73767, Note_on_c, 0, 68, 0
2, 73809, Note_on_c, 0, 59, 0
2, 73824, Note_on_c, 0, 61, 61
2, 73897, Note_on_c, 0, 61, 0
2, 73922, Note_on_c, 0, 71, 65
2, 73923, Note_on_c, 0, 62, 55
2, 73983, Note_on_c, 0, 62, 0
2, 74017, Note_on_c, 0, 59, 55
2, 74074, Note_on_c, 0, 59, 0
2, 74103, Note_on_c, 0, 61, 52
2, 74127, Note_on_c, 0, 64, 67
2, 74158, Note_on_c, 0, 64, 0
2, 74173, Note_on_c, 0, 61, 0
2, 74206, Note_on_c, 0, 59, 56
2, 74229, Note_on_c, 0, 71, 0
2, 74292, Note_on_c, 0, 59, 0
2, 74307, Note_on_c, 0, 61, 54
2, 74314, Note_on_c, 0, 66, 78
2, 74318, Note_on_c, 0, 69, 75
2, 74361, Note_on_c, 0, 69, 0
2, 74391, Note_on_c, 0, 61, 0
2, 74406, Note_on_c, 0, 63, 66
2, 74491, Note_on_c, 0, 63, 0
2, 74499, Note_on_c, 0, 68, 87
2, 74502, Note_on_c, 0, 64, 73
2, 74511, Note_on_c, 0, 66, 0
2, 74537, Note_on_c, 0, 68, 0
2, 74588, Note_on_c, 0, 64, 0
2, 74598, Note_on_c, 0, 63, 73
2, 74678, Note_on_c, 0, 63, 0
2, 74687, Note_on_c, 0, 61, 67
2, 74698, Note_on_c, 0, 64, 86
2, 74698, Note_on_c, 0, 76, 92
2, 74720, Note_on_c, 0, 64, 0
2, 74735, Note_on_c, 0, 76, 0
2, 74775, Note_on_c, 0, 61, 0
2, 74784, Note_on_c, 0, 59, 69
2, 74892, Note_on_c, 0, 59, 0
2, 74911, Note_on_c, 0, 57, 60
2, 74916, Note_on_c, 0, 64, 66
2, 74924, Note_on_c, 0, 78, 93
2, 75007, Control_c, 0, 64, 14
2, 75020, Note_on_c, 0, 57, 0
2, 75022, Control_c, 0, 64, 50
2, 75034, Note_on_c, 0, 56, 60
2, 75038, Control_c, 0, 64, 60
2, 75053, Control_c, 0, 64, 63
2, 75067, Control_c, 0, 64, 66
2, 75083, Control_c, 0, 64, 67
2, 75098, Control_c, 0, 64, 68
2, 75100, Note_on_c, 0, 56, 0
2, 75114, Control_c, 0, 64, 66
2, 75129, Control_c, 0, 64, 64
2, 75129, Note_on_c, 0, 57, 58
2, 75143, Control_c, 0, 64, 59
2, 75159, Control_c, 0, 64, 40
2, 75174, Control_c, 0, 64, 0
2, 75206, Note_on_c, 0, 57, 0
2, 75214, Note_on_c, 0, 64, 0
2, 75218, Note_on_c, 0, 59, 61
2, 75261, Note_on_c, 0, 59, 0
2, 75284, Note_on_c, 0, 78, 0
2, 75321, Note_on_c, 0, 57, 68
2, 75322, Note_on_c, 0, 63, 63
2, 75365, Note_on_c, 0, 63, 0
2, 75389, Note_on_c, 0, 57, 0
2, 75403, Note_on_c, 0, 56, 64
2, 75413, Note_on_c, 0, 71, 59
2, 75481, Note_on_c, 0, 56, 0
2, 75500, Note_on_c, 0, 73, 75
2, 75507, Note_on_c, 0, 66, 64
2, 75514, Note_on_c, 0, 57, 56
2, 75521, Note_on_c, 0, 71, 0
2, 75557, Note_on_c, 0, 57, 0
2, 75579, Note_on_c, 0, 59, 64
2, 75586, Note_on_c, 0, 75, 78
2, 75592, Note_on_c, 0, 66, 0
2, 75610, Note_on_c, 0, 73, 0
2, 75621, Note_on_c, 0, 59, 0
2, 75695, Note_on_c, 0, 75, 0
2, 75696, Note_on_c, 0, 76, 74
2, 75704, Note_on_c, 0, 59, 77
2, 75714, Note_on_c, 0, 56, 61
2, 75744, Note_on_c, 0, 56, 0
2, 75755, Note_on_c, 0, 76, 0
2, 75782, Note_on_c, 0, 75, 72
2, 75873, Note_on_c, 0, 75, 0
2, 75885, Note_on_c, 0, 76, 86
2, 75891, Note_on_c, 0, 54, 80
2, 75916, Note_on_c, 0, 54, 0
2, 75972, Note_on_c, 0, 78, 89
2, 75999, Note_on_c, 0, 76, 0
2, 76078, Note_on_c, 0, 52, 91
2, 76082, Note_on_c, 0, 80, 85
2, 76099, Note_on_c, 0, 59, 0
2, 76117, Note_on_c, 0, 52, 0
2, 76120, Note_on_c, 0, 78, 0
2, 76186, Note_on_c, 0, 81, 72
2, 76213, Note_on_c, 0, 80, 0
2, 76266, Note_on_c, 0, 81, 0
2, 76273, Note_on_c, 0, 51, 85
2, 76279, Note_on_c, 0, 71, 91
2, 76281, Note_on_c, 0, 83, 89
2, 76298, Note_on_c, 0, 51, 0
2, 76317, Note_on_c, 0, 71, 0
2, 76377, Note_on_c, 0, 83, 0
2, 76385, Note_on_c, 0, 80, 70
2, 76453, Note_on_c, 0, 80, 0
2, 76478, Note_on_c, 0, 49, 82
2, 76481, Note_on_c, 0, 73, 88
2, 76491, Note_on_c, 0, 76, 74
2, 76507, Note_on_c, 0, 49, 0
2, 76570, Note_on_c, 0, 76, 0
2, 76585, Note_on_c, 0, 75, 70
2, 76673, Note_on_c, 0, 59, 80
2, 76673, Note_on_c, 0, 75, 0
2, 76685, Note_on_c, 0, 76, 71
2, 76704, Note_on_c, 0, 59, 0
2, 76760, Note_on_c, 0, 76, 0
2, 76774, Note_on_c, 0, 78, 69
2, 76838, Note_on_c, 0, 73, 0
2, 76868, Note_on_c, 0, 58, 70
2, 76881, Note_on_c, 0, 76, 77
2, 76891, Note_on_c, 0, 78, 0
2, 76918, Note_on_c, 0, 58, 0
2, 76962, Note_on_c, 0, 75, 80
2, 76964, Note_on_c, 0, 66, 64
2, 76966, Note_on_c, 0, 76, 0
2, 77008, Note_on_c, 0, 66, 0
2, 77056, Note_on_c, 0, 76, 73
2, 77058, Note_on_c, 0, 68, 72
2, 77060, Note_on_c, 0, 75, 0
2, 77064, Note_on_c, 0, 54, 58
2, 77102, Note_on_c, 0, 54, 0
2, 77132, Note_on_c, 0, 76, 0
2, 77138, Note_on_c, 0, 78, 71
2, 77141, Note_on_c, 0, 68, 0
2, 77148, Note_on_c, 0, 70, 67
2, 77212, Note_on_c, 0, 70, 0
2, 77240, Note_on_c, 0, 59, 63
2, 77241, Note_on_c, 0, 71, 74
2, 77250, Note_on_c, 0, 75, 69
2, 77278, Note_on_c, 0, 78, 0
2, 77282, Control_c, 0, 64, 55
2, 77297, Control_c, 0, 64, 65
2, 77304, Note_on_c, 0, 59, 0
2, 77306, Note_on_c, 0, 71, 0
2, 77313, Control_c, 0, 64, 75
2, 77325, Note_on_c, 0, 75, 0
2, 77327, Note_on_c, 0, 73, 68
2, 77328, Control_c, 0, 64, 92
2, 77334, Note_on_c, 0, 70, 63
2, 77342, Control_c, 0, 64, 127
2, 77398, Note_on_c, 0, 70, 0
2, 77419, Note_on_c, 0, 71, 64
2, 77420, Note_on_c, 0, 73, 0
2, 77422, Note_on_c, 0, 75, 66
2, 77451, Note_on_c, 0, 71, 0
2, 77463, Control_c, 0, 64, 111
2, 77479, Control_c, 0, 64, 100
2, 77494, Control_c, 0, 64, 93
2, 77509, Control_c, 0, 64, 88
2, 77518, Note_on_c, 0, 76, 74
2, 77523, Note_on_c, 0, 73, 52
2, 77525, Control_c, 0, 64, 83
2, 77530, Note_on_c, 0, 75, 0
2, 77540, Control_c, 0, 64, 78
2, 77555, Control_c, 0, 64, 74
2, 77563, Note_on_c, 0, 76, 0
2, 77570, Control_c, 0, 64, 69
2, 77585, Control_c, 0, 64, 66
2, 77596, Note_on_c, 0, 73, 0
2, 77600, Control_c, 0, 64, 64
2, 77615, Control_c, 0, 64, 62
2, 77616, Note_on_c, 0, 75, 60
2, 77639, Control_c, 0, 64, 61
2, 77639, Note_on_c, 0, 78, 80
2, 77654, Control_c, 0, 64, 59
2, 77669, Control_c, 0, 64, 56
2, 77684, Control_c, 0, 64, 51
2, 77697, Note_on_c, 0, 75, 0
2, 77699, Control_c, 0, 64, 44
2, 77715, Control_c, 0, 64, 31
2, 77717, Note_on_c, 0, 76, 61
2, 77720, Note_on_c, 0, 80, 79
2, 77729, Control_c, 0, 64, 0
2, 77746, Note_on_c, 0, 78, 0
2, 77796, Note_on_c, 0, 76, 0
2, 77812, Note_on_c, 0, 78, 59
2, 77823, Note_on_c, 0, 81, 83
2, 77855, Note_on_c, 0, 80, 0
2, 77886, Note_on_c, 0, 78, 0
2, 77913, Note_on_c, 0, 75, 66
2, 77982, Note_on_c, 0, 75, 0
2, 78015, Note_on_c, 0, 71, 71
2, 78100, Note_on_c, 0, 69, 71
2, 78102, Note_on_c, 0, 71, 0
2, 78167, Note_on_c, 0, 81, 0
2, 78171, Note_on_c, 0, 69, 0
2, 78185, Note_on_c, 0, 75, 86
2, 78208, Note_on_c, 0, 71, 57
2, 78216, Note_on_c, 0, 75, 0
2, 78248, Note_on_c, 0, 71, 0
2, 78273, Note_on_c, 0, 73, 60
2, 78363, Note_on_c, 0, 73, 0
2, 78408, Note_on_c, 0, 71, 44
2, 78410, Note_on_c, 0, 80, 84
2, 78463, Note_on_c, 0, 71, 0
2, 78493, Note_on_c, 0, 69, 47
2, 78572, Note_on_c, 0, 69, 0
2, 78586, Note_on_c, 0, 71, 59
2, 78663, Note_on_c, 0, 71, 0
2, 78677, Note_on_c, 0, 73, 62
2, 78759, Note_on_c, 0, 73, 0
2, 78794, Note_on_c, 0, 69, 53
2, 78862, Note_on_c, 0, 69, 0
2, 78875, Note_on_c, 0, 68, 57
2, 78959, Note_on_c, 0, 68, 0
2, 78976, Note_on_c, 0, 80, 0
2, 78987, Note_on_c, 0, 69, 58
2, 78987, Note_on_c, 0, 78, 69
2, 79031, Note_on_c, 0, 69, 0
2, 79055, Note_on_c, 0, 78, 0
2, 79069, Note_on_c, 0, 76, 62
2, 79071, Note_on_c, 0, 71, 54
2, 79146, Note_on_c, 0, 71, 0
2, 79171, Note_on_c, 0, 69, 51
2, 79176, Note_on_c, 0, 76, 0
2, 79186, Note_on_c, 0, 75, 62
2, 79221, Note_on_c, 0, 69, 0
2, 79272, Note_on_c, 0, 68, 59
2, 79341, Note_on_c, 0, 68, 0
2, 79368, Note_on_c, 0, 59, 76
2, 79394, Note_on_c, 0, 59, 0
2, 79399, Note_on_c, 0, 69, 45
2, 79438, Note_on_c, 0, 75, 0
2, 79445, Note_on_c, 0, 71, 53
2, 79452, Note_on_c, 0, 69, 0
2, 79539, Note_on_c, 0, 71, 0
2, 79569, Note_on_c, 0, 61, 77
2, 79578, Note_on_c, 0, 68, 57
2, 79584, Note_on_c, 0, 76, 53
2, 79651, Note_on_c, 0, 76, 0
2, 79653, Note_on_c, 0, 68, 0
2, 79664, Note_on_c, 0, 75, 66
2, 79746, Note_on_c, 0, 75, 0
2, 79765, Note_on_c, 0, 64, 63
2, 79775, Note_on_c, 0, 76, 61
2, 79794, Note_on_c, 0, 64, 0
2, 79837, Note_on_c, 0, 76, 0
2, 79862, Note_on_c, 0, 78, 57
2, 79954, Note_on_c, 0, 61, 0
2, 79977, Note_on_c, 0, 69, 64
2, 79988, Note_on_c, 0, 78, 0
2, 79993, Note_on_c, 0, 76, 58
2, 80061, Note_on_c, 0, 76, 0
2, 80071, Note_on_c, 0, 54, 45
2, 80077, Note_on_c, 0, 75, 61
2, 80156, Note_on_c, 0, 54, 0
2, 80160, Note_on_c, 0, 76, 58
2, 80162, Note_on_c, 0, 75, 0
2, 80168, Note_on_c, 0, 56, 58
2, 80239, Note_on_c, 0, 76, 0
2, 80239, Note_on_c, 0, 78, 61
2, 80249, Note_on_c, 0, 56, 0
2, 80268, Note_on_c, 0, 57, 54
2, 80328, Note_on_c, 0, 78, 0
2, 80339, Note_on_c, 0, 57, 0
2, 80355, Note_on_c, 0, 75, 57
2, 80362, Note_on_c, 0, 59, 57
2, 80427, Note_on_c, 0, 75, 0
2, 80432, Note_on_c, 0, 59, 0
2, 80441, Note_on_c, 0, 73, 67
2, 80453, Note_on_c, 0, 57, 53
2, 80496, Note_on_c, 0, 57, 0
2, 80538, Note_on_c, 0, 59, 61
2, 80539, Note_on_c, 0, 75, 81
2, 80621, Note_on_c, 0, 59, 0
2, 80626, Note_on_c, 0, 73, 0
2, 80629, Note_on_c, 0, 76, 74
2, 80636, Note_on_c, 0, 61, 60
2, 80681, Note_on_c, 0, 75, 0
2, 80717, Note_on_c, 0, 61, 0
2, 80734, Note_on_c, 0, 78, 87
2, 80742, Note_on_c, 0, 63, 59
2, 80764, Note_on_c, 0, 69, 0
2, 80767, Note_on_c, 0, 76, 0
2, 80810, Note_on_c, 0, 63, 0
2, 80833, Note_on_c, 0, 72, 74
2, 80841, Note_on_c, 0, 64, 61
2, 80911, Note_on_c, 0, 64, 0
2, 80926, Note_on_c, 0, 73, 84
2, 80929, Note_on_c, 0, 63, 62
2, 80963, Note_on_c, 0, 72, 0
2, 80991, Note_on_c, 0, 63, 0
2, 81011, Note_on_c, 0, 75, 81
2, 81015, Note_on_c, 0, 61, 60
2, 81054, Note_on_c, 0, 73, 0
2, 81105, Note_on_c, 0, 61, 0
2, 81106, Note_on_c, 0, 68, 85
2, 81119, Note_on_c, 0, 60, 64
2, 81140, Note_on_c, 0, 75, 0
2, 81201, Note_on_c, 0, 60, 0
2, 81205, Note_on_c, 0, 56, 66
2, 81214, Note_on_c, 0, 78, 0
2, 81308, Note_on_c, 0, 58, 70
2, 81314, Note_on_c, 0, 56, 0
2, 81320, Note_on_c, 0, 76, 83
2, 81391, Note_on_c, 0, 58, 0
2, 81405, Note_on_c, 0, 60, 69
2, 81408, Note_on_c, 0, 75, 85
2, 81427, Note_on_c, 0, 76, 0
2, 81501, Note_on_c, 0, 60, 0
2, 81505, Note_on_c, 0, 61, 72
2, 81518, Note_on_c, 0, 76, 89
2, 81519, Note_on_c, 0, 68, 0
2, 81520, Note_on_c, 0, 75, 0
2, 81587, Note_on_c, 0, 61, 0
2, 81612, Note_on_c, 0, 63, 68
2, 81686, Note_on_c, 0, 63, 0
2, 81720, Note_on_c, 0, 64, 55
2, 81720, Note_on_c, 0, 73, 77
2, 81770, Note_on_c, 0, 73, 0
2, 81788, Note_on_c, 0, 61, 59
2, 81796, Note_on_c, 0, 64, 0
2, 81900, Note_on_c, 0, 61, 0
2, 81904, Note_on_c, 0, 57, 54
2, 81920, Note_on_c, 0, 66, 81
2, 81999, Note_on_c, 0, 57, 0
2, 82015, Note_on_c, 0, 56, 54
2, 82033, Note_on_c, 0, 76, 0
2, 82099, Note_on_c, 0, 56, 0
2, 82120, Note_on_c, 0, 57, 62
2, 82128, Note_on_c, 0, 76, 74
2, 82201, Note_on_c, 0, 57, 0
2, 82215, Note_on_c, 0, 59, 61
2, 82316, Note_on_c, 0, 59, 0
2, 82321, Note_on_c, 0, 75, 77
2, 82321, Note_on_c, 0, 76, 0
2, 82330, Note_on_c, 0, 57, 64
2, 82371, Note_on_c, 0, 75, 0
2, 82399, Note_on_c, 0, 57, 0
2, 82414, Note_on_c, 0, 56, 66
2, 82496, Note_on_c, 0, 56, 0
2, 82515, Note_on_c, 0, 73, 84
2, 82518, Note_on_c, 0, 57, 63
2, 82553, Note_on_c, 0, 73, 0
2, 82558, Note_on_c, 0, 57, 0
2, 82599, Note_on_c, 0, 59, 64
2, 82683, Note_on_c, 0, 59, 0
2, 82705, Note_on_c, 0, 56, 62
2, 82705, Note_on_c, 0, 72, 79
2, 82749, Note_on_c, 0, 72, 0
2, 82768, Note_on_c, 0, 56, 0
2, 82802, Note_on_c, 0, 52, 54
2, 82880, Note_on_c, 0, 52, 0
2, 82892, Note_on_c, 0, 54, 65
2, 82901, Note_on_c, 0, 68, 84
2, 82913, Note_on_c, 0, 66, 0
2, 82934, Note_on_c, 0, 68, 0
2, 82980, Note_on_c, 0, 54, 0
2, 82999, Note_on_c, 0, 56, 66
2, 83080, Note_on_c, 0, 56, 0
2, 83102, Note_on_c, 0, 57, 61
2, 83109, Note_on_c, 0, 73, 82
2, 83112, Note_on_c, 0, 64, 66
2, 83148, Note_on_c, 0, 64, 0
2, 83195, Note_on_c, 0, 57, 0
2, 83201, Note_on_c, 0, 59, 67
2, 83277, Note_on_c, 0, 59, 0
2, 83301, Note_on_c, 0, 61, 66
2, 83303, Note_on_c, 0, 69, 80
2, 83361, Note_on_c, 0, 69, 0
2, 83369, Note_on_c, 0, 61, 0
2, 83391, Note_on_c, 0, 57, 67
2, 83491, Note_on_c, 0, 54, 60
2, 83491, Note_on_c, 0, 57, 0
2, 83494, Note_on_c, 0, 63, 78
2, 83522, Note_on_c, 0, 73, 0
2, 83551, Note_on_c, 0, 63, 0
2, 83573, Note_on_c, 0, 54, 0
2, 83589, Note_on_c, 0, 52, 44
2, 83664, Note_on_c, 0, 52, 0
2, 83686, Note_on_c, 0, 54, 63
2, 83693, Note_on_c, 0, 75, 76
2, 83699, Note_on_c, 0, 66, 68
2, 83730, Note_on_c, 0, 66, 0
2, 83741, Note_on_c, 0, 54, 0
2, 83752, Note_on_c, 0, 75, 0
2, 83776, Note_on_c, 0, 56, 58
2, 83876, Note_on_c, 0, 56, 0
2, 83887, Note_on_c, 0, 54, 62
2, 83896, Note_on_c, 0, 68, 74
2, 83898, Note_on_c, 0, 60, 67
2, 83940, Note_on_c, 0, 60, 0
2, 83970, Note_on_c, 0, 54, 0
2, 83978, Note_on_c, 0, 52, 58
2, 84054, Note_on_c, 0, 52, 0
2, 84094, Note_on_c, 0, 54, 57
2, 84094, Note_on_c, 0, 70, 68
2, 84105, Note_on_c, 0, 63, 49
2, 84115, Note_on_c, 0, 68, 0
2, 84151, Note_on_c, 0, 54, 0
2, 84157, Note_on_c, 0, 63, 0
2, 84160, Note_on_c, 0, 56, 67
2, 84176, Note_on_c, 0, 72, 66
2, 84202, Note_on_c, 0, 56, 0
2, 84211, Note_on_c, 0, 70, 0
2, 84271, Note_on_c, 0, 72, 0
2, 84277, Note_on_c, 0, 73, 64
2, 84288, Note_on_c, 0, 56, 64
2, 84304, Note_on_c, 0, 52, 36
2, 84334, Note_on_c, 0, 73, 0
2, 84336, Note_on_c, 0, 52, 0
2, 84388, Note_on_c, 0, 72, 59
2, 84472, Note_on_c, 0, 72, 0
2, 84478, Note_on_c, 0, 51, 64
2, 84487, Note_on_c, 0, 73, 61
2, 84521, Note_on_c, 0, 51, 0
2, 84570, Note_on_c, 0, 73, 0
2, 84591, Note_on_c, 0, 75, 64
2, 84662, Note_on_c, 0, 75, 0
2, 84678, Note_on_c, 0, 49, 58
2, 84693, Note_on_c, 0, 76, 61
2, 84694, Note_on_c, 0, 56, 0
2, 84720, Note_on_c, 0, 49, 0
2, 84750, Note_on_c, 0, 76, 0
2, 84788, Note_on_c, 0, 78, 58
2, 84866, Note_on_c, 0, 78, 0
2, 84877, Note_on_c, 0, 52, 51
2, 84885, Note_on_c, 0, 80, 65
2, 84905, Note_on_c, 0, 52, 0
2, 84977, Note_on_c, 0, 80, 0
2, 84990, Note_on_c, 0, 76, 53
2, 85068, Note_on_c, 0, 46, 47
2, 85080, Note_on_c, 0, 76, 0
2, 85092, Note_on_c, 0, 73, 57
2, 85095, Note_on_c, 0, 46, 0
2, 85140, Note_on_c, 0, 73, 0
2, 85168, Note_on_c, 0, 71, 56
2, 85253, Note_on_c, 0, 71, 0
2, 85262, Note_on_c, 0, 56, 63
2, 85265, Note_on_c, 0, 73, 62
2, 85296, Note_on_c, 0, 56, 0
2, 85326, Note_on_c, 0, 73, 0
2, 85351, Note_on_c, 0, 75, 64
2, 85466, Note_on_c, 0, 58, 80
2, 85466, Note_on_c, 0, 75, 0
2, 85472, Note_on_c, 0, 55, 38
2, 85473, Note_on_c, 0, 73, 59
2, 85505, Note_on_c, 0, 55, 0
2, 85529, Note_on_c, 0, 73, 0
2, 85562, Note_on_c, 0, 71, 57
2, 85625, Note_on_c, 0, 71, 0
2, 85658, Note_on_c, 0, 51, 60
2, 85661, Note_on_c, 0, 73, 54
2, 85696, Note_on_c, 0, 51, 0
2, 85720, Note_on_c, 0, 73, 0
2, 85744, Note_on_c, 0, 75, 58
2, 85830, Note_on_c, 0, 75, 0
2, 85854, Note_on_c, 0, 71, 61
2, 85867, Note_on_c, 0, 44, 55
2, 85899, Note_on_c, 0, 44, 0
2, 85926, Note_on_c, 0, 71, 0
2, 85946, Note_on_c, 0, 70, 66
2, 86032, Note_on_c, 0, 70, 0
2, 86050, Note_on_c, 0, 71, 69
2, 86057, Note_on_c, 0, 46, 52
2, 86109, Note_on_c, 0, 46, 0
2, 86115, Note_on_c, 0, 58, 0
2, 86139, Note_on_c, 0, 73, 76
2, 86146, Note_on_c, 0, 71, 0
2, 86248, Note_on_c, 0, 73, 0
2, 86248, Note_on_c, 0, 75, 72
2, 86250, Note_on_c, 0, 47, 58
2, 86252, Note_on_c, 0, 56, 68
2, 86300, Note_on_c, 0, 47, 0
2, 86342, Note_on_c, 0, 76, 67
2, 86351, Note_on_c, 0, 75, 0
2, 86438, Note_on_c, 0, 76, 0
2, 86445, Note_on_c, 0, 78, 78
2, 86447, Note_on_c, 0, 46, 59
2, 86486, Note_on_c, 0, 46, 0
2, 86539, Note_on_c, 0, 75, 70
2, 86541, Note_on_c, 0, 78, 0
2, 86625, Note_on_c, 0, 75, 0
2, 86628, Note_on_c, 0, 56, 0
2, 86639, Note_on_c, 0, 44, 72
2, 86643, Note_on_c, 0, 71, 67
2, 86677, Note_on_c, 0, 44, 0
2, 86713, Note_on_c, 0, 71, 0
2, 86735, Note_on_c, 0, 69, 62
2, 86811, Note_on_c, 0, 69, 0
2, 86830, Note_on_c, 0, 54, 72
2, 86841, Note_on_c, 0, 71, 68
2, 86871, Note_on_c, 0, 54, 0
2, 86910, Note_on_c, 0, 71, 0
2, 86928, Note_on_c, 0, 73, 58
2, 87034, Note_on_c, 0, 73, 0
2, 87041, Note_on_c, 0, 56, 70
2, 87043, Note_on_c, 0, 53, 51
2, 87056, Note_on_c, 0, 71, 56
2, 87081, Note_on_c, 0, 53, 0
2, 87114, Note_on_c, 0, 71, 0
2, 87147, Note_on_c, 0, 69, 52
2, 87211, Note_on_c, 0, 69, 0
2, 87248, Note_on_c, 0, 49, 49
2, 87254, Note_on_c, 0, 71, 54
2, 87283, Note_on_c, 0, 49, 0
2, 87324, Note_on_c, 0, 71, 0
2, 87346, Note_on_c, 0, 73, 53
2, 87415, Note_on_c, 0, 73, 0
2, 87442, Note_on_c, 0, 42, 56
2, 87448, Note_on_c, 0, 69, 53
2, 87486, Note_on_c, 0, 42, 0
2, 87502, Note_on_c, 0, 69, 0
2, 87543, Note_on_c, 0, 68, 51
2, 87627, Note_on_c, 0, 68, 0
2, 87642, Note_on_c, 0, 69, 53
2, 87654, Note_on_c, 0, 44, 46
2, 87698, Note_on_c, 0, 44, 0
2, 87704, Note_on_c, 0, 56, 0
2, 87719, Note_on_c, 0, 69, 0
2, 87729, Note_on_c, 0, 71, 61
2, 87823, Note_on_c, 0, 71, 0
2, 87836, Note_on_c, 0, 45, 48
2, 87845, Note_on_c, 0, 54, 51
2, 87845, Note_on_c, 0, 73, 57
2, 87884, Note_on_c, 0, 45, 0
2, 87934, Note_on_c, 0, 73, 0
2, 87948, Note_on_c, 0, 75, 54
2, 88041, Note_on_c, 0, 44, 53
2, 88047, Note_on_c, 0, 76, 58
2, 88057, Note_on_c, 0, 75, 0
2, 88081, Note_on_c, 0, 44, 0
2, 88123, Note_on_c, 0, 76, 0
2, 88139, Note_on_c, 0, 73, 64
2, 88228, Note_on_c, 0, 42, 71
2, 88234, Note_on_c, 0, 73, 0
2, 88246, Note_on_c, 0, 75, 72
2, 88247, Note_on_c, 0, 54, 0
2, 88266, Note_on_c, 0, 42, 0
2, 88336, Note_on_c, 0, 75, 0
2, 88337, Note_on_c, 0, 73, 74
2, 88432, Note_on_c, 0, 52, 79
2, 88447, Note_on_c, 0, 75, 82
2, 88457, Note_on_c, 0, 73, 0
2, 88465, Note_on_c, 0, 52, 0
2, 88521, Note_on_c, 0, 75, 0
2, 88533, Note_on_c, 0, 76, 80
2, 88621, Note_on_c, 0, 54, 79
2, 88629, Note_on_c, 0, 51, 70
2, 88641, Note_on_c, 0, 78, 84
2, 88648, Note_on_c, 0, 76, 0
2, 88664, Note_on_c, 0, 51, 0
2, 88732, Note_on_c, 0, 80, 75
2, 88756, Note_on_c, 0, 78, 0
2, 88811, Note_on_c, 0, 49, 68
2, 88826, Note_on_c, 0, 81, 75
2, 88859, Note_on_c, 0, 80, 0
2, 88861, Note_on_c, 0, 49, 0
2, 88916, Note_on_c, 0, 78, 76
2, 88930, Note_on_c, 0, 81, 0
2, 89004, Note_on_c, 0, 48, 62
2, 89012, Note_on_c, 0, 80, 77
2, 89013, Note_on_c, 0, 78, 0
2, 89039, Note_on_c, 0, 48, 0
2, 89107, Note_on_c, 0, 78, 81
2, 89120, Note_on_c, 0, 80, 0
2, 89196, Note_on_c, 0, 78, 0
2, 89208, Note_on_c, 0, 76, 82
2, 89209, Note_on_c, 0, 44, 62
2, 89245, Note_on_c, 0, 44, 0
2, 89251, Note_on_c, 0, 54, 0
2, 89298, Note_on_c, 0, 75, 81
2, 89319, Note_on_c, 0, 76, 0
2, 89388, Note_on_c, 0, 52, 75
2, 89394, Note_on_c, 0, 45, 70
2, 89397, Note_on_c, 0, 73, 81
2, 89413, Note_on_c, 0, 52, 0
2, 89420, Note_on_c, 0, 45, 0
2, 89424, Note_on_c, 0, 75, 0
2, 89486, Note_on_c, 0, 71, 80
2, 89502, Note_on_c, 0, 73, 0
2, 89563, Note_on_c, 0, 71, 0
2, 89587, Note_on_c, 0, 61, 91
2, 89594, Note_on_c, 0, 69, 78
2, 89602, Note_on_c, 0, 52, 77
2, 89627, Note_on_c, 0, 61, 0
2, 89628, Note_on_c, 0, 52, 0
2, 89676, Note_on_c, 0, 69, 0
2, 89689, Note_on_c, 0, 68, 66
2, 89791, Note_on_c, 0, 68, 0
2, 89803, Note_on_c, 0, 54, 69
2, 89805, Note_on_c, 0, 63, 86
2, 89811, Note_on_c, 0, 66, 74
2, 89878, Note_on_c, 0, 54, 0
2, 89913, Note_on_c, 0, 68, 71
2, 89922, Note_on_c, 0, 52, 54
2, 89925, Control_c, 0, 64, 34
2, 89927, Note_on_c, 0, 66, 0
2, 89940, Control_c, 0, 64, 53
2, 89956, Control_c, 0, 64, 62
2, 89970, Control_c, 0, 64, 67
2, 89985, Control_c, 0, 64, 72
2, 90001, Control_c, 0, 64, 78
2, 90007, Note_on_c, 0, 52, 0
2, 90009, Note_on_c, 0, 69, 75
2, 90010, Note_on_c, 0, 54, 74
2, 90013, Note_on_c, 0, 63, 0
2, 90016, Control_c, 0, 64, 84
2, 90032, Control_c, 0, 64, 86
2, 90037, Note_on_c, 0, 54, 0
2, 90040, Note_on_c, 0, 68, 0
2, 90046, Control_c, 0, 64, 86
2, 90061, Control_c, 0, 64, 84
2, 90077, Control_c, 0, 64, 84
2, 90092, Control_c, 0, 64, 83
2, 90094, Note_on_c, 0, 69, 0
2, 90101, Note_on_c, 0, 66, 71
2, 90107, Control_c, 0, 64, 83
2, 90123, Control_c, 0, 64, 82
2, 90138, Control_c, 0, 64, 78
2, 90154, Control_c, 0, 64, 73
2, 90168, Control_c, 0, 64, 65
2, 90183, Control_c, 0, 64, 47
2, 90199, Control_c, 0, 64, 0
2, 90203, Note_on_c, 0, 56, 75
2, 90208, Note_on_c, 0, 63, 69
2, 90208, Note_on_c, 0, 66, 0
2, 90235, Note_on_c, 0, 56, 0
2, 90272, Note_on_c, 0, 63, 0
2, 90299, Note_on_c, 0, 56, 67
2, 90367, Note_on_c, 0, 56, 0
2, 90393, Note_on_c, 0, 44, 62
2, 90398, Note_on_c, 0, 68, 64
2, 90401, Note_on_c, 0, 58, 67
2, 90427, Note_on_c, 0, 44, 0
2, 90438, Note_on_c, 0, 58, 0
2, 90489, Note_on_c, 0, 60, 63
2, 90495, Note_on_c, 0, 68, 0
2, 90569, Note_on_c, 0, 60, 0
2, 90581, Note_on_c, 0, 49, 52
2, 90588, Note_on_c, 0, 64, 57
2, 90589, Note_on_c, 0, 61, 60
2, 90619, Note_on_c, 0, 61, 0
2, 90619, Note_on_c, 0, 64, 0
2, 90624, Control_c, 0, 64, 58
2, 90634, Note_on_c, 0, 49, 0
2, 90640, Control_c, 0, 64, 68
2, 90655, Control_c, 0, 64, 79
2, 90677, Control_c, 0, 64, 110
2, 90692, Control_c, 0, 64, 127
2, 90697, Note_on_c, 0, 60, 65
2, 90753, Control_c, 0, 64, 111
2, 90768, Control_c, 0, 64, 87
2, 90777, Note_on_c, 0, 60, 0
2, 90783, Control_c, 0, 64, 72
2, 90788, Note_on_c, 0, 61, 66
2, 90789, Note_on_c, 0, 68, 72
2, 90799, Control_c, 0, 64, 57
2, 90814, Control_c, 0, 64, 0
2, 90817, Note_on_c, 0, 68, 0
2, 90867, Note_on_c, 0, 61, 0
2, 90882, Note_on_c, 0, 63, 70
2, 90961, Note_on_c, 0, 63, 0
2, 90983, Note_on_c, 0, 64, 66
2, 90984, Note_on_c, 0, 73, 86
2, 91018, Note_on_c, 0, 73, 0
2, 91060, Note_on_c, 0, 64, 0
2, 91071, Note_on_c, 0, 66, 67
2, 91148, Note_on_c, 0, 66, 0
2, 91175, Note_on_c, 0, 68, 64
2, 91183, Note_on_c, 0, 71, 81
2, 91222, Note_on_c, 0, 71, 0
2, 91229, Note_on_c, 0, 68, 0
2, 91274, Note_on_c, 0, 64, 56
2, 91383, Note_on_c, 0, 64, 0
2, 91389, Note_on_c, 0, 61, 48
2, 91398, Note_on_c, 0, 76, 70
2, 91495, Note_on_c, 0, 61, 0
2, 91499, Note_on_c, 0, 59, 51
2, 91500, Note_on_c, 0, 75, 75
2, 91548, Note_on_c, 0, 76, 0
2, 91587, Note_on_c, 0, 59, 0
2, 91603, Note_on_c, 0, 73, 76
2, 91612, Note_on_c, 0, 61, 59
2, 91654, Note_on_c, 0, 75, 0
2, 91674, Note_on_c, 0, 61, 0
2, 91694, Note_on_c, 0, 63, 57
2, 91697, Note_on_c, 0, 71, 79
2, 91728, Note_on_c, 0, 73, 0
2, 91777, Note_on_c, 0, 63, 0
2, 91785, Note_on_c, 0, 71, 0
2, 91795, Note_on_c, 0, 69, 76
2, 91797, Note_on_c, 0, 61, 54
2, 91868, Note_on_c, 0, 61, 0
2, 91882, Note_on_c, 0, 59, 54
2, 91962, Note_on_c, 0, 59, 0
2, 91997, Note_on_c, 0, 61, 56
2, 92047, Note_on_c, 0, 61, 0
2, 92076, Note_on_c, 0, 63, 60
2, 92147, Note_on_c, 0, 63, 0
2, 92181, Note_on_c, 0, 59, 60
2, 92272, Note_on_c, 0, 59, 0
2, 92278, Note_on_c, 0, 56, 64
2, 92327, Note_on_c, 0, 69, 0
2, 92358, Note_on_c, 0, 56, 0
2, 92359, Note_on_c, 0, 57, 59
2, 92364, Note_on_c, 0, 63, 75
2, 92409, Note_on_c, 0, 63, 0
2, 92427, Note_on_c, 0, 57, 0
2, 92452, Note_on_c, 0, 59, 62
2, 92539, Note_on_c, 0, 59, 0
2, 92555, Note_on_c, 0, 61, 62
2, 92560, Note_on_c, 0, 69, 76
2, 92583, Note_on_c, 0, 69, 0
2, 92636, Note_on_c, 0, 61, 0
2, 92659, Note_on_c, 0, 63, 64
2, 92726, Note_on_c, 0, 63, 0
2, 92752, Note_on_c, 0, 68, 72
2, 92767, Note_on_c, 0, 64, 49
2, 92797, Note_on_c, 0, 68, 0
2, 92820, Note_on_c, 0, 64, 0
2, 92849, Note_on_c, 0, 61, 47
2, 92947, Note_on_c, 0, 61, 0
2, 92955, Note_on_c, 0, 57, 45
2, 92955, Note_on_c, 0, 73, 55
2, 93046, Note_on_c, 0, 71, 57
2, 93057, Note_on_c, 0, 57, 0
2, 93079, Note_on_c, 0, 73, 0
2, 93086, Note_on_c, 0, 56, 44
2, 93144, Note_on_c, 0, 69, 57
2, 93149, Note_on_c, 0, 56, 0
2, 93156, Note_on_c, 0, 71, 0
2, 93196, Note_on_c, 0, 57, 44
2, 93239, Note_on_c, 0, 57, 0
2, 93244, Note_on_c, 0, 68, 62
2, 93250, Note_on_c, 0, 69, 0
2, 93267, Note_on_c, 0, 59, 44
2, 93339, Note_on_c, 0, 59, 0
2, 93356, Note_on_c, 0, 66, 54
2, 93358, Note_on_c, 0, 57, 40
2, 93359, Note_on_c, 0, 68, 0
2, 93426, Note_on_c, 0, 57, 0
2, 93463, Note_on_c, 0, 56, 47
2, 93540, Note_on_c, 0, 56, 0
2, 93556, Note_on_c, 0, 57, 51
2, 93618, Note_on_c, 0, 57, 0
2, 93653, Note_on_c, 0, 59, 44
2, 93766, Note_on_c, 0, 59, 0
2, 93773, Note_on_c, 0, 56, 53
2, 93835, Note_on_c, 0, 56, 0
2, 93842, Note_on_c, 0, 66, 0
2, 93859, Note_on_c, 0, 54, 50
2, 93941, Note_on_c, 0, 54, 0
2, 93960, Note_on_c, 0, 64, 52
2, 93961, Note_on_c, 0, 56, 51
2, 94017, Note_on_c, 0, 56, 0
2, 94034, Note_on_c, 0, 64, 0
2, 94039, Note_on_c, 0, 57, 49
2, 94050, Note_on_c, 0, 63, 56
2, 94103, Note_on_c, 0, 57, 0
2, 94123, Note_on_c, 0, 63, 0
2, 94139, Note_on_c, 0, 56, 67
2, 94149, Note_on_c, 0, 64, 64
2, 94168, Note_on_c, 0, 56, 0
2, 94209, Note_on_c, 0, 64, 0
2, 94228, Note_on_c, 0, 66, 65
2, 94320, Note_on_c, 0, 66, 0
2, 94337, Note_on_c, 0, 52, 78
2, 94340, Note_on_c, 0, 68, 66
2, 94345, Note_on_c, 0, 59, 59
2, 94365, Note_on_c, 0, 52, 0
2, 94396, Note_on_c, 0, 68, 0
2, 94421, Note_on_c, 0, 64, 64
2, 94547, Note_on_c, 0, 64, 0
2, 94554, Note_on_c, 0, 54, 78
2, 94558, Note_on_c, 0, 61, 56
2, 94573, Note_on_c, 0, 59, 0
2, 94649, Note_on_c, 0, 68, 64
2, 94650, Note_on_c, 0, 61, 0
2, 94752, Note_on_c, 0, 68, 0
2, 94754, Note_on_c, 0, 66, 61
2, 94760, Note_on_c, 0, 57, 43
2, 94815, Note_on_c, 0, 57, 0
2, 94819, Note_on_c, 0, 66, 0
2, 94840, Note_on_c, 0, 54, 0
2, 94849, Note_on_c, 0, 56, 51
2, 94854, Note_on_c, 0, 64, 53
2, 94916, Note_on_c, 0, 56, 0
2, 94943, Note_on_c, 0, 57, 46
2, 94962, Note_on_c, 0, 64, 0
2, 94970, Note_on_c, 0, 63, 46
2, 95050, Note_on_c, 0, 61, 47
2, 95062, Note_on_c, 0, 47, 50
2, 95062, Note_on_c, 0, 57, 0
2, 95126, Note_on_c, 0, 47, 0
2, 95138, Note_on_c, 0, 63, 0
2, 95147, Note_on_c, 0, 61, 0
2, 95151, Note_on_c, 0, 49, 56
2, 95154, Note_on_c, 0, 59, 58
2, 95209, Note_on_c, 0, 59, 0
2, 95231, Note_on_c, 0, 49, 0
2, 95236, Note_on_c, 0, 57, 48
2, 95240, Note_on_c, 0, 51, 60
2, 95315, Note_on_c, 0, 57, 0
2, 95326, Note_on_c, 0, 51, 0
2, 95347, Note_on_c, 0, 52, 57
2, 95351, Note_on_c, 0, 56, 53
2, 95418, Note_on_c, 0, 52, 0
2, 95452, Note_on_c, 0, 51, 56
2, 95453, Note_on_c, 0, 56, 0
2, 95454, Control_c, 0, 64, 44
2, 95458, Note_on_c, 0, 59, 52
2, 95469, Control_c, 0, 64, 53
2, 95484, Control_c, 0, 64, 56
2, 95499, Control_c, 0, 64, 58
2, 95506, Note_on_c, 0, 51, 0
2, 95515, Control_c, 0, 64, 59
2, 95535, Note_on_c, 0, 61, 62
2, 95536, Note_on_c, 0, 59, 0
2, 95543, Note_on_c, 0, 52, 54
2, 95546, Control_c, 0, 64, 59
2, 95561, Control_c, 0, 64, 58
2, 95576, Control_c, 0, 64, 57
2, 95592, Control_c, 0, 64, 56
2, 95606, Control_c, 0, 64, 55
2, 95617, Note_on_c, 0, 52, 0
2, 95621, Control_c, 0, 64, 53
2, 95637, Control_c, 0, 64, 50
2, 95637, Note_on_c, 0, 63, 67
2, 95640, Note_on_c, 0, 61, 0
2, 95649, Note_on_c, 0, 54, 56
2, 95652, Control_c, 0, 64, 47
2, 95668, Control_c, 0, 64, 44
2, 95682, Control_c, 0, 64, 40
2, 95697, Control_c, 0, 64, 32
2, 95713, Control_c, 0, 64, 20
2, 95714, Note_on_c, 0, 63, 0
2, 95722, Note_on_c, 0, 54, 0
2, 95727, Control_c, 0, 64, 0
2, 95729, Note_on_c, 0, 56, 59
2, 95738, Note_on_c, 0, 64, 64
2, 95807, Note_on_c, 0, 56, 0
2, 95821, Note_on_c, 0, 57, 63
2, 95830, Note_on_c, 0, 66, 75
2, 95847, Note_on_c, 0, 64, 0
2, 95876, Note_on_c, 0, 57, 0
2, 95918, Note_on_c, 0, 68, 83
2, 95919, Note_on_c, 0, 59, 61
2, 95937, Note_on_c, 0, 66, 0
2, 95993, Note_on_c, 0, 59, 0
2, 96007, Note_on_c, 0, 64, 77
2, 96011, Note_on_c, 0, 56, 56
2, 96012, Note_on_c, 0, 68, 0
2, 96109, Note_on_c, 0, 56, 0
2, 96120, Note_on_c, 0, 64, 0
2, 96130, Note_on_c, 0, 52, 49
2, 96135, Note_on_c, 0, 73, 82
2, 96218, Note_on_c, 0, 52, 0
2, 96237, Note_on_c, 0, 51, 61
2, 96322, Note_on_c, 0, 51, 0
2, 96333, Note_on_c, 0, 52, 62
2, 96426, Note_on_c, 0, 52, 0
2, 96426, Note_on_c, 0, 54, 67
2, 96472, Note_on_c, 0, 73, 0
2, 96533, Note_on_c, 0, 52, 72
2, 96533, Note_on_c, 0, 54, 0
2, 96607, Note_on_c, 0, 51, 71
2, 96613, Note_on_c, 0, 52, 0
2, 96633, Note_on_c, 0, 66, 72
2, 96702, Note_on_c, 0, 51, 0
2, 96716, Note_on_c, 0, 52, 68
2, 96720, Note_on_c, 0, 68, 83
2, 96745, Note_on_c, 0, 66, 0
2, 96787, Note_on_c, 0, 52, 0
2, 96796, Note_on_c, 0, 54, 76
2, 96811, Note_on_c, 0, 70, 81
2, 96851, Note_on_c, 0, 68, 0
2, 96897, Note_on_c, 0, 54, 0
2, 96899, Note_on_c, 0, 70, 0
2, 96910, Note_on_c, 0, 51, 81
2, 96915, Note_on_c, 0, 71, 85
2, 96938, Note_on_c, 0, 51, 0
2, 97004, Note_on_c, 0, 70, 84
2, 97012, Note_on_c, 0, 71, 0
2, 97096, Note_on_c, 0, 70, 0
2, 97105, Note_on_c, 0, 54, 77
2, 97108, Note_on_c, 0, 71, 86
2, 97134, Note_on_c, 0, 54, 0
2, 97194, Note_on_c, 0, 73, 87
2, 97226, Note_on_c, 0, 71, 0
2, 97287, Note_on_c, 0, 47, 83
2, 97291, Note_on_c, 0, 75, 84
2, 97300, Note_on_c, 0, 73, 0
2, 97315, Note_on_c, 0, 47, 0
2, 97374, Note_on_c, 0, 75, 0
2, 97386, Note_on_c, 0, 76, 82
2, 97491, Note_on_c, 0, 64, 90
2, 97493, Note_on_c, 0, 52, 86
2, 97493, Note_on_c, 0, 76, 0
2, 97495, Note_on_c, 0, 78, 74
2, 97528, Note_on_c, 0, 64, 0
2, 97602, Note_on_c, 0, 78, 0
2, 97602, Note_on_c, 0, 80, 65
2, 97631, Note_on_c, 0, 80, 0
2, 97752, Note_on_c, 0, 66, 91
2, 97767, Note_on_c, 0, 69, 75
2, 97858, Note_on_c, 0, 69, 0
2, 97867, Note_on_c, 0, 68, 71
2, 97927, Note_on_c, 0, 52, 0
2, 97964, Note_on_c, 0, 51, 63
2, 97979, Note_on_c, 0, 68, 0
2, 97982, Note_on_c, 0, 69, 62
2, 98043, Note_on_c, 0, 69, 0
2, 98057, Note_on_c, 0, 51, 0
2, 98065, Note_on_c, 0, 71, 61
2, 98067, Note_on_c, 0, 49, 64
2, 98141, Note_on_c, 0, 66, 0
2, 98163, Note_on_c, 0, 69, 74
2, 98166, Note_on_c, 0, 49, 0
2, 98170, Note_on_c, 0, 51, 78
2, 98196, Note_on_c, 0, 51, 0
2, 98201, Note_on_c, 0, 71, 0
2, 98251, Note_on_c, 0, 68, 76
2, 98257, Note_on_c, 0, 59, 64
2, 98257, Note_on_c, 0, 69, 0
2, 98314, Note_on_c, 0, 59, 0
2, 98361, Note_on_c, 0, 68, 0
2, 98364, Note_on_c, 0, 59, 55
2, 98373, Note_on_c, 0, 61, 77
2, 98377, Note_on_c, 0, 69, 69
2, 98426, Note_on_c, 0, 59, 0
2, 98443, Note_on_c, 0, 71, 64
2, 98458, Note_on_c, 0, 61, 0
2, 98459, Note_on_c, 0, 63, 70
2, 98459, Note_on_c, 0, 69, 0
2, 98552, Note_on_c, 0, 71, 0
2, 98554, Note_on_c, 0, 63, 0
2, 98568, Note_on_c, 0, 61, 71
2, 98569, Note_on_c, 0, 64, 72
2, 98571, Note_on_c, 0, 68, 73
2, 98661, Note_on_c, 0, 64, 0
2, 98669, Note_on_c, 0, 63, 72
2, 98670, Note_on_c, 0, 66, 70
2, 98673, Note_on_c, 0, 68, 0
2, 98739, Note_on_c, 0, 63, 0
2, 98762, Note_on_c, 0, 64, 68
2, 98765, Note_on_c, 0, 68, 81
2, 98780, Note_on_c, 0, 66, 0
2, 98840, Note_on_c, 0, 64, 0
2, 98842, Note_on_c, 0, 68, 0
2, 98850, Note_on_c, 0, 69, 86
2, 98853, Note_on_c, 0, 66, 62
2, 98913, Note_on_c, 0, 61, 0
2, 98929, Note_on_c, 0, 66, 0
2, 98953, Note_on_c, 0, 71, 76
2, 98956, Note_on_c, 0, 69, 0
2, 98958, Note_on_c, 0, 68, 75
2, 99035, Note_on_c, 0, 73, 73
2, 99044, Note_on_c, 0, 68, 0
2, 99061, Note_on_c, 0, 69, 67
2, 99068, Note_on_c, 0, 71, 0
2, 99132, Note_on_c, 0, 69, 0
2, 99166, Note_on_c, 0, 74, 82
2, 99169, Note_on_c, 0, 56, 55
2, 99175, Note_on_c, 0, 71, 57
2, 99208, Note_on_c, 0, 71, 0
2, 99210, Note_on_c, 0, 56, 0
2, 99216, Note_on_c, 0, 73, 0
2, 99260, Note_on_c, 0, 68, 62
2, 99320, Note_on_c, 0, 68, 0
2, 99353, Note_on_c, 0, 64, 52
2, 99376, Note_on_c, 0, 57, 64
2, 99415, Note_on_c, 0, 57, 0
2, 99441, Note_on_c, 0, 64, 0
2, 99459, Note_on_c, 0, 63, 64
2, 99466, Note_on_c, 0, 74, 0
2, 99523, Note_on_c, 0, 63, 0
2, 99569, Note_on_c, 0, 56, 67
2, 99578, Note_on_c, 0, 64, 48
2, 99583, Note_on_c, 0, 73, 78
2, 99614, Note_on_c, 0, 56, 0
2, 99630, Note_on_c, 0, 64, 0
2, 99670, Note_on_c, 0, 71, 69
2, 99676, Note_on_c, 0, 66, 54
2, 99684, Note_on_c, 0, 73, 0
2, 99727, Note_on_c, 0, 66, 0
2, 99771, Note_on_c, 0, 73, 81
2, 99772, Note_on_c, 0, 57, 60
2, 99772, Note_on_c, 0, 71, 0
2, 99775, Note_on_c, 0, 64, 53
2, 99808, Note_on_c, 0, 57, 0
2, 99831, Note_on_c, 0, 64, 0
2, 99878, Note_on_c, 0, 63, 63
2, 99954, Note_on_c, 0, 63, 0
2, 99977, Note_on_c, 0, 52, 63
2, 99981, Note_on_c, 0, 64, 55
2, 100021, Note_on_c, 0, 52, 0
2, 100055, Note_on_c, 0, 64, 0
2, 100076, Note_on_c, 0, 66, 58
2, 100174, Note_on_c, 0, 54, 67
2, 100179, Note_on_c, 0, 66, 0
2, 100193, Note_on_c, 0, 63, 61
2, 100236, Note_on_c, 0, 54, 0
2, 100267, Note_on_c, 0, 63, 0
2, 100281, Note_on_c, 0, 61, 60
2, 100341, Note_on_c, 0, 61, 0
2, 100373, Note_on_c, 0, 57, 64
2, 100390, Note_on_c, 0, 63, 64
2, 100408, Note_on_c, 0, 57, 0
2, 100458, Note_on_c, 0, 63, 0
2, 100467, Note_on_c, 0, 73, 0
2, 100468, Note_on_c, 0, 64, 57
2, 100566, Note_on_c, 0, 64, 0
2, 100569, Note_on_c, 0, 56, 62
2, 100578, Note_on_c, 0, 71, 65
2, 100581, Note_on_c, 0, 66, 54
2, 100608, Note_on_c, 0, 56, 0
2, 100641, Note_on_c, 0, 66, 0
2, 100687, Note_on_c, 0, 68, 57
2, 100764, Note_on_c, 0, 68, 0
2, 100779, Note_on_c, 0, 69, 58
2, 100782, Note_on_c, 0, 54, 63
2, 100822, Note_on_c, 0, 54, 0
2, 100887, Note_on_c, 0, 66, 52
2, 100902, Note_on_c, 0, 69, 0
2, 100932, Note_on_c, 0, 71, 0
2, 100965, Note_on_c, 0, 66, 0
2, 100969, Note_on_c, 0, 52, 62
2, 100990, Note_on_c, 0, 62, 60
2, 101003, Note_on_c, 0, 52, 0
2, 101068, Note_on_c, 0, 62, 0
2, 101079, Note_on_c, 0, 61, 60
2, 101161, Note_on_c, 0, 61, 0
2, 101172, Note_on_c, 0, 54, 58
2, 101193, Note_on_c, 0, 62, 56
2, 101218, Note_on_c, 0, 54, 0
2, 101240, Note_on_c, 0, 62, 0
2, 101262, Note_on_c, 0, 64, 56
2, 101369, Note_on_c, 0, 64, 0
2, 101378, Note_on_c, 0, 56, 50
2, 101378, Note_on_c, 0, 71, 68
2, 101385, Note_on_c, 0, 62, 50
2, 101418, Note_on_c, 0, 56, 0
2, 101437, Note_on_c, 0, 62, 0
2, 101480, Note_on_c, 0, 61, 56
2, 101545, Note_on_c, 0, 61, 0
2, 101573, Note_on_c, 0, 52, 53
2, 101589, Note_on_c, 0, 62, 40
2, 101609, Note_on_c, 0, 52, 0
2, 101639, Note_on_c, 0, 62, 0
2, 101667, Note_on_c, 0, 64, 49
2, 101759, Note_on_c, 0, 64, 0
2, 101778, Note_on_c, 0, 57, 55
2, 101785, Note_on_c, 0, 61, 54
2, 101812, Note_on_c, 0, 57, 0
2, 101866, Note_on_c, 0, 61, 0
2, 101892, Note_on_c, 0, 59, 56
2, 101954, Note_on_c, 0, 59, 0
2, 101972, Note_on_c, 0, 59, 53
2, 101991, Note_on_c, 0, 61, 58
2, 102000, Note_on_c, 0, 71, 0
2, 102012, Note_on_c, 0, 59, 0
2, 102060, Note_on_c, 0, 61, 0
2, 102082, Note_on_c, 0, 62, 53
2, 102133, Note_on_c, 0, 62, 0
2, 102171, Note_on_c, 0, 61, 64
2, 102171, Note_on_c, 0, 69, 62
2, 102174, Note_on_c, 0, 64, 53
2, 102213, Note_on_c, 0, 61, 0
2, 102229, Note_on_c, 0, 64, 0
2, 102282, Note_on_c, 0, 66, 52
2, 102348, Note_on_c, 0, 66, 0
2, 102372, Note_on_c, 0, 68, 57
2, 102378, Note_on_c, 0, 59, 68
2, 102412, Note_on_c, 0, 59, 0
2, 102468, Note_on_c, 0, 69, 0
2, 102481, Note_on_c, 0, 64, 59
2, 102534, Note_on_c, 0, 68, 0
2, 102572, Note_on_c, 0, 57, 69
2, 102578, Note_on_c, 0, 64, 0
2, 102581, Note_on_c, 0, 61, 63
2, 102604, Note_on_c, 0, 57, 0
2, 102657, Note_on_c, 0, 61, 0
2, 102671, Note_on_c, 0, 59, 66
2, 102772, Note_on_c, 0, 61, 75
2, 102773, Note_on_c, 0, 52, 68
2, 102775, Note_on_c, 0, 59, 0
2, 102805, Note_on_c, 0, 52, 0
2, 102846, Note_on_c, 0, 61, 0
2, 102854, Note_on_c, 0, 62, 69
2, 102929, Note_on_c, 0, 62, 0
2, 102957, Note_on_c, 0, 69, 86
2, 102967, Note_on_c, 0, 54, 74
2, 102981, Note_on_c, 0, 61, 66
2, 102994, Note_on_c, 0, 54, 0
2, 103023, Note_on_c, 0, 61, 0
2, 103066, Note_on_c, 0, 59, 69
2, 103153, Note_on_c, 0, 59, 0
2, 103156, Note_on_c, 0, 61, 65
2, 103161, Note_on_c, 0, 49, 77
2, 103192, Note_on_c, 0, 49, 0
2, 103227, Note_on_c, 0, 61, 0
2, 103248, Note_on_c, 0, 62, 61
2, 103355, Note_on_c, 0, 62, 0
2, 103361, Note_on_c, 0, 51, 93
2, 103370, Note_on_c, 0, 59, 74
2, 103406, Note_on_c, 0, 51, 0
2, 103448, Note_on_c, 0, 59, 0
2, 103455, Note_on_c, 0, 57, 70
2, 103529, Note_on_c, 0, 57, 0
2, 103562, Note_on_c, 0, 47, 80
2, 103568, Note_on_c, 0, 59, 72
2, 103604, Note_on_c, 0, 59, 0
2, 103611, Note_on_c, 0, 47, 0
2, 103666, Note_on_c, 0, 61, 73
2, 103730, Note_on_c, 0, 69, 0
2, 103752, Note_on_c, 0, 61, 0
2, 103777, Note_on_c, 0, 52, 70
2, 103780, Note_on_c, 0, 68, 89
2, 103785, Note_on_c, 0, 59, 70
2, 103815, Note_on_c, 0, 68, 0
2, 103868, Note_on_c, 0, 57, 77
2, 103874, Note_on_c, 0, 59, 0
2, 103975, Note_on_c, 0, 76, 98
2, 103983, Note_on_c, 0, 59, 77
2, 103986, Note_on_c, 0, 57, 0
2, 104008, Note_on_c, 0, 76, 0
2, 104073, Note_on_c, 0, 61, 72
2, 104084, Note_on_c, 0, 59, 0
2, 104195, Note_on_c, 0, 61, 0
2, 104219, Note_on_c, 0, 57, 59
2, 104222, Note_on_c, 0, 78, 98
2, 104305, Note_on_c, 0, 57, 0
2, 104317, Note_on_c, 0, 56, 57
2, 104328, Control_c, 0, 64, 50
2, 104343, Control_c, 0, 64, 65
2, 104359, Control_c, 0, 64, 77
2, 104374, Control_c, 0, 64, 127
2, 104399, Note_on_c, 0, 79, 21
2, 104416, Note_on_c, 0, 52, 0
2, 104417, Note_on_c, 0, 78, 0
2, 104426, Note_on_c, 0, 57, 68
2, 104428, Note_on_c, 0, 56, 0
2, 104435, Note_on_c, 0, 79, 0
2, 104518, Note_on_c, 0, 59, 77
2, 104519, Note_on_c, 0, 57, 0
2, 104639, Note_on_c, 0, 51, 77
2, 104645, Note_on_c, 0, 59, 0
2, 104647, Note_on_c, 0, 57, 76
2, 104670, Control_c, 0, 64, 88
2, 104685, Control_c, 0, 64, 70
2, 104700, Control_c, 0, 64, 49
2, 104716, Control_c, 0, 64, 0
2, 104740, Note_on_c, 0, 57, 0
2, 104742, Note_on_c, 0, 56, 74
2, 104750, Note_on_c, 0, 71, 79
2, 104835, Note_on_c, 0, 57, 78
2, 104840, Note_on_c, 0, 73, 81
2, 104851, Note_on_c, 0, 56, 0
2, 104873, Note_on_c, 0, 71, 0
2, 104908, Note_on_c, 0, 57, 0
2, 104924, Note_on_c, 0, 75, 86
2, 104931, Note_on_c, 0, 59, 71
2, 104962, Note_on_c, 0, 73, 0
2, 105001, Note_on_c, 0, 59, 0
2, 105023, Note_on_c, 0, 56, 68
2, 105026, Note_on_c, 0, 76, 83
2, 105046, Note_on_c, 0, 75, 0
2, 105055, Note_on_c, 0, 56, 0
2, 105115, Note_on_c, 0, 75, 83
2, 105124, Note_on_c, 0, 76, 0
2, 105189, Note_on_c, 0, 51, 0
2, 105213, Note_on_c, 0, 75, 0
2, 105222, Note_on_c, 0, 76, 90
2, 105225, Note_on_c, 0, 59, 69
2, 105254, Note_on_c, 0, 59, 0
2, 105319, Note_on_c, 0, 78, 87
2, 105350, Note_on_c, 0, 76, 0
2, 105414, Note_on_c, 0, 49, 71
2, 105415, Note_on_c, 0, 80, 85
2, 105423, Note_on_c, 0, 52, 61
2, 105448, Note_on_c, 0, 78, 0
2, 105451, Note_on_c, 0, 52, 0
2, 105503, Note_on_c, 0, 81, 76
2, 105546, Note_on_c, 0, 80, 0
2, 105609, Note_on_c, 0, 83, 85
2, 105611, Note_on_c, 0, 56, 86
2, 105637, Note_on_c, 0, 81, 0
2, 105675, Note_on_c, 0, 49, 0
2, 105702, Note_on_c, 0, 80, 80
2, 105727, Note_on_c, 0, 83, 0
2, 105799, Note_on_c, 0, 42, 69
2, 105808, Note_on_c, 0, 81, 79
2, 105835, Note_on_c, 0, 80, 0
2, 105909, Note_on_c, 0, 80, 79
2, 105916, Note_on_c, 0, 56, 0
2, 105918, Note_on_c, 0, 81, 0
2, 106001, Note_on_c, 0, 54, 80
2, 106007, Note_on_c, 0, 81, 74
2, 106027, Note_on_c, 0, 80, 0
2, 106060, Note_on_c, 0, 42, 0
2, 106103, Note_on_c, 0, 49, 71
2, 106105, Note_on_c, 0, 83, 84
2, 106109, Note_on_c, 0, 81, 0
2, 106185, Note_on_c, 0, 51, 77
2, 106197, Note_on_c, 0, 49, 0
2, 106210, Note_on_c, 0, 81, 80
2, 106222, Note_on_c, 0, 51, 0
2, 106238, Note_on_c, 0, 83, 0
2, 106297, Note_on_c, 0, 80, 80
2, 106305, Note_on_c, 0, 81, 0
2, 106382, Note_on_c, 0, 47, 79
2, 106397, Note_on_c, 0, 81, 69
2, 106428, Note_on_c, 0, 80, 0
2, 106433, Note_on_c, 0, 47, 0
2, 106489, Note_on_c, 0, 81, 0
2, 106492, Note_on_c, 0, 83, 76
2, 106581, Note_on_c, 0, 83, 0
2, 106589, Note_on_c, 0, 52, 77
2, 106595, Note_on_c, 0, 80, 71
2, 106639, Note_on_c, 0, 52, 0
2, 106678, Note_on_c, 0, 78, 72
2, 106678, Note_on_c, 0, 80, 0
2, 106781, Note_on_c, 0, 78, 0
2, 106782, Note_on_c, 0, 47, 73
2, 106786, Note_on_c, 0, 80, 75
2, 106815, Note_on_c, 0, 54, 0
2, 106828, Note_on_c, 0, 47, 0
2, 106875, Note_on_c, 0, 80, 0
2, 106878, Note_on_c, 0, 81, 72
2, 106978, Note_on_c, 0, 49, 68
2, 106981, Note_on_c, 0, 52, 77
2, 106982, Note_on_c, 0, 80, 77
2, 106992, Note_on_c, 0, 81, 0
2, 107011, Note_on_c, 0, 49, 0
2, 107073, Note_on_c, 0, 78, 78
2, 107085, Note_on_c, 0, 80, 0
2, 107159, Note_on_c, 0, 78, 0
2, 107166, Note_on_c, 0, 44, 83
2, 107176, Note_on_c, 0, 76, 73
2, 107186, Note_on_c, 0, 52, 0
2, 107235, Note_on_c, 0, 44, 0
2, 107259, Note_on_c, 0, 75, 78
2, 107263, Note_on_c, 0, 76, 0
2, 107369, Note_on_c, 0, 45, 83
2, 107372, Note_on_c, 0, 52, 80
2, 107372, Note_on_c, 0, 75, 0
2, 107381, Note_on_c, 0, 73, 62
2, 107419, Note_on_c, 0, 52, 0
2, 107453, Note_on_c, 0, 73, 0
2, 107464, Note_on_c, 0, 71, 71
2, 107584, Note_on_c, 0, 73, 80
2, 107585, Note_on_c, 0, 64, 83
2, 107625, Note_on_c, 0, 71, 0
2, 107635, Note_on_c, 0, 64, 0
2, 107648, Note_on_c, 0, 45, 0
2, 107658, Note_on_c, 0, 40, 67
2, 107669, Note_on_c, 0, 74, 74
2, 107683, Note_on_c, 0, 73, 0
2, 107737, Note_on_c, 0, 40, 0
2, 107768, Note_on_c, 0, 42, 84
2, 107784, Note_on_c, 0, 69, 90
2, 107800, Note_on_c, 0, 73, 73
2, 107808, Note_on_c, 0, 42, 0
2, 107810, Note_on_c, 0, 74, 0
2, 107887, Note_on_c, 0, 71, 74
2, 107890, Note_on_c, 0, 73, 0
2, 107984, Note_on_c, 0, 37, 88
2, 107993, Note_on_c, 0, 73, 78
2, 108022, Note_on_c, 0, 37, 0
2, 108026, Note_on_c, 0, 71, 0
2, 108071, Note_on_c, 0, 74, 75
2, 108094, Note_on_c, 0, 73, 0
2, 108183, Note_on_c, 0, 39, 81
2, 108190, Note_on_c, 0, 71, 85
2, 108193, Note_on_c, 0, 74, 0
2, 108236, Note_on_c, 0, 39, 0
2, 108289, Note_on_c, 0, 73, 80
2, 108322, Note_on_c, 0, 71, 0
2, 108395, Note_on_c, 0, 59, 89
2, 108400, Note_on_c, 0, 75, 85
2, 108424, Note_on_c, 0, 73, 0
2, 108429, Note_on_c, 0, 69, 0
2, 108440, Note_on_c, 0, 59, 0
2, 108497, Note_on_c, 0, 71, 77
2, 108569, Note_on_c, 0, 75, 0
2, 108622, Note_on_c, 0, 76, 88
2, 108625, Note_on_c, 0, 61, 76
2, 108627, Note_on_c, 0, 68, 74
2, 108645, Note_on_c, 0, 71, 0
2, 108695, Note_on_c, 0, 68, 0
2, 108749, Control_c, 0, 64, 48
2, 108750, Note_on_c, 0, 64, 54
2, 108765, Control_c, 0, 64, 66
2, 108780, Control_c, 0, 64, 79
2, 108783, Note_on_c, 0, 61, 0
2, 108795, Control_c, 0, 64, 127
2, 108853, Note_on_c, 0, 64, 0
2, 108853, Note_on_c, 0, 66, 68
2, 108950, Note_on_c, 0, 68, 65
2, 108984, Note_on_c, 0, 66, 0
2, 109036, Note_on_c, 0, 68, 0
2, 109048, Note_on_c, 0, 69, 76
2, 109054, Control_c, 0, 64, 99
2, 109069, Control_c, 0, 64, 84
2, 109084, Control_c, 0, 64, 70
2, 109099, Control_c, 0, 64, 55
2, 109122, Control_c, 0, 64, 0
2, 109144, Note_on_c, 0, 54, 60
2, 109149, Note_on_c, 0, 71, 75
2, 109162, Note_on_c, 0, 69, 0
2, 109250, Note_on_c, 0, 56, 75
2, 109257, Note_on_c, 0, 73, 80
2, 109281, Note_on_c, 0, 71, 0
2, 109284, Note_on_c, 0, 54, 0
2, 109341, Note_on_c, 0, 57, 80
2, 109377, Note_on_c, 0, 56, 0
2, 109401, Note_on_c, 0, 76, 0
2, 109446, Note_on_c, 0, 57, 0
2, 109452, Note_on_c, 0, 59, 81
2, 109459, Note_on_c, 0, 75, 89
2, 109489, Note_on_c, 0, 73, 0
2, 109502, Note_on_c, 0, 59, 0
2, 109567, Note_on_c, 0, 73, 66
2, 109695, Note_on_c, 0, 47, 86
2, 109695, Note_on_c, 0, 71, 77
2, 109730, Note_on_c, 0, 47, 0
2, 109736, Note_on_c, 0, 73, 0
2, 109831, Note_on_c, 0, 69, 81
2, 109852, Note_on_c, 0, 71, 0
2, 110040, Note_on_c, 0, 40, 69
2, 110042, Note_on_c, 0, 76, 87
2, 110043, Note_on_c, 0, 68, 72
2, 110074, Note_on_c, 0, 69, 0
2, 110096, Note_on_c, 0, 75, 0
2, 110779, Control_c, 0, 64, 26
2, 110794, Control_c, 0, 64, 44
2, 110810, Control_c, 0, 64, 49
2, 110824, Control_c, 0, 64, 52
2, 110840, Control_c, 0, 64, 56
2, 110855, Control_c, 0, 64, 59
2, 110870, Control_c, 0, 64, 63
2, 110886, Control_c, 0, 64, 66
2, 110901, Control_c, 0, 64, 68
2, 110916, Control_c, 0, 64, 72
2, 110932, Control_c, 0, 64, 77
2, 110947, Control_c, 0, 64, 85
2, 110963, Control_c, 0, 64, 95
2, 110978, Control_c, 0, 64, 116
2, 110993, Control_c, 0, 64, 127
2, 111275, Note_on_c, 0, 40, 0
2, 111277, Note_on_c, 0, 76, 0
2, 111310, Note_on_c, 0, 68, 0
2, 111516, Control_c, 0, 64, 95
2, 111532, Control_c, 0, 64, 79
2, 111546, Control_c, 0, 64, 65
2, 111562, Control_c, 0, 64, 50
2, 111577, Control_c, 0, 64, 17
2, 111592, Control_c, 0, 64, 0
2, 111593, End_track
0, 0, End_of_file
