0, 0, Header, 1, 2, 384
1, 0, Start_track
1, 0, Tempo, 500000
1, 0, Time_signature, 4, 2, 24, 8
1, 1, End_track
2, 0, Start_track
2, 0, Program_c, 0, 0
2, 0, Control_c, 0, 64, 66
2, 25, Control_c, 0, 64, 65
2, 78, Control_c, 0, 64, 65
2, 108, Control_c, 0, 64, 64
2, 138, Control_c, 0, 64, 64
2, 154, Control_c, 0, 64, 63
2, 169, Control_c, 0, 64, 63
2, 185, Control_c, 0, 64, 61
2, 200, Control_c, 0, 64, 58
2, 214, Control_c, 0, 64, 53
2, 230, Control_c, 0, 64, 43
2, 245, Control_c, 0, 64, 30
2, 261, Control_c, 0, 64, 0
2, 768, Note_on_c, 0, 52, 44
2, 772, Note_on_c, 0, 64, 48
2, 1014, Note_on_c, 0, 68, 61
2, 1215, Note_on_c, 0, 71, 67
2, 1293, Note_on_c, 0, 64, 0
2, 1441, Note_on_c, 0, 56, 50
2, 1441, Note_on_c, 0, 68, 0
2, 1441, Note_on_c, 0, 76, 68
2, 1481, Note_on_c, 0, 71, 0
2, 1664, Note_on_c, 0, 75, 70
2, 1729, Note_on_c, 0, 76, 0
2, 1871, Note_on_c, 0, 76, 71
2, 1908, Note_on_c, 0, 75, 0
2, 2076, Note_on_c, 0, 76, 0
2, 2083, Note_on_c, 0, 75, 65
2, 2092, Note_on_c, 0, 57, 48
2, 2141, Note_on_c, 0, 75, 0
2, 2144, Note_on_c, 0, 56, 0
2, 2149, Note_on_c, 0, 73, 67
2, 2185, Note_on_c, 0, 73, 0
2, 2196, Note_on_c, 0, 75, 56
2, 2252, Note_on_c, 0, 73, 71
2, 2256, Note_on_c, 0, 75, 0
2, 2328, Note_on_c, 0, 71, 74
2, 2346, Note_on_c, 0, 73, 0
2, 2542, Note_on_c, 0, 73, 77
2, 2679, Note_on_c, 0, 71, 0
2, 2762, Note_on_c, 0, 76, 73
2, 2878, Note_on_c, 0, 73, 0
2, 2983, Note_on_c, 0, 56, 42
2, 3193, Note_on_c, 0, 57, 0
2, 3204, Note_on_c, 0, 54, 58
2, 3274, Note_on_c, 0, 56, 0
2, 3355, Note_on_c, 0, 76, 0
2, 3401, Note_on_c, 0, 73, 52
2, 3416, Note_on_c, 0, 56, 52
2, 3445, Note_on_c, 0, 73, 0
2, 3464, Note_on_c, 0, 71, 59
2, 3495, Note_on_c, 0, 54, 0
2, 3503, Note_on_c, 0, 71, 0
2, 3523, Note_on_c, 0, 73, 50
2, 3565, Note_on_c, 0, 71, 63
2, 3573, Note_on_c, 0, 73, 0
2, 3644, Note_on_c, 0, 69, 68
2, 3646, Note_on_c, 0, 71, 0
2, 3868, Note_on_c, 0, 71, 66
2, 3952, Note_on_c, 0, 69, 0
2, 4099, Note_on_c, 0, 76, 62
2, 4200, Note_on_c, 0, 71, 0
2, 4330, Note_on_c, 0, 57, 48
2, 4392, Note_on_c, 0, 56, 0
2, 4539, Note_on_c, 0, 56, 53
2, 4720, Note_on_c, 0, 57, 0
2, 4755, Note_on_c, 0, 76, 0
2, 4770, Note_on_c, 0, 69, 49
2, 4776, Note_on_c, 0, 54, 48
2, 4891, Note_on_c, 0, 56, 0
2, 5001, Note_on_c, 0, 71, 60
2, 5089, Note_on_c, 0, 69, 0
2, 5216, Note_on_c, 0, 73, 69
2, 5279, Note_on_c, 0, 71, 0
2, 5421, Note_on_c, 0, 51, 42
2, 5445, Note_on_c, 0, 71, 67
2, 5488, Note_on_c, 0, 73, 0
2, 5515, Note_on_c, 0, 52, 0
2, 5621, Control_c, 0, 64, 26
2, 5636, Control_c, 0, 64, 52
2, 5650, Control_c, 0, 64, 63
2, 5650, Note_on_c, 0, 73, 66
2, 5666, Control_c, 0, 64, 70
2, 5681, Control_c, 0, 64, 83
2, 5690, Note_on_c, 0, 71, 0
2, 5695, Control_c, 0, 64, 111
2, 5711, Control_c, 0, 64, 127
2, 5736, Note_on_c, 0, 51, 0
2, 5813, Note_on_c, 0, 54, 0
2, 5870, Note_on_c, 0, 69, 76
2, 5911, Note_on_c, 0, 73, 0
2, 5938, Control_c, 0, 64, 114
2, 5954, Control_c, 0, 64, 103
2, 5969, Control_c, 0, 64, 96
2, 5984, Control_c, 0, 64, 90
2, 6000, Control_c, 0, 64, 84
2, 6015, Control_c, 0, 64, 79
2, 6031, Control_c, 0, 64, 74
2, 6046, Control_c, 0, 64, 70
2, 6062, Control_c, 0, 64, 67
2, 6076, Control_c, 0, 64, 66
2, 6082, Note_on_c, 0, 52, 42
2, 6083, Note_on_c, 0, 68, 69
2, 6091, Control_c, 0, 64, 65
2, 6107, Control_c, 0, 64, 64
2, 6118, Note_on_c, 0, 69, 0
2, 6122, Control_c, 0, 64, 62
2, 6136, Control_c, 0, 64, 61
2, 6152, Control_c, 0, 64, 59
2, 6167, Control_c, 0, 64, 58
2, 6183, Control_c, 0, 64, 56
2, 6205, Control_c, 0, 64, 54
2, 6221, Control_c, 0, 64, 53
2, 6236, Control_c, 0, 64, 52
2, 6251, Control_c, 0, 64, 50
2, 6267, Control_c, 0, 64, 49
2, 6281, Control_c, 0, 64, 47
2, 6296, Control_c, 0, 64, 44
2, 6311, Note_on_c, 0, 71, 75
2, 6312, Control_c, 0, 64, 42
2, 6313, Note_on_c, 0, 56, 48
2, 6327, Control_c, 0, 64, 39
2, 6329, Note_on_c, 0, 68, 0
2, 6342, Control_c, 0, 64, 34
2, 6357, Control_c, 0, 64, 30
2, 6372, Control_c, 0, 64, 25
2, 6388, Control_c, 0, 64, 23
2, 6403, Control_c, 0, 64, 22
2, 6418, Control_c, 0, 64, 20
2, 6434, Control_c, 0, 64, 19
2, 6449, Control_c, 0, 64, 18
2, 6464, Control_c, 0, 64, 17
2, 6479, Control_c, 0, 64, 15
2, 6494, Control_c, 0, 64, 12
2, 6510, Control_c, 0, 64, 10
2, 6515, Note_on_c, 0, 59, 58
2, 6519, Note_on_c, 0, 52, 0
2, 6522, Note_on_c, 0, 76, 77
2, 6555, Control_c, 0, 64, 8
2, 6586, Control_c, 0, 64, 0
2, 6591, Note_on_c, 0, 71, 0
2, 6631, Note_on_c, 0, 56, 0
2, 6741, Note_on_c, 0, 80, 82
2, 6749, Note_on_c, 0, 64, 53
2, 6803, Note_on_c, 0, 59, 0
2, 6875, Note_on_c, 0, 76, 0
2, 6974, Note_on_c, 0, 63, 70
2, 7073, Note_on_c, 0, 64, 0
2, 7184, Note_on_c, 0, 64, 76
2, 7319, Note_on_c, 0, 63, 0
2, 7407, Note_on_c, 0, 58, 65
2, 7564, Note_on_c, 0, 64, 0
2, 7634, Note_on_c, 0, 78, 70
2, 7688, Note_on_c, 0, 80, 0
2, 7855, Note_on_c, 0, 61, 56
2, 7855, Note_on_c, 0, 76, 74
2, 7887, Note_on_c, 0, 78, 0
2, 7960, Note_on_c, 0, 61, 0
2, 8078, Note_on_c, 0, 76, 0
2, 8080, Note_on_c, 0, 66, 69
2, 8091, Note_on_c, 0, 75, 65
2, 8297, Note_on_c, 0, 76, 73
2, 8305, Control_c, 0, 64, 34
2, 8307, Note_on_c, 0, 75, 0
2, 8320, Control_c, 0, 64, 58
2, 8332, Note_on_c, 0, 66, 0
2, 8335, Control_c, 0, 64, 69
2, 8350, Control_c, 0, 64, 85
2, 8365, Control_c, 0, 64, 127
2, 8419, Note_on_c, 0, 58, 0
2, 8529, Note_on_c, 0, 73, 79
2, 8583, Note_on_c, 0, 76, 0
2, 8637, Note_on_c, 0, 73, 0
2, 8742, Note_on_c, 0, 47, 49
2, 8762, Note_on_c, 0, 73, 63
2, 8769, Control_c, 0, 64, 116
2, 8784, Control_c, 0, 64, 106
2, 8799, Control_c, 0, 64, 100
2, 8814, Control_c, 0, 64, 95
2, 8830, Control_c, 0, 64, 91
2, 8842, Note_on_c, 0, 73, 0
2, 8844, Control_c, 0, 64, 86
2, 8846, Note_on_c, 0, 75, 62
2, 8858, Control_c, 0, 64, 81
2, 8874, Control_c, 0, 64, 76
2, 8889, Control_c, 0, 64, 72
2, 8905, Control_c, 0, 64, 70
2, 8911, Note_on_c, 0, 75, 0
2, 8920, Control_c, 0, 64, 67
2, 8925, Note_on_c, 0, 76, 62
2, 8934, Control_c, 0, 64, 66
2, 8950, Control_c, 0, 64, 64
2, 8950, Note_on_c, 0, 51, 53
2, 8965, Control_c, 0, 64, 62
2, 8981, Control_c, 0, 64, 61
2, 8990, Note_on_c, 0, 76, 0
2, 8996, Control_c, 0, 64, 60
2, 9006, Note_on_c, 0, 75, 66
2, 9011, Control_c, 0, 64, 57
2, 9026, Control_c, 0, 64, 55
2, 9041, Control_c, 0, 64, 53
2, 9044, Note_on_c, 0, 75, 0
2, 9052, Note_on_c, 0, 47, 0
2, 9056, Control_c, 0, 64, 50
2, 9058, Note_on_c, 0, 76, 59
2, 9072, Control_c, 0, 64, 46
2, 9087, Control_c, 0, 64, 40
2, 9103, Control_c, 0, 64, 32
2, 9110, Note_on_c, 0, 76, 0
2, 9114, Note_on_c, 0, 75, 65
2, 9118, Control_c, 0, 64, 28
2, 9133, Control_c, 0, 64, 25
2, 9148, Control_c, 0, 64, 20
2, 9158, Note_on_c, 0, 75, 0
2, 9158, Note_on_c, 0, 76, 58
2, 9163, Control_c, 0, 64, 14
2, 9167, Note_on_c, 0, 54, 54
2, 9178, Control_c, 0, 64, 8
2, 9193, Control_c, 0, 64, 0
2, 9224, Note_on_c, 0, 51, 0
2, 9226, Note_on_c, 0, 75, 75
2, 9250, Note_on_c, 0, 76, 0
2, 9404, Note_on_c, 0, 59, 65
2, 9486, Note_on_c, 0, 54, 0
2, 9623, Note_on_c, 0, 58, 68
2, 9718, Note_on_c, 0, 59, 0
2, 9831, Note_on_c, 0, 59, 66
2, 9969, Note_on_c, 0, 58, 0
2, 10066, Note_on_c, 0, 52, 65
2, 10231, Note_on_c, 0, 59, 0
2, 10249, Note_on_c, 0, 75, 0
2, 10293, Note_on_c, 0, 76, 70
2, 10506, Note_on_c, 0, 59, 56
2, 10506, Note_on_c, 0, 78, 81
2, 10606, Note_on_c, 0, 76, 0
2, 10637, Note_on_c, 0, 59, 0
2, 10752, Note_on_c, 0, 80, 80
2, 10753, Note_on_c, 0, 64, 66
2, 10825, Note_on_c, 0, 78, 0
2, 10992, Note_on_c, 0, 73, 83
2, 11011, Control_c, 0, 64, 28
2, 11027, Control_c, 0, 64, 46
2, 11042, Control_c, 0, 64, 53
2, 11057, Control_c, 0, 64, 62
2, 11072, Control_c, 0, 64, 69
2, 11087, Control_c, 0, 64, 82
2, 11087, Note_on_c, 0, 52, 0
2, 11089, Note_on_c, 0, 80, 0
2, 11103, Control_c, 0, 64, 127
2, 11206, Note_on_c, 0, 76, 82
2, 11253, Note_on_c, 0, 73, 0
2, 11438, Control_c, 0, 64, 112
2, 11452, Control_c, 0, 64, 105
2, 11453, Note_on_c, 0, 54, 66
2, 11456, Note_on_c, 0, 66, 69
2, 11468, Control_c, 0, 64, 99
2, 11483, Control_c, 0, 64, 94
2, 11498, Control_c, 0, 64, 89
2, 11514, Control_c, 0, 64, 85
2, 11528, Control_c, 0, 64, 81
2, 11544, Control_c, 0, 64, 76
2, 11559, Control_c, 0, 64, 71
2, 11566, Note_on_c, 0, 76, 0
2, 11582, Control_c, 0, 64, 68
2, 11597, Control_c, 0, 64, 65
2, 11612, Control_c, 0, 64, 64
2, 11628, Control_c, 0, 64, 63
2, 11643, Control_c, 0, 64, 63
2, 11657, Control_c, 0, 64, 62
2, 11673, Control_c, 0, 64, 60
2, 11686, Note_on_c, 0, 70, 76
2, 11688, Control_c, 0, 64, 58
2, 11704, Control_c, 0, 64, 55
2, 11719, Control_c, 0, 64, 54
2, 11735, Control_c, 0, 64, 52
2, 11750, Control_c, 0, 64, 51
2, 11765, Control_c, 0, 64, 49
2, 11781, Control_c, 0, 64, 46
2, 11796, Control_c, 0, 64, 43
2, 11811, Control_c, 0, 64, 41
2, 11827, Control_c, 0, 64, 39
2, 11841, Control_c, 0, 64, 37
2, 11843, Note_on_c, 0, 66, 0
2, 11856, Control_c, 0, 64, 34
2, 11872, Control_c, 0, 64, 30
2, 11886, Control_c, 0, 64, 28
2, 11897, Note_on_c, 0, 73, 77
2, 11902, Control_c, 0, 64, 27
2, 11917, Control_c, 0, 64, 26
2, 11932, Control_c, 0, 64, 24
2, 11948, Control_c, 0, 64, 22
2, 11962, Control_c, 0, 64, 19
2, 11977, Control_c, 0, 64, 18
2, 11993, Control_c, 0, 64, 17
2, 12024, Control_c, 0, 64, 16
2, 12038, Control_c, 0, 64, 15
2, 12064, Note_on_c, 0, 70, 0
2, 12069, Control_c, 0, 64, 14
2, 12098, Control_c, 0, 64, 12
2, 12129, Control_c, 0, 64, 10
2, 12129, Note_on_c, 0, 78, 70
2, 12135, Note_on_c, 0, 63, 70
2, 12160, Control_c, 0, 64, 8
2, 12175, Control_c, 0, 64, 0
2, 12186, Note_on_c, 0, 73, 0
2, 12360, Note_on_c, 0, 76, 73
2, 12374, Note_on_c, 0, 64, 0
2, 12430, Note_on_c, 0, 78, 0
2, 12583, Note_on_c, 0, 78, 77
2, 12674, Note_on_c, 0, 76, 0
2, 12784, Note_on_c, 0, 68, 69
2, 12876, Note_on_c, 0, 78, 0
2, 13004, Note_on_c, 0, 71, 71
2, 13099, Note_on_c, 0, 68, 0
2, 13237, Note_on_c, 0, 75, 71
2, 13436, Note_on_c, 0, 71, 0
2, 13468, Note_on_c, 0, 76, 63
2, 13574, Note_on_c, 0, 75, 0
2, 13697, Note_on_c, 0, 61, 50
2, 13780, Note_on_c, 0, 63, 0
2, 13916, Note_on_c, 0, 59, 60
2, 13985, Note_on_c, 0, 61, 0
2, 14147, Note_on_c, 0, 58, 50
2, 14150, Note_on_c, 0, 66, 53
2, 14228, Note_on_c, 0, 76, 0
2, 14285, Note_on_c, 0, 59, 0
2, 14384, Note_on_c, 0, 70, 55
2, 14500, Note_on_c, 0, 66, 0
2, 14591, Note_on_c, 0, 73, 64
2, 14685, Note_on_c, 0, 70, 0
2, 14817, Note_on_c, 0, 76, 59
2, 14849, Note_on_c, 0, 73, 0
2, 15033, Note_on_c, 0, 75, 60
2, 15106, Note_on_c, 0, 76, 0
2, 15171, Note_on_c, 0, 54, 0
2, 15243, Note_on_c, 0, 49, 40
2, 15246, Note_on_c, 0, 76, 54
2, 15268, Note_on_c, 0, 75, 0
2, 15431, Note_on_c, 0, 49, 0
2, 15495, Note_on_c, 0, 50, 43
2, 15500, Note_on_c, 0, 66, 35
2, 15508, Note_on_c, 0, 76, 0
2, 15729, Note_on_c, 0, 70, 50
2, 15872, Note_on_c, 0, 66, 0
2, 15946, Note_on_c, 0, 73, 57
2, 16041, Note_on_c, 0, 70, 0
2, 16174, Note_on_c, 0, 74, 52
2, 16189, Note_on_c, 0, 59, 42
2, 16281, Note_on_c, 0, 73, 0
2, 16328, Note_on_c, 0, 58, 0
2, 16406, Note_on_c, 0, 52, 43
2, 16432, Control_c, 0, 64, 8
2, 16535, Note_on_c, 0, 50, 0
2, 16622, Note_on_c, 0, 54, 57
2, 16663, Note_on_c, 0, 52, 0
2, 16847, Note_on_c, 0, 55, 50
2, 16864, Note_on_c, 0, 54, 0
2, 17081, Note_on_c, 0, 76, 52
2, 17083, Note_on_c, 0, 61, 46
2, 17110, Note_on_c, 0, 74, 0
2, 17297, Note_on_c, 0, 74, 62
2, 17299, Note_on_c, 0, 62, 58
2, 17309, Note_on_c, 0, 59, 0
2, 17384, Note_on_c, 0, 76, 0
2, 17413, Note_on_c, 0, 61, 0
2, 17521, Note_on_c, 0, 64, 70
2, 17529, Note_on_c, 0, 73, 65
2, 17589, Note_on_c, 0, 74, 0
2, 17657, Control_c, 0, 64, 17
2, 17663, Note_on_c, 0, 62, 0
2, 17672, Control_c, 0, 64, 24
2, 17687, Control_c, 0, 64, 31
2, 17703, Control_c, 0, 64, 39
2, 17724, Control_c, 0, 64, 44
2, 17739, Control_c, 0, 64, 49
2, 17748, Note_on_c, 0, 74, 68
2, 17755, Control_c, 0, 64, 53
2, 17770, Control_c, 0, 64, 57
2, 17785, Note_on_c, 0, 73, 0
2, 17786, Control_c, 0, 64, 63
2, 17801, Control_c, 0, 64, 68
2, 17816, Control_c, 0, 64, 79
2, 17831, Control_c, 0, 64, 106
2, 17846, Control_c, 0, 64, 127
2, 17851, Note_on_c, 0, 55, 0
2, 17963, Note_on_c, 0, 71, 72
2, 17976, Note_on_c, 0, 74, 0
2, 18054, Note_on_c, 0, 71, 0
2, 18169, Note_on_c, 0, 71, 56
2, 18176, Note_on_c, 0, 54, 49
2, 18201, Note_on_c, 0, 71, 0
2, 18217, Note_on_c, 0, 70, 59
2, 18262, Note_on_c, 0, 70, 0
2, 18272, Control_c, 0, 64, 108
2, 18281, Note_on_c, 0, 71, 63
2, 18288, Control_c, 0, 64, 101
2, 18303, Control_c, 0, 64, 97
2, 18318, Control_c, 0, 64, 93
2, 18323, Note_on_c, 0, 70, 67
2, 18333, Control_c, 0, 64, 89
2, 18349, Control_c, 0, 64, 85
2, 18363, Control_c, 0, 64, 81
2, 18366, Note_on_c, 0, 71, 0
2, 18378, Control_c, 0, 64, 77
2, 18394, Control_c, 0, 64, 74
2, 18409, Control_c, 0, 64, 71
2, 18410, Note_on_c, 0, 68, 81
2, 18425, Control_c, 0, 64, 69
2, 18440, Control_c, 0, 64, 67
2, 18455, Control_c, 0, 64, 65
2, 18470, Control_c, 0, 64, 63
2, 18476, Note_on_c, 0, 70, 0
2, 18492, Control_c, 0, 64, 62
2, 18508, Control_c, 0, 64, 61
2, 18523, Control_c, 0, 64, 60
2, 18538, Control_c, 0, 64, 59
2, 18554, Control_c, 0, 64, 59
2, 18568, Control_c, 0, 64, 57
2, 18584, Control_c, 0, 64, 56
2, 18599, Control_c, 0, 64, 54
2, 18614, Control_c, 0, 64, 52
2, 18630, Control_c, 0, 64, 51
2, 18644, Control_c, 0, 64, 51
2, 18655, Note_on_c, 0, 66, 78
2, 18659, Control_c, 0, 64, 50
2, 18675, Control_c, 0, 64, 48
2, 18690, Control_c, 0, 64, 47
2, 18706, Control_c, 0, 64, 45
2, 18721, Control_c, 0, 64, 44
2, 18736, Control_c, 0, 64, 43
2, 18752, Control_c, 0, 64, 42
2, 18767, Control_c, 0, 64, 41
2, 18778, Note_on_c, 0, 68, 0
2, 18782, Control_c, 0, 64, 41
2, 18797, Control_c, 0, 64, 40
2, 18812, Control_c, 0, 64, 40
2, 18843, Control_c, 0, 64, 39
2, 18951, Note_on_c, 0, 79, 72
2, 19009, Control_c, 0, 64, 39
2, 19187, Note_on_c, 0, 56, 44
2, 19189, Note_on_c, 0, 63, 52
2, 19190, Note_on_c, 0, 78, 80
2, 19262, Note_on_c, 0, 66, 0
2, 19273, Note_on_c, 0, 79, 0
2, 19297, Note_on_c, 0, 54, 0
2, 19306, Note_on_c, 0, 64, 0
2, 19417, Note_on_c, 0, 58, 62
2, 19420, Note_on_c, 0, 61, 67
2, 19422, Note_on_c, 0, 77, 79
2, 19458, Note_on_c, 0, 78, 0
2, 19474, Control_c, 0, 64, 38
2, 19479, Note_on_c, 0, 63, 0
2, 19503, Note_on_c, 0, 56, 0
2, 19580, Control_c, 0, 64, 38
2, 19629, Note_on_c, 0, 59, 73
2, 19641, Control_c, 0, 64, 37
2, 19641, Note_on_c, 0, 76, 71
2, 19656, Control_c, 0, 64, 37
2, 19672, Control_c, 0, 64, 36
2, 19702, Control_c, 0, 64, 36
2, 19717, Control_c, 0, 64, 35
2, 19726, Note_on_c, 0, 77, 0
2, 19745, Note_on_c, 0, 58, 0
2, 19747, Control_c, 0, 64, 34
2, 19777, Control_c, 0, 64, 34
2, 19793, Control_c, 0, 64, 33
2, 19808, Control_c, 0, 64, 33
2, 19823, Control_c, 0, 64, 31
2, 19831, Note_on_c, 0, 61, 0
2, 19838, Control_c, 0, 64, 31
2, 19853, Control_c, 0, 64, 30
2, 19853, Note_on_c, 0, 75, 78
2, 19868, Control_c, 0, 64, 29
2, 19883, Control_c, 0, 64, 28
2, 19898, Control_c, 0, 64, 28
2, 19914, Control_c, 0, 64, 27
2, 19930, Control_c, 0, 64, 26
2, 19943, Note_on_c, 0, 76, 0
2, 19961, Control_c, 0, 64, 25
2, 19975, Control_c, 0, 64, 24
2, 19991, Control_c, 0, 64, 22
2, 20006, Control_c, 0, 64, 20
2, 20030, Control_c, 0, 64, 18
2, 20045, Control_c, 0, 64, 16
2, 20059, Control_c, 0, 64, 14
2, 20075, Control_c, 0, 64, 10
2, 20075, Note_on_c, 0, 53, 57
2, 20078, Note_on_c, 0, 74, 75
2, 20090, Control_c, 0, 64, 0
2, 20130, Note_on_c, 0, 75, 0
2, 20306, Note_on_c, 0, 54, 57
2, 20318, Note_on_c, 0, 73, 67
2, 20321, Note_on_c, 0, 53, 0
2, 20345, Note_on_c, 0, 74, 0
2, 20420, Note_on_c, 0, 75, 70
2, 20454, Note_on_c, 0, 73, 0
2, 20535, Note_on_c, 0, 58, 41
2, 20539, Note_on_c, 0, 76, 70
2, 20566, Note_on_c, 0, 59, 0
2, 20583, Note_on_c, 0, 75, 0
2, 20712, Control_c, 0, 64, 32
2, 20727, Control_c, 0, 64, 49
2, 20745, Control_c, 0, 64, 61
2, 20751, Note_on_c, 0, 58, 0
2, 20760, Control_c, 0, 64, 68
2, 20774, Control_c, 0, 64, 83
2, 20782, Note_on_c, 0, 70, 69
2, 20785, Note_on_c, 0, 54, 0
2, 20785, Note_on_c, 0, 64, 52
2, 20797, Control_c, 0, 64, 127
2, 20804, Note_on_c, 0, 76, 0
2, 20906, Note_on_c, 0, 70, 0
2, 21010, Control_c, 0, 64, 109
2, 21025, Control_c, 0, 64, 102
2, 21033, Note_on_c, 0, 47, 40
2, 21040, Control_c, 0, 64, 96
2, 21055, Control_c, 0, 64, 91
2, 21057, Note_on_c, 0, 71, 62
2, 21069, Note_on_c, 0, 63, 49
2, 21071, Control_c, 0, 64, 86
2, 21086, Control_c, 0, 64, 82
2, 21100, Control_c, 0, 64, 78
2, 21116, Control_c, 0, 64, 74
2, 21131, Control_c, 0, 64, 71
2, 21147, Control_c, 0, 64, 67
2, 21152, Note_on_c, 0, 64, 0
2, 21161, Control_c, 0, 64, 66
2, 21176, Control_c, 0, 64, 64
2, 21192, Control_c, 0, 64, 64
2, 21207, Control_c, 0, 64, 63
2, 21222, Control_c, 0, 64, 62
2, 21237, Control_c, 0, 64, 60
2, 21252, Control_c, 0, 64, 58
2, 21268, Control_c, 0, 64, 56
2, 21276, Note_on_c, 0, 51, 49
2, 21283, Control_c, 0, 64, 55
2, 21298, Control_c, 0, 64, 53
2, 21314, Control_c, 0, 64, 51
2, 21329, Control_c, 0, 64, 49
2, 21344, Control_c, 0, 64, 46
2, 21359, Control_c, 0, 64, 43
2, 21374, Control_c, 0, 64, 41
2, 21390, Control_c, 0, 64, 40
2, 21405, Control_c, 0, 64, 38
2, 21420, Control_c, 0, 64, 35
2, 21435, Control_c, 0, 64, 33
2, 21450, Control_c, 0, 64, 31
2, 21466, Control_c, 0, 64, 29
2, 21481, Control_c, 0, 64, 27
2, 21491, Note_on_c, 0, 54, 54
2, 21496, Control_c, 0, 64, 25
2, 21509, Note_on_c, 0, 47, 0
2, 21511, Control_c, 0, 64, 24
2, 21526, Control_c, 0, 64, 22
2, 21542, Control_c, 0, 64, 20
2, 21565, Control_c, 0, 64, 18
2, 21580, Control_c, 0, 64, 15
2, 21596, Control_c, 0, 64, 12
2, 21598, Note_on_c, 0, 51, 0
2, 21611, Control_c, 0, 64, 8
2, 21626, Control_c, 0, 64, 0
2, 21713, Note_on_c, 0, 59, 54
2, 21794, Note_on_c, 0, 54, 0
2, 21934, Note_on_c, 0, 57, 67
2, 22029, Note_on_c, 0, 59, 0
2, 22147, Note_on_c, 0, 59, 65
2, 22166, Note_on_c, 0, 63, 0
2, 22243, Note_on_c, 0, 57, 0
2, 22384, Note_on_c, 0, 56, 60
2, 22618, Note_on_c, 0, 75, 62
2, 22709, Note_on_c, 0, 59, 0
2, 22796, Note_on_c, 0, 71, 0
2, 22830, Note_on_c, 0, 78, 78
2, 22991, Note_on_c, 0, 75, 0
2, 23050, Note_on_c, 0, 83, 79
2, 23123, Note_on_c, 0, 78, 0
2, 23262, Note_on_c, 0, 54, 43
2, 23276, Note_on_c, 0, 81, 73
2, 23345, Control_c, 0, 64, 8
2, 23350, Note_on_c, 0, 56, 0
2, 23365, Note_on_c, 0, 83, 0
2, 23390, Control_c, 0, 64, 10
2, 23490, Note_on_c, 0, 56, 60
2, 23493, Note_on_c, 0, 83, 82
2, 23543, Control_c, 0, 64, 12
2, 23597, Note_on_c, 0, 81, 0
2, 23634, Note_on_c, 0, 54, 0
2, 23702, Note_on_c, 0, 53, 63
2, 23719, Note_on_c, 0, 73, 80
2, 23796, Note_on_c, 0, 56, 0
2, 23836, Note_on_c, 0, 83, 0
2, 23937, Note_on_c, 0, 56, 59
2, 23948, Note_on_c, 0, 77, 81
2, 24024, Note_on_c, 0, 73, 0
2, 24154, Note_on_c, 0, 59, 61
2, 24160, Note_on_c, 0, 80, 85
2, 24278, Note_on_c, 0, 56, 0
2, 24313, Note_on_c, 0, 77, 0
2, 24386, Note_on_c, 0, 83, 83
2, 24388, Note_on_c, 0, 62, 56
2, 24431, Control_c, 0, 64, 10
2, 24460, Control_c, 0, 64, 8
2, 24463, Note_on_c, 0, 80, 0
2, 24466, Note_on_c, 0, 59, 0
2, 24491, Control_c, 0, 64, 0
2, 24602, Note_on_c, 0, 59, 62
2, 24704, Note_on_c, 0, 62, 0
2, 24838, Note_on_c, 0, 61, 60
2, 24931, Note_on_c, 0, 59, 0
2, 25058, Note_on_c, 0, 54, 51
2, 25120, Note_on_c, 0, 53, 0
2, 25297, Note_on_c, 0, 80, 61
2, 25388, Note_on_c, 0, 83, 0
2, 25527, Note_on_c, 0, 81, 61
2, 25665, Note_on_c, 0, 80, 0
2, 25769, Note_on_c, 0, 59, 49
2, 25779, Note_on_c, 0, 50, 36
2, 25935, Note_on_c, 0, 54, 0
2, 26003, Note_on_c, 0, 78, 66
2, 26058, Note_on_c, 0, 61, 0
2, 26074, Note_on_c, 0, 81, 0
2, 26236, Note_on_c, 0, 80, 71
2, 26429, Note_on_c, 0, 78, 0
2, 26465, Note_on_c, 0, 60, 61
2, 26480, Note_on_c, 0, 51, 61
2, 26551, Note_on_c, 0, 50, 0
2, 26651, Note_on_c, 0, 59, 0
2, 26691, Note_on_c, 0, 77, 70
2, 26767, Note_on_c, 0, 80, 0
2, 26810, Control_c, 0, 64, 32
2, 26826, Control_c, 0, 64, 46
2, 26841, Control_c, 0, 64, 51
2, 26855, Control_c, 0, 64, 57
2, 26871, Control_c, 0, 64, 64
2, 26886, Control_c, 0, 64, 73
2, 26902, Control_c, 0, 64, 91
2, 26914, Note_on_c, 0, 78, 77
2, 26917, Control_c, 0, 64, 127
2, 26973, Note_on_c, 0, 60, 0
2, 26985, Note_on_c, 0, 77, 0
2, 27147, Note_on_c, 0, 77, 70
2, 27149, Note_on_c, 0, 49, 52
2, 27149, Note_on_c, 0, 78, 0
2, 27155, Note_on_c, 0, 61, 54
2, 27167, Control_c, 0, 64, 107
2, 27183, Control_c, 0, 64, 98
2, 27197, Control_c, 0, 64, 92
2, 27212, Control_c, 0, 64, 88
2, 27228, Control_c, 0, 64, 85
2, 27243, Control_c, 0, 64, 81
2, 27247, Note_on_c, 0, 51, 0
2, 27249, Note_on_c, 0, 78, 76
2, 27258, Control_c, 0, 64, 76
2, 27274, Control_c, 0, 64, 72
2, 27289, Control_c, 0, 64, 69
2, 27302, Note_on_c, 0, 77, 0
2, 27306, Control_c, 0, 64, 66
2, 27321, Control_c, 0, 64, 62
2, 27336, Control_c, 0, 64, 57
2, 27352, Control_c, 0, 64, 44
2, 27367, Control_c, 0, 64, 0
2, 27367, Note_on_c, 0, 80, 80
2, 27413, Note_on_c, 0, 78, 0
2, 27518, Control_c, 0, 64, 39
2, 27533, Control_c, 0, 64, 55
2, 27549, Control_c, 0, 64, 65
2, 27564, Control_c, 0, 64, 73
2, 27578, Control_c, 0, 64, 88
2, 27594, Control_c, 0, 64, 127
2, 27596, Note_on_c, 0, 49, 0
2, 27608, Note_on_c, 0, 73, 85
2, 27612, Note_on_c, 0, 61, 0
2, 27660, Note_on_c, 0, 80, 0
2, 27792, Note_on_c, 0, 73, 0
2, 27891, Note_on_c, 0, 47, 61
2, 27898, Note_on_c, 0, 74, 79
2, 27906, Control_c, 0, 64, 117
2, 27920, Control_c, 0, 64, 108
2, 27935, Control_c, 0, 64, 100
2, 27951, Control_c, 0, 64, 95
2, 27966, Control_c, 0, 64, 91
2, 27982, Control_c, 0, 64, 87
2, 27997, Control_c, 0, 64, 83
2, 28012, Control_c, 0, 64, 78
2, 28028, Control_c, 0, 64, 74
2, 28042, Control_c, 0, 64, 70
2, 28057, Control_c, 0, 64, 68
2, 28073, Control_c, 0, 64, 67
2, 28088, Control_c, 0, 64, 66
2, 28104, Control_c, 0, 64, 65
2, 28119, Control_c, 0, 64, 64
2, 28134, Control_c, 0, 64, 62
2, 28150, Control_c, 0, 64, 62
2, 28159, Note_on_c, 0, 71, 61
2, 28165, Control_c, 0, 64, 61
2, 28168, Note_on_c, 0, 50, 53
2, 28180, Control_c, 0, 64, 60
2, 28195, Control_c, 0, 64, 60
2, 28210, Control_c, 0, 64, 58
2, 28226, Control_c, 0, 64, 57
2, 28241, Control_c, 0, 64, 55
2, 28256, Control_c, 0, 64, 54
2, 28271, Control_c, 0, 64, 53
2, 28286, Control_c, 0, 64, 52
2, 28302, Control_c, 0, 64, 51
2, 28317, Control_c, 0, 64, 50
2, 28332, Control_c, 0, 64, 49
2, 28347, Control_c, 0, 64, 48
2, 28362, Control_c, 0, 64, 46
2, 28369, Note_on_c, 0, 68, 73
2, 28375, Note_on_c, 0, 53, 60
2, 28377, Control_c, 0, 64, 44
2, 28392, Control_c, 0, 64, 42
2, 28407, Control_c, 0, 64, 41
2, 28423, Control_c, 0, 64, 41
2, 28438, Control_c, 0, 64, 40
2, 28453, Control_c, 0, 64, 40
2, 28459, Note_on_c, 0, 71, 0
2, 28491, Control_c, 0, 64, 39
2, 28507, Control_c, 0, 64, 38
2, 28522, Control_c, 0, 64, 38
2, 28537, Control_c, 0, 64, 37
2, 28552, Control_c, 0, 64, 36
2, 28567, Control_c, 0, 64, 35
2, 28576, Note_on_c, 0, 50, 0
2, 28583, Control_c, 0, 64, 34
2, 28587, Note_on_c, 0, 56, 64
2, 28590, Note_on_c, 0, 65, 69
2, 28598, Control_c, 0, 64, 34
2, 28612, Control_c, 0, 64, 33
2, 28628, Control_c, 0, 64, 32
2, 28643, Control_c, 0, 64, 32
2, 28658, Control_c, 0, 64, 31
2, 28674, Control_c, 0, 64, 31
2, 28682, Note_on_c, 0, 68, 0
2, 28688, Control_c, 0, 64, 30
2, 28704, Note_on_c, 0, 53, 0
2, 28719, Control_c, 0, 64, 30
2, 28795, Control_c, 0, 64, 29
2, 28801, Note_on_c, 0, 68, 71
2, 28802, Note_on_c, 0, 59, 67
2, 28902, Note_on_c, 0, 56, 0
2, 29013, Note_on_c, 0, 57, 66
2, 29014, Note_on_c, 0, 66, 75
2, 29036, Note_on_c, 0, 65, 0
2, 29070, Note_on_c, 0, 68, 0
2, 29083, Note_on_c, 0, 47, 0
2, 29130, Note_on_c, 0, 59, 0
2, 29226, Note_on_c, 0, 59, 67
2, 29241, Note_on_c, 0, 68, 66
2, 29293, Note_on_c, 0, 66, 0
2, 29332, Note_on_c, 0, 57, 0
2, 29447, Note_on_c, 0, 71, 67
2, 29458, Note_on_c, 0, 56, 58
2, 29515, Note_on_c, 0, 68, 0
2, 29563, Control_c, 0, 64, 30
2, 29658, Note_on_c, 0, 59, 0
2, 29666, Note_on_c, 0, 69, 69
2, 29671, Note_on_c, 0, 54, 55
2, 29723, Note_on_c, 0, 56, 0
2, 29736, Note_on_c, 0, 71, 0
2, 29877, Note_on_c, 0, 71, 65
2, 29877, Note_on_c, 0, 74, 0
2, 29879, Note_on_c, 0, 56, 55
2, 29902, Note_on_c, 0, 54, 0
2, 29961, Note_on_c, 0, 69, 0
2, 29976, Note_on_c, 0, 57, 65
2, 29997, Note_on_c, 0, 56, 0
2, 30073, Control_c, 0, 64, 29
2, 30088, Control_c, 0, 64, 28
2, 30104, Control_c, 0, 64, 26
2, 30105, Note_on_c, 0, 59, 60
2, 30106, Note_on_c, 0, 74, 70
2, 30119, Control_c, 0, 64, 24
2, 30134, Control_c, 0, 64, 18
2, 30149, Control_c, 0, 64, 8
2, 30154, Note_on_c, 0, 57, 0
2, 30164, Control_c, 0, 64, 0
2, 30318, Note_on_c, 0, 53, 50
2, 30320, Note_on_c, 0, 73, 77
2, 30351, Note_on_c, 0, 74, 0
2, 30375, Control_c, 0, 64, 29
2, 30391, Control_c, 0, 64, 53
2, 30406, Control_c, 0, 64, 64
2, 30422, Control_c, 0, 64, 73
2, 30437, Control_c, 0, 64, 88
2, 30452, Control_c, 0, 64, 127
2, 30492, Note_on_c, 0, 73, 0
2, 30566, Note_on_c, 0, 54, 55
2, 30574, Control_c, 0, 64, 118
2, 30582, Note_on_c, 0, 73, 75
2, 30590, Control_c, 0, 64, 106
2, 30605, Control_c, 0, 64, 96
2, 30620, Control_c, 0, 64, 90
2, 30635, Control_c, 0, 64, 85
2, 30642, Note_on_c, 0, 53, 0
2, 30650, Control_c, 0, 64, 82
2, 30666, Control_c, 0, 64, 78
2, 30681, Control_c, 0, 64, 73
2, 30696, Control_c, 0, 64, 69
2, 30712, Control_c, 0, 64, 65
2, 30714, Note_on_c, 0, 59, 0
2, 30726, Control_c, 0, 64, 64
2, 30734, Note_on_c, 0, 71, 0
2, 30742, Control_c, 0, 64, 64
2, 30757, Control_c, 0, 64, 63
2, 30779, Control_c, 0, 64, 63
2, 30795, Control_c, 0, 64, 61
2, 30809, Control_c, 0, 64, 59
2, 30825, Control_c, 0, 64, 58
2, 30829, Note_on_c, 0, 69, 70
2, 30840, Control_c, 0, 64, 57
2, 30855, Control_c, 0, 64, 56
2, 30871, Control_c, 0, 64, 55
2, 30886, Control_c, 0, 64, 54
2, 30902, Control_c, 0, 64, 52
2, 30917, Control_c, 0, 64, 51
2, 30931, Control_c, 0, 64, 50
2, 30947, Control_c, 0, 64, 49
2, 30962, Control_c, 0, 64, 47
2, 30977, Control_c, 0, 64, 46
2, 30993, Control_c, 0, 64, 44
2, 31007, Control_c, 0, 64, 42
2, 31023, Control_c, 0, 64, 41
2, 31038, Control_c, 0, 64, 40
2, 31045, Note_on_c, 0, 68, 71
2, 31053, Control_c, 0, 64, 39
2, 31068, Control_c, 0, 64, 38
2, 31083, Control_c, 0, 64, 36
2, 31098, Control_c, 0, 64, 34
2, 31115, Control_c, 0, 64, 32
2, 31129, Note_on_c, 0, 69, 0
2, 31130, Control_c, 0, 64, 30
2, 31145, Control_c, 0, 64, 29
2, 31160, Control_c, 0, 64, 28
2, 31175, Control_c, 0, 64, 27
2, 31191, Control_c, 0, 64, 26
2, 31236, Control_c, 0, 64, 26
2, 31251, Control_c, 0, 64, 25
2, 31266, Control_c, 0, 64, 24
2, 31273, Note_on_c, 0, 66, 65
2, 31274, Note_on_c, 0, 45, 58
2, 31281, Control_c, 0, 64, 23
2, 31296, Control_c, 0, 64, 22
2, 31357, Control_c, 0, 64, 21
2, 31451, Note_on_c, 0, 68, 0
2, 31504, Note_on_c, 0, 71, 61
2, 31528, Note_on_c, 0, 54, 0
2, 31705, Note_on_c, 0, 73, 0
2, 31720, Note_on_c, 0, 69, 70
2, 31813, Note_on_c, 0, 71, 0
2, 31929, Note_on_c, 0, 68, 68
2, 31936, Note_on_c, 0, 47, 54
2, 32014, Note_on_c, 0, 69, 0
2, 32149, Note_on_c, 0, 45, 0
2, 32159, Note_on_c, 0, 69, 66
2, 32211, Note_on_c, 0, 68, 0
2, 32394, Note_on_c, 0, 71, 60
2, 32490, Note_on_c, 0, 69, 0
2, 32623, Note_on_c, 0, 49, 37
2, 32634, Note_on_c, 0, 65, 49
2, 32800, Note_on_c, 0, 47, 0
2, 32860, Note_on_c, 0, 69, 55
2, 32867, Note_on_c, 0, 66, 0
2, 32944, Note_on_c, 0, 71, 0
2, 33090, Note_on_c, 0, 68, 58
2, 33096, Note_on_c, 0, 69, 0
2, 33319, Note_on_c, 0, 66, 41
2, 33321, Note_on_c, 0, 42, 38
2, 33326, Note_on_c, 0, 69, 51
2, 33404, Note_on_c, 0, 68, 0
2, 33434, Note_on_c, 0, 65, 0
2, 33435, Note_on_c, 0, 49, 0
2, 33558, Note_on_c, 0, 45, 29
2, 33675, Note_on_c, 0, 42, 0
2, 33748, Note_on_c, 0, 49, 40
2, 33831, Note_on_c, 0, 45, 0
2, 33982, Note_on_c, 0, 54, 48
2, 34004, Note_on_c, 0, 49, 0
2, 34198, Note_on_c, 0, 71, 49
2, 34200, Note_on_c, 0, 52, 45
2, 34246, Note_on_c, 0, 54, 0
2, 34354, Note_on_c, 0, 69, 0
2, 34399, Note_on_c, 0, 54, 48
2, 34418, Note_on_c, 0, 68, 61
2, 34420, Note_on_c, 0, 64, 49
2, 34439, Note_on_c, 0, 71, 0
2, 34456, Note_on_c, 0, 52, 0
2, 34478, Note_on_c, 0, 66, 0
2, 34662, Note_on_c, 0, 47, 34
2, 34662, Note_on_c, 0, 69, 63
2, 34678, Note_on_c, 0, 63, 42
2, 34725, Note_on_c, 0, 68, 0
2, 34743, Note_on_c, 0, 64, 0
2, 34778, Note_on_c, 0, 54, 0
2, 34890, Note_on_c, 0, 51, 39
2, 34952, Note_on_c, 0, 47, 0
2, 35099, Note_on_c, 0, 54, 48
2, 35157, Note_on_c, 0, 51, 0
2, 35186, Note_on_c, 0, 63, 0
2, 35302, Note_on_c, 0, 59, 44
2, 35324, Note_on_c, 0, 54, 0
2, 35517, Note_on_c, 0, 69, 0
2, 35545, Note_on_c, 0, 57, 40
2, 35552, Note_on_c, 0, 71, 43
2, 35578, Note_on_c, 0, 59, 0
2, 35649, Note_on_c, 0, 69, 53
2, 35677, Note_on_c, 0, 71, 0
2, 35752, Note_on_c, 0, 68, 51
2, 35758, Note_on_c, 0, 59, 40
2, 35759, Note_on_c, 0, 57, 0
2, 35780, Note_on_c, 0, 69, 0
2, 35851, Note_on_c, 0, 66, 48
2, 35851, Note_on_c, 0, 68, 0
2, 35938, Note_on_c, 0, 66, 0
2, 35960, Note_on_c, 0, 68, 45
2, 35963, Note_on_c, 0, 52, 35
2, 36043, Note_on_c, 0, 59, 0
2, 36064, Note_on_c, 0, 66, 45
2, 36074, Note_on_c, 0, 68, 0
2, 36160, Note_on_c, 0, 66, 0
2, 36179, Note_on_c, 0, 64, 50
2, 36191, Note_on_c, 0, 56, 35
2, 36270, Note_on_c, 0, 64, 0
2, 36273, Note_on_c, 0, 66, 42
2, 36367, Note_on_c, 0, 52, 0
2, 36370, Note_on_c, 0, 59, 59
2, 36399, Note_on_c, 0, 68, 50
2, 36464, Note_on_c, 0, 68, 0
2, 36478, Note_on_c, 0, 69, 61
2, 36487, Note_on_c, 0, 66, 0
2, 36495, Note_on_c, 0, 56, 0
2, 36588, Note_on_c, 0, 64, 61
2, 36588, Note_on_c, 0, 69, 0
2, 36593, Note_on_c, 0, 71, 58
2, 36651, Note_on_c, 0, 59, 0
2, 36683, Note_on_c, 0, 71, 0
2, 36693, Note_on_c, 0, 69, 62
2, 36799, Note_on_c, 0, 62, 65
2, 36799, Note_on_c, 0, 68, 64
2, 36799, Note_on_c, 0, 69, 0
2, 36863, Note_on_c, 0, 64, 0
2, 36896, Note_on_c, 0, 69, 75
2, 36905, Note_on_c, 0, 68, 0
2, 37003, Note_on_c, 0, 61, 55
2, 37010, Note_on_c, 0, 71, 71
2, 37044, Note_on_c, 0, 69, 0
2, 37069, Note_on_c, 0, 62, 0
2, 37098, Note_on_c, 0, 73, 70
2, 37161, Note_on_c, 0, 71, 0
2, 37202, Note_on_c, 0, 59, 57
2, 37215, Note_on_c, 0, 74, 69
2, 37220, Note_on_c, 0, 73, 0
2, 37290, Note_on_c, 0, 61, 0
2, 37312, Note_on_c, 0, 73, 72
2, 37367, Note_on_c, 0, 74, 0
2, 37408, Note_on_c, 0, 71, 74
2, 37442, Note_on_c, 0, 73, 0
2, 37510, Note_on_c, 0, 69, 76
2, 37512, Note_on_c, 0, 71, 0
2, 37592, Control_c, 0, 64, 19
2, 37606, Control_c, 0, 64, 17
2, 37618, Note_on_c, 0, 68, 69
2, 37622, Control_c, 0, 64, 16
2, 37628, Note_on_c, 0, 57, 46
2, 37632, Note_on_c, 0, 69, 0
2, 37634, Note_on_c, 0, 59, 0
2, 37637, Control_c, 0, 64, 14
2, 37652, Control_c, 0, 64, 10
2, 37668, Control_c, 0, 64, 0
2, 37720, Note_on_c, 0, 66, 66
2, 37761, Note_on_c, 0, 68, 0
2, 37811, Note_on_c, 0, 57, 0
2, 37832, Note_on_c, 0, 56, 35
2, 37841, Note_on_c, 0, 64, 60
2, 37851, Note_on_c, 0, 66, 0
2, 37950, Note_on_c, 0, 62, 51
2, 37965, Control_c, 0, 64, 27
2, 37979, Control_c, 0, 64, 48
2, 37993, Note_on_c, 0, 56, 0
2, 37995, Control_c, 0, 64, 59
2, 38010, Control_c, 0, 64, 66
2, 38026, Control_c, 0, 64, 72
2, 38029, Note_on_c, 0, 64, 0
2, 38040, Note_on_c, 0, 62, 0
2, 38041, Control_c, 0, 64, 81
2, 38051, Note_on_c, 0, 61, 62
2, 38055, Control_c, 0, 64, 89
2, 38071, Control_c, 0, 64, 91
2, 38086, Control_c, 0, 64, 90
2, 38102, Control_c, 0, 64, 88
2, 38117, Control_c, 0, 64, 85
2, 38132, Control_c, 0, 64, 81
2, 38137, Note_on_c, 0, 61, 0
2, 38148, Control_c, 0, 64, 78
2, 38148, Note_on_c, 0, 59, 77
2, 38162, Control_c, 0, 64, 74
2, 38177, Control_c, 0, 64, 71
2, 38193, Control_c, 0, 64, 67
2, 38208, Control_c, 0, 64, 64
2, 38224, Control_c, 0, 64, 61
2, 38239, Control_c, 0, 64, 57
2, 38253, Control_c, 0, 64, 52
2, 38257, Note_on_c, 0, 57, 70
2, 38268, Note_on_c, 0, 59, 0
2, 38269, Control_c, 0, 64, 48
2, 38284, Control_c, 0, 64, 42
2, 38298, Control_c, 0, 64, 34
2, 38314, Control_c, 0, 64, 21
2, 38329, Control_c, 0, 64, 0
2, 38361, Note_on_c, 0, 56, 67
2, 38400, Note_on_c, 0, 57, 0
2, 38531, Note_on_c, 0, 69, 74
2, 38533, Note_on_c, 0, 57, 64
2, 38688, Note_on_c, 0, 56, 0
2, 38764, Note_on_c, 0, 73, 77
2, 38975, Note_on_c, 0, 76, 78
2, 39075, Note_on_c, 0, 69, 0
2, 39187, Note_on_c, 0, 81, 72
2, 39195, Note_on_c, 0, 61, 47
2, 39201, Note_on_c, 0, 73, 0
2, 39246, Note_on_c, 0, 76, 0
2, 39425, Note_on_c, 0, 80, 75
2, 39493, Note_on_c, 0, 81, 0
2, 39638, Note_on_c, 0, 81, 68
2, 39685, Note_on_c, 0, 80, 0
2, 39848, Note_on_c, 0, 81, 0
2, 39863, Note_on_c, 0, 80, 58
2, 39873, Note_on_c, 0, 62, 54
2, 39914, Note_on_c, 0, 80, 0
2, 39931, Note_on_c, 0, 78, 63
2, 39969, Note_on_c, 0, 78, 0
2, 39979, Note_on_c, 0, 80, 53
2, 40013, Note_on_c, 0, 61, 0
2, 40040, Note_on_c, 0, 78, 72
2, 40048, Note_on_c, 0, 80, 0
2, 40108, Note_on_c, 0, 76, 75
2, 40174, Note_on_c, 0, 78, 0
2, 40315, Note_on_c, 0, 78, 77
2, 40441, Note_on_c, 0, 76, 0
2, 40551, Note_on_c, 0, 81, 70
2, 40716, Note_on_c, 0, 78, 0
2, 40786, Note_on_c, 0, 61, 46
2, 40985, Note_on_c, 0, 59, 59
2, 41021, Note_on_c, 0, 62, 0
2, 41073, Note_on_c, 0, 61, 0
2, 41165, Note_on_c, 0, 81, 0
2, 41209, Note_on_c, 0, 61, 56
2, 41218, Note_on_c, 0, 78, 53
2, 41266, Note_on_c, 0, 78, 0
2, 41281, Note_on_c, 0, 76, 55
2, 41327, Note_on_c, 0, 76, 0
2, 41343, Note_on_c, 0, 78, 63
2, 41347, Note_on_c, 0, 59, 0
2, 41381, Note_on_c, 0, 76, 60
2, 41402, Note_on_c, 0, 78, 0
2, 41446, Note_on_c, 0, 74, 67
2, 41486, Note_on_c, 0, 76, 0
2, 41670, Note_on_c, 0, 76, 67
2, 41760, Note_on_c, 0, 74, 0
2, 41907, Note_on_c, 0, 81, 61
2, 42033, Note_on_c, 0, 76, 0
2, 42121, Note_on_c, 0, 62, 45
2, 42197, Note_on_c, 0, 61, 0
2, 42345, Note_on_c, 0, 61, 56
2, 42421, Note_on_c, 0, 62, 0
2, 42571, Note_on_c, 0, 59, 56
2, 42579, Note_on_c, 0, 74, 49
2, 42695, Note_on_c, 0, 81, 0
2, 42727, Note_on_c, 0, 61, 0
2, 42807, Note_on_c, 0, 76, 58
2, 42941, Note_on_c, 0, 74, 0
2, 43025, Note_on_c, 0, 78, 72
2, 43120, Note_on_c, 0, 76, 0
2, 43247, Note_on_c, 0, 76, 66
2, 43263, Note_on_c, 0, 56, 32
2, 43308, Note_on_c, 0, 78, 0
2, 43316, Note_on_c, 0, 57, 0
2, 43402, Control_c, 0, 64, 29
2, 43417, Control_c, 0, 64, 46
2, 43433, Control_c, 0, 64, 56
2, 43448, Control_c, 0, 64, 63
2, 43463, Control_c, 0, 64, 68
2, 43477, Note_on_c, 0, 59, 0
2, 43477, Note_on_c, 0, 78, 74
2, 43478, Control_c, 0, 64, 77
2, 43493, Control_c, 0, 64, 93
2, 43508, Control_c, 0, 64, 127
2, 43530, Note_on_c, 0, 76, 0
2, 43555, Note_on_c, 0, 56, 0
2, 43701, Note_on_c, 0, 74, 67
2, 43713, Note_on_c, 0, 78, 0
2, 43767, Control_c, 0, 64, 117
2, 43783, Control_c, 0, 64, 110
2, 43798, Control_c, 0, 64, 104
2, 43812, Control_c, 0, 64, 98
2, 43836, Control_c, 0, 64, 93
2, 43851, Control_c, 0, 64, 88
2, 43867, Control_c, 0, 64, 83
2, 43882, Control_c, 0, 64, 79
2, 43896, Control_c, 0, 64, 75
2, 43912, Control_c, 0, 64, 72
2, 43927, Control_c, 0, 64, 70
2, 43927, Note_on_c, 0, 45, 36
2, 43937, Note_on_c, 0, 73, 60
2, 43941, Control_c, 0, 64, 69
2, 43949, Note_on_c, 0, 74, 0
2, 43957, Control_c, 0, 64, 68
2, 43972, Control_c, 0, 64, 66
2, 43988, Control_c, 0, 64, 65
2, 44003, Control_c, 0, 64, 64
2, 44017, Control_c, 0, 64, 64
2, 44048, Control_c, 0, 64, 63
2, 44064, Control_c, 0, 64, 62
2, 44079, Control_c, 0, 64, 61
2, 44093, Control_c, 0, 64, 59
2, 44109, Control_c, 0, 64, 59
2, 44124, Control_c, 0, 64, 58
2, 44139, Control_c, 0, 64, 57
2, 44143, Note_on_c, 0, 49, 38
2, 44155, Control_c, 0, 64, 56
2, 44164, Note_on_c, 0, 69, 56
2, 44170, Control_c, 0, 64, 54
2, 44186, Control_c, 0, 64, 51
2, 44201, Control_c, 0, 64, 50
2, 44216, Control_c, 0, 64, 49
2, 44231, Control_c, 0, 64, 48
2, 44246, Control_c, 0, 64, 47
2, 44249, Note_on_c, 0, 73, 0
2, 44261, Control_c, 0, 64, 45
2, 44276, Control_c, 0, 64, 44
2, 44291, Control_c, 0, 64, 44
2, 44307, Control_c, 0, 64, 43
2, 44322, Control_c, 0, 64, 42
2, 44335, Note_on_c, 0, 45, 0
2, 44337, Control_c, 0, 64, 42
2, 44352, Control_c, 0, 64, 41
2, 44365, Note_on_c, 0, 52, 51
2, 44374, Note_on_c, 0, 71, 65
2, 44398, Control_c, 0, 64, 40
2, 44413, Control_c, 0, 64, 39
2, 44428, Control_c, 0, 64, 39
2, 44446, Note_on_c, 0, 69, 0
2, 44471, Note_on_c, 0, 49, 0
2, 44606, Note_on_c, 0, 73, 66
2, 44613, Note_on_c, 0, 57, 45
2, 44656, Note_on_c, 0, 52, 0
2, 44709, Note_on_c, 0, 71, 0
2, 44825, Note_on_c, 0, 56, 57
2, 44897, Note_on_c, 0, 57, 0
2, 45037, Note_on_c, 0, 57, 58
2, 45044, Control_c, 0, 64, 39
2, 45170, Note_on_c, 0, 56, 0
2, 45211, Control_c, 0, 64, 40
2, 45266, Note_on_c, 0, 51, 59
2, 45451, Note_on_c, 0, 57, 0
2, 45509, Note_on_c, 0, 71, 53
2, 45595, Note_on_c, 0, 73, 0
2, 45630, Control_c, 0, 64, 39
2, 45660, Control_c, 0, 64, 39
2, 45691, Control_c, 0, 64, 38
2, 45705, Control_c, 0, 64, 37
2, 45720, Control_c, 0, 64, 35
2, 45723, Note_on_c, 0, 54, 53
2, 45726, Note_on_c, 0, 69, 57
2, 45735, Control_c, 0, 64, 34
2, 45748, Note_on_c, 0, 71, 0
2, 45750, Control_c, 0, 64, 32
2, 45765, Control_c, 0, 64, 30
2, 45780, Control_c, 0, 64, 28
2, 45796, Control_c, 0, 64, 25
2, 45811, Control_c, 0, 64, 20
2, 45826, Control_c, 0, 64, 15
2, 45841, Control_c, 0, 64, 0
2, 45841, Note_on_c, 0, 54, 0
2, 45959, Note_on_c, 0, 59, 64
2, 45960, Note_on_c, 0, 68, 60
2, 45971, Note_on_c, 0, 69, 0
2, 46169, Control_c, 0, 64, 41
2, 46185, Control_c, 0, 64, 59
2, 46187, Note_on_c, 0, 69, 72
2, 46199, Control_c, 0, 64, 65
2, 46212, Note_on_c, 0, 59, 0
2, 46214, Control_c, 0, 64, 73
2, 46226, Note_on_c, 0, 68, 0
2, 46230, Control_c, 0, 64, 89
2, 46245, Control_c, 0, 64, 127
2, 46286, Note_on_c, 0, 51, 0
2, 46405, Note_on_c, 0, 66, 74
2, 46504, Control_c, 0, 64, 110
2, 46512, Note_on_c, 0, 69, 0
2, 46519, Control_c, 0, 64, 103
2, 46534, Control_c, 0, 64, 99
2, 46549, Control_c, 0, 64, 97
2, 46564, Control_c, 0, 64, 94
2, 46579, Control_c, 0, 64, 92
2, 46595, Control_c, 0, 64, 89
2, 46610, Control_c, 0, 64, 86
2, 46626, Control_c, 0, 64, 82
2, 46632, Note_on_c, 0, 68, 70
2, 46635, Note_on_c, 0, 40, 50
2, 46640, Control_c, 0, 64, 79
2, 46655, Control_c, 0, 64, 77
2, 46671, Control_c, 0, 64, 74
2, 46682, Note_on_c, 0, 66, 0
2, 46686, Control_c, 0, 64, 72
2, 46701, Control_c, 0, 64, 70
2, 46717, Control_c, 0, 64, 69
2, 46732, Control_c, 0, 64, 68
2, 46747, Control_c, 0, 64, 67
2, 46762, Control_c, 0, 64, 66
2, 46777, Control_c, 0, 64, 65
2, 46807, Control_c, 0, 64, 64
2, 46823, Control_c, 0, 64, 64
2, 46838, Control_c, 0, 64, 63
2, 46853, Control_c, 0, 64, 62
2, 46860, Note_on_c, 0, 44, 57
2, 46864, Note_on_c, 0, 64, 72
2, 46869, Control_c, 0, 64, 61
2, 46883, Control_c, 0, 64, 61
2, 46907, Control_c, 0, 64, 60
2, 46922, Control_c, 0, 64, 60
2, 46936, Control_c, 0, 64, 58
2, 46952, Control_c, 0, 64, 57
2, 46983, Control_c, 0, 64, 57
2, 46998, Control_c, 0, 64, 56
2, 46998, Note_on_c, 0, 68, 0
2, 47029, Control_c, 0, 64, 55
2, 47038, Note_on_c, 0, 40, 0
2, 47044, Control_c, 0, 64, 53
2, 47059, Control_c, 0, 64, 53
2, 47075, Control_c, 0, 64, 52
2, 47081, Note_on_c, 0, 47, 63
2, 47084, Note_on_c, 0, 66, 76
2, 47106, Control_c, 0, 64, 51
2, 47120, Control_c, 0, 64, 49
2, 47135, Control_c, 0, 64, 47
2, 47151, Control_c, 0, 64, 46
2, 47181, Control_c, 0, 64, 45
2, 47195, Note_on_c, 0, 64, 0
2, 47196, Control_c, 0, 64, 45
2, 47206, Note_on_c, 0, 44, 0
2, 47209, Control_c, 0, 64, 44
2, 47224, Control_c, 0, 64, 43
2, 47239, Control_c, 0, 64, 40
2, 47254, Control_c, 0, 64, 33
2, 47270, Control_c, 0, 64, 26
2, 47285, Control_c, 0, 64, 10
2, 47298, Note_on_c, 0, 68, 81
2, 47300, Control_c, 0, 64, 0
2, 47301, Note_on_c, 0, 52, 56
2, 47381, Note_on_c, 0, 47, 0
2, 47422, Note_on_c, 0, 66, 0
2, 47514, Note_on_c, 0, 51, 72
2, 47616, Note_on_c, 0, 52, 0
2, 47736, Note_on_c, 0, 52, 73
2, 47880, Note_on_c, 0, 51, 0
2, 47970, Note_on_c, 0, 45, 70
2, 48126, Note_on_c, 0, 52, 0
2, 48200, Note_on_c, 0, 69, 80
2, 48274, Note_on_c, 0, 68, 0
2, 48410, Note_on_c, 0, 52, 57
2, 48417, Note_on_c, 0, 71, 79
2, 48500, Note_on_c, 0, 69, 0
2, 48561, Note_on_c, 0, 52, 0
2, 48670, Note_on_c, 0, 57, 68
2, 48672, Note_on_c, 0, 73, 80
2, 48729, Note_on_c, 0, 71, 0
2, 48912, Control_c, 0, 64, 10
2, 48913, Note_on_c, 0, 66, 82
2, 48926, Control_c, 0, 64, 37
2, 48941, Control_c, 0, 64, 54
2, 48957, Control_c, 0, 64, 67
2, 48972, Control_c, 0, 64, 81
2, 48987, Control_c, 0, 64, 127
2, 48998, Note_on_c, 0, 45, 0
2, 49014, Note_on_c, 0, 73, 0
2, 49128, Note_on_c, 0, 69, 81
2, 49222, Note_on_c, 0, 66, 0
2, 49390, Control_c, 0, 64, 121
2, 49393, Note_on_c, 0, 59, 74
2, 49399, Note_on_c, 0, 47, 59
2, 49405, Control_c, 0, 64, 110
2, 49421, Control_c, 0, 64, 104
2, 49436, Control_c, 0, 64, 97
2, 49451, Control_c, 0, 64, 92
2, 49466, Control_c, 0, 64, 87
2, 49482, Control_c, 0, 64, 83
2, 49497, Control_c, 0, 64, 79
2, 49513, Control_c, 0, 64, 76
2, 49527, Control_c, 0, 64, 72
2, 49542, Control_c, 0, 64, 70
2, 49558, Control_c, 0, 64, 69
2, 49565, Note_on_c, 0, 69, 0
2, 49573, Control_c, 0, 64, 67
2, 49588, Control_c, 0, 64, 66
2, 49604, Control_c, 0, 64, 65
2, 49619, Control_c, 0, 64, 64
2, 49628, Note_on_c, 0, 63, 77
2, 49635, Control_c, 0, 64, 63
2, 49649, Control_c, 0, 64, 61
2, 49664, Control_c, 0, 64, 60
2, 49680, Control_c, 0, 64, 58
2, 49694, Control_c, 0, 64, 57
2, 49710, Control_c, 0, 64, 55
2, 49725, Control_c, 0, 64, 53
2, 49740, Control_c, 0, 64, 52
2, 49756, Control_c, 0, 64, 50
2, 49770, Control_c, 0, 64, 47
2, 49785, Control_c, 0, 64, 44
2, 49801, Control_c, 0, 64, 42
2, 49816, Control_c, 0, 64, 40
2, 49832, Control_c, 0, 64, 38
2, 49844, Note_on_c, 0, 66, 79
2, 49846, Control_c, 0, 64, 34
2, 49861, Control_c, 0, 64, 31
2, 49871, Note_on_c, 0, 59, 0
2, 49877, Control_c, 0, 64, 29
2, 49891, Control_c, 0, 64, 26
2, 49906, Control_c, 0, 64, 21
2, 49922, Control_c, 0, 64, 17
2, 49937, Control_c, 0, 64, 15
2, 49953, Control_c, 0, 64, 12
2, 49968, Control_c, 0, 64, 10
2, 49991, Control_c, 0, 64, 8
2, 50021, Control_c, 0, 64, 0
2, 50071, Note_on_c, 0, 71, 70
2, 50078, Note_on_c, 0, 56, 71
2, 50106, Note_on_c, 0, 63, 0
2, 50134, Note_on_c, 0, 66, 0
2, 50303, Note_on_c, 0, 69, 76
2, 50375, Note_on_c, 0, 57, 0
2, 50377, Note_on_c, 0, 71, 0
2, 50519, Note_on_c, 0, 71, 77
2, 50625, Note_on_c, 0, 69, 0
2, 50747, Note_on_c, 0, 61, 71
2, 50876, Note_on_c, 0, 71, 0
2, 50969, Note_on_c, 0, 64, 71
2, 51110, Note_on_c, 0, 61, 0
2, 51187, Note_on_c, 0, 68, 71
2, 51414, Note_on_c, 0, 69, 67
2, 51458, Note_on_c, 0, 64, 0
2, 51567, Note_on_c, 0, 68, 0
2, 51651, Note_on_c, 0, 54, 55
2, 51744, Note_on_c, 0, 56, 0
2, 51864, Note_on_c, 0, 52, 59
2, 51955, Note_on_c, 0, 54, 0
2, 52092, Note_on_c, 0, 51, 56
2, 52095, Note_on_c, 0, 59, 57
2, 52231, Note_on_c, 0, 69, 0
2, 52237, Note_on_c, 0, 52, 0
2, 52342, Note_on_c, 0, 63, 62
2, 52474, Note_on_c, 0, 59, 0
2, 52556, Note_on_c, 0, 66, 64
2, 52651, Note_on_c, 0, 63, 0
2, 52777, Note_on_c, 0, 69, 61
2, 52823, Note_on_c, 0, 66, 0
2, 52998, Note_on_c, 0, 68, 53
2, 53057, Note_on_c, 0, 69, 0
2, 53210, Note_on_c, 0, 69, 47
2, 53217, Note_on_c, 0, 42, 47
2, 53237, Note_on_c, 0, 47, 0
2, 53239, Note_on_c, 0, 68, 0
2, 53397, Note_on_c, 0, 42, 0
2, 53450, Note_on_c, 0, 43, 49
2, 53462, Note_on_c, 0, 59, 41
2, 53480, Note_on_c, 0, 69, 0
2, 53693, Note_on_c, 0, 63, 51
2, 53825, Note_on_c, 0, 59, 0
2, 53911, Note_on_c, 0, 66, 55
2, 53991, Note_on_c, 0, 63, 0
2, 54136, Note_on_c, 0, 52, 40
2, 54145, Note_on_c, 0, 67, 54
2, 54251, Note_on_c, 0, 66, 0
2, 54282, Note_on_c, 0, 51, 0
2, 54370, Note_on_c, 0, 45, 40
2, 54464, Note_on_c, 0, 43, 0
2, 54587, Note_on_c, 0, 47, 51
2, 54627, Note_on_c, 0, 45, 0
2, 54821, Note_on_c, 0, 47, 0
2, 54840, Note_on_c, 0, 48, 50
2, 55053, Note_on_c, 0, 69, 53
2, 55054, Note_on_c, 0, 67, 0
2, 55067, Note_on_c, 0, 54, 48
2, 55268, Note_on_c, 0, 67, 69
2, 55276, Note_on_c, 0, 55, 59
2, 55315, Note_on_c, 0, 52, 0
2, 55366, Note_on_c, 0, 69, 0
2, 55406, Note_on_c, 0, 54, 0
2, 55491, Note_on_c, 0, 66, 65
2, 55497, Note_on_c, 0, 57, 71
2, 55552, Note_on_c, 0, 67, 0
2, 55640, Note_on_c, 0, 55, 0
2, 55715, Note_on_c, 0, 67, 73
2, 55720, Control_c, 0, 64, 29
2, 55735, Control_c, 0, 64, 43
2, 55750, Control_c, 0, 64, 60
2, 55760, Note_on_c, 0, 66, 0
2, 55765, Control_c, 0, 64, 66
2, 55780, Control_c, 0, 64, 72
2, 55796, Control_c, 0, 64, 83
2, 55811, Control_c, 0, 64, 109
2, 55816, Note_on_c, 0, 48, 0
2, 55826, Control_c, 0, 64, 127
2, 55934, Note_on_c, 0, 64, 80
2, 55994, Note_on_c, 0, 67, 0
2, 56138, Control_c, 0, 64, 121
2, 56154, Control_c, 0, 64, 111
2, 56160, Note_on_c, 0, 63, 76
2, 56164, Note_on_c, 0, 47, 66
2, 56169, Control_c, 0, 64, 102
2, 56184, Control_c, 0, 64, 93
2, 56199, Control_c, 0, 64, 86
2, 56214, Control_c, 0, 64, 80
2, 56230, Control_c, 0, 64, 75
2, 56245, Control_c, 0, 64, 71
2, 56254, Note_on_c, 0, 64, 0
2, 56259, Control_c, 0, 64, 69
2, 56275, Control_c, 0, 64, 67
2, 56290, Control_c, 0, 64, 66
2, 56305, Control_c, 0, 64, 65
2, 56320, Control_c, 0, 64, 64
2, 56335, Control_c, 0, 64, 63
2, 56351, Control_c, 0, 64, 62
2, 56366, Control_c, 0, 64, 61
2, 56381, Control_c, 0, 64, 59
2, 56397, Control_c, 0, 64, 58
2, 56399, Note_on_c, 0, 61, 80
2, 56411, Control_c, 0, 64, 56
2, 56427, Control_c, 0, 64, 55
2, 56442, Control_c, 0, 64, 53
2, 56456, Control_c, 0, 64, 50
2, 56472, Control_c, 0, 64, 48
2, 56487, Control_c, 0, 64, 46
2, 56501, Control_c, 0, 64, 43
2, 56517, Control_c, 0, 64, 39
2, 56532, Control_c, 0, 64, 35
2, 56548, Control_c, 0, 64, 31
2, 56563, Control_c, 0, 64, 29
2, 56563, Note_on_c, 0, 63, 0
2, 56577, Control_c, 0, 64, 26
2, 56593, Control_c, 0, 64, 24
2, 56608, Control_c, 0, 64, 21
2, 56624, Control_c, 0, 64, 17
2, 56626, Note_on_c, 0, 59, 82
2, 56639, Control_c, 0, 64, 12
2, 56654, Control_c, 0, 64, 8
2, 56669, Control_c, 0, 64, 0
2, 56768, Note_on_c, 0, 61, 0
2, 56883, Control_c, 0, 64, 8
2, 56900, Note_on_c, 0, 72, 80
2, 56906, Control_c, 0, 64, 10
2, 56936, Control_c, 0, 64, 12
2, 56997, Control_c, 0, 64, 14
2, 57096, Note_on_c, 0, 59, 0
2, 57152, Note_on_c, 0, 56, 63
2, 57155, Note_on_c, 0, 49, 53
2, 57160, Note_on_c, 0, 71, 77
2, 57258, Note_on_c, 0, 57, 0
2, 57274, Note_on_c, 0, 47, 0
2, 57361, Note_on_c, 0, 72, 0
2, 57368, Note_on_c, 0, 51, 67
2, 57372, Note_on_c, 0, 70, 83
2, 57377, Note_on_c, 0, 54, 73
2, 57391, Control_c, 0, 64, 15
2, 57447, Note_on_c, 0, 56, 0
2, 57465, Note_on_c, 0, 49, 0
2, 57503, Note_on_c, 0, 71, 0
2, 57590, Note_on_c, 0, 52, 72
2, 57595, Note_on_c, 0, 69, 79
2, 57685, Note_on_c, 0, 70, 0
2, 57712, Note_on_c, 0, 51, 0
2, 57815, Note_on_c, 0, 54, 0
2, 57821, Note_on_c, 0, 68, 76
2, 57879, Note_on_c, 0, 69, 0
2, 57977, Control_c, 0, 64, 14
2, 58030, Note_on_c, 0, 67, 70
2, 58031, Note_on_c, 0, 46, 58
2, 58053, Control_c, 0, 64, 12
2, 58069, Control_c, 0, 64, 10
2, 58084, Control_c, 0, 64, 8
2, 58086, Note_on_c, 0, 68, 0
2, 58099, Control_c, 0, 64, 0
2, 58251, Note_on_c, 0, 47, 61
2, 58261, Note_on_c, 0, 66, 64
2, 58264, Note_on_c, 0, 46, 0
2, 58320, Note_on_c, 0, 67, 0
2, 58364, Note_on_c, 0, 68, 70
2, 58435, Note_on_c, 0, 66, 0
2, 58499, Note_on_c, 0, 51, 63
2, 58499, Note_on_c, 0, 69, 76
2, 58580, Note_on_c, 0, 68, 0
2, 58605, Note_on_c, 0, 52, 0
2, 58770, Note_on_c, 0, 57, 61
2, 58770, Note_on_c, 0, 63, 78
2, 58775, Control_c, 0, 64, 36
2, 58791, Control_c, 0, 64, 54
2, 58805, Control_c, 0, 64, 64
2, 58811, Note_on_c, 0, 69, 0
2, 58820, Control_c, 0, 64, 70
2, 58836, Control_c, 0, 64, 81
2, 58851, Control_c, 0, 64, 104
2, 58867, Control_c, 0, 64, 127
2, 58891, Note_on_c, 0, 47, 0
2, 58895, Note_on_c, 0, 51, 0
2, 59070, Note_on_c, 0, 56, 66
2, 59071, Note_on_c, 0, 49, 54
2, 59078, Note_on_c, 0, 64, 79
2, 59094, Control_c, 0, 64, 119
2, 59109, Control_c, 0, 64, 105
2, 59124, Control_c, 0, 64, 95
2, 59139, Control_c, 0, 64, 85
2, 59151, Note_on_c, 0, 63, 0
2, 59155, Control_c, 0, 64, 76
2, 59169, Control_c, 0, 64, 71
2, 59193, Control_c, 0, 64, 66
2, 59208, Control_c, 0, 64, 65
2, 59209, Note_on_c, 0, 57, 0
2, 59224, Control_c, 0, 64, 63
2, 59239, Control_c, 0, 64, 62
2, 59255, Control_c, 0, 64, 61
2, 59270, Control_c, 0, 64, 59
2, 59285, Control_c, 0, 64, 57
2, 59300, Control_c, 0, 64, 55
2, 59316, Control_c, 0, 64, 53
2, 59331, Control_c, 0, 64, 51
2, 59346, Control_c, 0, 64, 49
2, 59361, Control_c, 0, 64, 46
2, 59376, Control_c, 0, 64, 40
2, 59390, Note_on_c, 0, 52, 63
2, 59392, Control_c, 0, 64, 37
2, 59406, Control_c, 0, 64, 34
2, 59421, Control_c, 0, 64, 33
2, 59437, Control_c, 0, 64, 31
2, 59452, Control_c, 0, 64, 29
2, 59468, Control_c, 0, 64, 25
2, 59482, Control_c, 0, 64, 22
2, 59497, Control_c, 0, 64, 18
2, 59505, Note_on_c, 0, 56, 0
2, 59513, Control_c, 0, 64, 14
2, 59528, Control_c, 0, 64, 8
2, 59544, Control_c, 0, 64, 0
2, 59628, Note_on_c, 0, 56, 65
2, 59772, Note_on_c, 0, 52, 0
2, 59851, Note_on_c, 0, 57, 60
2, 59943, Note_on_c, 0, 56, 0
2, 60083, Note_on_c, 0, 56, 67
2, 60144, Note_on_c, 0, 57, 0
2, 60238, Control_c, 0, 64, 30
2, 60252, Control_c, 0, 64, 43
2, 60268, Control_c, 0, 64, 56
2, 60283, Control_c, 0, 64, 64
2, 60299, Control_c, 0, 64, 69
2, 60303, Note_on_c, 0, 57, 61
2, 60316, Control_c, 0, 64, 78
2, 60331, Control_c, 0, 64, 99
2, 60343, Note_on_c, 0, 49, 0
2, 60346, Control_c, 0, 64, 127
2, 60354, Note_on_c, 0, 56, 0
2, 60498, Control_c, 0, 64, 115
2, 60513, Control_c, 0, 64, 107
2, 60529, Control_c, 0, 64, 99
2, 60544, Control_c, 0, 64, 93
2, 60547, Note_on_c, 0, 44, 60
2, 60550, Note_on_c, 0, 52, 54
2, 60559, Control_c, 0, 64, 87
2, 60574, Control_c, 0, 64, 82
2, 60589, Control_c, 0, 64, 76
2, 60604, Control_c, 0, 64, 72
2, 60620, Control_c, 0, 64, 68
2, 60635, Control_c, 0, 64, 66
2, 60651, Control_c, 0, 64, 65
2, 60665, Control_c, 0, 64, 65
2, 60680, Control_c, 0, 64, 64
2, 60696, Control_c, 0, 64, 63
2, 60711, Control_c, 0, 64, 62
2, 60726, Control_c, 0, 64, 60
2, 60748, Control_c, 0, 64, 59
2, 60763, Control_c, 0, 64, 59
2, 60779, Control_c, 0, 64, 58
2, 60794, Control_c, 0, 64, 58
2, 60810, Control_c, 0, 64, 56
2, 60814, Note_on_c, 0, 56, 48
2, 60825, Control_c, 0, 64, 55
2, 60840, Control_c, 0, 64, 54
2, 60856, Control_c, 0, 64, 53
2, 60870, Control_c, 0, 64, 52
2, 60886, Control_c, 0, 64, 52
2, 60901, Control_c, 0, 64, 51
2, 60905, Note_on_c, 0, 57, 0
2, 60916, Control_c, 0, 64, 50
2, 60932, Control_c, 0, 64, 48
2, 60947, Control_c, 0, 64, 47
2, 60962, Control_c, 0, 64, 46
2, 60978, Control_c, 0, 64, 46
2, 60993, Control_c, 0, 64, 44
2, 61008, Control_c, 0, 64, 43
2, 61024, Control_c, 0, 64, 41
2, 61034, Note_on_c, 0, 59, 53
2, 61038, Control_c, 0, 64, 40
2, 61054, Control_c, 0, 64, 39
2, 61069, Control_c, 0, 64, 38
2, 61084, Control_c, 0, 64, 37
2, 61099, Control_c, 0, 64, 35
2, 61114, Control_c, 0, 64, 34
2, 61130, Control_c, 0, 64, 31
2, 61145, Control_c, 0, 64, 28
2, 61157, Note_on_c, 0, 56, 0
2, 61160, Control_c, 0, 64, 26
2, 61175, Control_c, 0, 64, 24
2, 61190, Control_c, 0, 64, 22
2, 61205, Control_c, 0, 64, 18
2, 61221, Control_c, 0, 64, 12
2, 61236, Control_c, 0, 64, 0
2, 61254, Note_on_c, 0, 62, 51
2, 61364, Note_on_c, 0, 59, 0
2, 61387, Control_c, 0, 64, 8
2, 61402, Control_c, 0, 64, 18
2, 61418, Control_c, 0, 64, 28
2, 61433, Control_c, 0, 64, 35
2, 61448, Control_c, 0, 64, 42
2, 61464, Control_c, 0, 64, 51
2, 61479, Control_c, 0, 64, 60
2, 61486, Note_on_c, 0, 61, 58
2, 61495, Control_c, 0, 64, 65
2, 61516, Control_c, 0, 64, 69
2, 61532, Control_c, 0, 64, 76
2, 61547, Control_c, 0, 64, 86
2, 61562, Control_c, 0, 64, 99
2, 61562, Note_on_c, 0, 62, 0
2, 61578, Control_c, 0, 64, 127
2, 61591, Note_on_c, 0, 44, 0
2, 61733, Note_on_c, 0, 62, 52
2, 61764, Note_on_c, 0, 61, 0
2, 61776, Control_c, 0, 64, 121
2, 61791, Control_c, 0, 64, 115
2, 61806, Control_c, 0, 64, 111
2, 61822, Control_c, 0, 64, 108
2, 61837, Control_c, 0, 64, 104
2, 61853, Control_c, 0, 64, 101
2, 61867, Control_c, 0, 64, 98
2, 61882, Control_c, 0, 64, 95
2, 61898, Control_c, 0, 64, 91
2, 61913, Control_c, 0, 64, 88
2, 61928, Control_c, 0, 64, 86
2, 61944, Control_c, 0, 64, 83
2, 61959, Control_c, 0, 64, 80
2, 61968, Note_on_c, 0, 45, 46
2, 61975, Control_c, 0, 64, 77
2, 61985, Note_on_c, 0, 61, 54
2, 61990, Control_c, 0, 64, 75
2, 62005, Control_c, 0, 64, 73
2, 62020, Control_c, 0, 64, 72
2, 62035, Control_c, 0, 64, 70
2, 62051, Control_c, 0, 64, 68
2, 62065, Control_c, 0, 64, 67
2, 62080, Control_c, 0, 64, 65
2, 62093, Note_on_c, 0, 62, 0
2, 62096, Control_c, 0, 64, 64
2, 62111, Control_c, 0, 64, 64
2, 62124, Note_on_c, 0, 52, 0
2, 62126, Control_c, 0, 64, 63
2, 62141, Control_c, 0, 64, 62
2, 62156, Control_c, 0, 64, 60
2, 62172, Control_c, 0, 64, 58
2, 62187, Control_c, 0, 64, 56
2, 62202, Control_c, 0, 64, 55
2, 62217, Control_c, 0, 64, 54
2, 62226, Note_on_c, 0, 49, 42
2, 62232, Control_c, 0, 64, 52
2, 62247, Control_c, 0, 64, 50
2, 62263, Control_c, 0, 64, 48
2, 62285, Control_c, 0, 64, 46
2, 62301, Control_c, 0, 64, 44
2, 62316, Control_c, 0, 64, 42
2, 62332, Control_c, 0, 64, 41
2, 62347, Control_c, 0, 64, 39
2, 62361, Control_c, 0, 64, 38
2, 62377, Control_c, 0, 64, 37
2, 62392, Control_c, 0, 64, 36
2, 62407, Control_c, 0, 64, 35
2, 62423, Control_c, 0, 64, 33
2, 62437, Control_c, 0, 64, 32
2, 62453, Control_c, 0, 64, 31
2, 62461, Note_on_c, 0, 52, 51
2, 62468, Control_c, 0, 64, 31
2, 62482, Control_c, 0, 64, 30
2, 62498, Control_c, 0, 64, 28
2, 62513, Control_c, 0, 64, 26
2, 62530, Control_c, 0, 64, 26
2, 62545, Control_c, 0, 64, 24
2, 62560, Control_c, 0, 64, 24
2, 62573, Note_on_c, 0, 49, 0
2, 62575, Control_c, 0, 64, 23
2, 62590, Control_c, 0, 64, 22
2, 62604, Control_c, 0, 64, 21
2, 62651, Control_c, 0, 64, 20
2, 62665, Control_c, 0, 64, 19
2, 62680, Control_c, 0, 64, 18
2, 62696, Control_c, 0, 64, 17
2, 62711, Control_c, 0, 64, 16
2, 62713, Note_on_c, 0, 57, 52
2, 62726, Control_c, 0, 64, 14
2, 62742, Control_c, 0, 64, 12
2, 62757, Control_c, 0, 64, 10
2, 62791, Note_on_c, 0, 52, 0
2, 62802, Control_c, 0, 64, 8
2, 62818, Control_c, 0, 64, 0
2, 63013, Note_on_c, 0, 56, 47
2, 63137, Note_on_c, 0, 57, 0
2, 63353, Note_on_c, 0, 63, 48
2, 63367, Note_on_c, 0, 60, 42
2, 63371, Note_on_c, 0, 57, 44
2, 63401, Note_on_c, 0, 61, 0
2, 63407, Note_on_c, 0, 56, 0
2, 63433, Note_on_c, 0, 64, 0
2, 63509, Control_c, 0, 64, 33
2, 63524, Control_c, 0, 64, 56
2, 63538, Note_on_c, 0, 45, 0
2, 63540, Control_c, 0, 64, 66
2, 63555, Control_c, 0, 64, 75
2, 63563, Note_on_c, 0, 60, 0
2, 63571, Control_c, 0, 64, 92
2, 63586, Control_c, 0, 64, 127
2, 63836, Control_c, 0, 64, 117
2, 63852, Control_c, 0, 64, 110
2, 63867, Control_c, 0, 64, 103
2, 63869, Note_on_c, 0, 57, 0
2, 63882, Control_c, 0, 64, 98
2, 63882, Note_on_c, 0, 64, 45
2, 63885, Note_on_c, 0, 56, 34
2, 63891, Note_on_c, 0, 40, 34
2, 63895, Note_on_c, 0, 59, 33
2, 63898, Control_c, 0, 64, 92
2, 63912, Control_c, 0, 64, 87
2, 63927, Control_c, 0, 64, 82
2, 63943, Control_c, 0, 64, 78
2, 63957, Control_c, 0, 64, 74
2, 63973, Control_c, 0, 64, 71
2, 63988, Control_c, 0, 64, 69
2, 64003, Control_c, 0, 64, 66
2, 64019, Control_c, 0, 64, 64
2, 64025, Note_on_c, 0, 63, 0
2, 64033, Control_c, 0, 64, 62
2, 64048, Control_c, 0, 64, 60
2, 64064, Control_c, 0, 64, 56
2, 64079, Control_c, 0, 64, 49
2, 64094, Control_c, 0, 64, 40
2, 64109, Control_c, 0, 64, 28
2, 64124, Control_c, 0, 64, 0
2, 64560, Control_c, 0, 64, 19
2, 64582, Control_c, 0, 64, 29
2, 64597, Control_c, 0, 64, 36
2, 64612, Control_c, 0, 64, 41
2, 64627, Control_c, 0, 64, 50
2, 64643, Control_c, 0, 64, 55
2, 64658, Control_c, 0, 64, 58
2, 64674, Control_c, 0, 64, 60
2, 64689, Control_c, 0, 64, 62
2, 64704, Control_c, 0, 64, 63
2, 64719, Control_c, 0, 64, 65
2, 64734, Control_c, 0, 64, 67
2, 64750, Control_c, 0, 64, 70
2, 64765, Control_c, 0, 64, 73
2, 64780, Control_c, 0, 64, 77
2, 64795, Control_c, 0, 64, 82
2, 64810, Control_c, 0, 64, 86
2, 64825, Control_c, 0, 64, 93
2, 64841, Control_c, 0, 64, 100
2, 64856, Control_c, 0, 64, 111
2, 64871, Control_c, 0, 64, 127
2, 64976, Note_on_c, 0, 40, 0
2, 65052, Note_on_c, 0, 64, 0
2, 65092, Note_on_c, 0, 56, 0
2, 65104, Note_on_c, 0, 59, 0
2, 65313, Control_c, 0, 64, 115
2, 65328, Control_c, 0, 64, 106
2, 65351, Control_c, 0, 64, 99
2, 65365, Control_c, 0, 64, 93
2, 65380, Control_c, 0, 64, 87
2, 65396, Control_c, 0, 64, 80
2, 65411, Control_c, 0, 64, 73
2, 65426, Control_c, 0, 64, 66
2, 65441, Control_c, 0, 64, 56
2, 65456, Control_c, 0, 64, 35
2, 65472, Control_c, 0, 64, 0
2, 66001,End_track
0, 0, End_of_file
