0, 0, Header, 1, 2, 384
1, 0, Start_track
1, 0, Tempo, 500000
1, 0, Time_signature, 4, 2, 24, 8
1, 1, End_track
2,0,Start_track
2,0, Note_on_c, 0, 64, 81
2,26, Note_on_c, 0, 64, 0
2,241, Note_on_c, 0, 66, 84
2,361, Control_c, 0, 64, 45
2,376, Control_c, 0, 64, 64
2,392, Control_c, 0, 64, 79
2,407, Control_c, 0, 64, 127
2,436, Note_on_c, 0, 66, 0
2,650, Control_c, 0, 64, 93
2,665, Control_c, 0, 64, 71
2,681, Control_c, 0, 64, 52
2,696, Control_c, 0, 64, 0
2,786, Note_on_c, 0, 59, 41
2,861, Note_on_c, 0, 59, 0
2,889, Note_on_c, 0, 61, 57
2,962, Note_on_c, 0, 61, 0
2,977, Note_on_c, 0, 63, 61
2,1057, Note_on_c, 0, 63, 0
2,1068, Note_on_c, 0, 64, 63
2,1143, Note_on_c, 0, 64, 0
2,1164, Note_on_c, 0, 63, 62
2,1241, Note_on_c, 0, 63, 0
2,1257, Note_on_c, 0, 64, 67
2,1345, Note_on_c, 0, 64, 0
2,1347, Note_on_c, 0, 66, 72
2,1441, Note_on_c, 0, 68, 79
2,1456, Note_on_c, 0, 66, 0
2,1523, Note_on_c, 0, 69, 81
2,1528, Note_on_c, 0, 68, 0
2,1582, Note_on_c, 0, 69, 0
2,1615, Note_on_c, 0, 71, 88
2,1657, Note_on_c, 0, 71, 0
2,1746, Note_on_c, 0, 68, 49
2,1824, Note_on_c, 0, 68, 0
2,1832, Note_on_c, 0, 73, 89
2,1845, Note_on_c, 0, 64, 58
2,1940, Note_on_c, 0, 64, 0
2,1959, Note_on_c, 0, 63, 56
2,2046, Note_on_c, 0, 63, 0
2,2051, Note_on_c, 0, 64, 70
2,2124, Note_on_c, 0, 64, 0
2,2138, Note_on_c, 0, 66, 63
2,2164, Note_on_c, 0, 73, 0
2,2219, Note_on_c, 0, 66, 0
2,2243, Note_on_c, 0, 64, 65
2,2291, Note_on_c, 0, 64, 0
2,2322, Note_on_c, 0, 63, 55
2,2337, Note_on_c, 0, 66, 66
2,2397, Note_on_c, 0, 63, 0
2,2428, Note_on_c, 0, 64, 58
2,2431, Note_on_c, 0, 66, 0
2,2435, Note_on_c, 0, 68, 68
2,2479, Note_on_c, 0, 64, 0
2,2510, Note_on_c, 0, 66, 52
2,2519, Note_on_c, 0, 70, 72
2,2525, Note_on_c, 0, 68, 0
2,2585, Note_on_c, 0, 66, 0
2,2588, Note_on_c, 0, 70, 0
2,2616, Note_on_c, 0, 63, 55
2,2616, Note_on_c, 0, 71, 73
2,2656, Note_on_c, 0, 63, 0
2,2692, Note_on_c, 0, 71, 0
2,2693, Note_on_c, 0, 61, 49
2,2711, Note_on_c, 0, 70, 70
2,2772, Note_on_c, 0, 61, 0
2,2795, Note_on_c, 0, 70, 0
2,2805, Note_on_c, 0, 63, 53
2,2808, Note_on_c, 0, 71, 76
2,2854, Note_on_c, 0, 63, 0
2,2877, Note_on_c, 0, 64, 56
2,2893, Note_on_c, 0, 73, 74
2,2898, Note_on_c, 0, 71, 0
2,2968, Note_on_c, 0, 64, 0
2,2977, Note_on_c, 0, 66, 68
2,2981, Note_on_c, 0, 75, 80
2,3026, Note_on_c, 0, 73, 0
2,3062, Note_on_c, 0, 76, 77
2,3072, Note_on_c, 0, 68, 75
2,3082, Note_on_c, 0, 66, 0
2,3105, Note_on_c, 0, 75, 0
2,3158, Note_on_c, 0, 68, 0
2,3159, Note_on_c, 0, 78, 87
2,3161, Note_on_c, 0, 69, 74
2,3178, Note_on_c, 0, 76, 0
2,3232, Note_on_c, 0, 69, 0
2,3255, Note_on_c, 0, 66, 66
2,3257, Note_on_c, 0, 75, 79
2,3301, Note_on_c, 0, 78, 0
2,3306, Note_on_c, 0, 66, 0
2,3354, Note_on_c, 0, 68, 80
2,3358, Note_on_c, 0, 71, 82
2,3367, Note_on_c, 0, 75, 0
2,3374, Note_on_c, 0, 68, 0
2,3430, Note_on_c, 0, 71, 0
2,3446, Note_on_c, 0, 69, 73
2,3534, Note_on_c, 0, 69, 0
2,3545, Note_on_c, 0, 71, 75
2,3547, Note_on_c, 0, 59, 90
2,3570, Note_on_c, 0, 59, 0
2,3617, Note_on_c, 0, 71, 0
2,3648, Note_on_c, 0, 73, 63
2,3744, Note_on_c, 0, 64, 88
2,3754, Note_on_c, 0, 73, 0
2,3755, Note_on_c, 0, 71, 69
2,3823, Note_on_c, 0, 71, 0
2,3851, Note_on_c, 0, 69, 66
2,3945, Note_on_c, 0, 69, 0
2,3946, Note_on_c, 0, 52, 82
2,3958, Note_on_c, 0, 71, 67
2,3977, Note_on_c, 0, 52, 0
2,4019, Note_on_c, 0, 71, 0
2,4035, Note_on_c, 0, 73, 62
2,4145, Note_on_c, 0, 73, 0
2,4157, Note_on_c, 0, 54, 88
2,4172, Note_on_c, 0, 69, 69
2,4211, Note_on_c, 0, 64, 0
2,4221, Note_on_c, 0, 69, 0
2,4260, Note_on_c, 0, 68, 60
2,4305, Note_on_c, 0, 68, 0
2,4355, Note_on_c, 0, 69, 62
2,4362, Note_on_c, 0, 63, 64
2,4404, Note_on_c, 0, 63, 0
2,4423, Note_on_c, 0, 69, 0
2,4436, Note_on_c, 0, 71, 65
2,4554, Note_on_c, 0, 54, 0
2,4554, Note_on_c, 0, 71, 0
2,4562, Note_on_c, 0, 69, 69
2,4567, Note_on_c, 0, 66, 72
2,4647, Note_on_c, 0, 69, 0
2,4657, Note_on_c, 0, 47, 60
2,4663, Note_on_c, 0, 68, 66
2,4744, Note_on_c, 0, 47, 0
2,4752, Note_on_c, 0, 68, 0
2,4754, Note_on_c, 0, 49, 65
2,4757, Note_on_c, 0, 69, 56
2,4809, Note_on_c, 0, 69, 0
2,4821, Note_on_c, 0, 71, 53
2,4844, Note_on_c, 0, 51, 79
2,4854, Note_on_c, 0, 49, 0
2,4907, Note_on_c, 0, 66, 0
2,4927, Note_on_c, 0, 71, 0
2,4936, Note_on_c, 0, 51, 0
2,4937, Note_on_c, 0, 52, 75
2,4940, Note_on_c, 0, 68, 64
2,5013, Note_on_c, 0, 68, 0
2,5019, Note_on_c, 0, 66, 71
2,5021, Note_on_c, 0, 52, 0
2,5024, Note_on_c, 0, 51, 74
2,5096, Note_on_c, 0, 51, 0
2,5121, Note_on_c, 0, 52, 63
2,5121, Note_on_c, 0, 68, 83
2,5124, Note_on_c, 0, 59, 68
2,5141, Note_on_c, 0, 66, 0
2,5158, Note_on_c, 0, 59, 0
2,5191, Note_on_c, 0, 52, 0
2,5210, Note_on_c, 0, 70, 76
2,5219, Note_on_c, 0, 54, 57
2,5227, Note_on_c, 0, 68, 0
2,5299, Note_on_c, 0, 54, 0
2,5305, Note_on_c, 0, 56, 67
2,5306, Note_on_c, 0, 64, 74
2,5306, Note_on_c, 0, 71, 85
2,5318, Note_on_c, 0, 70, 0
2,5337, Note_on_c, 0, 64, 0
2,5381, Note_on_c, 0, 56, 0
2,5408, Note_on_c, 0, 57, 62
2,5478, Note_on_c, 0, 57, 0
2,5504, Note_on_c, 0, 63, 85
2,5522, Note_on_c, 0, 59, 62
2,5557, Note_on_c, 0, 63, 0
2,5598, Note_on_c, 0, 59, 0
2,5605, Note_on_c, 0, 56, 61
2,5698, Note_on_c, 0, 56, 0
2,5717, Note_on_c, 0, 52, 56
2,5723, Note_on_c, 0, 61, 85
2,5805, Note_on_c, 0, 52, 0
2,5825, Note_on_c, 0, 51, 60
2,5910, Note_on_c, 0, 51, 0
2,5925, Note_on_c, 0, 52, 57
2,5998, Note_on_c, 0, 52, 0
2,6010, Note_on_c, 0, 54, 58
2,6075, Note_on_c, 0, 71, 0
2,6091, Note_on_c, 0, 54, 0
2,6124, Note_on_c, 0, 52, 52
2,6126, Note_on_c, 0, 70, 66
2,6184, Note_on_c, 0, 52, 0
2,6211, Note_on_c, 0, 51, 61
2,6294, Note_on_c, 0, 51, 0
2,6312, Note_on_c, 0, 52, 55
2,6385, Note_on_c, 0, 52, 0
2,6402, Note_on_c, 0, 61, 0
2,6409, Note_on_c, 0, 54, 59
2,6425, Note_on_c, 0, 70, 0
2,6487, Note_on_c, 0, 54, 0
2,6529, Note_on_c, 0, 51, 46
2,6548, Note_on_c, 0, 71, 65
2,6553, Note_on_c, 0, 59, 44
2,6565, Control_c, 0, 64, 52
2,6573, Note_on_c, 0, 51, 0
2,6580, Control_c, 0, 64, 67
2,6580, Note_on_c, 0, 71, 0
2,6584, Note_on_c, 0, 59, 0
2,6596, Control_c, 0, 64, 86
2,6610, Control_c, 0, 64, 127
2,6615, Note_on_c, 0, 49, 46
2,6672, Control_c, 0, 64, 95
2,6686, Control_c, 0, 64, 69
2,6689, Note_on_c, 0, 49, 0
2,6701, Control_c, 0, 64, 0
2,6713, Note_on_c, 0, 51, 47
2,6746, Note_on_c, 0, 83, 64
2,6766, Note_on_c, 0, 51, 0
2,6778, Note_on_c, 0, 83, 0
2,6820, Note_on_c, 0, 52, 37
2,6879, Note_on_c, 0, 52, 0
2,6936, Note_on_c, 0, 54, 40
2,6938, Note_on_c, 0, 75, 81
2,6961, Note_on_c, 0, 75, 0
2,7007, Note_on_c, 0, 54, 0
2,7037, Note_on_c, 0, 56, 52
2,7117, Note_on_c, 0, 56, 0
2,7137, Note_on_c, 0, 78, 86
2,7138, Note_on_c, 0, 57, 49
2,7177, Note_on_c, 0, 78, 0
2,7197, Note_on_c, 0, 57, 0
2,7227, Note_on_c, 0, 54, 58
2,7305, Note_on_c, 0, 54, 0
2,7338, Note_on_c, 0, 56, 52
2,7343, Note_on_c, 0, 71, 90
2,7401, Note_on_c, 0, 56, 0
2,7437, Note_on_c, 0, 54, 48
2,7507, Note_on_c, 0, 54, 0
2,7529, Note_on_c, 0, 56, 50
2,7535, Note_on_c, 0, 76, 65
2,7568, Note_on_c, 0, 76, 0
2,7587, Note_on_c, 0, 56, 0
2,7614, Note_on_c, 0, 57, 57
2,7686, Note_on_c, 0, 57, 0
2,7722, Note_on_c, 0, 59, 62
2,7727, Note_on_c, 0, 68, 77
2,7729, Note_on_c, 0, 71, 0
2,7766, Note_on_c, 0, 68, 0
2,7808, Note_on_c, 0, 59, 0
2,7823, Note_on_c, 0, 61, 61
2,7896, Note_on_c, 0, 61, 0
2,7921, Note_on_c, 0, 71, 65
2,7922, Note_on_c, 0, 62, 55
2,7982, Note_on_c, 0, 62, 0
2,8016, Note_on_c, 0, 59, 55
2,8073, Note_on_c, 0, 59, 0
2,8102, Note_on_c, 0, 61, 52
2,8126, Note_on_c, 0, 64, 67
2,8157, Note_on_c, 0, 64, 0
2,8172, Note_on_c, 0, 61, 0
2,8205, Note_on_c, 0, 59, 56
2,8228, Note_on_c, 0, 71, 0
2,8291, Note_on_c, 0, 59, 0
2,8306, Note_on_c, 0, 61, 54
2,8313, Note_on_c, 0, 66, 78
2,8317, Note_on_c, 0, 69, 75
2,8360, Note_on_c, 0, 69, 0
2,8390, Note_on_c, 0, 61, 0
2,8405, Note_on_c, 0, 63, 66
2,8490, Note_on_c, 0, 63, 0
2,8498, Note_on_c, 0, 68, 87
2,8501, Note_on_c, 0, 64, 73
2,8510, Note_on_c, 0, 66, 0
2,8536, Note_on_c, 0, 68, 0
2,8587, Note_on_c, 0, 64, 0
2,8597, Note_on_c, 0, 63, 73
2,8677, Note_on_c, 0, 63, 0
2,8686, Note_on_c, 0, 61, 67
2,8697, Note_on_c, 0, 64, 86
2,8697, Note_on_c, 0, 76, 92
2,8719, Note_on_c, 0, 64, 0
2,8734, Note_on_c, 0, 76, 0
2,8774, Note_on_c, 0, 61, 0
2,8783, Note_on_c, 0, 59, 69
2,8891, Note_on_c, 0, 59, 0
2,8910, Note_on_c, 0, 57, 60
2,8915, Note_on_c, 0, 64, 66
2,8923, Note_on_c, 0, 78, 93
2,9006, Control_c, 0, 64, 14
2,9019, Note_on_c, 0, 57, 0
2,9021, Control_c, 0, 64, 50
2,9033, Note_on_c, 0, 56, 60
2,9037, Control_c, 0, 64, 60
2,9052, Control_c, 0, 64, 63
2,9066, Control_c, 0, 64, 66
2,9082, Control_c, 0, 64, 67
2,9097, Control_c, 0, 64, 68
2,9099, Note_on_c, 0, 56, 0
2,9113, Control_c, 0, 64, 66
2,9128, Control_c, 0, 64, 64
2,9128, Note_on_c, 0, 57, 58
2,9142, Control_c, 0, 64, 59
2,9158, Control_c, 0, 64, 40
2,9173, Control_c, 0, 64, 0
2,9205, Note_on_c, 0, 57, 0
2,9213, Note_on_c, 0, 64, 0
2,9217, Note_on_c, 0, 59, 61
2,9260, Note_on_c, 0, 59, 0
2,9283, Note_on_c, 0, 78, 0
2,9320, Note_on_c, 0, 57, 68
2,9321, Note_on_c, 0, 63, 63
2,9364, Note_on_c, 0, 63, 0
2,9388, Note_on_c, 0, 57, 0
2,9402, Note_on_c, 0, 56, 64
2,9412, Note_on_c, 0, 71, 59
2,9480, Note_on_c, 0, 56, 0
2,9499, Note_on_c, 0, 73, 75
2,9506, Note_on_c, 0, 66, 64
2,9513, Note_on_c, 0, 57, 56
2,9520, Note_on_c, 0, 71, 0
2,9556, Note_on_c, 0, 57, 0
2,9578, Note_on_c, 0, 59, 64
2,9585, Note_on_c, 0, 75, 78
2,9591, Note_on_c, 0, 66, 0
2,9609, Note_on_c, 0, 73, 0
2,9620, Note_on_c, 0, 59, 0
2,9694, Note_on_c, 0, 75, 0
2,9695, Note_on_c, 0, 76, 74
2,9703, Note_on_c, 0, 59, 77
2,9713, Note_on_c, 0, 56, 61
2,9743, Note_on_c, 0, 56, 0
2,9754, Note_on_c, 0, 76, 0
2,9781, Note_on_c, 0, 75, 72
2,9872, Note_on_c, 0, 75, 0
2,9884, Note_on_c, 0, 76, 86
2,9890, Note_on_c, 0, 54, 80
2,9915, Note_on_c, 0, 54, 0
2,9971, Note_on_c, 0, 78, 89
2,9998, Note_on_c, 0, 76, 0
2,10077, Note_on_c, 0, 52, 91
2,10081, Note_on_c, 0, 80, 85
2,10098, Note_on_c, 0, 59, 0
2,10116, Note_on_c, 0, 52, 0
2,10119, Note_on_c, 0, 78, 0
2,10185, Note_on_c, 0, 81, 72
2,10212, Note_on_c, 0, 80, 0
2,10265, Note_on_c, 0, 81, 0
2,10272, Note_on_c, 0, 51, 85
2,10278, Note_on_c, 0, 71, 91
2,10280, Note_on_c, 0, 83, 89
2,10297, Note_on_c, 0, 51, 0
2,10316, Note_on_c, 0, 71, 0
2,10376, Note_on_c, 0, 83, 0
2,10384, Note_on_c, 0, 80, 70
2,10452, Note_on_c, 0, 80, 0
2,10477, Note_on_c, 0, 49, 82
2,10480, Note_on_c, 0, 73, 88
2,10490, Note_on_c, 0, 76, 74
2,10506, Note_on_c, 0, 49, 0
2,10569, Note_on_c, 0, 76, 0
2,10584, Note_on_c, 0, 75, 70
2,10672, Note_on_c, 0, 59, 80
2,10672, Note_on_c, 0, 75, 0
2,10684, Note_on_c, 0, 76, 71
2,10703, Note_on_c, 0, 59, 0
2,10759, Note_on_c, 0, 76, 0
2,10773, Note_on_c, 0, 78, 69
2,10837, Note_on_c, 0, 73, 0
2,10867, Note_on_c, 0, 58, 70
2,10880, Note_on_c, 0, 76, 77
2,10890, Note_on_c, 0, 78, 0
2,10917, Note_on_c, 0, 58, 0
2,10961, Note_on_c, 0, 75, 80
2,10963, Note_on_c, 0, 66, 64
2,10965, Note_on_c, 0, 76, 0
2,11007, Note_on_c, 0, 66, 0
2,11055, Note_on_c, 0, 76, 73
2,11057, Note_on_c, 0, 68, 72
2,11059, Note_on_c, 0, 75, 0
2,11063, Note_on_c, 0, 54, 58
2,11101, Note_on_c, 0, 54, 0
2,11131, Note_on_c, 0, 76, 0
2,11137, Note_on_c, 0, 78, 71
2,11140, Note_on_c, 0, 68, 0
2,11147, Note_on_c, 0, 70, 67
2,11211, Note_on_c, 0, 70, 0
2,11239, Note_on_c, 0, 59, 63
2,11240, Note_on_c, 0, 71, 74
2,11249, Note_on_c, 0, 75, 69
2,11277, Note_on_c, 0, 78, 0
2,11281, Control_c, 0, 64, 55
2,11296, Control_c, 0, 64, 65
2,11303, Note_on_c, 0, 59, 0
2,11305, Note_on_c, 0, 71, 0
2,11312, Control_c, 0, 64, 75
2,11324, Note_on_c, 0, 75, 0
2,11326, Note_on_c, 0, 73, 68
2,11327, Control_c, 0, 64, 92
2,11333, Note_on_c, 0, 70, 63
2,11341, Control_c, 0, 64, 127
2,11397, Note_on_c, 0, 70, 0
2,11418, Note_on_c, 0, 71, 64
2,11419, Note_on_c, 0, 73, 0
2,11421, Note_on_c, 0, 75, 66
2,11450, Note_on_c, 0, 71, 0
2,11462, Control_c, 0, 64, 111
2,11478, Control_c, 0, 64, 100
2,11493, Control_c, 0, 64, 93
2,11508, Control_c, 0, 64, 88
2,11517, Note_on_c, 0, 76, 74
2,11522, Note_on_c, 0, 73, 52
2,11524, Control_c, 0, 64, 83
2,11529, Note_on_c, 0, 75, 0
2,11539, Control_c, 0, 64, 78
2,11554, Control_c, 0, 64, 74
2,11562, Note_on_c, 0, 76, 0
2,11569, Control_c, 0, 64, 69
2,11584, Control_c, 0, 64, 66
2,11595, Note_on_c, 0, 73, 0
2,11599, Control_c, 0, 64, 64
2,11614, Control_c, 0, 64, 62
2,11615, Note_on_c, 0, 75, 60
2,11638, Control_c, 0, 64, 61
2,11638, Note_on_c, 0, 78, 80
2,11653, Control_c, 0, 64, 59
2,11668, Control_c, 0, 64, 56
2,11683, Control_c, 0, 64, 51
2,11696, Note_on_c, 0, 75, 0
2,11698, Control_c, 0, 64, 44
2,11714, Control_c, 0, 64, 31
2,11716, Note_on_c, 0, 76, 61
2,11719, Note_on_c, 0, 80, 79
2,11728, Control_c, 0, 64, 0
2,11745, Note_on_c, 0, 78, 0
2,11795, Note_on_c, 0, 76, 0
2,11811, Note_on_c, 0, 78, 59
2,11822, Note_on_c, 0, 81, 83
2,11854, Note_on_c, 0, 80, 0
2,11885, Note_on_c, 0, 78, 0
2,11912, Note_on_c, 0, 75, 66
2,11981, Note_on_c, 0, 75, 0
2,12014, Note_on_c, 0, 71, 71
2,12099, Note_on_c, 0, 69, 71
2,12101, Note_on_c, 0, 71, 0
2,12166, Note_on_c, 0, 81, 0
2,12170, Note_on_c, 0, 69, 0
2,12184, Note_on_c, 0, 75, 86
2,12207, Note_on_c, 0, 71, 57
2,12215, Note_on_c, 0, 75, 0
2,12247, Note_on_c, 0, 71, 0
2,12272, Note_on_c, 0, 73, 60
2,12362, Note_on_c, 0, 73, 0
2,12407, Note_on_c, 0, 71, 44
2,12409, Note_on_c, 0, 80, 84
2,12462, Note_on_c, 0, 71, 0
2,12492, Note_on_c, 0, 69, 47
2,12571, Note_on_c, 0, 69, 0
2,12585, Note_on_c, 0, 71, 59
2,12662, Note_on_c, 0, 71, 0
2,12676, Note_on_c, 0, 73, 62
2,12758, Note_on_c, 0, 73, 0
2,12793, Note_on_c, 0, 69, 53
2,12861, Note_on_c, 0, 69, 0
2,12874, Note_on_c, 0, 68, 57
2,12958, Note_on_c, 0, 68, 0
2,12975, Note_on_c, 0, 80, 0
2,12986, Note_on_c, 0, 69, 58
2,12986, Note_on_c, 0, 78, 69
2,13030, Note_on_c, 0, 69, 0
2,13054, Note_on_c, 0, 78, 0
2,13068, Note_on_c, 0, 76, 62
2,13070, Note_on_c, 0, 71, 54
2,13145, Note_on_c, 0, 71, 0
2,13170, Note_on_c, 0, 69, 51
2,13175, Note_on_c, 0, 76, 0
2,13185, Note_on_c, 0, 75, 62
2,13220, Note_on_c, 0, 69, 0
2,13271, Note_on_c, 0, 68, 59
2,13340, Note_on_c, 0, 68, 0
2,13367, Note_on_c, 0, 59, 76
2,13393, Note_on_c, 0, 59, 0
2,13398, Note_on_c, 0, 69, 45
2,13437, Note_on_c, 0, 75, 0
2,13444, Note_on_c, 0, 71, 53
2,13451, Note_on_c, 0, 69, 0
2,13538, Note_on_c, 0, 71, 0
2,13568, Note_on_c, 0, 61, 77
2,13577, Note_on_c, 0, 68, 57
2,13583, Note_on_c, 0, 76, 53
2,13650, Note_on_c, 0, 76, 0
2,13652, Note_on_c, 0, 68, 0
2,13663, Note_on_c, 0, 75, 66
2,13745, Note_on_c, 0, 75, 0
2,13764, Note_on_c, 0, 64, 63
2,13774, Note_on_c, 0, 76, 61
2,13793, Note_on_c, 0, 64, 0
2,13836, Note_on_c, 0, 76, 0
2,13861, Note_on_c, 0, 78, 57
2,13953, Note_on_c, 0, 61, 0
2,13976, Note_on_c, 0, 69, 64
2,13987, Note_on_c, 0, 78, 0
2,13992, Note_on_c, 0, 76, 58
2,14060, Note_on_c, 0, 76, 0
2,14070, Note_on_c, 0, 54, 45
2,14076, Note_on_c, 0, 75, 61
2,14155, Note_on_c, 0, 54, 0
2,14159, Note_on_c, 0, 76, 58
2,14161, Note_on_c, 0, 75, 0
2,14167, Note_on_c, 0, 56, 58
2,14238, Note_on_c, 0, 76, 0
2,14238, Note_on_c, 0, 78, 61
2,14248, Note_on_c, 0, 56, 0
2,14267, Note_on_c, 0, 57, 54
2,14327, Note_on_c, 0, 78, 0
2,14338, Note_on_c, 0, 57, 0
2,14354, Note_on_c, 0, 75, 57
2,14361, Note_on_c, 0, 59, 57
2,14426, Note_on_c, 0, 75, 0
2,14431, Note_on_c, 0, 59, 0
2,14440, Note_on_c, 0, 73, 67
2,14452, Note_on_c, 0, 57, 53
2,14495, Note_on_c, 0, 57, 0
2,14537, Note_on_c, 0, 59, 61
2,14538, Note_on_c, 0, 75, 81
2,14620, Note_on_c, 0, 59, 0
2,14625, Note_on_c, 0, 73, 0
2,14628, Note_on_c, 0, 76, 74
2,14635, Note_on_c, 0, 61, 60
2,14680, Note_on_c, 0, 75, 0
2,14716, Note_on_c, 0, 61, 0
2,14733, Note_on_c, 0, 78, 87
2,14741, Note_on_c, 0, 63, 59
2,14763, Note_on_c, 0, 69, 0
2,14766, Note_on_c, 0, 76, 0
2,14809, Note_on_c, 0, 63, 0
2,14832, Note_on_c, 0, 72, 74
2,14840, Note_on_c, 0, 64, 61
2,14910, Note_on_c, 0, 64, 0
2,14925, Note_on_c, 0, 73, 84
2,14928, Note_on_c, 0, 63, 62
2,14962, Note_on_c, 0, 72, 0
2,14990, Note_on_c, 0, 63, 0
2,15010, Note_on_c, 0, 75, 81
2,15014, Note_on_c, 0, 61, 60
2,15053, Note_on_c, 0, 73, 0
2,15104, Note_on_c, 0, 61, 0
2,15105, Note_on_c, 0, 68, 85
2,15118, Note_on_c, 0, 60, 64
2,15139, Note_on_c, 0, 75, 0
2,15200, Note_on_c, 0, 60, 0
2,15204, Note_on_c, 0, 56, 66
2,15213, Note_on_c, 0, 78, 0
2,15307, Note_on_c, 0, 58, 70
2,15313, Note_on_c, 0, 56, 0
2,15319, Note_on_c, 0, 76, 83
2,15390, Note_on_c, 0, 58, 0
2,15404, Note_on_c, 0, 60, 69
2,15407, Note_on_c, 0, 75, 85
2,15426, Note_on_c, 0, 76, 0
2,15500, Note_on_c, 0, 60, 0
2,15504, Note_on_c, 0, 61, 72
2,15517, Note_on_c, 0, 76, 89
2,15518, Note_on_c, 0, 68, 0
2,15519, Note_on_c, 0, 75, 0
2,15586, Note_on_c, 0, 61, 0
2,15611, Note_on_c, 0, 63, 68
2,15685, Note_on_c, 0, 63, 0
2,15719, Note_on_c, 0, 64, 55
2,15719, Note_on_c, 0, 73, 77
2,15769, Note_on_c, 0, 73, 0
2,15787, Note_on_c, 0, 61, 59
2,15795, Note_on_c, 0, 64, 0
2,15899, Note_on_c, 0, 61, 0
2,15903, Note_on_c, 0, 57, 54
2,15919, Note_on_c, 0, 66, 81
2,15998, Note_on_c, 0, 57, 0
2,16014, Note_on_c, 0, 56, 54
2,16032, Note_on_c, 0, 76, 0
2,16098, Note_on_c, 0, 56, 0
2,16119, Note_on_c, 0, 57, 62
2,16127, Note_on_c, 0, 76, 74
2,16200, Note_on_c, 0, 57, 0
2,16214, Note_on_c, 0, 59, 61
2,16315, Note_on_c, 0, 59, 0
2,16320, Note_on_c, 0, 75, 77
2,16320, Note_on_c, 0, 76, 0
2,16329, Note_on_c, 0, 57, 64
2,16370, Note_on_c, 0, 75, 0
2,16398, Note_on_c, 0, 57, 0
2,16413, Note_on_c, 0, 56, 66
2,16495, Note_on_c, 0, 56, 0
2,16514, Note_on_c, 0, 73, 84
2,16517, Note_on_c, 0, 57, 63
2,16552, Note_on_c, 0, 73, 0
2,16557, Note_on_c, 0, 57, 0
2,16598, Note_on_c, 0, 59, 64
2,16682, Note_on_c, 0, 59, 0
2,16704, Note_on_c, 0, 56, 62
2,16704, Note_on_c, 0, 72, 79
2,16748, Note_on_c, 0, 72, 0
2,16767, Note_on_c, 0, 56, 0
2,16801, Note_on_c, 0, 52, 54
2,16879, Note_on_c, 0, 52, 0
2,16891, Note_on_c, 0, 54, 65
2,16900, Note_on_c, 0, 68, 84
2,16912, Note_on_c, 0, 66, 0
2,16933, Note_on_c, 0, 68, 0
2,16979, Note_on_c, 0, 54, 0
2,16998, Note_on_c, 0, 56, 66
2,17079, Note_on_c, 0, 56, 0
2,17101, Note_on_c, 0, 57, 61
2,17108, Note_on_c, 0, 73, 82
2,17111, Note_on_c, 0, 64, 66
2,17147, Note_on_c, 0, 64, 0
2,17194, Note_on_c, 0, 57, 0
2,17200, Note_on_c, 0, 59, 67
2,17276, Note_on_c, 0, 59, 0
2,17300, Note_on_c, 0, 61, 66
2,17302, Note_on_c, 0, 69, 80
2,17360, Note_on_c, 0, 69, 0
2,17368, Note_on_c, 0, 61, 0
2,17390, Note_on_c, 0, 57, 67
2,17490, Note_on_c, 0, 54, 60
2,17490, Note_on_c, 0, 57, 0
2,17493, Note_on_c, 0, 63, 78
2,17521, Note_on_c, 0, 73, 0
2,17550, Note_on_c, 0, 63, 0
2,17572, Note_on_c, 0, 54, 0
2,17588, Note_on_c, 0, 52, 44
2,17663, Note_on_c, 0, 52, 0
2,17685, Note_on_c, 0, 54, 63
2,17692, Note_on_c, 0, 75, 76
2,17698, Note_on_c, 0, 66, 68
2,17729, Note_on_c, 0, 66, 0
2,17740, Note_on_c, 0, 54, 0
2,17751, Note_on_c, 0, 75, 0
2,17775, Note_on_c, 0, 56, 58
2,17875, Note_on_c, 0, 56, 0
2,17886, Note_on_c, 0, 54, 62
2,17895, Note_on_c, 0, 68, 74
2,17897, Note_on_c, 0, 60, 67
2,17939, Note_on_c, 0, 60, 0
2,17969, Note_on_c, 0, 54, 0
2,17977, Note_on_c, 0, 52, 58
2,18053, Note_on_c, 0, 52, 0
2,18093, Note_on_c, 0, 54, 57
2,18093, Note_on_c, 0, 70, 68
2,18104, Note_on_c, 0, 63, 49
2,18114, Note_on_c, 0, 68, 0
2,18150, Note_on_c, 0, 54, 0
2,18156, Note_on_c, 0, 63, 0
2,18159, Note_on_c, 0, 56, 67
2,18175, Note_on_c, 0, 72, 66
2,18201, Note_on_c, 0, 56, 0
2,18210, Note_on_c, 0, 70, 0
2,18270, Note_on_c, 0, 72, 0
2,18276, Note_on_c, 0, 73, 64
2,18287, Note_on_c, 0, 56, 64
2,18303, Note_on_c, 0, 52, 36
2,18333, Note_on_c, 0, 73, 0
2,18335, Note_on_c, 0, 52, 0
2,18387, Note_on_c, 0, 72, 59
2,18471, Note_on_c, 0, 72, 0
2,18477, Note_on_c, 0, 51, 64
2,18486, Note_on_c, 0, 73, 61
2,18520, Note_on_c, 0, 51, 0
2,18569, Note_on_c, 0, 73, 0
2,18590, Note_on_c, 0, 75, 64
2,18661, Note_on_c, 0, 75, 0
2,18677, Note_on_c, 0, 49, 58
2,18692, Note_on_c, 0, 76, 61
2,18693, Note_on_c, 0, 56, 0
2,18719, Note_on_c, 0, 49, 0
2,18749, Note_on_c, 0, 76, 0
2,18787, Note_on_c, 0, 78, 58
2,18865, Note_on_c, 0, 78, 0
2,18876, Note_on_c, 0, 52, 51
2,18884, Note_on_c, 0, 80, 65
2,18904, Note_on_c, 0, 52, 0
2,18976, Note_on_c, 0, 80, 0
2,18989, Note_on_c, 0, 76, 53
2,19067, Note_on_c, 0, 46, 47
2,19079, Note_on_c, 0, 76, 0
2,19091, Note_on_c, 0, 73, 57
2,19094, Note_on_c, 0, 46, 0
2,19139, Note_on_c, 0, 73, 0
2,19167, Note_on_c, 0, 71, 56
2,19252, Note_on_c, 0, 71, 0
2,19261, Note_on_c, 0, 56, 63
2,19264, Note_on_c, 0, 73, 62
2,19295, Note_on_c, 0, 56, 0
2,19325, Note_on_c, 0, 73, 0
2,19350, Note_on_c, 0, 75, 64
2,19465, Note_on_c, 0, 58, 80
2,19465, Note_on_c, 0, 75, 0
2,19471, Note_on_c, 0, 55, 38
2,19472, Note_on_c, 0, 73, 59
2,19504, Note_on_c, 0, 55, 0
2,19528, Note_on_c, 0, 73, 0
2,19561, Note_on_c, 0, 71, 57
2,19624, Note_on_c, 0, 71, 0
2,19657, Note_on_c, 0, 51, 60
2,19660, Note_on_c, 0, 73, 54
2,19695, Note_on_c, 0, 51, 0
2,19719, Note_on_c, 0, 73, 0
2,19743, Note_on_c, 0, 75, 58
2,19829, Note_on_c, 0, 75, 0
2,19853, Note_on_c, 0, 71, 61
2,19866, Note_on_c, 0, 44, 55
2,19898, Note_on_c, 0, 44, 0
2,19925, Note_on_c, 0, 71, 0
2,19945, Note_on_c, 0, 70, 66
2,20031, Note_on_c, 0, 70, 0
2,20049, Note_on_c, 0, 71, 69
2,20056, Note_on_c, 0, 46, 52
2,20108, Note_on_c, 0, 46, 0
2,20114, Note_on_c, 0, 58, 0
2,20138, Note_on_c, 0, 73, 76
2,20145, Note_on_c, 0, 71, 0
2,20247, Note_on_c, 0, 73, 0
2,20247, Note_on_c, 0, 75, 72
2,20249, Note_on_c, 0, 47, 58
2,20251, Note_on_c, 0, 56, 68
2,20299, Note_on_c, 0, 47, 0
2,20341, Note_on_c, 0, 76, 67
2,20350, Note_on_c, 0, 75, 0
2,20437, Note_on_c, 0, 76, 0
2,20444, Note_on_c, 0, 78, 78
2,20446, Note_on_c, 0, 46, 59
2,20485, Note_on_c, 0, 46, 0
2,20538, Note_on_c, 0, 75, 70
2,20540, Note_on_c, 0, 78, 0
2,20624, Note_on_c, 0, 75, 0
2,20627, Note_on_c, 0, 56, 0
2,20638, Note_on_c, 0, 44, 72
2,20642, Note_on_c, 0, 71, 67
2,20676, Note_on_c, 0, 44, 0
2,20712, Note_on_c, 0, 71, 0
2,20734, Note_on_c, 0, 69, 62
2,20810, Note_on_c, 0, 69, 0
2,20829, Note_on_c, 0, 54, 72
2,20840, Note_on_c, 0, 71, 68
2,20870, Note_on_c, 0, 54, 0
2,20909, Note_on_c, 0, 71, 0
2,20927, Note_on_c, 0, 73, 58
2,21033, Note_on_c, 0, 73, 0
2,21040, Note_on_c, 0, 56, 70
2,21042, Note_on_c, 0, 53, 51
2,21055, Note_on_c, 0, 71, 56
2,21080, Note_on_c, 0, 53, 0
2,21113, Note_on_c, 0, 71, 0
2,21146, Note_on_c, 0, 69, 52
2,21210, Note_on_c, 0, 69, 0
2,21247, Note_on_c, 0, 49, 49
2,21253, Note_on_c, 0, 71, 54
2,21282, Note_on_c, 0, 49, 0
2,21323, Note_on_c, 0, 71, 0
2,21345, Note_on_c, 0, 73, 53
2,21414, Note_on_c, 0, 73, 0
2,21441, Note_on_c, 0, 42, 56
2,21447, Note_on_c, 0, 69, 53
2,21485, Note_on_c, 0, 42, 0
2,21501, Note_on_c, 0, 69, 0
2,21542, Note_on_c, 0, 68, 51
2,21626, Note_on_c, 0, 68, 0
2,21641, Note_on_c, 0, 69, 53
2,21653, Note_on_c, 0, 44, 46
2,21697, Note_on_c, 0, 44, 0
2,21703, Note_on_c, 0, 56, 0
2,21718, Note_on_c, 0, 69, 0
2,21728, Note_on_c, 0, 71, 61
2,21822, Note_on_c, 0, 71, 0
2,21835, Note_on_c, 0, 45, 48
2,21844, Note_on_c, 0, 54, 51
2,21844, Note_on_c, 0, 73, 57
2,21883, Note_on_c, 0, 45, 0
2,21933, Note_on_c, 0, 73, 0
2,21947, Note_on_c, 0, 75, 54
2,22040, Note_on_c, 0, 44, 53
2,22046, Note_on_c, 0, 76, 58
2,22056, Note_on_c, 0, 75, 0
2,22080, Note_on_c, 0, 44, 0
2,22122, Note_on_c, 0, 76, 0
2,22138, Note_on_c, 0, 73, 64
2,22227, Note_on_c, 0, 42, 71
2,22233, Note_on_c, 0, 73, 0
2,22245, Note_on_c, 0, 75, 72
2,22246, Note_on_c, 0, 54, 0
2,22265, Note_on_c, 0, 42, 0
2,22335, Note_on_c, 0, 75, 0
2,22336, Note_on_c, 0, 73, 74
2,22431, Note_on_c, 0, 52, 79
2,22446, Note_on_c, 0, 75, 82
2,22456, Note_on_c, 0, 73, 0
2,22464, Note_on_c, 0, 52, 0
2,22520, Note_on_c, 0, 75, 0
2,22532, Note_on_c, 0, 76, 80
2,22620, Note_on_c, 0, 54, 79
2,22628, Note_on_c, 0, 51, 70
2,22640, Note_on_c, 0, 78, 84
2,22647, Note_on_c, 0, 76, 0
2,22663, Note_on_c, 0, 51, 0
2,22731, Note_on_c, 0, 80, 75
2,22755, Note_on_c, 0, 78, 0
2,22810, Note_on_c, 0, 49, 68
2,22825, Note_on_c, 0, 81, 75
2,22858, Note_on_c, 0, 80, 0
2,22860, Note_on_c, 0, 49, 0
2,22915, Note_on_c, 0, 78, 76
2,22929, Note_on_c, 0, 81, 0
2,23003, Note_on_c, 0, 48, 62
2,23011, Note_on_c, 0, 80, 77
2,23012, Note_on_c, 0, 78, 0
2,23038, Note_on_c, 0, 48, 0
2,23106, Note_on_c, 0, 78, 81
2,23119, Note_on_c, 0, 80, 0
2,23195, Note_on_c, 0, 78, 0
2,23207, Note_on_c, 0, 76, 82
2,23208, Note_on_c, 0, 44, 62
2,23244, Note_on_c, 0, 44, 0
2,23250, Note_on_c, 0, 54, 0
2,23297, Note_on_c, 0, 75, 81
2,23318, Note_on_c, 0, 76, 0
2,23387, Note_on_c, 0, 52, 75
2,23393, Note_on_c, 0, 45, 70
2,23396, Note_on_c, 0, 73, 81
2,23412, Note_on_c, 0, 52, 0
2,23419, Note_on_c, 0, 45, 0
2,23423, Note_on_c, 0, 75, 0
2,23485, Note_on_c, 0, 71, 80
2,23501, Note_on_c, 0, 73, 0
2,23562, Note_on_c, 0, 71, 0
2,23586, Note_on_c, 0, 61, 91
2,23593, Note_on_c, 0, 69, 78
2,23601, Note_on_c, 0, 52, 77
2,23626, Note_on_c, 0, 61, 0
2,23627, Note_on_c, 0, 52, 0
2,23675, Note_on_c, 0, 69, 0
2,23688, Note_on_c, 0, 68, 66
2,23790, Note_on_c, 0, 68, 0
2,23802, Note_on_c, 0, 54, 69
2,23804, Note_on_c, 0, 63, 86
2,23810, Note_on_c, 0, 66, 74
2,23877, Note_on_c, 0, 54, 0
2,23912, Note_on_c, 0, 68, 71
2,23921, Note_on_c, 0, 52, 54
2,23924, Control_c, 0, 64, 34
2,23926, Note_on_c, 0, 66, 0
2,23939, Control_c, 0, 64, 53
2,23955, Control_c, 0, 64, 62
2,23969, Control_c, 0, 64, 67
2,23984, Control_c, 0, 64, 72
2,24000, Control_c, 0, 64, 78
2,24006, Note_on_c, 0, 52, 0
2,24008, Note_on_c, 0, 69, 75
2,24009, Note_on_c, 0, 54, 74
2,24012, Note_on_c, 0, 63, 0
2,24015, Control_c, 0, 64, 84
2,24031, Control_c, 0, 64, 86
2,24036, Note_on_c, 0, 54, 0
2,24039, Note_on_c, 0, 68, 0
2,24045, Control_c, 0, 64, 86
2,24060, Control_c, 0, 64, 84
2,24076, Control_c, 0, 64, 84
2,24091, Control_c, 0, 64, 83
2,24093, Note_on_c, 0, 69, 0
2,24100, Note_on_c, 0, 66, 71
2,24106, Control_c, 0, 64, 83
2,24122, Control_c, 0, 64, 82
2,24137, Control_c, 0, 64, 78
2,24153, Control_c, 0, 64, 73
2,24167, Control_c, 0, 64, 65
2,24182, Control_c, 0, 64, 47
2,24198, Control_c, 0, 64, 0
2,24202, Note_on_c, 0, 56, 75
2,24207, Note_on_c, 0, 63, 69
2,24207, Note_on_c, 0, 66, 0
2,24234, Note_on_c, 0, 56, 0
2,24271, Note_on_c, 0, 63, 0
2,24298, Note_on_c, 0, 56, 67
2,24366, Note_on_c, 0, 56, 0
2,24392, Note_on_c, 0, 44, 62
2,24397, Note_on_c, 0, 68, 64
2,24400, Note_on_c, 0, 58, 67
2,24426, Note_on_c, 0, 44, 0
2,24437, Note_on_c, 0, 58, 0
2,24488, Note_on_c, 0, 60, 63
2,24494, Note_on_c, 0, 68, 0
2,24568, Note_on_c, 0, 60, 0
2,24580, Note_on_c, 0, 49, 52
2,24587, Note_on_c, 0, 64, 57
2,24588, Note_on_c, 0, 61, 60
2,24618, Note_on_c, 0, 61, 0
2,24618, Note_on_c, 0, 64, 0
2,24623, Control_c, 0, 64, 58
2,24633, Note_on_c, 0, 49, 0
2,24639, Control_c, 0, 64, 68
2,24654, Control_c, 0, 64, 79
2,24676, Control_c, 0, 64, 110
2,24691, Control_c, 0, 64, 127
2,24696, Note_on_c, 0, 60, 65
2,24752, Control_c, 0, 64, 111
2,24767, Control_c, 0, 64, 87
2,24776, Note_on_c, 0, 60, 0
2,24782, Control_c, 0, 64, 72
2,24787, Note_on_c, 0, 61, 66
2,24788, Note_on_c, 0, 68, 72
2,24798, Control_c, 0, 64, 57
2,24813, Control_c, 0, 64, 0
2,24816, Note_on_c, 0, 68, 0
2,24866, Note_on_c, 0, 61, 0
2,24881, Note_on_c, 0, 63, 70
2,24960, Note_on_c, 0, 63, 0
2,24982, Note_on_c, 0, 64, 66
2,24983, Note_on_c, 0, 73, 86
2,25017, Note_on_c, 0, 73, 0
2,25059, Note_on_c, 0, 64, 0
2,25070, Note_on_c, 0, 66, 67
2,25147, Note_on_c, 0, 66, 0
2,25174, Note_on_c, 0, 68, 64
2,25182, Note_on_c, 0, 71, 81
2,25221, Note_on_c, 0, 71, 0
2,25228, Note_on_c, 0, 68, 0
2,25273, Note_on_c, 0, 64, 56
2,25382, Note_on_c, 0, 64, 0
2,25388, Note_on_c, 0, 61, 48
2,25397, Note_on_c, 0, 76, 70
2,25494, Note_on_c, 0, 61, 0
2,25498, Note_on_c, 0, 59, 51
2,25499, Note_on_c, 0, 75, 75
2,25547, Note_on_c, 0, 76, 0
2,25586, Note_on_c, 0, 59, 0
2,25602, Note_on_c, 0, 73, 76
2,25611, Note_on_c, 0, 61, 59
2,25653, Note_on_c, 0, 75, 0
2,25673, Note_on_c, 0, 61, 0
2,25693, Note_on_c, 0, 63, 57
2,25696, Note_on_c, 0, 71, 79
2,25727, Note_on_c, 0, 73, 0
2,25776, Note_on_c, 0, 63, 0
2,25784, Note_on_c, 0, 71, 0
2,25794, Note_on_c, 0, 69, 76
2,25796, Note_on_c, 0, 61, 54
2,25867, Note_on_c, 0, 61, 0
2,25881, Note_on_c, 0, 59, 54
2,25961, Note_on_c, 0, 59, 0
2,25996, Note_on_c, 0, 61, 56
2,26046, Note_on_c, 0, 61, 0
2,26075, Note_on_c, 0, 63, 60
2,26146, Note_on_c, 0, 63, 0
2,26180, Note_on_c, 0, 59, 60
2,26271, Note_on_c, 0, 59, 0
2,26277, Note_on_c, 0, 56, 64
2,26326, Note_on_c, 0, 69, 0
2,26357, Note_on_c, 0, 56, 0
2,26358, Note_on_c, 0, 57, 59
2,26363, Note_on_c, 0, 63, 75
2,26408, Note_on_c, 0, 63, 0
2,26426, Note_on_c, 0, 57, 0
2,26451, Note_on_c, 0, 59, 62
2,26538, Note_on_c, 0, 59, 0
2,26554, Note_on_c, 0, 61, 62
2,26559, Note_on_c, 0, 69, 76
2,26582, Note_on_c, 0, 69, 0
2,26635, Note_on_c, 0, 61, 0
2,26658, Note_on_c, 0, 63, 64
2,26725, Note_on_c, 0, 63, 0
2,26751, Note_on_c, 0, 68, 72
2,26766, Note_on_c, 0, 64, 49
2,26796, Note_on_c, 0, 68, 0
2,26819, Note_on_c, 0, 64, 0
2,26848, Note_on_c, 0, 61, 47
2,26946, Note_on_c, 0, 61, 0
2,26954, Note_on_c, 0, 57, 45
2,26954, Note_on_c, 0, 73, 55
2,27045, Note_on_c, 0, 71, 57
2,27056, Note_on_c, 0, 57, 0
2,27078, Note_on_c, 0, 73, 0
2,27085, Note_on_c, 0, 56, 44
2,27143, Note_on_c, 0, 69, 57
2,27148, Note_on_c, 0, 56, 0
2,27155, Note_on_c, 0, 71, 0
2,27195, Note_on_c, 0, 57, 44
2,27238, Note_on_c, 0, 57, 0
2,27243, Note_on_c, 0, 68, 62
2,27249, Note_on_c, 0, 69, 0
2,27266, Note_on_c, 0, 59, 44
2,27338, Note_on_c, 0, 59, 0
2,27355, Note_on_c, 0, 66, 54
2,27357, Note_on_c, 0, 57, 40
2,27358, Note_on_c, 0, 68, 0
2,27425, Note_on_c, 0, 57, 0
2,27462, Note_on_c, 0, 56, 47
2,27539, Note_on_c, 0, 56, 0
2,27555, Note_on_c, 0, 57, 51
2,27617, Note_on_c, 0, 57, 0
2,27652, Note_on_c, 0, 59, 44
2,27765, Note_on_c, 0, 59, 0
2,27772, Note_on_c, 0, 56, 53
2,27834, Note_on_c, 0, 56, 0
2,27841, Note_on_c, 0, 66, 0
2,27858, Note_on_c, 0, 54, 50
2,27940, Note_on_c, 0, 54, 0
2,27959, Note_on_c, 0, 64, 52
2,27960, Note_on_c, 0, 56, 51
2,28016, Note_on_c, 0, 56, 0
2,28033, Note_on_c, 0, 64, 0
2,28038, Note_on_c, 0, 57, 49
2,28049, Note_on_c, 0, 63, 56
2,28102, Note_on_c, 0, 57, 0
2,28122, Note_on_c, 0, 63, 0
2,28138, Note_on_c, 0, 56, 67
2,28148, Note_on_c, 0, 64, 64
2,28167, Note_on_c, 0, 56, 0
2,28208, Note_on_c, 0, 64, 0
2,28227, Note_on_c, 0, 66, 65
2,28319, Note_on_c, 0, 66, 0
2,28336, Note_on_c, 0, 52, 78
2,28339, Note_on_c, 0, 68, 66
2,28344, Note_on_c, 0, 59, 59
2,28364, Note_on_c, 0, 52, 0
2,28395, Note_on_c, 0, 68, 0
2,28420, Note_on_c, 0, 64, 64
2,28546, Note_on_c, 0, 64, 0
2,28553, Note_on_c, 0, 54, 78
2,28557, Note_on_c, 0, 61, 56
2,28572, Note_on_c, 0, 59, 0
2,28648, Note_on_c, 0, 68, 64
2,28649, Note_on_c, 0, 61, 0
2,28751, Note_on_c, 0, 68, 0
2,28753, Note_on_c, 0, 66, 61
2,28759, Note_on_c, 0, 57, 43
2,28814, Note_on_c, 0, 57, 0
2,28818, Note_on_c, 0, 66, 0
2,28839, Note_on_c, 0, 54, 0
2,28848, Note_on_c, 0, 56, 51
2,28853, Note_on_c, 0, 64, 53
2,28915, Note_on_c, 0, 56, 0
2,28942, Note_on_c, 0, 57, 46
2,28961, Note_on_c, 0, 64, 0
2,28969, Note_on_c, 0, 63, 46
2,29049, Note_on_c, 0, 61, 47
2,29061, Note_on_c, 0, 47, 50
2,29061, Note_on_c, 0, 57, 0
2,29125, Note_on_c, 0, 47, 0
2,29137, Note_on_c, 0, 63, 0
2,29146, Note_on_c, 0, 61, 0
2,29150, Note_on_c, 0, 49, 56
2,29153, Note_on_c, 0, 59, 58
2,29208, Note_on_c, 0, 59, 0
2,29230, Note_on_c, 0, 49, 0
2,29235, Note_on_c, 0, 57, 48
2,29239, Note_on_c, 0, 51, 60
2,29314, Note_on_c, 0, 57, 0
2,29325, Note_on_c, 0, 51, 0
2,29346, Note_on_c, 0, 52, 57
2,29350, Note_on_c, 0, 56, 53
2,29417, Note_on_c, 0, 52, 0
2,29451, Note_on_c, 0, 51, 56
2,29452, Note_on_c, 0, 56, 0
2,29453, Control_c, 0, 64, 44
2,29457, Note_on_c, 0, 59, 52
2,29468, Control_c, 0, 64, 53
2,29483, Control_c, 0, 64, 56
2,29498, Control_c, 0, 64, 58
2,29505, Note_on_c, 0, 51, 0
2,29514, Control_c, 0, 64, 59
2,29534, Note_on_c, 0, 61, 62
2,29535, Note_on_c, 0, 59, 0
2,29542, Note_on_c, 0, 52, 54
2,29545, Control_c, 0, 64, 59
2,29560, Control_c, 0, 64, 58
2,29575, Control_c, 0, 64, 57
2,29591, Control_c, 0, 64, 56
2,29605, Control_c, 0, 64, 55
2,29616, Note_on_c, 0, 52, 0
2,29620, Control_c, 0, 64, 53
2,29636, Control_c, 0, 64, 50
2,29636, Note_on_c, 0, 63, 67
2,29639, Note_on_c, 0, 61, 0
2,29648, Note_on_c, 0, 54, 56
2,29651, Control_c, 0, 64, 47
2,29667, Control_c, 0, 64, 44
2,29681, Control_c, 0, 64, 40
2,29696, Control_c, 0, 64, 32
2,29712, Control_c, 0, 64, 20
2,29713, Note_on_c, 0, 63, 0
2,29721, Note_on_c, 0, 54, 0
2,29726, Control_c, 0, 64, 0
2,29728, Note_on_c, 0, 56, 59
2,29737, Note_on_c, 0, 64, 64
2,29806, Note_on_c, 0, 56, 0
2,29820, Note_on_c, 0, 57, 63
2,29829, Note_on_c, 0, 66, 75
2,29846, Note_on_c, 0, 64, 0
2,29875, Note_on_c, 0, 57, 0
2,29917, Note_on_c, 0, 68, 83
2,29918, Note_on_c, 0, 59, 61
2,29936, Note_on_c, 0, 66, 0
2,29992, Note_on_c, 0, 59, 0
2,30006, Note_on_c, 0, 64, 77
2,30010, Note_on_c, 0, 56, 56
2,30011, Note_on_c, 0, 68, 0
2,30108, Note_on_c, 0, 56, 0
2,30119, Note_on_c, 0, 64, 0
2,30129, Note_on_c, 0, 52, 49
2,30134, Note_on_c, 0, 73, 82
2,30217, Note_on_c, 0, 52, 0
2,30236, Note_on_c, 0, 51, 61
2,30321, Note_on_c, 0, 51, 0
2,30332, Note_on_c, 0, 52, 62
2,30425, Note_on_c, 0, 52, 0
2,30425, Note_on_c, 0, 54, 67
2,30471, Note_on_c, 0, 73, 0
2,30532, Note_on_c, 0, 52, 72
2,30532, Note_on_c, 0, 54, 0
2,30606, Note_on_c, 0, 51, 71
2,30612, Note_on_c, 0, 52, 0
2,30632, Note_on_c, 0, 66, 72
2,30701, Note_on_c, 0, 51, 0
2,30715, Note_on_c, 0, 52, 68
2,30719, Note_on_c, 0, 68, 83
2,30744, Note_on_c, 0, 66, 0
2,30786, Note_on_c, 0, 52, 0
2,30795, Note_on_c, 0, 54, 76
2,30810, Note_on_c, 0, 70, 81
2,30850, Note_on_c, 0, 68, 0
2,30896, Note_on_c, 0, 54, 0
2,30898, Note_on_c, 0, 70, 0
2,30909, Note_on_c, 0, 51, 81
2,30914, Note_on_c, 0, 71, 85
2,30937, Note_on_c, 0, 51, 0
2,31003, Note_on_c, 0, 70, 84
2,31011, Note_on_c, 0, 71, 0
2,31095, Note_on_c, 0, 70, 0
2,31104, Note_on_c, 0, 54, 77
2,31107, Note_on_c, 0, 71, 86
2,31133, Note_on_c, 0, 54, 0
2,31193, Note_on_c, 0, 73, 87
2,31225, Note_on_c, 0, 71, 0
2,31286, Note_on_c, 0, 47, 83
2,31290, Note_on_c, 0, 75, 84
2,31299, Note_on_c, 0, 73, 0
2,31314, Note_on_c, 0, 47, 0
2,31373, Note_on_c, 0, 75, 0
2,31385, Note_on_c, 0, 76, 82
2,31490, Note_on_c, 0, 64, 90
2,31492, Note_on_c, 0, 52, 86
2,31492, Note_on_c, 0, 76, 0
2,31494, Note_on_c, 0, 78, 74
2,31527, Note_on_c, 0, 64, 0
2,31601, Note_on_c, 0, 78, 0
2,31601, Note_on_c, 0, 80, 65
2,31630, Note_on_c, 0, 80, 0
2,31751, Note_on_c, 0, 66, 91
2,31766, Note_on_c, 0, 69, 75
2,31857, Note_on_c, 0, 69, 0
2,31866, Note_on_c, 0, 68, 71
2,31926, Note_on_c, 0, 52, 0
2,31963, Note_on_c, 0, 51, 63
2,31978, Note_on_c, 0, 68, 0
2,31981, Note_on_c, 0, 69, 62
2,32042, Note_on_c, 0, 69, 0
2,32056, Note_on_c, 0, 51, 0
2,32064, Note_on_c, 0, 71, 61
2,32066, Note_on_c, 0, 49, 64
2,32140, Note_on_c, 0, 66, 0
2,32162, Note_on_c, 0, 69, 74
2,32165, Note_on_c, 0, 49, 0
2,32169, Note_on_c, 0, 51, 78
2,32195, Note_on_c, 0, 51, 0
2,32200, Note_on_c, 0, 71, 0
2,32250, Note_on_c, 0, 68, 76
2,32256, Note_on_c, 0, 59, 64
2,32256, Note_on_c, 0, 69, 0
2,32313, Note_on_c, 0, 59, 0
2,32360, Note_on_c, 0, 68, 0
2,32363, Note_on_c, 0, 59, 55
2,32372, Note_on_c, 0, 61, 77
2,32376, Note_on_c, 0, 69, 69
2,32425, Note_on_c, 0, 59, 0
2,32442, Note_on_c, 0, 71, 64
2,32457, Note_on_c, 0, 61, 0
2,32458, Note_on_c, 0, 63, 70
2,32458, Note_on_c, 0, 69, 0
2,32551, Note_on_c, 0, 71, 0
2,32553, Note_on_c, 0, 63, 0
2,32567, Note_on_c, 0, 61, 71
2,32568, Note_on_c, 0, 64, 72
2,32570, Note_on_c, 0, 68, 73
2,32660, Note_on_c, 0, 64, 0
2,32668, Note_on_c, 0, 63, 72
2,32669, Note_on_c, 0, 66, 70
2,32672, Note_on_c, 0, 68, 0
2,32738, Note_on_c, 0, 63, 0
2,32761, Note_on_c, 0, 64, 68
2,32764, Note_on_c, 0, 68, 81
2,32779, Note_on_c, 0, 66, 0
2,32839, Note_on_c, 0, 64, 0
2,32841, Note_on_c, 0, 68, 0
2,32849, Note_on_c, 0, 69, 86
2,32852, Note_on_c, 0, 66, 62
2,32912, Note_on_c, 0, 61, 0
2,32928, Note_on_c, 0, 66, 0
2,32952, Note_on_c, 0, 71, 76
2,32955, Note_on_c, 0, 69, 0
2,32957, Note_on_c, 0, 68, 75
2,33034, Note_on_c, 0, 73, 73
2,33043, Note_on_c, 0, 68, 0
2,33060, Note_on_c, 0, 69, 67
2,33067, Note_on_c, 0, 71, 0
2,33131, Note_on_c, 0, 69, 0
2,33165, Note_on_c, 0, 74, 82
2,33168, Note_on_c, 0, 56, 55
2,33174, Note_on_c, 0, 71, 57
2,33207, Note_on_c, 0, 71, 0
2,33209, Note_on_c, 0, 56, 0
2,33215, Note_on_c, 0, 73, 0
2,33259, Note_on_c, 0, 68, 62
2,33319, Note_on_c, 0, 68, 0
2,33352, Note_on_c, 0, 64, 52
2,33375, Note_on_c, 0, 57, 64
2,33414, Note_on_c, 0, 57, 0
2,33440, Note_on_c, 0, 64, 0
2,33458, Note_on_c, 0, 63, 64
2,33465, Note_on_c, 0, 74, 0
2,33522, Note_on_c, 0, 63, 0
2,33568, Note_on_c, 0, 56, 67
2,33577, Note_on_c, 0, 64, 48
2,33582, Note_on_c, 0, 73, 78
2,33613, Note_on_c, 0, 56, 0
2,33629, Note_on_c, 0, 64, 0
2,33669, Note_on_c, 0, 71, 69
2,33675, Note_on_c, 0, 66, 54
2,33683, Note_on_c, 0, 73, 0
2,33726, Note_on_c, 0, 66, 0
2,33770, Note_on_c, 0, 73, 81
2,33771, Note_on_c, 0, 57, 60
2,33771, Note_on_c, 0, 71, 0
2,33774, Note_on_c, 0, 64, 53
2,33807, Note_on_c, 0, 57, 0
2,33830, Note_on_c, 0, 64, 0
2,33877, Note_on_c, 0, 63, 63
2,33953, Note_on_c, 0, 63, 0
2,33976, Note_on_c, 0, 52, 63
2,33980, Note_on_c, 0, 64, 55
2,34020, Note_on_c, 0, 52, 0
2,34054, Note_on_c, 0, 64, 0
2,34075, Note_on_c, 0, 66, 58
2,34173, Note_on_c, 0, 54, 67
2,34178, Note_on_c, 0, 66, 0
2,34192, Note_on_c, 0, 63, 61
2,34235, Note_on_c, 0, 54, 0
2,34266, Note_on_c, 0, 63, 0
2,34280, Note_on_c, 0, 61, 60
2,34340, Note_on_c, 0, 61, 0
2,34372, Note_on_c, 0, 57, 64
2,34389, Note_on_c, 0, 63, 64
2,34407, Note_on_c, 0, 57, 0
2,34457, Note_on_c, 0, 63, 0
2,34466, Note_on_c, 0, 73, 0
2,34467, Note_on_c, 0, 64, 57
2,34565, Note_on_c, 0, 64, 0
2,34568, Note_on_c, 0, 56, 62
2,34577, Note_on_c, 0, 71, 65
2,34580, Note_on_c, 0, 66, 54
2,34607, Note_on_c, 0, 56, 0
2,34640, Note_on_c, 0, 66, 0
2,34686, Note_on_c, 0, 68, 57
2,34763, Note_on_c, 0, 68, 0
2,34778, Note_on_c, 0, 69, 58
2,34781, Note_on_c, 0, 54, 63
2,34821, Note_on_c, 0, 54, 0
2,34886, Note_on_c, 0, 66, 52
2,34901, Note_on_c, 0, 69, 0
2,34931, Note_on_c, 0, 71, 0
2,34964, Note_on_c, 0, 66, 0
2,34968, Note_on_c, 0, 52, 62
2,34989, Note_on_c, 0, 62, 60
2,35002, Note_on_c, 0, 52, 0
2,35067, Note_on_c, 0, 62, 0
2,35078, Note_on_c, 0, 61, 60
2,35160, Note_on_c, 0, 61, 0
2,35171, Note_on_c, 0, 54, 58
2,35192, Note_on_c, 0, 62, 56
2,35217, Note_on_c, 0, 54, 0
2,35239, Note_on_c, 0, 62, 0
2,35261, Note_on_c, 0, 64, 56
2,35368, Note_on_c, 0, 64, 0
2,35377, Note_on_c, 0, 56, 50
2,35377, Note_on_c, 0, 71, 68
2,35384, Note_on_c, 0, 62, 50
2,35417, Note_on_c, 0, 56, 0
2,35436, Note_on_c, 0, 62, 0
2,35479, Note_on_c, 0, 61, 56
2,35544, Note_on_c, 0, 61, 0
2,35572, Note_on_c, 0, 52, 53
2,35588, Note_on_c, 0, 62, 40
2,35608, Note_on_c, 0, 52, 0
2,35638, Note_on_c, 0, 62, 0
2,35666, Note_on_c, 0, 64, 49
2,35758, Note_on_c, 0, 64, 0
2,35777, Note_on_c, 0, 57, 55
2,35784, Note_on_c, 0, 61, 54
2,35811, Note_on_c, 0, 57, 0
2,35865, Note_on_c, 0, 61, 0
2,35891, Note_on_c, 0, 59, 56
2,35953, Note_on_c, 0, 59, 0
2,35971, Note_on_c, 0, 59, 53
2,35990, Note_on_c, 0, 61, 58
2,35999, Note_on_c, 0, 71, 0
2,36011, Note_on_c, 0, 59, 0
2,36059, Note_on_c, 0, 61, 0
2,36081, Note_on_c, 0, 62, 53
2,36132, Note_on_c, 0, 62, 0
2,36170, Note_on_c, 0, 61, 64
2,36170, Note_on_c, 0, 69, 62
2,36173, Note_on_c, 0, 64, 53
2,36212, Note_on_c, 0, 61, 0
2,36228, Note_on_c, 0, 64, 0
2,36281, Note_on_c, 0, 66, 52
2,36347, Note_on_c, 0, 66, 0
2,36371, Note_on_c, 0, 68, 57
2,36377, Note_on_c, 0, 59, 68
2,36411, Note_on_c, 0, 59, 0
2,36467, Note_on_c, 0, 69, 0
2,36480, Note_on_c, 0, 64, 59
2,36533, Note_on_c, 0, 68, 0
2,36571, Note_on_c, 0, 57, 69
2,36577, Note_on_c, 0, 64, 0
2,36580, Note_on_c, 0, 61, 63
2,36603, Note_on_c, 0, 57, 0
2,36656, Note_on_c, 0, 61, 0
2,36670, Note_on_c, 0, 59, 66
2,36771, Note_on_c, 0, 61, 75
2,36772, Note_on_c, 0, 52, 68
2,36774, Note_on_c, 0, 59, 0
2,36804, Note_on_c, 0, 52, 0
2,36845, Note_on_c, 0, 61, 0
2,36853, Note_on_c, 0, 62, 69
2,36928, Note_on_c, 0, 62, 0
2,36956, Note_on_c, 0, 69, 86
2,36966, Note_on_c, 0, 54, 74
2,36980, Note_on_c, 0, 61, 66
2,36993, Note_on_c, 0, 54, 0
2,37022, Note_on_c, 0, 61, 0
2,37065, Note_on_c, 0, 59, 69
2,37152, Note_on_c, 0, 59, 0
2,37155, Note_on_c, 0, 61, 65
2,37160, Note_on_c, 0, 49, 77
2,37191, Note_on_c, 0, 49, 0
2,37226, Note_on_c, 0, 61, 0
2,37247, Note_on_c, 0, 62, 61
2,37354, Note_on_c, 0, 62, 0
2,37360, Note_on_c, 0, 51, 93
2,37369, Note_on_c, 0, 59, 74
2,37405, Note_on_c, 0, 51, 0
2,37447, Note_on_c, 0, 59, 0
2,37454, Note_on_c, 0, 57, 70
2,37528, Note_on_c, 0, 57, 0
2,37561, Note_on_c, 0, 47, 80
2,37567, Note_on_c, 0, 59, 72
2,37603, Note_on_c, 0, 59, 0
2,37610, Note_on_c, 0, 47, 0
2,37665, Note_on_c, 0, 61, 73
2,37729, Note_on_c, 0, 69, 0
2,37751, Note_on_c, 0, 61, 0
2,37776, Note_on_c, 0, 52, 70
2,37779, Note_on_c, 0, 68, 89
2,37784, Note_on_c, 0, 59, 70
2,37814, Note_on_c, 0, 68, 0
2,37867, Note_on_c, 0, 57, 77
2,37873, Note_on_c, 0, 59, 0
2,37974, Note_on_c, 0, 76, 98
2,37982, Note_on_c, 0, 59, 77
2,37985, Note_on_c, 0, 57, 0
2,38007, Note_on_c, 0, 76, 0
2,38072, Note_on_c, 0, 61, 72
2,38083, Note_on_c, 0, 59, 0
2,38194, Note_on_c, 0, 61, 0
2,38218, Note_on_c, 0, 57, 59
2,38221, Note_on_c, 0, 78, 98
2,38304, Note_on_c, 0, 57, 0
2,38316, Note_on_c, 0, 56, 57
2,38327, Control_c, 0, 64, 50
2,38342, Control_c, 0, 64, 65
2,38358, Control_c, 0, 64, 77
2,38373, Control_c, 0, 64, 127
2,38398, Note_on_c, 0, 79, 21
2,38415, Note_on_c, 0, 52, 0
2,38416, Note_on_c, 0, 78, 0
2,38425, Note_on_c, 0, 57, 68
2,38427, Note_on_c, 0, 56, 0
2,38434, Note_on_c, 0, 79, 0
2,38517, Note_on_c, 0, 59, 77
2,38518, Note_on_c, 0, 57, 0
2,38638, Note_on_c, 0, 51, 77
2,38644, Note_on_c, 0, 59, 0
2,38646, Note_on_c, 0, 57, 76
2,38669, Control_c, 0, 64, 88
2,38684, Control_c, 0, 64, 70
2,38699, Control_c, 0, 64, 49
2,38715, Control_c, 0, 64, 0
2,38739, Note_on_c, 0, 57, 0
2,38741, Note_on_c, 0, 56, 74
2,38749, Note_on_c, 0, 71, 79
2,38834, Note_on_c, 0, 57, 78
2,38839, Note_on_c, 0, 73, 81
2,38850, Note_on_c, 0, 56, 0
2,38872, Note_on_c, 0, 71, 0
2,38907, Note_on_c, 0, 57, 0
2,38923, Note_on_c, 0, 75, 86
2,38930, Note_on_c, 0, 59, 71
2,38961, Note_on_c, 0, 73, 0
2,39000, Note_on_c, 0, 59, 0
2,39022, Note_on_c, 0, 56, 68
2,39025, Note_on_c, 0, 76, 83
2,39045, Note_on_c, 0, 75, 0
2,39054, Note_on_c, 0, 56, 0
2,39114, Note_on_c, 0, 75, 83
2,39123, Note_on_c, 0, 76, 0
2,39188, Note_on_c, 0, 51, 0
2,39212, Note_on_c, 0, 75, 0
2,39221, Note_on_c, 0, 76, 90
2,39224, Note_on_c, 0, 59, 69
2,39253, Note_on_c, 0, 59, 0
2,39318, Note_on_c, 0, 78, 87
2,39349, Note_on_c, 0, 76, 0
2,39413, Note_on_c, 0, 49, 71
2,39414, Note_on_c, 0, 80, 85
2,39422, Note_on_c, 0, 52, 61
2,39447, Note_on_c, 0, 78, 0
2,39450, Note_on_c, 0, 52, 0
2,39502, Note_on_c, 0, 81, 76
2,39545, Note_on_c, 0, 80, 0
2,39608, Note_on_c, 0, 83, 85
2,39610, Note_on_c, 0, 56, 86
2,39636, Note_on_c, 0, 81, 0
2,39674, Note_on_c, 0, 49, 0
2,39701, Note_on_c, 0, 80, 80
2,39726, Note_on_c, 0, 83, 0
2,39798, Note_on_c, 0, 42, 69
2,39807, Note_on_c, 0, 81, 79
2,39834, Note_on_c, 0, 80, 0
2,39908, Note_on_c, 0, 80, 79
2,39915, Note_on_c, 0, 56, 0
2,39917, Note_on_c, 0, 81, 0
2,40000, Note_on_c, 0, 54, 80
2,40006, Note_on_c, 0, 81, 74
2,40026, Note_on_c, 0, 80, 0
2,40059, Note_on_c, 0, 42, 0
2,40102, Note_on_c, 0, 49, 71
2,40104, Note_on_c, 0, 83, 84
2,40108, Note_on_c, 0, 81, 0
2,40184, Note_on_c, 0, 51, 77
2,40196, Note_on_c, 0, 49, 0
2,40209, Note_on_c, 0, 81, 80
2,40221, Note_on_c, 0, 51, 0
2,40237, Note_on_c, 0, 83, 0
2,40296, Note_on_c, 0, 80, 80
2,40304, Note_on_c, 0, 81, 0
2,40381, Note_on_c, 0, 47, 79
2,40396, Note_on_c, 0, 81, 69
2,40427, Note_on_c, 0, 80, 0
2,40432, Note_on_c, 0, 47, 0
2,40488, Note_on_c, 0, 81, 0
2,40491, Note_on_c, 0, 83, 76
2,40580, Note_on_c, 0, 83, 0
2,40588, Note_on_c, 0, 52, 77
2,40594, Note_on_c, 0, 80, 71
2,40638, Note_on_c, 0, 52, 0
2,40677, Note_on_c, 0, 78, 72
2,40677, Note_on_c, 0, 80, 0
2,40780, Note_on_c, 0, 78, 0
2,40781, Note_on_c, 0, 47, 73
2,40785, Note_on_c, 0, 80, 75
2,40814, Note_on_c, 0, 54, 0
2,40827, Note_on_c, 0, 47, 0
2,40874, Note_on_c, 0, 80, 0
2,40877, Note_on_c, 0, 81, 72
2,40977, Note_on_c, 0, 49, 68
2,40980, Note_on_c, 0, 52, 77
2,40981, Note_on_c, 0, 80, 77
2,40991, Note_on_c, 0, 81, 0
2,41010, Note_on_c, 0, 49, 0
2,41072, Note_on_c, 0, 78, 78
2,41084, Note_on_c, 0, 80, 0
2,41158, Note_on_c, 0, 78, 0
2,41165, Note_on_c, 0, 44, 83
2,41175, Note_on_c, 0, 76, 73
2,41185, Note_on_c, 0, 52, 0
2,41234, Note_on_c, 0, 44, 0
2,41258, Note_on_c, 0, 75, 78
2,41262, Note_on_c, 0, 76, 0
2,41368, Note_on_c, 0, 45, 83
2,41371, Note_on_c, 0, 52, 80
2,41371, Note_on_c, 0, 75, 0
2,41380, Note_on_c, 0, 73, 62
2,41418, Note_on_c, 0, 52, 0
2,41452, Note_on_c, 0, 73, 0
2,41463, Note_on_c, 0, 71, 71
2,41583, Note_on_c, 0, 73, 80
2,41584, Note_on_c, 0, 64, 83
2,41624, Note_on_c, 0, 71, 0
2,41634, Note_on_c, 0, 64, 0
2,41647, Note_on_c, 0, 45, 0
2,41657, Note_on_c, 0, 40, 67
2,41668, Note_on_c, 0, 74, 74
2,41682, Note_on_c, 0, 73, 0
2,41736, Note_on_c, 0, 40, 0
2,41767, Note_on_c, 0, 42, 84
2,41783, Note_on_c, 0, 69, 90
2,41799, Note_on_c, 0, 73, 73
2,41807, Note_on_c, 0, 42, 0
2,41809, Note_on_c, 0, 74, 0
2,41886, Note_on_c, 0, 71, 74
2,41889, Note_on_c, 0, 73, 0
2,41983, Note_on_c, 0, 37, 88
2,41992, Note_on_c, 0, 73, 78
2,42021, Note_on_c, 0, 37, 0
2,42025, Note_on_c, 0, 71, 0
2,42070, Note_on_c, 0, 74, 75
2,42093, Note_on_c, 0, 73, 0
2,42182, Note_on_c, 0, 39, 81
2,42189, Note_on_c, 0, 71, 85
2,42192, Note_on_c, 0, 74, 0
2,42235, Note_on_c, 0, 39, 0
2,42288, Note_on_c, 0, 73, 80
2,42321, Note_on_c, 0, 71, 0
2,42394, Note_on_c, 0, 59, 89
2,42399, Note_on_c, 0, 75, 85
2,42423, Note_on_c, 0, 73, 0
2,42428, Note_on_c, 0, 69, 0
2,42439, Note_on_c, 0, 59, 0
2,42496, Note_on_c, 0, 71, 77
2,42568, Note_on_c, 0, 75, 0
2,42621, Note_on_c, 0, 76, 88
2,42624, Note_on_c, 0, 61, 76
2,42626, Note_on_c, 0, 68, 74
2,42644, Note_on_c, 0, 71, 0
2,42694, Note_on_c, 0, 68, 0
2,42748, Control_c, 0, 64, 48
2,42749, Note_on_c, 0, 64, 54
2,42764, Control_c, 0, 64, 66
2,42779, Control_c, 0, 64, 79
2,42782, Note_on_c, 0, 61, 0
2,42794, Control_c, 0, 64, 127
2,42852, Note_on_c, 0, 64, 0
2,42852, Note_on_c, 0, 66, 68
2,42949, Note_on_c, 0, 68, 65
2,42983, Note_on_c, 0, 66, 0
2,43035, Note_on_c, 0, 68, 0
2,43047, Note_on_c, 0, 69, 76
2,43053, Control_c, 0, 64, 99
2,43068, Control_c, 0, 64, 84
2,43083, Control_c, 0, 64, 70
2,43098, Control_c, 0, 64, 55
2,43121, Control_c, 0, 64, 0
2,43143, Note_on_c, 0, 54, 60
2,43148, Note_on_c, 0, 71, 75
2,43161, Note_on_c, 0, 69, 0
2,43249, Note_on_c, 0, 56, 75
2,43256, Note_on_c, 0, 73, 80
2,43280, Note_on_c, 0, 71, 0
2,43283, Note_on_c, 0, 54, 0
2,43340, Note_on_c, 0, 57, 80
2,43376, Note_on_c, 0, 56, 0
2,43400, Note_on_c, 0, 76, 0
2,43445, Note_on_c, 0, 57, 0
2,43451, Note_on_c, 0, 59, 81
2,43458, Note_on_c, 0, 75, 89
2,43488, Note_on_c, 0, 73, 0
2,43501, Note_on_c, 0, 59, 0
2,43566, Note_on_c, 0, 73, 66
2,43694, Note_on_c, 0, 47, 86
2,43694, Note_on_c, 0, 71, 77
2,43729, Note_on_c, 0, 47, 0
2,43735, Note_on_c, 0, 73, 0
2,43830, Note_on_c, 0, 69, 81
2,43851, Note_on_c, 0, 71, 0
2,44039, Note_on_c, 0, 40, 69
2,44041, Note_on_c, 0, 76, 87
2,44042, Note_on_c, 0, 68, 72
2,44073, Note_on_c, 0, 69, 0
2,44095, Note_on_c, 0, 75, 0
2,44778, Control_c, 0, 64, 26
2,44793, Control_c, 0, 64, 44
2,44809, Control_c, 0, 64, 49
2,44823, Control_c, 0, 64, 52
2,44839, Control_c, 0, 64, 56
2,44854, Control_c, 0, 64, 59
2,44869, Control_c, 0, 64, 63
2,44885, Control_c, 0, 64, 66
2,44900, Control_c, 0, 64, 68
2,44915, Control_c, 0, 64, 72
2,44931, Control_c, 0, 64, 77
2,44946, Control_c, 0, 64, 85
2,44962, Control_c, 0, 64, 95
2,44977, Control_c, 0, 64, 116
2,44992, Control_c, 0, 64, 127
2,45274, Note_on_c, 0, 40, 0
2,45276, Note_on_c, 0, 76, 0
2,45309, Note_on_c, 0, 68, 0
2,45515, Control_c, 0, 64, 95
2,45531, Control_c, 0, 64, 79
2,45545, Control_c, 0, 64, 65
2,45561, Control_c, 0, 64, 50
2,45576, Control_c, 0, 64, 17
2,45591, Control_c, 0, 64, 0
2,45592, End_track
0, 0, End_of_file
