0, 0, Header, 1, 2, 480
1, 0, Start_track
1, 0, Tempo, 500000
1, 0, Time_signature, 4, 2, 24, 8
1, 1, End_track
2, 0, Start_track
2, 0, Program_c, 0, 0
2, 938, Note_on_c, 0, 52, 38
2, 943, Note_on_c, 0, 64, 52
2, 1231, Note_on_c, 0, 68, 71
2, 1243, Note_on_c, 0, 64, 0
2, 1477, Note_on_c, 0, 71, 78
2, 1523, Note_on_c, 0, 68, 0
2, 1711, Note_on_c, 0, 56, 50
2, 1713, Note_on_c, 0, 76, 76
2, 1720, Note_on_c, 0, 71, 0
2, 1955, Note_on_c, 0, 75, 77
2, 1957, Note_on_c, 0, 76, 0
2, 2188, Note_on_c, 0, 75, 0
2, 2191, Note_on_c, 0, 76, 71
2, 2309, Note_on_c, 0, 56, 0
2, 2322, Note_on_c, 0, 57, 52
2, 2426, Note_on_c, 0, 76, 0
2, 2428, Note_on_c, 0, 75, 70
2, 2490, Note_on_c, 0, 75, 0
2, 2494, Note_on_c, 0, 73, 69
2, 2552, Note_on_c, 0, 73, 0
2, 2565, Note_on_c, 0, 75, 70
2, 2636, Note_on_c, 0, 75, 0
2, 2638, Note_on_c, 0, 73, 81
2, 2702, Note_on_c, 0, 73, 0
2, 2712, Note_on_c, 0, 71, 77
2, 2932, Note_on_c, 0, 73, 82
2, 2947, Note_on_c, 0, 71, 0
2, 3211, Note_on_c, 0, 76, 72
2, 3263, Note_on_c, 0, 73, 0
2, 3449, Note_on_c, 0, 56, 45
2, 3504, Note_on_c, 0, 57, 0
2, 3703, Note_on_c, 0, 54, 41
2, 3724, Note_on_c, 0, 56, 0
2, 3929, Note_on_c, 0, 56, 43
2, 3933, Note_on_c, 0, 76, 0
2, 3937, Note_on_c, 0, 73, 57
2, 3985, Note_on_c, 0, 54, 0
2, 3985, Note_on_c, 0, 73, 0
2, 4015, Note_on_c, 0, 71, 53
2, 4058, Note_on_c, 0, 71, 0
2, 4094, Note_on_c, 0, 73, 55
2, 4129, Note_on_c, 0, 73, 0
2, 4143, Note_on_c, 0, 71, 64
2, 4190, Note_on_c, 0, 71, 0
2, 4215, Note_on_c, 0, 69, 61
2, 4440, Note_on_c, 0, 69, 0
2, 4451, Note_on_c, 0, 71, 63
2, 4715, Note_on_c, 0, 76, 59
2, 4733, Note_on_c, 0, 71, 0
2, 4956, Note_on_c, 0, 57, 46
2, 4964, Note_on_c, 0, 56, 0
2, 5204, Note_on_c, 0, 57, 0
2, 5217, Note_on_c, 0, 56, 46
2, 5470, Note_on_c, 0, 69, 59
2, 5483, Note_on_c, 0, 54, 36
2, 5493, Note_on_c, 0, 76, 0
2, 5513, Note_on_c, 0, 56, 0
2, 5711, Note_on_c, 0, 69, 0
2, 5715, Note_on_c, 0, 71, 64
2, 5961, Note_on_c, 0, 73, 66
2, 5965, Note_on_c, 0, 71, 0
2, 6193, Note_on_c, 0, 52, 0
2, 6202, Note_on_c, 0, 51, 36
2, 6206, Note_on_c, 0, 71, 65
2, 6209, Note_on_c, 0, 73, 0
2, 6448, Note_on_c, 0, 73, 66
2, 6449, Note_on_c, 0, 71, 0
2, 6691, Note_on_c, 0, 69, 64
2, 6704, Note_on_c, 0, 73, 0
2, 6741, Note_on_c, 0, 51, 0
2, 6780, Note_on_c, 0, 54, 0
2, 6920, Note_on_c, 0, 52, 41
2, 6936, Note_on_c, 0, 69, 0
2, 6939, Note_on_c, 0, 68, 71
2, 7177, Note_on_c, 0, 68, 0
2, 7186, Note_on_c, 0, 71, 77
2, 7193, Note_on_c, 0, 56, 61
2, 7232, Note_on_c, 0, 52, 0
2, 7435, Note_on_c, 0, 76, 85
2, 7440, Note_on_c, 0, 59, 64
2, 7449, Note_on_c, 0, 56, 0
2, 7452, Note_on_c, 0, 71, 0
2, 7691, Note_on_c, 0, 59, 0
2, 7691, Note_on_c, 0, 80, 83
2, 7693, Note_on_c, 0, 64, 61
2, 7738, Note_on_c, 0, 76, 0
2, 7940, Note_on_c, 0, 63, 64
2, 7955, Note_on_c, 0, 64, 0
2, 8195, Note_on_c, 0, 64, 65
2, 8220, Note_on_c, 0, 63, 0
2, 8489, Note_on_c, 0, 58, 61
2, 8587, Note_on_c, 0, 64, 0
2, 8751, Note_on_c, 0, 78, 72
2, 8784, Note_on_c, 0, 80, 0
2, 9004, Note_on_c, 0, 61, 62
2, 9005, Note_on_c, 0, 76, 71
2, 9023, Note_on_c, 0, 78, 0
2, 9152, Note_on_c, 0, 61, 0
2, 9259, Note_on_c, 0, 66, 64
2, 9266, Note_on_c, 0, 75, 72
2, 9269, Note_on_c, 0, 76, 0
2, 9517, Note_on_c, 0, 76, 74
2, 9523, Note_on_c, 0, 75, 0
2, 9615, Control_c, 0, 64, 45
2, 9634, Control_c, 0, 64, 60
2, 9654, Control_c, 0, 64, 65
2, 9673, Control_c, 0, 64, 70
2, 9679, Note_on_c, 0, 66, 0
2, 9692, Control_c, 0, 64, 79
2, 9711, Control_c, 0, 64, 99
2, 9731, Control_c, 0, 64, 127
2, 9749, Note_on_c, 0, 58, 0
2, 9766, Note_on_c, 0, 73, 71
2, 9784, Note_on_c, 0, 76, 0
2, 9896, Note_on_c, 0, 73, 0
2, 10019, Note_on_c, 0, 47, 42
2, 10045, Note_on_c, 0, 73, 66
2, 10081, Control_c, 0, 64, 96
2, 10099, Control_c, 0, 64, 79
2, 10118, Control_c, 0, 64, 68
2, 10138, Control_c, 0, 64, 55
2, 10156, Control_c, 0, 64, 0
2, 10175, Note_on_c, 0, 75, 63
2, 10214, Note_on_c, 0, 73, 0
2, 10262, Note_on_c, 0, 75, 0
2, 10275, Note_on_c, 0, 76, 68
2, 10349, Note_on_c, 0, 51, 51
2, 10349, Note_on_c, 0, 76, 0
2, 10372, Note_on_c, 0, 75, 64
2, 10415, Note_on_c, 0, 47, 0
2, 10436, Note_on_c, 0, 75, 0
2, 10467, Note_on_c, 0, 76, 67
2, 10514, Note_on_c, 0, 76, 0
2, 10542, Note_on_c, 0, 75, 60
2, 10595, Note_on_c, 0, 75, 0
2, 10613, Note_on_c, 0, 54, 56
2, 10624, Note_on_c, 0, 76, 67
2, 10636, Note_on_c, 0, 51, 0
2, 10677, Note_on_c, 0, 76, 0
2, 10706, Note_on_c, 0, 75, 54
2, 10753, Note_on_c, 0, 75, 0
2, 10772, Note_on_c, 0, 76, 66
2, 10834, Note_on_c, 0, 76, 0
2, 10851, Note_on_c, 0, 54, 0
2, 10851, Note_on_c, 0, 59, 61
2, 10857, Note_on_c, 0, 75, 63
2, 10904, Note_on_c, 0, 75, 0
2, 10929, Note_on_c, 0, 76, 66
2, 10989, Note_on_c, 0, 76, 0
2, 11023, Note_on_c, 0, 75, 58
2, 11069, Note_on_c, 0, 75, 0
2, 11075, Note_on_c, 0, 58, 50
2, 11085, Note_on_c, 0, 59, 0
2, 11091, Note_on_c, 0, 76, 63
2, 11133, Note_on_c, 0, 76, 0
2, 11154, Note_on_c, 0, 75, 64
2, 11204, Note_on_c, 0, 75, 0
2, 11234, Note_on_c, 0, 76, 63
2, 11304, Note_on_c, 0, 76, 0
2, 11323, Note_on_c, 0, 59, 44
2, 11326, Note_on_c, 0, 75, 56
2, 11352, Note_on_c, 0, 58, 0
2, 11596, Note_on_c, 0, 52, 43
2, 11713, Note_on_c, 0, 59, 0
2, 11858, Note_on_c, 0, 76, 62
2, 11890, Note_on_c, 0, 75, 0
2, 12103, Note_on_c, 0, 78, 69
2, 12106, Note_on_c, 0, 76, 0
2, 12110, Note_on_c, 0, 59, 56
2, 12237, Note_on_c, 0, 59, 0
2, 12367, Note_on_c, 0, 80, 73
2, 12371, Note_on_c, 0, 64, 58
2, 12391, Note_on_c, 0, 78, 0
2, 12622, Note_on_c, 0, 73, 70
2, 12663, Note_on_c, 0, 80, 0
2, 12866, Note_on_c, 0, 76, 76
2, 12899, Note_on_c, 0, 73, 0
2, 13123, Note_on_c, 0, 66, 67
2, 13148, Note_on_c, 0, 76, 0
2, 13150, Note_on_c, 0, 54, 45
2, 13272, Note_on_c, 0, 52, 0
2, 13393, Note_on_c, 0, 70, 80
2, 13431, Note_on_c, 0, 66, 0
2, 13646, Note_on_c, 0, 73, 78
2, 13701, Note_on_c, 0, 70, 0
2, 13897, Note_on_c, 0, 78, 79
2, 13903, Note_on_c, 0, 63, 54
2, 13930, Note_on_c, 0, 73, 0
2, 14044, Note_on_c, 0, 64, 0
2, 14150, Note_on_c, 0, 76, 75
2, 14187, Note_on_c, 0, 78, 0
2, 14405, Note_on_c, 0, 78, 76
2, 14429, Note_on_c, 0, 76, 0
2, 14656, Note_on_c, 0, 68, 67
2, 14706, Note_on_c, 0, 78, 0
2, 14899, Note_on_c, 0, 71, 71
2, 14924, Note_on_c, 0, 68, 0
2, 15169, Note_on_c, 0, 75, 73
2, 15208, Note_on_c, 0, 71, 0
2, 15434, Note_on_c, 0, 76, 65
2, 15468, Note_on_c, 0, 75, 0
2, 15676, Note_on_c, 0, 63, 0
2, 15690, Note_on_c, 0, 61, 48
2, 15945, Note_on_c, 0, 61, 0
2, 15947, Note_on_c, 0, 59, 51
2, 16218, Note_on_c, 0, 66, 47
2, 16236, Note_on_c, 0, 58, 38
2, 16243, Note_on_c, 0, 76, 0
2, 16255, Note_on_c, 0, 59, 0
2, 16471, Note_on_c, 0, 70, 62
2, 16489, Note_on_c, 0, 66, 0
2, 16723, Note_on_c, 0, 73, 61
2, 16754, Note_on_c, 0, 70, 0
2, 16976, Note_on_c, 0, 76, 61
2, 16991, Note_on_c, 0, 73, 0
2, 17157, Note_on_c, 0, 54, 0
2, 17218, Note_on_c, 0, 75, 66
2, 17220, Note_on_c, 0, 76, 0
2, 17460, Note_on_c, 0, 49, 58
2, 17471, Note_on_c, 0, 76, 63
2, 17488, Note_on_c, 0, 75, 0
2, 17620, Note_on_c, 0, 49, 0
2, 17754, Note_on_c, 0, 66, 59
2, 17759, Note_on_c, 0, 50, 64
2, 17773, Note_on_c, 0, 76, 0
2, 18021, Note_on_c, 0, 70, 70
2, 18043, Note_on_c, 0, 66, 0
2, 18285, Note_on_c, 0, 73, 67
2, 18321, Note_on_c, 0, 70, 0
2, 18542, Note_on_c, 0, 74, 64
2, 18544, Note_on_c, 0, 73, 0
2, 18553, Note_on_c, 0, 58, 0
2, 18561, Note_on_c, 0, 59, 43
2, 18791, Note_on_c, 0, 52, 53
2, 18844, Note_on_c, 0, 50, 0
2, 19045, Control_c, 0, 64, 28
2, 19053, Note_on_c, 0, 54, 66
2, 19060, Control_c, 0, 64, 62
2, 19066, Note_on_c, 0, 52, 0
2, 19080, Control_c, 0, 64, 72
2, 19099, Control_c, 0, 64, 90
2, 19119, Control_c, 0, 64, 127
2, 19170, Note_on_c, 0, 54, 0
2, 19320, Note_on_c, 0, 55, 67
2, 19425, Control_c, 0, 64, 98
2, 19445, Control_c, 0, 64, 76
2, 19464, Control_c, 0, 64, 63
2, 19483, Control_c, 0, 64, 17
2, 19502, Control_c, 0, 64, 0
2, 19582, Note_on_c, 0, 61, 63
2, 19583, Note_on_c, 0, 76, 65
2, 19587, Note_on_c, 0, 59, 0
2, 19613, Note_on_c, 0, 74, 0
2, 19837, Note_on_c, 0, 62, 69
2, 19840, Note_on_c, 0, 74, 70
2, 19859, Note_on_c, 0, 61, 0
2, 19866, Note_on_c, 0, 76, 0
2, 20112, Note_on_c, 0, 64, 65
2, 20113, Note_on_c, 0, 73, 74
2, 20140, Note_on_c, 0, 74, 0
2, 20145, Note_on_c, 0, 62, 0
2, 20371, Note_on_c, 0, 74, 71
2, 20386, Note_on_c, 0, 73, 0
2, 20632, Note_on_c, 0, 71, 71
2, 20654, Control_c, 0, 64, 49
2, 20674, Control_c, 0, 64, 63
2, 20680, Note_on_c, 0, 74, 0
2, 20693, Control_c, 0, 64, 68
2, 20712, Control_c, 0, 64, 76
2, 20731, Control_c, 0, 64, 92
2, 20750, Control_c, 0, 64, 111
2, 20770, Control_c, 0, 64, 127
2, 20797, Note_on_c, 0, 71, 0
2, 20878, Note_on_c, 0, 54, 49
2, 20893, Note_on_c, 0, 55, 0
2, 20913, Note_on_c, 0, 71, 69
2, 20979, Note_on_c, 0, 71, 0
2, 20993, Note_on_c, 0, 70, 72
2, 21000, Control_c, 0, 64, 98
2, 21019, Control_c, 0, 64, 84
2, 21039, Control_c, 0, 64, 72
2, 21057, Control_c, 0, 64, 62
2, 21067, Note_on_c, 0, 70, 0
2, 21076, Note_on_c, 0, 71, 77
2, 21077, Control_c, 0, 64, 44
2, 21096, Control_c, 0, 64, 0
2, 21146, Note_on_c, 0, 70, 79
2, 21148, Note_on_c, 0, 71, 0
2, 21235, Note_on_c, 0, 68, 86
2, 21239, Note_on_c, 0, 70, 0
2, 21488, Note_on_c, 0, 68, 0
2, 21493, Note_on_c, 0, 66, 83
2, 21837, Note_on_c, 0, 79, 83
2, 21890, Note_on_c, 0, 66, 0
2, 22149, Note_on_c, 0, 78, 80
2, 22150, Note_on_c, 0, 63, 54
2, 22151, Note_on_c, 0, 56, 48
2, 22181, Note_on_c, 0, 79, 0
2, 22200, Note_on_c, 0, 64, 0
2, 22256, Note_on_c, 0, 63, 0
2, 22407, Note_on_c, 0, 54, 0
2, 22423, Note_on_c, 0, 77, 75
2, 22429, Note_on_c, 0, 61, 52
2, 22433, Note_on_c, 0, 56, 0
2, 22436, Note_on_c, 0, 58, 46
2, 22463, Note_on_c, 0, 78, 0
2, 22705, Note_on_c, 0, 76, 73
2, 22712, Note_on_c, 0, 59, 52
2, 22713, Note_on_c, 0, 77, 0
2, 22798, Note_on_c, 0, 58, 0
2, 22814, Note_on_c, 0, 61, 0
2, 22968, Note_on_c, 0, 75, 69
2, 22986, Note_on_c, 0, 76, 0
2, 23237, Note_on_c, 0, 74, 64
2, 23244, Note_on_c, 0, 53, 43
2, 23266, Note_on_c, 0, 75, 0
2, 23480, Note_on_c, 0, 53, 0
2, 23506, Note_on_c, 0, 73, 63
2, 23509, Note_on_c, 0, 74, 0
2, 23510, Note_on_c, 0, 54, 52
2, 23642, Note_on_c, 0, 75, 63
2, 23665, Note_on_c, 0, 73, 0
2, 23711, Note_on_c, 0, 59, 0
2, 23758, Note_on_c, 0, 58, 46
2, 23767, Note_on_c, 0, 75, 0
2, 23776, Note_on_c, 0, 76, 66
2, 24028, Note_on_c, 0, 54, 0
2, 24038, Note_on_c, 0, 70, 63
2, 24053, Note_on_c, 0, 64, 45
2, 24054, Note_on_c, 0, 76, 0
2, 24074, Control_c, 0, 64, 22
2, 24094, Control_c, 0, 64, 46
2, 24113, Control_c, 0, 64, 54
2, 24133, Control_c, 0, 64, 57
2, 24145, Note_on_c, 0, 64, 0
2, 24151, Control_c, 0, 64, 58
2, 24171, Control_c, 0, 64, 60
2, 24190, Control_c, 0, 64, 62
2, 24209, Control_c, 0, 64, 63
2, 24228, Control_c, 0, 64, 64
2, 24248, Control_c, 0, 64, 65
2, 24267, Control_c, 0, 64, 65
2, 24286, Control_c, 0, 64, 66
2, 24303, Note_on_c, 0, 47, 43
2, 24305, Control_c, 0, 64, 66
2, 24329, Note_on_c, 0, 70, 0
2, 24332, Note_on_c, 0, 58, 0
2, 24343, Control_c, 0, 64, 66
2, 24362, Control_c, 0, 64, 65
2, 24379, Note_on_c, 0, 71, 57
2, 24382, Control_c, 0, 64, 64
2, 24392, Note_on_c, 0, 63, 47
2, 24401, Control_c, 0, 64, 61
2, 24420, Control_c, 0, 64, 56
2, 24439, Control_c, 0, 64, 42
2, 24459, Control_c, 0, 64, 0
2, 24656, Note_on_c, 0, 51, 50
2, 24692, Note_on_c, 0, 47, 0
2, 24918, Note_on_c, 0, 54, 62
2, 24939, Note_on_c, 0, 51, 0
2, 25168, Note_on_c, 0, 54, 0
2, 25175, Note_on_c, 0, 59, 66
2, 25424, Note_on_c, 0, 57, 59
2, 25453, Note_on_c, 0, 59, 0
2, 25466, Note_on_c, 0, 63, 0
2, 25686, Note_on_c, 0, 59, 68
2, 25693, Note_on_c, 0, 57, 0
2, 25960, Note_on_c, 0, 56, 63
2, 26053, Note_on_c, 0, 59, 0
2, 26232, Note_on_c, 0, 75, 72
2, 26258, Note_on_c, 0, 71, 0
2, 26501, Note_on_c, 0, 78, 78
2, 26553, Note_on_c, 0, 75, 0
2, 26757, Note_on_c, 0, 83, 75
2, 26796, Note_on_c, 0, 78, 0
2, 27025, Note_on_c, 0, 54, 48
2, 27030, Note_on_c, 0, 81, 73
2, 27036, Note_on_c, 0, 56, 0
2, 27061, Note_on_c, 0, 83, 0
2, 27292, Note_on_c, 0, 54, 0
2, 27300, Note_on_c, 0, 83, 69
2, 27307, Note_on_c, 0, 56, 47
2, 27335, Note_on_c, 0, 81, 0
2, 27607, Note_on_c, 0, 53, 36
2, 27618, Note_on_c, 0, 73, 52
2, 27628, Note_on_c, 0, 83, 0
2, 27633, Note_on_c, 0, 56, 0
2, 27882, Note_on_c, 0, 56, 36
2, 27884, Note_on_c, 0, 77, 60
2, 27902, Note_on_c, 0, 73, 0
2, 28124, Note_on_c, 0, 59, 45
2, 28135, Note_on_c, 0, 80, 68
2, 28156, Note_on_c, 0, 56, 0
2, 28168, Note_on_c, 0, 77, 0
2, 28406, Note_on_c, 0, 62, 42
2, 28411, Note_on_c, 0, 59, 0
2, 28411, Note_on_c, 0, 83, 68
2, 28442, Note_on_c, 0, 80, 0
2, 28647, Note_on_c, 0, 62, 0
2, 28669, Note_on_c, 0, 59, 55
2, 28905, Note_on_c, 0, 59, 0
2, 28938, Note_on_c, 0, 61, 48
2, 29202, Note_on_c, 0, 53, 0
2, 29208, Note_on_c, 0, 54, 39
2, 29477, Note_on_c, 0, 80, 57
2, 29517, Note_on_c, 0, 83, 0
2, 29656, Note_on_c, 0, 80, 0
2, 29754, Note_on_c, 0, 81, 67
2, 29999, Note_on_c, 0, 61, 0
2, 30024, Note_on_c, 0, 59, 46
2, 30039, Note_on_c, 0, 50, 36
2, 30056, Note_on_c, 0, 54, 0
2, 30279, Note_on_c, 0, 78, 65
2, 30309, Note_on_c, 0, 81, 0
2, 30462, Note_on_c, 0, 78, 0
2, 30562, Note_on_c, 0, 80, 67
2, 30839, Note_on_c, 0, 60, 38
2, 30840, Note_on_c, 0, 51, 40
2, 30863, Note_on_c, 0, 59, 0
2, 30963, Note_on_c, 0, 50, 0
2, 31097, Note_on_c, 0, 77, 61
2, 31118, Note_on_c, 0, 80, 0
2, 31261, Note_on_c, 0, 77, 0
2, 31354, Note_on_c, 0, 78, 63
2, 31382, Note_on_c, 0, 60, 0
2, 31622, Note_on_c, 0, 78, 0
2, 31626, Note_on_c, 0, 77, 58
2, 31637, Note_on_c, 0, 51, 0
2, 31638, Note_on_c, 0, 61, 41
2, 31646, Note_on_c, 0, 49, 39
2, 31754, Note_on_c, 0, 78, 67
2, 31787, Note_on_c, 0, 77, 0
2, 31853, Note_on_c, 0, 78, 0
2, 31856, Note_on_c, 0, 80, 72
2, 32046, Control_c, 0, 64, 36
2, 32066, Control_c, 0, 64, 56
2, 32085, Control_c, 0, 64, 62
2, 32104, Control_c, 0, 64, 64
2, 32121, Note_on_c, 0, 73, 65
2, 32123, Control_c, 0, 64, 67
2, 32123, Note_on_c, 0, 61, 0
2, 32143, Control_c, 0, 64, 71
2, 32161, Control_c, 0, 64, 80
2, 32163, Note_on_c, 0, 80, 0
2, 32181, Control_c, 0, 64, 91
2, 32200, Control_c, 0, 64, 104
2, 32220, Control_c, 0, 64, 127
2, 32244, Note_on_c, 0, 49, 0
2, 32258, Note_on_c, 0, 73, 0
2, 32403, Note_on_c, 0, 47, 40
2, 32427, Note_on_c, 0, 74, 69
2, 32431, Control_c, 0, 64, 116
2, 32449, Control_c, 0, 64, 93
2, 32469, Control_c, 0, 64, 77
2, 32488, Control_c, 0, 64, 65
2, 32507, Control_c, 0, 64, 50
2, 32525, Control_c, 0, 64, 0
2, 32689, Note_on_c, 0, 50, 52
2, 32693, Note_on_c, 0, 71, 64
2, 32933, Note_on_c, 0, 50, 0
2, 32949, Note_on_c, 0, 53, 55
2, 32955, Note_on_c, 0, 68, 68
2, 32988, Note_on_c, 0, 71, 0
2, 33192, Note_on_c, 0, 53, 0
2, 33211, Note_on_c, 0, 65, 62
2, 33212, Note_on_c, 0, 56, 61
2, 33219, Note_on_c, 0, 68, 0
2, 33462, Note_on_c, 0, 56, 0
2, 33469, Note_on_c, 0, 65, 0
2, 33469, Note_on_c, 0, 68, 70
2, 33480, Note_on_c, 0, 59, 57
2, 33706, Note_on_c, 0, 59, 0
2, 33720, Note_on_c, 0, 57, 55
2, 33720, Note_on_c, 0, 68, 0
2, 33727, Note_on_c, 0, 66, 64
2, 33974, Note_on_c, 0, 68, 69
2, 33977, Note_on_c, 0, 59, 59
2, 33983, Note_on_c, 0, 66, 0
2, 33991, Note_on_c, 0, 57, 0
2, 34226, Note_on_c, 0, 68, 0
2, 34227, Note_on_c, 0, 71, 70
2, 34232, Note_on_c, 0, 59, 0
2, 34240, Note_on_c, 0, 56, 53
2, 34305, Note_on_c, 0, 47, 0
2, 34483, Note_on_c, 0, 71, 0
2, 34493, Note_on_c, 0, 56, 0
2, 34493, Note_on_c, 0, 69, 68
2, 34501, Note_on_c, 0, 54, 48
2, 34725, Note_on_c, 0, 69, 0
2, 34749, Note_on_c, 0, 56, 59
2, 34754, Note_on_c, 0, 71, 74
2, 34755, Note_on_c, 0, 54, 0
2, 34831, Note_on_c, 0, 74, 0
2, 34851, Note_on_c, 0, 56, 0
2, 34875, Note_on_c, 0, 57, 65
2, 34979, Note_on_c, 0, 57, 0
2, 35000, Note_on_c, 0, 74, 75
2, 35010, Note_on_c, 0, 59, 61
2, 35255, Note_on_c, 0, 59, 0
2, 35266, Note_on_c, 0, 53, 56
2, 35266, Note_on_c, 0, 73, 74
2, 35270, Control_c, 0, 64, 46
2, 35289, Control_c, 0, 64, 60
2, 35309, Control_c, 0, 64, 65
2, 35323, Note_on_c, 0, 74, 0
2, 35327, Control_c, 0, 64, 69
2, 35347, Control_c, 0, 64, 75
2, 35366, Control_c, 0, 64, 86
2, 35386, Control_c, 0, 64, 106
2, 35403, Control_c, 0, 64, 127
2, 35424, Note_on_c, 0, 73, 0
2, 35433, Note_on_c, 0, 53, 0
2, 35605, Note_on_c, 0, 54, 59
2, 35617, Note_on_c, 0, 73, 70
2, 35680, Note_on_c, 0, 71, 0
2, 35691, Control_c, 0, 64, 91
2, 35711, Control_c, 0, 64, 74
2, 35730, Control_c, 0, 64, 61
2, 35749, Control_c, 0, 64, 32
2, 35768, Control_c, 0, 64, 0
2, 35901, Note_on_c, 0, 69, 69
2, 36153, Note_on_c, 0, 68, 69
2, 36172, Note_on_c, 0, 69, 0
2, 36436, Note_on_c, 0, 66, 63
2, 36442, Note_on_c, 0, 45, 55
2, 36450, Note_on_c, 0, 68, 0
2, 36600, Note_on_c, 0, 54, 0
2, 36707, Note_on_c, 0, 71, 67
2, 36735, Note_on_c, 0, 73, 0
2, 36969, Note_on_c, 0, 69, 65
2, 36998, Note_on_c, 0, 71, 0
2, 37223, Note_on_c, 0, 69, 0
2, 37225, Note_on_c, 0, 47, 56
2, 37231, Note_on_c, 0, 68, 65
2, 37322, Note_on_c, 0, 45, 0
2, 37477, Note_on_c, 0, 69, 68
2, 37509, Note_on_c, 0, 68, 0
2, 37719, Note_on_c, 0, 69, 0
2, 37744, Note_on_c, 0, 71, 57
2, 37965, Note_on_c, 0, 66, 0
2, 37994, Note_on_c, 0, 49, 48
2, 38015, Note_on_c, 0, 65, 41
2, 38184, Note_on_c, 0, 47, 0
2, 38263, Note_on_c, 0, 69, 53
2, 38287, Note_on_c, 0, 71, 0
2, 38536, Note_on_c, 0, 68, 50
2, 38536, Note_on_c, 0, 69, 0
2, 38844, Note_on_c, 0, 68, 0
2, 38851, Note_on_c, 0, 42, 38
2, 38866, Note_on_c, 0, 69, 44
2, 38874, Note_on_c, 0, 66, 42
2, 38920, Note_on_c, 0, 65, 0
2, 39127, Note_on_c, 0, 49, 0
2, 39149, Note_on_c, 0, 45, 47
2, 39174, Note_on_c, 0, 42, 0
2, 39409, Note_on_c, 0, 49, 57
2, 39420, Note_on_c, 0, 45, 0
2, 39677, Note_on_c, 0, 49, 0
2, 39688, Note_on_c, 0, 54, 54
2, 39933, Note_on_c, 0, 52, 41
2, 39933, Note_on_c, 0, 71, 62
2, 39935, Note_on_c, 0, 69, 0
2, 39952, Note_on_c, 0, 54, 0
2, 40011, Note_on_c, 0, 66, 0
2, 40190, Note_on_c, 0, 68, 66
2, 40197, Note_on_c, 0, 54, 40
2, 40207, Note_on_c, 0, 71, 0
2, 40209, Note_on_c, 0, 64, 47
2, 40238, Note_on_c, 0, 52, 0
2, 40256, Note_on_c, 0, 64, 0
2, 40465, Note_on_c, 0, 47, 38
2, 40484, Note_on_c, 0, 69, 65
2, 40489, Note_on_c, 0, 63, 48
2, 40505, Note_on_c, 0, 68, 0
2, 40530, Note_on_c, 0, 54, 0
2, 40736, Note_on_c, 0, 51, 49
2, 40771, Note_on_c, 0, 47, 0
2, 41007, Note_on_c, 0, 54, 56
2, 41014, Note_on_c, 0, 51, 0
2, 41124, Note_on_c, 0, 63, 0
2, 41264, Note_on_c, 0, 54, 0
2, 41283, Note_on_c, 0, 59, 60
2, 41513, Note_on_c, 0, 69, 0
2, 41514, Note_on_c, 0, 71, 56
2, 41526, Note_on_c, 0, 57, 50
2, 41540, Note_on_c, 0, 59, 0
2, 41660, Note_on_c, 0, 69, 63
2, 41712, Note_on_c, 0, 71, 0
2, 41790, Note_on_c, 0, 57, 0
2, 41790, Note_on_c, 0, 68, 64
2, 41794, Note_on_c, 0, 59, 58
2, 41822, Note_on_c, 0, 69, 0
2, 41916, Note_on_c, 0, 66, 63
2, 41916, Note_on_c, 0, 68, 0
2, 42045, Note_on_c, 0, 52, 48
2, 42046, Note_on_c, 0, 66, 0
2, 42058, Note_on_c, 0, 68, 64
2, 42085, Note_on_c, 0, 59, 0
2, 42154, Note_on_c, 0, 68, 0
2, 42184, Note_on_c, 0, 66, 64
2, 42282, Note_on_c, 0, 66, 0
2, 42284, Note_on_c, 0, 52, 0
2, 42298, Note_on_c, 0, 64, 65
2, 42307, Note_on_c, 0, 56, 56
2, 42390, Note_on_c, 0, 64, 0
2, 42414, Note_on_c, 0, 66, 68
2, 42529, Note_on_c, 0, 68, 69
2, 42537, Note_on_c, 0, 56, 0
2, 42552, Note_on_c, 0, 59, 61
2, 42555, Note_on_c, 0, 66, 0
2, 42648, Note_on_c, 0, 68, 0
2, 42656, Note_on_c, 0, 69, 72
2, 42760, Note_on_c, 0, 59, 0
2, 42768, Note_on_c, 0, 69, 0
2, 42779, Note_on_c, 0, 71, 73
2, 42788, Note_on_c, 0, 64, 66
2, 42900, Note_on_c, 0, 71, 0
2, 42905, Note_on_c, 0, 69, 74
2, 43032, Note_on_c, 0, 62, 71
2, 43033, Note_on_c, 0, 68, 74
2, 43036, Note_on_c, 0, 69, 0
2, 43048, Note_on_c, 0, 64, 0
2, 43134, Note_on_c, 0, 68, 0
2, 43157, Note_on_c, 0, 69, 79
2, 43260, Note_on_c, 0, 69, 0
2, 43279, Note_on_c, 0, 62, 0
2, 43284, Note_on_c, 0, 61, 69
2, 43287, Note_on_c, 0, 71, 77
2, 43407, Note_on_c, 0, 73, 76
2, 43423, Note_on_c, 0, 71, 0
2, 43548, Note_on_c, 0, 59, 74
2, 43550, Note_on_c, 0, 61, 0
2, 43552, Note_on_c, 0, 73, 0
2, 43554, Note_on_c, 0, 74, 71
2, 43692, Note_on_c, 0, 73, 71
2, 43731, Note_on_c, 0, 74, 0
2, 43820, Note_on_c, 0, 71, 73
2, 43841, Note_on_c, 0, 73, 0
2, 43919, Note_on_c, 0, 71, 0
2, 43948, Note_on_c, 0, 69, 69
2, 44062, Note_on_c, 0, 59, 0
2, 44071, Note_on_c, 0, 68, 71
2, 44071, Note_on_c, 0, 69, 0
2, 44082, Note_on_c, 0, 57, 57
2, 44177, Note_on_c, 0, 68, 0
2, 44194, Note_on_c, 0, 66, 67
2, 44300, Note_on_c, 0, 57, 0
2, 44326, Note_on_c, 0, 56, 58
2, 44353, Note_on_c, 0, 66, 0
2, 44355, Note_on_c, 0, 64, 64
2, 44450, Note_on_c, 0, 56, 0
2, 44489, Note_on_c, 0, 62, 58
2, 44591, Note_on_c, 0, 62, 0
2, 44609, Note_on_c, 0, 61, 63
2, 44700, Note_on_c, 0, 61, 0
2, 44706, Note_on_c, 0, 64, 0
2, 44738, Note_on_c, 0, 59, 64
2, 44858, Note_on_c, 0, 59, 0
2, 44875, Note_on_c, 0, 57, 58
2, 44992, Note_on_c, 0, 57, 0
2, 45008, Note_on_c, 0, 56, 50
2, 45179, Note_on_c, 0, 56, 0
2, 45185, Note_on_c, 0, 69, 51
2, 45193, Note_on_c, 0, 57, 44
2, 45450, Note_on_c, 0, 69, 0
2, 45452, Note_on_c, 0, 73, 63
2, 45701, Note_on_c, 0, 76, 65
2, 45729, Note_on_c, 0, 73, 0
2, 45958, Note_on_c, 0, 61, 40
2, 45961, Note_on_c, 0, 81, 67
2, 45963, Note_on_c, 0, 76, 0
2, 46189, Note_on_c, 0, 81, 0
2, 46198, Note_on_c, 0, 80, 71
2, 46437, Note_on_c, 0, 80, 0
2, 46437, Note_on_c, 0, 81, 68
2, 46600, Note_on_c, 0, 62, 45
2, 46615, Note_on_c, 0, 61, 0
2, 46676, Note_on_c, 0, 80, 59
2, 46676, Note_on_c, 0, 81, 0
2, 46726, Note_on_c, 0, 80, 0
2, 46746, Note_on_c, 0, 78, 66
2, 46796, Note_on_c, 0, 78, 0
2, 46822, Note_on_c, 0, 80, 66
2, 46871, Note_on_c, 0, 80, 0
2, 46879, Note_on_c, 0, 78, 75
2, 46944, Note_on_c, 0, 78, 0
2, 46958, Note_on_c, 0, 76, 71
2, 47188, Note_on_c, 0, 78, 74
2, 47191, Note_on_c, 0, 76, 0
2, 47466, Note_on_c, 0, 81, 65
2, 47503, Note_on_c, 0, 78, 0
2, 47714, Note_on_c, 0, 61, 40
2, 47773, Note_on_c, 0, 62, 0
2, 47962, Note_on_c, 0, 59, 46
2, 47997, Note_on_c, 0, 61, 0
2, 48188, Note_on_c, 0, 61, 39
2, 48191, Note_on_c, 0, 78, 53
2, 48199, Note_on_c, 0, 81, 0
2, 48238, Note_on_c, 0, 78, 0
2, 48267, Note_on_c, 0, 76, 58
2, 48284, Note_on_c, 0, 59, 0
2, 48315, Note_on_c, 0, 76, 0
2, 48333, Note_on_c, 0, 78, 68
2, 48388, Note_on_c, 0, 78, 0
2, 48404, Note_on_c, 0, 76, 60
2, 48454, Note_on_c, 0, 76, 0
2, 48489, Note_on_c, 0, 74, 60
2, 48708, Note_on_c, 0, 74, 0
2, 48714, Note_on_c, 0, 76, 59
2, 48976, Note_on_c, 0, 81, 60
2, 48979, Note_on_c, 0, 76, 0
2, 49211, Note_on_c, 0, 61, 0
2, 49228, Note_on_c, 0, 62, 40
2, 49468, Note_on_c, 0, 62, 0
2, 49480, Note_on_c, 0, 61, 47
2, 49694, Note_on_c, 0, 61, 0
2, 49739, Note_on_c, 0, 74, 51
2, 49753, Note_on_c, 0, 81, 0
2, 49754, Note_on_c, 0, 59, 42
2, 49980, Note_on_c, 0, 74, 0
2, 49987, Note_on_c, 0, 76, 62
2, 50211, Note_on_c, 0, 57, 0
2, 50230, Note_on_c, 0, 78, 62
2, 50239, Note_on_c, 0, 76, 0
2, 50466, Note_on_c, 0, 78, 0
2, 50469, Note_on_c, 0, 56, 40
2, 50469, Note_on_c, 0, 76, 61
2, 50716, Note_on_c, 0, 78, 66
2, 50750, Note_on_c, 0, 76, 0
2, 50837, Control_c, 0, 64, 42
2, 50857, Control_c, 0, 64, 61
2, 50876, Control_c, 0, 64, 66
2, 50895, Control_c, 0, 64, 70
2, 50908, Note_on_c, 0, 56, 0
2, 50914, Control_c, 0, 64, 78
2, 50934, Control_c, 0, 64, 90
2, 50943, Note_on_c, 0, 59, 0
2, 50953, Control_c, 0, 64, 110
2, 50955, Note_on_c, 0, 78, 0
2, 50967, Note_on_c, 0, 74, 59
2, 50972, Control_c, 0, 64, 127
2, 51222, Control_c, 0, 64, 115
2, 51226, Note_on_c, 0, 45, 45
2, 51226, Note_on_c, 0, 74, 0
2, 51238, Note_on_c, 0, 73, 60
2, 51240, Control_c, 0, 64, 101
2, 51260, Control_c, 0, 64, 93
2, 51279, Control_c, 0, 64, 85
2, 51298, Control_c, 0, 64, 78
2, 51317, Control_c, 0, 64, 70
2, 51337, Control_c, 0, 64, 64
2, 51356, Control_c, 0, 64, 56
2, 51375, Control_c, 0, 64, 44
2, 51394, Control_c, 0, 64, 21
2, 51414, Control_c, 0, 64, 0
2, 51489, Note_on_c, 0, 49, 53
2, 51490, Note_on_c, 0, 69, 67
2, 51504, Note_on_c, 0, 73, 0
2, 51521, Note_on_c, 0, 45, 0
2, 51732, Note_on_c, 0, 69, 0
2, 51734, Note_on_c, 0, 52, 57
2, 51736, Note_on_c, 0, 71, 68
2, 51794, Note_on_c, 0, 49, 0
2, 51979, Note_on_c, 0, 73, 70
2, 51997, Note_on_c, 0, 52, 0
2, 52003, Note_on_c, 0, 57, 58
2, 52046, Note_on_c, 0, 71, 0
2, 52243, Note_on_c, 0, 56, 63
2, 52264, Note_on_c, 0, 57, 0
2, 52493, Note_on_c, 0, 57, 60
2, 52506, Note_on_c, 0, 56, 0
2, 52795, Note_on_c, 0, 51, 56
2, 52949, Note_on_c, 0, 57, 0
2, 53055, Note_on_c, 0, 71, 62
2, 53090, Note_on_c, 0, 73, 0
2, 53311, Note_on_c, 0, 69, 66
2, 53317, Note_on_c, 0, 54, 58
2, 53318, Note_on_c, 0, 71, 0
2, 53456, Note_on_c, 0, 54, 0
2, 53574, Note_on_c, 0, 68, 68
2, 53581, Note_on_c, 0, 59, 59
2, 53583, Note_on_c, 0, 69, 0
2, 53834, Note_on_c, 0, 69, 68
2, 53836, Control_c, 0, 64, 17
2, 53848, Note_on_c, 0, 68, 0
2, 53854, Control_c, 0, 64, 53
2, 53874, Control_c, 0, 64, 63
2, 53893, Control_c, 0, 64, 67
2, 53912, Control_c, 0, 64, 72
2, 53931, Control_c, 0, 64, 80
2, 53951, Control_c, 0, 64, 94
2, 53966, Note_on_c, 0, 59, 0
2, 53970, Control_c, 0, 64, 127
2, 54023, Note_on_c, 0, 51, 0
2, 54078, Note_on_c, 0, 66, 71
2, 54102, Note_on_c, 0, 69, 0
2, 54361, Note_on_c, 0, 68, 69
2, 54384, Note_on_c, 0, 40, 62
2, 54404, Note_on_c, 0, 66, 0
2, 54431, Control_c, 0, 64, 111
2, 54450, Control_c, 0, 64, 82
2, 54469, Control_c, 0, 64, 66
2, 54488, Control_c, 0, 64, 44
2, 54508, Control_c, 0, 64, 0
2, 54635, Note_on_c, 0, 44, 60
2, 54648, Note_on_c, 0, 64, 66
2, 54681, Note_on_c, 0, 68, 0
2, 54687, Note_on_c, 0, 40, 0
2, 54886, Note_on_c, 0, 47, 67
2, 54895, Note_on_c, 0, 66, 69
2, 54916, Note_on_c, 0, 44, 0
2, 54919, Note_on_c, 0, 64, 0
2, 55145, Note_on_c, 0, 68, 76
2, 55160, Note_on_c, 0, 47, 0
2, 55160, Note_on_c, 0, 52, 66
2, 55264, Note_on_c, 0, 66, 0
2, 55397, Note_on_c, 0, 51, 65
2, 55415, Note_on_c, 0, 52, 0
2, 55659, Note_on_c, 0, 52, 64
2, 55695, Note_on_c, 0, 51, 0
2, 55966, Note_on_c, 0, 45, 57
2, 56116, Note_on_c, 0, 52, 0
2, 56243, Note_on_c, 0, 69, 68
2, 56270, Note_on_c, 0, 68, 0
2, 56488, Note_on_c, 0, 52, 63
2, 56497, Note_on_c, 0, 71, 68
2, 56513, Note_on_c, 0, 69, 0
2, 56630, Note_on_c, 0, 52, 0
2, 56775, Note_on_c, 0, 57, 72
2, 56775, Note_on_c, 0, 73, 70
2, 56783, Note_on_c, 0, 71, 0
2, 57047, Note_on_c, 0, 66, 69
2, 57117, Note_on_c, 0, 73, 0
2, 57299, Note_on_c, 0, 69, 70
2, 57335, Note_on_c, 0, 66, 0
2, 57528, Note_on_c, 0, 45, 0
2, 57543, Note_on_c, 0, 47, 53
2, 57548, Note_on_c, 0, 59, 64
2, 57628, Note_on_c, 0, 69, 0
2, 57829, Note_on_c, 0, 63, 66
2, 57863, Note_on_c, 0, 59, 0
2, 58091, Note_on_c, 0, 66, 68
2, 58146, Note_on_c, 0, 63, 0
2, 58338, Note_on_c, 0, 71, 71
2, 58339, Note_on_c, 0, 56, 55
2, 58367, Note_on_c, 0, 66, 0
2, 58508, Note_on_c, 0, 57, 0
2, 58596, Note_on_c, 0, 69, 75
2, 58623, Note_on_c, 0, 71, 0
2, 58858, Note_on_c, 0, 71, 73
2, 58890, Note_on_c, 0, 69, 0
2, 59108, Note_on_c, 0, 61, 64
2, 59146, Note_on_c, 0, 71, 0
2, 59365, Note_on_c, 0, 64, 70
2, 59393, Note_on_c, 0, 61, 0
2, 59622, Note_on_c, 0, 68, 72
2, 59654, Note_on_c, 0, 64, 0
2, 59878, Note_on_c, 0, 69, 64
2, 59923, Note_on_c, 0, 68, 0
2, 60150, Note_on_c, 0, 56, 0
2, 60151, Note_on_c, 0, 54, 52
2, 60412, Note_on_c, 0, 54, 0
2, 60423, Note_on_c, 0, 52, 47
2, 60695, Note_on_c, 0, 51, 34
2, 60705, Note_on_c, 0, 59, 44
2, 60710, Note_on_c, 0, 69, 0
2, 60763, Note_on_c, 0, 52, 0
2, 60968, Note_on_c, 0, 63, 53
2, 60973, Note_on_c, 0, 59, 0
2, 61227, Note_on_c, 0, 66, 56
2, 61286, Note_on_c, 0, 63, 0
2, 61498, Note_on_c, 0, 69, 56
2, 61502, Note_on_c, 0, 66, 0
2, 61736, Note_on_c, 0, 47, 0
2, 61739, Note_on_c, 0, 68, 58
2, 61743, Note_on_c, 0, 69, 0
2, 61985, Note_on_c, 0, 42, 51
2, 61991, Note_on_c, 0, 69, 58
2, 62005, Note_on_c, 0, 68, 0
2, 62151, Note_on_c, 0, 42, 0
2, 62270, Note_on_c, 0, 43, 59
2, 62285, Note_on_c, 0, 59, 53
2, 62341, Note_on_c, 0, 69, 0
2, 62550, Note_on_c, 0, 63, 61
2, 62567, Note_on_c, 0, 59, 0
2, 62806, Note_on_c, 0, 66, 60
2, 62852, Note_on_c, 0, 63, 0
2, 63067, Note_on_c, 0, 52, 41
2, 63074, Note_on_c, 0, 67, 55
2, 63076, Note_on_c, 0, 66, 0
2, 63094, Note_on_c, 0, 51, 0
2, 63321, Note_on_c, 0, 45, 49
2, 63361, Note_on_c, 0, 43, 0
2, 63513, Control_c, 0, 64, 54
2, 63532, Control_c, 0, 64, 62
2, 63552, Control_c, 0, 64, 65
2, 63571, Control_c, 0, 64, 69
2, 63586, Note_on_c, 0, 45, 0
2, 63590, Control_c, 0, 64, 77
2, 63592, Note_on_c, 0, 47, 59
2, 63609, Control_c, 0, 64, 92
2, 63629, Control_c, 0, 64, 127
2, 63676, Note_on_c, 0, 47, 0
2, 63857, Note_on_c, 0, 48, 59
2, 63916, Control_c, 0, 64, 103
2, 63935, Control_c, 0, 64, 76
2, 63955, Control_c, 0, 64, 64
2, 63974, Control_c, 0, 64, 44
2, 63993, Control_c, 0, 64, 0
2, 64118, Note_on_c, 0, 69, 60
2, 64128, Note_on_c, 0, 54, 58
2, 64138, Note_on_c, 0, 52, 0
2, 64149, Note_on_c, 0, 67, 0
2, 64371, Note_on_c, 0, 55, 70
2, 64380, Note_on_c, 0, 67, 65
2, 64400, Note_on_c, 0, 69, 0
2, 64403, Note_on_c, 0, 54, 0
2, 64648, Note_on_c, 0, 57, 60
2, 64648, Note_on_c, 0, 66, 67
2, 64664, Note_on_c, 0, 55, 0
2, 64664, Note_on_c, 0, 67, 0
2, 64908, Note_on_c, 0, 67, 67
2, 64922, Note_on_c, 0, 66, 0
2, 65192, Note_on_c, 0, 64, 65
2, 65202, Control_c, 0, 64, 51
2, 65220, Control_c, 0, 64, 62
2, 65223, Note_on_c, 0, 67, 0
2, 65240, Control_c, 0, 64, 65
2, 65259, Control_c, 0, 64, 67
2, 65279, Control_c, 0, 64, 71
2, 65297, Control_c, 0, 64, 77
2, 65317, Control_c, 0, 64, 82
2, 65336, Control_c, 0, 64, 88
2, 65356, Control_c, 0, 64, 92
2, 65367, Note_on_c, 0, 64, 0
2, 65374, Control_c, 0, 64, 94
2, 65394, Control_c, 0, 64, 95
2, 65413, Control_c, 0, 64, 96
2, 65423, Note_on_c, 0, 47, 47
2, 65432, Control_c, 0, 64, 98
2, 65451, Control_c, 0, 64, 100
2, 65471, Control_c, 0, 64, 102
2, 65486, Note_on_c, 0, 48, 0
2, 65490, Control_c, 0, 64, 103
2, 65508, Note_on_c, 0, 64, 60
2, 65528, Control_c, 0, 64, 102
2, 65548, Control_c, 0, 64, 99
2, 65564, Note_on_c, 0, 64, 0
2, 65566, Control_c, 0, 64, 93
2, 65586, Control_c, 0, 64, 83
2, 65593, Note_on_c, 0, 63, 67
2, 65605, Control_c, 0, 64, 74
2, 65625, Control_c, 0, 64, 67
2, 65643, Control_c, 0, 64, 59
2, 65646, Note_on_c, 0, 63, 0
2, 65663, Control_c, 0, 64, 43
2, 65676, Note_on_c, 0, 64, 68
2, 65682, Control_c, 0, 64, 0
2, 65746, Note_on_c, 0, 63, 73
2, 65746, Note_on_c, 0, 64, 0
2, 65836, Note_on_c, 0, 61, 79
2, 65837, Note_on_c, 0, 63, 0
2, 66076, Note_on_c, 0, 59, 80
2, 66103, Note_on_c, 0, 61, 0
2, 66392, Note_on_c, 0, 72, 76
2, 66432, Note_on_c, 0, 59, 0
2, 66693, Note_on_c, 0, 49, 48
2, 66696, Note_on_c, 0, 71, 78
2, 66706, Note_on_c, 0, 56, 50
2, 66745, Note_on_c, 0, 57, 0
2, 66787, Note_on_c, 0, 72, 0
2, 66797, Note_on_c, 0, 47, 0
2, 66807, Note_on_c, 0, 56, 0
2, 66975, Note_on_c, 0, 70, 80
2, 66985, Note_on_c, 0, 54, 51
2, 66986, Note_on_c, 0, 49, 0
2, 66988, Note_on_c, 0, 51, 39
2, 67011, Note_on_c, 0, 71, 0
2, 67268, Note_on_c, 0, 52, 47
2, 67270, Note_on_c, 0, 69, 71
2, 67323, Note_on_c, 0, 70, 0
2, 67324, Note_on_c, 0, 54, 0
2, 67334, Note_on_c, 0, 51, 0
2, 67538, Note_on_c, 0, 68, 70
2, 67547, Note_on_c, 0, 69, 0
2, 67809, Note_on_c, 0, 46, 57
2, 67815, Note_on_c, 0, 67, 66
2, 67846, Note_on_c, 0, 68, 0
2, 67941, Note_on_c, 0, 46, 0
2, 68065, Note_on_c, 0, 67, 0
2, 68067, Note_on_c, 0, 66, 64
2, 68075, Note_on_c, 0, 47, 51
2, 68197, Note_on_c, 0, 68, 71
2, 68231, Note_on_c, 0, 66, 0
2, 68319, Note_on_c, 0, 51, 39
2, 68328, Note_on_c, 0, 68, 0
2, 68330, Note_on_c, 0, 69, 71
2, 68332, Note_on_c, 0, 52, 0
2, 68614, Note_on_c, 0, 63, 64
2, 68618, Note_on_c, 0, 51, 0
2, 68619, Note_on_c, 0, 69, 0
2, 68635, Note_on_c, 0, 57, 43
2, 68961, Note_on_c, 0, 56, 45
2, 68970, Note_on_c, 0, 47, 0
2, 68986, Note_on_c, 0, 49, 40
2, 68991, Note_on_c, 0, 64, 64
2, 69028, Note_on_c, 0, 57, 0
2, 69042, Note_on_c, 0, 63, 0
2, 69266, Note_on_c, 0, 52, 58
2, 69286, Note_on_c, 0, 56, 0
2, 69528, Note_on_c, 0, 56, 59
2, 69587, Note_on_c, 0, 52, 0
2, 69785, Note_on_c, 0, 57, 57
2, 69822, Note_on_c, 0, 56, 0
2, 70038, Note_on_c, 0, 56, 59
2, 70059, Note_on_c, 0, 57, 0
2, 70305, Note_on_c, 0, 56, 0
2, 70308, Control_c, 0, 64, 43
2, 70316, Note_on_c, 0, 57, 50
2, 70327, Control_c, 0, 64, 57
2, 70347, Control_c, 0, 64, 62
2, 70366, Control_c, 0, 64, 64
2, 70385, Control_c, 0, 64, 66
2, 70404, Control_c, 0, 64, 69
2, 70424, Control_c, 0, 64, 75
2, 70442, Control_c, 0, 64, 84
2, 70461, Control_c, 0, 64, 98
2, 70481, Control_c, 0, 64, 127
2, 70506, Note_on_c, 0, 49, 0
2, 70576, Note_on_c, 0, 52, 51
2, 70577, Note_on_c, 0, 57, 0
2, 70591, Note_on_c, 0, 44, 51
2, 70674, Control_c, 0, 64, 96
2, 70693, Control_c, 0, 64, 81
2, 70712, Control_c, 0, 64, 69
2, 70731, Control_c, 0, 64, 60
2, 70751, Control_c, 0, 64, 41
2, 70770, Control_c, 0, 64, 11
2, 70789, Control_c, 0, 64, 0
2, 70851, Note_on_c, 0, 56, 57
2, 71131, Note_on_c, 0, 56, 0
2, 71131, Note_on_c, 0, 59, 60
2, 71418, Note_on_c, 0, 59, 0
2, 71421, Note_on_c, 0, 62, 49
2, 71661, Note_on_c, 0, 61, 53
2, 71686, Note_on_c, 0, 62, 0
2, 71901, Control_c, 0, 64, 21
2, 71921, Control_c, 0, 64, 52
2, 71934, Note_on_c, 0, 62, 49
2, 71939, Note_on_c, 0, 61, 0
2, 71940, Control_c, 0, 64, 61
2, 71959, Control_c, 0, 64, 64
2, 71978, Control_c, 0, 64, 66
2, 71998, Control_c, 0, 64, 69
2, 72016, Control_c, 0, 64, 74
2, 72028, Note_on_c, 0, 44, 0
2, 72036, Control_c, 0, 64, 83
2, 72055, Control_c, 0, 64, 98
2, 72075, Control_c, 0, 64, 127
2, 72131, Note_on_c, 0, 62, 0
2, 72175, Note_on_c, 0, 45, 43
2, 72232, Note_on_c, 0, 62, 45
2, 72314, Note_on_c, 0, 62, 0
2, 72324, Control_c, 0, 64, 103
2, 72344, Control_c, 0, 64, 87
2, 72356, Note_on_c, 0, 61, 52
2, 72362, Control_c, 0, 64, 75
2, 72381, Control_c, 0, 64, 67
2, 72401, Control_c, 0, 64, 60
2, 72419, Note_on_c, 0, 61, 0
2, 72420, Control_c, 0, 64, 49
2, 72440, Control_c, 0, 64, 39
2, 72452, Note_on_c, 0, 62, 59
2, 72459, Control_c, 0, 64, 25
2, 72479, Control_c, 0, 64, 0
2, 72488, Note_on_c, 0, 52, 0
2, 72505, Note_on_c, 0, 62, 0
2, 72510, Note_on_c, 0, 49, 46
2, 72538, Note_on_c, 0, 61, 64
2, 72600, Note_on_c, 0, 61, 0
2, 72636, Note_on_c, 0, 62, 62
2, 72685, Note_on_c, 0, 62, 0
2, 72719, Note_on_c, 0, 61, 64
2, 72767, Note_on_c, 0, 61, 0
2, 72779, Note_on_c, 0, 52, 44
2, 72784, Note_on_c, 0, 49, 0
2, 72797, Note_on_c, 0, 62, 59
2, 72856, Note_on_c, 0, 62, 0
2, 72892, Note_on_c, 0, 61, 60
2, 73107, Note_on_c, 0, 52, 0
2, 73117, Note_on_c, 0, 57, 50
2, 73509, Note_on_c, 0, 56, 55
2, 73617, Note_on_c, 0, 57, 0
2, 73989, Note_on_c, 0, 63, 50
2, 74008, Note_on_c, 0, 60, 43
2, 74010, Note_on_c, 0, 57, 34
2, 74018, Note_on_c, 0, 61, 0
2, 74030, Note_on_c, 0, 64, 0
2, 74037, Note_on_c, 0, 56, 0
2, 74164, Control_c, 0, 64, 28
2, 74183, Control_c, 0, 64, 52
2, 74202, Control_c, 0, 64, 62
2, 74221, Control_c, 0, 64, 65
2, 74241, Control_c, 0, 64, 70
2, 74260, Control_c, 0, 64, 79
2, 74279, Control_c, 0, 64, 94
2, 74297, Note_on_c, 0, 45, 0
2, 74298, Control_c, 0, 64, 127
2, 74823, Note_on_c, 0, 40, 42
2, 74832, Note_on_c, 0, 64, 56
2, 74836, Control_c, 0, 64, 93
2, 74855, Control_c, 0, 64, 75
2, 74872, Control_c, 0, 64, 63
2, 74890, Control_c, 0, 64, 43
2, 74896, Note_on_c, 0, 60, 0
2, 74902, Note_on_c, 0, 63, 0
2, 74910, Control_c, 0, 64, 0
2, 74941, Note_on_c, 0, 57, 0
2, 75490, Note_on_c, 0, 59, 44
2, 75918, Note_on_c, 0, 56, 48
2, 75939, Note_on_c, 0, 59, 0
2, 76379, Note_on_c, 0, 59, 46
2, 76575, Note_on_c, 0, 64, 0
2, 76898, Note_on_c, 0, 64, 40
2, 76960, Note_on_c, 0, 64, 0
2, 77002, Note_on_c, 0, 63, 49
2, 77092, Note_on_c, 0, 63, 0
2, 77109, Note_on_c, 0, 64, 50
2, 81148, Note_on_c, 0, 56, 0
2, 81212, Note_on_c, 0, 59, 0
2, 81216, Note_on_c, 0, 64, 0
2, 81239, Note_on_c, 0, 40, 0
2, 83304, Note_on_c, 0, 64, 72
2, 83335, Note_on_c, 0, 64, 0
2, 83600, Note_on_c, 0, 66, 79
2, 84068, Note_on_c, 0, 66, 0
2, 84277, Note_on_c, 0, 59, 78
2, 84411, Note_on_c, 0, 59, 0
2, 84417, Note_on_c, 0, 61, 72
2, 84519, Note_on_c, 0, 61, 0
2, 84537, Note_on_c, 0, 63, 75
2, 84638, Note_on_c, 0, 63, 0
2, 84654, Note_on_c, 0, 64, 76
2, 84758, Note_on_c, 0, 64, 0
2, 84773, Note_on_c, 0, 63, 84
2, 84886, Note_on_c, 0, 63, 0
2, 84909, Note_on_c, 0, 64, 77
2, 85024, Note_on_c, 0, 66, 81
2, 85025, Note_on_c, 0, 64, 0
2, 85149, Note_on_c, 0, 66, 0
2, 85153, Note_on_c, 0, 68, 82
2, 85251, Note_on_c, 0, 68, 0
2, 85272, Note_on_c, 0, 69, 81
2, 85350, Note_on_c, 0, 69, 0
2, 85401, Note_on_c, 0, 71, 89
2, 85457, Note_on_c, 0, 71, 0
2, 85527, Note_on_c, 0, 68, 70
2, 85630, Note_on_c, 0, 68, 0
2, 85670, Note_on_c, 0, 73, 91
2, 85684, Note_on_c, 0, 64, 51
2, 85802, Note_on_c, 0, 64, 0
2, 85808, Note_on_c, 0, 63, 67
2, 85910, Note_on_c, 0, 63, 0
2, 85948, Note_on_c, 0, 64, 62
2, 86010, Note_on_c, 0, 64, 0
2, 86054, Note_on_c, 0, 73, 0
2, 86063, Note_on_c, 0, 66, 71
2, 86138, Note_on_c, 0, 66, 0
2, 86195, Note_on_c, 0, 64, 63
2, 86259, Note_on_c, 0, 64, 0
2, 86303, Note_on_c, 0, 66, 72
2, 86322, Note_on_c, 0, 63, 61
2, 86374, Note_on_c, 0, 63, 0
2, 86381, Note_on_c, 0, 66, 0
2, 86422, Note_on_c, 0, 68, 77
2, 86440, Note_on_c, 0, 64, 64
2, 86501, Note_on_c, 0, 68, 0
2, 86510, Note_on_c, 0, 64, 0
2, 86543, Note_on_c, 0, 70, 81
2, 86561, Note_on_c, 0, 66, 64
2, 86612, Note_on_c, 0, 66, 0
2, 86623, Note_on_c, 0, 70, 0
2, 86674, Note_on_c, 0, 71, 82
2, 86677, Note_on_c, 0, 63, 71
2, 86722, Note_on_c, 0, 63, 0
2, 86754, Note_on_c, 0, 71, 0
2, 86796, Note_on_c, 0, 61, 71
2, 86799, Note_on_c, 0, 70, 81
2, 86847, Note_on_c, 0, 61, 0
2, 86886, Note_on_c, 0, 70, 0
2, 86920, Note_on_c, 0, 63, 74
2, 86927, Note_on_c, 0, 71, 77
2, 86985, Note_on_c, 0, 63, 0
2, 87011, Note_on_c, 0, 71, 0
2, 87048, Note_on_c, 0, 73, 82
2, 87049, Note_on_c, 0, 64, 72
2, 87119, Note_on_c, 0, 64, 0
2, 87167, Note_on_c, 0, 66, 74
2, 87167, Note_on_c, 0, 75, 83
2, 87211, Note_on_c, 0, 73, 0
2, 87230, Note_on_c, 0, 66, 0
2, 87279, Note_on_c, 0, 68, 79
2, 87285, Note_on_c, 0, 76, 79
2, 87314, Note_on_c, 0, 75, 0
2, 87363, Note_on_c, 0, 68, 0
2, 87406, Note_on_c, 0, 76, 0
2, 87408, Note_on_c, 0, 69, 74
2, 87417, Note_on_c, 0, 78, 83
2, 87473, Note_on_c, 0, 69, 0
2, 87529, Note_on_c, 0, 66, 74
2, 87529, Note_on_c, 0, 78, 0
2, 87533, Note_on_c, 0, 75, 83
2, 87564, Note_on_c, 0, 66, 0
2, 87628, Note_on_c, 0, 75, 0
2, 87656, Note_on_c, 0, 68, 77
2, 87663, Note_on_c, 0, 71, 79
2, 87688, Note_on_c, 0, 68, 0
2, 87722, Note_on_c, 0, 71, 0
2, 87782, Note_on_c, 0, 69, 72
2, 87850, Note_on_c, 0, 69, 0
2, 87910, Note_on_c, 0, 59, 72
2, 87915, Note_on_c, 0, 71, 70
2, 87943, Note_on_c, 0, 59, 0
2, 87965, Note_on_c, 0, 71, 0
2, 88033, Note_on_c, 0, 73, 63
2, 88080, Note_on_c, 0, 73, 0
2, 88167, Note_on_c, 0, 64, 75
2, 88181, Note_on_c, 0, 71, 56
2, 88234, Note_on_c, 0, 71, 0
2, 88298, Note_on_c, 0, 69, 62
2, 88355, Note_on_c, 0, 69, 0
2, 88440, Note_on_c, 0, 52, 75
2, 88443, Note_on_c, 0, 71, 58
2, 88478, Note_on_c, 0, 52, 0
2, 88504, Note_on_c, 0, 71, 0
2, 88559, Note_on_c, 0, 73, 58
2, 88617, Note_on_c, 0, 73, 0
2, 88710, Note_on_c, 0, 54, 84
2, 88728, Note_on_c, 0, 69, 56
2, 88784, Note_on_c, 0, 69, 0
2, 88834, Note_on_c, 0, 68, 67
2, 88874, Note_on_c, 0, 64, 0
2, 88921, Note_on_c, 0, 68, 0
2, 88978, Note_on_c, 0, 63, 67
2, 88982, Note_on_c, 0, 69, 75
2, 89015, Note_on_c, 0, 54, 0
2, 89036, Note_on_c, 0, 63, 0
2, 89052, Note_on_c, 0, 69, 0
2, 89111, Note_on_c, 0, 71, 74
2, 89252, Note_on_c, 0, 66, 78
2, 89256, Note_on_c, 0, 69, 76
2, 89263, Note_on_c, 0, 71, 0
2, 89342, Note_on_c, 0, 69, 0
2, 89378, Note_on_c, 0, 47, 66
2, 89381, Note_on_c, 0, 68, 77
2, 89478, Note_on_c, 0, 47, 0
2, 89480, Note_on_c, 0, 68, 0
2, 89499, Note_on_c, 0, 69, 74
2, 89509, Note_on_c, 0, 49, 75
2, 89576, Note_on_c, 0, 66, 0
2, 89599, Note_on_c, 0, 49, 0
2, 89624, Note_on_c, 0, 69, 0
2, 89629, Note_on_c, 0, 71, 73
2, 89636, Note_on_c, 0, 51, 68
2, 89723, Note_on_c, 0, 51, 0
2, 89755, Note_on_c, 0, 52, 72
2, 89755, Note_on_c, 0, 71, 0
2, 89761, Note_on_c, 0, 68, 78
2, 89839, Note_on_c, 0, 68, 0
2, 89844, Note_on_c, 0, 52, 0
2, 89877, Note_on_c, 0, 51, 76
2, 89880, Note_on_c, 0, 66, 76
2, 89951, Note_on_c, 0, 66, 0
2, 89984, Note_on_c, 0, 51, 0
2, 90005, Note_on_c, 0, 52, 73
2, 90008, Note_on_c, 0, 68, 79
2, 90012, Note_on_c, 0, 59, 77
2, 90052, Note_on_c, 0, 59, 0
2, 90080, Note_on_c, 0, 68, 0
2, 90082, Note_on_c, 0, 52, 0
2, 90125, Note_on_c, 0, 70, 83
2, 90132, Note_on_c, 0, 54, 79
2, 90231, Note_on_c, 0, 70, 0
2, 90244, Note_on_c, 0, 54, 0
2, 90258, Note_on_c, 0, 56, 84
2, 90261, Note_on_c, 0, 71, 87
2, 90264, Note_on_c, 0, 64, 83
2, 90299, Note_on_c, 0, 64, 0
2, 90349, Note_on_c, 0, 56, 0
2, 90379, Note_on_c, 0, 57, 76
2, 90482, Note_on_c, 0, 57, 0
2, 90523, Note_on_c, 0, 63, 87
2, 90524, Note_on_c, 0, 59, 72
2, 90564, Note_on_c, 0, 63, 0
2, 90612, Note_on_c, 0, 59, 0
2, 90642, Note_on_c, 0, 56, 64
2, 90751, Note_on_c, 0, 56, 0
2, 90783, Note_on_c, 0, 61, 81
2, 90790, Note_on_c, 0, 52, 56
2, 90913, Note_on_c, 0, 52, 0
2, 90924, Note_on_c, 0, 51, 59
2, 91061, Note_on_c, 0, 52, 58
2, 91066, Note_on_c, 0, 51, 0
2, 91167, Note_on_c, 0, 52, 0
2, 91209, Note_on_c, 0, 54, 46
2, 91311, Note_on_c, 0, 54, 0
2, 91326, Note_on_c, 0, 52, 52
2, 91329, Note_on_c, 0, 70, 75
2, 91362, Note_on_c, 0, 71, 0
2, 91450, Note_on_c, 0, 52, 0
2, 91461, Note_on_c, 0, 51, 49
2, 91572, Note_on_c, 0, 51, 0
2, 91601, Note_on_c, 0, 52, 52
2, 91658, Note_on_c, 0, 52, 0
2, 91661, Note_on_c, 0, 61, 0
2, 91715, Note_on_c, 0, 54, 57
2, 91767, Note_on_c, 0, 70, 0
2, 91771, Note_on_c, 0, 54, 0
2, 91846, Note_on_c, 0, 51, 56
2, 91854, Note_on_c, 0, 59, 63
2, 91854, Note_on_c, 0, 71, 68
2, 91886, Note_on_c, 0, 59, 0
2, 91889, Note_on_c, 0, 71, 0
2, 91908, Note_on_c, 0, 51, 0
2, 91968, Note_on_c, 0, 49, 62
2, 92054, Note_on_c, 0, 49, 0
2, 92104, Note_on_c, 0, 51, 65
2, 92105, Note_on_c, 0, 83, 91
2, 92175, Note_on_c, 0, 51, 0
2, 92177, Note_on_c, 0, 83, 0
2, 92220, Note_on_c, 0, 52, 67
2, 92352, Note_on_c, 0, 52, 0
2, 92369, Note_on_c, 0, 54, 65
2, 92370, Note_on_c, 0, 75, 88
2, 92415, Note_on_c, 0, 75, 0
2, 92476, Note_on_c, 0, 54, 0
2, 92502, Note_on_c, 0, 56, 63
2, 92583, Note_on_c, 0, 56, 0
2, 92624, Note_on_c, 0, 78, 86
2, 92636, Note_on_c, 0, 57, 66
2, 92682, Note_on_c, 0, 78, 0
2, 92699, Note_on_c, 0, 57, 0
2, 92751, Note_on_c, 0, 54, 60
2, 92844, Note_on_c, 0, 54, 0
2, 92892, Note_on_c, 0, 56, 60
2, 92896, Note_on_c, 0, 71, 80
2, 92985, Note_on_c, 0, 56, 0
2, 93017, Note_on_c, 0, 54, 57
2, 93092, Note_on_c, 0, 54, 0
2, 93150, Note_on_c, 0, 56, 61
2, 93159, Note_on_c, 0, 76, 66
2, 93213, Note_on_c, 0, 76, 0
2, 93222, Note_on_c, 0, 56, 0
2, 93266, Note_on_c, 0, 57, 62
2, 93340, Note_on_c, 0, 57, 0
2, 93410, Note_on_c, 0, 68, 72
2, 93420, Note_on_c, 0, 59, 58
2, 93483, Note_on_c, 0, 71, 0
2, 93490, Note_on_c, 0, 68, 0
2, 93500, Note_on_c, 0, 59, 0
2, 93526, Note_on_c, 0, 61, 62
2, 93606, Note_on_c, 0, 61, 0
2, 93678, Note_on_c, 0, 62, 55
2, 93678, Note_on_c, 0, 71, 78
2, 93732, Note_on_c, 0, 62, 0
2, 93814, Note_on_c, 0, 59, 56
2, 93869, Note_on_c, 0, 59, 0
2, 93922, Note_on_c, 0, 64, 80
2, 93941, Note_on_c, 0, 61, 60
2, 93974, Note_on_c, 0, 64, 0
2, 93992, Note_on_c, 0, 61, 0
2, 94070, Note_on_c, 0, 59, 60
2, 94128, Note_on_c, 0, 59, 0
2, 94194, Note_on_c, 0, 66, 82
2, 94197, Note_on_c, 0, 61, 59
2, 94197, Note_on_c, 0, 69, 80
2, 94251, Note_on_c, 0, 71, 0
2, 94269, Note_on_c, 0, 61, 0
2, 94331, Note_on_c, 0, 63, 58
2, 94386, Note_on_c, 0, 63, 0
2, 94407, Note_on_c, 0, 69, 0
2, 94452, Note_on_c, 0, 68, 73
2, 94460, Note_on_c, 0, 64, 60
2, 94486, Note_on_c, 0, 66, 0
2, 94497, Note_on_c, 0, 68, 0
2, 94517, Note_on_c, 0, 64, 0
2, 94576, Note_on_c, 0, 63, 60
2, 94628, Note_on_c, 0, 63, 0
2, 94704, Note_on_c, 0, 61, 66
2, 94711, Note_on_c, 0, 76, 86
2, 94725, Note_on_c, 0, 64, 53
2, 94760, Note_on_c, 0, 61, 0
2, 94766, Note_on_c, 0, 76, 0
2, 94767, Note_on_c, 0, 64, 0
2, 94825, Note_on_c, 0, 59, 72
2, 94904, Note_on_c, 0, 59, 0
2, 94972, Note_on_c, 0, 57, 64
2, 94977, Note_on_c, 0, 78, 93
2, 94993, Note_on_c, 0, 64, 48
2, 95072, Note_on_c, 0, 57, 0
2, 95097, Note_on_c, 0, 56, 63
2, 95180, Note_on_c, 0, 64, 0
2, 95226, Note_on_c, 0, 57, 67
2, 95229, Note_on_c, 0, 56, 0
2, 95322, Note_on_c, 0, 57, 0
2, 95349, Note_on_c, 0, 59, 72
2, 95352, Note_on_c, 0, 78, 0
2, 95483, Note_on_c, 0, 57, 69
2, 95484, Note_on_c, 0, 59, 0
2, 95487, Note_on_c, 0, 63, 68
2, 95540, Note_on_c, 0, 57, 0
2, 95542, Note_on_c, 0, 63, 0
2, 95602, Note_on_c, 0, 56, 75
2, 95605, Note_on_c, 0, 71, 76
2, 95662, Note_on_c, 0, 56, 0
2, 95681, Note_on_c, 0, 71, 0
2, 95725, Note_on_c, 0, 57, 62
2, 95737, Note_on_c, 0, 66, 73
2, 95740, Note_on_c, 0, 73, 76
2, 95780, Note_on_c, 0, 57, 0
2, 95790, Note_on_c, 0, 66, 0
2, 95809, Note_on_c, 0, 73, 0
2, 95848, Note_on_c, 0, 59, 69
2, 95855, Note_on_c, 0, 75, 81
2, 95887, Note_on_c, 0, 59, 0
2, 95949, Note_on_c, 0, 75, 0
2, 95977, Note_on_c, 0, 59, 68
2, 95989, Note_on_c, 0, 56, 69
2, 95990, Note_on_c, 0, 76, 83
2, 96023, Note_on_c, 0, 56, 0
2, 96079, Note_on_c, 0, 76, 0
2, 96114, Note_on_c, 0, 75, 79
2, 96213, Note_on_c, 0, 75, 0
2, 96239, Note_on_c, 0, 54, 73
2, 96242, Note_on_c, 0, 76, 74
2, 96277, Note_on_c, 0, 54, 0
2, 96317, Note_on_c, 0, 76, 0
2, 96357, Note_on_c, 0, 78, 74
2, 96454, Note_on_c, 0, 78, 0
2, 96476, Note_on_c, 0, 59, 0
2, 96489, Note_on_c, 0, 80, 76
2, 96491, Note_on_c, 0, 52, 70
2, 96523, Note_on_c, 0, 52, 0
2, 96569, Note_on_c, 0, 80, 0
2, 96613, Note_on_c, 0, 81, 75
2, 96692, Note_on_c, 0, 81, 0
2, 96744, Note_on_c, 0, 71, 83
2, 96747, Note_on_c, 0, 83, 76
2, 96756, Note_on_c, 0, 51, 76
2, 96779, Note_on_c, 0, 83, 0
2, 96787, Note_on_c, 0, 51, 0
2, 96824, Note_on_c, 0, 71, 0
2, 96865, Note_on_c, 0, 80, 80
2, 96946, Note_on_c, 0, 80, 0
2, 97015, Note_on_c, 0, 73, 86
2, 97017, Note_on_c, 0, 49, 87
2, 97044, Note_on_c, 0, 76, 62
2, 97053, Note_on_c, 0, 49, 0
2, 97093, Note_on_c, 0, 76, 0
2, 97150, Note_on_c, 0, 75, 68
2, 97249, Note_on_c, 0, 75, 0
2, 97267, Note_on_c, 0, 76, 70
2, 97285, Note_on_c, 0, 59, 75
2, 97316, Note_on_c, 0, 59, 0
2, 97331, Note_on_c, 0, 76, 0
2, 97394, Note_on_c, 0, 78, 68
2, 97459, Note_on_c, 0, 73, 0
2, 97496, Note_on_c, 0, 78, 0
2, 97530, Note_on_c, 0, 76, 77
2, 97531, Note_on_c, 0, 58, 69
2, 97567, Note_on_c, 0, 58, 0
2, 97615, Note_on_c, 0, 76, 0
2, 97657, Note_on_c, 0, 75, 75
2, 97659, Note_on_c, 0, 66, 72
2, 97697, Note_on_c, 0, 66, 0
2, 97719, Note_on_c, 0, 75, 0
2, 97784, Note_on_c, 0, 54, 74
2, 97784, Note_on_c, 0, 76, 78
2, 97795, Note_on_c, 0, 68, 69
2, 97816, Note_on_c, 0, 54, 0
2, 97832, Note_on_c, 0, 68, 0
2, 97864, Note_on_c, 0, 76, 0
2, 97907, Note_on_c, 0, 78, 73
2, 97914, Note_on_c, 0, 70, 77
2, 97965, Note_on_c, 0, 70, 0
2, 97990, Note_on_c, 0, 78, 0
2, 98040, Note_on_c, 0, 75, 78
2, 98047, Note_on_c, 0, 71, 71
2, 98051, Note_on_c, 0, 59, 81
2, 98105, Note_on_c, 0, 71, 0
2, 98117, Note_on_c, 0, 75, 0
2, 98177, Note_on_c, 0, 70, 73
2, 98179, Note_on_c, 0, 73, 74
2, 98222, Note_on_c, 0, 59, 0
2, 98249, Note_on_c, 0, 70, 0
2, 98257, Note_on_c, 0, 73, 0
2, 98307, Note_on_c, 0, 75, 80
2, 98321, Note_on_c, 0, 71, 55
2, 98349, Note_on_c, 0, 71, 0
2, 98368, Note_on_c, 0, 75, 0
2, 98431, Note_on_c, 0, 76, 85
2, 98452, Note_on_c, 0, 73, 74
2, 98495, Note_on_c, 0, 73, 0
2, 98497, Note_on_c, 0, 76, 0
2, 98572, Note_on_c, 0, 78, 86
2, 98578, Note_on_c, 0, 75, 63
2, 98624, Note_on_c, 0, 75, 0
2, 98637, Note_on_c, 0, 78, 0
2, 98683, Note_on_c, 0, 76, 67
2, 98692, Note_on_c, 0, 80, 93
2, 98742, Note_on_c, 0, 76, 0
2, 98766, Note_on_c, 0, 80, 0
2, 98821, Note_on_c, 0, 78, 63
2, 98831, Note_on_c, 0, 81, 99
2, 98893, Note_on_c, 0, 78, 0
2, 98969, Note_on_c, 0, 75, 55
2, 99004, Note_on_c, 0, 75, 0
2, 99091, Note_on_c, 0, 71, 69
2, 99131, Note_on_c, 0, 71, 0
2, 99133, Note_on_c, 0, 81, 0
2, 99210, Note_on_c, 0, 69, 69
2, 99298, Note_on_c, 0, 69, 0
2, 99339, Note_on_c, 0, 71, 63
2, 99341, Note_on_c, 0, 75, 93
2, 99394, Note_on_c, 0, 75, 0
2, 99395, Note_on_c, 0, 71, 0
2, 99474, Note_on_c, 0, 73, 58
2, 99536, Note_on_c, 0, 73, 0
2, 99618, Note_on_c, 0, 80, 93
2, 99627, Note_on_c, 0, 71, 53
2, 99719, Note_on_c, 0, 71, 0
2, 99734, Note_on_c, 0, 69, 62
2, 99820, Note_on_c, 0, 69, 0
2, 99867, Note_on_c, 0, 71, 64
2, 99938, Note_on_c, 0, 71, 0
2, 100003, Note_on_c, 0, 73, 58
2, 100054, Note_on_c, 0, 73, 0
2, 100143, Note_on_c, 0, 69, 60
2, 100189, Note_on_c, 0, 69, 0
2, 100268, Note_on_c, 0, 68, 63
2, 100310, Note_on_c, 0, 68, 0
2, 100375, Note_on_c, 0, 78, 70
2, 100388, Note_on_c, 0, 69, 65
2, 100409, Note_on_c, 0, 80, 0
2, 100426, Note_on_c, 0, 69, 0
2, 100450, Note_on_c, 0, 78, 0
2, 100489, Note_on_c, 0, 71, 69
2, 100508, Note_on_c, 0, 76, 69
2, 100534, Note_on_c, 0, 71, 0
2, 100596, Note_on_c, 0, 76, 0
2, 100621, Note_on_c, 0, 69, 66
2, 100633, Note_on_c, 0, 75, 75
2, 100666, Note_on_c, 0, 69, 0
2, 100738, Note_on_c, 0, 68, 61
2, 100765, Note_on_c, 0, 68, 0
2, 100883, Note_on_c, 0, 59, 68
2, 100898, Note_on_c, 0, 69, 60
2, 100917, Note_on_c, 0, 59, 0
2, 100939, Note_on_c, 0, 69, 0
2, 101018, Note_on_c, 0, 71, 50
2, 101083, Note_on_c, 0, 71, 0
2, 101156, Note_on_c, 0, 61, 78
2, 101166, Note_on_c, 0, 68, 65
2, 101167, Note_on_c, 0, 75, 0
2, 101168, Note_on_c, 0, 76, 63
2, 101278, Note_on_c, 0, 76, 0
2, 101306, Note_on_c, 0, 75, 66
2, 101322, Note_on_c, 0, 68, 0
2, 101388, Note_on_c, 0, 75, 0
2, 101426, Note_on_c, 0, 64, 76
2, 101443, Note_on_c, 0, 76, 65
2, 101471, Note_on_c, 0, 64, 0
2, 101515, Note_on_c, 0, 61, 0
2, 101528, Note_on_c, 0, 76, 0
2, 101561, Note_on_c, 0, 78, 74
2, 101652, Note_on_c, 0, 78, 0
2, 101694, Note_on_c, 0, 69, 84
2, 101709, Note_on_c, 0, 76, 66
2, 101771, Note_on_c, 0, 76, 0
2, 101828, Note_on_c, 0, 75, 73
2, 101830, Note_on_c, 0, 54, 66
2, 101893, Note_on_c, 0, 54, 0
2, 101944, Note_on_c, 0, 56, 74
2, 101952, Note_on_c, 0, 76, 71
2, 101968, Note_on_c, 0, 75, 0
2, 102013, Note_on_c, 0, 56, 0
2, 102054, Note_on_c, 0, 76, 0
2, 102070, Note_on_c, 0, 57, 72
2, 102077, Note_on_c, 0, 78, 80
2, 102163, Note_on_c, 0, 57, 0
2, 102201, Note_on_c, 0, 59, 75
2, 102205, Note_on_c, 0, 78, 0
2, 102208, Note_on_c, 0, 75, 86
2, 102296, Note_on_c, 0, 59, 0
2, 102302, Note_on_c, 0, 75, 0
2, 102326, Note_on_c, 0, 57, 71
2, 102328, Note_on_c, 0, 73, 79
2, 102424, Note_on_c, 0, 57, 0
2, 102461, Note_on_c, 0, 75, 81
2, 102468, Note_on_c, 0, 59, 71
2, 102511, Note_on_c, 0, 73, 0
2, 102568, Note_on_c, 0, 59, 0
2, 102575, Note_on_c, 0, 61, 74
2, 102583, Note_on_c, 0, 75, 0
2, 102583, Note_on_c, 0, 76, 79
2, 102633, Note_on_c, 0, 69, 0
2, 102686, Note_on_c, 0, 61, 0
2, 102707, Note_on_c, 0, 63, 70
2, 102718, Note_on_c, 0, 78, 88
2, 102746, Note_on_c, 0, 76, 0
2, 102788, Note_on_c, 0, 63, 0
2, 102830, Note_on_c, 0, 64, 68
2, 102838, Note_on_c, 0, 72, 81
2, 102916, Note_on_c, 0, 64, 0
2, 102966, Note_on_c, 0, 63, 65
2, 102972, Note_on_c, 0, 73, 81
2, 102997, Note_on_c, 0, 72, 0
2, 103037, Note_on_c, 0, 63, 0
2, 103085, Note_on_c, 0, 61, 73
2, 103090, Note_on_c, 0, 75, 85
2, 103138, Note_on_c, 0, 73, 0
2, 103141, Note_on_c, 0, 61, 0
2, 103213, Note_on_c, 0, 75, 0
2, 103222, Note_on_c, 0, 68, 90
2, 103239, Note_on_c, 0, 60, 62
2, 103310, Note_on_c, 0, 60, 0
2, 103353, Note_on_c, 0, 56, 69
2, 103447, Note_on_c, 0, 56, 0
2, 103486, Note_on_c, 0, 58, 64
2, 103488, Note_on_c, 0, 76, 82
2, 103513, Note_on_c, 0, 78, 0
2, 103542, Note_on_c, 0, 58, 0
2, 103604, Note_on_c, 0, 60, 65
2, 103608, Note_on_c, 0, 75, 86
2, 103619, Note_on_c, 0, 76, 0
2, 103694, Note_on_c, 0, 60, 0
2, 103710, Note_on_c, 0, 75, 0
2, 103724, Note_on_c, 0, 61, 65
2, 103741, Note_on_c, 0, 76, 87
2, 103794, Note_on_c, 0, 68, 0
2, 103797, Note_on_c, 0, 61, 0
2, 103858, Note_on_c, 0, 63, 59
2, 103956, Note_on_c, 0, 63, 0
2, 104008, Note_on_c, 0, 73, 80
2, 104012, Note_on_c, 0, 64, 58
2, 104052, Note_on_c, 0, 73, 0
2, 104073, Note_on_c, 0, 64, 0
2, 104129, Note_on_c, 0, 61, 54
2, 104240, Note_on_c, 0, 61, 0
2, 104263, Note_on_c, 0, 57, 58
2, 104285, Note_on_c, 0, 66, 79
2, 104320, Note_on_c, 0, 76, 0
2, 104405, Note_on_c, 0, 56, 58
2, 104405, Note_on_c, 0, 57, 0
2, 104545, Note_on_c, 0, 56, 0
2, 104546, Note_on_c, 0, 57, 62
2, 104560, Note_on_c, 0, 76, 85
2, 104665, Note_on_c, 0, 57, 0
2, 104697, Note_on_c, 0, 59, 62
2, 104792, Note_on_c, 0, 59, 0
2, 104820, Note_on_c, 0, 57, 63
2, 104830, Note_on_c, 0, 75, 80
2, 104881, Note_on_c, 0, 76, 0
2, 104925, Note_on_c, 0, 57, 0
2, 104937, Note_on_c, 0, 56, 67
2, 105035, Note_on_c, 0, 56, 0
2, 105064, Note_on_c, 0, 57, 63
2, 105083, Note_on_c, 0, 73, 70
2, 105124, Note_on_c, 0, 75, 0
2, 105135, Note_on_c, 0, 57, 0
2, 105200, Note_on_c, 0, 59, 62
2, 105280, Note_on_c, 0, 59, 0
2, 105318, Note_on_c, 0, 56, 57
2, 105339, Note_on_c, 0, 72, 68
2, 105362, Note_on_c, 0, 73, 0
2, 105383, Note_on_c, 0, 72, 0
2, 105400, Note_on_c, 0, 56, 0
2, 105452, Note_on_c, 0, 52, 54
2, 105514, Note_on_c, 0, 52, 0
2, 105580, Note_on_c, 0, 66, 0
2, 105588, Note_on_c, 0, 68, 83
2, 105596, Note_on_c, 0, 54, 52
2, 105639, Note_on_c, 0, 68, 0
2, 105658, Note_on_c, 0, 54, 0
2, 105727, Note_on_c, 0, 56, 55
2, 105805, Note_on_c, 0, 56, 0
2, 105843, Note_on_c, 0, 73, 90
2, 105852, Note_on_c, 0, 64, 75
2, 105859, Note_on_c, 0, 57, 67
2, 105885, Note_on_c, 0, 64, 0
2, 105925, Note_on_c, 0, 57, 0
2, 105973, Note_on_c, 0, 59, 73
2, 106058, Note_on_c, 0, 59, 0
2, 106107, Note_on_c, 0, 61, 66
2, 106113, Note_on_c, 0, 69, 76
2, 106165, Note_on_c, 0, 61, 0
2, 106180, Note_on_c, 0, 69, 0
2, 106217, Note_on_c, 0, 57, 70
2, 106283, Note_on_c, 0, 57, 0
2, 106348, Note_on_c, 0, 54, 70
2, 106364, Note_on_c, 0, 63, 74
2, 106402, Note_on_c, 0, 54, 0
2, 106402, Note_on_c, 0, 63, 0
2, 106416, Note_on_c, 0, 73, 0
2, 106465, Note_on_c, 0, 52, 71
2, 106525, Note_on_c, 0, 52, 0
2, 106604, Note_on_c, 0, 54, 65
2, 106614, Note_on_c, 0, 75, 93
2, 106633, Note_on_c, 0, 66, 78
2, 106661, Note_on_c, 0, 54, 0
2, 106692, Note_on_c, 0, 66, 0
2, 106699, Note_on_c, 0, 75, 0
2, 106747, Note_on_c, 0, 56, 59
2, 106806, Note_on_c, 0, 56, 0
2, 106874, Note_on_c, 0, 68, 94
2, 106887, Note_on_c, 0, 60, 72
2, 106888, Note_on_c, 0, 54, 64
2, 106941, Note_on_c, 0, 60, 0
2, 106942, Note_on_c, 0, 54, 0
2, 107001, Note_on_c, 0, 68, 0
2, 107002, Note_on_c, 0, 52, 67
2, 107057, Note_on_c, 0, 52, 0
2, 107153, Note_on_c, 0, 70, 79
2, 107155, Note_on_c, 0, 54, 70
2, 107164, Note_on_c, 0, 63, 67
2, 107200, Note_on_c, 0, 54, 0
2, 107200, Note_on_c, 0, 63, 0
2, 107222, Note_on_c, 0, 70, 0
2, 107274, Note_on_c, 0, 56, 73
2, 107275, Note_on_c, 0, 72, 78
2, 107312, Note_on_c, 0, 56, 0
2, 107315, Note_on_c, 0, 72, 0
2, 107391, Note_on_c, 0, 56, 73
2, 107391, Note_on_c, 0, 73, 88
2, 107395, Note_on_c, 0, 52, 76
2, 107425, Note_on_c, 0, 52, 0
2, 107434, Note_on_c, 0, 56, 0
2, 107471, Note_on_c, 0, 73, 0
2, 107518, Note_on_c, 0, 72, 80
2, 107644, Note_on_c, 0, 72, 0
2, 107648, Note_on_c, 0, 51, 80
2, 107650, Note_on_c, 0, 73, 79
2, 107682, Note_on_c, 0, 51, 0
2, 107774, Note_on_c, 0, 75, 84
2, 107801, Note_on_c, 0, 73, 0
2, 107871, Note_on_c, 0, 75, 0
2, 107903, Note_on_c, 0, 49, 77
2, 107905, Note_on_c, 0, 76, 82
2, 107946, Note_on_c, 0, 49, 0
2, 107995, Note_on_c, 0, 76, 0
2, 108034, Note_on_c, 0, 78, 82
2, 108151, Note_on_c, 0, 52, 76
2, 108165, Note_on_c, 0, 80, 87
2, 108182, Note_on_c, 0, 52, 0
2, 108210, Note_on_c, 0, 78, 0
2, 108286, Note_on_c, 0, 76, 76
2, 108291, Note_on_c, 0, 80, 0
2, 108379, Note_on_c, 0, 76, 0
2, 108410, Note_on_c, 0, 73, 76
2, 108424, Note_on_c, 0, 46, 74
2, 108459, Note_on_c, 0, 46, 0
2, 108492, Note_on_c, 0, 73, 0
2, 108536, Note_on_c, 0, 71, 75
2, 108631, Note_on_c, 0, 71, 0
2, 108660, Note_on_c, 0, 73, 73
2, 108662, Note_on_c, 0, 56, 78
2, 108700, Note_on_c, 0, 56, 0
2, 108782, Note_on_c, 0, 73, 0
2, 108789, Note_on_c, 0, 75, 72
2, 108915, Note_on_c, 0, 75, 0
2, 108923, Note_on_c, 0, 58, 93
2, 108927, Note_on_c, 0, 55, 44
2, 108934, Note_on_c, 0, 73, 69
2, 108963, Note_on_c, 0, 55, 0
2, 109039, Note_on_c, 0, 73, 0
2, 109082, Note_on_c, 0, 71, 59
2, 109154, Note_on_c, 0, 71, 0
2, 109166, Note_on_c, 0, 51, 65
2, 109196, Note_on_c, 0, 73, 64
2, 109211, Note_on_c, 0, 51, 0
2, 109326, Note_on_c, 0, 75, 65
2, 109345, Note_on_c, 0, 73, 0
2, 109402, Note_on_c, 0, 75, 0
2, 109442, Note_on_c, 0, 44, 76
2, 109447, Note_on_c, 0, 71, 68
2, 109491, Note_on_c, 0, 44, 0
2, 109556, Note_on_c, 0, 71, 0
2, 109579, Note_on_c, 0, 70, 68
2, 109683, Note_on_c, 0, 70, 0
2, 109708, Note_on_c, 0, 71, 66
2, 109718, Note_on_c, 0, 46, 60
2, 109733, Note_on_c, 0, 58, 0
2, 109780, Note_on_c, 0, 46, 0
2, 109796, Note_on_c, 0, 71, 0
2, 109835, Note_on_c, 0, 73, 66
2, 109948, Note_on_c, 0, 47, 60
2, 109972, Note_on_c, 0, 56, 77
2, 109972, Note_on_c, 0, 75, 71
2, 110005, Note_on_c, 0, 47, 0
2, 110031, Note_on_c, 0, 73, 0
2, 110099, Note_on_c, 0, 75, 0
2, 110102, Note_on_c, 0, 76, 69
2, 110209, Note_on_c, 0, 76, 0
2, 110215, Note_on_c, 0, 46, 64
2, 110241, Note_on_c, 0, 78, 66
2, 110259, Note_on_c, 0, 46, 0
2, 110329, Note_on_c, 0, 78, 0
2, 110354, Note_on_c, 0, 75, 63
2, 110421, Note_on_c, 0, 75, 0
2, 110468, Note_on_c, 0, 44, 59
2, 110474, Note_on_c, 0, 71, 66
2, 110486, Note_on_c, 0, 56, 0
2, 110512, Note_on_c, 0, 44, 0
2, 110523, Note_on_c, 0, 71, 0
2, 110597, Note_on_c, 0, 69, 60
2, 110653, Note_on_c, 0, 69, 0
2, 110725, Note_on_c, 0, 71, 65
2, 110739, Note_on_c, 0, 54, 61
2, 110772, Note_on_c, 0, 54, 0
2, 110779, Note_on_c, 0, 71, 0
2, 110846, Note_on_c, 0, 73, 62
2, 110900, Note_on_c, 0, 73, 0
2, 110979, Note_on_c, 0, 71, 62
2, 110980, Note_on_c, 0, 56, 73
2, 110983, Note_on_c, 0, 53, 61
2, 111023, Note_on_c, 0, 53, 0
2, 111040, Note_on_c, 0, 71, 0
2, 111101, Note_on_c, 0, 69, 63
2, 111169, Note_on_c, 0, 69, 0
2, 111227, Note_on_c, 0, 71, 60
2, 111240, Note_on_c, 0, 49, 66
2, 111278, Note_on_c, 0, 49, 0
2, 111332, Note_on_c, 0, 71, 0
2, 111350, Note_on_c, 0, 73, 68
2, 111402, Note_on_c, 0, 73, 0
2, 111479, Note_on_c, 0, 69, 60
2, 111494, Note_on_c, 0, 42, 62
2, 111539, Note_on_c, 0, 42, 0
2, 111557, Note_on_c, 0, 69, 0
2, 111597, Note_on_c, 0, 68, 66
2, 111697, Note_on_c, 0, 68, 0
2, 111733, Note_on_c, 0, 69, 60
2, 111742, Note_on_c, 0, 44, 60
2, 111775, Note_on_c, 0, 56, 0
2, 111805, Note_on_c, 0, 69, 0
2, 111826, Note_on_c, 0, 44, 0
2, 111848, Note_on_c, 0, 71, 64
2, 111924, Note_on_c, 0, 71, 0
2, 111978, Note_on_c, 0, 45, 54
2, 111983, Note_on_c, 0, 73, 61
2, 111992, Note_on_c, 0, 54, 56
2, 112022, Note_on_c, 0, 45, 0
2, 112058, Note_on_c, 0, 73, 0
2, 112109, Note_on_c, 0, 75, 67
2, 112235, Note_on_c, 0, 44, 60
2, 112235, Note_on_c, 0, 75, 0
2, 112240, Note_on_c, 0, 76, 67
2, 112274, Note_on_c, 0, 44, 0
2, 112354, Note_on_c, 0, 76, 0
2, 112361, Note_on_c, 0, 73, 62
2, 112453, Note_on_c, 0, 73, 0
2, 112482, Control_c, 0, 67, 13
2, 112484, Note_on_c, 0, 75, 66
2, 112493, Note_on_c, 0, 54, 0
2, 112496, Note_on_c, 0, 42, 61
2, 112501, Control_c, 0, 67, 36
2, 112521, Control_c, 0, 67, 63
2, 112535, Note_on_c, 0, 42, 0
2, 112540, Control_c, 0, 67, 103
2, 112552, Note_on_c, 0, 75, 0
2, 112559, Control_c, 0, 67, 127
2, 112603, Note_on_c, 0, 73, 67
2, 112745, Note_on_c, 0, 73, 0
2, 112746, Note_on_c, 0, 52, 56
2, 112754, Note_on_c, 0, 75, 69
2, 112789, Note_on_c, 0, 52, 0
2, 112812, Note_on_c, 0, 75, 0
2, 112869, Note_on_c, 0, 76, 69
2, 112950, Note_on_c, 0, 76, 0
2, 112990, Note_on_c, 0, 51, 51
2, 112995, Note_on_c, 0, 54, 67
2, 112998, Note_on_c, 0, 78, 71
2, 113043, Note_on_c, 0, 51, 0
2, 113110, Note_on_c, 0, 80, 74
2, 113132, Note_on_c, 0, 78, 0
2, 113192, Note_on_c, 0, 80, 0
2, 113242, Note_on_c, 0, 81, 75
2, 113262, Note_on_c, 0, 49, 49
2, 113312, Note_on_c, 0, 49, 0
2, 113333, Note_on_c, 0, 81, 0
2, 113364, Note_on_c, 0, 78, 75
2, 113434, Note_on_c, 0, 78, 0
2, 113491, Note_on_c, 0, 80, 76
2, 113500, Note_on_c, 0, 48, 55
2, 113542, Note_on_c, 0, 48, 0
2, 113564, Note_on_c, 0, 80, 0
2, 113608, Note_on_c, 0, 78, 74
2, 113682, Note_on_c, 0, 78, 0
2, 113740, Note_on_c, 0, 76, 68
2, 113742, Note_on_c, 0, 44, 53
2, 113766, Note_on_c, 0, 54, 0
2, 113780, Note_on_c, 0, 44, 0
2, 113807, Control_c, 0, 67, 126
2, 113815, Note_on_c, 0, 76, 0
2, 113826, Control_c, 0, 67, 123
2, 113845, Control_c, 0, 67, 117
2, 113849, Note_on_c, 0, 75, 72
2, 113864, Control_c, 0, 67, 111
2, 113884, Control_c, 0, 67, 103
2, 113903, Control_c, 0, 67, 90
2, 113922, Control_c, 0, 67, 78
2, 113941, Control_c, 0, 67, 63
2, 113961, Control_c, 0, 67, 48
2, 113980, Control_c, 0, 67, 32
2, 113985, Note_on_c, 0, 73, 68
2, 113996, Note_on_c, 0, 45, 59
2, 113997, Note_on_c, 0, 52, 61
2, 113999, Control_c, 0, 67, 15
2, 114010, Note_on_c, 0, 75, 0
2, 114018, Control_c, 0, 67, 0
2, 114025, Note_on_c, 0, 45, 0
2, 114036, Note_on_c, 0, 52, 0
2, 114084, Note_on_c, 0, 73, 0
2, 114100, Note_on_c, 0, 71, 76
2, 114171, Note_on_c, 0, 71, 0
2, 114243, Note_on_c, 0, 61, 91
2, 114243, Note_on_c, 0, 69, 71
2, 114266, Note_on_c, 0, 52, 58
2, 114280, Note_on_c, 0, 61, 0
2, 114297, Note_on_c, 0, 52, 0
2, 114316, Note_on_c, 0, 69, 0
2, 114364, Note_on_c, 0, 68, 77
2, 114450, Note_on_c, 0, 68, 0
2, 114518, Note_on_c, 0, 63, 92
2, 114519, Note_on_c, 0, 66, 75
2, 114526, Note_on_c, 0, 54, 81
2, 114604, Note_on_c, 0, 66, 0
2, 114618, Note_on_c, 0, 54, 0
2, 114642, Note_on_c, 0, 68, 76
2, 114646, Note_on_c, 0, 52, 71
2, 114762, Note_on_c, 0, 68, 0
2, 114765, Note_on_c, 0, 63, 0
2, 114770, Note_on_c, 0, 69, 74
2, 114782, Note_on_c, 0, 54, 84
2, 114790, Note_on_c, 0, 52, 0
2, 114813, Note_on_c, 0, 54, 0
2, 114886, Note_on_c, 0, 69, 0
2, 114909, Note_on_c, 0, 66, 66
2, 114966, Note_on_c, 0, 66, 0
2, 115033, Note_on_c, 0, 56, 88
2, 115039, Note_on_c, 0, 63, 71
2, 115065, Note_on_c, 0, 56, 0
2, 115084, Note_on_c, 0, 63, 0
2, 115168, Note_on_c, 0, 56, 74
2, 115205, Note_on_c, 0, 56, 0
2, 115292, Note_on_c, 0, 44, 72
2, 115292, Note_on_c, 0, 68, 83
2, 115294, Note_on_c, 0, 58, 81
2, 115325, Note_on_c, 0, 58, 0
2, 115326, Note_on_c, 0, 44, 0
2, 115378, Note_on_c, 0, 68, 0
2, 115413, Note_on_c, 0, 60, 73
2, 115474, Note_on_c, 0, 60, 0
2, 115546, Note_on_c, 0, 49, 86
2, 115547, Note_on_c, 0, 61, 77
2, 115555, Note_on_c, 0, 64, 82
2, 115581, Note_on_c, 0, 61, 0
2, 115587, Note_on_c, 0, 64, 0
2, 115600, Note_on_c, 0, 49, 0
2, 115678, Note_on_c, 0, 60, 74
2, 115765, Note_on_c, 0, 60, 0
2, 115794, Note_on_c, 0, 68, 84
2, 115807, Note_on_c, 0, 61, 73
2, 115845, Note_on_c, 0, 68, 0
2, 115903, Note_on_c, 0, 61, 0
2, 115920, Note_on_c, 0, 63, 80
2, 116025, Note_on_c, 0, 63, 0
2, 116048, Note_on_c, 0, 64, 80
2, 116048, Note_on_c, 0, 73, 90
2, 116098, Note_on_c, 0, 73, 0
2, 116132, Note_on_c, 0, 64, 0
2, 116173, Note_on_c, 0, 66, 80
2, 116282, Note_on_c, 0, 66, 0
2, 116297, Note_on_c, 0, 68, 84
2, 116302, Note_on_c, 0, 71, 89
2, 116349, Note_on_c, 0, 71, 0
2, 116382, Note_on_c, 0, 68, 0
2, 116421, Note_on_c, 0, 64, 77
2, 116524, Note_on_c, 0, 64, 0
2, 116564, Note_on_c, 0, 61, 72
2, 116569, Note_on_c, 0, 76, 86
2, 116669, Note_on_c, 0, 61, 0
2, 116684, Note_on_c, 0, 59, 74
2, 116691, Note_on_c, 0, 75, 83
2, 116743, Note_on_c, 0, 76, 0
2, 116804, Note_on_c, 0, 59, 0
2, 116811, Note_on_c, 0, 61, 70
2, 116823, Note_on_c, 0, 73, 79
2, 116868, Note_on_c, 0, 75, 0
2, 116924, Note_on_c, 0, 61, 0
2, 116933, Note_on_c, 0, 71, 88
2, 116937, Note_on_c, 0, 73, 0
2, 116952, Note_on_c, 0, 63, 64
2, 117024, Note_on_c, 0, 63, 0
2, 117073, Note_on_c, 0, 61, 65
2, 117079, Note_on_c, 0, 69, 90
2, 117087, Note_on_c, 0, 71, 0
2, 117189, Note_on_c, 0, 61, 0
2, 117208, Note_on_c, 0, 59, 63
2, 117310, Note_on_c, 0, 59, 0
2, 117340, Note_on_c, 0, 61, 59
2, 117425, Note_on_c, 0, 61, 0
2, 117476, Note_on_c, 0, 63, 57
2, 117549, Note_on_c, 0, 63, 0
2, 117608, Note_on_c, 0, 69, 0
2, 117610, Note_on_c, 0, 59, 61
2, 117650, Note_on_c, 0, 59, 0
2, 117714, Note_on_c, 0, 56, 64
2, 117822, Note_on_c, 0, 56, 0
2, 117840, Note_on_c, 0, 57, 60
2, 117853, Note_on_c, 0, 63, 69
2, 117891, Note_on_c, 0, 63, 0
2, 117905, Note_on_c, 0, 57, 0
2, 117958, Note_on_c, 0, 59, 70
2, 118058, Note_on_c, 0, 59, 0
2, 118092, Note_on_c, 0, 61, 66
2, 118097, Note_on_c, 0, 69, 78
2, 118131, Note_on_c, 0, 69, 0
2, 118160, Note_on_c, 0, 61, 0
2, 118224, Note_on_c, 0, 63, 62
2, 118303, Note_on_c, 0, 63, 0
2, 118354, Note_on_c, 0, 64, 59
2, 118362, Note_on_c, 0, 68, 76
2, 118393, Note_on_c, 0, 68, 0
2, 118421, Note_on_c, 0, 64, 0
2, 118479, Note_on_c, 0, 61, 57
2, 118582, Note_on_c, 0, 61, 0
2, 118606, Note_on_c, 0, 57, 62
2, 118628, Note_on_c, 0, 73, 71
2, 118704, Note_on_c, 0, 57, 0
2, 118708, Note_on_c, 0, 73, 0
2, 118735, Note_on_c, 0, 56, 62
2, 118745, Note_on_c, 0, 71, 72
2, 118823, Note_on_c, 0, 71, 0
2, 118863, Note_on_c, 0, 57, 64
2, 118865, Note_on_c, 0, 56, 0
2, 118873, Note_on_c, 0, 69, 72
2, 118938, Note_on_c, 0, 57, 0
2, 118965, Note_on_c, 0, 69, 0
2, 118986, Note_on_c, 0, 68, 72
2, 118988, Note_on_c, 0, 59, 63
2, 119055, Note_on_c, 0, 59, 0
2, 119113, Note_on_c, 0, 57, 63
2, 119124, Note_on_c, 0, 68, 0
2, 119126, Note_on_c, 0, 66, 68
2, 119181, Note_on_c, 0, 57, 0
2, 119241, Note_on_c, 0, 56, 62
2, 119312, Note_on_c, 0, 56, 0
2, 119356, Note_on_c, 0, 57, 58
2, 119440, Note_on_c, 0, 57, 0
2, 119500, Note_on_c, 0, 59, 60
2, 119572, Note_on_c, 0, 59, 0
2, 119619, Note_on_c, 0, 56, 62
2, 119685, Note_on_c, 0, 56, 0
2, 119743, Note_on_c, 0, 54, 60
2, 119805, Note_on_c, 0, 54, 0
2, 119824, Note_on_c, 0, 66, 0
2, 119864, Note_on_c, 0, 56, 65
2, 119878, Note_on_c, 0, 64, 49
2, 119922, Note_on_c, 0, 56, 0
2, 119932, Note_on_c, 0, 64, 0
2, 119982, Note_on_c, 0, 57, 61
2, 119989, Note_on_c, 0, 63, 58
2, 120039, Note_on_c, 0, 57, 0
2, 120057, Note_on_c, 0, 63, 0
2, 120105, Note_on_c, 0, 56, 69
2, 120114, Note_on_c, 0, 64, 55
2, 120137, Note_on_c, 0, 56, 0
2, 120178, Note_on_c, 0, 64, 0
2, 120237, Note_on_c, 0, 66, 60
2, 120363, Note_on_c, 0, 68, 64
2, 120375, Note_on_c, 0, 52, 68
2, 120379, Note_on_c, 0, 59, 66
2, 120384, Note_on_c, 0, 66, 0
2, 120443, Note_on_c, 0, 68, 0
2, 120454, Note_on_c, 0, 52, 0
2, 120498, Note_on_c, 0, 64, 56
2, 120650, Note_on_c, 0, 64, 0
2, 120656, Note_on_c, 0, 54, 77
2, 120660, Note_on_c, 0, 61, 61
2, 120752, Note_on_c, 0, 61, 0
2, 120797, Note_on_c, 0, 68, 66
2, 120919, Note_on_c, 0, 59, 0
2, 120939, Note_on_c, 0, 66, 63
2, 120940, Note_on_c, 0, 57, 61
2, 120952, Note_on_c, 0, 68, 0
2, 120996, Note_on_c, 0, 57, 0
2, 121008, Note_on_c, 0, 66, 0
2, 121071, Note_on_c, 0, 56, 64
2, 121073, Note_on_c, 0, 64, 58
2, 121133, Note_on_c, 0, 56, 0
2, 121138, Note_on_c, 0, 54, 0
2, 121172, Note_on_c, 0, 64, 0
2, 121195, Note_on_c, 0, 57, 67
2, 121202, Note_on_c, 0, 63, 67
2, 121238, Note_on_c, 0, 57, 0
2, 121327, Note_on_c, 0, 47, 69
2, 121340, Note_on_c, 0, 61, 63
2, 121424, Note_on_c, 0, 47, 0
2, 121437, Note_on_c, 0, 63, 0
2, 121463, Note_on_c, 0, 49, 70
2, 121463, Note_on_c, 0, 59, 72
2, 121503, Note_on_c, 0, 61, 0
2, 121543, Note_on_c, 0, 59, 0
2, 121558, Note_on_c, 0, 49, 0
2, 121578, Note_on_c, 0, 51, 69
2, 121600, Note_on_c, 0, 57, 64
2, 121675, Note_on_c, 0, 51, 0
2, 121687, Note_on_c, 0, 57, 0
2, 121708, Note_on_c, 0, 52, 70
2, 121723, Note_on_c, 0, 56, 75
2, 121792, Note_on_c, 0, 56, 0
2, 121799, Note_on_c, 0, 52, 0
2, 121834, Note_on_c, 0, 51, 69
2, 121852, Note_on_c, 0, 59, 72
2, 121933, Note_on_c, 0, 51, 0
2, 121942, Note_on_c, 0, 59, 0
2, 121973, Note_on_c, 0, 52, 71
2, 121978, Note_on_c, 0, 61, 74
2, 122057, Note_on_c, 0, 61, 0
2, 122068, Note_on_c, 0, 52, 0
2, 122094, Note_on_c, 0, 54, 79
2, 122096, Note_on_c, 0, 63, 80
2, 122180, Note_on_c, 0, 63, 0
2, 122220, Note_on_c, 0, 54, 0
2, 122225, Note_on_c, 0, 64, 81
2, 122229, Note_on_c, 0, 56, 80
2, 122320, Note_on_c, 0, 56, 0
2, 122330, Note_on_c, 0, 64, 0
2, 122349, Note_on_c, 0, 57, 78
2, 122350, Note_on_c, 0, 66, 81
2, 122449, Note_on_c, 0, 57, 0
2, 122472, Note_on_c, 0, 68, 82
2, 122477, Note_on_c, 0, 59, 78
2, 122506, Note_on_c, 0, 66, 0
2, 122570, Note_on_c, 0, 68, 0
2, 122575, Note_on_c, 0, 59, 0
2, 122586, Note_on_c, 0, 64, 84
2, 122596, Note_on_c, 0, 56, 73
2, 122708, Note_on_c, 0, 56, 0
2, 122708, Note_on_c, 0, 64, 0
2, 122730, Note_on_c, 0, 73, 89
2, 122733, Note_on_c, 0, 52, 66
2, 122861, Note_on_c, 0, 51, 66
2, 122868, Note_on_c, 0, 52, 0
2, 123010, Note_on_c, 0, 51, 0
2, 123017, Note_on_c, 0, 52, 61
2, 123100, Note_on_c, 0, 52, 0
2, 123122, Note_on_c, 0, 54, 70
2, 123167, Note_on_c, 0, 73, 0
2, 123246, Note_on_c, 0, 54, 0
2, 123248, Note_on_c, 0, 51, 60
2, 123288, Note_on_c, 0, 52, 56
2, 123297, Note_on_c, 0, 51, 0
2, 123375, Note_on_c, 0, 51, 74
2, 123383, Note_on_c, 0, 52, 0
2, 123386, Note_on_c, 0, 66, 69
2, 123438, Note_on_c, 0, 51, 0
2, 123442, Note_on_c, 0, 66, 0
2, 123498, Note_on_c, 0, 52, 72
2, 123510, Note_on_c, 0, 68, 81
2, 123547, Note_on_c, 0, 52, 0
2, 123583, Note_on_c, 0, 68, 0
2, 123629, Note_on_c, 0, 54, 73
2, 123633, Note_on_c, 0, 70, 83
2, 123678, Note_on_c, 0, 54, 0
2, 123706, Note_on_c, 0, 70, 0
2, 123748, Note_on_c, 0, 51, 78
2, 123759, Note_on_c, 0, 71, 84
2, 123783, Note_on_c, 0, 51, 0
2, 123833, Note_on_c, 0, 71, 0
2, 123885, Note_on_c, 0, 70, 85
2, 123975, Note_on_c, 0, 70, 0
2, 124007, Note_on_c, 0, 54, 82
2, 124023, Note_on_c, 0, 71, 83
2, 124049, Note_on_c, 0, 54, 0
2, 124105, Note_on_c, 0, 71, 0
2, 124140, Note_on_c, 0, 73, 83
2, 124241, Note_on_c, 0, 73, 0
2, 124269, Note_on_c, 0, 47, 80
2, 124271, Note_on_c, 0, 75, 86
2, 124301, Note_on_c, 0, 47, 0
2, 124348, Note_on_c, 0, 75, 0
2, 124389, Note_on_c, 0, 76, 81
2, 124459, Note_on_c, 0, 76, 0
2, 124517, Note_on_c, 0, 78, 86
2, 124523, Note_on_c, 0, 64, 91
2, 124530, Note_on_c, 0, 52, 84
2, 124601, Note_on_c, 0, 64, 0
2, 124631, Note_on_c, 0, 80, 90
2, 124662, Note_on_c, 0, 78, 0
2, 124693, Note_on_c, 0, 80, 0
2, 124731, Note_on_c, 0, 52, 0
2, 124777, Note_on_c, 0, 66, 97
2, 124791, Note_on_c, 0, 69, 82
2, 124876, Note_on_c, 0, 69, 0
2, 124927, Note_on_c, 0, 68, 69
2, 125066, Note_on_c, 0, 69, 80
2, 125096, Note_on_c, 0, 66, 0
2, 125136, Note_on_c, 0, 68, 0
2, 125147, Note_on_c, 0, 69, 0
2, 125182, Note_on_c, 0, 71, 88
2, 125184, Note_on_c, 0, 49, 73
2, 125230, Note_on_c, 0, 49, 0
2, 125286, Note_on_c, 0, 71, 0
2, 125290, Note_on_c, 0, 51, 88
2, 125301, Note_on_c, 0, 69, 84
2, 125318, Note_on_c, 0, 51, 0
2, 125429, Note_on_c, 0, 68, 86
2, 125434, Note_on_c, 0, 59, 79
2, 125464, Note_on_c, 0, 69, 0
2, 125471, Note_on_c, 0, 59, 0
2, 125516, Note_on_c, 0, 68, 0
2, 125558, Note_on_c, 0, 59, 100
2, 125560, Note_on_c, 0, 61, 80
2, 125562, Note_on_c, 0, 69, 86
2, 125588, Note_on_c, 0, 59, 0
2, 125599, Note_on_c, 0, 61, 0
2, 125689, Note_on_c, 0, 69, 0
2, 125693, Note_on_c, 0, 63, 76
2, 125693, Note_on_c, 0, 71, 81
2, 125744, Note_on_c, 0, 63, 0
2, 125833, Note_on_c, 0, 61, 88
2, 125842, Note_on_c, 0, 64, 78
2, 125843, Note_on_c, 0, 68, 83
2, 125849, Note_on_c, 0, 71, 0
2, 125941, Note_on_c, 0, 68, 0
2, 125966, Note_on_c, 0, 66, 80
2, 125973, Note_on_c, 0, 63, 74
2, 125980, Note_on_c, 0, 64, 0
2, 126000, Note_on_c, 0, 61, 0
2, 126070, Note_on_c, 0, 63, 0
2, 126101, Note_on_c, 0, 68, 85
2, 126108, Note_on_c, 0, 66, 0
2, 126109, Note_on_c, 0, 64, 83
2, 126176, Note_on_c, 0, 64, 0
2, 126184, Note_on_c, 0, 68, 0
2, 126215, Note_on_c, 0, 69, 86
2, 126222, Note_on_c, 0, 66, 87
2, 126298, Note_on_c, 0, 69, 0
2, 126306, Note_on_c, 0, 66, 0
2, 126343, Note_on_c, 0, 71, 89
2, 126351, Note_on_c, 0, 68, 71
2, 126389, Note_on_c, 0, 68, 0
2, 126416, Note_on_c, 0, 71, 0
2, 126464, Note_on_c, 0, 73, 88
2, 126538, Note_on_c, 0, 73, 0
2, 126594, Note_on_c, 0, 56, 63
2, 126601, Note_on_c, 0, 74, 94
2, 126614, Note_on_c, 0, 71, 88
2, 126631, Note_on_c, 0, 56, 0
2, 126674, Note_on_c, 0, 71, 0
2, 126746, Note_on_c, 0, 68, 76
2, 126811, Note_on_c, 0, 68, 0
2, 126879, Note_on_c, 0, 57, 67
2, 126882, Note_on_c, 0, 64, 80
2, 126912, Note_on_c, 0, 74, 0
2, 126917, Note_on_c, 0, 57, 0
2, 126967, Note_on_c, 0, 64, 0
2, 127011, Note_on_c, 0, 63, 84
2, 127056, Note_on_c, 0, 63, 0
2, 127113, Note_on_c, 0, 56, 62
2, 127128, Note_on_c, 0, 73, 94
2, 127143, Note_on_c, 0, 64, 69
2, 127155, Note_on_c, 0, 56, 0
2, 127196, Note_on_c, 0, 64, 0
2, 127259, Note_on_c, 0, 73, 0
2, 127264, Note_on_c, 0, 66, 71
2, 127264, Note_on_c, 0, 71, 79
2, 127308, Note_on_c, 0, 66, 0
2, 127353, Note_on_c, 0, 71, 0
2, 127389, Note_on_c, 0, 57, 73
2, 127394, Note_on_c, 0, 73, 97
2, 127408, Note_on_c, 0, 64, 77
2, 127423, Note_on_c, 0, 57, 0
2, 127442, Note_on_c, 0, 64, 0
2, 127527, Note_on_c, 0, 63, 78
2, 127646, Note_on_c, 0, 63, 0
2, 127657, Note_on_c, 0, 64, 67
2, 127681, Note_on_c, 0, 52, 47
2, 127709, Note_on_c, 0, 64, 0
2, 127717, Note_on_c, 0, 52, 0
2, 127771, Note_on_c, 0, 66, 71
2, 127899, Note_on_c, 0, 66, 0
2, 127904, Note_on_c, 0, 63, 72
2, 127907, Note_on_c, 0, 54, 70
2, 127943, Note_on_c, 0, 54, 0
2, 127970, Note_on_c, 0, 63, 0
2, 128036, Note_on_c, 0, 61, 72
2, 128086, Note_on_c, 0, 61, 0
2, 128160, Note_on_c, 0, 63, 69
2, 128180, Note_on_c, 0, 57, 54
2, 128216, Note_on_c, 0, 57, 0
2, 128239, Note_on_c, 0, 63, 0
2, 128276, Note_on_c, 0, 64, 74
2, 128301, Note_on_c, 0, 73, 0
2, 128342, Note_on_c, 0, 64, 0
2, 128409, Note_on_c, 0, 71, 85
2, 128418, Note_on_c, 0, 66, 70
2, 128419, Note_on_c, 0, 56, 69
2, 128456, Note_on_c, 0, 56, 0
2, 128456, Note_on_c, 0, 66, 0
2, 128541, Note_on_c, 0, 68, 71
2, 128596, Note_on_c, 0, 68, 0
2, 128671, Note_on_c, 0, 69, 66
2, 128680, Note_on_c, 0, 54, 62
2, 128721, Note_on_c, 0, 54, 0
2, 128784, Note_on_c, 0, 69, 0
2, 128795, Note_on_c, 0, 66, 64
2, 128853, Note_on_c, 0, 66, 0
2, 128871, Note_on_c, 0, 71, 0
2, 128923, Note_on_c, 0, 62, 62
2, 128932, Note_on_c, 0, 52, 59
2, 128972, Note_on_c, 0, 52, 0
2, 128985, Note_on_c, 0, 62, 0
2, 129043, Note_on_c, 0, 61, 66
2, 129146, Note_on_c, 0, 61, 0
2, 129170, Note_on_c, 0, 62, 60
2, 129179, Note_on_c, 0, 54, 58
2, 129218, Note_on_c, 0, 54, 0
2, 129221, Note_on_c, 0, 62, 0
2, 129297, Note_on_c, 0, 64, 63
2, 129381, Note_on_c, 0, 64, 0
2, 129419, Note_on_c, 0, 71, 85
2, 129423, Note_on_c, 0, 56, 64
2, 129434, Note_on_c, 0, 62, 64
2, 129461, Note_on_c, 0, 56, 0
2, 129473, Note_on_c, 0, 62, 0
2, 129562, Note_on_c, 0, 61, 63
2, 129628, Note_on_c, 0, 61, 0
2, 129684, Note_on_c, 0, 62, 61
2, 129692, Note_on_c, 0, 52, 53
2, 129728, Note_on_c, 0, 52, 0
2, 129728, Note_on_c, 0, 62, 0
2, 129807, Note_on_c, 0, 64, 65
2, 129862, Note_on_c, 0, 64, 0
2, 129941, Note_on_c, 0, 61, 65
2, 129952, Note_on_c, 0, 57, 68
2, 129991, Note_on_c, 0, 57, 0
2, 129999, Note_on_c, 0, 61, 0
2, 130056, Note_on_c, 0, 59, 67
2, 130119, Note_on_c, 0, 59, 0
2, 130195, Note_on_c, 0, 59, 76
2, 130195, Note_on_c, 0, 61, 59
2, 130226, Note_on_c, 0, 59, 0
2, 130267, Note_on_c, 0, 71, 0
2, 130276, Note_on_c, 0, 61, 0
2, 130308, Note_on_c, 0, 62, 66
2, 130356, Note_on_c, 0, 62, 0
2, 130439, Note_on_c, 0, 61, 74
2, 130439, Note_on_c, 0, 64, 69
2, 130447, Note_on_c, 0, 69, 68
2, 130473, Note_on_c, 0, 61, 0
2, 130486, Note_on_c, 0, 64, 0
2, 130567, Note_on_c, 0, 66, 58
2, 130620, Note_on_c, 0, 66, 0
2, 130704, Note_on_c, 0, 68, 57
2, 130707, Note_on_c, 0, 59, 63
2, 130741, Note_on_c, 0, 59, 0
2, 130765, Note_on_c, 0, 69, 0
2, 130769, Note_on_c, 0, 68, 0
2, 130815, Note_on_c, 0, 64, 58
2, 130869, Note_on_c, 0, 64, 0
2, 130945, Note_on_c, 0, 61, 60
2, 130963, Note_on_c, 0, 57, 50
2, 130995, Note_on_c, 0, 57, 0
2, 131005, Note_on_c, 0, 61, 0
2, 131070, Note_on_c, 0, 59, 61
2, 131130, Note_on_c, 0, 59, 0
2, 131191, Note_on_c, 0, 52, 54
2, 131191, Note_on_c, 0, 61, 57
2, 131233, Note_on_c, 0, 52, 0
2, 131246, Note_on_c, 0, 61, 0
2, 131312, Note_on_c, 0, 62, 62
2, 131363, Note_on_c, 0, 62, 0
2, 131434, Note_on_c, 0, 69, 74
2, 131436, Note_on_c, 0, 54, 59
2, 131455, Note_on_c, 0, 61, 59
2, 131481, Note_on_c, 0, 54, 0
2, 131507, Note_on_c, 0, 61, 0
2, 131573, Note_on_c, 0, 59, 56
2, 131631, Note_on_c, 0, 59, 0
2, 131682, Note_on_c, 0, 49, 58
2, 131712, Note_on_c, 0, 61, 51
2, 131724, Note_on_c, 0, 49, 0
2, 131763, Note_on_c, 0, 61, 0
2, 131822, Note_on_c, 0, 62, 59
2, 131893, Note_on_c, 0, 62, 0
2, 131945, Note_on_c, 0, 51, 49
2, 131967, Note_on_c, 0, 59, 49
2, 131985, Note_on_c, 0, 51, 0
2, 132039, Note_on_c, 0, 59, 0
2, 132090, Note_on_c, 0, 57, 58
2, 132149, Note_on_c, 0, 57, 0
2, 132193, Note_on_c, 0, 47, 54
2, 132206, Note_on_c, 0, 59, 64
2, 132212, Note_on_c, 0, 69, 0
2, 132231, Note_on_c, 0, 47, 0
2, 132269, Note_on_c, 0, 59, 0
2, 132334, Note_on_c, 0, 61, 65
2, 132396, Note_on_c, 0, 61, 0
2, 132446, Note_on_c, 0, 59, 56
2, 132454, Note_on_c, 0, 68, 71
2, 132459, Note_on_c, 0, 52, 47
2, 132486, Note_on_c, 0, 68, 0
2, 132513, Note_on_c, 0, 59, 0
2, 132554, Note_on_c, 0, 57, 63
2, 132656, Note_on_c, 0, 57, 0
2, 132704, Note_on_c, 0, 76, 87
2, 132719, Note_on_c, 0, 59, 60
2, 132755, Note_on_c, 0, 76, 0
2, 132820, Note_on_c, 0, 59, 0
2, 132840, Note_on_c, 0, 61, 58
2, 132966, Note_on_c, 0, 61, 0
2, 132970, Note_on_c, 0, 78, 90
2, 132980, Note_on_c, 0, 57, 61
2, 133106, Note_on_c, 0, 57, 0
2, 133114, Note_on_c, 0, 56, 61
2, 133200, Control_c, 0, 64, 35
2, 133204, Note_on_c, 0, 56, 0
2, 133220, Control_c, 0, 64, 58
2, 133239, Control_c, 0, 64, 64
2, 133248, Note_on_c, 0, 57, 65
2, 133259, Control_c, 0, 64, 68
2, 133277, Control_c, 0, 64, 71
2, 133296, Control_c, 0, 64, 76
2, 133308, Note_on_c, 0, 57, 0
2, 133316, Control_c, 0, 64, 82
2, 133334, Control_c, 0, 64, 86
2, 133354, Control_c, 0, 64, 91
2, 133366, Note_on_c, 0, 59, 73
2, 133373, Control_c, 0, 64, 94
2, 133392, Note_on_c, 0, 78, 0
2, 133393, Control_c, 0, 64, 97
2, 133411, Control_c, 0, 64, 98
2, 133469, Control_c, 0, 64, 97
2, 133477, Note_on_c, 0, 59, 0
2, 133488, Control_c, 0, 64, 89
2, 133492, Note_on_c, 0, 51, 68
2, 133495, Note_on_c, 0, 57, 68
2, 133504, Note_on_c, 0, 52, 0
2, 133508, Control_c, 0, 64, 75
2, 133527, Control_c, 0, 64, 56
2, 133546, Control_c, 0, 64, 0
2, 133558, Note_on_c, 0, 57, 0
2, 133629, Note_on_c, 0, 56, 66
2, 133631, Note_on_c, 0, 71, 65
2, 133714, Note_on_c, 0, 56, 0
2, 133727, Note_on_c, 0, 71, 0
2, 133743, Note_on_c, 0, 73, 74
2, 133747, Note_on_c, 0, 57, 59
2, 133800, Note_on_c, 0, 57, 0
2, 133865, Note_on_c, 0, 75, 80
2, 133867, Note_on_c, 0, 59, 72
2, 133893, Note_on_c, 0, 73, 0
2, 133946, Note_on_c, 0, 59, 0
2, 133974, Note_on_c, 0, 75, 0
2, 133996, Note_on_c, 0, 76, 77
2, 133997, Note_on_c, 0, 56, 73
2, 134041, Note_on_c, 0, 56, 0
2, 134114, Note_on_c, 0, 75, 84
2, 134126, Note_on_c, 0, 76, 0
2, 134209, Note_on_c, 0, 75, 0
2, 134238, Note_on_c, 0, 51, 0
2, 134245, Note_on_c, 0, 76, 85
2, 134259, Note_on_c, 0, 59, 69
2, 134295, Note_on_c, 0, 59, 0
2, 134336, Note_on_c, 0, 76, 0
2, 134369, Note_on_c, 0, 78, 84
2, 134502, Note_on_c, 0, 80, 87
2, 134504, Note_on_c, 0, 49, 80
2, 134505, Note_on_c, 0, 52, 69
2, 134548, Note_on_c, 0, 78, 0
2, 134549, Note_on_c, 0, 52, 0
2, 134609, Note_on_c, 0, 80, 0
2, 134625, Note_on_c, 0, 81, 89
2, 134758, Note_on_c, 0, 49, 0
2, 134758, Note_on_c, 0, 81, 0
2, 134762, Note_on_c, 0, 83, 86
2, 134773, Note_on_c, 0, 56, 81
2, 134890, Note_on_c, 0, 80, 87
2, 134894, Note_on_c, 0, 83, 0
2, 134996, Note_on_c, 0, 80, 0
2, 135011, Note_on_c, 0, 56, 0
2, 135012, Note_on_c, 0, 42, 89
2, 135028, Note_on_c, 0, 81, 91
2, 135151, Note_on_c, 0, 80, 85
2, 135174, Note_on_c, 0, 81, 0
2, 135262, Note_on_c, 0, 80, 0
2, 135269, Note_on_c, 0, 42, 0
2, 135289, Note_on_c, 0, 81, 90
2, 135296, Note_on_c, 0, 54, 76
2, 135406, Note_on_c, 0, 49, 80
2, 135411, Note_on_c, 0, 83, 91
2, 135417, Note_on_c, 0, 81, 0
2, 135464, Note_on_c, 0, 49, 0
2, 135532, Note_on_c, 0, 51, 82
2, 135537, Note_on_c, 0, 81, 93
2, 135565, Note_on_c, 0, 51, 0
2, 135589, Note_on_c, 0, 83, 0
2, 135659, Note_on_c, 0, 80, 94
2, 135686, Note_on_c, 0, 81, 0
2, 135804, Note_on_c, 0, 81, 91
2, 135805, Note_on_c, 0, 47, 79
2, 135824, Note_on_c, 0, 80, 0
2, 135839, Note_on_c, 0, 47, 0
2, 135921, Note_on_c, 0, 83, 88
2, 135936, Note_on_c, 0, 81, 0
2, 136054, Note_on_c, 0, 80, 90
2, 136056, Note_on_c, 0, 83, 0
2, 136063, Note_on_c, 0, 52, 73
2, 136093, Note_on_c, 0, 52, 0
2, 136161, Note_on_c, 0, 80, 0
2, 136185, Note_on_c, 0, 78, 84
2, 136270, Note_on_c, 0, 78, 0
2, 136303, Note_on_c, 0, 54, 0
2, 136306, Note_on_c, 0, 47, 78
2, 136314, Note_on_c, 0, 80, 86
2, 136337, Note_on_c, 0, 47, 0
2, 136409, Note_on_c, 0, 80, 0
2, 136433, Note_on_c, 0, 81, 86
2, 136562, Note_on_c, 0, 52, 74
2, 136562, Note_on_c, 0, 80, 79
2, 136566, Note_on_c, 0, 49, 82
2, 136596, Note_on_c, 0, 49, 0
2, 136604, Note_on_c, 0, 81, 0
2, 136678, Note_on_c, 0, 78, 83
2, 136683, Note_on_c, 0, 80, 0
2, 136773, Note_on_c, 0, 78, 0
2, 136800, Note_on_c, 0, 52, 0
2, 136812, Note_on_c, 0, 44, 85
2, 136813, Note_on_c, 0, 76, 77
2, 136842, Note_on_c, 0, 44, 0
2, 136903, Note_on_c, 0, 76, 0
2, 136943, Note_on_c, 0, 75, 77
2, 137041, Note_on_c, 0, 75, 0
2, 137085, Note_on_c, 0, 52, 76
2, 137087, Note_on_c, 0, 45, 77
2, 137089, Note_on_c, 0, 73, 82
2, 137182, Note_on_c, 0, 73, 0
2, 137205, Note_on_c, 0, 71, 81
2, 137288, Note_on_c, 0, 71, 0
2, 137297, Note_on_c, 0, 45, 0
2, 137313, Note_on_c, 0, 52, 0
2, 137334, Note_on_c, 0, 73, 81
2, 137342, Note_on_c, 0, 64, 77
2, 137387, Note_on_c, 0, 64, 0
2, 137423, Note_on_c, 0, 73, 0
2, 137444, Note_on_c, 0, 40, 71
2, 137453, Note_on_c, 0, 74, 85
2, 137486, Note_on_c, 0, 40, 0
2, 137577, Note_on_c, 0, 69, 89
2, 137580, Note_on_c, 0, 42, 94
2, 137580, Note_on_c, 0, 73, 85
2, 137612, Note_on_c, 0, 74, 0
2, 137615, Note_on_c, 0, 42, 0
2, 137713, Note_on_c, 0, 71, 80
2, 137739, Note_on_c, 0, 73, 0
2, 137841, Note_on_c, 0, 37, 87
2, 137858, Note_on_c, 0, 73, 81
2, 137879, Note_on_c, 0, 37, 0
2, 137893, Note_on_c, 0, 71, 0
2, 137980, Note_on_c, 0, 74, 77
2, 138035, Note_on_c, 0, 73, 0
2, 138102, Note_on_c, 0, 74, 0
2, 138105, Note_on_c, 0, 39, 89
2, 138114, Note_on_c, 0, 71, 84
2, 138143, Note_on_c, 0, 39, 0
2, 138245, Note_on_c, 0, 73, 84
2, 138253, Note_on_c, 0, 71, 0
2, 138378, Note_on_c, 0, 75, 94
2, 138393, Note_on_c, 0, 59, 84
2, 138425, Note_on_c, 0, 59, 0
2, 138453, Note_on_c, 0, 73, 0
2, 138459, Note_on_c, 0, 69, 0
2, 138530, Note_on_c, 0, 71, 80
2, 138530, Note_on_c, 0, 75, 0
2, 138694, Note_on_c, 0, 76, 90
2, 138698, Note_on_c, 0, 61, 80
2, 138701, Note_on_c, 0, 71, 0
2, 138713, Note_on_c, 0, 68, 77
2, 138791, Note_on_c, 0, 68, 0
2, 138848, Note_on_c, 0, 64, 73
2, 138977, Note_on_c, 0, 66, 78
2, 138990, Note_on_c, 0, 64, 0
2, 139061, Note_on_c, 0, 61, 0
2, 139105, Note_on_c, 0, 68, 87
2, 139119, Note_on_c, 0, 66, 0
2, 139213, Note_on_c, 0, 68, 0
2, 139235, Note_on_c, 0, 69, 90
2, 139366, Note_on_c, 0, 71, 90
2, 139371, Note_on_c, 0, 54, 82
2, 139372, Note_on_c, 0, 69, 0
2, 139442, Note_on_c, 0, 54, 0
2, 139500, Note_on_c, 0, 56, 88
2, 139514, Note_on_c, 0, 73, 86
2, 139549, Note_on_c, 0, 71, 0
2, 139558, Note_on_c, 0, 56, 0
2, 139641, Note_on_c, 0, 57, 88
2, 139692, Note_on_c, 0, 57, 0
2, 139748, Note_on_c, 0, 73, 0
2, 139795, Note_on_c, 0, 75, 96
2, 139813, Note_on_c, 0, 59, 82
2, 139843, Note_on_c, 0, 59, 0
2, 139850, Note_on_c, 0, 76, 0
2, 139966, Note_on_c, 0, 73, 82
2, 140152, Note_on_c, 0, 71, 81
2, 140161, Note_on_c, 0, 47, 76
2, 140198, Note_on_c, 0, 47, 0
2, 140208, Note_on_c, 0, 73, 0
2, 140347, Note_on_c, 0, 69, 88
2, 140385, Note_on_c, 0, 71, 0
2, 140722, Note_on_c, 0, 76, 90
2, 140738, Note_on_c, 0, 40, 43
2, 140765, Note_on_c, 0, 75, 0
2, 141316, Note_on_c, 0, 69, 0
2, 141317, Note_on_c, 0, 68, 79
2, 141348, Note_on_c, 0, 68, 0
2, 141688, Note_on_c, 0, 66, 74
2, 141719, Note_on_c, 0, 66, 0
2, 142091, Note_on_c, 0, 68, 67
2, 142128, Note_on_c, 0, 68, 0
2, 142159, Note_on_c, 0, 66, 58
2, 142201, Note_on_c, 0, 66, 0
2, 142208, Note_on_c, 0, 68, 71
2, 144917, Note_on_c, 0, 68, 0
2, 144939, Note_on_c, 0, 76, 0
2, 144960, Note_on_c, 0, 40, 0
2, 144961, End_track
0, 0, End_of_file
