0, 0, Header, 1, 2, 480
1, 0, Start_track
1, 0, Tempo, 500000
1, 0, Time_signature, 4, 2, 24, 8
1, 1, End_track
2,0,Start_track
2,0, Note_on_c, 0, 64, 72
2,31, Note_on_c, 0, 64, 0
2,296, Note_on_c, 0, 66, 79
2,764, Note_on_c, 0, 66, 0
2,973, Note_on_c, 0, 59, 78
2,1107, Note_on_c, 0, 59, 0
2,1113, Note_on_c, 0, 61, 72
2,1215, Note_on_c, 0, 61, 0
2,1233, Note_on_c, 0, 63, 75
2,1334, Note_on_c, 0, 63, 0
2,1350, Note_on_c, 0, 64, 76
2,1454, Note_on_c, 0, 64, 0
2,1469, Note_on_c, 0, 63, 84
2,1582, Note_on_c, 0, 63, 0
2,1605, Note_on_c, 0, 64, 77
2,1720, Note_on_c, 0, 66, 81
2,1721, Note_on_c, 0, 64, 0
2,1845, Note_on_c, 0, 66, 0
2,1849, Note_on_c, 0, 68, 82
2,1947, Note_on_c, 0, 68, 0
2,1968, Note_on_c, 0, 69, 81
2,2046, Note_on_c, 0, 69, 0
2,2097, Note_on_c, 0, 71, 89
2,2153, Note_on_c, 0, 71, 0
2,2223, Note_on_c, 0, 68, 70
2,2326, Note_on_c, 0, 68, 0
2,2366, Note_on_c, 0, 73, 91
2,2380, Note_on_c, 0, 64, 51
2,2498, Note_on_c, 0, 64, 0
2,2504, Note_on_c, 0, 63, 67
2,2606, Note_on_c, 0, 63, 0
2,2644, Note_on_c, 0, 64, 62
2,2706, Note_on_c, 0, 64, 0
2,2750, Note_on_c, 0, 73, 0
2,2759, Note_on_c, 0, 66, 71
2,2834, Note_on_c, 0, 66, 0
2,2891, Note_on_c, 0, 64, 63
2,2955, Note_on_c, 0, 64, 0
2,2999, Note_on_c, 0, 66, 72
2,3018, Note_on_c, 0, 63, 61
2,3070, Note_on_c, 0, 63, 0
2,3077, Note_on_c, 0, 66, 0
2,3118, Note_on_c, 0, 68, 77
2,3136, Note_on_c, 0, 64, 64
2,3197, Note_on_c, 0, 68, 0
2,3206, Note_on_c, 0, 64, 0
2,3239, Note_on_c, 0, 70, 81
2,3257, Note_on_c, 0, 66, 64
2,3308, Note_on_c, 0, 66, 0
2,3319, Note_on_c, 0, 70, 0
2,3370, Note_on_c, 0, 71, 82
2,3373, Note_on_c, 0, 63, 71
2,3418, Note_on_c, 0, 63, 0
2,3450, Note_on_c, 0, 71, 0
2,3492, Note_on_c, 0, 61, 71
2,3495, Note_on_c, 0, 70, 81
2,3543, Note_on_c, 0, 61, 0
2,3582, Note_on_c, 0, 70, 0
2,3616, Note_on_c, 0, 63, 74
2,3623, Note_on_c, 0, 71, 77
2,3681, Note_on_c, 0, 63, 0
2,3707, Note_on_c, 0, 71, 0
2,3744, Note_on_c, 0, 73, 82
2,3745, Note_on_c, 0, 64, 72
2,3815, Note_on_c, 0, 64, 0
2,3863, Note_on_c, 0, 66, 74
2,3863, Note_on_c, 0, 75, 83
2,3907, Note_on_c, 0, 73, 0
2,3926, Note_on_c, 0, 66, 0
2,3975, Note_on_c, 0, 68, 79
2,3981, Note_on_c, 0, 76, 79
2,4010, Note_on_c, 0, 75, 0
2,4059, Note_on_c, 0, 68, 0
2,4102, Note_on_c, 0, 76, 0
2,4104, Note_on_c, 0, 69, 74
2,4113, Note_on_c, 0, 78, 83
2,4169, Note_on_c, 0, 69, 0
2,4225, Note_on_c, 0, 66, 74
2,4225, Note_on_c, 0, 78, 0
2,4229, Note_on_c, 0, 75, 83
2,4260, Note_on_c, 0, 66, 0
2,4324, Note_on_c, 0, 75, 0
2,4352, Note_on_c, 0, 68, 77
2,4359, Note_on_c, 0, 71, 79
2,4384, Note_on_c, 0, 68, 0
2,4418, Note_on_c, 0, 71, 0
2,4478, Note_on_c, 0, 69, 72
2,4546, Note_on_c, 0, 69, 0
2,4606, Note_on_c, 0, 59, 72
2,4611, Note_on_c, 0, 71, 70
2,4639, Note_on_c, 0, 59, 0
2,4661, Note_on_c, 0, 71, 0
2,4729, Note_on_c, 0, 73, 63
2,4776, Note_on_c, 0, 73, 0
2,4863, Note_on_c, 0, 64, 75
2,4877, Note_on_c, 0, 71, 56
2,4930, Note_on_c, 0, 71, 0
2,4994, Note_on_c, 0, 69, 62
2,5051, Note_on_c, 0, 69, 0
2,5136, Note_on_c, 0, 52, 75
2,5139, Note_on_c, 0, 71, 58
2,5174, Note_on_c, 0, 52, 0
2,5200, Note_on_c, 0, 71, 0
2,5255, Note_on_c, 0, 73, 58
2,5313, Note_on_c, 0, 73, 0
2,5406, Note_on_c, 0, 54, 84
2,5424, Note_on_c, 0, 69, 56
2,5480, Note_on_c, 0, 69, 0
2,5530, Note_on_c, 0, 68, 67
2,5570, Note_on_c, 0, 64, 0
2,5617, Note_on_c, 0, 68, 0
2,5674, Note_on_c, 0, 63, 67
2,5678, Note_on_c, 0, 69, 75
2,5711, Note_on_c, 0, 54, 0
2,5732, Note_on_c, 0, 63, 0
2,5748, Note_on_c, 0, 69, 0
2,5807, Note_on_c, 0, 71, 74
2,5948, Note_on_c, 0, 66, 78
2,5952, Note_on_c, 0, 69, 76
2,5959, Note_on_c, 0, 71, 0
2,6038, Note_on_c, 0, 69, 0
2,6074, Note_on_c, 0, 47, 66
2,6077, Note_on_c, 0, 68, 77
2,6174, Note_on_c, 0, 47, 0
2,6176, Note_on_c, 0, 68, 0
2,6195, Note_on_c, 0, 69, 74
2,6205, Note_on_c, 0, 49, 75
2,6272, Note_on_c, 0, 66, 0
2,6295, Note_on_c, 0, 49, 0
2,6320, Note_on_c, 0, 69, 0
2,6325, Note_on_c, 0, 71, 73
2,6332, Note_on_c, 0, 51, 68
2,6419, Note_on_c, 0, 51, 0
2,6451, Note_on_c, 0, 52, 72
2,6451, Note_on_c, 0, 71, 0
2,6457, Note_on_c, 0, 68, 78
2,6535, Note_on_c, 0, 68, 0
2,6540, Note_on_c, 0, 52, 0
2,6573, Note_on_c, 0, 51, 76
2,6576, Note_on_c, 0, 66, 76
2,6647, Note_on_c, 0, 66, 0
2,6680, Note_on_c, 0, 51, 0
2,6701, Note_on_c, 0, 52, 73
2,6704, Note_on_c, 0, 68, 79
2,6708, Note_on_c, 0, 59, 77
2,6748, Note_on_c, 0, 59, 0
2,6776, Note_on_c, 0, 68, 0
2,6778, Note_on_c, 0, 52, 0
2,6821, Note_on_c, 0, 70, 83
2,6828, Note_on_c, 0, 54, 79
2,6927, Note_on_c, 0, 70, 0
2,6940, Note_on_c, 0, 54, 0
2,6954, Note_on_c, 0, 56, 84
2,6957, Note_on_c, 0, 71, 87
2,6960, Note_on_c, 0, 64, 83
2,6995, Note_on_c, 0, 64, 0
2,7045, Note_on_c, 0, 56, 0
2,7075, Note_on_c, 0, 57, 76
2,7178, Note_on_c, 0, 57, 0
2,7219, Note_on_c, 0, 63, 87
2,7220, Note_on_c, 0, 59, 72
2,7260, Note_on_c, 0, 63, 0
2,7308, Note_on_c, 0, 59, 0
2,7338, Note_on_c, 0, 56, 64
2,7447, Note_on_c, 0, 56, 0
2,7479, Note_on_c, 0, 61, 81
2,7486, Note_on_c, 0, 52, 56
2,7609, Note_on_c, 0, 52, 0
2,7620, Note_on_c, 0, 51, 59
2,7757, Note_on_c, 0, 52, 58
2,7762, Note_on_c, 0, 51, 0
2,7863, Note_on_c, 0, 52, 0
2,7905, Note_on_c, 0, 54, 46
2,8007, Note_on_c, 0, 54, 0
2,8022, Note_on_c, 0, 52, 52
2,8025, Note_on_c, 0, 70, 75
2,8058, Note_on_c, 0, 71, 0
2,8146, Note_on_c, 0, 52, 0
2,8157, Note_on_c, 0, 51, 49
2,8268, Note_on_c, 0, 51, 0
2,8297, Note_on_c, 0, 52, 52
2,8354, Note_on_c, 0, 52, 0
2,8357, Note_on_c, 0, 61, 0
2,8411, Note_on_c, 0, 54, 57
2,8463, Note_on_c, 0, 70, 0
2,8467, Note_on_c, 0, 54, 0
2,8542, Note_on_c, 0, 51, 56
2,8550, Note_on_c, 0, 59, 63
2,8550, Note_on_c, 0, 71, 68
2,8582, Note_on_c, 0, 59, 0
2,8585, Note_on_c, 0, 71, 0
2,8604, Note_on_c, 0, 51, 0
2,8664, Note_on_c, 0, 49, 62
2,8750, Note_on_c, 0, 49, 0
2,8800, Note_on_c, 0, 51, 65
2,8801, Note_on_c, 0, 83, 91
2,8871, Note_on_c, 0, 51, 0
2,8873, Note_on_c, 0, 83, 0
2,8916, Note_on_c, 0, 52, 67
2,9048, Note_on_c, 0, 52, 0
2,9065, Note_on_c, 0, 54, 65
2,9066, Note_on_c, 0, 75, 88
2,9111, Note_on_c, 0, 75, 0
2,9172, Note_on_c, 0, 54, 0
2,9198, Note_on_c, 0, 56, 63
2,9279, Note_on_c, 0, 56, 0
2,9320, Note_on_c, 0, 78, 86
2,9332, Note_on_c, 0, 57, 66
2,9378, Note_on_c, 0, 78, 0
2,9395, Note_on_c, 0, 57, 0
2,9447, Note_on_c, 0, 54, 60
2,9540, Note_on_c, 0, 54, 0
2,9588, Note_on_c, 0, 56, 60
2,9592, Note_on_c, 0, 71, 80
2,9681, Note_on_c, 0, 56, 0
2,9713, Note_on_c, 0, 54, 57
2,9788, Note_on_c, 0, 54, 0
2,9846, Note_on_c, 0, 56, 61
2,9855, Note_on_c, 0, 76, 66
2,9909, Note_on_c, 0, 76, 0
2,9918, Note_on_c, 0, 56, 0
2,9962, Note_on_c, 0, 57, 62
2,10036, Note_on_c, 0, 57, 0
2,10106, Note_on_c, 0, 68, 72
2,10116, Note_on_c, 0, 59, 58
2,10179, Note_on_c, 0, 71, 0
2,10186, Note_on_c, 0, 68, 0
2,10196, Note_on_c, 0, 59, 0
2,10222, Note_on_c, 0, 61, 62
2,10302, Note_on_c, 0, 61, 0
2,10374, Note_on_c, 0, 62, 55
2,10374, Note_on_c, 0, 71, 78
2,10428, Note_on_c, 0, 62, 0
2,10510, Note_on_c, 0, 59, 56
2,10565, Note_on_c, 0, 59, 0
2,10618, Note_on_c, 0, 64, 80
2,10637, Note_on_c, 0, 61, 60
2,10670, Note_on_c, 0, 64, 0
2,10688, Note_on_c, 0, 61, 0
2,10766, Note_on_c, 0, 59, 60
2,10824, Note_on_c, 0, 59, 0
2,10890, Note_on_c, 0, 66, 82
2,10893, Note_on_c, 0, 61, 59
2,10893, Note_on_c, 0, 69, 80
2,10947, Note_on_c, 0, 71, 0
2,10965, Note_on_c, 0, 61, 0
2,11027, Note_on_c, 0, 63, 58
2,11082, Note_on_c, 0, 63, 0
2,11103, Note_on_c, 0, 69, 0
2,11148, Note_on_c, 0, 68, 73
2,11156, Note_on_c, 0, 64, 60
2,11182, Note_on_c, 0, 66, 0
2,11193, Note_on_c, 0, 68, 0
2,11213, Note_on_c, 0, 64, 0
2,11272, Note_on_c, 0, 63, 60
2,11324, Note_on_c, 0, 63, 0
2,11400, Note_on_c, 0, 61, 66
2,11407, Note_on_c, 0, 76, 86
2,11421, Note_on_c, 0, 64, 53
2,11456, Note_on_c, 0, 61, 0
2,11462, Note_on_c, 0, 76, 0
2,11463, Note_on_c, 0, 64, 0
2,11521, Note_on_c, 0, 59, 72
2,11600, Note_on_c, 0, 59, 0
2,11668, Note_on_c, 0, 57, 64
2,11673, Note_on_c, 0, 78, 93
2,11689, Note_on_c, 0, 64, 48
2,11768, Note_on_c, 0, 57, 0
2,11793, Note_on_c, 0, 56, 63
2,11876, Note_on_c, 0, 64, 0
2,11922, Note_on_c, 0, 57, 67
2,11925, Note_on_c, 0, 56, 0
2,12018, Note_on_c, 0, 57, 0
2,12045, Note_on_c, 0, 59, 72
2,12048, Note_on_c, 0, 78, 0
2,12179, Note_on_c, 0, 57, 69
2,12180, Note_on_c, 0, 59, 0
2,12183, Note_on_c, 0, 63, 68
2,12236, Note_on_c, 0, 57, 0
2,12238, Note_on_c, 0, 63, 0
2,12298, Note_on_c, 0, 56, 75
2,12301, Note_on_c, 0, 71, 76
2,12358, Note_on_c, 0, 56, 0
2,12377, Note_on_c, 0, 71, 0
2,12421, Note_on_c, 0, 57, 62
2,12433, Note_on_c, 0, 66, 73
2,12436, Note_on_c, 0, 73, 76
2,12476, Note_on_c, 0, 57, 0
2,12486, Note_on_c, 0, 66, 0
2,12505, Note_on_c, 0, 73, 0
2,12544, Note_on_c, 0, 59, 69
2,12551, Note_on_c, 0, 75, 81
2,12583, Note_on_c, 0, 59, 0
2,12645, Note_on_c, 0, 75, 0
2,12673, Note_on_c, 0, 59, 68
2,12685, Note_on_c, 0, 56, 69
2,12686, Note_on_c, 0, 76, 83
2,12719, Note_on_c, 0, 56, 0
2,12775, Note_on_c, 0, 76, 0
2,12810, Note_on_c, 0, 75, 79
2,12909, Note_on_c, 0, 75, 0
2,12935, Note_on_c, 0, 54, 73
2,12938, Note_on_c, 0, 76, 74
2,12973, Note_on_c, 0, 54, 0
2,13013, Note_on_c, 0, 76, 0
2,13053, Note_on_c, 0, 78, 74
2,13150, Note_on_c, 0, 78, 0
2,13172, Note_on_c, 0, 59, 0
2,13185, Note_on_c, 0, 80, 76
2,13187, Note_on_c, 0, 52, 70
2,13219, Note_on_c, 0, 52, 0
2,13265, Note_on_c, 0, 80, 0
2,13309, Note_on_c, 0, 81, 75
2,13388, Note_on_c, 0, 81, 0
2,13440, Note_on_c, 0, 71, 83
2,13443, Note_on_c, 0, 83, 76
2,13452, Note_on_c, 0, 51, 76
2,13475, Note_on_c, 0, 83, 0
2,13483, Note_on_c, 0, 51, 0
2,13520, Note_on_c, 0, 71, 0
2,13561, Note_on_c, 0, 80, 80
2,13642, Note_on_c, 0, 80, 0
2,13711, Note_on_c, 0, 73, 86
2,13713, Note_on_c, 0, 49, 87
2,13740, Note_on_c, 0, 76, 62
2,13749, Note_on_c, 0, 49, 0
2,13789, Note_on_c, 0, 76, 0
2,13846, Note_on_c, 0, 75, 68
2,13945, Note_on_c, 0, 75, 0
2,13963, Note_on_c, 0, 76, 70
2,13981, Note_on_c, 0, 59, 75
2,14012, Note_on_c, 0, 59, 0
2,14027, Note_on_c, 0, 76, 0
2,14090, Note_on_c, 0, 78, 68
2,14155, Note_on_c, 0, 73, 0
2,14192, Note_on_c, 0, 78, 0
2,14226, Note_on_c, 0, 76, 77
2,14227, Note_on_c, 0, 58, 69
2,14263, Note_on_c, 0, 58, 0
2,14311, Note_on_c, 0, 76, 0
2,14353, Note_on_c, 0, 75, 75
2,14355, Note_on_c, 0, 66, 72
2,14393, Note_on_c, 0, 66, 0
2,14415, Note_on_c, 0, 75, 0
2,14480, Note_on_c, 0, 54, 74
2,14480, Note_on_c, 0, 76, 78
2,14491, Note_on_c, 0, 68, 69
2,14512, Note_on_c, 0, 54, 0
2,14528, Note_on_c, 0, 68, 0
2,14560, Note_on_c, 0, 76, 0
2,14603, Note_on_c, 0, 78, 73
2,14610, Note_on_c, 0, 70, 77
2,14661, Note_on_c, 0, 70, 0
2,14686, Note_on_c, 0, 78, 0
2,14736, Note_on_c, 0, 75, 78
2,14743, Note_on_c, 0, 71, 71
2,14747, Note_on_c, 0, 59, 81
2,14801, Note_on_c, 0, 71, 0
2,14813, Note_on_c, 0, 75, 0
2,14873, Note_on_c, 0, 70, 73
2,14875, Note_on_c, 0, 73, 74
2,14918, Note_on_c, 0, 59, 0
2,14945, Note_on_c, 0, 70, 0
2,14953, Note_on_c, 0, 73, 0
2,15003, Note_on_c, 0, 75, 80
2,15017, Note_on_c, 0, 71, 55
2,15045, Note_on_c, 0, 71, 0
2,15064, Note_on_c, 0, 75, 0
2,15127, Note_on_c, 0, 76, 85
2,15148, Note_on_c, 0, 73, 74
2,15191, Note_on_c, 0, 73, 0
2,15193, Note_on_c, 0, 76, 0
2,15268, Note_on_c, 0, 78, 86
2,15274, Note_on_c, 0, 75, 63
2,15320, Note_on_c, 0, 75, 0
2,15333, Note_on_c, 0, 78, 0
2,15379, Note_on_c, 0, 76, 67
2,15388, Note_on_c, 0, 80, 93
2,15438, Note_on_c, 0, 76, 0
2,15462, Note_on_c, 0, 80, 0
2,15517, Note_on_c, 0, 78, 63
2,15527, Note_on_c, 0, 81, 99
2,15589, Note_on_c, 0, 78, 0
2,15665, Note_on_c, 0, 75, 55
2,15700, Note_on_c, 0, 75, 0
2,15787, Note_on_c, 0, 71, 69
2,15827, Note_on_c, 0, 71, 0
2,15829, Note_on_c, 0, 81, 0
2,15906, Note_on_c, 0, 69, 69
2,15994, Note_on_c, 0, 69, 0
2,16035, Note_on_c, 0, 71, 63
2,16037, Note_on_c, 0, 75, 93
2,16090, Note_on_c, 0, 75, 0
2,16091, Note_on_c, 0, 71, 0
2,16170, Note_on_c, 0, 73, 58
2,16232, Note_on_c, 0, 73, 0
2,16314, Note_on_c, 0, 80, 93
2,16323, Note_on_c, 0, 71, 53
2,16415, Note_on_c, 0, 71, 0
2,16430, Note_on_c, 0, 69, 62
2,16516, Note_on_c, 0, 69, 0
2,16563, Note_on_c, 0, 71, 64
2,16634, Note_on_c, 0, 71, 0
2,16699, Note_on_c, 0, 73, 58
2,16750, Note_on_c, 0, 73, 0
2,16839, Note_on_c, 0, 69, 60
2,16885, Note_on_c, 0, 69, 0
2,16964, Note_on_c, 0, 68, 63
2,17006, Note_on_c, 0, 68, 0
2,17071, Note_on_c, 0, 78, 70
2,17084, Note_on_c, 0, 69, 65
2,17105, Note_on_c, 0, 80, 0
2,17122, Note_on_c, 0, 69, 0
2,17146, Note_on_c, 0, 78, 0
2,17185, Note_on_c, 0, 71, 69
2,17204, Note_on_c, 0, 76, 69
2,17230, Note_on_c, 0, 71, 0
2,17292, Note_on_c, 0, 76, 0
2,17317, Note_on_c, 0, 69, 66
2,17329, Note_on_c, 0, 75, 75
2,17362, Note_on_c, 0, 69, 0
2,17434, Note_on_c, 0, 68, 61
2,17461, Note_on_c, 0, 68, 0
2,17579, Note_on_c, 0, 59, 68
2,17594, Note_on_c, 0, 69, 60
2,17613, Note_on_c, 0, 59, 0
2,17635, Note_on_c, 0, 69, 0
2,17714, Note_on_c, 0, 71, 50
2,17779, Note_on_c, 0, 71, 0
2,17852, Note_on_c, 0, 61, 78
2,17862, Note_on_c, 0, 68, 65
2,17863, Note_on_c, 0, 75, 0
2,17864, Note_on_c, 0, 76, 63
2,17974, Note_on_c, 0, 76, 0
2,18002, Note_on_c, 0, 75, 66
2,18018, Note_on_c, 0, 68, 0
2,18084, Note_on_c, 0, 75, 0
2,18122, Note_on_c, 0, 64, 76
2,18139, Note_on_c, 0, 76, 65
2,18167, Note_on_c, 0, 64, 0
2,18211, Note_on_c, 0, 61, 0
2,18224, Note_on_c, 0, 76, 0
2,18257, Note_on_c, 0, 78, 74
2,18348, Note_on_c, 0, 78, 0
2,18390, Note_on_c, 0, 69, 84
2,18405, Note_on_c, 0, 76, 66
2,18467, Note_on_c, 0, 76, 0
2,18524, Note_on_c, 0, 75, 73
2,18526, Note_on_c, 0, 54, 66
2,18589, Note_on_c, 0, 54, 0
2,18640, Note_on_c, 0, 56, 74
2,18648, Note_on_c, 0, 76, 71
2,18664, Note_on_c, 0, 75, 0
2,18709, Note_on_c, 0, 56, 0
2,18750, Note_on_c, 0, 76, 0
2,18766, Note_on_c, 0, 57, 72
2,18773, Note_on_c, 0, 78, 80
2,18859, Note_on_c, 0, 57, 0
2,18897, Note_on_c, 0, 59, 75
2,18901, Note_on_c, 0, 78, 0
2,18904, Note_on_c, 0, 75, 86
2,18992, Note_on_c, 0, 59, 0
2,18998, Note_on_c, 0, 75, 0
2,19022, Note_on_c, 0, 57, 71
2,19024, Note_on_c, 0, 73, 79
2,19120, Note_on_c, 0, 57, 0
2,19157, Note_on_c, 0, 75, 81
2,19164, Note_on_c, 0, 59, 71
2,19207, Note_on_c, 0, 73, 0
2,19264, Note_on_c, 0, 59, 0
2,19271, Note_on_c, 0, 61, 74
2,19279, Note_on_c, 0, 75, 0
2,19279, Note_on_c, 0, 76, 79
2,19329, Note_on_c, 0, 69, 0
2,19382, Note_on_c, 0, 61, 0
2,19403, Note_on_c, 0, 63, 70
2,19414, Note_on_c, 0, 78, 88
2,19442, Note_on_c, 0, 76, 0
2,19484, Note_on_c, 0, 63, 0
2,19526, Note_on_c, 0, 64, 68
2,19534, Note_on_c, 0, 72, 81
2,19612, Note_on_c, 0, 64, 0
2,19662, Note_on_c, 0, 63, 65
2,19668, Note_on_c, 0, 73, 81
2,19693, Note_on_c, 0, 72, 0
2,19733, Note_on_c, 0, 63, 0
2,19781, Note_on_c, 0, 61, 73
2,19786, Note_on_c, 0, 75, 85
2,19834, Note_on_c, 0, 73, 0
2,19837, Note_on_c, 0, 61, 0
2,19909, Note_on_c, 0, 75, 0
2,19918, Note_on_c, 0, 68, 90
2,19935, Note_on_c, 0, 60, 62
2,20006, Note_on_c, 0, 60, 0
2,20049, Note_on_c, 0, 56, 69
2,20143, Note_on_c, 0, 56, 0
2,20182, Note_on_c, 0, 58, 64
2,20184, Note_on_c, 0, 76, 82
2,20209, Note_on_c, 0, 78, 0
2,20238, Note_on_c, 0, 58, 0
2,20300, Note_on_c, 0, 60, 65
2,20304, Note_on_c, 0, 75, 86
2,20315, Note_on_c, 0, 76, 0
2,20390, Note_on_c, 0, 60, 0
2,20406, Note_on_c, 0, 75, 0
2,20420, Note_on_c, 0, 61, 65
2,20437, Note_on_c, 0, 76, 87
2,20490, Note_on_c, 0, 68, 0
2,20493, Note_on_c, 0, 61, 0
2,20554, Note_on_c, 0, 63, 59
2,20652, Note_on_c, 0, 63, 0
2,20704, Note_on_c, 0, 73, 80
2,20708, Note_on_c, 0, 64, 58
2,20748, Note_on_c, 0, 73, 0
2,20769, Note_on_c, 0, 64, 0
2,20825, Note_on_c, 0, 61, 54
2,20936, Note_on_c, 0, 61, 0
2,20959, Note_on_c, 0, 57, 58
2,20981, Note_on_c, 0, 66, 79
2,21016, Note_on_c, 0, 76, 0
2,21101, Note_on_c, 0, 56, 58
2,21101, Note_on_c, 0, 57, 0
2,21241, Note_on_c, 0, 56, 0
2,21242, Note_on_c, 0, 57, 62
2,21256, Note_on_c, 0, 76, 85
2,21361, Note_on_c, 0, 57, 0
2,21393, Note_on_c, 0, 59, 62
2,21488, Note_on_c, 0, 59, 0
2,21516, Note_on_c, 0, 57, 63
2,21526, Note_on_c, 0, 75, 80
2,21577, Note_on_c, 0, 76, 0
2,21621, Note_on_c, 0, 57, 0
2,21633, Note_on_c, 0, 56, 67
2,21731, Note_on_c, 0, 56, 0
2,21760, Note_on_c, 0, 57, 63
2,21779, Note_on_c, 0, 73, 70
2,21820, Note_on_c, 0, 75, 0
2,21831, Note_on_c, 0, 57, 0
2,21896, Note_on_c, 0, 59, 62
2,21976, Note_on_c, 0, 59, 0
2,22014, Note_on_c, 0, 56, 57
2,22035, Note_on_c, 0, 72, 68
2,22058, Note_on_c, 0, 73, 0
2,22079, Note_on_c, 0, 72, 0
2,22096, Note_on_c, 0, 56, 0
2,22148, Note_on_c, 0, 52, 54
2,22210, Note_on_c, 0, 52, 0
2,22276, Note_on_c, 0, 66, 0
2,22284, Note_on_c, 0, 68, 83
2,22292, Note_on_c, 0, 54, 52
2,22335, Note_on_c, 0, 68, 0
2,22354, Note_on_c, 0, 54, 0
2,22423, Note_on_c, 0, 56, 55
2,22501, Note_on_c, 0, 56, 0
2,22539, Note_on_c, 0, 73, 90
2,22548, Note_on_c, 0, 64, 75
2,22555, Note_on_c, 0, 57, 67
2,22581, Note_on_c, 0, 64, 0
2,22621, Note_on_c, 0, 57, 0
2,22669, Note_on_c, 0, 59, 73
2,22754, Note_on_c, 0, 59, 0
2,22803, Note_on_c, 0, 61, 66
2,22809, Note_on_c, 0, 69, 76
2,22861, Note_on_c, 0, 61, 0
2,22876, Note_on_c, 0, 69, 0
2,22913, Note_on_c, 0, 57, 70
2,22979, Note_on_c, 0, 57, 0
2,23044, Note_on_c, 0, 54, 70
2,23060, Note_on_c, 0, 63, 74
2,23098, Note_on_c, 0, 54, 0
2,23098, Note_on_c, 0, 63, 0
2,23112, Note_on_c, 0, 73, 0
2,23161, Note_on_c, 0, 52, 71
2,23221, Note_on_c, 0, 52, 0
2,23300, Note_on_c, 0, 54, 65
2,23310, Note_on_c, 0, 75, 93
2,23329, Note_on_c, 0, 66, 78
2,23357, Note_on_c, 0, 54, 0
2,23388, Note_on_c, 0, 66, 0
2,23395, Note_on_c, 0, 75, 0
2,23443, Note_on_c, 0, 56, 59
2,23502, Note_on_c, 0, 56, 0
2,23570, Note_on_c, 0, 68, 94
2,23583, Note_on_c, 0, 60, 72
2,23584, Note_on_c, 0, 54, 64
2,23637, Note_on_c, 0, 60, 0
2,23638, Note_on_c, 0, 54, 0
2,23697, Note_on_c, 0, 68, 0
2,23698, Note_on_c, 0, 52, 67
2,23753, Note_on_c, 0, 52, 0
2,23849, Note_on_c, 0, 70, 79
2,23851, Note_on_c, 0, 54, 70
2,23860, Note_on_c, 0, 63, 67
2,23896, Note_on_c, 0, 54, 0
2,23896, Note_on_c, 0, 63, 0
2,23918, Note_on_c, 0, 70, 0
2,23970, Note_on_c, 0, 56, 73
2,23971, Note_on_c, 0, 72, 78
2,24008, Note_on_c, 0, 56, 0
2,24011, Note_on_c, 0, 72, 0
2,24087, Note_on_c, 0, 56, 73
2,24087, Note_on_c, 0, 73, 88
2,24091, Note_on_c, 0, 52, 76
2,24121, Note_on_c, 0, 52, 0
2,24130, Note_on_c, 0, 56, 0
2,24167, Note_on_c, 0, 73, 0
2,24214, Note_on_c, 0, 72, 80
2,24340, Note_on_c, 0, 72, 0
2,24344, Note_on_c, 0, 51, 80
2,24346, Note_on_c, 0, 73, 79
2,24378, Note_on_c, 0, 51, 0
2,24470, Note_on_c, 0, 75, 84
2,24497, Note_on_c, 0, 73, 0
2,24567, Note_on_c, 0, 75, 0
2,24599, Note_on_c, 0, 49, 77
2,24601, Note_on_c, 0, 76, 82
2,24642, Note_on_c, 0, 49, 0
2,24691, Note_on_c, 0, 76, 0
2,24730, Note_on_c, 0, 78, 82
2,24847, Note_on_c, 0, 52, 76
2,24861, Note_on_c, 0, 80, 87
2,24878, Note_on_c, 0, 52, 0
2,24906, Note_on_c, 0, 78, 0
2,24982, Note_on_c, 0, 76, 76
2,24987, Note_on_c, 0, 80, 0
2,25075, Note_on_c, 0, 76, 0
2,25106, Note_on_c, 0, 73, 76
2,25120, Note_on_c, 0, 46, 74
2,25155, Note_on_c, 0, 46, 0
2,25188, Note_on_c, 0, 73, 0
2,25232, Note_on_c, 0, 71, 75
2,25327, Note_on_c, 0, 71, 0
2,25356, Note_on_c, 0, 73, 73
2,25358, Note_on_c, 0, 56, 78
2,25396, Note_on_c, 0, 56, 0
2,25478, Note_on_c, 0, 73, 0
2,25485, Note_on_c, 0, 75, 72
2,25611, Note_on_c, 0, 75, 0
2,25619, Note_on_c, 0, 58, 93
2,25623, Note_on_c, 0, 55, 44
2,25630, Note_on_c, 0, 73, 69
2,25659, Note_on_c, 0, 55, 0
2,25735, Note_on_c, 0, 73, 0
2,25778, Note_on_c, 0, 71, 59
2,25850, Note_on_c, 0, 71, 0
2,25862, Note_on_c, 0, 51, 65
2,25892, Note_on_c, 0, 73, 64
2,25907, Note_on_c, 0, 51, 0
2,26022, Note_on_c, 0, 75, 65
2,26041, Note_on_c, 0, 73, 0
2,26098, Note_on_c, 0, 75, 0
2,26138, Note_on_c, 0, 44, 76
2,26143, Note_on_c, 0, 71, 68
2,26187, Note_on_c, 0, 44, 0
2,26252, Note_on_c, 0, 71, 0
2,26275, Note_on_c, 0, 70, 68
2,26379, Note_on_c, 0, 70, 0
2,26404, Note_on_c, 0, 71, 66
2,26414, Note_on_c, 0, 46, 60
2,26429, Note_on_c, 0, 58, 0
2,26476, Note_on_c, 0, 46, 0
2,26492, Note_on_c, 0, 71, 0
2,26531, Note_on_c, 0, 73, 66
2,26644, Note_on_c, 0, 47, 60
2,26668, Note_on_c, 0, 56, 77
2,26668, Note_on_c, 0, 75, 71
2,26701, Note_on_c, 0, 47, 0
2,26727, Note_on_c, 0, 73, 0
2,26795, Note_on_c, 0, 75, 0
2,26798, Note_on_c, 0, 76, 69
2,26905, Note_on_c, 0, 76, 0
2,26911, Note_on_c, 0, 46, 64
2,26937, Note_on_c, 0, 78, 66
2,26955, Note_on_c, 0, 46, 0
2,27025, Note_on_c, 0, 78, 0
2,27050, Note_on_c, 0, 75, 63
2,27117, Note_on_c, 0, 75, 0
2,27164, Note_on_c, 0, 44, 59
2,27170, Note_on_c, 0, 71, 66
2,27182, Note_on_c, 0, 56, 0
2,27208, Note_on_c, 0, 44, 0
2,27219, Note_on_c, 0, 71, 0
2,27293, Note_on_c, 0, 69, 60
2,27349, Note_on_c, 0, 69, 0
2,27421, Note_on_c, 0, 71, 65
2,27435, Note_on_c, 0, 54, 61
2,27468, Note_on_c, 0, 54, 0
2,27475, Note_on_c, 0, 71, 0
2,27542, Note_on_c, 0, 73, 62
2,27596, Note_on_c, 0, 73, 0
2,27675, Note_on_c, 0, 71, 62
2,27676, Note_on_c, 0, 56, 73
2,27679, Note_on_c, 0, 53, 61
2,27719, Note_on_c, 0, 53, 0
2,27736, Note_on_c, 0, 71, 0
2,27797, Note_on_c, 0, 69, 63
2,27865, Note_on_c, 0, 69, 0
2,27923, Note_on_c, 0, 71, 60
2,27936, Note_on_c, 0, 49, 66
2,27974, Note_on_c, 0, 49, 0
2,28028, Note_on_c, 0, 71, 0
2,28046, Note_on_c, 0, 73, 68
2,28098, Note_on_c, 0, 73, 0
2,28175, Note_on_c, 0, 69, 60
2,28190, Note_on_c, 0, 42, 62
2,28235, Note_on_c, 0, 42, 0
2,28253, Note_on_c, 0, 69, 0
2,28293, Note_on_c, 0, 68, 66
2,28393, Note_on_c, 0, 68, 0
2,28429, Note_on_c, 0, 69, 60
2,28438, Note_on_c, 0, 44, 60
2,28471, Note_on_c, 0, 56, 0
2,28501, Note_on_c, 0, 69, 0
2,28522, Note_on_c, 0, 44, 0
2,28544, Note_on_c, 0, 71, 64
2,28620, Note_on_c, 0, 71, 0
2,28674, Note_on_c, 0, 45, 54
2,28679, Note_on_c, 0, 73, 61
2,28688, Note_on_c, 0, 54, 56
2,28718, Note_on_c, 0, 45, 0
2,28754, Note_on_c, 0, 73, 0
2,28805, Note_on_c, 0, 75, 67
2,28931, Note_on_c, 0, 44, 60
2,28931, Note_on_c, 0, 75, 0
2,28936, Note_on_c, 0, 76, 67
2,28970, Note_on_c, 0, 44, 0
2,29050, Note_on_c, 0, 76, 0
2,29057, Note_on_c, 0, 73, 62
2,29149, Note_on_c, 0, 73, 0
2,29178, Control_c, 0, 67, 13
2,29180, Note_on_c, 0, 75, 66
2,29189, Note_on_c, 0, 54, 0
2,29192, Note_on_c, 0, 42, 61
2,29197, Control_c, 0, 67, 36
2,29217, Control_c, 0, 67, 63
2,29231, Note_on_c, 0, 42, 0
2,29236, Control_c, 0, 67, 103
2,29248, Note_on_c, 0, 75, 0
2,29255, Control_c, 0, 67, 127
2,29299, Note_on_c, 0, 73, 67
2,29441, Note_on_c, 0, 73, 0
2,29442, Note_on_c, 0, 52, 56
2,29450, Note_on_c, 0, 75, 69
2,29485, Note_on_c, 0, 52, 0
2,29508, Note_on_c, 0, 75, 0
2,29565, Note_on_c, 0, 76, 69
2,29646, Note_on_c, 0, 76, 0
2,29686, Note_on_c, 0, 51, 51
2,29691, Note_on_c, 0, 54, 67
2,29694, Note_on_c, 0, 78, 71
2,29739, Note_on_c, 0, 51, 0
2,29806, Note_on_c, 0, 80, 74
2,29828, Note_on_c, 0, 78, 0
2,29888, Note_on_c, 0, 80, 0
2,29938, Note_on_c, 0, 81, 75
2,29958, Note_on_c, 0, 49, 49
2,30008, Note_on_c, 0, 49, 0
2,30029, Note_on_c, 0, 81, 0
2,30060, Note_on_c, 0, 78, 75
2,30130, Note_on_c, 0, 78, 0
2,30187, Note_on_c, 0, 80, 76
2,30196, Note_on_c, 0, 48, 55
2,30238, Note_on_c, 0, 48, 0
2,30260, Note_on_c, 0, 80, 0
2,30304, Note_on_c, 0, 78, 74
2,30378, Note_on_c, 0, 78, 0
2,30436, Note_on_c, 0, 76, 68
2,30438, Note_on_c, 0, 44, 53
2,30462, Note_on_c, 0, 54, 0
2,30476, Note_on_c, 0, 44, 0
2,30503, Control_c, 0, 67, 126
2,30511, Note_on_c, 0, 76, 0
2,30522, Control_c, 0, 67, 123
2,30541, Control_c, 0, 67, 117
2,30545, Note_on_c, 0, 75, 72
2,30560, Control_c, 0, 67, 111
2,30580, Control_c, 0, 67, 103
2,30599, Control_c, 0, 67, 90
2,30618, Control_c, 0, 67, 78
2,30637, Control_c, 0, 67, 63
2,30657, Control_c, 0, 67, 48
2,30676, Control_c, 0, 67, 32
2,30681, Note_on_c, 0, 73, 68
2,30692, Note_on_c, 0, 45, 59
2,30693, Note_on_c, 0, 52, 61
2,30695, Control_c, 0, 67, 15
2,30706, Note_on_c, 0, 75, 0
2,30714, Control_c, 0, 67, 0
2,30721, Note_on_c, 0, 45, 0
2,30732, Note_on_c, 0, 52, 0
2,30780, Note_on_c, 0, 73, 0
2,30796, Note_on_c, 0, 71, 76
2,30867, Note_on_c, 0, 71, 0
2,30939, Note_on_c, 0, 61, 91
2,30939, Note_on_c, 0, 69, 71
2,30962, Note_on_c, 0, 52, 58
2,30976, Note_on_c, 0, 61, 0
2,30993, Note_on_c, 0, 52, 0
2,31012, Note_on_c, 0, 69, 0
2,31060, Note_on_c, 0, 68, 77
2,31146, Note_on_c, 0, 68, 0
2,31214, Note_on_c, 0, 63, 92
2,31215, Note_on_c, 0, 66, 75
2,31222, Note_on_c, 0, 54, 81
2,31300, Note_on_c, 0, 66, 0
2,31314, Note_on_c, 0, 54, 0
2,31338, Note_on_c, 0, 68, 76
2,31342, Note_on_c, 0, 52, 71
2,31458, Note_on_c, 0, 68, 0
2,31461, Note_on_c, 0, 63, 0
2,31466, Note_on_c, 0, 69, 74
2,31478, Note_on_c, 0, 54, 84
2,31486, Note_on_c, 0, 52, 0
2,31509, Note_on_c, 0, 54, 0
2,31582, Note_on_c, 0, 69, 0
2,31605, Note_on_c, 0, 66, 66
2,31662, Note_on_c, 0, 66, 0
2,31729, Note_on_c, 0, 56, 88
2,31735, Note_on_c, 0, 63, 71
2,31761, Note_on_c, 0, 56, 0
2,31780, Note_on_c, 0, 63, 0
2,31864, Note_on_c, 0, 56, 74
2,31901, Note_on_c, 0, 56, 0
2,31988, Note_on_c, 0, 44, 72
2,31988, Note_on_c, 0, 68, 83
2,31990, Note_on_c, 0, 58, 81
2,32021, Note_on_c, 0, 58, 0
2,32022, Note_on_c, 0, 44, 0
2,32074, Note_on_c, 0, 68, 0
2,32109, Note_on_c, 0, 60, 73
2,32170, Note_on_c, 0, 60, 0
2,32242, Note_on_c, 0, 49, 86
2,32243, Note_on_c, 0, 61, 77
2,32251, Note_on_c, 0, 64, 82
2,32277, Note_on_c, 0, 61, 0
2,32283, Note_on_c, 0, 64, 0
2,32296, Note_on_c, 0, 49, 0
2,32374, Note_on_c, 0, 60, 74
2,32461, Note_on_c, 0, 60, 0
2,32490, Note_on_c, 0, 68, 84
2,32503, Note_on_c, 0, 61, 73
2,32541, Note_on_c, 0, 68, 0
2,32599, Note_on_c, 0, 61, 0
2,32616, Note_on_c, 0, 63, 80
2,32721, Note_on_c, 0, 63, 0
2,32744, Note_on_c, 0, 64, 80
2,32744, Note_on_c, 0, 73, 90
2,32794, Note_on_c, 0, 73, 0
2,32828, Note_on_c, 0, 64, 0
2,32869, Note_on_c, 0, 66, 80
2,32978, Note_on_c, 0, 66, 0
2,32993, Note_on_c, 0, 68, 84
2,32998, Note_on_c, 0, 71, 89
2,33045, Note_on_c, 0, 71, 0
2,33078, Note_on_c, 0, 68, 0
2,33117, Note_on_c, 0, 64, 77
2,33220, Note_on_c, 0, 64, 0
2,33260, Note_on_c, 0, 61, 72
2,33265, Note_on_c, 0, 76, 86
2,33365, Note_on_c, 0, 61, 0
2,33380, Note_on_c, 0, 59, 74
2,33387, Note_on_c, 0, 75, 83
2,33439, Note_on_c, 0, 76, 0
2,33500, Note_on_c, 0, 59, 0
2,33507, Note_on_c, 0, 61, 70
2,33519, Note_on_c, 0, 73, 79
2,33564, Note_on_c, 0, 75, 0
2,33620, Note_on_c, 0, 61, 0
2,33629, Note_on_c, 0, 71, 88
2,33633, Note_on_c, 0, 73, 0
2,33648, Note_on_c, 0, 63, 64
2,33720, Note_on_c, 0, 63, 0
2,33769, Note_on_c, 0, 61, 65
2,33775, Note_on_c, 0, 69, 90
2,33783, Note_on_c, 0, 71, 0
2,33885, Note_on_c, 0, 61, 0
2,33904, Note_on_c, 0, 59, 63
2,34006, Note_on_c, 0, 59, 0
2,34036, Note_on_c, 0, 61, 59
2,34121, Note_on_c, 0, 61, 0
2,34172, Note_on_c, 0, 63, 57
2,34245, Note_on_c, 0, 63, 0
2,34304, Note_on_c, 0, 69, 0
2,34306, Note_on_c, 0, 59, 61
2,34346, Note_on_c, 0, 59, 0
2,34410, Note_on_c, 0, 56, 64
2,34518, Note_on_c, 0, 56, 0
2,34536, Note_on_c, 0, 57, 60
2,34549, Note_on_c, 0, 63, 69
2,34587, Note_on_c, 0, 63, 0
2,34601, Note_on_c, 0, 57, 0
2,34654, Note_on_c, 0, 59, 70
2,34754, Note_on_c, 0, 59, 0
2,34788, Note_on_c, 0, 61, 66
2,34793, Note_on_c, 0, 69, 78
2,34827, Note_on_c, 0, 69, 0
2,34856, Note_on_c, 0, 61, 0
2,34920, Note_on_c, 0, 63, 62
2,34999, Note_on_c, 0, 63, 0
2,35050, Note_on_c, 0, 64, 59
2,35058, Note_on_c, 0, 68, 76
2,35089, Note_on_c, 0, 68, 0
2,35117, Note_on_c, 0, 64, 0
2,35175, Note_on_c, 0, 61, 57
2,35278, Note_on_c, 0, 61, 0
2,35302, Note_on_c, 0, 57, 62
2,35324, Note_on_c, 0, 73, 71
2,35400, Note_on_c, 0, 57, 0
2,35404, Note_on_c, 0, 73, 0
2,35431, Note_on_c, 0, 56, 62
2,35441, Note_on_c, 0, 71, 72
2,35519, Note_on_c, 0, 71, 0
2,35559, Note_on_c, 0, 57, 64
2,35561, Note_on_c, 0, 56, 0
2,35569, Note_on_c, 0, 69, 72
2,35634, Note_on_c, 0, 57, 0
2,35661, Note_on_c, 0, 69, 0
2,35682, Note_on_c, 0, 68, 72
2,35684, Note_on_c, 0, 59, 63
2,35751, Note_on_c, 0, 59, 0
2,35809, Note_on_c, 0, 57, 63
2,35820, Note_on_c, 0, 68, 0
2,35822, Note_on_c, 0, 66, 68
2,35877, Note_on_c, 0, 57, 0
2,35937, Note_on_c, 0, 56, 62
2,36008, Note_on_c, 0, 56, 0
2,36052, Note_on_c, 0, 57, 58
2,36136, Note_on_c, 0, 57, 0
2,36196, Note_on_c, 0, 59, 60
2,36268, Note_on_c, 0, 59, 0
2,36315, Note_on_c, 0, 56, 62
2,36381, Note_on_c, 0, 56, 0
2,36439, Note_on_c, 0, 54, 60
2,36501, Note_on_c, 0, 54, 0
2,36520, Note_on_c, 0, 66, 0
2,36560, Note_on_c, 0, 56, 65
2,36574, Note_on_c, 0, 64, 49
2,36618, Note_on_c, 0, 56, 0
2,36628, Note_on_c, 0, 64, 0
2,36678, Note_on_c, 0, 57, 61
2,36685, Note_on_c, 0, 63, 58
2,36735, Note_on_c, 0, 57, 0
2,36753, Note_on_c, 0, 63, 0
2,36801, Note_on_c, 0, 56, 69
2,36810, Note_on_c, 0, 64, 55
2,36833, Note_on_c, 0, 56, 0
2,36874, Note_on_c, 0, 64, 0
2,36933, Note_on_c, 0, 66, 60
2,37059, Note_on_c, 0, 68, 64
2,37071, Note_on_c, 0, 52, 68
2,37075, Note_on_c, 0, 59, 66
2,37080, Note_on_c, 0, 66, 0
2,37139, Note_on_c, 0, 68, 0
2,37150, Note_on_c, 0, 52, 0
2,37194, Note_on_c, 0, 64, 56
2,37346, Note_on_c, 0, 64, 0
2,37352, Note_on_c, 0, 54, 77
2,37356, Note_on_c, 0, 61, 61
2,37448, Note_on_c, 0, 61, 0
2,37493, Note_on_c, 0, 68, 66
2,37615, Note_on_c, 0, 59, 0
2,37635, Note_on_c, 0, 66, 63
2,37636, Note_on_c, 0, 57, 61
2,37648, Note_on_c, 0, 68, 0
2,37692, Note_on_c, 0, 57, 0
2,37704, Note_on_c, 0, 66, 0
2,37767, Note_on_c, 0, 56, 64
2,37769, Note_on_c, 0, 64, 58
2,37829, Note_on_c, 0, 56, 0
2,37834, Note_on_c, 0, 54, 0
2,37868, Note_on_c, 0, 64, 0
2,37891, Note_on_c, 0, 57, 67
2,37898, Note_on_c, 0, 63, 67
2,37934, Note_on_c, 0, 57, 0
2,38023, Note_on_c, 0, 47, 69
2,38036, Note_on_c, 0, 61, 63
2,38120, Note_on_c, 0, 47, 0
2,38133, Note_on_c, 0, 63, 0
2,38159, Note_on_c, 0, 49, 70
2,38159, Note_on_c, 0, 59, 72
2,38199, Note_on_c, 0, 61, 0
2,38239, Note_on_c, 0, 59, 0
2,38254, Note_on_c, 0, 49, 0
2,38274, Note_on_c, 0, 51, 69
2,38296, Note_on_c, 0, 57, 64
2,38371, Note_on_c, 0, 51, 0
2,38383, Note_on_c, 0, 57, 0
2,38404, Note_on_c, 0, 52, 70
2,38419, Note_on_c, 0, 56, 75
2,38488, Note_on_c, 0, 56, 0
2,38495, Note_on_c, 0, 52, 0
2,38530, Note_on_c, 0, 51, 69
2,38548, Note_on_c, 0, 59, 72
2,38629, Note_on_c, 0, 51, 0
2,38638, Note_on_c, 0, 59, 0
2,38669, Note_on_c, 0, 52, 71
2,38674, Note_on_c, 0, 61, 74
2,38753, Note_on_c, 0, 61, 0
2,38764, Note_on_c, 0, 52, 0
2,38790, Note_on_c, 0, 54, 79
2,38792, Note_on_c, 0, 63, 80
2,38876, Note_on_c, 0, 63, 0
2,38916, Note_on_c, 0, 54, 0
2,38921, Note_on_c, 0, 64, 81
2,38925, Note_on_c, 0, 56, 80
2,39016, Note_on_c, 0, 56, 0
2,39026, Note_on_c, 0, 64, 0
2,39045, Note_on_c, 0, 57, 78
2,39046, Note_on_c, 0, 66, 81
2,39145, Note_on_c, 0, 57, 0
2,39168, Note_on_c, 0, 68, 82
2,39173, Note_on_c, 0, 59, 78
2,39202, Note_on_c, 0, 66, 0
2,39266, Note_on_c, 0, 68, 0
2,39271, Note_on_c, 0, 59, 0
2,39282, Note_on_c, 0, 64, 84
2,39292, Note_on_c, 0, 56, 73
2,39404, Note_on_c, 0, 56, 0
2,39404, Note_on_c, 0, 64, 0
2,39426, Note_on_c, 0, 73, 89
2,39429, Note_on_c, 0, 52, 66
2,39557, Note_on_c, 0, 51, 66
2,39564, Note_on_c, 0, 52, 0
2,39706, Note_on_c, 0, 51, 0
2,39713, Note_on_c, 0, 52, 61
2,39796, Note_on_c, 0, 52, 0
2,39818, Note_on_c, 0, 54, 70
2,39863, Note_on_c, 0, 73, 0
2,39942, Note_on_c, 0, 54, 0
2,39944, Note_on_c, 0, 51, 60
2,39984, Note_on_c, 0, 52, 56
2,39993, Note_on_c, 0, 51, 0
2,40071, Note_on_c, 0, 51, 74
2,40079, Note_on_c, 0, 52, 0
2,40082, Note_on_c, 0, 66, 69
2,40134, Note_on_c, 0, 51, 0
2,40138, Note_on_c, 0, 66, 0
2,40194, Note_on_c, 0, 52, 72
2,40206, Note_on_c, 0, 68, 81
2,40243, Note_on_c, 0, 52, 0
2,40279, Note_on_c, 0, 68, 0
2,40325, Note_on_c, 0, 54, 73
2,40329, Note_on_c, 0, 70, 83
2,40374, Note_on_c, 0, 54, 0
2,40402, Note_on_c, 0, 70, 0
2,40444, Note_on_c, 0, 51, 78
2,40455, Note_on_c, 0, 71, 84
2,40479, Note_on_c, 0, 51, 0
2,40529, Note_on_c, 0, 71, 0
2,40581, Note_on_c, 0, 70, 85
2,40671, Note_on_c, 0, 70, 0
2,40703, Note_on_c, 0, 54, 82
2,40719, Note_on_c, 0, 71, 83
2,40745, Note_on_c, 0, 54, 0
2,40801, Note_on_c, 0, 71, 0
2,40836, Note_on_c, 0, 73, 83
2,40937, Note_on_c, 0, 73, 0
2,40965, Note_on_c, 0, 47, 80
2,40967, Note_on_c, 0, 75, 86
2,40997, Note_on_c, 0, 47, 0
2,41044, Note_on_c, 0, 75, 0
2,41085, Note_on_c, 0, 76, 81
2,41155, Note_on_c, 0, 76, 0
2,41213, Note_on_c, 0, 78, 86
2,41219, Note_on_c, 0, 64, 91
2,41226, Note_on_c, 0, 52, 84
2,41297, Note_on_c, 0, 64, 0
2,41327, Note_on_c, 0, 80, 90
2,41358, Note_on_c, 0, 78, 0
2,41389, Note_on_c, 0, 80, 0
2,41427, Note_on_c, 0, 52, 0
2,41473, Note_on_c, 0, 66, 97
2,41487, Note_on_c, 0, 69, 82
2,41572, Note_on_c, 0, 69, 0
2,41623, Note_on_c, 0, 68, 69
2,41762, Note_on_c, 0, 69, 80
2,41792, Note_on_c, 0, 66, 0
2,41832, Note_on_c, 0, 68, 0
2,41843, Note_on_c, 0, 69, 0
2,41878, Note_on_c, 0, 71, 88
2,41880, Note_on_c, 0, 49, 73
2,41926, Note_on_c, 0, 49, 0
2,41982, Note_on_c, 0, 71, 0
2,41986, Note_on_c, 0, 51, 88
2,41997, Note_on_c, 0, 69, 84
2,42014, Note_on_c, 0, 51, 0
2,42125, Note_on_c, 0, 68, 86
2,42130, Note_on_c, 0, 59, 79
2,42160, Note_on_c, 0, 69, 0
2,42167, Note_on_c, 0, 59, 0
2,42212, Note_on_c, 0, 68, 0
2,42254, Note_on_c, 0, 59, 100
2,42256, Note_on_c, 0, 61, 80
2,42258, Note_on_c, 0, 69, 86
2,42284, Note_on_c, 0, 59, 0
2,42295, Note_on_c, 0, 61, 0
2,42385, Note_on_c, 0, 69, 0
2,42389, Note_on_c, 0, 63, 76
2,42389, Note_on_c, 0, 71, 81
2,42440, Note_on_c, 0, 63, 0
2,42529, Note_on_c, 0, 61, 88
2,42538, Note_on_c, 0, 64, 78
2,42539, Note_on_c, 0, 68, 83
2,42545, Note_on_c, 0, 71, 0
2,42637, Note_on_c, 0, 68, 0
2,42662, Note_on_c, 0, 66, 80
2,42669, Note_on_c, 0, 63, 74
2,42676, Note_on_c, 0, 64, 0
2,42696, Note_on_c, 0, 61, 0
2,42766, Note_on_c, 0, 63, 0
2,42797, Note_on_c, 0, 68, 85
2,42804, Note_on_c, 0, 66, 0
2,42805, Note_on_c, 0, 64, 83
2,42872, Note_on_c, 0, 64, 0
2,42880, Note_on_c, 0, 68, 0
2,42911, Note_on_c, 0, 69, 86
2,42918, Note_on_c, 0, 66, 87
2,42994, Note_on_c, 0, 69, 0
2,43002, Note_on_c, 0, 66, 0
2,43039, Note_on_c, 0, 71, 89
2,43047, Note_on_c, 0, 68, 71
2,43085, Note_on_c, 0, 68, 0
2,43112, Note_on_c, 0, 71, 0
2,43160, Note_on_c, 0, 73, 88
2,43234, Note_on_c, 0, 73, 0
2,43290, Note_on_c, 0, 56, 63
2,43297, Note_on_c, 0, 74, 94
2,43310, Note_on_c, 0, 71, 88
2,43327, Note_on_c, 0, 56, 0
2,43370, Note_on_c, 0, 71, 0
2,43442, Note_on_c, 0, 68, 76
2,43507, Note_on_c, 0, 68, 0
2,43575, Note_on_c, 0, 57, 67
2,43578, Note_on_c, 0, 64, 80
2,43608, Note_on_c, 0, 74, 0
2,43613, Note_on_c, 0, 57, 0
2,43663, Note_on_c, 0, 64, 0
2,43707, Note_on_c, 0, 63, 84
2,43752, Note_on_c, 0, 63, 0
2,43809, Note_on_c, 0, 56, 62
2,43824, Note_on_c, 0, 73, 94
2,43839, Note_on_c, 0, 64, 69
2,43851, Note_on_c, 0, 56, 0
2,43892, Note_on_c, 0, 64, 0
2,43955, Note_on_c, 0, 73, 0
2,43960, Note_on_c, 0, 66, 71
2,43960, Note_on_c, 0, 71, 79
2,44004, Note_on_c, 0, 66, 0
2,44049, Note_on_c, 0, 71, 0
2,44085, Note_on_c, 0, 57, 73
2,44090, Note_on_c, 0, 73, 97
2,44104, Note_on_c, 0, 64, 77
2,44119, Note_on_c, 0, 57, 0
2,44138, Note_on_c, 0, 64, 0
2,44223, Note_on_c, 0, 63, 78
2,44342, Note_on_c, 0, 63, 0
2,44353, Note_on_c, 0, 64, 67
2,44377, Note_on_c, 0, 52, 47
2,44405, Note_on_c, 0, 64, 0
2,44413, Note_on_c, 0, 52, 0
2,44467, Note_on_c, 0, 66, 71
2,44595, Note_on_c, 0, 66, 0
2,44600, Note_on_c, 0, 63, 72
2,44603, Note_on_c, 0, 54, 70
2,44639, Note_on_c, 0, 54, 0
2,44666, Note_on_c, 0, 63, 0
2,44732, Note_on_c, 0, 61, 72
2,44782, Note_on_c, 0, 61, 0
2,44856, Note_on_c, 0, 63, 69
2,44876, Note_on_c, 0, 57, 54
2,44912, Note_on_c, 0, 57, 0
2,44935, Note_on_c, 0, 63, 0
2,44972, Note_on_c, 0, 64, 74
2,44997, Note_on_c, 0, 73, 0
2,45038, Note_on_c, 0, 64, 0
2,45105, Note_on_c, 0, 71, 85
2,45114, Note_on_c, 0, 66, 70
2,45115, Note_on_c, 0, 56, 69
2,45152, Note_on_c, 0, 56, 0
2,45152, Note_on_c, 0, 66, 0
2,45237, Note_on_c, 0, 68, 71
2,45292, Note_on_c, 0, 68, 0
2,45367, Note_on_c, 0, 69, 66
2,45376, Note_on_c, 0, 54, 62
2,45417, Note_on_c, 0, 54, 0
2,45480, Note_on_c, 0, 69, 0
2,45491, Note_on_c, 0, 66, 64
2,45549, Note_on_c, 0, 66, 0
2,45567, Note_on_c, 0, 71, 0
2,45619, Note_on_c, 0, 62, 62
2,45628, Note_on_c, 0, 52, 59
2,45668, Note_on_c, 0, 52, 0
2,45681, Note_on_c, 0, 62, 0
2,45739, Note_on_c, 0, 61, 66
2,45842, Note_on_c, 0, 61, 0
2,45866, Note_on_c, 0, 62, 60
2,45875, Note_on_c, 0, 54, 58
2,45914, Note_on_c, 0, 54, 0
2,45917, Note_on_c, 0, 62, 0
2,45993, Note_on_c, 0, 64, 63
2,46077, Note_on_c, 0, 64, 0
2,46115, Note_on_c, 0, 71, 85
2,46119, Note_on_c, 0, 56, 64
2,46130, Note_on_c, 0, 62, 64
2,46157, Note_on_c, 0, 56, 0
2,46169, Note_on_c, 0, 62, 0
2,46258, Note_on_c, 0, 61, 63
2,46324, Note_on_c, 0, 61, 0
2,46380, Note_on_c, 0, 62, 61
2,46388, Note_on_c, 0, 52, 53
2,46424, Note_on_c, 0, 52, 0
2,46424, Note_on_c, 0, 62, 0
2,46503, Note_on_c, 0, 64, 65
2,46558, Note_on_c, 0, 64, 0
2,46637, Note_on_c, 0, 61, 65
2,46648, Note_on_c, 0, 57, 68
2,46687, Note_on_c, 0, 57, 0
2,46695, Note_on_c, 0, 61, 0
2,46752, Note_on_c, 0, 59, 67
2,46815, Note_on_c, 0, 59, 0
2,46891, Note_on_c, 0, 59, 76
2,46891, Note_on_c, 0, 61, 59
2,46922, Note_on_c, 0, 59, 0
2,46963, Note_on_c, 0, 71, 0
2,46972, Note_on_c, 0, 61, 0
2,47004, Note_on_c, 0, 62, 66
2,47052, Note_on_c, 0, 62, 0
2,47135, Note_on_c, 0, 61, 74
2,47135, Note_on_c, 0, 64, 69
2,47143, Note_on_c, 0, 69, 68
2,47169, Note_on_c, 0, 61, 0
2,47182, Note_on_c, 0, 64, 0
2,47263, Note_on_c, 0, 66, 58
2,47316, Note_on_c, 0, 66, 0
2,47400, Note_on_c, 0, 68, 57
2,47403, Note_on_c, 0, 59, 63
2,47437, Note_on_c, 0, 59, 0
2,47461, Note_on_c, 0, 69, 0
2,47465, Note_on_c, 0, 68, 0
2,47511, Note_on_c, 0, 64, 58
2,47565, Note_on_c, 0, 64, 0
2,47641, Note_on_c, 0, 61, 60
2,47659, Note_on_c, 0, 57, 50
2,47691, Note_on_c, 0, 57, 0
2,47701, Note_on_c, 0, 61, 0
2,47766, Note_on_c, 0, 59, 61
2,47826, Note_on_c, 0, 59, 0
2,47887, Note_on_c, 0, 52, 54
2,47887, Note_on_c, 0, 61, 57
2,47929, Note_on_c, 0, 52, 0
2,47942, Note_on_c, 0, 61, 0
2,48008, Note_on_c, 0, 62, 62
2,48059, Note_on_c, 0, 62, 0
2,48130, Note_on_c, 0, 69, 74
2,48132, Note_on_c, 0, 54, 59
2,48151, Note_on_c, 0, 61, 59
2,48177, Note_on_c, 0, 54, 0
2,48203, Note_on_c, 0, 61, 0
2,48269, Note_on_c, 0, 59, 56
2,48327, Note_on_c, 0, 59, 0
2,48378, Note_on_c, 0, 49, 58
2,48408, Note_on_c, 0, 61, 51
2,48420, Note_on_c, 0, 49, 0
2,48459, Note_on_c, 0, 61, 0
2,48518, Note_on_c, 0, 62, 59
2,48589, Note_on_c, 0, 62, 0
2,48641, Note_on_c, 0, 51, 49
2,48663, Note_on_c, 0, 59, 49
2,48681, Note_on_c, 0, 51, 0
2,48735, Note_on_c, 0, 59, 0
2,48786, Note_on_c, 0, 57, 58
2,48845, Note_on_c, 0, 57, 0
2,48889, Note_on_c, 0, 47, 54
2,48902, Note_on_c, 0, 59, 64
2,48908, Note_on_c, 0, 69, 0
2,48927, Note_on_c, 0, 47, 0
2,48965, Note_on_c, 0, 59, 0
2,49030, Note_on_c, 0, 61, 65
2,49092, Note_on_c, 0, 61, 0
2,49142, Note_on_c, 0, 59, 56
2,49150, Note_on_c, 0, 68, 71
2,49155, Note_on_c, 0, 52, 47
2,49182, Note_on_c, 0, 68, 0
2,49209, Note_on_c, 0, 59, 0
2,49250, Note_on_c, 0, 57, 63
2,49352, Note_on_c, 0, 57, 0
2,49400, Note_on_c, 0, 76, 87
2,49415, Note_on_c, 0, 59, 60
2,49451, Note_on_c, 0, 76, 0
2,49516, Note_on_c, 0, 59, 0
2,49536, Note_on_c, 0, 61, 58
2,49662, Note_on_c, 0, 61, 0
2,49666, Note_on_c, 0, 78, 90
2,49676, Note_on_c, 0, 57, 61
2,49802, Note_on_c, 0, 57, 0
2,49810, Note_on_c, 0, 56, 61
2,49896, Control_c, 0, 64, 35
2,49900, Note_on_c, 0, 56, 0
2,49916, Control_c, 0, 64, 58
2,49935, Control_c, 0, 64, 64
2,49944, Note_on_c, 0, 57, 65
2,49955, Control_c, 0, 64, 68
2,49973, Control_c, 0, 64, 71
2,49992, Control_c, 0, 64, 76
2,50004, Note_on_c, 0, 57, 0
2,50012, Control_c, 0, 64, 82
2,50030, Control_c, 0, 64, 86
2,50050, Control_c, 0, 64, 91
2,50062, Note_on_c, 0, 59, 73
2,50069, Control_c, 0, 64, 94
2,50088, Note_on_c, 0, 78, 0
2,50089, Control_c, 0, 64, 97
2,50107, Control_c, 0, 64, 98
2,50165, Control_c, 0, 64, 97
2,50173, Note_on_c, 0, 59, 0
2,50184, Control_c, 0, 64, 89
2,50188, Note_on_c, 0, 51, 68
2,50191, Note_on_c, 0, 57, 68
2,50200, Note_on_c, 0, 52, 0
2,50204, Control_c, 0, 64, 75
2,50223, Control_c, 0, 64, 56
2,50242, Control_c, 0, 64, 0
2,50254, Note_on_c, 0, 57, 0
2,50325, Note_on_c, 0, 56, 66
2,50327, Note_on_c, 0, 71, 65
2,50410, Note_on_c, 0, 56, 0
2,50423, Note_on_c, 0, 71, 0
2,50439, Note_on_c, 0, 73, 74
2,50443, Note_on_c, 0, 57, 59
2,50496, Note_on_c, 0, 57, 0
2,50561, Note_on_c, 0, 75, 80
2,50563, Note_on_c, 0, 59, 72
2,50589, Note_on_c, 0, 73, 0
2,50642, Note_on_c, 0, 59, 0
2,50670, Note_on_c, 0, 75, 0
2,50692, Note_on_c, 0, 76, 77
2,50693, Note_on_c, 0, 56, 73
2,50737, Note_on_c, 0, 56, 0
2,50810, Note_on_c, 0, 75, 84
2,50822, Note_on_c, 0, 76, 0
2,50905, Note_on_c, 0, 75, 0
2,50934, Note_on_c, 0, 51, 0
2,50941, Note_on_c, 0, 76, 85
2,50955, Note_on_c, 0, 59, 69
2,50991, Note_on_c, 0, 59, 0
2,51032, Note_on_c, 0, 76, 0
2,51065, Note_on_c, 0, 78, 84
2,51198, Note_on_c, 0, 80, 87
2,51200, Note_on_c, 0, 49, 80
2,51201, Note_on_c, 0, 52, 69
2,51244, Note_on_c, 0, 78, 0
2,51245, Note_on_c, 0, 52, 0
2,51305, Note_on_c, 0, 80, 0
2,51321, Note_on_c, 0, 81, 89
2,51454, Note_on_c, 0, 49, 0
2,51454, Note_on_c, 0, 81, 0
2,51458, Note_on_c, 0, 83, 86
2,51469, Note_on_c, 0, 56, 81
2,51586, Note_on_c, 0, 80, 87
2,51590, Note_on_c, 0, 83, 0
2,51692, Note_on_c, 0, 80, 0
2,51707, Note_on_c, 0, 56, 0
2,51708, Note_on_c, 0, 42, 89
2,51724, Note_on_c, 0, 81, 91
2,51847, Note_on_c, 0, 80, 85
2,51870, Note_on_c, 0, 81, 0
2,51958, Note_on_c, 0, 80, 0
2,51965, Note_on_c, 0, 42, 0
2,51985, Note_on_c, 0, 81, 90
2,51992, Note_on_c, 0, 54, 76
2,52102, Note_on_c, 0, 49, 80
2,52107, Note_on_c, 0, 83, 91
2,52113, Note_on_c, 0, 81, 0
2,52160, Note_on_c, 0, 49, 0
2,52228, Note_on_c, 0, 51, 82
2,52233, Note_on_c, 0, 81, 93
2,52261, Note_on_c, 0, 51, 0
2,52285, Note_on_c, 0, 83, 0
2,52355, Note_on_c, 0, 80, 94
2,52382, Note_on_c, 0, 81, 0
2,52500, Note_on_c, 0, 81, 91
2,52501, Note_on_c, 0, 47, 79
2,52520, Note_on_c, 0, 80, 0
2,52535, Note_on_c, 0, 47, 0
2,52617, Note_on_c, 0, 83, 88
2,52632, Note_on_c, 0, 81, 0
2,52750, Note_on_c, 0, 80, 90
2,52752, Note_on_c, 0, 83, 0
2,52759, Note_on_c, 0, 52, 73
2,52789, Note_on_c, 0, 52, 0
2,52857, Note_on_c, 0, 80, 0
2,52881, Note_on_c, 0, 78, 84
2,52966, Note_on_c, 0, 78, 0
2,52999, Note_on_c, 0, 54, 0
2,53002, Note_on_c, 0, 47, 78
2,53010, Note_on_c, 0, 80, 86
2,53033, Note_on_c, 0, 47, 0
2,53105, Note_on_c, 0, 80, 0
2,53129, Note_on_c, 0, 81, 86
2,53258, Note_on_c, 0, 52, 74
2,53258, Note_on_c, 0, 80, 79
2,53262, Note_on_c, 0, 49, 82
2,53292, Note_on_c, 0, 49, 0
2,53300, Note_on_c, 0, 81, 0
2,53374, Note_on_c, 0, 78, 83
2,53379, Note_on_c, 0, 80, 0
2,53469, Note_on_c, 0, 78, 0
2,53496, Note_on_c, 0, 52, 0
2,53508, Note_on_c, 0, 44, 85
2,53509, Note_on_c, 0, 76, 77
2,53538, Note_on_c, 0, 44, 0
2,53599, Note_on_c, 0, 76, 0
2,53639, Note_on_c, 0, 75, 77
2,53737, Note_on_c, 0, 75, 0
2,53781, Note_on_c, 0, 52, 76
2,53783, Note_on_c, 0, 45, 77
2,53785, Note_on_c, 0, 73, 82
2,53878, Note_on_c, 0, 73, 0
2,53901, Note_on_c, 0, 71, 81
2,53984, Note_on_c, 0, 71, 0
2,53993, Note_on_c, 0, 45, 0
2,54009, Note_on_c, 0, 52, 0
2,54030, Note_on_c, 0, 73, 81
2,54038, Note_on_c, 0, 64, 77
2,54083, Note_on_c, 0, 64, 0
2,54119, Note_on_c, 0, 73, 0
2,54140, Note_on_c, 0, 40, 71
2,54149, Note_on_c, 0, 74, 85
2,54182, Note_on_c, 0, 40, 0
2,54273, Note_on_c, 0, 69, 89
2,54276, Note_on_c, 0, 42, 94
2,54276, Note_on_c, 0, 73, 85
2,54308, Note_on_c, 0, 74, 0
2,54311, Note_on_c, 0, 42, 0
2,54409, Note_on_c, 0, 71, 80
2,54435, Note_on_c, 0, 73, 0
2,54537, Note_on_c, 0, 37, 87
2,54554, Note_on_c, 0, 73, 81
2,54575, Note_on_c, 0, 37, 0
2,54589, Note_on_c, 0, 71, 0
2,54676, Note_on_c, 0, 74, 77
2,54731, Note_on_c, 0, 73, 0
2,54798, Note_on_c, 0, 74, 0
2,54801, Note_on_c, 0, 39, 89
2,54810, Note_on_c, 0, 71, 84
2,54839, Note_on_c, 0, 39, 0
2,54941, Note_on_c, 0, 73, 84
2,54949, Note_on_c, 0, 71, 0
2,55074, Note_on_c, 0, 75, 94
2,55089, Note_on_c, 0, 59, 84
2,55121, Note_on_c, 0, 59, 0
2,55149, Note_on_c, 0, 73, 0
2,55155, Note_on_c, 0, 69, 0
2,55226, Note_on_c, 0, 71, 80
2,55226, Note_on_c, 0, 75, 0
2,55390, Note_on_c, 0, 76, 90
2,55394, Note_on_c, 0, 61, 80
2,55397, Note_on_c, 0, 71, 0
2,55409, Note_on_c, 0, 68, 77
2,55487, Note_on_c, 0, 68, 0
2,55544, Note_on_c, 0, 64, 73
2,55673, Note_on_c, 0, 66, 78
2,55686, Note_on_c, 0, 64, 0
2,55757, Note_on_c, 0, 61, 0
2,55801, Note_on_c, 0, 68, 87
2,55815, Note_on_c, 0, 66, 0
2,55909, Note_on_c, 0, 68, 0
2,55931, Note_on_c, 0, 69, 90
2,56062, Note_on_c, 0, 71, 90
2,56067, Note_on_c, 0, 54, 82
2,56068, Note_on_c, 0, 69, 0
2,56138, Note_on_c, 0, 54, 0
2,56196, Note_on_c, 0, 56, 88
2,56210, Note_on_c, 0, 73, 86
2,56245, Note_on_c, 0, 71, 0
2,56254, Note_on_c, 0, 56, 0
2,56337, Note_on_c, 0, 57, 88
2,56388, Note_on_c, 0, 57, 0
2,56444, Note_on_c, 0, 73, 0
2,56491, Note_on_c, 0, 75, 96
2,56509, Note_on_c, 0, 59, 82
2,56539, Note_on_c, 0, 59, 0
2,56546, Note_on_c, 0, 76, 0
2,56662, Note_on_c, 0, 73, 82
2,56848, Note_on_c, 0, 71, 81
2,56857, Note_on_c, 0, 47, 76
2,56894, Note_on_c, 0, 47, 0
2,56904, Note_on_c, 0, 73, 0
2,57043, Note_on_c, 0, 69, 88
2,57081, Note_on_c, 0, 71, 0
2,57418, Note_on_c, 0, 76, 90
2,57434, Note_on_c, 0, 40, 43
2,57461, Note_on_c, 0, 75, 0
2,58012, Note_on_c, 0, 69, 0
2,58013, Note_on_c, 0, 68, 79
2,58044, Note_on_c, 0, 68, 0
2,58384, Note_on_c, 0, 66, 74
2,58415, Note_on_c, 0, 66, 0
2,58787, Note_on_c, 0, 68, 67
2,58824, Note_on_c, 0, 68, 0
2,58855, Note_on_c, 0, 66, 58
2,58897, Note_on_c, 0, 66, 0
2,58904, Note_on_c, 0, 68, 71
2,61613, Note_on_c, 0, 68, 0
2,61635, Note_on_c, 0, 76, 0
2,61656, Note_on_c, 0, 40, 0
2,61657, End_track
0, 0, End_of_file
