0, 0, Header, 1, 2, 480
1, 0, Start_track
1, 0, Tempo, 500000
1, 0, Time_signature, 4, 2, 24, 8
1, 1, End_track
2, 0, Start_track
2, 0, Program_c, 0, 0
2, 938, Note_on_c, 0, 52, 38
2, 943, Note_on_c, 0, 64, 52
2, 1231, Note_on_c, 0, 68, 71
2, 1243, Note_on_c, 0, 64, 0
2, 1477, Note_on_c, 0, 71, 78
2, 1523, Note_on_c, 0, 68, 0
2, 1711, Note_on_c, 0, 56, 50
2, 1713, Note_on_c, 0, 76, 76
2, 1720, Note_on_c, 0, 71, 0
2, 1955, Note_on_c, 0, 75, 77
2, 1957, Note_on_c, 0, 76, 0
2, 2188, Note_on_c, 0, 75, 0
2, 2191, Note_on_c, 0, 76, 71
2, 2309, Note_on_c, 0, 56, 0
2, 2322, Note_on_c, 0, 57, 52
2, 2426, Note_on_c, 0, 76, 0
2, 2428, Note_on_c, 0, 75, 70
2, 2490, Note_on_c, 0, 75, 0
2, 2494, Note_on_c, 0, 73, 69
2, 2552, Note_on_c, 0, 73, 0
2, 2565, Note_on_c, 0, 75, 70
2, 2636, Note_on_c, 0, 75, 0
2, 2638, Note_on_c, 0, 73, 81
2, 2702, Note_on_c, 0, 73, 0
2, 2712, Note_on_c, 0, 71, 77
2, 2932, Note_on_c, 0, 73, 82
2, 2947, Note_on_c, 0, 71, 0
2, 3211, Note_on_c, 0, 76, 72
2, 3263, Note_on_c, 0, 73, 0
2, 3449, Note_on_c, 0, 56, 45
2, 3504, Note_on_c, 0, 57, 0
2, 3703, Note_on_c, 0, 54, 41
2, 3724, Note_on_c, 0, 56, 0
2, 3929, Note_on_c, 0, 56, 43
2, 3933, Note_on_c, 0, 76, 0
2, 3937, Note_on_c, 0, 73, 57
2, 3985, Note_on_c, 0, 54, 0
2, 3985, Note_on_c, 0, 73, 0
2, 4015, Note_on_c, 0, 71, 53
2, 4058, Note_on_c, 0, 71, 0
2, 4094, Note_on_c, 0, 73, 55
2, 4129, Note_on_c, 0, 73, 0
2, 4143, Note_on_c, 0, 71, 64
2, 4190, Note_on_c, 0, 71, 0
2, 4215, Note_on_c, 0, 69, 61
2, 4440, Note_on_c, 0, 69, 0
2, 4451, Note_on_c, 0, 71, 63
2, 4715, Note_on_c, 0, 76, 59
2, 4733, Note_on_c, 0, 71, 0
2, 4956, Note_on_c, 0, 57, 46
2, 4964, Note_on_c, 0, 56, 0
2, 5204, Note_on_c, 0, 57, 0
2, 5217, Note_on_c, 0, 56, 46
2, 5470, Note_on_c, 0, 69, 59
2, 5483, Note_on_c, 0, 54, 36
2, 5493, Note_on_c, 0, 76, 0
2, 5513, Note_on_c, 0, 56, 0
2, 5711, Note_on_c, 0, 69, 0
2, 5715, Note_on_c, 0, 71, 64
2, 5961, Note_on_c, 0, 73, 66
2, 5965, Note_on_c, 0, 71, 0
2, 6193, Note_on_c, 0, 52, 0
2, 6202, Note_on_c, 0, 51, 36
2, 6206, Note_on_c, 0, 71, 65
2, 6209, Note_on_c, 0, 73, 0
2, 6448, Note_on_c, 0, 73, 66
2, 6449, Note_on_c, 0, 71, 0
2, 6691, Note_on_c, 0, 69, 64
2, 6704, Note_on_c, 0, 73, 0
2, 6741, Note_on_c, 0, 51, 0
2, 6780, Note_on_c, 0, 54, 0
2, 6920, Note_on_c, 0, 52, 41
2, 6936, Note_on_c, 0, 69, 0
2, 6939, Note_on_c, 0, 68, 71
2, 7177, Note_on_c, 0, 68, 0
2, 7186, Note_on_c, 0, 71, 77
2, 7193, Note_on_c, 0, 56, 61
2, 7232, Note_on_c, 0, 52, 0
2, 7435, Note_on_c, 0, 76, 85
2, 7440, Note_on_c, 0, 59, 64
2, 7449, Note_on_c, 0, 56, 0
2, 7452, Note_on_c, 0, 71, 0
2, 7691, Note_on_c, 0, 59, 0
2, 7691, Note_on_c, 0, 80, 83
2, 7693, Note_on_c, 0, 64, 61
2, 7738, Note_on_c, 0, 76, 0
2, 7940, Note_on_c, 0, 63, 64
2, 7955, Note_on_c, 0, 64, 0
2, 8195, Note_on_c, 0, 64, 65
2, 8220, Note_on_c, 0, 63, 0
2, 8489, Note_on_c, 0, 58, 61
2, 8587, Note_on_c, 0, 64, 0
2, 8751, Note_on_c, 0, 78, 72
2, 8784, Note_on_c, 0, 80, 0
2, 9004, Note_on_c, 0, 61, 62
2, 9005, Note_on_c, 0, 76, 71
2, 9023, Note_on_c, 0, 78, 0
2, 9152, Note_on_c, 0, 61, 0
2, 9259, Note_on_c, 0, 66, 64
2, 9266, Note_on_c, 0, 75, 72
2, 9269, Note_on_c, 0, 76, 0
2, 9517, Note_on_c, 0, 76, 74
2, 9523, Note_on_c, 0, 75, 0
2, 9615, Control_c, 0, 64, 45
2, 9634, Control_c, 0, 64, 60
2, 9654, Control_c, 0, 64, 65
2, 9673, Control_c, 0, 64, 70
2, 9679, Note_on_c, 0, 66, 0
2, 9692, Control_c, 0, 64, 79
2, 9711, Control_c, 0, 64, 99
2, 9731, Control_c, 0, 64, 127
2, 9749, Note_on_c, 0, 58, 0
2, 9766, Note_on_c, 0, 73, 71
2, 9784, Note_on_c, 0, 76, 0
2, 9896, Note_on_c, 0, 73, 0
2, 10019, Note_on_c, 0, 47, 42
2, 10045, Note_on_c, 0, 73, 66
2, 10081, Control_c, 0, 64, 96
2, 10099, Control_c, 0, 64, 79
2, 10118, Control_c, 0, 64, 68
2, 10138, Control_c, 0, 64, 55
2, 10156, Control_c, 0, 64, 0
2, 10175, Note_on_c, 0, 75, 63
2, 10214, Note_on_c, 0, 73, 0
2, 10262, Note_on_c, 0, 75, 0
2, 10275, Note_on_c, 0, 76, 68
2, 10349, Note_on_c, 0, 51, 51
2, 10349, Note_on_c, 0, 76, 0
2, 10372, Note_on_c, 0, 75, 64
2, 10415, Note_on_c, 0, 47, 0
2, 10436, Note_on_c, 0, 75, 0
2, 10467, Note_on_c, 0, 76, 67
2, 10514, Note_on_c, 0, 76, 0
2, 10542, Note_on_c, 0, 75, 60
2, 10595, Note_on_c, 0, 75, 0
2, 10613, Note_on_c, 0, 54, 56
2, 10624, Note_on_c, 0, 76, 67
2, 10636, Note_on_c, 0, 51, 0
2, 10677, Note_on_c, 0, 76, 0
2, 10706, Note_on_c, 0, 75, 54
2, 10753, Note_on_c, 0, 75, 0
2, 10772, Note_on_c, 0, 76, 66
2, 10834, Note_on_c, 0, 76, 0
2, 10851, Note_on_c, 0, 54, 0
2, 10851, Note_on_c, 0, 59, 61
2, 10857, Note_on_c, 0, 75, 63
2, 10904, Note_on_c, 0, 75, 0
2, 10929, Note_on_c, 0, 76, 66
2, 10989, Note_on_c, 0, 76, 0
2, 11023, Note_on_c, 0, 75, 58
2, 11069, Note_on_c, 0, 75, 0
2, 11075, Note_on_c, 0, 58, 50
2, 11085, Note_on_c, 0, 59, 0
2, 11091, Note_on_c, 0, 76, 63
2, 11133, Note_on_c, 0, 76, 0
2, 11154, Note_on_c, 0, 75, 64
2, 11204, Note_on_c, 0, 75, 0
2, 11234, Note_on_c, 0, 76, 63
2, 11304, Note_on_c, 0, 76, 0
2, 11323, Note_on_c, 0, 59, 44
2, 11326, Note_on_c, 0, 75, 56
2, 11352, Note_on_c, 0, 58, 0
2, 11596, Note_on_c, 0, 52, 43
2, 11713, Note_on_c, 0, 59, 0
2, 11858, Note_on_c, 0, 76, 62
2, 11890, Note_on_c, 0, 75, 0
2, 12103, Note_on_c, 0, 78, 69
2, 12106, Note_on_c, 0, 76, 0
2, 12110, Note_on_c, 0, 59, 56
2, 12237, Note_on_c, 0, 59, 0
2, 12367, Note_on_c, 0, 80, 73
2, 12371, Note_on_c, 0, 64, 58
2, 12391, Note_on_c, 0, 78, 0
2, 12622, Note_on_c, 0, 73, 70
2, 12663, Note_on_c, 0, 80, 0
2, 12866, Note_on_c, 0, 76, 76
2, 12899, Note_on_c, 0, 73, 0
2, 13123, Note_on_c, 0, 66, 67
2, 13148, Note_on_c, 0, 76, 0
2, 13150, Note_on_c, 0, 54, 45
2, 13272, Note_on_c, 0, 52, 0
2, 13393, Note_on_c, 0, 70, 80
2, 13431, Note_on_c, 0, 66, 0
2, 13646, Note_on_c, 0, 73, 78
2, 13701, Note_on_c, 0, 70, 0
2, 13897, Note_on_c, 0, 78, 79
2, 13903, Note_on_c, 0, 63, 54
2, 13930, Note_on_c, 0, 73, 0
2, 14044, Note_on_c, 0, 64, 0
2, 14150, Note_on_c, 0, 76, 75
2, 14187, Note_on_c, 0, 78, 0
2, 14405, Note_on_c, 0, 78, 76
2, 14429, Note_on_c, 0, 76, 0
2, 14656, Note_on_c, 0, 68, 67
2, 14706, Note_on_c, 0, 78, 0
2, 14899, Note_on_c, 0, 71, 71
2, 14924, Note_on_c, 0, 68, 0
2, 15169, Note_on_c, 0, 75, 73
2, 15208, Note_on_c, 0, 71, 0
2, 15434, Note_on_c, 0, 76, 65
2, 15468, Note_on_c, 0, 75, 0
2, 15676, Note_on_c, 0, 63, 0
2, 15690, Note_on_c, 0, 61, 48
2, 15945, Note_on_c, 0, 61, 0
2, 15947, Note_on_c, 0, 59, 51
2, 16218, Note_on_c, 0, 66, 47
2, 16236, Note_on_c, 0, 58, 38
2, 16243, Note_on_c, 0, 76, 0
2, 16255, Note_on_c, 0, 59, 0
2, 16471, Note_on_c, 0, 70, 62
2, 16489, Note_on_c, 0, 66, 0
2, 16723, Note_on_c, 0, 73, 61
2, 16754, Note_on_c, 0, 70, 0
2, 16976, Note_on_c, 0, 76, 61
2, 16991, Note_on_c, 0, 73, 0
2, 17157, Note_on_c, 0, 54, 0
2, 17218, Note_on_c, 0, 75, 66
2, 17220, Note_on_c, 0, 76, 0
2, 17460, Note_on_c, 0, 49, 58
2, 17471, Note_on_c, 0, 76, 63
2, 17488, Note_on_c, 0, 75, 0
2, 17620, Note_on_c, 0, 49, 0
2, 17754, Note_on_c, 0, 66, 59
2, 17759, Note_on_c, 0, 50, 64
2, 17773, Note_on_c, 0, 76, 0
2, 18021, Note_on_c, 0, 70, 70
2, 18043, Note_on_c, 0, 66, 0
2, 18285, Note_on_c, 0, 73, 67
2, 18321, Note_on_c, 0, 70, 0
2, 18542, Note_on_c, 0, 74, 64
2, 18544, Note_on_c, 0, 73, 0
2, 18553, Note_on_c, 0, 58, 0
2, 18561, Note_on_c, 0, 59, 43
2, 18791, Note_on_c, 0, 52, 53
2, 18844, Note_on_c, 0, 50, 0
2, 19045, Control_c, 0, 64, 28
2, 19053, Note_on_c, 0, 54, 66
2, 19060, Control_c, 0, 64, 62
2, 19066, Note_on_c, 0, 52, 0
2, 19080, Control_c, 0, 64, 72
2, 19099, Control_c, 0, 64, 90
2, 19119, Control_c, 0, 64, 127
2, 19170, Note_on_c, 0, 54, 0
2, 19320, Note_on_c, 0, 55, 67
2, 19425, Control_c, 0, 64, 98
2, 19445, Control_c, 0, 64, 76
2, 19464, Control_c, 0, 64, 63
2, 19483, Control_c, 0, 64, 17
2, 19502, Control_c, 0, 64, 0
2, 19582, Note_on_c, 0, 61, 63
2, 19583, Note_on_c, 0, 76, 65
2, 19587, Note_on_c, 0, 59, 0
2, 19613, Note_on_c, 0, 74, 0
2, 19837, Note_on_c, 0, 62, 69
2, 19840, Note_on_c, 0, 74, 70
2, 19859, Note_on_c, 0, 61, 0
2, 19866, Note_on_c, 0, 76, 0
2, 20112, Note_on_c, 0, 64, 65
2, 20113, Note_on_c, 0, 73, 74
2, 20140, Note_on_c, 0, 74, 0
2, 20145, Note_on_c, 0, 62, 0
2, 20371, Note_on_c, 0, 74, 71
2, 20386, Note_on_c, 0, 73, 0
2, 20632, Note_on_c, 0, 71, 71
2, 20654, Control_c, 0, 64, 49
2, 20674, Control_c, 0, 64, 63
2, 20680, Note_on_c, 0, 74, 0
2, 20693, Control_c, 0, 64, 68
2, 20712, Control_c, 0, 64, 76
2, 20731, Control_c, 0, 64, 92
2, 20750, Control_c, 0, 64, 111
2, 20770, Control_c, 0, 64, 127
2, 20797, Note_on_c, 0, 71, 0
2, 20878, Note_on_c, 0, 54, 49
2, 20893, Note_on_c, 0, 55, 0
2, 20913, Note_on_c, 0, 71, 69
2, 20979, Note_on_c, 0, 71, 0
2, 20993, Note_on_c, 0, 70, 72
2, 21000, Control_c, 0, 64, 98
2, 21019, Control_c, 0, 64, 84
2, 21039, Control_c, 0, 64, 72
2, 21057, Control_c, 0, 64, 62
2, 21067, Note_on_c, 0, 70, 0
2, 21076, Note_on_c, 0, 71, 77
2, 21077, Control_c, 0, 64, 44
2, 21096, Control_c, 0, 64, 0
2, 21146, Note_on_c, 0, 70, 79
2, 21148, Note_on_c, 0, 71, 0
2, 21235, Note_on_c, 0, 68, 86
2, 21239, Note_on_c, 0, 70, 0
2, 21488, Note_on_c, 0, 68, 0
2, 21493, Note_on_c, 0, 66, 83
2, 21837, Note_on_c, 0, 79, 83
2, 21890, Note_on_c, 0, 66, 0
2, 22149, Note_on_c, 0, 78, 80
2, 22150, Note_on_c, 0, 63, 54
2, 22151, Note_on_c, 0, 56, 48
2, 22181, Note_on_c, 0, 79, 0
2, 22200, Note_on_c, 0, 64, 0
2, 22256, Note_on_c, 0, 63, 0
2, 22407, Note_on_c, 0, 54, 0
2, 22423, Note_on_c, 0, 77, 75
2, 22429, Note_on_c, 0, 61, 52
2, 22433, Note_on_c, 0, 56, 0
2, 22436, Note_on_c, 0, 58, 46
2, 22463, Note_on_c, 0, 78, 0
2, 22705, Note_on_c, 0, 76, 73
2, 22712, Note_on_c, 0, 59, 52
2, 22713, Note_on_c, 0, 77, 0
2, 22798, Note_on_c, 0, 58, 0
2, 22814, Note_on_c, 0, 61, 0
2, 22968, Note_on_c, 0, 75, 69
2, 22986, Note_on_c, 0, 76, 0
2, 23237, Note_on_c, 0, 74, 64
2, 23244, Note_on_c, 0, 53, 43
2, 23266, Note_on_c, 0, 75, 0
2, 23480, Note_on_c, 0, 53, 0
2, 23506, Note_on_c, 0, 73, 63
2, 23509, Note_on_c, 0, 74, 0
2, 23510, Note_on_c, 0, 54, 52
2, 23642, Note_on_c, 0, 75, 63
2, 23665, Note_on_c, 0, 73, 0
2, 23711, Note_on_c, 0, 59, 0
2, 23758, Note_on_c, 0, 58, 46
2, 23767, Note_on_c, 0, 75, 0
2, 23776, Note_on_c, 0, 76, 66
2, 24028, Note_on_c, 0, 54, 0
2, 24038, Note_on_c, 0, 70, 63
2, 24053, Note_on_c, 0, 64, 45
2, 24054, Note_on_c, 0, 76, 0
2, 24074, Control_c, 0, 64, 22
2, 24094, Control_c, 0, 64, 46
2, 24113, Control_c, 0, 64, 54
2, 24133, Control_c, 0, 64, 57
2, 24145, Note_on_c, 0, 64, 0
2, 24151, Control_c, 0, 64, 58
2, 24171, Control_c, 0, 64, 60
2, 24190, Control_c, 0, 64, 62
2, 24209, Control_c, 0, 64, 63
2, 24228, Control_c, 0, 64, 64
2, 24248, Control_c, 0, 64, 65
2, 24267, Control_c, 0, 64, 65
2, 24286, Control_c, 0, 64, 66
2, 24303, Note_on_c, 0, 47, 43
2, 24305, Control_c, 0, 64, 66
2, 24329, Note_on_c, 0, 70, 0
2, 24332, Note_on_c, 0, 58, 0
2, 24343, Control_c, 0, 64, 66
2, 24362, Control_c, 0, 64, 65
2, 24379, Note_on_c, 0, 71, 57
2, 24382, Control_c, 0, 64, 64
2, 24392, Note_on_c, 0, 63, 47
2, 24401, Control_c, 0, 64, 61
2, 24420, Control_c, 0, 64, 56
2, 24439, Control_c, 0, 64, 42
2, 24459, Control_c, 0, 64, 0
2, 24656, Note_on_c, 0, 51, 50
2, 24692, Note_on_c, 0, 47, 0
2, 24918, Note_on_c, 0, 54, 62
2, 24939, Note_on_c, 0, 51, 0
2, 25168, Note_on_c, 0, 54, 0
2, 25175, Note_on_c, 0, 59, 66
2, 25424, Note_on_c, 0, 57, 59
2, 25453, Note_on_c, 0, 59, 0
2, 25466, Note_on_c, 0, 63, 0
2, 25686, Note_on_c, 0, 59, 68
2, 25693, Note_on_c, 0, 57, 0
2, 25960, Note_on_c, 0, 56, 63
2, 26053, Note_on_c, 0, 59, 0
2, 26232, Note_on_c, 0, 75, 72
2, 26258, Note_on_c, 0, 71, 0
2, 26501, Note_on_c, 0, 78, 78
2, 26553, Note_on_c, 0, 75, 0
2, 26757, Note_on_c, 0, 83, 75
2, 26796, Note_on_c, 0, 78, 0
2, 27025, Note_on_c, 0, 54, 48
2, 27030, Note_on_c, 0, 81, 73
2, 27036, Note_on_c, 0, 56, 0
2, 27061, Note_on_c, 0, 83, 0
2, 27292, Note_on_c, 0, 54, 0
2, 27300, Note_on_c, 0, 83, 69
2, 27307, Note_on_c, 0, 56, 47
2, 27335, Note_on_c, 0, 81, 0
2, 27607, Note_on_c, 0, 53, 36
2, 27618, Note_on_c, 0, 73, 52
2, 27628, Note_on_c, 0, 83, 0
2, 27633, Note_on_c, 0, 56, 0
2, 27882, Note_on_c, 0, 56, 36
2, 27884, Note_on_c, 0, 77, 60
2, 27902, Note_on_c, 0, 73, 0
2, 28124, Note_on_c, 0, 59, 45
2, 28135, Note_on_c, 0, 80, 68
2, 28156, Note_on_c, 0, 56, 0
2, 28168, Note_on_c, 0, 77, 0
2, 28406, Note_on_c, 0, 62, 42
2, 28411, Note_on_c, 0, 59, 0
2, 28411, Note_on_c, 0, 83, 68
2, 28442, Note_on_c, 0, 80, 0
2, 28647, Note_on_c, 0, 62, 0
2, 28669, Note_on_c, 0, 59, 55
2, 28905, Note_on_c, 0, 59, 0
2, 28938, Note_on_c, 0, 61, 48
2, 29202, Note_on_c, 0, 53, 0
2, 29208, Note_on_c, 0, 54, 39
2, 29477, Note_on_c, 0, 80, 57
2, 29517, Note_on_c, 0, 83, 0
2, 29656, Note_on_c, 0, 80, 0
2, 29754, Note_on_c, 0, 81, 67
2, 29999, Note_on_c, 0, 61, 0
2, 30024, Note_on_c, 0, 59, 46
2, 30039, Note_on_c, 0, 50, 36
2, 30056, Note_on_c, 0, 54, 0
2, 30279, Note_on_c, 0, 78, 65
2, 30309, Note_on_c, 0, 81, 0
2, 30462, Note_on_c, 0, 78, 0
2, 30562, Note_on_c, 0, 80, 67
2, 30839, Note_on_c, 0, 60, 38
2, 30840, Note_on_c, 0, 51, 40
2, 30863, Note_on_c, 0, 59, 0
2, 30963, Note_on_c, 0, 50, 0
2, 31097, Note_on_c, 0, 77, 61
2, 31118, Note_on_c, 0, 80, 0
2, 31261, Note_on_c, 0, 77, 0
2, 31354, Note_on_c, 0, 78, 63
2, 31382, Note_on_c, 0, 60, 0
2, 31622, Note_on_c, 0, 78, 0
2, 31626, Note_on_c, 0, 77, 58
2, 31637, Note_on_c, 0, 51, 0
2, 31638, Note_on_c, 0, 61, 41
2, 31646, Note_on_c, 0, 49, 39
2, 31754, Note_on_c, 0, 78, 67
2, 31787, Note_on_c, 0, 77, 0
2, 31853, Note_on_c, 0, 78, 0
2, 31856, Note_on_c, 0, 80, 72
2, 32046, Control_c, 0, 64, 36
2, 32066, Control_c, 0, 64, 56
2, 32085, Control_c, 0, 64, 62
2, 32104, Control_c, 0, 64, 64
2, 32121, Note_on_c, 0, 73, 65
2, 32123, Control_c, 0, 64, 67
2, 32123, Note_on_c, 0, 61, 0
2, 32143, Control_c, 0, 64, 71
2, 32161, Control_c, 0, 64, 80
2, 32163, Note_on_c, 0, 80, 0
2, 32181, Control_c, 0, 64, 91
2, 32200, Control_c, 0, 64, 104
2, 32220, Control_c, 0, 64, 127
2, 32244, Note_on_c, 0, 49, 0
2, 32258, Note_on_c, 0, 73, 0
2, 32403, Note_on_c, 0, 47, 40
2, 32427, Note_on_c, 0, 74, 69
2, 32431, Control_c, 0, 64, 116
2, 32449, Control_c, 0, 64, 93
2, 32469, Control_c, 0, 64, 77
2, 32488, Control_c, 0, 64, 65
2, 32507, Control_c, 0, 64, 50
2, 32525, Control_c, 0, 64, 0
2, 32689, Note_on_c, 0, 50, 52
2, 32693, Note_on_c, 0, 71, 64
2, 32933, Note_on_c, 0, 50, 0
2, 32949, Note_on_c, 0, 53, 55
2, 32955, Note_on_c, 0, 68, 68
2, 32988, Note_on_c, 0, 71, 0
2, 33192, Note_on_c, 0, 53, 0
2, 33211, Note_on_c, 0, 65, 62
2, 33212, Note_on_c, 0, 56, 61
2, 33219, Note_on_c, 0, 68, 0
2, 33462, Note_on_c, 0, 56, 0
2, 33469, Note_on_c, 0, 65, 0
2, 33469, Note_on_c, 0, 68, 70
2, 33480, Note_on_c, 0, 59, 57
2, 33706, Note_on_c, 0, 59, 0
2, 33720, Note_on_c, 0, 57, 55
2, 33720, Note_on_c, 0, 68, 0
2, 33727, Note_on_c, 0, 66, 64
2, 33974, Note_on_c, 0, 68, 69
2, 33977, Note_on_c, 0, 59, 59
2, 33983, Note_on_c, 0, 66, 0
2, 33991, Note_on_c, 0, 57, 0
2, 34226, Note_on_c, 0, 68, 0
2, 34227, Note_on_c, 0, 71, 70
2, 34232, Note_on_c, 0, 59, 0
2, 34240, Note_on_c, 0, 56, 53
2, 34305, Note_on_c, 0, 47, 0
2, 34483, Note_on_c, 0, 71, 0
2, 34493, Note_on_c, 0, 56, 0
2, 34493, Note_on_c, 0, 69, 68
2, 34501, Note_on_c, 0, 54, 48
2, 34725, Note_on_c, 0, 69, 0
2, 34749, Note_on_c, 0, 56, 59
2, 34754, Note_on_c, 0, 71, 74
2, 34755, Note_on_c, 0, 54, 0
2, 34831, Note_on_c, 0, 74, 0
2, 34851, Note_on_c, 0, 56, 0
2, 34875, Note_on_c, 0, 57, 65
2, 34979, Note_on_c, 0, 57, 0
2, 35000, Note_on_c, 0, 74, 75
2, 35010, Note_on_c, 0, 59, 61
2, 35255, Note_on_c, 0, 59, 0
2, 35266, Note_on_c, 0, 53, 56
2, 35266, Note_on_c, 0, 73, 74
2, 35270, Control_c, 0, 64, 46
2, 35289, Control_c, 0, 64, 60
2, 35309, Control_c, 0, 64, 65
2, 35323, Note_on_c, 0, 74, 0
2, 35327, Control_c, 0, 64, 69
2, 35347, Control_c, 0, 64, 75
2, 35366, Control_c, 0, 64, 86
2, 35386, Control_c, 0, 64, 106
2, 35403, Control_c, 0, 64, 127
2, 35424, Note_on_c, 0, 73, 0
2, 35433, Note_on_c, 0, 53, 0
2, 35605, Note_on_c, 0, 54, 59
2, 35617, Note_on_c, 0, 73, 70
2, 35680, Note_on_c, 0, 71, 0
2, 35691, Control_c, 0, 64, 91
2, 35711, Control_c, 0, 64, 74
2, 35730, Control_c, 0, 64, 61
2, 35749, Control_c, 0, 64, 32
2, 35768, Control_c, 0, 64, 0
2, 35901, Note_on_c, 0, 69, 69
2, 36153, Note_on_c, 0, 68, 69
2, 36172, Note_on_c, 0, 69, 0
2, 36436, Note_on_c, 0, 66, 63
2, 36442, Note_on_c, 0, 45, 55
2, 36450, Note_on_c, 0, 68, 0
2, 36600, Note_on_c, 0, 54, 0
2, 36707, Note_on_c, 0, 71, 67
2, 36735, Note_on_c, 0, 73, 0
2, 36969, Note_on_c, 0, 69, 65
2, 36998, Note_on_c, 0, 71, 0
2, 37223, Note_on_c, 0, 69, 0
2, 37225, Note_on_c, 0, 47, 56
2, 37231, Note_on_c, 0, 68, 65
2, 37322, Note_on_c, 0, 45, 0
2, 37477, Note_on_c, 0, 69, 68
2, 37509, Note_on_c, 0, 68, 0
2, 37719, Note_on_c, 0, 69, 0
2, 37744, Note_on_c, 0, 71, 57
2, 37965, Note_on_c, 0, 66, 0
2, 37994, Note_on_c, 0, 49, 48
2, 38015, Note_on_c, 0, 65, 41
2, 38184, Note_on_c, 0, 47, 0
2, 38263, Note_on_c, 0, 69, 53
2, 38287, Note_on_c, 0, 71, 0
2, 38536, Note_on_c, 0, 68, 50
2, 38536, Note_on_c, 0, 69, 0
2, 38844, Note_on_c, 0, 68, 0
2, 38851, Note_on_c, 0, 42, 38
2, 38866, Note_on_c, 0, 69, 44
2, 38874, Note_on_c, 0, 66, 42
2, 38920, Note_on_c, 0, 65, 0
2, 39127, Note_on_c, 0, 49, 0
2, 39149, Note_on_c, 0, 45, 47
2, 39174, Note_on_c, 0, 42, 0
2, 39409, Note_on_c, 0, 49, 57
2, 39420, Note_on_c, 0, 45, 0
2, 39677, Note_on_c, 0, 49, 0
2, 39688, Note_on_c, 0, 54, 54
2, 39933, Note_on_c, 0, 52, 41
2, 39933, Note_on_c, 0, 71, 62
2, 39935, Note_on_c, 0, 69, 0
2, 39952, Note_on_c, 0, 54, 0
2, 40011, Note_on_c, 0, 66, 0
2, 40190, Note_on_c, 0, 68, 66
2, 40197, Note_on_c, 0, 54, 40
2, 40207, Note_on_c, 0, 71, 0
2, 40209, Note_on_c, 0, 64, 47
2, 40238, Note_on_c, 0, 52, 0
2, 40256, Note_on_c, 0, 64, 0
2, 40465, Note_on_c, 0, 47, 38
2, 40484, Note_on_c, 0, 69, 65
2, 40489, Note_on_c, 0, 63, 48
2, 40505, Note_on_c, 0, 68, 0
2, 40530, Note_on_c, 0, 54, 0
2, 40736, Note_on_c, 0, 51, 49
2, 40771, Note_on_c, 0, 47, 0
2, 41007, Note_on_c, 0, 54, 56
2, 41014, Note_on_c, 0, 51, 0
2, 41124, Note_on_c, 0, 63, 0
2, 41264, Note_on_c, 0, 54, 0
2, 41283, Note_on_c, 0, 59, 60
2, 41513, Note_on_c, 0, 69, 0
2, 41514, Note_on_c, 0, 71, 56
2, 41526, Note_on_c, 0, 57, 50
2, 41540, Note_on_c, 0, 59, 0
2, 41660, Note_on_c, 0, 69, 63
2, 41712, Note_on_c, 0, 71, 0
2, 41790, Note_on_c, 0, 57, 0
2, 41790, Note_on_c, 0, 68, 64
2, 41794, Note_on_c, 0, 59, 58
2, 41822, Note_on_c, 0, 69, 0
2, 41916, Note_on_c, 0, 66, 63
2, 41916, Note_on_c, 0, 68, 0
2, 42045, Note_on_c, 0, 52, 48
2, 42046, Note_on_c, 0, 66, 0
2, 42058, Note_on_c, 0, 68, 64
2, 42085, Note_on_c, 0, 59, 0
2, 42154, Note_on_c, 0, 68, 0
2, 42184, Note_on_c, 0, 66, 64
2, 42282, Note_on_c, 0, 66, 0
2, 42284, Note_on_c, 0, 52, 0
2, 42298, Note_on_c, 0, 64, 65
2, 42307, Note_on_c, 0, 56, 56
2, 42390, Note_on_c, 0, 64, 0
2, 42414, Note_on_c, 0, 66, 68
2, 42529, Note_on_c, 0, 68, 69
2, 42537, Note_on_c, 0, 56, 0
2, 42552, Note_on_c, 0, 59, 61
2, 42555, Note_on_c, 0, 66, 0
2, 42648, Note_on_c, 0, 68, 0
2, 42656, Note_on_c, 0, 69, 72
2, 42760, Note_on_c, 0, 59, 0
2, 42768, Note_on_c, 0, 69, 0
2, 42779, Note_on_c, 0, 71, 73
2, 42788, Note_on_c, 0, 64, 66
2, 42900, Note_on_c, 0, 71, 0
2, 42905, Note_on_c, 0, 69, 74
2, 43032, Note_on_c, 0, 62, 71
2, 43033, Note_on_c, 0, 68, 74
2, 43036, Note_on_c, 0, 69, 0
2, 43048, Note_on_c, 0, 64, 0
2, 43134, Note_on_c, 0, 68, 0
2, 43157, Note_on_c, 0, 69, 79
2, 43260, Note_on_c, 0, 69, 0
2, 43279, Note_on_c, 0, 62, 0
2, 43284, Note_on_c, 0, 61, 69
2, 43287, Note_on_c, 0, 71, 77
2, 43407, Note_on_c, 0, 73, 76
2, 43423, Note_on_c, 0, 71, 0
2, 43548, Note_on_c, 0, 59, 74
2, 43550, Note_on_c, 0, 61, 0
2, 43552, Note_on_c, 0, 73, 0
2, 43554, Note_on_c, 0, 74, 71
2, 43692, Note_on_c, 0, 73, 71
2, 43731, Note_on_c, 0, 74, 0
2, 43820, Note_on_c, 0, 71, 73
2, 43841, Note_on_c, 0, 73, 0
2, 43919, Note_on_c, 0, 71, 0
2, 43948, Note_on_c, 0, 69, 69
2, 44062, Note_on_c, 0, 59, 0
2, 44071, Note_on_c, 0, 68, 71
2, 44071, Note_on_c, 0, 69, 0
2, 44082, Note_on_c, 0, 57, 57
2, 44177, Note_on_c, 0, 68, 0
2, 44194, Note_on_c, 0, 66, 67
2, 44300, Note_on_c, 0, 57, 0
2, 44326, Note_on_c, 0, 56, 58
2, 44353, Note_on_c, 0, 66, 0
2, 44355, Note_on_c, 0, 64, 64
2, 44450, Note_on_c, 0, 56, 0
2, 44489, Note_on_c, 0, 62, 58
2, 44591, Note_on_c, 0, 62, 0
2, 44609, Note_on_c, 0, 61, 63
2, 44700, Note_on_c, 0, 61, 0
2, 44706, Note_on_c, 0, 64, 0
2, 44738, Note_on_c, 0, 59, 64
2, 44858, Note_on_c, 0, 59, 0
2, 44875, Note_on_c, 0, 57, 58
2, 44992, Note_on_c, 0, 57, 0
2, 45008, Note_on_c, 0, 56, 50
2, 45179, Note_on_c, 0, 56, 0
2, 45185, Note_on_c, 0, 69, 51
2, 45193, Note_on_c, 0, 57, 44
2, 45450, Note_on_c, 0, 69, 0
2, 45452, Note_on_c, 0, 73, 63
2, 45701, Note_on_c, 0, 76, 65
2, 45729, Note_on_c, 0, 73, 0
2, 45958, Note_on_c, 0, 61, 40
2, 45961, Note_on_c, 0, 81, 67
2, 45963, Note_on_c, 0, 76, 0
2, 46189, Note_on_c, 0, 81, 0
2, 46198, Note_on_c, 0, 80, 71
2, 46437, Note_on_c, 0, 80, 0
2, 46437, Note_on_c, 0, 81, 68
2, 46600, Note_on_c, 0, 62, 45
2, 46615, Note_on_c, 0, 61, 0
2, 46676, Note_on_c, 0, 80, 59
2, 46676, Note_on_c, 0, 81, 0
2, 46726, Note_on_c, 0, 80, 0
2, 46746, Note_on_c, 0, 78, 66
2, 46796, Note_on_c, 0, 78, 0
2, 46822, Note_on_c, 0, 80, 66
2, 46871, Note_on_c, 0, 80, 0
2, 46879, Note_on_c, 0, 78, 75
2, 46944, Note_on_c, 0, 78, 0
2, 46958, Note_on_c, 0, 76, 71
2, 47188, Note_on_c, 0, 78, 74
2, 47191, Note_on_c, 0, 76, 0
2, 47466, Note_on_c, 0, 81, 65
2, 47503, Note_on_c, 0, 78, 0
2, 47714, Note_on_c, 0, 61, 40
2, 47773, Note_on_c, 0, 62, 0
2, 47962, Note_on_c, 0, 59, 46
2, 47997, Note_on_c, 0, 61, 0
2, 48188, Note_on_c, 0, 61, 39
2, 48191, Note_on_c, 0, 78, 53
2, 48199, Note_on_c, 0, 81, 0
2, 48238, Note_on_c, 0, 78, 0
2, 48267, Note_on_c, 0, 76, 58
2, 48284, Note_on_c, 0, 59, 0
2, 48315, Note_on_c, 0, 76, 0
2, 48333, Note_on_c, 0, 78, 68
2, 48388, Note_on_c, 0, 78, 0
2, 48404, Note_on_c, 0, 76, 60
2, 48454, Note_on_c, 0, 76, 0
2, 48489, Note_on_c, 0, 74, 60
2, 48708, Note_on_c, 0, 74, 0
2, 48714, Note_on_c, 0, 76, 59
2, 48976, Note_on_c, 0, 81, 60
2, 48979, Note_on_c, 0, 76, 0
2, 49211, Note_on_c, 0, 61, 0
2, 49228, Note_on_c, 0, 62, 40
2, 49468, Note_on_c, 0, 62, 0
2, 49480, Note_on_c, 0, 61, 47
2, 49694, Note_on_c, 0, 61, 0
2, 49739, Note_on_c, 0, 74, 51
2, 49753, Note_on_c, 0, 81, 0
2, 49754, Note_on_c, 0, 59, 42
2, 49980, Note_on_c, 0, 74, 0
2, 49987, Note_on_c, 0, 76, 62
2, 50211, Note_on_c, 0, 57, 0
2, 50230, Note_on_c, 0, 78, 62
2, 50239, Note_on_c, 0, 76, 0
2, 50466, Note_on_c, 0, 78, 0
2, 50469, Note_on_c, 0, 56, 40
2, 50469, Note_on_c, 0, 76, 61
2, 50716, Note_on_c, 0, 78, 66
2, 50750, Note_on_c, 0, 76, 0
2, 50837, Control_c, 0, 64, 42
2, 50857, Control_c, 0, 64, 61
2, 50876, Control_c, 0, 64, 66
2, 50895, Control_c, 0, 64, 70
2, 50908, Note_on_c, 0, 56, 0
2, 50914, Control_c, 0, 64, 78
2, 50934, Control_c, 0, 64, 90
2, 50943, Note_on_c, 0, 59, 0
2, 50953, Control_c, 0, 64, 110
2, 50955, Note_on_c, 0, 78, 0
2, 50967, Note_on_c, 0, 74, 59
2, 50972, Control_c, 0, 64, 127
2, 51222, Control_c, 0, 64, 115
2, 51226, Note_on_c, 0, 45, 45
2, 51226, Note_on_c, 0, 74, 0
2, 51238, Note_on_c, 0, 73, 60
2, 51240, Control_c, 0, 64, 101
2, 51260, Control_c, 0, 64, 93
2, 51279, Control_c, 0, 64, 85
2, 51298, Control_c, 0, 64, 78
2, 51317, Control_c, 0, 64, 70
2, 51337, Control_c, 0, 64, 64
2, 51356, Control_c, 0, 64, 56
2, 51375, Control_c, 0, 64, 44
2, 51394, Control_c, 0, 64, 21
2, 51414, Control_c, 0, 64, 0
2, 51489, Note_on_c, 0, 49, 53
2, 51490, Note_on_c, 0, 69, 67
2, 51504, Note_on_c, 0, 73, 0
2, 51521, Note_on_c, 0, 45, 0
2, 51732, Note_on_c, 0, 69, 0
2, 51734, Note_on_c, 0, 52, 57
2, 51736, Note_on_c, 0, 71, 68
2, 51794, Note_on_c, 0, 49, 0
2, 51979, Note_on_c, 0, 73, 70
2, 51997, Note_on_c, 0, 52, 0
2, 52003, Note_on_c, 0, 57, 58
2, 52046, Note_on_c, 0, 71, 0
2, 52243, Note_on_c, 0, 56, 63
2, 52264, Note_on_c, 0, 57, 0
2, 52493, Note_on_c, 0, 57, 60
2, 52506, Note_on_c, 0, 56, 0
2, 52795, Note_on_c, 0, 51, 56
2, 52949, Note_on_c, 0, 57, 0
2, 53055, Note_on_c, 0, 71, 62
2, 53090, Note_on_c, 0, 73, 0
2, 53311, Note_on_c, 0, 69, 66
2, 53317, Note_on_c, 0, 54, 58
2, 53318, Note_on_c, 0, 71, 0
2, 53456, Note_on_c, 0, 54, 0
2, 53574, Note_on_c, 0, 68, 68
2, 53581, Note_on_c, 0, 59, 59
2, 53583, Note_on_c, 0, 69, 0
2, 53834, Note_on_c, 0, 69, 68
2, 53836, Control_c, 0, 64, 17
2, 53848, Note_on_c, 0, 68, 0
2, 53854, Control_c, 0, 64, 53
2, 53874, Control_c, 0, 64, 63
2, 53893, Control_c, 0, 64, 67
2, 53912, Control_c, 0, 64, 72
2, 53931, Control_c, 0, 64, 80
2, 53951, Control_c, 0, 64, 94
2, 53966, Note_on_c, 0, 59, 0
2, 53970, Control_c, 0, 64, 127
2, 54023, Note_on_c, 0, 51, 0
2, 54078, Note_on_c, 0, 66, 71
2, 54102, Note_on_c, 0, 69, 0
2, 54361, Note_on_c, 0, 68, 69
2, 54384, Note_on_c, 0, 40, 62
2, 54404, Note_on_c, 0, 66, 0
2, 54431, Control_c, 0, 64, 111
2, 54450, Control_c, 0, 64, 82
2, 54469, Control_c, 0, 64, 66
2, 54488, Control_c, 0, 64, 44
2, 54508, Control_c, 0, 64, 0
2, 54635, Note_on_c, 0, 44, 60
2, 54648, Note_on_c, 0, 64, 66
2, 54681, Note_on_c, 0, 68, 0
2, 54687, Note_on_c, 0, 40, 0
2, 54886, Note_on_c, 0, 47, 67
2, 54895, Note_on_c, 0, 66, 69
2, 54916, Note_on_c, 0, 44, 0
2, 54919, Note_on_c, 0, 64, 0
2, 55145, Note_on_c, 0, 68, 76
2, 55160, Note_on_c, 0, 47, 0
2, 55160, Note_on_c, 0, 52, 66
2, 55264, Note_on_c, 0, 66, 0
2, 55397, Note_on_c, 0, 51, 65
2, 55415, Note_on_c, 0, 52, 0
2, 55659, Note_on_c, 0, 52, 64
2, 55695, Note_on_c, 0, 51, 0
2, 55966, Note_on_c, 0, 45, 57
2, 56116, Note_on_c, 0, 52, 0
2, 56243, Note_on_c, 0, 69, 68
2, 56270, Note_on_c, 0, 68, 0
2, 56488, Note_on_c, 0, 52, 63
2, 56497, Note_on_c, 0, 71, 68
2, 56513, Note_on_c, 0, 69, 0
2, 56630, Note_on_c, 0, 52, 0
2, 56775, Note_on_c, 0, 57, 72
2, 56775, Note_on_c, 0, 73, 70
2, 56783, Note_on_c, 0, 71, 0
2, 57047, Note_on_c, 0, 66, 69
2, 57117, Note_on_c, 0, 73, 0
2, 57299, Note_on_c, 0, 69, 70
2, 57335, Note_on_c, 0, 66, 0
2, 57528, Note_on_c, 0, 45, 0
2, 57543, Note_on_c, 0, 47, 53
2, 57548, Note_on_c, 0, 59, 64
2, 57628, Note_on_c, 0, 69, 0
2, 57829, Note_on_c, 0, 63, 66
2, 57863, Note_on_c, 0, 59, 0
2, 58091, Note_on_c, 0, 66, 68
2, 58146, Note_on_c, 0, 63, 0
2, 58338, Note_on_c, 0, 71, 71
2, 58339, Note_on_c, 0, 56, 55
2, 58367, Note_on_c, 0, 66, 0
2, 58508, Note_on_c, 0, 57, 0
2, 58596, Note_on_c, 0, 69, 75
2, 58623, Note_on_c, 0, 71, 0
2, 58858, Note_on_c, 0, 71, 73
2, 58890, Note_on_c, 0, 69, 0
2, 59108, Note_on_c, 0, 61, 64
2, 59146, Note_on_c, 0, 71, 0
2, 59365, Note_on_c, 0, 64, 70
2, 59393, Note_on_c, 0, 61, 0
2, 59622, Note_on_c, 0, 68, 72
2, 59654, Note_on_c, 0, 64, 0
2, 59878, Note_on_c, 0, 69, 64
2, 59923, Note_on_c, 0, 68, 0
2, 60150, Note_on_c, 0, 56, 0
2, 60151, Note_on_c, 0, 54, 52
2, 60412, Note_on_c, 0, 54, 0
2, 60423, Note_on_c, 0, 52, 47
2, 60695, Note_on_c, 0, 51, 34
2, 60705, Note_on_c, 0, 59, 44
2, 60710, Note_on_c, 0, 69, 0
2, 60763, Note_on_c, 0, 52, 0
2, 60968, Note_on_c, 0, 63, 53
2, 60973, Note_on_c, 0, 59, 0
2, 61227, Note_on_c, 0, 66, 56
2, 61286, Note_on_c, 0, 63, 0
2, 61498, Note_on_c, 0, 69, 56
2, 61502, Note_on_c, 0, 66, 0
2, 61736, Note_on_c, 0, 47, 0
2, 61739, Note_on_c, 0, 68, 58
2, 61743, Note_on_c, 0, 69, 0
2, 61985, Note_on_c, 0, 42, 51
2, 61991, Note_on_c, 0, 69, 58
2, 62005, Note_on_c, 0, 68, 0
2, 62151, Note_on_c, 0, 42, 0
2, 62270, Note_on_c, 0, 43, 59
2, 62285, Note_on_c, 0, 59, 53
2, 62341, Note_on_c, 0, 69, 0
2, 62550, Note_on_c, 0, 63, 61
2, 62567, Note_on_c, 0, 59, 0
2, 62806, Note_on_c, 0, 66, 60
2, 62852, Note_on_c, 0, 63, 0
2, 63067, Note_on_c, 0, 52, 41
2, 63074, Note_on_c, 0, 67, 55
2, 63076, Note_on_c, 0, 66, 0
2, 63094, Note_on_c, 0, 51, 0
2, 63321, Note_on_c, 0, 45, 49
2, 63361, Note_on_c, 0, 43, 0
2, 63513, Control_c, 0, 64, 54
2, 63532, Control_c, 0, 64, 62
2, 63552, Control_c, 0, 64, 65
2, 63571, Control_c, 0, 64, 69
2, 63586, Note_on_c, 0, 45, 0
2, 63590, Control_c, 0, 64, 77
2, 63592, Note_on_c, 0, 47, 59
2, 63609, Control_c, 0, 64, 92
2, 63629, Control_c, 0, 64, 127
2, 63676, Note_on_c, 0, 47, 0
2, 63857, Note_on_c, 0, 48, 59
2, 63916, Control_c, 0, 64, 103
2, 63935, Control_c, 0, 64, 76
2, 63955, Control_c, 0, 64, 64
2, 63974, Control_c, 0, 64, 44
2, 63993, Control_c, 0, 64, 0
2, 64118, Note_on_c, 0, 69, 60
2, 64128, Note_on_c, 0, 54, 58
2, 64138, Note_on_c, 0, 52, 0
2, 64149, Note_on_c, 0, 67, 0
2, 64371, Note_on_c, 0, 55, 70
2, 64380, Note_on_c, 0, 67, 65
2, 64400, Note_on_c, 0, 69, 0
2, 64403, Note_on_c, 0, 54, 0
2, 64648, Note_on_c, 0, 57, 60
2, 64648, Note_on_c, 0, 66, 67
2, 64664, Note_on_c, 0, 55, 0
2, 64664, Note_on_c, 0, 67, 0
2, 64908, Note_on_c, 0, 67, 67
2, 64922, Note_on_c, 0, 66, 0
2, 65192, Note_on_c, 0, 64, 65
2, 65202, Control_c, 0, 64, 51
2, 65220, Control_c, 0, 64, 62
2, 65223, Note_on_c, 0, 67, 0
2, 65240, Control_c, 0, 64, 65
2, 65259, Control_c, 0, 64, 67
2, 65279, Control_c, 0, 64, 71
2, 65297, Control_c, 0, 64, 77
2, 65317, Control_c, 0, 64, 82
2, 65336, Control_c, 0, 64, 88
2, 65356, Control_c, 0, 64, 92
2, 65367, Note_on_c, 0, 64, 0
2, 65374, Control_c, 0, 64, 94
2, 65394, Control_c, 0, 64, 95
2, 65413, Control_c, 0, 64, 96
2, 65423, Note_on_c, 0, 47, 47
2, 65432, Control_c, 0, 64, 98
2, 65451, Control_c, 0, 64, 100
2, 65471, Control_c, 0, 64, 102
2, 65486, Note_on_c, 0, 48, 0
2, 65490, Control_c, 0, 64, 103
2, 65508, Note_on_c, 0, 64, 60
2, 65528, Control_c, 0, 64, 102
2, 65548, Control_c, 0, 64, 99
2, 65564, Note_on_c, 0, 64, 0
2, 65566, Control_c, 0, 64, 93
2, 65586, Control_c, 0, 64, 83
2, 65593, Note_on_c, 0, 63, 67
2, 65605, Control_c, 0, 64, 74
2, 65625, Control_c, 0, 64, 67
2, 65643, Control_c, 0, 64, 59
2, 65646, Note_on_c, 0, 63, 0
2, 65663, Control_c, 0, 64, 43
2, 65676, Note_on_c, 0, 64, 68
2, 65682, Control_c, 0, 64, 0
2, 65746, Note_on_c, 0, 63, 73
2, 65746, Note_on_c, 0, 64, 0
2, 65836, Note_on_c, 0, 61, 79
2, 65837, Note_on_c, 0, 63, 0
2, 66076, Note_on_c, 0, 59, 80
2, 66103, Note_on_c, 0, 61, 0
2, 66392, Note_on_c, 0, 72, 76
2, 66432, Note_on_c, 0, 59, 0
2, 66693, Note_on_c, 0, 49, 48
2, 66696, Note_on_c, 0, 71, 78
2, 66706, Note_on_c, 0, 56, 50
2, 66745, Note_on_c, 0, 57, 0
2, 66787, Note_on_c, 0, 72, 0
2, 66797, Note_on_c, 0, 47, 0
2, 66807, Note_on_c, 0, 56, 0
2, 66975, Note_on_c, 0, 70, 80
2, 66985, Note_on_c, 0, 54, 51
2, 66986, Note_on_c, 0, 49, 0
2, 66988, Note_on_c, 0, 51, 39
2, 67011, Note_on_c, 0, 71, 0
2, 67268, Note_on_c, 0, 52, 47
2, 67270, Note_on_c, 0, 69, 71
2, 67323, Note_on_c, 0, 70, 0
2, 67324, Note_on_c, 0, 54, 0
2, 67334, Note_on_c, 0, 51, 0
2, 67538, Note_on_c, 0, 68, 70
2, 67547, Note_on_c, 0, 69, 0
2, 67809, Note_on_c, 0, 46, 57
2, 67815, Note_on_c, 0, 67, 66
2, 67846, Note_on_c, 0, 68, 0
2, 67941, Note_on_c, 0, 46, 0
2, 68065, Note_on_c, 0, 67, 0
2, 68067, Note_on_c, 0, 66, 64
2, 68075, Note_on_c, 0, 47, 51
2, 68197, Note_on_c, 0, 68, 71
2, 68231, Note_on_c, 0, 66, 0
2, 68319, Note_on_c, 0, 51, 39
2, 68328, Note_on_c, 0, 68, 0
2, 68330, Note_on_c, 0, 69, 71
2, 68332, Note_on_c, 0, 52, 0
2, 68614, Note_on_c, 0, 63, 64
2, 68618, Note_on_c, 0, 51, 0
2, 68619, Note_on_c, 0, 69, 0
2, 68635, Note_on_c, 0, 57, 43
2, 68961, Note_on_c, 0, 56, 45
2, 68970, Note_on_c, 0, 47, 0
2, 68986, Note_on_c, 0, 49, 40
2, 68991, Note_on_c, 0, 64, 64
2, 69028, Note_on_c, 0, 57, 0
2, 69042, Note_on_c, 0, 63, 0
2, 69266, Note_on_c, 0, 52, 58
2, 69286, Note_on_c, 0, 56, 0
2, 69528, Note_on_c, 0, 56, 59
2, 69587, Note_on_c, 0, 52, 0
2, 69785, Note_on_c, 0, 57, 57
2, 69822, Note_on_c, 0, 56, 0
2, 70038, Note_on_c, 0, 56, 59
2, 70059, Note_on_c, 0, 57, 0
2, 70305, Note_on_c, 0, 56, 0
2, 70308, Control_c, 0, 64, 43
2, 70316, Note_on_c, 0, 57, 50
2, 70327, Control_c, 0, 64, 57
2, 70347, Control_c, 0, 64, 62
2, 70366, Control_c, 0, 64, 64
2, 70385, Control_c, 0, 64, 66
2, 70404, Control_c, 0, 64, 69
2, 70424, Control_c, 0, 64, 75
2, 70442, Control_c, 0, 64, 84
2, 70461, Control_c, 0, 64, 98
2, 70481, Control_c, 0, 64, 127
2, 70506, Note_on_c, 0, 49, 0
2, 70576, Note_on_c, 0, 52, 51
2, 70577, Note_on_c, 0, 57, 0
2, 70591, Note_on_c, 0, 44, 51
2, 70674, Control_c, 0, 64, 96
2, 70693, Control_c, 0, 64, 81
2, 70712, Control_c, 0, 64, 69
2, 70731, Control_c, 0, 64, 60
2, 70751, Control_c, 0, 64, 41
2, 70770, Control_c, 0, 64, 11
2, 70789, Control_c, 0, 64, 0
2, 70851, Note_on_c, 0, 56, 57
2, 71131, Note_on_c, 0, 56, 0
2, 71131, Note_on_c, 0, 59, 60
2, 71418, Note_on_c, 0, 59, 0
2, 71421, Note_on_c, 0, 62, 49
2, 71661, Note_on_c, 0, 61, 53
2, 71686, Note_on_c, 0, 62, 0
2, 71901, Control_c, 0, 64, 21
2, 71921, Control_c, 0, 64, 52
2, 71934, Note_on_c, 0, 62, 49
2, 71939, Note_on_c, 0, 61, 0
2, 71940, Control_c, 0, 64, 61
2, 71959, Control_c, 0, 64, 64
2, 71978, Control_c, 0, 64, 66
2, 71998, Control_c, 0, 64, 69
2, 72016, Control_c, 0, 64, 74
2, 72028, Note_on_c, 0, 44, 0
2, 72036, Control_c, 0, 64, 83
2, 72055, Control_c, 0, 64, 98
2, 72075, Control_c, 0, 64, 127
2, 72131, Note_on_c, 0, 62, 0
2, 72175, Note_on_c, 0, 45, 43
2, 72232, Note_on_c, 0, 62, 45
2, 72314, Note_on_c, 0, 62, 0
2, 72324, Control_c, 0, 64, 103
2, 72344, Control_c, 0, 64, 87
2, 72356, Note_on_c, 0, 61, 52
2, 72362, Control_c, 0, 64, 75
2, 72381, Control_c, 0, 64, 67
2, 72401, Control_c, 0, 64, 60
2, 72419, Note_on_c, 0, 61, 0
2, 72420, Control_c, 0, 64, 49
2, 72440, Control_c, 0, 64, 39
2, 72452, Note_on_c, 0, 62, 59
2, 72459, Control_c, 0, 64, 25
2, 72479, Control_c, 0, 64, 0
2, 72488, Note_on_c, 0, 52, 0
2, 72505, Note_on_c, 0, 62, 0
2, 72510, Note_on_c, 0, 49, 46
2, 72538, Note_on_c, 0, 61, 64
2, 72600, Note_on_c, 0, 61, 0
2, 72636, Note_on_c, 0, 62, 62
2, 72685, Note_on_c, 0, 62, 0
2, 72719, Note_on_c, 0, 61, 64
2, 72767, Note_on_c, 0, 61, 0
2, 72779, Note_on_c, 0, 52, 44
2, 72784, Note_on_c, 0, 49, 0
2, 72797, Note_on_c, 0, 62, 59
2, 72856, Note_on_c, 0, 62, 0
2, 72892, Note_on_c, 0, 61, 60
2, 73107, Note_on_c, 0, 52, 0
2, 73117, Note_on_c, 0, 57, 50
2, 73509, Note_on_c, 0, 56, 55
2, 73617, Note_on_c, 0, 57, 0
2, 73989, Note_on_c, 0, 63, 50
2, 74008, Note_on_c, 0, 60, 43
2, 74010, Note_on_c, 0, 57, 34
2, 74018, Note_on_c, 0, 61, 0
2, 74030, Note_on_c, 0, 64, 0
2, 74037, Note_on_c, 0, 56, 0
2, 74164, Control_c, 0, 64, 28
2, 74183, Control_c, 0, 64, 52
2, 74202, Control_c, 0, 64, 62
2, 74221, Control_c, 0, 64, 65
2, 74241, Control_c, 0, 64, 70
2, 74260, Control_c, 0, 64, 79
2, 74279, Control_c, 0, 64, 94
2, 74297, Note_on_c, 0, 45, 0
2, 74298, Control_c, 0, 64, 127
2, 74823, Note_on_c, 0, 40, 42
2, 74832, Note_on_c, 0, 64, 56
2, 74836, Control_c, 0, 64, 93
2, 74855, Control_c, 0, 64, 75
2, 74872, Control_c, 0, 64, 63
2, 74890, Control_c, 0, 64, 43
2, 74896, Note_on_c, 0, 60, 0
2, 74902, Note_on_c, 0, 63, 0
2, 74910, Control_c, 0, 64, 0
2, 74941, Note_on_c, 0, 57, 0
2, 75490, Note_on_c, 0, 59, 44
2, 75918, Note_on_c, 0, 56, 48
2, 75939, Note_on_c, 0, 59, 0
2, 76379, Note_on_c, 0, 59, 46
2, 76575, Note_on_c, 0, 64, 0
2, 76898, Note_on_c, 0, 64, 40
2, 76960, Note_on_c, 0, 64, 0
2, 77002, Note_on_c, 0, 63, 49
2, 77092, Note_on_c, 0, 63, 0
2, 77109, Note_on_c, 0, 64, 50
2, 81148, Note_on_c, 0, 56, 0
2, 81212, Note_on_c, 0, 59, 0
2, 81216, Note_on_c, 0, 64, 0
2, 81239, Note_on_c, 0, 40, 0
2, 83304,End_track
0, 0, End_of_file
