0, 0, Header, 1, 2, 480
1, 0, Start_track
1, 0, Tempo, 500000
1, 0, Time_signature, 4, 2, 24, 8
1, 1, End_track
2, 0, Start_track
2, 0, Program_c, 0, 0
2, 0, Control_c, 0, 64, 0
2, 291, Control_c, 0, 64, 13
2, 309, Control_c, 0, 64, 19
2, 328, Control_c, 0, 64, 24
2, 348, Control_c, 0, 64, 28
2, 367, Control_c, 0, 64, 33
2, 383, Control_c, 0, 64, 36
2, 400, Control_c, 0, 64, 39
2, 419, Control_c, 0, 64, 42
2, 438, Control_c, 0, 64, 44
2, 457, Control_c, 0, 64, 46
2, 477, Control_c, 0, 64, 47
2, 496, Control_c, 0, 64, 48
2, 515, Control_c, 0, 64, 49
2, 534, Control_c, 0, 64, 50
2, 554, Control_c, 0, 64, 51
2, 573, Control_c, 0, 64, 52
2, 592, Control_c, 0, 64, 53
2, 611, Control_c, 0, 64, 54
2, 631, Control_c, 0, 64, 55
2, 649, Control_c, 0, 64, 56
2, 669, Control_c, 0, 64, 57
2, 688, Control_c, 0, 64, 57
2, 708, Control_c, 0, 64, 58
2, 726, Control_c, 0, 64, 59
2, 745, Control_c, 0, 64, 60
2, 764, Control_c, 0, 64, 60
2, 783, Control_c, 0, 64, 61
2, 802, Control_c, 0, 64, 62
2, 843, Control_c, 0, 64, 62
2, 938, Control_c, 0, 64, 62
2, 952, Note_on_c, 0, 52, 33
2, 958, Note_on_c, 0, 64, 48
2, 977, Control_c, 0, 64, 61
2, 996, Control_c, 0, 64, 61
2, 1015, Control_c, 0, 64, 60
2, 1035, Control_c, 0, 64, 60
2, 1053, Control_c, 0, 64, 59
2, 1073, Control_c, 0, 64, 58
2, 1092, Control_c, 0, 64, 57
2, 1112, Control_c, 0, 64, 57
2, 1130, Control_c, 0, 64, 56
2, 1150, Control_c, 0, 64, 53
2, 1169, Control_c, 0, 64, 50
2, 1189, Control_c, 0, 64, 47
2, 1195, Note_on_c, 0, 64, 0
2, 1203, Note_on_c, 0, 68, 63
2, 1207, Control_c, 0, 64, 45
2, 1227, Control_c, 0, 64, 43
2, 1246, Control_c, 0, 64, 39
2, 1264, Control_c, 0, 64, 34
2, 1284, Control_c, 0, 64, 28
2, 1303, Control_c, 0, 64, 23
2, 1323, Control_c, 0, 64, 15
2, 1341, Control_c, 0, 64, 9
2, 1361, Control_c, 0, 64, 0
2, 1432, Note_on_c, 0, 68, 0
2, 1444, Note_on_c, 0, 71, 61
2, 1646, Note_on_c, 0, 71, 0
2, 1683, Note_on_c, 0, 76, 60
2, 1714, Note_on_c, 0, 56, 44
2, 1926, Note_on_c, 0, 75, 67
2, 1963, Note_on_c, 0, 76, 0
2, 2148, Control_c, 0, 64, 24
2, 2148, Note_on_c, 0, 75, 0
2, 2161, Note_on_c, 0, 76, 61
2, 2166, Control_c, 0, 64, 36
2, 2185, Control_c, 0, 64, 49
2, 2205, Control_c, 0, 64, 58
2, 2223, Control_c, 0, 64, 63
2, 2243, Control_c, 0, 64, 67
2, 2262, Control_c, 0, 64, 71
2, 2282, Control_c, 0, 64, 79
2, 2296, Note_on_c, 0, 76, 0
2, 2300, Control_c, 0, 64, 85
2, 2320, Control_c, 0, 64, 87
2, 2339, Control_c, 0, 64, 88
2, 2397, Control_c, 0, 64, 87
2, 2403, Note_on_c, 0, 75, 62
2, 2416, Control_c, 0, 64, 87
2, 2435, Control_c, 0, 64, 84
2, 2448, Note_on_c, 0, 57, 50
2, 2451, Note_on_c, 0, 75, 0
2, 2454, Control_c, 0, 64, 79
2, 2473, Note_on_c, 0, 73, 59
2, 2474, Control_c, 0, 64, 72
2, 2478, Note_on_c, 0, 56, 0
2, 2493, Control_c, 0, 64, 65
2, 2512, Control_c, 0, 64, 57
2, 2526, Note_on_c, 0, 73, 0
2, 2531, Control_c, 0, 64, 44
2, 2545, Note_on_c, 0, 75, 65
2, 2551, Control_c, 0, 64, 23
2, 2569, Control_c, 0, 64, 0
2, 2605, Note_on_c, 0, 73, 62
2, 2628, Note_on_c, 0, 75, 0
2, 2672, Note_on_c, 0, 71, 67
2, 2691, Note_on_c, 0, 73, 0
2, 2856, Note_on_c, 0, 71, 0
2, 2920, Note_on_c, 0, 73, 65
2, 3113, Note_on_c, 0, 73, 0
2, 3157, Note_on_c, 0, 76, 66
2, 3410, Note_on_c, 0, 56, 53
2, 3410, Note_on_c, 0, 57, 0
2, 3663, Note_on_c, 0, 56, 0
2, 3665, Note_on_c, 0, 54, 51
2, 3684, Control_c, 0, 64, 32
2, 3703, Control_c, 0, 64, 51
2, 3723, Control_c, 0, 64, 59
2, 3741, Control_c, 0, 64, 62
2, 3761, Control_c, 0, 64, 64
2, 3780, Control_c, 0, 64, 66
2, 3799, Control_c, 0, 64, 68
2, 3818, Control_c, 0, 64, 69
2, 3828, Note_on_c, 0, 76, 0
2, 3838, Control_c, 0, 64, 71
2, 3895, Control_c, 0, 64, 70
2, 3910, Note_on_c, 0, 73, 57
2, 3915, Control_c, 0, 64, 70
2, 3919, Note_on_c, 0, 54, 0
2, 3933, Control_c, 0, 64, 68
2, 3934, Note_on_c, 0, 56, 53
2, 3953, Control_c, 0, 64, 66
2, 3957, Note_on_c, 0, 73, 0
2, 3972, Control_c, 0, 64, 62
2, 3973, Note_on_c, 0, 71, 58
2, 3992, Control_c, 0, 64, 55
2, 4010, Control_c, 0, 64, 42
2, 4023, Note_on_c, 0, 71, 0
2, 4030, Control_c, 0, 64, 9
2, 4047, Note_on_c, 0, 73, 66
2, 4049, Control_c, 0, 64, 0
2, 4118, Note_on_c, 0, 71, 67
2, 4126, Note_on_c, 0, 73, 0
2, 4180, Note_on_c, 0, 69, 66
2, 4180, Note_on_c, 0, 71, 0
2, 4366, Note_on_c, 0, 69, 0
2, 4428, Note_on_c, 0, 71, 65
2, 4618, Note_on_c, 0, 71, 0
2, 4671, Note_on_c, 0, 76, 63
2, 4894, Note_on_c, 0, 56, 0
2, 4915, Note_on_c, 0, 57, 51
2, 5148, Note_on_c, 0, 57, 0
2, 5169, Note_on_c, 0, 56, 56
2, 5430, Note_on_c, 0, 69, 61
2, 5435, Note_on_c, 0, 56, 0
2, 5440, Note_on_c, 0, 54, 47
2, 5560, Note_on_c, 0, 76, 0
2, 5657, Note_on_c, 0, 69, 0
2, 5680, Note_on_c, 0, 71, 63
2, 5871, Note_on_c, 0, 71, 0
2, 5923, Note_on_c, 0, 73, 62
2, 6117, Note_on_c, 0, 73, 0
2, 6175, Note_on_c, 0, 71, 56
2, 6191, Note_on_c, 0, 51, 38
2, 6201, Note_on_c, 0, 52, 0
2, 6396, Note_on_c, 0, 71, 0
2, 6418, Note_on_c, 0, 73, 59
2, 6613, Note_on_c, 0, 73, 0
2, 6666, Note_on_c, 0, 69, 60
2, 6698, Control_c, 0, 64, 29
2, 6718, Control_c, 0, 64, 51
2, 6737, Control_c, 0, 64, 61
2, 6756, Control_c, 0, 64, 64
2, 6769, Note_on_c, 0, 51, 0
2, 6775, Control_c, 0, 64, 65
2, 6795, Control_c, 0, 64, 67
2, 6813, Control_c, 0, 64, 69
2, 6833, Control_c, 0, 64, 72
2, 6839, Note_on_c, 0, 69, 0
2, 6852, Control_c, 0, 64, 74
2, 6852, Note_on_c, 0, 54, 0
2, 6890, Control_c, 0, 64, 73
2, 6910, Control_c, 0, 64, 71
2, 6922, Note_on_c, 0, 68, 63
2, 6929, Control_c, 0, 64, 66
2, 6929, Note_on_c, 0, 52, 48
2, 6949, Control_c, 0, 64, 59
2, 6967, Control_c, 0, 64, 38
2, 6986, Control_c, 0, 64, 23
2, 7006, Control_c, 0, 64, 27
2, 7024, Control_c, 0, 64, 39
2, 7044, Control_c, 0, 64, 51
2, 7063, Control_c, 0, 64, 57
2, 7083, Control_c, 0, 64, 59
2, 7121, Control_c, 0, 64, 57
2, 7129, Note_on_c, 0, 68, 0
2, 7140, Control_c, 0, 64, 52
2, 7159, Control_c, 0, 64, 38
2, 7174, Note_on_c, 0, 71, 73
2, 7178, Control_c, 0, 64, 17
2, 7182, Note_on_c, 0, 56, 52
2, 7198, Control_c, 0, 64, 0
2, 7236, Control_c, 0, 64, 13
2, 7255, Control_c, 0, 64, 28
2, 7275, Control_c, 0, 64, 40
2, 7293, Control_c, 0, 64, 48
2, 7313, Control_c, 0, 64, 50
2, 7332, Control_c, 0, 64, 47
2, 7352, Control_c, 0, 64, 36
2, 7362, Note_on_c, 0, 71, 0
2, 7370, Control_c, 0, 64, 0
2, 7417, Note_on_c, 0, 76, 73
2, 7432, Note_on_c, 0, 52, 0
2, 7440, Note_on_c, 0, 59, 56
2, 7524, Note_on_c, 0, 56, 0
2, 7615, Note_on_c, 0, 76, 0
2, 7677, Note_on_c, 0, 80, 76
2, 7684, Note_on_c, 0, 59, 0
2, 7692, Note_on_c, 0, 64, 52
2, 7930, Note_on_c, 0, 63, 58
2, 7953, Note_on_c, 0, 64, 0
2, 8178, Note_on_c, 0, 63, 0
2, 8178, Note_on_c, 0, 64, 59
2, 8451, Note_on_c, 0, 58, 59
2, 8530, Note_on_c, 0, 64, 0
2, 8702, Note_on_c, 0, 78, 69
2, 8782, Note_on_c, 0, 80, 0
2, 8937, Note_on_c, 0, 78, 0
2, 8943, Note_on_c, 0, 61, 51
2, 8955, Note_on_c, 0, 76, 65
2, 9194, Note_on_c, 0, 76, 0
2, 9211, Note_on_c, 0, 61, 0
2, 9212, Note_on_c, 0, 75, 65
2, 9227, Note_on_c, 0, 66, 49
2, 9436, Note_on_c, 0, 75, 0
2, 9466, Note_on_c, 0, 76, 64
2, 9679, Note_on_c, 0, 76, 0
2, 9687, Note_on_c, 0, 66, 0
2, 9692, Control_c, 0, 64, 33
2, 9704, Note_on_c, 0, 73, 62
2, 9711, Control_c, 0, 64, 55
2, 9730, Control_c, 0, 64, 61
2, 9733, Note_on_c, 0, 58, 0
2, 9750, Control_c, 0, 64, 64
2, 9768, Control_c, 0, 64, 67
2, 9787, Control_c, 0, 64, 71
2, 9807, Control_c, 0, 64, 79
2, 9832, Control_c, 0, 64, 88
2, 9850, Control_c, 0, 64, 93
2, 9858, Note_on_c, 0, 73, 0
2, 9909, Control_c, 0, 64, 90
2, 9927, Control_c, 0, 64, 87
2, 9947, Control_c, 0, 64, 85
2, 9956, Note_on_c, 0, 47, 49
2, 9966, Control_c, 0, 64, 82
2, 9985, Control_c, 0, 64, 77
2, 10004, Control_c, 0, 64, 73
2, 10012, Note_on_c, 0, 73, 59
2, 10024, Control_c, 0, 64, 71
2, 10043, Control_c, 0, 64, 70
2, 10062, Control_c, 0, 64, 68
2, 10081, Control_c, 0, 64, 65
2, 10096, Control_c, 0, 64, 63
2, 10114, Control_c, 0, 64, 63
2, 10114, Note_on_c, 0, 73, 0
2, 10122, Note_on_c, 0, 75, 60
2, 10134, Control_c, 0, 64, 62
2, 10153, Control_c, 0, 64, 59
2, 10173, Control_c, 0, 64, 55
2, 10191, Control_c, 0, 64, 49
2, 10210, Control_c, 0, 64, 38
2, 10215, Note_on_c, 0, 75, 0
2, 10230, Control_c, 0, 64, 22
2, 10236, Note_on_c, 0, 51, 44
2, 10244, Note_on_c, 0, 76, 58
2, 10248, Control_c, 0, 64, 0
2, 10329, Note_on_c, 0, 76, 0
2, 10358, Note_on_c, 0, 75, 53
2, 10413, Note_on_c, 0, 75, 0
2, 10439, Note_on_c, 0, 76, 56
2, 10474, Note_on_c, 0, 47, 0
2, 10474, Note_on_c, 0, 54, 52
2, 10510, Note_on_c, 0, 76, 0
2, 10519, Note_on_c, 0, 51, 0
2, 10523, Note_on_c, 0, 75, 68
2, 10597, Note_on_c, 0, 75, 0
2, 10618, Note_on_c, 0, 76, 64
2, 10673, Note_on_c, 0, 54, 0
2, 10685, Note_on_c, 0, 59, 59
2, 10686, Note_on_c, 0, 76, 0
2, 10693, Note_on_c, 0, 75, 66
2, 10940, Note_on_c, 0, 59, 0
2, 10942, Note_on_c, 0, 58, 56
2, 11184, Note_on_c, 0, 58, 0
2, 11190, Note_on_c, 0, 59, 55
2, 11454, Note_on_c, 0, 52, 55
2, 11560, Note_on_c, 0, 59, 0
2, 11719, Note_on_c, 0, 76, 66
2, 11756, Note_on_c, 0, 75, 0
2, 11937, Note_on_c, 0, 76, 0
2, 11957, Note_on_c, 0, 59, 54
2, 11959, Note_on_c, 0, 78, 71
2, 12210, Note_on_c, 0, 78, 0
2, 12216, Note_on_c, 0, 80, 73
2, 12230, Note_on_c, 0, 64, 52
2, 12427, Note_on_c, 0, 59, 0
2, 12470, Note_on_c, 0, 73, 65
2, 12496, Note_on_c, 0, 80, 0
2, 12707, Note_on_c, 0, 73, 0
2, 12726, Note_on_c, 0, 76, 63
2, 12950, Note_on_c, 0, 76, 0
2, 12991, Note_on_c, 0, 54, 51
2, 12993, Note_on_c, 0, 66, 60
2, 13056, Note_on_c, 0, 52, 0
2, 13240, Note_on_c, 0, 70, 70
2, 13254, Note_on_c, 0, 66, 0
2, 13487, Note_on_c, 0, 73, 72
2, 13540, Note_on_c, 0, 70, 0
2, 13721, Note_on_c, 0, 73, 0
2, 13755, Note_on_c, 0, 78, 71
2, 13765, Note_on_c, 0, 63, 60
2, 13824, Note_on_c, 0, 64, 0
2, 14001, Note_on_c, 0, 76, 73
2, 14048, Note_on_c, 0, 78, 0
2, 14227, Note_on_c, 0, 76, 0
2, 14250, Note_on_c, 0, 78, 69
2, 14467, Note_on_c, 0, 78, 0
2, 14499, Note_on_c, 0, 68, 67
2, 14738, Note_on_c, 0, 68, 0
2, 14755, Note_on_c, 0, 71, 62
2, 14977, Note_on_c, 0, 71, 0
2, 15005, Note_on_c, 0, 75, 69
2, 15208, Note_on_c, 0, 75, 0
2, 15259, Note_on_c, 0, 76, 65
2, 15517, Note_on_c, 0, 61, 55
2, 15560, Note_on_c, 0, 63, 0
2, 15766, Note_on_c, 0, 61, 0
2, 15776, Note_on_c, 0, 59, 58
2, 15989, Note_on_c, 0, 59, 0
2, 16018, Note_on_c, 0, 76, 0
2, 16033, Note_on_c, 0, 58, 51
2, 16035, Note_on_c, 0, 66, 61
2, 16281, Note_on_c, 0, 70, 63
2, 16307, Note_on_c, 0, 66, 0
2, 16531, Note_on_c, 0, 70, 0
2, 16541, Note_on_c, 0, 73, 61
2, 16759, Note_on_c, 0, 73, 0
2, 16798, Note_on_c, 0, 76, 61
2, 16970, Note_on_c, 0, 76, 0
2, 17041, Note_on_c, 0, 75, 64
2, 17257, Note_on_c, 0, 75, 0
2, 17295, Note_on_c, 0, 49, 47
2, 17298, Note_on_c, 0, 76, 55
2, 17318, Note_on_c, 0, 54, 0
2, 17520, Note_on_c, 0, 76, 0
2, 17548, Note_on_c, 0, 49, 0
2, 17555, Note_on_c, 0, 66, 54
2, 17556, Note_on_c, 0, 50, 48
2, 17814, Note_on_c, 0, 70, 61
2, 17853, Note_on_c, 0, 66, 0
2, 18053, Note_on_c, 0, 70, 0
2, 18067, Note_on_c, 0, 73, 62
2, 18260, Note_on_c, 0, 73, 0
2, 18305, Note_on_c, 0, 58, 0
2, 18327, Note_on_c, 0, 74, 55
2, 18335, Note_on_c, 0, 59, 49
2, 18570, Note_on_c, 0, 50, 0
2, 18585, Note_on_c, 0, 52, 57
2, 18828, Note_on_c, 0, 52, 0
2, 18843, Note_on_c, 0, 54, 61
2, 18908, Control_c, 0, 64, 41
2, 18927, Control_c, 0, 64, 63
2, 18947, Control_c, 0, 64, 69
2, 18965, Control_c, 0, 64, 76
2, 18984, Note_on_c, 0, 54, 0
2, 18985, Control_c, 0, 64, 86
2, 19004, Control_c, 0, 64, 91
2, 19024, Control_c, 0, 64, 92
2, 19042, Control_c, 0, 64, 89
2, 19062, Control_c, 0, 64, 80
2, 19081, Control_c, 0, 64, 71
2, 19096, Note_on_c, 0, 55, 63
2, 19101, Control_c, 0, 64, 67
2, 19120, Control_c, 0, 64, 65
2, 19140, Control_c, 0, 64, 64
2, 19159, Control_c, 0, 64, 63
2, 19178, Control_c, 0, 64, 61
2, 19197, Control_c, 0, 64, 57
2, 19217, Control_c, 0, 64, 48
2, 19235, Control_c, 0, 64, 31
2, 19255, Control_c, 0, 64, 0
2, 19300, Note_on_c, 0, 74, 0
2, 19369, Note_on_c, 0, 76, 68
2, 19377, Note_on_c, 0, 61, 56
2, 19386, Note_on_c, 0, 59, 0
2, 19620, Note_on_c, 0, 74, 65
2, 19627, Note_on_c, 0, 62, 58
2, 19667, Note_on_c, 0, 61, 0
2, 19669, Note_on_c, 0, 76, 0
2, 19878, Note_on_c, 0, 73, 73
2, 19880, Note_on_c, 0, 74, 0
2, 19885, Note_on_c, 0, 62, 0
2, 19887, Note_on_c, 0, 64, 57
2, 20126, Note_on_c, 0, 74, 71
2, 20137, Note_on_c, 0, 73, 0
2, 20347, Note_on_c, 0, 74, 0
2, 20375, Note_on_c, 0, 71, 71
2, 20387, Control_c, 0, 64, 30
2, 20405, Control_c, 0, 64, 53
2, 20425, Control_c, 0, 64, 60
2, 20444, Control_c, 0, 64, 63
2, 20464, Control_c, 0, 64, 64
2, 20482, Control_c, 0, 64, 65
2, 20482, Note_on_c, 0, 71, 0
2, 20502, Control_c, 0, 64, 66
2, 20521, Control_c, 0, 64, 66
2, 20559, Control_c, 0, 64, 66
2, 20561, Note_on_c, 0, 70, 62
2, 20579, Control_c, 0, 64, 65
2, 20598, Control_c, 0, 64, 64
2, 20600, Note_on_c, 0, 55, 0
2, 20609, Note_on_c, 0, 70, 0
2, 20617, Control_c, 0, 64, 63
2, 20632, Note_on_c, 0, 71, 69
2, 20636, Control_c, 0, 64, 60
2, 20656, Control_c, 0, 64, 52
2, 20674, Control_c, 0, 64, 38
2, 20694, Control_c, 0, 64, 0
2, 20702, Note_on_c, 0, 70, 74
2, 20703, Note_on_c, 0, 54, 56
2, 20764, Note_on_c, 0, 71, 0
2, 20945, Note_on_c, 0, 68, 73
2, 20956, Note_on_c, 0, 70, 0
2, 21079, Control_c, 0, 64, 20
2, 21098, Control_c, 0, 64, 27
2, 21117, Control_c, 0, 64, 32
2, 21137, Control_c, 0, 64, 39
2, 21155, Control_c, 0, 64, 46
2, 21164, Note_on_c, 0, 68, 0
2, 21175, Control_c, 0, 64, 52
2, 21188, Note_on_c, 0, 66, 72
2, 21194, Control_c, 0, 64, 57
2, 21214, Control_c, 0, 64, 61
2, 21232, Control_c, 0, 64, 64
2, 21251, Control_c, 0, 64, 66
2, 21271, Control_c, 0, 64, 71
2, 21285, Note_on_c, 0, 66, 0
2, 21289, Control_c, 0, 64, 77
2, 21309, Control_c, 0, 64, 83
2, 21328, Control_c, 0, 64, 86
2, 21348, Control_c, 0, 64, 87
2, 21405, Control_c, 0, 64, 86
2, 21424, Control_c, 0, 64, 83
2, 21443, Control_c, 0, 64, 74
2, 21452, Note_on_c, 0, 79, 79
2, 21454, Note_on_c, 0, 64, 0
2, 21463, Control_c, 0, 64, 64
2, 21482, Control_c, 0, 64, 53
2, 21501, Control_c, 0, 64, 54
2, 21520, Control_c, 0, 64, 59
2, 21540, Control_c, 0, 64, 64
2, 21559, Control_c, 0, 64, 66
2, 21578, Control_c, 0, 64, 70
2, 21597, Control_c, 0, 64, 74
2, 21617, Control_c, 0, 64, 78
2, 21635, Control_c, 0, 64, 80
2, 21655, Control_c, 0, 64, 80
2, 21664, Note_on_c, 0, 79, 0
2, 21674, Control_c, 0, 64, 76
2, 21694, Control_c, 0, 64, 70
2, 21712, Control_c, 0, 64, 63
2, 21715, Note_on_c, 0, 78, 77
2, 21718, Note_on_c, 0, 63, 54
2, 21723, Note_on_c, 0, 56, 57
2, 21731, Control_c, 0, 64, 53
2, 21751, Control_c, 0, 64, 38
2, 21769, Control_c, 0, 64, 35
2, 21782, Note_on_c, 0, 54, 0
2, 21789, Control_c, 0, 64, 40
2, 21808, Control_c, 0, 64, 48
2, 21828, Control_c, 0, 64, 56
2, 21846, Control_c, 0, 64, 60
2, 21866, Control_c, 0, 64, 62
2, 21904, Control_c, 0, 64, 61
2, 21923, Control_c, 0, 64, 57
2, 21943, Control_c, 0, 64, 52
2, 21964, Control_c, 0, 64, 42
2, 21964, Note_on_c, 0, 77, 77
2, 21972, Note_on_c, 0, 61, 56
2, 21983, Control_c, 0, 64, 36
2, 21986, Note_on_c, 0, 58, 52
2, 21994, Note_on_c, 0, 56, 0
2, 22002, Control_c, 0, 64, 34
2, 22009, Note_on_c, 0, 63, 0
2, 22022, Control_c, 0, 64, 34
2, 22022, Note_on_c, 0, 78, 0
2, 22040, Control_c, 0, 64, 39
2, 22060, Control_c, 0, 64, 46
2, 22079, Control_c, 0, 64, 52
2, 22099, Control_c, 0, 64, 55
2, 22156, Control_c, 0, 64, 54
2, 22175, Control_c, 0, 64, 52
2, 22194, Control_c, 0, 64, 48
2, 22214, Control_c, 0, 64, 41
2, 22233, Control_c, 0, 64, 29
2, 22234, Note_on_c, 0, 61, 0
2, 22234, Note_on_c, 0, 77, 0
2, 22241, Note_on_c, 0, 76, 73
2, 22249, Note_on_c, 0, 59, 62
2, 22251, Control_c, 0, 64, 0
2, 22359, Note_on_c, 0, 58, 0
2, 22501, Note_on_c, 0, 75, 74
2, 22530, Note_on_c, 0, 76, 0
2, 22759, Note_on_c, 0, 74, 64
2, 22762, Note_on_c, 0, 75, 0
2, 22771, Note_on_c, 0, 53, 44
2, 23006, Note_on_c, 0, 74, 0
2, 23012, Note_on_c, 0, 73, 66
2, 23043, Note_on_c, 0, 54, 47
2, 23098, Note_on_c, 0, 53, 0
2, 23128, Note_on_c, 0, 75, 68
2, 23150, Note_on_c, 0, 73, 0
2, 23192, Note_on_c, 0, 59, 0
2, 23254, Note_on_c, 0, 75, 0
2, 23269, Note_on_c, 0, 76, 66
2, 23281, Note_on_c, 0, 58, 44
2, 23474, Note_on_c, 0, 76, 0
2, 23479, Control_c, 0, 64, 19
2, 23498, Control_c, 0, 64, 37
2, 23517, Control_c, 0, 64, 51
2, 23523, Note_on_c, 0, 70, 63
2, 23531, Note_on_c, 0, 58, 0
2, 23535, Note_on_c, 0, 64, 47
2, 23537, Control_c, 0, 64, 59
2, 23555, Control_c, 0, 64, 63
2, 23555, Note_on_c, 0, 54, 0
2, 23575, Control_c, 0, 64, 65
2, 23576, Note_on_c, 0, 64, 0
2, 23594, Control_c, 0, 64, 69
2, 23614, Control_c, 0, 64, 79
2, 23632, Control_c, 0, 64, 91
2, 23651, Control_c, 0, 64, 102
2, 23654, Note_on_c, 0, 70, 0
2, 23671, Control_c, 0, 64, 107
2, 23709, Control_c, 0, 64, 106
2, 23728, Control_c, 0, 64, 104
2, 23748, Control_c, 0, 64, 100
2, 23766, Control_c, 0, 64, 96
2, 23786, Control_c, 0, 64, 92
2, 23804, Control_c, 0, 64, 86
2, 23808, Note_on_c, 0, 71, 60
2, 23811, Note_on_c, 0, 47, 53
2, 23821, Note_on_c, 0, 63, 55
2, 23824, Control_c, 0, 64, 81
2, 23842, Control_c, 0, 64, 76
2, 23862, Control_c, 0, 64, 73
2, 23880, Control_c, 0, 64, 69
2, 23898, Control_c, 0, 64, 67
2, 23917, Control_c, 0, 64, 65
2, 23937, Control_c, 0, 64, 63
2, 23956, Control_c, 0, 64, 60
2, 23975, Control_c, 0, 64, 55
2, 23994, Control_c, 0, 64, 47
2, 24014, Control_c, 0, 64, 36
2, 24033, Control_c, 0, 64, 19
2, 24051, Control_c, 0, 64, 0
2, 24077, Note_on_c, 0, 51, 51
2, 24326, Note_on_c, 0, 54, 58
2, 24401, Note_on_c, 0, 47, 0
2, 24401, Note_on_c, 0, 51, 0
2, 24570, Note_on_c, 0, 54, 0
2, 24589, Note_on_c, 0, 59, 63
2, 24748, Note_on_c, 0, 63, 0
2, 24836, Note_on_c, 0, 57, 59
2, 24842, Note_on_c, 0, 59, 0
2, 25081, Note_on_c, 0, 57, 0
2, 25101, Note_on_c, 0, 59, 61
2, 25368, Note_on_c, 0, 56, 56
2, 25432, Note_on_c, 0, 59, 0
2, 25633, Note_on_c, 0, 75, 57
2, 25698, Note_on_c, 0, 71, 0
2, 25880, Note_on_c, 0, 78, 63
2, 25943, Note_on_c, 0, 75, 0
2, 26147, Note_on_c, 0, 83, 65
2, 26184, Note_on_c, 0, 78, 0
2, 26358, Note_on_c, 0, 83, 0
2, 26396, Note_on_c, 0, 81, 68
2, 26399, Note_on_c, 0, 54, 49
2, 26412, Note_on_c, 0, 56, 0
2, 26634, Note_on_c, 0, 81, 0
2, 26646, Note_on_c, 0, 83, 67
2, 26668, Note_on_c, 0, 56, 47
2, 26691, Note_on_c, 0, 54, 0
2, 26898, Note_on_c, 0, 83, 0
2, 26905, Note_on_c, 0, 56, 0
2, 26913, Note_on_c, 0, 73, 62
2, 26927, Note_on_c, 0, 53, 47
2, 27171, Note_on_c, 0, 56, 47
2, 27176, Note_on_c, 0, 77, 65
2, 27200, Note_on_c, 0, 73, 0
2, 27418, Note_on_c, 0, 80, 73
2, 27430, Note_on_c, 0, 59, 54
2, 27438, Note_on_c, 0, 77, 0
2, 27474, Note_on_c, 0, 56, 0
2, 27627, Note_on_c, 0, 80, 0
2, 27669, Note_on_c, 0, 59, 0
2, 27678, Note_on_c, 0, 83, 65
2, 27684, Note_on_c, 0, 62, 46
2, 27888, Note_on_c, 0, 62, 0
2, 27928, Note_on_c, 0, 59, 54
2, 28146, Note_on_c, 0, 59, 0
2, 28196, Note_on_c, 0, 61, 49
2, 28460, Note_on_c, 0, 54, 53
2, 28485, Note_on_c, 0, 53, 0
2, 28711, Note_on_c, 0, 80, 66
2, 28728, Note_on_c, 0, 83, 0
2, 28819, Note_on_c, 0, 80, 0
2, 28833, Control_c, 0, 64, 17
2, 28852, Control_c, 0, 64, 30
2, 28872, Control_c, 0, 64, 40
2, 28891, Control_c, 0, 64, 48
2, 28910, Control_c, 0, 64, 53
2, 28929, Control_c, 0, 64, 57
2, 28941, Note_on_c, 0, 61, 0
2, 28949, Control_c, 0, 64, 60
2, 28968, Control_c, 0, 64, 63
2, 28971, Note_on_c, 0, 81, 63
2, 28987, Control_c, 0, 64, 64
2, 29006, Control_c, 0, 64, 66
2, 29026, Control_c, 0, 64, 68
2, 29044, Control_c, 0, 64, 73
2, 29064, Control_c, 0, 64, 81
2, 29083, Control_c, 0, 64, 89
2, 29103, Control_c, 0, 64, 94
2, 29121, Control_c, 0, 64, 94
2, 29141, Control_c, 0, 64, 94
2, 29160, Control_c, 0, 64, 92
2, 29179, Control_c, 0, 64, 89
2, 29198, Control_c, 0, 64, 85
2, 29203, Note_on_c, 0, 54, 0
2, 29218, Control_c, 0, 64, 81
2, 29237, Control_c, 0, 64, 77
2, 29247, Note_on_c, 0, 50, 49
2, 29247, Note_on_c, 0, 59, 51
2, 29256, Control_c, 0, 64, 73
2, 29275, Control_c, 0, 64, 69
2, 29295, Control_c, 0, 64, 66
2, 29313, Control_c, 0, 64, 64
2, 29332, Control_c, 0, 64, 62
2, 29352, Control_c, 0, 64, 55
2, 29371, Control_c, 0, 64, 35
2, 29390, Control_c, 0, 64, 0
2, 29516, Note_on_c, 0, 78, 62
2, 29613, Note_on_c, 0, 81, 0
2, 29671, Note_on_c, 0, 78, 0
2, 29736, Control_c, 0, 64, 11
2, 29755, Control_c, 0, 64, 30
2, 29775, Control_c, 0, 64, 42
2, 29775, Note_on_c, 0, 80, 68
2, 29793, Control_c, 0, 64, 51
2, 29812, Control_c, 0, 64, 56
2, 29832, Control_c, 0, 64, 60
2, 29837, Note_on_c, 0, 59, 0
2, 29851, Control_c, 0, 64, 63
2, 29870, Control_c, 0, 64, 65
2, 29889, Control_c, 0, 64, 67
2, 29909, Control_c, 0, 64, 69
2, 29928, Control_c, 0, 64, 74
2, 29947, Control_c, 0, 64, 79
2, 29954, Note_on_c, 0, 50, 0
2, 29966, Control_c, 0, 64, 83
2, 29986, Control_c, 0, 64, 83
2, 30004, Control_c, 0, 64, 83
2, 30024, Control_c, 0, 64, 81
2, 30040, Note_on_c, 0, 60, 52
2, 30043, Control_c, 0, 64, 79
2, 30055, Note_on_c, 0, 51, 47
2, 30063, Control_c, 0, 64, 77
2, 30081, Control_c, 0, 64, 75
2, 30101, Control_c, 0, 64, 73
2, 30120, Control_c, 0, 64, 70
2, 30139, Control_c, 0, 64, 68
2, 30158, Control_c, 0, 64, 67
2, 30178, Control_c, 0, 64, 66
2, 30197, Control_c, 0, 64, 64
2, 30216, Control_c, 0, 64, 62
2, 30235, Control_c, 0, 64, 58
2, 30255, Control_c, 0, 64, 50
2, 30258, Note_on_c, 0, 80, 0
2, 30273, Control_c, 0, 64, 32
2, 30292, Control_c, 0, 64, 0
2, 30302, Note_on_c, 0, 77, 63
2, 30466, Note_on_c, 0, 77, 0
2, 30524, Control_c, 0, 64, 15
2, 30543, Control_c, 0, 64, 35
2, 30556, Note_on_c, 0, 78, 70
2, 30562, Control_c, 0, 64, 48
2, 30582, Control_c, 0, 64, 57
2, 30601, Control_c, 0, 64, 62
2, 30617, Note_on_c, 0, 60, 0
2, 30620, Control_c, 0, 64, 65
2, 30639, Control_c, 0, 64, 69
2, 30659, Control_c, 0, 64, 77
2, 30678, Control_c, 0, 64, 90
2, 30697, Control_c, 0, 64, 107
2, 30716, Control_c, 0, 64, 127
2, 30723, Note_on_c, 0, 78, 0
2, 30773, Control_c, 0, 64, 113
2, 30780, Note_on_c, 0, 51, 0
2, 30793, Control_c, 0, 64, 102
2, 30812, Control_c, 0, 64, 95
2, 30820, Note_on_c, 0, 77, 68
2, 30826, Note_on_c, 0, 61, 46
2, 30831, Control_c, 0, 64, 87
2, 30832, Note_on_c, 0, 49, 50
2, 30850, Control_c, 0, 64, 79
2, 30870, Control_c, 0, 64, 70
2, 30888, Control_c, 0, 64, 63
2, 30908, Control_c, 0, 64, 52
2, 30927, Control_c, 0, 64, 31
2, 30947, Control_c, 0, 64, 0
2, 30948, Note_on_c, 0, 78, 62
2, 30967, Note_on_c, 0, 77, 0
2, 31048, Note_on_c, 0, 78, 0
2, 31068, Note_on_c, 0, 80, 65
2, 31234, Control_c, 0, 64, 37
2, 31253, Control_c, 0, 64, 53
2, 31273, Control_c, 0, 64, 60
2, 31273, Note_on_c, 0, 80, 0
2, 31292, Control_c, 0, 64, 63
2, 31307, Note_on_c, 0, 61, 0
2, 31311, Control_c, 0, 64, 66
2, 31323, Note_on_c, 0, 73, 60
2, 31330, Control_c, 0, 64, 70
2, 31350, Control_c, 0, 64, 77
2, 31368, Control_c, 0, 64, 88
2, 31388, Control_c, 0, 64, 105
2, 31407, Control_c, 0, 64, 127
2, 31410, Note_on_c, 0, 73, 0
2, 31540, Note_on_c, 0, 49, 0
2, 31559, Control_c, 0, 64, 108
2, 31578, Control_c, 0, 64, 90
2, 31597, Control_c, 0, 64, 82
2, 31601, Note_on_c, 0, 74, 61
2, 31613, Note_on_c, 0, 47, 50
2, 31617, Control_c, 0, 64, 77
2, 31636, Control_c, 0, 64, 73
2, 31654, Control_c, 0, 64, 69
2, 31674, Control_c, 0, 64, 65
2, 31693, Control_c, 0, 64, 63
2, 31713, Control_c, 0, 64, 61
2, 31731, Control_c, 0, 64, 60
2, 31751, Control_c, 0, 64, 57
2, 31770, Control_c, 0, 64, 52
2, 31789, Control_c, 0, 64, 46
2, 31808, Control_c, 0, 64, 43
2, 31828, Control_c, 0, 64, 42
2, 31847, Control_c, 0, 64, 39
2, 31866, Control_c, 0, 64, 34
2, 31869, Note_on_c, 0, 71, 56
2, 31877, Note_on_c, 0, 50, 43
2, 31885, Control_c, 0, 64, 30
2, 31905, Control_c, 0, 64, 29
2, 31943, Control_c, 0, 64, 28
2, 31962, Control_c, 0, 64, 25
2, 31982, Control_c, 0, 64, 20
2, 32000, Control_c, 0, 64, 15
2, 32039, Control_c, 0, 64, 11
2, 32054, Note_on_c, 0, 71, 0
2, 32058, Control_c, 0, 64, 0
2, 32113, Note_on_c, 0, 50, 0
2, 32120, Note_on_c, 0, 68, 59
2, 32121, Note_on_c, 0, 53, 49
2, 32316, Note_on_c, 0, 68, 0
2, 32367, Note_on_c, 0, 53, 0
2, 32377, Note_on_c, 0, 65, 54
2, 32382, Note_on_c, 0, 56, 57
2, 32571, Note_on_c, 0, 65, 0
2, 32607, Note_on_c, 0, 56, 0
2, 32608, Note_on_c, 0, 68, 67
2, 32617, Note_on_c, 0, 59, 53
2, 32808, Note_on_c, 0, 68, 0
2, 32838, Note_on_c, 0, 59, 0
2, 32865, Note_on_c, 0, 57, 56
2, 32866, Note_on_c, 0, 66, 63
2, 33086, Note_on_c, 0, 47, 0
2, 33103, Note_on_c, 0, 66, 0
2, 33118, Note_on_c, 0, 68, 72
2, 33127, Note_on_c, 0, 57, 0
2, 33128, Note_on_c, 0, 59, 61
2, 33305, Note_on_c, 0, 68, 0
2, 33363, Note_on_c, 0, 71, 66
2, 33372, Note_on_c, 0, 56, 56
2, 33382, Note_on_c, 0, 59, 0
2, 33576, Note_on_c, 0, 71, 0
2, 33596, Note_on_c, 0, 74, 0
2, 33603, Note_on_c, 0, 56, 0
2, 33613, Note_on_c, 0, 69, 71
2, 33627, Note_on_c, 0, 54, 54
2, 33631, Note_on_c, 0, 74, 7
2, 33803, Note_on_c, 0, 69, 0
2, 33858, Note_on_c, 0, 71, 68
2, 33865, Note_on_c, 0, 56, 53
2, 33885, Note_on_c, 0, 74, 0
2, 33926, Note_on_c, 0, 54, 0
2, 33988, Note_on_c, 0, 57, 60
2, 34001, Note_on_c, 0, 56, 0
2, 34108, Note_on_c, 0, 74, 60
2, 34130, Note_on_c, 0, 57, 0
2, 34143, Note_on_c, 0, 59, 53
2, 34347, Note_on_c, 0, 74, 0
2, 34357, Note_on_c, 0, 73, 66
2, 34369, Note_on_c, 0, 53, 46
2, 34421, Control_c, 0, 64, 29
2, 34440, Control_c, 0, 64, 46
2, 34459, Control_c, 0, 64, 55
2, 34474, Note_on_c, 0, 73, 0
2, 34478, Control_c, 0, 64, 59
2, 34493, Note_on_c, 0, 59, 0
2, 34498, Control_c, 0, 64, 61
2, 34517, Control_c, 0, 64, 62
2, 34536, Control_c, 0, 64, 63
2, 34574, Control_c, 0, 64, 62
2, 34593, Control_c, 0, 64, 62
2, 34612, Control_c, 0, 64, 61
2, 34632, Control_c, 0, 64, 59
2, 34646, Note_on_c, 0, 73, 65
2, 34651, Control_c, 0, 64, 56
2, 34665, Note_on_c, 0, 54, 41
2, 34670, Control_c, 0, 64, 51
2, 34683, Note_on_c, 0, 53, 0
2, 34689, Control_c, 0, 64, 45
2, 34691, Note_on_c, 0, 71, 0
2, 34709, Control_c, 0, 64, 39
2, 34728, Control_c, 0, 64, 32
2, 34747, Control_c, 0, 64, 17
2, 34766, Control_c, 0, 64, 0
2, 34898, Note_on_c, 0, 69, 60
2, 34997, Control_c, 0, 64, 17
2, 35016, Control_c, 0, 64, 24
2, 35035, Control_c, 0, 64, 29
2, 35054, Control_c, 0, 64, 29
2, 35073, Control_c, 0, 64, 29
2, 35092, Control_c, 0, 64, 25
2, 35102, Note_on_c, 0, 69, 0
2, 35112, Control_c, 0, 64, 21
2, 35153, Note_on_c, 0, 68, 61
2, 35169, Control_c, 0, 64, 25
2, 35189, Control_c, 0, 64, 34
2, 35208, Control_c, 0, 64, 42
2, 35227, Control_c, 0, 64, 46
2, 35246, Control_c, 0, 64, 46
2, 35304, Control_c, 0, 64, 46
2, 35322, Control_c, 0, 64, 45
2, 35342, Control_c, 0, 64, 44
2, 35360, Control_c, 0, 64, 43
2, 35380, Control_c, 0, 64, 41
2, 35392, Note_on_c, 0, 68, 0
2, 35399, Control_c, 0, 64, 37
2, 35416, Note_on_c, 0, 66, 51
2, 35419, Control_c, 0, 64, 33
2, 35426, Note_on_c, 0, 45, 48
2, 35438, Control_c, 0, 64, 25
2, 35456, Note_on_c, 0, 54, 0
2, 35458, Control_c, 0, 64, 15
2, 35477, Control_c, 0, 64, 0
2, 35553, Control_c, 0, 64, 13
2, 35572, Control_c, 0, 64, 19
2, 35592, Control_c, 0, 64, 24
2, 35611, Control_c, 0, 64, 27
2, 35630, Control_c, 0, 64, 26
2, 35649, Control_c, 0, 64, 13
2, 35669, Control_c, 0, 64, 0
2, 35676, Note_on_c, 0, 71, 60
2, 35764, Control_c, 0, 64, 11
2, 35784, Control_c, 0, 64, 28
2, 35803, Control_c, 0, 64, 35
2, 35823, Control_c, 0, 64, 36
2, 35841, Control_c, 0, 64, 32
2, 35861, Control_c, 0, 64, 15
2, 35880, Control_c, 0, 64, 0
2, 35898, Note_on_c, 0, 73, 0
2, 35922, Note_on_c, 0, 69, 69
2, 35969, Note_on_c, 0, 71, 0
2, 35975, Control_c, 0, 64, 23
2, 35995, Control_c, 0, 64, 36
2, 36014, Control_c, 0, 64, 41
2, 36033, Control_c, 0, 64, 43
2, 36052, Control_c, 0, 64, 44
2, 36110, Control_c, 0, 64, 42
2, 36129, Control_c, 0, 64, 34
2, 36149, Control_c, 0, 64, 11
2, 36168, Control_c, 0, 64, 0
2, 36170, Note_on_c, 0, 69, 0
2, 36179, Note_on_c, 0, 68, 64
2, 36187, Note_on_c, 0, 47, 54
2, 36294, Note_on_c, 0, 45, 0
2, 36301, Control_c, 0, 64, 18
2, 36319, Control_c, 0, 64, 27
2, 36339, Control_c, 0, 64, 31
2, 36358, Control_c, 0, 64, 29
2, 36378, Control_c, 0, 64, 11
2, 36397, Control_c, 0, 64, 0
2, 36448, Note_on_c, 0, 69, 66
2, 36489, Note_on_c, 0, 68, 0
2, 36531, Control_c, 0, 64, 21
2, 36551, Control_c, 0, 64, 31
2, 36570, Control_c, 0, 64, 37
2, 36589, Control_c, 0, 64, 39
2, 36608, Control_c, 0, 64, 38
2, 36628, Control_c, 0, 64, 28
2, 36647, Control_c, 0, 64, 0
2, 36695, Note_on_c, 0, 69, 0
2, 36720, Note_on_c, 0, 71, 59
2, 36782, Control_c, 0, 64, 19
2, 36800, Control_c, 0, 64, 30
2, 36820, Control_c, 0, 64, 33
2, 36844, Note_on_c, 0, 66, 0
2, 36858, Control_c, 0, 64, 30
2, 36877, Control_c, 0, 64, 23
2, 36897, Control_c, 0, 64, 15
2, 36916, Control_c, 0, 64, 0
2, 36975, Note_on_c, 0, 65, 47
2, 36987, Note_on_c, 0, 49, 50
2, 37026, Note_on_c, 0, 47, 0
2, 37237, Note_on_c, 0, 69, 55
2, 37252, Note_on_c, 0, 71, 0
2, 37473, Control_c, 0, 64, 29
2, 37491, Control_c, 0, 64, 45
2, 37493, Note_on_c, 0, 69, 0
2, 37497, Note_on_c, 0, 68, 58
2, 37511, Control_c, 0, 64, 54
2, 37527, Note_on_c, 0, 65, 0
2, 37530, Control_c, 0, 64, 59
2, 37549, Control_c, 0, 64, 61
2, 37568, Control_c, 0, 64, 63
2, 37588, Control_c, 0, 64, 65
2, 37607, Control_c, 0, 64, 66
2, 37626, Control_c, 0, 64, 67
2, 37683, Control_c, 0, 64, 66
2, 37703, Control_c, 0, 64, 65
2, 37722, Control_c, 0, 64, 64
2, 37738, Note_on_c, 0, 68, 0
2, 37742, Control_c, 0, 64, 64
2, 37760, Control_c, 0, 64, 63
2, 37773, Note_on_c, 0, 69, 56
2, 37780, Control_c, 0, 64, 62
2, 37787, Note_on_c, 0, 49, 0
2, 37788, Note_on_c, 0, 42, 40
2, 37790, Note_on_c, 0, 66, 40
2, 37799, Control_c, 0, 64, 60
2, 37819, Control_c, 0, 64, 58
2, 37837, Control_c, 0, 64, 56
2, 37857, Control_c, 0, 64, 53
2, 37876, Control_c, 0, 64, 49
2, 37894, Control_c, 0, 64, 42
2, 37914, Control_c, 0, 64, 31
2, 37933, Control_c, 0, 64, 15
2, 37953, Control_c, 0, 64, 0
2, 38044, Note_on_c, 0, 45, 53
2, 38106, Control_c, 0, 64, 11
2, 38125, Control_c, 0, 64, 19
2, 38145, Control_c, 0, 64, 21
2, 38185, Note_on_c, 0, 42, 0
2, 38202, Control_c, 0, 64, 20
2, 38307, Note_on_c, 0, 49, 63
2, 38318, Control_c, 0, 64, 22
2, 38338, Control_c, 0, 64, 27
2, 38343, Note_on_c, 0, 45, 0
2, 38357, Control_c, 0, 64, 30
2, 38375, Control_c, 0, 64, 32
2, 38433, Control_c, 0, 64, 32
2, 38566, Note_on_c, 0, 49, 0
2, 38580, Note_on_c, 0, 54, 61
2, 38683, Control_c, 0, 64, 31
2, 38703, Control_c, 0, 64, 30
2, 38721, Control_c, 0, 64, 28
2, 38740, Note_on_c, 0, 69, 0
2, 38741, Control_c, 0, 64, 26
2, 38760, Control_c, 0, 64, 23
2, 38779, Control_c, 0, 64, 20
2, 38798, Control_c, 0, 64, 18
2, 38818, Control_c, 0, 64, 17
2, 38836, Note_on_c, 0, 71, 59
2, 38838, Note_on_c, 0, 52, 54
2, 38857, Note_on_c, 0, 54, 0
2, 38875, Control_c, 0, 64, 19
2, 38894, Control_c, 0, 64, 22
2, 38913, Control_c, 0, 64, 27
2, 38932, Control_c, 0, 64, 29
2, 38971, Control_c, 0, 64, 28
2, 38990, Control_c, 0, 64, 21
2, 39009, Control_c, 0, 64, 9
2, 39029, Control_c, 0, 64, 0
2, 39066, Note_on_c, 0, 66, 0
2, 39083, Note_on_c, 0, 52, 0
2, 39088, Note_on_c, 0, 68, 66
2, 39090, Note_on_c, 0, 64, 51
2, 39091, Note_on_c, 0, 54, 56
2, 39092, Note_on_c, 0, 71, 0
2, 39124, Control_c, 0, 64, 13
2, 39144, Control_c, 0, 64, 21
2, 39164, Control_c, 0, 64, 29
2, 39183, Control_c, 0, 64, 32
2, 39202, Control_c, 0, 64, 35
2, 39222, Control_c, 0, 64, 35
2, 39316, Control_c, 0, 64, 32
2, 39330, Note_on_c, 0, 64, 0
2, 39334, Control_c, 0, 64, 27
2, 39348, Note_on_c, 0, 68, 0
2, 39354, Control_c, 0, 64, 26
2, 39355, Note_on_c, 0, 54, 0
2, 39361, Note_on_c, 0, 69, 64
2, 39365, Note_on_c, 0, 47, 54
2, 39369, Note_on_c, 0, 63, 52
2, 39411, Control_c, 0, 64, 27
2, 39431, Control_c, 0, 64, 29
2, 39450, Control_c, 0, 64, 31
2, 39469, Control_c, 0, 64, 32
2, 39488, Control_c, 0, 64, 34
2, 39508, Control_c, 0, 64, 34
2, 39546, Control_c, 0, 64, 29
2, 39565, Control_c, 0, 64, 18
2, 39585, Control_c, 0, 64, 15
2, 39617, Note_on_c, 0, 51, 62
2, 39642, Control_c, 0, 64, 17
2, 39662, Control_c, 0, 64, 22
2, 39680, Control_c, 0, 64, 27
2, 39700, Control_c, 0, 64, 30
2, 39719, Control_c, 0, 64, 34
2, 39739, Control_c, 0, 64, 37
2, 39751, Note_on_c, 0, 47, 0
2, 39757, Control_c, 0, 64, 40
2, 39777, Control_c, 0, 64, 40
2, 39796, Control_c, 0, 64, 40
2, 39814, Control_c, 0, 64, 36
2, 39834, Control_c, 0, 64, 27
2, 39853, Control_c, 0, 64, 20
2, 39873, Control_c, 0, 64, 18
2, 39878, Note_on_c, 0, 54, 68
2, 39911, Control_c, 0, 64, 17
2, 39930, Control_c, 0, 64, 18
2, 39949, Control_c, 0, 64, 25
2, 39968, Control_c, 0, 64, 32
2, 39975, Note_on_c, 0, 51, 0
2, 39988, Control_c, 0, 64, 37
2, 40007, Control_c, 0, 64, 39
2, 40045, Control_c, 0, 64, 34
2, 40065, Control_c, 0, 64, 22
2, 40083, Control_c, 0, 64, 0
2, 40134, Note_on_c, 0, 54, 0
2, 40156, Note_on_c, 0, 59, 74
2, 40198, Control_c, 0, 64, 11
2, 40219, Control_c, 0, 64, 18
2, 40237, Control_c, 0, 64, 23
2, 40257, Control_c, 0, 64, 30
2, 40276, Control_c, 0, 64, 33
2, 40294, Control_c, 0, 64, 34
2, 40314, Control_c, 0, 64, 33
2, 40333, Control_c, 0, 64, 26
2, 40348, Note_on_c, 0, 63, 0
2, 40353, Control_c, 0, 64, 13
2, 40371, Control_c, 0, 64, 0
2, 40388, Note_on_c, 0, 69, 0
2, 40413, Note_on_c, 0, 57, 63
2, 40426, Note_on_c, 0, 71, 64
2, 40460, Note_on_c, 0, 59, 0
2, 40487, Control_c, 0, 64, 13
2, 40506, Control_c, 0, 64, 20
2, 40542, Note_on_c, 0, 69, 65
2, 40545, Control_c, 0, 64, 19
2, 40563, Control_c, 0, 64, 0
2, 40582, Note_on_c, 0, 71, 0
2, 40651, Note_on_c, 0, 59, 56
2, 40660, Note_on_c, 0, 57, 0
2, 40665, Note_on_c, 0, 68, 65
2, 40713, Note_on_c, 0, 69, 0
2, 40756, Control_c, 0, 64, 9
2, 40774, Control_c, 0, 64, 11
2, 40788, Note_on_c, 0, 66, 59
2, 40789, Note_on_c, 0, 68, 0
2, 40794, Control_c, 0, 64, 13
2, 40851, Control_c, 0, 64, 11
2, 40871, Control_c, 0, 64, 0
2, 40902, Note_on_c, 0, 66, 0
2, 40929, Note_on_c, 0, 52, 54
2, 40937, Note_on_c, 0, 68, 66
2, 40980, Note_on_c, 0, 59, 0
2, 41053, Note_on_c, 0, 66, 62
2, 41063, Control_c, 0, 64, 11
2, 41082, Control_c, 0, 64, 13
2, 41088, Note_on_c, 0, 68, 0
2, 41120, Control_c, 0, 64, 0
2, 41169, Note_on_c, 0, 66, 0
2, 41185, Note_on_c, 0, 64, 64
2, 41194, Note_on_c, 0, 56, 68
2, 41303, Note_on_c, 0, 52, 0
2, 41305, Note_on_c, 0, 64, 0
2, 41313, Note_on_c, 0, 66, 67
2, 41437, Note_on_c, 0, 68, 71
2, 41439, Note_on_c, 0, 59, 73
2, 41454, Note_on_c, 0, 66, 0
2, 41543, Note_on_c, 0, 68, 0
2, 41557, Note_on_c, 0, 69, 71
2, 41589, Note_on_c, 0, 56, 0
2, 41681, Note_on_c, 0, 64, 70
2, 41683, Note_on_c, 0, 59, 0
2, 41693, Note_on_c, 0, 69, 0
2, 41693, Note_on_c, 0, 71, 63
2, 41800, Note_on_c, 0, 69, 67
2, 41824, Note_on_c, 0, 71, 0
2, 41921, Note_on_c, 0, 62, 67
2, 41928, Note_on_c, 0, 69, 0
2, 41930, Note_on_c, 0, 68, 72
2, 41975, Note_on_c, 0, 64, 0
2, 42022, Note_on_c, 0, 68, 0
2, 42047, Note_on_c, 0, 69, 76
2, 42183, Note_on_c, 0, 61, 67
2, 42186, Note_on_c, 0, 71, 70
2, 42193, Note_on_c, 0, 69, 0
2, 42237, Note_on_c, 0, 62, 0
2, 42304, Note_on_c, 0, 73, 72
2, 42310, Control_c, 0, 64, 11
2, 42329, Control_c, 0, 64, 19
2, 42332, Note_on_c, 0, 71, 0
2, 42348, Control_c, 0, 64, 24
2, 42367, Control_c, 0, 64, 27
2, 42406, Control_c, 0, 64, 17
2, 42425, Control_c, 0, 64, 0
2, 42448, Note_on_c, 0, 59, 69
2, 42448, Note_on_c, 0, 73, 0
2, 42448, Note_on_c, 0, 74, 64
2, 42456, Note_on_c, 0, 61, 0
2, 42578, Note_on_c, 0, 73, 73
2, 42579, Control_c, 0, 64, 19
2, 42598, Control_c, 0, 64, 30
2, 42618, Control_c, 0, 64, 34
2, 42623, Note_on_c, 0, 74, 0
2, 42636, Control_c, 0, 64, 33
2, 42655, Control_c, 0, 64, 23
2, 42675, Control_c, 0, 64, 0
2, 42690, Note_on_c, 0, 71, 73
2, 42744, Note_on_c, 0, 73, 0
2, 42790, Control_c, 0, 64, 9
2, 42800, Note_on_c, 0, 71, 0
2, 42809, Control_c, 0, 64, 21
2, 42809, Note_on_c, 0, 69, 73
2, 42828, Control_c, 0, 64, 29
2, 42847, Control_c, 0, 64, 29
2, 42867, Control_c, 0, 64, 27
2, 42886, Control_c, 0, 64, 9
2, 42905, Control_c, 0, 64, 0
2, 42919, Note_on_c, 0, 57, 57
2, 42924, Note_on_c, 0, 69, 0
2, 42939, Note_on_c, 0, 68, 72
2, 42967, Note_on_c, 0, 59, 0
2, 43039, Control_c, 0, 64, 15
2, 43053, Note_on_c, 0, 66, 67
2, 43059, Control_c, 0, 64, 17
2, 43066, Note_on_c, 0, 68, 0
2, 43099, Control_c, 0, 64, 18
2, 43174, Note_on_c, 0, 66, 0
2, 43188, Note_on_c, 0, 57, 0
2, 43189, Note_on_c, 0, 56, 62
2, 43195, Note_on_c, 0, 64, 68
2, 43300, Note_on_c, 0, 56, 0
2, 43323, Note_on_c, 0, 62, 61
2, 43348, Control_c, 0, 64, 0
2, 43443, Note_on_c, 0, 61, 66
2, 43447, Note_on_c, 0, 62, 0
2, 43467, Note_on_c, 0, 64, 0
2, 43557, Note_on_c, 0, 59, 74
2, 43581, Note_on_c, 0, 61, 0
2, 43690, Note_on_c, 0, 57, 65
2, 43691, Note_on_c, 0, 59, 0
2, 43809, Note_on_c, 0, 57, 0
2, 43812, Note_on_c, 0, 56, 70
2, 43990, Note_on_c, 0, 57, 56
2, 43996, Note_on_c, 0, 69, 66
2, 44003, Note_on_c, 0, 56, 0
2, 44098, Control_c, 0, 64, 18
2, 44117, Control_c, 0, 64, 23
2, 44135, Control_c, 0, 64, 26
2, 44155, Control_c, 0, 64, 27
2, 44193, Control_c, 0, 64, 25
2, 44212, Control_c, 0, 64, 0
2, 44235, Note_on_c, 0, 69, 0
2, 44273, Note_on_c, 0, 73, 69
2, 44520, Note_on_c, 0, 76, 71
2, 44554, Note_on_c, 0, 73, 0
2, 44748, Note_on_c, 0, 76, 0
2, 44782, Note_on_c, 0, 61, 48
2, 44790, Note_on_c, 0, 81, 69
2, 45037, Note_on_c, 0, 80, 76
2, 45045, Note_on_c, 0, 81, 0
2, 45269, Control_c, 0, 64, 22
2, 45272, Note_on_c, 0, 80, 0
2, 45282, Note_on_c, 0, 81, 77
2, 45288, Control_c, 0, 64, 41
2, 45307, Control_c, 0, 64, 54
2, 45326, Control_c, 0, 64, 60
2, 45346, Control_c, 0, 64, 64
2, 45364, Control_c, 0, 64, 66
2, 45384, Control_c, 0, 64, 70
2, 45403, Control_c, 0, 64, 76
2, 45418, Note_on_c, 0, 81, 0
2, 45423, Control_c, 0, 64, 83
2, 45441, Control_c, 0, 64, 87
2, 45480, Control_c, 0, 64, 86
2, 45499, Control_c, 0, 64, 86
2, 45518, Control_c, 0, 64, 85
2, 45525, Note_on_c, 0, 61, 0
2, 45535, Note_on_c, 0, 80, 66
2, 45538, Control_c, 0, 64, 85
2, 45555, Note_on_c, 0, 62, 52
2, 45557, Control_c, 0, 64, 84
2, 45575, Control_c, 0, 64, 83
2, 45595, Control_c, 0, 64, 79
2, 45595, Note_on_c, 0, 80, 0
2, 45612, Note_on_c, 0, 78, 63
2, 45614, Control_c, 0, 64, 71
2, 45633, Control_c, 0, 64, 65
2, 45652, Control_c, 0, 64, 59
2, 45664, Note_on_c, 0, 78, 0
2, 45672, Control_c, 0, 64, 53
2, 45676, Note_on_c, 0, 80, 67
2, 45691, Control_c, 0, 64, 46
2, 45710, Control_c, 0, 64, 27
2, 45729, Control_c, 0, 64, 0
2, 45738, Note_on_c, 0, 78, 70
2, 45754, Note_on_c, 0, 80, 0
2, 45806, Note_on_c, 0, 76, 72
2, 45831, Note_on_c, 0, 78, 0
2, 46031, Note_on_c, 0, 76, 0
2, 46080, Note_on_c, 0, 78, 73
2, 46209, Control_c, 0, 64, 9
2, 46229, Control_c, 0, 64, 11
2, 46267, Control_c, 0, 64, 9
2, 46286, Control_c, 0, 64, 0
2, 46306, Note_on_c, 0, 78, 0
2, 46345, Note_on_c, 0, 81, 75
2, 46593, Note_on_c, 0, 62, 0
2, 46608, Note_on_c, 0, 61, 56
2, 46872, Note_on_c, 0, 59, 64
2, 46884, Note_on_c, 0, 61, 0
2, 46939, Control_c, 0, 64, 22
2, 46957, Control_c, 0, 64, 45
2, 46976, Control_c, 0, 64, 57
2, 46996, Control_c, 0, 64, 61
2, 47014, Control_c, 0, 64, 62
2, 47024, Note_on_c, 0, 81, 0
2, 47034, Control_c, 0, 64, 63
2, 47111, Control_c, 0, 64, 63
2, 47118, Note_on_c, 0, 78, 61
2, 47130, Control_c, 0, 64, 62
2, 47143, Note_on_c, 0, 61, 57
2, 47149, Control_c, 0, 64, 62
2, 47164, Note_on_c, 0, 78, 0
2, 47168, Control_c, 0, 64, 61
2, 47179, Note_on_c, 0, 76, 56
2, 47184, Note_on_c, 0, 59, 0
2, 47188, Control_c, 0, 64, 59
2, 47207, Control_c, 0, 64, 56
2, 47224, Note_on_c, 0, 76, 0
2, 47226, Control_c, 0, 64, 51
2, 47245, Control_c, 0, 64, 45
2, 47248, Note_on_c, 0, 78, 66
2, 47265, Control_c, 0, 64, 36
2, 47283, Control_c, 0, 64, 26
2, 47303, Control_c, 0, 64, 17
2, 47321, Note_on_c, 0, 76, 73
2, 47322, Control_c, 0, 64, 0
2, 47328, Note_on_c, 0, 78, 0
2, 47388, Note_on_c, 0, 74, 70
2, 47399, Note_on_c, 0, 76, 0
2, 47437, Control_c, 0, 64, 15
2, 47456, Control_c, 0, 64, 22
2, 47476, Control_c, 0, 64, 27
2, 47494, Control_c, 0, 64, 31
2, 47514, Control_c, 0, 64, 31
2, 47591, Control_c, 0, 64, 31
2, 47595, Note_on_c, 0, 74, 0
2, 47610, Control_c, 0, 64, 30
2, 47629, Control_c, 0, 64, 28
2, 47646, Note_on_c, 0, 76, 71
2, 47648, Control_c, 0, 64, 27
2, 47706, Control_c, 0, 64, 28
2, 47725, Control_c, 0, 64, 29
2, 47745, Control_c, 0, 64, 29
2, 47763, Control_c, 0, 64, 30
2, 47821, Control_c, 0, 64, 29
2, 47859, Control_c, 0, 64, 29
2, 47878, Control_c, 0, 64, 27
2, 47881, Note_on_c, 0, 76, 0
2, 47897, Control_c, 0, 64, 25
2, 47915, Note_on_c, 0, 81, 75
2, 47916, Control_c, 0, 64, 24
2, 48050, Control_c, 0, 64, 26
2, 48070, Control_c, 0, 64, 27
2, 48154, Note_on_c, 0, 61, 0
2, 48166, Control_c, 0, 64, 27
2, 48185, Control_c, 0, 64, 29
2, 48188, Note_on_c, 0, 62, 59
2, 48204, Control_c, 0, 64, 31
2, 48224, Control_c, 0, 64, 35
2, 48243, Control_c, 0, 64, 39
2, 48262, Control_c, 0, 64, 42
2, 48281, Control_c, 0, 64, 43
2, 48301, Control_c, 0, 64, 44
2, 48396, Control_c, 0, 64, 44
2, 48415, Control_c, 0, 64, 43
2, 48440, Note_on_c, 0, 61, 62
2, 48453, Note_on_c, 0, 62, 0
2, 48492, Control_c, 0, 64, 43
2, 48512, Control_c, 0, 64, 44
2, 48550, Control_c, 0, 64, 44
2, 48627, Control_c, 0, 64, 44
2, 48642, Note_on_c, 0, 81, 0
2, 48646, Control_c, 0, 64, 43
2, 48665, Control_c, 0, 64, 42
2, 48684, Control_c, 0, 64, 40
2, 48704, Control_c, 0, 64, 38
2, 48713, Note_on_c, 0, 74, 60
2, 48723, Control_c, 0, 64, 35
2, 48723, Note_on_c, 0, 59, 57
2, 48742, Control_c, 0, 64, 32
2, 48743, Note_on_c, 0, 61, 0
2, 48762, Control_c, 0, 64, 31
2, 48782, Control_c, 0, 64, 29
2, 48800, Control_c, 0, 64, 28
2, 48820, Control_c, 0, 64, 27
2, 48839, Control_c, 0, 64, 24
2, 48859, Control_c, 0, 64, 21
2, 48896, Control_c, 0, 64, 20
2, 48916, Control_c, 0, 64, 17
2, 48934, Control_c, 0, 64, 11
2, 48954, Control_c, 0, 64, 0
2, 48980, Note_on_c, 0, 76, 71
2, 49012, Note_on_c, 0, 74, 0
2, 49189, Note_on_c, 0, 76, 0
2, 49242, Note_on_c, 0, 78, 74
2, 49463, Note_on_c, 0, 78, 0
2, 49492, Note_on_c, 0, 57, 0
2, 49506, Note_on_c, 0, 76, 67
2, 49519, Note_on_c, 0, 56, 49
2, 49759, Control_c, 0, 64, 9
2, 49777, Note_on_c, 0, 78, 72
2, 49792, Note_on_c, 0, 76, 0
2, 49855, Control_c, 0, 64, 11
2, 49875, Control_c, 0, 64, 17
2, 49893, Control_c, 0, 64, 18
2, 49913, Control_c, 0, 64, 19
2, 49932, Control_c, 0, 64, 21
2, 49952, Control_c, 0, 64, 23
2, 49970, Control_c, 0, 64, 26
2, 49988, Note_on_c, 0, 78, 0
2, 49990, Control_c, 0, 64, 33
2, 50009, Control_c, 0, 64, 45
2, 50028, Control_c, 0, 64, 55
2, 50032, Note_on_c, 0, 74, 62
2, 50047, Control_c, 0, 64, 61
2, 50063, Note_on_c, 0, 56, 0
2, 50067, Control_c, 0, 64, 64
2, 50086, Control_c, 0, 64, 66
2, 50105, Control_c, 0, 64, 70
2, 50124, Control_c, 0, 64, 76
2, 50139, Note_on_c, 0, 59, 0
2, 50144, Control_c, 0, 64, 83
2, 50163, Control_c, 0, 64, 90
2, 50182, Control_c, 0, 64, 91
2, 50193, Note_on_c, 0, 74, 0
2, 50201, Control_c, 0, 64, 91
2, 50221, Control_c, 0, 64, 88
2, 50239, Control_c, 0, 64, 85
2, 50259, Control_c, 0, 64, 81
2, 50278, Control_c, 0, 64, 78
2, 50297, Control_c, 0, 64, 75
2, 50302, Note_on_c, 0, 45, 45
2, 50310, Note_on_c, 0, 73, 58
2, 50316, Control_c, 0, 64, 72
2, 50335, Control_c, 0, 64, 69
2, 50355, Control_c, 0, 64, 67
2, 50373, Control_c, 0, 64, 66
2, 50393, Control_c, 0, 64, 65
2, 50412, Control_c, 0, 64, 64
2, 50432, Control_c, 0, 64, 63
2, 50450, Control_c, 0, 64, 62
2, 50470, Control_c, 0, 64, 60
2, 50489, Control_c, 0, 64, 58
2, 50508, Control_c, 0, 64, 55
2, 50527, Control_c, 0, 64, 48
2, 50533, Note_on_c, 0, 73, 0
2, 50547, Control_c, 0, 64, 39
2, 50564, Note_on_c, 0, 69, 68
2, 50566, Control_c, 0, 64, 29
2, 50582, Note_on_c, 0, 49, 58
2, 50585, Control_c, 0, 64, 20
2, 50604, Control_c, 0, 64, 0
2, 50743, Note_on_c, 0, 69, 0
2, 50823, Note_on_c, 0, 71, 68
2, 50825, Note_on_c, 0, 52, 59
2, 50915, Note_on_c, 0, 45, 0
2, 50968, Note_on_c, 0, 49, 0
2, 51024, Note_on_c, 0, 71, 0
2, 51070, Note_on_c, 0, 52, 0
2, 51074, Note_on_c, 0, 73, 71
2, 51083, Note_on_c, 0, 57, 58
2, 51336, Note_on_c, 0, 56, 65
2, 51342, Note_on_c, 0, 57, 0
2, 51588, Note_on_c, 0, 56, 0
2, 51608, Note_on_c, 0, 57, 69
2, 51868, Note_on_c, 0, 57, 0
2, 51878, Note_on_c, 0, 51, 60
2, 52146, Note_on_c, 0, 71, 63
2, 52241, Note_on_c, 0, 73, 0
2, 52386, Note_on_c, 0, 71, 0
2, 52409, Note_on_c, 0, 54, 50
2, 52409, Note_on_c, 0, 69, 68
2, 52627, Note_on_c, 0, 69, 0
2, 52669, Note_on_c, 0, 54, 0
2, 52681, Note_on_c, 0, 68, 69
2, 52685, Note_on_c, 0, 59, 52
2, 52916, Note_on_c, 0, 68, 0
2, 52952, Note_on_c, 0, 69, 65
2, 53159, Control_c, 0, 64, 15
2, 53163, Note_on_c, 0, 69, 0
2, 53178, Control_c, 0, 64, 41
2, 53197, Control_c, 0, 64, 56
2, 53199, Note_on_c, 0, 59, 0
2, 53208, Note_on_c, 0, 66, 58
2, 53216, Control_c, 0, 64, 62
2, 53236, Control_c, 0, 64, 65
2, 53254, Control_c, 0, 64, 67
2, 53269, Note_on_c, 0, 51, 0
2, 53274, Control_c, 0, 64, 72
2, 53293, Control_c, 0, 64, 78
2, 53313, Control_c, 0, 64, 86
2, 53331, Control_c, 0, 64, 89
2, 53370, Control_c, 0, 64, 89
2, 53389, Control_c, 0, 64, 87
2, 53389, Note_on_c, 0, 66, 0
2, 53408, Control_c, 0, 64, 86
2, 53428, Control_c, 0, 64, 83
2, 53447, Control_c, 0, 64, 79
2, 53466, Control_c, 0, 64, 75
2, 53468, Note_on_c, 0, 68, 63
2, 53474, Note_on_c, 0, 40, 52
2, 53485, Control_c, 0, 64, 71
2, 53505, Control_c, 0, 64, 69
2, 53523, Control_c, 0, 64, 67
2, 53543, Control_c, 0, 64, 65
2, 53562, Control_c, 0, 64, 63
2, 53582, Control_c, 0, 64, 61
2, 53600, Control_c, 0, 64, 58
2, 53620, Control_c, 0, 64, 54
2, 53639, Control_c, 0, 64, 45
2, 53655, Control_c, 0, 64, 29
2, 53664, Note_on_c, 0, 68, 0
2, 53674, Control_c, 0, 64, 0
2, 53726, Note_on_c, 0, 44, 53
2, 53733, Note_on_c, 0, 64, 59
2, 53962, Note_on_c, 0, 64, 0
2, 53985, Note_on_c, 0, 66, 63
2, 53991, Note_on_c, 0, 40, 0
2, 53997, Note_on_c, 0, 47, 59
2, 54090, Note_on_c, 0, 44, 0
2, 54232, Note_on_c, 0, 47, 0
2, 54246, Note_on_c, 0, 68, 66
2, 54252, Note_on_c, 0, 66, 0
2, 54257, Note_on_c, 0, 52, 58
2, 54500, Note_on_c, 0, 52, 0
2, 54509, Note_on_c, 0, 51, 58
2, 54756, Note_on_c, 0, 51, 0
2, 54772, Note_on_c, 0, 52, 63
2, 55050, Note_on_c, 0, 45, 56
2, 55089, Note_on_c, 0, 52, 0
2, 55311, Note_on_c, 0, 69, 66
2, 55338, Note_on_c, 0, 68, 0
2, 55561, Note_on_c, 0, 69, 0
2, 55583, Note_on_c, 0, 52, 52
2, 55588, Note_on_c, 0, 71, 67
2, 55836, Note_on_c, 0, 71, 0
2, 55846, Note_on_c, 0, 73, 67
2, 55863, Note_on_c, 0, 57, 54
2, 56088, Note_on_c, 0, 52, 0
2, 56095, Note_on_c, 0, 73, 0
2, 56106, Note_on_c, 0, 66, 62
2, 56324, Note_on_c, 0, 66, 0
2, 56368, Note_on_c, 0, 69, 60
2, 56590, Note_on_c, 0, 69, 0
2, 56634, Note_on_c, 0, 47, 50
2, 56634, Note_on_c, 0, 59, 60
2, 56699, Note_on_c, 0, 45, 0
2, 56885, Note_on_c, 0, 59, 0
2, 56894, Note_on_c, 0, 63, 59
2, 57150, Note_on_c, 0, 66, 64
2, 57236, Note_on_c, 0, 63, 0
2, 57390, Note_on_c, 0, 66, 0
2, 57417, Note_on_c, 0, 56, 66
2, 57421, Note_on_c, 0, 71, 61
2, 57438, Note_on_c, 0, 57, 0
2, 57664, Note_on_c, 0, 71, 0
2, 57666, Note_on_c, 0, 69, 69
2, 57905, Note_on_c, 0, 69, 0
2, 57932, Note_on_c, 0, 71, 67
2, 58154, Note_on_c, 0, 71, 0
2, 58193, Note_on_c, 0, 61, 60
2, 58457, Note_on_c, 0, 64, 58
2, 58486, Note_on_c, 0, 61, 0
2, 58709, Note_on_c, 0, 68, 65
2, 58721, Note_on_c, 0, 64, 0
2, 58935, Note_on_c, 0, 68, 0
2, 58974, Note_on_c, 0, 69, 63
2, 59192, Note_on_c, 0, 56, 0
2, 59242, Note_on_c, 0, 54, 54
2, 59475, Note_on_c, 0, 54, 0
2, 59509, Note_on_c, 0, 52, 52
2, 59687, Control_c, 0, 64, 11
2, 59689, Note_on_c, 0, 69, 0
2, 59730, Note_on_c, 0, 52, 0
2, 59745, Control_c, 0, 64, 0
2, 59778, Note_on_c, 0, 51, 49
2, 59793, Note_on_c, 0, 59, 54
2, 60055, Note_on_c, 0, 63, 57
2, 60117, Note_on_c, 0, 59, 0
2, 60316, Note_on_c, 0, 66, 64
2, 60356, Note_on_c, 0, 63, 0
2, 60533, Note_on_c, 0, 66, 0
2, 60570, Note_on_c, 0, 69, 63
2, 60784, Note_on_c, 0, 69, 0
2, 60829, Note_on_c, 0, 68, 63
2, 61037, Note_on_c, 0, 68, 0
2, 61067, Note_on_c, 0, 47, 0
2, 61089, Note_on_c, 0, 42, 45
2, 61090, Note_on_c, 0, 69, 57
2, 61270, Note_on_c, 0, 69, 0
2, 61348, Note_on_c, 0, 42, 0
2, 61352, Note_on_c, 0, 43, 45
2, 61364, Note_on_c, 0, 59, 56
2, 61619, Note_on_c, 0, 63, 57
2, 61644, Note_on_c, 0, 59, 0
2, 61844, Note_on_c, 0, 63, 0
2, 61871, Note_on_c, 0, 66, 57
2, 62054, Note_on_c, 0, 66, 0
2, 62088, Note_on_c, 0, 51, 0
2, 62129, Note_on_c, 0, 52, 43
2, 62133, Note_on_c, 0, 67, 50
2, 62370, Note_on_c, 0, 43, 0
2, 62400, Note_on_c, 0, 45, 50
2, 62606, Note_on_c, 0, 45, 0
2, 62649, Note_on_c, 0, 47, 58
2, 62682, Control_c, 0, 64, 9
2, 62702, Control_c, 0, 64, 52
2, 62720, Control_c, 0, 64, 63
2, 62739, Control_c, 0, 64, 68
2, 62759, Control_c, 0, 64, 74
2, 62769, Note_on_c, 0, 47, 0
2, 62778, Control_c, 0, 64, 83
2, 62797, Control_c, 0, 64, 93
2, 62816, Control_c, 0, 64, 97
2, 62836, Control_c, 0, 64, 97
2, 62854, Control_c, 0, 64, 93
2, 62874, Control_c, 0, 64, 88
2, 62896, Control_c, 0, 64, 84
2, 62916, Control_c, 0, 64, 81
2, 62924, Note_on_c, 0, 48, 61
2, 62934, Control_c, 0, 64, 77
2, 62954, Control_c, 0, 64, 73
2, 62973, Control_c, 0, 64, 70
2, 62991, Control_c, 0, 64, 68
2, 63011, Control_c, 0, 64, 67
2, 63030, Control_c, 0, 64, 65
2, 63050, Control_c, 0, 64, 64
2, 63068, Control_c, 0, 64, 62
2, 63088, Control_c, 0, 64, 59
2, 63107, Control_c, 0, 64, 56
2, 63126, Control_c, 0, 64, 53
2, 63141, Note_on_c, 0, 67, 0
2, 63145, Control_c, 0, 64, 47
2, 63164, Control_c, 0, 64, 39
2, 63181, Control_c, 0, 64, 28
2, 63201, Control_c, 0, 64, 19
2, 63202, Note_on_c, 0, 69, 68
2, 63209, Note_on_c, 0, 54, 58
2, 63219, Control_c, 0, 64, 13
2, 63231, Note_on_c, 0, 52, 0
2, 63239, Control_c, 0, 64, 0
2, 63460, Note_on_c, 0, 67, 64
2, 63465, Note_on_c, 0, 55, 64
2, 63497, Note_on_c, 0, 69, 0
2, 63502, Note_on_c, 0, 54, 0
2, 63724, Note_on_c, 0, 57, 60
2, 63727, Note_on_c, 0, 66, 69
2, 63732, Note_on_c, 0, 55, 0
2, 63754, Note_on_c, 0, 67, 0
2, 63987, Note_on_c, 0, 67, 68
2, 63989, Note_on_c, 0, 66, 0
2, 64227, Note_on_c, 0, 67, 0
2, 64251, Note_on_c, 0, 64, 69
2, 64517, Note_on_c, 0, 63, 66
2, 64521, Note_on_c, 0, 64, 0
2, 64527, Note_on_c, 0, 47, 55
2, 64560, Note_on_c, 0, 48, 0
2, 64780, Note_on_c, 0, 61, 67
2, 64802, Note_on_c, 0, 63, 0
2, 65016, Note_on_c, 0, 61, 0
2, 65046, Note_on_c, 0, 59, 72
2, 65063, Control_c, 0, 64, 36
2, 65083, Control_c, 0, 64, 54
2, 65102, Control_c, 0, 64, 60
2, 65121, Control_c, 0, 64, 63
2, 65140, Control_c, 0, 64, 64
2, 65160, Control_c, 0, 64, 65
2, 65175, Note_on_c, 0, 59, 0
2, 65179, Control_c, 0, 64, 67
2, 65198, Control_c, 0, 64, 69
2, 65217, Control_c, 0, 64, 73
2, 65237, Control_c, 0, 64, 77
2, 65256, Control_c, 0, 64, 79
2, 65275, Control_c, 0, 64, 78
2, 65294, Control_c, 0, 64, 70
2, 65314, Control_c, 0, 64, 63
2, 65322, Note_on_c, 0, 72, 73
2, 65332, Control_c, 0, 64, 57
2, 65351, Control_c, 0, 64, 59
2, 65361, Note_on_c, 0, 57, 0
2, 65371, Control_c, 0, 64, 63
2, 65390, Control_c, 0, 64, 65
2, 65409, Control_c, 0, 64, 69
2, 65428, Control_c, 0, 64, 75
2, 65448, Control_c, 0, 64, 81
2, 65466, Control_c, 0, 64, 84
2, 65486, Control_c, 0, 64, 84
2, 65505, Control_c, 0, 64, 84
2, 65511, Note_on_c, 0, 47, 0
2, 65521, Note_on_c, 0, 72, 0
2, 65525, Control_c, 0, 64, 79
2, 65543, Control_c, 0, 64, 70
2, 65563, Control_c, 0, 64, 58
2, 65582, Control_c, 0, 64, 20
2, 65585, Note_on_c, 0, 71, 77
2, 65591, Note_on_c, 0, 56, 61
2, 65595, Note_on_c, 0, 49, 60
2, 65601, Control_c, 0, 64, 0
2, 65659, Control_c, 0, 64, 26
2, 65678, Control_c, 0, 64, 45
2, 65697, Control_c, 0, 64, 56
2, 65717, Control_c, 0, 64, 60
2, 65736, Control_c, 0, 64, 61
2, 65774, Control_c, 0, 64, 59
2, 65794, Control_c, 0, 64, 55
2, 65812, Control_c, 0, 64, 47
2, 65831, Control_c, 0, 64, 32
2, 65843, Note_on_c, 0, 70, 77
2, 65851, Control_c, 0, 64, 20
2, 65852, Note_on_c, 0, 51, 56
2, 65852, Note_on_c, 0, 54, 57
2, 65854, Note_on_c, 0, 56, 0
2, 65870, Control_c, 0, 64, 18
2, 65885, Note_on_c, 0, 71, 0
2, 65896, Note_on_c, 0, 49, 0
2, 65908, Control_c, 0, 64, 26
2, 65928, Control_c, 0, 64, 35
2, 65946, Control_c, 0, 64, 40
2, 65966, Control_c, 0, 64, 45
2, 65985, Control_c, 0, 64, 49
2, 66005, Control_c, 0, 64, 50
2, 66023, Control_c, 0, 64, 49
2, 66042, Control_c, 0, 64, 43
2, 66061, Control_c, 0, 64, 33
2, 66080, Note_on_c, 0, 54, 0
2, 66081, Control_c, 0, 64, 18
2, 66099, Control_c, 0, 64, 0
2, 66103, Note_on_c, 0, 70, 0
2, 66115, Note_on_c, 0, 52, 57
2, 66115, Note_on_c, 0, 69, 76
2, 66201, Note_on_c, 0, 51, 0
2, 66375, Note_on_c, 0, 68, 75
2, 66396, Note_on_c, 0, 69, 0
2, 66523, Control_c, 0, 64, 19
2, 66542, Control_c, 0, 64, 26
2, 66580, Control_c, 0, 64, 22
2, 66600, Control_c, 0, 64, 0
2, 66636, Note_on_c, 0, 68, 0
2, 66643, Note_on_c, 0, 67, 65
2, 66646, Note_on_c, 0, 46, 49
2, 66696, Control_c, 0, 64, 19
2, 66715, Control_c, 0, 64, 34
2, 66734, Control_c, 0, 64, 43
2, 66754, Control_c, 0, 64, 47
2, 66772, Control_c, 0, 64, 49
2, 66791, Control_c, 0, 64, 51
2, 66811, Control_c, 0, 64, 53
2, 66830, Control_c, 0, 64, 54
2, 66868, Control_c, 0, 64, 53
2, 66883, Note_on_c, 0, 46, 0
2, 66888, Control_c, 0, 64, 51
2, 66906, Control_c, 0, 64, 47
2, 66917, Note_on_c, 0, 66, 68
2, 66917, Note_on_c, 0, 67, 0
2, 66926, Control_c, 0, 64, 42
2, 66934, Note_on_c, 0, 47, 46
2, 66945, Control_c, 0, 64, 37
2, 66965, Control_c, 0, 64, 35
2, 66983, Control_c, 0, 64, 33
2, 67004, Control_c, 0, 64, 31
2, 67023, Control_c, 0, 64, 27
2, 67026, Note_on_c, 0, 68, 74
2, 67042, Control_c, 0, 64, 23
2, 67057, Note_on_c, 0, 66, 0
2, 67061, Control_c, 0, 64, 21
2, 67081, Control_c, 0, 64, 20
2, 67100, Control_c, 0, 64, 19
2, 67119, Control_c, 0, 64, 18
2, 67119, Note_on_c, 0, 52, 0
2, 67138, Control_c, 0, 64, 17
2, 67142, Note_on_c, 0, 68, 0
2, 67159, Note_on_c, 0, 51, 47
2, 67164, Note_on_c, 0, 69, 71
2, 67272, Control_c, 0, 64, 19
2, 67292, Control_c, 0, 64, 21
2, 67349, Control_c, 0, 64, 18
2, 67369, Control_c, 0, 64, 11
2, 67383, Note_on_c, 0, 69, 0
2, 67387, Control_c, 0, 64, 0
2, 67417, Note_on_c, 0, 47, 0
2, 67428, Note_on_c, 0, 63, 62
2, 67432, Note_on_c, 0, 57, 49
2, 67464, Control_c, 0, 64, 11
2, 67467, Note_on_c, 0, 51, 0
2, 67484, Control_c, 0, 64, 44
2, 67503, Control_c, 0, 64, 58
2, 67522, Control_c, 0, 64, 63
2, 67541, Control_c, 0, 64, 64
2, 67561, Control_c, 0, 64, 65
2, 67580, Control_c, 0, 64, 66
2, 67599, Control_c, 0, 64, 68
2, 67618, Control_c, 0, 64, 68
2, 67638, Control_c, 0, 64, 67
2, 67638, Note_on_c, 0, 63, 0
2, 67656, Control_c, 0, 64, 66
2, 67676, Control_c, 0, 64, 66
2, 67695, Control_c, 0, 64, 65
2, 67700, Note_on_c, 0, 57, 0
2, 67715, Control_c, 0, 64, 64
2, 67727, Note_on_c, 0, 64, 64
2, 67733, Control_c, 0, 64, 64
2, 67737, Note_on_c, 0, 56, 53
2, 67747, Note_on_c, 0, 49, 49
2, 67752, Control_c, 0, 64, 63
2, 67772, Control_c, 0, 64, 62
2, 67791, Control_c, 0, 64, 61
2, 67810, Control_c, 0, 64, 60
2, 67829, Control_c, 0, 64, 58
2, 67849, Control_c, 0, 64, 56
2, 67867, Control_c, 0, 64, 52
2, 67887, Control_c, 0, 64, 48
2, 67906, Control_c, 0, 64, 45
2, 67926, Control_c, 0, 64, 44
2, 67944, Control_c, 0, 64, 44
2, 67962, Control_c, 0, 64, 42
2, 67981, Control_c, 0, 64, 40
2, 67990, Note_on_c, 0, 52, 59
2, 67999, Note_on_c, 0, 56, 0
2, 68001, Control_c, 0, 64, 38
2, 68019, Control_c, 0, 64, 36
2, 68039, Control_c, 0, 64, 34
2, 68060, Control_c, 0, 64, 32
2, 68079, Control_c, 0, 64, 30
2, 68098, Control_c, 0, 64, 27
2, 68118, Control_c, 0, 64, 26
2, 68136, Control_c, 0, 64, 25
2, 68195, Control_c, 0, 64, 23
2, 68213, Control_c, 0, 64, 22
2, 68241, Note_on_c, 0, 52, 0
2, 68260, Note_on_c, 0, 56, 69
2, 68271, Control_c, 0, 64, 21
2, 68290, Control_c, 0, 64, 20
2, 68309, Control_c, 0, 64, 18
2, 68486, Note_on_c, 0, 56, 0
2, 68518, Note_on_c, 0, 57, 62
2, 68540, Control_c, 0, 64, 17
2, 68747, Note_on_c, 0, 57, 0
2, 68765, Note_on_c, 0, 56, 65
2, 68924, Control_c, 0, 64, 13
2, 68942, Control_c, 0, 64, 9
2, 68961, Control_c, 0, 64, 0
2, 68962, Note_on_c, 0, 49, 0
2, 69000, Control_c, 0, 64, 17
2, 69000, Note_on_c, 0, 56, 0
2, 69019, Control_c, 0, 64, 36
2, 69025, Note_on_c, 0, 57, 64
2, 69038, Control_c, 0, 64, 54
2, 69057, Control_c, 0, 64, 62
2, 69077, Control_c, 0, 64, 66
2, 69096, Control_c, 0, 64, 69
2, 69115, Control_c, 0, 64, 78
2, 69134, Control_c, 0, 64, 95
2, 69154, Control_c, 0, 64, 114
2, 69172, Control_c, 0, 64, 127
2, 69196, Note_on_c, 0, 57, 0
2, 69230, Control_c, 0, 64, 117
2, 69249, Control_c, 0, 64, 110
2, 69268, Control_c, 0, 64, 102
2, 69288, Control_c, 0, 64, 96
2, 69306, Control_c, 0, 64, 90
2, 69321, Note_on_c, 0, 52, 65
2, 69326, Control_c, 0, 64, 84
2, 69345, Control_c, 0, 64, 78
2, 69346, Note_on_c, 0, 44, 61
2, 69365, Control_c, 0, 64, 74
2, 69383, Control_c, 0, 64, 72
2, 69403, Control_c, 0, 64, 69
2, 69422, Control_c, 0, 64, 66
2, 69441, Control_c, 0, 64, 64
2, 69460, Control_c, 0, 64, 63
2, 69480, Control_c, 0, 64, 61
2, 69499, Control_c, 0, 64, 59
2, 69518, Control_c, 0, 64, 57
2, 69537, Control_c, 0, 64, 54
2, 69557, Control_c, 0, 64, 50
2, 69576, Control_c, 0, 64, 46
2, 69595, Control_c, 0, 64, 40
2, 69605, Note_on_c, 0, 56, 65
2, 69614, Control_c, 0, 64, 36
2, 69634, Control_c, 0, 64, 32
2, 69652, Control_c, 0, 64, 31
2, 69671, Control_c, 0, 64, 29
2, 69691, Control_c, 0, 64, 27
2, 69710, Control_c, 0, 64, 27
2, 69729, Control_c, 0, 64, 25
2, 69748, Control_c, 0, 64, 24
2, 69768, Control_c, 0, 64, 23
2, 69786, Control_c, 0, 64, 22
2, 69806, Control_c, 0, 64, 21
2, 69869, Note_on_c, 0, 59, 68
2, 69870, Note_on_c, 0, 56, 0
2, 69997, Control_c, 0, 64, 20
2, 70016, Control_c, 0, 64, 18
2, 70036, Control_c, 0, 64, 17
2, 70074, Control_c, 0, 64, 15
2, 70093, Control_c, 0, 64, 9
2, 70107, Note_on_c, 0, 64, 0
2, 70112, Control_c, 0, 64, 0
2, 70136, Note_on_c, 0, 62, 66
2, 70139, Note_on_c, 0, 64, 7
2, 70159, Note_on_c, 0, 59, 0
2, 70363, Note_on_c, 0, 62, 0
2, 70409, Note_on_c, 0, 61, 64
2, 70669, Control_c, 0, 64, 17
2, 70685, Note_on_c, 0, 61, 0
2, 70688, Control_c, 0, 64, 23
2, 70696, Note_on_c, 0, 62, 60
2, 70707, Control_c, 0, 64, 34
2, 70727, Control_c, 0, 64, 46
2, 70746, Control_c, 0, 64, 56
2, 70765, Control_c, 0, 64, 61
2, 70770, Note_on_c, 0, 44, 0
2, 70784, Control_c, 0, 64, 63
2, 70804, Control_c, 0, 64, 65
2, 70822, Control_c, 0, 64, 68
2, 70842, Control_c, 0, 64, 72
2, 70861, Control_c, 0, 64, 79
2, 70881, Control_c, 0, 64, 85
2, 70899, Control_c, 0, 64, 86
2, 70919, Control_c, 0, 64, 85
2, 70936, Note_on_c, 0, 52, 0
2, 70940, Control_c, 0, 64, 84
2, 70959, Control_c, 0, 64, 82
2, 70978, Control_c, 0, 64, 80
2, 70988, Note_on_c, 0, 61, 60
2, 70998, Control_c, 0, 64, 78
2, 71004, Note_on_c, 0, 45, 48
2, 71008, Note_on_c, 0, 62, 0
2, 71016, Control_c, 0, 64, 76
2, 71036, Control_c, 0, 64, 73
2, 71055, Control_c, 0, 64, 71
2, 71075, Control_c, 0, 64, 69
2, 71093, Control_c, 0, 64, 66
2, 71112, Control_c, 0, 64, 64
2, 71132, Control_c, 0, 64, 62
2, 71151, Control_c, 0, 64, 61
2, 71170, Control_c, 0, 64, 59
2, 71189, Control_c, 0, 64, 57
2, 71209, Control_c, 0, 64, 54
2, 71227, Control_c, 0, 64, 51
2, 71247, Control_c, 0, 64, 46
2, 71266, Control_c, 0, 64, 40
2, 71286, Control_c, 0, 64, 35
2, 71286, Note_on_c, 0, 49, 56
2, 71304, Control_c, 0, 64, 32
2, 71324, Control_c, 0, 64, 29
2, 71343, Control_c, 0, 64, 23
2, 71362, Control_c, 0, 64, 17
2, 71381, Control_c, 0, 64, 9
2, 71401, Control_c, 0, 64, 0
2, 71563, Note_on_c, 0, 49, 0
2, 71576, Note_on_c, 0, 52, 60
2, 71842, Control_c, 0, 64, 9
2, 71848, Note_on_c, 0, 52, 0
2, 71861, Control_c, 0, 64, 11
2, 71881, Control_c, 0, 64, 13
2, 71900, Note_on_c, 0, 57, 57
2, 72232, Note_on_c, 0, 57, 0
2, 72260, Note_on_c, 0, 56, 64
2, 72477, Control_c, 0, 64, 15
2, 72496, Control_c, 0, 64, 17
2, 72516, Control_c, 0, 64, 18
2, 72553, Control_c, 0, 64, 19
2, 72573, Control_c, 0, 64, 20
2, 72591, Control_c, 0, 64, 22
2, 72611, Control_c, 0, 64, 24
2, 72630, Control_c, 0, 64, 25
2, 72650, Control_c, 0, 64, 26
2, 72722, Note_on_c, 0, 56, 0
2, 72753, Note_on_c, 0, 61, 0
2, 72773, Note_on_c, 0, 57, 50
2, 72783, Note_on_c, 0, 63, 55
2, 72791, Note_on_c, 0, 60, 45
2, 72869, Note_on_c, 0, 64, 0
2, 72878, Control_c, 0, 64, 27
2, 72897, Control_c, 0, 64, 34
2, 72917, Control_c, 0, 64, 44
2, 72936, Control_c, 0, 64, 54
2, 72955, Control_c, 0, 64, 59
2, 72974, Control_c, 0, 64, 62
2, 72992, Note_on_c, 0, 57, 0
2, 72993, Control_c, 0, 64, 64
2, 73012, Control_c, 0, 64, 66
2, 73031, Control_c, 0, 64, 68
2, 73051, Control_c, 0, 64, 71
2, 73070, Control_c, 0, 64, 77
2, 73089, Control_c, 0, 64, 86
2, 73095, Note_on_c, 0, 60, 0
2, 73108, Control_c, 0, 64, 97
2, 73128, Control_c, 0, 64, 113
2, 73140, Note_on_c, 0, 45, 0
2, 73142, Note_on_c, 0, 63, 0
2, 73146, Control_c, 0, 64, 127
2, 73492, Control_c, 0, 64, 123
2, 73511, Control_c, 0, 64, 112
2, 73531, Control_c, 0, 64, 105
2, 73550, Control_c, 0, 64, 100
2, 73569, Control_c, 0, 64, 94
2, 73588, Control_c, 0, 64, 89
2, 73608, Control_c, 0, 64, 85
2, 73626, Control_c, 0, 64, 81
2, 73644, Note_on_c, 0, 40, 45
2, 73644, Note_on_c, 0, 64, 58
2, 73646, Control_c, 0, 64, 77
2, 73659, Note_on_c, 0, 59, 45
2, 73660, Note_on_c, 0, 56, 46
2, 73665, Control_c, 0, 64, 73
2, 73685, Control_c, 0, 64, 71
2, 73703, Control_c, 0, 64, 68
2, 73721, Control_c, 0, 64, 66
2, 73739, Control_c, 0, 64, 64
2, 73759, Control_c, 0, 64, 63
2, 73777, Control_c, 0, 64, 62
2, 73797, Control_c, 0, 64, 62
2, 73818, Control_c, 0, 64, 60
2, 73837, Control_c, 0, 64, 58
2, 73856, Control_c, 0, 64, 55
2, 73876, Control_c, 0, 64, 51
2, 73895, Control_c, 0, 64, 48
2, 73913, Control_c, 0, 64, 45
2, 73933, Control_c, 0, 64, 42
2, 73952, Control_c, 0, 64, 36
2, 73971, Control_c, 0, 64, 31
2, 73990, Control_c, 0, 64, 27
2, 74010, Control_c, 0, 64, 22
2, 74029, Control_c, 0, 64, 13
2, 74048, Control_c, 0, 64, 0
2, 74624, Control_c, 0, 64, 11
2, 74644, Control_c, 0, 64, 31
2, 74662, Control_c, 0, 64, 40
2, 74682, Control_c, 0, 64, 45
2, 74701, Control_c, 0, 64, 49
2, 74721, Control_c, 0, 64, 52
2, 74739, Control_c, 0, 64, 54
2, 74759, Control_c, 0, 64, 55
2, 74780, Control_c, 0, 64, 57
2, 74799, Control_c, 0, 64, 58
2, 74818, Control_c, 0, 64, 59
2, 74838, Control_c, 0, 64, 60
2, 74856, Control_c, 0, 64, 61
2, 74876, Control_c, 0, 64, 62
2, 74895, Control_c, 0, 64, 62
2, 74915, Control_c, 0, 64, 63
2, 74933, Control_c, 0, 64, 64
2, 74952, Control_c, 0, 64, 64
2, 74972, Control_c, 0, 64, 65
2, 74991, Control_c, 0, 64, 65
2, 75010, Control_c, 0, 64, 66
2, 75029, Control_c, 0, 64, 67
2, 75049, Control_c, 0, 64, 69
2, 75067, Control_c, 0, 64, 71
2, 75087, Control_c, 0, 64, 74
2, 75106, Control_c, 0, 64, 77
2, 75126, Control_c, 0, 64, 79
2, 75144, Control_c, 0, 64, 81
2, 75164, Control_c, 0, 64, 83
2, 75183, Control_c, 0, 64, 84
2, 75298, Control_c, 0, 64, 84
2, 75336, Control_c, 0, 64, 85
2, 75356, Control_c, 0, 64, 85
2, 75375, Control_c, 0, 64, 86
2, 75395, Control_c, 0, 64, 87
2, 75413, Control_c, 0, 64, 88
2, 75432, Control_c, 0, 64, 89
2, 75452, Control_c, 0, 64, 90
2, 75471, Control_c, 0, 64, 92
2, 75490, Control_c, 0, 64, 94
2, 75509, Control_c, 0, 64, 96
2, 75529, Control_c, 0, 64, 96
2, 75624, Control_c, 0, 64, 96
2, 75740, Control_c, 0, 64, 95
2, 75798, Control_c, 0, 64, 95
2, 75816, Control_c, 0, 64, 94
2, 75836, Control_c, 0, 64, 94
2, 75875, Control_c, 0, 64, 93
2, 75893, Control_c, 0, 64, 93
2, 75912, Control_c, 0, 64, 92
2, 75932, Control_c, 0, 64, 91
2, 75989, Control_c, 0, 64, 91
2, 76316, Control_c, 0, 64, 90
2, 76373, Control_c, 0, 64, 90
2, 76506, Note_on_c, 0, 40, 0
2, 76949, Control_c, 0, 64, 89
2, 76969, Control_c, 0, 64, 88
2, 76987, Control_c, 0, 64, 87
2, 77007, Control_c, 0, 64, 87
2, 77010, Note_on_c, 0, 64, 0
2, 77026, Control_c, 0, 64, 86
2, 77046, Control_c, 0, 64, 85
2, 77064, Control_c, 0, 64, 84
2, 77084, Control_c, 0, 64, 83
2, 77122, Control_c, 0, 64, 82
2, 77136, Note_on_c, 0, 59, 0
2, 77138, Note_on_c, 0, 56, 0
2, 77141, Control_c, 0, 64, 80
2, 77161, Control_c, 0, 64, 78
2, 77177, Control_c, 0, 64, 76
2, 77196, Control_c, 0, 64, 74
2, 77215, Control_c, 0, 64, 71
2, 77235, Control_c, 0, 64, 69
2, 77253, Control_c, 0, 64, 66
2, 77273, Control_c, 0, 64, 65
2, 77292, Control_c, 0, 64, 65
2, 77312, Control_c, 0, 64, 64
2, 77330, Control_c, 0, 64, 63
2, 77350, Control_c, 0, 64, 61
2, 77369, Control_c, 0, 64, 61
2, 77389, Control_c, 0, 64, 60
2, 77407, Control_c, 0, 64, 58
2, 77427, Control_c, 0, 64, 56
2, 77446, Control_c, 0, 64, 55
2, 77465, Control_c, 0, 64, 53
2, 77484, Control_c, 0, 64, 51
2, 77504, Control_c, 0, 64, 47
2, 77523, Control_c, 0, 64, 44
2, 77541, Control_c, 0, 64, 43
2, 77559, Control_c, 0, 64, 42
2, 77578, Control_c, 0, 64, 39
2, 77598, Control_c, 0, 64, 36
2, 77616, Control_c, 0, 64, 32
2, 77636, Control_c, 0, 64, 31
2, 77658, Control_c, 0, 64, 29
2, 77677, Control_c, 0, 64, 27
2, 77696, Control_c, 0, 64, 21
2, 77716, Control_c, 0, 64, 15
2, 77734, Control_c, 0, 64, 13
2, 77754, Control_c, 0, 64, 9
2, 77773, Control_c, 0, 64, 0
2, 79461,End_track
0, 0, End_of_file
