0, 0, Header, 1, 2, 480
1, 0, Start_track
1, 0, Tempo, 500000
1, 0, Time_signature, 4, 2, 24, 8
1, 1, End_track
2,0,Start_track
2,0, Note_on_c, 0, 64, 83
2,34, Note_on_c, 0, 64, 0
2,320, Note_on_c, 0, 66, 87
2,364, Control_c, 0, 64, 33
2,383, Control_c, 0, 64, 49
2,402, Control_c, 0, 64, 57
2,421, Control_c, 0, 64, 60
2,440, Control_c, 0, 64, 64
2,460, Control_c, 0, 64, 68
2,478, Control_c, 0, 64, 78
2,495, Note_on_c, 0, 66, 0
2,498, Control_c, 0, 64, 100
2,517, Control_c, 0, 64, 127
2,767, Control_c, 0, 64, 103
2,786, Control_c, 0, 64, 89
2,806, Control_c, 0, 64, 78
2,824, Control_c, 0, 64, 72
2,844, Control_c, 0, 64, 68
2,863, Control_c, 0, 64, 64
2,882, Control_c, 0, 64, 57
2,901, Control_c, 0, 64, 36
2,920, Control_c, 0, 64, 0
2,957, Note_on_c, 0, 59, 70
2,1026, Note_on_c, 0, 59, 0
2,1092, Note_on_c, 0, 61, 66
2,1152, Note_on_c, 0, 61, 0
2,1209, Note_on_c, 0, 63, 66
2,1262, Note_on_c, 0, 63, 0
2,1325, Note_on_c, 0, 64, 70
2,1408, Note_on_c, 0, 64, 0
2,1456, Note_on_c, 0, 63, 73
2,1543, Note_on_c, 0, 63, 0
2,1578, Note_on_c, 0, 64, 77
2,1632, Note_on_c, 0, 64, 0
2,1706, Note_on_c, 0, 66, 76
2,1779, Note_on_c, 0, 66, 0
2,1828, Note_on_c, 0, 68, 86
2,1909, Note_on_c, 0, 68, 0
2,1948, Note_on_c, 0, 69, 86
2,2013, Note_on_c, 0, 69, 0
2,2079, Note_on_c, 0, 71, 81
2,2146, Note_on_c, 0, 71, 0
2,2215, Note_on_c, 0, 68, 76
2,2269, Note_on_c, 0, 68, 0
2,2346, Note_on_c, 0, 73, 88
2,2354, Note_on_c, 0, 64, 73
2,2431, Note_on_c, 0, 64, 0
2,2478, Note_on_c, 0, 63, 69
2,2564, Note_on_c, 0, 63, 0
2,2611, Note_on_c, 0, 64, 71
2,2668, Note_on_c, 0, 64, 0
2,2741, Note_on_c, 0, 66, 69
2,2801, Note_on_c, 0, 66, 0
2,2864, Note_on_c, 0, 64, 68
2,2870, Note_on_c, 0, 73, 0
2,2918, Note_on_c, 0, 64, 0
2,2977, Note_on_c, 0, 63, 71
2,2994, Note_on_c, 0, 66, 74
2,3034, Note_on_c, 0, 63, 0
2,3045, Note_on_c, 0, 66, 0
2,3101, Note_on_c, 0, 64, 64
2,3113, Note_on_c, 0, 68, 78
2,3150, Note_on_c, 0, 64, 0
2,3188, Note_on_c, 0, 68, 0
2,3231, Note_on_c, 0, 66, 64
2,3244, Note_on_c, 0, 70, 71
2,3293, Note_on_c, 0, 70, 0
2,3295, Note_on_c, 0, 66, 0
2,3368, Note_on_c, 0, 71, 69
2,3372, Note_on_c, 0, 63, 65
2,3437, Note_on_c, 0, 71, 0
2,3440, Note_on_c, 0, 63, 0
2,3490, Note_on_c, 0, 70, 76
2,3515, Note_on_c, 0, 61, 58
2,3562, Note_on_c, 0, 70, 0
2,3568, Note_on_c, 0, 61, 0
2,3614, Note_on_c, 0, 71, 79
2,3631, Note_on_c, 0, 63, 66
2,3688, Note_on_c, 0, 71, 0
2,3709, Note_on_c, 0, 63, 0
2,3741, Note_on_c, 0, 73, 80
2,3742, Note_on_c, 0, 64, 75
2,3815, Note_on_c, 0, 73, 0
2,3818, Note_on_c, 0, 64, 0
2,3866, Note_on_c, 0, 75, 85
2,3870, Note_on_c, 0, 66, 73
2,3943, Note_on_c, 0, 75, 0
2,3952, Note_on_c, 0, 66, 0
2,3989, Note_on_c, 0, 76, 82
2,3991, Note_on_c, 0, 68, 75
2,4053, Note_on_c, 0, 68, 0
2,4055, Note_on_c, 0, 76, 0
2,4108, Note_on_c, 0, 69, 74
2,4115, Note_on_c, 0, 78, 82
2,4190, Note_on_c, 0, 69, 0
2,4198, Note_on_c, 0, 78, 0
2,4241, Note_on_c, 0, 75, 82
2,4242, Note_on_c, 0, 66, 70
2,4317, Note_on_c, 0, 75, 0
2,4333, Note_on_c, 0, 66, 0
2,4382, Note_on_c, 0, 68, 76
2,4386, Note_on_c, 0, 71, 81
2,4423, Note_on_c, 0, 68, 0
2,4452, Note_on_c, 0, 71, 0
2,4510, Note_on_c, 0, 69, 76
2,4573, Note_on_c, 0, 69, 0
2,4646, Note_on_c, 0, 59, 68
2,4650, Note_on_c, 0, 71, 73
2,4690, Note_on_c, 0, 59, 0
2,4704, Note_on_c, 0, 71, 0
2,4777, Note_on_c, 0, 73, 71
2,4856, Note_on_c, 0, 73, 0
2,4911, Note_on_c, 0, 64, 77
2,4916, Note_on_c, 0, 71, 67
2,4971, Note_on_c, 0, 71, 0
2,5037, Note_on_c, 0, 69, 70
2,5099, Note_on_c, 0, 69, 0
2,5187, Note_on_c, 0, 71, 68
2,5189, Note_on_c, 0, 52, 64
2,5249, Note_on_c, 0, 71, 0
2,5275, Note_on_c, 0, 52, 0
2,5309, Note_on_c, 0, 73, 70
2,5390, Note_on_c, 0, 73, 0
2,5458, Note_on_c, 0, 54, 75
2,5458, Note_on_c, 0, 69, 76
2,5465, Note_on_c, 0, 64, 0
2,5530, Note_on_c, 0, 69, 0
2,5565, Control_c, 0, 64, 11
2,5584, Control_c, 0, 64, 19
2,5584, Note_on_c, 0, 68, 76
2,5603, Control_c, 0, 64, 21
2,5641, Control_c, 0, 64, 11
2,5661, Control_c, 0, 64, 0
2,5666, Note_on_c, 0, 68, 0
2,5730, Note_on_c, 0, 69, 80
2,5739, Note_on_c, 0, 63, 76
2,5793, Note_on_c, 0, 63, 0
2,5802, Note_on_c, 0, 69, 0
2,5817, Note_on_c, 0, 54, 0
2,5863, Note_on_c, 0, 71, 77
2,5939, Note_on_c, 0, 71, 0
2,6005, Note_on_c, 0, 66, 79
2,6012, Note_on_c, 0, 69, 81
2,6093, Note_on_c, 0, 69, 0
2,6141, Note_on_c, 0, 68, 77
2,6143, Note_on_c, 0, 47, 63
2,6196, Note_on_c, 0, 47, 0
2,6214, Note_on_c, 0, 66, 0
2,6270, Note_on_c, 0, 49, 72
2,6272, Note_on_c, 0, 69, 72
2,6303, Note_on_c, 0, 66, 11
2,6305, Note_on_c, 0, 68, 0
2,6346, Note_on_c, 0, 49, 0
2,6382, Note_on_c, 0, 66, 0
2,6401, Note_on_c, 0, 51, 63
2,6401, Note_on_c, 0, 71, 72
2,6414, Note_on_c, 0, 69, 0
2,6449, Note_on_c, 0, 51, 0
2,6510, Note_on_c, 0, 71, 0
2,6537, Note_on_c, 0, 52, 66
2,6540, Note_on_c, 0, 68, 74
2,6598, Note_on_c, 0, 52, 0
2,6657, Note_on_c, 0, 68, 0
2,6666, Note_on_c, 0, 66, 70
2,6668, Note_on_c, 0, 51, 70
2,6746, Note_on_c, 0, 51, 0
2,6758, Note_on_c, 0, 66, 0
2,6789, Note_on_c, 0, 52, 74
2,6790, Note_on_c, 0, 59, 87
2,6807, Note_on_c, 0, 68, 71
2,6848, Note_on_c, 0, 59, 0
2,6854, Note_on_c, 0, 52, 0
2,6915, Note_on_c, 0, 54, 75
2,6938, Note_on_c, 0, 69, 80
2,6972, Note_on_c, 0, 68, 0
2,7001, Note_on_c, 0, 69, 0
2,7003, Note_on_c, 0, 54, 0
2,7061, Note_on_c, 0, 56, 80
2,7062, Note_on_c, 0, 64, 80
2,7067, Note_on_c, 0, 71, 78
2,7158, Note_on_c, 0, 56, 0
2,7167, Note_on_c, 0, 64, 0
2,7183, Note_on_c, 0, 57, 74
2,7254, Note_on_c, 0, 57, 0
2,7325, Note_on_c, 0, 59, 73
2,7325, Note_on_c, 0, 63, 83
2,7377, Note_on_c, 0, 59, 0
2,7418, Note_on_c, 0, 63, 0
2,7454, Note_on_c, 0, 56, 76
2,7516, Note_on_c, 0, 56, 0
2,7593, Note_on_c, 0, 61, 81
2,7601, Note_on_c, 0, 52, 70
2,7709, Note_on_c, 0, 52, 0
2,7732, Note_on_c, 0, 51, 67
2,7815, Note_on_c, 0, 51, 0
2,7859, Note_on_c, 0, 52, 74
2,7927, Note_on_c, 0, 52, 0
2,7996, Note_on_c, 0, 54, 72
2,8071, Note_on_c, 0, 54, 0
2,8089, Note_on_c, 0, 71, 0
2,8138, Note_on_c, 0, 70, 78
2,8150, Note_on_c, 0, 52, 64
2,8220, Note_on_c, 0, 52, 0
2,8232, Control_c, 0, 64, 9
2,8259, Note_on_c, 0, 51, 64
2,8271, Control_c, 0, 64, 0
2,8345, Note_on_c, 0, 51, 0
2,8399, Note_on_c, 0, 52, 65
2,8406, Control_c, 0, 64, 13
2,8425, Control_c, 0, 64, 21
2,8443, Control_c, 0, 64, 25
2,8463, Control_c, 0, 64, 28
2,8477, Note_on_c, 0, 52, 0
2,8482, Control_c, 0, 64, 30
2,8487, Note_on_c, 0, 61, 0
2,8488, Note_on_c, 0, 70, 0
2,8502, Control_c, 0, 64, 33
2,8520, Control_c, 0, 64, 38
2,8526, Note_on_c, 0, 54, 70
2,8540, Control_c, 0, 64, 43
2,8559, Control_c, 0, 64, 46
2,8578, Control_c, 0, 64, 47
2,8597, Control_c, 0, 64, 43
2,8607, Note_on_c, 0, 54, 0
2,8617, Control_c, 0, 64, 35
2,8636, Control_c, 0, 64, 21
2,8655, Control_c, 0, 64, 0
2,8673, Note_on_c, 0, 51, 64
2,8674, Note_on_c, 0, 71, 80
2,8679, Note_on_c, 0, 59, 70
2,8713, Note_on_c, 0, 59, 0
2,8742, Note_on_c, 0, 71, 0
2,8760, Note_on_c, 0, 51, 0
2,8810, Note_on_c, 0, 49, 66
2,8889, Note_on_c, 0, 49, 0
2,8942, Note_on_c, 0, 83, 80
2,8950, Note_on_c, 0, 51, 64
2,9017, Note_on_c, 0, 83, 0
2,9019, Note_on_c, 0, 51, 0
2,9067, Note_on_c, 0, 52, 67
2,9161, Note_on_c, 0, 52, 0
2,9209, Note_on_c, 0, 75, 80
2,9223, Note_on_c, 0, 54, 66
2,9265, Note_on_c, 0, 75, 0
2,9281, Note_on_c, 0, 54, 0
2,9354, Note_on_c, 0, 56, 71
2,9409, Note_on_c, 0, 56, 0
2,9500, Note_on_c, 0, 57, 60
2,9501, Note_on_c, 0, 78, 75
2,9568, Note_on_c, 0, 57, 0
2,9578, Note_on_c, 0, 78, 0
2,9632, Note_on_c, 0, 54, 67
2,9726, Note_on_c, 0, 54, 0
2,9775, Note_on_c, 0, 71, 71
2,9782, Note_on_c, 0, 56, 65
2,9842, Note_on_c, 0, 56, 0
2,9917, Note_on_c, 0, 54, 64
2,10001, Note_on_c, 0, 54, 0
2,10054, Note_on_c, 0, 76, 73
2,10061, Note_on_c, 0, 56, 73
2,10131, Note_on_c, 0, 56, 0
2,10193, Note_on_c, 0, 76, 0
2,10196, Note_on_c, 0, 57, 71
2,10266, Note_on_c, 0, 57, 0
2,10319, Note_on_c, 0, 68, 76
2,10329, Note_on_c, 0, 59, 75
2,10347, Note_on_c, 0, 71, 0
2,10397, Note_on_c, 0, 68, 0
2,10398, Note_on_c, 0, 59, 0
2,10461, Note_on_c, 0, 61, 78
2,10540, Note_on_c, 0, 61, 0
2,10596, Note_on_c, 0, 62, 72
2,10596, Note_on_c, 0, 71, 76
2,10651, Note_on_c, 0, 62, 0
2,10731, Note_on_c, 0, 59, 77
2,10819, Note_on_c, 0, 59, 0
2,10865, Note_on_c, 0, 71, 0
2,10869, Note_on_c, 0, 64, 79
2,10877, Note_on_c, 0, 61, 74
2,10917, Note_on_c, 0, 64, 0
2,10937, Note_on_c, 0, 61, 0
2,10998, Control_c, 0, 64, 17
2,10999, Note_on_c, 0, 59, 81
2,11018, Control_c, 0, 64, 20
2,11036, Control_c, 0, 64, 21
2,11075, Control_c, 0, 64, 17
2,11091, Note_on_c, 0, 59, 0
2,11095, Control_c, 0, 64, 11
2,11113, Control_c, 0, 64, 9
2,11132, Note_on_c, 0, 66, 82
2,11138, Note_on_c, 0, 69, 77
2,11150, Note_on_c, 0, 61, 76
2,11172, Control_c, 0, 64, 11
2,11190, Control_c, 0, 64, 15
2,11210, Control_c, 0, 64, 18
2,11229, Control_c, 0, 64, 21
2,11229, Note_on_c, 0, 61, 0
2,11248, Control_c, 0, 64, 23
2,11267, Control_c, 0, 64, 24
2,11278, Note_on_c, 0, 69, 0
2,11283, Note_on_c, 0, 63, 77
2,11306, Control_c, 0, 64, 22
2,11324, Control_c, 0, 64, 21
2,11376, Note_on_c, 0, 63, 0
2,11401, Control_c, 0, 64, 22
2,11413, Note_on_c, 0, 68, 80
2,11415, Note_on_c, 0, 64, 74
2,11421, Control_c, 0, 64, 24
2,11440, Control_c, 0, 64, 27
2,11452, Note_on_c, 0, 66, 0
2,11459, Control_c, 0, 64, 29
2,11461, Note_on_c, 0, 64, 0
2,11478, Control_c, 0, 64, 31
2,11489, Note_on_c, 0, 68, 0
2,11516, Control_c, 0, 64, 30
2,11535, Control_c, 0, 64, 24
2,11553, Note_on_c, 0, 63, 73
2,11554, Control_c, 0, 64, 18
2,11574, Control_c, 0, 64, 15
2,11592, Control_c, 0, 64, 9
2,11612, Control_c, 0, 64, 0
2,11625, Note_on_c, 0, 63, 0
2,11680, Note_on_c, 0, 76, 84
2,11682, Note_on_c, 0, 64, 82
2,11686, Note_on_c, 0, 61, 78
2,11693, Control_c, 0, 64, 9
2,11711, Control_c, 0, 64, 19
2,11711, Note_on_c, 0, 64, 0
2,11731, Control_c, 0, 64, 23
2,11750, Control_c, 0, 64, 24
2,11751, Note_on_c, 0, 76, 0
2,11752, Note_on_c, 0, 61, 0
2,11770, Control_c, 0, 64, 25
2,11811, Note_on_c, 0, 59, 74
2,11827, Control_c, 0, 64, 26
2,11847, Control_c, 0, 64, 27
2,11862, Note_on_c, 0, 59, 0
2,11865, Control_c, 0, 64, 30
2,11884, Control_c, 0, 64, 32
2,11922, Control_c, 0, 64, 29
2,11942, Control_c, 0, 64, 22
2,11961, Control_c, 0, 64, 19
2,11967, Note_on_c, 0, 78, 89
2,11969, Note_on_c, 0, 57, 74
2,11970, Note_on_c, 0, 64, 74
2,12076, Control_c, 0, 64, 21
2,12096, Control_c, 0, 64, 27
2,12105, Note_on_c, 0, 57, 0
2,12107, Note_on_c, 0, 56, 74
2,12115, Control_c, 0, 64, 28
2,12134, Control_c, 0, 64, 27
2,12153, Control_c, 0, 64, 24
2,12173, Control_c, 0, 64, 20
2,12174, Note_on_c, 0, 64, 0
2,12191, Control_c, 0, 64, 19
2,12230, Control_c, 0, 64, 17
2,12242, Note_on_c, 0, 57, 75
2,12250, Control_c, 0, 64, 13
2,12295, Note_on_c, 0, 56, 0
2,12307, Control_c, 0, 64, 17
2,12327, Control_c, 0, 64, 18
2,12345, Control_c, 0, 64, 19
2,12364, Control_c, 0, 64, 20
2,12376, Note_on_c, 0, 59, 79
2,12377, Note_on_c, 0, 57, 0
2,12384, Control_c, 0, 64, 21
2,12402, Control_c, 0, 64, 24
2,12422, Control_c, 0, 64, 25
2,12441, Control_c, 0, 64, 24
2,12452, Note_on_c, 0, 59, 0
2,12461, Control_c, 0, 64, 9
2,12479, Control_c, 0, 64, 0
2,12502, Note_on_c, 0, 78, 0
2,12507, Note_on_c, 0, 57, 79
2,12507, Note_on_c, 0, 63, 80
2,12582, Note_on_c, 0, 57, 0
2,12618, Note_on_c, 0, 63, 0
2,12633, Note_on_c, 0, 56, 73
2,12636, Note_on_c, 0, 71, 79
2,12710, Note_on_c, 0, 71, 0
2,12720, Note_on_c, 0, 56, 0
2,12768, Note_on_c, 0, 57, 68
2,12778, Note_on_c, 0, 73, 76
2,12784, Note_on_c, 0, 66, 69
2,12824, Note_on_c, 0, 66, 0
2,12827, Note_on_c, 0, 57, 0
2,12853, Note_on_c, 0, 73, 0
2,12898, Note_on_c, 0, 59, 71
2,12907, Note_on_c, 0, 75, 72
2,12934, Note_on_c, 0, 59, 0
2,12984, Note_on_c, 0, 75, 0
2,13035, Note_on_c, 0, 59, 64
2,13056, Note_on_c, 0, 76, 68
2,13059, Note_on_c, 0, 56, 68
2,13121, Note_on_c, 0, 56, 0
2,13154, Note_on_c, 0, 76, 0
2,13191, Note_on_c, 0, 75, 76
2,13261, Note_on_c, 0, 75, 0
2,13320, Note_on_c, 0, 54, 72
2,13320, Note_on_c, 0, 76, 79
2,13394, Note_on_c, 0, 76, 0
2,13407, Note_on_c, 0, 54, 0
2,13450, Note_on_c, 0, 78, 85
2,13494, Control_c, 0, 64, 13
2,13536, Note_on_c, 0, 78, 0
2,13572, Control_c, 0, 64, 9
2,13572, Note_on_c, 0, 59, 0
2,13585, Note_on_c, 0, 52, 75
2,13590, Control_c, 0, 64, 0
2,13591, Note_on_c, 0, 80, 89
2,13631, Note_on_c, 0, 52, 0
2,13683, Note_on_c, 0, 80, 0
2,13721, Note_on_c, 0, 81, 82
2,13802, Note_on_c, 0, 81, 0
2,13864, Note_on_c, 0, 71, 87
2,13869, Note_on_c, 0, 83, 84
2,13878, Note_on_c, 0, 51, 74
2,13922, Note_on_c, 0, 71, 0
2,13943, Note_on_c, 0, 83, 0
2,13965, Note_on_c, 0, 51, 0
2,13992, Note_on_c, 0, 80, 82
2,14064, Note_on_c, 0, 80, 0
2,14090, Control_c, 0, 64, 9
2,14109, Control_c, 0, 64, 11
2,14146, Note_on_c, 0, 49, 69
2,14152, Note_on_c, 0, 76, 82
2,14153, Note_on_c, 0, 73, 85
2,14167, Control_c, 0, 64, 9
2,14186, Control_c, 0, 64, 0
2,14187, Note_on_c, 0, 49, 0
2,14241, Note_on_c, 0, 76, 0
2,14297, Note_on_c, 0, 75, 73
2,14393, Note_on_c, 0, 73, 0
2,14433, Note_on_c, 0, 59, 79
2,14441, Note_on_c, 0, 76, 71
2,14472, Note_on_c, 0, 75, 0
2,14521, Note_on_c, 0, 59, 0
2,14547, Note_on_c, 0, 76, 0
2,14561, Note_on_c, 0, 78, 76
2,14591, Control_c, 0, 64, 11
2,14649, Control_c, 0, 64, 0
2,14676, Note_on_c, 0, 78, 0
2,14703, Note_on_c, 0, 58, 76
2,14715, Note_on_c, 0, 76, 73
2,14769, Note_on_c, 0, 58, 0
2,14798, Note_on_c, 0, 76, 0
2,14837, Note_on_c, 0, 66, 76
2,14842, Note_on_c, 0, 75, 82
2,14907, Note_on_c, 0, 66, 0
2,14923, Note_on_c, 0, 75, 0
2,14982, Note_on_c, 0, 76, 78
2,14984, Note_on_c, 0, 68, 84
2,14986, Note_on_c, 0, 54, 77
2,15030, Note_on_c, 0, 54, 0
2,15037, Note_on_c, 0, 68, 0
2,15049, Note_on_c, 0, 76, 0
2,15115, Note_on_c, 0, 78, 78
2,15130, Note_on_c, 0, 70, 76
2,15167, Control_c, 0, 64, 9
2,15182, Note_on_c, 0, 70, 0
2,15186, Control_c, 0, 64, 11
2,15191, Note_on_c, 0, 78, 0
2,15224, Control_c, 0, 64, 0
2,15252, Note_on_c, 0, 59, 77
2,15261, Note_on_c, 0, 75, 86
2,15262, Note_on_c, 0, 71, 81
2,15300, Note_on_c, 0, 71, 0
2,15323, Note_on_c, 0, 59, 0
2,15340, Note_on_c, 0, 75, 0
2,15388, Note_on_c, 0, 73, 85
2,15400, Note_on_c, 0, 70, 73
2,15450, Note_on_c, 0, 70, 0
2,15475, Note_on_c, 0, 73, 0
2,15520, Note_on_c, 0, 75, 83
2,15529, Note_on_c, 0, 71, 74
2,15575, Note_on_c, 0, 71, 0
2,15591, Note_on_c, 0, 75, 0
2,15644, Note_on_c, 0, 76, 87
2,15659, Note_on_c, 0, 73, 72
2,15716, Note_on_c, 0, 76, 0
2,15728, Note_on_c, 0, 73, 0
2,15787, Note_on_c, 0, 78, 88
2,15795, Note_on_c, 0, 75, 80
2,15867, Note_on_c, 0, 75, 0
2,15868, Note_on_c, 0, 78, 0
2,15917, Note_on_c, 0, 76, 80
2,15917, Note_on_c, 0, 80, 93
2,15985, Note_on_c, 0, 76, 0
2,16008, Note_on_c, 0, 80, 0
2,16051, Note_on_c, 0, 78, 75
2,16058, Note_on_c, 0, 81, 90
2,16122, Note_on_c, 0, 78, 0
2,16184, Note_on_c, 0, 75, 80
2,16253, Note_on_c, 0, 75, 0
2,16332, Note_on_c, 0, 71, 83
2,16399, Note_on_c, 0, 71, 0
2,16439, Note_on_c, 0, 81, 0
2,16467, Note_on_c, 0, 69, 77
2,16554, Note_on_c, 0, 69, 0
2,16601, Note_on_c, 0, 71, 76
2,16605, Note_on_c, 0, 75, 86
2,16658, Note_on_c, 0, 71, 0
2,16673, Note_on_c, 0, 75, 0
2,16733, Note_on_c, 0, 73, 72
2,16794, Note_on_c, 0, 73, 0
2,16881, Note_on_c, 0, 71, 74
2,16887, Note_on_c, 0, 80, 94
2,16957, Note_on_c, 0, 71, 0
2,17011, Note_on_c, 0, 69, 76
2,17101, Note_on_c, 0, 69, 0
2,17150, Note_on_c, 0, 71, 75
2,17221, Note_on_c, 0, 71, 0
2,17292, Note_on_c, 0, 73, 71
2,17359, Note_on_c, 0, 73, 0
2,17426, Note_on_c, 0, 69, 76
2,17501, Note_on_c, 0, 69, 0
2,17552, Note_on_c, 0, 68, 80
2,17621, Note_on_c, 0, 68, 0
2,17621, Note_on_c, 0, 80, 0
2,17682, Note_on_c, 0, 69, 74
2,17697, Note_on_c, 0, 78, 76
2,17731, Note_on_c, 0, 69, 0
2,17782, Note_on_c, 0, 78, 0
2,17816, Note_on_c, 0, 71, 71
2,17822, Note_on_c, 0, 76, 72
2,17887, Note_on_c, 0, 76, 0
2,17893, Note_on_c, 0, 71, 0
2,17958, Note_on_c, 0, 69, 72
2,17982, Note_on_c, 0, 75, 73
2,17992, Note_on_c, 0, 69, 0
2,18116, Note_on_c, 0, 68, 66
2,18211, Note_on_c, 0, 68, 0
2,18252, Note_on_c, 0, 59, 78
2,18267, Note_on_c, 0, 69, 74
2,18290, Note_on_c, 0, 75, 0
2,18305, Note_on_c, 0, 59, 0
2,18337, Note_on_c, 0, 69, 0
2,18385, Note_on_c, 0, 71, 78
2,18471, Note_on_c, 0, 71, 0
2,18535, Note_on_c, 0, 68, 88
2,18539, Note_on_c, 0, 61, 79
2,18548, Note_on_c, 0, 76, 77
2,18634, Note_on_c, 0, 68, 0
2,18662, Note_on_c, 0, 76, 0
2,18673, Note_on_c, 0, 75, 82
2,18769, Note_on_c, 0, 75, 0
2,18817, Note_on_c, 0, 64, 79
2,18821, Note_on_c, 0, 76, 75
2,18885, Note_on_c, 0, 64, 0
2,18897, Note_on_c, 0, 76, 0
2,18909, Note_on_c, 0, 61, 0
2,18946, Note_on_c, 0, 78, 78
2,19042, Note_on_c, 0, 78, 0
2,19092, Note_on_c, 0, 69, 79
2,19092, Note_on_c, 0, 76, 75
2,19175, Note_on_c, 0, 76, 0
2,19223, Note_on_c, 0, 54, 71
2,19236, Note_on_c, 0, 75, 72
2,19294, Note_on_c, 0, 54, 0
2,19361, Note_on_c, 0, 56, 73
2,19366, Note_on_c, 0, 75, 0
2,19377, Note_on_c, 0, 76, 61
2,19438, Note_on_c, 0, 56, 0
2,19479, Note_on_c, 0, 76, 0
2,19499, Note_on_c, 0, 57, 70
2,19500, Note_on_c, 0, 78, 72
2,19553, Note_on_c, 0, 57, 0
2,19637, Note_on_c, 0, 75, 74
2,19644, Note_on_c, 0, 59, 76
2,19646, Note_on_c, 0, 78, 0
2,19712, Note_on_c, 0, 59, 0
2,19718, Note_on_c, 0, 75, 0
2,19763, Note_on_c, 0, 73, 76
2,19778, Note_on_c, 0, 57, 76
2,19835, Note_on_c, 0, 57, 0
2,19881, Note_on_c, 0, 69, 0
2,19908, Note_on_c, 0, 59, 81
2,19913, Note_on_c, 0, 75, 78
2,19914, Note_on_c, 0, 69, 19
2,19955, Note_on_c, 0, 73, 0
2,19975, Note_on_c, 0, 69, 0
2,19977, Note_on_c, 0, 59, 0
2,20032, Note_on_c, 0, 76, 79
2,20038, Note_on_c, 0, 61, 80
2,20064, Note_on_c, 0, 75, 0
2,20123, Note_on_c, 0, 61, 0
2,20170, Note_on_c, 0, 76, 0
2,20173, Note_on_c, 0, 78, 83
2,20182, Note_on_c, 0, 63, 77
2,20242, Note_on_c, 0, 63, 0
2,20303, Note_on_c, 0, 64, 76
2,20310, Note_on_c, 0, 72, 80
2,20376, Note_on_c, 0, 64, 0
2,20379, Note_on_c, 0, 72, 0
2,20435, Note_on_c, 0, 73, 75
2,20437, Note_on_c, 0, 63, 72
2,20503, Note_on_c, 0, 63, 0
2,20570, Note_on_c, 0, 61, 70
2,20570, Note_on_c, 0, 75, 75
2,20574, Note_on_c, 0, 73, 0
2,20628, Note_on_c, 0, 61, 0
2,20676, Note_on_c, 0, 75, 0
2,20716, Note_on_c, 0, 60, 65
2,20721, Note_on_c, 0, 68, 78
2,20787, Note_on_c, 0, 60, 0
2,20862, Note_on_c, 0, 56, 71
2,20889, Note_on_c, 0, 78, 0
2,20953, Note_on_c, 0, 56, 0
2,21002, Note_on_c, 0, 58, 68
2,21003, Note_on_c, 0, 76, 78
2,21076, Note_on_c, 0, 76, 0
2,21082, Note_on_c, 0, 58, 0
2,21128, Note_on_c, 0, 75, 82
2,21133, Note_on_c, 0, 60, 73
2,21203, Note_on_c, 0, 60, 0
2,21216, Note_on_c, 0, 75, 0
2,21266, Note_on_c, 0, 76, 86
2,21268, Note_on_c, 0, 61, 77
2,21349, Note_on_c, 0, 61, 0
2,21355, Note_on_c, 0, 68, 0
2,21402, Note_on_c, 0, 63, 77
2,21466, Note_on_c, 0, 63, 0
2,21533, Note_on_c, 0, 64, 72
2,21539, Note_on_c, 0, 73, 73
2,21593, Note_on_c, 0, 64, 0
2,21621, Note_on_c, 0, 73, 0
2,21679, Note_on_c, 0, 61, 68
2,21722, Note_on_c, 0, 61, 0
2,21812, Note_on_c, 0, 57, 65
2,21825, Note_on_c, 0, 66, 71
2,21864, Note_on_c, 0, 76, 0
2,21906, Note_on_c, 0, 57, 0
2,21959, Note_on_c, 0, 56, 72
2,22037, Note_on_c, 0, 56, 0
2,22108, Note_on_c, 0, 57, 65
2,22111, Note_on_c, 0, 76, 77
2,22165, Note_on_c, 0, 57, 0
2,22192, Note_on_c, 0, 76, 0
2,22240, Note_on_c, 0, 59, 71
2,22309, Note_on_c, 0, 59, 0
2,22391, Note_on_c, 0, 75, 80
2,22397, Note_on_c, 0, 57, 71
2,22461, Note_on_c, 0, 57, 0
2,22485, Note_on_c, 0, 75, 0
2,22533, Note_on_c, 0, 56, 73
2,22600, Note_on_c, 0, 56, 0
2,22670, Note_on_c, 0, 73, 80
2,22675, Note_on_c, 0, 57, 65
2,22724, Note_on_c, 0, 57, 0
2,22749, Note_on_c, 0, 73, 0
2,22806, Note_on_c, 0, 59, 68
2,22914, Note_on_c, 0, 59, 0
2,22952, Note_on_c, 0, 72, 75
2,22963, Note_on_c, 0, 56, 66
2,23023, Note_on_c, 0, 56, 0
2,23036, Note_on_c, 0, 72, 0
2,23101, Note_on_c, 0, 52, 75
2,23177, Note_on_c, 0, 52, 0
2,23236, Note_on_c, 0, 68, 78
2,23243, Note_on_c, 0, 54, 78
2,23286, Note_on_c, 0, 66, 0
2,23319, Note_on_c, 0, 68, 0
2,23321, Note_on_c, 0, 54, 0
2,23373, Note_on_c, 0, 56, 79
2,23457, Note_on_c, 0, 56, 0
2,23513, Note_on_c, 0, 73, 80
2,23514, Note_on_c, 0, 57, 73
2,23520, Note_on_c, 0, 64, 72
2,23580, Note_on_c, 0, 57, 0
2,23596, Note_on_c, 0, 64, 0
2,23654, Note_on_c, 0, 59, 76
2,23737, Note_on_c, 0, 59, 0
2,23794, Note_on_c, 0, 69, 82
2,23808, Note_on_c, 0, 61, 75
2,23864, Note_on_c, 0, 61, 0
2,23908, Note_on_c, 0, 69, 0
2,23929, Note_on_c, 0, 57, 77
2,24012, Note_on_c, 0, 57, 0
2,24081, Note_on_c, 0, 54, 70
2,24084, Note_on_c, 0, 63, 84
2,24120, Note_on_c, 0, 73, 0
2,24164, Note_on_c, 0, 54, 0
2,24164, Note_on_c, 0, 63, 0
2,24221, Note_on_c, 0, 52, 73
2,24295, Note_on_c, 0, 52, 0
2,24371, Note_on_c, 0, 54, 67
2,24371, Note_on_c, 0, 75, 80
2,24376, Note_on_c, 0, 66, 75
2,24433, Note_on_c, 0, 54, 0
2,24434, Note_on_c, 0, 75, 0
2,24446, Note_on_c, 0, 66, 0
2,24502, Note_on_c, 0, 56, 69
2,24571, Note_on_c, 0, 56, 0
2,24654, Note_on_c, 0, 68, 83
2,24658, Note_on_c, 0, 60, 67
2,24659, Note_on_c, 0, 54, 68
2,24696, Note_on_c, 0, 60, 0
2,24714, Note_on_c, 0, 54, 0
2,24732, Note_on_c, 0, 68, 0
2,24790, Note_on_c, 0, 52, 67
2,24850, Note_on_c, 0, 52, 0
2,24938, Note_on_c, 0, 70, 77
2,24939, Note_on_c, 0, 54, 64
2,24947, Note_on_c, 0, 63, 62
2,24989, Note_on_c, 0, 63, 0
2,24990, Note_on_c, 0, 54, 0
2,25017, Note_on_c, 0, 70, 0
2,25068, Note_on_c, 0, 56, 70
2,25069, Note_on_c, 0, 72, 78
2,25125, Note_on_c, 0, 56, 0
2,25138, Note_on_c, 0, 72, 0
2,25220, Note_on_c, 0, 52, 65
2,25221, Note_on_c, 0, 73, 71
2,25228, Note_on_c, 0, 56, 66
2,25267, Note_on_c, 0, 73, 0
2,25278, Note_on_c, 0, 52, 0
2,25344, Note_on_c, 0, 72, 75
2,25407, Note_on_c, 0, 72, 0
2,25501, Note_on_c, 0, 73, 77
2,25506, Note_on_c, 0, 51, 65
2,25524, Note_on_c, 0, 56, 0
2,25576, Note_on_c, 0, 51, 0
2,25581, Note_on_c, 0, 73, 0
2,25635, Note_on_c, 0, 75, 76
2,25708, Note_on_c, 0, 75, 0
2,25782, Note_on_c, 0, 49, 71
2,25782, Note_on_c, 0, 76, 74
2,25842, Note_on_c, 0, 49, 0
2,25844, Note_on_c, 0, 76, 0
2,25914, Note_on_c, 0, 78, 78
2,25995, Note_on_c, 0, 78, 0
2,26055, Note_on_c, 0, 52, 68
2,26061, Note_on_c, 0, 80, 81
2,26100, Note_on_c, 0, 52, 0
2,26161, Note_on_c, 0, 80, 0
2,26196, Note_on_c, 0, 76, 77
2,26264, Note_on_c, 0, 76, 0
2,26330, Note_on_c, 0, 46, 71
2,26336, Note_on_c, 0, 73, 81
2,26387, Note_on_c, 0, 46, 0
2,26413, Note_on_c, 0, 73, 0
2,26469, Note_on_c, 0, 71, 78
2,26540, Note_on_c, 0, 71, 0
2,26615, Note_on_c, 0, 56, 75
2,26618, Note_on_c, 0, 73, 78
2,26676, Note_on_c, 0, 56, 0
2,26693, Note_on_c, 0, 73, 0
2,26745, Note_on_c, 0, 75, 79
2,26826, Note_on_c, 0, 75, 0
2,26904, Note_on_c, 0, 58, 67
2,26906, Note_on_c, 0, 55, 67
2,26907, Note_on_c, 0, 73, 74
2,26966, Note_on_c, 0, 55, 0
2,26986, Note_on_c, 0, 73, 0
2,27047, Note_on_c, 0, 71, 72
2,27114, Note_on_c, 0, 71, 0
2,27183, Note_on_c, 0, 51, 61
2,27195, Note_on_c, 0, 73, 74
2,27249, Note_on_c, 0, 51, 0
2,27268, Note_on_c, 0, 73, 0
2,27332, Note_on_c, 0, 75, 70
2,27413, Note_on_c, 0, 75, 0
2,27490, Note_on_c, 0, 44, 60
2,27491, Note_on_c, 0, 71, 67
2,27549, Note_on_c, 0, 71, 0
2,27596, Note_on_c, 0, 44, 0
2,27623, Note_on_c, 0, 70, 71
2,27689, Note_on_c, 0, 70, 0
2,27766, Note_on_c, 0, 46, 63
2,27773, Note_on_c, 0, 71, 73
2,27820, Note_on_c, 0, 71, 0
2,27836, Note_on_c, 0, 58, 0
2,27846, Note_on_c, 0, 46, 0
2,27907, Note_on_c, 0, 73, 74
2,27994, Note_on_c, 0, 73, 0
2,28053, Note_on_c, 0, 47, 66
2,28054, Note_on_c, 0, 56, 67
2,28059, Note_on_c, 0, 75, 74
2,28127, Note_on_c, 0, 47, 0
2,28152, Note_on_c, 0, 75, 0
2,28190, Note_on_c, 0, 76, 71
2,28257, Note_on_c, 0, 76, 0
2,28334, Note_on_c, 0, 46, 66
2,28336, Note_on_c, 0, 78, 74
2,28403, Note_on_c, 0, 46, 0
2,28431, Note_on_c, 0, 78, 0
2,28472, Note_on_c, 0, 75, 71
2,28545, Note_on_c, 0, 75, 0
2,28627, Note_on_c, 0, 44, 65
2,28630, Note_on_c, 0, 71, 68
2,28678, Note_on_c, 0, 56, 0
2,28679, Note_on_c, 0, 44, 0
2,28685, Note_on_c, 0, 71, 0
2,28766, Note_on_c, 0, 69, 73
2,28836, Note_on_c, 0, 69, 0
2,28915, Note_on_c, 0, 54, 73
2,28920, Note_on_c, 0, 71, 73
2,28981, Note_on_c, 0, 71, 0
2,28989, Note_on_c, 0, 54, 0
2,29052, Note_on_c, 0, 73, 74
2,29126, Note_on_c, 0, 73, 0
2,29193, Note_on_c, 0, 56, 79
2,29194, Note_on_c, 0, 53, 76
2,29207, Note_on_c, 0, 71, 70
2,29262, Note_on_c, 0, 71, 0
2,29274, Note_on_c, 0, 53, 0
2,29333, Note_on_c, 0, 69, 70
2,29412, Note_on_c, 0, 69, 0
2,29482, Note_on_c, 0, 49, 68
2,29482, Note_on_c, 0, 71, 75
2,29540, Note_on_c, 0, 49, 0
2,29561, Note_on_c, 0, 71, 0
2,29622, Note_on_c, 0, 73, 69
2,29709, Note_on_c, 0, 73, 0
2,29774, Note_on_c, 0, 69, 74
2,29789, Note_on_c, 0, 42, 59
2,29842, Note_on_c, 0, 69, 0
2,29868, Note_on_c, 0, 42, 0
2,29917, Note_on_c, 0, 68, 72
2,29986, Note_on_c, 0, 68, 0
2,30054, Note_on_c, 0, 44, 60
2,30058, Note_on_c, 0, 69, 72
2,30105, Note_on_c, 0, 69, 0
2,30117, Note_on_c, 0, 56, 0
2,30141, Note_on_c, 0, 44, 0
2,30194, Note_on_c, 0, 71, 65
2,30258, Note_on_c, 0, 71, 0
2,30337, Note_on_c, 0, 54, 63
2,30339, Note_on_c, 0, 45, 60
2,30348, Note_on_c, 0, 73, 62
2,30403, Note_on_c, 0, 73, 0
2,30417, Note_on_c, 0, 45, 0
2,30470, Note_on_c, 0, 75, 65
2,30552, Note_on_c, 0, 75, 0
2,30626, Note_on_c, 0, 44, 59
2,30634, Note_on_c, 0, 76, 62
2,30694, Note_on_c, 0, 44, 0
2,30730, Note_on_c, 0, 76, 0
2,30762, Note_on_c, 0, 73, 67
2,30841, Note_on_c, 0, 73, 0
2,30915, Note_on_c, 0, 42, 62
2,30920, Note_on_c, 0, 75, 68
2,30967, Note_on_c, 0, 42, 0
2,30987, Note_on_c, 0, 75, 0
2,31045, Note_on_c, 0, 54, 0
2,31048, Note_on_c, 0, 73, 71
2,31152, Note_on_c, 0, 73, 0
2,31192, Note_on_c, 0, 52, 72
2,31208, Note_on_c, 0, 75, 73
2,31241, Note_on_c, 0, 52, 0
2,31256, Note_on_c, 0, 75, 0
2,31333, Note_on_c, 0, 76, 78
2,31406, Note_on_c, 0, 76, 0
2,31477, Note_on_c, 0, 54, 74
2,31483, Note_on_c, 0, 51, 70
2,31483, Note_on_c, 0, 78, 81
2,31561, Control_c, 0, 64, 9
2,31571, Note_on_c, 0, 51, 0
2,31571, Note_on_c, 0, 78, 0
2,31600, Control_c, 0, 64, 11
2,31615, Note_on_c, 0, 80, 85
2,31658, Control_c, 0, 64, 13
2,31692, Note_on_c, 0, 80, 0
2,31757, Note_on_c, 0, 81, 84
2,31761, Note_on_c, 0, 49, 73
2,31824, Note_on_c, 0, 49, 0
2,31892, Note_on_c, 0, 78, 81
2,31902, Note_on_c, 0, 81, 0
2,31980, Note_on_c, 0, 78, 0
2,32003, Control_c, 0, 64, 11
2,32042, Note_on_c, 0, 80, 80
2,32043, Note_on_c, 0, 48, 69
2,32080, Control_c, 0, 64, 9
2,32123, Note_on_c, 0, 48, 0
2,32179, Note_on_c, 0, 78, 80
2,32181, Note_on_c, 0, 80, 0
2,32284, Note_on_c, 0, 78, 0
2,32327, Note_on_c, 0, 76, 77
2,32334, Note_on_c, 0, 44, 68
2,32349, Control_c, 0, 64, 0
2,32359, Note_on_c, 0, 54, 0
2,32393, Note_on_c, 0, 76, 0
2,32448, Note_on_c, 0, 44, 0
2,32458, Note_on_c, 0, 75, 75
2,32556, Note_on_c, 0, 75, 0
2,32608, Note_on_c, 0, 45, 64
2,32608, Note_on_c, 0, 52, 71
2,32608, Note_on_c, 0, 73, 77
2,32647, Note_on_c, 0, 52, 0
2,32650, Note_on_c, 0, 45, 0
2,32690, Note_on_c, 0, 73, 0
2,32737, Note_on_c, 0, 71, 78
2,32820, Note_on_c, 0, 71, 0
2,32893, Note_on_c, 0, 61, 82
2,32893, Note_on_c, 0, 69, 86
2,32895, Note_on_c, 0, 52, 76
2,32963, Note_on_c, 0, 52, 0
2,32963, Note_on_c, 0, 61, 0
2,32966, Note_on_c, 0, 69, 0
2,33039, Note_on_c, 0, 68, 81
2,33095, Control_c, 0, 64, 11
2,33128, Note_on_c, 0, 68, 0
2,33152, Control_c, 0, 64, 0
2,33182, Note_on_c, 0, 63, 86
2,33189, Note_on_c, 0, 66, 82
2,33196, Note_on_c, 0, 54, 79
2,33280, Note_on_c, 0, 66, 0
2,33322, Note_on_c, 0, 52, 76
2,33324, Note_on_c, 0, 68, 83
2,33341, Note_on_c, 0, 54, 0
2,33344, Control_c, 0, 64, 13
2,33383, Control_c, 0, 64, 11
2,33400, Note_on_c, 0, 68, 0
2,33402, Control_c, 0, 64, 0
2,33461, Note_on_c, 0, 69, 80
2,33467, Note_on_c, 0, 54, 80
2,33493, Note_on_c, 0, 63, 0
2,33532, Note_on_c, 0, 52, 0
2,33540, Note_on_c, 0, 69, 0
2,33593, Note_on_c, 0, 66, 79
2,33645, Note_on_c, 0, 54, 0
2,33690, Note_on_c, 0, 66, 0
2,33740, Note_on_c, 0, 56, 77
2,33750, Note_on_c, 0, 63, 81
2,33781, Note_on_c, 0, 56, 0
2,33840, Note_on_c, 0, 63, 0
2,33886, Note_on_c, 0, 56, 83
2,33934, Note_on_c, 0, 56, 0
2,34028, Note_on_c, 0, 68, 81
2,34029, Note_on_c, 0, 44, 78
2,34029, Note_on_c, 0, 58, 76
2,34087, Note_on_c, 0, 44, 0
2,34095, Note_on_c, 0, 58, 0
2,34173, Note_on_c, 0, 60, 70
2,34192, Note_on_c, 0, 68, 0
2,34227, Note_on_c, 0, 60, 0
2,34310, Note_on_c, 0, 61, 74
2,34313, Note_on_c, 0, 64, 74
2,34315, Note_on_c, 0, 49, 80
2,34345, Note_on_c, 0, 61, 0
2,34360, Note_on_c, 0, 64, 0
2,34389, Note_on_c, 0, 49, 0
2,34449, Note_on_c, 0, 60, 70
2,34532, Note_on_c, 0, 60, 0
2,34589, Note_on_c, 0, 61, 77
2,34591, Note_on_c, 0, 68, 80
2,34673, Note_on_c, 0, 68, 0
2,34674, Note_on_c, 0, 61, 0
2,34729, Note_on_c, 0, 63, 80
2,34805, Note_on_c, 0, 63, 0
2,34870, Note_on_c, 0, 73, 86
2,34880, Note_on_c, 0, 64, 77
2,34950, Note_on_c, 0, 73, 0
2,34965, Note_on_c, 0, 64, 0
2,35022, Note_on_c, 0, 66, 76
2,35107, Note_on_c, 0, 66, 0
2,35158, Note_on_c, 0, 71, 87
2,35166, Note_on_c, 0, 68, 80
2,35234, Note_on_c, 0, 71, 0
2,35235, Note_on_c, 0, 68, 0
2,35294, Note_on_c, 0, 64, 76
2,35404, Note_on_c, 0, 64, 0
2,35455, Note_on_c, 0, 76, 83
2,35460, Note_on_c, 0, 61, 72
2,35538, Note_on_c, 0, 76, 0
2,35551, Note_on_c, 0, 61, 0
2,35591, Note_on_c, 0, 75, 86
2,35598, Note_on_c, 0, 59, 74
2,35666, Note_on_c, 0, 59, 0
2,35673, Note_on_c, 0, 75, 0
2,35728, Note_on_c, 0, 61, 69
2,35731, Note_on_c, 0, 73, 85
2,35805, Note_on_c, 0, 61, 0
2,35807, Note_on_c, 0, 73, 0
2,35856, Note_on_c, 0, 71, 81
2,35871, Note_on_c, 0, 63, 65
2,35925, Note_on_c, 0, 71, 0
2,35927, Note_on_c, 0, 63, 0
2,36005, Note_on_c, 0, 61, 64
2,36005, Note_on_c, 0, 69, 79
2,36083, Note_on_c, 0, 61, 0
2,36150, Note_on_c, 0, 59, 69
2,36224, Note_on_c, 0, 59, 0
2,36287, Note_on_c, 0, 61, 69
2,36343, Note_on_c, 0, 61, 0
2,36425, Note_on_c, 0, 63, 68
2,36493, Note_on_c, 0, 63, 0
2,36522, Note_on_c, 0, 69, 0
2,36562, Note_on_c, 0, 59, 75
2,36652, Note_on_c, 0, 59, 0
2,36697, Note_on_c, 0, 56, 70
2,36765, Note_on_c, 0, 56, 0
2,36838, Note_on_c, 0, 57, 64
2,36841, Note_on_c, 0, 63, 72
2,36901, Note_on_c, 0, 57, 0
2,36979, Note_on_c, 0, 59, 65
2,37046, Note_on_c, 0, 63, 0
2,37068, Note_on_c, 0, 59, 0
2,37132, Note_on_c, 0, 69, 73
2,37137, Note_on_c, 0, 61, 65
2,37188, Note_on_c, 0, 61, 0
2,37197, Note_on_c, 0, 69, 0
2,37270, Note_on_c, 0, 63, 65
2,37324, Note_on_c, 0, 63, 0
2,37409, Note_on_c, 0, 64, 59
2,37409, Note_on_c, 0, 68, 74
2,37466, Note_on_c, 0, 64, 0
2,37470, Note_on_c, 0, 68, 0
2,37547, Note_on_c, 0, 61, 63
2,37597, Note_on_c, 0, 61, 0
2,37700, Note_on_c, 0, 57, 61
2,37704, Note_on_c, 0, 73, 74
2,37778, Note_on_c, 0, 57, 0
2,37794, Note_on_c, 0, 73, 0
2,37831, Note_on_c, 0, 71, 68
2,37834, Note_on_c, 0, 56, 63
2,37888, Note_on_c, 0, 56, 0
2,37894, Note_on_c, 0, 71, 0
2,37963, Note_on_c, 0, 57, 59
2,37975, Note_on_c, 0, 69, 66
2,38028, Note_on_c, 0, 57, 0
2,38036, Note_on_c, 0, 69, 0
2,38100, Note_on_c, 0, 68, 69
2,38106, Note_on_c, 0, 59, 62
2,38172, Note_on_c, 0, 59, 0
2,38177, Note_on_c, 0, 68, 0
2,38256, Note_on_c, 0, 66, 68
2,38269, Note_on_c, 0, 57, 58
2,38323, Note_on_c, 0, 57, 0
2,38408, Note_on_c, 0, 56, 63
2,38475, Note_on_c, 0, 56, 0
2,38550, Note_on_c, 0, 57, 64
2,38603, Note_on_c, 0, 57, 0
2,38680, Note_on_c, 0, 59, 66
2,38768, Note_on_c, 0, 59, 0
2,38823, Note_on_c, 0, 56, 75
2,38880, Note_on_c, 0, 56, 0
2,38911, Note_on_c, 0, 66, 0
2,38959, Note_on_c, 0, 54, 67
2,39020, Note_on_c, 0, 54, 0
2,39097, Note_on_c, 0, 56, 65
2,39100, Note_on_c, 0, 64, 57
2,39152, Note_on_c, 0, 56, 0
2,39153, Note_on_c, 0, 64, 0
2,39222, Note_on_c, 0, 63, 61
2,39234, Note_on_c, 0, 57, 59
2,39285, Note_on_c, 0, 57, 0
2,39300, Note_on_c, 0, 63, 0
2,39374, Note_on_c, 0, 56, 67
2,39375, Note_on_c, 0, 64, 65
2,39419, Note_on_c, 0, 56, 0
2,39431, Note_on_c, 0, 64, 0
2,39507, Note_on_c, 0, 66, 68
2,39603, Note_on_c, 0, 66, 0
2,39656, Note_on_c, 0, 59, 78
2,39661, Note_on_c, 0, 52, 71
2,39661, Note_on_c, 0, 68, 74
2,39712, Note_on_c, 0, 52, 0
2,39742, Note_on_c, 0, 68, 0
2,39795, Note_on_c, 0, 64, 75
2,39816, Control_c, 0, 64, 9
2,39835, Control_c, 0, 64, 13
2,39854, Control_c, 0, 64, 18
2,39873, Control_c, 0, 64, 21
2,39886, Note_on_c, 0, 64, 0
2,39950, Control_c, 0, 64, 19
2,39962, Note_on_c, 0, 54, 82
2,39972, Note_on_c, 0, 61, 73
2,40007, Control_c, 0, 64, 18
2,40046, Control_c, 0, 64, 19
2,40055, Note_on_c, 0, 59, 0
2,40068, Note_on_c, 0, 61, 0
2,40084, Control_c, 0, 64, 20
2,40122, Note_on_c, 0, 68, 76
2,40142, Control_c, 0, 64, 17
2,40161, Control_c, 0, 64, 13
2,40270, Note_on_c, 0, 66, 67
2,40272, Note_on_c, 0, 57, 65
2,40306, Note_on_c, 0, 68, 0
2,40327, Note_on_c, 0, 57, 0
2,40352, Control_c, 0, 64, 11
2,40364, Note_on_c, 0, 66, 0
2,40385, Note_on_c, 0, 54, 0
2,40388, Note_on_c, 0, 64, 69
2,40392, Note_on_c, 0, 56, 65
2,40429, Control_c, 0, 64, 9
2,40467, Note_on_c, 0, 64, 0
2,40487, Note_on_c, 0, 56, 0
2,40529, Note_on_c, 0, 57, 63
2,40539, Note_on_c, 0, 63, 68
2,40595, Note_on_c, 0, 57, 0
2,40677, Note_on_c, 0, 47, 72
2,40677, Note_on_c, 0, 61, 68
2,40773, Note_on_c, 0, 47, 0
2,40816, Note_on_c, 0, 49, 81
2,40817, Note_on_c, 0, 59, 71
2,40871, Note_on_c, 0, 61, 0
2,40887, Note_on_c, 0, 63, 0
2,40902, Note_on_c, 0, 49, 0
2,40909, Control_c, 0, 64, 0
2,40915, Note_on_c, 0, 59, 0
2,40948, Note_on_c, 0, 51, 74
2,40948, Note_on_c, 0, 57, 71
2,41029, Note_on_c, 0, 51, 0
2,41038, Note_on_c, 0, 57, 0
2,41088, Note_on_c, 0, 52, 68
2,41093, Note_on_c, 0, 56, 75
2,41160, Note_on_c, 0, 52, 0
2,41172, Note_on_c, 0, 56, 0
2,41222, Note_on_c, 0, 59, 83
2,41231, Note_on_c, 0, 51, 69
2,41297, Note_on_c, 0, 59, 0
2,41309, Note_on_c, 0, 51, 0
2,41354, Note_on_c, 0, 52, 73
2,41360, Note_on_c, 0, 61, 80
2,41412, Note_on_c, 0, 52, 0
2,41448, Note_on_c, 0, 61, 0
2,41498, Note_on_c, 0, 63, 79
2,41500, Note_on_c, 0, 54, 73
2,41544, Note_on_c, 0, 64, 58
2,41548, Note_on_c, 0, 63, 0
2,41570, Note_on_c, 0, 64, 0
2,41583, Note_on_c, 0, 54, 0
2,41640, Note_on_c, 0, 56, 76
2,41648, Note_on_c, 0, 64, 80
2,41730, Note_on_c, 0, 64, 0
2,41734, Note_on_c, 0, 56, 0
2,41763, Note_on_c, 0, 57, 75
2,41769, Note_on_c, 0, 66, 80
2,41848, Note_on_c, 0, 57, 0
2,41892, Note_on_c, 0, 66, 0
2,41908, Note_on_c, 0, 59, 70
2,41909, Note_on_c, 0, 68, 85
2,41976, Note_on_c, 0, 59, 0
2,42000, Note_on_c, 0, 68, 0
2,42034, Note_on_c, 0, 64, 79
2,42044, Note_on_c, 0, 56, 71
2,42102, Note_on_c, 0, 56, 0
2,42122, Note_on_c, 0, 64, 0
2,42187, Note_on_c, 0, 73, 83
2,42197, Note_on_c, 0, 52, 68
2,42297, Note_on_c, 0, 52, 0
2,42327, Note_on_c, 0, 51, 69
2,42413, Note_on_c, 0, 51, 0
2,42461, Note_on_c, 0, 52, 76
2,42532, Note_on_c, 0, 52, 0
2,42599, Note_on_c, 0, 54, 75
2,42675, Note_on_c, 0, 54, 0
2,42727, Note_on_c, 0, 73, 0
2,42743, Note_on_c, 0, 52, 76
2,42815, Note_on_c, 0, 52, 0
2,42875, Note_on_c, 0, 51, 73
2,42879, Note_on_c, 0, 66, 83
2,42947, Note_on_c, 0, 51, 0
2,42954, Note_on_c, 0, 66, 0
2,43002, Note_on_c, 0, 52, 73
2,43016, Note_on_c, 0, 68, 82
2,43070, Note_on_c, 0, 52, 0
2,43106, Note_on_c, 0, 68, 0
2,43142, Note_on_c, 0, 54, 69
2,43143, Note_on_c, 0, 70, 78
2,43216, Note_on_c, 0, 70, 0
2,43221, Note_on_c, 0, 54, 0
2,43290, Note_on_c, 0, 71, 72
2,43292, Note_on_c, 0, 51, 65
2,43363, Note_on_c, 0, 51, 0
2,43372, Note_on_c, 0, 71, 0
2,43425, Note_on_c, 0, 70, 81
2,43509, Note_on_c, 0, 70, 0
2,43574, Note_on_c, 0, 71, 80
2,43579, Note_on_c, 0, 54, 76
2,43652, Note_on_c, 0, 71, 0
2,43654, Note_on_c, 0, 54, 0
2,43702, Note_on_c, 0, 73, 84
2,43799, Note_on_c, 0, 73, 0
2,43856, Note_on_c, 0, 47, 79
2,43861, Note_on_c, 0, 76, 79
2,43918, Note_on_c, 0, 76, 0
2,43919, Note_on_c, 0, 47, 0
2,43988, Note_on_c, 0, 76, 70
2,44088, Note_on_c, 0, 76, 0
2,44141, Note_on_c, 0, 64, 89
2,44147, Note_on_c, 0, 78, 82
2,44150, Note_on_c, 0, 52, 76
2,44245, Note_on_c, 0, 78, 0
2,44255, Note_on_c, 0, 64, 0
2,44281, Note_on_c, 0, 80, 75
2,44315, Note_on_c, 0, 80, 0
2,44448, Note_on_c, 0, 66, 84
2,44460, Note_on_c, 0, 69, 78
2,44496, Note_on_c, 0, 52, 0
2,44593, Note_on_c, 0, 69, 0
2,44595, Note_on_c, 0, 68, 79
2,44740, Note_on_c, 0, 69, 78
2,44743, Note_on_c, 0, 51, 73
2,44791, Note_on_c, 0, 68, 0
2,44870, Note_on_c, 0, 51, 0
2,44874, Note_on_c, 0, 71, 78
2,44876, Note_on_c, 0, 69, 0
2,44878, Note_on_c, 0, 49, 75
2,44935, Note_on_c, 0, 66, 0
2,44956, Note_on_c, 0, 71, 0
2,45016, Note_on_c, 0, 69, 77
2,45021, Note_on_c, 0, 51, 69
2,45072, Note_on_c, 0, 49, 0
2,45096, Note_on_c, 0, 69, 0
2,45106, Note_on_c, 0, 51, 0
2,45151, Note_on_c, 0, 68, 80
2,45153, Note_on_c, 0, 59, 69
2,45204, Note_on_c, 0, 59, 0
2,45231, Note_on_c, 0, 68, 0
2,45301, Note_on_c, 0, 59, 80
2,45301, Note_on_c, 0, 69, 90
2,45311, Note_on_c, 0, 61, 76
2,45378, Note_on_c, 0, 59, 0
2,45381, Note_on_c, 0, 69, 0
2,45439, Note_on_c, 0, 71, 77
2,45446, Note_on_c, 0, 63, 78
2,45454, Note_on_c, 0, 61, 0
2,45526, Note_on_c, 0, 63, 0
2,45542, Note_on_c, 0, 71, 0
2,45585, Note_on_c, 0, 61, 80
2,45591, Note_on_c, 0, 64, 85
2,45591, Note_on_c, 0, 68, 84
2,45661, Note_on_c, 0, 64, 0
2,45687, Note_on_c, 0, 68, 0
2,45727, Note_on_c, 0, 66, 77
2,45731, Note_on_c, 0, 63, 77
2,45831, Note_on_c, 0, 63, 0
2,45860, Note_on_c, 0, 64, 77
2,45871, Note_on_c, 0, 68, 79
2,45915, Note_on_c, 0, 66, 0
2,45931, Note_on_c, 0, 64, 0
2,45940, Note_on_c, 0, 68, 0
2,45990, Note_on_c, 0, 66, 71
2,45996, Note_on_c, 0, 69, 85
2,46059, Note_on_c, 0, 61, 0
2,46061, Note_on_c, 0, 66, 0
2,46075, Note_on_c, 0, 69, 0
2,46138, Note_on_c, 0, 71, 82
2,46149, Note_on_c, 0, 68, 68
2,46194, Note_on_c, 0, 68, 0
2,46264, Note_on_c, 0, 73, 81
2,46267, Note_on_c, 0, 69, 85
2,46268, Note_on_c, 0, 71, 0
2,46339, Note_on_c, 0, 69, 0
2,46359, Note_on_c, 0, 73, 0
2,46409, Note_on_c, 0, 56, 88
2,46417, Note_on_c, 0, 74, 80
2,46420, Note_on_c, 0, 71, 68
2,46466, Note_on_c, 0, 71, 0
2,46469, Note_on_c, 0, 56, 0
2,46560, Note_on_c, 0, 68, 78
2,46681, Note_on_c, 0, 74, 0
2,46697, Note_on_c, 0, 68, 0
2,46706, Note_on_c, 0, 57, 83
2,46720, Note_on_c, 0, 64, 78
2,46785, Note_on_c, 0, 57, 0
2,46849, Note_on_c, 0, 63, 80
2,46851, Note_on_c, 0, 64, 0
2,46942, Note_on_c, 0, 63, 0
2,46991, Note_on_c, 0, 73, 81
2,46995, Note_on_c, 0, 56, 78
2,46998, Note_on_c, 0, 64, 72
2,47056, Note_on_c, 0, 56, 0
2,47068, Note_on_c, 0, 64, 0
2,47130, Note_on_c, 0, 71, 75
2,47148, Note_on_c, 0, 66, 65
2,47167, Note_on_c, 0, 73, 0
2,47255, Note_on_c, 0, 71, 0
2,47259, Note_on_c, 0, 66, 0
2,47291, Note_on_c, 0, 57, 74
2,47296, Note_on_c, 0, 73, 81
2,47298, Note_on_c, 0, 64, 70
2,47393, Note_on_c, 0, 57, 0
2,47423, Note_on_c, 0, 64, 0
2,47434, Note_on_c, 0, 63, 75
2,47538, Note_on_c, 0, 63, 0
2,47580, Note_on_c, 0, 52, 78
2,47580, Note_on_c, 0, 64, 74
2,47637, Note_on_c, 0, 52, 0
2,47658, Note_on_c, 0, 64, 0
2,47723, Note_on_c, 0, 66, 76
2,47823, Note_on_c, 0, 66, 0
2,47874, Note_on_c, 0, 54, 82
2,47874, Note_on_c, 0, 63, 78
2,47942, Note_on_c, 0, 54, 0
2,47982, Note_on_c, 0, 63, 0
2,48014, Note_on_c, 0, 61, 76
2,48099, Note_on_c, 0, 61, 0
2,48155, Note_on_c, 0, 57, 82
2,48170, Note_on_c, 0, 63, 77
2,48223, Note_on_c, 0, 73, 0
2,48225, Note_on_c, 0, 57, 0
2,48286, Note_on_c, 0, 63, 0
2,48303, Note_on_c, 0, 64, 78
2,48401, Note_on_c, 0, 64, 0
2,48462, Note_on_c, 0, 56, 74
2,48463, Note_on_c, 0, 66, 69
2,48465, Note_on_c, 0, 71, 76
2,48511, Note_on_c, 0, 56, 0
2,48547, Note_on_c, 0, 66, 0
2,48605, Note_on_c, 0, 68, 68
2,48694, Note_on_c, 0, 68, 0
2,48753, Note_on_c, 0, 69, 71
2,48758, Note_on_c, 0, 54, 65
2,48807, Note_on_c, 0, 54, 0
2,48882, Note_on_c, 0, 69, 0
2,48896, Note_on_c, 0, 66, 67
2,48978, Note_on_c, 0, 71, 0
2,48989, Note_on_c, 0, 66, 0
2,49036, Note_on_c, 0, 52, 67
2,49047, Note_on_c, 0, 62, 63
2,49087, Note_on_c, 0, 52, 0
2,49131, Note_on_c, 0, 62, 0
2,49188, Note_on_c, 0, 61, 70
2,49289, Note_on_c, 0, 61, 0
2,49330, Note_on_c, 0, 62, 69
2,49337, Note_on_c, 0, 54, 69
2,49393, Note_on_c, 0, 54, 0
2,49403, Note_on_c, 0, 62, 0
2,49471, Note_on_c, 0, 64, 72
2,49576, Note_on_c, 0, 64, 0
2,49632, Note_on_c, 0, 71, 80
2,49635, Note_on_c, 0, 56, 74
2,49651, Note_on_c, 0, 62, 64
2,49704, Note_on_c, 0, 62, 0
2,49728, Note_on_c, 0, 56, 0
2,49779, Note_on_c, 0, 61, 74
2,49857, Note_on_c, 0, 61, 0
2,49934, Note_on_c, 0, 62, 68
2,49936, Note_on_c, 0, 52, 68
2,49982, Note_on_c, 0, 62, 0
2,49992, Note_on_c, 0, 52, 0
2,50073, Note_on_c, 0, 64, 69
2,50175, Note_on_c, 0, 64, 0
2,50225, Note_on_c, 0, 57, 75
2,50232, Note_on_c, 0, 61, 74
2,50276, Note_on_c, 0, 71, 0
2,50279, Note_on_c, 0, 57, 0
2,50334, Note_on_c, 0, 61, 0
2,50367, Note_on_c, 0, 59, 78
2,50449, Note_on_c, 0, 59, 0
2,50515, Note_on_c, 0, 61, 73
2,50517, Note_on_c, 0, 59, 66
2,50569, Note_on_c, 0, 59, 0
2,50593, Note_on_c, 0, 61, 0
2,50657, Note_on_c, 0, 62, 75
2,50711, Note_on_c, 0, 62, 0
2,50810, Note_on_c, 0, 61, 65
2,50812, Note_on_c, 0, 69, 75
2,50836, Note_on_c, 0, 64, 57
2,50888, Note_on_c, 0, 64, 0
2,50892, Note_on_c, 0, 61, 0
2,50944, Note_on_c, 0, 66, 64
2,51018, Note_on_c, 0, 66, 0
2,51033, Note_on_c, 0, 69, 0
2,51084, Note_on_c, 0, 59, 68
2,51105, Note_on_c, 0, 68, 67
2,51108, Note_on_c, 0, 69, 25
2,51132, Note_on_c, 0, 59, 0
2,51201, Note_on_c, 0, 68, 0
2,51237, Note_on_c, 0, 64, 65
2,51282, Note_on_c, 0, 64, 0
2,51379, Note_on_c, 0, 57, 65
2,51389, Note_on_c, 0, 61, 64
2,51402, Note_on_c, 0, 69, 0
2,51451, Note_on_c, 0, 57, 0
2,51479, Note_on_c, 0, 61, 0
2,51515, Note_on_c, 0, 59, 73
2,51597, Note_on_c, 0, 59, 0
2,51657, Note_on_c, 0, 52, 74
2,51667, Note_on_c, 0, 61, 70
2,51706, Note_on_c, 0, 52, 0
2,51788, Note_on_c, 0, 61, 0
2,51802, Note_on_c, 0, 62, 69
2,51897, Note_on_c, 0, 62, 0
2,51947, Note_on_c, 0, 54, 75
2,51953, Note_on_c, 0, 69, 70
2,51961, Note_on_c, 0, 61, 59
2,52019, Note_on_c, 0, 61, 0
2,52035, Note_on_c, 0, 54, 0
2,52092, Note_on_c, 0, 59, 71
2,52159, Note_on_c, 0, 59, 0
2,52247, Note_on_c, 0, 49, 76
2,52247, Note_on_c, 0, 61, 70
2,52299, Note_on_c, 0, 61, 0
2,52321, Note_on_c, 0, 49, 0
2,52387, Note_on_c, 0, 62, 63
2,52485, Note_on_c, 0, 62, 0
2,52538, Note_on_c, 0, 69, 0
2,52541, Note_on_c, 0, 51, 63
2,52541, Note_on_c, 0, 59, 71
2,52607, Note_on_c, 0, 51, 0
2,52623, Note_on_c, 0, 59, 0
2,52673, Note_on_c, 0, 57, 67
2,52752, Note_on_c, 0, 57, 0
2,52820, Note_on_c, 0, 59, 72
2,52822, Note_on_c, 0, 47, 64
2,52857, Note_on_c, 0, 47, 0
2,52878, Note_on_c, 0, 59, 0
2,52960, Note_on_c, 0, 61, 70
2,53003, Note_on_c, 0, 61, 0
2,53112, Note_on_c, 0, 52, 62
2,53112, Note_on_c, 0, 68, 85
2,53121, Note_on_c, 0, 59, 63
2,53177, Note_on_c, 0, 68, 0
2,53187, Note_on_c, 0, 59, 0
2,53250, Note_on_c, 0, 57, 67
2,53393, Note_on_c, 0, 57, 0
2,53401, Note_on_c, 0, 76, 88
2,53404, Note_on_c, 0, 59, 69
2,53465, Note_on_c, 0, 76, 0
2,53507, Note_on_c, 0, 59, 0
2,53555, Note_on_c, 0, 61, 66
2,53713, Note_on_c, 0, 61, 0
2,53718, Note_on_c, 0, 78, 89
2,53725, Note_on_c, 0, 57, 66
2,53850, Note_on_c, 0, 57, 0
2,53863, Note_on_c, 0, 56, 65
2,53969, Note_on_c, 0, 56, 0
2,54010, Note_on_c, 0, 57, 70
2,54058, Note_on_c, 0, 52, 0
2,54104, Note_on_c, 0, 57, 0
2,54149, Note_on_c, 0, 59, 70
2,54267, Note_on_c, 0, 59, 0
2,54274, Control_c, 0, 64, 9
2,54292, Note_on_c, 0, 78, 0
2,54320, Note_on_c, 0, 51, 68
2,54330, Note_on_c, 0, 57, 65
2,54390, Control_c, 0, 64, 0
2,54392, Note_on_c, 0, 57, 0
2,54450, Note_on_c, 0, 71, 79
2,54468, Note_on_c, 0, 56, 67
2,54516, Note_on_c, 0, 71, 0
2,54557, Note_on_c, 0, 56, 0
2,54590, Note_on_c, 0, 73, 80
2,54594, Note_on_c, 0, 57, 62
2,54656, Note_on_c, 0, 57, 0
2,54664, Note_on_c, 0, 73, 0
2,54722, Note_on_c, 0, 75, 82
2,54728, Note_on_c, 0, 59, 63
2,54795, Note_on_c, 0, 59, 0
2,54796, Note_on_c, 0, 75, 0
2,54880, Note_on_c, 0, 56, 69
2,54881, Note_on_c, 0, 76, 74
2,54967, Note_on_c, 0, 76, 0
2,54978, Note_on_c, 0, 56, 0
2,55024, Note_on_c, 0, 75, 84
2,55095, Note_on_c, 0, 75, 0
2,55156, Note_on_c, 0, 59, 77
2,55169, Note_on_c, 0, 76, 85
2,55201, Note_on_c, 0, 59, 0
2,55219, Note_on_c, 0, 51, 0
2,55241, Note_on_c, 0, 76, 0
2,55302, Note_on_c, 0, 78, 87
2,55387, Note_on_c, 0, 78, 0
2,55447, Note_on_c, 0, 52, 74
2,55448, Note_on_c, 0, 80, 90
2,55456, Note_on_c, 0, 49, 72
2,55526, Note_on_c, 0, 80, 0
2,55558, Note_on_c, 0, 52, 0
2,55589, Note_on_c, 0, 81, 87
2,55661, Note_on_c, 0, 81, 0
2,55742, Note_on_c, 0, 83, 83
2,55756, Note_on_c, 0, 56, 69
2,55826, Note_on_c, 0, 49, 0
2,55835, Note_on_c, 0, 83, 0
2,55879, Note_on_c, 0, 80, 87
2,55965, Note_on_c, 0, 80, 0
2,56035, Note_on_c, 0, 81, 84
2,56037, Note_on_c, 0, 42, 75
2,56085, Note_on_c, 0, 56, 0
2,56109, Note_on_c, 0, 81, 0
2,56175, Note_on_c, 0, 80, 87
2,56255, Note_on_c, 0, 80, 0
2,56318, Note_on_c, 0, 54, 77
2,56321, Note_on_c, 0, 81, 87
2,56327, Note_on_c, 0, 42, 0
2,56390, Note_on_c, 0, 81, 0
2,56457, Note_on_c, 0, 83, 85
2,56469, Note_on_c, 0, 49, 78
2,56539, Note_on_c, 0, 83, 0
2,56580, Note_on_c, 0, 49, 0
2,56601, Note_on_c, 0, 81, 85
2,56609, Note_on_c, 0, 51, 70
2,56680, Note_on_c, 0, 81, 0
2,56706, Note_on_c, 0, 51, 0
2,56742, Note_on_c, 0, 80, 88
2,56829, Note_on_c, 0, 80, 0
2,56898, Note_on_c, 0, 81, 84
2,56900, Note_on_c, 0, 47, 71
2,56971, Note_on_c, 0, 81, 0
2,57001, Note_on_c, 0, 47, 0
2,57035, Note_on_c, 0, 83, 80
2,57133, Note_on_c, 0, 83, 0
2,57192, Note_on_c, 0, 80, 86
2,57202, Note_on_c, 0, 52, 74
2,57270, Note_on_c, 0, 80, 0
2,57296, Note_on_c, 0, 52, 0
2,57330, Note_on_c, 0, 78, 85
2,57423, Note_on_c, 0, 78, 0
2,57478, Note_on_c, 0, 47, 78
2,57480, Note_on_c, 0, 80, 89
2,57514, Note_on_c, 0, 54, 0
2,57560, Note_on_c, 0, 80, 0
2,57570, Note_on_c, 0, 47, 0
2,57621, Note_on_c, 0, 81, 86
2,57713, Note_on_c, 0, 81, 0
2,57770, Note_on_c, 0, 52, 86
2,57775, Note_on_c, 0, 49, 85
2,57776, Note_on_c, 0, 80, 88
2,57855, Note_on_c, 0, 49, 0
2,57871, Note_on_c, 0, 80, 0
2,57919, Note_on_c, 0, 78, 84
2,58026, Note_on_c, 0, 78, 0
2,58064, Note_on_c, 0, 44, 83
2,58068, Note_on_c, 0, 76, 82
2,58141, Note_on_c, 0, 76, 0
2,58162, Note_on_c, 0, 52, 0
2,58181, Note_on_c, 0, 44, 0
2,58199, Note_on_c, 0, 75, 83
2,58319, Note_on_c, 0, 75, 0
2,58364, Note_on_c, 0, 52, 83
2,58365, Note_on_c, 0, 45, 90
2,58371, Note_on_c, 0, 73, 81
2,58473, Note_on_c, 0, 73, 0
2,58517, Note_on_c, 0, 71, 74
2,58608, Note_on_c, 0, 71, 0
2,58662, Note_on_c, 0, 64, 87
2,58680, Note_on_c, 0, 73, 77
2,58692, Note_on_c, 0, 52, 0
2,58729, Note_on_c, 0, 45, 0
2,58733, Note_on_c, 0, 64, 0
2,58796, Note_on_c, 0, 40, 81
2,58806, Note_on_c, 0, 74, 80
2,58836, Note_on_c, 0, 73, 0
2,58908, Note_on_c, 0, 74, 0
2,58928, Note_on_c, 0, 40, 0
2,58952, Note_on_c, 0, 69, 92
2,58960, Note_on_c, 0, 73, 86
2,58962, Note_on_c, 0, 42, 86
2,59044, Note_on_c, 0, 42, 0
2,59074, Note_on_c, 0, 73, 0
2,59096, Note_on_c, 0, 71, 78
2,59219, Note_on_c, 0, 69, 0
2,59250, Note_on_c, 0, 37, 84
2,59262, Note_on_c, 0, 73, 81
2,59282, Note_on_c, 0, 71, 0
2,59345, Note_on_c, 0, 37, 0
2,59391, Note_on_c, 0, 74, 78
2,59392, Note_on_c, 0, 69, 28
2,59400, Note_on_c, 0, 73, 0
2,59477, Note_on_c, 0, 69, 0
2,59531, Note_on_c, 0, 74, 0
2,59553, Note_on_c, 0, 71, 85
2,59556, Note_on_c, 0, 39, 85
2,59606, Note_on_c, 0, 39, 0
2,59693, Note_on_c, 0, 73, 85
2,59719, Note_on_c, 0, 71, 0
2,59810, Note_on_c, 0, 73, 0
2,59860, Note_on_c, 0, 75, 86
2,59862, Note_on_c, 0, 59, 91
2,59916, Note_on_c, 0, 59, 0
2,59966, Note_on_c, 0, 75, 0
2,60005, Note_on_c, 0, 71, 87
2,60130, Note_on_c, 0, 71, 0
2,60177, Note_on_c, 0, 61, 85
2,60182, Note_on_c, 0, 76, 87
2,60190, Note_on_c, 0, 68, 79
2,60284, Note_on_c, 0, 68, 0
2,60341, Note_on_c, 0, 64, 77
2,60492, Note_on_c, 0, 66, 79
2,60493, Note_on_c, 0, 64, 0
2,60532, Control_c, 0, 64, 11
2,60552, Control_c, 0, 64, 15
2,60588, Note_on_c, 0, 66, 0
2,60628, Control_c, 0, 64, 17
2,60638, Note_on_c, 0, 68, 86
2,60647, Control_c, 0, 64, 19
2,60667, Control_c, 0, 64, 21
2,60686, Control_c, 0, 64, 22
2,60705, Control_c, 0, 64, 23
2,60744, Control_c, 0, 64, 24
2,60744, Note_on_c, 0, 68, 0
2,60748, Note_on_c, 0, 61, 0
2,60782, Control_c, 0, 64, 25
2,60794, Note_on_c, 0, 69, 92
2,60821, Control_c, 0, 64, 26
2,60899, Note_on_c, 0, 69, 0
2,60916, Control_c, 0, 64, 25
2,60936, Control_c, 0, 64, 24
2,60949, Note_on_c, 0, 71, 87
2,60954, Note_on_c, 0, 54, 79
2,60955, Control_c, 0, 64, 23
2,60993, Control_c, 0, 64, 22
2,61005, Note_on_c, 0, 76, 0
2,61012, Control_c, 0, 64, 20
2,61032, Control_c, 0, 64, 18
2,61050, Control_c, 0, 64, 17
2,61065, Note_on_c, 0, 54, 0
2,61070, Control_c, 0, 64, 13
2,61073, Note_on_c, 0, 71, 0
2,61089, Control_c, 0, 64, 9
2,61108, Control_c, 0, 64, 0
2,61117, Note_on_c, 0, 56, 85
2,61119, Note_on_c, 0, 73, 92
2,61246, Note_on_c, 0, 56, 0
2,61290, Note_on_c, 0, 57, 84
2,61454, Note_on_c, 0, 73, 0
2,61469, Note_on_c, 0, 57, 0
2,61511, Note_on_c, 0, 75, 92
2,61512, Note_on_c, 0, 59, 86
2,61645, Note_on_c, 0, 59, 0
2,61725, Note_on_c, 0, 73, 82
2,61890, Note_on_c, 0, 73, 0
2,61979, Note_on_c, 0, 47, 80
2,61985, Note_on_c, 0, 71, 81
2,62155, Note_on_c, 0, 71, 0
2,62243, Note_on_c, 0, 47, 0
2,62260, Note_on_c, 0, 69, 86
2,62356, Control_c, 0, 64, 9
2,62376, Control_c, 0, 64, 15
2,62395, Control_c, 0, 64, 20
2,62413, Control_c, 0, 64, 26
2,62433, Control_c, 0, 64, 29
2,62452, Control_c, 0, 64, 33
2,62463, Note_on_c, 0, 69, 0
2,62472, Control_c, 0, 64, 37
2,62490, Control_c, 0, 64, 41
2,62510, Control_c, 0, 64, 44
2,62529, Control_c, 0, 64, 47
2,62548, Control_c, 0, 64, 51
2,62567, Control_c, 0, 64, 53
2,62587, Control_c, 0, 64, 54
2,62609, Control_c, 0, 64, 55
2,62628, Control_c, 0, 64, 56
2,62647, Control_c, 0, 64, 57
2,62685, Control_c, 0, 64, 57
2,62690, Note_on_c, 0, 40, 76
2,62692, Note_on_c, 0, 76, 84
2,62696, Note_on_c, 0, 68, 84
2,62704, Control_c, 0, 64, 56
2,62724, Control_c, 0, 64, 53
2,62724, Note_on_c, 0, 75, 0
2,62743, Control_c, 0, 64, 48
2,62762, Control_c, 0, 64, 44
2,62781, Control_c, 0, 64, 41
2,62801, Control_c, 0, 64, 39
2,62820, Control_c, 0, 64, 36
2,62839, Control_c, 0, 64, 35
2,62896, Control_c, 0, 64, 36
2,62916, Control_c, 0, 64, 37
2,63070, Control_c, 0, 64, 38
2,63089, Control_c, 0, 64, 40
2,63108, Control_c, 0, 64, 41
2,63127, Control_c, 0, 64, 43
2,63147, Control_c, 0, 64, 44
2,63165, Control_c, 0, 64, 44
2,63184, Control_c, 0, 64, 45
2,63204, Control_c, 0, 64, 45
2,63223, Control_c, 0, 64, 46
2,63242, Control_c, 0, 64, 46
2,63261, Control_c, 0, 64, 47
2,63376, Control_c, 0, 64, 47
2,63607, Control_c, 0, 64, 47
2,63915, Control_c, 0, 64, 47
2,63972, Control_c, 0, 64, 48
2,64087, Control_c, 0, 64, 48
2,64125, Control_c, 0, 64, 49
2,64164, Control_c, 0, 64, 49
2,64183, Control_c, 0, 64, 50
2,64202, Control_c, 0, 64, 50
2,64221, Control_c, 0, 64, 51
2,64241, Control_c, 0, 64, 51
2,64260, Control_c, 0, 64, 52
2,64279, Control_c, 0, 64, 53
2,64298, Control_c, 0, 64, 54
2,64318, Control_c, 0, 64, 55
2,64336, Control_c, 0, 64, 55
2,64354, Control_c, 0, 64, 56
2,64373, Control_c, 0, 64, 57
2,64393, Control_c, 0, 64, 58
2,64411, Control_c, 0, 64, 59
2,64432, Control_c, 0, 64, 60
2,64451, Control_c, 0, 64, 61
2,64470, Control_c, 0, 64, 61
2,64489, Control_c, 0, 64, 62
2,64509, Control_c, 0, 64, 63
2,64528, Control_c, 0, 64, 64
2,64546, Control_c, 0, 64, 65
2,64566, Control_c, 0, 64, 66
2,64585, Control_c, 0, 64, 66
2,64605, Control_c, 0, 64, 67
2,64623, Control_c, 0, 64, 69
2,64643, Control_c, 0, 64, 71
2,64662, Control_c, 0, 64, 73
2,64681, Control_c, 0, 64, 75
2,64700, Control_c, 0, 64, 76
2,64720, Control_c, 0, 64, 78
2,64739, Control_c, 0, 64, 80
2,64758, Control_c, 0, 64, 83
2,64777, Control_c, 0, 64, 85
2,64797, Control_c, 0, 64, 88
2,64815, Control_c, 0, 64, 89
2,64835, Control_c, 0, 64, 91
2,64854, Control_c, 0, 64, 93
2,64874, Control_c, 0, 64, 95
2,64892, Control_c, 0, 64, 97
2,64912, Control_c, 0, 64, 103
2,64931, Control_c, 0, 64, 114
2,64950, Control_c, 0, 64, 127
2,65320, Note_on_c, 0, 40, 0
2,65320, Note_on_c, 0, 76, 0
2,65334, Control_c, 0, 64, 100
2,65340, Note_on_c, 0, 68, 0
2,65354, Control_c, 0, 64, 89
2,65372, Control_c, 0, 64, 79
2,65392, Control_c, 0, 64, 71
2,65411, Control_c, 0, 64, 66
2,65430, Control_c, 0, 64, 64
2,65449, Control_c, 0, 64, 63
2,65469, Control_c, 0, 64, 62
2,65488, Control_c, 0, 64, 60
2,65506, Control_c, 0, 64, 57
2,65526, Control_c, 0, 64, 53
2,65545, Control_c, 0, 64, 49
2,65565, Control_c, 0, 64, 42
2,65583, Control_c, 0, 64, 27
2,65603, Control_c, 0, 64, 0
2,65604, End_track
0, 0, End_of_file
