0, 0, Header, 1, 2, 480
1, 0, Start_track
1, 0, Tempo, 500000
1, 0, Time_signature, 4, 2, 24, 8
1, 1, End_track
2, 0, Start_track
2, 0, Program_c, 0, 0
2, 0, Control_c, 0, 64, 0
2, 0, Control_c, 0, 67, 0
2, 957, Note_on_c, 0, 52, 38
2, 999, Note_on_c, 0, 64, 47
2, 1334, Note_on_c, 0, 68, 63
2, 1520, Note_on_c, 0, 64, 0
2, 1585, Note_on_c, 0, 71, 69
2, 1652, Note_on_c, 0, 68, 0
2, 1866, Note_on_c, 0, 76, 77
2, 1870, Note_on_c, 0, 71, 0
2, 1872, Note_on_c, 0, 56, 42
2, 2134, Note_on_c, 0, 75, 73
2, 2168, Note_on_c, 0, 76, 0
2, 2397, Note_on_c, 0, 76, 79
2, 2423, Note_on_c, 0, 75, 0
2, 2685, Note_on_c, 0, 57, 40
2, 2714, Note_on_c, 0, 76, 0
2, 2729, Note_on_c, 0, 75, 62
2, 2794, Note_on_c, 0, 75, 0
2, 2805, Note_on_c, 0, 56, 0
2, 2820, Note_on_c, 0, 73, 67
2, 2869, Note_on_c, 0, 73, 0
2, 2882, Note_on_c, 0, 75, 71
2, 2947, Note_on_c, 0, 73, 69
2, 2960, Note_on_c, 0, 75, 0
2, 3035, Note_on_c, 0, 71, 68
2, 3042, Note_on_c, 0, 73, 0
2, 3291, Note_on_c, 0, 73, 74
2, 3360, Note_on_c, 0, 71, 0
2, 3588, Note_on_c, 0, 76, 62
2, 3660, Note_on_c, 0, 73, 0
2, 3862, Control_c, 0, 67, 17
2, 3864, Note_on_c, 0, 56, 45
2, 3878, Control_c, 0, 67, 33
2, 3898, Control_c, 0, 67, 47
2, 3921, Control_c, 0, 67, 63
2, 3938, Control_c, 0, 67, 81
2, 3958, Control_c, 0, 67, 102
2, 3974, Control_c, 0, 67, 125
2, 3983, Note_on_c, 0, 57, 0
2, 3996, Control_c, 0, 67, 127
2, 4139, Note_on_c, 0, 54, 48
2, 4154, Note_on_c, 0, 56, 0
2, 4486, Note_on_c, 0, 56, 42
2, 4486, Note_on_c, 0, 76, 0
2, 4500, Note_on_c, 0, 73, 53
2, 4547, Note_on_c, 0, 73, 0
2, 4568, Note_on_c, 0, 54, 0
2, 4569, Note_on_c, 0, 71, 62
2, 4616, Note_on_c, 0, 71, 0
2, 4641, Note_on_c, 0, 73, 68
2, 4688, Note_on_c, 0, 73, 0
2, 4715, Note_on_c, 0, 71, 63
2, 4776, Note_on_c, 0, 71, 0
2, 4786, Note_on_c, 0, 69, 41
2, 5066, Note_on_c, 0, 71, 54
2, 5179, Note_on_c, 0, 69, 0
2, 5329, Note_on_c, 0, 76, 57
2, 5422, Note_on_c, 0, 71, 0
2, 5621, Note_on_c, 0, 57, 46
2, 5646, Note_on_c, 0, 56, 0
2, 5861, Note_on_c, 0, 56, 47
2, 6035, Note_on_c, 0, 57, 0
2, 6130, Note_on_c, 0, 69, 49
2, 6134, Note_on_c, 0, 54, 42
2, 6191, Note_on_c, 0, 56, 0
2, 6194, Note_on_c, 0, 76, 0
2, 6238, Control_c, 0, 67, 122
2, 6260, Control_c, 0, 67, 118
2, 6276, Control_c, 0, 67, 115
2, 6294, Control_c, 0, 67, 112
2, 6314, Control_c, 0, 67, 108
2, 6334, Control_c, 0, 67, 105
2, 6353, Control_c, 0, 67, 102
2, 6372, Control_c, 0, 67, 98
2, 6392, Control_c, 0, 67, 94
2, 6411, Control_c, 0, 67, 91
2, 6411, Note_on_c, 0, 71, 60
2, 6431, Control_c, 0, 67, 89
2, 6451, Control_c, 0, 67, 85
2, 6469, Control_c, 0, 67, 80
2, 6486, Control_c, 0, 67, 76
2, 6500, Note_on_c, 0, 69, 0
2, 6507, Control_c, 0, 67, 71
2, 6527, Control_c, 0, 67, 65
2, 6546, Control_c, 0, 67, 60
2, 6564, Control_c, 0, 67, 56
2, 6583, Control_c, 0, 67, 51
2, 6605, Control_c, 0, 67, 47
2, 6621, Control_c, 0, 67, 42
2, 6641, Control_c, 0, 67, 37
2, 6659, Control_c, 0, 67, 32
2, 6669, Note_on_c, 0, 73, 65
2, 6679, Control_c, 0, 67, 27
2, 6698, Control_c, 0, 67, 22
2, 6717, Control_c, 0, 67, 19
2, 6737, Control_c, 0, 67, 15
2, 6755, Control_c, 0, 67, 12
2, 6775, Control_c, 0, 67, 9
2, 6795, Control_c, 0, 67, 0
2, 6802, Note_on_c, 0, 71, 0
2, 6941, Note_on_c, 0, 51, 42
2, 6944, Note_on_c, 0, 71, 54
2, 6963, Note_on_c, 0, 73, 0
2, 7125, Note_on_c, 0, 52, 0
2, 7160, Note_on_c, 0, 54, 0
2, 7214, Note_on_c, 0, 73, 66
2, 7411, Note_on_c, 0, 71, 0
2, 7465, Note_on_c, 0, 73, 0
2, 7481, Note_on_c, 0, 69, 52
2, 7737, Note_on_c, 0, 51, 0
2, 7748, Note_on_c, 0, 68, 57
2, 7759, Note_on_c, 0, 52, 52
2, 7768, Note_on_c, 0, 69, 0
2, 8006, Note_on_c, 0, 68, 0
2, 8012, Note_on_c, 0, 71, 72
2, 8038, Note_on_c, 0, 56, 50
2, 8290, Note_on_c, 0, 76, 82
2, 8294, Note_on_c, 0, 59, 61
2, 8352, Note_on_c, 0, 71, 0
2, 8412, Note_on_c, 0, 56, 0
2, 8492, Note_on_c, 0, 52, 0
2, 8610, Note_on_c, 0, 80, 78
2, 8653, Note_on_c, 0, 64, 46
2, 8689, Note_on_c, 0, 59, 0
2, 8749, Note_on_c, 0, 76, 0
2, 8928, Note_on_c, 0, 63, 54
2, 9005, Note_on_c, 0, 64, 0
2, 9183, Note_on_c, 0, 64, 61
2, 9255, Note_on_c, 0, 63, 0
2, 9440, Note_on_c, 0, 58, 60
2, 9509, Note_on_c, 0, 64, 0
2, 9703, Note_on_c, 0, 78, 72
2, 9916, Note_on_c, 0, 80, 0
2, 9940, Note_on_c, 0, 61, 44
2, 9947, Note_on_c, 0, 76, 69
2, 9983, Note_on_c, 0, 78, 0
2, 10039, Note_on_c, 0, 61, 0
2, 10218, Note_on_c, 0, 66, 45
2, 10227, Note_on_c, 0, 75, 60
2, 10248, Note_on_c, 0, 76, 0
2, 10511, Note_on_c, 0, 75, 0
2, 10513, Note_on_c, 0, 76, 63
2, 10558, Control_c, 0, 64, 37
2, 10578, Control_c, 0, 64, 54
2, 10596, Control_c, 0, 64, 63
2, 10615, Control_c, 0, 64, 67
2, 10621, Note_on_c, 0, 66, 0
2, 10635, Control_c, 0, 64, 77
2, 10653, Control_c, 0, 64, 97
2, 10668, Note_on_c, 0, 58, 0
2, 10672, Control_c, 0, 64, 127
2, 10771, Note_on_c, 0, 73, 56
2, 10864, Note_on_c, 0, 73, 0
2, 11031, Note_on_c, 0, 47, 42
2, 11094, Control_c, 0, 64, 115
2, 11103, Note_on_c, 0, 73, 50
2, 11109, Note_on_c, 0, 76, 0
2, 11114, Control_c, 0, 64, 95
2, 11136, Control_c, 0, 64, 82
2, 11153, Control_c, 0, 64, 73
2, 11173, Control_c, 0, 64, 66
2, 11195, Control_c, 0, 64, 63
2, 11211, Control_c, 0, 64, 62
2, 11229, Control_c, 0, 64, 61
2, 11263, Note_on_c, 0, 73, 0
2, 11263, Note_on_c, 0, 75, 52
2, 11268, Control_c, 0, 64, 60
2, 11290, Control_c, 0, 64, 59
2, 11305, Control_c, 0, 64, 58
2, 11328, Control_c, 0, 64, 57
2, 11348, Control_c, 0, 64, 56
2, 11365, Control_c, 0, 64, 55
2, 11365, Note_on_c, 0, 51, 43
2, 11382, Note_on_c, 0, 75, 0
2, 11386, Control_c, 0, 64, 54
2, 11401, Control_c, 0, 64, 53
2, 11406, Note_on_c, 0, 76, 56
2, 11424, Control_c, 0, 64, 52
2, 11459, Control_c, 0, 64, 51
2, 11480, Control_c, 0, 64, 50
2, 11498, Control_c, 0, 64, 49
2, 11519, Control_c, 0, 64, 48
2, 11523, Note_on_c, 0, 76, 0
2, 11530, Note_on_c, 0, 75, 62
2, 11536, Control_c, 0, 64, 47
2, 11556, Control_c, 0, 64, 46
2, 11595, Control_c, 0, 64, 45
2, 11613, Control_c, 0, 64, 44
2, 11618, Note_on_c, 0, 75, 0
2, 11627, Note_on_c, 0, 54, 48
2, 11635, Control_c, 0, 64, 43
2, 11649, Note_on_c, 0, 76, 65
2, 11653, Control_c, 0, 64, 42
2, 11671, Control_c, 0, 64, 41
2, 11694, Note_on_c, 0, 47, 0
2, 11714, Control_c, 0, 64, 40
2, 11714, Note_on_c, 0, 76, 0
2, 11750, Control_c, 0, 64, 39
2, 11750, Note_on_c, 0, 75, 59
2, 11755, Note_on_c, 0, 51, 0
2, 11787, Control_c, 0, 64, 38
2, 11802, Note_on_c, 0, 75, 0
2, 11825, Note_on_c, 0, 76, 71
2, 11844, Control_c, 0, 64, 37
2, 11886, Note_on_c, 0, 76, 0
2, 11902, Control_c, 0, 64, 36
2, 11911, Note_on_c, 0, 75, 66
2, 11938, Note_on_c, 0, 59, 49
2, 11942, Control_c, 0, 64, 35
2, 11951, Note_on_c, 0, 54, 0
2, 11965, Note_on_c, 0, 75, 0
2, 11993, Note_on_c, 0, 76, 69
2, 11999, Control_c, 0, 64, 34
2, 12044, Note_on_c, 0, 76, 0
2, 12072, Note_on_c, 0, 75, 59
2, 12122, Note_on_c, 0, 75, 0
2, 12148, Note_on_c, 0, 76, 68
2, 12185, Note_on_c, 0, 76, 0
2, 12188, Note_on_c, 0, 58, 48
2, 12224, Note_on_c, 0, 75, 59
2, 12244, Note_on_c, 0, 59, 0
2, 12270, Control_c, 0, 64, 33
2, 12274, Note_on_c, 0, 76, 66
2, 12305, Note_on_c, 0, 76, 0
2, 12318, Note_on_c, 0, 75, 0
2, 12318, Note_on_c, 0, 75, 48
2, 12358, Note_on_c, 0, 75, 0
2, 12378, Note_on_c, 0, 58, 0
2, 12387, Note_on_c, 0, 59, 46
2, 12387, Note_on_c, 0, 76, 63
2, 12423, Note_on_c, 0, 76, 0
2, 12458, Note_on_c, 0, 75, 63
2, 12518, Control_c, 0, 64, 32
2, 12573, Control_c, 0, 64, 31
2, 12630, Control_c, 0, 64, 30
2, 12650, Control_c, 0, 64, 29
2, 12687, Control_c, 0, 64, 28
2, 12728, Control_c, 0, 64, 27
2, 12730, Note_on_c, 0, 52, 39
2, 12747, Control_c, 0, 64, 26
2, 12785, Control_c, 0, 64, 25
2, 12823, Control_c, 0, 64, 24
2, 12869, Note_on_c, 0, 59, 0
2, 12881, Control_c, 0, 64, 23
2, 12919, Control_c, 0, 64, 22
2, 12976, Control_c, 0, 64, 21
2, 13018, Control_c, 0, 64, 20
2, 13029, Note_on_c, 0, 76, 53
2, 13177, Note_on_c, 0, 75, 0
2, 13246, Control_c, 0, 64, 19
2, 13265, Note_on_c, 0, 59, 42
2, 13279, Note_on_c, 0, 78, 55
2, 13417, Note_on_c, 0, 59, 0
2, 13548, Note_on_c, 0, 64, 43
2, 13548, Note_on_c, 0, 80, 59
2, 13553, Note_on_c, 0, 76, 0
2, 13592, Control_c, 0, 64, 18
2, 13600, Note_on_c, 0, 78, 0
2, 13833, Note_on_c, 0, 73, 61
2, 13853, Note_on_c, 0, 80, 0
2, 13957, Control_c, 0, 64, 17
2, 13979, Control_c, 0, 64, 16
2, 14012, Control_c, 0, 64, 15
2, 14051, Control_c, 0, 64, 13
2, 14091, Control_c, 0, 64, 11
2, 14095, Note_on_c, 0, 76, 64
2, 14131, Control_c, 0, 64, 9
2, 14148, Control_c, 0, 64, 0
2, 14190, Note_on_c, 0, 73, 0
2, 14360, Note_on_c, 0, 54, 38
2, 14395, Note_on_c, 0, 66, 46
2, 14400, Note_on_c, 0, 76, 0
2, 14467, Note_on_c, 0, 52, 0
2, 14676, Note_on_c, 0, 70, 59
2, 14935, Note_on_c, 0, 73, 70
2, 14945, Note_on_c, 0, 66, 0
2, 15191, Note_on_c, 0, 63, 43
2, 15203, Note_on_c, 0, 78, 69
2, 15247, Note_on_c, 0, 73, 0
2, 15293, Note_on_c, 0, 70, 0
2, 15372, Note_on_c, 0, 64, 0
2, 15467, Note_on_c, 0, 76, 73
2, 15514, Note_on_c, 0, 78, 0
2, 15728, Note_on_c, 0, 78, 75
2, 15781, Note_on_c, 0, 76, 0
2, 15995, Note_on_c, 0, 68, 66
2, 16253, Note_on_c, 0, 78, 0
2, 16262, Note_on_c, 0, 71, 73
2, 16452, Note_on_c, 0, 68, 0
2, 16551, Note_on_c, 0, 75, 71
2, 16866, Note_on_c, 0, 71, 0
2, 16871, Note_on_c, 0, 76, 69
2, 16931, Note_on_c, 0, 75, 0
2, 17154, Note_on_c, 0, 61, 49
2, 17187, Note_on_c, 0, 63, 0
2, 17410, Note_on_c, 0, 59, 56
2, 17420, Note_on_c, 0, 61, 0
2, 17706, Note_on_c, 0, 66, 56
2, 17728, Note_on_c, 0, 58, 40
2, 17793, Note_on_c, 0, 59, 0
2, 17976, Note_on_c, 0, 76, 0
2, 17997, Note_on_c, 0, 70, 52
2, 18251, Note_on_c, 0, 73, 58
2, 18553, Note_on_c, 0, 76, 54
2, 18602, Control_c, 0, 67, 17
2, 18622, Control_c, 0, 67, 29
2, 18639, Control_c, 0, 67, 43
2, 18659, Control_c, 0, 67, 62
2, 18679, Control_c, 0, 67, 80
2, 18685, Note_on_c, 0, 73, 0
2, 18698, Control_c, 0, 67, 100
2, 18716, Control_c, 0, 67, 123
2, 18736, Control_c, 0, 67, 127
2, 18784, Note_on_c, 0, 76, 0
2, 18815, Note_on_c, 0, 75, 51
2, 19074, Note_on_c, 0, 49, 40
2, 19085, Note_on_c, 0, 66, 0
2, 19096, Note_on_c, 0, 76, 52
2, 19179, Note_on_c, 0, 75, 0
2, 19222, Note_on_c, 0, 70, 0
2, 19422, Note_on_c, 0, 50, 43
2, 19426, Note_on_c, 0, 49, 0
2, 19437, Note_on_c, 0, 66, 51
2, 19742, Note_on_c, 0, 76, 0
2, 19773, Note_on_c, 0, 70, 48
2, 19952, Note_on_c, 0, 66, 0
2, 20057, Note_on_c, 0, 73, 56
2, 20259, Note_on_c, 0, 70, 0
2, 20345, Note_on_c, 0, 73, 0
2, 20345, Note_on_c, 0, 74, 51
2, 20352, Note_on_c, 0, 59, 37
2, 20405, Note_on_c, 0, 54, 0
2, 20464, Note_on_c, 0, 58, 0
2, 20614, Note_on_c, 0, 52, 49
2, 20653, Note_on_c, 0, 50, 0
2, 20869, Note_on_c, 0, 54, 59
2, 20881, Note_on_c, 0, 52, 0
2, 21150, Note_on_c, 0, 55, 59
2, 21150, Note_on_c, 0, 59, 0
2, 21161, Note_on_c, 0, 54, 0
2, 21290, Control_c, 0, 67, 123
2, 21309, Control_c, 0, 67, 120
2, 21329, Control_c, 0, 67, 116
2, 21346, Control_c, 0, 67, 111
2, 21366, Control_c, 0, 67, 106
2, 21387, Control_c, 0, 67, 104
2, 21408, Control_c, 0, 67, 101
2, 21423, Control_c, 0, 67, 99
2, 21432, Note_on_c, 0, 61, 41
2, 21439, Note_on_c, 0, 76, 66
2, 21443, Control_c, 0, 67, 95
2, 21466, Control_c, 0, 67, 90
2, 21482, Control_c, 0, 67, 85
2, 21495, Note_on_c, 0, 74, 0
2, 21501, Control_c, 0, 67, 81
2, 21524, Control_c, 0, 67, 78
2, 21540, Control_c, 0, 67, 73
2, 21560, Control_c, 0, 67, 67
2, 21578, Control_c, 0, 67, 60
2, 21598, Control_c, 0, 67, 54
2, 21617, Control_c, 0, 67, 49
2, 21637, Control_c, 0, 67, 43
2, 21658, Control_c, 0, 67, 36
2, 21674, Control_c, 0, 67, 30
2, 21695, Control_c, 0, 67, 23
2, 21706, Note_on_c, 0, 74, 63
2, 21711, Note_on_c, 0, 62, 52
2, 21713, Control_c, 0, 67, 17
2, 21732, Control_c, 0, 67, 10
2, 21752, Control_c, 0, 67, 0
2, 21793, Note_on_c, 0, 76, 0
2, 21827, Note_on_c, 0, 61, 0
2, 21979, Note_on_c, 0, 73, 70
2, 21994, Note_on_c, 0, 64, 50
2, 22020, Note_on_c, 0, 62, 0
2, 22071, Note_on_c, 0, 74, 0
2, 22242, Note_on_c, 0, 74, 72
2, 22301, Note_on_c, 0, 73, 0
2, 22426, Control_c, 0, 64, 26
2, 22442, Control_c, 0, 64, 42
2, 22464, Control_c, 0, 64, 57
2, 22481, Control_c, 0, 64, 63
2, 22499, Control_c, 0, 64, 67
2, 22510, Note_on_c, 0, 71, 67
2, 22521, Control_c, 0, 64, 74
2, 22526, Note_on_c, 0, 74, 0
2, 22541, Control_c, 0, 64, 87
2, 22555, Note_on_c, 0, 71, 0
2, 22560, Control_c, 0, 64, 127
2, 22822, Note_on_c, 0, 54, 55
2, 22826, Note_on_c, 0, 71, 64
2, 22848, Note_on_c, 0, 55, 0
2, 22869, Note_on_c, 0, 71, 0
2, 22885, Control_c, 0, 64, 116
2, 22892, Note_on_c, 0, 70, 68
2, 22903, Control_c, 0, 64, 97
2, 22926, Control_c, 0, 64, 84
2, 22945, Control_c, 0, 64, 74
2, 22945, Note_on_c, 0, 70, 0
2, 22961, Control_c, 0, 64, 66
2, 22975, Note_on_c, 0, 71, 63
2, 22984, Control_c, 0, 64, 61
2, 22984, Note_on_c, 0, 64, 0
2, 23001, Control_c, 0, 64, 58
2, 23018, Control_c, 0, 64, 55
2, 23032, Note_on_c, 0, 70, 71
2, 23036, Control_c, 0, 64, 52
2, 23057, Control_c, 0, 64, 47
2, 23065, Note_on_c, 0, 71, 0
2, 23075, Control_c, 0, 64, 40
2, 23095, Control_c, 0, 64, 30
2, 23115, Control_c, 0, 64, 0
2, 23139, Note_on_c, 0, 68, 68
2, 23177, Note_on_c, 0, 70, 0
2, 23441, Control_c, 0, 64, 29
2, 23451, Note_on_c, 0, 66, 75
2, 23453, Note_on_c, 0, 68, 0
2, 23460, Control_c, 0, 64, 47
2, 23479, Control_c, 0, 64, 58
2, 23499, Control_c, 0, 64, 63
2, 23517, Control_c, 0, 64, 65
2, 23536, Control_c, 0, 64, 69
2, 23556, Control_c, 0, 64, 78
2, 23578, Control_c, 0, 64, 127
2, 23800, Note_on_c, 0, 66, 0
2, 23846, Note_on_c, 0, 79, 78
2, 24240, Note_on_c, 0, 78, 83
2, 24253, Note_on_c, 0, 56, 51
2, 24265, Note_on_c, 0, 63, 46
2, 24292, Note_on_c, 0, 79, 0
2, 24304, Control_c, 0, 64, 109
2, 24326, Control_c, 0, 64, 104
2, 24342, Control_c, 0, 64, 99
2, 24364, Control_c, 0, 64, 93
2, 24382, Control_c, 0, 64, 88
2, 24399, Control_c, 0, 64, 83
2, 24419, Control_c, 0, 64, 79
2, 24438, Control_c, 0, 64, 76
2, 24457, Control_c, 0, 64, 74
2, 24477, Control_c, 0, 64, 72
2, 24497, Control_c, 0, 64, 70
2, 24514, Control_c, 0, 64, 69
2, 24535, Control_c, 0, 64, 68
2, 24553, Control_c, 0, 64, 67
2, 24566, Note_on_c, 0, 77, 79
2, 24570, Note_on_c, 0, 58, 51
2, 24579, Note_on_c, 0, 61, 48
2, 24579, Note_on_c, 0, 63, 0
2, 24596, Control_c, 0, 64, 66
2, 24613, Control_c, 0, 64, 65
2, 24625, Note_on_c, 0, 78, 0
2, 24632, Control_c, 0, 64, 63
2, 24652, Control_c, 0, 64, 62
2, 24686, Note_on_c, 0, 54, 0
2, 24689, Control_c, 0, 64, 61
2, 24727, Control_c, 0, 64, 60
2, 24747, Control_c, 0, 64, 58
2, 24765, Control_c, 0, 64, 56
2, 24787, Control_c, 0, 64, 55
2, 24823, Control_c, 0, 64, 54
2, 24842, Control_c, 0, 64, 53
2, 24853, Note_on_c, 0, 59, 53
2, 24862, Control_c, 0, 64, 51
2, 24862, Note_on_c, 0, 76, 73
2, 24867, Note_on_c, 0, 77, 0
2, 24880, Control_c, 0, 64, 48
2, 24901, Control_c, 0, 64, 47
2, 24908, Note_on_c, 0, 61, 0
2, 24921, Control_c, 0, 64, 46
2, 24932, Note_on_c, 0, 58, 0
2, 24954, Note_on_c, 0, 56, 0
2, 24959, Control_c, 0, 64, 44
2, 24977, Control_c, 0, 64, 41
2, 24995, Control_c, 0, 64, 37
2, 25015, Control_c, 0, 64, 35
2, 25035, Control_c, 0, 64, 33
2, 25053, Control_c, 0, 64, 32
2, 25072, Control_c, 0, 64, 29
2, 25093, Control_c, 0, 64, 27
2, 25114, Control_c, 0, 64, 24
2, 25124, Note_on_c, 0, 75, 66
2, 25130, Control_c, 0, 64, 21
2, 25149, Control_c, 0, 64, 20
2, 25172, Control_c, 0, 64, 18
2, 25172, Note_on_c, 0, 76, 0
2, 25188, Control_c, 0, 64, 17
2, 25207, Control_c, 0, 64, 14
2, 25225, Control_c, 0, 64, 0
2, 25373, Note_on_c, 0, 74, 64
2, 25386, Note_on_c, 0, 53, 39
2, 25391, Note_on_c, 0, 75, 0
2, 25656, Note_on_c, 0, 74, 0
2, 25679, Note_on_c, 0, 73, 60
2, 25700, Note_on_c, 0, 54, 39
2, 25774, Note_on_c, 0, 53, 0
2, 25805, Note_on_c, 0, 75, 58
2, 25816, Note_on_c, 0, 73, 0
2, 25887, Note_on_c, 0, 59, 0
2, 25908, Note_on_c, 0, 75, 0
2, 25936, Note_on_c, 0, 76, 61
2, 25962, Note_on_c, 0, 58, 40
2, 26071, Control_c, 0, 64, 16
2, 26093, Control_c, 0, 64, 31
2, 26109, Control_c, 0, 64, 42
2, 26118, Note_on_c, 0, 54, 0
2, 26131, Control_c, 0, 64, 52
2, 26147, Control_c, 0, 64, 59
2, 26167, Control_c, 0, 64, 62
2, 26185, Control_c, 0, 64, 65
2, 26207, Control_c, 0, 64, 68
2, 26211, Note_on_c, 0, 76, 0
2, 26223, Control_c, 0, 64, 74
2, 26243, Control_c, 0, 64, 85
2, 26260, Note_on_c, 0, 70, 53
2, 26262, Control_c, 0, 64, 122
2, 26282, Control_c, 0, 64, 127
2, 26311, Note_on_c, 0, 64, 46
2, 26350, Note_on_c, 0, 64, 0
2, 26363, Note_on_c, 0, 58, 0
2, 26675, Note_on_c, 0, 47, 39
2, 26685, Note_on_c, 0, 71, 48
2, 26696, Note_on_c, 0, 63, 43
2, 26705, Control_c, 0, 64, 101
2, 26723, Control_c, 0, 64, 90
2, 26732, Note_on_c, 0, 70, 0
2, 26741, Control_c, 0, 64, 80
2, 26764, Control_c, 0, 64, 74
2, 26782, Control_c, 0, 64, 69
2, 26800, Control_c, 0, 64, 65
2, 26823, Control_c, 0, 64, 63
2, 26838, Control_c, 0, 64, 62
2, 26860, Control_c, 0, 64, 61
2, 26877, Control_c, 0, 64, 60
2, 26895, Control_c, 0, 64, 59
2, 26916, Control_c, 0, 64, 58
2, 26938, Control_c, 0, 64, 55
2, 26956, Control_c, 0, 64, 53
2, 26972, Control_c, 0, 64, 51
2, 26992, Control_c, 0, 64, 48
2, 27014, Control_c, 0, 64, 44
2, 27030, Control_c, 0, 64, 41
2, 27041, Note_on_c, 0, 51, 49
2, 27049, Control_c, 0, 64, 36
2, 27072, Control_c, 0, 64, 31
2, 27089, Control_c, 0, 64, 27
2, 27106, Control_c, 0, 64, 22
2, 27125, Control_c, 0, 64, 17
2, 27145, Control_c, 0, 64, 10
2, 27164, Control_c, 0, 64, 0
2, 27260, Note_on_c, 0, 47, 0
2, 27295, Note_on_c, 0, 54, 58
2, 27418, Note_on_c, 0, 51, 0
2, 27578, Note_on_c, 0, 59, 59
2, 27592, Note_on_c, 0, 54, 0
2, 27851, Note_on_c, 0, 57, 53
2, 27876, Note_on_c, 0, 63, 0
2, 27900, Note_on_c, 0, 71, 0
2, 27922, Note_on_c, 0, 59, 0
2, 28128, Note_on_c, 0, 57, 0
2, 28144, Note_on_c, 0, 59, 36
2, 28395, Control_c, 0, 67, 17
2, 28412, Control_c, 0, 67, 26
2, 28434, Control_c, 0, 67, 34
2, 28440, Note_on_c, 0, 56, 40
2, 28452, Control_c, 0, 67, 42
2, 28472, Control_c, 0, 67, 50
2, 28490, Control_c, 0, 67, 58
2, 28509, Control_c, 0, 67, 67
2, 28530, Control_c, 0, 67, 77
2, 28549, Control_c, 0, 67, 87
2, 28549, Note_on_c, 0, 59, 0
2, 28566, Control_c, 0, 67, 96
2, 28585, Control_c, 0, 67, 104
2, 28607, Control_c, 0, 67, 110
2, 28623, Control_c, 0, 67, 117
2, 28644, Control_c, 0, 67, 123
2, 28663, Control_c, 0, 67, 127
2, 28737, Note_on_c, 0, 75, 50
2, 29008, Note_on_c, 0, 78, 64
2, 29264, Note_on_c, 0, 83, 61
2, 29290, Note_on_c, 0, 78, 0
2, 29330, Note_on_c, 0, 75, 0
2, 29534, Note_on_c, 0, 81, 65
2, 29558, Note_on_c, 0, 54, 40
2, 29580, Note_on_c, 0, 83, 0
2, 29609, Note_on_c, 0, 56, 0
2, 29814, Note_on_c, 0, 56, 44
2, 29814, Note_on_c, 0, 83, 67
2, 29818, Note_on_c, 0, 54, 0
2, 29861, Note_on_c, 0, 81, 0
2, 30111, Note_on_c, 0, 53, 38
2, 30137, Note_on_c, 0, 73, 63
2, 30161, Note_on_c, 0, 56, 0
2, 30425, Note_on_c, 0, 77, 71
2, 30430, Note_on_c, 0, 56, 37
2, 30493, Note_on_c, 0, 83, 0
2, 30573, Note_on_c, 0, 73, 0
2, 30685, Note_on_c, 0, 80, 68
2, 30711, Note_on_c, 0, 59, 46
2, 30722, Note_on_c, 0, 56, 0
2, 31031, Note_on_c, 0, 83, 66
2, 31035, Note_on_c, 0, 62, 39
2, 31075, Note_on_c, 0, 59, 0
2, 31079, Note_on_c, 0, 77, 0
2, 31099, Note_on_c, 0, 80, 0
2, 31286, Note_on_c, 0, 62, 0
2, 31319, Note_on_c, 0, 59, 47
2, 31605, Note_on_c, 0, 61, 45
2, 31610, Note_on_c, 0, 59, 0
2, 31928, Note_on_c, 0, 54, 47
2, 32078, Note_on_c, 0, 53, 0
2, 32223, Note_on_c, 0, 80, 63
2, 32232, Note_on_c, 0, 83, 0
2, 32384, Note_on_c, 0, 61, 0
2, 32487, Note_on_c, 0, 81, 68
2, 32520, Note_on_c, 0, 80, 0
2, 32678, Control_c, 0, 67, 126
2, 32697, Control_c, 0, 67, 122
2, 32716, Control_c, 0, 67, 119
2, 32736, Control_c, 0, 67, 114
2, 32755, Control_c, 0, 67, 110
2, 32776, Note_on_c, 0, 50, 37
2, 32780, Control_c, 0, 67, 105
2, 32780, Note_on_c, 0, 59, 37
2, 32794, Control_c, 0, 67, 102
2, 32815, Control_c, 0, 67, 101
2, 32835, Control_c, 0, 67, 100
2, 32835, Note_on_c, 0, 54, 0
2, 32871, Control_c, 0, 67, 99
2, 32894, Control_c, 0, 67, 97
2, 32908, Control_c, 0, 67, 93
2, 32928, Control_c, 0, 67, 89
2, 32950, Control_c, 0, 67, 83
2, 32968, Control_c, 0, 67, 71
2, 32985, Control_c, 0, 67, 53
2, 33005, Control_c, 0, 67, 31
2, 33027, Control_c, 0, 67, 0
2, 33038, Note_on_c, 0, 78, 73
2, 33061, Note_on_c, 0, 81, 0
2, 33314, Note_on_c, 0, 80, 75
2, 33399, Note_on_c, 0, 78, 0
2, 33574, Note_on_c, 0, 51, 51
2, 33588, Note_on_c, 0, 60, 59
2, 33646, Note_on_c, 0, 59, 0
2, 33785, Note_on_c, 0, 50, 0
2, 33854, Note_on_c, 0, 77, 76
2, 33964, Control_c, 0, 64, 23
2, 33978, Note_on_c, 0, 80, 0
2, 33984, Control_c, 0, 64, 41
2, 34003, Control_c, 0, 64, 53
2, 34024, Control_c, 0, 64, 60
2, 34041, Control_c, 0, 64, 64
2, 34060, Control_c, 0, 64, 67
2, 34073, Note_on_c, 0, 60, 0
2, 34080, Control_c, 0, 64, 73
2, 34102, Control_c, 0, 64, 82
2, 34119, Control_c, 0, 64, 102
2, 34136, Note_on_c, 0, 78, 74
2, 34138, Control_c, 0, 64, 127
2, 34204, Note_on_c, 0, 77, 0
2, 34348, Control_c, 0, 64, 112
2, 34369, Control_c, 0, 64, 99
2, 34387, Control_c, 0, 64, 91
2, 34407, Control_c, 0, 64, 85
2, 34420, Note_on_c, 0, 49, 40
2, 34427, Control_c, 0, 64, 78
2, 34445, Control_c, 0, 64, 71
2, 34455, Note_on_c, 0, 61, 20
2, 34466, Control_c, 0, 64, 67
2, 34480, Note_on_c, 0, 78, 0
2, 34484, Control_c, 0, 64, 65
2, 34484, Note_on_c, 0, 77, 59
2, 34493, Note_on_c, 0, 51, 0
2, 34505, Control_c, 0, 64, 63
2, 34522, Control_c, 0, 64, 61
2, 34541, Control_c, 0, 64, 58
2, 34559, Control_c, 0, 64, 50
2, 34579, Control_c, 0, 64, 32
2, 34597, Control_c, 0, 64, 0
2, 34606, Note_on_c, 0, 78, 63
2, 34611, Note_on_c, 0, 77, 0
2, 34704, Note_on_c, 0, 78, 0
2, 34743, Note_on_c, 0, 80, 61
2, 34753, Control_c, 0, 64, 23
2, 34774, Control_c, 0, 64, 38
2, 34791, Control_c, 0, 64, 49
2, 34808, Control_c, 0, 64, 56
2, 34829, Control_c, 0, 64, 61
2, 34849, Control_c, 0, 64, 63
2, 34867, Control_c, 0, 64, 65
2, 34885, Control_c, 0, 64, 69
2, 34904, Control_c, 0, 64, 76
2, 34926, Control_c, 0, 64, 90
2, 34945, Control_c, 0, 64, 127
2, 35011, Note_on_c, 0, 80, 0
2, 35017, Note_on_c, 0, 61, 0
2, 35024, Note_on_c, 0, 73, 61
2, 35051, Note_on_c, 0, 49, 0
2, 35398, Note_on_c, 0, 47, 44
2, 35406, Note_on_c, 0, 74, 67
2, 35420, Note_on_c, 0, 73, 0
2, 35505, Control_c, 0, 64, 109
2, 35520, Control_c, 0, 64, 101
2, 35538, Control_c, 0, 64, 94
2, 35558, Control_c, 0, 64, 87
2, 35578, Control_c, 0, 64, 80
2, 35597, Control_c, 0, 64, 75
2, 35615, Control_c, 0, 64, 72
2, 35635, Control_c, 0, 64, 70
2, 35654, Control_c, 0, 64, 69
2, 35674, Control_c, 0, 64, 68
2, 35691, Control_c, 0, 64, 67
2, 35699, Note_on_c, 0, 50, 30
2, 35711, Control_c, 0, 64, 66
2, 35721, Note_on_c, 0, 71, 61
2, 35732, Control_c, 0, 64, 65
2, 35750, Control_c, 0, 64, 64
2, 35772, Control_c, 0, 64, 63
2, 35787, Control_c, 0, 64, 62
2, 35809, Control_c, 0, 64, 61
2, 35828, Control_c, 0, 64, 60
2, 35849, Control_c, 0, 64, 58
2, 35865, Control_c, 0, 64, 57
2, 35885, Control_c, 0, 64, 56
2, 35904, Control_c, 0, 64, 54
2, 35925, Control_c, 0, 64, 53
2, 35944, Control_c, 0, 64, 51
2, 35964, Control_c, 0, 64, 49
2, 35975, Note_on_c, 0, 68, 66
2, 35980, Control_c, 0, 64, 47
2, 36001, Note_on_c, 0, 53, 47
2, 36001, Note_on_c, 0, 71, 0
2, 36005, Control_c, 0, 64, 45
2, 36020, Control_c, 0, 64, 43
2, 36037, Control_c, 0, 64, 40
2, 36058, Control_c, 0, 64, 37
2, 36077, Control_c, 0, 64, 35
2, 36084, Note_on_c, 0, 50, 0
2, 36095, Control_c, 0, 64, 33
2, 36114, Control_c, 0, 64, 30
2, 36133, Control_c, 0, 64, 27
2, 36153, Control_c, 0, 64, 24
2, 36172, Control_c, 0, 64, 20
2, 36192, Control_c, 0, 64, 15
2, 36210, Control_c, 0, 64, 0
2, 36239, Note_on_c, 0, 65, 55
2, 36254, Note_on_c, 0, 56, 55
2, 36267, Note_on_c, 0, 53, 0
2, 36322, Note_on_c, 0, 68, 0
2, 36492, Note_on_c, 0, 68, 62
2, 36496, Note_on_c, 0, 59, 56
2, 36528, Note_on_c, 0, 56, 0
2, 36528, Note_on_c, 0, 65, 0
2, 36763, Note_on_c, 0, 57, 58
2, 36772, Note_on_c, 0, 68, 0
2, 36774, Note_on_c, 0, 66, 62
2, 36808, Note_on_c, 0, 59, 0
2, 37039, Note_on_c, 0, 68, 68
2, 37048, Note_on_c, 0, 47, 0
2, 37052, Note_on_c, 0, 59, 58
2, 37091, Note_on_c, 0, 57, 0
2, 37102, Note_on_c, 0, 66, 0
2, 37299, Note_on_c, 0, 71, 70
2, 37306, Note_on_c, 0, 56, 58
2, 37317, Note_on_c, 0, 59, 0
2, 37334, Note_on_c, 0, 68, 0
2, 37523, Note_on_c, 0, 71, 0
2, 37547, Note_on_c, 0, 54, 60
2, 37559, Note_on_c, 0, 69, 64
2, 37583, Note_on_c, 0, 56, 0
2, 37814, Note_on_c, 0, 56, 52
2, 37840, Note_on_c, 0, 71, 68
2, 37881, Note_on_c, 0, 54, 0
2, 37901, Note_on_c, 0, 74, 0
2, 37959, Note_on_c, 0, 57, 62
2, 37959, Note_on_c, 0, 69, 0
2, 37992, Note_on_c, 0, 56, 0
2, 38079, Note_on_c, 0, 57, 0
2, 38086, Note_on_c, 0, 59, 60
2, 38086, Note_on_c, 0, 74, 61
2, 38314, Note_on_c, 0, 74, 0
2, 38327, Note_on_c, 0, 53, 49
2, 38335, Note_on_c, 0, 59, 0
2, 38365, Note_on_c, 0, 73, 66
2, 38508, Note_on_c, 0, 73, 0
2, 38722, Note_on_c, 0, 73, 63
2, 38731, Note_on_c, 0, 54, 39
2, 38777, Note_on_c, 0, 53, 0
2, 38913, Note_on_c, 0, 71, 0
2, 39038, Note_on_c, 0, 69, 59
2, 39106, Control_c, 0, 64, 30
2, 39126, Control_c, 0, 64, 48
2, 39145, Control_c, 0, 64, 58
2, 39165, Control_c, 0, 64, 62
2, 39183, Control_c, 0, 64, 64
2, 39202, Control_c, 0, 64, 67
2, 39221, Control_c, 0, 64, 72
2, 39241, Control_c, 0, 64, 83
2, 39260, Control_c, 0, 64, 127
2, 39290, Note_on_c, 0, 68, 70
2, 39316, Note_on_c, 0, 73, 0
2, 39324, Note_on_c, 0, 69, 0
2, 39585, Note_on_c, 0, 45, 46
2, 39590, Control_c, 0, 64, 103
2, 39601, Note_on_c, 0, 66, 74
2, 39605, Control_c, 0, 64, 94
2, 39626, Control_c, 0, 64, 88
2, 39645, Control_c, 0, 64, 83
2, 39668, Control_c, 0, 64, 76
2, 39668, Note_on_c, 0, 68, 0
2, 39682, Control_c, 0, 64, 68
2, 39702, Control_c, 0, 64, 64
2, 39721, Control_c, 0, 64, 62
2, 39742, Control_c, 0, 64, 61
2, 39758, Control_c, 0, 64, 59
2, 39779, Control_c, 0, 64, 56
2, 39799, Control_c, 0, 64, 53
2, 39816, Control_c, 0, 64, 45
2, 39836, Control_c, 0, 64, 37
2, 39856, Control_c, 0, 64, 27
2, 39875, Control_c, 0, 64, 9
2, 39888, Note_on_c, 0, 71, 69
2, 39895, Control_c, 0, 64, 0
2, 40137, Note_on_c, 0, 69, 65
2, 40197, Note_on_c, 0, 71, 0
2, 40416, Note_on_c, 0, 47, 43
2, 40425, Note_on_c, 0, 68, 69
2, 40482, Note_on_c, 0, 69, 0
2, 40490, Note_on_c, 0, 45, 0
2, 40710, Note_on_c, 0, 69, 52
2, 40774, Note_on_c, 0, 68, 0
2, 40973, Note_on_c, 0, 71, 56
2, 41090, Note_on_c, 0, 69, 0
2, 41118, Note_on_c, 0, 66, 0
2, 41248, Note_on_c, 0, 49, 34
2, 41251, Note_on_c, 0, 71, 0
2, 41266, Note_on_c, 0, 65, 45
2, 41485, Note_on_c, 0, 47, 0
2, 41552, Note_on_c, 0, 69, 43
2, 41792, Note_on_c, 0, 69, 0
2, 41816, Note_on_c, 0, 68, 43
2, 42130, Note_on_c, 0, 42, 36
2, 42134, Note_on_c, 0, 66, 45
2, 42159, Note_on_c, 0, 69, 42
2, 42205, Note_on_c, 0, 68, 0
2, 42220, Note_on_c, 0, 65, 0
2, 42242, Note_on_c, 0, 49, 0
2, 42439, Note_on_c, 0, 54, 0
2, 42488, Note_on_c, 0, 45, 42
2, 42748, Note_on_c, 0, 49, 49
2, 42895, Note_on_c, 0, 45, 0
2, 42925, Note_on_c, 0, 42, 0
2, 42993, Note_on_c, 0, 54, 63
2, 42995, Note_on_c, 0, 49, 0
2, 43253, Note_on_c, 0, 52, 49
2, 43253, Note_on_c, 0, 69, 0
2, 43262, Note_on_c, 0, 71, 65
2, 43291, Note_on_c, 0, 54, 0
2, 43509, Note_on_c, 0, 52, 0
2, 43522, Note_on_c, 0, 54, 52
2, 43522, Note_on_c, 0, 68, 68
2, 43522, Note_on_c, 0, 71, 0
2, 43526, Note_on_c, 0, 64, 55
2, 43585, Note_on_c, 0, 66, 0
2, 43820, Note_on_c, 0, 68, 0
2, 43827, Note_on_c, 0, 47, 41
2, 43832, Note_on_c, 0, 69, 50
2, 43849, Note_on_c, 0, 63, 47
2, 43897, Note_on_c, 0, 54, 0
2, 43913, Note_on_c, 0, 64, 0
2, 44104, Note_on_c, 0, 51, 45
2, 44241, Note_on_c, 0, 47, 0
2, 44385, Note_on_c, 0, 54, 44
2, 44576, Note_on_c, 0, 51, 0
2, 44644, Note_on_c, 0, 54, 0
2, 44655, Note_on_c, 0, 59, 50
2, 44878, Note_on_c, 0, 69, 0
2, 44885, Note_on_c, 0, 63, 0
2, 44890, Note_on_c, 0, 59, 0
2, 44903, Note_on_c, 0, 71, 56
2, 44919, Note_on_c, 0, 57, 44
2, 45019, Note_on_c, 0, 71, 0
2, 45034, Note_on_c, 0, 69, 51
2, 45103, Note_on_c, 0, 69, 0
2, 45116, Note_on_c, 0, 57, 0
2, 45121, Note_on_c, 0, 68, 61
2, 45145, Note_on_c, 0, 59, 47
2, 45233, Note_on_c, 0, 68, 0
2, 45253, Note_on_c, 0, 66, 51
2, 45356, Note_on_c, 0, 59, 0
2, 45360, Note_on_c, 0, 66, 0
2, 45374, Note_on_c, 0, 52, 44
2, 45386, Note_on_c, 0, 68, 58
2, 45492, Note_on_c, 0, 68, 0
2, 45522, Note_on_c, 0, 66, 57
2, 45618, Note_on_c, 0, 66, 0
2, 45645, Note_on_c, 0, 56, 43
2, 45652, Note_on_c, 0, 64, 59
2, 45781, Note_on_c, 0, 66, 56
2, 45790, Note_on_c, 0, 52, 0
2, 45790, Note_on_c, 0, 64, 0
2, 45866, Note_on_c, 0, 66, 0
2, 45874, Note_on_c, 0, 68, 62
2, 45894, Note_on_c, 0, 59, 49
2, 45912, Note_on_c, 0, 56, 0
2, 45999, Note_on_c, 0, 69, 57
2, 46003, Note_on_c, 0, 68, 0
2, 46113, Note_on_c, 0, 69, 0
2, 46122, Note_on_c, 0, 71, 66
2, 46127, Note_on_c, 0, 59, 0
2, 46131, Note_on_c, 0, 64, 55
2, 46228, Note_on_c, 0, 71, 0
2, 46255, Note_on_c, 0, 69, 65
2, 46371, Note_on_c, 0, 68, 75
2, 46371, Note_on_c, 0, 69, 0
2, 46376, Note_on_c, 0, 64, 0
2, 46400, Note_on_c, 0, 62, 47
2, 46484, Note_on_c, 0, 68, 0
2, 46502, Note_on_c, 0, 69, 68
2, 46628, Note_on_c, 0, 71, 70
2, 46640, Note_on_c, 0, 61, 50
2, 46644, Note_on_c, 0, 62, 0
2, 46674, Note_on_c, 0, 69, 0
2, 46739, Note_on_c, 0, 73, 70
2, 46787, Note_on_c, 0, 71, 0
2, 46900, Note_on_c, 0, 74, 63
2, 46905, Note_on_c, 0, 73, 0
2, 46918, Note_on_c, 0, 59, 40
2, 46955, Note_on_c, 0, 61, 0
2, 47048, Note_on_c, 0, 73, 69
2, 47053, Note_on_c, 0, 74, 0
2, 47158, Note_on_c, 0, 71, 63
2, 47196, Note_on_c, 0, 73, 0
2, 47258, Note_on_c, 0, 71, 0
2, 47276, Note_on_c, 0, 69, 59
2, 47396, Note_on_c, 0, 59, 0
2, 47396, Note_on_c, 0, 69, 0
2, 47401, Note_on_c, 0, 57, 43
2, 47401, Note_on_c, 0, 68, 63
2, 47514, Note_on_c, 0, 66, 58
2, 47514, Note_on_c, 0, 68, 0
2, 47591, Note_on_c, 0, 57, 0
2, 47624, Note_on_c, 0, 56, 57
2, 47655, Note_on_c, 0, 64, 53
2, 47731, Note_on_c, 0, 66, 0
2, 47751, Note_on_c, 0, 56, 0
2, 47771, Note_on_c, 0, 62, 61
2, 47806, Note_on_c, 0, 64, 0
2, 47852, Note_on_c, 0, 62, 0
2, 47881, Note_on_c, 0, 61, 54
2, 47946, Note_on_c, 0, 61, 0
2, 48008, Note_on_c, 0, 59, 56
2, 48119, Note_on_c, 0, 59, 0
2, 48148, Note_on_c, 0, 57, 49
2, 48239, Note_on_c, 0, 57, 0
2, 48271, Note_on_c, 0, 56, 46
2, 48490, Note_on_c, 0, 57, 25
2, 48494, Note_on_c, 0, 69, 45
2, 48498, Note_on_c, 0, 56, 0
2, 48801, Note_on_c, 0, 73, 62
2, 48922, Note_on_c, 0, 69, 0
2, 49059, Note_on_c, 0, 76, 73
2, 49333, Note_on_c, 0, 81, 70
2, 49341, Note_on_c, 0, 76, 0
2, 49359, Note_on_c, 0, 73, 0
2, 49363, Note_on_c, 0, 61, 33
2, 49603, Note_on_c, 0, 80, 74
2, 49652, Note_on_c, 0, 81, 0
2, 49880, Note_on_c, 0, 81, 73
2, 49919, Note_on_c, 0, 80, 0
2, 50126, Note_on_c, 0, 62, 42
2, 50194, Note_on_c, 0, 80, 64
2, 50195, Note_on_c, 0, 81, 0
2, 50266, Note_on_c, 0, 80, 0
2, 50277, Note_on_c, 0, 78, 70
2, 50326, Note_on_c, 0, 78, 0
2, 50339, Note_on_c, 0, 80, 73
2, 50363, Note_on_c, 0, 61, 0
2, 50422, Note_on_c, 0, 78, 79
2, 50422, Note_on_c, 0, 80, 0
2, 50485, Note_on_c, 0, 76, 71
2, 50502, Note_on_c, 0, 78, 0
2, 50760, Note_on_c, 0, 78, 77
2, 50831, Note_on_c, 0, 76, 0
2, 51072, Note_on_c, 0, 81, 62
2, 51181, Note_on_c, 0, 78, 0
2, 51330, Note_on_c, 0, 61, 42
2, 51430, Note_on_c, 0, 62, 0
2, 51569, Control_c, 0, 67, 11
2, 51583, Note_on_c, 0, 61, 0
2, 51591, Control_c, 0, 67, 31
2, 51591, Note_on_c, 0, 59, 48
2, 51607, Control_c, 0, 67, 54
2, 51626, Control_c, 0, 67, 78
2, 51646, Control_c, 0, 67, 104
2, 51666, Control_c, 0, 67, 127
2, 51859, Note_on_c, 0, 61, 34
2, 51935, Note_on_c, 0, 81, 0
2, 51942, Note_on_c, 0, 78, 55
2, 51966, Note_on_c, 0, 59, 0
2, 51997, Note_on_c, 0, 78, 0
2, 52018, Note_on_c, 0, 76, 64
2, 52058, Note_on_c, 0, 76, 0
2, 52084, Note_on_c, 0, 78, 68
2, 52121, Note_on_c, 0, 78, 0
2, 52153, Note_on_c, 0, 76, 67
2, 52210, Note_on_c, 0, 76, 0
2, 52223, Note_on_c, 0, 74, 51
2, 52506, Note_on_c, 0, 76, 55
2, 52572, Note_on_c, 0, 74, 0
2, 52767, Note_on_c, 0, 81, 52
2, 52847, Note_on_c, 0, 76, 0
2, 53052, Note_on_c, 0, 62, 44
2, 53104, Note_on_c, 0, 61, 0
2, 53295, Note_on_c, 0, 61, 45
2, 53415, Note_on_c, 0, 62, 0
2, 53584, Note_on_c, 0, 59, 36
2, 53590, Note_on_c, 0, 74, 57
2, 53633, Note_on_c, 0, 61, 0
2, 53734, Note_on_c, 0, 81, 0
2, 53873, Note_on_c, 0, 76, 67
2, 54017, Note_on_c, 0, 74, 0
2, 54118, Note_on_c, 0, 78, 71
2, 54247, Note_on_c, 0, 76, 0
2, 54377, Note_on_c, 0, 56, 38
2, 54399, Note_on_c, 0, 76, 72
2, 54458, Note_on_c, 0, 78, 0
2, 54477, Note_on_c, 0, 57, 0
2, 54499, Note_on_c, 0, 59, 0
2, 54641, Control_c, 0, 67, 126
2, 54663, Control_c, 0, 64, 10
2, 54663, Control_c, 0, 67, 124
2, 54663, Note_on_c, 0, 78, 70
2, 54680, Control_c, 0, 64, 37
2, 54680, Control_c, 0, 67, 119
2, 54699, Control_c, 0, 64, 50
2, 54699, Control_c, 0, 67, 114
2, 54717, Control_c, 0, 64, 59
2, 54722, Control_c, 0, 67, 109
2, 54737, Control_c, 0, 64, 62
2, 54737, Control_c, 0, 67, 106
2, 54757, Control_c, 0, 64, 65
2, 54757, Control_c, 0, 67, 103
2, 54776, Control_c, 0, 64, 68
2, 54776, Control_c, 0, 67, 100
2, 54794, Control_c, 0, 64, 75
2, 54798, Control_c, 0, 67, 98
2, 54813, Control_c, 0, 64, 91
2, 54818, Control_c, 0, 67, 95
2, 54836, Control_c, 0, 64, 127
2, 54836, Control_c, 0, 67, 93
2, 54836, Note_on_c, 0, 56, 0
2, 54849, Control_c, 0, 67, 91
2, 54862, Note_on_c, 0, 76, 0
2, 54869, Control_c, 0, 67, 88
2, 54890, Control_c, 0, 67, 84
2, 54907, Control_c, 0, 67, 82
2, 54913, Note_on_c, 0, 78, 0
2, 54929, Control_c, 0, 67, 79
2, 54933, Note_on_c, 0, 74, 59
2, 54948, Control_c, 0, 67, 77
2, 54965, Control_c, 0, 67, 76
2, 54985, Control_c, 0, 67, 75
2, 55189, Note_on_c, 0, 45, 41
2, 55200, Control_c, 0, 64, 110
2, 55202, Note_on_c, 0, 73, 67
2, 55202, Note_on_c, 0, 74, 0
2, 55216, Control_c, 0, 64, 102
2, 55234, Control_c, 0, 64, 93
2, 55253, Control_c, 0, 64, 85
2, 55273, Control_c, 0, 64, 78
2, 55291, Control_c, 0, 64, 74
2, 55310, Control_c, 0, 64, 71
2, 55329, Control_c, 0, 64, 69
2, 55349, Control_c, 0, 64, 68
2, 55370, Control_c, 0, 64, 65
2, 55388, Control_c, 0, 64, 63
2, 55407, Control_c, 0, 64, 62
2, 55427, Control_c, 0, 64, 61
2, 55465, Control_c, 0, 64, 60
2, 55478, Note_on_c, 0, 69, 61
2, 55482, Note_on_c, 0, 49, 43
2, 55487, Control_c, 0, 64, 58
2, 55487, Control_c, 0, 67, 74
2, 55503, Control_c, 0, 64, 55
2, 55522, Control_c, 0, 64, 54
2, 55536, Note_on_c, 0, 73, 0
2, 55544, Control_c, 0, 64, 53
2, 55565, Control_c, 0, 64, 52
2, 55565, Control_c, 0, 67, 73
2, 55582, Control_c, 0, 64, 49
2, 55601, Control_c, 0, 64, 45
2, 55601, Control_c, 0, 67, 69
2, 55620, Control_c, 0, 64, 42
2, 55620, Control_c, 0, 67, 62
2, 55640, Control_c, 0, 64, 39
2, 55640, Control_c, 0, 67, 52
2, 55658, Control_c, 0, 64, 35
2, 55658, Control_c, 0, 67, 41
2, 55678, Control_c, 0, 64, 30
2, 55678, Control_c, 0, 67, 26
2, 55696, Control_c, 0, 64, 24
2, 55696, Control_c, 0, 67, 9
2, 55715, Control_c, 0, 64, 17
2, 55715, Control_c, 0, 67, 0
2, 55722, Note_on_c, 0, 52, 50
2, 55737, Control_c, 0, 64, 11
2, 55737, Note_on_c, 0, 71, 70
2, 55755, Control_c, 0, 64, 0
2, 55848, Note_on_c, 0, 49, 0
2, 55860, Note_on_c, 0, 69, 0
2, 55973, Note_on_c, 0, 45, 0
2, 56000, Note_on_c, 0, 73, 71
2, 56016, Note_on_c, 0, 57, 51
2, 56034, Note_on_c, 0, 52, 0
2, 56107, Note_on_c, 0, 71, 0
2, 56261, Note_on_c, 0, 56, 57
2, 56320, Note_on_c, 0, 57, 0
2, 56524, Note_on_c, 0, 57, 59
2, 56583, Note_on_c, 0, 56, 0
2, 56791, Note_on_c, 0, 51, 51
2, 56865, Note_on_c, 0, 57, 0
2, 57066, Note_on_c, 0, 71, 57
2, 57190, Note_on_c, 0, 73, 0
2, 57320, Note_on_c, 0, 54, 49
2, 57325, Note_on_c, 0, 69, 57
2, 57325, Note_on_c, 0, 71, 0
2, 57449, Note_on_c, 0, 54, 0
2, 57609, Note_on_c, 0, 59, 38
2, 57613, Note_on_c, 0, 68, 53
2, 57657, Note_on_c, 0, 69, 0
2, 57849, Control_c, 0, 64, 13
2, 57853, Note_on_c, 0, 69, 43
2, 57868, Control_c, 0, 64, 32
2, 57884, Control_c, 0, 64, 45
2, 57903, Control_c, 0, 64, 54
2, 57925, Control_c, 0, 64, 59
2, 57941, Control_c, 0, 64, 61
2, 57945, Note_on_c, 0, 68, 0
2, 57960, Control_c, 0, 64, 62
2, 57979, Control_c, 0, 64, 64
2, 57983, Note_on_c, 0, 59, 0
2, 58000, Control_c, 0, 64, 66
2, 58019, Control_c, 0, 64, 68
2, 58037, Control_c, 0, 64, 72
2, 58041, Note_on_c, 0, 51, 0
2, 58057, Control_c, 0, 64, 76
2, 58077, Control_c, 0, 64, 81
2, 58095, Control_c, 0, 64, 84
2, 58112, Note_on_c, 0, 66, 53
2, 58115, Control_c, 0, 64, 85
2, 58210, Control_c, 0, 64, 84
2, 58231, Control_c, 0, 64, 81
2, 58249, Control_c, 0, 64, 79
2, 58269, Control_c, 0, 64, 76
2, 58287, Control_c, 0, 64, 74
2, 58308, Control_c, 0, 64, 72
2, 58315, Note_on_c, 0, 69, 0
2, 58325, Control_c, 0, 64, 69
2, 58345, Control_c, 0, 64, 66
2, 58364, Control_c, 0, 64, 65
2, 58385, Control_c, 0, 64, 64
2, 58407, Note_on_c, 0, 40, 30
2, 58422, Note_on_c, 0, 68, 52
2, 58441, Control_c, 0, 64, 63
2, 58499, Control_c, 0, 64, 62
2, 58556, Control_c, 0, 64, 61
2, 58594, Control_c, 0, 64, 60
2, 58655, Control_c, 0, 64, 59
2, 58672, Control_c, 0, 64, 58
2, 58692, Control_c, 0, 64, 57
2, 58710, Note_on_c, 0, 44, 45
2, 58710, Note_on_c, 0, 64, 58
2, 58729, Control_c, 0, 64, 56
2, 58763, Note_on_c, 0, 68, 0
2, 58768, Control_c, 0, 64, 55
2, 58792, Note_on_c, 0, 66, 0
2, 58806, Control_c, 0, 64, 53
2, 58826, Control_c, 0, 64, 51
2, 58844, Control_c, 0, 64, 50
2, 58901, Control_c, 0, 64, 49
2, 58923, Control_c, 0, 64, 47
2, 58943, Control_c, 0, 64, 46
2, 58950, Note_on_c, 0, 66, 51
2, 58959, Control_c, 0, 64, 45
2, 58962, Note_on_c, 0, 47, 45
2, 59094, Note_on_c, 0, 44, 0
2, 59156, Note_on_c, 0, 64, 0
2, 59180, Note_on_c, 0, 40, 0
2, 59258, Note_on_c, 0, 68, 57
2, 59282, Note_on_c, 0, 52, 41
2, 59286, Control_c, 0, 64, 44
2, 59296, Note_on_c, 0, 66, 0
2, 59308, Note_on_c, 0, 47, 0
2, 59325, Control_c, 0, 64, 43
2, 59385, Control_c, 0, 64, 42
2, 59439, Control_c, 0, 64, 41
2, 59496, Control_c, 0, 64, 40
2, 59537, Control_c, 0, 64, 39
2, 59557, Note_on_c, 0, 51, 50
2, 59594, Control_c, 0, 64, 38
2, 59619, Note_on_c, 0, 52, 0
2, 59632, Control_c, 0, 64, 37
2, 59649, Control_c, 0, 64, 35
2, 59728, Control_c, 0, 64, 34
2, 59786, Control_c, 0, 64, 33
2, 59786, Note_on_c, 0, 52, 42
2, 59826, Note_on_c, 0, 51, 0
2, 59902, Control_c, 0, 64, 32
2, 59978, Control_c, 0, 64, 31
2, 59995, Control_c, 0, 64, 30
2, 60034, Control_c, 0, 64, 29
2, 60053, Control_c, 0, 64, 28
2, 60074, Control_c, 0, 64, 27
2, 60080, Note_on_c, 0, 52, 0
2, 60084, Note_on_c, 0, 45, 36
2, 60091, Control_c, 0, 64, 25
2, 60110, Control_c, 0, 64, 23
2, 60131, Control_c, 0, 64, 20
2, 60149, Control_c, 0, 64, 18
2, 60168, Control_c, 0, 64, 16
2, 60187, Control_c, 0, 64, 11
2, 60208, Control_c, 0, 64, 0
2, 60353, Note_on_c, 0, 69, 50
2, 60537, Note_on_c, 0, 68, 0
2, 60626, Note_on_c, 0, 52, 41
2, 60633, Note_on_c, 0, 71, 56
2, 60740, Note_on_c, 0, 69, 0
2, 60755, Note_on_c, 0, 52, 0
2, 60890, Note_on_c, 0, 57, 44
2, 60899, Note_on_c, 0, 73, 65
2, 60939, Note_on_c, 0, 71, 0
2, 61168, Note_on_c, 0, 73, 0
2, 61173, Note_on_c, 0, 66, 65
2, 61421, Note_on_c, 0, 69, 61
2, 61481, Note_on_c, 0, 66, 0
2, 61674, Note_on_c, 0, 47, 44
2, 61711, Note_on_c, 0, 59, 53
2, 61727, Note_on_c, 0, 45, 0
2, 61815, Note_on_c, 0, 69, 0
2, 61990, Note_on_c, 0, 63, 65
2, 62259, Note_on_c, 0, 66, 68
2, 62358, Note_on_c, 0, 59, 0
2, 62527, Note_on_c, 0, 56, 46
2, 62532, Note_on_c, 0, 71, 65
2, 62576, Note_on_c, 0, 66, 0
2, 62591, Note_on_c, 0, 63, 0
2, 62776, Note_on_c, 0, 57, 0
2, 62796, Note_on_c, 0, 69, 65
2, 62847, Note_on_c, 0, 71, 0
2, 63063, Note_on_c, 0, 71, 75
2, 63103, Note_on_c, 0, 69, 0
2, 63329, Note_on_c, 0, 61, 61
2, 63616, Note_on_c, 0, 64, 72
2, 63663, Note_on_c, 0, 71, 0
2, 63751, Note_on_c, 0, 61, 0
2, 63895, Note_on_c, 0, 68, 75
2, 64189, Note_on_c, 0, 69, 68
2, 64213, Note_on_c, 0, 64, 0
2, 64240, Note_on_c, 0, 68, 0
2, 64460, Note_on_c, 0, 54, 61
2, 64491, Note_on_c, 0, 56, 0
2, 64726, Note_on_c, 0, 52, 67
2, 64753, Note_on_c, 0, 54, 0
2, 65053, Note_on_c, 0, 51, 52
2, 65057, Note_on_c, 0, 59, 59
2, 65133, Note_on_c, 0, 52, 0
2, 65371, Note_on_c, 0, 63, 58
2, 65380, Note_on_c, 0, 69, 0
2, 65644, Note_on_c, 0, 66, 60
2, 65964, Note_on_c, 0, 69, 32
2, 65975, Note_on_c, 0, 71, 36
2, 66208, Note_on_c, 0, 71, 0
2, 66211, Note_on_c, 0, 68, 58
2, 66219, Note_on_c, 0, 69, 0
2, 66510, Note_on_c, 0, 42, 44
2, 66512, Note_on_c, 0, 69, 52
2, 66613, Note_on_c, 0, 66, 0
2, 66620, Note_on_c, 0, 68, 0
2, 66631, Note_on_c, 0, 59, 0
2, 66658, Note_on_c, 0, 63, 0
2, 66788, Note_on_c, 0, 42, 0
2, 66846, Note_on_c, 0, 43, 43
2, 66855, Note_on_c, 0, 59, 49
2, 67189, Note_on_c, 0, 63, 49
2, 67189, Note_on_c, 0, 69, 0
2, 67478, Note_on_c, 0, 66, 47
2, 67780, Note_on_c, 0, 59, 0
2, 67789, Note_on_c, 0, 52, 27
2, 67793, Note_on_c, 0, 67, 46
2, 67805, Note_on_c, 0, 66, 0
2, 67841, Note_on_c, 0, 63, 0
2, 67909, Note_on_c, 0, 51, 0
2, 67919, Note_on_c, 0, 47, 0
2, 68093, Note_on_c, 0, 45, 44
2, 68157, Note_on_c, 0, 43, 0
2, 68358, Note_on_c, 0, 47, 55
2, 68360, Note_on_c, 0, 45, 0
2, 68643, Note_on_c, 0, 47, 0
2, 68650, Note_on_c, 0, 48, 50
2, 68688, Note_on_c, 0, 52, 0
2, 68927, Note_on_c, 0, 69, 59
2, 68936, Note_on_c, 0, 54, 42
2, 68982, Note_on_c, 0, 67, 0
2, 69188, Note_on_c, 0, 67, 65
2, 69205, Note_on_c, 0, 55, 40
2, 69259, Note_on_c, 0, 69, 0
2, 69349, Note_on_c, 0, 54, 0
2, 69465, Note_on_c, 0, 66, 62
2, 69472, Note_on_c, 0, 57, 47
2, 69513, Note_on_c, 0, 55, 0
2, 69541, Note_on_c, 0, 67, 0
2, 69738, Note_on_c, 0, 67, 64
2, 69784, Note_on_c, 0, 66, 0
2, 69941, Control_c, 0, 64, 31
2, 69959, Control_c, 0, 64, 46
2, 69978, Control_c, 0, 64, 56
2, 69999, Control_c, 0, 64, 61
2, 70003, Note_on_c, 0, 64, 63
2, 70005, Note_on_c, 0, 67, 0
2, 70020, Control_c, 0, 64, 63
2, 70037, Control_c, 0, 64, 65
2, 70055, Note_on_c, 0, 64, 0
2, 70060, Control_c, 0, 64, 69
2, 70075, Control_c, 0, 64, 76
2, 70095, Control_c, 0, 64, 91
2, 70113, Control_c, 0, 64, 127
2, 70312, Note_on_c, 0, 47, 51
2, 70312, Note_on_c, 0, 64, 62
2, 70366, Note_on_c, 0, 64, 0
2, 70393, Note_on_c, 0, 48, 0
2, 70393, Note_on_c, 0, 63, 59
2, 70422, Control_c, 0, 64, 109
2, 70433, Note_on_c, 0, 63, 0
2, 70442, Control_c, 0, 64, 90
2, 70461, Control_c, 0, 64, 79
2, 70466, Note_on_c, 0, 64, 68
2, 70478, Control_c, 0, 64, 72
2, 70498, Control_c, 0, 64, 67
2, 70518, Control_c, 0, 64, 64
2, 70518, Note_on_c, 0, 63, 70
2, 70538, Control_c, 0, 64, 61
2, 70557, Control_c, 0, 64, 58
2, 70567, Note_on_c, 0, 64, 0
2, 70574, Control_c, 0, 64, 54
2, 70577, Note_on_c, 0, 57, 0
2, 70595, Control_c, 0, 64, 50
2, 70616, Control_c, 0, 64, 42
2, 70616, Note_on_c, 0, 61, 66
2, 70635, Control_c, 0, 64, 22
2, 70651, Control_c, 0, 64, 0
2, 70657, Note_on_c, 0, 63, 0
2, 70920, Control_c, 0, 64, 8
2, 70939, Note_on_c, 0, 59, 73
2, 70943, Control_c, 0, 64, 30
2, 70959, Control_c, 0, 64, 43
2, 70963, Note_on_c, 0, 61, 0
2, 70977, Control_c, 0, 64, 54
2, 70996, Control_c, 0, 64, 61
2, 71018, Control_c, 0, 64, 64
2, 71035, Control_c, 0, 64, 68
2, 71056, Control_c, 0, 64, 76
2, 71075, Control_c, 0, 64, 89
2, 71093, Control_c, 0, 64, 127
2, 71165, Note_on_c, 0, 59, 0
2, 71321, Note_on_c, 0, 72, 80
2, 71690, Note_on_c, 0, 49, 48
2, 71704, Note_on_c, 0, 71, 76
2, 71720, Note_on_c, 0, 56, 39
2, 71747, Control_c, 0, 64, 118
2, 71766, Control_c, 0, 64, 106
2, 71783, Note_on_c, 0, 72, 0
2, 71785, Control_c, 0, 64, 99
2, 71806, Control_c, 0, 64, 94
2, 71822, Control_c, 0, 64, 88
2, 71841, Control_c, 0, 64, 83
2, 71861, Control_c, 0, 64, 79
2, 71880, Control_c, 0, 64, 76
2, 71899, Control_c, 0, 64, 75
2, 71920, Control_c, 0, 64, 74
2, 71936, Control_c, 0, 64, 73
2, 71961, Control_c, 0, 64, 71
2, 71977, Control_c, 0, 64, 69
2, 71994, Control_c, 0, 64, 68
2, 72015, Control_c, 0, 64, 67
2, 72028, Note_on_c, 0, 70, 75
2, 72033, Note_on_c, 0, 54, 46
2, 72037, Control_c, 0, 64, 66
2, 72042, Note_on_c, 0, 51, 47
2, 72046, Note_on_c, 0, 56, 0
2, 72093, Control_c, 0, 64, 65
2, 72096, Note_on_c, 0, 71, 0
2, 72112, Note_on_c, 0, 47, 0
2, 72115, Control_c, 0, 64, 64
2, 72130, Control_c, 0, 64, 63
2, 72148, Control_c, 0, 64, 61
2, 72168, Control_c, 0, 64, 60
2, 72188, Control_c, 0, 64, 59
2, 72207, Control_c, 0, 64, 57
2, 72225, Control_c, 0, 64, 55
2, 72247, Control_c, 0, 64, 52
2, 72265, Control_c, 0, 64, 50
2, 72284, Control_c, 0, 64, 48
2, 72305, Control_c, 0, 64, 45
2, 72322, Control_c, 0, 64, 41
2, 72331, Note_on_c, 0, 52, 53
2, 72342, Control_c, 0, 64, 34
2, 72346, Note_on_c, 0, 69, 67
2, 72352, Note_on_c, 0, 70, 0
2, 72364, Control_c, 0, 64, 27
2, 72379, Control_c, 0, 64, 23
2, 72398, Control_c, 0, 64, 19
2, 72417, Control_c, 0, 64, 0
2, 72426, Note_on_c, 0, 54, 0
2, 72518, Note_on_c, 0, 49, 0
2, 72518, Note_on_c, 0, 51, 0
2, 72613, Note_on_c, 0, 68, 69
2, 72654, Note_on_c, 0, 69, 0
2, 72851, Note_on_c, 0, 46, 45
2, 72873, Note_on_c, 0, 67, 62
2, 72909, Note_on_c, 0, 68, 0
2, 73016, Note_on_c, 0, 46, 0
2, 73103, Note_on_c, 0, 47, 42
2, 73135, Note_on_c, 0, 67, 0
2, 73153, Note_on_c, 0, 66, 62
2, 73285, Note_on_c, 0, 68, 61
2, 73294, Note_on_c, 0, 66, 0
2, 73360, Note_on_c, 0, 52, 0
2, 73386, Note_on_c, 0, 68, 0
2, 73394, Note_on_c, 0, 51, 47
2, 73411, Note_on_c, 0, 69, 55
2, 73678, Note_on_c, 0, 69, 0
2, 73690, Note_on_c, 0, 47, 0
2, 73701, Note_on_c, 0, 57, 43
2, 73701, Note_on_c, 0, 63, 52
2, 73724, Note_on_c, 0, 51, 0
2, 74042, Note_on_c, 0, 49, 32
2, 74054, Note_on_c, 0, 56, 32
2, 74054, Note_on_c, 0, 64, 53
2, 74073, Note_on_c, 0, 63, 0
2, 74181, Note_on_c, 0, 57, 0
2, 74400, Note_on_c, 0, 52, 48
2, 74425, Note_on_c, 0, 56, 0
2, 74652, Note_on_c, 0, 56, 49
2, 74670, Note_on_c, 0, 52, 0
2, 74923, Note_on_c, 0, 57, 50
2, 74963, Note_on_c, 0, 56, 0
2, 75190, Note_on_c, 0, 56, 49
2, 75197, Note_on_c, 0, 57, 0
2, 75298, Control_c, 0, 64, 26
2, 75318, Control_c, 0, 64, 42
2, 75336, Control_c, 0, 64, 54
2, 75354, Control_c, 0, 64, 59
2, 75375, Control_c, 0, 64, 61
2, 75395, Control_c, 0, 64, 63
2, 75413, Control_c, 0, 64, 65
2, 75432, Control_c, 0, 64, 68
2, 75453, Control_c, 0, 64, 75
2, 75462, Note_on_c, 0, 57, 53
2, 75475, Control_c, 0, 64, 84
2, 75490, Control_c, 0, 64, 96
2, 75508, Control_c, 0, 64, 127
2, 75518, Note_on_c, 0, 57, 0
2, 75527, Note_on_c, 0, 56, 0
2, 75554, Note_on_c, 0, 49, 0
2, 75774, Note_on_c, 0, 44, 40
2, 75779, Control_c, 0, 64, 116
2, 75798, Control_c, 0, 64, 95
2, 75813, Note_on_c, 0, 52, 34
2, 75817, Control_c, 0, 64, 84
2, 75835, Control_c, 0, 64, 77
2, 75854, Control_c, 0, 64, 73
2, 75873, Control_c, 0, 64, 70
2, 75894, Control_c, 0, 64, 68
2, 75912, Control_c, 0, 64, 67
2, 75931, Control_c, 0, 64, 65
2, 75954, Control_c, 0, 64, 64
2, 75989, Control_c, 0, 64, 63
2, 76008, Control_c, 0, 64, 61
2, 76027, Control_c, 0, 64, 60
2, 76049, Control_c, 0, 64, 58
2, 76068, Control_c, 0, 64, 55
2, 76084, Control_c, 0, 64, 53
2, 76097, Note_on_c, 0, 56, 51
2, 76105, Control_c, 0, 64, 50
2, 76122, Control_c, 0, 64, 46
2, 76142, Control_c, 0, 64, 41
2, 76161, Control_c, 0, 64, 34
2, 76180, Control_c, 0, 64, 28
2, 76199, Control_c, 0, 64, 21
2, 76217, Control_c, 0, 64, 14
2, 76238, Control_c, 0, 64, 0
2, 76378, Note_on_c, 0, 59, 56
2, 76475, Note_on_c, 0, 56, 0
2, 76680, Note_on_c, 0, 62, 56
2, 76714, Note_on_c, 0, 59, 0
2, 76938, Note_on_c, 0, 62, 0
2, 76968, Note_on_c, 0, 61, 49
2, 77162, Control_c, 0, 64, 24
2, 77178, Control_c, 0, 64, 40
2, 77200, Control_c, 0, 64, 52
2, 77220, Control_c, 0, 64, 59
2, 77236, Control_c, 0, 64, 63
2, 77257, Control_c, 0, 64, 64
2, 77279, Control_c, 0, 64, 66
2, 77298, Control_c, 0, 64, 69
2, 77314, Control_c, 0, 64, 74
2, 77320, Note_on_c, 0, 62, 47
2, 77333, Control_c, 0, 64, 82
2, 77353, Control_c, 0, 64, 92
2, 77373, Control_c, 0, 64, 107
2, 77383, Note_on_c, 0, 61, 0
2, 77392, Control_c, 0, 64, 127
2, 77439, Note_on_c, 0, 44, 0
2, 77621, Control_c, 0, 64, 111
2, 77640, Control_c, 0, 64, 102
2, 77658, Control_c, 0, 64, 93
2, 77663, Note_on_c, 0, 45, 36
2, 77667, Note_on_c, 0, 62, 0
2, 77681, Control_c, 0, 64, 87
2, 77699, Control_c, 0, 64, 83
2, 77718, Control_c, 0, 64, 80
2, 77735, Control_c, 0, 64, 78
2, 77746, Note_on_c, 0, 61, 49
2, 77758, Control_c, 0, 64, 75
2, 77775, Control_c, 0, 64, 71
2, 77795, Control_c, 0, 64, 68
2, 77813, Control_c, 0, 64, 65
2, 77835, Control_c, 0, 64, 64
2, 77851, Control_c, 0, 64, 63
2, 77851, Note_on_c, 0, 52, 0
2, 77873, Control_c, 0, 64, 62
2, 77890, Control_c, 0, 64, 61
2, 77909, Control_c, 0, 64, 60
2, 77929, Control_c, 0, 64, 59
2, 77946, Control_c, 0, 64, 56
2, 77966, Control_c, 0, 64, 54
2, 77985, Control_c, 0, 64, 52
2, 78005, Control_c, 0, 64, 49
2, 78027, Control_c, 0, 64, 47
2, 78042, Control_c, 0, 64, 44
2, 78064, Control_c, 0, 64, 42
2, 78082, Control_c, 0, 64, 39
2, 78086, Note_on_c, 0, 49, 41
2, 78101, Control_c, 0, 64, 37
2, 78123, Control_c, 0, 64, 34
2, 78138, Control_c, 0, 64, 32
2, 78159, Control_c, 0, 64, 30
2, 78177, Control_c, 0, 64, 28
2, 78196, Control_c, 0, 64, 26
2, 78216, Control_c, 0, 64, 25
2, 78253, Control_c, 0, 64, 24
2, 78274, Control_c, 0, 64, 23
2, 78293, Control_c, 0, 64, 22
2, 78330, Control_c, 0, 64, 21
2, 78354, Note_on_c, 0, 52, 47
2, 78506, Note_on_c, 0, 49, 0
2, 78691, Note_on_c, 0, 57, 44
2, 78753, Control_c, 0, 64, 20
2, 78806, Note_on_c, 0, 52, 0
2, 79091, Note_on_c, 0, 56, 40
2, 79225, Note_on_c, 0, 57, 0
2, 79655, Note_on_c, 0, 57, 32
2, 79664, Note_on_c, 0, 63, 43
2, 79673, Note_on_c, 0, 60, 39
2, 79719, Note_on_c, 0, 64, 0
2, 79778, Note_on_c, 0, 56, 0
2, 79830, Control_c, 0, 64, 19
2, 79848, Control_c, 0, 64, 17
2, 79867, Control_c, 0, 64, 11
2, 79888, Control_c, 0, 64, 0
2, 80059, Control_c, 0, 64, 23
2, 80078, Control_c, 0, 64, 33
2, 80098, Control_c, 0, 64, 42
2, 80116, Control_c, 0, 64, 49
2, 80136, Control_c, 0, 64, 54
2, 80155, Control_c, 0, 64, 57
2, 80174, Control_c, 0, 64, 59
2, 80193, Control_c, 0, 64, 60
2, 80212, Control_c, 0, 64, 61
2, 80235, Control_c, 0, 64, 62
2, 80254, Control_c, 0, 64, 63
2, 80271, Control_c, 0, 64, 65
2, 80291, Control_c, 0, 64, 67
2, 80309, Control_c, 0, 64, 71
2, 80329, Control_c, 0, 64, 76
2, 80349, Control_c, 0, 64, 83
2, 80366, Control_c, 0, 64, 91
2, 80386, Control_c, 0, 64, 102
2, 80405, Control_c, 0, 64, 127
2, 80470, Note_on_c, 0, 61, 0
2, 81009, Note_on_c, 0, 40, 11
2, 81054, Note_on_c, 0, 64, 50
2, 81173, Control_c, 0, 64, 115
2, 81193, Control_c, 0, 64, 106
2, 81212, Control_c, 0, 64, 97
2, 81231, Control_c, 0, 64, 90
2, 81240, Note_on_c, 0, 60, 0
2, 81251, Control_c, 0, 64, 85
2, 81268, Control_c, 0, 64, 81
2, 81279, Note_on_c, 0, 63, 0
2, 81288, Control_c, 0, 64, 77
2, 81306, Control_c, 0, 64, 73
2, 81310, Note_on_c, 0, 45, 0
2, 81315, Note_on_c, 0, 57, 0
2, 81327, Control_c, 0, 64, 71
2, 81347, Control_c, 0, 64, 69
2, 81368, Control_c, 0, 64, 68
2, 81384, Control_c, 0, 64, 67
2, 81421, Control_c, 0, 64, 66
2, 81441, Control_c, 0, 64, 65
2, 81460, Control_c, 0, 64, 64
2, 81480, Control_c, 0, 64, 63
2, 81520, Control_c, 0, 64, 62
2, 81557, Control_c, 0, 64, 61
2, 81577, Control_c, 0, 64, 59
2, 81594, Control_c, 0, 64, 58
2, 81634, Control_c, 0, 64, 56
2, 81653, Control_c, 0, 64, 53
2, 81671, Control_c, 0, 64, 50
2, 81693, Control_c, 0, 64, 48
2, 81711, Control_c, 0, 64, 46
2, 81729, Control_c, 0, 64, 44
2, 81747, Control_c, 0, 64, 42
2, 81769, Control_c, 0, 64, 39
2, 81786, Control_c, 0, 64, 36
2, 81806, Control_c, 0, 64, 35
2, 81826, Control_c, 0, 64, 34
2, 81845, Note_on_c, 0, 59, 41
2, 81849, Control_c, 0, 64, 33
2, 81864, Control_c, 0, 64, 32
2, 81884, Control_c, 0, 64, 31
2, 81902, Control_c, 0, 64, 30
2, 81922, Control_c, 0, 64, 29
2, 81940, Control_c, 0, 64, 28
2, 81959, Control_c, 0, 64, 26
2, 81979, Control_c, 0, 64, 25
2, 82056, Control_c, 0, 64, 24
2, 82096, Control_c, 0, 64, 23
2, 82188, Note_on_c, 0, 56, 42
2, 82254, Note_on_c, 0, 59, 0
2, 82519, Note_on_c, 0, 59, 47
2, 82530, Note_on_c, 0, 64, 0
2, 82844, Control_c, 0, 64, 24
2, 82949, Note_on_c, 0, 64, 51
2, 83017, Note_on_c, 0, 64, 0
2, 83052, Note_on_c, 0, 63, 51
2, 83166, Note_on_c, 0, 63, 0
2, 83200, Note_on_c, 0, 64, 42
2, 83343, Control_c, 0, 64, 23
2, 83421, Control_c, 0, 64, 22
2, 83479, Control_c, 0, 64, 21
2, 83495, Control_c, 0, 64, 19
2, 83516, Control_c, 0, 64, 16
2, 83537, Control_c, 0, 64, 13
2, 83553, Control_c, 0, 64, 10
2, 83575, Control_c, 0, 64, 0
2, 84074, Control_c, 0, 64, 15
2, 84089, Control_c, 0, 64, 25
2, 84113, Control_c, 0, 64, 33
2, 84131, Control_c, 0, 64, 39
2, 84149, Control_c, 0, 64, 43
2, 84167, Control_c, 0, 64, 46
2, 84187, Control_c, 0, 64, 50
2, 84207, Control_c, 0, 64, 53
2, 84224, Control_c, 0, 64, 55
2, 84247, Control_c, 0, 64, 57
2, 84264, Control_c, 0, 64, 58
2, 84283, Control_c, 0, 64, 59
2, 84303, Control_c, 0, 64, 60
2, 84342, Control_c, 0, 64, 61
2, 84360, Control_c, 0, 64, 62
2, 84379, Control_c, 0, 64, 63
2, 84417, Control_c, 0, 64, 64
2, 84437, Control_c, 0, 64, 65
2, 84454, Control_c, 0, 64, 67
2, 84475, Control_c, 0, 64, 70
2, 84497, Control_c, 0, 64, 73
2, 84513, Control_c, 0, 64, 77
2, 84531, Control_c, 0, 64, 83
2, 84552, Control_c, 0, 64, 91
2, 84570, Control_c, 0, 64, 105
2, 84591, Control_c, 0, 64, 127
2, 86185, Note_on_c, 0, 56, 0
2, 86249, Note_on_c, 0, 64, 0
2, 86274, Note_on_c, 0, 59, 0
2, 86645, Note_on_c, 0, 40, 0
2, 86932, Control_c, 0, 64, 122
2, 86952, Control_c, 0, 64, 113
2, 86971, Control_c, 0, 64, 109
2, 86989, Control_c, 0, 64, 104
2, 87009, Control_c, 0, 64, 100
2, 87029, Control_c, 0, 64, 96
2, 87051, Control_c, 0, 64, 93
2, 87066, Control_c, 0, 64, 92
2, 87088, Control_c, 0, 64, 90
2, 87104, Control_c, 0, 64, 88
2, 87124, Control_c, 0, 64, 87
2, 87143, Control_c, 0, 64, 85
2, 87161, Control_c, 0, 64, 82
2, 87186, Control_c, 0, 64, 80
2, 87201, Control_c, 0, 64, 79
2, 87220, Control_c, 0, 64, 77
2, 87241, Control_c, 0, 64, 75
2, 87260, Control_c, 0, 64, 73
2, 87278, Control_c, 0, 64, 71
2, 87298, Control_c, 0, 64, 69
2, 87316, Control_c, 0, 64, 68
2, 87337, Control_c, 0, 64, 66
2, 87354, Control_c, 0, 64, 64
2, 87375, Control_c, 0, 64, 63
2, 87395, Control_c, 0, 64, 62
2, 87414, Control_c, 0, 64, 61
2, 87432, Control_c, 0, 64, 60
2, 87453, Control_c, 0, 64, 58
2, 87471, Control_c, 0, 64, 55
2, 87489, Control_c, 0, 64, 52
2, 87507, Control_c, 0, 64, 50
2, 87530, Control_c, 0, 64, 48
2, 87547, Control_c, 0, 64, 45
2, 87567, Control_c, 0, 64, 41
2, 87586, Control_c, 0, 64, 35
2, 87604, Control_c, 0, 64, 30
2, 87626, Control_c, 0, 64, 26
2, 87643, Control_c, 0, 64, 19
2, 87664, Control_c, 0, 64, 0
2, 88108, Note_on_c, 0, 64, 79
2, 88142, Note_on_c, 0, 64, 0
2, 88405, Note_on_c, 0, 66, 85
2, 88997, Note_on_c, 0, 66, 0
2, 89136, Note_on_c, 0, 59, 56
2, 89259, Note_on_c, 0, 59, 0
2, 89281, Note_on_c, 0, 61, 54
2, 89425, Note_on_c, 0, 61, 0
2, 89425, Note_on_c, 0, 63, 62
2, 89552, Note_on_c, 0, 63, 0
2, 89565, Note_on_c, 0, 64, 61
2, 89694, Note_on_c, 0, 64, 0
2, 89707, Note_on_c, 0, 63, 61
2, 89808, Note_on_c, 0, 63, 0
2, 89835, Note_on_c, 0, 64, 68
2, 89962, Note_on_c, 0, 66, 71
2, 89974, Note_on_c, 0, 64, 0
2, 90106, Note_on_c, 0, 68, 73
2, 90111, Note_on_c, 0, 66, 0
2, 90238, Note_on_c, 0, 69, 73
2, 90245, Note_on_c, 0, 68, 0
2, 90292, Note_on_c, 0, 69, 0
2, 90363, Note_on_c, 0, 71, 81
2, 90393, Note_on_c, 0, 71, 0
2, 90500, Note_on_c, 0, 68, 70
2, 90615, Note_on_c, 0, 68, 0
2, 90657, Note_on_c, 0, 73, 90
2, 90675, Note_on_c, 0, 64, 60
2, 90785, Note_on_c, 0, 64, 0
2, 90800, Note_on_c, 0, 63, 63
2, 90936, Note_on_c, 0, 63, 0
2, 90956, Note_on_c, 0, 64, 64
2, 91057, Note_on_c, 0, 73, 0
2, 91078, Note_on_c, 0, 64, 0
2, 91098, Note_on_c, 0, 66, 59
2, 91222, Note_on_c, 0, 66, 0
2, 91250, Note_on_c, 0, 64, 61
2, 91329, Note_on_c, 0, 64, 0
2, 91375, Note_on_c, 0, 63, 60
2, 91375, Note_on_c, 0, 66, 62
2, 91491, Note_on_c, 0, 63, 0
2, 91500, Note_on_c, 0, 66, 0
2, 91502, Note_on_c, 0, 64, 58
2, 91512, Note_on_c, 0, 68, 64
2, 91609, Note_on_c, 0, 64, 0
2, 91625, Note_on_c, 0, 68, 0
2, 91632, Note_on_c, 0, 70, 67
2, 91656, Note_on_c, 0, 66, 58
2, 91748, Note_on_c, 0, 66, 0
2, 91767, Note_on_c, 0, 70, 0
2, 91784, Note_on_c, 0, 63, 64
2, 91784, Note_on_c, 0, 71, 65
2, 91879, Note_on_c, 0, 63, 0
2, 91905, Note_on_c, 0, 70, 68
2, 91905, Note_on_c, 0, 71, 0
2, 91917, Note_on_c, 0, 61, 56
2, 92015, Note_on_c, 0, 70, 0
2, 92042, Note_on_c, 0, 63, 63
2, 92048, Note_on_c, 0, 71, 76
2, 92063, Note_on_c, 0, 61, 0
2, 92176, Note_on_c, 0, 63, 0
2, 92189, Note_on_c, 0, 73, 83
2, 92198, Note_on_c, 0, 64, 60
2, 92270, Note_on_c, 0, 71, 0
2, 92319, Note_on_c, 0, 75, 85
2, 92323, Note_on_c, 0, 64, 0
2, 92336, Note_on_c, 0, 66, 60
2, 92448, Note_on_c, 0, 76, 87
2, 92460, Note_on_c, 0, 68, 70
2, 92469, Note_on_c, 0, 66, 0
2, 92469, Note_on_c, 0, 73, 0
2, 92569, Note_on_c, 0, 68, 0
2, 92587, Note_on_c, 0, 69, 63
2, 92587, Note_on_c, 0, 75, 0
2, 92591, Note_on_c, 0, 78, 85
2, 92596, Note_on_c, 0, 76, 0
2, 92659, Note_on_c, 0, 69, 0
2, 92720, Note_on_c, 0, 75, 71
2, 92731, Note_on_c, 0, 66, 38
2, 92731, Note_on_c, 0, 78, 0
2, 92776, Note_on_c, 0, 66, 0
2, 92844, Note_on_c, 0, 68, 70
2, 92852, Note_on_c, 0, 75, 0
2, 92864, Note_on_c, 0, 71, 68
2, 92894, Note_on_c, 0, 68, 0
2, 92969, Note_on_c, 0, 71, 0
2, 92994, Note_on_c, 0, 69, 53
2, 93136, Note_on_c, 0, 59, 58
2, 93155, Note_on_c, 0, 71, 53
2, 93173, Note_on_c, 0, 59, 0
2, 93206, Note_on_c, 0, 69, 0
2, 93278, Note_on_c, 0, 71, 0
2, 93292, Note_on_c, 0, 73, 54
2, 93420, Note_on_c, 0, 64, 61
2, 93440, Note_on_c, 0, 71, 55
2, 93440, Note_on_c, 0, 73, 0
2, 93565, Note_on_c, 0, 71, 0
2, 93569, Note_on_c, 0, 69, 53
2, 93689, Note_on_c, 0, 52, 78
2, 93710, Note_on_c, 0, 71, 67
2, 93723, Note_on_c, 0, 69, 0
2, 93737, Note_on_c, 0, 52, 0
2, 93841, Note_on_c, 0, 73, 62
2, 93896, Note_on_c, 0, 71, 0
2, 93963, Note_on_c, 0, 64, 0
2, 93976, Note_on_c, 0, 54, 89
2, 93976, Note_on_c, 0, 73, 0
2, 93985, Note_on_c, 0, 69, 63
2, 94066, Note_on_c, 0, 69, 0
2, 94112, Note_on_c, 0, 68, 75
2, 94170, Note_on_c, 0, 68, 0
2, 94265, Note_on_c, 0, 63, 73
2, 94274, Note_on_c, 0, 69, 67
2, 94342, Note_on_c, 0, 63, 0
2, 94422, Note_on_c, 0, 71, 70
2, 94426, Note_on_c, 0, 69, 0
2, 94514, Note_on_c, 0, 54, 0
2, 94534, Note_on_c, 0, 71, 0
2, 94560, Note_on_c, 0, 66, 64
2, 94560, Note_on_c, 0, 69, 54
2, 94614, Note_on_c, 0, 69, 0
2, 94672, Note_on_c, 0, 47, 62
2, 94685, Note_on_c, 0, 68, 73
2, 94756, Note_on_c, 0, 47, 0
2, 94799, Note_on_c, 0, 66, 0
2, 94806, Note_on_c, 0, 49, 58
2, 94842, Note_on_c, 0, 69, 57
2, 94917, Note_on_c, 0, 68, 0
2, 94925, Note_on_c, 0, 49, 0
2, 94930, Note_on_c, 0, 51, 68
2, 94951, Note_on_c, 0, 69, 0
2, 94951, Note_on_c, 0, 71, 72
2, 95065, Note_on_c, 0, 51, 0
2, 95080, Note_on_c, 0, 52, 71
2, 95094, Note_on_c, 0, 68, 72
2, 95094, Note_on_c, 0, 71, 0
2, 95160, Note_on_c, 0, 68, 0
2, 95207, Note_on_c, 0, 66, 73
2, 95212, Note_on_c, 0, 51, 74
2, 95250, Note_on_c, 0, 52, 0
2, 95257, Note_on_c, 0, 66, 0
2, 95331, Note_on_c, 0, 51, 0
2, 95362, Note_on_c, 0, 52, 72
2, 95362, Note_on_c, 0, 68, 79
2, 95373, Note_on_c, 0, 59, 67
2, 95427, Note_on_c, 0, 59, 0
2, 95476, Note_on_c, 0, 70, 75
2, 95484, Note_on_c, 0, 54, 75
2, 95508, Note_on_c, 0, 52, 0
2, 95534, Note_on_c, 0, 68, 0
2, 95552, Note_on_c, 0, 70, 0
2, 95621, Note_on_c, 0, 56, 76
2, 95641, Note_on_c, 0, 71, 77
2, 95658, Note_on_c, 0, 54, 0
2, 95661, Note_on_c, 0, 64, 65
2, 95752, Note_on_c, 0, 64, 0
2, 95765, Note_on_c, 0, 57, 78
2, 95774, Note_on_c, 0, 56, 0
2, 95906, Note_on_c, 0, 57, 0
2, 95917, Note_on_c, 0, 63, 82
2, 95922, Note_on_c, 0, 59, 75
2, 95960, Note_on_c, 0, 63, 0
2, 96036, Note_on_c, 0, 59, 0
2, 96058, Note_on_c, 0, 56, 69
2, 96200, Note_on_c, 0, 56, 0
2, 96209, Note_on_c, 0, 61, 69
2, 96214, Note_on_c, 0, 52, 59
2, 96318, Note_on_c, 0, 52, 0
2, 96337, Note_on_c, 0, 51, 62
2, 96465, Note_on_c, 0, 51, 0
2, 96483, Note_on_c, 0, 52, 57
2, 96607, Note_on_c, 0, 52, 0
2, 96622, Note_on_c, 0, 54, 53
2, 96772, Note_on_c, 0, 54, 0
2, 96780, Note_on_c, 0, 52, 53
2, 96787, Note_on_c, 0, 70, 63
2, 96798, Note_on_c, 0, 71, 0
2, 96900, Note_on_c, 0, 52, 0
2, 96922, Note_on_c, 0, 51, 58
2, 97036, Note_on_c, 0, 61, 0
2, 97052, Note_on_c, 0, 51, 0
2, 97072, Note_on_c, 0, 52, 55
2, 97126, Note_on_c, 0, 70, 0
2, 97142, Note_on_c, 0, 52, 0
2, 97196, Note_on_c, 0, 54, 55
2, 97315, Note_on_c, 0, 54, 0
2, 97341, Note_on_c, 0, 51, 65
2, 97341, Note_on_c, 0, 59, 61
2, 97349, Note_on_c, 0, 71, 73
2, 97372, Note_on_c, 0, 59, 0
2, 97395, Note_on_c, 0, 71, 0
2, 97464, Note_on_c, 0, 51, 0
2, 97483, Note_on_c, 0, 49, 55
2, 97607, Note_on_c, 0, 83, 89
2, 97612, Note_on_c, 0, 51, 68
2, 97641, Note_on_c, 0, 83, 0
2, 97648, Note_on_c, 0, 49, 0
2, 97742, Note_on_c, 0, 51, 0
2, 97760, Note_on_c, 0, 52, 52
2, 97883, Note_on_c, 0, 52, 0
2, 97892, Note_on_c, 0, 75, 77
2, 97909, Note_on_c, 0, 54, 53
2, 97920, Note_on_c, 0, 75, 0
2, 98037, Note_on_c, 0, 56, 57
2, 98039, Note_on_c, 0, 54, 0
2, 98152, Note_on_c, 0, 56, 0
2, 98152, Note_on_c, 0, 78, 87
2, 98177, Note_on_c, 0, 57, 65
2, 98193, Note_on_c, 0, 78, 0
2, 98283, Note_on_c, 0, 57, 0
2, 98287, Note_on_c, 0, 54, 59
2, 98438, Note_on_c, 0, 54, 0
2, 98446, Note_on_c, 0, 56, 60
2, 98450, Note_on_c, 0, 71, 83
2, 98582, Note_on_c, 0, 56, 0
2, 98591, Note_on_c, 0, 54, 62
2, 98739, Note_on_c, 0, 76, 74
2, 98752, Note_on_c, 0, 54, 0
2, 98752, Note_on_c, 0, 56, 60
2, 98793, Note_on_c, 0, 76, 0
2, 98880, Note_on_c, 0, 56, 0
2, 98900, Note_on_c, 0, 57, 60
2, 99008, Note_on_c, 0, 57, 0
2, 99042, Note_on_c, 0, 68, 73
2, 99046, Note_on_c, 0, 71, 0
2, 99050, Note_on_c, 0, 59, 59
2, 99069, Note_on_c, 0, 68, 0
2, 99172, Note_on_c, 0, 59, 0
2, 99187, Note_on_c, 0, 61, 52
2, 99321, Note_on_c, 0, 71, 76
2, 99331, Note_on_c, 0, 61, 0
2, 99353, Note_on_c, 0, 62, 45
2, 99452, Note_on_c, 0, 62, 0
2, 99484, Note_on_c, 0, 59, 52
2, 99607, Note_on_c, 0, 59, 0
2, 99613, Note_on_c, 0, 64, 61
2, 99617, Note_on_c, 0, 61, 58
2, 99641, Note_on_c, 0, 64, 0
2, 99724, Note_on_c, 0, 61, 0
2, 99773, Note_on_c, 0, 59, 47
2, 99873, Note_on_c, 0, 59, 0
2, 99881, Note_on_c, 0, 61, 57
2, 99897, Note_on_c, 0, 69, 65
2, 99907, Note_on_c, 0, 66, 51
2, 99914, Note_on_c, 0, 71, 0
2, 99961, Note_on_c, 0, 66, 0
2, 100018, Note_on_c, 0, 61, 0
2, 100033, Note_on_c, 0, 63, 61
2, 100151, Note_on_c, 0, 63, 0
2, 100165, Note_on_c, 0, 68, 83
2, 100175, Note_on_c, 0, 64, 71
2, 100189, Note_on_c, 0, 69, 0
2, 100207, Note_on_c, 0, 68, 0
2, 100241, Note_on_c, 0, 64, 0
2, 100300, Note_on_c, 0, 63, 68
2, 100426, Note_on_c, 0, 63, 0
2, 100426, Note_on_c, 0, 76, 95
2, 100435, Note_on_c, 0, 61, 67
2, 100435, Note_on_c, 0, 64, 71
2, 100454, Note_on_c, 0, 64, 0
2, 100476, Note_on_c, 0, 61, 0
2, 100476, Note_on_c, 0, 76, 0
2, 100556, Note_on_c, 0, 59, 51
2, 100588, Note_on_c, 0, 59, 0
2, 100706, Note_on_c, 0, 78, 98
2, 100717, Note_on_c, 0, 57, 56
2, 100717, Note_on_c, 0, 64, 75
2, 100863, Note_on_c, 0, 56, 66
2, 100876, Note_on_c, 0, 64, 0
2, 100878, Note_on_c, 0, 57, 0
2, 100982, Note_on_c, 0, 78, 0
2, 101023, Note_on_c, 0, 57, 73
2, 101029, Note_on_c, 0, 56, 0
2, 101155, Note_on_c, 0, 59, 65
2, 101163, Note_on_c, 0, 57, 0
2, 101274, Note_on_c, 0, 63, 82
2, 101284, Note_on_c, 0, 59, 0
2, 101293, Note_on_c, 0, 57, 78
2, 101333, Note_on_c, 0, 63, 0
2, 101403, Note_on_c, 0, 57, 0
2, 101403, Note_on_c, 0, 71, 79
2, 101414, Note_on_c, 0, 56, 72
2, 101449, Note_on_c, 0, 71, 0
2, 101492, Note_on_c, 0, 56, 0
2, 101529, Note_on_c, 0, 73, 85
2, 101540, Note_on_c, 0, 57, 76
2, 101556, Note_on_c, 0, 66, 61
2, 101578, Note_on_c, 0, 73, 0
2, 101581, Note_on_c, 0, 66, 0
2, 101623, Note_on_c, 0, 57, 0
2, 101659, Note_on_c, 0, 59, 62
2, 101659, Note_on_c, 0, 75, 75
2, 101699, Note_on_c, 0, 59, 0
2, 101706, Note_on_c, 0, 75, 0
2, 101817, Note_on_c, 0, 56, 68
2, 101817, Note_on_c, 0, 59, 53
2, 101821, Note_on_c, 0, 76, 71
2, 101874, Note_on_c, 0, 56, 0
2, 101923, Note_on_c, 0, 76, 0
2, 101946, Note_on_c, 0, 75, 67
2, 102059, Note_on_c, 0, 75, 0
2, 102096, Note_on_c, 0, 76, 83
2, 102103, Note_on_c, 0, 54, 58
2, 102138, Note_on_c, 0, 59, 0
2, 102153, Note_on_c, 0, 54, 0
2, 102238, Note_on_c, 0, 78, 87
2, 102290, Note_on_c, 0, 76, 0
2, 102370, Note_on_c, 0, 80, 85
2, 102380, Note_on_c, 0, 52, 61
2, 102421, Note_on_c, 0, 52, 0
2, 102435, Note_on_c, 0, 78, 0
2, 102491, Note_on_c, 0, 81, 78
2, 102555, Note_on_c, 0, 80, 0
2, 102566, Note_on_c, 0, 81, 0
2, 102638, Note_on_c, 0, 51, 69
2, 102638, Note_on_c, 0, 83, 78
2, 102645, Note_on_c, 0, 71, 82
2, 102669, Note_on_c, 0, 51, 0
2, 102682, Note_on_c, 0, 83, 0
2, 102723, Note_on_c, 0, 71, 0
2, 102765, Note_on_c, 0, 80, 76
2, 102816, Note_on_c, 0, 80, 0
2, 102913, Note_on_c, 0, 49, 62
2, 102919, Note_on_c, 0, 73, 90
2, 102948, Note_on_c, 0, 76, 69
2, 102956, Note_on_c, 0, 49, 0
2, 103081, Note_on_c, 0, 75, 65
2, 103085, Note_on_c, 0, 76, 0
2, 103198, Note_on_c, 0, 73, 0
2, 103216, Note_on_c, 0, 59, 59
2, 103216, Note_on_c, 0, 76, 78
2, 103239, Note_on_c, 0, 75, 0
2, 103264, Note_on_c, 0, 59, 0
2, 103343, Note_on_c, 0, 76, 0
2, 103347, Note_on_c, 0, 78, 73
2, 103433, Note_on_c, 0, 78, 0
2, 103462, Note_on_c, 0, 58, 62
2, 103481, Note_on_c, 0, 76, 79
2, 103556, Note_on_c, 0, 76, 0
2, 103610, Note_on_c, 0, 75, 79
2, 103618, Note_on_c, 0, 66, 77
2, 103656, Note_on_c, 0, 66, 0
2, 103661, Note_on_c, 0, 75, 0
2, 103718, Note_on_c, 0, 58, 0
2, 103722, Note_on_c, 0, 54, 65
2, 103745, Note_on_c, 0, 68, 75
2, 103753, Note_on_c, 0, 76, 82
2, 103784, Note_on_c, 0, 68, 0
2, 103798, Note_on_c, 0, 76, 0
2, 103874, Note_on_c, 0, 70, 69
2, 103874, Note_on_c, 0, 78, 75
2, 103943, Note_on_c, 0, 78, 0
2, 104005, Note_on_c, 0, 71, 73
2, 104019, Note_on_c, 0, 59, 47
2, 104026, Note_on_c, 0, 75, 55
2, 104039, Note_on_c, 0, 70, 0
2, 104137, Note_on_c, 0, 54, 0
2, 104142, Note_on_c, 0, 71, 0
2, 104154, Note_on_c, 0, 70, 79
2, 104159, Note_on_c, 0, 75, 0
2, 104171, Note_on_c, 0, 73, 70
2, 104184, Note_on_c, 0, 59, 0
2, 104208, Note_on_c, 0, 73, 0
2, 104232, Note_on_c, 0, 70, 0
2, 104288, Note_on_c, 0, 75, 86
2, 104290, Note_on_c, 0, 71, 75
2, 104339, Note_on_c, 0, 71, 0
2, 104352, Note_on_c, 0, 75, 0
2, 104396, Note_on_c, 0, 73, 85
2, 104429, Note_on_c, 0, 76, 73
2, 104433, Note_on_c, 0, 73, 0
2, 104460, Note_on_c, 0, 76, 0
2, 104519, Note_on_c, 0, 75, 56
2, 104539, Note_on_c, 0, 78, 94
2, 104648, Note_on_c, 0, 75, 0
2, 104661, Note_on_c, 0, 76, 72
2, 104661, Note_on_c, 0, 80, 88
2, 104706, Note_on_c, 0, 78, 0
2, 104742, Note_on_c, 0, 80, 0
2, 104785, Note_on_c, 0, 76, 0
2, 104806, Note_on_c, 0, 78, 72
2, 104810, Note_on_c, 0, 81, 93
2, 104939, Note_on_c, 0, 78, 0
2, 104944, Note_on_c, 0, 75, 64
2, 105078, Note_on_c, 0, 75, 0
2, 105141, Note_on_c, 0, 71, 41
2, 105179, Note_on_c, 0, 72, 7
2, 105202, Note_on_c, 0, 72, 0
2, 105206, Note_on_c, 0, 71, 0
2, 105227, Note_on_c, 0, 69, 54
2, 105357, Note_on_c, 0, 69, 0
2, 105371, Note_on_c, 0, 71, 54
2, 105383, Note_on_c, 0, 75, 59
2, 105411, Note_on_c, 0, 75, 0
2, 105482, Note_on_c, 0, 71, 0
2, 105499, Note_on_c, 0, 73, 61
2, 105641, Note_on_c, 0, 73, 0
2, 105652, Note_on_c, 0, 80, 87
2, 105664, Note_on_c, 0, 71, 53
2, 105751, Note_on_c, 0, 81, 0
2, 105786, Note_on_c, 0, 71, 0
2, 105803, Note_on_c, 0, 69, 57
2, 105936, Note_on_c, 0, 69, 0
2, 105943, Note_on_c, 0, 71, 59
2, 106035, Note_on_c, 0, 71, 0
2, 106064, Note_on_c, 0, 73, 63
2, 106189, Note_on_c, 0, 73, 0
2, 106213, Note_on_c, 0, 69, 57
2, 106328, Note_on_c, 0, 69, 0
2, 106354, Note_on_c, 0, 68, 60
2, 106470, Note_on_c, 0, 78, 67
2, 106490, Note_on_c, 0, 68, 0
2, 106499, Note_on_c, 0, 69, 47
2, 106525, Note_on_c, 0, 80, 0
2, 106553, Note_on_c, 0, 69, 0
2, 106585, Note_on_c, 0, 78, 0
2, 106597, Note_on_c, 0, 76, 70
2, 106600, Note_on_c, 0, 71, 49
2, 106637, Note_on_c, 0, 71, 0
2, 106711, Note_on_c, 0, 69, 44
2, 106720, Note_on_c, 0, 76, 0
2, 106736, Note_on_c, 0, 75, 62
2, 106766, Note_on_c, 0, 69, 0
2, 106822, Note_on_c, 0, 68, 68
2, 106855, Note_on_c, 0, 68, 0
2, 106956, Note_on_c, 0, 75, 0
2, 106974, Note_on_c, 0, 59, 79
2, 107000, Note_on_c, 0, 69, 64
2, 107005, Note_on_c, 0, 59, 0
2, 107072, Note_on_c, 0, 69, 0
2, 107102, Note_on_c, 0, 71, 67
2, 107251, Note_on_c, 0, 61, 83
2, 107256, Note_on_c, 0, 71, 0
2, 107258, Note_on_c, 0, 68, 61
2, 107302, Note_on_c, 0, 76, 66
2, 107414, Note_on_c, 0, 76, 0
2, 107418, Note_on_c, 0, 75, 66
2, 107534, Note_on_c, 0, 68, 0
2, 107546, Note_on_c, 0, 64, 63
2, 107574, Note_on_c, 0, 64, 0
2, 107574, Note_on_c, 0, 76, 71
2, 107682, Note_on_c, 0, 75, 0
2, 107703, Note_on_c, 0, 78, 72
2, 107706, Note_on_c, 0, 76, 0
2, 107799, Note_on_c, 0, 61, 0
2, 107844, Note_on_c, 0, 76, 68
2, 107855, Note_on_c, 0, 69, 51
2, 107859, Note_on_c, 0, 78, 0
2, 107926, Note_on_c, 0, 76, 0
2, 107972, Note_on_c, 0, 54, 58
2, 107981, Note_on_c, 0, 75, 68
2, 108032, Note_on_c, 0, 69, 0
2, 108106, Note_on_c, 0, 54, 0
2, 108110, Note_on_c, 0, 56, 59
2, 108119, Note_on_c, 0, 76, 61
2, 108215, Note_on_c, 0, 75, 0
2, 108228, Note_on_c, 0, 56, 0
2, 108239, Note_on_c, 0, 57, 63
2, 108248, Note_on_c, 0, 78, 72
2, 108262, Note_on_c, 0, 76, 0
2, 108358, Note_on_c, 0, 57, 0
2, 108372, Note_on_c, 0, 59, 68
2, 108376, Note_on_c, 0, 75, 71
2, 108387, Note_on_c, 0, 78, 0
2, 108487, Note_on_c, 0, 59, 0
2, 108508, Note_on_c, 0, 57, 71
2, 108513, Note_on_c, 0, 73, 79
2, 108530, Note_on_c, 0, 75, 0
2, 108613, Note_on_c, 0, 57, 0
2, 108637, Note_on_c, 0, 59, 72
2, 108642, Note_on_c, 0, 75, 77
2, 108765, Note_on_c, 0, 59, 0
2, 108765, Note_on_c, 0, 61, 63
2, 108768, Note_on_c, 0, 76, 83
2, 108864, Note_on_c, 0, 73, 0
2, 108901, Note_on_c, 0, 61, 0
2, 108901, Note_on_c, 0, 63, 70
2, 108905, Note_on_c, 0, 78, 86
2, 108915, Note_on_c, 0, 75, 0
2, 108955, Note_on_c, 0, 76, 0
2, 108999, Note_on_c, 0, 63, 0
2, 109026, Note_on_c, 0, 64, 68
2, 109040, Note_on_c, 0, 72, 75
2, 109122, Note_on_c, 0, 64, 0
2, 109147, Note_on_c, 0, 63, 66
2, 109170, Note_on_c, 0, 72, 0
2, 109186, Note_on_c, 0, 73, 65
2, 109252, Note_on_c, 0, 63, 0
2, 109277, Note_on_c, 0, 73, 0
2, 109284, Note_on_c, 0, 61, 58
2, 109290, Note_on_c, 0, 75, 66
2, 109400, Note_on_c, 0, 61, 0
2, 109400, Note_on_c, 0, 75, 0
2, 109437, Note_on_c, 0, 68, 71
2, 109457, Note_on_c, 0, 60, 43
2, 109499, Note_on_c, 0, 78, 0
2, 109586, Note_on_c, 0, 56, 59
2, 109588, Note_on_c, 0, 60, 0
2, 109718, Note_on_c, 0, 56, 0
2, 109725, Note_on_c, 0, 58, 61
2, 109739, Note_on_c, 0, 76, 70
2, 109820, Note_on_c, 0, 58, 0
2, 109838, Note_on_c, 0, 76, 0
2, 109843, Note_on_c, 0, 60, 62
2, 109847, Note_on_c, 0, 75, 72
2, 109927, Note_on_c, 0, 60, 0
2, 109979, Note_on_c, 0, 76, 81
2, 109981, Note_on_c, 0, 61, 59
2, 109984, Note_on_c, 0, 75, 0
2, 109990, Note_on_c, 0, 68, 0
2, 110103, Note_on_c, 0, 61, 0
2, 110126, Note_on_c, 0, 63, 56
2, 110243, Note_on_c, 0, 63, 0
2, 110261, Note_on_c, 0, 73, 67
2, 110290, Note_on_c, 0, 64, 60
2, 110309, Note_on_c, 0, 73, 0
2, 110379, Note_on_c, 0, 64, 0
2, 110425, Note_on_c, 0, 61, 50
2, 110525, Note_on_c, 0, 76, 0
2, 110532, Note_on_c, 0, 61, 0
2, 110547, Note_on_c, 0, 66, 65
2, 110562, Note_on_c, 0, 57, 52
2, 110686, Note_on_c, 0, 57, 0
2, 110707, Note_on_c, 0, 56, 54
2, 110839, Note_on_c, 0, 76, 65
2, 110844, Note_on_c, 0, 56, 0
2, 110863, Note_on_c, 0, 57, 52
2, 110922, Note_on_c, 0, 66, 0
2, 110970, Note_on_c, 0, 57, 0
2, 110997, Note_on_c, 0, 59, 49
2, 111105, Note_on_c, 0, 59, 0
2, 111137, Note_on_c, 0, 57, 57
2, 111137, Note_on_c, 0, 75, 62
2, 111209, Note_on_c, 0, 76, 0
2, 111222, Note_on_c, 0, 57, 0
2, 111269, Note_on_c, 0, 56, 56
2, 111359, Note_on_c, 0, 56, 0
2, 111398, Note_on_c, 0, 57, 53
2, 111414, Note_on_c, 0, 73, 66
2, 111419, Note_on_c, 0, 75, 0
2, 111476, Note_on_c, 0, 57, 0
2, 111489, Note_on_c, 0, 73, 0
2, 111534, Note_on_c, 0, 59, 46
2, 111648, Note_on_c, 0, 59, 0
2, 111672, Note_on_c, 0, 72, 77
2, 111682, Note_on_c, 0, 56, 54
2, 111708, Note_on_c, 0, 72, 0
2, 111801, Note_on_c, 0, 56, 0
2, 111821, Note_on_c, 0, 52, 46
2, 111949, Note_on_c, 0, 52, 0
2, 111954, Note_on_c, 0, 68, 73
2, 111960, Note_on_c, 0, 54, 57
2, 111997, Note_on_c, 0, 68, 0
2, 112051, Note_on_c, 0, 54, 0
2, 112069, Note_on_c, 0, 56, 62
2, 112210, Note_on_c, 0, 56, 0
2, 112224, Note_on_c, 0, 73, 75
2, 112226, Note_on_c, 0, 57, 59
2, 112243, Note_on_c, 0, 64, 52
2, 112312, Note_on_c, 0, 57, 0
2, 112335, Note_on_c, 0, 64, 0
2, 112361, Note_on_c, 0, 59, 53
2, 112493, Note_on_c, 0, 59, 0
2, 112517, Note_on_c, 0, 61, 52
2, 112524, Note_on_c, 0, 69, 57
2, 112578, Note_on_c, 0, 61, 0
2, 112655, Note_on_c, 0, 57, 56
2, 112794, Note_on_c, 0, 54, 60
2, 112794, Note_on_c, 0, 57, 0
2, 112813, Note_on_c, 0, 63, 55
2, 112852, Note_on_c, 0, 69, 0
2, 112856, Note_on_c, 0, 63, 0
2, 112878, Note_on_c, 0, 73, 0
2, 112920, Note_on_c, 0, 54, 0
2, 112933, Note_on_c, 0, 52, 55
2, 113054, Note_on_c, 0, 75, 88
2, 113068, Note_on_c, 0, 52, 0
2, 113068, Note_on_c, 0, 66, 72
2, 113086, Note_on_c, 0, 54, 59
2, 113102, Note_on_c, 0, 66, 0
2, 113137, Note_on_c, 0, 75, 0
2, 113200, Note_on_c, 0, 56, 62
2, 113205, Note_on_c, 0, 54, 0
2, 113341, Note_on_c, 0, 56, 0
2, 113348, Note_on_c, 0, 54, 69
2, 113351, Note_on_c, 0, 68, 81
2, 113357, Note_on_c, 0, 60, 81
2, 113445, Note_on_c, 0, 60, 0
2, 113464, Note_on_c, 0, 54, 0
2, 113472, Note_on_c, 0, 52, 68
2, 113548, Note_on_c, 0, 68, 0
2, 113615, Note_on_c, 0, 54, 71
2, 113624, Note_on_c, 0, 52, 0
2, 113628, Note_on_c, 0, 63, 56
2, 113633, Note_on_c, 0, 70, 71
2, 113671, Note_on_c, 0, 63, 0
2, 113707, Note_on_c, 0, 70, 0
2, 113722, Note_on_c, 0, 56, 73
2, 113732, Note_on_c, 0, 54, 0
2, 113763, Note_on_c, 0, 56, 0
2, 113774, Note_on_c, 0, 72, 72
2, 113848, Note_on_c, 0, 72, 0
2, 113896, Note_on_c, 0, 56, 69
2, 113898, Note_on_c, 0, 73, 82
2, 113912, Note_on_c, 0, 52, 55
2, 113950, Note_on_c, 0, 56, 0
2, 113954, Note_on_c, 0, 52, 0
2, 113982, Note_on_c, 0, 73, 0
2, 114014, Note_on_c, 0, 72, 72
2, 114194, Note_on_c, 0, 51, 59
2, 114194, Note_on_c, 0, 72, 0
2, 114194, Note_on_c, 0, 73, 78
2, 114238, Note_on_c, 0, 51, 0
2, 114310, Note_on_c, 0, 75, 79
2, 114353, Note_on_c, 0, 73, 0
2, 114455, Note_on_c, 0, 76, 86
2, 114466, Note_on_c, 0, 49, 56
2, 114476, Note_on_c, 0, 75, 0
2, 114527, Note_on_c, 0, 49, 0
2, 114587, Note_on_c, 0, 78, 84
2, 114639, Note_on_c, 0, 76, 0
2, 114712, Note_on_c, 0, 52, 66
2, 114723, Note_on_c, 0, 80, 81
2, 114751, Note_on_c, 0, 52, 0
2, 114776, Note_on_c, 0, 78, 0
2, 114844, Note_on_c, 0, 76, 73
2, 114847, Note_on_c, 0, 80, 0
2, 114990, Note_on_c, 0, 76, 0
2, 114998, Note_on_c, 0, 46, 54
2, 115005, Note_on_c, 0, 73, 71
2, 115048, Note_on_c, 0, 46, 0
2, 115109, Note_on_c, 0, 73, 0
2, 115127, Note_on_c, 0, 71, 59
2, 115254, Note_on_c, 0, 56, 79
2, 115271, Note_on_c, 0, 73, 64
2, 115291, Note_on_c, 0, 56, 0
2, 115331, Note_on_c, 0, 71, 0
2, 115396, Note_on_c, 0, 75, 64
2, 115412, Note_on_c, 0, 73, 0
2, 115549, Note_on_c, 0, 55, 60
2, 115551, Note_on_c, 0, 58, 79
2, 115561, Note_on_c, 0, 73, 70
2, 115591, Note_on_c, 0, 55, 0
2, 115610, Note_on_c, 0, 75, 0
2, 115716, Note_on_c, 0, 71, 64
2, 115718, Note_on_c, 0, 73, 0
2, 115829, Note_on_c, 0, 51, 58
2, 115858, Note_on_c, 0, 71, 0
2, 115867, Note_on_c, 0, 73, 62
2, 115872, Note_on_c, 0, 51, 0
2, 116002, Note_on_c, 0, 75, 54
2, 116079, Note_on_c, 0, 73, 0
2, 116100, Note_on_c, 0, 44, 50
2, 116107, Note_on_c, 0, 75, 0
2, 116150, Note_on_c, 0, 71, 56
2, 116182, Note_on_c, 0, 44, 0
2, 116271, Note_on_c, 0, 71, 0
2, 116276, Note_on_c, 0, 70, 62
2, 116388, Note_on_c, 0, 46, 43
2, 116397, Note_on_c, 0, 70, 0
2, 116406, Note_on_c, 0, 71, 75
2, 116420, Note_on_c, 0, 58, 0
2, 116514, Note_on_c, 0, 46, 0
2, 116532, Note_on_c, 0, 73, 75
2, 116642, Note_on_c, 0, 71, 0
2, 116662, Note_on_c, 0, 47, 44
2, 116671, Note_on_c, 0, 75, 63
2, 116687, Note_on_c, 0, 56, 33
2, 116734, Note_on_c, 0, 47, 0
2, 116770, Note_on_c, 0, 73, 0
2, 116777, Note_on_c, 0, 75, 0
2, 116803, Note_on_c, 0, 76, 61
2, 116929, Note_on_c, 0, 46, 49
2, 116934, Note_on_c, 0, 76, 0
2, 116940, Note_on_c, 0, 78, 62
2, 116985, Note_on_c, 0, 46, 0
2, 117068, Note_on_c, 0, 78, 0
2, 117085, Note_on_c, 0, 75, 50
2, 117203, Note_on_c, 0, 44, 53
2, 117208, Note_on_c, 0, 56, 0
2, 117215, Note_on_c, 0, 75, 0
2, 117238, Note_on_c, 0, 71, 48
2, 117273, Note_on_c, 0, 44, 0
2, 117329, Note_on_c, 0, 71, 0
2, 117361, Note_on_c, 0, 69, 43
2, 117476, Note_on_c, 0, 54, 65
2, 117481, Note_on_c, 0, 69, 0
2, 117485, Note_on_c, 0, 71, 51
2, 117523, Note_on_c, 0, 54, 0
2, 117621, Note_on_c, 0, 71, 0
2, 117621, Note_on_c, 0, 73, 55
2, 117782, Note_on_c, 0, 53, 42
2, 117782, Note_on_c, 0, 56, 58
2, 117787, Note_on_c, 0, 71, 53
2, 117805, Note_on_c, 0, 73, 0
2, 117827, Note_on_c, 0, 53, 0
2, 117880, Note_on_c, 0, 71, 0
2, 117907, Note_on_c, 0, 69, 46
2, 118035, Note_on_c, 0, 49, 52
2, 118041, Note_on_c, 0, 69, 0
2, 118067, Note_on_c, 0, 71, 46
2, 118087, Note_on_c, 0, 49, 0
2, 118191, Note_on_c, 0, 73, 50
2, 118295, Note_on_c, 0, 71, 0
2, 118304, Note_on_c, 0, 73, 0
2, 118317, Note_on_c, 0, 42, 51
2, 118353, Note_on_c, 0, 69, 47
2, 118410, Note_on_c, 0, 42, 0
2, 118478, Note_on_c, 0, 69, 0
2, 118493, Note_on_c, 0, 68, 55
2, 118595, Note_on_c, 0, 44, 55
2, 118595, Note_on_c, 0, 68, 0
2, 118606, Note_on_c, 0, 56, 0
2, 118626, Note_on_c, 0, 69, 54
2, 118688, Note_on_c, 0, 44, 0
2, 118737, Note_on_c, 0, 71, 59
2, 118748, Note_on_c, 0, 69, 0
2, 118875, Note_on_c, 0, 73, 53
2, 118892, Note_on_c, 0, 45, 39
2, 118892, Note_on_c, 0, 54, 37
2, 118919, Note_on_c, 0, 71, 0
2, 118958, Note_on_c, 0, 45, 0
2, 119012, Note_on_c, 0, 75, 50
2, 119099, Note_on_c, 0, 75, 0
2, 119106, Note_on_c, 0, 73, 0
2, 119147, Note_on_c, 0, 76, 55
2, 119156, Note_on_c, 0, 44, 52
2, 119208, Note_on_c, 0, 44, 0
2, 119269, Note_on_c, 0, 73, 48
2, 119281, Note_on_c, 0, 76, 0
2, 119391, Note_on_c, 0, 73, 0
2, 119402, Note_on_c, 0, 42, 42
2, 119409, Note_on_c, 0, 75, 51
2, 119439, Note_on_c, 0, 54, 0
2, 119470, Note_on_c, 0, 42, 0
2, 119496, Note_on_c, 0, 75, 0
2, 119558, Note_on_c, 0, 73, 53
2, 119690, Note_on_c, 0, 52, 58
2, 119690, Note_on_c, 0, 75, 53
2, 119730, Note_on_c, 0, 52, 0
2, 119730, Note_on_c, 0, 73, 0
2, 119763, Note_on_c, 0, 75, 0
2, 119816, Note_on_c, 0, 76, 60
2, 119960, Note_on_c, 0, 51, 49
2, 119963, Note_on_c, 0, 54, 51
2, 119967, Note_on_c, 0, 78, 60
2, 119971, Note_on_c, 0, 76, 0
2, 120034, Note_on_c, 0, 51, 0
2, 120083, Note_on_c, 0, 80, 55
2, 120208, Note_on_c, 0, 78, 0
2, 120215, Note_on_c, 0, 80, 0
2, 120228, Note_on_c, 0, 49, 48
2, 120245, Note_on_c, 0, 81, 51
2, 120291, Note_on_c, 0, 49, 0
2, 120367, Note_on_c, 0, 78, 60
2, 120420, Note_on_c, 0, 81, 0
2, 120514, Note_on_c, 0, 48, 54
2, 120514, Note_on_c, 0, 80, 66
2, 120518, Note_on_c, 0, 78, 0
2, 120538, Note_on_c, 0, 54, 0
2, 120561, Note_on_c, 0, 48, 0
2, 120659, Note_on_c, 0, 78, 72
2, 120716, Note_on_c, 0, 80, 0
2, 120778, Note_on_c, 0, 78, 0
2, 120791, Note_on_c, 0, 76, 74
2, 120794, Note_on_c, 0, 44, 65
2, 120893, Note_on_c, 0, 44, 0
2, 120933, Note_on_c, 0, 75, 71
2, 120963, Note_on_c, 0, 76, 0
2, 121078, Note_on_c, 0, 52, 75
2, 121082, Note_on_c, 0, 45, 65
2, 121082, Note_on_c, 0, 73, 86
2, 121117, Note_on_c, 0, 45, 0
2, 121122, Note_on_c, 0, 52, 0
2, 121130, Note_on_c, 0, 75, 0
2, 121216, Note_on_c, 0, 71, 78
2, 121267, Note_on_c, 0, 73, 0
2, 121340, Note_on_c, 0, 61, 86
2, 121346, Note_on_c, 0, 52, 76
2, 121346, Note_on_c, 0, 71, 0
2, 121352, Note_on_c, 0, 69, 79
2, 121383, Note_on_c, 0, 52, 0
2, 121383, Note_on_c, 0, 61, 0
2, 121485, Note_on_c, 0, 68, 82
2, 121526, Note_on_c, 0, 69, 0
2, 121619, Note_on_c, 0, 63, 84
2, 121623, Note_on_c, 0, 54, 78
2, 121646, Note_on_c, 0, 66, 84
2, 121670, Note_on_c, 0, 68, 0
2, 121766, Note_on_c, 0, 52, 75
2, 121776, Note_on_c, 0, 68, 85
2, 121781, Note_on_c, 0, 54, 0
2, 121814, Note_on_c, 0, 66, 0
2, 121885, Note_on_c, 0, 68, 0
2, 121906, Note_on_c, 0, 63, 0
2, 121910, Note_on_c, 0, 69, 75
2, 121914, Note_on_c, 0, 54, 81
2, 121954, Note_on_c, 0, 52, 0
2, 121984, Note_on_c, 0, 69, 0
2, 122031, Note_on_c, 0, 66, 79
2, 122119, Note_on_c, 0, 66, 0
2, 122155, Note_on_c, 0, 54, 0
2, 122162, Note_on_c, 0, 56, 88
2, 122169, Note_on_c, 0, 63, 81
2, 122221, Note_on_c, 0, 56, 0
2, 122226, Note_on_c, 0, 63, 0
2, 122309, Note_on_c, 0, 56, 82
2, 122364, Note_on_c, 0, 56, 0
2, 122444, Note_on_c, 0, 58, 78
2, 122451, Note_on_c, 0, 44, 78
2, 122456, Note_on_c, 0, 68, 80
2, 122481, Note_on_c, 0, 58, 0
2, 122560, Note_on_c, 0, 60, 72
2, 122637, Note_on_c, 0, 68, 0
2, 122699, Note_on_c, 0, 64, 80
2, 122704, Note_on_c, 0, 61, 70
2, 122706, Note_on_c, 0, 60, 0
2, 122717, Note_on_c, 0, 49, 72
2, 122730, Note_on_c, 0, 64, 0
2, 122737, Note_on_c, 0, 61, 0
2, 122756, Note_on_c, 0, 44, 0
2, 122793, Note_on_c, 0, 49, 0
2, 122861, Note_on_c, 0, 60, 69
2, 122993, Note_on_c, 0, 61, 76
2, 122998, Note_on_c, 0, 68, 88
2, 123006, Note_on_c, 0, 60, 0
2, 123025, Note_on_c, 0, 68, 0
2, 123146, Note_on_c, 0, 63, 75
2, 123171, Note_on_c, 0, 61, 0
2, 123258, Note_on_c, 0, 73, 93
2, 123289, Note_on_c, 0, 64, 77
2, 123294, Note_on_c, 0, 63, 0
2, 123298, Note_on_c, 0, 73, 0
2, 123415, Note_on_c, 0, 64, 0
2, 123415, Note_on_c, 0, 66, 79
2, 123533, Note_on_c, 0, 66, 0
2, 123546, Note_on_c, 0, 71, 87
2, 123550, Note_on_c, 0, 68, 84
2, 123576, Note_on_c, 0, 71, 0
2, 123613, Note_on_c, 0, 68, 0
2, 123664, Note_on_c, 0, 64, 70
2, 123809, Note_on_c, 0, 76, 86
2, 123816, Note_on_c, 0, 64, 0
2, 123821, Note_on_c, 0, 61, 66
2, 123948, Note_on_c, 0, 61, 0
2, 123948, Note_on_c, 0, 75, 84
2, 123967, Note_on_c, 0, 59, 49
2, 124003, Note_on_c, 0, 60, 38
2, 124044, Note_on_c, 0, 60, 0
2, 124091, Note_on_c, 0, 73, 90
2, 124093, Note_on_c, 0, 61, 67
2, 124098, Note_on_c, 0, 59, 0
2, 124105, Note_on_c, 0, 76, 0
2, 124221, Note_on_c, 0, 75, 0
2, 124228, Note_on_c, 0, 63, 63
2, 124228, Note_on_c, 0, 71, 87
2, 124239, Note_on_c, 0, 61, 0
2, 124289, Note_on_c, 0, 73, 0
2, 124373, Note_on_c, 0, 69, 81
2, 124375, Note_on_c, 0, 63, 0
2, 124380, Note_on_c, 0, 61, 68
2, 124391, Note_on_c, 0, 71, 0
2, 124516, Note_on_c, 0, 59, 68
2, 124516, Note_on_c, 0, 61, 0
2, 124648, Note_on_c, 0, 59, 0
2, 124657, Note_on_c, 0, 61, 66
2, 124785, Note_on_c, 0, 63, 67
2, 124877, Note_on_c, 0, 61, 0
2, 124920, Note_on_c, 0, 63, 0
2, 124937, Note_on_c, 0, 59, 69
2, 125038, Note_on_c, 0, 56, 69
2, 125038, Note_on_c, 0, 59, 0
2, 125176, Note_on_c, 0, 69, 0
2, 125195, Note_on_c, 0, 57, 72
2, 125199, Note_on_c, 0, 63, 82
2, 125219, Note_on_c, 0, 56, 0
2, 125244, Note_on_c, 0, 63, 0
2, 125284, Note_on_c, 0, 57, 0
2, 125312, Note_on_c, 0, 59, 67
2, 125450, Note_on_c, 0, 59, 0
2, 125454, Note_on_c, 0, 61, 63
2, 125472, Note_on_c, 0, 69, 79
2, 125499, Note_on_c, 0, 69, 0
2, 125593, Note_on_c, 0, 61, 0
2, 125597, Note_on_c, 0, 63, 64
2, 125729, Note_on_c, 0, 63, 0
2, 125739, Note_on_c, 0, 68, 77
2, 125759, Note_on_c, 0, 64, 64
2, 125779, Note_on_c, 0, 68, 0
2, 125826, Note_on_c, 0, 64, 0
2, 125877, Note_on_c, 0, 61, 56
2, 126003, Note_on_c, 0, 61, 0
2, 126003, Note_on_c, 0, 73, 66
2, 126025, Note_on_c, 0, 57, 52
2, 126145, Note_on_c, 0, 57, 0
2, 126149, Note_on_c, 0, 71, 59
2, 126169, Note_on_c, 0, 56, 55
2, 126256, Note_on_c, 0, 71, 0
2, 126275, Note_on_c, 0, 69, 58
2, 126280, Note_on_c, 0, 73, 0
2, 126297, Note_on_c, 0, 56, 0
2, 126314, Note_on_c, 0, 57, 55
2, 126419, Note_on_c, 0, 69, 0
2, 126426, Note_on_c, 0, 68, 59
2, 126434, Note_on_c, 0, 57, 0
2, 126461, Note_on_c, 0, 59, 48
2, 126553, Note_on_c, 0, 68, 0
2, 126569, Note_on_c, 0, 66, 57
2, 126573, Note_on_c, 0, 59, 0
2, 126596, Note_on_c, 0, 57, 57
2, 126697, Note_on_c, 0, 57, 0
2, 126728, Note_on_c, 0, 56, 61
2, 126856, Note_on_c, 0, 56, 0
2, 126861, Note_on_c, 0, 57, 60
2, 126946, Note_on_c, 0, 57, 0
2, 126984, Note_on_c, 0, 59, 57
2, 127087, Note_on_c, 0, 59, 0
2, 127133, Note_on_c, 0, 56, 54
2, 127205, Note_on_c, 0, 56, 0
2, 127242, Note_on_c, 0, 54, 60
2, 127323, Note_on_c, 0, 54, 0
2, 127347, Note_on_c, 0, 66, 0
2, 127380, Note_on_c, 0, 56, 60
2, 127410, Note_on_c, 0, 64, 67
2, 127487, Note_on_c, 0, 56, 0
2, 127512, Note_on_c, 0, 57, 53
2, 127539, Note_on_c, 0, 64, 0
2, 127545, Note_on_c, 0, 63, 62
2, 127566, Note_on_c, 0, 57, 0
2, 127643, Note_on_c, 0, 56, 70
2, 127662, Note_on_c, 0, 63, 0
2, 127675, Note_on_c, 0, 56, 0
2, 127684, Note_on_c, 0, 64, 71
2, 127753, Note_on_c, 0, 64, 0
2, 127809, Note_on_c, 0, 66, 66
2, 127936, Note_on_c, 0, 52, 68
2, 127936, Note_on_c, 0, 59, 75
2, 127936, Note_on_c, 0, 66, 0
2, 127938, Note_on_c, 0, 68, 76
2, 127979, Note_on_c, 0, 52, 0
2, 128048, Note_on_c, 0, 68, 0
2, 128069, Note_on_c, 0, 64, 72
2, 128172, Note_on_c, 0, 64, 0
2, 128215, Note_on_c, 0, 54, 83
2, 128226, Note_on_c, 0, 59, 0
2, 128232, Note_on_c, 0, 61, 54
2, 128358, Note_on_c, 0, 68, 64
2, 128393, Note_on_c, 0, 61, 0
2, 128500, Note_on_c, 0, 54, 0
2, 128500, Note_on_c, 0, 57, 71
2, 128505, Note_on_c, 0, 66, 67
2, 128509, Note_on_c, 0, 68, 0
2, 128594, Note_on_c, 0, 66, 0
2, 128607, Note_on_c, 0, 57, 0
2, 128631, Note_on_c, 0, 56, 67
2, 128631, Note_on_c, 0, 64, 73
2, 128721, Note_on_c, 0, 56, 0
2, 128753, Note_on_c, 0, 57, 63
2, 128771, Note_on_c, 0, 63, 69
2, 128784, Note_on_c, 0, 64, 0
2, 128792, Note_on_c, 0, 57, 0
2, 128886, Note_on_c, 0, 63, 0
2, 128890, Note_on_c, 0, 47, 68
2, 128899, Note_on_c, 0, 61, 65
2, 128961, Note_on_c, 0, 47, 0
2, 129019, Note_on_c, 0, 49, 62
2, 129042, Note_on_c, 0, 59, 69
2, 129059, Note_on_c, 0, 61, 0
2, 129133, Note_on_c, 0, 59, 0
2, 129146, Note_on_c, 0, 51, 69
2, 129150, Note_on_c, 0, 49, 0
2, 129156, Note_on_c, 0, 57, 71
2, 129266, Note_on_c, 0, 51, 0
2, 129281, Note_on_c, 0, 52, 64
2, 129287, Note_on_c, 0, 57, 0
2, 129293, Note_on_c, 0, 56, 75
2, 129355, Note_on_c, 0, 56, 0
2, 129386, Note_on_c, 0, 52, 0
2, 129406, Note_on_c, 0, 51, 70
2, 129436, Note_on_c, 0, 59, 72
2, 129501, Note_on_c, 0, 51, 0
2, 129535, Note_on_c, 0, 52, 61
2, 129547, Note_on_c, 0, 59, 0
2, 129565, Note_on_c, 0, 61, 71
2, 129682, Note_on_c, 0, 52, 0
2, 129702, Note_on_c, 0, 63, 75
2, 129709, Note_on_c, 0, 54, 48
2, 129720, Note_on_c, 0, 61, 0
2, 129794, Note_on_c, 0, 63, 0
2, 129815, Note_on_c, 0, 56, 53
2, 129819, Note_on_c, 0, 54, 0
2, 129827, Note_on_c, 0, 64, 76
2, 129918, Note_on_c, 0, 64, 0
2, 129935, Note_on_c, 0, 56, 0
2, 129954, Note_on_c, 0, 57, 60
2, 129956, Note_on_c, 0, 66, 77
2, 130041, Note_on_c, 0, 57, 0
2, 130089, Note_on_c, 0, 68, 89
2, 130106, Note_on_c, 0, 59, 62
2, 130118, Note_on_c, 0, 66, 0
2, 130156, Note_on_c, 0, 68, 0
2, 130189, Note_on_c, 0, 59, 0
2, 130216, Note_on_c, 0, 64, 74
2, 130229, Note_on_c, 0, 56, 61
2, 130366, Note_on_c, 0, 73, 97
2, 130369, Note_on_c, 0, 56, 0
2, 130386, Note_on_c, 0, 52, 61
2, 130417, Note_on_c, 0, 64, 0
2, 130496, Note_on_c, 0, 52, 0
2, 130516, Note_on_c, 0, 51, 61
2, 130646, Note_on_c, 0, 51, 0
2, 130671, Note_on_c, 0, 52, 57
2, 130743, Note_on_c, 0, 52, 0
2, 130775, Note_on_c, 0, 54, 57
2, 130888, Note_on_c, 0, 54, 0
2, 130911, Note_on_c, 0, 52, 62
2, 130979, Note_on_c, 0, 52, 0
2, 131026, Note_on_c, 0, 51, 67
2, 131061, Note_on_c, 0, 66, 61
2, 131068, Note_on_c, 0, 73, 0
2, 131098, Note_on_c, 0, 51, 0
2, 131151, Note_on_c, 0, 52, 58
2, 131172, Note_on_c, 0, 68, 65
2, 131181, Note_on_c, 0, 66, 0
2, 131234, Note_on_c, 0, 52, 0
2, 131269, Note_on_c, 0, 54, 53
2, 131287, Note_on_c, 0, 68, 0
2, 131310, Note_on_c, 0, 70, 60
2, 131340, Note_on_c, 0, 54, 0
2, 131378, Note_on_c, 0, 70, 0
2, 131420, Note_on_c, 0, 51, 66
2, 131433, Note_on_c, 0, 71, 68
2, 131457, Note_on_c, 0, 51, 0
2, 131532, Note_on_c, 0, 71, 0
2, 131555, Note_on_c, 0, 70, 69
2, 131659, Note_on_c, 0, 70, 0
2, 131707, Note_on_c, 0, 54, 65
2, 131707, Note_on_c, 0, 71, 74
2, 131757, Note_on_c, 0, 54, 0
2, 131803, Note_on_c, 0, 71, 0
2, 131829, Note_on_c, 0, 73, 78
2, 131969, Note_on_c, 0, 75, 81
2, 131976, Note_on_c, 0, 47, 77
2, 131996, Note_on_c, 0, 73, 0
2, 132015, Note_on_c, 0, 47, 0
2, 132042, Note_on_c, 0, 75, 0
2, 132112, Note_on_c, 0, 76, 67
2, 132128, Note_on_c, 0, 77, 61
2, 132165, Note_on_c, 0, 77, 0
2, 132242, Note_on_c, 0, 64, 93
2, 132244, Note_on_c, 0, 78, 80
2, 132257, Note_on_c, 0, 52, 74
2, 132257, Note_on_c, 0, 76, 0
2, 132298, Note_on_c, 0, 78, 0
2, 132351, Note_on_c, 0, 80, 78
2, 132394, Note_on_c, 0, 64, 0
2, 132398, Note_on_c, 0, 80, 0
2, 132529, Note_on_c, 0, 66, 88
2, 132535, Note_on_c, 0, 69, 70
2, 132632, Note_on_c, 0, 52, 0
2, 132638, Note_on_c, 0, 69, 0
2, 132678, Note_on_c, 0, 68, 83
2, 132770, Note_on_c, 0, 66, 0
2, 132807, Note_on_c, 0, 51, 77
2, 132807, Note_on_c, 0, 69, 74
2, 132883, Note_on_c, 0, 68, 0
2, 132927, Note_on_c, 0, 51, 0
2, 132937, Note_on_c, 0, 49, 74
2, 132940, Note_on_c, 0, 71, 77
2, 132962, Note_on_c, 0, 69, 0
2, 133011, Note_on_c, 0, 71, 0
2, 133022, Note_on_c, 0, 49, 0
2, 133081, Note_on_c, 0, 69, 78
2, 133085, Note_on_c, 0, 51, 74
2, 133130, Note_on_c, 0, 69, 0
2, 133201, Note_on_c, 0, 68, 86
2, 133205, Note_on_c, 0, 59, 79
2, 133237, Note_on_c, 0, 59, 0
2, 133259, Note_on_c, 0, 68, 0
2, 133336, Note_on_c, 0, 69, 79
2, 133340, Note_on_c, 0, 61, 70
2, 133345, Note_on_c, 0, 59, 61
2, 133357, Note_on_c, 0, 51, 0
2, 133375, Note_on_c, 0, 61, 0
2, 133390, Note_on_c, 0, 69, 0
2, 133451, Note_on_c, 0, 63, 77
2, 133455, Note_on_c, 0, 71, 73
2, 133505, Note_on_c, 0, 71, 0
2, 133528, Note_on_c, 0, 63, 0
2, 133560, Note_on_c, 0, 59, 0
2, 133607, Note_on_c, 0, 64, 82
2, 133621, Note_on_c, 0, 68, 72
2, 133634, Note_on_c, 0, 61, 82
2, 133666, Note_on_c, 0, 68, 0
2, 133671, Note_on_c, 0, 64, 0
2, 133741, Note_on_c, 0, 63, 78
2, 133745, Note_on_c, 0, 66, 71
2, 133785, Note_on_c, 0, 66, 0
2, 133808, Note_on_c, 0, 63, 0
2, 133869, Note_on_c, 0, 68, 83
2, 133889, Note_on_c, 0, 64, 65
2, 133918, Note_on_c, 0, 68, 0
2, 133924, Note_on_c, 0, 64, 0
2, 133986, Note_on_c, 0, 66, 78
2, 134011, Note_on_c, 0, 69, 65
2, 134029, Note_on_c, 0, 66, 0
2, 134044, Note_on_c, 0, 69, 0
2, 134146, Note_on_c, 0, 68, 91
2, 134157, Note_on_c, 0, 71, 76
2, 134191, Note_on_c, 0, 71, 0
2, 134201, Note_on_c, 0, 61, 0
2, 134205, Note_on_c, 0, 68, 0
2, 134261, Note_on_c, 0, 73, 81
2, 134272, Note_on_c, 0, 69, 68
2, 134318, Note_on_c, 0, 69, 0
2, 134329, Note_on_c, 0, 73, 0
2, 134403, Note_on_c, 0, 71, 81
2, 134412, Note_on_c, 0, 74, 84
2, 134416, Note_on_c, 0, 56, 81
2, 134457, Note_on_c, 0, 71, 0
2, 134461, Note_on_c, 0, 56, 0
2, 134542, Note_on_c, 0, 68, 79
2, 134588, Note_on_c, 0, 74, 0
2, 134659, Note_on_c, 0, 68, 0
2, 134682, Note_on_c, 0, 64, 84
2, 134703, Note_on_c, 0, 57, 69
2, 134765, Note_on_c, 0, 57, 0
2, 134814, Note_on_c, 0, 63, 79
2, 134843, Note_on_c, 0, 64, 0
2, 134873, Note_on_c, 0, 63, 0
2, 134950, Note_on_c, 0, 73, 90
2, 134957, Note_on_c, 0, 64, 79
2, 134961, Note_on_c, 0, 56, 70
2, 134995, Note_on_c, 0, 56, 0
2, 135000, Note_on_c, 0, 64, 0
2, 135066, Note_on_c, 0, 66, 75
2, 135075, Note_on_c, 0, 71, 72
2, 135079, Note_on_c, 0, 73, 0
2, 135181, Note_on_c, 0, 71, 0
2, 135228, Note_on_c, 0, 66, 0
2, 135228, Note_on_c, 0, 73, 91
2, 135233, Note_on_c, 0, 64, 83
2, 135242, Note_on_c, 0, 57, 67
2, 135283, Note_on_c, 0, 57, 0
2, 135349, Note_on_c, 0, 64, 0
2, 135381, Note_on_c, 0, 63, 61
2, 135513, Note_on_c, 0, 64, 56
2, 135518, Note_on_c, 0, 63, 0
2, 135539, Note_on_c, 0, 52, 62
2, 135580, Note_on_c, 0, 52, 0
2, 135635, Note_on_c, 0, 64, 0
2, 135661, Note_on_c, 0, 66, 59
2, 135808, Note_on_c, 0, 54, 65
2, 135808, Note_on_c, 0, 63, 60
2, 135847, Note_on_c, 0, 54, 0
2, 135850, Note_on_c, 0, 66, 0
2, 135929, Note_on_c, 0, 63, 0
2, 135933, Note_on_c, 0, 61, 48
2, 136038, Note_on_c, 0, 61, 0
2, 136092, Note_on_c, 0, 63, 56
2, 136127, Note_on_c, 0, 57, 43
2, 136141, Note_on_c, 0, 73, 0
2, 136170, Note_on_c, 0, 57, 0
2, 136204, Note_on_c, 0, 63, 0
2, 136208, Note_on_c, 0, 64, 63
2, 136339, Note_on_c, 0, 64, 0
2, 136380, Note_on_c, 0, 71, 70
2, 136382, Note_on_c, 0, 56, 55
2, 136391, Note_on_c, 0, 66, 66
2, 136422, Note_on_c, 0, 56, 0
2, 136454, Note_on_c, 0, 66, 0
2, 136518, Note_on_c, 0, 68, 62
2, 136658, Note_on_c, 0, 54, 60
2, 136662, Note_on_c, 0, 68, 0
2, 136686, Note_on_c, 0, 69, 45
2, 136708, Note_on_c, 0, 54, 0
2, 136756, Note_on_c, 0, 69, 0
2, 136790, Note_on_c, 0, 66, 55
2, 136902, Note_on_c, 0, 66, 0
2, 136934, Note_on_c, 0, 52, 59
2, 136948, Note_on_c, 0, 62, 59
2, 136974, Note_on_c, 0, 52, 0
2, 137077, Note_on_c, 0, 62, 0
2, 137083, Note_on_c, 0, 61, 59
2, 137221, Note_on_c, 0, 54, 57
2, 137225, Note_on_c, 0, 62, 66
2, 137234, Note_on_c, 0, 61, 0
2, 137263, Note_on_c, 0, 54, 0
2, 137354, Note_on_c, 0, 64, 72
2, 137367, Note_on_c, 0, 62, 0
2, 137378, Note_on_c, 0, 71, 0
2, 137499, Note_on_c, 0, 56, 55
2, 137506, Note_on_c, 0, 71, 84
2, 137519, Note_on_c, 0, 64, 0
2, 137528, Note_on_c, 0, 62, 64
2, 137553, Note_on_c, 0, 56, 0
2, 137624, Note_on_c, 0, 62, 0
2, 137664, Note_on_c, 0, 61, 60
2, 137769, Note_on_c, 0, 52, 60
2, 137805, Note_on_c, 0, 62, 49
2, 137812, Note_on_c, 0, 52, 0
2, 137819, Note_on_c, 0, 61, 0
2, 137910, Note_on_c, 0, 62, 0
2, 137950, Note_on_c, 0, 64, 55
2, 138053, Note_on_c, 0, 57, 63
2, 138079, Note_on_c, 0, 61, 56
2, 138088, Note_on_c, 0, 64, 0
2, 138094, Note_on_c, 0, 57, 0
2, 138174, Note_on_c, 0, 61, 0
2, 138194, Note_on_c, 0, 59, 50
2, 138262, Note_on_c, 0, 59, 0
2, 138325, Note_on_c, 0, 59, 66
2, 138340, Note_on_c, 0, 61, 51
2, 138364, Note_on_c, 0, 59, 0
2, 138364, Note_on_c, 0, 71, 0
2, 138390, Note_on_c, 0, 61, 0
2, 138457, Note_on_c, 0, 62, 57
2, 138600, Note_on_c, 0, 62, 0
2, 138613, Note_on_c, 0, 69, 59
2, 138619, Note_on_c, 0, 61, 57
2, 138640, Note_on_c, 0, 64, 47
2, 138661, Note_on_c, 0, 61, 0
2, 138683, Note_on_c, 0, 64, 0
2, 138774, Note_on_c, 0, 66, 50
2, 138908, Note_on_c, 0, 59, 60
2, 138908, Note_on_c, 0, 68, 53
2, 138947, Note_on_c, 0, 59, 0
2, 138957, Note_on_c, 0, 66, 0
2, 138978, Note_on_c, 0, 68, 0
2, 139040, Note_on_c, 0, 64, 57
2, 139133, Note_on_c, 0, 64, 0
2, 139196, Note_on_c, 0, 57, 55
2, 139203, Note_on_c, 0, 61, 48
2, 139240, Note_on_c, 0, 57, 0
2, 139293, Note_on_c, 0, 61, 0
2, 139328, Note_on_c, 0, 59, 61
2, 139392, Note_on_c, 0, 69, 0
2, 139460, Note_on_c, 0, 52, 65
2, 139472, Note_on_c, 0, 61, 49
2, 139506, Note_on_c, 0, 52, 0
2, 139576, Note_on_c, 0, 61, 0
2, 139576, Note_on_c, 0, 62, 67
2, 139583, Note_on_c, 0, 59, 0
2, 139623, Note_on_c, 0, 62, 0
2, 139740, Note_on_c, 0, 54, 66
2, 139742, Note_on_c, 0, 69, 71
2, 139755, Note_on_c, 0, 61, 58
2, 139782, Note_on_c, 0, 54, 0
2, 139875, Note_on_c, 0, 61, 0
2, 139889, Note_on_c, 0, 59, 64
2, 140026, Note_on_c, 0, 49, 64
2, 140029, Note_on_c, 0, 61, 63
2, 140045, Note_on_c, 0, 59, 0
2, 140073, Note_on_c, 0, 49, 0
2, 140154, Note_on_c, 0, 61, 0
2, 140158, Note_on_c, 0, 62, 70
2, 140165, Note_on_c, 0, 69, 0
2, 140280, Note_on_c, 0, 62, 0
2, 140300, Note_on_c, 0, 59, 77
2, 140316, Note_on_c, 0, 51, 69
2, 140365, Note_on_c, 0, 51, 0
2, 140439, Note_on_c, 0, 57, 76
2, 140450, Note_on_c, 0, 59, 0
2, 140559, Note_on_c, 0, 57, 0
2, 140565, Note_on_c, 0, 47, 73
2, 140578, Note_on_c, 0, 59, 76
2, 140607, Note_on_c, 0, 47, 0
2, 140716, Note_on_c, 0, 61, 58
2, 140757, Note_on_c, 0, 59, 0
2, 140841, Note_on_c, 0, 59, 68
2, 140841, Note_on_c, 0, 68, 89
2, 140848, Note_on_c, 0, 61, 0
2, 140852, Note_on_c, 0, 52, 54
2, 140882, Note_on_c, 0, 68, 0
2, 140923, Note_on_c, 0, 59, 0
2, 140985, Note_on_c, 0, 57, 60
2, 141112, Note_on_c, 0, 57, 0
2, 141112, Note_on_c, 0, 76, 95
2, 141121, Note_on_c, 0, 59, 62
2, 141138, Note_on_c, 0, 76, 0
2, 141235, Note_on_c, 0, 59, 0
2, 141247, Note_on_c, 0, 61, 62
2, 141405, Note_on_c, 0, 61, 0
2, 141420, Note_on_c, 0, 78, 94
2, 141433, Note_on_c, 0, 57, 59
2, 141547, Note_on_c, 0, 57, 0
2, 141556, Note_on_c, 0, 56, 60
2, 141594, Note_on_c, 0, 52, 0
2, 141699, Note_on_c, 0, 57, 67
2, 141735, Note_on_c, 0, 56, 0
2, 141815, Note_on_c, 0, 57, 0
2, 141824, Note_on_c, 0, 59, 62
2, 141856, Note_on_c, 0, 78, 0
2, 141882, Note_on_c, 0, 59, 0
2, 141956, Note_on_c, 0, 51, 61
2, 141971, Note_on_c, 0, 57, 60
2, 142044, Note_on_c, 0, 57, 0
2, 142100, Note_on_c, 0, 56, 54
2, 142108, Note_on_c, 0, 71, 61
2, 142215, Note_on_c, 0, 56, 0
2, 142224, Note_on_c, 0, 57, 55
2, 142240, Note_on_c, 0, 73, 66
2, 142253, Note_on_c, 0, 71, 0
2, 142369, Note_on_c, 0, 73, 0
2, 142374, Note_on_c, 0, 57, 0
2, 142378, Note_on_c, 0, 75, 59
2, 142391, Note_on_c, 0, 59, 44
2, 142491, Note_on_c, 0, 59, 0
2, 142497, Note_on_c, 0, 75, 0
2, 142503, Note_on_c, 0, 56, 62
2, 142517, Note_on_c, 0, 76, 65
2, 142563, Note_on_c, 0, 56, 0
2, 142643, Note_on_c, 0, 75, 70
2, 142658, Note_on_c, 0, 76, 0
2, 142773, Note_on_c, 0, 75, 0
2, 142779, Note_on_c, 0, 51, 0
2, 142799, Note_on_c, 0, 59, 63
2, 142799, Note_on_c, 0, 76, 84
2, 142836, Note_on_c, 0, 59, 0
2, 142927, Note_on_c, 0, 78, 81
2, 142990, Note_on_c, 0, 76, 0
2, 143067, Note_on_c, 0, 80, 84
2, 143074, Note_on_c, 0, 49, 54
2, 143076, Note_on_c, 0, 52, 52
2, 143190, Note_on_c, 0, 81, 80
2, 143250, Note_on_c, 0, 78, 0
2, 143323, Note_on_c, 0, 52, 0
2, 143339, Note_on_c, 0, 83, 83
2, 143344, Note_on_c, 0, 80, 0
2, 143351, Note_on_c, 0, 49, 0
2, 143351, Note_on_c, 0, 56, 64
2, 143376, Note_on_c, 0, 81, 0
2, 143406, Note_on_c, 0, 56, 0
2, 143466, Note_on_c, 0, 80, 86
2, 143503, Note_on_c, 0, 83, 0
2, 143620, Note_on_c, 0, 42, 56
2, 143625, Note_on_c, 0, 81, 84
2, 143664, Note_on_c, 0, 80, 0
2, 143785, Note_on_c, 0, 80, 91
2, 143823, Note_on_c, 0, 81, 0
2, 143924, Note_on_c, 0, 54, 67
2, 143945, Note_on_c, 0, 42, 0
2, 143945, Note_on_c, 0, 81, 89
2, 144071, Note_on_c, 0, 83, 86
2, 144080, Note_on_c, 0, 49, 57
2, 144082, Note_on_c, 0, 80, 0
2, 144109, Note_on_c, 0, 81, 0
2, 144210, Note_on_c, 0, 51, 67
2, 144210, Note_on_c, 0, 81, 87
2, 144215, Note_on_c, 0, 49, 0
2, 144215, Note_on_c, 0, 54, 0
2, 144264, Note_on_c, 0, 51, 0
2, 144347, Note_on_c, 0, 80, 90
2, 144373, Note_on_c, 0, 83, 0
2, 144384, Note_on_c, 0, 81, 0
2, 144492, Note_on_c, 0, 47, 60
2, 144492, Note_on_c, 0, 81, 84
2, 144555, Note_on_c, 0, 47, 0
2, 144604, Note_on_c, 0, 83, 85
2, 144616, Note_on_c, 0, 80, 0
2, 144664, Note_on_c, 0, 81, 0
2, 144753, Note_on_c, 0, 52, 69
2, 144760, Note_on_c, 0, 80, 90
2, 144785, Note_on_c, 0, 83, 0
2, 144808, Note_on_c, 0, 52, 0
2, 144893, Note_on_c, 0, 78, 88
2, 144927, Note_on_c, 0, 80, 0
2, 145030, Note_on_c, 0, 80, 84
2, 145039, Note_on_c, 0, 47, 67
2, 145094, Note_on_c, 0, 47, 0
2, 145144, Note_on_c, 0, 81, 81
2, 145188, Note_on_c, 0, 80, 0
2, 145213, Note_on_c, 0, 78, 0
2, 145317, Note_on_c, 0, 52, 74
2, 145317, Note_on_c, 0, 80, 90
2, 145336, Note_on_c, 0, 49, 43
2, 145392, Note_on_c, 0, 81, 0
2, 145403, Note_on_c, 0, 49, 0
2, 145450, Note_on_c, 0, 78, 88
2, 145540, Note_on_c, 0, 80, 0
2, 145595, Note_on_c, 0, 76, 81
2, 145602, Note_on_c, 0, 78, 0
2, 145607, Note_on_c, 0, 44, 89
2, 145700, Note_on_c, 0, 44, 0
2, 145724, Note_on_c, 0, 75, 76
2, 145749, Note_on_c, 0, 76, 0
2, 145890, Note_on_c, 0, 52, 0
2, 145895, Note_on_c, 0, 45, 93
2, 145897, Note_on_c, 0, 73, 74
2, 145927, Note_on_c, 0, 75, 0
2, 146008, Note_on_c, 0, 71, 79
2, 146023, Note_on_c, 0, 73, 0
2, 146068, Note_on_c, 0, 71, 0
2, 146169, Note_on_c, 0, 73, 84
2, 146173, Note_on_c, 0, 64, 85
2, 146187, Note_on_c, 0, 45, 0
2, 146248, Note_on_c, 0, 64, 0
2, 146303, Note_on_c, 0, 74, 82
2, 146307, Note_on_c, 0, 40, 78
2, 146307, Note_on_c, 0, 73, 0
2, 146461, Note_on_c, 0, 40, 0
2, 146479, Note_on_c, 0, 69, 90
2, 146488, Note_on_c, 0, 42, 70
2, 146493, Note_on_c, 0, 73, 72
2, 146501, Note_on_c, 0, 74, 0
2, 146570, Note_on_c, 0, 42, 0
2, 146642, Note_on_c, 0, 71, 80
2, 146644, Note_on_c, 0, 73, 0
2, 146769, Note_on_c, 0, 37, 70
2, 146790, Note_on_c, 0, 73, 85
2, 146838, Note_on_c, 0, 37, 0
2, 146895, Note_on_c, 0, 71, 0
2, 146913, Note_on_c, 0, 74, 77
2, 146942, Note_on_c, 0, 73, 0
2, 147043, Note_on_c, 0, 39, 76
2, 147064, Note_on_c, 0, 71, 83
2, 147075, Note_on_c, 0, 39, 0
2, 147078, Note_on_c, 0, 74, 0
2, 147184, Note_on_c, 0, 73, 84
2, 147293, Note_on_c, 0, 69, 0
2, 147339, Note_on_c, 0, 75, 89
2, 147347, Note_on_c, 0, 59, 78
2, 147351, Note_on_c, 0, 71, 0
2, 147377, Note_on_c, 0, 73, 0
2, 147379, Note_on_c, 0, 59, 0
2, 147490, Note_on_c, 0, 71, 74
2, 147685, Note_on_c, 0, 61, 73
2, 147685, Note_on_c, 0, 76, 93
2, 147689, Note_on_c, 0, 71, 0
2, 147691, Note_on_c, 0, 75, 0
2, 147696, Note_on_c, 0, 68, 68
2, 147742, Note_on_c, 0, 68, 0
2, 147860, Note_on_c, 0, 64, 78
2, 148012, Note_on_c, 0, 66, 79
2, 148020, Note_on_c, 0, 64, 0
2, 148155, Note_on_c, 0, 68, 85
2, 148185, Note_on_c, 0, 66, 0
2, 148250, Note_on_c, 0, 68, 0
2, 148291, Note_on_c, 0, 69, 82
2, 148441, Note_on_c, 0, 71, 89
2, 148455, Note_on_c, 0, 54, 57
2, 148462, Note_on_c, 0, 76, 0
2, 148487, Note_on_c, 0, 69, 0
2, 148556, Note_on_c, 0, 61, 0
2, 148615, Note_on_c, 0, 73, 97
2, 148631, Note_on_c, 0, 56, 67
2, 148648, Note_on_c, 0, 71, 0
2, 148773, Note_on_c, 0, 57, 73
2, 148800, Note_on_c, 0, 54, 0
2, 148832, Note_on_c, 0, 56, 0
2, 148961, Note_on_c, 0, 59, 81
2, 148977, Note_on_c, 0, 75, 90
2, 148981, Note_on_c, 0, 57, 0
2, 149002, Note_on_c, 0, 59, 0
2, 149013, Note_on_c, 0, 73, 0
2, 149152, Note_on_c, 0, 73, 87
2, 149368, Note_on_c, 0, 47, 70
2, 149372, Note_on_c, 0, 71, 87
2, 149397, Note_on_c, 0, 47, 0
2, 149443, Note_on_c, 0, 73, 0
2, 149573, Note_on_c, 0, 69, 83
2, 149573, Note_on_c, 0, 71, 0
2, 149896, Note_on_c, 0, 76, 95
2, 149909, Note_on_c, 0, 40, 62
2, 149951, Note_on_c, 0, 75, 0
2, 150268, Note_on_c, 0, 68, 81
2, 150290, Note_on_c, 0, 69, 0
2, 150305, Note_on_c, 0, 68, 0
2, 150546, Note_on_c, 0, 66, 86
2, 150580, Note_on_c, 0, 66, 0
2, 150869, Note_on_c, 0, 68, 82
2, 150948, Note_on_c, 0, 68, 0
2, 150952, Note_on_c, 0, 66, 83
2, 151045, Note_on_c, 0, 68, 80
2, 151050, Note_on_c, 0, 66, 0
2, 152019, Control_c, 0, 64, 13
2, 152038, Control_c, 0, 64, 27
2, 152056, Control_c, 0, 64, 37
2, 152076, Control_c, 0, 64, 45
2, 152096, Control_c, 0, 64, 51
2, 152117, Control_c, 0, 64, 54
2, 152136, Control_c, 0, 64, 57
2, 152153, Control_c, 0, 64, 59
2, 152173, Control_c, 0, 64, 61
2, 152194, Control_c, 0, 64, 62
2, 152209, Control_c, 0, 64, 63
2, 152229, Control_c, 0, 64, 64
2, 152250, Control_c, 0, 64, 67
2, 152271, Control_c, 0, 64, 73
2, 152287, Control_c, 0, 64, 81
2, 152307, Control_c, 0, 64, 93
2, 152325, Control_c, 0, 64, 127
2, 153067, Note_on_c, 0, 76, 0
2, 153076, Note_on_c, 0, 68, 0
2, 153102, Note_on_c, 0, 40, 0
2, 153267, Control_c, 0, 64, 109
2, 153286, Control_c, 0, 64, 90
2, 153305, Control_c, 0, 64, 77
2, 153327, Control_c, 0, 64, 69
2, 153343, Control_c, 0, 64, 64
2, 153362, Control_c, 0, 64, 61
2, 153381, Control_c, 0, 64, 59
2, 153400, Control_c, 0, 64, 58
2, 153421, Control_c, 0, 64, 55
2, 153438, Control_c, 0, 64, 51
2, 153458, Control_c, 0, 64, 45
2, 153478, Control_c, 0, 64, 39
2, 153497, Control_c, 0, 64, 34
2, 153517, Control_c, 0, 64, 22
2, 153534, Control_c, 0, 64, 0
2, 153535, End_track
0, 0, End_of_file
