0, 0, Header, 1, 2, 480
1, 0, Start_track
1, 0, Tempo, 500000
1, 0, Time_signature, 4, 2, 24, 8
1, 1, End_track
2,0,Start_track
2,0, Note_on_c, 0, 64, 79
2,34, Note_on_c, 0, 64, 0
2,297, Note_on_c, 0, 66, 85
2,889, Note_on_c, 0, 66, 0
2,1028, Note_on_c, 0, 59, 56
2,1151, Note_on_c, 0, 59, 0
2,1173, Note_on_c, 0, 61, 54
2,1317, Note_on_c, 0, 61, 0
2,1317, Note_on_c, 0, 63, 62
2,1444, Note_on_c, 0, 63, 0
2,1457, Note_on_c, 0, 64, 61
2,1586, Note_on_c, 0, 64, 0
2,1599, Note_on_c, 0, 63, 61
2,1700, Note_on_c, 0, 63, 0
2,1727, Note_on_c, 0, 64, 68
2,1854, Note_on_c, 0, 66, 71
2,1866, Note_on_c, 0, 64, 0
2,1998, Note_on_c, 0, 68, 73
2,2003, Note_on_c, 0, 66, 0
2,2130, Note_on_c, 0, 69, 73
2,2137, Note_on_c, 0, 68, 0
2,2184, Note_on_c, 0, 69, 0
2,2255, Note_on_c, 0, 71, 81
2,2285, Note_on_c, 0, 71, 0
2,2392, Note_on_c, 0, 68, 70
2,2507, Note_on_c, 0, 68, 0
2,2549, Note_on_c, 0, 73, 90
2,2567, Note_on_c, 0, 64, 60
2,2677, Note_on_c, 0, 64, 0
2,2692, Note_on_c, 0, 63, 63
2,2828, Note_on_c, 0, 63, 0
2,2848, Note_on_c, 0, 64, 64
2,2949, Note_on_c, 0, 73, 0
2,2970, Note_on_c, 0, 64, 0
2,2990, Note_on_c, 0, 66, 59
2,3114, Note_on_c, 0, 66, 0
2,3142, Note_on_c, 0, 64, 61
2,3221, Note_on_c, 0, 64, 0
2,3267, Note_on_c, 0, 63, 60
2,3267, Note_on_c, 0, 66, 62
2,3383, Note_on_c, 0, 63, 0
2,3392, Note_on_c, 0, 66, 0
2,3394, Note_on_c, 0, 64, 58
2,3404, Note_on_c, 0, 68, 64
2,3501, Note_on_c, 0, 64, 0
2,3517, Note_on_c, 0, 68, 0
2,3524, Note_on_c, 0, 70, 67
2,3548, Note_on_c, 0, 66, 58
2,3640, Note_on_c, 0, 66, 0
2,3659, Note_on_c, 0, 70, 0
2,3676, Note_on_c, 0, 63, 64
2,3676, Note_on_c, 0, 71, 65
2,3771, Note_on_c, 0, 63, 0
2,3797, Note_on_c, 0, 70, 68
2,3797, Note_on_c, 0, 71, 0
2,3809, Note_on_c, 0, 61, 56
2,3907, Note_on_c, 0, 70, 0
2,3934, Note_on_c, 0, 63, 63
2,3940, Note_on_c, 0, 71, 76
2,3955, Note_on_c, 0, 61, 0
2,4068, Note_on_c, 0, 63, 0
2,4081, Note_on_c, 0, 73, 83
2,4090, Note_on_c, 0, 64, 60
2,4162, Note_on_c, 0, 71, 0
2,4211, Note_on_c, 0, 75, 85
2,4215, Note_on_c, 0, 64, 0
2,4228, Note_on_c, 0, 66, 60
2,4340, Note_on_c, 0, 76, 87
2,4352, Note_on_c, 0, 68, 70
2,4361, Note_on_c, 0, 66, 0
2,4361, Note_on_c, 0, 73, 0
2,4461, Note_on_c, 0, 68, 0
2,4479, Note_on_c, 0, 69, 63
2,4479, Note_on_c, 0, 75, 0
2,4483, Note_on_c, 0, 78, 85
2,4488, Note_on_c, 0, 76, 0
2,4551, Note_on_c, 0, 69, 0
2,4612, Note_on_c, 0, 75, 71
2,4623, Note_on_c, 0, 66, 38
2,4623, Note_on_c, 0, 78, 0
2,4668, Note_on_c, 0, 66, 0
2,4736, Note_on_c, 0, 68, 70
2,4744, Note_on_c, 0, 75, 0
2,4756, Note_on_c, 0, 71, 68
2,4786, Note_on_c, 0, 68, 0
2,4861, Note_on_c, 0, 71, 0
2,4886, Note_on_c, 0, 69, 53
2,5028, Note_on_c, 0, 59, 58
2,5047, Note_on_c, 0, 71, 53
2,5065, Note_on_c, 0, 59, 0
2,5098, Note_on_c, 0, 69, 0
2,5170, Note_on_c, 0, 71, 0
2,5184, Note_on_c, 0, 73, 54
2,5312, Note_on_c, 0, 64, 61
2,5332, Note_on_c, 0, 71, 55
2,5332, Note_on_c, 0, 73, 0
2,5457, Note_on_c, 0, 71, 0
2,5461, Note_on_c, 0, 69, 53
2,5581, Note_on_c, 0, 52, 78
2,5602, Note_on_c, 0, 71, 67
2,5615, Note_on_c, 0, 69, 0
2,5629, Note_on_c, 0, 52, 0
2,5733, Note_on_c, 0, 73, 62
2,5788, Note_on_c, 0, 71, 0
2,5855, Note_on_c, 0, 64, 0
2,5868, Note_on_c, 0, 54, 89
2,5868, Note_on_c, 0, 73, 0
2,5877, Note_on_c, 0, 69, 63
2,5958, Note_on_c, 0, 69, 0
2,6004, Note_on_c, 0, 68, 75
2,6062, Note_on_c, 0, 68, 0
2,6157, Note_on_c, 0, 63, 73
2,6166, Note_on_c, 0, 69, 67
2,6234, Note_on_c, 0, 63, 0
2,6314, Note_on_c, 0, 71, 70
2,6318, Note_on_c, 0, 69, 0
2,6406, Note_on_c, 0, 54, 0
2,6426, Note_on_c, 0, 71, 0
2,6452, Note_on_c, 0, 66, 64
2,6452, Note_on_c, 0, 69, 54
2,6506, Note_on_c, 0, 69, 0
2,6564, Note_on_c, 0, 47, 62
2,6577, Note_on_c, 0, 68, 73
2,6648, Note_on_c, 0, 47, 0
2,6691, Note_on_c, 0, 66, 0
2,6698, Note_on_c, 0, 49, 58
2,6734, Note_on_c, 0, 69, 57
2,6809, Note_on_c, 0, 68, 0
2,6817, Note_on_c, 0, 49, 0
2,6822, Note_on_c, 0, 51, 68
2,6843, Note_on_c, 0, 69, 0
2,6843, Note_on_c, 0, 71, 72
2,6957, Note_on_c, 0, 51, 0
2,6972, Note_on_c, 0, 52, 71
2,6986, Note_on_c, 0, 68, 72
2,6986, Note_on_c, 0, 71, 0
2,7052, Note_on_c, 0, 68, 0
2,7099, Note_on_c, 0, 66, 73
2,7104, Note_on_c, 0, 51, 74
2,7142, Note_on_c, 0, 52, 0
2,7149, Note_on_c, 0, 66, 0
2,7223, Note_on_c, 0, 51, 0
2,7254, Note_on_c, 0, 52, 72
2,7254, Note_on_c, 0, 68, 79
2,7265, Note_on_c, 0, 59, 67
2,7319, Note_on_c, 0, 59, 0
2,7368, Note_on_c, 0, 70, 75
2,7376, Note_on_c, 0, 54, 75
2,7400, Note_on_c, 0, 52, 0
2,7426, Note_on_c, 0, 68, 0
2,7444, Note_on_c, 0, 70, 0
2,7513, Note_on_c, 0, 56, 76
2,7533, Note_on_c, 0, 71, 77
2,7550, Note_on_c, 0, 54, 0
2,7553, Note_on_c, 0, 64, 65
2,7644, Note_on_c, 0, 64, 0
2,7657, Note_on_c, 0, 57, 78
2,7666, Note_on_c, 0, 56, 0
2,7798, Note_on_c, 0, 57, 0
2,7809, Note_on_c, 0, 63, 82
2,7814, Note_on_c, 0, 59, 75
2,7852, Note_on_c, 0, 63, 0
2,7928, Note_on_c, 0, 59, 0
2,7950, Note_on_c, 0, 56, 69
2,8092, Note_on_c, 0, 56, 0
2,8101, Note_on_c, 0, 61, 69
2,8106, Note_on_c, 0, 52, 59
2,8210, Note_on_c, 0, 52, 0
2,8229, Note_on_c, 0, 51, 62
2,8357, Note_on_c, 0, 51, 0
2,8375, Note_on_c, 0, 52, 57
2,8499, Note_on_c, 0, 52, 0
2,8514, Note_on_c, 0, 54, 53
2,8664, Note_on_c, 0, 54, 0
2,8672, Note_on_c, 0, 52, 53
2,8679, Note_on_c, 0, 70, 63
2,8690, Note_on_c, 0, 71, 0
2,8792, Note_on_c, 0, 52, 0
2,8814, Note_on_c, 0, 51, 58
2,8928, Note_on_c, 0, 61, 0
2,8944, Note_on_c, 0, 51, 0
2,8964, Note_on_c, 0, 52, 55
2,9018, Note_on_c, 0, 70, 0
2,9034, Note_on_c, 0, 52, 0
2,9088, Note_on_c, 0, 54, 55
2,9207, Note_on_c, 0, 54, 0
2,9233, Note_on_c, 0, 51, 65
2,9233, Note_on_c, 0, 59, 61
2,9241, Note_on_c, 0, 71, 73
2,9264, Note_on_c, 0, 59, 0
2,9287, Note_on_c, 0, 71, 0
2,9356, Note_on_c, 0, 51, 0
2,9375, Note_on_c, 0, 49, 55
2,9499, Note_on_c, 0, 83, 89
2,9504, Note_on_c, 0, 51, 68
2,9533, Note_on_c, 0, 83, 0
2,9540, Note_on_c, 0, 49, 0
2,9634, Note_on_c, 0, 51, 0
2,9652, Note_on_c, 0, 52, 52
2,9775, Note_on_c, 0, 52, 0
2,9784, Note_on_c, 0, 75, 77
2,9801, Note_on_c, 0, 54, 53
2,9812, Note_on_c, 0, 75, 0
2,9929, Note_on_c, 0, 56, 57
2,9931, Note_on_c, 0, 54, 0
2,10044, Note_on_c, 0, 56, 0
2,10044, Note_on_c, 0, 78, 87
2,10069, Note_on_c, 0, 57, 65
2,10085, Note_on_c, 0, 78, 0
2,10175, Note_on_c, 0, 57, 0
2,10179, Note_on_c, 0, 54, 59
2,10330, Note_on_c, 0, 54, 0
2,10338, Note_on_c, 0, 56, 60
2,10342, Note_on_c, 0, 71, 83
2,10474, Note_on_c, 0, 56, 0
2,10483, Note_on_c, 0, 54, 62
2,10631, Note_on_c, 0, 76, 74
2,10644, Note_on_c, 0, 54, 0
2,10644, Note_on_c, 0, 56, 60
2,10685, Note_on_c, 0, 76, 0
2,10772, Note_on_c, 0, 56, 0
2,10792, Note_on_c, 0, 57, 60
2,10900, Note_on_c, 0, 57, 0
2,10934, Note_on_c, 0, 68, 73
2,10938, Note_on_c, 0, 71, 0
2,10942, Note_on_c, 0, 59, 59
2,10961, Note_on_c, 0, 68, 0
2,11064, Note_on_c, 0, 59, 0
2,11079, Note_on_c, 0, 61, 52
2,11213, Note_on_c, 0, 71, 76
2,11223, Note_on_c, 0, 61, 0
2,11245, Note_on_c, 0, 62, 45
2,11344, Note_on_c, 0, 62, 0
2,11376, Note_on_c, 0, 59, 52
2,11499, Note_on_c, 0, 59, 0
2,11505, Note_on_c, 0, 64, 61
2,11509, Note_on_c, 0, 61, 58
2,11533, Note_on_c, 0, 64, 0
2,11616, Note_on_c, 0, 61, 0
2,11665, Note_on_c, 0, 59, 47
2,11765, Note_on_c, 0, 59, 0
2,11773, Note_on_c, 0, 61, 57
2,11789, Note_on_c, 0, 69, 65
2,11799, Note_on_c, 0, 66, 51
2,11806, Note_on_c, 0, 71, 0
2,11853, Note_on_c, 0, 66, 0
2,11910, Note_on_c, 0, 61, 0
2,11925, Note_on_c, 0, 63, 61
2,12043, Note_on_c, 0, 63, 0
2,12057, Note_on_c, 0, 68, 83
2,12067, Note_on_c, 0, 64, 71
2,12081, Note_on_c, 0, 69, 0
2,12099, Note_on_c, 0, 68, 0
2,12133, Note_on_c, 0, 64, 0
2,12192, Note_on_c, 0, 63, 68
2,12318, Note_on_c, 0, 63, 0
2,12318, Note_on_c, 0, 76, 95
2,12327, Note_on_c, 0, 61, 67
2,12327, Note_on_c, 0, 64, 71
2,12346, Note_on_c, 0, 64, 0
2,12368, Note_on_c, 0, 61, 0
2,12368, Note_on_c, 0, 76, 0
2,12448, Note_on_c, 0, 59, 51
2,12480, Note_on_c, 0, 59, 0
2,12598, Note_on_c, 0, 78, 98
2,12609, Note_on_c, 0, 57, 56
2,12609, Note_on_c, 0, 64, 75
2,12755, Note_on_c, 0, 56, 66
2,12768, Note_on_c, 0, 64, 0
2,12770, Note_on_c, 0, 57, 0
2,12874, Note_on_c, 0, 78, 0
2,12915, Note_on_c, 0, 57, 73
2,12921, Note_on_c, 0, 56, 0
2,13047, Note_on_c, 0, 59, 65
2,13055, Note_on_c, 0, 57, 0
2,13166, Note_on_c, 0, 63, 82
2,13176, Note_on_c, 0, 59, 0
2,13185, Note_on_c, 0, 57, 78
2,13225, Note_on_c, 0, 63, 0
2,13295, Note_on_c, 0, 57, 0
2,13295, Note_on_c, 0, 71, 79
2,13306, Note_on_c, 0, 56, 72
2,13341, Note_on_c, 0, 71, 0
2,13384, Note_on_c, 0, 56, 0
2,13421, Note_on_c, 0, 73, 85
2,13432, Note_on_c, 0, 57, 76
2,13448, Note_on_c, 0, 66, 61
2,13470, Note_on_c, 0, 73, 0
2,13473, Note_on_c, 0, 66, 0
2,13515, Note_on_c, 0, 57, 0
2,13551, Note_on_c, 0, 59, 62
2,13551, Note_on_c, 0, 75, 75
2,13591, Note_on_c, 0, 59, 0
2,13598, Note_on_c, 0, 75, 0
2,13709, Note_on_c, 0, 56, 68
2,13709, Note_on_c, 0, 59, 53
2,13713, Note_on_c, 0, 76, 71
2,13766, Note_on_c, 0, 56, 0
2,13815, Note_on_c, 0, 76, 0
2,13838, Note_on_c, 0, 75, 67
2,13951, Note_on_c, 0, 75, 0
2,13988, Note_on_c, 0, 76, 83
2,13995, Note_on_c, 0, 54, 58
2,14030, Note_on_c, 0, 59, 0
2,14045, Note_on_c, 0, 54, 0
2,14130, Note_on_c, 0, 78, 87
2,14182, Note_on_c, 0, 76, 0
2,14262, Note_on_c, 0, 80, 85
2,14272, Note_on_c, 0, 52, 61
2,14313, Note_on_c, 0, 52, 0
2,14327, Note_on_c, 0, 78, 0
2,14383, Note_on_c, 0, 81, 78
2,14447, Note_on_c, 0, 80, 0
2,14458, Note_on_c, 0, 81, 0
2,14530, Note_on_c, 0, 51, 69
2,14530, Note_on_c, 0, 83, 78
2,14537, Note_on_c, 0, 71, 82
2,14561, Note_on_c, 0, 51, 0
2,14574, Note_on_c, 0, 83, 0
2,14615, Note_on_c, 0, 71, 0
2,14657, Note_on_c, 0, 80, 76
2,14708, Note_on_c, 0, 80, 0
2,14805, Note_on_c, 0, 49, 62
2,14811, Note_on_c, 0, 73, 90
2,14840, Note_on_c, 0, 76, 69
2,14848, Note_on_c, 0, 49, 0
2,14973, Note_on_c, 0, 75, 65
2,14977, Note_on_c, 0, 76, 0
2,15090, Note_on_c, 0, 73, 0
2,15108, Note_on_c, 0, 59, 59
2,15108, Note_on_c, 0, 76, 78
2,15131, Note_on_c, 0, 75, 0
2,15156, Note_on_c, 0, 59, 0
2,15235, Note_on_c, 0, 76, 0
2,15239, Note_on_c, 0, 78, 73
2,15325, Note_on_c, 0, 78, 0
2,15354, Note_on_c, 0, 58, 62
2,15373, Note_on_c, 0, 76, 79
2,15448, Note_on_c, 0, 76, 0
2,15502, Note_on_c, 0, 75, 79
2,15510, Note_on_c, 0, 66, 77
2,15548, Note_on_c, 0, 66, 0
2,15553, Note_on_c, 0, 75, 0
2,15610, Note_on_c, 0, 58, 0
2,15614, Note_on_c, 0, 54, 65
2,15637, Note_on_c, 0, 68, 75
2,15645, Note_on_c, 0, 76, 82
2,15676, Note_on_c, 0, 68, 0
2,15690, Note_on_c, 0, 76, 0
2,15766, Note_on_c, 0, 70, 69
2,15766, Note_on_c, 0, 78, 75
2,15835, Note_on_c, 0, 78, 0
2,15897, Note_on_c, 0, 71, 73
2,15911, Note_on_c, 0, 59, 47
2,15918, Note_on_c, 0, 75, 55
2,15931, Note_on_c, 0, 70, 0
2,16029, Note_on_c, 0, 54, 0
2,16034, Note_on_c, 0, 71, 0
2,16046, Note_on_c, 0, 70, 79
2,16051, Note_on_c, 0, 75, 0
2,16063, Note_on_c, 0, 73, 70
2,16076, Note_on_c, 0, 59, 0
2,16100, Note_on_c, 0, 73, 0
2,16124, Note_on_c, 0, 70, 0
2,16180, Note_on_c, 0, 75, 86
2,16182, Note_on_c, 0, 71, 75
2,16231, Note_on_c, 0, 71, 0
2,16244, Note_on_c, 0, 75, 0
2,16288, Note_on_c, 0, 73, 85
2,16321, Note_on_c, 0, 76, 73
2,16325, Note_on_c, 0, 73, 0
2,16352, Note_on_c, 0, 76, 0
2,16411, Note_on_c, 0, 75, 56
2,16431, Note_on_c, 0, 78, 94
2,16540, Note_on_c, 0, 75, 0
2,16553, Note_on_c, 0, 76, 72
2,16553, Note_on_c, 0, 80, 88
2,16598, Note_on_c, 0, 78, 0
2,16634, Note_on_c, 0, 80, 0
2,16677, Note_on_c, 0, 76, 0
2,16698, Note_on_c, 0, 78, 72
2,16702, Note_on_c, 0, 81, 93
2,16831, Note_on_c, 0, 78, 0
2,16836, Note_on_c, 0, 75, 64
2,16970, Note_on_c, 0, 75, 0
2,17033, Note_on_c, 0, 71, 41
2,17071, Note_on_c, 0, 72, 7
2,17094, Note_on_c, 0, 72, 0
2,17098, Note_on_c, 0, 71, 0
2,17119, Note_on_c, 0, 69, 54
2,17249, Note_on_c, 0, 69, 0
2,17263, Note_on_c, 0, 71, 54
2,17275, Note_on_c, 0, 75, 59
2,17303, Note_on_c, 0, 75, 0
2,17374, Note_on_c, 0, 71, 0
2,17391, Note_on_c, 0, 73, 61
2,17533, Note_on_c, 0, 73, 0
2,17544, Note_on_c, 0, 80, 87
2,17556, Note_on_c, 0, 71, 53
2,17643, Note_on_c, 0, 81, 0
2,17678, Note_on_c, 0, 71, 0
2,17695, Note_on_c, 0, 69, 57
2,17828, Note_on_c, 0, 69, 0
2,17835, Note_on_c, 0, 71, 59
2,17927, Note_on_c, 0, 71, 0
2,17956, Note_on_c, 0, 73, 63
2,18081, Note_on_c, 0, 73, 0
2,18105, Note_on_c, 0, 69, 57
2,18220, Note_on_c, 0, 69, 0
2,18246, Note_on_c, 0, 68, 60
2,18362, Note_on_c, 0, 78, 67
2,18382, Note_on_c, 0, 68, 0
2,18391, Note_on_c, 0, 69, 47
2,18417, Note_on_c, 0, 80, 0
2,18445, Note_on_c, 0, 69, 0
2,18477, Note_on_c, 0, 78, 0
2,18489, Note_on_c, 0, 76, 70
2,18492, Note_on_c, 0, 71, 49
2,18529, Note_on_c, 0, 71, 0
2,18603, Note_on_c, 0, 69, 44
2,18612, Note_on_c, 0, 76, 0
2,18628, Note_on_c, 0, 75, 62
2,18658, Note_on_c, 0, 69, 0
2,18714, Note_on_c, 0, 68, 68
2,18747, Note_on_c, 0, 68, 0
2,18848, Note_on_c, 0, 75, 0
2,18866, Note_on_c, 0, 59, 79
2,18892, Note_on_c, 0, 69, 64
2,18897, Note_on_c, 0, 59, 0
2,18964, Note_on_c, 0, 69, 0
2,18994, Note_on_c, 0, 71, 67
2,19143, Note_on_c, 0, 61, 83
2,19148, Note_on_c, 0, 71, 0
2,19150, Note_on_c, 0, 68, 61
2,19194, Note_on_c, 0, 76, 66
2,19306, Note_on_c, 0, 76, 0
2,19310, Note_on_c, 0, 75, 66
2,19426, Note_on_c, 0, 68, 0
2,19438, Note_on_c, 0, 64, 63
2,19466, Note_on_c, 0, 64, 0
2,19466, Note_on_c, 0, 76, 71
2,19574, Note_on_c, 0, 75, 0
2,19595, Note_on_c, 0, 78, 72
2,19598, Note_on_c, 0, 76, 0
2,19691, Note_on_c, 0, 61, 0
2,19736, Note_on_c, 0, 76, 68
2,19747, Note_on_c, 0, 69, 51
2,19751, Note_on_c, 0, 78, 0
2,19818, Note_on_c, 0, 76, 0
2,19864, Note_on_c, 0, 54, 58
2,19873, Note_on_c, 0, 75, 68
2,19924, Note_on_c, 0, 69, 0
2,19998, Note_on_c, 0, 54, 0
2,20002, Note_on_c, 0, 56, 59
2,20011, Note_on_c, 0, 76, 61
2,20107, Note_on_c, 0, 75, 0
2,20120, Note_on_c, 0, 56, 0
2,20131, Note_on_c, 0, 57, 63
2,20140, Note_on_c, 0, 78, 72
2,20154, Note_on_c, 0, 76, 0
2,20250, Note_on_c, 0, 57, 0
2,20264, Note_on_c, 0, 59, 68
2,20268, Note_on_c, 0, 75, 71
2,20279, Note_on_c, 0, 78, 0
2,20379, Note_on_c, 0, 59, 0
2,20400, Note_on_c, 0, 57, 71
2,20405, Note_on_c, 0, 73, 79
2,20422, Note_on_c, 0, 75, 0
2,20505, Note_on_c, 0, 57, 0
2,20529, Note_on_c, 0, 59, 72
2,20534, Note_on_c, 0, 75, 77
2,20657, Note_on_c, 0, 59, 0
2,20657, Note_on_c, 0, 61, 63
2,20660, Note_on_c, 0, 76, 83
2,20756, Note_on_c, 0, 73, 0
2,20793, Note_on_c, 0, 61, 0
2,20793, Note_on_c, 0, 63, 70
2,20797, Note_on_c, 0, 78, 86
2,20807, Note_on_c, 0, 75, 0
2,20847, Note_on_c, 0, 76, 0
2,20891, Note_on_c, 0, 63, 0
2,20918, Note_on_c, 0, 64, 68
2,20932, Note_on_c, 0, 72, 75
2,21014, Note_on_c, 0, 64, 0
2,21039, Note_on_c, 0, 63, 66
2,21062, Note_on_c, 0, 72, 0
2,21078, Note_on_c, 0, 73, 65
2,21144, Note_on_c, 0, 63, 0
2,21169, Note_on_c, 0, 73, 0
2,21176, Note_on_c, 0, 61, 58
2,21182, Note_on_c, 0, 75, 66
2,21292, Note_on_c, 0, 61, 0
2,21292, Note_on_c, 0, 75, 0
2,21329, Note_on_c, 0, 68, 71
2,21349, Note_on_c, 0, 60, 43
2,21391, Note_on_c, 0, 78, 0
2,21478, Note_on_c, 0, 56, 59
2,21480, Note_on_c, 0, 60, 0
2,21610, Note_on_c, 0, 56, 0
2,21617, Note_on_c, 0, 58, 61
2,21631, Note_on_c, 0, 76, 70
2,21712, Note_on_c, 0, 58, 0
2,21730, Note_on_c, 0, 76, 0
2,21735, Note_on_c, 0, 60, 62
2,21739, Note_on_c, 0, 75, 72
2,21819, Note_on_c, 0, 60, 0
2,21871, Note_on_c, 0, 76, 81
2,21873, Note_on_c, 0, 61, 59
2,21876, Note_on_c, 0, 75, 0
2,21882, Note_on_c, 0, 68, 0
2,21995, Note_on_c, 0, 61, 0
2,22018, Note_on_c, 0, 63, 56
2,22135, Note_on_c, 0, 63, 0
2,22153, Note_on_c, 0, 73, 67
2,22182, Note_on_c, 0, 64, 60
2,22201, Note_on_c, 0, 73, 0
2,22271, Note_on_c, 0, 64, 0
2,22317, Note_on_c, 0, 61, 50
2,22417, Note_on_c, 0, 76, 0
2,22424, Note_on_c, 0, 61, 0
2,22439, Note_on_c, 0, 66, 65
2,22454, Note_on_c, 0, 57, 52
2,22578, Note_on_c, 0, 57, 0
2,22599, Note_on_c, 0, 56, 54
2,22731, Note_on_c, 0, 76, 65
2,22736, Note_on_c, 0, 56, 0
2,22755, Note_on_c, 0, 57, 52
2,22814, Note_on_c, 0, 66, 0
2,22862, Note_on_c, 0, 57, 0
2,22889, Note_on_c, 0, 59, 49
2,22997, Note_on_c, 0, 59, 0
2,23029, Note_on_c, 0, 57, 57
2,23029, Note_on_c, 0, 75, 62
2,23101, Note_on_c, 0, 76, 0
2,23114, Note_on_c, 0, 57, 0
2,23161, Note_on_c, 0, 56, 56
2,23251, Note_on_c, 0, 56, 0
2,23290, Note_on_c, 0, 57, 53
2,23306, Note_on_c, 0, 73, 66
2,23311, Note_on_c, 0, 75, 0
2,23368, Note_on_c, 0, 57, 0
2,23381, Note_on_c, 0, 73, 0
2,23426, Note_on_c, 0, 59, 46
2,23540, Note_on_c, 0, 59, 0
2,23564, Note_on_c, 0, 72, 77
2,23574, Note_on_c, 0, 56, 54
2,23600, Note_on_c, 0, 72, 0
2,23693, Note_on_c, 0, 56, 0
2,23713, Note_on_c, 0, 52, 46
2,23841, Note_on_c, 0, 52, 0
2,23846, Note_on_c, 0, 68, 73
2,23852, Note_on_c, 0, 54, 57
2,23889, Note_on_c, 0, 68, 0
2,23943, Note_on_c, 0, 54, 0
2,23961, Note_on_c, 0, 56, 62
2,24102, Note_on_c, 0, 56, 0
2,24116, Note_on_c, 0, 73, 75
2,24118, Note_on_c, 0, 57, 59
2,24135, Note_on_c, 0, 64, 52
2,24204, Note_on_c, 0, 57, 0
2,24227, Note_on_c, 0, 64, 0
2,24253, Note_on_c, 0, 59, 53
2,24385, Note_on_c, 0, 59, 0
2,24409, Note_on_c, 0, 61, 52
2,24416, Note_on_c, 0, 69, 57
2,24470, Note_on_c, 0, 61, 0
2,24547, Note_on_c, 0, 57, 56
2,24686, Note_on_c, 0, 54, 60
2,24686, Note_on_c, 0, 57, 0
2,24705, Note_on_c, 0, 63, 55
2,24744, Note_on_c, 0, 69, 0
2,24748, Note_on_c, 0, 63, 0
2,24770, Note_on_c, 0, 73, 0
2,24812, Note_on_c, 0, 54, 0
2,24825, Note_on_c, 0, 52, 55
2,24946, Note_on_c, 0, 75, 88
2,24960, Note_on_c, 0, 52, 0
2,24960, Note_on_c, 0, 66, 72
2,24978, Note_on_c, 0, 54, 59
2,24994, Note_on_c, 0, 66, 0
2,25029, Note_on_c, 0, 75, 0
2,25092, Note_on_c, 0, 56, 62
2,25097, Note_on_c, 0, 54, 0
2,25233, Note_on_c, 0, 56, 0
2,25240, Note_on_c, 0, 54, 69
2,25243, Note_on_c, 0, 68, 81
2,25249, Note_on_c, 0, 60, 81
2,25337, Note_on_c, 0, 60, 0
2,25356, Note_on_c, 0, 54, 0
2,25364, Note_on_c, 0, 52, 68
2,25440, Note_on_c, 0, 68, 0
2,25507, Note_on_c, 0, 54, 71
2,25516, Note_on_c, 0, 52, 0
2,25520, Note_on_c, 0, 63, 56
2,25525, Note_on_c, 0, 70, 71
2,25563, Note_on_c, 0, 63, 0
2,25599, Note_on_c, 0, 70, 0
2,25614, Note_on_c, 0, 56, 73
2,25624, Note_on_c, 0, 54, 0
2,25655, Note_on_c, 0, 56, 0
2,25666, Note_on_c, 0, 72, 72
2,25740, Note_on_c, 0, 72, 0
2,25788, Note_on_c, 0, 56, 69
2,25790, Note_on_c, 0, 73, 82
2,25804, Note_on_c, 0, 52, 55
2,25842, Note_on_c, 0, 56, 0
2,25846, Note_on_c, 0, 52, 0
2,25874, Note_on_c, 0, 73, 0
2,25906, Note_on_c, 0, 72, 72
2,26086, Note_on_c, 0, 51, 59
2,26086, Note_on_c, 0, 72, 0
2,26086, Note_on_c, 0, 73, 78
2,26130, Note_on_c, 0, 51, 0
2,26202, Note_on_c, 0, 75, 79
2,26245, Note_on_c, 0, 73, 0
2,26347, Note_on_c, 0, 76, 86
2,26358, Note_on_c, 0, 49, 56
2,26368, Note_on_c, 0, 75, 0
2,26419, Note_on_c, 0, 49, 0
2,26479, Note_on_c, 0, 78, 84
2,26531, Note_on_c, 0, 76, 0
2,26604, Note_on_c, 0, 52, 66
2,26615, Note_on_c, 0, 80, 81
2,26643, Note_on_c, 0, 52, 0
2,26668, Note_on_c, 0, 78, 0
2,26736, Note_on_c, 0, 76, 73
2,26739, Note_on_c, 0, 80, 0
2,26882, Note_on_c, 0, 76, 0
2,26890, Note_on_c, 0, 46, 54
2,26897, Note_on_c, 0, 73, 71
2,26940, Note_on_c, 0, 46, 0
2,27001, Note_on_c, 0, 73, 0
2,27019, Note_on_c, 0, 71, 59
2,27146, Note_on_c, 0, 56, 79
2,27163, Note_on_c, 0, 73, 64
2,27183, Note_on_c, 0, 56, 0
2,27223, Note_on_c, 0, 71, 0
2,27288, Note_on_c, 0, 75, 64
2,27304, Note_on_c, 0, 73, 0
2,27441, Note_on_c, 0, 55, 60
2,27443, Note_on_c, 0, 58, 79
2,27453, Note_on_c, 0, 73, 70
2,27483, Note_on_c, 0, 55, 0
2,27502, Note_on_c, 0, 75, 0
2,27608, Note_on_c, 0, 71, 64
2,27610, Note_on_c, 0, 73, 0
2,27721, Note_on_c, 0, 51, 58
2,27750, Note_on_c, 0, 71, 0
2,27759, Note_on_c, 0, 73, 62
2,27764, Note_on_c, 0, 51, 0
2,27894, Note_on_c, 0, 75, 54
2,27971, Note_on_c, 0, 73, 0
2,27992, Note_on_c, 0, 44, 50
2,27999, Note_on_c, 0, 75, 0
2,28042, Note_on_c, 0, 71, 56
2,28074, Note_on_c, 0, 44, 0
2,28163, Note_on_c, 0, 71, 0
2,28168, Note_on_c, 0, 70, 62
2,28280, Note_on_c, 0, 46, 43
2,28289, Note_on_c, 0, 70, 0
2,28298, Note_on_c, 0, 71, 75
2,28312, Note_on_c, 0, 58, 0
2,28406, Note_on_c, 0, 46, 0
2,28424, Note_on_c, 0, 73, 75
2,28534, Note_on_c, 0, 71, 0
2,28554, Note_on_c, 0, 47, 44
2,28563, Note_on_c, 0, 75, 63
2,28579, Note_on_c, 0, 56, 33
2,28626, Note_on_c, 0, 47, 0
2,28662, Note_on_c, 0, 73, 0
2,28669, Note_on_c, 0, 75, 0
2,28695, Note_on_c, 0, 76, 61
2,28821, Note_on_c, 0, 46, 49
2,28826, Note_on_c, 0, 76, 0
2,28832, Note_on_c, 0, 78, 62
2,28877, Note_on_c, 0, 46, 0
2,28960, Note_on_c, 0, 78, 0
2,28977, Note_on_c, 0, 75, 50
2,29095, Note_on_c, 0, 44, 53
2,29100, Note_on_c, 0, 56, 0
2,29107, Note_on_c, 0, 75, 0
2,29130, Note_on_c, 0, 71, 48
2,29165, Note_on_c, 0, 44, 0
2,29221, Note_on_c, 0, 71, 0
2,29253, Note_on_c, 0, 69, 43
2,29368, Note_on_c, 0, 54, 65
2,29373, Note_on_c, 0, 69, 0
2,29377, Note_on_c, 0, 71, 51
2,29415, Note_on_c, 0, 54, 0
2,29513, Note_on_c, 0, 71, 0
2,29513, Note_on_c, 0, 73, 55
2,29674, Note_on_c, 0, 53, 42
2,29674, Note_on_c, 0, 56, 58
2,29679, Note_on_c, 0, 71, 53
2,29697, Note_on_c, 0, 73, 0
2,29719, Note_on_c, 0, 53, 0
2,29772, Note_on_c, 0, 71, 0
2,29799, Note_on_c, 0, 69, 46
2,29927, Note_on_c, 0, 49, 52
2,29933, Note_on_c, 0, 69, 0
2,29959, Note_on_c, 0, 71, 46
2,29979, Note_on_c, 0, 49, 0
2,30083, Note_on_c, 0, 73, 50
2,30187, Note_on_c, 0, 71, 0
2,30196, Note_on_c, 0, 73, 0
2,30209, Note_on_c, 0, 42, 51
2,30245, Note_on_c, 0, 69, 47
2,30302, Note_on_c, 0, 42, 0
2,30370, Note_on_c, 0, 69, 0
2,30385, Note_on_c, 0, 68, 55
2,30487, Note_on_c, 0, 44, 55
2,30487, Note_on_c, 0, 68, 0
2,30498, Note_on_c, 0, 56, 0
2,30518, Note_on_c, 0, 69, 54
2,30580, Note_on_c, 0, 44, 0
2,30629, Note_on_c, 0, 71, 59
2,30640, Note_on_c, 0, 69, 0
2,30767, Note_on_c, 0, 73, 53
2,30784, Note_on_c, 0, 45, 39
2,30784, Note_on_c, 0, 54, 37
2,30811, Note_on_c, 0, 71, 0
2,30850, Note_on_c, 0, 45, 0
2,30904, Note_on_c, 0, 75, 50
2,30991, Note_on_c, 0, 75, 0
2,30998, Note_on_c, 0, 73, 0
2,31039, Note_on_c, 0, 76, 55
2,31048, Note_on_c, 0, 44, 52
2,31100, Note_on_c, 0, 44, 0
2,31161, Note_on_c, 0, 73, 48
2,31173, Note_on_c, 0, 76, 0
2,31283, Note_on_c, 0, 73, 0
2,31294, Note_on_c, 0, 42, 42
2,31301, Note_on_c, 0, 75, 51
2,31331, Note_on_c, 0, 54, 0
2,31362, Note_on_c, 0, 42, 0
2,31388, Note_on_c, 0, 75, 0
2,31450, Note_on_c, 0, 73, 53
2,31582, Note_on_c, 0, 52, 58
2,31582, Note_on_c, 0, 75, 53
2,31622, Note_on_c, 0, 52, 0
2,31622, Note_on_c, 0, 73, 0
2,31655, Note_on_c, 0, 75, 0
2,31708, Note_on_c, 0, 76, 60
2,31852, Note_on_c, 0, 51, 49
2,31855, Note_on_c, 0, 54, 51
2,31859, Note_on_c, 0, 78, 60
2,31863, Note_on_c, 0, 76, 0
2,31926, Note_on_c, 0, 51, 0
2,31975, Note_on_c, 0, 80, 55
2,32100, Note_on_c, 0, 78, 0
2,32107, Note_on_c, 0, 80, 0
2,32120, Note_on_c, 0, 49, 48
2,32137, Note_on_c, 0, 81, 51
2,32183, Note_on_c, 0, 49, 0
2,32259, Note_on_c, 0, 78, 60
2,32312, Note_on_c, 0, 81, 0
2,32406, Note_on_c, 0, 48, 54
2,32406, Note_on_c, 0, 80, 66
2,32410, Note_on_c, 0, 78, 0
2,32430, Note_on_c, 0, 54, 0
2,32453, Note_on_c, 0, 48, 0
2,32551, Note_on_c, 0, 78, 72
2,32608, Note_on_c, 0, 80, 0
2,32670, Note_on_c, 0, 78, 0
2,32683, Note_on_c, 0, 76, 74
2,32686, Note_on_c, 0, 44, 65
2,32785, Note_on_c, 0, 44, 0
2,32825, Note_on_c, 0, 75, 71
2,32855, Note_on_c, 0, 76, 0
2,32970, Note_on_c, 0, 52, 75
2,32974, Note_on_c, 0, 45, 65
2,32974, Note_on_c, 0, 73, 86
2,33009, Note_on_c, 0, 45, 0
2,33014, Note_on_c, 0, 52, 0
2,33022, Note_on_c, 0, 75, 0
2,33108, Note_on_c, 0, 71, 78
2,33159, Note_on_c, 0, 73, 0
2,33232, Note_on_c, 0, 61, 86
2,33238, Note_on_c, 0, 52, 76
2,33238, Note_on_c, 0, 71, 0
2,33244, Note_on_c, 0, 69, 79
2,33275, Note_on_c, 0, 52, 0
2,33275, Note_on_c, 0, 61, 0
2,33377, Note_on_c, 0, 68, 82
2,33418, Note_on_c, 0, 69, 0
2,33511, Note_on_c, 0, 63, 84
2,33515, Note_on_c, 0, 54, 78
2,33538, Note_on_c, 0, 66, 84
2,33562, Note_on_c, 0, 68, 0
2,33658, Note_on_c, 0, 52, 75
2,33668, Note_on_c, 0, 68, 85
2,33673, Note_on_c, 0, 54, 0
2,33706, Note_on_c, 0, 66, 0
2,33777, Note_on_c, 0, 68, 0
2,33798, Note_on_c, 0, 63, 0
2,33802, Note_on_c, 0, 69, 75
2,33806, Note_on_c, 0, 54, 81
2,33846, Note_on_c, 0, 52, 0
2,33876, Note_on_c, 0, 69, 0
2,33923, Note_on_c, 0, 66, 79
2,34011, Note_on_c, 0, 66, 0
2,34047, Note_on_c, 0, 54, 0
2,34054, Note_on_c, 0, 56, 88
2,34061, Note_on_c, 0, 63, 81
2,34113, Note_on_c, 0, 56, 0
2,34118, Note_on_c, 0, 63, 0
2,34201, Note_on_c, 0, 56, 82
2,34256, Note_on_c, 0, 56, 0
2,34336, Note_on_c, 0, 58, 78
2,34343, Note_on_c, 0, 44, 78
2,34348, Note_on_c, 0, 68, 80
2,34373, Note_on_c, 0, 58, 0
2,34452, Note_on_c, 0, 60, 72
2,34529, Note_on_c, 0, 68, 0
2,34591, Note_on_c, 0, 64, 80
2,34596, Note_on_c, 0, 61, 70
2,34598, Note_on_c, 0, 60, 0
2,34609, Note_on_c, 0, 49, 72
2,34622, Note_on_c, 0, 64, 0
2,34629, Note_on_c, 0, 61, 0
2,34648, Note_on_c, 0, 44, 0
2,34685, Note_on_c, 0, 49, 0
2,34753, Note_on_c, 0, 60, 69
2,34885, Note_on_c, 0, 61, 76
2,34890, Note_on_c, 0, 68, 88
2,34898, Note_on_c, 0, 60, 0
2,34917, Note_on_c, 0, 68, 0
2,35038, Note_on_c, 0, 63, 75
2,35063, Note_on_c, 0, 61, 0
2,35150, Note_on_c, 0, 73, 93
2,35181, Note_on_c, 0, 64, 77
2,35186, Note_on_c, 0, 63, 0
2,35190, Note_on_c, 0, 73, 0
2,35307, Note_on_c, 0, 64, 0
2,35307, Note_on_c, 0, 66, 79
2,35425, Note_on_c, 0, 66, 0
2,35438, Note_on_c, 0, 71, 87
2,35442, Note_on_c, 0, 68, 84
2,35468, Note_on_c, 0, 71, 0
2,35505, Note_on_c, 0, 68, 0
2,35556, Note_on_c, 0, 64, 70
2,35701, Note_on_c, 0, 76, 86
2,35708, Note_on_c, 0, 64, 0
2,35713, Note_on_c, 0, 61, 66
2,35840, Note_on_c, 0, 61, 0
2,35840, Note_on_c, 0, 75, 84
2,35859, Note_on_c, 0, 59, 49
2,35895, Note_on_c, 0, 60, 38
2,35936, Note_on_c, 0, 60, 0
2,35983, Note_on_c, 0, 73, 90
2,35985, Note_on_c, 0, 61, 67
2,35990, Note_on_c, 0, 59, 0
2,35997, Note_on_c, 0, 76, 0
2,36113, Note_on_c, 0, 75, 0
2,36120, Note_on_c, 0, 63, 63
2,36120, Note_on_c, 0, 71, 87
2,36131, Note_on_c, 0, 61, 0
2,36181, Note_on_c, 0, 73, 0
2,36265, Note_on_c, 0, 69, 81
2,36267, Note_on_c, 0, 63, 0
2,36272, Note_on_c, 0, 61, 68
2,36283, Note_on_c, 0, 71, 0
2,36408, Note_on_c, 0, 59, 68
2,36408, Note_on_c, 0, 61, 0
2,36540, Note_on_c, 0, 59, 0
2,36549, Note_on_c, 0, 61, 66
2,36677, Note_on_c, 0, 63, 67
2,36769, Note_on_c, 0, 61, 0
2,36812, Note_on_c, 0, 63, 0
2,36829, Note_on_c, 0, 59, 69
2,36930, Note_on_c, 0, 56, 69
2,36930, Note_on_c, 0, 59, 0
2,37068, Note_on_c, 0, 69, 0
2,37087, Note_on_c, 0, 57, 72
2,37091, Note_on_c, 0, 63, 82
2,37111, Note_on_c, 0, 56, 0
2,37136, Note_on_c, 0, 63, 0
2,37176, Note_on_c, 0, 57, 0
2,37204, Note_on_c, 0, 59, 67
2,37342, Note_on_c, 0, 59, 0
2,37346, Note_on_c, 0, 61, 63
2,37364, Note_on_c, 0, 69, 79
2,37391, Note_on_c, 0, 69, 0
2,37485, Note_on_c, 0, 61, 0
2,37489, Note_on_c, 0, 63, 64
2,37621, Note_on_c, 0, 63, 0
2,37631, Note_on_c, 0, 68, 77
2,37651, Note_on_c, 0, 64, 64
2,37671, Note_on_c, 0, 68, 0
2,37718, Note_on_c, 0, 64, 0
2,37769, Note_on_c, 0, 61, 56
2,37895, Note_on_c, 0, 61, 0
2,37895, Note_on_c, 0, 73, 66
2,37917, Note_on_c, 0, 57, 52
2,38037, Note_on_c, 0, 57, 0
2,38041, Note_on_c, 0, 71, 59
2,38061, Note_on_c, 0, 56, 55
2,38148, Note_on_c, 0, 71, 0
2,38167, Note_on_c, 0, 69, 58
2,38172, Note_on_c, 0, 73, 0
2,38189, Note_on_c, 0, 56, 0
2,38206, Note_on_c, 0, 57, 55
2,38311, Note_on_c, 0, 69, 0
2,38318, Note_on_c, 0, 68, 59
2,38326, Note_on_c, 0, 57, 0
2,38353, Note_on_c, 0, 59, 48
2,38445, Note_on_c, 0, 68, 0
2,38461, Note_on_c, 0, 66, 57
2,38465, Note_on_c, 0, 59, 0
2,38488, Note_on_c, 0, 57, 57
2,38589, Note_on_c, 0, 57, 0
2,38620, Note_on_c, 0, 56, 61
2,38748, Note_on_c, 0, 56, 0
2,38753, Note_on_c, 0, 57, 60
2,38838, Note_on_c, 0, 57, 0
2,38876, Note_on_c, 0, 59, 57
2,38979, Note_on_c, 0, 59, 0
2,39025, Note_on_c, 0, 56, 54
2,39097, Note_on_c, 0, 56, 0
2,39134, Note_on_c, 0, 54, 60
2,39215, Note_on_c, 0, 54, 0
2,39239, Note_on_c, 0, 66, 0
2,39272, Note_on_c, 0, 56, 60
2,39302, Note_on_c, 0, 64, 67
2,39379, Note_on_c, 0, 56, 0
2,39404, Note_on_c, 0, 57, 53
2,39431, Note_on_c, 0, 64, 0
2,39437, Note_on_c, 0, 63, 62
2,39458, Note_on_c, 0, 57, 0
2,39535, Note_on_c, 0, 56, 70
2,39554, Note_on_c, 0, 63, 0
2,39567, Note_on_c, 0, 56, 0
2,39576, Note_on_c, 0, 64, 71
2,39645, Note_on_c, 0, 64, 0
2,39701, Note_on_c, 0, 66, 66
2,39828, Note_on_c, 0, 52, 68
2,39828, Note_on_c, 0, 59, 75
2,39828, Note_on_c, 0, 66, 0
2,39830, Note_on_c, 0, 68, 76
2,39871, Note_on_c, 0, 52, 0
2,39940, Note_on_c, 0, 68, 0
2,39961, Note_on_c, 0, 64, 72
2,40064, Note_on_c, 0, 64, 0
2,40107, Note_on_c, 0, 54, 83
2,40118, Note_on_c, 0, 59, 0
2,40124, Note_on_c, 0, 61, 54
2,40250, Note_on_c, 0, 68, 64
2,40285, Note_on_c, 0, 61, 0
2,40392, Note_on_c, 0, 54, 0
2,40392, Note_on_c, 0, 57, 71
2,40397, Note_on_c, 0, 66, 67
2,40401, Note_on_c, 0, 68, 0
2,40486, Note_on_c, 0, 66, 0
2,40499, Note_on_c, 0, 57, 0
2,40523, Note_on_c, 0, 56, 67
2,40523, Note_on_c, 0, 64, 73
2,40613, Note_on_c, 0, 56, 0
2,40645, Note_on_c, 0, 57, 63
2,40663, Note_on_c, 0, 63, 69
2,40676, Note_on_c, 0, 64, 0
2,40684, Note_on_c, 0, 57, 0
2,40778, Note_on_c, 0, 63, 0
2,40782, Note_on_c, 0, 47, 68
2,40791, Note_on_c, 0, 61, 65
2,40853, Note_on_c, 0, 47, 0
2,40911, Note_on_c, 0, 49, 62
2,40934, Note_on_c, 0, 59, 69
2,40951, Note_on_c, 0, 61, 0
2,41025, Note_on_c, 0, 59, 0
2,41038, Note_on_c, 0, 51, 69
2,41042, Note_on_c, 0, 49, 0
2,41048, Note_on_c, 0, 57, 71
2,41158, Note_on_c, 0, 51, 0
2,41173, Note_on_c, 0, 52, 64
2,41179, Note_on_c, 0, 57, 0
2,41185, Note_on_c, 0, 56, 75
2,41247, Note_on_c, 0, 56, 0
2,41278, Note_on_c, 0, 52, 0
2,41298, Note_on_c, 0, 51, 70
2,41328, Note_on_c, 0, 59, 72
2,41393, Note_on_c, 0, 51, 0
2,41427, Note_on_c, 0, 52, 61
2,41439, Note_on_c, 0, 59, 0
2,41457, Note_on_c, 0, 61, 71
2,41574, Note_on_c, 0, 52, 0
2,41594, Note_on_c, 0, 63, 75
2,41601, Note_on_c, 0, 54, 48
2,41612, Note_on_c, 0, 61, 0
2,41686, Note_on_c, 0, 63, 0
2,41707, Note_on_c, 0, 56, 53
2,41711, Note_on_c, 0, 54, 0
2,41719, Note_on_c, 0, 64, 76
2,41810, Note_on_c, 0, 64, 0
2,41827, Note_on_c, 0, 56, 0
2,41846, Note_on_c, 0, 57, 60
2,41848, Note_on_c, 0, 66, 77
2,41933, Note_on_c, 0, 57, 0
2,41981, Note_on_c, 0, 68, 89
2,41998, Note_on_c, 0, 59, 62
2,42010, Note_on_c, 0, 66, 0
2,42048, Note_on_c, 0, 68, 0
2,42081, Note_on_c, 0, 59, 0
2,42108, Note_on_c, 0, 64, 74
2,42121, Note_on_c, 0, 56, 61
2,42258, Note_on_c, 0, 73, 97
2,42261, Note_on_c, 0, 56, 0
2,42278, Note_on_c, 0, 52, 61
2,42309, Note_on_c, 0, 64, 0
2,42388, Note_on_c, 0, 52, 0
2,42408, Note_on_c, 0, 51, 61
2,42538, Note_on_c, 0, 51, 0
2,42563, Note_on_c, 0, 52, 57
2,42635, Note_on_c, 0, 52, 0
2,42667, Note_on_c, 0, 54, 57
2,42780, Note_on_c, 0, 54, 0
2,42803, Note_on_c, 0, 52, 62
2,42871, Note_on_c, 0, 52, 0
2,42918, Note_on_c, 0, 51, 67
2,42953, Note_on_c, 0, 66, 61
2,42960, Note_on_c, 0, 73, 0
2,42990, Note_on_c, 0, 51, 0
2,43043, Note_on_c, 0, 52, 58
2,43064, Note_on_c, 0, 68, 65
2,43073, Note_on_c, 0, 66, 0
2,43126, Note_on_c, 0, 52, 0
2,43161, Note_on_c, 0, 54, 53
2,43179, Note_on_c, 0, 68, 0
2,43202, Note_on_c, 0, 70, 60
2,43232, Note_on_c, 0, 54, 0
2,43270, Note_on_c, 0, 70, 0
2,43312, Note_on_c, 0, 51, 66
2,43325, Note_on_c, 0, 71, 68
2,43349, Note_on_c, 0, 51, 0
2,43424, Note_on_c, 0, 71, 0
2,43447, Note_on_c, 0, 70, 69
2,43551, Note_on_c, 0, 70, 0
2,43599, Note_on_c, 0, 54, 65
2,43599, Note_on_c, 0, 71, 74
2,43649, Note_on_c, 0, 54, 0
2,43695, Note_on_c, 0, 71, 0
2,43721, Note_on_c, 0, 73, 78
2,43861, Note_on_c, 0, 75, 81
2,43868, Note_on_c, 0, 47, 77
2,43888, Note_on_c, 0, 73, 0
2,43907, Note_on_c, 0, 47, 0
2,43934, Note_on_c, 0, 75, 0
2,44004, Note_on_c, 0, 76, 67
2,44020, Note_on_c, 0, 77, 61
2,44057, Note_on_c, 0, 77, 0
2,44134, Note_on_c, 0, 64, 93
2,44136, Note_on_c, 0, 78, 80
2,44149, Note_on_c, 0, 52, 74
2,44149, Note_on_c, 0, 76, 0
2,44190, Note_on_c, 0, 78, 0
2,44243, Note_on_c, 0, 80, 78
2,44286, Note_on_c, 0, 64, 0
2,44290, Note_on_c, 0, 80, 0
2,44421, Note_on_c, 0, 66, 88
2,44427, Note_on_c, 0, 69, 70
2,44524, Note_on_c, 0, 52, 0
2,44530, Note_on_c, 0, 69, 0
2,44570, Note_on_c, 0, 68, 83
2,44662, Note_on_c, 0, 66, 0
2,44699, Note_on_c, 0, 51, 77
2,44699, Note_on_c, 0, 69, 74
2,44775, Note_on_c, 0, 68, 0
2,44819, Note_on_c, 0, 51, 0
2,44829, Note_on_c, 0, 49, 74
2,44832, Note_on_c, 0, 71, 77
2,44854, Note_on_c, 0, 69, 0
2,44903, Note_on_c, 0, 71, 0
2,44914, Note_on_c, 0, 49, 0
2,44973, Note_on_c, 0, 69, 78
2,44977, Note_on_c, 0, 51, 74
2,45022, Note_on_c, 0, 69, 0
2,45093, Note_on_c, 0, 68, 86
2,45097, Note_on_c, 0, 59, 79
2,45129, Note_on_c, 0, 59, 0
2,45151, Note_on_c, 0, 68, 0
2,45228, Note_on_c, 0, 69, 79
2,45232, Note_on_c, 0, 61, 70
2,45237, Note_on_c, 0, 59, 61
2,45249, Note_on_c, 0, 51, 0
2,45267, Note_on_c, 0, 61, 0
2,45282, Note_on_c, 0, 69, 0
2,45343, Note_on_c, 0, 63, 77
2,45347, Note_on_c, 0, 71, 73
2,45397, Note_on_c, 0, 71, 0
2,45420, Note_on_c, 0, 63, 0
2,45452, Note_on_c, 0, 59, 0
2,45499, Note_on_c, 0, 64, 82
2,45513, Note_on_c, 0, 68, 72
2,45526, Note_on_c, 0, 61, 82
2,45558, Note_on_c, 0, 68, 0
2,45563, Note_on_c, 0, 64, 0
2,45633, Note_on_c, 0, 63, 78
2,45637, Note_on_c, 0, 66, 71
2,45677, Note_on_c, 0, 66, 0
2,45700, Note_on_c, 0, 63, 0
2,45761, Note_on_c, 0, 68, 83
2,45781, Note_on_c, 0, 64, 65
2,45810, Note_on_c, 0, 68, 0
2,45816, Note_on_c, 0, 64, 0
2,45878, Note_on_c, 0, 66, 78
2,45903, Note_on_c, 0, 69, 65
2,45921, Note_on_c, 0, 66, 0
2,45936, Note_on_c, 0, 69, 0
2,46038, Note_on_c, 0, 68, 91
2,46049, Note_on_c, 0, 71, 76
2,46083, Note_on_c, 0, 71, 0
2,46093, Note_on_c, 0, 61, 0
2,46097, Note_on_c, 0, 68, 0
2,46153, Note_on_c, 0, 73, 81
2,46164, Note_on_c, 0, 69, 68
2,46210, Note_on_c, 0, 69, 0
2,46221, Note_on_c, 0, 73, 0
2,46295, Note_on_c, 0, 71, 81
2,46304, Note_on_c, 0, 74, 84
2,46308, Note_on_c, 0, 56, 81
2,46349, Note_on_c, 0, 71, 0
2,46353, Note_on_c, 0, 56, 0
2,46434, Note_on_c, 0, 68, 79
2,46480, Note_on_c, 0, 74, 0
2,46551, Note_on_c, 0, 68, 0
2,46574, Note_on_c, 0, 64, 84
2,46595, Note_on_c, 0, 57, 69
2,46657, Note_on_c, 0, 57, 0
2,46706, Note_on_c, 0, 63, 79
2,46735, Note_on_c, 0, 64, 0
2,46765, Note_on_c, 0, 63, 0
2,46842, Note_on_c, 0, 73, 90
2,46849, Note_on_c, 0, 64, 79
2,46853, Note_on_c, 0, 56, 70
2,46887, Note_on_c, 0, 56, 0
2,46892, Note_on_c, 0, 64, 0
2,46958, Note_on_c, 0, 66, 75
2,46967, Note_on_c, 0, 71, 72
2,46971, Note_on_c, 0, 73, 0
2,47073, Note_on_c, 0, 71, 0
2,47120, Note_on_c, 0, 66, 0
2,47120, Note_on_c, 0, 73, 91
2,47125, Note_on_c, 0, 64, 83
2,47134, Note_on_c, 0, 57, 67
2,47175, Note_on_c, 0, 57, 0
2,47241, Note_on_c, 0, 64, 0
2,47273, Note_on_c, 0, 63, 61
2,47405, Note_on_c, 0, 64, 56
2,47410, Note_on_c, 0, 63, 0
2,47431, Note_on_c, 0, 52, 62
2,47472, Note_on_c, 0, 52, 0
2,47527, Note_on_c, 0, 64, 0
2,47553, Note_on_c, 0, 66, 59
2,47700, Note_on_c, 0, 54, 65
2,47700, Note_on_c, 0, 63, 60
2,47739, Note_on_c, 0, 54, 0
2,47742, Note_on_c, 0, 66, 0
2,47821, Note_on_c, 0, 63, 0
2,47825, Note_on_c, 0, 61, 48
2,47930, Note_on_c, 0, 61, 0
2,47984, Note_on_c, 0, 63, 56
2,48019, Note_on_c, 0, 57, 43
2,48033, Note_on_c, 0, 73, 0
2,48062, Note_on_c, 0, 57, 0
2,48096, Note_on_c, 0, 63, 0
2,48100, Note_on_c, 0, 64, 63
2,48231, Note_on_c, 0, 64, 0
2,48272, Note_on_c, 0, 71, 70
2,48274, Note_on_c, 0, 56, 55
2,48283, Note_on_c, 0, 66, 66
2,48314, Note_on_c, 0, 56, 0
2,48346, Note_on_c, 0, 66, 0
2,48410, Note_on_c, 0, 68, 62
2,48550, Note_on_c, 0, 54, 60
2,48554, Note_on_c, 0, 68, 0
2,48578, Note_on_c, 0, 69, 45
2,48600, Note_on_c, 0, 54, 0
2,48648, Note_on_c, 0, 69, 0
2,48682, Note_on_c, 0, 66, 55
2,48794, Note_on_c, 0, 66, 0
2,48826, Note_on_c, 0, 52, 59
2,48840, Note_on_c, 0, 62, 59
2,48866, Note_on_c, 0, 52, 0
2,48969, Note_on_c, 0, 62, 0
2,48975, Note_on_c, 0, 61, 59
2,49113, Note_on_c, 0, 54, 57
2,49117, Note_on_c, 0, 62, 66
2,49126, Note_on_c, 0, 61, 0
2,49155, Note_on_c, 0, 54, 0
2,49246, Note_on_c, 0, 64, 72
2,49259, Note_on_c, 0, 62, 0
2,49270, Note_on_c, 0, 71, 0
2,49391, Note_on_c, 0, 56, 55
2,49398, Note_on_c, 0, 71, 84
2,49411, Note_on_c, 0, 64, 0
2,49420, Note_on_c, 0, 62, 64
2,49445, Note_on_c, 0, 56, 0
2,49516, Note_on_c, 0, 62, 0
2,49556, Note_on_c, 0, 61, 60
2,49661, Note_on_c, 0, 52, 60
2,49697, Note_on_c, 0, 62, 49
2,49704, Note_on_c, 0, 52, 0
2,49711, Note_on_c, 0, 61, 0
2,49802, Note_on_c, 0, 62, 0
2,49842, Note_on_c, 0, 64, 55
2,49945, Note_on_c, 0, 57, 63
2,49971, Note_on_c, 0, 61, 56
2,49980, Note_on_c, 0, 64, 0
2,49986, Note_on_c, 0, 57, 0
2,50066, Note_on_c, 0, 61, 0
2,50086, Note_on_c, 0, 59, 50
2,50154, Note_on_c, 0, 59, 0
2,50217, Note_on_c, 0, 59, 66
2,50232, Note_on_c, 0, 61, 51
2,50256, Note_on_c, 0, 59, 0
2,50256, Note_on_c, 0, 71, 0
2,50282, Note_on_c, 0, 61, 0
2,50349, Note_on_c, 0, 62, 57
2,50492, Note_on_c, 0, 62, 0
2,50505, Note_on_c, 0, 69, 59
2,50511, Note_on_c, 0, 61, 57
2,50532, Note_on_c, 0, 64, 47
2,50553, Note_on_c, 0, 61, 0
2,50575, Note_on_c, 0, 64, 0
2,50666, Note_on_c, 0, 66, 50
2,50800, Note_on_c, 0, 59, 60
2,50800, Note_on_c, 0, 68, 53
2,50839, Note_on_c, 0, 59, 0
2,50849, Note_on_c, 0, 66, 0
2,50870, Note_on_c, 0, 68, 0
2,50932, Note_on_c, 0, 64, 57
2,51025, Note_on_c, 0, 64, 0
2,51088, Note_on_c, 0, 57, 55
2,51095, Note_on_c, 0, 61, 48
2,51132, Note_on_c, 0, 57, 0
2,51185, Note_on_c, 0, 61, 0
2,51220, Note_on_c, 0, 59, 61
2,51284, Note_on_c, 0, 69, 0
2,51352, Note_on_c, 0, 52, 65
2,51364, Note_on_c, 0, 61, 49
2,51398, Note_on_c, 0, 52, 0
2,51468, Note_on_c, 0, 61, 0
2,51468, Note_on_c, 0, 62, 67
2,51475, Note_on_c, 0, 59, 0
2,51515, Note_on_c, 0, 62, 0
2,51632, Note_on_c, 0, 54, 66
2,51634, Note_on_c, 0, 69, 71
2,51647, Note_on_c, 0, 61, 58
2,51674, Note_on_c, 0, 54, 0
2,51767, Note_on_c, 0, 61, 0
2,51781, Note_on_c, 0, 59, 64
2,51918, Note_on_c, 0, 49, 64
2,51921, Note_on_c, 0, 61, 63
2,51937, Note_on_c, 0, 59, 0
2,51965, Note_on_c, 0, 49, 0
2,52046, Note_on_c, 0, 61, 0
2,52050, Note_on_c, 0, 62, 70
2,52057, Note_on_c, 0, 69, 0
2,52172, Note_on_c, 0, 62, 0
2,52192, Note_on_c, 0, 59, 77
2,52208, Note_on_c, 0, 51, 69
2,52257, Note_on_c, 0, 51, 0
2,52331, Note_on_c, 0, 57, 76
2,52342, Note_on_c, 0, 59, 0
2,52451, Note_on_c, 0, 57, 0
2,52457, Note_on_c, 0, 47, 73
2,52470, Note_on_c, 0, 59, 76
2,52499, Note_on_c, 0, 47, 0
2,52608, Note_on_c, 0, 61, 58
2,52649, Note_on_c, 0, 59, 0
2,52733, Note_on_c, 0, 59, 68
2,52733, Note_on_c, 0, 68, 89
2,52740, Note_on_c, 0, 61, 0
2,52744, Note_on_c, 0, 52, 54
2,52774, Note_on_c, 0, 68, 0
2,52815, Note_on_c, 0, 59, 0
2,52877, Note_on_c, 0, 57, 60
2,53004, Note_on_c, 0, 57, 0
2,53004, Note_on_c, 0, 76, 95
2,53013, Note_on_c, 0, 59, 62
2,53030, Note_on_c, 0, 76, 0
2,53127, Note_on_c, 0, 59, 0
2,53139, Note_on_c, 0, 61, 62
2,53297, Note_on_c, 0, 61, 0
2,53312, Note_on_c, 0, 78, 94
2,53325, Note_on_c, 0, 57, 59
2,53439, Note_on_c, 0, 57, 0
2,53448, Note_on_c, 0, 56, 60
2,53486, Note_on_c, 0, 52, 0
2,53591, Note_on_c, 0, 57, 67
2,53627, Note_on_c, 0, 56, 0
2,53707, Note_on_c, 0, 57, 0
2,53716, Note_on_c, 0, 59, 62
2,53748, Note_on_c, 0, 78, 0
2,53774, Note_on_c, 0, 59, 0
2,53848, Note_on_c, 0, 51, 61
2,53863, Note_on_c, 0, 57, 60
2,53936, Note_on_c, 0, 57, 0
2,53992, Note_on_c, 0, 56, 54
2,54000, Note_on_c, 0, 71, 61
2,54107, Note_on_c, 0, 56, 0
2,54116, Note_on_c, 0, 57, 55
2,54132, Note_on_c, 0, 73, 66
2,54145, Note_on_c, 0, 71, 0
2,54261, Note_on_c, 0, 73, 0
2,54266, Note_on_c, 0, 57, 0
2,54270, Note_on_c, 0, 75, 59
2,54283, Note_on_c, 0, 59, 44
2,54383, Note_on_c, 0, 59, 0
2,54389, Note_on_c, 0, 75, 0
2,54395, Note_on_c, 0, 56, 62
2,54409, Note_on_c, 0, 76, 65
2,54455, Note_on_c, 0, 56, 0
2,54535, Note_on_c, 0, 75, 70
2,54550, Note_on_c, 0, 76, 0
2,54665, Note_on_c, 0, 75, 0
2,54671, Note_on_c, 0, 51, 0
2,54691, Note_on_c, 0, 59, 63
2,54691, Note_on_c, 0, 76, 84
2,54728, Note_on_c, 0, 59, 0
2,54819, Note_on_c, 0, 78, 81
2,54882, Note_on_c, 0, 76, 0
2,54959, Note_on_c, 0, 80, 84
2,54966, Note_on_c, 0, 49, 54
2,54968, Note_on_c, 0, 52, 52
2,55082, Note_on_c, 0, 81, 80
2,55142, Note_on_c, 0, 78, 0
2,55215, Note_on_c, 0, 52, 0
2,55231, Note_on_c, 0, 83, 83
2,55236, Note_on_c, 0, 80, 0
2,55243, Note_on_c, 0, 49, 0
2,55243, Note_on_c, 0, 56, 64
2,55268, Note_on_c, 0, 81, 0
2,55298, Note_on_c, 0, 56, 0
2,55358, Note_on_c, 0, 80, 86
2,55395, Note_on_c, 0, 83, 0
2,55512, Note_on_c, 0, 42, 56
2,55517, Note_on_c, 0, 81, 84
2,55556, Note_on_c, 0, 80, 0
2,55677, Note_on_c, 0, 80, 91
2,55715, Note_on_c, 0, 81, 0
2,55816, Note_on_c, 0, 54, 67
2,55837, Note_on_c, 0, 42, 0
2,55837, Note_on_c, 0, 81, 89
2,55963, Note_on_c, 0, 83, 86
2,55972, Note_on_c, 0, 49, 57
2,55974, Note_on_c, 0, 80, 0
2,56001, Note_on_c, 0, 81, 0
2,56102, Note_on_c, 0, 51, 67
2,56102, Note_on_c, 0, 81, 87
2,56107, Note_on_c, 0, 49, 0
2,56107, Note_on_c, 0, 54, 0
2,56156, Note_on_c, 0, 51, 0
2,56239, Note_on_c, 0, 80, 90
2,56265, Note_on_c, 0, 83, 0
2,56276, Note_on_c, 0, 81, 0
2,56384, Note_on_c, 0, 47, 60
2,56384, Note_on_c, 0, 81, 84
2,56447, Note_on_c, 0, 47, 0
2,56496, Note_on_c, 0, 83, 85
2,56508, Note_on_c, 0, 80, 0
2,56556, Note_on_c, 0, 81, 0
2,56645, Note_on_c, 0, 52, 69
2,56652, Note_on_c, 0, 80, 90
2,56677, Note_on_c, 0, 83, 0
2,56700, Note_on_c, 0, 52, 0
2,56785, Note_on_c, 0, 78, 88
2,56819, Note_on_c, 0, 80, 0
2,56922, Note_on_c, 0, 80, 84
2,56931, Note_on_c, 0, 47, 67
2,56986, Note_on_c, 0, 47, 0
2,57036, Note_on_c, 0, 81, 81
2,57080, Note_on_c, 0, 80, 0
2,57105, Note_on_c, 0, 78, 0
2,57209, Note_on_c, 0, 52, 74
2,57209, Note_on_c, 0, 80, 90
2,57228, Note_on_c, 0, 49, 43
2,57284, Note_on_c, 0, 81, 0
2,57295, Note_on_c, 0, 49, 0
2,57342, Note_on_c, 0, 78, 88
2,57432, Note_on_c, 0, 80, 0
2,57487, Note_on_c, 0, 76, 81
2,57494, Note_on_c, 0, 78, 0
2,57499, Note_on_c, 0, 44, 89
2,57592, Note_on_c, 0, 44, 0
2,57616, Note_on_c, 0, 75, 76
2,57641, Note_on_c, 0, 76, 0
2,57782, Note_on_c, 0, 52, 0
2,57787, Note_on_c, 0, 45, 93
2,57789, Note_on_c, 0, 73, 74
2,57819, Note_on_c, 0, 75, 0
2,57900, Note_on_c, 0, 71, 79
2,57915, Note_on_c, 0, 73, 0
2,57960, Note_on_c, 0, 71, 0
2,58061, Note_on_c, 0, 73, 84
2,58065, Note_on_c, 0, 64, 85
2,58079, Note_on_c, 0, 45, 0
2,58140, Note_on_c, 0, 64, 0
2,58195, Note_on_c, 0, 74, 82
2,58199, Note_on_c, 0, 40, 78
2,58199, Note_on_c, 0, 73, 0
2,58353, Note_on_c, 0, 40, 0
2,58371, Note_on_c, 0, 69, 90
2,58380, Note_on_c, 0, 42, 70
2,58385, Note_on_c, 0, 73, 72
2,58393, Note_on_c, 0, 74, 0
2,58462, Note_on_c, 0, 42, 0
2,58534, Note_on_c, 0, 71, 80
2,58536, Note_on_c, 0, 73, 0
2,58661, Note_on_c, 0, 37, 70
2,58682, Note_on_c, 0, 73, 85
2,58730, Note_on_c, 0, 37, 0
2,58787, Note_on_c, 0, 71, 0
2,58805, Note_on_c, 0, 74, 77
2,58834, Note_on_c, 0, 73, 0
2,58935, Note_on_c, 0, 39, 76
2,58956, Note_on_c, 0, 71, 83
2,58967, Note_on_c, 0, 39, 0
2,58970, Note_on_c, 0, 74, 0
2,59076, Note_on_c, 0, 73, 84
2,59185, Note_on_c, 0, 69, 0
2,59231, Note_on_c, 0, 75, 89
2,59239, Note_on_c, 0, 59, 78
2,59243, Note_on_c, 0, 71, 0
2,59269, Note_on_c, 0, 73, 0
2,59271, Note_on_c, 0, 59, 0
2,59382, Note_on_c, 0, 71, 74
2,59577, Note_on_c, 0, 61, 73
2,59577, Note_on_c, 0, 76, 93
2,59581, Note_on_c, 0, 71, 0
2,59583, Note_on_c, 0, 75, 0
2,59588, Note_on_c, 0, 68, 68
2,59634, Note_on_c, 0, 68, 0
2,59752, Note_on_c, 0, 64, 78
2,59904, Note_on_c, 0, 66, 79
2,59912, Note_on_c, 0, 64, 0
2,60047, Note_on_c, 0, 68, 85
2,60077, Note_on_c, 0, 66, 0
2,60142, Note_on_c, 0, 68, 0
2,60183, Note_on_c, 0, 69, 82
2,60333, Note_on_c, 0, 71, 89
2,60347, Note_on_c, 0, 54, 57
2,60354, Note_on_c, 0, 76, 0
2,60379, Note_on_c, 0, 69, 0
2,60448, Note_on_c, 0, 61, 0
2,60507, Note_on_c, 0, 73, 97
2,60523, Note_on_c, 0, 56, 67
2,60540, Note_on_c, 0, 71, 0
2,60665, Note_on_c, 0, 57, 73
2,60692, Note_on_c, 0, 54, 0
2,60724, Note_on_c, 0, 56, 0
2,60853, Note_on_c, 0, 59, 81
2,60869, Note_on_c, 0, 75, 90
2,60873, Note_on_c, 0, 57, 0
2,60894, Note_on_c, 0, 59, 0
2,60905, Note_on_c, 0, 73, 0
2,61044, Note_on_c, 0, 73, 87
2,61260, Note_on_c, 0, 47, 70
2,61264, Note_on_c, 0, 71, 87
2,61289, Note_on_c, 0, 47, 0
2,61335, Note_on_c, 0, 73, 0
2,61465, Note_on_c, 0, 69, 83
2,61465, Note_on_c, 0, 71, 0
2,61788, Note_on_c, 0, 76, 95
2,61801, Note_on_c, 0, 40, 62
2,61843, Note_on_c, 0, 75, 0
2,62160, Note_on_c, 0, 68, 81
2,62182, Note_on_c, 0, 69, 0
2,62197, Note_on_c, 0, 68, 0
2,62438, Note_on_c, 0, 66, 86
2,62472, Note_on_c, 0, 66, 0
2,62761, Note_on_c, 0, 68, 82
2,62840, Note_on_c, 0, 68, 0
2,62844, Note_on_c, 0, 66, 83
2,62937, Note_on_c, 0, 68, 80
2,62942, Note_on_c, 0, 66, 0
2,63911, Control_c, 0, 64, 13
2,63930, Control_c, 0, 64, 27
2,63948, Control_c, 0, 64, 37
2,63968, Control_c, 0, 64, 45
2,63988, Control_c, 0, 64, 51
2,64009, Control_c, 0, 64, 54
2,64028, Control_c, 0, 64, 57
2,64045, Control_c, 0, 64, 59
2,64065, Control_c, 0, 64, 61
2,64086, Control_c, 0, 64, 62
2,64101, Control_c, 0, 64, 63
2,64121, Control_c, 0, 64, 64
2,64142, Control_c, 0, 64, 67
2,64163, Control_c, 0, 64, 73
2,64179, Control_c, 0, 64, 81
2,64199, Control_c, 0, 64, 93
2,64217, Control_c, 0, 64, 127
2,64959, Note_on_c, 0, 76, 0
2,64968, Note_on_c, 0, 68, 0
2,64994, Note_on_c, 0, 40, 0
2,65159, Control_c, 0, 64, 109
2,65178, Control_c, 0, 64, 90
2,65197, Control_c, 0, 64, 77
2,65219, Control_c, 0, 64, 69
2,65235, Control_c, 0, 64, 64
2,65254, Control_c, 0, 64, 61
2,65273, Control_c, 0, 64, 59
2,65292, Control_c, 0, 64, 58
2,65313, Control_c, 0, 64, 55
2,65330, Control_c, 0, 64, 51
2,65350, Control_c, 0, 64, 45
2,65370, Control_c, 0, 64, 39
2,65389, Control_c, 0, 64, 34
2,65409, Control_c, 0, 64, 22
2,65426, Control_c, 0, 64, 0
2,65427, End_track
0, 0, End_of_file
