0, 0, Header, 1, 2, 480
1, 0, Start_track
1, 0, Tempo, 500000
1, 0, Time_signature, 4, 2, 24, 8
1, 1, End_track
2, 0, Start_track
2, 0, Program_c, 0, 0
2, 0, Control_c, 0, 64, 0
2, 0, Control_c, 0, 67, 0
2, 957, Note_on_c, 0, 52, 38
2, 999, Note_on_c, 0, 64, 47
2, 1334, Note_on_c, 0, 68, 63
2, 1520, Note_on_c, 0, 64, 0
2, 1585, Note_on_c, 0, 71, 69
2, 1652, Note_on_c, 0, 68, 0
2, 1866, Note_on_c, 0, 76, 77
2, 1870, Note_on_c, 0, 71, 0
2, 1872, Note_on_c, 0, 56, 42
2, 2134, Note_on_c, 0, 75, 73
2, 2168, Note_on_c, 0, 76, 0
2, 2397, Note_on_c, 0, 76, 79
2, 2423, Note_on_c, 0, 75, 0
2, 2685, Note_on_c, 0, 57, 40
2, 2714, Note_on_c, 0, 76, 0
2, 2729, Note_on_c, 0, 75, 62
2, 2794, Note_on_c, 0, 75, 0
2, 2805, Note_on_c, 0, 56, 0
2, 2820, Note_on_c, 0, 73, 67
2, 2869, Note_on_c, 0, 73, 0
2, 2882, Note_on_c, 0, 75, 71
2, 2947, Note_on_c, 0, 73, 69
2, 2960, Note_on_c, 0, 75, 0
2, 3035, Note_on_c, 0, 71, 68
2, 3042, Note_on_c, 0, 73, 0
2, 3291, Note_on_c, 0, 73, 74
2, 3360, Note_on_c, 0, 71, 0
2, 3588, Note_on_c, 0, 76, 62
2, 3660, Note_on_c, 0, 73, 0
2, 3862, Control_c, 0, 67, 17
2, 3864, Note_on_c, 0, 56, 45
2, 3878, Control_c, 0, 67, 33
2, 3898, Control_c, 0, 67, 47
2, 3921, Control_c, 0, 67, 63
2, 3938, Control_c, 0, 67, 81
2, 3958, Control_c, 0, 67, 102
2, 3974, Control_c, 0, 67, 125
2, 3983, Note_on_c, 0, 57, 0
2, 3996, Control_c, 0, 67, 127
2, 4139, Note_on_c, 0, 54, 48
2, 4154, Note_on_c, 0, 56, 0
2, 4486, Note_on_c, 0, 56, 42
2, 4486, Note_on_c, 0, 76, 0
2, 4500, Note_on_c, 0, 73, 53
2, 4547, Note_on_c, 0, 73, 0
2, 4568, Note_on_c, 0, 54, 0
2, 4569, Note_on_c, 0, 71, 62
2, 4616, Note_on_c, 0, 71, 0
2, 4641, Note_on_c, 0, 73, 68
2, 4688, Note_on_c, 0, 73, 0
2, 4715, Note_on_c, 0, 71, 63
2, 4776, Note_on_c, 0, 71, 0
2, 4786, Note_on_c, 0, 69, 41
2, 5066, Note_on_c, 0, 71, 54
2, 5179, Note_on_c, 0, 69, 0
2, 5329, Note_on_c, 0, 76, 57
2, 5422, Note_on_c, 0, 71, 0
2, 5621, Note_on_c, 0, 57, 46
2, 5646, Note_on_c, 0, 56, 0
2, 5861, Note_on_c, 0, 56, 47
2, 6035, Note_on_c, 0, 57, 0
2, 6130, Note_on_c, 0, 69, 49
2, 6134, Note_on_c, 0, 54, 42
2, 6191, Note_on_c, 0, 56, 0
2, 6194, Note_on_c, 0, 76, 0
2, 6238, Control_c, 0, 67, 122
2, 6260, Control_c, 0, 67, 118
2, 6276, Control_c, 0, 67, 115
2, 6294, Control_c, 0, 67, 112
2, 6314, Control_c, 0, 67, 108
2, 6334, Control_c, 0, 67, 105
2, 6353, Control_c, 0, 67, 102
2, 6372, Control_c, 0, 67, 98
2, 6392, Control_c, 0, 67, 94
2, 6411, Control_c, 0, 67, 91
2, 6411, Note_on_c, 0, 71, 60
2, 6431, Control_c, 0, 67, 89
2, 6451, Control_c, 0, 67, 85
2, 6469, Control_c, 0, 67, 80
2, 6486, Control_c, 0, 67, 76
2, 6500, Note_on_c, 0, 69, 0
2, 6507, Control_c, 0, 67, 71
2, 6527, Control_c, 0, 67, 65
2, 6546, Control_c, 0, 67, 60
2, 6564, Control_c, 0, 67, 56
2, 6583, Control_c, 0, 67, 51
2, 6605, Control_c, 0, 67, 47
2, 6621, Control_c, 0, 67, 42
2, 6641, Control_c, 0, 67, 37
2, 6659, Control_c, 0, 67, 32
2, 6669, Note_on_c, 0, 73, 65
2, 6679, Control_c, 0, 67, 27
2, 6698, Control_c, 0, 67, 22
2, 6717, Control_c, 0, 67, 19
2, 6737, Control_c, 0, 67, 15
2, 6755, Control_c, 0, 67, 12
2, 6775, Control_c, 0, 67, 9
2, 6795, Control_c, 0, 67, 0
2, 6802, Note_on_c, 0, 71, 0
2, 6941, Note_on_c, 0, 51, 42
2, 6944, Note_on_c, 0, 71, 54
2, 6963, Note_on_c, 0, 73, 0
2, 7125, Note_on_c, 0, 52, 0
2, 7160, Note_on_c, 0, 54, 0
2, 7214, Note_on_c, 0, 73, 66
2, 7411, Note_on_c, 0, 71, 0
2, 7465, Note_on_c, 0, 73, 0
2, 7481, Note_on_c, 0, 69, 52
2, 7737, Note_on_c, 0, 51, 0
2, 7748, Note_on_c, 0, 68, 57
2, 7759, Note_on_c, 0, 52, 52
2, 7768, Note_on_c, 0, 69, 0
2, 8006, Note_on_c, 0, 68, 0
2, 8012, Note_on_c, 0, 71, 72
2, 8038, Note_on_c, 0, 56, 50
2, 8290, Note_on_c, 0, 76, 82
2, 8294, Note_on_c, 0, 59, 61
2, 8352, Note_on_c, 0, 71, 0
2, 8412, Note_on_c, 0, 56, 0
2, 8492, Note_on_c, 0, 52, 0
2, 8610, Note_on_c, 0, 80, 78
2, 8653, Note_on_c, 0, 64, 46
2, 8689, Note_on_c, 0, 59, 0
2, 8749, Note_on_c, 0, 76, 0
2, 8928, Note_on_c, 0, 63, 54
2, 9005, Note_on_c, 0, 64, 0
2, 9183, Note_on_c, 0, 64, 61
2, 9255, Note_on_c, 0, 63, 0
2, 9440, Note_on_c, 0, 58, 60
2, 9509, Note_on_c, 0, 64, 0
2, 9703, Note_on_c, 0, 78, 72
2, 9916, Note_on_c, 0, 80, 0
2, 9940, Note_on_c, 0, 61, 44
2, 9947, Note_on_c, 0, 76, 69
2, 9983, Note_on_c, 0, 78, 0
2, 10039, Note_on_c, 0, 61, 0
2, 10218, Note_on_c, 0, 66, 45
2, 10227, Note_on_c, 0, 75, 60
2, 10248, Note_on_c, 0, 76, 0
2, 10511, Note_on_c, 0, 75, 0
2, 10513, Note_on_c, 0, 76, 63
2, 10558, Control_c, 0, 64, 37
2, 10578, Control_c, 0, 64, 54
2, 10596, Control_c, 0, 64, 63
2, 10615, Control_c, 0, 64, 67
2, 10621, Note_on_c, 0, 66, 0
2, 10635, Control_c, 0, 64, 77
2, 10653, Control_c, 0, 64, 97
2, 10668, Note_on_c, 0, 58, 0
2, 10672, Control_c, 0, 64, 127
2, 10771, Note_on_c, 0, 73, 56
2, 10864, Note_on_c, 0, 73, 0
2, 11031, Note_on_c, 0, 47, 42
2, 11094, Control_c, 0, 64, 115
2, 11103, Note_on_c, 0, 73, 50
2, 11109, Note_on_c, 0, 76, 0
2, 11114, Control_c, 0, 64, 95
2, 11136, Control_c, 0, 64, 82
2, 11153, Control_c, 0, 64, 73
2, 11173, Control_c, 0, 64, 66
2, 11195, Control_c, 0, 64, 63
2, 11211, Control_c, 0, 64, 62
2, 11229, Control_c, 0, 64, 61
2, 11263, Note_on_c, 0, 73, 0
2, 11263, Note_on_c, 0, 75, 52
2, 11268, Control_c, 0, 64, 60
2, 11290, Control_c, 0, 64, 59
2, 11305, Control_c, 0, 64, 58
2, 11328, Control_c, 0, 64, 57
2, 11348, Control_c, 0, 64, 56
2, 11365, Control_c, 0, 64, 55
2, 11365, Note_on_c, 0, 51, 43
2, 11382, Note_on_c, 0, 75, 0
2, 11386, Control_c, 0, 64, 54
2, 11401, Control_c, 0, 64, 53
2, 11406, Note_on_c, 0, 76, 56
2, 11424, Control_c, 0, 64, 52
2, 11459, Control_c, 0, 64, 51
2, 11480, Control_c, 0, 64, 50
2, 11498, Control_c, 0, 64, 49
2, 11519, Control_c, 0, 64, 48
2, 11523, Note_on_c, 0, 76, 0
2, 11530, Note_on_c, 0, 75, 62
2, 11536, Control_c, 0, 64, 47
2, 11556, Control_c, 0, 64, 46
2, 11595, Control_c, 0, 64, 45
2, 11613, Control_c, 0, 64, 44
2, 11618, Note_on_c, 0, 75, 0
2, 11627, Note_on_c, 0, 54, 48
2, 11635, Control_c, 0, 64, 43
2, 11649, Note_on_c, 0, 76, 65
2, 11653, Control_c, 0, 64, 42
2, 11671, Control_c, 0, 64, 41
2, 11694, Note_on_c, 0, 47, 0
2, 11714, Control_c, 0, 64, 40
2, 11714, Note_on_c, 0, 76, 0
2, 11750, Control_c, 0, 64, 39
2, 11750, Note_on_c, 0, 75, 59
2, 11755, Note_on_c, 0, 51, 0
2, 11787, Control_c, 0, 64, 38
2, 11802, Note_on_c, 0, 75, 0
2, 11825, Note_on_c, 0, 76, 71
2, 11844, Control_c, 0, 64, 37
2, 11886, Note_on_c, 0, 76, 0
2, 11902, Control_c, 0, 64, 36
2, 11911, Note_on_c, 0, 75, 66
2, 11938, Note_on_c, 0, 59, 49
2, 11942, Control_c, 0, 64, 35
2, 11951, Note_on_c, 0, 54, 0
2, 11965, Note_on_c, 0, 75, 0
2, 11993, Note_on_c, 0, 76, 69
2, 11999, Control_c, 0, 64, 34
2, 12044, Note_on_c, 0, 76, 0
2, 12072, Note_on_c, 0, 75, 59
2, 12122, Note_on_c, 0, 75, 0
2, 12148, Note_on_c, 0, 76, 68
2, 12185, Note_on_c, 0, 76, 0
2, 12188, Note_on_c, 0, 58, 48
2, 12224, Note_on_c, 0, 75, 59
2, 12244, Note_on_c, 0, 59, 0
2, 12270, Control_c, 0, 64, 33
2, 12274, Note_on_c, 0, 76, 66
2, 12305, Note_on_c, 0, 76, 0
2, 12318, Note_on_c, 0, 75, 0
2, 12318, Note_on_c, 0, 75, 48
2, 12358, Note_on_c, 0, 75, 0
2, 12378, Note_on_c, 0, 58, 0
2, 12387, Note_on_c, 0, 59, 46
2, 12387, Note_on_c, 0, 76, 63
2, 12423, Note_on_c, 0, 76, 0
2, 12458, Note_on_c, 0, 75, 63
2, 12518, Control_c, 0, 64, 32
2, 12573, Control_c, 0, 64, 31
2, 12630, Control_c, 0, 64, 30
2, 12650, Control_c, 0, 64, 29
2, 12687, Control_c, 0, 64, 28
2, 12728, Control_c, 0, 64, 27
2, 12730, Note_on_c, 0, 52, 39
2, 12747, Control_c, 0, 64, 26
2, 12785, Control_c, 0, 64, 25
2, 12823, Control_c, 0, 64, 24
2, 12869, Note_on_c, 0, 59, 0
2, 12881, Control_c, 0, 64, 23
2, 12919, Control_c, 0, 64, 22
2, 12976, Control_c, 0, 64, 21
2, 13018, Control_c, 0, 64, 20
2, 13029, Note_on_c, 0, 76, 53
2, 13177, Note_on_c, 0, 75, 0
2, 13246, Control_c, 0, 64, 19
2, 13265, Note_on_c, 0, 59, 42
2, 13279, Note_on_c, 0, 78, 55
2, 13417, Note_on_c, 0, 59, 0
2, 13548, Note_on_c, 0, 64, 43
2, 13548, Note_on_c, 0, 80, 59
2, 13553, Note_on_c, 0, 76, 0
2, 13592, Control_c, 0, 64, 18
2, 13600, Note_on_c, 0, 78, 0
2, 13833, Note_on_c, 0, 73, 61
2, 13853, Note_on_c, 0, 80, 0
2, 13957, Control_c, 0, 64, 17
2, 13979, Control_c, 0, 64, 16
2, 14012, Control_c, 0, 64, 15
2, 14051, Control_c, 0, 64, 13
2, 14091, Control_c, 0, 64, 11
2, 14095, Note_on_c, 0, 76, 64
2, 14131, Control_c, 0, 64, 9
2, 14148, Control_c, 0, 64, 0
2, 14190, Note_on_c, 0, 73, 0
2, 14360, Note_on_c, 0, 54, 38
2, 14395, Note_on_c, 0, 66, 46
2, 14400, Note_on_c, 0, 76, 0
2, 14467, Note_on_c, 0, 52, 0
2, 14676, Note_on_c, 0, 70, 59
2, 14935, Note_on_c, 0, 73, 70
2, 14945, Note_on_c, 0, 66, 0
2, 15191, Note_on_c, 0, 63, 43
2, 15203, Note_on_c, 0, 78, 69
2, 15247, Note_on_c, 0, 73, 0
2, 15293, Note_on_c, 0, 70, 0
2, 15372, Note_on_c, 0, 64, 0
2, 15467, Note_on_c, 0, 76, 73
2, 15514, Note_on_c, 0, 78, 0
2, 15728, Note_on_c, 0, 78, 75
2, 15781, Note_on_c, 0, 76, 0
2, 15995, Note_on_c, 0, 68, 66
2, 16253, Note_on_c, 0, 78, 0
2, 16262, Note_on_c, 0, 71, 73
2, 16452, Note_on_c, 0, 68, 0
2, 16551, Note_on_c, 0, 75, 71
2, 16866, Note_on_c, 0, 71, 0
2, 16871, Note_on_c, 0, 76, 69
2, 16931, Note_on_c, 0, 75, 0
2, 17154, Note_on_c, 0, 61, 49
2, 17187, Note_on_c, 0, 63, 0
2, 17410, Note_on_c, 0, 59, 56
2, 17420, Note_on_c, 0, 61, 0
2, 17706, Note_on_c, 0, 66, 56
2, 17728, Note_on_c, 0, 58, 40
2, 17793, Note_on_c, 0, 59, 0
2, 17976, Note_on_c, 0, 76, 0
2, 17997, Note_on_c, 0, 70, 52
2, 18251, Note_on_c, 0, 73, 58
2, 18553, Note_on_c, 0, 76, 54
2, 18602, Control_c, 0, 67, 17
2, 18622, Control_c, 0, 67, 29
2, 18639, Control_c, 0, 67, 43
2, 18659, Control_c, 0, 67, 62
2, 18679, Control_c, 0, 67, 80
2, 18685, Note_on_c, 0, 73, 0
2, 18698, Control_c, 0, 67, 100
2, 18716, Control_c, 0, 67, 123
2, 18736, Control_c, 0, 67, 127
2, 18784, Note_on_c, 0, 76, 0
2, 18815, Note_on_c, 0, 75, 51
2, 19074, Note_on_c, 0, 49, 40
2, 19085, Note_on_c, 0, 66, 0
2, 19096, Note_on_c, 0, 76, 52
2, 19179, Note_on_c, 0, 75, 0
2, 19222, Note_on_c, 0, 70, 0
2, 19422, Note_on_c, 0, 50, 43
2, 19426, Note_on_c, 0, 49, 0
2, 19437, Note_on_c, 0, 66, 51
2, 19742, Note_on_c, 0, 76, 0
2, 19773, Note_on_c, 0, 70, 48
2, 19952, Note_on_c, 0, 66, 0
2, 20057, Note_on_c, 0, 73, 56
2, 20259, Note_on_c, 0, 70, 0
2, 20345, Note_on_c, 0, 73, 0
2, 20345, Note_on_c, 0, 74, 51
2, 20352, Note_on_c, 0, 59, 37
2, 20405, Note_on_c, 0, 54, 0
2, 20464, Note_on_c, 0, 58, 0
2, 20614, Note_on_c, 0, 52, 49
2, 20653, Note_on_c, 0, 50, 0
2, 20869, Note_on_c, 0, 54, 59
2, 20881, Note_on_c, 0, 52, 0
2, 21150, Note_on_c, 0, 55, 59
2, 21150, Note_on_c, 0, 59, 0
2, 21161, Note_on_c, 0, 54, 0
2, 21290, Control_c, 0, 67, 123
2, 21309, Control_c, 0, 67, 120
2, 21329, Control_c, 0, 67, 116
2, 21346, Control_c, 0, 67, 111
2, 21366, Control_c, 0, 67, 106
2, 21387, Control_c, 0, 67, 104
2, 21408, Control_c, 0, 67, 101
2, 21423, Control_c, 0, 67, 99
2, 21432, Note_on_c, 0, 61, 41
2, 21439, Note_on_c, 0, 76, 66
2, 21443, Control_c, 0, 67, 95
2, 21466, Control_c, 0, 67, 90
2, 21482, Control_c, 0, 67, 85
2, 21495, Note_on_c, 0, 74, 0
2, 21501, Control_c, 0, 67, 81
2, 21524, Control_c, 0, 67, 78
2, 21540, Control_c, 0, 67, 73
2, 21560, Control_c, 0, 67, 67
2, 21578, Control_c, 0, 67, 60
2, 21598, Control_c, 0, 67, 54
2, 21617, Control_c, 0, 67, 49
2, 21637, Control_c, 0, 67, 43
2, 21658, Control_c, 0, 67, 36
2, 21674, Control_c, 0, 67, 30
2, 21695, Control_c, 0, 67, 23
2, 21706, Note_on_c, 0, 74, 63
2, 21711, Note_on_c, 0, 62, 52
2, 21713, Control_c, 0, 67, 17
2, 21732, Control_c, 0, 67, 10
2, 21752, Control_c, 0, 67, 0
2, 21793, Note_on_c, 0, 76, 0
2, 21827, Note_on_c, 0, 61, 0
2, 21979, Note_on_c, 0, 73, 70
2, 21994, Note_on_c, 0, 64, 50
2, 22020, Note_on_c, 0, 62, 0
2, 22071, Note_on_c, 0, 74, 0
2, 22242, Note_on_c, 0, 74, 72
2, 22301, Note_on_c, 0, 73, 0
2, 22426, Control_c, 0, 64, 26
2, 22442, Control_c, 0, 64, 42
2, 22464, Control_c, 0, 64, 57
2, 22481, Control_c, 0, 64, 63
2, 22499, Control_c, 0, 64, 67
2, 22510, Note_on_c, 0, 71, 67
2, 22521, Control_c, 0, 64, 74
2, 22526, Note_on_c, 0, 74, 0
2, 22541, Control_c, 0, 64, 87
2, 22555, Note_on_c, 0, 71, 0
2, 22560, Control_c, 0, 64, 127
2, 22822, Note_on_c, 0, 54, 55
2, 22826, Note_on_c, 0, 71, 64
2, 22848, Note_on_c, 0, 55, 0
2, 22869, Note_on_c, 0, 71, 0
2, 22885, Control_c, 0, 64, 116
2, 22892, Note_on_c, 0, 70, 68
2, 22903, Control_c, 0, 64, 97
2, 22926, Control_c, 0, 64, 84
2, 22945, Control_c, 0, 64, 74
2, 22945, Note_on_c, 0, 70, 0
2, 22961, Control_c, 0, 64, 66
2, 22975, Note_on_c, 0, 71, 63
2, 22984, Control_c, 0, 64, 61
2, 22984, Note_on_c, 0, 64, 0
2, 23001, Control_c, 0, 64, 58
2, 23018, Control_c, 0, 64, 55
2, 23032, Note_on_c, 0, 70, 71
2, 23036, Control_c, 0, 64, 52
2, 23057, Control_c, 0, 64, 47
2, 23065, Note_on_c, 0, 71, 0
2, 23075, Control_c, 0, 64, 40
2, 23095, Control_c, 0, 64, 30
2, 23115, Control_c, 0, 64, 0
2, 23139, Note_on_c, 0, 68, 68
2, 23177, Note_on_c, 0, 70, 0
2, 23441, Control_c, 0, 64, 29
2, 23451, Note_on_c, 0, 66, 75
2, 23453, Note_on_c, 0, 68, 0
2, 23460, Control_c, 0, 64, 47
2, 23479, Control_c, 0, 64, 58
2, 23499, Control_c, 0, 64, 63
2, 23517, Control_c, 0, 64, 65
2, 23536, Control_c, 0, 64, 69
2, 23556, Control_c, 0, 64, 78
2, 23578, Control_c, 0, 64, 127
2, 23800, Note_on_c, 0, 66, 0
2, 23846, Note_on_c, 0, 79, 78
2, 24240, Note_on_c, 0, 78, 83
2, 24253, Note_on_c, 0, 56, 51
2, 24265, Note_on_c, 0, 63, 46
2, 24292, Note_on_c, 0, 79, 0
2, 24304, Control_c, 0, 64, 109
2, 24326, Control_c, 0, 64, 104
2, 24342, Control_c, 0, 64, 99
2, 24364, Control_c, 0, 64, 93
2, 24382, Control_c, 0, 64, 88
2, 24399, Control_c, 0, 64, 83
2, 24419, Control_c, 0, 64, 79
2, 24438, Control_c, 0, 64, 76
2, 24457, Control_c, 0, 64, 74
2, 24477, Control_c, 0, 64, 72
2, 24497, Control_c, 0, 64, 70
2, 24514, Control_c, 0, 64, 69
2, 24535, Control_c, 0, 64, 68
2, 24553, Control_c, 0, 64, 67
2, 24566, Note_on_c, 0, 77, 79
2, 24570, Note_on_c, 0, 58, 51
2, 24579, Note_on_c, 0, 61, 48
2, 24579, Note_on_c, 0, 63, 0
2, 24596, Control_c, 0, 64, 66
2, 24613, Control_c, 0, 64, 65
2, 24625, Note_on_c, 0, 78, 0
2, 24632, Control_c, 0, 64, 63
2, 24652, Control_c, 0, 64, 62
2, 24686, Note_on_c, 0, 54, 0
2, 24689, Control_c, 0, 64, 61
2, 24727, Control_c, 0, 64, 60
2, 24747, Control_c, 0, 64, 58
2, 24765, Control_c, 0, 64, 56
2, 24787, Control_c, 0, 64, 55
2, 24823, Control_c, 0, 64, 54
2, 24842, Control_c, 0, 64, 53
2, 24853, Note_on_c, 0, 59, 53
2, 24862, Control_c, 0, 64, 51
2, 24862, Note_on_c, 0, 76, 73
2, 24867, Note_on_c, 0, 77, 0
2, 24880, Control_c, 0, 64, 48
2, 24901, Control_c, 0, 64, 47
2, 24908, Note_on_c, 0, 61, 0
2, 24921, Control_c, 0, 64, 46
2, 24932, Note_on_c, 0, 58, 0
2, 24954, Note_on_c, 0, 56, 0
2, 24959, Control_c, 0, 64, 44
2, 24977, Control_c, 0, 64, 41
2, 24995, Control_c, 0, 64, 37
2, 25015, Control_c, 0, 64, 35
2, 25035, Control_c, 0, 64, 33
2, 25053, Control_c, 0, 64, 32
2, 25072, Control_c, 0, 64, 29
2, 25093, Control_c, 0, 64, 27
2, 25114, Control_c, 0, 64, 24
2, 25124, Note_on_c, 0, 75, 66
2, 25130, Control_c, 0, 64, 21
2, 25149, Control_c, 0, 64, 20
2, 25172, Control_c, 0, 64, 18
2, 25172, Note_on_c, 0, 76, 0
2, 25188, Control_c, 0, 64, 17
2, 25207, Control_c, 0, 64, 14
2, 25225, Control_c, 0, 64, 0
2, 25373, Note_on_c, 0, 74, 64
2, 25386, Note_on_c, 0, 53, 39
2, 25391, Note_on_c, 0, 75, 0
2, 25656, Note_on_c, 0, 74, 0
2, 25679, Note_on_c, 0, 73, 60
2, 25700, Note_on_c, 0, 54, 39
2, 25774, Note_on_c, 0, 53, 0
2, 25805, Note_on_c, 0, 75, 58
2, 25816, Note_on_c, 0, 73, 0
2, 25887, Note_on_c, 0, 59, 0
2, 25908, Note_on_c, 0, 75, 0
2, 25936, Note_on_c, 0, 76, 61
2, 25962, Note_on_c, 0, 58, 40
2, 26071, Control_c, 0, 64, 16
2, 26093, Control_c, 0, 64, 31
2, 26109, Control_c, 0, 64, 42
2, 26118, Note_on_c, 0, 54, 0
2, 26131, Control_c, 0, 64, 52
2, 26147, Control_c, 0, 64, 59
2, 26167, Control_c, 0, 64, 62
2, 26185, Control_c, 0, 64, 65
2, 26207, Control_c, 0, 64, 68
2, 26211, Note_on_c, 0, 76, 0
2, 26223, Control_c, 0, 64, 74
2, 26243, Control_c, 0, 64, 85
2, 26260, Note_on_c, 0, 70, 53
2, 26262, Control_c, 0, 64, 122
2, 26282, Control_c, 0, 64, 127
2, 26311, Note_on_c, 0, 64, 46
2, 26350, Note_on_c, 0, 64, 0
2, 26363, Note_on_c, 0, 58, 0
2, 26675, Note_on_c, 0, 47, 39
2, 26685, Note_on_c, 0, 71, 48
2, 26696, Note_on_c, 0, 63, 43
2, 26705, Control_c, 0, 64, 101
2, 26723, Control_c, 0, 64, 90
2, 26732, Note_on_c, 0, 70, 0
2, 26741, Control_c, 0, 64, 80
2, 26764, Control_c, 0, 64, 74
2, 26782, Control_c, 0, 64, 69
2, 26800, Control_c, 0, 64, 65
2, 26823, Control_c, 0, 64, 63
2, 26838, Control_c, 0, 64, 62
2, 26860, Control_c, 0, 64, 61
2, 26877, Control_c, 0, 64, 60
2, 26895, Control_c, 0, 64, 59
2, 26916, Control_c, 0, 64, 58
2, 26938, Control_c, 0, 64, 55
2, 26956, Control_c, 0, 64, 53
2, 26972, Control_c, 0, 64, 51
2, 26992, Control_c, 0, 64, 48
2, 27014, Control_c, 0, 64, 44
2, 27030, Control_c, 0, 64, 41
2, 27041, Note_on_c, 0, 51, 49
2, 27049, Control_c, 0, 64, 36
2, 27072, Control_c, 0, 64, 31
2, 27089, Control_c, 0, 64, 27
2, 27106, Control_c, 0, 64, 22
2, 27125, Control_c, 0, 64, 17
2, 27145, Control_c, 0, 64, 10
2, 27164, Control_c, 0, 64, 0
2, 27260, Note_on_c, 0, 47, 0
2, 27295, Note_on_c, 0, 54, 58
2, 27418, Note_on_c, 0, 51, 0
2, 27578, Note_on_c, 0, 59, 59
2, 27592, Note_on_c, 0, 54, 0
2, 27851, Note_on_c, 0, 57, 53
2, 27876, Note_on_c, 0, 63, 0
2, 27900, Note_on_c, 0, 71, 0
2, 27922, Note_on_c, 0, 59, 0
2, 28128, Note_on_c, 0, 57, 0
2, 28144, Note_on_c, 0, 59, 36
2, 28395, Control_c, 0, 67, 17
2, 28412, Control_c, 0, 67, 26
2, 28434, Control_c, 0, 67, 34
2, 28440, Note_on_c, 0, 56, 40
2, 28452, Control_c, 0, 67, 42
2, 28472, Control_c, 0, 67, 50
2, 28490, Control_c, 0, 67, 58
2, 28509, Control_c, 0, 67, 67
2, 28530, Control_c, 0, 67, 77
2, 28549, Control_c, 0, 67, 87
2, 28549, Note_on_c, 0, 59, 0
2, 28566, Control_c, 0, 67, 96
2, 28585, Control_c, 0, 67, 104
2, 28607, Control_c, 0, 67, 110
2, 28623, Control_c, 0, 67, 117
2, 28644, Control_c, 0, 67, 123
2, 28663, Control_c, 0, 67, 127
2, 28737, Note_on_c, 0, 75, 50
2, 29008, Note_on_c, 0, 78, 64
2, 29264, Note_on_c, 0, 83, 61
2, 29290, Note_on_c, 0, 78, 0
2, 29330, Note_on_c, 0, 75, 0
2, 29534, Note_on_c, 0, 81, 65
2, 29558, Note_on_c, 0, 54, 40
2, 29580, Note_on_c, 0, 83, 0
2, 29609, Note_on_c, 0, 56, 0
2, 29814, Note_on_c, 0, 56, 44
2, 29814, Note_on_c, 0, 83, 67
2, 29818, Note_on_c, 0, 54, 0
2, 29861, Note_on_c, 0, 81, 0
2, 30111, Note_on_c, 0, 53, 38
2, 30137, Note_on_c, 0, 73, 63
2, 30161, Note_on_c, 0, 56, 0
2, 30425, Note_on_c, 0, 77, 71
2, 30430, Note_on_c, 0, 56, 37
2, 30493, Note_on_c, 0, 83, 0
2, 30573, Note_on_c, 0, 73, 0
2, 30685, Note_on_c, 0, 80, 68
2, 30711, Note_on_c, 0, 59, 46
2, 30722, Note_on_c, 0, 56, 0
2, 31031, Note_on_c, 0, 83, 66
2, 31035, Note_on_c, 0, 62, 39
2, 31075, Note_on_c, 0, 59, 0
2, 31079, Note_on_c, 0, 77, 0
2, 31099, Note_on_c, 0, 80, 0
2, 31286, Note_on_c, 0, 62, 0
2, 31319, Note_on_c, 0, 59, 47
2, 31605, Note_on_c, 0, 61, 45
2, 31610, Note_on_c, 0, 59, 0
2, 31928, Note_on_c, 0, 54, 47
2, 32078, Note_on_c, 0, 53, 0
2, 32223, Note_on_c, 0, 80, 63
2, 32232, Note_on_c, 0, 83, 0
2, 32384, Note_on_c, 0, 61, 0
2, 32487, Note_on_c, 0, 81, 68
2, 32520, Note_on_c, 0, 80, 0
2, 32678, Control_c, 0, 67, 126
2, 32697, Control_c, 0, 67, 122
2, 32716, Control_c, 0, 67, 119
2, 32736, Control_c, 0, 67, 114
2, 32755, Control_c, 0, 67, 110
2, 32776, Note_on_c, 0, 50, 37
2, 32780, Control_c, 0, 67, 105
2, 32780, Note_on_c, 0, 59, 37
2, 32794, Control_c, 0, 67, 102
2, 32815, Control_c, 0, 67, 101
2, 32835, Control_c, 0, 67, 100
2, 32835, Note_on_c, 0, 54, 0
2, 32871, Control_c, 0, 67, 99
2, 32894, Control_c, 0, 67, 97
2, 32908, Control_c, 0, 67, 93
2, 32928, Control_c, 0, 67, 89
2, 32950, Control_c, 0, 67, 83
2, 32968, Control_c, 0, 67, 71
2, 32985, Control_c, 0, 67, 53
2, 33005, Control_c, 0, 67, 31
2, 33027, Control_c, 0, 67, 0
2, 33038, Note_on_c, 0, 78, 73
2, 33061, Note_on_c, 0, 81, 0
2, 33314, Note_on_c, 0, 80, 75
2, 33399, Note_on_c, 0, 78, 0
2, 33574, Note_on_c, 0, 51, 51
2, 33588, Note_on_c, 0, 60, 59
2, 33646, Note_on_c, 0, 59, 0
2, 33785, Note_on_c, 0, 50, 0
2, 33854, Note_on_c, 0, 77, 76
2, 33964, Control_c, 0, 64, 23
2, 33978, Note_on_c, 0, 80, 0
2, 33984, Control_c, 0, 64, 41
2, 34003, Control_c, 0, 64, 53
2, 34024, Control_c, 0, 64, 60
2, 34041, Control_c, 0, 64, 64
2, 34060, Control_c, 0, 64, 67
2, 34073, Note_on_c, 0, 60, 0
2, 34080, Control_c, 0, 64, 73
2, 34102, Control_c, 0, 64, 82
2, 34119, Control_c, 0, 64, 102
2, 34136, Note_on_c, 0, 78, 74
2, 34138, Control_c, 0, 64, 127
2, 34204, Note_on_c, 0, 77, 0
2, 34348, Control_c, 0, 64, 112
2, 34369, Control_c, 0, 64, 99
2, 34387, Control_c, 0, 64, 91
2, 34407, Control_c, 0, 64, 85
2, 34420, Note_on_c, 0, 49, 40
2, 34427, Control_c, 0, 64, 78
2, 34445, Control_c, 0, 64, 71
2, 34455, Note_on_c, 0, 61, 20
2, 34466, Control_c, 0, 64, 67
2, 34480, Note_on_c, 0, 78, 0
2, 34484, Control_c, 0, 64, 65
2, 34484, Note_on_c, 0, 77, 59
2, 34493, Note_on_c, 0, 51, 0
2, 34505, Control_c, 0, 64, 63
2, 34522, Control_c, 0, 64, 61
2, 34541, Control_c, 0, 64, 58
2, 34559, Control_c, 0, 64, 50
2, 34579, Control_c, 0, 64, 32
2, 34597, Control_c, 0, 64, 0
2, 34606, Note_on_c, 0, 78, 63
2, 34611, Note_on_c, 0, 77, 0
2, 34704, Note_on_c, 0, 78, 0
2, 34743, Note_on_c, 0, 80, 61
2, 34753, Control_c, 0, 64, 23
2, 34774, Control_c, 0, 64, 38
2, 34791, Control_c, 0, 64, 49
2, 34808, Control_c, 0, 64, 56
2, 34829, Control_c, 0, 64, 61
2, 34849, Control_c, 0, 64, 63
2, 34867, Control_c, 0, 64, 65
2, 34885, Control_c, 0, 64, 69
2, 34904, Control_c, 0, 64, 76
2, 34926, Control_c, 0, 64, 90
2, 34945, Control_c, 0, 64, 127
2, 35011, Note_on_c, 0, 80, 0
2, 35017, Note_on_c, 0, 61, 0
2, 35024, Note_on_c, 0, 73, 61
2, 35051, Note_on_c, 0, 49, 0
2, 35398, Note_on_c, 0, 47, 44
2, 35406, Note_on_c, 0, 74, 67
2, 35420, Note_on_c, 0, 73, 0
2, 35505, Control_c, 0, 64, 109
2, 35520, Control_c, 0, 64, 101
2, 35538, Control_c, 0, 64, 94
2, 35558, Control_c, 0, 64, 87
2, 35578, Control_c, 0, 64, 80
2, 35597, Control_c, 0, 64, 75
2, 35615, Control_c, 0, 64, 72
2, 35635, Control_c, 0, 64, 70
2, 35654, Control_c, 0, 64, 69
2, 35674, Control_c, 0, 64, 68
2, 35691, Control_c, 0, 64, 67
2, 35699, Note_on_c, 0, 50, 30
2, 35711, Control_c, 0, 64, 66
2, 35721, Note_on_c, 0, 71, 61
2, 35732, Control_c, 0, 64, 65
2, 35750, Control_c, 0, 64, 64
2, 35772, Control_c, 0, 64, 63
2, 35787, Control_c, 0, 64, 62
2, 35809, Control_c, 0, 64, 61
2, 35828, Control_c, 0, 64, 60
2, 35849, Control_c, 0, 64, 58
2, 35865, Control_c, 0, 64, 57
2, 35885, Control_c, 0, 64, 56
2, 35904, Control_c, 0, 64, 54
2, 35925, Control_c, 0, 64, 53
2, 35944, Control_c, 0, 64, 51
2, 35964, Control_c, 0, 64, 49
2, 35975, Note_on_c, 0, 68, 66
2, 35980, Control_c, 0, 64, 47
2, 36001, Note_on_c, 0, 53, 47
2, 36001, Note_on_c, 0, 71, 0
2, 36005, Control_c, 0, 64, 45
2, 36020, Control_c, 0, 64, 43
2, 36037, Control_c, 0, 64, 40
2, 36058, Control_c, 0, 64, 37
2, 36077, Control_c, 0, 64, 35
2, 36084, Note_on_c, 0, 50, 0
2, 36095, Control_c, 0, 64, 33
2, 36114, Control_c, 0, 64, 30
2, 36133, Control_c, 0, 64, 27
2, 36153, Control_c, 0, 64, 24
2, 36172, Control_c, 0, 64, 20
2, 36192, Control_c, 0, 64, 15
2, 36210, Control_c, 0, 64, 0
2, 36239, Note_on_c, 0, 65, 55
2, 36254, Note_on_c, 0, 56, 55
2, 36267, Note_on_c, 0, 53, 0
2, 36322, Note_on_c, 0, 68, 0
2, 36492, Note_on_c, 0, 68, 62
2, 36496, Note_on_c, 0, 59, 56
2, 36528, Note_on_c, 0, 56, 0
2, 36528, Note_on_c, 0, 65, 0
2, 36763, Note_on_c, 0, 57, 58
2, 36772, Note_on_c, 0, 68, 0
2, 36774, Note_on_c, 0, 66, 62
2, 36808, Note_on_c, 0, 59, 0
2, 37039, Note_on_c, 0, 68, 68
2, 37048, Note_on_c, 0, 47, 0
2, 37052, Note_on_c, 0, 59, 58
2, 37091, Note_on_c, 0, 57, 0
2, 37102, Note_on_c, 0, 66, 0
2, 37299, Note_on_c, 0, 71, 70
2, 37306, Note_on_c, 0, 56, 58
2, 37317, Note_on_c, 0, 59, 0
2, 37334, Note_on_c, 0, 68, 0
2, 37523, Note_on_c, 0, 71, 0
2, 37547, Note_on_c, 0, 54, 60
2, 37559, Note_on_c, 0, 69, 64
2, 37583, Note_on_c, 0, 56, 0
2, 37814, Note_on_c, 0, 56, 52
2, 37840, Note_on_c, 0, 71, 68
2, 37881, Note_on_c, 0, 54, 0
2, 37901, Note_on_c, 0, 74, 0
2, 37959, Note_on_c, 0, 57, 62
2, 37959, Note_on_c, 0, 69, 0
2, 37992, Note_on_c, 0, 56, 0
2, 38079, Note_on_c, 0, 57, 0
2, 38086, Note_on_c, 0, 59, 60
2, 38086, Note_on_c, 0, 74, 61
2, 38314, Note_on_c, 0, 74, 0
2, 38327, Note_on_c, 0, 53, 49
2, 38335, Note_on_c, 0, 59, 0
2, 38365, Note_on_c, 0, 73, 66
2, 38508, Note_on_c, 0, 73, 0
2, 38722, Note_on_c, 0, 73, 63
2, 38731, Note_on_c, 0, 54, 39
2, 38777, Note_on_c, 0, 53, 0
2, 38913, Note_on_c, 0, 71, 0
2, 39038, Note_on_c, 0, 69, 59
2, 39106, Control_c, 0, 64, 30
2, 39126, Control_c, 0, 64, 48
2, 39145, Control_c, 0, 64, 58
2, 39165, Control_c, 0, 64, 62
2, 39183, Control_c, 0, 64, 64
2, 39202, Control_c, 0, 64, 67
2, 39221, Control_c, 0, 64, 72
2, 39241, Control_c, 0, 64, 83
2, 39260, Control_c, 0, 64, 127
2, 39290, Note_on_c, 0, 68, 70
2, 39316, Note_on_c, 0, 73, 0
2, 39324, Note_on_c, 0, 69, 0
2, 39585, Note_on_c, 0, 45, 46
2, 39590, Control_c, 0, 64, 103
2, 39601, Note_on_c, 0, 66, 74
2, 39605, Control_c, 0, 64, 94
2, 39626, Control_c, 0, 64, 88
2, 39645, Control_c, 0, 64, 83
2, 39668, Control_c, 0, 64, 76
2, 39668, Note_on_c, 0, 68, 0
2, 39682, Control_c, 0, 64, 68
2, 39702, Control_c, 0, 64, 64
2, 39721, Control_c, 0, 64, 62
2, 39742, Control_c, 0, 64, 61
2, 39758, Control_c, 0, 64, 59
2, 39779, Control_c, 0, 64, 56
2, 39799, Control_c, 0, 64, 53
2, 39816, Control_c, 0, 64, 45
2, 39836, Control_c, 0, 64, 37
2, 39856, Control_c, 0, 64, 27
2, 39875, Control_c, 0, 64, 9
2, 39888, Note_on_c, 0, 71, 69
2, 39895, Control_c, 0, 64, 0
2, 40137, Note_on_c, 0, 69, 65
2, 40197, Note_on_c, 0, 71, 0
2, 40416, Note_on_c, 0, 47, 43
2, 40425, Note_on_c, 0, 68, 69
2, 40482, Note_on_c, 0, 69, 0
2, 40490, Note_on_c, 0, 45, 0
2, 40710, Note_on_c, 0, 69, 52
2, 40774, Note_on_c, 0, 68, 0
2, 40973, Note_on_c, 0, 71, 56
2, 41090, Note_on_c, 0, 69, 0
2, 41118, Note_on_c, 0, 66, 0
2, 41248, Note_on_c, 0, 49, 34
2, 41251, Note_on_c, 0, 71, 0
2, 41266, Note_on_c, 0, 65, 45
2, 41485, Note_on_c, 0, 47, 0
2, 41552, Note_on_c, 0, 69, 43
2, 41792, Note_on_c, 0, 69, 0
2, 41816, Note_on_c, 0, 68, 43
2, 42130, Note_on_c, 0, 42, 36
2, 42134, Note_on_c, 0, 66, 45
2, 42159, Note_on_c, 0, 69, 42
2, 42205, Note_on_c, 0, 68, 0
2, 42220, Note_on_c, 0, 65, 0
2, 42242, Note_on_c, 0, 49, 0
2, 42439, Note_on_c, 0, 54, 0
2, 42488, Note_on_c, 0, 45, 42
2, 42748, Note_on_c, 0, 49, 49
2, 42895, Note_on_c, 0, 45, 0
2, 42925, Note_on_c, 0, 42, 0
2, 42993, Note_on_c, 0, 54, 63
2, 42995, Note_on_c, 0, 49, 0
2, 43253, Note_on_c, 0, 52, 49
2, 43253, Note_on_c, 0, 69, 0
2, 43262, Note_on_c, 0, 71, 65
2, 43291, Note_on_c, 0, 54, 0
2, 43509, Note_on_c, 0, 52, 0
2, 43522, Note_on_c, 0, 54, 52
2, 43522, Note_on_c, 0, 68, 68
2, 43522, Note_on_c, 0, 71, 0
2, 43526, Note_on_c, 0, 64, 55
2, 43585, Note_on_c, 0, 66, 0
2, 43820, Note_on_c, 0, 68, 0
2, 43827, Note_on_c, 0, 47, 41
2, 43832, Note_on_c, 0, 69, 50
2, 43849, Note_on_c, 0, 63, 47
2, 43897, Note_on_c, 0, 54, 0
2, 43913, Note_on_c, 0, 64, 0
2, 44104, Note_on_c, 0, 51, 45
2, 44241, Note_on_c, 0, 47, 0
2, 44385, Note_on_c, 0, 54, 44
2, 44576, Note_on_c, 0, 51, 0
2, 44644, Note_on_c, 0, 54, 0
2, 44655, Note_on_c, 0, 59, 50
2, 44878, Note_on_c, 0, 69, 0
2, 44885, Note_on_c, 0, 63, 0
2, 44890, Note_on_c, 0, 59, 0
2, 44903, Note_on_c, 0, 71, 56
2, 44919, Note_on_c, 0, 57, 44
2, 45019, Note_on_c, 0, 71, 0
2, 45034, Note_on_c, 0, 69, 51
2, 45103, Note_on_c, 0, 69, 0
2, 45116, Note_on_c, 0, 57, 0
2, 45121, Note_on_c, 0, 68, 61
2, 45145, Note_on_c, 0, 59, 47
2, 45233, Note_on_c, 0, 68, 0
2, 45253, Note_on_c, 0, 66, 51
2, 45356, Note_on_c, 0, 59, 0
2, 45360, Note_on_c, 0, 66, 0
2, 45374, Note_on_c, 0, 52, 44
2, 45386, Note_on_c, 0, 68, 58
2, 45492, Note_on_c, 0, 68, 0
2, 45522, Note_on_c, 0, 66, 57
2, 45618, Note_on_c, 0, 66, 0
2, 45645, Note_on_c, 0, 56, 43
2, 45652, Note_on_c, 0, 64, 59
2, 45781, Note_on_c, 0, 66, 56
2, 45790, Note_on_c, 0, 52, 0
2, 45790, Note_on_c, 0, 64, 0
2, 45866, Note_on_c, 0, 66, 0
2, 45874, Note_on_c, 0, 68, 62
2, 45894, Note_on_c, 0, 59, 49
2, 45912, Note_on_c, 0, 56, 0
2, 45999, Note_on_c, 0, 69, 57
2, 46003, Note_on_c, 0, 68, 0
2, 46113, Note_on_c, 0, 69, 0
2, 46122, Note_on_c, 0, 71, 66
2, 46127, Note_on_c, 0, 59, 0
2, 46131, Note_on_c, 0, 64, 55
2, 46228, Note_on_c, 0, 71, 0
2, 46255, Note_on_c, 0, 69, 65
2, 46371, Note_on_c, 0, 68, 75
2, 46371, Note_on_c, 0, 69, 0
2, 46376, Note_on_c, 0, 64, 0
2, 46400, Note_on_c, 0, 62, 47
2, 46484, Note_on_c, 0, 68, 0
2, 46502, Note_on_c, 0, 69, 68
2, 46628, Note_on_c, 0, 71, 70
2, 46640, Note_on_c, 0, 61, 50
2, 46644, Note_on_c, 0, 62, 0
2, 46674, Note_on_c, 0, 69, 0
2, 46739, Note_on_c, 0, 73, 70
2, 46787, Note_on_c, 0, 71, 0
2, 46900, Note_on_c, 0, 74, 63
2, 46905, Note_on_c, 0, 73, 0
2, 46918, Note_on_c, 0, 59, 40
2, 46955, Note_on_c, 0, 61, 0
2, 47048, Note_on_c, 0, 73, 69
2, 47053, Note_on_c, 0, 74, 0
2, 47158, Note_on_c, 0, 71, 63
2, 47196, Note_on_c, 0, 73, 0
2, 47258, Note_on_c, 0, 71, 0
2, 47276, Note_on_c, 0, 69, 59
2, 47396, Note_on_c, 0, 59, 0
2, 47396, Note_on_c, 0, 69, 0
2, 47401, Note_on_c, 0, 57, 43
2, 47401, Note_on_c, 0, 68, 63
2, 47514, Note_on_c, 0, 66, 58
2, 47514, Note_on_c, 0, 68, 0
2, 47591, Note_on_c, 0, 57, 0
2, 47624, Note_on_c, 0, 56, 57
2, 47655, Note_on_c, 0, 64, 53
2, 47731, Note_on_c, 0, 66, 0
2, 47751, Note_on_c, 0, 56, 0
2, 47771, Note_on_c, 0, 62, 61
2, 47806, Note_on_c, 0, 64, 0
2, 47852, Note_on_c, 0, 62, 0
2, 47881, Note_on_c, 0, 61, 54
2, 47946, Note_on_c, 0, 61, 0
2, 48008, Note_on_c, 0, 59, 56
2, 48119, Note_on_c, 0, 59, 0
2, 48148, Note_on_c, 0, 57, 49
2, 48239, Note_on_c, 0, 57, 0
2, 48271, Note_on_c, 0, 56, 46
2, 48490, Note_on_c, 0, 57, 25
2, 48494, Note_on_c, 0, 69, 45
2, 48498, Note_on_c, 0, 56, 0
2, 48801, Note_on_c, 0, 73, 62
2, 48922, Note_on_c, 0, 69, 0
2, 49059, Note_on_c, 0, 76, 73
2, 49333, Note_on_c, 0, 81, 70
2, 49341, Note_on_c, 0, 76, 0
2, 49359, Note_on_c, 0, 73, 0
2, 49363, Note_on_c, 0, 61, 33
2, 49603, Note_on_c, 0, 80, 74
2, 49652, Note_on_c, 0, 81, 0
2, 49880, Note_on_c, 0, 81, 73
2, 49919, Note_on_c, 0, 80, 0
2, 50126, Note_on_c, 0, 62, 42
2, 50194, Note_on_c, 0, 80, 64
2, 50195, Note_on_c, 0, 81, 0
2, 50266, Note_on_c, 0, 80, 0
2, 50277, Note_on_c, 0, 78, 70
2, 50326, Note_on_c, 0, 78, 0
2, 50339, Note_on_c, 0, 80, 73
2, 50363, Note_on_c, 0, 61, 0
2, 50422, Note_on_c, 0, 78, 79
2, 50422, Note_on_c, 0, 80, 0
2, 50485, Note_on_c, 0, 76, 71
2, 50502, Note_on_c, 0, 78, 0
2, 50760, Note_on_c, 0, 78, 77
2, 50831, Note_on_c, 0, 76, 0
2, 51072, Note_on_c, 0, 81, 62
2, 51181, Note_on_c, 0, 78, 0
2, 51330, Note_on_c, 0, 61, 42
2, 51430, Note_on_c, 0, 62, 0
2, 51569, Control_c, 0, 67, 11
2, 51583, Note_on_c, 0, 61, 0
2, 51591, Control_c, 0, 67, 31
2, 51591, Note_on_c, 0, 59, 48
2, 51607, Control_c, 0, 67, 54
2, 51626, Control_c, 0, 67, 78
2, 51646, Control_c, 0, 67, 104
2, 51666, Control_c, 0, 67, 127
2, 51859, Note_on_c, 0, 61, 34
2, 51935, Note_on_c, 0, 81, 0
2, 51942, Note_on_c, 0, 78, 55
2, 51966, Note_on_c, 0, 59, 0
2, 51997, Note_on_c, 0, 78, 0
2, 52018, Note_on_c, 0, 76, 64
2, 52058, Note_on_c, 0, 76, 0
2, 52084, Note_on_c, 0, 78, 68
2, 52121, Note_on_c, 0, 78, 0
2, 52153, Note_on_c, 0, 76, 67
2, 52210, Note_on_c, 0, 76, 0
2, 52223, Note_on_c, 0, 74, 51
2, 52506, Note_on_c, 0, 76, 55
2, 52572, Note_on_c, 0, 74, 0
2, 52767, Note_on_c, 0, 81, 52
2, 52847, Note_on_c, 0, 76, 0
2, 53052, Note_on_c, 0, 62, 44
2, 53104, Note_on_c, 0, 61, 0
2, 53295, Note_on_c, 0, 61, 45
2, 53415, Note_on_c, 0, 62, 0
2, 53584, Note_on_c, 0, 59, 36
2, 53590, Note_on_c, 0, 74, 57
2, 53633, Note_on_c, 0, 61, 0
2, 53734, Note_on_c, 0, 81, 0
2, 53873, Note_on_c, 0, 76, 67
2, 54017, Note_on_c, 0, 74, 0
2, 54118, Note_on_c, 0, 78, 71
2, 54247, Note_on_c, 0, 76, 0
2, 54377, Note_on_c, 0, 56, 38
2, 54399, Note_on_c, 0, 76, 72
2, 54458, Note_on_c, 0, 78, 0
2, 54477, Note_on_c, 0, 57, 0
2, 54499, Note_on_c, 0, 59, 0
2, 54641, Control_c, 0, 67, 126
2, 54663, Control_c, 0, 64, 10
2, 54663, Control_c, 0, 67, 124
2, 54663, Note_on_c, 0, 78, 70
2, 54680, Control_c, 0, 64, 37
2, 54680, Control_c, 0, 67, 119
2, 54699, Control_c, 0, 64, 50
2, 54699, Control_c, 0, 67, 114
2, 54717, Control_c, 0, 64, 59
2, 54722, Control_c, 0, 67, 109
2, 54737, Control_c, 0, 64, 62
2, 54737, Control_c, 0, 67, 106
2, 54757, Control_c, 0, 64, 65
2, 54757, Control_c, 0, 67, 103
2, 54776, Control_c, 0, 64, 68
2, 54776, Control_c, 0, 67, 100
2, 54794, Control_c, 0, 64, 75
2, 54798, Control_c, 0, 67, 98
2, 54813, Control_c, 0, 64, 91
2, 54818, Control_c, 0, 67, 95
2, 54836, Control_c, 0, 64, 127
2, 54836, Control_c, 0, 67, 93
2, 54836, Note_on_c, 0, 56, 0
2, 54849, Control_c, 0, 67, 91
2, 54862, Note_on_c, 0, 76, 0
2, 54869, Control_c, 0, 67, 88
2, 54890, Control_c, 0, 67, 84
2, 54907, Control_c, 0, 67, 82
2, 54913, Note_on_c, 0, 78, 0
2, 54929, Control_c, 0, 67, 79
2, 54933, Note_on_c, 0, 74, 59
2, 54948, Control_c, 0, 67, 77
2, 54965, Control_c, 0, 67, 76
2, 54985, Control_c, 0, 67, 75
2, 55189, Note_on_c, 0, 45, 41
2, 55200, Control_c, 0, 64, 110
2, 55202, Note_on_c, 0, 73, 67
2, 55202, Note_on_c, 0, 74, 0
2, 55216, Control_c, 0, 64, 102
2, 55234, Control_c, 0, 64, 93
2, 55253, Control_c, 0, 64, 85
2, 55273, Control_c, 0, 64, 78
2, 55291, Control_c, 0, 64, 74
2, 55310, Control_c, 0, 64, 71
2, 55329, Control_c, 0, 64, 69
2, 55349, Control_c, 0, 64, 68
2, 55370, Control_c, 0, 64, 65
2, 55388, Control_c, 0, 64, 63
2, 55407, Control_c, 0, 64, 62
2, 55427, Control_c, 0, 64, 61
2, 55465, Control_c, 0, 64, 60
2, 55478, Note_on_c, 0, 69, 61
2, 55482, Note_on_c, 0, 49, 43
2, 55487, Control_c, 0, 64, 58
2, 55487, Control_c, 0, 67, 74
2, 55503, Control_c, 0, 64, 55
2, 55522, Control_c, 0, 64, 54
2, 55536, Note_on_c, 0, 73, 0
2, 55544, Control_c, 0, 64, 53
2, 55565, Control_c, 0, 64, 52
2, 55565, Control_c, 0, 67, 73
2, 55582, Control_c, 0, 64, 49
2, 55601, Control_c, 0, 64, 45
2, 55601, Control_c, 0, 67, 69
2, 55620, Control_c, 0, 64, 42
2, 55620, Control_c, 0, 67, 62
2, 55640, Control_c, 0, 64, 39
2, 55640, Control_c, 0, 67, 52
2, 55658, Control_c, 0, 64, 35
2, 55658, Control_c, 0, 67, 41
2, 55678, Control_c, 0, 64, 30
2, 55678, Control_c, 0, 67, 26
2, 55696, Control_c, 0, 64, 24
2, 55696, Control_c, 0, 67, 9
2, 55715, Control_c, 0, 64, 17
2, 55715, Control_c, 0, 67, 0
2, 55722, Note_on_c, 0, 52, 50
2, 55737, Control_c, 0, 64, 11
2, 55737, Note_on_c, 0, 71, 70
2, 55755, Control_c, 0, 64, 0
2, 55848, Note_on_c, 0, 49, 0
2, 55860, Note_on_c, 0, 69, 0
2, 55973, Note_on_c, 0, 45, 0
2, 56000, Note_on_c, 0, 73, 71
2, 56016, Note_on_c, 0, 57, 51
2, 56034, Note_on_c, 0, 52, 0
2, 56107, Note_on_c, 0, 71, 0
2, 56261, Note_on_c, 0, 56, 57
2, 56320, Note_on_c, 0, 57, 0
2, 56524, Note_on_c, 0, 57, 59
2, 56583, Note_on_c, 0, 56, 0
2, 56791, Note_on_c, 0, 51, 51
2, 56865, Note_on_c, 0, 57, 0
2, 57066, Note_on_c, 0, 71, 57
2, 57190, Note_on_c, 0, 73, 0
2, 57320, Note_on_c, 0, 54, 49
2, 57325, Note_on_c, 0, 69, 57
2, 57325, Note_on_c, 0, 71, 0
2, 57449, Note_on_c, 0, 54, 0
2, 57609, Note_on_c, 0, 59, 38
2, 57613, Note_on_c, 0, 68, 53
2, 57657, Note_on_c, 0, 69, 0
2, 57849, Control_c, 0, 64, 13
2, 57853, Note_on_c, 0, 69, 43
2, 57868, Control_c, 0, 64, 32
2, 57884, Control_c, 0, 64, 45
2, 57903, Control_c, 0, 64, 54
2, 57925, Control_c, 0, 64, 59
2, 57941, Control_c, 0, 64, 61
2, 57945, Note_on_c, 0, 68, 0
2, 57960, Control_c, 0, 64, 62
2, 57979, Control_c, 0, 64, 64
2, 57983, Note_on_c, 0, 59, 0
2, 58000, Control_c, 0, 64, 66
2, 58019, Control_c, 0, 64, 68
2, 58037, Control_c, 0, 64, 72
2, 58041, Note_on_c, 0, 51, 0
2, 58057, Control_c, 0, 64, 76
2, 58077, Control_c, 0, 64, 81
2, 58095, Control_c, 0, 64, 84
2, 58112, Note_on_c, 0, 66, 53
2, 58115, Control_c, 0, 64, 85
2, 58210, Control_c, 0, 64, 84
2, 58231, Control_c, 0, 64, 81
2, 58249, Control_c, 0, 64, 79
2, 58269, Control_c, 0, 64, 76
2, 58287, Control_c, 0, 64, 74
2, 58308, Control_c, 0, 64, 72
2, 58315, Note_on_c, 0, 69, 0
2, 58325, Control_c, 0, 64, 69
2, 58345, Control_c, 0, 64, 66
2, 58364, Control_c, 0, 64, 65
2, 58385, Control_c, 0, 64, 64
2, 58407, Note_on_c, 0, 40, 30
2, 58422, Note_on_c, 0, 68, 52
2, 58441, Control_c, 0, 64, 63
2, 58499, Control_c, 0, 64, 62
2, 58556, Control_c, 0, 64, 61
2, 58594, Control_c, 0, 64, 60
2, 58655, Control_c, 0, 64, 59
2, 58672, Control_c, 0, 64, 58
2, 58692, Control_c, 0, 64, 57
2, 58710, Note_on_c, 0, 44, 45
2, 58710, Note_on_c, 0, 64, 58
2, 58729, Control_c, 0, 64, 56
2, 58763, Note_on_c, 0, 68, 0
2, 58768, Control_c, 0, 64, 55
2, 58792, Note_on_c, 0, 66, 0
2, 58806, Control_c, 0, 64, 53
2, 58826, Control_c, 0, 64, 51
2, 58844, Control_c, 0, 64, 50
2, 58901, Control_c, 0, 64, 49
2, 58923, Control_c, 0, 64, 47
2, 58943, Control_c, 0, 64, 46
2, 58950, Note_on_c, 0, 66, 51
2, 58959, Control_c, 0, 64, 45
2, 58962, Note_on_c, 0, 47, 45
2, 59094, Note_on_c, 0, 44, 0
2, 59156, Note_on_c, 0, 64, 0
2, 59180, Note_on_c, 0, 40, 0
2, 59258, Note_on_c, 0, 68, 57
2, 59282, Note_on_c, 0, 52, 41
2, 59286, Control_c, 0, 64, 44
2, 59296, Note_on_c, 0, 66, 0
2, 59308, Note_on_c, 0, 47, 0
2, 59325, Control_c, 0, 64, 43
2, 59385, Control_c, 0, 64, 42
2, 59439, Control_c, 0, 64, 41
2, 59496, Control_c, 0, 64, 40
2, 59537, Control_c, 0, 64, 39
2, 59557, Note_on_c, 0, 51, 50
2, 59594, Control_c, 0, 64, 38
2, 59619, Note_on_c, 0, 52, 0
2, 59632, Control_c, 0, 64, 37
2, 59649, Control_c, 0, 64, 35
2, 59728, Control_c, 0, 64, 34
2, 59786, Control_c, 0, 64, 33
2, 59786, Note_on_c, 0, 52, 42
2, 59826, Note_on_c, 0, 51, 0
2, 59902, Control_c, 0, 64, 32
2, 59978, Control_c, 0, 64, 31
2, 59995, Control_c, 0, 64, 30
2, 60034, Control_c, 0, 64, 29
2, 60053, Control_c, 0, 64, 28
2, 60074, Control_c, 0, 64, 27
2, 60080, Note_on_c, 0, 52, 0
2, 60084, Note_on_c, 0, 45, 36
2, 60091, Control_c, 0, 64, 25
2, 60110, Control_c, 0, 64, 23
2, 60131, Control_c, 0, 64, 20
2, 60149, Control_c, 0, 64, 18
2, 60168, Control_c, 0, 64, 16
2, 60187, Control_c, 0, 64, 11
2, 60208, Control_c, 0, 64, 0
2, 60353, Note_on_c, 0, 69, 50
2, 60537, Note_on_c, 0, 68, 0
2, 60626, Note_on_c, 0, 52, 41
2, 60633, Note_on_c, 0, 71, 56
2, 60740, Note_on_c, 0, 69, 0
2, 60755, Note_on_c, 0, 52, 0
2, 60890, Note_on_c, 0, 57, 44
2, 60899, Note_on_c, 0, 73, 65
2, 60939, Note_on_c, 0, 71, 0
2, 61168, Note_on_c, 0, 73, 0
2, 61173, Note_on_c, 0, 66, 65
2, 61421, Note_on_c, 0, 69, 61
2, 61481, Note_on_c, 0, 66, 0
2, 61674, Note_on_c, 0, 47, 44
2, 61711, Note_on_c, 0, 59, 53
2, 61727, Note_on_c, 0, 45, 0
2, 61815, Note_on_c, 0, 69, 0
2, 61990, Note_on_c, 0, 63, 65
2, 62259, Note_on_c, 0, 66, 68
2, 62358, Note_on_c, 0, 59, 0
2, 62527, Note_on_c, 0, 56, 46
2, 62532, Note_on_c, 0, 71, 65
2, 62576, Note_on_c, 0, 66, 0
2, 62591, Note_on_c, 0, 63, 0
2, 62776, Note_on_c, 0, 57, 0
2, 62796, Note_on_c, 0, 69, 65
2, 62847, Note_on_c, 0, 71, 0
2, 63063, Note_on_c, 0, 71, 75
2, 63103, Note_on_c, 0, 69, 0
2, 63329, Note_on_c, 0, 61, 61
2, 63616, Note_on_c, 0, 64, 72
2, 63663, Note_on_c, 0, 71, 0
2, 63751, Note_on_c, 0, 61, 0
2, 63895, Note_on_c, 0, 68, 75
2, 64189, Note_on_c, 0, 69, 68
2, 64213, Note_on_c, 0, 64, 0
2, 64240, Note_on_c, 0, 68, 0
2, 64460, Note_on_c, 0, 54, 61
2, 64491, Note_on_c, 0, 56, 0
2, 64726, Note_on_c, 0, 52, 67
2, 64753, Note_on_c, 0, 54, 0
2, 65053, Note_on_c, 0, 51, 52
2, 65057, Note_on_c, 0, 59, 59
2, 65133, Note_on_c, 0, 52, 0
2, 65371, Note_on_c, 0, 63, 58
2, 65380, Note_on_c, 0, 69, 0
2, 65644, Note_on_c, 0, 66, 60
2, 65964, Note_on_c, 0, 69, 32
2, 65975, Note_on_c, 0, 71, 36
2, 66208, Note_on_c, 0, 71, 0
2, 66211, Note_on_c, 0, 68, 58
2, 66219, Note_on_c, 0, 69, 0
2, 66510, Note_on_c, 0, 42, 44
2, 66512, Note_on_c, 0, 69, 52
2, 66613, Note_on_c, 0, 66, 0
2, 66620, Note_on_c, 0, 68, 0
2, 66631, Note_on_c, 0, 59, 0
2, 66658, Note_on_c, 0, 63, 0
2, 66788, Note_on_c, 0, 42, 0
2, 66846, Note_on_c, 0, 43, 43
2, 66855, Note_on_c, 0, 59, 49
2, 67189, Note_on_c, 0, 63, 49
2, 67189, Note_on_c, 0, 69, 0
2, 67478, Note_on_c, 0, 66, 47
2, 67780, Note_on_c, 0, 59, 0
2, 67789, Note_on_c, 0, 52, 27
2, 67793, Note_on_c, 0, 67, 46
2, 67805, Note_on_c, 0, 66, 0
2, 67841, Note_on_c, 0, 63, 0
2, 67909, Note_on_c, 0, 51, 0
2, 67919, Note_on_c, 0, 47, 0
2, 68093, Note_on_c, 0, 45, 44
2, 68157, Note_on_c, 0, 43, 0
2, 68358, Note_on_c, 0, 47, 55
2, 68360, Note_on_c, 0, 45, 0
2, 68643, Note_on_c, 0, 47, 0
2, 68650, Note_on_c, 0, 48, 50
2, 68688, Note_on_c, 0, 52, 0
2, 68927, Note_on_c, 0, 69, 59
2, 68936, Note_on_c, 0, 54, 42
2, 68982, Note_on_c, 0, 67, 0
2, 69188, Note_on_c, 0, 67, 65
2, 69205, Note_on_c, 0, 55, 40
2, 69259, Note_on_c, 0, 69, 0
2, 69349, Note_on_c, 0, 54, 0
2, 69465, Note_on_c, 0, 66, 62
2, 69472, Note_on_c, 0, 57, 47
2, 69513, Note_on_c, 0, 55, 0
2, 69541, Note_on_c, 0, 67, 0
2, 69738, Note_on_c, 0, 67, 64
2, 69784, Note_on_c, 0, 66, 0
2, 69941, Control_c, 0, 64, 31
2, 69959, Control_c, 0, 64, 46
2, 69978, Control_c, 0, 64, 56
2, 69999, Control_c, 0, 64, 61
2, 70003, Note_on_c, 0, 64, 63
2, 70005, Note_on_c, 0, 67, 0
2, 70020, Control_c, 0, 64, 63
2, 70037, Control_c, 0, 64, 65
2, 70055, Note_on_c, 0, 64, 0
2, 70060, Control_c, 0, 64, 69
2, 70075, Control_c, 0, 64, 76
2, 70095, Control_c, 0, 64, 91
2, 70113, Control_c, 0, 64, 127
2, 70312, Note_on_c, 0, 47, 51
2, 70312, Note_on_c, 0, 64, 62
2, 70366, Note_on_c, 0, 64, 0
2, 70393, Note_on_c, 0, 48, 0
2, 70393, Note_on_c, 0, 63, 59
2, 70422, Control_c, 0, 64, 109
2, 70433, Note_on_c, 0, 63, 0
2, 70442, Control_c, 0, 64, 90
2, 70461, Control_c, 0, 64, 79
2, 70466, Note_on_c, 0, 64, 68
2, 70478, Control_c, 0, 64, 72
2, 70498, Control_c, 0, 64, 67
2, 70518, Control_c, 0, 64, 64
2, 70518, Note_on_c, 0, 63, 70
2, 70538, Control_c, 0, 64, 61
2, 70557, Control_c, 0, 64, 58
2, 70567, Note_on_c, 0, 64, 0
2, 70574, Control_c, 0, 64, 54
2, 70577, Note_on_c, 0, 57, 0
2, 70595, Control_c, 0, 64, 50
2, 70616, Control_c, 0, 64, 42
2, 70616, Note_on_c, 0, 61, 66
2, 70635, Control_c, 0, 64, 22
2, 70651, Control_c, 0, 64, 0
2, 70657, Note_on_c, 0, 63, 0
2, 70920, Control_c, 0, 64, 8
2, 70939, Note_on_c, 0, 59, 73
2, 70943, Control_c, 0, 64, 30
2, 70959, Control_c, 0, 64, 43
2, 70963, Note_on_c, 0, 61, 0
2, 70977, Control_c, 0, 64, 54
2, 70996, Control_c, 0, 64, 61
2, 71018, Control_c, 0, 64, 64
2, 71035, Control_c, 0, 64, 68
2, 71056, Control_c, 0, 64, 76
2, 71075, Control_c, 0, 64, 89
2, 71093, Control_c, 0, 64, 127
2, 71165, Note_on_c, 0, 59, 0
2, 71321, Note_on_c, 0, 72, 80
2, 71690, Note_on_c, 0, 49, 48
2, 71704, Note_on_c, 0, 71, 76
2, 71720, Note_on_c, 0, 56, 39
2, 71747, Control_c, 0, 64, 118
2, 71766, Control_c, 0, 64, 106
2, 71783, Note_on_c, 0, 72, 0
2, 71785, Control_c, 0, 64, 99
2, 71806, Control_c, 0, 64, 94
2, 71822, Control_c, 0, 64, 88
2, 71841, Control_c, 0, 64, 83
2, 71861, Control_c, 0, 64, 79
2, 71880, Control_c, 0, 64, 76
2, 71899, Control_c, 0, 64, 75
2, 71920, Control_c, 0, 64, 74
2, 71936, Control_c, 0, 64, 73
2, 71961, Control_c, 0, 64, 71
2, 71977, Control_c, 0, 64, 69
2, 71994, Control_c, 0, 64, 68
2, 72015, Control_c, 0, 64, 67
2, 72028, Note_on_c, 0, 70, 75
2, 72033, Note_on_c, 0, 54, 46
2, 72037, Control_c, 0, 64, 66
2, 72042, Note_on_c, 0, 51, 47
2, 72046, Note_on_c, 0, 56, 0
2, 72093, Control_c, 0, 64, 65
2, 72096, Note_on_c, 0, 71, 0
2, 72112, Note_on_c, 0, 47, 0
2, 72115, Control_c, 0, 64, 64
2, 72130, Control_c, 0, 64, 63
2, 72148, Control_c, 0, 64, 61
2, 72168, Control_c, 0, 64, 60
2, 72188, Control_c, 0, 64, 59
2, 72207, Control_c, 0, 64, 57
2, 72225, Control_c, 0, 64, 55
2, 72247, Control_c, 0, 64, 52
2, 72265, Control_c, 0, 64, 50
2, 72284, Control_c, 0, 64, 48
2, 72305, Control_c, 0, 64, 45
2, 72322, Control_c, 0, 64, 41
2, 72331, Note_on_c, 0, 52, 53
2, 72342, Control_c, 0, 64, 34
2, 72346, Note_on_c, 0, 69, 67
2, 72352, Note_on_c, 0, 70, 0
2, 72364, Control_c, 0, 64, 27
2, 72379, Control_c, 0, 64, 23
2, 72398, Control_c, 0, 64, 19
2, 72417, Control_c, 0, 64, 0
2, 72426, Note_on_c, 0, 54, 0
2, 72518, Note_on_c, 0, 49, 0
2, 72518, Note_on_c, 0, 51, 0
2, 72613, Note_on_c, 0, 68, 69
2, 72654, Note_on_c, 0, 69, 0
2, 72851, Note_on_c, 0, 46, 45
2, 72873, Note_on_c, 0, 67, 62
2, 72909, Note_on_c, 0, 68, 0
2, 73016, Note_on_c, 0, 46, 0
2, 73103, Note_on_c, 0, 47, 42
2, 73135, Note_on_c, 0, 67, 0
2, 73153, Note_on_c, 0, 66, 62
2, 73285, Note_on_c, 0, 68, 61
2, 73294, Note_on_c, 0, 66, 0
2, 73360, Note_on_c, 0, 52, 0
2, 73386, Note_on_c, 0, 68, 0
2, 73394, Note_on_c, 0, 51, 47
2, 73411, Note_on_c, 0, 69, 55
2, 73678, Note_on_c, 0, 69, 0
2, 73690, Note_on_c, 0, 47, 0
2, 73701, Note_on_c, 0, 57, 43
2, 73701, Note_on_c, 0, 63, 52
2, 73724, Note_on_c, 0, 51, 0
2, 74042, Note_on_c, 0, 49, 32
2, 74054, Note_on_c, 0, 56, 32
2, 74054, Note_on_c, 0, 64, 53
2, 74073, Note_on_c, 0, 63, 0
2, 74181, Note_on_c, 0, 57, 0
2, 74400, Note_on_c, 0, 52, 48
2, 74425, Note_on_c, 0, 56, 0
2, 74652, Note_on_c, 0, 56, 49
2, 74670, Note_on_c, 0, 52, 0
2, 74923, Note_on_c, 0, 57, 50
2, 74963, Note_on_c, 0, 56, 0
2, 75190, Note_on_c, 0, 56, 49
2, 75197, Note_on_c, 0, 57, 0
2, 75298, Control_c, 0, 64, 26
2, 75318, Control_c, 0, 64, 42
2, 75336, Control_c, 0, 64, 54
2, 75354, Control_c, 0, 64, 59
2, 75375, Control_c, 0, 64, 61
2, 75395, Control_c, 0, 64, 63
2, 75413, Control_c, 0, 64, 65
2, 75432, Control_c, 0, 64, 68
2, 75453, Control_c, 0, 64, 75
2, 75462, Note_on_c, 0, 57, 53
2, 75475, Control_c, 0, 64, 84
2, 75490, Control_c, 0, 64, 96
2, 75508, Control_c, 0, 64, 127
2, 75518, Note_on_c, 0, 57, 0
2, 75527, Note_on_c, 0, 56, 0
2, 75554, Note_on_c, 0, 49, 0
2, 75774, Note_on_c, 0, 44, 40
2, 75779, Control_c, 0, 64, 116
2, 75798, Control_c, 0, 64, 95
2, 75813, Note_on_c, 0, 52, 34
2, 75817, Control_c, 0, 64, 84
2, 75835, Control_c, 0, 64, 77
2, 75854, Control_c, 0, 64, 73
2, 75873, Control_c, 0, 64, 70
2, 75894, Control_c, 0, 64, 68
2, 75912, Control_c, 0, 64, 67
2, 75931, Control_c, 0, 64, 65
2, 75954, Control_c, 0, 64, 64
2, 75989, Control_c, 0, 64, 63
2, 76008, Control_c, 0, 64, 61
2, 76027, Control_c, 0, 64, 60
2, 76049, Control_c, 0, 64, 58
2, 76068, Control_c, 0, 64, 55
2, 76084, Control_c, 0, 64, 53
2, 76097, Note_on_c, 0, 56, 51
2, 76105, Control_c, 0, 64, 50
2, 76122, Control_c, 0, 64, 46
2, 76142, Control_c, 0, 64, 41
2, 76161, Control_c, 0, 64, 34
2, 76180, Control_c, 0, 64, 28
2, 76199, Control_c, 0, 64, 21
2, 76217, Control_c, 0, 64, 14
2, 76238, Control_c, 0, 64, 0
2, 76378, Note_on_c, 0, 59, 56
2, 76475, Note_on_c, 0, 56, 0
2, 76680, Note_on_c, 0, 62, 56
2, 76714, Note_on_c, 0, 59, 0
2, 76938, Note_on_c, 0, 62, 0
2, 76968, Note_on_c, 0, 61, 49
2, 77162, Control_c, 0, 64, 24
2, 77178, Control_c, 0, 64, 40
2, 77200, Control_c, 0, 64, 52
2, 77220, Control_c, 0, 64, 59
2, 77236, Control_c, 0, 64, 63
2, 77257, Control_c, 0, 64, 64
2, 77279, Control_c, 0, 64, 66
2, 77298, Control_c, 0, 64, 69
2, 77314, Control_c, 0, 64, 74
2, 77320, Note_on_c, 0, 62, 47
2, 77333, Control_c, 0, 64, 82
2, 77353, Control_c, 0, 64, 92
2, 77373, Control_c, 0, 64, 107
2, 77383, Note_on_c, 0, 61, 0
2, 77392, Control_c, 0, 64, 127
2, 77439, Note_on_c, 0, 44, 0
2, 77621, Control_c, 0, 64, 111
2, 77640, Control_c, 0, 64, 102
2, 77658, Control_c, 0, 64, 93
2, 77663, Note_on_c, 0, 45, 36
2, 77667, Note_on_c, 0, 62, 0
2, 77681, Control_c, 0, 64, 87
2, 77699, Control_c, 0, 64, 83
2, 77718, Control_c, 0, 64, 80
2, 77735, Control_c, 0, 64, 78
2, 77746, Note_on_c, 0, 61, 49
2, 77758, Control_c, 0, 64, 75
2, 77775, Control_c, 0, 64, 71
2, 77795, Control_c, 0, 64, 68
2, 77813, Control_c, 0, 64, 65
2, 77835, Control_c, 0, 64, 64
2, 77851, Control_c, 0, 64, 63
2, 77851, Note_on_c, 0, 52, 0
2, 77873, Control_c, 0, 64, 62
2, 77890, Control_c, 0, 64, 61
2, 77909, Control_c, 0, 64, 60
2, 77929, Control_c, 0, 64, 59
2, 77946, Control_c, 0, 64, 56
2, 77966, Control_c, 0, 64, 54
2, 77985, Control_c, 0, 64, 52
2, 78005, Control_c, 0, 64, 49
2, 78027, Control_c, 0, 64, 47
2, 78042, Control_c, 0, 64, 44
2, 78064, Control_c, 0, 64, 42
2, 78082, Control_c, 0, 64, 39
2, 78086, Note_on_c, 0, 49, 41
2, 78101, Control_c, 0, 64, 37
2, 78123, Control_c, 0, 64, 34
2, 78138, Control_c, 0, 64, 32
2, 78159, Control_c, 0, 64, 30
2, 78177, Control_c, 0, 64, 28
2, 78196, Control_c, 0, 64, 26
2, 78216, Control_c, 0, 64, 25
2, 78253, Control_c, 0, 64, 24
2, 78274, Control_c, 0, 64, 23
2, 78293, Control_c, 0, 64, 22
2, 78330, Control_c, 0, 64, 21
2, 78354, Note_on_c, 0, 52, 47
2, 78506, Note_on_c, 0, 49, 0
2, 78691, Note_on_c, 0, 57, 44
2, 78753, Control_c, 0, 64, 20
2, 78806, Note_on_c, 0, 52, 0
2, 79091, Note_on_c, 0, 56, 40
2, 79225, Note_on_c, 0, 57, 0
2, 79655, Note_on_c, 0, 57, 32
2, 79664, Note_on_c, 0, 63, 43
2, 79673, Note_on_c, 0, 60, 39
2, 79719, Note_on_c, 0, 64, 0
2, 79778, Note_on_c, 0, 56, 0
2, 79830, Control_c, 0, 64, 19
2, 79848, Control_c, 0, 64, 17
2, 79867, Control_c, 0, 64, 11
2, 79888, Control_c, 0, 64, 0
2, 80059, Control_c, 0, 64, 23
2, 80078, Control_c, 0, 64, 33
2, 80098, Control_c, 0, 64, 42
2, 80116, Control_c, 0, 64, 49
2, 80136, Control_c, 0, 64, 54
2, 80155, Control_c, 0, 64, 57
2, 80174, Control_c, 0, 64, 59
2, 80193, Control_c, 0, 64, 60
2, 80212, Control_c, 0, 64, 61
2, 80235, Control_c, 0, 64, 62
2, 80254, Control_c, 0, 64, 63
2, 80271, Control_c, 0, 64, 65
2, 80291, Control_c, 0, 64, 67
2, 80309, Control_c, 0, 64, 71
2, 80329, Control_c, 0, 64, 76
2, 80349, Control_c, 0, 64, 83
2, 80366, Control_c, 0, 64, 91
2, 80386, Control_c, 0, 64, 102
2, 80405, Control_c, 0, 64, 127
2, 80470, Note_on_c, 0, 61, 0
2, 81009, Note_on_c, 0, 40, 11
2, 81054, Note_on_c, 0, 64, 50
2, 81173, Control_c, 0, 64, 115
2, 81193, Control_c, 0, 64, 106
2, 81212, Control_c, 0, 64, 97
2, 81231, Control_c, 0, 64, 90
2, 81240, Note_on_c, 0, 60, 0
2, 81251, Control_c, 0, 64, 85
2, 81268, Control_c, 0, 64, 81
2, 81279, Note_on_c, 0, 63, 0
2, 81288, Control_c, 0, 64, 77
2, 81306, Control_c, 0, 64, 73
2, 81310, Note_on_c, 0, 45, 0
2, 81315, Note_on_c, 0, 57, 0
2, 81327, Control_c, 0, 64, 71
2, 81347, Control_c, 0, 64, 69
2, 81368, Control_c, 0, 64, 68
2, 81384, Control_c, 0, 64, 67
2, 81421, Control_c, 0, 64, 66
2, 81441, Control_c, 0, 64, 65
2, 81460, Control_c, 0, 64, 64
2, 81480, Control_c, 0, 64, 63
2, 81520, Control_c, 0, 64, 62
2, 81557, Control_c, 0, 64, 61
2, 81577, Control_c, 0, 64, 59
2, 81594, Control_c, 0, 64, 58
2, 81634, Control_c, 0, 64, 56
2, 81653, Control_c, 0, 64, 53
2, 81671, Control_c, 0, 64, 50
2, 81693, Control_c, 0, 64, 48
2, 81711, Control_c, 0, 64, 46
2, 81729, Control_c, 0, 64, 44
2, 81747, Control_c, 0, 64, 42
2, 81769, Control_c, 0, 64, 39
2, 81786, Control_c, 0, 64, 36
2, 81806, Control_c, 0, 64, 35
2, 81826, Control_c, 0, 64, 34
2, 81845, Note_on_c, 0, 59, 41
2, 81849, Control_c, 0, 64, 33
2, 81864, Control_c, 0, 64, 32
2, 81884, Control_c, 0, 64, 31
2, 81902, Control_c, 0, 64, 30
2, 81922, Control_c, 0, 64, 29
2, 81940, Control_c, 0, 64, 28
2, 81959, Control_c, 0, 64, 26
2, 81979, Control_c, 0, 64, 25
2, 82056, Control_c, 0, 64, 24
2, 82096, Control_c, 0, 64, 23
2, 82188, Note_on_c, 0, 56, 42
2, 82254, Note_on_c, 0, 59, 0
2, 82519, Note_on_c, 0, 59, 47
2, 82530, Note_on_c, 0, 64, 0
2, 82844, Control_c, 0, 64, 24
2, 82949, Note_on_c, 0, 64, 51
2, 83017, Note_on_c, 0, 64, 0
2, 83052, Note_on_c, 0, 63, 51
2, 83166, Note_on_c, 0, 63, 0
2, 83200, Note_on_c, 0, 64, 42
2, 83343, Control_c, 0, 64, 23
2, 83421, Control_c, 0, 64, 22
2, 83479, Control_c, 0, 64, 21
2, 83495, Control_c, 0, 64, 19
2, 83516, Control_c, 0, 64, 16
2, 83537, Control_c, 0, 64, 13
2, 83553, Control_c, 0, 64, 10
2, 83575, Control_c, 0, 64, 0
2, 84074, Control_c, 0, 64, 15
2, 84089, Control_c, 0, 64, 25
2, 84113, Control_c, 0, 64, 33
2, 84131, Control_c, 0, 64, 39
2, 84149, Control_c, 0, 64, 43
2, 84167, Control_c, 0, 64, 46
2, 84187, Control_c, 0, 64, 50
2, 84207, Control_c, 0, 64, 53
2, 84224, Control_c, 0, 64, 55
2, 84247, Control_c, 0, 64, 57
2, 84264, Control_c, 0, 64, 58
2, 84283, Control_c, 0, 64, 59
2, 84303, Control_c, 0, 64, 60
2, 84342, Control_c, 0, 64, 61
2, 84360, Control_c, 0, 64, 62
2, 84379, Control_c, 0, 64, 63
2, 84417, Control_c, 0, 64, 64
2, 84437, Control_c, 0, 64, 65
2, 84454, Control_c, 0, 64, 67
2, 84475, Control_c, 0, 64, 70
2, 84497, Control_c, 0, 64, 73
2, 84513, Control_c, 0, 64, 77
2, 84531, Control_c, 0, 64, 83
2, 84552, Control_c, 0, 64, 91
2, 84570, Control_c, 0, 64, 105
2, 84591, Control_c, 0, 64, 127
2, 86185, Note_on_c, 0, 56, 0
2, 86249, Note_on_c, 0, 64, 0
2, 86274, Note_on_c, 0, 59, 0
2, 86645, Note_on_c, 0, 40, 0
2, 86932, Control_c, 0, 64, 122
2, 86952, Control_c, 0, 64, 113
2, 86971, Control_c, 0, 64, 109
2, 86989, Control_c, 0, 64, 104
2, 87009, Control_c, 0, 64, 100
2, 87029, Control_c, 0, 64, 96
2, 87051, Control_c, 0, 64, 93
2, 87066, Control_c, 0, 64, 92
2, 87088, Control_c, 0, 64, 90
2, 87104, Control_c, 0, 64, 88
2, 87124, Control_c, 0, 64, 87
2, 87143, Control_c, 0, 64, 85
2, 87161, Control_c, 0, 64, 82
2, 87186, Control_c, 0, 64, 80
2, 87201, Control_c, 0, 64, 79
2, 87220, Control_c, 0, 64, 77
2, 87241, Control_c, 0, 64, 75
2, 87260, Control_c, 0, 64, 73
2, 87278, Control_c, 0, 64, 71
2, 87298, Control_c, 0, 64, 69
2, 87316, Control_c, 0, 64, 68
2, 87337, Control_c, 0, 64, 66
2, 87354, Control_c, 0, 64, 64
2, 87375, Control_c, 0, 64, 63
2, 87395, Control_c, 0, 64, 62
2, 87414, Control_c, 0, 64, 61
2, 87432, Control_c, 0, 64, 60
2, 87453, Control_c, 0, 64, 58
2, 87471, Control_c, 0, 64, 55
2, 87489, Control_c, 0, 64, 52
2, 87507, Control_c, 0, 64, 50
2, 87530, Control_c, 0, 64, 48
2, 87547, Control_c, 0, 64, 45
2, 87567, Control_c, 0, 64, 41
2, 87586, Control_c, 0, 64, 35
2, 87604, Control_c, 0, 64, 30
2, 87626, Control_c, 0, 64, 26
2, 87643, Control_c, 0, 64, 19
2, 87664, Control_c, 0, 64, 0
2, 88108,End_track
0, 0, End_of_file
