0, 0, Header, 1, 2, 480
1, 0, Start_track
1, 0, Tempo, 500000
1, 0, Time_signature, 4, 2, 24, 8
1, 1, End_track
2,0,Start_track
2,0, Note_on_c, 0, 64, 90
2,122, Note_on_c, 0, 64, 0
2,122, Note_on_c, 0, 67, 84
2,230, Note_on_c, 0, 71, 88
2,246, Note_on_c, 0, 67, 0
2,341, Note_on_c, 0, 71, 0
2,346, Note_on_c, 0, 76, 90
2,460, Note_on_c, 0, 75, 86
2,469, Note_on_c, 0, 76, 0
2,578, Note_on_c, 0, 76, 91
2,590, Note_on_c, 0, 75, 0
2,642, Note_on_c, 0, 76, 0
2,699, Note_on_c, 0, 74, 86
2,808, Note_on_c, 0, 76, 86
2,810, Note_on_c, 0, 74, 0
2,923, Note_on_c, 0, 73, 89
2,933, Note_on_c, 0, 76, 0
2,1034, Note_on_c, 0, 73, 0
2,1034, Note_on_c, 0, 76, 84
2,1142, Note_on_c, 0, 76, 0
2,1149, Note_on_c, 0, 72, 86
2,1248, Note_on_c, 0, 72, 0
2,1256, Note_on_c, 0, 76, 88
2,1371, Note_on_c, 0, 71, 88
2,1381, Note_on_c, 0, 76, 0
2,1466, Note_on_c, 0, 71, 0
2,1492, Note_on_c, 0, 76, 77
2,1598, Note_on_c, 0, 75, 82
2,1602, Note_on_c, 0, 76, 0
2,1712, Note_on_c, 0, 76, 88
2,1714, Note_on_c, 0, 75, 0
2,1828, Note_on_c, 0, 76, 0
2,1831, Note_on_c, 0, 70, 87
2,1943, Note_on_c, 0, 73, 79
2,1967, Note_on_c, 0, 70, 0
2,2045, Note_on_c, 0, 73, 0
2,2047, Note_on_c, 0, 67, 80
2,2152, Note_on_c, 0, 66, 86
2,2161, Note_on_c, 0, 67, 0
2,2266, Note_on_c, 0, 66, 0
2,2270, Note_on_c, 0, 67, 84
2,2378, Note_on_c, 0, 70, 84
2,2383, Note_on_c, 0, 67, 0
2,2480, Note_on_c, 0, 70, 0
2,2484, Note_on_c, 0, 66, 77
2,2580, Note_on_c, 0, 66, 0
2,2591, Note_on_c, 0, 64, 80
2,2660, Note_on_c, 0, 64, 0
2,2708, Note_on_c, 0, 47, 78
2,2708, Note_on_c, 0, 62, 82
2,2743, Note_on_c, 0, 62, 0
2,2820, Note_on_c, 0, 47, 0
2,2820, Note_on_c, 0, 50, 76
2,2917, Note_on_c, 0, 50, 0
2,2917, Note_on_c, 0, 54, 83
2,2929, Note_on_c, 0, 71, 80
2,2970, Note_on_c, 0, 71, 0
2,2999, Note_on_c, 0, 54, 0
2,3029, Note_on_c, 0, 59, 85
2,3147, Note_on_c, 0, 58, 89
2,3147, Note_on_c, 0, 59, 0
2,3235, Note_on_c, 0, 58, 0
2,3264, Note_on_c, 0, 59, 87
2,3269, Note_on_c, 0, 78, 82
2,3326, Note_on_c, 0, 59, 0
2,3371, Note_on_c, 0, 79, 85
2,3380, Note_on_c, 0, 57, 83
2,3391, Note_on_c, 0, 78, 0
2,3457, Note_on_c, 0, 57, 0
2,3475, Note_on_c, 0, 78, 85
2,3484, Note_on_c, 0, 59, 78
2,3508, Note_on_c, 0, 79, 0
2,3569, Note_on_c, 0, 59, 0
2,3600, Note_on_c, 0, 76, 87
2,3604, Note_on_c, 0, 56, 80
2,3617, Note_on_c, 0, 78, 0
2,3683, Note_on_c, 0, 56, 0
2,3687, Note_on_c, 0, 76, 0
2,3705, Note_on_c, 0, 74, 81
2,3710, Note_on_c, 0, 59, 78
2,3792, Note_on_c, 0, 59, 0
2,3812, Note_on_c, 0, 73, 85
2,3824, Note_on_c, 0, 74, 0
2,3828, Note_on_c, 0, 55, 76
2,3901, Note_on_c, 0, 55, 0
2,3924, Note_on_c, 0, 76, 89
2,3929, Note_on_c, 0, 73, 0
2,3938, Note_on_c, 0, 59, 75
2,4029, Note_on_c, 0, 59, 0
2,4045, Note_on_c, 0, 74, 85
2,4058, Note_on_c, 0, 54, 80
2,4088, Note_on_c, 0, 76, 0
2,4129, Note_on_c, 0, 54, 0
2,4166, Note_on_c, 0, 59, 80
2,4247, Note_on_c, 0, 59, 0
2,4281, Note_on_c, 0, 58, 78
2,4360, Note_on_c, 0, 58, 0
2,4385, Note_on_c, 0, 59, 81
2,4470, Note_on_c, 0, 59, 0
2,4510, Note_on_c, 0, 53, 79
2,4577, Note_on_c, 0, 53, 0
2,4614, Note_on_c, 0, 56, 75
2,4626, Note_on_c, 0, 73, 75
2,4663, Note_on_c, 0, 56, 0
2,4683, Note_on_c, 0, 74, 0
2,4730, Note_on_c, 0, 71, 83
2,4735, Note_on_c, 0, 50, 73
2,4774, Note_on_c, 0, 73, 0
2,4828, Note_on_c, 0, 50, 0
2,4844, Note_on_c, 0, 70, 84
2,4846, Note_on_c, 0, 49, 73
2,4853, Note_on_c, 0, 71, 0
2,4953, Note_on_c, 0, 49, 0
2,4957, Note_on_c, 0, 71, 85
2,4962, Note_on_c, 0, 50, 72
2,4969, Note_on_c, 0, 70, 0
2,5010, Note_on_c, 0, 50, 0
2,5061, Note_on_c, 0, 73, 86
2,5066, Note_on_c, 0, 53, 75
2,5079, Note_on_c, 0, 71, 0
2,5148, Note_on_c, 0, 53, 0
2,5168, Note_on_c, 0, 70, 87
2,5175, Note_on_c, 0, 49, 70
2,5186, Note_on_c, 0, 73, 0
2,5281, Note_on_c, 0, 49, 0
2,5286, Note_on_c, 0, 71, 81
2,5295, Note_on_c, 0, 47, 67
2,5305, Note_on_c, 0, 70, 0
2,5379, Note_on_c, 0, 47, 0
2,5401, Note_on_c, 0, 46, 80
2,5406, Note_on_c, 0, 73, 85
2,5428, Note_on_c, 0, 71, 0
2,5439, Note_on_c, 0, 46, 0
2,5525, Note_on_c, 0, 66, 77
2,5539, Note_on_c, 0, 73, 0
2,5625, Note_on_c, 0, 66, 0
2,5635, Note_on_c, 0, 54, 65
2,5641, Note_on_c, 0, 70, 75
2,5665, Note_on_c, 0, 54, 0
2,5746, Note_on_c, 0, 70, 0
2,5746, Note_on_c, 0, 73, 78
2,5858, Note_on_c, 0, 73, 0
2,5858, Note_on_c, 0, 76, 82
2,5937, Note_on_c, 0, 76, 0
2,5968, Note_on_c, 0, 66, 75
2,5972, Note_on_c, 0, 70, 83
2,6051, Note_on_c, 0, 66, 0
2,6072, Note_on_c, 0, 67, 80
2,6077, Note_on_c, 0, 70, 0
2,6084, Note_on_c, 0, 73, 88
2,6167, Note_on_c, 0, 67, 0
2,6180, Note_on_c, 0, 66, 83
2,6191, Note_on_c, 0, 76, 84
2,6205, Note_on_c, 0, 73, 0
2,6304, Note_on_c, 0, 64, 75
2,6304, Note_on_c, 0, 79, 88
2,6308, Note_on_c, 0, 76, 0
2,6317, Note_on_c, 0, 66, 0
2,6422, Note_on_c, 0, 78, 88
2,6424, Note_on_c, 0, 62, 72
2,6429, Note_on_c, 0, 64, 0
2,6448, Note_on_c, 0, 79, 0
2,6528, Note_on_c, 0, 76, 91
2,6539, Note_on_c, 0, 61, 64
2,6543, Note_on_c, 0, 62, 0
2,6552, Note_on_c, 0, 78, 0
2,6644, Note_on_c, 0, 64, 74
2,6644, Note_on_c, 0, 76, 0
2,6649, Note_on_c, 0, 79, 84
2,6652, Note_on_c, 0, 61, 0
2,6758, Note_on_c, 0, 62, 77
2,6758, Note_on_c, 0, 64, 0
2,6764, Note_on_c, 0, 78, 87
2,6794, Note_on_c, 0, 79, 0
2,6872, Note_on_c, 0, 76, 86
2,6914, Note_on_c, 0, 78, 0
2,6956, Note_on_c, 0, 76, 0
2,6991, Note_on_c, 0, 74, 83
2,7076, Note_on_c, 0, 74, 0
2,7097, Note_on_c, 0, 73, 87
2,7189, Note_on_c, 0, 73, 0
2,7217, Note_on_c, 0, 71, 81
2,7319, Note_on_c, 0, 70, 83
2,7323, Note_on_c, 0, 61, 58
2,7332, Note_on_c, 0, 71, 0
2,7337, Note_on_c, 0, 62, 0
2,7421, Note_on_c, 0, 68, 85
2,7437, Note_on_c, 0, 61, 0
2,7443, Note_on_c, 0, 59, 65
2,7443, Note_on_c, 0, 70, 0
2,7525, Note_on_c, 0, 66, 83
2,7530, Note_on_c, 0, 59, 0
2,7534, Note_on_c, 0, 68, 0
2,7539, Note_on_c, 0, 58, 71
2,7602, Note_on_c, 0, 58, 0
2,7635, Note_on_c, 0, 66, 0
2,7652, Note_on_c, 0, 74, 82
2,7659, Note_on_c, 0, 59, 75
2,7751, Note_on_c, 0, 59, 0
2,7760, Note_on_c, 0, 61, 71
2,7856, Note_on_c, 0, 61, 0
2,7867, Note_on_c, 0, 57, 73
2,7969, Note_on_c, 0, 57, 0
2,7983, Note_on_c, 0, 59, 65
2,8009, Note_on_c, 0, 59, 0
2,8109, Note_on_c, 0, 44, 80
2,8165, Note_on_c, 0, 44, 0
2,8231, Note_on_c, 0, 64, 63
2,8295, Note_on_c, 0, 64, 0
2,8299, Note_on_c, 0, 74, 0
2,8337, Note_on_c, 0, 52, 70
2,8350, Note_on_c, 0, 68, 74
2,8376, Note_on_c, 0, 52, 0
2,8461, Note_on_c, 0, 71, 72
2,8466, Note_on_c, 0, 68, 0
2,8570, Note_on_c, 0, 71, 0
2,8581, Note_on_c, 0, 74, 69
2,8667, Note_on_c, 0, 74, 0
2,8680, Note_on_c, 0, 64, 62
2,8680, Note_on_c, 0, 68, 70
2,8743, Note_on_c, 0, 64, 0
2,8752, Note_on_c, 0, 68, 0
2,8785, Note_on_c, 0, 65, 62
2,8789, Note_on_c, 0, 71, 76
2,8846, Note_on_c, 0, 65, 0
2,8893, Note_on_c, 0, 64, 65
2,8897, Note_on_c, 0, 71, 0
2,8902, Note_on_c, 0, 74, 75
2,9012, Note_on_c, 0, 64, 0
2,9012, Note_on_c, 0, 74, 0
2,9016, Note_on_c, 0, 77, 76
2,9025, Note_on_c, 0, 62, 59
2,9101, Note_on_c, 0, 62, 0
2,9124, Note_on_c, 0, 76, 71
2,9126, Note_on_c, 0, 60, 58
2,9130, Note_on_c, 0, 77, 0
2,9222, Note_on_c, 0, 60, 0
2,9235, Note_on_c, 0, 74, 76
2,9238, Note_on_c, 0, 59, 68
2,9242, Note_on_c, 0, 76, 0
2,9320, Note_on_c, 0, 59, 0
2,9335, Note_on_c, 0, 74, 0
2,9352, Note_on_c, 0, 77, 75
2,9356, Note_on_c, 0, 62, 60
2,9451, Note_on_c, 0, 62, 0
2,9467, Note_on_c, 0, 76, 72
2,9472, Note_on_c, 0, 77, 0
2,9474, Note_on_c, 0, 60, 63
2,9569, Note_on_c, 0, 74, 74
2,9598, Note_on_c, 0, 76, 0
2,9650, Note_on_c, 0, 74, 0
2,9683, Note_on_c, 0, 72, 78
2,9755, Note_on_c, 0, 72, 0
2,9794, Note_on_c, 0, 71, 75
2,9880, Note_on_c, 0, 71, 0
2,9915, Note_on_c, 0, 69, 68
2,10010, Note_on_c, 0, 60, 0
2,10010, Note_on_c, 0, 69, 0
2,10023, Note_on_c, 0, 68, 75
2,10030, Note_on_c, 0, 59, 59
2,10132, Note_on_c, 0, 59, 0
2,10132, Note_on_c, 0, 66, 73
2,10136, Note_on_c, 0, 68, 0
2,10154, Note_on_c, 0, 57, 57
2,10218, Note_on_c, 0, 66, 0
2,10230, Note_on_c, 0, 57, 0
2,10253, Note_on_c, 0, 56, 63
2,10253, Note_on_c, 0, 64, 72
2,10309, Note_on_c, 0, 56, 0
2,10345, Note_on_c, 0, 64, 0
2,10365, Note_on_c, 0, 72, 77
2,10369, Note_on_c, 0, 57, 68
2,10463, Note_on_c, 0, 57, 0
2,10484, Note_on_c, 0, 59, 67
2,10550, Note_on_c, 0, 59, 0
2,10592, Note_on_c, 0, 55, 65
2,10668, Note_on_c, 0, 55, 0
2,10697, Note_on_c, 0, 57, 54
2,10730, Note_on_c, 0, 57, 0
2,10824, Note_on_c, 0, 42, 68
2,10877, Note_on_c, 0, 42, 0
2,10940, Note_on_c, 0, 72, 0
2,10966, Note_on_c, 0, 69, 41
2,11011, Note_on_c, 0, 69, 0
2,11059, Note_on_c, 0, 62, 58
2,11063, Note_on_c, 0, 50, 57
2,11098, Note_on_c, 0, 50, 0
2,11168, Note_on_c, 0, 62, 0
2,11190, Note_on_c, 0, 64, 63
2,11301, Note_on_c, 0, 64, 0
2,11318, Note_on_c, 0, 66, 65
2,11387, Note_on_c, 0, 66, 0
2,11419, Note_on_c, 0, 52, 54
2,11432, Note_on_c, 0, 67, 70
2,11492, Note_on_c, 0, 52, 0
2,11534, Note_on_c, 0, 54, 60
2,11541, Note_on_c, 0, 67, 0
2,11546, Note_on_c, 0, 69, 69
2,11634, Note_on_c, 0, 54, 0
2,11641, Note_on_c, 0, 55, 66
2,11654, Note_on_c, 0, 69, 0
2,11659, Note_on_c, 0, 71, 78
2,11722, Note_on_c, 0, 71, 0
2,11731, Note_on_c, 0, 55, 0
2,11757, Note_on_c, 0, 57, 73
2,11768, Note_on_c, 0, 72, 81
2,11840, Note_on_c, 0, 57, 0
2,11875, Note_on_c, 0, 59, 73
2,11875, Note_on_c, 0, 74, 82
2,11877, Note_on_c, 0, 72, 0
2,11984, Note_on_c, 0, 76, 84
2,11995, Note_on_c, 0, 59, 0
2,11995, Note_on_c, 0, 60, 75
2,12002, Note_on_c, 0, 74, 0
2,12063, Note_on_c, 0, 60, 0
2,12100, Note_on_c, 0, 57, 78
2,12100, Note_on_c, 0, 78, 82
2,12136, Note_on_c, 0, 76, 0
2,12190, Note_on_c, 0, 57, 0
2,12208, Note_on_c, 0, 59, 80
2,12214, Note_on_c, 0, 79, 87
2,12251, Note_on_c, 0, 78, 0
2,12333, Note_on_c, 0, 57, 79
2,12333, Note_on_c, 0, 59, 0
2,12337, Note_on_c, 0, 78, 87
2,12350, Note_on_c, 0, 79, 0
2,12397, Note_on_c, 0, 78, 0
2,12413, Note_on_c, 0, 57, 0
2,12451, Note_on_c, 0, 81, 88
2,12455, Note_on_c, 0, 60, 74
2,12538, Note_on_c, 0, 60, 0
2,12566, Note_on_c, 0, 59, 76
2,12566, Note_on_c, 0, 79, 90
2,12597, Note_on_c, 0, 81, 0
2,12637, Note_on_c, 0, 59, 0
2,12675, Note_on_c, 0, 78, 86
2,12684, Note_on_c, 0, 57, 76
2,12703, Note_on_c, 0, 79, 0
2,12787, Note_on_c, 0, 57, 0
2,12796, Note_on_c, 0, 76, 85
2,12801, Note_on_c, 0, 55, 71
2,12833, Note_on_c, 0, 78, 0
2,12885, Note_on_c, 0, 76, 0
2,12909, Note_on_c, 0, 74, 82
2,12914, Note_on_c, 0, 54, 71
2,12916, Note_on_c, 0, 55, 0
2,12980, Note_on_c, 0, 74, 0
2,13011, Note_on_c, 0, 54, 0
2,13015, Note_on_c, 0, 72, 88
2,13020, Note_on_c, 0, 52, 69
2,13084, Note_on_c, 0, 72, 0
2,13120, Note_on_c, 0, 52, 0
2,13135, Note_on_c, 0, 50, 74
2,13140, Note_on_c, 0, 71, 85
2,13195, Note_on_c, 0, 50, 0
2,13229, Note_on_c, 0, 71, 0
2,13260, Note_on_c, 0, 79, 83
2,13264, Note_on_c, 0, 52, 63
2,13313, Note_on_c, 0, 52, 0
2,13353, Note_on_c, 0, 79, 0
2,13366, Note_on_c, 0, 48, 71
2,13373, Note_on_c, 0, 69, 78
2,13440, Note_on_c, 0, 48, 0
2,13459, Note_on_c, 0, 69, 0
2,13482, Note_on_c, 0, 78, 83
2,13485, Note_on_c, 0, 50, 65
2,13525, Note_on_c, 0, 50, 0
2,13538, Note_on_c, 0, 78, 0
2,13598, Note_on_c, 0, 67, 91
2,13608, Note_on_c, 0, 47, 59
2,13651, Note_on_c, 0, 47, 0
2,13700, Note_on_c, 0, 67, 0
2,13716, Note_on_c, 0, 71, 80
2,13827, Note_on_c, 0, 74, 89
2,13832, Note_on_c, 0, 71, 0
2,13839, Note_on_c, 0, 55, 65
2,13877, Note_on_c, 0, 55, 0
2,13919, Note_on_c, 0, 74, 0
2,13936, Note_on_c, 0, 79, 87
2,14045, Note_on_c, 0, 78, 92
2,14059, Note_on_c, 0, 79, 0
2,14158, Note_on_c, 0, 79, 90
2,14171, Note_on_c, 0, 62, 74
2,14184, Note_on_c, 0, 78, 0
2,14220, Note_on_c, 0, 62, 0
2,14272, Note_on_c, 0, 64, 76
2,14276, Note_on_c, 0, 77, 91
2,14281, Note_on_c, 0, 79, 0
2,14313, Note_on_c, 0, 64, 0
2,14369, Note_on_c, 0, 62, 71
2,14384, Note_on_c, 0, 79, 95
2,14393, Note_on_c, 0, 77, 0
2,14468, Note_on_c, 0, 62, 0
2,14488, Note_on_c, 0, 60, 76
2,14495, Note_on_c, 0, 76, 88
2,14512, Note_on_c, 0, 79, 0
2,14601, Note_on_c, 0, 60, 0
2,14601, Note_on_c, 0, 79, 87
2,14605, Note_on_c, 0, 76, 0
2,14608, Note_on_c, 0, 59, 72
2,14698, Note_on_c, 0, 59, 0
2,14716, Note_on_c, 0, 57, 80
2,14724, Note_on_c, 0, 75, 83
2,14733, Note_on_c, 0, 79, 0
2,14800, Note_on_c, 0, 57, 0
2,14828, Note_on_c, 0, 79, 83
2,14833, Note_on_c, 0, 60, 71
2,14837, Note_on_c, 0, 75, 0
2,14937, Note_on_c, 0, 60, 0
2,14950, Note_on_c, 0, 74, 85
2,14957, Note_on_c, 0, 59, 77
2,14958, Note_on_c, 0, 79, 0
2,15061, Note_on_c, 0, 74, 0
2,15061, Note_on_c, 0, 79, 79
2,15174, Note_on_c, 0, 78, 85
2,15178, Note_on_c, 0, 79, 0
2,15288, Note_on_c, 0, 79, 87
2,15294, Note_on_c, 0, 78, 0
2,15406, Note_on_c, 0, 73, 84
2,15410, Note_on_c, 0, 79, 0
2,15498, Note_on_c, 0, 59, 0
2,15519, Note_on_c, 0, 76, 85
2,15527, Note_on_c, 0, 57, 68
2,15527, Note_on_c, 0, 73, 0
2,15633, Note_on_c, 0, 57, 0
2,15633, Note_on_c, 0, 70, 80
2,15637, Note_on_c, 0, 55, 68
2,15644, Note_on_c, 0, 76, 0
2,15727, Note_on_c, 0, 70, 0
2,15732, Note_on_c, 0, 54, 73
2,15732, Note_on_c, 0, 55, 0
2,15743, Note_on_c, 0, 69, 75
2,15793, Note_on_c, 0, 54, 0
2,15846, Note_on_c, 0, 69, 0
2,15853, Note_on_c, 0, 70, 87
2,15857, Note_on_c, 0, 55, 71
2,15944, Note_on_c, 0, 55, 0
2,15965, Note_on_c, 0, 73, 81
2,15967, Note_on_c, 0, 70, 0
2,15972, Note_on_c, 0, 54, 65
2,16051, Note_on_c, 0, 73, 0
2,16063, Note_on_c, 0, 54, 0
2,16076, Note_on_c, 0, 69, 73
2,16089, Note_on_c, 0, 55, 67
2,16161, Note_on_c, 0, 55, 0
2,16161, Note_on_c, 0, 69, 0
2,16186, Note_on_c, 0, 67, 73
2,16191, Note_on_c, 0, 57, 71
2,16237, Note_on_c, 0, 67, 0
2,16265, Note_on_c, 0, 57, 0
2,16300, Note_on_c, 0, 50, 80
2,16305, Note_on_c, 0, 66, 81
2,16345, Note_on_c, 0, 66, 0
2,16417, Note_on_c, 0, 54, 77
2,16424, Note_on_c, 0, 50, 0
2,16523, Note_on_c, 0, 54, 0
2,16532, Note_on_c, 0, 57, 88
2,16542, Note_on_c, 0, 74, 78
2,16577, Note_on_c, 0, 74, 0
2,16608, Note_on_c, 0, 57, 0
2,16644, Note_on_c, 0, 62, 86
2,16751, Note_on_c, 0, 61, 85
2,16760, Note_on_c, 0, 62, 0
2,16850, Note_on_c, 0, 61, 0
2,16866, Note_on_c, 0, 62, 85
2,16883, Note_on_c, 0, 81, 76
2,16945, Note_on_c, 0, 62, 0
2,16984, Note_on_c, 0, 60, 85
2,16989, Note_on_c, 0, 83, 85
2,16997, Note_on_c, 0, 81, 0
2,17091, Note_on_c, 0, 60, 0
2,17098, Note_on_c, 0, 62, 82
2,17098, Note_on_c, 0, 81, 85
2,17122, Note_on_c, 0, 83, 0
2,17185, Note_on_c, 0, 81, 0
2,17208, Note_on_c, 0, 79, 86
2,17213, Note_on_c, 0, 62, 0
2,17219, Note_on_c, 0, 59, 82
2,17292, Note_on_c, 0, 59, 0
2,17322, Note_on_c, 0, 78, 86
2,17342, Note_on_c, 0, 62, 76
2,17342, Note_on_c, 0, 79, 0
2,17394, Note_on_c, 0, 62, 0
2,17433, Note_on_c, 0, 76, 88
2,17437, Note_on_c, 0, 58, 76
2,17444, Note_on_c, 0, 78, 0
2,17510, Note_on_c, 0, 58, 0
2,17535, Note_on_c, 0, 62, 74
2,17546, Note_on_c, 0, 79, 87
2,17557, Note_on_c, 0, 76, 0
2,17623, Note_on_c, 0, 62, 0
2,17660, Note_on_c, 0, 57, 80
2,17673, Note_on_c, 0, 78, 89
2,17716, Note_on_c, 0, 79, 0
2,17740, Note_on_c, 0, 57, 0
2,17772, Note_on_c, 0, 62, 77
2,17865, Note_on_c, 0, 62, 0
2,17891, Note_on_c, 0, 61, 75
2,17983, Note_on_c, 0, 61, 0
2,18003, Note_on_c, 0, 62, 78
2,18079, Note_on_c, 0, 62, 0
2,18113, Note_on_c, 0, 56, 79
2,18175, Note_on_c, 0, 56, 0
2,18225, Note_on_c, 0, 59, 78
2,18241, Note_on_c, 0, 76, 83
2,18277, Note_on_c, 0, 78, 0
2,18295, Note_on_c, 0, 59, 0
2,18320, Note_on_c, 0, 76, 0
2,18342, Note_on_c, 0, 53, 77
2,18342, Note_on_c, 0, 74, 85
2,18432, Note_on_c, 0, 53, 0
2,18450, Note_on_c, 0, 52, 75
2,18450, Note_on_c, 0, 73, 90
2,18474, Note_on_c, 0, 74, 0
2,18529, Note_on_c, 0, 52, 0
2,18560, Note_on_c, 0, 74, 86
2,18569, Note_on_c, 0, 53, 75
2,18578, Note_on_c, 0, 73, 0
2,18655, Note_on_c, 0, 53, 0
2,18675, Note_on_c, 0, 76, 85
2,18679, Note_on_c, 0, 56, 68
2,18695, Note_on_c, 0, 74, 0
2,18726, Note_on_c, 0, 56, 0
2,18781, Note_on_c, 0, 73, 88
2,18787, Note_on_c, 0, 52, 71
2,18793, Note_on_c, 0, 76, 0
2,18887, Note_on_c, 0, 50, 66
2,18889, Note_on_c, 0, 52, 0
2,18889, Note_on_c, 0, 74, 88
2,18908, Note_on_c, 0, 73, 0
2,18923, Note_on_c, 0, 50, 0
2,18945, Note_on_c, 0, 74, 0
2,18998, Note_on_c, 0, 76, 98
2,19007, Note_on_c, 0, 49, 83
2,19034, Note_on_c, 0, 49, 0
2,19114, Note_on_c, 0, 74, 84
2,19151, Note_on_c, 0, 76, 0
2,19230, Note_on_c, 0, 73, 85
2,19242, Note_on_c, 0, 45, 65
2,19246, Note_on_c, 0, 74, 0
2,19275, Note_on_c, 0, 45, 0
2,19347, Note_on_c, 0, 71, 80
2,19373, Note_on_c, 0, 73, 0
2,19407, Note_on_c, 0, 71, 0
2,19460, Note_on_c, 0, 69, 79
2,19469, Note_on_c, 0, 49, 77
2,19507, Note_on_c, 0, 49, 0
2,19575, Note_on_c, 0, 68, 85
2,19585, Note_on_c, 0, 69, 0
2,19655, Note_on_c, 0, 68, 0
2,19689, Note_on_c, 0, 76, 92
2,19693, Note_on_c, 0, 52, 90
2,19722, Note_on_c, 0, 52, 0
2,19803, Note_on_c, 0, 74, 87
2,19849, Note_on_c, 0, 76, 0
2,19921, Note_on_c, 0, 73, 85
2,19930, Note_on_c, 0, 57, 75
2,19948, Note_on_c, 0, 74, 0
2,19962, Note_on_c, 0, 57, 0
2,20036, Note_on_c, 0, 71, 82
2,20072, Note_on_c, 0, 73, 0
2,20126, Note_on_c, 0, 71, 0
2,20143, Note_on_c, 0, 69, 78
2,20154, Note_on_c, 0, 49, 60
2,20189, Note_on_c, 0, 49, 0
2,20247, Note_on_c, 0, 69, 0
2,20251, Note_on_c, 0, 67, 81
2,20344, Note_on_c, 0, 67, 0
2,20363, Note_on_c, 0, 66, 89
2,20377, Note_on_c, 0, 57, 75
2,20409, Note_on_c, 0, 66, 0
2,20446, Note_on_c, 0, 57, 0
2,20486, Note_on_c, 0, 55, 70
2,20574, Note_on_c, 0, 55, 0
2,20590, Note_on_c, 0, 54, 72
2,20602, Note_on_c, 0, 62, 83
2,20634, Note_on_c, 0, 54, 0
2,20643, Note_on_c, 0, 62, 0
2,20694, Note_on_c, 0, 52, 72
2,20739, Note_on_c, 0, 52, 0
2,20800, Note_on_c, 0, 50, 68
2,20820, Note_on_c, 0, 66, 82
2,20870, Note_on_c, 0, 66, 0
2,20889, Note_on_c, 0, 50, 0
2,20920, Note_on_c, 0, 49, 72
2,20977, Note_on_c, 0, 49, 0
2,21032, Note_on_c, 0, 69, 88
2,21048, Note_on_c, 0, 57, 72
2,21082, Note_on_c, 0, 69, 0
2,21126, Note_on_c, 0, 57, 0
2,21155, Note_on_c, 0, 55, 65
2,21252, Note_on_c, 0, 55, 0
2,21268, Note_on_c, 0, 74, 73
2,21270, Note_on_c, 0, 54, 68
2,21320, Note_on_c, 0, 54, 0
2,21324, Note_on_c, 0, 74, 0
2,21381, Note_on_c, 0, 52, 63
2,21429, Note_on_c, 0, 52, 0
2,21480, Note_on_c, 0, 50, 63
2,21491, Note_on_c, 0, 66, 68
2,21547, Note_on_c, 0, 66, 0
2,21572, Note_on_c, 0, 50, 0
2,21594, Note_on_c, 0, 48, 53
2,21676, Note_on_c, 0, 48, 0
2,21705, Note_on_c, 0, 47, 58
2,21718, Note_on_c, 0, 74, 62
2,21747, Note_on_c, 0, 47, 0
2,21826, Note_on_c, 0, 74, 0
2,21828, Note_on_c, 0, 72, 66
2,21941, Note_on_c, 0, 72, 0
2,21946, Note_on_c, 0, 71, 65
2,21948, Note_on_c, 0, 43, 60
2,21985, Note_on_c, 0, 43, 0
2,22040, Note_on_c, 0, 71, 0
2,22053, Note_on_c, 0, 69, 60
2,22117, Note_on_c, 0, 69, 0
2,22179, Note_on_c, 0, 67, 61
2,22181, Note_on_c, 0, 47, 52
2,22215, Note_on_c, 0, 47, 0
2,22278, Note_on_c, 0, 67, 0
2,22293, Note_on_c, 0, 66, 62
2,22359, Note_on_c, 0, 66, 0
2,22404, Note_on_c, 0, 50, 60
2,22417, Note_on_c, 0, 74, 67
2,22445, Note_on_c, 0, 50, 0
2,22524, Note_on_c, 0, 74, 0
2,22528, Note_on_c, 0, 72, 64
2,22638, Note_on_c, 0, 71, 61
2,22643, Note_on_c, 0, 72, 0
2,22647, Note_on_c, 0, 55, 52
2,22679, Note_on_c, 0, 55, 0
2,22740, Note_on_c, 0, 71, 0
2,22746, Note_on_c, 0, 69, 60
2,22833, Note_on_c, 0, 69, 0
2,22864, Note_on_c, 0, 67, 61
2,22889, Note_on_c, 0, 47, 38
2,22929, Note_on_c, 0, 47, 0
2,22934, Note_on_c, 0, 67, 0
2,22973, Note_on_c, 0, 65, 60
2,23027, Note_on_c, 0, 65, 0
2,23091, Note_on_c, 0, 64, 70
2,23095, Note_on_c, 0, 55, 55
2,23126, Note_on_c, 0, 64, 0
2,23156, Note_on_c, 0, 55, 0
2,23212, Note_on_c, 0, 53, 57
2,23285, Note_on_c, 0, 53, 0
2,23323, Note_on_c, 0, 52, 60
2,23339, Note_on_c, 0, 60, 67
2,23369, Note_on_c, 0, 52, 0
2,23378, Note_on_c, 0, 60, 0
2,23428, Note_on_c, 0, 50, 62
2,23482, Note_on_c, 0, 50, 0
2,23546, Note_on_c, 0, 48, 58
2,23558, Note_on_c, 0, 64, 71
2,23597, Note_on_c, 0, 64, 0
2,23627, Note_on_c, 0, 48, 0
2,23661, Note_on_c, 0, 47, 60
2,23709, Note_on_c, 0, 47, 0
2,23774, Note_on_c, 0, 67, 71
2,23785, Note_on_c, 0, 55, 63
2,23820, Note_on_c, 0, 67, 0
2,23848, Note_on_c, 0, 55, 0
2,23888, Note_on_c, 0, 53, 64
2,23981, Note_on_c, 0, 53, 0
2,23996, Note_on_c, 0, 52, 66
2,24005, Note_on_c, 0, 72, 71
2,24043, Note_on_c, 0, 52, 0
2,24062, Note_on_c, 0, 72, 0
2,24102, Note_on_c, 0, 50, 63
2,24173, Note_on_c, 0, 50, 0
2,24215, Note_on_c, 0, 48, 59
2,24224, Note_on_c, 0, 64, 72
2,24259, Note_on_c, 0, 64, 0
2,24320, Note_on_c, 0, 48, 0
2,24333, Note_on_c, 0, 47, 69
2,24399, Note_on_c, 0, 47, 0
2,24450, Note_on_c, 0, 76, 84
2,24458, Note_on_c, 0, 52, 71
2,24519, Note_on_c, 0, 52, 0
2,24561, Note_on_c, 0, 50, 70
2,24561, Note_on_c, 0, 74, 82
2,24594, Note_on_c, 0, 76, 0
2,24660, Note_on_c, 0, 50, 0
2,24669, Note_on_c, 0, 48, 71
2,24674, Note_on_c, 0, 72, 85
2,24704, Note_on_c, 0, 74, 0
2,24733, Note_on_c, 0, 48, 0
2,24783, Note_on_c, 0, 71, 83
2,24789, Note_on_c, 0, 47, 70
2,24805, Note_on_c, 0, 72, 0
2,24844, Note_on_c, 0, 47, 0
2,24864, Note_on_c, 0, 71, 0
2,24886, Note_on_c, 0, 69, 80
2,24889, Note_on_c, 0, 45, 70
2,24978, Note_on_c, 0, 45, 0
2,25002, Note_on_c, 0, 44, 79
2,25002, Note_on_c, 0, 68, 86
2,25008, Note_on_c, 0, 69, 0
2,25058, Note_on_c, 0, 44, 0
2,25067, Note_on_c, 0, 68, 0
2,25115, Note_on_c, 0, 52, 87
2,25120, Note_on_c, 0, 76, 97
2,25205, Note_on_c, 0, 52, 0
2,25220, Note_on_c, 0, 50, 77
2,25233, Note_on_c, 0, 74, 90
2,25273, Note_on_c, 0, 76, 0
2,25336, Note_on_c, 0, 48, 79
2,25341, Note_on_c, 0, 50, 0
2,25341, Note_on_c, 0, 72, 90
2,25382, Note_on_c, 0, 74, 0
2,25409, Note_on_c, 0, 48, 0
2,25447, Note_on_c, 0, 71, 88
2,25451, Note_on_c, 0, 47, 83
2,25478, Note_on_c, 0, 72, 0
2,25532, Note_on_c, 0, 47, 0
2,25555, Note_on_c, 0, 69, 84
2,25555, Note_on_c, 0, 71, 0
2,25559, Note_on_c, 0, 45, 78
2,25657, Note_on_c, 0, 45, 0
2,25668, Note_on_c, 0, 44, 81
2,25668, Note_on_c, 0, 68, 90
2,25673, Note_on_c, 0, 69, 0
2,25704, Note_on_c, 0, 44, 0
2,25734, Note_on_c, 0, 68, 0
2,25787, Note_on_c, 0, 69, 92
2,25795, Note_on_c, 0, 45, 85
2,25912, Note_on_c, 0, 48, 82
2,25912, Note_on_c, 0, 72, 91
2,25916, Note_on_c, 0, 69, 0
2,25943, Note_on_c, 0, 45, 0
2,26016, Note_on_c, 0, 76, 94
2,26020, Note_on_c, 0, 52, 82
2,26029, Note_on_c, 0, 48, 0
2,26046, Note_on_c, 0, 72, 0
2,26100, Note_on_c, 0, 52, 0
2,26126, Note_on_c, 0, 81, 87
2,26131, Note_on_c, 0, 57, 88
2,26139, Note_on_c, 0, 76, 0
2,26242, Note_on_c, 0, 56, 93
2,26252, Note_on_c, 0, 57, 0
2,26335, Note_on_c, 0, 81, 0
2,26355, Note_on_c, 0, 76, 88
2,26362, Note_on_c, 0, 56, 0
2,26362, Note_on_c, 0, 57, 87
2,26424, Note_on_c, 0, 57, 0
2,26457, Note_on_c, 0, 77, 90
2,26474, Note_on_c, 0, 55, 85
2,26479, Note_on_c, 0, 76, 0
2,26567, Note_on_c, 0, 76, 89
2,26571, Note_on_c, 0, 55, 0
2,26591, Note_on_c, 0, 57, 82
2,26616, Note_on_c, 0, 77, 0
2,26685, Note_on_c, 0, 74, 87
2,26696, Note_on_c, 0, 57, 0
2,26703, Note_on_c, 0, 54, 83
2,26726, Note_on_c, 0, 76, 0
2,26796, Note_on_c, 0, 54, 0
2,26797, Note_on_c, 0, 72, 88
2,26806, Note_on_c, 0, 74, 0
2,26819, Note_on_c, 0, 57, 82
2,26883, Note_on_c, 0, 57, 0
2,26917, Note_on_c, 0, 71, 88
2,26922, Note_on_c, 0, 53, 82
2,26930, Note_on_c, 0, 72, 0
2,27000, Note_on_c, 0, 53, 0
2,27023, Note_on_c, 0, 57, 80
2,27027, Note_on_c, 0, 74, 86
2,27036, Note_on_c, 0, 71, 0
2,27114, Note_on_c, 0, 57, 0
2,27149, Note_on_c, 0, 52, 80
2,27149, Note_on_c, 0, 72, 92
2,27188, Note_on_c, 0, 74, 0
2,27234, Note_on_c, 0, 52, 0
2,27257, Note_on_c, 0, 57, 80
2,27369, Note_on_c, 0, 57, 0
2,27378, Note_on_c, 0, 56, 81
2,27470, Note_on_c, 0, 56, 0
2,27497, Note_on_c, 0, 57, 80
2,27583, Note_on_c, 0, 57, 0
2,27603, Note_on_c, 0, 51, 82
2,27686, Note_on_c, 0, 51, 0
2,27706, Note_on_c, 0, 54, 81
2,27713, Note_on_c, 0, 71, 82
2,27733, Note_on_c, 0, 72, 0
2,27776, Note_on_c, 0, 54, 0
2,27825, Note_on_c, 0, 69, 79
2,27832, Note_on_c, 0, 48, 70
2,27859, Note_on_c, 0, 71, 0
2,27922, Note_on_c, 0, 48, 0
2,27928, Note_on_c, 0, 47, 73
2,27930, Note_on_c, 0, 68, 87
2,27932, Note_on_c, 0, 69, 0
2,28013, Note_on_c, 0, 68, 0
2,28031, Note_on_c, 0, 47, 0
2,28049, Note_on_c, 0, 69, 80
2,28057, Note_on_c, 0, 48, 78
2,28167, Note_on_c, 0, 66, 82
2,28170, Note_on_c, 0, 48, 0
2,28170, Note_on_c, 0, 69, 0
2,28180, Note_on_c, 0, 51, 73
2,28249, Note_on_c, 0, 51, 0
2,28271, Note_on_c, 0, 47, 71
2,28271, Note_on_c, 0, 63, 79
2,28279, Note_on_c, 0, 66, 0
2,28359, Note_on_c, 0, 63, 0
2,28368, Note_on_c, 0, 45, 70
2,28379, Note_on_c, 0, 71, 80
2,28392, Note_on_c, 0, 47, 0
2,28443, Note_on_c, 0, 45, 0
2,28471, Note_on_c, 0, 71, 0
2,28491, Note_on_c, 0, 43, 76
2,28496, Note_on_c, 0, 64, 87
2,28550, Note_on_c, 0, 43, 0
2,28590, Note_on_c, 0, 64, 0
2,28606, Note_on_c, 0, 67, 83
2,28718, Note_on_c, 0, 71, 85
2,28725, Note_on_c, 0, 67, 0
2,28732, Note_on_c, 0, 52, 64
2,28770, Note_on_c, 0, 52, 0
2,28807, Note_on_c, 0, 71, 0
2,28824, Note_on_c, 0, 76, 84
2,28943, Note_on_c, 0, 75, 82
2,28943, Note_on_c, 0, 76, 0
2,29051, Note_on_c, 0, 76, 93
2,29059, Note_on_c, 0, 75, 0
2,29071, Note_on_c, 0, 59, 68
2,29131, Note_on_c, 0, 59, 0
2,29168, Note_on_c, 0, 60, 69
2,29168, Note_on_c, 0, 74, 87
2,29181, Note_on_c, 0, 76, 0
2,29219, Note_on_c, 0, 60, 0
2,29270, Note_on_c, 0, 59, 75
2,29286, Note_on_c, 0, 76, 91
2,29292, Note_on_c, 0, 74, 0
2,29384, Note_on_c, 0, 59, 0
2,29397, Note_on_c, 0, 57, 72
2,29401, Note_on_c, 0, 73, 87
2,29408, Note_on_c, 0, 76, 0
2,29479, Note_on_c, 0, 57, 0
2,29497, Note_on_c, 0, 55, 68
2,29510, Note_on_c, 0, 73, 0
2,29510, Note_on_c, 0, 76, 85
2,29584, Note_on_c, 0, 55, 0
2,29609, Note_on_c, 0, 76, 0
2,29620, Note_on_c, 0, 72, 90
2,29625, Note_on_c, 0, 54, 68
2,29694, Note_on_c, 0, 54, 0
2,29713, Note_on_c, 0, 72, 0
2,29730, Note_on_c, 0, 57, 72
2,29730, Note_on_c, 0, 76, 88
2,29831, Note_on_c, 0, 57, 0
2,29851, Note_on_c, 0, 55, 76
2,29856, Note_on_c, 0, 71, 86
2,29856, Note_on_c, 0, 76, 0
2,29955, Note_on_c, 0, 71, 0
2,29970, Note_on_c, 0, 76, 83
2,30083, Note_on_c, 0, 75, 84
2,30092, Note_on_c, 0, 76, 0
2,30200, Note_on_c, 0, 76, 89
2,30204, Note_on_c, 0, 75, 0
2,30318, Note_on_c, 0, 76, 0
2,30323, Note_on_c, 0, 70, 85
2,30427, Note_on_c, 0, 73, 77
2,30436, Note_on_c, 0, 70, 0
2,30440, Note_on_c, 0, 55, 0
2,30455, Note_on_c, 0, 54, 64
2,30499, Note_on_c, 0, 73, 0
2,30532, Note_on_c, 0, 67, 79
2,30551, Note_on_c, 0, 54, 0
2,30555, Note_on_c, 0, 52, 70
2,30630, Note_on_c, 0, 67, 0
2,30644, Note_on_c, 0, 66, 82
2,30651, Note_on_c, 0, 51, 76
2,30655, Note_on_c, 0, 52, 0
2,30706, Note_on_c, 0, 51, 0
2,30715, Note_on_c, 0, 66, 0
2,30755, Note_on_c, 0, 67, 79
2,30764, Note_on_c, 0, 52, 72
2,30822, Note_on_c, 0, 52, 0
2,30860, Note_on_c, 0, 54, 73
2,30862, Note_on_c, 0, 70, 83
2,30867, Note_on_c, 0, 67, 0
2,30940, Note_on_c, 0, 54, 0
2,30946, Note_on_c, 0, 70, 0
2,30965, Note_on_c, 0, 66, 76
2,30974, Note_on_c, 0, 51, 71
2,31030, Note_on_c, 0, 51, 0
2,31043, Note_on_c, 0, 66, 0
2,31073, Note_on_c, 0, 52, 71
2,31077, Note_on_c, 0, 64, 77
2,31141, Note_on_c, 0, 64, 0
2,31184, Note_on_c, 0, 52, 0
2,31201, Note_on_c, 0, 54, 67
2,31201, Note_on_c, 0, 63, 74
2,31240, Note_on_c, 0, 63, 0
2,31278, Note_on_c, 0, 54, 0
2,31292, Note_on_c, 0, 47, 66
2,31403, Note_on_c, 0, 47, 0
2,31410, Note_on_c, 0, 51, 70
2,31428, Note_on_c, 0, 71, 76
2,31459, Note_on_c, 0, 71, 0
2,31528, Note_on_c, 0, 51, 0
2,31532, Note_on_c, 0, 54, 71
2,31614, Note_on_c, 0, 54, 0
2,31647, Note_on_c, 0, 57, 77
2,31735, Note_on_c, 0, 57, 0
2,31749, Note_on_c, 0, 51, 70
2,31757, Note_on_c, 0, 83, 74
2,31856, Note_on_c, 0, 84, 83
2,31869, Note_on_c, 0, 54, 67
2,31869, Note_on_c, 0, 83, 0
2,31878, Note_on_c, 0, 51, 0
2,31970, Note_on_c, 0, 83, 89
2,31975, Note_on_c, 0, 57, 79
2,32004, Note_on_c, 0, 84, 0
2,32019, Note_on_c, 0, 54, 0
2,32058, Note_on_c, 0, 57, 0
2,32082, Note_on_c, 0, 60, 78
2,32086, Note_on_c, 0, 81, 85
2,32090, Note_on_c, 0, 83, 0
2,32157, Note_on_c, 0, 60, 0
2,32193, Note_on_c, 0, 59, 79
2,32198, Note_on_c, 0, 79, 92
2,32222, Note_on_c, 0, 81, 0
2,32283, Note_on_c, 0, 59, 0
2,32299, Note_on_c, 0, 57, 76
2,32304, Note_on_c, 0, 78, 92
2,32332, Note_on_c, 0, 79, 0
2,32413, Note_on_c, 0, 81, 89
2,32417, Note_on_c, 0, 60, 73
2,32434, Note_on_c, 0, 57, 0
2,32434, Note_on_c, 0, 78, 0
2,32495, Note_on_c, 0, 60, 0
2,32536, Note_on_c, 0, 79, 92
2,32540, Note_on_c, 0, 59, 77
2,32582, Note_on_c, 0, 81, 0
2,32619, Note_on_c, 0, 59, 0
2,32651, Note_on_c, 0, 57, 78
2,32756, Note_on_c, 0, 55, 71
2,32763, Note_on_c, 0, 57, 0
2,32859, Note_on_c, 0, 54, 73
2,32871, Note_on_c, 0, 55, 0
2,32948, Note_on_c, 0, 54, 0
2,32978, Note_on_c, 0, 52, 78
2,33076, Note_on_c, 0, 52, 0
2,33089, Note_on_c, 0, 51, 74
2,33107, Note_on_c, 0, 78, 78
2,33151, Note_on_c, 0, 79, 0
2,33200, Note_on_c, 0, 51, 0
2,33207, Note_on_c, 0, 76, 89
2,33212, Note_on_c, 0, 49, 67
2,33249, Note_on_c, 0, 78, 0
2,33307, Note_on_c, 0, 49, 0
2,33324, Note_on_c, 0, 47, 68
2,33324, Note_on_c, 0, 75, 83
2,33334, Note_on_c, 0, 76, 0
2,33414, Note_on_c, 0, 47, 0
2,33434, Note_on_c, 0, 76, 92
2,33442, Note_on_c, 0, 55, 70
2,33449, Note_on_c, 0, 75, 0
2,33551, Note_on_c, 0, 78, 86
2,33584, Note_on_c, 0, 76, 0
2,33661, Note_on_c, 0, 74, 82
2,33681, Note_on_c, 0, 78, 0
2,33771, Note_on_c, 0, 74, 0
2,33771, Note_on_c, 0, 76, 84
2,33847, Note_on_c, 0, 76, 0
2,33893, Note_on_c, 0, 73, 81
2,33954, Note_on_c, 0, 73, 0
2,33981, Note_on_c, 0, 55, 0
2,33996, Note_on_c, 0, 45, 52
2,34100, Note_on_c, 0, 45, 0
2,34105, Note_on_c, 0, 49, 60
2,34124, Note_on_c, 0, 81, 69
2,34176, Note_on_c, 0, 81, 0
2,34219, Note_on_c, 0, 49, 0
2,34241, Note_on_c, 0, 52, 64
2,34291, Note_on_c, 0, 52, 0
2,34347, Note_on_c, 0, 55, 66
2,34432, Note_on_c, 0, 55, 0
2,34453, Note_on_c, 0, 81, 66
2,34457, Note_on_c, 0, 49, 57
2,34559, Note_on_c, 0, 49, 0
2,34563, Note_on_c, 0, 81, 0
2,34567, Note_on_c, 0, 52, 57
2,34567, Note_on_c, 0, 82, 73
2,34649, Note_on_c, 0, 52, 0
2,34681, Note_on_c, 0, 55, 63
2,34686, Note_on_c, 0, 81, 72
2,34698, Note_on_c, 0, 82, 0
2,34740, Note_on_c, 0, 55, 0
2,34776, Note_on_c, 0, 81, 0
2,34789, Note_on_c, 0, 79, 77
2,34801, Note_on_c, 0, 58, 55
2,34839, Note_on_c, 0, 58, 0
2,34852, Note_on_c, 0, 79, 0
2,34895, Note_on_c, 0, 77, 75
2,34910, Note_on_c, 0, 57, 58
2,34978, Note_on_c, 0, 57, 0
2,34998, Note_on_c, 0, 77, 0
2,35013, Note_on_c, 0, 76, 68
2,35020, Note_on_c, 0, 55, 59
2,35085, Note_on_c, 0, 55, 0
2,35098, Note_on_c, 0, 76, 0
2,35122, Note_on_c, 0, 79, 75
2,35127, Note_on_c, 0, 58, 64
2,35183, Note_on_c, 0, 58, 0
2,35237, Note_on_c, 0, 57, 67
2,35242, Note_on_c, 0, 77, 81
2,35262, Note_on_c, 0, 79, 0
2,35295, Note_on_c, 0, 57, 0
2,35353, Note_on_c, 0, 55, 56
2,35439, Note_on_c, 0, 55, 0
2,35470, Note_on_c, 0, 53, 63
2,35511, Note_on_c, 0, 53, 0
2,35569, Note_on_c, 0, 52, 69
2,35625, Note_on_c, 0, 52, 0
2,35677, Note_on_c, 0, 50, 65
2,35758, Note_on_c, 0, 50, 0
2,35792, Note_on_c, 0, 49, 59
2,35815, Note_on_c, 0, 76, 67
2,35834, Note_on_c, 0, 77, 0
2,35863, Note_on_c, 0, 49, 0
2,35908, Note_on_c, 0, 47, 56
2,35923, Note_on_c, 0, 74, 71
2,35954, Note_on_c, 0, 76, 0
2,35968, Note_on_c, 0, 47, 0
2,36013, Note_on_c, 0, 45, 56
2,36018, Note_on_c, 0, 74, 0
2,36024, Note_on_c, 0, 73, 73
2,36114, Note_on_c, 0, 45, 0
2,36138, Note_on_c, 0, 73, 0
2,36138, Note_on_c, 0, 74, 73
2,36149, Note_on_c, 0, 53, 58
2,36247, Note_on_c, 0, 74, 0
2,36254, Note_on_c, 0, 76, 72
2,36359, Note_on_c, 0, 76, 0
2,36365, Note_on_c, 0, 72, 71
2,36464, Note_on_c, 0, 72, 0
2,36475, Note_on_c, 0, 74, 67
2,36536, Note_on_c, 0, 74, 0
2,36596, Note_on_c, 0, 71, 62
2,36649, Note_on_c, 0, 71, 0
2,36654, Note_on_c, 0, 53, 0
2,36691, Note_on_c, 0, 50, 44
2,36764, Note_on_c, 0, 50, 0
2,36807, Note_on_c, 0, 43, 49
2,36815, Note_on_c, 0, 79, 64
2,36863, Note_on_c, 0, 79, 0
2,36916, Note_on_c, 0, 43, 0
2,36920, Note_on_c, 0, 45, 56
2,37000, Note_on_c, 0, 45, 0
2,37019, Note_on_c, 0, 47, 60
2,37138, Note_on_c, 0, 48, 63
2,37143, Note_on_c, 0, 47, 0
2,37162, Note_on_c, 0, 69, 55
2,37196, Note_on_c, 0, 48, 0
2,37246, Note_on_c, 0, 50, 61
2,37255, Note_on_c, 0, 69, 0
2,37263, Note_on_c, 0, 71, 69
2,37318, Note_on_c, 0, 71, 0
2,37323, Note_on_c, 0, 50, 0
2,37359, Note_on_c, 0, 52, 69
2,37375, Note_on_c, 0, 72, 77
2,37476, Note_on_c, 0, 72, 0
2,37480, Note_on_c, 0, 53, 69
2,37491, Note_on_c, 0, 52, 0
2,37491, Note_on_c, 0, 74, 74
2,37592, Note_on_c, 0, 55, 70
2,37596, Note_on_c, 0, 53, 0
2,37596, Note_on_c, 0, 76, 82
2,37607, Note_on_c, 0, 74, 0
2,37674, Note_on_c, 0, 55, 0
2,37709, Note_on_c, 0, 77, 81
2,37713, Note_on_c, 0, 57, 68
2,37720, Note_on_c, 0, 76, 0
2,37785, Note_on_c, 0, 57, 0
2,37818, Note_on_c, 0, 59, 74
2,37818, Note_on_c, 0, 74, 77
2,37822, Note_on_c, 0, 77, 0
2,37916, Note_on_c, 0, 59, 0
2,37927, Note_on_c, 0, 74, 0
2,37931, Note_on_c, 0, 76, 83
2,37952, Note_on_c, 0, 60, 69
2,38017, Note_on_c, 0, 60, 0
2,38042, Note_on_c, 0, 74, 82
2,38051, Note_on_c, 0, 76, 0
2,38055, Note_on_c, 0, 59, 79
2,38107, Note_on_c, 0, 59, 0
2,38140, Note_on_c, 0, 74, 0
2,38156, Note_on_c, 0, 79, 88
2,38160, Note_on_c, 0, 64, 78
2,38228, Note_on_c, 0, 64, 0
2,38260, Note_on_c, 0, 62, 74
2,38265, Note_on_c, 0, 77, 87
2,38298, Note_on_c, 0, 79, 0
2,38363, Note_on_c, 0, 62, 0
2,38367, Note_on_c, 0, 76, 88
2,38378, Note_on_c, 0, 61, 75
2,38406, Note_on_c, 0, 77, 0
2,38450, Note_on_c, 0, 76, 0
2,38466, Note_on_c, 0, 61, 0
2,38475, Note_on_c, 0, 58, 74
2,38483, Note_on_c, 0, 74, 82
2,38549, Note_on_c, 0, 58, 0
2,38591, Note_on_c, 0, 73, 86
2,38595, Note_on_c, 0, 57, 75
2,38601, Note_on_c, 0, 74, 0
2,38659, Note_on_c, 0, 57, 0
2,38696, Note_on_c, 0, 55, 74
2,38701, Note_on_c, 0, 70, 84
2,38735, Note_on_c, 0, 73, 0
2,38775, Note_on_c, 0, 55, 0
2,38809, Note_on_c, 0, 53, 79
2,38809, Note_on_c, 0, 69, 85
2,38821, Note_on_c, 0, 70, 0
2,38868, Note_on_c, 0, 53, 0
2,38924, Note_on_c, 0, 70, 89
2,38928, Note_on_c, 0, 62, 74
2,38935, Note_on_c, 0, 69, 0
2,38995, Note_on_c, 0, 62, 0
2,39036, Note_on_c, 0, 67, 87
2,39041, Note_on_c, 0, 70, 0
2,39052, Note_on_c, 0, 52, 78
2,39111, Note_on_c, 0, 67, 0
2,39146, Note_on_c, 0, 69, 82
2,39152, Note_on_c, 0, 52, 0
2,39165, Note_on_c, 0, 61, 73
2,39209, Note_on_c, 0, 61, 0
2,39213, Note_on_c, 0, 69, 0
2,39272, Note_on_c, 0, 50, 83
2,39272, Note_on_c, 0, 65, 82
2,39356, Note_on_c, 0, 65, 0
2,39376, Note_on_c, 0, 53, 83
2,39394, Note_on_c, 0, 50, 0
2,39484, Note_on_c, 0, 53, 0
2,39488, Note_on_c, 0, 57, 86
2,39501, Note_on_c, 0, 74, 80
2,39557, Note_on_c, 0, 57, 0
2,39557, Note_on_c, 0, 74, 0
2,39592, Note_on_c, 0, 62, 81
2,39701, Note_on_c, 0, 62, 0
2,39710, Note_on_c, 0, 61, 85
2,39816, Note_on_c, 0, 61, 0
2,39819, Note_on_c, 0, 62, 88
2,39837, Note_on_c, 0, 81, 77
2,39897, Note_on_c, 0, 62, 0
2,39934, Note_on_c, 0, 60, 85
2,39940, Note_on_c, 0, 82, 84
2,39949, Note_on_c, 0, 81, 0
2,40044, Note_on_c, 0, 60, 0
2,40044, Note_on_c, 0, 62, 81
2,40048, Note_on_c, 0, 81, 84
2,40094, Note_on_c, 0, 82, 0
2,40148, Note_on_c, 0, 62, 0
2,40156, Note_on_c, 0, 79, 92
2,40161, Note_on_c, 0, 59, 86
2,40169, Note_on_c, 0, 81, 0
2,40236, Note_on_c, 0, 79, 0
2,40240, Note_on_c, 0, 59, 0
2,40271, Note_on_c, 0, 77, 93
2,40274, Note_on_c, 0, 62, 84
2,40352, Note_on_c, 0, 62, 0
2,40380, Note_on_c, 0, 76, 91
2,40384, Note_on_c, 0, 58, 77
2,40400, Note_on_c, 0, 77, 0
2,40466, Note_on_c, 0, 58, 0
2,40486, Note_on_c, 0, 79, 86
2,40490, Note_on_c, 0, 62, 79
2,40503, Note_on_c, 0, 76, 0
2,40577, Note_on_c, 0, 62, 0
2,40607, Note_on_c, 0, 57, 82
2,40607, Note_on_c, 0, 77, 92
2,40653, Note_on_c, 0, 79, 0
2,40689, Note_on_c, 0, 57, 0
2,40721, Note_on_c, 0, 62, 79
2,40814, Note_on_c, 0, 62, 0
2,40830, Note_on_c, 0, 61, 73
2,40925, Note_on_c, 0, 61, 0
2,40944, Note_on_c, 0, 62, 80
2,41025, Note_on_c, 0, 62, 0
2,41063, Note_on_c, 0, 56, 77
2,41127, Note_on_c, 0, 56, 0
2,41157, Note_on_c, 0, 76, 79
2,41173, Note_on_c, 0, 59, 79
2,41185, Note_on_c, 0, 77, 0
2,41243, Note_on_c, 0, 59, 0
2,41269, Note_on_c, 0, 74, 81
2,41287, Note_on_c, 0, 53, 74
2,41302, Note_on_c, 0, 76, 0
2,41377, Note_on_c, 0, 72, 84
2,41381, Note_on_c, 0, 74, 0
2,41385, Note_on_c, 0, 53, 0
2,41390, Note_on_c, 0, 52, 76
2,41487, Note_on_c, 0, 72, 0
2,41492, Note_on_c, 0, 74, 86
2,41496, Note_on_c, 0, 52, 0
2,41510, Note_on_c, 0, 53, 72
2,41597, Note_on_c, 0, 72, 87
2,41607, Note_on_c, 0, 53, 0
2,41607, Note_on_c, 0, 74, 0
2,41611, Note_on_c, 0, 56, 73
2,41678, Note_on_c, 0, 56, 0
2,41711, Note_on_c, 0, 74, 84
2,41722, Note_on_c, 0, 52, 70
2,41726, Note_on_c, 0, 72, 0
2,41815, Note_on_c, 0, 50, 71
2,41820, Note_on_c, 0, 76, 81
2,41832, Note_on_c, 0, 52, 0
2,41843, Note_on_c, 0, 74, 0
2,41890, Note_on_c, 0, 76, 0
2,41903, Note_on_c, 0, 50, 0
2,41927, Note_on_c, 0, 69, 86
2,41930, Note_on_c, 0, 48, 71
2,41982, Note_on_c, 0, 48, 0
2,42033, Note_on_c, 0, 69, 0
2,42048, Note_on_c, 0, 72, 92
2,42153, Note_on_c, 0, 76, 89
2,42163, Note_on_c, 0, 72, 0
2,42169, Note_on_c, 0, 57, 71
2,42202, Note_on_c, 0, 57, 0
2,42248, Note_on_c, 0, 76, 0
2,42263, Note_on_c, 0, 81, 75
2,42377, Note_on_c, 0, 80, 87
2,42382, Note_on_c, 0, 81, 0
2,42492, Note_on_c, 0, 64, 75
2,42492, Note_on_c, 0, 81, 85
2,42503, Note_on_c, 0, 80, 0
2,42566, Note_on_c, 0, 64, 0
2,42600, Note_on_c, 0, 65, 71
2,42604, Note_on_c, 0, 79, 94
2,42613, Note_on_c, 0, 81, 0
2,42647, Note_on_c, 0, 65, 0
2,42701, Note_on_c, 0, 64, 76
2,42717, Note_on_c, 0, 81, 87
2,42728, Note_on_c, 0, 79, 0
2,42811, Note_on_c, 0, 64, 0
2,42825, Note_on_c, 0, 62, 74
2,42825, Note_on_c, 0, 78, 92
2,42832, Note_on_c, 0, 81, 0
2,42921, Note_on_c, 0, 62, 0
2,42925, Note_on_c, 0, 60, 68
2,42935, Note_on_c, 0, 81, 84
2,42941, Note_on_c, 0, 78, 0
2,43024, Note_on_c, 0, 60, 0
2,43035, Note_on_c, 0, 59, 70
2,43044, Note_on_c, 0, 77, 90
2,43053, Note_on_c, 0, 81, 0
2,43147, Note_on_c, 0, 59, 0
2,43151, Note_on_c, 0, 81, 83
2,43155, Note_on_c, 0, 62, 74
2,43155, Note_on_c, 0, 77, 0
2,43253, Note_on_c, 0, 62, 0
2,43267, Note_on_c, 0, 76, 92
2,43278, Note_on_c, 0, 60, 79
2,43278, Note_on_c, 0, 81, 0
2,43385, Note_on_c, 0, 76, 0
2,43385, Note_on_c, 0, 81, 82
2,43497, Note_on_c, 0, 80, 86
2,43506, Note_on_c, 0, 81, 0
2,43608, Note_on_c, 0, 81, 84
2,43619, Note_on_c, 0, 80, 0
2,43721, Note_on_c, 0, 81, 0
2,43725, Note_on_c, 0, 75, 86
2,43826, Note_on_c, 0, 78, 83
2,43829, Note_on_c, 0, 60, 0
2,43838, Note_on_c, 0, 75, 0
2,43841, Note_on_c, 0, 59, 69
2,43931, Note_on_c, 0, 72, 89
2,43939, Note_on_c, 0, 59, 0
2,43947, Note_on_c, 0, 57, 73
2,43961, Note_on_c, 0, 78, 0
2,44042, Note_on_c, 0, 56, 75
2,44042, Note_on_c, 0, 72, 0
2,44047, Note_on_c, 0, 71, 82
2,44051, Note_on_c, 0, 57, 0
2,44110, Note_on_c, 0, 56, 0
2,44153, Note_on_c, 0, 72, 90
2,44157, Note_on_c, 0, 57, 76
2,44157, Note_on_c, 0, 71, 0
2,44213, Note_on_c, 0, 57, 0
2,44262, Note_on_c, 0, 54, 73
2,44262, Note_on_c, 0, 75, 84
2,44271, Note_on_c, 0, 72, 0
2,44329, Note_on_c, 0, 54, 0
2,44353, Note_on_c, 0, 75, 0
2,44361, Note_on_c, 0, 51, 68
2,44366, Note_on_c, 0, 71, 80
2,44439, Note_on_c, 0, 71, 0
2,44456, Note_on_c, 0, 51, 0
2,44469, Note_on_c, 0, 54, 71
2,44478, Note_on_c, 0, 69, 78
2,44546, Note_on_c, 0, 69, 0
2,44550, Note_on_c, 0, 54, 0
2,44593, Note_on_c, 0, 59, 78
2,44593, Note_on_c, 0, 68, 93
2,44630, Note_on_c, 0, 68, 0
2,44669, Note_on_c, 0, 59, 0
2,44696, Note_on_c, 0, 57, 74
2,44817, Note_on_c, 0, 57, 0
2,44821, Note_on_c, 0, 56, 66
2,44821, Note_on_c, 0, 64, 87
2,44866, Note_on_c, 0, 64, 0
2,44920, Note_on_c, 0, 56, 0
2,44924, Note_on_c, 0, 54, 67
2,44980, Note_on_c, 0, 54, 0
2,45033, Note_on_c, 0, 68, 87
2,45040, Note_on_c, 0, 52, 68
2,45081, Note_on_c, 0, 68, 0
2,45101, Note_on_c, 0, 52, 0
2,45141, Note_on_c, 0, 51, 71
2,45203, Note_on_c, 0, 51, 0
2,45250, Note_on_c, 0, 71, 94
2,45264, Note_on_c, 0, 59, 70
2,45301, Note_on_c, 0, 71, 0
2,45315, Note_on_c, 0, 59, 0
2,45372, Note_on_c, 0, 57, 75
2,45483, Note_on_c, 0, 57, 0
2,45483, Note_on_c, 0, 76, 90
2,45487, Note_on_c, 0, 56, 76
2,45543, Note_on_c, 0, 76, 0
2,45593, Note_on_c, 0, 54, 70
2,45593, Note_on_c, 0, 56, 0
2,45662, Note_on_c, 0, 54, 0
2,45697, Note_on_c, 0, 68, 88
2,45699, Note_on_c, 0, 52, 76
2,45749, Note_on_c, 0, 68, 0
2,45759, Note_on_c, 0, 52, 0
2,45821, Note_on_c, 0, 50, 67
2,45893, Note_on_c, 0, 50, 0
2,45926, Note_on_c, 0, 76, 91
2,45928, Note_on_c, 0, 49, 85
2,45959, Note_on_c, 0, 49, 0
2,46039, Note_on_c, 0, 74, 77
2,46071, Note_on_c, 0, 76, 0
2,46140, Note_on_c, 0, 73, 81
2,46156, Note_on_c, 0, 45, 67
2,46167, Note_on_c, 0, 74, 0
2,46191, Note_on_c, 0, 45, 0
2,46262, Note_on_c, 0, 71, 78
2,46297, Note_on_c, 0, 73, 0
2,46329, Note_on_c, 0, 71, 0
2,46374, Note_on_c, 0, 69, 78
2,46381, Note_on_c, 0, 49, 83
2,46418, Note_on_c, 0, 49, 0
2,46503, Note_on_c, 0, 68, 83
2,46524, Note_on_c, 0, 69, 0
2,46599, Note_on_c, 0, 68, 0
2,46613, Note_on_c, 0, 52, 91
2,46620, Note_on_c, 0, 76, 90
2,46642, Note_on_c, 0, 52, 0
2,46735, Note_on_c, 0, 74, 83
2,46772, Note_on_c, 0, 76, 0
2,46844, Note_on_c, 0, 73, 79
2,46848, Note_on_c, 0, 57, 71
2,46859, Note_on_c, 0, 74, 0
2,46878, Note_on_c, 0, 57, 0
2,46952, Note_on_c, 0, 71, 75
2,46967, Note_on_c, 0, 73, 0
2,47021, Note_on_c, 0, 71, 0
2,47071, Note_on_c, 0, 49, 49
2,47071, Note_on_c, 0, 69, 68
2,47104, Note_on_c, 0, 49, 0
2,47122, Note_on_c, 0, 69, 0
2,47178, Note_on_c, 0, 67, 64
2,47232, Note_on_c, 0, 67, 0
2,47293, Note_on_c, 0, 66, 66
2,47298, Note_on_c, 0, 57, 54
2,47331, Note_on_c, 0, 66, 0
2,47365, Note_on_c, 0, 57, 0
2,47410, Note_on_c, 0, 55, 46
2,47494, Note_on_c, 0, 55, 0
2,47527, Note_on_c, 0, 54, 62
2,47531, Note_on_c, 0, 62, 62
2,47569, Note_on_c, 0, 62, 0
2,47578, Note_on_c, 0, 54, 0
2,47636, Note_on_c, 0, 52, 57
2,47700, Note_on_c, 0, 52, 0
2,47747, Note_on_c, 0, 50, 55
2,47755, Note_on_c, 0, 66, 59
2,47798, Note_on_c, 0, 66, 0
2,47818, Note_on_c, 0, 50, 0
2,47863, Note_on_c, 0, 49, 58
2,47903, Note_on_c, 0, 49, 0
2,47978, Note_on_c, 0, 69, 67
2,47992, Note_on_c, 0, 57, 58
2,48014, Note_on_c, 0, 69, 0
2,48055, Note_on_c, 0, 57, 0
2,48101, Note_on_c, 0, 55, 53
2,48183, Note_on_c, 0, 55, 0
2,48207, Note_on_c, 0, 74, 68
2,48214, Note_on_c, 0, 54, 61
2,48247, Note_on_c, 0, 74, 0
2,48254, Note_on_c, 0, 54, 0
2,48311, Note_on_c, 0, 52, 61
2,48363, Note_on_c, 0, 52, 0
2,48419, Note_on_c, 0, 50, 57
2,48442, Note_on_c, 0, 66, 57
2,48488, Note_on_c, 0, 66, 0
2,48505, Note_on_c, 0, 50, 0
2,48520, Note_on_c, 0, 48, 58
2,48618, Note_on_c, 0, 48, 0
2,48641, Note_on_c, 0, 47, 71
2,48646, Note_on_c, 0, 74, 70
2,48677, Note_on_c, 0, 47, 0
2,48751, Note_on_c, 0, 74, 0
2,48758, Note_on_c, 0, 72, 67
2,48858, Note_on_c, 0, 72, 0
2,48875, Note_on_c, 0, 71, 64
2,48879, Note_on_c, 0, 43, 58
2,48918, Note_on_c, 0, 43, 0
2,48975, Note_on_c, 0, 71, 0
2,48983, Note_on_c, 0, 69, 63
2,49040, Note_on_c, 0, 69, 0
2,49102, Note_on_c, 0, 47, 59
2,49102, Note_on_c, 0, 67, 67
2,49133, Note_on_c, 0, 47, 0
2,49215, Note_on_c, 0, 67, 0
2,49232, Note_on_c, 0, 66, 61
2,49292, Note_on_c, 0, 66, 0
2,49321, Note_on_c, 0, 50, 73
2,49342, Note_on_c, 0, 74, 69
2,49352, Note_on_c, 0, 50, 0
2,49448, Note_on_c, 0, 72, 72
2,49448, Note_on_c, 0, 74, 0
2,49556, Note_on_c, 0, 55, 65
2,49561, Note_on_c, 0, 71, 72
2,49572, Note_on_c, 0, 72, 0
2,49583, Note_on_c, 0, 55, 0
2,49664, Note_on_c, 0, 69, 69
2,49673, Note_on_c, 0, 71, 0
2,49740, Note_on_c, 0, 69, 0
2,49782, Note_on_c, 0, 67, 69
2,49787, Note_on_c, 0, 47, 59
2,49819, Note_on_c, 0, 47, 0
2,49883, Note_on_c, 0, 67, 0
2,49898, Note_on_c, 0, 66, 64
2,49974, Note_on_c, 0, 66, 0
2,50018, Note_on_c, 0, 59, 71
2,50025, Note_on_c, 0, 71, 75
2,50070, Control_c, 0, 64, 14
2,50090, Control_c, 0, 64, 18
2,50099, Note_on_c, 0, 59, 0
2,50109, Control_c, 0, 64, 0
2,50133, Note_on_c, 0, 69, 72
2,50138, Note_on_c, 0, 57, 76
2,50157, Note_on_c, 0, 71, 0
2,50229, Note_on_c, 0, 57, 0
2,50240, Note_on_c, 0, 67, 77
2,50249, Note_on_c, 0, 55, 67
2,50282, Note_on_c, 0, 69, 0
2,50345, Note_on_c, 0, 55, 0
2,50350, Note_on_c, 0, 66, 81
2,50358, Note_on_c, 0, 54, 76
2,50358, Note_on_c, 0, 67, 0
2,50418, Note_on_c, 0, 54, 0
2,50441, Note_on_c, 0, 66, 0
2,50465, Note_on_c, 0, 64, 78
2,50470, Note_on_c, 0, 52, 78
2,50518, Note_on_c, 0, 52, 0
2,50571, Note_on_c, 0, 51, 80
2,50578, Note_on_c, 0, 63, 79
2,50582, Note_on_c, 0, 64, 0
2,50637, Note_on_c, 0, 51, 0
2,50652, Note_on_c, 0, 63, 0
2,50690, Note_on_c, 0, 71, 92
2,50693, Note_on_c, 0, 59, 83
2,50752, Note_on_c, 0, 59, 0
2,50798, Note_on_c, 0, 57, 81
2,50799, Note_on_c, 0, 69, 81
2,50835, Note_on_c, 0, 71, 0
2,50907, Note_on_c, 0, 55, 74
2,50907, Note_on_c, 0, 67, 85
2,50912, Note_on_c, 0, 57, 0
2,50939, Note_on_c, 0, 69, 0
2,51013, Note_on_c, 0, 54, 79
2,51013, Note_on_c, 0, 66, 87
2,51024, Note_on_c, 0, 67, 0
2,51030, Note_on_c, 0, 55, 0
2,51092, Note_on_c, 0, 54, 0
2,51115, Note_on_c, 0, 66, 0
2,51122, Note_on_c, 0, 64, 86
2,51131, Note_on_c, 0, 52, 80
2,51224, Note_on_c, 0, 52, 0
2,51241, Note_on_c, 0, 63, 84
2,51245, Note_on_c, 0, 51, 83
2,51245, Note_on_c, 0, 64, 0
2,51313, Note_on_c, 0, 51, 0
2,51313, Note_on_c, 0, 63, 0
2,51358, Note_on_c, 0, 52, 88
2,51358, Note_on_c, 0, 64, 97
2,51448, Note_on_c, 0, 52, 0
2,51480, Note_on_c, 0, 47, 84
2,51480, Note_on_c, 0, 64, 0
2,51480, Note_on_c, 0, 67, 93
2,51573, Note_on_c, 0, 47, 0
2,51578, Note_on_c, 0, 71, 92
2,51582, Note_on_c, 0, 43, 72
2,51603, Note_on_c, 0, 67, 0
2,51680, Note_on_c, 0, 40, 76
2,51684, Note_on_c, 0, 76, 89
2,51688, Note_on_c, 0, 71, 0
2,51692, Note_on_c, 0, 43, 0
2,51728, Note_on_c, 0, 40, 0
2,51805, Note_on_c, 0, 75, 88
2,51813, Note_on_c, 0, 76, 0
2,51906, Note_on_c, 0, 59, 83
2,51917, Note_on_c, 0, 76, 91
2,51932, Note_on_c, 0, 75, 0
2,51985, Note_on_c, 0, 59, 0
2,52023, Note_on_c, 0, 60, 80
2,52027, Note_on_c, 0, 74, 89
2,52045, Note_on_c, 0, 76, 0
2,52095, Note_on_c, 0, 60, 0
2,52123, Note_on_c, 0, 59, 83
2,52134, Note_on_c, 0, 76, 89
2,52152, Note_on_c, 0, 74, 0
2,52248, Note_on_c, 0, 57, 81
2,52250, Note_on_c, 0, 59, 0
2,52250, Note_on_c, 0, 73, 88
2,52259, Note_on_c, 0, 76, 0
2,52343, Note_on_c, 0, 57, 0
2,52351, Note_on_c, 0, 55, 70
2,52360, Note_on_c, 0, 76, 89
2,52365, Note_on_c, 0, 73, 0
2,52454, Note_on_c, 0, 55, 0
2,52470, Note_on_c, 0, 72, 89
2,52476, Note_on_c, 0, 76, 0
2,52487, Note_on_c, 0, 54, 71
2,52558, Note_on_c, 0, 54, 0
2,52576, Note_on_c, 0, 72, 0
2,52581, Note_on_c, 0, 76, 87
2,52585, Note_on_c, 0, 57, 79
2,52646, Note_on_c, 0, 57, 0
2,52682, Note_on_c, 0, 55, 79
2,52687, Note_on_c, 0, 76, 0
2,52691, Note_on_c, 0, 71, 87
2,52798, Note_on_c, 0, 69, 83
2,52802, Note_on_c, 0, 55, 0
2,52807, Note_on_c, 0, 54, 76
2,52821, Note_on_c, 0, 71, 0
2,52890, Note_on_c, 0, 54, 0
2,52910, Note_on_c, 0, 67, 88
2,52914, Note_on_c, 0, 52, 74
2,52914, Note_on_c, 0, 69, 0
2,52960, Note_on_c, 0, 52, 0
2,53018, Note_on_c, 0, 72, 93
2,53023, Note_on_c, 0, 67, 0
2,53040, Note_on_c, 0, 64, 80
2,53115, Note_on_c, 0, 64, 0
2,53131, Note_on_c, 0, 71, 87
2,53148, Note_on_c, 0, 63, 83
2,53169, Note_on_c, 0, 72, 0
2,53238, Note_on_c, 0, 63, 0
2,53242, Note_on_c, 0, 69, 84
2,53256, Note_on_c, 0, 64, 83
2,53265, Note_on_c, 0, 71, 0
2,53321, Note_on_c, 0, 64, 0
2,53353, Note_on_c, 0, 69, 0
2,53362, Note_on_c, 0, 71, 87
2,53371, Note_on_c, 0, 62, 82
2,53445, Note_on_c, 0, 62, 0
2,53466, Note_on_c, 0, 64, 80
2,53473, Note_on_c, 0, 68, 89
2,53483, Note_on_c, 0, 71, 0
2,53541, Note_on_c, 0, 64, 0
2,53586, Note_on_c, 0, 61, 78
2,53590, Note_on_c, 0, 69, 90
2,53601, Note_on_c, 0, 68, 0
2,53669, Note_on_c, 0, 61, 0
2,53689, Note_on_c, 0, 64, 78
2,53706, Note_on_c, 0, 67, 87
2,53721, Note_on_c, 0, 69, 0
2,53765, Note_on_c, 0, 64, 0
2,53805, Note_on_c, 0, 67, 0
2,53814, Note_on_c, 0, 60, 86
2,53821, Note_on_c, 0, 69, 85
2,53908, Note_on_c, 0, 60, 0
2,53925, Note_on_c, 0, 64, 75
2,53929, Note_on_c, 0, 66, 86
2,53943, Note_on_c, 0, 69, 0
2,54002, Note_on_c, 0, 64, 0
2,54048, Note_on_c, 0, 67, 90
2,54057, Note_on_c, 0, 59, 85
2,54063, Note_on_c, 0, 66, 0
2,54159, Note_on_c, 0, 66, 85
2,54172, Note_on_c, 0, 67, 0
2,54282, Note_on_c, 0, 67, 86
2,54287, Note_on_c, 0, 57, 88
2,54306, Note_on_c, 0, 66, 0
2,54330, Note_on_c, 0, 59, 0
2,54399, Note_on_c, 0, 69, 80
2,54414, Note_on_c, 0, 57, 0
2,54423, Note_on_c, 0, 67, 0
2,54456, Note_on_c, 0, 69, 0
2,54531, Note_on_c, 0, 59, 85
2,54541, Note_on_c, 0, 63, 82
2,54666, Note_on_c, 0, 59, 0
2,54669, Note_on_c, 0, 66, 82
2,54682, Note_on_c, 0, 63, 0
2,54803, Note_on_c, 0, 60, 88
2,54845, Note_on_c, 0, 66, 0
2,54936, Note_on_c, 0, 59, 84
2,54950, Note_on_c, 0, 60, 0
2,55086, Note_on_c, 0, 47, 77
2,55086, Note_on_c, 0, 60, 84
2,55110, Note_on_c, 0, 59, 0
2,55263, Note_on_c, 0, 63, 82
2,55307, Note_on_c, 0, 60, 0
2,55373, Note_on_c, 0, 47, 0
2,55435, Note_on_c, 0, 59, 82
2,55480, Note_on_c, 0, 63, 0
2,55610, Note_on_c, 0, 57, 79
2,55659, Note_on_c, 0, 59, 0
2,55838, Note_on_c, 0, 57, 0
2,55847, Note_on_c, 0, 40, 43
2,55953, Note_on_c, 0, 56, 59
2,56051, Note_on_c, 0, 59, 59
2,56175, Note_on_c, 0, 64, 70
2,57181, Note_on_c, 0, 59, 0
2,57234, Note_on_c, 0, 56, 0
2,57243, Note_on_c, 0, 64, 0
2,57256, Note_on_c, 0, 40, 0
2,57257, End_track
0, 0, End_of_file
