0, 0, Header, 1, 2, 480
1, 0, Start_track
1, 0, Tempo, 500000
1, 0, Time_signature, 4, 2, 24, 8
1, 1, End_track
2, 0, Start_track
2, 0, Program_c, 0, 0
2, 0, Control_c, 0, 64, 127
2, 0, Control_c, 0, 67, 98
2, 877, Note_on_c, 0, 52, 37
2, 974, Note_on_c, 0, 66, 45
2, 1086, Note_on_c, 0, 67, 53
2, 1105, Note_on_c, 0, 66, 0
2, 1191, Note_on_c, 0, 71, 57
2, 1288, Control_c, 0, 64, 112
2, 1306, Control_c, 0, 64, 103
2, 1324, Control_c, 0, 64, 97
2, 1336, Note_on_c, 0, 76, 66
2, 1347, Control_c, 0, 64, 90
2, 1363, Control_c, 0, 64, 85
2, 1386, Control_c, 0, 64, 81
2, 1401, Control_c, 0, 64, 77
2, 1421, Control_c, 0, 64, 74
2, 1443, Control_c, 0, 64, 70
2, 1460, Control_c, 0, 64, 67
2, 1480, Control_c, 0, 64, 66
2, 1500, Control_c, 0, 64, 65
2, 1574, Control_c, 0, 64, 64
2, 1633, Control_c, 0, 64, 63
2, 1689, Control_c, 0, 67, 99
2, 1698, Note_on_c, 0, 55, 29
2, 1711, Control_c, 0, 64, 62
2, 1749, Control_c, 0, 64, 61
2, 1785, Control_c, 0, 64, 60
2, 1825, Control_c, 0, 64, 58
2, 1843, Control_c, 0, 64, 57
2, 1865, Control_c, 0, 64, 54
2, 1883, Control_c, 0, 64, 51
2, 1903, Control_c, 0, 64, 48
2, 1919, Control_c, 0, 64, 47
2, 1961, Control_c, 0, 64, 49
2, 1977, Control_c, 0, 64, 51
2, 1997, Control_c, 0, 64, 56
2, 2010, Note_on_c, 0, 57, 33
2, 2016, Control_c, 0, 64, 58
2, 2037, Control_c, 0, 64, 59
2, 2122, Note_on_c, 0, 55, 0
2, 2171, Control_c, 0, 64, 58
2, 2208, Control_c, 0, 64, 57
2, 2227, Control_c, 0, 64, 56
2, 2260, Note_on_c, 0, 59, 35
2, 2306, Control_c, 0, 64, 57
2, 2313, Note_on_c, 0, 57, 0
2, 2421, Control_c, 0, 64, 56
2, 2441, Control_c, 0, 67, 100
2, 2460, Control_c, 0, 64, 55
2, 2479, Control_c, 0, 64, 52
2, 2496, Control_c, 0, 64, 49
2, 2509, Note_on_c, 0, 57, 38
2, 2518, Control_c, 0, 64, 47
2, 2525, Note_on_c, 0, 59, 0
2, 2535, Control_c, 0, 64, 46
2, 2593, Control_c, 0, 64, 48
2, 2613, Control_c, 0, 64, 51
2, 2631, Control_c, 0, 64, 54
2, 2648, Control_c, 0, 64, 56
2, 2670, Control_c, 0, 64, 57
2, 2688, Control_c, 0, 64, 58
2, 2708, Control_c, 0, 64, 59
2, 2729, Control_c, 0, 64, 60
2, 2745, Control_c, 0, 64, 61
2, 2762, Note_on_c, 0, 59, 39
2, 2786, Control_c, 0, 64, 62
2, 2795, Note_on_c, 0, 57, 0
2, 2824, Control_c, 0, 64, 63
2, 2862, Control_c, 0, 64, 64
2, 2866, Control_c, 0, 67, 99
2, 2919, Control_c, 0, 64, 65
2, 2932, Note_on_c, 0, 67, 0
2, 2951, Note_on_c, 0, 71, 0
2, 3025, Note_on_c, 0, 57, 33
2, 3045, Note_on_c, 0, 59, 0
2, 3283, Note_on_c, 0, 55, 28
2, 3287, Note_on_c, 0, 52, 0
2, 3322, Control_c, 0, 64, 64
2, 3400, Control_c, 0, 64, 63
2, 3405, Note_on_c, 0, 57, 0
2, 3477, Control_c, 0, 64, 62
2, 3513, Control_c, 0, 64, 61
2, 3525, Note_on_c, 0, 67, 34
2, 3534, Control_c, 0, 64, 58
2, 3545, Note_on_c, 0, 71, 35
2, 3556, Control_c, 0, 64, 53
2, 3556, Note_on_c, 0, 52, 31
2, 3560, Note_on_c, 0, 55, 0
2, 3573, Control_c, 0, 64, 46
2, 3590, Control_c, 0, 64, 39
2, 3610, Control_c, 0, 64, 37
2, 3652, Control_c, 0, 64, 41
2, 3667, Control_c, 0, 64, 48
2, 3672, Control_c, 0, 67, 98
2, 3687, Control_c, 0, 64, 56
2, 3708, Control_c, 0, 64, 60
2, 3727, Control_c, 0, 64, 62
2, 3744, Control_c, 0, 64, 63
2, 3766, Control_c, 0, 64, 64
2, 3783, Control_c, 0, 64, 66
2, 3804, Control_c, 0, 64, 69
2, 3804, Note_on_c, 0, 55, 35
2, 3821, Control_c, 0, 64, 73
2, 3837, Note_on_c, 0, 76, 0
2, 3841, Control_c, 0, 64, 78
2, 3863, Control_c, 0, 64, 84
2, 3863, Control_c, 0, 67, 97
2, 3878, Control_c, 0, 64, 88
2, 3898, Control_c, 0, 64, 90
2, 3907, Note_on_c, 0, 71, 0
2, 4013, Control_c, 0, 64, 88
2, 4033, Control_c, 0, 64, 87
2, 4052, Control_c, 0, 64, 85
2, 4073, Control_c, 0, 64, 83
2, 4091, Control_c, 0, 64, 82
2, 4111, Control_c, 0, 64, 81
2, 4111, Control_c, 0, 67, 98
2, 4132, Control_c, 0, 64, 80
2, 4132, Note_on_c, 0, 57, 37
2, 4135, Note_on_c, 0, 78, 51
2, 4149, Control_c, 0, 64, 78
2, 4166, Control_c, 0, 64, 75
2, 4186, Control_c, 0, 64, 72
2, 4208, Control_c, 0, 64, 71
2, 4226, Control_c, 0, 64, 70
2, 4246, Control_c, 0, 64, 69
2, 4246, Note_on_c, 0, 78, 0
2, 4251, Note_on_c, 0, 76, 60
2, 4264, Control_c, 0, 64, 68
2, 4285, Control_c, 0, 64, 67
2, 4297, Note_on_c, 0, 55, 0
2, 4302, Control_c, 0, 64, 66
2, 4320, Control_c, 0, 64, 65
2, 4341, Control_c, 0, 64, 64
2, 4360, Note_on_c, 0, 76, 0
2, 4364, Control_c, 0, 64, 63
2, 4380, Control_c, 0, 64, 62
2, 4384, Note_on_c, 0, 75, 58
2, 4395, Note_on_c, 0, 59, 35
2, 4416, Control_c, 0, 64, 61
2, 4437, Note_on_c, 0, 57, 0
2, 4442, Control_c, 0, 64, 60
2, 4454, Control_c, 0, 64, 59
2, 4475, Control_c, 0, 64, 58
2, 4479, Note_on_c, 0, 75, 0
2, 4492, Control_c, 0, 64, 57
2, 4501, Note_on_c, 0, 76, 62
2, 4533, Control_c, 0, 64, 56
2, 4589, Control_c, 0, 64, 54
2, 4589, Note_on_c, 0, 76, 0
2, 4610, Control_c, 0, 64, 51
2, 4610, Note_on_c, 0, 78, 65
2, 4629, Control_c, 0, 64, 46
2, 4649, Control_c, 0, 64, 36
2, 4649, Note_on_c, 0, 57, 33
2, 4654, Note_on_c, 0, 59, 0
2, 4665, Control_c, 0, 64, 22
2, 4685, Control_c, 0, 64, 0
2, 4707, Note_on_c, 0, 78, 0
2, 4726, Note_on_c, 0, 76, 64
2, 4801, Control_c, 0, 64, 11
2, 4818, Control_c, 0, 64, 21
2, 4840, Control_c, 0, 64, 30
2, 4845, Note_on_c, 0, 76, 0
2, 4854, Note_on_c, 0, 78, 66
2, 4859, Control_c, 0, 64, 37
2, 4876, Note_on_c, 0, 59, 40
2, 4880, Control_c, 0, 64, 44
2, 4896, Control_c, 0, 64, 49
2, 4918, Control_c, 0, 64, 53
2, 4927, Note_on_c, 0, 57, 0
2, 4936, Control_c, 0, 64, 56
2, 4954, Note_on_c, 0, 78, 0
2, 4959, Control_c, 0, 64, 57
2, 4974, Control_c, 0, 64, 58
2, 4974, Control_c, 0, 67, 99
2, 4989, Note_on_c, 0, 76, 57
2, 4994, Control_c, 0, 64, 59
2, 5011, Control_c, 0, 64, 60
2, 5030, Control_c, 0, 64, 61
2, 5071, Control_c, 0, 64, 62
2, 5082, Note_on_c, 0, 76, 0
2, 5102, Note_on_c, 0, 78, 64
2, 5109, Control_c, 0, 64, 63
2, 5109, Control_c, 0, 67, 100
2, 5127, Control_c, 0, 64, 64
2, 5132, Note_on_c, 0, 57, 34
2, 5167, Control_c, 0, 64, 65
2, 5181, Note_on_c, 0, 59, 0
2, 5203, Control_c, 0, 64, 66
2, 5214, Note_on_c, 0, 78, 0
2, 5224, Note_on_c, 0, 76, 68
2, 5228, Control_c, 0, 64, 67
2, 5242, Control_c, 0, 64, 68
2, 5264, Control_c, 0, 64, 69
2, 5264, Control_c, 0, 67, 101
2, 5279, Control_c, 0, 64, 70
2, 5321, Control_c, 0, 64, 71
2, 5326, Note_on_c, 0, 67, 0
2, 5334, Note_on_c, 0, 76, 0
2, 5339, Control_c, 0, 64, 72
2, 5343, Note_on_c, 0, 75, 64
2, 5376, Note_on_c, 0, 55, 38
2, 5399, Control_c, 0, 64, 73
2, 5403, Note_on_c, 0, 52, 0
2, 5461, Note_on_c, 0, 75, 0
2, 5470, Note_on_c, 0, 76, 73
2, 5475, Control_c, 0, 64, 72
2, 5475, Note_on_c, 0, 57, 0
2, 5569, Control_c, 0, 64, 71
2, 5589, Control_c, 0, 64, 70
2, 5625, Control_c, 0, 64, 68
2, 5644, Control_c, 0, 64, 67
2, 5666, Control_c, 0, 64, 65
2, 5666, Note_on_c, 0, 78, 73
2, 5685, Control_c, 0, 64, 63
2, 5690, Note_on_c, 0, 52, 43
2, 5694, Note_on_c, 0, 69, 41
2, 5703, Control_c, 0, 64, 61
2, 5707, Note_on_c, 0, 72, 38
2, 5718, Note_on_c, 0, 55, 0
2, 5723, Control_c, 0, 64, 60
2, 5727, Note_on_c, 0, 76, 0
2, 5741, Control_c, 0, 64, 59
2, 5760, Control_c, 0, 64, 58
2, 5780, Control_c, 0, 64, 57
2, 5799, Control_c, 0, 64, 56
2, 5817, Control_c, 0, 64, 55
2, 5836, Control_c, 0, 64, 54
2, 5856, Control_c, 0, 64, 53
2, 5877, Control_c, 0, 64, 51
2, 5897, Control_c, 0, 64, 50
2, 5913, Control_c, 0, 64, 48
2, 5933, Control_c, 0, 64, 46
2, 5954, Control_c, 0, 64, 44
2, 5973, Control_c, 0, 64, 43
2, 5978, Note_on_c, 0, 57, 39
2, 5991, Control_c, 0, 64, 42
2, 6029, Control_c, 0, 64, 41
2, 6066, Control_c, 0, 64, 40
2, 6126, Control_c, 0, 64, 39
2, 6232, Note_on_c, 0, 59, 36
2, 6262, Control_c, 0, 64, 38
2, 6291, Note_on_c, 0, 57, 0
2, 6488, Note_on_c, 0, 60, 37
2, 6512, Note_on_c, 0, 59, 0
2, 6737, Note_on_c, 0, 60, 0
2, 6742, Control_c, 0, 64, 39
2, 6755, Note_on_c, 0, 59, 36
2, 6760, Control_c, 0, 64, 40
2, 6777, Control_c, 0, 64, 42
2, 6797, Control_c, 0, 64, 43
2, 6819, Control_c, 0, 64, 46
2, 6836, Control_c, 0, 64, 47
2, 6854, Control_c, 0, 64, 50
2, 6873, Control_c, 0, 64, 52
2, 6893, Control_c, 0, 64, 53
2, 6915, Control_c, 0, 64, 54
2, 6952, Control_c, 0, 64, 55
2, 6989, Control_c, 0, 64, 56
2, 7008, Control_c, 0, 64, 57
2, 7017, Note_on_c, 0, 60, 33
2, 7026, Control_c, 0, 64, 58
2, 7032, Note_on_c, 0, 59, 0
2, 7066, Control_c, 0, 64, 59
2, 7085, Control_c, 0, 64, 60
2, 7122, Control_c, 0, 64, 61
2, 7143, Control_c, 0, 64, 62
2, 7201, Control_c, 0, 64, 63
2, 7258, Control_c, 0, 64, 64
2, 7270, Note_on_c, 0, 60, 0
2, 7272, Note_on_c, 0, 72, 0
2, 7281, Note_on_c, 0, 59, 24
2, 7285, Note_on_c, 0, 69, 0
2, 7295, Control_c, 0, 64, 65
2, 7315, Control_c, 0, 64, 66
2, 7335, Control_c, 0, 64, 67
2, 7355, Control_c, 0, 64, 68
2, 7372, Control_c, 0, 64, 70
2, 7393, Control_c, 0, 64, 72
2, 7412, Control_c, 0, 64, 73
2, 7434, Control_c, 0, 64, 74
2, 7450, Control_c, 0, 64, 75
2, 7490, Control_c, 0, 64, 76
2, 7519, Note_on_c, 0, 57, 38
2, 7545, Note_on_c, 0, 52, 0
2, 7680, Control_c, 0, 64, 75
2, 7720, Control_c, 0, 64, 74
2, 7738, Control_c, 0, 64, 73
2, 7758, Control_c, 0, 64, 72
2, 7776, Control_c, 0, 64, 70
2, 7784, Note_on_c, 0, 72, 46
2, 7794, Note_on_c, 0, 69, 36
2, 7798, Control_c, 0, 64, 68
2, 7809, Note_on_c, 0, 52, 35
2, 7818, Control_c, 0, 64, 66
2, 7830, Note_on_c, 0, 57, 0
2, 7830, Note_on_c, 0, 59, 0
2, 7835, Control_c, 0, 64, 64
2, 7853, Control_c, 0, 64, 63
2, 7873, Control_c, 0, 64, 62
2, 7892, Control_c, 0, 64, 61
2, 7912, Control_c, 0, 64, 60
2, 7931, Control_c, 0, 64, 59
2, 7968, Control_c, 0, 64, 58
2, 8005, Control_c, 0, 64, 57
2, 8045, Control_c, 0, 64, 56
2, 8068, Note_on_c, 0, 57, 28
2, 8106, Control_c, 0, 64, 55
2, 8160, Control_c, 0, 64, 54
2, 8220, Control_c, 0, 64, 53
2, 8335, Note_on_c, 0, 59, 35
2, 8354, Control_c, 0, 64, 52
2, 8415, Note_on_c, 0, 57, 0
2, 8449, Control_c, 0, 64, 51
2, 8525, Control_c, 0, 64, 50
2, 8590, Note_on_c, 0, 60, 34
2, 8636, Note_on_c, 0, 59, 0
2, 8680, Control_c, 0, 64, 49
2, 8754, Control_c, 0, 64, 48
2, 8794, Control_c, 0, 64, 47
2, 8832, Control_c, 0, 64, 46
2, 8859, Note_on_c, 0, 59, 39
2, 8894, Note_on_c, 0, 60, 0
2, 8929, Control_c, 0, 64, 47
2, 8951, Control_c, 0, 64, 48
2, 8966, Control_c, 0, 64, 49
2, 8987, Control_c, 0, 64, 51
2, 9005, Control_c, 0, 64, 53
2, 9026, Control_c, 0, 64, 54
2, 9046, Control_c, 0, 64, 55
2, 9084, Control_c, 0, 64, 56
2, 9084, Control_c, 0, 67, 100
2, 9102, Control_c, 0, 64, 57
2, 9122, Control_c, 0, 64, 58
2, 9122, Note_on_c, 0, 60, 38
2, 9126, Note_on_c, 0, 69, 0
2, 9155, Note_on_c, 0, 59, 0
2, 9159, Control_c, 0, 64, 59
2, 9180, Control_c, 0, 64, 60
2, 9217, Control_c, 0, 64, 61
2, 9217, Note_on_c, 0, 72, 0
2, 9256, Control_c, 0, 64, 62
2, 9256, Control_c, 0, 67, 99
2, 9311, Control_c, 0, 64, 63
2, 9396, Note_on_c, 0, 59, 37
2, 9431, Control_c, 0, 64, 64
2, 9465, Note_on_c, 0, 60, 0
2, 9486, Control_c, 0, 64, 65
2, 9486, Control_c, 0, 67, 98
2, 9503, Control_c, 0, 64, 66
2, 9544, Control_c, 0, 64, 67
2, 9564, Control_c, 0, 64, 68
2, 9582, Control_c, 0, 64, 69
2, 9603, Control_c, 0, 64, 70
2, 9627, Note_on_c, 0, 57, 50
2, 9671, Note_on_c, 0, 52, 0
2, 9680, Control_c, 0, 64, 69
2, 9734, Control_c, 0, 64, 68
2, 9774, Control_c, 0, 64, 67
2, 9793, Control_c, 0, 64, 66
2, 9813, Control_c, 0, 64, 65
2, 9853, Control_c, 0, 64, 64
2, 9891, Control_c, 0, 64, 63
2, 9908, Control_c, 0, 64, 60
2, 9912, Control_c, 0, 67, 99
2, 9921, Note_on_c, 0, 72, 52
2, 9925, Note_on_c, 0, 69, 36
2, 9929, Control_c, 0, 64, 54
2, 9942, Note_on_c, 0, 51, 43
2, 9942, Note_on_c, 0, 57, 0
2, 9947, Control_c, 0, 64, 45
2, 9962, Note_on_c, 0, 59, 0
2, 9966, Control_c, 0, 64, 33
2, 9987, Control_c, 0, 64, 27
2, 10004, Control_c, 0, 64, 29
2, 10022, Control_c, 0, 64, 36
2, 10041, Control_c, 0, 64, 43
2, 10063, Control_c, 0, 64, 49
2, 10077, Note_on_c, 0, 72, 0
2, 10082, Control_c, 0, 64, 53
2, 10101, Control_c, 0, 64, 55
2, 10158, Control_c, 0, 64, 54
2, 10175, Control_c, 0, 64, 52
2, 10189, Note_on_c, 0, 76, 61
2, 10197, Control_c, 0, 64, 50
2, 10197, Note_on_c, 0, 57, 44
2, 10208, Note_on_c, 0, 78, 0
2, 10217, Control_c, 0, 64, 46
2, 10235, Control_c, 0, 64, 44
2, 10253, Control_c, 0, 64, 43
2, 10271, Control_c, 0, 64, 44
2, 10294, Control_c, 0, 64, 45
2, 10299, Note_on_c, 0, 69, 0
2, 10311, Control_c, 0, 64, 46
2, 10331, Control_c, 0, 64, 48
2, 10333, Control_c, 0, 67, 100
2, 10348, Control_c, 0, 64, 50
2, 10370, Control_c, 0, 64, 51
2, 10390, Control_c, 0, 64, 52
2, 10426, Control_c, 0, 64, 51
2, 10444, Control_c, 0, 64, 49
2, 10448, Note_on_c, 0, 75, 63
2, 10457, Note_on_c, 0, 59, 52
2, 10464, Control_c, 0, 64, 46
2, 10483, Control_c, 0, 64, 45
2, 10495, Note_on_c, 0, 76, 0
2, 10523, Control_c, 0, 64, 46
2, 10523, Note_on_c, 0, 57, 0
2, 10542, Control_c, 0, 64, 47
2, 10560, Control_c, 0, 64, 48
2, 10578, Control_c, 0, 64, 49
2, 10598, Control_c, 0, 64, 50
2, 10688, Note_on_c, 0, 76, 70
2, 10697, Note_on_c, 0, 60, 47
2, 10728, Note_on_c, 0, 59, 0
2, 10782, Note_on_c, 0, 75, 0
2, 10869, Note_on_c, 0, 76, 0
2, 10909, Control_c, 0, 64, 49
2, 10926, Control_c, 0, 64, 45
2, 10943, Control_c, 0, 64, 33
2, 10955, Note_on_c, 0, 59, 46
2, 10959, Note_on_c, 0, 78, 73
2, 10964, Control_c, 0, 64, 15
2, 10984, Control_c, 0, 64, 0
2, 10999, Note_on_c, 0, 60, 0
2, 11021, Control_c, 0, 67, 99
2, 11060, Control_c, 0, 64, 24
2, 11078, Control_c, 0, 64, 39
2, 11098, Control_c, 0, 64, 48
2, 11119, Control_c, 0, 64, 54
2, 11137, Control_c, 0, 64, 56
2, 11155, Control_c, 0, 64, 57
2, 11194, Control_c, 0, 64, 58
2, 11209, Note_on_c, 0, 76, 74
2, 11224, Note_on_c, 0, 60, 48
2, 11277, Note_on_c, 0, 59, 0
2, 11352, Note_on_c, 0, 78, 0
2, 11356, Note_on_c, 0, 76, 0
2, 11367, Control_c, 0, 64, 59
2, 11407, Control_c, 0, 64, 58
2, 11425, Control_c, 0, 64, 54
2, 11444, Control_c, 0, 64, 47
2, 11461, Control_c, 0, 64, 37
2, 11472, Note_on_c, 0, 79, 80
2, 11477, Note_on_c, 0, 59, 46
2, 11481, Control_c, 0, 64, 28
2, 11500, Control_c, 0, 64, 27
2, 11521, Control_c, 0, 64, 31
2, 11540, Control_c, 0, 64, 39
2, 11559, Control_c, 0, 64, 48
2, 11581, Control_c, 0, 64, 55
2, 11581, Note_on_c, 0, 60, 0
2, 11598, Control_c, 0, 64, 58
2, 11618, Control_c, 0, 64, 59
2, 11635, Control_c, 0, 64, 60
2, 11655, Control_c, 0, 64, 61
2, 11675, Control_c, 0, 64, 62
2, 11693, Control_c, 0, 64, 64
2, 11717, Note_on_c, 0, 78, 79
2, 11732, Control_c, 0, 64, 65
2, 11736, Note_on_c, 0, 57, 48
2, 11752, Control_c, 0, 64, 66
2, 11769, Note_on_c, 0, 51, 0
2, 11783, Note_on_c, 0, 79, 0
2, 11807, Control_c, 0, 64, 67
2, 11865, Control_c, 0, 64, 66
2, 11876, Note_on_c, 0, 78, 0
2, 11944, Control_c, 0, 64, 65
2, 12002, Control_c, 0, 64, 64
2, 12034, Note_on_c, 0, 81, 75
2, 12038, Control_c, 0, 64, 63
2, 12047, Note_on_c, 0, 51, 42
2, 12061, Control_c, 0, 64, 61
2, 12081, Control_c, 0, 64, 58
2, 12081, Note_on_c, 0, 71, 45
2, 12085, Note_on_c, 0, 57, 0
2, 12085, Note_on_c, 0, 78, 34
2, 12098, Control_c, 0, 64, 53
2, 12116, Control_c, 0, 64, 47
2, 12120, Note_on_c, 0, 59, 0
2, 12137, Control_c, 0, 64, 35
2, 12157, Control_c, 0, 64, 17
2, 12173, Control_c, 0, 64, 0
2, 12211, Control_c, 0, 64, 14
2, 12231, Control_c, 0, 64, 27
2, 12248, Control_c, 0, 64, 41
2, 12267, Control_c, 0, 64, 53
2, 12292, Control_c, 0, 64, 60
2, 12292, Control_c, 0, 67, 100
2, 12307, Control_c, 0, 64, 63
2, 12321, Note_on_c, 0, 57, 37
2, 12345, Control_c, 0, 64, 64
2, 12368, Control_c, 0, 64, 65
2, 12384, Control_c, 0, 64, 67
2, 12406, Control_c, 0, 64, 70
2, 12425, Control_c, 0, 64, 74
2, 12442, Control_c, 0, 64, 80
2, 12460, Control_c, 0, 64, 83
2, 12481, Control_c, 0, 64, 85
2, 12501, Control_c, 0, 64, 86
2, 12518, Control_c, 0, 64, 87
2, 12527, Note_on_c, 0, 71, 0
2, 12581, Note_on_c, 0, 59, 42
2, 12581, Note_on_c, 0, 78, 0
2, 12674, Control_c, 0, 64, 86
2, 12698, Note_on_c, 0, 57, 0
2, 12712, Control_c, 0, 64, 85
2, 12732, Control_c, 0, 64, 84
2, 12748, Control_c, 0, 64, 83
2, 12768, Control_c, 0, 64, 82
2, 12787, Control_c, 0, 64, 81
2, 12806, Control_c, 0, 64, 80
2, 12827, Note_on_c, 0, 60, 45
2, 12831, Control_c, 0, 64, 78
2, 12846, Control_c, 0, 64, 76
2, 12865, Control_c, 0, 64, 74
2, 12884, Control_c, 0, 64, 73
2, 12890, Note_on_c, 0, 59, 0
2, 12902, Control_c, 0, 64, 71
2, 12922, Control_c, 0, 64, 70
2, 12943, Control_c, 0, 64, 68
2, 12962, Control_c, 0, 64, 67
2, 12979, Control_c, 0, 64, 66
2, 12999, Control_c, 0, 64, 65
2, 13019, Control_c, 0, 64, 64
2, 13039, Control_c, 0, 64, 63
2, 13078, Control_c, 0, 64, 62
2, 13093, Note_on_c, 0, 59, 40
2, 13098, Control_c, 0, 64, 61
2, 13104, Note_on_c, 0, 60, 0
2, 13116, Control_c, 0, 64, 60
2, 13133, Control_c, 0, 64, 59
2, 13151, Control_c, 0, 64, 58
2, 13170, Control_c, 0, 64, 57
2, 13190, Control_c, 0, 64, 56
2, 13211, Control_c, 0, 64, 55
2, 13211, Note_on_c, 0, 81, 0
2, 13227, Note_on_c, 0, 84, 62
2, 13232, Control_c, 0, 64, 53
2, 13250, Control_c, 0, 64, 52
2, 13268, Control_c, 0, 64, 50
2, 13287, Control_c, 0, 64, 46
2, 13306, Control_c, 0, 64, 43
2, 13324, Control_c, 0, 64, 37
2, 13346, Note_on_c, 0, 83, 61
2, 13348, Control_c, 0, 64, 28
2, 13364, Control_c, 0, 64, 15
2, 13368, Note_on_c, 0, 84, 0
2, 13383, Control_c, 0, 64, 0
2, 13385, Note_on_c, 0, 59, 0
2, 13395, Note_on_c, 0, 60, 38
2, 13457, Note_on_c, 0, 81, 64
2, 13499, Note_on_c, 0, 83, 0
2, 13575, Control_c, 0, 64, 18
2, 13586, Note_on_c, 0, 79, 71
2, 13593, Control_c, 0, 64, 31
2, 13601, Note_on_c, 0, 81, 0
2, 13614, Control_c, 0, 64, 42
2, 13623, Note_on_c, 0, 59, 39
2, 13632, Control_c, 0, 64, 50
2, 13643, Note_on_c, 0, 60, 0
2, 13654, Control_c, 0, 64, 57
2, 13669, Control_c, 0, 64, 60
2, 13693, Control_c, 0, 64, 61
2, 13693, Control_c, 0, 67, 99
2, 13708, Control_c, 0, 64, 63
2, 13728, Control_c, 0, 64, 64
2, 13748, Control_c, 0, 64, 65
2, 13752, Note_on_c, 0, 79, 0
2, 13768, Control_c, 0, 64, 66
2, 13785, Control_c, 0, 64, 68
2, 13804, Control_c, 0, 64, 70
2, 13813, Note_on_c, 0, 51, 0
2, 13827, Control_c, 0, 64, 72
2, 13843, Control_c, 0, 64, 74
2, 13863, Control_c, 0, 64, 76
2, 13868, Note_on_c, 0, 81, 61
2, 13882, Control_c, 0, 64, 78
2, 13889, Note_on_c, 0, 57, 40
2, 13902, Control_c, 0, 64, 80
2, 13918, Control_c, 0, 64, 83
2, 13941, Control_c, 0, 64, 85
2, 13941, Control_c, 0, 67, 98
2, 13959, Control_c, 0, 64, 86
2, 13981, Control_c, 0, 64, 87
2, 13986, Note_on_c, 0, 81, 0
2, 13993, Note_on_c, 0, 59, 0
2, 13993, Note_on_c, 0, 78, 64
2, 14038, Note_on_c, 0, 78, 0
2, 14091, Control_c, 0, 64, 86
2, 14131, Control_c, 0, 64, 85
2, 14150, Control_c, 0, 64, 83
2, 14161, Note_on_c, 0, 79, 67
2, 14172, Control_c, 0, 64, 81
2, 14184, Note_on_c, 0, 52, 41
2, 14193, Control_c, 0, 64, 78
2, 14204, Note_on_c, 0, 57, 0
2, 14206, Note_on_c, 0, 71, 40
2, 14210, Control_c, 0, 64, 73
2, 14226, Control_c, 0, 64, 69
2, 14238, Note_on_c, 0, 76, 37
2, 14249, Control_c, 0, 64, 65
2, 14266, Control_c, 0, 64, 62
2, 14284, Control_c, 0, 64, 61
2, 14304, Control_c, 0, 64, 60
2, 14323, Control_c, 0, 64, 59
2, 14360, Control_c, 0, 64, 58
2, 14382, Control_c, 0, 67, 99
2, 14400, Control_c, 0, 64, 57
2, 14440, Control_c, 0, 64, 56
2, 14479, Control_c, 0, 64, 55
2, 14498, Note_on_c, 0, 55, 20
2, 14516, Control_c, 0, 64, 54
2, 14554, Control_c, 0, 64, 53
2, 14574, Control_c, 0, 64, 52
2, 14613, Control_c, 0, 64, 51
2, 14651, Control_c, 0, 64, 50
2, 14668, Control_c, 0, 64, 49
2, 14692, Control_c, 0, 64, 48
2, 14729, Control_c, 0, 64, 47
2, 14738, Note_on_c, 0, 57, 37
2, 14786, Control_c, 0, 64, 46
2, 14839, Note_on_c, 0, 55, 0
2, 14844, Control_c, 0, 64, 45
2, 14880, Control_c, 0, 64, 44
2, 14917, Control_c, 0, 64, 43
2, 14937, Control_c, 0, 64, 42
2, 14956, Control_c, 0, 64, 41
2, 14975, Control_c, 0, 64, 39
2, 14997, Control_c, 0, 64, 38
2, 15006, Note_on_c, 0, 59, 41
2, 15015, Control_c, 0, 64, 37
2, 15035, Control_c, 0, 64, 35
2, 15035, Control_c, 0, 67, 100
2, 15055, Control_c, 0, 64, 34
2, 15068, Note_on_c, 0, 57, 0
2, 15072, Control_c, 0, 64, 33
2, 15092, Control_c, 0, 64, 32
2, 15113, Control_c, 0, 64, 31
2, 15149, Control_c, 0, 64, 30
2, 15267, Control_c, 0, 64, 31
2, 15267, Note_on_c, 0, 57, 37
2, 15282, Control_c, 0, 64, 32
2, 15291, Note_on_c, 0, 59, 0
2, 15301, Control_c, 0, 64, 34
2, 15322, Control_c, 0, 64, 37
2, 15339, Control_c, 0, 64, 40
2, 15360, Control_c, 0, 64, 44
2, 15378, Control_c, 0, 64, 48
2, 15398, Control_c, 0, 64, 52
2, 15418, Control_c, 0, 64, 54
2, 15436, Control_c, 0, 64, 55
2, 15456, Control_c, 0, 64, 56
2, 15476, Control_c, 0, 64, 57
2, 15495, Control_c, 0, 64, 58
2, 15514, Control_c, 0, 64, 59
2, 15537, Control_c, 0, 64, 60
2, 15537, Note_on_c, 0, 59, 39
2, 15563, Note_on_c, 0, 57, 0
2, 15573, Control_c, 0, 64, 61
2, 15608, Control_c, 0, 64, 62
2, 15652, Control_c, 0, 67, 99
2, 15652, Note_on_c, 0, 76, 0
2, 15685, Control_c, 0, 64, 63
2, 15694, Note_on_c, 0, 71, 0
2, 15763, Control_c, 0, 64, 64
2, 15800, Note_on_c, 0, 57, 39
2, 15853, Note_on_c, 0, 59, 0
2, 15862, Control_c, 0, 64, 65
2, 15899, Control_c, 0, 64, 66
2, 15918, Control_c, 0, 64, 67
2, 15938, Control_c, 0, 64, 68
2, 15955, Control_c, 0, 64, 70
2, 15974, Control_c, 0, 64, 71
2, 15993, Control_c, 0, 64, 72
2, 16013, Control_c, 0, 64, 73
2, 16051, Note_on_c, 0, 55, 40
2, 16077, Note_on_c, 0, 52, 0
2, 16129, Control_c, 0, 64, 72
2, 16184, Control_c, 0, 64, 71
2, 16223, Control_c, 0, 64, 70
2, 16242, Control_c, 0, 64, 69
2, 16261, Control_c, 0, 64, 68
2, 16282, Control_c, 0, 64, 67
2, 16301, Control_c, 0, 64, 66
2, 16321, Control_c, 0, 64, 63
2, 16336, Note_on_c, 0, 76, 51
2, 16341, Control_c, 0, 64, 58
2, 16352, Note_on_c, 0, 71, 29
2, 16360, Note_on_c, 0, 52, 41
2, 16362, Control_c, 0, 64, 51
2, 16372, Note_on_c, 0, 55, 0
2, 16379, Control_c, 0, 64, 40
2, 16390, Note_on_c, 0, 57, 0
2, 16400, Control_c, 0, 64, 26
2, 16415, Control_c, 0, 64, 18
2, 16455, Control_c, 0, 64, 28
2, 16474, Control_c, 0, 64, 41
2, 16478, Control_c, 0, 67, 98
2, 16493, Control_c, 0, 64, 53
2, 16511, Note_on_c, 0, 79, 0
2, 16515, Control_c, 0, 64, 61
2, 16532, Control_c, 0, 64, 64
2, 16552, Control_c, 0, 64, 65
2, 16557, Note_on_c, 0, 71, 0
2, 16590, Control_c, 0, 64, 67
2, 16605, Note_on_c, 0, 55, 43
2, 16610, Control_c, 0, 64, 70
2, 16610, Note_on_c, 0, 76, 0
2, 16627, Control_c, 0, 64, 74
2, 16648, Control_c, 0, 64, 79
2, 16665, Control_c, 0, 64, 83
2, 16685, Control_c, 0, 64, 85
2, 16802, Control_c, 0, 64, 84
2, 16838, Control_c, 0, 64, 83
2, 16859, Control_c, 0, 64, 82
2, 16878, Control_c, 0, 64, 81
2, 16882, Note_on_c, 0, 84, 67
2, 16895, Control_c, 0, 64, 80
2, 16915, Note_on_c, 0, 57, 38
2, 16919, Control_c, 0, 64, 79
2, 16934, Control_c, 0, 64, 78
2, 16954, Control_c, 0, 64, 77
2, 16972, Control_c, 0, 64, 76
2, 16992, Control_c, 0, 64, 75
2, 17031, Control_c, 0, 64, 74
2, 17035, Note_on_c, 0, 55, 0
2, 17050, Control_c, 0, 64, 73
2, 17107, Control_c, 0, 64, 72
2, 17125, Control_c, 0, 64, 71
2, 17138, Note_on_c, 0, 83, 71
2, 17147, Control_c, 0, 64, 70
2, 17149, Note_on_c, 0, 59, 45
2, 17166, Control_c, 0, 64, 69
2, 17184, Control_c, 0, 64, 68
2, 17198, Note_on_c, 0, 57, 0
2, 17205, Note_on_c, 0, 84, 0
2, 17224, Control_c, 0, 64, 67
2, 17261, Control_c, 0, 64, 66
2, 17280, Control_c, 0, 64, 65
2, 17319, Control_c, 0, 64, 64
2, 17397, Control_c, 0, 64, 61
2, 17412, Note_on_c, 0, 84, 76
2, 17414, Control_c, 0, 64, 52
2, 17418, Note_on_c, 0, 59, 0
2, 17434, Control_c, 0, 64, 30
2, 17438, Note_on_c, 0, 57, 40
2, 17456, Control_c, 0, 64, 0
2, 17460, Note_on_c, 0, 83, 0
2, 17530, Control_c, 0, 64, 22
2, 17548, Control_c, 0, 64, 47
2, 17569, Control_c, 0, 64, 59
2, 17586, Control_c, 0, 64, 65
2, 17608, Control_c, 0, 64, 68
2, 17620, Note_on_c, 0, 84, 0
2, 17627, Control_c, 0, 64, 71
2, 17645, Control_c, 0, 64, 77
2, 17661, Control_c, 0, 64, 87
2, 17683, Control_c, 0, 64, 109
2, 17683, Note_on_c, 0, 59, 51
2, 17685, Note_on_c, 0, 57, 0
2, 17701, Control_c, 0, 64, 127
2, 17941, Note_on_c, 0, 76, 79
2, 17982, Note_on_c, 0, 57, 48
2, 17986, Note_on_c, 0, 59, 0
2, 18082, Note_on_c, 0, 76, 0
2, 18179, Control_c, 0, 67, 99
2, 18202, Note_on_c, 0, 55, 50
2, 18236, Note_on_c, 0, 52, 0
2, 18309, Note_on_c, 0, 57, 0
2, 18450, Control_c, 0, 64, 115
2, 18470, Control_c, 0, 64, 101
2, 18486, Control_c, 0, 64, 91
2, 18508, Control_c, 0, 64, 80
2, 18508, Note_on_c, 0, 78, 77
2, 18525, Control_c, 0, 64, 74
2, 18545, Control_c, 0, 64, 69
2, 18549, Note_on_c, 0, 52, 37
2, 18553, Note_on_c, 0, 69, 43
2, 18558, Note_on_c, 0, 72, 44
2, 18563, Control_c, 0, 64, 66
2, 18578, Note_on_c, 0, 55, 0
2, 18583, Control_c, 0, 64, 64
2, 18604, Control_c, 0, 64, 63
2, 18624, Control_c, 0, 64, 62
2, 18639, Control_c, 0, 64, 60
2, 18660, Control_c, 0, 64, 59
2, 18680, Control_c, 0, 64, 57
2, 18698, Control_c, 0, 64, 54
2, 18716, Control_c, 0, 64, 51
2, 18737, Control_c, 0, 64, 48
2, 18755, Control_c, 0, 64, 44
2, 18774, Control_c, 0, 64, 40
2, 18792, Control_c, 0, 64, 37
2, 18803, Note_on_c, 0, 54, 40
2, 18813, Control_c, 0, 64, 34
2, 18831, Control_c, 0, 64, 33
2, 18853, Control_c, 0, 67, 100
2, 18869, Control_c, 0, 64, 35
2, 18888, Control_c, 0, 64, 39
2, 18910, Control_c, 0, 64, 47
2, 18927, Control_c, 0, 64, 52
2, 18947, Control_c, 0, 64, 55
2, 18966, Control_c, 0, 64, 56
2, 19083, Note_on_c, 0, 55, 39
2, 19152, Note_on_c, 0, 54, 0
2, 19196, Control_c, 0, 64, 55
2, 19327, Note_on_c, 0, 57, 42
2, 19351, Note_on_c, 0, 55, 0
2, 19467, Control_c, 0, 64, 54
2, 19545, Control_c, 0, 64, 53
2, 19564, Control_c, 0, 64, 52
2, 19581, Control_c, 0, 64, 50
2, 19597, Note_on_c, 0, 57, 0
2, 19599, Control_c, 0, 64, 47
2, 19617, Note_on_c, 0, 55, 36
2, 19618, Control_c, 0, 64, 44
2, 19639, Control_c, 0, 64, 43
2, 19658, Control_c, 0, 64, 41
2, 19752, Control_c, 0, 64, 43
2, 19774, Control_c, 0, 64, 45
2, 19793, Control_c, 0, 64, 47
2, 19811, Control_c, 0, 64, 50
2, 19830, Control_c, 0, 64, 53
2, 19850, Control_c, 0, 64, 55
2, 19873, Control_c, 0, 64, 56
2, 19873, Note_on_c, 0, 57, 36
2, 19884, Note_on_c, 0, 55, 0
2, 19891, Control_c, 0, 64, 58
2, 19928, Control_c, 0, 64, 59
2, 19947, Control_c, 0, 64, 60
2, 19965, Control_c, 0, 64, 61
2, 19985, Control_c, 0, 64, 62
2, 20003, Control_c, 0, 64, 63
2, 20023, Control_c, 0, 64, 64
2, 20064, Control_c, 0, 64, 66
2, 20080, Control_c, 0, 64, 67
2, 20102, Control_c, 0, 64, 69
2, 20117, Control_c, 0, 64, 71
2, 20121, Note_on_c, 0, 55, 32
2, 20140, Control_c, 0, 64, 74
2, 20140, Control_c, 0, 67, 99
2, 20149, Note_on_c, 0, 57, 0
2, 20158, Control_c, 0, 64, 79
2, 20176, Control_c, 0, 64, 83
2, 20196, Control_c, 0, 64, 85
2, 20201, Note_on_c, 0, 69, 0
2, 20215, Control_c, 0, 64, 86
2, 20235, Control_c, 0, 64, 87
2, 20244, Note_on_c, 0, 72, 0
2, 20330, Control_c, 0, 64, 86
2, 20362, Note_on_c, 0, 54, 36
2, 20366, Note_on_c, 0, 52, 0
2, 20389, Control_c, 0, 64, 85
2, 20406, Control_c, 0, 64, 84
2, 20429, Control_c, 0, 64, 83
2, 20447, Control_c, 0, 64, 82
2, 20463, Control_c, 0, 64, 80
2, 20483, Control_c, 0, 64, 79
2, 20502, Control_c, 0, 64, 77
2, 20522, Control_c, 0, 64, 75
2, 20541, Control_c, 0, 64, 73
2, 20548, Note_on_c, 0, 55, 0
2, 20559, Control_c, 0, 64, 72
2, 20582, Control_c, 0, 64, 69
2, 20598, Control_c, 0, 64, 65
2, 20617, Control_c, 0, 64, 59
2, 20637, Control_c, 0, 64, 50
2, 20660, Control_c, 0, 64, 39
2, 20660, Note_on_c, 0, 71, 33
2, 20660, Note_on_c, 0, 74, 47
2, 20664, Note_on_c, 0, 50, 34
2, 20664, Note_on_c, 0, 54, 0
2, 20676, Control_c, 0, 64, 32
2, 20694, Control_c, 0, 64, 34
2, 20716, Control_c, 0, 64, 42
2, 20716, Control_c, 0, 67, 98
2, 20733, Control_c, 0, 64, 54
2, 20753, Control_c, 0, 64, 62
2, 20771, Control_c, 0, 64, 65
2, 20791, Control_c, 0, 64, 66
2, 20812, Control_c, 0, 64, 68
2, 20812, Control_c, 0, 67, 97
2, 20825, Note_on_c, 0, 71, 0
2, 20830, Control_c, 0, 64, 71
2, 20852, Control_c, 0, 64, 76
2, 20852, Note_on_c, 0, 78, 0
2, 20871, Control_c, 0, 64, 80
2, 20873, Note_on_c, 0, 74, 0
2, 20888, Control_c, 0, 64, 84
2, 20905, Control_c, 0, 64, 85
2, 20924, Control_c, 0, 64, 86
2, 20929, Note_on_c, 0, 54, 43
2, 21059, Control_c, 0, 64, 85
2, 21116, Control_c, 0, 64, 84
2, 21139, Control_c, 0, 67, 98
2, 21157, Control_c, 0, 64, 82
2, 21176, Control_c, 0, 64, 81
2, 21193, Control_c, 0, 64, 79
2, 21198, Note_on_c, 0, 83, 66
2, 21212, Control_c, 0, 64, 77
2, 21232, Control_c, 0, 64, 76
2, 21239, Note_on_c, 0, 55, 37
2, 21253, Control_c, 0, 64, 73
2, 21269, Control_c, 0, 64, 71
2, 21289, Control_c, 0, 64, 69
2, 21308, Control_c, 0, 64, 68
2, 21328, Note_on_c, 0, 54, 0
2, 21332, Control_c, 0, 64, 67
2, 21366, Control_c, 0, 64, 66
2, 21405, Control_c, 0, 64, 65
2, 21444, Control_c, 0, 64, 64
2, 21468, Note_on_c, 0, 57, 39
2, 21490, Note_on_c, 0, 55, 0
2, 21542, Control_c, 0, 64, 63
2, 21579, Control_c, 0, 64, 62
2, 21618, Control_c, 0, 64, 61
2, 21674, Control_c, 0, 64, 60
2, 21694, Control_c, 0, 64, 59
2, 21694, Control_c, 0, 67, 99
2, 21732, Control_c, 0, 64, 58
2, 21743, Note_on_c, 0, 55, 42
2, 21749, Note_on_c, 0, 57, 0
2, 21771, Control_c, 0, 64, 57
2, 21791, Control_c, 0, 64, 56
2, 21825, Note_on_c, 0, 83, 0
2, 21829, Control_c, 0, 64, 55
2, 21829, Note_on_c, 0, 84, 62
2, 21847, Control_c, 0, 64, 54
2, 21864, Control_c, 0, 64, 53
2, 21904, Control_c, 0, 64, 52
2, 21926, Control_c, 0, 64, 51
2, 21945, Control_c, 0, 64, 50
2, 21945, Control_c, 0, 67, 100
2, 21965, Control_c, 0, 64, 49
2, 21969, Note_on_c, 0, 83, 67
2, 21980, Control_c, 0, 64, 46
2, 21984, Note_on_c, 0, 84, 0
2, 21993, Note_on_c, 0, 57, 46
2, 22000, Control_c, 0, 64, 43
2, 22017, Note_on_c, 0, 55, 0
2, 22021, Control_c, 0, 64, 37
2, 22038, Control_c, 0, 64, 29
2, 22058, Control_c, 0, 64, 12
2, 22072, Note_on_c, 0, 81, 69
2, 22072, Note_on_c, 0, 83, 0
2, 22076, Control_c, 0, 64, 0
2, 22199, Note_on_c, 0, 81, 0
2, 22210, Note_on_c, 0, 83, 67
2, 22227, Note_on_c, 0, 55, 37
2, 22241, Note_on_c, 0, 57, 0
2, 22249, Control_c, 0, 67, 99
2, 22272, Control_c, 0, 64, 24
2, 22287, Control_c, 0, 64, 35
2, 22309, Control_c, 0, 64, 44
2, 22321, Note_on_c, 0, 79, 70
2, 22328, Control_c, 0, 64, 52
2, 22333, Note_on_c, 0, 83, 0
2, 22346, Control_c, 0, 64, 58
2, 22366, Control_c, 0, 64, 61
2, 22386, Control_c, 0, 64, 62
2, 22386, Control_c, 0, 67, 98
2, 22404, Control_c, 0, 64, 63
2, 22422, Control_c, 0, 64, 64
2, 22441, Control_c, 0, 64, 65
2, 22460, Control_c, 0, 64, 66
2, 22476, Note_on_c, 0, 54, 41
2, 22476, Note_on_c, 0, 81, 62
2, 22485, Control_c, 0, 64, 69
2, 22485, Note_on_c, 0, 50, 0
2, 22494, Note_on_c, 0, 79, 0
2, 22499, Control_c, 0, 64, 73
2, 22519, Control_c, 0, 64, 78
2, 22537, Control_c, 0, 64, 82
2, 22557, Control_c, 0, 64, 86
2, 22571, Note_on_c, 0, 55, 0
2, 22575, Control_c, 0, 64, 89
2, 22595, Control_c, 0, 64, 91
2, 22604, Note_on_c, 0, 83, 67
2, 22613, Note_on_c, 0, 81, 0
2, 22616, Control_c, 0, 64, 92
2, 22636, Control_c, 0, 64, 93
2, 22647, Note_on_c, 0, 83, 0
2, 22652, Control_c, 0, 64, 94
2, 22748, Control_c, 0, 64, 93
2, 22767, Control_c, 0, 64, 91
2, 22789, Control_c, 0, 64, 89
2, 22809, Control_c, 0, 64, 86
2, 22809, Note_on_c, 0, 50, 35
2, 22826, Control_c, 0, 64, 82
2, 22835, Note_on_c, 0, 76, 71
2, 22847, Control_c, 0, 64, 77
2, 22865, Control_c, 0, 64, 72
2, 22880, Note_on_c, 0, 67, 38
2, 22885, Control_c, 0, 64, 68
2, 22894, Note_on_c, 0, 71, 25
2, 22904, Control_c, 0, 64, 64
2, 22923, Control_c, 0, 64, 63
2, 22939, Note_on_c, 0, 54, 0
2, 22943, Control_c, 0, 64, 62
2, 22961, Control_c, 0, 64, 61
2, 22979, Control_c, 0, 64, 60
2, 22999, Control_c, 0, 64, 59
2, 23018, Control_c, 0, 64, 58
2, 23037, Control_c, 0, 64, 57
2, 23056, Control_c, 0, 64, 56
2, 23076, Control_c, 0, 64, 55
2, 23094, Control_c, 0, 64, 54
2, 23121, Note_on_c, 0, 52, 38
2, 23132, Control_c, 0, 64, 53
2, 23171, Control_c, 0, 64, 52
2, 23191, Control_c, 0, 64, 51
2, 23228, Control_c, 0, 64, 50
2, 23287, Control_c, 0, 67, 99
2, 23304, Control_c, 0, 64, 49
2, 23398, Note_on_c, 0, 54, 33
2, 23418, Note_on_c, 0, 52, 0
2, 23440, Control_c, 0, 64, 48
2, 23518, Control_c, 0, 64, 47
2, 23639, Note_on_c, 0, 55, 36
2, 23672, Control_c, 0, 64, 46
2, 23676, Note_on_c, 0, 54, 0
2, 23922, Note_on_c, 0, 54, 30
2, 23927, Note_on_c, 0, 55, 0
2, 23978, Control_c, 0, 64, 47
2, 23999, Control_c, 0, 64, 48
2, 24016, Control_c, 0, 64, 49
2, 24034, Control_c, 0, 64, 50
2, 24054, Control_c, 0, 64, 51
2, 24075, Control_c, 0, 64, 52
2, 24092, Control_c, 0, 64, 54
2, 24114, Control_c, 0, 64, 55
2, 24132, Control_c, 0, 64, 56
2, 24170, Control_c, 0, 64, 57
2, 24181, Note_on_c, 0, 55, 39
2, 24210, Control_c, 0, 64, 58
2, 24214, Note_on_c, 0, 54, 0
2, 24231, Control_c, 0, 64, 59
2, 24265, Control_c, 0, 64, 60
2, 24285, Control_c, 0, 64, 61
2, 24323, Control_c, 0, 64, 62
2, 24363, Control_c, 0, 64, 63
2, 24382, Control_c, 0, 64, 64
2, 24419, Control_c, 0, 64, 65
2, 24437, Control_c, 0, 64, 67
2, 24459, Control_c, 0, 64, 68
2, 24459, Note_on_c, 0, 54, 36
2, 24477, Control_c, 0, 64, 70
2, 24495, Control_c, 0, 64, 73
2, 24511, Note_on_c, 0, 55, 0
2, 24515, Control_c, 0, 64, 75
2, 24535, Control_c, 0, 64, 78
2, 24551, Control_c, 0, 64, 82
2, 24574, Control_c, 0, 64, 87
2, 24593, Control_c, 0, 64, 89
2, 24598, Note_on_c, 0, 67, 0
2, 24602, Note_on_c, 0, 71, 0
2, 24611, Control_c, 0, 64, 90
2, 24680, Note_on_c, 0, 50, 0
2, 24689, Control_c, 0, 64, 89
2, 24716, Note_on_c, 0, 52, 38
2, 24726, Control_c, 0, 64, 88
2, 24746, Control_c, 0, 64, 86
2, 24764, Control_c, 0, 64, 85
2, 24783, Control_c, 0, 64, 83
2, 24805, Control_c, 0, 64, 81
2, 24824, Control_c, 0, 64, 78
2, 24841, Control_c, 0, 64, 74
2, 24861, Control_c, 0, 64, 71
2, 24882, Control_c, 0, 64, 68
2, 24898, Control_c, 0, 64, 66
2, 24918, Control_c, 0, 64, 65
2, 24938, Control_c, 0, 64, 64
2, 24960, Control_c, 0, 64, 60
2, 24978, Control_c, 0, 64, 51
2, 24989, Note_on_c, 0, 69, 29
2, 24989, Note_on_c, 0, 72, 46
2, 24998, Control_c, 0, 64, 37
2, 24998, Control_c, 0, 67, 98
2, 25007, Note_on_c, 0, 52, 0
2, 25015, Control_c, 0, 64, 22
2, 25015, Note_on_c, 0, 48, 32
2, 25034, Control_c, 0, 64, 20
2, 25054, Control_c, 0, 64, 24
2, 25060, Note_on_c, 0, 54, 0
2, 25075, Control_c, 0, 64, 36
2, 25093, Control_c, 0, 64, 48
2, 25113, Control_c, 0, 64, 59
2, 25113, Control_c, 0, 67, 97
2, 25131, Control_c, 0, 64, 62
2, 25131, Note_on_c, 0, 72, 0
2, 25149, Control_c, 0, 64, 63
2, 25177, Note_on_c, 0, 69, 0
2, 25190, Control_c, 0, 64, 64
2, 25228, Control_c, 0, 64, 65
2, 25245, Control_c, 0, 64, 66
2, 25264, Control_c, 0, 64, 67
2, 25277, Note_on_c, 0, 72, 62
2, 25286, Note_on_c, 0, 52, 39
2, 25359, Control_c, 0, 64, 66
2, 25458, Control_c, 0, 64, 65
2, 25514, Control_c, 0, 64, 64
2, 25525, Note_on_c, 0, 69, 64
2, 25541, Note_on_c, 0, 54, 43
2, 25547, Note_on_c, 0, 72, 0
2, 25552, Control_c, 0, 64, 63
2, 25593, Control_c, 0, 64, 62
2, 25611, Control_c, 0, 64, 61
2, 25611, Control_c, 0, 67, 98
2, 25628, Control_c, 0, 64, 60
2, 25650, Control_c, 0, 64, 59
2, 25650, Note_on_c, 0, 52, 0
2, 25706, Control_c, 0, 64, 58
2, 25725, Control_c, 0, 64, 57
2, 25762, Control_c, 0, 64, 56
2, 25772, Note_on_c, 0, 71, 70
2, 25785, Control_c, 0, 64, 55
2, 25802, Note_on_c, 0, 55, 43
2, 25806, Note_on_c, 0, 69, 0
2, 25808, Note_on_c, 0, 54, 0
2, 25824, Control_c, 0, 64, 54
2, 25841, Control_c, 0, 67, 99
2, 25862, Control_c, 0, 64, 53
2, 25881, Control_c, 0, 64, 52
2, 25899, Control_c, 0, 64, 51
2, 25935, Control_c, 0, 64, 50
2, 25956, Control_c, 0, 64, 49
2, 25994, Control_c, 0, 64, 48
2, 26012, Control_c, 0, 64, 47
2, 26050, Note_on_c, 0, 72, 68
2, 26054, Control_c, 0, 64, 46
2, 26059, Note_on_c, 0, 54, 39
2, 26065, Note_on_c, 0, 55, 0
2, 26069, Control_c, 0, 64, 45
2, 26092, Control_c, 0, 64, 44
2, 26107, Note_on_c, 0, 71, 0
2, 26112, Control_c, 0, 64, 43
2, 26122, Note_on_c, 0, 76, 0
2, 26146, Control_c, 0, 64, 42
2, 26165, Control_c, 0, 64, 41
2, 26186, Control_c, 0, 64, 40
2, 26205, Control_c, 0, 64, 39
2, 26243, Control_c, 0, 64, 38
2, 26264, Control_c, 0, 64, 37
2, 26281, Control_c, 0, 64, 34
2, 26301, Control_c, 0, 64, 29
2, 26305, Note_on_c, 0, 76, 69
2, 26322, Control_c, 0, 64, 22
2, 26322, Note_on_c, 0, 55, 42
2, 26327, Note_on_c, 0, 72, 0
2, 26340, Control_c, 0, 64, 0
2, 26345, Note_on_c, 0, 54, 0
2, 26570, Note_on_c, 0, 74, 69
2, 26588, Note_on_c, 0, 54, 43
2, 26608, Control_c, 0, 64, 26
2, 26631, Control_c, 0, 64, 43
2, 26631, Control_c, 0, 67, 98
2, 26631, Note_on_c, 0, 76, 0
2, 26639, Note_on_c, 0, 55, 0
2, 26647, Control_c, 0, 64, 53
2, 26663, Control_c, 0, 64, 60
2, 26686, Control_c, 0, 64, 63
2, 26704, Control_c, 0, 64, 64
2, 26723, Control_c, 0, 64, 65
2, 26743, Control_c, 0, 64, 66
2, 26762, Control_c, 0, 64, 69
2, 26782, Control_c, 0, 64, 73
2, 26803, Control_c, 0, 64, 77
2, 26820, Control_c, 0, 64, 79
2, 26820, Note_on_c, 0, 74, 0
2, 26837, Note_on_c, 0, 76, 71
2, 26841, Control_c, 0, 64, 80
2, 26859, Control_c, 0, 64, 81
2, 26866, Note_on_c, 0, 52, 43
2, 26871, Note_on_c, 0, 48, 0
2, 26954, Control_c, 0, 64, 80
2, 26963, Note_on_c, 0, 76, 0
2, 26973, Note_on_c, 0, 72, 73
2, 27012, Control_c, 0, 64, 79
2, 27030, Control_c, 0, 64, 78
2, 27045, Note_on_c, 0, 54, 0
2, 27049, Control_c, 0, 64, 77
2, 27068, Control_c, 0, 64, 75
2, 27089, Control_c, 0, 64, 73
2, 27106, Control_c, 0, 64, 70
2, 27122, Note_on_c, 0, 74, 73
2, 27126, Control_c, 0, 64, 66
2, 27126, Note_on_c, 0, 72, 0
2, 27131, Note_on_c, 0, 69, 46
2, 27147, Control_c, 0, 64, 64
2, 27157, Note_on_c, 0, 48, 41
2, 27166, Control_c, 0, 64, 61
2, 27175, Note_on_c, 0, 52, 0
2, 27179, Note_on_c, 0, 66, 37
2, 27186, Control_c, 0, 64, 59
2, 27204, Control_c, 0, 64, 58
2, 27241, Control_c, 0, 64, 56
2, 27262, Control_c, 0, 64, 54
2, 27280, Control_c, 0, 64, 52
2, 27301, Control_c, 0, 64, 50
2, 27319, Control_c, 0, 64, 46
2, 27337, Control_c, 0, 64, 44
2, 27356, Control_c, 0, 64, 42
2, 27394, Control_c, 0, 64, 40
2, 27416, Control_c, 0, 64, 39
2, 27436, Control_c, 0, 64, 38
2, 27436, Control_c, 0, 67, 99
2, 27441, Note_on_c, 0, 54, 37
2, 27451, Control_c, 0, 64, 37
2, 27475, Control_c, 0, 64, 36
2, 27490, Control_c, 0, 64, 35
2, 27529, Control_c, 0, 64, 34
2, 27547, Control_c, 0, 64, 33
2, 27568, Control_c, 0, 64, 32
2, 27626, Control_c, 0, 64, 31
2, 27664, Control_c, 0, 64, 30
2, 27708, Note_on_c, 0, 55, 39
2, 27723, Control_c, 0, 64, 29
2, 27758, Note_on_c, 0, 54, 0
2, 27762, Control_c, 0, 64, 28
2, 27838, Control_c, 0, 64, 27
2, 27893, Control_c, 0, 64, 26
2, 27948, Note_on_c, 0, 57, 42
2, 27989, Note_on_c, 0, 55, 0
2, 27994, Control_c, 0, 64, 25
2, 28047, Control_c, 0, 64, 24
2, 28089, Control_c, 0, 64, 23
2, 28128, Control_c, 0, 64, 22
2, 28199, Note_on_c, 0, 57, 0
2, 28201, Control_c, 0, 64, 21
2, 28232, Note_on_c, 0, 55, 33
2, 28393, Control_c, 0, 64, 22
2, 28412, Control_c, 0, 64, 24
2, 28432, Control_c, 0, 64, 26
2, 28452, Control_c, 0, 64, 29
2, 28470, Control_c, 0, 64, 32
2, 28490, Control_c, 0, 64, 35
2, 28495, Note_on_c, 0, 57, 35
2, 28504, Note_on_c, 0, 55, 0
2, 28513, Control_c, 0, 64, 38
2, 28528, Control_c, 0, 64, 41
2, 28548, Control_c, 0, 64, 45
2, 28568, Control_c, 0, 64, 48
2, 28586, Control_c, 0, 64, 51
2, 28604, Control_c, 0, 64, 53
2, 28626, Control_c, 0, 64, 55
2, 28643, Control_c, 0, 64, 56
2, 28664, Control_c, 0, 64, 57
2, 28683, Control_c, 0, 64, 59
2, 28700, Control_c, 0, 64, 60
2, 28721, Control_c, 0, 64, 61
2, 28740, Control_c, 0, 64, 62
2, 28740, Control_c, 0, 67, 98
2, 28750, Note_on_c, 0, 55, 29
2, 28755, Note_on_c, 0, 57, 0
2, 28759, Control_c, 0, 64, 63
2, 28779, Control_c, 0, 64, 64
2, 28796, Control_c, 0, 64, 65
2, 28819, Control_c, 0, 64, 66
2, 28835, Control_c, 0, 64, 68
2, 28855, Control_c, 0, 64, 70
2, 28855, Note_on_c, 0, 69, 0
2, 28873, Control_c, 0, 64, 74
2, 28893, Control_c, 0, 64, 77
2, 28912, Control_c, 0, 64, 81
2, 28931, Control_c, 0, 64, 85
2, 28950, Control_c, 0, 64, 86
2, 28954, Note_on_c, 0, 66, 0
2, 28969, Control_c, 0, 64, 87
2, 28969, Note_on_c, 0, 48, 0
2, 28991, Note_on_c, 0, 54, 41
2, 29085, Control_c, 0, 64, 86
2, 29106, Control_c, 0, 64, 85
2, 29115, Note_on_c, 0, 55, 0
2, 29122, Control_c, 0, 64, 84
2, 29142, Control_c, 0, 64, 83
2, 29161, Control_c, 0, 64, 82
2, 29182, Control_c, 0, 64, 81
2, 29199, Control_c, 0, 64, 79
2, 29217, Control_c, 0, 64, 78
2, 29238, Control_c, 0, 64, 72
2, 29258, Control_c, 0, 64, 64
2, 29280, Control_c, 0, 64, 54
2, 29284, Note_on_c, 0, 54, 0
2, 29289, Note_on_c, 0, 71, 41
2, 29299, Control_c, 0, 64, 39
2, 29300, Note_on_c, 0, 47, 39
2, 29304, Note_on_c, 0, 67, 35
2, 29317, Control_c, 0, 64, 30
2, 29317, Control_c, 0, 67, 97
2, 29335, Control_c, 0, 64, 33
2, 29353, Control_c, 0, 64, 41
2, 29376, Control_c, 0, 64, 52
2, 29392, Control_c, 0, 64, 59
2, 29412, Control_c, 0, 64, 62
2, 29412, Note_on_c, 0, 74, 0
2, 29431, Control_c, 0, 64, 63
2, 29449, Control_c, 0, 64, 64
2, 29458, Note_on_c, 0, 71, 0
2, 29470, Control_c, 0, 64, 65
2, 29486, Control_c, 0, 64, 67
2, 29507, Control_c, 0, 64, 69
2, 29524, Note_on_c, 0, 47, 0
2, 29529, Control_c, 0, 64, 73
2, 29548, Control_c, 0, 64, 76
2, 29564, Control_c, 0, 64, 78
2, 29573, Note_on_c, 0, 55, 25
2, 29584, Control_c, 0, 64, 79
2, 29660, Control_c, 0, 64, 78
2, 29681, Control_c, 0, 64, 77
2, 29699, Control_c, 0, 64, 76
2, 29717, Control_c, 0, 64, 75
2, 29737, Control_c, 0, 64, 74
2, 29752, Note_on_c, 0, 67, 0
2, 29759, Control_c, 0, 64, 73
2, 29797, Control_c, 0, 64, 72
2, 29797, Control_c, 0, 67, 98
2, 29812, Note_on_c, 0, 79, 70
2, 29816, Control_c, 0, 64, 70
2, 29836, Control_c, 0, 64, 69
2, 29846, Note_on_c, 0, 57, 41
2, 29856, Control_c, 0, 64, 68
2, 29872, Control_c, 0, 64, 67
2, 29912, Control_c, 0, 64, 66
2, 29924, Note_on_c, 0, 55, 0
2, 29950, Control_c, 0, 64, 65
2, 30025, Control_c, 0, 64, 64
2, 30081, Note_on_c, 0, 59, 46
2, 30107, Note_on_c, 0, 57, 0
2, 30123, Control_c, 0, 67, 99
2, 30161, Control_c, 0, 64, 63
2, 30198, Control_c, 0, 64, 62
2, 30239, Control_c, 0, 64, 61
2, 30277, Control_c, 0, 64, 60
2, 30336, Note_on_c, 0, 57, 46
2, 30337, Control_c, 0, 64, 59
2, 30337, Note_on_c, 0, 59, 0
2, 30370, Control_c, 0, 64, 58
2, 30392, Control_c, 0, 64, 57
2, 30428, Control_c, 0, 64, 56
2, 30447, Control_c, 0, 64, 55
2, 30460, Note_on_c, 0, 77, 62
2, 30467, Control_c, 0, 64, 54
2, 30489, Control_c, 0, 64, 53
2, 30489, Control_c, 0, 67, 100
2, 30501, Note_on_c, 0, 79, 0
2, 30507, Control_c, 0, 64, 52
2, 30524, Control_c, 0, 64, 50
2, 30545, Control_c, 0, 64, 48
2, 30563, Control_c, 0, 64, 45
2, 30574, Note_on_c, 0, 76, 66
2, 30583, Control_c, 0, 64, 41
2, 30592, Note_on_c, 0, 77, 0
2, 30601, Control_c, 0, 64, 34
2, 30614, Note_on_c, 0, 59, 40
2, 30625, Control_c, 0, 64, 22
2, 30640, Control_c, 0, 64, 0
2, 30654, Note_on_c, 0, 57, 0
2, 30680, Control_c, 0, 67, 101
2, 30684, Note_on_c, 0, 74, 60
2, 30694, Note_on_c, 0, 76, 0
2, 30803, Note_on_c, 0, 74, 0
2, 30807, Note_on_c, 0, 72, 70
2, 30812, Control_c, 0, 67, 100
2, 30833, Note_on_c, 0, 57, 38
2, 30844, Note_on_c, 0, 59, 0
2, 30870, Control_c, 0, 67, 99
2, 30890, Control_c, 0, 64, 14
2, 30910, Control_c, 0, 64, 36
2, 30928, Control_c, 0, 64, 48
2, 30933, Control_c, 0, 67, 98
2, 30945, Control_c, 0, 64, 57
2, 30965, Control_c, 0, 64, 61
2, 30984, Control_c, 0, 64, 63
2, 31004, Control_c, 0, 64, 64
2, 31022, Control_c, 0, 64, 65
2, 31043, Control_c, 0, 64, 67
2, 31050, Note_on_c, 0, 72, 0
2, 31065, Control_c, 0, 64, 70
2, 31083, Control_c, 0, 64, 73
2, 31083, Control_c, 0, 67, 97
2, 31102, Control_c, 0, 64, 76
2, 31104, Note_on_c, 0, 74, 62
2, 31111, Note_on_c, 0, 55, 48
2, 31120, Control_c, 0, 64, 79
2, 31140, Control_c, 0, 64, 81
2, 31156, Note_on_c, 0, 55, 0
2, 31160, Control_c, 0, 64, 82
2, 31161, Note_on_c, 0, 57, 0
2, 31178, Control_c, 0, 64, 83
2, 31217, Note_on_c, 0, 71, 67
2, 31226, Note_on_c, 0, 74, 0
2, 31259, Note_on_c, 0, 71, 0
2, 31311, Control_c, 0, 64, 81
2, 31332, Control_c, 0, 64, 80
2, 31351, Control_c, 0, 64, 78
2, 31369, Control_c, 0, 64, 75
2, 31390, Control_c, 0, 64, 71
2, 31390, Control_c, 0, 67, 98
2, 31395, Note_on_c, 0, 72, 64
2, 31401, Note_on_c, 0, 47, 31
2, 31408, Control_c, 0, 64, 68
2, 31429, Control_c, 0, 64, 64
2, 31433, Note_on_c, 0, 64, 37
2, 31446, Control_c, 0, 64, 62
2, 31466, Control_c, 0, 64, 60
2, 31477, Note_on_c, 0, 67, 15
2, 31483, Control_c, 0, 64, 59
2, 31503, Note_on_c, 0, 72, 0
2, 31507, Control_c, 0, 64, 58
2, 31516, Note_on_c, 0, 71, 62
2, 31522, Control_c, 0, 64, 56
2, 31545, Control_c, 0, 64, 54
2, 31563, Control_c, 0, 64, 52
2, 31567, Control_c, 0, 67, 99
2, 31581, Control_c, 0, 64, 49
2, 31599, Control_c, 0, 64, 45
2, 31621, Control_c, 0, 64, 42
2, 31621, Note_on_c, 0, 71, 0
2, 31639, Control_c, 0, 64, 39
2, 31639, Note_on_c, 0, 72, 69
2, 31658, Control_c, 0, 64, 37
2, 31678, Control_c, 0, 64, 34
2, 31678, Note_on_c, 0, 52, 36
2, 31696, Control_c, 0, 64, 31
2, 31718, Control_c, 0, 64, 26
2, 31734, Control_c, 0, 64, 18
2, 31753, Control_c, 0, 64, 0
2, 31940, Note_on_c, 0, 54, 43
2, 32113, Note_on_c, 0, 52, 0
2, 32183, Note_on_c, 0, 55, 40
2, 32244, Note_on_c, 0, 54, 0
2, 32452, Note_on_c, 0, 54, 40
2, 32477, Note_on_c, 0, 55, 0
2, 32559, Control_c, 0, 64, 11
2, 32580, Control_c, 0, 64, 17
2, 32598, Control_c, 0, 64, 22
2, 32617, Control_c, 0, 64, 26
2, 32639, Control_c, 0, 64, 30
2, 32656, Control_c, 0, 64, 33
2, 32674, Control_c, 0, 64, 36
2, 32694, Control_c, 0, 64, 39
2, 32714, Control_c, 0, 64, 41
2, 32714, Control_c, 0, 67, 98
2, 32719, Note_on_c, 0, 55, 37
2, 32732, Control_c, 0, 64, 44
2, 32739, Note_on_c, 0, 54, 0
2, 32756, Control_c, 0, 64, 47
2, 32771, Control_c, 0, 64, 50
2, 32792, Control_c, 0, 64, 53
2, 32811, Control_c, 0, 64, 55
2, 32829, Control_c, 0, 64, 57
2, 32847, Control_c, 0, 64, 58
2, 32886, Control_c, 0, 64, 59
2, 32904, Control_c, 0, 64, 60
2, 32925, Control_c, 0, 64, 61
2, 32945, Control_c, 0, 64, 62
2, 32959, Note_on_c, 0, 67, 0
2, 32963, Control_c, 0, 64, 63
2, 32983, Control_c, 0, 64, 64
2, 33002, Control_c, 0, 64, 65
2, 33007, Note_on_c, 0, 54, 41
2, 33020, Control_c, 0, 64, 66
2, 33039, Control_c, 0, 64, 68
2, 33061, Control_c, 0, 64, 70
2, 33065, Note_on_c, 0, 55, 0
2, 33079, Control_c, 0, 64, 73
2, 33099, Control_c, 0, 64, 75
2, 33099, Note_on_c, 0, 64, 0
2, 33117, Control_c, 0, 64, 76
2, 33192, Control_c, 0, 64, 75
2, 33233, Control_c, 0, 64, 74
2, 33255, Note_on_c, 0, 47, 0
2, 33259, Note_on_c, 0, 52, 47
2, 33271, Control_c, 0, 64, 73
2, 33309, Control_c, 0, 64, 72
2, 33329, Control_c, 0, 64, 71
2, 33333, Note_on_c, 0, 54, 0
2, 33347, Control_c, 0, 64, 70
2, 33385, Control_c, 0, 64, 69
2, 33425, Control_c, 0, 64, 68
2, 33442, Control_c, 0, 64, 65
2, 33462, Control_c, 0, 64, 59
2, 33483, Control_c, 0, 64, 48
2, 33499, Control_c, 0, 64, 28
2, 33519, Control_c, 0, 64, 22
2, 33540, Control_c, 0, 64, 28
2, 33560, Note_on_c, 0, 69, 42
2, 33562, Control_c, 0, 64, 39
2, 33562, Note_on_c, 0, 45, 43
2, 33562, Note_on_c, 0, 66, 40
2, 33576, Control_c, 0, 64, 51
2, 33596, Control_c, 0, 64, 60
2, 33615, Control_c, 0, 64, 64
2, 33635, Note_on_c, 0, 45, 0
2, 33639, Control_c, 0, 64, 67
2, 33644, Note_on_c, 0, 52, 0
2, 33644, Note_on_c, 0, 66, 0
2, 33653, Control_c, 0, 64, 70
2, 33668, Note_on_c, 0, 72, 0
2, 33673, Note_on_c, 0, 69, 0
2, 33675, Control_c, 0, 64, 73
2, 33694, Control_c, 0, 64, 78
2, 33711, Control_c, 0, 64, 83
2, 33732, Control_c, 0, 64, 88
2, 33750, Control_c, 0, 64, 89
2, 33839, Note_on_c, 0, 74, 63
2, 33854, Note_on_c, 0, 54, 43
2, 33865, Control_c, 0, 64, 88
2, 33905, Control_c, 0, 64, 87
2, 33924, Control_c, 0, 64, 86
2, 33940, Control_c, 0, 64, 85
2, 34000, Control_c, 0, 64, 84
2, 34018, Control_c, 0, 64, 83
2, 34038, Control_c, 0, 64, 82
2, 34056, Control_c, 0, 64, 81
2, 34079, Control_c, 0, 64, 80
2, 34096, Control_c, 0, 64, 78
2, 34101, Note_on_c, 0, 76, 76
2, 34114, Note_on_c, 0, 55, 42
2, 34118, Control_c, 0, 64, 77
2, 34126, Note_on_c, 0, 74, 0
2, 34138, Control_c, 0, 64, 75
2, 34138, Control_c, 0, 67, 99
2, 34156, Control_c, 0, 64, 73
2, 34167, Note_on_c, 0, 54, 0
2, 34173, Control_c, 0, 64, 72
2, 34193, Control_c, 0, 64, 71
2, 34213, Control_c, 0, 64, 70
2, 34231, Control_c, 0, 64, 69
2, 34269, Control_c, 0, 64, 68
2, 34286, Control_c, 0, 64, 67
2, 34327, Control_c, 0, 64, 66
2, 34338, Note_on_c, 0, 78, 80
2, 34358, Note_on_c, 0, 57, 48
2, 34395, Note_on_c, 0, 55, 0
2, 34401, Note_on_c, 0, 76, 0
2, 34405, Control_c, 0, 64, 65
2, 34459, Note_on_c, 0, 78, 0
2, 34480, Control_c, 0, 64, 64
2, 34608, Note_on_c, 0, 79, 79
2, 34614, Control_c, 0, 64, 58
2, 34632, Note_on_c, 0, 55, 36
2, 34636, Control_c, 0, 64, 40
2, 34645, Note_on_c, 0, 57, 0
2, 34651, Control_c, 0, 64, 0
2, 34787, Control_c, 0, 64, 36
2, 34808, Control_c, 0, 64, 52
2, 34824, Control_c, 0, 64, 62
2, 34844, Control_c, 0, 64, 66
2, 34862, Note_on_c, 0, 78, 81
2, 34866, Control_c, 0, 64, 68
2, 34881, Note_on_c, 0, 57, 46
2, 34886, Control_c, 0, 64, 72
2, 34901, Control_c, 0, 64, 78
2, 34914, Note_on_c, 0, 55, 0
2, 34922, Control_c, 0, 64, 87
2, 34922, Note_on_c, 0, 79, 0
2, 34940, Control_c, 0, 64, 100
2, 34959, Control_c, 0, 64, 122
2, 34981, Control_c, 0, 64, 127
2, 35008, Note_on_c, 0, 78, 0
2, 35114, Control_c, 0, 64, 122
2, 35132, Control_c, 0, 64, 113
2, 35145, Note_on_c, 0, 81, 81
2, 35153, Control_c, 0, 64, 99
2, 35162, Note_on_c, 0, 55, 43
2, 35171, Control_c, 0, 64, 77
2, 35189, Control_c, 0, 64, 61
2, 35209, Control_c, 0, 64, 40
2, 35230, Control_c, 0, 64, 0
2, 35248, Control_c, 0, 64, 13
2, 35248, Note_on_c, 0, 57, 0
2, 35265, Control_c, 0, 64, 30
2, 35287, Control_c, 0, 64, 46
2, 35306, Control_c, 0, 64, 60
2, 35324, Control_c, 0, 64, 65
2, 35344, Control_c, 0, 64, 69
2, 35363, Control_c, 0, 64, 73
2, 35382, Control_c, 0, 64, 79
2, 35402, Control_c, 0, 64, 89
2, 35402, Control_c, 0, 67, 98
2, 35420, Note_on_c, 0, 72, 82
2, 35424, Control_c, 0, 64, 120
2, 35436, Note_on_c, 0, 54, 53
2, 35441, Control_c, 0, 64, 127
2, 35458, Note_on_c, 0, 81, 0
2, 35472, Note_on_c, 0, 55, 0
2, 35484, Note_on_c, 0, 72, 0
2, 35493, Note_on_c, 0, 54, 0
2, 35804, Control_c, 0, 64, 112
2, 35817, Note_on_c, 0, 72, 81
2, 35826, Control_c, 0, 64, 103
2, 35834, Note_on_c, 0, 43, 48
2, 35845, Control_c, 0, 64, 93
2, 35853, Note_on_c, 0, 62, 51
2, 35862, Note_on_c, 0, 67, 43
2, 35866, Control_c, 0, 64, 78
2, 35880, Control_c, 0, 64, 62
2, 35900, Control_c, 0, 64, 40
2, 35920, Control_c, 0, 64, 0
2, 35977, Control_c, 0, 64, 38
2, 35996, Control_c, 0, 64, 55
2, 36020, Control_c, 0, 64, 64
2, 36020, Note_on_c, 0, 43, 0
2, 36036, Control_c, 0, 64, 68
2, 36054, Control_c, 0, 64, 73
2, 36072, Control_c, 0, 64, 78
2, 36094, Control_c, 0, 64, 81
2, 36094, Control_c, 0, 67, 97
2, 36114, Control_c, 0, 64, 84
2, 36129, Control_c, 0, 64, 86
2, 36149, Control_c, 0, 64, 87
2, 36266, Control_c, 0, 64, 86
2, 36284, Control_c, 0, 64, 85
2, 36323, Control_c, 0, 64, 84
2, 36339, Note_on_c, 0, 57, 43
2, 36343, Control_c, 0, 64, 83
2, 36361, Control_c, 0, 64, 82
2, 36381, Control_c, 0, 64, 81
2, 36401, Control_c, 0, 64, 80
2, 36419, Control_c, 0, 64, 79
2, 36439, Control_c, 0, 64, 78
2, 36459, Control_c, 0, 64, 77
2, 36476, Control_c, 0, 64, 76
2, 36496, Control_c, 0, 64, 74
2, 36516, Control_c, 0, 64, 72
2, 36537, Control_c, 0, 64, 70
2, 36552, Control_c, 0, 64, 68
2, 36571, Control_c, 0, 64, 67
2, 36593, Control_c, 0, 64, 66
2, 36613, Control_c, 0, 64, 65
2, 36629, Control_c, 0, 64, 64
2, 36663, Note_on_c, 0, 71, 60
2, 36669, Control_c, 0, 64, 63
2, 36685, Note_on_c, 0, 59, 35
2, 36689, Control_c, 0, 64, 62
2, 36705, Control_c, 0, 64, 61
2, 36749, Control_c, 0, 64, 60
2, 36787, Control_c, 0, 64, 59
2, 36787, Note_on_c, 0, 72, 0
2, 36802, Control_c, 0, 64, 58
2, 36825, Note_on_c, 0, 57, 0
2, 36841, Control_c, 0, 64, 57
2, 36861, Control_c, 0, 64, 56
2, 36899, Control_c, 0, 64, 55
2, 36942, Note_on_c, 0, 60, 42
2, 36957, Control_c, 0, 64, 54
2, 36994, Control_c, 0, 64, 53
2, 37001, Note_on_c, 0, 59, 0
2, 37016, Control_c, 0, 64, 52
2, 37054, Control_c, 0, 64, 51
2, 37092, Control_c, 0, 64, 50
2, 37169, Control_c, 0, 64, 49
2, 37207, Control_c, 0, 64, 48
2, 37207, Control_c, 0, 67, 96
2, 37211, Note_on_c, 0, 59, 44
2, 37225, Note_on_c, 0, 60, 0
2, 37301, Control_c, 0, 64, 47
2, 37360, Control_c, 0, 67, 95
2, 37381, Control_c, 0, 64, 46
2, 37399, Control_c, 0, 67, 94
2, 37418, Control_c, 0, 67, 93
2, 37435, Control_c, 0, 67, 92
2, 37476, Control_c, 0, 67, 91
2, 37484, Note_on_c, 0, 60, 37
2, 37499, Note_on_c, 0, 59, 0
2, 37534, Control_c, 0, 67, 90
2, 37571, Control_c, 0, 67, 89
2, 37628, Control_c, 0, 67, 88
2, 37704, Control_c, 0, 67, 87
2, 37720, Note_on_c, 0, 59, 38
2, 37755, Note_on_c, 0, 60, 0
2, 37763, Control_c, 0, 67, 86
2, 37843, Control_c, 0, 67, 85
2, 37880, Note_on_c, 0, 67, 0
2, 37890, Note_on_c, 0, 62, 0
2, 37897, Control_c, 0, 67, 81
2, 37917, Control_c, 0, 67, 73
2, 37935, Control_c, 0, 67, 63
2, 37955, Control_c, 0, 67, 57
2, 37974, Control_c, 0, 67, 51
2, 37979, Note_on_c, 0, 57, 41
2, 37993, Control_c, 0, 67, 47
2, 38012, Control_c, 0, 67, 43
2, 38033, Control_c, 0, 67, 41
2, 38053, Control_c, 0, 67, 39
2, 38069, Control_c, 0, 67, 38
2, 38085, Note_on_c, 0, 59, 0
2, 38129, Control_c, 0, 67, 37
2, 38267, Note_on_c, 0, 67, 37
2, 38269, Note_on_c, 0, 57, 0
2, 38276, Note_on_c, 0, 62, 33
2, 38281, Control_c, 0, 67, 36
2, 38281, Note_on_c, 0, 55, 27
2, 38318, Control_c, 0, 67, 34
2, 38338, Control_c, 0, 67, 26
2, 38358, Control_c, 0, 67, 16
2, 38376, Control_c, 0, 67, 0
2, 38534, Note_on_c, 0, 59, 36
2, 38534, Note_on_c, 0, 71, 0
2, 38806, Note_on_c, 0, 71, 59
2, 38817, Note_on_c, 0, 62, 0
2, 38821, Note_on_c, 0, 60, 36
2, 38873, Note_on_c, 0, 67, 0
2, 38880, Note_on_c, 0, 59, 0
2, 38974, Control_c, 0, 64, 45
2, 39011, Control_c, 0, 64, 44
2, 39050, Control_c, 0, 64, 43
2, 39059, Note_on_c, 0, 62, 43
2, 39072, Control_c, 0, 64, 41
2, 39072, Note_on_c, 0, 60, 0
2, 39089, Control_c, 0, 64, 40
2, 39106, Control_c, 0, 64, 38
2, 39126, Control_c, 0, 64, 37
2, 39145, Control_c, 0, 64, 35
2, 39168, Control_c, 0, 64, 34
2, 39185, Control_c, 0, 64, 32
2, 39202, Control_c, 0, 64, 30
2, 39222, Control_c, 0, 64, 28
2, 39243, Control_c, 0, 64, 26
2, 39259, Control_c, 0, 64, 24
2, 39279, Control_c, 0, 64, 22
2, 39298, Control_c, 0, 64, 20
2, 39322, Control_c, 0, 64, 18
2, 39322, Note_on_c, 0, 71, 0
2, 39329, Note_on_c, 0, 62, 0
2, 39340, Control_c, 0, 64, 13
2, 39340, Note_on_c, 0, 69, 51
2, 39360, Control_c, 0, 64, 0
2, 39365, Note_on_c, 0, 60, 41
2, 39446, Note_on_c, 0, 67, 56
2, 39451, Note_on_c, 0, 69, 0
2, 39558, Note_on_c, 0, 60, 0
2, 39566, Note_on_c, 0, 62, 35
2, 39575, Note_on_c, 0, 67, 0
2, 39579, Note_on_c, 0, 66, 56
2, 39764, Note_on_c, 0, 66, 0
2, 39825, Note_on_c, 0, 62, 0
2, 39849, Note_on_c, 0, 60, 43
2, 39851, Note_on_c, 0, 67, 57
2, 39963, Note_on_c, 0, 66, 53
2, 39968, Note_on_c, 0, 67, 0
2, 39992, Control_c, 0, 64, 31
2, 40010, Control_c, 0, 64, 43
2, 40029, Control_c, 0, 64, 53
2, 40047, Control_c, 0, 64, 60
2, 40067, Control_c, 0, 64, 63
2, 40082, Note_on_c, 0, 59, 41
2, 40089, Control_c, 0, 64, 64
2, 40089, Note_on_c, 0, 64, 59
2, 40099, Note_on_c, 0, 66, 0
2, 40108, Control_c, 0, 64, 66
2, 40112, Note_on_c, 0, 55, 0
2, 40112, Note_on_c, 0, 60, 0
2, 40124, Control_c, 0, 64, 69
2, 40130, Note_on_c, 0, 64, 0
2, 40143, Control_c, 0, 64, 72
2, 40162, Control_c, 0, 64, 77
2, 40185, Control_c, 0, 64, 82
2, 40202, Control_c, 0, 64, 85
2, 40221, Control_c, 0, 64, 87
2, 40297, Control_c, 0, 64, 86
2, 40317, Control_c, 0, 64, 85
2, 40334, Control_c, 0, 64, 84
2, 40354, Control_c, 0, 64, 83
2, 40370, Note_on_c, 0, 76, 70
2, 40374, Control_c, 0, 64, 81
2, 40395, Control_c, 0, 64, 78
2, 40399, Note_on_c, 0, 69, 47
2, 40408, Note_on_c, 0, 55, 38
2, 40413, Control_c, 0, 64, 73
2, 40418, Note_on_c, 0, 59, 0
2, 40425, Note_on_c, 0, 73, 50
2, 40431, Control_c, 0, 64, 64
2, 40450, Control_c, 0, 64, 51
2, 40473, Control_c, 0, 64, 15
2, 40488, Control_c, 0, 64, 0
2, 40585, Control_c, 0, 64, 17
2, 40604, Control_c, 0, 64, 43
2, 40624, Control_c, 0, 64, 55
2, 40643, Control_c, 0, 64, 61
2, 40654, Note_on_c, 0, 61, 42
2, 40664, Control_c, 0, 64, 62
2, 40681, Control_c, 0, 64, 63
2, 40719, Control_c, 0, 64, 64
2, 40738, Control_c, 0, 64, 66
2, 40758, Control_c, 0, 64, 67
2, 40776, Control_c, 0, 64, 68
2, 40789, Note_on_c, 0, 73, 0
2, 40872, Control_c, 0, 64, 67
2, 40913, Control_c, 0, 64, 66
2, 40917, Note_on_c, 0, 62, 51
2, 40933, Control_c, 0, 64, 65
2, 40955, Control_c, 0, 64, 64
2, 40955, Note_on_c, 0, 61, 0
2, 40968, Control_c, 0, 64, 63
2, 40990, Control_c, 0, 64, 62
2, 41010, Control_c, 0, 64, 61
2, 41019, Note_on_c, 0, 76, 0
2, 41035, Note_on_c, 0, 78, 69
2, 41047, Control_c, 0, 64, 60
2, 41066, Control_c, 0, 64, 59
2, 41084, Control_c, 0, 64, 58
2, 41103, Control_c, 0, 64, 57
2, 41121, Control_c, 0, 64, 56
2, 41157, Note_on_c, 0, 76, 73
2, 41161, Control_c, 0, 64, 55
2, 41175, Note_on_c, 0, 64, 50
2, 41184, Control_c, 0, 64, 53
2, 41196, Note_on_c, 0, 62, 0
2, 41201, Control_c, 0, 64, 51
2, 41207, Note_on_c, 0, 78, 0
2, 41219, Control_c, 0, 64, 46
2, 41239, Control_c, 0, 64, 42
2, 41258, Control_c, 0, 64, 36
2, 41275, Control_c, 0, 64, 31
2, 41279, Note_on_c, 0, 75, 70
2, 41284, Note_on_c, 0, 76, 0
2, 41298, Control_c, 0, 64, 25
2, 41313, Control_c, 0, 64, 16
2, 41337, Control_c, 0, 64, 0
2, 41415, Note_on_c, 0, 76, 81
2, 41427, Note_on_c, 0, 62, 47
2, 41434, Note_on_c, 0, 75, 0
2, 41438, Note_on_c, 0, 64, 0
2, 41677, Note_on_c, 0, 64, 54
2, 41710, Note_on_c, 0, 62, 0
2, 41910, Control_c, 0, 64, 25
2, 41929, Control_c, 0, 64, 33
2, 41952, Control_c, 0, 64, 39
2, 41956, Note_on_c, 0, 62, 51
2, 41967, Control_c, 0, 64, 44
2, 41989, Control_c, 0, 64, 50
2, 41993, Note_on_c, 0, 64, 0
2, 42007, Control_c, 0, 64, 55
2, 42024, Control_c, 0, 64, 59
2, 42045, Control_c, 0, 64, 60
2, 42065, Control_c, 0, 64, 62
2, 42083, Control_c, 0, 64, 63
2, 42102, Control_c, 0, 64, 64
2, 42126, Control_c, 0, 64, 65
2, 42145, Control_c, 0, 64, 66
2, 42163, Control_c, 0, 64, 67
2, 42182, Control_c, 0, 64, 69
2, 42193, Note_on_c, 0, 78, 76
2, 42204, Control_c, 0, 64, 71
2, 42210, Note_on_c, 0, 61, 46
2, 42214, Note_on_c, 0, 55, 0
2, 42221, Control_c, 0, 64, 73
2, 42238, Control_c, 0, 64, 76
2, 42243, Note_on_c, 0, 76, 0
2, 42254, Note_on_c, 0, 62, 0
2, 42259, Control_c, 0, 64, 78
2, 42278, Control_c, 0, 64, 79
2, 42292, Note_on_c, 0, 69, 0
2, 42337, Note_on_c, 0, 78, 0
2, 42393, Control_c, 0, 64, 78
2, 42414, Control_c, 0, 64, 77
2, 42451, Control_c, 0, 64, 76
2, 42470, Control_c, 0, 64, 75
2, 42489, Control_c, 0, 64, 74
2, 42502, Note_on_c, 0, 61, 0
2, 42508, Control_c, 0, 64, 68
2, 42516, Note_on_c, 0, 79, 69
2, 42531, Control_c, 0, 64, 59
2, 42535, Note_on_c, 0, 54, 34
2, 42548, Control_c, 0, 64, 40
2, 42552, Note_on_c, 0, 69, 43
2, 42556, Note_on_c, 0, 75, 41
2, 42566, Control_c, 0, 64, 0
2, 42623, Control_c, 0, 64, 26
2, 42630, Note_on_c, 0, 75, 0
2, 42644, Control_c, 0, 64, 48
2, 42665, Control_c, 0, 64, 61
2, 42672, Note_on_c, 0, 69, 0
2, 42681, Control_c, 0, 64, 66
2, 42700, Control_c, 0, 64, 69
2, 42719, Control_c, 0, 64, 72
2, 42740, Control_c, 0, 64, 77
2, 42756, Control_c, 0, 64, 81
2, 42776, Control_c, 0, 64, 86
2, 42796, Control_c, 0, 64, 88
2, 42796, Note_on_c, 0, 54, 0
2, 42815, Control_c, 0, 64, 89
2, 42835, Note_on_c, 0, 78, 57
2, 42849, Note_on_c, 0, 63, 32
2, 42849, Note_on_c, 0, 79, 0
2, 42855, Control_c, 0, 64, 90
2, 42932, Note_on_c, 0, 78, 0
2, 42995, Note_on_c, 0, 79, 61
2, 43046, Control_c, 0, 64, 89
2, 43051, Note_on_c, 0, 79, 0
2, 43085, Control_c, 0, 64, 88
2, 43092, Note_on_c, 0, 78, 62
2, 43096, Note_on_c, 0, 64, 47
2, 43102, Control_c, 0, 64, 87
2, 43123, Control_c, 0, 64, 86
2, 43127, Note_on_c, 0, 63, 0
2, 43144, Control_c, 0, 64, 85
2, 43144, Note_on_c, 0, 78, 0
2, 43162, Control_c, 0, 64, 84
2, 43183, Control_c, 0, 64, 82
2, 43189, Note_on_c, 0, 79, 64
2, 43201, Control_c, 0, 64, 81
2, 43219, Control_c, 0, 64, 79
2, 43230, Note_on_c, 0, 79, 0
2, 43239, Control_c, 0, 64, 78
2, 43258, Control_c, 0, 64, 77
2, 43267, Note_on_c, 0, 78, 71
2, 43276, Control_c, 0, 64, 76
2, 43295, Control_c, 0, 64, 75
2, 43309, Note_on_c, 0, 78, 0
2, 43314, Control_c, 0, 64, 73
2, 43322, Note_on_c, 0, 64, 0
2, 43334, Control_c, 0, 64, 71
2, 43337, Note_on_c, 0, 79, 71
2, 43342, Note_on_c, 0, 66, 49
2, 43354, Control_c, 0, 64, 70
2, 43373, Control_c, 0, 64, 69
2, 43391, Control_c, 0, 64, 68
2, 43396, Note_on_c, 0, 79, 0
2, 43416, Note_on_c, 0, 78, 73
2, 43468, Control_c, 0, 64, 67
2, 43472, Note_on_c, 0, 78, 0
2, 43506, Note_on_c, 0, 79, 73
2, 43507, Control_c, 0, 64, 66
2, 43545, Note_on_c, 0, 79, 0
2, 43566, Control_c, 0, 64, 65
2, 43574, Note_on_c, 0, 66, 0
2, 43578, Note_on_c, 0, 78, 77
2, 43595, Note_on_c, 0, 64, 59
2, 43625, Note_on_c, 0, 78, 0
2, 43648, Note_on_c, 0, 79, 76
2, 43659, Control_c, 0, 64, 64
2, 43707, Note_on_c, 0, 79, 0
2, 43723, Note_on_c, 0, 78, 79
2, 43757, Control_c, 0, 64, 63
2, 43796, Note_on_c, 0, 78, 0
2, 43807, Note_on_c, 0, 79, 78
2, 43853, Note_on_c, 0, 79, 0
2, 43860, Note_on_c, 0, 66, 58
2, 43878, Note_on_c, 0, 78, 72
2, 43900, Note_on_c, 0, 64, 0
2, 43933, Control_c, 0, 64, 61
2, 43933, Note_on_c, 0, 78, 0
2, 43949, Control_c, 0, 64, 55
2, 43953, Note_on_c, 0, 79, 73
2, 43969, Control_c, 0, 64, 29
2, 43987, Control_c, 0, 64, 0
2, 44015, Note_on_c, 0, 78, 77
2, 44015, Note_on_c, 0, 79, 0
2, 44085, Control_c, 0, 64, 18
2, 44097, Note_on_c, 0, 64, 59
2, 44107, Control_c, 0, 64, 52
2, 44123, Control_c, 0, 64, 64
2, 44143, Control_c, 0, 64, 70
2, 44148, Note_on_c, 0, 66, 0
2, 44160, Control_c, 0, 64, 77
2, 44181, Control_c, 0, 64, 84
2, 44197, Control_c, 0, 64, 95
2, 44200, Note_on_c, 0, 78, 0
2, 44217, Control_c, 0, 64, 115
2, 44236, Control_c, 0, 64, 127
2, 44375, Note_on_c, 0, 76, 80
2, 44381, Note_on_c, 0, 63, 56
2, 44388, Note_on_c, 0, 64, 0
2, 44421, Note_on_c, 0, 63, 0
2, 44492, Note_on_c, 0, 78, 80
2, 44533, Note_on_c, 0, 76, 0
2, 44568, Note_on_c, 0, 78, 0
2, 44679, Control_c, 0, 64, 120
2, 44698, Control_c, 0, 64, 98
2, 44707, Note_on_c, 0, 52, 45
2, 44707, Note_on_c, 0, 79, 87
2, 44717, Control_c, 0, 64, 85
2, 44732, Note_on_c, 0, 71, 60
2, 44736, Control_c, 0, 64, 75
2, 44736, Note_on_c, 0, 76, 54
2, 44758, Control_c, 0, 64, 67
2, 44773, Control_c, 0, 64, 62
2, 44793, Control_c, 0, 64, 57
2, 44814, Control_c, 0, 64, 52
2, 44834, Control_c, 0, 64, 46
2, 44849, Control_c, 0, 64, 39
2, 44868, Control_c, 0, 64, 30
2, 44888, Control_c, 0, 64, 22
2, 44910, Control_c, 0, 64, 15
2, 44926, Control_c, 0, 64, 8
2, 44946, Control_c, 0, 64, 0
2, 45010, Note_on_c, 0, 54, 36
2, 45274, Note_on_c, 0, 55, 41
2, 45320, Note_on_c, 0, 54, 0
2, 45518, Note_on_c, 0, 57, 43
2, 45539, Note_on_c, 0, 55, 0
2, 45774, Note_on_c, 0, 57, 0
2, 45791, Note_on_c, 0, 55, 37
2, 46062, Note_on_c, 0, 57, 36
2, 46066, Note_on_c, 0, 55, 0
2, 46094, Control_c, 0, 64, 23
2, 46114, Control_c, 0, 64, 33
2, 46133, Control_c, 0, 64, 41
2, 46154, Control_c, 0, 64, 46
2, 46172, Control_c, 0, 64, 51
2, 46192, Control_c, 0, 64, 55
2, 46210, Control_c, 0, 64, 57
2, 46225, Note_on_c, 0, 76, 0
2, 46232, Control_c, 0, 64, 59
2, 46247, Control_c, 0, 64, 60
2, 46268, Control_c, 0, 64, 61
2, 46289, Control_c, 0, 64, 62
2, 46307, Control_c, 0, 64, 63
2, 46307, Note_on_c, 0, 71, 0
2, 46323, Note_on_c, 0, 55, 31
2, 46327, Note_on_c, 0, 57, 0
2, 46346, Control_c, 0, 64, 64
2, 46364, Control_c, 0, 64, 65
2, 46403, Control_c, 0, 64, 66
2, 46441, Control_c, 0, 64, 67
2, 46572, Note_on_c, 0, 54, 35
2, 46577, Control_c, 0, 64, 66
2, 46610, Note_on_c, 0, 52, 0
2, 46635, Control_c, 0, 64, 65
2, 46688, Control_c, 0, 64, 64
2, 46769, Control_c, 0, 64, 63
2, 46787, Control_c, 0, 64, 62
2, 46807, Control_c, 0, 64, 59
2, 46825, Control_c, 0, 64, 50
2, 46844, Control_c, 0, 64, 37
2, 46866, Control_c, 0, 64, 19
2, 46869, Note_on_c, 0, 52, 31
2, 46869, Note_on_c, 0, 55, 0
2, 46877, Note_on_c, 0, 71, 39
2, 46882, Note_on_c, 0, 54, 0
2, 46902, Control_c, 0, 64, 28
2, 46915, Note_on_c, 0, 67, 9
2, 46921, Control_c, 0, 64, 42
2, 46942, Control_c, 0, 64, 55
2, 46958, Control_c, 0, 64, 62
2, 46976, Note_on_c, 0, 79, 0
2, 46982, Control_c, 0, 64, 64
2, 46982, Note_on_c, 0, 71, 0
2, 46998, Control_c, 0, 64, 65
2, 47037, Control_c, 0, 64, 66
2, 47056, Control_c, 0, 64, 67
2, 47074, Control_c, 0, 64, 68
2, 47095, Control_c, 0, 64, 69
2, 47103, Note_on_c, 0, 67, 0
2, 47113, Control_c, 0, 64, 70
2, 47145, Note_on_c, 0, 71, 53
2, 47177, Note_on_c, 0, 55, 31
2, 47286, Control_c, 0, 64, 69
2, 47361, Control_c, 0, 64, 68
2, 47400, Control_c, 0, 64, 67
2, 47411, Note_on_c, 0, 69, 59
2, 47436, Note_on_c, 0, 57, 43
2, 47439, Control_c, 0, 64, 66
2, 47467, Note_on_c, 0, 71, 0
2, 47480, Control_c, 0, 64, 65
2, 47513, Note_on_c, 0, 55, 0
2, 47518, Control_c, 0, 64, 64
2, 47553, Control_c, 0, 64, 63
2, 47594, Control_c, 0, 64, 62
2, 47631, Control_c, 0, 64, 61
2, 47661, Note_on_c, 0, 67, 63
2, 47681, Note_on_c, 0, 59, 44
2, 47690, Control_c, 0, 64, 60
2, 47699, Note_on_c, 0, 57, 0
2, 47708, Control_c, 0, 64, 58
2, 47727, Control_c, 0, 64, 51
2, 47739, Note_on_c, 0, 69, 0
2, 47750, Control_c, 0, 64, 36
2, 47768, Control_c, 0, 64, 0
2, 47863, Control_c, 0, 64, 19
2, 47881, Control_c, 0, 64, 40
2, 47900, Control_c, 0, 64, 54
2, 47919, Control_c, 0, 64, 61
2, 47938, Control_c, 0, 64, 63
2, 47942, Note_on_c, 0, 57, 51
2, 47946, Note_on_c, 0, 59, 0
2, 47960, Control_c, 0, 64, 64
2, 47996, Control_c, 0, 64, 65
2, 48017, Control_c, 0, 64, 67
2, 48034, Control_c, 0, 64, 69
2, 48053, Control_c, 0, 64, 71
2, 48062, Note_on_c, 0, 67, 0
2, 48073, Control_c, 0, 64, 72
2, 48092, Control_c, 0, 64, 73
2, 48130, Control_c, 0, 64, 72
2, 48187, Control_c, 0, 64, 71
2, 48202, Note_on_c, 0, 66, 62
2, 48208, Control_c, 0, 64, 70
2, 48230, Control_c, 0, 64, 69
2, 48230, Note_on_c, 0, 57, 0
2, 48230, Note_on_c, 0, 59, 39
2, 48246, Control_c, 0, 64, 68
2, 48264, Control_c, 0, 64, 67
2, 48283, Control_c, 0, 64, 66
2, 48294, Note_on_c, 0, 66, 0
2, 48302, Control_c, 0, 64, 65
2, 48316, Note_on_c, 0, 64, 63
2, 48325, Control_c, 0, 64, 64
2, 48341, Control_c, 0, 64, 63
2, 48363, Control_c, 0, 64, 62
2, 48416, Control_c, 0, 64, 61
2, 48439, Control_c, 0, 64, 59
2, 48439, Note_on_c, 0, 64, 0
2, 48443, Note_on_c, 0, 63, 61
2, 48457, Control_c, 0, 64, 53
2, 48461, Note_on_c, 0, 59, 0
2, 48473, Note_on_c, 0, 57, 39
2, 48477, Control_c, 0, 64, 40
2, 48494, Control_c, 0, 64, 0
2, 48613, Control_c, 0, 64, 13
2, 48629, Control_c, 0, 64, 34
2, 48651, Control_c, 0, 64, 48
2, 48668, Control_c, 0, 64, 56
2, 48689, Control_c, 0, 64, 60
2, 48705, Control_c, 0, 64, 62
2, 48711, Note_on_c, 0, 63, 0
2, 48716, Note_on_c, 0, 64, 61
2, 48726, Control_c, 0, 64, 63
2, 48739, Note_on_c, 0, 55, 37
2, 48746, Control_c, 0, 64, 65
2, 48748, Note_on_c, 0, 52, 0
2, 48765, Control_c, 0, 64, 66
2, 48783, Control_c, 0, 64, 69
2, 48800, Control_c, 0, 64, 72
2, 48823, Control_c, 0, 64, 75
2, 48841, Control_c, 0, 64, 77
2, 48851, Note_on_c, 0, 57, 0
2, 48862, Control_c, 0, 64, 78
2, 48880, Control_c, 0, 64, 77
2, 48916, Control_c, 0, 64, 76
2, 48936, Control_c, 0, 64, 75
2, 48959, Control_c, 0, 64, 73
2, 48977, Control_c, 0, 64, 71
2, 48981, Note_on_c, 0, 64, 0
2, 48994, Control_c, 0, 64, 69
2, 49004, Note_on_c, 0, 65, 41
2, 49013, Control_c, 0, 64, 68
2, 49031, Note_on_c, 0, 52, 40
2, 49033, Control_c, 0, 64, 66
2, 49053, Note_on_c, 0, 55, 0
2, 49057, Control_c, 0, 64, 61
2, 49070, Control_c, 0, 64, 54
2, 49089, Control_c, 0, 64, 42
2, 49102, Note_on_c, 0, 69, 44
2, 49109, Control_c, 0, 64, 10
2, 49129, Control_c, 0, 64, 0
2, 49202, Note_on_c, 0, 72, 60
2, 49206, Control_c, 0, 64, 18
2, 49223, Control_c, 0, 64, 39
2, 49244, Control_c, 0, 64, 52
2, 49264, Control_c, 0, 64, 60
2, 49282, Control_c, 0, 64, 63
2, 49321, Control_c, 0, 64, 64
2, 49341, Control_c, 0, 64, 65
2, 49358, Control_c, 0, 64, 67
2, 49382, Control_c, 0, 64, 70
2, 49383, Note_on_c, 0, 57, 38
2, 49397, Control_c, 0, 64, 72
2, 49419, Control_c, 0, 64, 74
2, 49419, Note_on_c, 0, 65, 0
2, 49436, Control_c, 0, 64, 76
2, 49452, Note_on_c, 0, 69, 0
2, 49474, Control_c, 0, 64, 77
2, 49609, Control_c, 0, 64, 76
2, 49653, Note_on_c, 0, 59, 48
2, 49666, Control_c, 0, 64, 75
2, 49685, Control_c, 0, 64, 74
2, 49705, Control_c, 0, 64, 73
2, 49727, Control_c, 0, 64, 72
2, 49727, Note_on_c, 0, 57, 0
2, 49745, Control_c, 0, 64, 70
2, 49764, Control_c, 0, 64, 68
2, 49776, Note_on_c, 0, 71, 56
2, 49782, Control_c, 0, 64, 66
2, 49786, Note_on_c, 0, 72, 0
2, 49800, Control_c, 0, 64, 64
2, 49820, Control_c, 0, 64, 63
2, 49857, Control_c, 0, 64, 62
2, 49873, Note_on_c, 0, 71, 0
2, 49885, Note_on_c, 0, 69, 57
2, 49896, Control_c, 0, 64, 61
2, 49920, Control_c, 0, 64, 60
2, 49920, Note_on_c, 0, 60, 41
2, 49922, Note_on_c, 0, 59, 0
2, 49954, Control_c, 0, 64, 59
2, 49992, Control_c, 0, 64, 58
2, 50011, Note_on_c, 0, 69, 0
2, 50015, Note_on_c, 0, 71, 64
2, 50032, Control_c, 0, 64, 56
2, 50050, Control_c, 0, 64, 55
2, 50071, Control_c, 0, 64, 53
2, 50087, Control_c, 0, 64, 52
2, 50110, Control_c, 0, 64, 50
2, 50128, Control_c, 0, 64, 48
2, 50137, Note_on_c, 0, 72, 66
2, 50146, Control_c, 0, 64, 44
2, 50146, Note_on_c, 0, 71, 0
2, 50152, Note_on_c, 0, 59, 44
2, 50167, Control_c, 0, 64, 39
2, 50172, Note_on_c, 0, 60, 0
2, 50185, Control_c, 0, 64, 33
2, 50206, Control_c, 0, 64, 27
2, 50224, Control_c, 0, 64, 19
2, 50242, Control_c, 0, 64, 9
2, 50254, Note_on_c, 0, 72, 0
2, 50258, Note_on_c, 0, 74, 68
2, 50262, Control_c, 0, 64, 0
2, 50387, Note_on_c, 0, 60, 41
2, 50391, Note_on_c, 0, 72, 69
2, 50397, Note_on_c, 0, 74, 0
2, 50402, Note_on_c, 0, 59, 0
2, 50493, Note_on_c, 0, 72, 0
2, 50497, Note_on_c, 0, 71, 66
2, 50626, Note_on_c, 0, 72, 73
2, 50642, Note_on_c, 0, 71, 0
2, 50654, Note_on_c, 0, 59, 44
2, 50660, Note_on_c, 0, 60, 0
2, 50704, Control_c, 0, 64, 25
2, 50725, Control_c, 0, 64, 36
2, 50743, Control_c, 0, 64, 45
2, 50760, Control_c, 0, 64, 53
2, 50780, Control_c, 0, 64, 58
2, 50799, Control_c, 0, 64, 60
2, 50819, Control_c, 0, 64, 61
2, 50840, Control_c, 0, 64, 62
2, 50877, Control_c, 0, 64, 63
2, 50881, Note_on_c, 0, 52, 0
2, 50894, Control_c, 0, 64, 64
2, 50903, Note_on_c, 0, 74, 66
2, 50918, Control_c, 0, 64, 65
2, 50918, Note_on_c, 0, 57, 46
2, 50918, Note_on_c, 0, 72, 0
2, 50934, Control_c, 0, 64, 66
2, 50953, Control_c, 0, 64, 67
2, 50971, Control_c, 0, 64, 68
2, 50994, Note_on_c, 0, 59, 0
2, 51126, Control_c, 0, 64, 67
2, 51143, Note_on_c, 0, 74, 0
2, 51166, Control_c, 0, 64, 64
2, 51186, Control_c, 0, 64, 57
2, 51201, Control_c, 0, 64, 40
2, 51208, Note_on_c, 0, 57, 0
2, 51208, Note_on_c, 0, 65, 36
2, 51213, Note_on_c, 0, 76, 55
2, 51218, Note_on_c, 0, 50, 40
2, 51223, Control_c, 0, 64, 0
2, 51250, Note_on_c, 0, 71, 39
2, 51282, Control_c, 0, 64, 37
2, 51295, Note_on_c, 0, 71, 0
2, 51299, Control_c, 0, 64, 54
2, 51320, Control_c, 0, 64, 63
2, 51335, Control_c, 0, 64, 67
2, 51343, Note_on_c, 0, 65, 0
2, 51355, Control_c, 0, 64, 71
2, 51376, Control_c, 0, 64, 75
2, 51395, Control_c, 0, 64, 78
2, 51481, Note_on_c, 0, 50, 0
2, 51505, Note_on_c, 0, 76, 0
2, 51515, Note_on_c, 0, 59, 41
2, 51520, Note_on_c, 0, 74, 48
2, 51588, Control_c, 0, 64, 77
2, 51606, Note_on_c, 0, 74, 0
2, 51644, Control_c, 0, 64, 76
2, 51664, Note_on_c, 0, 76, 58
2, 51722, Control_c, 0, 64, 75
2, 51731, Note_on_c, 0, 76, 0
2, 51741, Control_c, 0, 64, 74
2, 51760, Control_c, 0, 64, 73
2, 51765, Note_on_c, 0, 74, 57
2, 51774, Note_on_c, 0, 60, 40
2, 51778, Control_c, 0, 64, 72
2, 51818, Control_c, 0, 64, 71
2, 51818, Note_on_c, 0, 74, 0
2, 51835, Control_c, 0, 64, 70
2, 51853, Note_on_c, 0, 59, 0
2, 51862, Note_on_c, 0, 76, 57
2, 51873, Control_c, 0, 64, 69
2, 51903, Note_on_c, 0, 76, 0
2, 51934, Control_c, 0, 64, 68
2, 51938, Note_on_c, 0, 74, 61
2, 51954, Control_c, 0, 64, 67
2, 51969, Control_c, 0, 64, 66
2, 51982, Note_on_c, 0, 74, 0
2, 51990, Control_c, 0, 64, 65
2, 52004, Note_on_c, 0, 76, 68
2, 52027, Control_c, 0, 64, 64
2, 52048, Note_on_c, 0, 62, 41
2, 52057, Note_on_c, 0, 76, 0
2, 52075, Note_on_c, 0, 60, 0
2, 52086, Note_on_c, 0, 74, 70
2, 52105, Control_c, 0, 64, 63
2, 52136, Note_on_c, 0, 74, 0
2, 52142, Control_c, 0, 64, 62
2, 52164, Control_c, 0, 64, 61
2, 52182, Note_on_c, 0, 76, 70
2, 52200, Control_c, 0, 64, 60
2, 52220, Note_on_c, 0, 76, 0
2, 52240, Control_c, 0, 64, 59
2, 52253, Note_on_c, 0, 74, 67
2, 52297, Control_c, 0, 64, 58
2, 52297, Note_on_c, 0, 74, 0
2, 52309, Note_on_c, 0, 60, 49
2, 52320, Note_on_c, 0, 76, 74
2, 52325, Note_on_c, 0, 62, 0
2, 52357, Control_c, 0, 64, 57
2, 52377, Note_on_c, 0, 76, 0
2, 52394, Control_c, 0, 64, 56
2, 52399, Note_on_c, 0, 74, 74
2, 52455, Note_on_c, 0, 74, 0
2, 52492, Note_on_c, 0, 76, 71
2, 52534, Note_on_c, 0, 76, 0
2, 52547, Control_c, 0, 64, 57
2, 52552, Note_on_c, 0, 74, 68
2, 52583, Note_on_c, 0, 62, 47
2, 52604, Control_c, 0, 64, 55
2, 52610, Note_on_c, 0, 74, 0
2, 52625, Control_c, 0, 64, 48
2, 52641, Control_c, 0, 64, 18
2, 52654, Note_on_c, 0, 76, 62
2, 52658, Note_on_c, 0, 60, 0
2, 52663, Control_c, 0, 64, 0
2, 52679, Note_on_c, 0, 76, 0
2, 52700, Note_on_c, 0, 74, 65
2, 52749, Note_on_c, 0, 74, 0
2, 52757, Control_c, 0, 64, 16
2, 52772, Note_on_c, 0, 76, 64
2, 52776, Control_c, 0, 64, 48
2, 52798, Control_c, 0, 64, 61
2, 52817, Control_c, 0, 64, 67
2, 52817, Note_on_c, 0, 76, 0
2, 52836, Control_c, 0, 64, 72
2, 52847, Note_on_c, 0, 74, 57
2, 52854, Note_on_c, 0, 60, 51
2, 52858, Control_c, 0, 64, 79
2, 52876, Control_c, 0, 64, 90
2, 52894, Control_c, 0, 64, 127
2, 52907, Note_on_c, 0, 62, 0
2, 53101, Note_on_c, 0, 74, 0
2, 53119, Note_on_c, 0, 72, 72
2, 53130, Note_on_c, 0, 59, 49
2, 53139, Note_on_c, 0, 60, 0
2, 53168, Note_on_c, 0, 59, 0
2, 53252, Note_on_c, 0, 74, 68
2, 53279, Note_on_c, 0, 72, 0
2, 53302, Note_on_c, 0, 74, 0
2, 53429, Control_c, 0, 64, 105
2, 53437, Note_on_c, 0, 48, 38
2, 53451, Control_c, 0, 64, 89
2, 53451, Note_on_c, 0, 76, 70
2, 53471, Control_c, 0, 64, 78
2, 53480, Note_on_c, 0, 67, 40
2, 53491, Control_c, 0, 64, 70
2, 53504, Control_c, 0, 64, 65
2, 53524, Control_c, 0, 64, 61
2, 53544, Control_c, 0, 64, 59
2, 53563, Control_c, 0, 64, 56
2, 53583, Note_on_c, 0, 72, 43
2, 53587, Control_c, 0, 64, 54
2, 53605, Control_c, 0, 64, 51
2, 53624, Control_c, 0, 64, 48
2, 53641, Control_c, 0, 64, 45
2, 53660, Control_c, 0, 64, 42
2, 53680, Control_c, 0, 64, 40
2, 53701, Control_c, 0, 64, 39
2, 53717, Control_c, 0, 64, 38
2, 53735, Control_c, 0, 64, 35
2, 53757, Control_c, 0, 64, 33
2, 53761, Note_on_c, 0, 50, 34
2, 53775, Control_c, 0, 64, 31
2, 53793, Control_c, 0, 64, 30
2, 53816, Control_c, 0, 64, 29
2, 53834, Control_c, 0, 64, 27
2, 53853, Control_c, 0, 64, 26
2, 53871, Control_c, 0, 64, 24
2, 53891, Control_c, 0, 64, 22
2, 53910, Control_c, 0, 64, 20
2, 53928, Control_c, 0, 64, 19
2, 53948, Control_c, 0, 64, 18
2, 53966, Control_c, 0, 64, 17
2, 53985, Control_c, 0, 64, 15
2, 54007, Control_c, 0, 64, 11
2, 54023, Control_c, 0, 64, 0
2, 54048, Note_on_c, 0, 52, 39
2, 54097, Note_on_c, 0, 50, 0
2, 54295, Note_on_c, 0, 53, 36
2, 54321, Note_on_c, 0, 52, 0
2, 54566, Note_on_c, 0, 52, 36
2, 54582, Note_on_c, 0, 53, 0
2, 54677, Control_c, 0, 64, 8
2, 54696, Control_c, 0, 64, 13
2, 54716, Control_c, 0, 64, 15
2, 54734, Control_c, 0, 64, 17
2, 54755, Control_c, 0, 64, 20
2, 54775, Control_c, 0, 64, 23
2, 54794, Control_c, 0, 64, 26
2, 54811, Control_c, 0, 64, 30
2, 54831, Control_c, 0, 64, 34
2, 54841, Note_on_c, 0, 53, 33
2, 54853, Control_c, 0, 64, 37
2, 54866, Note_on_c, 0, 52, 0
2, 54871, Control_c, 0, 64, 41
2, 54891, Control_c, 0, 64, 43
2, 54907, Control_c, 0, 64, 46
2, 54927, Control_c, 0, 64, 49
2, 54948, Control_c, 0, 64, 51
2, 54965, Control_c, 0, 64, 54
2, 54985, Control_c, 0, 64, 56
2, 55004, Control_c, 0, 64, 57
2, 55023, Control_c, 0, 64, 58
2, 55041, Control_c, 0, 64, 59
2, 55061, Control_c, 0, 64, 60
2, 55082, Control_c, 0, 64, 61
2, 55098, Control_c, 0, 64, 62
2, 55104, Note_on_c, 0, 52, 32
2, 55120, Control_c, 0, 64, 63
2, 55126, Note_on_c, 0, 53, 0
2, 55137, Control_c, 0, 64, 64
2, 55159, Control_c, 0, 64, 65
2, 55175, Control_c, 0, 64, 66
2, 55195, Control_c, 0, 64, 68
2, 55214, Control_c, 0, 64, 70
2, 55232, Note_on_c, 0, 72, 0
2, 55236, Control_c, 0, 64, 72
2, 55252, Control_c, 0, 64, 74
2, 55273, Control_c, 0, 64, 76
2, 55277, Note_on_c, 0, 67, 0
2, 55292, Control_c, 0, 64, 77
2, 55311, Control_c, 0, 64, 78
2, 55328, Control_c, 0, 64, 79
2, 55368, Control_c, 0, 64, 80
2, 55378, Note_on_c, 0, 50, 36
2, 55396, Note_on_c, 0, 48, 0
2, 55447, Control_c, 0, 64, 79
2, 55484, Control_c, 0, 64, 78
2, 55504, Note_on_c, 0, 52, 0
2, 55523, Control_c, 0, 64, 76
2, 55540, Control_c, 0, 64, 75
2, 55563, Control_c, 0, 64, 73
2, 55580, Control_c, 0, 64, 72
2, 55599, Control_c, 0, 64, 71
2, 55618, Control_c, 0, 64, 70
2, 55636, Control_c, 0, 64, 65
2, 55650, Note_on_c, 0, 64, 37
2, 55657, Control_c, 0, 64, 58
2, 55657, Note_on_c, 0, 67, 37
2, 55666, Note_on_c, 0, 48, 27
2, 55676, Control_c, 0, 64, 44
2, 55681, Note_on_c, 0, 50, 0
2, 55695, Control_c, 0, 64, 25
2, 55713, Control_c, 0, 64, 11
2, 55733, Control_c, 0, 64, 15
2, 55753, Control_c, 0, 64, 28
2, 55770, Control_c, 0, 64, 43
2, 55790, Control_c, 0, 64, 56
2, 55809, Control_c, 0, 64, 63
2, 55829, Control_c, 0, 64, 64
2, 55848, Control_c, 0, 64, 65
2, 55887, Control_c, 0, 64, 66
2, 55907, Control_c, 0, 64, 67
2, 55908, Note_on_c, 0, 76, 0
2, 55936, Note_on_c, 0, 52, 35
2, 55945, Control_c, 0, 64, 69
2, 56099, Control_c, 0, 64, 68
2, 56175, Control_c, 0, 64, 67
2, 56201, Note_on_c, 0, 74, 51
2, 56215, Note_on_c, 0, 53, 38
2, 56251, Control_c, 0, 64, 66
2, 56293, Note_on_c, 0, 52, 0
2, 56347, Control_c, 0, 64, 65
2, 56457, Note_on_c, 0, 72, 69
2, 56463, Control_c, 0, 64, 64
2, 56467, Note_on_c, 0, 55, 42
2, 56482, Note_on_c, 0, 74, 0
2, 56507, Note_on_c, 0, 53, 0
2, 56521, Control_c, 0, 64, 63
2, 56598, Control_c, 0, 64, 62
2, 56635, Control_c, 0, 64, 61
2, 56654, Control_c, 0, 64, 60
2, 56663, Note_on_c, 0, 67, 0
2, 56696, Control_c, 0, 64, 59
2, 56720, Note_on_c, 0, 53, 42
2, 56739, Note_on_c, 0, 74, 70
2, 56752, Control_c, 0, 64, 58
2, 56772, Note_on_c, 0, 55, 0
2, 56789, Control_c, 0, 64, 57
2, 56789, Note_on_c, 0, 72, 0
2, 56808, Control_c, 0, 64, 56
2, 56831, Control_c, 0, 64, 55
2, 56848, Control_c, 0, 64, 52
2, 56867, Control_c, 0, 64, 48
2, 56886, Control_c, 0, 64, 41
2, 56904, Control_c, 0, 64, 29
2, 56924, Control_c, 0, 64, 11
2, 56942, Control_c, 0, 64, 0
2, 56982, Note_on_c, 0, 71, 71
2, 56988, Note_on_c, 0, 55, 42
2, 57023, Note_on_c, 0, 53, 0
2, 57041, Note_on_c, 0, 74, 0
2, 57241, Note_on_c, 0, 68, 74
2, 57259, Note_on_c, 0, 53, 47
2, 57269, Control_c, 0, 64, 13
2, 57277, Note_on_c, 0, 71, 0
2, 57282, Note_on_c, 0, 55, 0
2, 57288, Control_c, 0, 64, 30
2, 57308, Control_c, 0, 64, 43
2, 57326, Control_c, 0, 64, 52
2, 57346, Control_c, 0, 64, 59
2, 57366, Control_c, 0, 64, 62
2, 57404, Control_c, 0, 64, 63
2, 57441, Control_c, 0, 64, 64
2, 57461, Control_c, 0, 64, 66
2, 57481, Control_c, 0, 64, 68
2, 57502, Control_c, 0, 64, 69
2, 57502, Note_on_c, 0, 69, 73
2, 57519, Note_on_c, 0, 52, 50
2, 57521, Control_c, 0, 64, 70
2, 57536, Control_c, 0, 64, 71
2, 57554, Note_on_c, 0, 48, 0
2, 57559, Control_c, 0, 64, 72
2, 57563, Note_on_c, 0, 68, 0
2, 57597, Control_c, 0, 64, 73
2, 57613, Note_on_c, 0, 64, 0
2, 57636, Note_on_c, 0, 69, 0
2, 57651, Note_on_c, 0, 53, 0
2, 57729, Control_c, 0, 64, 72
2, 57749, Control_c, 0, 64, 71
2, 57770, Control_c, 0, 64, 70
2, 57788, Control_c, 0, 64, 69
2, 57806, Control_c, 0, 64, 68
2, 57826, Control_c, 0, 64, 66
2, 57839, Note_on_c, 0, 74, 76
2, 57845, Control_c, 0, 64, 64
2, 57863, Note_on_c, 0, 48, 42
2, 57863, Note_on_c, 0, 66, 55
2, 57865, Control_c, 0, 64, 62
2, 57865, Note_on_c, 0, 69, 39
2, 57882, Control_c, 0, 64, 59
2, 57891, Note_on_c, 0, 52, 0
2, 57903, Control_c, 0, 64, 57
2, 57921, Control_c, 0, 64, 55
2, 57940, Control_c, 0, 64, 52
2, 57959, Control_c, 0, 64, 47
2, 57978, Control_c, 0, 64, 41
2, 57997, Control_c, 0, 64, 33
2, 58017, Control_c, 0, 64, 27
2, 58038, Control_c, 0, 64, 22
2, 58057, Control_c, 0, 64, 18
2, 58077, Control_c, 0, 64, 15
2, 58094, Control_c, 0, 64, 11
2, 58116, Control_c, 0, 64, 0
2, 58142, Note_on_c, 0, 54, 43
2, 58433, Note_on_c, 0, 55, 44
2, 58473, Note_on_c, 0, 54, 0
2, 58679, Note_on_c, 0, 57, 47
2, 58719, Note_on_c, 0, 55, 0
2, 58954, Note_on_c, 0, 55, 42
2, 58954, Note_on_c, 0, 57, 0
2, 59018, Control_c, 0, 64, 10
2, 59035, Control_c, 0, 64, 14
2, 59055, Control_c, 0, 64, 17
2, 59073, Control_c, 0, 64, 19
2, 59093, Control_c, 0, 64, 22
2, 59111, Control_c, 0, 64, 27
2, 59131, Control_c, 0, 64, 31
2, 59153, Control_c, 0, 64, 34
2, 59169, Control_c, 0, 64, 36
2, 59187, Control_c, 0, 64, 38
2, 59208, Control_c, 0, 64, 42
2, 59218, Note_on_c, 0, 57, 42
2, 59227, Control_c, 0, 64, 47
2, 59234, Note_on_c, 0, 55, 0
2, 59247, Control_c, 0, 64, 54
2, 59265, Control_c, 0, 64, 58
2, 59284, Control_c, 0, 64, 60
2, 59303, Control_c, 0, 64, 61
2, 59323, Control_c, 0, 64, 62
2, 59342, Control_c, 0, 64, 63
2, 59351, Note_on_c, 0, 69, 0
2, 59363, Control_c, 0, 64, 65
2, 59381, Control_c, 0, 64, 68
2, 59401, Control_c, 0, 64, 71
2, 59414, Note_on_c, 0, 66, 0
2, 59419, Control_c, 0, 64, 75
2, 59440, Control_c, 0, 64, 78
2, 59459, Control_c, 0, 64, 82
2, 59478, Control_c, 0, 64, 85
2, 59482, Note_on_c, 0, 55, 45
2, 59499, Control_c, 0, 64, 88
2, 59518, Control_c, 0, 64, 90
2, 59531, Note_on_c, 0, 57, 0
2, 59631, Control_c, 0, 64, 89
2, 59650, Control_c, 0, 64, 88
2, 59669, Control_c, 0, 64, 86
2, 59688, Control_c, 0, 64, 85
2, 59709, Control_c, 0, 64, 83
2, 59713, Note_on_c, 0, 48, 0
2, 59726, Control_c, 0, 64, 81
2, 59735, Note_on_c, 0, 54, 45
2, 59746, Control_c, 0, 64, 80
2, 59766, Control_c, 0, 64, 78
2, 59784, Control_c, 0, 64, 77
2, 59804, Control_c, 0, 64, 76
2, 59819, Note_on_c, 0, 55, 0
2, 59824, Control_c, 0, 64, 75
2, 59841, Control_c, 0, 64, 74
2, 59862, Control_c, 0, 64, 72
2, 59883, Control_c, 0, 64, 67
2, 59900, Control_c, 0, 64, 58
2, 59921, Control_c, 0, 64, 39
2, 59937, Control_c, 0, 64, 0
2, 60011, Note_on_c, 0, 71, 50
2, 60015, Control_c, 0, 64, 36
2, 60015, Note_on_c, 0, 68, 44
2, 60020, Note_on_c, 0, 47, 43
2, 60034, Control_c, 0, 64, 54
2, 60054, Control_c, 0, 64, 63
2, 60071, Control_c, 0, 64, 67
2, 60080, Note_on_c, 0, 54, 0
2, 60091, Control_c, 0, 64, 69
2, 60091, Note_on_c, 0, 74, 0
2, 60102, Note_on_c, 0, 47, 0
2, 60111, Control_c, 0, 64, 71
2, 60130, Control_c, 0, 64, 73
2, 60149, Control_c, 0, 64, 77
2, 60167, Control_c, 0, 64, 80
2, 60187, Control_c, 0, 64, 82
2, 60234, Note_on_c, 0, 68, 0
2, 60289, Note_on_c, 0, 77, 68
2, 60298, Note_on_c, 0, 71, 0
2, 60303, Note_on_c, 0, 56, 42
2, 60323, Control_c, 0, 64, 81
2, 60380, Control_c, 0, 64, 80
2, 60437, Control_c, 0, 64, 79
2, 60493, Control_c, 0, 64, 78
2, 60513, Control_c, 0, 64, 77
2, 60534, Control_c, 0, 64, 76
2, 60554, Note_on_c, 0, 57, 50
2, 60563, Note_on_c, 0, 76, 76
2, 60571, Control_c, 0, 64, 75
2, 60589, Control_c, 0, 64, 74
2, 60610, Control_c, 0, 64, 73
2, 60626, Note_on_c, 0, 56, 0
2, 60648, Control_c, 0, 64, 72
2, 60660, Note_on_c, 0, 77, 0
2, 60687, Control_c, 0, 64, 71
2, 60706, Control_c, 0, 64, 70
2, 60745, Control_c, 0, 64, 69
2, 60765, Control_c, 0, 64, 68
2, 60801, Control_c, 0, 64, 67
2, 60807, Note_on_c, 0, 74, 78
2, 60822, Note_on_c, 0, 59, 47
2, 60827, Note_on_c, 0, 57, 0
2, 60859, Control_c, 0, 64, 66
2, 60896, Note_on_c, 0, 76, 0
2, 60917, Control_c, 0, 64, 65
2, 60956, Note_on_c, 0, 74, 0
2, 60975, Control_c, 0, 64, 64
2, 61030, Control_c, 0, 64, 63
2, 61071, Control_c, 0, 64, 62
2, 61078, Note_on_c, 0, 57, 41
2, 61092, Control_c, 0, 64, 61
2, 61103, Note_on_c, 0, 59, 0
2, 61132, Control_c, 0, 64, 60
2, 61132, Note_on_c, 0, 74, 57
2, 61148, Control_c, 0, 64, 59
2, 61167, Control_c, 0, 64, 58
2, 61185, Control_c, 0, 64, 57
2, 61206, Control_c, 0, 64, 55
2, 61210, Note_on_c, 0, 74, 0
2, 61227, Control_c, 0, 64, 54
2, 61232, Note_on_c, 0, 72, 64
2, 61244, Control_c, 0, 64, 51
2, 61263, Control_c, 0, 64, 48
2, 61285, Control_c, 0, 64, 45
2, 61285, Note_on_c, 0, 72, 0
2, 61301, Control_c, 0, 64, 39
2, 61317, Note_on_c, 0, 74, 58
2, 61321, Control_c, 0, 64, 31
2, 61342, Control_c, 0, 64, 13
2, 61362, Control_c, 0, 64, 0
2, 61366, Note_on_c, 0, 74, 0
2, 61376, Note_on_c, 0, 59, 31
2, 61381, Note_on_c, 0, 72, 65
2, 61390, Note_on_c, 0, 57, 0
2, 61421, Note_on_c, 0, 72, 0
2, 61447, Note_on_c, 0, 74, 65
2, 61492, Note_on_c, 0, 74, 0
2, 61503, Note_on_c, 0, 72, 66
2, 61592, Control_c, 0, 64, 40
2, 61608, Control_c, 0, 64, 53
2, 61631, Control_c, 0, 64, 60
2, 61648, Control_c, 0, 64, 62
2, 61653, Note_on_c, 0, 57, 36
2, 61667, Control_c, 0, 64, 63
2, 61684, Control_c, 0, 64, 64
2, 61684, Note_on_c, 0, 59, 0
2, 61703, Control_c, 0, 64, 65
2, 61712, Note_on_c, 0, 72, 0
2, 61725, Control_c, 0, 64, 67
2, 61742, Control_c, 0, 64, 69
2, 61764, Control_c, 0, 64, 70
2, 61782, Control_c, 0, 64, 71
2, 61800, Control_c, 0, 64, 72
2, 61840, Control_c, 0, 64, 73
2, 61859, Control_c, 0, 64, 74
2, 61878, Control_c, 0, 64, 75
2, 61896, Control_c, 0, 64, 77
2, 61914, Control_c, 0, 64, 78
2, 61929, Note_on_c, 0, 74, 55
2, 61936, Control_c, 0, 64, 80
2, 61954, Control_c, 0, 64, 81
2, 61958, Note_on_c, 0, 56, 38
2, 61974, Control_c, 0, 64, 84
2, 61996, Control_c, 0, 64, 86
2, 62012, Control_c, 0, 64, 87
2, 62025, Note_on_c, 0, 56, 0
2, 62029, Note_on_c, 0, 57, 0
2, 62070, Note_on_c, 0, 71, 57
2, 62074, Note_on_c, 0, 74, 0
2, 62132, Note_on_c, 0, 71, 0
2, 62167, Control_c, 0, 64, 86
2, 62242, Control_c, 0, 64, 85
2, 62262, Control_c, 0, 64, 84
2, 62280, Control_c, 0, 64, 83
2, 62299, Control_c, 0, 64, 81
2, 62318, Control_c, 0, 64, 79
2, 62327, Note_on_c, 0, 72, 57
2, 62336, Control_c, 0, 64, 76
2, 62359, Control_c, 0, 64, 73
2, 62363, Note_on_c, 0, 57, 34
2, 62376, Control_c, 0, 64, 69
2, 62389, Note_on_c, 0, 69, 26
2, 62397, Control_c, 0, 64, 65
2, 62397, Note_on_c, 0, 64, 23
2, 62415, Control_c, 0, 64, 63
2, 62435, Control_c, 0, 64, 62
2, 62454, Control_c, 0, 64, 61
2, 62472, Control_c, 0, 64, 60
2, 62492, Control_c, 0, 64, 59
2, 62530, Control_c, 0, 64, 58
2, 62549, Control_c, 0, 64, 57
2, 62571, Control_c, 0, 64, 56
2, 62605, Control_c, 0, 64, 55
2, 62646, Control_c, 0, 64, 54
2, 62666, Control_c, 0, 64, 53
2, 62682, Control_c, 0, 64, 52
2, 62704, Note_on_c, 0, 59, 29
2, 62722, Control_c, 0, 64, 51
2, 62759, Control_c, 0, 64, 50
2, 62818, Control_c, 0, 64, 49
2, 62972, Control_c, 0, 64, 48
2, 62974, Note_on_c, 0, 60, 33
2, 63029, Note_on_c, 0, 59, 0
2, 63248, Note_on_c, 0, 62, 21
2, 63278, Note_on_c, 0, 60, 0
2, 63355, Control_c, 0, 64, 49
2, 63394, Control_c, 0, 64, 50
2, 63432, Control_c, 0, 64, 51
2, 63454, Control_c, 0, 64, 52
2, 63472, Control_c, 0, 64, 53
2, 63488, Control_c, 0, 64, 54
2, 63508, Control_c, 0, 64, 55
2, 63521, Note_on_c, 0, 60, 29
2, 63528, Control_c, 0, 64, 56
2, 63532, Note_on_c, 0, 62, 0
2, 63547, Control_c, 0, 64, 57
2, 63565, Control_c, 0, 64, 58
2, 63606, Control_c, 0, 64, 59
2, 63627, Control_c, 0, 64, 60
2, 63643, Control_c, 0, 64, 61
2, 63682, Control_c, 0, 64, 62
2, 63759, Control_c, 0, 64, 63
2, 63792, Note_on_c, 0, 62, 36
2, 63797, Control_c, 0, 64, 64
2, 63817, Control_c, 0, 64, 65
2, 63833, Note_on_c, 0, 60, 0
2, 63856, Control_c, 0, 64, 66
2, 63874, Control_c, 0, 64, 67
2, 63893, Control_c, 0, 64, 68
2, 63912, Control_c, 0, 64, 69
2, 63931, Control_c, 0, 64, 70
2, 63950, Control_c, 0, 64, 71
2, 63988, Control_c, 0, 64, 72
2, 64038, Note_on_c, 0, 60, 36
2, 64053, Note_on_c, 0, 69, 0
2, 64062, Note_on_c, 0, 62, 0
2, 64066, Control_c, 0, 64, 73
2, 64163, Control_c, 0, 64, 74
2, 64179, Note_on_c, 0, 64, 0
2, 64304, Note_on_c, 0, 59, 43
2, 64373, Control_c, 0, 64, 73
2, 64430, Control_c, 0, 64, 72
2, 64442, Note_on_c, 0, 57, 0
2, 64469, Control_c, 0, 64, 71
2, 64506, Control_c, 0, 64, 70
2, 64528, Control_c, 0, 64, 69
2, 64547, Control_c, 0, 64, 68
2, 64564, Control_c, 0, 64, 67
2, 64575, Note_on_c, 0, 69, 44
2, 64580, Note_on_c, 0, 64, 39
2, 64584, Control_c, 0, 64, 66
2, 64596, Note_on_c, 0, 59, 0
2, 64603, Note_on_c, 0, 55, 35
2, 64607, Control_c, 0, 64, 64
2, 64623, Control_c, 0, 64, 62
2, 64635, Note_on_c, 0, 60, 0
2, 64643, Control_c, 0, 64, 60
2, 64661, Control_c, 0, 64, 57
2, 64680, Control_c, 0, 64, 55
2, 64701, Control_c, 0, 64, 53
2, 64718, Control_c, 0, 64, 52
2, 64758, Control_c, 0, 64, 54
2, 64777, Control_c, 0, 64, 55
2, 64798, Control_c, 0, 64, 56
2, 64817, Control_c, 0, 64, 57
2, 64834, Control_c, 0, 64, 58
2, 64856, Note_on_c, 0, 57, 43
2, 65083, Control_c, 0, 64, 57
2, 65108, Note_on_c, 0, 59, 50
2, 65180, Note_on_c, 0, 57, 0
2, 65360, Note_on_c, 0, 60, 47
2, 65412, Control_c, 0, 64, 56
2, 65421, Note_on_c, 0, 59, 0
2, 65566, Control_c, 0, 64, 55
2, 65583, Control_c, 0, 64, 54
2, 65601, Control_c, 0, 64, 53
2, 65620, Control_c, 0, 64, 51
2, 65643, Control_c, 0, 64, 49
2, 65643, Note_on_c, 0, 59, 47
2, 65660, Control_c, 0, 64, 46
2, 65670, Note_on_c, 0, 60, 0
2, 65681, Control_c, 0, 64, 42
2, 65697, Control_c, 0, 64, 39
2, 65719, Control_c, 0, 64, 38
2, 65775, Control_c, 0, 64, 39
2, 65794, Control_c, 0, 64, 41
2, 65812, Control_c, 0, 64, 44
2, 65833, Control_c, 0, 64, 47
2, 65853, Control_c, 0, 64, 52
2, 65869, Control_c, 0, 64, 56
2, 65890, Control_c, 0, 64, 57
2, 65905, Note_on_c, 0, 60, 47
2, 65909, Control_c, 0, 64, 58
2, 65929, Control_c, 0, 64, 59
2, 65960, Note_on_c, 0, 59, 0
2, 65970, Control_c, 0, 64, 60
2, 65986, Control_c, 0, 64, 61
2, 66006, Control_c, 0, 64, 62
2, 66015, Note_on_c, 0, 69, 0
2, 66034, Note_on_c, 0, 64, 0
2, 66042, Control_c, 0, 64, 63
2, 66100, Control_c, 0, 64, 64
2, 66119, Control_c, 0, 64, 65
2, 66142, Control_c, 0, 64, 66
2, 66170, Note_on_c, 0, 59, 51
2, 66177, Control_c, 0, 64, 67
2, 66217, Control_c, 0, 64, 68
2, 66217, Note_on_c, 0, 60, 0
2, 66274, Control_c, 0, 64, 69
2, 66294, Control_c, 0, 64, 70
2, 66314, Control_c, 0, 64, 71
2, 66351, Control_c, 0, 64, 72
2, 66389, Control_c, 0, 64, 73
2, 66402, Note_on_c, 0, 55, 0
2, 66415, Note_on_c, 0, 57, 55
2, 66601, Control_c, 0, 64, 72
2, 66637, Control_c, 0, 64, 71
2, 66676, Control_c, 0, 64, 70
2, 66695, Control_c, 0, 64, 69
2, 66710, Note_on_c, 0, 69, 58
2, 66716, Control_c, 0, 64, 68
2, 66729, Note_on_c, 0, 63, 49
2, 66736, Control_c, 0, 64, 67
2, 66754, Note_on_c, 0, 54, 44
2, 66774, Control_c, 0, 64, 66
2, 66791, Control_c, 0, 64, 65
2, 66811, Note_on_c, 0, 57, 0
2, 66815, Control_c, 0, 64, 63
2, 66830, Control_c, 0, 64, 62
2, 66864, Note_on_c, 0, 59, 0
2, 66868, Control_c, 0, 64, 61
2, 66889, Control_c, 0, 64, 60
2, 66906, Control_c, 0, 64, 59
2, 66926, Control_c, 0, 64, 58
2, 66965, Control_c, 0, 64, 57
2, 67023, Control_c, 0, 64, 56
2, 67028, Note_on_c, 0, 57, 50
2, 67100, Control_c, 0, 64, 55
2, 67197, Control_c, 0, 64, 54
2, 67300, Note_on_c, 0, 59, 51
2, 67310, Control_c, 0, 64, 53
2, 67418, Note_on_c, 0, 57, 0
2, 67444, Control_c, 0, 64, 52
2, 67542, Control_c, 0, 64, 51
2, 67560, Note_on_c, 0, 60, 45
2, 67564, Control_c, 0, 64, 50
2, 67580, Control_c, 0, 64, 49
2, 67598, Control_c, 0, 64, 47
2, 67602, Note_on_c, 0, 59, 0
2, 67617, Control_c, 0, 64, 45
2, 67636, Control_c, 0, 64, 41
2, 67656, Control_c, 0, 64, 37
2, 67678, Control_c, 0, 64, 33
2, 67695, Control_c, 0, 64, 28
2, 67715, Control_c, 0, 64, 25
2, 67732, Control_c, 0, 64, 24
2, 67790, Control_c, 0, 64, 25
2, 67811, Control_c, 0, 64, 28
2, 67832, Control_c, 0, 64, 33
2, 67836, Note_on_c, 0, 59, 51
2, 67847, Control_c, 0, 64, 42
2, 67867, Control_c, 0, 64, 50
2, 67867, Note_on_c, 0, 60, 0
2, 67887, Control_c, 0, 64, 56
2, 67897, Note_on_c, 0, 69, 0
2, 67908, Control_c, 0, 64, 60
2, 67943, Control_c, 0, 64, 61
2, 67983, Control_c, 0, 64, 62
2, 68061, Control_c, 0, 64, 60
2, 68078, Control_c, 0, 64, 57
2, 68092, Note_on_c, 0, 69, 53
2, 68101, Control_c, 0, 64, 53
2, 68101, Note_on_c, 0, 60, 43
2, 68118, Control_c, 0, 64, 51
2, 68136, Control_c, 0, 64, 48
2, 68140, Note_on_c, 0, 59, 0
2, 68156, Control_c, 0, 64, 47
2, 68176, Control_c, 0, 64, 48
2, 68193, Control_c, 0, 64, 50
2, 68212, Control_c, 0, 64, 55
2, 68233, Control_c, 0, 64, 59
2, 68253, Control_c, 0, 64, 62
2, 68272, Control_c, 0, 64, 63
2, 68290, Control_c, 0, 64, 64
2, 68307, Control_c, 0, 64, 65
2, 68329, Control_c, 0, 64, 67
2, 68348, Control_c, 0, 64, 69
2, 68361, Note_on_c, 0, 68, 67
2, 68370, Control_c, 0, 64, 72
2, 68370, Note_on_c, 0, 59, 49
2, 68388, Control_c, 0, 64, 76
2, 68403, Note_on_c, 0, 69, 0
2, 68405, Control_c, 0, 64, 81
2, 68426, Note_on_c, 0, 63, 0
2, 68427, Control_c, 0, 64, 85
2, 68444, Control_c, 0, 64, 90
2, 68463, Control_c, 0, 64, 94
2, 68468, Note_on_c, 0, 60, 0
2, 68484, Control_c, 0, 64, 97
2, 68500, Control_c, 0, 64, 99
2, 68596, Note_on_c, 0, 69, 64
2, 68601, Note_on_c, 0, 57, 53
2, 68625, Note_on_c, 0, 54, 0
2, 68647, Note_on_c, 0, 68, 0
2, 68662, Note_on_c, 0, 72, 0
2, 68693, Control_c, 0, 64, 98
2, 68730, Note_on_c, 0, 69, 0
2, 68734, Control_c, 0, 64, 97
2, 68751, Control_c, 0, 64, 96
2, 68771, Control_c, 0, 64, 95
2, 68792, Control_c, 0, 64, 94
2, 68808, Control_c, 0, 64, 92
2, 68826, Control_c, 0, 64, 90
2, 68848, Control_c, 0, 64, 88
2, 68866, Control_c, 0, 64, 85
2, 68879, Note_on_c, 0, 72, 72
2, 68884, Note_on_c, 0, 52, 51
2, 68888, Control_c, 0, 64, 80
2, 68906, Control_c, 0, 64, 75
2, 68921, Note_on_c, 0, 64, 48
2, 68925, Control_c, 0, 64, 69
2, 68925, Note_on_c, 0, 69, 24
2, 68942, Control_c, 0, 64, 64
2, 68963, Control_c, 0, 64, 62
2, 68963, Note_on_c, 0, 57, 0
2, 68983, Control_c, 0, 64, 60
2, 68996, Note_on_c, 0, 59, 0
2, 68996, Note_on_c, 0, 69, 0
2, 69001, Control_c, 0, 64, 59
2, 69019, Control_c, 0, 64, 58
2, 69057, Control_c, 0, 64, 57
2, 69075, Control_c, 0, 64, 56
2, 69095, Control_c, 0, 64, 55
2, 69114, Control_c, 0, 64, 54
2, 69153, Control_c, 0, 64, 53
2, 69159, Note_on_c, 0, 57, 50
2, 69164, Note_on_c, 0, 69, 59
2, 69192, Control_c, 0, 64, 52
2, 69211, Control_c, 0, 64, 51
2, 69230, Control_c, 0, 64, 50
2, 69249, Control_c, 0, 64, 49
2, 69268, Control_c, 0, 64, 48
2, 69287, Control_c, 0, 64, 47
2, 69309, Control_c, 0, 64, 46
2, 69326, Control_c, 0, 64, 45
2, 69345, Note_on_c, 0, 64, 0
2, 69350, Control_c, 0, 64, 44
2, 69364, Control_c, 0, 64, 43
2, 69383, Control_c, 0, 64, 42
2, 69402, Control_c, 0, 64, 41
2, 69420, Note_on_c, 0, 68, 67
2, 69424, Control_c, 0, 64, 39
2, 69424, Note_on_c, 0, 59, 52
2, 69441, Control_c, 0, 64, 38
2, 69458, Note_on_c, 0, 69, 0
2, 69460, Control_c, 0, 64, 36
2, 69480, Control_c, 0, 64, 34
2, 69499, Control_c, 0, 64, 33
2, 69517, Control_c, 0, 64, 31
2, 69530, Note_on_c, 0, 57, 0
2, 69537, Control_c, 0, 64, 30
2, 69558, Control_c, 0, 64, 27
2, 69578, Control_c, 0, 64, 24
2, 69594, Control_c, 0, 64, 20
2, 69616, Control_c, 0, 64, 15
2, 69633, Control_c, 0, 64, 11
2, 69653, Control_c, 0, 64, 0
2, 69676, Note_on_c, 0, 60, 54
2, 69680, Note_on_c, 0, 69, 66
2, 69713, Note_on_c, 0, 68, 0
2, 69726, Note_on_c, 0, 59, 0
2, 69866, Note_on_c, 0, 72, 0
2, 69945, Note_on_c, 0, 59, 52
2, 69945, Note_on_c, 0, 64, 69
2, 69987, Note_on_c, 0, 60, 0
2, 69996, Note_on_c, 0, 69, 0
2, 70203, Note_on_c, 0, 60, 53
2, 70203, Note_on_c, 0, 69, 69
2, 70268, Note_on_c, 0, 59, 0
2, 70332, Note_on_c, 0, 64, 0
2, 70459, Control_c, 0, 64, 16
2, 70476, Note_on_c, 0, 68, 80
2, 70481, Control_c, 0, 64, 22
2, 70485, Note_on_c, 0, 59, 58
2, 70500, Control_c, 0, 64, 27
2, 70516, Control_c, 0, 64, 34
2, 70537, Control_c, 0, 64, 43
2, 70549, Note_on_c, 0, 69, 0
2, 70556, Control_c, 0, 64, 51
2, 70571, Note_on_c, 0, 60, 0
2, 70573, Control_c, 0, 64, 57
2, 70592, Control_c, 0, 64, 60
2, 70612, Control_c, 0, 64, 61
2, 70632, Control_c, 0, 64, 62
2, 70654, Control_c, 0, 64, 63
2, 70671, Control_c, 0, 64, 64
2, 70690, Control_c, 0, 64, 66
2, 70710, Control_c, 0, 64, 68
2, 70729, Control_c, 0, 64, 71
2, 70733, Note_on_c, 0, 69, 73
2, 70742, Note_on_c, 0, 52, 0
2, 70746, Control_c, 0, 64, 75
2, 70746, Note_on_c, 0, 57, 59
2, 70765, Control_c, 0, 64, 79
2, 70785, Control_c, 0, 64, 83
2, 70797, Note_on_c, 0, 68, 0
2, 70805, Control_c, 0, 64, 87
2, 70826, Control_c, 0, 64, 89
2, 70844, Control_c, 0, 64, 90
2, 70870, Note_on_c, 0, 69, 0
2, 70883, Control_c, 0, 64, 89
2, 70919, Control_c, 0, 64, 88
2, 70938, Control_c, 0, 64, 86
2, 70960, Control_c, 0, 64, 85
2, 70976, Control_c, 0, 64, 82
2, 70996, Control_c, 0, 64, 80
2, 71015, Control_c, 0, 64, 77
2, 71035, Control_c, 0, 64, 73
2, 71057, Control_c, 0, 64, 68
2, 71063, Note_on_c, 0, 72, 78
2, 71074, Control_c, 0, 64, 64
2, 71088, Note_on_c, 0, 66, 55
2, 71094, Note_on_c, 0, 51, 42
2, 71095, Control_c, 0, 64, 60
2, 71099, Note_on_c, 0, 69, 42
2, 71113, Control_c, 0, 64, 57
2, 71130, Control_c, 0, 64, 55
2, 71141, Note_on_c, 0, 59, 0
2, 71145, Note_on_c, 0, 57, 0
2, 71155, Control_c, 0, 64, 52
2, 71170, Control_c, 0, 64, 47
2, 71187, Control_c, 0, 64, 41
2, 71209, Control_c, 0, 64, 35
2, 71228, Control_c, 0, 64, 31
2, 71247, Control_c, 0, 64, 28
2, 71265, Control_c, 0, 64, 25
2, 71287, Control_c, 0, 64, 23
2, 71303, Control_c, 0, 64, 21
2, 71326, Control_c, 0, 64, 20
2, 71386, Note_on_c, 0, 57, 43
2, 71629, Control_c, 0, 64, 21
2, 71663, Note_on_c, 0, 59, 49
2, 71671, Control_c, 0, 64, 22
2, 71773, Note_on_c, 0, 57, 0
2, 71899, Control_c, 0, 64, 23
2, 71920, Note_on_c, 0, 60, 47
2, 71957, Control_c, 0, 64, 24
2, 71977, Note_on_c, 0, 59, 0
2, 72192, Note_on_c, 0, 59, 42
2, 72241, Note_on_c, 0, 60, 0
2, 72244, Control_c, 0, 64, 25
2, 72263, Control_c, 0, 64, 26
2, 72284, Control_c, 0, 64, 27
2, 72322, Control_c, 0, 64, 28
2, 72341, Control_c, 0, 64, 29
2, 72361, Control_c, 0, 64, 30
2, 72379, Control_c, 0, 64, 31
2, 72399, Control_c, 0, 64, 33
2, 72417, Control_c, 0, 64, 35
2, 72439, Control_c, 0, 64, 38
2, 72454, Note_on_c, 0, 60, 41
2, 72456, Control_c, 0, 64, 43
2, 72477, Control_c, 0, 64, 48
2, 72494, Control_c, 0, 64, 53
2, 72513, Control_c, 0, 64, 55
2, 72531, Note_on_c, 0, 59, 0
2, 72571, Control_c, 0, 64, 56
2, 72591, Control_c, 0, 64, 57
2, 72609, Control_c, 0, 64, 58
2, 72628, Control_c, 0, 64, 59
2, 72634, Note_on_c, 0, 69, 0
2, 72650, Control_c, 0, 64, 60
2, 72650, Note_on_c, 0, 66, 0
2, 72724, Note_on_c, 0, 59, 44
2, 72801, Control_c, 0, 64, 61
2, 72824, Note_on_c, 0, 60, 0
2, 72977, Control_c, 0, 64, 62
2, 72994, Note_on_c, 0, 57, 49
2, 73054, Note_on_c, 0, 51, 0
2, 73248, Note_on_c, 0, 69, 56
2, 73259, Note_on_c, 0, 59, 0
2, 73259, Note_on_c, 0, 66, 52
2, 73272, Note_on_c, 0, 51, 38
2, 73283, Control_c, 0, 64, 61
2, 73298, Note_on_c, 0, 57, 0
2, 73322, Control_c, 0, 64, 60
2, 73342, Control_c, 0, 64, 59
2, 73358, Control_c, 0, 64, 58
2, 73396, Control_c, 0, 64, 57
2, 73436, Control_c, 0, 64, 56
2, 73491, Control_c, 0, 64, 55
2, 73541, Note_on_c, 0, 54, 48
2, 73550, Control_c, 0, 64, 54
2, 73588, Control_c, 0, 64, 53
2, 73645, Control_c, 0, 64, 52
2, 73685, Control_c, 0, 64, 51
2, 73763, Control_c, 0, 64, 50
2, 73800, Control_c, 0, 64, 49
2, 73815, Note_on_c, 0, 71, 74
2, 73821, Control_c, 0, 64, 47
2, 73821, Note_on_c, 0, 55, 50
2, 73839, Control_c, 0, 64, 42
2, 73860, Control_c, 0, 64, 33
2, 73874, Note_on_c, 0, 54, 0
2, 73878, Control_c, 0, 64, 18
2, 73895, Control_c, 0, 64, 0
2, 73919, Note_on_c, 0, 72, 0
2, 74011, Control_c, 0, 64, 9
2, 74031, Control_c, 0, 64, 24
2, 74049, Control_c, 0, 64, 34
2, 74067, Control_c, 0, 64, 41
2, 74080, Note_on_c, 0, 57, 59
2, 74089, Control_c, 0, 64, 45
2, 74110, Control_c, 0, 64, 47
2, 74128, Control_c, 0, 64, 48
2, 74138, Note_on_c, 0, 55, 0
2, 74165, Control_c, 0, 64, 49
2, 74202, Control_c, 0, 64, 50
2, 74259, Control_c, 0, 64, 51
2, 74337, Control_c, 0, 64, 49
2, 74357, Control_c, 0, 64, 42
2, 74357, Note_on_c, 0, 73, 79
2, 74364, Note_on_c, 0, 55, 55
2, 74379, Control_c, 0, 64, 0
2, 74389, Note_on_c, 0, 57, 0
2, 74429, Note_on_c, 0, 69, 0
2, 74455, Note_on_c, 0, 71, 0
2, 74510, Control_c, 0, 64, 38
2, 74528, Control_c, 0, 64, 52
2, 74548, Control_c, 0, 64, 60
2, 74568, Control_c, 0, 64, 62
2, 74589, Control_c, 0, 64, 63
2, 74610, Note_on_c, 0, 57, 60
2, 74625, Control_c, 0, 64, 65
2, 74647, Control_c, 0, 64, 66
2, 74651, Note_on_c, 0, 55, 0
2, 74665, Control_c, 0, 64, 69
2, 74682, Control_c, 0, 64, 70
2, 74701, Control_c, 0, 64, 71
2, 74855, Control_c, 0, 64, 70
2, 74874, Control_c, 0, 64, 67
2, 74883, Note_on_c, 0, 76, 85
2, 74894, Control_c, 0, 64, 58
2, 74914, Control_c, 0, 64, 39
2, 74914, Note_on_c, 0, 55, 51
2, 74933, Control_c, 0, 64, 0
2, 74951, Note_on_c, 0, 73, 0
2, 74990, Control_c, 0, 64, 28
2, 74990, Note_on_c, 0, 57, 0
2, 75013, Control_c, 0, 64, 45
2, 75030, Control_c, 0, 64, 57
2, 75048, Control_c, 0, 64, 62
2, 75067, Control_c, 0, 64, 64
2, 75088, Control_c, 0, 64, 65
2, 75106, Control_c, 0, 64, 66
2, 75123, Control_c, 0, 64, 68
2, 75145, Control_c, 0, 64, 70
2, 75156, Note_on_c, 0, 75, 83
2, 75161, Note_on_c, 0, 54, 60
2, 75164, Control_c, 0, 64, 74
2, 75185, Control_c, 0, 64, 78
2, 75202, Control_c, 0, 64, 82
2, 75204, Note_on_c, 0, 76, 0
2, 75220, Control_c, 0, 64, 85
2, 75239, Control_c, 0, 64, 86
2, 75250, Note_on_c, 0, 51, 0
2, 75260, Control_c, 0, 64, 87
2, 75263, Note_on_c, 0, 66, 0
2, 75282, Control_c, 0, 64, 88
2, 75299, Control_c, 0, 64, 89
2, 75383, Note_on_c, 0, 75, 0
2, 75433, Control_c, 0, 64, 88
2, 75451, Control_c, 0, 64, 85
2, 75471, Control_c, 0, 64, 81
2, 75488, Note_on_c, 0, 76, 86
2, 75490, Control_c, 0, 64, 75
2, 75502, Note_on_c, 0, 68, 64
2, 75508, Control_c, 0, 64, 68
2, 75517, Note_on_c, 0, 50, 51
2, 75517, Note_on_c, 0, 71, 56
2, 75522, Note_on_c, 0, 55, 0
2, 75528, Control_c, 0, 64, 61
2, 75544, Note_on_c, 0, 54, 0
2, 75548, Control_c, 0, 64, 54
2, 75566, Control_c, 0, 64, 46
2, 75585, Control_c, 0, 64, 36
2, 75605, Control_c, 0, 64, 25
2, 75625, Control_c, 0, 64, 0
2, 75820, Note_on_c, 0, 56, 55
2, 76087, Note_on_c, 0, 57, 61
2, 76148, Note_on_c, 0, 56, 0
2, 76349, Note_on_c, 0, 59, 57
2, 76417, Note_on_c, 0, 57, 0
2, 76526, Control_c, 0, 64, 10
2, 76544, Control_c, 0, 64, 13
2, 76564, Control_c, 0, 64, 16
2, 76582, Control_c, 0, 64, 19
2, 76602, Control_c, 0, 64, 21
2, 76624, Control_c, 0, 64, 22
2, 76624, Note_on_c, 0, 57, 59
2, 76646, Control_c, 0, 64, 23
2, 76646, Note_on_c, 0, 59, 0
2, 76661, Control_c, 0, 64, 24
2, 76678, Control_c, 0, 64, 26
2, 76700, Control_c, 0, 64, 29
2, 76719, Control_c, 0, 64, 31
2, 76738, Control_c, 0, 64, 32
2, 76796, Control_c, 0, 64, 33
2, 76817, Control_c, 0, 64, 35
2, 76833, Control_c, 0, 64, 37
2, 76856, Control_c, 0, 64, 39
2, 76871, Control_c, 0, 64, 41
2, 76879, Note_on_c, 0, 59, 57
2, 76891, Control_c, 0, 64, 43
2, 76913, Control_c, 0, 64, 45
2, 76931, Control_c, 0, 64, 47
2, 76935, Note_on_c, 0, 57, 0
2, 76951, Control_c, 0, 64, 50
2, 76968, Control_c, 0, 64, 53
2, 76988, Control_c, 0, 64, 55
2, 77009, Control_c, 0, 64, 56
2, 77026, Control_c, 0, 64, 57
2, 77031, Note_on_c, 0, 71, 0
2, 77043, Control_c, 0, 64, 58
2, 77064, Control_c, 0, 64, 59
2, 77083, Control_c, 0, 64, 60
2, 77103, Control_c, 0, 64, 61
2, 77122, Control_c, 0, 64, 62
2, 77138, Note_on_c, 0, 57, 61
2, 77180, Control_c, 0, 64, 63
2, 77205, Note_on_c, 0, 68, 0
2, 77209, Note_on_c, 0, 59, 0
2, 77237, Control_c, 0, 64, 64
2, 77275, Control_c, 0, 64, 65
2, 77312, Control_c, 0, 64, 66
2, 77332, Control_c, 0, 64, 67
2, 77351, Control_c, 0, 64, 68
2, 77372, Control_c, 0, 64, 71
2, 77377, Note_on_c, 0, 56, 61
2, 77394, Control_c, 0, 64, 75
2, 77394, Note_on_c, 0, 50, 0
2, 77409, Control_c, 0, 64, 80
2, 77428, Control_c, 0, 64, 84
2, 77448, Control_c, 0, 64, 87
2, 77469, Control_c, 0, 64, 89
2, 77486, Control_c, 0, 64, 90
2, 77515, Note_on_c, 0, 57, 0
2, 77621, Control_c, 0, 64, 89
2, 77640, Control_c, 0, 64, 88
2, 77658, Control_c, 0, 64, 87
2, 77670, Note_on_c, 0, 73, 75
2, 77674, Note_on_c, 0, 70, 64
2, 77679, Note_on_c, 0, 49, 57
2, 77683, Control_c, 0, 64, 84
2, 77697, Control_c, 0, 64, 81
2, 77701, Note_on_c, 0, 56, 0
2, 77717, Control_c, 0, 64, 77
2, 77735, Control_c, 0, 64, 73
2, 77757, Control_c, 0, 64, 69
2, 77774, Control_c, 0, 64, 65
2, 77795, Control_c, 0, 64, 63
2, 77813, Control_c, 0, 64, 62
2, 77832, Control_c, 0, 64, 61
2, 77852, Control_c, 0, 64, 60
2, 77873, Control_c, 0, 64, 59
2, 77887, Control_c, 0, 64, 58
2, 77910, Control_c, 0, 64, 57
2, 77927, Control_c, 0, 64, 56
2, 77965, Control_c, 0, 64, 55
2, 77983, Control_c, 0, 64, 54
2, 77992, Note_on_c, 0, 52, 56
2, 78005, Control_c, 0, 64, 52
2, 78026, Control_c, 0, 64, 49
2, 78042, Control_c, 0, 64, 46
2, 78062, Control_c, 0, 64, 42
2, 78083, Control_c, 0, 64, 38
2, 78101, Control_c, 0, 64, 34
2, 78119, Control_c, 0, 64, 31
2, 78139, Control_c, 0, 64, 28
2, 78158, Control_c, 0, 64, 26
2, 78176, Control_c, 0, 64, 24
2, 78196, Control_c, 0, 64, 21
2, 78217, Control_c, 0, 64, 18
2, 78235, Control_c, 0, 64, 17
2, 78254, Control_c, 0, 64, 16
2, 78258, Note_on_c, 0, 54, 54
2, 78503, Note_on_c, 0, 55, 53
2, 78520, Note_on_c, 0, 52, 0
2, 78596, Note_on_c, 0, 54, 0
2, 78785, Note_on_c, 0, 54, 51
2, 78852, Note_on_c, 0, 55, 0
2, 78870, Control_c, 0, 64, 17
2, 78891, Control_c, 0, 64, 18
2, 78908, Control_c, 0, 64, 20
2, 78925, Control_c, 0, 64, 23
2, 78947, Control_c, 0, 64, 25
2, 78966, Control_c, 0, 64, 27
2, 78984, Control_c, 0, 64, 30
2, 79002, Control_c, 0, 64, 34
2, 79025, Control_c, 0, 64, 39
2, 79036, Note_on_c, 0, 55, 57
2, 79042, Control_c, 0, 64, 43
2, 79060, Control_c, 0, 64, 48
2, 79081, Control_c, 0, 64, 50
2, 79099, Control_c, 0, 64, 52
2, 79099, Note_on_c, 0, 54, 0
2, 79118, Control_c, 0, 64, 54
2, 79136, Control_c, 0, 64, 57
2, 79157, Control_c, 0, 64, 58
2, 79175, Control_c, 0, 64, 60
2, 79197, Control_c, 0, 64, 61
2, 79214, Control_c, 0, 64, 62
2, 79234, Control_c, 0, 64, 64
2, 79253, Control_c, 0, 64, 65
2, 79275, Control_c, 0, 64, 67
2, 79291, Control_c, 0, 64, 70
2, 79308, Note_on_c, 0, 54, 63
2, 79313, Control_c, 0, 64, 74
2, 79329, Control_c, 0, 64, 80
2, 79350, Control_c, 0, 64, 85
2, 79369, Control_c, 0, 64, 90
2, 79388, Control_c, 0, 64, 97
2, 79406, Control_c, 0, 64, 104
2, 79413, Note_on_c, 0, 55, 0
2, 79429, Control_c, 0, 64, 120
2, 79447, Control_c, 0, 64, 127
2, 79451, Note_on_c, 0, 73, 0
2, 79492, Note_on_c, 0, 70, 0
2, 79559, Note_on_c, 0, 52, 68
2, 79588, Note_on_c, 0, 49, 0
2, 79770, Control_c, 0, 64, 115
2, 79789, Control_c, 0, 64, 104
2, 79812, Control_c, 0, 64, 97
2, 79830, Control_c, 0, 64, 92
2, 79846, Control_c, 0, 64, 88
2, 79850, Note_on_c, 0, 69, 70
2, 79868, Control_c, 0, 64, 81
2, 79868, Note_on_c, 0, 66, 63
2, 79872, Note_on_c, 0, 48, 57
2, 79888, Control_c, 0, 64, 65
2, 79903, Note_on_c, 0, 54, 0
2, 79906, Control_c, 0, 64, 46
2, 79924, Control_c, 0, 64, 0
2, 79928, Note_on_c, 0, 52, 0
2, 80020, Control_c, 0, 64, 46
2, 80042, Control_c, 0, 64, 63
2, 80050, Note_on_c, 0, 66, 0
2, 80059, Control_c, 0, 64, 73
2, 80077, Control_c, 0, 64, 95
2, 80096, Control_c, 0, 64, 127
2, 80137, Note_on_c, 0, 69, 0
2, 80167, Note_on_c, 0, 54, 67
2, 80175, Note_on_c, 0, 76, 0
2, 80437, Note_on_c, 0, 75, 77
2, 80479, Note_on_c, 0, 55, 53
2, 80538, Control_c, 0, 64, 112
2, 80557, Control_c, 0, 64, 106
2, 80557, Note_on_c, 0, 54, 0
2, 80578, Control_c, 0, 64, 102
2, 80595, Control_c, 0, 64, 97
2, 80616, Control_c, 0, 64, 92
2, 80636, Control_c, 0, 64, 88
2, 80653, Control_c, 0, 64, 84
2, 80674, Control_c, 0, 64, 80
2, 80695, Control_c, 0, 64, 77
2, 80708, Note_on_c, 0, 78, 87
2, 80715, Control_c, 0, 64, 73
2, 80715, Note_on_c, 0, 57, 61
2, 80733, Control_c, 0, 64, 70
2, 80749, Control_c, 0, 64, 67
2, 80771, Control_c, 0, 64, 66
2, 80771, Note_on_c, 0, 55, 0
2, 80884, Note_on_c, 0, 75, 0
2, 80943, Control_c, 0, 64, 67
2, 80970, Note_on_c, 0, 81, 84
2, 80975, Note_on_c, 0, 55, 59
2, 81019, Control_c, 0, 64, 63
2, 81024, Note_on_c, 0, 57, 0
2, 81039, Control_c, 0, 64, 51
2, 81057, Control_c, 0, 64, 0
2, 81118, Note_on_c, 0, 78, 0
2, 81226, Note_on_c, 0, 84, 87
2, 81242, Note_on_c, 0, 57, 63
2, 81305, Note_on_c, 0, 81, 0
2, 81309, Note_on_c, 0, 55, 0
2, 81502, Note_on_c, 0, 83, 86
2, 81527, Note_on_c, 0, 55, 57
2, 81538, Control_c, 0, 64, 33
2, 81549, Note_on_c, 0, 84, 0
2, 81556, Control_c, 0, 64, 51
2, 81576, Control_c, 0, 64, 63
2, 81581, Note_on_c, 0, 57, 0
2, 81595, Control_c, 0, 64, 69
2, 81615, Control_c, 0, 64, 79
2, 81634, Control_c, 0, 64, 98
2, 81656, Control_c, 0, 64, 127
2, 81793, Note_on_c, 0, 75, 86
2, 81814, Note_on_c, 0, 54, 58
2, 81823, Note_on_c, 0, 48, 0
2, 81834, Note_on_c, 0, 55, 0
2, 81865, Note_on_c, 0, 83, 0
2, 81894, Note_on_c, 0, 54, 0
2, 81927, Note_on_c, 0, 75, 0
2, 82221, Note_on_c, 0, 78, 89
2, 82253, Note_on_c, 0, 67, 43
2, 82253, Note_on_c, 0, 71, 56
2, 82258, Note_on_c, 0, 47, 51
2, 82325, Control_c, 0, 64, 97
2, 82343, Control_c, 0, 64, 80
2, 82363, Control_c, 0, 64, 69
2, 82384, Control_c, 0, 64, 64
2, 82401, Control_c, 0, 64, 61
2, 82421, Control_c, 0, 64, 60
2, 82441, Control_c, 0, 64, 58
2, 82461, Control_c, 0, 64, 57
2, 82477, Control_c, 0, 64, 54
2, 82499, Control_c, 0, 64, 51
2, 82516, Control_c, 0, 64, 48
2, 82537, Control_c, 0, 64, 46
2, 82554, Control_c, 0, 64, 45
2, 82594, Control_c, 0, 64, 44
2, 82612, Control_c, 0, 64, 43
2, 82630, Control_c, 0, 64, 41
2, 82697, Note_on_c, 0, 52, 49
2, 83007, Note_on_c, 0, 76, 73
2, 83074, Note_on_c, 0, 54, 41
2, 83149, Control_c, 0, 64, 42
2, 83180, Note_on_c, 0, 78, 0
2, 83288, Note_on_c, 0, 52, 0
2, 83319, Note_on_c, 0, 55, 44
2, 83383, Note_on_c, 0, 54, 0
2, 83594, Note_on_c, 0, 54, 43
2, 83620, Note_on_c, 0, 55, 0
2, 83728, Control_c, 0, 64, 43
2, 83764, Control_c, 0, 64, 44
2, 83782, Control_c, 0, 64, 46
2, 83802, Control_c, 0, 64, 49
2, 83822, Control_c, 0, 64, 52
2, 83842, Control_c, 0, 64, 54
2, 83859, Control_c, 0, 64, 55
2, 83868, Note_on_c, 0, 55, 35
2, 83879, Control_c, 0, 64, 56
2, 83899, Control_c, 0, 64, 58
2, 83906, Note_on_c, 0, 54, 0
2, 83919, Control_c, 0, 64, 59
2, 83937, Control_c, 0, 64, 60
2, 83956, Control_c, 0, 64, 61
2, 83975, Control_c, 0, 64, 62
2, 83997, Control_c, 0, 64, 63
2, 84032, Control_c, 0, 64, 64
2, 84051, Control_c, 0, 64, 66
2, 84073, Control_c, 0, 64, 68
2, 84090, Control_c, 0, 64, 70
2, 84111, Control_c, 0, 64, 74
2, 84131, Control_c, 0, 64, 78
2, 84150, Control_c, 0, 64, 85
2, 84150, Note_on_c, 0, 54, 43
2, 84167, Control_c, 0, 64, 91
2, 84188, Control_c, 0, 64, 100
2, 84208, Control_c, 0, 64, 118
2, 84224, Control_c, 0, 64, 127
2, 84265, Note_on_c, 0, 55, 0
2, 84396, Note_on_c, 0, 71, 0
2, 84431, Note_on_c, 0, 47, 0
2, 84431, Note_on_c, 0, 52, 44
2, 84487, Note_on_c, 0, 67, 0
2, 84487, Note_on_c, 0, 76, 0
2, 84762, Control_c, 0, 64, 104
2, 84781, Control_c, 0, 64, 94
2, 84799, Control_c, 0, 64, 86
2, 84819, Control_c, 0, 64, 80
2, 84833, Note_on_c, 0, 78, 60
2, 84842, Control_c, 0, 64, 75
2, 84859, Note_on_c, 0, 46, 40
2, 84862, Control_c, 0, 64, 72
2, 84862, Note_on_c, 0, 67, 38
2, 84879, Control_c, 0, 64, 69
2, 84879, Note_on_c, 0, 73, 39
2, 84897, Control_c, 0, 64, 67
2, 84915, Control_c, 0, 64, 65
2, 84935, Control_c, 0, 64, 64
2, 84943, Note_on_c, 0, 52, 0
2, 84955, Control_c, 0, 64, 63
2, 84977, Control_c, 0, 64, 61
2, 84977, Note_on_c, 0, 54, 0
2, 84995, Control_c, 0, 64, 60
2, 85011, Control_c, 0, 64, 58
2, 85031, Control_c, 0, 64, 57
2, 85050, Control_c, 0, 64, 56
2, 85069, Control_c, 0, 64, 55
2, 85108, Control_c, 0, 64, 54
2, 85127, Control_c, 0, 64, 53
2, 85147, Control_c, 0, 64, 51
2, 85165, Control_c, 0, 64, 50
2, 85204, Control_c, 0, 64, 49
2, 85225, Control_c, 0, 64, 48
2, 85241, Control_c, 0, 64, 47
2, 85252, Note_on_c, 0, 52, 32
2, 85261, Control_c, 0, 64, 46
2, 85281, Control_c, 0, 64, 44
2, 85301, Control_c, 0, 64, 42
2, 85317, Control_c, 0, 64, 38
2, 85341, Control_c, 0, 64, 34
2, 85357, Control_c, 0, 64, 30
2, 85377, Control_c, 0, 64, 26
2, 85396, Control_c, 0, 64, 24
2, 85416, Control_c, 0, 64, 23
2, 85519, Note_on_c, 0, 76, 54
2, 85534, Control_c, 0, 64, 26
2, 85549, Control_c, 0, 64, 30
2, 85557, Note_on_c, 0, 54, 27
2, 85571, Control_c, 0, 64, 35
2, 85588, Control_c, 0, 64, 42
2, 85607, Control_c, 0, 64, 48
2, 85627, Control_c, 0, 64, 54
2, 85644, Note_on_c, 0, 78, 0
2, 85648, Control_c, 0, 64, 58
2, 85665, Control_c, 0, 64, 60
2, 85672, Note_on_c, 0, 52, 0
2, 85704, Control_c, 0, 64, 61
2, 85722, Control_c, 0, 64, 62
2, 85741, Control_c, 0, 64, 63
2, 85762, Control_c, 0, 64, 64
2, 85811, Note_on_c, 0, 55, 37
2, 85818, Control_c, 0, 64, 65
2, 85862, Note_on_c, 0, 54, 0
2, 85991, Control_c, 0, 64, 64
2, 86068, Control_c, 0, 64, 63
2, 86095, Note_on_c, 0, 54, 31
2, 86107, Control_c, 0, 64, 60
2, 86113, Note_on_c, 0, 55, 0
2, 86127, Control_c, 0, 64, 54
2, 86143, Control_c, 0, 64, 46
2, 86167, Control_c, 0, 64, 43
2, 86185, Control_c, 0, 64, 45
2, 86189, Note_on_c, 0, 76, 0
2, 86202, Control_c, 0, 64, 48
2, 86208, Note_on_c, 0, 78, 60
2, 86223, Control_c, 0, 64, 53
2, 86241, Control_c, 0, 64, 56
2, 86260, Control_c, 0, 64, 58
2, 86269, Note_on_c, 0, 73, 0
2, 86355, Note_on_c, 0, 76, 57
2, 86364, Note_on_c, 0, 55, 35
2, 86373, Note_on_c, 0, 54, 0
2, 86393, Note_on_c, 0, 78, 0
2, 86453, Control_c, 0, 64, 57
2, 86465, Note_on_c, 0, 76, 0
2, 86471, Control_c, 0, 64, 55
2, 86476, Note_on_c, 0, 75, 54
2, 86490, Control_c, 0, 64, 51
2, 86510, Control_c, 0, 64, 44
2, 86531, Control_c, 0, 64, 36
2, 86547, Control_c, 0, 64, 29
2, 86566, Control_c, 0, 64, 27
2, 86593, Note_on_c, 0, 75, 0
2, 86606, Control_c, 0, 64, 30
2, 86618, Note_on_c, 0, 54, 36
2, 86618, Note_on_c, 0, 76, 63
2, 86628, Control_c, 0, 64, 39
2, 86645, Control_c, 0, 64, 48
2, 86663, Control_c, 0, 64, 55
2, 86683, Control_c, 0, 64, 59
2, 86683, Note_on_c, 0, 55, 0
2, 86719, Note_on_c, 0, 76, 0
2, 86721, Control_c, 0, 64, 60
2, 86736, Note_on_c, 0, 73, 57
2, 86760, Control_c, 0, 64, 61
2, 86782, Control_c, 0, 64, 62
2, 86788, Note_on_c, 0, 46, 0
2, 86799, Control_c, 0, 64, 63
2, 86817, Control_c, 0, 64, 64
2, 86836, Control_c, 0, 64, 65
2, 86854, Control_c, 0, 64, 66
2, 86867, Note_on_c, 0, 67, 0
2, 86877, Note_on_c, 0, 73, 0
2, 86877, Note_on_c, 0, 75, 56
2, 86882, Control_c, 0, 64, 67
2, 86882, Note_on_c, 0, 52, 37
2, 86898, Control_c, 0, 64, 68
2, 86913, Control_c, 0, 64, 71
2, 86931, Control_c, 0, 64, 74
2, 86954, Control_c, 0, 64, 77
2, 86966, Note_on_c, 0, 75, 0
2, 86970, Control_c, 0, 64, 80
2, 86988, Control_c, 0, 64, 82
2, 87008, Control_c, 0, 64, 84
2, 87012, Note_on_c, 0, 54, 0
2, 87051, Control_c, 0, 64, 85
2, 87105, Control_c, 0, 64, 84
2, 87143, Control_c, 0, 64, 83
2, 87183, Control_c, 0, 64, 82
2, 87202, Control_c, 0, 64, 81
2, 87221, Control_c, 0, 64, 79
2, 87238, Note_on_c, 0, 76, 56
2, 87242, Control_c, 0, 64, 75
2, 87249, Note_on_c, 0, 47, 37
2, 87254, Note_on_c, 0, 71, 41
2, 87256, Note_on_c, 0, 66, 41
2, 87261, Control_c, 0, 64, 66
2, 87277, Control_c, 0, 64, 55
2, 87295, Note_on_c, 0, 52, 0
2, 87299, Control_c, 0, 64, 39
2, 87316, Control_c, 0, 64, 21
2, 87335, Control_c, 0, 64, 24
2, 87353, Control_c, 0, 64, 35
2, 87375, Control_c, 0, 64, 50
2, 87397, Control_c, 0, 64, 60
2, 87397, Note_on_c, 0, 71, 0
2, 87413, Control_c, 0, 64, 64
2, 87431, Control_c, 0, 64, 66
2, 87465, Note_on_c, 0, 66, 0
2, 87469, Control_c, 0, 64, 67
2, 87488, Control_c, 0, 64, 68
2, 87615, Note_on_c, 0, 76, 0
2, 87632, Note_on_c, 0, 75, 45
2, 87639, Note_on_c, 0, 54, 29
2, 87708, Note_on_c, 0, 75, 0
2, 87735, Control_c, 0, 64, 67
2, 87787, Note_on_c, 0, 76, 50
2, 87852, Note_on_c, 0, 76, 0
2, 87869, Control_c, 0, 64, 66
2, 87885, Note_on_c, 0, 75, 51
2, 87908, Control_c, 0, 64, 65
2, 87944, Note_on_c, 0, 55, 32
2, 87948, Note_on_c, 0, 75, 0
2, 87960, Note_on_c, 0, 54, 0
2, 87981, Note_on_c, 0, 76, 58
2, 87986, Control_c, 0, 64, 64
2, 88045, Note_on_c, 0, 76, 0
2, 88049, Control_c, 0, 64, 63
2, 88081, Control_c, 0, 64, 62
2, 88100, Note_on_c, 0, 75, 50
2, 88134, Note_on_c, 0, 75, 0
2, 88138, Control_c, 0, 64, 61
2, 88176, Control_c, 0, 64, 60
2, 88184, Note_on_c, 0, 76, 54
2, 88202, Note_on_c, 0, 57, 40
2, 88217, Control_c, 0, 64, 59
2, 88217, Note_on_c, 0, 76, 0
2, 88240, Note_on_c, 0, 75, 59
2, 88274, Control_c, 0, 64, 58
2, 88274, Note_on_c, 0, 55, 0
2, 88290, Note_on_c, 0, 75, 0
2, 88318, Note_on_c, 0, 76, 65
2, 88371, Note_on_c, 0, 76, 0
2, 88402, Note_on_c, 0, 75, 61
2, 88406, Control_c, 0, 64, 57
2, 88446, Note_on_c, 0, 75, 0
2, 88500, Note_on_c, 0, 76, 55
2, 88504, Note_on_c, 0, 55, 28
2, 88507, Note_on_c, 0, 57, 0
2, 88529, Note_on_c, 0, 76, 0
2, 88550, Note_on_c, 0, 75, 58
2, 88598, Note_on_c, 0, 75, 0
2, 88631, Note_on_c, 0, 76, 59
2, 88680, Note_on_c, 0, 76, 0
2, 88713, Note_on_c, 0, 75, 57
2, 88772, Control_c, 0, 64, 56
2, 88803, Note_on_c, 0, 57, 37
2, 88871, Note_on_c, 0, 55, 0
2, 88888, Control_c, 0, 64, 55
2, 88985, Control_c, 0, 64, 54
2, 89003, Control_c, 0, 64, 53
2, 89023, Control_c, 0, 64, 50
2, 89042, Control_c, 0, 64, 44
2, 89061, Control_c, 0, 64, 34
2, 89080, Control_c, 0, 64, 19
2, 89098, Control_c, 0, 64, 0
2, 89128, Note_on_c, 0, 76, 51
2, 89140, Note_on_c, 0, 75, 0
2, 89160, Note_on_c, 0, 55, 30
2, 89214, Note_on_c, 0, 57, 0
2, 89234, Control_c, 0, 64, 10
2, 89252, Control_c, 0, 64, 30
2, 89272, Control_c, 0, 64, 42
2, 89289, Control_c, 0, 64, 52
2, 89309, Control_c, 0, 64, 58
2, 89331, Control_c, 0, 64, 60
2, 89349, Control_c, 0, 64, 61
2, 89368, Control_c, 0, 64, 62
2, 89387, Control_c, 0, 64, 63
2, 89405, Control_c, 0, 64, 65
2, 89425, Control_c, 0, 64, 67
2, 89446, Control_c, 0, 64, 69
2, 89464, Control_c, 0, 64, 72
2, 89481, Control_c, 0, 64, 76
2, 89503, Control_c, 0, 64, 81
2, 89523, Control_c, 0, 64, 88
2, 89540, Control_c, 0, 64, 96
2, 89562, Control_c, 0, 64, 106
2, 89562, Note_on_c, 0, 54, 39
2, 89568, Note_on_c, 0, 76, 0
2, 89580, Control_c, 0, 64, 127
2, 89643, Note_on_c, 0, 47, 0
2, 89702, Note_on_c, 0, 55, 0
2, 89726, Note_on_c, 0, 54, 0
2, 90077, Control_c, 0, 64, 107
2, 90097, Control_c, 0, 64, 97
2, 90114, Control_c, 0, 64, 90
2, 90136, Control_c, 0, 64, 83
2, 90136, Note_on_c, 0, 76, 48
2, 90158, Control_c, 0, 64, 78
2, 90176, Control_c, 0, 64, 74
2, 90176, Note_on_c, 0, 52, 35
2, 90180, Note_on_c, 0, 67, 21
2, 90180, Note_on_c, 0, 71, 29
2, 90196, Control_c, 0, 64, 71
2, 90213, Control_c, 0, 64, 68
2, 90233, Control_c, 0, 64, 67
2, 90250, Control_c, 0, 64, 65
2, 90269, Control_c, 0, 64, 64
2, 90291, Control_c, 0, 64, 63
2, 90327, Control_c, 0, 64, 62
2, 90367, Control_c, 0, 64, 61
2, 90387, Control_c, 0, 64, 60
2, 90423, Control_c, 0, 64, 59
2, 90519, Control_c, 0, 64, 58
2, 90583, Note_on_c, 0, 55, 26
2, 90712, Control_c, 0, 64, 57
2, 90884, Control_c, 0, 64, 58
2, 90885, Note_on_c, 0, 57, 29
2, 90922, Control_c, 0, 64, 59
2, 90942, Control_c, 0, 64, 60
2, 90980, Control_c, 0, 64, 61
2, 91019, Control_c, 0, 64, 62
2, 91058, Note_on_c, 0, 55, 0
2, 91133, Note_on_c, 0, 59, 28
2, 91190, Note_on_c, 0, 57, 0
2, 91230, Control_c, 0, 64, 61
2, 91364, Control_c, 0, 64, 60
2, 91404, Note_on_c, 0, 57, 34
2, 91440, Note_on_c, 0, 59, 0
2, 91519, Control_c, 0, 64, 61
2, 91555, Control_c, 0, 64, 62
2, 91633, Control_c, 0, 64, 63
2, 91675, Note_on_c, 0, 59, 34
2, 91708, Control_c, 0, 64, 64
2, 91712, Note_on_c, 0, 57, 0
2, 91750, Control_c, 0, 64, 65
2, 91785, Control_c, 0, 64, 66
2, 91825, Control_c, 0, 64, 67
2, 91844, Control_c, 0, 64, 68
2, 91862, Control_c, 0, 64, 69
2, 91882, Control_c, 0, 64, 70
2, 91898, Note_on_c, 0, 71, 0
2, 91920, Control_c, 0, 64, 71
2, 91947, Note_on_c, 0, 57, 37
2, 91960, Control_c, 0, 64, 72
2, 91980, Control_c, 0, 64, 73
2, 91987, Note_on_c, 0, 59, 0
2, 91987, Note_on_c, 0, 67, 0
2, 91997, Control_c, 0, 64, 74
2, 92019, Control_c, 0, 64, 75
2, 92035, Control_c, 0, 64, 76
2, 92055, Control_c, 0, 64, 77
2, 92074, Control_c, 0, 64, 78
2, 92093, Control_c, 0, 64, 79
2, 92114, Control_c, 0, 64, 80
2, 92191, Note_on_c, 0, 52, 0
2, 92191, Note_on_c, 0, 55, 41
2, 92209, Control_c, 0, 64, 79
2, 92267, Control_c, 0, 64, 78
2, 92324, Control_c, 0, 64, 77
2, 92381, Control_c, 0, 64, 76
2, 92438, Control_c, 0, 64, 75
2, 92460, Control_c, 0, 64, 72
2, 92460, Note_on_c, 0, 71, 47
2, 92467, Note_on_c, 0, 68, 44
2, 92478, Control_c, 0, 64, 67
2, 92487, Note_on_c, 0, 50, 40
2, 92499, Control_c, 0, 64, 62
2, 92511, Note_on_c, 0, 55, 0
2, 92516, Control_c, 0, 64, 57
2, 92532, Note_on_c, 0, 57, 0
2, 92536, Control_c, 0, 64, 53
2, 92556, Control_c, 0, 64, 54
2, 92574, Control_c, 0, 64, 56
2, 92594, Control_c, 0, 64, 58
2, 92611, Control_c, 0, 64, 61
2, 92633, Control_c, 0, 64, 63
2, 92652, Control_c, 0, 64, 64
2, 92669, Control_c, 0, 64, 65
2, 92687, Control_c, 0, 64, 66
2, 92707, Control_c, 0, 64, 67
2, 92756, Note_on_c, 0, 56, 36
2, 92881, Control_c, 0, 64, 66
2, 93045, Note_on_c, 0, 57, 46
2, 93073, Control_c, 0, 64, 65
2, 93112, Note_on_c, 0, 56, 0
2, 93265, Control_c, 0, 64, 64
2, 93284, Control_c, 0, 64, 62
2, 93304, Control_c, 0, 64, 59
2, 93308, Note_on_c, 0, 59, 46
2, 93326, Control_c, 0, 64, 57
2, 93342, Control_c, 0, 64, 55
2, 93349, Note_on_c, 0, 57, 0
2, 93361, Control_c, 0, 64, 52
2, 93379, Control_c, 0, 64, 50
2, 93418, Control_c, 0, 64, 51
2, 93438, Control_c, 0, 64, 54
2, 93455, Control_c, 0, 64, 57
2, 93477, Control_c, 0, 64, 59
2, 93495, Control_c, 0, 64, 61
2, 93514, Control_c, 0, 64, 62
2, 93533, Control_c, 0, 64, 63
2, 93573, Control_c, 0, 64, 64
2, 93584, Note_on_c, 0, 57, 46
2, 93594, Control_c, 0, 64, 65
2, 93598, Note_on_c, 0, 59, 0
2, 93629, Control_c, 0, 64, 66
2, 93668, Control_c, 0, 64, 67
2, 93709, Control_c, 0, 64, 68
2, 93726, Control_c, 0, 64, 69
2, 93784, Control_c, 0, 64, 70
2, 93820, Control_c, 0, 64, 71
2, 93834, Note_on_c, 0, 59, 42
2, 93843, Control_c, 0, 64, 72
2, 93862, Control_c, 0, 64, 73
2, 93868, Note_on_c, 0, 57, 0
2, 93879, Control_c, 0, 64, 74
2, 93917, Control_c, 0, 64, 75
2, 93955, Control_c, 0, 64, 76
2, 94081, Note_on_c, 0, 71, 0
2, 94098, Note_on_c, 0, 57, 50
2, 94120, Note_on_c, 0, 68, 0
2, 94156, Note_on_c, 0, 59, 0
2, 94205, Control_c, 0, 64, 75
2, 94333, Note_on_c, 0, 56, 50
2, 94353, Note_on_c, 0, 50, 0
2, 94482, Note_on_c, 0, 57, 0
2, 94512, Control_c, 0, 64, 74
2, 94554, Control_c, 0, 64, 73
2, 94610, Control_c, 0, 64, 72
2, 94641, Note_on_c, 0, 72, 61
2, 94648, Control_c, 0, 64, 70
2, 94654, Note_on_c, 0, 69, 41
2, 94659, Note_on_c, 0, 48, 44
2, 94666, Control_c, 0, 64, 65
2, 94683, Note_on_c, 0, 56, 0
2, 94687, Control_c, 0, 64, 57
2, 94705, Control_c, 0, 64, 45
2, 94723, Control_c, 0, 64, 32
2, 94743, Control_c, 0, 64, 24
2, 94781, Control_c, 0, 64, 31
2, 94801, Control_c, 0, 64, 44
2, 94820, Control_c, 0, 64, 58
2, 94839, Control_c, 0, 64, 65
2, 94860, Control_c, 0, 64, 68
2, 94880, Control_c, 0, 64, 72
2, 94898, Control_c, 0, 64, 76
2, 94909, Note_on_c, 0, 57, 43
2, 94918, Control_c, 0, 64, 80
2, 94936, Control_c, 0, 64, 86
2, 94946, Note_on_c, 0, 48, 0
2, 94955, Control_c, 0, 64, 93
2, 94975, Control_c, 0, 64, 99
2, 94992, Control_c, 0, 64, 103
2, 95011, Control_c, 0, 64, 105
2, 95031, Control_c, 0, 64, 106
2, 95049, Control_c, 0, 64, 107
2, 95088, Control_c, 0, 64, 108
2, 95159, Note_on_c, 0, 59, 49
2, 95166, Control_c, 0, 64, 107
2, 95204, Control_c, 0, 64, 106
2, 95224, Control_c, 0, 64, 105
2, 95244, Control_c, 0, 64, 104
2, 95253, Note_on_c, 0, 57, 0
2, 95261, Control_c, 0, 64, 103
2, 95281, Control_c, 0, 64, 102
2, 95299, Control_c, 0, 64, 100
2, 95318, Control_c, 0, 64, 99
2, 95338, Control_c, 0, 64, 97
2, 95356, Control_c, 0, 64, 96
2, 95378, Control_c, 0, 64, 95
2, 95399, Control_c, 0, 64, 94
2, 95415, Control_c, 0, 64, 93
2, 95419, Note_on_c, 0, 60, 47
2, 95435, Control_c, 0, 64, 92
2, 95455, Control_c, 0, 64, 91
2, 95459, Note_on_c, 0, 59, 0
2, 95492, Control_c, 0, 64, 90
2, 95587, Control_c, 0, 64, 85
2, 95609, Control_c, 0, 64, 73
2, 95628, Control_c, 0, 64, 62
2, 95644, Control_c, 0, 64, 54
2, 95664, Control_c, 0, 64, 49
2, 95672, Note_on_c, 0, 59, 48
2, 95685, Control_c, 0, 64, 47
2, 95719, Note_on_c, 0, 60, 0
2, 95724, Control_c, 0, 64, 48
2, 95742, Control_c, 0, 64, 49
2, 95761, Control_c, 0, 64, 54
2, 95781, Control_c, 0, 64, 59
2, 95798, Control_c, 0, 64, 62
2, 95819, Control_c, 0, 64, 63
2, 95856, Control_c, 0, 64, 64
2, 95895, Control_c, 0, 64, 65
2, 95915, Control_c, 0, 64, 67
2, 95930, Note_on_c, 0, 60, 48
2, 95934, Control_c, 0, 64, 69
2, 95953, Control_c, 0, 64, 71
2, 95971, Control_c, 0, 64, 73
2, 95992, Control_c, 0, 64, 75
2, 96009, Control_c, 0, 64, 76
2, 96009, Note_on_c, 0, 59, 0
2, 96029, Control_c, 0, 64, 78
2, 96038, Note_on_c, 0, 69, 0
2, 96048, Control_c, 0, 64, 79
2, 96069, Control_c, 0, 64, 82
2, 96087, Control_c, 0, 64, 85
2, 96106, Control_c, 0, 64, 88
2, 96125, Control_c, 0, 64, 94
2, 96138, Note_on_c, 0, 72, 0
2, 96148, Control_c, 0, 64, 98
2, 96163, Control_c, 0, 64, 102
2, 96183, Control_c, 0, 64, 107
2, 96198, Note_on_c, 0, 59, 58
2, 96202, Control_c, 0, 64, 112
2, 96222, Control_c, 0, 64, 118
2, 96240, Control_c, 0, 64, 122
2, 96260, Control_c, 0, 64, 127
2, 96276, Note_on_c, 0, 60, 0
2, 96468, Note_on_c, 0, 57, 56
2, 96522, Note_on_c, 0, 59, 0
2, 96586, Control_c, 0, 64, 118
2, 96607, Control_c, 0, 64, 111
2, 96625, Control_c, 0, 64, 106
2, 96644, Control_c, 0, 64, 102
2, 96663, Control_c, 0, 64, 99
2, 96682, Control_c, 0, 64, 98
2, 96700, Control_c, 0, 64, 96
2, 96722, Control_c, 0, 64, 90
2, 96722, Note_on_c, 0, 74, 72
2, 96731, Note_on_c, 0, 71, 62
2, 96735, Note_on_c, 0, 57, 0
2, 96741, Control_c, 0, 64, 75
2, 96746, Note_on_c, 0, 56, 49
2, 96760, Control_c, 0, 64, 62
2, 96779, Control_c, 0, 64, 48
2, 96797, Control_c, 0, 64, 35
2, 96818, Control_c, 0, 64, 28
2, 96855, Control_c, 0, 64, 31
2, 96874, Control_c, 0, 64, 39
2, 96894, Control_c, 0, 64, 51
2, 96915, Control_c, 0, 64, 60
2, 96933, Control_c, 0, 64, 63
2, 96950, Control_c, 0, 64, 65
2, 96969, Control_c, 0, 64, 66
2, 96990, Control_c, 0, 64, 67
2, 96995, Note_on_c, 0, 59, 55
2, 97010, Control_c, 0, 64, 69
2, 97028, Control_c, 0, 64, 72
2, 97048, Control_c, 0, 64, 75
2, 97065, Control_c, 0, 64, 78
2, 97085, Control_c, 0, 64, 80
2, 97103, Control_c, 0, 64, 81
2, 97258, Control_c, 0, 64, 80
2, 97261, Note_on_c, 0, 60, 55
2, 97291, Note_on_c, 0, 59, 0
2, 97337, Control_c, 0, 64, 79
2, 97392, Control_c, 0, 64, 78
2, 97431, Control_c, 0, 64, 77
2, 97468, Control_c, 0, 64, 76
2, 97488, Control_c, 0, 64, 74
2, 97497, Note_on_c, 0, 62, 59
2, 97508, Control_c, 0, 64, 73
2, 97527, Control_c, 0, 64, 72
2, 97527, Note_on_c, 0, 60, 0
2, 97545, Control_c, 0, 64, 70
2, 97565, Control_c, 0, 64, 69
2, 97622, Control_c, 0, 64, 68
2, 97642, Control_c, 0, 64, 69
2, 97738, Control_c, 0, 64, 65
2, 97754, Note_on_c, 0, 60, 57
2, 97758, Control_c, 0, 64, 57
2, 97772, Note_on_c, 0, 62, 0
2, 97776, Control_c, 0, 64, 32
2, 97797, Control_c, 0, 64, 0
2, 97853, Control_c, 0, 64, 28
2, 97873, Control_c, 0, 64, 44
2, 97892, Control_c, 0, 64, 56
2, 97909, Control_c, 0, 64, 62
2, 97929, Control_c, 0, 64, 63
2, 97948, Control_c, 0, 64, 64
2, 97988, Control_c, 0, 64, 65
2, 98005, Note_on_c, 0, 62, 59
2, 98009, Control_c, 0, 64, 67
2, 98028, Control_c, 0, 64, 70
2, 98044, Note_on_c, 0, 60, 0
2, 98045, Control_c, 0, 64, 74
2, 98064, Control_c, 0, 64, 76
2, 98084, Control_c, 0, 64, 77
2, 98103, Control_c, 0, 64, 78
2, 98121, Control_c, 0, 64, 79
2, 98141, Control_c, 0, 64, 81
2, 98161, Control_c, 0, 64, 83
2, 98181, Control_c, 0, 64, 85
2, 98191, Note_on_c, 0, 71, 0
2, 98199, Control_c, 0, 64, 86
2, 98214, Note_on_c, 0, 76, 0
2, 98218, Control_c, 0, 64, 88
2, 98244, Note_on_c, 0, 74, 0
2, 98260, Control_c, 0, 64, 87
2, 98275, Control_c, 0, 64, 82
2, 98280, Note_on_c, 0, 60, 59
2, 98296, Control_c, 0, 64, 78
2, 98302, Note_on_c, 0, 62, 0
2, 98335, Control_c, 0, 64, 79
2, 98353, Control_c, 0, 64, 81
2, 98372, Control_c, 0, 64, 85
2, 98394, Control_c, 0, 64, 88
2, 98412, Control_c, 0, 64, 90
2, 98431, Control_c, 0, 64, 92
2, 98436, Note_on_c, 0, 56, 0
2, 98449, Control_c, 0, 64, 93
2, 98468, Control_c, 0, 64, 94
2, 98516, Note_on_c, 0, 59, 58
2, 98559, Note_on_c, 0, 60, 0
2, 98564, Control_c, 0, 64, 93
2, 98603, Control_c, 0, 64, 92
2, 98682, Control_c, 0, 64, 93
2, 98697, Control_c, 0, 64, 97
2, 98719, Control_c, 0, 64, 112
2, 98738, Control_c, 0, 64, 127
2, 98752, Note_on_c, 0, 59, 0
2, 98775, Control_c, 0, 64, 104
2, 98780, Note_on_c, 0, 72, 67
2, 98790, Note_on_c, 0, 57, 61
2, 98790, Note_on_c, 0, 76, 66
2, 98795, Control_c, 0, 64, 70
2, 98813, Control_c, 0, 64, 53
2, 98817, Note_on_c, 0, 72, 0
2, 98836, Control_c, 0, 64, 0
2, 98893, Note_on_c, 0, 57, 0
2, 98898, Note_on_c, 0, 76, 0
2, 98915, Note_on_c, 0, 60, 56
2, 98919, Note_on_c, 0, 81, 57
2, 98982, Note_on_c, 0, 60, 0
2, 99008, Note_on_c, 0, 62, 56
2, 99012, Note_on_c, 0, 83, 60
2, 99025, Note_on_c, 0, 81, 0
2, 99097, Note_on_c, 0, 62, 0
2, 99117, Note_on_c, 0, 84, 71
2, 99121, Note_on_c, 0, 83, 0
2, 99127, Note_on_c, 0, 64, 59
2, 99181, Note_on_c, 0, 64, 0
2, 99218, Note_on_c, 0, 84, 0
2, 99231, Note_on_c, 0, 83, 70
2, 99253, Note_on_c, 0, 62, 55
2, 99294, Note_on_c, 0, 62, 0
2, 99334, Note_on_c, 0, 83, 0
2, 99343, Note_on_c, 0, 84, 71
2, 99364, Note_on_c, 0, 64, 45
2, 99400, Note_on_c, 0, 64, 0
2, 99429, Note_on_c, 0, 84, 0
2, 99441, Note_on_c, 0, 83, 66
2, 99449, Note_on_c, 0, 62, 59
2, 99531, Note_on_c, 0, 62, 0
2, 99540, Note_on_c, 0, 81, 75
2, 99562, Note_on_c, 0, 60, 67
2, 99571, Note_on_c, 0, 83, 0
2, 99608, Note_on_c, 0, 60, 0
2, 99630, Note_on_c, 0, 81, 0
2, 99657, Note_on_c, 0, 57, 72
2, 99657, Note_on_c, 0, 76, 82
2, 99739, Note_on_c, 0, 57, 0
2, 99762, Note_on_c, 0, 81, 79
2, 99766, Note_on_c, 0, 60, 59
2, 99777, Note_on_c, 0, 76, 0
2, 99846, Note_on_c, 0, 60, 0
2, 99865, Note_on_c, 0, 62, 66
2, 99879, Note_on_c, 0, 83, 76
2, 99886, Note_on_c, 0, 81, 0
2, 99938, Note_on_c, 0, 62, 0
2, 99970, Note_on_c, 0, 64, 67
2, 99975, Note_on_c, 0, 84, 81
2, 99986, Note_on_c, 0, 83, 0
2, 100026, Note_on_c, 0, 64, 0
2, 100087, Note_on_c, 0, 62, 71
2, 100087, Note_on_c, 0, 83, 76
2, 100091, Note_on_c, 0, 84, 0
2, 100150, Note_on_c, 0, 62, 0
2, 100201, Note_on_c, 0, 64, 67
2, 100201, Note_on_c, 0, 83, 0
2, 100201, Note_on_c, 0, 84, 78
2, 100253, Note_on_c, 0, 64, 0
2, 100304, Note_on_c, 0, 62, 68
2, 100304, Note_on_c, 0, 83, 70
2, 100304, Note_on_c, 0, 84, 0
2, 100365, Note_on_c, 0, 62, 0
2, 100396, Note_on_c, 0, 81, 82
2, 100412, Note_on_c, 0, 60, 70
2, 100412, Note_on_c, 0, 83, 0
2, 100467, Note_on_c, 0, 60, 0
2, 100505, Note_on_c, 0, 81, 0
2, 100510, Note_on_c, 0, 57, 81
2, 100516, Note_on_c, 0, 83, 85
2, 100588, Note_on_c, 0, 57, 0
2, 100627, Note_on_c, 0, 81, 80
2, 100634, Note_on_c, 0, 62, 67
2, 100661, Note_on_c, 0, 83, 0
2, 100704, Note_on_c, 0, 62, 0
2, 100724, Note_on_c, 0, 64, 70
2, 100728, Note_on_c, 0, 80, 82
2, 100733, Note_on_c, 0, 81, 0
2, 100807, Note_on_c, 0, 64, 0
2, 100837, Note_on_c, 0, 81, 78
2, 100841, Note_on_c, 0, 65, 67
2, 100845, Note_on_c, 0, 80, 0
2, 100892, Note_on_c, 0, 65, 0
2, 100944, Note_on_c, 0, 83, 84
2, 100953, Note_on_c, 0, 64, 75
2, 100957, Note_on_c, 0, 81, 0
2, 101016, Note_on_c, 0, 64, 0
2, 101051, Note_on_c, 0, 81, 79
2, 101055, Note_on_c, 0, 65, 65
2, 101081, Note_on_c, 0, 83, 0
2, 101107, Note_on_c, 0, 65, 0
2, 101161, Note_on_c, 0, 80, 83
2, 101166, Note_on_c, 0, 64, 71
2, 101166, Note_on_c, 0, 81, 0
2, 101235, Note_on_c, 0, 64, 0
2, 101269, Note_on_c, 0, 62, 65
2, 101269, Note_on_c, 0, 81, 80
2, 101274, Note_on_c, 0, 80, 0
2, 101309, Note_on_c, 0, 62, 0
2, 101343, Note_on_c, 0, 81, 0
2, 101370, Note_on_c, 0, 74, 90
2, 101374, Note_on_c, 0, 57, 76
2, 101402, Note_on_c, 0, 74, 0
2, 101446, Note_on_c, 0, 57, 0
2, 101497, Note_on_c, 0, 62, 71
2, 101575, Note_on_c, 0, 62, 0
2, 101610, Note_on_c, 0, 64, 65
2, 101619, Note_on_c, 0, 83, 90
2, 101695, Note_on_c, 0, 64, 0
2, 101725, Note_on_c, 0, 65, 64
2, 101788, Note_on_c, 0, 65, 0
2, 101834, Note_on_c, 0, 64, 75
2, 101901, Note_on_c, 0, 64, 0
2, 101943, Note_on_c, 0, 65, 64
2, 101951, Note_on_c, 0, 81, 74
2, 101980, Note_on_c, 0, 83, 0
2, 102004, Note_on_c, 0, 65, 0
2, 102051, Note_on_c, 0, 80, 84
2, 102062, Note_on_c, 0, 64, 66
2, 102066, Note_on_c, 0, 81, 0
2, 102153, Note_on_c, 0, 64, 0
2, 102165, Note_on_c, 0, 81, 79
2, 102171, Note_on_c, 0, 62, 72
2, 102184, Note_on_c, 0, 80, 0
2, 102230, Note_on_c, 0, 62, 0
2, 102239, Note_on_c, 0, 81, 0
2, 102268, Note_on_c, 0, 77, 88
2, 102279, Note_on_c, 0, 56, 70
2, 102333, Note_on_c, 0, 77, 0
2, 102365, Note_on_c, 0, 56, 0
2, 102376, Note_on_c, 0, 62, 71
2, 102385, Note_on_c, 0, 71, 82
2, 102467, Note_on_c, 0, 62, 0
2, 102471, Note_on_c, 0, 71, 0
2, 102491, Note_on_c, 0, 64, 66
2, 102491, Note_on_c, 0, 72, 83
2, 102550, Note_on_c, 0, 64, 0
2, 102568, Note_on_c, 0, 72, 0
2, 102597, Note_on_c, 0, 74, 78
2, 102602, Note_on_c, 0, 65, 60
2, 102654, Note_on_c, 0, 65, 0
2, 102702, Note_on_c, 0, 72, 82
2, 102702, Note_on_c, 0, 74, 0
2, 102715, Note_on_c, 0, 64, 62
2, 102772, Note_on_c, 0, 72, 0
2, 102776, Note_on_c, 0, 64, 0
2, 102806, Note_on_c, 0, 74, 77
2, 102837, Note_on_c, 0, 65, 50
2, 102884, Note_on_c, 0, 65, 0
2, 102915, Note_on_c, 0, 72, 76
2, 102919, Note_on_c, 0, 74, 0
2, 102930, Note_on_c, 0, 64, 56
2, 102986, Note_on_c, 0, 72, 0
2, 102995, Note_on_c, 0, 64, 0
2, 103023, Note_on_c, 0, 71, 73
2, 103028, Note_on_c, 0, 62, 63
2, 103068, Note_on_c, 0, 62, 0
2, 103085, Note_on_c, 0, 71, 0
2, 103130, Note_on_c, 0, 76, 85
2, 103156, Note_on_c, 0, 56, 63
2, 103194, Note_on_c, 0, 76, 0
2, 103225, Note_on_c, 0, 56, 0
2, 103250, Note_on_c, 0, 74, 74
2, 103263, Note_on_c, 0, 59, 61
2, 103301, Note_on_c, 0, 74, 0
2, 103347, Note_on_c, 0, 76, 81
2, 103351, Note_on_c, 0, 59, 0
2, 103378, Note_on_c, 0, 60, 62
2, 103430, Note_on_c, 0, 76, 0
2, 103435, Note_on_c, 0, 60, 0
2, 103465, Note_on_c, 0, 77, 76
2, 103479, Note_on_c, 0, 62, 65
2, 103525, Note_on_c, 0, 62, 0
2, 103564, Note_on_c, 0, 77, 0
2, 103572, Note_on_c, 0, 76, 74
2, 103584, Note_on_c, 0, 60, 63
2, 103639, Note_on_c, 0, 60, 0
2, 103648, Note_on_c, 0, 76, 0
2, 103684, Note_on_c, 0, 77, 74
2, 103699, Note_on_c, 0, 62, 53
2, 103743, Note_on_c, 0, 62, 0
2, 103787, Note_on_c, 0, 76, 76
2, 103791, Note_on_c, 0, 60, 61
2, 103796, Note_on_c, 0, 77, 0
2, 103850, Note_on_c, 0, 76, 0
2, 103854, Note_on_c, 0, 60, 0
2, 103895, Note_on_c, 0, 74, 71
2, 103911, Note_on_c, 0, 59, 59
2, 103928, Note_on_c, 0, 74, 0
2, 103965, Note_on_c, 0, 59, 0
2, 104003, Note_on_c, 0, 72, 77
2, 104009, Note_on_c, 0, 57, 60
2, 104068, Note_on_c, 0, 57, 0
2, 104074, Note_on_c, 0, 72, 0
2, 104110, Note_on_c, 0, 59, 61
2, 104128, Note_on_c, 0, 68, 78
2, 104184, Note_on_c, 0, 59, 0
2, 104210, Note_on_c, 0, 68, 0
2, 104221, Note_on_c, 0, 60, 59
2, 104235, Note_on_c, 0, 69, 70
2, 104286, Note_on_c, 0, 60, 0
2, 104334, Note_on_c, 0, 62, 62
2, 104334, Note_on_c, 0, 69, 0
2, 104343, Note_on_c, 0, 71, 69
2, 104384, Note_on_c, 0, 62, 0
2, 104437, Note_on_c, 0, 60, 65
2, 104441, Note_on_c, 0, 71, 0
2, 104442, Note_on_c, 0, 69, 70
2, 104504, Note_on_c, 0, 60, 0
2, 104524, Note_on_c, 0, 69, 0
2, 104553, Note_on_c, 0, 68, 75
2, 104557, Note_on_c, 0, 62, 60
2, 104601, Note_on_c, 0, 62, 0
2, 104606, Note_on_c, 0, 68, 0
2, 104657, Note_on_c, 0, 60, 59
2, 104657, Note_on_c, 0, 69, 67
2, 104713, Note_on_c, 0, 60, 0
2, 104739, Note_on_c, 0, 69, 0
2, 104762, Note_on_c, 0, 71, 71
2, 104769, Note_on_c, 0, 59, 64
2, 104796, Note_on_c, 0, 71, 0
2, 104819, Note_on_c, 0, 59, 0
2, 104861, Note_on_c, 0, 69, 78
2, 104874, Note_on_c, 0, 57, 70
2, 104917, Note_on_c, 0, 69, 0
2, 104932, Note_on_c, 0, 57, 0
2, 104980, Note_on_c, 0, 59, 69
2, 104980, Note_on_c, 0, 81, 75
2, 105043, Note_on_c, 0, 59, 0
2, 105095, Note_on_c, 0, 79, 74
2, 105097, Note_on_c, 0, 60, 61
2, 105101, Note_on_c, 0, 81, 0
2, 105155, Note_on_c, 0, 60, 0
2, 105193, Note_on_c, 0, 77, 80
2, 105197, Note_on_c, 0, 62, 67
2, 105218, Note_on_c, 0, 79, 0
2, 105249, Note_on_c, 0, 62, 0
2, 105299, Note_on_c, 0, 60, 69
2, 105308, Note_on_c, 0, 76, 82
2, 105308, Note_on_c, 0, 77, 0
2, 105362, Note_on_c, 0, 60, 0
2, 105381, Note_on_c, 0, 76, 0
2, 105408, Note_on_c, 0, 77, 83
2, 105417, Note_on_c, 0, 62, 60
2, 105468, Note_on_c, 0, 62, 0
2, 105513, Note_on_c, 0, 60, 63
2, 105518, Note_on_c, 0, 76, 79
2, 105526, Note_on_c, 0, 77, 0
2, 105585, Note_on_c, 0, 60, 0
2, 105589, Note_on_c, 0, 76, 0
2, 105626, Note_on_c, 0, 59, 67
2, 105630, Note_on_c, 0, 74, 73
2, 105672, Note_on_c, 0, 59, 0
2, 105728, Note_on_c, 0, 55, 69
2, 105741, Note_on_c, 0, 73, 79
2, 105745, Note_on_c, 0, 74, 0
2, 105817, Note_on_c, 0, 55, 0
2, 105835, Note_on_c, 0, 61, 64
2, 105848, Note_on_c, 0, 73, 0
2, 105859, Note_on_c, 0, 76, 76
2, 105909, Note_on_c, 0, 61, 0
2, 105940, Note_on_c, 0, 62, 72
2, 105960, Note_on_c, 0, 78, 80
2, 105999, Note_on_c, 0, 76, 0
2, 106023, Note_on_c, 0, 62, 0
2, 106052, Note_on_c, 0, 64, 79
2, 106063, Note_on_c, 0, 79, 86
2, 106076, Note_on_c, 0, 78, 0
2, 106127, Note_on_c, 0, 64, 0
2, 106170, Note_on_c, 0, 62, 77
2, 106178, Note_on_c, 0, 78, 84
2, 106178, Note_on_c, 0, 79, 0
2, 106241, Note_on_c, 0, 62, 0
2, 106274, Note_on_c, 0, 64, 75
2, 106279, Note_on_c, 0, 79, 77
2, 106288, Note_on_c, 0, 78, 0
2, 106366, Note_on_c, 0, 64, 0
2, 106385, Note_on_c, 0, 62, 74
2, 106385, Note_on_c, 0, 78, 82
2, 106399, Note_on_c, 0, 79, 0
2, 106482, Note_on_c, 0, 62, 0
2, 106486, Note_on_c, 0, 76, 86
2, 106508, Note_on_c, 0, 61, 66
2, 106529, Note_on_c, 0, 78, 0
2, 106558, Note_on_c, 0, 61, 0
2, 106565, Note_on_c, 0, 76, 0
2, 106596, Note_on_c, 0, 75, 87
2, 106601, Note_on_c, 0, 54, 78
2, 106690, Note_on_c, 0, 54, 0
2, 106715, Note_on_c, 0, 63, 78
2, 106719, Note_on_c, 0, 78, 88
2, 106739, Note_on_c, 0, 75, 0
2, 106802, Note_on_c, 0, 63, 0
2, 106819, Note_on_c, 0, 64, 82
2, 106824, Note_on_c, 0, 79, 86
2, 106867, Note_on_c, 0, 78, 0
2, 106908, Note_on_c, 0, 64, 0
2, 106933, Note_on_c, 0, 81, 90
2, 106936, Note_on_c, 0, 66, 81
2, 106946, Note_on_c, 0, 79, 0
2, 107011, Note_on_c, 0, 66, 0
2, 107041, Note_on_c, 0, 64, 80
2, 107047, Note_on_c, 0, 79, 91
2, 107053, Note_on_c, 0, 81, 0
2, 107131, Note_on_c, 0, 64, 0
2, 107154, Note_on_c, 0, 66, 74
2, 107158, Note_on_c, 0, 81, 84
2, 107165, Note_on_c, 0, 79, 0
2, 107216, Note_on_c, 0, 66, 0
2, 107265, Note_on_c, 0, 79, 87
2, 107269, Note_on_c, 0, 64, 68
2, 107269, Note_on_c, 0, 81, 0
2, 107346, Note_on_c, 0, 64, 0
2, 107362, Note_on_c, 0, 78, 86
2, 107376, Note_on_c, 0, 79, 0
2, 107381, Note_on_c, 0, 63, 68
2, 107434, Note_on_c, 0, 63, 0
2, 107442, Note_on_c, 0, 78, 0
2, 107471, Control_c, 0, 64, 36
2, 107476, Note_on_c, 0, 79, 98
2, 107489, Note_on_c, 0, 64, 80
2, 107494, Control_c, 0, 64, 69
2, 107510, Control_c, 0, 64, 89
2, 107529, Control_c, 0, 64, 127
2, 107543, Note_on_c, 0, 64, 0
2, 107547, Note_on_c, 0, 79, 0
2, 107601, Note_on_c, 0, 67, 81
2, 107608, Note_on_c, 0, 52, 61
2, 107705, Note_on_c, 0, 52, 0
2, 107709, Note_on_c, 0, 54, 70
2, 107709, Note_on_c, 0, 69, 75
2, 107743, Control_c, 0, 64, 100
2, 107750, Note_on_c, 0, 67, 0
2, 107760, Control_c, 0, 64, 72
2, 107781, Control_c, 0, 64, 52
2, 107801, Note_on_c, 0, 69, 0
2, 107805, Control_c, 0, 64, 0
2, 107805, Note_on_c, 0, 54, 0
2, 107805, Note_on_c, 0, 71, 80
2, 107810, Note_on_c, 0, 55, 69
2, 107878, Note_on_c, 0, 55, 0
2, 107903, Note_on_c, 0, 71, 0
2, 107914, Note_on_c, 0, 69, 75
2, 107931, Note_on_c, 0, 54, 65
2, 107993, Note_on_c, 0, 54, 0
2, 107999, Note_on_c, 0, 69, 0
2, 108019, Note_on_c, 0, 71, 76
2, 108026, Note_on_c, 0, 55, 61
2, 108114, Note_on_c, 0, 55, 0
2, 108121, Note_on_c, 0, 71, 0
2, 108127, Note_on_c, 0, 69, 73
2, 108132, Note_on_c, 0, 54, 70
2, 108193, Note_on_c, 0, 69, 0
2, 108207, Note_on_c, 0, 54, 0
2, 108239, Note_on_c, 0, 67, 74
2, 108244, Note_on_c, 0, 52, 60
2, 108296, Note_on_c, 0, 52, 0
2, 108296, Note_on_c, 0, 67, 0
2, 108347, Note_on_c, 0, 77, 99
2, 108356, Control_c, 0, 64, 24
2, 108358, Note_on_c, 0, 50, 71
2, 108375, Control_c, 0, 64, 75
2, 108394, Control_c, 0, 64, 127
2, 108417, Note_on_c, 0, 50, 0
2, 108443, Note_on_c, 0, 77, 0
2, 108475, Note_on_c, 0, 52, 59
2, 108483, Note_on_c, 0, 68, 72
2, 108532, Note_on_c, 0, 52, 0
2, 108532, Note_on_c, 0, 68, 0
2, 108568, Note_on_c, 0, 53, 67
2, 108583, Note_on_c, 0, 69, 70
2, 108662, Note_on_c, 0, 53, 0
2, 108681, Control_c, 0, 64, 95
2, 108681, Note_on_c, 0, 69, 0
2, 108688, Note_on_c, 0, 71, 80
2, 108692, Note_on_c, 0, 55, 61
2, 108701, Control_c, 0, 64, 69
2, 108719, Control_c, 0, 64, 45
2, 108742, Control_c, 0, 64, 0
2, 108742, Note_on_c, 0, 55, 0
2, 108781, Note_on_c, 0, 71, 0
2, 108798, Note_on_c, 0, 69, 73
2, 108803, Note_on_c, 0, 53, 65
2, 108857, Note_on_c, 0, 53, 0
2, 108883, Note_on_c, 0, 69, 0
2, 108897, Note_on_c, 0, 71, 77
2, 108916, Note_on_c, 0, 55, 48
2, 108985, Note_on_c, 0, 71, 0
2, 109007, Note_on_c, 0, 69, 68
2, 109016, Note_on_c, 0, 55, 0
2, 109034, Note_on_c, 0, 53, 54
2, 109073, Note_on_c, 0, 69, 0
2, 109104, Note_on_c, 0, 53, 0
2, 109119, Note_on_c, 0, 68, 76
2, 109128, Note_on_c, 0, 52, 54
2, 109173, Note_on_c, 0, 68, 0
2, 109186, Note_on_c, 0, 52, 0
2, 109219, Note_on_c, 0, 76, 85
2, 109221, Note_on_c, 0, 48, 62
2, 109239, Control_c, 0, 64, 36
2, 109257, Control_c, 0, 64, 73
2, 109277, Control_c, 0, 64, 102
2, 109292, Note_on_c, 0, 48, 0
2, 109300, Control_c, 0, 64, 127
2, 109338, Note_on_c, 0, 69, 62
2, 109341, Note_on_c, 0, 54, 64
2, 109381, Note_on_c, 0, 76, 0
2, 109400, Note_on_c, 0, 54, 0
2, 109414, Note_on_c, 0, 69, 0
2, 109434, Note_on_c, 0, 71, 73
2, 109451, Note_on_c, 0, 56, 55
2, 109503, Note_on_c, 0, 56, 0
2, 109525, Note_on_c, 0, 71, 0
2, 109547, Note_on_c, 0, 72, 76
2, 109552, Note_on_c, 0, 57, 63
2, 109566, Control_c, 0, 64, 99
2, 109585, Control_c, 0, 64, 68
2, 109604, Note_on_c, 0, 57, 0
2, 109609, Control_c, 0, 64, 26
2, 109622, Control_c, 0, 64, 0
2, 109636, Note_on_c, 0, 72, 0
2, 109652, Note_on_c, 0, 56, 65
2, 109660, Note_on_c, 0, 71, 72
2, 109707, Note_on_c, 0, 56, 0
2, 109715, Note_on_c, 0, 71, 0
2, 109759, Note_on_c, 0, 72, 71
2, 109768, Note_on_c, 0, 57, 61
2, 109822, Note_on_c, 0, 57, 0
2, 109861, Note_on_c, 0, 71, 67
2, 109861, Note_on_c, 0, 72, 0
2, 109871, Note_on_c, 0, 56, 57
2, 109940, Note_on_c, 0, 56, 0
2, 109940, Note_on_c, 0, 71, 0
2, 109972, Note_on_c, 0, 54, 52
2, 109972, Note_on_c, 0, 69, 61
2, 110013, Note_on_c, 0, 54, 0
2, 110032, Note_on_c, 0, 69, 0
2, 110077, Note_on_c, 0, 47, 57
2, 110082, Note_on_c, 0, 74, 73
2, 110102, Control_c, 0, 64, 26
2, 110115, Note_on_c, 0, 47, 0
2, 110123, Control_c, 0, 64, 65
2, 110140, Control_c, 0, 64, 81
2, 110161, Control_c, 0, 64, 99
2, 110177, Note_on_c, 0, 74, 0
2, 110181, Control_c, 0, 64, 93
2, 110190, Note_on_c, 0, 71, 65
2, 110199, Control_c, 0, 64, 90
2, 110208, Note_on_c, 0, 56, 60
2, 110270, Note_on_c, 0, 56, 0
2, 110277, Control_c, 0, 64, 89
2, 110294, Control_c, 0, 64, 88
2, 110308, Note_on_c, 0, 72, 68
2, 110312, Note_on_c, 0, 71, 0
2, 110317, Note_on_c, 0, 57, 66
2, 110354, Control_c, 0, 64, 87
2, 110374, Note_on_c, 0, 57, 0
2, 110398, Note_on_c, 0, 72, 0
2, 110406, Note_on_c, 0, 74, 73
2, 110429, Note_on_c, 0, 59, 55
2, 110452, Control_c, 0, 64, 85
2, 110469, Control_c, 0, 64, 81
2, 110480, Note_on_c, 0, 59, 0
2, 110489, Control_c, 0, 64, 67
2, 110498, Note_on_c, 0, 74, 0
2, 110507, Control_c, 0, 64, 49
2, 110517, Note_on_c, 0, 72, 71
2, 110521, Note_on_c, 0, 57, 64
2, 110526, Control_c, 0, 64, 0
2, 110579, Note_on_c, 0, 57, 0
2, 110603, Note_on_c, 0, 72, 0
2, 110623, Note_on_c, 0, 74, 72
2, 110637, Note_on_c, 0, 59, 53
2, 110688, Note_on_c, 0, 59, 0
2, 110707, Note_on_c, 0, 74, 0
2, 110728, Note_on_c, 0, 72, 71
2, 110736, Note_on_c, 0, 57, 59
2, 110796, Note_on_c, 0, 57, 0
2, 110824, Note_on_c, 0, 72, 0
2, 110828, Note_on_c, 0, 71, 71
2, 110840, Note_on_c, 0, 56, 63
2, 110873, Note_on_c, 0, 71, 0
2, 110886, Note_on_c, 0, 56, 0
2, 110937, Note_on_c, 0, 57, 69
2, 110947, Note_on_c, 0, 72, 79
2, 110967, Control_c, 0, 64, 45
2, 110987, Control_c, 0, 64, 51
2, 110996, Note_on_c, 0, 57, 0
2, 111004, Control_c, 0, 64, 39
2, 111024, Control_c, 0, 64, 24
2, 111037, Note_on_c, 0, 72, 0
2, 111044, Control_c, 0, 64, 21
2, 111049, Note_on_c, 0, 69, 67
2, 111076, Note_on_c, 0, 45, 44
2, 111103, Control_c, 0, 64, 20
2, 111122, Control_c, 0, 64, 18
2, 111139, Control_c, 0, 64, 16
2, 111143, Note_on_c, 0, 69, 0
2, 111154, Note_on_c, 0, 45, 0
2, 111154, Note_on_c, 0, 68, 72
2, 111166, Note_on_c, 0, 47, 57
2, 111235, Note_on_c, 0, 47, 0
2, 111237, Control_c, 0, 64, 15
2, 111254, Control_c, 0, 64, 13
2, 111265, Note_on_c, 0, 68, 0
2, 111265, Note_on_c, 0, 69, 70
2, 111275, Control_c, 0, 64, 0
2, 111275, Note_on_c, 0, 48, 55
2, 111319, Note_on_c, 0, 69, 0
2, 111331, Note_on_c, 0, 48, 0
2, 111359, Note_on_c, 0, 64, 80
2, 111377, Note_on_c, 0, 47, 59
2, 111426, Note_on_c, 0, 47, 0
2, 111461, Note_on_c, 0, 64, 0
2, 111466, Note_on_c, 0, 69, 71
2, 111490, Note_on_c, 0, 48, 49
2, 111527, Note_on_c, 0, 48, 0
2, 111571, Note_on_c, 0, 47, 61
2, 111571, Note_on_c, 0, 69, 0
2, 111575, Note_on_c, 0, 68, 81
2, 111633, Note_on_c, 0, 45, 47
2, 111656, Note_on_c, 0, 47, 0
2, 111670, Note_on_c, 0, 69, 74
2, 111674, Note_on_c, 0, 45, 0
2, 111674, Note_on_c, 0, 68, 0
2, 111769, Note_on_c, 0, 72, 81
2, 111779, Note_on_c, 0, 69, 0
2, 111820, Note_on_c, 0, 43, 40
2, 111859, Note_on_c, 0, 41, 3
2, 111875, Note_on_c, 0, 43, 0
2, 111892, Note_on_c, 0, 45, 62
2, 111908, Note_on_c, 0, 41, 0
2, 112000, Note_on_c, 0, 45, 0
2, 112021, Note_on_c, 0, 47, 59
2, 112099, Note_on_c, 0, 47, 0
2, 112114, Note_on_c, 0, 48, 60
2, 112172, Note_on_c, 0, 48, 0
2, 112230, Note_on_c, 0, 47, 64
2, 112294, Note_on_c, 0, 47, 0
2, 112335, Note_on_c, 0, 48, 57
2, 112421, Note_on_c, 0, 48, 0
2, 112443, Note_on_c, 0, 47, 66
2, 112545, Note_on_c, 0, 47, 0
2, 112559, Note_on_c, 0, 45, 59
2, 112650, Note_on_c, 0, 45, 0
2, 112658, Note_on_c, 0, 42, 77
2, 112750, Note_on_c, 0, 69, 67
2, 112755, Note_on_c, 0, 72, 0
2, 112764, Note_on_c, 0, 42, 0
2, 112778, Note_on_c, 0, 45, 58
2, 112850, Note_on_c, 0, 69, 0
2, 112859, Note_on_c, 0, 68, 73
2, 112868, Note_on_c, 0, 45, 0
2, 112874, Note_on_c, 0, 47, 66
2, 112959, Note_on_c, 0, 68, 0
2, 112963, Note_on_c, 0, 69, 73
2, 112986, Note_on_c, 0, 47, 0
2, 112986, Note_on_c, 0, 48, 67
2, 113046, Note_on_c, 0, 48, 0
2, 113069, Note_on_c, 0, 69, 0
2, 113080, Note_on_c, 0, 63, 73
2, 113085, Note_on_c, 0, 47, 65
2, 113153, Note_on_c, 0, 47, 0
2, 113166, Note_on_c, 0, 63, 0
2, 113195, Note_on_c, 0, 48, 67
2, 113200, Note_on_c, 0, 69, 70
2, 113266, Note_on_c, 0, 48, 0
2, 113297, Note_on_c, 0, 69, 0
2, 113304, Note_on_c, 0, 47, 69
2, 113304, Note_on_c, 0, 68, 74
2, 113401, Note_on_c, 0, 45, 65
2, 113401, Note_on_c, 0, 47, 0
2, 113405, Note_on_c, 0, 69, 72
2, 113412, Note_on_c, 0, 68, 0
2, 113457, Note_on_c, 0, 45, 0
2, 113507, Note_on_c, 0, 69, 0
2, 113509, Note_on_c, 0, 40, 75
2, 113514, Note_on_c, 0, 72, 86
2, 113539, Control_c, 0, 64, 49
2, 113557, Control_c, 0, 64, 65
2, 113577, Control_c, 0, 64, 61
2, 113599, Control_c, 0, 64, 55
2, 113620, Control_c, 0, 64, 53
2, 113620, Note_on_c, 0, 69, 75
2, 113626, Note_on_c, 0, 45, 65
2, 113626, Note_on_c, 0, 72, 0
2, 113628, Note_on_c, 0, 40, 0
2, 113676, Control_c, 0, 64, 52
2, 113692, Control_c, 0, 64, 51
2, 113712, Control_c, 0, 64, 50
2, 113729, Note_on_c, 0, 68, 79
2, 113729, Note_on_c, 0, 69, 0
2, 113733, Control_c, 0, 64, 49
2, 113741, Note_on_c, 0, 45, 0
2, 113741, Note_on_c, 0, 47, 69
2, 113752, Control_c, 0, 64, 48
2, 113769, Control_c, 0, 64, 47
2, 113789, Control_c, 0, 64, 44
2, 113807, Control_c, 0, 64, 39
2, 113829, Control_c, 0, 64, 33
2, 113829, Note_on_c, 0, 47, 0
2, 113838, Note_on_c, 0, 68, 0
2, 113838, Note_on_c, 0, 69, 78
2, 113849, Control_c, 0, 64, 21
2, 113849, Note_on_c, 0, 48, 73
2, 113867, Control_c, 0, 64, 0
2, 113927, Note_on_c, 0, 48, 0
2, 113940, Note_on_c, 0, 69, 0
2, 113949, Note_on_c, 0, 64, 83
2, 113955, Note_on_c, 0, 47, 73
2, 114035, Note_on_c, 0, 47, 0
2, 114059, Note_on_c, 0, 48, 72
2, 114064, Note_on_c, 0, 69, 76
2, 114068, Note_on_c, 0, 64, 0
2, 114150, Note_on_c, 0, 48, 0
2, 114159, Note_on_c, 0, 68, 82
2, 114163, Note_on_c, 0, 69, 0
2, 114176, Note_on_c, 0, 47, 64
2, 114268, Note_on_c, 0, 47, 0
2, 114275, Note_on_c, 0, 45, 72
2, 114275, Note_on_c, 0, 69, 78
2, 114286, Note_on_c, 0, 68, 0
2, 114364, Note_on_c, 0, 45, 0
2, 114373, Note_on_c, 0, 69, 0
2, 114373, Note_on_c, 0, 72, 90
2, 114379, Note_on_c, 0, 39, 80
2, 114483, Note_on_c, 0, 45, 59
2, 114483, Note_on_c, 0, 66, 79
2, 114493, Note_on_c, 0, 39, 0
2, 114493, Note_on_c, 0, 72, 0
2, 114573, Note_on_c, 0, 47, 74
2, 114597, Note_on_c, 0, 45, 0
2, 114599, Note_on_c, 0, 67, 72
2, 114615, Note_on_c, 0, 66, 0
2, 114680, Note_on_c, 0, 47, 0
2, 114685, Note_on_c, 0, 48, 73
2, 114689, Note_on_c, 0, 69, 80
2, 114709, Note_on_c, 0, 67, 0
2, 114772, Note_on_c, 0, 48, 0
2, 114797, Note_on_c, 0, 67, 80
2, 114806, Note_on_c, 0, 47, 76
2, 114835, Note_on_c, 0, 69, 0
2, 114898, Note_on_c, 0, 47, 0
2, 114907, Note_on_c, 0, 48, 77
2, 114907, Note_on_c, 0, 66, 85
2, 114917, Note_on_c, 0, 67, 0
2, 114993, Note_on_c, 0, 48, 0
2, 114993, Note_on_c, 0, 66, 0
2, 115021, Note_on_c, 0, 47, 76
2, 115021, Note_on_c, 0, 64, 87
2, 115111, Note_on_c, 0, 45, 75
2, 115117, Note_on_c, 0, 47, 0
2, 115133, Note_on_c, 0, 63, 82
2, 115144, Note_on_c, 0, 64, 0
2, 115166, Note_on_c, 0, 45, 0
2, 115212, Note_on_c, 0, 63, 0
2, 115234, Note_on_c, 0, 40, 80
2, 115234, Note_on_c, 0, 71, 92
2, 115334, Note_on_c, 0, 43, 78
2, 115349, Note_on_c, 0, 40, 0
2, 115349, Note_on_c, 0, 64, 84
2, 115403, Note_on_c, 0, 71, 0
2, 115445, Note_on_c, 0, 45, 75
2, 115454, Note_on_c, 0, 66, 85
2, 115459, Note_on_c, 0, 43, 0
2, 115468, Note_on_c, 0, 64, 0
2, 115547, Note_on_c, 0, 45, 0
2, 115556, Note_on_c, 0, 47, 80
2, 115564, Note_on_c, 0, 67, 88
2, 115573, Note_on_c, 0, 66, 0
2, 115651, Note_on_c, 0, 47, 0
2, 115666, Note_on_c, 0, 45, 78
2, 115670, Note_on_c, 0, 66, 87
2, 115689, Note_on_c, 0, 67, 0
2, 115767, Note_on_c, 0, 45, 0
2, 115767, Note_on_c, 0, 66, 0
2, 115781, Note_on_c, 0, 47, 78
2, 115781, Note_on_c, 0, 64, 85
2, 115866, Note_on_c, 0, 47, 0
2, 115890, Note_on_c, 0, 45, 73
2, 115898, Note_on_c, 0, 63, 82
2, 115909, Note_on_c, 0, 64, 0
2, 115966, Note_on_c, 0, 63, 0
2, 115983, Note_on_c, 0, 43, 69
2, 115987, Note_on_c, 0, 45, 0
2, 116011, Note_on_c, 0, 64, 75
2, 116033, Note_on_c, 0, 43, 0
2, 116067, Note_on_c, 0, 64, 0
2, 116110, Note_on_c, 0, 36, 87
2, 116122, Note_on_c, 0, 69, 82
2, 116133, Control_c, 0, 64, 39
2, 116150, Control_c, 0, 64, 77
2, 116169, Control_c, 0, 64, 127
2, 116189, Note_on_c, 0, 69, 0
2, 116329, Note_on_c, 0, 79, 91
2, 116436, Note_on_c, 0, 36, 0
2, 116442, Note_on_c, 0, 81, 86
2, 116478, Note_on_c, 0, 79, 0
2, 116556, Note_on_c, 0, 83, 90
2, 116565, Note_on_c, 0, 81, 0
2, 116664, Note_on_c, 0, 81, 88
2, 116678, Note_on_c, 0, 83, 0
2, 116729, Control_c, 0, 64, 70
2, 116746, Control_c, 0, 64, 37
2, 116766, Control_c, 0, 64, 0
2, 116770, Note_on_c, 0, 83, 88
2, 116774, Note_on_c, 0, 81, 0
2, 116871, Note_on_c, 0, 81, 88
2, 116910, Note_on_c, 0, 83, 0
2, 116965, Note_on_c, 0, 79, 92
2, 117001, Note_on_c, 0, 81, 0
2, 117086, Note_on_c, 0, 69, 84
2, 117117, Note_on_c, 0, 79, 0
2, 117173, Note_on_c, 0, 57, 75
2, 117195, Note_on_c, 0, 78, 82
2, 117199, Note_on_c, 0, 69, 0
2, 117286, Note_on_c, 0, 59, 80
2, 117295, Note_on_c, 0, 79, 88
2, 117317, Note_on_c, 0, 78, 0
2, 117334, Note_on_c, 0, 57, 0
2, 117378, Note_on_c, 0, 59, 0
2, 117393, Note_on_c, 0, 60, 81
2, 117398, Note_on_c, 0, 81, 86
2, 117421, Note_on_c, 0, 79, 0
2, 117456, Note_on_c, 0, 81, 0
2, 117462, Note_on_c, 0, 60, 0
2, 117500, Note_on_c, 0, 79, 89
2, 117509, Note_on_c, 0, 59, 83
2, 117575, Note_on_c, 0, 59, 0
2, 117612, Note_on_c, 0, 60, 80
2, 117612, Note_on_c, 0, 81, 86
2, 117621, Note_on_c, 0, 79, 0
2, 117684, Note_on_c, 0, 60, 0
2, 117717, Note_on_c, 0, 79, 88
2, 117726, Note_on_c, 0, 59, 78
2, 117741, Note_on_c, 0, 81, 0
2, 117793, Note_on_c, 0, 79, 0
2, 117818, Note_on_c, 0, 57, 77
2, 117818, Note_on_c, 0, 59, 0
2, 117820, Note_on_c, 0, 78, 90
2, 117847, Note_on_c, 0, 57, 0
2, 117890, Note_on_c, 0, 78, 0
2, 117936, Note_on_c, 0, 70, 86
2, 117945, Note_on_c, 0, 49, 77
2, 118015, Control_c, 0, 64, 58
2, 118032, Control_c, 0, 64, 71
2, 118050, Note_on_c, 0, 76, 82
2, 118052, Control_c, 0, 64, 78
2, 118056, Note_on_c, 0, 70, 0
2, 118073, Control_c, 0, 64, 85
2, 118089, Control_c, 0, 64, 89
2, 118110, Control_c, 0, 64, 99
2, 118128, Control_c, 0, 64, 127
2, 118167, Note_on_c, 0, 78, 81
2, 118198, Note_on_c, 0, 76, 0
2, 118259, Note_on_c, 0, 79, 86
2, 118286, Note_on_c, 0, 78, 0
2, 118340, Note_on_c, 0, 49, 0
2, 118379, Note_on_c, 0, 78, 89
2, 118398, Control_c, 0, 64, 113
2, 118398, Note_on_c, 0, 79, 0
2, 118417, Control_c, 0, 64, 65
2, 118436, Control_c, 0, 64, 35
2, 118455, Control_c, 0, 64, 0
2, 118488, Note_on_c, 0, 79, 84
2, 118503, Note_on_c, 0, 78, 0
2, 118597, Note_on_c, 0, 78, 87
2, 118632, Note_on_c, 0, 79, 0
2, 118693, Note_on_c, 0, 76, 85
2, 118717, Note_on_c, 0, 78, 0
2, 118726, Control_c, 0, 64, 23
2, 118726, Note_on_c, 0, 76, 0
2, 118743, Control_c, 0, 64, 55
2, 118760, Control_c, 0, 64, 59
2, 118781, Control_c, 0, 64, 53
2, 118798, Control_c, 0, 64, 51
2, 118833, Note_on_c, 0, 75, 86
2, 118838, Note_on_c, 0, 47, 63
2, 118842, Control_c, 0, 64, 50
2, 118859, Control_c, 0, 64, 46
2, 118876, Control_c, 0, 64, 33
2, 118897, Control_c, 0, 64, 0
2, 118969, Note_on_c, 0, 69, 72
2, 118977, Note_on_c, 0, 54, 70
2, 119081, Note_on_c, 0, 71, 77
2, 119087, Note_on_c, 0, 69, 0
2, 119092, Note_on_c, 0, 55, 72
2, 119124, Note_on_c, 0, 54, 0
2, 119147, Control_c, 0, 64, 44
2, 119166, Control_c, 0, 64, 51
2, 119185, Note_on_c, 0, 55, 0
2, 119189, Control_c, 0, 64, 47
2, 119189, Note_on_c, 0, 72, 84
2, 119194, Note_on_c, 0, 71, 0
2, 119200, Note_on_c, 0, 57, 69
2, 119204, Control_c, 0, 64, 42
2, 119221, Control_c, 0, 64, 41
2, 119243, Control_c, 0, 64, 42
2, 119282, Control_c, 0, 64, 41
2, 119289, Note_on_c, 0, 71, 83
2, 119300, Control_c, 0, 64, 40
2, 119306, Note_on_c, 0, 57, 0
2, 119306, Note_on_c, 0, 72, 0
2, 119325, Note_on_c, 0, 55, 66
2, 119339, Control_c, 0, 64, 39
2, 119348, Note_on_c, 0, 75, 0
2, 119377, Control_c, 0, 64, 38
2, 119387, Note_on_c, 0, 55, 0
2, 119393, Note_on_c, 0, 72, 83
2, 119399, Control_c, 0, 64, 35
2, 119399, Note_on_c, 0, 71, 0
2, 119416, Control_c, 0, 64, 33
2, 119436, Control_c, 0, 64, 32
2, 119436, Note_on_c, 0, 57, 69
2, 119491, Note_on_c, 0, 57, 0
2, 119508, Note_on_c, 0, 71, 88
2, 119513, Control_c, 0, 64, 31
2, 119529, Note_on_c, 0, 55, 68
2, 119548, Note_on_c, 0, 72, 0
2, 119615, Note_on_c, 0, 69, 79
2, 119618, Note_on_c, 0, 47, 0
2, 119627, Note_on_c, 0, 71, 0
2, 119635, Note_on_c, 0, 54, 70
2, 119639, Note_on_c, 0, 55, 0
2, 119659, Note_on_c, 0, 69, 0
2, 119682, Control_c, 0, 64, 30
2, 119701, Control_c, 0, 64, 25
2, 119713, Note_on_c, 0, 54, 0
2, 119721, Control_c, 0, 64, 0
2, 119724, Note_on_c, 0, 47, 74
2, 119728, Note_on_c, 0, 67, 94
2, 119816, Note_on_c, 0, 47, 0
2, 119832, Note_on_c, 0, 55, 71
2, 119841, Note_on_c, 0, 71, 80
2, 119941, Note_on_c, 0, 55, 0
2, 119948, Note_on_c, 0, 57, 73
2, 119955, Note_on_c, 0, 72, 78
2, 119983, Note_on_c, 0, 71, 0
2, 120046, Note_on_c, 0, 57, 0
2, 120056, Note_on_c, 0, 59, 76
2, 120067, Note_on_c, 0, 74, 80
2, 120072, Note_on_c, 0, 72, 0
2, 120142, Note_on_c, 0, 59, 0
2, 120178, Note_on_c, 0, 72, 85
2, 120182, Note_on_c, 0, 74, 0
2, 120187, Note_on_c, 0, 57, 82
2, 120270, Note_on_c, 0, 57, 0
2, 120288, Note_on_c, 0, 74, 80
2, 120292, Note_on_c, 0, 72, 0
2, 120297, Note_on_c, 0, 59, 75
2, 120306, Note_on_c, 0, 67, 0
2, 120337, Control_c, 0, 64, 49
2, 120356, Control_c, 0, 64, 58
2, 120367, Note_on_c, 0, 59, 0
2, 120395, Note_on_c, 0, 72, 87
2, 120411, Note_on_c, 0, 57, 74
2, 120415, Control_c, 0, 64, 59
2, 120429, Note_on_c, 0, 74, 0
2, 120434, Control_c, 0, 64, 60
2, 120451, Control_c, 0, 64, 62
2, 120492, Control_c, 0, 64, 63
2, 120499, Note_on_c, 0, 71, 80
2, 120503, Note_on_c, 0, 72, 0
2, 120508, Note_on_c, 0, 55, 75
2, 120508, Note_on_c, 0, 57, 0
2, 120531, Control_c, 0, 64, 60
2, 120531, Note_on_c, 0, 71, 0
2, 120537, Note_on_c, 0, 55, 0
2, 120546, Control_c, 0, 64, 49
2, 120565, Control_c, 0, 64, 0
2, 120617, Note_on_c, 0, 47, 76
2, 120621, Note_on_c, 0, 69, 91
2, 120654, Note_on_c, 0, 47, 0
2, 120662, Control_c, 0, 64, 34
2, 120684, Control_c, 0, 64, 58
2, 120700, Control_c, 0, 64, 67
2, 120720, Control_c, 0, 64, 73
2, 120742, Control_c, 0, 64, 77
2, 120742, Note_on_c, 0, 66, 75
2, 120750, Note_on_c, 0, 57, 69
2, 120777, Control_c, 0, 64, 76
2, 120797, Control_c, 0, 64, 75
2, 120817, Control_c, 0, 64, 73
2, 120836, Control_c, 0, 64, 72
2, 120836, Note_on_c, 0, 57, 0
2, 120843, Note_on_c, 0, 59, 74
2, 120854, Control_c, 0, 64, 70
2, 120866, Note_on_c, 0, 67, 74
2, 120875, Control_c, 0, 64, 68
2, 120886, Note_on_c, 0, 69, 0
2, 120893, Control_c, 0, 64, 67
2, 120911, Control_c, 0, 64, 66
2, 120921, Note_on_c, 0, 66, 0
2, 120939, Note_on_c, 0, 59, 0
2, 120951, Control_c, 0, 64, 65
2, 120964, Note_on_c, 0, 60, 73
2, 120964, Note_on_c, 0, 69, 69
2, 120973, Note_on_c, 0, 67, 0
2, 120987, Control_c, 0, 64, 64
2, 121027, Control_c, 0, 64, 63
2, 121032, Note_on_c, 0, 60, 0
2, 121047, Control_c, 0, 64, 61
2, 121065, Control_c, 0, 64, 56
2, 121074, Note_on_c, 0, 67, 81
2, 121078, Note_on_c, 0, 59, 77
2, 121083, Note_on_c, 0, 69, 0
2, 121087, Control_c, 0, 64, 42
2, 121104, Control_c, 0, 64, 0
2, 121161, Note_on_c, 0, 59, 0
2, 121183, Note_on_c, 0, 67, 0
2, 121183, Note_on_c, 0, 69, 80
2, 121187, Note_on_c, 0, 60, 72
2, 121247, Note_on_c, 0, 60, 0
2, 121286, Note_on_c, 0, 67, 84
2, 121295, Note_on_c, 0, 59, 64
2, 121304, Note_on_c, 0, 69, 0
2, 121347, Note_on_c, 0, 59, 0
2, 121383, Note_on_c, 0, 66, 85
2, 121387, Note_on_c, 0, 57, 65
2, 121408, Note_on_c, 0, 67, 0
2, 121425, Note_on_c, 0, 57, 0
2, 121451, Note_on_c, 0, 66, 0
2, 121494, Note_on_c, 0, 47, 74
2, 121494, Note_on_c, 0, 64, 95
2, 121525, Note_on_c, 0, 47, 0
2, 121530, Control_c, 0, 64, 18
2, 121545, Control_c, 0, 64, 59
2, 121563, Control_c, 0, 64, 71
2, 121583, Control_c, 0, 64, 78
2, 121602, Control_c, 0, 64, 79
2, 121614, Note_on_c, 0, 67, 77
2, 121627, Note_on_c, 0, 59, 68
2, 121678, Control_c, 0, 64, 78
2, 121685, Note_on_c, 0, 59, 0
2, 121712, Note_on_c, 0, 60, 67
2, 121717, Control_c, 0, 64, 77
2, 121725, Note_on_c, 0, 69, 63
2, 121738, Control_c, 0, 64, 75
2, 121743, Note_on_c, 0, 67, 0
2, 121755, Control_c, 0, 64, 74
2, 121775, Control_c, 0, 64, 72
2, 121794, Control_c, 0, 64, 71
2, 121803, Note_on_c, 0, 60, 0
2, 121814, Control_c, 0, 64, 70
2, 121814, Note_on_c, 0, 71, 77
2, 121818, Note_on_c, 0, 62, 72
2, 121825, Note_on_c, 0, 69, 0
2, 121833, Control_c, 0, 64, 69
2, 121849, Control_c, 0, 64, 68
2, 121869, Control_c, 0, 64, 67
2, 121888, Control_c, 0, 64, 64
2, 121896, Note_on_c, 0, 62, 0
2, 121907, Control_c, 0, 64, 58
2, 121925, Note_on_c, 0, 71, 0
2, 121929, Control_c, 0, 64, 38
2, 121929, Note_on_c, 0, 69, 74
2, 121940, Note_on_c, 0, 60, 70
2, 121951, Control_c, 0, 64, 0
2, 122022, Note_on_c, 0, 60, 0
2, 122027, Note_on_c, 0, 71, 80
2, 122037, Note_on_c, 0, 69, 0
2, 122043, Note_on_c, 0, 62, 71
2, 122118, Note_on_c, 0, 62, 0
2, 122133, Note_on_c, 0, 69, 66
2, 122142, Note_on_c, 0, 64, 0
2, 122158, Note_on_c, 0, 60, 66
2, 122164, Note_on_c, 0, 71, 0
2, 122212, Note_on_c, 0, 60, 0
2, 122244, Note_on_c, 0, 59, 53
2, 122257, Note_on_c, 0, 67, 71
2, 122257, Note_on_c, 0, 69, 0
2, 122280, Note_on_c, 0, 59, 0
2, 122332, Note_on_c, 0, 67, 0
2, 122347, Note_on_c, 0, 47, 73
2, 122356, Note_on_c, 0, 63, 83
2, 122370, Control_c, 0, 64, 28
2, 122390, Control_c, 0, 64, 58
2, 122394, Note_on_c, 0, 47, 0
2, 122410, Control_c, 0, 64, 64
2, 122481, Note_on_c, 0, 66, 69
2, 122495, Note_on_c, 0, 57, 61
2, 122503, Control_c, 0, 64, 63
2, 122552, Note_on_c, 0, 57, 0
2, 122575, Note_on_c, 0, 67, 67
2, 122584, Control_c, 0, 64, 62
2, 122584, Note_on_c, 0, 59, 62
2, 122584, Note_on_c, 0, 66, 0
2, 122666, Note_on_c, 0, 59, 0
2, 122670, Note_on_c, 0, 69, 71
2, 122675, Note_on_c, 0, 67, 0
2, 122689, Note_on_c, 0, 60, 65
2, 122754, Note_on_c, 0, 60, 0
2, 122756, Control_c, 0, 64, 61
2, 122772, Control_c, 0, 64, 60
2, 122783, Note_on_c, 0, 69, 0
2, 122788, Note_on_c, 0, 67, 71
2, 122792, Control_c, 0, 64, 54
2, 122805, Note_on_c, 0, 59, 70
2, 122812, Control_c, 0, 64, 31
2, 122833, Control_c, 0, 64, 0
2, 122867, Note_on_c, 0, 59, 0
2, 122891, Note_on_c, 0, 67, 0
2, 122891, Note_on_c, 0, 69, 71
2, 122896, Note_on_c, 0, 63, 0
2, 122905, Note_on_c, 0, 60, 64
2, 122957, Note_on_c, 0, 60, 0
2, 122993, Note_on_c, 0, 67, 73
2, 123012, Note_on_c, 0, 59, 64
2, 123019, Note_on_c, 0, 69, 0
2, 123071, Note_on_c, 0, 59, 0
2, 123098, Note_on_c, 0, 57, 65
2, 123098, Note_on_c, 0, 67, 0
2, 123102, Note_on_c, 0, 66, 73
2, 123137, Note_on_c, 0, 57, 0
2, 123173, Note_on_c, 0, 66, 0
2, 123205, Note_on_c, 0, 61, 77
2, 123209, Note_on_c, 0, 47, 69
2, 123248, Note_on_c, 0, 47, 0
2, 123330, Note_on_c, 0, 64, 62
2, 123337, Note_on_c, 0, 55, 60
2, 123392, Note_on_c, 0, 55, 0
2, 123429, Note_on_c, 0, 66, 66
2, 123433, Note_on_c, 0, 57, 57
2, 123444, Note_on_c, 0, 64, 0
2, 123518, Note_on_c, 0, 57, 0
2, 123538, Note_on_c, 0, 66, 0
2, 123538, Note_on_c, 0, 67, 67
2, 123542, Note_on_c, 0, 59, 61
2, 123597, Note_on_c, 0, 59, 0
2, 123641, Note_on_c, 0, 67, 0
2, 123645, Note_on_c, 0, 66, 68
2, 123666, Note_on_c, 0, 57, 61
2, 123720, Note_on_c, 0, 57, 0
2, 123748, Note_on_c, 0, 66, 0
2, 123752, Control_c, 0, 64, 20
2, 123757, Note_on_c, 0, 59, 66
2, 123768, Note_on_c, 0, 67, 58
2, 123772, Control_c, 0, 64, 55
2, 123790, Control_c, 0, 64, 62
2, 123809, Control_c, 0, 64, 61
2, 123824, Note_on_c, 0, 59, 0
2, 123868, Note_on_c, 0, 67, 0
2, 123874, Note_on_c, 0, 57, 61
2, 123874, Note_on_c, 0, 66, 66
2, 123944, Note_on_c, 0, 64, 69
2, 123953, Note_on_c, 0, 57, 0
2, 123953, Note_on_c, 0, 66, 0
2, 123957, Note_on_c, 0, 61, 0
2, 123962, Note_on_c, 0, 55, 59
2, 123978, Note_on_c, 0, 64, 0
2, 123993, Note_on_c, 0, 55, 0
2, 124024, Control_c, 0, 64, 60
2, 124039, Control_c, 0, 64, 54
2, 124059, Control_c, 0, 64, 26
2, 124081, Control_c, 0, 64, 0
2, 124081, Note_on_c, 0, 47, 67
2, 124093, Note_on_c, 0, 63, 70
2, 124183, Note_on_c, 0, 47, 0
2, 124231, Note_on_c, 0, 54, 55
2, 124231, Note_on_c, 0, 57, 58
2, 124318, Note_on_c, 0, 54, 0
2, 124318, Note_on_c, 0, 57, 0
2, 124327, Note_on_c, 0, 59, 62
2, 124341, Note_on_c, 0, 55, 55
2, 124422, Note_on_c, 0, 55, 0
2, 124422, Note_on_c, 0, 59, 0
2, 124441, Note_on_c, 0, 60, 63
2, 124461, Note_on_c, 0, 57, 64
2, 124510, Note_on_c, 0, 57, 0
2, 124541, Note_on_c, 0, 60, 0
2, 124557, Note_on_c, 0, 59, 65
2, 124569, Note_on_c, 0, 55, 58
2, 124624, Note_on_c, 0, 55, 0
2, 124633, Note_on_c, 0, 63, 0
2, 124642, Note_on_c, 0, 59, 0
2, 124665, Note_on_c, 0, 60, 63
2, 124672, Note_on_c, 0, 57, 58
2, 124733, Note_on_c, 0, 57, 0
2, 124756, Note_on_c, 0, 60, 0
2, 124768, Note_on_c, 0, 59, 62
2, 124780, Note_on_c, 0, 55, 58
2, 124835, Note_on_c, 0, 59, 0
2, 124855, Note_on_c, 0, 55, 0
2, 124855, Note_on_c, 0, 57, 71
2, 124896, Note_on_c, 0, 54, 60
2, 124915, Note_on_c, 0, 57, 0
2, 124948, Note_on_c, 0, 54, 0
2, 124980, Note_on_c, 0, 59, 69
2, 124997, Note_on_c, 0, 55, 65
2, 125034, Note_on_c, 0, 59, 0
2, 125045, Note_on_c, 0, 55, 0
2, 125091, Note_on_c, 0, 61, 69
2, 125103, Note_on_c, 0, 59, 61
2, 125176, Note_on_c, 0, 59, 0
2, 125200, Note_on_c, 0, 61, 0
2, 125200, Note_on_c, 0, 63, 72
2, 125213, Note_on_c, 0, 57, 67
2, 125248, Note_on_c, 0, 63, 0
2, 125307, Note_on_c, 0, 64, 76
2, 125317, Note_on_c, 0, 57, 0
2, 125326, Note_on_c, 0, 55, 60
2, 125388, Note_on_c, 0, 64, 0
2, 125412, Note_on_c, 0, 55, 0
2, 125416, Note_on_c, 0, 54, 66
2, 125421, Note_on_c, 0, 66, 71
2, 125475, Note_on_c, 0, 54, 0
2, 125505, Note_on_c, 0, 66, 0
2, 125520, Note_on_c, 0, 52, 71
2, 125528, Note_on_c, 0, 67, 72
2, 125567, Note_on_c, 0, 52, 0
2, 125630, Note_on_c, 0, 51, 73
2, 125643, Note_on_c, 0, 67, 0
2, 125647, Note_on_c, 0, 69, 70
2, 125701, Note_on_c, 0, 51, 0
2, 125743, Note_on_c, 0, 54, 68
2, 125743, Note_on_c, 0, 71, 79
2, 125752, Note_on_c, 0, 69, 0
2, 125798, Note_on_c, 0, 71, 0
2, 125802, Note_on_c, 0, 54, 0
2, 125850, Note_on_c, 0, 72, 88
2, 125854, Note_on_c, 0, 47, 64
2, 125904, Control_c, 0, 64, 22
2, 125922, Control_c, 0, 64, 57
2, 125941, Control_c, 0, 64, 64
2, 125962, Control_c, 0, 64, 63
2, 125980, Control_c, 0, 64, 62
2, 125982, Note_on_c, 0, 66, 65
2, 125986, Note_on_c, 0, 51, 66
2, 126056, Control_c, 0, 64, 61
2, 126073, Note_on_c, 0, 66, 0
2, 126086, Note_on_c, 0, 67, 60
2, 126095, Control_c, 0, 64, 60
2, 126124, Note_on_c, 0, 51, 0
2, 126124, Note_on_c, 0, 52, 67
2, 126167, Note_on_c, 0, 69, 62
2, 126171, Note_on_c, 0, 67, 0
2, 126220, Note_on_c, 0, 52, 0
2, 126236, Note_on_c, 0, 54, 67
2, 126269, Note_on_c, 0, 67, 75
2, 126273, Note_on_c, 0, 69, 0
2, 126286, Control_c, 0, 64, 58
2, 126304, Control_c, 0, 64, 47
2, 126324, Control_c, 0, 64, 0
2, 126333, Note_on_c, 0, 54, 0
2, 126357, Note_on_c, 0, 52, 66
2, 126380, Note_on_c, 0, 69, 71
2, 126387, Note_on_c, 0, 67, 0
2, 126427, Note_on_c, 0, 72, 0
2, 126445, Note_on_c, 0, 52, 0
2, 126474, Note_on_c, 0, 54, 67
2, 126491, Note_on_c, 0, 67, 75
2, 126551, Note_on_c, 0, 54, 0
2, 126551, Note_on_c, 0, 69, 0
2, 126567, Note_on_c, 0, 52, 69
2, 126597, Note_on_c, 0, 66, 80
2, 126601, Note_on_c, 0, 67, 0
2, 126620, Note_on_c, 0, 47, 0
2, 126682, Note_on_c, 0, 52, 0
2, 126688, Note_on_c, 0, 51, 66
2, 126694, Note_on_c, 0, 66, 0
2, 126723, Note_on_c, 0, 73, 94
2, 126742, Note_on_c, 0, 51, 0
2, 126749, Note_on_c, 0, 47, 68
2, 126839, Note_on_c, 0, 67, 79
2, 126861, Note_on_c, 0, 52, 68
2, 126944, Note_on_c, 0, 69, 77
2, 126953, Note_on_c, 0, 67, 0
2, 126964, Note_on_c, 0, 54, 74
2, 126987, Note_on_c, 0, 52, 0
2, 127048, Note_on_c, 0, 71, 82
2, 127057, Note_on_c, 0, 69, 0
2, 127062, Note_on_c, 0, 54, 0
2, 127075, Note_on_c, 0, 55, 75
2, 127166, Note_on_c, 0, 69, 82
2, 127170, Note_on_c, 0, 55, 0
2, 127183, Note_on_c, 0, 54, 77
2, 127187, Note_on_c, 0, 71, 0
2, 127258, Note_on_c, 0, 54, 0
2, 127269, Note_on_c, 0, 71, 82
2, 127278, Note_on_c, 0, 69, 0
2, 127278, Note_on_c, 0, 73, 0
2, 127286, Note_on_c, 0, 55, 70
2, 127385, Note_on_c, 0, 54, 76
2, 127389, Note_on_c, 0, 69, 80
2, 127393, Note_on_c, 0, 55, 0
2, 127412, Note_on_c, 0, 71, 0
2, 127476, Note_on_c, 0, 47, 0
2, 127487, Note_on_c, 0, 52, 74
2, 127497, Note_on_c, 0, 67, 83
2, 127502, Note_on_c, 0, 69, 0
2, 127511, Note_on_c, 0, 54, 0
2, 127580, Note_on_c, 0, 52, 0
2, 127614, Note_on_c, 0, 47, 72
2, 127615, Note_on_c, 0, 75, 94
2, 127640, Note_on_c, 0, 67, 0
2, 127704, Control_c, 0, 64, 51
2, 127724, Control_c, 0, 64, 61
2, 127735, Note_on_c, 0, 54, 71
2, 127741, Control_c, 0, 64, 60
2, 127746, Note_on_c, 0, 69, 80
2, 127764, Control_c, 0, 64, 58
2, 127779, Control_c, 0, 64, 57
2, 127817, Control_c, 0, 64, 56
2, 127838, Control_c, 0, 64, 55
2, 127847, Note_on_c, 0, 55, 68
2, 127851, Note_on_c, 0, 71, 83
2, 127860, Control_c, 0, 64, 54
2, 127860, Note_on_c, 0, 69, 0
2, 127865, Note_on_c, 0, 54, 0
2, 127876, Control_c, 0, 64, 52
2, 127915, Control_c, 0, 64, 51
2, 127937, Control_c, 0, 64, 50
2, 127949, Note_on_c, 0, 57, 76
2, 127954, Control_c, 0, 64, 44
2, 127958, Note_on_c, 0, 72, 88
2, 127960, Note_on_c, 0, 55, 0
2, 127975, Control_c, 0, 64, 34
2, 127975, Note_on_c, 0, 71, 0
2, 127993, Control_c, 0, 64, 0
2, 128079, Note_on_c, 0, 71, 89
2, 128084, Note_on_c, 0, 57, 0
2, 128092, Note_on_c, 0, 55, 76
2, 128101, Note_on_c, 0, 72, 0
2, 128184, Control_c, 0, 64, 8
2, 128198, Note_on_c, 0, 72, 87
2, 128208, Control_c, 0, 64, 41
2, 128208, Note_on_c, 0, 55, 0
2, 128218, Note_on_c, 0, 57, 76
2, 128225, Control_c, 0, 64, 49
2, 128225, Note_on_c, 0, 71, 0
2, 128242, Control_c, 0, 64, 51
2, 128246, Note_on_c, 0, 75, 0
2, 128259, Control_c, 0, 64, 52
2, 128278, Control_c, 0, 64, 54
2, 128302, Control_c, 0, 64, 58
2, 128317, Control_c, 0, 64, 61
2, 128339, Note_on_c, 0, 57, 0
2, 128343, Control_c, 0, 64, 62
2, 128343, Note_on_c, 0, 55, 76
2, 128343, Note_on_c, 0, 71, 93
2, 128358, Control_c, 0, 64, 63
2, 128358, Note_on_c, 0, 47, 0
2, 128389, Note_on_c, 0, 72, 0
2, 128393, Control_c, 0, 64, 64
2, 128434, Control_c, 0, 64, 65
2, 128452, Control_c, 0, 64, 66
2, 128472, Control_c, 0, 64, 67
2, 128481, Note_on_c, 0, 54, 78
2, 128481, Note_on_c, 0, 69, 87
2, 128491, Control_c, 0, 64, 69
2, 128511, Control_c, 0, 64, 70
2, 128520, Note_on_c, 0, 71, 0
2, 128529, Control_c, 0, 64, 71
2, 128534, Note_on_c, 0, 55, 0
2, 128548, Control_c, 0, 64, 72
2, 128571, Control_c, 0, 64, 74
2, 128587, Control_c, 0, 64, 75
2, 128616, Note_on_c, 0, 69, 0
2, 128625, Control_c, 0, 64, 76
2, 128645, Control_c, 0, 64, 77
2, 128665, Control_c, 0, 64, 78
2, 128683, Control_c, 0, 64, 75
2, 128703, Control_c, 0, 64, 62
2, 128707, Note_on_c, 0, 76, 97
2, 128714, Note_on_c, 0, 67, 78
2, 128721, Control_c, 0, 64, 25
2, 128721, Note_on_c, 0, 52, 70
2, 128736, Note_on_c, 0, 48, 71
2, 128736, Note_on_c, 0, 54, 0
2, 128740, Control_c, 0, 64, 0
2, 128859, Control_c, 0, 64, 49
2, 128875, Control_c, 0, 64, 65
2, 128894, Control_c, 0, 64, 67
2, 128933, Control_c, 0, 64, 68
2, 128953, Control_c, 0, 64, 69
2, 128955, Note_on_c, 0, 74, 88
2, 128970, Control_c, 0, 64, 72
2, 128986, Note_on_c, 0, 67, 0
2, 128990, Control_c, 0, 64, 74
2, 129011, Control_c, 0, 64, 76
2, 129011, Note_on_c, 0, 76, 0
2, 129029, Control_c, 0, 64, 77
2, 129066, Control_c, 0, 64, 78
2, 129079, Note_on_c, 0, 72, 94
2, 129135, Note_on_c, 0, 74, 0
2, 129143, Control_c, 0, 64, 77
2, 129197, Note_on_c, 0, 71, 92
2, 129202, Control_c, 0, 64, 76
2, 129239, Control_c, 0, 64, 75
2, 129239, Note_on_c, 0, 72, 0
2, 129258, Control_c, 0, 64, 74
2, 129281, Control_c, 0, 64, 73
2, 129300, Control_c, 0, 64, 72
2, 129309, Note_on_c, 0, 48, 0
2, 129316, Note_on_c, 0, 69, 86
2, 129322, Control_c, 0, 64, 70
2, 129322, Note_on_c, 0, 52, 0
2, 129327, Note_on_c, 0, 71, 0
2, 129338, Control_c, 0, 64, 69
2, 129361, Control_c, 0, 64, 68
2, 129378, Control_c, 0, 64, 67
2, 129397, Control_c, 0, 64, 66
2, 129415, Control_c, 0, 64, 65
2, 129428, Note_on_c, 0, 67, 93
2, 129437, Control_c, 0, 64, 63
2, 129448, Note_on_c, 0, 69, 0
2, 129457, Control_c, 0, 64, 61
2, 129473, Control_c, 0, 64, 57
2, 129493, Control_c, 0, 64, 55
2, 129511, Control_c, 0, 64, 52
2, 129533, Control_c, 0, 64, 50
2, 129533, Note_on_c, 0, 66, 88
2, 129544, Note_on_c, 0, 67, 0
2, 129549, Control_c, 0, 64, 47
2, 129570, Control_c, 0, 64, 42
2, 129588, Control_c, 0, 64, 37
2, 129606, Control_c, 0, 64, 30
2, 129628, Control_c, 0, 64, 20
2, 129648, Note_on_c, 0, 64, 86
2, 129652, Control_c, 0, 64, 0
2, 129652, Note_on_c, 0, 66, 0
2, 129757, Note_on_c, 0, 72, 91
2, 129761, Note_on_c, 0, 45, 70
2, 129776, Note_on_c, 0, 64, 0
2, 129877, Note_on_c, 0, 71, 87
2, 129879, Note_on_c, 0, 47, 73
2, 129917, Note_on_c, 0, 72, 0
2, 129921, Note_on_c, 0, 45, 0
2, 129989, Note_on_c, 0, 48, 76
2, 129994, Note_on_c, 0, 69, 86
2, 130005, Note_on_c, 0, 47, 0
2, 130045, Note_on_c, 0, 71, 0
2, 130107, Note_on_c, 0, 50, 79
2, 130107, Note_on_c, 0, 69, 0
2, 130114, Note_on_c, 0, 67, 82
2, 130118, Note_on_c, 0, 48, 0
2, 130194, Note_on_c, 0, 50, 0
2, 130227, Note_on_c, 0, 52, 80
2, 130231, Note_on_c, 0, 66, 89
2, 130242, Note_on_c, 0, 67, 0
2, 130353, Note_on_c, 0, 52, 0
2, 130353, Note_on_c, 0, 66, 0
2, 130354, Note_on_c, 0, 54, 76
2, 130358, Note_on_c, 0, 64, 84
2, 130472, Note_on_c, 0, 55, 79
2, 130475, Note_on_c, 0, 54, 0
2, 130483, Note_on_c, 0, 63, 81
2, 130501, Note_on_c, 0, 64, 0
2, 130589, Note_on_c, 0, 55, 0
2, 130593, Note_on_c, 0, 57, 81
2, 130600, Note_on_c, 0, 61, 80
2, 130638, Note_on_c, 0, 63, 0
2, 130749, Note_on_c, 0, 47, 69
2, 130758, Note_on_c, 0, 63, 86
2, 130796, Note_on_c, 0, 61, 0
2, 130911, Note_on_c, 0, 59, 85
2, 131061, Note_on_c, 0, 66, 85
2, 131094, Note_on_c, 0, 63, 0
2, 131111, Note_on_c, 0, 57, 0
2, 131235, Note_on_c, 0, 57, 81
2, 131431, Note_on_c, 0, 55, 75
2, 131516, Note_on_c, 0, 57, 0
2, 131578, Note_on_c, 0, 66, 0
2, 131673, Note_on_c, 0, 64, 81
2, 131805, Note_on_c, 0, 59, 0
2, 131965, Note_on_c, 0, 54, 62
2, 131975, Note_on_c, 0, 57, 72
2, 132029, Note_on_c, 0, 55, 0
2, 132265, Control_c, 0, 64, 14
2, 132283, Control_c, 0, 64, 22
2, 132304, Control_c, 0, 64, 27
2, 132322, Control_c, 0, 64, 30
2, 132342, Control_c, 0, 64, 33
2, 132361, Control_c, 0, 64, 35
2, 132381, Control_c, 0, 64, 38
2, 132392, Note_on_c, 0, 63, 76
2, 132398, Control_c, 0, 64, 42
2, 132418, Control_c, 0, 64, 45
2, 132440, Control_c, 0, 64, 49
2, 132447, Note_on_c, 0, 64, 0
2, 132458, Control_c, 0, 64, 54
2, 132474, Control_c, 0, 64, 57
2, 132495, Control_c, 0, 64, 59
2, 132517, Control_c, 0, 64, 62
2, 132537, Control_c, 0, 64, 64
2, 132550, Note_on_c, 0, 47, 0
2, 132554, Control_c, 0, 64, 67
2, 132571, Control_c, 0, 64, 72
2, 132581, Note_on_c, 0, 54, 0
2, 132592, Control_c, 0, 64, 80
2, 132592, Note_on_c, 0, 57, 0
2, 132612, Control_c, 0, 64, 89
2, 132628, Control_c, 0, 64, 100
2, 132651, Control_c, 0, 64, 115
2, 132666, Note_on_c, 0, 63, 0
2, 132667, Control_c, 0, 64, 127
2, 133052, Control_c, 0, 64, 122
2, 133070, Control_c, 0, 64, 108
2, 133089, Control_c, 0, 64, 97
2, 133103, Note_on_c, 0, 64, 75
2, 133110, Control_c, 0, 64, 85
2, 133129, Control_c, 0, 64, 69
2, 133133, Note_on_c, 0, 40, 43
2, 133133, Note_on_c, 0, 56, 51
2, 133139, Note_on_c, 0, 59, 45
2, 133144, Note_on_c, 0, 52, 42
2, 133149, Control_c, 0, 64, 53
2, 133167, Control_c, 0, 64, 19
2, 133187, Control_c, 0, 64, 0
2, 133833, Control_c, 0, 64, 20
2, 133849, Control_c, 0, 64, 29
2, 133869, Control_c, 0, 64, 35
2, 133889, Control_c, 0, 64, 39
2, 133908, Control_c, 0, 64, 43
2, 133926, Control_c, 0, 64, 45
2, 133945, Control_c, 0, 64, 48
2, 133965, Control_c, 0, 64, 51
2, 133987, Control_c, 0, 64, 53
2, 134003, Control_c, 0, 64, 54
2, 134022, Control_c, 0, 64, 55
2, 134042, Control_c, 0, 64, 56
2, 134061, Control_c, 0, 64, 57
2, 134080, Control_c, 0, 64, 58
2, 134120, Control_c, 0, 64, 59
2, 134139, Control_c, 0, 64, 60
2, 134177, Control_c, 0, 64, 61
2, 134213, Control_c, 0, 64, 62
2, 134253, Control_c, 0, 64, 63
2, 134291, Control_c, 0, 64, 64
2, 134329, Control_c, 0, 64, 65
2, 134367, Control_c, 0, 64, 66
2, 134389, Control_c, 0, 64, 67
2, 134427, Control_c, 0, 64, 68
2, 134445, Control_c, 0, 64, 69
2, 134484, Control_c, 0, 64, 70
2, 134657, Control_c, 0, 64, 69
2, 134772, Control_c, 0, 64, 68
2, 134809, Control_c, 0, 64, 66
2, 134814, Note_on_c, 0, 64, 0
2, 134819, Note_on_c, 0, 40, 0
2, 134825, Note_on_c, 0, 52, 0
2, 134831, Control_c, 0, 64, 64
2, 134841, Note_on_c, 0, 56, 0
2, 134851, Control_c, 0, 64, 59
2, 134862, Note_on_c, 0, 59, 0
2, 134871, Control_c, 0, 64, 51
2, 134886, Control_c, 0, 64, 39
2, 134908, Control_c, 0, 64, 19
2, 134925, Control_c, 0, 64, 0
2, 136536, Note_on_c, 0, 64, 90
2, 136658, Note_on_c, 0, 64, 0
2, 136658, Note_on_c, 0, 67, 84
2, 136766, Note_on_c, 0, 71, 88
2, 136782, Note_on_c, 0, 67, 0
2, 136877, Note_on_c, 0, 71, 0
2, 136882, Note_on_c, 0, 76, 90
2, 136996, Note_on_c, 0, 75, 86
2, 137005, Note_on_c, 0, 76, 0
2, 137114, Note_on_c, 0, 76, 91
2, 137126, Note_on_c, 0, 75, 0
2, 137178, Note_on_c, 0, 76, 0
2, 137235, Note_on_c, 0, 74, 86
2, 137344, Note_on_c, 0, 76, 86
2, 137346, Note_on_c, 0, 74, 0
2, 137459, Note_on_c, 0, 73, 89
2, 137469, Note_on_c, 0, 76, 0
2, 137570, Note_on_c, 0, 73, 0
2, 137570, Note_on_c, 0, 76, 84
2, 137678, Note_on_c, 0, 76, 0
2, 137685, Note_on_c, 0, 72, 86
2, 137784, Note_on_c, 0, 72, 0
2, 137792, Note_on_c, 0, 76, 88
2, 137907, Note_on_c, 0, 71, 88
2, 137917, Note_on_c, 0, 76, 0
2, 138002, Note_on_c, 0, 71, 0
2, 138028, Note_on_c, 0, 76, 77
2, 138134, Note_on_c, 0, 75, 82
2, 138138, Note_on_c, 0, 76, 0
2, 138248, Note_on_c, 0, 76, 88
2, 138250, Note_on_c, 0, 75, 0
2, 138364, Note_on_c, 0, 76, 0
2, 138367, Note_on_c, 0, 70, 87
2, 138479, Note_on_c, 0, 73, 79
2, 138503, Note_on_c, 0, 70, 0
2, 138581, Note_on_c, 0, 73, 0
2, 138583, Note_on_c, 0, 67, 80
2, 138688, Note_on_c, 0, 66, 86
2, 138697, Note_on_c, 0, 67, 0
2, 138802, Note_on_c, 0, 66, 0
2, 138806, Note_on_c, 0, 67, 84
2, 138914, Note_on_c, 0, 70, 84
2, 138919, Note_on_c, 0, 67, 0
2, 139016, Note_on_c, 0, 70, 0
2, 139020, Note_on_c, 0, 66, 77
2, 139116, Note_on_c, 0, 66, 0
2, 139127, Note_on_c, 0, 64, 80
2, 139196, Note_on_c, 0, 64, 0
2, 139244, Note_on_c, 0, 47, 78
2, 139244, Note_on_c, 0, 62, 82
2, 139279, Note_on_c, 0, 62, 0
2, 139356, Note_on_c, 0, 47, 0
2, 139356, Note_on_c, 0, 50, 76
2, 139453, Note_on_c, 0, 50, 0
2, 139453, Note_on_c, 0, 54, 83
2, 139465, Note_on_c, 0, 71, 80
2, 139506, Note_on_c, 0, 71, 0
2, 139535, Note_on_c, 0, 54, 0
2, 139565, Note_on_c, 0, 59, 85
2, 139683, Note_on_c, 0, 58, 89
2, 139683, Note_on_c, 0, 59, 0
2, 139771, Note_on_c, 0, 58, 0
2, 139800, Note_on_c, 0, 59, 87
2, 139805, Note_on_c, 0, 78, 82
2, 139862, Note_on_c, 0, 59, 0
2, 139907, Note_on_c, 0, 79, 85
2, 139916, Note_on_c, 0, 57, 83
2, 139927, Note_on_c, 0, 78, 0
2, 139993, Note_on_c, 0, 57, 0
2, 140011, Note_on_c, 0, 78, 85
2, 140020, Note_on_c, 0, 59, 78
2, 140044, Note_on_c, 0, 79, 0
2, 140105, Note_on_c, 0, 59, 0
2, 140136, Note_on_c, 0, 76, 87
2, 140140, Note_on_c, 0, 56, 80
2, 140153, Note_on_c, 0, 78, 0
2, 140219, Note_on_c, 0, 56, 0
2, 140223, Note_on_c, 0, 76, 0
2, 140241, Note_on_c, 0, 74, 81
2, 140246, Note_on_c, 0, 59, 78
2, 140328, Note_on_c, 0, 59, 0
2, 140348, Note_on_c, 0, 73, 85
2, 140360, Note_on_c, 0, 74, 0
2, 140364, Note_on_c, 0, 55, 76
2, 140437, Note_on_c, 0, 55, 0
2, 140460, Note_on_c, 0, 76, 89
2, 140465, Note_on_c, 0, 73, 0
2, 140474, Note_on_c, 0, 59, 75
2, 140565, Note_on_c, 0, 59, 0
2, 140581, Note_on_c, 0, 74, 85
2, 140594, Note_on_c, 0, 54, 80
2, 140624, Note_on_c, 0, 76, 0
2, 140665, Note_on_c, 0, 54, 0
2, 140702, Note_on_c, 0, 59, 80
2, 140783, Note_on_c, 0, 59, 0
2, 140817, Note_on_c, 0, 58, 78
2, 140896, Note_on_c, 0, 58, 0
2, 140921, Note_on_c, 0, 59, 81
2, 141006, Note_on_c, 0, 59, 0
2, 141046, Note_on_c, 0, 53, 79
2, 141113, Note_on_c, 0, 53, 0
2, 141150, Note_on_c, 0, 56, 75
2, 141162, Note_on_c, 0, 73, 75
2, 141199, Note_on_c, 0, 56, 0
2, 141219, Note_on_c, 0, 74, 0
2, 141266, Note_on_c, 0, 71, 83
2, 141271, Note_on_c, 0, 50, 73
2, 141310, Note_on_c, 0, 73, 0
2, 141364, Note_on_c, 0, 50, 0
2, 141380, Note_on_c, 0, 70, 84
2, 141382, Note_on_c, 0, 49, 73
2, 141389, Note_on_c, 0, 71, 0
2, 141489, Note_on_c, 0, 49, 0
2, 141493, Note_on_c, 0, 71, 85
2, 141498, Note_on_c, 0, 50, 72
2, 141505, Note_on_c, 0, 70, 0
2, 141546, Note_on_c, 0, 50, 0
2, 141597, Note_on_c, 0, 73, 86
2, 141602, Note_on_c, 0, 53, 75
2, 141615, Note_on_c, 0, 71, 0
2, 141684, Note_on_c, 0, 53, 0
2, 141704, Note_on_c, 0, 70, 87
2, 141711, Note_on_c, 0, 49, 70
2, 141722, Note_on_c, 0, 73, 0
2, 141817, Note_on_c, 0, 49, 0
2, 141822, Note_on_c, 0, 71, 81
2, 141831, Note_on_c, 0, 47, 67
2, 141841, Note_on_c, 0, 70, 0
2, 141915, Note_on_c, 0, 47, 0
2, 141937, Note_on_c, 0, 46, 80
2, 141942, Note_on_c, 0, 73, 85
2, 141964, Note_on_c, 0, 71, 0
2, 141975, Note_on_c, 0, 46, 0
2, 142061, Note_on_c, 0, 66, 77
2, 142075, Note_on_c, 0, 73, 0
2, 142161, Note_on_c, 0, 66, 0
2, 142171, Note_on_c, 0, 54, 65
2, 142177, Note_on_c, 0, 70, 75
2, 142201, Note_on_c, 0, 54, 0
2, 142282, Note_on_c, 0, 70, 0
2, 142282, Note_on_c, 0, 73, 78
2, 142394, Note_on_c, 0, 73, 0
2, 142394, Note_on_c, 0, 76, 82
2, 142473, Note_on_c, 0, 76, 0
2, 142504, Note_on_c, 0, 66, 75
2, 142508, Note_on_c, 0, 70, 83
2, 142587, Note_on_c, 0, 66, 0
2, 142608, Note_on_c, 0, 67, 80
2, 142613, Note_on_c, 0, 70, 0
2, 142620, Note_on_c, 0, 73, 88
2, 142703, Note_on_c, 0, 67, 0
2, 142716, Note_on_c, 0, 66, 83
2, 142727, Note_on_c, 0, 76, 84
2, 142741, Note_on_c, 0, 73, 0
2, 142840, Note_on_c, 0, 64, 75
2, 142840, Note_on_c, 0, 79, 88
2, 142844, Note_on_c, 0, 76, 0
2, 142853, Note_on_c, 0, 66, 0
2, 142958, Note_on_c, 0, 78, 88
2, 142960, Note_on_c, 0, 62, 72
2, 142965, Note_on_c, 0, 64, 0
2, 142984, Note_on_c, 0, 79, 0
2, 143064, Note_on_c, 0, 76, 91
2, 143075, Note_on_c, 0, 61, 64
2, 143079, Note_on_c, 0, 62, 0
2, 143088, Note_on_c, 0, 78, 0
2, 143180, Note_on_c, 0, 64, 74
2, 143180, Note_on_c, 0, 76, 0
2, 143185, Note_on_c, 0, 79, 84
2, 143188, Note_on_c, 0, 61, 0
2, 143294, Note_on_c, 0, 62, 77
2, 143294, Note_on_c, 0, 64, 0
2, 143300, Note_on_c, 0, 78, 87
2, 143330, Note_on_c, 0, 79, 0
2, 143408, Note_on_c, 0, 76, 86
2, 143450, Note_on_c, 0, 78, 0
2, 143492, Note_on_c, 0, 76, 0
2, 143527, Note_on_c, 0, 74, 83
2, 143612, Note_on_c, 0, 74, 0
2, 143633, Note_on_c, 0, 73, 87
2, 143725, Note_on_c, 0, 73, 0
2, 143753, Note_on_c, 0, 71, 81
2, 143855, Note_on_c, 0, 70, 83
2, 143859, Note_on_c, 0, 61, 58
2, 143868, Note_on_c, 0, 71, 0
2, 143873, Note_on_c, 0, 62, 0
2, 143957, Note_on_c, 0, 68, 85
2, 143973, Note_on_c, 0, 61, 0
2, 143979, Note_on_c, 0, 59, 65
2, 143979, Note_on_c, 0, 70, 0
2, 144061, Note_on_c, 0, 66, 83
2, 144066, Note_on_c, 0, 59, 0
2, 144070, Note_on_c, 0, 68, 0
2, 144075, Note_on_c, 0, 58, 71
2, 144138, Note_on_c, 0, 58, 0
2, 144171, Note_on_c, 0, 66, 0
2, 144188, Note_on_c, 0, 74, 82
2, 144195, Note_on_c, 0, 59, 75
2, 144287, Note_on_c, 0, 59, 0
2, 144296, Note_on_c, 0, 61, 71
2, 144392, Note_on_c, 0, 61, 0
2, 144403, Note_on_c, 0, 57, 73
2, 144505, Note_on_c, 0, 57, 0
2, 144519, Note_on_c, 0, 59, 65
2, 144545, Note_on_c, 0, 59, 0
2, 144645, Note_on_c, 0, 44, 80
2, 144701, Note_on_c, 0, 44, 0
2, 144767, Note_on_c, 0, 64, 63
2, 144831, Note_on_c, 0, 64, 0
2, 144835, Note_on_c, 0, 74, 0
2, 144873, Note_on_c, 0, 52, 70
2, 144886, Note_on_c, 0, 68, 74
2, 144912, Note_on_c, 0, 52, 0
2, 144997, Note_on_c, 0, 71, 72
2, 145002, Note_on_c, 0, 68, 0
2, 145106, Note_on_c, 0, 71, 0
2, 145117, Note_on_c, 0, 74, 69
2, 145203, Note_on_c, 0, 74, 0
2, 145216, Note_on_c, 0, 64, 62
2, 145216, Note_on_c, 0, 68, 70
2, 145279, Note_on_c, 0, 64, 0
2, 145288, Note_on_c, 0, 68, 0
2, 145321, Note_on_c, 0, 65, 62
2, 145325, Note_on_c, 0, 71, 76
2, 145382, Note_on_c, 0, 65, 0
2, 145429, Note_on_c, 0, 64, 65
2, 145433, Note_on_c, 0, 71, 0
2, 145438, Note_on_c, 0, 74, 75
2, 145548, Note_on_c, 0, 64, 0
2, 145548, Note_on_c, 0, 74, 0
2, 145552, Note_on_c, 0, 77, 76
2, 145561, Note_on_c, 0, 62, 59
2, 145637, Note_on_c, 0, 62, 0
2, 145660, Note_on_c, 0, 76, 71
2, 145662, Note_on_c, 0, 60, 58
2, 145666, Note_on_c, 0, 77, 0
2, 145758, Note_on_c, 0, 60, 0
2, 145771, Note_on_c, 0, 74, 76
2, 145774, Note_on_c, 0, 59, 68
2, 145778, Note_on_c, 0, 76, 0
2, 145856, Note_on_c, 0, 59, 0
2, 145871, Note_on_c, 0, 74, 0
2, 145888, Note_on_c, 0, 77, 75
2, 145892, Note_on_c, 0, 62, 60
2, 145987, Note_on_c, 0, 62, 0
2, 146003, Note_on_c, 0, 76, 72
2, 146008, Note_on_c, 0, 77, 0
2, 146010, Note_on_c, 0, 60, 63
2, 146105, Note_on_c, 0, 74, 74
2, 146134, Note_on_c, 0, 76, 0
2, 146186, Note_on_c, 0, 74, 0
2, 146219, Note_on_c, 0, 72, 78
2, 146291, Note_on_c, 0, 72, 0
2, 146330, Note_on_c, 0, 71, 75
2, 146416, Note_on_c, 0, 71, 0
2, 146451, Note_on_c, 0, 69, 68
2, 146546, Note_on_c, 0, 60, 0
2, 146546, Note_on_c, 0, 69, 0
2, 146559, Note_on_c, 0, 68, 75
2, 146566, Note_on_c, 0, 59, 59
2, 146668, Note_on_c, 0, 59, 0
2, 146668, Note_on_c, 0, 66, 73
2, 146672, Note_on_c, 0, 68, 0
2, 146690, Note_on_c, 0, 57, 57
2, 146754, Note_on_c, 0, 66, 0
2, 146766, Note_on_c, 0, 57, 0
2, 146789, Note_on_c, 0, 56, 63
2, 146789, Note_on_c, 0, 64, 72
2, 146845, Note_on_c, 0, 56, 0
2, 146881, Note_on_c, 0, 64, 0
2, 146901, Note_on_c, 0, 72, 77
2, 146905, Note_on_c, 0, 57, 68
2, 146999, Note_on_c, 0, 57, 0
2, 147020, Note_on_c, 0, 59, 67
2, 147086, Note_on_c, 0, 59, 0
2, 147128, Note_on_c, 0, 55, 65
2, 147204, Note_on_c, 0, 55, 0
2, 147233, Note_on_c, 0, 57, 54
2, 147266, Note_on_c, 0, 57, 0
2, 147360, Note_on_c, 0, 42, 68
2, 147413, Note_on_c, 0, 42, 0
2, 147476, Note_on_c, 0, 72, 0
2, 147502, Note_on_c, 0, 69, 41
2, 147547, Note_on_c, 0, 69, 0
2, 147595, Note_on_c, 0, 62, 58
2, 147599, Note_on_c, 0, 50, 57
2, 147634, Note_on_c, 0, 50, 0
2, 147704, Note_on_c, 0, 62, 0
2, 147726, Note_on_c, 0, 64, 63
2, 147837, Note_on_c, 0, 64, 0
2, 147854, Note_on_c, 0, 66, 65
2, 147923, Note_on_c, 0, 66, 0
2, 147955, Note_on_c, 0, 52, 54
2, 147968, Note_on_c, 0, 67, 70
2, 148028, Note_on_c, 0, 52, 0
2, 148070, Note_on_c, 0, 54, 60
2, 148077, Note_on_c, 0, 67, 0
2, 148082, Note_on_c, 0, 69, 69
2, 148170, Note_on_c, 0, 54, 0
2, 148177, Note_on_c, 0, 55, 66
2, 148190, Note_on_c, 0, 69, 0
2, 148195, Note_on_c, 0, 71, 78
2, 148258, Note_on_c, 0, 71, 0
2, 148267, Note_on_c, 0, 55, 0
2, 148293, Note_on_c, 0, 57, 73
2, 148304, Note_on_c, 0, 72, 81
2, 148376, Note_on_c, 0, 57, 0
2, 148411, Note_on_c, 0, 59, 73
2, 148411, Note_on_c, 0, 74, 82
2, 148413, Note_on_c, 0, 72, 0
2, 148520, Note_on_c, 0, 76, 84
2, 148531, Note_on_c, 0, 59, 0
2, 148531, Note_on_c, 0, 60, 75
2, 148538, Note_on_c, 0, 74, 0
2, 148599, Note_on_c, 0, 60, 0
2, 148636, Note_on_c, 0, 57, 78
2, 148636, Note_on_c, 0, 78, 82
2, 148672, Note_on_c, 0, 76, 0
2, 148726, Note_on_c, 0, 57, 0
2, 148744, Note_on_c, 0, 59, 80
2, 148750, Note_on_c, 0, 79, 87
2, 148787, Note_on_c, 0, 78, 0
2, 148869, Note_on_c, 0, 57, 79
2, 148869, Note_on_c, 0, 59, 0
2, 148873, Note_on_c, 0, 78, 87
2, 148886, Note_on_c, 0, 79, 0
2, 148933, Note_on_c, 0, 78, 0
2, 148949, Note_on_c, 0, 57, 0
2, 148987, Note_on_c, 0, 81, 88
2, 148991, Note_on_c, 0, 60, 74
2, 149074, Note_on_c, 0, 60, 0
2, 149102, Note_on_c, 0, 59, 76
2, 149102, Note_on_c, 0, 79, 90
2, 149133, Note_on_c, 0, 81, 0
2, 149173, Note_on_c, 0, 59, 0
2, 149211, Note_on_c, 0, 78, 86
2, 149220, Note_on_c, 0, 57, 76
2, 149239, Note_on_c, 0, 79, 0
2, 149323, Note_on_c, 0, 57, 0
2, 149332, Note_on_c, 0, 76, 85
2, 149337, Note_on_c, 0, 55, 71
2, 149369, Note_on_c, 0, 78, 0
2, 149421, Note_on_c, 0, 76, 0
2, 149445, Note_on_c, 0, 74, 82
2, 149450, Note_on_c, 0, 54, 71
2, 149452, Note_on_c, 0, 55, 0
2, 149516, Note_on_c, 0, 74, 0
2, 149547, Note_on_c, 0, 54, 0
2, 149551, Note_on_c, 0, 72, 88
2, 149556, Note_on_c, 0, 52, 69
2, 149620, Note_on_c, 0, 72, 0
2, 149656, Note_on_c, 0, 52, 0
2, 149671, Note_on_c, 0, 50, 74
2, 149676, Note_on_c, 0, 71, 85
2, 149731, Note_on_c, 0, 50, 0
2, 149765, Note_on_c, 0, 71, 0
2, 149796, Note_on_c, 0, 79, 83
2, 149800, Note_on_c, 0, 52, 63
2, 149849, Note_on_c, 0, 52, 0
2, 149889, Note_on_c, 0, 79, 0
2, 149902, Note_on_c, 0, 48, 71
2, 149909, Note_on_c, 0, 69, 78
2, 149976, Note_on_c, 0, 48, 0
2, 149995, Note_on_c, 0, 69, 0
2, 150018, Note_on_c, 0, 78, 83
2, 150021, Note_on_c, 0, 50, 65
2, 150061, Note_on_c, 0, 50, 0
2, 150074, Note_on_c, 0, 78, 0
2, 150134, Note_on_c, 0, 67, 91
2, 150144, Note_on_c, 0, 47, 59
2, 150187, Note_on_c, 0, 47, 0
2, 150236, Note_on_c, 0, 67, 0
2, 150252, Note_on_c, 0, 71, 80
2, 150363, Note_on_c, 0, 74, 89
2, 150368, Note_on_c, 0, 71, 0
2, 150375, Note_on_c, 0, 55, 65
2, 150413, Note_on_c, 0, 55, 0
2, 150455, Note_on_c, 0, 74, 0
2, 150472, Note_on_c, 0, 79, 87
2, 150581, Note_on_c, 0, 78, 92
2, 150595, Note_on_c, 0, 79, 0
2, 150694, Note_on_c, 0, 79, 90
2, 150707, Note_on_c, 0, 62, 74
2, 150720, Note_on_c, 0, 78, 0
2, 150756, Note_on_c, 0, 62, 0
2, 150808, Note_on_c, 0, 64, 76
2, 150812, Note_on_c, 0, 77, 91
2, 150817, Note_on_c, 0, 79, 0
2, 150849, Note_on_c, 0, 64, 0
2, 150905, Note_on_c, 0, 62, 71
2, 150920, Note_on_c, 0, 79, 95
2, 150929, Note_on_c, 0, 77, 0
2, 151004, Note_on_c, 0, 62, 0
2, 151024, Note_on_c, 0, 60, 76
2, 151031, Note_on_c, 0, 76, 88
2, 151048, Note_on_c, 0, 79, 0
2, 151137, Note_on_c, 0, 60, 0
2, 151137, Note_on_c, 0, 79, 87
2, 151141, Note_on_c, 0, 76, 0
2, 151144, Note_on_c, 0, 59, 72
2, 151234, Note_on_c, 0, 59, 0
2, 151252, Note_on_c, 0, 57, 80
2, 151260, Note_on_c, 0, 75, 83
2, 151269, Note_on_c, 0, 79, 0
2, 151336, Note_on_c, 0, 57, 0
2, 151364, Note_on_c, 0, 79, 83
2, 151369, Note_on_c, 0, 60, 71
2, 151373, Note_on_c, 0, 75, 0
2, 151473, Note_on_c, 0, 60, 0
2, 151486, Note_on_c, 0, 74, 85
2, 151493, Note_on_c, 0, 59, 77
2, 151494, Note_on_c, 0, 79, 0
2, 151597, Note_on_c, 0, 74, 0
2, 151597, Note_on_c, 0, 79, 79
2, 151710, Note_on_c, 0, 78, 85
2, 151714, Note_on_c, 0, 79, 0
2, 151824, Note_on_c, 0, 79, 87
2, 151830, Note_on_c, 0, 78, 0
2, 151942, Note_on_c, 0, 73, 84
2, 151946, Note_on_c, 0, 79, 0
2, 152034, Note_on_c, 0, 59, 0
2, 152055, Note_on_c, 0, 76, 85
2, 152063, Note_on_c, 0, 57, 68
2, 152063, Note_on_c, 0, 73, 0
2, 152169, Note_on_c, 0, 57, 0
2, 152169, Note_on_c, 0, 70, 80
2, 152173, Note_on_c, 0, 55, 68
2, 152180, Note_on_c, 0, 76, 0
2, 152263, Note_on_c, 0, 70, 0
2, 152268, Note_on_c, 0, 54, 73
2, 152268, Note_on_c, 0, 55, 0
2, 152279, Note_on_c, 0, 69, 75
2, 152329, Note_on_c, 0, 54, 0
2, 152382, Note_on_c, 0, 69, 0
2, 152389, Note_on_c, 0, 70, 87
2, 152393, Note_on_c, 0, 55, 71
2, 152480, Note_on_c, 0, 55, 0
2, 152501, Note_on_c, 0, 73, 81
2, 152503, Note_on_c, 0, 70, 0
2, 152508, Note_on_c, 0, 54, 65
2, 152587, Note_on_c, 0, 73, 0
2, 152599, Note_on_c, 0, 54, 0
2, 152612, Note_on_c, 0, 69, 73
2, 152625, Note_on_c, 0, 55, 67
2, 152697, Note_on_c, 0, 55, 0
2, 152697, Note_on_c, 0, 69, 0
2, 152722, Note_on_c, 0, 67, 73
2, 152727, Note_on_c, 0, 57, 71
2, 152773, Note_on_c, 0, 67, 0
2, 152801, Note_on_c, 0, 57, 0
2, 152836, Note_on_c, 0, 50, 80
2, 152841, Note_on_c, 0, 66, 81
2, 152881, Note_on_c, 0, 66, 0
2, 152953, Note_on_c, 0, 54, 77
2, 152960, Note_on_c, 0, 50, 0
2, 153059, Note_on_c, 0, 54, 0
2, 153068, Note_on_c, 0, 57, 88
2, 153078, Note_on_c, 0, 74, 78
2, 153113, Note_on_c, 0, 74, 0
2, 153144, Note_on_c, 0, 57, 0
2, 153180, Note_on_c, 0, 62, 86
2, 153287, Note_on_c, 0, 61, 85
2, 153296, Note_on_c, 0, 62, 0
2, 153386, Note_on_c, 0, 61, 0
2, 153402, Note_on_c, 0, 62, 85
2, 153419, Note_on_c, 0, 81, 76
2, 153481, Note_on_c, 0, 62, 0
2, 153520, Note_on_c, 0, 60, 85
2, 153525, Note_on_c, 0, 83, 85
2, 153533, Note_on_c, 0, 81, 0
2, 153627, Note_on_c, 0, 60, 0
2, 153634, Note_on_c, 0, 62, 82
2, 153634, Note_on_c, 0, 81, 85
2, 153658, Note_on_c, 0, 83, 0
2, 153721, Note_on_c, 0, 81, 0
2, 153744, Note_on_c, 0, 79, 86
2, 153749, Note_on_c, 0, 62, 0
2, 153755, Note_on_c, 0, 59, 82
2, 153828, Note_on_c, 0, 59, 0
2, 153858, Note_on_c, 0, 78, 86
2, 153878, Note_on_c, 0, 62, 76
2, 153878, Note_on_c, 0, 79, 0
2, 153930, Note_on_c, 0, 62, 0
2, 153969, Note_on_c, 0, 76, 88
2, 153973, Note_on_c, 0, 58, 76
2, 153980, Note_on_c, 0, 78, 0
2, 154046, Note_on_c, 0, 58, 0
2, 154071, Note_on_c, 0, 62, 74
2, 154082, Note_on_c, 0, 79, 87
2, 154093, Note_on_c, 0, 76, 0
2, 154159, Note_on_c, 0, 62, 0
2, 154196, Note_on_c, 0, 57, 80
2, 154209, Note_on_c, 0, 78, 89
2, 154252, Note_on_c, 0, 79, 0
2, 154276, Note_on_c, 0, 57, 0
2, 154308, Note_on_c, 0, 62, 77
2, 154401, Note_on_c, 0, 62, 0
2, 154427, Note_on_c, 0, 61, 75
2, 154519, Note_on_c, 0, 61, 0
2, 154539, Note_on_c, 0, 62, 78
2, 154615, Note_on_c, 0, 62, 0
2, 154649, Note_on_c, 0, 56, 79
2, 154711, Note_on_c, 0, 56, 0
2, 154761, Note_on_c, 0, 59, 78
2, 154777, Note_on_c, 0, 76, 83
2, 154813, Note_on_c, 0, 78, 0
2, 154831, Note_on_c, 0, 59, 0
2, 154856, Note_on_c, 0, 76, 0
2, 154878, Note_on_c, 0, 53, 77
2, 154878, Note_on_c, 0, 74, 85
2, 154968, Note_on_c, 0, 53, 0
2, 154986, Note_on_c, 0, 52, 75
2, 154986, Note_on_c, 0, 73, 90
2, 155010, Note_on_c, 0, 74, 0
2, 155065, Note_on_c, 0, 52, 0
2, 155096, Note_on_c, 0, 74, 86
2, 155105, Note_on_c, 0, 53, 75
2, 155114, Note_on_c, 0, 73, 0
2, 155191, Note_on_c, 0, 53, 0
2, 155211, Note_on_c, 0, 76, 85
2, 155215, Note_on_c, 0, 56, 68
2, 155231, Note_on_c, 0, 74, 0
2, 155262, Note_on_c, 0, 56, 0
2, 155317, Note_on_c, 0, 73, 88
2, 155323, Note_on_c, 0, 52, 71
2, 155329, Note_on_c, 0, 76, 0
2, 155423, Note_on_c, 0, 50, 66
2, 155425, Note_on_c, 0, 52, 0
2, 155425, Note_on_c, 0, 74, 88
2, 155444, Note_on_c, 0, 73, 0
2, 155459, Note_on_c, 0, 50, 0
2, 155481, Note_on_c, 0, 74, 0
2, 155534, Note_on_c, 0, 76, 98
2, 155543, Note_on_c, 0, 49, 83
2, 155570, Note_on_c, 0, 49, 0
2, 155650, Note_on_c, 0, 74, 84
2, 155687, Note_on_c, 0, 76, 0
2, 155766, Note_on_c, 0, 73, 85
2, 155778, Note_on_c, 0, 45, 65
2, 155782, Note_on_c, 0, 74, 0
2, 155811, Note_on_c, 0, 45, 0
2, 155883, Note_on_c, 0, 71, 80
2, 155909, Note_on_c, 0, 73, 0
2, 155943, Note_on_c, 0, 71, 0
2, 155996, Note_on_c, 0, 69, 79
2, 156005, Note_on_c, 0, 49, 77
2, 156043, Note_on_c, 0, 49, 0
2, 156111, Note_on_c, 0, 68, 85
2, 156121, Note_on_c, 0, 69, 0
2, 156191, Note_on_c, 0, 68, 0
2, 156225, Note_on_c, 0, 76, 92
2, 156229, Note_on_c, 0, 52, 90
2, 156258, Note_on_c, 0, 52, 0
2, 156339, Note_on_c, 0, 74, 87
2, 156385, Note_on_c, 0, 76, 0
2, 156457, Note_on_c, 0, 73, 85
2, 156466, Note_on_c, 0, 57, 75
2, 156484, Note_on_c, 0, 74, 0
2, 156498, Note_on_c, 0, 57, 0
2, 156572, Note_on_c, 0, 71, 82
2, 156608, Note_on_c, 0, 73, 0
2, 156662, Note_on_c, 0, 71, 0
2, 156679, Note_on_c, 0, 69, 78
2, 156690, Note_on_c, 0, 49, 60
2, 156725, Note_on_c, 0, 49, 0
2, 156783, Note_on_c, 0, 69, 0
2, 156787, Note_on_c, 0, 67, 81
2, 156880, Note_on_c, 0, 67, 0
2, 156899, Note_on_c, 0, 66, 89
2, 156913, Note_on_c, 0, 57, 75
2, 156945, Note_on_c, 0, 66, 0
2, 156982, Note_on_c, 0, 57, 0
2, 157022, Note_on_c, 0, 55, 70
2, 157110, Note_on_c, 0, 55, 0
2, 157126, Note_on_c, 0, 54, 72
2, 157138, Note_on_c, 0, 62, 83
2, 157170, Note_on_c, 0, 54, 0
2, 157179, Note_on_c, 0, 62, 0
2, 157230, Note_on_c, 0, 52, 72
2, 157275, Note_on_c, 0, 52, 0
2, 157336, Note_on_c, 0, 50, 68
2, 157356, Note_on_c, 0, 66, 82
2, 157406, Note_on_c, 0, 66, 0
2, 157425, Note_on_c, 0, 50, 0
2, 157456, Note_on_c, 0, 49, 72
2, 157513, Note_on_c, 0, 49, 0
2, 157568, Note_on_c, 0, 69, 88
2, 157584, Note_on_c, 0, 57, 72
2, 157618, Note_on_c, 0, 69, 0
2, 157662, Note_on_c, 0, 57, 0
2, 157691, Note_on_c, 0, 55, 65
2, 157788, Note_on_c, 0, 55, 0
2, 157804, Note_on_c, 0, 74, 73
2, 157806, Note_on_c, 0, 54, 68
2, 157856, Note_on_c, 0, 54, 0
2, 157860, Note_on_c, 0, 74, 0
2, 157917, Note_on_c, 0, 52, 63
2, 157965, Note_on_c, 0, 52, 0
2, 158016, Note_on_c, 0, 50, 63
2, 158027, Note_on_c, 0, 66, 68
2, 158083, Note_on_c, 0, 66, 0
2, 158108, Note_on_c, 0, 50, 0
2, 158130, Note_on_c, 0, 48, 53
2, 158212, Note_on_c, 0, 48, 0
2, 158241, Note_on_c, 0, 47, 58
2, 158254, Note_on_c, 0, 74, 62
2, 158283, Note_on_c, 0, 47, 0
2, 158362, Note_on_c, 0, 74, 0
2, 158364, Note_on_c, 0, 72, 66
2, 158477, Note_on_c, 0, 72, 0
2, 158482, Note_on_c, 0, 71, 65
2, 158484, Note_on_c, 0, 43, 60
2, 158521, Note_on_c, 0, 43, 0
2, 158576, Note_on_c, 0, 71, 0
2, 158589, Note_on_c, 0, 69, 60
2, 158653, Note_on_c, 0, 69, 0
2, 158715, Note_on_c, 0, 67, 61
2, 158717, Note_on_c, 0, 47, 52
2, 158751, Note_on_c, 0, 47, 0
2, 158814, Note_on_c, 0, 67, 0
2, 158829, Note_on_c, 0, 66, 62
2, 158895, Note_on_c, 0, 66, 0
2, 158940, Note_on_c, 0, 50, 60
2, 158953, Note_on_c, 0, 74, 67
2, 158981, Note_on_c, 0, 50, 0
2, 159060, Note_on_c, 0, 74, 0
2, 159064, Note_on_c, 0, 72, 64
2, 159174, Note_on_c, 0, 71, 61
2, 159179, Note_on_c, 0, 72, 0
2, 159183, Note_on_c, 0, 55, 52
2, 159215, Note_on_c, 0, 55, 0
2, 159276, Note_on_c, 0, 71, 0
2, 159282, Note_on_c, 0, 69, 60
2, 159369, Note_on_c, 0, 69, 0
2, 159400, Note_on_c, 0, 67, 61
2, 159425, Note_on_c, 0, 47, 38
2, 159465, Note_on_c, 0, 47, 0
2, 159470, Note_on_c, 0, 67, 0
2, 159509, Note_on_c, 0, 65, 60
2, 159563, Note_on_c, 0, 65, 0
2, 159627, Note_on_c, 0, 64, 70
2, 159631, Note_on_c, 0, 55, 55
2, 159662, Note_on_c, 0, 64, 0
2, 159692, Note_on_c, 0, 55, 0
2, 159748, Note_on_c, 0, 53, 57
2, 159821, Note_on_c, 0, 53, 0
2, 159859, Note_on_c, 0, 52, 60
2, 159875, Note_on_c, 0, 60, 67
2, 159905, Note_on_c, 0, 52, 0
2, 159914, Note_on_c, 0, 60, 0
2, 159964, Note_on_c, 0, 50, 62
2, 160018, Note_on_c, 0, 50, 0
2, 160082, Note_on_c, 0, 48, 58
2, 160094, Note_on_c, 0, 64, 71
2, 160133, Note_on_c, 0, 64, 0
2, 160163, Note_on_c, 0, 48, 0
2, 160197, Note_on_c, 0, 47, 60
2, 160245, Note_on_c, 0, 47, 0
2, 160310, Note_on_c, 0, 67, 71
2, 160321, Note_on_c, 0, 55, 63
2, 160356, Note_on_c, 0, 67, 0
2, 160384, Note_on_c, 0, 55, 0
2, 160424, Note_on_c, 0, 53, 64
2, 160517, Note_on_c, 0, 53, 0
2, 160532, Note_on_c, 0, 52, 66
2, 160541, Note_on_c, 0, 72, 71
2, 160579, Note_on_c, 0, 52, 0
2, 160598, Note_on_c, 0, 72, 0
2, 160638, Note_on_c, 0, 50, 63
2, 160709, Note_on_c, 0, 50, 0
2, 160751, Note_on_c, 0, 48, 59
2, 160760, Note_on_c, 0, 64, 72
2, 160795, Note_on_c, 0, 64, 0
2, 160856, Note_on_c, 0, 48, 0
2, 160869, Note_on_c, 0, 47, 69
2, 160935, Note_on_c, 0, 47, 0
2, 160986, Note_on_c, 0, 76, 84
2, 160994, Note_on_c, 0, 52, 71
2, 161055, Note_on_c, 0, 52, 0
2, 161097, Note_on_c, 0, 50, 70
2, 161097, Note_on_c, 0, 74, 82
2, 161130, Note_on_c, 0, 76, 0
2, 161196, Note_on_c, 0, 50, 0
2, 161205, Note_on_c, 0, 48, 71
2, 161210, Note_on_c, 0, 72, 85
2, 161240, Note_on_c, 0, 74, 0
2, 161269, Note_on_c, 0, 48, 0
2, 161319, Note_on_c, 0, 71, 83
2, 161325, Note_on_c, 0, 47, 70
2, 161341, Note_on_c, 0, 72, 0
2, 161380, Note_on_c, 0, 47, 0
2, 161400, Note_on_c, 0, 71, 0
2, 161422, Note_on_c, 0, 69, 80
2, 161425, Note_on_c, 0, 45, 70
2, 161514, Note_on_c, 0, 45, 0
2, 161538, Note_on_c, 0, 44, 79
2, 161538, Note_on_c, 0, 68, 86
2, 161544, Note_on_c, 0, 69, 0
2, 161594, Note_on_c, 0, 44, 0
2, 161603, Note_on_c, 0, 68, 0
2, 161651, Note_on_c, 0, 52, 87
2, 161656, Note_on_c, 0, 76, 97
2, 161741, Note_on_c, 0, 52, 0
2, 161756, Note_on_c, 0, 50, 77
2, 161769, Note_on_c, 0, 74, 90
2, 161809, Note_on_c, 0, 76, 0
2, 161872, Note_on_c, 0, 48, 79
2, 161877, Note_on_c, 0, 50, 0
2, 161877, Note_on_c, 0, 72, 90
2, 161918, Note_on_c, 0, 74, 0
2, 161945, Note_on_c, 0, 48, 0
2, 161983, Note_on_c, 0, 71, 88
2, 161987, Note_on_c, 0, 47, 83
2, 162014, Note_on_c, 0, 72, 0
2, 162068, Note_on_c, 0, 47, 0
2, 162091, Note_on_c, 0, 69, 84
2, 162091, Note_on_c, 0, 71, 0
2, 162095, Note_on_c, 0, 45, 78
2, 162193, Note_on_c, 0, 45, 0
2, 162204, Note_on_c, 0, 44, 81
2, 162204, Note_on_c, 0, 68, 90
2, 162209, Note_on_c, 0, 69, 0
2, 162240, Note_on_c, 0, 44, 0
2, 162270, Note_on_c, 0, 68, 0
2, 162323, Note_on_c, 0, 69, 92
2, 162331, Note_on_c, 0, 45, 85
2, 162448, Note_on_c, 0, 48, 82
2, 162448, Note_on_c, 0, 72, 91
2, 162452, Note_on_c, 0, 69, 0
2, 162479, Note_on_c, 0, 45, 0
2, 162552, Note_on_c, 0, 76, 94
2, 162556, Note_on_c, 0, 52, 82
2, 162565, Note_on_c, 0, 48, 0
2, 162582, Note_on_c, 0, 72, 0
2, 162636, Note_on_c, 0, 52, 0
2, 162662, Note_on_c, 0, 81, 87
2, 162667, Note_on_c, 0, 57, 88
2, 162675, Note_on_c, 0, 76, 0
2, 162778, Note_on_c, 0, 56, 93
2, 162788, Note_on_c, 0, 57, 0
2, 162871, Note_on_c, 0, 81, 0
2, 162891, Note_on_c, 0, 76, 88
2, 162898, Note_on_c, 0, 56, 0
2, 162898, Note_on_c, 0, 57, 87
2, 162960, Note_on_c, 0, 57, 0
2, 162993, Note_on_c, 0, 77, 90
2, 163010, Note_on_c, 0, 55, 85
2, 163015, Note_on_c, 0, 76, 0
2, 163103, Note_on_c, 0, 76, 89
2, 163107, Note_on_c, 0, 55, 0
2, 163127, Note_on_c, 0, 57, 82
2, 163152, Note_on_c, 0, 77, 0
2, 163221, Note_on_c, 0, 74, 87
2, 163232, Note_on_c, 0, 57, 0
2, 163239, Note_on_c, 0, 54, 83
2, 163262, Note_on_c, 0, 76, 0
2, 163332, Note_on_c, 0, 54, 0
2, 163333, Note_on_c, 0, 72, 88
2, 163342, Note_on_c, 0, 74, 0
2, 163355, Note_on_c, 0, 57, 82
2, 163419, Note_on_c, 0, 57, 0
2, 163453, Note_on_c, 0, 71, 88
2, 163458, Note_on_c, 0, 53, 82
2, 163466, Note_on_c, 0, 72, 0
2, 163536, Note_on_c, 0, 53, 0
2, 163559, Note_on_c, 0, 57, 80
2, 163563, Note_on_c, 0, 74, 86
2, 163572, Note_on_c, 0, 71, 0
2, 163650, Note_on_c, 0, 57, 0
2, 163685, Note_on_c, 0, 52, 80
2, 163685, Note_on_c, 0, 72, 92
2, 163724, Note_on_c, 0, 74, 0
2, 163770, Note_on_c, 0, 52, 0
2, 163793, Note_on_c, 0, 57, 80
2, 163905, Note_on_c, 0, 57, 0
2, 163914, Note_on_c, 0, 56, 81
2, 164006, Note_on_c, 0, 56, 0
2, 164033, Note_on_c, 0, 57, 80
2, 164119, Note_on_c, 0, 57, 0
2, 164139, Note_on_c, 0, 51, 82
2, 164222, Note_on_c, 0, 51, 0
2, 164242, Note_on_c, 0, 54, 81
2, 164249, Note_on_c, 0, 71, 82
2, 164269, Note_on_c, 0, 72, 0
2, 164312, Note_on_c, 0, 54, 0
2, 164361, Note_on_c, 0, 69, 79
2, 164368, Note_on_c, 0, 48, 70
2, 164395, Note_on_c, 0, 71, 0
2, 164458, Note_on_c, 0, 48, 0
2, 164464, Note_on_c, 0, 47, 73
2, 164466, Note_on_c, 0, 68, 87
2, 164468, Note_on_c, 0, 69, 0
2, 164549, Note_on_c, 0, 68, 0
2, 164567, Note_on_c, 0, 47, 0
2, 164585, Note_on_c, 0, 69, 80
2, 164593, Note_on_c, 0, 48, 78
2, 164703, Note_on_c, 0, 66, 82
2, 164706, Note_on_c, 0, 48, 0
2, 164706, Note_on_c, 0, 69, 0
2, 164716, Note_on_c, 0, 51, 73
2, 164785, Note_on_c, 0, 51, 0
2, 164807, Note_on_c, 0, 47, 71
2, 164807, Note_on_c, 0, 63, 79
2, 164815, Note_on_c, 0, 66, 0
2, 164895, Note_on_c, 0, 63, 0
2, 164904, Note_on_c, 0, 45, 70
2, 164915, Note_on_c, 0, 71, 80
2, 164928, Note_on_c, 0, 47, 0
2, 164979, Note_on_c, 0, 45, 0
2, 165007, Note_on_c, 0, 71, 0
2, 165027, Note_on_c, 0, 43, 76
2, 165032, Note_on_c, 0, 64, 87
2, 165086, Note_on_c, 0, 43, 0
2, 165126, Note_on_c, 0, 64, 0
2, 165142, Note_on_c, 0, 67, 83
2, 165254, Note_on_c, 0, 71, 85
2, 165261, Note_on_c, 0, 67, 0
2, 165268, Note_on_c, 0, 52, 64
2, 165306, Note_on_c, 0, 52, 0
2, 165343, Note_on_c, 0, 71, 0
2, 165360, Note_on_c, 0, 76, 84
2, 165479, Note_on_c, 0, 75, 82
2, 165479, Note_on_c, 0, 76, 0
2, 165587, Note_on_c, 0, 76, 93
2, 165595, Note_on_c, 0, 75, 0
2, 165607, Note_on_c, 0, 59, 68
2, 165667, Note_on_c, 0, 59, 0
2, 165704, Note_on_c, 0, 60, 69
2, 165704, Note_on_c, 0, 74, 87
2, 165717, Note_on_c, 0, 76, 0
2, 165755, Note_on_c, 0, 60, 0
2, 165806, Note_on_c, 0, 59, 75
2, 165822, Note_on_c, 0, 76, 91
2, 165828, Note_on_c, 0, 74, 0
2, 165920, Note_on_c, 0, 59, 0
2, 165933, Note_on_c, 0, 57, 72
2, 165937, Note_on_c, 0, 73, 87
2, 165944, Note_on_c, 0, 76, 0
2, 166015, Note_on_c, 0, 57, 0
2, 166033, Note_on_c, 0, 55, 68
2, 166046, Note_on_c, 0, 73, 0
2, 166046, Note_on_c, 0, 76, 85
2, 166120, Note_on_c, 0, 55, 0
2, 166145, Note_on_c, 0, 76, 0
2, 166156, Note_on_c, 0, 72, 90
2, 166161, Note_on_c, 0, 54, 68
2, 166230, Note_on_c, 0, 54, 0
2, 166249, Note_on_c, 0, 72, 0
2, 166266, Note_on_c, 0, 57, 72
2, 166266, Note_on_c, 0, 76, 88
2, 166367, Note_on_c, 0, 57, 0
2, 166387, Note_on_c, 0, 55, 76
2, 166392, Note_on_c, 0, 71, 86
2, 166392, Note_on_c, 0, 76, 0
2, 166491, Note_on_c, 0, 71, 0
2, 166506, Note_on_c, 0, 76, 83
2, 166619, Note_on_c, 0, 75, 84
2, 166628, Note_on_c, 0, 76, 0
2, 166736, Note_on_c, 0, 76, 89
2, 166740, Note_on_c, 0, 75, 0
2, 166854, Note_on_c, 0, 76, 0
2, 166859, Note_on_c, 0, 70, 85
2, 166963, Note_on_c, 0, 73, 77
2, 166972, Note_on_c, 0, 70, 0
2, 166976, Note_on_c, 0, 55, 0
2, 166991, Note_on_c, 0, 54, 64
2, 167035, Note_on_c, 0, 73, 0
2, 167068, Note_on_c, 0, 67, 79
2, 167087, Note_on_c, 0, 54, 0
2, 167091, Note_on_c, 0, 52, 70
2, 167166, Note_on_c, 0, 67, 0
2, 167180, Note_on_c, 0, 66, 82
2, 167187, Note_on_c, 0, 51, 76
2, 167191, Note_on_c, 0, 52, 0
2, 167242, Note_on_c, 0, 51, 0
2, 167251, Note_on_c, 0, 66, 0
2, 167291, Note_on_c, 0, 67, 79
2, 167300, Note_on_c, 0, 52, 72
2, 167358, Note_on_c, 0, 52, 0
2, 167396, Note_on_c, 0, 54, 73
2, 167398, Note_on_c, 0, 70, 83
2, 167403, Note_on_c, 0, 67, 0
2, 167476, Note_on_c, 0, 54, 0
2, 167482, Note_on_c, 0, 70, 0
2, 167501, Note_on_c, 0, 66, 76
2, 167510, Note_on_c, 0, 51, 71
2, 167566, Note_on_c, 0, 51, 0
2, 167579, Note_on_c, 0, 66, 0
2, 167609, Note_on_c, 0, 52, 71
2, 167613, Note_on_c, 0, 64, 77
2, 167677, Note_on_c, 0, 64, 0
2, 167720, Note_on_c, 0, 52, 0
2, 167737, Note_on_c, 0, 54, 67
2, 167737, Note_on_c, 0, 63, 74
2, 167776, Note_on_c, 0, 63, 0
2, 167814, Note_on_c, 0, 54, 0
2, 167828, Note_on_c, 0, 47, 66
2, 167939, Note_on_c, 0, 47, 0
2, 167946, Note_on_c, 0, 51, 70
2, 167964, Note_on_c, 0, 71, 76
2, 167995, Note_on_c, 0, 71, 0
2, 168064, Note_on_c, 0, 51, 0
2, 168068, Note_on_c, 0, 54, 71
2, 168150, Note_on_c, 0, 54, 0
2, 168183, Note_on_c, 0, 57, 77
2, 168271, Note_on_c, 0, 57, 0
2, 168285, Note_on_c, 0, 51, 70
2, 168293, Note_on_c, 0, 83, 74
2, 168392, Note_on_c, 0, 84, 83
2, 168405, Note_on_c, 0, 54, 67
2, 168405, Note_on_c, 0, 83, 0
2, 168414, Note_on_c, 0, 51, 0
2, 168506, Note_on_c, 0, 83, 89
2, 168511, Note_on_c, 0, 57, 79
2, 168540, Note_on_c, 0, 84, 0
2, 168555, Note_on_c, 0, 54, 0
2, 168594, Note_on_c, 0, 57, 0
2, 168618, Note_on_c, 0, 60, 78
2, 168622, Note_on_c, 0, 81, 85
2, 168626, Note_on_c, 0, 83, 0
2, 168693, Note_on_c, 0, 60, 0
2, 168729, Note_on_c, 0, 59, 79
2, 168734, Note_on_c, 0, 79, 92
2, 168758, Note_on_c, 0, 81, 0
2, 168819, Note_on_c, 0, 59, 0
2, 168835, Note_on_c, 0, 57, 76
2, 168840, Note_on_c, 0, 78, 92
2, 168868, Note_on_c, 0, 79, 0
2, 168949, Note_on_c, 0, 81, 89
2, 168953, Note_on_c, 0, 60, 73
2, 168970, Note_on_c, 0, 57, 0
2, 168970, Note_on_c, 0, 78, 0
2, 169031, Note_on_c, 0, 60, 0
2, 169072, Note_on_c, 0, 79, 92
2, 169076, Note_on_c, 0, 59, 77
2, 169118, Note_on_c, 0, 81, 0
2, 169155, Note_on_c, 0, 59, 0
2, 169187, Note_on_c, 0, 57, 78
2, 169292, Note_on_c, 0, 55, 71
2, 169299, Note_on_c, 0, 57, 0
2, 169395, Note_on_c, 0, 54, 73
2, 169407, Note_on_c, 0, 55, 0
2, 169484, Note_on_c, 0, 54, 0
2, 169514, Note_on_c, 0, 52, 78
2, 169612, Note_on_c, 0, 52, 0
2, 169625, Note_on_c, 0, 51, 74
2, 169643, Note_on_c, 0, 78, 78
2, 169687, Note_on_c, 0, 79, 0
2, 169736, Note_on_c, 0, 51, 0
2, 169743, Note_on_c, 0, 76, 89
2, 169748, Note_on_c, 0, 49, 67
2, 169785, Note_on_c, 0, 78, 0
2, 169843, Note_on_c, 0, 49, 0
2, 169860, Note_on_c, 0, 47, 68
2, 169860, Note_on_c, 0, 75, 83
2, 169870, Note_on_c, 0, 76, 0
2, 169950, Note_on_c, 0, 47, 0
2, 169970, Note_on_c, 0, 76, 92
2, 169978, Note_on_c, 0, 55, 70
2, 169985, Note_on_c, 0, 75, 0
2, 170087, Note_on_c, 0, 78, 86
2, 170120, Note_on_c, 0, 76, 0
2, 170197, Note_on_c, 0, 74, 82
2, 170217, Note_on_c, 0, 78, 0
2, 170307, Note_on_c, 0, 74, 0
2, 170307, Note_on_c, 0, 76, 84
2, 170383, Note_on_c, 0, 76, 0
2, 170429, Note_on_c, 0, 73, 81
2, 170490, Note_on_c, 0, 73, 0
2, 170517, Note_on_c, 0, 55, 0
2, 170532, Note_on_c, 0, 45, 52
2, 170636, Note_on_c, 0, 45, 0
2, 170641, Note_on_c, 0, 49, 60
2, 170660, Note_on_c, 0, 81, 69
2, 170712, Note_on_c, 0, 81, 0
2, 170755, Note_on_c, 0, 49, 0
2, 170777, Note_on_c, 0, 52, 64
2, 170827, Note_on_c, 0, 52, 0
2, 170883, Note_on_c, 0, 55, 66
2, 170968, Note_on_c, 0, 55, 0
2, 170989, Note_on_c, 0, 81, 66
2, 170993, Note_on_c, 0, 49, 57
2, 171095, Note_on_c, 0, 49, 0
2, 171099, Note_on_c, 0, 81, 0
2, 171103, Note_on_c, 0, 52, 57
2, 171103, Note_on_c, 0, 82, 73
2, 171185, Note_on_c, 0, 52, 0
2, 171217, Note_on_c, 0, 55, 63
2, 171222, Note_on_c, 0, 81, 72
2, 171234, Note_on_c, 0, 82, 0
2, 171276, Note_on_c, 0, 55, 0
2, 171312, Note_on_c, 0, 81, 0
2, 171325, Note_on_c, 0, 79, 77
2, 171337, Note_on_c, 0, 58, 55
2, 171375, Note_on_c, 0, 58, 0
2, 171388, Note_on_c, 0, 79, 0
2, 171431, Note_on_c, 0, 77, 75
2, 171446, Note_on_c, 0, 57, 58
2, 171514, Note_on_c, 0, 57, 0
2, 171534, Note_on_c, 0, 77, 0
2, 171549, Note_on_c, 0, 76, 68
2, 171556, Note_on_c, 0, 55, 59
2, 171621, Note_on_c, 0, 55, 0
2, 171634, Note_on_c, 0, 76, 0
2, 171658, Note_on_c, 0, 79, 75
2, 171663, Note_on_c, 0, 58, 64
2, 171719, Note_on_c, 0, 58, 0
2, 171773, Note_on_c, 0, 57, 67
2, 171778, Note_on_c, 0, 77, 81
2, 171798, Note_on_c, 0, 79, 0
2, 171831, Note_on_c, 0, 57, 0
2, 171889, Note_on_c, 0, 55, 56
2, 171975, Note_on_c, 0, 55, 0
2, 172006, Note_on_c, 0, 53, 63
2, 172047, Note_on_c, 0, 53, 0
2, 172105, Note_on_c, 0, 52, 69
2, 172161, Note_on_c, 0, 52, 0
2, 172213, Note_on_c, 0, 50, 65
2, 172294, Note_on_c, 0, 50, 0
2, 172328, Note_on_c, 0, 49, 59
2, 172351, Note_on_c, 0, 76, 67
2, 172370, Note_on_c, 0, 77, 0
2, 172399, Note_on_c, 0, 49, 0
2, 172444, Note_on_c, 0, 47, 56
2, 172459, Note_on_c, 0, 74, 71
2, 172490, Note_on_c, 0, 76, 0
2, 172504, Note_on_c, 0, 47, 0
2, 172549, Note_on_c, 0, 45, 56
2, 172554, Note_on_c, 0, 74, 0
2, 172560, Note_on_c, 0, 73, 73
2, 172650, Note_on_c, 0, 45, 0
2, 172674, Note_on_c, 0, 73, 0
2, 172674, Note_on_c, 0, 74, 73
2, 172685, Note_on_c, 0, 53, 58
2, 172783, Note_on_c, 0, 74, 0
2, 172790, Note_on_c, 0, 76, 72
2, 172895, Note_on_c, 0, 76, 0
2, 172901, Note_on_c, 0, 72, 71
2, 173000, Note_on_c, 0, 72, 0
2, 173011, Note_on_c, 0, 74, 67
2, 173072, Note_on_c, 0, 74, 0
2, 173132, Note_on_c, 0, 71, 62
2, 173185, Note_on_c, 0, 71, 0
2, 173190, Note_on_c, 0, 53, 0
2, 173227, Note_on_c, 0, 50, 44
2, 173300, Note_on_c, 0, 50, 0
2, 173343, Note_on_c, 0, 43, 49
2, 173351, Note_on_c, 0, 79, 64
2, 173399, Note_on_c, 0, 79, 0
2, 173452, Note_on_c, 0, 43, 0
2, 173456, Note_on_c, 0, 45, 56
2, 173536, Note_on_c, 0, 45, 0
2, 173555, Note_on_c, 0, 47, 60
2, 173674, Note_on_c, 0, 48, 63
2, 173679, Note_on_c, 0, 47, 0
2, 173698, Note_on_c, 0, 69, 55
2, 173732, Note_on_c, 0, 48, 0
2, 173782, Note_on_c, 0, 50, 61
2, 173791, Note_on_c, 0, 69, 0
2, 173799, Note_on_c, 0, 71, 69
2, 173854, Note_on_c, 0, 71, 0
2, 173859, Note_on_c, 0, 50, 0
2, 173895, Note_on_c, 0, 52, 69
2, 173911, Note_on_c, 0, 72, 77
2, 174012, Note_on_c, 0, 72, 0
2, 174016, Note_on_c, 0, 53, 69
2, 174027, Note_on_c, 0, 52, 0
2, 174027, Note_on_c, 0, 74, 74
2, 174128, Note_on_c, 0, 55, 70
2, 174132, Note_on_c, 0, 53, 0
2, 174132, Note_on_c, 0, 76, 82
2, 174143, Note_on_c, 0, 74, 0
2, 174210, Note_on_c, 0, 55, 0
2, 174245, Note_on_c, 0, 77, 81
2, 174249, Note_on_c, 0, 57, 68
2, 174256, Note_on_c, 0, 76, 0
2, 174321, Note_on_c, 0, 57, 0
2, 174354, Note_on_c, 0, 59, 74
2, 174354, Note_on_c, 0, 74, 77
2, 174358, Note_on_c, 0, 77, 0
2, 174452, Note_on_c, 0, 59, 0
2, 174463, Note_on_c, 0, 74, 0
2, 174467, Note_on_c, 0, 76, 83
2, 174488, Note_on_c, 0, 60, 69
2, 174553, Note_on_c, 0, 60, 0
2, 174578, Note_on_c, 0, 74, 82
2, 174587, Note_on_c, 0, 76, 0
2, 174591, Note_on_c, 0, 59, 79
2, 174643, Note_on_c, 0, 59, 0
2, 174676, Note_on_c, 0, 74, 0
2, 174692, Note_on_c, 0, 79, 88
2, 174696, Note_on_c, 0, 64, 78
2, 174764, Note_on_c, 0, 64, 0
2, 174796, Note_on_c, 0, 62, 74
2, 174801, Note_on_c, 0, 77, 87
2, 174834, Note_on_c, 0, 79, 0
2, 174899, Note_on_c, 0, 62, 0
2, 174903, Note_on_c, 0, 76, 88
2, 174914, Note_on_c, 0, 61, 75
2, 174942, Note_on_c, 0, 77, 0
2, 174986, Note_on_c, 0, 76, 0
2, 175002, Note_on_c, 0, 61, 0
2, 175011, Note_on_c, 0, 58, 74
2, 175019, Note_on_c, 0, 74, 82
2, 175085, Note_on_c, 0, 58, 0
2, 175127, Note_on_c, 0, 73, 86
2, 175131, Note_on_c, 0, 57, 75
2, 175137, Note_on_c, 0, 74, 0
2, 175195, Note_on_c, 0, 57, 0
2, 175232, Note_on_c, 0, 55, 74
2, 175237, Note_on_c, 0, 70, 84
2, 175271, Note_on_c, 0, 73, 0
2, 175311, Note_on_c, 0, 55, 0
2, 175345, Note_on_c, 0, 53, 79
2, 175345, Note_on_c, 0, 69, 85
2, 175357, Note_on_c, 0, 70, 0
2, 175404, Note_on_c, 0, 53, 0
2, 175460, Note_on_c, 0, 70, 89
2, 175464, Note_on_c, 0, 62, 74
2, 175471, Note_on_c, 0, 69, 0
2, 175531, Note_on_c, 0, 62, 0
2, 175572, Note_on_c, 0, 67, 87
2, 175577, Note_on_c, 0, 70, 0
2, 175588, Note_on_c, 0, 52, 78
2, 175647, Note_on_c, 0, 67, 0
2, 175682, Note_on_c, 0, 69, 82
2, 175688, Note_on_c, 0, 52, 0
2, 175701, Note_on_c, 0, 61, 73
2, 175745, Note_on_c, 0, 61, 0
2, 175749, Note_on_c, 0, 69, 0
2, 175808, Note_on_c, 0, 50, 83
2, 175808, Note_on_c, 0, 65, 82
2, 175892, Note_on_c, 0, 65, 0
2, 175912, Note_on_c, 0, 53, 83
2, 175930, Note_on_c, 0, 50, 0
2, 176020, Note_on_c, 0, 53, 0
2, 176024, Note_on_c, 0, 57, 86
2, 176037, Note_on_c, 0, 74, 80
2, 176093, Note_on_c, 0, 57, 0
2, 176093, Note_on_c, 0, 74, 0
2, 176128, Note_on_c, 0, 62, 81
2, 176237, Note_on_c, 0, 62, 0
2, 176246, Note_on_c, 0, 61, 85
2, 176352, Note_on_c, 0, 61, 0
2, 176355, Note_on_c, 0, 62, 88
2, 176373, Note_on_c, 0, 81, 77
2, 176433, Note_on_c, 0, 62, 0
2, 176470, Note_on_c, 0, 60, 85
2, 176476, Note_on_c, 0, 82, 84
2, 176485, Note_on_c, 0, 81, 0
2, 176580, Note_on_c, 0, 60, 0
2, 176580, Note_on_c, 0, 62, 81
2, 176584, Note_on_c, 0, 81, 84
2, 176630, Note_on_c, 0, 82, 0
2, 176684, Note_on_c, 0, 62, 0
2, 176692, Note_on_c, 0, 79, 92
2, 176697, Note_on_c, 0, 59, 86
2, 176705, Note_on_c, 0, 81, 0
2, 176772, Note_on_c, 0, 79, 0
2, 176776, Note_on_c, 0, 59, 0
2, 176807, Note_on_c, 0, 77, 93
2, 176810, Note_on_c, 0, 62, 84
2, 176888, Note_on_c, 0, 62, 0
2, 176916, Note_on_c, 0, 76, 91
2, 176920, Note_on_c, 0, 58, 77
2, 176936, Note_on_c, 0, 77, 0
2, 177002, Note_on_c, 0, 58, 0
2, 177022, Note_on_c, 0, 79, 86
2, 177026, Note_on_c, 0, 62, 79
2, 177039, Note_on_c, 0, 76, 0
2, 177113, Note_on_c, 0, 62, 0
2, 177143, Note_on_c, 0, 57, 82
2, 177143, Note_on_c, 0, 77, 92
2, 177189, Note_on_c, 0, 79, 0
2, 177225, Note_on_c, 0, 57, 0
2, 177257, Note_on_c, 0, 62, 79
2, 177350, Note_on_c, 0, 62, 0
2, 177366, Note_on_c, 0, 61, 73
2, 177461, Note_on_c, 0, 61, 0
2, 177480, Note_on_c, 0, 62, 80
2, 177561, Note_on_c, 0, 62, 0
2, 177599, Note_on_c, 0, 56, 77
2, 177663, Note_on_c, 0, 56, 0
2, 177693, Note_on_c, 0, 76, 79
2, 177709, Note_on_c, 0, 59, 79
2, 177721, Note_on_c, 0, 77, 0
2, 177779, Note_on_c, 0, 59, 0
2, 177805, Note_on_c, 0, 74, 81
2, 177823, Note_on_c, 0, 53, 74
2, 177838, Note_on_c, 0, 76, 0
2, 177913, Note_on_c, 0, 72, 84
2, 177917, Note_on_c, 0, 74, 0
2, 177921, Note_on_c, 0, 53, 0
2, 177926, Note_on_c, 0, 52, 76
2, 178023, Note_on_c, 0, 72, 0
2, 178028, Note_on_c, 0, 74, 86
2, 178032, Note_on_c, 0, 52, 0
2, 178046, Note_on_c, 0, 53, 72
2, 178133, Note_on_c, 0, 72, 87
2, 178143, Note_on_c, 0, 53, 0
2, 178143, Note_on_c, 0, 74, 0
2, 178147, Note_on_c, 0, 56, 73
2, 178214, Note_on_c, 0, 56, 0
2, 178247, Note_on_c, 0, 74, 84
2, 178258, Note_on_c, 0, 52, 70
2, 178262, Note_on_c, 0, 72, 0
2, 178351, Note_on_c, 0, 50, 71
2, 178356, Note_on_c, 0, 76, 81
2, 178368, Note_on_c, 0, 52, 0
2, 178379, Note_on_c, 0, 74, 0
2, 178426, Note_on_c, 0, 76, 0
2, 178439, Note_on_c, 0, 50, 0
2, 178463, Note_on_c, 0, 69, 86
2, 178466, Note_on_c, 0, 48, 71
2, 178518, Note_on_c, 0, 48, 0
2, 178569, Note_on_c, 0, 69, 0
2, 178584, Note_on_c, 0, 72, 92
2, 178689, Note_on_c, 0, 76, 89
2, 178699, Note_on_c, 0, 72, 0
2, 178705, Note_on_c, 0, 57, 71
2, 178738, Note_on_c, 0, 57, 0
2, 178784, Note_on_c, 0, 76, 0
2, 178799, Note_on_c, 0, 81, 75
2, 178913, Note_on_c, 0, 80, 87
2, 178918, Note_on_c, 0, 81, 0
2, 179028, Note_on_c, 0, 64, 75
2, 179028, Note_on_c, 0, 81, 85
2, 179039, Note_on_c, 0, 80, 0
2, 179102, Note_on_c, 0, 64, 0
2, 179136, Note_on_c, 0, 65, 71
2, 179140, Note_on_c, 0, 79, 94
2, 179149, Note_on_c, 0, 81, 0
2, 179183, Note_on_c, 0, 65, 0
2, 179237, Note_on_c, 0, 64, 76
2, 179253, Note_on_c, 0, 81, 87
2, 179264, Note_on_c, 0, 79, 0
2, 179347, Note_on_c, 0, 64, 0
2, 179361, Note_on_c, 0, 62, 74
2, 179361, Note_on_c, 0, 78, 92
2, 179368, Note_on_c, 0, 81, 0
2, 179457, Note_on_c, 0, 62, 0
2, 179461, Note_on_c, 0, 60, 68
2, 179471, Note_on_c, 0, 81, 84
2, 179477, Note_on_c, 0, 78, 0
2, 179560, Note_on_c, 0, 60, 0
2, 179571, Note_on_c, 0, 59, 70
2, 179580, Note_on_c, 0, 77, 90
2, 179589, Note_on_c, 0, 81, 0
2, 179683, Note_on_c, 0, 59, 0
2, 179687, Note_on_c, 0, 81, 83
2, 179691, Note_on_c, 0, 62, 74
2, 179691, Note_on_c, 0, 77, 0
2, 179789, Note_on_c, 0, 62, 0
2, 179803, Note_on_c, 0, 76, 92
2, 179814, Note_on_c, 0, 60, 79
2, 179814, Note_on_c, 0, 81, 0
2, 179921, Note_on_c, 0, 76, 0
2, 179921, Note_on_c, 0, 81, 82
2, 180033, Note_on_c, 0, 80, 86
2, 180042, Note_on_c, 0, 81, 0
2, 180144, Note_on_c, 0, 81, 84
2, 180155, Note_on_c, 0, 80, 0
2, 180257, Note_on_c, 0, 81, 0
2, 180261, Note_on_c, 0, 75, 86
2, 180362, Note_on_c, 0, 78, 83
2, 180365, Note_on_c, 0, 60, 0
2, 180374, Note_on_c, 0, 75, 0
2, 180377, Note_on_c, 0, 59, 69
2, 180467, Note_on_c, 0, 72, 89
2, 180475, Note_on_c, 0, 59, 0
2, 180483, Note_on_c, 0, 57, 73
2, 180497, Note_on_c, 0, 78, 0
2, 180578, Note_on_c, 0, 56, 75
2, 180578, Note_on_c, 0, 72, 0
2, 180583, Note_on_c, 0, 71, 82
2, 180587, Note_on_c, 0, 57, 0
2, 180646, Note_on_c, 0, 56, 0
2, 180689, Note_on_c, 0, 72, 90
2, 180693, Note_on_c, 0, 57, 76
2, 180693, Note_on_c, 0, 71, 0
2, 180749, Note_on_c, 0, 57, 0
2, 180798, Note_on_c, 0, 54, 73
2, 180798, Note_on_c, 0, 75, 84
2, 180807, Note_on_c, 0, 72, 0
2, 180865, Note_on_c, 0, 54, 0
2, 180889, Note_on_c, 0, 75, 0
2, 180897, Note_on_c, 0, 51, 68
2, 180902, Note_on_c, 0, 71, 80
2, 180975, Note_on_c, 0, 71, 0
2, 180992, Note_on_c, 0, 51, 0
2, 181005, Note_on_c, 0, 54, 71
2, 181014, Note_on_c, 0, 69, 78
2, 181082, Note_on_c, 0, 69, 0
2, 181086, Note_on_c, 0, 54, 0
2, 181129, Note_on_c, 0, 59, 78
2, 181129, Note_on_c, 0, 68, 93
2, 181166, Note_on_c, 0, 68, 0
2, 181205, Note_on_c, 0, 59, 0
2, 181232, Note_on_c, 0, 57, 74
2, 181353, Note_on_c, 0, 57, 0
2, 181357, Note_on_c, 0, 56, 66
2, 181357, Note_on_c, 0, 64, 87
2, 181402, Note_on_c, 0, 64, 0
2, 181456, Note_on_c, 0, 56, 0
2, 181460, Note_on_c, 0, 54, 67
2, 181516, Note_on_c, 0, 54, 0
2, 181569, Note_on_c, 0, 68, 87
2, 181576, Note_on_c, 0, 52, 68
2, 181617, Note_on_c, 0, 68, 0
2, 181637, Note_on_c, 0, 52, 0
2, 181677, Note_on_c, 0, 51, 71
2, 181739, Note_on_c, 0, 51, 0
2, 181786, Note_on_c, 0, 71, 94
2, 181800, Note_on_c, 0, 59, 70
2, 181837, Note_on_c, 0, 71, 0
2, 181851, Note_on_c, 0, 59, 0
2, 181908, Note_on_c, 0, 57, 75
2, 182019, Note_on_c, 0, 57, 0
2, 182019, Note_on_c, 0, 76, 90
2, 182023, Note_on_c, 0, 56, 76
2, 182079, Note_on_c, 0, 76, 0
2, 182129, Note_on_c, 0, 54, 70
2, 182129, Note_on_c, 0, 56, 0
2, 182198, Note_on_c, 0, 54, 0
2, 182233, Note_on_c, 0, 68, 88
2, 182235, Note_on_c, 0, 52, 76
2, 182285, Note_on_c, 0, 68, 0
2, 182295, Note_on_c, 0, 52, 0
2, 182357, Note_on_c, 0, 50, 67
2, 182429, Note_on_c, 0, 50, 0
2, 182462, Note_on_c, 0, 76, 91
2, 182464, Note_on_c, 0, 49, 85
2, 182495, Note_on_c, 0, 49, 0
2, 182575, Note_on_c, 0, 74, 77
2, 182607, Note_on_c, 0, 76, 0
2, 182676, Note_on_c, 0, 73, 81
2, 182692, Note_on_c, 0, 45, 67
2, 182703, Note_on_c, 0, 74, 0
2, 182727, Note_on_c, 0, 45, 0
2, 182798, Note_on_c, 0, 71, 78
2, 182833, Note_on_c, 0, 73, 0
2, 182865, Note_on_c, 0, 71, 0
2, 182910, Note_on_c, 0, 69, 78
2, 182917, Note_on_c, 0, 49, 83
2, 182954, Note_on_c, 0, 49, 0
2, 183039, Note_on_c, 0, 68, 83
2, 183060, Note_on_c, 0, 69, 0
2, 183135, Note_on_c, 0, 68, 0
2, 183149, Note_on_c, 0, 52, 91
2, 183156, Note_on_c, 0, 76, 90
2, 183178, Note_on_c, 0, 52, 0
2, 183271, Note_on_c, 0, 74, 83
2, 183308, Note_on_c, 0, 76, 0
2, 183380, Note_on_c, 0, 73, 79
2, 183384, Note_on_c, 0, 57, 71
2, 183395, Note_on_c, 0, 74, 0
2, 183414, Note_on_c, 0, 57, 0
2, 183488, Note_on_c, 0, 71, 75
2, 183503, Note_on_c, 0, 73, 0
2, 183557, Note_on_c, 0, 71, 0
2, 183607, Note_on_c, 0, 49, 49
2, 183607, Note_on_c, 0, 69, 68
2, 183640, Note_on_c, 0, 49, 0
2, 183658, Note_on_c, 0, 69, 0
2, 183714, Note_on_c, 0, 67, 64
2, 183768, Note_on_c, 0, 67, 0
2, 183829, Note_on_c, 0, 66, 66
2, 183834, Note_on_c, 0, 57, 54
2, 183867, Note_on_c, 0, 66, 0
2, 183901, Note_on_c, 0, 57, 0
2, 183946, Note_on_c, 0, 55, 46
2, 184030, Note_on_c, 0, 55, 0
2, 184063, Note_on_c, 0, 54, 62
2, 184067, Note_on_c, 0, 62, 62
2, 184105, Note_on_c, 0, 62, 0
2, 184114, Note_on_c, 0, 54, 0
2, 184172, Note_on_c, 0, 52, 57
2, 184236, Note_on_c, 0, 52, 0
2, 184283, Note_on_c, 0, 50, 55
2, 184291, Note_on_c, 0, 66, 59
2, 184334, Note_on_c, 0, 66, 0
2, 184354, Note_on_c, 0, 50, 0
2, 184399, Note_on_c, 0, 49, 58
2, 184439, Note_on_c, 0, 49, 0
2, 184514, Note_on_c, 0, 69, 67
2, 184528, Note_on_c, 0, 57, 58
2, 184550, Note_on_c, 0, 69, 0
2, 184591, Note_on_c, 0, 57, 0
2, 184637, Note_on_c, 0, 55, 53
2, 184719, Note_on_c, 0, 55, 0
2, 184743, Note_on_c, 0, 74, 68
2, 184750, Note_on_c, 0, 54, 61
2, 184783, Note_on_c, 0, 74, 0
2, 184790, Note_on_c, 0, 54, 0
2, 184847, Note_on_c, 0, 52, 61
2, 184899, Note_on_c, 0, 52, 0
2, 184955, Note_on_c, 0, 50, 57
2, 184978, Note_on_c, 0, 66, 57
2, 185024, Note_on_c, 0, 66, 0
2, 185041, Note_on_c, 0, 50, 0
2, 185056, Note_on_c, 0, 48, 58
2, 185154, Note_on_c, 0, 48, 0
2, 185177, Note_on_c, 0, 47, 71
2, 185182, Note_on_c, 0, 74, 70
2, 185213, Note_on_c, 0, 47, 0
2, 185287, Note_on_c, 0, 74, 0
2, 185294, Note_on_c, 0, 72, 67
2, 185394, Note_on_c, 0, 72, 0
2, 185411, Note_on_c, 0, 71, 64
2, 185415, Note_on_c, 0, 43, 58
2, 185454, Note_on_c, 0, 43, 0
2, 185511, Note_on_c, 0, 71, 0
2, 185519, Note_on_c, 0, 69, 63
2, 185576, Note_on_c, 0, 69, 0
2, 185638, Note_on_c, 0, 47, 59
2, 185638, Note_on_c, 0, 67, 67
2, 185669, Note_on_c, 0, 47, 0
2, 185751, Note_on_c, 0, 67, 0
2, 185768, Note_on_c, 0, 66, 61
2, 185828, Note_on_c, 0, 66, 0
2, 185857, Note_on_c, 0, 50, 73
2, 185878, Note_on_c, 0, 74, 69
2, 185888, Note_on_c, 0, 50, 0
2, 185984, Note_on_c, 0, 72, 72
2, 185984, Note_on_c, 0, 74, 0
2, 186092, Note_on_c, 0, 55, 65
2, 186097, Note_on_c, 0, 71, 72
2, 186108, Note_on_c, 0, 72, 0
2, 186119, Note_on_c, 0, 55, 0
2, 186200, Note_on_c, 0, 69, 69
2, 186209, Note_on_c, 0, 71, 0
2, 186276, Note_on_c, 0, 69, 0
2, 186318, Note_on_c, 0, 67, 69
2, 186323, Note_on_c, 0, 47, 59
2, 186355, Note_on_c, 0, 47, 0
2, 186419, Note_on_c, 0, 67, 0
2, 186434, Note_on_c, 0, 66, 64
2, 186510, Note_on_c, 0, 66, 0
2, 186554, Note_on_c, 0, 59, 71
2, 186561, Note_on_c, 0, 71, 75
2, 186606, Control_c, 0, 64, 14
2, 186626, Control_c, 0, 64, 18
2, 186635, Note_on_c, 0, 59, 0
2, 186645, Control_c, 0, 64, 0
2, 186669, Note_on_c, 0, 69, 72
2, 186674, Note_on_c, 0, 57, 76
2, 186693, Note_on_c, 0, 71, 0
2, 186765, Note_on_c, 0, 57, 0
2, 186776, Note_on_c, 0, 67, 77
2, 186785, Note_on_c, 0, 55, 67
2, 186818, Note_on_c, 0, 69, 0
2, 186881, Note_on_c, 0, 55, 0
2, 186886, Note_on_c, 0, 66, 81
2, 186894, Note_on_c, 0, 54, 76
2, 186894, Note_on_c, 0, 67, 0
2, 186954, Note_on_c, 0, 54, 0
2, 186977, Note_on_c, 0, 66, 0
2, 187001, Note_on_c, 0, 64, 78
2, 187006, Note_on_c, 0, 52, 78
2, 187054, Note_on_c, 0, 52, 0
2, 187107, Note_on_c, 0, 51, 80
2, 187114, Note_on_c, 0, 63, 79
2, 187118, Note_on_c, 0, 64, 0
2, 187173, Note_on_c, 0, 51, 0
2, 187188, Note_on_c, 0, 63, 0
2, 187226, Note_on_c, 0, 71, 92
2, 187229, Note_on_c, 0, 59, 83
2, 187288, Note_on_c, 0, 59, 0
2, 187334, Note_on_c, 0, 57, 81
2, 187335, Note_on_c, 0, 69, 81
2, 187371, Note_on_c, 0, 71, 0
2, 187443, Note_on_c, 0, 55, 74
2, 187443, Note_on_c, 0, 67, 85
2, 187448, Note_on_c, 0, 57, 0
2, 187475, Note_on_c, 0, 69, 0
2, 187549, Note_on_c, 0, 54, 79
2, 187549, Note_on_c, 0, 66, 87
2, 187560, Note_on_c, 0, 67, 0
2, 187566, Note_on_c, 0, 55, 0
2, 187628, Note_on_c, 0, 54, 0
2, 187651, Note_on_c, 0, 66, 0
2, 187658, Note_on_c, 0, 64, 86
2, 187667, Note_on_c, 0, 52, 80
2, 187760, Note_on_c, 0, 52, 0
2, 187777, Note_on_c, 0, 63, 84
2, 187781, Note_on_c, 0, 51, 83
2, 187781, Note_on_c, 0, 64, 0
2, 187849, Note_on_c, 0, 51, 0
2, 187849, Note_on_c, 0, 63, 0
2, 187894, Note_on_c, 0, 52, 88
2, 187894, Note_on_c, 0, 64, 97
2, 187984, Note_on_c, 0, 52, 0
2, 188016, Note_on_c, 0, 47, 84
2, 188016, Note_on_c, 0, 64, 0
2, 188016, Note_on_c, 0, 67, 93
2, 188109, Note_on_c, 0, 47, 0
2, 188114, Note_on_c, 0, 71, 92
2, 188118, Note_on_c, 0, 43, 72
2, 188139, Note_on_c, 0, 67, 0
2, 188216, Note_on_c, 0, 40, 76
2, 188220, Note_on_c, 0, 76, 89
2, 188224, Note_on_c, 0, 71, 0
2, 188228, Note_on_c, 0, 43, 0
2, 188264, Note_on_c, 0, 40, 0
2, 188341, Note_on_c, 0, 75, 88
2, 188349, Note_on_c, 0, 76, 0
2, 188442, Note_on_c, 0, 59, 83
2, 188453, Note_on_c, 0, 76, 91
2, 188468, Note_on_c, 0, 75, 0
2, 188521, Note_on_c, 0, 59, 0
2, 188559, Note_on_c, 0, 60, 80
2, 188563, Note_on_c, 0, 74, 89
2, 188581, Note_on_c, 0, 76, 0
2, 188631, Note_on_c, 0, 60, 0
2, 188659, Note_on_c, 0, 59, 83
2, 188670, Note_on_c, 0, 76, 89
2, 188688, Note_on_c, 0, 74, 0
2, 188784, Note_on_c, 0, 57, 81
2, 188786, Note_on_c, 0, 59, 0
2, 188786, Note_on_c, 0, 73, 88
2, 188795, Note_on_c, 0, 76, 0
2, 188879, Note_on_c, 0, 57, 0
2, 188887, Note_on_c, 0, 55, 70
2, 188896, Note_on_c, 0, 76, 89
2, 188901, Note_on_c, 0, 73, 0
2, 188990, Note_on_c, 0, 55, 0
2, 189006, Note_on_c, 0, 72, 89
2, 189012, Note_on_c, 0, 76, 0
2, 189023, Note_on_c, 0, 54, 71
2, 189094, Note_on_c, 0, 54, 0
2, 189112, Note_on_c, 0, 72, 0
2, 189117, Note_on_c, 0, 76, 87
2, 189121, Note_on_c, 0, 57, 79
2, 189182, Note_on_c, 0, 57, 0
2, 189218, Note_on_c, 0, 55, 79
2, 189223, Note_on_c, 0, 76, 0
2, 189227, Note_on_c, 0, 71, 87
2, 189334, Note_on_c, 0, 69, 83
2, 189338, Note_on_c, 0, 55, 0
2, 189343, Note_on_c, 0, 54, 76
2, 189357, Note_on_c, 0, 71, 0
2, 189426, Note_on_c, 0, 54, 0
2, 189446, Note_on_c, 0, 67, 88
2, 189450, Note_on_c, 0, 52, 74
2, 189450, Note_on_c, 0, 69, 0
2, 189496, Note_on_c, 0, 52, 0
2, 189554, Note_on_c, 0, 72, 93
2, 189559, Note_on_c, 0, 67, 0
2, 189576, Note_on_c, 0, 64, 80
2, 189651, Note_on_c, 0, 64, 0
2, 189667, Note_on_c, 0, 71, 87
2, 189684, Note_on_c, 0, 63, 83
2, 189705, Note_on_c, 0, 72, 0
2, 189774, Note_on_c, 0, 63, 0
2, 189778, Note_on_c, 0, 69, 84
2, 189792, Note_on_c, 0, 64, 83
2, 189801, Note_on_c, 0, 71, 0
2, 189857, Note_on_c, 0, 64, 0
2, 189889, Note_on_c, 0, 69, 0
2, 189898, Note_on_c, 0, 71, 87
2, 189907, Note_on_c, 0, 62, 82
2, 189981, Note_on_c, 0, 62, 0
2, 190002, Note_on_c, 0, 64, 80
2, 190009, Note_on_c, 0, 68, 89
2, 190019, Note_on_c, 0, 71, 0
2, 190077, Note_on_c, 0, 64, 0
2, 190122, Note_on_c, 0, 61, 78
2, 190126, Note_on_c, 0, 69, 90
2, 190137, Note_on_c, 0, 68, 0
2, 190205, Note_on_c, 0, 61, 0
2, 190225, Note_on_c, 0, 64, 78
2, 190242, Note_on_c, 0, 67, 87
2, 190257, Note_on_c, 0, 69, 0
2, 190301, Note_on_c, 0, 64, 0
2, 190341, Note_on_c, 0, 67, 0
2, 190350, Note_on_c, 0, 60, 86
2, 190357, Note_on_c, 0, 69, 85
2, 190444, Note_on_c, 0, 60, 0
2, 190461, Note_on_c, 0, 64, 75
2, 190465, Note_on_c, 0, 66, 86
2, 190479, Note_on_c, 0, 69, 0
2, 190538, Note_on_c, 0, 64, 0
2, 190584, Note_on_c, 0, 67, 90
2, 190593, Note_on_c, 0, 59, 85
2, 190599, Note_on_c, 0, 66, 0
2, 190695, Note_on_c, 0, 66, 85
2, 190708, Note_on_c, 0, 67, 0
2, 190818, Note_on_c, 0, 67, 86
2, 190823, Note_on_c, 0, 57, 88
2, 190842, Note_on_c, 0, 66, 0
2, 190866, Note_on_c, 0, 59, 0
2, 190935, Note_on_c, 0, 69, 80
2, 190950, Note_on_c, 0, 57, 0
2, 190959, Note_on_c, 0, 67, 0
2, 190992, Note_on_c, 0, 69, 0
2, 191067, Note_on_c, 0, 59, 85
2, 191077, Note_on_c, 0, 63, 82
2, 191202, Note_on_c, 0, 59, 0
2, 191205, Note_on_c, 0, 66, 82
2, 191218, Note_on_c, 0, 63, 0
2, 191339, Note_on_c, 0, 60, 88
2, 191381, Note_on_c, 0, 66, 0
2, 191472, Note_on_c, 0, 59, 84
2, 191486, Note_on_c, 0, 60, 0
2, 191622, Note_on_c, 0, 47, 77
2, 191622, Note_on_c, 0, 60, 84
2, 191646, Note_on_c, 0, 59, 0
2, 191799, Note_on_c, 0, 63, 82
2, 191843, Note_on_c, 0, 60, 0
2, 191909, Note_on_c, 0, 47, 0
2, 191971, Note_on_c, 0, 59, 82
2, 192016, Note_on_c, 0, 63, 0
2, 192146, Note_on_c, 0, 57, 79
2, 192195, Note_on_c, 0, 59, 0
2, 192374, Note_on_c, 0, 57, 0
2, 192383, Note_on_c, 0, 40, 43
2, 192489, Note_on_c, 0, 56, 59
2, 192587, Note_on_c, 0, 59, 59
2, 192711, Note_on_c, 0, 64, 70
2, 193717, Note_on_c, 0, 59, 0
2, 193770, Note_on_c, 0, 56, 0
2, 193779, Note_on_c, 0, 64, 0
2, 193792, Note_on_c, 0, 40, 0
2, 193793, End_track
0, 0, End_of_file
