0, 0, Header, 1, 2, 384
1, 0, Start_track
1, 0, Tempo, 500000
1, 0, Time_signature, 4, 2, 24, 8
1, 1, End_track
2, 0, Start_track
2, 0, Title_t," ""Cui05-08.mid"""
2, 0, Program_c, 0, 0
2, 370, Control_c, 0, 67, 11
2, 385, Control_c, 0, 67, 22
2, 400, Control_c, 0, 67, 36
2, 416, Control_c, 0, 67, 51
2, 430, Control_c, 0, 67, 64
2, 445, Control_c, 0, 67, 79
2, 461, Control_c, 0, 67, 90
2, 475, Control_c, 0, 67, 101
2, 491, Control_c, 0, 67, 110
2, 506, Control_c, 0, 67, 118
2, 521, Control_c, 0, 67, 126
2, 537, Control_c, 0, 67, 127
2, 773, Note_on_c, 0, 51, 44
2, 1180, Note_on_c, 0, 67, 42
2, 1385, Note_on_c, 0, 68, 53
2, 1388, Note_on_c, 0, 67, 0
2, 1574, Note_on_c, 0, 68, 0
2, 1579, Note_on_c, 0, 70, 60
2, 1764, Note_on_c, 0, 68, 64
2, 1768, Note_on_c, 0, 70, 0
2, 1890, Control_c, 0, 67, 122
2, 1905, Control_c, 0, 67, 103
2, 1920, Control_c, 0, 67, 89
2, 1935, Control_c, 0, 67, 78
2, 1950, Control_c, 0, 67, 66
2, 1954, Note_on_c, 0, 67, 66
2, 1967, Control_c, 0, 67, 54
2, 1982, Control_c, 0, 67, 40
2, 1982, Note_on_c, 0, 68, 0
2, 1997, Control_c, 0, 67, 25
2, 2013, Control_c, 0, 67, 10
2, 2028, Control_c, 0, 67, 0
2, 2143, Note_on_c, 0, 65, 64
2, 2152, Note_on_c, 0, 67, 0
2, 2329, Note_on_c, 0, 63, 65
2, 2346, Note_on_c, 0, 65, 0
2, 2592, Note_on_c, 0, 73, 63
2, 2908, Note_on_c, 0, 55, 40
2, 3122, Note_on_c, 0, 56, 50
2, 3127, Note_on_c, 0, 55, 0
2, 3287, Note_on_c, 0, 56, 0
2, 3308, Note_on_c, 0, 58, 52
2, 3514, Note_on_c, 0, 56, 52
2, 3524, Note_on_c, 0, 58, 0
2, 3701, Note_on_c, 0, 55, 55
2, 3721, Note_on_c, 0, 56, 0
2, 3794, Note_on_c, 0, 51, 0
2, 3889, Note_on_c, 0, 53, 51
2, 3908, Note_on_c, 0, 55, 0
2, 4083, Note_on_c, 0, 51, 55
2, 4137, Note_on_c, 0, 53, 0
2, 4169, Note_on_c, 0, 63, 0
2, 4333, Note_on_c, 0, 56, 55
2, 4354, Note_on_c, 0, 73, 0
2, 4534, Note_on_c, 0, 72, 61
2, 4714, Note_on_c, 0, 73, 63
2, 4724, Note_on_c, 0, 72, 0
2, 4892, Note_on_c, 0, 73, 0
2, 4895, Note_on_c, 0, 75, 71
2, 5091, Note_on_c, 0, 73, 71
2, 5110, Note_on_c, 0, 75, 0
2, 5289, Note_on_c, 0, 72, 72
2, 5290, Note_on_c, 0, 73, 0
2, 5467, Note_on_c, 0, 72, 0
2, 5472, Note_on_c, 0, 70, 71
2, 5648, Note_on_c, 0, 70, 0
2, 5659, Note_on_c, 0, 68, 67
2, 5882, Note_on_c, 0, 77, 67
2, 5956, Note_on_c, 0, 56, 0
2, 6088, Note_on_c, 0, 56, 60
2, 6280, Note_on_c, 0, 58, 62
2, 6291, Note_on_c, 0, 56, 0
2, 6466, Note_on_c, 0, 60, 56
2, 6473, Note_on_c, 0, 58, 0
2, 6661, Note_on_c, 0, 60, 0
2, 6665, Note_on_c, 0, 58, 50
2, 6845, Note_on_c, 0, 56, 48
2, 6848, Note_on_c, 0, 58, 0
2, 7039, Note_on_c, 0, 56, 0
2, 7048, Note_on_c, 0, 55, 50
2, 7207, Note_on_c, 0, 55, 0
2, 7253, Note_on_c, 0, 53, 63
2, 7499, Note_on_c, 0, 62, 72
2, 7641, Note_on_c, 0, 53, 0
2, 7684, Note_on_c, 0, 74, 66
2, 7693, Note_on_c, 0, 68, 0
2, 7740, Note_on_c, 0, 77, 0
2, 7881, Note_on_c, 0, 75, 72
2, 7902, Note_on_c, 0, 74, 0
2, 8054, Note_on_c, 0, 77, 74
2, 8065, Note_on_c, 0, 75, 0
2, 8249, Note_on_c, 0, 75, 72
2, 8251, Note_on_c, 0, 77, 0
2, 8440, Note_on_c, 0, 74, 70
2, 8442, Note_on_c, 0, 75, 0
2, 8621, Note_on_c, 0, 74, 0
2, 8625, Note_on_c, 0, 72, 70
2, 8749, Control_c, 0, 64, 35
2, 8763, Control_c, 0, 64, 44
2, 8779, Control_c, 0, 64, 50
2, 8802, Control_c, 0, 64, 55
2, 8815, Note_on_c, 0, 72, 0
2, 8817, Control_c, 0, 64, 59
2, 8827, Note_on_c, 0, 70, 69
2, 8832, Control_c, 0, 64, 62
2, 8848, Control_c, 0, 64, 64
2, 8863, Control_c, 0, 64, 66
2, 8878, Control_c, 0, 64, 68
2, 8893, Control_c, 0, 64, 71
2, 8908, Control_c, 0, 64, 75
2, 8923, Control_c, 0, 64, 77
2, 8939, Control_c, 0, 64, 78
2, 9043, Note_on_c, 0, 62, 0
2, 9100, Note_on_c, 0, 80, 76
2, 9120, Control_c, 0, 64, 77
2, 9150, Control_c, 0, 64, 77
2, 9181, Control_c, 0, 64, 76
2, 9196, Control_c, 0, 64, 76
2, 9212, Control_c, 0, 64, 75
2, 9226, Control_c, 0, 64, 75
2, 9241, Control_c, 0, 64, 74
2, 9257, Control_c, 0, 64, 73
2, 9272, Control_c, 0, 64, 73
2, 9288, Control_c, 0, 64, 72
2, 9302, Control_c, 0, 64, 71
2, 9317, Control_c, 0, 64, 70
2, 9327, Note_on_c, 0, 62, 60
2, 9331, Note_on_c, 0, 51, 0
2, 9334, Control_c, 0, 64, 70
2, 9349, Control_c, 0, 64, 69
2, 9364, Control_c, 0, 64, 69
2, 9380, Control_c, 0, 64, 68
2, 9395, Control_c, 0, 64, 68
2, 9425, Control_c, 0, 64, 67
2, 9455, Control_c, 0, 64, 67
2, 9485, Control_c, 0, 64, 66
2, 9501, Control_c, 0, 64, 66
2, 9516, Control_c, 0, 64, 65
2, 9525, Note_on_c, 0, 62, 0
2, 9526, Note_on_c, 0, 63, 65
2, 9531, Control_c, 0, 64, 64
2, 9546, Control_c, 0, 64, 63
2, 9570, Control_c, 0, 64, 62
2, 9585, Control_c, 0, 64, 62
2, 9600, Control_c, 0, 64, 61
2, 9630, Control_c, 0, 64, 61
2, 9645, Control_c, 0, 64, 60
2, 9660, Control_c, 0, 64, 60
2, 9675, Control_c, 0, 64, 59
2, 9691, Control_c, 0, 64, 58
2, 9706, Control_c, 0, 64, 56
2, 9721, Control_c, 0, 64, 55
2, 9723, Note_on_c, 0, 63, 0
2, 9729, Note_on_c, 0, 65, 60
2, 9736, Control_c, 0, 64, 54
2, 9751, Control_c, 0, 64, 53
2, 9766, Control_c, 0, 64, 52
2, 9782, Control_c, 0, 64, 50
2, 9796, Control_c, 0, 64, 49
2, 9812, Control_c, 0, 64, 48
2, 9827, Control_c, 0, 64, 47
2, 9842, Control_c, 0, 64, 46
2, 9858, Control_c, 0, 64, 44
2, 9872, Control_c, 0, 64, 42
2, 9888, Control_c, 0, 64, 41
2, 9903, Control_c, 0, 64, 39
2, 9906, Note_on_c, 0, 65, 0
2, 9917, Note_on_c, 0, 63, 60
2, 9918, Control_c, 0, 64, 37
2, 9934, Control_c, 0, 64, 35
2, 9948, Control_c, 0, 64, 33
2, 9963, Control_c, 0, 64, 31
2, 9979, Control_c, 0, 64, 28
2, 9994, Control_c, 0, 64, 25
2, 10010, Control_c, 0, 64, 21
2, 10025, Control_c, 0, 64, 18
2, 10040, Control_c, 0, 64, 13
2, 10056, Control_c, 0, 64, 0
2, 10093, Note_on_c, 0, 63, 0
2, 10122, Note_on_c, 0, 62, 53
2, 10332, Note_on_c, 0, 62, 0
2, 10337, Note_on_c, 0, 60, 51
2, 10530, Note_on_c, 0, 58, 52
2, 10568, Note_on_c, 0, 60, 0
2, 10797, Note_on_c, 0, 63, 56
2, 10949, Note_on_c, 0, 58, 0
2, 11109, Note_on_c, 0, 77, 48
2, 11110, Note_on_c, 0, 80, 0
2, 11297, Note_on_c, 0, 77, 0
2, 11315, Note_on_c, 0, 79, 50
2, 11493, Note_on_c, 0, 79, 0
2, 11500, Note_on_c, 0, 80, 57
2, 11685, Note_on_c, 0, 79, 60
2, 11706, Note_on_c, 0, 80, 0
2, 11866, Note_on_c, 0, 70, 0
2, 11883, Note_on_c, 0, 77, 58
2, 12019, Note_on_c, 0, 79, 0
2, 12079, Note_on_c, 0, 75, 54
2, 12178, Note_on_c, 0, 77, 0
2, 12301, Note_on_c, 0, 74, 48
2, 12334, Note_on_c, 0, 75, 0
2, 12573, Control_c, 0, 64, 26
2, 12588, Control_c, 0, 64, 34
2, 12599, Note_on_c, 0, 79, 43
2, 12601, Note_on_c, 0, 75, 45
2, 12604, Control_c, 0, 64, 41
2, 12620, Control_c, 0, 64, 47
2, 12642, Control_c, 0, 64, 52
2, 12654, Note_on_c, 0, 74, 0
2, 12658, Control_c, 0, 64, 56
2, 12672, Control_c, 0, 64, 59
2, 12688, Control_c, 0, 64, 61
2, 12703, Control_c, 0, 64, 62
2, 12718, Control_c, 0, 64, 63
2, 12734, Control_c, 0, 64, 64
2, 12749, Control_c, 0, 64, 66
2, 12762, Note_on_c, 0, 63, 0
2, 12763, Control_c, 0, 64, 67
2, 12779, Control_c, 0, 64, 68
2, 12794, Control_c, 0, 64, 68
2, 12870, Control_c, 0, 64, 68
2, 12885, Control_c, 0, 64, 67
2, 12900, Control_c, 0, 64, 66
2, 12908, Note_on_c, 0, 63, 42
2, 12915, Control_c, 0, 64, 65
2, 12931, Control_c, 0, 64, 64
2, 12946, Control_c, 0, 64, 63
2, 12960, Control_c, 0, 64, 62
2, 12976, Control_c, 0, 64, 62
2, 12991, Control_c, 0, 64, 61
2, 13006, Control_c, 0, 64, 60
2, 13022, Control_c, 0, 64, 59
2, 13037, Control_c, 0, 64, 57
2, 13052, Control_c, 0, 64, 56
2, 13067, Control_c, 0, 64, 53
2, 13082, Control_c, 0, 64, 52
2, 13098, Control_c, 0, 64, 50
2, 13107, Note_on_c, 0, 63, 0
2, 13113, Control_c, 0, 64, 49
2, 13119, Note_on_c, 0, 65, 46
2, 13129, Control_c, 0, 64, 48
2, 13143, Control_c, 0, 64, 47
2, 13158, Control_c, 0, 64, 45
2, 13174, Control_c, 0, 64, 42
2, 13189, Control_c, 0, 64, 39
2, 13204, Control_c, 0, 64, 35
2, 13220, Control_c, 0, 64, 31
2, 13235, Control_c, 0, 64, 28
2, 13250, Control_c, 0, 64, 25
2, 13265, Control_c, 0, 64, 23
2, 13280, Control_c, 0, 64, 20
2, 13294, Note_on_c, 0, 65, 0
2, 13295, Control_c, 0, 64, 17
2, 13310, Control_c, 0, 64, 0
2, 13321, Note_on_c, 0, 67, 52
2, 13504, Note_on_c, 0, 67, 0
2, 13522, Note_on_c, 0, 65, 50
2, 13697, Note_on_c, 0, 65, 0
2, 13709, Note_on_c, 0, 63, 51
2, 13873, Note_on_c, 0, 63, 0
2, 13904, Note_on_c, 0, 62, 47
2, 14085, Note_on_c, 0, 62, 0
2, 14118, Note_on_c, 0, 60, 36
2, 14346, Note_on_c, 0, 60, 0
2, 14386, Note_on_c, 0, 58, 36
2, 14564, Note_on_c, 0, 75, 0
2, 14685, Note_on_c, 0, 58, 0
2, 14710, Note_on_c, 0, 60, 41
2, 14716, Note_on_c, 0, 75, 47
2, 14768, Note_on_c, 0, 79, 0
2, 14886, Note_on_c, 0, 60, 0
2, 14923, Note_on_c, 0, 62, 50
2, 14934, Note_on_c, 0, 77, 62
2, 14944, Note_on_c, 0, 75, 0
2, 15100, Note_on_c, 0, 62, 0
2, 15123, Note_on_c, 0, 63, 51
2, 15128, Note_on_c, 0, 79, 67
2, 15161, Note_on_c, 0, 77, 0
2, 15291, Note_on_c, 0, 63, 0
2, 15314, Note_on_c, 0, 77, 68
2, 15317, Note_on_c, 0, 62, 53
2, 15354, Note_on_c, 0, 79, 0
2, 15500, Note_on_c, 0, 62, 0
2, 15508, Note_on_c, 0, 60, 53
2, 15508, Note_on_c, 0, 75, 73
2, 15535, Note_on_c, 0, 77, 0
2, 15691, Note_on_c, 0, 60, 0
2, 15705, Note_on_c, 0, 58, 57
2, 15708, Note_on_c, 0, 74, 67
2, 15721, Note_on_c, 0, 75, 0
2, 15896, Note_on_c, 0, 74, 0
2, 15905, Note_on_c, 0, 58, 0
2, 15906, Note_on_c, 0, 72, 69
2, 15913, Note_on_c, 0, 56, 51
2, 16094, Note_on_c, 0, 56, 0
2, 16120, Note_on_c, 0, 55, 53
2, 16194, Note_on_c, 0, 84, 78
2, 16388, Note_on_c, 0, 51, 54
2, 16389, Note_on_c, 0, 55, 0
2, 16593, Note_on_c, 0, 53, 57
2, 16596, Note_on_c, 0, 51, 0
2, 16776, Note_on_c, 0, 53, 0
2, 16789, Note_on_c, 0, 55, 57
2, 16984, Note_on_c, 0, 53, 55
2, 17020, Note_on_c, 0, 55, 0
2, 17183, Note_on_c, 0, 51, 50
2, 17206, Note_on_c, 0, 53, 0
2, 17290, Note_on_c, 0, 72, 0
2, 17379, Note_on_c, 0, 51, 0
2, 17384, Note_on_c, 0, 50, 48
2, 17580, Note_on_c, 0, 50, 0
2, 17593, Note_on_c, 0, 48, 44
2, 17819, Note_on_c, 0, 74, 45
2, 17824, Note_on_c, 0, 48, 0
2, 17827, Note_on_c, 0, 53, 36
2, 17982, Note_on_c, 0, 84, 0
2, 18077, Note_on_c, 0, 48, 44
2, 18082, Note_on_c, 0, 81, 59
2, 18274, Note_on_c, 0, 53, 0
2, 18285, Note_on_c, 0, 48, 0
2, 18285, Note_on_c, 0, 50, 48
2, 18286, Note_on_c, 0, 82, 72
2, 18310, Note_on_c, 0, 81, 0
2, 18461, Note_on_c, 0, 50, 0
2, 18481, Note_on_c, 0, 51, 54
2, 18484, Note_on_c, 0, 84, 75
2, 18512, Note_on_c, 0, 82, 0
2, 18653, Note_on_c, 0, 51, 0
2, 18674, Note_on_c, 0, 50, 51
2, 18684, Note_on_c, 0, 82, 74
2, 18736, Note_on_c, 0, 84, 0
2, 18858, Note_on_c, 0, 74, 0
2, 18870, Note_on_c, 0, 50, 0
2, 18876, Note_on_c, 0, 81, 73
2, 18882, Note_on_c, 0, 48, 46
2, 18936, Note_on_c, 0, 82, 0
2, 19068, Note_on_c, 0, 79, 68
2, 19069, Note_on_c, 0, 46, 51
2, 19099, Note_on_c, 0, 48, 0
2, 19141, Note_on_c, 0, 81, 0
2, 19275, Note_on_c, 0, 77, 60
2, 19288, Note_on_c, 0, 45, 42
2, 19289, Note_on_c, 0, 46, 0
2, 19329, Note_on_c, 0, 79, 0
2, 19525, Note_on_c, 0, 82, 51
2, 19526, Note_on_c, 0, 50, 36
2, 19563, Note_on_c, 0, 45, 0
2, 19576, Note_on_c, 0, 77, 0
2, 19816, Note_on_c, 0, 82, 0
2, 19824, Note_on_c, 0, 50, 0
2, 19831, Note_on_c, 0, 46, 44
2, 19836, Note_on_c, 0, 81, 55
2, 20043, Note_on_c, 0, 81, 0
2, 20044, Note_on_c, 0, 48, 52
2, 20044, Note_on_c, 0, 79, 60
2, 20053, Note_on_c, 0, 46, 0
2, 20216, Note_on_c, 0, 79, 0
2, 20230, Note_on_c, 0, 48, 0
2, 20236, Note_on_c, 0, 77, 66
2, 20239, Note_on_c, 0, 50, 56
2, 20430, Note_on_c, 0, 75, 69
2, 20440, Note_on_c, 0, 48, 54
2, 20462, Note_on_c, 0, 50, 0
2, 20462, Note_on_c, 0, 77, 0
2, 20619, Note_on_c, 0, 74, 76
2, 20630, Note_on_c, 0, 46, 56
2, 20637, Note_on_c, 0, 75, 0
2, 20645, Note_on_c, 0, 48, 0
2, 20815, Note_on_c, 0, 46, 0
2, 20818, Note_on_c, 0, 72, 72
2, 20829, Note_on_c, 0, 45, 54
2, 20840, Note_on_c, 0, 74, 0
2, 21006, Note_on_c, 0, 72, 0
2, 21012, Note_on_c, 0, 70, 68
2, 21020, Note_on_c, 0, 45, 0
2, 21027, Note_on_c, 0, 43, 47
2, 21260, Note_on_c, 0, 48, 44
2, 21278, Note_on_c, 0, 75, 72
2, 21292, Note_on_c, 0, 43, 0
2, 21436, Note_on_c, 0, 70, 0
2, 21627, Note_on_c, 0, 51, 52
2, 21857, Note_on_c, 0, 53, 60
2, 21860, Note_on_c, 0, 51, 0
2, 22060, Note_on_c, 0, 53, 0
2, 22060, Note_on_c, 0, 55, 62
2, 22267, Note_on_c, 0, 53, 61
2, 22273, Note_on_c, 0, 55, 0
2, 22452, Note_on_c, 0, 53, 0
2, 22456, Note_on_c, 0, 51, 52
2, 22674, Note_on_c, 0, 51, 0
2, 22678, Note_on_c, 0, 48, 0
2, 22688, Note_on_c, 0, 50, 52
2, 22918, Note_on_c, 0, 48, 54
2, 22942, Note_on_c, 0, 50, 0
2, 23205, Note_on_c, 0, 57, 59
2, 23304, Note_on_c, 0, 75, 0
2, 23509, Note_on_c, 0, 75, 57
2, 23710, Note_on_c, 0, 77, 66
2, 23716, Note_on_c, 0, 75, 0
2, 23903, Note_on_c, 0, 79, 69
2, 23927, Note_on_c, 0, 77, 0
2, 24109, Note_on_c, 0, 77, 68
2, 24141, Note_on_c, 0, 79, 0
2, 24325, Note_on_c, 0, 75, 65
2, 24341, Note_on_c, 0, 77, 0
2, 24370, Control_c, 0, 64, 20
2, 24386, Control_c, 0, 64, 44
2, 24401, Control_c, 0, 64, 55
2, 24417, Control_c, 0, 64, 60
2, 24432, Control_c, 0, 64, 63
2, 24447, Control_c, 0, 64, 64
2, 24463, Control_c, 0, 64, 66
2, 24478, Control_c, 0, 64, 69
2, 24492, Control_c, 0, 64, 74
2, 24508, Control_c, 0, 64, 77
2, 24523, Control_c, 0, 64, 79
2, 24532, Note_on_c, 0, 74, 62
2, 24537, Note_on_c, 0, 75, 0
2, 24538, Control_c, 0, 64, 80
2, 24553, Control_c, 0, 64, 81
2, 24568, Control_c, 0, 64, 82
2, 24568, Note_on_c, 0, 57, 0
2, 24584, Control_c, 0, 64, 83
2, 24599, Control_c, 0, 64, 84
2, 24613, Control_c, 0, 64, 85
2, 24629, Control_c, 0, 64, 85
2, 24644, Control_c, 0, 64, 86
2, 24660, Control_c, 0, 64, 86
2, 24733, Note_on_c, 0, 74, 0
2, 24742, Note_on_c, 0, 72, 62
2, 25028, Note_on_c, 0, 48, 0
2, 25033, Control_c, 0, 64, 86
2, 25041, Note_on_c, 0, 58, 59
2, 25041, Note_on_c, 0, 72, 0
2, 25045, Note_on_c, 0, 46, 53
2, 25047, Control_c, 0, 64, 85
2, 25052, Note_on_c, 0, 74, 59
2, 25063, Control_c, 0, 64, 85
2, 25078, Control_c, 0, 64, 84
2, 25093, Control_c, 0, 64, 83
2, 25110, Control_c, 0, 64, 81
2, 25124, Control_c, 0, 64, 80
2, 25140, Control_c, 0, 64, 78
2, 25155, Control_c, 0, 64, 76
2, 25169, Control_c, 0, 64, 74
2, 25185, Control_c, 0, 64, 71
2, 25200, Control_c, 0, 64, 68
2, 25216, Control_c, 0, 64, 64
2, 25231, Control_c, 0, 64, 56
2, 25245, Control_c, 0, 64, 37
2, 25261, Control_c, 0, 64, 0
2, 25306, Note_on_c, 0, 74, 0
2, 25329, Note_on_c, 0, 72, 54
2, 25422, Note_on_c, 0, 72, 0
2, 25434, Note_on_c, 0, 74, 60
2, 25511, Note_on_c, 0, 74, 0
2, 25527, Note_on_c, 0, 75, 63
2, 25618, Note_on_c, 0, 75, 0
2, 25619, Note_on_c, 0, 74, 64
2, 25670, Note_on_c, 0, 74, 0
2, 25695, Note_on_c, 0, 72, 68
2, 25763, Note_on_c, 0, 70, 64
2, 25768, Note_on_c, 0, 72, 0
2, 25831, Note_on_c, 0, 70, 0
2, 25839, Note_on_c, 0, 69, 67
2, 25901, Note_on_c, 0, 69, 0
2, 25922, Note_on_c, 0, 70, 67
2, 25979, Note_on_c, 0, 70, 0
2, 25997, Note_on_c, 0, 69, 68
2, 26067, Note_on_c, 0, 69, 0
2, 26071, Note_on_c, 0, 70, 64
2, 26120, Note_on_c, 0, 70, 0
2, 26141, Note_on_c, 0, 72, 60
2, 26212, Note_on_c, 0, 70, 64
2, 26219, Note_on_c, 0, 72, 0
2, 26281, Note_on_c, 0, 68, 68
2, 26289, Note_on_c, 0, 70, 0
2, 26342, Note_on_c, 0, 68, 0
2, 26349, Note_on_c, 0, 67, 64
2, 26423, Note_on_c, 0, 67, 0
2, 26426, Note_on_c, 0, 65, 66
2, 26477, Note_on_c, 0, 65, 0
2, 26499, Note_on_c, 0, 67, 55
2, 26566, Note_on_c, 0, 67, 0
2, 26572, Note_on_c, 0, 65, 67
2, 26644, Note_on_c, 0, 65, 0
2, 26645, Note_on_c, 0, 67, 66
2, 26707, Note_on_c, 0, 67, 0
2, 26716, Note_on_c, 0, 68, 65
2, 26793, Note_on_c, 0, 67, 66
2, 26805, Note_on_c, 0, 68, 0
2, 26840, Note_on_c, 0, 67, 0
2, 26867, Note_on_c, 0, 65, 67
2, 26941, Note_on_c, 0, 63, 70
2, 26941, Note_on_c, 0, 65, 0
2, 27003, Note_on_c, 0, 63, 0
2, 27019, Note_on_c, 0, 62, 63
2, 27072, Note_on_c, 0, 62, 0
2, 27091, Note_on_c, 0, 63, 64
2, 27154, Note_on_c, 0, 63, 0
2, 27169, Note_on_c, 0, 62, 72
2, 27252, Note_on_c, 0, 63, 62
2, 27257, Note_on_c, 0, 62, 0
2, 27321, Note_on_c, 0, 63, 0
2, 27331, Note_on_c, 0, 65, 65
2, 27370, Note_on_c, 0, 58, 0
2, 27419, Note_on_c, 0, 63, 63
2, 27434, Note_on_c, 0, 65, 0
2, 27510, Note_on_c, 0, 62, 64
2, 27531, Note_on_c, 0, 63, 0
2, 27590, Note_on_c, 0, 62, 0
2, 27611, Note_on_c, 0, 60, 65
2, 27713, Note_on_c, 0, 58, 64
2, 27723, Note_on_c, 0, 60, 0
2, 27889, Note_on_c, 0, 57, 72
2, 28198, Note_on_c, 0, 58, 0
2, 28243, Note_on_c, 0, 60, 58
2, 28359, Note_on_c, 0, 60, 0
2, 28359, Note_on_c, 0, 62, 60
2, 28460, Note_on_c, 0, 63, 68
2, 28471, Note_on_c, 0, 62, 0
2, 28532, Note_on_c, 0, 63, 0
2, 28547, Note_on_c, 0, 65, 72
2, 28624, Note_on_c, 0, 65, 0
2, 28633, Note_on_c, 0, 67, 70
2, 28708, Note_on_c, 0, 69, 70
2, 28741, Note_on_c, 0, 67, 0
2, 28787, Note_on_c, 0, 70, 72
2, 28808, Note_on_c, 0, 69, 0
2, 28879, Note_on_c, 0, 72, 74
2, 28908, Note_on_c, 0, 70, 0
2, 28962, Note_on_c, 0, 69, 70
2, 28971, Note_on_c, 0, 72, 0
2, 29025, Control_c, 0, 64, 26
2, 29039, Control_c, 0, 64, 61
2, 29039, Note_on_c, 0, 65, 71
2, 29039, Note_on_c, 0, 69, 0
2, 29055, Control_c, 0, 64, 65
2, 29070, Control_c, 0, 64, 67
2, 29085, Control_c, 0, 64, 68
2, 29101, Control_c, 0, 64, 69
2, 29116, Control_c, 0, 64, 71
2, 29127, Note_on_c, 0, 67, 73
2, 29131, Control_c, 0, 64, 72
2, 29140, Note_on_c, 0, 65, 0
2, 29147, Control_c, 0, 64, 73
2, 29161, Control_c, 0, 64, 74
2, 29201, Note_on_c, 0, 69, 69
2, 29238, Control_c, 0, 64, 73
2, 29247, Note_on_c, 0, 67, 0
2, 29268, Control_c, 0, 64, 73
2, 29271, Note_on_c, 0, 70, 75
2, 29281, Note_on_c, 0, 69, 0
2, 29283, Control_c, 0, 64, 72
2, 29299, Control_c, 0, 64, 71
2, 29314, Control_c, 0, 64, 70
2, 29315, Note_on_c, 0, 70, 0
2, 29328, Control_c, 0, 64, 68
2, 29344, Control_c, 0, 64, 66
2, 29352, Note_on_c, 0, 72, 76
2, 29359, Control_c, 0, 64, 63
2, 29375, Control_c, 0, 64, 55
2, 29390, Control_c, 0, 64, 32
2, 29404, Control_c, 0, 64, 0
2, 29437, Note_on_c, 0, 74, 73
2, 29507, Note_on_c, 0, 75, 71
2, 29570, Note_on_c, 0, 74, 0
2, 29580, Control_c, 0, 64, 33
2, 29595, Control_c, 0, 64, 61
2, 29609, Control_c, 0, 64, 65
2, 29625, Control_c, 0, 64, 67
2, 29640, Control_c, 0, 64, 69
2, 29655, Control_c, 0, 64, 70
2, 29670, Control_c, 0, 64, 72
2, 29685, Control_c, 0, 64, 73
2, 29687, Note_on_c, 0, 75, 0
2, 29701, Control_c, 0, 64, 73
2, 29716, Control_c, 0, 64, 73
2, 29721, Note_on_c, 0, 77, 67
2, 29730, Control_c, 0, 64, 72
2, 29746, Control_c, 0, 64, 70
2, 29761, Control_c, 0, 64, 65
2, 29777, Control_c, 0, 64, 47
2, 29787, Note_on_c, 0, 75, 75
2, 29791, Control_c, 0, 64, 0
2, 29812, Note_on_c, 0, 77, 0
2, 29853, Note_on_c, 0, 74, 76
2, 29881, Note_on_c, 0, 75, 0
2, 29929, Control_c, 0, 64, 43
2, 29945, Control_c, 0, 64, 60
2, 29959, Control_c, 0, 64, 64
2, 29975, Control_c, 0, 64, 67
2, 29990, Control_c, 0, 64, 69
2, 30005, Control_c, 0, 64, 72
2, 30017, Note_on_c, 0, 75, 86
2, 30021, Control_c, 0, 64, 76
2, 30036, Control_c, 0, 64, 78
2, 30051, Control_c, 0, 64, 80
2, 30067, Control_c, 0, 64, 80
2, 30070, Note_on_c, 0, 74, 0
2, 30082, Control_c, 0, 64, 81
2, 30097, Control_c, 0, 64, 81
2, 30206, Note_on_c, 0, 75, 0
2, 30305, Note_on_c, 0, 75, 87
2, 30332, Control_c, 0, 64, 81
2, 30348, Control_c, 0, 64, 80
2, 30363, Control_c, 0, 64, 79
2, 30378, Control_c, 0, 64, 76
2, 30393, Control_c, 0, 64, 73
2, 30408, Control_c, 0, 64, 69
2, 30423, Control_c, 0, 64, 63
2, 30438, Control_c, 0, 64, 38
2, 30453, Control_c, 0, 64, 0
2, 30727, Control_c, 0, 64, 39
2, 30743, Control_c, 0, 64, 50
2, 30757, Control_c, 0, 64, 56
2, 30772, Control_c, 0, 64, 59
2, 30788, Control_c, 0, 64, 62
2, 30803, Control_c, 0, 64, 63
2, 30819, Control_c, 0, 64, 64
2, 30834, Control_c, 0, 64, 65
2, 30848, Control_c, 0, 64, 67
2, 30864, Control_c, 0, 64, 70
2, 30879, Control_c, 0, 64, 73
2, 30895, Control_c, 0, 64, 75
2, 30910, Control_c, 0, 64, 77
2, 30924, Control_c, 0, 64, 78
2, 30940, Control_c, 0, 64, 78
2, 30955, Control_c, 0, 64, 79
2, 30970, Control_c, 0, 64, 80
2, 30986, Control_c, 0, 64, 81
2, 31000, Control_c, 0, 64, 82
2, 31016, Control_c, 0, 64, 82
2, 31031, Control_c, 0, 64, 83
2, 31046, Control_c, 0, 64, 83
2, 31100, Control_c, 0, 64, 84
2, 31206, Note_on_c, 0, 57, 0
2, 31237, Note_on_c, 0, 72, 0
2, 31378, Note_on_c, 0, 74, 50
2, 31424, Note_on_c, 0, 75, 0
2, 31465, Note_on_c, 0, 74, 0
2, 31678, Control_c, 0, 64, 83
2, 31723, Control_c, 0, 64, 83
2, 31754, Control_c, 0, 64, 82
2, 31768, Control_c, 0, 64, 82
2, 31784, Control_c, 0, 64, 81
2, 31799, Control_c, 0, 64, 80
2, 31809, Note_on_c, 0, 58, 58
2, 31815, Control_c, 0, 64, 77
2, 31815, Note_on_c, 0, 74, 54
2, 31830, Note_on_c, 0, 65, 53
2, 31837, Control_c, 0, 64, 73
2, 31852, Control_c, 0, 64, 65
2, 31868, Control_c, 0, 64, 31
2, 31882, Control_c, 0, 64, 0
2, 32021, Control_c, 0, 64, 41
2, 32035, Control_c, 0, 64, 59
2, 32050, Control_c, 0, 64, 64
2, 32066, Control_c, 0, 64, 66
2, 32081, Control_c, 0, 64, 69
2, 32084, Note_on_c, 0, 74, 0
2, 32097, Control_c, 0, 64, 72
2, 32111, Control_c, 0, 64, 76
2, 32126, Control_c, 0, 64, 79
2, 32142, Control_c, 0, 64, 81
2, 32157, Control_c, 0, 64, 82
2, 32172, Control_c, 0, 64, 82
2, 32187, Control_c, 0, 64, 83
2, 32202, Control_c, 0, 64, 83
2, 32218, Control_c, 0, 64, 84
2, 32426, Note_on_c, 0, 46, 0
2, 32461, Control_c, 0, 64, 83
2, 32507, Control_c, 0, 64, 83
2, 32537, Control_c, 0, 64, 82
2, 32543, Note_on_c, 0, 63, 68
2, 32552, Control_c, 0, 64, 82
2, 32557, Note_on_c, 0, 58, 0
2, 32567, Control_c, 0, 64, 81
2, 32606, Control_c, 0, 64, 81
2, 32610, Note_on_c, 0, 65, 0
2, 32621, Control_c, 0, 64, 80
2, 32636, Control_c, 0, 64, 79
2, 32651, Control_c, 0, 64, 79
2, 32667, Control_c, 0, 64, 78
2, 32681, Control_c, 0, 64, 77
2, 32697, Control_c, 0, 64, 76
2, 32712, Control_c, 0, 64, 75
2, 32727, Control_c, 0, 64, 74
2, 32743, Control_c, 0, 64, 73
2, 32757, Control_c, 0, 64, 73
2, 32772, Control_c, 0, 64, 72
2, 32788, Control_c, 0, 64, 71
2, 32803, Control_c, 0, 64, 70
2, 32819, Control_c, 0, 64, 69
2, 32833, Control_c, 0, 64, 67
2, 32848, Control_c, 0, 64, 65
2, 32864, Control_c, 0, 64, 62
2, 32879, Control_c, 0, 64, 59
2, 32895, Control_c, 0, 64, 57
2, 32955, Control_c, 0, 64, 56
2, 32986, Control_c, 0, 64, 56
2, 33017, Control_c, 0, 64, 55
2, 33031, Control_c, 0, 64, 54
2, 33046, Control_c, 0, 64, 53
2, 33062, Control_c, 0, 64, 52
2, 33077, Control_c, 0, 64, 50
2, 33093, Control_c, 0, 64, 48
2, 33108, Control_c, 0, 64, 45
2, 33123, Control_c, 0, 64, 42
2, 33139, Control_c, 0, 64, 37
2, 33154, Control_c, 0, 64, 32
2, 33169, Control_c, 0, 64, 21
2, 33177, Note_on_c, 0, 53, 59
2, 33182, Control_c, 0, 64, 0
2, 33794, Note_on_c, 0, 62, 56
2, 33797, Note_on_c, 0, 58, 55
2, 33885, Note_on_c, 0, 63, 0
2, 34139, Note_on_c, 0, 53, 0
2, 34385, Note_on_c, 0, 62, 0
2, 34395, Note_on_c, 0, 60, 61
2, 35001, Note_on_c, 0, 56, 49
2, 35078, Note_on_c, 0, 58, 0
2, 35614, Note_on_c, 0, 63, 64
2, 35630, Note_on_c, 0, 58, 42
2, 35642, Note_on_c, 0, 55, 40
2, 35685, Note_on_c, 0, 56, 0
2, 35689, Note_on_c, 0, 60, 0
2, 36214, Note_on_c, 0, 68, 64
2, 36235, Note_on_c, 0, 60, 47
2, 36249, Note_on_c, 0, 58, 0
2, 36338, Note_on_c, 0, 63, 0
2, 36782, Note_on_c, 0, 60, 0
2, 36794, Note_on_c, 0, 62, 49
2, 36798, Note_on_c, 0, 55, 0
2, 36803, Note_on_c, 0, 53, 38
2, 36930, Control_c, 0, 64, 56
2, 36945, Control_c, 0, 64, 65
2, 36960, Control_c, 0, 64, 69
2, 36975, Control_c, 0, 64, 73
2, 36991, Control_c, 0, 64, 78
2, 37000, Note_on_c, 0, 62, 0
2, 37004, Note_on_c, 0, 53, 0
2, 37006, Control_c, 0, 64, 81
2, 37020, Control_c, 0, 64, 83
2, 37036, Control_c, 0, 64, 84
2, 37051, Control_c, 0, 64, 86
2, 37051, Note_on_c, 0, 68, 0
2, 37067, Control_c, 0, 64, 87
2, 37082, Control_c, 0, 64, 88
2, 37096, Control_c, 0, 64, 90
2, 37112, Control_c, 0, 64, 90
2, 37257, Control_c, 0, 64, 90
2, 37288, Control_c, 0, 64, 89
2, 37319, Control_c, 0, 64, 89
2, 37333, Control_c, 0, 64, 88
2, 37349, Control_c, 0, 64, 87
2, 37364, Control_c, 0, 64, 85
2, 37378, Control_c, 0, 64, 84
2, 37380, Note_on_c, 0, 70, 68
2, 37383, Note_on_c, 0, 67, 61
2, 37385, Note_on_c, 0, 63, 58
2, 37391, Note_on_c, 0, 51, 53
2, 37394, Control_c, 0, 64, 81
2, 37409, Control_c, 0, 64, 79
2, 37425, Control_c, 0, 64, 76
2, 37440, Control_c, 0, 64, 72
2, 37454, Control_c, 0, 64, 67
2, 37470, Control_c, 0, 64, 59
2, 37485, Control_c, 0, 64, 0
2, 37976, Note_on_c, 0, 61, 54
2, 37979, Note_on_c, 0, 75, 64
2, 38020, Note_on_c, 0, 67, 0
2, 38047, Note_on_c, 0, 63, 0
2, 38552, Note_on_c, 0, 70, 0
2, 38573, Note_on_c, 0, 65, 55
2, 38578, Note_on_c, 0, 56, 37
2, 38579, Note_on_c, 0, 60, 51
2, 38611, Note_on_c, 0, 51, 0
2, 38649, Note_on_c, 0, 61, 0
2, 39107, Note_on_c, 0, 58, 49
2, 39135, Note_on_c, 0, 74, 65
2, 39173, Control_c, 0, 64, 41
2, 39187, Note_on_c, 0, 60, 0
2, 39189, Control_c, 0, 64, 60
2, 39203, Control_c, 0, 64, 65
2, 39218, Control_c, 0, 64, 69
2, 39234, Control_c, 0, 64, 74
2, 39234, Note_on_c, 0, 75, 0
2, 39249, Control_c, 0, 64, 80
2, 39265, Control_c, 0, 64, 83
2, 39279, Control_c, 0, 64, 85
2, 39294, Control_c, 0, 64, 87
2, 39310, Control_c, 0, 64, 88
2, 39325, Control_c, 0, 64, 90
2, 39325, Note_on_c, 0, 65, 0
2, 39340, Control_c, 0, 64, 93
2, 39356, Control_c, 0, 64, 95
2, 39358, Note_on_c, 0, 58, 0
2, 39371, Control_c, 0, 64, 97
2, 39387, Control_c, 0, 64, 98
2, 39387, Note_on_c, 0, 56, 0
2, 39401, Control_c, 0, 64, 100
2, 39411, Note_on_c, 0, 74, 0
2, 39416, Control_c, 0, 64, 101
2, 39432, Control_c, 0, 64, 101
2, 39447, Control_c, 0, 64, 102
2, 39492, Control_c, 0, 64, 102
2, 39652, Control_c, 0, 64, 102
2, 39683, Control_c, 0, 64, 101
2, 39698, Control_c, 0, 64, 100
2, 39713, Note_on_c, 0, 55, 49
2, 39714, Control_c, 0, 64, 100
2, 39728, Control_c, 0, 64, 99
2, 39743, Note_on_c, 0, 67, 68
2, 39744, Control_c, 0, 64, 98
2, 39744, Note_on_c, 0, 75, 73
2, 39759, Control_c, 0, 64, 96
2, 39774, Control_c, 0, 64, 95
2, 39790, Control_c, 0, 64, 93
2, 39805, Control_c, 0, 64, 90
2, 39820, Control_c, 0, 64, 87
2, 39836, Control_c, 0, 64, 84
2, 39850, Control_c, 0, 64, 81
2, 39866, Control_c, 0, 64, 78
2, 39881, Control_c, 0, 64, 74
2, 39896, Control_c, 0, 64, 67
2, 39912, Control_c, 0, 64, 54
2, 39926, Control_c, 0, 64, 0
2, 40330, Note_on_c, 0, 63, 65
2, 40340, Note_on_c, 0, 60, 58
2, 40564, Note_on_c, 0, 55, 0
2, 40923, Note_on_c, 0, 80, 63
2, 40930, Note_on_c, 0, 72, 61
2, 40956, Note_on_c, 0, 75, 0
2, 40960, Note_on_c, 0, 67, 0
2, 41469, Note_on_c, 0, 72, 0
2, 41475, Note_on_c, 0, 60, 0
2, 41500, Note_on_c, 0, 70, 53
2, 41515, Note_on_c, 0, 65, 37
2, 41518, Note_on_c, 0, 62, 40
2, 41548, Note_on_c, 0, 63, 0
2, 42126, Note_on_c, 0, 63, 32
2, 42131, Note_on_c, 0, 79, 46
2, 42196, Note_on_c, 0, 62, 0
2, 42197, Note_on_c, 0, 80, 0
2, 42236, Note_on_c, 0, 65, 0
2, 42290, Control_c, 0, 64, 39
2, 42306, Control_c, 0, 64, 56
2, 42321, Control_c, 0, 64, 61
2, 42336, Control_c, 0, 64, 63
2, 42352, Control_c, 0, 64, 65
2, 42366, Control_c, 0, 64, 67
2, 42369, Note_on_c, 0, 70, 0
2, 42381, Control_c, 0, 64, 70
2, 42397, Control_c, 0, 64, 73
2, 42412, Control_c, 0, 64, 75
2, 42428, Control_c, 0, 64, 76
2, 42443, Control_c, 0, 64, 77
2, 42457, Control_c, 0, 64, 77
2, 42488, Control_c, 0, 64, 78
2, 42587, Control_c, 0, 64, 77
2, 42633, Control_c, 0, 64, 77
2, 42663, Control_c, 0, 64, 76
2, 42678, Control_c, 0, 64, 75
2, 42693, Control_c, 0, 64, 74
2, 42708, Control_c, 0, 64, 71
2, 42723, Control_c, 0, 64, 67
2, 42738, Control_c, 0, 64, 56
2, 42751, Note_on_c, 0, 72, 44
2, 42754, Control_c, 0, 64, 0
2, 42754, Note_on_c, 0, 56, 28
2, 42907, Control_c, 0, 64, 29
2, 42922, Control_c, 0, 64, 52
2, 42936, Control_c, 0, 64, 60
2, 42952, Control_c, 0, 64, 64
2, 42967, Control_c, 0, 64, 66
2, 42983, Control_c, 0, 64, 69
2, 42998, Control_c, 0, 64, 72
2, 43005, Note_on_c, 0, 79, 0
2, 43012, Control_c, 0, 64, 74
2, 43028, Control_c, 0, 64, 76
2, 43043, Control_c, 0, 64, 77
2, 43074, Control_c, 0, 64, 77
2, 43150, Control_c, 0, 64, 77
2, 43196, Control_c, 0, 64, 76
2, 43226, Control_c, 0, 64, 75
2, 43241, Control_c, 0, 64, 75
2, 43256, Control_c, 0, 64, 73
2, 43272, Control_c, 0, 64, 71
2, 43286, Control_c, 0, 64, 69
2, 43301, Control_c, 0, 64, 66
2, 43313, Note_on_c, 0, 77, 57
2, 43317, Control_c, 0, 64, 62
2, 43321, Note_on_c, 0, 68, 30
2, 43332, Control_c, 0, 64, 56
2, 43355, Control_c, 0, 64, 51
2, 43370, Control_c, 0, 64, 49
2, 43386, Control_c, 0, 64, 47
2, 43400, Control_c, 0, 64, 45
2, 43415, Control_c, 0, 64, 42
2, 43431, Control_c, 0, 64, 37
2, 43446, Control_c, 0, 64, 31
2, 43461, Control_c, 0, 64, 24
2, 43476, Control_c, 0, 64, 15
2, 43491, Control_c, 0, 64, 0
2, 43594, Note_on_c, 0, 75, 62
2, 43649, Note_on_c, 0, 77, 0
2, 43896, Note_on_c, 0, 74, 50
2, 43898, Note_on_c, 0, 58, 28
2, 43903, Note_on_c, 0, 70, 49
2, 43946, Note_on_c, 0, 56, 0
2, 43951, Note_on_c, 0, 72, 0
2, 43963, Note_on_c, 0, 75, 0
2, 44515, Note_on_c, 0, 75, 43
2, 44570, Note_on_c, 0, 74, 0
2, 44571, Note_on_c, 0, 67, 31
2, 44586, Note_on_c, 0, 68, 0
2, 44644, Note_on_c, 0, 63, 0
2, 45159, Note_on_c, 0, 65, 28
2, 45242, Note_on_c, 0, 67, 0
2, 45750, Note_on_c, 0, 74, 45
2, 45751, Control_c, 0, 64, 37
2, 45760, Note_on_c, 0, 75, 0
2, 45766, Control_c, 0, 64, 52
2, 45781, Control_c, 0, 64, 60
2, 45797, Control_c, 0, 64, 63
2, 45811, Control_c, 0, 64, 65
2, 45827, Control_c, 0, 64, 67
2, 45841, Control_c, 0, 64, 70
2, 45856, Control_c, 0, 64, 73
2, 45872, Control_c, 0, 64, 77
2, 45886, Control_c, 0, 64, 80
2, 45901, Control_c, 0, 64, 81
2, 45917, Control_c, 0, 64, 81
2, 45932, Control_c, 0, 64, 82
2, 45948, Control_c, 0, 64, 83
2, 45962, Control_c, 0, 64, 84
2, 45977, Control_c, 0, 64, 86
2, 45993, Control_c, 0, 64, 87
2, 46008, Control_c, 0, 64, 87
2, 46024, Control_c, 0, 64, 88
2, 46030, Note_on_c, 0, 68, 58
2, 46039, Control_c, 0, 64, 88
2, 46272, Note_on_c, 0, 68, 0
2, 46298, Control_c, 0, 64, 88
2, 46313, Control_c, 0, 64, 87
2, 46328, Control_c, 0, 64, 86
2, 46344, Control_c, 0, 64, 84
2, 46352, Note_on_c, 0, 67, 65
2, 46356, Note_on_c, 0, 60, 39
2, 46359, Control_c, 0, 64, 82
2, 46359, Note_on_c, 0, 76, 61
2, 46373, Control_c, 0, 64, 79
2, 46389, Control_c, 0, 64, 76
2, 46404, Control_c, 0, 64, 73
2, 46428, Control_c, 0, 64, 69
2, 46442, Control_c, 0, 64, 63
2, 46444, Note_on_c, 0, 70, 0
2, 46444, Note_on_c, 0, 74, 0
2, 46457, Control_c, 0, 64, 47
2, 46473, Control_c, 0, 64, 0
2, 46473, Note_on_c, 0, 65, 0
2, 46965, Note_on_c, 0, 77, 61
2, 46970, Note_on_c, 0, 58, 0
2, 46972, Note_on_c, 0, 72, 59
2, 46974, Note_on_c, 0, 56, 35
2, 47005, Note_on_c, 0, 76, 0
2, 47057, Note_on_c, 0, 67, 0
2, 47477, Note_on_c, 0, 56, 0
2, 47530, Note_on_c, 0, 62, 52
2, 47532, Note_on_c, 0, 71, 58
2, 47534, Note_on_c, 0, 55, 45
2, 47576, Note_on_c, 0, 72, 0
2, 47616, Note_on_c, 0, 60, 0
2, 48040, Note_on_c, 0, 62, 0
2, 48066, Note_on_c, 0, 60, 52
2, 48072, Note_on_c, 0, 63, 49
2, 48101, Note_on_c, 0, 75, 69
2, 48105, Note_on_c, 0, 72, 57
2, 48106, Note_on_c, 0, 55, 0
2, 48154, Note_on_c, 0, 77, 0
2, 48206, Note_on_c, 0, 71, 0
2, 48349, Note_on_c, 0, 72, 0
2, 48360, Note_on_c, 0, 70, 70
2, 48623, Note_on_c, 0, 65, 56
2, 48629, Note_on_c, 0, 74, 73
2, 48632, Note_on_c, 0, 63, 0
2, 48632, Note_on_c, 0, 68, 70
2, 48653, Note_on_c, 0, 70, 0
2, 48684, Note_on_c, 0, 75, 0
2, 48907, Note_on_c, 0, 65, 0
2, 48913, Note_on_c, 0, 63, 65
2, 49209, Note_on_c, 0, 70, 63
2, 49210, Note_on_c, 0, 79, 72
2, 49219, Note_on_c, 0, 58, 45
2, 49221, Note_on_c, 0, 62, 47
2, 49229, Note_on_c, 0, 74, 0
2, 49258, Note_on_c, 0, 68, 0
2, 49270, Note_on_c, 0, 60, 0
2, 49276, Note_on_c, 0, 63, 0
2, 49786, Note_on_c, 0, 58, 0
2, 49800, Note_on_c, 0, 68, 54
2, 49809, Note_on_c, 0, 60, 43
2, 49814, Note_on_c, 0, 63, 36
2, 49824, Note_on_c, 0, 70, 0
2, 49854, Note_on_c, 0, 62, 0
2, 50370, Note_on_c, 0, 79, 0
2, 50377, Note_on_c, 0, 60, 0
2, 50388, Note_on_c, 0, 62, 42
2, 50388, Note_on_c, 0, 65, 33
2, 50392, Note_on_c, 0, 77, 49
2, 50394, Note_on_c, 0, 63, 0
2, 50952, Note_on_c, 0, 62, 0
2, 50971, Note_on_c, 0, 58, 50
2, 50978, Note_on_c, 0, 65, 0
2, 50979, Note_on_c, 0, 55, 49
2, 51264, Control_c, 0, 64, 44
2, 51279, Control_c, 0, 64, 57
2, 51293, Control_c, 0, 64, 62
2, 51309, Control_c, 0, 64, 64
2, 51324, Control_c, 0, 64, 66
2, 51339, Control_c, 0, 64, 68
2, 51355, Control_c, 0, 64, 72
2, 51369, Control_c, 0, 64, 77
2, 51385, Control_c, 0, 64, 79
2, 51400, Control_c, 0, 64, 81
2, 51407, Note_on_c, 0, 68, 0
2, 51415, Control_c, 0, 64, 82
2, 51431, Control_c, 0, 64, 82
2, 51445, Control_c, 0, 64, 83
2, 51460, Control_c, 0, 64, 85
2, 51476, Control_c, 0, 64, 86
2, 51490, Control_c, 0, 64, 87
2, 51493, Note_on_c, 0, 58, 0
2, 51506, Control_c, 0, 64, 87
2, 51521, Control_c, 0, 64, 88
2, 51530, Note_on_c, 0, 75, 65
2, 51533, Note_on_c, 0, 67, 61
2, 51536, Control_c, 0, 64, 88
2, 51555, Note_on_c, 0, 77, 0
2, 51581, Control_c, 0, 64, 89
2, 51783, Note_on_c, 0, 55, 0
2, 51799, Note_on_c, 0, 56, 66
2, 51814, Note_on_c, 0, 67, 0
2, 51817, Control_c, 0, 64, 88
2, 51893, Control_c, 0, 64, 88
2, 51939, Control_c, 0, 64, 87
2, 51970, Control_c, 0, 64, 87
2, 51987, Control_c, 0, 64, 86
2, 52001, Control_c, 0, 64, 86
2, 52032, Control_c, 0, 64, 85
2, 52047, Control_c, 0, 64, 85
2, 52063, Control_c, 0, 64, 84
2, 52077, Control_c, 0, 64, 83
2, 52092, Control_c, 0, 64, 81
2, 52101, Note_on_c, 0, 56, 0
2, 52108, Control_c, 0, 64, 76
2, 52111, Note_on_c, 0, 58, 67
2, 52111, Note_on_c, 0, 65, 64
2, 52123, Control_c, 0, 64, 69
2, 52138, Control_c, 0, 64, 56
2, 52154, Control_c, 0, 64, 0
2, 52260, Control_c, 0, 64, 47
2, 52276, Control_c, 0, 64, 62
2, 52290, Control_c, 0, 64, 67
2, 52306, Control_c, 0, 64, 72
2, 52321, Control_c, 0, 64, 77
2, 52335, Control_c, 0, 64, 80
2, 52351, Control_c, 0, 64, 82
2, 52366, Control_c, 0, 64, 83
2, 52381, Control_c, 0, 64, 84
2, 52397, Control_c, 0, 64, 85
2, 52397, Note_on_c, 0, 65, 0
2, 52411, Control_c, 0, 64, 86
2, 52417, Note_on_c, 0, 75, 0
2, 52427, Control_c, 0, 64, 86
2, 52442, Control_c, 0, 64, 87
2, 52616, Control_c, 0, 64, 87
2, 52632, Control_c, 0, 64, 86
2, 52647, Control_c, 0, 64, 85
2, 52661, Control_c, 0, 64, 84
2, 52674, Note_on_c, 0, 46, 57
2, 52677, Control_c, 0, 64, 82
2, 52680, Note_on_c, 0, 74, 63
2, 52681, Note_on_c, 0, 67, 62
2, 52692, Control_c, 0, 64, 79
2, 52708, Control_c, 0, 64, 76
2, 52723, Control_c, 0, 64, 72
2, 52739, Control_c, 0, 64, 66
2, 52755, Control_c, 0, 64, 53
2, 52769, Control_c, 0, 64, 0
2, 52970, Note_on_c, 0, 68, 67
2, 52987, Note_on_c, 0, 67, 0
2, 53279, Note_on_c, 0, 51, 42
2, 53282, Note_on_c, 0, 67, 57
2, 53308, Note_on_c, 0, 68, 0
2, 53316, Note_on_c, 0, 46, 0
2, 53460, Control_c, 0, 64, 50
2, 53476, Control_c, 0, 64, 60
2, 53491, Control_c, 0, 64, 63
2, 53493, Note_on_c, 0, 74, 0
2, 53498, Note_on_c, 0, 58, 0
2, 53506, Control_c, 0, 64, 65
2, 53520, Control_c, 0, 64, 67
2, 53535, Control_c, 0, 64, 69
2, 53551, Control_c, 0, 64, 72
2, 53566, Control_c, 0, 64, 75
2, 53581, Control_c, 0, 64, 78
2, 53597, Control_c, 0, 64, 79
2, 53612, Control_c, 0, 64, 79
2, 53657, Control_c, 0, 64, 80
2, 53749, Control_c, 0, 64, 79
2, 53779, Control_c, 0, 64, 78
2, 53795, Control_c, 0, 64, 76
2, 53809, Control_c, 0, 64, 72
2, 53825, Control_c, 0, 64, 64
2, 53839, Note_on_c, 0, 72, 60
2, 53840, Control_c, 0, 64, 40
2, 53844, Note_on_c, 0, 63, 46
2, 53855, Control_c, 0, 64, 0
2, 53900, Control_c, 0, 64, 34
2, 53916, Control_c, 0, 64, 51
2, 53931, Control_c, 0, 64, 60
2, 53946, Control_c, 0, 64, 63
2, 53961, Control_c, 0, 64, 65
2, 53976, Control_c, 0, 64, 67
2, 53992, Control_c, 0, 64, 70
2, 54007, Control_c, 0, 64, 72
2, 54021, Control_c, 0, 64, 75
2, 54037, Control_c, 0, 64, 77
2, 54052, Control_c, 0, 64, 78
2, 54105, Note_on_c, 0, 63, 0
2, 54110, Note_on_c, 0, 72, 0
2, 54121, Control_c, 0, 64, 77
2, 54127, Note_on_c, 0, 70, 60
2, 54136, Control_c, 0, 64, 76
2, 54138, Note_on_c, 0, 62, 51
2, 54151, Control_c, 0, 64, 72
2, 54166, Control_c, 0, 64, 65
2, 54181, Control_c, 0, 64, 49
2, 54197, Control_c, 0, 64, 0
2, 54212, Control_c, 0, 64, 21
2, 54216, Note_on_c, 0, 67, 0
2, 54227, Control_c, 0, 64, 49
2, 54242, Control_c, 0, 64, 57
2, 54257, Control_c, 0, 64, 60
2, 54273, Control_c, 0, 64, 62
2, 54287, Control_c, 0, 64, 64
2, 54303, Control_c, 0, 64, 65
2, 54318, Control_c, 0, 64, 67
2, 54333, Control_c, 0, 64, 69
2, 54349, Control_c, 0, 64, 71
2, 54364, Control_c, 0, 64, 72
2, 54379, Control_c, 0, 64, 73
2, 54410, Control_c, 0, 64, 72
2, 54426, Control_c, 0, 64, 70
2, 54429, Note_on_c, 0, 69, 61
2, 54431, Note_on_c, 0, 60, 40
2, 54438, Note_on_c, 0, 65, 51
2, 54440, Note_on_c, 0, 70, 0
2, 54441, Control_c, 0, 64, 64
2, 54455, Control_c, 0, 64, 47
2, 54461, Note_on_c, 0, 62, 0
2, 54471, Control_c, 0, 64, 0
2, 54532, Control_c, 0, 64, 39
2, 54548, Control_c, 0, 64, 59
2, 54563, Control_c, 0, 64, 65
2, 54577, Control_c, 0, 64, 69
2, 54593, Control_c, 0, 64, 73
2, 54608, Control_c, 0, 64, 78
2, 54624, Control_c, 0, 64, 81
2, 54639, Control_c, 0, 64, 82
2, 54652, Note_on_c, 0, 51, 0
2, 54656, Note_on_c, 0, 60, 0
2, 54669, Control_c, 0, 64, 82
2, 54676, Note_on_c, 0, 69, 0
2, 54905, Control_c, 0, 64, 82
2, 54919, Control_c, 0, 64, 81
2, 54934, Control_c, 0, 64, 81
2, 54950, Control_c, 0, 64, 80
2, 54965, Control_c, 0, 64, 79
2, 54980, Control_c, 0, 64, 78
2, 54981, Note_on_c, 0, 50, 42
2, 54995, Control_c, 0, 64, 77
2, 54995, Note_on_c, 0, 62, 42
2, 54997, Note_on_c, 0, 70, 76
2, 55010, Control_c, 0, 64, 76
2, 55026, Control_c, 0, 64, 74
2, 55041, Control_c, 0, 64, 72
2, 55057, Control_c, 0, 64, 69
2, 55072, Control_c, 0, 64, 66
2, 55087, Control_c, 0, 64, 63
2, 55103, Control_c, 0, 64, 57
2, 55118, Control_c, 0, 64, 53
2, 55132, Control_c, 0, 64, 52
2, 55148, Control_c, 0, 64, 51
2, 55163, Control_c, 0, 64, 50
2, 55178, Control_c, 0, 64, 46
2, 55194, Control_c, 0, 64, 42
2, 55210, Control_c, 0, 64, 35
2, 55225, Control_c, 0, 64, 28
2, 55240, Control_c, 0, 64, 15
2, 55255, Control_c, 0, 64, 0
2, 55277, Note_on_c, 0, 62, 0
2, 55281, Note_on_c, 0, 60, 62
2, 55550, Note_on_c, 0, 50, 0
2, 55550, Note_on_c, 0, 55, 53
2, 55554, Note_on_c, 0, 60, 0
2, 55567, Note_on_c, 0, 58, 60
2, 55568, Note_on_c, 0, 65, 0
2, 55673, Control_c, 0, 64, 26
2, 55688, Control_c, 0, 64, 49
2, 55704, Control_c, 0, 64, 58
2, 55719, Control_c, 0, 64, 62
2, 55733, Control_c, 0, 64, 64
2, 55749, Control_c, 0, 64, 66
2, 55764, Control_c, 0, 64, 69
2, 55779, Control_c, 0, 64, 71
2, 55795, Control_c, 0, 64, 74
2, 55810, Control_c, 0, 64, 76
2, 55811, Note_on_c, 0, 70, 0
2, 55824, Note_on_c, 0, 58, 0
2, 55826, Control_c, 0, 64, 77
2, 55832, Note_on_c, 0, 57, 68
2, 55947, Control_c, 0, 64, 76
2, 55976, Control_c, 0, 64, 76
2, 55992, Control_c, 0, 64, 75
2, 56007, Control_c, 0, 64, 75
2, 56024, Control_c, 0, 64, 74
2, 56039, Control_c, 0, 64, 72
2, 56054, Control_c, 0, 64, 70
2, 56069, Control_c, 0, 64, 68
2, 56084, Control_c, 0, 64, 65
2, 56099, Control_c, 0, 64, 64
2, 56100, Note_on_c, 0, 58, 58
2, 56115, Control_c, 0, 64, 63
2, 56128, Note_on_c, 0, 57, 0
2, 56130, Control_c, 0, 64, 62
2, 56145, Control_c, 0, 64, 61
2, 56154, Note_on_c, 0, 75, 72
2, 56159, Note_on_c, 0, 63, 72
2, 56160, Control_c, 0, 64, 59
2, 56175, Control_c, 0, 64, 56
2, 56191, Control_c, 0, 64, 52
2, 56205, Control_c, 0, 64, 47
2, 56220, Control_c, 0, 64, 41
2, 56236, Control_c, 0, 64, 36
2, 56251, Control_c, 0, 64, 29
2, 56267, Control_c, 0, 64, 18
2, 56281, Control_c, 0, 64, 0
2, 56292, Note_on_c, 0, 74, 63
2, 56363, Note_on_c, 0, 75, 0
2, 56421, Note_on_c, 0, 72, 58
2, 56421, Note_on_c, 0, 74, 0
2, 56440, Note_on_c, 0, 55, 0
2, 56498, Note_on_c, 0, 72, 0
2, 56510, Note_on_c, 0, 75, 24
2, 56550, Note_on_c, 0, 70, 59
2, 56653, Note_on_c, 0, 70, 0
2, 56724, Note_on_c, 0, 69, 55
2, 56733, Note_on_c, 0, 60, 42
2, 56747, Note_on_c, 0, 53, 35
2, 56755, Note_on_c, 0, 58, 0
2, 57125, Note_on_c, 0, 63, 0
2, 57287, Note_on_c, 0, 75, 0
2, 57305, Note_on_c, 0, 74, 53
2, 57310, Note_on_c, 0, 70, 58
2, 57315, Note_on_c, 0, 60, 0
2, 57324, Note_on_c, 0, 62, 56
2, 57602, Note_on_c, 0, 63, 66
2, 57636, Note_on_c, 0, 62, 0
2, 57895, Note_on_c, 0, 74, 0
2, 57911, Note_on_c, 0, 72, 62
2, 57918, Note_on_c, 0, 65, 67
2, 57959, Note_on_c, 0, 69, 0
2, 57966, Note_on_c, 0, 63, 0
2, 57978, Note_on_c, 0, 70, 0
2, 58485, Note_on_c, 0, 68, 53
2, 58730, Note_on_c, 0, 65, 0
2, 58746, Note_on_c, 0, 63, 52
2, 58917, Note_on_c, 0, 72, 0
2, 58988, Note_on_c, 0, 53, 0
2, 59009, Note_on_c, 0, 70, 58
2, 59011, Note_on_c, 0, 63, 0
2, 59012, Note_on_c, 0, 55, 39
2, 59036, Note_on_c, 0, 62, 44
2, 59067, Note_on_c, 0, 68, 0
2, 59269, Note_on_c, 0, 62, 0
2, 59277, Control_c, 0, 64, 27
2, 59292, Control_c, 0, 64, 47
2, 59296, Note_on_c, 0, 58, 42
2, 59308, Control_c, 0, 64, 56
2, 59323, Control_c, 0, 64, 61
2, 59338, Control_c, 0, 64, 64
2, 59354, Control_c, 0, 64, 65
2, 59369, Control_c, 0, 64, 67
2, 59385, Control_c, 0, 64, 68
2, 59400, Control_c, 0, 64, 70
2, 59414, Control_c, 0, 64, 73
2, 59420, Note_on_c, 0, 58, 0
2, 59430, Control_c, 0, 64, 74
2, 59445, Control_c, 0, 64, 75
2, 59500, Note_on_c, 0, 55, 0
2, 59562, Note_on_c, 0, 67, 52
2, 59563, Note_on_c, 0, 63, 48
2, 59589, Control_c, 0, 64, 75
2, 59619, Control_c, 0, 64, 74
2, 59635, Control_c, 0, 64, 73
2, 59650, Control_c, 0, 64, 72
2, 59666, Control_c, 0, 64, 71
2, 59681, Control_c, 0, 64, 67
2, 59696, Control_c, 0, 64, 64
2, 59699, Note_on_c, 0, 53, 52
2, 59711, Control_c, 0, 64, 58
2, 59726, Control_c, 0, 64, 49
2, 59741, Control_c, 0, 64, 44
2, 59757, Control_c, 0, 64, 43
2, 59772, Control_c, 0, 64, 43
2, 59787, Control_c, 0, 64, 42
2, 59789, Note_on_c, 0, 53, 0
2, 59802, Control_c, 0, 64, 40
2, 59817, Control_c, 0, 64, 37
2, 59832, Control_c, 0, 64, 34
2, 59841, Note_on_c, 0, 51, 47
2, 59847, Control_c, 0, 64, 31
2, 59863, Control_c, 0, 64, 29
2, 59893, Control_c, 0, 64, 29
2, 59923, Control_c, 0, 64, 27
2, 59938, Control_c, 0, 64, 24
2, 59953, Note_on_c, 0, 51, 0
2, 59954, Control_c, 0, 64, 18
2, 59969, Control_c, 0, 64, 0
2, 60005, Note_on_c, 0, 50, 45
2, 60119, Note_on_c, 0, 67, 0
2, 60169, Note_on_c, 0, 68, 55
2, 60172, Note_on_c, 0, 50, 0
2, 60178, Note_on_c, 0, 48, 46
2, 60204, Note_on_c, 0, 70, 0
2, 60714, Note_on_c, 0, 50, 46
2, 60723, Note_on_c, 0, 65, 54
2, 60734, Note_on_c, 0, 58, 50
2, 60748, Note_on_c, 0, 68, 0
2, 60767, Note_on_c, 0, 48, 0
2, 61292, Note_on_c, 0, 50, 0
2, 61299, Note_on_c, 0, 51, 46
2, 61303, Note_on_c, 0, 67, 57
2, 61346, Note_on_c, 0, 65, 0
2, 61785, Note_on_c, 0, 63, 0
2, 61916, Note_on_c, 0, 63, 53
2, 62055, Note_on_c, 0, 51, 0
2, 62067, Note_on_c, 0, 49, 45
2, 62180, Note_on_c, 0, 49, 0
2, 62211, Note_on_c, 0, 61, 55
2, 62217, Note_on_c, 0, 48, 41
2, 62233, Note_on_c, 0, 67, 0
2, 62258, Control_c, 0, 64, 46
2, 62274, Control_c, 0, 64, 56
2, 62288, Control_c, 0, 64, 60
2, 62304, Control_c, 0, 64, 62
2, 62319, Control_c, 0, 64, 64
2, 62334, Control_c, 0, 64, 65
2, 62350, Control_c, 0, 64, 66
2, 62355, Note_on_c, 0, 46, 54
2, 62364, Control_c, 0, 64, 67
2, 62371, Note_on_c, 0, 48, 0
2, 62379, Control_c, 0, 64, 68
2, 62395, Control_c, 0, 64, 68
2, 62399, Note_on_c, 0, 46, 0
2, 62447, Note_on_c, 0, 61, 0
2, 62455, Control_c, 0, 64, 68
2, 62471, Control_c, 0, 64, 67
2, 62486, Control_c, 0, 64, 66
2, 62500, Control_c, 0, 64, 64
2, 62516, Control_c, 0, 64, 61
2, 62528, Note_on_c, 0, 63, 0
2, 62531, Control_c, 0, 64, 55
2, 62533, Note_on_c, 0, 44, 47
2, 62533, Note_on_c, 0, 60, 59
2, 62555, Control_c, 0, 64, 48
2, 62570, Control_c, 0, 64, 40
2, 62586, Control_c, 0, 64, 33
2, 62601, Control_c, 0, 64, 23
2, 62615, Control_c, 0, 64, 0
2, 63091, Note_on_c, 0, 56, 45
2, 63103, Note_on_c, 0, 65, 55
2, 63377, Note_on_c, 0, 56, 0
2, 63393, Note_on_c, 0, 65, 0
2, 63399, Note_on_c, 0, 63, 56
2, 63419, Note_on_c, 0, 55, 46
2, 63655, Note_on_c, 0, 63, 0
2, 63724, Note_on_c, 0, 53, 31
2, 63728, Note_on_c, 0, 62, 48
2, 63738, Note_on_c, 0, 46, 44
2, 63799, Note_on_c, 0, 55, 0
2, 63844, Note_on_c, 0, 44, 0
2, 63967, Note_on_c, 0, 58, 0
2, 64316, Note_on_c, 0, 58, 61
2, 64319, Note_on_c, 0, 60, 0
2, 64334, Note_on_c, 0, 55, 41
2, 64364, Note_on_c, 0, 53, 0
2, 64594, Note_on_c, 0, 53, 44
2, 64637, Note_on_c, 0, 55, 0
2, 64892, Note_on_c, 0, 46, 0
2, 64898, Note_on_c, 0, 51, 39
2, 64916, Note_on_c, 0, 63, 51
2, 64924, Note_on_c, 0, 48, 38
2, 64956, Note_on_c, 0, 62, 0
2, 64961, Note_on_c, 0, 53, 0
2, 65508, Note_on_c, 0, 58, 0
2, 65534, Note_on_c, 0, 57, 58
2, 65793, Note_on_c, 0, 51, 0
2, 65810, Note_on_c, 0, 53, 48
2, 66094, Note_on_c, 0, 53, 0
2, 66129, Note_on_c, 0, 58, 52
2, 66131, Note_on_c, 0, 55, 42
2, 66145, Note_on_c, 0, 46, 38
2, 66164, Note_on_c, 0, 48, 0
2, 66219, Note_on_c, 0, 57, 0
2, 66715, Note_on_c, 0, 62, 53
2, 66722, Note_on_c, 0, 53, 45
2, 66736, Note_on_c, 0, 55, 0
2, 66772, Note_on_c, 0, 58, 0
2, 66795, Note_on_c, 0, 63, 0
2, 67001, Note_on_c, 0, 60, 49
2, 67012, Note_on_c, 0, 53, 0
2, 67012, Note_on_c, 0, 62, 0
2, 67015, Note_on_c, 0, 51, 45
2, 67276, Note_on_c, 0, 60, 0
2, 67330, Note_on_c, 0, 51, 0
2, 67332, Note_on_c, 0, 62, 47
2, 67346, Note_on_c, 0, 53, 35
2, 67549, Note_on_c, 0, 70, 50
2, 67667, Note_on_c, 0, 70, 0
2, 67688, Note_on_c, 0, 72, 58
2, 67808, Note_on_c, 0, 72, 0
2, 67818, Note_on_c, 0, 74, 57
2, 67957, Note_on_c, 0, 51, 61
2, 67961, Note_on_c, 0, 72, 59
2, 67969, Note_on_c, 0, 74, 0
2, 67981, Note_on_c, 0, 62, 0
2, 68040, Note_on_c, 0, 53, 0
2, 68100, Note_on_c, 0, 72, 0
2, 68112, Note_on_c, 0, 70, 61
2, 68148, Note_on_c, 0, 46, 0
2, 68236, Note_on_c, 0, 70, 0
2, 68251, Note_on_c, 0, 69, 62
2, 68342, Note_on_c, 0, 69, 0
2, 68388, Note_on_c, 0, 67, 64
2, 68496, Note_on_c, 0, 67, 0
2, 68549, Note_on_c, 0, 65, 67
2, 68791, Note_on_c, 0, 65, 0
2, 68836, Note_on_c, 0, 67, 64
2, 68957, Note_on_c, 0, 67, 0
2, 68960, Note_on_c, 0, 69, 65
2, 69066, Note_on_c, 0, 69, 0
2, 69107, Note_on_c, 0, 70, 63
2, 69116, Note_on_c, 0, 50, 63
2, 69125, Note_on_c, 0, 51, 0
2, 69244, Note_on_c, 0, 69, 60
2, 69244, Note_on_c, 0, 70, 0
2, 69334, Note_on_c, 0, 69, 0
2, 69389, Note_on_c, 0, 67, 62
2, 69528, Note_on_c, 0, 65, 64
2, 69537, Note_on_c, 0, 67, 0
2, 69669, Note_on_c, 0, 63, 66
2, 69671, Note_on_c, 0, 65, 0
2, 69678, Note_on_c, 0, 55, 64
2, 69718, Note_on_c, 0, 50, 0
2, 69811, Note_on_c, 0, 62, 55
2, 69811, Note_on_c, 0, 63, 0
2, 69906, Note_on_c, 0, 62, 0
2, 69968, Note_on_c, 0, 60, 61
2, 70057, Note_on_c, 0, 60, 0
2, 70105, Note_on_c, 0, 58, 63
2, 70270, Note_on_c, 0, 58, 0
2, 70281, Note_on_c, 0, 63, 73
2, 70340, Control_c, 0, 64, 50
2, 70356, Control_c, 0, 64, 60
2, 70371, Control_c, 0, 64, 64
2, 70386, Control_c, 0, 64, 65
2, 70401, Control_c, 0, 64, 68
2, 70416, Control_c, 0, 64, 73
2, 70431, Control_c, 0, 64, 77
2, 70446, Control_c, 0, 64, 80
2, 70457, Note_on_c, 0, 63, 0
2, 70461, Control_c, 0, 64, 82
2, 70477, Control_c, 0, 64, 83
2, 70492, Control_c, 0, 64, 84
2, 70507, Control_c, 0, 64, 85
2, 70522, Control_c, 0, 64, 86
2, 70537, Control_c, 0, 64, 88
2, 70553, Control_c, 0, 64, 88
2, 70568, Control_c, 0, 64, 89
2, 70572, Note_on_c, 0, 63, 74
2, 70584, Control_c, 0, 64, 89
2, 70613, Control_c, 0, 64, 90
2, 70661, Note_on_c, 0, 63, 0
2, 70690, Control_c, 0, 64, 90
2, 70797, Control_c, 0, 64, 90
2, 70828, Control_c, 0, 64, 89
2, 70843, Control_c, 0, 64, 88
2, 70857, Control_c, 0, 64, 87
2, 70873, Control_c, 0, 64, 84
2, 70877, Note_on_c, 0, 63, 76
2, 70882, Note_on_c, 0, 53, 58
2, 70888, Control_c, 0, 64, 81
2, 70904, Control_c, 0, 64, 75
2, 70919, Control_c, 0, 64, 70
2, 70933, Control_c, 0, 64, 63
2, 70949, Control_c, 0, 64, 34
2, 70958, Note_on_c, 0, 55, 0
2, 70964, Control_c, 0, 64, 0
2, 71030, Note_on_c, 0, 68, 59
2, 71167, Note_on_c, 0, 68, 0
2, 71182, Note_on_c, 0, 70, 61
2, 71332, Note_on_c, 0, 72, 62
2, 71342, Note_on_c, 0, 70, 0
2, 71472, Note_on_c, 0, 70, 64
2, 71472, Note_on_c, 0, 72, 0
2, 71477, Note_on_c, 0, 62, 71
2, 71579, Control_c, 0, 64, 29
2, 71579, Note_on_c, 0, 63, 0
2, 71595, Control_c, 0, 64, 55
2, 71610, Control_c, 0, 64, 62
2, 71626, Control_c, 0, 64, 65
2, 71626, Note_on_c, 0, 68, 70
2, 71641, Control_c, 0, 64, 68
2, 71654, Note_on_c, 0, 70, 0
2, 71655, Control_c, 0, 64, 71
2, 71671, Control_c, 0, 64, 75
2, 71686, Control_c, 0, 64, 79
2, 71700, Control_c, 0, 64, 81
2, 71716, Control_c, 0, 64, 82
2, 71744, Note_on_c, 0, 62, 0
2, 71747, Control_c, 0, 64, 82
2, 71769, Control_c, 0, 64, 83
2, 71775, Note_on_c, 0, 68, 0
2, 71777, Note_on_c, 0, 67, 78
2, 71785, Control_c, 0, 64, 84
2, 71796, Note_on_c, 0, 53, 0
2, 71800, Control_c, 0, 64, 84
2, 71815, Control_c, 0, 64, 85
2, 71846, Note_on_c, 0, 67, 0
2, 71925, Note_on_c, 0, 65, 58
2, 71934, Note_on_c, 0, 67, 72
2, 71980, Note_on_c, 0, 65, 0
2, 71982, Note_on_c, 0, 67, 0
2, 71984, Control_c, 0, 64, 84
2, 72029, Control_c, 0, 64, 84
2, 72044, Control_c, 0, 64, 83
2, 72059, Control_c, 0, 64, 82
2, 72072, Note_on_c, 0, 51, 70
2, 72074, Control_c, 0, 64, 80
2, 72074, Note_on_c, 0, 67, 82
2, 72077, Note_on_c, 0, 63, 69
2, 72089, Control_c, 0, 64, 76
2, 72105, Control_c, 0, 64, 72
2, 72119, Control_c, 0, 64, 65
2, 72134, Control_c, 0, 64, 50
2, 72150, Control_c, 0, 64, 0
2, 72222, Note_on_c, 0, 75, 81
2, 72349, Note_on_c, 0, 75, 0
2, 72360, Note_on_c, 0, 77, 82
2, 72487, Note_on_c, 0, 79, 85
2, 72512, Note_on_c, 0, 77, 0
2, 72647, Note_on_c, 0, 56, 77
2, 72647, Note_on_c, 0, 63, 0
2, 72657, Note_on_c, 0, 77, 78
2, 72679, Note_on_c, 0, 51, 0
2, 72679, Note_on_c, 0, 79, 0
2, 72790, Note_on_c, 0, 67, 0
2, 72800, Note_on_c, 0, 75, 75
2, 72850, Note_on_c, 0, 77, 0
2, 72926, Note_on_c, 0, 53, 69
2, 72934, Note_on_c, 0, 75, 0
2, 72940, Note_on_c, 0, 74, 77
2, 73005, Note_on_c, 0, 53, 0
2, 73016, Note_on_c, 0, 74, 0
2, 73069, Note_on_c, 0, 72, 83
2, 73225, Note_on_c, 0, 55, 71
2, 73225, Note_on_c, 0, 70, 80
2, 73225, Note_on_c, 0, 72, 0
2, 73492, Note_on_c, 0, 55, 0
2, 73494, Note_on_c, 0, 70, 0
2, 73503, Note_on_c, 0, 53, 65
2, 73523, Note_on_c, 0, 72, 74
2, 73645, Note_on_c, 0, 72, 0
2, 73649, Note_on_c, 0, 74, 70
2, 73773, Note_on_c, 0, 53, 0
2, 73776, Note_on_c, 0, 56, 0
2, 73782, Note_on_c, 0, 55, 65
2, 73783, Note_on_c, 0, 74, 0
2, 73789, Note_on_c, 0, 51, 59
2, 73799, Note_on_c, 0, 75, 72
2, 73882, Note_on_c, 0, 75, 0
2, 73917, Note_on_c, 0, 74, 64
2, 73989, Note_on_c, 0, 74, 0
2, 74049, Note_on_c, 0, 72, 61
2, 74051, Note_on_c, 0, 51, 0
2, 74053, Note_on_c, 0, 50, 56
2, 74086, Control_c, 0, 64, 58
2, 74101, Control_c, 0, 64, 65
2, 74116, Control_c, 0, 64, 69
2, 74124, Note_on_c, 0, 72, 0
2, 74131, Control_c, 0, 64, 73
2, 74146, Control_c, 0, 64, 78
2, 74162, Control_c, 0, 64, 80
2, 74177, Control_c, 0, 64, 81
2, 74186, Note_on_c, 0, 70, 71
2, 74187, Note_on_c, 0, 50, 0
2, 74208, Control_c, 0, 64, 82
2, 74229, Note_on_c, 0, 70, 0
2, 74314, Control_c, 0, 64, 81
2, 74329, Control_c, 0, 64, 79
2, 74335, Note_on_c, 0, 55, 0
2, 74344, Control_c, 0, 64, 76
2, 74348, Note_on_c, 0, 60, 71
2, 74348, Note_on_c, 0, 68, 77
2, 74351, Note_on_c, 0, 48, 62
2, 74360, Control_c, 0, 64, 72
2, 74374, Control_c, 0, 64, 66
2, 74389, Control_c, 0, 64, 56
2, 74405, Control_c, 0, 64, 0
2, 74497, Note_on_c, 0, 67, 66
2, 74501, Note_on_c, 0, 51, 59
2, 74508, Note_on_c, 0, 48, 0
2, 74545, Note_on_c, 0, 68, 0
2, 74575, Note_on_c, 0, 67, 0
2, 74614, Note_on_c, 0, 51, 0
2, 74632, Note_on_c, 0, 65, 69
2, 74635, Note_on_c, 0, 53, 66
2, 74728, Note_on_c, 0, 53, 0
2, 74730, Note_on_c, 0, 65, 0
2, 74756, Note_on_c, 0, 60, 0
2, 74768, Note_on_c, 0, 63, 71
2, 74771, Note_on_c, 0, 55, 64
2, 74864, Note_on_c, 0, 63, 0
2, 74891, Note_on_c, 0, 55, 0
2, 74924, Note_on_c, 0, 68, 83
2, 74932, Note_on_c, 0, 53, 62
2, 75053, Note_on_c, 0, 53, 0
2, 75067, Control_c, 0, 64, 35
2, 75067, Note_on_c, 0, 51, 63
2, 75083, Control_c, 0, 64, 47
2, 75097, Control_c, 0, 64, 53
2, 75112, Control_c, 0, 64, 56
2, 75128, Control_c, 0, 64, 58
2, 75130, Note_on_c, 0, 68, 0
2, 75142, Control_c, 0, 64, 60
2, 75158, Control_c, 0, 64, 62
2, 75171, Note_on_c, 0, 51, 0
2, 75173, Control_c, 0, 64, 64
2, 75188, Control_c, 0, 64, 65
2, 75204, Control_c, 0, 64, 65
2, 75210, Note_on_c, 0, 68, 82
2, 75212, Note_on_c, 0, 50, 62
2, 75294, Control_c, 0, 64, 66
2, 75329, Note_on_c, 0, 50, 0
2, 75351, Note_on_c, 0, 48, 58
2, 75401, Control_c, 0, 64, 65
2, 75430, Control_c, 0, 64, 65
2, 75438, Note_on_c, 0, 68, 0
2, 75446, Control_c, 0, 64, 64
2, 75461, Control_c, 0, 64, 62
2, 75476, Control_c, 0, 64, 59
2, 75483, Note_on_c, 0, 48, 0
2, 75487, Note_on_c, 0, 58, 54
2, 75492, Control_c, 0, 64, 53
2, 75500, Note_on_c, 0, 68, 81
2, 75507, Control_c, 0, 64, 40
2, 75514, Note_on_c, 0, 51, 50
2, 75523, Control_c, 0, 64, 24
2, 75538, Control_c, 0, 64, 0
2, 75627, Note_on_c, 0, 51, 0
2, 75653, Note_on_c, 0, 50, 52
2, 75776, Note_on_c, 0, 50, 0
2, 75808, Note_on_c, 0, 48, 52
2, 75923, Note_on_c, 0, 48, 0
2, 75949, Note_on_c, 0, 46, 50
2, 76082, Note_on_c, 0, 68, 0
2, 76113, Note_on_c, 0, 58, 0
2, 76116, Note_on_c, 0, 67, 64
2, 76122, Note_on_c, 0, 46, 0
2, 76124, Note_on_c, 0, 51, 49
2, 76250, Note_on_c, 0, 62, 62
2, 76372, Note_on_c, 0, 62, 0
2, 76373, Note_on_c, 0, 51, 0
2, 76411, Note_on_c, 0, 50, 50
2, 76413, Note_on_c, 0, 63, 66
2, 76535, Note_on_c, 0, 63, 0
2, 76562, Note_on_c, 0, 65, 68
2, 76645, Note_on_c, 0, 50, 0
2, 76702, Note_on_c, 0, 65, 0
2, 76708, Note_on_c, 0, 48, 67
2, 76708, Note_on_c, 0, 63, 72
2, 76813, Note_on_c, 0, 63, 0
2, 76859, Note_on_c, 0, 62, 67
2, 76973, Note_on_c, 0, 62, 0
2, 77013, Note_on_c, 0, 60, 65
2, 77041, Note_on_c, 0, 67, 0
2, 77123, Note_on_c, 0, 60, 0
2, 77161, Note_on_c, 0, 58, 69
2, 77225, Note_on_c, 0, 58, 0
2, 77286, Note_on_c, 0, 69, 73
2, 77287, Note_on_c, 0, 63, 70
2, 77296, Note_on_c, 0, 48, 0
2, 77424, Note_on_c, 0, 48, 65
2, 77518, Note_on_c, 0, 63, 0
2, 77545, Note_on_c, 0, 48, 0
2, 77561, Note_on_c, 0, 60, 71
2, 77572, Note_on_c, 0, 50, 67
2, 77671, Note_on_c, 0, 69, 0
2, 77688, Note_on_c, 0, 50, 0
2, 77697, Note_on_c, 0, 51, 68
2, 77812, Note_on_c, 0, 60, 0
2, 77821, Note_on_c, 0, 51, 0
2, 77850, Note_on_c, 0, 50, 63
2, 77852, Note_on_c, 0, 70, 76
2, 77855, Note_on_c, 0, 65, 76
2, 77995, Note_on_c, 0, 50, 0
2, 78009, Note_on_c, 0, 48, 64
2, 78130, Note_on_c, 0, 48, 0
2, 78151, Note_on_c, 0, 72, 77
2, 78154, Note_on_c, 0, 46, 71
2, 78240, Note_on_c, 0, 70, 0
2, 78254, Note_on_c, 0, 46, 0
2, 78290, Note_on_c, 0, 45, 71
2, 78447, Note_on_c, 0, 46, 71
2, 78460, Note_on_c, 0, 45, 0
2, 78463, Note_on_c, 0, 65, 0
2, 78463, Note_on_c, 0, 74, 78
2, 78492, Note_on_c, 0, 72, 0
2, 78602, Note_on_c, 0, 65, 77
2, 78710, Note_on_c, 0, 46, 0
2, 78751, Note_on_c, 0, 58, 80
2, 78761, Note_on_c, 0, 67, 81
2, 78795, Note_on_c, 0, 65, 0
2, 78893, Note_on_c, 0, 68, 86
2, 78918, Note_on_c, 0, 67, 0
2, 78982, Note_on_c, 0, 58, 0
2, 79035, Note_on_c, 0, 58, 73
2, 79045, Note_on_c, 0, 51, 65
2, 79051, Note_on_c, 0, 67, 79
2, 79085, Note_on_c, 0, 68, 0
2, 79171, Note_on_c, 0, 67, 0
2, 79195, Note_on_c, 0, 65, 76
2, 79337, Note_on_c, 0, 63, 72
2, 79344, Note_on_c, 0, 65, 0
2, 79368, Note_on_c, 0, 74, 0
2, 79475, Note_on_c, 0, 63, 0
2, 79482, Note_on_c, 0, 62, 74
2, 79656, Note_on_c, 0, 63, 68
2, 79662, Note_on_c, 0, 67, 65
2, 79665, Note_on_c, 0, 62, 0
2, 79821, Note_on_c, 0, 67, 0
2, 79821, Note_on_c, 0, 74, 61
2, 79935, Note_on_c, 0, 74, 0
2, 79950, Note_on_c, 0, 72, 67
2, 80071, Note_on_c, 0, 51, 0
2, 80090, Note_on_c, 0, 70, 76
2, 80107, Note_on_c, 0, 72, 0
2, 80122, Note_on_c, 0, 58, 0
2, 80232, Note_on_c, 0, 70, 0
2, 80256, Note_on_c, 0, 65, 73
2, 80256, Note_on_c, 0, 69, 74
2, 80416, Note_on_c, 0, 53, 65
2, 80484, Note_on_c, 0, 63, 0
2, 80534, Note_on_c, 0, 53, 0
2, 80547, Note_on_c, 0, 55, 64
2, 80549, Note_on_c, 0, 70, 76
2, 80581, Note_on_c, 0, 69, 0
2, 80685, Note_on_c, 0, 57, 71
2, 80689, Note_on_c, 0, 55, 0
2, 80701, Note_on_c, 0, 72, 80
2, 80704, Note_on_c, 0, 70, 0
2, 80851, Note_on_c, 0, 74, 85
2, 80857, Note_on_c, 0, 58, 63
2, 80857, Note_on_c, 0, 62, 60
2, 80862, Note_on_c, 0, 57, 0
2, 80869, Note_on_c, 0, 72, 0
2, 80900, Control_c, 0, 64, 20
2, 80916, Control_c, 0, 64, 44
2, 80931, Control_c, 0, 64, 53
2, 80946, Control_c, 0, 64, 57
2, 80962, Control_c, 0, 64, 61
2, 80984, Control_c, 0, 64, 63
2, 81000, Control_c, 0, 64, 65
2, 81001, Note_on_c, 0, 62, 0
2, 81015, Control_c, 0, 64, 67
2, 81016, Note_on_c, 0, 57, 67
2, 81031, Control_c, 0, 64, 71
2, 81041, Note_on_c, 0, 58, 0
2, 81046, Control_c, 0, 64, 74
2, 81060, Control_c, 0, 64, 77
2, 81076, Control_c, 0, 64, 79
2, 81091, Control_c, 0, 64, 80
2, 81105, Control_c, 0, 64, 80
2, 81145, Note_on_c, 0, 57, 0
2, 81159, Note_on_c, 0, 55, 69
2, 81241, Note_on_c, 0, 55, 0
2, 81298, Note_on_c, 0, 53, 71
2, 81379, Control_c, 0, 64, 80
2, 81395, Control_c, 0, 64, 79
2, 81410, Control_c, 0, 64, 79
2, 81425, Control_c, 0, 64, 78
2, 81441, Control_c, 0, 64, 75
2, 81453, Note_on_c, 0, 67, 84
2, 81456, Control_c, 0, 64, 69
2, 81459, Note_on_c, 0, 53, 0
2, 81462, Note_on_c, 0, 65, 0
2, 81464, Note_on_c, 0, 51, 69
2, 81472, Control_c, 0, 64, 58
2, 81487, Control_c, 0, 64, 0
2, 81624, Note_on_c, 0, 50, 69
2, 81625, Note_on_c, 0, 51, 0
2, 81758, Note_on_c, 0, 50, 0
2, 81781, Note_on_c, 0, 48, 67
2, 81916, Note_on_c, 0, 48, 0
2, 81925, Note_on_c, 0, 46, 69
2, 81980, Control_c, 0, 64, 23
2, 81996, Control_c, 0, 64, 43
2, 82000, Note_on_c, 0, 67, 0
2, 82011, Control_c, 0, 64, 52
2, 82025, Control_c, 0, 64, 58
2, 82028, Note_on_c, 0, 74, 0
2, 82041, Control_c, 0, 64, 62
2, 82056, Control_c, 0, 64, 64
2, 82072, Control_c, 0, 64, 66
2, 82072, Note_on_c, 0, 51, 64
2, 82079, Note_on_c, 0, 63, 69
2, 82086, Control_c, 0, 64, 69
2, 82101, Control_c, 0, 64, 71
2, 82106, Note_on_c, 0, 46, 0
2, 82117, Control_c, 0, 64, 73
2, 82132, Control_c, 0, 64, 76
2, 82146, Note_on_c, 0, 51, 0
2, 82147, Control_c, 0, 64, 77
2, 82151, Note_on_c, 0, 63, 0
2, 82162, Control_c, 0, 64, 77
2, 82212, Note_on_c, 0, 72, 77
2, 82299, Control_c, 0, 64, 76
2, 82315, Control_c, 0, 64, 73
2, 82330, Control_c, 0, 64, 67
2, 82345, Control_c, 0, 64, 48
2, 82361, Control_c, 0, 64, 0
2, 82367, Note_on_c, 0, 62, 83
2, 82370, Note_on_c, 0, 51, 74
2, 82370, Note_on_c, 0, 74, 81
2, 82407, Note_on_c, 0, 72, 0
2, 82453, Control_c, 0, 64, 56
2, 82467, Control_c, 0, 64, 64
2, 82483, Control_c, 0, 64, 67
2, 82498, Control_c, 0, 64, 70
2, 82517, Note_on_c, 0, 75, 84
2, 82520, Control_c, 0, 64, 74
2, 82520, Note_on_c, 0, 51, 0
2, 82522, Note_on_c, 0, 62, 0
2, 82535, Control_c, 0, 64, 77
2, 82539, Note_on_c, 0, 74, 0
2, 82551, Control_c, 0, 64, 79
2, 82566, Control_c, 0, 64, 80
2, 82581, Control_c, 0, 64, 81
2, 82642, Control_c, 0, 64, 80
2, 82657, Control_c, 0, 64, 79
2, 82671, Note_on_c, 0, 77, 92
2, 82673, Control_c, 0, 64, 77
2, 82679, Note_on_c, 0, 60, 80
2, 82681, Note_on_c, 0, 51, 72
2, 82688, Control_c, 0, 64, 72
2, 82703, Control_c, 0, 64, 65
2, 82712, Note_on_c, 0, 75, 0
2, 82718, Control_c, 0, 64, 38
2, 82733, Control_c, 0, 64, 0
2, 82831, Note_on_c, 0, 69, 76
2, 82983, Note_on_c, 0, 70, 79
2, 83009, Note_on_c, 0, 69, 0
2, 83145, Note_on_c, 0, 72, 78
2, 83167, Note_on_c, 0, 70, 0
2, 83221, Note_on_c, 0, 60, 0
2, 83244, Note_on_c, 0, 51, 0
2, 83295, Note_on_c, 0, 70, 81
2, 83303, Note_on_c, 0, 50, 61
2, 83308, Note_on_c, 0, 62, 65
2, 83325, Note_on_c, 0, 72, 0
2, 83334, Control_c, 0, 64, 20
2, 83349, Control_c, 0, 64, 61
2, 83364, Control_c, 0, 64, 67
2, 83379, Control_c, 0, 64, 72
2, 83379, Note_on_c, 0, 77, 0
2, 83395, Control_c, 0, 64, 78
2, 83410, Control_c, 0, 64, 81
2, 83425, Control_c, 0, 64, 84
2, 83440, Control_c, 0, 64, 85
2, 83442, Note_on_c, 0, 70, 0
2, 83446, Note_on_c, 0, 69, 82
2, 83455, Control_c, 0, 64, 87
2, 83471, Control_c, 0, 64, 89
2, 83486, Control_c, 0, 64, 91
2, 83501, Control_c, 0, 64, 93
2, 83503, Note_on_c, 0, 50, 0
2, 83517, Control_c, 0, 64, 95
2, 83532, Control_c, 0, 64, 96
2, 83540, Note_on_c, 0, 69, 0
2, 83547, Control_c, 0, 64, 98
2, 83562, Control_c, 0, 64, 99
2, 83577, Control_c, 0, 64, 101
2, 83586, Note_on_c, 0, 67, 84
2, 83593, Control_c, 0, 64, 102
2, 83608, Control_c, 0, 64, 103
2, 83623, Control_c, 0, 64, 105
2, 83638, Control_c, 0, 64, 106
2, 83653, Control_c, 0, 64, 106
2, 83668, Control_c, 0, 64, 107
2, 83679, Note_on_c, 0, 67, 0
2, 83698, Control_c, 0, 64, 107
2, 83731, Note_on_c, 0, 65, 86
2, 83782, Note_on_c, 0, 65, 0
2, 83876, Note_on_c, 0, 55, 73
2, 83920, Note_on_c, 0, 62, 0
2, 83928, Control_c, 0, 64, 106
2, 83938, Note_on_c, 0, 70, 95
2, 83942, Control_c, 0, 64, 104
2, 83958, Control_c, 0, 64, 102
2, 83973, Control_c, 0, 64, 98
2, 83988, Control_c, 0, 64, 94
2, 84003, Control_c, 0, 64, 89
2, 84018, Control_c, 0, 64, 84
2, 84034, Control_c, 0, 64, 78
2, 84057, Control_c, 0, 64, 71
2, 84073, Control_c, 0, 64, 63
2, 84087, Control_c, 0, 64, 0
2, 84111, Note_on_c, 0, 77, 75
2, 84115, Note_on_c, 0, 62, 61
2, 84260, Note_on_c, 0, 62, 0
2, 84261, Note_on_c, 0, 79, 74
2, 84263, Note_on_c, 0, 63, 71
2, 84276, Note_on_c, 0, 77, 0
2, 84389, Note_on_c, 0, 63, 0
2, 84405, Note_on_c, 0, 65, 73
2, 84412, Note_on_c, 0, 80, 83
2, 84424, Note_on_c, 0, 79, 0
2, 84541, Note_on_c, 0, 65, 0
2, 84557, Note_on_c, 0, 63, 74
2, 84558, Note_on_c, 0, 79, 78
2, 84571, Note_on_c, 0, 80, 0
2, 84604, Control_c, 0, 64, 51
2, 84618, Control_c, 0, 64, 60
2, 84629, Note_on_c, 0, 70, 0
2, 84634, Control_c, 0, 64, 63
2, 84649, Control_c, 0, 64, 65
2, 84664, Control_c, 0, 64, 68
2, 84680, Control_c, 0, 64, 71
2, 84685, Note_on_c, 0, 63, 0
2, 84696, Control_c, 0, 64, 75
2, 84700, Note_on_c, 0, 62, 76
2, 84702, Note_on_c, 0, 77, 83
2, 84711, Control_c, 0, 64, 78
2, 84726, Control_c, 0, 64, 80
2, 84731, Note_on_c, 0, 79, 0
2, 84741, Control_c, 0, 64, 81
2, 84757, Control_c, 0, 64, 81
2, 84854, Note_on_c, 0, 75, 84
2, 84856, Note_on_c, 0, 62, 0
2, 84858, Note_on_c, 0, 60, 75
2, 84864, Note_on_c, 0, 77, 0
2, 84933, Note_on_c, 0, 75, 0
2, 84984, Note_on_c, 0, 58, 76
2, 84984, Note_on_c, 0, 74, 80
2, 85006, Note_on_c, 0, 60, 0
2, 85093, Note_on_c, 0, 55, 0
2, 85098, Control_c, 0, 64, 81
2, 85118, Note_on_c, 0, 74, 0
2, 85128, Control_c, 0, 64, 80
2, 85143, Control_c, 0, 64, 78
2, 85148, Note_on_c, 0, 75, 93
2, 85151, Note_on_c, 0, 60, 78
2, 85152, Note_on_c, 0, 58, 0
2, 85159, Control_c, 0, 64, 75
2, 85174, Control_c, 0, 64, 69
2, 85188, Control_c, 0, 64, 61
2, 85204, Control_c, 0, 64, 0
2, 85298, Note_on_c, 0, 70, 66
2, 85324, Note_on_c, 0, 55, 52
2, 85443, Note_on_c, 0, 70, 0
2, 85451, Note_on_c, 0, 55, 0
2, 85454, Note_on_c, 0, 72, 67
2, 85456, Note_on_c, 0, 57, 61
2, 85609, Note_on_c, 0, 57, 0
2, 85611, Note_on_c, 0, 74, 68
2, 85613, Note_on_c, 0, 58, 66
2, 85627, Note_on_c, 0, 72, 0
2, 85754, Note_on_c, 0, 58, 0
2, 85760, Note_on_c, 0, 72, 71
2, 85762, Note_on_c, 0, 57, 56
2, 85788, Note_on_c, 0, 74, 0
2, 85889, Note_on_c, 0, 57, 0
2, 85912, Note_on_c, 0, 70, 70
2, 85913, Note_on_c, 0, 55, 55
2, 85924, Note_on_c, 0, 72, 0
2, 85947, Note_on_c, 0, 75, 0
2, 86035, Note_on_c, 0, 70, 0
2, 86045, Note_on_c, 0, 55, 0
2, 86057, Note_on_c, 0, 69, 66
2, 86061, Note_on_c, 0, 53, 54
2, 86122, Note_on_c, 0, 53, 0
2, 86199, Note_on_c, 0, 67, 66
2, 86207, Note_on_c, 0, 69, 0
2, 86216, Note_on_c, 0, 51, 51
2, 86338, Note_on_c, 0, 67, 0
2, 86379, Note_on_c, 0, 51, 0
2, 86379, Note_on_c, 0, 69, 62
2, 86387, Note_on_c, 0, 53, 46
2, 86534, Note_on_c, 0, 75, 52
2, 86632, Note_on_c, 0, 75, 0
2, 86650, Control_c, 0, 64, 31
2, 86664, Control_c, 0, 64, 51
2, 86678, Note_on_c, 0, 77, 54
2, 86680, Control_c, 0, 64, 58
2, 86695, Control_c, 0, 64, 62
2, 86711, Control_c, 0, 64, 63
2, 86726, Control_c, 0, 64, 65
2, 86740, Control_c, 0, 64, 67
2, 86756, Control_c, 0, 64, 70
2, 86756, Note_on_c, 0, 77, 0
2, 86771, Control_c, 0, 64, 73
2, 86785, Control_c, 0, 64, 75
2, 86801, Control_c, 0, 64, 76
2, 86816, Control_c, 0, 64, 77
2, 86816, Note_on_c, 0, 79, 64
2, 86832, Control_c, 0, 64, 77
2, 86874, Note_on_c, 0, 79, 0
2, 86907, Control_c, 0, 64, 77
2, 86923, Control_c, 0, 64, 76
2, 86938, Control_c, 0, 64, 73
2, 86953, Control_c, 0, 64, 69
2, 86968, Control_c, 0, 64, 63
2, 86971, Note_on_c, 0, 77, 74
2, 86983, Control_c, 0, 64, 36
2, 86999, Control_c, 0, 64, 0
2, 87090, Control_c, 0, 64, 13
2, 87105, Control_c, 0, 64, 24
2, 87124, Note_on_c, 0, 75, 74
2, 87128, Control_c, 0, 64, 28
2, 87137, Note_on_c, 0, 77, 0
2, 87144, Control_c, 0, 64, 29
2, 87277, Note_on_c, 0, 74, 72
2, 87279, Note_on_c, 0, 75, 0
2, 87281, Control_c, 0, 64, 28
2, 87338, Note_on_c, 0, 69, 0
2, 87341, Control_c, 0, 64, 27
2, 87403, Control_c, 0, 64, 26
2, 87418, Note_on_c, 0, 74, 0
2, 87424, Note_on_c, 0, 72, 68
2, 87433, Control_c, 0, 64, 25
2, 87479, Control_c, 0, 64, 24
2, 87539, Control_c, 0, 64, 23
2, 87557, Note_on_c, 0, 72, 0
2, 87584, Control_c, 0, 64, 21
2, 87588, Note_on_c, 0, 74, 60
2, 87645, Control_c, 0, 64, 20
2, 87660, Control_c, 0, 64, 18
2, 87676, Control_c, 0, 64, 17
2, 87691, Control_c, 0, 64, 15
2, 87698, Note_on_c, 0, 60, 0
2, 87713, Note_on_c, 0, 53, 0
2, 87721, Control_c, 0, 64, 13
2, 87722, Note_on_c, 0, 54, 47
2, 87781, Control_c, 0, 64, 10
2, 87812, Control_c, 0, 64, 0
2, 87867, Note_on_c, 0, 54, 0
2, 87888, Note_on_c, 0, 62, 54
2, 87891, Note_on_c, 0, 55, 52
2, 87987, Note_on_c, 0, 55, 0
2, 88039, Note_on_c, 0, 57, 57
2, 88145, Note_on_c, 0, 57, 0
2, 88171, Note_on_c, 0, 62, 0
2, 88187, Note_on_c, 0, 58, 50
2, 88188, Note_on_c, 0, 67, 58
2, 88345, Note_on_c, 0, 53, 48
2, 88429, Note_on_c, 0, 58, 0
2, 88451, Note_on_c, 0, 53, 0
2, 88458, Note_on_c, 0, 67, 0
2, 88487, Note_on_c, 0, 65, 49
2, 88488, Note_on_c, 0, 51, 36
2, 88535, Control_c, 0, 64, 24
2, 88549, Control_c, 0, 64, 40
2, 88565, Control_c, 0, 64, 54
2, 88580, Control_c, 0, 64, 61
2, 88596, Control_c, 0, 64, 63
2, 88610, Control_c, 0, 64, 65
2, 88625, Control_c, 0, 64, 67
2, 88640, Note_on_c, 0, 50, 38
2, 88641, Control_c, 0, 64, 69
2, 88644, Note_on_c, 0, 65, 0
2, 88650, Note_on_c, 0, 51, 0
2, 88664, Control_c, 0, 64, 73
2, 88680, Control_c, 0, 64, 76
2, 88689, Note_on_c, 0, 50, 0
2, 88694, Control_c, 0, 64, 77
2, 88786, Control_c, 0, 64, 77
2, 88802, Control_c, 0, 64, 76
2, 88817, Control_c, 0, 64, 74
2, 88817, Note_on_c, 0, 63, 56
2, 88822, Note_on_c, 0, 48, 44
2, 88832, Control_c, 0, 64, 72
2, 88848, Control_c, 0, 64, 68
2, 88863, Control_c, 0, 64, 61
2, 88879, Control_c, 0, 64, 42
2, 88894, Control_c, 0, 64, 0
2, 88962, Note_on_c, 0, 55, 46
2, 89090, Note_on_c, 0, 55, 0
2, 89118, Note_on_c, 0, 57, 57
2, 89243, Note_on_c, 0, 57, 0
2, 89269, Note_on_c, 0, 58, 55
2, 89380, Note_on_c, 0, 58, 0
2, 89412, Note_on_c, 0, 74, 0
2, 89439, Note_on_c, 0, 57, 45
2, 89439, Note_on_c, 0, 72, 58
2, 89565, Note_on_c, 0, 57, 0
2, 89605, Note_on_c, 0, 55, 50
2, 89715, Note_on_c, 0, 55, 0
2, 89753, Note_on_c, 0, 54, 48
2, 89863, Note_on_c, 0, 54, 0
2, 89914, Note_on_c, 0, 55, 44
2, 90002, Note_on_c, 0, 63, 0
2, 90046, Note_on_c, 0, 55, 0
2, 90071, Note_on_c, 0, 48, 0
2, 90089, Note_on_c, 0, 62, 46
2, 90092, Note_on_c, 0, 50, 25
2, 90096, Note_on_c, 0, 54, 32
2, 90353, Control_c, 0, 64, 49
2, 90368, Control_c, 0, 64, 57
2, 90382, Control_c, 0, 64, 60
2, 90398, Control_c, 0, 64, 62
2, 90408, Note_on_c, 0, 70, 56
2, 90412, Note_on_c, 0, 72, 0
2, 90413, Control_c, 0, 64, 64
2, 90415, Note_on_c, 0, 55, 35
2, 90429, Control_c, 0, 64, 67
2, 90431, Note_on_c, 0, 54, 0
2, 90445, Control_c, 0, 64, 70
2, 90460, Control_c, 0, 64, 74
2, 90466, Note_on_c, 0, 62, 0
2, 90475, Control_c, 0, 64, 76
2, 90490, Control_c, 0, 64, 78
2, 90505, Control_c, 0, 64, 78
2, 90521, Control_c, 0, 64, 79
2, 90535, Control_c, 0, 64, 80
2, 90551, Control_c, 0, 64, 80
2, 90673, Control_c, 0, 64, 80
2, 90702, Control_c, 0, 64, 79
2, 90709, Note_on_c, 0, 70, 0
2, 90718, Control_c, 0, 64, 76
2, 90732, Control_c, 0, 64, 73
2, 90732, Note_on_c, 0, 69, 49
2, 90747, Control_c, 0, 64, 67
2, 90751, Note_on_c, 0, 60, 38
2, 90763, Control_c, 0, 64, 56
2, 90778, Control_c, 0, 64, 0
2, 90983, Control_c, 0, 64, 38
2, 90999, Control_c, 0, 64, 57
2, 91013, Control_c, 0, 64, 64
2, 91028, Control_c, 0, 64, 67
2, 91044, Control_c, 0, 64, 70
2, 91047, Note_on_c, 0, 55, 0
2, 91055, Note_on_c, 0, 50, 0
2, 91059, Control_c, 0, 64, 73
2, 91069, Note_on_c, 0, 60, 0
2, 91075, Control_c, 0, 64, 75
2, 91075, Note_on_c, 0, 54, 34
2, 91090, Control_c, 0, 64, 77
2, 91104, Control_c, 0, 64, 78
2, 91135, Control_c, 0, 64, 78
2, 91145, Note_on_c, 0, 69, 0
2, 91234, Note_on_c, 0, 54, 0
2, 91288, Control_c, 0, 64, 78
2, 91319, Control_c, 0, 64, 77
2, 91334, Control_c, 0, 64, 76
2, 91349, Control_c, 0, 64, 73
2, 91365, Control_c, 0, 64, 67
2, 91378, Note_on_c, 0, 43, 35
2, 91379, Control_c, 0, 64, 55
2, 91395, Control_c, 0, 64, 0
2, 91398, Note_on_c, 0, 58, 55
2, 91398, Note_on_c, 0, 67, 59
2, 91516, Control_c, 0, 64, 49
2, 91531, Control_c, 0, 64, 61
2, 91534, Note_on_c, 0, 43, 0
2, 91546, Control_c, 0, 64, 64
2, 91557, Note_on_c, 0, 55, 59
2, 91562, Control_c, 0, 64, 65
2, 91576, Control_c, 0, 64, 66
2, 91592, Control_c, 0, 64, 67
2, 91607, Control_c, 0, 64, 68
2, 91622, Control_c, 0, 64, 69
2, 91667, Control_c, 0, 64, 69
2, 91677, Note_on_c, 0, 58, 0
2, 91693, Note_on_c, 0, 55, 0
2, 91693, Note_on_c, 0, 56, 70
2, 91698, Control_c, 0, 64, 68
2, 91736, Control_c, 0, 64, 67
2, 91752, Control_c, 0, 64, 67
2, 91767, Control_c, 0, 64, 66
2, 91781, Control_c, 0, 64, 65
2, 91797, Control_c, 0, 64, 65
2, 91812, Control_c, 0, 64, 64
2, 91827, Control_c, 0, 64, 64
2, 91845, Note_on_c, 0, 58, 78
2, 91855, Note_on_c, 0, 56, 0
2, 91857, Control_c, 0, 64, 63
2, 91873, Control_c, 0, 64, 63
2, 91888, Control_c, 0, 64, 62
2, 91903, Control_c, 0, 64, 61
2, 91918, Control_c, 0, 64, 61
2, 91933, Control_c, 0, 64, 60
2, 91948, Control_c, 0, 64, 59
2, 91964, Control_c, 0, 64, 57
2, 91978, Control_c, 0, 64, 55
2, 91994, Control_c, 0, 64, 50
2, 92008, Note_on_c, 0, 56, 66
2, 92008, Note_on_c, 0, 63, 86
2, 92009, Control_c, 0, 64, 43
2, 92022, Note_on_c, 0, 58, 0
2, 92024, Control_c, 0, 64, 33
2, 92035, Note_on_c, 0, 67, 0
2, 92040, Control_c, 0, 64, 17
2, 92055, Control_c, 0, 64, 0
2, 92144, Note_on_c, 0, 56, 0
2, 92165, Note_on_c, 0, 55, 63
2, 92320, Note_on_c, 0, 55, 0
2, 92334, Note_on_c, 0, 53, 60
2, 92465, Note_on_c, 0, 53, 0
2, 92493, Note_on_c, 0, 51, 61
2, 92630, Note_on_c, 0, 51, 0
2, 92641, Note_on_c, 0, 65, 70
2, 92654, Note_on_c, 0, 58, 58
2, 92780, Note_on_c, 0, 58, 0
2, 92798, Note_on_c, 0, 50, 63
2, 92912, Note_on_c, 0, 50, 0
2, 92953, Note_on_c, 0, 51, 67
2, 93112, Note_on_c, 0, 53, 64
2, 93114, Note_on_c, 0, 51, 0
2, 93236, Note_on_c, 0, 63, 0
2, 93242, Note_on_c, 0, 62, 67
2, 93245, Note_on_c, 0, 65, 0
2, 93248, Note_on_c, 0, 70, 62
2, 93266, Note_on_c, 0, 51, 55
2, 93266, Note_on_c, 0, 53, 0
2, 93388, Note_on_c, 0, 51, 0
2, 93421, Note_on_c, 0, 50, 62
2, 93566, Note_on_c, 0, 50, 0
2, 93577, Note_on_c, 0, 48, 68
2, 93713, Note_on_c, 0, 48, 0
2, 93718, Note_on_c, 0, 46, 69
2, 93850, Control_c, 0, 64, 41
2, 93850, Note_on_c, 0, 70, 0
2, 93861, Note_on_c, 0, 46, 0
2, 93865, Control_c, 0, 64, 56
2, 93881, Control_c, 0, 64, 62
2, 93886, Note_on_c, 0, 52, 64
2, 93890, Note_on_c, 0, 67, 80
2, 93895, Control_c, 0, 64, 65
2, 93910, Control_c, 0, 64, 68
2, 93922, Note_on_c, 0, 62, 0
2, 93926, Control_c, 0, 64, 71
2, 93941, Control_c, 0, 64, 74
2, 93956, Control_c, 0, 64, 76
2, 93961, Note_on_c, 0, 52, 0
2, 93971, Control_c, 0, 64, 77
2, 93986, Control_c, 0, 64, 78
2, 94041, Note_on_c, 0, 58, 79
2, 94086, Control_c, 0, 64, 77
2, 94116, Control_c, 0, 64, 77
2, 94131, Control_c, 0, 64, 76
2, 94146, Control_c, 0, 64, 75
2, 94161, Control_c, 0, 64, 75
2, 94176, Control_c, 0, 64, 74
2, 94181, Note_on_c, 0, 58, 0
2, 94192, Control_c, 0, 64, 73
2, 94193, Note_on_c, 0, 60, 81
2, 94207, Control_c, 0, 64, 72
2, 94222, Control_c, 0, 64, 70
2, 94237, Control_c, 0, 64, 67
2, 94252, Control_c, 0, 64, 64
2, 94267, Control_c, 0, 64, 60
2, 94283, Control_c, 0, 64, 55
2, 94298, Control_c, 0, 64, 53
2, 94320, Note_on_c, 0, 60, 0
2, 94328, Control_c, 0, 64, 52
2, 94343, Control_c, 0, 64, 51
2, 94343, Note_on_c, 0, 61, 82
2, 94359, Control_c, 0, 64, 50
2, 94373, Control_c, 0, 64, 48
2, 94388, Control_c, 0, 64, 47
2, 94404, Control_c, 0, 64, 45
2, 94419, Control_c, 0, 64, 42
2, 94435, Control_c, 0, 64, 39
2, 94450, Control_c, 0, 64, 35
2, 94457, Note_on_c, 0, 61, 0
2, 94465, Control_c, 0, 64, 30
2, 94480, Control_c, 0, 64, 24
2, 94495, Control_c, 0, 64, 13
2, 94499, Note_on_c, 0, 60, 69
2, 94507, Note_on_c, 0, 68, 90
2, 94510, Control_c, 0, 64, 0
2, 94510, Note_on_c, 0, 53, 54
2, 94514, Note_on_c, 0, 65, 73
2, 94549, Note_on_c, 0, 67, 0
2, 94658, Note_on_c, 0, 58, 72
2, 94660, Note_on_c, 0, 60, 0
2, 94788, Note_on_c, 0, 53, 0
2, 94810, Note_on_c, 0, 58, 0
2, 94825, Note_on_c, 0, 56, 67
2, 94958, Note_on_c, 0, 56, 0
2, 94970, Note_on_c, 0, 53, 3
2, 94972, Note_on_c, 0, 55, 66
2, 95130, Note_on_c, 0, 55, 0
2, 95140, Note_on_c, 0, 56, 58
2, 95149, Note_on_c, 0, 73, 84
2, 95166, Note_on_c, 0, 53, 0
2, 95175, Note_on_c, 0, 65, 0
2, 95189, Note_on_c, 0, 68, 0
2, 95203, Control_c, 0, 64, 31
2, 95217, Control_c, 0, 64, 42
2, 95233, Control_c, 0, 64, 51
2, 95248, Control_c, 0, 64, 55
2, 95263, Control_c, 0, 64, 59
2, 95279, Control_c, 0, 64, 61
2, 95293, Control_c, 0, 64, 63
2, 95296, Note_on_c, 0, 65, 74
2, 95308, Control_c, 0, 64, 65
2, 95324, Control_c, 0, 64, 68
2, 95340, Control_c, 0, 64, 71
2, 95356, Control_c, 0, 64, 73
2, 95371, Control_c, 0, 64, 74
2, 95385, Control_c, 0, 64, 75
2, 95401, Control_c, 0, 64, 75
2, 95429, Note_on_c, 0, 56, 0
2, 95432, Control_c, 0, 64, 76
2, 95444, Note_on_c, 0, 58, 72
2, 95451, Note_on_c, 0, 67, 79
2, 95461, Control_c, 0, 64, 76
2, 95475, Note_on_c, 0, 65, 0
2, 95507, Control_c, 0, 64, 77
2, 95532, Note_on_c, 0, 58, 0
2, 95594, Note_on_c, 0, 68, 86
2, 95595, Note_on_c, 0, 60, 66
2, 95616, Note_on_c, 0, 67, 0
2, 95625, Note_on_c, 0, 60, 0
2, 95697, Control_c, 0, 64, 76
2, 95713, Control_c, 0, 64, 72
2, 95728, Control_c, 0, 64, 64
2, 95743, Control_c, 0, 64, 0
2, 95743, Note_on_c, 0, 67, 85
2, 95748, Note_on_c, 0, 58, 68
2, 95757, Note_on_c, 0, 46, 60
2, 95783, Note_on_c, 0, 68, 0
2, 95835, Control_c, 0, 64, 51
2, 95850, Control_c, 0, 64, 61
2, 95865, Control_c, 0, 64, 64
2, 95877, Note_on_c, 0, 67, 0
2, 95879, Control_c, 0, 64, 67
2, 95891, Note_on_c, 0, 65, 80
2, 95894, Control_c, 0, 64, 70
2, 95908, Control_c, 0, 64, 73
2, 95924, Control_c, 0, 64, 76
2, 95935, Note_on_c, 0, 58, 0
2, 95939, Control_c, 0, 64, 77
2, 95954, Control_c, 0, 64, 78
2, 95970, Control_c, 0, 64, 78
2, 96015, Control_c, 0, 64, 78
2, 96030, Control_c, 0, 64, 77
2, 96046, Control_c, 0, 64, 74
2, 96048, Note_on_c, 0, 56, 71
2, 96048, Note_on_c, 0, 64, 79
2, 96056, Note_on_c, 0, 65, 0
2, 96060, Control_c, 0, 64, 69
2, 96075, Control_c, 0, 64, 58
2, 96091, Control_c, 0, 64, 0
2, 96122, Control_c, 0, 64, 28
2, 96136, Control_c, 0, 64, 54
2, 96152, Control_c, 0, 64, 61
2, 96156, Note_on_c, 0, 64, 0
2, 96168, Control_c, 0, 64, 64
2, 96183, Control_c, 0, 64, 66
2, 96197, Note_on_c, 0, 65, 81
2, 96199, Control_c, 0, 64, 68
2, 96213, Control_c, 0, 64, 72
2, 96228, Control_c, 0, 64, 76
2, 96244, Control_c, 0, 64, 78
2, 96259, Control_c, 0, 64, 78
2, 96270, Note_on_c, 0, 56, 0
2, 96298, Note_on_c, 0, 65, 0
2, 96304, Control_c, 0, 64, 79
2, 96309, Note_on_c, 0, 46, 0
2, 96373, Control_c, 0, 64, 78
2, 96374, Note_on_c, 0, 55, 75
2, 96378, Note_on_c, 0, 48, 66
2, 96404, Control_c, 0, 64, 78
2, 96418, Control_c, 0, 64, 76
2, 96428, Note_on_c, 0, 64, 79
2, 96433, Control_c, 0, 64, 74
2, 96449, Control_c, 0, 64, 71
2, 96464, Control_c, 0, 64, 66
2, 96480, Control_c, 0, 64, 59
2, 96494, Control_c, 0, 64, 41
2, 96509, Control_c, 0, 64, 0
2, 96516, Note_on_c, 0, 73, 0
2, 96576, Note_on_c, 0, 70, 79
2, 96722, Note_on_c, 0, 72, 80
2, 96747, Note_on_c, 0, 70, 0
2, 96868, Note_on_c, 0, 73, 78
2, 96883, Note_on_c, 0, 72, 0
2, 96997, Note_on_c, 0, 73, 0
2, 97022, Note_on_c, 0, 56, 81
2, 97034, Note_on_c, 0, 72, 72
2, 97069, Note_on_c, 0, 55, 0
2, 97194, Note_on_c, 0, 70, 78
2, 97205, Note_on_c, 0, 64, 0
2, 97217, Note_on_c, 0, 72, 0
2, 97248, Control_c, 0, 64, 42
2, 97262, Control_c, 0, 64, 54
2, 97277, Control_c, 0, 64, 61
2, 97293, Control_c, 0, 64, 65
2, 97307, Control_c, 0, 64, 67
2, 97323, Control_c, 0, 64, 70
2, 97337, Control_c, 0, 64, 72
2, 97346, Note_on_c, 0, 68, 85
2, 97352, Control_c, 0, 64, 75
2, 97363, Note_on_c, 0, 70, 0
2, 97368, Control_c, 0, 64, 77
2, 97383, Control_c, 0, 64, 78
2, 97399, Control_c, 0, 64, 79
2, 97456, Note_on_c, 0, 68, 0
2, 97481, Note_on_c, 0, 67, 85
2, 97559, Note_on_c, 0, 67, 0
2, 97604, Note_on_c, 0, 49, 68
2, 97616, Note_on_c, 0, 56, 0
2, 97626, Control_c, 0, 64, 78
2, 97642, Control_c, 0, 64, 77
2, 97645, Note_on_c, 0, 65, 96
2, 97657, Control_c, 0, 64, 75
2, 97669, Note_on_c, 0, 48, 0
2, 97671, Control_c, 0, 64, 71
2, 97687, Control_c, 0, 64, 65
2, 97702, Control_c, 0, 64, 53
2, 97717, Control_c, 0, 64, 0
2, 97808, Note_on_c, 0, 63, 66
2, 97964, Note_on_c, 0, 61, 62
2, 98014, Note_on_c, 0, 63, 0
2, 98077, Note_on_c, 0, 61, 0
2, 98111, Note_on_c, 0, 60, 59
2, 98235, Note_on_c, 0, 60, 0
2, 98266, Note_on_c, 0, 58, 59
2, 98429, Note_on_c, 0, 56, 50
2, 98561, Note_on_c, 0, 56, 0
2, 98585, Note_on_c, 0, 55, 54
2, 98723, Note_on_c, 0, 55, 0
2, 98743, Note_on_c, 0, 53, 57
2, 98788, Note_on_c, 0, 49, 0
2, 98887, Note_on_c, 0, 53, 0
2, 98909, Note_on_c, 0, 55, 52
2, 98926, Note_on_c, 0, 48, 42
2, 98950, Note_on_c, 0, 58, 0
2, 99073, Note_on_c, 0, 58, 52
2, 99128, Note_on_c, 0, 58, 0
2, 99214, Note_on_c, 0, 60, 50
2, 99322, Note_on_c, 0, 65, 0
2, 99331, Note_on_c, 0, 60, 0
2, 99363, Note_on_c, 0, 61, 56
2, 99468, Note_on_c, 0, 61, 0
2, 99531, Note_on_c, 0, 60, 57
2, 99532, Note_on_c, 0, 64, 59
2, 99582, Control_c, 0, 67, 11
2, 99596, Control_c, 0, 67, 18
2, 99612, Control_c, 0, 67, 27
2, 99620, Note_on_c, 0, 60, 0
2, 99627, Control_c, 0, 67, 37
2, 99643, Control_c, 0, 67, 47
2, 99658, Control_c, 0, 67, 57
2, 99672, Control_c, 0, 67, 67
2, 99687, Note_on_c, 0, 58, 50
2, 99688, Control_c, 0, 67, 79
2, 99703, Control_c, 0, 64, 34
2, 99703, Control_c, 0, 67, 89
2, 99719, Control_c, 0, 64, 44
2, 99719, Control_c, 0, 67, 99
2, 99734, Control_c, 0, 64, 51
2, 99734, Control_c, 0, 67, 108
2, 99748, Control_c, 0, 64, 57
2, 99748, Control_c, 0, 67, 116
2, 99764, Control_c, 0, 64, 61
2, 99764, Control_c, 0, 67, 123
2, 99779, Control_c, 0, 64, 63
2, 99779, Control_c, 0, 67, 127
2, 99780, Note_on_c, 0, 58, 0
2, 99781, Note_on_c, 0, 55, 0
2, 99794, Control_c, 0, 64, 64
2, 99810, Control_c, 0, 64, 65
2, 99825, Control_c, 0, 64, 66
2, 99827, Note_on_c, 0, 64, 0
2, 99840, Control_c, 0, 64, 68
2, 99841, Note_on_c, 0, 56, 51
2, 99855, Control_c, 0, 64, 69
2, 99870, Control_c, 0, 64, 71
2, 99886, Control_c, 0, 64, 71
2, 99901, Control_c, 0, 64, 72
2, 99915, Control_c, 0, 64, 73
2, 99938, Note_on_c, 0, 56, 0
2, 99990, Note_on_c, 0, 55, 42
2, 100082, Note_on_c, 0, 48, 0
2, 100098, Control_c, 0, 64, 72
2, 100113, Control_c, 0, 64, 71
2, 100128, Control_c, 0, 64, 68
2, 100143, Control_c, 0, 64, 61
2, 100143, Note_on_c, 0, 55, 0
2, 100159, Control_c, 0, 64, 24
2, 100169, Note_on_c, 0, 53, 40
2, 100180, Note_on_c, 0, 65, 63
2, 100182, Control_c, 0, 64, 0
2, 100183, Note_on_c, 0, 56, 54
2, 100259, Control_c, 0, 67, 124
2, 100274, Control_c, 0, 67, 116
2, 100290, Control_c, 0, 64, 39
2, 100290, Control_c, 0, 67, 103
2, 100304, Control_c, 0, 64, 58
2, 100304, Control_c, 0, 67, 83
2, 100314, Note_on_c, 0, 53, 0
2, 100320, Control_c, 0, 64, 63
2, 100320, Control_c, 0, 67, 63
2, 100325, Note_on_c, 0, 41, 58
2, 100335, Control_c, 0, 64, 66
2, 100335, Control_c, 0, 67, 39
2, 100350, Control_c, 0, 64, 67
2, 100350, Control_c, 0, 67, 8
2, 100357, Note_on_c, 0, 56, 0
2, 100365, Control_c, 0, 64, 69
2, 100365, Control_c, 0, 67, 0
2, 100380, Control_c, 0, 64, 72
2, 100395, Control_c, 0, 64, 74
2, 100403, Note_on_c, 0, 65, 0
2, 100411, Control_c, 0, 64, 75
2, 100426, Control_c, 0, 64, 76
2, 100467, Note_on_c, 0, 41, 0
2, 100485, Note_on_c, 0, 43, 66
2, 100547, Control_c, 0, 64, 75
2, 100577, Control_c, 0, 64, 75
2, 100592, Note_on_c, 0, 43, 0
2, 100608, Control_c, 0, 64, 74
2, 100627, Note_on_c, 0, 44, 74
2, 100639, Control_c, 0, 64, 74
2, 100684, Control_c, 0, 64, 73
2, 100699, Control_c, 0, 64, 73
2, 100714, Control_c, 0, 64, 72
2, 100730, Control_c, 0, 64, 71
2, 100745, Control_c, 0, 64, 70
2, 100756, Note_on_c, 0, 44, 0
2, 100760, Control_c, 0, 64, 67
2, 100775, Control_c, 0, 64, 65
2, 100790, Control_c, 0, 64, 62
2, 100793, Note_on_c, 0, 43, 65
2, 100795, Note_on_c, 0, 72, 84
2, 100806, Control_c, 0, 64, 60
2, 100821, Control_c, 0, 64, 57
2, 100835, Control_c, 0, 64, 56
2, 100851, Control_c, 0, 64, 55
2, 100866, Control_c, 0, 64, 53
2, 100882, Control_c, 0, 64, 51
2, 100896, Control_c, 0, 64, 49
2, 100911, Control_c, 0, 64, 48
2, 100927, Control_c, 0, 64, 47
2, 100931, Note_on_c, 0, 43, 0
2, 100950, Control_c, 0, 64, 47
2, 100953, Note_on_c, 0, 41, 65
2, 100966, Control_c, 0, 64, 46
2, 100980, Control_c, 0, 64, 44
2, 100995, Control_c, 0, 64, 44
2, 101011, Control_c, 0, 64, 43
2, 101026, Control_c, 0, 64, 42
2, 101042, Control_c, 0, 64, 40
2, 101056, Control_c, 0, 64, 38
2, 101072, Control_c, 0, 64, 35
2, 101073, Note_on_c, 0, 41, 0
2, 101088, Control_c, 0, 64, 32
2, 101103, Control_c, 0, 64, 27
2, 101112, Note_on_c, 0, 39, 58
2, 101119, Control_c, 0, 64, 18
2, 101133, Control_c, 0, 64, 0
2, 101216, Note_on_c, 0, 39, 0
2, 101262, Note_on_c, 0, 38, 60
2, 101361, Note_on_c, 0, 38, 0
2, 101427, Note_on_c, 0, 43, 60
2, 101427, Note_on_c, 0, 50, 62
2, 101588, Note_on_c, 0, 65, 65
2, 101750, Note_on_c, 0, 67, 72
2, 101753, Note_on_c, 0, 50, 0
2, 101774, Note_on_c, 0, 65, 0
2, 101870, Note_on_c, 0, 67, 0
2, 101908, Note_on_c, 0, 68, 67
2, 101910, Note_on_c, 0, 72, 0
2, 101910, Note_on_c, 0, 72, 23
2, 101991, Note_on_c, 0, 72, 0
2, 102020, Note_on_c, 0, 68, 0
2, 102069, Note_on_c, 0, 67, 79
2, 102071, Note_on_c, 0, 55, 65
2, 102075, Note_on_c, 0, 71, 73
2, 102200, Note_on_c, 0, 67, 0
2, 102204, Control_c, 0, 64, 50
2, 102219, Control_c, 0, 64, 60
2, 102229, Note_on_c, 0, 71, 0
2, 102234, Control_c, 0, 64, 64
2, 102234, Note_on_c, 0, 65, 80
2, 102250, Control_c, 0, 64, 66
2, 102265, Control_c, 0, 64, 70
2, 102281, Control_c, 0, 64, 74
2, 102295, Control_c, 0, 64, 79
2, 102310, Control_c, 0, 64, 82
2, 102326, Control_c, 0, 64, 83
2, 102341, Control_c, 0, 64, 84
2, 102341, Note_on_c, 0, 65, 0
2, 102356, Control_c, 0, 64, 85
2, 102371, Control_c, 0, 64, 86
2, 102386, Control_c, 0, 64, 88
2, 102386, Note_on_c, 0, 63, 82
2, 102402, Control_c, 0, 64, 89
2, 102417, Control_c, 0, 64, 90
2, 102432, Control_c, 0, 64, 91
2, 102447, Control_c, 0, 64, 91
2, 102462, Control_c, 0, 64, 92
2, 102468, Note_on_c, 0, 63, 0
2, 102485, Control_c, 0, 64, 92
2, 102500, Control_c, 0, 64, 93
2, 102515, Control_c, 0, 64, 93
2, 102531, Note_on_c, 0, 62, 80
2, 102577, Note_on_c, 0, 62, 0
2, 102661, Note_on_c, 0, 48, 73
2, 102714, Control_c, 0, 64, 93
2, 102727, Note_on_c, 0, 75, 84
2, 102730, Control_c, 0, 64, 92
2, 102739, Note_on_c, 0, 43, 0
2, 102745, Control_c, 0, 64, 90
2, 102761, Control_c, 0, 64, 87
2, 102776, Control_c, 0, 64, 84
2, 102790, Control_c, 0, 64, 78
2, 102806, Control_c, 0, 64, 72
2, 102821, Control_c, 0, 64, 65
2, 102836, Control_c, 0, 64, 34
2, 102852, Control_c, 0, 64, 0
2, 102877, Note_on_c, 0, 67, 67
2, 103033, Note_on_c, 0, 68, 71
2, 103057, Note_on_c, 0, 67, 0
2, 103184, Note_on_c, 0, 70, 74
2, 103197, Note_on_c, 0, 68, 0
2, 103326, Note_on_c, 0, 55, 0
2, 103342, Note_on_c, 0, 51, 70
2, 103346, Note_on_c, 0, 68, 80
2, 103351, Note_on_c, 0, 48, 0
2, 103372, Note_on_c, 0, 70, 0
2, 103390, Control_c, 0, 64, 52
2, 103406, Control_c, 0, 64, 63
2, 103421, Control_c, 0, 64, 66
2, 103432, Note_on_c, 0, 75, 0
2, 103435, Control_c, 0, 64, 69
2, 103451, Control_c, 0, 64, 74
2, 103454, Note_on_c, 0, 68, 0
2, 103466, Control_c, 0, 64, 78
2, 103482, Control_c, 0, 64, 81
2, 103497, Control_c, 0, 64, 83
2, 103497, Note_on_c, 0, 67, 82
2, 103500, Note_on_c, 0, 51, 0
2, 103512, Control_c, 0, 64, 84
2, 103528, Control_c, 0, 64, 85
2, 103543, Control_c, 0, 64, 85
2, 103574, Control_c, 0, 64, 86
2, 103583, Note_on_c, 0, 67, 0
2, 103650, Note_on_c, 0, 65, 84
2, 103711, Note_on_c, 0, 65, 0
2, 103791, Note_on_c, 0, 63, 86
2, 103854, Note_on_c, 0, 63, 0
2, 103924, Control_c, 0, 64, 85
2, 103953, Control_c, 0, 64, 85
2, 103962, Note_on_c, 0, 65, 90
2, 103969, Control_c, 0, 64, 84
2, 103973, Note_on_c, 0, 53, 70
2, 103983, Control_c, 0, 64, 83
2, 103990, Note_on_c, 0, 56, 55
2, 103999, Control_c, 0, 64, 82
2, 104022, Control_c, 0, 64, 81
2, 104037, Control_c, 0, 64, 78
2, 104053, Control_c, 0, 64, 76
2, 104067, Control_c, 0, 64, 72
2, 104083, Control_c, 0, 64, 67
2, 104098, Control_c, 0, 64, 57
2, 104113, Control_c, 0, 64, 0
2, 104126, Note_on_c, 0, 75, 76
2, 104258, Note_on_c, 0, 75, 0
2, 104273, Note_on_c, 0, 77, 83
2, 104360, Note_on_c, 0, 77, 0
2, 104417, Note_on_c, 0, 79, 84
2, 104519, Note_on_c, 0, 79, 0
2, 104567, Note_on_c, 0, 77, 89
2, 104644, Control_c, 0, 64, 39
2, 104659, Control_c, 0, 64, 56
2, 104674, Control_c, 0, 64, 61
2, 104690, Control_c, 0, 64, 63
2, 104705, Control_c, 0, 64, 65
2, 104716, Note_on_c, 0, 75, 84
2, 104717, Note_on_c, 0, 65, 0
2, 104720, Control_c, 0, 64, 67
2, 104732, Note_on_c, 0, 77, 0
2, 104735, Control_c, 0, 64, 69
2, 104750, Control_c, 0, 64, 73
2, 104766, Control_c, 0, 64, 75
2, 104788, Control_c, 0, 64, 76
2, 104804, Control_c, 0, 64, 77
2, 104820, Note_on_c, 0, 53, 0
2, 104852, Note_on_c, 0, 56, 0
2, 104873, Note_on_c, 0, 74, 84
2, 104877, Note_on_c, 0, 75, 0
2, 104962, Note_on_c, 0, 74, 0
2, 105007, Note_on_c, 0, 72, 80
2, 105093, Control_c, 0, 64, 76
2, 105123, Control_c, 0, 64, 75
2, 105138, Control_c, 0, 64, 73
2, 105153, Control_c, 0, 64, 66
2, 105161, Note_on_c, 0, 72, 0
2, 105170, Control_c, 0, 64, 28
2, 105179, Note_on_c, 0, 55, 40
2, 105185, Control_c, 0, 64, 0
2, 105190, Note_on_c, 0, 62, 46
2, 105193, Note_on_c, 0, 71, 75
2, 105261, Control_c, 0, 64, 54
2, 105275, Control_c, 0, 64, 64
2, 105291, Control_c, 0, 64, 67
2, 105304, Note_on_c, 0, 71, 0
2, 105306, Control_c, 0, 64, 71
2, 105322, Control_c, 0, 64, 75
2, 105337, Control_c, 0, 64, 79
2, 105343, Note_on_c, 0, 77, 81
2, 105351, Control_c, 0, 64, 80
2, 105352, Note_on_c, 0, 62, 0
2, 105367, Control_c, 0, 64, 81
2, 105382, Control_c, 0, 64, 82
2, 105396, Control_c, 0, 64, 82
2, 105416, Note_on_c, 0, 55, 0
2, 105427, Control_c, 0, 64, 83
2, 105488, Note_on_c, 0, 79, 87
2, 105516, Note_on_c, 0, 77, 0
2, 105643, Note_on_c, 0, 80, 90
2, 105658, Note_on_c, 0, 79, 0
2, 105724, Control_c, 0, 64, 82
2, 105753, Note_on_c, 0, 51, 45
2, 105754, Control_c, 0, 64, 82
2, 105763, Note_on_c, 0, 60, 49
2, 105770, Control_c, 0, 64, 81
2, 105778, Note_on_c, 0, 63, 54
2, 105778, Note_on_c, 0, 80, 0
2, 105785, Control_c, 0, 64, 81
2, 105801, Control_c, 0, 64, 79
2, 105809, Note_on_c, 0, 79, 85
2, 105815, Control_c, 0, 64, 77
2, 105830, Control_c, 0, 64, 72
2, 105846, Control_c, 0, 64, 67
2, 105861, Control_c, 0, 64, 58
2, 105876, Control_c, 0, 64, 0
2, 105955, Note_on_c, 0, 77, 79
2, 105980, Note_on_c, 0, 79, 0
2, 106099, Note_on_c, 0, 75, 75
2, 106117, Note_on_c, 0, 77, 0
2, 106190, Note_on_c, 0, 75, 0
2, 106229, Note_on_c, 0, 74, 71
2, 106346, Note_on_c, 0, 74, 0
2, 106377, Note_on_c, 0, 60, 0
2, 106380, Note_on_c, 0, 51, 0
2, 106391, Note_on_c, 0, 72, 75
2, 106394, Note_on_c, 0, 56, 41
2, 106477, Control_c, 0, 64, 31
2, 106493, Control_c, 0, 64, 44
2, 106508, Control_c, 0, 64, 50
2, 106523, Control_c, 0, 64, 55
2, 106538, Control_c, 0, 64, 57
2, 106542, Note_on_c, 0, 71, 72
2, 106553, Control_c, 0, 64, 59
2, 106569, Control_c, 0, 64, 61
2, 106583, Control_c, 0, 64, 62
2, 106599, Control_c, 0, 64, 62
2, 106614, Control_c, 0, 64, 63
2, 106615, Note_on_c, 0, 72, 0
2, 106645, Control_c, 0, 64, 62
2, 106659, Control_c, 0, 64, 62
2, 106663, Note_on_c, 0, 56, 0
2, 106674, Control_c, 0, 64, 60
2, 106690, Control_c, 0, 64, 54
2, 106694, Note_on_c, 0, 71, 0
2, 106705, Control_c, 0, 64, 0
2, 106709, Note_on_c, 0, 63, 0
2, 106715, Note_on_c, 0, 53, 40
2, 106726, Note_on_c, 0, 68, 68
2, 106731, Note_on_c, 0, 72, 65
2, 106813, Control_c, 0, 64, 46
2, 106827, Control_c, 0, 64, 57
2, 106843, Control_c, 0, 64, 61
2, 106858, Control_c, 0, 64, 63
2, 106873, Control_c, 0, 64, 64
2, 106879, Note_on_c, 0, 68, 0
2, 106888, Control_c, 0, 64, 65
2, 106893, Note_on_c, 0, 72, 0
2, 106902, Note_on_c, 0, 74, 66
2, 106903, Control_c, 0, 64, 66
2, 106919, Control_c, 0, 64, 67
2, 106934, Control_c, 0, 64, 69
2, 106949, Control_c, 0, 64, 70
2, 106964, Control_c, 0, 64, 71
2, 106985, Note_on_c, 0, 74, 0
2, 107041, Control_c, 0, 64, 70
2, 107056, Control_c, 0, 64, 69
2, 107071, Control_c, 0, 64, 65
2, 107093, Control_c, 0, 64, 57
2, 107093, Note_on_c, 0, 53, 0
2, 107096, Note_on_c, 0, 67, 59
2, 107097, Note_on_c, 0, 74, 55
2, 107102, Note_on_c, 0, 55, 42
2, 107108, Control_c, 0, 64, 0
2, 107291, Control_c, 0, 64, 27
2, 107306, Control_c, 0, 64, 45
2, 107322, Control_c, 0, 64, 51
2, 107337, Control_c, 0, 64, 56
2, 107352, Control_c, 0, 64, 59
2, 107367, Control_c, 0, 64, 62
2, 107368, Note_on_c, 0, 67, 0
2, 107382, Control_c, 0, 64, 63
2, 107388, Note_on_c, 0, 55, 0
2, 107397, Control_c, 0, 64, 64
2, 107408, Note_on_c, 0, 59, 46
2, 107413, Control_c, 0, 64, 65
2, 107418, Note_on_c, 0, 65, 52
2, 107427, Control_c, 0, 64, 66
2, 107443, Control_c, 0, 64, 68
2, 107458, Control_c, 0, 64, 69
2, 107473, Control_c, 0, 64, 70
2, 107489, Control_c, 0, 64, 72
2, 107503, Control_c, 0, 64, 73
2, 107519, Control_c, 0, 64, 74
2, 107520, Note_on_c, 0, 65, 0
2, 107525, Note_on_c, 0, 74, 0
2, 107556, Note_on_c, 0, 72, 69
2, 107636, Note_on_c, 0, 72, 0
2, 107656, Control_c, 0, 64, 73
2, 107667, Note_on_c, 0, 59, 0
2, 107687, Control_c, 0, 64, 73
2, 107702, Control_c, 0, 64, 71
2, 107717, Control_c, 0, 64, 69
2, 107727, Note_on_c, 0, 60, 45
2, 107730, Note_on_c, 0, 72, 59
2, 107732, Control_c, 0, 64, 66
2, 107738, Note_on_c, 0, 63, 55
2, 107747, Control_c, 0, 64, 60
2, 107763, Control_c, 0, 64, 51
2, 107778, Control_c, 0, 64, 43
2, 107793, Control_c, 0, 64, 39
2, 107808, Control_c, 0, 64, 37
2, 107823, Control_c, 0, 64, 34
2, 107839, Control_c, 0, 64, 29
2, 107861, Control_c, 0, 64, 23
2, 107876, Control_c, 0, 64, 15
2, 107880, Note_on_c, 0, 60, 0
2, 107892, Control_c, 0, 64, 0
2, 107897, Note_on_c, 0, 48, 52
2, 108031, Note_on_c, 0, 48, 0
2, 108058, Note_on_c, 0, 49, 57
2, 108168, Note_on_c, 0, 49, 0
2, 108212, Note_on_c, 0, 51, 59
2, 108325, Note_on_c, 0, 51, 0
2, 108362, Note_on_c, 0, 68, 74
2, 108373, Note_on_c, 0, 49, 51
2, 108382, Note_on_c, 0, 63, 0
2, 108480, Note_on_c, 0, 49, 0
2, 108536, Note_on_c, 0, 48, 49
2, 108630, Note_on_c, 0, 48, 0
2, 108698, Note_on_c, 0, 46, 48
2, 108720, Control_c, 0, 64, 29
2, 108735, Control_c, 0, 64, 44
2, 108750, Control_c, 0, 64, 53
2, 108766, Control_c, 0, 64, 58
2, 108780, Control_c, 0, 64, 62
2, 108780, Note_on_c, 0, 46, 0
2, 108795, Control_c, 0, 64, 64
2, 108811, Control_c, 0, 64, 66
2, 108826, Control_c, 0, 64, 68
2, 108842, Control_c, 0, 64, 71
2, 108857, Control_c, 0, 64, 74
2, 108859, Note_on_c, 0, 44, 53
2, 108872, Control_c, 0, 64, 77
2, 108888, Control_c, 0, 64, 78
2, 108898, Note_on_c, 0, 44, 0
2, 109008, Control_c, 0, 64, 77
2, 109023, Control_c, 0, 64, 77
2, 109037, Control_c, 0, 64, 75
2, 109053, Control_c, 0, 64, 73
2, 109053, Note_on_c, 0, 51, 53
2, 109054, Note_on_c, 0, 58, 60
2, 109068, Control_c, 0, 64, 70
2, 109083, Control_c, 0, 64, 66
2, 109099, Control_c, 0, 64, 63
2, 109113, Control_c, 0, 64, 57
2, 109129, Control_c, 0, 64, 52
2, 109144, Control_c, 0, 64, 50
2, 109159, Control_c, 0, 64, 50
2, 109175, Control_c, 0, 64, 49
2, 109189, Control_c, 0, 64, 47
2, 109200, Note_on_c, 0, 70, 64
2, 109204, Control_c, 0, 64, 42
2, 109215, Note_on_c, 0, 72, 0
2, 109220, Control_c, 0, 64, 36
2, 109233, Note_on_c, 0, 68, 0
2, 109234, Control_c, 0, 64, 29
2, 109250, Control_c, 0, 64, 21
2, 109267, Control_c, 0, 64, 13
2, 109281, Control_c, 0, 64, 0
2, 109363, Note_on_c, 0, 70, 0
2, 109368, Note_on_c, 0, 72, 68
2, 109516, Note_on_c, 0, 72, 0
2, 109522, Note_on_c, 0, 73, 62
2, 109662, Note_on_c, 0, 73, 0
2, 109669, Note_on_c, 0, 63, 60
2, 109677, Note_on_c, 0, 67, 61
2, 109689, Note_on_c, 0, 72, 53
2, 109851, Note_on_c, 0, 70, 60
2, 109862, Note_on_c, 0, 67, 0
2, 109872, Note_on_c, 0, 72, 0
2, 109988, Control_c, 0, 64, 17
2, 110003, Control_c, 0, 64, 37
2, 110009, Note_on_c, 0, 68, 66
2, 110019, Control_c, 0, 64, 47
2, 110025, Note_on_c, 0, 70, 0
2, 110033, Control_c, 0, 64, 54
2, 110049, Control_c, 0, 64, 58
2, 110064, Control_c, 0, 64, 60
2, 110080, Control_c, 0, 64, 62
2, 110095, Control_c, 0, 64, 63
2, 110110, Control_c, 0, 64, 64
2, 110126, Control_c, 0, 64, 65
2, 110141, Control_c, 0, 64, 66
2, 110163, Control_c, 0, 64, 66
2, 110166, Note_on_c, 0, 67, 67
2, 110179, Control_c, 0, 64, 67
2, 110209, Control_c, 0, 64, 67
2, 110261, Note_on_c, 0, 67, 0
2, 110286, Control_c, 0, 64, 67
2, 110301, Control_c, 0, 64, 66
2, 110315, Control_c, 0, 64, 65
2, 110327, Note_on_c, 0, 68, 0
2, 110331, Control_c, 0, 64, 61
2, 110346, Control_c, 0, 64, 48
2, 110352, Note_on_c, 0, 72, 71
2, 110359, Note_on_c, 0, 65, 64
2, 110361, Control_c, 0, 64, 29
2, 110363, Note_on_c, 0, 51, 0
2, 110364, Note_on_c, 0, 56, 43
2, 110377, Control_c, 0, 64, 0
2, 110404, Note_on_c, 0, 58, 0
2, 110467, Control_c, 0, 64, 31
2, 110482, Control_c, 0, 64, 47
2, 110498, Control_c, 0, 64, 56
2, 110512, Control_c, 0, 64, 60
2, 110528, Control_c, 0, 64, 62
2, 110543, Control_c, 0, 64, 64
2, 110558, Control_c, 0, 64, 64
2, 110573, Note_on_c, 0, 65, 0
2, 110574, Control_c, 0, 64, 65
2, 110588, Control_c, 0, 64, 66
2, 110603, Control_c, 0, 64, 66
2, 110619, Control_c, 0, 64, 67
2, 110674, Note_on_c, 0, 67, 76
2, 110741, Control_c, 0, 64, 66
2, 110808, Note_on_c, 0, 63, 0
2, 110817, Control_c, 0, 64, 66
2, 110817, Note_on_c, 0, 68, 78
2, 110832, Note_on_c, 0, 67, 0
2, 110862, Control_c, 0, 64, 65
2, 110877, Control_c, 0, 64, 65
2, 110894, Control_c, 0, 64, 64
2, 110909, Control_c, 0, 64, 64
2, 110931, Note_on_c, 0, 72, 0
2, 110932, Control_c, 0, 64, 62
2, 110947, Control_c, 0, 64, 60
2, 110961, Control_c, 0, 64, 58
2, 110977, Control_c, 0, 64, 56
2, 110980, Note_on_c, 0, 62, 48
2, 110982, Note_on_c, 0, 70, 80
2, 110990, Note_on_c, 0, 68, 0
2, 110992, Control_c, 0, 64, 53
2, 111008, Control_c, 0, 64, 50
2, 111023, Control_c, 0, 64, 47
2, 111037, Control_c, 0, 64, 46
2, 111053, Control_c, 0, 64, 44
2, 111068, Control_c, 0, 64, 42
2, 111083, Control_c, 0, 64, 40
2, 111099, Control_c, 0, 64, 39
2, 111113, Control_c, 0, 64, 38
2, 111129, Control_c, 0, 64, 37
2, 111138, Note_on_c, 0, 68, 69
2, 111159, Control_c, 0, 64, 37
2, 111190, Control_c, 0, 64, 36
2, 111232, Note_on_c, 0, 68, 0
2, 111251, Control_c, 0, 64, 36
2, 111296, Note_on_c, 0, 67, 58
2, 111311, Control_c, 0, 64, 35
2, 111387, Control_c, 0, 64, 34
2, 111414, Note_on_c, 0, 67, 0
2, 111432, Control_c, 0, 64, 34
2, 111443, Note_on_c, 0, 65, 57
2, 111573, Note_on_c, 0, 65, 0
2, 111580, Note_on_c, 0, 62, 0
2, 111599, Note_on_c, 0, 56, 0
2, 111609, Note_on_c, 0, 67, 54
2, 111614, Note_on_c, 0, 63, 57
2, 111631, Note_on_c, 0, 55, 31
2, 111698, Control_c, 0, 64, 33
2, 111794, Note_on_c, 0, 62, 50
2, 111865, Note_on_c, 0, 62, 0
2, 111927, Control_c, 0, 64, 34
2, 111948, Note_on_c, 0, 60, 50
2, 111967, Note_on_c, 0, 63, 0
2, 111975, Note_on_c, 0, 67, 0
2, 112068, Note_on_c, 0, 60, 0
2, 112103, Note_on_c, 0, 55, 0
2, 112107, Note_on_c, 0, 58, 49
2, 112170, Control_c, 0, 64, 34
2, 112200, Control_c, 0, 64, 35
2, 112215, Control_c, 0, 64, 36
2, 112230, Control_c, 0, 64, 38
2, 112246, Control_c, 0, 64, 42
2, 112261, Control_c, 0, 64, 47
2, 112275, Control_c, 0, 64, 52
2, 112278, Note_on_c, 0, 75, 67
2, 112291, Control_c, 0, 64, 56
2, 112306, Control_c, 0, 64, 59
2, 112321, Control_c, 0, 64, 61
2, 112337, Control_c, 0, 64, 63
2, 112352, Control_c, 0, 64, 64
2, 112368, Control_c, 0, 64, 65
2, 112373, Note_on_c, 0, 58, 0
2, 112383, Control_c, 0, 64, 66
2, 112397, Control_c, 0, 64, 67
2, 112413, Control_c, 0, 64, 68
2, 112428, Control_c, 0, 64, 69
2, 112428, Note_on_c, 0, 75, 0
2, 112435, Note_on_c, 0, 53, 39
2, 112443, Control_c, 0, 64, 69
2, 112466, Control_c, 0, 64, 70
2, 112527, Control_c, 0, 64, 69
2, 112536, Note_on_c, 0, 53, 0
2, 112543, Control_c, 0, 64, 68
2, 112558, Control_c, 0, 64, 64
2, 112573, Control_c, 0, 64, 55
2, 112587, Note_on_c, 0, 75, 71
2, 112588, Control_c, 0, 64, 25
2, 112591, Note_on_c, 0, 55, 39
2, 112603, Control_c, 0, 64, 0
2, 112649, Control_c, 0, 64, 41
2, 112665, Control_c, 0, 64, 55
2, 112680, Control_c, 0, 64, 62
2, 112696, Control_c, 0, 64, 65
2, 112710, Note_on_c, 0, 55, 0
2, 112711, Control_c, 0, 64, 67
2, 112726, Control_c, 0, 64, 70
2, 112735, Note_on_c, 0, 56, 54
2, 112741, Control_c, 0, 64, 73
2, 112756, Control_c, 0, 64, 75
2, 112771, Control_c, 0, 64, 77
2, 112774, Note_on_c, 0, 56, 0
2, 112786, Control_c, 0, 64, 77
2, 112835, Note_on_c, 0, 75, 0
2, 112877, Control_c, 0, 64, 76
2, 112893, Control_c, 0, 64, 74
2, 112908, Control_c, 0, 64, 70
2, 112917, Note_on_c, 0, 75, 72
2, 112922, Note_on_c, 0, 58, 49
2, 112923, Control_c, 0, 64, 64
2, 112927, Note_on_c, 0, 65, 51
2, 112939, Control_c, 0, 64, 53
2, 112954, Control_c, 0, 64, 24
2, 112969, Control_c, 0, 64, 0
2, 112984, Control_c, 0, 64, 10
2, 112999, Control_c, 0, 64, 20
2, 113015, Control_c, 0, 64, 21
2, 113062, Note_on_c, 0, 58, 0
2, 113088, Note_on_c, 0, 56, 46
2, 113241, Note_on_c, 0, 56, 0
2, 113265, Note_on_c, 0, 58, 39
2, 113380, Note_on_c, 0, 65, 0
2, 113415, Note_on_c, 0, 58, 0
2, 113438, Note_on_c, 0, 60, 40
2, 113585, Control_c, 0, 64, 25
2, 113587, Note_on_c, 0, 75, 0
2, 113596, Note_on_c, 0, 60, 0
2, 113600, Control_c, 0, 64, 29
2, 113610, Note_on_c, 0, 74, 56
2, 113613, Note_on_c, 0, 58, 43
2, 113615, Control_c, 0, 64, 34
2, 113630, Control_c, 0, 64, 39
2, 113646, Control_c, 0, 64, 44
2, 113661, Control_c, 0, 64, 48
2, 113676, Control_c, 0, 64, 52
2, 113691, Control_c, 0, 64, 55
2, 113706, Control_c, 0, 64, 57
2, 113721, Control_c, 0, 64, 59
2, 113737, Control_c, 0, 64, 61
2, 113747, Note_on_c, 0, 58, 0
2, 113752, Control_c, 0, 64, 63
2, 113768, Control_c, 0, 64, 64
2, 113780, Note_on_c, 0, 56, 51
2, 113783, Control_c, 0, 64, 64
2, 113798, Control_c, 0, 64, 65
2, 113813, Control_c, 0, 64, 65
2, 113828, Control_c, 0, 64, 66
2, 113889, Control_c, 0, 64, 66
2, 113902, Note_on_c, 0, 56, 0
2, 113920, Note_on_c, 0, 74, 0
2, 113935, Note_on_c, 0, 55, 59
2, 114049, Control_c, 0, 64, 66
2, 114076, Note_on_c, 0, 55, 0
2, 114095, Control_c, 0, 64, 65
2, 114105, Note_on_c, 0, 53, 61
2, 114140, Control_c, 0, 64, 65
2, 114154, Control_c, 0, 64, 64
2, 114201, Control_c, 0, 64, 64
2, 114217, Control_c, 0, 64, 63
2, 114232, Control_c, 0, 64, 63
2, 114238, Note_on_c, 0, 53, 0
2, 114248, Control_c, 0, 64, 62
2, 114262, Control_c, 0, 64, 61
2, 114266, Note_on_c, 0, 79, 74
2, 114277, Control_c, 0, 64, 60
2, 114277, Note_on_c, 0, 52, 57
2, 114293, Control_c, 0, 64, 59
2, 114308, Control_c, 0, 64, 58
2, 114323, Control_c, 0, 64, 57
2, 114338, Control_c, 0, 64, 56
2, 114353, Control_c, 0, 64, 55
2, 114369, Control_c, 0, 64, 54
2, 114383, Control_c, 0, 64, 53
2, 114398, Control_c, 0, 64, 52
2, 114414, Control_c, 0, 64, 51
2, 114429, Control_c, 0, 64, 51
2, 114430, Note_on_c, 0, 58, 64
2, 114444, Control_c, 0, 64, 50
2, 114459, Control_c, 0, 64, 49
2, 114474, Control_c, 0, 64, 48
2, 114490, Control_c, 0, 64, 47
2, 114505, Control_c, 0, 64, 47
2, 114535, Control_c, 0, 64, 46
2, 114550, Control_c, 0, 64, 46
2, 114557, Note_on_c, 0, 58, 0
2, 114578, Note_on_c, 0, 60, 63
2, 114581, Control_c, 0, 64, 45
2, 114596, Control_c, 0, 64, 44
2, 114657, Control_c, 0, 64, 44
2, 114712, Note_on_c, 0, 60, 0
2, 114740, Note_on_c, 0, 61, 63
2, 114893, Note_on_c, 0, 61, 0
2, 114905, Note_on_c, 0, 60, 64
2, 115042, Note_on_c, 0, 60, 0
2, 115061, Note_on_c, 0, 58, 61
2, 115201, Note_on_c, 0, 58, 0
2, 115227, Note_on_c, 0, 56, 60
2, 115318, Control_c, 0, 64, 44
2, 115339, Note_on_c, 0, 56, 0
2, 115388, Note_on_c, 0, 55, 57
2, 115425, Control_c, 0, 64, 43
2, 115425, Note_on_c, 0, 52, 0
2, 115439, Control_c, 0, 64, 42
2, 115455, Control_c, 0, 64, 39
2, 115470, Control_c, 0, 64, 32
2, 115486, Control_c, 0, 64, 0
2, 115554, Note_on_c, 0, 55, 0
2, 115559, Note_on_c, 0, 60, 70
2, 115570, Note_on_c, 0, 56, 56
2, 115589, Note_on_c, 0, 79, 0
2, 115607, Note_on_c, 0, 70, 0
2, 115707, Note_on_c, 0, 70, 67
2, 115789, Note_on_c, 0, 70, 0
2, 115855, Note_on_c, 0, 72, 69
2, 115944, Note_on_c, 0, 72, 0
2, 116006, Note_on_c, 0, 73, 70
2, 116117, Note_on_c, 0, 73, 0
2, 116174, Note_on_c, 0, 77, 79
2, 116180, Note_on_c, 0, 72, 75
2, 116224, Control_c, 0, 64, 47
2, 116239, Control_c, 0, 64, 63
2, 116255, Control_c, 0, 64, 68
2, 116267, Note_on_c, 0, 72, 0
2, 116269, Control_c, 0, 64, 72
2, 116284, Control_c, 0, 64, 77
2, 116308, Control_c, 0, 64, 80
2, 116323, Control_c, 0, 64, 82
2, 116339, Control_c, 0, 64, 84
2, 116340, Note_on_c, 0, 70, 59
2, 116353, Control_c, 0, 64, 85
2, 116369, Control_c, 0, 64, 86
2, 116384, Control_c, 0, 64, 87
2, 116399, Control_c, 0, 64, 87
2, 116414, Control_c, 0, 64, 88
2, 116429, Control_c, 0, 64, 89
2, 116433, Note_on_c, 0, 70, 0
2, 116444, Control_c, 0, 64, 89
2, 116480, Note_on_c, 0, 77, 0
2, 116490, Control_c, 0, 64, 90
2, 116504, Note_on_c, 0, 68, 57
2, 116592, Note_on_c, 0, 68, 0
2, 116650, Note_on_c, 0, 67, 60
2, 116726, Note_on_c, 0, 67, 0
2, 116779, Control_c, 0, 64, 89
2, 116794, Control_c, 0, 64, 86
2, 116800, Note_on_c, 0, 60, 0
2, 116802, Note_on_c, 0, 56, 0
2, 116810, Control_c, 0, 64, 81
2, 116814, Note_on_c, 0, 71, 68
2, 116819, Note_on_c, 0, 65, 69
2, 116825, Control_c, 0, 64, 72
2, 116826, Note_on_c, 0, 62, 53
2, 116839, Control_c, 0, 64, 62
2, 116855, Control_c, 0, 64, 0
2, 116977, Control_c, 0, 64, 47
2, 116978, Note_on_c, 0, 62, 0
2, 116983, Note_on_c, 0, 53, 57
2, 116991, Control_c, 0, 64, 62
2, 117007, Control_c, 0, 64, 66
2, 117022, Control_c, 0, 64, 68
2, 117036, Control_c, 0, 64, 71
2, 117052, Control_c, 0, 64, 74
2, 117075, Control_c, 0, 64, 77
2, 117091, Control_c, 0, 64, 78
2, 117102, Note_on_c, 0, 65, 0
2, 117106, Control_c, 0, 64, 79
2, 117118, Note_on_c, 0, 53, 0
2, 117151, Control_c, 0, 64, 80
2, 117160, Note_on_c, 0, 55, 63
2, 117182, Note_on_c, 0, 71, 0
2, 117292, Note_on_c, 0, 55, 0
2, 117310, Note_on_c, 0, 56, 71
2, 117395, Control_c, 0, 64, 79
2, 117411, Control_c, 0, 64, 76
2, 117426, Control_c, 0, 64, 69
2, 117442, Control_c, 0, 64, 48
2, 117442, Note_on_c, 0, 56, 0
2, 117453, Note_on_c, 0, 67, 73
2, 117454, Note_on_c, 0, 72, 80
2, 117457, Control_c, 0, 64, 0
2, 117458, Note_on_c, 0, 63, 76
2, 117460, Note_on_c, 0, 55, 67
2, 117519, Control_c, 0, 64, 55
2, 117533, Control_c, 0, 64, 65
2, 117548, Control_c, 0, 64, 69
2, 117564, Control_c, 0, 64, 74
2, 117572, Note_on_c, 0, 63, 0
2, 117579, Control_c, 0, 64, 79
2, 117594, Control_c, 0, 64, 82
2, 117606, Note_on_c, 0, 72, 0
2, 117610, Control_c, 0, 64, 84
2, 117612, Note_on_c, 0, 53, 78
2, 117616, Note_on_c, 0, 55, 0
2, 117625, Control_c, 0, 64, 86
2, 117640, Control_c, 0, 64, 87
2, 117655, Control_c, 0, 64, 89
2, 117670, Control_c, 0, 64, 90
2, 117715, Control_c, 0, 64, 87
2, 117731, Control_c, 0, 64, 80
2, 117746, Control_c, 0, 64, 67
2, 117761, Control_c, 0, 64, 0
2, 117766, Note_on_c, 0, 71, 78
2, 117768, Note_on_c, 0, 74, 78
2, 117769, Note_on_c, 0, 65, 85
2, 117772, Note_on_c, 0, 51, 76
2, 117780, Note_on_c, 0, 53, 0
2, 117814, Note_on_c, 0, 67, 0
2, 117845, Control_c, 0, 64, 61
2, 117860, Control_c, 0, 64, 67
2, 117872, Note_on_c, 0, 74, 0
2, 117875, Control_c, 0, 64, 74
2, 117883, Note_on_c, 0, 51, 0
2, 117891, Control_c, 0, 64, 81
2, 117905, Control_c, 0, 64, 87
2, 117921, Control_c, 0, 64, 91
2, 117924, Note_on_c, 0, 50, 75
2, 117936, Control_c, 0, 64, 94
2, 117951, Control_c, 0, 64, 97
2, 117952, Note_on_c, 0, 65, 0
2, 117967, Control_c, 0, 64, 100
2, 117981, Control_c, 0, 64, 103
2, 117996, Control_c, 0, 64, 107
2, 118012, Control_c, 0, 64, 109
2, 118057, Control_c, 0, 64, 105
2, 118058, Note_on_c, 0, 71, 0
2, 118072, Control_c, 0, 64, 95
2, 118076, Note_on_c, 0, 50, 0
2, 118088, Control_c, 0, 64, 78
2, 118095, Note_on_c, 0, 75, 91
2, 118099, Note_on_c, 0, 72, 81
2, 118101, Note_on_c, 0, 48, 69
2, 118101, Note_on_c, 0, 67, 81
2, 118102, Control_c, 0, 64, 58
2, 118117, Control_c, 0, 64, 0
2, 118178, Control_c, 0, 64, 57
2, 118193, Control_c, 0, 64, 68
2, 118209, Control_c, 0, 64, 75
2, 118224, Control_c, 0, 64, 83
2, 118225, Note_on_c, 0, 67, 0
2, 118240, Control_c, 0, 64, 89
2, 118247, Note_on_c, 0, 46, 71
2, 118255, Control_c, 0, 64, 93
2, 118270, Control_c, 0, 64, 96
2, 118270, Note_on_c, 0, 48, 0
2, 118286, Control_c, 0, 64, 98
2, 118299, Note_on_c, 0, 75, 0
2, 118301, Control_c, 0, 64, 100
2, 118316, Control_c, 0, 64, 102
2, 118331, Control_c, 0, 64, 104
2, 118346, Control_c, 0, 64, 105
2, 118351, Note_on_c, 0, 46, 0
2, 118359, Note_on_c, 0, 72, 0
2, 118377, Control_c, 0, 64, 104
2, 118392, Note_on_c, 0, 76, 95
2, 118399, Note_on_c, 0, 67, 93
2, 118402, Note_on_c, 0, 48, 75
2, 118457, Note_on_c, 0, 67, 0
2, 118475, Note_on_c, 0, 76, 0
2, 118499, Control_c, 0, 64, 105
2, 118520, Note_on_c, 0, 48, 0
2, 118542, Note_on_c, 0, 49, 78
2, 118575, Control_c, 0, 64, 105
2, 118643, Control_c, 0, 64, 106
2, 118673, Control_c, 0, 64, 105
2, 118689, Control_c, 0, 64, 102
2, 118689, Note_on_c, 0, 49, 0
2, 118704, Control_c, 0, 64, 90
2, 118717, Note_on_c, 0, 77, 96
2, 118720, Control_c, 0, 64, 74
2, 118721, Note_on_c, 0, 74, 87
2, 118723, Note_on_c, 0, 68, 90
2, 118724, Note_on_c, 0, 48, 75
2, 118734, Control_c, 0, 64, 0
2, 118780, Control_c, 0, 64, 47
2, 118795, Control_c, 0, 64, 67
2, 118810, Control_c, 0, 64, 77
2, 118812, Note_on_c, 0, 68, 0
2, 118816, Note_on_c, 0, 74, 0
2, 118822, Note_on_c, 0, 77, 0
2, 118825, Control_c, 0, 64, 88
2, 118841, Control_c, 0, 64, 96
2, 118856, Control_c, 0, 64, 100
2, 118869, Note_on_c, 0, 46, 75
2, 118870, Control_c, 0, 64, 104
2, 118885, Note_on_c, 0, 48, 0
2, 118886, Control_c, 0, 64, 107
2, 118901, Control_c, 0, 64, 109
2, 118916, Control_c, 0, 64, 110
2, 118932, Control_c, 0, 64, 112
2, 118946, Control_c, 0, 64, 113
2, 118962, Control_c, 0, 64, 114
2, 118992, Control_c, 0, 64, 113
2, 119008, Control_c, 0, 64, 108
2, 119022, Control_c, 0, 64, 94
2, 119030, Note_on_c, 0, 79, 96
2, 119031, Note_on_c, 0, 44, 72
2, 119031, Note_on_c, 0, 70, 98
2, 119034, Note_on_c, 0, 46, 0
2, 119034, Note_on_c, 0, 76, 94
2, 119037, Control_c, 0, 64, 74
2, 119053, Control_c, 0, 64, 0
2, 119099, Control_c, 0, 64, 23
2, 119114, Control_c, 0, 64, 67
2, 119130, Control_c, 0, 64, 77
2, 119141, Note_on_c, 0, 70, 0
2, 119145, Control_c, 0, 64, 88
2, 119148, Note_on_c, 0, 79, 0
2, 119158, Note_on_c, 0, 44, 0
2, 119161, Control_c, 0, 64, 97
2, 119162, Note_on_c, 0, 76, 0
2, 119175, Control_c, 0, 64, 103
2, 119190, Control_c, 0, 64, 107
2, 119206, Control_c, 0, 64, 110
2, 119206, Note_on_c, 0, 43, 72
2, 119221, Control_c, 0, 64, 113
2, 119236, Control_c, 0, 64, 117
2, 119252, Control_c, 0, 64, 119
2, 119267, Control_c, 0, 64, 122
2, 119282, Control_c, 0, 64, 123
2, 119297, Control_c, 0, 64, 125
2, 119355, Note_on_c, 0, 43, 0
2, 119358, Control_c, 0, 64, 121
2, 119380, Control_c, 0, 64, 113
2, 119395, Control_c, 0, 64, 104
2, 119411, Control_c, 0, 64, 92
2, 119420, Note_on_c, 0, 80, 98
2, 119423, Note_on_c, 0, 41, 78
2, 119424, Note_on_c, 0, 77, 89
2, 119426, Control_c, 0, 64, 77
2, 119426, Note_on_c, 0, 72, 86
2, 119442, Control_c, 0, 64, 57
2, 119456, Control_c, 0, 64, 0
2, 119640, Note_on_c, 0, 75, 67
2, 119659, Note_on_c, 0, 77, 0
2, 119795, Note_on_c, 0, 75, 0
2, 119797, Note_on_c, 0, 77, 64
2, 119939, Note_on_c, 0, 79, 69
2, 119961, Note_on_c, 0, 77, 0
2, 120003, Note_on_c, 0, 72, 0
2, 120071, Note_on_c, 0, 46, 85
2, 120086, Note_on_c, 0, 77, 81
2, 120109, Note_on_c, 0, 41, 0
2, 120191, Note_on_c, 0, 79, 0
2, 120191, Note_on_c, 0, 80, 0
2, 120253, Note_on_c, 0, 75, 80
2, 120269, Note_on_c, 0, 77, 0
2, 120364, Note_on_c, 0, 75, 0
2, 120412, Note_on_c, 0, 74, 84
2, 120524, Note_on_c, 0, 74, 0
2, 120559, Note_on_c, 0, 72, 82
2, 120658, Note_on_c, 0, 72, 0
2, 120711, Note_on_c, 0, 74, 77
2, 120771, Control_c, 0, 64, 52
2, 120785, Control_c, 0, 64, 61
2, 120800, Control_c, 0, 64, 65
2, 120816, Control_c, 0, 64, 68
2, 120831, Control_c, 0, 64, 73
2, 120847, Control_c, 0, 64, 77
2, 120861, Control_c, 0, 64, 80
2, 120867, Note_on_c, 0, 80, 86
2, 120876, Control_c, 0, 64, 82
2, 120892, Control_c, 0, 64, 83
2, 120914, Control_c, 0, 64, 83
2, 120930, Control_c, 0, 64, 84
2, 120945, Control_c, 0, 64, 85
2, 120960, Control_c, 0, 64, 86
2, 120976, Control_c, 0, 64, 87
2, 120990, Control_c, 0, 64, 88
2, 120994, Note_on_c, 0, 80, 0
2, 121028, Note_on_c, 0, 82, 87
2, 121052, Control_c, 0, 64, 88
2, 121171, Note_on_c, 0, 84, 86
2, 121185, Note_on_c, 0, 82, 0
2, 121310, Control_c, 0, 64, 88
2, 121324, Control_c, 0, 64, 84
2, 121335, Note_on_c, 0, 43, 65
2, 121335, Note_on_c, 0, 82, 86
2, 121340, Control_c, 0, 64, 76
2, 121355, Control_c, 0, 64, 64
2, 121370, Note_on_c, 0, 84, 0
2, 121371, Control_c, 0, 64, 0
2, 121401, Note_on_c, 0, 46, 0
2, 121431, Control_c, 0, 64, 15
2, 121447, Control_c, 0, 64, 58
2, 121462, Control_c, 0, 64, 64
2, 121476, Control_c, 0, 64, 67
2, 121490, Note_on_c, 0, 80, 80
2, 121492, Control_c, 0, 64, 71
2, 121507, Control_c, 0, 64, 76
2, 121521, Control_c, 0, 64, 81
2, 121529, Note_on_c, 0, 74, 0
2, 121533, Note_on_c, 0, 82, 0
2, 121537, Control_c, 0, 64, 84
2, 121553, Control_c, 0, 64, 85
2, 121569, Control_c, 0, 64, 87
2, 121584, Control_c, 0, 64, 89
2, 121599, Control_c, 0, 64, 91
2, 121615, Control_c, 0, 64, 94
2, 121629, Control_c, 0, 64, 97
2, 121644, Control_c, 0, 64, 98
2, 121657, Note_on_c, 0, 79, 89
2, 121660, Control_c, 0, 64, 100
2, 121682, Control_c, 0, 64, 101
2, 121692, Note_on_c, 0, 80, 0
2, 121698, Control_c, 0, 64, 102
2, 121713, Control_c, 0, 64, 103
2, 121729, Control_c, 0, 64, 104
2, 121744, Control_c, 0, 64, 104
2, 121757, Note_on_c, 0, 79, 0
2, 121774, Control_c, 0, 64, 105
2, 121809, Note_on_c, 0, 77, 76
2, 121820, Control_c, 0, 64, 105
2, 121860, Note_on_c, 0, 77, 0
2, 121955, Control_c, 0, 64, 105
2, 121969, Note_on_c, 0, 51, 65
2, 121971, Control_c, 0, 64, 104
2, 121973, Note_on_c, 0, 48, 63
2, 121984, Note_on_c, 0, 75, 79
2, 121986, Control_c, 0, 64, 102
2, 122001, Control_c, 0, 64, 100
2, 122017, Control_c, 0, 64, 96
2, 122031, Control_c, 0, 64, 92
2, 122047, Control_c, 0, 64, 87
2, 122062, Control_c, 0, 64, 82
2, 122077, Control_c, 0, 64, 76
2, 122090, Note_on_c, 0, 43, 0
2, 122093, Control_c, 0, 64, 69
2, 122108, Control_c, 0, 64, 57
2, 122123, Control_c, 0, 64, 0
2, 122130, Note_on_c, 0, 70, 66
2, 122303, Note_on_c, 0, 72, 66
2, 122334, Note_on_c, 0, 75, 0
2, 122339, Note_on_c, 0, 70, 0
2, 122464, Note_on_c, 0, 73, 74
2, 122484, Note_on_c, 0, 72, 0
2, 122595, Note_on_c, 0, 73, 0
2, 122634, Note_on_c, 0, 72, 73
2, 122638, Note_on_c, 0, 56, 70
2, 122678, Note_on_c, 0, 51, 0
2, 122790, Note_on_c, 0, 70, 67
2, 122915, Note_on_c, 0, 72, 0
2, 122927, Note_on_c, 0, 70, 0
2, 122934, Note_on_c, 0, 72, 31
2, 122949, Note_on_c, 0, 68, 66
2, 123039, Note_on_c, 0, 68, 0
2, 123094, Note_on_c, 0, 67, 60
2, 123163, Note_on_c, 0, 67, 0
2, 123266, Note_on_c, 0, 72, 0
2, 123281, Note_on_c, 0, 50, 50
2, 123284, Note_on_c, 0, 70, 58
2, 123294, Note_on_c, 0, 65, 49
2, 123306, Note_on_c, 0, 48, 0
2, 123453, Note_on_c, 0, 65, 0
2, 123576, Note_on_c, 0, 46, 39
2, 123595, Note_on_c, 0, 67, 60
2, 123725, Note_on_c, 0, 67, 0
2, 123741, Note_on_c, 0, 68, 67
2, 123777, Note_on_c, 0, 70, 0
2, 123844, Note_on_c, 0, 56, 0
2, 123889, Note_on_c, 0, 46, 0
2, 123897, Note_on_c, 0, 50, 0
2, 123947, Note_on_c, 0, 51, 22
2, 123947, Note_on_c, 0, 68, 0
2, 123952, Note_on_c, 0, 70, 54
2, 123954, Note_on_c, 0, 55, 28
2, 124159, Note_on_c, 0, 68, 49
2, 124260, Note_on_c, 0, 68, 0
2, 124275, Control_c, 0, 64, 36
2, 124283, Note_on_c, 0, 51, 0
2, 124291, Control_c, 0, 64, 51
2, 124300, Note_on_c, 0, 50, 43
2, 124306, Control_c, 0, 64, 59
2, 124306, Note_on_c, 0, 67, 57
2, 124321, Control_c, 0, 64, 63
2, 124337, Control_c, 0, 64, 65
2, 124352, Control_c, 0, 64, 66
2, 124367, Control_c, 0, 64, 68
2, 124382, Control_c, 0, 64, 70
2, 124397, Control_c, 0, 64, 72
2, 124412, Control_c, 0, 64, 74
2, 124426, Note_on_c, 0, 67, 0
2, 124427, Control_c, 0, 64, 75
2, 124440, Note_on_c, 0, 65, 60
2, 124442, Control_c, 0, 64, 75
2, 124458, Control_c, 0, 64, 76
2, 124462, Note_on_c, 0, 55, 0
2, 124489, Note_on_c, 0, 65, 0
2, 124534, Control_c, 0, 64, 75
2, 124548, Control_c, 0, 64, 73
2, 124563, Control_c, 0, 64, 70
2, 124579, Control_c, 0, 64, 66
2, 124594, Control_c, 0, 64, 60
2, 124594, Note_on_c, 0, 48, 50
2, 124609, Note_on_c, 0, 63, 68
2, 124610, Control_c, 0, 64, 47
2, 124624, Control_c, 0, 64, 28
2, 124633, Note_on_c, 0, 60, 45
2, 124639, Control_c, 0, 64, 13
2, 124676, Note_on_c, 0, 60, 0
2, 124683, Note_on_c, 0, 50, 0
2, 124685, Control_c, 0, 64, 10
2, 124701, Control_c, 0, 64, 0
2, 124768, Note_on_c, 0, 63, 0
2, 124771, Note_on_c, 0, 62, 65
2, 124878, Note_on_c, 0, 62, 0
2, 124940, Note_on_c, 0, 60, 59
2, 125047, Note_on_c, 0, 70, 0
2, 125090, Note_on_c, 0, 58, 58
2, 125249, Note_on_c, 0, 63, 60
2, 125301, Note_on_c, 0, 60, 0
2, 125309, Note_on_c, 0, 48, 0
2, 125393, Note_on_c, 0, 68, 62
2, 125400, Note_on_c, 0, 63, 0
2, 125471, Note_on_c, 0, 68, 0
2, 125559, Note_on_c, 0, 63, 47
2, 125560, Note_on_c, 0, 70, 54
2, 125568, Control_c, 0, 64, 28
2, 125571, Note_on_c, 0, 46, 41
2, 125583, Control_c, 0, 64, 47
2, 125597, Control_c, 0, 64, 57
2, 125613, Control_c, 0, 64, 62
2, 125628, Control_c, 0, 64, 64
2, 125644, Control_c, 0, 64, 67
2, 125660, Control_c, 0, 64, 70
2, 125675, Control_c, 0, 64, 73
2, 125684, Note_on_c, 0, 70, 0
2, 125691, Control_c, 0, 64, 76
2, 125694, Note_on_c, 0, 72, 57
2, 125700, Note_on_c, 0, 58, 0
2, 125705, Control_c, 0, 64, 77
2, 125721, Control_c, 0, 64, 78
2, 125738, Note_on_c, 0, 63, 0
2, 125755, Note_on_c, 0, 72, 0
2, 125783, Note_on_c, 0, 46, 0
2, 125842, Control_c, 0, 64, 76
2, 125858, Control_c, 0, 64, 73
2, 125860, Note_on_c, 0, 63, 56
2, 125873, Control_c, 0, 64, 65
2, 125883, Note_on_c, 0, 45, 40
2, 125883, Note_on_c, 0, 65, 50
2, 125889, Control_c, 0, 64, 33
2, 125903, Control_c, 0, 64, 0
2, 125967, Note_on_c, 0, 63, 0
2, 125994, Control_c, 0, 64, 38
2, 126010, Control_c, 0, 64, 55
2, 126024, Control_c, 0, 64, 61
2, 126031, Note_on_c, 0, 57, 35
2, 126039, Control_c, 0, 64, 64
2, 126055, Control_c, 0, 64, 66
2, 126070, Control_c, 0, 64, 67
2, 126085, Control_c, 0, 64, 68
2, 126101, Control_c, 0, 64, 68
2, 126116, Control_c, 0, 64, 69
2, 126132, Control_c, 0, 64, 69
2, 126193, Note_on_c, 0, 58, 51
2, 126199, Note_on_c, 0, 65, 0
2, 126232, Note_on_c, 0, 57, 0
2, 126271, Note_on_c, 0, 58, 0
2, 126306, Control_c, 0, 64, 69
2, 126349, Note_on_c, 0, 60, 53
2, 126351, Control_c, 0, 64, 68
2, 126382, Control_c, 0, 64, 68
2, 126397, Control_c, 0, 64, 67
2, 126413, Control_c, 0, 64, 67
2, 126421, Note_on_c, 0, 60, 0
2, 126428, Control_c, 0, 64, 65
2, 126442, Control_c, 0, 64, 63
2, 126458, Control_c, 0, 64, 61
2, 126474, Control_c, 0, 64, 59
2, 126489, Control_c, 0, 64, 57
2, 126504, Control_c, 0, 64, 54
2, 126513, Note_on_c, 0, 62, 53
2, 126514, Note_on_c, 0, 65, 52
2, 126519, Control_c, 0, 64, 51
2, 126522, Note_on_c, 0, 58, 45
2, 126534, Note_on_c, 0, 45, 0
2, 126535, Control_c, 0, 64, 47
2, 126543, Note_on_c, 0, 46, 39
2, 126550, Control_c, 0, 64, 42
2, 126565, Control_c, 0, 64, 37
2, 126581, Control_c, 0, 64, 32
2, 126596, Control_c, 0, 64, 29
2, 126612, Control_c, 0, 64, 28
2, 126626, Control_c, 0, 64, 27
2, 126641, Control_c, 0, 64, 26
2, 126657, Control_c, 0, 64, 25
2, 126670, Note_on_c, 0, 56, 53
2, 126697, Note_on_c, 0, 58, 0
2, 126743, Note_on_c, 0, 62, 0
2, 126762, Control_c, 0, 64, 26
2, 126792, Control_c, 0, 64, 27
2, 126808, Control_c, 0, 64, 29
2, 126823, Control_c, 0, 64, 30
2, 126824, Note_on_c, 0, 55, 44
2, 126838, Control_c, 0, 64, 31
2, 126854, Control_c, 0, 64, 32
2, 126868, Control_c, 0, 64, 32
2, 126883, Control_c, 0, 64, 33
2, 126914, Control_c, 0, 64, 34
2, 126930, Control_c, 0, 64, 34
2, 126945, Note_on_c, 0, 56, 0
2, 126946, Note_on_c, 0, 55, 0
2, 126960, Control_c, 0, 64, 35
2, 126981, Note_on_c, 0, 53, 48
2, 126990, Control_c, 0, 64, 36
2, 127074, Control_c, 0, 64, 36
2, 127092, Note_on_c, 0, 53, 0
2, 127119, Note_on_c, 0, 65, 0
2, 127152, Note_on_c, 0, 63, 56
2, 127155, Note_on_c, 0, 54, 44
2, 127161, Note_on_c, 0, 60, 47
2, 127189, Note_on_c, 0, 46, 0
2, 127204, Note_on_c, 0, 54, 0
2, 127204, Note_on_c, 0, 54, 13
2, 127333, Note_on_c, 0, 45, 30
2, 127448, Note_on_c, 0, 45, 0
2, 127479, Note_on_c, 0, 46, 40
2, 127581, Note_on_c, 0, 60, 0
2, 127593, Note_on_c, 0, 46, 0
2, 127644, Note_on_c, 0, 48, 40
2, 127746, Note_on_c, 0, 54, 0
2, 127783, Note_on_c, 0, 48, 0
2, 127796, Note_on_c, 0, 46, 48
2, 127811, Note_on_c, 0, 53, 44
2, 127841, Control_c, 0, 64, 36
2, 127946, Note_on_c, 0, 46, 0
2, 127970, Note_on_c, 0, 45, 52
2, 128106, Note_on_c, 0, 45, 0
2, 128140, Note_on_c, 0, 43, 47
2, 128191, Note_on_c, 0, 53, 0
2, 128271, Note_on_c, 0, 43, 0
2, 128282, Control_c, 0, 64, 35
2, 128311, Note_on_c, 0, 41, 47
2, 128358, Control_c, 0, 64, 34
2, 128434, Note_on_c, 0, 63, 0
2, 128485, Note_on_c, 0, 53, 45
2, 128490, Note_on_c, 0, 41, 0
2, 128498, Note_on_c, 0, 62, 55
2, 128505, Note_on_c, 0, 46, 44
2, 128556, Control_c, 0, 64, 34
2, 128683, Note_on_c, 0, 65, 56
2, 128715, Control_c, 0, 64, 33
2, 128832, Note_on_c, 0, 65, 0
2, 128835, Note_on_c, 0, 67, 66
2, 128913, Control_c, 0, 64, 32
2, 128992, Note_on_c, 0, 68, 45
2, 128997, Note_on_c, 0, 67, 0
2, 129011, Note_on_c, 0, 69, 62
2, 129023, Note_on_c, 0, 68, 0
2, 129066, Control_c, 0, 64, 32
2, 129072, Note_on_c, 0, 69, 0
2, 129143, Note_on_c, 0, 53, 0
2, 129144, Note_on_c, 0, 51, 58
2, 129159, Note_on_c, 0, 67, 71
2, 129305, Note_on_c, 0, 65, 71
2, 129324, Note_on_c, 0, 62, 0
2, 129339, Control_c, 0, 64, 31
2, 129478, Note_on_c, 0, 63, 67
2, 129485, Note_on_c, 0, 67, 0
2, 129485, Note_on_c, 0, 67, 7
2, 129537, Note_on_c, 0, 46, 0
2, 129596, Note_on_c, 0, 63, 0
2, 129604, Note_on_c, 0, 65, 0
2, 129629, Note_on_c, 0, 62, 64
2, 129717, Note_on_c, 0, 62, 0
2, 129805, Note_on_c, 0, 67, 0
2, 129808, Note_on_c, 0, 68, 68
2, 129828, Note_on_c, 0, 60, 56
2, 129865, Control_c, 0, 64, 30
2, 129972, Control_c, 0, 64, 29
2, 129994, Note_on_c, 0, 60, 0
2, 130002, Control_c, 0, 64, 29
2, 130017, Control_c, 0, 64, 28
2, 130063, Control_c, 0, 64, 27
2, 130136, Note_on_c, 0, 62, 50
2, 130146, Control_c, 0, 64, 26
2, 130237, Control_c, 0, 64, 25
2, 130280, Note_on_c, 0, 62, 0
2, 130294, Note_on_c, 0, 63, 49
2, 130466, Note_on_c, 0, 63, 0
2, 130489, Note_on_c, 0, 51, 0
2, 130498, Note_on_c, 0, 50, 37
2, 130500, Note_on_c, 0, 65, 49
2, 130509, Control_c, 0, 64, 24
2, 130540, Control_c, 0, 64, 23
2, 130555, Control_c, 0, 64, 21
2, 130571, Control_c, 0, 64, 20
2, 130586, Control_c, 0, 64, 18
2, 130601, Control_c, 0, 64, 17
2, 130617, Control_c, 0, 64, 15
2, 130632, Control_c, 0, 64, 13
2, 130647, Control_c, 0, 64, 10
2, 130650, Note_on_c, 0, 65, 0
2, 130662, Control_c, 0, 64, 0
2, 130673, Note_on_c, 0, 63, 54
2, 130765, Note_on_c, 0, 63, 0
2, 130830, Note_on_c, 0, 62, 49
2, 130971, Note_on_c, 0, 62, 0
2, 130989, Note_on_c, 0, 60, 52
2, 131106, Note_on_c, 0, 50, 0
2, 131107, Note_on_c, 0, 60, 0
2, 131154, Note_on_c, 0, 58, 61
2, 131167, Note_on_c, 0, 55, 36
2, 131262, Note_on_c, 0, 55, 0
2, 131299, Note_on_c, 0, 68, 0
2, 131304, Note_on_c, 0, 65, 61
2, 131312, Note_on_c, 0, 56, 49
2, 131410, Note_on_c, 0, 56, 0
2, 131437, Note_on_c, 0, 58, 0
2, 131440, Note_on_c, 0, 65, 0
2, 131448, Control_c, 0, 64, 10
2, 131465, Note_on_c, 0, 55, 51
2, 131467, Note_on_c, 0, 58, 21
2, 131470, Note_on_c, 0, 67, 66
2, 131493, Control_c, 0, 64, 13
2, 131539, Control_c, 0, 64, 15
2, 131615, Control_c, 0, 64, 17
2, 131618, Note_on_c, 0, 55, 0
2, 131621, Note_on_c, 0, 58, 0
2, 131621, Note_on_c, 0, 58, 5
2, 131624, Note_on_c, 0, 67, 0
2, 131631, Note_on_c, 0, 68, 64
2, 131636, Note_on_c, 0, 53, 60
2, 131646, Control_c, 0, 64, 18
2, 131698, Control_c, 0, 64, 20
2, 131710, Note_on_c, 0, 58, 0
2, 131713, Control_c, 0, 64, 21
2, 131729, Control_c, 0, 64, 23
2, 131744, Control_c, 0, 64, 24
2, 131760, Control_c, 0, 64, 25
2, 131771, Note_on_c, 0, 53, 0
2, 131772, Note_on_c, 0, 68, 0
2, 131774, Control_c, 0, 64, 29
2, 131789, Control_c, 0, 64, 33
2, 131801, Note_on_c, 0, 67, 72
2, 131802, Note_on_c, 0, 55, 73
2, 131805, Control_c, 0, 64, 40
2, 131820, Control_c, 0, 64, 47
2, 131823, Note_on_c, 0, 58, 55
2, 131835, Control_c, 0, 64, 54
2, 131851, Control_c, 0, 64, 58
2, 131865, Control_c, 0, 64, 61
2, 131877, Note_on_c, 0, 58, 0
2, 131881, Control_c, 0, 64, 63
2, 131896, Control_c, 0, 64, 64
2, 131911, Control_c, 0, 64, 65
2, 131926, Control_c, 0, 64, 67
2, 131929, Note_on_c, 0, 67, 0
2, 131941, Control_c, 0, 64, 68
2, 131947, Note_on_c, 0, 65, 69
2, 131956, Control_c, 0, 64, 71
2, 131972, Control_c, 0, 64, 74
2, 131987, Control_c, 0, 64, 77
2, 132002, Control_c, 0, 64, 78
2, 132017, Control_c, 0, 64, 79
2, 132032, Control_c, 0, 64, 79
2, 132058, Note_on_c, 0, 65, 0
2, 132073, Note_on_c, 0, 55, 0
2, 132110, Note_on_c, 0, 53, 74
2, 132113, Note_on_c, 0, 63, 70
2, 132153, Control_c, 0, 64, 79
2, 132190, Note_on_c, 0, 63, 0
2, 132216, Control_c, 0, 64, 78
2, 132230, Control_c, 0, 64, 78
2, 132259, Note_on_c, 0, 62, 72
2, 132261, Control_c, 0, 64, 77
2, 132276, Control_c, 0, 64, 77
2, 132292, Control_c, 0, 64, 76
2, 132306, Control_c, 0, 64, 75
2, 132322, Control_c, 0, 64, 74
2, 132337, Control_c, 0, 64, 73
2, 132340, Note_on_c, 0, 62, 0
2, 132352, Control_c, 0, 64, 72
2, 132368, Control_c, 0, 64, 70
2, 132383, Control_c, 0, 64, 68
2, 132398, Control_c, 0, 64, 66
2, 132413, Control_c, 0, 64, 64
2, 132435, Control_c, 0, 64, 63
2, 132444, Note_on_c, 0, 52, 60
2, 132444, Note_on_c, 0, 60, 71
2, 132449, Note_on_c, 0, 58, 70
2, 132451, Control_c, 0, 64, 62
2, 132466, Control_c, 0, 64, 62
2, 132468, Note_on_c, 0, 53, 0
2, 132497, Control_c, 0, 64, 61
2, 132511, Control_c, 0, 64, 59
2, 132527, Control_c, 0, 64, 58
2, 132542, Control_c, 0, 64, 56
2, 132557, Control_c, 0, 64, 55
2, 132572, Control_c, 0, 64, 54
2, 132587, Control_c, 0, 64, 53
2, 132591, Note_on_c, 0, 58, 0
2, 132598, Note_on_c, 0, 55, 67
2, 132603, Control_c, 0, 64, 51
2, 132618, Control_c, 0, 64, 48
2, 132633, Control_c, 0, 64, 44
2, 132649, Control_c, 0, 64, 40
2, 132664, Control_c, 0, 64, 34
2, 132680, Control_c, 0, 64, 29
2, 132695, Control_c, 0, 64, 21
2, 132710, Control_c, 0, 64, 10
2, 132726, Control_c, 0, 64, 0
2, 132756, Note_on_c, 0, 55, 0
2, 132765, Note_on_c, 0, 57, 65
2, 132899, Note_on_c, 0, 58, 70
2, 132906, Note_on_c, 0, 60, 0
2, 132907, Note_on_c, 0, 57, 0
2, 133021, Note_on_c, 0, 52, 0
2, 133031, Note_on_c, 0, 58, 0
2, 133054, Note_on_c, 0, 53, 56
2, 133061, Note_on_c, 0, 57, 64
2, 133208, Note_on_c, 0, 60, 72
2, 133220, Note_on_c, 0, 53, 0
2, 133368, Note_on_c, 0, 62, 77
2, 133376, Note_on_c, 0, 51, 55
2, 133407, Note_on_c, 0, 60, 0
2, 133487, Note_on_c, 0, 51, 0
2, 133512, Note_on_c, 0, 63, 77
2, 133560, Note_on_c, 0, 62, 0
2, 133680, Note_on_c, 0, 50, 43
2, 133697, Note_on_c, 0, 65, 70
2, 133708, Note_on_c, 0, 57, 0
2, 133740, Note_on_c, 0, 63, 0
2, 133847, Note_on_c, 0, 57, 40
2, 133978, Note_on_c, 0, 57, 0
2, 134020, Note_on_c, 0, 59, 43
2, 134132, Note_on_c, 0, 59, 0
2, 134171, Note_on_c, 0, 60, 46
2, 134251, Note_on_c, 0, 60, 0
2, 134312, Note_on_c, 0, 65, 0
2, 134317, Note_on_c, 0, 59, 51
2, 134467, Note_on_c, 0, 63, 62
2, 134630, Note_on_c, 0, 65, 65
2, 134803, Note_on_c, 0, 67, 71
2, 134805, Note_on_c, 0, 63, 0
2, 134841, Note_on_c, 0, 65, 0
2, 134961, Note_on_c, 0, 50, 0
2, 134975, Note_on_c, 0, 68, 73
2, 135014, Note_on_c, 0, 67, 0
2, 135101, Note_on_c, 0, 59, 0
2, 135126, Note_on_c, 0, 50, 45
2, 135275, Note_on_c, 0, 50, 0
2, 135283, Note_on_c, 0, 59, 58
2, 135289, Note_on_c, 0, 51, 59
2, 135415, Note_on_c, 0, 51, 0
2, 135434, Note_on_c, 0, 53, 66
2, 135582, Note_on_c, 0, 53, 0
2, 135592, Note_on_c, 0, 59, 0
2, 135605, Note_on_c, 0, 51, 65
2, 135609, Note_on_c, 0, 60, 70
2, 135732, Note_on_c, 0, 51, 0
2, 135754, Note_on_c, 0, 50, 63
2, 135891, Note_on_c, 0, 50, 0
2, 135914, Note_on_c, 0, 48, 57
2, 135924, Note_on_c, 0, 62, 60
2, 135939, Note_on_c, 0, 60, 0
2, 136025, Control_c, 0, 64, 17
2, 136041, Control_c, 0, 64, 40
2, 136052, Note_on_c, 0, 48, 0
2, 136056, Control_c, 0, 64, 52
2, 136063, Note_on_c, 0, 47, 58
2, 136070, Control_c, 0, 64, 57
2, 136080, Note_on_c, 0, 62, 0
2, 136086, Control_c, 0, 64, 60
2, 136101, Control_c, 0, 64, 61
2, 136116, Control_c, 0, 64, 62
2, 136132, Control_c, 0, 64, 63
2, 136146, Control_c, 0, 64, 64
2, 136177, Control_c, 0, 64, 63
2, 136184, Note_on_c, 0, 68, 0
2, 136192, Control_c, 0, 64, 62
2, 136208, Control_c, 0, 64, 52
2, 136220, Note_on_c, 0, 47, 0
2, 136223, Control_c, 0, 64, 0
2, 136231, Note_on_c, 0, 63, 60
2, 136242, Note_on_c, 0, 48, 52
2, 136307, Control_c, 0, 64, 40
2, 136323, Control_c, 0, 64, 58
2, 136338, Control_c, 0, 64, 62
2, 136353, Control_c, 0, 64, 64
2, 136369, Control_c, 0, 64, 64
2, 136396, Control_c, 0, 64, 64
2, 136412, Control_c, 0, 64, 63
2, 136412, Note_on_c, 0, 48, 0
2, 136426, Control_c, 0, 64, 62
2, 136429, Note_on_c, 0, 47, 64
2, 136441, Control_c, 0, 64, 59
2, 136457, Control_c, 0, 64, 57
2, 136472, Control_c, 0, 64, 56
2, 136503, Control_c, 0, 64, 56
2, 136517, Control_c, 0, 64, 54
2, 136533, Control_c, 0, 64, 52
2, 136548, Control_c, 0, 64, 49
2, 136563, Control_c, 0, 64, 47
2, 136578, Control_c, 0, 64, 46
2, 136582, Note_on_c, 0, 48, 72
2, 136583, Note_on_c, 0, 47, 0
2, 136590, Note_on_c, 0, 67, 76
2, 136593, Control_c, 0, 64, 45
2, 136609, Control_c, 0, 64, 43
2, 136624, Control_c, 0, 64, 41
2, 136639, Control_c, 0, 64, 38
2, 136655, Control_c, 0, 64, 37
2, 136670, Control_c, 0, 64, 36
2, 136700, Control_c, 0, 64, 36
2, 136732, Note_on_c, 0, 48, 0
2, 136737, Note_on_c, 0, 50, 79
2, 136746, Control_c, 0, 64, 36
2, 136761, Control_c, 0, 64, 37
2, 136791, Control_c, 0, 64, 37
2, 136820, Control_c, 0, 64, 37
2, 136897, Note_on_c, 0, 50, 0
2, 136902, Note_on_c, 0, 48, 80
2, 136903, Note_on_c, 0, 68, 84
2, 136936, Note_on_c, 0, 67, 0
2, 137069, Note_on_c, 0, 46, 76
2, 137085, Control_c, 0, 64, 36
2, 137089, Note_on_c, 0, 48, 0
2, 137178, Control_c, 0, 64, 36
2, 137193, Control_c, 0, 64, 35
2, 137208, Control_c, 0, 64, 33
2, 137216, Note_on_c, 0, 70, 85
2, 137218, Note_on_c, 0, 44, 79
2, 137222, Note_on_c, 0, 46, 0
2, 137223, Control_c, 0, 64, 29
2, 137238, Control_c, 0, 64, 24
2, 137242, Note_on_c, 0, 68, 0
2, 137254, Control_c, 0, 64, 21
2, 137269, Control_c, 0, 64, 20
2, 137283, Control_c, 0, 64, 15
2, 137299, Control_c, 0, 64, 0
2, 137367, Note_on_c, 0, 43, 82
2, 137367, Note_on_c, 0, 44, 0
2, 137552, Note_on_c, 0, 48, 78
2, 137554, Note_on_c, 0, 44, 71
2, 137554, Note_on_c, 0, 72, 84
2, 137579, Note_on_c, 0, 63, 0
2, 137585, Note_on_c, 0, 43, 0
2, 137595, Note_on_c, 0, 70, 0
2, 137710, Note_on_c, 0, 63, 73
2, 137835, Note_on_c, 0, 63, 0
2, 137884, Note_on_c, 0, 65, 73
2, 138028, Note_on_c, 0, 67, 75
2, 138058, Note_on_c, 0, 65, 0
2, 138181, Note_on_c, 0, 67, 0
2, 138190, Note_on_c, 0, 53, 88
2, 138193, Note_on_c, 0, 72, 0
2, 138202, Note_on_c, 0, 65, 75
2, 138358, Note_on_c, 0, 75, 70
2, 138398, Note_on_c, 0, 65, 0
2, 138447, Note_on_c, 0, 75, 0
2, 138463, Note_on_c, 0, 48, 0
2, 138511, Note_on_c, 0, 74, 69
2, 138627, Note_on_c, 0, 74, 0
2, 138667, Note_on_c, 0, 72, 81
2, 138713, Note_on_c, 0, 44, 0
2, 138789, Control_c, 0, 64, 13
2, 138804, Control_c, 0, 64, 38
2, 138812, Note_on_c, 0, 72, 0
2, 138820, Control_c, 0, 64, 48
2, 138834, Control_c, 0, 64, 54
2, 138840, Note_on_c, 0, 71, 78
2, 138845, Note_on_c, 0, 67, 77
2, 138849, Control_c, 0, 64, 58
2, 138865, Control_c, 0, 64, 60
2, 138879, Control_c, 0, 64, 62
2, 138895, Control_c, 0, 64, 63
2, 138910, Control_c, 0, 64, 64
2, 138925, Control_c, 0, 64, 65
2, 138941, Control_c, 0, 64, 65
2, 138955, Control_c, 0, 64, 66
2, 138970, Control_c, 0, 64, 66
2, 138986, Control_c, 0, 64, 67
2, 138996, Note_on_c, 0, 43, 73
2, 139071, Note_on_c, 0, 72, 59
2, 139092, Control_c, 0, 64, 66
2, 139118, Note_on_c, 0, 71, 0
2, 139124, Note_on_c, 0, 72, 0
2, 139135, Note_on_c, 0, 45, 76
2, 139150, Note_on_c, 0, 53, 0
2, 139153, Control_c, 0, 64, 66
2, 139166, Note_on_c, 0, 72, 69
2, 139168, Note_on_c, 0, 43, 0
2, 139229, Control_c, 0, 64, 65
2, 139260, Control_c, 0, 64, 65
2, 139280, Note_on_c, 0, 47, 76
2, 139282, Note_on_c, 0, 45, 0
2, 139289, Control_c, 0, 64, 64
2, 139305, Control_c, 0, 64, 62
2, 139311, Note_on_c, 0, 74, 85
2, 139320, Control_c, 0, 64, 59
2, 139340, Note_on_c, 0, 72, 0
2, 139343, Control_c, 0, 64, 49
2, 139358, Control_c, 0, 64, 0
2, 139438, Note_on_c, 0, 47, 0
2, 139454, Note_on_c, 0, 48, 70
2, 139456, Note_on_c, 0, 75, 90
2, 139459, Note_on_c, 0, 51, 80
2, 139482, Note_on_c, 0, 74, 0
2, 139510, Control_c, 0, 64, 15
2, 139525, Control_c, 0, 64, 57
2, 139542, Control_c, 0, 64, 64
2, 139557, Control_c, 0, 64, 67
2, 139567, Note_on_c, 0, 75, 0
2, 139572, Control_c, 0, 64, 69
2, 139588, Control_c, 0, 64, 72
2, 139603, Control_c, 0, 64, 75
2, 139615, Note_on_c, 0, 74, 85
2, 139618, Control_c, 0, 64, 77
2, 139633, Control_c, 0, 64, 78
2, 139648, Control_c, 0, 64, 80
2, 139664, Control_c, 0, 64, 80
2, 139679, Control_c, 0, 64, 81
2, 139695, Control_c, 0, 64, 82
2, 139695, Note_on_c, 0, 48, 0
2, 139710, Control_c, 0, 64, 83
2, 139724, Control_c, 0, 64, 83
2, 139724, Note_on_c, 0, 51, 0
2, 139740, Control_c, 0, 64, 84
2, 139755, Control_c, 0, 64, 84
2, 139770, Control_c, 0, 64, 85
2, 139771, Note_on_c, 0, 72, 80
2, 139786, Control_c, 0, 64, 85
2, 139788, Note_on_c, 0, 74, 0
2, 139800, Control_c, 0, 64, 86
2, 139800, Note_on_c, 0, 67, 0
2, 139831, Control_c, 0, 64, 86
2, 139850, Note_on_c, 0, 72, 0
2, 139891, Control_c, 0, 64, 87
2, 139909, Note_on_c, 0, 70, 83
2, 139951, Note_on_c, 0, 70, 0
2, 140056, Note_on_c, 0, 56, 92
2, 140059, Control_c, 0, 64, 86
2, 140066, Note_on_c, 0, 68, 86
2, 140074, Control_c, 0, 64, 85
2, 140088, Control_c, 0, 64, 83
2, 140112, Control_c, 0, 64, 80
2, 140127, Control_c, 0, 64, 75
2, 140142, Control_c, 0, 64, 68
2, 140157, Control_c, 0, 64, 50
2, 140172, Control_c, 0, 64, 0
2, 140191, Note_on_c, 0, 68, 0
2, 140212, Note_on_c, 0, 48, 81
2, 140218, Note_on_c, 0, 67, 82
2, 140340, Note_on_c, 0, 67, 0
2, 140341, Note_on_c, 0, 48, 0
2, 140351, Note_on_c, 0, 50, 76
2, 140361, Note_on_c, 0, 65, 85
2, 140500, Note_on_c, 0, 51, 69
2, 140501, Note_on_c, 0, 50, 0
2, 140508, Note_on_c, 0, 63, 82
2, 140509, Note_on_c, 0, 65, 0
2, 140636, Note_on_c, 0, 63, 0
2, 140639, Note_on_c, 0, 51, 0
2, 140667, Note_on_c, 0, 56, 0
2, 140671, Note_on_c, 0, 62, 88
2, 140682, Note_on_c, 0, 56, 50
2, 140686, Note_on_c, 0, 53, 78
2, 140690, Control_c, 0, 64, 62
2, 140705, Control_c, 0, 64, 70
2, 140722, Control_c, 0, 64, 79
2, 140738, Control_c, 0, 64, 86
2, 140738, Note_on_c, 0, 62, 0
2, 140753, Control_c, 0, 64, 92
2, 140769, Control_c, 0, 64, 96
2, 140775, Note_on_c, 0, 53, 0
2, 140783, Control_c, 0, 64, 98
2, 140798, Control_c, 0, 64, 100
2, 140814, Control_c, 0, 64, 102
2, 140829, Control_c, 0, 64, 103
2, 140834, Note_on_c, 0, 74, 92
2, 140844, Control_c, 0, 64, 104
2, 140859, Control_c, 0, 64, 105
2, 140882, Control_c, 0, 64, 106
2, 140912, Control_c, 0, 64, 107
2, 140982, Note_on_c, 0, 74, 0
2, 141003, Control_c, 0, 64, 106
2, 141019, Control_c, 0, 64, 100
2, 141028, Note_on_c, 0, 56, 0
2, 141028, Note_on_c, 0, 56, 28
2, 141034, Control_c, 0, 64, 87
2, 141039, Note_on_c, 0, 75, 95
2, 141045, Note_on_c, 0, 53, 82
2, 141050, Control_c, 0, 64, 68
2, 141064, Control_c, 0, 64, 0
2, 141124, Control_c, 0, 64, 63
2, 141140, Control_c, 0, 64, 71
2, 141155, Control_c, 0, 64, 80
2, 141169, Note_on_c, 0, 75, 0
2, 141171, Control_c, 0, 64, 87
2, 141186, Control_c, 0, 64, 92
2, 141187, Note_on_c, 0, 53, 0
2, 141190, Note_on_c, 0, 56, 0
2, 141201, Control_c, 0, 64, 95
2, 141216, Note_on_c, 0, 77, 96
2, 141217, Control_c, 0, 64, 98
2, 141232, Control_c, 0, 64, 101
2, 141248, Control_c, 0, 64, 105
2, 141263, Control_c, 0, 64, 108
2, 141269, Note_on_c, 0, 77, 0
2, 141278, Control_c, 0, 64, 111
2, 141293, Control_c, 0, 64, 114
2, 141308, Control_c, 0, 64, 116
2, 141323, Control_c, 0, 64, 117
2, 141339, Control_c, 0, 64, 118
2, 141445, Control_c, 0, 64, 117
2, 141454, Note_on_c, 0, 55, 82
2, 141457, Note_on_c, 0, 53, 76
2, 141461, Control_c, 0, 64, 114
2, 141476, Control_c, 0, 64, 107
2, 141491, Control_c, 0, 64, 98
2, 141496, Note_on_c, 0, 71, 90
2, 141497, Note_on_c, 0, 62, 94
2, 141506, Control_c, 0, 64, 87
2, 141521, Control_c, 0, 64, 74
2, 141536, Control_c, 0, 64, 0
2, 141756, Control_c, 0, 64, 34
2, 141772, Control_c, 0, 64, 58
2, 141787, Control_c, 0, 64, 64
2, 141800, Note_on_c, 0, 72, 87
2, 141802, Control_c, 0, 64, 68
2, 141818, Control_c, 0, 64, 73
2, 141832, Control_c, 0, 64, 78
2, 141835, Note_on_c, 0, 71, 0
2, 141838, Note_on_c, 0, 62, 0
2, 141847, Control_c, 0, 64, 81
2, 141862, Control_c, 0, 64, 83
2, 141877, Control_c, 0, 64, 84
2, 141893, Control_c, 0, 64, 85
2, 141901, Note_on_c, 0, 72, 0
2, 141907, Control_c, 0, 64, 85
2, 141922, Control_c, 0, 64, 87
2, 141938, Control_c, 0, 64, 88
2, 141948, Note_on_c, 0, 74, 86
2, 141953, Control_c, 0, 64, 89
2, 141969, Control_c, 0, 64, 90
2, 141972, Note_on_c, 0, 53, 0
2, 141984, Control_c, 0, 64, 90
2, 141999, Control_c, 0, 64, 91
2, 142045, Control_c, 0, 64, 91
2, 142073, Note_on_c, 0, 55, 0
2, 142091, Control_c, 0, 64, 91
2, 142100, Note_on_c, 0, 51, 81
2, 142106, Control_c, 0, 64, 90
2, 142121, Control_c, 0, 64, 88
2, 142124, Note_on_c, 0, 72, 88
2, 142125, Note_on_c, 0, 67, 86
2, 142137, Control_c, 0, 64, 82
2, 142152, Control_c, 0, 64, 71
2, 142158, Note_on_c, 0, 74, 0
2, 142168, Control_c, 0, 64, 0
2, 142254, Note_on_c, 0, 67, 0
2, 142272, Note_on_c, 0, 70, 86
2, 142304, Control_c, 0, 64, 55
2, 142305, Note_on_c, 0, 72, 0
2, 142319, Control_c, 0, 64, 68
2, 142334, Control_c, 0, 64, 78
2, 142349, Control_c, 0, 64, 88
2, 142364, Control_c, 0, 64, 94
2, 142379, Control_c, 0, 64, 98
2, 142394, Control_c, 0, 64, 99
2, 142397, Note_on_c, 0, 51, 0
2, 142418, Control_c, 0, 64, 100
2, 142430, Note_on_c, 0, 68, 92
2, 142462, Note_on_c, 0, 70, 0
2, 142515, Note_on_c, 0, 68, 0
2, 142579, Note_on_c, 0, 67, 92
2, 142695, Note_on_c, 0, 56, 85
2, 142751, Control_c, 0, 64, 99
2, 142782, Control_c, 0, 64, 99
2, 142797, Control_c, 0, 64, 98
2, 142812, Control_c, 0, 64, 97
2, 142815, Note_on_c, 0, 72, 99
2, 142827, Control_c, 0, 64, 95
2, 142843, Control_c, 0, 64, 91
2, 142854, Note_on_c, 0, 67, 0
2, 142859, Control_c, 0, 64, 87
2, 142874, Control_c, 0, 64, 82
2, 142883, Note_on_c, 0, 56, 0
2, 142890, Control_c, 0, 64, 75
2, 142904, Control_c, 0, 64, 66
2, 142919, Control_c, 0, 64, 0
2, 142978, Note_on_c, 0, 60, 68
2, 143130, Note_on_c, 0, 61, 79
2, 143136, Note_on_c, 0, 60, 0
2, 143185, Control_c, 0, 64, 41
2, 143200, Control_c, 0, 64, 60
2, 143216, Control_c, 0, 64, 65
2, 143231, Control_c, 0, 64, 68
2, 143247, Control_c, 0, 64, 71
2, 143262, Control_c, 0, 64, 74
2, 143277, Control_c, 0, 64, 77
2, 143283, Note_on_c, 0, 61, 0
2, 143283, Note_on_c, 0, 63, 80
2, 143293, Control_c, 0, 64, 79
2, 143307, Control_c, 0, 64, 81
2, 143322, Control_c, 0, 64, 82
2, 143338, Control_c, 0, 64, 82
2, 143378, Note_on_c, 0, 63, 0
2, 143439, Note_on_c, 0, 61, 73
2, 143452, Note_on_c, 0, 65, 91
2, 143561, Note_on_c, 0, 61, 0
2, 143597, Note_on_c, 0, 60, 73
2, 143603, Note_on_c, 0, 65, 0
2, 143653, Note_on_c, 0, 72, 0
2, 143729, Note_on_c, 0, 60, 0
2, 143757, Note_on_c, 0, 58, 76
2, 143892, Note_on_c, 0, 56, 77
2, 143903, Note_on_c, 0, 58, 0
2, 143984, Control_c, 0, 64, 82
2, 144029, Control_c, 0, 64, 81
2, 144041, Note_on_c, 0, 56, 0
2, 144044, Control_c, 0, 64, 81
2, 144060, Control_c, 0, 64, 80
2, 144063, Note_on_c, 0, 55, 80
2, 144068, Note_on_c, 0, 70, 98
2, 144075, Control_c, 0, 64, 78
2, 144091, Control_c, 0, 64, 74
2, 144105, Control_c, 0, 64, 67
2, 144120, Control_c, 0, 64, 55
2, 144136, Control_c, 0, 64, 0
2, 144219, Note_on_c, 0, 55, 0
2, 144220, Note_on_c, 0, 52, 84
2, 144390, Note_on_c, 0, 53, 84
2, 144391, Note_on_c, 0, 74, 93
2, 144395, Note_on_c, 0, 52, 0
2, 144537, Note_on_c, 0, 53, 0
2, 144544, Note_on_c, 0, 55, 81
2, 144716, Note_on_c, 0, 53, 87
2, 144718, Note_on_c, 0, 55, 0
2, 144723, Note_on_c, 0, 76, 87
2, 144750, Note_on_c, 0, 74, 0
2, 144891, Note_on_c, 0, 52, 78
2, 144920, Note_on_c, 0, 53, 0
2, 145063, Note_on_c, 0, 50, 81
2, 145069, Note_on_c, 0, 52, 0
2, 145221, Note_on_c, 0, 48, 81
2, 145229, Note_on_c, 0, 50, 0
2, 145415, Note_on_c, 0, 53, 72
2, 145432, Note_on_c, 0, 77, 83
2, 145460, Note_on_c, 0, 76, 0
2, 145475, Note_on_c, 0, 48, 0
2, 145594, Note_on_c, 0, 70, 0
2, 145632, Note_on_c, 0, 72, 79
2, 145672, Note_on_c, 0, 77, 0
2, 145787, Note_on_c, 0, 73, 84
2, 145789, Note_on_c, 0, 68, 81
2, 145797, Note_on_c, 0, 72, 0
2, 145930, Note_on_c, 0, 73, 0
2, 145930, Note_on_c, 0, 75, 86
2, 146069, Note_on_c, 0, 75, 0
2, 146083, Note_on_c, 0, 73, 80
2, 146096, Note_on_c, 0, 68, 0
2, 146229, Note_on_c, 0, 53, 0
2, 146255, Note_on_c, 0, 72, 73
2, 146268, Note_on_c, 0, 56, 55
2, 146399, Note_on_c, 0, 72, 0
2, 146408, Note_on_c, 0, 56, 0
2, 146413, Note_on_c, 0, 70, 71
2, 146426, Note_on_c, 0, 58, 67
2, 146535, Note_on_c, 0, 70, 0
2, 146563, Note_on_c, 0, 58, 0
2, 146579, Note_on_c, 0, 68, 76
2, 146582, Note_on_c, 0, 60, 62
2, 146696, Note_on_c, 0, 68, 0
2, 146717, Note_on_c, 0, 60, 0
2, 146740, Note_on_c, 0, 58, 65
2, 146740, Note_on_c, 0, 67, 71
2, 146889, Note_on_c, 0, 58, 0
2, 146901, Note_on_c, 0, 56, 66
2, 147022, Note_on_c, 0, 56, 0
2, 147068, Note_on_c, 0, 55, 63
2, 147213, Note_on_c, 0, 55, 0
2, 147224, Note_on_c, 0, 53, 64
2, 147352, Note_on_c, 0, 53, 0
2, 147374, Note_on_c, 0, 73, 0
2, 147380, Note_on_c, 0, 55, 40
2, 147382, Note_on_c, 0, 51, 60
2, 147393, Note_on_c, 0, 72, 79
2, 147405, Control_c, 0, 64, 50
2, 147411, Note_on_c, 0, 67, 0
2, 147421, Control_c, 0, 64, 63
2, 147435, Control_c, 0, 64, 68
2, 147451, Control_c, 0, 64, 72
2, 147466, Control_c, 0, 64, 77
2, 147481, Control_c, 0, 64, 81
2, 147497, Control_c, 0, 64, 83
2, 147511, Control_c, 0, 64, 85
2, 147526, Control_c, 0, 64, 86
2, 147526, Note_on_c, 0, 51, 0
2, 147542, Control_c, 0, 64, 88
2, 147547, Note_on_c, 0, 48, 72
2, 147550, Note_on_c, 0, 55, 0
2, 147557, Control_c, 0, 64, 89
2, 147573, Control_c, 0, 64, 90
2, 147588, Control_c, 0, 64, 91
2, 147613, Note_on_c, 0, 72, 0
2, 147678, Note_on_c, 0, 48, 0
2, 147707, Note_on_c, 0, 49, 71
2, 147864, Note_on_c, 0, 51, 77
2, 147879, Note_on_c, 0, 49, 0
2, 148006, Control_c, 0, 64, 90
2, 148016, Note_on_c, 0, 51, 0
2, 148022, Control_c, 0, 64, 88
2, 148037, Control_c, 0, 64, 84
2, 148037, Note_on_c, 0, 49, 71
2, 148042, Note_on_c, 0, 77, 105
2, 148053, Control_c, 0, 64, 79
2, 148067, Control_c, 0, 64, 71
2, 148082, Control_c, 0, 64, 57
2, 148098, Control_c, 0, 64, 0
2, 148213, Note_on_c, 0, 48, 71
2, 148221, Note_on_c, 0, 80, 93
2, 148358, Note_on_c, 0, 48, 0
2, 148362, Note_on_c, 0, 46, 73
2, 148368, Note_on_c, 0, 82, 90
2, 148371, Note_on_c, 0, 80, 0
2, 148428, Note_on_c, 0, 49, 0
2, 148509, Note_on_c, 0, 46, 0
2, 148513, Note_on_c, 0, 44, 73
2, 148514, Note_on_c, 0, 84, 87
2, 148535, Note_on_c, 0, 82, 0
2, 148654, Note_on_c, 0, 84, 0
2, 148667, Note_on_c, 0, 44, 0
2, 148683, Note_on_c, 0, 49, 83
2, 148685, Note_on_c, 0, 82, 89
2, 148699, Control_c, 0, 64, 47
2, 148713, Control_c, 0, 64, 66
2, 148729, Control_c, 0, 64, 72
2, 148744, Control_c, 0, 64, 79
2, 148758, Control_c, 0, 64, 85
2, 148774, Control_c, 0, 64, 89
2, 148775, Note_on_c, 0, 77, 0
2, 148789, Control_c, 0, 64, 91
2, 148804, Control_c, 0, 64, 94
2, 148820, Control_c, 0, 64, 96
2, 148835, Control_c, 0, 64, 98
2, 148844, Note_on_c, 0, 80, 89
2, 148846, Note_on_c, 0, 49, 0
2, 148851, Control_c, 0, 64, 100
2, 148865, Control_c, 0, 64, 102
2, 148880, Control_c, 0, 64, 103
2, 148884, Note_on_c, 0, 82, 0
2, 148896, Control_c, 0, 64, 104
2, 148910, Control_c, 0, 64, 105
2, 148925, Control_c, 0, 64, 105
2, 148972, Control_c, 0, 64, 106
2, 149005, Note_on_c, 0, 49, 95
2, 149006, Note_on_c, 0, 79, 91
2, 149039, Note_on_c, 0, 80, 0
2, 149086, Note_on_c, 0, 79, 0
2, 149147, Note_on_c, 0, 77, 79
2, 149171, Note_on_c, 0, 49, 0
2, 149290, Note_on_c, 0, 77, 0
2, 149306, Control_c, 0, 64, 104
2, 149324, Note_on_c, 0, 49, 92
2, 149328, Control_c, 0, 64, 101
2, 149332, Note_on_c, 0, 80, 91
2, 149334, Note_on_c, 0, 75, 84
2, 149343, Control_c, 0, 64, 94
2, 149352, Note_on_c, 0, 77, 25
2, 149358, Control_c, 0, 64, 84
2, 149374, Control_c, 0, 64, 71
2, 149387, Note_on_c, 0, 77, 0
2, 149389, Control_c, 0, 64, 0
2, 149450, Note_on_c, 0, 80, 0
2, 149489, Note_on_c, 0, 79, 88
2, 149539, Note_on_c, 0, 75, 0
2, 149599, Note_on_c, 0, 79, 0
2, 149642, Note_on_c, 0, 77, 88
2, 149664, Control_c, 0, 64, 29
2, 149679, Control_c, 0, 64, 59
2, 149695, Control_c, 0, 64, 64
2, 149709, Control_c, 0, 64, 67
2, 149724, Control_c, 0, 64, 69
2, 149740, Control_c, 0, 64, 71
2, 149744, Note_on_c, 0, 77, 0
2, 149755, Control_c, 0, 64, 74
2, 149771, Control_c, 0, 64, 76
2, 149786, Control_c, 0, 64, 79
2, 149786, Note_on_c, 0, 75, 84
2, 149801, Control_c, 0, 64, 80
2, 149817, Control_c, 0, 64, 81
2, 149831, Control_c, 0, 64, 81
2, 149846, Control_c, 0, 64, 82
2, 149862, Control_c, 0, 64, 83
2, 149877, Control_c, 0, 64, 84
2, 149892, Control_c, 0, 64, 84
2, 149936, Note_on_c, 0, 49, 0
2, 149957, Note_on_c, 0, 48, 73
2, 149957, Note_on_c, 0, 80, 96
2, 149968, Control_c, 0, 64, 81
2, 149983, Control_c, 0, 64, 72
2, 149998, Control_c, 0, 64, 51
2, 150003, Note_on_c, 0, 75, 0
2, 150014, Control_c, 0, 64, 0
2, 150130, Note_on_c, 0, 75, 66
2, 150279, Note_on_c, 0, 77, 71
2, 150291, Note_on_c, 0, 75, 0
2, 150422, Note_on_c, 0, 78, 72
2, 150459, Note_on_c, 0, 77, 0
2, 150525, Note_on_c, 0, 78, 0
2, 150578, Note_on_c, 0, 48, 0
2, 150589, Note_on_c, 0, 49, 58
2, 150596, Note_on_c, 0, 77, 73
2, 150615, Control_c, 0, 64, 21
2, 150630, Control_c, 0, 64, 57
2, 150645, Control_c, 0, 64, 64
2, 150660, Control_c, 0, 64, 68
2, 150675, Control_c, 0, 64, 73
2, 150691, Control_c, 0, 64, 78
2, 150706, Control_c, 0, 64, 82
2, 150721, Control_c, 0, 64, 84
2, 150736, Control_c, 0, 64, 86
2, 150749, Note_on_c, 0, 75, 72
2, 150751, Control_c, 0, 64, 87
2, 150766, Control_c, 0, 64, 90
2, 150782, Control_c, 0, 64, 92
2, 150797, Control_c, 0, 64, 93
2, 150812, Control_c, 0, 64, 95
2, 150827, Control_c, 0, 64, 96
2, 150834, Note_on_c, 0, 49, 0
2, 150842, Control_c, 0, 64, 96
2, 150865, Control_c, 0, 64, 97
2, 150893, Control_c, 0, 64, 97
2, 150906, Note_on_c, 0, 73, 71
2, 150924, Control_c, 0, 64, 98
2, 150935, Note_on_c, 0, 77, 0
2, 150962, Note_on_c, 0, 80, 0
2, 151000, Control_c, 0, 64, 98
2, 151008, Note_on_c, 0, 75, 0
2, 151028, Note_on_c, 0, 73, 0
2, 151052, Note_on_c, 0, 72, 69
2, 151183, Control_c, 0, 64, 97
2, 151198, Control_c, 0, 64, 93
2, 151213, Control_c, 0, 64, 84
2, 151222, Note_on_c, 0, 51, 64
2, 151226, Note_on_c, 0, 79, 80
2, 151227, Note_on_c, 0, 70, 70
2, 151229, Control_c, 0, 64, 71
2, 151243, Control_c, 0, 64, 20
2, 151256, Note_on_c, 0, 72, 0
2, 151259, Control_c, 0, 64, 0
2, 151305, Control_c, 0, 64, 28
2, 151319, Control_c, 0, 64, 63
2, 151335, Control_c, 0, 64, 69
2, 151350, Control_c, 0, 64, 75
2, 151365, Control_c, 0, 64, 81
2, 151380, Control_c, 0, 64, 85
2, 151380, Note_on_c, 0, 58, 78
2, 151392, Note_on_c, 0, 51, 0
2, 151395, Control_c, 0, 64, 88
2, 151406, Note_on_c, 0, 79, 0
2, 151410, Control_c, 0, 64, 90
2, 151426, Control_c, 0, 64, 92
2, 151430, Note_on_c, 0, 70, 0
2, 151441, Control_c, 0, 64, 95
2, 151456, Control_c, 0, 64, 98
2, 151471, Control_c, 0, 64, 101
2, 151486, Control_c, 0, 64, 104
2, 151502, Control_c, 0, 64, 106
2, 151517, Control_c, 0, 64, 107
2, 151526, Note_on_c, 0, 58, 0
2, 151532, Control_c, 0, 64, 108
2, 151539, Note_on_c, 0, 60, 84
2, 151548, Control_c, 0, 64, 109
2, 151563, Control_c, 0, 64, 110
2, 151578, Control_c, 0, 64, 111
2, 151593, Control_c, 0, 64, 112
2, 151608, Control_c, 0, 64, 113
2, 151631, Control_c, 0, 64, 113
2, 151646, Control_c, 0, 64, 114
2, 151661, Control_c, 0, 64, 115
2, 151665, Note_on_c, 0, 60, 0
2, 151676, Control_c, 0, 64, 115
2, 151690, Note_on_c, 0, 61, 84
2, 151722, Control_c, 0, 64, 116
2, 151738, Control_c, 0, 64, 116
2, 151798, Control_c, 0, 64, 115
2, 151798, Note_on_c, 0, 61, 0
2, 151813, Control_c, 0, 64, 112
2, 151829, Control_c, 0, 64, 105
2, 151844, Control_c, 0, 64, 89
2, 151847, Note_on_c, 0, 60, 79
2, 151847, Note_on_c, 0, 80, 93
2, 151849, Note_on_c, 0, 56, 79
2, 151860, Control_c, 0, 64, 69
2, 151875, Control_c, 0, 64, 0
2, 151951, Control_c, 0, 64, 32
2, 151966, Control_c, 0, 64, 64
2, 151982, Control_c, 0, 64, 71
2, 151997, Control_c, 0, 64, 81
2, 152000, Note_on_c, 0, 70, 89
2, 152011, Control_c, 0, 64, 91
2, 152027, Control_c, 0, 64, 99
2, 152032, Note_on_c, 0, 80, 0
2, 152042, Control_c, 0, 64, 106
2, 152058, Control_c, 0, 64, 109
2, 152073, Control_c, 0, 64, 111
2, 152087, Control_c, 0, 64, 114
2, 152103, Control_c, 0, 64, 118
2, 152118, Control_c, 0, 64, 122
2, 152132, Control_c, 0, 64, 127
2, 152154, Note_on_c, 0, 72, 88
2, 152154, Note_on_c, 0, 75, 87
2, 152164, Note_on_c, 0, 60, 0
2, 152183, Note_on_c, 0, 70, 0
2, 152207, Note_on_c, 0, 56, 0
2, 152242, Note_on_c, 0, 72, 0
2, 152252, Note_on_c, 0, 75, 0
2, 152295, Note_on_c, 0, 73, 86
2, 152398, Note_on_c, 0, 73, 0
2, 152437, Note_on_c, 0, 53, 80
2, 152505, Control_c, 0, 64, 108
2, 152518, Note_on_c, 0, 80, 97
2, 152520, Control_c, 0, 64, 88
2, 152523, Note_on_c, 0, 72, 96
2, 152536, Control_c, 0, 64, 61
2, 152551, Control_c, 0, 64, 0
2, 152611, Control_c, 0, 64, 49
2, 152627, Control_c, 0, 64, 65
2, 152630, Note_on_c, 0, 53, 0
2, 152642, Control_c, 0, 64, 72
2, 152658, Control_c, 0, 64, 81
2, 152671, Note_on_c, 0, 70, 85
2, 152673, Control_c, 0, 64, 91
2, 152688, Control_c, 0, 64, 98
2, 152704, Control_c, 0, 64, 103
2, 152719, Control_c, 0, 64, 105
2, 152735, Control_c, 0, 64, 108
2, 152749, Control_c, 0, 64, 109
2, 152764, Control_c, 0, 64, 111
2, 152780, Control_c, 0, 64, 112
2, 152810, Control_c, 0, 64, 113
2, 152828, Note_on_c, 0, 68, 88
2, 152885, Note_on_c, 0, 68, 0
2, 152966, Note_on_c, 0, 67, 76
2, 153048, Note_on_c, 0, 67, 0
2, 153083, Control_c, 0, 64, 107
2, 153099, Control_c, 0, 64, 93
2, 153114, Control_c, 0, 64, 68
2, 153129, Control_c, 0, 64, 0
2, 153131, Note_on_c, 0, 58, 65
2, 153135, Note_on_c, 0, 65, 79
2, 153197, Control_c, 0, 64, 63
2, 153212, Control_c, 0, 64, 71
2, 153228, Control_c, 0, 64, 82
2, 153243, Control_c, 0, 64, 91
2, 153245, Note_on_c, 0, 72, 0
2, 153257, Note_on_c, 0, 70, 0
2, 153259, Control_c, 0, 64, 96
2, 153266, Note_on_c, 0, 80, 0
2, 153273, Control_c, 0, 64, 100
2, 153287, Note_on_c, 0, 62, 78
2, 153288, Control_c, 0, 64, 102
2, 153297, Note_on_c, 0, 58, 0
2, 153300, Note_on_c, 0, 65, 0
2, 153304, Control_c, 0, 64, 104
2, 153319, Control_c, 0, 64, 107
2, 153335, Control_c, 0, 64, 109
2, 153349, Control_c, 0, 64, 112
2, 153364, Control_c, 0, 64, 114
2, 153380, Control_c, 0, 64, 116
2, 153394, Control_c, 0, 64, 116
2, 153409, Control_c, 0, 64, 117
2, 153430, Note_on_c, 0, 63, 80
2, 153431, Note_on_c, 0, 62, 0
2, 153439, Note_on_c, 0, 67, 86
2, 153440, Control_c, 0, 64, 117
2, 153456, Control_c, 0, 64, 118
2, 153471, Control_c, 0, 64, 118
2, 153517, Note_on_c, 0, 67, 0
2, 153532, Control_c, 0, 64, 119
2, 153571, Note_on_c, 0, 65, 84
2, 153587, Note_on_c, 0, 68, 90
2, 153599, Note_on_c, 0, 63, 0
2, 153624, Control_c, 0, 64, 119
2, 153648, Note_on_c, 0, 68, 0
2, 153730, Control_c, 0, 64, 115
2, 153746, Control_c, 0, 64, 101
2, 153751, Note_on_c, 0, 63, 82
2, 153760, Note_on_c, 0, 79, 93
2, 153761, Control_c, 0, 64, 81
2, 153762, Note_on_c, 0, 70, 95
2, 153776, Control_c, 0, 64, 40
2, 153779, Note_on_c, 0, 65, 0
2, 153791, Control_c, 0, 64, 0
2, 153836, Control_c, 0, 64, 51
2, 153851, Control_c, 0, 64, 66
2, 153867, Control_c, 0, 64, 75
2, 153882, Control_c, 0, 64, 88
2, 153897, Control_c, 0, 64, 101
2, 153898, Note_on_c, 0, 70, 0
2, 153912, Control_c, 0, 64, 111
2, 153931, Note_on_c, 0, 68, 81
2, 153936, Control_c, 0, 64, 115
2, 153951, Control_c, 0, 64, 117
2, 153966, Control_c, 0, 64, 118
2, 153981, Control_c, 0, 64, 120
2, 153996, Control_c, 0, 64, 122
2, 154011, Control_c, 0, 64, 123
2, 154027, Control_c, 0, 64, 125
2, 154035, Note_on_c, 0, 68, 0
2, 154035, Note_on_c, 0, 79, 0
2, 154057, Control_c, 0, 64, 125
2, 154073, Note_on_c, 0, 63, 0
2, 154090, Note_on_c, 0, 67, 80
2, 154225, Note_on_c, 0, 67, 0
2, 154238, Control_c, 0, 64, 125
2, 154245, Note_on_c, 0, 65, 81
2, 154391, Control_c, 0, 64, 123
2, 154406, Control_c, 0, 64, 115
2, 154422, Control_c, 0, 64, 102
2, 154423, Note_on_c, 0, 84, 107
2, 154429, Note_on_c, 0, 63, 77
2, 154437, Control_c, 0, 64, 87
2, 154447, Note_on_c, 0, 65, 0
2, 154452, Control_c, 0, 64, 71
2, 154468, Control_c, 0, 64, 0
2, 154544, Control_c, 0, 64, 43
2, 154559, Control_c, 0, 64, 58
2, 154570, Note_on_c, 0, 63, 0
2, 154575, Control_c, 0, 64, 62
2, 154580, Note_on_c, 0, 60, 73
2, 154589, Control_c, 0, 64, 65
2, 154604, Control_c, 0, 64, 68
2, 154620, Control_c, 0, 64, 71
2, 154635, Control_c, 0, 64, 74
2, 154650, Control_c, 0, 64, 76
2, 154665, Control_c, 0, 64, 77
2, 154732, Note_on_c, 0, 60, 0
2, 154733, Control_c, 0, 64, 78
2, 154738, Note_on_c, 0, 65, 75
2, 154744, Note_on_c, 0, 61, 69
2, 154823, Note_on_c, 0, 65, 0
2, 154825, Control_c, 0, 64, 78
2, 154871, Control_c, 0, 64, 79
2, 154879, Note_on_c, 0, 63, 76
2, 154880, Note_on_c, 0, 67, 66
2, 154885, Control_c, 0, 64, 80
2, 154901, Control_c, 0, 64, 81
2, 154911, Note_on_c, 0, 67, 0
2, 154916, Control_c, 0, 64, 81
2, 154931, Control_c, 0, 64, 82
2, 154938, Note_on_c, 0, 61, 0
2, 154942, Note_on_c, 0, 63, 0
2, 154961, Control_c, 0, 64, 82
2, 155006, Control_c, 0, 64, 82
2, 155022, Control_c, 0, 64, 76
2, 155037, Control_c, 0, 64, 63
2, 155041, Note_on_c, 0, 61, 76
2, 155042, Note_on_c, 0, 68, 84
2, 155052, Control_c, 0, 64, 0
2, 155128, Control_c, 0, 64, 60
2, 155145, Control_c, 0, 64, 67
2, 155160, Control_c, 0, 64, 71
2, 155176, Control_c, 0, 64, 77
2, 155190, Control_c, 0, 64, 82
2, 155196, Note_on_c, 0, 60, 71
2, 155197, Note_on_c, 0, 61, 0
2, 155203, Note_on_c, 0, 68, 0
2, 155205, Control_c, 0, 64, 83
2, 155235, Control_c, 0, 64, 84
2, 155250, Control_c, 0, 64, 84
2, 155266, Control_c, 0, 64, 85
2, 155281, Control_c, 0, 64, 86
2, 155297, Control_c, 0, 64, 86
2, 155311, Control_c, 0, 64, 87
2, 155332, Note_on_c, 0, 60, 0
2, 155341, Note_on_c, 0, 68, 76
2, 155342, Control_c, 0, 64, 87
2, 155346, Note_on_c, 0, 58, 71
2, 155509, Note_on_c, 0, 56, 55
2, 155533, Note_on_c, 0, 56, 0
2, 155538, Note_on_c, 0, 58, 0
2, 155577, Note_on_c, 0, 68, 0
2, 155679, Note_on_c, 0, 63, 67
2, 155690, Note_on_c, 0, 84, 0
2, 155692, Note_on_c, 0, 68, 66
2, 155733, Note_on_c, 0, 82, 92
2, 155758, Control_c, 0, 64, 86
2, 155773, Control_c, 0, 64, 84
2, 155789, Control_c, 0, 64, 79
2, 155803, Control_c, 0, 64, 73
2, 155819, Control_c, 0, 64, 64
2, 155834, Control_c, 0, 64, 0
2, 155877, Note_on_c, 0, 68, 0
2, 155883, Note_on_c, 0, 67, 66
2, 156051, Note_on_c, 0, 67, 0
2, 156058, Note_on_c, 0, 68, 70
2, 156189, Note_on_c, 0, 68, 0
2, 156205, Note_on_c, 0, 70, 68
2, 156311, Note_on_c, 0, 70, 0
2, 156407, Note_on_c, 0, 72, 62
2, 156504, Note_on_c, 0, 82, 0
2, 156570, Note_on_c, 0, 82, 63
2, 156730, Note_on_c, 0, 80, 73
2, 156765, Note_on_c, 0, 82, 0
2, 156888, Note_on_c, 0, 79, 78
2, 156962, Note_on_c, 0, 80, 0
2, 157017, Note_on_c, 0, 63, 0
2, 157075, Note_on_c, 0, 62, 49
2, 157079, Note_on_c, 0, 77, 70
2, 157160, Note_on_c, 0, 79, 0
2, 157196, Note_on_c, 0, 72, 0
2, 157411, Note_on_c, 0, 79, 66
2, 157436, Note_on_c, 0, 77, 0
2, 157562, Note_on_c, 0, 80, 72
2, 157569, Note_on_c, 0, 79, 0
2, 157732, Note_on_c, 0, 70, 58
2, 157732, Note_on_c, 0, 79, 67
2, 157743, Note_on_c, 0, 80, 0
2, 157849, Note_on_c, 0, 79, 0
2, 157898, Note_on_c, 0, 77, 66
2, 158007, Note_on_c, 0, 77, 0
2, 158047, Note_on_c, 0, 75, 63
2, 158135, Note_on_c, 0, 62, 0
2, 158148, Note_on_c, 0, 75, 0
2, 158193, Note_on_c, 0, 74, 62
2, 158362, Note_on_c, 0, 74, 0
2, 158363, Note_on_c, 0, 75, 64
2, 158438, Note_on_c, 0, 70, 0
2, 158519, Note_on_c, 0, 60, 52
2, 158631, Note_on_c, 0, 60, 0
2, 158670, Note_on_c, 0, 77, 61
2, 158680, Note_on_c, 0, 61, 51
2, 158797, Note_on_c, 0, 61, 0
2, 158818, Note_on_c, 0, 63, 60
2, 158830, Note_on_c, 0, 79, 66
2, 158837, Note_on_c, 0, 77, 0
2, 158975, Note_on_c, 0, 63, 0
2, 158992, Note_on_c, 0, 61, 58
2, 158998, Note_on_c, 0, 80, 71
2, 159002, Note_on_c, 0, 79, 0
2, 159113, Note_on_c, 0, 61, 0
2, 159146, Note_on_c, 0, 60, 59
2, 159151, Note_on_c, 0, 80, 0
2, 159291, Note_on_c, 0, 60, 0
2, 159319, Note_on_c, 0, 58, 59
2, 159321, Note_on_c, 0, 80, 52
2, 159460, Note_on_c, 0, 58, 0
2, 159475, Note_on_c, 0, 56, 59
2, 159548, Note_on_c, 0, 56, 0
2, 159553, Note_on_c, 0, 80, 0
2, 159644, Note_on_c, 0, 74, 48
2, 159649, Note_on_c, 0, 58, 38
2, 159655, Note_on_c, 0, 75, 0
2, 159679, Note_on_c, 0, 46, 40
2, 159811, Note_on_c, 0, 79, 58
2, 159969, Note_on_c, 0, 80, 62
2, 159976, Note_on_c, 0, 79, 0
2, 160111, Note_on_c, 0, 74, 0
2, 160130, Note_on_c, 0, 82, 52
2, 160147, Note_on_c, 0, 80, 0
2, 160283, Note_on_c, 0, 80, 56
2, 160295, Note_on_c, 0, 51, 29
2, 160307, Note_on_c, 0, 75, 45
2, 160316, Note_on_c, 0, 82, 0
2, 160353, Note_on_c, 0, 46, 0
2, 160441, Note_on_c, 0, 75, 0
2, 160447, Note_on_c, 0, 79, 59
2, 160456, Note_on_c, 0, 58, 0
2, 160533, Note_on_c, 0, 80, 0
2, 160535, Control_c, 0, 64, 21
2, 160550, Control_c, 0, 64, 41
2, 160564, Control_c, 0, 64, 52
2, 160580, Control_c, 0, 64, 61
2, 160595, Control_c, 0, 64, 64
2, 160610, Control_c, 0, 64, 65
2, 160622, Note_on_c, 0, 77, 61
2, 160622, Note_on_c, 0, 79, 0
2, 160626, Control_c, 0, 64, 67
2, 160640, Control_c, 0, 64, 68
2, 160656, Control_c, 0, 64, 70
2, 160671, Control_c, 0, 64, 72
2, 160686, Control_c, 0, 64, 73
2, 160702, Control_c, 0, 64, 74
2, 160717, Control_c, 0, 64, 75
2, 160732, Control_c, 0, 64, 75
2, 160739, Note_on_c, 0, 77, 0
2, 160747, Control_c, 0, 64, 76
2, 160762, Control_c, 0, 64, 76
2, 160778, Control_c, 0, 64, 77
2, 160779, Note_on_c, 0, 75, 60
2, 160808, Control_c, 0, 64, 77
2, 160887, Note_on_c, 0, 75, 0
2, 160968, Control_c, 0, 64, 77
2, 160980, Note_on_c, 0, 56, 29
2, 160998, Control_c, 0, 64, 76
2, 161013, Control_c, 0, 64, 75
2, 161029, Control_c, 0, 64, 74
2, 161044, Control_c, 0, 64, 73
2, 161046, Note_on_c, 0, 72, 42
2, 161048, Note_on_c, 0, 77, 43
2, 161060, Control_c, 0, 64, 70
2, 161074, Control_c, 0, 64, 66
2, 161089, Control_c, 0, 64, 61
2, 161105, Control_c, 0, 64, 46
2, 161120, Control_c, 0, 64, 0
2, 161381, Note_on_c, 0, 79, 51
2, 161404, Note_on_c, 0, 77, 0
2, 161455, Control_c, 0, 67, 20
2, 161470, Control_c, 0, 67, 36
2, 161484, Control_c, 0, 67, 58
2, 161500, Control_c, 0, 67, 77
2, 161515, Control_c, 0, 67, 95
2, 161530, Control_c, 0, 67, 112
2, 161538, Note_on_c, 0, 80, 64
2, 161545, Control_c, 0, 67, 126
2, 161546, Note_on_c, 0, 79, 0
2, 161560, Control_c, 0, 67, 127
2, 161665, Note_on_c, 0, 51, 0
2, 161721, Note_on_c, 0, 82, 67
2, 161731, Note_on_c, 0, 72, 0
2, 161735, Note_on_c, 0, 50, 17
2, 161742, Note_on_c, 0, 80, 0
2, 161839, Note_on_c, 0, 56, 0
2, 161886, Note_on_c, 0, 53, 48
2, 161888, Note_on_c, 0, 80, 70
2, 161937, Note_on_c, 0, 82, 0
2, 162013, Note_on_c, 0, 53, 0
2, 162039, Note_on_c, 0, 55, 55
2, 162044, Note_on_c, 0, 79, 72
2, 162049, Note_on_c, 0, 80, 0
2, 162102, Control_c, 0, 64, 34
2, 162117, Control_c, 0, 64, 50
2, 162131, Control_c, 0, 64, 58
2, 162147, Control_c, 0, 64, 63
2, 162151, Note_on_c, 0, 79, 0
2, 162158, Note_on_c, 0, 50, 0
2, 162162, Control_c, 0, 64, 65
2, 162162, Note_on_c, 0, 55, 0
2, 162177, Control_c, 0, 64, 68
2, 162186, Note_on_c, 0, 77, 67
2, 162192, Control_c, 0, 64, 71
2, 162200, Note_on_c, 0, 56, 53
2, 162207, Control_c, 0, 64, 74
2, 162218, Note_on_c, 0, 77, 0
2, 162223, Control_c, 0, 64, 76
2, 162238, Control_c, 0, 64, 77
2, 162283, Control_c, 0, 64, 76
2, 162293, Note_on_c, 0, 56, 0
2, 162299, Control_c, 0, 64, 75
2, 162314, Control_c, 0, 64, 74
2, 162328, Control_c, 0, 64, 70
2, 162344, Control_c, 0, 64, 65
2, 162359, Control_c, 0, 64, 58
2, 162359, Note_on_c, 0, 58, 46
2, 162365, Note_on_c, 0, 75, 62
2, 162382, Control_c, 0, 64, 42
2, 162389, Note_on_c, 0, 55, 28
2, 162397, Control_c, 0, 64, 18
2, 162412, Control_c, 0, 64, 0
2, 162536, Note_on_c, 0, 75, 0
2, 162538, Note_on_c, 0, 74, 61
2, 162686, Note_on_c, 0, 74, 0
2, 162704, Note_on_c, 0, 72, 60
2, 162843, Note_on_c, 0, 72, 0
2, 162864, Note_on_c, 0, 70, 57
2, 163009, Note_on_c, 0, 70, 0
2, 163025, Note_on_c, 0, 58, 0
2, 163027, Note_on_c, 0, 75, 54
2, 163083, Control_c, 0, 64, 37
2, 163098, Control_c, 0, 64, 46
2, 163113, Control_c, 0, 64, 51
2, 163128, Control_c, 0, 64, 54
2, 163150, Control_c, 0, 64, 56
2, 163165, Control_c, 0, 64, 57
2, 163171, Note_on_c, 0, 75, 0
2, 163178, Note_on_c, 0, 67, 46
2, 163181, Control_c, 0, 64, 58
2, 163183, Note_on_c, 0, 58, 43
2, 163227, Control_c, 0, 64, 57
2, 163288, Control_c, 0, 64, 57
2, 163303, Control_c, 0, 64, 56
2, 163318, Control_c, 0, 64, 54
2, 163323, Note_on_c, 0, 58, 0
2, 163333, Control_c, 0, 64, 52
2, 163345, Note_on_c, 0, 67, 0
2, 163349, Control_c, 0, 64, 48
2, 163358, Note_on_c, 0, 60, 47
2, 163358, Note_on_c, 0, 75, 48
2, 163360, Note_on_c, 0, 68, 56
2, 163364, Control_c, 0, 64, 43
2, 163380, Control_c, 0, 64, 36
2, 163395, Control_c, 0, 64, 20
2, 163409, Control_c, 0, 64, 0
2, 163480, Note_on_c, 0, 60, 0
2, 163514, Note_on_c, 0, 61, 52
2, 163514, Note_on_c, 0, 68, 0
2, 163514, Note_on_c, 0, 70, 65
2, 163553, Note_on_c, 0, 75, 0
2, 163644, Note_on_c, 0, 61, 0
2, 163674, Note_on_c, 0, 68, 66
2, 163681, Note_on_c, 0, 60, 32
2, 163681, Note_on_c, 0, 70, 0
2, 163683, Note_on_c, 0, 75, 63
2, 163797, Note_on_c, 0, 60, 0
2, 163802, Note_on_c, 0, 68, 0
2, 163830, Note_on_c, 0, 67, 66
2, 163838, Note_on_c, 0, 58, 40
2, 163946, Note_on_c, 0, 55, 0
2, 163949, Note_on_c, 0, 58, 0
2, 163963, Control_c, 0, 64, 25
2, 163979, Control_c, 0, 64, 41
2, 163991, Note_on_c, 0, 67, 0
2, 163994, Control_c, 0, 64, 52
2, 163999, Note_on_c, 0, 56, 45
2, 164003, Note_on_c, 0, 65, 61
2, 164009, Control_c, 0, 64, 59
2, 164025, Control_c, 0, 64, 62
2, 164040, Control_c, 0, 64, 64
2, 164056, Control_c, 0, 64, 66
2, 164070, Control_c, 0, 64, 69
2, 164085, Control_c, 0, 64, 72
2, 164099, Note_on_c, 0, 65, 0
2, 164101, Control_c, 0, 64, 74
2, 164116, Control_c, 0, 64, 75
2, 164120, Note_on_c, 0, 56, 0
2, 164156, Note_on_c, 0, 55, 45
2, 164160, Note_on_c, 0, 63, 65
2, 164183, Note_on_c, 0, 55, 0
2, 164237, Note_on_c, 0, 63, 0
2, 164253, Control_c, 0, 64, 75
2, 164269, Control_c, 0, 64, 74
2, 164284, Control_c, 0, 64, 73
2, 164292, Note_on_c, 0, 75, 0
2, 164299, Control_c, 0, 64, 72
2, 164314, Control_c, 0, 64, 69
2, 164324, Note_on_c, 0, 65, 69
2, 164329, Control_c, 0, 64, 65
2, 164335, Note_on_c, 0, 56, 53
2, 164345, Control_c, 0, 64, 62
2, 164360, Control_c, 0, 64, 59
2, 164375, Control_c, 0, 64, 57
2, 164405, Control_c, 0, 64, 56
2, 164420, Control_c, 0, 64, 55
2, 164435, Control_c, 0, 64, 53
2, 164450, Control_c, 0, 64, 50
2, 164466, Control_c, 0, 64, 48
2, 164481, Control_c, 0, 64, 46
2, 164493, Note_on_c, 0, 74, 68
2, 164497, Control_c, 0, 64, 44
2, 164504, Note_on_c, 0, 55, 40
2, 164511, Control_c, 0, 64, 43
2, 164526, Control_c, 0, 64, 41
2, 164542, Control_c, 0, 64, 40
2, 164557, Control_c, 0, 64, 38
2, 164572, Control_c, 0, 64, 38
2, 164587, Control_c, 0, 64, 36
2, 164602, Control_c, 0, 64, 34
2, 164615, Note_on_c, 0, 55, 0
2, 164618, Control_c, 0, 64, 32
2, 164623, Note_on_c, 0, 56, 0
2, 164633, Control_c, 0, 64, 29
2, 164648, Control_c, 0, 64, 26
2, 164648, Note_on_c, 0, 75, 74
2, 164651, Note_on_c, 0, 53, 43
2, 164658, Note_on_c, 0, 74, 0
2, 164664, Control_c, 0, 64, 23
2, 164686, Control_c, 0, 64, 17
2, 164702, Control_c, 0, 64, 15
2, 164716, Control_c, 0, 64, 13
2, 164780, Note_on_c, 0, 53, 0
2, 164808, Note_on_c, 0, 77, 72
2, 164823, Control_c, 0, 64, 10
2, 164826, Note_on_c, 0, 75, 0
2, 164827, Note_on_c, 0, 51, 42
2, 164956, Note_on_c, 0, 51, 0
2, 164976, Note_on_c, 0, 77, 0
2, 164979, Note_on_c, 0, 70, 72
2, 164989, Note_on_c, 0, 50, 41
2, 165046, Note_on_c, 0, 65, 0
2, 165156, Note_on_c, 0, 65, 58
2, 165248, Note_on_c, 0, 65, 0
2, 165277, Note_on_c, 0, 50, 0
2, 165309, Note_on_c, 0, 55, 30
2, 165310, Control_c, 0, 64, 0
2, 165314, Note_on_c, 0, 67, 49
2, 165317, Note_on_c, 0, 51, 34
2, 165429, Note_on_c, 0, 51, 0
2, 165452, Note_on_c, 0, 55, 0
2, 165453, Note_on_c, 0, 67, 0
2, 165463, Note_on_c, 0, 53, 47
2, 165475, Note_on_c, 0, 68, 55
2, 165592, Note_on_c, 0, 53, 0
2, 165608, Note_on_c, 0, 68, 0
2, 165620, Note_on_c, 0, 51, 45
2, 165629, Note_on_c, 0, 67, 55
2, 165659, Note_on_c, 0, 55, 18
2, 165737, Note_on_c, 0, 67, 0
2, 165746, Note_on_c, 0, 51, 0
2, 165791, Note_on_c, 0, 65, 53
2, 165795, Note_on_c, 0, 50, 42
2, 165919, Note_on_c, 0, 50, 0
2, 165922, Note_on_c, 0, 65, 0
2, 165948, Note_on_c, 0, 63, 51
2, 165951, Note_on_c, 0, 48, 41
2, 166007, Note_on_c, 0, 48, 0
2, 166073, Note_on_c, 0, 63, 0
2, 166110, Note_on_c, 0, 61, 51
2, 166136, Note_on_c, 0, 46, 28
2, 166210, Note_on_c, 0, 46, 0
2, 166259, Note_on_c, 0, 61, 0
2, 166300, Note_on_c, 0, 60, 45
2, 166302, Note_on_c, 0, 44, 27
2, 166462, Note_on_c, 0, 55, 0
2, 166472, Note_on_c, 0, 51, 39
2, 166587, Note_on_c, 0, 51, 0
2, 166637, Note_on_c, 0, 53, 46
2, 166751, Note_on_c, 0, 53, 0
2, 166806, Note_on_c, 0, 55, 41
2, 166961, Note_on_c, 0, 55, 0
2, 166990, Note_on_c, 0, 65, 56
2, 166990, Note_on_c, 0, 68, 61
2, 166993, Note_on_c, 0, 53, 39
2, 167032, Note_on_c, 0, 60, 0
2, 167041, Note_on_c, 0, 70, 0
2, 167092, Note_on_c, 0, 53, 0
2, 167155, Note_on_c, 0, 51, 42
2, 167246, Note_on_c, 0, 44, 0
2, 167253, Note_on_c, 0, 51, 0
2, 167315, Note_on_c, 0, 50, 37
2, 167421, Note_on_c, 0, 50, 0
2, 167473, Note_on_c, 0, 48, 45
2, 167522, Note_on_c, 0, 48, 0
2, 167554, Control_c, 0, 64, 13
2, 167569, Control_c, 0, 64, 43
2, 167585, Control_c, 0, 64, 54
2, 167599, Control_c, 0, 64, 61
2, 167615, Control_c, 0, 64, 65
2, 167630, Control_c, 0, 64, 69
2, 167645, Control_c, 0, 64, 74
2, 167649, Note_on_c, 0, 38, 40
2, 167652, Note_on_c, 0, 46, 42
2, 167661, Control_c, 0, 64, 78
2, 167675, Control_c, 0, 64, 80
2, 167690, Control_c, 0, 64, 82
2, 167692, Note_on_c, 0, 38, 0
2, 167706, Control_c, 0, 64, 82
2, 167721, Control_c, 0, 64, 83
2, 167722, Note_on_c, 0, 65, 0
2, 167738, Note_on_c, 0, 46, 0
2, 167861, Note_on_c, 0, 56, 54
2, 167865, Control_c, 0, 64, 82
2, 167896, Control_c, 0, 64, 82
2, 167911, Control_c, 0, 64, 81
2, 167926, Control_c, 0, 64, 81
2, 167942, Control_c, 0, 64, 80
2, 167962, Note_on_c, 0, 56, 0
2, 167971, Control_c, 0, 64, 79
2, 167987, Control_c, 0, 64, 79
2, 168002, Control_c, 0, 64, 78
2, 168012, Note_on_c, 0, 58, 60
2, 168017, Control_c, 0, 64, 77
2, 168032, Control_c, 0, 64, 76
2, 168047, Control_c, 0, 64, 75
2, 168062, Control_c, 0, 64, 74
2, 168064, Note_on_c, 0, 58, 0
2, 168077, Control_c, 0, 64, 73
2, 168092, Control_c, 0, 64, 73
2, 168108, Control_c, 0, 64, 72
2, 168123, Control_c, 0, 64, 71
2, 168138, Control_c, 0, 64, 71
2, 168153, Control_c, 0, 64, 70
2, 168155, Note_on_c, 0, 60, 57
2, 168168, Control_c, 0, 64, 70
2, 168184, Control_c, 0, 64, 69
2, 168213, Control_c, 0, 64, 69
2, 168229, Control_c, 0, 64, 68
2, 168245, Control_c, 0, 64, 68
2, 168261, Control_c, 0, 64, 67
2, 168263, Note_on_c, 0, 60, 0
2, 168276, Control_c, 0, 64, 66
2, 168290, Control_c, 0, 64, 64
2, 168306, Control_c, 0, 64, 60
2, 168321, Control_c, 0, 64, 42
2, 168331, Note_on_c, 0, 58, 51
2, 168337, Control_c, 0, 64, 0
2, 168338, Note_on_c, 0, 63, 70
2, 168339, Note_on_c, 0, 67, 73
2, 168351, Note_on_c, 0, 68, 0
2, 168370, Note_on_c, 0, 51, 31
2, 168495, Note_on_c, 0, 58, 0
2, 168507, Note_on_c, 0, 56, 59
2, 168542, Control_c, 0, 64, 41
2, 168557, Control_c, 0, 64, 53
2, 168572, Control_c, 0, 64, 57
2, 168587, Control_c, 0, 64, 60
2, 168602, Control_c, 0, 64, 62
2, 168618, Control_c, 0, 64, 64
2, 168633, Control_c, 0, 64, 66
2, 168633, Control_c, 0, 67, 121
2, 168638, Note_on_c, 0, 56, 0
2, 168648, Control_c, 0, 64, 67
2, 168648, Control_c, 0, 67, 112
2, 168655, Note_on_c, 0, 51, 0
2, 168663, Control_c, 0, 64, 68
2, 168663, Control_c, 0, 67, 103
2, 168678, Control_c, 0, 64, 69
2, 168678, Control_c, 0, 67, 95
2, 168678, Note_on_c, 0, 55, 62
2, 168693, Control_c, 0, 64, 70
2, 168693, Control_c, 0, 67, 85
2, 168709, Control_c, 0, 64, 70
2, 168709, Control_c, 0, 67, 72
2, 168723, Control_c, 0, 64, 71
2, 168723, Control_c, 0, 67, 57
2, 168739, Control_c, 0, 67, 36
2, 168754, Control_c, 0, 67, 19
2, 168769, Control_c, 0, 67, 0
2, 168802, Note_on_c, 0, 55, 0
2, 168827, Note_on_c, 0, 53, 64
2, 168872, Note_on_c, 0, 53, 0
2, 168875, Control_c, 0, 64, 70
2, 168920, Control_c, 0, 64, 70
2, 168936, Control_c, 0, 64, 69
2, 168951, Control_c, 0, 64, 68
2, 168966, Control_c, 0, 64, 67
2, 168980, Note_on_c, 0, 51, 58
2, 168981, Control_c, 0, 64, 66
2, 168996, Control_c, 0, 64, 65
2, 169011, Control_c, 0, 64, 64
2, 169020, Note_on_c, 0, 68, 70
2, 169022, Note_on_c, 0, 72, 77
2, 169027, Control_c, 0, 64, 62
2, 169042, Control_c, 0, 64, 61
2, 169059, Control_c, 0, 64, 60
2, 169074, Control_c, 0, 64, 59
2, 169079, Note_on_c, 0, 63, 0
2, 169082, Note_on_c, 0, 67, 0
2, 169088, Control_c, 0, 64, 59
2, 169104, Control_c, 0, 64, 58
2, 169119, Control_c, 0, 64, 57
2, 169133, Control_c, 0, 64, 56
2, 169149, Control_c, 0, 64, 54
2, 169154, Note_on_c, 0, 51, 0
2, 169164, Control_c, 0, 64, 53
2, 169167, Note_on_c, 0, 48, 55
2, 169180, Control_c, 0, 64, 52
2, 169195, Control_c, 0, 64, 51
2, 169210, Control_c, 0, 64, 50
2, 169226, Control_c, 0, 64, 50
2, 169240, Control_c, 0, 64, 49
2, 169256, Control_c, 0, 64, 48
2, 169271, Control_c, 0, 64, 47
2, 169293, Control_c, 0, 64, 46
2, 169296, Note_on_c, 0, 48, 0
2, 169309, Control_c, 0, 64, 45
2, 169324, Control_c, 0, 64, 44
2, 169336, Note_on_c, 0, 49, 54
2, 169340, Control_c, 0, 64, 44
2, 169354, Control_c, 0, 64, 43
2, 169369, Control_c, 0, 64, 43
2, 169385, Control_c, 0, 64, 42
2, 169400, Control_c, 0, 64, 41
2, 169416, Control_c, 0, 64, 40
2, 169430, Control_c, 0, 64, 39
2, 169444, Note_on_c, 0, 49, 0
2, 169445, Control_c, 0, 64, 39
2, 169461, Control_c, 0, 64, 38
2, 169476, Control_c, 0, 64, 38
2, 169492, Control_c, 0, 64, 37
2, 169493, Note_on_c, 0, 51, 58
2, 169507, Control_c, 0, 64, 36
2, 169522, Control_c, 0, 64, 36
2, 169538, Control_c, 0, 64, 35
2, 169552, Control_c, 0, 64, 34
2, 169567, Control_c, 0, 64, 33
2, 169598, Control_c, 0, 64, 32
2, 169636, Note_on_c, 0, 51, 0
2, 169656, Note_on_c, 0, 49, 63
2, 169660, Note_on_c, 0, 68, 0
2, 169705, Control_c, 0, 64, 32
2, 169801, Note_on_c, 0, 49, 0
2, 169818, Note_on_c, 0, 48, 62
2, 169968, Note_on_c, 0, 48, 0
2, 169978, Note_on_c, 0, 46, 67
2, 170060, Control_c, 0, 64, 31
2, 170113, Note_on_c, 0, 46, 0
2, 170153, Note_on_c, 0, 44, 62
2, 170212, Control_c, 0, 64, 30
2, 170272, Control_c, 0, 64, 29
2, 170287, Note_on_c, 0, 44, 0
2, 170303, Control_c, 0, 64, 29
2, 170318, Control_c, 0, 64, 28
2, 170321, Note_on_c, 0, 51, 60
2, 170333, Control_c, 0, 64, 27
2, 170335, Note_on_c, 0, 70, 80
2, 170348, Control_c, 0, 64, 25
2, 170363, Control_c, 0, 64, 23
2, 170366, Note_on_c, 0, 72, 0
2, 170378, Control_c, 0, 64, 18
2, 170394, Control_c, 0, 64, 10
2, 170409, Control_c, 0, 64, 0
2, 170504, Note_on_c, 0, 51, 0
2, 170513, Note_on_c, 0, 50, 60
2, 170660, Note_on_c, 0, 50, 0
2, 170687, Note_on_c, 0, 48, 58
2, 170837, Note_on_c, 0, 48, 0
2, 170863, Note_on_c, 0, 46, 58
2, 171008, Note_on_c, 0, 46, 0
2, 171046, Note_on_c, 0, 75, 61
2, 171049, Note_on_c, 0, 56, 52
2, 171051, Note_on_c, 0, 67, 55
2, 171219, Note_on_c, 0, 56, 0
2, 171250, Note_on_c, 0, 55, 49
2, 171393, Note_on_c, 0, 55, 0
2, 171443, Note_on_c, 0, 53, 45
2, 171450, Control_c, 0, 64, 18
2, 171466, Control_c, 0, 64, 29
2, 171481, Control_c, 0, 64, 40
2, 171495, Control_c, 0, 64, 48
2, 171513, Control_c, 0, 64, 54
2, 171528, Control_c, 0, 64, 59
2, 171543, Control_c, 0, 64, 62
2, 171558, Control_c, 0, 64, 64
2, 171573, Control_c, 0, 64, 67
2, 171596, Control_c, 0, 64, 71
2, 171611, Control_c, 0, 64, 75
2, 171626, Control_c, 0, 64, 78
2, 171641, Control_c, 0, 64, 80
2, 171656, Control_c, 0, 64, 81
2, 171660, Note_on_c, 0, 67, 0
2, 171664, Note_on_c, 0, 51, 52
2, 171665, Note_on_c, 0, 53, 0
2, 171672, Control_c, 0, 64, 82
2, 171687, Control_c, 0, 64, 82
2, 171703, Control_c, 0, 64, 83
2, 171706, Note_on_c, 0, 51, 0
2, 171831, Note_on_c, 0, 70, 0
2, 171929, Control_c, 0, 64, 82
2, 171945, Control_c, 0, 64, 82
2, 171960, Control_c, 0, 64, 81
2, 171975, Control_c, 0, 64, 81
2, 171991, Control_c, 0, 64, 80
2, 172005, Control_c, 0, 64, 78
2, 172010, Note_on_c, 0, 58, 54
2, 172020, Control_c, 0, 64, 76
2, 172030, Note_on_c, 0, 65, 58
2, 172036, Control_c, 0, 64, 74
2, 172051, Control_c, 0, 64, 69
2, 172067, Control_c, 0, 64, 64
2, 172082, Control_c, 0, 64, 55
2, 172097, Control_c, 0, 64, 34
2, 172112, Control_c, 0, 64, 0
2, 172208, Note_on_c, 0, 60, 44
2, 172328, Note_on_c, 0, 60, 0
2, 172394, Control_c, 0, 64, 10
2, 172394, Note_on_c, 0, 62, 43
2, 172409, Control_c, 0, 64, 13
2, 172425, Control_c, 0, 64, 15
2, 172439, Control_c, 0, 64, 21
2, 172454, Control_c, 0, 64, 34
2, 172470, Control_c, 0, 64, 47
2, 172485, Control_c, 0, 64, 55
2, 172500, Control_c, 0, 64, 59
2, 172516, Control_c, 0, 64, 62
2, 172531, Control_c, 0, 64, 64
2, 172535, Note_on_c, 0, 62, 0
2, 172547, Control_c, 0, 64, 65
2, 172562, Control_c, 0, 64, 67
2, 172562, Note_on_c, 0, 63, 45
2, 172576, Control_c, 0, 64, 68
2, 172592, Control_c, 0, 64, 69
2, 172607, Control_c, 0, 64, 70
2, 172618, Note_on_c, 0, 63, 0
2, 172623, Control_c, 0, 64, 70
2, 172644, Note_on_c, 0, 65, 0
2, 172668, Control_c, 0, 64, 70
2, 172683, Control_c, 0, 64, 69
2, 172698, Control_c, 0, 64, 67
2, 172712, Note_on_c, 0, 65, 35
2, 172714, Control_c, 0, 64, 64
2, 172728, Control_c, 0, 64, 60
2, 172728, Note_on_c, 0, 70, 61
2, 172733, Note_on_c, 0, 74, 55
2, 172744, Control_c, 0, 64, 54
2, 172759, Control_c, 0, 64, 50
2, 172765, Note_on_c, 0, 75, 0
2, 172773, Control_c, 0, 64, 49
2, 172819, Control_c, 0, 64, 48
2, 172835, Control_c, 0, 64, 47
2, 172849, Control_c, 0, 64, 47
2, 172865, Control_c, 0, 64, 46
2, 172895, Control_c, 0, 64, 45
2, 172895, Note_on_c, 0, 65, 0
2, 172895, Note_on_c, 0, 68, 57
2, 172911, Control_c, 0, 64, 45
2, 172925, Control_c, 0, 64, 44
2, 172956, Control_c, 0, 64, 44
2, 172971, Control_c, 0, 64, 43
2, 172987, Control_c, 0, 64, 43
2, 173002, Control_c, 0, 64, 42
2, 173033, Control_c, 0, 64, 42
2, 173047, Control_c, 0, 64, 41
2, 173063, Control_c, 0, 64, 41
2, 173078, Note_on_c, 0, 67, 52
2, 173087, Note_on_c, 0, 68, 0
2, 173109, Control_c, 0, 64, 40
2, 173130, Control_c, 0, 64, 40
2, 173146, Control_c, 0, 64, 38
2, 173162, Control_c, 0, 64, 38
2, 173177, Control_c, 0, 64, 37
2, 173193, Control_c, 0, 64, 36
2, 173207, Control_c, 0, 64, 36
2, 173223, Control_c, 0, 64, 35
2, 173228, Note_on_c, 0, 67, 0
2, 173247, Note_on_c, 0, 65, 50
2, 173253, Control_c, 0, 64, 34
2, 173283, Control_c, 0, 64, 34
2, 173298, Control_c, 0, 64, 33
2, 173330, Control_c, 0, 64, 32
2, 173346, Control_c, 0, 64, 32
2, 173391, Control_c, 0, 64, 31
2, 173392, Note_on_c, 0, 65, 0
2, 173417, Note_on_c, 0, 63, 45
2, 173422, Note_on_c, 0, 78, 66
2, 173436, Control_c, 0, 64, 30
2, 173451, Control_c, 0, 64, 29
2, 173467, Control_c, 0, 64, 29
2, 173482, Control_c, 0, 64, 28
2, 173544, Control_c, 0, 64, 27
2, 173558, Control_c, 0, 64, 26
2, 173579, Note_on_c, 0, 63, 0
2, 173589, Control_c, 0, 64, 25
2, 173604, Control_c, 0, 64, 24
2, 173608, Note_on_c, 0, 65, 38
2, 173649, Control_c, 0, 64, 23
2, 173680, Control_c, 0, 64, 21
2, 173777, Note_on_c, 0, 65, 0
2, 173791, Note_on_c, 0, 63, 40
2, 173801, Control_c, 0, 64, 20
2, 173930, Control_c, 0, 64, 18
2, 173932, Note_on_c, 0, 63, 0
2, 173967, Note_on_c, 0, 62, 44
2, 174100, Note_on_c, 0, 62, 0
2, 174114, Note_on_c, 0, 70, 0
2, 174121, Note_on_c, 0, 69, 55
2, 174122, Note_on_c, 0, 74, 0
2, 174143, Control_c, 0, 64, 20
2, 174148, Note_on_c, 0, 60, 38
2, 174158, Control_c, 0, 64, 23
2, 174173, Control_c, 0, 64, 25
2, 174189, Control_c, 0, 64, 27
2, 174203, Control_c, 0, 64, 30
2, 174218, Control_c, 0, 64, 35
2, 174234, Control_c, 0, 64, 41
2, 174249, Control_c, 0, 64, 47
2, 174265, Control_c, 0, 64, 51
2, 174280, Control_c, 0, 64, 56
2, 174281, Note_on_c, 0, 60, 0
2, 174295, Control_c, 0, 64, 60
2, 174304, Note_on_c, 0, 63, 39
2, 174311, Control_c, 0, 64, 63
2, 174326, Control_c, 0, 64, 64
2, 174340, Control_c, 0, 64, 65
2, 174356, Control_c, 0, 64, 68
2, 174371, Control_c, 0, 64, 71
2, 174386, Control_c, 0, 64, 74
2, 174401, Control_c, 0, 64, 76
2, 174403, Note_on_c, 0, 63, 0
2, 174416, Control_c, 0, 64, 77
2, 174432, Control_c, 0, 64, 78
2, 174442, Note_on_c, 0, 58, 0
2, 174447, Control_c, 0, 64, 78
2, 174463, Note_on_c, 0, 62, 37
2, 174477, Control_c, 0, 64, 79
2, 174492, Control_c, 0, 64, 79
2, 174493, Note_on_c, 0, 78, 0
2, 174508, Control_c, 0, 67, 10
2, 174523, Control_c, 0, 67, 16
2, 174537, Control_c, 0, 67, 27
2, 174553, Control_c, 0, 67, 41
2, 174568, Control_c, 0, 67, 54
2, 174583, Control_c, 0, 67, 67
2, 174598, Control_c, 0, 67, 78
2, 174613, Control_c, 0, 67, 88
2, 174619, Note_on_c, 0, 62, 0
2, 174629, Control_c, 0, 67, 96
2, 174644, Control_c, 0, 67, 105
2, 174653, Note_on_c, 0, 60, 34
2, 174667, Control_c, 0, 67, 111
2, 174682, Control_c, 0, 67, 116
2, 174697, Control_c, 0, 67, 120
2, 174713, Control_c, 0, 67, 123
2, 174728, Control_c, 0, 64, 79
2, 174728, Control_c, 0, 67, 125
2, 174743, Control_c, 0, 67, 126
2, 174758, Control_c, 0, 64, 78
2, 174758, Control_c, 0, 67, 126
2, 174773, Control_c, 0, 64, 78
2, 174773, Control_c, 0, 67, 127
2, 174782, Note_on_c, 0, 60, 0
2, 174787, Note_on_c, 0, 69, 0
2, 174790, Control_c, 0, 64, 77
2, 174805, Control_c, 0, 64, 77
2, 174812, Note_on_c, 0, 77, 56
2, 174815, Note_on_c, 0, 74, 46
2, 174819, Control_c, 0, 64, 76
2, 174823, Note_on_c, 0, 68, 42
2, 174850, Control_c, 0, 64, 76
2, 174866, Control_c, 0, 64, 75
2, 174881, Control_c, 0, 64, 74
2, 174895, Control_c, 0, 64, 72
2, 174911, Control_c, 0, 64, 72
2, 174926, Control_c, 0, 64, 70
2, 174941, Control_c, 0, 64, 69
2, 174941, Control_c, 0, 67, 126
2, 174957, Control_c, 0, 64, 67
2, 174971, Control_c, 0, 64, 65
2, 174971, Control_c, 0, 67, 126
2, 174987, Control_c, 0, 64, 63
2, 174995, Note_on_c, 0, 53, 48
2, 175002, Control_c, 0, 64, 62
2, 175002, Control_c, 0, 67, 125
2, 175016, Control_c, 0, 64, 61
2, 175047, Control_c, 0, 64, 61
2, 175047, Control_c, 0, 67, 125
2, 175063, Control_c, 0, 64, 60
2, 175078, Control_c, 0, 64, 59
2, 175078, Control_c, 0, 67, 124
2, 175093, Control_c, 0, 64, 58
2, 175096, Note_on_c, 0, 74, 0
2, 175109, Control_c, 0, 64, 57
2, 175124, Control_c, 0, 64, 56
2, 175124, Control_c, 0, 67, 124
2, 175139, Control_c, 0, 64, 56
2, 175139, Control_c, 0, 67, 123
2, 175150, Note_on_c, 0, 53, 0
2, 175154, Control_c, 0, 64, 55
2, 175166, Note_on_c, 0, 51, 50
2, 175169, Control_c, 0, 64, 55
2, 175185, Control_c, 0, 64, 54
2, 175185, Control_c, 0, 67, 123
2, 175200, Control_c, 0, 64, 54
2, 175203, Note_on_c, 0, 68, 0
2, 175215, Control_c, 0, 64, 53
2, 175230, Control_c, 0, 64, 53
2, 175230, Control_c, 0, 67, 122
2, 175245, Control_c, 0, 64, 52
2, 175245, Control_c, 0, 67, 122
2, 175276, Control_c, 0, 64, 52
2, 175276, Control_c, 0, 67, 121
2, 175291, Control_c, 0, 64, 51
2, 175306, Control_c, 0, 64, 51
2, 175306, Control_c, 0, 67, 121
2, 175310, Note_on_c, 0, 51, 0
2, 175321, Control_c, 0, 64, 50
2, 175321, Control_c, 0, 67, 120
2, 175322, Note_on_c, 0, 50, 49
2, 175336, Control_c, 0, 64, 50
2, 175352, Control_c, 0, 67, 120
2, 175367, Control_c, 0, 64, 49
2, 175381, Control_c, 0, 67, 119
2, 175397, Control_c, 0, 64, 48
2, 175397, Control_c, 0, 67, 119
2, 175435, Control_c, 0, 64, 47
2, 175435, Control_c, 0, 67, 118
2, 175466, Control_c, 0, 64, 47
2, 175466, Control_c, 0, 67, 117
2, 175481, Control_c, 0, 64, 46
2, 175491, Note_on_c, 0, 50, 0
2, 175496, Control_c, 0, 64, 45
2, 175496, Control_c, 0, 67, 116
2, 175511, Control_c, 0, 64, 44
2, 175516, Note_on_c, 0, 77, 0
2, 175526, Control_c, 0, 67, 115
2, 175527, Note_on_c, 0, 51, 45
2, 175537, Note_on_c, 0, 70, 47
2, 175540, Note_on_c, 0, 75, 45
2, 175541, Control_c, 0, 67, 114
2, 175546, Note_on_c, 0, 67, 41
2, 175557, Control_c, 0, 64, 44
2, 175557, Control_c, 0, 67, 114
2, 175571, Control_c, 0, 64, 43
2, 175571, Control_c, 0, 67, 113
2, 175587, Control_c, 0, 67, 110
2, 175602, Control_c, 0, 64, 43
2, 175602, Control_c, 0, 67, 108
2, 175618, Control_c, 0, 64, 42
2, 175618, Control_c, 0, 67, 105
2, 175634, Control_c, 0, 64, 42
2, 175634, Control_c, 0, 67, 102
2, 175649, Control_c, 0, 67, 98
2, 175664, Control_c, 0, 64, 41
2, 175664, Control_c, 0, 67, 95
2, 175679, Control_c, 0, 64, 41
2, 175679, Control_c, 0, 67, 91
2, 175692, Note_on_c, 0, 51, 0
2, 175694, Control_c, 0, 64, 40
2, 175694, Control_c, 0, 67, 86
2, 175710, Control_c, 0, 64, 40
2, 175710, Control_c, 0, 67, 82
2, 175725, Control_c, 0, 64, 39
2, 175725, Control_c, 0, 67, 78
2, 175729, Note_on_c, 0, 53, 45
2, 175739, Control_c, 0, 67, 73
2, 175755, Control_c, 0, 64, 39
2, 175755, Control_c, 0, 67, 69
2, 175770, Control_c, 0, 67, 64
2, 175786, Control_c, 0, 64, 38
2, 175786, Control_c, 0, 67, 58
2, 175801, Control_c, 0, 67, 53
2, 175815, Control_c, 0, 67, 48
2, 175831, Control_c, 0, 67, 44
2, 175846, Control_c, 0, 64, 38
2, 175846, Control_c, 0, 67, 40
2, 175847, Note_on_c, 0, 53, 0
2, 175860, Control_c, 0, 67, 36
2, 175876, Control_c, 0, 67, 32
2, 175891, Control_c, 0, 67, 27
2, 175907, Control_c, 0, 67, 23
2, 175907, Note_on_c, 0, 55, 39
2, 175922, Control_c, 0, 67, 19
2, 175937, Control_c, 0, 67, 16
2, 175952, Control_c, 0, 67, 12
2, 175967, Control_c, 0, 67, 9
2, 175983, Control_c, 0, 67, 0
2, 176006, Note_on_c, 0, 70, 0
2, 176016, Note_on_c, 0, 67, 0
2, 176029, Control_c, 0, 64, 37
2, 176086, Note_on_c, 0, 55, 0
2, 176091, Note_on_c, 0, 56, 40
2, 176135, Control_c, 0, 64, 37
2, 176180, Control_c, 0, 64, 36
2, 176249, Control_c, 0, 64, 36
2, 176312, Note_on_c, 0, 46, 25
2, 176323, Note_on_c, 0, 70, 37
2, 176324, Note_on_c, 0, 65, 33
2, 176325, Control_c, 0, 64, 35
2, 176350, Note_on_c, 0, 56, 0
2, 176355, Control_c, 0, 64, 34
2, 176370, Control_c, 0, 64, 34
2, 176402, Control_c, 0, 64, 33
2, 176463, Control_c, 0, 64, 32
2, 177051, Note_on_c, 0, 75, 0
2, 177095, Note_on_c, 0, 65, 0
2, 177098, Note_on_c, 0, 74, 36
2, 177387, Note_on_c, 0, 70, 0
2, 177453, Note_on_c, 0, 68, 19
2, 177771, Note_on_c, 0, 51, 17
2, 177807, Note_on_c, 0, 68, 0
2, 177820, Note_on_c, 0, 46, 0
2, 177845, Note_on_c, 0, 74, 0
2, 177887, Note_on_c, 0, 75, 41
2, 177891, Control_c, 0, 64, 32
2, 177907, Note_on_c, 0, 67, 36
2, 178077, Note_on_c, 0, 67, 0
2, 178089, Note_on_c, 0, 70, 39
2, 178196, Control_c, 0, 64, 31
2, 178225, Note_on_c, 0, 70, 0
2, 178253, Note_on_c, 0, 72, 48
2, 178390, Note_on_c, 0, 72, 0
2, 178395, Control_c, 0, 64, 30
2, 178409, Control_c, 0, 64, 29
2, 178414, Note_on_c, 0, 73, 50
2, 178424, Note_on_c, 0, 75, 0
2, 178470, Control_c, 0, 64, 29
2, 178510, Note_on_c, 0, 73, 0
2, 178538, Control_c, 0, 64, 28
2, 178599, Note_on_c, 0, 72, 53
2, 178600, Control_c, 0, 64, 27
2, 178603, Note_on_c, 0, 56, 34
2, 178749, Note_on_c, 0, 72, 0
2, 178763, Note_on_c, 0, 70, 49
2, 178811, Control_c, 0, 64, 26
2, 178913, Note_on_c, 0, 70, 0
2, 178956, Note_on_c, 0, 68, 43
2, 179009, Control_c, 0, 64, 28
2, 179025, Control_c, 0, 64, 29
2, 179040, Control_c, 0, 64, 30
2, 179040, Note_on_c, 0, 68, 0
2, 179055, Control_c, 0, 64, 32
2, 179071, Control_c, 0, 64, 36
2, 179086, Control_c, 0, 64, 42
2, 179101, Control_c, 0, 64, 47
2, 179116, Control_c, 0, 64, 54
2, 179116, Note_on_c, 0, 67, 44
2, 179131, Control_c, 0, 64, 58
2, 179147, Control_c, 0, 64, 60
2, 179162, Control_c, 0, 64, 61
2, 179176, Control_c, 0, 64, 62
2, 179214, Note_on_c, 0, 67, 0
2, 179223, Control_c, 0, 64, 62
2, 179238, Control_c, 0, 64, 61
2, 179252, Control_c, 0, 64, 60
2, 179276, Control_c, 0, 64, 57
2, 179291, Control_c, 0, 64, 53
2, 179306, Control_c, 0, 64, 44
2, 179321, Control_c, 0, 64, 20
2, 179329, Note_on_c, 0, 74, 44
2, 179336, Control_c, 0, 64, 0
2, 179355, Note_on_c, 0, 65, 34
2, 179550, Note_on_c, 0, 65, 0
2, 179684, Note_on_c, 0, 67, 40
2, 179846, Note_on_c, 0, 67, 0
2, 179870, Note_on_c, 0, 68, 45
2, 180011, Note_on_c, 0, 74, 0
2, 180043, Note_on_c, 0, 68, 0
2, 180046, Note_on_c, 0, 55, 41
2, 180061, Note_on_c, 0, 70, 36
2, 180061, Note_on_c, 0, 73, 42
2, 180135, Note_on_c, 0, 56, 0
2, 180236, Note_on_c, 0, 68, 45
2, 180243, Note_on_c, 0, 70, 0
2, 180344, Note_on_c, 0, 68, 0
2, 180411, Note_on_c, 0, 67, 51
2, 180550, Note_on_c, 0, 67, 0
2, 180575, Note_on_c, 0, 65, 57
2, 180727, Note_on_c, 0, 65, 0
2, 180761, Note_on_c, 0, 63, 60
2, 180764, Note_on_c, 0, 60, 52
2, 180939, Note_on_c, 0, 55, 0
2, 180950, Note_on_c, 0, 70, 64
2, 180978, Note_on_c, 0, 73, 0
2, 181125, Note_on_c, 0, 70, 0
2, 181128, Note_on_c, 0, 72, 65
2, 181296, Note_on_c, 0, 72, 0
2, 181309, Note_on_c, 0, 73, 53
2, 181452, Note_on_c, 0, 73, 0
2, 181501, Note_on_c, 0, 72, 44
2, 181511, Note_on_c, 0, 68, 42
2, 181674, Note_on_c, 0, 72, 0
2, 181692, Note_on_c, 0, 68, 0
2, 181711, Note_on_c, 0, 70, 51
2, 181912, Note_on_c, 0, 70, 0
2, 181929, Note_on_c, 0, 72, 53
2, 182150, Note_on_c, 0, 68, 40
2, 182376, Note_on_c, 0, 60, 0
2, 182391, Note_on_c, 0, 68, 0
2, 182403, Note_on_c, 0, 74, 55
2, 182408, Note_on_c, 0, 72, 0
2, 182415, Note_on_c, 0, 59, 17
2, 182633, Note_on_c, 0, 68, 37
2, 182840, Note_on_c, 0, 68, 0
2, 182845, Note_on_c, 0, 70, 37
2, 183011, Note_on_c, 0, 70, 0
2, 183082, Note_on_c, 0, 71, 27
2, 183293, Note_on_c, 0, 71, 0
2, 183341, Note_on_c, 0, 70, 40
2, 183369, Note_on_c, 0, 63, 0
2, 183620, Note_on_c, 0, 70, 0
2, 183638, Note_on_c, 0, 68, 42
2, 183961, Note_on_c, 0, 68, 0
2, 184046, Note_on_c, 0, 67, 35
2, 184248, Control_c, 0, 64, 17
2, 184264, Control_c, 0, 64, 25
2, 184279, Control_c, 0, 64, 31
2, 184293, Control_c, 0, 64, 36
2, 184309, Control_c, 0, 64, 40
2, 184324, Control_c, 0, 64, 44
2, 184339, Control_c, 0, 64, 49
2, 184355, Control_c, 0, 64, 53
2, 184369, Control_c, 0, 64, 55
2, 184385, Control_c, 0, 64, 56
2, 184400, Control_c, 0, 64, 57
2, 184415, Control_c, 0, 64, 59
2, 184431, Control_c, 0, 64, 59
2, 184445, Control_c, 0, 64, 60
2, 184460, Control_c, 0, 64, 60
2, 184476, Control_c, 0, 64, 61
2, 184682, Control_c, 0, 64, 60
2, 184695, Note_on_c, 0, 67, 0
2, 184767, Note_on_c, 0, 68, 34
2, 184803, Control_c, 0, 64, 61
2, 184879, Control_c, 0, 64, 61
2, 184894, Control_c, 0, 64, 62
2, 184910, Control_c, 0, 64, 62
2, 184925, Control_c, 0, 64, 63
2, 184939, Control_c, 0, 64, 64
2, 184955, Control_c, 0, 64, 65
2, 184955, Note_on_c, 0, 74, 0
2, 184959, Note_on_c, 0, 68, 0
2, 184970, Control_c, 0, 64, 67
2, 184986, Control_c, 0, 64, 70
2, 184999, Note_on_c, 0, 65, 29
2, 185001, Control_c, 0, 64, 73
2, 185015, Control_c, 0, 64, 76
2, 185031, Control_c, 0, 64, 77
2, 185046, Control_c, 0, 64, 78
2, 185060, Control_c, 0, 64, 78
2, 185076, Control_c, 0, 64, 79
2, 185091, Control_c, 0, 64, 79
2, 185122, Control_c, 0, 64, 80
2, 185218, Note_on_c, 0, 59, 0
2, 185261, Note_on_c, 0, 65, 0
2, 185289, Control_c, 0, 64, 79
2, 185313, Note_on_c, 0, 58, 23
2, 185320, Control_c, 0, 64, 79
2, 185334, Control_c, 0, 64, 78
2, 185350, Control_c, 0, 64, 78
2, 185365, Control_c, 0, 64, 77
2, 185379, Control_c, 0, 64, 75
2, 185394, Note_on_c, 0, 75, 47
2, 185395, Control_c, 0, 64, 72
2, 185400, Note_on_c, 0, 67, 47
2, 185417, Control_c, 0, 64, 68
2, 185433, Control_c, 0, 64, 64
2, 185449, Control_c, 0, 64, 54
2, 185465, Control_c, 0, 64, 37
2, 185480, Control_c, 0, 64, 24
2, 185540, Control_c, 0, 64, 21
2, 185556, Control_c, 0, 64, 17
2, 185570, Control_c, 0, 64, 13
2, 185586, Control_c, 0, 64, 0
2, 186794, Control_c, 0, 64, 10
2, 186823, Control_c, 0, 64, 13
2, 186854, Control_c, 0, 64, 15
2, 186868, Control_c, 0, 64, 17
2, 186884, Control_c, 0, 64, 20
2, 186899, Control_c, 0, 64, 21
2, 186915, Control_c, 0, 64, 24
2, 186930, Control_c, 0, 64, 25
2, 186953, Control_c, 0, 64, 26
2, 186968, Control_c, 0, 64, 27
2, 186983, Control_c, 0, 64, 28
2, 186999, Control_c, 0, 64, 29
2, 187014, Control_c, 0, 64, 30
2, 187028, Control_c, 0, 64, 31
2, 187044, Control_c, 0, 64, 32
2, 187059, Control_c, 0, 64, 32
2, 187076, Control_c, 0, 64, 33
2, 187091, Control_c, 0, 64, 34
2, 187105, Control_c, 0, 64, 34
2, 187121, Control_c, 0, 64, 35
2, 187136, Control_c, 0, 64, 36
2, 187152, Control_c, 0, 64, 36
2, 187167, Control_c, 0, 64, 37
2, 187227, Control_c, 0, 64, 37
2, 187273, Control_c, 0, 64, 38
2, 187318, Control_c, 0, 64, 38
2, 187348, Control_c, 0, 64, 39
2, 187379, Control_c, 0, 64, 39
2, 187424, Control_c, 0, 64, 40
2, 187471, Control_c, 0, 64, 40
2, 187500, Control_c, 0, 64, 41
2, 187531, Control_c, 0, 64, 41
2, 187562, Control_c, 0, 64, 42
2, 187577, Control_c, 0, 64, 42
2, 187607, Control_c, 0, 64, 43
2, 187622, Control_c, 0, 64, 43
2, 187638, Control_c, 0, 64, 44
2, 187653, Control_c, 0, 64, 45
2, 187667, Control_c, 0, 64, 46
2, 187683, Control_c, 0, 64, 47
2, 187698, Control_c, 0, 64, 48
2, 187721, Control_c, 0, 64, 49
2, 187736, Control_c, 0, 64, 50
2, 187752, Control_c, 0, 64, 51
2, 187767, Control_c, 0, 64, 52
2, 187782, Control_c, 0, 64, 53
2, 187797, Control_c, 0, 64, 54
2, 187812, Control_c, 0, 64, 55
2, 187827, Control_c, 0, 64, 55
2, 187843, Control_c, 0, 64, 56
2, 187857, Control_c, 0, 64, 57
2, 187873, Control_c, 0, 64, 57
2, 187888, Control_c, 0, 64, 58
2, 187904, Control_c, 0, 64, 58
2, 187920, Control_c, 0, 64, 59
2, 187935, Control_c, 0, 64, 59
2, 187950, Control_c, 0, 64, 60
2, 187965, Control_c, 0, 64, 60
2, 187980, Control_c, 0, 64, 61
2, 188011, Control_c, 0, 64, 61
2, 188025, Control_c, 0, 64, 62
2, 188041, Control_c, 0, 64, 62
2, 188056, Control_c, 0, 64, 63
2, 188087, Control_c, 0, 64, 63
2, 188101, Control_c, 0, 64, 64
2, 188132, Control_c, 0, 64, 64
2, 188147, Control_c, 0, 64, 65
2, 188177, Control_c, 0, 64, 65
2, 188193, Control_c, 0, 64, 66
2, 188222, Control_c, 0, 64, 66
2, 188253, Control_c, 0, 64, 67
2, 188314, Control_c, 0, 64, 67
2, 188465, Note_on_c, 0, 51, 0
2, 188595, Control_c, 0, 64, 67
2, 188624, Note_on_c, 0, 67, 0
2, 188650, Note_on_c, 0, 58, 0
2, 188653, Note_on_c, 0, 75, 0
2, 188701, Control_c, 0, 64, 66
2, 188763, Control_c, 0, 64, 66
2, 188809, Control_c, 0, 64, 65
2, 188855, Control_c, 0, 64, 65
2, 188885, Control_c, 0, 64, 64
2, 188900, Control_c, 0, 64, 64
2, 188976, Control_c, 0, 64, 63
2, 189021, Control_c, 0, 64, 63
2, 189066, Control_c, 0, 64, 62
2, 189142, Control_c, 0, 64, 62
2, 189173, Control_c, 0, 64, 61
2, 189204, Control_c, 0, 64, 61
2, 189273, Control_c, 0, 64, 60
2, 189302, Control_c, 0, 64, 60
2, 189332, Control_c, 0, 64, 59
2, 189347, Control_c, 0, 64, 59
2, 189378, Control_c, 0, 64, 58
2, 189394, Control_c, 0, 64, 58
2, 189408, Control_c, 0, 64, 57
2, 189439, Control_c, 0, 64, 57
2, 189454, Control_c, 0, 64, 56
2, 189485, Control_c, 0, 64, 56
2, 189516, Control_c, 0, 64, 55
2, 189546, Control_c, 0, 64, 55
2, 189607, Control_c, 0, 64, 54
2, 189774, Control_c, 0, 64, 54
2, 189912, Control_c, 0, 64, 53
2, 190025, Control_c, 0, 64, 53
2, 190267, Control_c, 0, 64, 52
2, 190391, Control_c, 0, 64, 52
2, 190420, Control_c, 0, 64, 51
2, 190451, Control_c, 0, 64, 51
2, 190513, Control_c, 0, 64, 50
2, 190573, Control_c, 0, 64, 50
2, 190588, Control_c, 0, 64, 49
2, 190604, Control_c, 0, 64, 48
2, 190618, Control_c, 0, 64, 47
2, 190649, Control_c, 0, 64, 47
2, 190680, Control_c, 0, 64, 46
2, 190694, Control_c, 0, 64, 45
2, 190710, Control_c, 0, 64, 44
2, 190725, Control_c, 0, 64, 43
2, 190739, Control_c, 0, 64, 42
2, 190755, Control_c, 0, 64, 42
2, 190770, Control_c, 0, 64, 40
2, 190794, Control_c, 0, 64, 39
2, 190809, Control_c, 0, 64, 38
2, 190823, Control_c, 0, 64, 36
2, 190839, Control_c, 0, 64, 34
2, 190854, Control_c, 0, 64, 32
2, 190870, Control_c, 0, 64, 30
2, 190885, Control_c, 0, 64, 29
2, 190899, Control_c, 0, 64, 25
2, 190915, Control_c, 0, 64, 21
2, 190930, Control_c, 0, 64, 18
2, 190944, Control_c, 0, 64, 17
2, 190960, Control_c, 0, 64, 15
2, 190975, Control_c, 0, 64, 13
2, 190991, Control_c, 0, 64, 10
2, 191036, Control_c, 0, 64, 0
2, 191371, Control_c, 0, 64, 10
2, 191524, Control_c, 0, 64, 13
2, 191774, Control_c, 0, 64, 15
2, 192139, Control_c, 0, 64, 17
2, 192169, Control_c, 0, 64, 18
2, 192215,End_track
0, 0, End_of_file
