0, 0, Header, 1, 2, 384
1, 0, Start_track
1, 0, Tempo, 500000
1, 0, Time_signature, 4, 2, 24, 8
1, 1, End_track
2,0,Start_track
2,0, Note_on_c, 0, 70, 80
2,61, Control_c, 0, 64, 17
2,76, Control_c, 0, 64, 15
2,114, Control_c, 0, 64, 13
2,114, Note_on_c, 0, 67, 66
2,123, Note_on_c, 0, 70, 0
2,205, Control_c, 0, 64, 10
2,219, Note_on_c, 0, 65, 68
2,221, Note_on_c, 0, 67, 0
2,303, Note_on_c, 0, 65, 0
2,312, Control_c, 0, 64, 0
2,313, Note_on_c, 0, 67, 72
2,386, Note_on_c, 0, 67, 0
2,415, Note_on_c, 0, 63, 78
2,484, Note_on_c, 0, 63, 0
2,517, Note_on_c, 0, 68, 72
2,580, Note_on_c, 0, 68, 0
2,618, Note_on_c, 0, 67, 82
2,675, Note_on_c, 0, 67, 0
2,718, Note_on_c, 0, 68, 88
2,790, Note_on_c, 0, 68, 0
2,841, Note_on_c, 0, 72, 91
2,1024, Note_on_c, 0, 72, 0
2,1076, Note_on_c, 0, 70, 68
2,1375, Note_on_c, 0, 70, 0
2,1495, Note_on_c, 0, 69, 77
2,1556, Note_on_c, 0, 69, 0
2,1580, Note_on_c, 0, 65, 78
2,1635, Note_on_c, 0, 65, 0
2,1687, Note_on_c, 0, 75, 91
2,1859, Note_on_c, 0, 75, 0
2,1908, Note_on_c, 0, 74, 91
2,2108, Note_on_c, 0, 72, 91
2,2108, Note_on_c, 0, 74, 0
2,2265, Note_on_c, 0, 72, 0
2,2317, Note_on_c, 0, 74, 52
2,2348, Note_on_c, 0, 74, 0
2,2373, Note_on_c, 0, 72, 60
2,2394, Note_on_c, 0, 72, 0
2,2423, Note_on_c, 0, 74, 67
2,2473, Note_on_c, 0, 72, 78
2,2473, Note_on_c, 0, 74, 0
2,2523, Note_on_c, 0, 70, 88
2,2543, Note_on_c, 0, 72, 0
2,2643, Note_on_c, 0, 77, 76
2,2706, Note_on_c, 0, 70, 0
2,2722, Note_on_c, 0, 77, 0
2,2743, Note_on_c, 0, 74, 73
2,2845, Note_on_c, 0, 70, 74
2,2852, Note_on_c, 0, 74, 0
2,2913, Note_on_c, 0, 70, 0
2,2944, Note_on_c, 0, 68, 75
2,3053, Note_on_c, 0, 68, 0
2,3055, Note_on_c, 0, 77, 70
2,3148, Note_on_c, 0, 77, 0
2,3158, Note_on_c, 0, 74, 69
2,3232, Note_on_c, 0, 74, 0
2,3261, Note_on_c, 0, 68, 72
2,3310, Note_on_c, 0, 68, 0
2,3375, Note_on_c, 0, 63, 78
2,3376, Note_on_c, 0, 67, 74
2,3487, Note_on_c, 0, 62, 75
2,3487, Note_on_c, 0, 63, 0
2,3586, Note_on_c, 0, 67, 0
2,3601, Note_on_c, 0, 62, 0
2,3608, Note_on_c, 0, 80, 79
2,3610, Note_on_c, 0, 60, 58
2,3627, Note_on_c, 0, 59, 53
2,3657, Note_on_c, 0, 59, 0
2,3675, Note_on_c, 0, 60, 0
2,3716, Note_on_c, 0, 62, 78
2,3754, Note_on_c, 0, 80, 0
2,3790, Note_on_c, 0, 62, 0
2,3822, Note_on_c, 0, 58, 77
2,3832, Note_on_c, 0, 79, 73
2,3929, Note_on_c, 0, 58, 0
2,3931, Note_on_c, 0, 63, 83
2,3973, Note_on_c, 0, 79, 0
2,4039, Note_on_c, 0, 63, 0
2,4039, Note_on_c, 0, 77, 77
2,4049, Note_on_c, 0, 62, 80
2,4158, Note_on_c, 0, 63, 86
2,4176, Note_on_c, 0, 62, 0
2,4237, Note_on_c, 0, 63, 0
2,4262, Note_on_c, 0, 77, 0
2,4274, Note_on_c, 0, 67, 92
2,4292, Note_on_c, 0, 75, 76
2,4365, Note_on_c, 0, 75, 0
2,4402, Note_on_c, 0, 72, 75
2,4458, Note_on_c, 0, 67, 0
2,4464, Note_on_c, 0, 72, 0
2,4522, Note_on_c, 0, 74, 73
2,4528, Note_on_c, 0, 65, 76
2,4565, Note_on_c, 0, 74, 0
2,4627, Note_on_c, 0, 75, 79
2,4675, Note_on_c, 0, 75, 0
2,4723, Note_on_c, 0, 65, 0
2,4752, Note_on_c, 0, 77, 92
2,4966, Note_on_c, 0, 62, 66
2,5024, Note_on_c, 0, 62, 0
2,5069, Note_on_c, 0, 58, 68
2,5126, Note_on_c, 0, 58, 0
2,5190, Note_on_c, 0, 68, 91
2,5249, Note_on_c, 0, 77, 0
2,5311, Note_on_c, 0, 75, 74
2,5328, Note_on_c, 0, 68, 0
2,5383, Note_on_c, 0, 75, 0
2,5433, Note_on_c, 0, 67, 89
2,5443, Note_on_c, 0, 77, 65
2,5544, Note_on_c, 0, 79, 68
2,5596, Note_on_c, 0, 77, 0
2,5645, Note_on_c, 0, 67, 0
2,5660, Note_on_c, 0, 65, 88
2,5664, Note_on_c, 0, 80, 75
2,5674, Note_on_c, 0, 79, 0
2,5764, Note_on_c, 0, 77, 64
2,5769, Note_on_c, 0, 80, 0
2,5813, Note_on_c, 0, 65, 0
2,5813, Note_on_c, 0, 65, 3
2,5837, Note_on_c, 0, 65, 0
2,5864, Note_on_c, 0, 77, 0
2,5866, Note_on_c, 0, 67, 64
2,5889, Note_on_c, 0, 70, 61
2,5895, Note_on_c, 0, 67, 0
2,5930, Note_on_c, 0, 65, 65
2,5953, Note_on_c, 0, 65, 0
2,5972, Note_on_c, 0, 67, 64
2,6000, Note_on_c, 0, 67, 0
2,6001, Note_on_c, 0, 80, 56
2,6020, Note_on_c, 0, 70, 0
2,6024, Note_on_c, 0, 65, 71
2,6078, Note_on_c, 0, 63, 78
2,6080, Note_on_c, 0, 80, 0
2,6082, Note_on_c, 0, 65, 0
2,6091, Note_on_c, 0, 79, 72
2,6194, Note_on_c, 0, 63, 0
2,6209, Note_on_c, 0, 70, 65
2,6259, Note_on_c, 0, 70, 0
2,6288, Note_on_c, 0, 79, 0
2,6315, Note_on_c, 0, 67, 51
2,6317, Note_on_c, 0, 75, 74
2,6371, Note_on_c, 0, 67, 0
2,6378, Note_on_c, 0, 75, 0
2,6419, Note_on_c, 0, 79, 80
2,6425, Note_on_c, 0, 65, 52
2,6486, Note_on_c, 0, 79, 0
2,6504, Note_on_c, 0, 65, 0
2,6538, Note_on_c, 0, 84, 84
2,6552, Note_on_c, 0, 63, 43
2,6669, Note_on_c, 0, 72, 59
2,6713, Note_on_c, 0, 72, 0
2,6738, Note_on_c, 0, 63, 0
2,6779, Note_on_c, 0, 69, 58
2,6830, Note_on_c, 0, 69, 0
2,6899, Note_on_c, 0, 65, 46
2,6950, Note_on_c, 0, 65, 0
2,7001, Note_on_c, 0, 62, 49
2,7079, Note_on_c, 0, 62, 0
2,7122, Note_on_c, 0, 69, 48
2,7170, Note_on_c, 0, 69, 0
2,7219, Note_on_c, 0, 74, 62
2,7237, Note_on_c, 0, 65, 37
2,7246, Note_on_c, 0, 84, 0
2,7263, Note_on_c, 0, 74, 0
2,7268, Note_on_c, 0, 65, 0
2,7323, Note_on_c, 0, 77, 74
2,7333, Note_on_c, 0, 63, 46
2,7369, Note_on_c, 0, 63, 0
2,7370, Note_on_c, 0, 77, 0
2,7439, Note_on_c, 0, 82, 77
2,7454, Note_on_c, 0, 61, 47
2,7482, Note_on_c, 0, 61, 0
2,7552, Note_on_c, 0, 70, 57
2,7607, Note_on_c, 0, 70, 0
2,7654, Note_on_c, 0, 67, 58
2,7695, Note_on_c, 0, 67, 0
2,7764, Note_on_c, 0, 63, 61
2,7834, Note_on_c, 0, 63, 0
2,7902, Note_on_c, 0, 60, 50
2,8014, Note_on_c, 0, 67, 44
2,8039, Note_on_c, 0, 60, 0
2,8059, Note_on_c, 0, 67, 0
2,8114, Note_on_c, 0, 72, 57
2,8121, Note_on_c, 0, 82, 0
2,8124, Note_on_c, 0, 63, 38
2,8146, Note_on_c, 0, 72, 0
2,8176, Note_on_c, 0, 63, 0
2,8212, Note_on_c, 0, 60, 45
2,8216, Note_on_c, 0, 75, 67
2,8252, Note_on_c, 0, 60, 0
2,8258, Note_on_c, 0, 75, 0
2,8327, Note_on_c, 0, 62, 59
2,8327, Note_on_c, 0, 80, 84
2,8369, Control_c, 0, 64, 53
2,8385, Control_c, 0, 64, 56
2,8400, Control_c, 0, 64, 58
2,8410, Note_on_c, 0, 62, 0
2,8415, Control_c, 0, 64, 61
2,8430, Control_c, 0, 64, 64
2,8436, Note_on_c, 0, 70, 68
2,8445, Control_c, 0, 64, 66
2,8460, Control_c, 0, 64, 67
2,8476, Control_c, 0, 64, 68
2,8477, Note_on_c, 0, 80, 0
2,8491, Control_c, 0, 64, 70
2,8507, Control_c, 0, 64, 71
2,8522, Control_c, 0, 64, 73
2,8531, Note_on_c, 0, 70, 0
2,8537, Control_c, 0, 64, 76
2,8559, Control_c, 0, 64, 77
2,8568, Note_on_c, 0, 63, 68
2,8570, Note_on_c, 0, 79, 79
2,8574, Control_c, 0, 64, 79
2,8590, Control_c, 0, 64, 80
2,8595, Note_on_c, 0, 63, 0
2,8673, Note_on_c, 0, 72, 72
2,8742, Control_c, 0, 64, 79
2,8742, Note_on_c, 0, 79, 0
2,8757, Control_c, 0, 64, 78
2,8757, Note_on_c, 0, 72, 0
2,8772, Control_c, 0, 64, 75
2,8788, Control_c, 0, 64, 67
2,8797, Note_on_c, 0, 74, 74
2,8797, Note_on_c, 0, 77, 73
2,8803, Control_c, 0, 64, 49
2,8810, Note_on_c, 0, 58, 91
2,8818, Control_c, 0, 64, 0
2,8879, Note_on_c, 0, 58, 0
2,8897, Note_on_c, 0, 74, 0
2,8914, Note_on_c, 0, 55, 77
2,9032, Note_on_c, 0, 55, 0
2,9035, Note_on_c, 0, 53, 74
2,9038, Note_on_c, 0, 73, 79
2,9124, Note_on_c, 0, 53, 0
2,9146, Note_on_c, 0, 55, 76
2,9228, Note_on_c, 0, 55, 0
2,9235, Note_on_c, 0, 77, 0
2,9262, Note_on_c, 0, 51, 76
2,9274, Note_on_c, 0, 72, 80
2,9277, Note_on_c, 0, 79, 74
2,9279, Note_on_c, 0, 73, 0
2,9338, Note_on_c, 0, 51, 0
2,9383, Note_on_c, 0, 56, 80
2,9417, Note_on_c, 0, 79, 0
2,9439, Note_on_c, 0, 56, 0
2,9498, Note_on_c, 0, 55, 80
2,9511, Note_on_c, 0, 70, 74
2,9515, Note_on_c, 0, 72, 0
2,9519, Note_on_c, 0, 74, 66
2,9598, Note_on_c, 0, 55, 0
2,9609, Note_on_c, 0, 56, 86
2,9644, Note_on_c, 0, 70, 0
2,9653, Note_on_c, 0, 56, 0
2,9659, Note_on_c, 0, 74, 0
2,9738, Note_on_c, 0, 60, 92
2,9749, Note_on_c, 0, 68, 79
2,9754, Note_on_c, 0, 75, 68
2,9805, Note_on_c, 0, 75, 0
2,9812, Note_on_c, 0, 68, 0
2,9862, Note_on_c, 0, 67, 72
2,9916, Note_on_c, 0, 60, 0
2,9926, Note_on_c, 0, 67, 0
2,9985, Note_on_c, 0, 58, 74
2,9988, Note_on_c, 0, 68, 72
2,10046, Note_on_c, 0, 68, 0
2,10100, Note_on_c, 0, 70, 75
2,10146, Note_on_c, 0, 70, 0
2,10174, Note_on_c, 0, 58, 0
2,10226, Note_on_c, 0, 72, 80
2,10442, Note_on_c, 0, 57, 78
2,10447, Note_on_c, 0, 77, 78
2,10464, Note_on_c, 0, 72, 0
2,10505, Note_on_c, 0, 57, 0
2,10546, Note_on_c, 0, 53, 77
2,10637, Note_on_c, 0, 53, 0
2,10666, Note_on_c, 0, 63, 90
2,10677, Note_on_c, 0, 79, 77
2,10683, Note_on_c, 0, 77, 0
2,10789, Note_on_c, 0, 70, 73
2,10799, Note_on_c, 0, 63, 0
2,10860, Note_on_c, 0, 70, 0
2,10898, Note_on_c, 0, 79, 0
2,10913, Note_on_c, 0, 62, 84
2,10917, Note_on_c, 0, 72, 73
2,11020, Note_on_c, 0, 72, 0
2,11025, Note_on_c, 0, 74, 72
2,11083, Note_on_c, 0, 74, 0
2,11111, Note_on_c, 0, 62, 0
2,11144, Note_on_c, 0, 60, 78
2,11150, Note_on_c, 0, 75, 72
2,11168, Control_c, 0, 64, 44
2,11184, Control_c, 0, 64, 61
2,11199, Control_c, 0, 64, 65
2,11214, Control_c, 0, 64, 69
2,11216, Note_on_c, 0, 75, 0
2,11229, Control_c, 0, 64, 73
2,11245, Control_c, 0, 64, 78
2,11260, Control_c, 0, 64, 80
2,11267, Note_on_c, 0, 72, 66
2,11276, Control_c, 0, 64, 81
2,11291, Control_c, 0, 64, 82
2,11299, Note_on_c, 0, 72, 0
2,11372, Note_on_c, 0, 81, 65
2,11424, Note_on_c, 0, 81, 0
2,11428, Control_c, 0, 64, 82
2,11473, Note_on_c, 0, 75, 67
2,11518, Note_on_c, 0, 75, 0
2,11564, Control_c, 0, 64, 82
2,11570, Note_on_c, 0, 60, 0
2,11579, Control_c, 0, 64, 80
2,11595, Control_c, 0, 64, 77
2,11608, Note_on_c, 0, 82, 72
2,11609, Control_c, 0, 64, 70
2,11631, Note_on_c, 0, 74, 53
2,11633, Control_c, 0, 64, 56
2,11634, Note_on_c, 0, 58, 48
2,11648, Control_c, 0, 64, 0
2,11708, Note_on_c, 0, 58, 0
2,11723, Note_on_c, 0, 74, 0
2,11738, Note_on_c, 0, 65, 54
2,11784, Note_on_c, 0, 65, 0
2,11864, Note_on_c, 0, 62, 54
2,11871, Note_on_c, 0, 77, 63
2,11903, Note_on_c, 0, 62, 0
2,11975, Note_on_c, 0, 58, 57
2,12014, Note_on_c, 0, 58, 0
2,12089, Note_on_c, 0, 74, 66
2,12095, Note_on_c, 0, 56, 52
2,12160, Note_on_c, 0, 77, 0
2,12163, Note_on_c, 0, 56, 0
2,12208, Note_on_c, 0, 65, 57
2,12253, Note_on_c, 0, 65, 0
2,12307, Note_on_c, 0, 74, 0
2,12324, Note_on_c, 0, 62, 62
2,12331, Note_on_c, 0, 70, 66
2,12365, Note_on_c, 0, 62, 0
2,12441, Note_on_c, 0, 56, 60
2,12476, Note_on_c, 0, 56, 0
2,12479, Note_on_c, 0, 82, 0
2,12515, Note_on_c, 0, 70, 0
2,12565, Note_on_c, 0, 55, 51
2,12571, Note_on_c, 0, 75, 69
2,12677, Note_on_c, 0, 55, 0
2,12680, Note_on_c, 0, 82, 70
2,12710, Note_on_c, 0, 75, 0
2,12736, Note_on_c, 0, 82, 0
2,12796, Note_on_c, 0, 63, 46
2,12797, Note_on_c, 0, 79, 71
2,12861, Note_on_c, 0, 79, 0
2,12906, Note_on_c, 0, 75, 76
2,12961, Note_on_c, 0, 75, 0
2,13025, Note_on_c, 0, 73, 70
2,13101, Note_on_c, 0, 73, 0
2,13135, Note_on_c, 0, 82, 65
2,13179, Note_on_c, 0, 82, 0
2,13227, Note_on_c, 0, 63, 0
2,13249, Note_on_c, 0, 51, 53
2,13257, Note_on_c, 0, 79, 61
2,13299, Note_on_c, 0, 51, 0
2,13304, Note_on_c, 0, 79, 0
2,13361, Note_on_c, 0, 73, 67
2,13401, Note_on_c, 0, 73, 0
2,13481, Note_on_c, 0, 56, 62
2,13482, Note_on_c, 0, 72, 76
2,13581, Note_on_c, 0, 56, 0
2,13602, Note_on_c, 0, 63, 60
2,13658, Note_on_c, 0, 63, 0
2,13684, Note_on_c, 0, 72, 0
2,13725, Note_on_c, 0, 60, 54
2,13725, Note_on_c, 0, 75, 81
2,13765, Note_on_c, 0, 60, 0
2,13831, Note_on_c, 0, 56, 61
2,13877, Note_on_c, 0, 56, 0
2,13918, Note_on_c, 0, 75, 0
2,13964, Note_on_c, 0, 55, 47
2,13965, Note_on_c, 0, 80, 79
2,13977, Note_on_c, 0, 72, 68
2,14058, Note_on_c, 0, 55, 0
2,14086, Note_on_c, 0, 63, 52
2,14124, Note_on_c, 0, 63, 0
2,14135, Note_on_c, 0, 72, 0
2,14205, Note_on_c, 0, 60, 53
2,14208, Note_on_c, 0, 68, 57
2,14241, Note_on_c, 0, 60, 0
2,14324, Note_on_c, 0, 55, 41
2,14368, Note_on_c, 0, 55, 0
2,14386, Note_on_c, 0, 68, 0
2,14401, Note_on_c, 0, 80, 0
2,14439, Note_on_c, 0, 53, 66
2,14456, Note_on_c, 0, 74, 52
2,14563, Note_on_c, 0, 80, 60
2,14599, Note_on_c, 0, 74, 0
2,14609, Note_on_c, 0, 80, 0
2,14683, Note_on_c, 0, 53, 0
2,14688, Note_on_c, 0, 62, 61
2,14688, Note_on_c, 0, 77, 60
2,14749, Note_on_c, 0, 77, 0
2,14795, Note_on_c, 0, 62, 0
2,14795, Note_on_c, 0, 74, 68
2,14848, Note_on_c, 0, 74, 0
2,14909, Note_on_c, 0, 72, 72
2,14991, Note_on_c, 0, 72, 0
2,15016, Note_on_c, 0, 80, 72
2,15080, Note_on_c, 0, 80, 0
2,15128, Note_on_c, 0, 50, 61
2,15135, Note_on_c, 0, 77, 68
2,15202, Note_on_c, 0, 77, 0
2,15242, Note_on_c, 0, 72, 71
2,15272, Note_on_c, 0, 50, 0
2,15295, Note_on_c, 0, 72, 0
2,15358, Note_on_c, 0, 55, 54
2,15364, Note_on_c, 0, 70, 74
2,15431, Note_on_c, 0, 55, 0
2,15475, Note_on_c, 0, 62, 67
2,15543, Note_on_c, 0, 62, 0
2,15550, Note_on_c, 0, 70, 0
2,15600, Note_on_c, 0, 58, 69
2,15603, Note_on_c, 0, 74, 75
2,15653, Note_on_c, 0, 58, 0
2,15708, Note_on_c, 0, 55, 63
2,15749, Note_on_c, 0, 55, 0
2,15786, Note_on_c, 0, 74, 0
2,15819, Note_on_c, 0, 79, 74
2,15823, Note_on_c, 0, 53, 67
2,15834, Note_on_c, 0, 70, 65
2,15915, Note_on_c, 0, 53, 0
2,15934, Note_on_c, 0, 61, 70
2,15981, Note_on_c, 0, 61, 0
2,16023, Note_on_c, 0, 70, 0
2,16031, Note_on_c, 0, 79, 0
2,16050, Note_on_c, 0, 67, 70
2,16055, Note_on_c, 0, 58, 69
2,16097, Note_on_c, 0, 58, 0
2,16159, Note_on_c, 0, 53, 65
2,16211, Note_on_c, 0, 53, 0
2,16269, Note_on_c, 0, 67, 0
2,16289, Note_on_c, 0, 72, 71
2,16293, Note_on_c, 0, 52, 68
2,16396, Note_on_c, 0, 52, 0
2,16403, Note_on_c, 0, 60, 59
2,16470, Note_on_c, 0, 60, 0
2,16508, Note_on_c, 0, 72, 0
2,16523, Note_on_c, 0, 55, 54
2,16527, Note_on_c, 0, 70, 71
2,16567, Note_on_c, 0, 55, 0
2,16640, Note_on_c, 0, 52, 54
2,16685, Note_on_c, 0, 52, 0
2,16738, Note_on_c, 0, 70, 0
2,16758, Note_on_c, 0, 53, 57
2,16758, Note_on_c, 0, 68, 76
2,16806, Note_on_c, 0, 53, 0
2,16829, Note_on_c, 0, 68, 0
2,16865, Note_on_c, 0, 72, 71
2,16870, Note_on_c, 0, 60, 62
2,16929, Note_on_c, 0, 60, 0
2,16938, Note_on_c, 0, 72, 0
2,16978, Note_on_c, 0, 74, 72
2,16986, Note_on_c, 0, 56, 60
2,17031, Note_on_c, 0, 56, 0
2,17031, Note_on_c, 0, 74, 0
2,17087, Note_on_c, 0, 75, 79
2,17097, Note_on_c, 0, 53, 59
2,17137, Note_on_c, 0, 53, 0
2,17138, Note_on_c, 0, 75, 0
2,17197, Note_on_c, 0, 77, 92
2,17214, Note_on_c, 0, 50, 56
2,17294, Note_on_c, 0, 50, 0
2,17312, Note_on_c, 0, 72, 68
2,17323, Note_on_c, 0, 58, 56
2,17352, Note_on_c, 0, 58, 0
2,17383, Note_on_c, 0, 72, 0
2,17431, Note_on_c, 0, 70, 65
2,17436, Note_on_c, 0, 53, 51
2,17465, Note_on_c, 0, 70, 0
2,17474, Note_on_c, 0, 53, 0
2,17509, Note_on_c, 0, 77, 0
2,17534, Note_on_c, 0, 68, 64
2,17552, Note_on_c, 0, 50, 34
2,17579, Note_on_c, 0, 68, 0
2,17592, Note_on_c, 0, 50, 0
2,17658, Note_on_c, 0, 51, 46
2,17660, Note_on_c, 0, 67, 66
2,17706, Note_on_c, 0, 51, 0
2,17783, Note_on_c, 0, 58, 52
2,17838, Note_on_c, 0, 58, 0
2,17884, Note_on_c, 0, 67, 0
2,17907, Note_on_c, 0, 75, 79
2,17917, Note_on_c, 0, 55, 39
2,17965, Note_on_c, 0, 55, 0
2,18000, Note_on_c, 0, 51, 52
2,18028, Note_on_c, 0, 51, 0
2,18120, Note_on_c, 0, 46, 66
2,18137, Note_on_c, 0, 65, 63
2,18219, Note_on_c, 0, 65, 0
2,18219, Note_on_c, 0, 75, 0
2,18244, Note_on_c, 0, 74, 72
2,18355, Note_on_c, 0, 46, 0
2,18359, Note_on_c, 0, 56, 77
2,18363, Note_on_c, 0, 72, 77
2,18368, Note_on_c, 0, 74, 0
2,18375, Note_on_c, 0, 46, 27
2,18441, Note_on_c, 0, 72, 0
2,18477, Note_on_c, 0, 74, 78
2,18480, Note_on_c, 0, 56, 0
2,18580, Note_on_c, 0, 46, 0
2,18580, Note_on_c, 0, 74, 0
2,18623, Note_on_c, 0, 70, 88
2,18624, Note_on_c, 0, 55, 71
2,18678, Note_on_c, 0, 70, 0
2,18731, Note_on_c, 0, 75, 89
2,18796, Note_on_c, 0, 75, 0
2,18840, Note_on_c, 0, 55, 0
2,18859, Note_on_c, 0, 74, 85
2,18868, Note_on_c, 0, 53, 80
2,18917, Note_on_c, 0, 74, 0
2,18969, Note_on_c, 0, 75, 81
2,18978, Note_on_c, 0, 53, 0
2,19027, Note_on_c, 0, 75, 0
2,19097, Note_on_c, 0, 51, 72
2,19099, Note_on_c, 0, 79, 81
2,19178, Note_on_c, 0, 51, 0
2,19208, Note_on_c, 0, 48, 71
2,19261, Note_on_c, 0, 48, 0
2,19269, Note_on_c, 0, 79, 0
2,19328, Note_on_c, 0, 77, 69
2,19330, Note_on_c, 0, 50, 62
2,19332, Note_on_c, 0, 68, 67
2,19363, Note_on_c, 0, 68, 0
2,19374, Note_on_c, 0, 50, 0
2,19436, Note_on_c, 0, 51, 64
2,19442, Note_on_c, 0, 67, 72
2,19494, Note_on_c, 0, 67, 0
2,19500, Note_on_c, 0, 51, 0
2,19514, Note_on_c, 0, 77, 0
2,19564, Note_on_c, 0, 53, 73
2,19574, Note_on_c, 0, 68, 89
2,19592, Note_on_c, 0, 53, 0
2,19767, Note_on_c, 0, 68, 0
2,19797, Note_on_c, 0, 65, 77
2,19799, Note_on_c, 0, 74, 78
2,19825, Note_on_c, 0, 65, 0
2,19858, Note_on_c, 0, 74, 0
2,19897, Note_on_c, 0, 70, 80
2,19964, Note_on_c, 0, 70, 0
2,20019, Note_on_c, 0, 80, 88
2,20028, Note_on_c, 0, 62, 74
2,20110, Note_on_c, 0, 62, 0
2,20157, Note_on_c, 0, 51, 55
2,20195, Note_on_c, 0, 80, 0
2,20243, Note_on_c, 0, 51, 0
2,20270, Note_on_c, 0, 75, 75
2,20270, Note_on_c, 0, 79, 79
2,20278, Note_on_c, 0, 53, 55
2,20322, Note_on_c, 0, 53, 0
2,20390, Note_on_c, 0, 55, 65
2,20425, Note_on_c, 0, 55, 0
2,20436, Note_on_c, 0, 79, 0
2,20458, Note_on_c, 0, 75, 0
2,20509, Note_on_c, 0, 77, 78
2,20511, Note_on_c, 0, 56, 51
2,20583, Note_on_c, 0, 56, 0
2,20626, Note_on_c, 0, 53, 58
2,20681, Note_on_c, 0, 53, 0
2,20739, Note_on_c, 0, 77, 0
2,20746, Note_on_c, 0, 74, 62
2,20755, Note_on_c, 0, 46, 46
2,20796, Note_on_c, 0, 46, 0
2,20865, Note_on_c, 0, 56, 63
2,20910, Note_on_c, 0, 56, 0
2,20959, Note_on_c, 0, 74, 0
2,20992, Note_on_c, 0, 55, 77
2,21000, Note_on_c, 0, 75, 71
2,21117, Note_on_c, 0, 82, 60
2,21135, Note_on_c, 0, 75, 0
2,21232, Note_on_c, 0, 82, 0
2,21237, Note_on_c, 0, 58, 78
2,21241, Note_on_c, 0, 55, 0
2,21245, Note_on_c, 0, 79, 63
2,21345, Note_on_c, 0, 79, 0
2,21356, Note_on_c, 0, 75, 59
2,21445, Note_on_c, 0, 75, 0
2,21454, Note_on_c, 0, 58, 0
2,21473, Note_on_c, 0, 63, 87
2,21485, Note_on_c, 0, 73, 68
2,21601, Note_on_c, 0, 82, 60
2,21603, Note_on_c, 0, 73, 0
2,21708, Note_on_c, 0, 82, 0
2,21714, Note_on_c, 0, 51, 37
2,21733, Note_on_c, 0, 79, 56
2,21746, Note_on_c, 0, 51, 0
2,21777, Note_on_c, 0, 79, 0
2,21828, Note_on_c, 0, 73, 60
2,21866, Note_on_c, 0, 73, 0
2,21940, Note_on_c, 0, 63, 0
2,21943, Note_on_c, 0, 72, 79
2,21960, Note_on_c, 0, 56, 49
2,22030, Note_on_c, 0, 56, 0
2,22072, Note_on_c, 0, 63, 54
2,22148, Note_on_c, 0, 63, 0
2,22201, Note_on_c, 0, 60, 41
2,22203, Note_on_c, 0, 72, 0
2,22203, Note_on_c, 0, 80, 69
2,22236, Note_on_c, 0, 60, 0
2,22309, Note_on_c, 0, 56, 53
2,22353, Note_on_c, 0, 56, 0
2,22424, Note_on_c, 0, 55, 56
2,22482, Note_on_c, 0, 55, 0
2,22486, Note_on_c, 0, 80, 0
2,22530, Note_on_c, 0, 63, 58
2,22572, Note_on_c, 0, 63, 0
2,22639, Note_on_c, 0, 68, 65
2,22644, Note_on_c, 0, 60, 58
2,22684, Note_on_c, 0, 60, 0
2,22740, Note_on_c, 0, 55, 62
2,22790, Note_on_c, 0, 55, 0
2,22803, Note_on_c, 0, 68, 0
2,22864, Note_on_c, 0, 53, 78
2,22870, Note_on_c, 0, 74, 64
2,22986, Note_on_c, 0, 80, 69
2,23033, Note_on_c, 0, 74, 0
2,23053, Note_on_c, 0, 80, 0
2,23070, Note_on_c, 0, 53, 0
2,23109, Note_on_c, 0, 56, 79
2,23117, Note_on_c, 0, 77, 72
2,23215, Note_on_c, 0, 77, 0
2,23226, Note_on_c, 0, 74, 66
2,23265, Note_on_c, 0, 56, 0
2,23265, Note_on_c, 0, 56, 7
2,23335, Note_on_c, 0, 56, 0
2,23335, Note_on_c, 0, 74, 0
2,23354, Note_on_c, 0, 62, 86
2,23359, Note_on_c, 0, 72, 77
2,23460, Note_on_c, 0, 72, 0
2,23475, Note_on_c, 0, 80, 63
2,23565, Note_on_c, 0, 80, 0
2,23598, Note_on_c, 0, 50, 60
2,23601, Note_on_c, 0, 77, 58
2,23632, Note_on_c, 0, 50, 0
2,23650, Note_on_c, 0, 77, 0
2,23699, Note_on_c, 0, 72, 63
2,23754, Note_on_c, 0, 72, 0
2,23821, Note_on_c, 0, 62, 0
2,23830, Note_on_c, 0, 71, 73
2,23839, Note_on_c, 0, 55, 56
2,23923, Note_on_c, 0, 55, 0
2,23960, Note_on_c, 0, 62, 56
2,24020, Note_on_c, 0, 62, 0
2,24062, Note_on_c, 0, 71, 0
2,24081, Note_on_c, 0, 59, 59
2,24091, Note_on_c, 0, 79, 62
2,24122, Note_on_c, 0, 59, 0
2,24191, Note_on_c, 0, 55, 61
2,24231, Note_on_c, 0, 55, 0
2,24286, Note_on_c, 0, 79, 0
2,24304, Note_on_c, 0, 53, 66
2,24360, Note_on_c, 0, 53, 0
2,24421, Note_on_c, 0, 62, 63
2,24485, Note_on_c, 0, 62, 0
2,24536, Note_on_c, 0, 59, 58
2,24537, Note_on_c, 0, 67, 72
2,24576, Note_on_c, 0, 59, 0
2,24642, Note_on_c, 0, 53, 64
2,24695, Note_on_c, 0, 53, 0
2,24714, Note_on_c, 0, 67, 0
2,24771, Note_on_c, 0, 52, 72
2,24773, Note_on_c, 0, 72, 67
2,24826, Note_on_c, 0, 52, 0
2,24843, Note_on_c, 0, 72, 0
2,24879, Note_on_c, 0, 79, 63
2,24977, Note_on_c, 0, 79, 0
2,25011, Note_on_c, 0, 55, 75
2,25017, Note_on_c, 0, 76, 65
2,25060, Note_on_c, 0, 55, 0
2,25072, Note_on_c, 0, 76, 0
2,25126, Note_on_c, 0, 72, 67
2,25188, Note_on_c, 0, 72, 0
2,25248, Note_on_c, 0, 60, 83
2,25264, Note_on_c, 0, 70, 65
2,25361, Note_on_c, 0, 70, 0
2,25377, Note_on_c, 0, 79, 56
2,25487, Note_on_c, 0, 79, 0
2,25494, Note_on_c, 0, 48, 66
2,25503, Note_on_c, 0, 76, 53
2,25533, Note_on_c, 0, 48, 0
2,25567, Note_on_c, 0, 76, 0
2,25612, Note_on_c, 0, 70, 62
2,25657, Note_on_c, 0, 70, 0
2,25726, Note_on_c, 0, 53, 65
2,25739, Note_on_c, 0, 69, 59
2,25818, Control_c, 0, 64, 47
2,25834, Control_c, 0, 64, 59
2,25848, Control_c, 0, 64, 64
2,25851, Note_on_c, 0, 69, 0
2,25851, Note_on_c, 0, 79, 62
2,25863, Control_c, 0, 64, 66
2,25879, Control_c, 0, 64, 69
2,25894, Control_c, 0, 64, 72
2,25910, Control_c, 0, 64, 75
2,25913, Note_on_c, 0, 53, 0
2,25925, Control_c, 0, 64, 78
2,25936, Note_on_c, 0, 79, 0
2,25940, Control_c, 0, 64, 80
2,25946, Note_on_c, 0, 51, 67
2,25956, Control_c, 0, 64, 82
2,25960, Note_on_c, 0, 72, 73
2,25970, Control_c, 0, 64, 83
2,25986, Control_c, 0, 64, 85
2,26001, Control_c, 0, 64, 86
2,26015, Note_on_c, 0, 72, 0
2,26016, Control_c, 0, 64, 88
2,26032, Control_c, 0, 64, 90
2,26047, Control_c, 0, 64, 91
2,26056, Note_on_c, 0, 60, 0
2,26062, Control_c, 0, 64, 91
2,26067, Note_on_c, 0, 67, 78
2,26093, Control_c, 0, 64, 91
2,26108, Control_c, 0, 64, 89
2,26123, Control_c, 0, 64, 81
2,26134, Note_on_c, 0, 51, 0
2,26136, Note_on_c, 0, 67, 0
2,26138, Control_c, 0, 64, 63
2,26154, Control_c, 0, 64, 0
2,26182, Note_on_c, 0, 59, 70
2,26188, Note_on_c, 0, 68, 82
2,26200, Note_on_c, 0, 50, 58
2,26252, Control_c, 0, 64, 64
2,26267, Control_c, 0, 64, 73
2,26268, Note_on_c, 0, 68, 0
2,26283, Control_c, 0, 64, 86
2,26296, Note_on_c, 0, 59, 0
2,26298, Control_c, 0, 64, 98
2,26298, Note_on_c, 0, 50, 0
2,26313, Control_c, 0, 64, 108
2,26314, Note_on_c, 0, 77, 79
2,26319, Note_on_c, 0, 68, 35
2,26328, Control_c, 0, 64, 112
2,26343, Note_on_c, 0, 68, 0
2,26359, Control_c, 0, 64, 112
2,26374, Control_c, 0, 64, 103
2,26375, Note_on_c, 0, 77, 0
2,26390, Control_c, 0, 64, 85
2,26404, Control_c, 0, 64, 63
2,26419, Control_c, 0, 64, 0
2,26430, Note_on_c, 0, 60, 73
2,26433, Note_on_c, 0, 74, 77
2,26439, Note_on_c, 0, 48, 65
2,26465, Control_c, 0, 64, 64
2,26480, Control_c, 0, 64, 76
2,26483, Note_on_c, 0, 60, 0
2,26495, Control_c, 0, 64, 91
2,26511, Control_c, 0, 64, 105
2,26525, Control_c, 0, 64, 114
2,26536, Note_on_c, 0, 68, 89
2,26537, Note_on_c, 0, 74, 0
2,26540, Control_c, 0, 64, 121
2,26545, Note_on_c, 0, 48, 0
2,26556, Control_c, 0, 64, 123
2,26571, Control_c, 0, 64, 125
2,26586, Control_c, 0, 64, 124
2,26595, Note_on_c, 0, 68, 0
2,26601, Control_c, 0, 64, 118
2,26616, Control_c, 0, 64, 101
2,26632, Control_c, 0, 64, 81
2,26647, Control_c, 0, 64, 0
2,26661, Note_on_c, 0, 67, 78
2,26662, Note_on_c, 0, 62, 77
2,26675, Note_on_c, 0, 47, 65
2,26692, Control_c, 0, 64, 47
2,26707, Control_c, 0, 64, 70
2,26711, Note_on_c, 0, 62, 0
2,26723, Control_c, 0, 64, 84
2,26738, Control_c, 0, 64, 102
2,26754, Control_c, 0, 64, 111
2,26766, Note_on_c, 0, 67, 0
2,26769, Control_c, 0, 64, 113
2,26790, Note_on_c, 0, 77, 73
2,26832, Note_on_c, 0, 77, 0
2,26876, Control_c, 0, 64, 113
2,26878, Note_on_c, 0, 47, 0
2,26891, Control_c, 0, 64, 111
2,26899, Note_on_c, 0, 74, 77
2,26906, Control_c, 0, 64, 108
2,26907, Note_on_c, 0, 43, 54
2,26922, Control_c, 0, 64, 104
2,26937, Control_c, 0, 64, 101
2,26950, Note_on_c, 0, 74, 0
2,26953, Control_c, 0, 64, 100
2,26967, Control_c, 0, 64, 99
2,27005, Control_c, 0, 64, 99
2,27009, Note_on_c, 0, 71, 87
2,27059, Note_on_c, 0, 43, 0
2,27059, Note_on_c, 0, 43, 3
2,27060, Note_on_c, 0, 71, 0
2,27081, Control_c, 0, 64, 98
2,27096, Control_c, 0, 64, 95
2,27112, Control_c, 0, 64, 86
2,27123, Note_on_c, 0, 48, 81
2,27126, Control_c, 0, 64, 73
2,27129, Note_on_c, 0, 43, 0
2,27129, Note_on_c, 0, 67, 83
2,27141, Control_c, 0, 64, 0
2,27227, Note_on_c, 0, 67, 0
2,27236, Note_on_c, 0, 75, 73
2,27297, Note_on_c, 0, 75, 0
2,27319, Note_on_c, 0, 48, 0
2,27353, Note_on_c, 0, 46, 69
2,27355, Note_on_c, 0, 72, 73
2,27421, Note_on_c, 0, 72, 0
2,27457, Note_on_c, 0, 67, 67
2,27493, Note_on_c, 0, 67, 0
2,27541, Note_on_c, 0, 46, 0
2,27571, Note_on_c, 0, 45, 61
2,27585, Note_on_c, 0, 66, 70
2,27640, Note_on_c, 0, 45, 0
2,27659, Note_on_c, 0, 66, 0
2,27692, Note_on_c, 0, 75, 60
2,27801, Note_on_c, 0, 75, 0
2,27807, Note_on_c, 0, 72, 70
2,27808, Note_on_c, 0, 57, 71
2,27863, Note_on_c, 0, 72, 0
2,27912, Note_on_c, 0, 69, 77
2,27976, Note_on_c, 0, 69, 0
2,28010, Note_on_c, 0, 57, 0
2,28044, Note_on_c, 0, 59, 76
2,28044, Note_on_c, 0, 65, 86
2,28156, Note_on_c, 0, 74, 82
2,28176, Note_on_c, 0, 65, 0
2,28231, Note_on_c, 0, 59, 0
2,28272, Note_on_c, 0, 71, 81
2,28274, Note_on_c, 0, 74, 0
2,28277, Note_on_c, 0, 55, 71
2,28385, Note_on_c, 0, 65, 81
2,28391, Note_on_c, 0, 71, 0
2,28440, Note_on_c, 0, 65, 0
2,28483, Note_on_c, 0, 55, 0
2,28501, Note_on_c, 0, 60, 82
2,28512, Note_on_c, 0, 64, 90
2,28628, Note_on_c, 0, 74, 67
2,28633, Note_on_c, 0, 64, 0
2,28728, Note_on_c, 0, 74, 0
2,28739, Note_on_c, 0, 60, 0
2,28749, Note_on_c, 0, 55, 68
2,28755, Note_on_c, 0, 71, 67
2,28841, Note_on_c, 0, 71, 0
2,28866, Note_on_c, 0, 67, 69
2,28931, Note_on_c, 0, 67, 0
2,28951, Note_on_c, 0, 55, 0
2,28977, Note_on_c, 0, 56, 69
2,28984, Note_on_c, 0, 63, 81
2,29073, Note_on_c, 0, 63, 0
2,29107, Note_on_c, 0, 72, 48
2,29116, Note_on_c, 0, 71, 49
2,29139, Note_on_c, 0, 71, 0
2,29152, Note_on_c, 0, 72, 0
2,29184, Note_on_c, 0, 56, 0
2,29209, Note_on_c, 0, 67, 74
2,29211, Note_on_c, 0, 51, 77
2,29279, Note_on_c, 0, 67, 0
2,29321, Note_on_c, 0, 63, 75
2,29391, Note_on_c, 0, 51, 0
2,29391, Note_on_c, 0, 63, 0
2,29446, Note_on_c, 0, 53, 86
2,29446, Note_on_c, 0, 62, 84
2,29505, Note_on_c, 0, 53, 0
2,29557, Note_on_c, 0, 72, 69
2,29614, Note_on_c, 0, 62, 0
2,29648, Note_on_c, 0, 72, 0
2,29676, Note_on_c, 0, 68, 72
2,29689, Note_on_c, 0, 51, 61
2,29729, Note_on_c, 0, 51, 0
2,29748, Note_on_c, 0, 68, 0
2,29779, Note_on_c, 0, 53, 74
2,29784, Note_on_c, 0, 65, 71
2,29820, Note_on_c, 0, 53, 0
2,29832, Note_on_c, 0, 65, 0
2,29894, Note_on_c, 0, 55, 81
2,29898, Note_on_c, 0, 62, 80
2,29963, Note_on_c, 0, 62, 0
2,30005, Note_on_c, 0, 71, 78
2,30078, Note_on_c, 0, 71, 0
2,30125, Note_on_c, 0, 55, 0
2,30136, Note_on_c, 0, 69, 79
2,30189, Note_on_c, 0, 69, 0
2,30249, Note_on_c, 0, 71, 68
2,30363, Note_on_c, 0, 60, 91
2,30364, Note_on_c, 0, 72, 81
2,30375, Note_on_c, 0, 71, 0
2,30409, Note_on_c, 0, 48, 22
2,30410, Note_on_c, 0, 48, 0
2,30418, Note_on_c, 0, 72, 0
2,30474, Note_on_c, 0, 60, 0
2,30482, Note_on_c, 0, 58, 72
2,30586, Note_on_c, 0, 58, 0
2,30606, Note_on_c, 0, 56, 65
2,30608, Note_on_c, 0, 77, 74
2,30666, Note_on_c, 0, 56, 0
2,30720, Note_on_c, 0, 58, 71
2,30781, Note_on_c, 0, 58, 0
2,30788, Note_on_c, 0, 77, 0
2,30839, Note_on_c, 0, 55, 73
2,30856, Note_on_c, 0, 75, 79
2,30915, Note_on_c, 0, 55, 0
2,30955, Note_on_c, 0, 60, 82
2,31022, Note_on_c, 0, 60, 0
2,31027, Note_on_c, 0, 75, 0
2,31080, Note_on_c, 0, 59, 85
2,31081, Note_on_c, 0, 74, 78
2,31152, Note_on_c, 0, 59, 0
2,31187, Note_on_c, 0, 60, 86
2,31255, Note_on_c, 0, 60, 0
2,31310, Note_on_c, 0, 63, 95
2,31324, Note_on_c, 0, 72, 80
2,31337, Note_on_c, 0, 74, 0
2,31400, Note_on_c, 0, 72, 0
2,31436, Note_on_c, 0, 69, 73
2,31482, Note_on_c, 0, 63, 0
2,31492, Note_on_c, 0, 69, 0
2,31547, Note_on_c, 0, 62, 75
2,31554, Note_on_c, 0, 71, 70
2,31608, Note_on_c, 0, 71, 0
2,31662, Note_on_c, 0, 72, 77
2,31702, Note_on_c, 0, 72, 0
2,31736, Note_on_c, 0, 62, 0
2,31786, Note_on_c, 0, 74, 84
2,32005, Note_on_c, 0, 59, 72
2,32045, Note_on_c, 0, 59, 0
2,32112, Note_on_c, 0, 55, 70
2,32155, Note_on_c, 0, 55, 0
2,32232, Note_on_c, 0, 65, 94
2,32282, Note_on_c, 0, 74, 0
2,32364, Note_on_c, 0, 72, 68
2,32419, Note_on_c, 0, 65, 0
2,32434, Note_on_c, 0, 72, 0
2,32473, Note_on_c, 0, 63, 79
2,32484, Note_on_c, 0, 74, 71
2,32507, Note_on_c, 0, 63, 0
2,32547, Note_on_c, 0, 74, 0
2,32588, Note_on_c, 0, 75, 69
2,32641, Note_on_c, 0, 75, 0
2,32692, Note_on_c, 0, 62, 92
2,32699, Note_on_c, 0, 77, 82
2,32809, Note_on_c, 0, 74, 63
2,32813, Note_on_c, 0, 77, 0
2,32882, Note_on_c, 0, 62, 0
2,32905, Note_on_c, 0, 74, 0
2,32926, Note_on_c, 0, 63, 56
2,32932, Note_on_c, 0, 67, 61
2,32949, Note_on_c, 0, 63, 0
2,32983, Note_on_c, 0, 62, 60
2,33014, Note_on_c, 0, 62, 0
2,33021, Note_on_c, 0, 63, 65
2,33033, Note_on_c, 0, 77, 53
2,33056, Note_on_c, 0, 63, 0
2,33087, Note_on_c, 0, 62, 68
2,33148, Note_on_c, 0, 77, 0
2,33155, Note_on_c, 0, 75, 65
2,33158, Note_on_c, 0, 60, 73
2,33173, Note_on_c, 0, 62, 0
2,33203, Note_on_c, 0, 67, 0
2,33240, Note_on_c, 0, 60, 0
2,33260, Note_on_c, 0, 59, 72
2,33274, Note_on_c, 0, 75, 0
2,33274, Note_on_c, 0, 79, 69
2,33304, Note_on_c, 0, 59, 0
2,33332, Note_on_c, 0, 79, 0
2,33378, Note_on_c, 0, 60, 76
2,33381, Note_on_c, 0, 75, 85
2,33436, Note_on_c, 0, 60, 0
2,33441, Note_on_c, 0, 75, 0
2,33485, Note_on_c, 0, 63, 74
2,33487, Note_on_c, 0, 74, 85
2,33544, Note_on_c, 0, 63, 0
2,33555, Note_on_c, 0, 74, 0
2,33616, Note_on_c, 0, 68, 74
2,33616, Note_on_c, 0, 72, 79
2,33735, Note_on_c, 0, 84, 79
2,33821, Note_on_c, 0, 72, 0
2,33845, Note_on_c, 0, 80, 77
2,33850, Note_on_c, 0, 84, 0
2,33925, Note_on_c, 0, 80, 0
2,33971, Note_on_c, 0, 77, 78
2,34030, Note_on_c, 0, 77, 0
2,34084, Note_on_c, 0, 74, 71
2,34148, Note_on_c, 0, 74, 0
2,34189, Note_on_c, 0, 77, 73
2,34257, Note_on_c, 0, 77, 0
2,34298, Note_on_c, 0, 74, 69
2,34300, Note_on_c, 0, 58, 63
2,34343, Note_on_c, 0, 74, 0
2,34356, Note_on_c, 0, 68, 0
2,34384, Note_on_c, 0, 58, 0
2,34395, Note_on_c, 0, 72, 68
2,34401, Note_on_c, 0, 62, 68
2,34426, Note_on_c, 0, 72, 0
2,34506, Note_on_c, 0, 62, 0
2,34521, Note_on_c, 0, 67, 72
2,34524, Note_on_c, 0, 70, 80
2,34639, Note_on_c, 0, 82, 77
2,34679, Note_on_c, 0, 70, 0
2,34757, Note_on_c, 0, 82, 0
2,34766, Note_on_c, 0, 79, 73
2,34820, Note_on_c, 0, 79, 0
2,34872, Note_on_c, 0, 75, 82
2,34929, Note_on_c, 0, 75, 0
2,34990, Note_on_c, 0, 72, 77
2,35055, Note_on_c, 0, 72, 0
2,35091, Note_on_c, 0, 75, 75
2,35132, Note_on_c, 0, 75, 0
2,35211, Note_on_c, 0, 72, 71
2,35213, Note_on_c, 0, 56, 61
2,35243, Note_on_c, 0, 67, 0
2,35255, Note_on_c, 0, 72, 0
2,35269, Note_on_c, 0, 56, 0
2,35310, Note_on_c, 0, 70, 69
2,35322, Note_on_c, 0, 60, 48
2,35351, Note_on_c, 0, 70, 0
2,35389, Note_on_c, 0, 60, 0
2,35448, Note_on_c, 0, 68, 74
2,35454, Control_c, 0, 64, 43
2,35456, Note_on_c, 0, 65, 64
2,35469, Control_c, 0, 64, 64
2,35484, Control_c, 0, 64, 69
2,35484, Note_on_c, 0, 65, 0
2,35499, Control_c, 0, 64, 73
2,35515, Control_c, 0, 64, 77
2,35530, Control_c, 0, 64, 81
2,35541, Note_on_c, 0, 68, 0
2,35546, Control_c, 0, 64, 83
2,35561, Control_c, 0, 64, 85
2,35564, Note_on_c, 0, 80, 70
2,35591, Control_c, 0, 64, 85
2,35643, Note_on_c, 0, 80, 0
2,35686, Note_on_c, 0, 77, 66
2,35786, Note_on_c, 0, 74, 59
2,35792, Note_on_c, 0, 77, 0
2,35816, Note_on_c, 0, 74, 0
2,35866, Control_c, 0, 64, 85
2,35881, Control_c, 0, 64, 84
2,35895, Control_c, 0, 64, 80
2,35911, Control_c, 0, 64, 75
2,35926, Control_c, 0, 64, 66
2,35927, Note_on_c, 0, 71, 73
2,35930, Note_on_c, 0, 55, 78
2,35941, Control_c, 0, 64, 25
2,35956, Control_c, 0, 64, 0
2,36034, Note_on_c, 0, 55, 0
2,36035, Note_on_c, 0, 51, 73
2,36037, Note_on_c, 0, 67, 66
2,36110, Note_on_c, 0, 51, 0
2,36163, Note_on_c, 0, 50, 79
2,36163, Note_on_c, 0, 68, 80
2,36183, Note_on_c, 0, 67, 0
2,36288, Note_on_c, 0, 51, 82
2,36297, Note_on_c, 0, 50, 0
2,36355, Note_on_c, 0, 51, 0
2,36374, Note_on_c, 0, 71, 0
2,36407, Note_on_c, 0, 48, 88
2,36414, Note_on_c, 0, 72, 81
2,36432, Note_on_c, 0, 68, 0
2,36476, Note_on_c, 0, 48, 0
2,36529, Note_on_c, 0, 53, 80
2,36606, Note_on_c, 0, 53, 0
2,36646, Note_on_c, 0, 51, 83
2,36655, Note_on_c, 0, 67, 70
2,36729, Note_on_c, 0, 67, 0
2,36737, Note_on_c, 0, 51, 0
2,36755, Note_on_c, 0, 53, 85
2,36823, Note_on_c, 0, 53, 0
2,36882, Note_on_c, 0, 56, 91
2,36898, Note_on_c, 0, 65, 80
2,36907, Note_on_c, 0, 72, 0
2,37014, Note_on_c, 0, 63, 68
2,37018, Note_on_c, 0, 65, 0
2,37044, Note_on_c, 0, 63, 0
2,37074, Note_on_c, 0, 56, 0
2,37134, Note_on_c, 0, 55, 73
2,37134, Note_on_c, 0, 65, 66
2,37138, Note_on_c, 0, 71, 55
2,37164, Note_on_c, 0, 65, 0
2,37196, Note_on_c, 0, 71, 0
2,37235, Note_on_c, 0, 67, 77
2,37279, Note_on_c, 0, 67, 0
2,37316, Note_on_c, 0, 55, 0
2,37356, Note_on_c, 0, 72, 73
2,37360, Note_on_c, 0, 69, 76
2,37426, Note_on_c, 0, 72, 0
2,37432, Note_on_c, 0, 69, 0
2,37471, Note_on_c, 0, 71, 75
2,37555, Note_on_c, 0, 71, 0
2,37585, Note_on_c, 0, 54, 79
2,37591, Note_on_c, 0, 72, 77
2,37667, Note_on_c, 0, 54, 0
2,37695, Note_on_c, 0, 50, 75
2,37701, Note_on_c, 0, 74, 70
2,37705, Note_on_c, 0, 72, 0
2,37765, Note_on_c, 0, 50, 0
2,37828, Note_on_c, 0, 60, 91
2,37833, Note_on_c, 0, 75, 75
2,37836, Note_on_c, 0, 74, 0
2,37900, Note_on_c, 0, 75, 0
2,37949, Note_on_c, 0, 67, 77
2,38016, Note_on_c, 0, 60, 0
2,38019, Note_on_c, 0, 67, 0
2,38065, Note_on_c, 0, 58, 79
2,38083, Note_on_c, 0, 69, 63
2,38084, Note_on_c, 0, 74, 58
2,38115, Note_on_c, 0, 69, 0
2,38128, Note_on_c, 0, 74, 0
2,38185, Note_on_c, 0, 70, 68
2,38216, Note_on_c, 0, 70, 0
2,38242, Note_on_c, 0, 58, 0
2,38304, Note_on_c, 0, 57, 66
2,38315, Note_on_c, 0, 76, 66
2,38316, Note_on_c, 0, 72, 65
2,38349, Note_on_c, 0, 76, 0
2,38352, Control_c, 0, 64, 39
2,38367, Control_c, 0, 64, 58
2,38382, Control_c, 0, 64, 63
2,38398, Control_c, 0, 64, 65
2,38412, Control_c, 0, 64, 67
2,38418, Note_on_c, 0, 72, 0
2,38426, Note_on_c, 0, 69, 62
2,38428, Control_c, 0, 64, 69
2,38443, Control_c, 0, 64, 72
2,38458, Control_c, 0, 64, 75
2,38474, Control_c, 0, 64, 77
2,38488, Control_c, 0, 64, 79
2,38508, Note_on_c, 0, 69, 0
2,38511, Control_c, 0, 64, 80
2,38526, Control_c, 0, 64, 81
2,38541, Control_c, 0, 64, 82
2,38554, Note_on_c, 0, 62, 62
2,38557, Control_c, 0, 64, 83
2,38566, Note_on_c, 0, 78, 65
2,38572, Control_c, 0, 64, 84
2,38572, Note_on_c, 0, 57, 0
2,38578, Note_on_c, 0, 62, 0
2,38588, Control_c, 0, 64, 84
2,38600, Note_on_c, 0, 78, 0
2,38738, Control_c, 0, 64, 84
2,38754, Control_c, 0, 64, 83
2,38769, Control_c, 0, 64, 80
2,38785, Control_c, 0, 64, 76
2,38800, Control_c, 0, 64, 68
2,38800, Note_on_c, 0, 55, 58
2,38800, Note_on_c, 0, 79, 63
2,38814, Control_c, 0, 64, 48
2,38820, Note_on_c, 0, 70, 52
2,38830, Control_c, 0, 64, 0
2,38840, Note_on_c, 0, 55, 0
2,38862, Note_on_c, 0, 70, 0
2,38923, Note_on_c, 0, 74, 59
2,38935, Note_on_c, 0, 58, 56
2,38978, Note_on_c, 0, 58, 0
2,39000, Note_on_c, 0, 74, 0
2,39047, Note_on_c, 0, 72, 70
2,39052, Note_on_c, 0, 56, 54
2,39099, Note_on_c, 0, 56, 0
2,39147, Note_on_c, 0, 72, 0
2,39156, Note_on_c, 0, 58, 59
2,39156, Note_on_c, 0, 74, 60
2,39198, Note_on_c, 0, 58, 0
2,39269, Note_on_c, 0, 55, 55
2,39284, Note_on_c, 0, 70, 72
2,39291, Note_on_c, 0, 74, 0
2,39321, Note_on_c, 0, 55, 0
2,39337, Note_on_c, 0, 79, 0
2,39344, Note_on_c, 0, 70, 0
2,39392, Note_on_c, 0, 56, 62
2,39398, Note_on_c, 0, 76, 63
2,39440, Note_on_c, 0, 56, 0
2,39453, Note_on_c, 0, 76, 0
2,39501, Note_on_c, 0, 74, 68
2,39516, Note_on_c, 0, 53, 60
2,39557, Note_on_c, 0, 53, 0
2,39563, Note_on_c, 0, 74, 0
2,39624, Note_on_c, 0, 76, 77
2,39635, Note_on_c, 0, 55, 47
2,39672, Note_on_c, 0, 55, 0
2,39679, Note_on_c, 0, 76, 0
2,39741, Note_on_c, 0, 79, 88
2,39747, Note_on_c, 0, 52, 56
2,39765, Control_c, 0, 64, 50
2,39780, Control_c, 0, 64, 59
2,39795, Control_c, 0, 64, 61
2,39810, Control_c, 0, 64, 61
2,39815, Note_on_c, 0, 52, 0
2,39826, Control_c, 0, 64, 63
2,39841, Control_c, 0, 64, 64
2,39856, Control_c, 0, 64, 65
2,39859, Note_on_c, 0, 60, 41
2,39859, Note_on_c, 0, 73, 70
2,39862, Note_on_c, 0, 79, 0
2,39872, Control_c, 0, 64, 66
2,39887, Control_c, 0, 64, 67
2,39899, Note_on_c, 0, 60, 0
2,39906, Note_on_c, 0, 73, 0
2,39918, Control_c, 0, 64, 65
2,39933, Control_c, 0, 64, 56
2,39949, Control_c, 0, 64, 0
2,39979, Note_on_c, 0, 77, 80
2,39988, Note_on_c, 0, 56, 50
2,39991, Note_on_c, 0, 72, 66
2,40039, Note_on_c, 0, 56, 0
2,40050, Note_on_c, 0, 72, 0
2,40062, Control_c, 0, 64, 55
2,40078, Control_c, 0, 64, 62
2,40093, Control_c, 0, 64, 65
2,40104, Note_on_c, 0, 70, 62
2,40104, Note_on_c, 0, 77, 0
2,40108, Control_c, 0, 64, 66
2,40118, Note_on_c, 0, 53, 42
2,40123, Control_c, 0, 64, 68
2,40138, Control_c, 0, 64, 69
2,40149, Note_on_c, 0, 53, 0
2,40150, Note_on_c, 0, 70, 0
2,40169, Control_c, 0, 64, 68
2,40184, Control_c, 0, 64, 64
2,40199, Control_c, 0, 64, 44
2,40214, Control_c, 0, 64, 0
2,40227, Note_on_c, 0, 68, 69
2,40239, Note_on_c, 0, 48, 59
2,40286, Note_on_c, 0, 48, 0
2,40289, Control_c, 0, 64, 37
2,40304, Control_c, 0, 64, 53
2,40306, Note_on_c, 0, 68, 0
2,40319, Control_c, 0, 64, 57
2,40349, Note_on_c, 0, 67, 73
2,40350, Control_c, 0, 64, 56
2,40355, Note_on_c, 0, 53, 56
2,40365, Control_c, 0, 64, 53
2,40379, Control_c, 0, 64, 46
2,40395, Control_c, 0, 64, 39
2,40402, Note_on_c, 0, 53, 0
2,40408, Note_on_c, 0, 67, 0
2,40410, Control_c, 0, 64, 38
2,40465, Note_on_c, 0, 65, 69
2,40471, Control_c, 0, 64, 36
2,40485, Note_on_c, 0, 48, 43
2,40486, Control_c, 0, 64, 33
2,40501, Control_c, 0, 64, 30
2,40517, Control_c, 0, 64, 27
2,40523, Note_on_c, 0, 48, 0
2,40529, Note_on_c, 0, 65, 0
2,40532, Control_c, 0, 64, 23
2,40548, Control_c, 0, 64, 15
2,40563, Control_c, 0, 64, 0
2,40574, Note_on_c, 0, 67, 66
2,40586, Note_on_c, 0, 44, 43
2,40605, Note_on_c, 0, 67, 0
2,40614, Note_on_c, 0, 44, 0
2,40705, Note_on_c, 0, 77, 68
2,40714, Note_on_c, 0, 41, 43
2,40716, Note_on_c, 0, 68, 59
2,40750, Note_on_c, 0, 41, 0
2,40770, Note_on_c, 0, 68, 0
2,40835, Note_on_c, 0, 72, 63
2,40838, Note_on_c, 0, 56, 60
2,40886, Note_on_c, 0, 56, 0
2,40911, Note_on_c, 0, 72, 0
2,40954, Note_on_c, 0, 55, 56
2,40958, Note_on_c, 0, 70, 70
2,41012, Note_on_c, 0, 55, 0
2,41067, Note_on_c, 0, 56, 59
2,41076, Note_on_c, 0, 72, 67
2,41094, Note_on_c, 0, 70, 0
2,41111, Note_on_c, 0, 56, 0
2,41131, Note_on_c, 0, 77, 0
2,41186, Note_on_c, 0, 53, 65
2,41191, Note_on_c, 0, 72, 0
2,41198, Note_on_c, 0, 68, 70
2,41231, Note_on_c, 0, 53, 0
2,41265, Note_on_c, 0, 68, 0
2,41309, Note_on_c, 0, 74, 68
2,41312, Note_on_c, 0, 55, 64
2,41364, Note_on_c, 0, 55, 0
2,41372, Note_on_c, 0, 74, 0
2,41421, Note_on_c, 0, 72, 70
2,41430, Note_on_c, 0, 51, 66
2,41477, Note_on_c, 0, 51, 0
2,41480, Note_on_c, 0, 72, 0
2,41534, Note_on_c, 0, 53, 64
2,41537, Note_on_c, 0, 74, 72
2,41597, Note_on_c, 0, 53, 0
2,41606, Note_on_c, 0, 74, 0
2,41660, Note_on_c, 0, 77, 87
2,41671, Note_on_c, 0, 50, 56
2,41705, Control_c, 0, 64, 21
2,41719, Control_c, 0, 64, 29
2,41734, Control_c, 0, 64, 34
2,41746, Note_on_c, 0, 50, 0
2,41750, Control_c, 0, 64, 40
2,41765, Control_c, 0, 64, 43
2,41770, Note_on_c, 0, 77, 0
2,41775, Note_on_c, 0, 72, 74
2,41780, Control_c, 0, 64, 46
2,41789, Note_on_c, 0, 58, 43
2,41795, Control_c, 0, 64, 48
2,41810, Control_c, 0, 64, 48
2,41834, Note_on_c, 0, 58, 0
2,41841, Control_c, 0, 64, 47
2,41843, Note_on_c, 0, 72, 0
2,41855, Control_c, 0, 64, 44
2,41871, Control_c, 0, 64, 41
2,41886, Control_c, 0, 64, 37
2,41901, Control_c, 0, 64, 32
2,41901, Note_on_c, 0, 70, 65
2,41907, Note_on_c, 0, 75, 66
2,41908, Note_on_c, 0, 55, 41
2,41917, Control_c, 0, 64, 29
2,41932, Control_c, 0, 64, 26
2,41948, Control_c, 0, 64, 21
2,41954, Note_on_c, 0, 55, 0
2,41963, Control_c, 0, 64, 13
2,41966, Note_on_c, 0, 70, 0
2,41975, Note_on_c, 0, 75, 0
2,41978, Control_c, 0, 64, 0
2,42006, Note_on_c, 0, 68, 72
2,42011, Note_on_c, 0, 51, 45
2,42037, Note_on_c, 0, 51, 0
2,42044, Note_on_c, 0, 68, 0
2,42119, Note_on_c, 0, 67, 72
2,42131, Note_on_c, 0, 46, 69
2,42179, Note_on_c, 0, 46, 0
2,42198, Note_on_c, 0, 67, 0
2,42241, Note_on_c, 0, 65, 70
2,42252, Note_on_c, 0, 51, 53
2,42298, Note_on_c, 0, 65, 0
2,42304, Note_on_c, 0, 51, 0
2,42368, Note_on_c, 0, 63, 73
2,42370, Note_on_c, 0, 46, 48
2,42416, Note_on_c, 0, 46, 0
2,42427, Note_on_c, 0, 63, 0
2,42473, Note_on_c, 0, 43, 46
2,42474, Note_on_c, 0, 65, 71
2,42504, Note_on_c, 0, 43, 0
2,42519, Note_on_c, 0, 65, 0
2,42598, Note_on_c, 0, 67, 68
2,42599, Note_on_c, 0, 39, 61
2,42654, Note_on_c, 0, 67, 0
2,42656, Note_on_c, 0, 39, 0
2,42707, Note_on_c, 0, 70, 51
2,42734, Note_on_c, 0, 70, 0
2,42825, Note_on_c, 0, 51, 64
2,42834, Note_on_c, 0, 75, 60
2,42924, Note_on_c, 0, 75, 0
2,42929, Note_on_c, 0, 72, 68
2,42986, Note_on_c, 0, 72, 0
2,42997, Note_on_c, 0, 51, 0
2,43051, Note_on_c, 0, 53, 64
2,43055, Note_on_c, 0, 73, 82
2,43166, Note_on_c, 0, 70, 69
2,43257, Note_on_c, 0, 53, 0
2,43291, Note_on_c, 0, 67, 70
2,43296, Note_on_c, 0, 55, 66
2,43309, Note_on_c, 0, 70, 0
2,43324, Note_on_c, 0, 55, 0
2,43363, Note_on_c, 0, 67, 0
2,43392, Note_on_c, 0, 63, 79
2,43464, Note_on_c, 0, 63, 0
2,43517, Note_on_c, 0, 56, 84
2,43531, Note_on_c, 0, 73, 0
2,43634, Note_on_c, 0, 72, 74
2,43688, Note_on_c, 0, 72, 0
2,43744, Note_on_c, 0, 53, 60
2,43753, Note_on_c, 0, 56, 0
2,43753, Note_on_c, 0, 77, 85
2,43805, Note_on_c, 0, 77, 0
2,43854, Note_on_c, 0, 74, 75
2,43912, Note_on_c, 0, 74, 0
2,43984, Note_on_c, 0, 55, 71
2,43987, Note_on_c, 0, 53, 0
2,43987, Note_on_c, 0, 75, 86
2,44022, Note_on_c, 0, 55, 0
2,44085, Note_on_c, 0, 72, 74
2,44194, Note_on_c, 0, 72, 0
2,44210, Note_on_c, 0, 69, 72
2,44214, Note_on_c, 0, 57, 79
2,44237, Note_on_c, 0, 57, 0
2,44256, Note_on_c, 0, 69, 0
2,44307, Note_on_c, 0, 65, 70
2,44386, Note_on_c, 0, 65, 0
2,44427, Note_on_c, 0, 58, 91
2,44435, Note_on_c, 0, 75, 0
2,44534, Note_on_c, 0, 74, 67
2,44593, Note_on_c, 0, 74, 0
2,44638, Note_on_c, 0, 58, 0
2,44663, Note_on_c, 0, 55, 66
2,44665, Note_on_c, 0, 79, 81
2,44767, Note_on_c, 0, 75, 79
2,44798, Note_on_c, 0, 79, 0
2,44836, Note_on_c, 0, 75, 0
2,44851, Note_on_c, 0, 55, 0
2,44894, Note_on_c, 0, 57, 79
2,44904, Note_on_c, 0, 77, 96
2,45009, Note_on_c, 0, 74, 76
2,45086, Note_on_c, 0, 57, 0
2,45099, Note_on_c, 0, 74, 0
2,45131, Note_on_c, 0, 59, 87
2,45135, Note_on_c, 0, 71, 77
2,45204, Note_on_c, 0, 71, 0
2,45238, Note_on_c, 0, 67, 81
2,45301, Note_on_c, 0, 67, 0
2,45308, Note_on_c, 0, 59, 0
2,45352, Note_on_c, 0, 77, 0
2,45361, Note_on_c, 0, 60, 94
2,45475, Note_on_c, 0, 75, 68
2,45555, Note_on_c, 0, 75, 0
2,45608, Note_on_c, 0, 48, 79
2,45614, Note_on_c, 0, 79, 65
2,45616, Note_on_c, 0, 60, 0
2,45730, Note_on_c, 0, 79, 0
2,45734, Note_on_c, 0, 82, 64
2,45785, Note_on_c, 0, 48, 0
2,45810, Note_on_c, 0, 82, 0
2,45856, Note_on_c, 0, 50, 70
2,45862, Note_on_c, 0, 80, 79
2,45963, Note_on_c, 0, 80, 0
2,45976, Note_on_c, 0, 77, 71
2,45995, Note_on_c, 0, 76, 56
2,46020, Note_on_c, 0, 76, 0
2,46044, Note_on_c, 0, 50, 0
2,46052, Note_on_c, 0, 77, 0
2,46089, Note_on_c, 0, 70, 86
2,46093, Note_on_c, 0, 51, 71
2,46192, Note_on_c, 0, 70, 0
2,46203, Note_on_c, 0, 79, 85
2,46244, Note_on_c, 0, 78, 42
2,46267, Note_on_c, 0, 78, 0
2,46276, Note_on_c, 0, 79, 0
2,46288, Note_on_c, 0, 51, 0
2,46328, Note_on_c, 0, 77, 99
2,46448, Note_on_c, 0, 50, 65
2,46501, Note_on_c, 0, 77, 0
2,46503, Note_on_c, 0, 50, 0
2,46565, Note_on_c, 0, 48, 74
2,46573, Note_on_c, 0, 77, 78
2,46573, Note_on_c, 0, 80, 81
2,46632, Note_on_c, 0, 48, 0
2,46684, Note_on_c, 0, 50, 77
2,46736, Note_on_c, 0, 77, 0
2,46746, Note_on_c, 0, 80, 0
2,46755, Note_on_c, 0, 50, 0
2,46802, Note_on_c, 0, 46, 78
2,46814, Note_on_c, 0, 79, 68
2,46815, Note_on_c, 0, 75, 68
2,46888, Note_on_c, 0, 46, 0
2,46909, Note_on_c, 0, 79, 0
2,46916, Note_on_c, 0, 51, 79
2,46984, Note_on_c, 0, 51, 0
2,47012, Note_on_c, 0, 75, 0
2,47036, Note_on_c, 0, 50, 86
2,47042, Note_on_c, 0, 77, 75
2,47045, Note_on_c, 0, 68, 76
2,47116, Note_on_c, 0, 50, 0
2,47135, Note_on_c, 0, 68, 0
2,47146, Note_on_c, 0, 51, 86
2,47216, Note_on_c, 0, 77, 0
2,47227, Note_on_c, 0, 51, 0
2,47271, Note_on_c, 0, 55, 90
2,47281, Note_on_c, 0, 70, 71
2,47281, Note_on_c, 0, 75, 67
2,47344, Note_on_c, 0, 70, 0
2,47344, Note_on_c, 0, 75, 0
2,47393, Note_on_c, 0, 72, 67
2,47448, Note_on_c, 0, 55, 0
2,47460, Note_on_c, 0, 72, 0
2,47508, Note_on_c, 0, 53, 74
2,47525, Note_on_c, 0, 68, 68
2,47525, Note_on_c, 0, 74, 63
2,47558, Note_on_c, 0, 74, 0
2,47564, Note_on_c, 0, 68, 0
2,47633, Note_on_c, 0, 75, 71
2,47690, Note_on_c, 0, 75, 0
2,47699, Note_on_c, 0, 53, 0
2,47761, Note_on_c, 0, 77, 73
2,47763, Note_on_c, 0, 68, 76
2,47811, Note_on_c, 0, 68, 0
2,47875, Note_on_c, 0, 74, 63
2,47971, Note_on_c, 0, 74, 0
2,47985, Note_on_c, 0, 50, 66
2,47989, Note_on_c, 0, 70, 63
2,48047, Note_on_c, 0, 50, 0
2,48051, Note_on_c, 0, 70, 0
2,48097, Note_on_c, 0, 46, 65
2,48097, Note_on_c, 0, 77, 0
2,48099, Note_on_c, 0, 65, 68
2,48126, Note_on_c, 0, 46, 0
2,48137, Note_on_c, 0, 65, 0
2,48226, Note_on_c, 0, 62, 74
2,48232, Note_on_c, 0, 56, 74
2,48261, Note_on_c, 0, 62, 0
2,48274, Note_on_c, 0, 56, 0
2,48347, Note_on_c, 0, 75, 59
2,48454, Note_on_c, 0, 55, 73
2,48454, Note_on_c, 0, 63, 81
2,48482, Note_on_c, 0, 77, 68
2,48515, Note_on_c, 0, 75, 0
2,48611, Note_on_c, 0, 79, 67
2,48644, Note_on_c, 0, 77, 0
2,48721, Note_on_c, 0, 53, 73
2,48732, Note_on_c, 0, 80, 71
2,48744, Note_on_c, 0, 55, 0
2,48744, Note_on_c, 0, 79, 0
2,48797, Note_on_c, 0, 63, 0
2,48831, Note_on_c, 0, 77, 68
2,48846, Note_on_c, 0, 80, 0
2,48914, Note_on_c, 0, 77, 0
2,48953, Note_on_c, 0, 62, 67
2,48959, Note_on_c, 0, 74, 74
2,48991, Note_on_c, 0, 62, 0
2,49014, Note_on_c, 0, 53, 0
2,49063, Note_on_c, 0, 80, 78
2,49077, Note_on_c, 0, 74, 0
2,49133, Note_on_c, 0, 80, 0
2,49192, Note_on_c, 0, 79, 76
2,49199, Note_on_c, 0, 51, 65
2,49208, Note_on_c, 0, 63, 41
2,49221, Control_c, 0, 64, 18
2,49233, Note_on_c, 0, 51, 0
2,49237, Control_c, 0, 64, 57
2,49237, Note_on_c, 0, 63, 0
2,49260, Control_c, 0, 64, 62
2,49276, Control_c, 0, 64, 64
2,49290, Control_c, 0, 64, 65
2,49305, Control_c, 0, 64, 68
2,49309, Note_on_c, 0, 82, 80
2,49316, Note_on_c, 0, 79, 0
2,49321, Control_c, 0, 64, 70
2,49336, Control_c, 0, 64, 73
2,49352, Control_c, 0, 64, 74
2,49366, Control_c, 0, 64, 74
2,49411, Note_on_c, 0, 82, 0
2,49415, Note_on_c, 0, 80, 75
2,49431, Note_on_c, 0, 39, 70
2,49442, Control_c, 0, 64, 74
2,49488, Control_c, 0, 64, 73
2,49492, Note_on_c, 0, 80, 0
2,49519, Control_c, 0, 64, 73
2,49541, Note_on_c, 0, 75, 64
2,49572, Note_on_c, 0, 75, 0
2,49579, Control_c, 0, 64, 72
2,49595, Control_c, 0, 64, 72
2,49606, Note_on_c, 0, 39, 0
2,49610, Control_c, 0, 64, 70
2,49624, Control_c, 0, 64, 68
2,49640, Control_c, 0, 64, 64
2,49653, Note_on_c, 0, 41, 69
2,49655, Control_c, 0, 64, 51
2,49656, Note_on_c, 0, 73, 83
2,49671, Control_c, 0, 64, 0
2,49708, Note_on_c, 0, 41, 0
2,49765, Note_on_c, 0, 70, 60
2,49873, Note_on_c, 0, 43, 64
2,49885, Note_on_c, 0, 67, 57
2,49903, Note_on_c, 0, 43, 0
2,49924, Note_on_c, 0, 70, 0
2,49974, Note_on_c, 0, 67, 0
2,49992, Note_on_c, 0, 63, 58
2,50015, Note_on_c, 0, 63, 0
2,50076, Note_on_c, 0, 73, 0
2,50118, Note_on_c, 0, 56, 80
2,50122, Note_on_c, 0, 44, 72
2,50134, Control_c, 0, 64, 55
2,50149, Control_c, 0, 64, 63
2,50165, Control_c, 0, 64, 66
2,50179, Control_c, 0, 64, 68
2,50179, Note_on_c, 0, 56, 0
2,50195, Control_c, 0, 64, 72
2,50210, Control_c, 0, 64, 76
2,50212, Note_on_c, 0, 44, 0
2,50225, Control_c, 0, 64, 78
2,50231, Note_on_c, 0, 84, 89
2,50241, Control_c, 0, 64, 79
2,50271, Control_c, 0, 64, 80
2,50304, Note_on_c, 0, 84, 0
2,50344, Note_on_c, 0, 80, 93
2,50347, Note_on_c, 0, 41, 73
2,50409, Note_on_c, 0, 80, 0
2,50453, Note_on_c, 0, 77, 86
2,50500, Note_on_c, 0, 77, 0
2,50537, Note_on_c, 0, 41, 0
2,50559, Control_c, 0, 64, 79
2,50574, Control_c, 0, 64, 76
2,50576, Note_on_c, 0, 75, 90
2,50582, Note_on_c, 0, 43, 79
2,50589, Control_c, 0, 64, 70
2,50605, Control_c, 0, 64, 62
2,50619, Control_c, 0, 64, 0
2,50676, Note_on_c, 0, 72, 71
2,50711, Note_on_c, 0, 43, 0
2,50809, Note_on_c, 0, 69, 81
2,50816, Note_on_c, 0, 45, 72
2,50842, Note_on_c, 0, 45, 0
2,50843, Note_on_c, 0, 72, 0
2,50886, Note_on_c, 0, 69, 0
2,50910, Note_on_c, 0, 65, 82
2,50929, Note_on_c, 0, 75, 0
2,50989, Note_on_c, 0, 65, 0
2,51032, Note_on_c, 0, 58, 93
2,51039, Note_on_c, 0, 74, 88
2,51061, Note_on_c, 0, 46, 58
2,51086, Note_on_c, 0, 46, 0
2,51120, Note_on_c, 0, 74, 0
2,51154, Note_on_c, 0, 77, 87
2,51272, Note_on_c, 0, 46, 93
2,51273, Note_on_c, 0, 74, 77
2,51285, Note_on_c, 0, 77, 0
2,51341, Control_c, 0, 64, 39
2,51356, Control_c, 0, 64, 52
2,51362, Note_on_c, 0, 74, 0
2,51373, Control_c, 0, 64, 56
2,51378, Note_on_c, 0, 70, 71
2,51388, Control_c, 0, 64, 58
2,51403, Control_c, 0, 64, 59
2,51405, Note_on_c, 0, 70, 0
2,51418, Control_c, 0, 64, 60
2,51449, Control_c, 0, 64, 60
2,51463, Control_c, 0, 64, 58
2,51474, Note_on_c, 0, 58, 0
2,51479, Control_c, 0, 64, 52
2,51494, Control_c, 0, 64, 37
2,51497, Note_on_c, 0, 48, 81
2,51504, Note_on_c, 0, 68, 80
2,51509, Control_c, 0, 64, 0
2,51528, Note_on_c, 0, 46, 0
2,51622, Note_on_c, 0, 65, 56
2,51736, Note_on_c, 0, 65, 0
2,51743, Note_on_c, 0, 50, 71
2,51745, Note_on_c, 0, 62, 62
2,51748, Note_on_c, 0, 48, 0
2,51771, Note_on_c, 0, 50, 0
2,51803, Note_on_c, 0, 62, 0
2,51856, Note_on_c, 0, 58, 60
2,51913, Note_on_c, 0, 58, 0
2,51981, Note_on_c, 0, 51, 60
2,52068, Note_on_c, 0, 68, 0
2,52080, Note_on_c, 0, 67, 68
2,52202, Note_on_c, 0, 65, 78
2,52208, Note_on_c, 0, 61, 65
2,52222, Note_on_c, 0, 67, 0
2,52279, Note_on_c, 0, 61, 0
2,52300, Note_on_c, 0, 65, 0
2,52315, Note_on_c, 0, 67, 84
2,52396, Note_on_c, 0, 67, 0
2,52436, Note_on_c, 0, 60, 68
2,52438, Note_on_c, 0, 63, 92
2,52498, Note_on_c, 0, 63, 0
2,52546, Note_on_c, 0, 68, 90
2,52558, Note_on_c, 0, 51, 0
2,52610, Note_on_c, 0, 68, 0
2,52650, Note_on_c, 0, 60, 0
2,52668, Note_on_c, 0, 67, 91
2,52674, Note_on_c, 0, 58, 65
2,52718, Note_on_c, 0, 67, 0
2,52775, Note_on_c, 0, 68, 95
2,52827, Note_on_c, 0, 58, 0
2,52829, Note_on_c, 0, 68, 0
2,52888, Note_on_c, 0, 56, 66
2,52898, Note_on_c, 0, 72, 100
2,52953, Note_on_c, 0, 56, 0
2,52998, Note_on_c, 0, 55, 74
2,53053, Note_on_c, 0, 55, 0
2,53080, Note_on_c, 0, 72, 0
2,53124, Note_on_c, 0, 56, 68
2,53146, Note_on_c, 0, 70, 79
2,53215, Note_on_c, 0, 56, 0
2,53241, Note_on_c, 0, 58, 75
2,53322, Note_on_c, 0, 58, 0
2,53371, Note_on_c, 0, 60, 79
2,53484, Note_on_c, 0, 70, 0
2,53487, Note_on_c, 0, 60, 0
2,53493, Note_on_c, 0, 50, 58
2,53546, Note_on_c, 0, 50, 0
2,53581, Note_on_c, 0, 69, 84
2,53604, Note_on_c, 0, 51, 55
2,53633, Note_on_c, 0, 69, 0
2,53694, Note_on_c, 0, 65, 85
2,53695, Note_on_c, 0, 51, 0
2,53709, Note_on_c, 0, 60, 31
2,53775, Note_on_c, 0, 65, 0
2,53785, Note_on_c, 0, 60, 0
2,53812, Note_on_c, 0, 75, 94
2,53825, Note_on_c, 0, 55, 65
2,53930, Note_on_c, 0, 58, 64
2,53979, Note_on_c, 0, 75, 0
2,53992, Note_on_c, 0, 58, 0
2,54013, Note_on_c, 0, 55, 0
2,54031, Note_on_c, 0, 55, 34
2,54038, Note_on_c, 0, 74, 93
2,54045, Note_on_c, 0, 60, 73
2,54115, Note_on_c, 0, 60, 0
2,54149, Note_on_c, 0, 55, 0
2,54172, Note_on_c, 0, 62, 68
2,54206, Note_on_c, 0, 62, 0
2,54212, Note_on_c, 0, 74, 0
2,54269, Note_on_c, 0, 72, 92
2,54297, Note_on_c, 0, 63, 70
2,54300, Note_on_c, 0, 51, 57
2,54323, Control_c, 0, 64, 44
2,54338, Control_c, 0, 64, 58
2,54354, Control_c, 0, 64, 63
2,54363, Note_on_c, 0, 63, 0
2,54369, Control_c, 0, 64, 66
2,54384, Control_c, 0, 64, 70
2,54399, Control_c, 0, 64, 75
2,54404, Note_on_c, 0, 72, 0
2,54409, Note_on_c, 0, 60, 64
2,54414, Control_c, 0, 64, 79
2,54429, Control_c, 0, 64, 81
2,54445, Control_c, 0, 64, 82
2,54459, Control_c, 0, 64, 83
2,54484, Note_on_c, 0, 74, 57
2,54490, Control_c, 0, 64, 83
2,54501, Note_on_c, 0, 60, 0
2,54505, Control_c, 0, 64, 84
2,54522, Note_on_c, 0, 74, 0
2,54524, Note_on_c, 0, 51, 0
2,54535, Control_c, 0, 64, 84
2,54537, Note_on_c, 0, 72, 72
2,54540, Note_on_c, 0, 53, 50
2,54551, Control_c, 0, 64, 85
2,54573, Note_on_c, 0, 72, 0
2,54581, Control_c, 0, 64, 85
2,54583, Note_on_c, 0, 53, 0
2,54604, Note_on_c, 0, 74, 68
2,54612, Control_c, 0, 64, 86
2,54627, Note_on_c, 0, 74, 0
2,54638, Note_on_c, 0, 72, 71
2,54650, Control_c, 0, 64, 86
2,54666, Note_on_c, 0, 72, 0
2,54673, Note_on_c, 0, 74, 63
2,54729, Note_on_c, 0, 72, 78
2,54742, Control_c, 0, 64, 84
2,54742, Note_on_c, 0, 74, 0
2,54758, Control_c, 0, 64, 79
2,54759, Note_on_c, 0, 70, 91
2,54770, Note_on_c, 0, 46, 65
2,54772, Control_c, 0, 64, 70
2,54787, Control_c, 0, 64, 37
2,54789, Note_on_c, 0, 72, 0
2,54803, Control_c, 0, 64, 0
2,54811, Note_on_c, 0, 46, 0
2,54879, Note_on_c, 0, 53, 58
2,54941, Note_on_c, 0, 53, 0
2,54973, Note_on_c, 0, 70, 0
2,54995, Note_on_c, 0, 50, 54
2,55009, Note_on_c, 0, 77, 82
2,55036, Note_on_c, 0, 50, 0
2,55097, Note_on_c, 0, 46, 71
2,55138, Note_on_c, 0, 46, 0
2,55185, Note_on_c, 0, 77, 0
2,55220, Note_on_c, 0, 44, 70
2,55229, Note_on_c, 0, 74, 81
2,55295, Note_on_c, 0, 44, 0
2,55342, Note_on_c, 0, 53, 62
2,55394, Note_on_c, 0, 53, 0
2,55410, Note_on_c, 0, 74, 0
2,55452, Note_on_c, 0, 70, 84
2,55458, Note_on_c, 0, 50, 70
2,55479, Control_c, 0, 64, 48
2,55495, Control_c, 0, 64, 63
2,55504, Note_on_c, 0, 70, 0
2,55511, Control_c, 0, 64, 65
2,55511, Note_on_c, 0, 50, 0
2,55526, Control_c, 0, 64, 66
2,55540, Control_c, 0, 64, 66
2,55556, Control_c, 0, 64, 67
2,55569, Note_on_c, 0, 44, 74
2,55586, Control_c, 0, 64, 67
2,55602, Control_c, 0, 64, 68
2,55609, Note_on_c, 0, 44, 0
2,55662, Control_c, 0, 64, 67
2,55678, Control_c, 0, 64, 65
2,55692, Control_c, 0, 64, 57
2,55703, Note_on_c, 0, 82, 90
2,55704, Note_on_c, 0, 43, 80
2,55707, Control_c, 0, 64, 0
2,55824, Note_on_c, 0, 70, 73
2,55856, Note_on_c, 0, 70, 0
2,55941, Note_on_c, 0, 55, 72
2,55951, Note_on_c, 0, 75, 71
2,56015, Note_on_c, 0, 55, 0
2,56029, Note_on_c, 0, 75, 0
2,56031, Note_on_c, 0, 43, 0
2,56056, Note_on_c, 0, 79, 63
2,56144, Note_on_c, 0, 79, 0
2,56171, Note_on_c, 0, 73, 75
2,56222, Note_on_c, 0, 73, 0
2,56278, Note_on_c, 0, 70, 70
2,56312, Note_on_c, 0, 70, 0
2,56396, Note_on_c, 0, 39, 53
2,56397, Note_on_c, 0, 73, 67
2,56421, Note_on_c, 0, 82, 0
2,56468, Note_on_c, 0, 73, 0
2,56477, Note_on_c, 0, 39, 0
2,56499, Note_on_c, 0, 79, 58
2,56535, Note_on_c, 0, 79, 0
2,56608, Note_on_c, 0, 44, 64
2,56617, Note_on_c, 0, 72, 76
2,56680, Note_on_c, 0, 44, 0
2,56724, Note_on_c, 0, 51, 65
2,56749, Note_on_c, 0, 72, 0
2,56777, Note_on_c, 0, 51, 0
2,56853, Note_on_c, 0, 48, 72
2,56853, Note_on_c, 0, 75, 90
2,56915, Note_on_c, 0, 48, 0
2,56973, Note_on_c, 0, 44, 66
2,57015, Note_on_c, 0, 75, 0
2,57031, Note_on_c, 0, 44, 0
2,57077, Note_on_c, 0, 43, 76
2,57084, Note_on_c, 0, 72, 90
2,57189, Note_on_c, 0, 43, 0
2,57189, Note_on_c, 0, 51, 72
2,57250, Note_on_c, 0, 51, 0
2,57272, Note_on_c, 0, 72, 0
2,57308, Note_on_c, 0, 48, 71
2,57312, Note_on_c, 0, 68, 92
2,57370, Note_on_c, 0, 48, 0
2,57413, Note_on_c, 0, 43, 74
2,57483, Note_on_c, 0, 43, 0
2,57542, Note_on_c, 0, 41, 81
2,57546, Note_on_c, 0, 80, 100
2,57579, Note_on_c, 0, 68, 0
2,57672, Note_on_c, 0, 68, 77
2,57745, Note_on_c, 0, 68, 0
2,57747, Note_on_c, 0, 41, 0
2,57799, Note_on_c, 0, 74, 71
2,57802, Note_on_c, 0, 53, 71
2,57877, Note_on_c, 0, 74, 0
2,57904, Note_on_c, 0, 77, 66
2,57911, Note_on_c, 0, 53, 0
2,57998, Note_on_c, 0, 77, 0
2,58017, Note_on_c, 0, 72, 71
2,58082, Note_on_c, 0, 72, 0
2,58128, Note_on_c, 0, 68, 67
2,58161, Note_on_c, 0, 68, 0
2,58227, Note_on_c, 0, 72, 65
2,58236, Note_on_c, 0, 38, 56
2,58320, Note_on_c, 0, 72, 0
2,58339, Note_on_c, 0, 77, 59
2,58354, Note_on_c, 0, 38, 0
2,58429, Note_on_c, 0, 77, 0
2,58450, Note_on_c, 0, 43, 62
2,58461, Note_on_c, 0, 70, 71
2,58512, Note_on_c, 0, 80, 0
2,58546, Note_on_c, 0, 43, 0
2,58562, Note_on_c, 0, 50, 61
2,58635, Note_on_c, 0, 50, 0
2,58635, Note_on_c, 0, 70, 0
2,58695, Note_on_c, 0, 74, 79
2,58696, Note_on_c, 0, 46, 73
2,58765, Note_on_c, 0, 46, 0
2,58810, Note_on_c, 0, 43, 65
2,58864, Note_on_c, 0, 43, 0
2,58864, Note_on_c, 0, 74, 0
2,58924, Note_on_c, 0, 41, 71
2,58929, Note_on_c, 0, 70, 86
2,59017, Note_on_c, 0, 41, 0
2,59041, Note_on_c, 0, 49, 75
2,59100, Note_on_c, 0, 70, 0
2,59106, Note_on_c, 0, 49, 0
2,59152, Note_on_c, 0, 67, 88
2,59164, Note_on_c, 0, 46, 76
2,59246, Note_on_c, 0, 46, 0
2,59275, Note_on_c, 0, 41, 68
2,59334, Note_on_c, 0, 41, 0
2,59351, Note_on_c, 0, 67, 0
2,59384, Note_on_c, 0, 79, 95
2,59391, Note_on_c, 0, 40, 76
2,59497, Note_on_c, 0, 40, 0
2,59503, Note_on_c, 0, 48, 61
2,59558, Note_on_c, 0, 48, 0
2,59618, Note_on_c, 0, 70, 77
2,59622, Note_on_c, 0, 43, 51
2,59678, Note_on_c, 0, 43, 0
2,59718, Note_on_c, 0, 40, 67
2,59764, Note_on_c, 0, 40, 0
2,59833, Note_on_c, 0, 41, 69
2,59833, Note_on_c, 0, 70, 0
2,59845, Note_on_c, 0, 68, 78
2,59893, Note_on_c, 0, 41, 0
2,59911, Note_on_c, 0, 79, 0
2,59951, Note_on_c, 0, 48, 66
2,59955, Note_on_c, 0, 72, 72
2,60022, Note_on_c, 0, 48, 0
2,60075, Note_on_c, 0, 44, 69
2,60079, Note_on_c, 0, 74, 72
2,60080, Note_on_c, 0, 72, 0
2,60129, Note_on_c, 0, 44, 0
2,60153, Note_on_c, 0, 74, 0
2,60182, Note_on_c, 0, 41, 73
2,60195, Note_on_c, 0, 75, 75
2,60246, Note_on_c, 0, 41, 0
2,60275, Note_on_c, 0, 68, 0
2,60286, Note_on_c, 0, 75, 0
2,60298, Note_on_c, 0, 38, 80
2,60301, Note_on_c, 0, 77, 91
2,60306, Note_on_c, 0, 75, 29
2,60332, Note_on_c, 0, 75, 0
2,60391, Note_on_c, 0, 38, 0
2,60418, Note_on_c, 0, 75, 71
2,60423, Note_on_c, 0, 46, 64
2,60439, Note_on_c, 0, 77, 0
2,60479, Note_on_c, 0, 75, 0
2,60485, Note_on_c, 0, 46, 0
2,60516, Note_on_c, 0, 41, 69
2,60534, Note_on_c, 0, 74, 67
2,60580, Note_on_c, 0, 74, 0
2,60591, Note_on_c, 0, 41, 0
2,60628, Note_on_c, 0, 38, 62
2,60638, Note_on_c, 0, 72, 73
2,60660, Note_on_c, 0, 72, 0
2,60701, Note_on_c, 0, 38, 0
2,60745, Note_on_c, 0, 39, 54
2,60745, Note_on_c, 0, 67, 81
2,60752, Note_on_c, 0, 70, 73
2,60795, Note_on_c, 0, 70, 0
2,60802, Note_on_c, 0, 67, 0
2,60816, Note_on_c, 0, 39, 0
2,60850, Note_on_c, 0, 46, 69
2,60856, Note_on_c, 0, 68, 81
2,60913, Note_on_c, 0, 46, 0
2,60916, Note_on_c, 0, 68, 0
2,60975, Note_on_c, 0, 70, 78
2,60984, Note_on_c, 0, 63, 81
2,60985, Note_on_c, 0, 43, 75
2,61006, Control_c, 0, 64, 34
2,61021, Control_c, 0, 64, 64
2,61036, Control_c, 0, 64, 67
2,61048, Note_on_c, 0, 43, 0
2,61052, Control_c, 0, 64, 70
2,61066, Control_c, 0, 64, 71
2,61082, Control_c, 0, 64, 72
2,61106, Note_on_c, 0, 72, 61
2,61109, Note_on_c, 0, 70, 0
2,61121, Note_on_c, 0, 39, 64
2,61125, Note_on_c, 0, 72, 0
2,61149, Note_on_c, 0, 39, 0
2,61168, Note_on_c, 0, 63, 0
2,61188, Control_c, 0, 64, 72
2,61204, Control_c, 0, 64, 69
2,61220, Control_c, 0, 64, 63
2,61234, Control_c, 0, 64, 10
2,61243, Note_on_c, 0, 65, 77
2,61250, Control_c, 0, 64, 0
2,61262, Note_on_c, 0, 46, 62
2,61350, Note_on_c, 0, 62, 69
2,61371, Note_on_c, 0, 65, 0
2,61456, Note_on_c, 0, 62, 0
2,61463, Note_on_c, 0, 46, 0
2,61486, Note_on_c, 0, 60, 72
2,61489, Note_on_c, 0, 53, 74
2,61559, Note_on_c, 0, 60, 0
2,61605, Note_on_c, 0, 62, 78
2,61671, Note_on_c, 0, 62, 0
2,61675, Note_on_c, 0, 53, 0
2,61734, Note_on_c, 0, 58, 89
2,61738, Note_on_c, 0, 50, 77
2,61792, Note_on_c, 0, 58, 0
2,61836, Note_on_c, 0, 63, 88
2,61901, Note_on_c, 0, 63, 0
2,61920, Note_on_c, 0, 50, 0
2,61953, Note_on_c, 0, 46, 85
2,61962, Note_on_c, 0, 62, 84
2,61963, Note_on_c, 0, 65, 82
2,62017, Control_c, 0, 64, 51
2,62019, Note_on_c, 0, 65, 0
2,62029, Note_on_c, 0, 62, 0
2,62033, Control_c, 0, 64, 60
2,62049, Control_c, 0, 64, 63
2,62063, Control_c, 0, 64, 65
2,62073, Note_on_c, 0, 63, 90
2,62079, Control_c, 0, 64, 67
2,62094, Control_c, 0, 64, 70
2,62108, Note_on_c, 0, 63, 0
2,62109, Control_c, 0, 64, 73
2,62125, Control_c, 0, 64, 75
2,62140, Control_c, 0, 64, 76
2,62155, Control_c, 0, 64, 76
2,62185, Control_c, 0, 64, 76
2,62201, Control_c, 0, 64, 74
2,62202, Note_on_c, 0, 46, 0
2,62216, Control_c, 0, 64, 68
2,62225, Note_on_c, 0, 57, 87
2,62225, Note_on_c, 0, 66, 99
2,62225, Note_on_c, 0, 75, 100
2,62231, Control_c, 0, 64, 0
2,62344, Control_c, 0, 64, 44
2,62360, Control_c, 0, 64, 57
2,62375, Control_c, 0, 64, 60
2,62390, Control_c, 0, 64, 61
2,62406, Control_c, 0, 64, 60
2,62436, Control_c, 0, 64, 60
2,62452, Control_c, 0, 64, 59
2,62463, Note_on_c, 0, 75, 0
2,62466, Control_c, 0, 64, 58
2,62466, Note_on_c, 0, 66, 0
2,62468, Note_on_c, 0, 57, 0
2,62482, Control_c, 0, 64, 56
2,62497, Control_c, 0, 64, 35
2,62512, Control_c, 0, 64, 0
2,62525, Note_on_c, 0, 56, 86
2,62531, Note_on_c, 0, 65, 97
2,62534, Note_on_c, 0, 74, 92
2,62725, Control_c, 0, 64, 25
2,62740, Control_c, 0, 64, 49
2,62754, Control_c, 0, 64, 55
2,62754, Note_on_c, 0, 56, 0
2,62858, Note_on_c, 0, 74, 0
2,62873, Note_on_c, 0, 65, 0
2,62878, Control_c, 0, 64, 54
2,62893, Control_c, 0, 64, 53
2,62907, Control_c, 0, 64, 51
2,62923, Control_c, 0, 64, 49
2,62938, Control_c, 0, 64, 44
2,62953, Control_c, 0, 64, 29
2,62969, Control_c, 0, 64, 0
2,62969, Note_on_c, 0, 56, 56
2,63087, Note_on_c, 0, 56, 0
2,63116, Note_on_c, 0, 53, 57
2,63131, Note_on_c, 0, 62, 66
2,63185, Note_on_c, 0, 62, 0
2,63198, Note_on_c, 0, 53, 0
2,63228, Note_on_c, 0, 58, 57
2,63251, Note_on_c, 0, 50, 45
2,63314, Note_on_c, 0, 58, 0
2,63341, Note_on_c, 0, 50, 0
2,63369, Note_on_c, 0, 46, 54
2,63371, Note_on_c, 0, 77, 69
2,63382, Note_on_c, 0, 68, 56
2,63463, Note_on_c, 0, 68, 0
2,63463, Note_on_c, 0, 68, 18
2,63599, Note_on_c, 0, 68, 0
2,63602, Note_on_c, 0, 46, 0
2,63619, Note_on_c, 0, 77, 0
2,63635, Note_on_c, 0, 51, 41
2,63636, Note_on_c, 0, 75, 62
2,63649, Note_on_c, 0, 67, 52
2,63785, Note_on_c, 0, 67, 0
2,63893, Note_on_c, 0, 58, 49
2,63901, Note_on_c, 0, 65, 62
2,64030, Note_on_c, 0, 58, 0
2,64120, Note_on_c, 0, 51, 0
2,64125, Note_on_c, 0, 75, 0
2,64136, Note_on_c, 0, 74, 74
2,64139, Note_on_c, 0, 59, 50
2,64143, Note_on_c, 0, 65, 0
2,64173, Note_on_c, 0, 59, 0
2,64360, Note_on_c, 0, 67, 77
2,64360, Note_on_c, 0, 75, 81
2,64363, Note_on_c, 0, 60, 58
2,64381, Note_on_c, 0, 74, 0
2,64479, Note_on_c, 0, 79, 81
2,64494, Note_on_c, 0, 75, 0
2,64540, Note_on_c, 0, 79, 0
2,64604, Note_on_c, 0, 75, 77
2,64667, Note_on_c, 0, 75, 0
2,64684, Note_on_c, 0, 67, 0
2,64719, Note_on_c, 0, 72, 78
2,64789, Note_on_c, 0, 72, 0
2,64793, Note_on_c, 0, 60, 0
2,64841, Note_on_c, 0, 68, 73
2,64955, Note_on_c, 0, 60, 60
2,65013, Note_on_c, 0, 60, 0
2,65026, Note_on_c, 0, 68, 0
2,65076, Note_on_c, 0, 56, 63
2,65076, Note_on_c, 0, 65, 71
2,65116, Note_on_c, 0, 56, 0
2,65194, Note_on_c, 0, 53, 63
2,65235, Note_on_c, 0, 53, 0
2,65320, Note_on_c, 0, 58, 73
2,65366, Note_on_c, 0, 50, 44
2,65402, Control_c, 0, 64, 18
2,65417, Control_c, 0, 64, 42
2,65426, Note_on_c, 0, 65, 0
2,65432, Control_c, 0, 64, 53
2,65447, Note_on_c, 0, 77, 71
2,65448, Control_c, 0, 64, 58
2,65463, Control_c, 0, 64, 60
2,65479, Control_c, 0, 64, 61
2,65494, Control_c, 0, 64, 62
2,65500, Note_on_c, 0, 50, 0
2,65500, Note_on_c, 0, 77, 0
2,65509, Control_c, 0, 64, 63
2,65516, Note_on_c, 0, 58, 0
2,65539, Control_c, 0, 64, 62
2,65554, Control_c, 0, 64, 61
2,65568, Note_on_c, 0, 74, 61
2,65569, Control_c, 0, 64, 58
2,65570, Note_on_c, 0, 46, 57
2,65582, Control_c, 0, 64, 55
2,65598, Control_c, 0, 64, 56
2,65613, Control_c, 0, 64, 57
2,65628, Control_c, 0, 64, 58
2,65628, Note_on_c, 0, 74, 0
2,65644, Control_c, 0, 64, 59
2,65659, Control_c, 0, 64, 59
2,65666, Note_on_c, 0, 70, 73
2,65674, Control_c, 0, 64, 60
2,65690, Control_c, 0, 64, 61
2,65704, Control_c, 0, 64, 62
2,65712, Note_on_c, 0, 70, 0
2,65735, Control_c, 0, 64, 61
2,65750, Control_c, 0, 64, 58
2,65765, Control_c, 0, 64, 21
2,65780, Control_c, 0, 64, 0
2,65796, Note_on_c, 0, 67, 79
2,65842, Control_c, 0, 64, 28
2,65856, Control_c, 0, 64, 58
2,65864, Note_on_c, 0, 46, 0
2,65871, Control_c, 0, 64, 63
2,65887, Control_c, 0, 64, 64
2,65901, Control_c, 0, 64, 65
2,65902, Note_on_c, 0, 67, 0
2,65913, Note_on_c, 0, 51, 74
2,65916, Control_c, 0, 64, 66
2,65977, Control_c, 0, 64, 66
2,65992, Control_c, 0, 64, 65
2,66008, Control_c, 0, 64, 59
2,66023, Control_c, 0, 64, 0
2,66038, Note_on_c, 0, 51, 0
2,66041, Note_on_c, 0, 48, 73
2,66043, Note_on_c, 0, 65, 79
2,66045, Note_on_c, 0, 75, 77
2,66114, Control_c, 0, 64, 56
2,66123, Note_on_c, 0, 75, 0
2,66131, Control_c, 0, 64, 62
2,66153, Control_c, 0, 64, 64
2,66169, Control_c, 0, 64, 65
2,66170, Note_on_c, 0, 44, 77
2,66173, Note_on_c, 0, 48, 0
2,66184, Control_c, 0, 64, 66
2,66275, Control_c, 0, 64, 65
2,66280, Note_on_c, 0, 65, 0
2,66290, Control_c, 0, 64, 63
2,66305, Control_c, 0, 64, 55
2,66321, Control_c, 0, 64, 0
2,66323, Note_on_c, 0, 67, 90
2,66325, Note_on_c, 0, 46, 85
2,66346, Note_on_c, 0, 44, 0
2,66447, Note_on_c, 0, 62, 70
2,66472, Control_c, 0, 64, 25
2,66488, Control_c, 0, 64, 48
2,66502, Control_c, 0, 64, 55
2,66517, Control_c, 0, 64, 59
2,66533, Control_c, 0, 64, 61
2,66539, Note_on_c, 0, 62, 0
2,66548, Control_c, 0, 64, 62
2,66564, Control_c, 0, 64, 63
2,66576, Note_on_c, 0, 63, 70
2,66576, Note_on_c, 0, 67, 0
2,66579, Control_c, 0, 64, 64
2,66594, Control_c, 0, 64, 65
2,66609, Control_c, 0, 64, 65
2,66624, Control_c, 0, 64, 66
2,66685, Control_c, 0, 64, 66
2,66697, Note_on_c, 0, 58, 76
2,66704, Note_on_c, 0, 63, 0
2,66761, Control_c, 0, 64, 66
2,66776, Control_c, 0, 64, 64
2,66784, Note_on_c, 0, 58, 0
2,66791, Control_c, 0, 64, 58
2,66807, Control_c, 0, 64, 0
2,66840, Note_on_c, 0, 65, 82
2,66912, Control_c, 0, 64, 21
2,66936, Control_c, 0, 64, 52
2,66952, Control_c, 0, 64, 60
2,66968, Control_c, 0, 64, 63
2,66978, Note_on_c, 0, 60, 71
2,66982, Control_c, 0, 64, 64
2,66997, Control_c, 0, 64, 65
2,67013, Control_c, 0, 64, 66
2,67028, Control_c, 0, 64, 67
2,67044, Control_c, 0, 64, 67
2,67058, Control_c, 0, 64, 68
2,67069, Note_on_c, 0, 60, 0
2,67073, Control_c, 0, 64, 69
2,67089, Control_c, 0, 64, 70
2,67104, Control_c, 0, 64, 70
2,67108, Note_on_c, 0, 62, 72
2,67165, Control_c, 0, 64, 71
2,67216, Note_on_c, 0, 62, 0
2,67223, Note_on_c, 0, 56, 77
2,67288, Control_c, 0, 64, 70
2,67323, Note_on_c, 0, 65, 0
2,67348, Control_c, 0, 64, 69
2,67352, Note_on_c, 0, 56, 0
2,67364, Control_c, 0, 64, 65
2,67369, Note_on_c, 0, 46, 0
2,67369, Note_on_c, 0, 63, 86
2,67373, Note_on_c, 0, 39, 56
2,67379, Control_c, 0, 64, 55
2,67395, Control_c, 0, 64, 0
2,67514, Note_on_c, 0, 61, 67
2,67653, Note_on_c, 0, 61, 0
2,67664, Note_on_c, 0, 58, 59
2,67756, Note_on_c, 0, 58, 0
2,67806, Note_on_c, 0, 55, 64
2,67906, Note_on_c, 0, 55, 0
2,67957, Note_on_c, 0, 60, 72
2,68093, Note_on_c, 0, 60, 0
2,68108, Note_on_c, 0, 56, 68
2,68223, Note_on_c, 0, 56, 0
2,68275, Note_on_c, 0, 53, 71
2,68394, Note_on_c, 0, 53, 0
2,68468, Note_on_c, 0, 59, 63
2,68700, Note_on_c, 0, 59, 0
2,68773, Note_on_c, 0, 55, 58
2,68773, Note_on_c, 0, 58, 62
2,70056, Control_c, 0, 64, 13
2,70072, Control_c, 0, 64, 23
2,70087, Control_c, 0, 64, 29
2,70102, Control_c, 0, 64, 35
2,70118, Control_c, 0, 64, 40
2,70132, Control_c, 0, 64, 44
2,70147, Control_c, 0, 64, 47
2,70163, Control_c, 0, 64, 50
2,70177, Control_c, 0, 64, 53
2,70192, Control_c, 0, 64, 55
2,70207, Control_c, 0, 64, 57
2,70223, Control_c, 0, 64, 59
2,70239, Control_c, 0, 64, 60
2,70254, Control_c, 0, 64, 62
2,70269, Control_c, 0, 64, 62
2,70284, Control_c, 0, 64, 63
2,70299, Control_c, 0, 64, 64
2,70315, Control_c, 0, 64, 65
2,70330, Control_c, 0, 64, 65
2,70345, Control_c, 0, 64, 66
2,70360, Control_c, 0, 64, 67
2,70375, Control_c, 0, 64, 68
2,70390, Control_c, 0, 64, 69
2,70406, Control_c, 0, 64, 70
2,70421, Control_c, 0, 64, 71
2,70437, Control_c, 0, 64, 72
2,70452, Control_c, 0, 64, 73
2,70467, Control_c, 0, 64, 74
2,70482, Control_c, 0, 64, 74
2,70497, Control_c, 0, 64, 75
2,70513, Control_c, 0, 64, 75
2,70532, Note_on_c, 0, 39, 0
2,70596, Note_on_c, 0, 63, 0
2,70633, Note_on_c, 0, 55, 0
2,70649, Control_c, 0, 64, 75
2,70656, Note_on_c, 0, 58, 0
2,70694, Control_c, 0, 64, 74
2,70709, Control_c, 0, 64, 74
2,70725, Control_c, 0, 64, 73
2,70740, Control_c, 0, 64, 73
2,70756, Control_c, 0, 64, 72
2,70778, Control_c, 0, 64, 72
2,70794, Control_c, 0, 64, 71
2,70809, Control_c, 0, 64, 70
2,70823, Control_c, 0, 64, 69
2,70839, Control_c, 0, 64, 69
2,70869, Control_c, 0, 64, 68
2,70899, Control_c, 0, 64, 68
2,70930, Control_c, 0, 64, 67
2,70961, Control_c, 0, 64, 67
2,70975, Control_c, 0, 64, 66
2,70990, Control_c, 0, 64, 66
2,71020, Control_c, 0, 64, 65
2,71053, Control_c, 0, 64, 65
2,71067, Control_c, 0, 64, 64
2,71114, Control_c, 0, 64, 64
2,71174, Control_c, 0, 64, 63
2,71204, Control_c, 0, 64, 63
2,71281, Control_c, 0, 64, 62
2,71372, Control_c, 0, 64, 62
2,71447, Control_c, 0, 64, 61
2,71462, Control_c, 0, 64, 61
2,71508, Control_c, 0, 64, 60
2,71546, Control_c, 0, 64, 60
2,71562, Control_c, 0, 64, 59
2,71577, Control_c, 0, 64, 59
2,71593, Control_c, 0, 64, 58
2,71622, Control_c, 0, 64, 58
2,71638, Control_c, 0, 64, 57
2,71667, Control_c, 0, 64, 57
2,71714, Control_c, 0, 64, 56
2,71851, Control_c, 0, 64, 56
2,71852, End_track
0, 0, End_of_file
