0, 0, Header, 1, 2, 384
1, 0, Start_track
1, 0, Tempo, 500000
1, 0, Time_signature, 4, 2, 24, 8
1, 1, End_track
2,0,Start_track
2,0, Note_on_c, 0, 51, 57
2,1000, Note_on_c, 0, 51, 0
2,1018, Note_on_c, 0, 58, 51
2,1470, Note_on_c, 0, 58, 0
2,1498, Control_c, 0, 64, 62
2,1723, Note_on_c, 0, 56, 67
2,1766, Note_on_c, 0, 56, 0
2,1958, Note_on_c, 0, 55, 65
2,1984, Note_on_c, 0, 55, 0
2,2197, Note_on_c, 0, 60, 62
2,2218, Control_c, 0, 64, 63
2,2477, Control_c, 0, 64, 62
2,2529, Control_c, 0, 64, 62
2,2660, Note_on_c, 0, 58, 62
2,2662, Note_on_c, 0, 60, 0
2,2818, Control_c, 0, 64, 61
2,2885, Note_on_c, 0, 56, 59
2,2893, Note_on_c, 0, 58, 0
2,2915, Note_on_c, 0, 56, 0
2,3113, Note_on_c, 0, 56, 63
2,3201, Note_on_c, 0, 56, 0
2,3214, Note_on_c, 0, 55, 57
2,3299, Control_c, 0, 64, 62
2,3315, Note_on_c, 0, 55, 0
2,3326, Note_on_c, 0, 56, 62
2,3350, Note_on_c, 0, 56, 0
2,3450, Control_c, 0, 64, 62
2,3543, Note_on_c, 0, 60, 69
2,3572, Note_on_c, 0, 60, 0
2,3771, Note_on_c, 0, 53, 64
2,3799, Note_on_c, 0, 53, 0
2,3891, Control_c, 0, 64, 63
2,4026, Note_on_c, 0, 58, 62
2,4187, Control_c, 0, 64, 63
2,4293, Control_c, 0, 64, 63
2,4385, Control_c, 0, 64, 62
2,4471, Note_on_c, 0, 56, 56
2,4517, Note_on_c, 0, 58, 0
2,4523, Control_c, 0, 64, 62
2,4681, Note_on_c, 0, 56, 0
2,4694, Note_on_c, 0, 55, 55
2,4725, Note_on_c, 0, 55, 0
2,4735, Control_c, 0, 64, 61
2,4797, Control_c, 0, 64, 61
2,4880, Control_c, 0, 64, 60
2,4928, Note_on_c, 0, 55, 57
2,4986, Note_on_c, 0, 55, 0
2,5015, Note_on_c, 0, 53, 56
2,5047, Control_c, 0, 64, 60
2,5107, Control_c, 0, 64, 60
2,5108, Note_on_c, 0, 53, 0
2,5120, Note_on_c, 0, 55, 55
2,5155, Note_on_c, 0, 55, 0
2,5183, Control_c, 0, 64, 61
2,5228, Control_c, 0, 64, 61
2,5355, Note_on_c, 0, 58, 53
2,5398, Note_on_c, 0, 58, 0
2,5616, Note_on_c, 0, 58, 72
2,5618, Note_on_c, 0, 51, 43
2,5697, Note_on_c, 0, 51, 0
2,5860, Note_on_c, 0, 51, 49
2,5928, Note_on_c, 0, 51, 0
2,5963, Note_on_c, 0, 50, 51
2,5982, Control_c, 0, 64, 61
2,6057, Control_c, 0, 64, 60
2,6063, Note_on_c, 0, 51, 65
2,6065, Note_on_c, 0, 50, 0
2,6094, Note_on_c, 0, 51, 0
2,6311, Note_on_c, 0, 55, 49
2,6341, Note_on_c, 0, 55, 0
2,6548, Note_on_c, 0, 63, 74
2,6554, Note_on_c, 0, 48, 46
2,6596, Note_on_c, 0, 58, 0
2,6781, Control_c, 0, 64, 61
2,6788, Note_on_c, 0, 50, 57
2,6792, Note_on_c, 0, 48, 0
2,6876, Note_on_c, 0, 50, 0
2,6885, Note_on_c, 0, 51, 62
2,6902, Control_c, 0, 64, 60
2,6985, Note_on_c, 0, 51, 0
2,6993, Note_on_c, 0, 53, 71
2,7001, Note_on_c, 0, 63, 0
2,7231, Control_c, 0, 64, 61
2,7238, Note_on_c, 0, 63, 64
2,7274, Note_on_c, 0, 63, 0
2,7468, Note_on_c, 0, 62, 72
2,7471, Note_on_c, 0, 46, 54
2,7482, Note_on_c, 0, 53, 0
2,7498, Note_on_c, 0, 62, 0
2,7696, Note_on_c, 0, 46, 0
2,7700, Control_c, 0, 64, 61
2,7707, Note_on_c, 0, 67, 77
2,7762, Control_c, 0, 64, 62
2,7808, Control_c, 0, 64, 62
2,7957, Note_on_c, 0, 58, 71
2,8013, Control_c, 0, 64, 63
2,8150, Control_c, 0, 64, 62
2,8195, Control_c, 0, 64, 62
2,8203, Note_on_c, 0, 65, 71
2,8204, Note_on_c, 0, 67, 0
2,8256, Control_c, 0, 64, 61
2,8377, Control_c, 0, 64, 62
2,8428, Note_on_c, 0, 63, 69
2,8438, Note_on_c, 0, 65, 0
2,8457, Note_on_c, 0, 63, 0
2,8606, Control_c, 0, 64, 61
2,8653, Note_on_c, 0, 63, 76
2,8768, Note_on_c, 0, 62, 67
2,8776, Note_on_c, 0, 63, 0
2,8874, Note_on_c, 0, 62, 0
2,8881, Note_on_c, 0, 63, 71
2,8886, Note_on_c, 0, 57, 59
2,8889, Note_on_c, 0, 58, 0
2,8910, Note_on_c, 0, 63, 0
2,8918, Control_c, 0, 64, 61
2,8978, Control_c, 0, 64, 60
2,9039, Control_c, 0, 64, 60
2,9108, Note_on_c, 0, 67, 74
2,9115, Note_on_c, 0, 55, 58
2,9118, Note_on_c, 0, 57, 0
2,9145, Control_c, 0, 64, 60
2,9147, Note_on_c, 0, 67, 0
2,9337, Note_on_c, 0, 60, 75
2,9347, Note_on_c, 0, 55, 0
2,9350, Note_on_c, 0, 57, 58
2,9358, Control_c, 0, 64, 61
2,9363, Note_on_c, 0, 60, 0
2,9580, Note_on_c, 0, 65, 80
2,9673, Note_on_c, 0, 57, 0
2,9693, Note_on_c, 0, 58, 55
2,9739, Note_on_c, 0, 58, 0
2,9742, Note_on_c, 0, 57, 60
2,9797, Note_on_c, 0, 55, 71
2,9804, Note_on_c, 0, 57, 0
2,9898, Control_c, 0, 64, 61
2,9914, Control_c, 0, 64, 61
2,10024, Note_on_c, 0, 55, 0
2,10035, Note_on_c, 0, 57, 69
2,10042, Note_on_c, 0, 63, 75
2,10042, Note_on_c, 0, 65, 0
2,10262, Note_on_c, 0, 57, 0
2,10276, Note_on_c, 0, 58, 68
2,10284, Note_on_c, 0, 62, 68
2,10288, Note_on_c, 0, 63, 0
2,10313, Note_on_c, 0, 62, 0
2,10347, Control_c, 0, 64, 60
2,10454, Control_c, 0, 64, 60
2,10505, Note_on_c, 0, 58, 0
2,10508, Note_on_c, 0, 46, 46
2,10518, Note_on_c, 0, 62, 52
2,10592, Note_on_c, 0, 62, 0
2,10604, Note_on_c, 0, 60, 55
2,10718, Note_on_c, 0, 46, 0
2,10725, Note_on_c, 0, 60, 0
2,10728, Control_c, 0, 64, 60
2,10728, Note_on_c, 0, 62, 56
2,10730, Note_on_c, 0, 58, 58
2,10760, Note_on_c, 0, 62, 0
2,10834, Control_c, 0, 64, 61
2,10956, Note_on_c, 0, 58, 0
2,10965, Note_on_c, 0, 56, 67
2,10968, Note_on_c, 0, 65, 72
2,11010, Note_on_c, 0, 65, 0
2,11055, Control_c, 0, 64, 61
2,11207, Note_on_c, 0, 56, 0
2,11213, Note_on_c, 0, 55, 68
2,11214, Note_on_c, 0, 58, 72
2,11246, Note_on_c, 0, 58, 0
2,11298, Control_c, 0, 64, 61
2,11439, Note_on_c, 0, 55, 0
2,11445, Note_on_c, 0, 43, 55
2,11445, Note_on_c, 0, 58, 63
2,11463, Control_c, 0, 64, 60
2,11520, Note_on_c, 0, 58, 0
2,11552, Note_on_c, 0, 56, 59
2,11635, Note_on_c, 0, 43, 0
2,11665, Note_on_c, 0, 58, 61
2,11667, Note_on_c, 0, 55, 47
2,11668, Note_on_c, 0, 56, 0
2,11698, Note_on_c, 0, 58, 0
2,11738, Control_c, 0, 64, 60
2,11883, Control_c, 0, 64, 60
2,11901, Note_on_c, 0, 62, 66
2,11902, Note_on_c, 0, 55, 0
2,11912, Note_on_c, 0, 53, 52
2,11933, Note_on_c, 0, 62, 0
2,12050, Control_c, 0, 64, 61
2,12141, Control_c, 0, 64, 60
2,12155, Note_on_c, 0, 53, 0
2,12156, Note_on_c, 0, 63, 83
2,12172, Note_on_c, 0, 51, 57
2,12175, Note_on_c, 0, 55, 52
2,12355, Note_on_c, 0, 55, 0
2,12385, Note_on_c, 0, 53, 60
2,12391, Note_on_c, 0, 56, 65
2,12414, Control_c, 0, 64, 60
2,12432, Note_on_c, 0, 51, 0
2,12465, Note_on_c, 0, 53, 0
2,12484, Note_on_c, 0, 55, 56
2,12485, Note_on_c, 0, 58, 66
2,12499, Note_on_c, 0, 56, 0
2,12567, Note_on_c, 0, 58, 0
2,12613, Note_on_c, 0, 56, 69
2,12614, Note_on_c, 0, 60, 54
2,12618, Note_on_c, 0, 55, 0
2,12696, Control_c, 0, 64, 60
2,12772, Control_c, 0, 64, 61
2,12825, Note_on_c, 0, 60, 0
2,12855, Note_on_c, 0, 58, 61
2,12902, Note_on_c, 0, 58, 0
2,12918, Note_on_c, 0, 63, 0
2,12945, Note_on_c, 0, 60, 64
2,13070, Note_on_c, 0, 60, 0
2,13070, Note_on_c, 0, 70, 85
2,13082, Note_on_c, 0, 62, 66
2,13139, Control_c, 0, 64, 60
2,13245, Control_c, 0, 64, 60
2,13297, Note_on_c, 0, 56, 0
2,13308, Note_on_c, 0, 55, 60
2,13315, Note_on_c, 0, 65, 62
2,13323, Note_on_c, 0, 62, 0
2,13345, Control_c, 0, 64, 59
2,13401, Note_on_c, 0, 55, 0
2,13419, Note_on_c, 0, 53, 62
2,13529, Note_on_c, 0, 53, 0
2,13533, Note_on_c, 0, 55, 66
2,13537, Note_on_c, 0, 58, 73
2,13539, Note_on_c, 0, 65, 0
2,13565, Note_on_c, 0, 58, 0
2,13566, Note_on_c, 0, 70, 0
2,13573, Control_c, 0, 64, 60
2,13755, Note_on_c, 0, 55, 0
2,13767, Note_on_c, 0, 68, 85
2,13770, Control_c, 0, 64, 60
2,13773, Note_on_c, 0, 58, 64
2,13773, Note_on_c, 0, 62, 61
2,13809, Note_on_c, 0, 62, 0
2,13811, Note_on_c, 0, 68, 0
2,13984, Control_c, 0, 64, 61
2,13998, Note_on_c, 0, 67, 83
2,14003, Note_on_c, 0, 51, 63
2,14004, Note_on_c, 0, 58, 0
2,14008, Note_on_c, 0, 63, 65
2,14023, Note_on_c, 0, 67, 0
2,14029, Control_c, 0, 64, 61
2,14113, Control_c, 0, 64, 62
2,14235, Note_on_c, 0, 51, 0
2,14239, Note_on_c, 0, 56, 66
2,14241, Note_on_c, 0, 72, 90
2,14343, Note_on_c, 0, 55, 68
2,14349, Note_on_c, 0, 56, 0
2,14433, Control_c, 0, 64, 61
2,14454, Note_on_c, 0, 55, 0
2,14458, Note_on_c, 0, 56, 75
2,14497, Note_on_c, 0, 56, 0
2,14538, Control_c, 0, 64, 61
2,14699, Note_on_c, 0, 70, 75
2,14704, Note_on_c, 0, 60, 66
2,14707, Note_on_c, 0, 72, 0
2,14733, Note_on_c, 0, 60, 0
2,14941, Control_c, 0, 64, 61
2,14941, Note_on_c, 0, 53, 81
2,14950, Note_on_c, 0, 68, 75
2,14961, Note_on_c, 0, 70, 0
2,14985, Note_on_c, 0, 68, 0
2,15063, Control_c, 0, 64, 61
2,15189, Note_on_c, 0, 68, 75
2,15288, Note_on_c, 0, 68, 0
2,15295, Note_on_c, 0, 67, 67
2,15337, Control_c, 0, 64, 60
2,15396, Note_on_c, 0, 62, 74
2,15406, Note_on_c, 0, 67, 0
2,15408, Note_on_c, 0, 68, 71
2,15421, Note_on_c, 0, 63, 0
2,15428, Control_c, 0, 64, 61
2,15438, Note_on_c, 0, 68, 0
2,15628, Note_on_c, 0, 60, 71
2,15630, Note_on_c, 0, 55, 70
2,15635, Note_on_c, 0, 72, 79
2,15640, Note_on_c, 0, 62, 0
2,15687, Note_on_c, 0, 72, 0
2,15720, Note_on_c, 0, 53, 0
2,15733, Note_on_c, 0, 56, 76
2,15793, Note_on_c, 0, 55, 0
2,15859, Note_on_c, 0, 58, 80
2,15861, Note_on_c, 0, 62, 63
2,15864, Note_on_c, 0, 65, 76
2,15877, Control_c, 0, 64, 61
2,15882, Note_on_c, 0, 60, 0
2,15906, Note_on_c, 0, 56, 0
2,15918, Note_on_c, 0, 65, 0
2,16095, Note_on_c, 0, 70, 76
2,16188, Note_on_c, 0, 62, 0
2,16255, Note_on_c, 0, 63, 60
2,16256, Control_c, 0, 64, 62
2,16305, Note_on_c, 0, 62, 64
2,16308, Note_on_c, 0, 63, 0
2,16338, Note_on_c, 0, 60, 63
2,16343, Note_on_c, 0, 62, 0
2,16562, Note_on_c, 0, 60, 0
2,16567, Note_on_c, 0, 68, 69
2,16571, Note_on_c, 0, 62, 55
2,16610, Note_on_c, 0, 70, 0
2,16788, Note_on_c, 0, 62, 0
2,16799, Note_on_c, 0, 67, 67
2,16804, Note_on_c, 0, 63, 60
2,16806, Note_on_c, 0, 68, 0
2,16807, Note_on_c, 0, 58, 0
2,16808, Note_on_c, 0, 51, 57
2,16840, Note_on_c, 0, 67, 0
2,17010, Control_c, 0, 64, 61
2,17039, Note_on_c, 0, 67, 64
2,17053, Note_on_c, 0, 58, 54
2,17150, Note_on_c, 0, 67, 0
2,17153, Note_on_c, 0, 65, 59
2,17161, Note_on_c, 0, 58, 0
2,17170, Note_on_c, 0, 56, 54
2,17224, Note_on_c, 0, 51, 0
2,17265, Note_on_c, 0, 65, 0
2,17267, Note_on_c, 0, 67, 68
2,17270, Note_on_c, 0, 56, 0
2,17271, Note_on_c, 0, 63, 0
2,17285, Note_on_c, 0, 58, 63
2,17295, Note_on_c, 0, 67, 0
2,17500, Note_on_c, 0, 70, 67
2,17504, Note_on_c, 0, 50, 56
2,17519, Control_c, 0, 64, 61
2,17534, Note_on_c, 0, 70, 0
2,17546, Note_on_c, 0, 50, 0
2,17687, Control_c, 0, 64, 60
2,17748, Note_on_c, 0, 63, 66
2,17754, Note_on_c, 0, 48, 51
2,17808, Control_c, 0, 64, 61
2,17937, Control_c, 0, 64, 61
2,17975, Note_on_c, 0, 63, 0
2,17975, Note_on_c, 0, 65, 59
2,17980, Note_on_c, 0, 56, 55
2,17981, Note_on_c, 0, 58, 0
2,18077, Note_on_c, 0, 65, 0
2,18093, Note_on_c, 0, 63, 54
2,18094, Note_on_c, 0, 56, 0
2,18099, Note_on_c, 0, 55, 53
2,18177, Note_on_c, 0, 48, 0
2,18188, Note_on_c, 0, 63, 0
2,18197, Note_on_c, 0, 65, 64
2,18199, Note_on_c, 0, 55, 0
2,18210, Note_on_c, 0, 56, 69
2,18226, Note_on_c, 0, 65, 0
2,18241, Control_c, 0, 64, 61
2,18437, Note_on_c, 0, 53, 58
2,18440, Note_on_c, 0, 68, 64
2,18473, Note_on_c, 0, 53, 0
2,18479, Note_on_c, 0, 68, 0
2,18500, Control_c, 0, 64, 61
2,18546, Control_c, 0, 64, 62
2,18561, Control_c, 0, 64, 62
2,18592, Control_c, 0, 64, 63
2,18692, Note_on_c, 0, 70, 81
2,18701, Note_on_c, 0, 62, 69
2,18708, Note_on_c, 0, 46, 65
2,18766, Control_c, 0, 64, 63
2,18803, Note_on_c, 0, 56, 0
2,18888, Control_c, 0, 64, 63
2,18918, Control_c, 0, 64, 62
2,18932, Note_on_c, 0, 63, 69
2,18933, Control_c, 0, 64, 62
2,18934, Note_on_c, 0, 55, 68
2,18949, Control_c, 0, 64, 61
2,18962, Note_on_c, 0, 62, 0
2,18964, Control_c, 0, 64, 60
2,18979, Control_c, 0, 64, 59
2,18994, Control_c, 0, 64, 58
2,19009, Control_c, 0, 64, 57
2,19025, Control_c, 0, 64, 57
2,19040, Control_c, 0, 64, 56
2,19054, Control_c, 0, 64, 56
2,19070, Control_c, 0, 64, 54
2,19085, Control_c, 0, 64, 53
2,19100, Control_c, 0, 64, 53
2,19116, Control_c, 0, 64, 52
2,19130, Control_c, 0, 64, 52
2,19146, Control_c, 0, 64, 51
2,19161, Control_c, 0, 64, 50
2,19165, Note_on_c, 0, 53, 77
2,19175, Note_on_c, 0, 55, 0
2,19192, Control_c, 0, 64, 51
2,19206, Control_c, 0, 64, 53
2,19222, Control_c, 0, 64, 55
2,19238, Control_c, 0, 64, 59
2,19253, Control_c, 0, 64, 61
2,19269, Control_c, 0, 64, 63
2,19284, Control_c, 0, 64, 66
2,19298, Control_c, 0, 64, 69
2,19314, Control_c, 0, 64, 74
2,19329, Control_c, 0, 64, 86
2,19345, Control_c, 0, 64, 123
2,19359, Control_c, 0, 64, 127
2,19386, Note_on_c, 0, 63, 0
2,19399, Note_on_c, 0, 53, 0
2,19399, Note_on_c, 0, 58, 70
2,19404, Note_on_c, 0, 62, 76
2,19471, Note_on_c, 0, 58, 0
2,19567, Note_on_c, 0, 62, 0
2,19616, Note_on_c, 0, 55, 25
2,19634, Note_on_c, 0, 75, 91
2,19640, Control_c, 0, 64, 92
2,19640, Note_on_c, 0, 60, 76
2,19655, Control_c, 0, 64, 67
2,19658, Note_on_c, 0, 70, 0
2,19671, Control_c, 0, 64, 45
2,19686, Control_c, 0, 64, 28
2,19696, Note_on_c, 0, 60, 0
2,19701, Control_c, 0, 64, 33
2,19717, Control_c, 0, 64, 40
2,19732, Control_c, 0, 64, 43
2,19748, Control_c, 0, 64, 45
2,19762, Control_c, 0, 64, 45
2,19793, Control_c, 0, 64, 46
2,19808, Control_c, 0, 64, 46
2,19838, Control_c, 0, 64, 47
2,19873, Note_on_c, 0, 67, 76
2,19910, Note_on_c, 0, 67, 0
2,20080, Note_on_c, 0, 46, 0
2,20097, Note_on_c, 0, 53, 79
2,20098, Note_on_c, 0, 72, 83
2,20104, Note_on_c, 0, 45, 70
2,20127, Control_c, 0, 64, 46
2,20128, Note_on_c, 0, 75, 0
2,20141, Note_on_c, 0, 55, 0
2,20142, Control_c, 0, 64, 46
2,20173, Control_c, 0, 64, 45
2,20336, Note_on_c, 0, 75, 88
2,20363, Control_c, 0, 64, 46
2,20393, Note_on_c, 0, 75, 0
2,20424, Control_c, 0, 64, 47
2,20439, Control_c, 0, 64, 47
2,20454, Control_c, 0, 64, 48
2,20499, Control_c, 0, 64, 48
2,20565, Note_on_c, 0, 46, 74
2,20573, Note_on_c, 0, 74, 81
2,20594, Note_on_c, 0, 72, 0
2,20606, Control_c, 0, 64, 49
2,20617, Note_on_c, 0, 45, 0
2,20620, Note_on_c, 0, 53, 0
2,20621, Control_c, 0, 64, 50
2,20628, Note_on_c, 0, 74, 0
2,20652, Control_c, 0, 64, 50
2,20682, Control_c, 0, 64, 50
2,20742, Control_c, 0, 64, 49
2,20758, Control_c, 0, 64, 49
2,20806, Note_on_c, 0, 79, 80
2,20810, Note_on_c, 0, 50, 77
2,20819, Note_on_c, 0, 70, 72
2,20909, Note_on_c, 0, 69, 64
2,20916, Note_on_c, 0, 70, 0
2,20995, Control_c, 0, 64, 49
2,21032, Note_on_c, 0, 55, 74
2,21035, Note_on_c, 0, 46, 0
2,21038, Note_on_c, 0, 70, 76
2,21046, Note_on_c, 0, 50, 0
2,21053, Note_on_c, 0, 69, 0
2,21056, Note_on_c, 0, 79, 0
2,21162, Control_c, 0, 64, 49
2,21260, Note_on_c, 0, 43, 82
2,21272, Note_on_c, 0, 77, 84
2,21283, Control_c, 0, 64, 49
2,21318, Note_on_c, 0, 43, 0
2,21359, Control_c, 0, 64, 50
2,21466, Control_c, 0, 64, 50
2,21481, Control_c, 0, 64, 51
2,21494, Note_on_c, 0, 75, 85
2,21495, Control_c, 0, 64, 52
2,21497, Note_on_c, 0, 48, 81
2,21501, Note_on_c, 0, 77, 0
2,21511, Control_c, 0, 64, 53
2,21528, Note_on_c, 0, 55, 0
2,21571, Control_c, 0, 64, 52
2,21573, Note_on_c, 0, 75, 0
2,21587, Control_c, 0, 64, 52
2,21725, Control_c, 0, 64, 51
2,21739, Note_on_c, 0, 60, 79
2,21740, Note_on_c, 0, 75, 77
2,21777, Control_c, 0, 64, 51
2,21808, Control_c, 0, 64, 50
2,21834, Note_on_c, 0, 58, 81
2,21840, Note_on_c, 0, 60, 0
2,21843, Note_on_c, 0, 74, 74
2,21853, Note_on_c, 0, 75, 0
2,21857, Note_on_c, 0, 70, 0
2,21938, Note_on_c, 0, 48, 0
2,21951, Note_on_c, 0, 60, 87
2,21960, Note_on_c, 0, 69, 87
2,21961, Note_on_c, 0, 75, 84
2,21963, Note_on_c, 0, 58, 0
2,21968, Note_on_c, 0, 74, 0
2,21975, Control_c, 0, 64, 51
2,21998, Note_on_c, 0, 69, 0
2,22009, Note_on_c, 0, 75, 0
2,22127, Control_c, 0, 64, 51
2,22176, Note_on_c, 0, 51, 80
2,22181, Note_on_c, 0, 79, 83
2,22185, Note_on_c, 0, 67, 81
2,22224, Note_on_c, 0, 67, 0
2,22225, Note_on_c, 0, 51, 0
2,22238, Note_on_c, 0, 79, 0
2,22430, Note_on_c, 0, 72, 83
2,22437, Note_on_c, 0, 53, 71
2,22437, Note_on_c, 0, 69, 86
2,22446, Note_on_c, 0, 55, 71
2,22459, Control_c, 0, 64, 52
2,22475, Control_c, 0, 64, 52
2,22488, Note_on_c, 0, 72, 0
2,22499, Control_c, 0, 64, 53
2,22515, Control_c, 0, 64, 53
2,22569, Note_on_c, 0, 60, 0
2,22574, Note_on_c, 0, 55, 0
2,22620, Control_c, 0, 64, 53
2,22651, Control_c, 0, 64, 52
2,22665, Note_on_c, 0, 77, 90
2,22700, Note_on_c, 0, 69, 0
2,22741, Control_c, 0, 64, 53
2,22803, Note_on_c, 0, 62, 57
2,22827, Note_on_c, 0, 70, 67
2,22833, Control_c, 0, 64, 53
2,22848, Control_c, 0, 64, 54
2,22853, Note_on_c, 0, 60, 70
2,22860, Note_on_c, 0, 53, 0
2,22868, Note_on_c, 0, 62, 0
2,22873, Note_on_c, 0, 70, 0
2,22878, Control_c, 0, 64, 54
2,22878, Note_on_c, 0, 69, 66
2,22906, Note_on_c, 0, 58, 70
2,22909, Note_on_c, 0, 60, 0
2,22909, Note_on_c, 0, 69, 0
2,22910, Control_c, 0, 64, 55
2,22912, Note_on_c, 0, 67, 74
2,22939, Control_c, 0, 64, 55
2,23077, Control_c, 0, 64, 55
2,23125, Note_on_c, 0, 58, 0
2,23132, Note_on_c, 0, 67, 0
2,23133, Note_on_c, 0, 75, 69
2,23137, Note_on_c, 0, 69, 60
2,23137, Note_on_c, 0, 77, 0
2,23142, Note_on_c, 0, 60, 49
2,23149, Note_on_c, 0, 53, 47
2,23342, Note_on_c, 0, 53, 0
2,23364, Note_on_c, 0, 69, 0
2,23367, Note_on_c, 0, 60, 0
2,23373, Note_on_c, 0, 75, 0
2,23376, Note_on_c, 0, 74, 67
2,23377, Note_on_c, 0, 58, 51
2,23380, Note_on_c, 0, 62, 52
2,23382, Note_on_c, 0, 70, 62
2,23420, Note_on_c, 0, 74, 0
2,23594, Note_on_c, 0, 58, 0
2,23602, Control_c, 0, 64, 54
2,23606, Note_on_c, 0, 53, 57
2,23611, Note_on_c, 0, 74, 71
2,23704, Note_on_c, 0, 72, 72
2,23725, Note_on_c, 0, 74, 0
2,23738, Control_c, 0, 64, 54
2,23809, Note_on_c, 0, 62, 0
2,23813, Note_on_c, 0, 53, 0
2,23817, Note_on_c, 0, 70, 0
2,23821, Note_on_c, 0, 72, 0
2,23822, Note_on_c, 0, 74, 77
2,23825, Note_on_c, 0, 58, 55
2,23829, Control_c, 0, 64, 53
2,23854, Note_on_c, 0, 74, 0
2,23875, Control_c, 0, 64, 54
2,23921, Control_c, 0, 64, 53
2,24051, Note_on_c, 0, 77, 71
2,24056, Note_on_c, 0, 58, 0
2,24062, Note_on_c, 0, 57, 51
2,24064, Note_on_c, 0, 60, 46
2,24070, Note_on_c, 0, 65, 56
2,24097, Note_on_c, 0, 77, 0
2,24105, Note_on_c, 0, 65, 0
2,24118, Note_on_c, 0, 60, 0
2,24259, Note_on_c, 0, 57, 0
2,24264, Control_c, 0, 64, 53
2,24290, Note_on_c, 0, 70, 64
2,24299, Note_on_c, 0, 55, 51
2,24299, Note_on_c, 0, 62, 52
2,24315, Note_on_c, 0, 67, 55
2,24336, Note_on_c, 0, 70, 0
2,24386, Control_c, 0, 64, 52
2,24431, Control_c, 0, 64, 52
2,24522, Control_c, 0, 64, 51
2,24522, Note_on_c, 0, 70, 65
2,24523, Note_on_c, 0, 55, 0
2,24524, Note_on_c, 0, 50, 56
2,24581, Note_on_c, 0, 67, 0
2,24600, Note_on_c, 0, 70, 0
2,24614, Note_on_c, 0, 69, 65
2,24628, Control_c, 0, 64, 51
2,24728, Note_on_c, 0, 50, 0
2,24734, Note_on_c, 0, 69, 0
2,24741, Note_on_c, 0, 55, 53
2,24741, Note_on_c, 0, 70, 60
2,24750, Note_on_c, 0, 62, 0
2,24772, Note_on_c, 0, 70, 0
2,24795, Control_c, 0, 64, 51
2,24893, Control_c, 0, 64, 52
2,24935, Note_on_c, 0, 55, 0
2,24985, Note_on_c, 0, 74, 64
2,24993, Note_on_c, 0, 56, 49
2,24997, Note_on_c, 0, 53, 40
2,25006, Note_on_c, 0, 62, 52
2,25030, Note_on_c, 0, 74, 0
2,25067, Note_on_c, 0, 62, 0
2,25180, Note_on_c, 0, 56, 0
2,25209, Note_on_c, 0, 53, 0
2,25227, Note_on_c, 0, 51, 51
2,25227, Note_on_c, 0, 67, 63
2,25231, Note_on_c, 0, 58, 46
2,25236, Note_on_c, 0, 63, 55
2,25464, Note_on_c, 0, 60, 64
2,25465, Note_on_c, 0, 69, 69
2,25467, Note_on_c, 0, 65, 60
2,25470, Note_on_c, 0, 63, 0
2,25471, Note_on_c, 0, 58, 0
2,25481, Note_on_c, 0, 67, 0
2,25562, Control_c, 0, 64, 52
2,25600, Control_c, 0, 64, 53
2,25631, Control_c, 0, 64, 53
2,25676, Control_c, 0, 64, 54
2,25691, Control_c, 0, 64, 54
2,25707, Note_on_c, 0, 67, 62
2,25712, Note_on_c, 0, 51, 0
2,25712, Note_on_c, 0, 65, 0
2,25713, Note_on_c, 0, 70, 68
2,25718, Note_on_c, 0, 61, 64
2,25724, Note_on_c, 0, 60, 0
2,25733, Note_on_c, 0, 69, 0
2,25736, Control_c, 0, 64, 55
2,25767, Control_c, 0, 64, 55
2,25844, Control_c, 0, 64, 55
2,25875, Control_c, 0, 64, 54
2,25905, Control_c, 0, 64, 55
2,25920, Control_c, 0, 64, 57
2,25935, Control_c, 0, 64, 61
2,25947, Note_on_c, 0, 52, 55
2,25951, Control_c, 0, 64, 65
2,25966, Control_c, 0, 64, 71
2,25981, Control_c, 0, 64, 81
2,25990, Note_on_c, 0, 52, 0
2,25997, Control_c, 0, 64, 112
2,26012, Control_c, 0, 64, 127
2,26163, Control_c, 0, 64, 91
2,26178, Control_c, 0, 64, 73
2,26193, Note_on_c, 0, 61, 0
2,26194, Control_c, 0, 64, 64
2,26194, Note_on_c, 0, 60, 51
2,26198, Note_on_c, 0, 53, 43
2,26204, Note_on_c, 0, 65, 55
2,26209, Control_c, 0, 64, 58
2,26225, Control_c, 0, 64, 58
2,26239, Control_c, 0, 64, 59
2,26270, Control_c, 0, 64, 58
2,26284, Control_c, 0, 64, 58
2,26287, Note_on_c, 0, 67, 0
2,26299, Control_c, 0, 64, 57
2,26422, Note_on_c, 0, 60, 0
2,26439, Note_on_c, 0, 58, 53
2,26475, Control_c, 0, 64, 57
2,26486, Note_on_c, 0, 70, 0
2,26505, Control_c, 0, 64, 56
2,26677, Note_on_c, 0, 58, 0
2,26699, Note_on_c, 0, 69, 60
2,26700, Note_on_c, 0, 60, 51
2,26810, Control_c, 0, 64, 57
2,26884, Note_on_c, 0, 60, 0
2,26906, Note_on_c, 0, 65, 0
2,26928, Note_on_c, 0, 63, 43
2,26948, Control_c, 0, 64, 57
2,27144, Note_on_c, 0, 69, 0
2,27160, Note_on_c, 0, 63, 0
2,27170, Note_on_c, 0, 46, 49
2,27174, Note_on_c, 0, 58, 53
2,27179, Note_on_c, 0, 53, 0
2,27189, Note_on_c, 0, 70, 51
2,27198, Note_on_c, 0, 62, 51
2,27229, Control_c, 0, 64, 58
2,27232, Note_on_c, 0, 70, 0
2,27233, Note_on_c, 0, 62, 0
2,27291, Note_on_c, 0, 58, 0
2,27305, Control_c, 0, 64, 58
2,27425, Note_on_c, 0, 65, 58
2,27425, Note_on_c, 0, 74, 61
2,27453, Note_on_c, 0, 65, 0
2,27497, Note_on_c, 0, 74, 0
2,27534, Note_on_c, 0, 67, 60
2,27553, Note_on_c, 0, 75, 50
2,27602, Note_on_c, 0, 67, 0
2,27657, Note_on_c, 0, 58, 78
2,27659, Note_on_c, 0, 75, 0
2,27672, Note_on_c, 0, 77, 64
2,27678, Note_on_c, 0, 68, 64
2,27709, Note_on_c, 0, 46, 0
2,27750, Note_on_c, 0, 77, 0
2,27901, Note_on_c, 0, 74, 58
2,27948, Note_on_c, 0, 74, 0
2,28152, Note_on_c, 0, 63, 77
2,28161, Note_on_c, 0, 70, 62
2,28332, Note_on_c, 0, 58, 0
2,28341, Note_on_c, 0, 70, 0
2,28378, Note_on_c, 0, 68, 0
2,28399, Note_on_c, 0, 67, 65
2,28403, Note_on_c, 0, 75, 60
2,28441, Note_on_c, 0, 67, 0
2,28491, Note_on_c, 0, 77, 67
2,28504, Note_on_c, 0, 68, 61
2,28519, Note_on_c, 0, 75, 0
2,28529, Control_c, 0, 64, 58
2,28540, Note_on_c, 0, 68, 0
2,28549, Note_on_c, 0, 77, 0
2,28626, Note_on_c, 0, 79, 70
2,28636, Note_on_c, 0, 51, 61
2,28647, Note_on_c, 0, 70, 55
2,28661, Note_on_c, 0, 63, 0
2,28669, Note_on_c, 0, 79, 0
2,28675, Note_on_c, 0, 70, 0
2,28840, Control_c, 0, 64, 58
2,28866, Note_on_c, 0, 63, 73
2,28866, Note_on_c, 0, 75, 67
2,28871, Note_on_c, 0, 67, 66
2,28905, Note_on_c, 0, 75, 0
2,28906, Note_on_c, 0, 67, 0
2,28937, Note_on_c, 0, 63, 0
2,29098, Note_on_c, 0, 62, 66
2,29102, Note_on_c, 0, 51, 0
2,29106, Note_on_c, 0, 58, 72
2,29112, Note_on_c, 0, 77, 71
2,29113, Note_on_c, 0, 65, 66
2,29146, Note_on_c, 0, 65, 0
2,29155, Note_on_c, 0, 62, 0
2,29176, Note_on_c, 0, 77, 0
2,29205, Control_c, 0, 64, 59
2,29348, Note_on_c, 0, 75, 68
2,29351, Note_on_c, 0, 67, 70
2,29362, Note_on_c, 0, 70, 55
2,29415, Note_on_c, 0, 70, 0
2,29471, Control_c, 0, 64, 59
2,29477, Note_on_c, 0, 74, 61
2,29517, Control_c, 0, 64, 60
2,29544, Note_on_c, 0, 75, 0
2,29562, Control_c, 0, 64, 60
2,29563, Note_on_c, 0, 58, 0
2,29575, Note_on_c, 0, 74, 0
2,29578, Note_on_c, 0, 72, 61
2,29604, Note_on_c, 0, 68, 68
2,29627, Note_on_c, 0, 72, 0
2,29653, Control_c, 0, 64, 60
2,29715, Control_c, 0, 64, 59
2,29822, Note_on_c, 0, 56, 59
2,29825, Note_on_c, 0, 68, 0
2,29825, Note_on_c, 0, 74, 70
2,29832, Note_on_c, 0, 65, 64
2,29834, Note_on_c, 0, 70, 60
2,29842, Note_on_c, 0, 67, 0
2,29877, Note_on_c, 0, 70, 0
2,29901, Note_on_c, 0, 56, 0
2,30057, Note_on_c, 0, 74, 0
2,30058, Note_on_c, 0, 65, 0
2,30059, Note_on_c, 0, 55, 62
2,30066, Note_on_c, 0, 75, 73
2,30072, Note_on_c, 0, 63, 66
2,30087, Note_on_c, 0, 70, 52
2,30089, Note_on_c, 0, 55, 0
2,30102, Note_on_c, 0, 75, 0
2,30118, Note_on_c, 0, 70, 0
2,30126, Note_on_c, 0, 63, 0
2,30285, Control_c, 0, 64, 59
2,30310, Note_on_c, 0, 60, 68
2,30319, Note_on_c, 0, 63, 63
2,30413, Note_on_c, 0, 63, 0
2,30422, Note_on_c, 0, 62, 57
2,30508, Note_on_c, 0, 62, 0
2,30513, Control_c, 0, 64, 58
2,30533, Note_on_c, 0, 63, 60
2,30564, Note_on_c, 0, 63, 0
2,30573, Control_c, 0, 64, 58
2,30589, Control_c, 0, 64, 57
2,30754, Note_on_c, 0, 60, 0
2,30769, Note_on_c, 0, 67, 68
2,30771, Note_on_c, 0, 58, 57
2,30805, Note_on_c, 0, 67, 0
2,30834, Control_c, 0, 64, 58
2,31009, Note_on_c, 0, 60, 71
2,31016, Note_on_c, 0, 56, 55
2,31018, Note_on_c, 0, 58, 0
2,31024, Control_c, 0, 64, 58
2,31036, Note_on_c, 0, 60, 0
2,31049, Note_on_c, 0, 56, 0
2,31236, Control_c, 0, 64, 58
2,31240, Note_on_c, 0, 65, 75
2,31246, Note_on_c, 0, 56, 55
2,31322, Note_on_c, 0, 56, 0
2,31335, Note_on_c, 0, 55, 62
2,31417, Control_c, 0, 64, 58
2,31456, Note_on_c, 0, 55, 0
2,31458, Note_on_c, 0, 56, 62
2,31493, Note_on_c, 0, 56, 0
2,31510, Control_c, 0, 64, 59
2,31720, Note_on_c, 0, 60, 54
2,31723, Note_on_c, 0, 63, 61
2,31725, Note_on_c, 0, 65, 0
2,31744, Note_on_c, 0, 60, 0
2,31949, Note_on_c, 0, 53, 59
2,31954, Note_on_c, 0, 62, 59
2,31959, Note_on_c, 0, 63, 0
2,31979, Note_on_c, 0, 53, 0
2,31996, Note_on_c, 0, 62, 0
2,32187, Note_on_c, 0, 58, 58
2,32197, Note_on_c, 0, 62, 53
2,32294, Note_on_c, 0, 62, 0
2,32297, Note_on_c, 0, 60, 53
2,32417, Note_on_c, 0, 60, 0
2,32424, Note_on_c, 0, 62, 63
2,32455, Note_on_c, 0, 62, 0
2,32669, Note_on_c, 0, 56, 53
2,32674, Note_on_c, 0, 65, 57
2,32689, Note_on_c, 0, 58, 0
2,32712, Note_on_c, 0, 65, 0
2,32848, Control_c, 0, 64, 59
2,32892, Note_on_c, 0, 56, 0
2,32900, Note_on_c, 0, 55, 56
2,32909, Note_on_c, 0, 58, 65
2,32935, Note_on_c, 0, 55, 0
2,32942, Note_on_c, 0, 58, 0
2,33131, Note_on_c, 0, 55, 53
2,33151, Note_on_c, 0, 58, 56
2,33191, Note_on_c, 0, 55, 0
2,33214, Control_c, 0, 64, 60
2,33226, Note_on_c, 0, 58, 0
2,33233, Note_on_c, 0, 53, 45
2,33243, Note_on_c, 0, 56, 58
2,33350, Note_on_c, 0, 55, 54
2,33355, Note_on_c, 0, 56, 0
2,33356, Note_on_c, 0, 53, 0
2,33356, Note_on_c, 0, 58, 58
2,33382, Note_on_c, 0, 55, 0
2,33392, Note_on_c, 0, 58, 0
2,33556, Control_c, 0, 64, 60
2,33590, Note_on_c, 0, 58, 53
2,33593, Note_on_c, 0, 62, 60
2,33621, Note_on_c, 0, 62, 0
2,33628, Note_on_c, 0, 58, 0
2,33707, Control_c, 0, 64, 61
2,33854, Note_on_c, 0, 70, 79
2,33865, Note_on_c, 0, 51, 51
2,33874, Note_on_c, 0, 55, 52
2,33934, Note_on_c, 0, 51, 0
2,34049, Control_c, 0, 64, 61
2,34095, Control_c, 0, 64, 61
2,34101, Note_on_c, 0, 51, 57
2,34124, Note_on_c, 0, 55, 0
2,34156, Control_c, 0, 64, 60
2,34177, Note_on_c, 0, 51, 0
2,34198, Note_on_c, 0, 50, 55
2,34311, Note_on_c, 0, 50, 0
2,34312, Note_on_c, 0, 51, 71
2,34331, Note_on_c, 0, 67, 60
2,34340, Note_on_c, 0, 51, 0
2,34557, Note_on_c, 0, 55, 73
2,34566, Control_c, 0, 64, 61
2,34587, Note_on_c, 0, 55, 0
2,34657, Control_c, 0, 64, 60
2,34817, Note_on_c, 0, 75, 85
2,34819, Note_on_c, 0, 48, 70
2,34872, Note_on_c, 0, 67, 0
2,34890, Note_on_c, 0, 70, 0
2,35061, Control_c, 0, 64, 60
2,35070, Note_on_c, 0, 67, 66
2,35153, Control_c, 0, 64, 59
2,35157, Note_on_c, 0, 67, 0
2,35164, Note_on_c, 0, 65, 60
2,35270, Note_on_c, 0, 60, 75
2,35274, Note_on_c, 0, 67, 75
2,35279, Note_on_c, 0, 65, 0
2,35308, Note_on_c, 0, 67, 0
2,35319, Control_c, 0, 64, 60
2,35322, Note_on_c, 0, 75, 0
2,35332, Note_on_c, 0, 48, 0
2,35507, Note_on_c, 0, 75, 87
2,35508, Note_on_c, 0, 69, 79
2,35532, Note_on_c, 0, 69, 0
2,35566, Note_on_c, 0, 75, 0
2,35747, Note_on_c, 0, 82, 86
2,35753, Note_on_c, 0, 58, 75
2,35756, Note_on_c, 0, 74, 72
2,35757, Note_on_c, 0, 70, 82
2,35771, Note_on_c, 0, 60, 0
2,35784, Note_on_c, 0, 58, 0
2,35811, Note_on_c, 0, 74, 0
2,35829, Control_c, 0, 64, 60
2,35859, Control_c, 0, 64, 61
2,35974, Note_on_c, 0, 79, 74
2,35978, Note_on_c, 0, 62, 68
2,35985, Note_on_c, 0, 58, 71
2,35995, Control_c, 0, 64, 60
2,36031, Note_on_c, 0, 62, 0
2,36056, Control_c, 0, 64, 61
2,36077, Note_on_c, 0, 58, 0
2,36080, Note_on_c, 0, 60, 74
2,36083, Note_on_c, 0, 56, 67
2,36121, Note_on_c, 0, 82, 0
2,36177, Control_c, 0, 64, 61
2,36188, Note_on_c, 0, 58, 77
2,36196, Note_on_c, 0, 62, 80
2,36197, Note_on_c, 0, 56, 0
2,36199, Note_on_c, 0, 70, 0
2,36202, Note_on_c, 0, 60, 0
2,36221, Note_on_c, 0, 62, 0
2,36236, Note_on_c, 0, 58, 0
2,36251, Note_on_c, 0, 79, 0
2,36315, Control_c, 0, 64, 62
2,36382, Control_c, 0, 64, 61
2,36429, Note_on_c, 0, 80, 84
2,36431, Note_on_c, 0, 62, 74
2,36433, Note_on_c, 0, 77, 81
2,36434, Note_on_c, 0, 65, 73
2,36460, Note_on_c, 0, 65, 0
2,36464, Note_on_c, 0, 62, 0
2,36479, Note_on_c, 0, 77, 0
2,36513, Note_on_c, 0, 80, 0
2,36660, Note_on_c, 0, 79, 82
2,36670, Note_on_c, 0, 75, 80
2,36671, Note_on_c, 0, 67, 73
2,36676, Note_on_c, 0, 63, 72
2,36688, Control_c, 0, 64, 62
2,36693, Note_on_c, 0, 75, 0
2,36709, Note_on_c, 0, 79, 0
2,36714, Note_on_c, 0, 67, 0
2,36794, Control_c, 0, 64, 62
2,36885, Control_c, 0, 64, 62
2,36905, Note_on_c, 0, 84, 89
2,36906, Note_on_c, 0, 67, 73
2,36918, Note_on_c, 0, 75, 76
2,36990, Note_on_c, 0, 75, 0
2,37015, Note_on_c, 0, 65, 73
2,37019, Note_on_c, 0, 74, 77
2,37021, Control_c, 0, 64, 62
2,37021, Note_on_c, 0, 63, 0
2,37021, Note_on_c, 0, 67, 0
2,37106, Control_c, 0, 64, 62
2,37118, Note_on_c, 0, 65, 0
2,37125, Note_on_c, 0, 75, 83
2,37129, Note_on_c, 0, 67, 80
2,37131, Note_on_c, 0, 74, 0
2,37135, Control_c, 0, 64, 61
2,37159, Note_on_c, 0, 75, 0
2,37211, Control_c, 0, 64, 61
2,37242, Control_c, 0, 64, 61
2,37304, Control_c, 0, 64, 61
2,37359, Note_on_c, 0, 82, 88
2,37365, Note_on_c, 0, 64, 79
2,37366, Note_on_c, 0, 79, 76
2,37389, Note_on_c, 0, 84, 0
2,37406, Note_on_c, 0, 64, 0
2,37410, Control_c, 0, 64, 61
2,37415, Note_on_c, 0, 79, 0
2,37592, Note_on_c, 0, 80, 80
2,37594, Note_on_c, 0, 65, 81
2,37602, Note_on_c, 0, 67, 0
2,37602, Note_on_c, 0, 72, 70
2,37617, Note_on_c, 0, 65, 0
2,37618, Note_on_c, 0, 82, 0
2,37636, Note_on_c, 0, 72, 0
2,37694, Note_on_c, 0, 80, 0
2,37805, Control_c, 0, 64, 61
2,37814, Note_on_c, 0, 80, 81
2,37824, Note_on_c, 0, 60, 82
2,37828, Note_on_c, 0, 53, 78
2,37829, Note_on_c, 0, 77, 86
2,37875, Note_on_c, 0, 60, 0
2,37900, Note_on_c, 0, 53, 0
2,37918, Note_on_c, 0, 52, 68
2,37935, Note_on_c, 0, 79, 79
2,37958, Note_on_c, 0, 80, 0
2,37964, Control_c, 0, 64, 60
2,38012, Note_on_c, 0, 52, 0
2,38035, Note_on_c, 0, 53, 71
2,38037, Note_on_c, 0, 65, 84
2,38037, Note_on_c, 0, 80, 87
2,38040, Control_c, 0, 64, 61
2,38041, Note_on_c, 0, 79, 0
2,38048, Note_on_c, 0, 77, 0
2,38085, Note_on_c, 0, 53, 0
2,38094, Note_on_c, 0, 80, 0
2,38272, Note_on_c, 0, 84, 87
2,38275, Note_on_c, 0, 57, 83
2,38282, Note_on_c, 0, 75, 85
2,38316, Control_c, 0, 64, 61
2,38319, Note_on_c, 0, 75, 0
2,38320, Note_on_c, 0, 57, 0
2,38330, Note_on_c, 0, 84, 0
2,38452, Control_c, 0, 64, 61
2,38505, Note_on_c, 0, 77, 92
2,38507, Note_on_c, 0, 58, 84
2,38511, Note_on_c, 0, 74, 81
2,38523, Note_on_c, 0, 65, 0
2,38536, Note_on_c, 0, 74, 0
2,38550, Note_on_c, 0, 77, 0
2,38733, Control_c, 0, 64, 60
2,38736, Note_on_c, 0, 82, 91
2,38749, Control_c, 0, 64, 61
2,38752, Note_on_c, 0, 65, 76
2,38763, Note_on_c, 0, 74, 73
2,38800, Note_on_c, 0, 74, 0
2,38840, Control_c, 0, 64, 61
2,38846, Note_on_c, 0, 63, 76
2,38855, Note_on_c, 0, 65, 0
2,38855, Note_on_c, 0, 72, 72
2,38870, Control_c, 0, 64, 62
2,38892, Note_on_c, 0, 58, 0
2,38901, Control_c, 0, 64, 62
2,38959, Note_on_c, 0, 74, 77
2,38962, Control_c, 0, 64, 62
2,38966, Note_on_c, 0, 65, 83
2,38966, Note_on_c, 0, 72, 0
2,38969, Note_on_c, 0, 63, 0
2,38992, Note_on_c, 0, 74, 0
2,39008, Control_c, 0, 64, 61
2,39200, Note_on_c, 0, 80, 87
2,39207, Note_on_c, 0, 62, 74
2,39213, Note_on_c, 0, 77, 79
2,39232, Note_on_c, 0, 82, 0
2,39258, Note_on_c, 0, 62, 0
2,39259, Note_on_c, 0, 77, 0
2,39432, Note_on_c, 0, 79, 85
2,39445, Note_on_c, 0, 70, 84
2,39446, Note_on_c, 0, 63, 83
2,39448, Note_on_c, 0, 65, 0
2,39455, Control_c, 0, 64, 62
2,39466, Note_on_c, 0, 80, 0
2,39475, Note_on_c, 0, 70, 0
2,39484, Note_on_c, 0, 79, 0
2,39531, Control_c, 0, 64, 61
2,39594, Note_on_c, 0, 78, 16
2,39608, Control_c, 0, 64, 61
2,39639, Control_c, 0, 64, 60
2,39645, Note_on_c, 0, 78, 0
2,39653, Control_c, 0, 64, 60
2,39665, Note_on_c, 0, 63, 0
2,39666, Note_on_c, 0, 51, 70
2,39666, Note_on_c, 0, 58, 72
2,39677, Note_on_c, 0, 79, 83
2,39679, Note_on_c, 0, 70, 81
2,39711, Note_on_c, 0, 58, 0
2,39712, Note_on_c, 0, 70, 0
2,39715, Control_c, 0, 64, 60
2,39772, Note_on_c, 0, 79, 0
2,39778, Note_on_c, 0, 77, 75
2,39791, Note_on_c, 0, 68, 76
2,39825, Note_on_c, 0, 68, 0
2,39836, Control_c, 0, 64, 60
2,39881, Control_c, 0, 64, 60
2,39886, Note_on_c, 0, 51, 0
2,39892, Note_on_c, 0, 63, 85
2,39895, Note_on_c, 0, 79, 82
2,39896, Control_c, 0, 64, 61
2,39900, Note_on_c, 0, 70, 75
2,39902, Note_on_c, 0, 77, 0
2,39926, Note_on_c, 0, 70, 0
2,39941, Control_c, 0, 64, 61
2,39952, Note_on_c, 0, 79, 0
2,39972, Control_c, 0, 64, 61
2,39998, Note_on_c, 0, 62, 69
2,40009, Note_on_c, 0, 63, 0
2,40079, Control_c, 0, 64, 61
2,40110, Note_on_c, 0, 82, 80
2,40114, Note_on_c, 0, 62, 0
2,40116, Note_on_c, 0, 60, 75
2,40118, Note_on_c, 0, 74, 74
2,40139, Control_c, 0, 64, 62
2,40151, Note_on_c, 0, 74, 0
2,40171, Note_on_c, 0, 82, 0
2,40208, Note_on_c, 0, 60, 0
2,40221, Note_on_c, 0, 58, 73
2,40269, Control_c, 0, 64, 61
2,40332, Note_on_c, 0, 58, 0
2,40345, Note_on_c, 0, 60, 68
2,40347, Note_on_c, 0, 75, 81
2,40355, Note_on_c, 0, 67, 74
2,40404, Control_c, 0, 64, 62
2,40465, Note_on_c, 0, 67, 0
2,40494, Control_c, 0, 64, 61
2,40497, Note_on_c, 0, 75, 0
2,40569, Note_on_c, 0, 60, 0
2,40571, Control_c, 0, 64, 61
2,40573, Note_on_c, 0, 48, 69
2,40578, Note_on_c, 0, 69, 75
2,40586, Note_on_c, 0, 75, 71
2,40623, Note_on_c, 0, 69, 0
2,40652, Note_on_c, 0, 75, 0
2,40678, Note_on_c, 0, 74, 65
2,40680, Note_on_c, 0, 71, 64
2,40716, Note_on_c, 0, 71, 0
2,40746, Note_on_c, 0, 48, 0
2,40752, Note_on_c, 0, 74, 0
2,40791, Note_on_c, 0, 60, 64
2,40793, Note_on_c, 0, 75, 73
2,40798, Note_on_c, 0, 72, 72
2,40822, Note_on_c, 0, 72, 0
2,40828, Note_on_c, 0, 75, 0
2,40893, Note_on_c, 0, 60, 0
2,40907, Note_on_c, 0, 58, 61
2,41021, Note_on_c, 0, 58, 0
2,41025, Note_on_c, 0, 56, 58
2,41027, Note_on_c, 0, 79, 73
2,41033, Note_on_c, 0, 71, 75
2,41055, Note_on_c, 0, 71, 0
2,41059, Note_on_c, 0, 79, 0
2,41064, Control_c, 0, 64, 61
2,41102, Note_on_c, 0, 56, 0
2,41124, Note_on_c, 0, 55, 55
2,41126, Control_c, 0, 64, 62
2,41247, Control_c, 0, 64, 61
2,41265, Note_on_c, 0, 72, 84
2,41267, Note_on_c, 0, 55, 0
2,41280, Note_on_c, 0, 56, 58
2,41499, Note_on_c, 0, 56, 0
2,41501, Note_on_c, 0, 74, 61
2,41504, Note_on_c, 0, 44, 53
2,41623, Note_on_c, 0, 74, 0
2,41629, Note_on_c, 0, 75, 59
2,41735, Note_on_c, 0, 44, 0
2,41742, Control_c, 0, 64, 61
2,41753, Note_on_c, 0, 77, 72
2,41754, Note_on_c, 0, 56, 59
2,41803, Note_on_c, 0, 72, 0
2,41812, Note_on_c, 0, 75, 0
2,41861, Note_on_c, 0, 71, 70
2,41908, Control_c, 0, 64, 60
2,41966, Note_on_c, 0, 56, 0
2,41966, Note_on_c, 0, 72, 78
2,41969, Note_on_c, 0, 71, 0
2,41976, Note_on_c, 0, 55, 62
2,42000, Control_c, 0, 64, 60
2,42060, Control_c, 0, 64, 59
2,42069, Note_on_c, 0, 55, 0
2,42079, Note_on_c, 0, 72, 0
2,42081, Note_on_c, 0, 74, 73
2,42082, Note_on_c, 0, 53, 57
2,42137, Control_c, 0, 64, 59
2,42173, Note_on_c, 0, 74, 0
2,42191, Note_on_c, 0, 53, 0
2,42193, Note_on_c, 0, 71, 71
2,42196, Note_on_c, 0, 55, 52
2,42225, Note_on_c, 0, 71, 0
2,42352, Control_c, 0, 64, 59
2,42431, Note_on_c, 0, 67, 65
2,42464, Control_c, 0, 64, 60
2,42466, Note_on_c, 0, 67, 0
2,42602, Control_c, 0, 64, 60
2,42678, Note_on_c, 0, 75, 76
2,42686, Note_on_c, 0, 72, 73
2,42716, Note_on_c, 0, 77, 0
2,42784, Control_c, 0, 64, 61
2,42786, Note_on_c, 0, 74, 79
2,42795, Note_on_c, 0, 75, 0
2,42875, Control_c, 0, 64, 60
2,42889, Note_on_c, 0, 75, 85
2,42891, Note_on_c, 0, 74, 0
2,42936, Control_c, 0, 64, 60
2,42988, Note_on_c, 0, 77, 79
2,42998, Control_c, 0, 64, 59
2,43000, Note_on_c, 0, 75, 0
2,43105, Note_on_c, 0, 74, 80
2,43114, Note_on_c, 0, 77, 0
2,43137, Note_on_c, 0, 74, 0
2,43187, Note_on_c, 0, 55, 0
2,43220, Note_on_c, 0, 53, 54
2,43352, Note_on_c, 0, 79, 78
2,43363, Note_on_c, 0, 55, 59
2,43364, Note_on_c, 0, 53, 0
2,43405, Note_on_c, 0, 72, 0
2,43469, Note_on_c, 0, 56, 59
2,43475, Note_on_c, 0, 55, 0
2,43491, Control_c, 0, 64, 60
2,43579, Note_on_c, 0, 56, 0
2,43584, Note_on_c, 0, 55, 62
2,43587, Note_on_c, 0, 70, 59
2,43685, Note_on_c, 0, 55, 0
2,43690, Note_on_c, 0, 53, 63
2,43690, Note_on_c, 0, 79, 0
2,43814, Note_on_c, 0, 53, 0
2,43816, Note_on_c, 0, 52, 57
2,43817, Note_on_c, 0, 77, 74
2,43844, Control_c, 0, 64, 60
2,43913, Note_on_c, 0, 52, 0
2,43921, Note_on_c, 0, 50, 53
2,44044, Note_on_c, 0, 50, 0
2,44062, Note_on_c, 0, 76, 64
2,44063, Note_on_c, 0, 48, 56
2,44069, Note_on_c, 0, 77, 0
2,44098, Note_on_c, 0, 76, 0
2,44201, Control_c, 0, 64, 61
2,44291, Control_c, 0, 64, 61
2,44296, Note_on_c, 0, 72, 64
2,44320, Note_on_c, 0, 70, 0
2,44326, Note_on_c, 0, 72, 0
2,44337, Control_c, 0, 64, 62
2,44412, Control_c, 0, 64, 62
2,44543, Note_on_c, 0, 77, 66
2,44549, Note_on_c, 0, 68, 66
2,44642, Note_on_c, 0, 67, 68
2,44645, Note_on_c, 0, 68, 0
2,44732, Control_c, 0, 64, 62
2,44753, Note_on_c, 0, 67, 0
2,44762, Note_on_c, 0, 68, 69
2,44786, Control_c, 0, 64, 61
2,44831, Control_c, 0, 64, 61
2,44862, Note_on_c, 0, 70, 65
2,44876, Control_c, 0, 64, 60
2,44877, Note_on_c, 0, 68, 0
2,44952, Note_on_c, 0, 70, 0
2,44973, Note_on_c, 0, 67, 69
2,44999, Note_on_c, 0, 67, 0
2,45041, Note_on_c, 0, 48, 0
2,45044, Control_c, 0, 64, 60
2,45085, Note_on_c, 0, 46, 47
2,45089, Control_c, 0, 64, 59
2,45209, Note_on_c, 0, 46, 0
2,45209, Note_on_c, 0, 72, 76
2,45215, Note_on_c, 0, 48, 56
2,45240, Note_on_c, 0, 77, 0
2,45313, Note_on_c, 0, 48, 0
2,45316, Note_on_c, 0, 50, 56
2,45398, Note_on_c, 0, 50, 0
2,45434, Note_on_c, 0, 48, 63
2,45442, Note_on_c, 0, 75, 63
2,45516, Note_on_c, 0, 48, 0
2,45548, Note_on_c, 0, 46, 53
2,45667, Note_on_c, 0, 46, 0
2,45668, Note_on_c, 0, 72, 0
2,45669, Note_on_c, 0, 45, 49
2,45673, Note_on_c, 0, 70, 61
2,45753, Note_on_c, 0, 45, 0
2,45774, Note_on_c, 0, 43, 53
2,45884, Note_on_c, 0, 43, 0
2,45907, Note_on_c, 0, 69, 61
2,45909, Note_on_c, 0, 41, 46
2,45912, Note_on_c, 0, 70, 0
2,45941, Note_on_c, 0, 69, 0
2,45979, Control_c, 0, 64, 60
2,46152, Note_on_c, 0, 65, 55
2,46185, Note_on_c, 0, 65, 0
2,46207, Control_c, 0, 64, 60
2,46299, Control_c, 0, 64, 61
2,46380, Control_c, 0, 64, 61
2,46398, Note_on_c, 0, 70, 59
2,46399, Note_on_c, 0, 74, 70
2,46426, Note_on_c, 0, 75, 0
2,46488, Control_c, 0, 64, 62
2,46507, Note_on_c, 0, 72, 80
2,46528, Note_on_c, 0, 74, 0
2,46610, Note_on_c, 0, 74, 76
2,46625, Note_on_c, 0, 72, 0
2,46699, Control_c, 0, 64, 61
2,46710, Note_on_c, 0, 75, 79
2,46727, Note_on_c, 0, 74, 0
2,46833, Note_on_c, 0, 72, 75
2,46845, Note_on_c, 0, 75, 0
2,46868, Note_on_c, 0, 72, 0
2,46907, Note_on_c, 0, 41, 0
2,46912, Control_c, 0, 64, 61
2,46945, Note_on_c, 0, 51, 65
2,46987, Control_c, 0, 64, 60
2,47062, Note_on_c, 0, 77, 71
2,47063, Note_on_c, 0, 51, 0
2,47090, Note_on_c, 0, 53, 57
2,47133, Note_on_c, 0, 70, 0
2,47194, Note_on_c, 0, 53, 0
2,47212, Note_on_c, 0, 55, 50
2,47306, Note_on_c, 0, 55, 0
2,47310, Note_on_c, 0, 68, 64
2,47324, Note_on_c, 0, 53, 63
2,47365, Note_on_c, 0, 77, 0
2,47423, Note_on_c, 0, 51, 64
2,47429, Note_on_c, 0, 53, 0
2,47505, Note_on_c, 0, 51, 0
2,47539, Note_on_c, 0, 50, 57
2,47542, Note_on_c, 0, 75, 65
2,47646, Note_on_c, 0, 50, 0
2,47664, Note_on_c, 0, 48, 50
2,47771, Note_on_c, 0, 48, 0
2,47781, Note_on_c, 0, 74, 58
2,47786, Note_on_c, 0, 46, 47
2,47787, Note_on_c, 0, 75, 0
2,47834, Note_on_c, 0, 74, 0
2,48025, Note_on_c, 0, 70, 64
2,48068, Note_on_c, 0, 70, 0
2,48267, Note_on_c, 0, 68, 0
2,48277, Note_on_c, 0, 75, 59
2,48279, Note_on_c, 0, 67, 54
2,48359, Note_on_c, 0, 67, 0
2,48372, Note_on_c, 0, 65, 60
2,48477, Note_on_c, 0, 65, 0
2,48487, Note_on_c, 0, 67, 56
2,48587, Note_on_c, 0, 67, 0
2,48596, Note_on_c, 0, 68, 54
2,48705, Note_on_c, 0, 68, 0
2,48720, Note_on_c, 0, 65, 57
2,48758, Note_on_c, 0, 65, 0
2,48785, Note_on_c, 0, 46, 0
2,48812, Note_on_c, 0, 56, 53
2,48820, Control_c, 0, 64, 60
2,48925, Note_on_c, 0, 56, 0
2,48940, Note_on_c, 0, 70, 54
2,48941, Note_on_c, 0, 58, 54
2,48955, Note_on_c, 0, 75, 0
2,48958, Control_c, 0, 64, 60
2,49026, Note_on_c, 0, 58, 0
2,49052, Note_on_c, 0, 60, 47
2,49158, Note_on_c, 0, 60, 0
2,49168, Note_on_c, 0, 58, 68
2,49171, Note_on_c, 0, 73, 63
2,49297, Note_on_c, 0, 56, 56
2,49352, Note_on_c, 0, 58, 0
2,49411, Note_on_c, 0, 68, 54
2,49422, Note_on_c, 0, 55, 62
2,49422, Note_on_c, 0, 56, 0
2,49444, Note_on_c, 0, 70, 0
2,49520, Note_on_c, 0, 55, 0
2,49545, Note_on_c, 0, 53, 50
2,49619, Control_c, 0, 64, 61
2,49649, Note_on_c, 0, 53, 0
2,49655, Note_on_c, 0, 70, 63
2,49659, Note_on_c, 0, 68, 0
2,49663, Note_on_c, 0, 63, 67
2,49664, Control_c, 0, 64, 61
2,49664, Note_on_c, 0, 55, 58
2,49675, Note_on_c, 0, 73, 0
2,49867, Note_on_c, 0, 55, 0
2,49889, Note_on_c, 0, 70, 0
2,49906, Note_on_c, 0, 56, 55
2,49918, Note_on_c, 0, 72, 51
2,49923, Note_on_c, 0, 68, 41
2,49985, Control_c, 0, 64, 61
2,50114, Note_on_c, 0, 63, 0
2,50133, Note_on_c, 0, 72, 0
2,50143, Note_on_c, 0, 70, 61
2,50153, Note_on_c, 0, 56, 0
2,50157, Note_on_c, 0, 50, 48
2,50178, Note_on_c, 0, 68, 0
2,50397, Note_on_c, 0, 67, 62
2,50399, Note_on_c, 0, 52, 51
2,50403, Note_on_c, 0, 70, 0
2,50407, Note_on_c, 0, 50, 0
2,50407, Note_on_c, 0, 61, 55
2,50472, Note_on_c, 0, 61, 0
2,50627, Note_on_c, 0, 52, 0
2,50651, Note_on_c, 0, 68, 65
2,50652, Note_on_c, 0, 60, 62
2,50654, Note_on_c, 0, 53, 48
2,50661, Control_c, 0, 64, 60
2,50664, Note_on_c, 0, 67, 0
2,50741, Note_on_c, 0, 60, 0
2,50767, Control_c, 0, 64, 60
2,50878, Note_on_c, 0, 68, 0
2,50886, Note_on_c, 0, 65, 69
2,51015, Note_on_c, 0, 67, 49
2,51123, Note_on_c, 0, 67, 0
2,51124, Control_c, 0, 64, 60
2,51125, Note_on_c, 0, 68, 66
2,51232, Control_c, 0, 64, 61
2,51235, Note_on_c, 0, 53, 0
2,51242, Note_on_c, 0, 51, 54
2,51338, Note_on_c, 0, 65, 0
2,51341, Note_on_c, 0, 51, 0
2,51356, Note_on_c, 0, 63, 66
2,51358, Note_on_c, 0, 49, 55
2,51383, Control_c, 0, 64, 61
2,51439, Note_on_c, 0, 49, 0
2,51469, Note_on_c, 0, 48, 48
2,51475, Control_c, 0, 64, 62
2,51575, Note_on_c, 0, 63, 0
2,51597, Note_on_c, 0, 61, 66
2,51602, Note_on_c, 0, 48, 0
2,51611, Control_c, 0, 64, 62
2,51611, Note_on_c, 0, 46, 45
2,51636, Note_on_c, 0, 61, 0
2,51725, Control_c, 0, 64, 63
2,51851, Note_on_c, 0, 68, 0
2,51856, Note_on_c, 0, 61, 64
2,51860, Note_on_c, 0, 65, 59
2,51959, Note_on_c, 0, 61, 0
2,51978, Note_on_c, 0, 60, 67
2,52084, Note_on_c, 0, 61, 69
2,52091, Note_on_c, 0, 60, 0
2,52091, Note_on_c, 0, 70, 75
2,52099, Note_on_c, 0, 46, 0
2,52117, Note_on_c, 0, 65, 0
2,52138, Note_on_c, 0, 61, 0
2,52202, Note_on_c, 0, 46, 57
2,52284, Note_on_c, 0, 46, 0
2,52321, Note_on_c, 0, 48, 59
2,52326, Note_on_c, 0, 70, 0
2,52328, Note_on_c, 0, 68, 79
2,52330, Note_on_c, 0, 65, 70
2,52437, Note_on_c, 0, 48, 0
2,52455, Note_on_c, 0, 49, 54
2,52523, Note_on_c, 0, 65, 0
2,52557, Note_on_c, 0, 49, 0
2,52570, Note_on_c, 0, 67, 65
2,52572, Note_on_c, 0, 68, 0
2,52576, Note_on_c, 0, 51, 61
2,52578, Note_on_c, 0, 58, 77
2,52613, Note_on_c, 0, 67, 0
2,52630, Control_c, 0, 64, 63
2,52673, Note_on_c, 0, 58, 0
2,52819, Note_on_c, 0, 63, 69
2,52822, Note_on_c, 0, 67, 69
2,52943, Note_on_c, 0, 65, 70
2,52944, Note_on_c, 0, 67, 0
2,52990, Note_on_c, 0, 51, 0
2,53058, Note_on_c, 0, 67, 72
2,53061, Note_on_c, 0, 65, 0
2,53174, Note_on_c, 0, 39, 54
2,53300, Note_on_c, 0, 41, 62
2,53302, Note_on_c, 0, 70, 74
2,53304, Note_on_c, 0, 61, 72
2,53323, Note_on_c, 0, 67, 0
2,53328, Note_on_c, 0, 63, 0
2,53380, Note_on_c, 0, 39, 0
2,53415, Note_on_c, 0, 43, 68
2,53434, Note_on_c, 0, 41, 0
2,53461, Note_on_c, 0, 61, 0
2,53527, Note_on_c, 0, 44, 72
2,53534, Note_on_c, 0, 43, 0
2,53535, Note_on_c, 0, 60, 74
2,53540, Note_on_c, 0, 63, 74
2,53549, Note_on_c, 0, 70, 0
2,53550, Control_c, 0, 64, 63
2,53589, Note_on_c, 0, 60, 0
2,53625, Note_on_c, 0, 44, 0
2,53628, Control_c, 0, 64, 62
2,53642, Note_on_c, 0, 46, 66
2,53692, Note_on_c, 0, 46, 0
2,53704, Control_c, 0, 64, 62
2,53755, Note_on_c, 0, 48, 75
2,53760, Note_on_c, 0, 68, 77
2,53763, Note_on_c, 0, 60, 78
2,53770, Note_on_c, 0, 63, 0
2,53835, Note_on_c, 0, 48, 0
2,53859, Note_on_c, 0, 50, 70
2,53875, Note_on_c, 0, 60, 0
2,53881, Note_on_c, 0, 58, 68
2,53946, Note_on_c, 0, 50, 0
2,53950, Note_on_c, 0, 58, 0
2,53963, Control_c, 0, 64, 61
2,53986, Note_on_c, 0, 51, 85
2,53996, Note_on_c, 0, 60, 83
2,54042, Note_on_c, 0, 60, 0
2,54213, Control_c, 0, 64, 62
2,54223, Note_on_c, 0, 68, 0
2,54234, Note_on_c, 0, 67, 73
2,54240, Note_on_c, 0, 63, 76
2,54272, Note_on_c, 0, 63, 0
2,54320, Control_c, 0, 64, 62
2,54380, Control_c, 0, 64, 63
2,54488, Control_c, 0, 64, 63
2,54491, Note_on_c, 0, 70, 91
2,54495, Note_on_c, 0, 65, 68
2,54501, Note_on_c, 0, 56, 76
2,54533, Note_on_c, 0, 67, 0
2,54549, Note_on_c, 0, 65, 0
2,54574, Note_on_c, 0, 56, 0
2,54639, Control_c, 0, 64, 63
2,54685, Control_c, 0, 64, 62
2,54699, Control_c, 0, 64, 62
2,54715, Control_c, 0, 64, 61
2,54718, Note_on_c, 0, 56, 67
2,54727, Note_on_c, 0, 65, 73
2,54767, Note_on_c, 0, 51, 0
2,54827, Note_on_c, 0, 56, 0
2,54832, Note_on_c, 0, 55, 68
2,54844, Note_on_c, 0, 63, 65
2,54844, Note_on_c, 0, 65, 0
2,54859, Control_c, 0, 64, 62
2,54950, Note_on_c, 0, 63, 0
2,54954, Note_on_c, 0, 55, 0
2,54957, Note_on_c, 0, 50, 64
2,54960, Note_on_c, 0, 56, 70
2,54966, Control_c, 0, 64, 61
2,54966, Note_on_c, 0, 65, 81
2,55181, Note_on_c, 0, 65, 0
2,55185, Note_on_c, 0, 56, 0
2,55200, Note_on_c, 0, 58, 77
2,55204, Note_on_c, 0, 67, 74
2,55254, Note_on_c, 0, 50, 0
2,55295, Note_on_c, 0, 67, 0
2,55300, Note_on_c, 0, 56, 69
2,55316, Note_on_c, 0, 58, 0
2,55318, Note_on_c, 0, 65, 69
2,55347, Control_c, 0, 64, 62
2,55398, Note_on_c, 0, 65, 0
2,55431, Note_on_c, 0, 56, 0
2,55439, Note_on_c, 0, 75, 90
2,55441, Note_on_c, 0, 51, 85
2,55442, Note_on_c, 0, 55, 81
2,55442, Note_on_c, 0, 70, 0
2,55444, Note_on_c, 0, 63, 81
2,55644, Control_c, 0, 64, 61
2,55656, Note_on_c, 0, 63, 0
2,55684, Note_on_c, 0, 55, 0
2,55689, Control_c, 0, 64, 61
2,55689, Note_on_c, 0, 58, 76
2,55694, Note_on_c, 0, 67, 68
2,55778, Note_on_c, 0, 58, 0
2,55789, Note_on_c, 0, 56, 75
2,55793, Note_on_c, 0, 65, 67
2,55795, Note_on_c, 0, 67, 0
2,55903, Note_on_c, 0, 58, 86
2,55919, Note_on_c, 0, 67, 77
2,55930, Note_on_c, 0, 56, 0
2,55932, Note_on_c, 0, 65, 0
2,55946, Note_on_c, 0, 75, 0
2,55958, Note_on_c, 0, 58, 0
2,56022, Control_c, 0, 64, 61
2,56147, Note_on_c, 0, 60, 83
2,56147, Note_on_c, 0, 75, 85
2,56151, Note_on_c, 0, 69, 81
2,56171, Note_on_c, 0, 67, 0
2,56197, Note_on_c, 0, 60, 0
2,56210, Note_on_c, 0, 69, 0
2,56258, Note_on_c, 0, 67, 72
2,56349, Note_on_c, 0, 75, 0
2,56373, Note_on_c, 0, 67, 0
2,56397, Note_on_c, 0, 51, 0
2,56398, Note_on_c, 0, 62, 85
2,56399, Note_on_c, 0, 74, 82
2,56402, Note_on_c, 0, 58, 80
2,56406, Note_on_c, 0, 65, 83
2,56411, Control_c, 0, 64, 62
2,56442, Control_c, 0, 64, 62
2,56446, Note_on_c, 0, 62, 0
2,56458, Note_on_c, 0, 74, 0
2,56609, Control_c, 0, 64, 62
2,56633, Note_on_c, 0, 65, 0
2,56639, Note_on_c, 0, 79, 84
2,56641, Note_on_c, 0, 62, 75
2,56647, Note_on_c, 0, 70, 77
2,56732, Note_on_c, 0, 60, 73
2,56751, Note_on_c, 0, 70, 0
2,56754, Note_on_c, 0, 68, 78
2,56764, Note_on_c, 0, 62, 0
2,56776, Control_c, 0, 64, 62
2,56861, Note_on_c, 0, 62, 88
2,56861, Note_on_c, 0, 70, 79
2,56868, Note_on_c, 0, 68, 0
2,56870, Note_on_c, 0, 58, 0
2,56886, Note_on_c, 0, 60, 0
2,56897, Control_c, 0, 64, 63
2,56908, Note_on_c, 0, 62, 0
2,56908, Note_on_c, 0, 70, 0
2,57101, Note_on_c, 0, 79, 0
2,57102, Note_on_c, 0, 56, 74
2,57102, Note_on_c, 0, 65, 83
2,57102, Note_on_c, 0, 77, 87
2,57106, Note_on_c, 0, 74, 83
2,57157, Note_on_c, 0, 65, 0
2,57162, Note_on_c, 0, 56, 0
2,57339, Note_on_c, 0, 55, 83
2,57347, Note_on_c, 0, 75, 82
2,57349, Note_on_c, 0, 70, 79
2,57351, Note_on_c, 0, 74, 0
2,57353, Note_on_c, 0, 77, 0
2,57369, Note_on_c, 0, 55, 0
2,57403, Note_on_c, 0, 75, 0
2,57469, Control_c, 0, 64, 63
2,57583, Note_on_c, 0, 72, 80
2,57585, Note_on_c, 0, 67, 79
2,57585, Note_on_c, 0, 75, 81
2,57587, Note_on_c, 0, 60, 86
2,57605, Control_c, 0, 64, 63
2,57614, Note_on_c, 0, 70, 0
2,57692, Note_on_c, 0, 74, 78
2,57709, Note_on_c, 0, 67, 0
2,57711, Note_on_c, 0, 75, 0
2,57754, Note_on_c, 0, 72, 0
2,57811, Note_on_c, 0, 63, 83
2,57815, Note_on_c, 0, 74, 0
2,57817, Note_on_c, 0, 75, 81
2,57819, Note_on_c, 0, 67, 81
2,57847, Note_on_c, 0, 60, 0
2,57873, Control_c, 0, 64, 62
2,57874, Note_on_c, 0, 75, 0
2,58061, Note_on_c, 0, 79, 87
2,58065, Note_on_c, 0, 58, 74
2,58112, Note_on_c, 0, 79, 0
2,58117, Note_on_c, 0, 58, 0
2,58295, Note_on_c, 0, 72, 84
2,58297, Note_on_c, 0, 56, 79
2,58299, Note_on_c, 0, 68, 78
2,58307, Note_on_c, 0, 63, 0
2,58307, Note_on_c, 0, 67, 0
2,58335, Note_on_c, 0, 68, 0
2,58347, Note_on_c, 0, 72, 0
2,58362, Note_on_c, 0, 56, 0
2,58494, Control_c, 0, 64, 62
2,58530, Note_on_c, 0, 56, 73
2,58530, Note_on_c, 0, 77, 90
2,58536, Note_on_c, 0, 60, 71
2,58538, Note_on_c, 0, 68, 86
2,58616, Note_on_c, 0, 60, 0
2,58625, Control_c, 0, 64, 61
2,58645, Note_on_c, 0, 55, 70
2,58646, Note_on_c, 0, 58, 81
2,58659, Note_on_c, 0, 56, 0
2,58725, Note_on_c, 0, 55, 0
2,58747, Control_c, 0, 64, 62
2,58747, Note_on_c, 0, 58, 0
2,58756, Note_on_c, 0, 60, 82
2,58759, Note_on_c, 0, 56, 74
2,58788, Note_on_c, 0, 56, 0
2,58792, Control_c, 0, 64, 62
2,58792, Note_on_c, 0, 60, 0
2,58883, Control_c, 0, 64, 63
2,58959, Control_c, 0, 64, 62
2,58994, Note_on_c, 0, 75, 89
2,58997, Note_on_c, 0, 63, 75
2,58998, Note_on_c, 0, 60, 76
2,59006, Note_on_c, 0, 67, 78
2,59030, Note_on_c, 0, 68, 0
2,59037, Note_on_c, 0, 77, 0
2,59045, Note_on_c, 0, 60, 0
2,59050, Control_c, 0, 64, 62
2,59066, Note_on_c, 0, 63, 0
2,59179, Note_on_c, 0, 67, 0
2,59222, Note_on_c, 0, 74, 82
2,59223, Note_on_c, 0, 68, 74
2,59227, Note_on_c, 0, 65, 75
2,59230, Note_on_c, 0, 53, 72
2,59245, Note_on_c, 0, 75, 0
2,59248, Control_c, 0, 64, 62
2,59254, Note_on_c, 0, 65, 0
2,59268, Note_on_c, 0, 53, 0
2,59276, Note_on_c, 0, 74, 0
2,59354, Control_c, 0, 64, 63
2,59408, Control_c, 0, 64, 62
2,59467, Note_on_c, 0, 74, 81
2,59473, Note_on_c, 0, 62, 59
2,59473, Note_on_c, 0, 65, 75
2,59476, Note_on_c, 0, 58, 62
2,59492, Note_on_c, 0, 68, 0
2,59523, Note_on_c, 0, 65, 0
2,59571, Note_on_c, 0, 72, 78
2,59591, Note_on_c, 0, 74, 0
2,59688, Note_on_c, 0, 72, 0
2,59697, Control_c, 0, 64, 62
2,59697, Note_on_c, 0, 70, 72
2,59697, Note_on_c, 0, 74, 79
2,59700, Note_on_c, 0, 67, 66
2,59702, Note_on_c, 0, 62, 0
2,59719, Note_on_c, 0, 58, 0
2,59746, Note_on_c, 0, 74, 0
2,59914, Note_on_c, 0, 67, 0
2,59932, Note_on_c, 0, 77, 78
2,59939, Note_on_c, 0, 56, 63
2,59939, Note_on_c, 0, 62, 62
2,59942, Note_on_c, 0, 70, 0
2,59990, Note_on_c, 0, 77, 0
2,59998, Note_on_c, 0, 56, 0
2,60092, Control_c, 0, 64, 62
2,60163, Note_on_c, 0, 62, 0
2,60165, Note_on_c, 0, 55, 48
2,60177, Note_on_c, 0, 70, 73
2,60192, Note_on_c, 0, 63, 62
2,60215, Note_on_c, 0, 55, 0
2,60389, Control_c, 0, 64, 62
2,60413, Note_on_c, 0, 55, 59
2,60420, Note_on_c, 0, 75, 78
2,60478, Note_on_c, 0, 63, 0
2,60527, Note_on_c, 0, 53, 64
2,60540, Control_c, 0, 64, 62
2,60545, Note_on_c, 0, 55, 0
2,60651, Note_on_c, 0, 53, 0
2,60654, Note_on_c, 0, 73, 77
2,60659, Note_on_c, 0, 55, 65
2,60674, Note_on_c, 0, 70, 0
2,60685, Note_on_c, 0, 75, 0
2,60688, Note_on_c, 0, 55, 0
2,60708, Control_c, 0, 64, 62
2,60768, Control_c, 0, 64, 61
2,60905, Note_on_c, 0, 58, 64
2,60914, Note_on_c, 0, 65, 69
2,60916, Note_on_c, 0, 68, 68
2,60941, Note_on_c, 0, 58, 0
2,60943, Note_on_c, 0, 65, 0
2,60953, Note_on_c, 0, 68, 0
2,61158, Note_on_c, 0, 51, 54
2,61164, Note_on_c, 0, 63, 59
2,61166, Note_on_c, 0, 67, 70
2,61281, Note_on_c, 0, 51, 0
2,61293, Control_c, 0, 64, 61
2,61305, Note_on_c, 0, 73, 0
2,61394, Note_on_c, 0, 51, 61
2,61395, Note_on_c, 0, 72, 80
2,61445, Control_c, 0, 64, 60
2,61483, Note_on_c, 0, 51, 0
2,61505, Note_on_c, 0, 50, 60
2,61617, Note_on_c, 0, 51, 69
2,61618, Note_on_c, 0, 50, 0
2,61625, Note_on_c, 0, 70, 78
2,61639, Note_on_c, 0, 67, 0
2,61642, Control_c, 0, 64, 61
2,61643, Note_on_c, 0, 72, 0
2,61652, Note_on_c, 0, 51, 0
2,61678, Note_on_c, 0, 63, 0
2,61757, Control_c, 0, 64, 61
2,61866, Note_on_c, 0, 55, 64
2,61874, Note_on_c, 0, 65, 67
2,61876, Note_on_c, 0, 62, 59
2,61895, Note_on_c, 0, 55, 0
2,61908, Note_on_c, 0, 65, 0
2,61910, Note_on_c, 0, 62, 0
2,62125, Note_on_c, 0, 48, 47
2,62129, Note_on_c, 0, 60, 62
2,62131, Note_on_c, 0, 63, 65
2,62205, Note_on_c, 0, 70, 0
2,62356, Note_on_c, 0, 68, 71
2,62370, Note_on_c, 0, 50, 58
2,62396, Control_c, 0, 64, 61
2,62409, Note_on_c, 0, 48, 0
2,62469, Note_on_c, 0, 67, 72
2,62474, Note_on_c, 0, 50, 0
2,62476, Note_on_c, 0, 51, 65
2,62486, Note_on_c, 0, 68, 0
2,62569, Note_on_c, 0, 51, 0
2,62580, Note_on_c, 0, 53, 69
2,62587, Note_on_c, 0, 68, 86
2,62595, Note_on_c, 0, 67, 0
2,62651, Note_on_c, 0, 63, 0
2,62693, Control_c, 0, 64, 60
2,62799, Control_c, 0, 64, 60
2,62816, Note_on_c, 0, 53, 0
2,62837, Note_on_c, 0, 56, 52
2,62839, Note_on_c, 0, 62, 64
2,62841, Note_on_c, 0, 60, 0
2,62946, Note_on_c, 0, 62, 0
2,62954, Note_on_c, 0, 60, 61
2,62966, Control_c, 0, 64, 59
2,63036, Note_on_c, 0, 56, 0
2,63042, Control_c, 0, 64, 60
2,63063, Note_on_c, 0, 46, 50
2,63066, Note_on_c, 0, 53, 52
2,63070, Note_on_c, 0, 62, 66
2,63072, Note_on_c, 0, 60, 0
2,63102, Note_on_c, 0, 62, 0
2,63321, Note_on_c, 0, 58, 66
2,63355, Note_on_c, 0, 58, 0
2,63543, Note_on_c, 0, 46, 0
2,63570, Note_on_c, 0, 66, 67
2,63571, Note_on_c, 0, 45, 48
2,63577, Note_on_c, 0, 63, 62
2,63598, Note_on_c, 0, 68, 0
2,63602, Note_on_c, 0, 53, 0
2,63613, Control_c, 0, 64, 59
2,63658, Control_c, 0, 64, 60
2,63841, Control_c, 0, 64, 60
2,63846, Note_on_c, 0, 60, 83
2,63855, Control_c, 0, 64, 61
2,63871, Control_c, 0, 64, 64
2,63886, Control_c, 0, 64, 69
2,63901, Control_c, 0, 64, 81
2,63916, Note_on_c, 0, 63, 0
2,63917, Control_c, 0, 64, 127
2,64161, Note_on_c, 0, 46, 69
2,64164, Note_on_c, 0, 53, 74
2,64166, Note_on_c, 0, 65, 78
2,64167, Control_c, 0, 64, 90
2,64170, Note_on_c, 0, 63, 74
2,64182, Control_c, 0, 64, 67
2,64194, Note_on_c, 0, 45, 0
2,64198, Control_c, 0, 64, 45
2,64200, Note_on_c, 0, 66, 0
2,64213, Control_c, 0, 64, 0
2,64218, Note_on_c, 0, 60, 0
2,64258, Control_c, 0, 64, 32
2,64274, Control_c, 0, 64, 59
2,64290, Control_c, 0, 64, 71
2,64305, Control_c, 0, 64, 93
2,64320, Control_c, 0, 64, 127
2,64356, Note_on_c, 0, 53, 0
2,64467, Note_on_c, 0, 53, 75
2,64563, Control_c, 0, 64, 112
2,64578, Control_c, 0, 64, 103
2,64594, Control_c, 0, 64, 97
2,64596, Note_on_c, 0, 51, 77
2,64609, Control_c, 0, 64, 91
2,64618, Note_on_c, 0, 53, 0
2,64623, Control_c, 0, 64, 86
2,64639, Control_c, 0, 64, 82
2,64654, Control_c, 0, 64, 80
2,64670, Control_c, 0, 64, 77
2,64685, Control_c, 0, 64, 76
2,64699, Control_c, 0, 64, 74
2,64715, Control_c, 0, 64, 72
2,64730, Control_c, 0, 64, 69
2,64753, Control_c, 0, 64, 67
2,64768, Control_c, 0, 64, 66
2,64771, Note_on_c, 0, 62, 77
2,64774, Note_on_c, 0, 53, 85
2,64783, Control_c, 0, 64, 65
2,64799, Control_c, 0, 64, 64
2,64812, Note_on_c, 0, 63, 0
2,64814, Control_c, 0, 64, 63
2,64827, Note_on_c, 0, 51, 0
2,64829, Control_c, 0, 64, 62
2,64844, Control_c, 0, 64, 60
2,64859, Control_c, 0, 64, 57
2,64875, Control_c, 0, 64, 55
2,64890, Control_c, 0, 64, 54
2,64905, Control_c, 0, 64, 52
2,64920, Control_c, 0, 64, 50
2,64935, Control_c, 0, 64, 49
2,64936, Note_on_c, 0, 53, 0
2,64950, Control_c, 0, 64, 48
2,64965, Control_c, 0, 64, 47
2,64980, Control_c, 0, 64, 47
2,64996, Control_c, 0, 64, 46
2,65011, Control_c, 0, 64, 46
2,65088, Control_c, 0, 64, 45
2,65103, Control_c, 0, 64, 45
2,65119, Control_c, 0, 64, 41
2,65133, Control_c, 0, 64, 31
2,65150, Control_c, 0, 64, 0
2,65195, Note_on_c, 0, 58, 86
2,65241, Control_c, 0, 64, 56
2,65256, Control_c, 0, 64, 81
2,65271, Control_c, 0, 64, 127
2,65349, Note_on_c, 0, 65, 0
2,65421, Note_on_c, 0, 58, 0
2,65967, Note_on_c, 0, 55, 75
2,65973, Control_c, 0, 64, 86
2,65976, Note_on_c, 0, 58, 59
2,65977, Note_on_c, 0, 63, 68
2,65982, Note_on_c, 0, 39, 57
2,65984, Control_c, 0, 64, 67
2,65993, Note_on_c, 0, 62, 0
2,65999, Control_c, 0, 64, 56
2,66000, Note_on_c, 0, 46, 0
2,66015, Control_c, 0, 64, 50
2,66053, Control_c, 0, 64, 49
2,66068, Control_c, 0, 64, 48
2,66115, Control_c, 0, 64, 49
2,66160, Control_c, 0, 64, 49
2,66175, Control_c, 0, 64, 50
2,66190, Control_c, 0, 64, 51
2,66205, Control_c, 0, 64, 51
2,66236, Control_c, 0, 64, 51
2,66349, Control_c, 0, 64, 51
2,66365, Control_c, 0, 64, 52
2,66441, Control_c, 0, 64, 52
2,66471, Control_c, 0, 64, 53
2,66653, Control_c, 0, 64, 53
2,66729, Control_c, 0, 64, 54
2,66775, Control_c, 0, 64, 54
2,66866, Control_c, 0, 64, 55
2,66942, Control_c, 0, 64, 55
2,67018, Control_c, 0, 64, 56
2,67082, Control_c, 0, 64, 56
2,67143, Control_c, 0, 64, 57
2,67219, Control_c, 0, 64, 57
2,67355, Control_c, 0, 64, 58
2,67385, Control_c, 0, 64, 58
2,67505, Control_c, 0, 64, 59
2,67878, Control_c, 0, 64, 59
2,68291, Note_on_c, 0, 55, 0
2,68312, Note_on_c, 0, 39, 0
2,68318, Note_on_c, 0, 63, 0
2,68345, Note_on_c, 0, 58, 0
2,69039, Control_c, 0, 64, 59
2,69040, End_track
0, 0, End_of_file
