0, 0, Header, 1, 2, 384
1, 0, Start_track
1, 0, Tempo, 500000
1, 0, Time_signature, 4, 2, 24, 8
1, 1, End_track
2, 0, Start_track
2, 0, Program_c, 0, 0
2, 0, Control_c, 0, 64, 39
2, 0, Control_c, 0, 66, 0
2, 0, Control_c, 0, 67, 0
2, 1, Control_c, 0, 64, 40
2, 215, Control_c, 0, 64, 39
2, 231, Control_c, 0, 64, 39
2, 246, Control_c, 0, 64, 38
2, 291, Control_c, 0, 64, 38
2, 557, Control_c, 0, 64, 38
2, 602, Control_c, 0, 64, 39
2, 790, Note_on_c, 0, 70, 62
2, 798, Note_on_c, 0, 67, 54
2, 807, Control_c, 0, 64, 38
2, 822, Control_c, 0, 64, 38
2, 929, Control_c, 0, 64, 37
2, 986, Note_on_c, 0, 63, 50
2, 1006, Control_c, 0, 64, 37
2, 1021, Control_c, 0, 64, 36
2, 1130, Note_on_c, 0, 62, 67
2, 1147, Note_on_c, 0, 63, 0
2, 1158, Control_c, 0, 64, 36
2, 1173, Control_c, 0, 64, 35
2, 1272, Control_c, 0, 64, 35
2, 1293, Note_on_c, 0, 62, 0
2, 1307, Note_on_c, 0, 63, 70
2, 1356, Note_on_c, 0, 63, 0
2, 1378, Control_c, 0, 64, 34
2, 1409, Control_c, 0, 64, 33
2, 1423, Control_c, 0, 64, 32
2, 1432, Note_on_c, 0, 67, 0
2, 1439, Control_c, 0, 64, 32
2, 1458, Note_on_c, 0, 58, 70
2, 1470, Note_on_c, 0, 70, 0
2, 1484, Control_c, 0, 64, 31
2, 1499, Control_c, 0, 64, 30
2, 1515, Control_c, 0, 64, 30
2, 1528, Note_on_c, 0, 58, 0
2, 1530, Control_c, 0, 64, 29
2, 1544, Control_c, 0, 64, 29
2, 1560, Control_c, 0, 64, 28
2, 1575, Control_c, 0, 64, 27
2, 1589, Control_c, 0, 64, 25
2, 1598, Note_on_c, 0, 55, 69
2, 1605, Control_c, 0, 64, 24
2, 1620, Control_c, 0, 64, 21
2, 1636, Control_c, 0, 64, 19
2, 1651, Control_c, 0, 64, 17
2, 1666, Control_c, 0, 64, 15
2, 1669, Note_on_c, 0, 55, 0
2, 1681, Control_c, 0, 64, 10
2, 1696, Control_c, 0, 64, 0
2, 1758, Note_on_c, 0, 51, 67
2, 1892, Note_on_c, 0, 51, 0
2, 1904, Note_on_c, 0, 67, 75
2, 2052, Note_on_c, 0, 75, 80
2, 2086, Note_on_c, 0, 67, 0
2, 2140, Note_on_c, 0, 75, 0
2, 2207, Note_on_c, 0, 65, 60
2, 2216, Note_on_c, 0, 75, 62
2, 2377, Note_on_c, 0, 74, 63
2, 2381, Note_on_c, 0, 58, 47
2, 2414, Note_on_c, 0, 75, 0
2, 2528, Note_on_c, 0, 57, 62
2, 2531, Note_on_c, 0, 58, 0
2, 2659, Note_on_c, 0, 57, 0
2, 2696, Note_on_c, 0, 58, 63
2, 2725, Note_on_c, 0, 65, 0
2, 2742, Note_on_c, 0, 58, 0
2, 2754, Note_on_c, 0, 74, 0
2, 2853, Note_on_c, 0, 53, 56
2, 2916, Note_on_c, 0, 53, 0
2, 3000, Note_on_c, 0, 50, 55
2, 3103, Note_on_c, 0, 50, 0
2, 3158, Note_on_c, 0, 46, 53
2, 3240, Note_on_c, 0, 46, 0
2, 3307, Note_on_c, 0, 65, 58
2, 3441, Note_on_c, 0, 67, 62
2, 3442, Note_on_c, 0, 65, 0
2, 3616, Note_on_c, 0, 68, 69
2, 3617, Note_on_c, 0, 53, 54
2, 3639, Note_on_c, 0, 67, 0
2, 3701, Note_on_c, 0, 53, 0
2, 3775, Note_on_c, 0, 60, 66
2, 3779, Note_on_c, 0, 68, 0
2, 3908, Note_on_c, 0, 63, 62
2, 3910, Note_on_c, 0, 60, 0
2, 4075, Note_on_c, 0, 58, 55
2, 4089, Note_on_c, 0, 62, 73
2, 4117, Note_on_c, 0, 63, 0
2, 4169, Note_on_c, 0, 58, 0
2, 4243, Note_on_c, 0, 65, 64
2, 4396, Note_on_c, 0, 62, 0
2, 4398, Note_on_c, 0, 70, 66
2, 4436, Note_on_c, 0, 65, 0
2, 4561, Note_on_c, 0, 50, 47
2, 4562, Note_on_c, 0, 58, 69
2, 4591, Note_on_c, 0, 70, 0
2, 4675, Note_on_c, 0, 50, 0
2, 4714, Note_on_c, 0, 65, 65
2, 4787, Note_on_c, 0, 58, 0
2, 4866, Note_on_c, 0, 68, 69
2, 4894, Note_on_c, 0, 65, 0
2, 4959, Note_on_c, 0, 68, 0
2, 5037, Note_on_c, 0, 68, 60
2, 5051, Note_on_c, 0, 58, 49
2, 5055, Note_on_c, 0, 63, 51
2, 5196, Note_on_c, 0, 51, 45
2, 5217, Note_on_c, 0, 67, 58
2, 5285, Note_on_c, 0, 68, 0
2, 5362, Note_on_c, 0, 50, 67
2, 5374, Note_on_c, 0, 51, 0
2, 5503, Note_on_c, 0, 50, 0
2, 5519, Note_on_c, 0, 51, 75
2, 5561, Note_on_c, 0, 51, 0
2, 5628, Note_on_c, 0, 67, 0
2, 5630, Note_on_c, 0, 58, 0
2, 5669, Note_on_c, 0, 63, 0
2, 5671, Note_on_c, 0, 46, 64
2, 5721, Note_on_c, 0, 46, 0
2, 5823, Note_on_c, 0, 43, 51
2, 5881, Note_on_c, 0, 43, 0
2, 6005, Note_on_c, 0, 39, 46
2, 6150, Note_on_c, 0, 39, 0
2, 6155, Note_on_c, 0, 51, 52
2, 6305, Note_on_c, 0, 51, 0
2, 6318, Note_on_c, 0, 50, 52
2, 6463, Note_on_c, 0, 51, 58
2, 6501, Note_on_c, 0, 50, 0
2, 6602, Note_on_c, 0, 51, 0
2, 6608, Note_on_c, 0, 55, 53
2, 6760, Note_on_c, 0, 55, 0
2, 6766, Note_on_c, 0, 53, 55
2, 6906, Note_on_c, 0, 53, 0
2, 6928, Note_on_c, 0, 55, 61
2, 7068, Note_on_c, 0, 55, 0
2, 7070, Note_on_c, 0, 58, 62
2, 7125, Note_on_c, 0, 58, 0
2, 7219, Note_on_c, 0, 56, 62
2, 7223, Note_on_c, 0, 39, 58
2, 7267, Note_on_c, 0, 39, 0
2, 7294, Note_on_c, 0, 56, 0
2, 7370, Note_on_c, 0, 51, 70
2, 7372, Note_on_c, 0, 58, 63
2, 7373, Note_on_c, 0, 39, 56
2, 7416, Note_on_c, 0, 51, 0
2, 7425, Note_on_c, 0, 39, 0
2, 7543, Note_on_c, 0, 61, 61
2, 7545, Note_on_c, 0, 58, 0
2, 7553, Control_c, 0, 64, 10
2, 7569, Control_c, 0, 64, 12
2, 7585, Control_c, 0, 64, 15
2, 7600, Control_c, 0, 64, 16
2, 7629, Note_on_c, 0, 61, 0
2, 7685, Note_on_c, 0, 49, 62
2, 7691, Note_on_c, 0, 55, 61
2, 7695, Note_on_c, 0, 39, 43
2, 7706, Control_c, 0, 64, 17
2, 7729, Note_on_c, 0, 49, 0
2, 7735, Note_on_c, 0, 39, 0
2, 7758, Note_on_c, 0, 55, 0
2, 7841, Note_on_c, 0, 48, 54
2, 7841, Note_on_c, 0, 56, 65
2, 7846, Note_on_c, 0, 39, 42
2, 8004, Note_on_c, 0, 60, 69
2, 8009, Control_c, 0, 64, 16
2, 8018, Note_on_c, 0, 56, 0
2, 8156, Note_on_c, 0, 51, 67
2, 8162, Note_on_c, 0, 58, 68
2, 8162, Note_on_c, 0, 60, 0
2, 8165, Note_on_c, 0, 48, 0
2, 8183, Control_c, 0, 64, 17
2, 8287, Note_on_c, 0, 39, 0
2, 8315, Note_on_c, 0, 58, 0
2, 8319, Note_on_c, 0, 44, 63
2, 8325, Note_on_c, 0, 60, 69
2, 8333, Note_on_c, 0, 51, 0
2, 8423, Note_on_c, 0, 44, 0
2, 8471, Note_on_c, 0, 63, 69
2, 8483, Note_on_c, 0, 60, 0
2, 8539, Note_on_c, 0, 63, 0
2, 8627, Note_on_c, 0, 61, 72
2, 8636, Note_on_c, 0, 46, 64
2, 8642, Note_on_c, 0, 39, 56
2, 8671, Control_c, 0, 64, 16
2, 8685, Note_on_c, 0, 46, 0
2, 8687, Note_on_c, 0, 61, 0
2, 8692, Note_on_c, 0, 39, 0
2, 8731, Control_c, 0, 64, 15
2, 8777, Control_c, 0, 64, 14
2, 8779, Note_on_c, 0, 63, 75
2, 8788, Note_on_c, 0, 48, 69
2, 8796, Note_on_c, 0, 39, 56
2, 8807, Control_c, 0, 64, 12
2, 8871, Note_on_c, 0, 48, 0
2, 8894, Note_on_c, 0, 39, 0
2, 8945, Note_on_c, 0, 68, 71
2, 8968, Note_on_c, 0, 63, 0
2, 8982, Control_c, 0, 64, 14
2, 8997, Control_c, 0, 64, 15
2, 9004, Note_on_c, 0, 68, 0
2, 9012, Control_c, 0, 64, 16
2, 9028, Control_c, 0, 64, 17
2, 9057, Control_c, 0, 64, 18
2, 9085, Note_on_c, 0, 44, 61
2, 9097, Note_on_c, 0, 60, 68
2, 9100, Note_on_c, 0, 39, 46
2, 9103, Control_c, 0, 64, 19
2, 9119, Control_c, 0, 64, 20
2, 9124, Note_on_c, 0, 44, 0
2, 9137, Note_on_c, 0, 39, 0
2, 9160, Note_on_c, 0, 60, 0
2, 9241, Control_c, 0, 64, 21
2, 9248, Note_on_c, 0, 62, 71
2, 9257, Note_on_c, 0, 51, 55
2, 9272, Control_c, 0, 64, 22
2, 9278, Note_on_c, 0, 52, 22
2, 9283, Note_on_c, 0, 53, 15
2, 9287, Control_c, 0, 64, 24
2, 9302, Control_c, 0, 64, 26
2, 9315, Note_on_c, 0, 52, 0
2, 9318, Control_c, 0, 64, 27
2, 9333, Control_c, 0, 64, 28
2, 9398, Note_on_c, 0, 65, 74
2, 9433, Note_on_c, 0, 62, 0
2, 9483, Note_on_c, 0, 53, 0
2, 9519, Note_on_c, 0, 51, 0
2, 9546, Note_on_c, 0, 63, 74
2, 9547, Note_on_c, 0, 56, 65
2, 9554, Note_on_c, 0, 65, 0
2, 9606, Control_c, 0, 64, 27
2, 9682, Control_c, 0, 64, 26
2, 9698, Note_on_c, 0, 50, 70
2, 9699, Note_on_c, 0, 56, 0
2, 9703, Note_on_c, 0, 63, 0
2, 9703, Note_on_c, 0, 65, 79
2, 9813, Note_on_c, 0, 50, 0
2, 9865, Note_on_c, 0, 68, 78
2, 9868, Note_on_c, 0, 65, 0
2, 9901, Control_c, 0, 64, 26
2, 9935, Note_on_c, 0, 68, 0
2, 10004, Note_on_c, 0, 51, 76
2, 10006, Note_on_c, 0, 67, 83
2, 10040, Control_c, 0, 64, 25
2, 10067, Note_on_c, 0, 51, 0
2, 10070, Note_on_c, 0, 67, 0
2, 10116, Control_c, 0, 64, 24
2, 10158, Note_on_c, 0, 68, 83
2, 10166, Note_on_c, 0, 53, 73
2, 10253, Control_c, 0, 64, 25
2, 10267, Note_on_c, 0, 53, 0
2, 10269, Control_c, 0, 64, 26
2, 10283, Control_c, 0, 64, 27
2, 10301, Note_on_c, 0, 77, 76
2, 10314, Control_c, 0, 64, 28
2, 10322, Note_on_c, 0, 68, 0
2, 10328, Control_c, 0, 64, 28
2, 10343, Control_c, 0, 64, 29
2, 10359, Control_c, 0, 64, 29
2, 10371, Note_on_c, 0, 77, 0
2, 10374, Control_c, 0, 64, 30
2, 10390, Control_c, 0, 64, 31
2, 10404, Control_c, 0, 64, 31
2, 10419, Control_c, 0, 64, 32
2, 10435, Control_c, 0, 64, 32
2, 10450, Control_c, 0, 64, 33
2, 10450, Note_on_c, 0, 50, 67
2, 10455, Note_on_c, 0, 39, 56
2, 10460, Note_on_c, 0, 46, 57
2, 10461, Note_on_c, 0, 68, 80
2, 10466, Control_c, 0, 64, 33
2, 10503, Control_c, 0, 64, 34
2, 10519, Note_on_c, 0, 50, 0
2, 10523, Note_on_c, 0, 39, 0
2, 10533, Control_c, 0, 64, 34
2, 10534, Note_on_c, 0, 46, 0
2, 10541, Note_on_c, 0, 68, 0
2, 10609, Note_on_c, 0, 51, 73
2, 10620, Note_on_c, 0, 67, 78
2, 10627, Note_on_c, 0, 39, 56
2, 10627, Note_on_c, 0, 46, 60
2, 10668, Control_c, 0, 64, 35
2, 10698, Control_c, 0, 64, 35
2, 10714, Control_c, 0, 64, 36
2, 10716, Note_on_c, 0, 39, 0
2, 10723, Note_on_c, 0, 51, 0
2, 10738, Note_on_c, 0, 46, 0
2, 10743, Control_c, 0, 64, 36
2, 10765, Note_on_c, 0, 70, 81
2, 10787, Note_on_c, 0, 67, 0
2, 10912, Control_c, 0, 64, 37
2, 10916, Note_on_c, 0, 68, 83
2, 10919, Note_on_c, 0, 53, 72
2, 10942, Control_c, 0, 64, 36
2, 10952, Note_on_c, 0, 70, 0
2, 10958, Control_c, 0, 64, 37
2, 10989, Note_on_c, 0, 53, 0
2, 11065, Note_on_c, 0, 70, 84
2, 11066, Note_on_c, 0, 55, 76
2, 11113, Note_on_c, 0, 68, 0
2, 11154, Note_on_c, 0, 55, 0
2, 11217, Note_on_c, 0, 75, 84
2, 11248, Note_on_c, 0, 70, 0
2, 11300, Note_on_c, 0, 75, 0
2, 11373, Note_on_c, 0, 74, 84
2, 11384, Note_on_c, 0, 58, 73
2, 11406, Control_c, 0, 64, 36
2, 11447, Note_on_c, 0, 58, 0
2, 11447, Note_on_c, 0, 74, 0
2, 11525, Note_on_c, 0, 55, 73
2, 11527, Note_on_c, 0, 75, 91
2, 11598, Note_on_c, 0, 55, 0
2, 11675, Note_on_c, 0, 79, 86
2, 11679, Note_on_c, 0, 75, 0
2, 11734, Note_on_c, 0, 79, 0
2, 11818, Note_on_c, 0, 50, 74
2, 11822, Note_on_c, 0, 77, 82
2, 11885, Note_on_c, 0, 50, 0
2, 11892, Note_on_c, 0, 77, 0
2, 11974, Note_on_c, 0, 51, 70
2, 11974, Note_on_c, 0, 79, 76
2, 12053, Control_c, 0, 64, 37
2, 12058, Note_on_c, 0, 51, 0
2, 12068, Control_c, 0, 64, 37
2, 12098, Control_c, 0, 64, 38
2, 12132, Note_on_c, 0, 75, 82
2, 12153, Note_on_c, 0, 79, 0
2, 12159, Control_c, 0, 64, 38
2, 12174, Control_c, 0, 64, 39
2, 12189, Control_c, 0, 64, 40
2, 12276, Note_on_c, 0, 55, 67
2, 12277, Note_on_c, 0, 74, 76
2, 12288, Note_on_c, 0, 75, 0
2, 12337, Note_on_c, 0, 55, 0
2, 12418, Note_on_c, 0, 48, 57
2, 12430, Note_on_c, 0, 75, 75
2, 12464, Note_on_c, 0, 74, 0
2, 12509, Control_c, 0, 64, 40
2, 12558, Note_on_c, 0, 48, 0
2, 12595, Note_on_c, 0, 72, 73
2, 12660, Control_c, 0, 64, 40
2, 12720, Note_on_c, 0, 50, 61
2, 12728, Note_on_c, 0, 70, 74
2, 12765, Note_on_c, 0, 72, 0
2, 12783, Note_on_c, 0, 50, 0
2, 12875, Note_on_c, 0, 51, 72
2, 12884, Note_on_c, 0, 72, 80
2, 12903, Note_on_c, 0, 70, 0
2, 12949, Note_on_c, 0, 51, 0
2, 12957, Note_on_c, 0, 50, 63
2, 13009, Note_on_c, 0, 50, 0
2, 13020, Note_on_c, 0, 48, 70
2, 13020, Note_on_c, 0, 69, 72
2, 13079, Control_c, 0, 64, 39
2, 13092, Note_on_c, 0, 48, 0
2, 13103, Note_on_c, 0, 50, 63
2, 13109, Control_c, 0, 64, 39
2, 13150, Note_on_c, 0, 69, 0
2, 13159, Note_on_c, 0, 50, 0
2, 13164, Note_on_c, 0, 67, 72
2, 13170, Note_on_c, 0, 51, 69
2, 13215, Control_c, 0, 64, 38
2, 13219, Note_on_c, 0, 51, 0
2, 13246, Control_c, 0, 64, 38
2, 13327, Note_on_c, 0, 41, 66
2, 13358, Note_on_c, 0, 69, 63
2, 13364, Note_on_c, 0, 67, 0
2, 13365, Note_on_c, 0, 41, 0
2, 13514, Note_on_c, 0, 65, 73
2, 13656, Note_on_c, 0, 63, 81
2, 13679, Note_on_c, 0, 65, 0
2, 13779, Note_on_c, 0, 63, 0
2, 13813, Note_on_c, 0, 65, 81
2, 13862, Note_on_c, 0, 75, 0
2, 13864, Note_on_c, 0, 65, 0
2, 13874, Note_on_c, 0, 69, 0
2, 13890, Note_on_c, 0, 72, 0
2, 13952, Note_on_c, 0, 60, 79
2, 13969, Control_c, 0, 64, 38
2, 14008, Note_on_c, 0, 60, 0
2, 14102, Note_on_c, 0, 57, 70
2, 14168, Note_on_c, 0, 57, 0
2, 14258, Note_on_c, 0, 53, 75
2, 14303, Control_c, 0, 64, 39
2, 14359, Note_on_c, 0, 53, 0
2, 14409, Note_on_c, 0, 69, 80
2, 14448, Control_c, 0, 64, 39
2, 14463, Control_c, 0, 64, 40
2, 14478, Control_c, 0, 64, 40
2, 14508, Control_c, 0, 64, 41
2, 14524, Control_c, 0, 64, 41
2, 14548, Note_on_c, 0, 75, 81
2, 14569, Control_c, 0, 64, 42
2, 14580, Note_on_c, 0, 69, 0
2, 14700, Note_on_c, 0, 58, 60
2, 14700, Note_on_c, 0, 74, 77
2, 14740, Note_on_c, 0, 75, 0
2, 14772, Note_on_c, 0, 58, 0
2, 14854, Note_on_c, 0, 70, 73
2, 14879, Note_on_c, 0, 74, 0
2, 14989, Note_on_c, 0, 70, 0
2, 15000, Note_on_c, 0, 65, 72
2, 15094, Control_c, 0, 64, 42
2, 15109, Control_c, 0, 64, 43
2, 15150, Note_on_c, 0, 51, 58
2, 15165, Note_on_c, 0, 67, 68
2, 15170, Control_c, 0, 64, 43
2, 15185, Control_c, 0, 64, 44
2, 15201, Control_c, 0, 64, 45
2, 15203, Note_on_c, 0, 65, 0
2, 15216, Control_c, 0, 64, 46
2, 15219, Note_on_c, 0, 51, 0
2, 15313, Note_on_c, 0, 67, 0
2, 15316, Note_on_c, 0, 63, 64
2, 15449, Note_on_c, 0, 63, 0
2, 15463, Note_on_c, 0, 62, 57
2, 15622, Note_on_c, 0, 62, 0
2, 15632, Note_on_c, 0, 60, 64
2, 15638, Note_on_c, 0, 53, 56
2, 15687, Control_c, 0, 64, 45
2, 15698, Note_on_c, 0, 53, 0
2, 15784, Note_on_c, 0, 70, 54
2, 15810, Control_c, 0, 64, 46
2, 15943, Note_on_c, 0, 70, 0
2, 15952, Note_on_c, 0, 69, 53
2, 15971, Note_on_c, 0, 60, 0
2, 15984, Control_c, 0, 64, 46
2, 16121, Note_on_c, 0, 70, 56
2, 16129, Note_on_c, 0, 62, 43
2, 16142, Note_on_c, 0, 69, 0
2, 16280, Note_on_c, 0, 58, 47
2, 16302, Control_c, 0, 64, 46
2, 16436, Note_on_c, 0, 57, 59
2, 16448, Note_on_c, 0, 58, 0
2, 16559, Note_on_c, 0, 57, 0
2, 16596, Note_on_c, 0, 58, 63
2, 16647, Note_on_c, 0, 62, 0
2, 16659, Note_on_c, 0, 70, 0
2, 16660, Note_on_c, 0, 58, 0
2, 16760, Note_on_c, 0, 53, 54
2, 16803, Note_on_c, 0, 53, 0
2, 16901, Note_on_c, 0, 50, 53
2, 16956, Note_on_c, 0, 50, 0
2, 17064, Note_on_c, 0, 46, 46
2, 17207, Note_on_c, 0, 46, 0
2, 17221, Note_on_c, 0, 58, 53
2, 17362, Note_on_c, 0, 58, 0
2, 17378, Note_on_c, 0, 57, 55
2, 17545, Note_on_c, 0, 58, 59
2, 17570, Note_on_c, 0, 57, 0
2, 17611, Control_c, 0, 64, 45
2, 17672, Control_c, 0, 64, 45
2, 17681, Note_on_c, 0, 58, 0
2, 17693, Note_on_c, 0, 62, 52
2, 17708, Note_on_c, 0, 46, 42
2, 17717, Control_c, 0, 64, 44
2, 17763, Control_c, 0, 64, 44
2, 17835, Note_on_c, 0, 62, 0
2, 17844, Note_on_c, 0, 46, 0
2, 17847, Note_on_c, 0, 60, 58
2, 17848, Note_on_c, 0, 45, 55
2, 17900, Control_c, 0, 64, 44
2, 17980, Note_on_c, 0, 60, 0
2, 17990, Control_c, 0, 64, 45
2, 17999, Note_on_c, 0, 46, 58
2, 18002, Note_on_c, 0, 62, 61
2, 18010, Note_on_c, 0, 45, 0
2, 18097, Note_on_c, 0, 46, 0
2, 18139, Note_on_c, 0, 62, 0
2, 18147, Note_on_c, 0, 65, 62
2, 18148, Note_on_c, 0, 50, 48
2, 18198, Note_on_c, 0, 50, 0
2, 18209, Note_on_c, 0, 65, 0
2, 18301, Note_on_c, 0, 48, 58
2, 18310, Note_on_c, 0, 63, 64
2, 18321, Note_on_c, 0, 46, 43
2, 18349, Note_on_c, 0, 48, 0
2, 18356, Note_on_c, 0, 46, 0
2, 18380, Note_on_c, 0, 63, 0
2, 18449, Note_on_c, 0, 46, 54
2, 18449, Note_on_c, 0, 50, 63
2, 18455, Note_on_c, 0, 65, 70
2, 18548, Note_on_c, 0, 46, 0
2, 18576, Control_c, 0, 64, 45
2, 18578, Note_on_c, 0, 50, 0
2, 18592, Control_c, 0, 64, 46
2, 18611, Note_on_c, 0, 53, 58
2, 18613, Note_on_c, 0, 68, 64
2, 18621, Control_c, 0, 64, 46
2, 18624, Note_on_c, 0, 65, 0
2, 18637, Control_c, 0, 64, 47
2, 18650, Note_on_c, 0, 53, 0
2, 18652, Control_c, 0, 64, 47
2, 18674, Note_on_c, 0, 68, 0
2, 18683, Control_c, 0, 64, 48
2, 18697, Control_c, 0, 64, 48
2, 18713, Control_c, 0, 64, 49
2, 18742, Control_c, 0, 64, 49
2, 18753, Note_on_c, 0, 46, 60
2, 18755, Note_on_c, 0, 56, 65
2, 18758, Control_c, 0, 64, 50
2, 18774, Note_on_c, 0, 62, 58
2, 18799, Note_on_c, 0, 46, 0
2, 18817, Note_on_c, 0, 62, 0
2, 18820, Note_on_c, 0, 56, 0
2, 18917, Note_on_c, 0, 46, 59
2, 18931, Note_on_c, 0, 55, 68
2, 18938, Note_on_c, 0, 63, 59
2, 18978, Control_c, 0, 64, 49
2, 19051, Note_on_c, 0, 46, 0
2, 19068, Note_on_c, 0, 55, 0
2, 19091, Note_on_c, 0, 67, 68
2, 19094, Note_on_c, 0, 63, 0
2, 19096, Note_on_c, 0, 58, 64
2, 19101, Control_c, 0, 64, 49
2, 19232, Note_on_c, 0, 67, 0
2, 19233, Note_on_c, 0, 65, 67
2, 19252, Note_on_c, 0, 56, 68
2, 19255, Note_on_c, 0, 58, 0
2, 19283, Control_c, 0, 64, 48
2, 19383, Note_on_c, 0, 65, 0
2, 19393, Note_on_c, 0, 67, 73
2, 19401, Note_on_c, 0, 58, 69
2, 19412, Note_on_c, 0, 56, 0
2, 19513, Note_on_c, 0, 58, 0
2, 19542, Note_on_c, 0, 70, 68
2, 19555, Note_on_c, 0, 67, 0
2, 19556, Note_on_c, 0, 55, 66
2, 19616, Note_on_c, 0, 55, 0
2, 19617, Note_on_c, 0, 70, 0
2, 19703, Note_on_c, 0, 53, 63
2, 19704, Note_on_c, 0, 68, 75
2, 19706, Note_on_c, 0, 46, 54
2, 19757, Note_on_c, 0, 46, 0
2, 19763, Control_c, 0, 64, 48
2, 19772, Note_on_c, 0, 53, 0
2, 19782, Note_on_c, 0, 68, 0
2, 19793, Control_c, 0, 64, 47
2, 19808, Control_c, 0, 64, 47
2, 19839, Control_c, 0, 64, 46
2, 19851, Note_on_c, 0, 46, 69
2, 19854, Control_c, 0, 64, 45
2, 19857, Note_on_c, 0, 55, 74
2, 19857, Note_on_c, 0, 70, 79
2, 19869, Control_c, 0, 64, 44
2, 19885, Control_c, 0, 64, 43
2, 19958, Note_on_c, 0, 46, 0
2, 20007, Control_c, 0, 64, 44
2, 20007, Note_on_c, 0, 75, 75
2, 20018, Note_on_c, 0, 55, 0
2, 20022, Control_c, 0, 64, 45
2, 20024, Note_on_c, 0, 58, 73
2, 20036, Note_on_c, 0, 70, 0
2, 20050, Note_on_c, 0, 58, 0
2, 20067, Control_c, 0, 64, 46
2, 20075, Note_on_c, 0, 75, 0
2, 20098, Control_c, 0, 64, 46
2, 20113, Control_c, 0, 64, 47
2, 20128, Control_c, 0, 64, 48
2, 20158, Note_on_c, 0, 58, 59
2, 20164, Note_on_c, 0, 67, 74
2, 20165, Note_on_c, 0, 63, 73
2, 20204, Control_c, 0, 64, 48
2, 20204, Note_on_c, 0, 63, 0
2, 20229, Note_on_c, 0, 58, 0
2, 20232, Note_on_c, 0, 67, 0
2, 20317, Note_on_c, 0, 60, 67
2, 20319, Note_on_c, 0, 69, 77
2, 20331, Note_on_c, 0, 58, 50
2, 20478, Note_on_c, 0, 72, 77
2, 20491, Note_on_c, 0, 63, 68
2, 20508, Note_on_c, 0, 69, 0
2, 20567, Note_on_c, 0, 60, 0
2, 20590, Control_c, 0, 64, 48
2, 20599, Note_on_c, 0, 58, 0
2, 20623, Note_on_c, 0, 70, 78
2, 20635, Note_on_c, 0, 62, 75
2, 20653, Note_on_c, 0, 72, 0
2, 20656, Note_on_c, 0, 63, 0
2, 20698, Control_c, 0, 64, 48
2, 20743, Control_c, 0, 64, 48
2, 20784, Note_on_c, 0, 62, 0
2, 20784, Note_on_c, 0, 63, 78
2, 20793, Note_on_c, 0, 70, 0
2, 20793, Note_on_c, 0, 72, 84
2, 20942, Note_on_c, 0, 75, 84
2, 20945, Note_on_c, 0, 60, 74
2, 20956, Note_on_c, 0, 63, 0
2, 20957, Note_on_c, 0, 72, 0
2, 20997, Note_on_c, 0, 60, 0
2, 21016, Note_on_c, 0, 75, 0
2, 21085, Note_on_c, 0, 58, 77
2, 21090, Note_on_c, 0, 74, 82
2, 21093, Control_c, 0, 64, 47
2, 21124, Control_c, 0, 64, 47
2, 21147, Note_on_c, 0, 74, 0
2, 21148, Note_on_c, 0, 58, 0
2, 21154, Control_c, 0, 64, 46
2, 21184, Control_c, 0, 64, 46
2, 21246, Note_on_c, 0, 60, 79
2, 21250, Note_on_c, 0, 75, 89
2, 21372, Note_on_c, 0, 60, 0
2, 21394, Note_on_c, 0, 84, 76
2, 21410, Note_on_c, 0, 58, 73
2, 21419, Control_c, 0, 64, 46
2, 21424, Note_on_c, 0, 75, 0
2, 21441, Note_on_c, 0, 58, 0
2, 21462, Note_on_c, 0, 84, 0
2, 21465, Control_c, 0, 64, 47
2, 21545, Note_on_c, 0, 75, 82
2, 21554, Note_on_c, 0, 57, 73
2, 21556, Note_on_c, 0, 46, 68
2, 21562, Note_on_c, 0, 53, 64
2, 21600, Note_on_c, 0, 57, 0
2, 21611, Note_on_c, 0, 46, 0
2, 21620, Note_on_c, 0, 53, 0
2, 21622, Note_on_c, 0, 75, 0
2, 21694, Control_c, 0, 64, 47
2, 21706, Note_on_c, 0, 58, 76
2, 21706, Note_on_c, 0, 74, 78
2, 21710, Note_on_c, 0, 53, 66
2, 21725, Note_on_c, 0, 46, 49
2, 21739, Note_on_c, 0, 53, 0
2, 21740, Control_c, 0, 64, 48
2, 21756, Note_on_c, 0, 46, 0
2, 21756, Note_on_c, 0, 58, 0
2, 21771, Note_on_c, 0, 74, 0
2, 21859, Note_on_c, 0, 62, 72
2, 21863, Note_on_c, 0, 70, 68
2, 22006, Control_c, 0, 64, 47
2, 22010, Note_on_c, 0, 60, 79
2, 22013, Note_on_c, 0, 69, 80
2, 22027, Note_on_c, 0, 70, 0
2, 22040, Note_on_c, 0, 62, 0
2, 22051, Control_c, 0, 64, 47
2, 22160, Note_on_c, 0, 62, 83
2, 22164, Note_on_c, 0, 70, 79
2, 22198, Note_on_c, 0, 60, 0
2, 22203, Control_c, 0, 64, 46
2, 22206, Note_on_c, 0, 69, 0
2, 22296, Note_on_c, 0, 62, 0
2, 22308, Note_on_c, 0, 65, 78
2, 22309, Note_on_c, 0, 74, 81
2, 22326, Control_c, 0, 64, 46
2, 22335, Note_on_c, 0, 70, 0
2, 22358, Note_on_c, 0, 65, 0
2, 22371, Control_c, 0, 64, 45
2, 22381, Note_on_c, 0, 74, 0
2, 22417, Control_c, 0, 64, 45
2, 22460, Note_on_c, 0, 63, 78
2, 22462, Note_on_c, 0, 72, 89
2, 22493, Control_c, 0, 64, 44
2, 22529, Note_on_c, 0, 72, 0
2, 22538, Note_on_c, 0, 63, 0
2, 22584, Control_c, 0, 64, 44
2, 22618, Note_on_c, 0, 74, 89
2, 22621, Note_on_c, 0, 65, 79
2, 22727, Note_on_c, 0, 65, 0
2, 22771, Note_on_c, 0, 77, 88
2, 22777, Note_on_c, 0, 68, 76
2, 22782, Note_on_c, 0, 74, 0
2, 22819, Control_c, 0, 64, 44
2, 22841, Note_on_c, 0, 77, 0
2, 22842, Note_on_c, 0, 68, 0
2, 22881, Control_c, 0, 64, 45
2, 22910, Control_c, 0, 64, 45
2, 22914, Note_on_c, 0, 75, 85
2, 22925, Note_on_c, 0, 67, 73
2, 22941, Control_c, 0, 64, 46
2, 22949, Note_on_c, 0, 67, 0
2, 22995, Note_on_c, 0, 75, 0
2, 23118, Note_on_c, 0, 68, 79
2, 23120, Note_on_c, 0, 77, 73
2, 23123, Note_on_c, 0, 74, 65
2, 23288, Note_on_c, 0, 58, 66
2, 23431, Note_on_c, 0, 57, 77
2, 23464, Note_on_c, 0, 58, 0
2, 23572, Control_c, 0, 64, 46
2, 23587, Control_c, 0, 64, 47
2, 23587, Note_on_c, 0, 57, 0
2, 23601, Note_on_c, 0, 58, 77
2, 23657, Note_on_c, 0, 58, 0
2, 23663, Control_c, 0, 64, 47
2, 23689, Note_on_c, 0, 77, 0
2, 23694, Control_c, 0, 64, 48
2, 23701, Note_on_c, 0, 68, 0
2, 23727, Note_on_c, 0, 74, 0
2, 23746, Note_on_c, 0, 53, 63
2, 23770, Control_c, 0, 64, 48
2, 23794, Note_on_c, 0, 53, 0
2, 23861, Control_c, 0, 64, 49
2, 23896, Note_on_c, 0, 50, 60
2, 23954, Control_c, 0, 64, 49
2, 23958, Note_on_c, 0, 50, 0
2, 23968, Control_c, 0, 64, 50
2, 24029, Control_c, 0, 64, 49
2, 24053, Note_on_c, 0, 46, 51
2, 24155, Note_on_c, 0, 46, 0
2, 24217, Note_on_c, 0, 67, 51
2, 24222, Note_on_c, 0, 63, 48
2, 24313, Control_c, 0, 64, 50
2, 24365, Note_on_c, 0, 63, 0
2, 24373, Note_on_c, 0, 65, 56
2, 24375, Note_on_c, 0, 67, 0
2, 24376, Note_on_c, 0, 62, 51
2, 24434, Control_c, 0, 64, 50
2, 24542, Note_on_c, 0, 67, 52
2, 24543, Note_on_c, 0, 62, 0
2, 24546, Note_on_c, 0, 63, 49
2, 24552, Note_on_c, 0, 65, 0
2, 24690, Note_on_c, 0, 58, 55
2, 24845, Control_c, 0, 64, 51
2, 24848, Note_on_c, 0, 58, 0
2, 24857, Note_on_c, 0, 56, 52
2, 24936, Control_c, 0, 64, 51
2, 24952, Control_c, 0, 64, 52
2, 25008, Note_on_c, 0, 56, 0
2, 25013, Note_on_c, 0, 58, 57
2, 25029, Note_on_c, 0, 63, 0
2, 25042, Note_on_c, 0, 67, 0
2, 25066, Note_on_c, 0, 58, 0
2, 25161, Note_on_c, 0, 55, 55
2, 25217, Note_on_c, 0, 55, 0
2, 25323, Note_on_c, 0, 51, 58
2, 25338, Control_c, 0, 64, 52
2, 25375, Note_on_c, 0, 51, 0
2, 25462, Note_on_c, 0, 46, 45
2, 25521, Note_on_c, 0, 46, 0
2, 25616, Note_on_c, 0, 74, 61
2, 25622, Note_on_c, 0, 65, 57
2, 25671, Note_on_c, 0, 65, 0
2, 25749, Note_on_c, 0, 74, 0
2, 25763, Note_on_c, 0, 75, 60
2, 25794, Note_on_c, 0, 67, 54
2, 25858, Note_on_c, 0, 67, 0
2, 25863, Control_c, 0, 64, 52
2, 25925, Control_c, 0, 64, 51
2, 25931, Note_on_c, 0, 77, 68
2, 25935, Note_on_c, 0, 75, 0
2, 25950, Note_on_c, 0, 68, 52
2, 26094, Note_on_c, 0, 46, 52
2, 26219, Note_on_c, 0, 46, 0
2, 26232, Note_on_c, 0, 45, 51
2, 26274, Control_c, 0, 64, 52
2, 26408, Note_on_c, 0, 46, 62
2, 26411, Note_on_c, 0, 45, 0
2, 26427, Control_c, 0, 64, 52
2, 26473, Control_c, 0, 64, 52
2, 26483, Note_on_c, 0, 77, 0
2, 26499, Note_on_c, 0, 68, 0
2, 26544, Note_on_c, 0, 46, 0
2, 26561, Note_on_c, 0, 50, 61
2, 26599, Note_on_c, 0, 50, 0
2, 26616, Control_c, 0, 64, 51
2, 26692, Control_c, 0, 64, 51
2, 26698, Note_on_c, 0, 77, 69
2, 26710, Note_on_c, 0, 48, 55
2, 26729, Note_on_c, 0, 68, 42
2, 26759, Note_on_c, 0, 48, 0
2, 26766, Note_on_c, 0, 68, 0
2, 26769, Control_c, 0, 64, 50
2, 26787, Note_on_c, 0, 77, 0
2, 26844, Control_c, 0, 64, 50
2, 26859, Note_on_c, 0, 50, 70
2, 26867, Note_on_c, 0, 68, 68
2, 26871, Note_on_c, 0, 71, 74
2, 26964, Note_on_c, 0, 50, 0
2, 26981, Control_c, 0, 64, 49
2, 27015, Note_on_c, 0, 53, 64
2, 27016, Note_on_c, 0, 71, 0
2, 27022, Note_on_c, 0, 68, 0
2, 27055, Note_on_c, 0, 53, 0
2, 27157, Note_on_c, 0, 72, 71
2, 27158, Note_on_c, 0, 51, 68
2, 27161, Note_on_c, 0, 65, 69
2, 27178, Note_on_c, 0, 68, 45
2, 27206, Note_on_c, 0, 65, 0
2, 27218, Note_on_c, 0, 68, 0
2, 27231, Note_on_c, 0, 72, 0
2, 27241, Note_on_c, 0, 51, 0
2, 27253, Control_c, 0, 64, 49
2, 27313, Note_on_c, 0, 53, 71
2, 27317, Note_on_c, 0, 62, 74
2, 27317, Note_on_c, 0, 68, 64
2, 27317, Note_on_c, 0, 71, 72
2, 27422, Note_on_c, 0, 53, 0
2, 27483, Note_on_c, 0, 56, 71
2, 27542, Note_on_c, 0, 56, 0
2, 27568, Note_on_c, 0, 62, 0
2, 27578, Note_on_c, 0, 71, 0
2, 27614, Note_on_c, 0, 68, 0
2, 27617, Note_on_c, 0, 55, 77
2, 27696, Note_on_c, 0, 55, 0
2, 27772, Note_on_c, 0, 56, 81
2, 27822, Note_on_c, 0, 56, 0
2, 27823, Control_c, 0, 64, 49
2, 27838, Control_c, 0, 64, 50
2, 27868, Control_c, 0, 64, 50
2, 27931, Note_on_c, 0, 59, 73
2, 27959, Control_c, 0, 64, 51
2, 28005, Control_c, 0, 64, 51
2, 28037, Control_c, 0, 64, 52
2, 28069, Note_on_c, 0, 62, 63
2, 28099, Note_on_c, 0, 59, 0
2, 28196, Control_c, 0, 64, 51
2, 28233, Note_on_c, 0, 47, 78
2, 28241, Note_on_c, 0, 65, 69
2, 28257, Control_c, 0, 64, 51
2, 28264, Note_on_c, 0, 62, 0
2, 28287, Control_c, 0, 64, 50
2, 28329, Note_on_c, 0, 47, 0
2, 28378, Control_c, 0, 64, 51
2, 28398, Note_on_c, 0, 63, 70
2, 28423, Control_c, 0, 64, 50
2, 28443, Note_on_c, 0, 65, 0
2, 28469, Control_c, 0, 64, 51
2, 28485, Control_c, 0, 64, 51
2, 28516, Control_c, 0, 64, 50
2, 28548, Note_on_c, 0, 62, 76
2, 28565, Note_on_c, 0, 63, 0
2, 28576, Control_c, 0, 64, 51
2, 28624, Note_on_c, 0, 62, 0
2, 28700, Note_on_c, 0, 48, 76
2, 28711, Note_on_c, 0, 63, 74
2, 28728, Control_c, 0, 64, 50
2, 28757, Note_on_c, 0, 48, 0
2, 28773, Control_c, 0, 64, 50
2, 28785, Note_on_c, 0, 63, 0
2, 28803, Control_c, 0, 64, 49
2, 28834, Control_c, 0, 64, 49
2, 28864, Note_on_c, 0, 67, 68
2, 28865, Control_c, 0, 64, 48
2, 28940, Note_on_c, 0, 67, 0
2, 28979, Control_c, 0, 64, 49
2, 29010, Control_c, 0, 64, 49
2, 29011, Note_on_c, 0, 72, 68
2, 29092, Note_on_c, 0, 72, 0
2, 29101, Control_c, 0, 64, 50
2, 29116, Control_c, 0, 64, 50
2, 29165, Note_on_c, 0, 75, 64
2, 29176, Note_on_c, 0, 60, 59
2, 29219, Note_on_c, 0, 60, 0
2, 29311, Note_on_c, 0, 75, 0
2, 29314, Control_c, 0, 64, 50
2, 29317, Note_on_c, 0, 74, 58
2, 29473, Note_on_c, 0, 72, 58
2, 29473, Note_on_c, 0, 74, 0
2, 29561, Note_on_c, 0, 72, 0
2, 29570, Control_c, 0, 64, 50
2, 29619, Note_on_c, 0, 58, 59
2, 29694, Note_on_c, 0, 58, 0
2, 29785, Note_on_c, 0, 63, 62
2, 29837, Control_c, 0, 64, 51
2, 29925, Note_on_c, 0, 72, 65
2, 29933, Note_on_c, 0, 63, 0
2, 30062, Note_on_c, 0, 72, 0
2, 30068, Note_on_c, 0, 56, 56
2, 30083, Note_on_c, 0, 65, 67
2, 30124, Note_on_c, 0, 56, 0
2, 30140, Note_on_c, 0, 65, 0
2, 30217, Note_on_c, 0, 68, 69
2, 30292, Note_on_c, 0, 68, 0
2, 30356, Note_on_c, 0, 72, 66
2, 30438, Note_on_c, 0, 72, 0
2, 30505, Note_on_c, 0, 44, 55
2, 30517, Note_on_c, 0, 75, 64
2, 30562, Note_on_c, 0, 44, 0
2, 30665, Control_c, 0, 64, 51
2, 30666, Note_on_c, 0, 74, 62
2, 30668, Note_on_c, 0, 75, 0
2, 30726, Control_c, 0, 64, 52
2, 30826, Note_on_c, 0, 72, 62
2, 30833, Control_c, 0, 64, 52
2, 30843, Note_on_c, 0, 74, 0
2, 30909, Control_c, 0, 64, 53
2, 30916, Note_on_c, 0, 72, 0
2, 30966, Note_on_c, 0, 51, 62
2, 31001, Control_c, 0, 64, 53
2, 31037, Note_on_c, 0, 51, 0
2, 31123, Control_c, 0, 64, 54
2, 31127, Note_on_c, 0, 67, 70
2, 31153, Control_c, 0, 64, 54
2, 31198, Control_c, 0, 64, 55
2, 31277, Note_on_c, 0, 72, 77
2, 31311, Note_on_c, 0, 67, 0
2, 31389, Control_c, 0, 64, 55
2, 31421, Note_on_c, 0, 68, 77
2, 31425, Note_on_c, 0, 53, 68
2, 31445, Note_on_c, 0, 72, 0
2, 31484, Note_on_c, 0, 53, 0
2, 31502, Note_on_c, 0, 68, 0
2, 31557, Control_c, 0, 64, 55
2, 31564, Note_on_c, 0, 71, 79
2, 31629, Note_on_c, 0, 71, 0
2, 31697, Note_on_c, 0, 72, 77
2, 31764, Note_on_c, 0, 72, 0
2, 31851, Note_on_c, 0, 54, 70
2, 31852, Note_on_c, 0, 75, 78
2, 31905, Note_on_c, 0, 54, 0
2, 31950, Control_c, 0, 64, 54
2, 32000, Note_on_c, 0, 74, 71
2, 32031, Note_on_c, 0, 75, 0
2, 32144, Note_on_c, 0, 72, 69
2, 32170, Note_on_c, 0, 74, 0
2, 32246, Note_on_c, 0, 72, 0
2, 32301, Note_on_c, 0, 55, 69
2, 32370, Control_c, 0, 64, 54
2, 32383, Note_on_c, 0, 55, 0
2, 32430, Control_c, 0, 64, 53
2, 32465, Note_on_c, 0, 65, 68
2, 32567, Control_c, 0, 64, 53
2, 32600, Note_on_c, 0, 71, 73
2, 32627, Control_c, 0, 64, 52
2, 32627, Note_on_c, 0, 65, 0
2, 32693, Note_on_c, 0, 71, 0
2, 32768, Note_on_c, 0, 72, 72
2, 32769, Note_on_c, 0, 48, 55
2, 32802, Control_c, 0, 64, 52
2, 32914, Note_on_c, 0, 67, 73
2, 32938, Note_on_c, 0, 72, 0
2, 33063, Note_on_c, 0, 63, 74
2, 33080, Note_on_c, 0, 67, 0
2, 33107, Control_c, 0, 64, 51
2, 33138, Control_c, 0, 64, 51
2, 33154, Control_c, 0, 64, 50
2, 33199, Control_c, 0, 64, 50
2, 33223, Note_on_c, 0, 60, 72
2, 33223, Note_on_c, 0, 63, 0
2, 33259, Control_c, 0, 64, 49
2, 33378, Note_on_c, 0, 51, 69
2, 33396, Control_c, 0, 64, 49
2, 33413, Note_on_c, 0, 48, 0
2, 33496, Note_on_c, 0, 60, 0
2, 33522, Note_on_c, 0, 55, 72
2, 33556, Note_on_c, 0, 51, 0
2, 33689, Note_on_c, 0, 58, 79
2, 33692, Note_on_c, 0, 55, 0
2, 33707, Control_c, 0, 64, 48
2, 33842, Note_on_c, 0, 57, 69
2, 33874, Note_on_c, 0, 58, 0
2, 33985, Note_on_c, 0, 55, 68
2, 33988, Note_on_c, 0, 57, 0
2, 34057, Control_c, 0, 64, 49
2, 34162, Note_on_c, 0, 57, 63
2, 34182, Note_on_c, 0, 55, 0
2, 34328, Note_on_c, 0, 75, 72
2, 34464, Note_on_c, 0, 57, 0
2, 34471, Note_on_c, 0, 74, 73
2, 34507, Note_on_c, 0, 75, 0
2, 34535, Control_c, 0, 64, 49
2, 34581, Control_c, 0, 64, 50
2, 34626, Note_on_c, 0, 75, 79
2, 34649, Note_on_c, 0, 74, 0
2, 34708, Note_on_c, 0, 75, 0
2, 34772, Note_on_c, 0, 72, 65
2, 34838, Note_on_c, 0, 72, 0
2, 34924, Note_on_c, 0, 69, 64
2, 34983, Note_on_c, 0, 69, 0
2, 35089, Note_on_c, 0, 65, 63
2, 35243, Note_on_c, 0, 60, 50
2, 35322, Note_on_c, 0, 65, 0
2, 35400, Note_on_c, 0, 53, 47
2, 35400, Note_on_c, 0, 60, 0
2, 35568, Note_on_c, 0, 58, 54
2, 35584, Note_on_c, 0, 53, 0
2, 35725, Note_on_c, 0, 65, 64
2, 35774, Note_on_c, 0, 65, 0
2, 35861, Note_on_c, 0, 63, 65
2, 35908, Note_on_c, 0, 63, 0
2, 36028, Note_on_c, 0, 65, 62
2, 36074, Note_on_c, 0, 58, 0
2, 36180, Note_on_c, 0, 70, 53
2, 36333, Note_on_c, 0, 72, 60
2, 36501, Note_on_c, 0, 72, 0
2, 36501, Note_on_c, 0, 73, 57
2, 36669, Note_on_c, 0, 56, 45
2, 36748, Control_c, 0, 64, 49
2, 36828, Note_on_c, 0, 53, 49
2, 36835, Note_on_c, 0, 65, 0
2, 36871, Note_on_c, 0, 56, 0
2, 36902, Note_on_c, 0, 73, 0
2, 36976, Note_on_c, 0, 55, 50
2, 37052, Note_on_c, 0, 53, 0
2, 37066, Note_on_c, 0, 70, 0
2, 37100, Control_c, 0, 64, 49
2, 37146, Note_on_c, 0, 73, 62
2, 37296, Note_on_c, 0, 55, 0
2, 37296, Note_on_c, 0, 72, 74
2, 37320, Note_on_c, 0, 73, 0
2, 37342, Control_c, 0, 64, 49
2, 37450, Note_on_c, 0, 73, 76
2, 37478, Note_on_c, 0, 72, 0
2, 37529, Note_on_c, 0, 73, 0
2, 37596, Note_on_c, 0, 70, 71
2, 37670, Note_on_c, 0, 70, 0
2, 37750, Note_on_c, 0, 67, 65
2, 37820, Note_on_c, 0, 67, 0
2, 37910, Note_on_c, 0, 63, 59
2, 38066, Note_on_c, 0, 58, 42
2, 38179, Note_on_c, 0, 63, 0
2, 38228, Note_on_c, 0, 51, 43
2, 38296, Note_on_c, 0, 58, 0
2, 38402, Note_on_c, 0, 56, 42
2, 38449, Note_on_c, 0, 51, 0
2, 38553, Note_on_c, 0, 63, 47
2, 38608, Note_on_c, 0, 63, 0
2, 38702, Note_on_c, 0, 61, 50
2, 38757, Note_on_c, 0, 61, 0
2, 38853, Note_on_c, 0, 63, 61
2, 38878, Control_c, 0, 64, 50
2, 39007, Note_on_c, 0, 56, 0
2, 39025, Note_on_c, 0, 68, 55
2, 39180, Note_on_c, 0, 70, 48
2, 39338, Note_on_c, 0, 72, 55
2, 39365, Note_on_c, 0, 70, 0
2, 39496, Note_on_c, 0, 55, 37
2, 39571, Control_c, 0, 64, 50
2, 39644, Note_on_c, 0, 51, 41
2, 39671, Note_on_c, 0, 68, 0
2, 39687, Note_on_c, 0, 55, 0
2, 39704, Note_on_c, 0, 72, 0
2, 39710, Note_on_c, 0, 63, 0
2, 39812, Note_on_c, 0, 53, 48
2, 39826, Note_on_c, 0, 51, 0
2, 39979, Note_on_c, 0, 62, 45
2, 40003, Note_on_c, 0, 53, 0
2, 40106, Note_on_c, 0, 62, 0
2, 40121, Note_on_c, 0, 68, 53
2, 40185, Control_c, 0, 64, 51
2, 40275, Note_on_c, 0, 72, 59
2, 40281, Note_on_c, 0, 68, 0
2, 40448, Note_on_c, 0, 70, 56
2, 40448, Note_on_c, 0, 72, 0
2, 40595, Note_on_c, 0, 68, 54
2, 40619, Control_c, 0, 64, 51
2, 40636, Note_on_c, 0, 70, 0
2, 40751, Note_on_c, 0, 55, 52
2, 40756, Control_c, 0, 64, 52
2, 40758, Note_on_c, 0, 68, 0
2, 40846, Control_c, 0, 64, 52
2, 40887, Note_on_c, 0, 55, 0
2, 40901, Note_on_c, 0, 61, 51
2, 41060, Note_on_c, 0, 70, 59
2, 41142, Note_on_c, 0, 61, 0
2, 41227, Note_on_c, 0, 52, 55
2, 41250, Control_c, 0, 64, 53
2, 41265, Note_on_c, 0, 70, 0
2, 41357, Control_c, 0, 64, 53
2, 41384, Note_on_c, 0, 60, 59
2, 41429, Note_on_c, 0, 52, 0
2, 41546, Note_on_c, 0, 67, 63
2, 41559, Note_on_c, 0, 60, 0
2, 41660, Control_c, 0, 64, 54
2, 41693, Note_on_c, 0, 70, 65
2, 41702, Note_on_c, 0, 67, 0
2, 41840, Note_on_c, 0, 68, 65
2, 41869, Note_on_c, 0, 70, 0
2, 41999, Note_on_c, 0, 67, 64
2, 42034, Note_on_c, 0, 68, 0
2, 42163, Note_on_c, 0, 67, 0
2, 42172, Note_on_c, 0, 53, 57
2, 42334, Note_on_c, 0, 60, 61
2, 42347, Note_on_c, 0, 53, 0
2, 42481, Note_on_c, 0, 68, 65
2, 42493, Note_on_c, 0, 60, 0
2, 42521, Control_c, 0, 64, 54
2, 42629, Note_on_c, 0, 50, 67
2, 42651, Note_on_c, 0, 68, 0
2, 42805, Note_on_c, 0, 58, 66
2, 42848, Note_on_c, 0, 50, 0
2, 42946, Note_on_c, 0, 68, 71
2, 42991, Note_on_c, 0, 58, 0
2, 43001, Control_c, 0, 64, 55
2, 43068, Note_on_c, 0, 68, 0
2, 43092, Note_on_c, 0, 51, 73
2, 43254, Note_on_c, 0, 68, 73
2, 43277, Note_on_c, 0, 51, 0
2, 43395, Note_on_c, 0, 67, 70
2, 43412, Control_c, 0, 64, 54
2, 43444, Note_on_c, 0, 68, 0
2, 43523, Note_on_c, 0, 67, 0
2, 43556, Note_on_c, 0, 45, 58
2, 43714, Note_on_c, 0, 72, 56
2, 43736, Note_on_c, 0, 45, 0
2, 43866, Note_on_c, 0, 63, 51
2, 43872, Note_on_c, 0, 72, 0
2, 43975, Note_on_c, 0, 63, 0
2, 44034, Note_on_c, 0, 46, 41
2, 44192, Note_on_c, 0, 62, 51
2, 44241, Control_c, 0, 64, 54
2, 44339, Control_c, 0, 64, 53
2, 44348, Note_on_c, 0, 60, 51
2, 44357, Note_on_c, 0, 62, 0
2, 44366, Note_on_c, 0, 46, 0
2, 44461, Control_c, 0, 64, 53
2, 44501, Note_on_c, 0, 60, 0
2, 44502, Note_on_c, 0, 62, 60
2, 44554, Control_c, 0, 64, 52
2, 44599, Control_c, 0, 64, 52
2, 44630, Control_c, 0, 64, 51
2, 44644, Note_on_c, 0, 50, 46
2, 44659, Control_c, 0, 64, 51
2, 44660, Note_on_c, 0, 58, 60
2, 44663, Note_on_c, 0, 62, 0
2, 44704, Control_c, 0, 64, 50
2, 44734, Control_c, 0, 64, 50
2, 44750, Control_c, 0, 64, 49
2, 44765, Control_c, 0, 64, 49
2, 44780, Control_c, 0, 64, 48
2, 44795, Control_c, 0, 64, 48
2, 44796, Note_on_c, 0, 50, 0
2, 44799, Note_on_c, 0, 58, 0
2, 44806, Note_on_c, 0, 48, 47
2, 44812, Note_on_c, 0, 57, 62
2, 44826, Control_c, 0, 64, 47
2, 44856, Control_c, 0, 64, 46
2, 44872, Control_c, 0, 64, 46
2, 44902, Control_c, 0, 64, 45
2, 44941, Note_on_c, 0, 48, 0
2, 44941, Note_on_c, 0, 57, 0
2, 44948, Note_on_c, 0, 58, 65
2, 44954, Note_on_c, 0, 50, 55
2, 45016, Note_on_c, 0, 58, 0
2, 45046, Note_on_c, 0, 50, 0
2, 45108, Note_on_c, 0, 62, 59
2, 45114, Note_on_c, 0, 53, 60
2, 45168, Note_on_c, 0, 62, 0
2, 45169, Note_on_c, 0, 53, 0
2, 45244, Control_c, 0, 64, 46
2, 45252, Note_on_c, 0, 65, 58
2, 45255, Note_on_c, 0, 56, 48
2, 45314, Note_on_c, 0, 65, 0
2, 45327, Note_on_c, 0, 56, 0
2, 45336, Control_c, 0, 64, 46
2, 45413, Note_on_c, 0, 46, 49
2, 45415, Note_on_c, 0, 68, 68
2, 45569, Note_on_c, 0, 50, 52
2, 45571, Note_on_c, 0, 65, 64
2, 45576, Note_on_c, 0, 68, 0
2, 45579, Note_on_c, 0, 46, 0
2, 45716, Note_on_c, 0, 48, 54
2, 45724, Note_on_c, 0, 63, 64
2, 45737, Note_on_c, 0, 50, 0
2, 45739, Note_on_c, 0, 65, 0
2, 45879, Note_on_c, 0, 50, 63
2, 45888, Note_on_c, 0, 48, 0
2, 45888, Note_on_c, 0, 65, 65
2, 45901, Note_on_c, 0, 63, 0
2, 46027, Control_c, 0, 64, 47
2, 46037, Note_on_c, 0, 50, 0
2, 46038, Note_on_c, 0, 62, 63
2, 46044, Note_on_c, 0, 53, 67
2, 46051, Note_on_c, 0, 65, 0
2, 46165, Control_c, 0, 64, 47
2, 46184, Note_on_c, 0, 60, 68
2, 46192, Note_on_c, 0, 62, 0
2, 46194, Note_on_c, 0, 51, 71
2, 46213, Note_on_c, 0, 53, 0
2, 46225, Control_c, 0, 64, 48
2, 46331, Control_c, 0, 64, 48
2, 46339, Note_on_c, 0, 62, 70
2, 46345, Note_on_c, 0, 60, 0
2, 46347, Note_on_c, 0, 53, 70
2, 46357, Note_on_c, 0, 51, 0
2, 46393, Control_c, 0, 64, 49
2, 46427, Note_on_c, 0, 62, 0
2, 46431, Note_on_c, 0, 53, 0
2, 46452, Control_c, 0, 64, 49
2, 46486, Note_on_c, 0, 65, 71
2, 46495, Note_on_c, 0, 50, 62
2, 46514, Control_c, 0, 64, 50
2, 46552, Note_on_c, 0, 50, 0
2, 46552, Note_on_c, 0, 65, 0
2, 46582, Control_c, 0, 64, 50
2, 46636, Note_on_c, 0, 68, 78
2, 46643, Control_c, 0, 64, 51
2, 46646, Note_on_c, 0, 46, 67
2, 46673, Control_c, 0, 64, 51
2, 46695, Note_on_c, 0, 46, 0
2, 46703, Control_c, 0, 64, 52
2, 46721, Note_on_c, 0, 68, 0
2, 46796, Note_on_c, 0, 72, 77
2, 46840, Control_c, 0, 64, 52
2, 46871, Control_c, 0, 64, 53
2, 46932, Control_c, 0, 64, 53
2, 46944, Note_on_c, 0, 63, 67
2, 46960, Note_on_c, 0, 72, 0
2, 47009, Control_c, 0, 64, 54
2, 47085, Control_c, 0, 64, 54
2, 47097, Note_on_c, 0, 62, 63
2, 47100, Note_on_c, 0, 63, 0
2, 47104, Note_on_c, 0, 53, 61
2, 47161, Note_on_c, 0, 53, 0
2, 47249, Note_on_c, 0, 43, 66
2, 47251, Note_on_c, 0, 70, 67
2, 47293, Note_on_c, 0, 62, 0
2, 47424, Note_on_c, 0, 61, 59
2, 47482, Note_on_c, 0, 43, 0
2, 47491, Note_on_c, 0, 70, 0
2, 47567, Note_on_c, 0, 51, 60
2, 47577, Note_on_c, 0, 60, 59
2, 47580, Note_on_c, 0, 61, 0
2, 47632, Note_on_c, 0, 51, 0
2, 47702, Note_on_c, 0, 41, 70
2, 47730, Note_on_c, 0, 68, 64
2, 47772, Note_on_c, 0, 60, 0
2, 47828, Note_on_c, 0, 41, 0
2, 47892, Note_on_c, 0, 59, 55
2, 47907, Note_on_c, 0, 68, 0
2, 48027, Note_on_c, 0, 50, 53
2, 48043, Note_on_c, 0, 59, 0
2, 48048, Note_on_c, 0, 58, 55
2, 48087, Note_on_c, 0, 50, 0
2, 48185, Note_on_c, 0, 58, 0
2, 48198, Note_on_c, 0, 39, 50
2, 48360, Note_on_c, 0, 67, 53
2, 48435, Note_on_c, 0, 39, 0
2, 48503, Note_on_c, 0, 67, 0
2, 48505, Note_on_c, 0, 65, 62
2, 48636, Control_c, 0, 64, 54
2, 48656, Note_on_c, 0, 67, 65
2, 48665, Control_c, 0, 64, 53
2, 48675, Note_on_c, 0, 65, 0
2, 48712, Control_c, 0, 64, 53
2, 48812, Note_on_c, 0, 67, 0
2, 48817, Note_on_c, 0, 55, 44
2, 48817, Note_on_c, 0, 63, 63
2, 48953, Note_on_c, 0, 55, 0
2, 48958, Note_on_c, 0, 53, 55
2, 48971, Note_on_c, 0, 62, 62
2, 48977, Control_c, 0, 64, 53
2, 48992, Note_on_c, 0, 63, 0
2, 49084, Control_c, 0, 64, 54
2, 49088, Note_on_c, 0, 62, 0
2, 49097, Note_on_c, 0, 53, 0
2, 49103, Note_on_c, 0, 55, 58
2, 49130, Note_on_c, 0, 63, 69
2, 49144, Control_c, 0, 64, 54
2, 49175, Note_on_c, 0, 55, 0
2, 49198, Note_on_c, 0, 63, 0
2, 49264, Note_on_c, 0, 58, 58
2, 49275, Note_on_c, 0, 67, 58
2, 49310, Note_on_c, 0, 58, 0
2, 49329, Note_on_c, 0, 67, 0
2, 49359, Control_c, 0, 64, 54
2, 49414, Note_on_c, 0, 61, 52
2, 49417, Note_on_c, 0, 70, 60
2, 49462, Note_on_c, 0, 70, 0
2, 49476, Note_on_c, 0, 61, 0
2, 49566, Note_on_c, 0, 51, 53
2, 49571, Note_on_c, 0, 73, 65
2, 49616, Control_c, 0, 64, 54
2, 49723, Note_on_c, 0, 55, 62
2, 49729, Note_on_c, 0, 70, 67
2, 49732, Note_on_c, 0, 51, 0
2, 49766, Note_on_c, 0, 73, 0
2, 49837, Control_c, 0, 64, 55
2, 49875, Note_on_c, 0, 53, 58
2, 49878, Note_on_c, 0, 68, 73
2, 49882, Control_c, 0, 64, 55
2, 49884, Note_on_c, 0, 55, 0
2, 49907, Note_on_c, 0, 70, 0
2, 49973, Control_c, 0, 64, 56
2, 50020, Note_on_c, 0, 55, 62
2, 50031, Note_on_c, 0, 70, 75
2, 50039, Note_on_c, 0, 53, 0
2, 50053, Note_on_c, 0, 68, 0
2, 50185, Note_on_c, 0, 58, 68
2, 50189, Note_on_c, 0, 67, 72
2, 50195, Note_on_c, 0, 55, 0
2, 50219, Note_on_c, 0, 70, 0
2, 50333, Note_on_c, 0, 56, 73
2, 50333, Note_on_c, 0, 65, 73
2, 50341, Note_on_c, 0, 58, 0
2, 50345, Note_on_c, 0, 67, 0
2, 50484, Note_on_c, 0, 67, 73
2, 50499, Note_on_c, 0, 58, 71
2, 50511, Note_on_c, 0, 65, 0
2, 50512, Note_on_c, 0, 56, 0
2, 50565, Note_on_c, 0, 58, 0
2, 50573, Note_on_c, 0, 67, 0
2, 50630, Note_on_c, 0, 70, 80
2, 50636, Note_on_c, 0, 55, 69
2, 50650, Control_c, 0, 64, 56
2, 50686, Note_on_c, 0, 55, 0
2, 50695, Note_on_c, 0, 70, 0
2, 50772, Note_on_c, 0, 51, 72
2, 50772, Note_on_c, 0, 73, 77
2, 50802, Control_c, 0, 64, 57
2, 50812, Note_on_c, 0, 51, 0
2, 50854, Note_on_c, 0, 73, 0
2, 50932, Note_on_c, 0, 77, 82
2, 50953, Control_c, 0, 64, 57
2, 51030, Control_c, 0, 64, 58
2, 51078, Note_on_c, 0, 68, 70
2, 51099, Note_on_c, 0, 77, 0
2, 51230, Note_on_c, 0, 67, 61
2, 51238, Note_on_c, 0, 58, 68
2, 51249, Note_on_c, 0, 68, 0
2, 51284, Note_on_c, 0, 58, 0
2, 51357, Control_c, 0, 64, 57
2, 51387, Note_on_c, 0, 48, 75
2, 51393, Note_on_c, 0, 75, 72
2, 51443, Note_on_c, 0, 67, 0
2, 51542, Note_on_c, 0, 66, 62
2, 51604, Note_on_c, 0, 75, 0
2, 51673, Note_on_c, 0, 48, 0
2, 51689, Note_on_c, 0, 56, 54
2, 51689, Note_on_c, 0, 65, 63
2, 51689, Note_on_c, 0, 66, 0
2, 51734, Note_on_c, 0, 56, 0
2, 51835, Note_on_c, 0, 46, 59
2, 51840, Note_on_c, 0, 73, 65
2, 51868, Note_on_c, 0, 65, 0
2, 51989, Note_on_c, 0, 64, 56
2, 52007, Note_on_c, 0, 46, 0
2, 52025, Note_on_c, 0, 73, 0
2, 52132, Note_on_c, 0, 64, 0
2, 52141, Note_on_c, 0, 55, 51
2, 52144, Note_on_c, 0, 63, 54
2, 52208, Note_on_c, 0, 55, 0
2, 52261, Control_c, 0, 64, 57
2, 52309, Note_on_c, 0, 44, 49
2, 52310, Note_on_c, 0, 63, 0
2, 52383, Control_c, 0, 64, 56
2, 52459, Note_on_c, 0, 72, 56
2, 52524, Note_on_c, 0, 44, 0
2, 52610, Note_on_c, 0, 70, 58
2, 52614, Note_on_c, 0, 72, 0
2, 52703, Control_c, 0, 64, 56
2, 52777, Note_on_c, 0, 72, 64
2, 52778, Note_on_c, 0, 70, 0
2, 52925, Note_on_c, 0, 68, 61
2, 52928, Note_on_c, 0, 60, 49
2, 52941, Note_on_c, 0, 72, 0
2, 53045, Control_c, 0, 64, 55
2, 53055, Note_on_c, 0, 60, 0
2, 53062, Note_on_c, 0, 67, 65
2, 53065, Note_on_c, 0, 68, 0
2, 53073, Note_on_c, 0, 58, 52
2, 53203, Note_on_c, 0, 58, 0
2, 53206, Note_on_c, 0, 68, 70
2, 53214, Note_on_c, 0, 60, 58
2, 53218, Note_on_c, 0, 67, 0
2, 53249, Note_on_c, 0, 60, 0
2, 53257, Control_c, 0, 64, 56
2, 53277, Note_on_c, 0, 68, 0
2, 53360, Note_on_c, 0, 72, 66
2, 53418, Note_on_c, 0, 72, 0
2, 53472, Control_c, 0, 64, 56
2, 53509, Note_on_c, 0, 75, 71
2, 53539, Control_c, 0, 64, 57
2, 53571, Note_on_c, 0, 75, 0
2, 53631, Control_c, 0, 64, 57
2, 53653, Note_on_c, 0, 79, 71
2, 53737, Control_c, 0, 64, 58
2, 53804, Note_on_c, 0, 70, 65
2, 53831, Note_on_c, 0, 79, 0
2, 53934, Control_c, 0, 64, 57
2, 53951, Note_on_c, 0, 48, 53
2, 53953, Note_on_c, 0, 69, 68
2, 53962, Note_on_c, 0, 70, 0
2, 53999, Note_on_c, 0, 48, 0
2, 54025, Control_c, 0, 64, 57
2, 54109, Note_on_c, 0, 62, 73
2, 54115, Note_on_c, 0, 77, 74
2, 54170, Note_on_c, 0, 69, 0
2, 54271, Note_on_c, 0, 68, 71
2, 54290, Note_on_c, 0, 62, 0
2, 54308, Note_on_c, 0, 77, 0
2, 54399, Control_c, 0, 64, 57
2, 54418, Note_on_c, 0, 46, 73
2, 54424, Note_on_c, 0, 67, 67
2, 54447, Note_on_c, 0, 68, 0
2, 54505, Control_c, 0, 64, 57
2, 54508, Note_on_c, 0, 46, 0
2, 54570, Note_on_c, 0, 75, 73
2, 54581, Note_on_c, 0, 60, 79
2, 54611, Control_c, 0, 64, 57
2, 54628, Note_on_c, 0, 67, 0
2, 54667, Note_on_c, 0, 60, 0
2, 54721, Note_on_c, 0, 66, 69
2, 54774, Note_on_c, 0, 75, 0
2, 54779, Control_c, 0, 64, 58
2, 54869, Note_on_c, 0, 45, 72
2, 54875, Note_on_c, 0, 65, 70
2, 54886, Note_on_c, 0, 66, 0
2, 54953, Note_on_c, 0, 45, 0
2, 54958, Note_on_c, 0, 65, 0
2, 55035, Note_on_c, 0, 46, 72
2, 55193, Note_on_c, 0, 74, 71
2, 55289, Control_c, 0, 64, 58
2, 55305, Note_on_c, 0, 46, 0
2, 55339, Note_on_c, 0, 72, 80
2, 55377, Note_on_c, 0, 74, 0
2, 55380, Control_c, 0, 64, 59
2, 55425, Control_c, 0, 64, 59
2, 55497, Note_on_c, 0, 74, 79
2, 55517, Control_c, 0, 64, 60
2, 55517, Note_on_c, 0, 72, 0
2, 55645, Note_on_c, 0, 70, 78
2, 55646, Note_on_c, 0, 62, 67
2, 55679, Note_on_c, 0, 74, 0
2, 55801, Note_on_c, 0, 69, 83
2, 55802, Note_on_c, 0, 60, 76
2, 55816, Note_on_c, 0, 62, 0
2, 55833, Note_on_c, 0, 70, 0
2, 55949, Note_on_c, 0, 70, 81
2, 55955, Note_on_c, 0, 60, 0
2, 55959, Note_on_c, 0, 69, 0
2, 55960, Note_on_c, 0, 62, 75
2, 55996, Note_on_c, 0, 62, 0
2, 56028, Note_on_c, 0, 70, 0
2, 56092, Note_on_c, 0, 74, 77
2, 56167, Note_on_c, 0, 74, 0
2, 56239, Note_on_c, 0, 77, 77
2, 56254, Control_c, 0, 64, 60
2, 56315, Control_c, 0, 64, 61
2, 56330, Note_on_c, 0, 77, 0
2, 56392, Note_on_c, 0, 80, 82
2, 56436, Control_c, 0, 64, 61
2, 56554, Note_on_c, 0, 72, 79
2, 56609, Note_on_c, 0, 80, 0
2, 56641, Control_c, 0, 64, 61
2, 56694, Note_on_c, 0, 50, 66
2, 56704, Note_on_c, 0, 71, 73
2, 56710, Note_on_c, 0, 72, 0
2, 56758, Note_on_c, 0, 50, 0
2, 56856, Note_on_c, 0, 63, 81
2, 56863, Note_on_c, 0, 79, 77
2, 56903, Note_on_c, 0, 71, 0
2, 56916, Control_c, 0, 64, 61
2, 57015, Note_on_c, 0, 70, 78
2, 57058, Note_on_c, 0, 79, 0
2, 57063, Note_on_c, 0, 63, 0
2, 57082, Control_c, 0, 64, 61
2, 57151, Note_on_c, 0, 48, 72
2, 57159, Control_c, 0, 64, 60
2, 57164, Note_on_c, 0, 69, 70
2, 57198, Note_on_c, 0, 70, 0
2, 57204, Control_c, 0, 64, 60
2, 57218, Note_on_c, 0, 48, 0
2, 57265, Control_c, 0, 64, 59
2, 57304, Note_on_c, 0, 62, 78
2, 57315, Note_on_c, 0, 77, 81
2, 57349, Control_c, 0, 64, 60
2, 57385, Note_on_c, 0, 69, 0
2, 57408, Note_on_c, 0, 62, 0
2, 57474, Note_on_c, 0, 68, 74
2, 57523, Note_on_c, 0, 77, 0
2, 57615, Note_on_c, 0, 47, 70
2, 57622, Note_on_c, 0, 67, 70
2, 57627, Note_on_c, 0, 68, 0
2, 57686, Note_on_c, 0, 47, 0
2, 57697, Note_on_c, 0, 67, 0
2, 57771, Note_on_c, 0, 48, 70
2, 57935, Note_on_c, 0, 75, 80
2, 58016, Note_on_c, 0, 48, 0
2, 58082, Note_on_c, 0, 74, 81
2, 58124, Note_on_c, 0, 75, 0
2, 58242, Note_on_c, 0, 75, 89
2, 58262, Note_on_c, 0, 74, 0
2, 58399, Note_on_c, 0, 72, 83
2, 58401, Note_on_c, 0, 63, 69
2, 58439, Note_on_c, 0, 75, 0
2, 58541, Note_on_c, 0, 71, 82
2, 58543, Note_on_c, 0, 62, 77
2, 58561, Note_on_c, 0, 63, 0
2, 58567, Note_on_c, 0, 72, 0
2, 58686, Note_on_c, 0, 63, 79
2, 58687, Note_on_c, 0, 71, 0
2, 58689, Note_on_c, 0, 62, 0
2, 58693, Note_on_c, 0, 72, 90
2, 58726, Control_c, 0, 64, 60
2, 58742, Note_on_c, 0, 63, 0
2, 58771, Note_on_c, 0, 72, 0
2, 58802, Control_c, 0, 64, 61
2, 58838, Note_on_c, 0, 75, 88
2, 58925, Note_on_c, 0, 75, 0
2, 58982, Note_on_c, 0, 79, 81
2, 59037, Control_c, 0, 64, 61
2, 59063, Note_on_c, 0, 79, 0
2, 59161, Note_on_c, 0, 84, 81
2, 59205, Control_c, 0, 64, 62
2, 59327, Note_on_c, 0, 68, 64
2, 59448, Control_c, 0, 64, 61
2, 59481, Note_on_c, 0, 67, 66
2, 59482, Note_on_c, 0, 83, 85
2, 59502, Note_on_c, 0, 68, 0
2, 59525, Note_on_c, 0, 84, 0
2, 59642, Note_on_c, 0, 68, 71
2, 59649, Note_on_c, 0, 84, 91
2, 59657, Note_on_c, 0, 67, 0
2, 59702, Note_on_c, 0, 83, 0
2, 59774, Control_c, 0, 64, 61
2, 59782, Note_on_c, 0, 63, 69
2, 59797, Note_on_c, 0, 79, 86
2, 59800, Note_on_c, 0, 68, 0
2, 59819, Control_c, 0, 64, 61
2, 59846, Note_on_c, 0, 84, 0
2, 59911, Control_c, 0, 64, 61
2, 59938, Note_on_c, 0, 60, 69
2, 59941, Note_on_c, 0, 80, 80
2, 59958, Note_on_c, 0, 63, 0
2, 59971, Note_on_c, 0, 79, 0
2, 60048, Control_c, 0, 64, 60
2, 60048, Note_on_c, 0, 80, 0
2, 60068, Note_on_c, 0, 60, 0
2, 60090, Note_on_c, 0, 67, 71
2, 60094, Control_c, 0, 64, 61
2, 60244, Note_on_c, 0, 78, 81
2, 60247, Note_on_c, 0, 62, 64
2, 60261, Note_on_c, 0, 67, 0
2, 60354, Control_c, 0, 64, 60
2, 60381, Note_on_c, 0, 79, 80
2, 60387, Note_on_c, 0, 58, 62
2, 60388, Note_on_c, 0, 62, 0
2, 60412, Note_on_c, 0, 78, 0
2, 60482, Note_on_c, 0, 79, 0
2, 60528, Note_on_c, 0, 58, 0
2, 60550, Note_on_c, 0, 84, 73
2, 60558, Note_on_c, 0, 66, 62
2, 60696, Note_on_c, 0, 66, 0
2, 60699, Note_on_c, 0, 60, 61
2, 60725, Control_c, 0, 64, 60
2, 60833, Note_on_c, 0, 60, 0
2, 60844, Note_on_c, 0, 78, 74
2, 60846, Note_on_c, 0, 57, 56
2, 60879, Note_on_c, 0, 84, 0
2, 60972, Note_on_c, 0, 57, 0
2, 60994, Note_on_c, 0, 63, 55
2, 60995, Note_on_c, 0, 79, 70
2, 61002, Note_on_c, 0, 78, 0
2, 61121, Control_c, 0, 64, 59
2, 61143, Note_on_c, 0, 58, 54
2, 61152, Note_on_c, 0, 74, 63
2, 61152, Note_on_c, 0, 79, 0
2, 61159, Note_on_c, 0, 63, 0
2, 61298, Note_on_c, 0, 75, 61
2, 61304, Note_on_c, 0, 55, 53
2, 61304, Note_on_c, 0, 58, 0
2, 61341, Note_on_c, 0, 74, 0
2, 61425, Note_on_c, 0, 75, 0
2, 61456, Note_on_c, 0, 55, 0
2, 61462, Note_on_c, 0, 62, 59
2, 61582, Note_on_c, 0, 62, 0
2, 61609, Note_on_c, 0, 57, 60
2, 61613, Note_on_c, 0, 73, 60
2, 61729, Note_on_c, 0, 73, 0
2, 61741, Note_on_c, 0, 57, 0
2, 61754, Note_on_c, 0, 54, 59
2, 61757, Note_on_c, 0, 74, 62
2, 61899, Note_on_c, 0, 54, 0
2, 61913, Note_on_c, 0, 55, 66
2, 61920, Note_on_c, 0, 82, 63
2, 61963, Note_on_c, 0, 74, 0
2, 62003, Control_c, 0, 64, 59
2, 62022, Note_on_c, 0, 55, 0
2, 62080, Note_on_c, 0, 79, 65
2, 62121, Note_on_c, 0, 82, 0
2, 62155, Control_c, 0, 64, 59
2, 62218, Note_on_c, 0, 79, 0
2, 62223, Note_on_c, 0, 74, 69
2, 62370, Note_on_c, 0, 48, 79
2, 62382, Note_on_c, 0, 75, 75
2, 62412, Note_on_c, 0, 74, 0
2, 62527, Note_on_c, 0, 48, 0
2, 62527, Note_on_c, 0, 79, 74
2, 62560, Note_on_c, 0, 75, 0
2, 62625, Control_c, 0, 64, 60
2, 62674, Note_on_c, 0, 84, 74
2, 62683, Note_on_c, 0, 79, 0
2, 62837, Note_on_c, 0, 49, 72
2, 62842, Note_on_c, 0, 82, 76
2, 62870, Note_on_c, 0, 84, 0
2, 62908, Control_c, 0, 64, 60
2, 62953, Control_c, 0, 64, 61
2, 62961, Note_on_c, 0, 49, 0
2, 63002, Note_on_c, 0, 81, 68
2, 63041, Note_on_c, 0, 82, 0
2, 63075, Control_c, 0, 64, 61
2, 63127, Note_on_c, 0, 79, 65
2, 63153, Note_on_c, 0, 81, 0
2, 63211, Control_c, 0, 64, 62
2, 63271, Note_on_c, 0, 79, 0
2, 63298, Note_on_c, 0, 50, 52
2, 63298, Note_on_c, 0, 78, 60
2, 63359, Note_on_c, 0, 78, 0
2, 63363, Note_on_c, 0, 79, 60
2, 63430, Note_on_c, 0, 81, 63
2, 63431, Note_on_c, 0, 79, 0
2, 63539, Control_c, 0, 64, 61
2, 63555, Note_on_c, 0, 81, 0
2, 63590, Note_on_c, 0, 74, 67
2, 63676, Control_c, 0, 64, 62
2, 63724, Note_on_c, 0, 50, 0
2, 63751, Note_on_c, 0, 75, 73
2, 63752, Control_c, 0, 64, 62
2, 63773, Note_on_c, 0, 74, 0
2, 63781, Control_c, 0, 64, 62
2, 63827, Control_c, 0, 64, 62
2, 63883, Note_on_c, 0, 74, 72
2, 63912, Note_on_c, 0, 75, 0
2, 63934, Control_c, 0, 64, 62
2, 64028, Note_on_c, 0, 38, 68
2, 64032, Note_on_c, 0, 72, 74
2, 64036, Note_on_c, 0, 74, 0
2, 64113, Note_on_c, 0, 38, 0
2, 64180, Note_on_c, 0, 40, 75
2, 64194, Note_on_c, 0, 70, 68
2, 64208, Control_c, 0, 64, 61
2, 64249, Note_on_c, 0, 72, 0
2, 64352, Note_on_c, 0, 72, 82
2, 64383, Control_c, 0, 64, 61
2, 64383, Note_on_c, 0, 70, 0
2, 64405, Note_on_c, 0, 40, 0
2, 64473, Note_on_c, 0, 42, 75
2, 64488, Note_on_c, 0, 69, 73
2, 64489, Control_c, 0, 64, 60
2, 64504, Note_on_c, 0, 72, 0
2, 64555, Note_on_c, 0, 42, 0
2, 64561, Note_on_c, 0, 69, 0
2, 64633, Note_on_c, 0, 43, 75
2, 64641, Control_c, 0, 64, 60
2, 64646, Note_on_c, 0, 70, 74
2, 64726, Note_on_c, 0, 43, 0
2, 64729, Note_on_c, 0, 70, 0
2, 64777, Control_c, 0, 64, 59
2, 64796, Note_on_c, 0, 74, 75
2, 64839, Control_c, 0, 64, 59
2, 64867, Note_on_c, 0, 74, 0
2, 64937, Note_on_c, 0, 79, 74
2, 65032, Note_on_c, 0, 79, 0
2, 65103, Note_on_c, 0, 82, 78
2, 65105, Note_on_c, 0, 55, 71
2, 65191, Note_on_c, 0, 55, 0
2, 65228, Control_c, 0, 64, 58
2, 65251, Note_on_c, 0, 81, 70
2, 65285, Note_on_c, 0, 82, 0
2, 65378, Control_c, 0, 64, 58
2, 65404, Note_on_c, 0, 79, 67
2, 65427, Note_on_c, 0, 81, 0
2, 65493, Note_on_c, 0, 79, 0
2, 65515, Control_c, 0, 64, 58
2, 65552, Note_on_c, 0, 53, 70
2, 65660, Note_on_c, 0, 53, 0
2, 65697, Note_on_c, 0, 70, 69
2, 65798, Control_c, 0, 64, 59
2, 65844, Note_on_c, 0, 79, 75
2, 65873, Note_on_c, 0, 70, 0
2, 65998, Note_on_c, 0, 79, 0
2, 66001, Note_on_c, 0, 51, 65
2, 66005, Note_on_c, 0, 72, 72
2, 66068, Note_on_c, 0, 51, 0
2, 66076, Note_on_c, 0, 72, 0
2, 66144, Note_on_c, 0, 75, 73
2, 66193, Control_c, 0, 64, 59
2, 66230, Note_on_c, 0, 75, 0
2, 66278, Note_on_c, 0, 79, 69
2, 66373, Note_on_c, 0, 79, 0
2, 66436, Note_on_c, 0, 39, 50
2, 66436, Note_on_c, 0, 82, 69
2, 66481, Control_c, 0, 64, 60
2, 66509, Note_on_c, 0, 39, 0
2, 66597, Note_on_c, 0, 81, 63
2, 66603, Note_on_c, 0, 82, 0
2, 66749, Note_on_c, 0, 79, 61
2, 66761, Note_on_c, 0, 81, 0
2, 66808, Control_c, 0, 64, 60
2, 66834, Note_on_c, 0, 79, 0
2, 66885, Note_on_c, 0, 46, 54
2, 66974, Note_on_c, 0, 46, 0
2, 66976, Control_c, 0, 64, 61
2, 67052, Note_on_c, 0, 74, 63
2, 67188, Note_on_c, 0, 79, 66
2, 67218, Note_on_c, 0, 74, 0
2, 67249, Control_c, 0, 64, 60
2, 67330, Note_on_c, 0, 79, 0
2, 67348, Note_on_c, 0, 48, 60
2, 67351, Note_on_c, 0, 75, 70
2, 67414, Note_on_c, 0, 48, 0
2, 67435, Note_on_c, 0, 75, 0
2, 67486, Control_c, 0, 64, 60
2, 67495, Note_on_c, 0, 78, 69
2, 67556, Note_on_c, 0, 78, 0
2, 67636, Note_on_c, 0, 79, 70
2, 67712, Note_on_c, 0, 79, 0
2, 67783, Note_on_c, 0, 49, 58
2, 67793, Note_on_c, 0, 70, 63
2, 67865, Note_on_c, 0, 49, 0
2, 67907, Note_on_c, 0, 70, 0
2, 67926, Control_c, 0, 64, 59
2, 67942, Note_on_c, 0, 69, 61
2, 68092, Note_on_c, 0, 67, 56
2, 68101, Control_c, 0, 64, 59
2, 68131, Note_on_c, 0, 69, 0
2, 68196, Note_on_c, 0, 67, 0
2, 68233, Note_on_c, 0, 50, 54
2, 68334, Note_on_c, 0, 50, 0
2, 68390, Note_on_c, 0, 72, 65
2, 68420, Control_c, 0, 64, 58
2, 68532, Note_on_c, 0, 66, 60
2, 68541, Note_on_c, 0, 72, 0
2, 68649, Note_on_c, 0, 66, 0
2, 68682, Note_on_c, 0, 43, 42
2, 68691, Note_on_c, 0, 67, 61
2, 68694, Control_c, 0, 64, 58
2, 68762, Note_on_c, 0, 67, 0
2, 68837, Note_on_c, 0, 70, 57
2, 68869, Control_c, 0, 64, 57
2, 68923, Note_on_c, 0, 70, 0
2, 68960, Control_c, 0, 64, 57
2, 68984, Note_on_c, 0, 74, 61
2, 69006, Control_c, 0, 64, 56
2, 69028, Note_on_c, 0, 74, 0
2, 69068, Control_c, 0, 64, 56
2, 69152, Note_on_c, 0, 79, 64
2, 69205, Note_on_c, 0, 79, 0
2, 69219, Control_c, 0, 64, 56
2, 69264, Control_c, 0, 64, 57
2, 69295, Control_c, 0, 64, 57
2, 69298, Note_on_c, 0, 46, 49
2, 69310, Control_c, 0, 64, 58
2, 69318, Note_on_c, 0, 43, 0
2, 69340, Control_c, 0, 64, 58
2, 69424, Note_on_c, 0, 46, 0
2, 69435, Note_on_c, 0, 50, 47
2, 69492, Control_c, 0, 64, 58
2, 69619, Note_on_c, 0, 50, 0
2, 69634, Note_on_c, 0, 53, 51
2, 69654, Note_on_c, 0, 70, 72
2, 69713, Control_c, 0, 64, 57
2, 69720, Note_on_c, 0, 70, 0
2, 69721, Note_on_c, 0, 69, 79
2, 69792, Note_on_c, 0, 53, 0
2, 69793, Note_on_c, 0, 70, 76
2, 69804, Note_on_c, 0, 69, 0
2, 69806, Note_on_c, 0, 52, 50
2, 69957, Note_on_c, 0, 52, 0
2, 69966, Note_on_c, 0, 50, 53
2, 69972, Control_c, 0, 64, 57
2, 70003, Control_c, 0, 64, 56
2, 70048, Control_c, 0, 64, 56
2, 70078, Control_c, 0, 64, 55
2, 70093, Control_c, 0, 64, 55
2, 70136, Note_on_c, 0, 52, 52
2, 70144, Note_on_c, 0, 50, 0
2, 70300, Note_on_c, 0, 73, 64
2, 70305, Control_c, 0, 64, 55
2, 70322, Note_on_c, 0, 70, 0
2, 70450, Control_c, 0, 64, 56
2, 70452, Note_on_c, 0, 72, 73
2, 70498, Note_on_c, 0, 73, 0
2, 70511, Control_c, 0, 64, 56
2, 70565, Note_on_c, 0, 52, 0
2, 70608, Note_on_c, 0, 73, 74
2, 70620, Note_on_c, 0, 72, 0
2, 70665, Note_on_c, 0, 73, 0
2, 70748, Note_on_c, 0, 70, 69
2, 70801, Note_on_c, 0, 70, 0
2, 70899, Note_on_c, 0, 67, 61
2, 70922, Control_c, 0, 64, 57
2, 70950, Note_on_c, 0, 67, 0
2, 71057, Note_on_c, 0, 64, 59
2, 71219, Note_on_c, 0, 55, 42
2, 71366, Note_on_c, 0, 48, 41
2, 71377, Note_on_c, 0, 70, 58
2, 71392, Note_on_c, 0, 64, 0
2, 71439, Note_on_c, 0, 55, 0
2, 71446, Control_c, 0, 64, 57
2, 71523, Control_c, 0, 64, 58
2, 71531, Note_on_c, 0, 53, 46
2, 71583, Control_c, 0, 64, 58
2, 71602, Note_on_c, 0, 48, 0
2, 71659, Control_c, 0, 64, 59
2, 71696, Note_on_c, 0, 68, 60
2, 71708, Note_on_c, 0, 70, 0
2, 71752, Control_c, 0, 64, 59
2, 71792, Note_on_c, 0, 68, 0
2, 71812, Control_c, 0, 64, 60
2, 71840, Note_on_c, 0, 67, 72
2, 71887, Control_c, 0, 64, 60
2, 71895, Note_on_c, 0, 67, 0
2, 71908, Note_on_c, 0, 53, 0
2, 72002, Note_on_c, 0, 68, 75
2, 72152, Note_on_c, 0, 72, 71
2, 72199, Control_c, 0, 64, 60
2, 72301, Note_on_c, 0, 77, 75
2, 72428, Control_c, 0, 64, 59
2, 72453, Note_on_c, 0, 80, 74
2, 72599, Note_on_c, 0, 48, 59
2, 72658, Note_on_c, 0, 68, 0
2, 72756, Note_on_c, 0, 51, 70
2, 72761, Note_on_c, 0, 72, 0
2, 72790, Note_on_c, 0, 77, 0
2, 72853, Note_on_c, 0, 48, 0
2, 72896, Note_on_c, 0, 80, 0
2, 72918, Note_on_c, 0, 50, 70
2, 72971, Note_on_c, 0, 51, 0
2, 73043, Control_c, 0, 64, 59
2, 73077, Note_on_c, 0, 80, 80
2, 73179, Control_c, 0, 64, 58
2, 73220, Note_on_c, 0, 79, 78
2, 73266, Note_on_c, 0, 80, 0
2, 73329, Note_on_c, 0, 50, 0
2, 73378, Note_on_c, 0, 80, 75
2, 73409, Note_on_c, 0, 79, 0
2, 73475, Note_on_c, 0, 80, 0
2, 73491, Control_c, 0, 64, 59
2, 73525, Note_on_c, 0, 77, 77
2, 73585, Note_on_c, 0, 77, 0
2, 73681, Note_on_c, 0, 74, 72
2, 73746, Note_on_c, 0, 74, 0
2, 73836, Note_on_c, 0, 70, 67
2, 73982, Note_on_c, 0, 62, 43
2, 74145, Note_on_c, 0, 58, 45
2, 74146, Note_on_c, 0, 80, 63
2, 74152, Note_on_c, 0, 62, 0
2, 74209, Note_on_c, 0, 70, 0
2, 74323, Note_on_c, 0, 63, 46
2, 74360, Note_on_c, 0, 58, 0
2, 74426, Control_c, 0, 64, 58
2, 74431, Note_on_c, 0, 80, 0
2, 74479, Note_on_c, 0, 79, 67
2, 74552, Note_on_c, 0, 79, 0
2, 74626, Note_on_c, 0, 77, 66
2, 74685, Note_on_c, 0, 77, 0
2, 74761, Note_on_c, 0, 63, 0
2, 74773, Note_on_c, 0, 79, 62
2, 74929, Note_on_c, 0, 75, 59
2, 74943, Note_on_c, 0, 79, 0
2, 75084, Note_on_c, 0, 75, 0
2, 75086, Note_on_c, 0, 70, 59
2, 75224, Control_c, 0, 64, 58
2, 75248, Note_on_c, 0, 70, 0
2, 75255, Note_on_c, 0, 67, 64
2, 75317, Control_c, 0, 64, 57
2, 75324, Note_on_c, 0, 67, 0
2, 75389, Note_on_c, 0, 70, 66
2, 75393, Note_on_c, 0, 55, 51
2, 75445, Note_on_c, 0, 70, 0
2, 75530, Note_on_c, 0, 55, 0
2, 75548, Note_on_c, 0, 73, 64
2, 75549, Note_on_c, 0, 51, 50
2, 75668, Note_on_c, 0, 51, 0
2, 75711, Note_on_c, 0, 56, 56
2, 75742, Control_c, 0, 64, 57
2, 75841, Control_c, 0, 64, 56
2, 75845, Note_on_c, 0, 56, 0
2, 75864, Note_on_c, 0, 72, 62
2, 75866, Note_on_c, 0, 51, 49
2, 75880, Note_on_c, 0, 73, 0
2, 75902, Control_c, 0, 64, 56
2, 75963, Control_c, 0, 64, 55
2, 76016, Note_on_c, 0, 49, 52
2, 76022, Note_on_c, 0, 51, 0
2, 76025, Note_on_c, 0, 70, 66
2, 76029, Note_on_c, 0, 72, 0
2, 76145, Note_on_c, 0, 49, 0
2, 76179, Note_on_c, 0, 48, 55
2, 76184, Note_on_c, 0, 68, 71
2, 76189, Note_on_c, 0, 70, 0
2, 76206, Control_c, 0, 64, 55
2, 76243, Note_on_c, 0, 68, 0
2, 76320, Note_on_c, 0, 48, 0
2, 76324, Note_on_c, 0, 67, 67
2, 76331, Note_on_c, 0, 46, 55
2, 76375, Note_on_c, 0, 67, 0
2, 76486, Note_on_c, 0, 65, 69
2, 76491, Note_on_c, 0, 44, 60
2, 76499, Note_on_c, 0, 46, 0
2, 76549, Control_c, 0, 64, 55
2, 76624, Control_c, 0, 64, 56
2, 76652, Note_on_c, 0, 43, 63
2, 76660, Note_on_c, 0, 44, 0
2, 76801, Note_on_c, 0, 63, 72
2, 76802, Note_on_c, 0, 43, 0
2, 76808, Note_on_c, 0, 65, 0
2, 76816, Note_on_c, 0, 48, 64
2, 76867, Note_on_c, 0, 63, 0
2, 76870, Control_c, 0, 64, 56
2, 76960, Control_c, 0, 64, 57
2, 76961, Note_on_c, 0, 66, 71
2, 76966, Note_on_c, 0, 46, 65
2, 77006, Control_c, 0, 64, 57
2, 77021, Note_on_c, 0, 48, 0
2, 77067, Control_c, 0, 64, 58
2, 77112, Control_c, 0, 64, 58
2, 77121, Note_on_c, 0, 45, 64
2, 77166, Note_on_c, 0, 46, 0
2, 77188, Control_c, 0, 64, 59
2, 77219, Control_c, 0, 64, 59
2, 77278, Note_on_c, 0, 45, 0
2, 77286, Note_on_c, 0, 46, 72
2, 77303, Control_c, 0, 64, 60
2, 77303, Note_on_c, 0, 65, 67
2, 77338, Note_on_c, 0, 66, 0
2, 77371, Note_on_c, 0, 45, 68
2, 77372, Note_on_c, 0, 46, 0
2, 77434, Note_on_c, 0, 63, 62
2, 77437, Note_on_c, 0, 65, 0
2, 77438, Note_on_c, 0, 45, 0
2, 77457, Note_on_c, 0, 43, 61
2, 77525, Note_on_c, 0, 45, 58
2, 77526, Note_on_c, 0, 43, 0
2, 77584, Note_on_c, 0, 63, 0
2, 77602, Note_on_c, 0, 62, 62
2, 77608, Note_on_c, 0, 46, 60
2, 77628, Note_on_c, 0, 45, 0
2, 77749, Note_on_c, 0, 60, 63
2, 77761, Note_on_c, 0, 62, 0
2, 77777, Note_on_c, 0, 46, 0
2, 77905, Note_on_c, 0, 58, 63
2, 77911, Control_c, 0, 64, 60
2, 77924, Note_on_c, 0, 60, 0
2, 78086, Note_on_c, 0, 56, 64
2, 78088, Note_on_c, 0, 58, 0
2, 78145, Note_on_c, 0, 56, 0
2, 78173, Control_c, 0, 64, 60
2, 78244, Note_on_c, 0, 55, 61
2, 78294, Note_on_c, 0, 55, 0
2, 78389, Note_on_c, 0, 53, 56
2, 78432, Note_on_c, 0, 53, 0
2, 78551, Note_on_c, 0, 55, 58
2, 78560, Note_on_c, 0, 46, 49
2, 78710, Note_on_c, 0, 63, 62
2, 78717, Note_on_c, 0, 55, 0
2, 78721, Note_on_c, 0, 46, 0
2, 78777, Note_on_c, 0, 63, 0
2, 78781, Control_c, 0, 64, 59
2, 78851, Control_c, 0, 64, 60
2, 78862, Note_on_c, 0, 62, 57
2, 78903, Note_on_c, 0, 62, 0
2, 79025, Note_on_c, 0, 63, 64
2, 79174, Note_on_c, 0, 63, 0
2, 79181, Note_on_c, 0, 58, 56
2, 79215, Control_c, 0, 64, 59
2, 79304, Note_on_c, 0, 58, 0
2, 79317, Note_on_c, 0, 56, 58
2, 79378, Note_on_c, 0, 56, 0
2, 79472, Control_c, 0, 64, 59
2, 79481, Note_on_c, 0, 55, 63
2, 79519, Control_c, 0, 64, 58
2, 79537, Note_on_c, 0, 55, 0
2, 79636, Note_on_c, 0, 53, 64
2, 79683, Note_on_c, 0, 53, 0
2, 79756, Control_c, 0, 64, 58
2, 79778, Note_on_c, 0, 51, 65
2, 79819, Note_on_c, 0, 51, 0
2, 79945, Note_on_c, 0, 50, 62
2, 79950, Note_on_c, 0, 46, 52
2, 80107, Note_on_c, 0, 65, 65
2, 80120, Control_c, 0, 64, 57
2, 80123, Note_on_c, 0, 50, 0
2, 80126, Note_on_c, 0, 46, 0
2, 80155, Note_on_c, 0, 65, 0
2, 80252, Note_on_c, 0, 63, 64
2, 80257, Control_c, 0, 64, 57
2, 80306, Note_on_c, 0, 63, 0
2, 80415, Note_on_c, 0, 65, 70
2, 80493, Control_c, 0, 64, 57
2, 80555, Control_c, 0, 64, 58
2, 80564, Note_on_c, 0, 62, 66
2, 80574, Note_on_c, 0, 65, 0
2, 80600, Control_c, 0, 64, 58
2, 80624, Note_on_c, 0, 62, 0
2, 80713, Note_on_c, 0, 58, 70
2, 80770, Note_on_c, 0, 58, 0
2, 80780, Control_c, 0, 64, 58
2, 80826, Control_c, 0, 64, 57
2, 80870, Note_on_c, 0, 56, 68
2, 80902, Control_c, 0, 64, 57
2, 80939, Note_on_c, 0, 56, 0
2, 80978, Control_c, 0, 64, 56
2, 81025, Note_on_c, 0, 55, 67
2, 81082, Note_on_c, 0, 55, 0
2, 81085, Control_c, 0, 64, 56
2, 81175, Note_on_c, 0, 53, 71
2, 81237, Note_on_c, 0, 53, 0
2, 81335, Note_on_c, 0, 51, 70
2, 81343, Note_on_c, 0, 46, 60
2, 81496, Note_on_c, 0, 67, 76
2, 81527, Note_on_c, 0, 46, 0
2, 81529, Note_on_c, 0, 51, 0
2, 81566, Note_on_c, 0, 67, 0
2, 81645, Note_on_c, 0, 65, 75
2, 81696, Note_on_c, 0, 65, 0
2, 81798, Note_on_c, 0, 67, 80
2, 81839, Control_c, 0, 64, 56
2, 81869, Control_c, 0, 64, 57
2, 81922, Control_c, 0, 64, 57
2, 81952, Control_c, 0, 64, 58
2, 81959, Note_on_c, 0, 63, 67
2, 81967, Control_c, 0, 64, 58
2, 81976, Note_on_c, 0, 67, 0
2, 82029, Note_on_c, 0, 63, 0
2, 82058, Control_c, 0, 64, 59
2, 82096, Note_on_c, 0, 60, 76
2, 82134, Note_on_c, 0, 60, 0
2, 82150, Control_c, 0, 64, 58
2, 82226, Control_c, 0, 64, 58
2, 82247, Note_on_c, 0, 58, 78
2, 82313, Note_on_c, 0, 58, 0
2, 82404, Note_on_c, 0, 56, 77
2, 82439, Control_c, 0, 64, 57
2, 82462, Note_on_c, 0, 56, 0
2, 82530, Control_c, 0, 64, 57
2, 82548, Note_on_c, 0, 55, 64
2, 82590, Control_c, 0, 64, 56
2, 82603, Note_on_c, 0, 55, 0
2, 82713, Note_on_c, 0, 46, 59
2, 82713, Note_on_c, 0, 50, 64
2, 82715, Note_on_c, 0, 53, 55
2, 82721, Control_c, 0, 64, 56
2, 82741, Note_on_c, 0, 52, 38
2, 82742, Note_on_c, 0, 52, 0
2, 82842, Control_c, 0, 64, 56
2, 82879, Note_on_c, 0, 68, 82
2, 82895, Note_on_c, 0, 46, 0
2, 82926, Note_on_c, 0, 50, 0
2, 82962, Note_on_c, 0, 53, 0
2, 82963, Note_on_c, 0, 68, 0
2, 83028, Note_on_c, 0, 67, 83
2, 83092, Note_on_c, 0, 67, 0
2, 83183, Note_on_c, 0, 68, 90
2, 83268, Control_c, 0, 64, 57
2, 83328, Note_on_c, 0, 65, 79
2, 83344, Control_c, 0, 64, 57
2, 83351, Note_on_c, 0, 68, 0
2, 83416, Note_on_c, 0, 65, 0
2, 83419, Control_c, 0, 64, 58
2, 83443, Control_c, 0, 64, 58
2, 83489, Control_c, 0, 64, 59
2, 83496, Note_on_c, 0, 62, 80
2, 83503, Control_c, 0, 64, 59
2, 83534, Control_c, 0, 64, 60
2, 83565, Control_c, 0, 64, 60
2, 83566, Note_on_c, 0, 62, 0
2, 83666, Note_on_c, 0, 60, 82
2, 83670, Control_c, 0, 64, 61
2, 83725, Note_on_c, 0, 60, 0
2, 83746, Control_c, 0, 64, 61
2, 83826, Note_on_c, 0, 58, 79
2, 83839, Control_c, 0, 64, 62
2, 83868, Control_c, 0, 64, 62
2, 83913, Note_on_c, 0, 58, 0
2, 83980, Note_on_c, 0, 56, 74
2, 84077, Note_on_c, 0, 56, 0
2, 84209, Control_c, 0, 64, 62
2, 84214, Note_on_c, 0, 55, 54
2, 84222, Note_on_c, 0, 70, 81
2, 84226, Note_on_c, 0, 67, 68
2, 84229, Note_on_c, 0, 63, 61
2, 84269, Control_c, 0, 64, 61
2, 84347, Note_on_c, 0, 55, 0
2, 84361, Control_c, 0, 64, 61
2, 84438, Control_c, 0, 64, 60
2, 84467, Note_on_c, 0, 58, 73
2, 84529, Control_c, 0, 64, 60
2, 84559, Control_c, 0, 64, 59
2, 84606, Note_on_c, 0, 56, 80
2, 84630, Note_on_c, 0, 58, 0
2, 84725, Note_on_c, 0, 56, 0
2, 84766, Note_on_c, 0, 58, 77
2, 84840, Note_on_c, 0, 58, 0
2, 84847, Note_on_c, 0, 67, 0
2, 84869, Note_on_c, 0, 63, 0
2, 84891, Note_on_c, 0, 70, 0
2, 84920, Note_on_c, 0, 55, 78
2, 84982, Note_on_c, 0, 55, 0
2, 85069, Note_on_c, 0, 51, 78
2, 85128, Note_on_c, 0, 51, 0
2, 85224, Note_on_c, 0, 46, 70
2, 85336, Note_on_c, 0, 46, 0
2, 85379, Note_on_c, 0, 67, 74
2, 85510, Control_c, 0, 64, 60
2, 85518, Note_on_c, 0, 75, 80
2, 85547, Note_on_c, 0, 67, 0
2, 85603, Note_on_c, 0, 75, 0
2, 85617, Control_c, 0, 64, 60
2, 85680, Note_on_c, 0, 75, 57
2, 85691, Note_on_c, 0, 65, 59
2, 85776, Control_c, 0, 64, 61
2, 85839, Note_on_c, 0, 58, 45
2, 85859, Note_on_c, 0, 74, 56
2, 85913, Note_on_c, 0, 75, 0
2, 86000, Note_on_c, 0, 57, 62
2, 86020, Note_on_c, 0, 58, 0
2, 86131, Note_on_c, 0, 57, 0
2, 86160, Note_on_c, 0, 58, 70
2, 86214, Note_on_c, 0, 58, 0
2, 86231, Note_on_c, 0, 65, 0
2, 86263, Note_on_c, 0, 74, 0
2, 86318, Note_on_c, 0, 53, 61
2, 86362, Note_on_c, 0, 53, 0
2, 86467, Note_on_c, 0, 50, 58
2, 86552, Note_on_c, 0, 50, 0
2, 86640, Note_on_c, 0, 46, 50
2, 86799, Note_on_c, 0, 46, 0
2, 86821, Note_on_c, 0, 65, 47
2, 86957, Note_on_c, 0, 65, 0
2, 86970, Note_on_c, 0, 67, 51
2, 86985, Control_c, 0, 64, 60
2, 87126, Note_on_c, 0, 68, 62
2, 87128, Note_on_c, 0, 67, 0
2, 87284, Note_on_c, 0, 60, 58
2, 87304, Note_on_c, 0, 68, 0
2, 87343, Control_c, 0, 64, 60
2, 87415, Note_on_c, 0, 60, 0
2, 87433, Note_on_c, 0, 55, 56
2, 87433, Note_on_c, 0, 63, 56
2, 87492, Note_on_c, 0, 55, 0
2, 87582, Note_on_c, 0, 63, 0
2, 87586, Control_c, 0, 64, 59
2, 87589, Note_on_c, 0, 53, 60
2, 87597, Note_on_c, 0, 62, 60
2, 87636, Note_on_c, 0, 53, 0
2, 87729, Note_on_c, 0, 62, 0
2, 87741, Note_on_c, 0, 65, 53
2, 87809, Note_on_c, 0, 65, 0
2, 87880, Note_on_c, 0, 51, 64
2, 87889, Note_on_c, 0, 70, 59
2, 87924, Note_on_c, 0, 51, 0
2, 87958, Note_on_c, 0, 70, 0
2, 88033, Note_on_c, 0, 50, 66
2, 88057, Note_on_c, 0, 58, 65
2, 88110, Control_c, 0, 64, 60
2, 88110, Note_on_c, 0, 50, 0
2, 88202, Note_on_c, 0, 58, 0
2, 88208, Note_on_c, 0, 65, 58
2, 88266, Note_on_c, 0, 65, 0
2, 88352, Note_on_c, 0, 46, 57
2, 88356, Note_on_c, 0, 68, 64
2, 88397, Note_on_c, 0, 46, 0
2, 88460, Note_on_c, 0, 68, 0
2, 88504, Note_on_c, 0, 39, 61
2, 88516, Note_on_c, 0, 67, 64
2, 88579, Note_on_c, 0, 39, 0
2, 88670, Note_on_c, 0, 58, 66
2, 88678, Note_on_c, 0, 67, 0
2, 88704, Control_c, 0, 64, 59
2, 88780, Control_c, 0, 64, 59
2, 88815, Note_on_c, 0, 53, 69
2, 88825, Note_on_c, 0, 58, 0
2, 88826, Note_on_c, 0, 61, 66
2, 88848, Control_c, 0, 64, 58
2, 88879, Control_c, 0, 64, 58
2, 88892, Note_on_c, 0, 53, 0
2, 88894, Control_c, 0, 64, 57
2, 88955, Control_c, 0, 64, 57
2, 88971, Note_on_c, 0, 51, 77
2, 88985, Control_c, 0, 64, 56
2, 88986, Note_on_c, 0, 60, 69
2, 88988, Note_on_c, 0, 61, 0
2, 89015, Control_c, 0, 64, 56
2, 89054, Note_on_c, 0, 51, 0
2, 89136, Note_on_c, 0, 60, 0
2, 89137, Note_on_c, 0, 63, 66
2, 89209, Note_on_c, 0, 63, 0
2, 89213, Control_c, 0, 64, 55
2, 89269, Note_on_c, 0, 49, 73
2, 89277, Note_on_c, 0, 68, 70
2, 89304, Control_c, 0, 64, 56
2, 89339, Note_on_c, 0, 49, 0
2, 89355, Note_on_c, 0, 68, 0
2, 89426, Control_c, 0, 64, 56
2, 89428, Note_on_c, 0, 48, 73
2, 89436, Note_on_c, 0, 56, 70
2, 89488, Control_c, 0, 64, 57
2, 89519, Control_c, 0, 64, 57
2, 89524, Note_on_c, 0, 48, 0
2, 89589, Note_on_c, 0, 63, 69
2, 89617, Control_c, 0, 64, 58
2, 89636, Note_on_c, 0, 56, 0
2, 89662, Control_c, 0, 64, 58
2, 89671, Note_on_c, 0, 63, 0
2, 89736, Note_on_c, 0, 44, 79
2, 89741, Note_on_c, 0, 67, 70
2, 89753, Control_c, 0, 64, 59
2, 89800, Note_on_c, 0, 44, 0
2, 89838, Note_on_c, 0, 67, 0
2, 89895, Note_on_c, 0, 38, 71
2, 89904, Note_on_c, 0, 65, 70
2, 90008, Note_on_c, 0, 38, 0
2, 90056, Note_on_c, 0, 56, 71
2, 90057, Control_c, 0, 64, 58
2, 90106, Note_on_c, 0, 65, 0
2, 90203, Note_on_c, 0, 60, 70
2, 90206, Note_on_c, 0, 51, 81
2, 90222, Note_on_c, 0, 56, 0
2, 90255, Control_c, 0, 64, 58
2, 90289, Note_on_c, 0, 51, 0
2, 90362, Note_on_c, 0, 50, 77
2, 90365, Note_on_c, 0, 58, 74
2, 90388, Note_on_c, 0, 60, 0
2, 90454, Note_on_c, 0, 50, 0
2, 90522, Note_on_c, 0, 62, 70
2, 90536, Control_c, 0, 64, 57
2, 90543, Note_on_c, 0, 58, 0
2, 90603, Note_on_c, 0, 62, 0
2, 90652, Note_on_c, 0, 48, 79
2, 90663, Note_on_c, 0, 67, 71
2, 90721, Note_on_c, 0, 48, 0
2, 90730, Note_on_c, 0, 67, 0
2, 90803, Note_on_c, 0, 46, 86
2, 90816, Note_on_c, 0, 55, 74
2, 90901, Control_c, 0, 64, 58
2, 90908, Note_on_c, 0, 46, 0
2, 90968, Note_on_c, 0, 62, 73
2, 90990, Note_on_c, 0, 55, 0
2, 91022, Control_c, 0, 64, 58
2, 91050, Note_on_c, 0, 62, 0
2, 91099, Note_on_c, 0, 43, 80
2, 91107, Note_on_c, 0, 65, 71
2, 91184, Note_on_c, 0, 43, 0
2, 91215, Note_on_c, 0, 65, 0
2, 91229, Control_c, 0, 64, 59
2, 91270, Note_on_c, 0, 36, 83
2, 91277, Note_on_c, 0, 63, 74
2, 91380, Control_c, 0, 64, 59
2, 91384, Note_on_c, 0, 36, 0
2, 91439, Note_on_c, 0, 55, 78
2, 91442, Control_c, 0, 64, 60
2, 91472, Control_c, 0, 64, 60
2, 91478, Note_on_c, 0, 63, 0
2, 91502, Control_c, 0, 64, 61
2, 91532, Control_c, 0, 64, 61
2, 91582, Note_on_c, 0, 49, 83
2, 91588, Note_on_c, 0, 58, 72
2, 91608, Control_c, 0, 64, 62
2, 91619, Note_on_c, 0, 55, 0
2, 91676, Note_on_c, 0, 49, 0
2, 91746, Note_on_c, 0, 48, 79
2, 91760, Control_c, 0, 64, 61
2, 91761, Note_on_c, 0, 56, 78
2, 91770, Note_on_c, 0, 58, 0
2, 91836, Control_c, 0, 64, 62
2, 91855, Note_on_c, 0, 48, 0
2, 91927, Note_on_c, 0, 60, 75
2, 91956, Note_on_c, 0, 56, 0
2, 92078, Note_on_c, 0, 60, 0
2, 92084, Note_on_c, 0, 65, 71
2, 92099, Note_on_c, 0, 46, 77
2, 92102, Control_c, 0, 64, 61
2, 92155, Note_on_c, 0, 65, 0
2, 92175, Note_on_c, 0, 46, 0
2, 92266, Note_on_c, 0, 44, 73
2, 92272, Note_on_c, 0, 53, 68
2, 92286, Control_c, 0, 64, 61
2, 92343, Note_on_c, 0, 44, 0
2, 92457, Note_on_c, 0, 60, 66
2, 92465, Note_on_c, 0, 53, 0
2, 92597, Note_on_c, 0, 60, 0
2, 92672, Control_c, 0, 64, 60
2, 92700, Note_on_c, 0, 63, 57
2, 92709, Note_on_c, 0, 43, 53
2, 93007, Control_c, 0, 64, 60
2, 93084, Note_on_c, 0, 63, 0
2, 93099, Control_c, 0, 64, 59
2, 93110, Note_on_c, 0, 43, 0
2, 93138, Note_on_c, 0, 53, 44
2, 93145, Note_on_c, 0, 62, 52
2, 93147, Note_on_c, 0, 44, 36
2, 93149, Note_on_c, 0, 58, 50
2, 93175, Control_c, 0, 64, 59
2, 93297, Control_c, 0, 64, 58
2, 93441, Control_c, 0, 64, 59
2, 93487, Control_c, 0, 64, 60
2, 93502, Control_c, 0, 64, 60
2, 93518, Control_c, 0, 64, 61
2, 93547, Control_c, 0, 64, 61
2, 93563, Control_c, 0, 64, 62
2, 93578, Control_c, 0, 64, 63
2, 93593, Control_c, 0, 64, 64
2, 93609, Control_c, 0, 64, 66
2, 93624, Control_c, 0, 64, 67
2, 93640, Control_c, 0, 64, 69
2, 93655, Control_c, 0, 64, 72
2, 93670, Control_c, 0, 64, 78
2, 93686, Control_c, 0, 64, 89
2, 93701, Control_c, 0, 64, 121
2, 93716, Control_c, 0, 64, 127
2, 93999, Note_on_c, 0, 58, 0
2, 94002, Control_c, 0, 64, 99
2, 94017, Control_c, 0, 64, 80
2, 94023, Note_on_c, 0, 44, 0
2, 94032, Control_c, 0, 64, 70
2, 94047, Note_on_c, 0, 62, 0
2, 94048, Control_c, 0, 64, 65
2, 94048, Note_on_c, 0, 53, 0
2, 94062, Control_c, 0, 64, 64
2, 94077, Control_c, 0, 64, 63
2, 94093, Control_c, 0, 64, 62
2, 94108, Control_c, 0, 64, 59
2, 94124, Control_c, 0, 64, 57
2, 94139, Control_c, 0, 64, 56
2, 94154, Control_c, 0, 64, 56
2, 94184, Control_c, 0, 64, 54
2, 94207, Control_c, 0, 64, 49
2, 94222, Control_c, 0, 64, 43
2, 94237, Control_c, 0, 64, 41
2, 94252, Control_c, 0, 64, 42
2, 94267, Control_c, 0, 64, 44
2, 94344, Control_c, 0, 64, 46
2, 94359, Control_c, 0, 64, 47
2, 94420, Control_c, 0, 64, 48
2, 94435, Control_c, 0, 64, 50
2, 94451, Control_c, 0, 64, 50
2, 94542, Control_c, 0, 64, 50
2, 94574, Note_on_c, 0, 80, 81
2, 94576, Note_on_c, 0, 50, 71
2, 94581, Note_on_c, 0, 77, 73
2, 94586, Note_on_c, 0, 70, 76
2, 94631, Control_c, 0, 64, 50
2, 94645, Note_on_c, 0, 50, 0
2, 94662, Control_c, 0, 64, 51
2, 94662, Note_on_c, 0, 70, 0
2, 94677, Control_c, 0, 64, 51
2, 94693, Control_c, 0, 64, 52
2, 94707, Control_c, 0, 64, 53
2, 94716, Note_on_c, 0, 77, 0
2, 94723, Control_c, 0, 64, 54
2, 94727, Note_on_c, 0, 80, 0
2, 94738, Control_c, 0, 64, 55
2, 94753, Control_c, 0, 64, 56
2, 94769, Control_c, 0, 64, 57
2, 94784, Control_c, 0, 64, 57
2, 94798, Control_c, 0, 64, 58
2, 94860, Control_c, 0, 64, 57
2, 94905, Control_c, 0, 64, 57
2, 94936, Control_c, 0, 64, 56
2, 94986, Note_on_c, 0, 51, 67
2, 94987, Note_on_c, 0, 79, 84
2, 94998, Note_on_c, 0, 75, 71
2, 95000, Note_on_c, 0, 70, 73
2, 95080, Control_c, 0, 64, 56
2, 95095, Control_c, 0, 64, 55
2, 95202, Control_c, 0, 64, 56
2, 95301, Note_on_c, 0, 53, 69
2, 95303, Note_on_c, 0, 51, 0
2, 95357, Control_c, 0, 64, 56
2, 95367, Note_on_c, 0, 53, 0
2, 95371, Note_on_c, 0, 55, 74
2, 95387, Control_c, 0, 64, 57
2, 95445, Note_on_c, 0, 55, 0
2, 95445, Note_on_c, 0, 56, 74
2, 95462, Control_c, 0, 64, 57
2, 95504, Note_on_c, 0, 58, 82
2, 95526, Note_on_c, 0, 56, 0
2, 95569, Control_c, 0, 64, 58
2, 95570, Note_on_c, 0, 58, 0
2, 95577, Note_on_c, 0, 79, 0
2, 95580, Note_on_c, 0, 60, 71
2, 95618, Note_on_c, 0, 70, 0
2, 95627, Note_on_c, 0, 75, 0
2, 95630, Note_on_c, 0, 62, 76
2, 95637, Note_on_c, 0, 60, 0
2, 95689, Note_on_c, 0, 63, 86
2, 95692, Note_on_c, 0, 62, 0
2, 95728, Control_c, 0, 64, 58
2, 95743, Note_on_c, 0, 63, 0
2, 95774, Control_c, 0, 64, 58
2, 95850, Control_c, 0, 64, 57
2, 95921, Note_on_c, 0, 77, 86
2, 95925, Note_on_c, 0, 56, 79
2, 95929, Note_on_c, 0, 68, 87
2, 95932, Note_on_c, 0, 72, 75
2, 95966, Note_on_c, 0, 56, 0
2, 95968, Note_on_c, 0, 72, 0
2, 95980, Note_on_c, 0, 68, 0
2, 95986, Control_c, 0, 64, 57
2, 96011, Note_on_c, 0, 77, 0
2, 96049, Control_c, 0, 64, 56
2, 96064, Control_c, 0, 64, 56
2, 96094, Control_c, 0, 64, 55
2, 96109, Control_c, 0, 64, 54
2, 96125, Control_c, 0, 64, 54
2, 96140, Control_c, 0, 64, 53
2, 96156, Control_c, 0, 64, 52
2, 96170, Control_c, 0, 64, 51
2, 96185, Control_c, 0, 64, 48
2, 96201, Control_c, 0, 64, 46
2, 96216, Control_c, 0, 64, 44
2, 96217, Note_on_c, 0, 58, 67
2, 96217, Note_on_c, 0, 75, 84
2, 96226, Note_on_c, 0, 67, 73
2, 96226, Note_on_c, 0, 70, 71
2, 96246, Control_c, 0, 64, 45
2, 96261, Control_c, 0, 64, 48
2, 96277, Control_c, 0, 64, 54
2, 96291, Control_c, 0, 64, 61
2, 96306, Control_c, 0, 64, 66
2, 96322, Control_c, 0, 64, 74
2, 96337, Control_c, 0, 64, 92
2, 96352, Control_c, 0, 64, 127
2, 96446, Note_on_c, 0, 67, 0
2, 96505, Note_on_c, 0, 70, 0
2, 96639, Note_on_c, 0, 46, 51
2, 96716, Note_on_c, 0, 58, 0
2, 96743, Note_on_c, 0, 65, 62
2, 96771, Control_c, 0, 64, 108
2, 96785, Control_c, 0, 64, 90
2, 96787, Note_on_c, 0, 75, 0
2, 96801, Control_c, 0, 64, 81
2, 96811, Note_on_c, 0, 70, 63
2, 96816, Control_c, 0, 64, 77
2, 96830, Control_c, 0, 64, 74
2, 96846, Control_c, 0, 64, 73
2, 96862, Control_c, 0, 64, 71
2, 96878, Control_c, 0, 64, 70
2, 96893, Control_c, 0, 64, 68
2, 96908, Control_c, 0, 64, 66
2, 96924, Control_c, 0, 64, 64
2, 96933, Note_on_c, 0, 75, 69
2, 96939, Control_c, 0, 64, 63
2, 96969, Control_c, 0, 64, 62
2, 96984, Control_c, 0, 64, 61
2, 97000, Control_c, 0, 64, 59
2, 97015, Control_c, 0, 64, 56
2, 97030, Control_c, 0, 64, 55
2, 97061, Control_c, 0, 64, 55
2, 97077, Control_c, 0, 64, 53
2, 97091, Control_c, 0, 64, 51
2, 97106, Control_c, 0, 64, 50
2, 97127, Note_on_c, 0, 75, 0
2, 97140, Note_on_c, 0, 74, 63
2, 97182, Control_c, 0, 64, 50
2, 97198, Control_c, 0, 64, 49
2, 97223, Note_on_c, 0, 74, 0
2, 97226, Note_on_c, 0, 75, 72
2, 97298, Note_on_c, 0, 75, 0
2, 97302, Note_on_c, 0, 74, 64
2, 97368, Note_on_c, 0, 74, 0
2, 97373, Note_on_c, 0, 75, 69
2, 97421, Note_on_c, 0, 75, 0
2, 97424, Note_on_c, 0, 74, 49
2, 97464, Note_on_c, 0, 74, 0
2, 97470, Note_on_c, 0, 75, 54
2, 97493, Control_c, 0, 64, 50
2, 97536, Note_on_c, 0, 74, 65
2, 97536, Note_on_c, 0, 75, 0
2, 97692, Control_c, 0, 64, 50
2, 97782, Control_c, 0, 64, 51
2, 98065, Note_on_c, 0, 75, 50
2, 98091, Note_on_c, 0, 74, 0
2, 98125, Control_c, 0, 64, 51
2, 98156, Control_c, 0, 64, 53
2, 98171, Control_c, 0, 64, 55
2, 98185, Control_c, 0, 64, 57
2, 98201, Control_c, 0, 64, 60
2, 98216, Control_c, 0, 64, 62
2, 98231, Control_c, 0, 64, 64
2, 98247, Control_c, 0, 64, 66
2, 98261, Control_c, 0, 64, 70
2, 98277, Control_c, 0, 64, 76
2, 98292, Control_c, 0, 64, 85
2, 98307, Control_c, 0, 64, 101
2, 98322, Control_c, 0, 64, 127
2, 98352, Note_on_c, 0, 75, 0
2, 98365, Note_on_c, 0, 65, 0
2, 98948, Note_on_c, 0, 51, 43
2, 98952, Control_c, 0, 64, 103
2, 98956, Note_on_c, 0, 75, 47
2, 98963, Note_on_c, 0, 67, 42
2, 98968, Control_c, 0, 64, 89
2, 98983, Control_c, 0, 64, 79
2, 98996, Note_on_c, 0, 70, 0
2, 98997, Note_on_c, 0, 46, 0
2, 98999, Control_c, 0, 64, 73
2, 99014, Control_c, 0, 64, 69
2, 99028, Control_c, 0, 64, 67
2, 99044, Control_c, 0, 64, 65
2, 99059, Control_c, 0, 64, 64
2, 99074, Control_c, 0, 64, 63
2, 99090, Control_c, 0, 64, 62
2, 99101, Note_on_c, 0, 75, 0
2, 99104, Control_c, 0, 64, 61
2, 99120, Control_c, 0, 64, 60
2, 99124, Note_on_c, 0, 70, 53
2, 99135, Control_c, 0, 64, 59
2, 99137, Note_on_c, 0, 67, 0
2, 99150, Control_c, 0, 64, 58
2, 99165, Control_c, 0, 64, 57
2, 99178, Note_on_c, 0, 70, 0
2, 99211, Control_c, 0, 64, 56
2, 99226, Control_c, 0, 64, 55
2, 99241, Control_c, 0, 64, 54
2, 99256, Control_c, 0, 64, 54
2, 99274, Note_on_c, 0, 68, 55
2, 99302, Control_c, 0, 64, 53
2, 99319, Control_c, 0, 64, 53
2, 99322, Note_on_c, 0, 68, 0
2, 99333, Control_c, 0, 64, 52
2, 99409, Note_on_c, 0, 70, 61
2, 99468, Note_on_c, 0, 51, 0
2, 99562, Note_on_c, 0, 70, 0
2, 99574, Note_on_c, 0, 67, 50
2, 99617, Note_on_c, 0, 67, 0
2, 99725, Note_on_c, 0, 65, 55
2, 99773, Note_on_c, 0, 65, 0
2, 99873, Note_on_c, 0, 67, 58
2, 99979, Control_c, 0, 64, 53
2, 100010, Note_on_c, 0, 67, 0
2, 100022, Note_on_c, 0, 63, 58
2, 100040, Control_c, 0, 64, 53
2, 100072, Note_on_c, 0, 63, 0
2, 100147, Control_c, 0, 64, 54
2, 100171, Note_on_c, 0, 62, 53
2, 100224, Note_on_c, 0, 62, 0
2, 100238, Control_c, 0, 64, 54
2, 100338, Note_on_c, 0, 63, 65
2, 100469, Note_on_c, 0, 63, 0
2, 100473, Control_c, 0, 64, 55
2, 100484, Note_on_c, 0, 58, 56
2, 100534, Control_c, 0, 64, 55
2, 100538, Note_on_c, 0, 58, 0
2, 100643, Note_on_c, 0, 56, 56
2, 100681, Note_on_c, 0, 56, 0
2, 100789, Note_on_c, 0, 58, 58
2, 100932, Note_on_c, 0, 55, 56
2, 100937, Note_on_c, 0, 58, 0
2, 100982, Note_on_c, 0, 55, 0
2, 101113, Note_on_c, 0, 53, 50
2, 101152, Note_on_c, 0, 53, 0
2, 101267, Note_on_c, 0, 55, 51
2, 101379, Control_c, 0, 64, 56
2, 101409, Note_on_c, 0, 55, 0
2, 101432, Note_on_c, 0, 51, 45
2, 101470, Control_c, 0, 64, 56
2, 101479, Note_on_c, 0, 51, 0
2, 101531, Control_c, 0, 64, 57
2, 101607, Control_c, 0, 64, 57
2, 101607, Note_on_c, 0, 50, 50
2, 101643, Note_on_c, 0, 50, 0
2, 101775, Control_c, 0, 64, 58
2, 101881, Note_on_c, 0, 51, 59
2, 101922, Control_c, 0, 64, 57
2, 101923, Note_on_c, 0, 51, 0
2, 101950, Note_on_c, 0, 50, 43
2, 101952, Control_c, 0, 64, 57
2, 101992, Note_on_c, 0, 50, 0
2, 102007, Note_on_c, 0, 51, 56
2, 102058, Control_c, 0, 64, 57
2, 102165, Control_c, 0, 64, 58
2, 102271, Control_c, 0, 64, 58
2, 102300, Control_c, 0, 64, 59
2, 102377, Control_c, 0, 64, 59
2, 102537, Note_on_c, 0, 39, 43
2, 102549, Note_on_c, 0, 51, 0
2, 102689, Control_c, 0, 64, 60
2, 102932, Control_c, 0, 64, 60
2, 103114, Control_c, 0, 64, 61
2, 103181, Note_on_c, 0, 39, 0
2, 103312, Control_c, 0, 64, 61
2, 103426, Control_c, 0, 64, 62
2, 103928, Control_c, 0, 64, 62
2, 104727, Control_c, 0, 64, 63
2, 105486,End_track
0, 0, End_of_file
