0, 0, Header, 1, 2, 480
1, 0, Start_track
1, 0, Tempo, 500000
1, 0, Time_signature, 4, 2, 24, 8
1, 1, End_track
2, 0, Start_track
2, 0, Program_c, 0, 0
2, 0, Control_c, 0, 64, 60
2, 17, Control_c, 0, 64, 60
2, 272, Control_c, 0, 64, 59
2, 310, Control_c, 0, 64, 59
2, 369, Control_c, 0, 64, 58
2, 387, Control_c, 0, 64, 58
2, 407, Control_c, 0, 64, 57
2, 426, Control_c, 0, 64, 56
2, 445, Control_c, 0, 64, 55
2, 464, Control_c, 0, 64, 55
2, 484, Control_c, 0, 64, 54
2, 503, Control_c, 0, 64, 54
2, 521, Control_c, 0, 64, 53
2, 541, Control_c, 0, 64, 52
2, 560, Control_c, 0, 64, 52
2, 579, Control_c, 0, 64, 51
2, 637, Control_c, 0, 64, 51
2, 656, Control_c, 0, 64, 50
2, 675, Control_c, 0, 64, 49
2, 695, Control_c, 0, 64, 47
2, 714, Control_c, 0, 64, 44
2, 733, Control_c, 0, 64, 42
2, 752, Control_c, 0, 64, 40
2, 772, Control_c, 0, 64, 37
2, 790, Control_c, 0, 64, 34
2, 810, Control_c, 0, 64, 29
2, 829, Control_c, 0, 64, 23
2, 849, Control_c, 0, 64, 15
2, 867, Control_c, 0, 64, 0
2, 946, Note_on_c, 0, 70, 58
2, 954, Note_on_c, 0, 67, 39
2, 1141, Note_on_c, 0, 63, 50
2, 1314, Note_on_c, 0, 62, 63
2, 1358, Note_on_c, 0, 63, 0
2, 1376, Note_on_c, 0, 62, 0
2, 1491, Note_on_c, 0, 63, 63
2, 1568, Note_on_c, 0, 63, 0
2, 1676, Note_on_c, 0, 58, 59
2, 1730, Note_on_c, 0, 58, 0
2, 1839, Note_on_c, 0, 70, 0
2, 1855, Note_on_c, 0, 55, 57
2, 1936, Note_on_c, 0, 55, 0
2, 1943, Note_on_c, 0, 67, 0
2, 2087, Note_on_c, 0, 51, 42
2, 2263, Note_on_c, 0, 67, 48
2, 2311, Note_on_c, 0, 51, 0
2, 2427, Note_on_c, 0, 75, 80
2, 2436, Note_on_c, 0, 67, 0
2, 2519, Note_on_c, 0, 75, 0
2, 2642, Note_on_c, 0, 75, 66
2, 2663, Note_on_c, 0, 65, 45
2, 2807, Note_on_c, 0, 75, 0
2, 2837, Note_on_c, 0, 58, 28
2, 2839, Note_on_c, 0, 74, 51
2, 3000, Note_on_c, 0, 57, 50
2, 3039, Note_on_c, 0, 58, 0
2, 3086, Note_on_c, 0, 57, 0
2, 3199, Note_on_c, 0, 58, 64
2, 3207, Note_on_c, 0, 74, 0
2, 3271, Note_on_c, 0, 58, 0
2, 3381, Note_on_c, 0, 53, 61
2, 3445, Note_on_c, 0, 53, 0
2, 3460, Note_on_c, 0, 65, 0
2, 3565, Note_on_c, 0, 50, 56
2, 3632, Note_on_c, 0, 50, 0
2, 3781, Note_on_c, 0, 46, 47
2, 3954, Note_on_c, 0, 46, 0
2, 3954, Note_on_c, 0, 65, 59
2, 4134, Note_on_c, 0, 67, 66
2, 4142, Note_on_c, 0, 65, 0
2, 4326, Note_on_c, 0, 67, 0
2, 4339, Note_on_c, 0, 68, 67
2, 4354, Note_on_c, 0, 53, 40
2, 4506, Note_on_c, 0, 68, 0
2, 4518, Note_on_c, 0, 60, 61
2, 4547, Note_on_c, 0, 53, 0
2, 4685, Note_on_c, 0, 60, 0
2, 4693, Note_on_c, 0, 63, 72
2, 4880, Note_on_c, 0, 63, 0
2, 4916, Note_on_c, 0, 62, 62
2, 4935, Note_on_c, 0, 58, 39
2, 5098, Note_on_c, 0, 65, 61
2, 5106, Note_on_c, 0, 62, 0
2, 5121, Note_on_c, 0, 58, 0
2, 5250, Note_on_c, 0, 65, 0
2, 5274, Note_on_c, 0, 70, 64
2, 5436, Note_on_c, 0, 70, 0
2, 5472, Note_on_c, 0, 50, 36
2, 5474, Note_on_c, 0, 58, 41
2, 5659, Note_on_c, 0, 65, 58
2, 5690, Note_on_c, 0, 50, 0
2, 5818, Note_on_c, 0, 65, 0
2, 5824, Note_on_c, 0, 68, 70
2, 5877, Note_on_c, 0, 68, 0
2, 5913, Note_on_c, 0, 58, 0
2, 6026, Note_on_c, 0, 68, 62
2, 6043, Note_on_c, 0, 58, 43
2, 6087, Note_on_c, 0, 63, 34
2, 6175, Note_on_c, 0, 68, 0
2, 6214, Note_on_c, 0, 51, 38
2, 6235, Note_on_c, 0, 67, 46
2, 6410, Note_on_c, 0, 50, 58
2, 6414, Note_on_c, 0, 51, 0
2, 6461, Note_on_c, 0, 50, 0
2, 6602, Note_on_c, 0, 51, 51
2, 6649, Note_on_c, 0, 67, 0
2, 6657, Note_on_c, 0, 51, 0
2, 6675, Note_on_c, 0, 63, 0
2, 6737, Note_on_c, 0, 58, 0
2, 6772, Note_on_c, 0, 46, 58
2, 6825, Note_on_c, 0, 46, 0
2, 6947, Note_on_c, 0, 43, 60
2, 7022, Note_on_c, 0, 43, 0
2, 7209, Note_on_c, 0, 39, 38
2, 7397, Note_on_c, 0, 51, 46
2, 7404, Note_on_c, 0, 39, 0
2, 7550, Note_on_c, 0, 51, 0
2, 7569, Note_on_c, 0, 50, 61
2, 7759, Note_on_c, 0, 51, 61
2, 7803, Note_on_c, 0, 50, 0
2, 7926, Note_on_c, 0, 51, 0
2, 7942, Note_on_c, 0, 55, 62
2, 8097, Note_on_c, 0, 55, 0
2, 8130, Note_on_c, 0, 53, 60
2, 8319, Note_on_c, 0, 55, 54
2, 8340, Note_on_c, 0, 53, 0
2, 8472, Note_on_c, 0, 55, 0
2, 8504, Note_on_c, 0, 58, 53
2, 8607, Note_on_c, 0, 39, 40
2, 8653, Note_on_c, 0, 58, 0
2, 8673, Note_on_c, 0, 56, 55
2, 8703, Note_on_c, 0, 39, 0
2, 8861, Note_on_c, 0, 56, 0
2, 8871, Note_on_c, 0, 58, 52
2, 8883, Note_on_c, 0, 39, 40
2, 8891, Note_on_c, 0, 51, 43
2, 8964, Control_c, 0, 64, 32
2, 8984, Control_c, 0, 64, 50
2, 9003, Control_c, 0, 64, 55
2, 9022, Control_c, 0, 64, 55
2, 9041, Control_c, 0, 64, 56
2, 9061, Control_c, 0, 64, 57
2, 9079, Control_c, 0, 64, 59
2, 9091, Note_on_c, 0, 61, 50
2, 9099, Control_c, 0, 64, 62
2, 9118, Control_c, 0, 64, 63
2, 9138, Control_c, 0, 64, 63
2, 9210, Note_on_c, 0, 58, 0
2, 9226, Note_on_c, 0, 61, 0
2, 9254, Note_on_c, 0, 55, 58
2, 9256, Note_on_c, 0, 49, 58
2, 9272, Control_c, 0, 64, 63
2, 9274, Note_on_c, 0, 39, 0
2, 9291, Control_c, 0, 64, 62
2, 9310, Control_c, 0, 64, 62
2, 9330, Control_c, 0, 64, 61
2, 9349, Control_c, 0, 64, 59
2, 9358, Note_on_c, 0, 51, 0
2, 9366, Note_on_c, 0, 49, 0
2, 9368, Control_c, 0, 64, 57
2, 9387, Control_c, 0, 64, 54
2, 9407, Control_c, 0, 64, 52
2, 9425, Control_c, 0, 64, 50
2, 9441, Note_on_c, 0, 39, 45
2, 9444, Control_c, 0, 64, 47
2, 9450, Note_on_c, 0, 48, 53
2, 9451, Note_on_c, 0, 56, 65
2, 9464, Control_c, 0, 64, 43
2, 9483, Control_c, 0, 64, 38
2, 9502, Control_c, 0, 64, 32
2, 9520, Note_on_c, 0, 55, 0
2, 9521, Control_c, 0, 64, 25
2, 9541, Control_c, 0, 64, 20
2, 9559, Control_c, 0, 64, 17
2, 9579, Control_c, 0, 64, 13
2, 9598, Control_c, 0, 64, 11
2, 9618, Control_c, 0, 64, 9
2, 9636, Control_c, 0, 64, 0
2, 9636, Note_on_c, 0, 60, 66
2, 9666, Note_on_c, 0, 56, 0
2, 9802, Note_on_c, 0, 48, 0
2, 9806, Note_on_c, 0, 60, 0
2, 9817, Note_on_c, 0, 58, 68
2, 9831, Note_on_c, 0, 51, 54
2, 10025, Note_on_c, 0, 60, 64
2, 10034, Note_on_c, 0, 44, 54
2, 10035, Note_on_c, 0, 39, 0
2, 10053, Note_on_c, 0, 51, 0
2, 10076, Note_on_c, 0, 58, 0
2, 10151, Note_on_c, 0, 60, 0
2, 10193, Note_on_c, 0, 63, 62
2, 10359, Note_on_c, 0, 44, 0
2, 10384, Note_on_c, 0, 63, 0
2, 10386, Note_on_c, 0, 46, 54
2, 10387, Note_on_c, 0, 61, 63
2, 10390, Note_on_c, 0, 39, 44
2, 10471, Note_on_c, 0, 39, 0
2, 10577, Control_c, 0, 64, 24
2, 10578, Note_on_c, 0, 46, 0
2, 10589, Note_on_c, 0, 61, 0
2, 10595, Control_c, 0, 64, 44
2, 10598, Note_on_c, 0, 63, 54
2, 10614, Note_on_c, 0, 48, 44
2, 10615, Control_c, 0, 64, 55
2, 10634, Control_c, 0, 64, 58
2, 10643, Note_on_c, 0, 39, 36
2, 10654, Control_c, 0, 64, 59
2, 10672, Control_c, 0, 64, 60
2, 10730, Control_c, 0, 64, 58
2, 10749, Control_c, 0, 64, 54
2, 10769, Control_c, 0, 64, 48
2, 10777, Note_on_c, 0, 68, 61
2, 10782, Note_on_c, 0, 39, 0
2, 10788, Control_c, 0, 64, 44
2, 10807, Control_c, 0, 64, 43
2, 10826, Control_c, 0, 64, 46
2, 10846, Control_c, 0, 64, 54
2, 10864, Control_c, 0, 64, 61
2, 10883, Control_c, 0, 64, 66
2, 10903, Control_c, 0, 64, 70
2, 10907, Note_on_c, 0, 63, 0
2, 10922, Control_c, 0, 64, 79
2, 10939, Note_on_c, 0, 68, 0
2, 10941, Control_c, 0, 64, 94
2, 10948, Note_on_c, 0, 60, 66
2, 10950, Note_on_c, 0, 44, 53
2, 10952, Note_on_c, 0, 48, 0
2, 10960, Control_c, 0, 64, 127
2, 10969, Note_on_c, 0, 39, 35
2, 10984, Note_on_c, 0, 44, 0
2, 11023, Note_on_c, 0, 39, 0
2, 11152, Control_c, 0, 64, 94
2, 11154, Note_on_c, 0, 53, 54
2, 11171, Note_on_c, 0, 62, 69
2, 11172, Control_c, 0, 64, 78
2, 11176, Note_on_c, 0, 51, 50
2, 11191, Control_c, 0, 64, 68
2, 11210, Control_c, 0, 64, 61
2, 11229, Control_c, 0, 64, 52
2, 11241, Note_on_c, 0, 60, 0
2, 11249, Control_c, 0, 64, 45
2, 11268, Control_c, 0, 64, 40
2, 11287, Control_c, 0, 64, 36
2, 11306, Control_c, 0, 64, 31
2, 11325, Control_c, 0, 64, 19
2, 11344, Control_c, 0, 64, 0
2, 11353, Note_on_c, 0, 65, 69
2, 11389, Note_on_c, 0, 62, 0
2, 11488, Note_on_c, 0, 51, 0
2, 11515, Note_on_c, 0, 53, 0
2, 11515, Note_on_c, 0, 56, 57
2, 11524, Note_on_c, 0, 63, 72
2, 11544, Note_on_c, 0, 65, 0
2, 11711, Note_on_c, 0, 50, 56
2, 11721, Note_on_c, 0, 56, 0
2, 11741, Note_on_c, 0, 65, 66
2, 11743, Note_on_c, 0, 63, 0
2, 11884, Note_on_c, 0, 65, 0
2, 11910, Note_on_c, 0, 68, 65
2, 12069, Note_on_c, 0, 50, 0
2, 12072, Note_on_c, 0, 68, 0
2, 12087, Note_on_c, 0, 51, 48
2, 12104, Note_on_c, 0, 67, 65
2, 12270, Note_on_c, 0, 67, 0
2, 12273, Note_on_c, 0, 51, 0
2, 12320, Note_on_c, 0, 68, 62
2, 12334, Note_on_c, 0, 53, 49
2, 12349, Control_c, 0, 64, 46
2, 12367, Control_c, 0, 64, 60
2, 12387, Control_c, 0, 64, 63
2, 12406, Control_c, 0, 64, 64
2, 12426, Control_c, 0, 64, 64
2, 12444, Control_c, 0, 64, 65
2, 12464, Control_c, 0, 64, 67
2, 12480, Control_c, 0, 64, 69
2, 12489, Note_on_c, 0, 68, 0
2, 12500, Control_c, 0, 64, 72
2, 12503, Note_on_c, 0, 53, 0
2, 12510, Note_on_c, 0, 77, 60
2, 12518, Control_c, 0, 64, 75
2, 12538, Control_c, 0, 64, 78
2, 12557, Control_c, 0, 64, 79
2, 12634, Control_c, 0, 64, 79
2, 12652, Control_c, 0, 64, 78
2, 12672, Control_c, 0, 64, 76
2, 12683, Note_on_c, 0, 46, 58
2, 12683, Note_on_c, 0, 50, 55
2, 12685, Note_on_c, 0, 77, 0
2, 12687, Note_on_c, 0, 68, 64
2, 12691, Control_c, 0, 64, 71
2, 12703, Note_on_c, 0, 39, 46
2, 12711, Control_c, 0, 64, 65
2, 12727, Note_on_c, 0, 50, 0
2, 12729, Control_c, 0, 64, 58
2, 12744, Note_on_c, 0, 39, 0
2, 12749, Control_c, 0, 64, 49
2, 12761, Note_on_c, 0, 46, 0
2, 12768, Control_c, 0, 64, 44
2, 12787, Control_c, 0, 64, 47
2, 12806, Control_c, 0, 64, 53
2, 12826, Control_c, 0, 64, 59
2, 12845, Control_c, 0, 64, 59
2, 12858, Note_on_c, 0, 68, 0
2, 12864, Control_c, 0, 64, 54
2, 12864, Note_on_c, 0, 39, 59
2, 12870, Note_on_c, 0, 67, 65
2, 12879, Note_on_c, 0, 51, 56
2, 12883, Control_c, 0, 64, 22
2, 12899, Note_on_c, 0, 46, 49
2, 12903, Control_c, 0, 64, 0
2, 12993, Note_on_c, 0, 39, 0
2, 13002, Note_on_c, 0, 46, 0
2, 13055, Note_on_c, 0, 70, 75
2, 13064, Note_on_c, 0, 67, 0
2, 13168, Note_on_c, 0, 51, 0
2, 13228, Note_on_c, 0, 53, 65
2, 13239, Note_on_c, 0, 68, 75
2, 13255, Note_on_c, 0, 70, 0
2, 13402, Note_on_c, 0, 53, 0
2, 13414, Note_on_c, 0, 55, 67
2, 13428, Note_on_c, 0, 70, 73
2, 13455, Note_on_c, 0, 68, 0
2, 13587, Note_on_c, 0, 70, 0
2, 13605, Note_on_c, 0, 75, 70
2, 13737, Note_on_c, 0, 55, 0
2, 13743, Note_on_c, 0, 75, 0
2, 13786, Note_on_c, 0, 74, 73
2, 13794, Note_on_c, 0, 58, 62
2, 13975, Note_on_c, 0, 58, 0
2, 13977, Note_on_c, 0, 75, 81
2, 13980, Note_on_c, 0, 55, 57
2, 13997, Note_on_c, 0, 74, 0
2, 14149, Note_on_c, 0, 79, 82
2, 14251, Note_on_c, 0, 75, 0
2, 14335, Note_on_c, 0, 77, 81
2, 14336, Note_on_c, 0, 50, 53
2, 14382, Note_on_c, 0, 79, 0
2, 14406, Note_on_c, 0, 55, 0
2, 14522, Note_on_c, 0, 50, 0
2, 14534, Note_on_c, 0, 51, 57
2, 14541, Note_on_c, 0, 79, 79
2, 14581, Note_on_c, 0, 77, 0
2, 14712, Note_on_c, 0, 75, 83
2, 14756, Note_on_c, 0, 79, 0
2, 14884, Note_on_c, 0, 51, 0
2, 14892, Note_on_c, 0, 74, 75
2, 14912, Note_on_c, 0, 55, 55
2, 14928, Note_on_c, 0, 75, 0
2, 15073, Note_on_c, 0, 55, 0
2, 15088, Note_on_c, 0, 74, 0
2, 15101, Note_on_c, 0, 75, 67
2, 15134, Note_on_c, 0, 48, 35
2, 15290, Note_on_c, 0, 72, 73
2, 15454, Note_on_c, 0, 70, 79
2, 15463, Note_on_c, 0, 48, 0
2, 15464, Note_on_c, 0, 50, 54
2, 15474, Note_on_c, 0, 72, 0
2, 15596, Note_on_c, 0, 50, 0
2, 15631, Note_on_c, 0, 51, 63
2, 15661, Note_on_c, 0, 70, 0
2, 15665, Note_on_c, 0, 72, 79
2, 15734, Note_on_c, 0, 51, 0
2, 15740, Note_on_c, 0, 50, 64
2, 15789, Note_on_c, 0, 50, 0
2, 15800, Note_on_c, 0, 48, 62
2, 15845, Note_on_c, 0, 69, 77
2, 15872, Note_on_c, 0, 50, 63
2, 15906, Note_on_c, 0, 48, 0
2, 15945, Note_on_c, 0, 69, 0
2, 15958, Note_on_c, 0, 50, 0
2, 15976, Note_on_c, 0, 51, 67
2, 15976, Note_on_c, 0, 67, 66
2, 16019, Note_on_c, 0, 51, 0
2, 16029, Note_on_c, 0, 67, 0
2, 16183, Note_on_c, 0, 41, 67
2, 16192, Note_on_c, 0, 69, 86
2, 16221, Note_on_c, 0, 41, 0
2, 16406, Note_on_c, 0, 65, 67
2, 16577, Note_on_c, 0, 63, 76
2, 16599, Note_on_c, 0, 65, 0
2, 16694, Note_on_c, 0, 63, 0
2, 16766, Note_on_c, 0, 65, 69
2, 16814, Note_on_c, 0, 65, 0
2, 16947, Note_on_c, 0, 60, 66
2, 16981, Note_on_c, 0, 60, 0
2, 17132, Note_on_c, 0, 57, 69
2, 17164, Note_on_c, 0, 75, 0
2, 17169, Note_on_c, 0, 72, 0
2, 17179, Note_on_c, 0, 57, 0
2, 17191, Note_on_c, 0, 69, 0
2, 17362, Note_on_c, 0, 53, 56
2, 17532, Note_on_c, 0, 69, 57
2, 17553, Note_on_c, 0, 53, 0
2, 17667, Note_on_c, 0, 69, 0
2, 17729, Note_on_c, 0, 75, 59
2, 17931, Note_on_c, 0, 75, 0
2, 17965, Note_on_c, 0, 74, 49
2, 17989, Note_on_c, 0, 58, 30
2, 18127, Note_on_c, 0, 58, 0
2, 18162, Note_on_c, 0, 74, 0
2, 18166, Note_on_c, 0, 70, 62
2, 18294, Note_on_c, 0, 70, 0
2, 18338, Note_on_c, 0, 65, 58
2, 18539, Note_on_c, 0, 65, 0
2, 18542, Note_on_c, 0, 51, 48
2, 18557, Note_on_c, 0, 67, 54
2, 18666, Note_on_c, 0, 51, 0
2, 18737, Note_on_c, 0, 67, 0
2, 18738, Note_on_c, 0, 63, 69
2, 18887, Note_on_c, 0, 62, 69
2, 18895, Note_on_c, 0, 63, 0
2, 19026, Note_on_c, 0, 62, 0
2, 19090, Note_on_c, 0, 53, 47
2, 19091, Note_on_c, 0, 60, 56
2, 19267, Note_on_c, 0, 70, 67
2, 19325, Note_on_c, 0, 53, 0
2, 19353, Note_on_c, 0, 60, 0
2, 19412, Note_on_c, 0, 70, 0
2, 19444, Note_on_c, 0, 69, 71
2, 19600, Note_on_c, 0, 69, 0
2, 19654, Note_on_c, 0, 62, 53
2, 19655, Note_on_c, 0, 70, 56
2, 19840, Note_on_c, 0, 58, 58
2, 20001, Note_on_c, 0, 58, 0
2, 20016, Note_on_c, 0, 57, 61
2, 20067, Note_on_c, 0, 57, 0
2, 20214, Note_on_c, 0, 58, 53
2, 20257, Note_on_c, 0, 70, 0
2, 20259, Note_on_c, 0, 58, 0
2, 20334, Note_on_c, 0, 62, 0
2, 20402, Note_on_c, 0, 53, 51
2, 20452, Note_on_c, 0, 53, 0
2, 20588, Note_on_c, 0, 50, 48
2, 20692, Note_on_c, 0, 50, 0
2, 20828, Note_on_c, 0, 46, 42
2, 21026, Note_on_c, 0, 58, 46
2, 21177, Note_on_c, 0, 46, 0
2, 21181, Note_on_c, 0, 58, 0
2, 21207, Note_on_c, 0, 57, 52
2, 21408, Note_on_c, 0, 57, 0
2, 21415, Note_on_c, 0, 58, 50
2, 21608, Note_on_c, 0, 58, 0
2, 21611, Note_on_c, 0, 46, 41
2, 21617, Note_on_c, 0, 62, 54
2, 21751, Note_on_c, 0, 62, 0
2, 21781, Note_on_c, 0, 46, 0
2, 21786, Note_on_c, 0, 45, 41
2, 21788, Note_on_c, 0, 60, 57
2, 21946, Note_on_c, 0, 45, 0
2, 21977, Note_on_c, 0, 46, 47
2, 21999, Note_on_c, 0, 62, 50
2, 22000, Note_on_c, 0, 60, 0
2, 22158, Note_on_c, 0, 50, 53
2, 22170, Note_on_c, 0, 65, 56
2, 22179, Note_on_c, 0, 62, 0
2, 22188, Control_c, 0, 64, 27
2, 22208, Control_c, 0, 64, 44
2, 22215, Note_on_c, 0, 46, 0
2, 22227, Control_c, 0, 64, 52
2, 22247, Control_c, 0, 64, 55
2, 22253, Note_on_c, 0, 50, 0
2, 22265, Control_c, 0, 64, 56
2, 22323, Control_c, 0, 64, 57
2, 22324, Note_on_c, 0, 65, 0
2, 22337, Note_on_c, 0, 48, 55
2, 22346, Note_on_c, 0, 63, 61
2, 22373, Note_on_c, 0, 46, 37
2, 22381, Control_c, 0, 64, 56
2, 22400, Control_c, 0, 64, 54
2, 22419, Control_c, 0, 64, 51
2, 22439, Control_c, 0, 64, 44
2, 22457, Control_c, 0, 64, 32
2, 22471, Note_on_c, 0, 48, 0
2, 22477, Control_c, 0, 64, 9
2, 22492, Note_on_c, 0, 46, 0
2, 22496, Control_c, 0, 64, 0
2, 22524, Note_on_c, 0, 46, 22
2, 22526, Note_on_c, 0, 50, 57
2, 22535, Note_on_c, 0, 63, 0
2, 22541, Note_on_c, 0, 65, 50
2, 22611, Control_c, 0, 64, 39
2, 22630, Control_c, 0, 64, 58
2, 22650, Control_c, 0, 64, 62
2, 22668, Control_c, 0, 64, 63
2, 22670, Note_on_c, 0, 50, 0
2, 22724, Note_on_c, 0, 65, 0
2, 22727, Note_on_c, 0, 68, 62
2, 22734, Note_on_c, 0, 53, 48
2, 22781, Note_on_c, 0, 46, 0
2, 22834, Note_on_c, 0, 53, 0
2, 22879, Note_on_c, 0, 68, 0
2, 22880, Control_c, 0, 64, 62
2, 22899, Control_c, 0, 64, 60
2, 22902, Note_on_c, 0, 62, 58
2, 22909, Note_on_c, 0, 56, 55
2, 22915, Note_on_c, 0, 46, 55
2, 22919, Control_c, 0, 64, 52
2, 22937, Control_c, 0, 64, 36
2, 22957, Control_c, 0, 64, 0
2, 22997, Note_on_c, 0, 46, 0
2, 23009, Note_on_c, 0, 56, 0
2, 23014, Control_c, 0, 64, 9
2, 23034, Control_c, 0, 64, 47
2, 23054, Control_c, 0, 64, 59
2, 23056, Note_on_c, 0, 62, 0
2, 23072, Control_c, 0, 64, 62
2, 23092, Control_c, 0, 64, 62
2, 23105, Note_on_c, 0, 63, 65
2, 23109, Note_on_c, 0, 46, 59
2, 23119, Note_on_c, 0, 55, 51
2, 23131, Control_c, 0, 64, 63
2, 23188, Control_c, 0, 64, 62
2, 23190, Note_on_c, 0, 55, 0
2, 23226, Control_c, 0, 64, 62
2, 23243, Note_on_c, 0, 46, 0
2, 23295, Note_on_c, 0, 67, 55
2, 23309, Note_on_c, 0, 63, 0
2, 23310, Note_on_c, 0, 58, 61
2, 23323, Control_c, 0, 64, 61
2, 23361, Control_c, 0, 64, 61
2, 23380, Control_c, 0, 64, 60
2, 23400, Control_c, 0, 64, 59
2, 23418, Control_c, 0, 64, 58
2, 23425, Note_on_c, 0, 67, 0
2, 23438, Control_c, 0, 64, 56
2, 23457, Control_c, 0, 64, 55
2, 23476, Control_c, 0, 64, 54
2, 23478, Note_on_c, 0, 65, 63
2, 23484, Note_on_c, 0, 56, 63
2, 23490, Note_on_c, 0, 58, 0
2, 23495, Control_c, 0, 64, 53
2, 23514, Control_c, 0, 64, 52
2, 23534, Control_c, 0, 64, 48
2, 23552, Control_c, 0, 64, 43
2, 23572, Control_c, 0, 64, 39
2, 23591, Control_c, 0, 64, 38
2, 23611, Control_c, 0, 64, 36
2, 23629, Control_c, 0, 64, 33
2, 23649, Control_c, 0, 64, 28
2, 23654, Note_on_c, 0, 56, 0
2, 23667, Note_on_c, 0, 67, 68
2, 23668, Control_c, 0, 64, 26
2, 23680, Note_on_c, 0, 58, 58
2, 23687, Control_c, 0, 64, 25
2, 23725, Note_on_c, 0, 65, 0
2, 23745, Control_c, 0, 64, 23
2, 23764, Control_c, 0, 64, 19
2, 23783, Control_c, 0, 64, 11
2, 23803, Control_c, 0, 64, 0
2, 23829, Note_on_c, 0, 67, 0
2, 23842, Note_on_c, 0, 70, 75
2, 23852, Note_on_c, 0, 55, 66
2, 23898, Note_on_c, 0, 58, 0
2, 24015, Note_on_c, 0, 70, 0
2, 24028, Note_on_c, 0, 68, 74
2, 24043, Note_on_c, 0, 53, 59
2, 24053, Note_on_c, 0, 46, 56
2, 24102, Note_on_c, 0, 55, 0
2, 24106, Note_on_c, 0, 46, 0
2, 24191, Note_on_c, 0, 53, 0
2, 24220, Note_on_c, 0, 46, 65
2, 24221, Note_on_c, 0, 68, 0
2, 24223, Note_on_c, 0, 55, 64
2, 24226, Note_on_c, 0, 70, 76
2, 24264, Control_c, 0, 64, 32
2, 24284, Control_c, 0, 64, 55
2, 24302, Control_c, 0, 64, 62
2, 24322, Control_c, 0, 64, 64
2, 24341, Control_c, 0, 64, 65
2, 24361, Control_c, 0, 64, 68
2, 24379, Control_c, 0, 64, 73
2, 24399, Control_c, 0, 64, 81
2, 24399, Note_on_c, 0, 75, 73
2, 24402, Note_on_c, 0, 55, 0
2, 24411, Note_on_c, 0, 46, 0
2, 24418, Control_c, 0, 64, 92
2, 24421, Note_on_c, 0, 58, 50
2, 24436, Control_c, 0, 64, 108
2, 24454, Note_on_c, 0, 58, 0
2, 24456, Control_c, 0, 64, 127
2, 24531, Note_on_c, 0, 70, 0
2, 24581, Note_on_c, 0, 75, 0
2, 24600, Note_on_c, 0, 67, 64
2, 24622, Note_on_c, 0, 63, 57
2, 24648, Control_c, 0, 64, 111
2, 24667, Control_c, 0, 64, 99
2, 24687, Control_c, 0, 64, 89
2, 24706, Control_c, 0, 64, 81
2, 24725, Control_c, 0, 64, 76
2, 24744, Control_c, 0, 64, 72
2, 24764, Control_c, 0, 64, 69
2, 24782, Control_c, 0, 64, 67
2, 24802, Control_c, 0, 64, 65
2, 24808, Note_on_c, 0, 58, 48
2, 24821, Control_c, 0, 64, 63
2, 24822, Note_on_c, 0, 69, 70
2, 24825, Note_on_c, 0, 63, 0
2, 24831, Note_on_c, 0, 60, 43
2, 24841, Control_c, 0, 64, 61
2, 24861, Control_c, 0, 64, 59
2, 24881, Control_c, 0, 64, 56
2, 24897, Note_on_c, 0, 67, 0
2, 24900, Control_c, 0, 64, 53
2, 24919, Control_c, 0, 64, 50
2, 24938, Control_c, 0, 64, 45
2, 24955, Control_c, 0, 64, 38
2, 24975, Control_c, 0, 64, 27
2, 24988, Note_on_c, 0, 72, 73
2, 24991, Note_on_c, 0, 63, 57
2, 24993, Control_c, 0, 64, 0
2, 25043, Note_on_c, 0, 69, 0
2, 25118, Note_on_c, 0, 60, 0
2, 25161, Note_on_c, 0, 70, 77
2, 25166, Note_on_c, 0, 62, 61
2, 25173, Note_on_c, 0, 58, 0
2, 25185, Note_on_c, 0, 63, 0
2, 25213, Note_on_c, 0, 72, 0
2, 25358, Note_on_c, 0, 72, 77
2, 25364, Note_on_c, 0, 63, 61
2, 25368, Note_on_c, 0, 62, 0
2, 25398, Note_on_c, 0, 70, 0
2, 25536, Note_on_c, 0, 72, 0
2, 25544, Note_on_c, 0, 60, 61
2, 25546, Note_on_c, 0, 75, 75
2, 25560, Note_on_c, 0, 63, 0
2, 25715, Note_on_c, 0, 75, 0
2, 25722, Note_on_c, 0, 58, 62
2, 25729, Note_on_c, 0, 60, 0
2, 25730, Note_on_c, 0, 74, 75
2, 25916, Note_on_c, 0, 58, 0
2, 25918, Note_on_c, 0, 74, 0
2, 25920, Note_on_c, 0, 75, 82
2, 25924, Note_on_c, 0, 60, 62
2, 25974, Control_c, 0, 64, 32
2, 25993, Control_c, 0, 64, 56
2, 26013, Control_c, 0, 64, 63
2, 26031, Control_c, 0, 64, 64
2, 26051, Control_c, 0, 64, 65
2, 26070, Control_c, 0, 64, 66
2, 26083, Note_on_c, 0, 60, 0
2, 26084, Note_on_c, 0, 58, 59
2, 26090, Control_c, 0, 64, 68
2, 26098, Note_on_c, 0, 84, 79
2, 26105, Note_on_c, 0, 75, 0
2, 26108, Control_c, 0, 64, 72
2, 26119, Note_on_c, 0, 58, 0
2, 26127, Control_c, 0, 64, 78
2, 26147, Control_c, 0, 64, 84
2, 26165, Control_c, 0, 64, 88
2, 26185, Control_c, 0, 64, 90
2, 26242, Control_c, 0, 64, 87
2, 26262, Control_c, 0, 64, 76
2, 26274, Note_on_c, 0, 57, 67
2, 26281, Control_c, 0, 64, 63
2, 26282, Note_on_c, 0, 75, 82
2, 26283, Note_on_c, 0, 53, 60
2, 26285, Note_on_c, 0, 84, 0
2, 26292, Note_on_c, 0, 46, 53
2, 26300, Control_c, 0, 64, 22
2, 26319, Control_c, 0, 64, 0
2, 26339, Control_c, 0, 64, 24
2, 26344, Note_on_c, 0, 46, 0
2, 26351, Note_on_c, 0, 57, 0
2, 26358, Control_c, 0, 64, 56
2, 26377, Control_c, 0, 64, 65
2, 26389, Note_on_c, 0, 53, 0
2, 26396, Control_c, 0, 64, 70
2, 26416, Control_c, 0, 64, 77
2, 26434, Control_c, 0, 64, 83
2, 26454, Control_c, 0, 64, 85
2, 26464, Note_on_c, 0, 75, 0
2, 26467, Note_on_c, 0, 74, 76
2, 26473, Note_on_c, 0, 46, 66
2, 26475, Note_on_c, 0, 53, 62
2, 26487, Note_on_c, 0, 58, 65
2, 26524, Note_on_c, 0, 53, 0
2, 26531, Note_on_c, 0, 46, 0
2, 26540, Note_on_c, 0, 58, 0
2, 26570, Control_c, 0, 64, 85
2, 26627, Control_c, 0, 64, 85
2, 26634, Note_on_c, 0, 74, 0
2, 26645, Control_c, 0, 64, 82
2, 26660, Note_on_c, 0, 70, 82
2, 26665, Control_c, 0, 64, 74
2, 26672, Note_on_c, 0, 62, 66
2, 26684, Control_c, 0, 64, 66
2, 26704, Control_c, 0, 64, 57
2, 26722, Control_c, 0, 64, 47
2, 26742, Control_c, 0, 64, 34
2, 26761, Control_c, 0, 64, 17
2, 26781, Control_c, 0, 64, 0
2, 26799, Note_on_c, 0, 70, 0
2, 26836, Note_on_c, 0, 69, 73
2, 26843, Note_on_c, 0, 60, 61
2, 26846, Note_on_c, 0, 62, 0
2, 27006, Note_on_c, 0, 60, 0
2, 27022, Note_on_c, 0, 62, 56
2, 27023, Note_on_c, 0, 70, 80
2, 27079, Note_on_c, 0, 69, 0
2, 27196, Note_on_c, 0, 74, 74
2, 27208, Note_on_c, 0, 70, 0
2, 27211, Note_on_c, 0, 65, 58
2, 27330, Note_on_c, 0, 65, 0
2, 27355, Note_on_c, 0, 62, 0
2, 27368, Note_on_c, 0, 72, 79
2, 27376, Note_on_c, 0, 63, 67
2, 27406, Note_on_c, 0, 74, 0
2, 27547, Note_on_c, 0, 63, 0
2, 27563, Note_on_c, 0, 74, 76
2, 27574, Note_on_c, 0, 65, 65
2, 27605, Note_on_c, 0, 72, 0
2, 27744, Note_on_c, 0, 77, 77
2, 27746, Note_on_c, 0, 68, 73
2, 27751, Note_on_c, 0, 65, 0
2, 27811, Note_on_c, 0, 74, 0
2, 27892, Note_on_c, 0, 68, 0
2, 27917, Note_on_c, 0, 75, 82
2, 27922, Note_on_c, 0, 67, 62
2, 27984, Note_on_c, 0, 77, 0
2, 28072, Note_on_c, 0, 67, 0
2, 28146, Note_on_c, 0, 75, 0
2, 28148, Note_on_c, 0, 77, 77
2, 28156, Note_on_c, 0, 74, 73
2, 28168, Note_on_c, 0, 68, 65
2, 28347, Note_on_c, 0, 58, 69
2, 28522, Note_on_c, 0, 57, 76
2, 28552, Note_on_c, 0, 58, 0
2, 28576, Note_on_c, 0, 57, 0
2, 28716, Note_on_c, 0, 58, 74
2, 28726, Note_on_c, 0, 77, 0
2, 28739, Note_on_c, 0, 74, 0
2, 28779, Note_on_c, 0, 58, 0
2, 28790, Note_on_c, 0, 68, 0
2, 28897, Note_on_c, 0, 53, 66
2, 28949, Note_on_c, 0, 53, 0
2, 29076, Note_on_c, 0, 50, 62
2, 29142, Note_on_c, 0, 50, 0
2, 29293, Note_on_c, 0, 46, 48
2, 29505, Note_on_c, 0, 46, 0
2, 29510, Note_on_c, 0, 63, 50
2, 29515, Note_on_c, 0, 67, 46
2, 29673, Note_on_c, 0, 67, 0
2, 29674, Note_on_c, 0, 62, 49
2, 29730, Note_on_c, 0, 65, 49
2, 29764, Note_on_c, 0, 63, 0
2, 29824, Note_on_c, 0, 62, 0
2, 29905, Note_on_c, 0, 65, 0
2, 29921, Note_on_c, 0, 67, 45
2, 29932, Note_on_c, 0, 63, 42
2, 30067, Note_on_c, 0, 58, 40
2, 30269, Note_on_c, 0, 57, 57
2, 30274, Note_on_c, 0, 58, 0
2, 30322, Note_on_c, 0, 57, 0
2, 30455, Note_on_c, 0, 58, 62
2, 30516, Note_on_c, 0, 58, 0
2, 30550, Note_on_c, 0, 63, 0
2, 30592, Note_on_c, 0, 67, 0
2, 30636, Note_on_c, 0, 55, 57
2, 30695, Note_on_c, 0, 55, 0
2, 30829, Note_on_c, 0, 51, 52
2, 30881, Note_on_c, 0, 51, 0
2, 31041, Note_on_c, 0, 46, 44
2, 31061, Control_c, 0, 64, 35
2, 31080, Control_c, 0, 64, 55
2, 31100, Control_c, 0, 64, 60
2, 31118, Control_c, 0, 64, 62
2, 31138, Control_c, 0, 64, 63
2, 31157, Control_c, 0, 64, 64
2, 31176, Control_c, 0, 64, 65
2, 31195, Control_c, 0, 64, 66
2, 31215, Control_c, 0, 64, 67
2, 31220, Note_on_c, 0, 65, 55
2, 31228, Note_on_c, 0, 74, 49
2, 31234, Control_c, 0, 64, 68
2, 31267, Note_on_c, 0, 65, 0
2, 31330, Control_c, 0, 64, 68
2, 31348, Note_on_c, 0, 74, 0
2, 31368, Control_c, 0, 64, 67
2, 31393, Note_on_c, 0, 75, 76
2, 31406, Control_c, 0, 64, 67
2, 31407, Note_on_c, 0, 67, 62
2, 31426, Control_c, 0, 64, 66
2, 31444, Control_c, 0, 64, 66
2, 31452, Note_on_c, 0, 67, 0
2, 31464, Control_c, 0, 64, 65
2, 31483, Control_c, 0, 64, 65
2, 31521, Control_c, 0, 64, 64
2, 31525, Note_on_c, 0, 46, 0
2, 31541, Control_c, 0, 64, 64
2, 31560, Control_c, 0, 64, 63
2, 31580, Control_c, 0, 64, 62
2, 31599, Control_c, 0, 64, 61
2, 31603, Note_on_c, 0, 77, 69
2, 31616, Note_on_c, 0, 75, 0
2, 31619, Control_c, 0, 64, 60
2, 31628, Note_on_c, 0, 68, 54
2, 31638, Control_c, 0, 64, 59
2, 31657, Control_c, 0, 64, 57
2, 31675, Control_c, 0, 64, 55
2, 31698, Control_c, 0, 64, 52
2, 31717, Control_c, 0, 64, 49
2, 31736, Control_c, 0, 64, 45
2, 31756, Control_c, 0, 64, 36
2, 31775, Control_c, 0, 64, 25
2, 31790, Note_on_c, 0, 46, 43
2, 31794, Control_c, 0, 64, 0
2, 31973, Note_on_c, 0, 45, 51
2, 31985, Note_on_c, 0, 46, 0
2, 32163, Note_on_c, 0, 45, 0
2, 32167, Note_on_c, 0, 46, 63
2, 32276, Note_on_c, 0, 68, 0
2, 32332, Note_on_c, 0, 77, 0
2, 32353, Note_on_c, 0, 50, 73
2, 32370, Note_on_c, 0, 46, 0
2, 32528, Note_on_c, 0, 77, 76
2, 32545, Note_on_c, 0, 48, 66
2, 32547, Note_on_c, 0, 68, 70
2, 32554, Note_on_c, 0, 50, 0
2, 32623, Note_on_c, 0, 68, 0
2, 32715, Note_on_c, 0, 48, 0
2, 32725, Note_on_c, 0, 71, 76
2, 32737, Note_on_c, 0, 68, 78
2, 32737, Note_on_c, 0, 77, 0
2, 32738, Note_on_c, 0, 50, 70
2, 32755, Control_c, 0, 64, 58
2, 32774, Control_c, 0, 64, 65
2, 32794, Control_c, 0, 64, 68
2, 32812, Control_c, 0, 64, 71
2, 32829, Note_on_c, 0, 71, 0
2, 32832, Control_c, 0, 64, 75
2, 32851, Control_c, 0, 64, 78
2, 32871, Control_c, 0, 64, 80
2, 32874, Note_on_c, 0, 68, 0
2, 32889, Control_c, 0, 64, 81
2, 32889, Note_on_c, 0, 50, 0
2, 32909, Control_c, 0, 64, 82
2, 32923, Note_on_c, 0, 53, 74
2, 32948, Control_c, 0, 64, 82
2, 32986, Control_c, 0, 64, 82
2, 33005, Control_c, 0, 64, 81
2, 33024, Control_c, 0, 64, 80
2, 33043, Control_c, 0, 64, 78
2, 33063, Control_c, 0, 64, 76
2, 33082, Control_c, 0, 64, 72
2, 33100, Control_c, 0, 64, 69
2, 33102, Note_on_c, 0, 72, 81
2, 33110, Note_on_c, 0, 51, 67
2, 33116, Note_on_c, 0, 65, 66
2, 33120, Control_c, 0, 64, 65
2, 33127, Note_on_c, 0, 68, 52
2, 33139, Control_c, 0, 64, 63
2, 33143, Note_on_c, 0, 53, 0
2, 33157, Note_on_c, 0, 68, 0
2, 33158, Control_c, 0, 64, 61
2, 33177, Control_c, 0, 64, 59
2, 33190, Note_on_c, 0, 65, 0
2, 33197, Control_c, 0, 64, 57
2, 33216, Control_c, 0, 64, 53
2, 33235, Control_c, 0, 64, 47
2, 33254, Control_c, 0, 64, 35
2, 33274, Control_c, 0, 64, 0
2, 33285, Note_on_c, 0, 51, 0
2, 33294, Note_on_c, 0, 71, 80
2, 33299, Note_on_c, 0, 53, 65
2, 33310, Note_on_c, 0, 68, 63
2, 33320, Note_on_c, 0, 62, 63
2, 33326, Note_on_c, 0, 72, 0
2, 33487, Note_on_c, 0, 56, 76
2, 33504, Note_on_c, 0, 53, 0
2, 33551, Note_on_c, 0, 71, 0
2, 33604, Note_on_c, 0, 68, 0
2, 33609, Note_on_c, 0, 62, 0
2, 33661, Note_on_c, 0, 56, 0
2, 33665, Note_on_c, 0, 55, 72
2, 33801, Note_on_c, 0, 55, 0
2, 33892, Note_on_c, 0, 56, 55
2, 34036, Note_on_c, 0, 56, 0
2, 34061, Note_on_c, 0, 59, 55
2, 34232, Note_on_c, 0, 62, 61
2, 34253, Note_on_c, 0, 59, 0
2, 34414, Note_on_c, 0, 62, 0
2, 34434, Note_on_c, 0, 65, 63
2, 34444, Note_on_c, 0, 47, 51
2, 34564, Note_on_c, 0, 47, 0
2, 34624, Note_on_c, 0, 63, 72
2, 34647, Note_on_c, 0, 65, 0
2, 34777, Note_on_c, 0, 62, 77
2, 34810, Note_on_c, 0, 63, 0
2, 34860, Note_on_c, 0, 62, 0
2, 34978, Note_on_c, 0, 63, 62
2, 34987, Note_on_c, 0, 48, 59
2, 35108, Note_on_c, 0, 48, 0
2, 35155, Note_on_c, 0, 67, 68
2, 35187, Note_on_c, 0, 63, 0
2, 35324, Note_on_c, 0, 67, 0
2, 35324, Note_on_c, 0, 72, 73
2, 35457, Note_on_c, 0, 72, 0
2, 35533, Note_on_c, 0, 60, 52
2, 35535, Note_on_c, 0, 75, 57
2, 35653, Note_on_c, 0, 60, 0
2, 35735, Note_on_c, 0, 74, 55
2, 35777, Note_on_c, 0, 75, 0
2, 35894, Note_on_c, 0, 72, 56
2, 35914, Note_on_c, 0, 74, 0
2, 36068, Note_on_c, 0, 72, 0
2, 36122, Note_on_c, 0, 58, 51
2, 36254, Note_on_c, 0, 58, 0
2, 36291, Note_on_c, 0, 63, 66
2, 36455, Note_on_c, 0, 72, 73
2, 36492, Note_on_c, 0, 63, 0
2, 36593, Note_on_c, 0, 72, 0
2, 36657, Note_on_c, 0, 65, 70
2, 36662, Note_on_c, 0, 56, 59
2, 36781, Note_on_c, 0, 56, 0
2, 36827, Note_on_c, 0, 68, 76
2, 36913, Note_on_c, 0, 65, 0
2, 36996, Note_on_c, 0, 72, 79
2, 37021, Note_on_c, 0, 68, 0
2, 37178, Note_on_c, 0, 72, 0
2, 37197, Note_on_c, 0, 44, 48
2, 37197, Note_on_c, 0, 75, 63
2, 37313, Note_on_c, 0, 44, 0
2, 37380, Note_on_c, 0, 74, 60
2, 37420, Note_on_c, 0, 75, 0
2, 37551, Note_on_c, 0, 72, 56
2, 37571, Note_on_c, 0, 74, 0
2, 37668, Note_on_c, 0, 72, 0
2, 37737, Note_on_c, 0, 51, 51
2, 37907, Note_on_c, 0, 51, 0
2, 37916, Note_on_c, 0, 67, 63
2, 38088, Note_on_c, 0, 72, 80
2, 38090, Note_on_c, 0, 67, 0
2, 38252, Note_on_c, 0, 72, 0
2, 38268, Note_on_c, 0, 53, 61
2, 38281, Note_on_c, 0, 68, 73
2, 38396, Note_on_c, 0, 53, 0
2, 38450, Note_on_c, 0, 71, 77
2, 38470, Note_on_c, 0, 68, 0
2, 38602, Note_on_c, 0, 72, 81
2, 38612, Note_on_c, 0, 71, 0
2, 38800, Note_on_c, 0, 72, 0
2, 38807, Note_on_c, 0, 75, 66
2, 38808, Note_on_c, 0, 54, 51
2, 38935, Note_on_c, 0, 54, 0
2, 38989, Note_on_c, 0, 74, 56
2, 39007, Note_on_c, 0, 75, 0
2, 39144, Note_on_c, 0, 72, 64
2, 39147, Note_on_c, 0, 74, 0
2, 39253, Note_on_c, 0, 72, 0
2, 39358, Note_on_c, 0, 55, 46
2, 39476, Note_on_c, 0, 55, 0
2, 39519, Note_on_c, 0, 65, 47
2, 39692, Note_on_c, 0, 71, 60
2, 39746, Note_on_c, 0, 65, 0
2, 39872, Note_on_c, 0, 71, 0
2, 39901, Note_on_c, 0, 72, 54
2, 39916, Note_on_c, 0, 48, 39
2, 40101, Note_on_c, 0, 67, 55
2, 40271, Note_on_c, 0, 63, 63
2, 40326, Note_on_c, 0, 67, 0
2, 40387, Note_on_c, 0, 72, 0
2, 40460, Note_on_c, 0, 60, 70
2, 40460, Note_on_c, 0, 63, 0
2, 40643, Note_on_c, 0, 51, 64
2, 40670, Note_on_c, 0, 48, 0
2, 40820, Note_on_c, 0, 55, 70
2, 40841, Note_on_c, 0, 51, 0
2, 40950, Note_on_c, 0, 60, 0
2, 40951, Note_on_c, 0, 55, 0
2, 40999, Note_on_c, 0, 58, 70
2, 41167, Note_on_c, 0, 58, 0
2, 41173, Note_on_c, 0, 57, 74
2, 41325, Note_on_c, 0, 57, 0
2, 41346, Note_on_c, 0, 55, 68
2, 41510, Note_on_c, 0, 55, 0
2, 41551, Note_on_c, 0, 57, 50
2, 41741, Note_on_c, 0, 57, 0
2, 41744, Note_on_c, 0, 75, 68
2, 41924, Note_on_c, 0, 74, 72
2, 41928, Note_on_c, 0, 75, 0
2, 42091, Note_on_c, 0, 74, 0
2, 42114, Note_on_c, 0, 75, 79
2, 42168, Note_on_c, 0, 75, 0
2, 42298, Note_on_c, 0, 72, 65
2, 42356, Note_on_c, 0, 72, 0
2, 42470, Note_on_c, 0, 69, 60
2, 42540, Note_on_c, 0, 69, 0
2, 42673, Note_on_c, 0, 65, 43
2, 42842, Note_on_c, 0, 60, 44
2, 43022, Note_on_c, 0, 53, 52
2, 43024, Note_on_c, 0, 60, 0
2, 43049, Note_on_c, 0, 65, 0
2, 43237, Note_on_c, 0, 58, 52
2, 43277, Note_on_c, 0, 53, 0
2, 43409, Note_on_c, 0, 65, 53
2, 43569, Note_on_c, 0, 58, 0
2, 43570, Note_on_c, 0, 65, 0
2, 43582, Note_on_c, 0, 63, 63
2, 43764, Note_on_c, 0, 65, 63
2, 43784, Note_on_c, 0, 63, 0
2, 43937, Note_on_c, 0, 70, 79
2, 44111, Note_on_c, 0, 72, 77
2, 44245, Note_on_c, 0, 72, 0
2, 44316, Note_on_c, 0, 73, 75
2, 44494, Note_on_c, 0, 56, 59
2, 44665, Note_on_c, 0, 65, 0
2, 44668, Note_on_c, 0, 56, 0
2, 44673, Note_on_c, 0, 73, 0
2, 44677, Note_on_c, 0, 53, 49
2, 44725, Note_on_c, 0, 70, 0
2, 44877, Note_on_c, 0, 53, 0
2, 44897, Note_on_c, 0, 55, 46
2, 45080, Note_on_c, 0, 73, 58
2, 45116, Note_on_c, 0, 55, 0
2, 45255, Note_on_c, 0, 72, 71
2, 45289, Note_on_c, 0, 73, 0
2, 45409, Note_on_c, 0, 72, 0
2, 45445, Note_on_c, 0, 73, 75
2, 45520, Note_on_c, 0, 73, 0
2, 45629, Note_on_c, 0, 70, 62
2, 45694, Note_on_c, 0, 70, 0
2, 45798, Note_on_c, 0, 67, 50
2, 45865, Note_on_c, 0, 67, 0
2, 46002, Note_on_c, 0, 63, 45
2, 46179, Note_on_c, 0, 58, 45
2, 46360, Note_on_c, 0, 51, 47
2, 46368, Note_on_c, 0, 58, 0
2, 46508, Note_on_c, 0, 63, 0
2, 46534, Note_on_c, 0, 51, 0
2, 46558, Note_on_c, 0, 56, 47
2, 46746, Note_on_c, 0, 63, 49
2, 46846, Note_on_c, 0, 56, 0
2, 46906, Note_on_c, 0, 63, 0
2, 46912, Note_on_c, 0, 61, 65
2, 47089, Note_on_c, 0, 61, 0
2, 47093, Note_on_c, 0, 63, 66
2, 47285, Note_on_c, 0, 68, 63
2, 47467, Note_on_c, 0, 70, 69
2, 47470, Note_on_c, 0, 68, 0
2, 47595, Note_on_c, 0, 70, 0
2, 47655, Note_on_c, 0, 72, 56
2, 47840, Note_on_c, 0, 55, 48
2, 48004, Note_on_c, 0, 55, 0
2, 48020, Note_on_c, 0, 51, 48
2, 48092, Note_on_c, 0, 63, 0
2, 48102, Note_on_c, 0, 72, 0
2, 48189, Note_on_c, 0, 51, 0
2, 48244, Note_on_c, 0, 53, 34
2, 48406, Note_on_c, 0, 62, 43
2, 48472, Note_on_c, 0, 53, 0
2, 48574, Note_on_c, 0, 68, 65
2, 48684, Note_on_c, 0, 62, 0
2, 48763, Note_on_c, 0, 72, 72
2, 48787, Note_on_c, 0, 68, 0
2, 48937, Note_on_c, 0, 72, 0
2, 48939, Note_on_c, 0, 70, 73
2, 49106, Note_on_c, 0, 70, 0
2, 49119, Note_on_c, 0, 68, 58
2, 49208, Note_on_c, 0, 68, 0
2, 49319, Note_on_c, 0, 55, 46
2, 49475, Note_on_c, 0, 61, 54
2, 49491, Note_on_c, 0, 55, 0
2, 49662, Note_on_c, 0, 70, 65
2, 49682, Note_on_c, 0, 61, 0
2, 49806, Note_on_c, 0, 70, 0
2, 49857, Note_on_c, 0, 52, 60
2, 50041, Note_on_c, 0, 60, 64
2, 50092, Note_on_c, 0, 52, 0
2, 50220, Note_on_c, 0, 67, 65
2, 50296, Note_on_c, 0, 60, 0
2, 50387, Note_on_c, 0, 70, 74
2, 50389, Note_on_c, 0, 67, 0
2, 50565, Note_on_c, 0, 68, 70
2, 50627, Note_on_c, 0, 70, 0
2, 50717, Note_on_c, 0, 68, 0
2, 50740, Note_on_c, 0, 67, 54
2, 50866, Note_on_c, 0, 67, 0
2, 50939, Note_on_c, 0, 53, 62
2, 51114, Note_on_c, 0, 60, 65
2, 51138, Note_on_c, 0, 53, 0
2, 51283, Note_on_c, 0, 60, 0
2, 51289, Note_on_c, 0, 68, 73
2, 51405, Note_on_c, 0, 68, 0
2, 51479, Note_on_c, 0, 50, 70
2, 51647, Note_on_c, 0, 58, 66
2, 51651, Note_on_c, 0, 50, 0
2, 51827, Note_on_c, 0, 58, 0
2, 51828, Note_on_c, 0, 68, 71
2, 51954, Note_on_c, 0, 68, 0
2, 52015, Note_on_c, 0, 51, 57
2, 52177, Note_on_c, 0, 51, 0
2, 52210, Note_on_c, 0, 68, 76
2, 52371, Note_on_c, 0, 68, 0
2, 52390, Note_on_c, 0, 67, 59
2, 52517, Note_on_c, 0, 67, 0
2, 52581, Note_on_c, 0, 45, 44
2, 52747, Note_on_c, 0, 72, 56
2, 52765, Note_on_c, 0, 45, 0
2, 52941, Note_on_c, 0, 72, 0
2, 52949, Note_on_c, 0, 63, 41
2, 53043, Note_on_c, 0, 63, 0
2, 53140, Note_on_c, 0, 46, 31
2, 53383, Note_on_c, 0, 62, 40
2, 53423, Note_on_c, 0, 46, 0
2, 53558, Note_on_c, 0, 60, 64
2, 53558, Note_on_c, 0, 62, 0
2, 53738, Note_on_c, 0, 60, 0
2, 53755, Note_on_c, 0, 62, 66
2, 53931, Note_on_c, 0, 50, 47
2, 53932, Note_on_c, 0, 62, 0
2, 53938, Note_on_c, 0, 58, 63
2, 54067, Note_on_c, 0, 58, 0
2, 54102, Note_on_c, 0, 50, 0
2, 54108, Note_on_c, 0, 48, 55
2, 54114, Note_on_c, 0, 57, 66
2, 54165, Note_on_c, 0, 57, 0
2, 54226, Note_on_c, 0, 48, 0
2, 54276, Note_on_c, 0, 50, 57
2, 54305, Note_on_c, 0, 58, 72
2, 54370, Note_on_c, 0, 58, 0
2, 54374, Note_on_c, 0, 50, 0
2, 54460, Note_on_c, 0, 53, 52
2, 54480, Note_on_c, 0, 62, 69
2, 54534, Note_on_c, 0, 62, 0
2, 54542, Note_on_c, 0, 53, 0
2, 54648, Note_on_c, 0, 56, 56
2, 54659, Note_on_c, 0, 65, 69
2, 54752, Note_on_c, 0, 65, 0
2, 54753, Note_on_c, 0, 56, 0
2, 54853, Note_on_c, 0, 46, 39
2, 54854, Note_on_c, 0, 68, 66
2, 55024, Note_on_c, 0, 65, 66
2, 55026, Note_on_c, 0, 68, 0
2, 55034, Note_on_c, 0, 50, 65
2, 55045, Note_on_c, 0, 46, 0
2, 55187, Note_on_c, 0, 63, 75
2, 55200, Note_on_c, 0, 48, 59
2, 55204, Note_on_c, 0, 50, 0
2, 55219, Note_on_c, 0, 65, 0
2, 55345, Note_on_c, 0, 48, 0
2, 55370, Note_on_c, 0, 50, 63
2, 55382, Note_on_c, 0, 63, 0
2, 55391, Note_on_c, 0, 65, 67
2, 55502, Note_on_c, 0, 50, 0
2, 55543, Note_on_c, 0, 53, 69
2, 55547, Note_on_c, 0, 62, 73
2, 55572, Note_on_c, 0, 65, 0
2, 55719, Note_on_c, 0, 62, 0
2, 55720, Note_on_c, 0, 60, 71
2, 55724, Note_on_c, 0, 51, 68
2, 55745, Note_on_c, 0, 53, 0
2, 55847, Note_on_c, 0, 60, 0
2, 55860, Note_on_c, 0, 51, 0
2, 55899, Note_on_c, 0, 53, 63
2, 55917, Note_on_c, 0, 62, 69
2, 55984, Note_on_c, 0, 53, 0
2, 56004, Note_on_c, 0, 62, 0
2, 56078, Note_on_c, 0, 50, 62
2, 56087, Note_on_c, 0, 65, 70
2, 56175, Note_on_c, 0, 65, 0
2, 56184, Note_on_c, 0, 50, 0
2, 56252, Note_on_c, 0, 46, 63
2, 56262, Note_on_c, 0, 68, 68
2, 56309, Note_on_c, 0, 46, 0
2, 56348, Note_on_c, 0, 68, 0
2, 56437, Note_on_c, 0, 72, 73
2, 56565, Note_on_c, 0, 72, 0
2, 56608, Note_on_c, 0, 63, 64
2, 56736, Note_on_c, 0, 63, 0
2, 56786, Note_on_c, 0, 62, 60
2, 56791, Note_on_c, 0, 53, 50
2, 56921, Note_on_c, 0, 62, 0
2, 56957, Note_on_c, 0, 53, 0
2, 56975, Note_on_c, 0, 43, 54
2, 56975, Note_on_c, 0, 70, 67
2, 57066, Note_on_c, 0, 43, 0
2, 57127, Note_on_c, 0, 70, 0
2, 57138, Note_on_c, 0, 61, 59
2, 57233, Note_on_c, 0, 61, 0
2, 57327, Note_on_c, 0, 51, 44
2, 57327, Note_on_c, 0, 60, 57
2, 57481, Note_on_c, 0, 60, 0
2, 57497, Note_on_c, 0, 41, 46
2, 57501, Note_on_c, 0, 51, 0
2, 57519, Note_on_c, 0, 68, 57
2, 57606, Note_on_c, 0, 41, 0
2, 57637, Note_on_c, 0, 68, 0
2, 57671, Note_on_c, 0, 59, 50
2, 57832, Note_on_c, 0, 59, 0
2, 57869, Note_on_c, 0, 58, 40
2, 57875, Note_on_c, 0, 50, 42
2, 58039, Note_on_c, 0, 50, 0
2, 58041, Note_on_c, 0, 58, 0
2, 58075, Note_on_c, 0, 39, 43
2, 58244, Note_on_c, 0, 39, 0
2, 58244, Note_on_c, 0, 67, 55
2, 58399, Note_on_c, 0, 67, 0
2, 58420, Note_on_c, 0, 65, 64
2, 58600, Note_on_c, 0, 67, 68
2, 58610, Note_on_c, 0, 65, 0
2, 58771, Note_on_c, 0, 67, 0
2, 58779, Note_on_c, 0, 55, 50
2, 58781, Note_on_c, 0, 63, 73
2, 58938, Note_on_c, 0, 55, 0
2, 58948, Note_on_c, 0, 62, 73
2, 58951, Note_on_c, 0, 63, 0
2, 58956, Note_on_c, 0, 53, 61
2, 59018, Note_on_c, 0, 62, 0
2, 59076, Note_on_c, 0, 53, 0
2, 59144, Note_on_c, 0, 55, 53
2, 59152, Note_on_c, 0, 63, 64
2, 59227, Note_on_c, 0, 55, 0
2, 59230, Note_on_c, 0, 63, 0
2, 59315, Note_on_c, 0, 67, 69
2, 59319, Note_on_c, 0, 58, 52
2, 59378, Note_on_c, 0, 58, 0
2, 59382, Note_on_c, 0, 67, 0
2, 59478, Note_on_c, 0, 61, 50
2, 59482, Note_on_c, 0, 70, 78
2, 59558, Note_on_c, 0, 61, 0
2, 59567, Note_on_c, 0, 70, 0
2, 59663, Note_on_c, 0, 51, 44
2, 59693, Note_on_c, 0, 73, 62
2, 59860, Note_on_c, 0, 70, 73
2, 59881, Note_on_c, 0, 73, 0
2, 59882, Note_on_c, 0, 55, 58
2, 59910, Note_on_c, 0, 51, 0
2, 60022, Note_on_c, 0, 68, 74
2, 60035, Note_on_c, 0, 70, 0
2, 60036, Note_on_c, 0, 53, 61
2, 60060, Note_on_c, 0, 55, 0
2, 60200, Note_on_c, 0, 53, 0
2, 60206, Note_on_c, 0, 70, 79
2, 60217, Note_on_c, 0, 55, 65
2, 60221, Note_on_c, 0, 68, 0
2, 60366, Note_on_c, 0, 55, 0
2, 60380, Note_on_c, 0, 67, 74
2, 60393, Note_on_c, 0, 70, 0
2, 60409, Note_on_c, 0, 58, 57
2, 60490, Note_on_c, 0, 67, 0
2, 60557, Note_on_c, 0, 65, 73
2, 60564, Note_on_c, 0, 56, 66
2, 60595, Note_on_c, 0, 58, 0
2, 60629, Note_on_c, 0, 65, 0
2, 60669, Note_on_c, 0, 56, 0
2, 60734, Note_on_c, 0, 58, 68
2, 60740, Note_on_c, 0, 67, 70
2, 60827, Note_on_c, 0, 58, 0
2, 60833, Note_on_c, 0, 67, 0
2, 60903, Note_on_c, 0, 55, 61
2, 60907, Note_on_c, 0, 70, 78
2, 60993, Note_on_c, 0, 70, 0
2, 61068, Note_on_c, 0, 51, 54
2, 61082, Note_on_c, 0, 73, 72
2, 61137, Note_on_c, 0, 55, 0
2, 61180, Note_on_c, 0, 73, 0
2, 61197, Note_on_c, 0, 51, 0
2, 61276, Note_on_c, 0, 77, 66
2, 61442, Note_on_c, 0, 68, 72
2, 61465, Note_on_c, 0, 77, 0
2, 61589, Note_on_c, 0, 68, 0
2, 61626, Note_on_c, 0, 67, 62
2, 61632, Note_on_c, 0, 58, 51
2, 61765, Note_on_c, 0, 67, 0
2, 61788, Note_on_c, 0, 48, 44
2, 61825, Note_on_c, 0, 58, 0
2, 61825, Note_on_c, 0, 75, 64
2, 61926, Note_on_c, 0, 48, 0
2, 61980, Note_on_c, 0, 66, 59
2, 61984, Note_on_c, 0, 75, 0
2, 62116, Note_on_c, 0, 66, 0
2, 62150, Note_on_c, 0, 56, 51
2, 62160, Note_on_c, 0, 65, 50
2, 62342, Note_on_c, 0, 65, 0
2, 62352, Note_on_c, 0, 46, 45
2, 62368, Note_on_c, 0, 73, 57
2, 62414, Note_on_c, 0, 56, 0
2, 62507, Note_on_c, 0, 73, 0
2, 62513, Note_on_c, 0, 64, 46
2, 62515, Note_on_c, 0, 46, 0
2, 62662, Note_on_c, 0, 64, 0
2, 62696, Note_on_c, 0, 63, 51
2, 62705, Note_on_c, 0, 55, 46
2, 62883, Note_on_c, 0, 44, 57
2, 62898, Note_on_c, 0, 63, 0
2, 62899, Note_on_c, 0, 55, 0
2, 63079, Note_on_c, 0, 72, 57
2, 63085, Note_on_c, 0, 44, 0
2, 63238, Note_on_c, 0, 72, 0
2, 63247, Note_on_c, 0, 70, 74
2, 63430, Note_on_c, 0, 72, 72
2, 63473, Note_on_c, 0, 70, 0
2, 63515, Note_on_c, 0, 60, 43
2, 63608, Note_on_c, 0, 72, 0
2, 63620, Note_on_c, 0, 68, 72
2, 63755, Note_on_c, 0, 58, 48
2, 63771, Note_on_c, 0, 67, 73
2, 63788, Note_on_c, 0, 68, 0
2, 63792, Note_on_c, 0, 60, 0
2, 63840, Note_on_c, 0, 67, 0
2, 63953, Note_on_c, 0, 58, 0
2, 63962, Note_on_c, 0, 60, 60
2, 63965, Note_on_c, 0, 68, 69
2, 64059, Note_on_c, 0, 68, 0
2, 64131, Note_on_c, 0, 60, 0
2, 64137, Note_on_c, 0, 72, 82
2, 64219, Note_on_c, 0, 72, 0
2, 64310, Note_on_c, 0, 75, 84
2, 64405, Note_on_c, 0, 75, 0
2, 64485, Note_on_c, 0, 79, 79
2, 64660, Note_on_c, 0, 70, 80
2, 64682, Note_on_c, 0, 79, 0
2, 64813, Note_on_c, 0, 70, 0
2, 64825, Note_on_c, 0, 48, 62
2, 64826, Note_on_c, 0, 69, 76
2, 64966, Note_on_c, 0, 69, 0
2, 65001, Note_on_c, 0, 48, 0
2, 65009, Note_on_c, 0, 77, 74
2, 65021, Note_on_c, 0, 62, 66
2, 65131, Note_on_c, 0, 62, 0
2, 65174, Note_on_c, 0, 77, 0
2, 65183, Note_on_c, 0, 68, 70
2, 65307, Note_on_c, 0, 68, 0
2, 65351, Note_on_c, 0, 67, 63
2, 65374, Note_on_c, 0, 46, 55
2, 65495, Note_on_c, 0, 46, 0
2, 65508, Note_on_c, 0, 67, 0
2, 65540, Note_on_c, 0, 75, 69
2, 65563, Note_on_c, 0, 60, 52
2, 65682, Note_on_c, 0, 66, 49
2, 65694, Note_on_c, 0, 75, 0
2, 65777, Note_on_c, 0, 60, 0
2, 65843, Note_on_c, 0, 66, 0
2, 65877, Note_on_c, 0, 45, 46
2, 65877, Note_on_c, 0, 65, 43
2, 66052, Note_on_c, 0, 45, 0
2, 66082, Note_on_c, 0, 46, 60
2, 66105, Note_on_c, 0, 65, 0
2, 66277, Note_on_c, 0, 74, 73
2, 66359, Note_on_c, 0, 46, 0
2, 66446, Note_on_c, 0, 72, 81
2, 66477, Note_on_c, 0, 74, 0
2, 66630, Note_on_c, 0, 74, 73
2, 66654, Note_on_c, 0, 72, 0
2, 66806, Note_on_c, 0, 70, 82
2, 66817, Note_on_c, 0, 62, 62
2, 66818, Note_on_c, 0, 74, 0
2, 66971, Note_on_c, 0, 69, 86
2, 66984, Note_on_c, 0, 70, 0
2, 67007, Note_on_c, 0, 60, 71
2, 67021, Note_on_c, 0, 62, 0
2, 67051, Note_on_c, 0, 69, 0
2, 67164, Note_on_c, 0, 70, 78
2, 67185, Note_on_c, 0, 60, 0
2, 67186, Note_on_c, 0, 62, 70
2, 67277, Note_on_c, 0, 70, 0
2, 67340, Note_on_c, 0, 74, 75
2, 67410, Note_on_c, 0, 62, 0
2, 67430, Note_on_c, 0, 74, 0
2, 67516, Note_on_c, 0, 77, 81
2, 67625, Note_on_c, 0, 77, 0
2, 67695, Note_on_c, 0, 80, 79
2, 67874, Note_on_c, 0, 72, 86
2, 68034, Note_on_c, 0, 80, 0
2, 68043, Note_on_c, 0, 50, 63
2, 68044, Note_on_c, 0, 72, 0
2, 68050, Note_on_c, 0, 71, 74
2, 68161, Note_on_c, 0, 50, 0
2, 68231, Note_on_c, 0, 71, 0
2, 68243, Note_on_c, 0, 63, 72
2, 68245, Note_on_c, 0, 79, 75
2, 68396, Note_on_c, 0, 70, 73
2, 68439, Note_on_c, 0, 79, 0
2, 68440, Note_on_c, 0, 63, 0
2, 68559, Note_on_c, 0, 70, 0
2, 68585, Note_on_c, 0, 48, 63
2, 68585, Note_on_c, 0, 69, 78
2, 68706, Note_on_c, 0, 48, 0
2, 68727, Note_on_c, 0, 69, 0
2, 68767, Note_on_c, 0, 62, 63
2, 68779, Note_on_c, 0, 77, 72
2, 68941, Note_on_c, 0, 68, 74
2, 69021, Note_on_c, 0, 62, 0
2, 69087, Note_on_c, 0, 77, 0
2, 69112, Note_on_c, 0, 67, 63
2, 69112, Note_on_c, 0, 68, 0
2, 69125, Note_on_c, 0, 47, 60
2, 69268, Note_on_c, 0, 67, 0
2, 69299, Note_on_c, 0, 47, 0
2, 69311, Note_on_c, 0, 48, 74
2, 69506, Note_on_c, 0, 75, 79
2, 69550, Note_on_c, 0, 48, 0
2, 69677, Note_on_c, 0, 74, 79
2, 69722, Note_on_c, 0, 75, 0
2, 69867, Note_on_c, 0, 75, 82
2, 69964, Note_on_c, 0, 74, 0
2, 70042, Note_on_c, 0, 72, 82
2, 70048, Note_on_c, 0, 63, 61
2, 70081, Note_on_c, 0, 75, 0
2, 70169, Note_on_c, 0, 72, 0
2, 70197, Note_on_c, 0, 63, 0
2, 70210, Note_on_c, 0, 71, 83
2, 70223, Note_on_c, 0, 62, 67
2, 70300, Note_on_c, 0, 71, 0
2, 70407, Note_on_c, 0, 72, 80
2, 70410, Note_on_c, 0, 62, 0
2, 70422, Note_on_c, 0, 63, 70
2, 70512, Note_on_c, 0, 72, 0
2, 70585, Note_on_c, 0, 63, 0
2, 70600, Note_on_c, 0, 75, 82
2, 70687, Note_on_c, 0, 75, 0
2, 70779, Note_on_c, 0, 79, 84
2, 70913, Note_on_c, 0, 79, 0
2, 71056, Note_on_c, 0, 84, 73
2, 71304, Note_on_c, 0, 68, 45
2, 71465, Note_on_c, 0, 68, 0
2, 71524, Note_on_c, 0, 83, 67
2, 71541, Note_on_c, 0, 67, 38
2, 71581, Note_on_c, 0, 84, 0
2, 71653, Note_on_c, 0, 67, 0
2, 71734, Note_on_c, 0, 84, 70
2, 71753, Note_on_c, 0, 68, 45
2, 71776, Note_on_c, 0, 83, 0
2, 71917, Note_on_c, 0, 79, 68
2, 71930, Note_on_c, 0, 63, 47
2, 72003, Note_on_c, 0, 68, 0
2, 72058, Note_on_c, 0, 84, 0
2, 72098, Note_on_c, 0, 60, 44
2, 72101, Note_on_c, 0, 63, 0
2, 72132, Note_on_c, 0, 80, 57
2, 72175, Note_on_c, 0, 79, 0
2, 72310, Note_on_c, 0, 67, 53
2, 72317, Note_on_c, 0, 60, 0
2, 72388, Note_on_c, 0, 80, 0
2, 72472, Note_on_c, 0, 78, 81
2, 72484, Note_on_c, 0, 62, 56
2, 72512, Note_on_c, 0, 67, 0
2, 72629, Note_on_c, 0, 62, 0
2, 72650, Note_on_c, 0, 58, 55
2, 72661, Note_on_c, 0, 79, 82
2, 72663, Note_on_c, 0, 78, 0
2, 72829, Note_on_c, 0, 58, 0
2, 72845, Note_on_c, 0, 79, 0
2, 72865, Note_on_c, 0, 84, 75
2, 72871, Note_on_c, 0, 66, 51
2, 73040, Note_on_c, 0, 60, 52
2, 73117, Note_on_c, 0, 66, 0
2, 73234, Note_on_c, 0, 60, 0
2, 73247, Note_on_c, 0, 78, 67
2, 73256, Note_on_c, 0, 57, 55
2, 73326, Note_on_c, 0, 84, 0
2, 73404, Note_on_c, 0, 57, 0
2, 73444, Note_on_c, 0, 79, 66
2, 73450, Note_on_c, 0, 78, 0
2, 73464, Note_on_c, 0, 63, 49
2, 73603, Note_on_c, 0, 79, 0
2, 73634, Note_on_c, 0, 74, 57
2, 73635, Note_on_c, 0, 58, 48
2, 73763, Note_on_c, 0, 63, 0
2, 73784, Note_on_c, 0, 58, 0
2, 73794, Note_on_c, 0, 55, 48
2, 73818, Note_on_c, 0, 75, 59
2, 73849, Note_on_c, 0, 74, 0
2, 73963, Note_on_c, 0, 75, 0
2, 74003, Note_on_c, 0, 55, 0
2, 74014, Note_on_c, 0, 62, 62
2, 74175, Note_on_c, 0, 73, 79
2, 74189, Note_on_c, 0, 57, 62
2, 74230, Note_on_c, 0, 62, 0
2, 74365, Note_on_c, 0, 57, 0
2, 74370, Note_on_c, 0, 54, 61
2, 74372, Note_on_c, 0, 73, 0
2, 74383, Note_on_c, 0, 74, 78
2, 74541, Note_on_c, 0, 54, 0
2, 74575, Note_on_c, 0, 55, 62
2, 74583, Note_on_c, 0, 82, 79
2, 74593, Note_on_c, 0, 74, 0
2, 74753, Note_on_c, 0, 79, 72
2, 74780, Note_on_c, 0, 55, 0
2, 74795, Control_c, 0, 64, 35
2, 74814, Control_c, 0, 64, 56
2, 74834, Control_c, 0, 64, 59
2, 74847, Note_on_c, 0, 82, 0
2, 74853, Control_c, 0, 64, 58
2, 74872, Control_c, 0, 64, 57
2, 74890, Control_c, 0, 64, 55
2, 74910, Control_c, 0, 64, 54
2, 74929, Note_on_c, 0, 74, 77
2, 74948, Control_c, 0, 64, 53
2, 74950, Note_on_c, 0, 79, 0
2, 74967, Control_c, 0, 64, 52
2, 74987, Control_c, 0, 64, 49
2, 75005, Control_c, 0, 64, 47
2, 75025, Control_c, 0, 64, 46
2, 75038, Note_on_c, 0, 74, 0
2, 75102, Control_c, 0, 64, 46
2, 75121, Control_c, 0, 64, 45
2, 75121, Note_on_c, 0, 48, 64
2, 75140, Control_c, 0, 64, 44
2, 75141, Note_on_c, 0, 75, 72
2, 75159, Control_c, 0, 64, 41
2, 75179, Control_c, 0, 64, 39
2, 75198, Control_c, 0, 64, 36
2, 75293, Control_c, 0, 64, 36
2, 75310, Note_on_c, 0, 79, 81
2, 75334, Note_on_c, 0, 48, 0
2, 75347, Note_on_c, 0, 75, 0
2, 75351, Control_c, 0, 64, 35
2, 75409, Control_c, 0, 64, 35
2, 75428, Control_c, 0, 64, 34
2, 75447, Control_c, 0, 64, 32
2, 75467, Control_c, 0, 64, 29
2, 75477, Note_on_c, 0, 84, 79
2, 75485, Control_c, 0, 64, 27
2, 75505, Control_c, 0, 64, 25
2, 75515, Note_on_c, 0, 79, 0
2, 75524, Control_c, 0, 64, 17
2, 75544, Control_c, 0, 64, 0
2, 75655, Note_on_c, 0, 49, 73
2, 75669, Note_on_c, 0, 82, 79
2, 75718, Note_on_c, 0, 84, 0
2, 75830, Note_on_c, 0, 81, 80
2, 75909, Note_on_c, 0, 49, 0
2, 75966, Note_on_c, 0, 82, 0
2, 75989, Note_on_c, 0, 79, 83
2, 76013, Note_on_c, 0, 81, 0
2, 76171, Note_on_c, 0, 79, 0
2, 76194, Note_on_c, 0, 78, 69
2, 76197, Note_on_c, 0, 50, 48
2, 76273, Note_on_c, 0, 79, 79
2, 76352, Note_on_c, 0, 78, 0
2, 76365, Note_on_c, 0, 81, 79
2, 76370, Note_on_c, 0, 79, 0
2, 76500, Note_on_c, 0, 81, 0
2, 76535, Note_on_c, 0, 74, 73
2, 76714, Note_on_c, 0, 50, 0
2, 76727, Note_on_c, 0, 75, 69
2, 76755, Note_on_c, 0, 74, 0
2, 76902, Note_on_c, 0, 74, 68
2, 76929, Note_on_c, 0, 75, 0
2, 77055, Note_on_c, 0, 74, 0
2, 77101, Note_on_c, 0, 72, 62
2, 77111, Note_on_c, 0, 38, 49
2, 77288, Note_on_c, 0, 70, 67
2, 77310, Note_on_c, 0, 40, 61
2, 77321, Note_on_c, 0, 38, 0
2, 77326, Note_on_c, 0, 72, 0
2, 77466, Note_on_c, 0, 72, 77
2, 77561, Note_on_c, 0, 70, 0
2, 77639, Note_on_c, 0, 72, 0
2, 77641, Note_on_c, 0, 69, 76
2, 77653, Note_on_c, 0, 42, 65
2, 77691, Note_on_c, 0, 40, 0
2, 77721, Note_on_c, 0, 69, 0
2, 77835, Note_on_c, 0, 43, 71
2, 77842, Note_on_c, 0, 70, 66
2, 77849, Note_on_c, 0, 42, 0
2, 78017, Note_on_c, 0, 43, 0
2, 78017, Note_on_c, 0, 74, 72
2, 78033, Note_on_c, 0, 70, 0
2, 78189, Note_on_c, 0, 79, 81
2, 78194, Note_on_c, 0, 74, 0
2, 78323, Note_on_c, 0, 79, 0
2, 78389, Note_on_c, 0, 55, 57
2, 78396, Note_on_c, 0, 82, 59
2, 78547, Note_on_c, 0, 55, 0
2, 78575, Note_on_c, 0, 81, 57
2, 78646, Note_on_c, 0, 82, 0
2, 78760, Note_on_c, 0, 81, 0
2, 78762, Note_on_c, 0, 79, 52
2, 78942, Note_on_c, 0, 79, 0
2, 78973, Note_on_c, 0, 53, 53
2, 79145, Note_on_c, 0, 70, 72
2, 79190, Note_on_c, 0, 53, 0
2, 79289, Control_c, 0, 64, 9
2, 79314, Note_on_c, 0, 79, 81
2, 79347, Note_on_c, 0, 70, 0
2, 79518, Note_on_c, 0, 72, 71
2, 79526, Note_on_c, 0, 51, 59
2, 79585, Note_on_c, 0, 79, 0
2, 79615, Control_c, 0, 64, 0
2, 79685, Note_on_c, 0, 75, 76
2, 79693, Note_on_c, 0, 51, 0
2, 79760, Note_on_c, 0, 72, 0
2, 79857, Note_on_c, 0, 79, 76
2, 79880, Note_on_c, 0, 75, 0
2, 80049, Note_on_c, 0, 39, 50
2, 80066, Note_on_c, 0, 82, 70
2, 80090, Note_on_c, 0, 79, 0
2, 80239, Note_on_c, 0, 39, 0
2, 80247, Note_on_c, 0, 81, 62
2, 80356, Note_on_c, 0, 82, 0
2, 80414, Note_on_c, 0, 79, 61
2, 80437, Note_on_c, 0, 81, 0
2, 80527, Note_on_c, 0, 79, 0
2, 80586, Note_on_c, 0, 46, 58
2, 80772, Note_on_c, 0, 46, 0
2, 80776, Note_on_c, 0, 74, 72
2, 80926, Note_on_c, 0, 74, 0
2, 80936, Note_on_c, 0, 79, 79
2, 81107, Note_on_c, 0, 48, 57
2, 81126, Note_on_c, 0, 75, 76
2, 81131, Note_on_c, 0, 79, 0
2, 81272, Note_on_c, 0, 48, 0
2, 81301, Note_on_c, 0, 78, 78
2, 81308, Note_on_c, 0, 75, 0
2, 81463, Note_on_c, 0, 79, 80
2, 81491, Note_on_c, 0, 78, 0
2, 81637, Note_on_c, 0, 49, 53
2, 81639, Note_on_c, 0, 79, 0
2, 81667, Note_on_c, 0, 70, 67
2, 81810, Note_on_c, 0, 70, 0
2, 81815, Note_on_c, 0, 49, 0
2, 81845, Note_on_c, 0, 69, 64
2, 82014, Note_on_c, 0, 67, 57
2, 82036, Note_on_c, 0, 69, 0
2, 82129, Note_on_c, 0, 67, 0
2, 82195, Note_on_c, 0, 50, 43
2, 82366, Note_on_c, 0, 72, 54
2, 82369, Note_on_c, 0, 50, 0
2, 82487, Note_on_c, 0, 72, 0
2, 82531, Note_on_c, 0, 66, 57
2, 82697, Note_on_c, 0, 66, 0
2, 82770, Note_on_c, 0, 67, 44
2, 82771, Note_on_c, 0, 43, 48
2, 82951, Note_on_c, 0, 70, 73
2, 83036, Note_on_c, 0, 67, 0
2, 83118, Note_on_c, 0, 70, 0
2, 83120, Note_on_c, 0, 74, 75
2, 83279, Note_on_c, 0, 74, 0
2, 83288, Note_on_c, 0, 79, 79
2, 83378, Control_c, 0, 64, 35
2, 83398, Control_c, 0, 64, 56
2, 83417, Control_c, 0, 64, 62
2, 83436, Control_c, 0, 64, 65
2, 83455, Control_c, 0, 64, 67
2, 83475, Control_c, 0, 64, 69
2, 83477, Note_on_c, 0, 46, 71
2, 83494, Control_c, 0, 64, 73
2, 83513, Control_c, 0, 64, 77
2, 83521, Note_on_c, 0, 79, 0
2, 83532, Control_c, 0, 64, 81
2, 83552, Control_c, 0, 64, 83
2, 83644, Note_on_c, 0, 50, 77
2, 83782, Control_c, 0, 64, 82
2, 83801, Control_c, 0, 64, 82
2, 83821, Control_c, 0, 64, 81
2, 83840, Control_c, 0, 64, 77
2, 83843, Note_on_c, 0, 70, 78
2, 83855, Note_on_c, 0, 43, 0
2, 83858, Control_c, 0, 64, 72
2, 83863, Note_on_c, 0, 50, 0
2, 83869, Note_on_c, 0, 46, 0
2, 83878, Control_c, 0, 64, 66
2, 83878, Note_on_c, 0, 53, 67
2, 83897, Control_c, 0, 64, 61
2, 83900, Note_on_c, 0, 70, 0
2, 83908, Note_on_c, 0, 69, 77
2, 83916, Control_c, 0, 64, 55
2, 83935, Control_c, 0, 64, 48
2, 83955, Control_c, 0, 64, 36
2, 83974, Control_c, 0, 64, 9
2, 83980, Note_on_c, 0, 70, 83
2, 83993, Control_c, 0, 64, 0
2, 84015, Note_on_c, 0, 69, 0
2, 84110, Note_on_c, 0, 52, 53
2, 84132, Note_on_c, 0, 53, 0
2, 84287, Note_on_c, 0, 50, 68
2, 84293, Note_on_c, 0, 52, 0
2, 84467, Note_on_c, 0, 50, 0
2, 84493, Note_on_c, 0, 52, 71
2, 84675, Note_on_c, 0, 73, 77
2, 84692, Note_on_c, 0, 70, 0
2, 84846, Note_on_c, 0, 72, 79
2, 84856, Note_on_c, 0, 73, 0
2, 84973, Note_on_c, 0, 52, 0
2, 85058, Note_on_c, 0, 73, 71
2, 85062, Note_on_c, 0, 72, 0
2, 85136, Note_on_c, 0, 73, 0
2, 85231, Note_on_c, 0, 70, 68
2, 85280, Note_on_c, 0, 70, 0
2, 85404, Note_on_c, 0, 67, 53
2, 85465, Note_on_c, 0, 67, 0
2, 85596, Note_on_c, 0, 64, 45
2, 85772, Note_on_c, 0, 55, 47
2, 85777, Note_on_c, 0, 64, 0
2, 85956, Note_on_c, 0, 55, 0
2, 85961, Note_on_c, 0, 48, 41
2, 85963, Note_on_c, 0, 70, 78
2, 86190, Note_on_c, 0, 53, 46
2, 86206, Note_on_c, 0, 48, 0
2, 86391, Note_on_c, 0, 68, 66
2, 86464, Note_on_c, 0, 70, 0
2, 86543, Note_on_c, 0, 68, 0
2, 86547, Note_on_c, 0, 67, 54
2, 86615, Note_on_c, 0, 67, 0
2, 86761, Note_on_c, 0, 68, 67
2, 86925, Note_on_c, 0, 72, 75
2, 87064, Note_on_c, 0, 53, 0
2, 87094, Note_on_c, 0, 77, 81
2, 87280, Note_on_c, 0, 80, 87
2, 87475, Note_on_c, 0, 51, 62
2, 87614, Note_on_c, 0, 77, 0
2, 87653, Note_on_c, 0, 72, 0
2, 87655, Note_on_c, 0, 48, 60
2, 87657, Note_on_c, 0, 51, 0
2, 87755, Note_on_c, 0, 80, 0
2, 87835, Note_on_c, 0, 48, 0
2, 87856, Note_on_c, 0, 50, 54
2, 87877, Note_on_c, 0, 68, 0
2, 88064, Note_on_c, 0, 80, 65
2, 88108, Note_on_c, 0, 50, 0
2, 88229, Note_on_c, 0, 79, 78
2, 88246, Note_on_c, 0, 80, 0
2, 88430, Note_on_c, 0, 80, 79
2, 88442, Note_on_c, 0, 79, 0
2, 88510, Note_on_c, 0, 80, 0
2, 88617, Note_on_c, 0, 77, 62
2, 88676, Note_on_c, 0, 77, 0
2, 88787, Note_on_c, 0, 74, 58
2, 88851, Note_on_c, 0, 74, 0
2, 88972, Note_on_c, 0, 70, 54
2, 89078, Note_on_c, 0, 70, 0
2, 89165, Note_on_c, 0, 62, 44
2, 89324, Note_on_c, 0, 62, 0
2, 89341, Note_on_c, 0, 80, 67
2, 89363, Note_on_c, 0, 58, 45
2, 89447, Control_c, 0, 64, 46
2, 89466, Control_c, 0, 64, 59
2, 89485, Control_c, 0, 64, 63
2, 89505, Control_c, 0, 64, 64
2, 89523, Note_on_c, 0, 58, 0
2, 89524, Control_c, 0, 64, 65
2, 89543, Control_c, 0, 64, 65
2, 89563, Note_on_c, 0, 63, 47
2, 89600, Control_c, 0, 64, 65
2, 89600, Note_on_c, 0, 80, 0
2, 89619, Control_c, 0, 64, 64
2, 89639, Control_c, 0, 64, 64
2, 89658, Control_c, 0, 64, 63
2, 89677, Control_c, 0, 64, 62
2, 89696, Control_c, 0, 64, 60
2, 89716, Control_c, 0, 64, 58
2, 89735, Control_c, 0, 64, 55
2, 89735, Note_on_c, 0, 79, 73
2, 89754, Control_c, 0, 64, 52
2, 89773, Control_c, 0, 64, 48
2, 89793, Control_c, 0, 64, 43
2, 89811, Control_c, 0, 64, 37
2, 89831, Control_c, 0, 64, 29
2, 89850, Control_c, 0, 64, 23
2, 89870, Control_c, 0, 64, 18
2, 89888, Control_c, 0, 64, 13
2, 89908, Control_c, 0, 64, 0
2, 89910, Note_on_c, 0, 77, 74
2, 89936, Note_on_c, 0, 79, 0
2, 90076, Note_on_c, 0, 63, 0
2, 90092, Note_on_c, 0, 79, 75
2, 90116, Note_on_c, 0, 77, 0
2, 90197, Note_on_c, 0, 79, 0
2, 90267, Note_on_c, 0, 75, 67
2, 90338, Note_on_c, 0, 75, 0
2, 90433, Note_on_c, 0, 70, 66
2, 90503, Note_on_c, 0, 70, 0
2, 90628, Note_on_c, 0, 67, 52
2, 90685, Note_on_c, 0, 67, 0
2, 90792, Note_on_c, 0, 55, 44
2, 90800, Note_on_c, 0, 70, 58
2, 90889, Note_on_c, 0, 70, 0
2, 90900, Note_on_c, 0, 55, 0
2, 90986, Note_on_c, 0, 51, 48
2, 91007, Note_on_c, 0, 73, 57
2, 91127, Note_on_c, 0, 51, 0
2, 91187, Note_on_c, 0, 56, 51
2, 91357, Note_on_c, 0, 72, 70
2, 91359, Note_on_c, 0, 56, 0
2, 91371, Note_on_c, 0, 51, 49
2, 91539, Note_on_c, 0, 70, 77
2, 91542, Note_on_c, 0, 73, 0
2, 91556, Note_on_c, 0, 49, 56
2, 91564, Note_on_c, 0, 51, 0
2, 91600, Note_on_c, 0, 72, 0
2, 91692, Note_on_c, 0, 49, 0
2, 91728, Note_on_c, 0, 68, 75
2, 91746, Note_on_c, 0, 48, 55
2, 91847, Note_on_c, 0, 70, 0
2, 91890, Note_on_c, 0, 68, 0
2, 91905, Note_on_c, 0, 67, 65
2, 91912, Note_on_c, 0, 46, 60
2, 92074, Note_on_c, 0, 48, 0
2, 92090, Note_on_c, 0, 65, 72
2, 92093, Note_on_c, 0, 44, 57
2, 92124, Note_on_c, 0, 67, 0
2, 92134, Note_on_c, 0, 46, 0
2, 92245, Note_on_c, 0, 44, 0
2, 92269, Note_on_c, 0, 43, 64
2, 92443, Note_on_c, 0, 48, 65
2, 92458, Note_on_c, 0, 63, 77
2, 92460, Note_on_c, 0, 43, 0
2, 92492, Note_on_c, 0, 65, 0
2, 92652, Note_on_c, 0, 46, 67
2, 92652, Note_on_c, 0, 66, 81
2, 92676, Note_on_c, 0, 63, 0
2, 92680, Note_on_c, 0, 48, 0
2, 92846, Note_on_c, 0, 45, 61
2, 92858, Note_on_c, 0, 46, 0
2, 92991, Note_on_c, 0, 45, 0
2, 93022, Note_on_c, 0, 46, 61
2, 93036, Note_on_c, 0, 65, 69
2, 93132, Note_on_c, 0, 45, 65
2, 93177, Note_on_c, 0, 46, 0
2, 93206, Note_on_c, 0, 43, 63
2, 93216, Note_on_c, 0, 66, 0
2, 93228, Note_on_c, 0, 45, 0
2, 93236, Note_on_c, 0, 63, 74
2, 93288, Note_on_c, 0, 65, 0
2, 93291, Note_on_c, 0, 45, 43
2, 93345, Note_on_c, 0, 43, 0
2, 93385, Note_on_c, 0, 45, 0
2, 93388, Note_on_c, 0, 46, 71
2, 93405, Note_on_c, 0, 62, 69
2, 93413, Note_on_c, 0, 63, 0
2, 93456, Note_on_c, 0, 62, 0
2, 93596, Note_on_c, 0, 46, 0
2, 93599, Note_on_c, 0, 60, 58
2, 93677, Note_on_c, 0, 60, 0
2, 93780, Note_on_c, 0, 58, 71
2, 93821, Note_on_c, 0, 58, 0
2, 93966, Note_on_c, 0, 56, 61
2, 94012, Note_on_c, 0, 56, 0
2, 94142, Note_on_c, 0, 55, 62
2, 94193, Note_on_c, 0, 55, 0
2, 94323, Note_on_c, 0, 53, 60
2, 94376, Note_on_c, 0, 53, 0
2, 94542, Note_on_c, 0, 55, 40
2, 94549, Note_on_c, 0, 46, 40
2, 94728, Note_on_c, 0, 63, 62
2, 94918, Note_on_c, 0, 62, 70
2, 94952, Note_on_c, 0, 63, 0
2, 95112, Note_on_c, 0, 63, 66
2, 95133, Note_on_c, 0, 62, 0
2, 95136, Note_on_c, 0, 55, 0
2, 95160, Note_on_c, 0, 46, 0
2, 95168, Note_on_c, 0, 63, 0
2, 95283, Note_on_c, 0, 58, 63
2, 95343, Note_on_c, 0, 58, 0
2, 95469, Note_on_c, 0, 56, 60
2, 95537, Note_on_c, 0, 56, 0
2, 95649, Note_on_c, 0, 55, 48
2, 95709, Note_on_c, 0, 55, 0
2, 95824, Note_on_c, 0, 53, 51
2, 95881, Note_on_c, 0, 53, 0
2, 96001, Note_on_c, 0, 51, 47
2, 96057, Note_on_c, 0, 51, 0
2, 96211, Note_on_c, 0, 50, 45
2, 96230, Note_on_c, 0, 46, 36
2, 96423, Note_on_c, 0, 65, 52
2, 96553, Note_on_c, 0, 65, 0
2, 96588, Note_on_c, 0, 63, 70
2, 96726, Note_on_c, 0, 63, 0
2, 96794, Note_on_c, 0, 65, 63
2, 96824, Note_on_c, 0, 46, 0
2, 96831, Note_on_c, 0, 50, 0
2, 96859, Note_on_c, 0, 65, 0
2, 96968, Note_on_c, 0, 62, 58
2, 97026, Note_on_c, 0, 62, 0
2, 97143, Note_on_c, 0, 58, 58
2, 97208, Note_on_c, 0, 58, 0
2, 97347, Note_on_c, 0, 56, 54
2, 97414, Note_on_c, 0, 56, 0
2, 97528, Note_on_c, 0, 55, 50
2, 97579, Note_on_c, 0, 55, 0
2, 97701, Note_on_c, 0, 53, 55
2, 97759, Note_on_c, 0, 53, 0
2, 97935, Note_on_c, 0, 51, 44
2, 97950, Note_on_c, 0, 46, 29
2, 98144, Note_on_c, 0, 67, 59
2, 98318, Note_on_c, 0, 65, 77
2, 98357, Note_on_c, 0, 67, 0
2, 98443, Note_on_c, 0, 65, 0
2, 98464, Note_on_c, 0, 46, 0
2, 98476, Note_on_c, 0, 51, 0
2, 98501, Note_on_c, 0, 67, 75
2, 98600, Note_on_c, 0, 67, 0
2, 98677, Note_on_c, 0, 63, 70
2, 98727, Note_on_c, 0, 63, 0
2, 98848, Note_on_c, 0, 60, 74
2, 98928, Note_on_c, 0, 60, 0
2, 99031, Note_on_c, 0, 58, 73
2, 99099, Note_on_c, 0, 58, 0
2, 99223, Note_on_c, 0, 56, 76
2, 99270, Note_on_c, 0, 56, 0
2, 99394, Note_on_c, 0, 55, 70
2, 99469, Note_on_c, 0, 55, 0
2, 99588, Note_on_c, 0, 53, 71
2, 99589, Note_on_c, 0, 50, 66
2, 99594, Note_on_c, 0, 46, 58
2, 99758, Note_on_c, 0, 68, 75
2, 99932, Note_on_c, 0, 68, 0
2, 99936, Note_on_c, 0, 67, 75
2, 100120, Note_on_c, 0, 68, 85
2, 100130, Note_on_c, 0, 67, 0
2, 100132, Note_on_c, 0, 53, 0
2, 100138, Note_on_c, 0, 50, 0
2, 100154, Note_on_c, 0, 46, 0
2, 100196, Note_on_c, 0, 68, 0
2, 100309, Note_on_c, 0, 65, 67
2, 100380, Note_on_c, 0, 65, 0
2, 100479, Note_on_c, 0, 62, 72
2, 100562, Note_on_c, 0, 62, 0
2, 100666, Note_on_c, 0, 60, 70
2, 100719, Note_on_c, 0, 60, 0
2, 100849, Note_on_c, 0, 58, 64
2, 100899, Note_on_c, 0, 58, 0
2, 101030, Note_on_c, 0, 56, 65
2, 101088, Note_on_c, 0, 56, 0
2, 101235, Note_on_c, 0, 70, 82
2, 101247, Note_on_c, 0, 55, 46
2, 101247, Note_on_c, 0, 67, 60
2, 101259, Note_on_c, 0, 63, 58
2, 101426, Note_on_c, 0, 55, 0
2, 101446, Note_on_c, 0, 58, 66
2, 101629, Note_on_c, 0, 56, 78
2, 101656, Note_on_c, 0, 58, 0
2, 101741, Note_on_c, 0, 56, 0
2, 101813, Note_on_c, 0, 58, 72
2, 101881, Note_on_c, 0, 58, 0
2, 101972, Note_on_c, 0, 63, 0
2, 101982, Note_on_c, 0, 55, 67
2, 102044, Note_on_c, 0, 67, 0
2, 102050, Note_on_c, 0, 55, 0
2, 102104, Note_on_c, 0, 70, 0
2, 102154, Note_on_c, 0, 51, 58
2, 102218, Note_on_c, 0, 51, 0
2, 102373, Note_on_c, 0, 46, 42
2, 102582, Note_on_c, 0, 67, 47
2, 102722, Note_on_c, 0, 46, 0
2, 102734, Note_on_c, 0, 67, 0
2, 102753, Note_on_c, 0, 75, 69
2, 102810, Note_on_c, 0, 75, 0
2, 102965, Note_on_c, 0, 75, 52
2, 102985, Note_on_c, 0, 65, 40
2, 103137, Note_on_c, 0, 75, 0
2, 103165, Note_on_c, 0, 58, 41
2, 103187, Note_on_c, 0, 74, 46
2, 103339, Note_on_c, 0, 57, 55
2, 103402, Note_on_c, 0, 58, 0
2, 103403, Note_on_c, 0, 57, 0
2, 103533, Note_on_c, 0, 58, 58
2, 103607, Note_on_c, 0, 58, 0
2, 103714, Note_on_c, 0, 53, 52
2, 103724, Note_on_c, 0, 74, 0
2, 103779, Note_on_c, 0, 53, 0
2, 103900, Note_on_c, 0, 50, 54
2, 103932, Note_on_c, 0, 65, 0
2, 103975, Note_on_c, 0, 50, 0
2, 104120, Note_on_c, 0, 46, 35
2, 104304, Note_on_c, 0, 65, 55
2, 104358, Note_on_c, 0, 46, 0
2, 104499, Note_on_c, 0, 67, 65
2, 104519, Note_on_c, 0, 65, 0
2, 104705, Note_on_c, 0, 68, 75
2, 104718, Note_on_c, 0, 67, 0
2, 104851, Note_on_c, 0, 68, 0
2, 104877, Note_on_c, 0, 60, 60
2, 105057, Note_on_c, 0, 55, 51
2, 105067, Note_on_c, 0, 63, 60
2, 105070, Note_on_c, 0, 60, 0
2, 105228, Note_on_c, 0, 53, 61
2, 105232, Note_on_c, 0, 55, 0
2, 105245, Note_on_c, 0, 63, 0
2, 105260, Note_on_c, 0, 62, 65
2, 105433, Note_on_c, 0, 65, 62
2, 105462, Note_on_c, 0, 62, 0
2, 105597, Note_on_c, 0, 65, 0
2, 105601, Note_on_c, 0, 51, 52
2, 105608, Note_on_c, 0, 70, 69
2, 105641, Note_on_c, 0, 53, 0
2, 105742, Note_on_c, 0, 51, 0
2, 105782, Note_on_c, 0, 50, 61
2, 105797, Note_on_c, 0, 58, 53
2, 105862, Note_on_c, 0, 70, 0
2, 105975, Note_on_c, 0, 65, 47
2, 106067, Note_on_c, 0, 58, 0
2, 106137, Note_on_c, 0, 46, 47
2, 106152, Note_on_c, 0, 65, 0
2, 106157, Note_on_c, 0, 68, 60
2, 106266, Note_on_c, 0, 50, 0
2, 106306, Note_on_c, 0, 68, 0
2, 106339, Note_on_c, 0, 39, 48
2, 106340, Note_on_c, 0, 67, 53
2, 106346, Note_on_c, 0, 46, 0
2, 106455, Note_on_c, 0, 67, 0
2, 106503, Note_on_c, 0, 39, 0
2, 106518, Note_on_c, 0, 58, 64
2, 106702, Note_on_c, 0, 53, 68
2, 106728, Note_on_c, 0, 58, 0
2, 106730, Note_on_c, 0, 61, 56
2, 106871, Note_on_c, 0, 51, 71
2, 106896, Note_on_c, 0, 61, 0
2, 106910, Note_on_c, 0, 60, 61
2, 106971, Note_on_c, 0, 53, 0
2, 107073, Note_on_c, 0, 63, 66
2, 107078, Note_on_c, 0, 60, 0
2, 107246, Note_on_c, 0, 68, 67
2, 107250, Note_on_c, 0, 49, 61
2, 107318, Note_on_c, 0, 51, 0
2, 107319, Note_on_c, 0, 63, 0
2, 107384, Note_on_c, 0, 49, 0
2, 107388, Note_on_c, 0, 68, 0
2, 107423, Note_on_c, 0, 48, 65
2, 107432, Note_on_c, 0, 56, 61
2, 107601, Note_on_c, 0, 63, 62
2, 107736, Note_on_c, 0, 56, 0
2, 107786, Note_on_c, 0, 44, 45
2, 107789, Note_on_c, 0, 67, 58
2, 107807, Note_on_c, 0, 48, 0
2, 107932, Note_on_c, 0, 63, 0
2, 107947, Note_on_c, 0, 44, 0
2, 107973, Note_on_c, 0, 38, 59
2, 107975, Note_on_c, 0, 65, 53
2, 108063, Note_on_c, 0, 38, 0
2, 108101, Note_on_c, 0, 65, 0
2, 108110, Note_on_c, 0, 67, 0
2, 108154, Note_on_c, 0, 56, 57
2, 108333, Note_on_c, 0, 56, 0
2, 108354, Note_on_c, 0, 60, 56
2, 108357, Note_on_c, 0, 51, 44
2, 108471, Note_on_c, 0, 51, 0
2, 108532, Note_on_c, 0, 50, 53
2, 108537, Note_on_c, 0, 60, 0
2, 108543, Note_on_c, 0, 58, 58
2, 108732, Note_on_c, 0, 62, 64
2, 108751, Note_on_c, 0, 58, 0
2, 108900, Note_on_c, 0, 67, 66
2, 108905, Note_on_c, 0, 48, 60
2, 108911, Note_on_c, 0, 50, 0
2, 108964, Note_on_c, 0, 62, 0
2, 109021, Note_on_c, 0, 67, 0
2, 109068, Note_on_c, 0, 48, 0
2, 109093, Note_on_c, 0, 55, 57
2, 109099, Note_on_c, 0, 46, 55
2, 109220, Control_c, 0, 64, 24
2, 109239, Control_c, 0, 64, 47
2, 109250, Note_on_c, 0, 62, 62
2, 109258, Control_c, 0, 64, 58
2, 109278, Control_c, 0, 64, 62
2, 109296, Control_c, 0, 64, 64
2, 109315, Control_c, 0, 64, 65
2, 109335, Control_c, 0, 64, 67
2, 109354, Control_c, 0, 64, 69
2, 109373, Control_c, 0, 64, 72
2, 109392, Control_c, 0, 64, 76
2, 109412, Control_c, 0, 64, 80
2, 109424, Note_on_c, 0, 65, 69
2, 109431, Control_c, 0, 64, 84
2, 109433, Note_on_c, 0, 46, 0
2, 109444, Note_on_c, 0, 55, 0
2, 109445, Note_on_c, 0, 43, 58
2, 109451, Control_c, 0, 64, 88
2, 109468, Note_on_c, 0, 62, 0
2, 109470, Control_c, 0, 64, 92
2, 109482, Note_on_c, 0, 43, 0
2, 109490, Control_c, 0, 64, 97
2, 109508, Control_c, 0, 64, 98
2, 109528, Control_c, 0, 64, 99
2, 109566, Control_c, 0, 64, 98
2, 109585, Control_c, 0, 64, 96
2, 109600, Note_on_c, 0, 63, 73
2, 109605, Control_c, 0, 64, 86
2, 109624, Control_c, 0, 64, 69
2, 109629, Note_on_c, 0, 36, 64
2, 109643, Control_c, 0, 64, 55
2, 109662, Control_c, 0, 64, 0
2, 109717, Note_on_c, 0, 65, 0
2, 109718, Note_on_c, 0, 36, 0
2, 109780, Note_on_c, 0, 55, 67
2, 109780, Note_on_c, 0, 63, 0
2, 109939, Note_on_c, 0, 55, 0
2, 109961, Note_on_c, 0, 50, 62
2, 109980, Note_on_c, 0, 58, 70
2, 110125, Note_on_c, 0, 58, 0
2, 110146, Note_on_c, 0, 50, 0
2, 110153, Note_on_c, 0, 48, 63
2, 110153, Note_on_c, 0, 56, 68
2, 110317, Note_on_c, 0, 60, 66
2, 110406, Note_on_c, 0, 56, 0
2, 110498, Note_on_c, 0, 65, 65
2, 110500, Note_on_c, 0, 46, 58
2, 110519, Note_on_c, 0, 48, 0
2, 110557, Note_on_c, 0, 60, 0
2, 110677, Note_on_c, 0, 46, 0
2, 110682, Note_on_c, 0, 53, 67
2, 110684, Note_on_c, 0, 44, 61
2, 110852, Note_on_c, 0, 60, 66
2, 110909, Note_on_c, 0, 53, 0
2, 110910, Note_on_c, 0, 65, 0
2, 111044, Note_on_c, 0, 63, 71
2, 111045, Note_on_c, 0, 43, 51
2, 111048, Note_on_c, 0, 44, 0
2, 111130, Note_on_c, 0, 60, 0
2, 111279, Note_on_c, 0, 43, 0
2, 111329, Note_on_c, 0, 44, 44
2, 111329, Note_on_c, 0, 62, 80
2, 111342, Note_on_c, 0, 58, 71
2, 111348, Note_on_c, 0, 53, 54
2, 111414, Note_on_c, 0, 63, 0
2, 112350, Note_on_c, 0, 58, 0
2, 112364, Note_on_c, 0, 53, 0
2, 112364, Note_on_c, 0, 62, 0
2, 112373, Note_on_c, 0, 44, 0
2, 112976, Note_on_c, 0, 80, 80
2, 112985, Note_on_c, 0, 77, 68
2, 112992, Note_on_c, 0, 70, 69
2, 112994, Note_on_c, 0, 50, 48
2, 113198, Note_on_c, 0, 70, 0
2, 113231, Note_on_c, 0, 80, 0
2, 113245, Note_on_c, 0, 50, 0
2, 113270, Note_on_c, 0, 79, 82
2, 113274, Note_on_c, 0, 51, 54
2, 113280, Note_on_c, 0, 75, 69
2, 113282, Note_on_c, 0, 70, 64
2, 113296, Note_on_c, 0, 77, 0
2, 113538, Note_on_c, 0, 53, 51
2, 113548, Note_on_c, 0, 51, 0
2, 113587, Note_on_c, 0, 53, 0
2, 113617, Note_on_c, 0, 55, 62
2, 113715, Note_on_c, 0, 55, 0
2, 113736, Note_on_c, 0, 56, 62
2, 113850, Note_on_c, 0, 58, 63
2, 113871, Note_on_c, 0, 56, 0
2, 113926, Note_on_c, 0, 58, 0
2, 113946, Note_on_c, 0, 60, 60
2, 114005, Note_on_c, 0, 79, 0
2, 114037, Note_on_c, 0, 62, 68
2, 114042, Note_on_c, 0, 60, 0
2, 114051, Note_on_c, 0, 75, 0
2, 114083, Note_on_c, 0, 70, 0
2, 114120, Note_on_c, 0, 62, 0
2, 114141, Note_on_c, 0, 63, 72
2, 114368, Note_on_c, 0, 63, 0
2, 114377, Note_on_c, 0, 77, 83
2, 114386, Note_on_c, 0, 56, 59
2, 114395, Note_on_c, 0, 68, 67
2, 114395, Note_on_c, 0, 72, 66
2, 114424, Control_c, 0, 64, 9
2, 114443, Control_c, 0, 64, 58
2, 114462, Control_c, 0, 64, 64
2, 114482, Control_c, 0, 64, 66
2, 114501, Control_c, 0, 64, 67
2, 114520, Control_c, 0, 64, 68
2, 114527, Note_on_c, 0, 72, 0
2, 114539, Control_c, 0, 64, 70
2, 114559, Control_c, 0, 64, 71
2, 114577, Control_c, 0, 64, 73
2, 114596, Control_c, 0, 64, 74
2, 114613, Note_on_c, 0, 68, 0
2, 114635, Control_c, 0, 64, 73
2, 114654, Control_c, 0, 64, 69
2, 114672, Note_on_c, 0, 75, 82
2, 114673, Control_c, 0, 64, 62
2, 114678, Note_on_c, 0, 67, 62
2, 114681, Note_on_c, 0, 58, 54
2, 114685, Note_on_c, 0, 56, 0
2, 114691, Note_on_c, 0, 70, 68
2, 114693, Control_c, 0, 64, 46
2, 114711, Control_c, 0, 64, 0
2, 114714, Note_on_c, 0, 77, 0
2, 115039, Control_c, 0, 64, 33
2, 115057, Control_c, 0, 64, 55
2, 115076, Control_c, 0, 64, 61
2, 115096, Control_c, 0, 64, 63
2, 115115, Control_c, 0, 64, 63
2, 115134, Control_c, 0, 64, 64
2, 115153, Control_c, 0, 64, 65
2, 115173, Control_c, 0, 64, 66
2, 115191, Control_c, 0, 64, 68
2, 115211, Control_c, 0, 64, 71
2, 115230, Control_c, 0, 64, 76
2, 115250, Control_c, 0, 64, 80
2, 115268, Control_c, 0, 64, 86
2, 115288, Control_c, 0, 64, 91
2, 115307, Control_c, 0, 64, 96
2, 115314, Note_on_c, 0, 70, 0
2, 115326, Control_c, 0, 64, 101
2, 115345, Control_c, 0, 64, 108
2, 115365, Control_c, 0, 64, 127
2, 115369, Note_on_c, 0, 67, 0
2, 115479, Note_on_c, 0, 75, 0
2, 115614, Note_on_c, 0, 46, 50
2, 115656, Note_on_c, 0, 74, 75
2, 115671, Control_c, 0, 64, 98
2, 115674, Note_on_c, 0, 65, 63
2, 115691, Control_c, 0, 64, 78
2, 115710, Control_c, 0, 64, 65
2, 115730, Control_c, 0, 64, 49
2, 115748, Control_c, 0, 64, 27
2, 115768, Control_c, 0, 64, 21
2, 115825, Control_c, 0, 64, 15
2, 115845, Control_c, 0, 64, 0
2, 115904, Note_on_c, 0, 74, 0
2, 115912, Note_on_c, 0, 75, 71
2, 116028, Note_on_c, 0, 75, 0
2, 116042, Note_on_c, 0, 74, 67
2, 116112, Note_on_c, 0, 74, 0
2, 116153, Note_on_c, 0, 75, 72
2, 116226, Note_on_c, 0, 75, 0
2, 116235, Note_on_c, 0, 74, 75
2, 116305, Note_on_c, 0, 74, 0
2, 116332, Note_on_c, 0, 75, 67
2, 116372, Note_on_c, 0, 74, 65
2, 116380, Note_on_c, 0, 75, 0
2, 116450, Note_on_c, 0, 74, 0
2, 116454, Note_on_c, 0, 75, 73
2, 116502, Note_on_c, 0, 74, 60
2, 116526, Note_on_c, 0, 75, 0
2, 117246, Note_on_c, 0, 74, 0
2, 117262, Note_on_c, 0, 75, 57
2, 117476, Control_c, 0, 64, 49
2, 117496, Control_c, 0, 64, 61
2, 117515, Control_c, 0, 64, 64
2, 117534, Control_c, 0, 64, 65
2, 117553, Control_c, 0, 64, 66
2, 117573, Control_c, 0, 64, 68
2, 117591, Control_c, 0, 64, 72
2, 117611, Control_c, 0, 64, 77
2, 117630, Control_c, 0, 64, 83
2, 117650, Control_c, 0, 64, 90
2, 117668, Control_c, 0, 64, 96
2, 117669, Note_on_c, 0, 65, 0
2, 117688, Control_c, 0, 64, 103
2, 117707, Control_c, 0, 64, 110
2, 117722, Note_on_c, 0, 75, 0
2, 117726, Control_c, 0, 64, 116
2, 117745, Control_c, 0, 64, 118
2, 117822, Control_c, 0, 64, 115
2, 117842, Control_c, 0, 64, 106
2, 117851, Note_on_c, 0, 51, 39
2, 117860, Note_on_c, 0, 75, 65
2, 117861, Control_c, 0, 64, 96
2, 117875, Note_on_c, 0, 67, 47
2, 117880, Control_c, 0, 64, 83
2, 117899, Control_c, 0, 64, 73
2, 117919, Control_c, 0, 64, 66
2, 117937, Control_c, 0, 64, 62
2, 117940, Note_on_c, 0, 58, 0
2, 117956, Control_c, 0, 64, 58
2, 117976, Control_c, 0, 64, 54
2, 117991, Note_on_c, 0, 46, 0
2, 117996, Control_c, 0, 64, 51
2, 118015, Control_c, 0, 64, 49
2, 118034, Control_c, 0, 64, 46
2, 118054, Control_c, 0, 64, 42
2, 118072, Control_c, 0, 64, 34
2, 118091, Control_c, 0, 64, 26
2, 118110, Control_c, 0, 64, 20
2, 118130, Control_c, 0, 64, 18
2, 118148, Control_c, 0, 64, 15
2, 118154, Note_on_c, 0, 75, 0
2, 118168, Control_c, 0, 64, 11
2, 118186, Note_on_c, 0, 70, 55
2, 118187, Control_c, 0, 64, 0
2, 118387, Note_on_c, 0, 68, 63
2, 118403, Note_on_c, 0, 70, 0
2, 118445, Note_on_c, 0, 67, 0
2, 118570, Note_on_c, 0, 68, 0
2, 118573, Note_on_c, 0, 70, 64
2, 118753, Note_on_c, 0, 67, 62
2, 118760, Note_on_c, 0, 70, 0
2, 118906, Note_on_c, 0, 67, 0
2, 118933, Note_on_c, 0, 65, 61
2, 119128, Note_on_c, 0, 67, 60
2, 119143, Note_on_c, 0, 65, 0
2, 119295, Note_on_c, 0, 63, 70
2, 119301, Note_on_c, 0, 67, 0
2, 119368, Note_on_c, 0, 51, 0
2, 119468, Note_on_c, 0, 62, 65
2, 119495, Note_on_c, 0, 63, 0
2, 119629, Note_on_c, 0, 62, 0
2, 119667, Note_on_c, 0, 63, 62
2, 119845, Note_on_c, 0, 58, 57
2, 119870, Note_on_c, 0, 63, 0
2, 120003, Note_on_c, 0, 58, 0
2, 120029, Note_on_c, 0, 56, 59
2, 120229, Note_on_c, 0, 56, 0
2, 120235, Note_on_c, 0, 58, 53
2, 120412, Note_on_c, 0, 55, 57
2, 120436, Note_on_c, 0, 58, 0
2, 120578, Note_on_c, 0, 55, 0
2, 120607, Note_on_c, 0, 53, 60
2, 120820, Note_on_c, 0, 55, 54
2, 120846, Note_on_c, 0, 53, 0
2, 121024, Note_on_c, 0, 51, 53
2, 121061, Note_on_c, 0, 55, 0
2, 121221, Note_on_c, 0, 51, 0
2, 121233, Note_on_c, 0, 50, 55
2, 121683, Note_on_c, 0, 50, 0
2, 121708, Note_on_c, 0, 51, 51
2, 121795, Note_on_c, 0, 51, 0
2, 121820, Note_on_c, 0, 50, 55
2, 121949, Note_on_c, 0, 50, 0
2, 121960, Note_on_c, 0, 51, 47
2, 123371, Note_on_c, 0, 39, 42
2, 123410, Note_on_c, 0, 51, 0
2, 125908, Note_on_c, 0, 39, 0
2, 127759,End_track
0, 0, End_of_file
