0, 0, Header, 1, 2, 480
1, 0, Start_track
1, 0, Tempo, 500000
1, 0, Time_signature, 4, 2, 24, 8
1, 1, End_track
2,0,Start_track
2,0, Note_on_c, 0, 51, 53
2,1099, Control_c, 0, 64, 9
2,1157, Control_c, 0, 64, 11
2,1196, Control_c, 0, 64, 13
2,1234, Control_c, 0, 64, 17
2,1253, Control_c, 0, 64, 18
2,1273, Control_c, 0, 64, 19
2,1291, Control_c, 0, 64, 20
2,1311, Control_c, 0, 64, 21
2,1330, Control_c, 0, 64, 22
2,1368, Control_c, 0, 64, 23
2,1387, Control_c, 0, 64, 24
2,1407, Control_c, 0, 64, 25
2,1425, Control_c, 0, 64, 26
2,1464, Control_c, 0, 64, 27
2,1484, Control_c, 0, 64, 27
2,1522, Control_c, 0, 64, 28
2,1560, Control_c, 0, 64, 29
2,1599, Control_c, 0, 64, 29
2,1708, Note_on_c, 0, 58, 51
2,1775, Note_on_c, 0, 51, 0
2,1791, Control_c, 0, 64, 29
2,1810, Control_c, 0, 64, 27
2,1830, Control_c, 0, 64, 21
2,1848, Control_c, 0, 64, 9
2,1867, Control_c, 0, 64, 0
2,2505, Note_on_c, 0, 58, 0
2,2958, Note_on_c, 0, 56, 46
2,3354, Note_on_c, 0, 55, 50
2,3374, Note_on_c, 0, 56, 0
2,3772, Note_on_c, 0, 55, 0
2,3779, Note_on_c, 0, 60, 53
2,4587, Note_on_c, 0, 58, 46
2,4611, Note_on_c, 0, 60, 0
2,4967, Note_on_c, 0, 58, 0
2,4995, Note_on_c, 0, 56, 47
2,5189, Control_c, 0, 64, 36
2,5208, Control_c, 0, 64, 54
2,5227, Control_c, 0, 64, 59
2,5234, Note_on_c, 0, 56, 0
2,5247, Control_c, 0, 64, 60
2,5265, Control_c, 0, 64, 61
2,5304, Control_c, 0, 64, 60
2,5342, Control_c, 0, 64, 60
2,5362, Control_c, 0, 64, 59
2,5381, Control_c, 0, 64, 58
2,5400, Control_c, 0, 64, 55
2,5404, Note_on_c, 0, 56, 49
2,5419, Control_c, 0, 64, 52
2,5439, Control_c, 0, 64, 50
2,5458, Control_c, 0, 64, 48
2,5477, Control_c, 0, 64, 48
2,5496, Control_c, 0, 64, 47
2,5516, Control_c, 0, 64, 45
2,5534, Control_c, 0, 64, 42
2,5544, Note_on_c, 0, 56, 0
2,5554, Control_c, 0, 64, 39
2,5558, Note_on_c, 0, 55, 50
2,5573, Control_c, 0, 64, 39
2,5594, Control_c, 0, 64, 38
2,5612, Control_c, 0, 64, 38
2,5632, Control_c, 0, 64, 37
2,5651, Control_c, 0, 64, 36
2,5669, Control_c, 0, 64, 35
2,5689, Control_c, 0, 64, 34
2,5728, Control_c, 0, 64, 33
2,5743, Note_on_c, 0, 55, 0
2,5746, Control_c, 0, 64, 32
2,5766, Control_c, 0, 64, 31
2,5776, Note_on_c, 0, 56, 52
2,5785, Control_c, 0, 64, 29
2,5805, Control_c, 0, 64, 26
2,5823, Control_c, 0, 64, 23
2,5843, Control_c, 0, 64, 20
2,5862, Control_c, 0, 64, 18
2,5881, Control_c, 0, 64, 17
2,5920, Control_c, 0, 64, 15
2,5939, Control_c, 0, 64, 13
2,5977, Control_c, 0, 64, 11
2,6112, Control_c, 0, 64, 9
2,6146, Note_on_c, 0, 60, 55
2,6169, Note_on_c, 0, 56, 0
2,6552, Note_on_c, 0, 53, 55
2,6563, Note_on_c, 0, 60, 0
2,7023, Note_on_c, 0, 53, 0
2,7026, Note_on_c, 0, 58, 49
2,7206, Control_c, 0, 64, 0
2,7812, Note_on_c, 0, 56, 50
2,7829, Note_on_c, 0, 58, 0
2,8167, Note_on_c, 0, 56, 0
2,8192, Note_on_c, 0, 55, 44
2,8435, Control_c, 0, 64, 30
2,8451, Note_on_c, 0, 55, 0
2,8454, Control_c, 0, 64, 51
2,8474, Control_c, 0, 64, 57
2,8492, Control_c, 0, 64, 58
2,8512, Control_c, 0, 64, 59
2,8568, Control_c, 0, 64, 58
2,8587, Control_c, 0, 64, 58
2,8607, Control_c, 0, 64, 57
2,8619, Note_on_c, 0, 55, 41
2,8625, Control_c, 0, 64, 56
2,8645, Control_c, 0, 64, 55
2,8664, Control_c, 0, 64, 54
2,8684, Control_c, 0, 64, 52
2,8702, Control_c, 0, 64, 50
2,8722, Control_c, 0, 64, 48
2,8734, Note_on_c, 0, 55, 0
2,8741, Control_c, 0, 64, 46
2,8760, Control_c, 0, 64, 45
2,8767, Note_on_c, 0, 53, 41
2,8779, Control_c, 0, 64, 43
2,8799, Control_c, 0, 64, 41
2,8818, Control_c, 0, 64, 37
2,8837, Control_c, 0, 64, 31
2,8856, Control_c, 0, 64, 21
2,8876, Control_c, 0, 64, 9
2,8894, Control_c, 0, 64, 0
2,8969, Note_on_c, 0, 53, 0
2,8992, Note_on_c, 0, 55, 42
2,9182, Control_c, 0, 64, 40
2,9202, Control_c, 0, 64, 58
2,9221, Control_c, 0, 64, 62
2,9240, Control_c, 0, 64, 64
2,9259, Control_c, 0, 64, 65
2,9279, Control_c, 0, 64, 66
2,9298, Control_c, 0, 64, 69
2,9308, Note_on_c, 0, 55, 0
2,9317, Control_c, 0, 64, 73
2,9336, Control_c, 0, 64, 79
2,9356, Control_c, 0, 64, 87
2,9369, Note_on_c, 0, 58, 53
2,9374, Control_c, 0, 64, 95
2,9394, Control_c, 0, 64, 112
2,9413, Control_c, 0, 64, 127
2,9667, Note_on_c, 0, 58, 0
2,9835, Control_c, 0, 64, 117
2,9854, Control_c, 0, 64, 99
2,9873, Control_c, 0, 64, 88
2,9877, Note_on_c, 0, 51, 36
2,9885, Note_on_c, 0, 58, 69
2,9892, Control_c, 0, 64, 79
2,9912, Control_c, 0, 64, 71
2,9930, Control_c, 0, 64, 65
2,9949, Control_c, 0, 64, 61
2,9969, Control_c, 0, 64, 55
2,9988, Control_c, 0, 64, 49
2,10007, Control_c, 0, 64, 43
2,10026, Control_c, 0, 64, 40
2,10046, Control_c, 0, 64, 39
2,10064, Control_c, 0, 64, 35
2,10084, Control_c, 0, 64, 28
2,10095, Note_on_c, 0, 51, 0
2,10103, Control_c, 0, 64, 17
2,10123, Control_c, 0, 64, 0
2,10266, Note_on_c, 0, 51, 36
2,10411, Note_on_c, 0, 51, 0
2,10434, Note_on_c, 0, 50, 46
2,10600, Note_on_c, 0, 50, 0
2,10627, Note_on_c, 0, 51, 45
2,11038, Note_on_c, 0, 55, 38
2,11464, Note_on_c, 0, 51, 0
2,11501, Note_on_c, 0, 63, 66
2,11508, Note_on_c, 0, 48, 40
2,11555, Note_on_c, 0, 55, 0
2,11690, Note_on_c, 0, 58, 0
2,11918, Note_on_c, 0, 50, 45
2,11930, Note_on_c, 0, 48, 0
2,12071, Note_on_c, 0, 51, 52
2,12107, Note_on_c, 0, 50, 0
2,12209, Note_on_c, 0, 63, 0
2,12285, Note_on_c, 0, 53, 58
2,12287, Note_on_c, 0, 51, 0
2,12648, Note_on_c, 0, 63, 67
2,13051, Note_on_c, 0, 53, 0
2,13062, Note_on_c, 0, 63, 0
2,13071, Note_on_c, 0, 62, 64
2,13072, Note_on_c, 0, 46, 45
2,13487, Note_on_c, 0, 67, 66
2,13535, Note_on_c, 0, 62, 0
2,13893, Note_on_c, 0, 58, 43
2,13903, Note_on_c, 0, 46, 0
2,14242, Note_on_c, 0, 65, 57
2,14253, Note_on_c, 0, 67, 0
2,14627, Note_on_c, 0, 65, 0
2,14651, Note_on_c, 0, 63, 55
2,14867, Control_c, 0, 64, 31
2,14887, Control_c, 0, 64, 53
2,14906, Control_c, 0, 64, 60
2,14926, Control_c, 0, 64, 61
2,14939, Note_on_c, 0, 63, 0
2,14944, Control_c, 0, 64, 62
2,15040, Control_c, 0, 64, 61
2,15045, Note_on_c, 0, 63, 56
2,15060, Control_c, 0, 64, 60
2,15078, Control_c, 0, 64, 59
2,15098, Control_c, 0, 64, 58
2,15117, Control_c, 0, 64, 57
2,15137, Control_c, 0, 64, 56
2,15155, Control_c, 0, 64, 53
2,15175, Control_c, 0, 64, 50
2,15190, Note_on_c, 0, 62, 62
2,15194, Control_c, 0, 64, 47
2,15213, Control_c, 0, 64, 44
2,15227, Note_on_c, 0, 63, 0
2,15232, Control_c, 0, 64, 40
2,15252, Control_c, 0, 64, 37
2,15271, Control_c, 0, 64, 35
2,15290, Control_c, 0, 64, 32
2,15309, Control_c, 0, 64, 28
2,15328, Note_on_c, 0, 58, 0
2,15329, Control_c, 0, 64, 23
2,15347, Control_c, 0, 64, 20
2,15353, Note_on_c, 0, 62, 0
2,15367, Control_c, 0, 64, 18
2,15386, Control_c, 0, 64, 15
2,15395, Note_on_c, 0, 63, 61
2,15405, Note_on_c, 0, 57, 53
2,15406, Control_c, 0, 64, 0
2,15743, Note_on_c, 0, 55, 52
2,15744, Note_on_c, 0, 67, 67
2,15815, Note_on_c, 0, 57, 0
2,15853, Note_on_c, 0, 63, 0
2,16112, Note_on_c, 0, 57, 52
2,16132, Note_on_c, 0, 60, 67
2,16137, Note_on_c, 0, 55, 0
2,16191, Note_on_c, 0, 67, 0
2,16489, Note_on_c, 0, 65, 64
2,16558, Note_on_c, 0, 60, 0
2,16719, Note_on_c, 0, 57, 0
2,16750, Note_on_c, 0, 58, 44
2,16819, Note_on_c, 0, 58, 0
2,16826, Note_on_c, 0, 57, 57
2,16910, Note_on_c, 0, 55, 53
2,16925, Note_on_c, 0, 57, 0
2,17247, Note_on_c, 0, 55, 0
2,17268, Note_on_c, 0, 63, 56
2,17285, Note_on_c, 0, 57, 46
2,17311, Note_on_c, 0, 65, 0
2,17601, Note_on_c, 0, 57, 0
2,17659, Note_on_c, 0, 62, 53
2,17662, Note_on_c, 0, 63, 0
2,17689, Note_on_c, 0, 58, 24
2,17820, Control_c, 0, 64, 39
2,17840, Control_c, 0, 64, 54
2,17859, Control_c, 0, 64, 58
2,17879, Control_c, 0, 64, 59
2,17897, Control_c, 0, 64, 59
2,17961, Note_on_c, 0, 62, 0
2,18031, Control_c, 0, 64, 59
2,18050, Note_on_c, 0, 62, 51
2,18051, Control_c, 0, 64, 58
2,18073, Control_c, 0, 64, 57
2,18079, Note_on_c, 0, 46, 37
2,18091, Control_c, 0, 64, 56
2,18104, Note_on_c, 0, 58, 0
2,18110, Control_c, 0, 64, 55
2,18130, Control_c, 0, 64, 54
2,18149, Control_c, 0, 64, 52
2,18168, Control_c, 0, 64, 50
2,18171, Note_on_c, 0, 62, 0
2,18187, Control_c, 0, 64, 48
2,18195, Note_on_c, 0, 60, 64
2,18207, Control_c, 0, 64, 45
2,18225, Control_c, 0, 64, 42
2,18245, Control_c, 0, 64, 39
2,18264, Control_c, 0, 64, 38
2,18284, Control_c, 0, 64, 36
2,18302, Control_c, 0, 64, 32
2,18322, Control_c, 0, 64, 28
2,18341, Control_c, 0, 64, 25
2,18358, Note_on_c, 0, 60, 0
2,18360, Control_c, 0, 64, 23
2,18379, Control_c, 0, 64, 21
2,18397, Note_on_c, 0, 58, 48
2,18398, Note_on_c, 0, 46, 0
2,18399, Control_c, 0, 64, 15
2,18415, Note_on_c, 0, 62, 51
2,18418, Control_c, 0, 64, 0
2,18687, Control_c, 0, 64, 17
2,18705, Control_c, 0, 64, 32
2,18725, Control_c, 0, 64, 42
2,18744, Control_c, 0, 64, 45
2,18758, Note_on_c, 0, 62, 0
2,18764, Control_c, 0, 64, 45
2,18767, Note_on_c, 0, 65, 52
2,18779, Note_on_c, 0, 56, 40
2,18795, Note_on_c, 0, 58, 0
2,18802, Control_c, 0, 64, 44
2,18821, Control_c, 0, 64, 40
2,18840, Control_c, 0, 64, 35
2,18859, Control_c, 0, 64, 29
2,18879, Control_c, 0, 64, 24
2,18898, Control_c, 0, 64, 20
2,18917, Control_c, 0, 64, 18
2,18936, Control_c, 0, 64, 17
2,18956, Control_c, 0, 64, 15
2,19033, Control_c, 0, 64, 0
2,19105, Note_on_c, 0, 56, 0
2,19111, Note_on_c, 0, 65, 0
2,19139, Note_on_c, 0, 58, 52
2,19153, Note_on_c, 0, 55, 50
2,19281, Control_c, 0, 64, 22
2,19300, Control_c, 0, 64, 46
2,19320, Control_c, 0, 64, 55
2,19338, Control_c, 0, 64, 57
2,19358, Control_c, 0, 64, 58
2,19387, Note_on_c, 0, 58, 0
2,19396, Control_c, 0, 64, 59
2,19435, Control_c, 0, 64, 58
2,19473, Control_c, 0, 64, 58
2,19492, Control_c, 0, 64, 57
2,19508, Note_on_c, 0, 55, 0
2,19510, Note_on_c, 0, 43, 39
2,19511, Control_c, 0, 64, 56
2,19530, Control_c, 0, 64, 56
2,19543, Note_on_c, 0, 58, 47
2,19549, Control_c, 0, 64, 55
2,19569, Control_c, 0, 64, 54
2,19588, Control_c, 0, 64, 54
2,19607, Control_c, 0, 64, 53
2,19626, Control_c, 0, 64, 52
2,19646, Control_c, 0, 64, 50
2,19664, Control_c, 0, 64, 48
2,19664, Note_on_c, 0, 56, 67
2,19679, Note_on_c, 0, 58, 0
2,19684, Control_c, 0, 64, 45
2,19703, Control_c, 0, 64, 43
2,19723, Control_c, 0, 64, 42
2,19741, Control_c, 0, 64, 41
2,19761, Control_c, 0, 64, 40
2,19780, Control_c, 0, 64, 37
2,19800, Control_c, 0, 64, 31
2,19818, Control_c, 0, 64, 23
2,19819, Note_on_c, 0, 56, 0
2,19826, Note_on_c, 0, 43, 0
2,19838, Control_c, 0, 64, 17
2,19857, Control_c, 0, 64, 9
2,19868, Note_on_c, 0, 58, 58
2,19876, Control_c, 0, 64, 0
2,19885, Note_on_c, 0, 55, 43
2,20235, Note_on_c, 0, 53, 44
2,20241, Note_on_c, 0, 62, 51
2,20299, Control_c, 0, 64, 17
2,20319, Control_c, 0, 64, 28
2,20338, Control_c, 0, 64, 37
2,20357, Control_c, 0, 64, 46
2,20376, Control_c, 0, 64, 54
2,20396, Control_c, 0, 64, 57
2,20415, Control_c, 0, 64, 59
2,20434, Control_c, 0, 64, 60
2,20453, Control_c, 0, 64, 61
2,20485, Note_on_c, 0, 55, 0
2,20491, Control_c, 0, 64, 61
2,20549, Control_c, 0, 64, 61
2,20607, Control_c, 0, 64, 60
2,20625, Control_c, 0, 64, 59
2,20645, Control_c, 0, 64, 58
2,20664, Control_c, 0, 64, 56
2,20684, Control_c, 0, 64, 53
2,20701, Note_on_c, 0, 53, 0
2,20702, Control_c, 0, 64, 49
2,20712, Note_on_c, 0, 63, 74
2,20722, Control_c, 0, 64, 43
2,20730, Note_on_c, 0, 51, 41
2,20741, Control_c, 0, 64, 39
2,20758, Note_on_c, 0, 55, 45
2,20760, Control_c, 0, 64, 36
2,20779, Control_c, 0, 64, 34
2,20780, Note_on_c, 0, 62, 0
2,20799, Control_c, 0, 64, 31
2,20800, Note_on_c, 0, 58, 0
2,20818, Control_c, 0, 64, 28
2,20837, Control_c, 0, 64, 25
2,20856, Control_c, 0, 64, 24
2,20914, Control_c, 0, 64, 23
2,20948, Control_c, 0, 64, 22
2,21025, Control_c, 0, 64, 21
2,21111, Note_on_c, 0, 53, 41
2,21128, Note_on_c, 0, 56, 43
2,21139, Control_c, 0, 64, 24
2,21159, Control_c, 0, 64, 30
2,21178, Control_c, 0, 64, 38
2,21197, Control_c, 0, 64, 47
2,21199, Note_on_c, 0, 55, 0
2,21216, Control_c, 0, 64, 51
2,21236, Control_c, 0, 64, 53
2,21241, Note_on_c, 0, 58, 66
2,21249, Note_on_c, 0, 56, 0
2,21254, Note_on_c, 0, 55, 37
2,21255, Control_c, 0, 64, 53
2,21293, Control_c, 0, 64, 53
2,21312, Control_c, 0, 64, 51
2,21331, Control_c, 0, 64, 46
2,21341, Note_on_c, 0, 53, 0
2,21350, Control_c, 0, 64, 39
2,21370, Control_c, 0, 64, 27
2,21389, Control_c, 0, 64, 0
2,21416, Note_on_c, 0, 55, 0
2,21419, Note_on_c, 0, 58, 0
2,21448, Note_on_c, 0, 60, 58
2,21485, Note_on_c, 0, 56, 61
2,21619, Control_c, 0, 64, 28
2,21639, Control_c, 0, 64, 47
2,21658, Control_c, 0, 64, 55
2,21677, Control_c, 0, 64, 57
2,21696, Control_c, 0, 64, 58
2,21716, Control_c, 0, 64, 59
2,21735, Control_c, 0, 64, 59
2,21760, Note_on_c, 0, 60, 0
2,21778, Note_on_c, 0, 56, 0
2,21824, Note_on_c, 0, 55, 42
2,21825, Note_on_c, 0, 58, 54
2,21850, Control_c, 0, 64, 59
2,21869, Control_c, 0, 64, 58
2,21888, Control_c, 0, 64, 58
2,21909, Control_c, 0, 64, 57
2,21921, Note_on_c, 0, 55, 0
2,21929, Control_c, 0, 64, 56
2,21938, Note_on_c, 0, 58, 0
2,21947, Control_c, 0, 64, 54
2,21963, Note_on_c, 0, 56, 50
2,21967, Control_c, 0, 64, 51
2,21968, Note_on_c, 0, 60, 56
2,21986, Control_c, 0, 64, 49
2,22005, Control_c, 0, 64, 46
2,22023, Control_c, 0, 64, 43
2,22043, Control_c, 0, 64, 39
2,22062, Control_c, 0, 64, 32
2,22081, Control_c, 0, 64, 25
2,22100, Control_c, 0, 64, 17
2,22120, Control_c, 0, 64, 0
2,22154, Note_on_c, 0, 63, 0
2,22164, Note_on_c, 0, 70, 79
2,22176, Note_on_c, 0, 60, 0
2,22190, Note_on_c, 0, 62, 54
2,22546, Note_on_c, 0, 55, 51
2,22552, Note_on_c, 0, 65, 34
2,22580, Note_on_c, 0, 51, 0
2,22628, Note_on_c, 0, 62, 0
2,22629, Note_on_c, 0, 56, 0
2,22685, Note_on_c, 0, 53, 40
2,22686, Note_on_c, 0, 55, 0
2,22750, Note_on_c, 0, 65, 0
2,22861, Note_on_c, 0, 58, 50
2,22877, Note_on_c, 0, 53, 0
2,22884, Note_on_c, 0, 55, 57
2,22891, Control_c, 0, 64, 42
2,22894, Note_on_c, 0, 58, 0
2,22910, Control_c, 0, 64, 58
2,22920, Note_on_c, 0, 70, 0
2,22930, Control_c, 0, 64, 61
2,22949, Control_c, 0, 64, 62
2,22968, Control_c, 0, 64, 62
2,22987, Control_c, 0, 64, 63
2,23007, Control_c, 0, 64, 63
2,23025, Control_c, 0, 64, 64
2,23045, Control_c, 0, 64, 66
2,23064, Control_c, 0, 64, 67
2,23084, Control_c, 0, 64, 68
2,23102, Control_c, 0, 64, 68
2,23254, Note_on_c, 0, 68, 80
2,23276, Control_c, 0, 64, 68
2,23277, Note_on_c, 0, 58, 44
2,23280, Note_on_c, 0, 62, 42
2,23388, Note_on_c, 0, 55, 0
2,23417, Note_on_c, 0, 62, 0
2,23544, Control_c, 0, 64, 68
2,23640, Control_c, 0, 64, 68
2,23657, Note_on_c, 0, 67, 71
2,23658, Note_on_c, 0, 58, 0
2,23667, Note_on_c, 0, 51, 51
2,23679, Control_c, 0, 64, 67
2,23682, Note_on_c, 0, 63, 59
2,23698, Control_c, 0, 64, 66
2,23707, Note_on_c, 0, 68, 0
2,23717, Control_c, 0, 64, 64
2,23736, Control_c, 0, 64, 61
2,23756, Control_c, 0, 64, 56
2,23775, Control_c, 0, 64, 51
2,23794, Control_c, 0, 64, 45
2,23813, Control_c, 0, 64, 36
2,23834, Control_c, 0, 64, 29
2,23852, Control_c, 0, 64, 24
2,23871, Control_c, 0, 64, 20
2,23891, Control_c, 0, 64, 17
2,23909, Control_c, 0, 64, 15
2,23928, Control_c, 0, 64, 11
2,23947, Control_c, 0, 64, 9
2,23967, Control_c, 0, 64, 0
2,24023, Note_on_c, 0, 56, 57
2,24039, Note_on_c, 0, 51, 0
2,24043, Note_on_c, 0, 72, 72
2,24167, Note_on_c, 0, 56, 0
2,24178, Note_on_c, 0, 55, 58
2,24342, Note_on_c, 0, 55, 0
2,24374, Note_on_c, 0, 56, 57
2,24741, Note_on_c, 0, 70, 70
2,24744, Note_on_c, 0, 72, 0
2,24746, Note_on_c, 0, 60, 50
2,24772, Note_on_c, 0, 56, 0
2,25055, Note_on_c, 0, 60, 0
2,25121, Note_on_c, 0, 70, 0
2,25123, Note_on_c, 0, 67, 0
2,25131, Note_on_c, 0, 68, 66
2,25134, Note_on_c, 0, 53, 44
2,25290, Control_c, 0, 64, 13
2,25308, Control_c, 0, 64, 47
2,25328, Control_c, 0, 64, 59
2,25347, Control_c, 0, 64, 62
2,25366, Control_c, 0, 64, 63
2,25385, Control_c, 0, 64, 64
2,25403, Note_on_c, 0, 68, 0
2,25405, Control_c, 0, 64, 64
2,25424, Control_c, 0, 64, 65
2,25522, Note_on_c, 0, 68, 67
2,25539, Note_on_c, 0, 63, 0
2,25597, Control_c, 0, 64, 64
2,25654, Control_c, 0, 64, 64
2,25654, Note_on_c, 0, 67, 68
2,25669, Note_on_c, 0, 68, 0
2,25711, Control_c, 0, 64, 63
2,25770, Control_c, 0, 64, 63
2,25788, Control_c, 0, 64, 61
2,25802, Note_on_c, 0, 67, 0
2,25808, Control_c, 0, 64, 52
2,25827, Control_c, 0, 64, 0
2,25835, Note_on_c, 0, 68, 72
2,25854, Note_on_c, 0, 62, 51
2,25960, Control_c, 0, 64, 55
2,25979, Control_c, 0, 64, 63
2,25998, Control_c, 0, 64, 64
2,26017, Control_c, 0, 64, 65
2,26036, Note_on_c, 0, 62, 0
2,26037, Control_c, 0, 64, 65
2,26055, Control_c, 0, 64, 66
2,26075, Control_c, 0, 64, 67
2,26094, Control_c, 0, 64, 67
2,26113, Control_c, 0, 64, 67
2,26171, Control_c, 0, 64, 66
2,26198, Note_on_c, 0, 53, 0
2,26207, Note_on_c, 0, 72, 70
2,26209, Control_c, 0, 64, 66
2,26209, Note_on_c, 0, 55, 56
2,26220, Note_on_c, 0, 60, 49
2,26228, Control_c, 0, 64, 65
2,26246, Note_on_c, 0, 68, 0
2,26248, Control_c, 0, 64, 65
2,26266, Control_c, 0, 64, 64
2,26286, Control_c, 0, 64, 63
2,26305, Control_c, 0, 64, 62
2,26325, Control_c, 0, 64, 62
2,26340, Note_on_c, 0, 56, 71
2,26343, Control_c, 0, 64, 61
2,26363, Control_c, 0, 64, 60
2,26380, Note_on_c, 0, 55, 0
2,26382, Control_c, 0, 64, 59
2,26401, Control_c, 0, 64, 58
2,26420, Control_c, 0, 64, 56
2,26430, Note_on_c, 0, 60, 0
2,26440, Control_c, 0, 64, 53
2,26459, Control_c, 0, 64, 50
2,26478, Control_c, 0, 64, 46
2,26497, Control_c, 0, 64, 39
2,26517, Control_c, 0, 64, 27
2,26535, Control_c, 0, 64, 0
2,26552, Note_on_c, 0, 58, 71
2,26557, Note_on_c, 0, 56, 0
2,26562, Note_on_c, 0, 72, 0
2,26565, Note_on_c, 0, 65, 64
2,26570, Note_on_c, 0, 62, 54
2,26880, Note_on_c, 0, 65, 0
2,26898, Note_on_c, 0, 70, 79
2,26952, Note_on_c, 0, 62, 0
2,27117, Note_on_c, 0, 63, 58
2,27160, Note_on_c, 0, 62, 58
2,27196, Note_on_c, 0, 63, 0
2,27240, Note_on_c, 0, 62, 0
2,27259, Note_on_c, 0, 60, 62
2,27381, Control_c, 0, 64, 50
2,27401, Control_c, 0, 64, 60
2,27420, Control_c, 0, 64, 63
2,27439, Control_c, 0, 64, 64
2,27458, Control_c, 0, 64, 65
2,27464, Note_on_c, 0, 60, 0
2,27478, Control_c, 0, 64, 66
2,27496, Control_c, 0, 64, 67
2,27516, Control_c, 0, 64, 69
2,27535, Control_c, 0, 64, 72
2,27555, Control_c, 0, 64, 75
2,27573, Control_c, 0, 64, 78
2,27585, Note_on_c, 0, 68, 73
2,27592, Control_c, 0, 64, 80
2,27612, Control_c, 0, 64, 82
2,27622, Note_on_c, 0, 62, 54
2,27630, Control_c, 0, 64, 83
2,27650, Control_c, 0, 64, 85
2,27670, Control_c, 0, 64, 86
2,27690, Control_c, 0, 64, 87
2,27708, Control_c, 0, 64, 87
2,27728, Control_c, 0, 64, 88
2,27729, Note_on_c, 0, 70, 0
2,27760, Note_on_c, 0, 62, 0
2,27844, Control_c, 0, 64, 87
2,27901, Control_c, 0, 64, 87
2,27921, Control_c, 0, 64, 86
2,27940, Control_c, 0, 64, 85
2,27960, Control_c, 0, 64, 84
2,27978, Control_c, 0, 64, 83
2,27998, Control_c, 0, 64, 82
2,28003, Note_on_c, 0, 68, 0
2,28017, Control_c, 0, 64, 76
2,28019, Note_on_c, 0, 67, 65
2,28024, Note_on_c, 0, 58, 0
2,28036, Control_c, 0, 64, 67
2,28037, Note_on_c, 0, 51, 42
2,28037, Note_on_c, 0, 63, 54
2,28055, Control_c, 0, 64, 50
2,28075, Control_c, 0, 64, 0
2,28276, Note_on_c, 0, 67, 0
2,28427, Note_on_c, 0, 58, 48
2,28441, Note_on_c, 0, 67, 55
2,28581, Note_on_c, 0, 58, 0
2,28585, Note_on_c, 0, 67, 0
2,28589, Note_on_c, 0, 65, 57
2,28599, Note_on_c, 0, 56, 49
2,28709, Note_on_c, 0, 56, 0
2,28719, Note_on_c, 0, 65, 0
2,28770, Note_on_c, 0, 67, 48
2,28774, Note_on_c, 0, 58, 44
2,28860, Control_c, 0, 64, 39
2,28880, Control_c, 0, 64, 60
2,28899, Control_c, 0, 64, 63
2,28919, Control_c, 0, 64, 64
2,28957, Control_c, 0, 64, 65
2,28976, Control_c, 0, 64, 65
2,28995, Control_c, 0, 64, 66
2,29014, Control_c, 0, 64, 67
2,29033, Control_c, 0, 64, 68
2,29047, Note_on_c, 0, 51, 0
2,29053, Control_c, 0, 64, 66
2,29071, Control_c, 0, 64, 62
2,29091, Control_c, 0, 64, 44
2,29110, Control_c, 0, 64, 0
2,29118, Note_on_c, 0, 70, 61
2,29130, Note_on_c, 0, 50, 45
2,29134, Note_on_c, 0, 67, 0
2,29168, Control_c, 0, 64, 32
2,29187, Control_c, 0, 64, 58
2,29206, Control_c, 0, 64, 64
2,29225, Control_c, 0, 64, 66
2,29233, Note_on_c, 0, 50, 0
2,29245, Control_c, 0, 64, 68
2,29264, Control_c, 0, 64, 71
2,29283, Control_c, 0, 64, 74
2,29289, Note_on_c, 0, 63, 0
2,29302, Control_c, 0, 64, 80
2,29322, Control_c, 0, 64, 85
2,29340, Control_c, 0, 64, 88
2,29360, Control_c, 0, 64, 89
2,29379, Control_c, 0, 64, 90
2,29462, Note_on_c, 0, 70, 0
2,29470, Note_on_c, 0, 58, 0
2,29488, Note_on_c, 0, 48, 53
2,29494, Control_c, 0, 64, 88
2,29501, Note_on_c, 0, 63, 53
2,29513, Control_c, 0, 64, 81
2,29533, Control_c, 0, 64, 72
2,29551, Control_c, 0, 64, 64
2,29571, Control_c, 0, 64, 55
2,29591, Control_c, 0, 64, 44
2,29610, Control_c, 0, 64, 34
2,29629, Control_c, 0, 64, 25
2,29649, Control_c, 0, 64, 11
2,29668, Control_c, 0, 64, 0
2,29847, Note_on_c, 0, 56, 45
2,29870, Note_on_c, 0, 63, 0
2,29872, Note_on_c, 0, 65, 51
2,29969, Note_on_c, 0, 56, 0
2,29995, Note_on_c, 0, 65, 0
2,29997, Note_on_c, 0, 63, 63
2,30002, Note_on_c, 0, 55, 37
2,30134, Note_on_c, 0, 55, 0
2,30149, Note_on_c, 0, 63, 0
2,30185, Note_on_c, 0, 65, 53
2,30206, Note_on_c, 0, 56, 40
2,30536, Note_on_c, 0, 68, 57
2,30561, Note_on_c, 0, 53, 34
2,30568, Note_on_c, 0, 48, 0
2,30724, Control_c, 0, 64, 18
2,30744, Control_c, 0, 64, 46
2,30763, Control_c, 0, 64, 56
2,30783, Control_c, 0, 64, 58
2,30821, Control_c, 0, 64, 58
2,30840, Control_c, 0, 64, 59
2,30859, Control_c, 0, 64, 61
2,30917, Control_c, 0, 64, 59
2,30936, Control_c, 0, 64, 57
2,30948, Note_on_c, 0, 53, 0
2,30955, Control_c, 0, 64, 52
2,30967, Note_on_c, 0, 70, 84
2,30972, Note_on_c, 0, 46, 45
2,30975, Control_c, 0, 64, 44
2,30980, Note_on_c, 0, 56, 0
2,30993, Control_c, 0, 64, 33
2,30995, Note_on_c, 0, 62, 54
2,31013, Control_c, 0, 64, 11
2,31032, Control_c, 0, 64, 0
2,31044, Note_on_c, 0, 65, 0
2,31058, Note_on_c, 0, 68, 0
2,31377, Note_on_c, 0, 55, 42
2,31382, Note_on_c, 0, 63, 60
2,31407, Note_on_c, 0, 62, 0
2,31732, Note_on_c, 0, 53, 61
2,31752, Note_on_c, 0, 55, 0
2,32070, Note_on_c, 0, 62, 70
2,32079, Note_on_c, 0, 58, 62
2,32095, Note_on_c, 0, 63, 0
2,32117, Note_on_c, 0, 53, 0
2,32184, Control_c, 0, 64, 22
2,32203, Control_c, 0, 64, 58
2,32223, Control_c, 0, 64, 63
2,32241, Control_c, 0, 64, 64
2,32261, Control_c, 0, 64, 64
2,32295, Note_on_c, 0, 58, 0
2,32338, Control_c, 0, 64, 64
2,32395, Control_c, 0, 64, 63
2,32415, Control_c, 0, 64, 63
2,32433, Control_c, 0, 64, 60
2,32443, Note_on_c, 0, 60, 60
2,32447, Note_on_c, 0, 62, 0
2,32453, Control_c, 0, 64, 47
2,32457, Note_on_c, 0, 75, 82
2,32466, Note_on_c, 0, 55, 51
2,32474, Control_c, 0, 64, 0
2,32521, Note_on_c, 0, 70, 0
2,32590, Control_c, 0, 64, 42
2,32610, Control_c, 0, 64, 59
2,32628, Control_c, 0, 64, 61
2,32794, Note_on_c, 0, 55, 0
2,32801, Control_c, 0, 64, 61
2,32821, Control_c, 0, 64, 62
2,32829, Note_on_c, 0, 67, 53
2,32839, Control_c, 0, 64, 62
2,32859, Control_c, 0, 64, 63
2,32868, Note_on_c, 0, 46, 0
2,32878, Control_c, 0, 64, 63
2,32898, Control_c, 0, 64, 64
2,32916, Control_c, 0, 64, 64
2,33147, Control_c, 0, 64, 64
2,33167, Control_c, 0, 64, 63
2,33185, Control_c, 0, 64, 61
2,33192, Note_on_c, 0, 72, 70
2,33204, Control_c, 0, 64, 53
2,33205, Note_on_c, 0, 53, 39
2,33205, Note_on_c, 0, 75, 0
2,33213, Note_on_c, 0, 45, 57
2,33224, Control_c, 0, 64, 29
2,33242, Control_c, 0, 64, 0
2,33433, Control_c, 0, 64, 46
2,33453, Control_c, 0, 64, 59
2,33471, Control_c, 0, 64, 61
2,33491, Control_c, 0, 64, 62
2,33529, Control_c, 0, 64, 62
2,33535, Note_on_c, 0, 75, 87
2,33548, Control_c, 0, 64, 63
2,33557, Note_on_c, 0, 45, 0
2,33568, Control_c, 0, 64, 63
2,33571, Note_on_c, 0, 72, 0
2,33584, Note_on_c, 0, 67, 0
2,33587, Control_c, 0, 64, 64
2,33605, Control_c, 0, 64, 64
2,33625, Control_c, 0, 64, 65
2,33644, Control_c, 0, 64, 65
2,33663, Control_c, 0, 64, 66
2,33682, Control_c, 0, 64, 67
2,33702, Control_c, 0, 64, 68
2,33721, Control_c, 0, 64, 69
2,33740, Control_c, 0, 64, 69
2,33759, Control_c, 0, 64, 70
2,33856, Control_c, 0, 64, 69
2,33874, Control_c, 0, 64, 69
2,33894, Control_c, 0, 64, 68
2,33913, Control_c, 0, 64, 68
2,33915, Note_on_c, 0, 74, 82
2,33919, Note_on_c, 0, 60, 0
2,33931, Note_on_c, 0, 46, 46
2,33933, Control_c, 0, 64, 67
2,33949, Note_on_c, 0, 75, 0
2,33951, Control_c, 0, 64, 65
2,33971, Control_c, 0, 64, 64
2,33987, Note_on_c, 0, 53, 0
2,33990, Control_c, 0, 64, 61
2,34009, Control_c, 0, 64, 58
2,34028, Control_c, 0, 64, 55
2,34048, Control_c, 0, 64, 51
2,34067, Control_c, 0, 64, 47
2,34085, Control_c, 0, 64, 42
2,34105, Control_c, 0, 64, 35
2,34124, Control_c, 0, 64, 21
2,34143, Control_c, 0, 64, 0
2,34309, Note_on_c, 0, 79, 80
2,34313, Note_on_c, 0, 50, 39
2,34329, Note_on_c, 0, 70, 63
2,34397, Note_on_c, 0, 74, 0
2,34453, Note_on_c, 0, 69, 68
2,34494, Note_on_c, 0, 70, 0
2,34594, Note_on_c, 0, 50, 0
2,34598, Note_on_c, 0, 69, 0
2,34650, Note_on_c, 0, 70, 61
2,34668, Note_on_c, 0, 55, 43
2,34678, Note_on_c, 0, 46, 0
2,34719, Control_c, 0, 64, 23
2,34739, Control_c, 0, 64, 47
2,34757, Control_c, 0, 64, 58
2,34777, Control_c, 0, 64, 61
2,34796, Control_c, 0, 64, 62
2,34816, Control_c, 0, 64, 63
2,34834, Control_c, 0, 64, 64
2,34854, Control_c, 0, 64, 64
2,34899, Note_on_c, 0, 79, 0
2,34988, Control_c, 0, 64, 64
2,35000, Note_on_c, 0, 77, 69
2,35003, Note_on_c, 0, 43, 45
2,35008, Control_c, 0, 64, 63
2,35027, Control_c, 0, 64, 62
2,35045, Control_c, 0, 64, 56
2,35065, Control_c, 0, 64, 37
2,35084, Control_c, 0, 64, 0
2,35199, Control_c, 0, 64, 29
2,35219, Control_c, 0, 64, 59
2,35233, Note_on_c, 0, 70, 0
2,35237, Control_c, 0, 64, 64
2,35257, Control_c, 0, 64, 64
2,35276, Control_c, 0, 64, 65
2,35342, Note_on_c, 0, 43, 0
2,35354, Control_c, 0, 64, 65
2,35373, Control_c, 0, 64, 62
2,35376, Note_on_c, 0, 48, 51
2,35376, Note_on_c, 0, 75, 79
2,35392, Control_c, 0, 64, 53
2,35394, Note_on_c, 0, 55, 0
2,35412, Control_c, 0, 64, 28
2,35423, Note_on_c, 0, 77, 0
2,35431, Control_c, 0, 64, 0
2,35486, Control_c, 0, 64, 23
2,35506, Control_c, 0, 64, 56
2,35524, Control_c, 0, 64, 63
2,35544, Control_c, 0, 64, 64
2,35563, Control_c, 0, 64, 65
2,35583, Control_c, 0, 64, 65
2,35621, Control_c, 0, 64, 65
2,35665, Note_on_c, 0, 75, 0
2,35678, Control_c, 0, 64, 64
2,35717, Control_c, 0, 64, 64
2,35763, Note_on_c, 0, 60, 50
2,35775, Control_c, 0, 64, 63
2,35786, Note_on_c, 0, 75, 74
2,35793, Control_c, 0, 64, 63
2,35813, Control_c, 0, 64, 62
2,35832, Control_c, 0, 64, 59
2,35852, Control_c, 0, 64, 56
2,35870, Control_c, 0, 64, 52
2,35890, Control_c, 0, 64, 48
2,35909, Control_c, 0, 64, 41
2,35914, Note_on_c, 0, 74, 74
2,35928, Control_c, 0, 64, 34
2,35928, Note_on_c, 0, 58, 48
2,35929, Note_on_c, 0, 60, 0
2,35947, Control_c, 0, 64, 27
2,35949, Note_on_c, 0, 75, 0
2,35966, Control_c, 0, 64, 13
2,35986, Control_c, 0, 64, 0
2,36033, Note_on_c, 0, 74, 0
2,36052, Note_on_c, 0, 58, 0
2,36094, Note_on_c, 0, 75, 77
2,36105, Note_on_c, 0, 60, 52
2,36114, Note_on_c, 0, 69, 60
2,36273, Control_c, 0, 64, 48
2,36293, Control_c, 0, 64, 58
2,36316, Control_c, 0, 64, 61
2,36335, Control_c, 0, 64, 63
2,36344, Note_on_c, 0, 69, 0
2,36354, Control_c, 0, 64, 64
2,36374, Control_c, 0, 64, 66
2,36392, Control_c, 0, 64, 67
2,36409, Control_c, 0, 64, 69
2,36428, Control_c, 0, 64, 70
2,36443, Note_on_c, 0, 79, 80
2,36464, Note_on_c, 0, 51, 46
2,36467, Control_c, 0, 64, 69
2,36475, Note_on_c, 0, 67, 56
2,36485, Control_c, 0, 64, 69
2,36505, Control_c, 0, 64, 67
2,36524, Control_c, 0, 64, 66
2,36543, Control_c, 0, 64, 66
2,36562, Control_c, 0, 64, 66
2,36680, Note_on_c, 0, 67, 0
2,36741, Note_on_c, 0, 48, 0
2,36774, Control_c, 0, 64, 66
2,36793, Control_c, 0, 64, 65
2,36813, Control_c, 0, 64, 63
2,36825, Note_on_c, 0, 53, 50
2,36826, Note_on_c, 0, 51, 0
2,36827, Note_on_c, 0, 72, 85
2,36831, Control_c, 0, 64, 60
2,36842, Note_on_c, 0, 69, 65
2,36851, Control_c, 0, 64, 54
2,36869, Note_on_c, 0, 79, 0
2,36870, Control_c, 0, 64, 39
2,36875, Note_on_c, 0, 60, 0
2,36889, Control_c, 0, 64, 0
2,36914, Note_on_c, 0, 75, 0
2,37173, Note_on_c, 0, 77, 73
2,37175, Note_on_c, 0, 72, 0
2,37242, Note_on_c, 0, 69, 0
2,37348, Note_on_c, 0, 62, 45
2,37372, Note_on_c, 0, 70, 68
2,37416, Note_on_c, 0, 60, 47
2,37425, Note_on_c, 0, 69, 68
2,37438, Note_on_c, 0, 62, 0
2,37468, Note_on_c, 0, 70, 0
2,37518, Note_on_c, 0, 69, 0
2,37524, Note_on_c, 0, 60, 0
2,37526, Note_on_c, 0, 67, 66
2,37538, Note_on_c, 0, 58, 43
2,37638, Control_c, 0, 64, 48
2,37658, Control_c, 0, 64, 60
2,37677, Control_c, 0, 64, 63
2,37697, Control_c, 0, 64, 64
2,37715, Control_c, 0, 64, 64
2,37735, Control_c, 0, 64, 65
2,37754, Control_c, 0, 64, 65
2,37762, Note_on_c, 0, 67, 0
2,37812, Control_c, 0, 64, 64
2,37831, Control_c, 0, 64, 58
2,37850, Control_c, 0, 64, 44
2,37863, Note_on_c, 0, 58, 0
2,37869, Control_c, 0, 64, 17
2,37871, Note_on_c, 0, 75, 77
2,37889, Control_c, 0, 64, 0
2,37893, Note_on_c, 0, 60, 53
2,37893, Note_on_c, 0, 69, 62
2,37926, Control_c, 0, 64, 13
2,37946, Control_c, 0, 64, 41
2,37965, Control_c, 0, 64, 58
2,37984, Control_c, 0, 64, 63
2,37996, Note_on_c, 0, 77, 0
2,38003, Control_c, 0, 64, 64
2,38042, Control_c, 0, 64, 64
2,38042, Note_on_c, 0, 69, 0
2,38080, Control_c, 0, 64, 65
2,38100, Control_c, 0, 64, 65
2,38218, Note_on_c, 0, 53, 0
2,38235, Control_c, 0, 64, 65
2,38273, Control_c, 0, 64, 64
2,38290, Note_on_c, 0, 74, 59
2,38290, Note_on_c, 0, 75, 0
2,38293, Control_c, 0, 64, 62
2,38298, Note_on_c, 0, 70, 59
2,38312, Control_c, 0, 64, 55
2,38314, Note_on_c, 0, 58, 43
2,38315, Note_on_c, 0, 62, 36
2,38316, Note_on_c, 0, 60, 0
2,38331, Control_c, 0, 64, 39
2,38350, Control_c, 0, 64, 0
2,38514, Note_on_c, 0, 74, 0
2,38656, Note_on_c, 0, 58, 0
2,38679, Note_on_c, 0, 74, 58
2,38696, Note_on_c, 0, 53, 38
2,38814, Note_on_c, 0, 70, 0
2,38824, Note_on_c, 0, 72, 72
2,38827, Note_on_c, 0, 74, 0
2,38934, Note_on_c, 0, 72, 0
2,38991, Note_on_c, 0, 62, 0
2,39004, Note_on_c, 0, 53, 0
2,39007, Note_on_c, 0, 74, 58
2,39024, Note_on_c, 0, 58, 45
2,39099, Control_c, 0, 64, 50
2,39118, Control_c, 0, 64, 61
2,39138, Control_c, 0, 64, 63
2,39156, Control_c, 0, 64, 64
2,39176, Control_c, 0, 64, 64
2,39193, Control_c, 0, 64, 65
2,39213, Control_c, 0, 64, 65
2,39231, Control_c, 0, 64, 66
2,39325, Control_c, 0, 64, 65
2,39333, Note_on_c, 0, 74, 0
2,39336, Note_on_c, 0, 58, 0
2,39342, Note_on_c, 0, 60, 46
2,39345, Control_c, 0, 64, 63
2,39346, Note_on_c, 0, 77, 77
2,39350, Note_on_c, 0, 65, 51
2,39352, Note_on_c, 0, 57, 47
2,39363, Control_c, 0, 64, 55
2,39383, Control_c, 0, 64, 31
2,39402, Control_c, 0, 64, 0
2,39479, Control_c, 0, 64, 54
2,39498, Control_c, 0, 64, 64
2,39517, Control_c, 0, 64, 67
2,39526, Note_on_c, 0, 60, 0
2,39537, Control_c, 0, 64, 70
2,39556, Control_c, 0, 64, 74
2,39572, Note_on_c, 0, 65, 0
2,39575, Control_c, 0, 64, 79
2,39594, Control_c, 0, 64, 83
2,39614, Control_c, 0, 64, 85
2,39671, Control_c, 0, 64, 84
2,39691, Control_c, 0, 64, 82
2,39691, Note_on_c, 0, 57, 0
2,39707, Note_on_c, 0, 55, 53
2,39709, Control_c, 0, 64, 79
2,39715, Note_on_c, 0, 70, 79
2,39721, Note_on_c, 0, 67, 62
2,39724, Note_on_c, 0, 62, 45
2,39729, Control_c, 0, 64, 75
2,39748, Control_c, 0, 64, 68
2,39767, Control_c, 0, 64, 59
2,39786, Control_c, 0, 64, 34
2,39805, Control_c, 0, 64, 0
2,39806, Note_on_c, 0, 77, 0
2,39828, Note_on_c, 0, 55, 0
2,39882, Control_c, 0, 64, 36
2,39902, Control_c, 0, 64, 61
2,39920, Control_c, 0, 64, 65
2,39940, Control_c, 0, 64, 67
2,39959, Control_c, 0, 64, 67
2,39962, Note_on_c, 0, 70, 0
2,39997, Control_c, 0, 64, 67
2,40017, Control_c, 0, 64, 66
2,40036, Control_c, 0, 64, 64
2,40055, Control_c, 0, 64, 62
2,40074, Control_c, 0, 64, 58
2,40093, Note_on_c, 0, 50, 51
2,40094, Control_c, 0, 64, 56
2,40102, Note_on_c, 0, 70, 72
2,40113, Control_c, 0, 64, 54
2,40132, Control_c, 0, 64, 50
2,40152, Control_c, 0, 64, 47
2,40172, Control_c, 0, 64, 45
2,40190, Control_c, 0, 64, 42
2,40210, Control_c, 0, 64, 40
2,40229, Control_c, 0, 64, 36
2,40238, Note_on_c, 0, 69, 70
2,40247, Control_c, 0, 64, 29
2,40267, Control_c, 0, 64, 13
2,40276, Note_on_c, 0, 70, 0
2,40286, Control_c, 0, 64, 0
2,40297, Note_on_c, 0, 67, 0
2,40392, Note_on_c, 0, 69, 0
2,40405, Note_on_c, 0, 62, 0
2,40406, Note_on_c, 0, 50, 0
2,40431, Note_on_c, 0, 70, 72
2,40444, Note_on_c, 0, 55, 42
2,40517, Control_c, 0, 64, 44
2,40536, Control_c, 0, 64, 60
2,40555, Control_c, 0, 64, 63
2,40575, Control_c, 0, 64, 64
2,40593, Control_c, 0, 64, 65
2,40613, Control_c, 0, 64, 65
2,40632, Control_c, 0, 64, 66
2,40690, Control_c, 0, 64, 65
2,40709, Control_c, 0, 64, 64
2,40727, Control_c, 0, 64, 60
2,40747, Control_c, 0, 64, 44
2,40751, Note_on_c, 0, 55, 0
2,40766, Control_c, 0, 64, 0
2,40773, Note_on_c, 0, 74, 68
2,40776, Note_on_c, 0, 70, 0
2,40797, Note_on_c, 0, 53, 48
2,40802, Note_on_c, 0, 62, 51
2,40803, Note_on_c, 0, 56, 48
2,40863, Control_c, 0, 64, 17
2,40881, Control_c, 0, 64, 54
2,40901, Control_c, 0, 64, 63
2,40920, Control_c, 0, 64, 65
2,40934, Note_on_c, 0, 62, 0
2,40939, Control_c, 0, 64, 66
2,40946, Note_on_c, 0, 53, 0
2,40958, Control_c, 0, 64, 67
2,40978, Control_c, 0, 64, 68
2,40997, Control_c, 0, 64, 70
2,41016, Control_c, 0, 64, 71
2,41035, Control_c, 0, 64, 72
2,41073, Control_c, 0, 64, 72
2,41113, Control_c, 0, 64, 71
2,41133, Control_c, 0, 64, 71
2,41151, Control_c, 0, 64, 70
2,41162, Note_on_c, 0, 67, 73
2,41171, Control_c, 0, 64, 69
2,41171, Note_on_c, 0, 74, 0
2,41175, Note_on_c, 0, 56, 0
2,41183, Note_on_c, 0, 58, 49
2,41188, Note_on_c, 0, 63, 58
2,41189, Note_on_c, 0, 51, 42
2,41190, Control_c, 0, 64, 66
2,41207, Control_c, 0, 64, 64
2,41227, Control_c, 0, 64, 61
2,41246, Control_c, 0, 64, 59
2,41266, Control_c, 0, 64, 57
2,41284, Control_c, 0, 64, 55
2,41304, Control_c, 0, 64, 53
2,41323, Control_c, 0, 64, 51
2,41343, Control_c, 0, 64, 47
2,41361, Control_c, 0, 64, 44
2,41381, Control_c, 0, 64, 43
2,41386, Note_on_c, 0, 63, 0
2,41400, Control_c, 0, 64, 41
2,41419, Control_c, 0, 64, 39
2,41438, Control_c, 0, 64, 35
2,41458, Control_c, 0, 64, 30
2,41477, Control_c, 0, 64, 25
2,41496, Control_c, 0, 64, 22
2,41499, Note_on_c, 0, 69, 82
2,41515, Control_c, 0, 64, 20
2,41518, Note_on_c, 0, 60, 62
2,41522, Note_on_c, 0, 65, 62
2,41523, Note_on_c, 0, 58, 0
2,41535, Control_c, 0, 64, 18
2,41553, Control_c, 0, 64, 15
2,41573, Control_c, 0, 64, 13
2,41582, Note_on_c, 0, 67, 0
2,41592, Control_c, 0, 64, 11
2,41903, Note_on_c, 0, 61, 47
2,41908, Note_on_c, 0, 70, 73
2,41913, Note_on_c, 0, 67, 59
2,41918, Control_c, 0, 64, 9
2,41938, Control_c, 0, 64, 0
2,41938, Note_on_c, 0, 65, 0
2,41957, Note_on_c, 0, 69, 0
2,41976, Note_on_c, 0, 51, 0
2,42093, Note_on_c, 0, 60, 0
2,42224, Note_on_c, 0, 61, 0
2,42231, Note_on_c, 0, 52, 47
2,42557, Note_on_c, 0, 52, 0
2,42590, Note_on_c, 0, 65, 61
2,42595, Note_on_c, 0, 53, 39
2,42598, Note_on_c, 0, 67, 0
2,42601, Note_on_c, 0, 60, 45
2,42932, Note_on_c, 0, 60, 0
2,42935, Note_on_c, 0, 58, 41
2,43109, Control_c, 0, 64, 24
2,43127, Control_c, 0, 64, 32
2,43147, Control_c, 0, 64, 36
2,43166, Control_c, 0, 64, 40
2,43186, Control_c, 0, 64, 42
2,43204, Control_c, 0, 64, 42
2,43224, Control_c, 0, 64, 40
2,43243, Control_c, 0, 64, 34
2,43263, Control_c, 0, 64, 18
2,43276, Note_on_c, 0, 58, 0
2,43279, Note_on_c, 0, 65, 0
2,43281, Control_c, 0, 64, 0
2,43324, Note_on_c, 0, 69, 64
2,43326, Note_on_c, 0, 60, 32
2,43326, Note_on_c, 0, 70, 0
2,43473, Control_c, 0, 64, 25
2,43493, Control_c, 0, 64, 55
2,43512, Control_c, 0, 64, 62
2,43532, Control_c, 0, 64, 64
2,43550, Control_c, 0, 64, 64
2,43570, Control_c, 0, 64, 65
2,43589, Control_c, 0, 64, 66
2,43607, Control_c, 0, 64, 69
2,43627, Control_c, 0, 64, 72
2,43646, Control_c, 0, 64, 76
2,43662, Note_on_c, 0, 63, 47
2,43666, Control_c, 0, 64, 81
2,43680, Note_on_c, 0, 60, 0
2,43684, Control_c, 0, 64, 85
2,43704, Control_c, 0, 64, 89
2,43723, Control_c, 0, 64, 94
2,43743, Control_c, 0, 64, 101
2,43761, Control_c, 0, 64, 106
2,43781, Control_c, 0, 64, 110
2,43800, Control_c, 0, 64, 110
2,43838, Control_c, 0, 64, 111
2,43839, Note_on_c, 0, 63, 0
2,43915, Control_c, 0, 64, 110
2,43935, Control_c, 0, 64, 110
2,43953, Control_c, 0, 64, 107
2,43973, Control_c, 0, 64, 104
2,43992, Control_c, 0, 64, 101
2,43996, Note_on_c, 0, 53, 0
2,44012, Control_c, 0, 64, 97
2,44030, Control_c, 0, 64, 93
2,44050, Control_c, 0, 64, 85
2,44063, Note_on_c, 0, 69, 0
2,44069, Control_c, 0, 64, 71
2,44078, Note_on_c, 0, 58, 44
2,44087, Control_c, 0, 64, 54
2,44087, Note_on_c, 0, 46, 42
2,44092, Note_on_c, 0, 70, 53
2,44105, Note_on_c, 0, 62, 42
2,44106, Control_c, 0, 64, 0
2,44183, Control_c, 0, 64, 36
2,44202, Control_c, 0, 64, 63
2,44204, Note_on_c, 0, 70, 0
2,44222, Control_c, 0, 64, 69
2,44240, Control_c, 0, 64, 75
2,44247, Note_on_c, 0, 62, 0
2,44260, Control_c, 0, 64, 82
2,44279, Control_c, 0, 64, 86
2,44298, Control_c, 0, 64, 87
2,44491, Control_c, 0, 64, 86
2,44491, Note_on_c, 0, 74, 66
2,44506, Note_on_c, 0, 65, 48
2,44509, Control_c, 0, 64, 85
2,44523, Note_on_c, 0, 46, 0
2,44528, Control_c, 0, 64, 84
2,44538, Note_on_c, 0, 65, 0
2,44548, Control_c, 0, 64, 83
2,44567, Control_c, 0, 64, 82
2,44586, Control_c, 0, 64, 81
2,44605, Control_c, 0, 64, 80
2,44620, Note_on_c, 0, 58, 0
2,44625, Control_c, 0, 64, 79
2,44627, Note_on_c, 0, 75, 77
2,44639, Note_on_c, 0, 67, 66
2,44658, Note_on_c, 0, 74, 0
2,44702, Control_c, 0, 64, 79
2,44714, Note_on_c, 0, 67, 0
2,44720, Control_c, 0, 64, 78
2,44740, Control_c, 0, 64, 76
2,44759, Control_c, 0, 64, 74
2,44778, Control_c, 0, 64, 71
2,44797, Control_c, 0, 64, 69
2,44817, Control_c, 0, 64, 67
2,44836, Control_c, 0, 64, 65
2,44843, Note_on_c, 0, 58, 85
2,44853, Note_on_c, 0, 75, 0
2,44855, Control_c, 0, 64, 62
2,44862, Note_on_c, 0, 77, 61
2,44874, Control_c, 0, 64, 57
2,44886, Note_on_c, 0, 68, 54
2,44894, Control_c, 0, 64, 47
2,44913, Control_c, 0, 64, 18
2,44932, Control_c, 0, 64, 0
2,45234, Note_on_c, 0, 74, 57
2,45548, Note_on_c, 0, 68, 0
2,45603, Note_on_c, 0, 77, 0
2,45610, Note_on_c, 0, 63, 79
2,45627, Note_on_c, 0, 70, 59
2,45641, Note_on_c, 0, 58, 0
2,45709, Note_on_c, 0, 74, 0
2,45777, Control_c, 0, 64, 20
2,45796, Control_c, 0, 64, 49
2,45815, Control_c, 0, 64, 57
2,45834, Control_c, 0, 64, 59
2,45854, Control_c, 0, 64, 60
2,45873, Control_c, 0, 64, 62
2,45892, Control_c, 0, 64, 63
2,45912, Control_c, 0, 64, 64
2,45932, Control_c, 0, 64, 64
2,45950, Control_c, 0, 64, 65
2,45957, Note_on_c, 0, 70, 0
2,45968, Note_on_c, 0, 75, 66
2,45973, Note_on_c, 0, 67, 57
2,45989, Control_c, 0, 64, 65
2,46007, Control_c, 0, 64, 66
2,46012, Note_on_c, 0, 67, 0
2,46027, Control_c, 0, 64, 67
2,46037, Note_on_c, 0, 75, 0
2,46046, Control_c, 0, 64, 68
2,46066, Control_c, 0, 64, 69
2,46084, Control_c, 0, 64, 70
2,46105, Note_on_c, 0, 77, 74
2,46127, Note_on_c, 0, 68, 67
2,46164, Note_on_c, 0, 68, 0
2,46219, Note_on_c, 0, 77, 0
2,46238, Control_c, 0, 64, 70
2,46277, Control_c, 0, 64, 69
2,46296, Control_c, 0, 64, 66
2,46309, Note_on_c, 0, 51, 72
2,46313, Note_on_c, 0, 79, 81
2,46315, Control_c, 0, 64, 55
2,46335, Control_c, 0, 64, 0
2,46336, Note_on_c, 0, 70, 58
2,46430, Control_c, 0, 64, 13
2,46447, Note_on_c, 0, 70, 0
2,46450, Control_c, 0, 64, 54
2,46469, Control_c, 0, 64, 63
2,46487, Control_c, 0, 64, 64
2,46492, Note_on_c, 0, 63, 0
2,46507, Control_c, 0, 64, 65
2,46526, Control_c, 0, 64, 66
2,46546, Control_c, 0, 64, 66
2,46564, Control_c, 0, 64, 67
2,46646, Note_on_c, 0, 63, 78
2,46646, Note_on_c, 0, 75, 75
2,46661, Control_c, 0, 64, 68
2,46672, Note_on_c, 0, 51, 0
2,46678, Note_on_c, 0, 67, 50
2,46680, Control_c, 0, 64, 68
2,46699, Control_c, 0, 64, 69
2,46718, Control_c, 0, 64, 70
2,46720, Note_on_c, 0, 79, 0
2,46738, Control_c, 0, 64, 71
2,46765, Note_on_c, 0, 67, 0
2,46853, Control_c, 0, 64, 71
2,46963, Control_c, 0, 64, 71
2,47001, Control_c, 0, 64, 70
2,47021, Control_c, 0, 64, 70
2,47040, Control_c, 0, 64, 67
2,47042, Note_on_c, 0, 62, 76
2,47046, Note_on_c, 0, 77, 73
2,47050, Note_on_c, 0, 75, 0
2,47059, Control_c, 0, 64, 60
2,47059, Note_on_c, 0, 58, 65
2,47064, Note_on_c, 0, 65, 51
2,47074, Note_on_c, 0, 63, 0
2,47078, Control_c, 0, 64, 35
2,47098, Control_c, 0, 64, 0
2,47126, Note_on_c, 0, 65, 0
2,47252, Control_c, 0, 64, 29
2,47270, Control_c, 0, 64, 54
2,47290, Control_c, 0, 64, 61
2,47309, Control_c, 0, 64, 62
2,47366, Control_c, 0, 64, 61
2,47386, Control_c, 0, 64, 60
2,47404, Control_c, 0, 64, 57
2,47424, Control_c, 0, 64, 50
2,47443, Control_c, 0, 64, 39
2,47446, Note_on_c, 0, 75, 72
2,47451, Note_on_c, 0, 67, 77
2,47463, Control_c, 0, 64, 29
2,47475, Note_on_c, 0, 70, 61
2,47481, Control_c, 0, 64, 27
2,47512, Note_on_c, 0, 77, 0
2,47600, Note_on_c, 0, 74, 75
2,47604, Note_on_c, 0, 75, 0
2,47683, Note_on_c, 0, 70, 0
2,47693, Control_c, 0, 64, 26
2,47712, Control_c, 0, 64, 22
2,47732, Control_c, 0, 64, 9
2,47750, Control_c, 0, 64, 0
2,47778, Note_on_c, 0, 72, 74
2,47785, Note_on_c, 0, 74, 0
2,47793, Note_on_c, 0, 68, 66
2,47890, Control_c, 0, 64, 27
2,47909, Control_c, 0, 64, 51
2,47927, Control_c, 0, 64, 61
2,47947, Control_c, 0, 64, 63
2,47966, Control_c, 0, 64, 64
2,47975, Note_on_c, 0, 68, 0
2,47986, Control_c, 0, 64, 64
2,47989, Note_on_c, 0, 67, 0
2,48043, Control_c, 0, 64, 64
2,48063, Control_c, 0, 64, 62
2,48081, Control_c, 0, 64, 54
2,48101, Control_c, 0, 64, 36
2,48103, Note_on_c, 0, 62, 0
2,48110, Note_on_c, 0, 72, 0
2,48114, Note_on_c, 0, 74, 68
2,48119, Note_on_c, 0, 65, 63
2,48120, Control_c, 0, 64, 0
2,48121, Note_on_c, 0, 56, 64
2,48131, Note_on_c, 0, 70, 66
2,48195, Note_on_c, 0, 58, 0
2,48197, Control_c, 0, 64, 28
2,48216, Control_c, 0, 64, 55
2,48235, Control_c, 0, 64, 63
2,48255, Control_c, 0, 64, 64
2,48273, Control_c, 0, 64, 64
2,48287, Note_on_c, 0, 70, 0
2,48293, Control_c, 0, 64, 66
2,48312, Control_c, 0, 64, 67
2,48332, Control_c, 0, 64, 70
2,48350, Control_c, 0, 64, 72
2,48370, Control_c, 0, 64, 76
2,48389, Control_c, 0, 64, 78
2,48411, Note_on_c, 0, 56, 0
2,48466, Control_c, 0, 64, 77
2,48504, Control_c, 0, 64, 77
2,48522, Note_on_c, 0, 74, 0
2,48523, Control_c, 0, 64, 74
2,48524, Note_on_c, 0, 70, 42
2,48527, Note_on_c, 0, 75, 66
2,48531, Note_on_c, 0, 55, 58
2,48538, Note_on_c, 0, 63, 61
2,48543, Control_c, 0, 64, 67
2,48558, Note_on_c, 0, 65, 0
2,48561, Control_c, 0, 64, 50
2,48581, Control_c, 0, 64, 0
2,48646, Note_on_c, 0, 75, 0
2,48658, Control_c, 0, 64, 50
2,48676, Note_on_c, 0, 70, 0
2,48677, Control_c, 0, 64, 63
2,48696, Control_c, 0, 64, 65
2,48823, Note_on_c, 0, 63, 0
2,48983, Control_c, 0, 64, 65
2,48983, Note_on_c, 0, 60, 67
2,49001, Note_on_c, 0, 63, 49
2,49002, Control_c, 0, 64, 64
2,49022, Control_c, 0, 64, 64
2,49040, Control_c, 0, 64, 63
2,49060, Control_c, 0, 64, 62
2,49079, Control_c, 0, 64, 62
2,49098, Control_c, 0, 64, 61
2,49098, Note_on_c, 0, 55, 0
2,49117, Control_c, 0, 64, 60
2,49137, Control_c, 0, 64, 59
2,49143, Note_on_c, 0, 63, 0
2,49146, Note_on_c, 0, 62, 59
2,49156, Control_c, 0, 64, 56
2,49175, Control_c, 0, 64, 49
2,49194, Control_c, 0, 64, 38
2,49214, Control_c, 0, 64, 11
2,49233, Control_c, 0, 64, 0
2,49302, Note_on_c, 0, 62, 0
2,49347, Note_on_c, 0, 63, 53
2,49675, Note_on_c, 0, 60, 0
2,49702, Note_on_c, 0, 58, 52
2,49710, Note_on_c, 0, 67, 48
2,49782, Note_on_c, 0, 63, 0
2,50030, Note_on_c, 0, 58, 0
2,50055, Note_on_c, 0, 56, 50
2,50067, Note_on_c, 0, 60, 63
2,50133, Note_on_c, 0, 67, 0
2,50311, Note_on_c, 0, 56, 0
2,50442, Note_on_c, 0, 56, 45
2,50459, Note_on_c, 0, 65, 66
2,50582, Note_on_c, 0, 60, 0
2,50593, Note_on_c, 0, 56, 0
2,50618, Note_on_c, 0, 55, 51
2,50776, Note_on_c, 0, 55, 0
2,50818, Note_on_c, 0, 56, 56
2,51129, Note_on_c, 0, 56, 0
2,51159, Note_on_c, 0, 63, 56
2,51160, Note_on_c, 0, 60, 55
2,51218, Note_on_c, 0, 65, 0
2,51476, Note_on_c, 0, 63, 0
2,51518, Note_on_c, 0, 53, 59
2,51522, Note_on_c, 0, 62, 47
2,51524, Note_on_c, 0, 60, 0
2,51760, Note_on_c, 0, 62, 0
2,51922, Note_on_c, 0, 58, 66
2,51927, Note_on_c, 0, 62, 49
2,51972, Note_on_c, 0, 53, 0
2,52047, Note_on_c, 0, 62, 0
2,52065, Note_on_c, 0, 60, 59
2,52209, Note_on_c, 0, 60, 0
2,52277, Note_on_c, 0, 62, 49
2,52631, Note_on_c, 0, 56, 48
2,52633, Note_on_c, 0, 65, 49
2,52638, Note_on_c, 0, 58, 0
2,52660, Note_on_c, 0, 62, 0
2,52943, Note_on_c, 0, 56, 0
2,52945, Note_on_c, 0, 65, 0
2,52996, Note_on_c, 0, 55, 42
2,53006, Note_on_c, 0, 58, 43
2,53152, Control_c, 0, 64, 37
2,53172, Control_c, 0, 64, 57
2,53191, Control_c, 0, 64, 63
2,53209, Control_c, 0, 64, 64
2,53229, Control_c, 0, 64, 64
2,53231, Note_on_c, 0, 58, 0
2,53239, Note_on_c, 0, 55, 0
2,53248, Control_c, 0, 64, 65
2,53268, Control_c, 0, 64, 65
2,53344, Control_c, 0, 64, 65
2,53379, Note_on_c, 0, 55, 43
2,53391, Note_on_c, 0, 58, 48
2,53460, Control_c, 0, 64, 64
2,53463, Note_on_c, 0, 55, 0
2,53498, Control_c, 0, 64, 64
2,53517, Control_c, 0, 64, 63
2,53517, Note_on_c, 0, 53, 53
2,53518, Note_on_c, 0, 58, 0
2,53527, Note_on_c, 0, 56, 60
2,53537, Control_c, 0, 64, 63
2,53575, Control_c, 0, 64, 62
2,53593, Control_c, 0, 64, 62
2,53613, Control_c, 0, 64, 61
2,53631, Control_c, 0, 64, 60
2,53649, Note_on_c, 0, 56, 0
2,53651, Control_c, 0, 64, 55
2,53657, Note_on_c, 0, 53, 0
2,53670, Control_c, 0, 64, 46
2,53687, Control_c, 0, 64, 19
2,53707, Control_c, 0, 64, 0
2,53713, Note_on_c, 0, 55, 50
2,53716, Note_on_c, 0, 58, 47
2,53841, Control_c, 0, 64, 41
2,53861, Control_c, 0, 64, 63
2,53880, Control_c, 0, 64, 66
2,53899, Control_c, 0, 64, 70
2,53918, Control_c, 0, 64, 77
2,53938, Control_c, 0, 64, 93
2,53950, Note_on_c, 0, 55, 0
2,53957, Control_c, 0, 64, 127
2,53958, Note_on_c, 0, 58, 0
2,54080, Note_on_c, 0, 62, 56
2,54105, Note_on_c, 0, 58, 38
2,54129, Note_on_c, 0, 62, 0
2,54140, Note_on_c, 0, 58, 0
2,54573, Control_c, 0, 64, 108
2,54592, Control_c, 0, 64, 98
2,54612, Control_c, 0, 64, 89
2,54621, Note_on_c, 0, 70, 91
2,54622, Note_on_c, 0, 51, 41
2,54631, Control_c, 0, 64, 84
2,54649, Control_c, 0, 64, 78
2,54652, Note_on_c, 0, 55, 32
2,54669, Control_c, 0, 64, 71
2,54688, Control_c, 0, 64, 65
2,54708, Control_c, 0, 64, 57
2,54726, Control_c, 0, 64, 42
2,54746, Control_c, 0, 64, 29
2,54784, Control_c, 0, 64, 38
2,54803, Control_c, 0, 64, 53
2,54823, Control_c, 0, 64, 62
2,54842, Control_c, 0, 64, 64
2,54861, Control_c, 0, 64, 65
2,54880, Control_c, 0, 64, 66
2,54900, Control_c, 0, 64, 68
2,54904, Note_on_c, 0, 51, 0
2,54918, Control_c, 0, 64, 70
2,54938, Control_c, 0, 64, 72
2,54957, Control_c, 0, 64, 72
2,55034, Control_c, 0, 64, 72
2,55053, Control_c, 0, 64, 71
2,55068, Note_on_c, 0, 51, 53
2,55072, Control_c, 0, 64, 71
2,55111, Control_c, 0, 64, 70
2,55129, Control_c, 0, 64, 70
2,55149, Control_c, 0, 64, 69
2,55168, Control_c, 0, 64, 67
2,55187, Note_on_c, 0, 51, 0
2,55188, Control_c, 0, 64, 66
2,55193, Note_on_c, 0, 50, 49
2,55206, Control_c, 0, 64, 65
2,55226, Control_c, 0, 64, 65
2,55245, Control_c, 0, 64, 64
2,55264, Control_c, 0, 64, 64
2,55283, Control_c, 0, 64, 62
2,55303, Control_c, 0, 64, 61
2,55307, Note_on_c, 0, 55, 0
2,55322, Control_c, 0, 64, 60
2,55341, Control_c, 0, 64, 59
2,55360, Control_c, 0, 64, 58
2,55380, Control_c, 0, 64, 56
2,55381, Note_on_c, 0, 50, 0
2,55397, Note_on_c, 0, 51, 49
2,55397, Note_on_c, 0, 67, 37
2,55398, Control_c, 0, 64, 53
2,55418, Control_c, 0, 64, 47
2,55437, Control_c, 0, 64, 36
2,55457, Control_c, 0, 64, 23
2,55475, Control_c, 0, 64, 0
2,55743, Note_on_c, 0, 55, 44
2,55799, Control_c, 0, 64, 28
2,55818, Control_c, 0, 64, 51
2,55837, Control_c, 0, 64, 60
2,55857, Control_c, 0, 64, 63
2,55876, Control_c, 0, 64, 64
2,55914, Control_c, 0, 64, 64
2,56048, Control_c, 0, 64, 64
2,56106, Control_c, 0, 64, 63
2,56119, Note_on_c, 0, 75, 84
2,56121, Note_on_c, 0, 48, 48
2,56125, Control_c, 0, 64, 63
2,56126, Note_on_c, 0, 51, 0
2,56145, Control_c, 0, 64, 62
2,56163, Control_c, 0, 64, 60
2,56166, Note_on_c, 0, 70, 0
2,56168, Note_on_c, 0, 67, 0
2,56175, Note_on_c, 0, 55, 0
2,56183, Control_c, 0, 64, 58
2,56202, Control_c, 0, 64, 56
2,56222, Control_c, 0, 64, 52
2,56240, Control_c, 0, 64, 43
2,56260, Control_c, 0, 64, 20
2,56279, Control_c, 0, 64, 0
2,56452, Control_c, 0, 64, 31
2,56472, Control_c, 0, 64, 49
2,56481, Note_on_c, 0, 67, 41
2,56492, Control_c, 0, 64, 55
2,56510, Control_c, 0, 64, 56
2,56549, Control_c, 0, 64, 57
2,56615, Note_on_c, 0, 65, 52
2,56664, Note_on_c, 0, 67, 0
2,56682, Control_c, 0, 64, 56
2,56702, Control_c, 0, 64, 51
2,56720, Control_c, 0, 64, 40
2,56740, Control_c, 0, 64, 0
2,56818, Note_on_c, 0, 65, 0
2,56828, Note_on_c, 0, 67, 46
2,56840, Note_on_c, 0, 60, 37
2,56932, Control_c, 0, 64, 32
2,56951, Control_c, 0, 64, 58
2,56970, Control_c, 0, 64, 63
2,56989, Control_c, 0, 64, 64
2,57008, Control_c, 0, 64, 66
2,57008, Note_on_c, 0, 48, 0
2,57021, Note_on_c, 0, 75, 0
2,57028, Control_c, 0, 64, 69
2,57047, Control_c, 0, 64, 76
2,57066, Control_c, 0, 64, 85
2,57085, Control_c, 0, 64, 96
2,57105, Control_c, 0, 64, 104
2,57123, Control_c, 0, 64, 110
2,57123, Note_on_c, 0, 69, 74
2,57130, Note_on_c, 0, 67, 0
2,57132, Note_on_c, 0, 75, 89
2,57143, Control_c, 0, 64, 116
2,57159, Note_on_c, 0, 69, 0
2,57162, Control_c, 0, 64, 127
2,57209, Note_on_c, 0, 75, 0
2,57316, Note_on_c, 0, 60, 0
2,57412, Control_c, 0, 64, 115
2,57432, Control_c, 0, 64, 108
2,57452, Control_c, 0, 64, 103
2,57470, Control_c, 0, 64, 99
2,57489, Control_c, 0, 64, 94
2,57509, Control_c, 0, 64, 84
2,57527, Control_c, 0, 64, 72
2,57532, Note_on_c, 0, 82, 89
2,57547, Control_c, 0, 64, 61
2,57566, Control_c, 0, 64, 0
2,57572, Note_on_c, 0, 70, 50
2,57573, Note_on_c, 0, 58, 44
2,57590, Note_on_c, 0, 74, 29
2,57665, Note_on_c, 0, 70, 0
2,57681, Control_c, 0, 64, 54
2,57683, Note_on_c, 0, 74, 0
2,57701, Control_c, 0, 64, 63
2,57720, Control_c, 0, 64, 65
2,57723, Note_on_c, 0, 70, 11
2,57739, Control_c, 0, 64, 67
2,57742, Note_on_c, 0, 58, 0
2,57758, Control_c, 0, 64, 69
2,57778, Control_c, 0, 64, 73
2,57797, Control_c, 0, 64, 76
2,57816, Control_c, 0, 64, 77
2,57835, Control_c, 0, 64, 77
2,57855, Control_c, 0, 64, 76
2,57873, Control_c, 0, 64, 75
2,57888, Note_on_c, 0, 79, 63
2,57893, Control_c, 0, 64, 73
2,57901, Note_on_c, 0, 58, 53
2,57912, Control_c, 0, 64, 71
2,57912, Note_on_c, 0, 62, 47
2,57932, Control_c, 0, 64, 69
2,57950, Control_c, 0, 64, 66
2,57969, Control_c, 0, 64, 62
2,57989, Control_c, 0, 64, 49
2,58007, Control_c, 0, 64, 0
2,58039, Note_on_c, 0, 58, 0
2,58046, Note_on_c, 0, 60, 61
2,58062, Note_on_c, 0, 56, 48
2,58088, Note_on_c, 0, 62, 0
2,58164, Note_on_c, 0, 60, 0
2,58173, Note_on_c, 0, 56, 0
2,58235, Note_on_c, 0, 58, 59
2,58236, Note_on_c, 0, 62, 66
2,58252, Note_on_c, 0, 82, 0
2,58393, Control_c, 0, 64, 53
2,58413, Control_c, 0, 64, 62
2,58419, Note_on_c, 0, 58, 0
2,58428, Note_on_c, 0, 62, 0
2,58431, Control_c, 0, 64, 63
2,58450, Control_c, 0, 64, 66
2,58470, Control_c, 0, 64, 70
2,58486, Control_c, 0, 64, 77
2,58505, Control_c, 0, 64, 84
2,58524, Control_c, 0, 64, 86
2,58544, Control_c, 0, 64, 83
2,58557, Note_on_c, 0, 80, 88
2,58563, Control_c, 0, 64, 78
2,58578, Note_on_c, 0, 77, 65
2,58582, Control_c, 0, 64, 74
2,58583, Note_on_c, 0, 79, 0
2,58585, Note_on_c, 0, 65, 52
2,58588, Note_on_c, 0, 62, 49
2,58601, Control_c, 0, 64, 75
2,58621, Control_c, 0, 64, 77
2,58639, Control_c, 0, 64, 80
2,58668, Note_on_c, 0, 70, 0
2,58678, Control_c, 0, 64, 80
2,58698, Control_c, 0, 64, 79
2,58716, Control_c, 0, 64, 80
2,58732, Note_on_c, 0, 62, 0
2,58736, Control_c, 0, 64, 81
2,58755, Control_c, 0, 64, 81
2,58774, Control_c, 0, 64, 81
2,58775, Note_on_c, 0, 65, 0
2,58793, Control_c, 0, 64, 80
2,58800, Note_on_c, 0, 80, 0
2,58813, Control_c, 0, 64, 79
2,58832, Control_c, 0, 64, 79
2,58850, Control_c, 0, 64, 77
2,58870, Control_c, 0, 64, 74
2,58889, Control_c, 0, 64, 69
2,58903, Note_on_c, 0, 79, 86
2,58908, Control_c, 0, 64, 65
2,58925, Note_on_c, 0, 67, 55
2,58926, Note_on_c, 0, 63, 49
2,58927, Control_c, 0, 64, 58
2,58932, Note_on_c, 0, 77, 0
2,58947, Control_c, 0, 64, 36
2,58966, Control_c, 0, 64, 0
2,59158, Control_c, 0, 64, 27
2,59169, Note_on_c, 0, 67, 0
2,59178, Control_c, 0, 64, 34
2,59196, Control_c, 0, 64, 37
2,59216, Control_c, 0, 64, 40
2,59254, Control_c, 0, 64, 39
2,59273, Control_c, 0, 64, 35
2,59293, Control_c, 0, 64, 24
2,59296, Note_on_c, 0, 67, 56
2,59303, Note_on_c, 0, 84, 81
2,59312, Control_c, 0, 64, 0
2,59340, Note_on_c, 0, 75, 60
2,59369, Note_on_c, 0, 79, 0
2,59438, Note_on_c, 0, 67, 0
2,59458, Note_on_c, 0, 74, 64
2,59461, Note_on_c, 0, 75, 0
2,59465, Note_on_c, 0, 65, 50
2,59601, Note_on_c, 0, 65, 0
2,59623, Note_on_c, 0, 74, 0
2,59634, Note_on_c, 0, 75, 52
2,59667, Note_on_c, 0, 67, 39
2,59697, Control_c, 0, 64, 27
2,59716, Control_c, 0, 64, 60
2,59735, Control_c, 0, 64, 65
2,59754, Control_c, 0, 64, 68
2,59774, Control_c, 0, 64, 71
2,59793, Control_c, 0, 64, 75
2,59811, Control_c, 0, 64, 80
2,59829, Note_on_c, 0, 84, 0
2,59831, Control_c, 0, 64, 86
2,59850, Control_c, 0, 64, 88
2,59869, Control_c, 0, 64, 89
2,59888, Control_c, 0, 64, 89
2,59973, Note_on_c, 0, 63, 0
2,59985, Control_c, 0, 64, 86
2,59992, Note_on_c, 0, 75, 0
2,59995, Note_on_c, 0, 82, 89
2,60000, Note_on_c, 0, 67, 0
2,60003, Control_c, 0, 64, 74
2,60004, Note_on_c, 0, 79, 64
2,60016, Note_on_c, 0, 64, 43
2,60023, Control_c, 0, 64, 57
2,60042, Control_c, 0, 64, 0
2,60298, Note_on_c, 0, 79, 0
2,60312, Note_on_c, 0, 64, 0
2,60367, Note_on_c, 0, 80, 82
2,60398, Note_on_c, 0, 65, 45
2,60400, Note_on_c, 0, 72, 50
2,60407, Note_on_c, 0, 82, 0
2,60426, Control_c, 0, 64, 20
2,60445, Control_c, 0, 64, 49
2,60465, Control_c, 0, 64, 63
2,60477, Note_on_c, 0, 72, 0
2,60483, Control_c, 0, 64, 70
2,60483, Note_on_c, 0, 65, 0
2,60503, Control_c, 0, 64, 77
2,60522, Control_c, 0, 64, 85
2,60542, Control_c, 0, 64, 92
2,60544, Note_on_c, 0, 80, 0
2,60560, Control_c, 0, 64, 100
2,60580, Control_c, 0, 64, 111
2,60599, Control_c, 0, 64, 118
2,60695, Control_c, 0, 64, 117
2,60714, Control_c, 0, 64, 112
2,60734, Control_c, 0, 64, 106
2,60735, Note_on_c, 0, 80, 68
2,60741, Note_on_c, 0, 53, 53
2,60744, Note_on_c, 0, 60, 43
2,60753, Control_c, 0, 64, 99
2,60764, Note_on_c, 0, 77, 44
2,60771, Control_c, 0, 64, 92
2,60791, Control_c, 0, 64, 84
2,60810, Control_c, 0, 64, 74
2,60826, Note_on_c, 0, 77, 0
2,60829, Control_c, 0, 64, 66
2,60848, Control_c, 0, 64, 61
2,60868, Control_c, 0, 64, 56
2,60879, Note_on_c, 0, 53, 0
2,60884, Note_on_c, 0, 52, 49
2,60884, Note_on_c, 0, 79, 73
2,60887, Control_c, 0, 64, 57
2,60906, Control_c, 0, 64, 60
2,60908, Note_on_c, 0, 60, 0
2,60925, Control_c, 0, 64, 62
2,60926, Note_on_c, 0, 52, 0
2,60945, Control_c, 0, 64, 63
2,60969, Note_on_c, 0, 80, 0
2,61022, Control_c, 0, 64, 62
2,61026, Note_on_c, 0, 79, 0
2,61040, Control_c, 0, 64, 61
2,61060, Control_c, 0, 64, 55
2,61070, Note_on_c, 0, 53, 61
2,61073, Note_on_c, 0, 77, 66
2,61079, Control_c, 0, 64, 22
2,61082, Note_on_c, 0, 80, 80
2,61083, Note_on_c, 0, 65, 55
2,61098, Control_c, 0, 64, 0
2,61263, Note_on_c, 0, 77, 0
2,61413, Note_on_c, 0, 84, 79
2,61419, Note_on_c, 0, 57, 64
2,61434, Note_on_c, 0, 75, 73
2,61445, Note_on_c, 0, 80, 0
2,61670, Note_on_c, 0, 75, 0
2,61758, Note_on_c, 0, 58, 64
2,61762, Note_on_c, 0, 77, 78
2,61769, Note_on_c, 0, 57, 0
2,61779, Note_on_c, 0, 84, 0
2,61780, Note_on_c, 0, 74, 64
2,61810, Note_on_c, 0, 65, 0
2,61921, Note_on_c, 0, 77, 0
2,61999, Control_c, 0, 64, 45
2,62019, Control_c, 0, 64, 60
2,62038, Control_c, 0, 64, 61
2,62048, Note_on_c, 0, 74, 0
2,62058, Control_c, 0, 64, 59
2,62076, Control_c, 0, 64, 55
2,62096, Control_c, 0, 64, 49
2,62103, Note_on_c, 0, 58, 0
2,62115, Control_c, 0, 64, 38
2,62124, Note_on_c, 0, 65, 56
2,62134, Control_c, 0, 64, 9
2,62150, Note_on_c, 0, 82, 80
2,62153, Control_c, 0, 64, 0
2,62175, Note_on_c, 0, 74, 57
2,62297, Note_on_c, 0, 74, 0
2,62298, Note_on_c, 0, 72, 73
2,62318, Note_on_c, 0, 63, 50
2,62319, Note_on_c, 0, 65, 0
2,62417, Note_on_c, 0, 72, 0
2,62460, Note_on_c, 0, 63, 0
2,62508, Note_on_c, 0, 65, 38
2,62508, Note_on_c, 0, 74, 43
2,62614, Control_c, 0, 64, 52
2,62633, Control_c, 0, 64, 63
2,62653, Control_c, 0, 64, 65
2,62672, Control_c, 0, 64, 66
2,62690, Control_c, 0, 64, 67
2,62710, Control_c, 0, 64, 68
2,62751, Note_on_c, 0, 82, 0
2,62787, Control_c, 0, 64, 67
2,62823, Note_on_c, 0, 53, 0
2,62825, Control_c, 0, 64, 67
2,62842, Note_on_c, 0, 80, 66
2,62844, Control_c, 0, 64, 64
2,62860, Note_on_c, 0, 62, 45
2,62863, Note_on_c, 0, 77, 53
2,62864, Control_c, 0, 64, 51
2,62868, Note_on_c, 0, 65, 0
2,62883, Control_c, 0, 64, 0
2,62998, Control_c, 0, 64, 53
2,63018, Control_c, 0, 64, 61
2,63036, Control_c, 0, 64, 62
2,63056, Control_c, 0, 64, 63
2,63066, Note_on_c, 0, 74, 0
2,63075, Control_c, 0, 64, 63
2,63113, Control_c, 0, 64, 63
2,63126, Note_on_c, 0, 62, 0
2,63133, Control_c, 0, 64, 61
2,63152, Control_c, 0, 64, 56
2,63170, Control_c, 0, 64, 43
2,63194, Control_c, 0, 64, 0
2,63198, Note_on_c, 0, 79, 66
2,63199, Note_on_c, 0, 77, 0
2,63200, Note_on_c, 0, 80, 0
2,63211, Note_on_c, 0, 63, 48
2,63230, Note_on_c, 0, 70, 38
2,63305, Control_c, 0, 64, 13
2,63324, Control_c, 0, 64, 57
2,63344, Control_c, 0, 64, 65
2,63363, Control_c, 0, 64, 67
2,63382, Control_c, 0, 64, 68
2,63401, Control_c, 0, 64, 68
2,63421, Control_c, 0, 64, 69
2,63432, Note_on_c, 0, 79, 0
2,63438, Note_on_c, 0, 70, 0
2,63439, Control_c, 0, 64, 70
2,63459, Control_c, 0, 64, 71
2,63478, Control_c, 0, 64, 72
2,63498, Control_c, 0, 64, 72
2,63563, Note_on_c, 0, 58, 41
2,63577, Note_on_c, 0, 51, 40
2,63580, Note_on_c, 0, 70, 55
2,63582, Note_on_c, 0, 79, 66
2,63613, Control_c, 0, 64, 73
2,63624, Note_on_c, 0, 70, 0
2,63708, Control_c, 0, 64, 73
2,63735, Note_on_c, 0, 77, 68
2,63737, Note_on_c, 0, 63, 0
2,63739, Note_on_c, 0, 79, 0
2,63766, Control_c, 0, 64, 73
2,63768, Note_on_c, 0, 68, 38
2,63796, Note_on_c, 0, 68, 0
2,63803, Note_on_c, 0, 51, 0
2,63804, Control_c, 0, 64, 72
2,63807, Note_on_c, 0, 58, 0
2,63824, Control_c, 0, 64, 71
2,63843, Control_c, 0, 64, 71
2,63862, Control_c, 0, 64, 70
2,63881, Control_c, 0, 64, 69
2,63901, Control_c, 0, 64, 68
2,63919, Control_c, 0, 64, 66
2,63921, Note_on_c, 0, 63, 46
2,63929, Note_on_c, 0, 79, 65
2,63939, Control_c, 0, 64, 62
2,63958, Control_c, 0, 64, 43
2,63959, Note_on_c, 0, 70, 45
2,63962, Note_on_c, 0, 77, 0
2,63978, Control_c, 0, 64, 0
2,64073, Control_c, 0, 64, 32
2,64076, Note_on_c, 0, 62, 65
2,64093, Control_c, 0, 64, 59
2,64112, Control_c, 0, 64, 63
2,64130, Control_c, 0, 64, 64
2,64166, Note_on_c, 0, 63, 0
2,64207, Control_c, 0, 64, 63
2,64227, Control_c, 0, 64, 59
2,64239, Note_on_c, 0, 70, 0
2,64247, Control_c, 0, 64, 35
2,64266, Control_c, 0, 64, 0
2,64266, Note_on_c, 0, 82, 71
2,64280, Note_on_c, 0, 74, 53
2,64282, Note_on_c, 0, 60, 68
2,64304, Note_on_c, 0, 79, 0
2,64307, Note_on_c, 0, 62, 0
2,64382, Control_c, 0, 64, 45
2,64400, Control_c, 0, 64, 59
2,64420, Control_c, 0, 64, 60
2,64422, Note_on_c, 0, 82, 0
2,64427, Note_on_c, 0, 58, 72
2,64439, Control_c, 0, 64, 59
2,64455, Note_on_c, 0, 60, 0
2,64458, Control_c, 0, 64, 56
2,64458, Note_on_c, 0, 74, 0
2,64477, Control_c, 0, 64, 47
2,64497, Control_c, 0, 64, 36
2,64516, Control_c, 0, 64, 27
2,64535, Control_c, 0, 64, 24
2,64554, Control_c, 0, 64, 18
2,64574, Control_c, 0, 64, 0
2,64578, Note_on_c, 0, 58, 0
2,64628, Note_on_c, 0, 60, 63
2,64637, Note_on_c, 0, 75, 64
2,64646, Note_on_c, 0, 67, 51
2,64765, Control_c, 0, 64, 52
2,64785, Control_c, 0, 64, 62
2,64803, Control_c, 0, 64, 63
2,64823, Control_c, 0, 64, 63
2,64842, Note_on_c, 0, 67, 0
2,64854, Note_on_c, 0, 75, 0
2,64862, Control_c, 0, 64, 64
2,64880, Control_c, 0, 64, 64
2,64900, Control_c, 0, 64, 65
2,64990, Note_on_c, 0, 48, 47
2,64992, Note_on_c, 0, 75, 68
2,65015, Control_c, 0, 64, 64
2,65015, Note_on_c, 0, 69, 53
2,65058, Note_on_c, 0, 69, 0
2,65073, Control_c, 0, 64, 64
2,65098, Note_on_c, 0, 75, 0
2,65106, Note_on_c, 0, 60, 0
2,65131, Control_c, 0, 64, 63
2,65152, Note_on_c, 0, 74, 65
2,65169, Control_c, 0, 64, 63
2,65174, Note_on_c, 0, 71, 56
2,65227, Control_c, 0, 64, 62
2,65246, Control_c, 0, 64, 62
2,65266, Control_c, 0, 64, 61
2,65277, Note_on_c, 0, 48, 0
2,65284, Control_c, 0, 64, 60
2,65304, Control_c, 0, 64, 58
2,65323, Control_c, 0, 64, 54
2,65343, Control_c, 0, 64, 41
2,65344, Note_on_c, 0, 60, 56
2,65345, Note_on_c, 0, 75, 66
2,65361, Control_c, 0, 64, 15
2,65372, Note_on_c, 0, 72, 54
2,65376, Note_on_c, 0, 71, 0
2,65381, Control_c, 0, 64, 0
2,65388, Note_on_c, 0, 74, 0
2,65489, Note_on_c, 0, 58, 60
2,65496, Control_c, 0, 64, 39
2,65515, Control_c, 0, 64, 54
2,65535, Control_c, 0, 64, 58
2,65599, Note_on_c, 0, 60, 0
2,65649, Control_c, 0, 64, 57
2,65669, Control_c, 0, 64, 55
2,65671, Note_on_c, 0, 79, 74
2,65673, Note_on_c, 0, 71, 62
2,65674, Note_on_c, 0, 56, 67
2,65688, Control_c, 0, 64, 51
2,65707, Control_c, 0, 64, 44
2,65708, Note_on_c, 0, 58, 0
2,65726, Control_c, 0, 64, 36
2,65744, Note_on_c, 0, 72, 0
2,65746, Control_c, 0, 64, 32
2,65764, Control_c, 0, 64, 32
2,65796, Note_on_c, 0, 75, 0
2,65803, Control_c, 0, 64, 33
2,65823, Control_c, 0, 64, 37
2,65826, Note_on_c, 0, 55, 70
2,65841, Control_c, 0, 64, 43
2,65861, Control_c, 0, 64, 47
2,65878, Note_on_c, 0, 56, 0
2,65880, Control_c, 0, 64, 49
2,65918, Control_c, 0, 64, 47
2,65938, Control_c, 0, 64, 41
2,65957, Control_c, 0, 64, 30
2,65976, Control_c, 0, 64, 9
2,65995, Control_c, 0, 64, 0
2,66073, Note_on_c, 0, 56, 54
2,66080, Note_on_c, 0, 55, 0
2,66103, Note_on_c, 0, 72, 83
2,66154, Note_on_c, 0, 79, 0
2,66165, Note_on_c, 0, 71, 0
2,66491, Note_on_c, 0, 44, 45
2,66498, Note_on_c, 0, 74, 53
2,66562, Note_on_c, 0, 56, 0
2,66656, Note_on_c, 0, 75, 68
2,66824, Note_on_c, 0, 44, 0
2,66831, Note_on_c, 0, 77, 71
2,66842, Note_on_c, 0, 56, 64
2,66980, Note_on_c, 0, 71, 75
2,67060, Note_on_c, 0, 72, 0
2,67076, Note_on_c, 0, 74, 0
2,67186, Note_on_c, 0, 72, 79
2,67189, Note_on_c, 0, 55, 54
2,67245, Note_on_c, 0, 71, 0
2,67257, Note_on_c, 0, 75, 0
2,67300, Note_on_c, 0, 56, 0
2,67341, Note_on_c, 0, 74, 76
2,67343, Note_on_c, 0, 53, 52
2,67355, Note_on_c, 0, 55, 0
2,67391, Note_on_c, 0, 72, 0
2,67554, Note_on_c, 0, 53, 0
2,67560, Note_on_c, 0, 55, 48
2,67566, Note_on_c, 0, 71, 77
2,67597, Note_on_c, 0, 74, 0
2,67722, Control_c, 0, 64, 34
2,67742, Control_c, 0, 64, 57
2,67760, Control_c, 0, 64, 62
2,67780, Control_c, 0, 64, 63
2,67799, Control_c, 0, 64, 65
2,67818, Control_c, 0, 64, 66
2,67837, Control_c, 0, 64, 69
2,67857, Control_c, 0, 64, 73
2,67876, Control_c, 0, 64, 79
2,67895, Control_c, 0, 64, 87
2,67914, Control_c, 0, 64, 96
2,67929, Note_on_c, 0, 67, 57
2,67934, Control_c, 0, 64, 105
2,67949, Note_on_c, 0, 71, 0
2,67953, Control_c, 0, 64, 114
2,67971, Control_c, 0, 64, 117
2,67991, Control_c, 0, 64, 118
2,68023, Note_on_c, 0, 67, 0
2,68086, Control_c, 0, 64, 117
2,68105, Control_c, 0, 64, 114
2,68124, Control_c, 0, 64, 110
2,68144, Control_c, 0, 64, 107
2,68163, Control_c, 0, 64, 105
2,68182, Control_c, 0, 64, 104
2,68201, Control_c, 0, 64, 102
2,68221, Control_c, 0, 64, 100
2,68239, Control_c, 0, 64, 97
2,68259, Control_c, 0, 64, 95
2,68278, Control_c, 0, 64, 92
2,68298, Control_c, 0, 64, 89
2,68316, Control_c, 0, 64, 85
2,68330, Note_on_c, 0, 77, 0
2,68336, Control_c, 0, 64, 81
2,68355, Control_c, 0, 64, 77
2,68361, Note_on_c, 0, 75, 58
2,68367, Note_on_c, 0, 72, 49
2,68374, Control_c, 0, 64, 74
2,68393, Control_c, 0, 64, 71
2,68412, Control_c, 0, 64, 69
2,68432, Control_c, 0, 64, 67
2,68450, Control_c, 0, 64, 65
2,68470, Control_c, 0, 64, 63
2,68489, Control_c, 0, 64, 62
2,68508, Control_c, 0, 64, 62
2,68519, Note_on_c, 0, 75, 0
2,68527, Control_c, 0, 64, 61
2,68547, Control_c, 0, 64, 59
2,68564, Note_on_c, 0, 74, 58
2,68566, Control_c, 0, 64, 57
2,68585, Control_c, 0, 64, 55
2,68604, Control_c, 0, 64, 53
2,68624, Control_c, 0, 64, 51
2,68643, Control_c, 0, 64, 49
2,68662, Control_c, 0, 64, 45
2,68681, Control_c, 0, 64, 39
2,68701, Control_c, 0, 64, 31
2,68719, Control_c, 0, 64, 27
2,68726, Note_on_c, 0, 75, 67
2,68729, Note_on_c, 0, 74, 0
2,68739, Control_c, 0, 64, 25
2,68778, Control_c, 0, 64, 24
2,68796, Control_c, 0, 64, 22
2,68816, Control_c, 0, 64, 20
2,68835, Control_c, 0, 64, 18
2,68854, Control_c, 0, 64, 15
2,68873, Control_c, 0, 64, 13
2,68883, Note_on_c, 0, 75, 0
2,68884, Note_on_c, 0, 77, 59
2,68892, Control_c, 0, 64, 9
2,68912, Control_c, 0, 64, 0
2,69024, Note_on_c, 0, 77, 0
2,69062, Note_on_c, 0, 74, 53
2,69205, Note_on_c, 0, 53, 46
2,69235, Note_on_c, 0, 55, 0
2,69335, Note_on_c, 0, 53, 0
2,69401, Note_on_c, 0, 55, 42
2,69401, Note_on_c, 0, 79, 66
2,69412, Note_on_c, 0, 72, 0
2,69550, Note_on_c, 0, 55, 0
2,69560, Note_on_c, 0, 56, 49
2,69677, Note_on_c, 0, 56, 0
2,69728, Note_on_c, 0, 55, 49
2,69753, Note_on_c, 0, 70, 59
2,69872, Note_on_c, 0, 55, 0
2,69900, Note_on_c, 0, 53, 39
2,70052, Note_on_c, 0, 53, 0
2,70064, Note_on_c, 0, 79, 0
2,70073, Note_on_c, 0, 52, 41
2,70078, Note_on_c, 0, 77, 53
2,70095, Note_on_c, 0, 74, 0
2,70253, Note_on_c, 0, 50, 47
2,70286, Note_on_c, 0, 52, 0
2,70467, Note_on_c, 0, 50, 0
2,70528, Note_on_c, 0, 48, 36
2,70542, Note_on_c, 0, 77, 0
2,70544, Note_on_c, 0, 76, 53
2,70716, Control_c, 0, 64, 13
2,70736, Control_c, 0, 64, 35
2,70755, Control_c, 0, 64, 49
2,70773, Control_c, 0, 64, 57
2,70793, Control_c, 0, 64, 60
2,70812, Control_c, 0, 64, 62
2,70832, Control_c, 0, 64, 63
2,70850, Control_c, 0, 64, 64
2,70870, Control_c, 0, 64, 65
2,70879, Note_on_c, 0, 72, 47
2,70889, Control_c, 0, 64, 66
2,70908, Control_c, 0, 64, 67
2,70920, Note_on_c, 0, 70, 0
2,70927, Control_c, 0, 64, 69
2,70947, Control_c, 0, 64, 72
2,70966, Control_c, 0, 64, 76
2,70985, Control_c, 0, 64, 79
2,71004, Control_c, 0, 64, 81
2,71139, Control_c, 0, 64, 80
2,71178, Control_c, 0, 64, 79
2,71196, Control_c, 0, 64, 78
2,71201, Note_on_c, 0, 76, 0
2,71216, Control_c, 0, 64, 77
2,71228, Note_on_c, 0, 72, 0
2,71233, Note_on_c, 0, 68, 47
2,71235, Control_c, 0, 64, 76
2,71244, Note_on_c, 0, 77, 56
2,71253, Control_c, 0, 64, 75
2,71273, Control_c, 0, 64, 73
2,71292, Control_c, 0, 64, 70
2,71312, Control_c, 0, 64, 68
2,71330, Control_c, 0, 64, 66
2,71338, Note_on_c, 0, 68, 0
2,71350, Control_c, 0, 64, 65
2,71369, Control_c, 0, 64, 64
2,71388, Control_c, 0, 64, 63
2,71393, Note_on_c, 0, 67, 53
2,71407, Control_c, 0, 64, 62
2,71427, Control_c, 0, 64, 61
2,71446, Control_c, 0, 64, 59
2,71465, Control_c, 0, 64, 55
2,71484, Control_c, 0, 64, 51
2,71504, Control_c, 0, 64, 47
2,71523, Control_c, 0, 64, 41
2,71542, Control_c, 0, 64, 35
2,71561, Control_c, 0, 64, 26
2,71578, Note_on_c, 0, 68, 69
2,71581, Control_c, 0, 64, 0
2,71634, Note_on_c, 0, 67, 0
2,71720, Note_on_c, 0, 70, 75
2,71740, Note_on_c, 0, 68, 0
2,71839, Note_on_c, 0, 70, 0
2,71920, Note_on_c, 0, 67, 46
2,72073, Note_on_c, 0, 46, 53
2,72123, Note_on_c, 0, 48, 0
2,72228, Note_on_c, 0, 72, 50
2,72236, Note_on_c, 0, 46, 0
2,72258, Note_on_c, 0, 48, 57
2,72391, Note_on_c, 0, 50, 63
2,72419, Note_on_c, 0, 67, 0
2,72510, Note_on_c, 0, 48, 0
2,72520, Note_on_c, 0, 50, 0
2,72568, Note_on_c, 0, 48, 46
2,72575, Note_on_c, 0, 75, 67
2,72659, Note_on_c, 0, 77, 0
2,72738, Note_on_c, 0, 46, 64
2,72760, Note_on_c, 0, 48, 0
2,72918, Note_on_c, 0, 45, 56
2,72920, Note_on_c, 0, 46, 0
2,72939, Note_on_c, 0, 70, 60
2,73034, Note_on_c, 0, 45, 0
2,73064, Note_on_c, 0, 43, 55
2,73157, Note_on_c, 0, 72, 0
2,73170, Note_on_c, 0, 70, 0
2,73220, Note_on_c, 0, 43, 0
2,73284, Note_on_c, 0, 41, 48
2,73304, Note_on_c, 0, 69, 55
2,73385, Control_c, 0, 64, 53
2,73404, Control_c, 0, 64, 64
2,73424, Control_c, 0, 64, 66
2,73443, Control_c, 0, 64, 69
2,73462, Control_c, 0, 64, 74
2,73481, Control_c, 0, 64, 79
2,73493, Note_on_c, 0, 69, 0
2,73501, Control_c, 0, 64, 86
2,73519, Control_c, 0, 64, 94
2,73539, Control_c, 0, 64, 104
2,73558, Control_c, 0, 64, 127
2,73701, Note_on_c, 0, 65, 45
2,73779, Note_on_c, 0, 65, 0
2,73982, Control_c, 0, 64, 112
2,74000, Control_c, 0, 64, 104
2,74020, Control_c, 0, 64, 99
2,74039, Control_c, 0, 64, 95
2,74058, Control_c, 0, 64, 90
2,74067, Note_on_c, 0, 70, 55
2,74077, Control_c, 0, 64, 86
2,74078, Note_on_c, 0, 74, 61
2,74080, Note_on_c, 0, 75, 0
2,74097, Control_c, 0, 64, 82
2,74116, Control_c, 0, 64, 79
2,74135, Control_c, 0, 64, 76
2,74154, Control_c, 0, 64, 75
2,74173, Control_c, 0, 64, 73
2,74193, Control_c, 0, 64, 71
2,74211, Control_c, 0, 64, 69
2,74231, Control_c, 0, 64, 67
2,74238, Note_on_c, 0, 72, 72
2,74250, Control_c, 0, 64, 65
2,74269, Control_c, 0, 64, 64
2,74273, Note_on_c, 0, 74, 0
2,74288, Control_c, 0, 64, 64
2,74308, Control_c, 0, 64, 63
2,74327, Control_c, 0, 64, 62
2,74346, Control_c, 0, 64, 60
2,74365, Control_c, 0, 64, 58
2,74385, Control_c, 0, 64, 55
2,74403, Control_c, 0, 64, 52
2,74415, Note_on_c, 0, 74, 74
2,74423, Control_c, 0, 64, 50
2,74442, Control_c, 0, 64, 48
2,74462, Control_c, 0, 64, 45
2,74471, Note_on_c, 0, 72, 0
2,74480, Control_c, 0, 64, 40
2,74500, Control_c, 0, 64, 31
2,74519, Control_c, 0, 64, 19
2,74538, Control_c, 0, 64, 0
2,74562, Note_on_c, 0, 75, 83
2,74606, Note_on_c, 0, 74, 0
2,74746, Note_on_c, 0, 72, 85
2,74749, Note_on_c, 0, 75, 0
2,74925, Note_on_c, 0, 51, 54
2,74940, Note_on_c, 0, 41, 0
2,75123, Note_on_c, 0, 77, 78
2,75140, Note_on_c, 0, 51, 0
2,75145, Note_on_c, 0, 53, 52
2,75246, Note_on_c, 0, 70, 0
2,75287, Note_on_c, 0, 53, 0
2,75310, Note_on_c, 0, 55, 50
2,75464, Note_on_c, 0, 55, 0
2,75492, Note_on_c, 0, 68, 70
2,75493, Note_on_c, 0, 53, 42
2,75639, Note_on_c, 0, 53, 0
2,75656, Note_on_c, 0, 51, 45
2,75768, Note_on_c, 0, 51, 0
2,75824, Note_on_c, 0, 50, 49
2,75838, Note_on_c, 0, 75, 65
2,75882, Note_on_c, 0, 72, 0
2,75899, Note_on_c, 0, 77, 0
2,75992, Note_on_c, 0, 50, 0
2,76008, Note_on_c, 0, 48, 47
2,76166, Note_on_c, 0, 48, 0
2,76191, Note_on_c, 0, 75, 0
2,76201, Note_on_c, 0, 74, 54
2,76214, Note_on_c, 0, 46, 43
2,76475, Control_c, 0, 64, 15
2,76494, Control_c, 0, 64, 42
2,76514, Control_c, 0, 64, 54
2,76533, Control_c, 0, 64, 59
2,76552, Control_c, 0, 64, 62
2,76559, Note_on_c, 0, 70, 55
2,76571, Control_c, 0, 64, 63
2,76591, Control_c, 0, 64, 65
2,76609, Control_c, 0, 64, 66
2,76629, Control_c, 0, 64, 69
2,76648, Control_c, 0, 64, 72
2,76668, Control_c, 0, 64, 77
2,76686, Control_c, 0, 64, 83
2,76691, Note_on_c, 0, 68, 0
2,76706, Control_c, 0, 64, 86
2,76725, Control_c, 0, 64, 88
2,76744, Control_c, 0, 64, 89
2,76849, Note_on_c, 0, 70, 0
2,76860, Control_c, 0, 64, 88
2,76878, Control_c, 0, 64, 87
2,76898, Control_c, 0, 64, 86
2,76914, Note_on_c, 0, 74, 0
2,76917, Control_c, 0, 64, 85
2,76937, Control_c, 0, 64, 85
2,76956, Note_on_c, 0, 67, 45
2,76959, Note_on_c, 0, 75, 61
2,76974, Control_c, 0, 64, 84
2,76994, Control_c, 0, 64, 84
2,76999, Note_on_c, 0, 67, 0
2,77013, Control_c, 0, 64, 83
2,77032, Control_c, 0, 64, 81
2,77051, Control_c, 0, 64, 80
2,77071, Control_c, 0, 64, 80
2,77089, Control_c, 0, 64, 79
2,77119, Note_on_c, 0, 65, 55
2,77148, Control_c, 0, 64, 79
2,77166, Control_c, 0, 64, 78
2,77186, Control_c, 0, 64, 76
2,77205, Control_c, 0, 64, 76
2,77224, Control_c, 0, 64, 75
2,77243, Control_c, 0, 64, 74
2,77263, Control_c, 0, 64, 73
2,77282, Control_c, 0, 64, 72
2,77301, Control_c, 0, 64, 71
2,77310, Note_on_c, 0, 67, 61
2,77320, Control_c, 0, 64, 70
2,77340, Control_c, 0, 64, 69
2,77358, Control_c, 0, 64, 68
2,77373, Note_on_c, 0, 65, 0
2,77378, Control_c, 0, 64, 67
2,77397, Control_c, 0, 64, 67
2,77417, Control_c, 0, 64, 66
2,77454, Control_c, 0, 64, 66
2,77461, Note_on_c, 0, 68, 72
2,77474, Control_c, 0, 64, 65
2,77493, Control_c, 0, 64, 64
2,77500, Note_on_c, 0, 67, 0
2,77512, Control_c, 0, 64, 63
2,77531, Control_c, 0, 64, 63
2,77551, Control_c, 0, 64, 62
2,77569, Control_c, 0, 64, 60
2,77590, Control_c, 0, 64, 57
2,77609, Control_c, 0, 64, 52
2,77625, Note_on_c, 0, 68, 0
2,77628, Control_c, 0, 64, 45
2,77636, Note_on_c, 0, 65, 57
2,77647, Control_c, 0, 64, 37
2,77667, Control_c, 0, 64, 30
2,77686, Control_c, 0, 64, 25
2,77705, Control_c, 0, 64, 19
2,77724, Control_c, 0, 64, 13
2,77744, Control_c, 0, 64, 11
2,77763, Control_c, 0, 64, 0
2,77783, Note_on_c, 0, 56, 56
2,77788, Note_on_c, 0, 46, 0
2,77973, Note_on_c, 0, 58, 55
2,77996, Note_on_c, 0, 70, 53
2,78034, Note_on_c, 0, 56, 0
2,78068, Note_on_c, 0, 75, 0
2,78140, Note_on_c, 0, 60, 66
2,78193, Note_on_c, 0, 58, 0
2,78338, Note_on_c, 0, 58, 74
2,78360, Note_on_c, 0, 73, 67
2,78413, Note_on_c, 0, 60, 0
2,78528, Note_on_c, 0, 56, 61
2,78711, Note_on_c, 0, 55, 56
2,78740, Note_on_c, 0, 68, 56
2,78749, Note_on_c, 0, 70, 0
2,78870, Note_on_c, 0, 56, 0
2,78879, Note_on_c, 0, 53, 55
2,78894, Note_on_c, 0, 55, 0
2,79093, Note_on_c, 0, 53, 0
2,79094, Note_on_c, 0, 70, 79
2,79115, Note_on_c, 0, 63, 64
2,79118, Note_on_c, 0, 55, 48
2,79145, Note_on_c, 0, 58, 0
2,79155, Note_on_c, 0, 68, 0
2,79260, Note_on_c, 0, 73, 0
2,79424, Note_on_c, 0, 55, 0
2,79446, Note_on_c, 0, 72, 79
2,79456, Note_on_c, 0, 56, 59
2,79516, Note_on_c, 0, 70, 0
2,79781, Note_on_c, 0, 70, 81
2,79789, Note_on_c, 0, 50, 56
2,79942, Note_on_c, 0, 65, 0
2,79970, Control_c, 0, 64, 38
2,79990, Control_c, 0, 64, 59
2,79990, Note_on_c, 0, 63, 0
2,79993, Note_on_c, 0, 72, 0
2,80009, Control_c, 0, 64, 63
2,80028, Control_c, 0, 64, 64
2,80086, Control_c, 0, 64, 65
2,80127, Note_on_c, 0, 61, 82
2,80148, Note_on_c, 0, 52, 65
2,80162, Note_on_c, 0, 67, 49
2,80163, Control_c, 0, 64, 64
2,80182, Control_c, 0, 64, 63
2,80201, Control_c, 0, 64, 59
2,80221, Control_c, 0, 64, 57
2,80259, Control_c, 0, 64, 58
2,80278, Control_c, 0, 64, 61
2,80298, Control_c, 0, 64, 62
2,80316, Control_c, 0, 64, 63
2,80321, Note_on_c, 0, 50, 0
2,80405, Note_on_c, 0, 61, 0
2,80444, Note_on_c, 0, 56, 0
2,80450, Control_c, 0, 64, 63
2,80463, Note_on_c, 0, 67, 0
2,80470, Control_c, 0, 64, 62
2,80489, Control_c, 0, 64, 62
2,80493, Note_on_c, 0, 60, 65
2,80494, Note_on_c, 0, 52, 0
2,80508, Control_c, 0, 64, 60
2,80519, Note_on_c, 0, 53, 56
2,80522, Note_on_c, 0, 68, 63
2,80527, Control_c, 0, 64, 57
2,80547, Control_c, 0, 64, 52
2,80566, Control_c, 0, 64, 44
2,80585, Control_c, 0, 64, 33
2,80604, Control_c, 0, 64, 9
2,80624, Control_c, 0, 64, 0
2,80686, Note_on_c, 0, 70, 0
2,80791, Note_on_c, 0, 68, 0
2,80874, Note_on_c, 0, 53, 0
2,80883, Note_on_c, 0, 65, 59
2,81032, Note_on_c, 0, 67, 66
2,81139, Note_on_c, 0, 65, 0
2,81217, Note_on_c, 0, 68, 70
2,81240, Note_on_c, 0, 67, 0
2,81333, Note_on_c, 0, 60, 0
2,81365, Note_on_c, 0, 51, 50
2,81526, Note_on_c, 0, 51, 0
2,81559, Note_on_c, 0, 63, 57
2,81568, Note_on_c, 0, 49, 47
2,81665, Note_on_c, 0, 49, 0
2,81708, Note_on_c, 0, 48, 52
2,81873, Note_on_c, 0, 48, 0
2,81912, Note_on_c, 0, 63, 0
2,81926, Note_on_c, 0, 46, 46
2,81946, Note_on_c, 0, 61, 54
2,82120, Control_c, 0, 64, 36
2,82140, Control_c, 0, 64, 52
2,82158, Control_c, 0, 64, 59
2,82167, Note_on_c, 0, 61, 0
2,82178, Control_c, 0, 64, 63
2,82197, Control_c, 0, 64, 64
2,82312, Control_c, 0, 64, 64
2,82313, Note_on_c, 0, 65, 62
2,82316, Note_on_c, 0, 61, 58
2,82331, Control_c, 0, 64, 63
2,82353, Note_on_c, 0, 68, 0
2,82369, Control_c, 0, 64, 63
2,82389, Control_c, 0, 64, 62
2,82408, Control_c, 0, 64, 61
2,82425, Note_on_c, 0, 46, 0
2,82428, Control_c, 0, 64, 58
2,82445, Note_on_c, 0, 60, 72
2,82446, Control_c, 0, 64, 52
2,82466, Control_c, 0, 64, 41
2,82486, Control_c, 0, 64, 9
2,82494, Note_on_c, 0, 61, 0
2,82505, Control_c, 0, 64, 0
2,82639, Note_on_c, 0, 61, 57
2,82645, Note_on_c, 0, 70, 77
2,82649, Note_on_c, 0, 65, 0
2,82724, Note_on_c, 0, 61, 0
2,82790, Note_on_c, 0, 46, 65
2,82918, Note_on_c, 0, 60, 0
2,82981, Note_on_c, 0, 48, 69
2,82989, Note_on_c, 0, 68, 68
2,82996, Note_on_c, 0, 65, 60
2,83009, Note_on_c, 0, 46, 0
2,83025, Note_on_c, 0, 70, 0
2,83140, Note_on_c, 0, 49, 77
2,83151, Note_on_c, 0, 48, 0
2,83181, Note_on_c, 0, 65, 0
2,83248, Note_on_c, 0, 68, 0
2,83335, Note_on_c, 0, 49, 0
2,83348, Note_on_c, 0, 51, 65
2,83373, Note_on_c, 0, 58, 45
2,83373, Note_on_c, 0, 67, 56
2,83523, Control_c, 0, 64, 33
2,83532, Note_on_c, 0, 58, 0
2,83542, Control_c, 0, 64, 54
2,83561, Control_c, 0, 64, 60
2,83619, Control_c, 0, 64, 59
2,83622, Note_on_c, 0, 67, 0
2,83658, Control_c, 0, 64, 59
2,83676, Control_c, 0, 64, 57
2,83695, Control_c, 0, 64, 54
2,83713, Note_on_c, 0, 63, 68
2,83715, Control_c, 0, 64, 47
2,83722, Note_on_c, 0, 67, 63
2,83733, Control_c, 0, 64, 29
2,83753, Control_c, 0, 64, 0
2,83885, Note_on_c, 0, 65, 78
2,83921, Note_on_c, 0, 67, 0
2,84031, Note_on_c, 0, 65, 0
2,84080, Note_on_c, 0, 67, 72
2,84221, Note_on_c, 0, 39, 66
2,84275, Note_on_c, 0, 63, 0
2,84386, Note_on_c, 0, 51, 0
2,84407, Note_on_c, 0, 67, 0
2,84408, Note_on_c, 0, 41, 65
2,84411, Note_on_c, 0, 70, 78
2,84413, Note_on_c, 0, 61, 69
2,84432, Note_on_c, 0, 39, 0
2,84563, Note_on_c, 0, 43, 70
2,84613, Note_on_c, 0, 41, 0
2,84632, Note_on_c, 0, 61, 0
2,84748, Note_on_c, 0, 70, 0
2,84753, Note_on_c, 0, 44, 69
2,84760, Note_on_c, 0, 63, 68
2,84774, Note_on_c, 0, 60, 64
2,84785, Note_on_c, 0, 43, 0
2,84837, Note_on_c, 0, 63, 0
2,84915, Note_on_c, 0, 44, 0
2,84915, Note_on_c, 0, 46, 75
2,84937, Note_on_c, 0, 60, 0
2,85099, Note_on_c, 0, 48, 58
2,85106, Note_on_c, 0, 68, 73
2,85113, Note_on_c, 0, 60, 57
2,85130, Note_on_c, 0, 46, 0
2,85225, Note_on_c, 0, 48, 0
2,85245, Note_on_c, 0, 50, 63
2,85261, Note_on_c, 0, 58, 66
2,85264, Note_on_c, 0, 60, 0
2,85411, Note_on_c, 0, 50, 0
2,85440, Note_on_c, 0, 68, 0
2,85443, Note_on_c, 0, 58, 0
2,85463, Note_on_c, 0, 60, 51
2,85482, Note_on_c, 0, 51, 47
2,85634, Control_c, 0, 64, 44
2,85653, Control_c, 0, 64, 59
2,85672, Control_c, 0, 64, 63
2,85691, Control_c, 0, 64, 65
2,85711, Control_c, 0, 64, 68
2,85729, Control_c, 0, 64, 72
2,85749, Control_c, 0, 64, 80
2,85768, Control_c, 0, 64, 91
2,85781, Note_on_c, 0, 67, 52
2,85788, Control_c, 0, 64, 111
2,85806, Control_c, 0, 64, 127
2,85813, Note_on_c, 0, 63, 55
2,85833, Note_on_c, 0, 60, 0
2,85863, Note_on_c, 0, 63, 0
2,85879, Note_on_c, 0, 67, 0
2,86250, Control_c, 0, 64, 119
2,86269, Control_c, 0, 64, 104
2,86278, Note_on_c, 0, 70, 90
2,86288, Control_c, 0, 64, 91
2,86294, Note_on_c, 0, 56, 55
2,86299, Note_on_c, 0, 65, 67
2,86308, Control_c, 0, 64, 75
2,86324, Control_c, 0, 64, 63
2,86343, Control_c, 0, 64, 0
2,86439, Control_c, 0, 64, 51
2,86459, Control_c, 0, 64, 63
2,86478, Control_c, 0, 64, 66
2,86496, Control_c, 0, 64, 66
2,86516, Control_c, 0, 64, 67
2,86560, Note_on_c, 0, 65, 0
2,86566, Note_on_c, 0, 56, 0
2,86721, Note_on_c, 0, 65, 56
2,86725, Note_on_c, 0, 56, 54
2,86747, Control_c, 0, 64, 66
2,86765, Control_c, 0, 64, 66
2,86785, Control_c, 0, 64, 65
2,86804, Control_c, 0, 64, 64
2,86824, Control_c, 0, 64, 62
2,86842, Control_c, 0, 64, 61
2,86862, Control_c, 0, 64, 59
2,86866, Note_on_c, 0, 63, 51
2,86869, Note_on_c, 0, 56, 0
2,86878, Note_on_c, 0, 65, 0
2,86880, Note_on_c, 0, 55, 44
2,86881, Control_c, 0, 64, 57
2,86900, Control_c, 0, 64, 54
2,86919, Control_c, 0, 64, 44
2,86939, Control_c, 0, 64, 18
2,86958, Control_c, 0, 64, 0
2,86996, Note_on_c, 0, 55, 0
2,87000, Note_on_c, 0, 63, 0
2,87069, Note_on_c, 0, 65, 45
2,87076, Note_on_c, 0, 56, 56
2,87111, Control_c, 0, 64, 51
2,87130, Control_c, 0, 64, 62
2,87150, Control_c, 0, 64, 64
2,87191, Control_c, 0, 64, 65
2,87210, Control_c, 0, 64, 66
2,87229, Control_c, 0, 64, 68
2,87248, Control_c, 0, 64, 71
2,87263, Note_on_c, 0, 56, 0
2,87268, Control_c, 0, 64, 76
2,87285, Control_c, 0, 64, 80
2,87304, Control_c, 0, 64, 84
2,87323, Control_c, 0, 64, 85
2,87391, Note_on_c, 0, 65, 0
2,87442, Note_on_c, 0, 58, 46
2,87455, Note_on_c, 0, 67, 34
2,87544, Note_on_c, 0, 51, 0
2,87560, Note_on_c, 0, 56, 57
2,87563, Note_on_c, 0, 70, 0
2,87574, Note_on_c, 0, 65, 49
2,87592, Control_c, 0, 64, 84
2,87598, Note_on_c, 0, 67, 0
2,87611, Control_c, 0, 64, 84
2,87628, Note_on_c, 0, 58, 0
2,87631, Control_c, 0, 64, 83
2,87658, Note_on_c, 0, 65, 0
2,87669, Control_c, 0, 64, 83
2,87711, Note_on_c, 0, 56, 0
2,87726, Control_c, 0, 64, 82
2,87746, Control_c, 0, 64, 80
2,87765, Control_c, 0, 64, 77
2,87784, Control_c, 0, 64, 72
2,87797, Note_on_c, 0, 51, 80
2,87803, Control_c, 0, 64, 66
2,87812, Note_on_c, 0, 75, 79
2,87823, Control_c, 0, 64, 59
2,87842, Control_c, 0, 64, 46
2,87843, Note_on_c, 0, 55, 42
2,87843, Note_on_c, 0, 63, 41
2,87861, Control_c, 0, 64, 9
2,87880, Control_c, 0, 64, 0
2,88121, Note_on_c, 0, 63, 0
2,88193, Note_on_c, 0, 58, 64
2,88203, Note_on_c, 0, 67, 49
2,88345, Note_on_c, 0, 65, 66
2,88346, Note_on_c, 0, 56, 68
2,88350, Note_on_c, 0, 55, 0
2,88362, Note_on_c, 0, 58, 0
2,88391, Note_on_c, 0, 67, 0
2,88534, Note_on_c, 0, 58, 73
2,88543, Note_on_c, 0, 56, 0
2,88552, Note_on_c, 0, 67, 66
2,88571, Note_on_c, 0, 75, 0
2,88661, Note_on_c, 0, 65, 0
2,88686, Control_c, 0, 64, 42
2,88706, Control_c, 0, 64, 58
2,88725, Control_c, 0, 64, 61
2,88744, Control_c, 0, 64, 62
2,88783, Control_c, 0, 64, 61
2,88802, Control_c, 0, 64, 58
2,88821, Control_c, 0, 64, 48
2,88840, Control_c, 0, 64, 22
2,88860, Control_c, 0, 64, 0
2,88883, Note_on_c, 0, 69, 66
2,88891, Note_on_c, 0, 75, 81
2,88893, Note_on_c, 0, 60, 68
2,88898, Control_c, 0, 64, 19
2,88916, Note_on_c, 0, 67, 0
2,88917, Control_c, 0, 64, 50
2,88936, Control_c, 0, 64, 62
2,88955, Control_c, 0, 64, 65
2,88961, Note_on_c, 0, 58, 0
2,88974, Control_c, 0, 64, 66
2,88994, Control_c, 0, 64, 68
2,89013, Control_c, 0, 64, 71
2,89032, Control_c, 0, 64, 73
2,89040, Note_on_c, 0, 67, 80
2,89051, Control_c, 0, 64, 74
2,89071, Control_c, 0, 64, 75
2,89077, Note_on_c, 0, 75, 0
2,89196, Note_on_c, 0, 60, 0
2,89206, Control_c, 0, 64, 74
2,89225, Control_c, 0, 64, 71
2,89242, Note_on_c, 0, 69, 0
2,89244, Control_c, 0, 64, 64
2,89252, Note_on_c, 0, 74, 77
2,89253, Note_on_c, 0, 67, 0
2,89258, Note_on_c, 0, 62, 71
2,89260, Note_on_c, 0, 58, 63
2,89264, Control_c, 0, 64, 42
2,89268, Note_on_c, 0, 65, 63
2,89273, Note_on_c, 0, 51, 0
2,89283, Control_c, 0, 64, 0
2,89349, Note_on_c, 0, 74, 0
2,89398, Control_c, 0, 64, 19
2,89418, Control_c, 0, 64, 59
2,89436, Control_c, 0, 64, 64
2,89455, Control_c, 0, 64, 65
2,89505, Note_on_c, 0, 65, 0
2,89507, Note_on_c, 0, 62, 0
2,89570, Control_c, 0, 64, 64
2,89609, Control_c, 0, 64, 64
2,89610, Note_on_c, 0, 79, 75
2,89628, Control_c, 0, 64, 62
2,89631, Note_on_c, 0, 70, 68
2,89643, Note_on_c, 0, 62, 70
2,89647, Control_c, 0, 64, 58
2,89667, Control_c, 0, 64, 52
2,89686, Control_c, 0, 64, 34
2,89705, Control_c, 0, 64, 0
2,89756, Note_on_c, 0, 68, 75
2,89764, Note_on_c, 0, 70, 0
2,89787, Note_on_c, 0, 60, 68
2,89805, Note_on_c, 0, 62, 0
2,89855, Note_on_c, 0, 68, 0
2,89885, Note_on_c, 0, 60, 0
2,89966, Note_on_c, 0, 62, 56
2,89984, Note_on_c, 0, 70, 80
2,90071, Control_c, 0, 64, 38
2,90090, Control_c, 0, 64, 43
2,90109, Control_c, 0, 64, 48
2,90128, Control_c, 0, 64, 55
2,90148, Control_c, 0, 64, 61
2,90164, Control_c, 0, 64, 64
2,90168, Note_on_c, 0, 79, 0
2,90184, Control_c, 0, 64, 65
2,90202, Control_c, 0, 64, 67
2,90222, Control_c, 0, 64, 67
2,90260, Control_c, 0, 64, 68
2,90299, Control_c, 0, 64, 67
2,90318, Control_c, 0, 64, 66
2,90336, Control_c, 0, 64, 62
2,90346, Note_on_c, 0, 58, 0
2,90356, Control_c, 0, 64, 44
2,90360, Note_on_c, 0, 77, 80
2,90375, Control_c, 0, 64, 0
2,90382, Note_on_c, 0, 56, 53
2,90383, Note_on_c, 0, 74, 60
2,90490, Control_c, 0, 64, 53
2,90510, Control_c, 0, 64, 64
2,90528, Control_c, 0, 64, 67
2,90533, Note_on_c, 0, 70, 0
2,90534, Note_on_c, 0, 74, 0
2,90548, Control_c, 0, 64, 69
2,90567, Control_c, 0, 64, 71
2,90587, Control_c, 0, 64, 73
2,90605, Control_c, 0, 64, 75
2,90625, Control_c, 0, 64, 76
2,90664, Control_c, 0, 64, 75
2,90682, Control_c, 0, 64, 75
2,90702, Control_c, 0, 64, 74
2,90721, Control_c, 0, 64, 72
2,90723, Note_on_c, 0, 56, 0
2,90740, Control_c, 0, 64, 68
2,90742, Note_on_c, 0, 62, 0
2,90759, Control_c, 0, 64, 63
2,90779, Control_c, 0, 64, 55
2,90781, Note_on_c, 0, 75, 86
2,90791, Note_on_c, 0, 55, 47
2,90798, Control_c, 0, 64, 47
2,90816, Control_c, 0, 64, 36
2,90833, Note_on_c, 0, 77, 0
2,90836, Control_c, 0, 64, 18
2,90855, Control_c, 0, 64, 0
2,91102, Note_on_c, 0, 75, 0
2,91189, Note_on_c, 0, 72, 56
2,91195, Note_on_c, 0, 75, 58
2,91196, Note_on_c, 0, 67, 52
2,91197, Note_on_c, 0, 60, 41
2,91349, Note_on_c, 0, 74, 75
2,91386, Note_on_c, 0, 75, 0
2,91488, Note_on_c, 0, 74, 0
2,91539, Note_on_c, 0, 75, 83
2,91543, Note_on_c, 0, 63, 69
2,91603, Note_on_c, 0, 55, 0
2,91617, Note_on_c, 0, 60, 0
2,91662, Control_c, 0, 64, 28
2,91681, Control_c, 0, 64, 52
2,91700, Control_c, 0, 64, 59
2,91719, Control_c, 0, 64, 59
2,91796, Control_c, 0, 64, 58
2,91815, Control_c, 0, 64, 55
2,91834, Control_c, 0, 64, 39
2,91853, Control_c, 0, 64, 0
2,91862, Note_on_c, 0, 79, 84
2,91880, Note_on_c, 0, 58, 68
2,91902, Note_on_c, 0, 75, 0
2,91919, Note_on_c, 0, 72, 0
2,91988, Control_c, 0, 64, 50
2,92007, Control_c, 0, 64, 60
2,92014, Note_on_c, 0, 63, 0
2,92027, Control_c, 0, 64, 62
2,92065, Control_c, 0, 64, 63
2,92085, Control_c, 0, 64, 63
2,92162, Control_c, 0, 64, 62
2,92172, Note_on_c, 0, 67, 0
2,92181, Control_c, 0, 64, 59
2,92200, Control_c, 0, 64, 40
2,92220, Control_c, 0, 64, 0
2,92221, Note_on_c, 0, 72, 89
2,92227, Note_on_c, 0, 56, 70
2,92234, Note_on_c, 0, 68, 75
2,92241, Note_on_c, 0, 79, 0
2,92251, Note_on_c, 0, 58, 0
2,92334, Control_c, 0, 64, 36
2,92354, Control_c, 0, 64, 57
2,92373, Control_c, 0, 64, 62
2,92392, Control_c, 0, 64, 63
2,92431, Control_c, 0, 64, 63
2,92493, Note_on_c, 0, 56, 0
2,92508, Control_c, 0, 64, 63
2,92565, Control_c, 0, 64, 62
2,92584, Control_c, 0, 64, 62
2,92589, Note_on_c, 0, 77, 83
2,92601, Note_on_c, 0, 56, 62
2,92603, Control_c, 0, 64, 61
2,92612, Note_on_c, 0, 60, 59
2,92623, Control_c, 0, 64, 60
2,92642, Control_c, 0, 64, 58
2,92661, Control_c, 0, 64, 56
2,92680, Control_c, 0, 64, 52
2,92700, Control_c, 0, 64, 44
2,92718, Control_c, 0, 64, 32
2,92729, Note_on_c, 0, 60, 0
2,92734, Note_on_c, 0, 55, 57
2,92734, Note_on_c, 0, 58, 68
2,92736, Note_on_c, 0, 56, 0
2,92737, Control_c, 0, 64, 11
2,92757, Control_c, 0, 64, 0
2,92868, Note_on_c, 0, 58, 0
2,92914, Note_on_c, 0, 55, 0
2,92957, Note_on_c, 0, 60, 49
2,92967, Note_on_c, 0, 56, 50
2,92988, Control_c, 0, 64, 23
2,93007, Control_c, 0, 64, 55
2,93024, Note_on_c, 0, 68, 0
2,93027, Control_c, 0, 64, 61
2,93045, Control_c, 0, 64, 64
2,93064, Control_c, 0, 64, 65
2,93083, Control_c, 0, 64, 68
2,93094, Note_on_c, 0, 60, 0
2,93103, Control_c, 0, 64, 72
2,93122, Control_c, 0, 64, 79
2,93141, Control_c, 0, 64, 84
2,93160, Control_c, 0, 64, 85
2,93169, Note_on_c, 0, 56, 0
2,93237, Control_c, 0, 64, 85
2,93256, Control_c, 0, 64, 84
2,93275, Control_c, 0, 64, 80
2,93288, Note_on_c, 0, 75, 86
2,93290, Note_on_c, 0, 60, 39
2,93291, Note_on_c, 0, 63, 61
2,93294, Control_c, 0, 64, 69
2,93314, Control_c, 0, 64, 55
2,93333, Control_c, 0, 64, 0
2,93402, Note_on_c, 0, 77, 0
2,93429, Control_c, 0, 64, 51
2,93448, Control_c, 0, 64, 62
2,93468, Control_c, 0, 64, 64
2,93531, Note_on_c, 0, 63, 0
2,93563, Control_c, 0, 64, 63
2,93583, Control_c, 0, 64, 62
2,93587, Note_on_c, 0, 60, 0
2,93602, Control_c, 0, 64, 59
2,93621, Control_c, 0, 64, 48
2,93633, Note_on_c, 0, 53, 58
2,93640, Control_c, 0, 64, 0
2,93648, Note_on_c, 0, 74, 82
2,93651, Note_on_c, 0, 72, 0
2,93670, Note_on_c, 0, 70, 66
2,93716, Note_on_c, 0, 75, 0
2,93947, Note_on_c, 0, 74, 0
2,94034, Note_on_c, 0, 62, 48
2,94053, Note_on_c, 0, 58, 54
2,94057, Note_on_c, 0, 74, 68
2,94193, Note_on_c, 0, 72, 80
2,94232, Note_on_c, 0, 74, 0
2,94250, Note_on_c, 0, 53, 0
2,94351, Note_on_c, 0, 72, 0
2,94384, Note_on_c, 0, 74, 74
2,94386, Note_on_c, 0, 67, 63
2,94632, Note_on_c, 0, 58, 0
2,94718, Note_on_c, 0, 56, 75
2,94719, Note_on_c, 0, 77, 81
2,94729, Note_on_c, 0, 74, 0
2,94737, Note_on_c, 0, 62, 0
2,94741, Note_on_c, 0, 70, 0
2,94908, Control_c, 0, 64, 27
2,94926, Control_c, 0, 64, 46
2,94934, Note_on_c, 0, 56, 0
2,94946, Control_c, 0, 64, 52
2,94984, Control_c, 0, 64, 49
2,95002, Control_c, 0, 64, 36
2,95022, Control_c, 0, 64, 0
2,95060, Note_on_c, 0, 70, 86
2,95070, Note_on_c, 0, 55, 65
2,95140, Note_on_c, 0, 77, 0
2,95175, Control_c, 0, 64, 28
2,95194, Control_c, 0, 64, 55
2,95213, Control_c, 0, 64, 61
2,95233, Control_c, 0, 64, 62
2,95241, Note_on_c, 0, 55, 0
2,95252, Control_c, 0, 64, 62
2,95271, Control_c, 0, 64, 63
2,95367, Control_c, 0, 64, 62
2,95405, Control_c, 0, 64, 62
2,95419, Note_on_c, 0, 55, 62
2,95425, Control_c, 0, 64, 61
2,95426, Note_on_c, 0, 75, 86
2,95444, Control_c, 0, 64, 61
2,95464, Control_c, 0, 64, 60
2,95482, Control_c, 0, 64, 59
2,95502, Control_c, 0, 64, 59
2,95521, Control_c, 0, 64, 58
2,95534, Note_on_c, 0, 55, 0
2,95537, Note_on_c, 0, 53, 57
2,95540, Control_c, 0, 64, 57
2,95559, Control_c, 0, 64, 57
2,95598, Control_c, 0, 64, 55
2,95615, Note_on_c, 0, 67, 0
2,95616, Control_c, 0, 64, 53
2,95636, Control_c, 0, 64, 50
2,95655, Control_c, 0, 64, 46
2,95674, Control_c, 0, 64, 41
2,95693, Control_c, 0, 64, 37
2,95713, Control_c, 0, 64, 30
2,95732, Control_c, 0, 64, 0
2,95763, Note_on_c, 0, 55, 54
2,95771, Note_on_c, 0, 53, 0
2,95780, Note_on_c, 0, 73, 84
2,95820, Note_on_c, 0, 70, 0
2,95833, Note_on_c, 0, 75, 0
2,95946, Control_c, 0, 64, 49
2,95965, Control_c, 0, 64, 61
2,95985, Control_c, 0, 64, 62
2,96062, Control_c, 0, 64, 62
2,96080, Control_c, 0, 64, 61
2,96100, Control_c, 0, 64, 57
2,96119, Control_c, 0, 64, 45
2,96139, Control_c, 0, 64, 0
2,96160, Note_on_c, 0, 68, 58
2,96177, Note_on_c, 0, 65, 44
2,96179, Note_on_c, 0, 58, 46
2,96253, Control_c, 0, 64, 55
2,96273, Control_c, 0, 64, 65
2,96291, Control_c, 0, 64, 69
2,96311, Control_c, 0, 64, 72
2,96322, Note_on_c, 0, 65, 0
2,96330, Control_c, 0, 64, 77
2,96340, Note_on_c, 0, 55, 0
2,96349, Control_c, 0, 64, 82
2,96363, Note_on_c, 0, 68, 0
2,96368, Control_c, 0, 64, 84
2,96445, Control_c, 0, 64, 83
2,96465, Control_c, 0, 64, 82
2,96473, Note_on_c, 0, 58, 0
2,96483, Control_c, 0, 64, 75
2,96503, Control_c, 0, 64, 64
2,96522, Control_c, 0, 64, 15
2,96522, Note_on_c, 0, 67, 67
2,96528, Note_on_c, 0, 51, 44
2,96542, Control_c, 0, 64, 0
2,96549, Note_on_c, 0, 63, 63
2,96595, Note_on_c, 0, 73, 0
2,96637, Control_c, 0, 64, 54
2,96656, Control_c, 0, 64, 63
2,96676, Control_c, 0, 64, 64
2,96694, Control_c, 0, 64, 65
2,96708, Note_on_c, 0, 51, 0
2,96808, Control_c, 0, 64, 64
2,96828, Control_c, 0, 64, 64
2,96854, Note_on_c, 0, 72, 82
2,96866, Control_c, 0, 64, 63
2,96868, Note_on_c, 0, 51, 57
2,96904, Control_c, 0, 64, 63
2,96923, Control_c, 0, 64, 62
2,96943, Control_c, 0, 64, 61
2,96962, Control_c, 0, 64, 61
2,96981, Control_c, 0, 64, 60
2,97000, Control_c, 0, 64, 59
2,97001, Note_on_c, 0, 50, 65
2,97020, Control_c, 0, 64, 58
2,97038, Control_c, 0, 64, 58
2,97051, Note_on_c, 0, 51, 0
2,97057, Control_c, 0, 64, 57
2,97134, Control_c, 0, 64, 56
2,97154, Control_c, 0, 64, 51
2,97173, Control_c, 0, 64, 40
2,97187, Note_on_c, 0, 67, 0
2,97192, Control_c, 0, 64, 11
2,97211, Control_c, 0, 64, 0
2,97216, Note_on_c, 0, 70, 87
2,97231, Note_on_c, 0, 51, 54
2,97249, Note_on_c, 0, 50, 0
2,97267, Note_on_c, 0, 63, 0
2,97323, Note_on_c, 0, 72, 0
2,97442, Control_c, 0, 64, 40
2,97461, Control_c, 0, 64, 52
2,97480, Control_c, 0, 64, 54
2,97500, Control_c, 0, 64, 50
2,97518, Control_c, 0, 64, 0
2,97593, Note_on_c, 0, 65, 47
2,97602, Note_on_c, 0, 55, 42
2,97615, Note_on_c, 0, 62, 38
2,97653, Control_c, 0, 64, 17
2,97672, Control_c, 0, 64, 51
2,97691, Control_c, 0, 64, 60
2,97711, Control_c, 0, 64, 63
2,97729, Control_c, 0, 64, 64
2,97749, Control_c, 0, 64, 64
2,97768, Control_c, 0, 64, 65
2,97806, Control_c, 0, 64, 65
2,97812, Note_on_c, 0, 62, 0
2,97826, Control_c, 0, 64, 66
2,97828, Note_on_c, 0, 65, 0
2,97923, Note_on_c, 0, 51, 0
2,97941, Control_c, 0, 64, 65
2,97944, Note_on_c, 0, 48, 53
2,97960, Control_c, 0, 64, 64
2,97976, Note_on_c, 0, 60, 43
2,97976, Note_on_c, 0, 63, 62
2,97980, Control_c, 0, 64, 61
2,97998, Control_c, 0, 64, 50
2,98017, Control_c, 0, 64, 0
2,98057, Note_on_c, 0, 70, 0
2,98332, Note_on_c, 0, 50, 52
2,98348, Note_on_c, 0, 68, 76
2,98497, Note_on_c, 0, 67, 78
2,98505, Note_on_c, 0, 51, 66
2,98546, Note_on_c, 0, 68, 0
2,98563, Note_on_c, 0, 48, 0
2,98566, Note_on_c, 0, 63, 0
2,98623, Note_on_c, 0, 55, 0
2,98691, Note_on_c, 0, 60, 0
2,98699, Note_on_c, 0, 50, 0
2,98720, Note_on_c, 0, 53, 67
2,98721, Note_on_c, 0, 68, 83
2,98747, Note_on_c, 0, 51, 0
2,98794, Note_on_c, 0, 67, 0
2,99087, Note_on_c, 0, 62, 73
2,99088, Note_on_c, 0, 56, 67
2,99216, Note_on_c, 0, 53, 0
2,99236, Note_on_c, 0, 60, 78
2,99323, Note_on_c, 0, 62, 0
2,99459, Note_on_c, 0, 60, 0
2,99477, Note_on_c, 0, 46, 58
2,99477, Note_on_c, 0, 53, 67
2,99477, Note_on_c, 0, 62, 78
2,99562, Note_on_c, 0, 56, 0
2,99712, Control_c, 0, 64, 47
2,99730, Control_c, 0, 64, 63
2,99749, Control_c, 0, 64, 64
2,99768, Control_c, 0, 64, 65
2,99806, Control_c, 0, 64, 65
2,99825, Control_c, 0, 64, 66
2,99845, Control_c, 0, 64, 67
2,99858, Note_on_c, 0, 68, 0
2,99863, Control_c, 0, 64, 69
2,99883, Control_c, 0, 64, 73
2,99886, Note_on_c, 0, 58, 80
2,99902, Control_c, 0, 64, 77
2,99921, Control_c, 0, 64, 84
2,99940, Control_c, 0, 64, 93
2,99960, Control_c, 0, 64, 109
2,99979, Control_c, 0, 64, 127
2,100110, Note_on_c, 0, 46, 0
2,100305, Control_c, 0, 64, 101
2,100325, Control_c, 0, 64, 73
2,100328, Note_on_c, 0, 66, 86
2,100338, Note_on_c, 0, 63, 80
2,100339, Note_on_c, 0, 45, 61
2,100343, Control_c, 0, 64, 51
2,100363, Control_c, 0, 64, 0
2,100367, Note_on_c, 0, 62, 0
2,100371, Note_on_c, 0, 58, 0
2,100811, Note_on_c, 0, 60, 79
2,101034, Control_c, 0, 64, 52
2,101053, Control_c, 0, 64, 61
2,101073, Control_c, 0, 64, 62
2,101130, Control_c, 0, 64, 62
2,101147, Note_on_c, 0, 63, 0
2,101149, Control_c, 0, 64, 63
2,101226, Control_c, 0, 64, 63
2,101245, Control_c, 0, 64, 62
2,101263, Note_on_c, 0, 66, 0
2,101264, Control_c, 0, 64, 62
2,101284, Control_c, 0, 64, 60
2,101302, Control_c, 0, 64, 54
2,101322, Control_c, 0, 64, 35
2,101328, Note_on_c, 0, 65, 77
2,101335, Note_on_c, 0, 63, 72
2,101337, Note_on_c, 0, 46, 66
2,101341, Control_c, 0, 64, 0
2,101344, Note_on_c, 0, 45, 0
2,101357, Note_on_c, 0, 53, 0
2,101358, Note_on_c, 0, 60, 0
2,101874, Note_on_c, 0, 53, 72
2,102109, Note_on_c, 0, 51, 71
2,102199, Note_on_c, 0, 53, 0
2,102494, Note_on_c, 0, 62, 76
2,102510, Note_on_c, 0, 53, 55
2,102514, Note_on_c, 0, 51, 0
2,102543, Note_on_c, 0, 63, 0
2,103328, Note_on_c, 0, 58, 59
2,103513, Control_c, 0, 64, 51
2,103533, Control_c, 0, 64, 62
2,103552, Control_c, 0, 64, 64
2,103571, Control_c, 0, 64, 64
2,103590, Control_c, 0, 64, 65
2,103610, Control_c, 0, 64, 66
2,103629, Control_c, 0, 64, 68
2,103648, Control_c, 0, 64, 70
2,103667, Control_c, 0, 64, 74
2,103687, Control_c, 0, 64, 78
2,103705, Control_c, 0, 64, 81
2,103725, Control_c, 0, 64, 84
2,103725, Control_c, 0, 67, 13
2,103744, Control_c, 0, 64, 87
2,103744, Control_c, 0, 67, 22
2,103764, Control_c, 0, 64, 90
2,103764, Control_c, 0, 67, 36
2,103782, Control_c, 0, 64, 94
2,103782, Control_c, 0, 67, 54
2,103800, Note_on_c, 0, 62, 0
2,103801, Control_c, 0, 64, 98
2,103801, Control_c, 0, 67, 78
2,103821, Control_c, 0, 64, 104
2,103821, Control_c, 0, 67, 104
2,103839, Control_c, 0, 64, 108
2,103839, Control_c, 0, 67, 127
2,103856, Note_on_c, 0, 53, 0
2,103859, Control_c, 0, 64, 115
2,103878, Control_c, 0, 64, 127
2,103891, Note_on_c, 0, 58, 0
2,104287, Note_on_c, 0, 46, 0
2,104628, Control_c, 0, 64, 104
2,104648, Control_c, 0, 64, 90
2,104651, Note_on_c, 0, 63, 48
2,104660, Note_on_c, 0, 39, 45
2,104666, Control_c, 0, 64, 77
2,104671, Note_on_c, 0, 55, 38
2,104671, Note_on_c, 0, 58, 38
2,104686, Control_c, 0, 64, 67
2,104705, Control_c, 0, 64, 61
2,104724, Control_c, 0, 64, 54
2,104743, Control_c, 0, 64, 46
2,104762, Control_c, 0, 64, 35
2,104782, Control_c, 0, 64, 11
2,104796, Note_on_c, 0, 65, 0
2,104800, Control_c, 0, 64, 0
2,108628, Note_on_c, 0, 55, 0
2,108644, Note_on_c, 0, 58, 0
2,108648, Note_on_c, 0, 63, 0
2,108661, Control_c, 0, 67, 125
2,108677, Note_on_c, 0, 39, 0
2,108680, Control_c, 0, 67, 119
2,108700, Control_c, 0, 67, 114
2,108718, Control_c, 0, 67, 110
2,108738, Control_c, 0, 67, 108
2,108757, Control_c, 0, 67, 107
2,108777, Control_c, 0, 67, 104
2,108795, Control_c, 0, 67, 99
2,108814, Control_c, 0, 67, 91
2,108834, Control_c, 0, 67, 82
2,108852, Control_c, 0, 67, 77
2,108872, Control_c, 0, 67, 76
2,108891, Control_c, 0, 67, 77
2,108911, Control_c, 0, 67, 77
2,108929, Control_c, 0, 67, 78
2,108968, Control_c, 0, 67, 78
2,108969, End_track
0, 0, End_of_file
