0, 0, Header, 1, 2, 480
1, 0, Start_track
1, 0, Tempo, 500000
1, 0, Time_signature, 4, 2, 24, 8
1, 1, End_track
2, 0, Start_track
2, 0, Program_c, 0, 0
2, 0, Control_c, 0, 64, 60
2, 17, Control_c, 0, 64, 60
2, 272, Control_c, 0, 64, 59
2, 310, Control_c, 0, 64, 59
2, 369, Control_c, 0, 64, 58
2, 387, Control_c, 0, 64, 58
2, 407, Control_c, 0, 64, 57
2, 426, Control_c, 0, 64, 56
2, 445, Control_c, 0, 64, 55
2, 464, Control_c, 0, 64, 55
2, 484, Control_c, 0, 64, 54
2, 503, Control_c, 0, 64, 54
2, 521, Control_c, 0, 64, 53
2, 541, Control_c, 0, 64, 52
2, 560, Control_c, 0, 64, 52
2, 579, Control_c, 0, 64, 51
2, 637, Control_c, 0, 64, 51
2, 656, Control_c, 0, 64, 50
2, 675, Control_c, 0, 64, 49
2, 695, Control_c, 0, 64, 47
2, 714, Control_c, 0, 64, 44
2, 733, Control_c, 0, 64, 42
2, 752, Control_c, 0, 64, 40
2, 772, Control_c, 0, 64, 37
2, 790, Control_c, 0, 64, 34
2, 810, Control_c, 0, 64, 29
2, 829, Control_c, 0, 64, 23
2, 849, Control_c, 0, 64, 15
2, 867, Control_c, 0, 64, 0
2, 946, Note_on_c, 0, 70, 58
2, 954, Note_on_c, 0, 67, 39
2, 1141, Note_on_c, 0, 63, 50
2, 1314, Note_on_c, 0, 62, 63
2, 1358, Note_on_c, 0, 63, 0
2, 1376, Note_on_c, 0, 62, 0
2, 1491, Note_on_c, 0, 63, 63
2, 1568, Note_on_c, 0, 63, 0
2, 1676, Note_on_c, 0, 58, 59
2, 1730, Note_on_c, 0, 58, 0
2, 1839, Note_on_c, 0, 70, 0
2, 1855, Note_on_c, 0, 55, 57
2, 1936, Note_on_c, 0, 55, 0
2, 1943, Note_on_c, 0, 67, 0
2, 2087, Note_on_c, 0, 51, 42
2, 2263, Note_on_c, 0, 67, 48
2, 2311, Note_on_c, 0, 51, 0
2, 2427, Note_on_c, 0, 75, 80
2, 2436, Note_on_c, 0, 67, 0
2, 2519, Note_on_c, 0, 75, 0
2, 2642, Note_on_c, 0, 75, 66
2, 2663, Note_on_c, 0, 65, 45
2, 2807, Note_on_c, 0, 75, 0
2, 2837, Note_on_c, 0, 58, 28
2, 2839, Note_on_c, 0, 74, 51
2, 3000, Note_on_c, 0, 57, 50
2, 3039, Note_on_c, 0, 58, 0
2, 3086, Note_on_c, 0, 57, 0
2, 3199, Note_on_c, 0, 58, 64
2, 3207, Note_on_c, 0, 74, 0
2, 3271, Note_on_c, 0, 58, 0
2, 3381, Note_on_c, 0, 53, 61
2, 3445, Note_on_c, 0, 53, 0
2, 3460, Note_on_c, 0, 65, 0
2, 3565, Note_on_c, 0, 50, 56
2, 3632, Note_on_c, 0, 50, 0
2, 3781, Note_on_c, 0, 46, 47
2, 3954, Note_on_c, 0, 46, 0
2, 3954, Note_on_c, 0, 65, 59
2, 4134, Note_on_c, 0, 67, 66
2, 4142, Note_on_c, 0, 65, 0
2, 4326, Note_on_c, 0, 67, 0
2, 4339, Note_on_c, 0, 68, 67
2, 4354, Note_on_c, 0, 53, 40
2, 4506, Note_on_c, 0, 68, 0
2, 4518, Note_on_c, 0, 60, 61
2, 4547, Note_on_c, 0, 53, 0
2, 4685, Note_on_c, 0, 60, 0
2, 4693, Note_on_c, 0, 63, 72
2, 4880, Note_on_c, 0, 63, 0
2, 4916, Note_on_c, 0, 62, 62
2, 4935, Note_on_c, 0, 58, 39
2, 5098, Note_on_c, 0, 65, 61
2, 5106, Note_on_c, 0, 62, 0
2, 5121, Note_on_c, 0, 58, 0
2, 5250, Note_on_c, 0, 65, 0
2, 5274, Note_on_c, 0, 70, 64
2, 5436, Note_on_c, 0, 70, 0
2, 5472, Note_on_c, 0, 50, 36
2, 5474, Note_on_c, 0, 58, 41
2, 5659, Note_on_c, 0, 65, 58
2, 5690, Note_on_c, 0, 50, 0
2, 5818, Note_on_c, 0, 65, 0
2, 5824, Note_on_c, 0, 68, 70
2, 5877, Note_on_c, 0, 68, 0
2, 5913, Note_on_c, 0, 58, 0
2, 6026, Note_on_c, 0, 68, 62
2, 6043, Note_on_c, 0, 58, 43
2, 6087, Note_on_c, 0, 63, 34
2, 6175, Note_on_c, 0, 68, 0
2, 6214, Note_on_c, 0, 51, 38
2, 6235, Note_on_c, 0, 67, 46
2, 6410, Note_on_c, 0, 50, 58
2, 6414, Note_on_c, 0, 51, 0
2, 6461, Note_on_c, 0, 50, 0
2, 6602, Note_on_c, 0, 51, 51
2, 6649, Note_on_c, 0, 67, 0
2, 6657, Note_on_c, 0, 51, 0
2, 6675, Note_on_c, 0, 63, 0
2, 6737, Note_on_c, 0, 58, 0
2, 6772, Note_on_c, 0, 46, 58
2, 6825, Note_on_c, 0, 46, 0
2, 6947, Note_on_c, 0, 43, 60
2, 7022, Note_on_c, 0, 43, 0
2, 7209, Note_on_c, 0, 39, 38
2, 7397, Note_on_c, 0, 51, 46
2, 7404, Note_on_c, 0, 39, 0
2, 7550, Note_on_c, 0, 51, 0
2, 7569, Note_on_c, 0, 50, 61
2, 7759, Note_on_c, 0, 51, 61
2, 7803, Note_on_c, 0, 50, 0
2, 7926, Note_on_c, 0, 51, 0
2, 7942, Note_on_c, 0, 55, 62
2, 8097, Note_on_c, 0, 55, 0
2, 8130, Note_on_c, 0, 53, 60
2, 8319, Note_on_c, 0, 55, 54
2, 8340, Note_on_c, 0, 53, 0
2, 8472, Note_on_c, 0, 55, 0
2, 8504, Note_on_c, 0, 58, 53
2, 8607, Note_on_c, 0, 39, 40
2, 8653, Note_on_c, 0, 58, 0
2, 8673, Note_on_c, 0, 56, 55
2, 8703, Note_on_c, 0, 39, 0
2, 8861, Note_on_c, 0, 56, 0
2, 8871, Note_on_c, 0, 58, 52
2, 8883, Note_on_c, 0, 39, 40
2, 8891, Note_on_c, 0, 51, 43
2, 8964, Control_c, 0, 64, 32
2, 8984, Control_c, 0, 64, 50
2, 9003, Control_c, 0, 64, 55
2, 9022, Control_c, 0, 64, 55
2, 9041, Control_c, 0, 64, 56
2, 9061, Control_c, 0, 64, 57
2, 9079, Control_c, 0, 64, 59
2, 9091, Note_on_c, 0, 61, 50
2, 9099, Control_c, 0, 64, 62
2, 9118, Control_c, 0, 64, 63
2, 9138, Control_c, 0, 64, 63
2, 9210, Note_on_c, 0, 58, 0
2, 9226, Note_on_c, 0, 61, 0
2, 9254, Note_on_c, 0, 55, 58
2, 9256, Note_on_c, 0, 49, 58
2, 9272, Control_c, 0, 64, 63
2, 9274, Note_on_c, 0, 39, 0
2, 9291, Control_c, 0, 64, 62
2, 9310, Control_c, 0, 64, 62
2, 9330, Control_c, 0, 64, 61
2, 9349, Control_c, 0, 64, 59
2, 9358, Note_on_c, 0, 51, 0
2, 9366, Note_on_c, 0, 49, 0
2, 9368, Control_c, 0, 64, 57
2, 9387, Control_c, 0, 64, 54
2, 9407, Control_c, 0, 64, 52
2, 9425, Control_c, 0, 64, 50
2, 9441, Note_on_c, 0, 39, 45
2, 9444, Control_c, 0, 64, 47
2, 9450, Note_on_c, 0, 48, 53
2, 9451, Note_on_c, 0, 56, 65
2, 9464, Control_c, 0, 64, 43
2, 9483, Control_c, 0, 64, 38
2, 9502, Control_c, 0, 64, 32
2, 9520, Note_on_c, 0, 55, 0
2, 9521, Control_c, 0, 64, 25
2, 9541, Control_c, 0, 64, 20
2, 9559, Control_c, 0, 64, 17
2, 9579, Control_c, 0, 64, 13
2, 9598, Control_c, 0, 64, 11
2, 9618, Control_c, 0, 64, 9
2, 9636, Control_c, 0, 64, 0
2, 9636, Note_on_c, 0, 60, 66
2, 9666, Note_on_c, 0, 56, 0
2, 9802, Note_on_c, 0, 48, 0
2, 9806, Note_on_c, 0, 60, 0
2, 9817, Note_on_c, 0, 58, 68
2, 9831, Note_on_c, 0, 51, 54
2, 10025, Note_on_c, 0, 60, 64
2, 10034, Note_on_c, 0, 44, 54
2, 10035, Note_on_c, 0, 39, 0
2, 10053, Note_on_c, 0, 51, 0
2, 10076, Note_on_c, 0, 58, 0
2, 10151, Note_on_c, 0, 60, 0
2, 10193, Note_on_c, 0, 63, 62
2, 10359, Note_on_c, 0, 44, 0
2, 10384, Note_on_c, 0, 63, 0
2, 10386, Note_on_c, 0, 46, 54
2, 10387, Note_on_c, 0, 61, 63
2, 10390, Note_on_c, 0, 39, 44
2, 10471, Note_on_c, 0, 39, 0
2, 10577, Control_c, 0, 64, 24
2, 10578, Note_on_c, 0, 46, 0
2, 10589, Note_on_c, 0, 61, 0
2, 10595, Control_c, 0, 64, 44
2, 10598, Note_on_c, 0, 63, 54
2, 10614, Note_on_c, 0, 48, 44
2, 10615, Control_c, 0, 64, 55
2, 10634, Control_c, 0, 64, 58
2, 10643, Note_on_c, 0, 39, 36
2, 10654, Control_c, 0, 64, 59
2, 10672, Control_c, 0, 64, 60
2, 10730, Control_c, 0, 64, 58
2, 10749, Control_c, 0, 64, 54
2, 10769, Control_c, 0, 64, 48
2, 10777, Note_on_c, 0, 68, 61
2, 10782, Note_on_c, 0, 39, 0
2, 10788, Control_c, 0, 64, 44
2, 10807, Control_c, 0, 64, 43
2, 10826, Control_c, 0, 64, 46
2, 10846, Control_c, 0, 64, 54
2, 10864, Control_c, 0, 64, 61
2, 10883, Control_c, 0, 64, 66
2, 10903, Control_c, 0, 64, 70
2, 10907, Note_on_c, 0, 63, 0
2, 10922, Control_c, 0, 64, 79
2, 10939, Note_on_c, 0, 68, 0
2, 10941, Control_c, 0, 64, 94
2, 10948, Note_on_c, 0, 60, 66
2, 10950, Note_on_c, 0, 44, 53
2, 10952, Note_on_c, 0, 48, 0
2, 10960, Control_c, 0, 64, 127
2, 10969, Note_on_c, 0, 39, 35
2, 10984, Note_on_c, 0, 44, 0
2, 11023, Note_on_c, 0, 39, 0
2, 11152, Control_c, 0, 64, 94
2, 11154, Note_on_c, 0, 53, 54
2, 11171, Note_on_c, 0, 62, 69
2, 11172, Control_c, 0, 64, 78
2, 11176, Note_on_c, 0, 51, 50
2, 11191, Control_c, 0, 64, 68
2, 11210, Control_c, 0, 64, 61
2, 11229, Control_c, 0, 64, 52
2, 11241, Note_on_c, 0, 60, 0
2, 11249, Control_c, 0, 64, 45
2, 11268, Control_c, 0, 64, 40
2, 11287, Control_c, 0, 64, 36
2, 11306, Control_c, 0, 64, 31
2, 11325, Control_c, 0, 64, 19
2, 11344, Control_c, 0, 64, 0
2, 11353, Note_on_c, 0, 65, 69
2, 11389, Note_on_c, 0, 62, 0
2, 11488, Note_on_c, 0, 51, 0
2, 11515, Note_on_c, 0, 53, 0
2, 11515, Note_on_c, 0, 56, 57
2, 11524, Note_on_c, 0, 63, 72
2, 11544, Note_on_c, 0, 65, 0
2, 11711, Note_on_c, 0, 50, 56
2, 11721, Note_on_c, 0, 56, 0
2, 11741, Note_on_c, 0, 65, 66
2, 11743, Note_on_c, 0, 63, 0
2, 11884, Note_on_c, 0, 65, 0
2, 11910, Note_on_c, 0, 68, 65
2, 12069, Note_on_c, 0, 50, 0
2, 12072, Note_on_c, 0, 68, 0
2, 12087, Note_on_c, 0, 51, 48
2, 12104, Note_on_c, 0, 67, 65
2, 12270, Note_on_c, 0, 67, 0
2, 12273, Note_on_c, 0, 51, 0
2, 12320, Note_on_c, 0, 68, 62
2, 12334, Note_on_c, 0, 53, 49
2, 12349, Control_c, 0, 64, 46
2, 12367, Control_c, 0, 64, 60
2, 12387, Control_c, 0, 64, 63
2, 12406, Control_c, 0, 64, 64
2, 12426, Control_c, 0, 64, 64
2, 12444, Control_c, 0, 64, 65
2, 12464, Control_c, 0, 64, 67
2, 12480, Control_c, 0, 64, 69
2, 12489, Note_on_c, 0, 68, 0
2, 12500, Control_c, 0, 64, 72
2, 12503, Note_on_c, 0, 53, 0
2, 12510, Note_on_c, 0, 77, 60
2, 12518, Control_c, 0, 64, 75
2, 12538, Control_c, 0, 64, 78
2, 12557, Control_c, 0, 64, 79
2, 12634, Control_c, 0, 64, 79
2, 12652, Control_c, 0, 64, 78
2, 12672, Control_c, 0, 64, 76
2, 12683, Note_on_c, 0, 46, 58
2, 12683, Note_on_c, 0, 50, 55
2, 12685, Note_on_c, 0, 77, 0
2, 12687, Note_on_c, 0, 68, 64
2, 12691, Control_c, 0, 64, 71
2, 12703, Note_on_c, 0, 39, 46
2, 12711, Control_c, 0, 64, 65
2, 12727, Note_on_c, 0, 50, 0
2, 12729, Control_c, 0, 64, 58
2, 12744, Note_on_c, 0, 39, 0
2, 12749, Control_c, 0, 64, 49
2, 12761, Note_on_c, 0, 46, 0
2, 12768, Control_c, 0, 64, 44
2, 12787, Control_c, 0, 64, 47
2, 12806, Control_c, 0, 64, 53
2, 12826, Control_c, 0, 64, 59
2, 12845, Control_c, 0, 64, 59
2, 12858, Note_on_c, 0, 68, 0
2, 12864, Control_c, 0, 64, 54
2, 12864, Note_on_c, 0, 39, 59
2, 12870, Note_on_c, 0, 67, 65
2, 12879, Note_on_c, 0, 51, 56
2, 12883, Control_c, 0, 64, 22
2, 12899, Note_on_c, 0, 46, 49
2, 12903, Control_c, 0, 64, 0
2, 12993, Note_on_c, 0, 39, 0
2, 13002, Note_on_c, 0, 46, 0
2, 13055, Note_on_c, 0, 70, 75
2, 13064, Note_on_c, 0, 67, 0
2, 13168, Note_on_c, 0, 51, 0
2, 13228, Note_on_c, 0, 53, 65
2, 13239, Note_on_c, 0, 68, 75
2, 13255, Note_on_c, 0, 70, 0
2, 13402, Note_on_c, 0, 53, 0
2, 13414, Note_on_c, 0, 55, 67
2, 13428, Note_on_c, 0, 70, 73
2, 13455, Note_on_c, 0, 68, 0
2, 13587, Note_on_c, 0, 70, 0
2, 13605, Note_on_c, 0, 75, 70
2, 13737, Note_on_c, 0, 55, 0
2, 13743, Note_on_c, 0, 75, 0
2, 13786, Note_on_c, 0, 74, 73
2, 13794, Note_on_c, 0, 58, 62
2, 13975, Note_on_c, 0, 58, 0
2, 13977, Note_on_c, 0, 75, 81
2, 13980, Note_on_c, 0, 55, 57
2, 13997, Note_on_c, 0, 74, 0
2, 14149, Note_on_c, 0, 79, 82
2, 14251, Note_on_c, 0, 75, 0
2, 14335, Note_on_c, 0, 77, 81
2, 14336, Note_on_c, 0, 50, 53
2, 14382, Note_on_c, 0, 79, 0
2, 14406, Note_on_c, 0, 55, 0
2, 14522, Note_on_c, 0, 50, 0
2, 14534, Note_on_c, 0, 51, 57
2, 14541, Note_on_c, 0, 79, 79
2, 14581, Note_on_c, 0, 77, 0
2, 14712, Note_on_c, 0, 75, 83
2, 14756, Note_on_c, 0, 79, 0
2, 14884, Note_on_c, 0, 51, 0
2, 14892, Note_on_c, 0, 74, 75
2, 14912, Note_on_c, 0, 55, 55
2, 14928, Note_on_c, 0, 75, 0
2, 15073, Note_on_c, 0, 55, 0
2, 15088, Note_on_c, 0, 74, 0
2, 15101, Note_on_c, 0, 75, 67
2, 15134, Note_on_c, 0, 48, 35
2, 15290, Note_on_c, 0, 72, 73
2, 15454, Note_on_c, 0, 70, 79
2, 15463, Note_on_c, 0, 48, 0
2, 15464, Note_on_c, 0, 50, 54
2, 15474, Note_on_c, 0, 72, 0
2, 15596, Note_on_c, 0, 50, 0
2, 15631, Note_on_c, 0, 51, 63
2, 15661, Note_on_c, 0, 70, 0
2, 15665, Note_on_c, 0, 72, 79
2, 15734, Note_on_c, 0, 51, 0
2, 15740, Note_on_c, 0, 50, 64
2, 15789, Note_on_c, 0, 50, 0
2, 15800, Note_on_c, 0, 48, 62
2, 15845, Note_on_c, 0, 69, 77
2, 15872, Note_on_c, 0, 50, 63
2, 15906, Note_on_c, 0, 48, 0
2, 15945, Note_on_c, 0, 69, 0
2, 15958, Note_on_c, 0, 50, 0
2, 15976, Note_on_c, 0, 51, 67
2, 15976, Note_on_c, 0, 67, 66
2, 16019, Note_on_c, 0, 51, 0
2, 16029, Note_on_c, 0, 67, 0
2, 16183, Note_on_c, 0, 41, 67
2, 16192, Note_on_c, 0, 69, 86
2, 16221, Note_on_c, 0, 41, 0
2, 16406, Note_on_c, 0, 65, 67
2, 16577, Note_on_c, 0, 63, 76
2, 16599, Note_on_c, 0, 65, 0
2, 16694, Note_on_c, 0, 63, 0
2, 16766, Note_on_c, 0, 65, 69
2, 16814, Note_on_c, 0, 65, 0
2, 16947, Note_on_c, 0, 60, 66
2, 16981, Note_on_c, 0, 60, 0
2, 17132, Note_on_c, 0, 57, 69
2, 17164, Note_on_c, 0, 75, 0
2, 17169, Note_on_c, 0, 72, 0
2, 17179, Note_on_c, 0, 57, 0
2, 17191, Note_on_c, 0, 69, 0
2, 17362, Note_on_c, 0, 53, 56
2, 17532, Note_on_c, 0, 69, 57
2, 17553, Note_on_c, 0, 53, 0
2, 17667, Note_on_c, 0, 69, 0
2, 17729, Note_on_c, 0, 75, 59
2, 17931, Note_on_c, 0, 75, 0
2, 17965, Note_on_c, 0, 74, 49
2, 17989, Note_on_c, 0, 58, 30
2, 18127, Note_on_c, 0, 58, 0
2, 18162, Note_on_c, 0, 74, 0
2, 18166, Note_on_c, 0, 70, 62
2, 18294, Note_on_c, 0, 70, 0
2, 18338, Note_on_c, 0, 65, 58
2, 18539, Note_on_c, 0, 65, 0
2, 18542, Note_on_c, 0, 51, 48
2, 18557, Note_on_c, 0, 67, 54
2, 18666, Note_on_c, 0, 51, 0
2, 18737, Note_on_c, 0, 67, 0
2, 18738, Note_on_c, 0, 63, 69
2, 18887, Note_on_c, 0, 62, 69
2, 18895, Note_on_c, 0, 63, 0
2, 19026, Note_on_c, 0, 62, 0
2, 19090, Note_on_c, 0, 53, 47
2, 19091, Note_on_c, 0, 60, 56
2, 19267, Note_on_c, 0, 70, 67
2, 19325, Note_on_c, 0, 53, 0
2, 19353, Note_on_c, 0, 60, 0
2, 19412, Note_on_c, 0, 70, 0
2, 19444, Note_on_c, 0, 69, 71
2, 19600, Note_on_c, 0, 69, 0
2, 19654, Note_on_c, 0, 62, 53
2, 19655, Note_on_c, 0, 70, 56
2, 19840, Note_on_c, 0, 58, 58
2, 20001, Note_on_c, 0, 58, 0
2, 20016, Note_on_c, 0, 57, 61
2, 20067, Note_on_c, 0, 57, 0
2, 20214, Note_on_c, 0, 58, 53
2, 20257, Note_on_c, 0, 70, 0
2, 20259, Note_on_c, 0, 58, 0
2, 20334, Note_on_c, 0, 62, 0
2, 20402, Note_on_c, 0, 53, 51
2, 20452, Note_on_c, 0, 53, 0
2, 20588, Note_on_c, 0, 50, 48
2, 20692, Note_on_c, 0, 50, 0
2, 20828, Note_on_c, 0, 46, 42
2, 21026, Note_on_c, 0, 58, 46
2, 21177, Note_on_c, 0, 46, 0
2, 21181, Note_on_c, 0, 58, 0
2, 21207, Note_on_c, 0, 57, 52
2, 21408, Note_on_c, 0, 57, 0
2, 21415, Note_on_c, 0, 58, 50
2, 21608, Note_on_c, 0, 58, 0
2, 21611, Note_on_c, 0, 46, 41
2, 21617, Note_on_c, 0, 62, 54
2, 21751, Note_on_c, 0, 62, 0
2, 21781, Note_on_c, 0, 46, 0
2, 21786, Note_on_c, 0, 45, 41
2, 21788, Note_on_c, 0, 60, 57
2, 21946, Note_on_c, 0, 45, 0
2, 21977, Note_on_c, 0, 46, 47
2, 21999, Note_on_c, 0, 62, 50
2, 22000, Note_on_c, 0, 60, 0
2, 22158, Note_on_c, 0, 50, 53
2, 22170, Note_on_c, 0, 65, 56
2, 22179, Note_on_c, 0, 62, 0
2, 22188, Control_c, 0, 64, 27
2, 22208, Control_c, 0, 64, 44
2, 22215, Note_on_c, 0, 46, 0
2, 22227, Control_c, 0, 64, 52
2, 22247, Control_c, 0, 64, 55
2, 22253, Note_on_c, 0, 50, 0
2, 22265, Control_c, 0, 64, 56
2, 22323, Control_c, 0, 64, 57
2, 22324, Note_on_c, 0, 65, 0
2, 22337, Note_on_c, 0, 48, 55
2, 22346, Note_on_c, 0, 63, 61
2, 22373, Note_on_c, 0, 46, 37
2, 22381, Control_c, 0, 64, 56
2, 22400, Control_c, 0, 64, 54
2, 22419, Control_c, 0, 64, 51
2, 22439, Control_c, 0, 64, 44
2, 22457, Control_c, 0, 64, 32
2, 22471, Note_on_c, 0, 48, 0
2, 22477, Control_c, 0, 64, 9
2, 22492, Note_on_c, 0, 46, 0
2, 22496, Control_c, 0, 64, 0
2, 22524, Note_on_c, 0, 46, 22
2, 22526, Note_on_c, 0, 50, 57
2, 22535, Note_on_c, 0, 63, 0
2, 22541, Note_on_c, 0, 65, 50
2, 22611, Control_c, 0, 64, 39
2, 22630, Control_c, 0, 64, 58
2, 22650, Control_c, 0, 64, 62
2, 22668, Control_c, 0, 64, 63
2, 22670, Note_on_c, 0, 50, 0
2, 22724, Note_on_c, 0, 65, 0
2, 22727, Note_on_c, 0, 68, 62
2, 22734, Note_on_c, 0, 53, 48
2, 22781, Note_on_c, 0, 46, 0
2, 22834, Note_on_c, 0, 53, 0
2, 22879, Note_on_c, 0, 68, 0
2, 22880, Control_c, 0, 64, 62
2, 22899, Control_c, 0, 64, 60
2, 22902, Note_on_c, 0, 62, 58
2, 22909, Note_on_c, 0, 56, 55
2, 22915, Note_on_c, 0, 46, 55
2, 22919, Control_c, 0, 64, 52
2, 22937, Control_c, 0, 64, 36
2, 22957, Control_c, 0, 64, 0
2, 22997, Note_on_c, 0, 46, 0
2, 23009, Note_on_c, 0, 56, 0
2, 23014, Control_c, 0, 64, 9
2, 23034, Control_c, 0, 64, 47
2, 23054, Control_c, 0, 64, 59
2, 23056, Note_on_c, 0, 62, 0
2, 23072, Control_c, 0, 64, 62
2, 23092, Control_c, 0, 64, 62
2, 23105, Note_on_c, 0, 63, 65
2, 23109, Note_on_c, 0, 46, 59
2, 23119, Note_on_c, 0, 55, 51
2, 23131, Control_c, 0, 64, 63
2, 23188, Control_c, 0, 64, 62
2, 23190, Note_on_c, 0, 55, 0
2, 23226, Control_c, 0, 64, 62
2, 23243, Note_on_c, 0, 46, 0
2, 23295, Note_on_c, 0, 67, 55
2, 23309, Note_on_c, 0, 63, 0
2, 23310, Note_on_c, 0, 58, 61
2, 23323, Control_c, 0, 64, 61
2, 23361, Control_c, 0, 64, 61
2, 23380, Control_c, 0, 64, 60
2, 23400, Control_c, 0, 64, 59
2, 23418, Control_c, 0, 64, 58
2, 23425, Note_on_c, 0, 67, 0
2, 23438, Control_c, 0, 64, 56
2, 23457, Control_c, 0, 64, 55
2, 23476, Control_c, 0, 64, 54
2, 23478, Note_on_c, 0, 65, 63
2, 23484, Note_on_c, 0, 56, 63
2, 23490, Note_on_c, 0, 58, 0
2, 23495, Control_c, 0, 64, 53
2, 23514, Control_c, 0, 64, 52
2, 23534, Control_c, 0, 64, 48
2, 23552, Control_c, 0, 64, 43
2, 23572, Control_c, 0, 64, 39
2, 23591, Control_c, 0, 64, 38
2, 23611, Control_c, 0, 64, 36
2, 23629, Control_c, 0, 64, 33
2, 23649, Control_c, 0, 64, 28
2, 23654, Note_on_c, 0, 56, 0
2, 23667, Note_on_c, 0, 67, 68
2, 23668, Control_c, 0, 64, 26
2, 23680, Note_on_c, 0, 58, 58
2, 23687, Control_c, 0, 64, 25
2, 23725, Note_on_c, 0, 65, 0
2, 23745, Control_c, 0, 64, 23
2, 23764, Control_c, 0, 64, 19
2, 23783, Control_c, 0, 64, 11
2, 23803, Control_c, 0, 64, 0
2, 23829, Note_on_c, 0, 67, 0
2, 23842, Note_on_c, 0, 70, 75
2, 23852, Note_on_c, 0, 55, 66
2, 23898, Note_on_c, 0, 58, 0
2, 24015, Note_on_c, 0, 70, 0
2, 24028, Note_on_c, 0, 68, 74
2, 24043, Note_on_c, 0, 53, 59
2, 24053, Note_on_c, 0, 46, 56
2, 24102, Note_on_c, 0, 55, 0
2, 24106, Note_on_c, 0, 46, 0
2, 24191, Note_on_c, 0, 53, 0
2, 24220, Note_on_c, 0, 46, 65
2, 24221, Note_on_c, 0, 68, 0
2, 24223, Note_on_c, 0, 55, 64
2, 24226, Note_on_c, 0, 70, 76
2, 24264, Control_c, 0, 64, 32
2, 24284, Control_c, 0, 64, 55
2, 24302, Control_c, 0, 64, 62
2, 24322, Control_c, 0, 64, 64
2, 24341, Control_c, 0, 64, 65
2, 24361, Control_c, 0, 64, 68
2, 24379, Control_c, 0, 64, 73
2, 24399, Control_c, 0, 64, 81
2, 24399, Note_on_c, 0, 75, 73
2, 24402, Note_on_c, 0, 55, 0
2, 24411, Note_on_c, 0, 46, 0
2, 24418, Control_c, 0, 64, 92
2, 24421, Note_on_c, 0, 58, 50
2, 24436, Control_c, 0, 64, 108
2, 24454, Note_on_c, 0, 58, 0
2, 24456, Control_c, 0, 64, 127
2, 24531, Note_on_c, 0, 70, 0
2, 24581, Note_on_c, 0, 75, 0
2, 24600, Note_on_c, 0, 67, 64
2, 24622, Note_on_c, 0, 63, 57
2, 24648, Control_c, 0, 64, 111
2, 24667, Control_c, 0, 64, 99
2, 24687, Control_c, 0, 64, 89
2, 24706, Control_c, 0, 64, 81
2, 24725, Control_c, 0, 64, 76
2, 24744, Control_c, 0, 64, 72
2, 24764, Control_c, 0, 64, 69
2, 24782, Control_c, 0, 64, 67
2, 24802, Control_c, 0, 64, 65
2, 24808, Note_on_c, 0, 58, 48
2, 24821, Control_c, 0, 64, 63
2, 24822, Note_on_c, 0, 69, 70
2, 24825, Note_on_c, 0, 63, 0
2, 24831, Note_on_c, 0, 60, 43
2, 24841, Control_c, 0, 64, 61
2, 24861, Control_c, 0, 64, 59
2, 24881, Control_c, 0, 64, 56
2, 24897, Note_on_c, 0, 67, 0
2, 24900, Control_c, 0, 64, 53
2, 24919, Control_c, 0, 64, 50
2, 24938, Control_c, 0, 64, 45
2, 24955, Control_c, 0, 64, 38
2, 24975, Control_c, 0, 64, 27
2, 24988, Note_on_c, 0, 72, 73
2, 24991, Note_on_c, 0, 63, 57
2, 24993, Control_c, 0, 64, 0
2, 25043, Note_on_c, 0, 69, 0
2, 25118, Note_on_c, 0, 60, 0
2, 25161, Note_on_c, 0, 70, 77
2, 25166, Note_on_c, 0, 62, 61
2, 25173, Note_on_c, 0, 58, 0
2, 25185, Note_on_c, 0, 63, 0
2, 25213, Note_on_c, 0, 72, 0
2, 25358, Note_on_c, 0, 72, 77
2, 25364, Note_on_c, 0, 63, 61
2, 25368, Note_on_c, 0, 62, 0
2, 25398, Note_on_c, 0, 70, 0
2, 25536, Note_on_c, 0, 72, 0
2, 25544, Note_on_c, 0, 60, 61
2, 25546, Note_on_c, 0, 75, 75
2, 25560, Note_on_c, 0, 63, 0
2, 25715, Note_on_c, 0, 75, 0
2, 25722, Note_on_c, 0, 58, 62
2, 25729, Note_on_c, 0, 60, 0
2, 25730, Note_on_c, 0, 74, 75
2, 25916, Note_on_c, 0, 58, 0
2, 25918, Note_on_c, 0, 74, 0
2, 25920, Note_on_c, 0, 75, 82
2, 25924, Note_on_c, 0, 60, 62
2, 25974, Control_c, 0, 64, 32
2, 25993, Control_c, 0, 64, 56
2, 26013, Control_c, 0, 64, 63
2, 26031, Control_c, 0, 64, 64
2, 26051, Control_c, 0, 64, 65
2, 26070, Control_c, 0, 64, 66
2, 26083, Note_on_c, 0, 60, 0
2, 26084, Note_on_c, 0, 58, 59
2, 26090, Control_c, 0, 64, 68
2, 26098, Note_on_c, 0, 84, 79
2, 26105, Note_on_c, 0, 75, 0
2, 26108, Control_c, 0, 64, 72
2, 26119, Note_on_c, 0, 58, 0
2, 26127, Control_c, 0, 64, 78
2, 26147, Control_c, 0, 64, 84
2, 26165, Control_c, 0, 64, 88
2, 26185, Control_c, 0, 64, 90
2, 26242, Control_c, 0, 64, 87
2, 26262, Control_c, 0, 64, 76
2, 26274, Note_on_c, 0, 57, 67
2, 26281, Control_c, 0, 64, 63
2, 26282, Note_on_c, 0, 75, 82
2, 26283, Note_on_c, 0, 53, 60
2, 26285, Note_on_c, 0, 84, 0
2, 26292, Note_on_c, 0, 46, 53
2, 26300, Control_c, 0, 64, 22
2, 26319, Control_c, 0, 64, 0
2, 26339, Control_c, 0, 64, 24
2, 26344, Note_on_c, 0, 46, 0
2, 26351, Note_on_c, 0, 57, 0
2, 26358, Control_c, 0, 64, 56
2, 26377, Control_c, 0, 64, 65
2, 26389, Note_on_c, 0, 53, 0
2, 26396, Control_c, 0, 64, 70
2, 26416, Control_c, 0, 64, 77
2, 26434, Control_c, 0, 64, 83
2, 26454, Control_c, 0, 64, 85
2, 26464, Note_on_c, 0, 75, 0
2, 26467, Note_on_c, 0, 74, 76
2, 26473, Note_on_c, 0, 46, 66
2, 26475, Note_on_c, 0, 53, 62
2, 26487, Note_on_c, 0, 58, 65
2, 26524, Note_on_c, 0, 53, 0
2, 26531, Note_on_c, 0, 46, 0
2, 26540, Note_on_c, 0, 58, 0
2, 26570, Control_c, 0, 64, 85
2, 26627, Control_c, 0, 64, 85
2, 26634, Note_on_c, 0, 74, 0
2, 26645, Control_c, 0, 64, 82
2, 26660, Note_on_c, 0, 70, 82
2, 26665, Control_c, 0, 64, 74
2, 26672, Note_on_c, 0, 62, 66
2, 26684, Control_c, 0, 64, 66
2, 26704, Control_c, 0, 64, 57
2, 26722, Control_c, 0, 64, 47
2, 26742, Control_c, 0, 64, 34
2, 26761, Control_c, 0, 64, 17
2, 26781, Control_c, 0, 64, 0
2, 26799, Note_on_c, 0, 70, 0
2, 26836, Note_on_c, 0, 69, 73
2, 26843, Note_on_c, 0, 60, 61
2, 26846, Note_on_c, 0, 62, 0
2, 27006, Note_on_c, 0, 60, 0
2, 27022, Note_on_c, 0, 62, 56
2, 27023, Note_on_c, 0, 70, 80
2, 27079, Note_on_c, 0, 69, 0
2, 27196, Note_on_c, 0, 74, 74
2, 27208, Note_on_c, 0, 70, 0
2, 27211, Note_on_c, 0, 65, 58
2, 27330, Note_on_c, 0, 65, 0
2, 27355, Note_on_c, 0, 62, 0
2, 27368, Note_on_c, 0, 72, 79
2, 27376, Note_on_c, 0, 63, 67
2, 27406, Note_on_c, 0, 74, 0
2, 27547, Note_on_c, 0, 63, 0
2, 27563, Note_on_c, 0, 74, 76
2, 27574, Note_on_c, 0, 65, 65
2, 27605, Note_on_c, 0, 72, 0
2, 27744, Note_on_c, 0, 77, 77
2, 27746, Note_on_c, 0, 68, 73
2, 27751, Note_on_c, 0, 65, 0
2, 27811, Note_on_c, 0, 74, 0
2, 27892, Note_on_c, 0, 68, 0
2, 27917, Note_on_c, 0, 75, 82
2, 27922, Note_on_c, 0, 67, 62
2, 27984, Note_on_c, 0, 77, 0
2, 28072, Note_on_c, 0, 67, 0
2, 28146, Note_on_c, 0, 75, 0
2, 28148, Note_on_c, 0, 77, 77
2, 28156, Note_on_c, 0, 74, 73
2, 28168, Note_on_c, 0, 68, 65
2, 28347, Note_on_c, 0, 58, 69
2, 28522, Note_on_c, 0, 57, 76
2, 28552, Note_on_c, 0, 58, 0
2, 28576, Note_on_c, 0, 57, 0
2, 28716, Note_on_c, 0, 58, 74
2, 28726, Note_on_c, 0, 77, 0
2, 28739, Note_on_c, 0, 74, 0
2, 28779, Note_on_c, 0, 58, 0
2, 28790, Note_on_c, 0, 68, 0
2, 28897, Note_on_c, 0, 53, 66
2, 28949, Note_on_c, 0, 53, 0
2, 29076, Note_on_c, 0, 50, 62
2, 29142, Note_on_c, 0, 50, 0
2, 29293, Note_on_c, 0, 46, 48
2, 29505, Note_on_c, 0, 46, 0
2, 29510, Note_on_c, 0, 63, 50
2, 29515, Note_on_c, 0, 67, 46
2, 29673, Note_on_c, 0, 67, 0
2, 29674, Note_on_c, 0, 62, 49
2, 29730, Note_on_c, 0, 65, 49
2, 29764, Note_on_c, 0, 63, 0
2, 29824, Note_on_c, 0, 62, 0
2, 29905, Note_on_c, 0, 65, 0
2, 29921, Note_on_c, 0, 67, 45
2, 29932, Note_on_c, 0, 63, 42
2, 30067, Note_on_c, 0, 58, 40
2, 30269, Note_on_c, 0, 57, 57
2, 30274, Note_on_c, 0, 58, 0
2, 30322, Note_on_c, 0, 57, 0
2, 30455, Note_on_c, 0, 58, 62
2, 30516, Note_on_c, 0, 58, 0
2, 30550, Note_on_c, 0, 63, 0
2, 30592, Note_on_c, 0, 67, 0
2, 30636, Note_on_c, 0, 55, 57
2, 30695, Note_on_c, 0, 55, 0
2, 30829, Note_on_c, 0, 51, 52
2, 30881, Note_on_c, 0, 51, 0
2, 31041, Note_on_c, 0, 46, 44
2, 31061, Control_c, 0, 64, 35
2, 31080, Control_c, 0, 64, 55
2, 31100, Control_c, 0, 64, 60
2, 31118, Control_c, 0, 64, 62
2, 31138, Control_c, 0, 64, 63
2, 31157, Control_c, 0, 64, 64
2, 31176, Control_c, 0, 64, 65
2, 31195, Control_c, 0, 64, 66
2, 31215, Control_c, 0, 64, 67
2, 31220, Note_on_c, 0, 65, 55
2, 31228, Note_on_c, 0, 74, 49
2, 31234, Control_c, 0, 64, 68
2, 31267, Note_on_c, 0, 65, 0
2, 31330, Control_c, 0, 64, 68
2, 31348, Note_on_c, 0, 74, 0
2, 31368, Control_c, 0, 64, 67
2, 31393, Note_on_c, 0, 75, 76
2, 31406, Control_c, 0, 64, 67
2, 31407, Note_on_c, 0, 67, 62
2, 31426, Control_c, 0, 64, 66
2, 31444, Control_c, 0, 64, 66
2, 31452, Note_on_c, 0, 67, 0
2, 31464, Control_c, 0, 64, 65
2, 31483, Control_c, 0, 64, 65
2, 31521, Control_c, 0, 64, 64
2, 31525, Note_on_c, 0, 46, 0
2, 31541, Control_c, 0, 64, 64
2, 31560, Control_c, 0, 64, 63
2, 31580, Control_c, 0, 64, 62
2, 31599, Control_c, 0, 64, 61
2, 31603, Note_on_c, 0, 77, 69
2, 31616, Note_on_c, 0, 75, 0
2, 31619, Control_c, 0, 64, 60
2, 31628, Note_on_c, 0, 68, 54
2, 31638, Control_c, 0, 64, 59
2, 31657, Control_c, 0, 64, 57
2, 31675, Control_c, 0, 64, 55
2, 31698, Control_c, 0, 64, 52
2, 31717, Control_c, 0, 64, 49
2, 31736, Control_c, 0, 64, 45
2, 31756, Control_c, 0, 64, 36
2, 31775, Control_c, 0, 64, 25
2, 31790, Note_on_c, 0, 46, 43
2, 31794, Control_c, 0, 64, 0
2, 31973, Note_on_c, 0, 45, 51
2, 31985, Note_on_c, 0, 46, 0
2, 32163, Note_on_c, 0, 45, 0
2, 32167, Note_on_c, 0, 46, 63
2, 32276, Note_on_c, 0, 68, 0
2, 32332, Note_on_c, 0, 77, 0
2, 32353, Note_on_c, 0, 50, 73
2, 32370, Note_on_c, 0, 46, 0
2, 32528, Note_on_c, 0, 77, 76
2, 32545, Note_on_c, 0, 48, 66
2, 32547, Note_on_c, 0, 68, 70
2, 32554, Note_on_c, 0, 50, 0
2, 32623, Note_on_c, 0, 68, 0
2, 32715, Note_on_c, 0, 48, 0
2, 32725, Note_on_c, 0, 71, 76
2, 32737, Note_on_c, 0, 68, 78
2, 32737, Note_on_c, 0, 77, 0
2, 32738, Note_on_c, 0, 50, 70
2, 32755, Control_c, 0, 64, 58
2, 32774, Control_c, 0, 64, 65
2, 32794, Control_c, 0, 64, 68
2, 32812, Control_c, 0, 64, 71
2, 32829, Note_on_c, 0, 71, 0
2, 32832, Control_c, 0, 64, 75
2, 32851, Control_c, 0, 64, 78
2, 32871, Control_c, 0, 64, 80
2, 32874, Note_on_c, 0, 68, 0
2, 32889, Control_c, 0, 64, 81
2, 32889, Note_on_c, 0, 50, 0
2, 32909, Control_c, 0, 64, 82
2, 32923, Note_on_c, 0, 53, 74
2, 32948, Control_c, 0, 64, 82
2, 32986, Control_c, 0, 64, 82
2, 33005, Control_c, 0, 64, 81
2, 33024, Control_c, 0, 64, 80
2, 33043, Control_c, 0, 64, 78
2, 33063, Control_c, 0, 64, 76
2, 33082, Control_c, 0, 64, 72
2, 33100, Control_c, 0, 64, 69
2, 33102, Note_on_c, 0, 72, 81
2, 33110, Note_on_c, 0, 51, 67
2, 33116, Note_on_c, 0, 65, 66
2, 33120, Control_c, 0, 64, 65
2, 33127, Note_on_c, 0, 68, 52
2, 33139, Control_c, 0, 64, 63
2, 33143, Note_on_c, 0, 53, 0
2, 33157, Note_on_c, 0, 68, 0
2, 33158, Control_c, 0, 64, 61
2, 33177, Control_c, 0, 64, 59
2, 33190, Note_on_c, 0, 65, 0
2, 33197, Control_c, 0, 64, 57
2, 33216, Control_c, 0, 64, 53
2, 33235, Control_c, 0, 64, 47
2, 33254, Control_c, 0, 64, 35
2, 33274, Control_c, 0, 64, 0
2, 33285, Note_on_c, 0, 51, 0
2, 33294, Note_on_c, 0, 71, 80
2, 33299, Note_on_c, 0, 53, 65
2, 33310, Note_on_c, 0, 68, 63
2, 33320, Note_on_c, 0, 62, 63
2, 33326, Note_on_c, 0, 72, 0
2, 33487, Note_on_c, 0, 56, 76
2, 33504, Note_on_c, 0, 53, 0
2, 33551, Note_on_c, 0, 71, 0
2, 33604, Note_on_c, 0, 68, 0
2, 33609, Note_on_c, 0, 62, 0
2, 33661, Note_on_c, 0, 56, 0
2, 33665, Note_on_c, 0, 55, 72
2, 33801, Note_on_c, 0, 55, 0
2, 33892, Note_on_c, 0, 56, 55
2, 34036, Note_on_c, 0, 56, 0
2, 34061, Note_on_c, 0, 59, 55
2, 34232, Note_on_c, 0, 62, 61
2, 34253, Note_on_c, 0, 59, 0
2, 34414, Note_on_c, 0, 62, 0
2, 34434, Note_on_c, 0, 65, 63
2, 34444, Note_on_c, 0, 47, 51
2, 34564, Note_on_c, 0, 47, 0
2, 34624, Note_on_c, 0, 63, 72
2, 34647, Note_on_c, 0, 65, 0
2, 34777, Note_on_c, 0, 62, 77
2, 34810, Note_on_c, 0, 63, 0
2, 34860, Note_on_c, 0, 62, 0
2, 34978, Note_on_c, 0, 63, 62
2, 34987, Note_on_c, 0, 48, 59
2, 35108, Note_on_c, 0, 48, 0
2, 35155, Note_on_c, 0, 67, 68
2, 35187, Note_on_c, 0, 63, 0
2, 35324, Note_on_c, 0, 67, 0
2, 35324, Note_on_c, 0, 72, 73
2, 35457, Note_on_c, 0, 72, 0
2, 35533, Note_on_c, 0, 60, 52
2, 35535, Note_on_c, 0, 75, 57
2, 35653, Note_on_c, 0, 60, 0
2, 35735, Note_on_c, 0, 74, 55
2, 35777, Note_on_c, 0, 75, 0
2, 35894, Note_on_c, 0, 72, 56
2, 35914, Note_on_c, 0, 74, 0
2, 36068, Note_on_c, 0, 72, 0
2, 36122, Note_on_c, 0, 58, 51
2, 36254, Note_on_c, 0, 58, 0
2, 36291, Note_on_c, 0, 63, 66
2, 36455, Note_on_c, 0, 72, 73
2, 36492, Note_on_c, 0, 63, 0
2, 36593, Note_on_c, 0, 72, 0
2, 36657, Note_on_c, 0, 65, 70
2, 36662, Note_on_c, 0, 56, 59
2, 36781, Note_on_c, 0, 56, 0
2, 36827, Note_on_c, 0, 68, 76
2, 36913, Note_on_c, 0, 65, 0
2, 36996, Note_on_c, 0, 72, 79
2, 37021, Note_on_c, 0, 68, 0
2, 37178, Note_on_c, 0, 72, 0
2, 37197, Note_on_c, 0, 44, 48
2, 37197, Note_on_c, 0, 75, 63
2, 37313, Note_on_c, 0, 44, 0
2, 37380, Note_on_c, 0, 74, 60
2, 37420, Note_on_c, 0, 75, 0
2, 37551, Note_on_c, 0, 72, 56
2, 37571, Note_on_c, 0, 74, 0
2, 37668, Note_on_c, 0, 72, 0
2, 37737, Note_on_c, 0, 51, 51
2, 37907, Note_on_c, 0, 51, 0
2, 37916, Note_on_c, 0, 67, 63
2, 38088, Note_on_c, 0, 72, 80
2, 38090, Note_on_c, 0, 67, 0
2, 38252, Note_on_c, 0, 72, 0
2, 38268, Note_on_c, 0, 53, 61
2, 38281, Note_on_c, 0, 68, 73
2, 38396, Note_on_c, 0, 53, 0
2, 38450, Note_on_c, 0, 71, 77
2, 38470, Note_on_c, 0, 68, 0
2, 38602, Note_on_c, 0, 72, 81
2, 38612, Note_on_c, 0, 71, 0
2, 38800, Note_on_c, 0, 72, 0
2, 38807, Note_on_c, 0, 75, 66
2, 38808, Note_on_c, 0, 54, 51
2, 38935, Note_on_c, 0, 54, 0
2, 38989, Note_on_c, 0, 74, 56
2, 39007, Note_on_c, 0, 75, 0
2, 39144, Note_on_c, 0, 72, 64
2, 39147, Note_on_c, 0, 74, 0
2, 39253, Note_on_c, 0, 72, 0
2, 39358, Note_on_c, 0, 55, 46
2, 39476, Note_on_c, 0, 55, 0
2, 39519, Note_on_c, 0, 65, 47
2, 39692, Note_on_c, 0, 71, 60
2, 39746, Note_on_c, 0, 65, 0
2, 39872, Note_on_c, 0, 71, 0
2, 39901, Note_on_c, 0, 72, 54
2, 39916, Note_on_c, 0, 48, 39
2, 40101, Note_on_c, 0, 67, 55
2, 40271, Note_on_c, 0, 63, 63
2, 40326, Note_on_c, 0, 67, 0
2, 40387, Note_on_c, 0, 72, 0
2, 40460, Note_on_c, 0, 60, 70
2, 40460, Note_on_c, 0, 63, 0
2, 40643, Note_on_c, 0, 51, 64
2, 40670, Note_on_c, 0, 48, 0
2, 40820, Note_on_c, 0, 55, 70
2, 40841, Note_on_c, 0, 51, 0
2, 40950, Note_on_c, 0, 60, 0
2, 40951, Note_on_c, 0, 55, 0
2, 40999, Note_on_c, 0, 58, 70
2, 41167, Note_on_c, 0, 58, 0
2, 41173, Note_on_c, 0, 57, 74
2, 41325, Note_on_c, 0, 57, 0
2, 41346, Note_on_c, 0, 55, 68
2, 41510, Note_on_c, 0, 55, 0
2, 41551, Note_on_c, 0, 57, 50
2, 41741, Note_on_c, 0, 57, 0
2, 41744, Note_on_c, 0, 75, 68
2, 41924, Note_on_c, 0, 74, 72
2, 41928, Note_on_c, 0, 75, 0
2, 42091, Note_on_c, 0, 74, 0
2, 42114, Note_on_c, 0, 75, 79
2, 42168, Note_on_c, 0, 75, 0
2, 42298, Note_on_c, 0, 72, 65
2, 42356, Note_on_c, 0, 72, 0
2, 42470, Note_on_c, 0, 69, 60
2, 42540, Note_on_c, 0, 69, 0
2, 42673, Note_on_c, 0, 65, 43
2, 42842, Note_on_c, 0, 60, 44
2, 43022, Note_on_c, 0, 53, 52
2, 43024, Note_on_c, 0, 60, 0
2, 43049, Note_on_c, 0, 65, 0
2, 43237, Note_on_c, 0, 58, 52
2, 43277, Note_on_c, 0, 53, 0
2, 43409, Note_on_c, 0, 65, 53
2, 43569, Note_on_c, 0, 58, 0
2, 43570, Note_on_c, 0, 65, 0
2, 43582, Note_on_c, 0, 63, 63
2, 43764, Note_on_c, 0, 65, 63
2, 43784, Note_on_c, 0, 63, 0
2, 43937, Note_on_c, 0, 70, 79
2, 44111, Note_on_c, 0, 72, 77
2, 44245, Note_on_c, 0, 72, 0
2, 44316, Note_on_c, 0, 73, 75
2, 44494, Note_on_c, 0, 56, 59
2, 44665, Note_on_c, 0, 65, 0
2, 44668, Note_on_c, 0, 56, 0
2, 44673, Note_on_c, 0, 73, 0
2, 44677, Note_on_c, 0, 53, 49
2, 44725, Note_on_c, 0, 70, 0
2, 44877, Note_on_c, 0, 53, 0
2, 44897, Note_on_c, 0, 55, 46
2, 45080, Note_on_c, 0, 73, 58
2, 45116, Note_on_c, 0, 55, 0
2, 45255, Note_on_c, 0, 72, 71
2, 45289, Note_on_c, 0, 73, 0
2, 45409, Note_on_c, 0, 72, 0
2, 45445, Note_on_c, 0, 73, 75
2, 45520, Note_on_c, 0, 73, 0
2, 45629, Note_on_c, 0, 70, 62
2, 45694, Note_on_c, 0, 70, 0
2, 45798, Note_on_c, 0, 67, 50
2, 45865, Note_on_c, 0, 67, 0
2, 46002, Note_on_c, 0, 63, 45
2, 46179, Note_on_c, 0, 58, 45
2, 46360, Note_on_c, 0, 51, 47
2, 46368, Note_on_c, 0, 58, 0
2, 46508, Note_on_c, 0, 63, 0
2, 46534, Note_on_c, 0, 51, 0
2, 46558, Note_on_c, 0, 56, 47
2, 46746, Note_on_c, 0, 63, 49
2, 46846, Note_on_c, 0, 56, 0
2, 46906, Note_on_c, 0, 63, 0
2, 46912, Note_on_c, 0, 61, 65
2, 47089, Note_on_c, 0, 61, 0
2, 47093, Note_on_c, 0, 63, 66
2, 47285, Note_on_c, 0, 68, 63
2, 47467, Note_on_c, 0, 70, 69
2, 47470, Note_on_c, 0, 68, 0
2, 47595, Note_on_c, 0, 70, 0
2, 47655, Note_on_c, 0, 72, 56
2, 47840, Note_on_c, 0, 55, 48
2, 48004, Note_on_c, 0, 55, 0
2, 48020, Note_on_c, 0, 51, 48
2, 48092, Note_on_c, 0, 63, 0
2, 48102, Note_on_c, 0, 72, 0
2, 48189, Note_on_c, 0, 51, 0
2, 48244, Note_on_c, 0, 53, 34
2, 48406, Note_on_c, 0, 62, 43
2, 48472, Note_on_c, 0, 53, 0
2, 48574, Note_on_c, 0, 68, 65
2, 48684, Note_on_c, 0, 62, 0
2, 48763, Note_on_c, 0, 72, 72
2, 48787, Note_on_c, 0, 68, 0
2, 48937, Note_on_c, 0, 72, 0
2, 48939, Note_on_c, 0, 70, 73
2, 49106, Note_on_c, 0, 70, 0
2, 49119, Note_on_c, 0, 68, 58
2, 49208, Note_on_c, 0, 68, 0
2, 49319, Note_on_c, 0, 55, 46
2, 49475, Note_on_c, 0, 61, 54
2, 49491, Note_on_c, 0, 55, 0
2, 49662, Note_on_c, 0, 70, 65
2, 49682, Note_on_c, 0, 61, 0
2, 49806, Note_on_c, 0, 70, 0
2, 49857, Note_on_c, 0, 52, 60
2, 50041, Note_on_c, 0, 60, 64
2, 50092, Note_on_c, 0, 52, 0
2, 50220, Note_on_c, 0, 67, 65
2, 50296, Note_on_c, 0, 60, 0
2, 50387, Note_on_c, 0, 70, 74
2, 50389, Note_on_c, 0, 67, 0
2, 50565, Note_on_c, 0, 68, 70
2, 50627, Note_on_c, 0, 70, 0
2, 50717, Note_on_c, 0, 68, 0
2, 50740, Note_on_c, 0, 67, 54
2, 50866, Note_on_c, 0, 67, 0
2, 50939, Note_on_c, 0, 53, 62
2, 51114, Note_on_c, 0, 60, 65
2, 51138, Note_on_c, 0, 53, 0
2, 51283, Note_on_c, 0, 60, 0
2, 51289, Note_on_c, 0, 68, 73
2, 51405, Note_on_c, 0, 68, 0
2, 51479, Note_on_c, 0, 50, 70
2, 51647, Note_on_c, 0, 58, 66
2, 51651, Note_on_c, 0, 50, 0
2, 51827, Note_on_c, 0, 58, 0
2, 51828, Note_on_c, 0, 68, 71
2, 51954, Note_on_c, 0, 68, 0
2, 52015, Note_on_c, 0, 51, 57
2, 52177, Note_on_c, 0, 51, 0
2, 52210, Note_on_c, 0, 68, 76
2, 52371, Note_on_c, 0, 68, 0
2, 52390, Note_on_c, 0, 67, 59
2, 52517, Note_on_c, 0, 67, 0
2, 52581, Note_on_c, 0, 45, 44
2, 52747, Note_on_c, 0, 72, 56
2, 52765, Note_on_c, 0, 45, 0
2, 52941, Note_on_c, 0, 72, 0
2, 52949, Note_on_c, 0, 63, 41
2, 53043, Note_on_c, 0, 63, 0
2, 53140, Note_on_c, 0, 46, 31
2, 53383, Note_on_c, 0, 62, 40
2, 53423, Note_on_c, 0, 46, 0
2, 53558, Note_on_c, 0, 60, 64
2, 53558, Note_on_c, 0, 62, 0
2, 53738, Note_on_c, 0, 60, 0
2, 53755, Note_on_c, 0, 62, 66
2, 53931, Note_on_c, 0, 50, 47
2, 53932, Note_on_c, 0, 62, 0
2, 53938, Note_on_c, 0, 58, 63
2, 54067, Note_on_c, 0, 58, 0
2, 54102, Note_on_c, 0, 50, 0
2, 54108, Note_on_c, 0, 48, 55
2, 54114, Note_on_c, 0, 57, 66
2, 54165, Note_on_c, 0, 57, 0
2, 54226, Note_on_c, 0, 48, 0
2, 54276, Note_on_c, 0, 50, 57
2, 54305, Note_on_c, 0, 58, 72
2, 54370, Note_on_c, 0, 58, 0
2, 54374, Note_on_c, 0, 50, 0
2, 54460, Note_on_c, 0, 53, 52
2, 54480, Note_on_c, 0, 62, 69
2, 54534, Note_on_c, 0, 62, 0
2, 54542, Note_on_c, 0, 53, 0
2, 54648, Note_on_c, 0, 56, 56
2, 54659, Note_on_c, 0, 65, 69
2, 54752, Note_on_c, 0, 65, 0
2, 54753, Note_on_c, 0, 56, 0
2, 54853, Note_on_c, 0, 46, 39
2, 54854, Note_on_c, 0, 68, 66
2, 55024, Note_on_c, 0, 65, 66
2, 55026, Note_on_c, 0, 68, 0
2, 55034, Note_on_c, 0, 50, 65
2, 55045, Note_on_c, 0, 46, 0
2, 55187, Note_on_c, 0, 63, 75
2, 55200, Note_on_c, 0, 48, 59
2, 55204, Note_on_c, 0, 50, 0
2, 55219, Note_on_c, 0, 65, 0
2, 55345, Note_on_c, 0, 48, 0
2, 55370, Note_on_c, 0, 50, 63
2, 55382, Note_on_c, 0, 63, 0
2, 55391, Note_on_c, 0, 65, 67
2, 55502, Note_on_c, 0, 50, 0
2, 55543, Note_on_c, 0, 53, 69
2, 55547, Note_on_c, 0, 62, 73
2, 55572, Note_on_c, 0, 65, 0
2, 55719, Note_on_c, 0, 62, 0
2, 55720, Note_on_c, 0, 60, 71
2, 55724, Note_on_c, 0, 51, 68
2, 55745, Note_on_c, 0, 53, 0
2, 55847, Note_on_c, 0, 60, 0
2, 55860, Note_on_c, 0, 51, 0
2, 55899, Note_on_c, 0, 53, 63
2, 55917, Note_on_c, 0, 62, 69
2, 55984, Note_on_c, 0, 53, 0
2, 56004, Note_on_c, 0, 62, 0
2, 56078, Note_on_c, 0, 50, 62
2, 56087, Note_on_c, 0, 65, 70
2, 56175, Note_on_c, 0, 65, 0
2, 56184, Note_on_c, 0, 50, 0
2, 56252, Note_on_c, 0, 46, 63
2, 56262, Note_on_c, 0, 68, 68
2, 56309, Note_on_c, 0, 46, 0
2, 56348, Note_on_c, 0, 68, 0
2, 56437, Note_on_c, 0, 72, 73
2, 56565, Note_on_c, 0, 72, 0
2, 56608, Note_on_c, 0, 63, 64
2, 56736, Note_on_c, 0, 63, 0
2, 56786, Note_on_c, 0, 62, 60
2, 56791, Note_on_c, 0, 53, 50
2, 56921, Note_on_c, 0, 62, 0
2, 56957, Note_on_c, 0, 53, 0
2, 56975, Note_on_c, 0, 43, 54
2, 56975, Note_on_c, 0, 70, 67
2, 57066, Note_on_c, 0, 43, 0
2, 57127, Note_on_c, 0, 70, 0
2, 57138, Note_on_c, 0, 61, 59
2, 57233, Note_on_c, 0, 61, 0
2, 57327, Note_on_c, 0, 51, 44
2, 57327, Note_on_c, 0, 60, 57
2, 57481, Note_on_c, 0, 60, 0
2, 57497, Note_on_c, 0, 41, 46
2, 57501, Note_on_c, 0, 51, 0
2, 57519, Note_on_c, 0, 68, 57
2, 57606, Note_on_c, 0, 41, 0
2, 57637, Note_on_c, 0, 68, 0
2, 57671, Note_on_c, 0, 59, 50
2, 57832, Note_on_c, 0, 59, 0
2, 57869, Note_on_c, 0, 58, 40
2, 57875, Note_on_c, 0, 50, 42
2, 58039, Note_on_c, 0, 50, 0
2, 58041, Note_on_c, 0, 58, 0
2, 58075, Note_on_c, 0, 39, 43
2, 58244, Note_on_c, 0, 39, 0
2, 58244, Note_on_c, 0, 67, 55
2, 58399, Note_on_c, 0, 67, 0
2, 58420, Note_on_c, 0, 65, 64
2, 58600, Note_on_c, 0, 67, 68
2, 58610, Note_on_c, 0, 65, 0
2, 58771, Note_on_c, 0, 67, 0
2, 58779, Note_on_c, 0, 55, 50
2, 58781, Note_on_c, 0, 63, 73
2, 58938, Note_on_c, 0, 55, 0
2, 58948, Note_on_c, 0, 62, 73
2, 58951, Note_on_c, 0, 63, 0
2, 58956, Note_on_c, 0, 53, 61
2, 59018, Note_on_c, 0, 62, 0
2, 59076, Note_on_c, 0, 53, 0
2, 59144, Note_on_c, 0, 55, 53
2, 59152, Note_on_c, 0, 63, 64
2, 59227, Note_on_c, 0, 55, 0
2, 59230, Note_on_c, 0, 63, 0
2, 59315, Note_on_c, 0, 67, 69
2, 59319, Note_on_c, 0, 58, 52
2, 59378, Note_on_c, 0, 58, 0
2, 59382, Note_on_c, 0, 67, 0
2, 59478, Note_on_c, 0, 61, 50
2, 59482, Note_on_c, 0, 70, 78
2, 59558, Note_on_c, 0, 61, 0
2, 59567, Note_on_c, 0, 70, 0
2, 59663, Note_on_c, 0, 51, 44
2, 59693, Note_on_c, 0, 73, 62
2, 59860, Note_on_c, 0, 70, 73
2, 59881, Note_on_c, 0, 73, 0
2, 59882, Note_on_c, 0, 55, 58
2, 59910, Note_on_c, 0, 51, 0
2, 60022, Note_on_c, 0, 68, 74
2, 60035, Note_on_c, 0, 70, 0
2, 60036, Note_on_c, 0, 53, 61
2, 60060, Note_on_c, 0, 55, 0
2, 60200, Note_on_c, 0, 53, 0
2, 60206, Note_on_c, 0, 70, 79
2, 60217, Note_on_c, 0, 55, 65
2, 60221, Note_on_c, 0, 68, 0
2, 60366, Note_on_c, 0, 55, 0
2, 60380, Note_on_c, 0, 67, 74
2, 60393, Note_on_c, 0, 70, 0
2, 60409, Note_on_c, 0, 58, 57
2, 60490, Note_on_c, 0, 67, 0
2, 60557, Note_on_c, 0, 65, 73
2, 60564, Note_on_c, 0, 56, 66
2, 60595, Note_on_c, 0, 58, 0
2, 60629, Note_on_c, 0, 65, 0
2, 60669, Note_on_c, 0, 56, 0
2, 60734, Note_on_c, 0, 58, 68
2, 60740, Note_on_c, 0, 67, 70
2, 60827, Note_on_c, 0, 58, 0
2, 60833, Note_on_c, 0, 67, 0
2, 60903, Note_on_c, 0, 55, 61
2, 60907, Note_on_c, 0, 70, 78
2, 60993, Note_on_c, 0, 70, 0
2, 61068, Note_on_c, 0, 51, 54
2, 61082, Note_on_c, 0, 73, 72
2, 61137, Note_on_c, 0, 55, 0
2, 61180, Note_on_c, 0, 73, 0
2, 61197, Note_on_c, 0, 51, 0
2, 61276, Note_on_c, 0, 77, 66
2, 61442, Note_on_c, 0, 68, 72
2, 61465, Note_on_c, 0, 77, 0
2, 61589, Note_on_c, 0, 68, 0
2, 61626, Note_on_c, 0, 67, 62
2, 61632, Note_on_c, 0, 58, 51
2, 61765, Note_on_c, 0, 67, 0
2, 61788, Note_on_c, 0, 48, 44
2, 61825, Note_on_c, 0, 58, 0
2, 61825, Note_on_c, 0, 75, 64
2, 61926, Note_on_c, 0, 48, 0
2, 61980, Note_on_c, 0, 66, 59
2, 61984, Note_on_c, 0, 75, 0
2, 62116, Note_on_c, 0, 66, 0
2, 62150, Note_on_c, 0, 56, 51
2, 62160, Note_on_c, 0, 65, 50
2, 62342, Note_on_c, 0, 65, 0
2, 62352, Note_on_c, 0, 46, 45
2, 62368, Note_on_c, 0, 73, 57
2, 62414, Note_on_c, 0, 56, 0
2, 62507, Note_on_c, 0, 73, 0
2, 62513, Note_on_c, 0, 64, 46
2, 62515, Note_on_c, 0, 46, 0
2, 62662, Note_on_c, 0, 64, 0
2, 62696, Note_on_c, 0, 63, 51
2, 62705, Note_on_c, 0, 55, 46
2, 62883, Note_on_c, 0, 44, 57
2, 62898, Note_on_c, 0, 63, 0
2, 62899, Note_on_c, 0, 55, 0
2, 63079, Note_on_c, 0, 72, 57
2, 63085, Note_on_c, 0, 44, 0
2, 63238, Note_on_c, 0, 72, 0
2, 63247, Note_on_c, 0, 70, 74
2, 63430, Note_on_c, 0, 72, 72
2, 63473, Note_on_c, 0, 70, 0
2, 63515, Note_on_c, 0, 60, 43
2, 63608, Note_on_c, 0, 72, 0
2, 63620, Note_on_c, 0, 68, 72
2, 63755, Note_on_c, 0, 58, 48
2, 63771, Note_on_c, 0, 67, 73
2, 63788, Note_on_c, 0, 68, 0
2, 63792, Note_on_c, 0, 60, 0
2, 63840, Note_on_c, 0, 67, 0
2, 63953, Note_on_c, 0, 58, 0
2, 63962, Note_on_c, 0, 60, 60
2, 63965, Note_on_c, 0, 68, 69
2, 64059, Note_on_c, 0, 68, 0
2, 64131, Note_on_c, 0, 60, 0
2, 64137, Note_on_c, 0, 72, 82
2, 64219, Note_on_c, 0, 72, 0
2, 64310, Note_on_c, 0, 75, 84
2, 64405, Note_on_c, 0, 75, 0
2, 64485, Note_on_c, 0, 79, 79
2, 64660, Note_on_c, 0, 70, 80
2, 64682, Note_on_c, 0, 79, 0
2, 64813, Note_on_c, 0, 70, 0
2, 64825, Note_on_c, 0, 48, 62
2, 64826, Note_on_c, 0, 69, 76
2, 64966, Note_on_c, 0, 69, 0
2, 65001, Note_on_c, 0, 48, 0
2, 65009, Note_on_c, 0, 77, 74
2, 65021, Note_on_c, 0, 62, 66
2, 65131, Note_on_c, 0, 62, 0
2, 65174, Note_on_c, 0, 77, 0
2, 65183, Note_on_c, 0, 68, 70
2, 65307, Note_on_c, 0, 68, 0
2, 65351, Note_on_c, 0, 67, 63
2, 65374, Note_on_c, 0, 46, 55
2, 65495, Note_on_c, 0, 46, 0
2, 65508, Note_on_c, 0, 67, 0
2, 65540, Note_on_c, 0, 75, 69
2, 65563, Note_on_c, 0, 60, 52
2, 65682, Note_on_c, 0, 66, 49
2, 65694, Note_on_c, 0, 75, 0
2, 65777, Note_on_c, 0, 60, 0
2, 65843, Note_on_c, 0, 66, 0
2, 65877, Note_on_c, 0, 45, 46
2, 65877, Note_on_c, 0, 65, 43
2, 66052, Note_on_c, 0, 45, 0
2, 66082, Note_on_c, 0, 46, 60
2, 66105, Note_on_c, 0, 65, 0
2, 66277, Note_on_c, 0, 74, 73
2, 66359, Note_on_c, 0, 46, 0
2, 66446, Note_on_c, 0, 72, 81
2, 66477, Note_on_c, 0, 74, 0
2, 66630, Note_on_c, 0, 74, 73
2, 66654, Note_on_c, 0, 72, 0
2, 66806, Note_on_c, 0, 70, 82
2, 66817, Note_on_c, 0, 62, 62
2, 66818, Note_on_c, 0, 74, 0
2, 66971, Note_on_c, 0, 69, 86
2, 66984, Note_on_c, 0, 70, 0
2, 67007, Note_on_c, 0, 60, 71
2, 67021, Note_on_c, 0, 62, 0
2, 67051, Note_on_c, 0, 69, 0
2, 67164, Note_on_c, 0, 70, 78
2, 67185, Note_on_c, 0, 60, 0
2, 67186, Note_on_c, 0, 62, 70
2, 67277, Note_on_c, 0, 70, 0
2, 67340, Note_on_c, 0, 74, 75
2, 67410, Note_on_c, 0, 62, 0
2, 67430, Note_on_c, 0, 74, 0
2, 67516, Note_on_c, 0, 77, 81
2, 67625, Note_on_c, 0, 77, 0
2, 67695, Note_on_c, 0, 80, 79
2, 67874, Note_on_c, 0, 72, 86
2, 68034, Note_on_c, 0, 80, 0
2, 68043, Note_on_c, 0, 50, 63
2, 68044, Note_on_c, 0, 72, 0
2, 68050, Note_on_c, 0, 71, 74
2, 68161, Note_on_c, 0, 50, 0
2, 68231, Note_on_c, 0, 71, 0
2, 68243, Note_on_c, 0, 63, 72
2, 68245, Note_on_c, 0, 79, 75
2, 68396, Note_on_c, 0, 70, 73
2, 68439, Note_on_c, 0, 79, 0
2, 68440, Note_on_c, 0, 63, 0
2, 68559, Note_on_c, 0, 70, 0
2, 68585, Note_on_c, 0, 48, 63
2, 68585, Note_on_c, 0, 69, 78
2, 68706, Note_on_c, 0, 48, 0
2, 68727, Note_on_c, 0, 69, 0
2, 68767, Note_on_c, 0, 62, 63
2, 68779, Note_on_c, 0, 77, 72
2, 68941, Note_on_c, 0, 68, 74
2, 69021, Note_on_c, 0, 62, 0
2, 69087, Note_on_c, 0, 77, 0
2, 69112, Note_on_c, 0, 67, 63
2, 69112, Note_on_c, 0, 68, 0
2, 69125, Note_on_c, 0, 47, 60
2, 69268, Note_on_c, 0, 67, 0
2, 69299, Note_on_c, 0, 47, 0
2, 69311, Note_on_c, 0, 48, 74
2, 69506, Note_on_c, 0, 75, 79
2, 69550, Note_on_c, 0, 48, 0
2, 69677, Note_on_c, 0, 74, 79
2, 69722, Note_on_c, 0, 75, 0
2, 69867, Note_on_c, 0, 75, 82
2, 69964, Note_on_c, 0, 74, 0
2, 70042, Note_on_c, 0, 72, 82
2, 70048, Note_on_c, 0, 63, 61
2, 70081, Note_on_c, 0, 75, 0
2, 70169, Note_on_c, 0, 72, 0
2, 70197, Note_on_c, 0, 63, 0
2, 70210, Note_on_c, 0, 71, 83
2, 70223, Note_on_c, 0, 62, 67
2, 70300, Note_on_c, 0, 71, 0
2, 70407, Note_on_c, 0, 72, 80
2, 70410, Note_on_c, 0, 62, 0
2, 70422, Note_on_c, 0, 63, 70
2, 70512, Note_on_c, 0, 72, 0
2, 70585, Note_on_c, 0, 63, 0
2, 70600, Note_on_c, 0, 75, 82
2, 70687, Note_on_c, 0, 75, 0
2, 70779, Note_on_c, 0, 79, 84
2, 70913, Note_on_c, 0, 79, 0
2, 71056, Note_on_c, 0, 84, 73
2, 71304, Note_on_c, 0, 68, 45
2, 71465, Note_on_c, 0, 68, 0
2, 71524, Note_on_c, 0, 83, 67
2, 71541, Note_on_c, 0, 67, 38
2, 71581, Note_on_c, 0, 84, 0
2, 71653, Note_on_c, 0, 67, 0
2, 71734, Note_on_c, 0, 84, 70
2, 71753, Note_on_c, 0, 68, 45
2, 71776, Note_on_c, 0, 83, 0
2, 71917, Note_on_c, 0, 79, 68
2, 71930, Note_on_c, 0, 63, 47
2, 72003, Note_on_c, 0, 68, 0
2, 72058, Note_on_c, 0, 84, 0
2, 72098, Note_on_c, 0, 60, 44
2, 72101, Note_on_c, 0, 63, 0
2, 72132, Note_on_c, 0, 80, 57
2, 72175, Note_on_c, 0, 79, 0
2, 72310, Note_on_c, 0, 67, 53
2, 72317, Note_on_c, 0, 60, 0
2, 72388, Note_on_c, 0, 80, 0
2, 72472, Note_on_c, 0, 78, 81
2, 72484, Note_on_c, 0, 62, 56
2, 72512, Note_on_c, 0, 67, 0
2, 72629, Note_on_c, 0, 62, 0
2, 72650, Note_on_c, 0, 58, 55
2, 72661, Note_on_c, 0, 79, 82
2, 72663, Note_on_c, 0, 78, 0
2, 72829, Note_on_c, 0, 58, 0
2, 72845, Note_on_c, 0, 79, 0
2, 72865, Note_on_c, 0, 84, 75
2, 72871, Note_on_c, 0, 66, 51
2, 73040, Note_on_c, 0, 60, 52
2, 73117, Note_on_c, 0, 66, 0
2, 73234, Note_on_c, 0, 60, 0
2, 73247, Note_on_c, 0, 78, 67
2, 73256, Note_on_c, 0, 57, 55
2, 73326, Note_on_c, 0, 84, 0
2, 73404, Note_on_c, 0, 57, 0
2, 73444, Note_on_c, 0, 79, 66
2, 73450, Note_on_c, 0, 78, 0
2, 73464, Note_on_c, 0, 63, 49
2, 73603, Note_on_c, 0, 79, 0
2, 73634, Note_on_c, 0, 74, 57
2, 73635, Note_on_c, 0, 58, 48
2, 73763, Note_on_c, 0, 63, 0
2, 73784, Note_on_c, 0, 58, 0
2, 73794, Note_on_c, 0, 55, 48
2, 73818, Note_on_c, 0, 75, 59
2, 73849, Note_on_c, 0, 74, 0
2, 73963, Note_on_c, 0, 75, 0
2, 74003, Note_on_c, 0, 55, 0
2, 74014, Note_on_c, 0, 62, 62
2, 74175, Note_on_c, 0, 73, 79
2, 74189, Note_on_c, 0, 57, 62
2, 74230, Note_on_c, 0, 62, 0
2, 74365, Note_on_c, 0, 57, 0
2, 74370, Note_on_c, 0, 54, 61
2, 74372, Note_on_c, 0, 73, 0
2, 74383, Note_on_c, 0, 74, 78
2, 74541, Note_on_c, 0, 54, 0
2, 74575, Note_on_c, 0, 55, 62
2, 74583, Note_on_c, 0, 82, 79
2, 74593, Note_on_c, 0, 74, 0
2, 74753, Note_on_c, 0, 79, 72
2, 74780, Note_on_c, 0, 55, 0
2, 74795, Control_c, 0, 64, 35
2, 74814, Control_c, 0, 64, 56
2, 74834, Control_c, 0, 64, 59
2, 74847, Note_on_c, 0, 82, 0
2, 74853, Control_c, 0, 64, 58
2, 74872, Control_c, 0, 64, 57
2, 74890, Control_c, 0, 64, 55
2, 74910, Control_c, 0, 64, 54
2, 74929, Note_on_c, 0, 74, 77
2, 74948, Control_c, 0, 64, 53
2, 74950, Note_on_c, 0, 79, 0
2, 74967, Control_c, 0, 64, 52
2, 74987, Control_c, 0, 64, 49
2, 75005, Control_c, 0, 64, 47
2, 75025, Control_c, 0, 64, 46
2, 75038, Note_on_c, 0, 74, 0
2, 75102, Control_c, 0, 64, 46
2, 75121, Control_c, 0, 64, 45
2, 75121, Note_on_c, 0, 48, 64
2, 75140, Control_c, 0, 64, 44
2, 75141, Note_on_c, 0, 75, 72
2, 75159, Control_c, 0, 64, 41
2, 75179, Control_c, 0, 64, 39
2, 75198, Control_c, 0, 64, 36
2, 75293, Control_c, 0, 64, 36
2, 75310, Note_on_c, 0, 79, 81
2, 75334, Note_on_c, 0, 48, 0
2, 75347, Note_on_c, 0, 75, 0
2, 75351, Control_c, 0, 64, 35
2, 75409, Control_c, 0, 64, 35
2, 75428, Control_c, 0, 64, 34
2, 75447, Control_c, 0, 64, 32
2, 75467, Control_c, 0, 64, 29
2, 75477, Note_on_c, 0, 84, 79
2, 75485, Control_c, 0, 64, 27
2, 75505, Control_c, 0, 64, 25
2, 75515, Note_on_c, 0, 79, 0
2, 75524, Control_c, 0, 64, 17
2, 75544, Control_c, 0, 64, 0
2, 75655, Note_on_c, 0, 49, 73
2, 75669, Note_on_c, 0, 82, 79
2, 75718, Note_on_c, 0, 84, 0
2, 75830, Note_on_c, 0, 81, 80
2, 75909, Note_on_c, 0, 49, 0
2, 75966, Note_on_c, 0, 82, 0
2, 75989, Note_on_c, 0, 79, 83
2, 76013, Note_on_c, 0, 81, 0
2, 76171, Note_on_c, 0, 79, 0
2, 76194, Note_on_c, 0, 78, 69
2, 76197, Note_on_c, 0, 50, 48
2, 76273, Note_on_c, 0, 79, 79
2, 76352, Note_on_c, 0, 78, 0
2, 76365, Note_on_c, 0, 81, 79
2, 76370, Note_on_c, 0, 79, 0
2, 76500, Note_on_c, 0, 81, 0
2, 76535, Note_on_c, 0, 74, 73
2, 76714, Note_on_c, 0, 50, 0
2, 76727, Note_on_c, 0, 75, 69
2, 76755, Note_on_c, 0, 74, 0
2, 76902, Note_on_c, 0, 74, 68
2, 76929, Note_on_c, 0, 75, 0
2, 77055, Note_on_c, 0, 74, 0
2, 77101, Note_on_c, 0, 72, 62
2, 77111, Note_on_c, 0, 38, 49
2, 77288, Note_on_c, 0, 70, 67
2, 77310, Note_on_c, 0, 40, 61
2, 77321, Note_on_c, 0, 38, 0
2, 77326, Note_on_c, 0, 72, 0
2, 77466, Note_on_c, 0, 72, 77
2, 77561, Note_on_c, 0, 70, 0
2, 77639, Note_on_c, 0, 72, 0
2, 77641, Note_on_c, 0, 69, 76
2, 77653, Note_on_c, 0, 42, 65
2, 77691, Note_on_c, 0, 40, 0
2, 77721, Note_on_c, 0, 69, 0
2, 77835, Note_on_c, 0, 43, 71
2, 77842, Note_on_c, 0, 70, 66
2, 77849, Note_on_c, 0, 42, 0
2, 78017, Note_on_c, 0, 43, 0
2, 78017, Note_on_c, 0, 74, 72
2, 78033, Note_on_c, 0, 70, 0
2, 78189, Note_on_c, 0, 79, 81
2, 78194, Note_on_c, 0, 74, 0
2, 78323, Note_on_c, 0, 79, 0
2, 78389, Note_on_c, 0, 55, 57
2, 78396, Note_on_c, 0, 82, 59
2, 78547, Note_on_c, 0, 55, 0
2, 78575, Note_on_c, 0, 81, 57
2, 78646, Note_on_c, 0, 82, 0
2, 78760, Note_on_c, 0, 81, 0
2, 78762, Note_on_c, 0, 79, 52
2, 78942, Note_on_c, 0, 79, 0
2, 78973, Note_on_c, 0, 53, 53
2, 79145, Note_on_c, 0, 70, 72
2, 79190, Note_on_c, 0, 53, 0
2, 79289, Control_c, 0, 64, 9
2, 79314, Note_on_c, 0, 79, 81
2, 79347, Note_on_c, 0, 70, 0
2, 79518, Note_on_c, 0, 72, 71
2, 79526, Note_on_c, 0, 51, 59
2, 79585, Note_on_c, 0, 79, 0
2, 79615, Control_c, 0, 64, 0
2, 79685, Note_on_c, 0, 75, 76
2, 79693, Note_on_c, 0, 51, 0
2, 79760, Note_on_c, 0, 72, 0
2, 79857, Note_on_c, 0, 79, 76
2, 79880, Note_on_c, 0, 75, 0
2, 80049, Note_on_c, 0, 39, 50
2, 80066, Note_on_c, 0, 82, 70
2, 80090, Note_on_c, 0, 79, 0
2, 80239, Note_on_c, 0, 39, 0
2, 80247, Note_on_c, 0, 81, 62
2, 80356, Note_on_c, 0, 82, 0
2, 80414, Note_on_c, 0, 79, 61
2, 80437, Note_on_c, 0, 81, 0
2, 80527, Note_on_c, 0, 79, 0
2, 80586, Note_on_c, 0, 46, 58
2, 80772, Note_on_c, 0, 46, 0
2, 80776, Note_on_c, 0, 74, 72
2, 80926, Note_on_c, 0, 74, 0
2, 80936, Note_on_c, 0, 79, 79
2, 81107, Note_on_c, 0, 48, 57
2, 81126, Note_on_c, 0, 75, 76
2, 81131, Note_on_c, 0, 79, 0
2, 81272, Note_on_c, 0, 48, 0
2, 81301, Note_on_c, 0, 78, 78
2, 81308, Note_on_c, 0, 75, 0
2, 81463, Note_on_c, 0, 79, 80
2, 81491, Note_on_c, 0, 78, 0
2, 81637, Note_on_c, 0, 49, 53
2, 81639, Note_on_c, 0, 79, 0
2, 81667, Note_on_c, 0, 70, 67
2, 81810, Note_on_c, 0, 70, 0
2, 81815, Note_on_c, 0, 49, 0
2, 81845, Note_on_c, 0, 69, 64
2, 82014, Note_on_c, 0, 67, 57
2, 82036, Note_on_c, 0, 69, 0
2, 82129, Note_on_c, 0, 67, 0
2, 82195, Note_on_c, 0, 50, 43
2, 82366, Note_on_c, 0, 72, 54
2, 82369, Note_on_c, 0, 50, 0
2, 82487, Note_on_c, 0, 72, 0
2, 82531, Note_on_c, 0, 66, 57
2, 82697, Note_on_c, 0, 66, 0
2, 82770, Note_on_c, 0, 67, 44
2, 82771, Note_on_c, 0, 43, 48
2, 82951, Note_on_c, 0, 70, 73
2, 83036, Note_on_c, 0, 67, 0
2, 83118, Note_on_c, 0, 70, 0
2, 83120, Note_on_c, 0, 74, 75
2, 83279, Note_on_c, 0, 74, 0
2, 83288, Note_on_c, 0, 79, 79
2, 83378, Control_c, 0, 64, 35
2, 83398, Control_c, 0, 64, 56
2, 83417, Control_c, 0, 64, 62
2, 83436, Control_c, 0, 64, 65
2, 83455, Control_c, 0, 64, 67
2, 83475, Control_c, 0, 64, 69
2, 83477, Note_on_c, 0, 46, 71
2, 83494, Control_c, 0, 64, 73
2, 83513, Control_c, 0, 64, 77
2, 83521, Note_on_c, 0, 79, 0
2, 83532, Control_c, 0, 64, 81
2, 83552, Control_c, 0, 64, 83
2, 83644, Note_on_c, 0, 50, 77
2, 83782, Control_c, 0, 64, 82
2, 83801, Control_c, 0, 64, 82
2, 83821, Control_c, 0, 64, 81
2, 83840, Control_c, 0, 64, 77
2, 83843, Note_on_c, 0, 70, 78
2, 83855, Note_on_c, 0, 43, 0
2, 83858, Control_c, 0, 64, 72
2, 83863, Note_on_c, 0, 50, 0
2, 83869, Note_on_c, 0, 46, 0
2, 83878, Control_c, 0, 64, 66
2, 83878, Note_on_c, 0, 53, 67
2, 83897, Control_c, 0, 64, 61
2, 83900, Note_on_c, 0, 70, 0
2, 83908, Note_on_c, 0, 69, 77
2, 83916, Control_c, 0, 64, 55
2, 83935, Control_c, 0, 64, 48
2, 83955, Control_c, 0, 64, 36
2, 83974, Control_c, 0, 64, 9
2, 83980, Note_on_c, 0, 70, 83
2, 83993, Control_c, 0, 64, 0
2, 84015, Note_on_c, 0, 69, 0
2, 84110, Note_on_c, 0, 52, 53
2, 84132, Note_on_c, 0, 53, 0
2, 84287, Note_on_c, 0, 50, 68
2, 84293, Note_on_c, 0, 52, 0
2, 84467, Note_on_c, 0, 50, 0
2, 84493, Note_on_c, 0, 52, 71
2, 84675, Note_on_c, 0, 73, 77
2, 84692, Note_on_c, 0, 70, 0
2, 84846, Note_on_c, 0, 72, 79
2, 84856, Note_on_c, 0, 73, 0
2, 84973, Note_on_c, 0, 52, 0
2, 85058, Note_on_c, 0, 73, 71
2, 85062, Note_on_c, 0, 72, 0
2, 85136, Note_on_c, 0, 73, 0
2, 85231, Note_on_c, 0, 70, 68
2, 85280, Note_on_c, 0, 70, 0
2, 85404, Note_on_c, 0, 67, 53
2, 85465, Note_on_c, 0, 67, 0
2, 85596, Note_on_c, 0, 64, 45
2, 85772, Note_on_c, 0, 55, 47
2, 85777, Note_on_c, 0, 64, 0
2, 85956, Note_on_c, 0, 55, 0
2, 85961, Note_on_c, 0, 48, 41
2, 85963, Note_on_c, 0, 70, 78
2, 86190, Note_on_c, 0, 53, 46
2, 86206, Note_on_c, 0, 48, 0
2, 86391, Note_on_c, 0, 68, 66
2, 86464, Note_on_c, 0, 70, 0
2, 86543, Note_on_c, 0, 68, 0
2, 86547, Note_on_c, 0, 67, 54
2, 86615, Note_on_c, 0, 67, 0
2, 86761, Note_on_c, 0, 68, 67
2, 86925, Note_on_c, 0, 72, 75
2, 87064, Note_on_c, 0, 53, 0
2, 87094, Note_on_c, 0, 77, 81
2, 87280, Note_on_c, 0, 80, 87
2, 87475, Note_on_c, 0, 51, 62
2, 87614, Note_on_c, 0, 77, 0
2, 87653, Note_on_c, 0, 72, 0
2, 87655, Note_on_c, 0, 48, 60
2, 87657, Note_on_c, 0, 51, 0
2, 87755, Note_on_c, 0, 80, 0
2, 87835, Note_on_c, 0, 48, 0
2, 87856, Note_on_c, 0, 50, 54
2, 87877, Note_on_c, 0, 68, 0
2, 88064, Note_on_c, 0, 80, 65
2, 88108, Note_on_c, 0, 50, 0
2, 88229, Note_on_c, 0, 79, 78
2, 88246, Note_on_c, 0, 80, 0
2, 88430, Note_on_c, 0, 80, 79
2, 88442, Note_on_c, 0, 79, 0
2, 88510, Note_on_c, 0, 80, 0
2, 88617, Note_on_c, 0, 77, 62
2, 88676, Note_on_c, 0, 77, 0
2, 88787, Note_on_c, 0, 74, 58
2, 88851, Note_on_c, 0, 74, 0
2, 88972, Note_on_c, 0, 70, 54
2, 89078, Note_on_c, 0, 70, 0
2, 89165, Note_on_c, 0, 62, 44
2, 89324, Note_on_c, 0, 62, 0
2, 89341, Note_on_c, 0, 80, 67
2, 89363, Note_on_c, 0, 58, 45
2, 89447, Control_c, 0, 64, 46
2, 89466, Control_c, 0, 64, 59
2, 89485, Control_c, 0, 64, 63
2, 89505, Control_c, 0, 64, 64
2, 89523, Note_on_c, 0, 58, 0
2, 89524, Control_c, 0, 64, 65
2, 89543, Control_c, 0, 64, 65
2, 89563, Note_on_c, 0, 63, 47
2, 89600, Control_c, 0, 64, 65
2, 89600, Note_on_c, 0, 80, 0
2, 89619, Control_c, 0, 64, 64
2, 89639, Control_c, 0, 64, 64
2, 89658, Control_c, 0, 64, 63
2, 89677, Control_c, 0, 64, 62
2, 89696, Control_c, 0, 64, 60
2, 89716, Control_c, 0, 64, 58
2, 89735, Control_c, 0, 64, 55
2, 89735, Note_on_c, 0, 79, 73
2, 89754, Control_c, 0, 64, 52
2, 89773, Control_c, 0, 64, 48
2, 89793, Control_c, 0, 64, 43
2, 89811, Control_c, 0, 64, 37
2, 89831, Control_c, 0, 64, 29
2, 89850, Control_c, 0, 64, 23
2, 89870, Control_c, 0, 64, 18
2, 89888, Control_c, 0, 64, 13
2, 89908, Control_c, 0, 64, 0
2, 89910, Note_on_c, 0, 77, 74
2, 89936, Note_on_c, 0, 79, 0
2, 90076, Note_on_c, 0, 63, 0
2, 90092, Note_on_c, 0, 79, 75
2, 90116, Note_on_c, 0, 77, 0
2, 90197, Note_on_c, 0, 79, 0
2, 90267, Note_on_c, 0, 75, 67
2, 90338, Note_on_c, 0, 75, 0
2, 90433, Note_on_c, 0, 70, 66
2, 90503, Note_on_c, 0, 70, 0
2, 90628, Note_on_c, 0, 67, 52
2, 90685, Note_on_c, 0, 67, 0
2, 90792, Note_on_c, 0, 55, 44
2, 90800, Note_on_c, 0, 70, 58
2, 90889, Note_on_c, 0, 70, 0
2, 90900, Note_on_c, 0, 55, 0
2, 90986, Note_on_c, 0, 51, 48
2, 91007, Note_on_c, 0, 73, 57
2, 91127, Note_on_c, 0, 51, 0
2, 91187, Note_on_c, 0, 56, 51
2, 91357, Note_on_c, 0, 72, 70
2, 91359, Note_on_c, 0, 56, 0
2, 91371, Note_on_c, 0, 51, 49
2, 91539, Note_on_c, 0, 70, 77
2, 91542, Note_on_c, 0, 73, 0
2, 91556, Note_on_c, 0, 49, 56
2, 91564, Note_on_c, 0, 51, 0
2, 91600, Note_on_c, 0, 72, 0
2, 91692, Note_on_c, 0, 49, 0
2, 91728, Note_on_c, 0, 68, 75
2, 91746, Note_on_c, 0, 48, 55
2, 91847, Note_on_c, 0, 70, 0
2, 91890, Note_on_c, 0, 68, 0
2, 91905, Note_on_c, 0, 67, 65
2, 91912, Note_on_c, 0, 46, 60
2, 92074, Note_on_c, 0, 48, 0
2, 92090, Note_on_c, 0, 65, 72
2, 92093, Note_on_c, 0, 44, 57
2, 92124, Note_on_c, 0, 67, 0
2, 92134, Note_on_c, 0, 46, 0
2, 92245, Note_on_c, 0, 44, 0
2, 92269, Note_on_c, 0, 43, 64
2, 92443, Note_on_c, 0, 48, 65
2, 92458, Note_on_c, 0, 63, 77
2, 92460, Note_on_c, 0, 43, 0
2, 92492, Note_on_c, 0, 65, 0
2, 92652, Note_on_c, 0, 46, 67
2, 92652, Note_on_c, 0, 66, 81
2, 92676, Note_on_c, 0, 63, 0
2, 92680, Note_on_c, 0, 48, 0
2, 92846, Note_on_c, 0, 45, 61
2, 92858, Note_on_c, 0, 46, 0
2, 92991, Note_on_c, 0, 45, 0
2, 93022, Note_on_c, 0, 46, 61
2, 93036, Note_on_c, 0, 65, 69
2, 93132, Note_on_c, 0, 45, 65
2, 93177, Note_on_c, 0, 46, 0
2, 93206, Note_on_c, 0, 43, 63
2, 93216, Note_on_c, 0, 66, 0
2, 93228, Note_on_c, 0, 45, 0
2, 93236, Note_on_c, 0, 63, 74
2, 93288, Note_on_c, 0, 65, 0
2, 93291, Note_on_c, 0, 45, 43
2, 93345, Note_on_c, 0, 43, 0
2, 93385, Note_on_c, 0, 45, 0
2, 93388, Note_on_c, 0, 46, 71
2, 93405, Note_on_c, 0, 62, 69
2, 93413, Note_on_c, 0, 63, 0
2, 93456, Note_on_c, 0, 62, 0
2, 93596, Note_on_c, 0, 46, 0
2, 93599, Note_on_c, 0, 60, 58
2, 93677, Note_on_c, 0, 60, 0
2, 93780, Note_on_c, 0, 58, 71
2, 93821, Note_on_c, 0, 58, 0
2, 93966, Note_on_c, 0, 56, 61
2, 94012, Note_on_c, 0, 56, 0
2, 94142, Note_on_c, 0, 55, 62
2, 94193, Note_on_c, 0, 55, 0
2, 94323, Note_on_c, 0, 53, 60
2, 94376, Note_on_c, 0, 53, 0
2, 94542, Note_on_c, 0, 55, 40
2, 94549, Note_on_c, 0, 46, 40
2, 94728, Note_on_c, 0, 63, 62
2, 94918, Note_on_c, 0, 62, 70
2, 94952, Note_on_c, 0, 63, 0
2, 95112, Note_on_c, 0, 63, 66
2, 95133, Note_on_c, 0, 62, 0
2, 95136, Note_on_c, 0, 55, 0
2, 95160, Note_on_c, 0, 46, 0
2, 95168, Note_on_c, 0, 63, 0
2, 95283, Note_on_c, 0, 58, 63
2, 95343, Note_on_c, 0, 58, 0
2, 95469, Note_on_c, 0, 56, 60
2, 95537, Note_on_c, 0, 56, 0
2, 95649, Note_on_c, 0, 55, 48
2, 95709, Note_on_c, 0, 55, 0
2, 95824, Note_on_c, 0, 53, 51
2, 95881, Note_on_c, 0, 53, 0
2, 96001, Note_on_c, 0, 51, 47
2, 96057, Note_on_c, 0, 51, 0
2, 96211, Note_on_c, 0, 50, 45
2, 96230, Note_on_c, 0, 46, 36
2, 96423, Note_on_c, 0, 65, 52
2, 96553, Note_on_c, 0, 65, 0
2, 96588, Note_on_c, 0, 63, 70
2, 96726, Note_on_c, 0, 63, 0
2, 96794, Note_on_c, 0, 65, 63
2, 96824, Note_on_c, 0, 46, 0
2, 96831, Note_on_c, 0, 50, 0
2, 96859, Note_on_c, 0, 65, 0
2, 96968, Note_on_c, 0, 62, 58
2, 97026, Note_on_c, 0, 62, 0
2, 97143, Note_on_c, 0, 58, 58
2, 97208, Note_on_c, 0, 58, 0
2, 97347, Note_on_c, 0, 56, 54
2, 97414, Note_on_c, 0, 56, 0
2, 97528, Note_on_c, 0, 55, 50
2, 97579, Note_on_c, 0, 55, 0
2, 97701, Note_on_c, 0, 53, 55
2, 97759, Note_on_c, 0, 53, 0
2, 97935, Note_on_c, 0, 51, 44
2, 97950, Note_on_c, 0, 46, 29
2, 98144, Note_on_c, 0, 67, 59
2, 98318, Note_on_c, 0, 65, 77
2, 98357, Note_on_c, 0, 67, 0
2, 98443, Note_on_c, 0, 65, 0
2, 98464, Note_on_c, 0, 46, 0
2, 98476, Note_on_c, 0, 51, 0
2, 98501, Note_on_c, 0, 67, 75
2, 98600, Note_on_c, 0, 67, 0
2, 98677, Note_on_c, 0, 63, 70
2, 98727, Note_on_c, 0, 63, 0
2, 98848, Note_on_c, 0, 60, 74
2, 98928, Note_on_c, 0, 60, 0
2, 99031, Note_on_c, 0, 58, 73
2, 99099, Note_on_c, 0, 58, 0
2, 99223, Note_on_c, 0, 56, 76
2, 99270, Note_on_c, 0, 56, 0
2, 99394, Note_on_c, 0, 55, 70
2, 99469, Note_on_c, 0, 55, 0
2, 99588, Note_on_c, 0, 53, 71
2, 99589, Note_on_c, 0, 50, 66
2, 99594, Note_on_c, 0, 46, 58
2, 99758, Note_on_c, 0, 68, 75
2, 99932, Note_on_c, 0, 68, 0
2, 99936, Note_on_c, 0, 67, 75
2, 100120, Note_on_c, 0, 68, 85
2, 100130, Note_on_c, 0, 67, 0
2, 100132, Note_on_c, 0, 53, 0
2, 100138, Note_on_c, 0, 50, 0
2, 100154, Note_on_c, 0, 46, 0
2, 100196, Note_on_c, 0, 68, 0
2, 100309, Note_on_c, 0, 65, 67
2, 100380, Note_on_c, 0, 65, 0
2, 100479, Note_on_c, 0, 62, 72
2, 100562, Note_on_c, 0, 62, 0
2, 100666, Note_on_c, 0, 60, 70
2, 100719, Note_on_c, 0, 60, 0
2, 100849, Note_on_c, 0, 58, 64
2, 100899, Note_on_c, 0, 58, 0
2, 101030, Note_on_c, 0, 56, 65
2, 101088, Note_on_c, 0, 56, 0
2, 101235, Note_on_c, 0, 70, 82
2, 101247, Note_on_c, 0, 55, 46
2, 101247, Note_on_c, 0, 67, 60
2, 101259, Note_on_c, 0, 63, 58
2, 101426, Note_on_c, 0, 55, 0
2, 101446, Note_on_c, 0, 58, 66
2, 101629, Note_on_c, 0, 56, 78
2, 101656, Note_on_c, 0, 58, 0
2, 101741, Note_on_c, 0, 56, 0
2, 101813, Note_on_c, 0, 58, 72
2, 101881, Note_on_c, 0, 58, 0
2, 101972, Note_on_c, 0, 63, 0
2, 101982, Note_on_c, 0, 55, 67
2, 102044, Note_on_c, 0, 67, 0
2, 102050, Note_on_c, 0, 55, 0
2, 102104, Note_on_c, 0, 70, 0
2, 102154, Note_on_c, 0, 51, 58
2, 102218, Note_on_c, 0, 51, 0
2, 102373, Note_on_c, 0, 46, 42
2, 102582, Note_on_c, 0, 67, 47
2, 102722, Note_on_c, 0, 46, 0
2, 102734, Note_on_c, 0, 67, 0
2, 102753, Note_on_c, 0, 75, 69
2, 102810, Note_on_c, 0, 75, 0
2, 102965, Note_on_c, 0, 75, 52
2, 102985, Note_on_c, 0, 65, 40
2, 103137, Note_on_c, 0, 75, 0
2, 103165, Note_on_c, 0, 58, 41
2, 103187, Note_on_c, 0, 74, 46
2, 103339, Note_on_c, 0, 57, 55
2, 103402, Note_on_c, 0, 58, 0
2, 103403, Note_on_c, 0, 57, 0
2, 103533, Note_on_c, 0, 58, 58
2, 103607, Note_on_c, 0, 58, 0
2, 103714, Note_on_c, 0, 53, 52
2, 103724, Note_on_c, 0, 74, 0
2, 103779, Note_on_c, 0, 53, 0
2, 103900, Note_on_c, 0, 50, 54
2, 103932, Note_on_c, 0, 65, 0
2, 103975, Note_on_c, 0, 50, 0
2, 104120, Note_on_c, 0, 46, 35
2, 104304, Note_on_c, 0, 65, 55
2, 104358, Note_on_c, 0, 46, 0
2, 104499, Note_on_c, 0, 67, 65
2, 104519, Note_on_c, 0, 65, 0
2, 104705, Note_on_c, 0, 68, 75
2, 104718, Note_on_c, 0, 67, 0
2, 104851, Note_on_c, 0, 68, 0
2, 104877, Note_on_c, 0, 60, 60
2, 105057, Note_on_c, 0, 55, 51
2, 105067, Note_on_c, 0, 63, 60
2, 105070, Note_on_c, 0, 60, 0
2, 105228, Note_on_c, 0, 53, 61
2, 105232, Note_on_c, 0, 55, 0
2, 105245, Note_on_c, 0, 63, 0
2, 105260, Note_on_c, 0, 62, 65
2, 105433, Note_on_c, 0, 65, 62
2, 105462, Note_on_c, 0, 62, 0
2, 105597, Note_on_c, 0, 65, 0
2, 105601, Note_on_c, 0, 51, 52
2, 105608, Note_on_c, 0, 70, 69
2, 105641, Note_on_c, 0, 53, 0
2, 105742, Note_on_c, 0, 51, 0
2, 105782, Note_on_c, 0, 50, 61
2, 105797, Note_on_c, 0, 58, 53
2, 105862, Note_on_c, 0, 70, 0
2, 105975, Note_on_c, 0, 65, 47
2, 106067, Note_on_c, 0, 58, 0
2, 106137, Note_on_c, 0, 46, 47
2, 106152, Note_on_c, 0, 65, 0
2, 106157, Note_on_c, 0, 68, 60
2, 106266, Note_on_c, 0, 50, 0
2, 106306, Note_on_c, 0, 68, 0
2, 106339, Note_on_c, 0, 39, 48
2, 106340, Note_on_c, 0, 67, 53
2, 106346, Note_on_c, 0, 46, 0
2, 106455, Note_on_c, 0, 67, 0
2, 106503, Note_on_c, 0, 39, 0
2, 106518, Note_on_c, 0, 58, 64
2, 106702, Note_on_c, 0, 53, 68
2, 106728, Note_on_c, 0, 58, 0
2, 106730, Note_on_c, 0, 61, 56
2, 106871, Note_on_c, 0, 51, 71
2, 106896, Note_on_c, 0, 61, 0
2, 106910, Note_on_c, 0, 60, 61
2, 106971, Note_on_c, 0, 53, 0
2, 107073, Note_on_c, 0, 63, 66
2, 107078, Note_on_c, 0, 60, 0
2, 107246, Note_on_c, 0, 68, 67
2, 107250, Note_on_c, 0, 49, 61
2, 107318, Note_on_c, 0, 51, 0
2, 107319, Note_on_c, 0, 63, 0
2, 107384, Note_on_c, 0, 49, 0
2, 107388, Note_on_c, 0, 68, 0
2, 107423, Note_on_c, 0, 48, 65
2, 107432, Note_on_c, 0, 56, 61
2, 107601, Note_on_c, 0, 63, 62
2, 107736, Note_on_c, 0, 56, 0
2, 107786, Note_on_c, 0, 44, 45
2, 107789, Note_on_c, 0, 67, 58
2, 107807, Note_on_c, 0, 48, 0
2, 107932, Note_on_c, 0, 63, 0
2, 107947, Note_on_c, 0, 44, 0
2, 107973, Note_on_c, 0, 38, 59
2, 107975, Note_on_c, 0, 65, 53
2, 108063, Note_on_c, 0, 38, 0
2, 108101, Note_on_c, 0, 65, 0
2, 108110, Note_on_c, 0, 67, 0
2, 108154, Note_on_c, 0, 56, 57
2, 108333, Note_on_c, 0, 56, 0
2, 108354, Note_on_c, 0, 60, 56
2, 108357, Note_on_c, 0, 51, 44
2, 108471, Note_on_c, 0, 51, 0
2, 108532, Note_on_c, 0, 50, 53
2, 108537, Note_on_c, 0, 60, 0
2, 108543, Note_on_c, 0, 58, 58
2, 108732, Note_on_c, 0, 62, 64
2, 108751, Note_on_c, 0, 58, 0
2, 108900, Note_on_c, 0, 67, 66
2, 108905, Note_on_c, 0, 48, 60
2, 108911, Note_on_c, 0, 50, 0
2, 108964, Note_on_c, 0, 62, 0
2, 109021, Note_on_c, 0, 67, 0
2, 109068, Note_on_c, 0, 48, 0
2, 109093, Note_on_c, 0, 55, 57
2, 109099, Note_on_c, 0, 46, 55
2, 109220, Control_c, 0, 64, 24
2, 109239, Control_c, 0, 64, 47
2, 109250, Note_on_c, 0, 62, 62
2, 109258, Control_c, 0, 64, 58
2, 109278, Control_c, 0, 64, 62
2, 109296, Control_c, 0, 64, 64
2, 109315, Control_c, 0, 64, 65
2, 109335, Control_c, 0, 64, 67
2, 109354, Control_c, 0, 64, 69
2, 109373, Control_c, 0, 64, 72
2, 109392, Control_c, 0, 64, 76
2, 109412, Control_c, 0, 64, 80
2, 109424, Note_on_c, 0, 65, 69
2, 109431, Control_c, 0, 64, 84
2, 109433, Note_on_c, 0, 46, 0
2, 109444, Note_on_c, 0, 55, 0
2, 109445, Note_on_c, 0, 43, 58
2, 109451, Control_c, 0, 64, 88
2, 109468, Note_on_c, 0, 62, 0
2, 109470, Control_c, 0, 64, 92
2, 109482, Note_on_c, 0, 43, 0
2, 109490, Control_c, 0, 64, 97
2, 109508, Control_c, 0, 64, 98
2, 109528, Control_c, 0, 64, 99
2, 109566, Control_c, 0, 64, 98
2, 109585, Control_c, 0, 64, 96
2, 109600, Note_on_c, 0, 63, 73
2, 109605, Control_c, 0, 64, 86
2, 109624, Control_c, 0, 64, 69
2, 109629, Note_on_c, 0, 36, 64
2, 109643, Control_c, 0, 64, 55
2, 109662, Control_c, 0, 64, 0
2, 109717, Note_on_c, 0, 65, 0
2, 109718, Note_on_c, 0, 36, 0
2, 109780, Note_on_c, 0, 55, 67
2, 109780, Note_on_c, 0, 63, 0
2, 109939, Note_on_c, 0, 55, 0
2, 109961, Note_on_c, 0, 50, 62
2, 109980, Note_on_c, 0, 58, 70
2, 110125, Note_on_c, 0, 58, 0
2, 110146, Note_on_c, 0, 50, 0
2, 110153, Note_on_c, 0, 48, 63
2, 110153, Note_on_c, 0, 56, 68
2, 110317, Note_on_c, 0, 60, 66
2, 110406, Note_on_c, 0, 56, 0
2, 110498, Note_on_c, 0, 65, 65
2, 110500, Note_on_c, 0, 46, 58
2, 110519, Note_on_c, 0, 48, 0
2, 110557, Note_on_c, 0, 60, 0
2, 110677, Note_on_c, 0, 46, 0
2, 110682, Note_on_c, 0, 53, 67
2, 110684, Note_on_c, 0, 44, 61
2, 110852, Note_on_c, 0, 60, 66
2, 110909, Note_on_c, 0, 53, 0
2, 110910, Note_on_c, 0, 65, 0
2, 111044, Note_on_c, 0, 63, 71
2, 111045, Note_on_c, 0, 43, 51
2, 111048, Note_on_c, 0, 44, 0
2, 111130, Note_on_c, 0, 60, 0
2, 111279, Note_on_c, 0, 43, 0
2, 111329, Note_on_c, 0, 44, 44
2, 111329, Note_on_c, 0, 62, 80
2, 111342, Note_on_c, 0, 58, 71
2, 111348, Note_on_c, 0, 53, 54
2, 111414, Note_on_c, 0, 63, 0
2, 112350, Note_on_c, 0, 58, 0
2, 112364, Note_on_c, 0, 53, 0
2, 112364, Note_on_c, 0, 62, 0
2, 112373, Note_on_c, 0, 44, 0
2, 112976, Note_on_c, 0, 80, 80
2, 112985, Note_on_c, 0, 77, 68
2, 112992, Note_on_c, 0, 70, 69
2, 112994, Note_on_c, 0, 50, 48
2, 113198, Note_on_c, 0, 70, 0
2, 113231, Note_on_c, 0, 80, 0
2, 113245, Note_on_c, 0, 50, 0
2, 113270, Note_on_c, 0, 79, 82
2, 113274, Note_on_c, 0, 51, 54
2, 113280, Note_on_c, 0, 75, 69
2, 113282, Note_on_c, 0, 70, 64
2, 113296, Note_on_c, 0, 77, 0
2, 113538, Note_on_c, 0, 53, 51
2, 113548, Note_on_c, 0, 51, 0
2, 113587, Note_on_c, 0, 53, 0
2, 113617, Note_on_c, 0, 55, 62
2, 113715, Note_on_c, 0, 55, 0
2, 113736, Note_on_c, 0, 56, 62
2, 113850, Note_on_c, 0, 58, 63
2, 113871, Note_on_c, 0, 56, 0
2, 113926, Note_on_c, 0, 58, 0
2, 113946, Note_on_c, 0, 60, 60
2, 114005, Note_on_c, 0, 79, 0
2, 114037, Note_on_c, 0, 62, 68
2, 114042, Note_on_c, 0, 60, 0
2, 114051, Note_on_c, 0, 75, 0
2, 114083, Note_on_c, 0, 70, 0
2, 114120, Note_on_c, 0, 62, 0
2, 114141, Note_on_c, 0, 63, 72
2, 114368, Note_on_c, 0, 63, 0
2, 114377, Note_on_c, 0, 77, 83
2, 114386, Note_on_c, 0, 56, 59
2, 114395, Note_on_c, 0, 68, 67
2, 114395, Note_on_c, 0, 72, 66
2, 114424, Control_c, 0, 64, 9
2, 114443, Control_c, 0, 64, 58
2, 114462, Control_c, 0, 64, 64
2, 114482, Control_c, 0, 64, 66
2, 114501, Control_c, 0, 64, 67
2, 114520, Control_c, 0, 64, 68
2, 114527, Note_on_c, 0, 72, 0
2, 114539, Control_c, 0, 64, 70
2, 114559, Control_c, 0, 64, 71
2, 114577, Control_c, 0, 64, 73
2, 114596, Control_c, 0, 64, 74
2, 114613, Note_on_c, 0, 68, 0
2, 114635, Control_c, 0, 64, 73
2, 114654, Control_c, 0, 64, 69
2, 114672, Note_on_c, 0, 75, 82
2, 114673, Control_c, 0, 64, 62
2, 114678, Note_on_c, 0, 67, 62
2, 114681, Note_on_c, 0, 58, 54
2, 114685, Note_on_c, 0, 56, 0
2, 114691, Note_on_c, 0, 70, 68
2, 114693, Control_c, 0, 64, 46
2, 114711, Control_c, 0, 64, 0
2, 114714, Note_on_c, 0, 77, 0
2, 115039, Control_c, 0, 64, 33
2, 115057, Control_c, 0, 64, 55
2, 115076, Control_c, 0, 64, 61
2, 115096, Control_c, 0, 64, 63
2, 115115, Control_c, 0, 64, 63
2, 115134, Control_c, 0, 64, 64
2, 115153, Control_c, 0, 64, 65
2, 115173, Control_c, 0, 64, 66
2, 115191, Control_c, 0, 64, 68
2, 115211, Control_c, 0, 64, 71
2, 115230, Control_c, 0, 64, 76
2, 115250, Control_c, 0, 64, 80
2, 115268, Control_c, 0, 64, 86
2, 115288, Control_c, 0, 64, 91
2, 115307, Control_c, 0, 64, 96
2, 115314, Note_on_c, 0, 70, 0
2, 115326, Control_c, 0, 64, 101
2, 115345, Control_c, 0, 64, 108
2, 115365, Control_c, 0, 64, 127
2, 115369, Note_on_c, 0, 67, 0
2, 115479, Note_on_c, 0, 75, 0
2, 115614, Note_on_c, 0, 46, 50
2, 115656, Note_on_c, 0, 74, 75
2, 115671, Control_c, 0, 64, 98
2, 115674, Note_on_c, 0, 65, 63
2, 115691, Control_c, 0, 64, 78
2, 115710, Control_c, 0, 64, 65
2, 115730, Control_c, 0, 64, 49
2, 115748, Control_c, 0, 64, 27
2, 115768, Control_c, 0, 64, 21
2, 115825, Control_c, 0, 64, 15
2, 115845, Control_c, 0, 64, 0
2, 115904, Note_on_c, 0, 74, 0
2, 115912, Note_on_c, 0, 75, 71
2, 116028, Note_on_c, 0, 75, 0
2, 116042, Note_on_c, 0, 74, 67
2, 116112, Note_on_c, 0, 74, 0
2, 116153, Note_on_c, 0, 75, 72
2, 116226, Note_on_c, 0, 75, 0
2, 116235, Note_on_c, 0, 74, 75
2, 116305, Note_on_c, 0, 74, 0
2, 116332, Note_on_c, 0, 75, 67
2, 116372, Note_on_c, 0, 74, 65
2, 116380, Note_on_c, 0, 75, 0
2, 116450, Note_on_c, 0, 74, 0
2, 116454, Note_on_c, 0, 75, 73
2, 116502, Note_on_c, 0, 74, 60
2, 116526, Note_on_c, 0, 75, 0
2, 117246, Note_on_c, 0, 74, 0
2, 117262, Note_on_c, 0, 75, 57
2, 117476, Control_c, 0, 64, 49
2, 117496, Control_c, 0, 64, 61
2, 117515, Control_c, 0, 64, 64
2, 117534, Control_c, 0, 64, 65
2, 117553, Control_c, 0, 64, 66
2, 117573, Control_c, 0, 64, 68
2, 117591, Control_c, 0, 64, 72
2, 117611, Control_c, 0, 64, 77
2, 117630, Control_c, 0, 64, 83
2, 117650, Control_c, 0, 64, 90
2, 117668, Control_c, 0, 64, 96
2, 117669, Note_on_c, 0, 65, 0
2, 117688, Control_c, 0, 64, 103
2, 117707, Control_c, 0, 64, 110
2, 117722, Note_on_c, 0, 75, 0
2, 117726, Control_c, 0, 64, 116
2, 117745, Control_c, 0, 64, 118
2, 117822, Control_c, 0, 64, 115
2, 117842, Control_c, 0, 64, 106
2, 117851, Note_on_c, 0, 51, 39
2, 117860, Note_on_c, 0, 75, 65
2, 117861, Control_c, 0, 64, 96
2, 117875, Note_on_c, 0, 67, 47
2, 117880, Control_c, 0, 64, 83
2, 117899, Control_c, 0, 64, 73
2, 117919, Control_c, 0, 64, 66
2, 117937, Control_c, 0, 64, 62
2, 117940, Note_on_c, 0, 58, 0
2, 117956, Control_c, 0, 64, 58
2, 117976, Control_c, 0, 64, 54
2, 117991, Note_on_c, 0, 46, 0
2, 117996, Control_c, 0, 64, 51
2, 118015, Control_c, 0, 64, 49
2, 118034, Control_c, 0, 64, 46
2, 118054, Control_c, 0, 64, 42
2, 118072, Control_c, 0, 64, 34
2, 118091, Control_c, 0, 64, 26
2, 118110, Control_c, 0, 64, 20
2, 118130, Control_c, 0, 64, 18
2, 118148, Control_c, 0, 64, 15
2, 118154, Note_on_c, 0, 75, 0
2, 118168, Control_c, 0, 64, 11
2, 118186, Note_on_c, 0, 70, 55
2, 118187, Control_c, 0, 64, 0
2, 118387, Note_on_c, 0, 68, 63
2, 118403, Note_on_c, 0, 70, 0
2, 118445, Note_on_c, 0, 67, 0
2, 118570, Note_on_c, 0, 68, 0
2, 118573, Note_on_c, 0, 70, 64
2, 118753, Note_on_c, 0, 67, 62
2, 118760, Note_on_c, 0, 70, 0
2, 118906, Note_on_c, 0, 67, 0
2, 118933, Note_on_c, 0, 65, 61
2, 119128, Note_on_c, 0, 67, 60
2, 119143, Note_on_c, 0, 65, 0
2, 119295, Note_on_c, 0, 63, 70
2, 119301, Note_on_c, 0, 67, 0
2, 119368, Note_on_c, 0, 51, 0
2, 119468, Note_on_c, 0, 62, 65
2, 119495, Note_on_c, 0, 63, 0
2, 119629, Note_on_c, 0, 62, 0
2, 119667, Note_on_c, 0, 63, 62
2, 119845, Note_on_c, 0, 58, 57
2, 119870, Note_on_c, 0, 63, 0
2, 120003, Note_on_c, 0, 58, 0
2, 120029, Note_on_c, 0, 56, 59
2, 120229, Note_on_c, 0, 56, 0
2, 120235, Note_on_c, 0, 58, 53
2, 120412, Note_on_c, 0, 55, 57
2, 120436, Note_on_c, 0, 58, 0
2, 120578, Note_on_c, 0, 55, 0
2, 120607, Note_on_c, 0, 53, 60
2, 120820, Note_on_c, 0, 55, 54
2, 120846, Note_on_c, 0, 53, 0
2, 121024, Note_on_c, 0, 51, 53
2, 121061, Note_on_c, 0, 55, 0
2, 121221, Note_on_c, 0, 51, 0
2, 121233, Note_on_c, 0, 50, 55
2, 121683, Note_on_c, 0, 50, 0
2, 121708, Note_on_c, 0, 51, 51
2, 121795, Note_on_c, 0, 51, 0
2, 121820, Note_on_c, 0, 50, 55
2, 121949, Note_on_c, 0, 50, 0
2, 121960, Note_on_c, 0, 51, 47
2, 123371, Note_on_c, 0, 39, 42
2, 123410, Note_on_c, 0, 51, 0
2, 125908, Note_on_c, 0, 39, 0
2, 127759, Note_on_c, 0, 51, 53
2, 128858, Control_c, 0, 64, 9
2, 128916, Control_c, 0, 64, 11
2, 128955, Control_c, 0, 64, 13
2, 128993, Control_c, 0, 64, 17
2, 129012, Control_c, 0, 64, 18
2, 129032, Control_c, 0, 64, 19
2, 129050, Control_c, 0, 64, 20
2, 129070, Control_c, 0, 64, 21
2, 129089, Control_c, 0, 64, 22
2, 129127, Control_c, 0, 64, 23
2, 129146, Control_c, 0, 64, 24
2, 129166, Control_c, 0, 64, 25
2, 129184, Control_c, 0, 64, 26
2, 129223, Control_c, 0, 64, 27
2, 129243, Control_c, 0, 64, 27
2, 129281, Control_c, 0, 64, 28
2, 129319, Control_c, 0, 64, 29
2, 129358, Control_c, 0, 64, 29
2, 129467, Note_on_c, 0, 58, 51
2, 129534, Note_on_c, 0, 51, 0
2, 129550, Control_c, 0, 64, 29
2, 129569, Control_c, 0, 64, 27
2, 129589, Control_c, 0, 64, 21
2, 129607, Control_c, 0, 64, 9
2, 129626, Control_c, 0, 64, 0
2, 130264, Note_on_c, 0, 58, 0
2, 130717, Note_on_c, 0, 56, 46
2, 131113, Note_on_c, 0, 55, 50
2, 131133, Note_on_c, 0, 56, 0
2, 131531, Note_on_c, 0, 55, 0
2, 131538, Note_on_c, 0, 60, 53
2, 132346, Note_on_c, 0, 58, 46
2, 132370, Note_on_c, 0, 60, 0
2, 132726, Note_on_c, 0, 58, 0
2, 132754, Note_on_c, 0, 56, 47
2, 132948, Control_c, 0, 64, 36
2, 132967, Control_c, 0, 64, 54
2, 132986, Control_c, 0, 64, 59
2, 132993, Note_on_c, 0, 56, 0
2, 133006, Control_c, 0, 64, 60
2, 133024, Control_c, 0, 64, 61
2, 133063, Control_c, 0, 64, 60
2, 133101, Control_c, 0, 64, 60
2, 133121, Control_c, 0, 64, 59
2, 133140, Control_c, 0, 64, 58
2, 133159, Control_c, 0, 64, 55
2, 133163, Note_on_c, 0, 56, 49
2, 133178, Control_c, 0, 64, 52
2, 133198, Control_c, 0, 64, 50
2, 133217, Control_c, 0, 64, 48
2, 133236, Control_c, 0, 64, 48
2, 133255, Control_c, 0, 64, 47
2, 133275, Control_c, 0, 64, 45
2, 133293, Control_c, 0, 64, 42
2, 133303, Note_on_c, 0, 56, 0
2, 133313, Control_c, 0, 64, 39
2, 133317, Note_on_c, 0, 55, 50
2, 133332, Control_c, 0, 64, 39
2, 133353, Control_c, 0, 64, 38
2, 133371, Control_c, 0, 64, 38
2, 133391, Control_c, 0, 64, 37
2, 133410, Control_c, 0, 64, 36
2, 133428, Control_c, 0, 64, 35
2, 133448, Control_c, 0, 64, 34
2, 133487, Control_c, 0, 64, 33
2, 133502, Note_on_c, 0, 55, 0
2, 133505, Control_c, 0, 64, 32
2, 133525, Control_c, 0, 64, 31
2, 133535, Note_on_c, 0, 56, 52
2, 133544, Control_c, 0, 64, 29
2, 133564, Control_c, 0, 64, 26
2, 133582, Control_c, 0, 64, 23
2, 133602, Control_c, 0, 64, 20
2, 133621, Control_c, 0, 64, 18
2, 133640, Control_c, 0, 64, 17
2, 133679, Control_c, 0, 64, 15
2, 133698, Control_c, 0, 64, 13
2, 133736, Control_c, 0, 64, 11
2, 133871, Control_c, 0, 64, 9
2, 133905, Note_on_c, 0, 60, 55
2, 133928, Note_on_c, 0, 56, 0
2, 134311, Note_on_c, 0, 53, 55
2, 134322, Note_on_c, 0, 60, 0
2, 134782, Note_on_c, 0, 53, 0
2, 134785, Note_on_c, 0, 58, 49
2, 134965, Control_c, 0, 64, 0
2, 135571, Note_on_c, 0, 56, 50
2, 135588, Note_on_c, 0, 58, 0
2, 135926, Note_on_c, 0, 56, 0
2, 135951, Note_on_c, 0, 55, 44
2, 136194, Control_c, 0, 64, 30
2, 136210, Note_on_c, 0, 55, 0
2, 136213, Control_c, 0, 64, 51
2, 136233, Control_c, 0, 64, 57
2, 136251, Control_c, 0, 64, 58
2, 136271, Control_c, 0, 64, 59
2, 136327, Control_c, 0, 64, 58
2, 136346, Control_c, 0, 64, 58
2, 136366, Control_c, 0, 64, 57
2, 136378, Note_on_c, 0, 55, 41
2, 136384, Control_c, 0, 64, 56
2, 136404, Control_c, 0, 64, 55
2, 136423, Control_c, 0, 64, 54
2, 136443, Control_c, 0, 64, 52
2, 136461, Control_c, 0, 64, 50
2, 136481, Control_c, 0, 64, 48
2, 136493, Note_on_c, 0, 55, 0
2, 136500, Control_c, 0, 64, 46
2, 136519, Control_c, 0, 64, 45
2, 136526, Note_on_c, 0, 53, 41
2, 136538, Control_c, 0, 64, 43
2, 136558, Control_c, 0, 64, 41
2, 136577, Control_c, 0, 64, 37
2, 136596, Control_c, 0, 64, 31
2, 136615, Control_c, 0, 64, 21
2, 136635, Control_c, 0, 64, 9
2, 136653, Control_c, 0, 64, 0
2, 136728, Note_on_c, 0, 53, 0
2, 136751, Note_on_c, 0, 55, 42
2, 136941, Control_c, 0, 64, 40
2, 136961, Control_c, 0, 64, 58
2, 136980, Control_c, 0, 64, 62
2, 136999, Control_c, 0, 64, 64
2, 137018, Control_c, 0, 64, 65
2, 137038, Control_c, 0, 64, 66
2, 137057, Control_c, 0, 64, 69
2, 137067, Note_on_c, 0, 55, 0
2, 137076, Control_c, 0, 64, 73
2, 137095, Control_c, 0, 64, 79
2, 137115, Control_c, 0, 64, 87
2, 137128, Note_on_c, 0, 58, 53
2, 137133, Control_c, 0, 64, 95
2, 137153, Control_c, 0, 64, 112
2, 137172, Control_c, 0, 64, 127
2, 137426, Note_on_c, 0, 58, 0
2, 137594, Control_c, 0, 64, 117
2, 137613, Control_c, 0, 64, 99
2, 137632, Control_c, 0, 64, 88
2, 137636, Note_on_c, 0, 51, 36
2, 137644, Note_on_c, 0, 58, 69
2, 137651, Control_c, 0, 64, 79
2, 137671, Control_c, 0, 64, 71
2, 137689, Control_c, 0, 64, 65
2, 137708, Control_c, 0, 64, 61
2, 137728, Control_c, 0, 64, 55
2, 137747, Control_c, 0, 64, 49
2, 137766, Control_c, 0, 64, 43
2, 137785, Control_c, 0, 64, 40
2, 137805, Control_c, 0, 64, 39
2, 137823, Control_c, 0, 64, 35
2, 137843, Control_c, 0, 64, 28
2, 137854, Note_on_c, 0, 51, 0
2, 137862, Control_c, 0, 64, 17
2, 137882, Control_c, 0, 64, 0
2, 138025, Note_on_c, 0, 51, 36
2, 138170, Note_on_c, 0, 51, 0
2, 138193, Note_on_c, 0, 50, 46
2, 138359, Note_on_c, 0, 50, 0
2, 138386, Note_on_c, 0, 51, 45
2, 138797, Note_on_c, 0, 55, 38
2, 139223, Note_on_c, 0, 51, 0
2, 139260, Note_on_c, 0, 63, 66
2, 139267, Note_on_c, 0, 48, 40
2, 139314, Note_on_c, 0, 55, 0
2, 139449, Note_on_c, 0, 58, 0
2, 139677, Note_on_c, 0, 50, 45
2, 139689, Note_on_c, 0, 48, 0
2, 139830, Note_on_c, 0, 51, 52
2, 139866, Note_on_c, 0, 50, 0
2, 139968, Note_on_c, 0, 63, 0
2, 140044, Note_on_c, 0, 53, 58
2, 140046, Note_on_c, 0, 51, 0
2, 140407, Note_on_c, 0, 63, 67
2, 140810, Note_on_c, 0, 53, 0
2, 140821, Note_on_c, 0, 63, 0
2, 140830, Note_on_c, 0, 62, 64
2, 140831, Note_on_c, 0, 46, 45
2, 141246, Note_on_c, 0, 67, 66
2, 141294, Note_on_c, 0, 62, 0
2, 141652, Note_on_c, 0, 58, 43
2, 141662, Note_on_c, 0, 46, 0
2, 142001, Note_on_c, 0, 65, 57
2, 142012, Note_on_c, 0, 67, 0
2, 142386, Note_on_c, 0, 65, 0
2, 142410, Note_on_c, 0, 63, 55
2, 142626, Control_c, 0, 64, 31
2, 142646, Control_c, 0, 64, 53
2, 142665, Control_c, 0, 64, 60
2, 142685, Control_c, 0, 64, 61
2, 142698, Note_on_c, 0, 63, 0
2, 142703, Control_c, 0, 64, 62
2, 142799, Control_c, 0, 64, 61
2, 142804, Note_on_c, 0, 63, 56
2, 142819, Control_c, 0, 64, 60
2, 142837, Control_c, 0, 64, 59
2, 142857, Control_c, 0, 64, 58
2, 142876, Control_c, 0, 64, 57
2, 142896, Control_c, 0, 64, 56
2, 142914, Control_c, 0, 64, 53
2, 142934, Control_c, 0, 64, 50
2, 142949, Note_on_c, 0, 62, 62
2, 142953, Control_c, 0, 64, 47
2, 142972, Control_c, 0, 64, 44
2, 142986, Note_on_c, 0, 63, 0
2, 142991, Control_c, 0, 64, 40
2, 143011, Control_c, 0, 64, 37
2, 143030, Control_c, 0, 64, 35
2, 143049, Control_c, 0, 64, 32
2, 143068, Control_c, 0, 64, 28
2, 143087, Note_on_c, 0, 58, 0
2, 143088, Control_c, 0, 64, 23
2, 143106, Control_c, 0, 64, 20
2, 143112, Note_on_c, 0, 62, 0
2, 143126, Control_c, 0, 64, 18
2, 143145, Control_c, 0, 64, 15
2, 143154, Note_on_c, 0, 63, 61
2, 143164, Note_on_c, 0, 57, 53
2, 143165, Control_c, 0, 64, 0
2, 143502, Note_on_c, 0, 55, 52
2, 143503, Note_on_c, 0, 67, 67
2, 143574, Note_on_c, 0, 57, 0
2, 143612, Note_on_c, 0, 63, 0
2, 143871, Note_on_c, 0, 57, 52
2, 143891, Note_on_c, 0, 60, 67
2, 143896, Note_on_c, 0, 55, 0
2, 143950, Note_on_c, 0, 67, 0
2, 144248, Note_on_c, 0, 65, 64
2, 144317, Note_on_c, 0, 60, 0
2, 144478, Note_on_c, 0, 57, 0
2, 144509, Note_on_c, 0, 58, 44
2, 144578, Note_on_c, 0, 58, 0
2, 144585, Note_on_c, 0, 57, 57
2, 144669, Note_on_c, 0, 55, 53
2, 144684, Note_on_c, 0, 57, 0
2, 145006, Note_on_c, 0, 55, 0
2, 145027, Note_on_c, 0, 63, 56
2, 145044, Note_on_c, 0, 57, 46
2, 145070, Note_on_c, 0, 65, 0
2, 145360, Note_on_c, 0, 57, 0
2, 145418, Note_on_c, 0, 62, 53
2, 145421, Note_on_c, 0, 63, 0
2, 145448, Note_on_c, 0, 58, 24
2, 145579, Control_c, 0, 64, 39
2, 145599, Control_c, 0, 64, 54
2, 145618, Control_c, 0, 64, 58
2, 145638, Control_c, 0, 64, 59
2, 145656, Control_c, 0, 64, 59
2, 145720, Note_on_c, 0, 62, 0
2, 145790, Control_c, 0, 64, 59
2, 145809, Note_on_c, 0, 62, 51
2, 145810, Control_c, 0, 64, 58
2, 145832, Control_c, 0, 64, 57
2, 145838, Note_on_c, 0, 46, 37
2, 145850, Control_c, 0, 64, 56
2, 145863, Note_on_c, 0, 58, 0
2, 145869, Control_c, 0, 64, 55
2, 145889, Control_c, 0, 64, 54
2, 145908, Control_c, 0, 64, 52
2, 145927, Control_c, 0, 64, 50
2, 145930, Note_on_c, 0, 62, 0
2, 145946, Control_c, 0, 64, 48
2, 145954, Note_on_c, 0, 60, 64
2, 145966, Control_c, 0, 64, 45
2, 145984, Control_c, 0, 64, 42
2, 146004, Control_c, 0, 64, 39
2, 146023, Control_c, 0, 64, 38
2, 146043, Control_c, 0, 64, 36
2, 146061, Control_c, 0, 64, 32
2, 146081, Control_c, 0, 64, 28
2, 146100, Control_c, 0, 64, 25
2, 146117, Note_on_c, 0, 60, 0
2, 146119, Control_c, 0, 64, 23
2, 146138, Control_c, 0, 64, 21
2, 146156, Note_on_c, 0, 58, 48
2, 146157, Note_on_c, 0, 46, 0
2, 146158, Control_c, 0, 64, 15
2, 146174, Note_on_c, 0, 62, 51
2, 146177, Control_c, 0, 64, 0
2, 146446, Control_c, 0, 64, 17
2, 146464, Control_c, 0, 64, 32
2, 146484, Control_c, 0, 64, 42
2, 146503, Control_c, 0, 64, 45
2, 146517, Note_on_c, 0, 62, 0
2, 146523, Control_c, 0, 64, 45
2, 146526, Note_on_c, 0, 65, 52
2, 146538, Note_on_c, 0, 56, 40
2, 146554, Note_on_c, 0, 58, 0
2, 146561, Control_c, 0, 64, 44
2, 146580, Control_c, 0, 64, 40
2, 146599, Control_c, 0, 64, 35
2, 146618, Control_c, 0, 64, 29
2, 146638, Control_c, 0, 64, 24
2, 146657, Control_c, 0, 64, 20
2, 146676, Control_c, 0, 64, 18
2, 146695, Control_c, 0, 64, 17
2, 146715, Control_c, 0, 64, 15
2, 146792, Control_c, 0, 64, 0
2, 146864, Note_on_c, 0, 56, 0
2, 146870, Note_on_c, 0, 65, 0
2, 146898, Note_on_c, 0, 58, 52
2, 146912, Note_on_c, 0, 55, 50
2, 147040, Control_c, 0, 64, 22
2, 147059, Control_c, 0, 64, 46
2, 147079, Control_c, 0, 64, 55
2, 147097, Control_c, 0, 64, 57
2, 147117, Control_c, 0, 64, 58
2, 147146, Note_on_c, 0, 58, 0
2, 147155, Control_c, 0, 64, 59
2, 147194, Control_c, 0, 64, 58
2, 147232, Control_c, 0, 64, 58
2, 147251, Control_c, 0, 64, 57
2, 147267, Note_on_c, 0, 55, 0
2, 147269, Note_on_c, 0, 43, 39
2, 147270, Control_c, 0, 64, 56
2, 147289, Control_c, 0, 64, 56
2, 147302, Note_on_c, 0, 58, 47
2, 147308, Control_c, 0, 64, 55
2, 147328, Control_c, 0, 64, 54
2, 147347, Control_c, 0, 64, 54
2, 147366, Control_c, 0, 64, 53
2, 147385, Control_c, 0, 64, 52
2, 147405, Control_c, 0, 64, 50
2, 147423, Control_c, 0, 64, 48
2, 147423, Note_on_c, 0, 56, 67
2, 147438, Note_on_c, 0, 58, 0
2, 147443, Control_c, 0, 64, 45
2, 147462, Control_c, 0, 64, 43
2, 147482, Control_c, 0, 64, 42
2, 147500, Control_c, 0, 64, 41
2, 147520, Control_c, 0, 64, 40
2, 147539, Control_c, 0, 64, 37
2, 147559, Control_c, 0, 64, 31
2, 147577, Control_c, 0, 64, 23
2, 147578, Note_on_c, 0, 56, 0
2, 147585, Note_on_c, 0, 43, 0
2, 147597, Control_c, 0, 64, 17
2, 147616, Control_c, 0, 64, 9
2, 147627, Note_on_c, 0, 58, 58
2, 147635, Control_c, 0, 64, 0
2, 147644, Note_on_c, 0, 55, 43
2, 147994, Note_on_c, 0, 53, 44
2, 148000, Note_on_c, 0, 62, 51
2, 148058, Control_c, 0, 64, 17
2, 148078, Control_c, 0, 64, 28
2, 148097, Control_c, 0, 64, 37
2, 148116, Control_c, 0, 64, 46
2, 148135, Control_c, 0, 64, 54
2, 148155, Control_c, 0, 64, 57
2, 148174, Control_c, 0, 64, 59
2, 148193, Control_c, 0, 64, 60
2, 148212, Control_c, 0, 64, 61
2, 148244, Note_on_c, 0, 55, 0
2, 148250, Control_c, 0, 64, 61
2, 148308, Control_c, 0, 64, 61
2, 148366, Control_c, 0, 64, 60
2, 148384, Control_c, 0, 64, 59
2, 148404, Control_c, 0, 64, 58
2, 148423, Control_c, 0, 64, 56
2, 148443, Control_c, 0, 64, 53
2, 148460, Note_on_c, 0, 53, 0
2, 148461, Control_c, 0, 64, 49
2, 148471, Note_on_c, 0, 63, 74
2, 148481, Control_c, 0, 64, 43
2, 148489, Note_on_c, 0, 51, 41
2, 148500, Control_c, 0, 64, 39
2, 148517, Note_on_c, 0, 55, 45
2, 148519, Control_c, 0, 64, 36
2, 148538, Control_c, 0, 64, 34
2, 148539, Note_on_c, 0, 62, 0
2, 148558, Control_c, 0, 64, 31
2, 148559, Note_on_c, 0, 58, 0
2, 148577, Control_c, 0, 64, 28
2, 148596, Control_c, 0, 64, 25
2, 148615, Control_c, 0, 64, 24
2, 148673, Control_c, 0, 64, 23
2, 148707, Control_c, 0, 64, 22
2, 148784, Control_c, 0, 64, 21
2, 148870, Note_on_c, 0, 53, 41
2, 148887, Note_on_c, 0, 56, 43
2, 148898, Control_c, 0, 64, 24
2, 148918, Control_c, 0, 64, 30
2, 148937, Control_c, 0, 64, 38
2, 148956, Control_c, 0, 64, 47
2, 148958, Note_on_c, 0, 55, 0
2, 148975, Control_c, 0, 64, 51
2, 148995, Control_c, 0, 64, 53
2, 149000, Note_on_c, 0, 58, 66
2, 149008, Note_on_c, 0, 56, 0
2, 149013, Note_on_c, 0, 55, 37
2, 149014, Control_c, 0, 64, 53
2, 149052, Control_c, 0, 64, 53
2, 149071, Control_c, 0, 64, 51
2, 149090, Control_c, 0, 64, 46
2, 149100, Note_on_c, 0, 53, 0
2, 149109, Control_c, 0, 64, 39
2, 149129, Control_c, 0, 64, 27
2, 149148, Control_c, 0, 64, 0
2, 149175, Note_on_c, 0, 55, 0
2, 149178, Note_on_c, 0, 58, 0
2, 149207, Note_on_c, 0, 60, 58
2, 149244, Note_on_c, 0, 56, 61
2, 149378, Control_c, 0, 64, 28
2, 149398, Control_c, 0, 64, 47
2, 149417, Control_c, 0, 64, 55
2, 149436, Control_c, 0, 64, 57
2, 149455, Control_c, 0, 64, 58
2, 149475, Control_c, 0, 64, 59
2, 149494, Control_c, 0, 64, 59
2, 149519, Note_on_c, 0, 60, 0
2, 149537, Note_on_c, 0, 56, 0
2, 149583, Note_on_c, 0, 55, 42
2, 149584, Note_on_c, 0, 58, 54
2, 149609, Control_c, 0, 64, 59
2, 149628, Control_c, 0, 64, 58
2, 149647, Control_c, 0, 64, 58
2, 149668, Control_c, 0, 64, 57
2, 149680, Note_on_c, 0, 55, 0
2, 149688, Control_c, 0, 64, 56
2, 149697, Note_on_c, 0, 58, 0
2, 149706, Control_c, 0, 64, 54
2, 149722, Note_on_c, 0, 56, 50
2, 149726, Control_c, 0, 64, 51
2, 149727, Note_on_c, 0, 60, 56
2, 149745, Control_c, 0, 64, 49
2, 149764, Control_c, 0, 64, 46
2, 149782, Control_c, 0, 64, 43
2, 149802, Control_c, 0, 64, 39
2, 149821, Control_c, 0, 64, 32
2, 149840, Control_c, 0, 64, 25
2, 149859, Control_c, 0, 64, 17
2, 149879, Control_c, 0, 64, 0
2, 149913, Note_on_c, 0, 63, 0
2, 149923, Note_on_c, 0, 70, 79
2, 149935, Note_on_c, 0, 60, 0
2, 149949, Note_on_c, 0, 62, 54
2, 150305, Note_on_c, 0, 55, 51
2, 150311, Note_on_c, 0, 65, 34
2, 150339, Note_on_c, 0, 51, 0
2, 150387, Note_on_c, 0, 62, 0
2, 150388, Note_on_c, 0, 56, 0
2, 150444, Note_on_c, 0, 53, 40
2, 150445, Note_on_c, 0, 55, 0
2, 150509, Note_on_c, 0, 65, 0
2, 150620, Note_on_c, 0, 58, 50
2, 150636, Note_on_c, 0, 53, 0
2, 150643, Note_on_c, 0, 55, 57
2, 150650, Control_c, 0, 64, 42
2, 150653, Note_on_c, 0, 58, 0
2, 150669, Control_c, 0, 64, 58
2, 150679, Note_on_c, 0, 70, 0
2, 150689, Control_c, 0, 64, 61
2, 150708, Control_c, 0, 64, 62
2, 150727, Control_c, 0, 64, 62
2, 150746, Control_c, 0, 64, 63
2, 150766, Control_c, 0, 64, 63
2, 150784, Control_c, 0, 64, 64
2, 150804, Control_c, 0, 64, 66
2, 150823, Control_c, 0, 64, 67
2, 150843, Control_c, 0, 64, 68
2, 150861, Control_c, 0, 64, 68
2, 151013, Note_on_c, 0, 68, 80
2, 151035, Control_c, 0, 64, 68
2, 151036, Note_on_c, 0, 58, 44
2, 151039, Note_on_c, 0, 62, 42
2, 151147, Note_on_c, 0, 55, 0
2, 151176, Note_on_c, 0, 62, 0
2, 151303, Control_c, 0, 64, 68
2, 151399, Control_c, 0, 64, 68
2, 151416, Note_on_c, 0, 67, 71
2, 151417, Note_on_c, 0, 58, 0
2, 151426, Note_on_c, 0, 51, 51
2, 151438, Control_c, 0, 64, 67
2, 151441, Note_on_c, 0, 63, 59
2, 151457, Control_c, 0, 64, 66
2, 151466, Note_on_c, 0, 68, 0
2, 151476, Control_c, 0, 64, 64
2, 151495, Control_c, 0, 64, 61
2, 151515, Control_c, 0, 64, 56
2, 151534, Control_c, 0, 64, 51
2, 151553, Control_c, 0, 64, 45
2, 151572, Control_c, 0, 64, 36
2, 151593, Control_c, 0, 64, 29
2, 151611, Control_c, 0, 64, 24
2, 151630, Control_c, 0, 64, 20
2, 151650, Control_c, 0, 64, 17
2, 151668, Control_c, 0, 64, 15
2, 151687, Control_c, 0, 64, 11
2, 151706, Control_c, 0, 64, 9
2, 151726, Control_c, 0, 64, 0
2, 151782, Note_on_c, 0, 56, 57
2, 151798, Note_on_c, 0, 51, 0
2, 151802, Note_on_c, 0, 72, 72
2, 151926, Note_on_c, 0, 56, 0
2, 151937, Note_on_c, 0, 55, 58
2, 152101, Note_on_c, 0, 55, 0
2, 152133, Note_on_c, 0, 56, 57
2, 152500, Note_on_c, 0, 70, 70
2, 152503, Note_on_c, 0, 72, 0
2, 152505, Note_on_c, 0, 60, 50
2, 152531, Note_on_c, 0, 56, 0
2, 152814, Note_on_c, 0, 60, 0
2, 152880, Note_on_c, 0, 70, 0
2, 152882, Note_on_c, 0, 67, 0
2, 152890, Note_on_c, 0, 68, 66
2, 152893, Note_on_c, 0, 53, 44
2, 153049, Control_c, 0, 64, 13
2, 153067, Control_c, 0, 64, 47
2, 153087, Control_c, 0, 64, 59
2, 153106, Control_c, 0, 64, 62
2, 153125, Control_c, 0, 64, 63
2, 153144, Control_c, 0, 64, 64
2, 153162, Note_on_c, 0, 68, 0
2, 153164, Control_c, 0, 64, 64
2, 153183, Control_c, 0, 64, 65
2, 153281, Note_on_c, 0, 68, 67
2, 153298, Note_on_c, 0, 63, 0
2, 153356, Control_c, 0, 64, 64
2, 153413, Control_c, 0, 64, 64
2, 153413, Note_on_c, 0, 67, 68
2, 153428, Note_on_c, 0, 68, 0
2, 153470, Control_c, 0, 64, 63
2, 153529, Control_c, 0, 64, 63
2, 153547, Control_c, 0, 64, 61
2, 153561, Note_on_c, 0, 67, 0
2, 153567, Control_c, 0, 64, 52
2, 153586, Control_c, 0, 64, 0
2, 153594, Note_on_c, 0, 68, 72
2, 153613, Note_on_c, 0, 62, 51
2, 153719, Control_c, 0, 64, 55
2, 153738, Control_c, 0, 64, 63
2, 153757, Control_c, 0, 64, 64
2, 153776, Control_c, 0, 64, 65
2, 153795, Note_on_c, 0, 62, 0
2, 153796, Control_c, 0, 64, 65
2, 153814, Control_c, 0, 64, 66
2, 153834, Control_c, 0, 64, 67
2, 153853, Control_c, 0, 64, 67
2, 153872, Control_c, 0, 64, 67
2, 153930, Control_c, 0, 64, 66
2, 153957, Note_on_c, 0, 53, 0
2, 153966, Note_on_c, 0, 72, 70
2, 153968, Control_c, 0, 64, 66
2, 153968, Note_on_c, 0, 55, 56
2, 153979, Note_on_c, 0, 60, 49
2, 153987, Control_c, 0, 64, 65
2, 154005, Note_on_c, 0, 68, 0
2, 154007, Control_c, 0, 64, 65
2, 154025, Control_c, 0, 64, 64
2, 154045, Control_c, 0, 64, 63
2, 154064, Control_c, 0, 64, 62
2, 154084, Control_c, 0, 64, 62
2, 154099, Note_on_c, 0, 56, 71
2, 154102, Control_c, 0, 64, 61
2, 154122, Control_c, 0, 64, 60
2, 154139, Note_on_c, 0, 55, 0
2, 154141, Control_c, 0, 64, 59
2, 154160, Control_c, 0, 64, 58
2, 154179, Control_c, 0, 64, 56
2, 154189, Note_on_c, 0, 60, 0
2, 154199, Control_c, 0, 64, 53
2, 154218, Control_c, 0, 64, 50
2, 154237, Control_c, 0, 64, 46
2, 154256, Control_c, 0, 64, 39
2, 154276, Control_c, 0, 64, 27
2, 154294, Control_c, 0, 64, 0
2, 154311, Note_on_c, 0, 58, 71
2, 154316, Note_on_c, 0, 56, 0
2, 154321, Note_on_c, 0, 72, 0
2, 154324, Note_on_c, 0, 65, 64
2, 154329, Note_on_c, 0, 62, 54
2, 154639, Note_on_c, 0, 65, 0
2, 154657, Note_on_c, 0, 70, 79
2, 154711, Note_on_c, 0, 62, 0
2, 154876, Note_on_c, 0, 63, 58
2, 154919, Note_on_c, 0, 62, 58
2, 154955, Note_on_c, 0, 63, 0
2, 154999, Note_on_c, 0, 62, 0
2, 155018, Note_on_c, 0, 60, 62
2, 155140, Control_c, 0, 64, 50
2, 155160, Control_c, 0, 64, 60
2, 155179, Control_c, 0, 64, 63
2, 155198, Control_c, 0, 64, 64
2, 155217, Control_c, 0, 64, 65
2, 155223, Note_on_c, 0, 60, 0
2, 155237, Control_c, 0, 64, 66
2, 155255, Control_c, 0, 64, 67
2, 155275, Control_c, 0, 64, 69
2, 155294, Control_c, 0, 64, 72
2, 155314, Control_c, 0, 64, 75
2, 155332, Control_c, 0, 64, 78
2, 155344, Note_on_c, 0, 68, 73
2, 155351, Control_c, 0, 64, 80
2, 155371, Control_c, 0, 64, 82
2, 155381, Note_on_c, 0, 62, 54
2, 155389, Control_c, 0, 64, 83
2, 155409, Control_c, 0, 64, 85
2, 155429, Control_c, 0, 64, 86
2, 155449, Control_c, 0, 64, 87
2, 155467, Control_c, 0, 64, 87
2, 155487, Control_c, 0, 64, 88
2, 155488, Note_on_c, 0, 70, 0
2, 155519, Note_on_c, 0, 62, 0
2, 155603, Control_c, 0, 64, 87
2, 155660, Control_c, 0, 64, 87
2, 155680, Control_c, 0, 64, 86
2, 155699, Control_c, 0, 64, 85
2, 155719, Control_c, 0, 64, 84
2, 155737, Control_c, 0, 64, 83
2, 155757, Control_c, 0, 64, 82
2, 155762, Note_on_c, 0, 68, 0
2, 155776, Control_c, 0, 64, 76
2, 155778, Note_on_c, 0, 67, 65
2, 155783, Note_on_c, 0, 58, 0
2, 155795, Control_c, 0, 64, 67
2, 155796, Note_on_c, 0, 51, 42
2, 155796, Note_on_c, 0, 63, 54
2, 155814, Control_c, 0, 64, 50
2, 155834, Control_c, 0, 64, 0
2, 156035, Note_on_c, 0, 67, 0
2, 156186, Note_on_c, 0, 58, 48
2, 156200, Note_on_c, 0, 67, 55
2, 156340, Note_on_c, 0, 58, 0
2, 156344, Note_on_c, 0, 67, 0
2, 156348, Note_on_c, 0, 65, 57
2, 156358, Note_on_c, 0, 56, 49
2, 156468, Note_on_c, 0, 56, 0
2, 156478, Note_on_c, 0, 65, 0
2, 156529, Note_on_c, 0, 67, 48
2, 156533, Note_on_c, 0, 58, 44
2, 156619, Control_c, 0, 64, 39
2, 156639, Control_c, 0, 64, 60
2, 156658, Control_c, 0, 64, 63
2, 156678, Control_c, 0, 64, 64
2, 156716, Control_c, 0, 64, 65
2, 156735, Control_c, 0, 64, 65
2, 156754, Control_c, 0, 64, 66
2, 156773, Control_c, 0, 64, 67
2, 156792, Control_c, 0, 64, 68
2, 156806, Note_on_c, 0, 51, 0
2, 156812, Control_c, 0, 64, 66
2, 156830, Control_c, 0, 64, 62
2, 156850, Control_c, 0, 64, 44
2, 156869, Control_c, 0, 64, 0
2, 156877, Note_on_c, 0, 70, 61
2, 156889, Note_on_c, 0, 50, 45
2, 156893, Note_on_c, 0, 67, 0
2, 156927, Control_c, 0, 64, 32
2, 156946, Control_c, 0, 64, 58
2, 156965, Control_c, 0, 64, 64
2, 156984, Control_c, 0, 64, 66
2, 156992, Note_on_c, 0, 50, 0
2, 157004, Control_c, 0, 64, 68
2, 157023, Control_c, 0, 64, 71
2, 157042, Control_c, 0, 64, 74
2, 157048, Note_on_c, 0, 63, 0
2, 157061, Control_c, 0, 64, 80
2, 157081, Control_c, 0, 64, 85
2, 157099, Control_c, 0, 64, 88
2, 157119, Control_c, 0, 64, 89
2, 157138, Control_c, 0, 64, 90
2, 157221, Note_on_c, 0, 70, 0
2, 157229, Note_on_c, 0, 58, 0
2, 157247, Note_on_c, 0, 48, 53
2, 157253, Control_c, 0, 64, 88
2, 157260, Note_on_c, 0, 63, 53
2, 157272, Control_c, 0, 64, 81
2, 157292, Control_c, 0, 64, 72
2, 157310, Control_c, 0, 64, 64
2, 157330, Control_c, 0, 64, 55
2, 157350, Control_c, 0, 64, 44
2, 157369, Control_c, 0, 64, 34
2, 157388, Control_c, 0, 64, 25
2, 157408, Control_c, 0, 64, 11
2, 157427, Control_c, 0, 64, 0
2, 157606, Note_on_c, 0, 56, 45
2, 157629, Note_on_c, 0, 63, 0
2, 157631, Note_on_c, 0, 65, 51
2, 157728, Note_on_c, 0, 56, 0
2, 157754, Note_on_c, 0, 65, 0
2, 157756, Note_on_c, 0, 63, 63
2, 157761, Note_on_c, 0, 55, 37
2, 157893, Note_on_c, 0, 55, 0
2, 157908, Note_on_c, 0, 63, 0
2, 157944, Note_on_c, 0, 65, 53
2, 157965, Note_on_c, 0, 56, 40
2, 158295, Note_on_c, 0, 68, 57
2, 158320, Note_on_c, 0, 53, 34
2, 158327, Note_on_c, 0, 48, 0
2, 158483, Control_c, 0, 64, 18
2, 158503, Control_c, 0, 64, 46
2, 158522, Control_c, 0, 64, 56
2, 158542, Control_c, 0, 64, 58
2, 158580, Control_c, 0, 64, 58
2, 158599, Control_c, 0, 64, 59
2, 158618, Control_c, 0, 64, 61
2, 158676, Control_c, 0, 64, 59
2, 158695, Control_c, 0, 64, 57
2, 158707, Note_on_c, 0, 53, 0
2, 158714, Control_c, 0, 64, 52
2, 158726, Note_on_c, 0, 70, 84
2, 158731, Note_on_c, 0, 46, 45
2, 158734, Control_c, 0, 64, 44
2, 158739, Note_on_c, 0, 56, 0
2, 158752, Control_c, 0, 64, 33
2, 158754, Note_on_c, 0, 62, 54
2, 158772, Control_c, 0, 64, 11
2, 158791, Control_c, 0, 64, 0
2, 158803, Note_on_c, 0, 65, 0
2, 158817, Note_on_c, 0, 68, 0
2, 159136, Note_on_c, 0, 55, 42
2, 159141, Note_on_c, 0, 63, 60
2, 159166, Note_on_c, 0, 62, 0
2, 159491, Note_on_c, 0, 53, 61
2, 159511, Note_on_c, 0, 55, 0
2, 159829, Note_on_c, 0, 62, 70
2, 159838, Note_on_c, 0, 58, 62
2, 159854, Note_on_c, 0, 63, 0
2, 159876, Note_on_c, 0, 53, 0
2, 159943, Control_c, 0, 64, 22
2, 159962, Control_c, 0, 64, 58
2, 159982, Control_c, 0, 64, 63
2, 160000, Control_c, 0, 64, 64
2, 160020, Control_c, 0, 64, 64
2, 160054, Note_on_c, 0, 58, 0
2, 160097, Control_c, 0, 64, 64
2, 160154, Control_c, 0, 64, 63
2, 160174, Control_c, 0, 64, 63
2, 160192, Control_c, 0, 64, 60
2, 160202, Note_on_c, 0, 60, 60
2, 160206, Note_on_c, 0, 62, 0
2, 160212, Control_c, 0, 64, 47
2, 160216, Note_on_c, 0, 75, 82
2, 160225, Note_on_c, 0, 55, 51
2, 160233, Control_c, 0, 64, 0
2, 160280, Note_on_c, 0, 70, 0
2, 160349, Control_c, 0, 64, 42
2, 160369, Control_c, 0, 64, 59
2, 160387, Control_c, 0, 64, 61
2, 160553, Note_on_c, 0, 55, 0
2, 160560, Control_c, 0, 64, 61
2, 160580, Control_c, 0, 64, 62
2, 160588, Note_on_c, 0, 67, 53
2, 160598, Control_c, 0, 64, 62
2, 160618, Control_c, 0, 64, 63
2, 160627, Note_on_c, 0, 46, 0
2, 160637, Control_c, 0, 64, 63
2, 160657, Control_c, 0, 64, 64
2, 160675, Control_c, 0, 64, 64
2, 160906, Control_c, 0, 64, 64
2, 160926, Control_c, 0, 64, 63
2, 160944, Control_c, 0, 64, 61
2, 160951, Note_on_c, 0, 72, 70
2, 160963, Control_c, 0, 64, 53
2, 160964, Note_on_c, 0, 53, 39
2, 160964, Note_on_c, 0, 75, 0
2, 160972, Note_on_c, 0, 45, 57
2, 160983, Control_c, 0, 64, 29
2, 161001, Control_c, 0, 64, 0
2, 161192, Control_c, 0, 64, 46
2, 161212, Control_c, 0, 64, 59
2, 161230, Control_c, 0, 64, 61
2, 161250, Control_c, 0, 64, 62
2, 161288, Control_c, 0, 64, 62
2, 161294, Note_on_c, 0, 75, 87
2, 161307, Control_c, 0, 64, 63
2, 161316, Note_on_c, 0, 45, 0
2, 161327, Control_c, 0, 64, 63
2, 161330, Note_on_c, 0, 72, 0
2, 161343, Note_on_c, 0, 67, 0
2, 161346, Control_c, 0, 64, 64
2, 161364, Control_c, 0, 64, 64
2, 161384, Control_c, 0, 64, 65
2, 161403, Control_c, 0, 64, 65
2, 161422, Control_c, 0, 64, 66
2, 161441, Control_c, 0, 64, 67
2, 161461, Control_c, 0, 64, 68
2, 161480, Control_c, 0, 64, 69
2, 161499, Control_c, 0, 64, 69
2, 161518, Control_c, 0, 64, 70
2, 161615, Control_c, 0, 64, 69
2, 161633, Control_c, 0, 64, 69
2, 161653, Control_c, 0, 64, 68
2, 161672, Control_c, 0, 64, 68
2, 161674, Note_on_c, 0, 74, 82
2, 161678, Note_on_c, 0, 60, 0
2, 161690, Note_on_c, 0, 46, 46
2, 161692, Control_c, 0, 64, 67
2, 161708, Note_on_c, 0, 75, 0
2, 161710, Control_c, 0, 64, 65
2, 161730, Control_c, 0, 64, 64
2, 161746, Note_on_c, 0, 53, 0
2, 161749, Control_c, 0, 64, 61
2, 161768, Control_c, 0, 64, 58
2, 161787, Control_c, 0, 64, 55
2, 161807, Control_c, 0, 64, 51
2, 161826, Control_c, 0, 64, 47
2, 161844, Control_c, 0, 64, 42
2, 161864, Control_c, 0, 64, 35
2, 161883, Control_c, 0, 64, 21
2, 161902, Control_c, 0, 64, 0
2, 162068, Note_on_c, 0, 79, 80
2, 162072, Note_on_c, 0, 50, 39
2, 162088, Note_on_c, 0, 70, 63
2, 162156, Note_on_c, 0, 74, 0
2, 162212, Note_on_c, 0, 69, 68
2, 162253, Note_on_c, 0, 70, 0
2, 162353, Note_on_c, 0, 50, 0
2, 162357, Note_on_c, 0, 69, 0
2, 162409, Note_on_c, 0, 70, 61
2, 162427, Note_on_c, 0, 55, 43
2, 162437, Note_on_c, 0, 46, 0
2, 162478, Control_c, 0, 64, 23
2, 162498, Control_c, 0, 64, 47
2, 162516, Control_c, 0, 64, 58
2, 162536, Control_c, 0, 64, 61
2, 162555, Control_c, 0, 64, 62
2, 162575, Control_c, 0, 64, 63
2, 162593, Control_c, 0, 64, 64
2, 162613, Control_c, 0, 64, 64
2, 162658, Note_on_c, 0, 79, 0
2, 162747, Control_c, 0, 64, 64
2, 162759, Note_on_c, 0, 77, 69
2, 162762, Note_on_c, 0, 43, 45
2, 162767, Control_c, 0, 64, 63
2, 162786, Control_c, 0, 64, 62
2, 162804, Control_c, 0, 64, 56
2, 162824, Control_c, 0, 64, 37
2, 162843, Control_c, 0, 64, 0
2, 162958, Control_c, 0, 64, 29
2, 162978, Control_c, 0, 64, 59
2, 162992, Note_on_c, 0, 70, 0
2, 162996, Control_c, 0, 64, 64
2, 163016, Control_c, 0, 64, 64
2, 163035, Control_c, 0, 64, 65
2, 163101, Note_on_c, 0, 43, 0
2, 163113, Control_c, 0, 64, 65
2, 163132, Control_c, 0, 64, 62
2, 163135, Note_on_c, 0, 48, 51
2, 163135, Note_on_c, 0, 75, 79
2, 163151, Control_c, 0, 64, 53
2, 163153, Note_on_c, 0, 55, 0
2, 163171, Control_c, 0, 64, 28
2, 163182, Note_on_c, 0, 77, 0
2, 163190, Control_c, 0, 64, 0
2, 163245, Control_c, 0, 64, 23
2, 163265, Control_c, 0, 64, 56
2, 163283, Control_c, 0, 64, 63
2, 163303, Control_c, 0, 64, 64
2, 163322, Control_c, 0, 64, 65
2, 163342, Control_c, 0, 64, 65
2, 163380, Control_c, 0, 64, 65
2, 163424, Note_on_c, 0, 75, 0
2, 163437, Control_c, 0, 64, 64
2, 163476, Control_c, 0, 64, 64
2, 163522, Note_on_c, 0, 60, 50
2, 163534, Control_c, 0, 64, 63
2, 163545, Note_on_c, 0, 75, 74
2, 163552, Control_c, 0, 64, 63
2, 163572, Control_c, 0, 64, 62
2, 163591, Control_c, 0, 64, 59
2, 163611, Control_c, 0, 64, 56
2, 163629, Control_c, 0, 64, 52
2, 163649, Control_c, 0, 64, 48
2, 163668, Control_c, 0, 64, 41
2, 163673, Note_on_c, 0, 74, 74
2, 163687, Control_c, 0, 64, 34
2, 163687, Note_on_c, 0, 58, 48
2, 163688, Note_on_c, 0, 60, 0
2, 163706, Control_c, 0, 64, 27
2, 163708, Note_on_c, 0, 75, 0
2, 163725, Control_c, 0, 64, 13
2, 163745, Control_c, 0, 64, 0
2, 163792, Note_on_c, 0, 74, 0
2, 163811, Note_on_c, 0, 58, 0
2, 163853, Note_on_c, 0, 75, 77
2, 163864, Note_on_c, 0, 60, 52
2, 163873, Note_on_c, 0, 69, 60
2, 164032, Control_c, 0, 64, 48
2, 164052, Control_c, 0, 64, 58
2, 164075, Control_c, 0, 64, 61
2, 164094, Control_c, 0, 64, 63
2, 164103, Note_on_c, 0, 69, 0
2, 164113, Control_c, 0, 64, 64
2, 164133, Control_c, 0, 64, 66
2, 164151, Control_c, 0, 64, 67
2, 164168, Control_c, 0, 64, 69
2, 164187, Control_c, 0, 64, 70
2, 164202, Note_on_c, 0, 79, 80
2, 164223, Note_on_c, 0, 51, 46
2, 164226, Control_c, 0, 64, 69
2, 164234, Note_on_c, 0, 67, 56
2, 164244, Control_c, 0, 64, 69
2, 164264, Control_c, 0, 64, 67
2, 164283, Control_c, 0, 64, 66
2, 164302, Control_c, 0, 64, 66
2, 164321, Control_c, 0, 64, 66
2, 164439, Note_on_c, 0, 67, 0
2, 164500, Note_on_c, 0, 48, 0
2, 164533, Control_c, 0, 64, 66
2, 164552, Control_c, 0, 64, 65
2, 164572, Control_c, 0, 64, 63
2, 164584, Note_on_c, 0, 53, 50
2, 164585, Note_on_c, 0, 51, 0
2, 164586, Note_on_c, 0, 72, 85
2, 164590, Control_c, 0, 64, 60
2, 164601, Note_on_c, 0, 69, 65
2, 164610, Control_c, 0, 64, 54
2, 164628, Note_on_c, 0, 79, 0
2, 164629, Control_c, 0, 64, 39
2, 164634, Note_on_c, 0, 60, 0
2, 164648, Control_c, 0, 64, 0
2, 164673, Note_on_c, 0, 75, 0
2, 164932, Note_on_c, 0, 77, 73
2, 164934, Note_on_c, 0, 72, 0
2, 165001, Note_on_c, 0, 69, 0
2, 165107, Note_on_c, 0, 62, 45
2, 165131, Note_on_c, 0, 70, 68
2, 165175, Note_on_c, 0, 60, 47
2, 165184, Note_on_c, 0, 69, 68
2, 165197, Note_on_c, 0, 62, 0
2, 165227, Note_on_c, 0, 70, 0
2, 165277, Note_on_c, 0, 69, 0
2, 165283, Note_on_c, 0, 60, 0
2, 165285, Note_on_c, 0, 67, 66
2, 165297, Note_on_c, 0, 58, 43
2, 165397, Control_c, 0, 64, 48
2, 165417, Control_c, 0, 64, 60
2, 165436, Control_c, 0, 64, 63
2, 165456, Control_c, 0, 64, 64
2, 165474, Control_c, 0, 64, 64
2, 165494, Control_c, 0, 64, 65
2, 165513, Control_c, 0, 64, 65
2, 165521, Note_on_c, 0, 67, 0
2, 165571, Control_c, 0, 64, 64
2, 165590, Control_c, 0, 64, 58
2, 165609, Control_c, 0, 64, 44
2, 165622, Note_on_c, 0, 58, 0
2, 165628, Control_c, 0, 64, 17
2, 165630, Note_on_c, 0, 75, 77
2, 165648, Control_c, 0, 64, 0
2, 165652, Note_on_c, 0, 60, 53
2, 165652, Note_on_c, 0, 69, 62
2, 165685, Control_c, 0, 64, 13
2, 165705, Control_c, 0, 64, 41
2, 165724, Control_c, 0, 64, 58
2, 165743, Control_c, 0, 64, 63
2, 165755, Note_on_c, 0, 77, 0
2, 165762, Control_c, 0, 64, 64
2, 165801, Control_c, 0, 64, 64
2, 165801, Note_on_c, 0, 69, 0
2, 165839, Control_c, 0, 64, 65
2, 165859, Control_c, 0, 64, 65
2, 165977, Note_on_c, 0, 53, 0
2, 165994, Control_c, 0, 64, 65
2, 166032, Control_c, 0, 64, 64
2, 166049, Note_on_c, 0, 74, 59
2, 166049, Note_on_c, 0, 75, 0
2, 166052, Control_c, 0, 64, 62
2, 166057, Note_on_c, 0, 70, 59
2, 166071, Control_c, 0, 64, 55
2, 166073, Note_on_c, 0, 58, 43
2, 166074, Note_on_c, 0, 62, 36
2, 166075, Note_on_c, 0, 60, 0
2, 166090, Control_c, 0, 64, 39
2, 166109, Control_c, 0, 64, 0
2, 166273, Note_on_c, 0, 74, 0
2, 166415, Note_on_c, 0, 58, 0
2, 166438, Note_on_c, 0, 74, 58
2, 166455, Note_on_c, 0, 53, 38
2, 166573, Note_on_c, 0, 70, 0
2, 166583, Note_on_c, 0, 72, 72
2, 166586, Note_on_c, 0, 74, 0
2, 166693, Note_on_c, 0, 72, 0
2, 166750, Note_on_c, 0, 62, 0
2, 166763, Note_on_c, 0, 53, 0
2, 166766, Note_on_c, 0, 74, 58
2, 166783, Note_on_c, 0, 58, 45
2, 166858, Control_c, 0, 64, 50
2, 166877, Control_c, 0, 64, 61
2, 166897, Control_c, 0, 64, 63
2, 166915, Control_c, 0, 64, 64
2, 166935, Control_c, 0, 64, 64
2, 166952, Control_c, 0, 64, 65
2, 166972, Control_c, 0, 64, 65
2, 166990, Control_c, 0, 64, 66
2, 167084, Control_c, 0, 64, 65
2, 167092, Note_on_c, 0, 74, 0
2, 167095, Note_on_c, 0, 58, 0
2, 167101, Note_on_c, 0, 60, 46
2, 167104, Control_c, 0, 64, 63
2, 167105, Note_on_c, 0, 77, 77
2, 167109, Note_on_c, 0, 65, 51
2, 167111, Note_on_c, 0, 57, 47
2, 167122, Control_c, 0, 64, 55
2, 167142, Control_c, 0, 64, 31
2, 167161, Control_c, 0, 64, 0
2, 167238, Control_c, 0, 64, 54
2, 167257, Control_c, 0, 64, 64
2, 167276, Control_c, 0, 64, 67
2, 167285, Note_on_c, 0, 60, 0
2, 167296, Control_c, 0, 64, 70
2, 167315, Control_c, 0, 64, 74
2, 167331, Note_on_c, 0, 65, 0
2, 167334, Control_c, 0, 64, 79
2, 167353, Control_c, 0, 64, 83
2, 167373, Control_c, 0, 64, 85
2, 167430, Control_c, 0, 64, 84
2, 167450, Control_c, 0, 64, 82
2, 167450, Note_on_c, 0, 57, 0
2, 167466, Note_on_c, 0, 55, 53
2, 167468, Control_c, 0, 64, 79
2, 167474, Note_on_c, 0, 70, 79
2, 167480, Note_on_c, 0, 67, 62
2, 167483, Note_on_c, 0, 62, 45
2, 167488, Control_c, 0, 64, 75
2, 167507, Control_c, 0, 64, 68
2, 167526, Control_c, 0, 64, 59
2, 167545, Control_c, 0, 64, 34
2, 167564, Control_c, 0, 64, 0
2, 167565, Note_on_c, 0, 77, 0
2, 167587, Note_on_c, 0, 55, 0
2, 167641, Control_c, 0, 64, 36
2, 167661, Control_c, 0, 64, 61
2, 167679, Control_c, 0, 64, 65
2, 167699, Control_c, 0, 64, 67
2, 167718, Control_c, 0, 64, 67
2, 167721, Note_on_c, 0, 70, 0
2, 167756, Control_c, 0, 64, 67
2, 167776, Control_c, 0, 64, 66
2, 167795, Control_c, 0, 64, 64
2, 167814, Control_c, 0, 64, 62
2, 167833, Control_c, 0, 64, 58
2, 167852, Note_on_c, 0, 50, 51
2, 167853, Control_c, 0, 64, 56
2, 167861, Note_on_c, 0, 70, 72
2, 167872, Control_c, 0, 64, 54
2, 167891, Control_c, 0, 64, 50
2, 167911, Control_c, 0, 64, 47
2, 167931, Control_c, 0, 64, 45
2, 167949, Control_c, 0, 64, 42
2, 167969, Control_c, 0, 64, 40
2, 167988, Control_c, 0, 64, 36
2, 167997, Note_on_c, 0, 69, 70
2, 168006, Control_c, 0, 64, 29
2, 168026, Control_c, 0, 64, 13
2, 168035, Note_on_c, 0, 70, 0
2, 168045, Control_c, 0, 64, 0
2, 168056, Note_on_c, 0, 67, 0
2, 168151, Note_on_c, 0, 69, 0
2, 168164, Note_on_c, 0, 62, 0
2, 168165, Note_on_c, 0, 50, 0
2, 168190, Note_on_c, 0, 70, 72
2, 168203, Note_on_c, 0, 55, 42
2, 168276, Control_c, 0, 64, 44
2, 168295, Control_c, 0, 64, 60
2, 168314, Control_c, 0, 64, 63
2, 168334, Control_c, 0, 64, 64
2, 168352, Control_c, 0, 64, 65
2, 168372, Control_c, 0, 64, 65
2, 168391, Control_c, 0, 64, 66
2, 168449, Control_c, 0, 64, 65
2, 168468, Control_c, 0, 64, 64
2, 168486, Control_c, 0, 64, 60
2, 168506, Control_c, 0, 64, 44
2, 168510, Note_on_c, 0, 55, 0
2, 168525, Control_c, 0, 64, 0
2, 168532, Note_on_c, 0, 74, 68
2, 168535, Note_on_c, 0, 70, 0
2, 168556, Note_on_c, 0, 53, 48
2, 168561, Note_on_c, 0, 62, 51
2, 168562, Note_on_c, 0, 56, 48
2, 168622, Control_c, 0, 64, 17
2, 168640, Control_c, 0, 64, 54
2, 168660, Control_c, 0, 64, 63
2, 168679, Control_c, 0, 64, 65
2, 168693, Note_on_c, 0, 62, 0
2, 168698, Control_c, 0, 64, 66
2, 168705, Note_on_c, 0, 53, 0
2, 168717, Control_c, 0, 64, 67
2, 168737, Control_c, 0, 64, 68
2, 168756, Control_c, 0, 64, 70
2, 168775, Control_c, 0, 64, 71
2, 168794, Control_c, 0, 64, 72
2, 168832, Control_c, 0, 64, 72
2, 168872, Control_c, 0, 64, 71
2, 168892, Control_c, 0, 64, 71
2, 168910, Control_c, 0, 64, 70
2, 168921, Note_on_c, 0, 67, 73
2, 168930, Control_c, 0, 64, 69
2, 168930, Note_on_c, 0, 74, 0
2, 168934, Note_on_c, 0, 56, 0
2, 168942, Note_on_c, 0, 58, 49
2, 168947, Note_on_c, 0, 63, 58
2, 168948, Note_on_c, 0, 51, 42
2, 168949, Control_c, 0, 64, 66
2, 168966, Control_c, 0, 64, 64
2, 168986, Control_c, 0, 64, 61
2, 169005, Control_c, 0, 64, 59
2, 169025, Control_c, 0, 64, 57
2, 169043, Control_c, 0, 64, 55
2, 169063, Control_c, 0, 64, 53
2, 169082, Control_c, 0, 64, 51
2, 169102, Control_c, 0, 64, 47
2, 169120, Control_c, 0, 64, 44
2, 169140, Control_c, 0, 64, 43
2, 169145, Note_on_c, 0, 63, 0
2, 169159, Control_c, 0, 64, 41
2, 169178, Control_c, 0, 64, 39
2, 169197, Control_c, 0, 64, 35
2, 169217, Control_c, 0, 64, 30
2, 169236, Control_c, 0, 64, 25
2, 169255, Control_c, 0, 64, 22
2, 169258, Note_on_c, 0, 69, 82
2, 169274, Control_c, 0, 64, 20
2, 169277, Note_on_c, 0, 60, 62
2, 169281, Note_on_c, 0, 65, 62
2, 169282, Note_on_c, 0, 58, 0
2, 169294, Control_c, 0, 64, 18
2, 169312, Control_c, 0, 64, 15
2, 169332, Control_c, 0, 64, 13
2, 169341, Note_on_c, 0, 67, 0
2, 169351, Control_c, 0, 64, 11
2, 169662, Note_on_c, 0, 61, 47
2, 169667, Note_on_c, 0, 70, 73
2, 169672, Note_on_c, 0, 67, 59
2, 169677, Control_c, 0, 64, 9
2, 169697, Control_c, 0, 64, 0
2, 169697, Note_on_c, 0, 65, 0
2, 169716, Note_on_c, 0, 69, 0
2, 169735, Note_on_c, 0, 51, 0
2, 169852, Note_on_c, 0, 60, 0
2, 169983, Note_on_c, 0, 61, 0
2, 169990, Note_on_c, 0, 52, 47
2, 170316, Note_on_c, 0, 52, 0
2, 170349, Note_on_c, 0, 65, 61
2, 170354, Note_on_c, 0, 53, 39
2, 170357, Note_on_c, 0, 67, 0
2, 170360, Note_on_c, 0, 60, 45
2, 170691, Note_on_c, 0, 60, 0
2, 170694, Note_on_c, 0, 58, 41
2, 170868, Control_c, 0, 64, 24
2, 170886, Control_c, 0, 64, 32
2, 170906, Control_c, 0, 64, 36
2, 170925, Control_c, 0, 64, 40
2, 170945, Control_c, 0, 64, 42
2, 170963, Control_c, 0, 64, 42
2, 170983, Control_c, 0, 64, 40
2, 171002, Control_c, 0, 64, 34
2, 171022, Control_c, 0, 64, 18
2, 171035, Note_on_c, 0, 58, 0
2, 171038, Note_on_c, 0, 65, 0
2, 171040, Control_c, 0, 64, 0
2, 171083, Note_on_c, 0, 69, 64
2, 171085, Note_on_c, 0, 60, 32
2, 171085, Note_on_c, 0, 70, 0
2, 171232, Control_c, 0, 64, 25
2, 171252, Control_c, 0, 64, 55
2, 171271, Control_c, 0, 64, 62
2, 171291, Control_c, 0, 64, 64
2, 171309, Control_c, 0, 64, 64
2, 171329, Control_c, 0, 64, 65
2, 171348, Control_c, 0, 64, 66
2, 171366, Control_c, 0, 64, 69
2, 171386, Control_c, 0, 64, 72
2, 171405, Control_c, 0, 64, 76
2, 171421, Note_on_c, 0, 63, 47
2, 171425, Control_c, 0, 64, 81
2, 171439, Note_on_c, 0, 60, 0
2, 171443, Control_c, 0, 64, 85
2, 171463, Control_c, 0, 64, 89
2, 171482, Control_c, 0, 64, 94
2, 171502, Control_c, 0, 64, 101
2, 171520, Control_c, 0, 64, 106
2, 171540, Control_c, 0, 64, 110
2, 171559, Control_c, 0, 64, 110
2, 171597, Control_c, 0, 64, 111
2, 171598, Note_on_c, 0, 63, 0
2, 171674, Control_c, 0, 64, 110
2, 171694, Control_c, 0, 64, 110
2, 171712, Control_c, 0, 64, 107
2, 171732, Control_c, 0, 64, 104
2, 171751, Control_c, 0, 64, 101
2, 171755, Note_on_c, 0, 53, 0
2, 171771, Control_c, 0, 64, 97
2, 171789, Control_c, 0, 64, 93
2, 171809, Control_c, 0, 64, 85
2, 171822, Note_on_c, 0, 69, 0
2, 171828, Control_c, 0, 64, 71
2, 171837, Note_on_c, 0, 58, 44
2, 171846, Control_c, 0, 64, 54
2, 171846, Note_on_c, 0, 46, 42
2, 171851, Note_on_c, 0, 70, 53
2, 171864, Note_on_c, 0, 62, 42
2, 171865, Control_c, 0, 64, 0
2, 171942, Control_c, 0, 64, 36
2, 171961, Control_c, 0, 64, 63
2, 171963, Note_on_c, 0, 70, 0
2, 171981, Control_c, 0, 64, 69
2, 171999, Control_c, 0, 64, 75
2, 172006, Note_on_c, 0, 62, 0
2, 172019, Control_c, 0, 64, 82
2, 172038, Control_c, 0, 64, 86
2, 172057, Control_c, 0, 64, 87
2, 172250, Control_c, 0, 64, 86
2, 172250, Note_on_c, 0, 74, 66
2, 172265, Note_on_c, 0, 65, 48
2, 172268, Control_c, 0, 64, 85
2, 172282, Note_on_c, 0, 46, 0
2, 172287, Control_c, 0, 64, 84
2, 172297, Note_on_c, 0, 65, 0
2, 172307, Control_c, 0, 64, 83
2, 172326, Control_c, 0, 64, 82
2, 172345, Control_c, 0, 64, 81
2, 172364, Control_c, 0, 64, 80
2, 172379, Note_on_c, 0, 58, 0
2, 172384, Control_c, 0, 64, 79
2, 172386, Note_on_c, 0, 75, 77
2, 172398, Note_on_c, 0, 67, 66
2, 172417, Note_on_c, 0, 74, 0
2, 172461, Control_c, 0, 64, 79
2, 172473, Note_on_c, 0, 67, 0
2, 172479, Control_c, 0, 64, 78
2, 172499, Control_c, 0, 64, 76
2, 172518, Control_c, 0, 64, 74
2, 172537, Control_c, 0, 64, 71
2, 172556, Control_c, 0, 64, 69
2, 172576, Control_c, 0, 64, 67
2, 172595, Control_c, 0, 64, 65
2, 172602, Note_on_c, 0, 58, 85
2, 172612, Note_on_c, 0, 75, 0
2, 172614, Control_c, 0, 64, 62
2, 172621, Note_on_c, 0, 77, 61
2, 172633, Control_c, 0, 64, 57
2, 172645, Note_on_c, 0, 68, 54
2, 172653, Control_c, 0, 64, 47
2, 172672, Control_c, 0, 64, 18
2, 172691, Control_c, 0, 64, 0
2, 172993, Note_on_c, 0, 74, 57
2, 173307, Note_on_c, 0, 68, 0
2, 173362, Note_on_c, 0, 77, 0
2, 173369, Note_on_c, 0, 63, 79
2, 173386, Note_on_c, 0, 70, 59
2, 173400, Note_on_c, 0, 58, 0
2, 173468, Note_on_c, 0, 74, 0
2, 173536, Control_c, 0, 64, 20
2, 173555, Control_c, 0, 64, 49
2, 173574, Control_c, 0, 64, 57
2, 173593, Control_c, 0, 64, 59
2, 173613, Control_c, 0, 64, 60
2, 173632, Control_c, 0, 64, 62
2, 173651, Control_c, 0, 64, 63
2, 173671, Control_c, 0, 64, 64
2, 173691, Control_c, 0, 64, 64
2, 173709, Control_c, 0, 64, 65
2, 173716, Note_on_c, 0, 70, 0
2, 173727, Note_on_c, 0, 75, 66
2, 173732, Note_on_c, 0, 67, 57
2, 173748, Control_c, 0, 64, 65
2, 173766, Control_c, 0, 64, 66
2, 173771, Note_on_c, 0, 67, 0
2, 173786, Control_c, 0, 64, 67
2, 173796, Note_on_c, 0, 75, 0
2, 173805, Control_c, 0, 64, 68
2, 173825, Control_c, 0, 64, 69
2, 173843, Control_c, 0, 64, 70
2, 173864, Note_on_c, 0, 77, 74
2, 173886, Note_on_c, 0, 68, 67
2, 173923, Note_on_c, 0, 68, 0
2, 173978, Note_on_c, 0, 77, 0
2, 173997, Control_c, 0, 64, 70
2, 174036, Control_c, 0, 64, 69
2, 174055, Control_c, 0, 64, 66
2, 174068, Note_on_c, 0, 51, 72
2, 174072, Note_on_c, 0, 79, 81
2, 174074, Control_c, 0, 64, 55
2, 174094, Control_c, 0, 64, 0
2, 174095, Note_on_c, 0, 70, 58
2, 174189, Control_c, 0, 64, 13
2, 174206, Note_on_c, 0, 70, 0
2, 174209, Control_c, 0, 64, 54
2, 174228, Control_c, 0, 64, 63
2, 174246, Control_c, 0, 64, 64
2, 174251, Note_on_c, 0, 63, 0
2, 174266, Control_c, 0, 64, 65
2, 174285, Control_c, 0, 64, 66
2, 174305, Control_c, 0, 64, 66
2, 174323, Control_c, 0, 64, 67
2, 174405, Note_on_c, 0, 63, 78
2, 174405, Note_on_c, 0, 75, 75
2, 174420, Control_c, 0, 64, 68
2, 174431, Note_on_c, 0, 51, 0
2, 174437, Note_on_c, 0, 67, 50
2, 174439, Control_c, 0, 64, 68
2, 174458, Control_c, 0, 64, 69
2, 174477, Control_c, 0, 64, 70
2, 174479, Note_on_c, 0, 79, 0
2, 174497, Control_c, 0, 64, 71
2, 174524, Note_on_c, 0, 67, 0
2, 174612, Control_c, 0, 64, 71
2, 174722, Control_c, 0, 64, 71
2, 174760, Control_c, 0, 64, 70
2, 174780, Control_c, 0, 64, 70
2, 174799, Control_c, 0, 64, 67
2, 174801, Note_on_c, 0, 62, 76
2, 174805, Note_on_c, 0, 77, 73
2, 174809, Note_on_c, 0, 75, 0
2, 174818, Control_c, 0, 64, 60
2, 174818, Note_on_c, 0, 58, 65
2, 174823, Note_on_c, 0, 65, 51
2, 174833, Note_on_c, 0, 63, 0
2, 174837, Control_c, 0, 64, 35
2, 174857, Control_c, 0, 64, 0
2, 174885, Note_on_c, 0, 65, 0
2, 175011, Control_c, 0, 64, 29
2, 175029, Control_c, 0, 64, 54
2, 175049, Control_c, 0, 64, 61
2, 175068, Control_c, 0, 64, 62
2, 175125, Control_c, 0, 64, 61
2, 175145, Control_c, 0, 64, 60
2, 175163, Control_c, 0, 64, 57
2, 175183, Control_c, 0, 64, 50
2, 175202, Control_c, 0, 64, 39
2, 175205, Note_on_c, 0, 75, 72
2, 175210, Note_on_c, 0, 67, 77
2, 175222, Control_c, 0, 64, 29
2, 175234, Note_on_c, 0, 70, 61
2, 175240, Control_c, 0, 64, 27
2, 175271, Note_on_c, 0, 77, 0
2, 175359, Note_on_c, 0, 74, 75
2, 175363, Note_on_c, 0, 75, 0
2, 175442, Note_on_c, 0, 70, 0
2, 175452, Control_c, 0, 64, 26
2, 175471, Control_c, 0, 64, 22
2, 175491, Control_c, 0, 64, 9
2, 175509, Control_c, 0, 64, 0
2, 175537, Note_on_c, 0, 72, 74
2, 175544, Note_on_c, 0, 74, 0
2, 175552, Note_on_c, 0, 68, 66
2, 175649, Control_c, 0, 64, 27
2, 175668, Control_c, 0, 64, 51
2, 175686, Control_c, 0, 64, 61
2, 175706, Control_c, 0, 64, 63
2, 175725, Control_c, 0, 64, 64
2, 175734, Note_on_c, 0, 68, 0
2, 175745, Control_c, 0, 64, 64
2, 175748, Note_on_c, 0, 67, 0
2, 175802, Control_c, 0, 64, 64
2, 175822, Control_c, 0, 64, 62
2, 175840, Control_c, 0, 64, 54
2, 175860, Control_c, 0, 64, 36
2, 175862, Note_on_c, 0, 62, 0
2, 175869, Note_on_c, 0, 72, 0
2, 175873, Note_on_c, 0, 74, 68
2, 175878, Note_on_c, 0, 65, 63
2, 175879, Control_c, 0, 64, 0
2, 175880, Note_on_c, 0, 56, 64
2, 175890, Note_on_c, 0, 70, 66
2, 175954, Note_on_c, 0, 58, 0
2, 175956, Control_c, 0, 64, 28
2, 175975, Control_c, 0, 64, 55
2, 175994, Control_c, 0, 64, 63
2, 176014, Control_c, 0, 64, 64
2, 176032, Control_c, 0, 64, 64
2, 176046, Note_on_c, 0, 70, 0
2, 176052, Control_c, 0, 64, 66
2, 176071, Control_c, 0, 64, 67
2, 176091, Control_c, 0, 64, 70
2, 176109, Control_c, 0, 64, 72
2, 176129, Control_c, 0, 64, 76
2, 176148, Control_c, 0, 64, 78
2, 176170, Note_on_c, 0, 56, 0
2, 176225, Control_c, 0, 64, 77
2, 176263, Control_c, 0, 64, 77
2, 176281, Note_on_c, 0, 74, 0
2, 176282, Control_c, 0, 64, 74
2, 176283, Note_on_c, 0, 70, 42
2, 176286, Note_on_c, 0, 75, 66
2, 176290, Note_on_c, 0, 55, 58
2, 176297, Note_on_c, 0, 63, 61
2, 176302, Control_c, 0, 64, 67
2, 176317, Note_on_c, 0, 65, 0
2, 176320, Control_c, 0, 64, 50
2, 176340, Control_c, 0, 64, 0
2, 176405, Note_on_c, 0, 75, 0
2, 176417, Control_c, 0, 64, 50
2, 176435, Note_on_c, 0, 70, 0
2, 176436, Control_c, 0, 64, 63
2, 176455, Control_c, 0, 64, 65
2, 176582, Note_on_c, 0, 63, 0
2, 176742, Control_c, 0, 64, 65
2, 176742, Note_on_c, 0, 60, 67
2, 176760, Note_on_c, 0, 63, 49
2, 176761, Control_c, 0, 64, 64
2, 176781, Control_c, 0, 64, 64
2, 176799, Control_c, 0, 64, 63
2, 176819, Control_c, 0, 64, 62
2, 176838, Control_c, 0, 64, 62
2, 176857, Control_c, 0, 64, 61
2, 176857, Note_on_c, 0, 55, 0
2, 176876, Control_c, 0, 64, 60
2, 176896, Control_c, 0, 64, 59
2, 176902, Note_on_c, 0, 63, 0
2, 176905, Note_on_c, 0, 62, 59
2, 176915, Control_c, 0, 64, 56
2, 176934, Control_c, 0, 64, 49
2, 176953, Control_c, 0, 64, 38
2, 176973, Control_c, 0, 64, 11
2, 176992, Control_c, 0, 64, 0
2, 177061, Note_on_c, 0, 62, 0
2, 177106, Note_on_c, 0, 63, 53
2, 177434, Note_on_c, 0, 60, 0
2, 177461, Note_on_c, 0, 58, 52
2, 177469, Note_on_c, 0, 67, 48
2, 177541, Note_on_c, 0, 63, 0
2, 177789, Note_on_c, 0, 58, 0
2, 177814, Note_on_c, 0, 56, 50
2, 177826, Note_on_c, 0, 60, 63
2, 177892, Note_on_c, 0, 67, 0
2, 178070, Note_on_c, 0, 56, 0
2, 178201, Note_on_c, 0, 56, 45
2, 178218, Note_on_c, 0, 65, 66
2, 178341, Note_on_c, 0, 60, 0
2, 178352, Note_on_c, 0, 56, 0
2, 178377, Note_on_c, 0, 55, 51
2, 178535, Note_on_c, 0, 55, 0
2, 178577, Note_on_c, 0, 56, 56
2, 178888, Note_on_c, 0, 56, 0
2, 178918, Note_on_c, 0, 63, 56
2, 178919, Note_on_c, 0, 60, 55
2, 178977, Note_on_c, 0, 65, 0
2, 179235, Note_on_c, 0, 63, 0
2, 179277, Note_on_c, 0, 53, 59
2, 179281, Note_on_c, 0, 62, 47
2, 179283, Note_on_c, 0, 60, 0
2, 179519, Note_on_c, 0, 62, 0
2, 179681, Note_on_c, 0, 58, 66
2, 179686, Note_on_c, 0, 62, 49
2, 179731, Note_on_c, 0, 53, 0
2, 179806, Note_on_c, 0, 62, 0
2, 179824, Note_on_c, 0, 60, 59
2, 179968, Note_on_c, 0, 60, 0
2, 180036, Note_on_c, 0, 62, 49
2, 180390, Note_on_c, 0, 56, 48
2, 180392, Note_on_c, 0, 65, 49
2, 180397, Note_on_c, 0, 58, 0
2, 180419, Note_on_c, 0, 62, 0
2, 180702, Note_on_c, 0, 56, 0
2, 180704, Note_on_c, 0, 65, 0
2, 180755, Note_on_c, 0, 55, 42
2, 180765, Note_on_c, 0, 58, 43
2, 180911, Control_c, 0, 64, 37
2, 180931, Control_c, 0, 64, 57
2, 180950, Control_c, 0, 64, 63
2, 180968, Control_c, 0, 64, 64
2, 180988, Control_c, 0, 64, 64
2, 180990, Note_on_c, 0, 58, 0
2, 180998, Note_on_c, 0, 55, 0
2, 181007, Control_c, 0, 64, 65
2, 181027, Control_c, 0, 64, 65
2, 181103, Control_c, 0, 64, 65
2, 181138, Note_on_c, 0, 55, 43
2, 181150, Note_on_c, 0, 58, 48
2, 181219, Control_c, 0, 64, 64
2, 181222, Note_on_c, 0, 55, 0
2, 181257, Control_c, 0, 64, 64
2, 181276, Control_c, 0, 64, 63
2, 181276, Note_on_c, 0, 53, 53
2, 181277, Note_on_c, 0, 58, 0
2, 181286, Note_on_c, 0, 56, 60
2, 181296, Control_c, 0, 64, 63
2, 181334, Control_c, 0, 64, 62
2, 181352, Control_c, 0, 64, 62
2, 181372, Control_c, 0, 64, 61
2, 181390, Control_c, 0, 64, 60
2, 181408, Note_on_c, 0, 56, 0
2, 181410, Control_c, 0, 64, 55
2, 181416, Note_on_c, 0, 53, 0
2, 181429, Control_c, 0, 64, 46
2, 181446, Control_c, 0, 64, 19
2, 181466, Control_c, 0, 64, 0
2, 181472, Note_on_c, 0, 55, 50
2, 181475, Note_on_c, 0, 58, 47
2, 181600, Control_c, 0, 64, 41
2, 181620, Control_c, 0, 64, 63
2, 181639, Control_c, 0, 64, 66
2, 181658, Control_c, 0, 64, 70
2, 181677, Control_c, 0, 64, 77
2, 181697, Control_c, 0, 64, 93
2, 181709, Note_on_c, 0, 55, 0
2, 181716, Control_c, 0, 64, 127
2, 181717, Note_on_c, 0, 58, 0
2, 181839, Note_on_c, 0, 62, 56
2, 181864, Note_on_c, 0, 58, 38
2, 181888, Note_on_c, 0, 62, 0
2, 181899, Note_on_c, 0, 58, 0
2, 182332, Control_c, 0, 64, 108
2, 182351, Control_c, 0, 64, 98
2, 182371, Control_c, 0, 64, 89
2, 182380, Note_on_c, 0, 70, 91
2, 182381, Note_on_c, 0, 51, 41
2, 182390, Control_c, 0, 64, 84
2, 182408, Control_c, 0, 64, 78
2, 182411, Note_on_c, 0, 55, 32
2, 182428, Control_c, 0, 64, 71
2, 182447, Control_c, 0, 64, 65
2, 182467, Control_c, 0, 64, 57
2, 182485, Control_c, 0, 64, 42
2, 182505, Control_c, 0, 64, 29
2, 182543, Control_c, 0, 64, 38
2, 182562, Control_c, 0, 64, 53
2, 182582, Control_c, 0, 64, 62
2, 182601, Control_c, 0, 64, 64
2, 182620, Control_c, 0, 64, 65
2, 182639, Control_c, 0, 64, 66
2, 182659, Control_c, 0, 64, 68
2, 182663, Note_on_c, 0, 51, 0
2, 182677, Control_c, 0, 64, 70
2, 182697, Control_c, 0, 64, 72
2, 182716, Control_c, 0, 64, 72
2, 182793, Control_c, 0, 64, 72
2, 182812, Control_c, 0, 64, 71
2, 182827, Note_on_c, 0, 51, 53
2, 182831, Control_c, 0, 64, 71
2, 182870, Control_c, 0, 64, 70
2, 182888, Control_c, 0, 64, 70
2, 182908, Control_c, 0, 64, 69
2, 182927, Control_c, 0, 64, 67
2, 182946, Note_on_c, 0, 51, 0
2, 182947, Control_c, 0, 64, 66
2, 182952, Note_on_c, 0, 50, 49
2, 182965, Control_c, 0, 64, 65
2, 182985, Control_c, 0, 64, 65
2, 183004, Control_c, 0, 64, 64
2, 183023, Control_c, 0, 64, 64
2, 183042, Control_c, 0, 64, 62
2, 183062, Control_c, 0, 64, 61
2, 183066, Note_on_c, 0, 55, 0
2, 183081, Control_c, 0, 64, 60
2, 183100, Control_c, 0, 64, 59
2, 183119, Control_c, 0, 64, 58
2, 183139, Control_c, 0, 64, 56
2, 183140, Note_on_c, 0, 50, 0
2, 183156, Note_on_c, 0, 51, 49
2, 183156, Note_on_c, 0, 67, 37
2, 183157, Control_c, 0, 64, 53
2, 183177, Control_c, 0, 64, 47
2, 183196, Control_c, 0, 64, 36
2, 183216, Control_c, 0, 64, 23
2, 183234, Control_c, 0, 64, 0
2, 183502, Note_on_c, 0, 55, 44
2, 183558, Control_c, 0, 64, 28
2, 183577, Control_c, 0, 64, 51
2, 183596, Control_c, 0, 64, 60
2, 183616, Control_c, 0, 64, 63
2, 183635, Control_c, 0, 64, 64
2, 183673, Control_c, 0, 64, 64
2, 183807, Control_c, 0, 64, 64
2, 183865, Control_c, 0, 64, 63
2, 183878, Note_on_c, 0, 75, 84
2, 183880, Note_on_c, 0, 48, 48
2, 183884, Control_c, 0, 64, 63
2, 183885, Note_on_c, 0, 51, 0
2, 183904, Control_c, 0, 64, 62
2, 183922, Control_c, 0, 64, 60
2, 183925, Note_on_c, 0, 70, 0
2, 183927, Note_on_c, 0, 67, 0
2, 183934, Note_on_c, 0, 55, 0
2, 183942, Control_c, 0, 64, 58
2, 183961, Control_c, 0, 64, 56
2, 183981, Control_c, 0, 64, 52
2, 183999, Control_c, 0, 64, 43
2, 184019, Control_c, 0, 64, 20
2, 184038, Control_c, 0, 64, 0
2, 184211, Control_c, 0, 64, 31
2, 184231, Control_c, 0, 64, 49
2, 184240, Note_on_c, 0, 67, 41
2, 184251, Control_c, 0, 64, 55
2, 184269, Control_c, 0, 64, 56
2, 184308, Control_c, 0, 64, 57
2, 184374, Note_on_c, 0, 65, 52
2, 184423, Note_on_c, 0, 67, 0
2, 184441, Control_c, 0, 64, 56
2, 184461, Control_c, 0, 64, 51
2, 184479, Control_c, 0, 64, 40
2, 184499, Control_c, 0, 64, 0
2, 184577, Note_on_c, 0, 65, 0
2, 184587, Note_on_c, 0, 67, 46
2, 184599, Note_on_c, 0, 60, 37
2, 184691, Control_c, 0, 64, 32
2, 184710, Control_c, 0, 64, 58
2, 184729, Control_c, 0, 64, 63
2, 184748, Control_c, 0, 64, 64
2, 184767, Control_c, 0, 64, 66
2, 184767, Note_on_c, 0, 48, 0
2, 184780, Note_on_c, 0, 75, 0
2, 184787, Control_c, 0, 64, 69
2, 184806, Control_c, 0, 64, 76
2, 184825, Control_c, 0, 64, 85
2, 184844, Control_c, 0, 64, 96
2, 184864, Control_c, 0, 64, 104
2, 184882, Control_c, 0, 64, 110
2, 184882, Note_on_c, 0, 69, 74
2, 184889, Note_on_c, 0, 67, 0
2, 184891, Note_on_c, 0, 75, 89
2, 184902, Control_c, 0, 64, 116
2, 184918, Note_on_c, 0, 69, 0
2, 184921, Control_c, 0, 64, 127
2, 184968, Note_on_c, 0, 75, 0
2, 185075, Note_on_c, 0, 60, 0
2, 185171, Control_c, 0, 64, 115
2, 185191, Control_c, 0, 64, 108
2, 185211, Control_c, 0, 64, 103
2, 185229, Control_c, 0, 64, 99
2, 185248, Control_c, 0, 64, 94
2, 185268, Control_c, 0, 64, 84
2, 185286, Control_c, 0, 64, 72
2, 185291, Note_on_c, 0, 82, 89
2, 185306, Control_c, 0, 64, 61
2, 185325, Control_c, 0, 64, 0
2, 185331, Note_on_c, 0, 70, 50
2, 185332, Note_on_c, 0, 58, 44
2, 185349, Note_on_c, 0, 74, 29
2, 185424, Note_on_c, 0, 70, 0
2, 185440, Control_c, 0, 64, 54
2, 185442, Note_on_c, 0, 74, 0
2, 185460, Control_c, 0, 64, 63
2, 185479, Control_c, 0, 64, 65
2, 185482, Note_on_c, 0, 70, 11
2, 185498, Control_c, 0, 64, 67
2, 185501, Note_on_c, 0, 58, 0
2, 185517, Control_c, 0, 64, 69
2, 185537, Control_c, 0, 64, 73
2, 185556, Control_c, 0, 64, 76
2, 185575, Control_c, 0, 64, 77
2, 185594, Control_c, 0, 64, 77
2, 185614, Control_c, 0, 64, 76
2, 185632, Control_c, 0, 64, 75
2, 185647, Note_on_c, 0, 79, 63
2, 185652, Control_c, 0, 64, 73
2, 185660, Note_on_c, 0, 58, 53
2, 185671, Control_c, 0, 64, 71
2, 185671, Note_on_c, 0, 62, 47
2, 185691, Control_c, 0, 64, 69
2, 185709, Control_c, 0, 64, 66
2, 185728, Control_c, 0, 64, 62
2, 185748, Control_c, 0, 64, 49
2, 185766, Control_c, 0, 64, 0
2, 185798, Note_on_c, 0, 58, 0
2, 185805, Note_on_c, 0, 60, 61
2, 185821, Note_on_c, 0, 56, 48
2, 185847, Note_on_c, 0, 62, 0
2, 185923, Note_on_c, 0, 60, 0
2, 185932, Note_on_c, 0, 56, 0
2, 185994, Note_on_c, 0, 58, 59
2, 185995, Note_on_c, 0, 62, 66
2, 186011, Note_on_c, 0, 82, 0
2, 186152, Control_c, 0, 64, 53
2, 186172, Control_c, 0, 64, 62
2, 186178, Note_on_c, 0, 58, 0
2, 186187, Note_on_c, 0, 62, 0
2, 186190, Control_c, 0, 64, 63
2, 186209, Control_c, 0, 64, 66
2, 186229, Control_c, 0, 64, 70
2, 186245, Control_c, 0, 64, 77
2, 186264, Control_c, 0, 64, 84
2, 186283, Control_c, 0, 64, 86
2, 186303, Control_c, 0, 64, 83
2, 186316, Note_on_c, 0, 80, 88
2, 186322, Control_c, 0, 64, 78
2, 186337, Note_on_c, 0, 77, 65
2, 186341, Control_c, 0, 64, 74
2, 186342, Note_on_c, 0, 79, 0
2, 186344, Note_on_c, 0, 65, 52
2, 186347, Note_on_c, 0, 62, 49
2, 186360, Control_c, 0, 64, 75
2, 186380, Control_c, 0, 64, 77
2, 186398, Control_c, 0, 64, 80
2, 186427, Note_on_c, 0, 70, 0
2, 186437, Control_c, 0, 64, 80
2, 186457, Control_c, 0, 64, 79
2, 186475, Control_c, 0, 64, 80
2, 186491, Note_on_c, 0, 62, 0
2, 186495, Control_c, 0, 64, 81
2, 186514, Control_c, 0, 64, 81
2, 186533, Control_c, 0, 64, 81
2, 186534, Note_on_c, 0, 65, 0
2, 186552, Control_c, 0, 64, 80
2, 186559, Note_on_c, 0, 80, 0
2, 186572, Control_c, 0, 64, 79
2, 186591, Control_c, 0, 64, 79
2, 186609, Control_c, 0, 64, 77
2, 186629, Control_c, 0, 64, 74
2, 186648, Control_c, 0, 64, 69
2, 186662, Note_on_c, 0, 79, 86
2, 186667, Control_c, 0, 64, 65
2, 186684, Note_on_c, 0, 67, 55
2, 186685, Note_on_c, 0, 63, 49
2, 186686, Control_c, 0, 64, 58
2, 186691, Note_on_c, 0, 77, 0
2, 186706, Control_c, 0, 64, 36
2, 186725, Control_c, 0, 64, 0
2, 186917, Control_c, 0, 64, 27
2, 186928, Note_on_c, 0, 67, 0
2, 186937, Control_c, 0, 64, 34
2, 186955, Control_c, 0, 64, 37
2, 186975, Control_c, 0, 64, 40
2, 187013, Control_c, 0, 64, 39
2, 187032, Control_c, 0, 64, 35
2, 187052, Control_c, 0, 64, 24
2, 187055, Note_on_c, 0, 67, 56
2, 187062, Note_on_c, 0, 84, 81
2, 187071, Control_c, 0, 64, 0
2, 187099, Note_on_c, 0, 75, 60
2, 187128, Note_on_c, 0, 79, 0
2, 187197, Note_on_c, 0, 67, 0
2, 187217, Note_on_c, 0, 74, 64
2, 187220, Note_on_c, 0, 75, 0
2, 187224, Note_on_c, 0, 65, 50
2, 187360, Note_on_c, 0, 65, 0
2, 187382, Note_on_c, 0, 74, 0
2, 187393, Note_on_c, 0, 75, 52
2, 187426, Note_on_c, 0, 67, 39
2, 187456, Control_c, 0, 64, 27
2, 187475, Control_c, 0, 64, 60
2, 187494, Control_c, 0, 64, 65
2, 187513, Control_c, 0, 64, 68
2, 187533, Control_c, 0, 64, 71
2, 187552, Control_c, 0, 64, 75
2, 187570, Control_c, 0, 64, 80
2, 187588, Note_on_c, 0, 84, 0
2, 187590, Control_c, 0, 64, 86
2, 187609, Control_c, 0, 64, 88
2, 187628, Control_c, 0, 64, 89
2, 187647, Control_c, 0, 64, 89
2, 187732, Note_on_c, 0, 63, 0
2, 187744, Control_c, 0, 64, 86
2, 187751, Note_on_c, 0, 75, 0
2, 187754, Note_on_c, 0, 82, 89
2, 187759, Note_on_c, 0, 67, 0
2, 187762, Control_c, 0, 64, 74
2, 187763, Note_on_c, 0, 79, 64
2, 187775, Note_on_c, 0, 64, 43
2, 187782, Control_c, 0, 64, 57
2, 187801, Control_c, 0, 64, 0
2, 188057, Note_on_c, 0, 79, 0
2, 188071, Note_on_c, 0, 64, 0
2, 188126, Note_on_c, 0, 80, 82
2, 188157, Note_on_c, 0, 65, 45
2, 188159, Note_on_c, 0, 72, 50
2, 188166, Note_on_c, 0, 82, 0
2, 188185, Control_c, 0, 64, 20
2, 188204, Control_c, 0, 64, 49
2, 188224, Control_c, 0, 64, 63
2, 188236, Note_on_c, 0, 72, 0
2, 188242, Control_c, 0, 64, 70
2, 188242, Note_on_c, 0, 65, 0
2, 188262, Control_c, 0, 64, 77
2, 188281, Control_c, 0, 64, 85
2, 188301, Control_c, 0, 64, 92
2, 188303, Note_on_c, 0, 80, 0
2, 188319, Control_c, 0, 64, 100
2, 188339, Control_c, 0, 64, 111
2, 188358, Control_c, 0, 64, 118
2, 188454, Control_c, 0, 64, 117
2, 188473, Control_c, 0, 64, 112
2, 188493, Control_c, 0, 64, 106
2, 188494, Note_on_c, 0, 80, 68
2, 188500, Note_on_c, 0, 53, 53
2, 188503, Note_on_c, 0, 60, 43
2, 188512, Control_c, 0, 64, 99
2, 188523, Note_on_c, 0, 77, 44
2, 188530, Control_c, 0, 64, 92
2, 188550, Control_c, 0, 64, 84
2, 188569, Control_c, 0, 64, 74
2, 188585, Note_on_c, 0, 77, 0
2, 188588, Control_c, 0, 64, 66
2, 188607, Control_c, 0, 64, 61
2, 188627, Control_c, 0, 64, 56
2, 188638, Note_on_c, 0, 53, 0
2, 188643, Note_on_c, 0, 52, 49
2, 188643, Note_on_c, 0, 79, 73
2, 188646, Control_c, 0, 64, 57
2, 188665, Control_c, 0, 64, 60
2, 188667, Note_on_c, 0, 60, 0
2, 188684, Control_c, 0, 64, 62
2, 188685, Note_on_c, 0, 52, 0
2, 188704, Control_c, 0, 64, 63
2, 188728, Note_on_c, 0, 80, 0
2, 188781, Control_c, 0, 64, 62
2, 188785, Note_on_c, 0, 79, 0
2, 188799, Control_c, 0, 64, 61
2, 188819, Control_c, 0, 64, 55
2, 188829, Note_on_c, 0, 53, 61
2, 188832, Note_on_c, 0, 77, 66
2, 188838, Control_c, 0, 64, 22
2, 188841, Note_on_c, 0, 80, 80
2, 188842, Note_on_c, 0, 65, 55
2, 188857, Control_c, 0, 64, 0
2, 189022, Note_on_c, 0, 77, 0
2, 189172, Note_on_c, 0, 84, 79
2, 189178, Note_on_c, 0, 57, 64
2, 189193, Note_on_c, 0, 75, 73
2, 189204, Note_on_c, 0, 80, 0
2, 189429, Note_on_c, 0, 75, 0
2, 189517, Note_on_c, 0, 58, 64
2, 189521, Note_on_c, 0, 77, 78
2, 189528, Note_on_c, 0, 57, 0
2, 189538, Note_on_c, 0, 84, 0
2, 189539, Note_on_c, 0, 74, 64
2, 189569, Note_on_c, 0, 65, 0
2, 189680, Note_on_c, 0, 77, 0
2, 189758, Control_c, 0, 64, 45
2, 189778, Control_c, 0, 64, 60
2, 189797, Control_c, 0, 64, 61
2, 189807, Note_on_c, 0, 74, 0
2, 189817, Control_c, 0, 64, 59
2, 189835, Control_c, 0, 64, 55
2, 189855, Control_c, 0, 64, 49
2, 189862, Note_on_c, 0, 58, 0
2, 189874, Control_c, 0, 64, 38
2, 189883, Note_on_c, 0, 65, 56
2, 189893, Control_c, 0, 64, 9
2, 189909, Note_on_c, 0, 82, 80
2, 189912, Control_c, 0, 64, 0
2, 189934, Note_on_c, 0, 74, 57
2, 190056, Note_on_c, 0, 74, 0
2, 190057, Note_on_c, 0, 72, 73
2, 190077, Note_on_c, 0, 63, 50
2, 190078, Note_on_c, 0, 65, 0
2, 190176, Note_on_c, 0, 72, 0
2, 190219, Note_on_c, 0, 63, 0
2, 190267, Note_on_c, 0, 65, 38
2, 190267, Note_on_c, 0, 74, 43
2, 190373, Control_c, 0, 64, 52
2, 190392, Control_c, 0, 64, 63
2, 190412, Control_c, 0, 64, 65
2, 190431, Control_c, 0, 64, 66
2, 190449, Control_c, 0, 64, 67
2, 190469, Control_c, 0, 64, 68
2, 190510, Note_on_c, 0, 82, 0
2, 190546, Control_c, 0, 64, 67
2, 190582, Note_on_c, 0, 53, 0
2, 190584, Control_c, 0, 64, 67
2, 190601, Note_on_c, 0, 80, 66
2, 190603, Control_c, 0, 64, 64
2, 190619, Note_on_c, 0, 62, 45
2, 190622, Note_on_c, 0, 77, 53
2, 190623, Control_c, 0, 64, 51
2, 190627, Note_on_c, 0, 65, 0
2, 190642, Control_c, 0, 64, 0
2, 190757, Control_c, 0, 64, 53
2, 190777, Control_c, 0, 64, 61
2, 190795, Control_c, 0, 64, 62
2, 190815, Control_c, 0, 64, 63
2, 190825, Note_on_c, 0, 74, 0
2, 190834, Control_c, 0, 64, 63
2, 190872, Control_c, 0, 64, 63
2, 190885, Note_on_c, 0, 62, 0
2, 190892, Control_c, 0, 64, 61
2, 190911, Control_c, 0, 64, 56
2, 190929, Control_c, 0, 64, 43
2, 190953, Control_c, 0, 64, 0
2, 190957, Note_on_c, 0, 79, 66
2, 190958, Note_on_c, 0, 77, 0
2, 190959, Note_on_c, 0, 80, 0
2, 190970, Note_on_c, 0, 63, 48
2, 190989, Note_on_c, 0, 70, 38
2, 191064, Control_c, 0, 64, 13
2, 191083, Control_c, 0, 64, 57
2, 191103, Control_c, 0, 64, 65
2, 191122, Control_c, 0, 64, 67
2, 191141, Control_c, 0, 64, 68
2, 191160, Control_c, 0, 64, 68
2, 191180, Control_c, 0, 64, 69
2, 191191, Note_on_c, 0, 79, 0
2, 191197, Note_on_c, 0, 70, 0
2, 191198, Control_c, 0, 64, 70
2, 191218, Control_c, 0, 64, 71
2, 191237, Control_c, 0, 64, 72
2, 191257, Control_c, 0, 64, 72
2, 191322, Note_on_c, 0, 58, 41
2, 191336, Note_on_c, 0, 51, 40
2, 191339, Note_on_c, 0, 70, 55
2, 191341, Note_on_c, 0, 79, 66
2, 191372, Control_c, 0, 64, 73
2, 191383, Note_on_c, 0, 70, 0
2, 191467, Control_c, 0, 64, 73
2, 191494, Note_on_c, 0, 77, 68
2, 191496, Note_on_c, 0, 63, 0
2, 191498, Note_on_c, 0, 79, 0
2, 191525, Control_c, 0, 64, 73
2, 191527, Note_on_c, 0, 68, 38
2, 191555, Note_on_c, 0, 68, 0
2, 191562, Note_on_c, 0, 51, 0
2, 191563, Control_c, 0, 64, 72
2, 191566, Note_on_c, 0, 58, 0
2, 191583, Control_c, 0, 64, 71
2, 191602, Control_c, 0, 64, 71
2, 191621, Control_c, 0, 64, 70
2, 191640, Control_c, 0, 64, 69
2, 191660, Control_c, 0, 64, 68
2, 191678, Control_c, 0, 64, 66
2, 191680, Note_on_c, 0, 63, 46
2, 191688, Note_on_c, 0, 79, 65
2, 191698, Control_c, 0, 64, 62
2, 191717, Control_c, 0, 64, 43
2, 191718, Note_on_c, 0, 70, 45
2, 191721, Note_on_c, 0, 77, 0
2, 191737, Control_c, 0, 64, 0
2, 191832, Control_c, 0, 64, 32
2, 191835, Note_on_c, 0, 62, 65
2, 191852, Control_c, 0, 64, 59
2, 191871, Control_c, 0, 64, 63
2, 191889, Control_c, 0, 64, 64
2, 191925, Note_on_c, 0, 63, 0
2, 191966, Control_c, 0, 64, 63
2, 191986, Control_c, 0, 64, 59
2, 191998, Note_on_c, 0, 70, 0
2, 192006, Control_c, 0, 64, 35
2, 192025, Control_c, 0, 64, 0
2, 192025, Note_on_c, 0, 82, 71
2, 192039, Note_on_c, 0, 74, 53
2, 192041, Note_on_c, 0, 60, 68
2, 192063, Note_on_c, 0, 79, 0
2, 192066, Note_on_c, 0, 62, 0
2, 192141, Control_c, 0, 64, 45
2, 192159, Control_c, 0, 64, 59
2, 192179, Control_c, 0, 64, 60
2, 192181, Note_on_c, 0, 82, 0
2, 192186, Note_on_c, 0, 58, 72
2, 192198, Control_c, 0, 64, 59
2, 192214, Note_on_c, 0, 60, 0
2, 192217, Control_c, 0, 64, 56
2, 192217, Note_on_c, 0, 74, 0
2, 192236, Control_c, 0, 64, 47
2, 192256, Control_c, 0, 64, 36
2, 192275, Control_c, 0, 64, 27
2, 192294, Control_c, 0, 64, 24
2, 192313, Control_c, 0, 64, 18
2, 192333, Control_c, 0, 64, 0
2, 192337, Note_on_c, 0, 58, 0
2, 192387, Note_on_c, 0, 60, 63
2, 192396, Note_on_c, 0, 75, 64
2, 192405, Note_on_c, 0, 67, 51
2, 192524, Control_c, 0, 64, 52
2, 192544, Control_c, 0, 64, 62
2, 192562, Control_c, 0, 64, 63
2, 192582, Control_c, 0, 64, 63
2, 192601, Note_on_c, 0, 67, 0
2, 192613, Note_on_c, 0, 75, 0
2, 192621, Control_c, 0, 64, 64
2, 192639, Control_c, 0, 64, 64
2, 192659, Control_c, 0, 64, 65
2, 192749, Note_on_c, 0, 48, 47
2, 192751, Note_on_c, 0, 75, 68
2, 192774, Control_c, 0, 64, 64
2, 192774, Note_on_c, 0, 69, 53
2, 192817, Note_on_c, 0, 69, 0
2, 192832, Control_c, 0, 64, 64
2, 192857, Note_on_c, 0, 75, 0
2, 192865, Note_on_c, 0, 60, 0
2, 192890, Control_c, 0, 64, 63
2, 192911, Note_on_c, 0, 74, 65
2, 192928, Control_c, 0, 64, 63
2, 192933, Note_on_c, 0, 71, 56
2, 192986, Control_c, 0, 64, 62
2, 193005, Control_c, 0, 64, 62
2, 193025, Control_c, 0, 64, 61
2, 193036, Note_on_c, 0, 48, 0
2, 193043, Control_c, 0, 64, 60
2, 193063, Control_c, 0, 64, 58
2, 193082, Control_c, 0, 64, 54
2, 193102, Control_c, 0, 64, 41
2, 193103, Note_on_c, 0, 60, 56
2, 193104, Note_on_c, 0, 75, 66
2, 193120, Control_c, 0, 64, 15
2, 193131, Note_on_c, 0, 72, 54
2, 193135, Note_on_c, 0, 71, 0
2, 193140, Control_c, 0, 64, 0
2, 193147, Note_on_c, 0, 74, 0
2, 193248, Note_on_c, 0, 58, 60
2, 193255, Control_c, 0, 64, 39
2, 193274, Control_c, 0, 64, 54
2, 193294, Control_c, 0, 64, 58
2, 193358, Note_on_c, 0, 60, 0
2, 193408, Control_c, 0, 64, 57
2, 193428, Control_c, 0, 64, 55
2, 193430, Note_on_c, 0, 79, 74
2, 193432, Note_on_c, 0, 71, 62
2, 193433, Note_on_c, 0, 56, 67
2, 193447, Control_c, 0, 64, 51
2, 193466, Control_c, 0, 64, 44
2, 193467, Note_on_c, 0, 58, 0
2, 193485, Control_c, 0, 64, 36
2, 193503, Note_on_c, 0, 72, 0
2, 193505, Control_c, 0, 64, 32
2, 193523, Control_c, 0, 64, 32
2, 193555, Note_on_c, 0, 75, 0
2, 193562, Control_c, 0, 64, 33
2, 193582, Control_c, 0, 64, 37
2, 193585, Note_on_c, 0, 55, 70
2, 193600, Control_c, 0, 64, 43
2, 193620, Control_c, 0, 64, 47
2, 193637, Note_on_c, 0, 56, 0
2, 193639, Control_c, 0, 64, 49
2, 193677, Control_c, 0, 64, 47
2, 193697, Control_c, 0, 64, 41
2, 193716, Control_c, 0, 64, 30
2, 193735, Control_c, 0, 64, 9
2, 193754, Control_c, 0, 64, 0
2, 193832, Note_on_c, 0, 56, 54
2, 193839, Note_on_c, 0, 55, 0
2, 193862, Note_on_c, 0, 72, 83
2, 193913, Note_on_c, 0, 79, 0
2, 193924, Note_on_c, 0, 71, 0
2, 194250, Note_on_c, 0, 44, 45
2, 194257, Note_on_c, 0, 74, 53
2, 194321, Note_on_c, 0, 56, 0
2, 194415, Note_on_c, 0, 75, 68
2, 194583, Note_on_c, 0, 44, 0
2, 194590, Note_on_c, 0, 77, 71
2, 194601, Note_on_c, 0, 56, 64
2, 194739, Note_on_c, 0, 71, 75
2, 194819, Note_on_c, 0, 72, 0
2, 194835, Note_on_c, 0, 74, 0
2, 194945, Note_on_c, 0, 72, 79
2, 194948, Note_on_c, 0, 55, 54
2, 195004, Note_on_c, 0, 71, 0
2, 195016, Note_on_c, 0, 75, 0
2, 195059, Note_on_c, 0, 56, 0
2, 195100, Note_on_c, 0, 74, 76
2, 195102, Note_on_c, 0, 53, 52
2, 195114, Note_on_c, 0, 55, 0
2, 195150, Note_on_c, 0, 72, 0
2, 195313, Note_on_c, 0, 53, 0
2, 195319, Note_on_c, 0, 55, 48
2, 195325, Note_on_c, 0, 71, 77
2, 195356, Note_on_c, 0, 74, 0
2, 195481, Control_c, 0, 64, 34
2, 195501, Control_c, 0, 64, 57
2, 195519, Control_c, 0, 64, 62
2, 195539, Control_c, 0, 64, 63
2, 195558, Control_c, 0, 64, 65
2, 195577, Control_c, 0, 64, 66
2, 195596, Control_c, 0, 64, 69
2, 195616, Control_c, 0, 64, 73
2, 195635, Control_c, 0, 64, 79
2, 195654, Control_c, 0, 64, 87
2, 195673, Control_c, 0, 64, 96
2, 195688, Note_on_c, 0, 67, 57
2, 195693, Control_c, 0, 64, 105
2, 195708, Note_on_c, 0, 71, 0
2, 195712, Control_c, 0, 64, 114
2, 195730, Control_c, 0, 64, 117
2, 195750, Control_c, 0, 64, 118
2, 195782, Note_on_c, 0, 67, 0
2, 195845, Control_c, 0, 64, 117
2, 195864, Control_c, 0, 64, 114
2, 195883, Control_c, 0, 64, 110
2, 195903, Control_c, 0, 64, 107
2, 195922, Control_c, 0, 64, 105
2, 195941, Control_c, 0, 64, 104
2, 195960, Control_c, 0, 64, 102
2, 195980, Control_c, 0, 64, 100
2, 195998, Control_c, 0, 64, 97
2, 196018, Control_c, 0, 64, 95
2, 196037, Control_c, 0, 64, 92
2, 196057, Control_c, 0, 64, 89
2, 196075, Control_c, 0, 64, 85
2, 196089, Note_on_c, 0, 77, 0
2, 196095, Control_c, 0, 64, 81
2, 196114, Control_c, 0, 64, 77
2, 196120, Note_on_c, 0, 75, 58
2, 196126, Note_on_c, 0, 72, 49
2, 196133, Control_c, 0, 64, 74
2, 196152, Control_c, 0, 64, 71
2, 196171, Control_c, 0, 64, 69
2, 196191, Control_c, 0, 64, 67
2, 196209, Control_c, 0, 64, 65
2, 196229, Control_c, 0, 64, 63
2, 196248, Control_c, 0, 64, 62
2, 196267, Control_c, 0, 64, 62
2, 196278, Note_on_c, 0, 75, 0
2, 196286, Control_c, 0, 64, 61
2, 196306, Control_c, 0, 64, 59
2, 196323, Note_on_c, 0, 74, 58
2, 196325, Control_c, 0, 64, 57
2, 196344, Control_c, 0, 64, 55
2, 196363, Control_c, 0, 64, 53
2, 196383, Control_c, 0, 64, 51
2, 196402, Control_c, 0, 64, 49
2, 196421, Control_c, 0, 64, 45
2, 196440, Control_c, 0, 64, 39
2, 196460, Control_c, 0, 64, 31
2, 196478, Control_c, 0, 64, 27
2, 196485, Note_on_c, 0, 75, 67
2, 196488, Note_on_c, 0, 74, 0
2, 196498, Control_c, 0, 64, 25
2, 196537, Control_c, 0, 64, 24
2, 196555, Control_c, 0, 64, 22
2, 196575, Control_c, 0, 64, 20
2, 196594, Control_c, 0, 64, 18
2, 196613, Control_c, 0, 64, 15
2, 196632, Control_c, 0, 64, 13
2, 196642, Note_on_c, 0, 75, 0
2, 196643, Note_on_c, 0, 77, 59
2, 196651, Control_c, 0, 64, 9
2, 196671, Control_c, 0, 64, 0
2, 196783, Note_on_c, 0, 77, 0
2, 196821, Note_on_c, 0, 74, 53
2, 196964, Note_on_c, 0, 53, 46
2, 196994, Note_on_c, 0, 55, 0
2, 197094, Note_on_c, 0, 53, 0
2, 197160, Note_on_c, 0, 55, 42
2, 197160, Note_on_c, 0, 79, 66
2, 197171, Note_on_c, 0, 72, 0
2, 197309, Note_on_c, 0, 55, 0
2, 197319, Note_on_c, 0, 56, 49
2, 197436, Note_on_c, 0, 56, 0
2, 197487, Note_on_c, 0, 55, 49
2, 197512, Note_on_c, 0, 70, 59
2, 197631, Note_on_c, 0, 55, 0
2, 197659, Note_on_c, 0, 53, 39
2, 197811, Note_on_c, 0, 53, 0
2, 197823, Note_on_c, 0, 79, 0
2, 197832, Note_on_c, 0, 52, 41
2, 197837, Note_on_c, 0, 77, 53
2, 197854, Note_on_c, 0, 74, 0
2, 198012, Note_on_c, 0, 50, 47
2, 198045, Note_on_c, 0, 52, 0
2, 198226, Note_on_c, 0, 50, 0
2, 198287, Note_on_c, 0, 48, 36
2, 198301, Note_on_c, 0, 77, 0
2, 198303, Note_on_c, 0, 76, 53
2, 198475, Control_c, 0, 64, 13
2, 198495, Control_c, 0, 64, 35
2, 198514, Control_c, 0, 64, 49
2, 198532, Control_c, 0, 64, 57
2, 198552, Control_c, 0, 64, 60
2, 198571, Control_c, 0, 64, 62
2, 198591, Control_c, 0, 64, 63
2, 198609, Control_c, 0, 64, 64
2, 198629, Control_c, 0, 64, 65
2, 198638, Note_on_c, 0, 72, 47
2, 198648, Control_c, 0, 64, 66
2, 198667, Control_c, 0, 64, 67
2, 198679, Note_on_c, 0, 70, 0
2, 198686, Control_c, 0, 64, 69
2, 198706, Control_c, 0, 64, 72
2, 198725, Control_c, 0, 64, 76
2, 198744, Control_c, 0, 64, 79
2, 198763, Control_c, 0, 64, 81
2, 198898, Control_c, 0, 64, 80
2, 198937, Control_c, 0, 64, 79
2, 198955, Control_c, 0, 64, 78
2, 198960, Note_on_c, 0, 76, 0
2, 198975, Control_c, 0, 64, 77
2, 198987, Note_on_c, 0, 72, 0
2, 198992, Note_on_c, 0, 68, 47
2, 198994, Control_c, 0, 64, 76
2, 199003, Note_on_c, 0, 77, 56
2, 199012, Control_c, 0, 64, 75
2, 199032, Control_c, 0, 64, 73
2, 199051, Control_c, 0, 64, 70
2, 199071, Control_c, 0, 64, 68
2, 199089, Control_c, 0, 64, 66
2, 199097, Note_on_c, 0, 68, 0
2, 199109, Control_c, 0, 64, 65
2, 199128, Control_c, 0, 64, 64
2, 199147, Control_c, 0, 64, 63
2, 199152, Note_on_c, 0, 67, 53
2, 199166, Control_c, 0, 64, 62
2, 199186, Control_c, 0, 64, 61
2, 199205, Control_c, 0, 64, 59
2, 199224, Control_c, 0, 64, 55
2, 199243, Control_c, 0, 64, 51
2, 199263, Control_c, 0, 64, 47
2, 199282, Control_c, 0, 64, 41
2, 199301, Control_c, 0, 64, 35
2, 199320, Control_c, 0, 64, 26
2, 199337, Note_on_c, 0, 68, 69
2, 199340, Control_c, 0, 64, 0
2, 199393, Note_on_c, 0, 67, 0
2, 199479, Note_on_c, 0, 70, 75
2, 199499, Note_on_c, 0, 68, 0
2, 199598, Note_on_c, 0, 70, 0
2, 199679, Note_on_c, 0, 67, 46
2, 199832, Note_on_c, 0, 46, 53
2, 199882, Note_on_c, 0, 48, 0
2, 199987, Note_on_c, 0, 72, 50
2, 199995, Note_on_c, 0, 46, 0
2, 200017, Note_on_c, 0, 48, 57
2, 200150, Note_on_c, 0, 50, 63
2, 200178, Note_on_c, 0, 67, 0
2, 200269, Note_on_c, 0, 48, 0
2, 200279, Note_on_c, 0, 50, 0
2, 200327, Note_on_c, 0, 48, 46
2, 200334, Note_on_c, 0, 75, 67
2, 200418, Note_on_c, 0, 77, 0
2, 200497, Note_on_c, 0, 46, 64
2, 200519, Note_on_c, 0, 48, 0
2, 200677, Note_on_c, 0, 45, 56
2, 200679, Note_on_c, 0, 46, 0
2, 200698, Note_on_c, 0, 70, 60
2, 200793, Note_on_c, 0, 45, 0
2, 200823, Note_on_c, 0, 43, 55
2, 200916, Note_on_c, 0, 72, 0
2, 200929, Note_on_c, 0, 70, 0
2, 200979, Note_on_c, 0, 43, 0
2, 201043, Note_on_c, 0, 41, 48
2, 201063, Note_on_c, 0, 69, 55
2, 201144, Control_c, 0, 64, 53
2, 201163, Control_c, 0, 64, 64
2, 201183, Control_c, 0, 64, 66
2, 201202, Control_c, 0, 64, 69
2, 201221, Control_c, 0, 64, 74
2, 201240, Control_c, 0, 64, 79
2, 201252, Note_on_c, 0, 69, 0
2, 201260, Control_c, 0, 64, 86
2, 201278, Control_c, 0, 64, 94
2, 201298, Control_c, 0, 64, 104
2, 201317, Control_c, 0, 64, 127
2, 201460, Note_on_c, 0, 65, 45
2, 201538, Note_on_c, 0, 65, 0
2, 201741, Control_c, 0, 64, 112
2, 201759, Control_c, 0, 64, 104
2, 201779, Control_c, 0, 64, 99
2, 201798, Control_c, 0, 64, 95
2, 201817, Control_c, 0, 64, 90
2, 201826, Note_on_c, 0, 70, 55
2, 201836, Control_c, 0, 64, 86
2, 201837, Note_on_c, 0, 74, 61
2, 201839, Note_on_c, 0, 75, 0
2, 201856, Control_c, 0, 64, 82
2, 201875, Control_c, 0, 64, 79
2, 201894, Control_c, 0, 64, 76
2, 201913, Control_c, 0, 64, 75
2, 201932, Control_c, 0, 64, 73
2, 201952, Control_c, 0, 64, 71
2, 201970, Control_c, 0, 64, 69
2, 201990, Control_c, 0, 64, 67
2, 201997, Note_on_c, 0, 72, 72
2, 202009, Control_c, 0, 64, 65
2, 202028, Control_c, 0, 64, 64
2, 202032, Note_on_c, 0, 74, 0
2, 202047, Control_c, 0, 64, 64
2, 202067, Control_c, 0, 64, 63
2, 202086, Control_c, 0, 64, 62
2, 202105, Control_c, 0, 64, 60
2, 202124, Control_c, 0, 64, 58
2, 202144, Control_c, 0, 64, 55
2, 202162, Control_c, 0, 64, 52
2, 202174, Note_on_c, 0, 74, 74
2, 202182, Control_c, 0, 64, 50
2, 202201, Control_c, 0, 64, 48
2, 202221, Control_c, 0, 64, 45
2, 202230, Note_on_c, 0, 72, 0
2, 202239, Control_c, 0, 64, 40
2, 202259, Control_c, 0, 64, 31
2, 202278, Control_c, 0, 64, 19
2, 202297, Control_c, 0, 64, 0
2, 202321, Note_on_c, 0, 75, 83
2, 202365, Note_on_c, 0, 74, 0
2, 202505, Note_on_c, 0, 72, 85
2, 202508, Note_on_c, 0, 75, 0
2, 202684, Note_on_c, 0, 51, 54
2, 202699, Note_on_c, 0, 41, 0
2, 202882, Note_on_c, 0, 77, 78
2, 202899, Note_on_c, 0, 51, 0
2, 202904, Note_on_c, 0, 53, 52
2, 203005, Note_on_c, 0, 70, 0
2, 203046, Note_on_c, 0, 53, 0
2, 203069, Note_on_c, 0, 55, 50
2, 203223, Note_on_c, 0, 55, 0
2, 203251, Note_on_c, 0, 68, 70
2, 203252, Note_on_c, 0, 53, 42
2, 203398, Note_on_c, 0, 53, 0
2, 203415, Note_on_c, 0, 51, 45
2, 203527, Note_on_c, 0, 51, 0
2, 203583, Note_on_c, 0, 50, 49
2, 203597, Note_on_c, 0, 75, 65
2, 203641, Note_on_c, 0, 72, 0
2, 203658, Note_on_c, 0, 77, 0
2, 203751, Note_on_c, 0, 50, 0
2, 203767, Note_on_c, 0, 48, 47
2, 203925, Note_on_c, 0, 48, 0
2, 203950, Note_on_c, 0, 75, 0
2, 203960, Note_on_c, 0, 74, 54
2, 203973, Note_on_c, 0, 46, 43
2, 204234, Control_c, 0, 64, 15
2, 204253, Control_c, 0, 64, 42
2, 204273, Control_c, 0, 64, 54
2, 204292, Control_c, 0, 64, 59
2, 204311, Control_c, 0, 64, 62
2, 204318, Note_on_c, 0, 70, 55
2, 204330, Control_c, 0, 64, 63
2, 204350, Control_c, 0, 64, 65
2, 204368, Control_c, 0, 64, 66
2, 204388, Control_c, 0, 64, 69
2, 204407, Control_c, 0, 64, 72
2, 204427, Control_c, 0, 64, 77
2, 204445, Control_c, 0, 64, 83
2, 204450, Note_on_c, 0, 68, 0
2, 204465, Control_c, 0, 64, 86
2, 204484, Control_c, 0, 64, 88
2, 204503, Control_c, 0, 64, 89
2, 204608, Note_on_c, 0, 70, 0
2, 204619, Control_c, 0, 64, 88
2, 204637, Control_c, 0, 64, 87
2, 204657, Control_c, 0, 64, 86
2, 204673, Note_on_c, 0, 74, 0
2, 204676, Control_c, 0, 64, 85
2, 204696, Control_c, 0, 64, 85
2, 204715, Note_on_c, 0, 67, 45
2, 204718, Note_on_c, 0, 75, 61
2, 204733, Control_c, 0, 64, 84
2, 204753, Control_c, 0, 64, 84
2, 204758, Note_on_c, 0, 67, 0
2, 204772, Control_c, 0, 64, 83
2, 204791, Control_c, 0, 64, 81
2, 204810, Control_c, 0, 64, 80
2, 204830, Control_c, 0, 64, 80
2, 204848, Control_c, 0, 64, 79
2, 204878, Note_on_c, 0, 65, 55
2, 204907, Control_c, 0, 64, 79
2, 204925, Control_c, 0, 64, 78
2, 204945, Control_c, 0, 64, 76
2, 204964, Control_c, 0, 64, 76
2, 204983, Control_c, 0, 64, 75
2, 205002, Control_c, 0, 64, 74
2, 205022, Control_c, 0, 64, 73
2, 205041, Control_c, 0, 64, 72
2, 205060, Control_c, 0, 64, 71
2, 205069, Note_on_c, 0, 67, 61
2, 205079, Control_c, 0, 64, 70
2, 205099, Control_c, 0, 64, 69
2, 205117, Control_c, 0, 64, 68
2, 205132, Note_on_c, 0, 65, 0
2, 205137, Control_c, 0, 64, 67
2, 205156, Control_c, 0, 64, 67
2, 205176, Control_c, 0, 64, 66
2, 205213, Control_c, 0, 64, 66
2, 205220, Note_on_c, 0, 68, 72
2, 205233, Control_c, 0, 64, 65
2, 205252, Control_c, 0, 64, 64
2, 205259, Note_on_c, 0, 67, 0
2, 205271, Control_c, 0, 64, 63
2, 205290, Control_c, 0, 64, 63
2, 205310, Control_c, 0, 64, 62
2, 205328, Control_c, 0, 64, 60
2, 205349, Control_c, 0, 64, 57
2, 205368, Control_c, 0, 64, 52
2, 205384, Note_on_c, 0, 68, 0
2, 205387, Control_c, 0, 64, 45
2, 205395, Note_on_c, 0, 65, 57
2, 205406, Control_c, 0, 64, 37
2, 205426, Control_c, 0, 64, 30
2, 205445, Control_c, 0, 64, 25
2, 205464, Control_c, 0, 64, 19
2, 205483, Control_c, 0, 64, 13
2, 205503, Control_c, 0, 64, 11
2, 205522, Control_c, 0, 64, 0
2, 205542, Note_on_c, 0, 56, 56
2, 205547, Note_on_c, 0, 46, 0
2, 205732, Note_on_c, 0, 58, 55
2, 205755, Note_on_c, 0, 70, 53
2, 205793, Note_on_c, 0, 56, 0
2, 205827, Note_on_c, 0, 75, 0
2, 205899, Note_on_c, 0, 60, 66
2, 205952, Note_on_c, 0, 58, 0
2, 206097, Note_on_c, 0, 58, 74
2, 206119, Note_on_c, 0, 73, 67
2, 206172, Note_on_c, 0, 60, 0
2, 206287, Note_on_c, 0, 56, 61
2, 206470, Note_on_c, 0, 55, 56
2, 206499, Note_on_c, 0, 68, 56
2, 206508, Note_on_c, 0, 70, 0
2, 206629, Note_on_c, 0, 56, 0
2, 206638, Note_on_c, 0, 53, 55
2, 206653, Note_on_c, 0, 55, 0
2, 206852, Note_on_c, 0, 53, 0
2, 206853, Note_on_c, 0, 70, 79
2, 206874, Note_on_c, 0, 63, 64
2, 206877, Note_on_c, 0, 55, 48
2, 206904, Note_on_c, 0, 58, 0
2, 206914, Note_on_c, 0, 68, 0
2, 207019, Note_on_c, 0, 73, 0
2, 207183, Note_on_c, 0, 55, 0
2, 207205, Note_on_c, 0, 72, 79
2, 207215, Note_on_c, 0, 56, 59
2, 207275, Note_on_c, 0, 70, 0
2, 207540, Note_on_c, 0, 70, 81
2, 207548, Note_on_c, 0, 50, 56
2, 207701, Note_on_c, 0, 65, 0
2, 207729, Control_c, 0, 64, 38
2, 207749, Control_c, 0, 64, 59
2, 207749, Note_on_c, 0, 63, 0
2, 207752, Note_on_c, 0, 72, 0
2, 207768, Control_c, 0, 64, 63
2, 207787, Control_c, 0, 64, 64
2, 207845, Control_c, 0, 64, 65
2, 207886, Note_on_c, 0, 61, 82
2, 207907, Note_on_c, 0, 52, 65
2, 207921, Note_on_c, 0, 67, 49
2, 207922, Control_c, 0, 64, 64
2, 207941, Control_c, 0, 64, 63
2, 207960, Control_c, 0, 64, 59
2, 207980, Control_c, 0, 64, 57
2, 208018, Control_c, 0, 64, 58
2, 208037, Control_c, 0, 64, 61
2, 208057, Control_c, 0, 64, 62
2, 208075, Control_c, 0, 64, 63
2, 208080, Note_on_c, 0, 50, 0
2, 208164, Note_on_c, 0, 61, 0
2, 208203, Note_on_c, 0, 56, 0
2, 208209, Control_c, 0, 64, 63
2, 208222, Note_on_c, 0, 67, 0
2, 208229, Control_c, 0, 64, 62
2, 208248, Control_c, 0, 64, 62
2, 208252, Note_on_c, 0, 60, 65
2, 208253, Note_on_c, 0, 52, 0
2, 208267, Control_c, 0, 64, 60
2, 208278, Note_on_c, 0, 53, 56
2, 208281, Note_on_c, 0, 68, 63
2, 208286, Control_c, 0, 64, 57
2, 208306, Control_c, 0, 64, 52
2, 208325, Control_c, 0, 64, 44
2, 208344, Control_c, 0, 64, 33
2, 208363, Control_c, 0, 64, 9
2, 208383, Control_c, 0, 64, 0
2, 208445, Note_on_c, 0, 70, 0
2, 208550, Note_on_c, 0, 68, 0
2, 208633, Note_on_c, 0, 53, 0
2, 208642, Note_on_c, 0, 65, 59
2, 208791, Note_on_c, 0, 67, 66
2, 208898, Note_on_c, 0, 65, 0
2, 208976, Note_on_c, 0, 68, 70
2, 208999, Note_on_c, 0, 67, 0
2, 209092, Note_on_c, 0, 60, 0
2, 209124, Note_on_c, 0, 51, 50
2, 209285, Note_on_c, 0, 51, 0
2, 209318, Note_on_c, 0, 63, 57
2, 209327, Note_on_c, 0, 49, 47
2, 209424, Note_on_c, 0, 49, 0
2, 209467, Note_on_c, 0, 48, 52
2, 209632, Note_on_c, 0, 48, 0
2, 209671, Note_on_c, 0, 63, 0
2, 209685, Note_on_c, 0, 46, 46
2, 209705, Note_on_c, 0, 61, 54
2, 209879, Control_c, 0, 64, 36
2, 209899, Control_c, 0, 64, 52
2, 209917, Control_c, 0, 64, 59
2, 209926, Note_on_c, 0, 61, 0
2, 209937, Control_c, 0, 64, 63
2, 209956, Control_c, 0, 64, 64
2, 210071, Control_c, 0, 64, 64
2, 210072, Note_on_c, 0, 65, 62
2, 210075, Note_on_c, 0, 61, 58
2, 210090, Control_c, 0, 64, 63
2, 210112, Note_on_c, 0, 68, 0
2, 210128, Control_c, 0, 64, 63
2, 210148, Control_c, 0, 64, 62
2, 210167, Control_c, 0, 64, 61
2, 210184, Note_on_c, 0, 46, 0
2, 210187, Control_c, 0, 64, 58
2, 210204, Note_on_c, 0, 60, 72
2, 210205, Control_c, 0, 64, 52
2, 210225, Control_c, 0, 64, 41
2, 210245, Control_c, 0, 64, 9
2, 210253, Note_on_c, 0, 61, 0
2, 210264, Control_c, 0, 64, 0
2, 210398, Note_on_c, 0, 61, 57
2, 210404, Note_on_c, 0, 70, 77
2, 210408, Note_on_c, 0, 65, 0
2, 210483, Note_on_c, 0, 61, 0
2, 210549, Note_on_c, 0, 46, 65
2, 210677, Note_on_c, 0, 60, 0
2, 210740, Note_on_c, 0, 48, 69
2, 210748, Note_on_c, 0, 68, 68
2, 210755, Note_on_c, 0, 65, 60
2, 210768, Note_on_c, 0, 46, 0
2, 210784, Note_on_c, 0, 70, 0
2, 210899, Note_on_c, 0, 49, 77
2, 210910, Note_on_c, 0, 48, 0
2, 210940, Note_on_c, 0, 65, 0
2, 211007, Note_on_c, 0, 68, 0
2, 211094, Note_on_c, 0, 49, 0
2, 211107, Note_on_c, 0, 51, 65
2, 211132, Note_on_c, 0, 58, 45
2, 211132, Note_on_c, 0, 67, 56
2, 211282, Control_c, 0, 64, 33
2, 211291, Note_on_c, 0, 58, 0
2, 211301, Control_c, 0, 64, 54
2, 211320, Control_c, 0, 64, 60
2, 211378, Control_c, 0, 64, 59
2, 211381, Note_on_c, 0, 67, 0
2, 211417, Control_c, 0, 64, 59
2, 211435, Control_c, 0, 64, 57
2, 211454, Control_c, 0, 64, 54
2, 211472, Note_on_c, 0, 63, 68
2, 211474, Control_c, 0, 64, 47
2, 211481, Note_on_c, 0, 67, 63
2, 211492, Control_c, 0, 64, 29
2, 211512, Control_c, 0, 64, 0
2, 211644, Note_on_c, 0, 65, 78
2, 211680, Note_on_c, 0, 67, 0
2, 211790, Note_on_c, 0, 65, 0
2, 211839, Note_on_c, 0, 67, 72
2, 211980, Note_on_c, 0, 39, 66
2, 212034, Note_on_c, 0, 63, 0
2, 212145, Note_on_c, 0, 51, 0
2, 212166, Note_on_c, 0, 67, 0
2, 212167, Note_on_c, 0, 41, 65
2, 212170, Note_on_c, 0, 70, 78
2, 212172, Note_on_c, 0, 61, 69
2, 212191, Note_on_c, 0, 39, 0
2, 212322, Note_on_c, 0, 43, 70
2, 212372, Note_on_c, 0, 41, 0
2, 212391, Note_on_c, 0, 61, 0
2, 212507, Note_on_c, 0, 70, 0
2, 212512, Note_on_c, 0, 44, 69
2, 212519, Note_on_c, 0, 63, 68
2, 212533, Note_on_c, 0, 60, 64
2, 212544, Note_on_c, 0, 43, 0
2, 212596, Note_on_c, 0, 63, 0
2, 212674, Note_on_c, 0, 44, 0
2, 212674, Note_on_c, 0, 46, 75
2, 212696, Note_on_c, 0, 60, 0
2, 212858, Note_on_c, 0, 48, 58
2, 212865, Note_on_c, 0, 68, 73
2, 212872, Note_on_c, 0, 60, 57
2, 212889, Note_on_c, 0, 46, 0
2, 212984, Note_on_c, 0, 48, 0
2, 213004, Note_on_c, 0, 50, 63
2, 213020, Note_on_c, 0, 58, 66
2, 213023, Note_on_c, 0, 60, 0
2, 213170, Note_on_c, 0, 50, 0
2, 213199, Note_on_c, 0, 68, 0
2, 213202, Note_on_c, 0, 58, 0
2, 213222, Note_on_c, 0, 60, 51
2, 213241, Note_on_c, 0, 51, 47
2, 213393, Control_c, 0, 64, 44
2, 213412, Control_c, 0, 64, 59
2, 213431, Control_c, 0, 64, 63
2, 213450, Control_c, 0, 64, 65
2, 213470, Control_c, 0, 64, 68
2, 213488, Control_c, 0, 64, 72
2, 213508, Control_c, 0, 64, 80
2, 213527, Control_c, 0, 64, 91
2, 213540, Note_on_c, 0, 67, 52
2, 213547, Control_c, 0, 64, 111
2, 213565, Control_c, 0, 64, 127
2, 213572, Note_on_c, 0, 63, 55
2, 213592, Note_on_c, 0, 60, 0
2, 213622, Note_on_c, 0, 63, 0
2, 213638, Note_on_c, 0, 67, 0
2, 214009, Control_c, 0, 64, 119
2, 214028, Control_c, 0, 64, 104
2, 214037, Note_on_c, 0, 70, 90
2, 214047, Control_c, 0, 64, 91
2, 214053, Note_on_c, 0, 56, 55
2, 214058, Note_on_c, 0, 65, 67
2, 214067, Control_c, 0, 64, 75
2, 214083, Control_c, 0, 64, 63
2, 214102, Control_c, 0, 64, 0
2, 214198, Control_c, 0, 64, 51
2, 214218, Control_c, 0, 64, 63
2, 214237, Control_c, 0, 64, 66
2, 214255, Control_c, 0, 64, 66
2, 214275, Control_c, 0, 64, 67
2, 214319, Note_on_c, 0, 65, 0
2, 214325, Note_on_c, 0, 56, 0
2, 214480, Note_on_c, 0, 65, 56
2, 214484, Note_on_c, 0, 56, 54
2, 214506, Control_c, 0, 64, 66
2, 214524, Control_c, 0, 64, 66
2, 214544, Control_c, 0, 64, 65
2, 214563, Control_c, 0, 64, 64
2, 214583, Control_c, 0, 64, 62
2, 214601, Control_c, 0, 64, 61
2, 214621, Control_c, 0, 64, 59
2, 214625, Note_on_c, 0, 63, 51
2, 214628, Note_on_c, 0, 56, 0
2, 214637, Note_on_c, 0, 65, 0
2, 214639, Note_on_c, 0, 55, 44
2, 214640, Control_c, 0, 64, 57
2, 214659, Control_c, 0, 64, 54
2, 214678, Control_c, 0, 64, 44
2, 214698, Control_c, 0, 64, 18
2, 214717, Control_c, 0, 64, 0
2, 214755, Note_on_c, 0, 55, 0
2, 214759, Note_on_c, 0, 63, 0
2, 214828, Note_on_c, 0, 65, 45
2, 214835, Note_on_c, 0, 56, 56
2, 214870, Control_c, 0, 64, 51
2, 214889, Control_c, 0, 64, 62
2, 214909, Control_c, 0, 64, 64
2, 214950, Control_c, 0, 64, 65
2, 214969, Control_c, 0, 64, 66
2, 214988, Control_c, 0, 64, 68
2, 215007, Control_c, 0, 64, 71
2, 215022, Note_on_c, 0, 56, 0
2, 215027, Control_c, 0, 64, 76
2, 215044, Control_c, 0, 64, 80
2, 215063, Control_c, 0, 64, 84
2, 215082, Control_c, 0, 64, 85
2, 215150, Note_on_c, 0, 65, 0
2, 215201, Note_on_c, 0, 58, 46
2, 215214, Note_on_c, 0, 67, 34
2, 215303, Note_on_c, 0, 51, 0
2, 215319, Note_on_c, 0, 56, 57
2, 215322, Note_on_c, 0, 70, 0
2, 215333, Note_on_c, 0, 65, 49
2, 215351, Control_c, 0, 64, 84
2, 215357, Note_on_c, 0, 67, 0
2, 215370, Control_c, 0, 64, 84
2, 215387, Note_on_c, 0, 58, 0
2, 215390, Control_c, 0, 64, 83
2, 215417, Note_on_c, 0, 65, 0
2, 215428, Control_c, 0, 64, 83
2, 215470, Note_on_c, 0, 56, 0
2, 215485, Control_c, 0, 64, 82
2, 215505, Control_c, 0, 64, 80
2, 215524, Control_c, 0, 64, 77
2, 215543, Control_c, 0, 64, 72
2, 215556, Note_on_c, 0, 51, 80
2, 215562, Control_c, 0, 64, 66
2, 215571, Note_on_c, 0, 75, 79
2, 215582, Control_c, 0, 64, 59
2, 215601, Control_c, 0, 64, 46
2, 215602, Note_on_c, 0, 55, 42
2, 215602, Note_on_c, 0, 63, 41
2, 215620, Control_c, 0, 64, 9
2, 215639, Control_c, 0, 64, 0
2, 215880, Note_on_c, 0, 63, 0
2, 215952, Note_on_c, 0, 58, 64
2, 215962, Note_on_c, 0, 67, 49
2, 216104, Note_on_c, 0, 65, 66
2, 216105, Note_on_c, 0, 56, 68
2, 216109, Note_on_c, 0, 55, 0
2, 216121, Note_on_c, 0, 58, 0
2, 216150, Note_on_c, 0, 67, 0
2, 216293, Note_on_c, 0, 58, 73
2, 216302, Note_on_c, 0, 56, 0
2, 216311, Note_on_c, 0, 67, 66
2, 216330, Note_on_c, 0, 75, 0
2, 216420, Note_on_c, 0, 65, 0
2, 216445, Control_c, 0, 64, 42
2, 216465, Control_c, 0, 64, 58
2, 216484, Control_c, 0, 64, 61
2, 216503, Control_c, 0, 64, 62
2, 216542, Control_c, 0, 64, 61
2, 216561, Control_c, 0, 64, 58
2, 216580, Control_c, 0, 64, 48
2, 216599, Control_c, 0, 64, 22
2, 216619, Control_c, 0, 64, 0
2, 216642, Note_on_c, 0, 69, 66
2, 216650, Note_on_c, 0, 75, 81
2, 216652, Note_on_c, 0, 60, 68
2, 216657, Control_c, 0, 64, 19
2, 216675, Note_on_c, 0, 67, 0
2, 216676, Control_c, 0, 64, 50
2, 216695, Control_c, 0, 64, 62
2, 216714, Control_c, 0, 64, 65
2, 216720, Note_on_c, 0, 58, 0
2, 216733, Control_c, 0, 64, 66
2, 216753, Control_c, 0, 64, 68
2, 216772, Control_c, 0, 64, 71
2, 216791, Control_c, 0, 64, 73
2, 216799, Note_on_c, 0, 67, 80
2, 216810, Control_c, 0, 64, 74
2, 216830, Control_c, 0, 64, 75
2, 216836, Note_on_c, 0, 75, 0
2, 216955, Note_on_c, 0, 60, 0
2, 216965, Control_c, 0, 64, 74
2, 216984, Control_c, 0, 64, 71
2, 217001, Note_on_c, 0, 69, 0
2, 217003, Control_c, 0, 64, 64
2, 217011, Note_on_c, 0, 74, 77
2, 217012, Note_on_c, 0, 67, 0
2, 217017, Note_on_c, 0, 62, 71
2, 217019, Note_on_c, 0, 58, 63
2, 217023, Control_c, 0, 64, 42
2, 217027, Note_on_c, 0, 65, 63
2, 217032, Note_on_c, 0, 51, 0
2, 217042, Control_c, 0, 64, 0
2, 217108, Note_on_c, 0, 74, 0
2, 217157, Control_c, 0, 64, 19
2, 217177, Control_c, 0, 64, 59
2, 217195, Control_c, 0, 64, 64
2, 217214, Control_c, 0, 64, 65
2, 217264, Note_on_c, 0, 65, 0
2, 217266, Note_on_c, 0, 62, 0
2, 217329, Control_c, 0, 64, 64
2, 217368, Control_c, 0, 64, 64
2, 217369, Note_on_c, 0, 79, 75
2, 217387, Control_c, 0, 64, 62
2, 217390, Note_on_c, 0, 70, 68
2, 217402, Note_on_c, 0, 62, 70
2, 217406, Control_c, 0, 64, 58
2, 217426, Control_c, 0, 64, 52
2, 217445, Control_c, 0, 64, 34
2, 217464, Control_c, 0, 64, 0
2, 217515, Note_on_c, 0, 68, 75
2, 217523, Note_on_c, 0, 70, 0
2, 217546, Note_on_c, 0, 60, 68
2, 217564, Note_on_c, 0, 62, 0
2, 217614, Note_on_c, 0, 68, 0
2, 217644, Note_on_c, 0, 60, 0
2, 217725, Note_on_c, 0, 62, 56
2, 217743, Note_on_c, 0, 70, 80
2, 217830, Control_c, 0, 64, 38
2, 217849, Control_c, 0, 64, 43
2, 217868, Control_c, 0, 64, 48
2, 217887, Control_c, 0, 64, 55
2, 217907, Control_c, 0, 64, 61
2, 217923, Control_c, 0, 64, 64
2, 217927, Note_on_c, 0, 79, 0
2, 217943, Control_c, 0, 64, 65
2, 217961, Control_c, 0, 64, 67
2, 217981, Control_c, 0, 64, 67
2, 218019, Control_c, 0, 64, 68
2, 218058, Control_c, 0, 64, 67
2, 218077, Control_c, 0, 64, 66
2, 218095, Control_c, 0, 64, 62
2, 218105, Note_on_c, 0, 58, 0
2, 218115, Control_c, 0, 64, 44
2, 218119, Note_on_c, 0, 77, 80
2, 218134, Control_c, 0, 64, 0
2, 218141, Note_on_c, 0, 56, 53
2, 218142, Note_on_c, 0, 74, 60
2, 218249, Control_c, 0, 64, 53
2, 218269, Control_c, 0, 64, 64
2, 218287, Control_c, 0, 64, 67
2, 218292, Note_on_c, 0, 70, 0
2, 218293, Note_on_c, 0, 74, 0
2, 218307, Control_c, 0, 64, 69
2, 218326, Control_c, 0, 64, 71
2, 218346, Control_c, 0, 64, 73
2, 218364, Control_c, 0, 64, 75
2, 218384, Control_c, 0, 64, 76
2, 218423, Control_c, 0, 64, 75
2, 218441, Control_c, 0, 64, 75
2, 218461, Control_c, 0, 64, 74
2, 218480, Control_c, 0, 64, 72
2, 218482, Note_on_c, 0, 56, 0
2, 218499, Control_c, 0, 64, 68
2, 218501, Note_on_c, 0, 62, 0
2, 218518, Control_c, 0, 64, 63
2, 218538, Control_c, 0, 64, 55
2, 218540, Note_on_c, 0, 75, 86
2, 218550, Note_on_c, 0, 55, 47
2, 218557, Control_c, 0, 64, 47
2, 218575, Control_c, 0, 64, 36
2, 218592, Note_on_c, 0, 77, 0
2, 218595, Control_c, 0, 64, 18
2, 218614, Control_c, 0, 64, 0
2, 218861, Note_on_c, 0, 75, 0
2, 218948, Note_on_c, 0, 72, 56
2, 218954, Note_on_c, 0, 75, 58
2, 218955, Note_on_c, 0, 67, 52
2, 218956, Note_on_c, 0, 60, 41
2, 219108, Note_on_c, 0, 74, 75
2, 219145, Note_on_c, 0, 75, 0
2, 219247, Note_on_c, 0, 74, 0
2, 219298, Note_on_c, 0, 75, 83
2, 219302, Note_on_c, 0, 63, 69
2, 219362, Note_on_c, 0, 55, 0
2, 219376, Note_on_c, 0, 60, 0
2, 219421, Control_c, 0, 64, 28
2, 219440, Control_c, 0, 64, 52
2, 219459, Control_c, 0, 64, 59
2, 219478, Control_c, 0, 64, 59
2, 219555, Control_c, 0, 64, 58
2, 219574, Control_c, 0, 64, 55
2, 219593, Control_c, 0, 64, 39
2, 219612, Control_c, 0, 64, 0
2, 219621, Note_on_c, 0, 79, 84
2, 219639, Note_on_c, 0, 58, 68
2, 219661, Note_on_c, 0, 75, 0
2, 219678, Note_on_c, 0, 72, 0
2, 219747, Control_c, 0, 64, 50
2, 219766, Control_c, 0, 64, 60
2, 219773, Note_on_c, 0, 63, 0
2, 219786, Control_c, 0, 64, 62
2, 219824, Control_c, 0, 64, 63
2, 219844, Control_c, 0, 64, 63
2, 219921, Control_c, 0, 64, 62
2, 219931, Note_on_c, 0, 67, 0
2, 219940, Control_c, 0, 64, 59
2, 219959, Control_c, 0, 64, 40
2, 219979, Control_c, 0, 64, 0
2, 219980, Note_on_c, 0, 72, 89
2, 219986, Note_on_c, 0, 56, 70
2, 219993, Note_on_c, 0, 68, 75
2, 220000, Note_on_c, 0, 79, 0
2, 220010, Note_on_c, 0, 58, 0
2, 220093, Control_c, 0, 64, 36
2, 220113, Control_c, 0, 64, 57
2, 220132, Control_c, 0, 64, 62
2, 220151, Control_c, 0, 64, 63
2, 220190, Control_c, 0, 64, 63
2, 220252, Note_on_c, 0, 56, 0
2, 220267, Control_c, 0, 64, 63
2, 220324, Control_c, 0, 64, 62
2, 220343, Control_c, 0, 64, 62
2, 220348, Note_on_c, 0, 77, 83
2, 220360, Note_on_c, 0, 56, 62
2, 220362, Control_c, 0, 64, 61
2, 220371, Note_on_c, 0, 60, 59
2, 220382, Control_c, 0, 64, 60
2, 220401, Control_c, 0, 64, 58
2, 220420, Control_c, 0, 64, 56
2, 220439, Control_c, 0, 64, 52
2, 220459, Control_c, 0, 64, 44
2, 220477, Control_c, 0, 64, 32
2, 220488, Note_on_c, 0, 60, 0
2, 220493, Note_on_c, 0, 55, 57
2, 220493, Note_on_c, 0, 58, 68
2, 220495, Note_on_c, 0, 56, 0
2, 220496, Control_c, 0, 64, 11
2, 220516, Control_c, 0, 64, 0
2, 220627, Note_on_c, 0, 58, 0
2, 220673, Note_on_c, 0, 55, 0
2, 220716, Note_on_c, 0, 60, 49
2, 220726, Note_on_c, 0, 56, 50
2, 220747, Control_c, 0, 64, 23
2, 220766, Control_c, 0, 64, 55
2, 220783, Note_on_c, 0, 68, 0
2, 220786, Control_c, 0, 64, 61
2, 220804, Control_c, 0, 64, 64
2, 220823, Control_c, 0, 64, 65
2, 220842, Control_c, 0, 64, 68
2, 220853, Note_on_c, 0, 60, 0
2, 220862, Control_c, 0, 64, 72
2, 220881, Control_c, 0, 64, 79
2, 220900, Control_c, 0, 64, 84
2, 220919, Control_c, 0, 64, 85
2, 220928, Note_on_c, 0, 56, 0
2, 220996, Control_c, 0, 64, 85
2, 221015, Control_c, 0, 64, 84
2, 221034, Control_c, 0, 64, 80
2, 221047, Note_on_c, 0, 75, 86
2, 221049, Note_on_c, 0, 60, 39
2, 221050, Note_on_c, 0, 63, 61
2, 221053, Control_c, 0, 64, 69
2, 221073, Control_c, 0, 64, 55
2, 221092, Control_c, 0, 64, 0
2, 221161, Note_on_c, 0, 77, 0
2, 221188, Control_c, 0, 64, 51
2, 221207, Control_c, 0, 64, 62
2, 221227, Control_c, 0, 64, 64
2, 221290, Note_on_c, 0, 63, 0
2, 221322, Control_c, 0, 64, 63
2, 221342, Control_c, 0, 64, 62
2, 221346, Note_on_c, 0, 60, 0
2, 221361, Control_c, 0, 64, 59
2, 221380, Control_c, 0, 64, 48
2, 221392, Note_on_c, 0, 53, 58
2, 221399, Control_c, 0, 64, 0
2, 221407, Note_on_c, 0, 74, 82
2, 221410, Note_on_c, 0, 72, 0
2, 221429, Note_on_c, 0, 70, 66
2, 221475, Note_on_c, 0, 75, 0
2, 221706, Note_on_c, 0, 74, 0
2, 221793, Note_on_c, 0, 62, 48
2, 221812, Note_on_c, 0, 58, 54
2, 221816, Note_on_c, 0, 74, 68
2, 221952, Note_on_c, 0, 72, 80
2, 221991, Note_on_c, 0, 74, 0
2, 222009, Note_on_c, 0, 53, 0
2, 222110, Note_on_c, 0, 72, 0
2, 222143, Note_on_c, 0, 74, 74
2, 222145, Note_on_c, 0, 67, 63
2, 222391, Note_on_c, 0, 58, 0
2, 222477, Note_on_c, 0, 56, 75
2, 222478, Note_on_c, 0, 77, 81
2, 222488, Note_on_c, 0, 74, 0
2, 222496, Note_on_c, 0, 62, 0
2, 222500, Note_on_c, 0, 70, 0
2, 222667, Control_c, 0, 64, 27
2, 222685, Control_c, 0, 64, 46
2, 222693, Note_on_c, 0, 56, 0
2, 222705, Control_c, 0, 64, 52
2, 222743, Control_c, 0, 64, 49
2, 222761, Control_c, 0, 64, 36
2, 222781, Control_c, 0, 64, 0
2, 222819, Note_on_c, 0, 70, 86
2, 222829, Note_on_c, 0, 55, 65
2, 222899, Note_on_c, 0, 77, 0
2, 222934, Control_c, 0, 64, 28
2, 222953, Control_c, 0, 64, 55
2, 222972, Control_c, 0, 64, 61
2, 222992, Control_c, 0, 64, 62
2, 223000, Note_on_c, 0, 55, 0
2, 223011, Control_c, 0, 64, 62
2, 223030, Control_c, 0, 64, 63
2, 223126, Control_c, 0, 64, 62
2, 223164, Control_c, 0, 64, 62
2, 223178, Note_on_c, 0, 55, 62
2, 223184, Control_c, 0, 64, 61
2, 223185, Note_on_c, 0, 75, 86
2, 223203, Control_c, 0, 64, 61
2, 223223, Control_c, 0, 64, 60
2, 223241, Control_c, 0, 64, 59
2, 223261, Control_c, 0, 64, 59
2, 223280, Control_c, 0, 64, 58
2, 223293, Note_on_c, 0, 55, 0
2, 223296, Note_on_c, 0, 53, 57
2, 223299, Control_c, 0, 64, 57
2, 223318, Control_c, 0, 64, 57
2, 223357, Control_c, 0, 64, 55
2, 223374, Note_on_c, 0, 67, 0
2, 223375, Control_c, 0, 64, 53
2, 223395, Control_c, 0, 64, 50
2, 223414, Control_c, 0, 64, 46
2, 223433, Control_c, 0, 64, 41
2, 223452, Control_c, 0, 64, 37
2, 223472, Control_c, 0, 64, 30
2, 223491, Control_c, 0, 64, 0
2, 223522, Note_on_c, 0, 55, 54
2, 223530, Note_on_c, 0, 53, 0
2, 223539, Note_on_c, 0, 73, 84
2, 223579, Note_on_c, 0, 70, 0
2, 223592, Note_on_c, 0, 75, 0
2, 223705, Control_c, 0, 64, 49
2, 223724, Control_c, 0, 64, 61
2, 223744, Control_c, 0, 64, 62
2, 223821, Control_c, 0, 64, 62
2, 223839, Control_c, 0, 64, 61
2, 223859, Control_c, 0, 64, 57
2, 223878, Control_c, 0, 64, 45
2, 223898, Control_c, 0, 64, 0
2, 223919, Note_on_c, 0, 68, 58
2, 223936, Note_on_c, 0, 65, 44
2, 223938, Note_on_c, 0, 58, 46
2, 224012, Control_c, 0, 64, 55
2, 224032, Control_c, 0, 64, 65
2, 224050, Control_c, 0, 64, 69
2, 224070, Control_c, 0, 64, 72
2, 224081, Note_on_c, 0, 65, 0
2, 224089, Control_c, 0, 64, 77
2, 224099, Note_on_c, 0, 55, 0
2, 224108, Control_c, 0, 64, 82
2, 224122, Note_on_c, 0, 68, 0
2, 224127, Control_c, 0, 64, 84
2, 224204, Control_c, 0, 64, 83
2, 224224, Control_c, 0, 64, 82
2, 224232, Note_on_c, 0, 58, 0
2, 224242, Control_c, 0, 64, 75
2, 224262, Control_c, 0, 64, 64
2, 224281, Control_c, 0, 64, 15
2, 224281, Note_on_c, 0, 67, 67
2, 224287, Note_on_c, 0, 51, 44
2, 224301, Control_c, 0, 64, 0
2, 224308, Note_on_c, 0, 63, 63
2, 224354, Note_on_c, 0, 73, 0
2, 224396, Control_c, 0, 64, 54
2, 224415, Control_c, 0, 64, 63
2, 224435, Control_c, 0, 64, 64
2, 224453, Control_c, 0, 64, 65
2, 224467, Note_on_c, 0, 51, 0
2, 224567, Control_c, 0, 64, 64
2, 224587, Control_c, 0, 64, 64
2, 224613, Note_on_c, 0, 72, 82
2, 224625, Control_c, 0, 64, 63
2, 224627, Note_on_c, 0, 51, 57
2, 224663, Control_c, 0, 64, 63
2, 224682, Control_c, 0, 64, 62
2, 224702, Control_c, 0, 64, 61
2, 224721, Control_c, 0, 64, 61
2, 224740, Control_c, 0, 64, 60
2, 224759, Control_c, 0, 64, 59
2, 224760, Note_on_c, 0, 50, 65
2, 224779, Control_c, 0, 64, 58
2, 224797, Control_c, 0, 64, 58
2, 224810, Note_on_c, 0, 51, 0
2, 224816, Control_c, 0, 64, 57
2, 224893, Control_c, 0, 64, 56
2, 224913, Control_c, 0, 64, 51
2, 224932, Control_c, 0, 64, 40
2, 224946, Note_on_c, 0, 67, 0
2, 224951, Control_c, 0, 64, 11
2, 224970, Control_c, 0, 64, 0
2, 224975, Note_on_c, 0, 70, 87
2, 224990, Note_on_c, 0, 51, 54
2, 225008, Note_on_c, 0, 50, 0
2, 225026, Note_on_c, 0, 63, 0
2, 225082, Note_on_c, 0, 72, 0
2, 225201, Control_c, 0, 64, 40
2, 225220, Control_c, 0, 64, 52
2, 225239, Control_c, 0, 64, 54
2, 225259, Control_c, 0, 64, 50
2, 225277, Control_c, 0, 64, 0
2, 225352, Note_on_c, 0, 65, 47
2, 225361, Note_on_c, 0, 55, 42
2, 225374, Note_on_c, 0, 62, 38
2, 225412, Control_c, 0, 64, 17
2, 225431, Control_c, 0, 64, 51
2, 225450, Control_c, 0, 64, 60
2, 225470, Control_c, 0, 64, 63
2, 225488, Control_c, 0, 64, 64
2, 225508, Control_c, 0, 64, 64
2, 225527, Control_c, 0, 64, 65
2, 225565, Control_c, 0, 64, 65
2, 225571, Note_on_c, 0, 62, 0
2, 225585, Control_c, 0, 64, 66
2, 225587, Note_on_c, 0, 65, 0
2, 225682, Note_on_c, 0, 51, 0
2, 225700, Control_c, 0, 64, 65
2, 225703, Note_on_c, 0, 48, 53
2, 225719, Control_c, 0, 64, 64
2, 225735, Note_on_c, 0, 60, 43
2, 225735, Note_on_c, 0, 63, 62
2, 225739, Control_c, 0, 64, 61
2, 225757, Control_c, 0, 64, 50
2, 225776, Control_c, 0, 64, 0
2, 225816, Note_on_c, 0, 70, 0
2, 226091, Note_on_c, 0, 50, 52
2, 226107, Note_on_c, 0, 68, 76
2, 226256, Note_on_c, 0, 67, 78
2, 226264, Note_on_c, 0, 51, 66
2, 226305, Note_on_c, 0, 68, 0
2, 226322, Note_on_c, 0, 48, 0
2, 226325, Note_on_c, 0, 63, 0
2, 226382, Note_on_c, 0, 55, 0
2, 226450, Note_on_c, 0, 60, 0
2, 226458, Note_on_c, 0, 50, 0
2, 226479, Note_on_c, 0, 53, 67
2, 226480, Note_on_c, 0, 68, 83
2, 226506, Note_on_c, 0, 51, 0
2, 226553, Note_on_c, 0, 67, 0
2, 226846, Note_on_c, 0, 62, 73
2, 226847, Note_on_c, 0, 56, 67
2, 226975, Note_on_c, 0, 53, 0
2, 226995, Note_on_c, 0, 60, 78
2, 227082, Note_on_c, 0, 62, 0
2, 227218, Note_on_c, 0, 60, 0
2, 227236, Note_on_c, 0, 46, 58
2, 227236, Note_on_c, 0, 53, 67
2, 227236, Note_on_c, 0, 62, 78
2, 227321, Note_on_c, 0, 56, 0
2, 227471, Control_c, 0, 64, 47
2, 227489, Control_c, 0, 64, 63
2, 227508, Control_c, 0, 64, 64
2, 227527, Control_c, 0, 64, 65
2, 227565, Control_c, 0, 64, 65
2, 227584, Control_c, 0, 64, 66
2, 227604, Control_c, 0, 64, 67
2, 227617, Note_on_c, 0, 68, 0
2, 227622, Control_c, 0, 64, 69
2, 227642, Control_c, 0, 64, 73
2, 227645, Note_on_c, 0, 58, 80
2, 227661, Control_c, 0, 64, 77
2, 227680, Control_c, 0, 64, 84
2, 227699, Control_c, 0, 64, 93
2, 227719, Control_c, 0, 64, 109
2, 227738, Control_c, 0, 64, 127
2, 227869, Note_on_c, 0, 46, 0
2, 228064, Control_c, 0, 64, 101
2, 228084, Control_c, 0, 64, 73
2, 228087, Note_on_c, 0, 66, 86
2, 228097, Note_on_c, 0, 63, 80
2, 228098, Note_on_c, 0, 45, 61
2, 228102, Control_c, 0, 64, 51
2, 228122, Control_c, 0, 64, 0
2, 228126, Note_on_c, 0, 62, 0
2, 228130, Note_on_c, 0, 58, 0
2, 228570, Note_on_c, 0, 60, 79
2, 228793, Control_c, 0, 64, 52
2, 228812, Control_c, 0, 64, 61
2, 228832, Control_c, 0, 64, 62
2, 228889, Control_c, 0, 64, 62
2, 228906, Note_on_c, 0, 63, 0
2, 228908, Control_c, 0, 64, 63
2, 228985, Control_c, 0, 64, 63
2, 229004, Control_c, 0, 64, 62
2, 229022, Note_on_c, 0, 66, 0
2, 229023, Control_c, 0, 64, 62
2, 229043, Control_c, 0, 64, 60
2, 229061, Control_c, 0, 64, 54
2, 229081, Control_c, 0, 64, 35
2, 229087, Note_on_c, 0, 65, 77
2, 229094, Note_on_c, 0, 63, 72
2, 229096, Note_on_c, 0, 46, 66
2, 229100, Control_c, 0, 64, 0
2, 229103, Note_on_c, 0, 45, 0
2, 229116, Note_on_c, 0, 53, 0
2, 229117, Note_on_c, 0, 60, 0
2, 229633, Note_on_c, 0, 53, 72
2, 229868, Note_on_c, 0, 51, 71
2, 229958, Note_on_c, 0, 53, 0
2, 230253, Note_on_c, 0, 62, 76
2, 230269, Note_on_c, 0, 53, 55
2, 230273, Note_on_c, 0, 51, 0
2, 230302, Note_on_c, 0, 63, 0
2, 231087, Note_on_c, 0, 58, 59
2, 231272, Control_c, 0, 64, 51
2, 231292, Control_c, 0, 64, 62
2, 231311, Control_c, 0, 64, 64
2, 231330, Control_c, 0, 64, 64
2, 231349, Control_c, 0, 64, 65
2, 231369, Control_c, 0, 64, 66
2, 231388, Control_c, 0, 64, 68
2, 231407, Control_c, 0, 64, 70
2, 231426, Control_c, 0, 64, 74
2, 231446, Control_c, 0, 64, 78
2, 231464, Control_c, 0, 64, 81
2, 231484, Control_c, 0, 64, 84
2, 231484, Control_c, 0, 67, 13
2, 231503, Control_c, 0, 64, 87
2, 231503, Control_c, 0, 67, 22
2, 231523, Control_c, 0, 64, 90
2, 231523, Control_c, 0, 67, 36
2, 231541, Control_c, 0, 64, 94
2, 231541, Control_c, 0, 67, 54
2, 231559, Note_on_c, 0, 62, 0
2, 231560, Control_c, 0, 64, 98
2, 231560, Control_c, 0, 67, 78
2, 231580, Control_c, 0, 64, 104
2, 231580, Control_c, 0, 67, 104
2, 231598, Control_c, 0, 64, 108
2, 231598, Control_c, 0, 67, 127
2, 231615, Note_on_c, 0, 53, 0
2, 231618, Control_c, 0, 64, 115
2, 231637, Control_c, 0, 64, 127
2, 231650, Note_on_c, 0, 58, 0
2, 232046, Note_on_c, 0, 46, 0
2, 232387, Control_c, 0, 64, 104
2, 232407, Control_c, 0, 64, 90
2, 232410, Note_on_c, 0, 63, 48
2, 232419, Note_on_c, 0, 39, 45
2, 232425, Control_c, 0, 64, 77
2, 232430, Note_on_c, 0, 55, 38
2, 232430, Note_on_c, 0, 58, 38
2, 232445, Control_c, 0, 64, 67
2, 232464, Control_c, 0, 64, 61
2, 232483, Control_c, 0, 64, 54
2, 232502, Control_c, 0, 64, 46
2, 232521, Control_c, 0, 64, 35
2, 232541, Control_c, 0, 64, 11
2, 232555, Note_on_c, 0, 65, 0
2, 232559, Control_c, 0, 64, 0
2, 236387, Note_on_c, 0, 55, 0
2, 236403, Note_on_c, 0, 58, 0
2, 236407, Note_on_c, 0, 63, 0
2, 236420, Control_c, 0, 67, 125
2, 236436, Note_on_c, 0, 39, 0
2, 236439, Control_c, 0, 67, 119
2, 236459, Control_c, 0, 67, 114
2, 236477, Control_c, 0, 67, 110
2, 236497, Control_c, 0, 67, 108
2, 236516, Control_c, 0, 67, 107
2, 236536, Control_c, 0, 67, 104
2, 236554, Control_c, 0, 67, 99
2, 236573, Control_c, 0, 67, 91
2, 236593, Control_c, 0, 67, 82
2, 236611, Control_c, 0, 67, 77
2, 236631, Control_c, 0, 67, 76
2, 236650, Control_c, 0, 67, 77
2, 236670, Control_c, 0, 67, 77
2, 236688, Control_c, 0, 67, 78
2, 236727, Control_c, 0, 67, 78
2, 236728, End_track
0, 0, End_of_file
