0, 0, Header, 1, 2, 480
1, 0, Start_track
1, 0, Tempo, 500000
1, 0, Time_signature, 4, 2, 24, 8
1, 1, End_track
2, 0, Start_track
2, 0, Program_c, 0, 0
2, 0, Control_c, 0, 64, 127
2, 985, Note_on_c, 0, 70, 59
2, 994, Note_on_c, 0, 66, 40
2, 995, Note_on_c, 0, 63, 36
2, 1717, Note_on_c, 0, 66, 0
2, 1719, Note_on_c, 0, 63, 0
2, 2850, Note_on_c, 0, 63, 34
2, 2858, Note_on_c, 0, 66, 35
2, 2889, Control_c, 0, 64, 96
2, 2908, Control_c, 0, 64, 73
2, 2928, Control_c, 0, 64, 59
2, 2946, Control_c, 0, 64, 22
2, 2966, Control_c, 0, 64, 0
2, 3005, Control_c, 0, 64, 15
2, 3023, Control_c, 0, 64, 43
2, 3042, Control_c, 0, 64, 58
2, 3062, Control_c, 0, 64, 63
2, 3080, Control_c, 0, 64, 65
2, 3100, Control_c, 0, 64, 67
2, 3119, Control_c, 0, 64, 69
2, 3139, Control_c, 0, 64, 76
2, 3157, Control_c, 0, 64, 88
2, 3177, Control_c, 0, 64, 127
2, 3410, Note_on_c, 0, 70, 0
2, 3593, Note_on_c, 0, 66, 0
2, 3601, Note_on_c, 0, 63, 0
2, 4298, Note_on_c, 0, 70, 62
2, 4633, Note_on_c, 0, 75, 66
2, 4636, Note_on_c, 0, 70, 0
2, 4642, Note_on_c, 0, 63, 38
2, 4650, Note_on_c, 0, 66, 39
2, 4694, Control_c, 0, 64, 96
2, 4713, Control_c, 0, 64, 73
2, 4732, Control_c, 0, 64, 58
2, 4751, Control_c, 0, 64, 11
2, 4771, Control_c, 0, 64, 0
2, 4828, Control_c, 0, 64, 27
2, 4848, Control_c, 0, 64, 47
2, 4866, Control_c, 0, 64, 58
2, 4886, Control_c, 0, 64, 62
2, 4905, Control_c, 0, 64, 64
2, 4925, Control_c, 0, 64, 65
2, 4943, Control_c, 0, 64, 67
2, 4962, Control_c, 0, 64, 70
2, 4982, Control_c, 0, 64, 77
2, 5000, Control_c, 0, 64, 90
2, 5020, Control_c, 0, 64, 123
2, 5039, Control_c, 0, 64, 127
2, 5329, Note_on_c, 0, 66, 0
2, 5330, Note_on_c, 0, 63, 0
2, 5967, Note_on_c, 0, 78, 62
2, 6059, Note_on_c, 0, 75, 0
2, 6345, Control_c, 0, 64, 107
2, 6354, Note_on_c, 0, 71, 54
2, 6365, Control_c, 0, 64, 80
2, 6367, Note_on_c, 0, 68, 45
2, 6371, Note_on_c, 0, 63, 37
2, 6373, Note_on_c, 0, 78, 0
2, 6383, Control_c, 0, 64, 64
2, 6402, Control_c, 0, 64, 35
2, 6422, Control_c, 0, 64, 0
2, 6593, Control_c, 0, 64, 27
2, 6613, Control_c, 0, 64, 52
2, 6632, Control_c, 0, 64, 62
2, 6651, Control_c, 0, 64, 66
2, 6670, Control_c, 0, 64, 70
2, 6690, Control_c, 0, 64, 76
2, 6709, Control_c, 0, 64, 91
2, 6728, Control_c, 0, 64, 127
2, 7039, Note_on_c, 0, 63, 0
2, 7139, Note_on_c, 0, 68, 0
2, 7505, Note_on_c, 0, 71, 0
2, 8008, Note_on_c, 0, 71, 39
2, 8022, Note_on_c, 0, 68, 37
2, 8026, Note_on_c, 0, 63, 31
2, 8033, Control_c, 0, 64, 102
2, 8053, Control_c, 0, 64, 76
2, 8072, Control_c, 0, 64, 61
2, 8091, Control_c, 0, 64, 11
2, 8110, Control_c, 0, 64, 0
2, 8187, Control_c, 0, 64, 34
2, 8207, Control_c, 0, 64, 54
2, 8225, Control_c, 0, 64, 63
2, 8245, Control_c, 0, 64, 66
2, 8264, Control_c, 0, 64, 70
2, 8283, Control_c, 0, 64, 77
2, 8302, Control_c, 0, 64, 93
2, 8321, Control_c, 0, 64, 127
2, 8762, Note_on_c, 0, 71, 0
2, 8783, Note_on_c, 0, 63, 0
2, 8818, Note_on_c, 0, 68, 0
2, 9431, Note_on_c, 0, 75, 70
2, 9751, Note_on_c, 0, 80, 80
2, 9773, Note_on_c, 0, 71, 42
2, 9775, Note_on_c, 0, 68, 42
2, 9779, Note_on_c, 0, 63, 39
2, 9799, Control_c, 0, 64, 108
2, 9819, Control_c, 0, 64, 79
2, 9838, Control_c, 0, 64, 64
2, 9846, Note_on_c, 0, 75, 0
2, 9858, Control_c, 0, 64, 43
2, 9876, Control_c, 0, 64, 22
2, 9915, Control_c, 0, 64, 24
2, 9935, Control_c, 0, 64, 37
2, 9953, Control_c, 0, 64, 50
2, 9973, Control_c, 0, 64, 58
2, 9992, Control_c, 0, 64, 61
2, 10011, Control_c, 0, 64, 64
2, 10030, Control_c, 0, 64, 66
2, 10050, Control_c, 0, 64, 69
2, 10069, Control_c, 0, 64, 76
2, 10088, Control_c, 0, 64, 93
2, 10107, Control_c, 0, 64, 127
2, 10504, Note_on_c, 0, 71, 0
2, 10510, Note_on_c, 0, 63, 0
2, 10634, Note_on_c, 0, 68, 0
2, 11064, Note_on_c, 0, 83, 67
2, 11363, Note_on_c, 0, 80, 0
2, 11436, Note_on_c, 0, 63, 39
2, 11447, Note_on_c, 0, 68, 40
2, 11451, Note_on_c, 0, 74, 56
2, 11452, Control_c, 0, 64, 93
2, 11453, Note_on_c, 0, 65, 37
2, 11471, Control_c, 0, 64, 70
2, 11472, Note_on_c, 0, 83, 0
2, 11491, Control_c, 0, 64, 51
2, 11509, Control_c, 0, 64, 0
2, 11625, Control_c, 0, 64, 35
2, 11645, Control_c, 0, 64, 51
2, 11663, Control_c, 0, 64, 60
2, 11682, Control_c, 0, 64, 63
2, 11702, Control_c, 0, 64, 65
2, 11720, Control_c, 0, 64, 68
2, 11740, Control_c, 0, 64, 72
2, 11759, Control_c, 0, 64, 80
2, 11779, Control_c, 0, 64, 94
2, 11797, Control_c, 0, 64, 127
2, 11992, Note_on_c, 0, 63, 0
2, 12119, Note_on_c, 0, 68, 0
2, 12122, Note_on_c, 0, 65, 0
2, 13025, Control_c, 0, 64, 92
2, 13042, Note_on_c, 0, 62, 31
2, 13045, Control_c, 0, 64, 71
2, 13051, Note_on_c, 0, 65, 31
2, 13057, Note_on_c, 0, 68, 32
2, 13064, Control_c, 0, 64, 57
2, 13083, Control_c, 0, 64, 0
2, 13218, Control_c, 0, 64, 22
2, 13236, Control_c, 0, 64, 48
2, 13256, Control_c, 0, 64, 59
2, 13275, Control_c, 0, 64, 63
2, 13295, Control_c, 0, 64, 65
2, 13313, Control_c, 0, 64, 68
2, 13333, Control_c, 0, 64, 73
2, 13352, Control_c, 0, 64, 81
2, 13371, Control_c, 0, 64, 96
2, 13390, Control_c, 0, 64, 127
2, 13579, Note_on_c, 0, 74, 0
2, 13708, Note_on_c, 0, 62, 0
2, 13877, Note_on_c, 0, 65, 0
2, 14071, Note_on_c, 0, 68, 0
2, 14190, Note_on_c, 0, 77, 61
2, 14472, Note_on_c, 0, 65, 34
2, 14479, Note_on_c, 0, 62, 40
2, 14542, Control_c, 0, 64, 79
2, 14561, Control_c, 0, 64, 63
2, 14581, Control_c, 0, 64, 34
2, 14598, Note_on_c, 0, 70, 62
2, 14599, Control_c, 0, 64, 0
2, 14620, Note_on_c, 0, 77, 0
2, 14658, Control_c, 0, 64, 28
2, 14676, Control_c, 0, 64, 50
2, 14696, Control_c, 0, 64, 62
2, 14715, Control_c, 0, 64, 65
2, 14735, Control_c, 0, 64, 69
2, 14753, Control_c, 0, 64, 75
2, 14773, Control_c, 0, 64, 88
2, 14792, Control_c, 0, 64, 118
2, 14794, Note_on_c, 0, 70, 0
2, 14811, Control_c, 0, 64, 127
2, 14822, Note_on_c, 0, 68, 59
2, 14988, Note_on_c, 0, 68, 0
2, 15048, Note_on_c, 0, 70, 60
2, 15108, Note_on_c, 0, 70, 0
2, 15154, Note_on_c, 0, 68, 53
2, 15185, Note_on_c, 0, 68, 0
2, 15206, Note_on_c, 0, 70, 70
2, 15246, Note_on_c, 0, 70, 0
2, 15282, Note_on_c, 0, 68, 62
2, 15345, Note_on_c, 0, 65, 0
2, 15429, Note_on_c, 0, 68, 0
2, 15442, Note_on_c, 0, 66, 57
2, 15604, Note_on_c, 0, 68, 60
2, 15634, Note_on_c, 0, 66, 0
2, 15758, Note_on_c, 0, 68, 0
2, 15770, Note_on_c, 0, 70, 68
2, 15912, Note_on_c, 0, 63, 42
2, 15924, Control_c, 0, 64, 97
2, 15944, Control_c, 0, 64, 73
2, 15958, Note_on_c, 0, 62, 0
2, 15963, Control_c, 0, 64, 55
2, 15982, Control_c, 0, 64, 0
2, 16024, Note_on_c, 0, 70, 0
2, 16025, Note_on_c, 0, 68, 62
2, 16078, Control_c, 0, 64, 36
2, 16098, Control_c, 0, 64, 56
2, 16116, Control_c, 0, 64, 63
2, 16136, Control_c, 0, 64, 66
2, 16156, Control_c, 0, 64, 69
2, 16175, Control_c, 0, 64, 74
2, 16192, Note_on_c, 0, 68, 0
2, 16194, Control_c, 0, 64, 86
2, 16214, Control_c, 0, 64, 101
2, 16233, Control_c, 0, 64, 127
2, 16238, Note_on_c, 0, 66, 50
2, 16357, Note_on_c, 0, 66, 0
2, 16399, Note_on_c, 0, 68, 57
2, 16446, Note_on_c, 0, 68, 0
2, 16510, Note_on_c, 0, 66, 47
2, 16546, Note_on_c, 0, 66, 0
2, 16554, Note_on_c, 0, 68, 66
2, 16587, Note_on_c, 0, 68, 0
2, 16628, Note_on_c, 0, 66, 71
2, 16901, Note_on_c, 0, 63, 0
2, 17067, Note_on_c, 0, 65, 55
2, 17208, Note_on_c, 0, 66, 0
2, 17210, Note_on_c, 0, 65, 0
2, 17217, Note_on_c, 0, 63, 64
2, 17383, Note_on_c, 0, 63, 0
2, 17384, Control_c, 0, 64, 117
2, 17403, Control_c, 0, 64, 100
2, 17422, Control_c, 0, 64, 89
2, 17437, Note_on_c, 0, 78, 74
2, 17441, Control_c, 0, 64, 77
2, 17461, Control_c, 0, 64, 69
2, 17479, Control_c, 0, 64, 62
2, 17499, Control_c, 0, 64, 53
2, 17518, Control_c, 0, 64, 41
2, 17538, Control_c, 0, 64, 32
2, 17556, Control_c, 0, 64, 25
2, 17576, Control_c, 0, 64, 13
2, 17595, Control_c, 0, 64, 0
2, 17883, Control_c, 0, 64, 9
2, 17902, Control_c, 0, 64, 32
2, 17921, Control_c, 0, 64, 46
2, 17941, Control_c, 0, 64, 55
2, 17959, Control_c, 0, 64, 59
2, 17979, Control_c, 0, 64, 62
2, 17998, Control_c, 0, 64, 63
2, 18018, Control_c, 0, 64, 64
2, 18036, Control_c, 0, 64, 65
2, 18056, Control_c, 0, 64, 66
2, 18075, Control_c, 0, 64, 68
2, 18095, Control_c, 0, 64, 71
2, 18113, Control_c, 0, 64, 76
2, 18133, Control_c, 0, 64, 84
2, 18152, Control_c, 0, 64, 94
2, 18171, Control_c, 0, 64, 104
2, 18190, Control_c, 0, 64, 123
2, 18210, Control_c, 0, 64, 127
2, 18722, Note_on_c, 0, 58, 60
2, 18970, Note_on_c, 0, 78, 0
2, 19061, Note_on_c, 0, 66, 38
2, 19063, Note_on_c, 0, 54, 65
2, 19109, Note_on_c, 0, 70, 53
2, 19147, Note_on_c, 0, 78, 57
2, 19150, Control_c, 0, 64, 118
2, 19164, Note_on_c, 0, 75, 56
2, 19170, Control_c, 0, 64, 87
2, 19189, Control_c, 0, 64, 70
2, 19208, Control_c, 0, 64, 55
2, 19219, Note_on_c, 0, 58, 0
2, 19227, Control_c, 0, 64, 0
2, 19323, Control_c, 0, 64, 38
2, 19342, Control_c, 0, 64, 57
2, 19361, Control_c, 0, 64, 64
2, 19381, Control_c, 0, 64, 67
2, 19399, Control_c, 0, 64, 71
2, 19419, Control_c, 0, 64, 79
2, 19438, Control_c, 0, 64, 92
2, 19458, Control_c, 0, 64, 123
2, 19476, Control_c, 0, 64, 127
2, 19545, Note_on_c, 0, 66, 0
2, 20458, Note_on_c, 0, 51, 64
2, 20585, Note_on_c, 0, 70, 0
2, 20642, Note_on_c, 0, 75, 0
2, 20655, Note_on_c, 0, 78, 0
2, 20692, Note_on_c, 0, 54, 0
2, 20824, Control_c, 0, 64, 105
2, 20829, Note_on_c, 0, 46, 58
2, 20842, Control_c, 0, 64, 85
2, 20854, Note_on_c, 0, 66, 51
2, 20862, Control_c, 0, 64, 70
2, 20881, Control_c, 0, 64, 53
2, 20901, Control_c, 0, 64, 0
2, 20903, Note_on_c, 0, 70, 45
2, 20917, Note_on_c, 0, 51, 0
2, 20946, Note_on_c, 0, 73, 36
2, 20991, Note_on_c, 0, 78, 52
2, 21053, Control_c, 0, 64, 13
2, 21073, Control_c, 0, 64, 43
2, 21092, Control_c, 0, 64, 57
2, 21112, Control_c, 0, 64, 62
2, 21130, Control_c, 0, 64, 65
2, 21150, Control_c, 0, 64, 68
2, 21169, Control_c, 0, 64, 73
2, 21188, Control_c, 0, 64, 83
2, 21207, Control_c, 0, 64, 100
2, 21227, Control_c, 0, 64, 127
2, 21625, Note_on_c, 0, 46, 0
2, 22351, Note_on_c, 0, 46, 33
2, 22399, Note_on_c, 0, 49, 50
2, 22454, Control_c, 0, 64, 87
2, 22474, Control_c, 0, 64, 69
2, 22492, Control_c, 0, 64, 53
2, 22512, Control_c, 0, 64, 0
2, 22513, Note_on_c, 0, 54, 35
2, 22565, Note_on_c, 0, 58, 43
2, 22565, Note_on_c, 0, 66, 0
2, 22628, Control_c, 0, 64, 38
2, 22646, Control_c, 0, 64, 55
2, 22666, Control_c, 0, 64, 62
2, 22685, Control_c, 0, 64, 64
2, 22704, Control_c, 0, 64, 67
2, 22721, Note_on_c, 0, 46, 0
2, 22723, Control_c, 0, 64, 71
2, 22743, Control_c, 0, 64, 78
2, 22762, Control_c, 0, 64, 92
2, 22781, Control_c, 0, 64, 127
2, 22806, Note_on_c, 0, 70, 0
2, 22891, Note_on_c, 0, 58, 0
2, 22897, Note_on_c, 0, 73, 0
2, 22946, Note_on_c, 0, 78, 0
2, 23017, Note_on_c, 0, 54, 0
2, 23032, Note_on_c, 0, 49, 0
2, 23701, Note_on_c, 0, 78, 69
2, 23872, Note_on_c, 0, 76, 72
2, 23936, Note_on_c, 0, 78, 0
2, 24033, Note_on_c, 0, 76, 0
2, 24036, Note_on_c, 0, 75, 77
2, 24088, Note_on_c, 0, 46, 39
2, 24107, Note_on_c, 0, 49, 48
2, 24183, Control_c, 0, 64, 121
2, 24202, Control_c, 0, 64, 92
2, 24216, Note_on_c, 0, 54, 38
2, 24221, Control_c, 0, 64, 76
2, 24224, Note_on_c, 0, 76, 71
2, 24233, Note_on_c, 0, 75, 0
2, 24240, Control_c, 0, 64, 64
2, 24260, Control_c, 0, 64, 47
2, 24260, Note_on_c, 0, 58, 41
2, 24278, Control_c, 0, 64, 0
2, 24586, Control_c, 0, 64, 22
2, 24605, Control_c, 0, 64, 44
2, 24624, Control_c, 0, 64, 55
2, 24643, Control_c, 0, 64, 60
2, 24663, Control_c, 0, 64, 62
2, 24682, Control_c, 0, 64, 64
2, 24701, Control_c, 0, 64, 66
2, 24720, Control_c, 0, 64, 68
2, 24740, Control_c, 0, 64, 73
2, 24758, Control_c, 0, 64, 81
2, 24777, Control_c, 0, 64, 93
2, 24800, Control_c, 0, 64, 111
2, 24819, Control_c, 0, 64, 127
2, 25022, Note_on_c, 0, 46, 0
2, 25073, Note_on_c, 0, 49, 0
2, 25075, Note_on_c, 0, 58, 0
2, 25119, Note_on_c, 0, 54, 0
2, 25325, Note_on_c, 0, 76, 0
2, 25326, Note_on_c, 0, 73, 66
2, 25452, Note_on_c, 0, 73, 0
2, 25553, Note_on_c, 0, 47, 44
2, 25673, Note_on_c, 0, 51, 33
2, 25759, Control_c, 0, 64, 96
2, 25762, Note_on_c, 0, 54, 36
2, 25771, Note_on_c, 0, 63, 43
2, 25776, Note_on_c, 0, 71, 42
2, 25777, Control_c, 0, 64, 76
2, 25781, Note_on_c, 0, 75, 59
2, 25790, Note_on_c, 0, 59, 42
2, 25797, Control_c, 0, 64, 62
2, 25809, Note_on_c, 0, 66, 22
2, 25816, Control_c, 0, 64, 11
2, 25836, Control_c, 0, 64, 0
2, 25951, Control_c, 0, 64, 29
2, 25970, Control_c, 0, 64, 55
2, 25989, Control_c, 0, 64, 62
2, 26008, Control_c, 0, 64, 64
2, 26028, Control_c, 0, 64, 67
2, 26047, Control_c, 0, 64, 71
2, 26066, Control_c, 0, 64, 78
2, 26085, Control_c, 0, 64, 90
2, 26105, Control_c, 0, 64, 127
2, 26255, Note_on_c, 0, 63, 0
2, 26303, Note_on_c, 0, 59, 0
2, 26317, Note_on_c, 0, 47, 0
2, 26335, Note_on_c, 0, 51, 0
2, 26397, Note_on_c, 0, 54, 0
2, 26485, Note_on_c, 0, 66, 0
2, 26724, Note_on_c, 0, 71, 0
2, 26730, Note_on_c, 0, 75, 0
2, 27201, Note_on_c, 0, 66, 46
2, 27254, Note_on_c, 0, 71, 54
2, 27276, Control_c, 0, 64, 118
2, 27294, Control_c, 0, 64, 99
2, 27314, Control_c, 0, 64, 86
2, 27332, Control_c, 0, 64, 75
2, 27337, Note_on_c, 0, 75, 57
2, 27352, Control_c, 0, 64, 66
2, 27370, Control_c, 0, 64, 59
2, 27390, Control_c, 0, 64, 50
2, 27409, Control_c, 0, 64, 42
2, 27428, Control_c, 0, 64, 34
2, 27447, Control_c, 0, 64, 22
2, 27467, Control_c, 0, 64, 0
2, 27813, Control_c, 0, 64, 31
2, 27833, Control_c, 0, 64, 45
2, 27851, Control_c, 0, 64, 53
2, 27871, Control_c, 0, 64, 57
2, 27890, Control_c, 0, 64, 60
2, 27908, Control_c, 0, 64, 62
2, 27928, Control_c, 0, 64, 63
2, 27947, Control_c, 0, 64, 64
2, 27967, Control_c, 0, 64, 65
2, 27985, Control_c, 0, 64, 66
2, 28005, Control_c, 0, 64, 69
2, 28024, Control_c, 0, 64, 74
2, 28043, Control_c, 0, 64, 81
2, 28062, Control_c, 0, 64, 92
2, 28082, Control_c, 0, 64, 110
2, 28101, Control_c, 0, 64, 127
2, 28493, Note_on_c, 0, 71, 0
2, 28526, Note_on_c, 0, 66, 0
2, 28531, Note_on_c, 0, 54, 66
2, 28856, Note_on_c, 0, 51, 63
2, 28856, Note_on_c, 0, 75, 0
2, 28860, Note_on_c, 0, 66, 49
2, 28905, Note_on_c, 0, 71, 59
2, 28929, Control_c, 0, 64, 96
2, 28947, Control_c, 0, 64, 76
2, 28967, Control_c, 0, 64, 63
2, 28968, Note_on_c, 0, 54, 0
2, 28973, Note_on_c, 0, 75, 82
2, 28986, Control_c, 0, 64, 39
2, 29006, Control_c, 0, 64, 0
2, 29081, Control_c, 0, 64, 25
2, 29101, Control_c, 0, 64, 50
2, 29120, Control_c, 0, 64, 61
2, 29140, Control_c, 0, 64, 65
2, 29158, Control_c, 0, 64, 67
2, 29178, Control_c, 0, 64, 72
2, 29197, Control_c, 0, 64, 81
2, 29216, Control_c, 0, 64, 101
2, 29235, Control_c, 0, 64, 127
2, 29330, Note_on_c, 0, 66, 0
2, 29515, Note_on_c, 0, 71, 0
2, 29906, Note_on_c, 0, 75, 0
2, 30146, Note_on_c, 0, 47, 72
2, 30229, Note_on_c, 0, 51, 0
2, 30635, Note_on_c, 0, 43, 57
2, 30744, Note_on_c, 0, 47, 0
2, 30746, Note_on_c, 0, 70, 61
2, 30790, Control_c, 0, 64, 97
2, 30795, Note_on_c, 0, 75, 64
2, 30809, Control_c, 0, 64, 75
2, 30828, Control_c, 0, 64, 62
2, 30848, Control_c, 0, 64, 9
2, 30866, Control_c, 0, 64, 0
2, 30892, Note_on_c, 0, 82, 71
2, 31001, Control_c, 0, 64, 40
2, 31020, Control_c, 0, 64, 56
2, 31039, Control_c, 0, 64, 62
2, 31059, Control_c, 0, 64, 65
2, 31077, Control_c, 0, 64, 68
2, 31097, Control_c, 0, 64, 74
2, 31116, Control_c, 0, 64, 84
2, 31136, Control_c, 0, 64, 105
2, 31154, Control_c, 0, 64, 127
2, 31236, Note_on_c, 0, 43, 0
2, 32252, Note_on_c, 0, 43, 41
2, 32304, Control_c, 0, 64, 109
2, 32324, Control_c, 0, 64, 86
2, 32325, Note_on_c, 0, 46, 47
2, 32343, Control_c, 0, 64, 71
2, 32363, Control_c, 0, 64, 61
2, 32381, Control_c, 0, 64, 31
2, 32401, Control_c, 0, 64, 0
2, 32450, Note_on_c, 0, 51, 30
2, 32485, Note_on_c, 0, 82, 0
2, 32493, Note_on_c, 0, 55, 44
2, 32532, Control_c, 0, 64, 26
2, 32552, Control_c, 0, 64, 49
2, 32570, Control_c, 0, 64, 60
2, 32590, Control_c, 0, 64, 63
2, 32609, Control_c, 0, 64, 64
2, 32629, Control_c, 0, 64, 66
2, 32635, Note_on_c, 0, 75, 0
2, 32647, Control_c, 0, 64, 69
2, 32667, Control_c, 0, 64, 74
2, 32677, Note_on_c, 0, 43, 0
2, 32686, Control_c, 0, 64, 85
2, 32706, Control_c, 0, 64, 110
2, 32724, Control_c, 0, 64, 127
2, 32822, Note_on_c, 0, 55, 0
2, 32919, Note_on_c, 0, 51, 0
2, 33046, Note_on_c, 0, 46, 0
2, 33636, Note_on_c, 0, 75, 62
2, 33694, Note_on_c, 0, 70, 0
2, 33825, Note_on_c, 0, 73, 66
2, 33890, Note_on_c, 0, 75, 0
2, 33985, Note_on_c, 0, 71, 59
2, 33996, Note_on_c, 0, 73, 0
2, 34046, Note_on_c, 0, 43, 31
2, 34070, Note_on_c, 0, 46, 45
2, 34126, Control_c, 0, 64, 94
2, 34146, Control_c, 0, 64, 76
2, 34164, Control_c, 0, 64, 64
2, 34184, Control_c, 0, 64, 39
2, 34195, Note_on_c, 0, 73, 60
2, 34197, Note_on_c, 0, 51, 30
2, 34203, Control_c, 0, 64, 0
2, 34224, Note_on_c, 0, 55, 40
2, 34236, Note_on_c, 0, 71, 0
2, 34375, Control_c, 0, 64, 21
2, 34395, Control_c, 0, 64, 47
2, 34414, Control_c, 0, 64, 59
2, 34433, Control_c, 0, 64, 63
2, 34452, Control_c, 0, 64, 65
2, 34472, Control_c, 0, 64, 67
2, 34490, Control_c, 0, 64, 70
2, 34510, Control_c, 0, 64, 75
2, 34529, Control_c, 0, 64, 86
2, 34549, Control_c, 0, 64, 106
2, 34567, Control_c, 0, 64, 127
2, 34737, Note_on_c, 0, 55, 0
2, 34756, Note_on_c, 0, 43, 0
2, 34854, Note_on_c, 0, 46, 0
2, 35099, Note_on_c, 0, 51, 0
2, 35298, Note_on_c, 0, 70, 66
2, 35310, Note_on_c, 0, 73, 0
2, 35456, Note_on_c, 0, 44, 37
2, 35485, Note_on_c, 0, 47, 47
2, 35586, Note_on_c, 0, 51, 42
2, 35643, Control_c, 0, 64, 89
2, 35661, Note_on_c, 0, 56, 44
2, 35662, Control_c, 0, 64, 69
2, 35681, Control_c, 0, 64, 49
2, 35681, Note_on_c, 0, 70, 0
2, 35684, Note_on_c, 0, 73, 59
2, 35701, Control_c, 0, 64, 0
2, 35796, Control_c, 0, 64, 39
2, 35815, Control_c, 0, 64, 56
2, 35835, Control_c, 0, 64, 62
2, 35854, Control_c, 0, 64, 65
2, 35872, Note_on_c, 0, 73, 0
2, 35873, Control_c, 0, 64, 67
2, 35892, Control_c, 0, 64, 71
2, 35902, Note_on_c, 0, 71, 61
2, 35912, Control_c, 0, 64, 78
2, 35930, Control_c, 0, 64, 89
2, 35950, Control_c, 0, 64, 106
2, 35969, Control_c, 0, 64, 127
2, 35971, Note_on_c, 0, 71, 0
2, 36064, Note_on_c, 0, 73, 56
2, 36128, Note_on_c, 0, 73, 0
2, 36175, Note_on_c, 0, 71, 46
2, 36205, Note_on_c, 0, 71, 0
2, 36219, Note_on_c, 0, 73, 62
2, 36259, Note_on_c, 0, 73, 0
2, 36287, Note_on_c, 0, 71, 72
2, 36622, Note_on_c, 0, 71, 0
2, 36674, Note_on_c, 0, 70, 74
2, 36801, Note_on_c, 0, 70, 0
2, 36831, Note_on_c, 0, 68, 78
2, 36909, Note_on_c, 0, 68, 0
2, 37052, Note_on_c, 0, 47, 0
2, 37088, Note_on_c, 0, 44, 0
2, 37101, Note_on_c, 0, 51, 0
2, 37139, Note_on_c, 0, 56, 0
2, 37153, Note_on_c, 0, 75, 63
2, 37267, Note_on_c, 0, 80, 71
2, 37292, Note_on_c, 0, 83, 71
2, 37467, Control_c, 0, 64, 95
2, 37486, Control_c, 0, 64, 79
2, 37506, Control_c, 0, 64, 68
2, 37524, Control_c, 0, 64, 58
2, 37544, Control_c, 0, 64, 45
2, 37563, Control_c, 0, 64, 36
2, 37582, Control_c, 0, 64, 29
2, 37601, Control_c, 0, 64, 15
2, 37621, Control_c, 0, 64, 0
2, 38004, Control_c, 0, 64, 29
2, 38024, Control_c, 0, 64, 42
2, 38043, Control_c, 0, 64, 51
2, 38062, Control_c, 0, 64, 57
2, 38081, Control_c, 0, 64, 60
2, 38100, Control_c, 0, 64, 61
2, 38120, Control_c, 0, 64, 62
2, 38138, Control_c, 0, 64, 63
2, 38158, Control_c, 0, 64, 64
2, 38177, Control_c, 0, 64, 66
2, 38196, Control_c, 0, 64, 68
2, 38215, Control_c, 0, 64, 74
2, 38234, Control_c, 0, 64, 82
2, 38253, Control_c, 0, 64, 96
2, 38272, Control_c, 0, 64, 127
2, 38757, Note_on_c, 0, 71, 48
2, 38937, Note_on_c, 0, 75, 0
2, 38946, Note_on_c, 0, 80, 0
2, 38952, Note_on_c, 0, 83, 0
2, 39201, Note_on_c, 0, 68, 48
2, 39213, Control_c, 0, 64, 98
2, 39225, Note_on_c, 0, 75, 39
2, 39232, Control_c, 0, 64, 76
2, 39247, Note_on_c, 0, 80, 46
2, 39247, Note_on_c, 0, 83, 52
2, 39251, Control_c, 0, 64, 63
2, 39271, Control_c, 0, 64, 44
2, 39288, Note_on_c, 0, 71, 0
2, 39290, Control_c, 0, 64, 21
2, 39309, Control_c, 0, 64, 18
2, 39366, Control_c, 0, 64, 29
2, 39386, Control_c, 0, 64, 45
2, 39405, Control_c, 0, 64, 58
2, 39425, Control_c, 0, 64, 63
2, 39443, Control_c, 0, 64, 65
2, 39463, Control_c, 0, 64, 68
2, 39482, Control_c, 0, 64, 72
2, 39500, Control_c, 0, 64, 80
2, 39520, Control_c, 0, 64, 97
2, 39539, Control_c, 0, 64, 127
2, 39969, Note_on_c, 0, 75, 0
2, 40042, Note_on_c, 0, 80, 0
2, 40374, Note_on_c, 0, 83, 0
2, 40436, Note_on_c, 0, 65, 45
2, 40524, Note_on_c, 0, 68, 0
2, 40843, Note_on_c, 0, 62, 44
2, 40845, Control_c, 0, 64, 111
2, 40860, Note_on_c, 0, 77, 40
2, 40865, Control_c, 0, 64, 85
2, 40883, Control_c, 0, 64, 69
2, 40898, Note_on_c, 0, 65, 0
2, 40903, Control_c, 0, 64, 56
2, 40907, Note_on_c, 0, 80, 43
2, 40922, Control_c, 0, 64, 13
2, 40940, Control_c, 0, 64, 0
2, 41001, Note_on_c, 0, 83, 57
2, 41030, Note_on_c, 0, 80, 0
2, 41056, Control_c, 0, 64, 37
2, 41076, Control_c, 0, 64, 54
2, 41094, Control_c, 0, 64, 62
2, 41114, Control_c, 0, 64, 64
2, 41133, Control_c, 0, 64, 65
2, 41152, Control_c, 0, 64, 67
2, 41171, Control_c, 0, 64, 70
2, 41191, Control_c, 0, 64, 76
2, 41210, Control_c, 0, 64, 89
2, 41229, Control_c, 0, 64, 127
2, 41471, Note_on_c, 0, 77, 0
2, 41617, Note_on_c, 0, 62, 0
2, 42395, Note_on_c, 0, 62, 40
2, 42460, Control_c, 0, 64, 103
2, 42480, Control_c, 0, 64, 77
2, 42489, Note_on_c, 0, 65, 36
2, 42499, Control_c, 0, 64, 64
2, 42519, Control_c, 0, 64, 40
2, 42537, Control_c, 0, 64, 0
2, 42599, Note_on_c, 0, 70, 50
2, 42634, Control_c, 0, 64, 11
2, 42653, Control_c, 0, 64, 41
2, 42671, Control_c, 0, 64, 55
2, 42691, Control_c, 0, 64, 61
2, 42710, Control_c, 0, 64, 63
2, 42717, Note_on_c, 0, 83, 0
2, 42729, Control_c, 0, 64, 65
2, 42748, Control_c, 0, 64, 68
2, 42768, Control_c, 0, 64, 71
2, 42787, Control_c, 0, 64, 79
2, 42806, Control_c, 0, 64, 92
2, 42825, Control_c, 0, 64, 127
2, 43361, Note_on_c, 0, 70, 0
2, 43469, Note_on_c, 0, 62, 0
2, 43623, Note_on_c, 0, 82, 63
2, 43709, Note_on_c, 0, 65, 0
2, 43914, Note_on_c, 0, 80, 66
2, 43971, Note_on_c, 0, 82, 0
2, 44118, Note_on_c, 0, 78, 61
2, 44135, Note_on_c, 0, 80, 0
2, 44276, Note_on_c, 0, 62, 34
2, 44286, Control_c, 0, 64, 108
2, 44304, Control_c, 0, 64, 92
2, 44324, Control_c, 0, 64, 80
2, 44343, Control_c, 0, 64, 70
2, 44346, Note_on_c, 0, 65, 31
2, 44352, Note_on_c, 0, 77, 51
2, 44356, Note_on_c, 0, 78, 0
2, 44363, Control_c, 0, 64, 64
2, 44381, Control_c, 0, 64, 58
2, 44401, Control_c, 0, 64, 51
2, 44420, Control_c, 0, 64, 46
2, 44439, Control_c, 0, 64, 41
2, 44444, Note_on_c, 0, 70, 38
2, 44458, Control_c, 0, 64, 36
2, 44478, Control_c, 0, 64, 29
2, 44497, Control_c, 0, 64, 18
2, 44516, Control_c, 0, 64, 0
2, 44532, Note_on_c, 0, 78, 54
2, 44536, Note_on_c, 0, 77, 0
2, 44696, Note_on_c, 0, 77, 57
2, 44701, Note_on_c, 0, 78, 0
2, 44842, Control_c, 0, 64, 27
2, 44859, Note_on_c, 0, 78, 61
2, 44860, Control_c, 0, 64, 43
2, 44880, Control_c, 0, 64, 54
2, 44891, Note_on_c, 0, 77, 0
2, 44899, Control_c, 0, 64, 59
2, 44919, Control_c, 0, 64, 62
2, 44937, Control_c, 0, 64, 63
2, 44957, Control_c, 0, 64, 64
2, 44976, Control_c, 0, 64, 65
2, 44995, Control_c, 0, 64, 67
2, 45014, Control_c, 0, 64, 71
2, 45024, Note_on_c, 0, 80, 63
2, 45034, Control_c, 0, 64, 77
2, 45053, Control_c, 0, 64, 87
2, 45057, Note_on_c, 0, 78, 0
2, 45061, Note_on_c, 0, 62, 0
2, 45071, Control_c, 0, 64, 100
2, 45091, Control_c, 0, 64, 127
2, 45189, Note_on_c, 0, 65, 0
2, 45191, Note_on_c, 0, 78, 71
2, 45211, Note_on_c, 0, 80, 0
2, 45213, Note_on_c, 0, 70, 0
2, 45354, Note_on_c, 0, 80, 69
2, 45409, Note_on_c, 0, 78, 0
2, 45488, Note_on_c, 0, 80, 0
2, 45490, Note_on_c, 0, 77, 66
2, 45566, Note_on_c, 0, 63, 36
2, 45627, Control_c, 0, 64, 118
2, 45647, Control_c, 0, 64, 100
2, 45647, Note_on_c, 0, 66, 40
2, 45666, Control_c, 0, 64, 84
2, 45685, Control_c, 0, 64, 70
2, 45704, Control_c, 0, 64, 59
2, 45722, Note_on_c, 0, 70, 43
2, 45724, Control_c, 0, 64, 21
2, 45735, Note_on_c, 0, 77, 0
2, 45743, Control_c, 0, 64, 0
2, 45764, Note_on_c, 0, 80, 61
2, 45839, Control_c, 0, 64, 39
2, 45858, Control_c, 0, 64, 54
2, 45878, Control_c, 0, 64, 60
2, 45896, Control_c, 0, 64, 63
2, 45917, Control_c, 0, 64, 64
2, 45936, Control_c, 0, 64, 66
2, 45955, Control_c, 0, 64, 68
2, 45959, Note_on_c, 0, 80, 0
2, 45974, Control_c, 0, 64, 72
2, 45994, Control_c, 0, 64, 80
2, 46005, Note_on_c, 0, 78, 52
2, 46013, Control_c, 0, 64, 93
2, 46031, Control_c, 0, 64, 127
2, 46133, Note_on_c, 0, 78, 0
2, 46172, Note_on_c, 0, 80, 59
2, 46248, Note_on_c, 0, 80, 0
2, 46288, Note_on_c, 0, 78, 52
2, 46333, Note_on_c, 0, 78, 0
2, 46359, Note_on_c, 0, 80, 56
2, 46396, Note_on_c, 0, 80, 0
2, 46420, Note_on_c, 0, 78, 74
2, 46831, Note_on_c, 0, 78, 0
2, 46964, Note_on_c, 0, 77, 64
2, 47012, Note_on_c, 0, 70, 0
2, 47135, Note_on_c, 0, 75, 62
2, 47145, Note_on_c, 0, 77, 0
2, 47197, Note_on_c, 0, 75, 0
2, 47319, Control_c, 0, 64, 112
2, 47337, Control_c, 0, 64, 98
2, 47349, Note_on_c, 0, 75, 51
2, 47357, Control_c, 0, 64, 85
2, 47368, Note_on_c, 0, 70, 43
2, 47376, Control_c, 0, 64, 74
2, 47395, Control_c, 0, 64, 65
2, 47414, Control_c, 0, 64, 45
2, 47419, Note_on_c, 0, 66, 0
2, 47419, Note_on_c, 0, 78, 46
2, 47433, Control_c, 0, 64, 0
2, 47498, Note_on_c, 0, 82, 59
2, 47606, Control_c, 0, 64, 36
2, 47625, Control_c, 0, 64, 53
2, 47645, Control_c, 0, 64, 60
2, 47663, Control_c, 0, 64, 63
2, 47683, Control_c, 0, 64, 64
2, 47702, Control_c, 0, 64, 66
2, 47722, Control_c, 0, 64, 69
2, 47740, Control_c, 0, 64, 73
2, 47760, Control_c, 0, 64, 83
2, 47779, Control_c, 0, 64, 97
2, 47799, Control_c, 0, 64, 127
2, 48092, Note_on_c, 0, 63, 0
2, 48608, Note_on_c, 0, 70, 0
2, 48760, Note_on_c, 0, 66, 60
2, 48829, Note_on_c, 0, 75, 0
2, 48891, Note_on_c, 0, 78, 0
2, 48938, Note_on_c, 0, 82, 0
2, 49126, Note_on_c, 0, 63, 53
2, 49153, Note_on_c, 0, 73, 45
2, 49198, Note_on_c, 0, 75, 53
2, 49199, Control_c, 0, 64, 109
2, 49212, Note_on_c, 0, 78, 52
2, 49218, Control_c, 0, 64, 81
2, 49238, Control_c, 0, 64, 66
2, 49256, Control_c, 0, 64, 48
2, 49264, Note_on_c, 0, 66, 0
2, 49276, Control_c, 0, 64, 0
2, 49292, Note_on_c, 0, 82, 74
2, 49372, Control_c, 0, 64, 37
2, 49390, Control_c, 0, 64, 54
2, 49411, Control_c, 0, 64, 60
2, 49430, Control_c, 0, 64, 63
2, 49449, Control_c, 0, 64, 64
2, 49468, Control_c, 0, 64, 66
2, 49488, Control_c, 0, 64, 70
2, 49507, Control_c, 0, 64, 78
2, 49526, Control_c, 0, 64, 94
2, 49545, Control_c, 0, 64, 127
2, 49795, Note_on_c, 0, 73, 0
2, 50513, Note_on_c, 0, 75, 0
2, 50553, Note_on_c, 0, 82, 0
2, 50560, Note_on_c, 0, 78, 0
2, 50561, Note_on_c, 0, 60, 57
2, 50681, Note_on_c, 0, 63, 0
2, 51068, Note_on_c, 0, 57, 42
2, 51100, Control_c, 0, 64, 106
2, 51119, Note_on_c, 0, 72, 51
2, 51120, Control_c, 0, 64, 81
2, 51139, Control_c, 0, 64, 65
2, 51153, Note_on_c, 0, 60, 0
2, 51159, Control_c, 0, 64, 46
2, 51177, Control_c, 0, 64, 0
2, 51188, Note_on_c, 0, 78, 50
2, 51190, Note_on_c, 0, 75, 41
2, 51253, Note_on_c, 0, 84, 58
2, 51331, Control_c, 0, 64, 17
2, 51350, Control_c, 0, 64, 45
2, 51369, Control_c, 0, 64, 57
2, 51388, Control_c, 0, 64, 62
2, 51408, Control_c, 0, 64, 64
2, 51427, Control_c, 0, 64, 66
2, 51446, Control_c, 0, 64, 68
2, 51465, Control_c, 0, 64, 73
2, 51485, Control_c, 0, 64, 85
2, 51503, Control_c, 0, 64, 110
2, 51523, Control_c, 0, 64, 127
2, 51775, Note_on_c, 0, 57, 0
2, 52658, Note_on_c, 0, 57, 36
2, 52749, Note_on_c, 0, 60, 34
2, 52750, Control_c, 0, 64, 89
2, 52770, Control_c, 0, 64, 71
2, 52789, Control_c, 0, 64, 54
2, 52809, Control_c, 0, 64, 0
2, 52837, Note_on_c, 0, 84, 0
2, 52839, Note_on_c, 0, 65, 42
2, 52943, Control_c, 0, 64, 15
2, 52962, Control_c, 0, 64, 44
2, 52974, Note_on_c, 0, 78, 0
2, 52981, Control_c, 0, 64, 58
2, 53001, Control_c, 0, 64, 63
2, 53019, Control_c, 0, 64, 65
2, 53039, Control_c, 0, 64, 67
2, 53058, Control_c, 0, 64, 70
2, 53078, Control_c, 0, 64, 76
2, 53096, Control_c, 0, 64, 88
2, 53116, Control_c, 0, 64, 112
2, 53135, Control_c, 0, 64, 127
2, 53182, Note_on_c, 0, 75, 0
2, 53316, Note_on_c, 0, 72, 0
2, 53437, Note_on_c, 0, 57, 0
2, 53543, Note_on_c, 0, 65, 0
2, 53583, Note_on_c, 0, 60, 0
2, 53934, Note_on_c, 0, 77, 53
2, 54159, Note_on_c, 0, 75, 61
2, 54200, Note_on_c, 0, 77, 0
2, 54358, Note_on_c, 0, 73, 51
2, 54379, Note_on_c, 0, 75, 0
2, 54409, Note_on_c, 0, 57, 32
2, 54459, Control_c, 0, 64, 115
2, 54479, Control_c, 0, 64, 101
2, 54486, Note_on_c, 0, 60, 36
2, 54498, Control_c, 0, 64, 89
2, 54518, Control_c, 0, 64, 79
2, 54536, Control_c, 0, 64, 71
2, 54552, Note_on_c, 0, 73, 0
2, 54553, Note_on_c, 0, 72, 50
2, 54556, Control_c, 0, 64, 65
2, 54575, Control_c, 0, 64, 58
2, 54586, Note_on_c, 0, 65, 30
2, 54593, Control_c, 0, 64, 51
2, 54613, Control_c, 0, 64, 46
2, 54632, Control_c, 0, 64, 42
2, 54652, Control_c, 0, 64, 37
2, 54670, Control_c, 0, 64, 32
2, 54690, Control_c, 0, 64, 26
2, 54709, Control_c, 0, 64, 19
2, 54727, Note_on_c, 0, 73, 52
2, 54729, Control_c, 0, 64, 15
2, 54733, Note_on_c, 0, 72, 0
2, 54747, Control_c, 0, 64, 11
2, 54767, Control_c, 0, 64, 0
2, 54910, Note_on_c, 0, 72, 54
2, 54938, Note_on_c, 0, 73, 0
2, 55081, Note_on_c, 0, 73, 62
2, 55085, Note_on_c, 0, 72, 0
2, 55247, Note_on_c, 0, 75, 61
2, 55278, Note_on_c, 0, 73, 0
2, 55285, Control_c, 0, 64, 13
2, 55304, Control_c, 0, 64, 28
2, 55324, Control_c, 0, 64, 37
2, 55343, Control_c, 0, 64, 45
2, 55362, Control_c, 0, 64, 51
2, 55381, Control_c, 0, 64, 56
2, 55401, Control_c, 0, 64, 59
2, 55412, Note_on_c, 0, 57, 0
2, 55415, Note_on_c, 0, 73, 59
2, 55419, Control_c, 0, 64, 61
2, 55430, Note_on_c, 0, 75, 0
2, 55439, Control_c, 0, 64, 62
2, 55458, Control_c, 0, 64, 64
2, 55478, Control_c, 0, 64, 66
2, 55496, Control_c, 0, 64, 69
2, 55501, Note_on_c, 0, 60, 0
2, 55518, Control_c, 0, 64, 74
2, 55537, Control_c, 0, 64, 86
2, 55556, Control_c, 0, 64, 97
2, 55575, Control_c, 0, 64, 107
2, 55586, Note_on_c, 0, 75, 62
2, 55594, Control_c, 0, 64, 112
2, 55614, Control_c, 0, 64, 114
2, 55620, Note_on_c, 0, 73, 0
2, 55657, Note_on_c, 0, 65, 0
2, 55753, Note_on_c, 0, 75, 0
2, 55761, Note_on_c, 0, 72, 55
2, 55767, Control_c, 0, 64, 113
2, 55786, Control_c, 0, 64, 112
2, 55806, Control_c, 0, 64, 111
2, 55824, Control_c, 0, 64, 110
2, 55836, Note_on_c, 0, 58, 39
2, 55844, Control_c, 0, 64, 110
2, 55883, Control_c, 0, 64, 109
2, 55901, Control_c, 0, 64, 108
2, 55919, Note_on_c, 0, 61, 43
2, 55921, Control_c, 0, 64, 104
2, 55940, Control_c, 0, 64, 94
2, 55959, Control_c, 0, 64, 78
2, 55971, Note_on_c, 0, 72, 0
2, 55974, Note_on_c, 0, 65, 39
2, 55978, Control_c, 0, 64, 67
2, 55998, Control_c, 0, 64, 57
2, 56013, Note_on_c, 0, 75, 57
2, 56017, Control_c, 0, 64, 42
2, 56036, Control_c, 0, 64, 38
2, 56074, Control_c, 0, 64, 42
2, 56094, Control_c, 0, 64, 53
2, 56112, Control_c, 0, 64, 59
2, 56131, Control_c, 0, 64, 62
2, 56150, Control_c, 0, 64, 63
2, 56169, Control_c, 0, 64, 65
2, 56177, Note_on_c, 0, 75, 0
2, 56188, Control_c, 0, 64, 66
2, 56208, Control_c, 0, 64, 69
2, 56222, Note_on_c, 0, 73, 48
2, 56227, Control_c, 0, 64, 75
2, 56246, Control_c, 0, 64, 85
2, 56265, Control_c, 0, 64, 99
2, 56285, Control_c, 0, 64, 115
2, 56296, Note_on_c, 0, 73, 0
2, 56303, Control_c, 0, 64, 127
2, 56349, Note_on_c, 0, 75, 54
2, 56408, Note_on_c, 0, 75, 0
2, 56453, Note_on_c, 0, 73, 47
2, 56492, Note_on_c, 0, 73, 0
2, 56525, Note_on_c, 0, 75, 51
2, 56553, Note_on_c, 0, 75, 0
2, 56591, Note_on_c, 0, 73, 61
2, 57012, Note_on_c, 0, 73, 0
2, 57139, Note_on_c, 0, 72, 64
2, 57143, Note_on_c, 0, 58, 0
2, 57199, Note_on_c, 0, 65, 0
2, 57233, Note_on_c, 0, 61, 0
2, 57310, Note_on_c, 0, 70, 68
2, 57317, Note_on_c, 0, 72, 0
2, 57402, Note_on_c, 0, 70, 0
2, 57427, Note_on_c, 0, 58, 36
2, 57473, Control_c, 0, 64, 119
2, 57493, Control_c, 0, 64, 112
2, 57512, Control_c, 0, 64, 105
2, 57532, Control_c, 0, 64, 99
2, 57542, Note_on_c, 0, 61, 38
2, 57550, Control_c, 0, 64, 89
2, 57569, Note_on_c, 0, 70, 51
2, 57570, Control_c, 0, 64, 78
2, 57575, Note_on_c, 0, 65, 35
2, 57589, Control_c, 0, 64, 67
2, 57609, Control_c, 0, 64, 55
2, 57612, Note_on_c, 0, 73, 51
2, 57627, Control_c, 0, 64, 26
2, 57647, Control_c, 0, 64, 0
2, 57729, Note_on_c, 0, 77, 59
2, 57781, Control_c, 0, 64, 32
2, 57801, Control_c, 0, 64, 49
2, 57817, Note_on_c, 0, 73, 0
2, 57819, Control_c, 0, 64, 58
2, 57839, Control_c, 0, 64, 61
2, 57858, Control_c, 0, 64, 63
2, 57878, Control_c, 0, 64, 64
2, 57896, Control_c, 0, 64, 66
2, 57915, Control_c, 0, 64, 68
2, 57935, Control_c, 0, 64, 71
2, 57953, Control_c, 0, 64, 77
2, 57959, Note_on_c, 0, 70, 0
2, 57973, Control_c, 0, 64, 86
2, 57992, Control_c, 0, 64, 96
2, 58012, Control_c, 0, 64, 111
2, 58030, Control_c, 0, 64, 127
2, 58780, Note_on_c, 0, 78, 57
2, 58838, Note_on_c, 0, 77, 0
2, 58845, Note_on_c, 0, 58, 0
2, 58921, Note_on_c, 0, 65, 0
2, 58967, Note_on_c, 0, 77, 77
2, 58985, Note_on_c, 0, 61, 0
2, 59068, Note_on_c, 0, 78, 0
2, 59142, Note_on_c, 0, 75, 72
2, 59227, Note_on_c, 0, 77, 0
2, 59283, Note_on_c, 0, 58, 39
2, 59323, Note_on_c, 0, 73, 71
2, 59337, Control_c, 0, 64, 110
2, 59357, Control_c, 0, 64, 89
2, 59371, Note_on_c, 0, 61, 36
2, 59372, Note_on_c, 0, 75, 0
2, 59376, Control_c, 0, 64, 76
2, 59394, Control_c, 0, 64, 66
2, 59414, Control_c, 0, 64, 61
2, 59433, Control_c, 0, 64, 55
2, 59453, Control_c, 0, 64, 50
2, 59468, Note_on_c, 0, 65, 37
2, 59471, Control_c, 0, 64, 46
2, 59491, Control_c, 0, 64, 41
2, 59492, Note_on_c, 0, 72, 66
2, 59493, Note_on_c, 0, 73, 0
2, 59510, Control_c, 0, 64, 33
2, 59529, Control_c, 0, 64, 21
2, 59548, Control_c, 0, 64, 0
2, 59682, Note_on_c, 0, 70, 67
2, 59682, Note_on_c, 0, 72, 0
2, 59867, Note_on_c, 0, 68, 62
2, 59913, Note_on_c, 0, 70, 0
2, 60062, Note_on_c, 0, 66, 55
2, 60069, Note_on_c, 0, 68, 0
2, 60078, Note_on_c, 0, 65, 0
2, 60317, Control_c, 0, 64, 25
2, 60336, Control_c, 0, 64, 40
2, 60354, Control_c, 0, 64, 53
2, 60374, Control_c, 0, 64, 59
2, 60393, Control_c, 0, 64, 62
2, 60413, Control_c, 0, 64, 63
2, 60431, Control_c, 0, 64, 65
2, 60451, Control_c, 0, 64, 67
2, 60468, Note_on_c, 0, 61, 0
2, 60470, Control_c, 0, 64, 70
2, 60479, Note_on_c, 0, 58, 0
2, 60482, Note_on_c, 0, 68, 51
2, 60489, Control_c, 0, 64, 75
2, 60508, Control_c, 0, 64, 83
2, 60528, Control_c, 0, 64, 91
2, 60547, Control_c, 0, 64, 97
2, 60558, Note_on_c, 0, 66, 0
2, 60566, Control_c, 0, 64, 99
2, 60585, Control_c, 0, 64, 100
2, 60608, Note_on_c, 0, 68, 0
2, 60646, Note_on_c, 0, 65, 47
2, 60682, Control_c, 0, 64, 99
2, 60700, Control_c, 0, 64, 98
2, 60720, Control_c, 0, 64, 97
2, 60739, Control_c, 0, 64, 96
2, 60759, Control_c, 0, 64, 95
2, 60777, Control_c, 0, 64, 94
2, 60797, Control_c, 0, 64, 92
2, 60816, Control_c, 0, 64, 91
2, 60816, Note_on_c, 0, 51, 39
2, 60834, Control_c, 0, 64, 88
2, 60854, Control_c, 0, 64, 84
2, 60873, Control_c, 0, 64, 78
2, 60893, Control_c, 0, 64, 70
2, 60903, Note_on_c, 0, 65, 0
2, 60909, Note_on_c, 0, 58, 24
2, 60911, Control_c, 0, 64, 65
2, 60929, Control_c, 0, 64, 60
2, 60929, Note_on_c, 0, 63, 33
2, 60948, Control_c, 0, 64, 52
2, 60953, Note_on_c, 0, 66, 47
2, 60968, Control_c, 0, 64, 41
2, 60973, Note_on_c, 0, 61, 34
2, 60986, Control_c, 0, 64, 31
2, 61006, Control_c, 0, 64, 19
2, 61025, Control_c, 0, 64, 0
2, 61103, Note_on_c, 0, 63, 0
2, 61198, Control_c, 0, 64, 9
2, 61217, Control_c, 0, 64, 37
2, 61237, Control_c, 0, 64, 53
2, 61255, Control_c, 0, 64, 59
2, 61275, Control_c, 0, 64, 62
2, 61295, Control_c, 0, 64, 63
2, 61313, Control_c, 0, 64, 64
2, 61333, Control_c, 0, 64, 65
2, 61352, Control_c, 0, 64, 67
2, 61372, Control_c, 0, 64, 71
2, 61390, Control_c, 0, 64, 76
2, 61410, Control_c, 0, 64, 86
2, 61429, Control_c, 0, 64, 101
2, 61449, Control_c, 0, 64, 127
2, 61651, Note_on_c, 0, 66, 0
2, 62099, Note_on_c, 0, 58, 0
2, 62172, Note_on_c, 0, 51, 0
2, 62229, Note_on_c, 0, 70, 53
2, 62243, Note_on_c, 0, 61, 0
2, 62401, Note_on_c, 0, 73, 55
2, 62510, Note_on_c, 0, 51, 37
2, 62510, Note_on_c, 0, 70, 0
2, 62580, Control_c, 0, 64, 103
2, 62585, Note_on_c, 0, 58, 36
2, 62600, Control_c, 0, 64, 85
2, 62619, Control_c, 0, 64, 72
2, 62638, Control_c, 0, 64, 64
2, 62643, Note_on_c, 0, 78, 57
2, 62657, Control_c, 0, 64, 51
2, 62676, Control_c, 0, 64, 32
2, 62682, Note_on_c, 0, 60, 35
2, 62694, Note_on_c, 0, 73, 0
2, 62695, Control_c, 0, 64, 0
2, 62907, Control_c, 0, 64, 34
2, 62927, Control_c, 0, 64, 48
2, 62946, Control_c, 0, 64, 57
2, 62965, Control_c, 0, 64, 62
2, 62984, Control_c, 0, 64, 63
2, 63004, Control_c, 0, 64, 65
2, 63023, Control_c, 0, 64, 66
2, 63042, Control_c, 0, 64, 67
2, 63061, Control_c, 0, 64, 70
2, 63081, Control_c, 0, 64, 75
2, 63099, Control_c, 0, 64, 84
2, 63119, Control_c, 0, 64, 95
2, 63138, Control_c, 0, 64, 111
2, 63158, Control_c, 0, 64, 127
2, 63510, Note_on_c, 0, 60, 0
2, 63712, Note_on_c, 0, 51, 0
2, 63788, Note_on_c, 0, 58, 0
2, 63799, Note_on_c, 0, 77, 61
2, 63833, Note_on_c, 0, 78, 0
2, 64011, Note_on_c, 0, 75, 63
2, 64076, Note_on_c, 0, 77, 0
2, 64179, Note_on_c, 0, 73, 59
2, 64204, Note_on_c, 0, 75, 0
2, 64234, Note_on_c, 0, 51, 32
2, 64290, Control_c, 0, 64, 110
2, 64307, Note_on_c, 0, 58, 33
2, 64309, Control_c, 0, 64, 101
2, 64329, Control_c, 0, 64, 91
2, 64347, Control_c, 0, 64, 83
2, 64367, Control_c, 0, 64, 74
2, 64386, Control_c, 0, 64, 68
2, 64405, Control_c, 0, 64, 63
2, 64418, Note_on_c, 0, 60, 38
2, 64424, Control_c, 0, 64, 57
2, 64438, Note_on_c, 0, 73, 0
2, 64439, Note_on_c, 0, 72, 56
2, 64444, Control_c, 0, 64, 51
2, 64463, Control_c, 0, 64, 44
2, 64482, Control_c, 0, 64, 38
2, 64501, Control_c, 0, 64, 31
2, 64521, Control_c, 0, 64, 21
2, 64539, Control_c, 0, 64, 9
2, 64559, Control_c, 0, 64, 0
2, 65042, Note_on_c, 0, 72, 0
2, 65054, Note_on_c, 0, 75, 54
2, 65136, Note_on_c, 0, 73, 58
2, 65177, Note_on_c, 0, 75, 0
2, 65214, Note_on_c, 0, 72, 56
2, 65242, Note_on_c, 0, 73, 0
2, 65449, Note_on_c, 0, 73, 58
2, 65459, Note_on_c, 0, 72, 0
2, 65481, Control_c, 0, 64, 9
2, 65499, Control_c, 0, 64, 36
2, 65519, Control_c, 0, 64, 50
2, 65538, Control_c, 0, 64, 58
2, 65558, Control_c, 0, 64, 61
2, 65576, Control_c, 0, 64, 64
2, 65595, Control_c, 0, 64, 67
2, 65615, Control_c, 0, 64, 73
2, 65633, Control_c, 0, 64, 86
2, 65653, Control_c, 0, 64, 115
2, 65672, Control_c, 0, 64, 127
2, 65684, Note_on_c, 0, 75, 68
2, 65699, Note_on_c, 0, 51, 0
2, 65710, Note_on_c, 0, 73, 0
2, 65714, Note_on_c, 0, 58, 0
2, 65752, Note_on_c, 0, 60, 0
2, 66113, Note_on_c, 0, 51, 35
2, 66113, Note_on_c, 0, 57, 40
2, 66133, Control_c, 0, 64, 118
2, 66135, Note_on_c, 0, 60, 31
2, 66152, Control_c, 0, 64, 103
2, 66172, Control_c, 0, 64, 89
2, 66176, Note_on_c, 0, 65, 64
2, 66190, Control_c, 0, 64, 77
2, 66210, Control_c, 0, 64, 68
2, 66229, Control_c, 0, 64, 61
2, 66249, Control_c, 0, 64, 48
2, 66267, Control_c, 0, 64, 34
2, 66287, Control_c, 0, 64, 25
2, 66306, Control_c, 0, 64, 18
2, 66325, Control_c, 0, 64, 9
2, 66344, Control_c, 0, 64, 0
2, 66365, Note_on_c, 0, 75, 0
2, 66798, Note_on_c, 0, 67, 56
2, 66819, Note_on_c, 0, 65, 0
2, 67007, Note_on_c, 0, 69, 62
2, 67011, Note_on_c, 0, 67, 0
2, 67227, Control_c, 0, 64, 27
2, 67239, Note_on_c, 0, 69, 0
2, 67247, Control_c, 0, 64, 39
2, 67254, Note_on_c, 0, 70, 57
2, 67266, Control_c, 0, 64, 49
2, 67285, Control_c, 0, 64, 55
2, 67304, Control_c, 0, 64, 58
2, 67324, Control_c, 0, 64, 60
2, 67343, Control_c, 0, 64, 62
2, 67362, Control_c, 0, 64, 64
2, 67381, Control_c, 0, 64, 66
2, 67387, Note_on_c, 0, 70, 0
2, 67401, Control_c, 0, 64, 69
2, 67419, Control_c, 0, 64, 74
2, 67422, Note_on_c, 0, 69, 53
2, 67439, Control_c, 0, 64, 83
2, 67458, Control_c, 0, 64, 95
2, 67477, Control_c, 0, 64, 113
2, 67486, Note_on_c, 0, 69, 0
2, 67496, Control_c, 0, 64, 127
2, 67529, Note_on_c, 0, 70, 67
2, 67577, Note_on_c, 0, 70, 0
2, 67612, Note_on_c, 0, 69, 60
2, 67642, Note_on_c, 0, 60, 0
2, 67652, Note_on_c, 0, 69, 0
2, 67701, Note_on_c, 0, 70, 65
2, 67721, Note_on_c, 0, 57, 0
2, 67731, Note_on_c, 0, 70, 0
2, 67761, Note_on_c, 0, 69, 62
2, 67763, Note_on_c, 0, 51, 0
2, 67843, Note_on_c, 0, 69, 0
2, 67863, Note_on_c, 0, 67, 59
2, 67950, Note_on_c, 0, 67, 0
2, 67961, Note_on_c, 0, 69, 71
2, 68138, Note_on_c, 0, 49, 48
2, 68143, Note_on_c, 0, 58, 43
2, 68145, Note_on_c, 0, 53, 46
2, 68148, Control_c, 0, 64, 95
2, 68168, Control_c, 0, 64, 80
2, 68185, Note_on_c, 0, 70, 80
2, 68186, Control_c, 0, 64, 68
2, 68200, Note_on_c, 0, 69, 0
2, 68206, Control_c, 0, 64, 59
2, 68225, Control_c, 0, 64, 41
2, 68244, Control_c, 0, 64, 9
2, 68263, Control_c, 0, 64, 0
2, 68494, Control_c, 0, 64, 32
2, 68513, Control_c, 0, 64, 46
2, 68532, Control_c, 0, 64, 55
2, 68551, Control_c, 0, 64, 60
2, 68571, Control_c, 0, 64, 63
2, 68589, Control_c, 0, 64, 64
2, 68608, Control_c, 0, 64, 66
2, 68627, Control_c, 0, 64, 69
2, 68647, Control_c, 0, 64, 72
2, 68665, Control_c, 0, 64, 79
2, 68685, Control_c, 0, 64, 89
2, 68704, Control_c, 0, 64, 104
2, 68724, Control_c, 0, 64, 127
2, 69377, Note_on_c, 0, 58, 0
2, 69450, Note_on_c, 0, 65, 71
2, 69925, Note_on_c, 0, 51, 41
2, 69940, Note_on_c, 0, 58, 30
2, 69984, Note_on_c, 0, 53, 0
2, 69999, Note_on_c, 0, 66, 72
2, 70011, Control_c, 0, 64, 115
2, 70029, Control_c, 0, 64, 90
2, 70049, Control_c, 0, 64, 75
2, 70060, Note_on_c, 0, 65, 0
2, 70063, Note_on_c, 0, 49, 0
2, 70068, Control_c, 0, 64, 65
2, 70088, Control_c, 0, 64, 54
2, 70106, Control_c, 0, 64, 36
2, 70126, Control_c, 0, 64, 23
2, 70145, Control_c, 0, 64, 9
2, 70164, Control_c, 0, 64, 0
2, 71164, Note_on_c, 0, 63, 63
2, 71279, Note_on_c, 0, 66, 0
2, 71339, Note_on_c, 0, 58, 0
2, 71604, Control_c, 0, 64, 9
2, 71623, Control_c, 0, 64, 13
2, 71628, Note_on_c, 0, 53, 39
2, 71641, Note_on_c, 0, 60, 58
2, 71643, Control_c, 0, 64, 17
2, 71681, Control_c, 0, 64, 18
2, 71714, Note_on_c, 0, 63, 0
2, 71733, Note_on_c, 0, 51, 0
2, 71739, Control_c, 0, 64, 19
2, 71757, Control_c, 0, 64, 20
2, 71777, Control_c, 0, 64, 22
2, 71796, Control_c, 0, 64, 24
2, 71815, Control_c, 0, 64, 26
2, 71834, Control_c, 0, 64, 28
2, 71854, Control_c, 0, 64, 30
2, 71873, Control_c, 0, 64, 34
2, 71892, Control_c, 0, 64, 40
2, 71911, Control_c, 0, 64, 47
2, 71931, Control_c, 0, 64, 53
2, 71949, Control_c, 0, 64, 56
2, 71969, Control_c, 0, 64, 58
2, 71988, Control_c, 0, 64, 60
2, 72008, Control_c, 0, 64, 61
2, 72026, Control_c, 0, 64, 62
2, 72046, Control_c, 0, 64, 63
2, 72065, Control_c, 0, 64, 65
2, 72084, Control_c, 0, 64, 66
2, 72103, Control_c, 0, 64, 67
2, 72123, Control_c, 0, 64, 70
2, 72142, Control_c, 0, 64, 73
2, 72161, Control_c, 0, 64, 77
2, 72180, Control_c, 0, 64, 83
2, 72200, Control_c, 0, 64, 89
2, 72219, Control_c, 0, 64, 96
2, 72237, Control_c, 0, 64, 105
2, 72257, Control_c, 0, 64, 121
2, 72276, Control_c, 0, 64, 127
2, 72774, Note_on_c, 0, 60, 0
2, 72785, Note_on_c, 0, 61, 58
2, 73001, Note_on_c, 0, 60, 54
2, 73022, Note_on_c, 0, 61, 0
2, 73033, Note_on_c, 0, 53, 0
2, 73173, Note_on_c, 0, 61, 60
2, 73332, Note_on_c, 0, 60, 0
2, 73378, Note_on_c, 0, 41, 48
2, 73382, Note_on_c, 0, 63, 63
2, 73389, Control_c, 0, 64, 102
2, 73394, Note_on_c, 0, 53, 35
2, 73409, Control_c, 0, 64, 82
2, 73420, Note_on_c, 0, 61, 0
2, 73428, Control_c, 0, 64, 72
2, 73434, Note_on_c, 0, 70, 0
2, 73448, Control_c, 0, 64, 65
2, 73466, Control_c, 0, 64, 59
2, 73486, Control_c, 0, 64, 49
2, 73505, Control_c, 0, 64, 38
2, 73524, Control_c, 0, 64, 27
2, 73543, Control_c, 0, 64, 0
2, 73578, Note_on_c, 0, 61, 59
2, 73624, Note_on_c, 0, 63, 0
2, 73769, Note_on_c, 0, 60, 62
2, 73783, Note_on_c, 0, 61, 0
2, 73945, Note_on_c, 0, 61, 60
2, 74013, Note_on_c, 0, 60, 0
2, 74135, Note_on_c, 0, 63, 67
2, 74158, Control_c, 0, 64, 28
2, 74178, Control_c, 0, 64, 45
2, 74184, Note_on_c, 0, 61, 0
2, 74197, Control_c, 0, 64, 55
2, 74216, Control_c, 0, 64, 59
2, 74235, Control_c, 0, 64, 62
2, 74255, Control_c, 0, 64, 63
2, 74273, Control_c, 0, 64, 64
2, 74293, Control_c, 0, 64, 66
2, 74312, Control_c, 0, 64, 68
2, 74329, Note_on_c, 0, 65, 64
2, 74332, Control_c, 0, 64, 72
2, 74350, Control_c, 0, 64, 79
2, 74370, Control_c, 0, 64, 92
2, 74373, Note_on_c, 0, 63, 0
2, 74377, Note_on_c, 0, 41, 0
2, 74389, Control_c, 0, 64, 106
2, 74395, Note_on_c, 0, 53, 0
2, 74409, Control_c, 0, 64, 127
2, 74520, Note_on_c, 0, 63, 73
2, 74562, Note_on_c, 0, 65, 0
2, 74703, Note_on_c, 0, 65, 74
2, 74721, Note_on_c, 0, 63, 0
2, 74797, Note_on_c, 0, 65, 0
2, 74930, Note_on_c, 0, 41, 56
2, 74939, Note_on_c, 0, 53, 43
2, 75023, Control_c, 0, 64, 99
2, 75028, Note_on_c, 0, 66, 70
2, 75038, Note_on_c, 0, 69, 71
2, 75042, Control_c, 0, 64, 77
2, 75042, Note_on_c, 0, 60, 57
2, 75061, Control_c, 0, 64, 63
2, 75081, Control_c, 0, 64, 43
2, 75099, Control_c, 0, 64, 0
2, 75233, Control_c, 0, 64, 20
2, 75253, Control_c, 0, 64, 47
2, 75272, Control_c, 0, 64, 60
2, 75292, Control_c, 0, 64, 64
2, 75310, Control_c, 0, 64, 66
2, 75330, Control_c, 0, 64, 70
2, 75349, Control_c, 0, 64, 77
2, 75369, Control_c, 0, 64, 90
2, 75387, Control_c, 0, 64, 127
2, 75462, Note_on_c, 0, 60, 0
2, 75603, Note_on_c, 0, 66, 0
2, 75997, Note_on_c, 0, 65, 60
2, 75998, Note_on_c, 0, 69, 0
2, 76036, Note_on_c, 0, 65, 0
2, 76059, Control_c, 0, 64, 117
2, 76068, Note_on_c, 0, 66, 55
2, 76078, Control_c, 0, 64, 79
2, 76098, Control_c, 0, 64, 63
2, 76117, Control_c, 0, 64, 0
2, 76118, Note_on_c, 0, 66, 0
2, 76124, Note_on_c, 0, 65, 66
2, 76270, Control_c, 0, 64, 37
2, 76291, Control_c, 0, 64, 58
2, 76310, Control_c, 0, 64, 63
2, 76329, Control_c, 0, 64, 65
2, 76348, Control_c, 0, 64, 67
2, 76368, Control_c, 0, 64, 69
2, 76387, Control_c, 0, 64, 75
2, 76406, Control_c, 0, 64, 87
2, 76425, Control_c, 0, 64, 118
2, 76445, Control_c, 0, 64, 127
2, 76540, Note_on_c, 0, 41, 0
2, 76725, Note_on_c, 0, 53, 0
2, 76963, Note_on_c, 0, 63, 62
2, 77069, Note_on_c, 0, 63, 0
2, 77251, Note_on_c, 0, 46, 44
2, 77252, Note_on_c, 0, 53, 40
2, 77262, Note_on_c, 0, 58, 38
2, 77269, Control_c, 0, 64, 117
2, 77289, Control_c, 0, 64, 96
2, 77307, Control_c, 0, 64, 82
2, 77317, Note_on_c, 0, 70, 66
2, 77327, Control_c, 0, 64, 72
2, 77328, Note_on_c, 0, 61, 47
2, 77346, Control_c, 0, 64, 66
2, 77365, Control_c, 0, 64, 60
2, 77384, Control_c, 0, 64, 51
2, 77404, Control_c, 0, 64, 31
2, 77409, Note_on_c, 0, 65, 0
2, 77423, Control_c, 0, 64, 0
2, 77884, Control_c, 0, 64, 25
2, 77903, Control_c, 0, 64, 44
2, 77922, Control_c, 0, 64, 52
2, 77941, Control_c, 0, 64, 56
2, 77961, Control_c, 0, 64, 59
2, 77979, Control_c, 0, 64, 61
2, 77998, Control_c, 0, 64, 63
2, 78018, Control_c, 0, 64, 64
2, 78037, Control_c, 0, 64, 66
2, 78056, Control_c, 0, 64, 68
2, 78075, Control_c, 0, 64, 71
2, 78095, Control_c, 0, 64, 79
2, 78113, Control_c, 0, 64, 89
2, 78133, Control_c, 0, 64, 107
2, 78152, Control_c, 0, 64, 127
2, 78281, Note_on_c, 0, 61, 0
2, 78369, Note_on_c, 0, 70, 0
2, 78586, Note_on_c, 0, 72, 75
2, 78617, Note_on_c, 0, 63, 55
2, 78718, Note_on_c, 0, 63, 0
2, 78859, Note_on_c, 0, 72, 0
2, 78971, Note_on_c, 0, 65, 46
2, 79012, Note_on_c, 0, 70, 61
2, 79079, Note_on_c, 0, 73, 73
2, 79092, Control_c, 0, 64, 97
2, 79111, Control_c, 0, 64, 76
2, 79131, Control_c, 0, 64, 64
2, 79149, Control_c, 0, 64, 46
2, 79169, Control_c, 0, 64, 0
2, 79704, Note_on_c, 0, 58, 0
2, 79780, Note_on_c, 0, 53, 0
2, 79854, Note_on_c, 0, 46, 0
2, 80014, Control_c, 0, 64, 39
2, 80033, Control_c, 0, 64, 53
2, 80052, Control_c, 0, 64, 59
2, 80071, Control_c, 0, 64, 62
2, 80091, Control_c, 0, 64, 64
2, 80109, Control_c, 0, 64, 67
2, 80129, Control_c, 0, 64, 70
2, 80148, Control_c, 0, 64, 76
2, 80168, Control_c, 0, 64, 83
2, 80186, Control_c, 0, 64, 92
2, 80206, Control_c, 0, 64, 100
2, 80225, Control_c, 0, 64, 107
2, 80244, Control_c, 0, 64, 115
2, 80263, Control_c, 0, 64, 127
2, 80385, Note_on_c, 0, 46, 73
2, 80696, Note_on_c, 0, 73, 0
2, 80702, Note_on_c, 0, 65, 0
2, 80719, Note_on_c, 0, 70, 0
2, 80839, Control_c, 0, 64, 103
2, 80839, Note_on_c, 0, 73, 72
2, 80852, Note_on_c, 0, 49, 72
2, 80853, Note_on_c, 0, 65, 60
2, 80859, Control_c, 0, 64, 83
2, 80861, Note_on_c, 0, 70, 64
2, 80877, Control_c, 0, 64, 68
2, 80897, Control_c, 0, 64, 53
2, 80906, Note_on_c, 0, 46, 0
2, 80916, Control_c, 0, 64, 0
2, 81031, Control_c, 0, 64, 27
2, 81051, Control_c, 0, 64, 51
2, 81069, Control_c, 0, 64, 61
2, 81089, Control_c, 0, 64, 63
2, 81108, Control_c, 0, 64, 65
2, 81128, Control_c, 0, 64, 67
2, 81146, Control_c, 0, 64, 71
2, 81166, Control_c, 0, 64, 77
2, 81185, Control_c, 0, 64, 90
2, 81204, Control_c, 0, 64, 111
2, 81223, Control_c, 0, 64, 127
2, 81593, Note_on_c, 0, 65, 0
2, 81911, Note_on_c, 0, 70, 0
2, 81938, Note_on_c, 0, 73, 0
2, 82075, Note_on_c, 0, 53, 72
2, 82113, Note_on_c, 0, 49, 0
2, 82217, Note_on_c, 0, 53, 0
2, 82536, Note_on_c, 0, 73, 71
2, 82540, Note_on_c, 0, 70, 59
2, 82547, Note_on_c, 0, 64, 65
2, 82548, Control_c, 0, 64, 100
2, 82549, Note_on_c, 0, 43, 65
2, 82568, Control_c, 0, 64, 78
2, 82586, Control_c, 0, 64, 66
2, 82606, Control_c, 0, 64, 48
2, 82625, Control_c, 0, 64, 0
2, 82839, Control_c, 0, 64, 32
2, 82858, Control_c, 0, 64, 53
2, 82877, Control_c, 0, 64, 60
2, 82897, Control_c, 0, 64, 63
2, 82916, Control_c, 0, 64, 65
2, 82935, Control_c, 0, 64, 67
2, 82954, Control_c, 0, 64, 71
2, 82974, Control_c, 0, 64, 78
2, 82992, Control_c, 0, 64, 90
2, 83011, Control_c, 0, 64, 114
2, 83031, Control_c, 0, 64, 127
2, 83364, Note_on_c, 0, 64, 0
2, 83421, Note_on_c, 0, 70, 0
2, 83971, Note_on_c, 0, 71, 67
2, 84057, Note_on_c, 0, 73, 0
2, 84131, Note_on_c, 0, 71, 0
2, 84158, Note_on_c, 0, 70, 70
2, 84240, Note_on_c, 0, 70, 0
2, 84363, Note_on_c, 0, 73, 66
2, 84363, Note_on_c, 0, 76, 65
2, 84374, Control_c, 0, 64, 97
2, 84375, Note_on_c, 0, 70, 67
2, 84393, Control_c, 0, 64, 77
2, 84413, Control_c, 0, 64, 63
2, 84432, Control_c, 0, 64, 37
2, 84450, Control_c, 0, 64, 0
2, 84585, Control_c, 0, 64, 21
2, 84604, Control_c, 0, 64, 46
2, 84624, Control_c, 0, 64, 57
2, 84642, Control_c, 0, 64, 61
2, 84662, Control_c, 0, 64, 63
2, 84681, Control_c, 0, 64, 64
2, 84701, Control_c, 0, 64, 65
2, 84719, Control_c, 0, 64, 67
2, 84739, Control_c, 0, 64, 71
2, 84758, Control_c, 0, 64, 77
2, 84777, Control_c, 0, 64, 88
2, 84796, Control_c, 0, 64, 105
2, 84816, Control_c, 0, 64, 127
2, 85534, Note_on_c, 0, 46, 62
2, 85743, Note_on_c, 0, 44, 68
2, 85774, Note_on_c, 0, 46, 0
2, 85796, Note_on_c, 0, 43, 0
2, 85919, Note_on_c, 0, 43, 68
2, 85948, Control_c, 0, 64, 108
2, 85951, Note_on_c, 0, 44, 0
2, 85967, Control_c, 0, 64, 99
2, 85987, Control_c, 0, 64, 90
2, 86006, Control_c, 0, 64, 81
2, 86025, Control_c, 0, 64, 74
2, 86044, Control_c, 0, 64, 68
2, 86064, Control_c, 0, 64, 63
2, 86082, Control_c, 0, 64, 54
2, 86102, Control_c, 0, 64, 41
2, 86121, Control_c, 0, 64, 25
2, 86135, Note_on_c, 0, 49, 68
2, 86141, Control_c, 0, 64, 0
2, 86217, Note_on_c, 0, 43, 0
2, 86309, Note_on_c, 0, 73, 0
2, 86486, Control_c, 0, 64, 19
2, 86505, Control_c, 0, 64, 40
2, 86524, Control_c, 0, 64, 53
2, 86544, Control_c, 0, 64, 59
2, 86562, Control_c, 0, 64, 62
2, 86582, Control_c, 0, 64, 63
2, 86601, Control_c, 0, 64, 65
2, 86621, Control_c, 0, 64, 66
2, 86627, Note_on_c, 0, 70, 0
2, 86639, Control_c, 0, 64, 68
2, 86659, Control_c, 0, 64, 72
2, 86678, Control_c, 0, 64, 78
2, 86697, Control_c, 0, 64, 88
2, 86716, Control_c, 0, 64, 102
2, 86736, Control_c, 0, 64, 127
2, 87335, Note_on_c, 0, 75, 77
2, 87343, Note_on_c, 0, 76, 0
2, 87532, Note_on_c, 0, 73, 79
2, 87575, Note_on_c, 0, 75, 0
2, 87644, Note_on_c, 0, 73, 0
2, 87715, Control_c, 0, 64, 110
2, 87732, Note_on_c, 0, 79, 77
2, 87734, Control_c, 0, 64, 81
2, 87744, Note_on_c, 0, 70, 71
2, 87751, Note_on_c, 0, 73, 68
2, 87753, Control_c, 0, 64, 65
2, 87772, Control_c, 0, 64, 44
2, 87792, Control_c, 0, 64, 0
2, 87907, Control_c, 0, 64, 21
2, 87926, Control_c, 0, 64, 51
2, 87945, Control_c, 0, 64, 60
2, 87964, Control_c, 0, 64, 63
2, 87984, Control_c, 0, 64, 64
2, 88002, Control_c, 0, 64, 66
2, 88022, Control_c, 0, 64, 68
2, 88041, Control_c, 0, 64, 74
2, 88061, Control_c, 0, 64, 86
2, 88079, Control_c, 0, 64, 119
2, 88099, Control_c, 0, 64, 127
2, 88833, Note_on_c, 0, 47, 64
2, 88943, Note_on_c, 0, 49, 0
2, 89029, Note_on_c, 0, 46, 69
2, 89036, Note_on_c, 0, 47, 0
2, 89232, Control_c, 0, 64, 111
2, 89250, Control_c, 0, 64, 91
2, 89270, Control_c, 0, 64, 79
2, 89289, Control_c, 0, 64, 70
2, 89308, Control_c, 0, 64, 64
2, 89327, Control_c, 0, 64, 57
2, 89337, Note_on_c, 0, 52, 59
2, 89347, Control_c, 0, 64, 47
2, 89366, Control_c, 0, 64, 34
2, 89385, Control_c, 0, 64, 21
2, 89404, Control_c, 0, 64, 0
2, 89404, Note_on_c, 0, 46, 0
2, 89761, Note_on_c, 0, 51, 65
2, 89826, Note_on_c, 0, 52, 0
2, 90119, Note_on_c, 0, 52, 72
2, 90162, Note_on_c, 0, 51, 0
2, 90171, Note_on_c, 0, 70, 0
2, 90192, Control_c, 0, 64, 31
2, 90211, Control_c, 0, 64, 44
2, 90231, Control_c, 0, 64, 54
2, 90250, Control_c, 0, 64, 59
2, 90269, Control_c, 0, 64, 62
2, 90288, Control_c, 0, 64, 63
2, 90308, Control_c, 0, 64, 64
2, 90326, Control_c, 0, 64, 64
2, 90346, Control_c, 0, 64, 66
2, 90365, Control_c, 0, 64, 68
2, 90385, Control_c, 0, 64, 71
2, 90403, Control_c, 0, 64, 79
2, 90423, Control_c, 0, 64, 91
2, 90433, Note_on_c, 0, 49, 75
2, 90442, Control_c, 0, 64, 109
2, 90449, Note_on_c, 0, 77, 79
2, 90462, Control_c, 0, 64, 127
2, 90465, Note_on_c, 0, 79, 0
2, 90473, Note_on_c, 0, 52, 0
2, 90494, Note_on_c, 0, 73, 0
2, 90629, Note_on_c, 0, 75, 82
2, 90648, Note_on_c, 0, 77, 0
2, 90784, Note_on_c, 0, 75, 0
2, 90856, Note_on_c, 0, 47, 73
2, 90875, Note_on_c, 0, 49, 0
2, 90942, Control_c, 0, 64, 109
2, 90945, Note_on_c, 0, 75, 66
2, 90945, Note_on_c, 0, 80, 81
2, 90956, Note_on_c, 0, 71, 69
2, 90960, Control_c, 0, 64, 87
2, 90980, Control_c, 0, 64, 72
2, 90999, Control_c, 0, 64, 64
2, 91018, Control_c, 0, 64, 54
2, 91038, Control_c, 0, 64, 46
2, 91058, Control_c, 0, 64, 39
2, 91077, Control_c, 0, 64, 34
2, 91096, Control_c, 0, 64, 28
2, 91115, Control_c, 0, 64, 21
2, 91135, Control_c, 0, 64, 18
2, 91220, Note_on_c, 0, 46, 71
2, 91230, Control_c, 0, 64, 17
2, 91273, Note_on_c, 0, 47, 0
2, 91400, Note_on_c, 0, 44, 67
2, 91436, Note_on_c, 0, 46, 0
2, 91591, Note_on_c, 0, 46, 71
2, 91636, Note_on_c, 0, 44, 0
2, 91712, Note_on_c, 0, 71, 0
2, 91774, Note_on_c, 0, 47, 72
2, 91829, Note_on_c, 0, 75, 0
2, 91840, Note_on_c, 0, 46, 0
2, 91926, Note_on_c, 0, 44, 73
2, 91970, Note_on_c, 0, 47, 0
2, 92127, Note_on_c, 0, 46, 71
2, 92169, Control_c, 0, 64, 15
2, 92181, Note_on_c, 0, 44, 0
2, 92298, Note_on_c, 0, 47, 69
2, 92347, Note_on_c, 0, 46, 0
2, 92531, Note_on_c, 0, 40, 74
2, 92554, Note_on_c, 0, 47, 0
2, 92591, Control_c, 0, 64, 17
2, 92609, Control_c, 0, 64, 18
2, 92627, Control_c, 0, 64, 20
2, 92647, Control_c, 0, 64, 23
2, 92665, Control_c, 0, 64, 29
2, 92685, Control_c, 0, 64, 35
2, 92704, Control_c, 0, 64, 42
2, 92724, Control_c, 0, 64, 49
2, 92742, Control_c, 0, 64, 55
2, 92761, Control_c, 0, 64, 58
2, 92781, Control_c, 0, 64, 60
2, 92799, Control_c, 0, 64, 63
2, 92819, Control_c, 0, 64, 64
2, 92838, Control_c, 0, 64, 66
2, 92858, Control_c, 0, 64, 69
2, 92876, Control_c, 0, 64, 73
2, 92884, Note_on_c, 0, 80, 0
2, 92896, Control_c, 0, 64, 80
2, 92915, Control_c, 0, 64, 91
2, 92915, Note_on_c, 0, 79, 83
2, 92934, Control_c, 0, 64, 127
2, 93263, Note_on_c, 0, 80, 90
2, 93308, Note_on_c, 0, 40, 0
2, 93325, Note_on_c, 0, 79, 0
2, 93443, Note_on_c, 0, 52, 70
2, 93638, Note_on_c, 0, 51, 68
2, 93650, Note_on_c, 0, 52, 0
2, 93653, Note_on_c, 0, 82, 92
2, 93703, Note_on_c, 0, 80, 0
2, 93830, Note_on_c, 0, 49, 72
2, 93849, Note_on_c, 0, 51, 0
2, 94089, Note_on_c, 0, 51, 72
2, 94144, Control_c, 0, 64, 110
2, 94158, Note_on_c, 0, 49, 0
2, 94164, Control_c, 0, 64, 78
2, 94180, Note_on_c, 0, 83, 80
2, 94182, Control_c, 0, 64, 60
2, 94185, Note_on_c, 0, 79, 61
2, 94196, Note_on_c, 0, 75, 61
2, 94201, Control_c, 0, 64, 0
2, 94227, Note_on_c, 0, 82, 0
2, 94336, Control_c, 0, 64, 52
2, 94355, Control_c, 0, 64, 63
2, 94374, Control_c, 0, 64, 67
2, 94393, Control_c, 0, 64, 72
2, 94413, Control_c, 0, 64, 81
2, 94432, Control_c, 0, 64, 101
2, 94444, Note_on_c, 0, 82, 82
2, 94451, Control_c, 0, 64, 127
2, 94462, Note_on_c, 0, 83, 0
2, 94473, Note_on_c, 0, 79, 0
2, 94602, Note_on_c, 0, 83, 75
2, 94614, Note_on_c, 0, 82, 0
2, 94750, Note_on_c, 0, 83, 0
2, 94753, Note_on_c, 0, 82, 77
2, 94854, Note_on_c, 0, 82, 0
2, 94869, Note_on_c, 0, 83, 74
2, 94967, Note_on_c, 0, 83, 0
2, 94974, Note_on_c, 0, 82, 76
2, 95042, Note_on_c, 0, 82, 0
2, 95054, Note_on_c, 0, 83, 71
2, 95134, Note_on_c, 0, 83, 0
2, 95142, Note_on_c, 0, 82, 72
2, 95196, Note_on_c, 0, 82, 0
2, 95217, Note_on_c, 0, 83, 71
2, 95287, Note_on_c, 0, 83, 0
2, 95296, Note_on_c, 0, 82, 75
2, 95341, Note_on_c, 0, 82, 0
2, 95374, Note_on_c, 0, 83, 65
2, 95436, Note_on_c, 0, 83, 0
2, 95446, Note_on_c, 0, 82, 75
2, 95477, Note_on_c, 0, 49, 67
2, 95481, Note_on_c, 0, 82, 0
2, 95508, Note_on_c, 0, 83, 64
2, 95541, Note_on_c, 0, 51, 0
2, 95566, Note_on_c, 0, 75, 0
2, 95571, Note_on_c, 0, 82, 81
2, 95588, Note_on_c, 0, 83, 0
2, 95640, Note_on_c, 0, 82, 0
2, 95641, Note_on_c, 0, 83, 60
2, 95719, Note_on_c, 0, 82, 75
2, 95724, Note_on_c, 0, 83, 0
2, 95736, Control_c, 0, 64, 90
2, 95755, Control_c, 0, 64, 68
2, 95774, Control_c, 0, 64, 53
2, 95777, Note_on_c, 0, 73, 15
2, 95793, Note_on_c, 0, 51, 70
2, 95793, Note_on_c, 0, 82, 0
2, 95794, Control_c, 0, 64, 29
2, 95809, Note_on_c, 0, 83, 64
2, 95830, Control_c, 0, 64, 36
2, 95836, Note_on_c, 0, 49, 0
2, 95850, Control_c, 0, 64, 54
2, 95864, Note_on_c, 0, 82, 69
2, 95869, Control_c, 0, 64, 63
2, 95875, Note_on_c, 0, 83, 0
2, 95888, Control_c, 0, 64, 68
2, 95907, Control_c, 0, 64, 75
2, 95915, Note_on_c, 0, 82, 0
2, 95927, Control_c, 0, 64, 91
2, 95946, Control_c, 0, 64, 127
2, 95949, Note_on_c, 0, 83, 53
2, 95999, Note_on_c, 0, 82, 64
2, 96038, Note_on_c, 0, 82, 0
2, 96117, Note_on_c, 0, 82, 73
2, 96158, Note_on_c, 0, 82, 0
2, 96547, Note_on_c, 0, 80, 83
2, 96611, Note_on_c, 0, 83, 0
2, 96687, Note_on_c, 0, 73, 0
2, 96993, Note_on_c, 0, 39, 72
2, 97089, Note_on_c, 0, 51, 0
2, 97096, Note_on_c, 0, 80, 0
2, 97561, Note_on_c, 0, 44, 64
2, 97563, Note_on_c, 0, 80, 79
2, 97576, Note_on_c, 0, 75, 69
2, 97578, Control_c, 0, 64, 85
2, 97584, Note_on_c, 0, 71, 66
2, 97597, Control_c, 0, 64, 68
2, 97616, Control_c, 0, 64, 41
2, 97628, Note_on_c, 0, 39, 0
2, 97636, Control_c, 0, 64, 0
2, 97770, Control_c, 0, 64, 47
2, 97789, Control_c, 0, 64, 62
2, 97808, Control_c, 0, 64, 65
2, 97827, Control_c, 0, 64, 67
2, 97847, Control_c, 0, 64, 72
2, 97866, Control_c, 0, 64, 88
2, 97885, Control_c, 0, 64, 127
2, 97971, Note_on_c, 0, 71, 0
2, 98049, Note_on_c, 0, 44, 0
2, 98101, Note_on_c, 0, 75, 0
2, 98111, Note_on_c, 0, 80, 0
2, 98883, Control_c, 0, 64, 86
2, 98901, Control_c, 0, 64, 70
2, 98921, Control_c, 0, 64, 60
2, 98940, Control_c, 0, 64, 47
2, 98960, Control_c, 0, 64, 42
2, 98966, Note_on_c, 0, 83, 86
2, 98978, Control_c, 0, 64, 41
2, 98998, Control_c, 0, 64, 38
2, 99017, Control_c, 0, 64, 34
2, 99037, Control_c, 0, 64, 27
2, 99055, Control_c, 0, 64, 19
2, 99075, Control_c, 0, 64, 18
2, 99324, Control_c, 0, 64, 19
2, 99363, Control_c, 0, 64, 20
2, 99401, Control_c, 0, 64, 21
2, 99451, Note_on_c, 0, 77, 84
2, 99497, Control_c, 0, 64, 22
2, 99516, Note_on_c, 0, 83, 0
2, 99651, Control_c, 0, 64, 23
2, 99689, Control_c, 0, 64, 24
2, 99843, Control_c, 0, 64, 25
2, 99900, Control_c, 0, 64, 26
2, 99920, Control_c, 0, 64, 27
2, 99958, Control_c, 0, 64, 27
2, 100054, Control_c, 0, 64, 28
2, 100073, Control_c, 0, 64, 29
2, 100111, Control_c, 0, 64, 29
2, 100207, Control_c, 0, 64, 30
2, 100246, Control_c, 0, 64, 31
2, 100265, Control_c, 0, 64, 31
2, 100303, Control_c, 0, 64, 32
2, 100323, Control_c, 0, 64, 32
2, 100400, Control_c, 0, 64, 33
2, 100418, Control_c, 0, 64, 34
2, 100438, Control_c, 0, 64, 35
2, 100457, Control_c, 0, 64, 35
2, 100477, Control_c, 0, 64, 36
2, 100515, Control_c, 0, 64, 36
2, 100552, Control_c, 0, 64, 37
2, 100611, Control_c, 0, 64, 37
2, 100687, Control_c, 0, 64, 38
2, 100697, Note_on_c, 0, 59, 66
2, 100706, Control_c, 0, 64, 38
2, 100707, Note_on_c, 0, 78, 82
2, 100726, Control_c, 0, 64, 39
2, 100821, Control_c, 0, 64, 39
2, 100830, Note_on_c, 0, 77, 0
2, 100860, Control_c, 0, 64, 40
2, 100890, Note_on_c, 0, 80, 82
2, 100898, Control_c, 0, 64, 40
2, 100949, Note_on_c, 0, 78, 0
2, 101112, Note_on_c, 0, 53, 64
2, 101121, Note_on_c, 0, 74, 75
2, 101179, Note_on_c, 0, 59, 0
2, 101188, Note_on_c, 0, 80, 0
2, 101225, Control_c, 0, 64, 41
2, 101474, Control_c, 0, 64, 41
2, 101493, Control_c, 0, 64, 42
2, 101511, Control_c, 0, 64, 44
2, 101531, Control_c, 0, 64, 46
2, 101550, Control_c, 0, 64, 49
2, 101570, Control_c, 0, 64, 53
2, 101589, Control_c, 0, 64, 57
2, 101609, Control_c, 0, 64, 60
2, 101628, Control_c, 0, 64, 62
2, 101647, Control_c, 0, 64, 63
2, 101666, Control_c, 0, 64, 64
2, 101686, Control_c, 0, 64, 65
2, 101705, Control_c, 0, 64, 66
2, 101724, Control_c, 0, 64, 68
2, 101743, Control_c, 0, 64, 73
2, 101763, Control_c, 0, 64, 80
2, 101781, Control_c, 0, 64, 92
2, 101801, Control_c, 0, 64, 119
2, 101820, Control_c, 0, 64, 127
2, 102314, Note_on_c, 0, 75, 83
2, 102341, Note_on_c, 0, 54, 56
2, 102352, Note_on_c, 0, 74, 0
2, 102381, Note_on_c, 0, 53, 0
2, 102490, Note_on_c, 0, 77, 81
2, 102502, Note_on_c, 0, 56, 67
2, 102515, Note_on_c, 0, 54, 0
2, 102522, Note_on_c, 0, 75, 0
2, 102684, Control_c, 0, 64, 104
2, 102703, Control_c, 0, 64, 78
2, 102711, Note_on_c, 0, 50, 65
2, 102711, Note_on_c, 0, 70, 85
2, 102723, Control_c, 0, 64, 66
2, 102730, Note_on_c, 0, 56, 0
2, 102741, Control_c, 0, 64, 54
2, 102741, Note_on_c, 0, 77, 0
2, 102761, Control_c, 0, 64, 27
2, 102780, Control_c, 0, 64, 0
2, 102895, Control_c, 0, 64, 21
2, 102915, Control_c, 0, 64, 46
2, 102934, Control_c, 0, 64, 59
2, 102952, Control_c, 0, 64, 63
2, 102972, Control_c, 0, 64, 65
2, 102991, Control_c, 0, 64, 68
2, 103011, Control_c, 0, 64, 73
2, 103029, Control_c, 0, 64, 86
2, 103049, Control_c, 0, 64, 127
2, 103875, Note_on_c, 0, 51, 45
2, 103898, Note_on_c, 0, 80, 92
2, 103924, Note_on_c, 0, 50, 0
2, 104059, Note_on_c, 0, 51, 0
2, 104060, Note_on_c, 0, 53, 57
2, 104257, Note_on_c, 0, 53, 0
2, 104281, Note_on_c, 0, 46, 64
2, 104288, Note_on_c, 0, 74, 80
2, 104298, Control_c, 0, 64, 86
2, 104317, Control_c, 0, 64, 69
2, 104336, Control_c, 0, 64, 51
2, 104356, Control_c, 0, 64, 0
2, 104382, Note_on_c, 0, 80, 0
2, 104490, Control_c, 0, 64, 35
2, 104495, Note_on_c, 0, 70, 0
2, 104509, Control_c, 0, 64, 57
2, 104528, Control_c, 0, 64, 63
2, 104547, Control_c, 0, 64, 65
2, 104567, Control_c, 0, 64, 67
2, 104586, Control_c, 0, 64, 72
2, 104605, Control_c, 0, 64, 81
2, 104624, Control_c, 0, 64, 107
2, 104644, Control_c, 0, 64, 127
2, 105485, Note_on_c, 0, 75, 86
2, 105499, Note_on_c, 0, 56, 56
2, 105531, Note_on_c, 0, 74, 0
2, 105653, Note_on_c, 0, 77, 74
2, 105722, Note_on_c, 0, 75, 0
2, 105891, Control_c, 0, 64, 100
2, 105899, Note_on_c, 0, 70, 87
2, 105904, Note_on_c, 0, 50, 65
2, 105910, Control_c, 0, 64, 74
2, 105930, Control_c, 0, 64, 59
2, 105949, Control_c, 0, 64, 0
2, 105980, Note_on_c, 0, 77, 0
2, 106053, Note_on_c, 0, 56, 0
2, 106063, Control_c, 0, 64, 30
2, 106077, Note_on_c, 0, 46, 0
2, 106083, Control_c, 0, 64, 55
2, 106101, Control_c, 0, 64, 63
2, 106121, Control_c, 0, 64, 66
2, 106140, Control_c, 0, 64, 69
2, 106160, Control_c, 0, 64, 76
2, 106178, Control_c, 0, 64, 89
2, 106198, Control_c, 0, 64, 127
2, 107052, Note_on_c, 0, 72, 79
2, 107072, Note_on_c, 0, 50, 0
2, 107084, Note_on_c, 0, 51, 53
2, 107085, Note_on_c, 0, 70, 0
2, 107223, Note_on_c, 0, 51, 0
2, 107237, Note_on_c, 0, 74, 78
2, 107263, Note_on_c, 0, 53, 52
2, 107276, Note_on_c, 0, 72, 0
2, 107469, Control_c, 0, 64, 94
2, 107471, Note_on_c, 0, 42, 63
2, 107477, Note_on_c, 0, 75, 82
2, 107488, Control_c, 0, 64, 75
2, 107507, Control_c, 0, 64, 63
2, 107521, Note_on_c, 0, 53, 0
2, 107527, Control_c, 0, 64, 23
2, 107544, Note_on_c, 0, 74, 0
2, 107545, Control_c, 0, 64, 0
2, 107679, Control_c, 0, 64, 31
2, 107699, Control_c, 0, 64, 56
2, 107718, Control_c, 0, 64, 63
2, 107738, Control_c, 0, 64, 64
2, 107756, Control_c, 0, 64, 66
2, 107776, Control_c, 0, 64, 69
2, 107795, Control_c, 0, 64, 76
2, 107814, Control_c, 0, 64, 89
2, 107833, Control_c, 0, 64, 127
2, 108726, Note_on_c, 0, 73, 78
2, 108887, Note_on_c, 0, 42, 0
2, 108894, Note_on_c, 0, 71, 77
2, 108900, Note_on_c, 0, 75, 0
2, 108953, Note_on_c, 0, 73, 0
2, 109114, Note_on_c, 0, 73, 73
2, 109119, Control_c, 0, 64, 106
2, 109119, Note_on_c, 0, 43, 51
2, 109138, Control_c, 0, 64, 81
2, 109157, Control_c, 0, 64, 66
2, 109177, Control_c, 0, 64, 13
2, 109186, Note_on_c, 0, 71, 0
2, 109195, Control_c, 0, 64, 0
2, 109407, Control_c, 0, 64, 48
2, 109426, Control_c, 0, 64, 63
2, 109445, Control_c, 0, 64, 67
2, 109464, Control_c, 0, 64, 71
2, 109483, Control_c, 0, 64, 79
2, 109503, Control_c, 0, 64, 94
2, 109522, Control_c, 0, 64, 127
2, 109624, Note_on_c, 0, 43, 0
2, 110579, Note_on_c, 0, 58, 50
2, 110733, Note_on_c, 0, 73, 0
2, 110962, Control_c, 0, 64, 112
2, 110981, Control_c, 0, 64, 99
2, 111000, Control_c, 0, 64, 87
2, 111020, Control_c, 0, 64, 76
2, 111039, Control_c, 0, 64, 66
2, 111039, Note_on_c, 0, 73, 63
2, 111055, Note_on_c, 0, 55, 36
2, 111058, Control_c, 0, 64, 53
2, 111061, Note_on_c, 0, 63, 40
2, 111070, Note_on_c, 0, 58, 0
2, 111070, Note_on_c, 0, 70, 45
2, 111077, Control_c, 0, 64, 20
2, 111097, Control_c, 0, 64, 0
2, 111250, Control_c, 0, 64, 42
2, 111269, Control_c, 0, 64, 56
2, 111289, Control_c, 0, 64, 61
2, 111308, Control_c, 0, 64, 63
2, 111327, Control_c, 0, 64, 65
2, 111346, Control_c, 0, 64, 66
2, 111365, Control_c, 0, 64, 69
2, 111384, Control_c, 0, 64, 75
2, 111403, Control_c, 0, 64, 86
2, 111423, Control_c, 0, 64, 102
2, 111442, Control_c, 0, 64, 127
2, 111661, Note_on_c, 0, 63, 0
2, 111792, Note_on_c, 0, 73, 0
2, 112235, Note_on_c, 0, 70, 0
2, 112466, Note_on_c, 0, 51, 39
2, 112547, Note_on_c, 0, 55, 0
2, 112620, Note_on_c, 0, 51, 0
2, 113085, Note_on_c, 0, 44, 45
2, 113103, Note_on_c, 0, 73, 52
2, 113127, Note_on_c, 0, 63, 38
2, 113132, Control_c, 0, 64, 99
2, 113136, Note_on_c, 0, 70, 43
2, 113151, Control_c, 0, 64, 78
2, 113170, Control_c, 0, 64, 67
2, 113189, Control_c, 0, 64, 56
2, 113209, Control_c, 0, 64, 36
2, 113228, Control_c, 0, 64, 11
2, 113247, Control_c, 0, 64, 0
2, 113592, Control_c, 0, 64, 9
2, 113612, Control_c, 0, 64, 20
2, 113631, Control_c, 0, 64, 25
2, 113650, Control_c, 0, 64, 30
2, 113669, Control_c, 0, 64, 37
2, 113689, Control_c, 0, 64, 45
2, 113708, Control_c, 0, 64, 52
2, 113727, Control_c, 0, 64, 54
2, 113746, Control_c, 0, 64, 55
2, 113765, Control_c, 0, 64, 56
2, 113784, Control_c, 0, 64, 57
2, 113803, Control_c, 0, 64, 58
2, 113823, Control_c, 0, 64, 59
2, 113842, Control_c, 0, 64, 61
2, 113861, Control_c, 0, 64, 61
2, 113880, Control_c, 0, 64, 62
2, 113900, Control_c, 0, 64, 63
2, 113919, Control_c, 0, 64, 64
2, 113938, Control_c, 0, 64, 65
2, 113957, Control_c, 0, 64, 67
2, 113957, Note_on_c, 0, 70, 0
2, 113977, Control_c, 0, 64, 69
2, 113995, Control_c, 0, 64, 72
2, 114015, Control_c, 0, 64, 77
2, 114034, Control_c, 0, 64, 83
2, 114054, Control_c, 0, 64, 91
2, 114071, Control_c, 0, 64, 100
2, 114091, Control_c, 0, 64, 111
2, 114110, Control_c, 0, 64, 127
2, 114417, Note_on_c, 0, 71, 45
2, 114554, Note_on_c, 0, 71, 0
2, 114602, Note_on_c, 0, 70, 44
2, 114724, Control_c, 0, 64, 104
2, 114744, Control_c, 0, 64, 86
2, 114762, Control_c, 0, 64, 73
2, 114775, Note_on_c, 0, 70, 0
2, 114782, Control_c, 0, 64, 63
2, 114801, Control_c, 0, 64, 43
2, 114812, Note_on_c, 0, 71, 40
2, 114820, Control_c, 0, 64, 0
2, 114886, Note_on_c, 0, 63, 0
2, 114936, Control_c, 0, 64, 19
2, 114954, Control_c, 0, 64, 42
2, 114974, Control_c, 0, 64, 53
2, 114993, Control_c, 0, 64, 58
2, 115013, Control_c, 0, 64, 59
2, 115029, Note_on_c, 0, 73, 0
2, 115031, Control_c, 0, 64, 61
2, 115051, Control_c, 0, 64, 62
2, 115070, Control_c, 0, 64, 63
2, 115090, Control_c, 0, 64, 65
2, 115108, Control_c, 0, 64, 66
2, 115128, Control_c, 0, 64, 68
2, 115147, Control_c, 0, 64, 72
2, 115165, Control_c, 0, 64, 77
2, 115185, Control_c, 0, 64, 86
2, 115204, Control_c, 0, 64, 97
2, 115224, Control_c, 0, 64, 116
2, 115242, Control_c, 0, 64, 127
2, 115305, Note_on_c, 0, 44, 0
2, 116006, Note_on_c, 0, 59, 49
2, 116162, Note_on_c, 0, 71, 0
2, 116414, Control_c, 0, 64, 119
2, 116426, Note_on_c, 0, 56, 46
2, 116433, Control_c, 0, 64, 100
2, 116453, Control_c, 0, 64, 84
2, 116469, Note_on_c, 0, 63, 50
2, 116471, Control_c, 0, 64, 73
2, 116491, Control_c, 0, 64, 65
2, 116510, Control_c, 0, 64, 54
2, 116530, Control_c, 0, 64, 34
2, 116540, Note_on_c, 0, 59, 0
2, 116547, Note_on_c, 0, 68, 48
2, 116548, Control_c, 0, 64, 9
2, 116568, Control_c, 0, 64, 0
2, 116609, Note_on_c, 0, 71, 62
2, 116702, Control_c, 0, 64, 17
2, 116721, Control_c, 0, 64, 38
2, 116740, Control_c, 0, 64, 53
2, 116759, Control_c, 0, 64, 59
2, 116779, Control_c, 0, 64, 61
2, 116798, Control_c, 0, 64, 63
2, 116817, Control_c, 0, 64, 64
2, 116836, Control_c, 0, 64, 66
2, 116856, Control_c, 0, 64, 68
2, 116874, Control_c, 0, 64, 72
2, 116894, Control_c, 0, 64, 79
2, 116913, Control_c, 0, 64, 91
2, 116933, Control_c, 0, 64, 112
2, 116951, Control_c, 0, 64, 127
2, 117075, Note_on_c, 0, 63, 0
2, 117269, Note_on_c, 0, 68, 0
2, 117841, Note_on_c, 0, 71, 0
2, 117862, Note_on_c, 0, 53, 54
2, 118286, Note_on_c, 0, 50, 48
2, 118297, Control_c, 0, 64, 97
2, 118315, Control_c, 0, 64, 80
2, 118320, Note_on_c, 0, 65, 39
2, 118335, Control_c, 0, 64, 68
2, 118345, Note_on_c, 0, 53, 0
2, 118345, Note_on_c, 0, 56, 0
2, 118354, Control_c, 0, 64, 57
2, 118374, Control_c, 0, 64, 29
2, 118382, Note_on_c, 0, 68, 52
2, 118392, Control_c, 0, 64, 0
2, 118471, Note_on_c, 0, 71, 60
2, 118526, Note_on_c, 0, 68, 0
2, 118541, Control_c, 0, 64, 20
2, 118560, Control_c, 0, 64, 42
2, 118580, Control_c, 0, 64, 54
2, 118599, Control_c, 0, 64, 60
2, 118618, Control_c, 0, 64, 62
2, 118637, Control_c, 0, 64, 64
2, 118657, Control_c, 0, 64, 65
2, 118675, Control_c, 0, 64, 67
2, 118695, Control_c, 0, 64, 71
2, 118714, Control_c, 0, 64, 79
2, 118734, Control_c, 0, 64, 92
2, 118752, Control_c, 0, 64, 127
2, 118813, Note_on_c, 0, 65, 0
2, 119677, Note_on_c, 0, 50, 0
2, 119695, Note_on_c, 0, 70, 62
2, 119724, Note_on_c, 0, 71, 0
2, 119855, Note_on_c, 0, 70, 0
2, 119884, Note_on_c, 0, 68, 64
2, 120016, Note_on_c, 0, 50, 47
2, 120085, Note_on_c, 0, 53, 44
2, 120119, Control_c, 0, 64, 91
2, 120139, Control_c, 0, 64, 73
2, 120148, Note_on_c, 0, 77, 66
2, 120158, Control_c, 0, 64, 62
2, 120177, Control_c, 0, 64, 36
2, 120178, Note_on_c, 0, 58, 43
2, 120196, Control_c, 0, 64, 0
2, 120230, Note_on_c, 0, 68, 0
2, 120370, Control_c, 0, 64, 21
2, 120388, Control_c, 0, 64, 48
2, 120407, Control_c, 0, 64, 59
2, 120427, Control_c, 0, 64, 63
2, 120445, Control_c, 0, 64, 65
2, 120465, Control_c, 0, 64, 68
2, 120484, Control_c, 0, 64, 72
2, 120504, Control_c, 0, 64, 82
2, 120522, Control_c, 0, 64, 104
2, 120542, Control_c, 0, 64, 127
2, 121142, Note_on_c, 0, 50, 0
2, 121156, Note_on_c, 0, 58, 0
2, 121219, Note_on_c, 0, 53, 0
2, 121441, Note_on_c, 0, 71, 58
2, 121726, Note_on_c, 0, 50, 37
2, 121809, Note_on_c, 0, 53, 31
2, 121891, Note_on_c, 0, 71, 0
2, 121903, Control_c, 0, 64, 123
2, 121923, Control_c, 0, 64, 103
2, 121926, Note_on_c, 0, 58, 33
2, 121937, Note_on_c, 0, 70, 59
2, 121941, Control_c, 0, 64, 92
2, 121961, Control_c, 0, 64, 82
2, 121980, Control_c, 0, 64, 76
2, 122000, Control_c, 0, 64, 71
2, 122018, Control_c, 0, 64, 66
2, 122038, Control_c, 0, 64, 63
2, 122057, Control_c, 0, 64, 60
2, 122076, Control_c, 0, 64, 57
2, 122095, Control_c, 0, 64, 55
2, 122106, Note_on_c, 0, 70, 0
2, 122114, Control_c, 0, 64, 51
2, 122134, Control_c, 0, 64, 47
2, 122150, Note_on_c, 0, 71, 55
2, 122152, Control_c, 0, 64, 43
2, 122172, Control_c, 0, 64, 40
2, 122191, Control_c, 0, 64, 37
2, 122211, Control_c, 0, 64, 36
2, 122229, Control_c, 0, 64, 35
2, 122240, Note_on_c, 0, 71, 0
2, 122249, Control_c, 0, 64, 34
2, 122268, Control_c, 0, 64, 33
2, 122268, Note_on_c, 0, 70, 57
2, 122318, Note_on_c, 0, 70, 0
2, 122376, Note_on_c, 0, 71, 58
2, 122421, Note_on_c, 0, 71, 0
2, 122453, Note_on_c, 0, 70, 54
2, 122484, Note_on_c, 0, 70, 0
2, 122521, Note_on_c, 0, 71, 52
2, 122554, Note_on_c, 0, 71, 0
2, 122586, Note_on_c, 0, 70, 56
2, 122749, Control_c, 0, 64, 34
2, 122768, Control_c, 0, 64, 36
2, 122787, Control_c, 0, 64, 43
2, 122807, Control_c, 0, 64, 49
2, 122818, Note_on_c, 0, 77, 0
2, 122826, Control_c, 0, 64, 54
2, 122845, Control_c, 0, 64, 57
2, 122864, Control_c, 0, 64, 60
2, 122884, Control_c, 0, 64, 62
2, 122902, Control_c, 0, 64, 63
2, 122922, Control_c, 0, 64, 65
2, 122941, Control_c, 0, 64, 66
2, 122961, Control_c, 0, 64, 69
2, 122979, Control_c, 0, 64, 75
2, 122999, Control_c, 0, 64, 84
2, 123009, Note_on_c, 0, 50, 0
2, 123018, Control_c, 0, 64, 97
2, 123036, Control_c, 0, 64, 114
2, 123056, Control_c, 0, 64, 127
2, 123086, Note_on_c, 0, 70, 0
2, 123105, Note_on_c, 0, 53, 0
2, 123124, Note_on_c, 0, 71, 56
2, 123233, Note_on_c, 0, 58, 0
2, 123278, Note_on_c, 0, 71, 0
2, 123301, Note_on_c, 0, 68, 61
2, 123386, Note_on_c, 0, 51, 32
2, 123391, Note_on_c, 0, 68, 0
2, 123420, Control_c, 0, 64, 121
2, 123440, Control_c, 0, 64, 116
2, 123458, Control_c, 0, 64, 112
2, 123478, Control_c, 0, 64, 107
2, 123479, Note_on_c, 0, 54, 37
2, 123497, Control_c, 0, 64, 101
2, 123516, Control_c, 0, 64, 91
2, 123535, Control_c, 0, 64, 81
2, 123542, Note_on_c, 0, 58, 37
2, 123554, Control_c, 0, 64, 71
2, 123554, Note_on_c, 0, 68, 57
2, 123574, Control_c, 0, 64, 64
2, 123582, Note_on_c, 0, 63, 37
2, 123592, Control_c, 0, 64, 57
2, 123612, Control_c, 0, 64, 46
2, 123631, Control_c, 0, 64, 36
2, 123651, Control_c, 0, 64, 30
2, 123670, Control_c, 0, 64, 23
2, 123690, Control_c, 0, 64, 13
2, 123709, Control_c, 0, 64, 0
2, 123996, Note_on_c, 0, 68, 0
2, 124022, Note_on_c, 0, 66, 47
2, 124266, Control_c, 0, 64, 27
2, 124284, Control_c, 0, 64, 42
2, 124303, Control_c, 0, 64, 53
2, 124323, Control_c, 0, 64, 58
2, 124341, Control_c, 0, 64, 61
2, 124361, Control_c, 0, 64, 63
2, 124380, Control_c, 0, 64, 64
2, 124400, Control_c, 0, 64, 66
2, 124418, Control_c, 0, 64, 70
2, 124438, Control_c, 0, 64, 77
2, 124457, Control_c, 0, 64, 88
2, 124476, Control_c, 0, 64, 102
2, 124495, Control_c, 0, 64, 119
2, 124514, Control_c, 0, 64, 127
2, 124528, Note_on_c, 0, 51, 0
2, 124605, Note_on_c, 0, 58, 0
2, 124630, Note_on_c, 0, 54, 0
2, 124720, Note_on_c, 0, 63, 0
2, 125003, Note_on_c, 0, 51, 36
2, 125091, Control_c, 0, 64, 116
2, 125109, Control_c, 0, 64, 109
2, 125112, Note_on_c, 0, 54, 39
2, 125129, Control_c, 0, 64, 104
2, 125148, Control_c, 0, 64, 101
2, 125161, Note_on_c, 0, 58, 42
2, 125167, Control_c, 0, 64, 96
2, 125186, Control_c, 0, 64, 92
2, 125206, Control_c, 0, 64, 87
2, 125225, Control_c, 0, 64, 83
2, 125244, Control_c, 0, 64, 78
2, 125262, Control_c, 0, 64, 75
2, 125282, Control_c, 0, 64, 72
2, 125301, Control_c, 0, 64, 70
2, 125320, Control_c, 0, 64, 67
2, 125339, Control_c, 0, 64, 65
2, 125359, Control_c, 0, 64, 62
2, 125377, Control_c, 0, 64, 59
2, 125396, Control_c, 0, 64, 54
2, 125403, Note_on_c, 0, 63, 55
2, 125416, Control_c, 0, 64, 51
2, 125435, Control_c, 0, 64, 47
2, 125454, Control_c, 0, 64, 42
2, 125454, Note_on_c, 0, 66, 0
2, 125473, Control_c, 0, 64, 36
2, 125493, Control_c, 0, 64, 27
2, 125511, Control_c, 0, 64, 15
2, 125531, Control_c, 0, 64, 0
2, 125638, Note_on_c, 0, 65, 58
2, 125647, Note_on_c, 0, 63, 0
2, 125822, Note_on_c, 0, 66, 68
2, 125863, Note_on_c, 0, 65, 0
2, 126014, Note_on_c, 0, 68, 72
2, 126067, Note_on_c, 0, 66, 0
2, 126185, Control_c, 0, 64, 26
2, 126190, Note_on_c, 0, 70, 77
2, 126202, Note_on_c, 0, 68, 0
2, 126204, Control_c, 0, 64, 42
2, 126222, Control_c, 0, 64, 55
2, 126242, Control_c, 0, 64, 60
2, 126261, Control_c, 0, 64, 63
2, 126280, Control_c, 0, 64, 65
2, 126299, Control_c, 0, 64, 67
2, 126319, Control_c, 0, 64, 70
2, 126337, Control_c, 0, 64, 75
2, 126337, Note_on_c, 0, 70, 0
2, 126356, Control_c, 0, 64, 82
2, 126362, Note_on_c, 0, 51, 0
2, 126376, Control_c, 0, 64, 89
2, 126392, Note_on_c, 0, 72, 80
2, 126395, Control_c, 0, 64, 93
2, 126414, Control_c, 0, 64, 94
2, 126420, Note_on_c, 0, 54, 0
2, 126433, Control_c, 0, 64, 94
2, 126553, Note_on_c, 0, 74, 71
2, 126563, Note_on_c, 0, 58, 0
2, 126565, Note_on_c, 0, 51, 42
2, 126568, Control_c, 0, 64, 94
2, 126583, Note_on_c, 0, 72, 0
2, 126587, Control_c, 0, 64, 93
2, 126607, Control_c, 0, 64, 91
2, 126625, Control_c, 0, 64, 88
2, 126645, Control_c, 0, 64, 84
2, 126664, Control_c, 0, 64, 78
2, 126683, Control_c, 0, 64, 71
2, 126702, Control_c, 0, 64, 66
2, 126710, Note_on_c, 0, 54, 58
2, 126722, Control_c, 0, 64, 63
2, 126739, Note_on_c, 0, 75, 75
2, 126741, Control_c, 0, 64, 58
2, 126760, Control_c, 0, 64, 50
2, 126772, Note_on_c, 0, 58, 57
2, 126779, Control_c, 0, 64, 42
2, 126791, Note_on_c, 0, 74, 0
2, 126799, Control_c, 0, 64, 36
2, 126817, Control_c, 0, 64, 28
2, 126836, Control_c, 0, 64, 20
2, 126856, Control_c, 0, 64, 11
2, 126875, Control_c, 0, 64, 0
2, 126906, Note_on_c, 0, 75, 0
2, 126917, Note_on_c, 0, 77, 83
2, 127100, Note_on_c, 0, 78, 80
2, 127168, Note_on_c, 0, 77, 0
2, 127289, Note_on_c, 0, 80, 82
2, 127344, Note_on_c, 0, 78, 0
2, 127413, Control_c, 0, 64, 15
2, 127431, Control_c, 0, 64, 32
2, 127451, Control_c, 0, 64, 47
2, 127470, Control_c, 0, 64, 55
2, 127476, Note_on_c, 0, 78, 83
2, 127490, Control_c, 0, 64, 60
2, 127508, Control_c, 0, 64, 62
2, 127524, Note_on_c, 0, 80, 0
2, 127528, Control_c, 0, 64, 64
2, 127547, Control_c, 0, 64, 66
2, 127567, Control_c, 0, 64, 70
2, 127585, Control_c, 0, 64, 78
2, 127605, Control_c, 0, 64, 93
2, 127624, Control_c, 0, 64, 127
2, 127640, Note_on_c, 0, 58, 0
2, 127648, Note_on_c, 0, 78, 0
2, 127653, Note_on_c, 0, 51, 0
2, 127656, Note_on_c, 0, 77, 67
2, 127657, Note_on_c, 0, 76, 75
2, 127701, Note_on_c, 0, 54, 0
2, 127879, Note_on_c, 0, 77, 0
2, 127881, Note_on_c, 0, 78, 82
2, 127883, Note_on_c, 0, 76, 0
2, 128060, Note_on_c, 0, 75, 85
2, 128108, Note_on_c, 0, 78, 0
2, 128151, Note_on_c, 0, 75, 0
2, 128301, Note_on_c, 0, 44, 82
2, 128430, Control_c, 0, 64, 86
2, 128450, Control_c, 0, 64, 71
2, 128468, Control_c, 0, 64, 62
2, 128488, Control_c, 0, 64, 48
2, 128507, Control_c, 0, 64, 39
2, 128508, Note_on_c, 0, 47, 68
2, 128527, Control_c, 0, 64, 34
2, 128545, Control_c, 0, 64, 28
2, 128565, Control_c, 0, 64, 18
2, 128584, Control_c, 0, 64, 0
2, 128593, Note_on_c, 0, 52, 74
2, 128650, Note_on_c, 0, 64, 72
2, 128661, Note_on_c, 0, 56, 64
2, 128675, Note_on_c, 0, 68, 71
2, 128708, Note_on_c, 0, 71, 55
2, 128748, Note_on_c, 0, 76, 87
2, 128891, Control_c, 0, 64, 28
2, 128910, Control_c, 0, 64, 46
2, 128930, Control_c, 0, 64, 57
2, 128948, Control_c, 0, 64, 62
2, 128968, Control_c, 0, 64, 65
2, 128987, Control_c, 0, 64, 68
2, 129007, Control_c, 0, 64, 75
2, 129025, Control_c, 0, 64, 91
2, 129045, Control_c, 0, 64, 127
2, 129412, Note_on_c, 0, 64, 0
2, 129413, Note_on_c, 0, 76, 0
2, 129726, Note_on_c, 0, 68, 0
2, 129750, Note_on_c, 0, 71, 0
2, 130571, Note_on_c, 0, 71, 82
2, 130734, Note_on_c, 0, 69, 84
2, 130801, Note_on_c, 0, 71, 0
2, 130810, Control_c, 0, 64, 114
2, 130829, Control_c, 0, 64, 104
2, 130849, Control_c, 0, 64, 97
2, 130867, Control_c, 0, 64, 90
2, 130882, Note_on_c, 0, 68, 87
2, 130887, Control_c, 0, 64, 83
2, 130906, Control_c, 0, 64, 78
2, 130922, Note_on_c, 0, 69, 0
2, 130926, Control_c, 0, 64, 74
2, 130944, Control_c, 0, 64, 71
2, 130964, Control_c, 0, 64, 68
2, 130983, Control_c, 0, 64, 66
2, 131002, Control_c, 0, 64, 64
2, 131021, Control_c, 0, 64, 61
2, 131041, Control_c, 0, 64, 59
2, 131060, Control_c, 0, 64, 55
2, 131079, Control_c, 0, 64, 50
2, 131098, Control_c, 0, 64, 45
2, 131117, Control_c, 0, 64, 39
2, 131137, Control_c, 0, 64, 30
2, 131155, Control_c, 0, 64, 19
2, 131175, Control_c, 0, 64, 0
2, 131403, Note_on_c, 0, 56, 0
2, 131426, Note_on_c, 0, 47, 0
2, 131461, Note_on_c, 0, 52, 0
2, 131497, Note_on_c, 0, 44, 0
2, 132328, Note_on_c, 0, 69, 76
2, 132417, Note_on_c, 0, 68, 0
2, 132518, Note_on_c, 0, 71, 83
2, 132557, Note_on_c, 0, 69, 0
2, 132692, Note_on_c, 0, 64, 77
2, 132705, Note_on_c, 0, 71, 0
2, 134009, Note_on_c, 0, 66, 73
2, 134097, Note_on_c, 0, 64, 0
2, 134182, Note_on_c, 0, 68, 84
2, 134215, Note_on_c, 0, 66, 0
2, 134355, Note_on_c, 0, 62, 79
2, 134358, Note_on_c, 0, 53, 59
2, 134363, Note_on_c, 0, 58, 60
2, 134368, Note_on_c, 0, 44, 65
2, 134407, Note_on_c, 0, 68, 0
2, 134669, Control_c, 0, 64, 21
2, 134689, Control_c, 0, 64, 42
2, 134707, Control_c, 0, 64, 52
2, 134727, Control_c, 0, 64, 57
2, 134746, Control_c, 0, 64, 60
2, 134766, Control_c, 0, 64, 62
2, 134784, Control_c, 0, 64, 63
2, 134804, Control_c, 0, 64, 65
2, 134823, Control_c, 0, 64, 68
2, 134842, Control_c, 0, 64, 73
2, 134861, Control_c, 0, 64, 82
2, 134881, Control_c, 0, 64, 97
2, 134900, Control_c, 0, 64, 127
2, 135806, Note_on_c, 0, 65, 75
2, 135947, Note_on_c, 0, 62, 0
2, 135955, Note_on_c, 0, 68, 82
2, 136007, Note_on_c, 0, 65, 0
2, 136128, Note_on_c, 0, 71, 83
2, 136165, Note_on_c, 0, 68, 0
2, 136225, Control_c, 0, 64, 116
2, 136245, Control_c, 0, 64, 101
2, 136264, Control_c, 0, 64, 91
2, 136283, Control_c, 0, 64, 84
2, 136302, Control_c, 0, 64, 78
2, 136322, Control_c, 0, 64, 74
2, 136341, Control_c, 0, 64, 70
2, 136360, Control_c, 0, 64, 66
2, 136379, Control_c, 0, 64, 64
2, 136398, Control_c, 0, 64, 61
2, 136417, Control_c, 0, 64, 58
2, 136435, Note_on_c, 0, 58, 0
2, 136436, Control_c, 0, 64, 55
2, 136456, Control_c, 0, 64, 50
2, 136475, Control_c, 0, 64, 44
2, 136494, Control_c, 0, 64, 38
2, 136497, Note_on_c, 0, 53, 0
2, 136513, Control_c, 0, 64, 31
2, 136533, Control_c, 0, 64, 21
2, 136537, Note_on_c, 0, 44, 0
2, 136551, Control_c, 0, 64, 0
2, 137489, Note_on_c, 0, 70, 78
2, 137535, Note_on_c, 0, 71, 0
2, 137669, Note_on_c, 0, 68, 81
2, 137674, Note_on_c, 0, 70, 0
2, 137836, Note_on_c, 0, 77, 86
2, 137841, Note_on_c, 0, 68, 0
2, 138979, Note_on_c, 0, 75, 82
2, 139028, Control_c, 0, 64, 9
2, 139038, Note_on_c, 0, 77, 0
2, 139048, Control_c, 0, 64, 11
2, 139067, Control_c, 0, 64, 13
2, 139087, Control_c, 0, 64, 15
2, 139105, Control_c, 0, 64, 17
2, 139125, Control_c, 0, 64, 19
2, 139144, Control_c, 0, 64, 21
2, 139146, Note_on_c, 0, 75, 0
2, 139162, Note_on_c, 0, 74, 78
2, 139163, Control_c, 0, 64, 23
2, 139182, Control_c, 0, 64, 25
2, 139202, Control_c, 0, 64, 27
2, 139221, Control_c, 0, 64, 27
2, 139239, Control_c, 0, 64, 28
2, 139278, Control_c, 0, 64, 29
2, 139297, Control_c, 0, 64, 29
2, 139316, Control_c, 0, 64, 30
2, 139336, Control_c, 0, 64, 31
2, 139355, Control_c, 0, 64, 31
2, 139413, Control_c, 0, 64, 32
2, 139436, Note_on_c, 0, 83, 87
2, 139509, Note_on_c, 0, 74, 0
2, 139952, Note_on_c, 0, 81, 91
2, 140018, Note_on_c, 0, 83, 0
2, 140373, Control_c, 0, 64, 32
2, 140411, Control_c, 0, 64, 33
2, 140488, Control_c, 0, 64, 34
2, 140603, Control_c, 0, 64, 34
2, 140660, Control_c, 0, 64, 35
2, 140755, Control_c, 0, 64, 35
2, 140775, Control_c, 0, 64, 36
2, 140794, Control_c, 0, 64, 39
2, 140807, Note_on_c, 0, 82, 86
2, 140813, Control_c, 0, 64, 44
2, 140826, Note_on_c, 0, 81, 0
2, 140832, Control_c, 0, 64, 52
2, 140852, Control_c, 0, 64, 59
2, 140871, Control_c, 0, 64, 63
2, 140890, Control_c, 0, 64, 66
2, 140909, Control_c, 0, 64, 70
2, 140929, Control_c, 0, 64, 80
2, 140947, Control_c, 0, 64, 100
2, 140967, Control_c, 0, 64, 127
2, 141029, Note_on_c, 0, 82, 0
2, 141384, Note_on_c, 0, 75, 88
2, 141610, Note_on_c, 0, 70, 81
2, 141734, Note_on_c, 0, 66, 77
2, 141824, Note_on_c, 0, 58, 70
2, 141903, Note_on_c, 0, 54, 74
2, 141967, Note_on_c, 0, 51, 63
2, 142032, Note_on_c, 0, 46, 65
2, 142061, Control_c, 0, 64, 104
2, 142081, Control_c, 0, 64, 76
2, 142100, Control_c, 0, 64, 63
2, 142118, Control_c, 0, 64, 42
2, 142138, Control_c, 0, 64, 24
2, 142177, Control_c, 0, 64, 35
2, 142195, Control_c, 0, 64, 51
2, 142215, Control_c, 0, 64, 61
2, 142234, Control_c, 0, 64, 65
2, 142253, Control_c, 0, 64, 68
2, 142272, Control_c, 0, 64, 73
2, 142292, Control_c, 0, 64, 82
2, 142311, Control_c, 0, 64, 100
2, 142330, Control_c, 0, 64, 127
2, 142815, Note_on_c, 0, 46, 0
2, 142984, Note_on_c, 0, 58, 0
2, 143342, Note_on_c, 0, 46, 82
2, 143347, Note_on_c, 0, 66, 0
2, 143367, Control_c, 0, 64, 113
2, 143386, Control_c, 0, 64, 81
2, 143396, Note_on_c, 0, 51, 0
2, 143406, Control_c, 0, 64, 63
2, 143424, Control_c, 0, 64, 38
2, 143444, Control_c, 0, 64, 0
2, 143468, Note_on_c, 0, 54, 0
2, 143482, Control_c, 0, 64, 18
2, 143501, Control_c, 0, 64, 43
2, 143520, Control_c, 0, 64, 59
2, 143540, Control_c, 0, 64, 64
2, 143558, Control_c, 0, 64, 67
2, 143578, Control_c, 0, 64, 70
2, 143597, Control_c, 0, 64, 77
2, 143617, Control_c, 0, 64, 91
2, 143635, Control_c, 0, 64, 127
2, 143660, Note_on_c, 0, 70, 0
2, 143693, Note_on_c, 0, 53, 71
2, 143828, Note_on_c, 0, 56, 77
2, 143834, Note_on_c, 0, 46, 0
2, 143897, Note_on_c, 0, 58, 65
2, 143923, Note_on_c, 0, 75, 0
2, 143979, Note_on_c, 0, 65, 65
2, 144026, Note_on_c, 0, 70, 78
2, 144112, Note_on_c, 0, 74, 81
2, 144468, Note_on_c, 0, 74, 0
2, 144512, Note_on_c, 0, 58, 0
2, 145130, Note_on_c, 0, 56, 0
2, 145311, Note_on_c, 0, 53, 0
2, 145648, Note_on_c, 0, 75, 73
2, 145808, Note_on_c, 0, 65, 0
2, 145901, Note_on_c, 0, 70, 0
2, 146511, Note_on_c, 0, 75, 0
2, 147007, Note_on_c, 0, 47, 43
2, 147024, Note_on_c, 0, 59, 38
2, 147028, Note_on_c, 0, 75, 49
2, 147033, Control_c, 0, 64, 92
2, 147038, Note_on_c, 0, 70, 44
2, 147049, Note_on_c, 0, 63, 31
2, 147052, Control_c, 0, 64, 76
2, 147071, Control_c, 0, 64, 64
2, 147091, Control_c, 0, 64, 49
2, 147110, Control_c, 0, 64, 15
2, 147129, Control_c, 0, 64, 0
2, 147359, Control_c, 0, 64, 42
2, 147379, Control_c, 0, 64, 57
2, 147397, Control_c, 0, 64, 62
2, 147417, Control_c, 0, 64, 64
2, 147436, Control_c, 0, 64, 65
2, 147456, Control_c, 0, 64, 67
2, 147474, Control_c, 0, 64, 70
2, 147494, Control_c, 0, 64, 75
2, 147513, Control_c, 0, 64, 85
2, 147532, Control_c, 0, 64, 103
2, 147551, Control_c, 0, 64, 127
2, 147705, Note_on_c, 0, 47, 0
2, 147786, Note_on_c, 0, 59, 0
2, 147900, Note_on_c, 0, 63, 0
2, 148430, Note_on_c, 0, 68, 51
2, 148549, Note_on_c, 0, 70, 0
2, 148699, Note_on_c, 0, 67, 47
2, 148707, Note_on_c, 0, 68, 0
2, 148909, Note_on_c, 0, 67, 0
2, 148916, Note_on_c, 0, 68, 49
2, 149167, Note_on_c, 0, 59, 48
2, 149178, Note_on_c, 0, 63, 41
2, 149183, Control_c, 0, 64, 87
2, 149196, Note_on_c, 0, 68, 0
2, 149203, Control_c, 0, 64, 69
2, 149220, Note_on_c, 0, 70, 49
2, 149222, Control_c, 0, 64, 55
2, 149241, Control_c, 0, 64, 0
2, 149337, Control_c, 0, 64, 37
2, 149356, Control_c, 0, 64, 58
2, 149376, Control_c, 0, 64, 63
2, 149394, Control_c, 0, 64, 66
2, 149394, Note_on_c, 0, 70, 0
2, 149414, Control_c, 0, 64, 68
2, 149433, Control_c, 0, 64, 73
2, 149438, Note_on_c, 0, 68, 45
2, 149452, Control_c, 0, 64, 84
2, 149471, Control_c, 0, 64, 107
2, 149491, Control_c, 0, 64, 127
2, 149517, Note_on_c, 0, 68, 0
2, 149542, Note_on_c, 0, 59, 0
2, 149596, Note_on_c, 0, 70, 37
2, 149597, Note_on_c, 0, 63, 0
2, 149665, Note_on_c, 0, 70, 0
2, 149703, Note_on_c, 0, 68, 40
2, 149744, Note_on_c, 0, 68, 0
2, 149813, Note_on_c, 0, 70, 47
2, 149857, Note_on_c, 0, 70, 0
2, 149880, Note_on_c, 0, 68, 48
2, 149926, Note_on_c, 0, 68, 0
2, 149975, Note_on_c, 0, 70, 55
2, 150020, Note_on_c, 0, 70, 0
2, 150052, Note_on_c, 0, 68, 54
2, 150084, Note_on_c, 0, 68, 0
2, 150136, Note_on_c, 0, 70, 51
2, 150178, Note_on_c, 0, 70, 0
2, 150200, Note_on_c, 0, 68, 52
2, 150240, Note_on_c, 0, 68, 0
2, 150290, Note_on_c, 0, 70, 55
2, 150331, Note_on_c, 0, 70, 0
2, 150363, Note_on_c, 0, 68, 55
2, 150396, Note_on_c, 0, 68, 0
2, 150439, Note_on_c, 0, 70, 54
2, 150480, Note_on_c, 0, 70, 0
2, 150514, Note_on_c, 0, 68, 52
2, 150551, Note_on_c, 0, 68, 0
2, 150591, Note_on_c, 0, 63, 45
2, 150591, Note_on_c, 0, 70, 55
2, 150592, Note_on_c, 0, 59, 45
2, 150636, Note_on_c, 0, 70, 0
2, 150673, Note_on_c, 0, 68, 54
2, 150712, Note_on_c, 0, 68, 0
2, 150751, Note_on_c, 0, 70, 53
2, 150791, Note_on_c, 0, 70, 0
2, 150826, Note_on_c, 0, 68, 60
2, 150862, Note_on_c, 0, 68, 0
2, 150897, Note_on_c, 0, 70, 64
2, 150937, Note_on_c, 0, 70, 0
2, 150971, Note_on_c, 0, 68, 50
2, 150998, Note_on_c, 0, 68, 0
2, 151022, Note_on_c, 0, 70, 58
2, 151054, Note_on_c, 0, 70, 0
2, 151067, Note_on_c, 0, 68, 50
2, 151331, Note_on_c, 0, 59, 0
2, 151355, Note_on_c, 0, 63, 0
2, 151567, Note_on_c, 0, 68, 0
2, 151612, Note_on_c, 0, 67, 48
2, 151740, Note_on_c, 0, 67, 0
2, 151753, Note_on_c, 0, 68, 57
2, 151968, Control_c, 0, 64, 102
2, 151968, Note_on_c, 0, 55, 37
2, 151984, Note_on_c, 0, 58, 38
2, 151987, Control_c, 0, 64, 82
2, 151987, Note_on_c, 0, 63, 39
2, 151987, Note_on_c, 0, 70, 58
2, 152003, Note_on_c, 0, 68, 0
2, 152006, Control_c, 0, 64, 68
2, 152025, Control_c, 0, 64, 58
2, 152045, Control_c, 0, 64, 27
2, 152063, Control_c, 0, 64, 0
2, 152217, Control_c, 0, 64, 36
2, 152236, Control_c, 0, 64, 56
2, 152256, Control_c, 0, 64, 62
2, 152274, Control_c, 0, 64, 64
2, 152294, Control_c, 0, 64, 65
2, 152313, Control_c, 0, 64, 66
2, 152323, Note_on_c, 0, 75, 0
2, 152332, Control_c, 0, 64, 69
2, 152351, Control_c, 0, 64, 75
2, 152371, Control_c, 0, 64, 86
2, 152390, Control_c, 0, 64, 107
2, 152409, Control_c, 0, 64, 127
2, 152702, Note_on_c, 0, 63, 0
2, 152733, Note_on_c, 0, 58, 0
2, 152767, Note_on_c, 0, 55, 0
2, 153486, Control_c, 0, 64, 106
2, 153504, Control_c, 0, 64, 89
2, 153504, Note_on_c, 0, 55, 31
2, 153508, Note_on_c, 0, 63, 32
2, 153519, Note_on_c, 0, 58, 27
2, 153524, Control_c, 0, 64, 75
2, 153543, Control_c, 0, 64, 66
2, 153561, Control_c, 0, 64, 57
2, 153581, Control_c, 0, 64, 27
2, 153600, Control_c, 0, 64, 0
2, 153754, Control_c, 0, 64, 31
2, 153773, Control_c, 0, 64, 52
2, 153792, Control_c, 0, 64, 60
2, 153812, Control_c, 0, 64, 63
2, 153831, Control_c, 0, 64, 64
2, 153850, Control_c, 0, 64, 66
2, 153869, Control_c, 0, 64, 69
2, 153889, Control_c, 0, 64, 75
2, 153907, Control_c, 0, 64, 87
2, 153927, Control_c, 0, 64, 119
2, 153946, Control_c, 0, 64, 127
2, 154449, Note_on_c, 0, 63, 0
2, 154459, Note_on_c, 0, 58, 0
2, 154488, Note_on_c, 0, 55, 0
2, 154573, Note_on_c, 0, 75, 58
2, 154619, Note_on_c, 0, 70, 0
2, 154860, Note_on_c, 0, 73, 65
2, 154959, Note_on_c, 0, 75, 0
2, 155037, Note_on_c, 0, 71, 62
2, 155047, Note_on_c, 0, 73, 0
2, 155195, Control_c, 0, 64, 94
2, 155214, Control_c, 0, 64, 78
2, 155233, Control_c, 0, 64, 68
2, 155248, Note_on_c, 0, 55, 30
2, 155253, Control_c, 0, 64, 61
2, 155264, Note_on_c, 0, 63, 24
2, 155267, Note_on_c, 0, 58, 24
2, 155272, Control_c, 0, 64, 52
2, 155280, Note_on_c, 0, 73, 54
2, 155293, Control_c, 0, 64, 41
2, 155313, Control_c, 0, 64, 29
2, 155332, Control_c, 0, 64, 9
2, 155336, Note_on_c, 0, 71, 0
2, 155351, Control_c, 0, 64, 0
2, 155601, Control_c, 0, 64, 37
2, 155620, Control_c, 0, 64, 54
2, 155639, Control_c, 0, 64, 61
2, 155659, Control_c, 0, 64, 63
2, 155678, Control_c, 0, 64, 64
2, 155697, Control_c, 0, 64, 66
2, 155716, Control_c, 0, 64, 67
2, 155736, Control_c, 0, 64, 70
2, 155755, Control_c, 0, 64, 75
2, 155773, Control_c, 0, 64, 83
2, 155793, Control_c, 0, 64, 99
2, 155812, Control_c, 0, 64, 127
2, 156433, Note_on_c, 0, 63, 0
2, 156562, Note_on_c, 0, 70, 61
2, 156714, Note_on_c, 0, 58, 0
2, 156795, Note_on_c, 0, 70, 0
2, 156898, Note_on_c, 0, 56, 33
2, 156931, Note_on_c, 0, 59, 34
2, 156970, Note_on_c, 0, 73, 0
2, 157019, Note_on_c, 0, 55, 0
2, 157071, Note_on_c, 0, 70, 56
2, 157075, Note_on_c, 0, 63, 33
2, 157079, Note_on_c, 0, 68, 42
2, 157097, Control_c, 0, 64, 90
2, 157116, Control_c, 0, 64, 74
2, 157134, Control_c, 0, 64, 65
2, 157154, Control_c, 0, 64, 58
2, 157173, Control_c, 0, 64, 52
2, 157193, Control_c, 0, 64, 47
2, 157211, Control_c, 0, 64, 41
2, 157231, Control_c, 0, 64, 32
2, 157250, Control_c, 0, 64, 17
2, 157270, Control_c, 0, 64, 0
2, 157460, Note_on_c, 0, 71, 49
2, 157494, Note_on_c, 0, 70, 0
2, 158677, Note_on_c, 0, 52, 40
2, 158792, Note_on_c, 0, 56, 0
2, 158805, Control_c, 0, 64, 22
2, 158825, Control_c, 0, 64, 42
2, 158844, Control_c, 0, 64, 52
2, 158863, Control_c, 0, 64, 57
2, 158882, Control_c, 0, 64, 59
2, 158902, Control_c, 0, 64, 61
2, 158913, Note_on_c, 0, 68, 0
2, 158920, Control_c, 0, 64, 63
2, 158938, Note_on_c, 0, 59, 0
2, 158940, Control_c, 0, 64, 64
2, 158959, Control_c, 0, 64, 65
2, 158979, Control_c, 0, 64, 67
2, 158997, Control_c, 0, 64, 69
2, 159017, Control_c, 0, 64, 73
2, 159036, Control_c, 0, 64, 80
2, 159054, Control_c, 0, 64, 90
2, 159074, Control_c, 0, 64, 102
2, 159093, Control_c, 0, 64, 127
2, 159265, Note_on_c, 0, 71, 0
2, 159279, Note_on_c, 0, 63, 0
2, 159663, Note_on_c, 0, 71, 57
2, 159693, Note_on_c, 0, 63, 37
2, 159723, Note_on_c, 0, 71, 0
2, 159737, Note_on_c, 0, 63, 0
2, 159782, Note_on_c, 0, 52, 0
2, 159865, Note_on_c, 0, 70, 58
2, 159877, Note_on_c, 0, 61, 60
2, 159925, Note_on_c, 0, 61, 0
2, 159940, Note_on_c, 0, 70, 0
2, 160054, Note_on_c, 0, 68, 57
2, 160077, Note_on_c, 0, 59, 46
2, 160157, Note_on_c, 0, 59, 0
2, 160270, Note_on_c, 0, 52, 44
2, 160279, Note_on_c, 0, 68, 0
2, 160283, Control_c, 0, 64, 113
2, 160302, Control_c, 0, 64, 87
2, 160303, Note_on_c, 0, 70, 54
2, 160305, Note_on_c, 0, 61, 45
2, 160321, Control_c, 0, 64, 70
2, 160341, Control_c, 0, 64, 61
2, 160360, Control_c, 0, 64, 41
2, 160379, Control_c, 0, 64, 0
2, 160590, Control_c, 0, 64, 31
2, 160609, Control_c, 0, 64, 54
2, 160629, Control_c, 0, 64, 61
2, 160647, Control_c, 0, 64, 64
2, 160667, Control_c, 0, 64, 65
2, 160686, Control_c, 0, 64, 67
2, 160705, Control_c, 0, 64, 69
2, 160724, Control_c, 0, 64, 72
2, 160744, Control_c, 0, 64, 79
2, 160763, Control_c, 0, 64, 89
2, 160782, Control_c, 0, 64, 103
2, 160801, Control_c, 0, 64, 127
2, 161054, Note_on_c, 0, 61, 0
2, 161463, Note_on_c, 0, 67, 49
2, 161501, Note_on_c, 0, 70, 0
2, 161502, Note_on_c, 0, 58, 28
2, 161603, Note_on_c, 0, 67, 0
2, 161665, Note_on_c, 0, 58, 0
2, 161966, Note_on_c, 0, 53, 39
2, 161972, Control_c, 0, 64, 115
2, 161987, Note_on_c, 0, 68, 42
2, 161988, Note_on_c, 0, 52, 0
2, 161992, Control_c, 0, 64, 85
2, 161995, Note_on_c, 0, 59, 36
2, 162005, Note_on_c, 0, 62, 34
2, 162010, Control_c, 0, 64, 70
2, 162030, Control_c, 0, 64, 61
2, 162049, Control_c, 0, 64, 44
2, 162069, Control_c, 0, 64, 20
2, 162087, Control_c, 0, 64, 0
2, 162261, Control_c, 0, 64, 41
2, 162280, Control_c, 0, 64, 56
2, 162299, Control_c, 0, 64, 61
2, 162318, Control_c, 0, 64, 63
2, 162338, Control_c, 0, 64, 64
2, 162356, Control_c, 0, 64, 66
2, 162375, Control_c, 0, 64, 68
2, 162395, Control_c, 0, 64, 71
2, 162414, Control_c, 0, 64, 76
2, 162433, Control_c, 0, 64, 84
2, 162452, Control_c, 0, 64, 94
2, 162472, Control_c, 0, 64, 105
2, 162490, Control_c, 0, 64, 119
2, 162510, Control_c, 0, 64, 127
2, 162855, Note_on_c, 0, 68, 0
2, 162863, Note_on_c, 0, 59, 0
2, 162913, Note_on_c, 0, 62, 0
2, 163547, Control_c, 0, 64, 117
2, 163566, Control_c, 0, 64, 89
2, 163585, Control_c, 0, 64, 72
2, 163586, Note_on_c, 0, 68, 42
2, 163599, Note_on_c, 0, 59, 19
2, 163604, Control_c, 0, 64, 61
2, 163614, Note_on_c, 0, 62, 23
2, 163624, Control_c, 0, 64, 34
2, 163643, Control_c, 0, 64, 11
2, 163662, Control_c, 0, 64, 0
2, 163739, Control_c, 0, 64, 15
2, 163758, Control_c, 0, 64, 35
2, 163778, Control_c, 0, 64, 48
2, 163796, Control_c, 0, 64, 58
2, 163815, Control_c, 0, 64, 62
2, 163835, Control_c, 0, 64, 63
2, 163854, Control_c, 0, 64, 65
2, 163873, Control_c, 0, 64, 66
2, 163892, Control_c, 0, 64, 68
2, 163912, Control_c, 0, 64, 70
2, 163930, Control_c, 0, 64, 75
2, 163950, Control_c, 0, 64, 83
2, 163969, Control_c, 0, 64, 93
2, 163990, Control_c, 0, 64, 105
2, 164008, Control_c, 0, 64, 127
2, 164694, Note_on_c, 0, 53, 0
2, 164701, Note_on_c, 0, 54, 43
2, 164805, Note_on_c, 0, 62, 0
2, 164809, Note_on_c, 0, 68, 0
2, 164864, Note_on_c, 0, 59, 0
2, 164941, Note_on_c, 0, 53, 49
2, 165067, Note_on_c, 0, 54, 0
2, 165085, Note_on_c, 0, 53, 0
2, 165110, Note_on_c, 0, 51, 52
2, 165277, Control_c, 0, 64, 119
2, 165295, Control_c, 0, 64, 95
2, 165314, Note_on_c, 0, 51, 0
2, 165315, Control_c, 0, 64, 80
2, 165334, Control_c, 0, 64, 69
2, 165334, Note_on_c, 0, 53, 43
2, 165354, Control_c, 0, 64, 63
2, 165362, Note_on_c, 0, 68, 35
2, 165366, Note_on_c, 0, 59, 12
2, 165372, Control_c, 0, 64, 56
2, 165372, Note_on_c, 0, 62, 23
2, 165392, Control_c, 0, 64, 48
2, 165411, Control_c, 0, 64, 43
2, 165430, Control_c, 0, 64, 36
2, 165449, Control_c, 0, 64, 26
2, 165469, Control_c, 0, 64, 0
2, 165939, Note_on_c, 0, 53, 0
2, 165945, Note_on_c, 0, 54, 46
2, 166140, Note_on_c, 0, 54, 0
2, 166148, Note_on_c, 0, 56, 49
2, 166338, Note_on_c, 0, 53, 48
2, 166357, Note_on_c, 0, 56, 0
2, 166531, Note_on_c, 0, 53, 0
2, 166535, Note_on_c, 0, 54, 58
2, 166553, Note_on_c, 0, 68, 0
2, 166652, Note_on_c, 0, 62, 0
2, 166714, Note_on_c, 0, 56, 55
2, 166720, Note_on_c, 0, 54, 0
2, 166742, Note_on_c, 0, 59, 0
2, 166908, Note_on_c, 0, 56, 0
2, 166932, Note_on_c, 0, 50, 38
2, 166935, Note_on_c, 0, 68, 48
2, 166962, Note_on_c, 0, 65, 31
2, 167099, Control_c, 0, 64, 18
2, 167118, Control_c, 0, 64, 31
2, 167138, Control_c, 0, 64, 42
2, 167156, Control_c, 0, 64, 51
2, 167175, Control_c, 0, 64, 56
2, 167195, Control_c, 0, 64, 60
2, 167214, Control_c, 0, 64, 62
2, 167233, Control_c, 0, 64, 63
2, 167252, Control_c, 0, 64, 64
2, 167272, Control_c, 0, 64, 65
2, 167290, Control_c, 0, 64, 66
2, 167310, Control_c, 0, 64, 68
2, 167329, Control_c, 0, 64, 70
2, 167349, Control_c, 0, 64, 75
2, 167367, Control_c, 0, 64, 82
2, 167387, Control_c, 0, 64, 91
2, 167406, Control_c, 0, 64, 103
2, 167425, Control_c, 0, 64, 127
2, 167567, Note_on_c, 0, 68, 0
2, 167650, Note_on_c, 0, 65, 0
2, 168424, Control_c, 0, 64, 102
2, 168442, Control_c, 0, 64, 79
2, 168462, Control_c, 0, 64, 68
2, 168478, Note_on_c, 0, 68, 34
2, 168481, Control_c, 0, 64, 60
2, 168486, Note_on_c, 0, 59, 21
2, 168498, Note_on_c, 0, 65, 17
2, 168501, Control_c, 0, 64, 51
2, 168520, Control_c, 0, 64, 42
2, 168539, Control_c, 0, 64, 36
2, 168558, Control_c, 0, 64, 34
2, 168596, Control_c, 0, 64, 39
2, 168615, Control_c, 0, 64, 51
2, 168635, Control_c, 0, 64, 60
2, 168654, Control_c, 0, 64, 63
2, 168673, Control_c, 0, 64, 65
2, 168692, Control_c, 0, 64, 66
2, 168712, Control_c, 0, 64, 69
2, 168730, Control_c, 0, 64, 72
2, 168750, Control_c, 0, 64, 78
2, 168769, Control_c, 0, 64, 86
2, 168790, Control_c, 0, 64, 97
2, 168808, Control_c, 0, 64, 113
2, 168828, Control_c, 0, 64, 127
2, 169432, Note_on_c, 0, 50, 0
2, 169446, Note_on_c, 0, 51, 43
2, 169622, Note_on_c, 0, 68, 0
2, 169684, Note_on_c, 0, 51, 0
2, 169704, Note_on_c, 0, 65, 0
2, 169709, Note_on_c, 0, 50, 44
2, 169757, Note_on_c, 0, 59, 0
2, 169854, Note_on_c, 0, 50, 0
2, 169871, Note_on_c, 0, 48, 49
2, 169998, Control_c, 0, 64, 123
2, 170018, Control_c, 0, 64, 110
2, 170036, Control_c, 0, 64, 97
2, 170055, Control_c, 0, 64, 85
2, 170075, Control_c, 0, 64, 74
2, 170084, Note_on_c, 0, 48, 0
2, 170094, Control_c, 0, 64, 66
2, 170110, Note_on_c, 0, 50, 47
2, 170113, Control_c, 0, 64, 60
2, 170113, Note_on_c, 0, 59, 36
2, 170131, Note_on_c, 0, 65, 29
2, 170132, Control_c, 0, 64, 53
2, 170132, Note_on_c, 0, 68, 40
2, 170152, Control_c, 0, 64, 46
2, 170170, Control_c, 0, 64, 43
2, 170190, Control_c, 0, 64, 38
2, 170209, Control_c, 0, 64, 31
2, 170229, Control_c, 0, 64, 17
2, 170247, Control_c, 0, 64, 0
2, 170700, Note_on_c, 0, 50, 0
2, 170700, Note_on_c, 0, 51, 44
2, 170871, Note_on_c, 0, 51, 0
2, 170892, Note_on_c, 0, 53, 48
2, 171084, Note_on_c, 0, 50, 49
2, 171100, Note_on_c, 0, 53, 0
2, 171120, Note_on_c, 0, 65, 0
2, 171130, Note_on_c, 0, 68, 0
2, 171143, Note_on_c, 0, 59, 0
2, 171265, Note_on_c, 0, 51, 44
2, 171282, Note_on_c, 0, 50, 0
2, 171414, Note_on_c, 0, 51, 0
2, 171424, Note_on_c, 0, 53, 40
2, 171649, Note_on_c, 0, 65, 32
2, 171651, Note_on_c, 0, 62, 29
2, 171651, Note_on_c, 0, 68, 41
2, 171654, Note_on_c, 0, 47, 38
2, 171654, Note_on_c, 0, 53, 0
2, 171745, Control_c, 0, 64, 30
2, 171764, Control_c, 0, 64, 44
2, 171784, Control_c, 0, 64, 54
2, 171803, Control_c, 0, 64, 58
2, 171822, Control_c, 0, 64, 61
2, 171841, Control_c, 0, 64, 62
2, 171861, Control_c, 0, 64, 64
2, 171880, Control_c, 0, 64, 65
2, 171899, Control_c, 0, 64, 67
2, 171918, Control_c, 0, 64, 70
2, 171938, Control_c, 0, 64, 77
2, 171956, Control_c, 0, 64, 89
2, 171975, Control_c, 0, 64, 108
2, 171995, Control_c, 0, 64, 127
2, 172232, Note_on_c, 0, 62, 0
2, 172320, Note_on_c, 0, 68, 0
2, 172414, Note_on_c, 0, 65, 0
2, 173110, Control_c, 0, 64, 116
2, 173128, Control_c, 0, 64, 104
2, 173143, Note_on_c, 0, 62, 33
2, 173148, Control_c, 0, 64, 95
2, 173151, Note_on_c, 0, 65, 40
2, 173153, Note_on_c, 0, 68, 42
2, 173167, Control_c, 0, 64, 87
2, 173186, Control_c, 0, 64, 80
2, 173205, Control_c, 0, 64, 75
2, 173225, Control_c, 0, 64, 70
2, 173244, Control_c, 0, 64, 64
2, 173261, Control_c, 0, 64, 60
2, 173280, Control_c, 0, 64, 55
2, 173300, Control_c, 0, 64, 51
2, 173319, Control_c, 0, 64, 47
2, 173337, Control_c, 0, 64, 44
2, 173357, Control_c, 0, 64, 40
2, 173376, Control_c, 0, 64, 35
2, 173395, Control_c, 0, 64, 28
2, 173414, Control_c, 0, 64, 25
2, 173434, Control_c, 0, 64, 23
2, 173453, Control_c, 0, 64, 21
2, 173472, Control_c, 0, 64, 20
2, 173491, Control_c, 0, 64, 19
2, 173960, Note_on_c, 0, 49, 52
2, 173990, Note_on_c, 0, 47, 0
2, 174221, Control_c, 0, 64, 21
2, 174240, Control_c, 0, 64, 27
2, 174260, Control_c, 0, 64, 33
2, 174279, Control_c, 0, 64, 39
2, 174290, Note_on_c, 0, 47, 54
2, 174297, Control_c, 0, 64, 44
2, 174317, Control_c, 0, 64, 48
2, 174323, Note_on_c, 0, 49, 0
2, 174336, Control_c, 0, 64, 52
2, 174355, Control_c, 0, 64, 56
2, 174374, Control_c, 0, 64, 57
2, 174394, Control_c, 0, 64, 58
2, 174413, Control_c, 0, 64, 59
2, 174471, Control_c, 0, 64, 59
2, 174537, Note_on_c, 0, 46, 65
2, 174544, Note_on_c, 0, 47, 0
2, 174551, Note_on_c, 0, 68, 0
2, 174566, Control_c, 0, 64, 59
2, 174616, Note_on_c, 0, 65, 0
2, 174630, Note_on_c, 0, 62, 0
2, 174643, Control_c, 0, 64, 58
2, 174740, Control_c, 0, 64, 58
2, 174767, Note_on_c, 0, 68, 56
2, 174770, Note_on_c, 0, 62, 55
2, 174773, Note_on_c, 0, 47, 68
2, 174774, Note_on_c, 0, 46, 0
2, 174776, Note_on_c, 0, 65, 49
2, 174777, Control_c, 0, 64, 57
2, 174816, Control_c, 0, 64, 57
2, 174874, Control_c, 0, 64, 56
2, 174893, Control_c, 0, 64, 56
2, 174912, Control_c, 0, 64, 55
2, 174931, Control_c, 0, 64, 55
2, 174970, Control_c, 0, 64, 54
2, 174989, Control_c, 0, 64, 53
2, 175000, Note_on_c, 0, 46, 69
2, 175008, Control_c, 0, 64, 53
2, 175028, Control_c, 0, 64, 52
2, 175046, Control_c, 0, 64, 50
2, 175056, Note_on_c, 0, 47, 0
2, 175066, Control_c, 0, 64, 47
2, 175085, Control_c, 0, 64, 43
2, 175105, Control_c, 0, 64, 36
2, 175123, Control_c, 0, 64, 23
2, 175143, Control_c, 0, 64, 0
2, 175171, Note_on_c, 0, 44, 74
2, 175203, Note_on_c, 0, 46, 0
2, 175363, Note_on_c, 0, 46, 71
2, 175404, Note_on_c, 0, 44, 0
2, 175540, Note_on_c, 0, 47, 75
2, 175602, Note_on_c, 0, 46, 0
2, 175606, Note_on_c, 0, 62, 0
2, 175739, Note_on_c, 0, 44, 75
2, 175775, Note_on_c, 0, 65, 0
2, 175792, Note_on_c, 0, 47, 0
2, 175937, Note_on_c, 0, 46, 75
2, 176011, Note_on_c, 0, 44, 0
2, 176111, Note_on_c, 0, 68, 0
2, 176113, Note_on_c, 0, 47, 78
2, 176176, Note_on_c, 0, 46, 0
2, 176363, Note_on_c, 0, 62, 59
2, 176364, Note_on_c, 0, 38, 68
2, 176421, Note_on_c, 0, 47, 0
2, 176426, Note_on_c, 0, 65, 64
2, 176450, Control_c, 0, 64, 11
2, 176471, Control_c, 0, 64, 17
2, 176471, Note_on_c, 0, 68, 71
2, 176489, Control_c, 0, 64, 20
2, 176508, Control_c, 0, 64, 24
2, 176528, Control_c, 0, 64, 27
2, 176536, Note_on_c, 0, 62, 0
2, 176547, Control_c, 0, 64, 31
2, 176553, Note_on_c, 0, 71, 86
2, 176563, Note_on_c, 0, 65, 0
2, 176566, Control_c, 0, 64, 34
2, 176585, Control_c, 0, 64, 36
2, 176605, Control_c, 0, 64, 39
2, 176606, Note_on_c, 0, 68, 0
2, 176623, Control_c, 0, 64, 43
2, 176643, Control_c, 0, 64, 46
2, 176662, Control_c, 0, 64, 49
2, 176682, Control_c, 0, 64, 51
2, 176700, Control_c, 0, 64, 52
2, 176720, Control_c, 0, 64, 53
2, 176739, Control_c, 0, 64, 54
2, 176758, Control_c, 0, 64, 55
2, 176777, Control_c, 0, 64, 57
2, 176797, Control_c, 0, 64, 59
2, 176816, Control_c, 0, 64, 60
2, 176835, Control_c, 0, 64, 62
2, 176854, Control_c, 0, 64, 63
2, 176874, Control_c, 0, 64, 64
2, 176893, Control_c, 0, 64, 65
2, 176912, Control_c, 0, 64, 67
2, 176931, Control_c, 0, 64, 71
2, 176951, Control_c, 0, 64, 79
2, 176969, Control_c, 0, 64, 98
2, 176988, Control_c, 0, 64, 127
2, 177176, Note_on_c, 0, 38, 0
2, 177871, Control_c, 0, 64, 112
2, 177890, Control_c, 0, 64, 105
2, 177909, Control_c, 0, 64, 99
2, 177928, Control_c, 0, 64, 93
2, 177947, Control_c, 0, 64, 87
2, 177967, Control_c, 0, 64, 83
2, 177986, Control_c, 0, 64, 78
2, 178005, Control_c, 0, 64, 74
2, 178024, Control_c, 0, 64, 70
2, 178044, Control_c, 0, 64, 68
2, 178062, Control_c, 0, 64, 66
2, 178082, Control_c, 0, 64, 64
2, 178101, Control_c, 0, 64, 63
2, 178121, Control_c, 0, 64, 62
2, 178139, Control_c, 0, 64, 60
2, 178159, Control_c, 0, 64, 58
2, 178178, Control_c, 0, 64, 56
2, 178198, Control_c, 0, 64, 52
2, 178216, Control_c, 0, 64, 48
2, 178236, Control_c, 0, 64, 44
2, 178255, Control_c, 0, 64, 39
2, 178274, Control_c, 0, 64, 33
2, 178293, Control_c, 0, 64, 28
2, 178313, Control_c, 0, 64, 22
2, 178332, Control_c, 0, 64, 13
2, 178351, Control_c, 0, 64, 0
2, 178538, Note_on_c, 0, 70, 62
2, 178879, Note_on_c, 0, 71, 0
2, 178916, Note_on_c, 0, 68, 70
2, 179004, Control_c, 0, 64, 9
2, 179008, Note_on_c, 0, 70, 0
2, 179022, Control_c, 0, 64, 11
2, 179061, Control_c, 0, 64, 13
2, 179099, Control_c, 0, 64, 15
2, 179119, Control_c, 0, 64, 17
2, 179138, Control_c, 0, 64, 19
2, 179158, Control_c, 0, 64, 20
2, 179176, Control_c, 0, 64, 21
2, 179183, Note_on_c, 0, 66, 77
2, 179215, Control_c, 0, 64, 22
2, 179225, Note_on_c, 0, 68, 0
2, 179253, Control_c, 0, 64, 23
2, 179273, Control_c, 0, 64, 24
2, 179292, Control_c, 0, 64, 25
2, 179311, Control_c, 0, 64, 26
2, 179349, Control_c, 0, 64, 27
2, 179401, Note_on_c, 0, 65, 71
2, 179408, Note_on_c, 0, 66, 0
2, 179445, Control_c, 0, 64, 27
2, 179575, Note_on_c, 0, 65, 0
2, 179593, Note_on_c, 0, 63, 76
2, 179618, Control_c, 0, 64, 28
2, 179768, Note_on_c, 0, 62, 72
2, 179789, Note_on_c, 0, 63, 0
2, 179938, Note_on_c, 0, 65, 75
2, 179968, Note_on_c, 0, 62, 0
2, 180041, Control_c, 0, 64, 29
2, 180118, Control_c, 0, 64, 29
2, 180128, Note_on_c, 0, 68, 78
2, 180136, Control_c, 0, 64, 30
2, 180156, Control_c, 0, 64, 31
2, 180168, Note_on_c, 0, 65, 0
2, 180233, Control_c, 0, 64, 31
2, 180287, Note_on_c, 0, 71, 81
2, 180307, Note_on_c, 0, 68, 0
2, 180347, Control_c, 0, 64, 32
2, 180424, Control_c, 0, 64, 32
2, 180449, Note_on_c, 0, 71, 0
2, 180494, Note_on_c, 0, 74, 83
2, 180694, Note_on_c, 0, 77, 87
2, 180741, Note_on_c, 0, 74, 0
2, 180935, Note_on_c, 0, 80, 90
2, 180987, Note_on_c, 0, 77, 0
2, 181278, Note_on_c, 0, 83, 87
2, 181307, Control_c, 0, 64, 33
2, 181315, Note_on_c, 0, 80, 0
2, 181540, Note_on_c, 0, 82, 84
2, 181578, Note_on_c, 0, 83, 0
2, 181596, Control_c, 0, 64, 34
2, 181692, Control_c, 0, 64, 34
2, 181749, Control_c, 0, 64, 35
2, 181750, Note_on_c, 0, 82, 0
2, 181752, Note_on_c, 0, 74, 80
2, 181768, Control_c, 0, 64, 35
2, 181807, Control_c, 0, 64, 36
2, 181864, Control_c, 0, 64, 36
2, 181903, Control_c, 0, 64, 37
2, 181962, Control_c, 0, 64, 37
2, 182026, Note_on_c, 0, 75, 84
2, 182070, Note_on_c, 0, 74, 0
2, 182154, Control_c, 0, 64, 39
2, 182173, Control_c, 0, 64, 43
2, 182192, Control_c, 0, 64, 49
2, 182211, Control_c, 0, 64, 55
2, 182230, Control_c, 0, 64, 60
2, 182249, Control_c, 0, 64, 63
2, 182268, Control_c, 0, 64, 65
2, 182288, Control_c, 0, 64, 67
2, 182307, Control_c, 0, 64, 70
2, 182326, Control_c, 0, 64, 80
2, 182345, Control_c, 0, 64, 97
2, 182365, Control_c, 0, 64, 127
2, 182649, Note_on_c, 0, 75, 0
2, 183247, Control_c, 0, 64, 91
2, 183266, Control_c, 0, 64, 67
2, 183267, Note_on_c, 0, 39, 64
2, 183277, Note_on_c, 0, 51, 52
2, 183285, Control_c, 0, 64, 21
2, 183291, Note_on_c, 0, 70, 80
2, 183292, Note_on_c, 0, 66, 74
2, 183304, Control_c, 0, 64, 0
2, 183362, Control_c, 0, 64, 18
2, 183381, Control_c, 0, 64, 55
2, 183401, Control_c, 0, 64, 66
2, 183419, Control_c, 0, 64, 77
2, 183439, Control_c, 0, 64, 127
2, 183451, Note_on_c, 0, 39, 0
2, 183494, Note_on_c, 0, 70, 0
2, 183529, Note_on_c, 0, 66, 0
2, 183530, Note_on_c, 0, 51, 0
2, 183779, Note_on_c, 0, 51, 47
2, 183789, Note_on_c, 0, 46, 53
2, 183808, Note_on_c, 0, 54, 56
2, 183841, Note_on_c, 0, 63, 72
2, 183841, Note_on_c, 0, 68, 77
2, 183884, Control_c, 0, 64, 113
2, 183902, Control_c, 0, 64, 80
2, 183921, Control_c, 0, 64, 64
2, 183941, Control_c, 0, 64, 18
2, 183960, Control_c, 0, 64, 0
2, 184126, Note_on_c, 0, 66, 77
2, 184185, Note_on_c, 0, 68, 0
2, 184383, Control_c, 0, 64, 25
2, 184402, Control_c, 0, 64, 50
2, 184422, Control_c, 0, 64, 60
2, 184440, Control_c, 0, 64, 64
2, 184460, Control_c, 0, 64, 67
2, 184479, Control_c, 0, 64, 70
2, 184499, Control_c, 0, 64, 76
2, 184517, Control_c, 0, 64, 86
2, 184537, Control_c, 0, 64, 103
2, 184556, Control_c, 0, 64, 127
2, 184860, Note_on_c, 0, 46, 0
2, 184987, Note_on_c, 0, 51, 0
2, 184997, Note_on_c, 0, 54, 0
2, 185119, Note_on_c, 0, 66, 0
2, 185132, Note_on_c, 0, 63, 0
2, 185169, Note_on_c, 0, 46, 45
2, 185278, Note_on_c, 0, 53, 49
2, 185346, Note_on_c, 0, 56, 56
2, 185392, Note_on_c, 0, 65, 57
2, 185428, Note_on_c, 0, 62, 48
2, 185438, Note_on_c, 0, 65, 0
2, 185439, Control_c, 0, 64, 102
2, 185455, Note_on_c, 0, 66, 66
2, 185459, Control_c, 0, 64, 81
2, 185477, Control_c, 0, 64, 66
2, 185497, Control_c, 0, 64, 44
2, 185516, Control_c, 0, 64, 0
2, 185520, Note_on_c, 0, 65, 68
2, 185580, Note_on_c, 0, 66, 0
2, 185905, Note_on_c, 0, 63, 58
2, 185946, Note_on_c, 0, 65, 0
2, 186010, Note_on_c, 0, 62, 0
2, 186386, Note_on_c, 0, 65, 51
2, 186453, Note_on_c, 0, 63, 0
2, 186553, Control_c, 0, 64, 15
2, 186572, Control_c, 0, 64, 34
2, 186591, Control_c, 0, 64, 48
2, 186611, Control_c, 0, 64, 57
2, 186630, Control_c, 0, 64, 61
2, 186649, Control_c, 0, 64, 63
2, 186668, Control_c, 0, 64, 64
2, 186669, Note_on_c, 0, 46, 0
2, 186688, Control_c, 0, 64, 65
2, 186707, Control_c, 0, 64, 67
2, 186727, Control_c, 0, 64, 70
2, 186735, Note_on_c, 0, 53, 0
2, 186746, Control_c, 0, 64, 77
2, 186766, Control_c, 0, 64, 87
2, 186784, Control_c, 0, 64, 100
2, 186804, Control_c, 0, 64, 127
2, 186891, Note_on_c, 0, 56, 0
2, 187344, Note_on_c, 0, 51, 33
2, 187386, Note_on_c, 0, 55, 37
2, 187419, Control_c, 0, 64, 107
2, 187438, Control_c, 0, 64, 96
2, 187457, Control_c, 0, 64, 84
2, 187476, Control_c, 0, 64, 73
2, 187496, Control_c, 0, 64, 64
2, 187515, Control_c, 0, 64, 50
2, 187534, Control_c, 0, 64, 26
2, 187550, Note_on_c, 0, 61, 23
2, 187551, Note_on_c, 0, 58, 18
2, 187553, Control_c, 0, 64, 0
2, 187612, Note_on_c, 0, 63, 47
2, 187651, Note_on_c, 0, 65, 0
2, 187726, Control_c, 0, 64, 28
2, 187744, Control_c, 0, 64, 46
2, 187764, Control_c, 0, 64, 57
2, 187783, Control_c, 0, 64, 62
2, 187801, Control_c, 0, 64, 64
2, 187821, Control_c, 0, 64, 66
2, 187840, Control_c, 0, 64, 68
2, 187860, Control_c, 0, 64, 73
2, 187878, Control_c, 0, 64, 81
2, 187898, Control_c, 0, 64, 93
2, 187917, Control_c, 0, 64, 117
2, 187936, Control_c, 0, 64, 127
2, 188092, Note_on_c, 0, 51, 0
2, 188106, Note_on_c, 0, 61, 0
2, 188319, Note_on_c, 0, 58, 0
2, 188387, Note_on_c, 0, 55, 0
2, 188907, Note_on_c, 0, 51, 33
2, 188949, Control_c, 0, 64, 112
2, 188964, Note_on_c, 0, 55, 39
2, 188968, Control_c, 0, 64, 93
2, 188987, Control_c, 0, 64, 78
2, 189007, Control_c, 0, 64, 66
2, 189026, Control_c, 0, 64, 48
2, 189045, Control_c, 0, 64, 0
2, 189053, Note_on_c, 0, 58, 28
2, 189083, Note_on_c, 0, 61, 43
2, 189161, Control_c, 0, 64, 23
2, 189179, Control_c, 0, 64, 46
2, 189199, Control_c, 0, 64, 58
2, 189218, Control_c, 0, 64, 63
2, 189238, Control_c, 0, 64, 65
2, 189256, Control_c, 0, 64, 66
2, 189276, Control_c, 0, 64, 68
2, 189295, Control_c, 0, 64, 71
2, 189305, Note_on_c, 0, 51, 0
2, 189314, Control_c, 0, 64, 76
2, 189333, Control_c, 0, 64, 85
2, 189353, Control_c, 0, 64, 99
2, 189372, Control_c, 0, 64, 121
2, 189390, Control_c, 0, 64, 127
2, 189419, Note_on_c, 0, 61, 0
2, 189662, Note_on_c, 0, 58, 0
2, 189908, Note_on_c, 0, 55, 0
2, 190127, Note_on_c, 0, 65, 56
2, 190167, Note_on_c, 0, 63, 0
2, 190325, Note_on_c, 0, 67, 63
2, 190355, Note_on_c, 0, 65, 0
2, 190499, Note_on_c, 0, 68, 69
2, 190524, Control_c, 0, 64, 119
2, 190536, Note_on_c, 0, 67, 0
2, 190542, Control_c, 0, 64, 112
2, 190542, Note_on_c, 0, 51, 36
2, 190562, Control_c, 0, 64, 105
2, 190573, Note_on_c, 0, 55, 42
2, 190581, Control_c, 0, 64, 97
2, 190601, Control_c, 0, 64, 89
2, 190619, Control_c, 0, 64, 81
2, 190639, Control_c, 0, 64, 73
2, 190658, Control_c, 0, 64, 66
2, 190678, Control_c, 0, 64, 61
2, 190691, Note_on_c, 0, 58, 32
2, 190696, Control_c, 0, 64, 55
2, 190716, Control_c, 0, 64, 46
2, 190735, Control_c, 0, 64, 37
2, 190747, Note_on_c, 0, 61, 32
2, 190754, Control_c, 0, 64, 26
2, 190763, Note_on_c, 0, 70, 65
2, 190773, Control_c, 0, 64, 0
2, 190813, Note_on_c, 0, 68, 0
2, 191334, Control_c, 0, 64, 22
2, 191352, Control_c, 0, 64, 39
2, 191372, Control_c, 0, 64, 50
2, 191391, Control_c, 0, 64, 57
2, 191411, Control_c, 0, 64, 60
2, 191429, Control_c, 0, 64, 62
2, 191449, Control_c, 0, 64, 63
2, 191468, Control_c, 0, 64, 64
2, 191488, Control_c, 0, 64, 65
2, 191502, Control_c, 0, 64, 68
2, 191521, Control_c, 0, 64, 71
2, 191540, Control_c, 0, 64, 79
2, 191560, Control_c, 0, 64, 90
2, 191567, Note_on_c, 0, 64, 63
2, 191578, Control_c, 0, 64, 104
2, 191595, Note_on_c, 0, 70, 0
2, 191598, Control_c, 0, 64, 127
2, 191610, Note_on_c, 0, 51, 0
2, 191625, Note_on_c, 0, 61, 0
2, 191649, Note_on_c, 0, 58, 0
2, 191754, Note_on_c, 0, 55, 0
2, 191785, Note_on_c, 0, 63, 67
2, 191828, Note_on_c, 0, 64, 0
2, 191983, Note_on_c, 0, 61, 71
2, 192019, Note_on_c, 0, 63, 0
2, 192125, Note_on_c, 0, 61, 0
2, 192242, Note_on_c, 0, 51, 38
2, 192255, Note_on_c, 0, 56, 41
2, 192366, Control_c, 0, 64, 108
2, 192385, Control_c, 0, 64, 93
2, 192404, Control_c, 0, 64, 81
2, 192423, Control_c, 0, 64, 70
2, 192426, Note_on_c, 0, 61, 61
2, 192443, Control_c, 0, 64, 63
2, 192462, Control_c, 0, 64, 54
2, 192481, Control_c, 0, 64, 42
2, 192500, Control_c, 0, 64, 24
2, 192520, Control_c, 0, 64, 0
2, 192849, Note_on_c, 0, 58, 56
2, 192929, Note_on_c, 0, 61, 0
2, 193278, Note_on_c, 0, 58, 0
2, 193284, Note_on_c, 0, 59, 53
2, 193480, Control_c, 0, 64, 32
2, 193498, Control_c, 0, 64, 51
2, 193518, Control_c, 0, 64, 61
2, 193537, Control_c, 0, 64, 65
2, 193557, Control_c, 0, 64, 68
2, 193575, Control_c, 0, 64, 73
2, 193595, Control_c, 0, 64, 81
2, 193600, Note_on_c, 0, 51, 0
2, 193608, Note_on_c, 0, 56, 0
2, 193614, Control_c, 0, 64, 96
2, 193632, Control_c, 0, 64, 127
2, 194066, Note_on_c, 0, 51, 36
2, 194094, Control_c, 0, 64, 107
2, 194098, Note_on_c, 0, 56, 41
2, 194112, Control_c, 0, 64, 92
2, 194132, Control_c, 0, 64, 79
2, 194151, Control_c, 0, 64, 68
2, 194171, Control_c, 0, 64, 59
2, 194189, Control_c, 0, 64, 45
2, 194209, Control_c, 0, 64, 31
2, 194228, Control_c, 0, 64, 22
2, 194248, Control_c, 0, 64, 9
2, 194266, Control_c, 0, 64, 0
2, 194601, Note_on_c, 0, 59, 0
2, 194630, Note_on_c, 0, 63, 48
2, 194865, Note_on_c, 0, 65, 50
2, 194866, Note_on_c, 0, 63, 0
2, 194977, Control_c, 0, 64, 36
2, 194997, Control_c, 0, 64, 52
2, 195015, Control_c, 0, 64, 60
2, 195035, Control_c, 0, 64, 64
2, 195049, Note_on_c, 0, 65, 0
2, 195054, Control_c, 0, 64, 66
2, 195064, Note_on_c, 0, 67, 50
2, 195072, Control_c, 0, 64, 69
2, 195092, Control_c, 0, 64, 73
2, 195111, Control_c, 0, 64, 81
2, 195131, Control_c, 0, 64, 87
2, 195149, Control_c, 0, 64, 92
2, 195169, Control_c, 0, 64, 94
2, 195208, Control_c, 0, 64, 95
2, 195214, Note_on_c, 0, 56, 0
2, 195219, Note_on_c, 0, 51, 0
2, 195278, Note_on_c, 0, 68, 64
2, 195342, Control_c, 0, 64, 94
2, 195380, Control_c, 0, 64, 94
2, 195383, Note_on_c, 0, 67, 0
2, 195400, Control_c, 0, 64, 93
2, 195418, Control_c, 0, 64, 93
2, 195464, Note_on_c, 0, 70, 66
2, 195477, Control_c, 0, 64, 92
2, 195487, Note_on_c, 0, 68, 0
2, 195495, Control_c, 0, 64, 92
2, 195515, Control_c, 0, 64, 91
2, 195534, Control_c, 0, 64, 90
2, 195552, Control_c, 0, 64, 89
2, 195572, Control_c, 0, 64, 89
2, 195591, Control_c, 0, 64, 88
2, 195611, Control_c, 0, 64, 87
2, 195629, Control_c, 0, 64, 86
2, 195649, Control_c, 0, 64, 84
2, 195669, Control_c, 0, 64, 82
2, 195688, Control_c, 0, 64, 78
2, 195690, Note_on_c, 0, 51, 34
2, 195697, Note_on_c, 0, 56, 33
2, 195707, Control_c, 0, 64, 74
2, 195727, Control_c, 0, 64, 69
2, 195746, Control_c, 0, 64, 64
2, 195765, Control_c, 0, 64, 58
2, 195781, Control_c, 0, 64, 50
2, 195801, Control_c, 0, 64, 34
2, 195806, Note_on_c, 0, 71, 59
2, 195820, Control_c, 0, 64, 0
2, 195845, Note_on_c, 0, 70, 0
2, 196411, Note_on_c, 0, 70, 56
2, 196461, Note_on_c, 0, 71, 0
2, 196493, Note_on_c, 0, 68, 60
2, 196536, Note_on_c, 0, 70, 0
2, 196565, Note_on_c, 0, 66, 55
2, 196592, Note_on_c, 0, 68, 0
2, 196656, Note_on_c, 0, 66, 0
2, 196659, Note_on_c, 0, 65, 55
2, 196849, Note_on_c, 0, 66, 58
2, 196885, Note_on_c, 0, 65, 0
2, 196914, Control_c, 0, 64, 32
2, 196932, Control_c, 0, 64, 46
2, 196952, Control_c, 0, 64, 55
2, 196971, Control_c, 0, 64, 60
2, 196990, Control_c, 0, 64, 62
2, 197009, Control_c, 0, 64, 63
2, 197029, Control_c, 0, 64, 64
2, 197035, Note_on_c, 0, 68, 58
2, 197048, Control_c, 0, 64, 66
2, 197051, Note_on_c, 0, 51, 0
2, 197067, Control_c, 0, 64, 69
2, 197082, Note_on_c, 0, 66, 0
2, 197086, Control_c, 0, 64, 73
2, 197106, Control_c, 0, 64, 80
2, 197125, Control_c, 0, 64, 88
2, 197144, Control_c, 0, 64, 95
2, 197163, Control_c, 0, 64, 100
2, 197183, Control_c, 0, 64, 104
2, 197201, Control_c, 0, 64, 105
2, 197220, Control_c, 0, 64, 106
2, 197220, Note_on_c, 0, 68, 0
2, 197240, Control_c, 0, 64, 107
2, 197254, Note_on_c, 0, 65, 54
2, 197259, Control_c, 0, 64, 108
2, 197432, Control_c, 0, 64, 107
2, 197470, Control_c, 0, 64, 107
2, 197489, Control_c, 0, 64, 106
2, 197509, Control_c, 0, 64, 106
2, 197522, Note_on_c, 0, 51, 28
2, 197528, Control_c, 0, 64, 105
2, 197543, Note_on_c, 0, 53, 35
2, 197547, Control_c, 0, 64, 104
2, 197566, Control_c, 0, 64, 103
2, 197586, Control_c, 0, 64, 102
2, 197602, Note_on_c, 0, 65, 0
2, 197605, Control_c, 0, 64, 101
2, 197624, Control_c, 0, 64, 99
2, 197643, Control_c, 0, 64, 97
2, 197663, Control_c, 0, 64, 94
2, 197681, Control_c, 0, 64, 91
2, 197700, Control_c, 0, 64, 87
2, 197715, Note_on_c, 0, 63, 61
2, 197720, Control_c, 0, 64, 83
2, 197739, Control_c, 0, 64, 77
2, 197758, Control_c, 0, 64, 70
2, 197768, Note_on_c, 0, 56, 0
2, 197777, Control_c, 0, 64, 64
2, 197797, Control_c, 0, 64, 58
2, 197815, Control_c, 0, 64, 51
2, 197835, Control_c, 0, 64, 42
2, 197854, Control_c, 0, 64, 31
2, 197874, Control_c, 0, 64, 0
2, 198404, Note_on_c, 0, 62, 42
2, 198417, Note_on_c, 0, 63, 0
2, 198757, Control_c, 0, 64, 30
2, 198775, Control_c, 0, 64, 44
2, 198795, Control_c, 0, 64, 55
2, 198814, Control_c, 0, 64, 61
2, 198834, Control_c, 0, 64, 64
2, 198852, Control_c, 0, 64, 65
2, 198872, Control_c, 0, 64, 67
2, 198891, Control_c, 0, 64, 70
2, 198910, Control_c, 0, 64, 75
2, 198929, Control_c, 0, 64, 83
2, 198949, Control_c, 0, 64, 92
2, 198968, Control_c, 0, 64, 104
2, 198987, Control_c, 0, 64, 121
2, 199006, Control_c, 0, 64, 127
2, 199165, Note_on_c, 0, 51, 0
2, 199165, Note_on_c, 0, 53, 0
2, 199173, Note_on_c, 0, 62, 0
2, 199712, Note_on_c, 0, 59, 40
2, 199835, Note_on_c, 0, 59, 0
2, 199878, Note_on_c, 0, 58, 33
2, 199986, Control_c, 0, 64, 121
2, 200005, Control_c, 0, 64, 103
2, 200024, Control_c, 0, 64, 88
2, 200027, Note_on_c, 0, 59, 47
2, 200040, Note_on_c, 0, 51, 37
2, 200043, Control_c, 0, 64, 74
2, 200051, Note_on_c, 0, 53, 35
2, 200062, Control_c, 0, 64, 62
2, 200081, Control_c, 0, 64, 37
2, 200096, Note_on_c, 0, 58, 0
2, 200100, Control_c, 0, 64, 0
2, 200275, Control_c, 0, 64, 26
2, 200293, Control_c, 0, 64, 46
2, 200313, Control_c, 0, 64, 57
2, 200332, Control_c, 0, 64, 62
2, 200351, Control_c, 0, 64, 64
2, 200370, Control_c, 0, 64, 65
2, 200390, Control_c, 0, 64, 67
2, 200409, Control_c, 0, 64, 70
2, 200428, Control_c, 0, 64, 74
2, 200447, Control_c, 0, 64, 83
2, 200468, Control_c, 0, 64, 94
2, 200486, Control_c, 0, 64, 114
2, 200506, Control_c, 0, 64, 127
2, 200795, Note_on_c, 0, 53, 0
2, 200894, Note_on_c, 0, 51, 0
2, 201372, Note_on_c, 0, 56, 50
2, 201562, Note_on_c, 0, 59, 0
2, 201971, Note_on_c, 0, 51, 29
2, 201979, Note_on_c, 0, 53, 52
2, 201984, Control_c, 0, 64, 98
2, 202002, Control_c, 0, 64, 74
2, 202015, Note_on_c, 0, 56, 0
2, 202021, Control_c, 0, 64, 60
2, 202041, Control_c, 0, 64, 0
2, 202156, Control_c, 0, 64, 18
2, 202175, Control_c, 0, 64, 40
2, 202195, Control_c, 0, 64, 54
2, 202213, Control_c, 0, 64, 61
2, 202233, Control_c, 0, 64, 64
2, 202252, Control_c, 0, 64, 66
2, 202271, Control_c, 0, 64, 69
2, 202290, Control_c, 0, 64, 75
2, 202310, Control_c, 0, 64, 86
2, 202329, Control_c, 0, 64, 105
2, 202348, Control_c, 0, 64, 127
2, 202620, Note_on_c, 0, 51, 0
2, 203764, Note_on_c, 0, 62, 47
2, 203837, Note_on_c, 0, 53, 0
2, 204284, Note_on_c, 0, 62, 0
2, 205565, Note_on_c, 0, 39, 34
2, 205565, Note_on_c, 0, 58, 34
2, 205572, Note_on_c, 0, 63, 39
2, 205573, Note_on_c, 0, 55, 30
2, 205580, Note_on_c, 0, 51, 20
2, 205606, Control_c, 0, 64, 105
2, 205624, Control_c, 0, 64, 84
2, 205644, Control_c, 0, 64, 72
2, 205663, Control_c, 0, 64, 64
2, 205683, Control_c, 0, 64, 57
2, 205701, Control_c, 0, 64, 49
2, 205720, Control_c, 0, 64, 42
2, 205740, Control_c, 0, 64, 35
2, 205759, Control_c, 0, 64, 23
2, 205778, Control_c, 0, 64, 0
2, 206200, Control_c, 0, 64, 21
2, 206220, Control_c, 0, 64, 31
2, 206238, Control_c, 0, 64, 42
2, 206257, Control_c, 0, 64, 52
2, 206276, Control_c, 0, 64, 58
2, 206296, Control_c, 0, 64, 61
2, 206314, Control_c, 0, 64, 63
2, 206334, Control_c, 0, 64, 64
2, 206353, Control_c, 0, 64, 64
2, 206373, Control_c, 0, 64, 66
2, 206391, Control_c, 0, 64, 68
2, 206411, Control_c, 0, 64, 71
2, 206430, Control_c, 0, 64, 76
2, 206450, Control_c, 0, 64, 84
2, 206468, Control_c, 0, 64, 95
2, 206488, Control_c, 0, 64, 110
2, 206507, Control_c, 0, 64, 127
2, 207778, Note_on_c, 0, 55, 0
2, 207911, Note_on_c, 0, 63, 0
2, 207979, Note_on_c, 0, 58, 0
2, 208085, Note_on_c, 0, 39, 0
2, 208248, Note_on_c, 0, 51, 0
2, 209272, Control_c, 0, 64, 121
2, 209292, Control_c, 0, 64, 116
2, 209311, Control_c, 0, 64, 112
2, 209330, Control_c, 0, 64, 109
2, 209349, Control_c, 0, 64, 106
2, 209369, Control_c, 0, 64, 103
2, 209388, Control_c, 0, 64, 101
2, 209407, Control_c, 0, 64, 98
2, 209426, Control_c, 0, 64, 95
2, 209446, Control_c, 0, 64, 92
2, 209465, Control_c, 0, 64, 90
2, 209484, Control_c, 0, 64, 88
2, 209503, Control_c, 0, 64, 87
2, 209523, Control_c, 0, 64, 86
2, 209541, Control_c, 0, 64, 84
2, 209560, Control_c, 0, 64, 82
2, 209580, Control_c, 0, 64, 80
2, 209599, Control_c, 0, 64, 78
2, 209618, Control_c, 0, 64, 77
2, 209637, Control_c, 0, 64, 74
2, 209657, Control_c, 0, 64, 72
2, 209675, Control_c, 0, 64, 70
2, 209695, Control_c, 0, 64, 69
2, 209714, Control_c, 0, 64, 68
2, 209733, Control_c, 0, 64, 67
2, 209751, Control_c, 0, 64, 67
2, 209771, Control_c, 0, 64, 66
2, 209790, Control_c, 0, 64, 66
2, 209810, Control_c, 0, 64, 65
2, 209828, Control_c, 0, 64, 64
2, 209848, Control_c, 0, 64, 64
2, 209867, Control_c, 0, 64, 63
2, 209886, Control_c, 0, 64, 63
2, 209905, Control_c, 0, 64, 62
2, 209925, Control_c, 0, 64, 61
2, 209944, Control_c, 0, 64, 60
2, 209963, Control_c, 0, 64, 58
2, 209982, Control_c, 0, 64, 57
2, 210001, Control_c, 0, 64, 54
2, 210020, Control_c, 0, 64, 51
2, 210039, Control_c, 0, 64, 47
2, 210059, Control_c, 0, 64, 43
2, 210079, Control_c, 0, 64, 40
2, 210098, Control_c, 0, 64, 35
2, 210117, Control_c, 0, 64, 30
2, 210137, Control_c, 0, 64, 22
2, 210155, Control_c, 0, 64, 0
2, 212186,End_track
0, 0, End_of_file
