0, 0, Header, 1, 2, 480
1, 0, Start_track
1, 0, Tempo, 500000
1, 0, Time_signature, 4, 2, 24, 8
1, 1, End_track
2,0,Start_track
2,0, Note_on_c, 0, 63, 49
2,1034, Note_on_c, 0, 70, 61
2,1288, Note_on_c, 0, 63, 0
2,2492, Note_on_c, 0, 71, 51
2,2566, Note_on_c, 0, 70, 0
2,2951, Note_on_c, 0, 70, 63
2,3020, Note_on_c, 0, 71, 0
2,3377, Note_on_c, 0, 68, 62
2,3426, Note_on_c, 0, 70, 0
2,3810, Note_on_c, 0, 66, 57
2,3831, Note_on_c, 0, 68, 0
2,4225, Note_on_c, 0, 66, 0
2,4228, Note_on_c, 0, 68, 58
2,4683, Note_on_c, 0, 70, 47
2,4697, Note_on_c, 0, 68, 0
2,5504, Note_on_c, 0, 63, 46
2,5674, Note_on_c, 0, 70, 0
2,6209, Note_on_c, 0, 63, 0
2,6452, Note_on_c, 0, 68, 61
2,7807, Note_on_c, 0, 66, 49
2,7854, Note_on_c, 0, 68, 0
2,8250, Note_on_c, 0, 65, 46
2,8284, Note_on_c, 0, 66, 0
2,9117, Note_on_c, 0, 70, 66
2,9149, Note_on_c, 0, 63, 30
2,9234, Note_on_c, 0, 65, 0
2,9977, Note_on_c, 0, 75, 68
2,10380, Note_on_c, 0, 65, 47
2,10414, Note_on_c, 0, 63, 0
2,10776, Note_on_c, 0, 66, 47
2,10782, Note_on_c, 0, 65, 0
2,11174, Note_on_c, 0, 78, 66
2,11225, Note_on_c, 0, 75, 0
2,11315, Note_on_c, 0, 70, 0
2,11591, Note_on_c, 0, 77, 69
2,11594, Note_on_c, 0, 68, 42
2,11640, Note_on_c, 0, 78, 0
2,11667, Note_on_c, 0, 66, 0
2,12008, Note_on_c, 0, 75, 67
2,12075, Note_on_c, 0, 77, 0
2,12417, Note_on_c, 0, 73, 62
2,12418, Note_on_c, 0, 70, 46
2,12470, Note_on_c, 0, 75, 0
2,12551, Note_on_c, 0, 68, 0
2,12834, Note_on_c, 0, 75, 67
2,12904, Note_on_c, 0, 73, 0
2,13285, Note_on_c, 0, 77, 64
2,13305, Note_on_c, 0, 75, 0
2,13695, Note_on_c, 0, 68, 53
2,13695, Note_on_c, 0, 70, 0
2,14101, Note_on_c, 0, 68, 0
2,14114, Note_on_c, 0, 66, 33
2,14116, Note_on_c, 0, 70, 67
2,14192, Note_on_c, 0, 77, 0
2,14511, Note_on_c, 0, 66, 0
2,14518, Note_on_c, 0, 65, 44
2,14613, Note_on_c, 0, 70, 0
2,14898, Note_on_c, 0, 65, 0
2,14911, Note_on_c, 0, 75, 64
2,14919, Note_on_c, 0, 66, 42
2,15306, Note_on_c, 0, 66, 0
2,15309, Note_on_c, 0, 65, 43
2,15476, Note_on_c, 0, 65, 0
2,15508, Note_on_c, 0, 63, 46
2,15695, Note_on_c, 0, 63, 0
2,15716, Note_on_c, 0, 65, 41
2,16094, Note_on_c, 0, 65, 0
2,16097, Note_on_c, 0, 73, 54
2,16104, Note_on_c, 0, 70, 42
2,16404, Note_on_c, 0, 75, 0
2,16475, Note_on_c, 0, 72, 55
2,16530, Note_on_c, 0, 73, 0
2,16900, Note_on_c, 0, 70, 0
2,16905, Note_on_c, 0, 69, 50
2,17201, Note_on_c, 0, 72, 0
2,17310, Note_on_c, 0, 70, 54
2,17374, Note_on_c, 0, 69, 0
2,17737, Note_on_c, 0, 72, 60
2,18146, Note_on_c, 0, 73, 62
2,18254, Note_on_c, 0, 72, 0
2,18555, Note_on_c, 0, 68, 51
2,18591, Note_on_c, 0, 70, 0
2,18948, Note_on_c, 0, 68, 0
2,18959, Note_on_c, 0, 67, 39
2,19357, Note_on_c, 0, 67, 0
2,19365, Note_on_c, 0, 63, 33
2,19776, Note_on_c, 0, 68, 48
2,19913, Note_on_c, 0, 63, 0
2,20160, Note_on_c, 0, 71, 55
2,20195, Note_on_c, 0, 73, 0
2,20586, Note_on_c, 0, 70, 59
2,20616, Note_on_c, 0, 71, 0
2,20999, Note_on_c, 0, 66, 45
2,21001, Note_on_c, 0, 68, 0
2,21401, Note_on_c, 0, 66, 0
2,21415, Note_on_c, 0, 65, 37
2,21429, Note_on_c, 0, 75, 62
2,21499, Note_on_c, 0, 70, 0
2,21793, Note_on_c, 0, 65, 0
2,21811, Note_on_c, 0, 63, 41
2,22225, Note_on_c, 0, 65, 44
2,22240, Note_on_c, 0, 63, 0
2,22642, Note_on_c, 0, 74, 54
2,22651, Note_on_c, 0, 75, 0
2,23028, Note_on_c, 0, 65, 0
2,23033, Note_on_c, 0, 66, 53
2,23048, Note_on_c, 0, 75, 62
2,23090, Note_on_c, 0, 74, 0
2,23183, Control_c, 0, 64, 17
2,23202, Control_c, 0, 64, 29
2,23221, Control_c, 0, 64, 39
2,23240, Control_c, 0, 64, 47
2,23260, Control_c, 0, 64, 53
2,23278, Control_c, 0, 64, 57
2,23298, Control_c, 0, 64, 59
2,23317, Control_c, 0, 64, 61
2,23337, Control_c, 0, 64, 63
2,23355, Control_c, 0, 64, 65
2,23375, Control_c, 0, 64, 67
2,23394, Control_c, 0, 64, 72
2,23414, Control_c, 0, 64, 80
2,23432, Control_c, 0, 64, 93
2,23435, Note_on_c, 0, 66, 0
2,23441, Note_on_c, 0, 68, 61
2,23452, Control_c, 0, 64, 118
2,23461, Note_on_c, 0, 77, 67
2,23474, Control_c, 0, 64, 127
2,23479, Note_on_c, 0, 75, 0
2,23483, Note_on_c, 0, 68, 0
2,23873, Note_on_c, 0, 51, 55
2,23877, Control_c, 0, 64, 102
2,23897, Control_c, 0, 64, 81
2,23915, Control_c, 0, 64, 65
2,23922, Note_on_c, 0, 78, 58
2,23924, Note_on_c, 0, 70, 53
2,23934, Control_c, 0, 64, 44
2,23954, Control_c, 0, 64, 0
2,23974, Note_on_c, 0, 77, 0
2,24049, Control_c, 0, 64, 22
2,24069, Control_c, 0, 64, 44
2,24088, Control_c, 0, 64, 56
2,24107, Control_c, 0, 64, 62
2,24126, Control_c, 0, 64, 65
2,24146, Control_c, 0, 64, 67
2,24165, Control_c, 0, 64, 71
2,24184, Control_c, 0, 64, 80
2,24203, Control_c, 0, 64, 92
2,24223, Control_c, 0, 64, 112
2,24241, Control_c, 0, 64, 127
2,24326, Note_on_c, 0, 72, 61
2,24339, Note_on_c, 0, 70, 0
2,24472, Note_on_c, 0, 72, 0
2,24740, Control_c, 0, 64, 95
2,24759, Control_c, 0, 64, 77
2,24764, Note_on_c, 0, 58, 59
2,24766, Note_on_c, 0, 77, 59
2,24778, Control_c, 0, 64, 65
2,24782, Note_on_c, 0, 74, 26
2,24796, Control_c, 0, 64, 54
2,24816, Control_c, 0, 64, 37
2,24828, Note_on_c, 0, 78, 0
2,24835, Control_c, 0, 64, 31
2,24854, Control_c, 0, 64, 29
2,24912, Control_c, 0, 64, 28
2,24931, Control_c, 0, 64, 27
2,24938, Note_on_c, 0, 51, 0
2,24950, Control_c, 0, 64, 26
2,24969, Control_c, 0, 64, 25
2,25027, Control_c, 0, 64, 24
2,25170, Note_on_c, 0, 78, 60
2,25173, Note_on_c, 0, 77, 0
2,25178, Note_on_c, 0, 74, 0
2,25178, Note_on_c, 0, 75, 45
2,25487, Control_c, 0, 64, 26
2,25507, Control_c, 0, 64, 32
2,25526, Control_c, 0, 64, 41
2,25546, Control_c, 0, 64, 50
2,25564, Control_c, 0, 64, 58
2,25570, Note_on_c, 0, 77, 36
2,25577, Note_on_c, 0, 75, 0
2,25577, Note_on_c, 0, 80, 54
2,25584, Control_c, 0, 64, 62
2,25603, Control_c, 0, 64, 65
2,25622, Control_c, 0, 64, 68
2,25641, Control_c, 0, 64, 74
2,25651, Note_on_c, 0, 78, 0
2,25661, Control_c, 0, 64, 85
2,25669, Note_on_c, 0, 77, 0
2,25680, Control_c, 0, 64, 102
2,25699, Control_c, 0, 64, 127
2,25967, Control_c, 0, 64, 107
2,25971, Note_on_c, 0, 77, 64
2,25978, Note_on_c, 0, 59, 59
2,25987, Control_c, 0, 64, 89
2,25995, Note_on_c, 0, 74, 33
2,26006, Control_c, 0, 64, 78
2,26026, Control_c, 0, 64, 70
2,26028, Note_on_c, 0, 80, 0
2,26038, Note_on_c, 0, 58, 0
2,26038, Note_on_c, 0, 74, 0
2,26044, Control_c, 0, 64, 64
2,26064, Control_c, 0, 64, 58
2,26083, Control_c, 0, 64, 53
2,26102, Control_c, 0, 64, 48
2,26121, Control_c, 0, 64, 44
2,26141, Control_c, 0, 64, 41
2,26160, Control_c, 0, 64, 35
2,26179, Control_c, 0, 64, 29
2,26198, Control_c, 0, 64, 24
2,26218, Control_c, 0, 64, 22
2,26313, Control_c, 0, 64, 21
2,26395, Note_on_c, 0, 78, 68
2,26400, Note_on_c, 0, 58, 60
2,26455, Note_on_c, 0, 59, 0
2,26475, Note_on_c, 0, 77, 0
2,26805, Note_on_c, 0, 80, 64
2,26809, Note_on_c, 0, 56, 64
2,26815, Note_on_c, 0, 77, 56
2,26821, Note_on_c, 0, 78, 0
2,26836, Note_on_c, 0, 58, 0
2,26889, Control_c, 0, 64, 22
2,27212, Note_on_c, 0, 80, 0
2,27219, Note_on_c, 0, 82, 56
2,27224, Note_on_c, 0, 54, 54
2,27224, Note_on_c, 0, 78, 59
2,27232, Note_on_c, 0, 56, 0
2,27274, Note_on_c, 0, 77, 0
2,27608, Note_on_c, 0, 54, 0
2,27614, Note_on_c, 0, 56, 56
2,27630, Note_on_c, 0, 78, 0
2,27631, Note_on_c, 0, 80, 57
2,27633, Note_on_c, 0, 82, 0
2,27649, Note_on_c, 0, 77, 48
2,28019, Note_on_c, 0, 58, 48
2,28021, Note_on_c, 0, 78, 57
2,28022, Note_on_c, 0, 80, 0
2,28025, Note_on_c, 0, 77, 0
2,28036, Note_on_c, 0, 75, 43
2,28050, Note_on_c, 0, 56, 0
2,28085, Control_c, 0, 64, 24
2,28105, Control_c, 0, 64, 31
2,28124, Control_c, 0, 64, 41
2,28143, Control_c, 0, 64, 50
2,28162, Control_c, 0, 64, 57
2,28182, Control_c, 0, 64, 62
2,28201, Control_c, 0, 64, 64
2,28220, Control_c, 0, 64, 67
2,28239, Control_c, 0, 64, 71
2,28259, Control_c, 0, 64, 77
2,28275, Note_on_c, 0, 75, 0
2,28277, Control_c, 0, 64, 85
2,28286, Note_on_c, 0, 78, 0
2,28297, Control_c, 0, 64, 94
2,28316, Control_c, 0, 64, 101
2,28335, Control_c, 0, 64, 104
2,28354, Control_c, 0, 64, 104
2,28424, Note_on_c, 0, 77, 53
2,28427, Note_on_c, 0, 74, 36
2,28450, Control_c, 0, 64, 104
2,28470, Control_c, 0, 64, 103
2,28488, Control_c, 0, 64, 102
2,28508, Control_c, 0, 64, 101
2,28527, Control_c, 0, 64, 100
2,28547, Control_c, 0, 64, 98
2,28565, Control_c, 0, 64, 97
2,28585, Control_c, 0, 64, 96
2,28604, Control_c, 0, 64, 95
2,28618, Control_c, 0, 64, 94
2,28636, Control_c, 0, 64, 93
2,28655, Control_c, 0, 64, 91
2,28675, Control_c, 0, 64, 89
2,28694, Control_c, 0, 64, 85
2,28713, Control_c, 0, 64, 81
2,28732, Control_c, 0, 64, 74
2,28752, Control_c, 0, 64, 67
2,28771, Control_c, 0, 64, 62
2,28790, Control_c, 0, 64, 53
2,28798, Note_on_c, 0, 51, 54
2,28809, Control_c, 0, 64, 40
2,28828, Note_on_c, 0, 78, 52
2,28829, Control_c, 0, 64, 25
2,28831, Note_on_c, 0, 74, 0
2,28838, Note_on_c, 0, 75, 51
2,28847, Control_c, 0, 64, 0
2,28880, Note_on_c, 0, 77, 0
2,28969, Note_on_c, 0, 58, 0
2,29098, Control_c, 0, 64, 29
2,29116, Control_c, 0, 64, 42
2,29135, Control_c, 0, 64, 54
2,29155, Control_c, 0, 64, 60
2,29174, Control_c, 0, 64, 63
2,29193, Control_c, 0, 64, 65
2,29212, Control_c, 0, 64, 68
2,29232, Control_c, 0, 64, 71
2,29236, Note_on_c, 0, 73, 57
2,29251, Control_c, 0, 64, 76
2,29270, Control_c, 0, 64, 81
2,29289, Control_c, 0, 64, 84
2,29309, Control_c, 0, 64, 85
2,29314, Note_on_c, 0, 78, 0
2,29347, Control_c, 0, 64, 85
2,29364, Note_on_c, 0, 73, 0
2,29404, Control_c, 0, 64, 84
2,29447, Note_on_c, 0, 51, 0
2,29462, Control_c, 0, 64, 84
2,29481, Control_c, 0, 64, 83
2,29501, Control_c, 0, 64, 82
2,29520, Control_c, 0, 64, 79
2,29539, Control_c, 0, 64, 76
2,29558, Control_c, 0, 64, 72
2,29578, Control_c, 0, 64, 68
2,29596, Control_c, 0, 64, 63
2,29615, Control_c, 0, 64, 55
2,29635, Control_c, 0, 64, 43
2,29644, Note_on_c, 0, 56, 66
2,29654, Control_c, 0, 64, 29
2,29665, Note_on_c, 0, 75, 0
2,29668, Note_on_c, 0, 77, 55
2,29673, Control_c, 0, 64, 11
2,29675, Note_on_c, 0, 71, 53
2,29692, Control_c, 0, 64, 0
2,29904, Control_c, 0, 64, 24
2,29923, Control_c, 0, 64, 42
2,29942, Control_c, 0, 64, 53
2,29961, Control_c, 0, 64, 60
2,29981, Control_c, 0, 64, 63
2,30000, Control_c, 0, 64, 66
2,30019, Control_c, 0, 64, 69
2,30038, Control_c, 0, 64, 76
2,30058, Control_c, 0, 64, 88
2,30076, Control_c, 0, 64, 102
2,30091, Note_on_c, 0, 75, 61
2,30095, Control_c, 0, 64, 127
2,30148, Note_on_c, 0, 77, 0
2,30215, Note_on_c, 0, 75, 0
2,30422, Control_c, 0, 64, 119
2,30440, Control_c, 0, 64, 98
2,30460, Control_c, 0, 64, 80
2,30479, Control_c, 0, 64, 67
2,30488, Note_on_c, 0, 74, 49
2,30498, Control_c, 0, 64, 54
2,30509, Note_on_c, 0, 71, 0
2,30511, Note_on_c, 0, 70, 36
2,30517, Control_c, 0, 64, 27
2,30538, Control_c, 0, 64, 21
2,30595, Control_c, 0, 64, 29
2,30614, Control_c, 0, 64, 39
2,30633, Control_c, 0, 64, 49
2,30652, Control_c, 0, 64, 58
2,30672, Control_c, 0, 64, 61
2,30691, Control_c, 0, 64, 63
2,30710, Control_c, 0, 64, 64
2,30729, Control_c, 0, 64, 66
2,30749, Control_c, 0, 64, 67
2,30767, Control_c, 0, 64, 69
2,30787, Control_c, 0, 64, 70
2,30806, Control_c, 0, 64, 71
2,30826, Control_c, 0, 64, 70
2,30844, Control_c, 0, 64, 68
2,30864, Control_c, 0, 64, 64
2,30883, Control_c, 0, 64, 61
2,30891, Note_on_c, 0, 54, 54
2,30892, Note_on_c, 0, 74, 0
2,30902, Control_c, 0, 64, 56
2,30902, Note_on_c, 0, 75, 50
2,30921, Control_c, 0, 64, 50
2,30938, Note_on_c, 0, 56, 0
2,30941, Control_c, 0, 64, 47
2,30960, Control_c, 0, 64, 46
2,31018, Control_c, 0, 64, 46
2,31075, Control_c, 0, 64, 46
2,31094, Control_c, 0, 64, 45
2,31113, Control_c, 0, 64, 45
2,31132, Control_c, 0, 64, 44
2,31152, Control_c, 0, 64, 44
2,31171, Control_c, 0, 64, 43
2,31190, Control_c, 0, 64, 43
2,31314, Note_on_c, 0, 68, 47
2,31316, Note_on_c, 0, 70, 0
2,31317, Note_on_c, 0, 53, 46
2,31324, Control_c, 0, 64, 42
2,31339, Note_on_c, 0, 54, 0
2,31363, Control_c, 0, 64, 42
2,31535, Control_c, 0, 64, 41
2,31555, Control_c, 0, 64, 41
2,31574, Control_c, 0, 64, 40
2,31742, Note_on_c, 0, 74, 44
2,31747, Control_c, 0, 64, 40
2,31767, Note_on_c, 0, 75, 0
2,31805, Note_on_c, 0, 68, 0
2,32138, Note_on_c, 0, 51, 48
2,32150, Note_on_c, 0, 74, 0
2,32165, Note_on_c, 0, 75, 49
2,32179, Note_on_c, 0, 53, 0
2,32180, Note_on_c, 0, 66, 37
2,32266, Control_c, 0, 64, 40
2,32284, Control_c, 0, 64, 41
2,32304, Control_c, 0, 64, 43
2,32323, Control_c, 0, 64, 45
2,32342, Control_c, 0, 64, 48
2,32361, Control_c, 0, 64, 51
2,32381, Control_c, 0, 64, 55
2,32400, Control_c, 0, 64, 58
2,32419, Control_c, 0, 64, 60
2,32438, Control_c, 0, 64, 62
2,32458, Control_c, 0, 64, 64
2,32476, Control_c, 0, 64, 67
2,32495, Control_c, 0, 64, 71
2,32515, Control_c, 0, 64, 79
2,32532, Note_on_c, 0, 73, 53
2,32534, Control_c, 0, 64, 93
2,32553, Control_c, 0, 64, 123
2,32565, Note_on_c, 0, 75, 0
2,32572, Control_c, 0, 64, 127
2,32635, Note_on_c, 0, 66, 0
2,32635, Note_on_c, 0, 73, 0
2,32975, Control_c, 0, 64, 102
2,32976, Note_on_c, 0, 63, 61
2,32995, Control_c, 0, 64, 77
2,33010, Note_on_c, 0, 71, 40
2,33011, Note_on_c, 0, 68, 38
2,33014, Control_c, 0, 64, 64
2,33033, Control_c, 0, 64, 50
2,33052, Control_c, 0, 64, 38
2,33091, Control_c, 0, 64, 38
2,33111, Control_c, 0, 64, 43
2,33130, Control_c, 0, 64, 52
2,33140, Note_on_c, 0, 51, 0
2,33150, Control_c, 0, 64, 58
2,33168, Control_c, 0, 64, 62
2,33188, Control_c, 0, 64, 64
2,33207, Control_c, 0, 64, 66
2,33227, Control_c, 0, 64, 68
2,33245, Control_c, 0, 64, 73
2,33265, Control_c, 0, 64, 86
2,33284, Control_c, 0, 64, 102
2,33303, Control_c, 0, 64, 127
2,33407, Note_on_c, 0, 66, 50
2,33462, Note_on_c, 0, 63, 0
2,33477, Note_on_c, 0, 68, 0
2,33783, Control_c, 0, 64, 107
2,33796, Note_on_c, 0, 66, 0
2,33802, Control_c, 0, 64, 94
2,33822, Control_c, 0, 64, 80
2,33832, Note_on_c, 0, 62, 49
2,33832, Note_on_c, 0, 65, 45
2,33841, Control_c, 0, 64, 69
2,33860, Control_c, 0, 64, 62
2,33879, Control_c, 0, 64, 50
2,33899, Control_c, 0, 64, 39
2,33917, Control_c, 0, 64, 32
2,33936, Control_c, 0, 64, 28
2,33956, Control_c, 0, 64, 22
2,33975, Control_c, 0, 64, 13
2,33994, Control_c, 0, 64, 0
2,34256, Note_on_c, 0, 70, 58
2,34279, Note_on_c, 0, 71, 0
2,34442, Note_on_c, 0, 68, 61
2,34451, Note_on_c, 0, 70, 0
2,34598, Note_on_c, 0, 62, 0
2,34644, Note_on_c, 0, 61, 47
2,34666, Note_on_c, 0, 70, 68
2,34685, Control_c, 0, 64, 9
2,34705, Control_c, 0, 64, 25
2,34709, Note_on_c, 0, 68, 0
2,34710, Note_on_c, 0, 65, 0
2,34724, Control_c, 0, 64, 35
2,34743, Control_c, 0, 64, 44
2,34762, Control_c, 0, 64, 51
2,34782, Control_c, 0, 64, 58
2,34801, Control_c, 0, 64, 60
2,34820, Control_c, 0, 64, 62
2,34839, Control_c, 0, 64, 63
2,34859, Control_c, 0, 64, 64
2,34877, Control_c, 0, 64, 66
2,34896, Control_c, 0, 64, 68
2,34916, Control_c, 0, 64, 72
2,34935, Control_c, 0, 64, 79
2,34954, Control_c, 0, 64, 88
2,34973, Control_c, 0, 64, 97
2,34992, Control_c, 0, 64, 104
2,34998, Note_on_c, 0, 63, 46
2,35011, Control_c, 0, 64, 108
2,35016, Note_on_c, 0, 70, 0
2,35030, Control_c, 0, 64, 110
2,35035, Note_on_c, 0, 71, 75
2,35037, Note_on_c, 0, 61, 0
2,35049, Control_c, 0, 64, 110
2,35069, Control_c, 0, 64, 112
2,35107, Control_c, 0, 64, 112
2,35172, Note_on_c, 0, 63, 0
2,35210, Note_on_c, 0, 65, 45
2,35211, Note_on_c, 0, 73, 71
2,35311, Note_on_c, 0, 71, 0
2,35318, Control_c, 0, 64, 111
2,35340, Control_c, 0, 64, 109
2,35358, Control_c, 0, 64, 106
2,35378, Control_c, 0, 64, 101
2,35397, Control_c, 0, 64, 90
2,35401, Note_on_c, 0, 65, 0
2,35416, Control_c, 0, 64, 77
2,35435, Control_c, 0, 64, 66
2,35443, Note_on_c, 0, 60, 42
2,35444, Note_on_c, 0, 75, 77
2,35454, Control_c, 0, 64, 49
2,35461, Note_on_c, 0, 66, 39
2,35474, Control_c, 0, 64, 0
2,35510, Note_on_c, 0, 73, 0
2,35589, Control_c, 0, 64, 19
2,35608, Control_c, 0, 64, 46
2,35627, Control_c, 0, 64, 57
2,35646, Control_c, 0, 64, 61
2,35666, Control_c, 0, 64, 64
2,35685, Control_c, 0, 64, 65
2,35704, Control_c, 0, 64, 68
2,35723, Control_c, 0, 64, 73
2,35743, Control_c, 0, 64, 84
2,35761, Control_c, 0, 64, 101
2,35781, Control_c, 0, 64, 127
2,35785, Note_on_c, 0, 66, 0
2,35808, Note_on_c, 0, 77, 71
2,35822, Note_on_c, 0, 68, 49
2,35829, Note_on_c, 0, 75, 0
2,35954, Note_on_c, 0, 60, 0
2,35962, Note_on_c, 0, 68, 0
2,35990, Note_on_c, 0, 70, 55
2,36010, Note_on_c, 0, 78, 67
2,36043, Note_on_c, 0, 77, 0
2,36056, Note_on_c, 0, 70, 0
2,36205, Control_c, 0, 64, 110
2,36224, Control_c, 0, 64, 81
2,36242, Note_on_c, 0, 77, 51
2,36244, Control_c, 0, 64, 66
2,36247, Note_on_c, 0, 78, 0
2,36262, Control_c, 0, 64, 45
2,36273, Note_on_c, 0, 68, 27
2,36278, Note_on_c, 0, 59, 31
2,36282, Control_c, 0, 64, 0
2,36359, Control_c, 0, 64, 34
2,36378, Control_c, 0, 64, 53
2,36397, Control_c, 0, 64, 61
2,36416, Control_c, 0, 64, 64
2,36436, Control_c, 0, 64, 66
2,36454, Control_c, 0, 64, 69
2,36474, Control_c, 0, 64, 76
2,36493, Control_c, 0, 64, 89
2,36513, Control_c, 0, 64, 119
2,36531, Control_c, 0, 64, 127
2,36732, Note_on_c, 0, 68, 0
2,36792, Note_on_c, 0, 59, 0
2,36805, Note_on_c, 0, 75, 59
2,36808, Note_on_c, 0, 66, 42
2,36828, Note_on_c, 0, 77, 0
2,36847, Note_on_c, 0, 75, 0
2,36912, Note_on_c, 0, 68, 13
2,36916, Control_c, 0, 64, 93
2,36934, Control_c, 0, 64, 71
2,36954, Control_c, 0, 64, 58
2,36973, Control_c, 0, 64, 43
2,36978, Note_on_c, 0, 68, 0
2,36993, Control_c, 0, 64, 42
2,36999, Note_on_c, 0, 58, 46
2,37011, Control_c, 0, 64, 49
2,37012, Note_on_c, 0, 66, 0
2,37013, Note_on_c, 0, 74, 48
2,37031, Control_c, 0, 64, 59
2,37031, Note_on_c, 0, 70, 43
2,37050, Control_c, 0, 64, 64
2,37070, Control_c, 0, 64, 66
2,37074, Note_on_c, 0, 58, 0
2,37088, Control_c, 0, 64, 69
2,37107, Control_c, 0, 64, 73
2,37127, Control_c, 0, 64, 83
2,37145, Control_c, 0, 64, 95
2,37165, Control_c, 0, 64, 112
2,37184, Control_c, 0, 64, 127
2,37350, Note_on_c, 0, 74, 0
2,37390, Note_on_c, 0, 46, 55
2,37410, Control_c, 0, 64, 110
2,37414, Note_on_c, 0, 68, 62
2,37430, Control_c, 0, 64, 80
2,37434, Note_on_c, 0, 70, 0
2,37448, Control_c, 0, 64, 65
2,37467, Control_c, 0, 64, 49
2,37487, Control_c, 0, 64, 36
2,37505, Control_c, 0, 64, 36
2,37525, Control_c, 0, 64, 46
2,37544, Control_c, 0, 64, 58
2,37564, Control_c, 0, 64, 63
2,37582, Control_c, 0, 64, 64
2,37602, Control_c, 0, 64, 66
2,37621, Control_c, 0, 64, 68
2,37640, Control_c, 0, 64, 70
2,37659, Control_c, 0, 64, 75
2,37679, Control_c, 0, 64, 82
2,37698, Control_c, 0, 64, 92
2,37717, Control_c, 0, 64, 103
2,37736, Control_c, 0, 64, 108
2,37756, Control_c, 0, 64, 106
2,37774, Control_c, 0, 64, 92
2,37794, Control_c, 0, 64, 72
2,37811, Note_on_c, 0, 51, 51
2,37813, Control_c, 0, 64, 60
2,37814, Note_on_c, 0, 68, 0
2,37821, Note_on_c, 0, 75, 61
2,37827, Note_on_c, 0, 66, 54
2,37833, Control_c, 0, 64, 38
2,37848, Note_on_c, 0, 46, 0
2,37851, Control_c, 0, 64, 29
2,37891, Control_c, 0, 64, 38
2,37910, Control_c, 0, 64, 54
2,37929, Control_c, 0, 64, 62
2,37948, Control_c, 0, 64, 65
2,37968, Control_c, 0, 64, 68
2,37986, Control_c, 0, 64, 72
2,38006, Control_c, 0, 64, 81
2,38025, Control_c, 0, 64, 97
2,38044, Control_c, 0, 64, 127
2,38121, Note_on_c, 0, 66, 0
2,38241, Note_on_c, 0, 73, 63
2,38242, Note_on_c, 0, 65, 49
2,38284, Note_on_c, 0, 75, 0
2,38345, Note_on_c, 0, 73, 0
2,38607, Control_c, 0, 64, 118
2,38626, Control_c, 0, 64, 78
2,38645, Control_c, 0, 64, 63
2,38662, Note_on_c, 0, 71, 58
2,38664, Control_c, 0, 64, 41
2,38677, Note_on_c, 0, 63, 43
2,38684, Control_c, 0, 64, 31
2,38714, Note_on_c, 0, 65, 0
2,38722, Control_c, 0, 64, 39
2,38741, Control_c, 0, 64, 55
2,38761, Control_c, 0, 64, 63
2,38779, Control_c, 0, 64, 66
2,38799, Control_c, 0, 64, 69
2,38818, Control_c, 0, 64, 74
2,38837, Control_c, 0, 64, 83
2,38855, Control_c, 0, 64, 96
2,38875, Control_c, 0, 64, 119
2,38894, Control_c, 0, 64, 127
2,39042, Note_on_c, 0, 70, 70
2,39057, Note_on_c, 0, 54, 55
2,39062, Note_on_c, 0, 71, 0
2,39090, Note_on_c, 0, 51, 0
2,39137, Note_on_c, 0, 70, 0
2,39458, Note_on_c, 0, 68, 68
2,39464, Note_on_c, 0, 53, 54
2,39470, Control_c, 0, 64, 123
2,39489, Control_c, 0, 64, 91
2,39489, Note_on_c, 0, 62, 36
2,39508, Control_c, 0, 64, 76
2,39528, Control_c, 0, 64, 67
2,39528, Note_on_c, 0, 54, 0
2,39546, Control_c, 0, 64, 61
2,39566, Control_c, 0, 64, 54
2,39585, Control_c, 0, 64, 49
2,39604, Control_c, 0, 64, 47
2,39623, Control_c, 0, 64, 46
2,39643, Control_c, 0, 64, 44
2,39662, Control_c, 0, 64, 42
2,39681, Control_c, 0, 64, 41
2,39700, Control_c, 0, 64, 40
2,39720, Control_c, 0, 64, 38
2,39739, Control_c, 0, 64, 36
2,39758, Control_c, 0, 64, 35
2,39777, Control_c, 0, 64, 35
2,39882, Note_on_c, 0, 51, 47
2,39889, Note_on_c, 0, 66, 61
2,39908, Note_on_c, 0, 62, 0
2,39933, Note_on_c, 0, 53, 0
2,39968, Control_c, 0, 64, 34
2,40279, Note_on_c, 0, 50, 53
2,40280, Note_on_c, 0, 68, 0
2,40282, Note_on_c, 0, 65, 57
2,40300, Note_on_c, 0, 51, 0
2,40341, Note_on_c, 0, 66, 0
2,40393, Note_on_c, 0, 63, 0
2,40658, Control_c, 0, 64, 35
2,40682, Note_on_c, 0, 63, 42
2,40695, Note_on_c, 0, 66, 54
2,40697, Note_on_c, 0, 51, 43
2,40721, Note_on_c, 0, 65, 0
2,40741, Note_on_c, 0, 50, 0
2,40863, Note_on_c, 0, 63, 0
2,41103, Note_on_c, 0, 53, 50
2,41107, Note_on_c, 0, 68, 51
2,41124, Note_on_c, 0, 62, 44
2,41138, Note_on_c, 0, 66, 0
2,41175, Note_on_c, 0, 51, 0
2,41542, Note_on_c, 0, 60, 55
2,41566, Note_on_c, 0, 62, 0
2,41637, Control_c, 0, 64, 35
2,41771, Control_c, 0, 64, 36
2,41886, Control_c, 0, 64, 36
2,41932, Note_on_c, 0, 46, 53
2,41963, Control_c, 0, 64, 37
2,41971, Note_on_c, 0, 62, 52
2,41982, Note_on_c, 0, 60, 0
2,42022, Note_on_c, 0, 53, 0
2,42040, Control_c, 0, 64, 37
2,42079, Control_c, 0, 64, 38
2,42117, Control_c, 0, 64, 38
2,42195, Note_on_c, 0, 68, 0
2,42271, Control_c, 0, 64, 39
2,42346, Note_on_c, 0, 66, 57
2,42378, Note_on_c, 0, 62, 0
2,42405, Control_c, 0, 64, 39
2,42462, Control_c, 0, 64, 40
2,42500, Control_c, 0, 64, 40
2,42517, Note_on_c, 0, 65, 57
2,42539, Control_c, 0, 64, 41
2,42597, Control_c, 0, 64, 41
2,42612, Note_on_c, 0, 46, 0
2,42612, Note_on_c, 0, 66, 0
2,42635, Control_c, 0, 64, 42
2,42693, Control_c, 0, 64, 42
2,42729, Note_on_c, 0, 51, 59
2,42731, Control_c, 0, 64, 43
2,42751, Note_on_c, 0, 65, 0
2,42753, Note_on_c, 0, 63, 46
2,42755, Note_on_c, 0, 66, 56
2,42923, Control_c, 0, 64, 43
2,42942, Control_c, 0, 64, 44
2,42962, Control_c, 0, 64, 46
2,42980, Control_c, 0, 64, 49
2,43000, Control_c, 0, 64, 53
2,43019, Control_c, 0, 64, 56
2,43039, Control_c, 0, 64, 60
2,43057, Control_c, 0, 64, 63
2,43077, Control_c, 0, 64, 64
2,43096, Control_c, 0, 64, 67
2,43115, Control_c, 0, 64, 70
2,43134, Control_c, 0, 64, 77
2,43145, Note_on_c, 0, 68, 61
2,43154, Control_c, 0, 64, 88
2,43156, Note_on_c, 0, 66, 0
2,43169, Note_on_c, 0, 65, 51
2,43173, Control_c, 0, 64, 111
2,43192, Control_c, 0, 64, 127
2,43203, Note_on_c, 0, 63, 0
2,43235, Note_on_c, 0, 68, 0
2,43499, Control_c, 0, 64, 114
2,43519, Control_c, 0, 64, 84
2,43537, Control_c, 0, 64, 68
2,43542, Note_on_c, 0, 70, 58
2,43553, Note_on_c, 0, 66, 49
2,43557, Control_c, 0, 64, 55
2,43576, Control_c, 0, 64, 21
2,43595, Control_c, 0, 64, 9
2,43595, Note_on_c, 0, 65, 0
2,43614, Control_c, 0, 64, 0
2,43634, Control_c, 0, 64, 9
2,43653, Control_c, 0, 64, 29
2,43672, Control_c, 0, 64, 49
2,43691, Control_c, 0, 64, 60
2,43711, Control_c, 0, 64, 64
2,43729, Control_c, 0, 64, 66
2,43748, Control_c, 0, 64, 69
2,43768, Control_c, 0, 64, 73
2,43787, Control_c, 0, 64, 82
2,43806, Control_c, 0, 64, 100
2,43825, Control_c, 0, 64, 127
2,43896, Note_on_c, 0, 66, 0
2,43940, Note_on_c, 0, 49, 63
2,43945, Note_on_c, 0, 70, 0
2,44033, Note_on_c, 0, 51, 0
2,44286, Control_c, 0, 64, 114
2,44305, Control_c, 0, 64, 90
2,44325, Control_c, 0, 64, 77
2,44325, Note_on_c, 0, 68, 50
2,44333, Note_on_c, 0, 71, 57
2,44334, Note_on_c, 0, 47, 53
2,44344, Control_c, 0, 64, 68
2,44363, Control_c, 0, 64, 62
2,44382, Control_c, 0, 64, 55
2,44391, Note_on_c, 0, 49, 0
2,44402, Control_c, 0, 64, 46
2,44420, Control_c, 0, 64, 41
2,44440, Control_c, 0, 64, 34
2,44459, Control_c, 0, 64, 26
2,44479, Control_c, 0, 64, 21
2,44497, Control_c, 0, 64, 19
2,44700, Note_on_c, 0, 68, 0
2,44706, Note_on_c, 0, 73, 53
2,44719, Note_on_c, 0, 66, 33
2,44735, Note_on_c, 0, 71, 0
2,44879, Note_on_c, 0, 75, 50
2,44977, Control_c, 0, 64, 20
2,45039, Note_on_c, 0, 73, 0
2,45095, Note_on_c, 0, 68, 49
2,45109, Note_on_c, 0, 75, 0
2,45115, Note_on_c, 0, 65, 26
2,45169, Control_c, 0, 64, 21
2,45212, Note_on_c, 0, 66, 0
2,45304, Control_c, 0, 64, 22
2,45323, Control_c, 0, 64, 24
2,45342, Control_c, 0, 64, 28
2,45362, Control_c, 0, 64, 34
2,45380, Control_c, 0, 64, 41
2,45400, Control_c, 0, 64, 45
2,45419, Control_c, 0, 64, 50
2,45439, Control_c, 0, 64, 55
2,45457, Control_c, 0, 64, 59
2,45477, Control_c, 0, 64, 61
2,45488, Note_on_c, 0, 65, 0
2,45496, Control_c, 0, 64, 63
2,45501, Note_on_c, 0, 61, 49
2,45515, Control_c, 0, 64, 65
2,45534, Control_c, 0, 64, 67
2,45554, Control_c, 0, 64, 71
2,45573, Control_c, 0, 64, 78
2,45592, Control_c, 0, 64, 87
2,45611, Control_c, 0, 64, 96
2,45630, Control_c, 0, 64, 102
2,45649, Control_c, 0, 64, 104
2,45726, Control_c, 0, 64, 105
2,45745, Control_c, 0, 64, 107
2,45765, Control_c, 0, 64, 108
2,45784, Control_c, 0, 64, 109
2,45803, Control_c, 0, 64, 110
2,45842, Control_c, 0, 64, 109
2,45860, Control_c, 0, 64, 107
2,45880, Control_c, 0, 64, 103
2,45885, Note_on_c, 0, 46, 47
2,45899, Control_c, 0, 64, 91
2,45912, Note_on_c, 0, 66, 56
2,45919, Control_c, 0, 64, 74
2,45927, Note_on_c, 0, 68, 0
2,45935, Note_on_c, 0, 47, 0
2,45937, Control_c, 0, 64, 64
2,45957, Control_c, 0, 64, 50
2,45976, Control_c, 0, 64, 36
2,45995, Control_c, 0, 64, 35
2,46034, Control_c, 0, 64, 40
2,46042, Note_on_c, 0, 61, 0
2,46053, Control_c, 0, 64, 52
2,46072, Control_c, 0, 64, 59
2,46091, Control_c, 0, 64, 63
2,46110, Control_c, 0, 64, 65
2,46129, Control_c, 0, 64, 67
2,46148, Control_c, 0, 64, 69
2,46168, Control_c, 0, 64, 75
2,46187, Control_c, 0, 64, 83
2,46206, Control_c, 0, 64, 98
2,46225, Control_c, 0, 64, 112
2,46245, Control_c, 0, 64, 119
2,46264, Control_c, 0, 64, 121
2,46304, Note_on_c, 0, 70, 62
2,46399, Control_c, 0, 64, 119
2,46417, Control_c, 0, 64, 118
2,46437, Control_c, 0, 64, 117
2,46456, Control_c, 0, 64, 116
2,46475, Control_c, 0, 64, 115
2,46609, Control_c, 0, 64, 114
2,46628, Control_c, 0, 64, 112
2,46648, Control_c, 0, 64, 105
2,46667, Control_c, 0, 64, 91
2,46686, Control_c, 0, 64, 75
2,46704, Note_on_c, 0, 44, 48
2,46705, Control_c, 0, 64, 63
2,46707, Note_on_c, 0, 46, 0
2,46722, Note_on_c, 0, 71, 59
2,46725, Control_c, 0, 64, 40
2,46726, Note_on_c, 0, 66, 0
2,46744, Control_c, 0, 64, 17
2,46776, Note_on_c, 0, 70, 0
2,46782, Control_c, 0, 64, 19
2,46802, Control_c, 0, 64, 37
2,46820, Control_c, 0, 64, 54
2,46840, Control_c, 0, 64, 62
2,46859, Control_c, 0, 64, 64
2,46879, Control_c, 0, 64, 67
2,46897, Control_c, 0, 64, 70
2,46917, Control_c, 0, 64, 76
2,46936, Control_c, 0, 64, 87
2,46955, Control_c, 0, 64, 105
2,46974, Control_c, 0, 64, 127
2,47118, Note_on_c, 0, 71, 0
2,47121, Note_on_c, 0, 46, 58
2,47121, Note_on_c, 0, 73, 70
2,47132, Note_on_c, 0, 44, 0
2,47204, Note_on_c, 0, 73, 0
2,47494, Control_c, 0, 64, 97
2,47513, Control_c, 0, 64, 73
2,47519, Note_on_c, 0, 75, 75
2,47526, Note_on_c, 0, 47, 51
2,47532, Control_c, 0, 64, 61
2,47532, Note_on_c, 0, 65, 59
2,47536, Note_on_c, 0, 46, 0
2,47552, Control_c, 0, 64, 42
2,47570, Control_c, 0, 64, 39
2,47589, Control_c, 0, 64, 41
2,47609, Control_c, 0, 64, 52
2,47628, Control_c, 0, 64, 62
2,47647, Control_c, 0, 64, 65
2,47652, Note_on_c, 0, 75, 0
2,47666, Control_c, 0, 64, 69
2,47686, Control_c, 0, 64, 75
2,47704, Control_c, 0, 64, 88
2,47713, Note_on_c, 0, 65, 0
2,47724, Control_c, 0, 64, 108
2,47743, Control_c, 0, 64, 127
2,47921, Note_on_c, 0, 47, 0
2,47924, Note_on_c, 0, 77, 75
2,47925, Note_on_c, 0, 49, 60
2,48318, Note_on_c, 0, 49, 0
2,48329, Note_on_c, 0, 77, 0
2,48333, Note_on_c, 0, 51, 48
2,48334, Note_on_c, 0, 78, 74
2,48339, Control_c, 0, 64, 98
2,48359, Control_c, 0, 64, 74
2,48378, Control_c, 0, 64, 60
2,48397, Control_c, 0, 64, 34
2,48416, Control_c, 0, 64, 32
2,48453, Control_c, 0, 64, 41
2,48472, Control_c, 0, 64, 55
2,48491, Control_c, 0, 64, 62
2,48510, Control_c, 0, 64, 64
2,48529, Control_c, 0, 64, 67
2,48548, Control_c, 0, 64, 70
2,48568, Control_c, 0, 64, 75
2,48587, Control_c, 0, 64, 85
2,48606, Control_c, 0, 64, 108
2,48625, Control_c, 0, 64, 127
2,48703, Note_on_c, 0, 53, 56
2,48714, Note_on_c, 0, 51, 0
2,48728, Note_on_c, 0, 80, 83
2,48803, Note_on_c, 0, 78, 0
2,48811, Note_on_c, 0, 53, 0
2,49121, Note_on_c, 0, 54, 50
2,49154, Note_on_c, 0, 63, 35
2,49157, Note_on_c, 0, 82, 79
2,49182, Control_c, 0, 64, 83
2,49202, Control_c, 0, 64, 67
2,49210, Note_on_c, 0, 80, 0
2,49220, Control_c, 0, 64, 48
2,49240, Control_c, 0, 64, 39
2,49279, Control_c, 0, 64, 42
2,49297, Control_c, 0, 64, 52
2,49317, Control_c, 0, 64, 60
2,49336, Control_c, 0, 64, 64
2,49355, Control_c, 0, 64, 67
2,49374, Control_c, 0, 64, 71
2,49394, Control_c, 0, 64, 77
2,49413, Control_c, 0, 64, 87
2,49432, Control_c, 0, 64, 103
2,49451, Control_c, 0, 64, 127
2,49535, Note_on_c, 0, 56, 56
2,49537, Note_on_c, 0, 54, 0
2,49548, Note_on_c, 0, 83, 79
2,49576, Note_on_c, 0, 82, 0
2,49874, Control_c, 0, 64, 94
2,49892, Note_on_c, 0, 56, 0
2,49893, Control_c, 0, 64, 73
2,49912, Control_c, 0, 64, 56
2,49913, Note_on_c, 0, 63, 0
2,49929, Note_on_c, 0, 61, 49
2,49930, Note_on_c, 0, 58, 45
2,49931, Control_c, 0, 64, 22
2,49950, Control_c, 0, 64, 11
2,49988, Control_c, 0, 64, 26
2,50008, Control_c, 0, 64, 47
2,50027, Control_c, 0, 64, 60
2,50046, Control_c, 0, 64, 64
2,50065, Control_c, 0, 64, 66
2,50085, Control_c, 0, 64, 68
2,50104, Control_c, 0, 64, 73
2,50123, Control_c, 0, 64, 81
2,50142, Control_c, 0, 64, 96
2,50162, Control_c, 0, 64, 127
2,50344, Note_on_c, 0, 73, 75
2,50356, Note_on_c, 0, 56, 48
2,50359, Note_on_c, 0, 58, 0
2,50359, Note_on_c, 0, 83, 0
2,50362, Note_on_c, 0, 61, 0
2,50365, Note_on_c, 0, 65, 31
2,50758, Control_c, 0, 64, 83
2,50758, Note_on_c, 0, 78, 80
2,50769, Note_on_c, 0, 58, 48
2,50770, Note_on_c, 0, 73, 0
2,50777, Control_c, 0, 64, 67
2,50783, Note_on_c, 0, 66, 51
2,50796, Control_c, 0, 64, 52
2,50815, Control_c, 0, 64, 29
2,50819, Note_on_c, 0, 56, 0
2,50835, Control_c, 0, 64, 27
2,50873, Control_c, 0, 64, 36
2,50883, Note_on_c, 0, 65, 0
2,50892, Control_c, 0, 64, 51
2,50911, Control_c, 0, 64, 61
2,50930, Control_c, 0, 64, 65
2,50949, Control_c, 0, 64, 68
2,50969, Control_c, 0, 64, 73
2,50988, Control_c, 0, 64, 81
2,51007, Control_c, 0, 64, 96
2,51026, Control_c, 0, 64, 114
2,51046, Control_c, 0, 64, 127
2,51097, Note_on_c, 0, 66, 0
2,51150, Note_on_c, 0, 58, 0
2,51161, Note_on_c, 0, 68, 68
2,51163, Note_on_c, 0, 59, 59
2,51469, Control_c, 0, 64, 115
2,51488, Control_c, 0, 64, 99
2,51507, Control_c, 0, 64, 80
2,51527, Control_c, 0, 64, 65
2,51545, Control_c, 0, 64, 42
2,51563, Note_on_c, 0, 70, 70
2,51564, Note_on_c, 0, 68, 0
2,51565, Control_c, 0, 64, 0
2,51571, Note_on_c, 0, 61, 52
2,51578, Note_on_c, 0, 59, 0
2,51661, Control_c, 0, 64, 26
2,51680, Control_c, 0, 64, 52
2,51699, Control_c, 0, 64, 62
2,51719, Control_c, 0, 64, 65
2,51738, Control_c, 0, 64, 67
2,51757, Control_c, 0, 64, 70
2,51776, Control_c, 0, 64, 76
2,51795, Note_on_c, 0, 61, 0
2,51796, Control_c, 0, 64, 88
2,51814, Control_c, 0, 64, 113
2,51834, Control_c, 0, 64, 127
2,51959, Note_on_c, 0, 70, 0
2,51985, Note_on_c, 0, 71, 62
2,52211, Note_on_c, 0, 78, 0
2,52351, Control_c, 0, 64, 95
2,52365, Note_on_c, 0, 49, 65
2,52370, Control_c, 0, 64, 75
2,52377, Note_on_c, 0, 77, 62
2,52386, Note_on_c, 0, 73, 55
2,52389, Control_c, 0, 64, 60
2,52409, Control_c, 0, 64, 0
2,52418, Note_on_c, 0, 71, 0
2,52524, Control_c, 0, 64, 9
2,52543, Control_c, 0, 64, 50
2,52563, Control_c, 0, 64, 61
2,52581, Control_c, 0, 64, 64
2,52601, Control_c, 0, 64, 66
2,52621, Control_c, 0, 64, 69
2,52640, Control_c, 0, 64, 75
2,52659, Control_c, 0, 64, 88
2,52679, Control_c, 0, 64, 107
2,52698, Control_c, 0, 64, 127
2,52783, Note_on_c, 0, 73, 0
2,52797, Note_on_c, 0, 71, 57
2,53159, Control_c, 0, 64, 121
2,53170, Note_on_c, 0, 71, 0
2,53178, Control_c, 0, 64, 93
2,53186, Note_on_c, 0, 42, 61
2,53195, Note_on_c, 0, 70, 59
2,53197, Control_c, 0, 64, 74
2,53216, Control_c, 0, 64, 60
2,53235, Control_c, 0, 64, 26
2,53254, Control_c, 0, 64, 0
2,53256, Note_on_c, 0, 49, 0
2,53321, Note_on_c, 0, 77, 0
2,53349, Control_c, 0, 64, 43
2,53369, Control_c, 0, 64, 59
2,53388, Control_c, 0, 64, 64
2,53407, Control_c, 0, 64, 65
2,53426, Control_c, 0, 64, 67
2,53446, Control_c, 0, 64, 70
2,53464, Control_c, 0, 64, 76
2,53484, Control_c, 0, 64, 89
2,53503, Control_c, 0, 64, 109
2,53523, Control_c, 0, 64, 127
2,53633, Note_on_c, 0, 68, 65
2,53634, Note_on_c, 0, 70, 0
2,53965, Control_c, 0, 64, 112
2,53984, Control_c, 0, 64, 83
2,54004, Control_c, 0, 64, 67
2,54022, Control_c, 0, 64, 50
2,54023, Note_on_c, 0, 54, 61
2,54042, Control_c, 0, 64, 0
2,54046, Note_on_c, 0, 66, 45
2,54047, Note_on_c, 0, 75, 48
2,54054, Note_on_c, 0, 68, 0
2,54119, Control_c, 0, 64, 18
2,54138, Control_c, 0, 64, 46
2,54157, Control_c, 0, 64, 60
2,54176, Control_c, 0, 64, 64
2,54195, Control_c, 0, 64, 66
2,54214, Control_c, 0, 64, 69
2,54233, Control_c, 0, 64, 73
2,54252, Control_c, 0, 64, 81
2,54271, Control_c, 0, 64, 94
2,54290, Control_c, 0, 64, 115
2,54309, Control_c, 0, 64, 127
2,54422, Note_on_c, 0, 65, 51
2,54425, Note_on_c, 0, 73, 63
2,54437, Note_on_c, 0, 66, 0
2,54502, Note_on_c, 0, 65, 0
2,54626, Note_on_c, 0, 75, 0
2,54751, Control_c, 0, 64, 99
2,54770, Control_c, 0, 64, 75
2,54789, Control_c, 0, 64, 62
2,54800, Note_on_c, 0, 42, 0
2,54809, Control_c, 0, 64, 43
2,54821, Note_on_c, 0, 72, 66
2,54828, Control_c, 0, 64, 35
2,54847, Control_c, 0, 64, 36
2,54849, Note_on_c, 0, 63, 45
2,54866, Control_c, 0, 64, 48
2,54886, Control_c, 0, 64, 60
2,54904, Control_c, 0, 64, 65
2,54924, Control_c, 0, 64, 68
2,54943, Control_c, 0, 64, 73
2,54963, Control_c, 0, 64, 81
2,54972, Note_on_c, 0, 73, 0
2,54981, Control_c, 0, 64, 92
2,54982, Note_on_c, 0, 63, 0
2,55001, Control_c, 0, 64, 105
2,55020, Control_c, 0, 64, 123
2,55040, Control_c, 0, 64, 127
2,55156, Note_on_c, 0, 54, 0
2,55206, Note_on_c, 0, 74, 72
2,55212, Control_c, 0, 64, 106
2,55231, Control_c, 0, 64, 77
2,55233, Note_on_c, 0, 53, 55
2,55235, Note_on_c, 0, 65, 47
2,55239, Note_on_c, 0, 72, 0
2,55250, Control_c, 0, 64, 63
2,55269, Control_c, 0, 64, 46
2,55289, Control_c, 0, 64, 45
2,55298, Note_on_c, 0, 65, 0
2,55308, Control_c, 0, 64, 50
2,55327, Control_c, 0, 64, 60
2,55346, Control_c, 0, 64, 65
2,55366, Control_c, 0, 64, 70
2,55384, Control_c, 0, 64, 76
2,55404, Control_c, 0, 64, 86
2,55423, Control_c, 0, 64, 96
2,55443, Control_c, 0, 64, 110
2,55461, Control_c, 0, 64, 127
2,55575, Control_c, 0, 64, 81
2,55595, Control_c, 0, 64, 65
2,55613, Control_c, 0, 64, 52
2,55624, Note_on_c, 0, 75, 75
2,55633, Control_c, 0, 64, 48
2,55635, Note_on_c, 0, 51, 49
2,55635, Note_on_c, 0, 66, 53
2,55652, Control_c, 0, 64, 51
2,55654, Note_on_c, 0, 53, 0
2,55656, Note_on_c, 0, 74, 0
2,55670, Control_c, 0, 64, 60
2,55690, Control_c, 0, 64, 66
2,55709, Control_c, 0, 64, 70
2,55729, Control_c, 0, 64, 78
2,55747, Control_c, 0, 64, 90
2,55754, Note_on_c, 0, 75, 0
2,55767, Control_c, 0, 64, 108
2,55786, Control_c, 0, 64, 127
2,55925, Note_on_c, 0, 66, 0
2,55998, Control_c, 0, 64, 84
2,56014, Note_on_c, 0, 77, 74
2,56016, Control_c, 0, 64, 68
2,56023, Note_on_c, 0, 49, 51
2,56024, Note_on_c, 0, 51, 0
2,56036, Control_c, 0, 64, 60
2,56055, Control_c, 0, 64, 58
2,56059, Note_on_c, 0, 70, 35
2,56075, Control_c, 0, 64, 60
2,56093, Control_c, 0, 64, 64
2,56108, Note_on_c, 0, 70, 0
2,56112, Control_c, 0, 64, 68
2,56132, Control_c, 0, 64, 74
2,56150, Control_c, 0, 64, 83
2,56163, Note_on_c, 0, 77, 0
2,56170, Control_c, 0, 64, 95
2,56189, Control_c, 0, 64, 106
2,56209, Control_c, 0, 64, 117
2,56227, Control_c, 0, 64, 127
2,56413, Note_on_c, 0, 49, 0
2,56419, Control_c, 0, 64, 88
2,56423, Note_on_c, 0, 78, 73
2,56436, Note_on_c, 0, 48, 53
2,56439, Control_c, 0, 64, 69
2,56439, Note_on_c, 0, 75, 56
2,56460, Control_c, 0, 64, 56
2,56480, Control_c, 0, 64, 40
2,56498, Control_c, 0, 64, 39
2,56518, Control_c, 0, 64, 44
2,56537, Control_c, 0, 64, 57
2,56556, Control_c, 0, 64, 63
2,56575, Control_c, 0, 64, 67
2,56595, Control_c, 0, 64, 71
2,56614, Control_c, 0, 64, 78
2,56632, Control_c, 0, 64, 89
2,56652, Control_c, 0, 64, 106
2,56671, Control_c, 0, 64, 127
2,56857, Note_on_c, 0, 46, 45
2,56857, Note_on_c, 0, 73, 58
2,56884, Note_on_c, 0, 48, 0
2,56990, Note_on_c, 0, 75, 0
2,57034, Note_on_c, 0, 78, 0
2,57226, Control_c, 0, 64, 93
2,57245, Control_c, 0, 64, 72
2,57263, Note_on_c, 0, 45, 46
2,57264, Control_c, 0, 64, 60
2,57268, Note_on_c, 0, 77, 62
2,57278, Note_on_c, 0, 72, 51
2,57284, Control_c, 0, 64, 35
2,57303, Control_c, 0, 64, 17
2,57320, Note_on_c, 0, 46, 0
2,57322, Control_c, 0, 64, 0
2,57329, Note_on_c, 0, 73, 0
2,57379, Control_c, 0, 64, 29
2,57399, Control_c, 0, 64, 51
2,57418, Control_c, 0, 64, 62
2,57438, Control_c, 0, 64, 66
2,57456, Control_c, 0, 64, 70
2,57476, Control_c, 0, 64, 77
2,57495, Control_c, 0, 64, 86
2,57515, Control_c, 0, 64, 100
2,57533, Control_c, 0, 64, 127
2,57659, Note_on_c, 0, 75, 67
2,57660, Note_on_c, 0, 41, 49
2,57671, Note_on_c, 0, 45, 0
2,57975, Control_c, 0, 64, 106
2,57995, Control_c, 0, 64, 85
2,58013, Control_c, 0, 64, 69
2,58032, Control_c, 0, 64, 53
2,58052, Control_c, 0, 64, 9
2,58070, Control_c, 0, 64, 0
2,58070, Note_on_c, 0, 73, 66
2,58072, Note_on_c, 0, 46, 42
2,58083, Note_on_c, 0, 41, 0
2,58104, Note_on_c, 0, 72, 0
2,58114, Note_on_c, 0, 77, 0
2,58131, Note_on_c, 0, 75, 0
2,58147, Control_c, 0, 64, 31
2,58167, Control_c, 0, 64, 52
2,58186, Control_c, 0, 64, 62
2,58205, Control_c, 0, 64, 65
2,58224, Control_c, 0, 64, 67
2,58244, Control_c, 0, 64, 71
2,58263, Control_c, 0, 64, 77
2,58282, Control_c, 0, 64, 87
2,58301, Control_c, 0, 64, 112
2,58321, Control_c, 0, 64, 127
2,58435, Note_on_c, 0, 46, 0
2,58450, Note_on_c, 0, 48, 45
2,58468, Note_on_c, 0, 75, 73
2,58538, Note_on_c, 0, 73, 0
2,58839, Control_c, 0, 64, 92
2,58858, Control_c, 0, 64, 69
2,58869, Note_on_c, 0, 49, 46
2,58878, Control_c, 0, 64, 54
2,58882, Note_on_c, 0, 48, 0
2,58884, Note_on_c, 0, 77, 66
2,58896, Control_c, 0, 64, 18
2,58908, Note_on_c, 0, 75, 0
2,58909, Note_on_c, 0, 70, 43
2,58916, Control_c, 0, 64, 0
2,58955, Control_c, 0, 64, 13
2,58973, Control_c, 0, 64, 41
2,58992, Control_c, 0, 64, 59
2,59012, Control_c, 0, 64, 64
2,59030, Control_c, 0, 64, 67
2,59050, Control_c, 0, 64, 70
2,59069, Control_c, 0, 64, 75
2,59089, Control_c, 0, 64, 84
2,59107, Control_c, 0, 64, 98
2,59127, Control_c, 0, 64, 127
2,59261, Control_c, 0, 64, 83
2,59270, Note_on_c, 0, 77, 0
2,59279, Note_on_c, 0, 78, 65
2,59280, Note_on_c, 0, 51, 38
2,59281, Control_c, 0, 64, 69
2,59299, Control_c, 0, 64, 63
2,59300, Note_on_c, 0, 49, 0
2,59319, Control_c, 0, 64, 61
2,59340, Control_c, 0, 64, 63
2,59360, Control_c, 0, 64, 65
2,59378, Control_c, 0, 64, 68
2,59398, Control_c, 0, 64, 75
2,59417, Control_c, 0, 64, 82
2,59436, Control_c, 0, 64, 90
2,59455, Control_c, 0, 64, 98
2,59475, Control_c, 0, 64, 104
2,59494, Control_c, 0, 64, 107
2,59512, Control_c, 0, 64, 108
2,59609, Control_c, 0, 64, 101
2,59628, Control_c, 0, 64, 85
2,59647, Control_c, 0, 64, 70
2,59662, Note_on_c, 0, 51, 0
2,59666, Control_c, 0, 64, 59
2,59683, Note_on_c, 0, 73, 63
2,59686, Control_c, 0, 64, 42
2,59696, Note_on_c, 0, 53, 30
2,59704, Control_c, 0, 64, 41
2,59724, Control_c, 0, 64, 41
2,59743, Control_c, 0, 64, 49
2,59763, Control_c, 0, 64, 59
2,59775, Note_on_c, 0, 78, 0
2,59781, Control_c, 0, 64, 64
2,59801, Control_c, 0, 64, 67
2,59820, Control_c, 0, 64, 72
2,59840, Control_c, 0, 64, 80
2,59858, Control_c, 0, 64, 95
2,59878, Control_c, 0, 64, 127
2,60063, Note_on_c, 0, 73, 0
2,60069, Note_on_c, 0, 51, 40
2,60084, Note_on_c, 0, 70, 0
2,60090, Note_on_c, 0, 53, 0
2,60429, Note_on_c, 0, 51, 0
2,60432, Control_c, 0, 64, 110
2,60450, Note_on_c, 0, 53, 34
2,60452, Control_c, 0, 64, 79
2,60470, Control_c, 0, 64, 64
2,60484, Note_on_c, 0, 72, 62
2,60490, Control_c, 0, 64, 47
2,60508, Note_on_c, 0, 69, 42
2,60509, Control_c, 0, 64, 39
2,60529, Control_c, 0, 64, 40
2,60547, Control_c, 0, 64, 47
2,60567, Control_c, 0, 64, 59
2,60586, Control_c, 0, 64, 65
2,60605, Control_c, 0, 64, 69
2,60624, Control_c, 0, 64, 75
2,60644, Control_c, 0, 64, 90
2,60663, Control_c, 0, 64, 114
2,60682, Control_c, 0, 64, 127
2,60685, Note_on_c, 0, 69, 0
2,60865, Note_on_c, 0, 72, 0
2,60875, Note_on_c, 0, 41, 41
2,61407, Note_on_c, 0, 41, 0
2,61407, Note_on_c, 0, 46, 37
2,61470, Note_on_c, 0, 58, 68
2,61481, Note_on_c, 0, 70, 66
2,61508, Control_c, 0, 64, 95
2,61528, Control_c, 0, 64, 73
2,61547, Control_c, 0, 64, 61
2,61566, Control_c, 0, 64, 38
2,61584, Note_on_c, 0, 53, 0
2,61585, Control_c, 0, 64, 21
2,61605, Control_c, 0, 64, 20
2,61624, Control_c, 0, 64, 21
2,61643, Control_c, 0, 64, 34
2,61662, Control_c, 0, 64, 50
2,61682, Control_c, 0, 64, 61
2,61700, Control_c, 0, 64, 65
2,61720, Control_c, 0, 64, 67
2,61739, Control_c, 0, 64, 72
2,61759, Control_c, 0, 64, 79
2,61777, Control_c, 0, 64, 90
2,61797, Control_c, 0, 64, 108
2,61816, Control_c, 0, 64, 127
2,61963, Note_on_c, 0, 45, 41
2,61968, Note_on_c, 0, 46, 0
2,62329, Note_on_c, 0, 46, 45
2,62333, Control_c, 0, 64, 90
2,62352, Control_c, 0, 64, 72
2,62356, Note_on_c, 0, 45, 0
2,62372, Control_c, 0, 64, 60
2,62385, Note_on_c, 0, 65, 68
2,62390, Control_c, 0, 64, 38
2,62410, Control_c, 0, 64, 24
2,62429, Control_c, 0, 64, 23
2,62437, Note_on_c, 0, 58, 0
2,62449, Control_c, 0, 64, 24
2,62467, Control_c, 0, 64, 36
2,62487, Control_c, 0, 64, 53
2,62506, Control_c, 0, 64, 62
2,62525, Control_c, 0, 64, 66
2,62539, Note_on_c, 0, 70, 0
2,62544, Control_c, 0, 64, 69
2,62564, Control_c, 0, 64, 75
2,62583, Control_c, 0, 64, 84
2,62602, Control_c, 0, 64, 98
2,62621, Control_c, 0, 64, 127
2,62783, Note_on_c, 0, 46, 0
2,62812, Note_on_c, 0, 48, 50
2,63159, Control_c, 0, 64, 97
2,63178, Control_c, 0, 64, 75
2,63198, Control_c, 0, 64, 63
2,63202, Note_on_c, 0, 48, 0
2,63203, Note_on_c, 0, 49, 42
2,63216, Control_c, 0, 64, 42
2,63220, Note_on_c, 0, 70, 74
2,63236, Control_c, 0, 64, 26
2,63275, Control_c, 0, 64, 28
2,63293, Control_c, 0, 64, 44
2,63312, Control_c, 0, 64, 59
2,63332, Control_c, 0, 64, 64
2,63350, Control_c, 0, 64, 67
2,63370, Control_c, 0, 64, 70
2,63389, Control_c, 0, 64, 76
2,63409, Control_c, 0, 64, 83
2,63427, Control_c, 0, 64, 92
2,63447, Control_c, 0, 64, 103
2,63466, Control_c, 0, 64, 114
2,63485, Control_c, 0, 64, 123
2,63504, Control_c, 0, 64, 127
2,63620, Note_on_c, 0, 48, 42
2,63639, Note_on_c, 0, 66, 71
2,63660, Note_on_c, 0, 49, 0
2,63694, Note_on_c, 0, 70, 0
2,63765, Note_on_c, 0, 65, 0
2,63814, Note_on_c, 0, 66, 0
2,64004, Control_c, 0, 64, 96
2,64020, Note_on_c, 0, 77, 76
2,64023, Control_c, 0, 64, 73
2,64040, Note_on_c, 0, 49, 47
2,64042, Control_c, 0, 64, 60
2,64045, Note_on_c, 0, 48, 0
2,64046, Note_on_c, 0, 65, 65
2,64061, Control_c, 0, 64, 37
2,64081, Control_c, 0, 64, 30
2,64119, Control_c, 0, 64, 41
2,64138, Control_c, 0, 64, 57
2,64158, Control_c, 0, 64, 64
2,64160, Note_on_c, 0, 77, 0
2,64176, Control_c, 0, 64, 67
2,64196, Control_c, 0, 64, 72
2,64215, Control_c, 0, 64, 82
2,64235, Control_c, 0, 64, 97
2,64253, Control_c, 0, 64, 127
2,64445, Note_on_c, 0, 63, 75
2,64446, Note_on_c, 0, 65, 0
2,64458, Note_on_c, 0, 51, 47
2,64460, Note_on_c, 0, 49, 0
2,64772, Control_c, 0, 64, 84
2,64790, Control_c, 0, 64, 66
2,64810, Control_c, 0, 64, 44
2,64829, Control_c, 0, 64, 0
2,64839, Note_on_c, 0, 61, 74
2,64851, Note_on_c, 0, 53, 43
2,64852, Note_on_c, 0, 63, 0
2,64856, Note_on_c, 0, 51, 0
2,64887, Control_c, 0, 64, 9
2,64906, Control_c, 0, 64, 49
2,64925, Control_c, 0, 64, 61
2,64939, Note_on_c, 0, 61, 0
2,64944, Control_c, 0, 64, 65
2,64964, Control_c, 0, 64, 68
2,64983, Control_c, 0, 64, 73
2,65002, Control_c, 0, 64, 83
2,65021, Control_c, 0, 64, 104
2,65041, Control_c, 0, 64, 127
2,65107, Note_on_c, 0, 63, 60
2,65147, Note_on_c, 0, 63, 0
2,65195, Note_on_c, 0, 78, 75
2,65207, Note_on_c, 0, 51, 46
2,65224, Note_on_c, 0, 53, 0
2,65358, Note_on_c, 0, 78, 0
2,65576, Note_on_c, 0, 77, 80
2,65578, Control_c, 0, 64, 106
2,65595, Note_on_c, 0, 49, 48
2,65598, Control_c, 0, 64, 76
2,65598, Note_on_c, 0, 65, 57
2,65616, Control_c, 0, 64, 62
2,65618, Note_on_c, 0, 51, 0
2,65636, Control_c, 0, 64, 26
2,65655, Control_c, 0, 64, 0
2,65713, Control_c, 0, 64, 13
2,65733, Control_c, 0, 64, 50
2,65751, Control_c, 0, 64, 62
2,65771, Control_c, 0, 64, 65
2,65790, Control_c, 0, 64, 69
2,65810, Control_c, 0, 64, 75
2,65828, Control_c, 0, 64, 86
2,65848, Control_c, 0, 64, 103
2,65867, Control_c, 0, 64, 127
2,65946, Note_on_c, 0, 51, 44
2,65951, Note_on_c, 0, 75, 82
2,65991, Note_on_c, 0, 49, 0
2,66008, Note_on_c, 0, 77, 0
2,66106, Note_on_c, 0, 51, 0
2,66134, Note_on_c, 0, 53, 54
2,66308, Control_c, 0, 64, 98
2,66322, Note_on_c, 0, 53, 0
2,66328, Control_c, 0, 64, 73
2,66341, Note_on_c, 0, 73, 73
2,66347, Control_c, 0, 64, 59
2,66359, Note_on_c, 0, 54, 47
2,66360, Note_on_c, 0, 58, 43
2,66366, Control_c, 0, 64, 21
2,66385, Control_c, 0, 64, 0
2,66385, Note_on_c, 0, 75, 0
2,66424, Control_c, 0, 64, 25
2,66443, Control_c, 0, 64, 51
2,66444, Note_on_c, 0, 54, 0
2,66462, Control_c, 0, 64, 62
2,66482, Control_c, 0, 64, 65
2,66500, Control_c, 0, 64, 68
2,66520, Control_c, 0, 64, 72
2,66536, Note_on_c, 0, 53, 17
2,66539, Control_c, 0, 64, 80
2,66559, Control_c, 0, 64, 97
2,66577, Control_c, 0, 64, 127
2,66695, Note_on_c, 0, 53, 0
2,66704, Note_on_c, 0, 54, 42
2,66726, Note_on_c, 0, 75, 78
2,66740, Note_on_c, 0, 58, 0
2,66751, Note_on_c, 0, 54, 0
2,66782, Note_on_c, 0, 73, 0
2,67057, Control_c, 0, 64, 103
2,67077, Control_c, 0, 64, 76
2,67092, Note_on_c, 0, 65, 0
2,67095, Note_on_c, 0, 45, 46
2,67096, Control_c, 0, 64, 60
2,67114, Control_c, 0, 64, 29
2,67114, Note_on_c, 0, 77, 75
2,67134, Control_c, 0, 64, 0
2,67191, Control_c, 0, 64, 35
2,67211, Control_c, 0, 64, 55
2,67230, Control_c, 0, 64, 63
2,67250, Control_c, 0, 64, 67
2,67253, Note_on_c, 0, 75, 0
2,67268, Control_c, 0, 64, 71
2,67288, Control_c, 0, 64, 78
2,67294, Note_on_c, 0, 77, 0
2,67307, Control_c, 0, 64, 90
2,67326, Control_c, 0, 64, 111
2,67345, Control_c, 0, 64, 127
2,67418, Note_on_c, 0, 45, 0
2,67521, Note_on_c, 0, 63, 67
2,67845, Control_c, 0, 64, 89
2,67864, Control_c, 0, 64, 70
2,67883, Control_c, 0, 64, 55
2,67902, Control_c, 0, 64, 0
2,67916, Note_on_c, 0, 46, 41
2,67938, Note_on_c, 0, 70, 46
2,67979, Control_c, 0, 64, 27
2,67999, Control_c, 0, 64, 55
2,68017, Control_c, 0, 64, 63
2,68037, Control_c, 0, 64, 67
2,68056, Control_c, 0, 64, 72
2,68074, Control_c, 0, 64, 82
2,68094, Control_c, 0, 64, 100
2,68113, Control_c, 0, 64, 127
2,68293, Note_on_c, 0, 46, 0
2,68314, Note_on_c, 0, 61, 64
2,68375, Note_on_c, 0, 63, 0
2,68389, Note_on_c, 0, 70, 0
2,68510, Note_on_c, 0, 61, 0
2,68709, Note_on_c, 0, 60, 54
2,68718, Note_on_c, 0, 48, 53
2,68747, Control_c, 0, 64, 80
2,68766, Control_c, 0, 64, 65
2,68785, Control_c, 0, 64, 43
2,68805, Control_c, 0, 64, 0
2,68862, Control_c, 0, 64, 26
2,68882, Control_c, 0, 64, 54
2,68900, Control_c, 0, 64, 63
2,68920, Control_c, 0, 64, 66
2,68939, Control_c, 0, 64, 69
2,68959, Control_c, 0, 64, 74
2,68977, Control_c, 0, 64, 82
2,68997, Control_c, 0, 64, 96
2,69016, Control_c, 0, 64, 127
2,69021, Note_on_c, 0, 60, 0
2,69128, Note_on_c, 0, 75, 79
2,69467, Note_on_c, 0, 48, 0
2,69509, Note_on_c, 0, 49, 46
2,69514, Control_c, 0, 64, 90
2,69523, Note_on_c, 0, 58, 43
2,69534, Control_c, 0, 64, 70
2,69554, Control_c, 0, 64, 54
2,69574, Control_c, 0, 64, 0
2,69631, Control_c, 0, 64, 17
2,69650, Control_c, 0, 64, 47
2,69669, Control_c, 0, 64, 61
2,69689, Control_c, 0, 64, 64
2,69708, Control_c, 0, 64, 67
2,69727, Control_c, 0, 64, 71
2,69746, Control_c, 0, 64, 77
2,69766, Control_c, 0, 64, 88
2,69784, Control_c, 0, 64, 106
2,69804, Control_c, 0, 64, 127
2,69893, Note_on_c, 0, 49, 0
2,69913, Note_on_c, 0, 46, 49
2,69920, Note_on_c, 0, 73, 70
2,69993, Note_on_c, 0, 75, 0
2,70059, Note_on_c, 0, 73, 0
2,70337, Note_on_c, 0, 72, 69
2,70341, Control_c, 0, 64, 110
2,70342, Note_on_c, 0, 53, 40
2,70361, Control_c, 0, 64, 81
2,70380, Control_c, 0, 64, 66
2,70400, Control_c, 0, 64, 44
2,70418, Control_c, 0, 64, 15
2,70438, Control_c, 0, 64, 9
2,70476, Control_c, 0, 64, 22
2,70495, Control_c, 0, 64, 46
2,70514, Control_c, 0, 64, 60
2,70534, Control_c, 0, 64, 65
2,70552, Control_c, 0, 64, 68
2,70572, Control_c, 0, 64, 71
2,70591, Control_c, 0, 64, 75
2,70610, Control_c, 0, 64, 79
2,70629, Control_c, 0, 64, 82
2,70649, Control_c, 0, 64, 84
2,70681, Note_on_c, 0, 46, 0
2,70706, Control_c, 0, 64, 84
2,70726, Control_c, 0, 64, 82
2,70730, Note_on_c, 0, 68, 75
2,70734, Note_on_c, 0, 51, 44
2,70744, Control_c, 0, 64, 77
2,70746, Note_on_c, 0, 53, 0
2,70764, Control_c, 0, 64, 69
2,70783, Control_c, 0, 64, 61
2,70787, Note_on_c, 0, 72, 0
2,70803, Control_c, 0, 64, 39
2,70821, Control_c, 0, 64, 0
2,71108, Note_on_c, 0, 51, 0
2,71125, Note_on_c, 0, 50, 47
2,71131, Note_on_c, 0, 70, 62
2,71415, Control_c, 0, 64, 15
2,71434, Control_c, 0, 64, 26
2,71453, Control_c, 0, 64, 29
2,71472, Control_c, 0, 64, 31
2,71510, Control_c, 0, 64, 31
2,71517, Note_on_c, 0, 51, 47
2,71523, Note_on_c, 0, 50, 0
2,71540, Note_on_c, 0, 66, 69
2,71569, Note_on_c, 0, 68, 0
2,71582, Note_on_c, 0, 70, 0
2,71607, Control_c, 0, 64, 31
2,71626, Control_c, 0, 64, 29
2,71645, Control_c, 0, 64, 27
2,71659, Note_on_c, 0, 58, 0
2,71664, Control_c, 0, 64, 26
2,71684, Control_c, 0, 64, 25
2,71761, Control_c, 0, 64, 27
2,71779, Control_c, 0, 64, 34
2,71799, Control_c, 0, 64, 43
2,71820, Control_c, 0, 64, 51
2,71840, Control_c, 0, 64, 57
2,71858, Control_c, 0, 64, 59
2,71878, Control_c, 0, 64, 61
2,71897, Control_c, 0, 64, 63
2,71915, Control_c, 0, 64, 64
2,71933, Note_on_c, 0, 66, 0
2,71935, Control_c, 0, 64, 66
2,71941, Note_on_c, 0, 65, 69
2,71954, Control_c, 0, 64, 69
2,71974, Control_c, 0, 64, 75
2,71992, Control_c, 0, 64, 84
2,72012, Control_c, 0, 64, 98
2,72018, Note_on_c, 0, 65, 0
2,72031, Control_c, 0, 64, 119
2,72050, Control_c, 0, 64, 127
2,72332, Note_on_c, 0, 50, 51
2,72339, Note_on_c, 0, 51, 0
2,72345, Note_on_c, 0, 80, 85
2,72424, Note_on_c, 0, 50, 0
2,72702, Control_c, 0, 64, 104
2,72713, Note_on_c, 0, 51, 57
2,72722, Control_c, 0, 64, 79
2,72728, Note_on_c, 0, 63, 47
2,72740, Control_c, 0, 64, 64
2,72760, Control_c, 0, 64, 48
2,72779, Control_c, 0, 64, 31
2,72799, Control_c, 0, 64, 27
2,72817, Control_c, 0, 64, 24
2,72837, Control_c, 0, 64, 23
2,73121, Note_on_c, 0, 60, 42
2,73136, Note_on_c, 0, 78, 74
2,73222, Note_on_c, 0, 63, 0
2,73297, Control_c, 0, 64, 24
2,73450, Control_c, 0, 64, 25
2,73469, Control_c, 0, 64, 27
2,73489, Control_c, 0, 64, 32
2,73507, Control_c, 0, 64, 37
2,73524, Note_on_c, 0, 60, 0
2,73527, Control_c, 0, 64, 42
2,73537, Note_on_c, 0, 80, 0
2,73541, Note_on_c, 0, 77, 72
2,73546, Control_c, 0, 64, 47
2,73549, Note_on_c, 0, 57, 45
2,73565, Control_c, 0, 64, 54
2,73584, Control_c, 0, 64, 58
2,73604, Control_c, 0, 64, 60
2,73623, Control_c, 0, 64, 62
2,73642, Control_c, 0, 64, 63
2,73661, Control_c, 0, 64, 65
2,73681, Control_c, 0, 64, 66
2,73699, Control_c, 0, 64, 69
2,73719, Control_c, 0, 64, 72
2,73738, Control_c, 0, 64, 78
2,73758, Control_c, 0, 64, 87
2,73776, Control_c, 0, 64, 100
2,73784, Note_on_c, 0, 78, 0
2,73795, Control_c, 0, 64, 118
2,73815, Control_c, 0, 64, 127
2,73912, Note_on_c, 0, 57, 0
2,73937, Note_on_c, 0, 58, 55
2,73938, Note_on_c, 0, 61, 43
2,73951, Note_on_c, 0, 77, 0
2,74179, Control_c, 0, 64, 119
2,74199, Control_c, 0, 64, 107
2,74218, Control_c, 0, 64, 97
2,74238, Control_c, 0, 64, 85
2,74256, Control_c, 0, 64, 76
2,74275, Control_c, 0, 64, 70
2,74279, Note_on_c, 0, 51, 0
2,74295, Control_c, 0, 64, 66
2,74308, Note_on_c, 0, 54, 42
2,74309, Control_c, 0, 64, 62
2,74309, Note_on_c, 0, 70, 73
2,74327, Control_c, 0, 64, 58
2,74345, Control_c, 0, 64, 54
2,74364, Control_c, 0, 64, 48
2,74384, Control_c, 0, 64, 44
2,74402, Control_c, 0, 64, 41
2,74422, Control_c, 0, 64, 37
2,74441, Control_c, 0, 64, 32
2,74460, Control_c, 0, 64, 27
2,74478, Note_on_c, 0, 75, 70
2,74479, Control_c, 0, 64, 19
2,74499, Control_c, 0, 64, 11
2,74518, Control_c, 0, 64, 0
2,74544, Note_on_c, 0, 70, 0
2,74662, Note_on_c, 0, 61, 0
2,74675, Note_on_c, 0, 77, 72
2,74685, Note_on_c, 0, 58, 0
2,74685, Note_on_c, 0, 75, 0
2,74690, Note_on_c, 0, 54, 0
2,74694, Note_on_c, 0, 69, 62
2,74699, Note_on_c, 0, 53, 47
2,74807, Note_on_c, 0, 69, 0
2,74852, Note_on_c, 0, 78, 70
2,74871, Note_on_c, 0, 77, 0
2,75056, Note_on_c, 0, 78, 0
2,75058, Note_on_c, 0, 75, 72
2,75064, Note_on_c, 0, 70, 59
2,75074, Note_on_c, 0, 53, 0
2,75075, Note_on_c, 0, 54, 47
2,75154, Control_c, 0, 64, 15
2,75173, Control_c, 0, 64, 31
2,75193, Control_c, 0, 64, 46
2,75211, Control_c, 0, 64, 58
2,75231, Control_c, 0, 64, 61
2,75250, Control_c, 0, 64, 63
2,75269, Control_c, 0, 64, 65
2,75288, Control_c, 0, 64, 67
2,75305, Control_c, 0, 64, 71
2,75324, Control_c, 0, 64, 78
2,75344, Control_c, 0, 64, 92
2,75362, Control_c, 0, 64, 107
2,75382, Control_c, 0, 64, 127
2,75409, Note_on_c, 0, 70, 0
2,75573, Control_c, 0, 64, 121
2,75593, Control_c, 0, 64, 118
2,75612, Control_c, 0, 64, 117
2,75631, Control_c, 0, 64, 116
2,75663, Note_on_c, 0, 77, 74
2,75687, Note_on_c, 0, 75, 0
2,75710, Control_c, 0, 64, 115
2,75729, Control_c, 0, 64, 114
2,75764, Note_on_c, 0, 77, 0
2,75767, Control_c, 0, 64, 113
2,75787, Control_c, 0, 64, 112
2,75806, Control_c, 0, 64, 107
2,75825, Control_c, 0, 64, 94
2,75844, Control_c, 0, 64, 77
2,75864, Control_c, 0, 64, 65
2,75879, Note_on_c, 0, 54, 0
2,75881, Note_on_c, 0, 77, 77
2,75883, Control_c, 0, 64, 48
2,75887, Note_on_c, 0, 53, 45
2,75889, Note_on_c, 0, 69, 58
2,75902, Control_c, 0, 64, 0
2,75998, Control_c, 0, 64, 41
2,76018, Control_c, 0, 64, 58
2,76034, Note_on_c, 0, 69, 0
2,76036, Control_c, 0, 64, 64
2,76056, Control_c, 0, 64, 66
2,76075, Control_c, 0, 64, 69
2,76093, Control_c, 0, 64, 74
2,76113, Control_c, 0, 64, 85
2,76119, Note_on_c, 0, 77, 0
2,76132, Control_c, 0, 64, 107
2,76152, Control_c, 0, 64, 127
2,76450, Note_on_c, 0, 53, 0
2,76709, Note_on_c, 0, 82, 84
2,76723, Note_on_c, 0, 70, 74
2,76726, Control_c, 0, 64, 86
2,76746, Control_c, 0, 64, 71
2,76765, Control_c, 0, 64, 61
2,76784, Control_c, 0, 64, 49
2,76803, Control_c, 0, 64, 41
2,76823, Control_c, 0, 64, 38
2,76842, Control_c, 0, 64, 32
2,76861, Control_c, 0, 64, 17
2,76880, Control_c, 0, 64, 0
2,77480, Note_on_c, 0, 54, 49
2,77514, Control_c, 0, 64, 9
2,77533, Control_c, 0, 64, 22
2,77552, Control_c, 0, 64, 34
2,77553, Note_on_c, 0, 75, 75
2,77573, Control_c, 0, 64, 42
2,77593, Control_c, 0, 64, 50
2,77611, Control_c, 0, 64, 55
2,77631, Control_c, 0, 64, 59
2,77650, Control_c, 0, 64, 62
2,77669, Control_c, 0, 64, 63
2,77688, Control_c, 0, 64, 65
2,77708, Control_c, 0, 64, 67
2,77725, Note_on_c, 0, 82, 0
2,77727, Control_c, 0, 64, 71
2,77746, Control_c, 0, 64, 77
2,77765, Control_c, 0, 64, 87
2,77785, Control_c, 0, 64, 104
2,77804, Control_c, 0, 64, 127
2,77804, Note_on_c, 0, 70, 0
2,77947, Note_on_c, 0, 83, 79
2,78303, Control_c, 0, 64, 96
2,78322, Control_c, 0, 64, 73
2,78342, Control_c, 0, 64, 61
2,78357, Note_on_c, 0, 59, 67
2,78359, Note_on_c, 0, 82, 76
2,78360, Control_c, 0, 64, 39
2,78380, Control_c, 0, 64, 29
2,78419, Control_c, 0, 64, 33
2,78437, Control_c, 0, 64, 47
2,78457, Control_c, 0, 64, 59
2,78476, Control_c, 0, 64, 64
2,78495, Control_c, 0, 64, 67
2,78497, Note_on_c, 0, 75, 0
2,78514, Control_c, 0, 64, 72
2,78533, Control_c, 0, 64, 79
2,78553, Control_c, 0, 64, 91
2,78571, Control_c, 0, 64, 112
2,78591, Control_c, 0, 64, 127
2,78727, Note_on_c, 0, 83, 0
2,78756, Note_on_c, 0, 80, 82
2,78759, Note_on_c, 0, 76, 64
2,78818, Note_on_c, 0, 82, 0
2,78914, Note_on_c, 0, 80, 0
2,78979, Note_on_c, 0, 54, 0
2,79128, Control_c, 0, 64, 117
2,79148, Control_c, 0, 64, 90
2,79157, Note_on_c, 0, 79, 73
2,79167, Control_c, 0, 64, 76
2,79186, Control_c, 0, 64, 69
2,79187, Note_on_c, 0, 75, 61
2,79200, Note_on_c, 0, 76, 0
2,79205, Control_c, 0, 64, 64
2,79225, Control_c, 0, 64, 62
2,79244, Control_c, 0, 64, 59
2,79263, Control_c, 0, 64, 57
2,79282, Control_c, 0, 64, 53
2,79302, Control_c, 0, 64, 49
2,79320, Control_c, 0, 64, 47
2,79340, Control_c, 0, 64, 45
2,79359, Control_c, 0, 64, 44
2,79379, Control_c, 0, 64, 44
2,79397, Control_c, 0, 64, 42
2,79417, Control_c, 0, 64, 40
2,79436, Control_c, 0, 64, 38
2,79455, Control_c, 0, 64, 36
2,79589, Note_on_c, 0, 80, 77
2,79596, Note_on_c, 0, 61, 54
2,79635, Note_on_c, 0, 59, 0
2,79650, Note_on_c, 0, 79, 0
2,79742, Control_c, 0, 64, 37
2,79761, Control_c, 0, 64, 38
2,79781, Control_c, 0, 64, 39
2,79953, Control_c, 0, 64, 39
2,79972, Control_c, 0, 64, 40
2,79982, Note_on_c, 0, 59, 50
2,79988, Note_on_c, 0, 82, 78
2,80010, Control_c, 0, 64, 40
2,80017, Note_on_c, 0, 61, 0
2,80063, Note_on_c, 0, 80, 0
2,80163, Control_c, 0, 64, 41
2,80337, Control_c, 0, 64, 41
2,80374, Control_c, 0, 64, 42
2,80390, Note_on_c, 0, 73, 69
2,80402, Note_on_c, 0, 58, 52
2,80429, Note_on_c, 0, 75, 0
2,80439, Note_on_c, 0, 59, 0
2,80489, Control_c, 0, 64, 42
2,80528, Control_c, 0, 64, 43
2,80720, Control_c, 0, 64, 43
2,80799, Note_on_c, 0, 56, 51
2,80803, Note_on_c, 0, 75, 75
2,80811, Note_on_c, 0, 72, 48
2,80839, Note_on_c, 0, 58, 0
2,80881, Note_on_c, 0, 73, 0
2,80894, Note_on_c, 0, 82, 0
2,81008, Control_c, 0, 64, 44
2,81193, Note_on_c, 0, 55, 54
2,81194, Note_on_c, 0, 56, 0
2,81598, Note_on_c, 0, 80, 72
2,81600, Note_on_c, 0, 56, 56
2,81624, Note_on_c, 0, 55, 0
2,81965, Note_on_c, 0, 73, 66
2,81967, Note_on_c, 0, 58, 50
2,82017, Note_on_c, 0, 75, 0
2,82035, Note_on_c, 0, 56, 0
2,82338, Note_on_c, 0, 72, 0
2,82372, Control_c, 0, 64, 44
2,82392, Note_on_c, 0, 75, 73
2,82398, Note_on_c, 0, 60, 48
2,82409, Note_on_c, 0, 58, 0
2,82410, Control_c, 0, 64, 46
2,82430, Control_c, 0, 64, 48
2,82449, Control_c, 0, 64, 50
2,82469, Control_c, 0, 64, 53
2,82472, Note_on_c, 0, 80, 0
2,82487, Control_c, 0, 64, 56
2,82507, Control_c, 0, 64, 59
2,82526, Control_c, 0, 64, 61
2,82545, Control_c, 0, 64, 62
2,82546, Note_on_c, 0, 73, 0
2,82564, Control_c, 0, 64, 64
2,82584, Control_c, 0, 64, 65
2,82603, Control_c, 0, 64, 66
2,82622, Control_c, 0, 64, 68
2,82641, Control_c, 0, 64, 71
2,82661, Control_c, 0, 64, 77
2,82679, Control_c, 0, 64, 86
2,82699, Control_c, 0, 64, 100
2,82718, Control_c, 0, 64, 127
2,82798, Note_on_c, 0, 78, 72
2,82919, Note_on_c, 0, 78, 0
2,83179, Control_c, 0, 64, 114
2,83198, Control_c, 0, 64, 104
2,83208, Note_on_c, 0, 77, 73
2,83212, Note_on_c, 0, 61, 46
2,83218, Control_c, 0, 64, 98
2,83223, Note_on_c, 0, 68, 60
2,83236, Control_c, 0, 64, 91
2,83246, Note_on_c, 0, 60, 0
2,83256, Control_c, 0, 64, 85
2,83269, Note_on_c, 0, 75, 0
2,83275, Control_c, 0, 64, 79
2,83294, Control_c, 0, 64, 73
2,83313, Control_c, 0, 64, 69
2,83331, Control_c, 0, 64, 65
2,83351, Control_c, 0, 64, 63
2,83369, Control_c, 0, 64, 60
2,83389, Control_c, 0, 64, 57
2,83408, Control_c, 0, 64, 54
2,83428, Control_c, 0, 64, 50
2,83446, Control_c, 0, 64, 48
2,83466, Control_c, 0, 64, 46
2,83485, Control_c, 0, 64, 45
2,83504, Control_c, 0, 64, 44
2,83523, Control_c, 0, 64, 43
2,83543, Control_c, 0, 64, 42
2,83562, Control_c, 0, 64, 41
2,83581, Control_c, 0, 64, 40
2,83592, Note_on_c, 0, 61, 0
2,83600, Control_c, 0, 64, 39
2,83620, Control_c, 0, 64, 39
2,83621, Note_on_c, 0, 59, 54
2,84028, Note_on_c, 0, 73, 64
2,84037, Note_on_c, 0, 58, 46
2,84119, Note_on_c, 0, 59, 0
2,84444, Note_on_c, 0, 58, 0
2,84451, Note_on_c, 0, 56, 50
2,84859, Note_on_c, 0, 56, 0
2,84864, Note_on_c, 0, 55, 47
2,84864, Note_on_c, 0, 75, 67
2,84909, Note_on_c, 0, 73, 0
2,85261, Note_on_c, 0, 51, 47
2,85270, Note_on_c, 0, 55, 0
2,85352, Note_on_c, 0, 77, 0
2,85686, Note_on_c, 0, 72, 66
2,85691, Note_on_c, 0, 56, 45
2,85733, Note_on_c, 0, 51, 0
2,85741, Note_on_c, 0, 75, 0
2,85774, Control_c, 0, 64, 40
2,85794, Control_c, 0, 64, 42
2,85813, Control_c, 0, 64, 47
2,85832, Control_c, 0, 64, 51
2,85851, Control_c, 0, 64, 55
2,85868, Control_c, 0, 64, 59
2,85887, Control_c, 0, 64, 61
2,85906, Control_c, 0, 64, 63
2,85925, Control_c, 0, 64, 65
2,85944, Control_c, 0, 64, 66
2,85964, Control_c, 0, 64, 69
2,85982, Control_c, 0, 64, 72
2,86002, Control_c, 0, 64, 77
2,86021, Control_c, 0, 64, 82
2,86041, Control_c, 0, 64, 88
2,86059, Control_c, 0, 64, 93
2,86076, Note_on_c, 0, 56, 0
2,86079, Control_c, 0, 64, 95
2,86089, Note_on_c, 0, 58, 52
2,86098, Control_c, 0, 64, 96
2,86117, Control_c, 0, 64, 96
2,86136, Control_c, 0, 64, 97
2,86156, Control_c, 0, 64, 97
2,86194, Control_c, 0, 64, 98
2,86424, Control_c, 0, 64, 97
2,86444, Control_c, 0, 64, 93
2,86462, Control_c, 0, 64, 85
2,86472, Note_on_c, 0, 56, 48
2,86482, Control_c, 0, 64, 72
2,86485, Note_on_c, 0, 80, 78
2,86501, Control_c, 0, 64, 64
2,86519, Note_on_c, 0, 68, 0
2,86521, Control_c, 0, 64, 55
2,86539, Control_c, 0, 64, 48
2,86543, Note_on_c, 0, 58, 0
2,86559, Control_c, 0, 64, 47
2,86578, Control_c, 0, 64, 46
2,86597, Control_c, 0, 64, 47
2,86616, Control_c, 0, 64, 51
2,86636, Control_c, 0, 64, 58
2,86655, Control_c, 0, 64, 62
2,86674, Control_c, 0, 64, 64
2,86693, Control_c, 0, 64, 67
2,86713, Control_c, 0, 64, 71
2,86732, Control_c, 0, 64, 78
2,86751, Control_c, 0, 64, 90
2,86770, Control_c, 0, 64, 127
2,86903, Note_on_c, 0, 54, 56
2,86939, Note_on_c, 0, 56, 0
2,87266, Note_on_c, 0, 53, 53
2,87289, Control_c, 0, 64, 90
2,87309, Control_c, 0, 64, 68
2,87319, Note_on_c, 0, 54, 0
2,87328, Control_c, 0, 64, 56
2,87328, Note_on_c, 0, 68, 77
2,87346, Control_c, 0, 64, 43
2,87375, Note_on_c, 0, 72, 0
2,87385, Control_c, 0, 64, 43
2,87405, Control_c, 0, 64, 49
2,87411, Note_on_c, 0, 80, 0
2,87423, Control_c, 0, 64, 57
2,87443, Control_c, 0, 64, 62
2,87462, Control_c, 0, 64, 65
2,87482, Control_c, 0, 64, 67
2,87500, Control_c, 0, 64, 71
2,87520, Control_c, 0, 64, 78
2,87539, Control_c, 0, 64, 89
2,87558, Control_c, 0, 64, 112
2,87577, Control_c, 0, 64, 127
2,87692, Note_on_c, 0, 53, 0
2,87713, Note_on_c, 0, 82, 79
2,87720, Note_on_c, 0, 54, 52
2,87784, Note_on_c, 0, 68, 0
2,87834, Note_on_c, 0, 82, 0
2,88116, Control_c, 0, 64, 103
2,88126, Note_on_c, 0, 80, 75
2,88137, Control_c, 0, 64, 86
2,88139, Note_on_c, 0, 54, 0
2,88139, Note_on_c, 0, 73, 66
2,88143, Note_on_c, 0, 53, 48
2,88157, Control_c, 0, 64, 76
2,88175, Control_c, 0, 64, 69
2,88195, Control_c, 0, 64, 65
2,88214, Control_c, 0, 64, 61
2,88233, Control_c, 0, 64, 57
2,88252, Control_c, 0, 64, 52
2,88272, Control_c, 0, 64, 46
2,88291, Control_c, 0, 64, 39
2,88310, Control_c, 0, 64, 27
2,88329, Control_c, 0, 64, 0
2,88538, Note_on_c, 0, 78, 68
2,88548, Note_on_c, 0, 51, 45
2,88552, Note_on_c, 0, 53, 0
2,88963, Note_on_c, 0, 49, 40
2,88979, Note_on_c, 0, 77, 64
2,89002, Note_on_c, 0, 51, 0
2,89007, Note_on_c, 0, 80, 0
2,89042, Note_on_c, 0, 78, 0
2,89057, Note_on_c, 0, 73, 0
2,89170, Control_c, 0, 64, 13
2,89374, Note_on_c, 0, 75, 69
2,89376, Note_on_c, 0, 78, 70
2,89383, Note_on_c, 0, 59, 42
2,89412, Note_on_c, 0, 77, 0
2,89419, Control_c, 0, 64, 11
2,89458, Control_c, 0, 64, 9
2,89516, Control_c, 0, 64, 0
2,89727, Note_on_c, 0, 49, 0
2,89764, Note_on_c, 0, 80, 73
2,89765, Note_on_c, 0, 58, 48
2,89768, Note_on_c, 0, 73, 70
2,89804, Note_on_c, 0, 59, 0
2,89806, Note_on_c, 0, 75, 0
2,89813, Note_on_c, 0, 78, 0
2,90150, Control_c, 0, 64, 9
2,90163, Note_on_c, 0, 56, 55
2,90164, Note_on_c, 0, 71, 74
2,90186, Note_on_c, 0, 58, 0
2,90187, Control_c, 0, 64, 11
2,90197, Note_on_c, 0, 73, 0
2,90226, Control_c, 0, 64, 13
2,90322, Control_c, 0, 64, 15
2,90361, Control_c, 0, 64, 17
2,90399, Control_c, 0, 64, 18
2,90499, Note_on_c, 0, 80, 0
2,90562, Note_on_c, 0, 73, 73
2,90570, Note_on_c, 0, 56, 0
2,90580, Note_on_c, 0, 54, 49
2,90580, Note_on_c, 0, 70, 59
2,90600, Note_on_c, 0, 71, 0
2,90648, Control_c, 0, 64, 19
2,90666, Control_c, 0, 64, 21
2,90686, Control_c, 0, 64, 27
2,90705, Control_c, 0, 64, 35
2,90724, Control_c, 0, 64, 42
2,90743, Control_c, 0, 64, 47
2,90754, Note_on_c, 0, 70, 0
2,90763, Control_c, 0, 64, 52
2,90782, Control_c, 0, 64, 55
2,90801, Control_c, 0, 64, 58
2,90820, Control_c, 0, 64, 61
2,90840, Control_c, 0, 64, 63
2,90858, Control_c, 0, 64, 65
2,90878, Control_c, 0, 64, 68
2,90897, Control_c, 0, 64, 74
2,90917, Control_c, 0, 64, 81
2,90924, Note_on_c, 0, 54, 0
2,90935, Control_c, 0, 64, 89
2,90946, Note_on_c, 0, 71, 67
2,90955, Control_c, 0, 64, 96
2,90958, Note_on_c, 0, 56, 55
2,90966, Note_on_c, 0, 73, 0
2,90974, Control_c, 0, 64, 104
2,90993, Control_c, 0, 64, 115
2,91013, Control_c, 0, 64, 127
2,91317, Note_on_c, 0, 56, 0
2,91339, Control_c, 0, 64, 102
2,91341, Note_on_c, 0, 54, 50
2,91356, Note_on_c, 0, 71, 0
2,91358, Note_on_c, 0, 73, 66
2,91359, Control_c, 0, 64, 84
2,91359, Note_on_c, 0, 78, 74
2,91378, Control_c, 0, 64, 70
2,91397, Control_c, 0, 64, 59
2,91416, Control_c, 0, 64, 31
2,91436, Control_c, 0, 64, 0
2,91513, Control_c, 0, 64, 18
2,91532, Control_c, 0, 64, 43
2,91551, Control_c, 0, 64, 57
2,91570, Control_c, 0, 64, 62
2,91590, Control_c, 0, 64, 65
2,91608, Control_c, 0, 64, 68
2,91626, Control_c, 0, 64, 72
2,91646, Control_c, 0, 64, 81
2,91665, Control_c, 0, 64, 96
2,91684, Control_c, 0, 64, 127
2,91693, Note_on_c, 0, 54, 0
2,91756, Note_on_c, 0, 52, 51
2,92127, Control_c, 0, 64, 95
2,92129, Note_on_c, 0, 51, 46
2,92134, Note_on_c, 0, 52, 0
2,92146, Control_c, 0, 64, 73
2,92162, Note_on_c, 0, 66, 70
2,92165, Control_c, 0, 64, 58
2,92184, Control_c, 0, 64, 0
2,92207, Note_on_c, 0, 73, 0
2,92261, Control_c, 0, 64, 21
2,92281, Control_c, 0, 64, 47
2,92299, Control_c, 0, 64, 60
2,92319, Control_c, 0, 64, 65
2,92338, Control_c, 0, 64, 69
2,92357, Control_c, 0, 64, 76
2,92376, Control_c, 0, 64, 91
2,92396, Control_c, 0, 64, 127
2,92522, Note_on_c, 0, 51, 0
2,92547, Note_on_c, 0, 49, 50
2,92560, Note_on_c, 0, 76, 55
2,92636, Note_on_c, 0, 66, 0
2,92649, Note_on_c, 0, 78, 0
2,92702, Note_on_c, 0, 76, 0
2,92915, Control_c, 0, 64, 106
2,92918, Note_on_c, 0, 49, 0
2,92936, Control_c, 0, 64, 85
2,92956, Control_c, 0, 64, 70
2,92956, Note_on_c, 0, 47, 50
2,92958, Note_on_c, 0, 71, 64
2,92965, Note_on_c, 0, 75, 70
2,92974, Control_c, 0, 64, 60
2,92994, Control_c, 0, 64, 43
2,93013, Control_c, 0, 64, 27
2,93032, Control_c, 0, 64, 17
2,93051, Control_c, 0, 64, 0
2,93362, Note_on_c, 0, 80, 59
2,93377, Note_on_c, 0, 44, 42
2,93379, Note_on_c, 0, 47, 0
2,93380, Note_on_c, 0, 75, 0
2,93740, Control_c, 0, 64, 13
2,93752, Note_on_c, 0, 73, 59
2,93760, Control_c, 0, 64, 34
2,93761, Note_on_c, 0, 46, 41
2,93772, Note_on_c, 0, 44, 0
2,93779, Control_c, 0, 64, 51
2,93798, Control_c, 0, 64, 59
2,93815, Note_on_c, 0, 80, 0
2,93817, Control_c, 0, 64, 63
2,93831, Note_on_c, 0, 71, 0
2,93837, Control_c, 0, 64, 65
2,93856, Control_c, 0, 64, 68
2,93875, Control_c, 0, 64, 72
2,93893, Control_c, 0, 64, 78
2,93913, Control_c, 0, 64, 88
2,93932, Control_c, 0, 64, 95
2,93951, Control_c, 0, 64, 98
2,94124, Control_c, 0, 64, 96
2,94142, Control_c, 0, 64, 88
2,94150, Note_on_c, 0, 42, 46
2,94162, Control_c, 0, 64, 76
2,94166, Note_on_c, 0, 70, 65
2,94176, Note_on_c, 0, 78, 57
2,94181, Control_c, 0, 64, 64
2,94193, Note_on_c, 0, 73, 0
2,94201, Control_c, 0, 64, 53
2,94202, Note_on_c, 0, 46, 0
2,94219, Control_c, 0, 64, 38
2,94239, Control_c, 0, 64, 35
2,94258, Control_c, 0, 64, 36
2,94277, Control_c, 0, 64, 43
2,94296, Control_c, 0, 64, 54
2,94316, Control_c, 0, 64, 61
2,94335, Control_c, 0, 64, 64
2,94354, Control_c, 0, 64, 66
2,94373, Control_c, 0, 64, 70
2,94393, Control_c, 0, 64, 76
2,94412, Control_c, 0, 64, 85
2,94431, Control_c, 0, 64, 97
2,94450, Control_c, 0, 64, 112
2,94470, Control_c, 0, 64, 127
2,94526, Control_c, 0, 64, 112
2,94528, Note_on_c, 0, 42, 0
2,94545, Control_c, 0, 64, 89
2,94562, Note_on_c, 0, 68, 56
2,94564, Control_c, 0, 64, 72
2,94569, Note_on_c, 0, 49, 46
2,94583, Control_c, 0, 64, 62
2,94586, Note_on_c, 0, 70, 0
2,94603, Control_c, 0, 64, 46
2,94622, Control_c, 0, 64, 45
2,94641, Control_c, 0, 64, 48
2,94660, Control_c, 0, 64, 57
2,94680, Control_c, 0, 64, 62
2,94698, Control_c, 0, 64, 65
2,94718, Control_c, 0, 64, 67
2,94737, Control_c, 0, 64, 73
2,94757, Control_c, 0, 64, 82
2,94775, Control_c, 0, 64, 96
2,94795, Control_c, 0, 64, 127
2,94944, Note_on_c, 0, 77, 60
2,94950, Note_on_c, 0, 37, 40
2,94967, Note_on_c, 0, 78, 0
2,95023, Note_on_c, 0, 68, 0
2,95091, Note_on_c, 0, 49, 0
2,95368, Note_on_c, 0, 42, 43
2,95430, Control_c, 0, 64, 94
2,95432, Note_on_c, 0, 78, 69
2,95448, Control_c, 0, 64, 73
2,95465, Note_on_c, 0, 37, 0
2,95467, Control_c, 0, 64, 61
2,95477, Note_on_c, 0, 66, 21
2,95485, Note_on_c, 0, 77, 0
2,95487, Control_c, 0, 64, 37
2,95506, Control_c, 0, 64, 24
2,95544, Control_c, 0, 64, 31
2,95564, Control_c, 0, 64, 50
2,95582, Control_c, 0, 64, 60
2,95588, Note_on_c, 0, 66, 0
2,95602, Control_c, 0, 64, 64
2,95621, Control_c, 0, 64, 68
2,95641, Control_c, 0, 64, 73
2,95659, Control_c, 0, 64, 84
2,95679, Control_c, 0, 64, 102
2,95698, Control_c, 0, 64, 127
2,95718, Note_on_c, 0, 78, 0
2,95835, Note_on_c, 0, 44, 43
2,95851, Note_on_c, 0, 42, 0
2,95878, Note_on_c, 0, 65, 19
2,96257, Control_c, 0, 64, 112
2,96258, Note_on_c, 0, 73, 69
2,96265, Note_on_c, 0, 66, 46
2,96274, Note_on_c, 0, 44, 0
2,96275, Note_on_c, 0, 46, 42
2,96276, Control_c, 0, 64, 93
2,96295, Control_c, 0, 64, 79
2,96315, Control_c, 0, 64, 68
2,96329, Note_on_c, 0, 65, 0
2,96333, Control_c, 0, 64, 61
2,96353, Control_c, 0, 64, 50
2,96372, Control_c, 0, 64, 44
2,96392, Control_c, 0, 64, 41
2,96410, Control_c, 0, 64, 38
2,96427, Control_c, 0, 64, 35
2,96447, Control_c, 0, 64, 28
2,96466, Control_c, 0, 64, 20
2,96485, Control_c, 0, 64, 13
2,96504, Control_c, 0, 64, 9
2,96524, Control_c, 0, 64, 0
2,96632, Note_on_c, 0, 46, 0
2,96662, Note_on_c, 0, 44, 43
2,96672, Note_on_c, 0, 68, 51
2,96712, Note_on_c, 0, 66, 0
2,96966, Control_c, 0, 64, 17
2,96985, Control_c, 0, 64, 29
2,97005, Control_c, 0, 64, 40
2,97023, Control_c, 0, 64, 50
2,97043, Control_c, 0, 64, 57
2,97053, Note_on_c, 0, 44, 0
2,97056, Note_on_c, 0, 42, 44
2,97062, Control_c, 0, 64, 62
2,97075, Note_on_c, 0, 68, 0
2,97076, Note_on_c, 0, 70, 60
2,97082, Control_c, 0, 64, 65
2,97100, Control_c, 0, 64, 68
2,97120, Control_c, 0, 64, 73
2,97139, Control_c, 0, 64, 81
2,97156, Note_on_c, 0, 70, 0
2,97157, Note_on_c, 0, 73, 0
2,97158, Control_c, 0, 64, 92
2,97177, Control_c, 0, 64, 104
2,97197, Control_c, 0, 64, 117
2,97216, Control_c, 0, 64, 127
2,97343, Note_on_c, 0, 42, 0
2,97408, Control_c, 0, 64, 113
2,97427, Control_c, 0, 64, 104
2,97446, Control_c, 0, 64, 97
2,97446, Note_on_c, 0, 71, 67
2,97460, Note_on_c, 0, 54, 38
2,97465, Control_c, 0, 64, 88
2,97485, Control_c, 0, 64, 78
2,97489, Note_on_c, 0, 68, 41
2,97503, Control_c, 0, 64, 71
2,97523, Control_c, 0, 64, 65
2,97542, Control_c, 0, 64, 60
2,97562, Control_c, 0, 64, 53
2,97580, Control_c, 0, 64, 46
2,97600, Control_c, 0, 64, 42
2,97619, Control_c, 0, 64, 38
2,97638, Control_c, 0, 64, 29
2,97657, Control_c, 0, 64, 9
2,97677, Control_c, 0, 64, 0
2,97702, Note_on_c, 0, 68, 0
2,97850, Note_on_c, 0, 53, 42
2,97861, Note_on_c, 0, 73, 67
2,97870, Note_on_c, 0, 54, 0
2,97874, Note_on_c, 0, 70, 50
2,97877, Note_on_c, 0, 71, 0
2,98223, Note_on_c, 0, 53, 0
2,98243, Note_on_c, 0, 75, 66
2,98253, Note_on_c, 0, 51, 38
2,98279, Note_on_c, 0, 72, 48
2,98282, Note_on_c, 0, 73, 0
2,98292, Control_c, 0, 64, 17
2,98312, Control_c, 0, 64, 41
2,98330, Control_c, 0, 64, 54
2,98332, Note_on_c, 0, 70, 0
2,98350, Control_c, 0, 64, 61
2,98369, Control_c, 0, 64, 64
2,98387, Control_c, 0, 64, 65
2,98407, Control_c, 0, 64, 66
2,98426, Control_c, 0, 64, 67
2,98446, Control_c, 0, 64, 68
2,98462, Note_on_c, 0, 75, 0
2,98464, Control_c, 0, 64, 69
2,98484, Control_c, 0, 64, 69
2,98503, Control_c, 0, 64, 70
2,98580, Control_c, 0, 64, 69
2,98599, Control_c, 0, 64, 69
2,98618, Control_c, 0, 64, 68
2,98638, Control_c, 0, 64, 66
2,98644, Note_on_c, 0, 72, 0
2,98655, Note_on_c, 0, 77, 61
2,98657, Control_c, 0, 64, 64
2,98663, Note_on_c, 0, 49, 42
2,98671, Note_on_c, 0, 73, 43
2,98676, Control_c, 0, 64, 61
2,98696, Control_c, 0, 64, 57
2,98716, Control_c, 0, 64, 49
2,98718, Note_on_c, 0, 51, 0
2,98734, Control_c, 0, 64, 37
2,98754, Control_c, 0, 64, 27
2,98773, Control_c, 0, 64, 13
2,98792, Control_c, 0, 64, 0
2,99056, Note_on_c, 0, 75, 68
2,99071, Note_on_c, 0, 71, 46
2,99088, Note_on_c, 0, 73, 0
2,99119, Note_on_c, 0, 77, 0
2,99446, Note_on_c, 0, 73, 64
2,99467, Note_on_c, 0, 54, 39
2,99513, Note_on_c, 0, 75, 0
2,99526, Note_on_c, 0, 71, 0
2,99559, Control_c, 0, 64, 27
2,99578, Control_c, 0, 64, 43
2,99598, Control_c, 0, 64, 55
2,99617, Control_c, 0, 64, 61
2,99636, Control_c, 0, 64, 64
2,99654, Control_c, 0, 64, 66
2,99674, Control_c, 0, 64, 68
2,99692, Control_c, 0, 64, 71
2,99712, Control_c, 0, 64, 76
2,99731, Control_c, 0, 64, 83
2,99751, Control_c, 0, 64, 89
2,99769, Control_c, 0, 64, 92
2,99788, Control_c, 0, 64, 94
2,99793, Note_on_c, 0, 49, 0
2,99808, Control_c, 0, 64, 95
2,99827, Control_c, 0, 64, 95
2,99839, Note_on_c, 0, 73, 0
2,99849, Note_on_c, 0, 70, 53
2,99885, Control_c, 0, 64, 96
2,100038, Control_c, 0, 64, 95
2,100115, Control_c, 0, 64, 94
2,100134, Control_c, 0, 64, 93
2,100154, Control_c, 0, 64, 92
2,100172, Control_c, 0, 64, 91
2,100192, Control_c, 0, 64, 89
2,100211, Control_c, 0, 64, 85
2,100231, Control_c, 0, 64, 78
2,100249, Control_c, 0, 64, 67
2,100256, Note_on_c, 0, 80, 76
2,100268, Control_c, 0, 64, 58
2,100287, Note_on_c, 0, 71, 42
2,100288, Control_c, 0, 64, 31
2,100307, Control_c, 0, 64, 0
2,100315, Note_on_c, 0, 70, 0
2,100403, Control_c, 0, 64, 27
2,100422, Control_c, 0, 64, 48
2,100442, Control_c, 0, 64, 60
2,100460, Control_c, 0, 64, 64
2,100480, Control_c, 0, 64, 67
2,100499, Control_c, 0, 64, 71
2,100518, Control_c, 0, 64, 81
2,100537, Control_c, 0, 64, 92
2,100557, Control_c, 0, 64, 105
2,100576, Control_c, 0, 64, 123
2,100595, Control_c, 0, 64, 127
2,100638, Note_on_c, 0, 71, 0
2,100711, Note_on_c, 0, 70, 37
2,100826, Control_c, 0, 64, 123
2,100864, Control_c, 0, 64, 121
2,100884, Control_c, 0, 64, 119
2,100903, Control_c, 0, 64, 118
2,100941, Control_c, 0, 64, 117
2,100999, Control_c, 0, 64, 116
2,101018, Control_c, 0, 64, 114
2,101038, Control_c, 0, 64, 110
2,101057, Control_c, 0, 64, 101
2,101076, Control_c, 0, 64, 83
2,101095, Control_c, 0, 64, 69
2,101096, Note_on_c, 0, 68, 35
2,101096, Note_on_c, 0, 73, 67
2,101102, Note_on_c, 0, 53, 37
2,101115, Control_c, 0, 64, 56
2,101133, Control_c, 0, 64, 13
2,101146, Note_on_c, 0, 54, 0
2,101147, Note_on_c, 0, 70, 0
2,101153, Control_c, 0, 64, 0
2,101228, Control_c, 0, 64, 36
2,101248, Control_c, 0, 64, 52
2,101267, Control_c, 0, 64, 61
2,101286, Control_c, 0, 64, 65
2,101303, Note_on_c, 0, 68, 0
2,101305, Control_c, 0, 64, 68
2,101325, Control_c, 0, 64, 74
2,101343, Control_c, 0, 64, 86
2,101363, Control_c, 0, 64, 100
2,101382, Control_c, 0, 64, 127
2,101505, Note_on_c, 0, 71, 51
2,101880, Control_c, 0, 64, 99
2,101880, Note_on_c, 0, 53, 0
2,101889, Note_on_c, 0, 54, 48
2,101898, Control_c, 0, 64, 78
2,101901, Note_on_c, 0, 70, 59
2,101918, Control_c, 0, 64, 65
2,101926, Note_on_c, 0, 71, 0
2,101930, Note_on_c, 0, 73, 0
2,101937, Control_c, 0, 64, 50
2,101957, Control_c, 0, 64, 43
2,101975, Control_c, 0, 64, 45
2,101995, Control_c, 0, 64, 53
2,102014, Control_c, 0, 64, 61
2,102033, Control_c, 0, 64, 64
2,102052, Control_c, 0, 64, 66
2,102072, Control_c, 0, 64, 69
2,102091, Control_c, 0, 64, 74
2,102109, Control_c, 0, 64, 82
2,102129, Control_c, 0, 64, 95
2,102148, Control_c, 0, 64, 123
2,102167, Control_c, 0, 64, 127
2,102273, Note_on_c, 0, 53, 44
2,102280, Note_on_c, 0, 54, 0
2,102283, Note_on_c, 0, 75, 69
2,102340, Note_on_c, 0, 80, 0
2,102649, Control_c, 0, 64, 95
2,102668, Control_c, 0, 64, 75
2,102688, Control_c, 0, 64, 62
2,102707, Control_c, 0, 64, 18
2,102707, Note_on_c, 0, 51, 39
2,102707, Note_on_c, 0, 77, 70
2,102726, Control_c, 0, 64, 0
2,102752, Note_on_c, 0, 75, 0
2,102755, Note_on_c, 0, 53, 0
2,102803, Control_c, 0, 64, 22
2,102822, Control_c, 0, 64, 44
2,102842, Control_c, 0, 64, 57
2,102860, Control_c, 0, 64, 64
2,102880, Control_c, 0, 64, 67
2,102899, Control_c, 0, 64, 72
2,102918, Control_c, 0, 64, 80
2,102937, Control_c, 0, 64, 93
2,102957, Control_c, 0, 64, 113
2,102976, Control_c, 0, 64, 127
2,103109, Note_on_c, 0, 51, 0
2,103120, Note_on_c, 0, 50, 49
2,103316, Note_on_c, 0, 70, 0
2,103474, Control_c, 0, 64, 86
2,103494, Control_c, 0, 64, 68
2,103514, Control_c, 0, 64, 49
2,103517, Note_on_c, 0, 51, 38
2,103529, Note_on_c, 0, 50, 0
2,103532, Control_c, 0, 64, 0
2,103535, Note_on_c, 0, 78, 65
2,103589, Note_on_c, 0, 77, 0
2,103609, Control_c, 0, 64, 19
2,103628, Control_c, 0, 64, 44
2,103648, Control_c, 0, 64, 57
2,103667, Control_c, 0, 64, 63
2,103686, Control_c, 0, 64, 66
2,103705, Control_c, 0, 64, 70
2,103725, Control_c, 0, 64, 76
2,103743, Control_c, 0, 64, 87
2,103763, Control_c, 0, 64, 107
2,103782, Control_c, 0, 64, 127
2,103927, Note_on_c, 0, 72, 69
2,104264, Control_c, 0, 64, 107
2,104284, Control_c, 0, 64, 78
2,104293, Note_on_c, 0, 46, 48
2,104300, Note_on_c, 0, 73, 63
2,104301, Note_on_c, 0, 72, 0
2,104302, Control_c, 0, 64, 63
2,104315, Note_on_c, 0, 51, 0
2,104321, Control_c, 0, 64, 26
2,104341, Control_c, 0, 64, 0
2,104398, Control_c, 0, 64, 29
2,104418, Control_c, 0, 64, 52
2,104436, Control_c, 0, 64, 63
2,104456, Control_c, 0, 64, 67
2,104475, Control_c, 0, 64, 72
2,104495, Control_c, 0, 64, 82
2,104513, Control_c, 0, 64, 100
2,104533, Control_c, 0, 64, 127
2,104687, Note_on_c, 0, 46, 0
2,104694, Note_on_c, 0, 48, 50
2,104704, Note_on_c, 0, 75, 68
2,104799, Note_on_c, 0, 73, 0
2,104856, Note_on_c, 0, 78, 0
2,105051, Control_c, 0, 64, 85
2,105069, Control_c, 0, 64, 66
2,105083, Note_on_c, 0, 49, 45
2,105089, Control_c, 0, 64, 41
2,105108, Control_c, 0, 64, 0
2,105120, Note_on_c, 0, 68, 63
2,105121, Note_on_c, 0, 48, 0
2,105159, Note_on_c, 0, 75, 0
2,105185, Control_c, 0, 64, 31
2,105204, Control_c, 0, 64, 55
2,105223, Control_c, 0, 64, 63
2,105243, Control_c, 0, 64, 67
2,105261, Control_c, 0, 64, 72
2,105280, Control_c, 0, 64, 80
2,105300, Control_c, 0, 64, 94
2,105319, Control_c, 0, 64, 127
2,105486, Note_on_c, 0, 77, 64
2,105837, Control_c, 0, 64, 91
2,105850, Note_on_c, 0, 42, 50
2,105857, Control_c, 0, 64, 70
2,105875, Control_c, 0, 64, 50
2,105875, Note_on_c, 0, 68, 0
2,105878, Note_on_c, 0, 75, 64
2,105892, Note_on_c, 0, 70, 56
2,105895, Control_c, 0, 64, 0
2,105937, Note_on_c, 0, 49, 0
2,105964, Note_on_c, 0, 77, 0
2,105972, Control_c, 0, 64, 36
2,105991, Control_c, 0, 64, 53
2,106010, Control_c, 0, 64, 63
2,106028, Control_c, 0, 64, 67
2,106048, Control_c, 0, 64, 73
2,106067, Control_c, 0, 64, 83
2,106086, Control_c, 0, 64, 103
2,106105, Control_c, 0, 64, 127
2,106274, Note_on_c, 0, 73, 73
2,106333, Note_on_c, 0, 70, 0
2,106335, Note_on_c, 0, 75, 0
2,106370, Note_on_c, 0, 73, 0
2,106633, Note_on_c, 0, 44, 51
2,106696, Note_on_c, 0, 72, 75
2,106720, Control_c, 0, 64, 92
2,106726, Note_on_c, 0, 42, 0
2,106740, Control_c, 0, 64, 70
2,106759, Control_c, 0, 64, 52
2,106778, Control_c, 0, 64, 0
2,106855, Control_c, 0, 64, 37
2,106874, Control_c, 0, 64, 54
2,106894, Control_c, 0, 64, 62
2,106912, Control_c, 0, 64, 65
2,106932, Control_c, 0, 64, 68
2,106951, Control_c, 0, 64, 73
2,106970, Control_c, 0, 64, 84
2,106989, Control_c, 0, 64, 115
2,107009, Control_c, 0, 64, 127
2,107113, Note_on_c, 0, 68, 53
2,107154, Note_on_c, 0, 72, 0
2,107476, Note_on_c, 0, 46, 49
2,107495, Note_on_c, 0, 74, 74
2,107508, Control_c, 0, 64, 91
2,107512, Note_on_c, 0, 66, 60
2,107520, Note_on_c, 0, 68, 0
2,107527, Control_c, 0, 64, 66
2,107546, Control_c, 0, 64, 40
2,107565, Note_on_c, 0, 44, 0
2,107566, Control_c, 0, 64, 0
2,107623, Control_c, 0, 64, 29
2,107643, Control_c, 0, 64, 51
2,107661, Control_c, 0, 64, 63
2,107680, Control_c, 0, 64, 68
2,107700, Control_c, 0, 64, 74
2,107719, Control_c, 0, 64, 88
2,107738, Control_c, 0, 64, 123
2,107757, Control_c, 0, 64, 127
2,107866, Note_on_c, 0, 65, 54
2,107945, Note_on_c, 0, 66, 0
2,107952, Note_on_c, 0, 65, 0
2,107975, Note_on_c, 0, 74, 0
2,108251, Note_on_c, 0, 47, 40
2,108295, Control_c, 0, 64, 100
2,108307, Note_on_c, 0, 75, 75
2,108314, Control_c, 0, 64, 82
2,108319, Note_on_c, 0, 63, 56
2,108334, Control_c, 0, 64, 69
2,108351, Note_on_c, 0, 46, 0
2,108352, Control_c, 0, 64, 59
2,108372, Control_c, 0, 64, 44
2,108391, Control_c, 0, 64, 31
2,108410, Control_c, 0, 64, 22
2,108429, Control_c, 0, 64, 0
2,108713, Note_on_c, 0, 66, 53
2,108722, Note_on_c, 0, 46, 39
2,108751, Note_on_c, 0, 47, 0
2,109099, Note_on_c, 0, 44, 41
2,109109, Note_on_c, 0, 71, 58
2,109125, Note_on_c, 0, 46, 0
2,109221, Note_on_c, 0, 66, 0
2,109270, Note_on_c, 0, 75, 0
2,109501, Note_on_c, 0, 44, 0
2,109508, Note_on_c, 0, 42, 45
2,109912, Note_on_c, 0, 40, 43
2,109930, Note_on_c, 0, 73, 56
2,109941, Note_on_c, 0, 42, 0
2,109965, Note_on_c, 0, 71, 0
2,110023, Control_c, 0, 64, 21
2,110042, Control_c, 0, 64, 29
2,110061, Control_c, 0, 64, 35
2,110080, Control_c, 0, 64, 39
2,110100, Control_c, 0, 64, 44
2,110119, Control_c, 0, 64, 51
2,110138, Control_c, 0, 64, 58
2,110157, Control_c, 0, 64, 61
2,110174, Control_c, 0, 64, 61
2,110193, Control_c, 0, 64, 62
2,110292, Note_on_c, 0, 70, 58
2,110327, Control_c, 0, 64, 61
2,110332, Note_on_c, 0, 63, 0
2,110443, Control_c, 0, 64, 61
2,110538, Control_c, 0, 64, 60
2,110558, Control_c, 0, 64, 60
2,110577, Control_c, 0, 64, 59
2,110597, Control_c, 0, 64, 57
2,110615, Control_c, 0, 64, 54
2,110635, Control_c, 0, 64, 50
2,110654, Control_c, 0, 64, 47
2,110673, Control_c, 0, 64, 44
2,110673, Note_on_c, 0, 39, 46
2,110680, Note_on_c, 0, 40, 0
2,110692, Control_c, 0, 64, 42
2,110715, Note_on_c, 0, 68, 60
2,110731, Control_c, 0, 64, 43
2,110749, Control_c, 0, 64, 46
2,110769, Control_c, 0, 64, 49
2,110771, Note_on_c, 0, 73, 0
2,110774, Note_on_c, 0, 70, 0
2,110788, Control_c, 0, 64, 51
2,110807, Control_c, 0, 64, 54
2,110827, Control_c, 0, 64, 57
2,110847, Control_c, 0, 64, 59
2,110866, Control_c, 0, 64, 61
2,110885, Control_c, 0, 64, 63
2,110904, Control_c, 0, 64, 64
2,110924, Control_c, 0, 64, 65
2,110942, Control_c, 0, 64, 67
2,110962, Control_c, 0, 64, 69
2,110981, Control_c, 0, 64, 73
2,111001, Control_c, 0, 64, 80
2,111019, Control_c, 0, 64, 91
2,111039, Control_c, 0, 64, 102
2,111058, Control_c, 0, 64, 117
2,111062, Note_on_c, 0, 68, 0
2,111078, Control_c, 0, 64, 127
2,111084, Note_on_c, 0, 67, 53
2,111422, Note_on_c, 0, 39, 0
2,111443, Control_c, 0, 64, 109
2,111459, Note_on_c, 0, 67, 0
2,111462, Control_c, 0, 64, 93
2,111467, Note_on_c, 0, 44, 45
2,111480, Note_on_c, 0, 71, 58
2,111482, Control_c, 0, 64, 78
2,111484, Note_on_c, 0, 68, 51
2,111500, Control_c, 0, 64, 66
2,111520, Control_c, 0, 64, 50
2,111539, Control_c, 0, 64, 38
2,111558, Control_c, 0, 64, 37
2,111597, Control_c, 0, 64, 41
2,111616, Control_c, 0, 64, 48
2,111635, Control_c, 0, 64, 56
2,111654, Control_c, 0, 64, 61
2,111674, Control_c, 0, 64, 64
2,111692, Control_c, 0, 64, 66
2,111711, Control_c, 0, 64, 69
2,111731, Control_c, 0, 64, 73
2,111750, Control_c, 0, 64, 79
2,111769, Control_c, 0, 64, 86
2,111787, Control_c, 0, 64, 92
2,111807, Control_c, 0, 64, 95
2,111884, Control_c, 0, 64, 95
2,111889, Note_on_c, 0, 44, 0
2,111889, Note_on_c, 0, 73, 68
2,111893, Note_on_c, 0, 46, 49
2,111947, Note_on_c, 0, 71, 0
2,112210, Control_c, 0, 64, 94
2,112229, Control_c, 0, 64, 86
2,112248, Control_c, 0, 64, 75
2,112265, Note_on_c, 0, 46, 0
2,112267, Control_c, 0, 64, 64
2,112285, Note_on_c, 0, 47, 43
2,112287, Control_c, 0, 64, 47
2,112290, Note_on_c, 0, 75, 73
2,112306, Control_c, 0, 64, 30
2,112335, Note_on_c, 0, 73, 0
2,112344, Control_c, 0, 64, 34
2,112364, Control_c, 0, 64, 47
2,112382, Control_c, 0, 64, 58
2,112402, Control_c, 0, 64, 63
2,112421, Control_c, 0, 64, 67
2,112441, Control_c, 0, 64, 71
2,112459, Control_c, 0, 64, 78
2,112469, Note_on_c, 0, 75, 0
2,112479, Control_c, 0, 64, 92
2,112498, Control_c, 0, 64, 114
2,112518, Control_c, 0, 64, 127
2,112644, Note_on_c, 0, 47, 0
2,112653, Note_on_c, 0, 49, 52
2,112678, Note_on_c, 0, 76, 69
2,112727, Note_on_c, 0, 68, 0
2,113033, Control_c, 0, 64, 87
2,113052, Control_c, 0, 64, 68
2,113071, Control_c, 0, 64, 50
2,113087, Note_on_c, 0, 70, 65
2,113089, Note_on_c, 0, 51, 41
2,113098, Control_c, 0, 64, 0
2,113116, Note_on_c, 0, 76, 0
2,113118, Note_on_c, 0, 49, 0
2,113156, Control_c, 0, 64, 29
2,113175, Control_c, 0, 64, 52
2,113194, Control_c, 0, 64, 61
2,113213, Control_c, 0, 64, 65
2,113233, Control_c, 0, 64, 68
2,113252, Control_c, 0, 64, 73
2,113270, Control_c, 0, 64, 81
2,113290, Control_c, 0, 64, 93
2,113309, Control_c, 0, 64, 109
2,113328, Control_c, 0, 64, 127
2,113491, Note_on_c, 0, 71, 55
2,113579, Note_on_c, 0, 70, 0
2,113770, Control_c, 0, 64, 104
2,113789, Control_c, 0, 64, 84
2,113808, Control_c, 0, 64, 67
2,113827, Control_c, 0, 64, 48
2,113827, Note_on_c, 0, 51, 0
2,113847, Control_c, 0, 64, 0
2,113881, Note_on_c, 0, 73, 64
2,113901, Note_on_c, 0, 67, 37
2,113906, Note_on_c, 0, 71, 0
2,113942, Control_c, 0, 64, 38
2,113962, Control_c, 0, 64, 56
2,113981, Control_c, 0, 64, 64
2,114001, Control_c, 0, 64, 69
2,114019, Control_c, 0, 64, 75
2,114039, Control_c, 0, 64, 88
2,114053, Control_c, 0, 64, 112
2,114073, Control_c, 0, 64, 127
2,114229, Note_on_c, 0, 51, 47
2,114246, Note_on_c, 0, 75, 72
2,114271, Note_on_c, 0, 51, 0
2,114287, Note_on_c, 0, 73, 0
2,114322, Note_on_c, 0, 75, 0
2,114520, Note_on_c, 0, 67, 0
2,114583, Note_on_c, 0, 56, 62
2,114651, Control_c, 0, 64, 108
2,114656, Note_on_c, 0, 68, 75
2,114670, Control_c, 0, 64, 76
2,114690, Control_c, 0, 64, 59
2,114692, Note_on_c, 0, 71, 59
2,114709, Control_c, 0, 64, 31
2,114728, Control_c, 0, 64, 26
2,114747, Control_c, 0, 64, 34
2,114767, Control_c, 0, 64, 54
2,114785, Control_c, 0, 64, 64
2,114805, Control_c, 0, 64, 70
2,114824, Control_c, 0, 64, 85
2,114843, Control_c, 0, 64, 127
2,115063, Note_on_c, 0, 70, 61
2,115074, Note_on_c, 0, 56, 0
2,115077, Note_on_c, 0, 58, 37
2,115100, Note_on_c, 0, 68, 0
2,115128, Note_on_c, 0, 58, 0
2,115455, Note_on_c, 0, 63, 67
2,115458, Control_c, 0, 64, 104
2,115467, Note_on_c, 0, 59, 58
2,115476, Control_c, 0, 64, 75
2,115481, Note_on_c, 0, 68, 66
2,115496, Control_c, 0, 64, 58
2,115515, Control_c, 0, 64, 0
2,115573, Control_c, 0, 64, 20
2,115573, Note_on_c, 0, 71, 0
2,115592, Control_c, 0, 64, 51
2,115611, Control_c, 0, 64, 63
2,115631, Control_c, 0, 64, 67
2,115651, Control_c, 0, 64, 73
2,115670, Control_c, 0, 64, 77
2,115682, Note_on_c, 0, 70, 0
2,115689, Control_c, 0, 64, 81
2,115708, Control_c, 0, 64, 82
2,115746, Control_c, 0, 64, 81
2,115766, Control_c, 0, 64, 81
2,115805, Control_c, 0, 64, 80
2,115823, Control_c, 0, 64, 80
2,115830, Note_on_c, 0, 59, 0
2,115842, Control_c, 0, 64, 79
2,115862, Control_c, 0, 64, 78
2,115863, Note_on_c, 0, 58, 47
2,115865, Note_on_c, 0, 66, 50
2,115880, Control_c, 0, 64, 76
2,115899, Note_on_c, 0, 68, 0
2,115900, Control_c, 0, 64, 72
2,115919, Control_c, 0, 64, 66
2,115939, Control_c, 0, 64, 61
2,115957, Control_c, 0, 64, 48
2,115977, Control_c, 0, 64, 27
2,115996, Control_c, 0, 64, 0
2,116169, Control_c, 0, 64, 26
2,116188, Control_c, 0, 64, 48
2,116208, Control_c, 0, 64, 62
2,116226, Control_c, 0, 64, 66
2,116233, Note_on_c, 0, 58, 0
2,116241, Note_on_c, 0, 56, 49
2,116246, Control_c, 0, 64, 70
2,116255, Note_on_c, 0, 65, 51
2,116265, Control_c, 0, 64, 77
2,116285, Control_c, 0, 64, 89
2,116289, Note_on_c, 0, 66, 0
2,116303, Control_c, 0, 64, 106
2,116322, Control_c, 0, 64, 127
2,116466, Note_on_c, 0, 56, 0
2,116514, Note_on_c, 0, 63, 0
2,116617, Note_on_c, 0, 62, 56
2,116643, Note_on_c, 0, 56, 44
2,116665, Note_on_c, 0, 65, 0
2,116992, Control_c, 0, 64, 87
2,117012, Control_c, 0, 64, 66
2,117013, Note_on_c, 0, 63, 71
2,117025, Note_on_c, 0, 62, 0
2,117027, Note_on_c, 0, 54, 40
2,117031, Control_c, 0, 64, 43
2,117050, Control_c, 0, 64, 0
2,117074, Note_on_c, 0, 66, 39
2,117108, Control_c, 0, 64, 22
2,117127, Control_c, 0, 64, 46
2,117146, Control_c, 0, 64, 59
2,117166, Control_c, 0, 64, 65
2,117185, Control_c, 0, 64, 68
2,117203, Control_c, 0, 64, 74
2,117219, Note_on_c, 0, 54, 0
2,117223, Control_c, 0, 64, 83
2,117242, Control_c, 0, 64, 99
2,117261, Control_c, 0, 64, 127
2,117359, Note_on_c, 0, 56, 0
2,117425, Note_on_c, 0, 53, 50
2,117436, Note_on_c, 0, 65, 75
2,117477, Note_on_c, 0, 66, 0
2,117500, Note_on_c, 0, 63, 0
2,117793, Note_on_c, 0, 53, 0
2,117798, Control_c, 0, 64, 97
2,117808, Note_on_c, 0, 51, 49
2,117815, Note_on_c, 0, 66, 70
2,117817, Control_c, 0, 64, 75
2,117832, Note_on_c, 0, 70, 62
2,117836, Control_c, 0, 64, 61
2,117837, Note_on_c, 0, 65, 0
2,117856, Control_c, 0, 64, 0
2,117951, Control_c, 0, 64, 39
2,117971, Control_c, 0, 64, 56
2,117990, Control_c, 0, 64, 64
2,118010, Control_c, 0, 64, 67
2,118028, Control_c, 0, 64, 72
2,118048, Control_c, 0, 64, 80
2,118067, Control_c, 0, 64, 94
2,118086, Control_c, 0, 64, 127
2,118226, Note_on_c, 0, 65, 71
2,118227, Note_on_c, 0, 66, 0
2,118245, Note_on_c, 0, 70, 0
2,118265, Note_on_c, 0, 51, 0
2,118566, Control_c, 0, 64, 104
2,118585, Control_c, 0, 64, 79
2,118604, Control_c, 0, 64, 64
2,118610, Note_on_c, 0, 63, 55
2,118614, Note_on_c, 0, 72, 63
2,118624, Control_c, 0, 64, 34
2,118629, Note_on_c, 0, 56, 49
2,118642, Control_c, 0, 64, 0
2,118681, Note_on_c, 0, 65, 0
2,118739, Control_c, 0, 64, 41
2,118758, Control_c, 0, 64, 57
2,118777, Control_c, 0, 64, 64
2,118796, Control_c, 0, 64, 67
2,118816, Control_c, 0, 64, 74
2,118835, Control_c, 0, 64, 84
2,118855, Control_c, 0, 64, 100
2,118874, Control_c, 0, 64, 127
2,119007, Note_on_c, 0, 74, 64
2,119044, Note_on_c, 0, 72, 0
2,119374, Control_c, 0, 64, 100
2,119392, Control_c, 0, 64, 76
2,119394, Note_on_c, 0, 70, 73
2,119407, Note_on_c, 0, 75, 62
2,119412, Control_c, 0, 64, 63
2,119431, Control_c, 0, 64, 42
2,119450, Control_c, 0, 64, 34
2,119465, Note_on_c, 0, 74, 0
2,119469, Control_c, 0, 64, 36
2,119489, Control_c, 0, 64, 52
2,119508, Control_c, 0, 64, 62
2,119527, Control_c, 0, 64, 67
2,119546, Control_c, 0, 64, 72
2,119566, Control_c, 0, 64, 84
2,119585, Control_c, 0, 64, 105
2,119603, Control_c, 0, 64, 127
2,119663, Note_on_c, 0, 56, 0
2,119812, Note_on_c, 0, 55, 49
2,119897, Note_on_c, 0, 63, 0
2,119996, Note_on_c, 0, 53, 47
2,120051, Note_on_c, 0, 55, 0
2,120123, Control_c, 0, 64, 96
2,120142, Control_c, 0, 64, 73
2,120161, Control_c, 0, 64, 59
2,120181, Control_c, 0, 64, 13
2,120195, Note_on_c, 0, 63, 50
2,120198, Note_on_c, 0, 55, 55
2,120200, Control_c, 0, 64, 0
2,120201, Note_on_c, 0, 53, 0
2,120238, Control_c, 0, 64, 27
2,120258, Control_c, 0, 64, 49
2,120276, Control_c, 0, 64, 61
2,120296, Control_c, 0, 64, 66
2,120315, Control_c, 0, 64, 72
2,120335, Control_c, 0, 64, 81
2,120353, Control_c, 0, 64, 98
2,120373, Control_c, 0, 64, 127
2,120560, Note_on_c, 0, 73, 68
2,120910, Control_c, 0, 64, 108
2,120930, Control_c, 0, 64, 79
2,120944, Note_on_c, 0, 55, 0
2,120949, Control_c, 0, 64, 64
2,120953, Note_on_c, 0, 75, 0
2,120956, Note_on_c, 0, 72, 67
2,120968, Control_c, 0, 64, 41
2,120972, Note_on_c, 0, 56, 47
2,120977, Note_on_c, 0, 73, 0
2,120987, Control_c, 0, 64, 27
2,121007, Control_c, 0, 64, 28
2,121019, Note_on_c, 0, 70, 0
2,121025, Control_c, 0, 64, 44
2,121044, Control_c, 0, 64, 58
2,121064, Control_c, 0, 64, 65
2,121083, Control_c, 0, 64, 69
2,121102, Control_c, 0, 64, 75
2,121121, Control_c, 0, 64, 85
2,121141, Control_c, 0, 64, 101
2,121160, Control_c, 0, 64, 127
2,121316, Note_on_c, 0, 63, 0
2,121328, Note_on_c, 0, 74, 68
2,121339, Note_on_c, 0, 65, 59
2,121358, Note_on_c, 0, 54, 49
2,121386, Note_on_c, 0, 72, 0
2,121398, Note_on_c, 0, 56, 0
2,121411, Note_on_c, 0, 65, 0
2,121696, Control_c, 0, 64, 112
2,121715, Control_c, 0, 64, 85
2,121727, Note_on_c, 0, 53, 42
2,121730, Note_on_c, 0, 66, 66
2,121734, Note_on_c, 0, 75, 69
2,121737, Control_c, 0, 64, 68
2,121742, Note_on_c, 0, 54, 0
2,121756, Control_c, 0, 64, 51
2,121775, Control_c, 0, 64, 0
2,121779, Note_on_c, 0, 74, 0
2,121833, Control_c, 0, 64, 21
2,121852, Control_c, 0, 64, 44
2,121871, Control_c, 0, 64, 57
2,121891, Control_c, 0, 64, 63
2,121910, Control_c, 0, 64, 66
2,121929, Control_c, 0, 64, 70
2,121948, Control_c, 0, 64, 76
2,121968, Control_c, 0, 64, 90
2,121986, Control_c, 0, 64, 111
2,122006, Control_c, 0, 64, 127
2,122104, Note_on_c, 0, 51, 46
2,122105, Note_on_c, 0, 53, 0
2,122448, Control_c, 0, 64, 86
2,122466, Control_c, 0, 64, 67
2,122486, Control_c, 0, 64, 47
2,122493, Note_on_c, 0, 51, 0
2,122497, Note_on_c, 0, 68, 67
2,122500, Note_on_c, 0, 53, 44
2,122505, Control_c, 0, 64, 0
2,122562, Control_c, 0, 64, 22
2,122582, Control_c, 0, 64, 45
2,122600, Control_c, 0, 64, 58
2,122620, Control_c, 0, 64, 63
2,122639, Control_c, 0, 64, 66
2,122659, Control_c, 0, 64, 70
2,122677, Control_c, 0, 64, 75
2,122694, Control_c, 0, 64, 86
2,122713, Control_c, 0, 64, 105
2,122733, Control_c, 0, 64, 127
2,122886, Note_on_c, 0, 53, 0
2,122910, Note_on_c, 0, 54, 51
2,123015, Note_on_c, 0, 66, 0
2,123251, Control_c, 0, 64, 88
2,123270, Control_c, 0, 64, 68
2,123287, Note_on_c, 0, 54, 0
2,123290, Control_c, 0, 64, 52
2,123290, Note_on_c, 0, 74, 59
2,123299, Note_on_c, 0, 56, 40
2,123308, Control_c, 0, 64, 0
2,123332, Note_on_c, 0, 75, 0
2,123366, Control_c, 0, 64, 17
2,123385, Control_c, 0, 64, 33
2,123399, Control_c, 0, 64, 42
2,123418, Control_c, 0, 64, 50
2,123437, Control_c, 0, 64, 57
2,123456, Control_c, 0, 64, 62
2,123476, Control_c, 0, 64, 66
2,123494, Control_c, 0, 64, 71
2,123514, Control_c, 0, 64, 82
2,123533, Control_c, 0, 64, 101
2,123553, Control_c, 0, 64, 127
2,123692, Note_on_c, 0, 56, 0
2,123722, Note_on_c, 0, 58, 36
2,123767, Note_on_c, 0, 68, 0
2,123994, Control_c, 0, 64, 90
2,124013, Control_c, 0, 64, 70
2,124033, Control_c, 0, 64, 55
2,124037, Note_on_c, 0, 58, 0
2,124050, Note_on_c, 0, 51, 33
2,124051, Control_c, 0, 64, 45
2,124061, Note_on_c, 0, 66, 49
2,124071, Control_c, 0, 64, 47
2,124084, Note_on_c, 0, 75, 48
2,124090, Control_c, 0, 64, 55
2,124110, Control_c, 0, 64, 62
2,124128, Control_c, 0, 64, 66
2,124141, Note_on_c, 0, 74, 0
2,124148, Control_c, 0, 64, 71
2,124167, Control_c, 0, 64, 84
2,124186, Control_c, 0, 64, 104
2,124205, Control_c, 0, 64, 127
2,124240, Note_on_c, 0, 51, 0
2,124291, Note_on_c, 0, 63, 48
2,124443, Note_on_c, 0, 68, 64
2,124446, Note_on_c, 0, 63, 0
2,124470, Note_on_c, 0, 61, 47
2,124605, Note_on_c, 0, 68, 0
2,124610, Note_on_c, 0, 61, 0
2,124627, Note_on_c, 0, 59, 51
2,124632, Note_on_c, 0, 66, 0
2,124762, Control_c, 0, 64, 101
2,124781, Control_c, 0, 64, 74
2,124800, Control_c, 0, 64, 59
2,124808, Note_on_c, 0, 59, 0
2,124819, Control_c, 0, 64, 18
2,124821, Note_on_c, 0, 58, 49
2,124830, Note_on_c, 0, 74, 60
2,124834, Note_on_c, 0, 75, 0
2,124839, Control_c, 0, 64, 0
2,124840, Note_on_c, 0, 70, 61
2,124896, Control_c, 0, 64, 23
2,124916, Control_c, 0, 64, 45
2,124934, Control_c, 0, 64, 58
2,124954, Control_c, 0, 64, 64
2,124973, Control_c, 0, 64, 67
2,124993, Control_c, 0, 64, 73
2,125011, Control_c, 0, 64, 84
2,125031, Control_c, 0, 64, 106
2,125050, Control_c, 0, 64, 127
2,125213, Note_on_c, 0, 75, 72
2,125224, Note_on_c, 0, 72, 63
2,125225, Note_on_c, 0, 74, 0
2,125241, Note_on_c, 0, 70, 0
2,125323, Note_on_c, 0, 75, 0
2,125550, Control_c, 0, 64, 77
2,125570, Control_c, 0, 64, 61
2,125590, Control_c, 0, 64, 18
2,125606, Note_on_c, 0, 74, 61
2,125606, Note_on_c, 0, 77, 68
2,125609, Control_c, 0, 64, 0
2,125617, Note_on_c, 0, 72, 0
2,125647, Control_c, 0, 64, 19
2,125667, Control_c, 0, 64, 49
2,125685, Control_c, 0, 64, 63
2,125705, Control_c, 0, 64, 68
2,125724, Control_c, 0, 64, 74
2,125744, Control_c, 0, 64, 84
2,125746, Note_on_c, 0, 58, 0
2,125762, Control_c, 0, 64, 99
2,125781, Control_c, 0, 64, 127
2,125994, Note_on_c, 0, 80, 82
2,125997, Note_on_c, 0, 58, 43
2,126012, Control_c, 0, 64, 92
2,126016, Note_on_c, 0, 54, 43
2,126016, Note_on_c, 0, 77, 0
2,126031, Control_c, 0, 64, 70
2,126050, Control_c, 0, 64, 55
2,126070, Control_c, 0, 64, 24
2,126089, Control_c, 0, 64, 21
2,126108, Control_c, 0, 64, 27
2,126127, Control_c, 0, 64, 47
2,126147, Control_c, 0, 64, 60
2,126165, Control_c, 0, 64, 65
2,126182, Control_c, 0, 64, 68
2,126202, Control_c, 0, 64, 72
2,126221, Control_c, 0, 64, 79
2,126240, Control_c, 0, 64, 92
2,126259, Control_c, 0, 64, 114
2,126279, Control_c, 0, 64, 127
2,126356, Control_c, 0, 64, 118
2,126361, Note_on_c, 0, 54, 0
2,126361, Note_on_c, 0, 58, 0
2,126374, Control_c, 0, 64, 82
2,126374, Note_on_c, 0, 56, 55
2,126378, Note_on_c, 0, 78, 77
2,126381, Note_on_c, 0, 60, 50
2,126394, Control_c, 0, 64, 65
2,126413, Control_c, 0, 64, 46
2,126433, Control_c, 0, 64, 32
2,126471, Control_c, 0, 64, 43
2,126490, Control_c, 0, 64, 57
2,126510, Control_c, 0, 64, 64
2,126529, Control_c, 0, 64, 68
2,126549, Control_c, 0, 64, 73
2,126568, Control_c, 0, 64, 81
2,126587, Control_c, 0, 64, 95
2,126606, Control_c, 0, 64, 127
2,126614, Note_on_c, 0, 80, 0
2,126677, Note_on_c, 0, 74, 0
2,126726, Note_on_c, 0, 60, 0
2,126742, Note_on_c, 0, 56, 0
2,126750, Note_on_c, 0, 77, 77
2,126751, Note_on_c, 0, 62, 49
2,126753, Note_on_c, 0, 58, 51
2,126831, Note_on_c, 0, 58, 0
2,127083, Note_on_c, 0, 78, 0
2,127095, Note_on_c, 0, 59, 54
2,127100, Note_on_c, 0, 62, 0
2,127120, Note_on_c, 0, 63, 45
2,127162, Control_c, 0, 64, 83
2,127181, Control_c, 0, 64, 65
2,127190, Note_on_c, 0, 75, 75
2,127200, Control_c, 0, 64, 34
2,127219, Control_c, 0, 64, 0
2,127239, Note_on_c, 0, 77, 0
2,127277, Control_c, 0, 64, 29
2,127296, Control_c, 0, 64, 49
2,127316, Control_c, 0, 64, 61
2,127334, Control_c, 0, 64, 66
2,127354, Control_c, 0, 64, 71
2,127373, Control_c, 0, 64, 79
2,127393, Control_c, 0, 64, 95
2,127411, Control_c, 0, 64, 127
2,127524, Note_on_c, 0, 59, 0
2,127538, Note_on_c, 0, 73, 66
2,127557, Note_on_c, 0, 58, 51
2,127667, Note_on_c, 0, 58, 0
2,127725, Note_on_c, 0, 73, 0
2,127891, Control_c, 0, 64, 89
2,127911, Control_c, 0, 64, 69
2,127929, Note_on_c, 0, 56, 61
2,127930, Control_c, 0, 64, 54
2,127942, Note_on_c, 0, 71, 64
2,127950, Control_c, 0, 64, 38
2,127968, Control_c, 0, 64, 39
2,127988, Control_c, 0, 64, 47
2,127992, Note_on_c, 0, 75, 0
2,128007, Control_c, 0, 64, 58
2,128026, Control_c, 0, 64, 65
2,128045, Control_c, 0, 64, 68
2,128065, Control_c, 0, 64, 74
2,128084, Control_c, 0, 64, 84
2,128102, Control_c, 0, 64, 99
2,128122, Control_c, 0, 64, 127
2,128269, Note_on_c, 0, 71, 0
2,128279, Note_on_c, 0, 70, 66
2,128299, Note_on_c, 0, 65, 67
2,128373, Note_on_c, 0, 63, 0
2,128449, Note_on_c, 0, 71, 56
2,128453, Note_on_c, 0, 56, 0
2,128483, Note_on_c, 0, 70, 0
2,128698, Control_c, 0, 64, 96
2,128707, Note_on_c, 0, 66, 61
2,128715, Note_on_c, 0, 63, 59
2,128717, Control_c, 0, 64, 73
2,128734, Note_on_c, 0, 70, 72
2,128736, Control_c, 0, 64, 59
2,128756, Control_c, 0, 64, 19
2,128760, Note_on_c, 0, 71, 0
2,128767, Note_on_c, 0, 65, 0
2,128774, Control_c, 0, 64, 0
2,128833, Control_c, 0, 64, 11
2,128851, Control_c, 0, 64, 43
2,128871, Control_c, 0, 64, 57
2,128890, Control_c, 0, 64, 63
2,128910, Control_c, 0, 64, 67
2,128928, Control_c, 0, 64, 73
2,128948, Control_c, 0, 64, 84
2,128967, Control_c, 0, 64, 114
2,128986, Control_c, 0, 64, 127
2,129098, Note_on_c, 0, 72, 81
2,129116, Note_on_c, 0, 70, 0
2,129465, Note_on_c, 0, 58, 50
2,129466, Note_on_c, 0, 65, 49
2,129468, Control_c, 0, 64, 103
2,129473, Note_on_c, 0, 74, 79
2,129487, Control_c, 0, 64, 75
2,129495, Note_on_c, 0, 72, 0
2,129507, Control_c, 0, 64, 59
2,129525, Control_c, 0, 64, 0
2,129541, Note_on_c, 0, 66, 0
2,129546, Note_on_c, 0, 63, 0
2,129621, Control_c, 0, 64, 35
2,129641, Control_c, 0, 64, 54
2,129659, Control_c, 0, 64, 63
2,129679, Control_c, 0, 64, 68
2,129698, Control_c, 0, 64, 75
2,129718, Control_c, 0, 64, 88
2,129736, Control_c, 0, 64, 107
2,129756, Control_c, 0, 64, 127
2,129866, Note_on_c, 0, 75, 83
2,129867, Note_on_c, 0, 63, 64
2,129871, Control_c, 0, 64, 118
2,129890, Control_c, 0, 64, 83
2,129910, Control_c, 0, 64, 67
2,129912, Note_on_c, 0, 74, 0
2,129920, Note_on_c, 0, 65, 0
2,129932, Control_c, 0, 64, 54
2,129950, Control_c, 0, 64, 46
2,129970, Control_c, 0, 64, 49
2,129989, Control_c, 0, 64, 57
2,130008, Control_c, 0, 64, 63
2,130026, Control_c, 0, 64, 66
2,130046, Control_c, 0, 64, 69
2,130065, Control_c, 0, 64, 74
2,130084, Control_c, 0, 64, 83
2,130103, Control_c, 0, 64, 97
2,130123, Control_c, 0, 64, 127
2,130218, Control_c, 0, 64, 93
2,130238, Control_c, 0, 64, 72
2,130257, Control_c, 0, 64, 59
2,130266, Note_on_c, 0, 62, 55
2,130266, Note_on_c, 0, 77, 75
2,130277, Control_c, 0, 64, 43
2,130294, Note_on_c, 0, 75, 0
2,130295, Control_c, 0, 64, 43
2,130298, Note_on_c, 0, 63, 0
2,130314, Control_c, 0, 64, 50
2,130334, Control_c, 0, 64, 60
2,130352, Control_c, 0, 64, 64
2,130373, Control_c, 0, 64, 67
2,130392, Control_c, 0, 64, 71
2,130412, Control_c, 0, 64, 76
2,130430, Control_c, 0, 64, 84
2,130450, Control_c, 0, 64, 98
2,130469, Control_c, 0, 64, 127
2,130622, Control_c, 0, 64, 90
2,130642, Control_c, 0, 64, 67
2,130654, Note_on_c, 0, 63, 54
2,130661, Control_c, 0, 64, 51
2,130670, Note_on_c, 0, 60, 55
2,130670, Note_on_c, 0, 77, 0
2,130671, Note_on_c, 0, 70, 79
2,130681, Control_c, 0, 64, 33
2,130681, Note_on_c, 0, 62, 0
2,130697, Note_on_c, 0, 58, 0
2,130719, Control_c, 0, 64, 41
2,130738, Control_c, 0, 64, 56
2,130758, Control_c, 0, 64, 64
2,130776, Control_c, 0, 64, 68
2,130795, Control_c, 0, 64, 74
2,130815, Control_c, 0, 64, 84
2,130833, Control_c, 0, 64, 100
2,130853, Control_c, 0, 64, 127
2,131063, Control_c, 0, 64, 89
2,131083, Control_c, 0, 64, 68
2,131086, Note_on_c, 0, 82, 79
2,131102, Control_c, 0, 64, 50
2,131104, Note_on_c, 0, 62, 52
2,131111, Note_on_c, 0, 65, 31
2,131121, Control_c, 0, 64, 23
2,131126, Note_on_c, 0, 63, 0
2,131160, Control_c, 0, 64, 27
2,131178, Control_c, 0, 64, 48
2,131180, Note_on_c, 0, 60, 0
2,131198, Control_c, 0, 64, 60
2,131217, Control_c, 0, 64, 65
2,131237, Control_c, 0, 64, 68
2,131255, Control_c, 0, 64, 75
2,131274, Control_c, 0, 64, 86
2,131294, Control_c, 0, 64, 110
2,131312, Control_c, 0, 64, 127
2,131460, Note_on_c, 0, 80, 79
2,131632, Note_on_c, 0, 70, 0
2,131792, Control_c, 0, 64, 87
2,131812, Control_c, 0, 64, 67
2,131831, Control_c, 0, 64, 52
2,131834, Note_on_c, 0, 63, 43
2,131848, Note_on_c, 0, 78, 72
2,131851, Control_c, 0, 64, 40
2,131867, Note_on_c, 0, 65, 0
2,131869, Control_c, 0, 64, 41
2,131886, Note_on_c, 0, 62, 0
2,131889, Control_c, 0, 64, 51
2,131908, Control_c, 0, 64, 61
2,131924, Note_on_c, 0, 80, 0
2,131925, Note_on_c, 0, 82, 0
2,131928, Control_c, 0, 64, 66
2,131946, Control_c, 0, 64, 71
2,131966, Control_c, 0, 64, 82
2,131985, Control_c, 0, 64, 101
2,132004, Control_c, 0, 64, 127
2,132104, Note_on_c, 0, 63, 0
2,132219, Note_on_c, 0, 80, 76
2,132238, Note_on_c, 0, 59, 31
2,132259, Note_on_c, 0, 63, 32
2,132339, Note_on_c, 0, 59, 0
2,132363, Note_on_c, 0, 78, 0
2,132380, Note_on_c, 0, 62, 47
2,132389, Note_on_c, 0, 63, 0
2,132578, Control_c, 0, 64, 106
2,132598, Control_c, 0, 64, 77
2,132603, Note_on_c, 0, 82, 74
2,132612, Note_on_c, 0, 54, 51
2,132617, Control_c, 0, 64, 62
2,132625, Note_on_c, 0, 62, 0
2,132635, Control_c, 0, 64, 29
2,132647, Note_on_c, 0, 63, 29
2,132655, Control_c, 0, 64, 0
2,132680, Note_on_c, 0, 80, 0
2,132693, Control_c, 0, 64, 13
2,132712, Control_c, 0, 64, 38
2,132732, Control_c, 0, 64, 54
2,132751, Control_c, 0, 64, 62
2,132770, Control_c, 0, 64, 66
2,132789, Control_c, 0, 64, 70
2,132809, Control_c, 0, 64, 76
2,132827, Control_c, 0, 64, 90
2,132847, Control_c, 0, 64, 127
2,132984, Note_on_c, 0, 54, 0
2,132990, Note_on_c, 0, 83, 70
2,133006, Note_on_c, 0, 56, 52
2,133161, Note_on_c, 0, 82, 0
2,133346, Control_c, 0, 64, 85
2,133366, Control_c, 0, 64, 67
2,133367, Note_on_c, 0, 56, 0
2,133384, Control_c, 0, 64, 36
2,133395, Note_on_c, 0, 58, 42
2,133404, Control_c, 0, 64, 0
2,133415, Note_on_c, 0, 77, 60
2,133481, Control_c, 0, 64, 36
2,133500, Control_c, 0, 64, 54
2,133502, Note_on_c, 0, 83, 0
2,133519, Control_c, 0, 64, 63
2,133538, Control_c, 0, 64, 67
2,133558, Control_c, 0, 64, 72
2,133577, Control_c, 0, 64, 83
2,133595, Control_c, 0, 64, 105
2,133615, Control_c, 0, 64, 127
2,133825, Note_on_c, 0, 61, 55
2,133828, Note_on_c, 0, 58, 0
2,133887, Note_on_c, 0, 63, 0
2,134195, Note_on_c, 0, 51, 49
2,134210, Note_on_c, 0, 59, 49
2,134214, Control_c, 0, 64, 103
2,134222, Note_on_c, 0, 79, 74
2,134226, Note_on_c, 0, 61, 0
2,134233, Control_c, 0, 64, 75
2,134252, Control_c, 0, 64, 60
2,134271, Control_c, 0, 64, 0
2,134299, Note_on_c, 0, 77, 0
2,134348, Control_c, 0, 64, 35
2,134368, Control_c, 0, 64, 55
2,134387, Control_c, 0, 64, 63
2,134406, Control_c, 0, 64, 66
2,134425, Control_c, 0, 64, 71
2,134445, Control_c, 0, 64, 78
2,134463, Control_c, 0, 64, 91
2,134483, Control_c, 0, 64, 127
2,134606, Note_on_c, 0, 58, 63
2,134621, Note_on_c, 0, 51, 0
2,134674, Note_on_c, 0, 59, 0
2,134981, Note_on_c, 0, 59, 56
2,134992, Note_on_c, 0, 56, 52
2,135001, Control_c, 0, 64, 83
2,135004, Note_on_c, 0, 80, 79
2,135013, Note_on_c, 0, 58, 0
2,135019, Control_c, 0, 64, 65
2,135039, Control_c, 0, 64, 34
2,135055, Note_on_c, 0, 79, 0
2,135058, Control_c, 0, 64, 0
2,135078, Note_on_c, 0, 56, 0
2,135096, Control_c, 0, 64, 21
2,135115, Control_c, 0, 64, 49
2,135135, Control_c, 0, 64, 62
2,135153, Control_c, 0, 64, 67
2,135172, Control_c, 0, 64, 75
2,135191, Control_c, 0, 64, 88
2,135211, Control_c, 0, 64, 113
2,135229, Control_c, 0, 64, 127
2,135346, Note_on_c, 0, 59, 0
2,135360, Note_on_c, 0, 63, 62
2,135393, Note_on_c, 0, 58, 50
2,135400, Note_on_c, 0, 78, 74
2,135461, Note_on_c, 0, 80, 0
2,135492, Note_on_c, 0, 58, 0
2,135786, Control_c, 0, 64, 117
2,135795, Note_on_c, 0, 77, 65
2,135802, Note_on_c, 0, 59, 50
2,135806, Control_c, 0, 64, 82
2,135812, Note_on_c, 0, 68, 61
2,135825, Control_c, 0, 64, 64
2,135842, Note_on_c, 0, 78, 0
2,135844, Control_c, 0, 64, 32
2,135863, Control_c, 0, 64, 0
2,135892, Note_on_c, 0, 63, 0
2,135940, Control_c, 0, 64, 15
2,135960, Control_c, 0, 64, 47
2,135978, Control_c, 0, 64, 61
2,135998, Control_c, 0, 64, 67
2,136017, Control_c, 0, 64, 73
2,136036, Control_c, 0, 64, 83
2,136055, Control_c, 0, 64, 102
2,136074, Control_c, 0, 64, 127
2,136096, Note_on_c, 0, 59, 0
2,136196, Note_on_c, 0, 75, 70
2,136293, Note_on_c, 0, 77, 0
2,136558, Control_c, 0, 64, 102
2,136577, Control_c, 0, 64, 76
2,136585, Note_on_c, 0, 58, 41
2,136595, Control_c, 0, 64, 61
2,136615, Control_c, 0, 64, 0
2,136620, Note_on_c, 0, 74, 58
2,136678, Note_on_c, 0, 75, 0
2,136697, Note_on_c, 0, 68, 0
2,136711, Control_c, 0, 64, 41
2,136730, Control_c, 0, 64, 58
2,136744, Control_c, 0, 64, 64
2,136764, Control_c, 0, 64, 68
2,136783, Control_c, 0, 64, 72
2,136803, Control_c, 0, 64, 79
2,136821, Control_c, 0, 64, 91
2,136841, Control_c, 0, 64, 105
2,136860, Control_c, 0, 64, 127
2,136969, Note_on_c, 0, 66, 52
2,137215, Note_on_c, 0, 66, 0
2,137359, Control_c, 0, 64, 104
2,137378, Control_c, 0, 64, 79
2,137398, Control_c, 0, 64, 64
2,137417, Control_c, 0, 64, 31
2,137417, Note_on_c, 0, 65, 37
2,137419, Note_on_c, 0, 75, 65
2,137435, Control_c, 0, 64, 0
2,137498, Note_on_c, 0, 74, 0
2,137512, Control_c, 0, 64, 45
2,137532, Control_c, 0, 64, 60
2,137551, Control_c, 0, 64, 65
2,137570, Control_c, 0, 64, 69
2,137589, Control_c, 0, 64, 76
2,137609, Control_c, 0, 64, 86
2,137627, Control_c, 0, 64, 101
2,137647, Control_c, 0, 64, 127
2,137808, Note_on_c, 0, 65, 0
2,137835, Note_on_c, 0, 63, 41
2,138166, Control_c, 0, 64, 89
2,138172, Note_on_c, 0, 58, 0
2,138184, Control_c, 0, 64, 69
2,138202, Note_on_c, 0, 63, 0
2,138204, Control_c, 0, 64, 45
2,138206, Note_on_c, 0, 65, 45
2,138223, Control_c, 0, 64, 0
2,138261, Control_c, 0, 64, 11
2,138281, Control_c, 0, 64, 42
2,138300, Control_c, 0, 64, 59
2,138319, Control_c, 0, 64, 66
2,138338, Control_c, 0, 64, 73
2,138358, Control_c, 0, 64, 84
2,138377, Control_c, 0, 64, 106
2,138395, Control_c, 0, 64, 127
2,138614, Note_on_c, 0, 73, 63
2,138660, Note_on_c, 0, 75, 0
2,138973, Control_c, 0, 64, 83
2,138990, Note_on_c, 0, 73, 0
2,138992, Control_c, 0, 64, 65
2,138998, Note_on_c, 0, 65, 0
2,139008, Note_on_c, 0, 71, 52
2,139009, Note_on_c, 0, 67, 37
2,139012, Control_c, 0, 64, 36
2,139031, Control_c, 0, 64, 21
2,139051, Control_c, 0, 64, 23
2,139069, Control_c, 0, 64, 43
2,139089, Control_c, 0, 64, 60
2,139108, Control_c, 0, 64, 67
2,139128, Control_c, 0, 64, 74
2,139146, Control_c, 0, 64, 89
2,139166, Control_c, 0, 64, 127
2,139272, Note_on_c, 0, 67, 0
2,139396, Note_on_c, 0, 70, 68
2,139416, Note_on_c, 0, 71, 0
2,139783, Note_on_c, 0, 70, 0
2,139798, Note_on_c, 0, 68, 61
2,139799, Control_c, 0, 64, 81
2,139802, Note_on_c, 0, 71, 47
2,139817, Control_c, 0, 64, 63
2,139836, Control_c, 0, 64, 33
2,139856, Control_c, 0, 64, 0
2,139894, Control_c, 0, 64, 38
2,139913, Control_c, 0, 64, 59
2,139933, Control_c, 0, 64, 67
2,139952, Control_c, 0, 64, 74
2,139970, Control_c, 0, 64, 91
2,139989, Control_c, 0, 64, 127
2,140175, Note_on_c, 0, 71, 0
2,140192, Note_on_c, 0, 66, 65
2,140218, Note_on_c, 0, 70, 61
2,140222, Note_on_c, 0, 68, 0
2,140534, Note_on_c, 0, 66, 0
2,140609, Note_on_c, 0, 65, 65
2,140627, Note_on_c, 0, 68, 64
2,140638, Note_on_c, 0, 70, 0
2,140723, Note_on_c, 0, 68, 0
2,141025, Note_on_c, 0, 63, 72
2,141076, Note_on_c, 0, 65, 0
2,141440, Note_on_c, 0, 46, 73
2,141467, Control_c, 0, 64, 109
2,141487, Control_c, 0, 64, 76
2,141490, Note_on_c, 0, 62, 61
2,141506, Control_c, 0, 64, 57
2,141526, Control_c, 0, 64, 0
2,141570, Note_on_c, 0, 63, 0
2,141621, Control_c, 0, 64, 45
2,141641, Control_c, 0, 64, 62
2,141660, Control_c, 0, 64, 68
2,141679, Control_c, 0, 64, 78
2,141698, Control_c, 0, 64, 108
2,141717, Control_c, 0, 64, 127
2,141858, Note_on_c, 0, 66, 65
2,141926, Note_on_c, 0, 62, 0
2,142037, Note_on_c, 0, 65, 60
2,142102, Note_on_c, 0, 66, 0
2,142219, Note_on_c, 0, 39, 69
2,142235, Control_c, 0, 64, 95
2,142240, Note_on_c, 0, 63, 63
2,142248, Note_on_c, 0, 66, 65
2,142255, Control_c, 0, 64, 69
2,142260, Note_on_c, 0, 65, 0
2,142274, Control_c, 0, 64, 46
2,142293, Control_c, 0, 64, 0
2,142312, Note_on_c, 0, 46, 0
2,142351, Control_c, 0, 64, 23
2,142370, Control_c, 0, 64, 51
2,142389, Control_c, 0, 64, 63
2,142409, Control_c, 0, 64, 68
2,142427, Control_c, 0, 64, 77
2,142447, Control_c, 0, 64, 97
2,142466, Control_c, 0, 64, 127
2,142619, Note_on_c, 0, 68, 74
2,142652, Note_on_c, 0, 65, 53
2,142667, Note_on_c, 0, 66, 0
2,142726, Note_on_c, 0, 68, 0
2,143023, Control_c, 0, 64, 123
2,143031, Note_on_c, 0, 70, 77
2,143043, Control_c, 0, 64, 78
2,143061, Control_c, 0, 64, 61
2,143080, Note_on_c, 0, 65, 0
2,143081, Control_c, 0, 64, 27
2,143100, Control_c, 0, 64, 11
2,143138, Control_c, 0, 64, 30
2,143157, Control_c, 0, 64, 54
2,143177, Control_c, 0, 64, 64
2,143195, Control_c, 0, 64, 69
2,143215, Control_c, 0, 64, 77
2,143234, Control_c, 0, 64, 97
2,143253, Control_c, 0, 64, 127
2,143448, Note_on_c, 0, 38, 58
2,143448, Note_on_c, 0, 65, 57
2,143472, Note_on_c, 0, 39, 0
2,143538, Note_on_c, 0, 63, 0
2,143849, Note_on_c, 0, 63, 74
2,143866, Note_on_c, 0, 39, 56
2,143868, Control_c, 0, 64, 107
2,143888, Control_c, 0, 64, 75
2,143907, Control_c, 0, 64, 60
2,143927, Control_c, 0, 64, 34
2,143931, Note_on_c, 0, 38, 0
2,143945, Control_c, 0, 64, 30
2,143965, Control_c, 0, 64, 35
2,143984, Control_c, 0, 64, 54
2,144003, Control_c, 0, 64, 63
2,144018, Note_on_c, 0, 70, 0
2,144022, Control_c, 0, 64, 69
2,144042, Control_c, 0, 64, 78
2,144061, Control_c, 0, 64, 97
2,144080, Control_c, 0, 64, 127
2,144117, Note_on_c, 0, 65, 0
2,144240, Note_on_c, 0, 68, 68
2,144253, Note_on_c, 0, 39, 0
2,144253, Note_on_c, 0, 41, 56
2,144617, Control_c, 0, 64, 84
2,144634, Note_on_c, 0, 68, 0
2,144635, Control_c, 0, 64, 65
2,144650, Note_on_c, 0, 41, 0
2,144653, Note_on_c, 0, 70, 61
2,144655, Control_c, 0, 64, 39
2,144656, Note_on_c, 0, 42, 56
2,144674, Control_c, 0, 64, 31
2,144693, Control_c, 0, 64, 35
2,144712, Control_c, 0, 64, 51
2,144732, Control_c, 0, 64, 63
2,144751, Control_c, 0, 64, 68
2,144771, Control_c, 0, 64, 75
2,144790, Control_c, 0, 64, 89
2,144810, Control_c, 0, 64, 127
2,145031, Note_on_c, 0, 62, 65
2,145036, Note_on_c, 0, 41, 58
2,145053, Note_on_c, 0, 42, 0
2,145053, Note_on_c, 0, 68, 69
2,145079, Control_c, 0, 64, 78
2,145080, Note_on_c, 0, 70, 0
2,145098, Control_c, 0, 64, 63
2,145116, Control_c, 0, 64, 43
2,145136, Control_c, 0, 64, 39
2,145155, Control_c, 0, 64, 42
2,145174, Control_c, 0, 64, 55
2,145184, Note_on_c, 0, 63, 0
2,145193, Control_c, 0, 64, 63
2,145213, Control_c, 0, 64, 68
2,145223, Note_on_c, 0, 68, 0
2,145232, Control_c, 0, 64, 73
2,145251, Control_c, 0, 64, 83
2,145270, Control_c, 0, 64, 98
2,145290, Control_c, 0, 64, 127
2,145423, Note_on_c, 0, 63, 75
2,145432, Note_on_c, 0, 39, 54
2,145458, Note_on_c, 0, 41, 0
2,145458, Note_on_c, 0, 66, 59
2,145536, Note_on_c, 0, 62, 0
2,145768, Note_on_c, 0, 65, 71
2,145807, Note_on_c, 0, 63, 0
2,145830, Note_on_c, 0, 66, 0
2,145969, Note_on_c, 0, 63, 48
2,145979, Note_on_c, 0, 65, 0
2,146153, Control_c, 0, 64, 102
2,146167, Note_on_c, 0, 66, 69
2,146173, Control_c, 0, 64, 71
2,146174, Note_on_c, 0, 46, 54
2,146178, Note_on_c, 0, 62, 54
2,146192, Control_c, 0, 64, 51
2,146211, Control_c, 0, 64, 0
2,146288, Control_c, 0, 64, 36
2,146307, Control_c, 0, 64, 58
2,146321, Note_on_c, 0, 39, 0
2,146327, Control_c, 0, 64, 64
2,146344, Control_c, 0, 64, 69
2,146363, Note_on_c, 0, 63, 0
2,146364, Control_c, 0, 64, 75
2,146383, Control_c, 0, 64, 88
2,146403, Control_c, 0, 64, 118
2,146421, Control_c, 0, 64, 127
2,146597, Note_on_c, 0, 65, 60
2,146598, Note_on_c, 0, 68, 46
2,146616, Note_on_c, 0, 62, 0
2,146649, Note_on_c, 0, 68, 0
2,146812, Note_on_c, 0, 66, 0
2,146960, Control_c, 0, 64, 100
2,146976, Note_on_c, 0, 39, 51
2,146979, Control_c, 0, 64, 73
2,146988, Note_on_c, 0, 63, 67
2,146998, Control_c, 0, 64, 49
2,147018, Control_c, 0, 64, 0
2,147020, Note_on_c, 0, 65, 0
2,147029, Note_on_c, 0, 46, 0
2,147094, Control_c, 0, 64, 45
2,147113, Control_c, 0, 64, 61
2,147133, Control_c, 0, 64, 67
2,147152, Control_c, 0, 64, 74
2,147171, Control_c, 0, 64, 88
2,147190, Control_c, 0, 64, 127
2,147361, Note_on_c, 0, 66, 40
2,147489, Note_on_c, 0, 66, 0
2,147509, Note_on_c, 0, 63, 0
2,147518, Note_on_c, 0, 65, 33
2,147562, Note_on_c, 0, 65, 0
2,147707, Control_c, 0, 64, 116
2,147727, Control_c, 0, 64, 79
2,147727, Note_on_c, 0, 70, 68
2,147740, Note_on_c, 0, 67, 57
2,147746, Control_c, 0, 64, 63
2,147766, Control_c, 0, 64, 41
2,147784, Control_c, 0, 64, 34
2,147804, Control_c, 0, 64, 36
2,147823, Control_c, 0, 64, 51
2,147843, Control_c, 0, 64, 61
2,147861, Control_c, 0, 64, 66
2,147881, Control_c, 0, 64, 72
2,147900, Control_c, 0, 64, 83
2,147918, Control_c, 0, 64, 109
2,147938, Control_c, 0, 64, 127
2,148100, Note_on_c, 0, 41, 53
2,148112, Note_on_c, 0, 68, 61
2,148114, Note_on_c, 0, 70, 0
2,148179, Note_on_c, 0, 39, 0
2,148328, Note_on_c, 0, 67, 0
2,148494, Control_c, 0, 64, 105
2,148503, Note_on_c, 0, 43, 50
2,148512, Note_on_c, 0, 63, 68
2,148513, Control_c, 0, 64, 73
2,148533, Control_c, 0, 64, 58
2,148537, Note_on_c, 0, 70, 60
2,148542, Note_on_c, 0, 41, 0
2,148551, Control_c, 0, 64, 30
2,148563, Note_on_c, 0, 68, 0
2,148571, Control_c, 0, 64, 26
2,148590, Control_c, 0, 64, 28
2,148610, Control_c, 0, 64, 42
2,148629, Control_c, 0, 64, 57
2,148649, Control_c, 0, 64, 65
2,148667, Control_c, 0, 64, 69
2,148687, Control_c, 0, 64, 78
2,148706, Control_c, 0, 64, 96
2,148726, Control_c, 0, 64, 127
2,148901, Note_on_c, 0, 61, 57
2,148978, Note_on_c, 0, 61, 0
2,149263, Control_c, 0, 64, 102
2,149283, Control_c, 0, 64, 74
2,149301, Control_c, 0, 64, 59
2,149303, Note_on_c, 0, 59, 60
2,149321, Control_c, 0, 64, 22
2,149324, Note_on_c, 0, 63, 0
2,149340, Control_c, 0, 64, 11
2,149345, Note_on_c, 0, 44, 41
2,149358, Control_c, 0, 64, 17
2,149373, Note_on_c, 0, 43, 0
2,149378, Control_c, 0, 64, 38
2,149397, Control_c, 0, 64, 56
2,149417, Control_c, 0, 64, 64
2,149435, Control_c, 0, 64, 68
2,149455, Control_c, 0, 64, 76
2,149474, Control_c, 0, 64, 95
2,149493, Control_c, 0, 64, 127
2,149660, Note_on_c, 0, 59, 0
2,149660, Note_on_c, 0, 61, 64
2,149670, Note_on_c, 0, 65, 67
2,149742, Note_on_c, 0, 70, 0
2,149837, Note_on_c, 0, 61, 0
2,150072, Control_c, 0, 64, 102
2,150076, Note_on_c, 0, 46, 55
2,150086, Note_on_c, 0, 63, 70
2,150089, Note_on_c, 0, 67, 66
2,150092, Control_c, 0, 64, 75
2,150110, Control_c, 0, 64, 60
2,150126, Note_on_c, 0, 65, 0
2,150130, Control_c, 0, 64, 21
2,150131, Note_on_c, 0, 44, 0
2,150149, Control_c, 0, 64, 0
2,150184, Control_c, 0, 64, 27
2,150204, Control_c, 0, 64, 50
2,150223, Control_c, 0, 64, 62
2,150243, Control_c, 0, 64, 66
2,150261, Control_c, 0, 64, 72
2,150281, Control_c, 0, 64, 85
2,150300, Control_c, 0, 64, 127
2,150465, Note_on_c, 0, 64, 76
2,150480, Note_on_c, 0, 46, 0
2,150491, Note_on_c, 0, 63, 0
2,150846, Note_on_c, 0, 47, 57
2,150857, Control_c, 0, 64, 82
2,150858, Note_on_c, 0, 63, 75
2,150875, Control_c, 0, 64, 65
2,150878, Note_on_c, 0, 68, 63
2,150887, Note_on_c, 0, 64, 0
2,150895, Control_c, 0, 64, 42
2,150914, Control_c, 0, 64, 23
2,150935, Note_on_c, 0, 67, 0
2,150952, Control_c, 0, 64, 34
2,150972, Control_c, 0, 64, 52
2,150991, Control_c, 0, 64, 64
2,151010, Control_c, 0, 64, 69
2,151018, Note_on_c, 0, 68, 0
2,151029, Control_c, 0, 64, 77
2,151049, Control_c, 0, 64, 98
2,151067, Control_c, 0, 64, 127
2,151130, Note_on_c, 0, 63, 0
2,151252, Note_on_c, 0, 49, 65
2,151271, Note_on_c, 0, 47, 0
2,151672, Note_on_c, 0, 80, 83
2,151682, Note_on_c, 0, 56, 48
2,151684, Note_on_c, 0, 47, 57
2,151688, Control_c, 0, 64, 99
2,151707, Control_c, 0, 64, 72
2,151718, Note_on_c, 0, 49, 0
2,151726, Control_c, 0, 64, 56
2,151746, Control_c, 0, 64, 0
2,151803, Control_c, 0, 64, 27
2,151823, Control_c, 0, 64, 53
2,151841, Control_c, 0, 64, 63
2,151860, Control_c, 0, 64, 67
2,151880, Control_c, 0, 64, 73
2,151898, Control_c, 0, 64, 83
2,151918, Control_c, 0, 64, 102
2,151937, Control_c, 0, 64, 127
2,152099, Note_on_c, 0, 47, 0
2,152104, Note_on_c, 0, 46, 60
2,152476, Control_c, 0, 64, 92
2,152495, Control_c, 0, 64, 70
2,152508, Note_on_c, 0, 44, 55
2,152514, Control_c, 0, 64, 48
2,152520, Note_on_c, 0, 75, 72
2,152531, Note_on_c, 0, 46, 0
2,152533, Control_c, 0, 64, 0
2,152572, Control_c, 0, 64, 15
2,152591, Control_c, 0, 64, 42
2,152610, Control_c, 0, 64, 59
2,152630, Control_c, 0, 64, 65
2,152648, Control_c, 0, 64, 72
2,152668, Control_c, 0, 64, 83
2,152675, Note_on_c, 0, 56, 0
2,152687, Control_c, 0, 64, 103
2,152707, Control_c, 0, 64, 127
2,152877, Note_on_c, 0, 46, 62
2,152878, Note_on_c, 0, 55, 54
2,152898, Note_on_c, 0, 44, 0
2,152969, Note_on_c, 0, 55, 0
2,153089, Note_on_c, 0, 46, 0
2,153242, Control_c, 0, 64, 86
2,153261, Control_c, 0, 64, 68
2,153264, Note_on_c, 0, 47, 63
2,153280, Control_c, 0, 64, 55
2,153287, Note_on_c, 0, 56, 57
2,153299, Control_c, 0, 64, 46
2,153319, Control_c, 0, 64, 48
2,153338, Control_c, 0, 64, 56
2,153357, Control_c, 0, 64, 63
2,153376, Control_c, 0, 64, 67
2,153396, Control_c, 0, 64, 73
2,153414, Control_c, 0, 64, 85
2,153433, Note_on_c, 0, 56, 0
2,153434, Control_c, 0, 64, 112
2,153453, Control_c, 0, 64, 127
2,153599, Note_on_c, 0, 58, 51
2,153606, Note_on_c, 0, 73, 79
2,153610, Note_on_c, 0, 52, 53
2,153665, Note_on_c, 0, 75, 0
2,153745, Note_on_c, 0, 52, 0
2,153749, Note_on_c, 0, 49, 66
2,153760, Note_on_c, 0, 58, 0
2,153887, Note_on_c, 0, 47, 0
2,153968, Control_c, 0, 64, 84
2,153986, Note_on_c, 0, 59, 55
2,153988, Control_c, 0, 64, 66
2,153995, Note_on_c, 0, 56, 51
2,154002, Note_on_c, 0, 75, 85
2,154007, Control_c, 0, 64, 42
2,154026, Control_c, 0, 64, 26
2,154046, Note_on_c, 0, 80, 0
2,154064, Control_c, 0, 64, 32
2,154083, Control_c, 0, 64, 48
2,154085, Note_on_c, 0, 73, 0
2,154102, Control_c, 0, 64, 60
2,154121, Control_c, 0, 64, 65
2,154128, Note_on_c, 0, 59, 0
2,154141, Control_c, 0, 64, 70
2,154160, Control_c, 0, 64, 79
2,154179, Control_c, 0, 64, 97
2,154198, Control_c, 0, 64, 127
2,154377, Note_on_c, 0, 56, 0
2,154400, Note_on_c, 0, 58, 67
2,154552, Note_on_c, 0, 58, 0
2,154758, Control_c, 0, 64, 103
2,154777, Control_c, 0, 64, 76
2,154782, Note_on_c, 0, 49, 0
2,154783, Note_on_c, 0, 47, 66
2,154790, Note_on_c, 0, 56, 63
2,154796, Control_c, 0, 64, 63
2,154816, Control_c, 0, 64, 48
2,154835, Control_c, 0, 64, 46
2,154854, Control_c, 0, 64, 51
2,154873, Control_c, 0, 64, 59
2,154893, Control_c, 0, 64, 64
2,154911, Control_c, 0, 64, 69
2,154930, Control_c, 0, 64, 77
2,154950, Control_c, 0, 64, 95
2,154969, Control_c, 0, 64, 127
2,155160, Note_on_c, 0, 49, 58
2,155163, Note_on_c, 0, 77, 80
2,155169, Note_on_c, 0, 47, 0
2,155209, Note_on_c, 0, 56, 0
2,155226, Note_on_c, 0, 75, 0
2,155251, Note_on_c, 0, 49, 0
2,155543, Control_c, 0, 64, 117
2,155562, Control_c, 0, 64, 80
2,155582, Control_c, 0, 64, 65
2,155582, Note_on_c, 0, 63, 57
2,155587, Note_on_c, 0, 51, 46
2,155588, Note_on_c, 0, 78, 79
2,155600, Control_c, 0, 64, 52
2,155620, Control_c, 0, 64, 49
2,155639, Control_c, 0, 64, 53
2,155659, Control_c, 0, 64, 61
2,155661, Note_on_c, 0, 77, 0
2,155677, Control_c, 0, 64, 65
2,155697, Control_c, 0, 64, 71
2,155716, Control_c, 0, 64, 82
2,155736, Control_c, 0, 64, 108
2,155754, Control_c, 0, 64, 127
2,155850, Note_on_c, 0, 51, 0
2,155949, Note_on_c, 0, 63, 0
2,155990, Note_on_c, 0, 50, 59
2,156330, Control_c, 0, 64, 98
2,156350, Control_c, 0, 64, 70
2,156368, Control_c, 0, 64, 54
2,156388, Control_c, 0, 64, 29
2,156396, Note_on_c, 0, 58, 57
2,156401, Note_on_c, 0, 51, 53
2,156404, Note_on_c, 0, 50, 0
2,156407, Control_c, 0, 64, 29
2,156423, Control_c, 0, 64, 32
2,156443, Control_c, 0, 64, 47
2,156462, Control_c, 0, 64, 60
2,156482, Control_c, 0, 64, 66
2,156500, Control_c, 0, 64, 73
2,156519, Control_c, 0, 64, 84
2,156539, Control_c, 0, 64, 110
2,156557, Control_c, 0, 64, 127
2,156767, Note_on_c, 0, 77, 78
2,156772, Note_on_c, 0, 53, 55
2,156773, Note_on_c, 0, 51, 0
2,156847, Note_on_c, 0, 78, 0
2,157114, Note_on_c, 0, 53, 0
2,157115, Control_c, 0, 64, 89
2,157135, Control_c, 0, 64, 69
2,157137, Note_on_c, 0, 54, 56
2,157151, Note_on_c, 0, 75, 76
2,157154, Control_c, 0, 64, 55
2,157173, Control_c, 0, 64, 44
2,157174, Note_on_c, 0, 77, 0
2,157192, Control_c, 0, 64, 45
2,157212, Control_c, 0, 64, 54
2,157231, Control_c, 0, 64, 62
2,157250, Control_c, 0, 64, 66
2,157269, Control_c, 0, 64, 72
2,157289, Control_c, 0, 64, 83
2,157307, Control_c, 0, 64, 127
2,157330, Note_on_c, 0, 54, 0
2,157383, Note_on_c, 0, 58, 0
2,157511, Note_on_c, 0, 59, 56
2,157550, Note_on_c, 0, 56, 46
2,157590, Note_on_c, 0, 59, 0
2,157863, Control_c, 0, 64, 107
2,157883, Control_c, 0, 64, 77
2,157902, Control_c, 0, 64, 62
2,157922, Control_c, 0, 64, 40
2,157922, Note_on_c, 0, 56, 0
2,157923, Note_on_c, 0, 61, 40
2,157930, Note_on_c, 0, 52, 38
2,157932, Note_on_c, 0, 82, 77
2,157940, Control_c, 0, 64, 33
2,157959, Control_c, 0, 64, 34
2,157979, Control_c, 0, 64, 43
2,157983, Note_on_c, 0, 75, 0
2,157997, Control_c, 0, 64, 57
2,158017, Control_c, 0, 64, 63
2,158036, Control_c, 0, 64, 67
2,158056, Control_c, 0, 64, 72
2,158074, Control_c, 0, 64, 81
2,158094, Control_c, 0, 64, 99
2,158113, Control_c, 0, 64, 127
2,158329, Note_on_c, 0, 55, 46
2,158360, Note_on_c, 0, 61, 0
2,158463, Note_on_c, 0, 52, 0
2,158670, Control_c, 0, 64, 84
2,158689, Control_c, 0, 64, 65
2,158708, Control_c, 0, 64, 48
2,158713, Note_on_c, 0, 55, 0
2,158714, Note_on_c, 0, 75, 66
2,158726, Note_on_c, 0, 56, 46
2,158728, Control_c, 0, 64, 41
2,158766, Control_c, 0, 64, 49
2,158785, Control_c, 0, 64, 58
2,158805, Control_c, 0, 64, 64
2,158823, Control_c, 0, 64, 68
2,158843, Control_c, 0, 64, 74
2,158862, Control_c, 0, 64, 85
2,158882, Control_c, 0, 64, 111
2,158900, Control_c, 0, 64, 127
2,159123, Note_on_c, 0, 56, 0
2,159123, Note_on_c, 0, 73, 57
2,159152, Note_on_c, 0, 82, 0
2,159160, Note_on_c, 0, 58, 32
2,159457, Control_c, 0, 64, 111
2,159467, Note_on_c, 0, 75, 0
2,159476, Control_c, 0, 64, 79
2,159487, Note_on_c, 0, 71, 60
2,159496, Control_c, 0, 64, 65
2,159496, Note_on_c, 0, 73, 0
2,159509, Note_on_c, 0, 56, 45
2,159514, Control_c, 0, 64, 53
2,159534, Control_c, 0, 64, 53
2,159553, Control_c, 0, 64, 58
2,159564, Note_on_c, 0, 58, 0
2,159573, Control_c, 0, 64, 63
2,159591, Control_c, 0, 64, 66
2,159611, Control_c, 0, 64, 71
2,159630, Control_c, 0, 64, 80
2,159649, Control_c, 0, 64, 102
2,159668, Control_c, 0, 64, 127
2,159831, Note_on_c, 0, 71, 0
2,159893, Note_on_c, 0, 54, 49
2,159895, Note_on_c, 0, 75, 68
2,159897, Note_on_c, 0, 70, 63
2,159907, Note_on_c, 0, 56, 0
2,160297, Note_on_c, 0, 70, 0
2,160300, Note_on_c, 0, 74, 69
2,160303, Control_c, 0, 64, 91
2,160305, Note_on_c, 0, 68, 71
2,160310, Note_on_c, 0, 53, 59
2,160314, Note_on_c, 0, 54, 0
2,160323, Control_c, 0, 64, 69
2,160341, Control_c, 0, 64, 53
2,160354, Note_on_c, 0, 75, 0
2,160360, Control_c, 0, 64, 44
2,160380, Control_c, 0, 64, 44
2,160398, Control_c, 0, 64, 53
2,160418, Control_c, 0, 64, 62
2,160437, Control_c, 0, 64, 66
2,160457, Control_c, 0, 64, 71
2,160475, Control_c, 0, 64, 83
2,160491, Note_on_c, 0, 68, 0
2,160495, Control_c, 0, 64, 104
2,160514, Control_c, 0, 64, 127
2,160695, Note_on_c, 0, 66, 72
2,160698, Note_on_c, 0, 51, 60
2,160702, Note_on_c, 0, 75, 79
2,160737, Note_on_c, 0, 53, 0
2,160764, Note_on_c, 0, 74, 0
2,160828, Note_on_c, 0, 75, 0
2,160847, Note_on_c, 0, 66, 0
2,161052, Control_c, 0, 64, 106
2,161071, Control_c, 0, 64, 76
2,161086, Note_on_c, 0, 50, 68
2,161087, Note_on_c, 0, 77, 77
2,161095, Control_c, 0, 64, 62
2,161099, Note_on_c, 0, 68, 68
2,161114, Control_c, 0, 64, 43
2,161122, Note_on_c, 0, 51, 0
2,161133, Control_c, 0, 64, 41
2,161152, Control_c, 0, 64, 47
2,161172, Control_c, 0, 64, 61
2,161191, Control_c, 0, 64, 67
2,161210, Control_c, 0, 64, 74
2,161229, Control_c, 0, 64, 91
2,161249, Control_c, 0, 64, 127
2,161463, Note_on_c, 0, 74, 74
2,161463, Note_on_c, 0, 77, 0
2,161472, Note_on_c, 0, 59, 57
2,161474, Note_on_c, 0, 65, 72
2,161482, Note_on_c, 0, 68, 0
2,161556, Note_on_c, 0, 65, 0
2,161688, Note_on_c, 0, 50, 0
2,161825, Control_c, 0, 64, 103
2,161845, Control_c, 0, 64, 75
2,161846, Note_on_c, 0, 59, 0
2,161848, Note_on_c, 0, 74, 0
2,161858, Note_on_c, 0, 66, 79
2,161860, Note_on_c, 0, 58, 60
2,161861, Note_on_c, 0, 75, 77
2,161864, Control_c, 0, 64, 59
2,161883, Control_c, 0, 64, 47
2,161902, Control_c, 0, 64, 48
2,161922, Control_c, 0, 64, 56
2,161941, Control_c, 0, 64, 63
2,161959, Control_c, 0, 64, 67
2,161979, Control_c, 0, 64, 75
2,161980, Note_on_c, 0, 66, 0
2,161989, Note_on_c, 0, 75, 0
2,161998, Control_c, 0, 64, 96
2,162018, Control_c, 0, 64, 127
2,162224, Control_c, 0, 64, 111
2,162236, Note_on_c, 0, 77, 79
2,162239, Note_on_c, 0, 56, 73
2,162243, Control_c, 0, 64, 82
2,162262, Control_c, 0, 64, 67
2,162279, Note_on_c, 0, 58, 0
2,162281, Control_c, 0, 64, 64
2,162281, Note_on_c, 0, 68, 46
2,162299, Note_on_c, 0, 70, 39
2,162301, Control_c, 0, 64, 64
2,162319, Control_c, 0, 64, 66
2,162333, Note_on_c, 0, 68, 0
2,162339, Control_c, 0, 64, 70
2,162351, Note_on_c, 0, 70, 0
2,162358, Control_c, 0, 64, 76
2,162378, Control_c, 0, 64, 88
2,162396, Control_c, 0, 64, 127
2,162588, Control_c, 0, 64, 90
2,162608, Control_c, 0, 64, 69
2,162610, Note_on_c, 0, 77, 0
2,162614, Note_on_c, 0, 78, 80
2,162618, Note_on_c, 0, 70, 81
2,162624, Note_on_c, 0, 54, 69
2,162627, Control_c, 0, 64, 58
2,162633, Note_on_c, 0, 56, 0
2,162647, Control_c, 0, 64, 54
2,162665, Control_c, 0, 64, 57
2,162685, Control_c, 0, 64, 63
2,162704, Control_c, 0, 64, 68
2,162723, Control_c, 0, 64, 77
2,162742, Control_c, 0, 64, 100
2,162761, Control_c, 0, 64, 127
2,162825, Note_on_c, 0, 70, 0
2,162973, Control_c, 0, 64, 83
2,162992, Control_c, 0, 64, 66
2,163009, Control_c, 0, 64, 57
2,163014, Note_on_c, 0, 80, 85
2,163016, Note_on_c, 0, 54, 0
2,163022, Note_on_c, 0, 68, 74
2,163023, Note_on_c, 0, 53, 72
2,163048, Control_c, 0, 64, 61
2,163055, Note_on_c, 0, 78, 0
2,163067, Control_c, 0, 64, 65
2,163086, Control_c, 0, 64, 72
2,163105, Control_c, 0, 64, 89
2,163120, Note_on_c, 0, 80, 0
2,163125, Control_c, 0, 64, 127
2,163150, Note_on_c, 0, 68, 0
2,163377, Control_c, 0, 64, 87
2,163396, Control_c, 0, 64, 67
2,163416, Control_c, 0, 64, 54
2,163416, Note_on_c, 0, 82, 84
2,163427, Note_on_c, 0, 51, 73
2,163434, Control_c, 0, 64, 50
2,163454, Control_c, 0, 64, 54
2,163473, Control_c, 0, 64, 62
2,163482, Note_on_c, 0, 53, 0
2,163491, Control_c, 0, 64, 68
2,163506, Note_on_c, 0, 82, 0
2,163511, Control_c, 0, 64, 79
2,163530, Control_c, 0, 64, 110
2,163550, Control_c, 0, 64, 127
2,163779, Control_c, 0, 64, 108
2,163779, Note_on_c, 0, 70, 78
2,163789, Note_on_c, 0, 49, 78
2,163792, Note_on_c, 0, 66, 68
2,163798, Control_c, 0, 64, 73
2,163818, Control_c, 0, 64, 55
2,163821, Note_on_c, 0, 51, 0
2,163836, Control_c, 0, 64, 33
2,163856, Control_c, 0, 64, 34
2,163875, Control_c, 0, 64, 49
2,163895, Control_c, 0, 64, 63
2,163913, Control_c, 0, 64, 74
2,163932, Control_c, 0, 64, 100
2,163952, Control_c, 0, 64, 127
2,163953, Note_on_c, 0, 65, 64
2,163984, Note_on_c, 0, 66, 0
2,164124, Control_c, 0, 64, 78
2,164144, Control_c, 0, 64, 60
2,164163, Control_c, 0, 64, 27
2,164182, Control_c, 0, 64, 23
2,164201, Control_c, 0, 64, 41
2,164204, Note_on_c, 0, 66, 73
2,164205, Note_on_c, 0, 47, 77
2,164210, Note_on_c, 0, 75, 77
2,164217, Note_on_c, 0, 70, 0
2,164221, Control_c, 0, 64, 60
2,164239, Note_on_c, 0, 49, 0
2,164240, Control_c, 0, 64, 68
2,164259, Control_c, 0, 64, 81
2,164278, Control_c, 0, 64, 127
2,164312, Note_on_c, 0, 66, 0
2,164367, Note_on_c, 0, 75, 0
2,164391, Note_on_c, 0, 47, 0
2,164581, Note_on_c, 0, 65, 0
2,164612, Note_on_c, 0, 77, 76
2,164616, Note_on_c, 0, 68, 82
2,164713, Note_on_c, 0, 77, 0
2,165026, Note_on_c, 0, 46, 72
2,165046, Note_on_c, 0, 74, 76
2,165058, Note_on_c, 0, 70, 82
2,165066, Control_c, 0, 64, 90
2,165085, Control_c, 0, 64, 64
2,165105, Control_c, 0, 64, 0
2,165128, Note_on_c, 0, 68, 0
2,165182, Control_c, 0, 64, 24
2,165200, Control_c, 0, 64, 61
2,165220, Control_c, 0, 64, 71
2,165239, Control_c, 0, 64, 95
2,165246, Note_on_c, 0, 74, 0
2,165259, Control_c, 0, 64, 127
2,165395, Note_on_c, 0, 70, 0
2,165922, Note_on_c, 0, 51, 63
2,165927, Note_on_c, 0, 58, 81
2,166166, Note_on_c, 0, 46, 0
2,166657, Note_on_c, 0, 70, 87
2,166661, Control_c, 0, 64, 86
2,166663, Note_on_c, 0, 63, 69
2,166680, Control_c, 0, 64, 64
2,166700, Control_c, 0, 64, 0
2,166776, Control_c, 0, 64, 43
2,166795, Control_c, 0, 64, 63
2,166807, Note_on_c, 0, 58, 0
2,166815, Control_c, 0, 64, 73
2,166834, Control_c, 0, 64, 94
2,166852, Control_c, 0, 64, 127
2,166915, Note_on_c, 0, 63, 0
2,167050, Note_on_c, 0, 52, 71
2,167063, Note_on_c, 0, 70, 0
2,167137, Note_on_c, 0, 51, 0
2,167474, Note_on_c, 0, 51, 64
2,167485, Note_on_c, 0, 75, 86
2,167506, Control_c, 0, 64, 104
2,167525, Control_c, 0, 64, 73
2,167544, Control_c, 0, 64, 55
2,167545, Note_on_c, 0, 52, 0
2,167563, Control_c, 0, 64, 0
2,167601, Control_c, 0, 64, 13
2,167621, Control_c, 0, 64, 52
2,167640, Control_c, 0, 64, 64
2,167660, Control_c, 0, 64, 71
2,167678, Control_c, 0, 64, 84
2,167698, Control_c, 0, 64, 127
2,167863, Note_on_c, 0, 49, 75
2,167876, Note_on_c, 0, 64, 84
2,167939, Note_on_c, 0, 51, 0
2,168050, Note_on_c, 0, 64, 0
2,168265, Note_on_c, 0, 47, 69
2,168287, Note_on_c, 0, 49, 0
2,168292, Control_c, 0, 64, 95
2,168302, Note_on_c, 0, 63, 86
2,168312, Control_c, 0, 64, 66
2,168331, Control_c, 0, 64, 39
2,168351, Control_c, 0, 64, 0
2,168389, Control_c, 0, 64, 41
2,168408, Control_c, 0, 64, 63
2,168425, Note_on_c, 0, 47, 0
2,168426, Control_c, 0, 64, 72
2,168426, Note_on_c, 0, 75, 0
2,168445, Control_c, 0, 64, 95
2,168465, Control_c, 0, 64, 127
2,168669, Note_on_c, 0, 76, 87
2,168675, Note_on_c, 0, 49, 65
2,168684, Note_on_c, 0, 61, 64
2,168718, Note_on_c, 0, 63, 0
2,168833, Note_on_c, 0, 49, 0
2,168888, Note_on_c, 0, 61, 0
2,169040, Note_on_c, 0, 51, 62
2,169049, Note_on_c, 0, 59, 67
2,169057, Note_on_c, 0, 75, 88
2,169060, Control_c, 0, 64, 78
2,169079, Control_c, 0, 64, 59
2,169099, Control_c, 0, 64, 0
2,169114, Note_on_c, 0, 76, 0
2,169176, Control_c, 0, 64, 44
2,169194, Control_c, 0, 64, 63
2,169213, Control_c, 0, 64, 70
2,169233, Control_c, 0, 64, 82
2,169251, Control_c, 0, 64, 127
2,169392, Note_on_c, 0, 59, 0
2,169421, Note_on_c, 0, 61, 60
2,169434, Note_on_c, 0, 73, 81
2,169485, Note_on_c, 0, 61, 0
2,169501, Note_on_c, 0, 75, 0
2,169502, Note_on_c, 0, 51, 0
2,169581, Note_on_c, 0, 73, 0
2,169803, Note_on_c, 0, 44, 69
2,169828, Note_on_c, 0, 71, 82
2,169841, Note_on_c, 0, 63, 71
2,169866, Control_c, 0, 64, 83
2,169884, Control_c, 0, 64, 63
2,169904, Control_c, 0, 64, 0
2,170000, Control_c, 0, 64, 51
2,170019, Control_c, 0, 64, 64
2,170038, Control_c, 0, 64, 71
2,170058, Control_c, 0, 64, 81
2,170076, Control_c, 0, 64, 102
2,170096, Control_c, 0, 64, 127
2,170200, Note_on_c, 0, 46, 73
2,170234, Note_on_c, 0, 73, 85
2,170270, Note_on_c, 0, 44, 0
2,170270, Note_on_c, 0, 71, 0
2,170308, Note_on_c, 0, 46, 0
2,170611, Note_on_c, 0, 47, 60
2,170612, Note_on_c, 0, 75, 84
2,170634, Control_c, 0, 64, 92
2,170643, Note_on_c, 0, 56, 50
2,170653, Control_c, 0, 64, 67
2,170673, Control_c, 0, 64, 34
2,170688, Note_on_c, 0, 73, 0
2,170691, Control_c, 0, 64, 0
2,170788, Control_c, 0, 64, 45
2,170807, Control_c, 0, 64, 62
2,170826, Control_c, 0, 64, 67
2,170845, Control_c, 0, 64, 74
2,170865, Control_c, 0, 64, 86
2,170884, Control_c, 0, 64, 107
2,170903, Control_c, 0, 64, 127
2,170999, Note_on_c, 0, 54, 68
2,171065, Note_on_c, 0, 56, 0
2,171379, Note_on_c, 0, 53, 58
2,171381, Control_c, 0, 64, 92
2,171381, Note_on_c, 0, 49, 76
2,171386, Note_on_c, 0, 68, 69
2,171396, Note_on_c, 0, 47, 0
2,171400, Control_c, 0, 64, 69
2,171420, Control_c, 0, 64, 50
2,171424, Note_on_c, 0, 54, 0
2,171439, Control_c, 0, 64, 0
2,171486, Note_on_c, 0, 75, 0
2,171497, Control_c, 0, 64, 42
2,171516, Control_c, 0, 64, 61
2,171534, Control_c, 0, 64, 68
2,171554, Control_c, 0, 64, 76
2,171573, Control_c, 0, 64, 94
2,171592, Control_c, 0, 64, 127
2,171673, Note_on_c, 0, 49, 0
2,171761, Note_on_c, 0, 70, 67
2,171826, Note_on_c, 0, 68, 0
2,171952, Note_on_c, 0, 71, 65
2,171964, Note_on_c, 0, 63, 0
2,171981, Note_on_c, 0, 70, 0
2,172130, Control_c, 0, 64, 97
2,172136, Note_on_c, 0, 61, 75
2,172142, Note_on_c, 0, 42, 61
2,172150, Control_c, 0, 64, 73
2,172163, Note_on_c, 0, 70, 61
2,172169, Control_c, 0, 64, 50
2,172189, Control_c, 0, 64, 0
2,172205, Note_on_c, 0, 71, 0
2,172284, Control_c, 0, 64, 46
2,172302, Note_on_c, 0, 53, 0
2,172304, Control_c, 0, 64, 63
2,172323, Control_c, 0, 64, 68
2,172342, Control_c, 0, 64, 76
2,172361, Control_c, 0, 64, 90
2,172381, Control_c, 0, 64, 127
2,172546, Note_on_c, 0, 71, 74
2,172584, Note_on_c, 0, 70, 0
2,172925, Note_on_c, 0, 54, 51
2,172957, Control_c, 0, 64, 87
2,172974, Note_on_c, 0, 73, 80
2,172977, Control_c, 0, 64, 67
2,172996, Control_c, 0, 64, 39
2,173016, Control_c, 0, 64, 0
2,173022, Note_on_c, 0, 42, 0
2,173047, Note_on_c, 0, 71, 0
2,173053, Control_c, 0, 64, 27
2,173073, Control_c, 0, 64, 52
2,173091, Control_c, 0, 64, 63
2,173111, Control_c, 0, 64, 68
2,173130, Control_c, 0, 64, 78
2,173150, Control_c, 0, 64, 94
2,173168, Control_c, 0, 64, 127
2,173328, Note_on_c, 0, 41, 57
2,173540, Note_on_c, 0, 54, 0
2,173686, Control_c, 0, 64, 107
2,173706, Control_c, 0, 64, 76
2,173724, Control_c, 0, 64, 61
2,173729, Note_on_c, 0, 42, 56
2,173740, Note_on_c, 0, 66, 72
2,173742, Note_on_c, 0, 41, 0
2,173744, Control_c, 0, 64, 29
2,173763, Control_c, 0, 64, 15
2,173782, Control_c, 0, 64, 17
2,173801, Control_c, 0, 64, 36
2,173821, Control_c, 0, 64, 57
2,173840, Control_c, 0, 64, 64
2,173859, Control_c, 0, 64, 69
2,173878, Control_c, 0, 64, 79
2,173898, Control_c, 0, 64, 101
2,173916, Control_c, 0, 64, 127
2,173936, Note_on_c, 0, 73, 0
2,174112, Note_on_c, 0, 42, 0
2,174140, Note_on_c, 0, 44, 63
2,174150, Note_on_c, 0, 53, 62
2,174214, Note_on_c, 0, 53, 0
2,174249, Note_on_c, 0, 44, 0
2,174459, Note_on_c, 0, 61, 0
2,174465, Note_on_c, 0, 66, 0
2,174525, Note_on_c, 0, 54, 67
2,174527, Note_on_c, 0, 46, 65
2,174552, Control_c, 0, 64, 96
2,174571, Control_c, 0, 64, 69
2,174591, Control_c, 0, 64, 46
2,174609, Control_c, 0, 64, 0
2,174648, Control_c, 0, 64, 24
2,174667, Control_c, 0, 64, 55
2,174686, Control_c, 0, 64, 65
2,174706, Control_c, 0, 64, 73
2,174725, Control_c, 0, 64, 88
2,174744, Control_c, 0, 64, 127
2,174894, Note_on_c, 0, 56, 72
2,174898, Note_on_c, 0, 65, 69
2,174917, Control_c, 0, 64, 92
2,174920, Note_on_c, 0, 44, 57
2,174930, Note_on_c, 0, 46, 0
2,174936, Control_c, 0, 64, 72
2,174955, Control_c, 0, 64, 62
2,174974, Control_c, 0, 64, 57
2,174994, Control_c, 0, 64, 60
2,175008, Note_on_c, 0, 54, 0
2,175012, Control_c, 0, 64, 63
2,175032, Control_c, 0, 64, 66
2,175050, Note_on_c, 0, 56, 0
2,175051, Control_c, 0, 64, 72
2,175071, Control_c, 0, 64, 80
2,175089, Control_c, 0, 64, 95
2,175109, Control_c, 0, 64, 127
2,175264, Control_c, 0, 64, 83
2,175282, Control_c, 0, 64, 65
2,175291, Note_on_c, 0, 44, 0
2,175294, Note_on_c, 0, 42, 51
2,175296, Note_on_c, 0, 58, 60
2,175302, Control_c, 0, 64, 43
2,175304, Note_on_c, 0, 66, 72
2,175321, Control_c, 0, 64, 25
2,175341, Control_c, 0, 64, 29
2,175353, Note_on_c, 0, 65, 0
2,175359, Control_c, 0, 64, 48
2,175379, Control_c, 0, 64, 61
2,175398, Control_c, 0, 64, 66
2,175416, Note_on_c, 0, 58, 0
2,175417, Control_c, 0, 64, 71
2,175436, Control_c, 0, 64, 81
2,175454, Control_c, 0, 64, 96
2,175472, Control_c, 0, 64, 127
2,175623, Control_c, 0, 64, 87
2,175642, Control_c, 0, 64, 69
2,175651, Note_on_c, 0, 42, 0
2,175662, Control_c, 0, 64, 60
2,175672, Note_on_c, 0, 68, 83
2,175681, Control_c, 0, 64, 56
2,175682, Note_on_c, 0, 52, 43
2,175692, Note_on_c, 0, 56, 58
2,175700, Control_c, 0, 64, 60
2,175719, Control_c, 0, 64, 64
2,175739, Control_c, 0, 64, 70
2,175757, Control_c, 0, 64, 81
2,175767, Note_on_c, 0, 66, 0
2,175777, Control_c, 0, 64, 110
2,175796, Control_c, 0, 64, 127
2,175803, Note_on_c, 0, 68, 0
2,175834, Note_on_c, 0, 56, 0
2,176065, Control_c, 0, 64, 88
2,176078, Note_on_c, 0, 70, 81
2,176079, Note_on_c, 0, 51, 47
2,176085, Control_c, 0, 64, 66
2,176094, Note_on_c, 0, 52, 0
2,176094, Note_on_c, 0, 54, 42
2,176103, Control_c, 0, 64, 35
2,176122, Control_c, 0, 64, 0
2,176180, Control_c, 0, 64, 37
2,176199, Control_c, 0, 64, 58
2,176219, Control_c, 0, 64, 65
2,176238, Control_c, 0, 64, 69
2,176257, Control_c, 0, 64, 76
2,176276, Control_c, 0, 64, 86
2,176296, Control_c, 0, 64, 104
2,176314, Control_c, 0, 64, 127
2,176461, Note_on_c, 0, 68, 77
2,176815, Control_c, 0, 64, 103
2,176820, Note_on_c, 0, 54, 0
2,176834, Control_c, 0, 64, 76
2,176853, Control_c, 0, 64, 56
2,176860, Note_on_c, 0, 66, 68
2,176869, Note_on_c, 0, 59, 41
2,176872, Control_c, 0, 64, 0
2,176930, Control_c, 0, 64, 9
2,176946, Note_on_c, 0, 70, 0
2,176949, Control_c, 0, 64, 47
2,176969, Control_c, 0, 64, 62
2,176973, Note_on_c, 0, 68, 0
2,176988, Control_c, 0, 64, 68
2,177007, Control_c, 0, 64, 75
2,177026, Control_c, 0, 64, 88
2,177046, Control_c, 0, 64, 111
2,177063, Control_c, 0, 64, 127
2,177119, Note_on_c, 0, 66, 0
2,177175, Note_on_c, 0, 59, 0
2,177253, Note_on_c, 0, 58, 52
2,177311, Note_on_c, 0, 58, 0
2,177638, Note_on_c, 0, 56, 54
2,177650, Note_on_c, 0, 51, 0
2,177662, Note_on_c, 0, 76, 79
2,177736, Control_c, 0, 64, 101
2,177754, Control_c, 0, 64, 86
2,177774, Control_c, 0, 64, 74
2,177793, Control_c, 0, 64, 66
2,177813, Control_c, 0, 64, 58
2,177831, Control_c, 0, 64, 51
2,177851, Control_c, 0, 64, 48
2,177870, Control_c, 0, 64, 47
2,177889, Control_c, 0, 64, 45
2,177908, Control_c, 0, 64, 43
2,177928, Control_c, 0, 64, 38
2,177947, Control_c, 0, 64, 31
2,177966, Control_c, 0, 64, 27
2,177985, Control_c, 0, 64, 24
2,178004, Control_c, 0, 64, 23
2,178042, Control_c, 0, 64, 22
2,178059, Note_on_c, 0, 49, 53
2,178081, Control_c, 0, 64, 21
2,178100, Control_c, 0, 64, 20
2,178119, Control_c, 0, 64, 19
2,178158, Control_c, 0, 64, 18
2,178177, Control_c, 0, 64, 17
2,178350, Control_c, 0, 64, 15
2,178425, Control_c, 0, 64, 13
2,178472, Note_on_c, 0, 73, 69
2,178478, Note_on_c, 0, 47, 45
2,178489, Note_on_c, 0, 49, 0
2,178578, Control_c, 0, 64, 15
2,178597, Control_c, 0, 64, 18
2,178617, Control_c, 0, 64, 24
2,178636, Control_c, 0, 64, 34
2,178655, Control_c, 0, 64, 42
2,178674, Control_c, 0, 64, 48
2,178694, Control_c, 0, 64, 52
2,178713, Control_c, 0, 64, 56
2,178732, Control_c, 0, 64, 59
2,178751, Control_c, 0, 64, 62
2,178771, Control_c, 0, 64, 65
2,178789, Control_c, 0, 64, 68
2,178809, Control_c, 0, 64, 72
2,178828, Control_c, 0, 64, 78
2,178848, Control_c, 0, 64, 87
2,178863, Note_on_c, 0, 47, 0
2,178866, Control_c, 0, 64, 96
2,178877, Note_on_c, 0, 46, 56
2,178886, Control_c, 0, 64, 102
2,178905, Control_c, 0, 64, 103
2,179135, Control_c, 0, 64, 102
2,179154, Control_c, 0, 64, 101
2,179174, Control_c, 0, 64, 99
2,179193, Control_c, 0, 64, 95
2,179212, Control_c, 0, 64, 86
2,179231, Control_c, 0, 64, 74
2,179246, Note_on_c, 0, 46, 0
2,179251, Control_c, 0, 64, 63
2,179262, Note_on_c, 0, 47, 50
2,179269, Control_c, 0, 64, 43
2,179287, Note_on_c, 0, 66, 67
2,179289, Control_c, 0, 64, 25
2,179315, Note_on_c, 0, 73, 0
2,179329, Control_c, 0, 64, 30
2,179348, Control_c, 0, 64, 46
2,179368, Control_c, 0, 64, 58
2,179387, Control_c, 0, 64, 63
2,179406, Control_c, 0, 64, 66
2,179425, Control_c, 0, 64, 70
2,179444, Control_c, 0, 64, 76
2,179463, Control_c, 0, 64, 91
2,179464, Note_on_c, 0, 47, 0
2,179482, Control_c, 0, 64, 127
2,179618, Note_on_c, 0, 56, 0
2,179673, Note_on_c, 0, 74, 73
2,179709, Note_on_c, 0, 76, 0
2,180076, Note_on_c, 0, 59, 51
2,180088, Note_on_c, 0, 75, 76
2,180098, Control_c, 0, 64, 90
2,180117, Control_c, 0, 64, 70
2,180137, Control_c, 0, 64, 46
2,180138, Note_on_c, 0, 74, 0
2,180155, Control_c, 0, 64, 0
2,180232, Control_c, 0, 64, 15
2,180252, Control_c, 0, 64, 48
2,180271, Control_c, 0, 64, 61
2,180289, Control_c, 0, 64, 66
2,180308, Control_c, 0, 64, 70
2,180328, Control_c, 0, 64, 76
2,180347, Control_c, 0, 64, 87
2,180366, Control_c, 0, 64, 104
2,180385, Control_c, 0, 64, 127
2,180466, Note_on_c, 0, 58, 62
2,180527, Note_on_c, 0, 59, 0
2,180788, Control_c, 0, 64, 98
2,180808, Control_c, 0, 64, 74
2,180827, Control_c, 0, 64, 54
2,180842, Note_on_c, 0, 56, 62
2,180846, Control_c, 0, 64, 0
2,180863, Note_on_c, 0, 71, 66
2,180886, Note_on_c, 0, 75, 0
2,180902, Control_c, 0, 64, 34
2,180904, Note_on_c, 0, 58, 0
2,180920, Control_c, 0, 64, 57
2,180940, Control_c, 0, 64, 65
2,180959, Control_c, 0, 64, 70
2,180978, Control_c, 0, 64, 81
2,180997, Control_c, 0, 64, 96
2,181017, Control_c, 0, 64, 127
2,181093, Note_on_c, 0, 71, 0
2,181148, Note_on_c, 0, 66, 0
2,181237, Note_on_c, 0, 58, 58
2,181251, Note_on_c, 0, 78, 77
2,181255, Note_on_c, 0, 70, 78
2,181286, Note_on_c, 0, 56, 0
2,181500, Note_on_c, 0, 78, 0
2,181614, Control_c, 0, 64, 82
2,181633, Control_c, 0, 64, 65
2,181635, Note_on_c, 0, 77, 81
2,181648, Note_on_c, 0, 68, 73
2,181650, Note_on_c, 0, 59, 63
2,181653, Control_c, 0, 64, 33
2,181660, Note_on_c, 0, 70, 0
2,181671, Control_c, 0, 64, 15
2,181691, Control_c, 0, 64, 21
2,181706, Note_on_c, 0, 58, 0
2,181710, Control_c, 0, 64, 48
2,181729, Control_c, 0, 64, 63
2,181748, Control_c, 0, 64, 69
2,181768, Control_c, 0, 64, 82
2,181770, Note_on_c, 0, 68, 0
2,181787, Control_c, 0, 64, 127
2,181998, Note_on_c, 0, 56, 63
2,182039, Note_on_c, 0, 75, 84
2,182048, Note_on_c, 0, 66, 76
2,182058, Note_on_c, 0, 59, 0
2,182060, Note_on_c, 0, 56, 0
2,182095, Note_on_c, 0, 77, 0
2,182178, Note_on_c, 0, 66, 0
2,182293, Note_on_c, 0, 75, 0
2,182384, Note_on_c, 0, 65, 65
2,182385, Note_on_c, 0, 58, 63
2,182448, Note_on_c, 0, 74, 81
2,182458, Control_c, 0, 64, 90
2,182477, Control_c, 0, 64, 64
2,182496, Control_c, 0, 64, 32
2,182515, Control_c, 0, 64, 0
2,182553, Control_c, 0, 64, 19
2,182573, Control_c, 0, 64, 52
2,182592, Control_c, 0, 64, 64
2,182612, Control_c, 0, 64, 73
2,182630, Control_c, 0, 64, 92
2,182650, Control_c, 0, 64, 127
2,182808, Note_on_c, 0, 77, 87
2,182827, Note_on_c, 0, 63, 66
2,182848, Note_on_c, 0, 74, 0
2,182856, Note_on_c, 0, 65, 0
2,183183, Note_on_c, 0, 62, 67
2,183207, Control_c, 0, 64, 97
2,183213, Note_on_c, 0, 63, 0
2,183226, Control_c, 0, 64, 70
2,183227, Note_on_c, 0, 82, 90
2,183244, Control_c, 0, 64, 50
2,183259, Note_on_c, 0, 77, 0
2,183264, Control_c, 0, 64, 22
2,183283, Control_c, 0, 64, 23
2,183288, Note_on_c, 0, 58, 0
2,183303, Control_c, 0, 64, 47
2,183321, Control_c, 0, 64, 63
2,183341, Control_c, 0, 64, 72
2,183360, Control_c, 0, 64, 91
2,183379, Control_c, 0, 64, 127
2,183590, Control_c, 0, 64, 78
2,183600, Note_on_c, 0, 62, 0
2,183604, Note_on_c, 0, 56, 69
2,183605, Note_on_c, 0, 65, 66
2,183610, Control_c, 0, 64, 63
2,183629, Control_c, 0, 64, 48
2,183648, Control_c, 0, 64, 48
2,183667, Control_c, 0, 64, 57
2,183687, Control_c, 0, 64, 64
2,183706, Control_c, 0, 64, 72
2,183724, Control_c, 0, 64, 99
2,183744, Control_c, 0, 64, 127
2,183775, Note_on_c, 0, 56, 0
2,183956, Control_c, 0, 64, 115
2,183976, Control_c, 0, 64, 76
2,183994, Control_c, 0, 64, 59
2,184004, Note_on_c, 0, 54, 70
2,184014, Control_c, 0, 64, 46
2,184014, Note_on_c, 0, 65, 0
2,184017, Note_on_c, 0, 58, 70
2,184033, Control_c, 0, 64, 50
2,184053, Control_c, 0, 64, 60
2,184071, Control_c, 0, 64, 68
2,184091, Control_c, 0, 64, 81
2,184110, Control_c, 0, 64, 127
2,184136, Note_on_c, 0, 54, 0
2,184417, Control_c, 0, 64, 102
2,184436, Control_c, 0, 64, 71
2,184443, Note_on_c, 0, 56, 63
2,184445, Note_on_c, 0, 83, 82
2,184456, Control_c, 0, 64, 51
2,184464, Note_on_c, 0, 68, 55
2,184474, Control_c, 0, 64, 21
2,184494, Control_c, 0, 64, 23
2,184500, Note_on_c, 0, 58, 0
2,184506, Note_on_c, 0, 82, 0
2,184513, Control_c, 0, 64, 46
2,184533, Control_c, 0, 64, 64
2,184551, Control_c, 0, 64, 71
2,184571, Control_c, 0, 64, 85
2,184590, Control_c, 0, 64, 127
2,184622, Note_on_c, 0, 68, 0
2,184801, Control_c, 0, 64, 83
2,184820, Control_c, 0, 64, 60
2,184832, Note_on_c, 0, 82, 86
2,184834, Note_on_c, 0, 58, 58
2,184837, Note_on_c, 0, 66, 53
2,184839, Control_c, 0, 64, 22
2,184859, Control_c, 0, 64, 17
2,184870, Note_on_c, 0, 56, 0
2,184878, Control_c, 0, 64, 29
2,184893, Note_on_c, 0, 83, 0
2,184897, Control_c, 0, 64, 55
2,184916, Control_c, 0, 64, 66
2,184936, Control_c, 0, 64, 76
2,184954, Control_c, 0, 64, 127
2,184993, Note_on_c, 0, 66, 0
2,185184, Note_on_c, 0, 65, 58
2,185218, Note_on_c, 0, 80, 88
2,185227, Note_on_c, 0, 58, 0
2,185231, Note_on_c, 0, 65, 0
2,185297, Note_on_c, 0, 82, 0
2,185568, Note_on_c, 0, 51, 59
2,185575, Note_on_c, 0, 63, 59
2,185588, Control_c, 0, 64, 83
2,185608, Control_c, 0, 64, 62
2,185608, Note_on_c, 0, 78, 79
2,185627, Control_c, 0, 64, 0
2,185670, Note_on_c, 0, 80, 0
2,185684, Control_c, 0, 64, 31
2,185703, Control_c, 0, 64, 58
2,185720, Control_c, 0, 64, 68
2,185740, Control_c, 0, 64, 79
2,185759, Control_c, 0, 64, 127
2,185968, Note_on_c, 0, 53, 63
2,185975, Note_on_c, 0, 80, 87
2,186030, Note_on_c, 0, 78, 0
2,186114, Note_on_c, 0, 63, 0
2,186120, Note_on_c, 0, 51, 0
2,186374, Control_c, 0, 64, 115
2,186387, Note_on_c, 0, 55, 58
2,186391, Note_on_c, 0, 82, 82
2,186393, Control_c, 0, 64, 74
2,186393, Note_on_c, 0, 75, 73
2,186412, Control_c, 0, 64, 55
2,186431, Control_c, 0, 64, 0
2,186438, Note_on_c, 0, 80, 0
2,186453, Note_on_c, 0, 53, 0
2,186489, Control_c, 0, 64, 20
2,186508, Control_c, 0, 64, 51
2,186528, Control_c, 0, 64, 64
2,186546, Control_c, 0, 64, 70
2,186565, Control_c, 0, 64, 82
2,186585, Control_c, 0, 64, 127
2,186792, Note_on_c, 0, 73, 58
2,186838, Note_on_c, 0, 75, 0
2,186888, Note_on_c, 0, 73, 0
2,186939, Note_on_c, 0, 82, 0
2,187134, Note_on_c, 0, 56, 60
2,187152, Note_on_c, 0, 55, 0
2,187179, Note_on_c, 0, 75, 82
2,187184, Note_on_c, 0, 71, 71
2,187218, Control_c, 0, 64, 79
2,187237, Control_c, 0, 64, 61
2,187257, Control_c, 0, 64, 0
2,187314, Control_c, 0, 64, 34
2,187334, Control_c, 0, 64, 58
2,187353, Control_c, 0, 64, 66
2,187372, Control_c, 0, 64, 74
2,187391, Control_c, 0, 64, 93
2,187411, Control_c, 0, 64, 127
2,187545, Note_on_c, 0, 71, 0
2,187586, Note_on_c, 0, 54, 56
2,187623, Note_on_c, 0, 56, 0
2,187623, Note_on_c, 0, 70, 38
2,187779, Note_on_c, 0, 70, 0
2,187963, Note_on_c, 0, 53, 47
2,187996, Note_on_c, 0, 80, 83
2,188002, Note_on_c, 0, 54, 0
2,188005, Control_c, 0, 64, 105
2,188010, Note_on_c, 0, 68, 65
2,188025, Control_c, 0, 64, 73
2,188043, Control_c, 0, 64, 53
2,188063, Control_c, 0, 64, 0
2,188140, Control_c, 0, 64, 22
2,188159, Control_c, 0, 64, 53
2,188178, Control_c, 0, 64, 64
2,188197, Control_c, 0, 64, 70
2,188217, Control_c, 0, 64, 82
2,188236, Control_c, 0, 64, 121
2,188255, Control_c, 0, 64, 127
2,188297, Note_on_c, 0, 75, 0
2,188405, Note_on_c, 0, 51, 45
2,188427, Note_on_c, 0, 71, 56
2,188456, Note_on_c, 0, 53, 0
2,188459, Note_on_c, 0, 68, 0
2,188785, Note_on_c, 0, 50, 50
2,188793, Control_c, 0, 64, 93
2,188813, Control_c, 0, 64, 68
2,188814, Note_on_c, 0, 70, 64
2,188822, Note_on_c, 0, 51, 0
2,188832, Control_c, 0, 64, 55
2,188852, Control_c, 0, 64, 47
2,188870, Control_c, 0, 64, 49
2,188890, Control_c, 0, 64, 57
2,188909, Control_c, 0, 64, 63
2,188928, Control_c, 0, 64, 68
2,188939, Note_on_c, 0, 71, 0
2,188947, Control_c, 0, 64, 77
2,188950, Note_on_c, 0, 80, 0
2,188966, Control_c, 0, 64, 95
2,188986, Control_c, 0, 64, 127
2,189185, Note_on_c, 0, 75, 58
2,189185, Note_on_c, 0, 78, 81
2,189187, Note_on_c, 0, 51, 46
2,189188, Note_on_c, 0, 50, 0
2,189456, Note_on_c, 0, 78, 0
2,189514, Note_on_c, 0, 75, 0
2,189591, Note_on_c, 0, 46, 46
2,189655, Note_on_c, 0, 51, 0
2,189658, Control_c, 0, 64, 116
2,189661, Note_on_c, 0, 77, 80
2,189677, Control_c, 0, 64, 79
2,189696, Control_c, 0, 64, 63
2,189715, Control_c, 0, 64, 36
2,189735, Control_c, 0, 64, 11
2,189773, Control_c, 0, 64, 25
2,189792, Control_c, 0, 64, 49
2,189812, Control_c, 0, 64, 61
2,189830, Control_c, 0, 64, 66
2,189850, Control_c, 0, 64, 71
2,189869, Control_c, 0, 64, 79
2,189888, Control_c, 0, 64, 96
2,189907, Control_c, 0, 64, 127
2,190030, Note_on_c, 0, 74, 59
2,190037, Note_on_c, 0, 58, 36
2,190082, Note_on_c, 0, 77, 0
2,190098, Note_on_c, 0, 74, 0
2,190124, Note_on_c, 0, 58, 0
2,190131, Note_on_c, 0, 46, 0
2,190406, Control_c, 0, 64, 103
2,190412, Note_on_c, 0, 59, 45
2,190414, Note_on_c, 0, 75, 75
2,190426, Control_c, 0, 64, 74
2,190444, Control_c, 0, 64, 58
2,190449, Note_on_c, 0, 70, 0
2,190464, Control_c, 0, 64, 0
2,190520, Control_c, 0, 64, 29
2,190540, Control_c, 0, 64, 55
2,190559, Control_c, 0, 64, 64
2,190578, Control_c, 0, 64, 70
2,190597, Control_c, 0, 64, 81
2,190617, Control_c, 0, 64, 101
2,190636, Control_c, 0, 64, 127
2,190788, Note_on_c, 0, 71, 43
2,190796, Note_on_c, 0, 51, 35
2,190828, Note_on_c, 0, 75, 0
2,190938, Note_on_c, 0, 59, 0
2,191176, Control_c, 0, 64, 92
2,191194, Control_c, 0, 64, 71
2,191206, Note_on_c, 0, 73, 64
2,191214, Control_c, 0, 64, 57
2,191222, Note_on_c, 0, 53, 35
2,191229, Note_on_c, 0, 51, 0
2,191233, Control_c, 0, 64, 28
2,191242, Note_on_c, 0, 71, 0
2,191253, Control_c, 0, 64, 22
2,191293, Control_c, 0, 64, 40
2,191313, Control_c, 0, 64, 57
2,191331, Control_c, 0, 64, 64
2,191351, Control_c, 0, 64, 68
2,191370, Control_c, 0, 64, 76
2,191390, Control_c, 0, 64, 90
2,191408, Control_c, 0, 64, 127
2,191612, Note_on_c, 0, 55, 38
2,191617, Note_on_c, 0, 73, 0
2,191622, Note_on_c, 0, 70, 51
2,191631, Note_on_c, 0, 53, 0
2,191946, Control_c, 0, 64, 104
2,191964, Control_c, 0, 64, 75
2,191984, Control_c, 0, 64, 61
2,192003, Control_c, 0, 64, 29
2,192006, Note_on_c, 0, 70, 0
2,192009, Note_on_c, 0, 55, 0
2,192009, Note_on_c, 0, 71, 58
2,192022, Control_c, 0, 64, 0
2,192024, Note_on_c, 0, 56, 38
2,192061, Control_c, 0, 64, 17
2,192080, Control_c, 0, 64, 44
2,192098, Control_c, 0, 64, 59
2,192118, Control_c, 0, 64, 65
2,192137, Control_c, 0, 64, 69
2,192156, Control_c, 0, 64, 76
2,192175, Control_c, 0, 64, 87
2,192195, Control_c, 0, 64, 103
2,192214, Control_c, 0, 64, 127
2,192387, Note_on_c, 0, 53, 41
2,192389, Note_on_c, 0, 71, 0
2,192403, Note_on_c, 0, 68, 52
2,192475, Note_on_c, 0, 56, 0
2,192771, Control_c, 0, 64, 97
2,192784, Note_on_c, 0, 70, 64
2,192786, Note_on_c, 0, 50, 43
2,192790, Control_c, 0, 64, 73
2,192795, Note_on_c, 0, 53, 0
2,192801, Note_on_c, 0, 68, 0
2,192809, Control_c, 0, 64, 60
2,192829, Control_c, 0, 64, 35
2,192847, Control_c, 0, 64, 25
2,192867, Control_c, 0, 64, 26
2,192886, Control_c, 0, 64, 39
2,192906, Control_c, 0, 64, 56
2,192924, Control_c, 0, 64, 64
2,192944, Control_c, 0, 64, 69
2,192963, Control_c, 0, 64, 77
2,192982, Control_c, 0, 64, 92
2,193001, Control_c, 0, 64, 127
2,193148, Note_on_c, 0, 51, 39
2,193194, Note_on_c, 0, 66, 43
2,193220, Note_on_c, 0, 70, 0
2,193308, Note_on_c, 0, 50, 0
2,193540, Control_c, 0, 64, 104
2,193558, Note_on_c, 0, 48, 40
2,193558, Note_on_c, 0, 68, 65
2,193559, Control_c, 0, 64, 77
2,193564, Note_on_c, 0, 66, 0
2,193578, Control_c, 0, 64, 63
2,193587, Note_on_c, 0, 51, 0
2,193597, Control_c, 0, 64, 40
2,193616, Control_c, 0, 64, 30
2,193636, Control_c, 0, 64, 31
2,193655, Control_c, 0, 64, 44
2,193674, Control_c, 0, 64, 58
2,193693, Control_c, 0, 64, 64
2,193713, Control_c, 0, 64, 69
2,193731, Control_c, 0, 64, 78
2,193750, Control_c, 0, 64, 95
2,193769, Control_c, 0, 64, 127
2,193916, Note_on_c, 0, 48, 0
2,193926, Note_on_c, 0, 68, 0
2,193946, Note_on_c, 0, 50, 45
2,193965, Note_on_c, 0, 65, 28
2,194252, Note_on_c, 0, 50, 0
2,194308, Note_on_c, 0, 51, 36
2,194345, Control_c, 0, 64, 85
2,194347, Note_on_c, 0, 66, 60
2,194363, Control_c, 0, 64, 65
2,194383, Control_c, 0, 64, 29
2,194391, Note_on_c, 0, 65, 0
2,194402, Control_c, 0, 64, 0
2,194460, Control_c, 0, 64, 36
2,194479, Control_c, 0, 64, 59
2,194497, Control_c, 0, 64, 67
2,194517, Control_c, 0, 64, 76
2,194536, Control_c, 0, 64, 96
2,194556, Control_c, 0, 64, 127
2,194718, Note_on_c, 0, 39, 40
2,194734, Note_on_c, 0, 51, 0
2,194737, Note_on_c, 0, 63, 38
2,194747, Note_on_c, 0, 66, 0
2,195054, Control_c, 0, 64, 112
2,195054, Note_on_c, 0, 46, 54
2,195065, Note_on_c, 0, 63, 0
2,195074, Control_c, 0, 64, 74
2,195093, Control_c, 0, 64, 57
2,195112, Control_c, 0, 64, 0
2,195144, Note_on_c, 0, 65, 67
2,195145, Note_on_c, 0, 39, 0
2,195170, Control_c, 0, 64, 52
2,195170, Note_on_c, 0, 62, 42
2,195189, Control_c, 0, 64, 66
2,195208, Control_c, 0, 64, 79
2,195228, Control_c, 0, 64, 127
2,195242, Note_on_c, 0, 62, 0
2,195391, Note_on_c, 0, 65, 0
2,195513, Note_on_c, 0, 46, 0
2,195606, Note_on_c, 0, 65, 4
2,195928, Note_on_c, 0, 70, 70
2,196031, Note_on_c, 0, 65, 0
2,196167, Control_c, 0, 67, 10
2,196187, Control_c, 0, 67, 14
2,196206, Control_c, 0, 67, 18
2,196225, Control_c, 0, 67, 23
2,196244, Control_c, 0, 67, 27
2,196264, Control_c, 0, 67, 30
2,196282, Control_c, 0, 67, 36
2,196302, Control_c, 0, 67, 42
2,196321, Control_c, 0, 67, 49
2,196341, Control_c, 0, 67, 54
2,196359, Control_c, 0, 67, 56
2,196363, Note_on_c, 0, 72, 41
2,196378, Control_c, 0, 67, 57
2,196398, Control_c, 0, 67, 57
2,196416, Control_c, 0, 67, 58
2,196436, Control_c, 0, 67, 58
2,196454, Note_on_c, 0, 70, 0
2,196475, Control_c, 0, 67, 59
2,196493, Control_c, 0, 67, 59
2,196532, Control_c, 0, 67, 60
2,196551, Control_c, 0, 67, 61
2,196570, Control_c, 0, 67, 63
2,196590, Control_c, 0, 67, 64
2,196610, Control_c, 0, 67, 65
2,196629, Control_c, 0, 67, 65
2,196648, Control_c, 0, 67, 66
2,196668, Control_c, 0, 67, 66
2,196706, Control_c, 0, 64, 90
2,196706, Control_c, 0, 67, 67
2,196712, Note_on_c, 0, 58, 64
2,196725, Control_c, 0, 64, 68
2,196745, Control_c, 0, 64, 43
2,196758, Note_on_c, 0, 74, 39
2,196763, Control_c, 0, 64, 0
2,196763, Control_c, 0, 67, 68
2,196777, Note_on_c, 0, 72, 0
2,196783, Control_c, 0, 67, 69
2,196802, Control_c, 0, 67, 73
2,196821, Control_c, 0, 67, 77
2,196840, Control_c, 0, 67, 81
2,196860, Control_c, 0, 64, 36
2,196860, Control_c, 0, 67, 85
2,196879, Control_c, 0, 64, 59
2,196879, Control_c, 0, 67, 86
2,196897, Control_c, 0, 64, 67
2,196897, Control_c, 0, 67, 85
2,196917, Control_c, 0, 64, 79
2,196917, Control_c, 0, 67, 84
2,196936, Control_c, 0, 64, 127
2,196936, Control_c, 0, 67, 82
2,196956, Control_c, 0, 67, 80
2,196974, Control_c, 0, 67, 79
2,196994, Control_c, 0, 67, 77
2,197013, Control_c, 0, 67, 76
2,197032, Control_c, 0, 67, 75
2,197051, Control_c, 0, 67, 74
2,197071, Control_c, 0, 67, 74
2,197090, Control_c, 0, 67, 73
2,197109, Control_c, 0, 67, 72
2,197125, Note_on_c, 0, 71, 45
2,197128, Control_c, 0, 67, 71
2,197136, Note_on_c, 0, 74, 0
2,197148, Control_c, 0, 67, 70
2,197167, Note_on_c, 0, 75, 49
2,197186, Control_c, 0, 67, 71
2,197224, Control_c, 0, 67, 71
2,197242, Control_c, 0, 67, 72
2,197242, Note_on_c, 0, 75, 0
2,197459, Note_on_c, 0, 71, 0
2,197518, Note_on_c, 0, 70, 49
2,197518, Note_on_c, 0, 77, 53
2,197685, Control_c, 0, 67, 72
2,197723, Control_c, 0, 67, 73
2,197819, Control_c, 0, 67, 73
2,197871, Note_on_c, 0, 70, 0
2,197905, Note_on_c, 0, 68, 46
2,197950, Note_on_c, 0, 58, 0
2,198088, Control_c, 0, 67, 74
2,198204, Control_c, 0, 67, 74
2,198282, Note_on_c, 0, 63, 55
2,198282, Note_on_c, 0, 68, 0
2,198297, Note_on_c, 0, 66, 50
2,198320, Control_c, 0, 64, 114
2,198338, Control_c, 0, 64, 89
2,198358, Control_c, 0, 64, 73
2,198377, Control_c, 0, 64, 63
2,198396, Control_c, 0, 64, 50
2,198415, Control_c, 0, 64, 40
2,198415, Control_c, 0, 67, 75
2,198435, Control_c, 0, 64, 37
2,198454, Control_c, 0, 64, 35
2,198473, Control_c, 0, 64, 30
2,198492, Control_c, 0, 64, 22
2,198512, Control_c, 0, 64, 9
2,198531, Control_c, 0, 64, 0
2,198651, Note_on_c, 0, 66, 0
2,198651, Note_on_c, 0, 68, 46
2,198666, Note_on_c, 0, 75, 50
2,198671, Note_on_c, 0, 77, 0
2,198684, Control_c, 0, 67, 75
2,198963, Note_on_c, 0, 68, 0
2,198984, Note_on_c, 0, 75, 0
2,199013, Note_on_c, 0, 70, 44
2,199021, Note_on_c, 0, 73, 45
2,199177, Note_on_c, 0, 73, 0
2,199190, Note_on_c, 0, 71, 43
2,199334, Note_on_c, 0, 71, 0
2,199360, Note_on_c, 0, 73, 44
2,199493, Note_on_c, 0, 73, 0
2,199541, Note_on_c, 0, 79, 47
2,199650, Note_on_c, 0, 79, 0
2,199705, Note_on_c, 0, 80, 53
2,199778, Control_c, 0, 64, 11
2,199798, Control_c, 0, 64, 17
2,199817, Control_c, 0, 64, 25
2,199836, Control_c, 0, 64, 34
2,199855, Control_c, 0, 64, 42
2,199864, Note_on_c, 0, 80, 0
2,199875, Control_c, 0, 64, 48
2,199887, Note_on_c, 0, 82, 53
2,199894, Control_c, 0, 64, 53
2,199913, Control_c, 0, 64, 57
2,199922, Note_on_c, 0, 70, 0
2,199932, Control_c, 0, 64, 60
2,199952, Control_c, 0, 64, 62
2,199971, Control_c, 0, 64, 64
2,199990, Control_c, 0, 64, 64
2,200009, Control_c, 0, 64, 65
2,200029, Control_c, 0, 64, 66
2,200047, Control_c, 0, 64, 68
2,200066, Note_on_c, 0, 82, 0
2,200067, Control_c, 0, 64, 70
2,200069, Note_on_c, 0, 83, 59
2,200086, Control_c, 0, 64, 74
2,200106, Control_c, 0, 64, 78
2,200124, Control_c, 0, 64, 83
2,200144, Control_c, 0, 64, 85
2,200163, Control_c, 0, 64, 85
2,200182, Control_c, 0, 64, 85
2,200201, Control_c, 0, 64, 84
2,200221, Control_c, 0, 64, 84
2,200240, Control_c, 0, 64, 83
2,200278, Control_c, 0, 64, 83
2,200316, Control_c, 0, 64, 82
2,200335, Control_c, 0, 64, 82
2,200355, Control_c, 0, 64, 81
2,200374, Control_c, 0, 64, 80
2,200393, Control_c, 0, 64, 78
2,200412, Control_c, 0, 64, 74
2,200421, Note_on_c, 0, 63, 0
2,200425, Note_on_c, 0, 68, 32
2,200427, Note_on_c, 0, 64, 52
2,200432, Control_c, 0, 64, 69
2,200451, Control_c, 0, 64, 64
2,200470, Control_c, 0, 64, 55
2,200489, Control_c, 0, 64, 34
2,200509, Control_c, 0, 64, 0
2,200586, Control_c, 0, 64, 18
2,200604, Control_c, 0, 64, 38
2,200624, Control_c, 0, 64, 51
2,200643, Control_c, 0, 64, 59
2,200662, Control_c, 0, 64, 63
2,200681, Control_c, 0, 64, 64
2,200701, Control_c, 0, 64, 66
2,200720, Control_c, 0, 64, 68
2,200738, Control_c, 0, 64, 70
2,200758, Control_c, 0, 64, 73
2,200777, Control_c, 0, 64, 76
2,200796, Control_c, 0, 64, 78
2,200802, Note_on_c, 0, 82, 53
2,200834, Note_on_c, 0, 83, 0
2,200931, Control_c, 0, 64, 77
2,200943, Note_on_c, 0, 82, 0
2,200967, Note_on_c, 0, 80, 48
2,200969, Control_c, 0, 64, 77
2,201007, Control_c, 0, 64, 76
2,201046, Control_c, 0, 64, 76
2,201082, Control_c, 0, 64, 75
2,201098, Note_on_c, 0, 68, 0
2,201102, Control_c, 0, 64, 74
2,201121, Control_c, 0, 64, 70
2,201141, Control_c, 0, 64, 65
2,201149, Note_on_c, 0, 80, 0
2,201159, Control_c, 0, 64, 57
2,201165, Note_on_c, 0, 82, 60
2,201175, Note_on_c, 0, 63, 51
2,201178, Control_c, 0, 64, 29
2,201198, Control_c, 0, 64, 0
2,201201, Note_on_c, 0, 64, 0
2,201293, Control_c, 0, 64, 34
2,201313, Control_c, 0, 64, 47
2,201332, Control_c, 0, 64, 55
2,201351, Control_c, 0, 64, 59
2,201370, Control_c, 0, 64, 62
2,201390, Control_c, 0, 64, 65
2,201409, Control_c, 0, 64, 67
2,201428, Control_c, 0, 64, 71
2,201447, Control_c, 0, 64, 79
2,201467, Control_c, 0, 64, 94
2,201486, Control_c, 0, 64, 117
2,201505, Control_c, 0, 64, 127
2,201550, Note_on_c, 0, 67, 33
2,201578, Note_on_c, 0, 75, 39
2,201591, Note_on_c, 0, 67, 0
2,201676, Note_on_c, 0, 75, 0
2,201676, Note_on_c, 0, 75, 13
2,201908, Control_c, 0, 64, 112
2,201927, Control_c, 0, 64, 89
2,201946, Note_on_c, 0, 61, 52
2,201947, Control_c, 0, 64, 73
2,201950, Note_on_c, 0, 77, 58
2,201955, Note_on_c, 0, 65, 41
2,201966, Control_c, 0, 64, 61
2,201978, Note_on_c, 0, 82, 0
2,201985, Control_c, 0, 64, 33
2,201997, Note_on_c, 0, 63, 0
2,201998, Note_on_c, 0, 75, 0
2,202004, Control_c, 0, 64, 0
2,202043, Control_c, 0, 64, 17
2,202063, Control_c, 0, 64, 39
2,202082, Control_c, 0, 64, 54
2,202101, Control_c, 0, 64, 61
2,202120, Control_c, 0, 64, 64
2,202120, Control_c, 0, 67, 76
2,202139, Control_c, 0, 64, 66
2,202159, Control_c, 0, 64, 69
2,202177, Control_c, 0, 64, 72
2,202197, Control_c, 0, 64, 78
2,202216, Control_c, 0, 64, 87
2,202216, Control_c, 0, 67, 75
2,202236, Control_c, 0, 64, 98
2,202254, Control_c, 0, 64, 107
2,202274, Control_c, 0, 64, 111
2,202293, Control_c, 0, 64, 112
2,202301, Note_on_c, 0, 65, 0
2,202331, Control_c, 0, 64, 112
2,202340, Note_on_c, 0, 64, 42
2,202351, Control_c, 0, 67, 76
2,202359, Note_on_c, 0, 79, 55
2,202363, Note_on_c, 0, 61, 0
2,202398, Note_on_c, 0, 77, 0
2,202428, Control_c, 0, 64, 112
2,202466, Control_c, 0, 64, 111
2,202466, Control_c, 0, 67, 75
2,202485, Control_c, 0, 64, 110
2,202505, Control_c, 0, 67, 76
2,202523, Control_c, 0, 64, 110
2,202562, Control_c, 0, 64, 109
2,202580, Control_c, 0, 64, 108
2,202600, Control_c, 0, 64, 107
2,202619, Control_c, 0, 64, 106
2,202639, Control_c, 0, 64, 105
2,202657, Control_c, 0, 64, 104
2,202677, Control_c, 0, 64, 102
2,202696, Control_c, 0, 64, 95
2,202716, Control_c, 0, 64, 85
2,202734, Control_c, 0, 64, 73
2,202754, Control_c, 0, 64, 63
2,202761, Note_on_c, 0, 59, 45
2,202773, Control_c, 0, 64, 41
2,202780, Note_on_c, 0, 80, 61
2,202792, Control_c, 0, 64, 0
2,202804, Note_on_c, 0, 64, 0
2,202811, Control_c, 0, 67, 75
2,202813, Note_on_c, 0, 79, 0
2,202869, Control_c, 0, 64, 19
2,202888, Control_c, 0, 64, 44
2,202888, Control_c, 0, 67, 76
2,202908, Control_c, 0, 64, 57
2,202926, Control_c, 0, 64, 62
2,202946, Control_c, 0, 64, 65
2,202965, Control_c, 0, 64, 67
2,202985, Control_c, 0, 64, 71
2,203003, Control_c, 0, 64, 76
2,203023, Control_c, 0, 64, 84
2,203042, Control_c, 0, 64, 95
2,203060, Control_c, 0, 64, 108
2,203080, Control_c, 0, 64, 127
2,203156, Note_on_c, 0, 71, 42
2,203465, Control_c, 0, 64, 119
2,203483, Control_c, 0, 64, 104
2,203503, Control_c, 0, 64, 84
2,203520, Note_on_c, 0, 71, 0
2,203522, Control_c, 0, 64, 66
2,203540, Control_c, 0, 64, 46
2,203544, Note_on_c, 0, 61, 48
2,203557, Note_on_c, 0, 59, 0
2,203560, Control_c, 0, 64, 11
2,203571, Note_on_c, 0, 70, 47
2,203579, Control_c, 0, 64, 9
2,203599, Control_c, 0, 64, 13
2,203617, Control_c, 0, 64, 37
2,203637, Control_c, 0, 64, 54
2,203642, Note_on_c, 0, 80, 0
2,203656, Control_c, 0, 64, 63
2,203676, Control_c, 0, 64, 65
2,203676, Control_c, 0, 67, 76
2,203694, Control_c, 0, 64, 68
2,203714, Control_c, 0, 64, 71
2,203714, Control_c, 0, 67, 77
2,203726, Note_on_c, 0, 70, 0
2,203733, Control_c, 0, 64, 77
2,203752, Control_c, 0, 64, 86
2,203771, Control_c, 0, 64, 98
2,203791, Control_c, 0, 64, 123
2,203791, Control_c, 0, 67, 76
2,203810, Control_c, 0, 64, 127
2,203886, Control_c, 0, 67, 77
2,203908, Note_on_c, 0, 68, 46
2,204059, Note_on_c, 0, 68, 0
2,204250, Control_c, 0, 64, 110
2,204270, Control_c, 0, 64, 89
2,204273, Note_on_c, 0, 61, 0
2,204289, Control_c, 0, 64, 72
2,204308, Control_c, 0, 64, 58
2,204312, Note_on_c, 0, 63, 42
2,204324, Note_on_c, 0, 82, 66
2,204326, Note_on_c, 0, 67, 22
2,204327, Control_c, 0, 64, 0
2,204404, Control_c, 0, 64, 28
2,204424, Control_c, 0, 64, 51
2,204442, Control_c, 0, 64, 61
2,204462, Control_c, 0, 64, 65
2,204481, Control_c, 0, 64, 68
2,204500, Control_c, 0, 64, 73
2,204511, Note_on_c, 0, 63, 0
2,204519, Control_c, 0, 64, 80
2,204533, Note_on_c, 0, 67, 0
2,204538, Control_c, 0, 64, 90
2,204558, Control_c, 0, 64, 104
2,204576, Control_c, 0, 64, 127
2,204596, Control_c, 0, 67, 76
2,204653, Control_c, 0, 67, 77
2,204679, Note_on_c, 0, 63, 49
2,204860, Note_on_c, 0, 65, 35
2,204953, Note_on_c, 0, 65, 0
2,204979, Control_c, 0, 64, 110
2,204998, Control_c, 0, 64, 90
2,204998, Control_c, 0, 67, 76
2,205017, Control_c, 0, 64, 72
2,205037, Control_c, 0, 64, 55
2,205043, Note_on_c, 0, 67, 37
2,205056, Control_c, 0, 64, 11
2,205068, Note_on_c, 0, 75, 57
2,205075, Control_c, 0, 64, 0
2,205114, Control_c, 0, 64, 13
2,205132, Control_c, 0, 64, 42
2,205152, Control_c, 0, 64, 57
2,205171, Control_c, 0, 64, 64
2,205191, Control_c, 0, 64, 67
2,205209, Control_c, 0, 64, 71
2,205229, Control_c, 0, 64, 76
2,205229, Control_c, 0, 67, 77
2,205247, Note_on_c, 0, 67, 0
2,205249, Control_c, 0, 64, 86
2,205268, Control_c, 0, 64, 101
2,205287, Control_c, 0, 64, 127
2,205361, Note_on_c, 0, 63, 0
2,205396, Note_on_c, 0, 68, 46
2,205517, Note_on_c, 0, 68, 0
2,205572, Note_on_c, 0, 70, 45
2,205759, Note_on_c, 0, 70, 0
2,205806, Control_c, 0, 64, 119
2,205825, Control_c, 0, 64, 92
2,205830, Note_on_c, 0, 56, 64
2,205844, Control_c, 0, 64, 73
2,205851, Note_on_c, 0, 71, 53
2,205863, Control_c, 0, 64, 55
2,205881, Control_c, 0, 64, 0
2,205977, Control_c, 0, 64, 34
2,205997, Control_c, 0, 64, 56
2,206016, Control_c, 0, 64, 63
2,206035, Control_c, 0, 64, 66
2,206035, Control_c, 0, 67, 77
2,206045, Note_on_c, 0, 71, 0
2,206054, Control_c, 0, 64, 69
2,206074, Control_c, 0, 64, 74
2,206092, Control_c, 0, 64, 83
2,206112, Control_c, 0, 64, 98
2,206112, Control_c, 0, 67, 77
2,206131, Control_c, 0, 64, 127
2,206247, Control_c, 0, 67, 77
2,206252, Note_on_c, 0, 71, 43
2,206252, Note_on_c, 0, 75, 0
2,206324, Control_c, 0, 67, 77
2,206357, Note_on_c, 0, 82, 0
2,206593, Control_c, 0, 64, 107
2,206612, Control_c, 0, 64, 79
2,206616, Note_on_c, 0, 71, 0
2,206618, Note_on_c, 0, 73, 53
2,206631, Control_c, 0, 64, 64
2,206650, Control_c, 0, 64, 47
2,206670, Control_c, 0, 64, 40
2,206689, Control_c, 0, 64, 43
2,206708, Control_c, 0, 64, 55
2,206727, Control_c, 0, 64, 63
2,206747, Control_c, 0, 64, 66
2,206766, Control_c, 0, 64, 71
2,206766, Control_c, 0, 67, 77
2,206785, Control_c, 0, 64, 80
2,206804, Control_c, 0, 64, 94
2,206824, Control_c, 0, 64, 127
2,206900, Control_c, 0, 67, 77
2,206970, Note_on_c, 0, 73, 0
2,206977, Control_c, 0, 67, 77
2,206989, Note_on_c, 0, 75, 54
2,207001, Note_on_c, 0, 70, 47
2,207077, Note_on_c, 0, 75, 0
2,207362, Control_c, 0, 64, 104
2,207380, Control_c, 0, 64, 79
2,207388, Note_on_c, 0, 70, 0
2,207391, Note_on_c, 0, 61, 59
2,207400, Control_c, 0, 64, 65
2,207411, Note_on_c, 0, 76, 34
2,207419, Control_c, 0, 64, 46
2,207422, Note_on_c, 0, 68, 39
2,207439, Control_c, 0, 64, 15
2,207457, Control_c, 0, 64, 13
2,207477, Control_c, 0, 64, 15
2,207496, Control_c, 0, 64, 31
2,207516, Control_c, 0, 64, 51
2,207534, Control_c, 0, 64, 60
2,207554, Control_c, 0, 64, 63
2,207563, Note_on_c, 0, 56, 0
2,207573, Control_c, 0, 64, 64
2,207573, Control_c, 0, 67, 78
2,207592, Control_c, 0, 64, 65
2,207611, Control_c, 0, 64, 66
2,207631, Control_c, 0, 64, 67
2,207650, Control_c, 0, 64, 68
2,207650, Control_c, 0, 67, 77
2,207669, Control_c, 0, 64, 69
2,207688, Control_c, 0, 64, 70
2,207753, Note_on_c, 0, 68, 0
2,207785, Control_c, 0, 67, 78
2,207786, Note_on_c, 0, 75, 52
2,207803, Control_c, 0, 64, 69
2,207824, Note_on_c, 0, 76, 0
2,207826, Note_on_c, 0, 67, 22
2,207842, Control_c, 0, 64, 69
2,207860, Control_c, 0, 64, 68
2,207860, Control_c, 0, 67, 77
2,207880, Control_c, 0, 64, 68
2,207899, Control_c, 0, 64, 66
2,207919, Control_c, 0, 64, 64
2,207937, Control_c, 0, 64, 61
2,207957, Control_c, 0, 64, 55
2,207976, Control_c, 0, 64, 41
2,207996, Control_c, 0, 64, 22
2,208014, Control_c, 0, 64, 9
2,208053, Control_c, 0, 64, 15
2,208072, Control_c, 0, 64, 36
2,208091, Control_c, 0, 64, 51
2,208111, Control_c, 0, 64, 60
2,208120, Note_on_c, 0, 75, 0
2,208131, Control_c, 0, 64, 64
2,208150, Control_c, 0, 64, 67
2,208151, Note_on_c, 0, 68, 44
2,208152, Note_on_c, 0, 73, 47
2,208169, Control_c, 0, 64, 71
2,208189, Control_c, 0, 64, 78
2,208207, Control_c, 0, 64, 93
2,208214, Note_on_c, 0, 68, 0
2,208227, Control_c, 0, 64, 127
2,208361, Control_c, 0, 67, 78
2,208416, Note_on_c, 0, 67, 0
2,208500, Note_on_c, 0, 73, 0
2,208520, Note_on_c, 0, 70, 47
2,208560, Note_on_c, 0, 70, 0
2,208746, Control_c, 0, 67, 78
2,208879, Control_c, 0, 64, 99
2,208897, Control_c, 0, 64, 76
2,208909, Note_on_c, 0, 80, 60
2,208917, Control_c, 0, 64, 62
2,208920, Note_on_c, 0, 63, 33
2,208936, Control_c, 0, 64, 39
2,208956, Control_c, 0, 64, 27
2,208994, Control_c, 0, 64, 29
2,209013, Control_c, 0, 64, 40
2,209032, Control_c, 0, 64, 53
2,209051, Control_c, 0, 64, 60
2,209071, Control_c, 0, 64, 64
2,209089, Control_c, 0, 64, 66
2,209108, Control_c, 0, 64, 70
2,209127, Control_c, 0, 64, 77
2,209147, Control_c, 0, 64, 89
2,209166, Control_c, 0, 64, 123
2,209185, Control_c, 0, 64, 127
2,209256, Note_on_c, 0, 63, 0
2,209296, Note_on_c, 0, 65, 46
2,209548, Note_on_c, 0, 65, 0
2,209620, Note_on_c, 0, 61, 0
2,209646, Control_c, 0, 64, 90
2,209665, Control_c, 0, 64, 71
2,209671, Note_on_c, 0, 67, 33
2,209676, Note_on_c, 0, 59, 45
2,209676, Note_on_c, 0, 75, 56
2,209684, Control_c, 0, 64, 58
2,209703, Control_c, 0, 64, 39
2,209721, Control_c, 0, 64, 37
2,209740, Control_c, 0, 64, 40
2,209760, Control_c, 0, 64, 51
2,209779, Control_c, 0, 64, 60
2,209798, Control_c, 0, 64, 64
2,209817, Control_c, 0, 64, 67
2,209837, Control_c, 0, 64, 71
2,209856, Control_c, 0, 64, 80
2,209856, Control_c, 0, 67, 79
2,209875, Control_c, 0, 64, 93
2,209894, Control_c, 0, 64, 127
2,209932, Control_c, 0, 67, 78
2,210018, Note_on_c, 0, 67, 0
2,210029, Control_c, 0, 67, 79
2,210040, Note_on_c, 0, 68, 52
2,210336, Control_c, 0, 64, 108
2,210355, Control_c, 0, 64, 81
2,210374, Control_c, 0, 64, 65
2,210381, Note_on_c, 0, 58, 46
2,210394, Control_c, 0, 64, 39
2,210405, Note_on_c, 0, 70, 49
2,210412, Control_c, 0, 64, 11
2,210441, Note_on_c, 0, 59, 0
2,210451, Control_c, 0, 64, 17
2,210471, Control_c, 0, 64, 38
2,210489, Control_c, 0, 64, 53
2,210509, Control_c, 0, 64, 61
2,210521, Note_on_c, 0, 75, 0
2,210528, Control_c, 0, 64, 64
2,210547, Control_c, 0, 64, 67
2,210557, Note_on_c, 0, 71, 38
2,210561, Note_on_c, 0, 70, 0
2,210566, Control_c, 0, 64, 71
2,210586, Control_c, 0, 64, 77
2,210605, Control_c, 0, 64, 89
2,210624, Control_c, 0, 64, 110
2,210643, Control_c, 0, 64, 127
2,210700, Note_on_c, 0, 80, 0
2,210783, Note_on_c, 0, 77, 51
2,210788, Note_on_c, 0, 73, 44
2,210816, Note_on_c, 0, 71, 0
2,211046, Control_c, 0, 64, 112
2,211066, Control_c, 0, 64, 82
2,211085, Control_c, 0, 64, 63
2,211085, Control_c, 0, 67, 78
2,211104, Control_c, 0, 64, 36
2,211123, Control_c, 0, 64, 17
2,211161, Control_c, 0, 64, 28
2,211180, Control_c, 0, 64, 48
2,211192, Note_on_c, 0, 79, 59
2,211200, Control_c, 0, 64, 60
2,211206, Note_on_c, 0, 77, 0
2,211219, Control_c, 0, 64, 65
2,211238, Control_c, 0, 64, 69
2,211257, Control_c, 0, 64, 74
2,211277, Control_c, 0, 64, 83
2,211296, Control_c, 0, 64, 94
2,211311, Note_on_c, 0, 73, 0
2,211315, Control_c, 0, 64, 108
2,211334, Control_c, 0, 64, 127
2,211571, Note_on_c, 0, 71, 36
2,211664, Note_on_c, 0, 79, 0
2,211723, Note_on_c, 0, 70, 34
2,211728, Note_on_c, 0, 71, 0
2,211770, Note_on_c, 0, 70, 0
2,211872, Control_c, 0, 64, 97
2,211891, Control_c, 0, 64, 77
2,211911, Control_c, 0, 64, 62
2,211921, Note_on_c, 0, 56, 44
2,211926, Note_on_c, 0, 58, 0
2,211929, Control_c, 0, 64, 36
2,211949, Control_c, 0, 64, 18
2,211951, Note_on_c, 0, 80, 43
2,211988, Control_c, 0, 64, 25
2,212007, Control_c, 0, 64, 44
2,212027, Control_c, 0, 64, 57
2,212046, Control_c, 0, 64, 63
2,212065, Control_c, 0, 64, 66
2,212065, Control_c, 0, 67, 79
2,212084, Control_c, 0, 64, 69
2,212104, Control_c, 0, 64, 73
2,212122, Control_c, 0, 64, 82
2,212141, Control_c, 0, 64, 96
2,212141, Control_c, 0, 67, 78
2,212161, Control_c, 0, 64, 127
2,212180, Control_c, 0, 67, 78
2,212276, Control_c, 0, 67, 78
2,212321, Note_on_c, 0, 82, 56
2,212326, Note_on_c, 0, 80, 0
2,212621, Control_c, 0, 64, 110
2,212641, Control_c, 0, 64, 81
2,212660, Control_c, 0, 64, 65
2,212679, Control_c, 0, 64, 49
2,212691, Note_on_c, 0, 61, 45
2,212698, Control_c, 0, 64, 37
2,212698, Note_on_c, 0, 80, 55
2,212718, Control_c, 0, 64, 38
2,212736, Control_c, 0, 64, 47
2,212736, Control_c, 0, 67, 78
2,212747, Note_on_c, 0, 68, 0
2,212756, Control_c, 0, 64, 58
2,212775, Control_c, 0, 64, 63
2,212795, Control_c, 0, 64, 67
2,212813, Control_c, 0, 64, 71
2,212813, Control_c, 0, 67, 78
2,212833, Control_c, 0, 64, 78
2,212852, Control_c, 0, 64, 91
2,212871, Control_c, 0, 64, 127
2,212910, Control_c, 0, 67, 78
2,213027, Control_c, 0, 67, 78
2,213061, Note_on_c, 0, 78, 61
2,213129, Note_on_c, 0, 56, 0
2,213141, Control_c, 0, 67, 78
2,213218, Control_c, 0, 67, 78
2,213411, Control_c, 0, 64, 87
2,213430, Control_c, 0, 64, 66
2,213446, Note_on_c, 0, 68, 46
2,213449, Control_c, 0, 64, 48
2,213449, Control_c, 0, 67, 78
2,213460, Note_on_c, 0, 77, 53
2,213469, Control_c, 0, 64, 9
2,213487, Control_c, 0, 64, 0
2,213487, Control_c, 0, 67, 77
2,213494, Note_on_c, 0, 80, 0
2,213500, Note_on_c, 0, 82, 0
2,213505, Note_on_c, 0, 78, 0
2,213526, Control_c, 0, 64, 11
2,213545, Control_c, 0, 64, 35
2,213563, Control_c, 0, 64, 52
2,213582, Control_c, 0, 64, 60
2,213582, Control_c, 0, 67, 78
2,213602, Control_c, 0, 64, 63
2,213621, Control_c, 0, 64, 65
2,213640, Control_c, 0, 64, 67
2,213659, Control_c, 0, 64, 71
2,213679, Control_c, 0, 64, 78
2,213697, Control_c, 0, 64, 91
2,213717, Control_c, 0, 64, 105
2,213736, Control_c, 0, 64, 127
2,213753, Note_on_c, 0, 61, 0
2,213788, Note_on_c, 0, 63, 45
2,213801, Note_on_c, 0, 78, 70
2,213958, Note_on_c, 0, 77, 0
2,213987, Control_c, 0, 67, 78
2,214140, Control_c, 0, 64, 108
2,214160, Control_c, 0, 64, 87
2,214178, Control_c, 0, 64, 71
2,214198, Control_c, 0, 64, 59
2,214201, Note_on_c, 0, 63, 0
2,214206, Note_on_c, 0, 61, 45
2,214206, Note_on_c, 0, 80, 69
2,214217, Control_c, 0, 64, 38
2,214236, Control_c, 0, 64, 32
2,214255, Control_c, 0, 67, 78
2,214275, Control_c, 0, 64, 37
2,214294, Control_c, 0, 64, 49
2,214313, Control_c, 0, 64, 58
2,214332, Control_c, 0, 64, 63
2,214352, Control_c, 0, 64, 65
2,214371, Control_c, 0, 64, 68
2,214371, Control_c, 0, 67, 78
2,214390, Control_c, 0, 64, 72
2,214409, Control_c, 0, 64, 78
2,214416, Note_on_c, 0, 78, 0
2,214429, Control_c, 0, 64, 88
2,214447, Control_c, 0, 64, 98
2,214467, Control_c, 0, 64, 106
2,214486, Control_c, 0, 64, 108
2,214486, Control_c, 0, 67, 78
2,214541, Control_c, 0, 64, 108
2,214541, Control_c, 0, 67, 78
2,214548, Note_on_c, 0, 61, 0
2,214561, Control_c, 0, 64, 109
2,214569, Note_on_c, 0, 59, 52
2,214580, Control_c, 0, 64, 110
2,214599, Control_c, 0, 64, 110
2,214849, Control_c, 0, 64, 110
2,214868, Control_c, 0, 64, 106
2,214887, Control_c, 0, 64, 95
2,214907, Control_c, 0, 64, 79
2,214920, Note_on_c, 0, 59, 0
2,214926, Control_c, 0, 64, 65
2,214942, Note_on_c, 0, 73, 63
2,214945, Control_c, 0, 64, 44
2,214949, Note_on_c, 0, 58, 33
2,214964, Control_c, 0, 64, 29
2,215002, Control_c, 0, 64, 31
2,215021, Control_c, 0, 64, 45
2,215041, Control_c, 0, 64, 57
2,215060, Control_c, 0, 64, 62
2,215079, Control_c, 0, 64, 66
2,215098, Control_c, 0, 64, 69
2,215098, Control_c, 0, 67, 79
2,215118, Control_c, 0, 64, 74
2,215136, Control_c, 0, 64, 82
2,215156, Control_c, 0, 64, 96
2,215175, Control_c, 0, 64, 127
2,215233, Control_c, 0, 67, 78
2,215290, Control_c, 0, 67, 79
2,215339, Note_on_c, 0, 59, 50
2,215356, Note_on_c, 0, 78, 62
2,215357, Note_on_c, 0, 58, 0
2,215474, Note_on_c, 0, 80, 0
2,215616, Control_c, 0, 64, 102
2,215635, Control_c, 0, 64, 76
2,215654, Control_c, 0, 64, 63
2,215674, Control_c, 0, 64, 48
2,215692, Control_c, 0, 64, 44
2,215705, Note_on_c, 0, 61, 42
2,215709, Note_on_c, 0, 77, 56
2,215712, Control_c, 0, 64, 46
2,215718, Note_on_c, 0, 59, 0
2,215719, Note_on_c, 0, 78, 0
2,215731, Control_c, 0, 64, 54
2,215735, Note_on_c, 0, 68, 0
2,215751, Control_c, 0, 64, 61
2,215769, Control_c, 0, 64, 65
2,215789, Control_c, 0, 64, 68
2,215809, Control_c, 0, 64, 73
2,215828, Control_c, 0, 64, 81
2,215847, Control_c, 0, 64, 96
2,215867, Control_c, 0, 64, 127
2,215944, Control_c, 0, 67, 78
2,216070, Note_on_c, 0, 78, 54
2,216072, Note_on_c, 0, 77, 0
2,216116, Control_c, 0, 67, 78
2,216209, Note_on_c, 0, 78, 0
2,216233, Note_on_c, 0, 80, 58
2,216385, Control_c, 0, 64, 117
2,216404, Control_c, 0, 64, 83
2,216424, Control_c, 0, 64, 66
2,216426, Note_on_c, 0, 80, 0
2,216429, Note_on_c, 0, 54, 38
2,216439, Note_on_c, 0, 82, 54
2,216443, Control_c, 0, 64, 49
2,216462, Control_c, 0, 64, 37
2,216473, Note_on_c, 0, 61, 0
2,216501, Control_c, 0, 64, 43
2,216520, Control_c, 0, 64, 54
2,216539, Control_c, 0, 64, 61
2,216559, Control_c, 0, 64, 64
2,216577, Control_c, 0, 64, 66
2,216597, Control_c, 0, 64, 70
2,216611, Note_on_c, 0, 82, 0
2,216614, Note_on_c, 0, 80, 48
2,216616, Control_c, 0, 64, 76
2,216636, Control_c, 0, 64, 88
2,216654, Control_c, 0, 64, 111
2,216674, Control_c, 0, 64, 127
2,216674, Control_c, 0, 67, 77
2,216805, Note_on_c, 0, 82, 58
2,216808, Control_c, 0, 67, 78
2,216821, Note_on_c, 0, 80, 0
2,216885, Control_c, 0, 67, 77
2,216981, Control_c, 0, 67, 78
2,217154, Control_c, 0, 64, 95
2,217169, Note_on_c, 0, 59, 36
2,217173, Control_c, 0, 64, 73
2,217191, Note_on_c, 0, 82, 0
2,217192, Control_c, 0, 64, 59
2,217199, Note_on_c, 0, 75, 60
2,217211, Control_c, 0, 64, 38
2,217231, Control_c, 0, 64, 35
2,217250, Control_c, 0, 64, 36
2,217269, Control_c, 0, 64, 48
2,217288, Control_c, 0, 64, 59
2,217308, Control_c, 0, 64, 64
2,217326, Control_c, 0, 64, 68
2,217346, Control_c, 0, 64, 74
2,217365, Control_c, 0, 64, 85
2,217385, Control_c, 0, 64, 106
2,217401, Control_c, 0, 64, 127
2,217509, Note_on_c, 0, 54, 0
2,217536, Note_on_c, 0, 80, 54
2,217555, Control_c, 0, 67, 78
2,217651, Control_c, 0, 67, 78
2,217671, Note_on_c, 0, 73, 0
2,217680, Note_on_c, 0, 78, 48
2,217729, Control_c, 0, 67, 78
2,217748, Control_c, 0, 67, 79
2,217806, Control_c, 0, 64, 106
2,217825, Control_c, 0, 64, 78
2,217844, Control_c, 0, 64, 63
2,217849, Note_on_c, 0, 73, 60
2,217864, Control_c, 0, 64, 53
2,217873, Note_on_c, 0, 80, 0
2,217898, Note_on_c, 0, 77, 53
2,217901, Control_c, 0, 64, 57
2,217907, Note_on_c, 0, 78, 0
2,217921, Control_c, 0, 64, 62
2,217940, Control_c, 0, 64, 66
2,217959, Control_c, 0, 64, 71
2,217978, Control_c, 0, 64, 79
2,217998, Control_c, 0, 64, 94
2,218016, Control_c, 0, 64, 127
2,218093, Control_c, 0, 67, 78
2,218151, Control_c, 0, 67, 79
2,218268, Note_on_c, 0, 77, 0
2,218276, Note_on_c, 0, 78, 62
2,218279, Note_on_c, 0, 58, 50
2,218327, Note_on_c, 0, 75, 0
2,218340, Note_on_c, 0, 59, 0
2,218366, Note_on_c, 0, 73, 0
2,218381, Control_c, 0, 67, 79
2,218458, Control_c, 0, 67, 79
2,218535, Control_c, 0, 67, 79
2,218555, Control_c, 0, 67, 80
2,218593, Control_c, 0, 67, 80
2,218612, Control_c, 0, 64, 100
2,218631, Control_c, 0, 64, 74
2,218642, Note_on_c, 0, 71, 71
2,218650, Control_c, 0, 64, 58
2,218668, Note_on_c, 0, 56, 49
2,218670, Control_c, 0, 64, 38
2,218670, Control_c, 0, 67, 80
2,218689, Control_c, 0, 64, 37
2,218708, Control_c, 0, 64, 38
2,218709, Note_on_c, 0, 58, 0
2,218727, Control_c, 0, 64, 47
2,218747, Control_c, 0, 64, 58
2,218747, Control_c, 0, 67, 80
2,218766, Control_c, 0, 64, 63
2,218785, Control_c, 0, 64, 67
2,218804, Control_c, 0, 64, 71
2,218823, Control_c, 0, 64, 78
2,218842, Control_c, 0, 64, 93
2,218861, Control_c, 0, 64, 127
2,218861, Control_c, 0, 67, 80
2,218900, Control_c, 0, 67, 79
2,218940, Note_on_c, 0, 78, 0
2,218993, Note_on_c, 0, 77, 65
2,218996, Control_c, 0, 67, 80
2,219336, Note_on_c, 0, 54, 48
2,219340, Control_c, 0, 64, 99
2,219360, Control_c, 0, 64, 75
2,219375, Note_on_c, 0, 78, 59
2,219379, Control_c, 0, 64, 63
2,219379, Note_on_c, 0, 70, 71
2,219390, Note_on_c, 0, 56, 0
2,219398, Control_c, 0, 64, 51
2,219417, Control_c, 0, 64, 50
2,219430, Note_on_c, 0, 77, 0
2,219437, Control_c, 0, 64, 54
2,219437, Control_c, 0, 67, 79
2,219456, Control_c, 0, 64, 61
2,219475, Control_c, 0, 64, 65
2,219477, Note_on_c, 0, 71, 0
2,219494, Control_c, 0, 64, 69
2,219514, Control_c, 0, 64, 77
2,219514, Control_c, 0, 67, 80
2,219532, Control_c, 0, 64, 92
2,219552, Control_c, 0, 64, 127
2,219629, Control_c, 0, 67, 79
2,219660, Note_on_c, 0, 54, 0
2,219758, Note_on_c, 0, 73, 71
2,219760, Note_on_c, 0, 52, 51
2,219906, Note_on_c, 0, 78, 0
2,219966, Note_on_c, 0, 70, 0
2,220100, Note_on_c, 0, 51, 47
2,220113, Note_on_c, 0, 71, 71
2,220115, Note_on_c, 0, 78, 67
2,220147, Control_c, 0, 64, 96
2,220160, Note_on_c, 0, 52, 0
2,220166, Control_c, 0, 64, 70
2,220186, Control_c, 0, 64, 56
2,220205, Control_c, 0, 64, 39
2,220205, Control_c, 0, 67, 79
2,220223, Control_c, 0, 64, 39
2,220223, Note_on_c, 0, 73, 0
2,220243, Control_c, 0, 64, 43
2,220259, Note_on_c, 0, 51, 0
2,220262, Control_c, 0, 64, 54
2,220282, Control_c, 0, 64, 62
2,220285, Note_on_c, 0, 49, 56
2,220301, Control_c, 0, 64, 66
2,220301, Control_c, 0, 67, 79
2,220321, Control_c, 0, 64, 69
2,220340, Control_c, 0, 64, 74
2,220359, Control_c, 0, 64, 84
2,220378, Control_c, 0, 64, 99
2,220398, Control_c, 0, 64, 127
2,220398, Control_c, 0, 67, 79
2,220456, Note_on_c, 0, 49, 0
2,220463, Note_on_c, 0, 51, 55
2,220551, Control_c, 0, 67, 79
2,220568, Note_on_c, 0, 51, 0
2,220609, Control_c, 0, 67, 79
2,220612, Note_on_c, 0, 52, 51
2,220724, Control_c, 0, 67, 79
2,220801, Control_c, 0, 67, 79
2,220839, Control_c, 0, 64, 103
2,220858, Control_c, 0, 64, 87
2,220871, Note_on_c, 0, 46, 53
2,220872, Note_on_c, 0, 73, 74
2,220878, Control_c, 0, 64, 76
2,220896, Control_c, 0, 64, 68
2,220913, Note_on_c, 0, 78, 0
2,220916, Control_c, 0, 64, 61
2,220932, Note_on_c, 0, 52, 0
2,220935, Control_c, 0, 64, 50
2,220955, Control_c, 0, 64, 44
2,220973, Control_c, 0, 64, 41
2,220993, Control_c, 0, 64, 38
2,221012, Control_c, 0, 64, 36
2,221031, Control_c, 0, 64, 36
2,221237, Note_on_c, 0, 80, 67
2,221238, Note_on_c, 0, 42, 47
2,221254, Note_on_c, 0, 46, 0
2,221566, Control_c, 0, 64, 36
2,221585, Control_c, 0, 64, 39
2,221603, Note_on_c, 0, 78, 62
2,221604, Control_c, 0, 64, 44
2,221605, Note_on_c, 0, 42, 0
2,221618, Note_on_c, 0, 44, 49
2,221624, Control_c, 0, 64, 48
2,221643, Control_c, 0, 64, 53
2,221662, Control_c, 0, 64, 58
2,221681, Control_c, 0, 64, 61
2,221701, Control_c, 0, 64, 63
2,221702, Note_on_c, 0, 71, 0
2,221719, Control_c, 0, 64, 65
2,221739, Control_c, 0, 64, 67
2,221758, Control_c, 0, 64, 71
2,221778, Control_c, 0, 64, 77
2,221779, Note_on_c, 0, 80, 0
2,221796, Control_c, 0, 64, 86
2,221816, Control_c, 0, 64, 101
2,221835, Control_c, 0, 64, 116
2,221854, Control_c, 0, 64, 127
2,221959, Note_on_c, 0, 44, 0
2,221964, Note_on_c, 0, 76, 61
2,221986, Note_on_c, 0, 46, 46
2,221988, Note_on_c, 0, 73, 0
2,221988, Note_on_c, 0, 78, 0
2,222026, Note_on_c, 0, 76, 0
2,222198, Control_c, 0, 67, 78
2,222236, Control_c, 0, 64, 123
2,222256, Control_c, 0, 64, 117
2,222274, Control_c, 0, 64, 112
2,222294, Control_c, 0, 64, 107
2,222313, Control_c, 0, 64, 102
2,222332, Control_c, 0, 64, 96
2,222342, Note_on_c, 0, 66, 70
2,222351, Control_c, 0, 64, 86
2,222362, Note_on_c, 0, 46, 0
2,222370, Control_c, 0, 64, 77
2,222371, Note_on_c, 0, 75, 54
2,222390, Control_c, 0, 64, 69
2,222390, Control_c, 0, 67, 78
2,222390, Note_on_c, 0, 47, 44
2,222408, Control_c, 0, 64, 63
2,222428, Control_c, 0, 64, 56
2,222447, Control_c, 0, 64, 51
2,222467, Control_c, 0, 64, 49
2,222485, Control_c, 0, 64, 47
2,222505, Control_c, 0, 64, 45
2,222525, Control_c, 0, 64, 43
2,222544, Control_c, 0, 64, 40
2,222563, Control_c, 0, 64, 39
2,222583, Control_c, 0, 64, 38
2,222602, Control_c, 0, 64, 37
2,222621, Control_c, 0, 64, 36
2,222678, Control_c, 0, 64, 36
2,222713, Note_on_c, 0, 47, 0
2,222737, Note_on_c, 0, 49, 45
2,222754, Note_on_c, 0, 76, 50
2,222765, Note_on_c, 0, 75, 0
2,223129, Note_on_c, 0, 49, 0
2,223144, Note_on_c, 0, 51, 38
2,223148, Note_on_c, 0, 78, 59
2,223169, Note_on_c, 0, 76, 0
2,223196, Control_c, 0, 67, 77
2,223388, Control_c, 0, 67, 77
2,223448, Note_on_c, 0, 51, 0
2,223498, Note_on_c, 0, 52, 44
2,223617, Note_on_c, 0, 52, 0
2,223659, Control_c, 0, 64, 36
2,223664, Note_on_c, 0, 54, 45
2,223716, Control_c, 0, 64, 37
2,223812, Control_c, 0, 64, 37
2,223833, Note_on_c, 0, 54, 0
2,223850, Control_c, 0, 64, 38
2,223860, Note_on_c, 0, 71, 58
2,223863, Note_on_c, 0, 56, 43
2,223870, Control_c, 0, 64, 38
2,223889, Control_c, 0, 64, 39
2,223890, Note_on_c, 0, 78, 0
2,223908, Control_c, 0, 64, 41
2,223927, Control_c, 0, 64, 43
2,223947, Control_c, 0, 64, 46
2,223966, Control_c, 0, 64, 49
2,223985, Control_c, 0, 64, 51
2,224004, Control_c, 0, 64, 54
2,224024, Control_c, 0, 64, 57
2,224043, Control_c, 0, 64, 59
2,224062, Control_c, 0, 64, 61
2,224081, Control_c, 0, 64, 62
2,224101, Control_c, 0, 64, 63
2,224119, Control_c, 0, 64, 64
2,224139, Control_c, 0, 64, 66
2,224154, Note_on_c, 0, 56, 0
2,224158, Control_c, 0, 64, 69
2,224178, Control_c, 0, 64, 73
2,224181, Note_on_c, 0, 58, 46
2,224196, Control_c, 0, 64, 81
2,224216, Control_c, 0, 64, 92
2,224235, Control_c, 0, 64, 104
2,224254, Control_c, 0, 64, 116
2,224273, Control_c, 0, 64, 121
2,224296, Note_on_c, 0, 58, 0
2,224358, Note_on_c, 0, 59, 45
2,224482, Control_c, 0, 64, 119
2,224502, Control_c, 0, 64, 112
2,224521, Control_c, 0, 64, 99
2,224524, Note_on_c, 0, 59, 0
2,224540, Control_c, 0, 64, 84
2,224554, Note_on_c, 0, 49, 46
2,224559, Control_c, 0, 64, 71
2,224564, Note_on_c, 0, 76, 63
2,224579, Control_c, 0, 64, 63
2,224598, Control_c, 0, 64, 52
2,224617, Control_c, 0, 64, 44
2,224636, Control_c, 0, 64, 42
2,224656, Control_c, 0, 64, 40
2,224674, Control_c, 0, 64, 39
2,224677, Note_on_c, 0, 71, 0
2,224694, Control_c, 0, 64, 37
2,224713, Control_c, 0, 64, 36
2,224751, Control_c, 0, 64, 35
2,224790, Control_c, 0, 64, 35
2,224808, Control_c, 0, 64, 34
2,224937, Note_on_c, 0, 51, 42
2,224965, Note_on_c, 0, 49, 0
2,225039, Control_c, 0, 67, 76
2,225081, Note_on_c, 0, 51, 0
2,225120, Note_on_c, 0, 52, 49
2,225213, Control_c, 0, 67, 76
2,225257, Note_on_c, 0, 52, 0
2,225310, Note_on_c, 0, 42, 54
2,225635, Control_c, 0, 67, 75
2,225669, Note_on_c, 0, 75, 61
2,225672, Note_on_c, 0, 54, 43
2,226030, Note_on_c, 0, 66, 0
2,226038, Control_c, 0, 64, 35
2,226055, Note_on_c, 0, 70, 61
2,226058, Control_c, 0, 64, 37
2,226065, Note_on_c, 0, 73, 58
2,226077, Control_c, 0, 64, 44
2,226097, Control_c, 0, 64, 50
2,226115, Control_c, 0, 64, 55
2,226135, Control_c, 0, 64, 59
2,226154, Control_c, 0, 64, 62
2,226157, Note_on_c, 0, 54, 0
2,226173, Control_c, 0, 64, 63
2,226192, Control_c, 0, 64, 65
2,226211, Control_c, 0, 64, 67
2,226231, Control_c, 0, 64, 71
2,226249, Control_c, 0, 64, 77
2,226258, Note_on_c, 0, 42, 0
2,226269, Control_c, 0, 64, 86
2,226288, Control_c, 0, 64, 98
2,226308, Control_c, 0, 64, 112
2,226326, Control_c, 0, 64, 127
2,226326, Control_c, 0, 67, 75
2,226365, Note_on_c, 0, 70, 0
2,226444, Note_on_c, 0, 55, 54
2,226538, Control_c, 0, 64, 123
2,226557, Control_c, 0, 64, 119
2,226577, Control_c, 0, 64, 117
2,226595, Control_c, 0, 64, 115
2,226615, Control_c, 0, 64, 113
2,226634, Control_c, 0, 64, 112
2,226653, Control_c, 0, 64, 110
2,226672, Control_c, 0, 64, 107
2,226691, Control_c, 0, 64, 104
2,226711, Control_c, 0, 64, 100
2,226729, Control_c, 0, 64, 97
2,226749, Control_c, 0, 64, 93
2,226768, Control_c, 0, 64, 87
2,226788, Control_c, 0, 64, 81
2,226806, Control_c, 0, 64, 74
2,226824, Note_on_c, 0, 55, 0
2,226826, Control_c, 0, 64, 67
2,226832, Note_on_c, 0, 71, 59
2,226833, Note_on_c, 0, 68, 52
2,226834, Note_on_c, 0, 76, 0
2,226843, Note_on_c, 0, 56, 37
2,226845, Control_c, 0, 64, 61
2,226864, Control_c, 0, 64, 55
2,226880, Note_on_c, 0, 75, 0
2,226883, Control_c, 0, 64, 51
2,226900, Note_on_c, 0, 73, 0
2,226903, Control_c, 0, 64, 47
2,226922, Control_c, 0, 64, 42
2,226941, Control_c, 0, 64, 36
2,226960, Control_c, 0, 64, 28
2,226980, Control_c, 0, 64, 22
2,226998, Control_c, 0, 64, 19
2,227018, Control_c, 0, 64, 18
2,227037, Control_c, 0, 64, 11
2,227057, Control_c, 0, 64, 0
2,227207, Note_on_c, 0, 56, 0
2,227212, Note_on_c, 0, 55, 43
2,227595, Note_on_c, 0, 76, 68
2,227599, Note_on_c, 0, 55, 0
2,227613, Note_on_c, 0, 56, 43
2,227920, Note_on_c, 0, 68, 0
2,227973, Note_on_c, 0, 56, 0
2,227977, Note_on_c, 0, 58, 46
2,228332, Note_on_c, 0, 58, 0
2,228343, Note_on_c, 0, 59, 40
2,228349, Note_on_c, 0, 66, 66
2,228400, Control_c, 0, 64, 9
2,228420, Control_c, 0, 64, 20
2,228430, Note_on_c, 0, 71, 0
2,228438, Control_c, 0, 64, 29
2,228458, Control_c, 0, 64, 39
2,228477, Control_c, 0, 64, 46
2,228497, Control_c, 0, 64, 53
2,228515, Control_c, 0, 64, 58
2,228535, Control_c, 0, 64, 61
2,228535, Control_c, 0, 67, 75
2,228554, Control_c, 0, 64, 64
2,228573, Control_c, 0, 64, 66
2,228592, Control_c, 0, 64, 67
2,228611, Control_c, 0, 64, 70
2,228631, Control_c, 0, 64, 73
2,228649, Control_c, 0, 64, 79
2,228669, Control_c, 0, 64, 87
2,228688, Control_c, 0, 64, 100
2,228708, Control_c, 0, 64, 123
2,228712, Note_on_c, 0, 76, 0
2,228723, Note_on_c, 0, 74, 55
2,228726, Control_c, 0, 64, 127
2,228727, Note_on_c, 0, 59, 0
2,228743, Note_on_c, 0, 58, 41
2,229071, Control_c, 0, 64, 98
2,229090, Control_c, 0, 64, 82
2,229110, Control_c, 0, 64, 71
2,229119, Note_on_c, 0, 75, 67
2,229122, Note_on_c, 0, 74, 0
2,229126, Note_on_c, 0, 56, 45
2,229128, Control_c, 0, 64, 63
2,229128, Note_on_c, 0, 71, 66
2,229136, Note_on_c, 0, 58, 0
2,229148, Control_c, 0, 64, 55
2,229167, Control_c, 0, 64, 49
2,229187, Control_c, 0, 64, 46
2,229205, Control_c, 0, 64, 43
2,229225, Control_c, 0, 64, 39
2,229245, Control_c, 0, 64, 32
2,229264, Control_c, 0, 64, 27
2,229283, Control_c, 0, 64, 26
2,229322, Control_c, 0, 64, 25
2,229341, Control_c, 0, 64, 23
2,229360, Control_c, 0, 64, 21
2,229380, Control_c, 0, 64, 19
2,229437, Control_c, 0, 64, 18
2,229476, Note_on_c, 0, 56, 0
2,229487, Note_on_c, 0, 54, 51
2,229649, Note_on_c, 0, 66, 0
2,229763, Control_c, 0, 64, 20
2,229783, Control_c, 0, 64, 25
2,229802, Control_c, 0, 64, 31
2,229821, Control_c, 0, 64, 38
2,229840, Control_c, 0, 64, 47
2,229845, Note_on_c, 0, 54, 0
2,229859, Control_c, 0, 64, 54
2,229872, Note_on_c, 0, 53, 46
2,229878, Control_c, 0, 64, 58
2,229898, Control_c, 0, 64, 62
2,229917, Control_c, 0, 64, 63
2,229935, Note_on_c, 0, 71, 0
2,229937, Control_c, 0, 64, 65
2,229955, Control_c, 0, 64, 66
2,229975, Control_c, 0, 64, 68
2,229993, Note_on_c, 0, 75, 0
2,229994, Control_c, 0, 64, 71
2,230013, Control_c, 0, 64, 76
2,230032, Control_c, 0, 64, 82
2,230051, Control_c, 0, 64, 88
2,230071, Control_c, 0, 64, 92
2,230128, Control_c, 0, 64, 92
2,230206, Control_c, 0, 64, 92
2,230217, Note_on_c, 0, 53, 0
2,230225, Control_c, 0, 64, 91
2,230244, Control_c, 0, 64, 89
2,230258, Note_on_c, 0, 54, 46
2,230262, Note_on_c, 0, 75, 75
2,230264, Control_c, 0, 64, 86
2,230283, Control_c, 0, 64, 82
2,230302, Control_c, 0, 64, 77
2,230321, Control_c, 0, 64, 72
2,230341, Control_c, 0, 64, 67
2,230359, Control_c, 0, 64, 63
2,230379, Control_c, 0, 64, 59
2,230398, Control_c, 0, 64, 54
2,230418, Control_c, 0, 64, 50
2,230436, Control_c, 0, 64, 47
2,230456, Control_c, 0, 64, 44
2,230475, Control_c, 0, 64, 40
2,230493, Control_c, 0, 64, 36
2,230513, Control_c, 0, 64, 32
2,230532, Control_c, 0, 64, 28
2,230552, Control_c, 0, 64, 25
2,230570, Control_c, 0, 64, 24
2,230590, Control_c, 0, 64, 23
2,230629, Control_c, 0, 64, 22
2,230651, Note_on_c, 0, 54, 0
2,230658, Note_on_c, 0, 73, 73
2,230670, Note_on_c, 0, 53, 42
2,230675, Note_on_c, 0, 80, 67
2,230686, Control_c, 0, 64, 21
2,230739, Note_on_c, 0, 75, 0
2,231046, Note_on_c, 0, 53, 0
2,231049, Note_on_c, 0, 51, 43
2,231050, Note_on_c, 0, 71, 77
2,231092, Note_on_c, 0, 73, 0
2,231322, Control_c, 0, 64, 22
2,231361, Control_c, 0, 64, 24
2,231380, Control_c, 0, 64, 26
2,231399, Control_c, 0, 64, 31
2,231404, Note_on_c, 0, 51, 0
2,231417, Note_on_c, 0, 70, 78
2,231418, Control_c, 0, 64, 39
2,231423, Note_on_c, 0, 50, 43
2,231438, Control_c, 0, 64, 48
2,231456, Control_c, 0, 64, 54
2,231467, Note_on_c, 0, 71, 0
2,231476, Control_c, 0, 64, 57
2,231495, Control_c, 0, 64, 61
2,231515, Control_c, 0, 64, 63
2,231533, Control_c, 0, 64, 65
2,231553, Control_c, 0, 64, 67
2,231572, Control_c, 0, 64, 72
2,231592, Control_c, 0, 64, 78
2,231592, Note_on_c, 0, 80, 0
2,231598, Note_on_c, 0, 50, 0
2,231610, Control_c, 0, 64, 88
2,231630, Control_c, 0, 64, 103
2,231649, Control_c, 0, 64, 127
2,231687, Control_c, 0, 67, 76
2,231756, Note_on_c, 0, 71, 73
2,231756, Note_on_c, 0, 80, 66
2,231760, Note_on_c, 0, 62, 52
2,231789, Note_on_c, 0, 70, 0
2,231879, Control_c, 0, 67, 76
2,231905, Note_on_c, 0, 62, 0
2,231941, Note_on_c, 0, 63, 49
2,231952, Note_on_c, 0, 80, 0
2,232072, Control_c, 0, 64, 110
2,232090, Control_c, 0, 64, 84
2,232110, Control_c, 0, 64, 68
2,232115, Note_on_c, 0, 63, 0
2,232124, Note_on_c, 0, 71, 0
2,232130, Control_c, 0, 64, 50
2,232133, Note_on_c, 0, 73, 63
2,232137, Note_on_c, 0, 79, 59
2,232149, Control_c, 0, 64, 26
2,232168, Control_c, 0, 64, 24
2,232171, Note_on_c, 0, 64, 38
2,232206, Control_c, 0, 64, 26
2,232225, Control_c, 0, 64, 35
2,232245, Control_c, 0, 64, 44
2,232264, Control_c, 0, 64, 55
2,232283, Control_c, 0, 64, 60
2,232302, Control_c, 0, 64, 63
2,232322, Control_c, 0, 64, 65
2,232341, Control_c, 0, 64, 69
2,232360, Control_c, 0, 64, 74
2,232379, Control_c, 0, 64, 84
2,232399, Control_c, 0, 64, 101
2,232417, Control_c, 0, 64, 127
2,232493, Note_on_c, 0, 79, 0
2,232496, Note_on_c, 0, 78, 62
2,232501, Note_on_c, 0, 64, 0
2,232513, Note_on_c, 0, 58, 37
2,232802, Note_on_c, 0, 73, 0
2,232819, Control_c, 0, 64, 104
2,232838, Control_c, 0, 64, 81
2,232857, Control_c, 0, 64, 66
2,232868, Note_on_c, 0, 68, 66
2,232872, Note_on_c, 0, 58, 0
2,232877, Control_c, 0, 64, 50
2,232896, Control_c, 0, 64, 36
2,232902, Note_on_c, 0, 59, 32
2,232934, Control_c, 0, 64, 36
2,232954, Control_c, 0, 64, 45
2,232972, Control_c, 0, 64, 54
2,232972, Control_c, 0, 67, 77
2,232977, Note_on_c, 0, 78, 0
2,232992, Control_c, 0, 64, 60
2,233011, Control_c, 0, 64, 63
2,233031, Control_c, 0, 64, 66
2,233049, Control_c, 0, 64, 70
2,233069, Control_c, 0, 64, 77
2,233089, Control_c, 0, 64, 94
2,233108, Control_c, 0, 64, 127
2,233169, Note_on_c, 0, 59, 0
2,233174, Note_on_c, 0, 78, 61
2,233242, Control_c, 0, 67, 77
2,233295, Note_on_c, 0, 59, 49
2,233331, Note_on_c, 0, 78, 0
2,233342, Note_on_c, 0, 59, 0
2,233373, Note_on_c, 0, 60, 41
2,233413, Note_on_c, 0, 68, 0
2,233529, Note_on_c, 0, 60, 0
2,233530, Control_c, 0, 64, 105
2,233550, Control_c, 0, 64, 81
2,233559, Note_on_c, 0, 77, 61
2,233569, Control_c, 0, 64, 66
2,233570, Note_on_c, 0, 61, 47
2,233588, Control_c, 0, 64, 53
2,233589, Note_on_c, 0, 73, 48
2,233607, Control_c, 0, 64, 34
2,233627, Control_c, 0, 64, 28
2,233646, Control_c, 0, 64, 24
2,233664, Control_c, 0, 64, 22
2,233925, Note_on_c, 0, 58, 47
2,233926, Note_on_c, 0, 76, 61
2,233977, Note_on_c, 0, 61, 0
2,234296, Control_c, 0, 64, 25
2,234310, Note_on_c, 0, 75, 57
2,234312, Note_on_c, 0, 55, 41
2,234316, Control_c, 0, 64, 32
2,234323, Note_on_c, 0, 58, 0
2,234335, Control_c, 0, 64, 42
2,234335, Control_c, 0, 67, 77
2,234354, Control_c, 0, 64, 50
2,234370, Note_on_c, 0, 76, 0
2,234373, Control_c, 0, 64, 55
2,234380, Note_on_c, 0, 77, 0
2,234393, Control_c, 0, 64, 59
2,234411, Control_c, 0, 64, 62
2,234431, Control_c, 0, 64, 63
2,234450, Control_c, 0, 64, 64
2,234470, Control_c, 0, 64, 65
2,234488, Control_c, 0, 64, 66
2,234508, Control_c, 0, 64, 66
2,234512, Note_on_c, 0, 73, 0
2,234527, Control_c, 0, 64, 67
2,234565, Control_c, 0, 64, 67
2,234604, Control_c, 0, 64, 67
2,234622, Control_c, 0, 64, 66
2,234642, Control_c, 0, 64, 65
2,234659, Note_on_c, 0, 75, 0
2,234661, Control_c, 0, 64, 63
2,234676, Note_on_c, 0, 71, 56
2,234678, Note_on_c, 0, 56, 44
2,234681, Control_c, 0, 64, 61
2,234700, Control_c, 0, 64, 57
2,234720, Control_c, 0, 64, 52
2,234720, Control_c, 0, 67, 76
2,234733, Note_on_c, 0, 55, 0
2,234739, Control_c, 0, 64, 44
2,234758, Control_c, 0, 64, 34
2,234777, Control_c, 0, 64, 23
2,234797, Control_c, 0, 64, 15
2,234816, Control_c, 0, 64, 9
2,234835, Control_c, 0, 64, 0
2,235026, Control_c, 0, 64, 13
2,235046, Control_c, 0, 64, 24
2,235061, Note_on_c, 0, 70, 54
2,235064, Note_on_c, 0, 73, 59
2,235065, Control_c, 0, 64, 33
2,235083, Note_on_c, 0, 71, 0
2,235085, Control_c, 0, 64, 43
2,235103, Control_c, 0, 64, 52
2,235103, Control_c, 0, 67, 76
2,235123, Control_c, 0, 64, 60
2,235142, Control_c, 0, 64, 64
2,235161, Control_c, 0, 64, 67
2,235180, Control_c, 0, 64, 70
2,235200, Control_c, 0, 64, 75
2,235219, Control_c, 0, 64, 82
2,235238, Control_c, 0, 64, 91
2,235257, Control_c, 0, 64, 102
2,235277, Control_c, 0, 64, 118
2,235296, Control_c, 0, 64, 127
2,235296, Control_c, 0, 67, 75
2,235346, Note_on_c, 0, 73, 0
2,235416, Note_on_c, 0, 56, 0
2,235425, Note_on_c, 0, 55, 50
2,235756, Control_c, 0, 64, 97
2,235766, Note_on_c, 0, 55, 0
2,235775, Control_c, 0, 64, 79
2,235794, Control_c, 0, 64, 66
2,235799, Note_on_c, 0, 56, 45
2,235813, Control_c, 0, 64, 49
2,235814, Note_on_c, 0, 71, 55
2,235833, Control_c, 0, 64, 0
2,235841, Note_on_c, 0, 70, 0
2,235910, Control_c, 0, 64, 19
2,235928, Control_c, 0, 64, 43
2,235948, Control_c, 0, 64, 56
2,235967, Control_c, 0, 64, 62
2,235986, Control_c, 0, 64, 65
2,236005, Control_c, 0, 64, 67
2,236024, Control_c, 0, 64, 70
2,236044, Control_c, 0, 64, 76
2,236062, Control_c, 0, 64, 84
2,236082, Control_c, 0, 64, 94
2,236101, Control_c, 0, 64, 103
2,236121, Control_c, 0, 64, 105
2,236173, Note_on_c, 0, 56, 0
2,236178, Control_c, 0, 64, 105
2,236194, Note_on_c, 0, 54, 50
2,236216, Control_c, 0, 64, 106
2,236222, Note_on_c, 0, 63, 63
2,236296, Control_c, 0, 67, 75
2,236315, Control_c, 0, 64, 105
2,236353, Control_c, 0, 64, 105
2,236527, Control_c, 0, 64, 104
2,236545, Control_c, 0, 64, 101
2,236551, Note_on_c, 0, 54, 0
2,236565, Control_c, 0, 64, 90
2,236582, Note_on_c, 0, 52, 58
2,236582, Note_on_c, 0, 68, 76
2,236583, Control_c, 0, 64, 76
2,236593, Note_on_c, 0, 71, 0
2,236603, Control_c, 0, 64, 65
2,236621, Control_c, 0, 64, 52
2,236621, Control_c, 0, 67, 74
2,236641, Control_c, 0, 64, 43
2,236660, Control_c, 0, 64, 44
2,236660, Control_c, 0, 67, 74
2,236680, Control_c, 0, 64, 50
2,236698, Control_c, 0, 64, 58
2,236717, Control_c, 0, 64, 63
2,236737, Control_c, 0, 64, 65
2,236755, Control_c, 0, 64, 67
2,236775, Control_c, 0, 64, 69
2,236794, Control_c, 0, 64, 73
2,236814, Control_c, 0, 64, 78
2,236832, Control_c, 0, 64, 82
2,236852, Control_c, 0, 64, 85
2,236852, Control_c, 0, 67, 73
2,236871, Control_c, 0, 64, 86
2,236909, Control_c, 0, 64, 85
2,236930, Control_c, 0, 64, 85
2,236936, Note_on_c, 0, 71, 75
2,236945, Note_on_c, 0, 52, 0
2,236949, Control_c, 0, 64, 84
2,236951, Note_on_c, 0, 51, 58
2,236962, Note_on_c, 0, 68, 0
2,236987, Control_c, 0, 64, 83
2,237007, Control_c, 0, 64, 83
2,237025, Control_c, 0, 64, 82
2,237040, Note_on_c, 0, 63, 0
2,237045, Control_c, 0, 64, 80
2,237064, Control_c, 0, 64, 79
2,237084, Control_c, 0, 64, 79
2,237199, Control_c, 0, 64, 78
2,237218, Control_c, 0, 64, 77
2,237236, Control_c, 0, 64, 73
2,237256, Control_c, 0, 64, 68
2,237275, Control_c, 0, 64, 62
2,237294, Control_c, 0, 64, 47
2,237307, Note_on_c, 0, 51, 0
2,237308, Note_on_c, 0, 49, 61
2,237311, Note_on_c, 0, 70, 79
2,237313, Control_c, 0, 64, 0
2,237349, Note_on_c, 0, 71, 0
2,237448, Control_c, 0, 64, 35
2,237467, Control_c, 0, 64, 51
2,237487, Control_c, 0, 64, 60
2,237505, Control_c, 0, 64, 64
2,237525, Control_c, 0, 64, 66
2,237544, Control_c, 0, 64, 69
2,237564, Control_c, 0, 64, 72
2,237582, Control_c, 0, 64, 78
2,237602, Control_c, 0, 64, 88
2,237621, Control_c, 0, 64, 102
2,237640, Control_c, 0, 64, 127
2,237659, Control_c, 0, 67, 73
2,237694, Note_on_c, 0, 49, 0
2,237698, Note_on_c, 0, 68, 79
2,237720, Note_on_c, 0, 50, 53
2,237729, Note_on_c, 0, 70, 0
2,237947, Control_c, 0, 67, 73
2,237985, Control_c, 0, 64, 112
2,238005, Control_c, 0, 64, 82
2,238024, Control_c, 0, 64, 66
2,238044, Control_c, 0, 64, 50
2,238044, Control_c, 0, 67, 73
2,238047, Note_on_c, 0, 50, 0
2,238060, Note_on_c, 0, 68, 0
2,238062, Control_c, 0, 64, 43
2,238067, Note_on_c, 0, 51, 47
2,238082, Control_c, 0, 64, 44
2,238090, Note_on_c, 0, 66, 76
2,238101, Control_c, 0, 64, 49
2,238120, Control_c, 0, 64, 57
2,238139, Control_c, 0, 64, 61
2,238139, Control_c, 0, 67, 73
2,238158, Control_c, 0, 64, 64
2,238178, Control_c, 0, 64, 66
2,238196, Control_c, 0, 64, 70
2,238216, Control_c, 0, 64, 76
2,238235, Control_c, 0, 64, 88
2,238254, Control_c, 0, 64, 110
2,238273, Control_c, 0, 64, 127
2,238455, Note_on_c, 0, 78, 81
2,238464, Note_on_c, 0, 51, 0
2,238469, Note_on_c, 0, 46, 54
2,238516, Note_on_c, 0, 66, 0
2,238551, Note_on_c, 0, 78, 0
2,238866, Note_on_c, 0, 47, 54
2,238867, Note_on_c, 0, 68, 75
2,238869, Control_c, 0, 64, 105
2,238889, Control_c, 0, 64, 88
2,238907, Note_on_c, 0, 46, 0
2,238908, Control_c, 0, 64, 76
2,238928, Control_c, 0, 64, 67
2,238946, Control_c, 0, 64, 59
2,238966, Control_c, 0, 64, 49
2,238985, Control_c, 0, 64, 43
2,239004, Control_c, 0, 64, 37
2,239023, Control_c, 0, 64, 30
2,239043, Control_c, 0, 64, 18
2,239062, Control_c, 0, 64, 0
2,239229, Note_on_c, 0, 47, 0
2,239262, Note_on_c, 0, 66, 65
2,239264, Note_on_c, 0, 48, 44
2,239345, Note_on_c, 0, 68, 0
2,239614, Note_on_c, 0, 49, 48
2,239640, Note_on_c, 0, 64, 62
2,239642, Note_on_c, 0, 66, 0
2,239657, Note_on_c, 0, 48, 0
2,240009, Note_on_c, 0, 49, 0
2,240015, Note_on_c, 0, 44, 43
2,240033, Note_on_c, 0, 63, 51
2,240050, Note_on_c, 0, 64, 0
2,240420, Note_on_c, 0, 46, 45
2,240441, Note_on_c, 0, 62, 56
2,240467, Note_on_c, 0, 44, 0
2,240474, Note_on_c, 0, 63, 0
2,240520, Control_c, 0, 64, 22
2,240539, Control_c, 0, 64, 37
2,240558, Control_c, 0, 64, 48
2,240578, Control_c, 0, 64, 56
2,240596, Control_c, 0, 64, 60
2,240616, Control_c, 0, 64, 63
2,240635, Control_c, 0, 64, 64
2,240654, Control_c, 0, 64, 66
2,240673, Control_c, 0, 64, 67
2,240693, Control_c, 0, 64, 70
2,240712, Control_c, 0, 64, 73
2,240731, Control_c, 0, 64, 77
2,240750, Control_c, 0, 64, 83
2,240770, Control_c, 0, 64, 89
2,240775, Note_on_c, 0, 66, 62
2,240789, Control_c, 0, 64, 94
2,240808, Control_c, 0, 64, 99
2,240815, Note_on_c, 0, 62, 0
2,240827, Control_c, 0, 64, 101
2,240847, Control_c, 0, 64, 102
2,240865, Control_c, 0, 64, 103
2,240885, Control_c, 0, 64, 104
2,240904, Control_c, 0, 64, 105
2,240924, Control_c, 0, 64, 107
2,240942, Control_c, 0, 64, 112
2,240958, Note_on_c, 0, 65, 56
2,240962, Control_c, 0, 64, 119
2,240981, Control_c, 0, 64, 127
2,241038, Control_c, 0, 64, 121
2,241050, Note_on_c, 0, 66, 0
2,241058, Control_c, 0, 64, 99
2,241076, Control_c, 0, 64, 77
2,241096, Control_c, 0, 64, 65
2,241115, Control_c, 0, 64, 52
2,241115, Control_c, 0, 67, 73
2,241134, Control_c, 0, 64, 42
2,241151, Note_on_c, 0, 63, 59
2,241153, Control_c, 0, 64, 42
2,241156, Note_on_c, 0, 65, 0
2,241156, Note_on_c, 0, 66, 65
2,241173, Control_c, 0, 64, 49
2,241192, Control_c, 0, 64, 58
2,241211, Control_c, 0, 64, 63
2,241230, Control_c, 0, 64, 66
2,241250, Control_c, 0, 64, 69
2,241269, Control_c, 0, 64, 76
2,241288, Control_c, 0, 64, 88
2,241307, Control_c, 0, 64, 113
2,241327, Control_c, 0, 64, 127
2,241327, Control_c, 0, 67, 72
2,241365, Control_c, 0, 67, 72
2,241521, Note_on_c, 0, 66, 0
2,241532, Note_on_c, 0, 65, 67
2,241536, Note_on_c, 0, 63, 0
2,241548, Note_on_c, 0, 69, 58
2,241585, Note_on_c, 0, 69, 0
2,241652, Control_c, 0, 67, 72
2,241729, Control_c, 0, 67, 72
2,241844, Control_c, 0, 64, 112
2,241863, Control_c, 0, 64, 79
2,241883, Control_c, 0, 64, 62
2,241885, Note_on_c, 0, 70, 81
2,241901, Control_c, 0, 64, 51
2,241921, Control_c, 0, 64, 55
2,241940, Control_c, 0, 64, 61
2,241960, Control_c, 0, 64, 65
2,241963, Note_on_c, 0, 65, 0
2,241978, Control_c, 0, 64, 72
2,241997, Control_c, 0, 64, 87
2,242017, Control_c, 0, 64, 127
2,242209, Note_on_c, 0, 62, 74
2,242217, Note_on_c, 0, 53, 68
2,242247, Control_c, 0, 64, 87
2,242266, Control_c, 0, 64, 69
2,242286, Control_c, 0, 64, 61
2,242304, Control_c, 0, 64, 60
2,242304, Control_c, 0, 67, 71
2,242304, Note_on_c, 0, 70, 0
2,242324, Control_c, 0, 64, 63
2,242342, Control_c, 0, 64, 66
2,242362, Control_c, 0, 64, 70
2,242380, Control_c, 0, 64, 79
2,242380, Control_c, 0, 67, 72
2,242400, Control_c, 0, 64, 95
2,242414, Note_on_c, 0, 60, 73
2,242419, Control_c, 0, 64, 127
2,242478, Note_on_c, 0, 62, 0
2,242496, Control_c, 0, 67, 71
2,242591, Control_c, 0, 64, 82
2,242611, Control_c, 0, 64, 65
2,242624, Note_on_c, 0, 58, 71
2,242625, Note_on_c, 0, 62, 72
2,242630, Control_c, 0, 64, 50
2,242630, Control_c, 0, 67, 72
2,242637, Note_on_c, 0, 60, 0
2,242649, Control_c, 0, 64, 45
2,242668, Control_c, 0, 64, 48
2,242668, Control_c, 0, 67, 71
2,242689, Control_c, 0, 64, 57
2,242708, Control_c, 0, 64, 63
2,242727, Control_c, 0, 64, 68
2,242746, Control_c, 0, 64, 75
2,242766, Control_c, 0, 64, 88
2,242784, Control_c, 0, 64, 123
2,242804, Control_c, 0, 64, 127
2,242950, Note_on_c, 0, 65, 77
2,242977, Control_c, 0, 67, 72
2,242979, Note_on_c, 0, 62, 0
2,243005, Note_on_c, 0, 65, 0
2,243169, Control_c, 0, 67, 72
2,243207, Control_c, 0, 67, 73
2,243300, Control_c, 0, 67, 72
2,243352, Note_on_c, 0, 77, 80
2,243353, Note_on_c, 0, 70, 82
2,243359, Control_c, 0, 67, 73
2,243378, Control_c, 0, 64, 99
2,243397, Control_c, 0, 64, 73
2,243397, Control_c, 0, 67, 73
2,243416, Control_c, 0, 64, 54
2,243418, Note_on_c, 0, 53, 0
2,243436, Control_c, 0, 64, 32
2,243436, Control_c, 0, 67, 73
2,243474, Control_c, 0, 64, 35
2,243493, Control_c, 0, 64, 47
2,243505, Note_on_c, 0, 58, 0
2,243513, Control_c, 0, 64, 58
2,243524, Note_on_c, 0, 46, 0
2,243531, Control_c, 0, 64, 63
2,243531, Control_c, 0, 67, 73
2,243551, Control_c, 0, 64, 67
2,243570, Control_c, 0, 64, 71
2,243570, Control_c, 0, 67, 74
2,243590, Control_c, 0, 64, 79
2,243608, Control_c, 0, 64, 96
2,243627, Control_c, 0, 64, 127
2,243648, Control_c, 0, 67, 73
2,243705, Control_c, 0, 67, 73
2,243736, Note_on_c, 0, 59, 72
2,243743, Control_c, 0, 67, 73
2,243782, Control_c, 0, 67, 74
2,243878, Control_c, 0, 67, 73
2,243936, Control_c, 0, 67, 74
2,243955, Control_c, 0, 67, 74
2,243994, Control_c, 0, 67, 75
2,244109, Control_c, 0, 64, 90
2,244128, Control_c, 0, 64, 69
2,244143, Note_on_c, 0, 58, 70
2,244146, Control_c, 0, 64, 58
2,244146, Control_c, 0, 67, 75
2,244166, Control_c, 0, 64, 50
2,244185, Control_c, 0, 64, 52
2,244190, Note_on_c, 0, 59, 0
2,244205, Control_c, 0, 64, 58
2,244223, Control_c, 0, 64, 64
2,244243, Control_c, 0, 64, 68
2,244262, Control_c, 0, 64, 76
2,244262, Control_c, 0, 67, 76
2,244282, Control_c, 0, 64, 91
2,244300, Control_c, 0, 64, 127
2,244320, Control_c, 0, 67, 76
2,244416, Note_on_c, 0, 77, 0
2,244480, Note_on_c, 0, 71, 85
2,244484, Note_on_c, 0, 56, 74
2,244492, Control_c, 0, 67, 77
2,244506, Note_on_c, 0, 70, 0
2,244554, Note_on_c, 0, 58, 0
2,244582, Note_on_c, 0, 71, 0
2,244665, Control_c, 0, 67, 77
2,244703, Control_c, 0, 67, 78
2,244838, Control_c, 0, 67, 78
2,244857, Control_c, 0, 67, 79
2,244874, Note_on_c, 0, 54, 65
2,244941, Note_on_c, 0, 82, 84
2,244946, Note_on_c, 0, 70, 81
2,244954, Control_c, 0, 64, 103
2,244958, Note_on_c, 0, 56, 0
2,244972, Control_c, 0, 64, 78
2,244992, Control_c, 0, 64, 64
2,245011, Control_c, 0, 64, 44
2,245031, Control_c, 0, 64, 0
2,245106, Control_c, 0, 67, 79
2,245126, Control_c, 0, 67, 80
2,245322, Note_on_c, 0, 56, 70
2,245373, Note_on_c, 0, 54, 0
2,245434, Control_c, 0, 67, 79
2,245693, Note_on_c, 0, 58, 68
2,245731, Note_on_c, 0, 56, 0
2,245779, Control_c, 0, 64, 11
2,245798, Control_c, 0, 64, 27
2,245817, Control_c, 0, 64, 40
2,245837, Control_c, 0, 64, 54
2,245856, Control_c, 0, 64, 62
2,245875, Control_c, 0, 64, 66
2,245891, Note_on_c, 0, 70, 0
2,245894, Control_c, 0, 64, 69
2,245914, Control_c, 0, 64, 73
2,245932, Control_c, 0, 64, 81
2,245952, Control_c, 0, 64, 92
2,245971, Control_c, 0, 64, 113
2,245983, Note_on_c, 0, 82, 0
2,245991, Control_c, 0, 64, 127
2,245991, Control_c, 0, 67, 79
2,246053, Note_on_c, 0, 68, 82
2,246209, Note_on_c, 0, 68, 0
2,246408, Note_on_c, 0, 51, 52
2,246462, Note_on_c, 0, 66, 81
2,246470, Control_c, 0, 64, 83
2,246488, Control_c, 0, 64, 65
2,246488, Control_c, 0, 67, 78
2,246507, Control_c, 0, 64, 43
2,246513, Note_on_c, 0, 58, 0
2,246527, Control_c, 0, 64, 24
2,246546, Control_c, 0, 67, 78
2,246565, Control_c, 0, 64, 38
2,246584, Control_c, 0, 64, 55
2,246604, Control_c, 0, 64, 63
2,246622, Control_c, 0, 64, 67
2,246642, Control_c, 0, 64, 73
2,246647, Note_on_c, 0, 66, 0
2,246661, Control_c, 0, 64, 85
2,246681, Control_c, 0, 64, 114
2,246699, Control_c, 0, 64, 127
2,246738, Control_c, 0, 67, 77
2,246787, Note_on_c, 0, 53, 60
2,246832, Note_on_c, 0, 51, 0
2,246950, Control_c, 0, 67, 77
2,246971, Note_on_c, 0, 54, 70
2,247011, Note_on_c, 0, 53, 0
2,247141, Control_c, 0, 67, 76
2,247161, Control_c, 0, 64, 104
2,247179, Control_c, 0, 64, 73
2,247179, Control_c, 0, 67, 76
2,247186, Note_on_c, 0, 56, 57
2,247192, Note_on_c, 0, 83, 83
2,247199, Control_c, 0, 64, 56
2,247218, Control_c, 0, 64, 0
2,247242, Note_on_c, 0, 54, 0
2,247276, Control_c, 0, 64, 27
2,247295, Control_c, 0, 64, 54
2,247314, Control_c, 0, 64, 64
2,247333, Control_c, 0, 64, 68
2,247353, Control_c, 0, 64, 73
2,247371, Control_c, 0, 64, 83
2,247391, Control_c, 0, 64, 103
2,247410, Control_c, 0, 64, 127
2,247452, Note_on_c, 0, 83, 0
2,247579, Note_on_c, 0, 68, 62
2,247626, Note_on_c, 0, 68, 0
2,247941, Note_on_c, 0, 82, 82
2,247956, Note_on_c, 0, 70, 65
2,247967, Control_c, 0, 64, 87
2,247986, Control_c, 0, 64, 67
2,248005, Control_c, 0, 64, 42
2,248024, Control_c, 0, 64, 0
2,248024, Control_c, 0, 67, 75
2,248082, Control_c, 0, 64, 22
2,248101, Control_c, 0, 64, 50
2,248122, Control_c, 0, 64, 62
2,248140, Control_c, 0, 64, 66
2,248160, Control_c, 0, 64, 70
2,248179, Control_c, 0, 64, 79
2,248198, Control_c, 0, 64, 96
2,248217, Control_c, 0, 64, 127
2,248256, Control_c, 0, 67, 75
2,248294, Control_c, 0, 67, 74
2,248332, Note_on_c, 0, 54, 55
2,248371, Control_c, 0, 67, 75
2,248392, Note_on_c, 0, 56, 0
2,248466, Control_c, 0, 67, 74
2,248674, Note_on_c, 0, 53, 51
2,248694, Note_on_c, 0, 54, 0
2,248696, Note_on_c, 0, 80, 80
2,248697, Control_c, 0, 64, 112
2,248717, Control_c, 0, 64, 78
2,248736, Control_c, 0, 64, 63
2,248755, Control_c, 0, 64, 41
2,248774, Control_c, 0, 64, 34
2,248774, Control_c, 0, 67, 74
2,248794, Control_c, 0, 64, 36
2,248812, Control_c, 0, 64, 50
2,248832, Control_c, 0, 64, 61
2,248851, Control_c, 0, 64, 65
2,248871, Control_c, 0, 64, 69
2,248889, Control_c, 0, 64, 75
2,248908, Control_c, 0, 64, 87
2,248928, Control_c, 0, 64, 105
2,248946, Control_c, 0, 64, 127
2,248983, Note_on_c, 0, 70, 0
2,248985, Control_c, 0, 67, 73
2,249036, Note_on_c, 0, 53, 0
2,249085, Note_on_c, 0, 62, 50
2,249429, Note_on_c, 0, 62, 0
2,249453, Note_on_c, 0, 63, 49
2,249465, Control_c, 0, 64, 86
2,249472, Note_on_c, 0, 78, 79
2,249485, Control_c, 0, 64, 67
2,249503, Control_c, 0, 64, 48
2,249523, Control_c, 0, 64, 0
2,249523, Control_c, 0, 67, 73
2,249575, Note_on_c, 0, 80, 0
2,249580, Control_c, 0, 64, 27
2,249583, Note_on_c, 0, 82, 0
2,249600, Control_c, 0, 64, 52
2,249619, Control_c, 0, 64, 61
2,249638, Control_c, 0, 64, 65
2,249657, Control_c, 0, 64, 69
2,249677, Control_c, 0, 64, 74
2,249696, Control_c, 0, 64, 86
2,249715, Control_c, 0, 64, 107
2,249734, Control_c, 0, 64, 127
2,249772, Control_c, 0, 67, 72
2,249825, Note_on_c, 0, 63, 0
2,249851, Note_on_c, 0, 65, 48
2,249868, Control_c, 0, 67, 73
2,249983, Control_c, 0, 67, 72
2,249989, Note_on_c, 0, 65, 0
2,250015, Note_on_c, 0, 66, 48
2,250077, Control_c, 0, 67, 73
2,250173, Control_c, 0, 67, 72
2,250203, Note_on_c, 0, 66, 0
2,250209, Note_on_c, 0, 80, 76
2,250211, Control_c, 0, 64, 118
2,250225, Note_on_c, 0, 65, 45
2,250231, Control_c, 0, 64, 81
2,250250, Control_c, 0, 64, 64
2,250259, Note_on_c, 0, 68, 37
2,250268, Control_c, 0, 64, 34
2,250288, Control_c, 0, 64, 0
2,250332, Note_on_c, 0, 78, 0
2,250345, Control_c, 0, 64, 35
2,250366, Control_c, 0, 64, 54
2,250385, Control_c, 0, 64, 62
2,250385, Control_c, 0, 67, 72
2,250404, Control_c, 0, 64, 66
2,250423, Control_c, 0, 64, 70
2,250443, Control_c, 0, 64, 76
2,250461, Control_c, 0, 64, 86
2,250481, Control_c, 0, 64, 103
2,250500, Control_c, 0, 64, 127
2,250598, Note_on_c, 0, 65, 0
2,250631, Note_on_c, 0, 63, 42
2,251006, Note_on_c, 0, 63, 0
2,251016, Note_on_c, 0, 62, 39
2,251018, Control_c, 0, 64, 99
2,251038, Control_c, 0, 64, 78
2,251057, Control_c, 0, 64, 63
2,251077, Control_c, 0, 64, 29
2,251077, Note_on_c, 0, 82, 72
2,251095, Control_c, 0, 64, 0
2,251180, Note_on_c, 0, 80, 0
2,251192, Control_c, 0, 64, 41
2,251211, Control_c, 0, 64, 56
2,251229, Control_c, 0, 64, 62
2,251249, Control_c, 0, 64, 65
2,251268, Control_c, 0, 64, 67
2,251287, Control_c, 0, 64, 71
2,251306, Control_c, 0, 64, 77
2,251327, Control_c, 0, 64, 88
2,251327, Control_c, 0, 67, 71
2,251346, Control_c, 0, 64, 104
2,251365, Control_c, 0, 64, 127
2,251442, Control_c, 0, 67, 72
2,251464, Note_on_c, 0, 68, 0
2,251472, Note_on_c, 0, 62, 0
2,251490, Note_on_c, 0, 66, 45
2,251500, Note_on_c, 0, 63, 41
2,251730, Control_c, 0, 67, 71
2,251843, Note_on_c, 0, 66, 0
2,251845, Control_c, 0, 64, 123
2,251856, Note_on_c, 0, 65, 56
2,251864, Control_c, 0, 64, 86
2,251884, Control_c, 0, 64, 68
2,251902, Control_c, 0, 64, 53
2,251922, Control_c, 0, 64, 32
2,251960, Control_c, 0, 64, 39
2,251960, Control_c, 0, 67, 71
2,251978, Control_c, 0, 64, 54
2,251998, Control_c, 0, 64, 62
2,252017, Control_c, 0, 64, 66
2,252017, Control_c, 0, 67, 71
2,252037, Control_c, 0, 64, 69
2,252055, Control_c, 0, 64, 75
2,252075, Control_c, 0, 64, 87
2,252094, Control_c, 0, 64, 106
2,252113, Control_c, 0, 64, 127
2,252113, Control_c, 0, 67, 71
2,252217, Note_on_c, 0, 65, 0
2,252232, Note_on_c, 0, 61, 52
2,252266, Control_c, 0, 67, 71
2,252312, Note_on_c, 0, 63, 0
2,252324, Control_c, 0, 67, 71
2,252624, Note_on_c, 0, 67, 38
2,252651, Control_c, 0, 67, 71
2,252680, Note_on_c, 0, 61, 0
2,252689, Control_c, 0, 64, 112
2,252708, Control_c, 0, 64, 81
2,252726, Note_on_c, 0, 75, 72
2,252727, Control_c, 0, 64, 65
2,252727, Control_c, 0, 67, 71
2,252746, Control_c, 0, 64, 40
2,252766, Control_c, 0, 64, 0
2,252823, Control_c, 0, 64, 39
2,252843, Control_c, 0, 64, 57
2,252843, Control_c, 0, 67, 71
2,252861, Control_c, 0, 64, 63
2,252881, Control_c, 0, 64, 66
2,252900, Control_c, 0, 64, 70
2,252921, Control_c, 0, 64, 75
2,252929, Note_on_c, 0, 82, 0
2,252939, Control_c, 0, 64, 85
2,252959, Control_c, 0, 64, 101
2,252978, Control_c, 0, 64, 127
2,252978, Control_c, 0, 67, 71
2,252986, Note_on_c, 0, 67, 0
2,253050, Note_on_c, 0, 63, 42
2,253074, Control_c, 0, 67, 71
2,253075, Note_on_c, 0, 58, 26
2,253189, Control_c, 0, 67, 71
2,253219, Note_on_c, 0, 63, 0
2,253242, Note_on_c, 0, 64, 54
2,253362, Control_c, 0, 64, 95
2,253381, Control_c, 0, 64, 73
2,253401, Control_c, 0, 64, 59
2,253418, Note_on_c, 0, 63, 55
2,253419, Control_c, 0, 64, 29
2,253419, Control_c, 0, 67, 70
2,253426, Note_on_c, 0, 64, 0
2,253439, Control_c, 0, 64, 18
2,253458, Control_c, 0, 64, 21
2,253477, Control_c, 0, 64, 41
2,253496, Control_c, 0, 64, 58
2,253516, Control_c, 0, 64, 64
2,253535, Control_c, 0, 64, 68
2,253535, Control_c, 0, 67, 71
2,253554, Control_c, 0, 64, 72
2,253573, Control_c, 0, 64, 80
2,253593, Control_c, 0, 64, 94
2,253611, Control_c, 0, 64, 110
2,253631, Control_c, 0, 64, 127
2,253669, Control_c, 0, 67, 70
2,253787, Note_on_c, 0, 61, 59
2,253824, Note_on_c, 0, 63, 0
2,254142, Note_on_c, 0, 58, 0
2,254207, Control_c, 0, 64, 117
2,254207, Note_on_c, 0, 59, 44
2,254226, Control_c, 0, 64, 89
2,254245, Control_c, 0, 64, 71
2,254264, Control_c, 0, 64, 57
2,254268, Note_on_c, 0, 80, 80
2,254284, Control_c, 0, 64, 48
2,254302, Control_c, 0, 67, 70
2,254322, Control_c, 0, 64, 50
2,254322, Note_on_c, 0, 61, 0
2,254341, Control_c, 0, 64, 56
2,254361, Control_c, 0, 64, 62
2,254379, Control_c, 0, 64, 65
2,254399, Control_c, 0, 64, 68
2,254418, Control_c, 0, 64, 75
2,254437, Control_c, 0, 64, 88
2,254456, Control_c, 0, 64, 127
2,254512, Note_on_c, 0, 75, 0
2,254630, Note_on_c, 0, 59, 0
2,254638, Note_on_c, 0, 61, 50
2,254649, Note_on_c, 0, 64, 45
2,254974, Control_c, 0, 64, 92
2,254993, Control_c, 0, 64, 69
2,254998, Note_on_c, 0, 61, 0
2,255012, Control_c, 0, 64, 53
2,255019, Note_on_c, 0, 64, 0
2,255021, Note_on_c, 0, 63, 50
2,255032, Control_c, 0, 64, 29
2,255033, Note_on_c, 0, 59, 52
2,255051, Control_c, 0, 64, 29
2,255069, Control_c, 0, 64, 36
2,255089, Control_c, 0, 64, 55
2,255108, Control_c, 0, 64, 63
2,255127, Control_c, 0, 64, 67
2,255146, Control_c, 0, 64, 71
2,255166, Control_c, 0, 64, 79
2,255166, Control_c, 0, 67, 70
2,255185, Control_c, 0, 64, 90
2,255204, Control_c, 0, 64, 106
2,255223, Control_c, 0, 64, 127
2,255261, Control_c, 0, 67, 70
2,255374, Note_on_c, 0, 63, 0
2,255377, Control_c, 0, 67, 70
2,255389, Note_on_c, 0, 59, 0
2,255412, Note_on_c, 0, 58, 58
2,255412, Note_on_c, 0, 61, 52
2,255492, Control_c, 0, 67, 70
2,255569, Control_c, 0, 67, 70
2,255576, Note_on_c, 0, 58, 0
2,255725, Note_on_c, 0, 61, 0
2,255761, Control_c, 0, 64, 106
2,255779, Control_c, 0, 64, 75
2,255779, Note_on_c, 0, 56, 59
2,255786, Note_on_c, 0, 59, 53
2,255799, Control_c, 0, 64, 62
2,255817, Control_c, 0, 64, 46
2,255837, Control_c, 0, 64, 44
2,255837, Control_c, 0, 67, 70
2,255856, Control_c, 0, 64, 48
2,255876, Control_c, 0, 64, 58
2,255894, Control_c, 0, 64, 64
2,255914, Control_c, 0, 64, 68
2,255933, Control_c, 0, 64, 75
2,255933, Control_c, 0, 67, 70
2,255952, Control_c, 0, 64, 86
2,255971, Control_c, 0, 64, 108
2,255990, Control_c, 0, 64, 127
2,256028, Control_c, 0, 67, 70
2,256144, Control_c, 0, 67, 70
2,256149, Note_on_c, 0, 59, 0
2,256149, Note_on_c, 0, 61, 67
2,256157, Note_on_c, 0, 54, 44
2,256182, Control_c, 0, 67, 71
2,256220, Note_on_c, 0, 54, 0
2,256221, Control_c, 0, 67, 70
2,256259, Control_c, 0, 67, 70
2,256303, Note_on_c, 0, 61, 0
2,256336, Control_c, 0, 67, 70
2,256356, Control_c, 0, 67, 71
2,256432, Control_c, 0, 67, 70
2,256528, Control_c, 0, 64, 99
2,256528, Control_c, 0, 67, 71
2,256538, Note_on_c, 0, 78, 81
2,256547, Control_c, 0, 64, 74
2,256549, Note_on_c, 0, 52, 51
2,256549, Note_on_c, 0, 63, 44
2,256554, Note_on_c, 0, 56, 0
2,256567, Control_c, 0, 64, 61
2,256585, Control_c, 0, 64, 39
2,256605, Control_c, 0, 64, 36
2,256624, Control_c, 0, 64, 39
2,256624, Control_c, 0, 67, 70
2,256643, Control_c, 0, 64, 51
2,256662, Control_c, 0, 64, 61
2,256682, Control_c, 0, 64, 66
2,256701, Control_c, 0, 64, 70
2,256701, Control_c, 0, 67, 71
2,256720, Control_c, 0, 64, 77
2,256738, Control_c, 0, 64, 93
2,256758, Control_c, 0, 64, 127
2,256783, Note_on_c, 0, 80, 0
2,256835, Control_c, 0, 67, 70
2,256892, Note_on_c, 0, 52, 0
2,256912, Control_c, 0, 67, 71
2,256930, Control_c, 0, 67, 71
2,256941, Note_on_c, 0, 51, 34
2,256976, Note_on_c, 0, 63, 0
2,257026, Control_c, 0, 67, 71
2,257104, Control_c, 0, 67, 71
2,257162, Control_c, 0, 67, 72
2,257239, Control_c, 0, 67, 71
2,257296, Control_c, 0, 67, 72
2,257316, Control_c, 0, 64, 99
2,257334, Control_c, 0, 64, 73
2,257334, Note_on_c, 0, 51, 0
2,257345, Note_on_c, 0, 56, 44
2,257347, Note_on_c, 0, 49, 21
2,257354, Control_c, 0, 64, 57
2,257366, Note_on_c, 0, 76, 60
2,257373, Control_c, 0, 64, 0
2,257430, Control_c, 0, 67, 71
2,257461, Note_on_c, 0, 78, 0
2,257468, Control_c, 0, 64, 39
2,257488, Control_c, 0, 64, 55
2,257488, Control_c, 0, 67, 72
2,257507, Control_c, 0, 64, 62
2,257527, Control_c, 0, 64, 65
2,257545, Control_c, 0, 64, 67
2,257565, Control_c, 0, 64, 73
2,257584, Control_c, 0, 64, 82
2,257603, Control_c, 0, 64, 101
2,257616, Note_on_c, 0, 49, 0
2,257622, Control_c, 0, 64, 127
2,257682, Note_on_c, 0, 56, 0
2,257699, Control_c, 0, 67, 72
2,257738, Control_c, 0, 67, 73
2,257750, Note_on_c, 0, 61, 48
2,257815, Control_c, 0, 67, 72
2,257876, Note_on_c, 0, 61, 0
2,257889, Control_c, 0, 67, 73
2,257907, Note_on_c, 0, 59, 49
2,257928, Control_c, 0, 67, 73
2,258049, Note_on_c, 0, 59, 0
2,258063, Control_c, 0, 64, 82
2,258081, Control_c, 0, 64, 64
2,258101, Control_c, 0, 64, 34
2,258104, Note_on_c, 0, 61, 29
2,258112, Note_on_c, 0, 58, 35
2,258120, Control_c, 0, 64, 0
2,258197, Control_c, 0, 64, 33
2,258215, Control_c, 0, 64, 51
2,258235, Control_c, 0, 64, 60
2,258254, Control_c, 0, 64, 65
2,258274, Control_c, 0, 64, 68
2,258292, Control_c, 0, 64, 73
2,258312, Control_c, 0, 64, 81
2,258331, Control_c, 0, 64, 95
2,258350, Control_c, 0, 64, 127
2,258490, Note_on_c, 0, 58, 0
2,258498, Note_on_c, 0, 56, 45
2,258869, Control_c, 0, 64, 91
2,258874, Note_on_c, 0, 56, 0
2,258888, Control_c, 0, 64, 73
2,258907, Control_c, 0, 64, 60
2,258926, Control_c, 0, 64, 21
2,258926, Note_on_c, 0, 75, 57
2,258930, Note_on_c, 0, 55, 18
2,258946, Control_c, 0, 64, 0
2,258998, Note_on_c, 0, 76, 0
2,259041, Control_c, 0, 64, 35
2,259061, Control_c, 0, 64, 54
2,259080, Control_c, 0, 64, 62
2,259091, Note_on_c, 0, 61, 0
2,259098, Control_c, 0, 64, 65
2,259118, Control_c, 0, 64, 67
2,259137, Control_c, 0, 64, 71
2,259157, Control_c, 0, 64, 78
2,259175, Control_c, 0, 64, 90
2,259195, Control_c, 0, 64, 115
2,259214, Control_c, 0, 64, 127
2,259214, Control_c, 0, 67, 73
2,259309, Note_on_c, 0, 59, 44
2,259341, Note_on_c, 0, 56, 24
2,259617, Control_c, 0, 64, 110
2,259636, Control_c, 0, 64, 78
2,259654, Control_c, 0, 64, 64
2,259674, Control_c, 0, 64, 46
2,259683, Note_on_c, 0, 56, 0
2,259686, Note_on_c, 0, 58, 43
2,259693, Control_c, 0, 64, 38
2,259698, Note_on_c, 0, 59, 0
2,259713, Control_c, 0, 64, 39
2,259713, Control_c, 0, 67, 72
2,259731, Control_c, 0, 64, 45
2,259751, Control_c, 0, 64, 56
2,259770, Control_c, 0, 64, 63
2,259789, Control_c, 0, 64, 65
2,259808, Control_c, 0, 64, 67
2,259808, Control_c, 0, 67, 73
2,259828, Control_c, 0, 64, 71
2,259847, Control_c, 0, 64, 77
2,259866, Control_c, 0, 64, 85
2,259885, Control_c, 0, 64, 98
2,259905, Control_c, 0, 64, 115
2,259924, Control_c, 0, 64, 127
2,259924, Control_c, 0, 67, 72
2,260041, Control_c, 0, 67, 73
2,260054, Note_on_c, 0, 55, 0
2,260068, Note_on_c, 0, 54, 41
2,260098, Control_c, 0, 67, 72
2,260136, Control_c, 0, 64, 123
2,260213, Control_c, 0, 64, 121
2,260252, Control_c, 0, 64, 117
2,260271, Control_c, 0, 64, 114
2,260290, Control_c, 0, 64, 110
2,260310, Control_c, 0, 64, 106
2,260329, Control_c, 0, 64, 103
2,260348, Control_c, 0, 64, 100
2,260367, Control_c, 0, 64, 98
2,260387, Control_c, 0, 64, 96
2,260405, Control_c, 0, 64, 94
2,260425, Control_c, 0, 64, 91
2,260444, Control_c, 0, 64, 86
2,260464, Control_c, 0, 64, 81
2,260482, Control_c, 0, 64, 77
2,260487, Note_on_c, 0, 53, 33
2,260497, Note_on_c, 0, 56, 43
2,260502, Control_c, 0, 64, 73
2,260521, Control_c, 0, 64, 70
2,260533, Note_on_c, 0, 54, 0
2,260539, Control_c, 0, 64, 68
2,260559, Control_c, 0, 64, 65
2,260576, Note_on_c, 0, 58, 0
2,260577, Control_c, 0, 64, 63
2,260597, Control_c, 0, 64, 59
2,260615, Control_c, 0, 64, 56
2,260635, Control_c, 0, 64, 53
2,260654, Control_c, 0, 64, 49
2,260674, Control_c, 0, 64, 46
2,260692, Control_c, 0, 64, 44
2,260712, Control_c, 0, 64, 41
2,260731, Control_c, 0, 64, 38
2,260750, Control_c, 0, 64, 35
2,260769, Control_c, 0, 64, 32
2,260789, Control_c, 0, 64, 29
2,260808, Control_c, 0, 64, 27
2,260827, Control_c, 0, 64, 25
2,260846, Control_c, 0, 64, 23
2,260864, Note_on_c, 0, 71, 64
2,260866, Control_c, 0, 64, 21
2,260884, Control_c, 0, 64, 20
2,260904, Control_c, 0, 64, 19
2,260925, Control_c, 0, 64, 17
2,260963, Control_c, 0, 64, 15
2,260986, Note_on_c, 0, 75, 0
2,261269, Note_on_c, 0, 68, 72
2,261282, Note_on_c, 0, 71, 0
2,261309, Control_c, 0, 67, 72
2,261663, Note_on_c, 0, 58, 54
2,261678, Note_on_c, 0, 56, 0
2,261845, Control_c, 0, 64, 17
2,262067, Note_on_c, 0, 58, 0
2,262084, Note_on_c, 0, 59, 48
2,262172, Control_c, 0, 64, 18
2,262287, Control_c, 0, 64, 19
2,262325, Control_c, 0, 67, 71
2,262402, Control_c, 0, 64, 20
2,262425, Note_on_c, 0, 53, 0
2,262434, Note_on_c, 0, 59, 0
2,262444, Note_on_c, 0, 54, 35
2,262447, Note_on_c, 0, 70, 64
2,262470, Note_on_c, 0, 58, 37
2,262500, Note_on_c, 0, 68, 0
2,262536, Control_c, 0, 64, 21
2,262710, Control_c, 0, 67, 71
2,262787, Control_c, 0, 64, 22
2,262828, Note_on_c, 0, 54, 0
2,262837, Note_on_c, 0, 71, 61
2,262842, Note_on_c, 0, 53, 35
2,262846, Note_on_c, 0, 56, 48
2,262888, Note_on_c, 0, 70, 0
2,262909, Note_on_c, 0, 58, 0
2,262954, Note_on_c, 0, 56, 0
2,263208, Note_on_c, 0, 53, 0
2,263231, Note_on_c, 0, 54, 40
2,263232, Note_on_c, 0, 51, 40
2,263344, Control_c, 0, 67, 70
2,263584, Note_on_c, 0, 51, 0
2,263614, Note_on_c, 0, 50, 37
2,263635, Note_on_c, 0, 53, 42
2,263667, Note_on_c, 0, 54, 0
2,263708, Control_c, 0, 67, 70
2,264077, Note_on_c, 0, 68, 54
2,264228, Note_on_c, 0, 71, 0
2,264453, Note_on_c, 0, 65, 47
2,264459, Note_on_c, 0, 68, 0
2,264823, Note_on_c, 0, 54, 44
2,264846, Note_on_c, 0, 53, 0
2,265176, Note_on_c, 0, 54, 0
2,265210, Note_on_c, 0, 56, 39
2,265537, Note_on_c, 0, 50, 0
2,265569, Note_on_c, 0, 51, 39
2,265578, Note_on_c, 0, 54, 33
2,265578, Note_on_c, 0, 66, 51
2,265606, Note_on_c, 0, 56, 0
2,265609, Note_on_c, 0, 65, 0
2,265779, Control_c, 0, 67, 69
2,265799, Control_c, 0, 67, 69
2,265818, Control_c, 0, 67, 68
2,265856, Control_c, 0, 67, 68
2,265876, Control_c, 0, 67, 67
2,265894, Control_c, 0, 67, 65
2,265902, Note_on_c, 0, 51, 0
2,265914, Control_c, 0, 67, 52
2,265931, Note_on_c, 0, 50, 43
2,265933, Control_c, 0, 67, 40
2,265953, Control_c, 0, 67, 28
2,265971, Control_c, 0, 67, 15
2,265974, Note_on_c, 0, 54, 0
2,265985, Note_on_c, 0, 68, 59
2,265987, Note_on_c, 0, 53, 26
2,265991, Control_c, 0, 67, 0
2,266035, Note_on_c, 0, 66, 0
2,266202, Control_c, 0, 64, 23
2,266240, Control_c, 0, 64, 24
2,266292, Note_on_c, 0, 50, 0
2,266322, Note_on_c, 0, 53, 0
2,266336, Control_c, 0, 64, 25
2,266348, Note_on_c, 0, 51, 36
2,266352, Note_on_c, 0, 48, 28
2,266414, Control_c, 0, 64, 26
2,266452, Control_c, 0, 64, 27
2,266472, Control_c, 0, 64, 27
2,266510, Control_c, 0, 64, 28
2,266738, Note_on_c, 0, 51, 0
2,266761, Note_on_c, 0, 46, 31
2,266765, Note_on_c, 0, 48, 0
2,266770, Note_on_c, 0, 50, 37
2,267169, Note_on_c, 0, 65, 49
2,267360, Note_on_c, 0, 68, 0
2,267564, Note_on_c, 0, 62, 52
2,267570, Note_on_c, 0, 65, 0
2,267777, Control_c, 0, 64, 29
2,267797, Control_c, 0, 64, 31
2,267815, Control_c, 0, 64, 35
2,267835, Control_c, 0, 64, 39
2,267854, Control_c, 0, 64, 45
2,267874, Control_c, 0, 64, 51
2,267892, Control_c, 0, 64, 57
2,267904, Note_on_c, 0, 50, 0
2,267912, Control_c, 0, 64, 61
2,267928, Note_on_c, 0, 51, 49
2,267931, Control_c, 0, 64, 64
2,267950, Control_c, 0, 64, 66
2,267969, Control_c, 0, 64, 68
2,267989, Control_c, 0, 64, 72
2,268008, Control_c, 0, 64, 79
2,268027, Control_c, 0, 64, 94
2,268046, Control_c, 0, 64, 116
2,268066, Control_c, 0, 64, 127
2,268129, Note_on_c, 0, 62, 0
2,268261, Note_on_c, 0, 46, 0
2,268331, Note_on_c, 0, 51, 0
2,268340, Note_on_c, 0, 53, 45
2,268621, Control_c, 0, 64, 121
2,268640, Control_c, 0, 64, 96
2,268659, Control_c, 0, 64, 79
2,268679, Control_c, 0, 64, 67
2,268698, Control_c, 0, 64, 54
2,268701, Note_on_c, 0, 62, 58
2,268715, Note_on_c, 0, 44, 38
2,268717, Control_c, 0, 64, 29
2,268736, Control_c, 0, 64, 24
2,268774, Control_c, 0, 64, 27
2,268794, Control_c, 0, 64, 38
2,268813, Control_c, 0, 64, 48
2,268833, Control_c, 0, 64, 56
2,268841, Note_on_c, 0, 53, 0
2,268851, Control_c, 0, 64, 59
2,268871, Control_c, 0, 64, 60
2,268890, Control_c, 0, 64, 60
2,269044, Control_c, 0, 64, 58
2,269063, Control_c, 0, 64, 54
2,269082, Control_c, 0, 64, 44
2,269095, Note_on_c, 0, 63, 64
2,269099, Note_on_c, 0, 42, 47
2,269101, Control_c, 0, 64, 28
2,269116, Note_on_c, 0, 54, 54
2,269120, Control_c, 0, 64, 0
2,269128, Note_on_c, 0, 44, 0
2,269149, Note_on_c, 0, 62, 0
2,269197, Control_c, 0, 64, 13
2,269216, Control_c, 0, 64, 41
2,269236, Control_c, 0, 64, 55
2,269254, Control_c, 0, 64, 61
2,269254, Note_on_c, 0, 54, 0
2,269274, Control_c, 0, 64, 63
2,269293, Control_c, 0, 64, 64
2,269313, Control_c, 0, 64, 65
2,269331, Control_c, 0, 64, 65
2,269351, Control_c, 0, 64, 66
2,269370, Control_c, 0, 64, 68
2,269389, Control_c, 0, 64, 69
2,269408, Control_c, 0, 64, 70
2,269428, Control_c, 0, 64, 68
2,269447, Control_c, 0, 64, 62
2,269466, Control_c, 0, 64, 49
2,269470, Note_on_c, 0, 63, 0
2,269484, Note_on_c, 0, 65, 68
2,269485, Control_c, 0, 64, 15
2,269505, Control_c, 0, 64, 0
2,269507, Note_on_c, 0, 41, 52
2,269509, Note_on_c, 0, 56, 60
2,269518, Note_on_c, 0, 42, 0
2,269563, Control_c, 0, 64, 44
2,269583, Control_c, 0, 64, 59
2,269601, Control_c, 0, 64, 63
2,269620, Control_c, 0, 64, 65
2,269640, Control_c, 0, 64, 67
2,269656, Note_on_c, 0, 56, 0
2,269658, Control_c, 0, 64, 69
2,269678, Control_c, 0, 64, 73
2,269697, Control_c, 0, 64, 80
2,269717, Control_c, 0, 64, 90
2,269735, Control_c, 0, 64, 105
2,269755, Control_c, 0, 64, 127
2,269832, Control_c, 0, 64, 114
2,269851, Control_c, 0, 64, 87
2,269870, Control_c, 0, 64, 70
2,269889, Control_c, 0, 64, 57
2,269897, Note_on_c, 0, 41, 0
2,269899, Note_on_c, 0, 65, 0
2,269901, Note_on_c, 0, 66, 74
2,269909, Control_c, 0, 64, 43
2,269913, Note_on_c, 0, 39, 54
2,269914, Note_on_c, 0, 58, 56
2,269928, Control_c, 0, 64, 42
2,269947, Control_c, 0, 64, 48
2,269966, Control_c, 0, 64, 58
2,269986, Control_c, 0, 64, 64
2,270004, Control_c, 0, 64, 66
2,270024, Control_c, 0, 64, 70
2,270043, Control_c, 0, 64, 75
2,270063, Control_c, 0, 64, 85
2,270081, Control_c, 0, 64, 102
2,270100, Control_c, 0, 64, 127
2,270108, Note_on_c, 0, 66, 0
2,270139, Note_on_c, 0, 58, 0
2,270251, Control_c, 0, 64, 96
2,270271, Control_c, 0, 64, 73
2,270277, Note_on_c, 0, 49, 54
2,270282, Note_on_c, 0, 67, 71
2,270289, Control_c, 0, 64, 61
2,270297, Note_on_c, 0, 58, 58
2,270309, Control_c, 0, 64, 50
2,270328, Control_c, 0, 64, 51
2,270348, Control_c, 0, 64, 55
2,270366, Control_c, 0, 64, 62
2,270386, Control_c, 0, 64, 65
2,270405, Control_c, 0, 64, 69
2,270424, Control_c, 0, 64, 74
2,270443, Control_c, 0, 64, 83
2,270463, Control_c, 0, 64, 97
2,270464, Note_on_c, 0, 49, 0
2,270482, Control_c, 0, 64, 127
2,270513, Note_on_c, 0, 58, 0
2,270636, Control_c, 0, 64, 91
2,270655, Control_c, 0, 64, 68
2,270675, Control_c, 0, 64, 50
2,270679, Note_on_c, 0, 47, 53
2,270681, Note_on_c, 0, 68, 70
2,270682, Note_on_c, 0, 59, 69
2,270694, Control_c, 0, 64, 28
2,270732, Control_c, 0, 64, 32
2,270744, Note_on_c, 0, 67, 0
2,270752, Control_c, 0, 64, 49
2,270770, Control_c, 0, 64, 61
2,270790, Control_c, 0, 64, 65
2,270794, Note_on_c, 0, 59, 0
2,270809, Control_c, 0, 64, 69
2,270829, Control_c, 0, 64, 75
2,270841, Note_on_c, 0, 68, 0
2,270847, Control_c, 0, 64, 85
2,270867, Control_c, 0, 64, 103
2,270886, Control_c, 0, 64, 127
2,271020, Control_c, 0, 64, 96
2,271039, Control_c, 0, 64, 68
2,271043, Note_on_c, 0, 70, 80
2,271050, Note_on_c, 0, 61, 73
2,271052, Note_on_c, 0, 46, 53
2,271053, Note_on_c, 0, 47, 0
2,271058, Control_c, 0, 64, 52
2,271078, Control_c, 0, 64, 38
2,271097, Control_c, 0, 64, 39
2,271116, Control_c, 0, 64, 47
2,271133, Note_on_c, 0, 39, 0
2,271135, Control_c, 0, 64, 59
2,271156, Control_c, 0, 64, 64
2,271174, Control_c, 0, 64, 68
2,271194, Control_c, 0, 64, 75
2,271213, Control_c, 0, 64, 86
2,271233, Control_c, 0, 64, 113
2,271247, Note_on_c, 0, 61, 0
2,271251, Control_c, 0, 64, 127
2,271334, Note_on_c, 0, 70, 0
2,271405, Control_c, 0, 64, 88
2,271425, Control_c, 0, 64, 67
2,271430, Note_on_c, 0, 44, 57
2,271436, Note_on_c, 0, 71, 77
2,271444, Control_c, 0, 64, 50
2,271454, Note_on_c, 0, 63, 66
2,271459, Note_on_c, 0, 46, 0
2,271463, Control_c, 0, 64, 39
2,271482, Control_c, 0, 64, 41
2,271501, Control_c, 0, 64, 53
2,271520, Control_c, 0, 64, 63
2,271539, Control_c, 0, 64, 66
2,271559, Control_c, 0, 64, 71
2,271578, Control_c, 0, 64, 79
2,271597, Control_c, 0, 64, 95
2,271616, Control_c, 0, 64, 127
2,271657, Note_on_c, 0, 63, 0
2,271789, Control_c, 0, 64, 90
2,271808, Control_c, 0, 64, 68
2,271828, Control_c, 0, 64, 54
2,271847, Control_c, 0, 64, 44
2,271853, Note_on_c, 0, 72, 82
2,271860, Note_on_c, 0, 54, 53
2,271866, Control_c, 0, 64, 47
2,271869, Note_on_c, 0, 63, 67
2,271885, Control_c, 0, 64, 58
2,271895, Note_on_c, 0, 71, 0
2,271905, Control_c, 0, 64, 64
2,271924, Control_c, 0, 64, 69
2,271943, Control_c, 0, 64, 76
2,271962, Control_c, 0, 64, 89
2,271969, Note_on_c, 0, 63, 0
2,271981, Control_c, 0, 64, 115
2,272000, Control_c, 0, 64, 127
2,272042, Note_on_c, 0, 72, 0
2,272078, Note_on_c, 0, 54, 0
2,272211, Control_c, 0, 64, 105
2,272231, Control_c, 0, 64, 73
2,272250, Control_c, 0, 64, 57
2,272250, Note_on_c, 0, 74, 81
2,272260, Note_on_c, 0, 53, 54
2,272265, Note_on_c, 0, 65, 68
2,272269, Control_c, 0, 64, 24
2,272288, Control_c, 0, 64, 22
2,272308, Control_c, 0, 64, 31
2,272327, Control_c, 0, 64, 54
2,272340, Note_on_c, 0, 65, 0
2,272346, Control_c, 0, 64, 64
2,272365, Control_c, 0, 64, 69
2,272385, Control_c, 0, 64, 78
2,272404, Control_c, 0, 64, 98
2,272417, Note_on_c, 0, 74, 0
2,272422, Control_c, 0, 64, 127
2,272635, Control_c, 0, 64, 83
2,272646, Note_on_c, 0, 53, 0
2,272654, Control_c, 0, 64, 65
2,272674, Control_c, 0, 64, 51
2,272678, Note_on_c, 0, 75, 84
2,272685, Note_on_c, 0, 66, 74
2,272692, Control_c, 0, 64, 48
2,272700, Note_on_c, 0, 51, 45
2,272712, Control_c, 0, 64, 52
2,272731, Control_c, 0, 64, 61
2,272750, Control_c, 0, 64, 66
2,272769, Control_c, 0, 64, 73
2,272789, Control_c, 0, 64, 86
2,272805, Note_on_c, 0, 44, 0
2,272808, Control_c, 0, 64, 127
2,272879, Note_on_c, 0, 66, 0
2,273058, Note_on_c, 0, 75, 0
2,273207, Note_on_c, 0, 58, 48
2,273286, Control_c, 0, 64, 102
2,273293, Note_on_c, 0, 75, 83
2,273305, Control_c, 0, 64, 73
2,273316, Note_on_c, 0, 65, 57
2,273324, Control_c, 0, 64, 55
2,273344, Control_c, 0, 64, 0
2,273362, Note_on_c, 0, 51, 0
2,273439, Control_c, 0, 64, 15
2,273458, Control_c, 0, 64, 52
2,273478, Control_c, 0, 64, 63
2,273497, Control_c, 0, 64, 68
2,273516, Control_c, 0, 64, 75
2,273535, Control_c, 0, 64, 89
2,273555, Control_c, 0, 64, 127
2,273842, Note_on_c, 0, 71, 80
2,273938, Note_on_c, 0, 75, 0
2,274028, Note_on_c, 0, 71, 0
2,274277, Note_on_c, 0, 46, 39
2,274418, Control_c, 0, 64, 85
2,274431, Note_on_c, 0, 74, 65
2,274438, Control_c, 0, 64, 66
2,274442, Note_on_c, 0, 70, 65
2,274444, Note_on_c, 0, 58, 0
2,274444, Note_on_c, 0, 65, 0
2,274457, Control_c, 0, 64, 41
2,274476, Control_c, 0, 64, 0
2,274572, Control_c, 0, 64, 42
2,274592, Control_c, 0, 64, 59
2,274610, Control_c, 0, 64, 65
2,274630, Control_c, 0, 64, 69
2,274649, Control_c, 0, 64, 76
2,274669, Control_c, 0, 64, 88
2,274687, Control_c, 0, 64, 115
2,274707, Control_c, 0, 64, 127
2,275187, Note_on_c, 0, 74, 0
2,275259, Note_on_c, 0, 68, 59
2,275449, Note_on_c, 0, 70, 0
2,276139, Note_on_c, 0, 68, 0
2,276766, Note_on_c, 0, 67, 45
2,276766, Note_on_c, 0, 75, 50
2,276769, Note_on_c, 0, 39, 48
2,276820, Control_c, 0, 64, 91
2,276840, Control_c, 0, 64, 74
2,276859, Control_c, 0, 64, 64
2,276878, Control_c, 0, 64, 53
2,276897, Control_c, 0, 64, 45
2,276900, Note_on_c, 0, 46, 0
2,276917, Control_c, 0, 64, 43
2,276935, Control_c, 0, 64, 40
2,276955, Control_c, 0, 64, 34
2,276974, Control_c, 0, 64, 22
2,276985, Control_c, 0, 64, 0
2,277512, Control_c, 0, 64, 23
2,277530, Control_c, 0, 64, 35
2,277550, Control_c, 0, 64, 44
2,277569, Control_c, 0, 64, 49
2,277589, Control_c, 0, 64, 52
2,277607, Control_c, 0, 64, 54
2,277627, Control_c, 0, 64, 57
2,277646, Control_c, 0, 64, 59
2,277665, Control_c, 0, 64, 60
2,277684, Control_c, 0, 64, 60
2,277703, Control_c, 0, 64, 61
2,277720, Control_c, 0, 64, 62
2,277739, Control_c, 0, 64, 64
2,277758, Control_c, 0, 64, 65
2,277778, Control_c, 0, 64, 67
2,277797, Control_c, 0, 64, 69
2,277816, Control_c, 0, 64, 72
2,277834, Control_c, 0, 64, 78
2,277854, Control_c, 0, 64, 86
2,277872, Control_c, 0, 64, 96
2,277891, Control_c, 0, 64, 110
2,277911, Control_c, 0, 64, 127
2,278471, Note_on_c, 0, 67, 0
2,278596, Note_on_c, 0, 39, 0
2,278784, Note_on_c, 0, 75, 0
2,279266, Control_c, 0, 64, 118
2,279285, Control_c, 0, 64, 112
2,279304, Control_c, 0, 64, 109
2,279323, Control_c, 0, 64, 106
2,279343, Control_c, 0, 64, 105
2,279362, Control_c, 0, 64, 104
2,279381, Control_c, 0, 64, 103
2,279400, Control_c, 0, 64, 102
2,279420, Control_c, 0, 64, 101
2,279438, Control_c, 0, 64, 100
2,279457, Control_c, 0, 64, 99
2,279477, Control_c, 0, 64, 98
2,279496, Control_c, 0, 64, 97
2,279515, Control_c, 0, 64, 95
2,279534, Control_c, 0, 64, 94
2,279554, Control_c, 0, 64, 93
2,279573, Control_c, 0, 64, 92
2,279589, Control_c, 0, 64, 92
2,279609, Control_c, 0, 64, 91
2,279628, Control_c, 0, 64, 90
2,279646, Control_c, 0, 64, 89
2,279666, Control_c, 0, 64, 88
2,279685, Control_c, 0, 64, 86
2,279705, Control_c, 0, 64, 85
2,279723, Control_c, 0, 64, 84
2,279743, Control_c, 0, 64, 83
2,279763, Control_c, 0, 64, 81
2,279782, Control_c, 0, 64, 80
2,279801, Control_c, 0, 64, 79
2,279821, Control_c, 0, 64, 78
2,279840, Control_c, 0, 64, 77
2,279859, Control_c, 0, 64, 75
2,279878, Control_c, 0, 64, 73
2,279898, Control_c, 0, 64, 71
2,279916, Control_c, 0, 64, 69
2,279936, Control_c, 0, 64, 67
2,279955, Control_c, 0, 64, 66
2,279975, Control_c, 0, 64, 64
2,279993, Control_c, 0, 64, 63
2,280013, Control_c, 0, 64, 62
2,280032, Control_c, 0, 64, 62
2,280051, Control_c, 0, 64, 61
2,280091, Control_c, 0, 64, 61
2,280110, Control_c, 0, 64, 59
2,280129, Control_c, 0, 64, 58
2,280148, Control_c, 0, 64, 56
2,280167, Control_c, 0, 64, 56
2,280186, Control_c, 0, 64, 55
2,280205, Control_c, 0, 64, 55
2,280225, Control_c, 0, 64, 54
2,280244, Control_c, 0, 64, 54
2,280302, Control_c, 0, 64, 53
2,280340, Control_c, 0, 64, 53
2,280397, Control_c, 0, 64, 52
2,280647, Control_c, 0, 64, 52
2,280935, Control_c, 0, 64, 52
2,280936, End_track
0, 0, End_of_file
