0, 0, Header, 1, 2, 480
1, 0, Start_track
1, 0, Tempo, 500000
1, 0, Time_signature, 4, 2, 24, 8
1, 1, End_track
2, 0, Start_track
2, 0, Program_c, 0, 0
2, 0, Control_c, 0, 64, 127
2, 985, Note_on_c, 0, 70, 59
2, 994, Note_on_c, 0, 66, 40
2, 995, Note_on_c, 0, 63, 36
2, 1717, Note_on_c, 0, 66, 0
2, 1719, Note_on_c, 0, 63, 0
2, 2850, Note_on_c, 0, 63, 34
2, 2858, Note_on_c, 0, 66, 35
2, 2889, Control_c, 0, 64, 96
2, 2908, Control_c, 0, 64, 73
2, 2928, Control_c, 0, 64, 59
2, 2946, Control_c, 0, 64, 22
2, 2966, Control_c, 0, 64, 0
2, 3005, Control_c, 0, 64, 15
2, 3023, Control_c, 0, 64, 43
2, 3042, Control_c, 0, 64, 58
2, 3062, Control_c, 0, 64, 63
2, 3080, Control_c, 0, 64, 65
2, 3100, Control_c, 0, 64, 67
2, 3119, Control_c, 0, 64, 69
2, 3139, Control_c, 0, 64, 76
2, 3157, Control_c, 0, 64, 88
2, 3177, Control_c, 0, 64, 127
2, 3410, Note_on_c, 0, 70, 0
2, 3593, Note_on_c, 0, 66, 0
2, 3601, Note_on_c, 0, 63, 0
2, 4298, Note_on_c, 0, 70, 62
2, 4633, Note_on_c, 0, 75, 66
2, 4636, Note_on_c, 0, 70, 0
2, 4642, Note_on_c, 0, 63, 38
2, 4650, Note_on_c, 0, 66, 39
2, 4694, Control_c, 0, 64, 96
2, 4713, Control_c, 0, 64, 73
2, 4732, Control_c, 0, 64, 58
2, 4751, Control_c, 0, 64, 11
2, 4771, Control_c, 0, 64, 0
2, 4828, Control_c, 0, 64, 27
2, 4848, Control_c, 0, 64, 47
2, 4866, Control_c, 0, 64, 58
2, 4886, Control_c, 0, 64, 62
2, 4905, Control_c, 0, 64, 64
2, 4925, Control_c, 0, 64, 65
2, 4943, Control_c, 0, 64, 67
2, 4962, Control_c, 0, 64, 70
2, 4982, Control_c, 0, 64, 77
2, 5000, Control_c, 0, 64, 90
2, 5020, Control_c, 0, 64, 123
2, 5039, Control_c, 0, 64, 127
2, 5329, Note_on_c, 0, 66, 0
2, 5330, Note_on_c, 0, 63, 0
2, 5967, Note_on_c, 0, 78, 62
2, 6059, Note_on_c, 0, 75, 0
2, 6345, Control_c, 0, 64, 107
2, 6354, Note_on_c, 0, 71, 54
2, 6365, Control_c, 0, 64, 80
2, 6367, Note_on_c, 0, 68, 45
2, 6371, Note_on_c, 0, 63, 37
2, 6373, Note_on_c, 0, 78, 0
2, 6383, Control_c, 0, 64, 64
2, 6402, Control_c, 0, 64, 35
2, 6422, Control_c, 0, 64, 0
2, 6593, Control_c, 0, 64, 27
2, 6613, Control_c, 0, 64, 52
2, 6632, Control_c, 0, 64, 62
2, 6651, Control_c, 0, 64, 66
2, 6670, Control_c, 0, 64, 70
2, 6690, Control_c, 0, 64, 76
2, 6709, Control_c, 0, 64, 91
2, 6728, Control_c, 0, 64, 127
2, 7039, Note_on_c, 0, 63, 0
2, 7139, Note_on_c, 0, 68, 0
2, 7505, Note_on_c, 0, 71, 0
2, 8008, Note_on_c, 0, 71, 39
2, 8022, Note_on_c, 0, 68, 37
2, 8026, Note_on_c, 0, 63, 31
2, 8033, Control_c, 0, 64, 102
2, 8053, Control_c, 0, 64, 76
2, 8072, Control_c, 0, 64, 61
2, 8091, Control_c, 0, 64, 11
2, 8110, Control_c, 0, 64, 0
2, 8187, Control_c, 0, 64, 34
2, 8207, Control_c, 0, 64, 54
2, 8225, Control_c, 0, 64, 63
2, 8245, Control_c, 0, 64, 66
2, 8264, Control_c, 0, 64, 70
2, 8283, Control_c, 0, 64, 77
2, 8302, Control_c, 0, 64, 93
2, 8321, Control_c, 0, 64, 127
2, 8762, Note_on_c, 0, 71, 0
2, 8783, Note_on_c, 0, 63, 0
2, 8818, Note_on_c, 0, 68, 0
2, 9431, Note_on_c, 0, 75, 70
2, 9751, Note_on_c, 0, 80, 80
2, 9773, Note_on_c, 0, 71, 42
2, 9775, Note_on_c, 0, 68, 42
2, 9779, Note_on_c, 0, 63, 39
2, 9799, Control_c, 0, 64, 108
2, 9819, Control_c, 0, 64, 79
2, 9838, Control_c, 0, 64, 64
2, 9846, Note_on_c, 0, 75, 0
2, 9858, Control_c, 0, 64, 43
2, 9876, Control_c, 0, 64, 22
2, 9915, Control_c, 0, 64, 24
2, 9935, Control_c, 0, 64, 37
2, 9953, Control_c, 0, 64, 50
2, 9973, Control_c, 0, 64, 58
2, 9992, Control_c, 0, 64, 61
2, 10011, Control_c, 0, 64, 64
2, 10030, Control_c, 0, 64, 66
2, 10050, Control_c, 0, 64, 69
2, 10069, Control_c, 0, 64, 76
2, 10088, Control_c, 0, 64, 93
2, 10107, Control_c, 0, 64, 127
2, 10504, Note_on_c, 0, 71, 0
2, 10510, Note_on_c, 0, 63, 0
2, 10634, Note_on_c, 0, 68, 0
2, 11064, Note_on_c, 0, 83, 67
2, 11363, Note_on_c, 0, 80, 0
2, 11436, Note_on_c, 0, 63, 39
2, 11447, Note_on_c, 0, 68, 40
2, 11451, Note_on_c, 0, 74, 56
2, 11452, Control_c, 0, 64, 93
2, 11453, Note_on_c, 0, 65, 37
2, 11471, Control_c, 0, 64, 70
2, 11472, Note_on_c, 0, 83, 0
2, 11491, Control_c, 0, 64, 51
2, 11509, Control_c, 0, 64, 0
2, 11625, Control_c, 0, 64, 35
2, 11645, Control_c, 0, 64, 51
2, 11663, Control_c, 0, 64, 60
2, 11682, Control_c, 0, 64, 63
2, 11702, Control_c, 0, 64, 65
2, 11720, Control_c, 0, 64, 68
2, 11740, Control_c, 0, 64, 72
2, 11759, Control_c, 0, 64, 80
2, 11779, Control_c, 0, 64, 94
2, 11797, Control_c, 0, 64, 127
2, 11992, Note_on_c, 0, 63, 0
2, 12119, Note_on_c, 0, 68, 0
2, 12122, Note_on_c, 0, 65, 0
2, 13025, Control_c, 0, 64, 92
2, 13042, Note_on_c, 0, 62, 31
2, 13045, Control_c, 0, 64, 71
2, 13051, Note_on_c, 0, 65, 31
2, 13057, Note_on_c, 0, 68, 32
2, 13064, Control_c, 0, 64, 57
2, 13083, Control_c, 0, 64, 0
2, 13218, Control_c, 0, 64, 22
2, 13236, Control_c, 0, 64, 48
2, 13256, Control_c, 0, 64, 59
2, 13275, Control_c, 0, 64, 63
2, 13295, Control_c, 0, 64, 65
2, 13313, Control_c, 0, 64, 68
2, 13333, Control_c, 0, 64, 73
2, 13352, Control_c, 0, 64, 81
2, 13371, Control_c, 0, 64, 96
2, 13390, Control_c, 0, 64, 127
2, 13579, Note_on_c, 0, 74, 0
2, 13708, Note_on_c, 0, 62, 0
2, 13877, Note_on_c, 0, 65, 0
2, 14071, Note_on_c, 0, 68, 0
2, 14190, Note_on_c, 0, 77, 61
2, 14472, Note_on_c, 0, 65, 34
2, 14479, Note_on_c, 0, 62, 40
2, 14542, Control_c, 0, 64, 79
2, 14561, Control_c, 0, 64, 63
2, 14581, Control_c, 0, 64, 34
2, 14598, Note_on_c, 0, 70, 62
2, 14599, Control_c, 0, 64, 0
2, 14620, Note_on_c, 0, 77, 0
2, 14658, Control_c, 0, 64, 28
2, 14676, Control_c, 0, 64, 50
2, 14696, Control_c, 0, 64, 62
2, 14715, Control_c, 0, 64, 65
2, 14735, Control_c, 0, 64, 69
2, 14753, Control_c, 0, 64, 75
2, 14773, Control_c, 0, 64, 88
2, 14792, Control_c, 0, 64, 118
2, 14794, Note_on_c, 0, 70, 0
2, 14811, Control_c, 0, 64, 127
2, 14822, Note_on_c, 0, 68, 59
2, 14988, Note_on_c, 0, 68, 0
2, 15048, Note_on_c, 0, 70, 60
2, 15108, Note_on_c, 0, 70, 0
2, 15154, Note_on_c, 0, 68, 53
2, 15185, Note_on_c, 0, 68, 0
2, 15206, Note_on_c, 0, 70, 70
2, 15246, Note_on_c, 0, 70, 0
2, 15282, Note_on_c, 0, 68, 62
2, 15345, Note_on_c, 0, 65, 0
2, 15429, Note_on_c, 0, 68, 0
2, 15442, Note_on_c, 0, 66, 57
2, 15604, Note_on_c, 0, 68, 60
2, 15634, Note_on_c, 0, 66, 0
2, 15758, Note_on_c, 0, 68, 0
2, 15770, Note_on_c, 0, 70, 68
2, 15912, Note_on_c, 0, 63, 42
2, 15924, Control_c, 0, 64, 97
2, 15944, Control_c, 0, 64, 73
2, 15958, Note_on_c, 0, 62, 0
2, 15963, Control_c, 0, 64, 55
2, 15982, Control_c, 0, 64, 0
2, 16024, Note_on_c, 0, 70, 0
2, 16025, Note_on_c, 0, 68, 62
2, 16078, Control_c, 0, 64, 36
2, 16098, Control_c, 0, 64, 56
2, 16116, Control_c, 0, 64, 63
2, 16136, Control_c, 0, 64, 66
2, 16156, Control_c, 0, 64, 69
2, 16175, Control_c, 0, 64, 74
2, 16192, Note_on_c, 0, 68, 0
2, 16194, Control_c, 0, 64, 86
2, 16214, Control_c, 0, 64, 101
2, 16233, Control_c, 0, 64, 127
2, 16238, Note_on_c, 0, 66, 50
2, 16357, Note_on_c, 0, 66, 0
2, 16399, Note_on_c, 0, 68, 57
2, 16446, Note_on_c, 0, 68, 0
2, 16510, Note_on_c, 0, 66, 47
2, 16546, Note_on_c, 0, 66, 0
2, 16554, Note_on_c, 0, 68, 66
2, 16587, Note_on_c, 0, 68, 0
2, 16628, Note_on_c, 0, 66, 71
2, 16901, Note_on_c, 0, 63, 0
2, 17067, Note_on_c, 0, 65, 55
2, 17208, Note_on_c, 0, 66, 0
2, 17210, Note_on_c, 0, 65, 0
2, 17217, Note_on_c, 0, 63, 64
2, 17383, Note_on_c, 0, 63, 0
2, 17384, Control_c, 0, 64, 117
2, 17403, Control_c, 0, 64, 100
2, 17422, Control_c, 0, 64, 89
2, 17437, Note_on_c, 0, 78, 74
2, 17441, Control_c, 0, 64, 77
2, 17461, Control_c, 0, 64, 69
2, 17479, Control_c, 0, 64, 62
2, 17499, Control_c, 0, 64, 53
2, 17518, Control_c, 0, 64, 41
2, 17538, Control_c, 0, 64, 32
2, 17556, Control_c, 0, 64, 25
2, 17576, Control_c, 0, 64, 13
2, 17595, Control_c, 0, 64, 0
2, 17883, Control_c, 0, 64, 9
2, 17902, Control_c, 0, 64, 32
2, 17921, Control_c, 0, 64, 46
2, 17941, Control_c, 0, 64, 55
2, 17959, Control_c, 0, 64, 59
2, 17979, Control_c, 0, 64, 62
2, 17998, Control_c, 0, 64, 63
2, 18018, Control_c, 0, 64, 64
2, 18036, Control_c, 0, 64, 65
2, 18056, Control_c, 0, 64, 66
2, 18075, Control_c, 0, 64, 68
2, 18095, Control_c, 0, 64, 71
2, 18113, Control_c, 0, 64, 76
2, 18133, Control_c, 0, 64, 84
2, 18152, Control_c, 0, 64, 94
2, 18171, Control_c, 0, 64, 104
2, 18190, Control_c, 0, 64, 123
2, 18210, Control_c, 0, 64, 127
2, 18722, Note_on_c, 0, 58, 60
2, 18970, Note_on_c, 0, 78, 0
2, 19061, Note_on_c, 0, 66, 38
2, 19063, Note_on_c, 0, 54, 65
2, 19109, Note_on_c, 0, 70, 53
2, 19147, Note_on_c, 0, 78, 57
2, 19150, Control_c, 0, 64, 118
2, 19164, Note_on_c, 0, 75, 56
2, 19170, Control_c, 0, 64, 87
2, 19189, Control_c, 0, 64, 70
2, 19208, Control_c, 0, 64, 55
2, 19219, Note_on_c, 0, 58, 0
2, 19227, Control_c, 0, 64, 0
2, 19323, Control_c, 0, 64, 38
2, 19342, Control_c, 0, 64, 57
2, 19361, Control_c, 0, 64, 64
2, 19381, Control_c, 0, 64, 67
2, 19399, Control_c, 0, 64, 71
2, 19419, Control_c, 0, 64, 79
2, 19438, Control_c, 0, 64, 92
2, 19458, Control_c, 0, 64, 123
2, 19476, Control_c, 0, 64, 127
2, 19545, Note_on_c, 0, 66, 0
2, 20458, Note_on_c, 0, 51, 64
2, 20585, Note_on_c, 0, 70, 0
2, 20642, Note_on_c, 0, 75, 0
2, 20655, Note_on_c, 0, 78, 0
2, 20692, Note_on_c, 0, 54, 0
2, 20824, Control_c, 0, 64, 105
2, 20829, Note_on_c, 0, 46, 58
2, 20842, Control_c, 0, 64, 85
2, 20854, Note_on_c, 0, 66, 51
2, 20862, Control_c, 0, 64, 70
2, 20881, Control_c, 0, 64, 53
2, 20901, Control_c, 0, 64, 0
2, 20903, Note_on_c, 0, 70, 45
2, 20917, Note_on_c, 0, 51, 0
2, 20946, Note_on_c, 0, 73, 36
2, 20991, Note_on_c, 0, 78, 52
2, 21053, Control_c, 0, 64, 13
2, 21073, Control_c, 0, 64, 43
2, 21092, Control_c, 0, 64, 57
2, 21112, Control_c, 0, 64, 62
2, 21130, Control_c, 0, 64, 65
2, 21150, Control_c, 0, 64, 68
2, 21169, Control_c, 0, 64, 73
2, 21188, Control_c, 0, 64, 83
2, 21207, Control_c, 0, 64, 100
2, 21227, Control_c, 0, 64, 127
2, 21625, Note_on_c, 0, 46, 0
2, 22351, Note_on_c, 0, 46, 33
2, 22399, Note_on_c, 0, 49, 50
2, 22454, Control_c, 0, 64, 87
2, 22474, Control_c, 0, 64, 69
2, 22492, Control_c, 0, 64, 53
2, 22512, Control_c, 0, 64, 0
2, 22513, Note_on_c, 0, 54, 35
2, 22565, Note_on_c, 0, 58, 43
2, 22565, Note_on_c, 0, 66, 0
2, 22628, Control_c, 0, 64, 38
2, 22646, Control_c, 0, 64, 55
2, 22666, Control_c, 0, 64, 62
2, 22685, Control_c, 0, 64, 64
2, 22704, Control_c, 0, 64, 67
2, 22721, Note_on_c, 0, 46, 0
2, 22723, Control_c, 0, 64, 71
2, 22743, Control_c, 0, 64, 78
2, 22762, Control_c, 0, 64, 92
2, 22781, Control_c, 0, 64, 127
2, 22806, Note_on_c, 0, 70, 0
2, 22891, Note_on_c, 0, 58, 0
2, 22897, Note_on_c, 0, 73, 0
2, 22946, Note_on_c, 0, 78, 0
2, 23017, Note_on_c, 0, 54, 0
2, 23032, Note_on_c, 0, 49, 0
2, 23701, Note_on_c, 0, 78, 69
2, 23872, Note_on_c, 0, 76, 72
2, 23936, Note_on_c, 0, 78, 0
2, 24033, Note_on_c, 0, 76, 0
2, 24036, Note_on_c, 0, 75, 77
2, 24088, Note_on_c, 0, 46, 39
2, 24107, Note_on_c, 0, 49, 48
2, 24183, Control_c, 0, 64, 121
2, 24202, Control_c, 0, 64, 92
2, 24216, Note_on_c, 0, 54, 38
2, 24221, Control_c, 0, 64, 76
2, 24224, Note_on_c, 0, 76, 71
2, 24233, Note_on_c, 0, 75, 0
2, 24240, Control_c, 0, 64, 64
2, 24260, Control_c, 0, 64, 47
2, 24260, Note_on_c, 0, 58, 41
2, 24278, Control_c, 0, 64, 0
2, 24586, Control_c, 0, 64, 22
2, 24605, Control_c, 0, 64, 44
2, 24624, Control_c, 0, 64, 55
2, 24643, Control_c, 0, 64, 60
2, 24663, Control_c, 0, 64, 62
2, 24682, Control_c, 0, 64, 64
2, 24701, Control_c, 0, 64, 66
2, 24720, Control_c, 0, 64, 68
2, 24740, Control_c, 0, 64, 73
2, 24758, Control_c, 0, 64, 81
2, 24777, Control_c, 0, 64, 93
2, 24800, Control_c, 0, 64, 111
2, 24819, Control_c, 0, 64, 127
2, 25022, Note_on_c, 0, 46, 0
2, 25073, Note_on_c, 0, 49, 0
2, 25075, Note_on_c, 0, 58, 0
2, 25119, Note_on_c, 0, 54, 0
2, 25325, Note_on_c, 0, 76, 0
2, 25326, Note_on_c, 0, 73, 66
2, 25452, Note_on_c, 0, 73, 0
2, 25553, Note_on_c, 0, 47, 44
2, 25673, Note_on_c, 0, 51, 33
2, 25759, Control_c, 0, 64, 96
2, 25762, Note_on_c, 0, 54, 36
2, 25771, Note_on_c, 0, 63, 43
2, 25776, Note_on_c, 0, 71, 42
2, 25777, Control_c, 0, 64, 76
2, 25781, Note_on_c, 0, 75, 59
2, 25790, Note_on_c, 0, 59, 42
2, 25797, Control_c, 0, 64, 62
2, 25809, Note_on_c, 0, 66, 22
2, 25816, Control_c, 0, 64, 11
2, 25836, Control_c, 0, 64, 0
2, 25951, Control_c, 0, 64, 29
2, 25970, Control_c, 0, 64, 55
2, 25989, Control_c, 0, 64, 62
2, 26008, Control_c, 0, 64, 64
2, 26028, Control_c, 0, 64, 67
2, 26047, Control_c, 0, 64, 71
2, 26066, Control_c, 0, 64, 78
2, 26085, Control_c, 0, 64, 90
2, 26105, Control_c, 0, 64, 127
2, 26255, Note_on_c, 0, 63, 0
2, 26303, Note_on_c, 0, 59, 0
2, 26317, Note_on_c, 0, 47, 0
2, 26335, Note_on_c, 0, 51, 0
2, 26397, Note_on_c, 0, 54, 0
2, 26485, Note_on_c, 0, 66, 0
2, 26724, Note_on_c, 0, 71, 0
2, 26730, Note_on_c, 0, 75, 0
2, 27201, Note_on_c, 0, 66, 46
2, 27254, Note_on_c, 0, 71, 54
2, 27276, Control_c, 0, 64, 118
2, 27294, Control_c, 0, 64, 99
2, 27314, Control_c, 0, 64, 86
2, 27332, Control_c, 0, 64, 75
2, 27337, Note_on_c, 0, 75, 57
2, 27352, Control_c, 0, 64, 66
2, 27370, Control_c, 0, 64, 59
2, 27390, Control_c, 0, 64, 50
2, 27409, Control_c, 0, 64, 42
2, 27428, Control_c, 0, 64, 34
2, 27447, Control_c, 0, 64, 22
2, 27467, Control_c, 0, 64, 0
2, 27813, Control_c, 0, 64, 31
2, 27833, Control_c, 0, 64, 45
2, 27851, Control_c, 0, 64, 53
2, 27871, Control_c, 0, 64, 57
2, 27890, Control_c, 0, 64, 60
2, 27908, Control_c, 0, 64, 62
2, 27928, Control_c, 0, 64, 63
2, 27947, Control_c, 0, 64, 64
2, 27967, Control_c, 0, 64, 65
2, 27985, Control_c, 0, 64, 66
2, 28005, Control_c, 0, 64, 69
2, 28024, Control_c, 0, 64, 74
2, 28043, Control_c, 0, 64, 81
2, 28062, Control_c, 0, 64, 92
2, 28082, Control_c, 0, 64, 110
2, 28101, Control_c, 0, 64, 127
2, 28493, Note_on_c, 0, 71, 0
2, 28526, Note_on_c, 0, 66, 0
2, 28531, Note_on_c, 0, 54, 66
2, 28856, Note_on_c, 0, 51, 63
2, 28856, Note_on_c, 0, 75, 0
2, 28860, Note_on_c, 0, 66, 49
2, 28905, Note_on_c, 0, 71, 59
2, 28929, Control_c, 0, 64, 96
2, 28947, Control_c, 0, 64, 76
2, 28967, Control_c, 0, 64, 63
2, 28968, Note_on_c, 0, 54, 0
2, 28973, Note_on_c, 0, 75, 82
2, 28986, Control_c, 0, 64, 39
2, 29006, Control_c, 0, 64, 0
2, 29081, Control_c, 0, 64, 25
2, 29101, Control_c, 0, 64, 50
2, 29120, Control_c, 0, 64, 61
2, 29140, Control_c, 0, 64, 65
2, 29158, Control_c, 0, 64, 67
2, 29178, Control_c, 0, 64, 72
2, 29197, Control_c, 0, 64, 81
2, 29216, Control_c, 0, 64, 101
2, 29235, Control_c, 0, 64, 127
2, 29330, Note_on_c, 0, 66, 0
2, 29515, Note_on_c, 0, 71, 0
2, 29906, Note_on_c, 0, 75, 0
2, 30146, Note_on_c, 0, 47, 72
2, 30229, Note_on_c, 0, 51, 0
2, 30635, Note_on_c, 0, 43, 57
2, 30744, Note_on_c, 0, 47, 0
2, 30746, Note_on_c, 0, 70, 61
2, 30790, Control_c, 0, 64, 97
2, 30795, Note_on_c, 0, 75, 64
2, 30809, Control_c, 0, 64, 75
2, 30828, Control_c, 0, 64, 62
2, 30848, Control_c, 0, 64, 9
2, 30866, Control_c, 0, 64, 0
2, 30892, Note_on_c, 0, 82, 71
2, 31001, Control_c, 0, 64, 40
2, 31020, Control_c, 0, 64, 56
2, 31039, Control_c, 0, 64, 62
2, 31059, Control_c, 0, 64, 65
2, 31077, Control_c, 0, 64, 68
2, 31097, Control_c, 0, 64, 74
2, 31116, Control_c, 0, 64, 84
2, 31136, Control_c, 0, 64, 105
2, 31154, Control_c, 0, 64, 127
2, 31236, Note_on_c, 0, 43, 0
2, 32252, Note_on_c, 0, 43, 41
2, 32304, Control_c, 0, 64, 109
2, 32324, Control_c, 0, 64, 86
2, 32325, Note_on_c, 0, 46, 47
2, 32343, Control_c, 0, 64, 71
2, 32363, Control_c, 0, 64, 61
2, 32381, Control_c, 0, 64, 31
2, 32401, Control_c, 0, 64, 0
2, 32450, Note_on_c, 0, 51, 30
2, 32485, Note_on_c, 0, 82, 0
2, 32493, Note_on_c, 0, 55, 44
2, 32532, Control_c, 0, 64, 26
2, 32552, Control_c, 0, 64, 49
2, 32570, Control_c, 0, 64, 60
2, 32590, Control_c, 0, 64, 63
2, 32609, Control_c, 0, 64, 64
2, 32629, Control_c, 0, 64, 66
2, 32635, Note_on_c, 0, 75, 0
2, 32647, Control_c, 0, 64, 69
2, 32667, Control_c, 0, 64, 74
2, 32677, Note_on_c, 0, 43, 0
2, 32686, Control_c, 0, 64, 85
2, 32706, Control_c, 0, 64, 110
2, 32724, Control_c, 0, 64, 127
2, 32822, Note_on_c, 0, 55, 0
2, 32919, Note_on_c, 0, 51, 0
2, 33046, Note_on_c, 0, 46, 0
2, 33636, Note_on_c, 0, 75, 62
2, 33694, Note_on_c, 0, 70, 0
2, 33825, Note_on_c, 0, 73, 66
2, 33890, Note_on_c, 0, 75, 0
2, 33985, Note_on_c, 0, 71, 59
2, 33996, Note_on_c, 0, 73, 0
2, 34046, Note_on_c, 0, 43, 31
2, 34070, Note_on_c, 0, 46, 45
2, 34126, Control_c, 0, 64, 94
2, 34146, Control_c, 0, 64, 76
2, 34164, Control_c, 0, 64, 64
2, 34184, Control_c, 0, 64, 39
2, 34195, Note_on_c, 0, 73, 60
2, 34197, Note_on_c, 0, 51, 30
2, 34203, Control_c, 0, 64, 0
2, 34224, Note_on_c, 0, 55, 40
2, 34236, Note_on_c, 0, 71, 0
2, 34375, Control_c, 0, 64, 21
2, 34395, Control_c, 0, 64, 47
2, 34414, Control_c, 0, 64, 59
2, 34433, Control_c, 0, 64, 63
2, 34452, Control_c, 0, 64, 65
2, 34472, Control_c, 0, 64, 67
2, 34490, Control_c, 0, 64, 70
2, 34510, Control_c, 0, 64, 75
2, 34529, Control_c, 0, 64, 86
2, 34549, Control_c, 0, 64, 106
2, 34567, Control_c, 0, 64, 127
2, 34737, Note_on_c, 0, 55, 0
2, 34756, Note_on_c, 0, 43, 0
2, 34854, Note_on_c, 0, 46, 0
2, 35099, Note_on_c, 0, 51, 0
2, 35298, Note_on_c, 0, 70, 66
2, 35310, Note_on_c, 0, 73, 0
2, 35456, Note_on_c, 0, 44, 37
2, 35485, Note_on_c, 0, 47, 47
2, 35586, Note_on_c, 0, 51, 42
2, 35643, Control_c, 0, 64, 89
2, 35661, Note_on_c, 0, 56, 44
2, 35662, Control_c, 0, 64, 69
2, 35681, Control_c, 0, 64, 49
2, 35681, Note_on_c, 0, 70, 0
2, 35684, Note_on_c, 0, 73, 59
2, 35701, Control_c, 0, 64, 0
2, 35796, Control_c, 0, 64, 39
2, 35815, Control_c, 0, 64, 56
2, 35835, Control_c, 0, 64, 62
2, 35854, Control_c, 0, 64, 65
2, 35872, Note_on_c, 0, 73, 0
2, 35873, Control_c, 0, 64, 67
2, 35892, Control_c, 0, 64, 71
2, 35902, Note_on_c, 0, 71, 61
2, 35912, Control_c, 0, 64, 78
2, 35930, Control_c, 0, 64, 89
2, 35950, Control_c, 0, 64, 106
2, 35969, Control_c, 0, 64, 127
2, 35971, Note_on_c, 0, 71, 0
2, 36064, Note_on_c, 0, 73, 56
2, 36128, Note_on_c, 0, 73, 0
2, 36175, Note_on_c, 0, 71, 46
2, 36205, Note_on_c, 0, 71, 0
2, 36219, Note_on_c, 0, 73, 62
2, 36259, Note_on_c, 0, 73, 0
2, 36287, Note_on_c, 0, 71, 72
2, 36622, Note_on_c, 0, 71, 0
2, 36674, Note_on_c, 0, 70, 74
2, 36801, Note_on_c, 0, 70, 0
2, 36831, Note_on_c, 0, 68, 78
2, 36909, Note_on_c, 0, 68, 0
2, 37052, Note_on_c, 0, 47, 0
2, 37088, Note_on_c, 0, 44, 0
2, 37101, Note_on_c, 0, 51, 0
2, 37139, Note_on_c, 0, 56, 0
2, 37153, Note_on_c, 0, 75, 63
2, 37267, Note_on_c, 0, 80, 71
2, 37292, Note_on_c, 0, 83, 71
2, 37467, Control_c, 0, 64, 95
2, 37486, Control_c, 0, 64, 79
2, 37506, Control_c, 0, 64, 68
2, 37524, Control_c, 0, 64, 58
2, 37544, Control_c, 0, 64, 45
2, 37563, Control_c, 0, 64, 36
2, 37582, Control_c, 0, 64, 29
2, 37601, Control_c, 0, 64, 15
2, 37621, Control_c, 0, 64, 0
2, 38004, Control_c, 0, 64, 29
2, 38024, Control_c, 0, 64, 42
2, 38043, Control_c, 0, 64, 51
2, 38062, Control_c, 0, 64, 57
2, 38081, Control_c, 0, 64, 60
2, 38100, Control_c, 0, 64, 61
2, 38120, Control_c, 0, 64, 62
2, 38138, Control_c, 0, 64, 63
2, 38158, Control_c, 0, 64, 64
2, 38177, Control_c, 0, 64, 66
2, 38196, Control_c, 0, 64, 68
2, 38215, Control_c, 0, 64, 74
2, 38234, Control_c, 0, 64, 82
2, 38253, Control_c, 0, 64, 96
2, 38272, Control_c, 0, 64, 127
2, 38757, Note_on_c, 0, 71, 48
2, 38937, Note_on_c, 0, 75, 0
2, 38946, Note_on_c, 0, 80, 0
2, 38952, Note_on_c, 0, 83, 0
2, 39201, Note_on_c, 0, 68, 48
2, 39213, Control_c, 0, 64, 98
2, 39225, Note_on_c, 0, 75, 39
2, 39232, Control_c, 0, 64, 76
2, 39247, Note_on_c, 0, 80, 46
2, 39247, Note_on_c, 0, 83, 52
2, 39251, Control_c, 0, 64, 63
2, 39271, Control_c, 0, 64, 44
2, 39288, Note_on_c, 0, 71, 0
2, 39290, Control_c, 0, 64, 21
2, 39309, Control_c, 0, 64, 18
2, 39366, Control_c, 0, 64, 29
2, 39386, Control_c, 0, 64, 45
2, 39405, Control_c, 0, 64, 58
2, 39425, Control_c, 0, 64, 63
2, 39443, Control_c, 0, 64, 65
2, 39463, Control_c, 0, 64, 68
2, 39482, Control_c, 0, 64, 72
2, 39500, Control_c, 0, 64, 80
2, 39520, Control_c, 0, 64, 97
2, 39539, Control_c, 0, 64, 127
2, 39969, Note_on_c, 0, 75, 0
2, 40042, Note_on_c, 0, 80, 0
2, 40374, Note_on_c, 0, 83, 0
2, 40436, Note_on_c, 0, 65, 45
2, 40524, Note_on_c, 0, 68, 0
2, 40843, Note_on_c, 0, 62, 44
2, 40845, Control_c, 0, 64, 111
2, 40860, Note_on_c, 0, 77, 40
2, 40865, Control_c, 0, 64, 85
2, 40883, Control_c, 0, 64, 69
2, 40898, Note_on_c, 0, 65, 0
2, 40903, Control_c, 0, 64, 56
2, 40907, Note_on_c, 0, 80, 43
2, 40922, Control_c, 0, 64, 13
2, 40940, Control_c, 0, 64, 0
2, 41001, Note_on_c, 0, 83, 57
2, 41030, Note_on_c, 0, 80, 0
2, 41056, Control_c, 0, 64, 37
2, 41076, Control_c, 0, 64, 54
2, 41094, Control_c, 0, 64, 62
2, 41114, Control_c, 0, 64, 64
2, 41133, Control_c, 0, 64, 65
2, 41152, Control_c, 0, 64, 67
2, 41171, Control_c, 0, 64, 70
2, 41191, Control_c, 0, 64, 76
2, 41210, Control_c, 0, 64, 89
2, 41229, Control_c, 0, 64, 127
2, 41471, Note_on_c, 0, 77, 0
2, 41617, Note_on_c, 0, 62, 0
2, 42395, Note_on_c, 0, 62, 40
2, 42460, Control_c, 0, 64, 103
2, 42480, Control_c, 0, 64, 77
2, 42489, Note_on_c, 0, 65, 36
2, 42499, Control_c, 0, 64, 64
2, 42519, Control_c, 0, 64, 40
2, 42537, Control_c, 0, 64, 0
2, 42599, Note_on_c, 0, 70, 50
2, 42634, Control_c, 0, 64, 11
2, 42653, Control_c, 0, 64, 41
2, 42671, Control_c, 0, 64, 55
2, 42691, Control_c, 0, 64, 61
2, 42710, Control_c, 0, 64, 63
2, 42717, Note_on_c, 0, 83, 0
2, 42729, Control_c, 0, 64, 65
2, 42748, Control_c, 0, 64, 68
2, 42768, Control_c, 0, 64, 71
2, 42787, Control_c, 0, 64, 79
2, 42806, Control_c, 0, 64, 92
2, 42825, Control_c, 0, 64, 127
2, 43361, Note_on_c, 0, 70, 0
2, 43469, Note_on_c, 0, 62, 0
2, 43623, Note_on_c, 0, 82, 63
2, 43709, Note_on_c, 0, 65, 0
2, 43914, Note_on_c, 0, 80, 66
2, 43971, Note_on_c, 0, 82, 0
2, 44118, Note_on_c, 0, 78, 61
2, 44135, Note_on_c, 0, 80, 0
2, 44276, Note_on_c, 0, 62, 34
2, 44286, Control_c, 0, 64, 108
2, 44304, Control_c, 0, 64, 92
2, 44324, Control_c, 0, 64, 80
2, 44343, Control_c, 0, 64, 70
2, 44346, Note_on_c, 0, 65, 31
2, 44352, Note_on_c, 0, 77, 51
2, 44356, Note_on_c, 0, 78, 0
2, 44363, Control_c, 0, 64, 64
2, 44381, Control_c, 0, 64, 58
2, 44401, Control_c, 0, 64, 51
2, 44420, Control_c, 0, 64, 46
2, 44439, Control_c, 0, 64, 41
2, 44444, Note_on_c, 0, 70, 38
2, 44458, Control_c, 0, 64, 36
2, 44478, Control_c, 0, 64, 29
2, 44497, Control_c, 0, 64, 18
2, 44516, Control_c, 0, 64, 0
2, 44532, Note_on_c, 0, 78, 54
2, 44536, Note_on_c, 0, 77, 0
2, 44696, Note_on_c, 0, 77, 57
2, 44701, Note_on_c, 0, 78, 0
2, 44842, Control_c, 0, 64, 27
2, 44859, Note_on_c, 0, 78, 61
2, 44860, Control_c, 0, 64, 43
2, 44880, Control_c, 0, 64, 54
2, 44891, Note_on_c, 0, 77, 0
2, 44899, Control_c, 0, 64, 59
2, 44919, Control_c, 0, 64, 62
2, 44937, Control_c, 0, 64, 63
2, 44957, Control_c, 0, 64, 64
2, 44976, Control_c, 0, 64, 65
2, 44995, Control_c, 0, 64, 67
2, 45014, Control_c, 0, 64, 71
2, 45024, Note_on_c, 0, 80, 63
2, 45034, Control_c, 0, 64, 77
2, 45053, Control_c, 0, 64, 87
2, 45057, Note_on_c, 0, 78, 0
2, 45061, Note_on_c, 0, 62, 0
2, 45071, Control_c, 0, 64, 100
2, 45091, Control_c, 0, 64, 127
2, 45189, Note_on_c, 0, 65, 0
2, 45191, Note_on_c, 0, 78, 71
2, 45211, Note_on_c, 0, 80, 0
2, 45213, Note_on_c, 0, 70, 0
2, 45354, Note_on_c, 0, 80, 69
2, 45409, Note_on_c, 0, 78, 0
2, 45488, Note_on_c, 0, 80, 0
2, 45490, Note_on_c, 0, 77, 66
2, 45566, Note_on_c, 0, 63, 36
2, 45627, Control_c, 0, 64, 118
2, 45647, Control_c, 0, 64, 100
2, 45647, Note_on_c, 0, 66, 40
2, 45666, Control_c, 0, 64, 84
2, 45685, Control_c, 0, 64, 70
2, 45704, Control_c, 0, 64, 59
2, 45722, Note_on_c, 0, 70, 43
2, 45724, Control_c, 0, 64, 21
2, 45735, Note_on_c, 0, 77, 0
2, 45743, Control_c, 0, 64, 0
2, 45764, Note_on_c, 0, 80, 61
2, 45839, Control_c, 0, 64, 39
2, 45858, Control_c, 0, 64, 54
2, 45878, Control_c, 0, 64, 60
2, 45896, Control_c, 0, 64, 63
2, 45917, Control_c, 0, 64, 64
2, 45936, Control_c, 0, 64, 66
2, 45955, Control_c, 0, 64, 68
2, 45959, Note_on_c, 0, 80, 0
2, 45974, Control_c, 0, 64, 72
2, 45994, Control_c, 0, 64, 80
2, 46005, Note_on_c, 0, 78, 52
2, 46013, Control_c, 0, 64, 93
2, 46031, Control_c, 0, 64, 127
2, 46133, Note_on_c, 0, 78, 0
2, 46172, Note_on_c, 0, 80, 59
2, 46248, Note_on_c, 0, 80, 0
2, 46288, Note_on_c, 0, 78, 52
2, 46333, Note_on_c, 0, 78, 0
2, 46359, Note_on_c, 0, 80, 56
2, 46396, Note_on_c, 0, 80, 0
2, 46420, Note_on_c, 0, 78, 74
2, 46831, Note_on_c, 0, 78, 0
2, 46964, Note_on_c, 0, 77, 64
2, 47012, Note_on_c, 0, 70, 0
2, 47135, Note_on_c, 0, 75, 62
2, 47145, Note_on_c, 0, 77, 0
2, 47197, Note_on_c, 0, 75, 0
2, 47319, Control_c, 0, 64, 112
2, 47337, Control_c, 0, 64, 98
2, 47349, Note_on_c, 0, 75, 51
2, 47357, Control_c, 0, 64, 85
2, 47368, Note_on_c, 0, 70, 43
2, 47376, Control_c, 0, 64, 74
2, 47395, Control_c, 0, 64, 65
2, 47414, Control_c, 0, 64, 45
2, 47419, Note_on_c, 0, 66, 0
2, 47419, Note_on_c, 0, 78, 46
2, 47433, Control_c, 0, 64, 0
2, 47498, Note_on_c, 0, 82, 59
2, 47606, Control_c, 0, 64, 36
2, 47625, Control_c, 0, 64, 53
2, 47645, Control_c, 0, 64, 60
2, 47663, Control_c, 0, 64, 63
2, 47683, Control_c, 0, 64, 64
2, 47702, Control_c, 0, 64, 66
2, 47722, Control_c, 0, 64, 69
2, 47740, Control_c, 0, 64, 73
2, 47760, Control_c, 0, 64, 83
2, 47779, Control_c, 0, 64, 97
2, 47799, Control_c, 0, 64, 127
2, 48092, Note_on_c, 0, 63, 0
2, 48608, Note_on_c, 0, 70, 0
2, 48760, Note_on_c, 0, 66, 60
2, 48829, Note_on_c, 0, 75, 0
2, 48891, Note_on_c, 0, 78, 0
2, 48938, Note_on_c, 0, 82, 0
2, 49126, Note_on_c, 0, 63, 53
2, 49153, Note_on_c, 0, 73, 45
2, 49198, Note_on_c, 0, 75, 53
2, 49199, Control_c, 0, 64, 109
2, 49212, Note_on_c, 0, 78, 52
2, 49218, Control_c, 0, 64, 81
2, 49238, Control_c, 0, 64, 66
2, 49256, Control_c, 0, 64, 48
2, 49264, Note_on_c, 0, 66, 0
2, 49276, Control_c, 0, 64, 0
2, 49292, Note_on_c, 0, 82, 74
2, 49372, Control_c, 0, 64, 37
2, 49390, Control_c, 0, 64, 54
2, 49411, Control_c, 0, 64, 60
2, 49430, Control_c, 0, 64, 63
2, 49449, Control_c, 0, 64, 64
2, 49468, Control_c, 0, 64, 66
2, 49488, Control_c, 0, 64, 70
2, 49507, Control_c, 0, 64, 78
2, 49526, Control_c, 0, 64, 94
2, 49545, Control_c, 0, 64, 127
2, 49795, Note_on_c, 0, 73, 0
2, 50513, Note_on_c, 0, 75, 0
2, 50553, Note_on_c, 0, 82, 0
2, 50560, Note_on_c, 0, 78, 0
2, 50561, Note_on_c, 0, 60, 57
2, 50681, Note_on_c, 0, 63, 0
2, 51068, Note_on_c, 0, 57, 42
2, 51100, Control_c, 0, 64, 106
2, 51119, Note_on_c, 0, 72, 51
2, 51120, Control_c, 0, 64, 81
2, 51139, Control_c, 0, 64, 65
2, 51153, Note_on_c, 0, 60, 0
2, 51159, Control_c, 0, 64, 46
2, 51177, Control_c, 0, 64, 0
2, 51188, Note_on_c, 0, 78, 50
2, 51190, Note_on_c, 0, 75, 41
2, 51253, Note_on_c, 0, 84, 58
2, 51331, Control_c, 0, 64, 17
2, 51350, Control_c, 0, 64, 45
2, 51369, Control_c, 0, 64, 57
2, 51388, Control_c, 0, 64, 62
2, 51408, Control_c, 0, 64, 64
2, 51427, Control_c, 0, 64, 66
2, 51446, Control_c, 0, 64, 68
2, 51465, Control_c, 0, 64, 73
2, 51485, Control_c, 0, 64, 85
2, 51503, Control_c, 0, 64, 110
2, 51523, Control_c, 0, 64, 127
2, 51775, Note_on_c, 0, 57, 0
2, 52658, Note_on_c, 0, 57, 36
2, 52749, Note_on_c, 0, 60, 34
2, 52750, Control_c, 0, 64, 89
2, 52770, Control_c, 0, 64, 71
2, 52789, Control_c, 0, 64, 54
2, 52809, Control_c, 0, 64, 0
2, 52837, Note_on_c, 0, 84, 0
2, 52839, Note_on_c, 0, 65, 42
2, 52943, Control_c, 0, 64, 15
2, 52962, Control_c, 0, 64, 44
2, 52974, Note_on_c, 0, 78, 0
2, 52981, Control_c, 0, 64, 58
2, 53001, Control_c, 0, 64, 63
2, 53019, Control_c, 0, 64, 65
2, 53039, Control_c, 0, 64, 67
2, 53058, Control_c, 0, 64, 70
2, 53078, Control_c, 0, 64, 76
2, 53096, Control_c, 0, 64, 88
2, 53116, Control_c, 0, 64, 112
2, 53135, Control_c, 0, 64, 127
2, 53182, Note_on_c, 0, 75, 0
2, 53316, Note_on_c, 0, 72, 0
2, 53437, Note_on_c, 0, 57, 0
2, 53543, Note_on_c, 0, 65, 0
2, 53583, Note_on_c, 0, 60, 0
2, 53934, Note_on_c, 0, 77, 53
2, 54159, Note_on_c, 0, 75, 61
2, 54200, Note_on_c, 0, 77, 0
2, 54358, Note_on_c, 0, 73, 51
2, 54379, Note_on_c, 0, 75, 0
2, 54409, Note_on_c, 0, 57, 32
2, 54459, Control_c, 0, 64, 115
2, 54479, Control_c, 0, 64, 101
2, 54486, Note_on_c, 0, 60, 36
2, 54498, Control_c, 0, 64, 89
2, 54518, Control_c, 0, 64, 79
2, 54536, Control_c, 0, 64, 71
2, 54552, Note_on_c, 0, 73, 0
2, 54553, Note_on_c, 0, 72, 50
2, 54556, Control_c, 0, 64, 65
2, 54575, Control_c, 0, 64, 58
2, 54586, Note_on_c, 0, 65, 30
2, 54593, Control_c, 0, 64, 51
2, 54613, Control_c, 0, 64, 46
2, 54632, Control_c, 0, 64, 42
2, 54652, Control_c, 0, 64, 37
2, 54670, Control_c, 0, 64, 32
2, 54690, Control_c, 0, 64, 26
2, 54709, Control_c, 0, 64, 19
2, 54727, Note_on_c, 0, 73, 52
2, 54729, Control_c, 0, 64, 15
2, 54733, Note_on_c, 0, 72, 0
2, 54747, Control_c, 0, 64, 11
2, 54767, Control_c, 0, 64, 0
2, 54910, Note_on_c, 0, 72, 54
2, 54938, Note_on_c, 0, 73, 0
2, 55081, Note_on_c, 0, 73, 62
2, 55085, Note_on_c, 0, 72, 0
2, 55247, Note_on_c, 0, 75, 61
2, 55278, Note_on_c, 0, 73, 0
2, 55285, Control_c, 0, 64, 13
2, 55304, Control_c, 0, 64, 28
2, 55324, Control_c, 0, 64, 37
2, 55343, Control_c, 0, 64, 45
2, 55362, Control_c, 0, 64, 51
2, 55381, Control_c, 0, 64, 56
2, 55401, Control_c, 0, 64, 59
2, 55412, Note_on_c, 0, 57, 0
2, 55415, Note_on_c, 0, 73, 59
2, 55419, Control_c, 0, 64, 61
2, 55430, Note_on_c, 0, 75, 0
2, 55439, Control_c, 0, 64, 62
2, 55458, Control_c, 0, 64, 64
2, 55478, Control_c, 0, 64, 66
2, 55496, Control_c, 0, 64, 69
2, 55501, Note_on_c, 0, 60, 0
2, 55518, Control_c, 0, 64, 74
2, 55537, Control_c, 0, 64, 86
2, 55556, Control_c, 0, 64, 97
2, 55575, Control_c, 0, 64, 107
2, 55586, Note_on_c, 0, 75, 62
2, 55594, Control_c, 0, 64, 112
2, 55614, Control_c, 0, 64, 114
2, 55620, Note_on_c, 0, 73, 0
2, 55657, Note_on_c, 0, 65, 0
2, 55753, Note_on_c, 0, 75, 0
2, 55761, Note_on_c, 0, 72, 55
2, 55767, Control_c, 0, 64, 113
2, 55786, Control_c, 0, 64, 112
2, 55806, Control_c, 0, 64, 111
2, 55824, Control_c, 0, 64, 110
2, 55836, Note_on_c, 0, 58, 39
2, 55844, Control_c, 0, 64, 110
2, 55883, Control_c, 0, 64, 109
2, 55901, Control_c, 0, 64, 108
2, 55919, Note_on_c, 0, 61, 43
2, 55921, Control_c, 0, 64, 104
2, 55940, Control_c, 0, 64, 94
2, 55959, Control_c, 0, 64, 78
2, 55971, Note_on_c, 0, 72, 0
2, 55974, Note_on_c, 0, 65, 39
2, 55978, Control_c, 0, 64, 67
2, 55998, Control_c, 0, 64, 57
2, 56013, Note_on_c, 0, 75, 57
2, 56017, Control_c, 0, 64, 42
2, 56036, Control_c, 0, 64, 38
2, 56074, Control_c, 0, 64, 42
2, 56094, Control_c, 0, 64, 53
2, 56112, Control_c, 0, 64, 59
2, 56131, Control_c, 0, 64, 62
2, 56150, Control_c, 0, 64, 63
2, 56169, Control_c, 0, 64, 65
2, 56177, Note_on_c, 0, 75, 0
2, 56188, Control_c, 0, 64, 66
2, 56208, Control_c, 0, 64, 69
2, 56222, Note_on_c, 0, 73, 48
2, 56227, Control_c, 0, 64, 75
2, 56246, Control_c, 0, 64, 85
2, 56265, Control_c, 0, 64, 99
2, 56285, Control_c, 0, 64, 115
2, 56296, Note_on_c, 0, 73, 0
2, 56303, Control_c, 0, 64, 127
2, 56349, Note_on_c, 0, 75, 54
2, 56408, Note_on_c, 0, 75, 0
2, 56453, Note_on_c, 0, 73, 47
2, 56492, Note_on_c, 0, 73, 0
2, 56525, Note_on_c, 0, 75, 51
2, 56553, Note_on_c, 0, 75, 0
2, 56591, Note_on_c, 0, 73, 61
2, 57012, Note_on_c, 0, 73, 0
2, 57139, Note_on_c, 0, 72, 64
2, 57143, Note_on_c, 0, 58, 0
2, 57199, Note_on_c, 0, 65, 0
2, 57233, Note_on_c, 0, 61, 0
2, 57310, Note_on_c, 0, 70, 68
2, 57317, Note_on_c, 0, 72, 0
2, 57402, Note_on_c, 0, 70, 0
2, 57427, Note_on_c, 0, 58, 36
2, 57473, Control_c, 0, 64, 119
2, 57493, Control_c, 0, 64, 112
2, 57512, Control_c, 0, 64, 105
2, 57532, Control_c, 0, 64, 99
2, 57542, Note_on_c, 0, 61, 38
2, 57550, Control_c, 0, 64, 89
2, 57569, Note_on_c, 0, 70, 51
2, 57570, Control_c, 0, 64, 78
2, 57575, Note_on_c, 0, 65, 35
2, 57589, Control_c, 0, 64, 67
2, 57609, Control_c, 0, 64, 55
2, 57612, Note_on_c, 0, 73, 51
2, 57627, Control_c, 0, 64, 26
2, 57647, Control_c, 0, 64, 0
2, 57729, Note_on_c, 0, 77, 59
2, 57781, Control_c, 0, 64, 32
2, 57801, Control_c, 0, 64, 49
2, 57817, Note_on_c, 0, 73, 0
2, 57819, Control_c, 0, 64, 58
2, 57839, Control_c, 0, 64, 61
2, 57858, Control_c, 0, 64, 63
2, 57878, Control_c, 0, 64, 64
2, 57896, Control_c, 0, 64, 66
2, 57915, Control_c, 0, 64, 68
2, 57935, Control_c, 0, 64, 71
2, 57953, Control_c, 0, 64, 77
2, 57959, Note_on_c, 0, 70, 0
2, 57973, Control_c, 0, 64, 86
2, 57992, Control_c, 0, 64, 96
2, 58012, Control_c, 0, 64, 111
2, 58030, Control_c, 0, 64, 127
2, 58780, Note_on_c, 0, 78, 57
2, 58838, Note_on_c, 0, 77, 0
2, 58845, Note_on_c, 0, 58, 0
2, 58921, Note_on_c, 0, 65, 0
2, 58967, Note_on_c, 0, 77, 77
2, 58985, Note_on_c, 0, 61, 0
2, 59068, Note_on_c, 0, 78, 0
2, 59142, Note_on_c, 0, 75, 72
2, 59227, Note_on_c, 0, 77, 0
2, 59283, Note_on_c, 0, 58, 39
2, 59323, Note_on_c, 0, 73, 71
2, 59337, Control_c, 0, 64, 110
2, 59357, Control_c, 0, 64, 89
2, 59371, Note_on_c, 0, 61, 36
2, 59372, Note_on_c, 0, 75, 0
2, 59376, Control_c, 0, 64, 76
2, 59394, Control_c, 0, 64, 66
2, 59414, Control_c, 0, 64, 61
2, 59433, Control_c, 0, 64, 55
2, 59453, Control_c, 0, 64, 50
2, 59468, Note_on_c, 0, 65, 37
2, 59471, Control_c, 0, 64, 46
2, 59491, Control_c, 0, 64, 41
2, 59492, Note_on_c, 0, 72, 66
2, 59493, Note_on_c, 0, 73, 0
2, 59510, Control_c, 0, 64, 33
2, 59529, Control_c, 0, 64, 21
2, 59548, Control_c, 0, 64, 0
2, 59682, Note_on_c, 0, 70, 67
2, 59682, Note_on_c, 0, 72, 0
2, 59867, Note_on_c, 0, 68, 62
2, 59913, Note_on_c, 0, 70, 0
2, 60062, Note_on_c, 0, 66, 55
2, 60069, Note_on_c, 0, 68, 0
2, 60078, Note_on_c, 0, 65, 0
2, 60317, Control_c, 0, 64, 25
2, 60336, Control_c, 0, 64, 40
2, 60354, Control_c, 0, 64, 53
2, 60374, Control_c, 0, 64, 59
2, 60393, Control_c, 0, 64, 62
2, 60413, Control_c, 0, 64, 63
2, 60431, Control_c, 0, 64, 65
2, 60451, Control_c, 0, 64, 67
2, 60468, Note_on_c, 0, 61, 0
2, 60470, Control_c, 0, 64, 70
2, 60479, Note_on_c, 0, 58, 0
2, 60482, Note_on_c, 0, 68, 51
2, 60489, Control_c, 0, 64, 75
2, 60508, Control_c, 0, 64, 83
2, 60528, Control_c, 0, 64, 91
2, 60547, Control_c, 0, 64, 97
2, 60558, Note_on_c, 0, 66, 0
2, 60566, Control_c, 0, 64, 99
2, 60585, Control_c, 0, 64, 100
2, 60608, Note_on_c, 0, 68, 0
2, 60646, Note_on_c, 0, 65, 47
2, 60682, Control_c, 0, 64, 99
2, 60700, Control_c, 0, 64, 98
2, 60720, Control_c, 0, 64, 97
2, 60739, Control_c, 0, 64, 96
2, 60759, Control_c, 0, 64, 95
2, 60777, Control_c, 0, 64, 94
2, 60797, Control_c, 0, 64, 92
2, 60816, Control_c, 0, 64, 91
2, 60816, Note_on_c, 0, 51, 39
2, 60834, Control_c, 0, 64, 88
2, 60854, Control_c, 0, 64, 84
2, 60873, Control_c, 0, 64, 78
2, 60893, Control_c, 0, 64, 70
2, 60903, Note_on_c, 0, 65, 0
2, 60909, Note_on_c, 0, 58, 24
2, 60911, Control_c, 0, 64, 65
2, 60929, Control_c, 0, 64, 60
2, 60929, Note_on_c, 0, 63, 33
2, 60948, Control_c, 0, 64, 52
2, 60953, Note_on_c, 0, 66, 47
2, 60968, Control_c, 0, 64, 41
2, 60973, Note_on_c, 0, 61, 34
2, 60986, Control_c, 0, 64, 31
2, 61006, Control_c, 0, 64, 19
2, 61025, Control_c, 0, 64, 0
2, 61103, Note_on_c, 0, 63, 0
2, 61198, Control_c, 0, 64, 9
2, 61217, Control_c, 0, 64, 37
2, 61237, Control_c, 0, 64, 53
2, 61255, Control_c, 0, 64, 59
2, 61275, Control_c, 0, 64, 62
2, 61295, Control_c, 0, 64, 63
2, 61313, Control_c, 0, 64, 64
2, 61333, Control_c, 0, 64, 65
2, 61352, Control_c, 0, 64, 67
2, 61372, Control_c, 0, 64, 71
2, 61390, Control_c, 0, 64, 76
2, 61410, Control_c, 0, 64, 86
2, 61429, Control_c, 0, 64, 101
2, 61449, Control_c, 0, 64, 127
2, 61651, Note_on_c, 0, 66, 0
2, 62099, Note_on_c, 0, 58, 0
2, 62172, Note_on_c, 0, 51, 0
2, 62229, Note_on_c, 0, 70, 53
2, 62243, Note_on_c, 0, 61, 0
2, 62401, Note_on_c, 0, 73, 55
2, 62510, Note_on_c, 0, 51, 37
2, 62510, Note_on_c, 0, 70, 0
2, 62580, Control_c, 0, 64, 103
2, 62585, Note_on_c, 0, 58, 36
2, 62600, Control_c, 0, 64, 85
2, 62619, Control_c, 0, 64, 72
2, 62638, Control_c, 0, 64, 64
2, 62643, Note_on_c, 0, 78, 57
2, 62657, Control_c, 0, 64, 51
2, 62676, Control_c, 0, 64, 32
2, 62682, Note_on_c, 0, 60, 35
2, 62694, Note_on_c, 0, 73, 0
2, 62695, Control_c, 0, 64, 0
2, 62907, Control_c, 0, 64, 34
2, 62927, Control_c, 0, 64, 48
2, 62946, Control_c, 0, 64, 57
2, 62965, Control_c, 0, 64, 62
2, 62984, Control_c, 0, 64, 63
2, 63004, Control_c, 0, 64, 65
2, 63023, Control_c, 0, 64, 66
2, 63042, Control_c, 0, 64, 67
2, 63061, Control_c, 0, 64, 70
2, 63081, Control_c, 0, 64, 75
2, 63099, Control_c, 0, 64, 84
2, 63119, Control_c, 0, 64, 95
2, 63138, Control_c, 0, 64, 111
2, 63158, Control_c, 0, 64, 127
2, 63510, Note_on_c, 0, 60, 0
2, 63712, Note_on_c, 0, 51, 0
2, 63788, Note_on_c, 0, 58, 0
2, 63799, Note_on_c, 0, 77, 61
2, 63833, Note_on_c, 0, 78, 0
2, 64011, Note_on_c, 0, 75, 63
2, 64076, Note_on_c, 0, 77, 0
2, 64179, Note_on_c, 0, 73, 59
2, 64204, Note_on_c, 0, 75, 0
2, 64234, Note_on_c, 0, 51, 32
2, 64290, Control_c, 0, 64, 110
2, 64307, Note_on_c, 0, 58, 33
2, 64309, Control_c, 0, 64, 101
2, 64329, Control_c, 0, 64, 91
2, 64347, Control_c, 0, 64, 83
2, 64367, Control_c, 0, 64, 74
2, 64386, Control_c, 0, 64, 68
2, 64405, Control_c, 0, 64, 63
2, 64418, Note_on_c, 0, 60, 38
2, 64424, Control_c, 0, 64, 57
2, 64438, Note_on_c, 0, 73, 0
2, 64439, Note_on_c, 0, 72, 56
2, 64444, Control_c, 0, 64, 51
2, 64463, Control_c, 0, 64, 44
2, 64482, Control_c, 0, 64, 38
2, 64501, Control_c, 0, 64, 31
2, 64521, Control_c, 0, 64, 21
2, 64539, Control_c, 0, 64, 9
2, 64559, Control_c, 0, 64, 0
2, 65042, Note_on_c, 0, 72, 0
2, 65054, Note_on_c, 0, 75, 54
2, 65136, Note_on_c, 0, 73, 58
2, 65177, Note_on_c, 0, 75, 0
2, 65214, Note_on_c, 0, 72, 56
2, 65242, Note_on_c, 0, 73, 0
2, 65449, Note_on_c, 0, 73, 58
2, 65459, Note_on_c, 0, 72, 0
2, 65481, Control_c, 0, 64, 9
2, 65499, Control_c, 0, 64, 36
2, 65519, Control_c, 0, 64, 50
2, 65538, Control_c, 0, 64, 58
2, 65558, Control_c, 0, 64, 61
2, 65576, Control_c, 0, 64, 64
2, 65595, Control_c, 0, 64, 67
2, 65615, Control_c, 0, 64, 73
2, 65633, Control_c, 0, 64, 86
2, 65653, Control_c, 0, 64, 115
2, 65672, Control_c, 0, 64, 127
2, 65684, Note_on_c, 0, 75, 68
2, 65699, Note_on_c, 0, 51, 0
2, 65710, Note_on_c, 0, 73, 0
2, 65714, Note_on_c, 0, 58, 0
2, 65752, Note_on_c, 0, 60, 0
2, 66113, Note_on_c, 0, 51, 35
2, 66113, Note_on_c, 0, 57, 40
2, 66133, Control_c, 0, 64, 118
2, 66135, Note_on_c, 0, 60, 31
2, 66152, Control_c, 0, 64, 103
2, 66172, Control_c, 0, 64, 89
2, 66176, Note_on_c, 0, 65, 64
2, 66190, Control_c, 0, 64, 77
2, 66210, Control_c, 0, 64, 68
2, 66229, Control_c, 0, 64, 61
2, 66249, Control_c, 0, 64, 48
2, 66267, Control_c, 0, 64, 34
2, 66287, Control_c, 0, 64, 25
2, 66306, Control_c, 0, 64, 18
2, 66325, Control_c, 0, 64, 9
2, 66344, Control_c, 0, 64, 0
2, 66365, Note_on_c, 0, 75, 0
2, 66798, Note_on_c, 0, 67, 56
2, 66819, Note_on_c, 0, 65, 0
2, 67007, Note_on_c, 0, 69, 62
2, 67011, Note_on_c, 0, 67, 0
2, 67227, Control_c, 0, 64, 27
2, 67239, Note_on_c, 0, 69, 0
2, 67247, Control_c, 0, 64, 39
2, 67254, Note_on_c, 0, 70, 57
2, 67266, Control_c, 0, 64, 49
2, 67285, Control_c, 0, 64, 55
2, 67304, Control_c, 0, 64, 58
2, 67324, Control_c, 0, 64, 60
2, 67343, Control_c, 0, 64, 62
2, 67362, Control_c, 0, 64, 64
2, 67381, Control_c, 0, 64, 66
2, 67387, Note_on_c, 0, 70, 0
2, 67401, Control_c, 0, 64, 69
2, 67419, Control_c, 0, 64, 74
2, 67422, Note_on_c, 0, 69, 53
2, 67439, Control_c, 0, 64, 83
2, 67458, Control_c, 0, 64, 95
2, 67477, Control_c, 0, 64, 113
2, 67486, Note_on_c, 0, 69, 0
2, 67496, Control_c, 0, 64, 127
2, 67529, Note_on_c, 0, 70, 67
2, 67577, Note_on_c, 0, 70, 0
2, 67612, Note_on_c, 0, 69, 60
2, 67642, Note_on_c, 0, 60, 0
2, 67652, Note_on_c, 0, 69, 0
2, 67701, Note_on_c, 0, 70, 65
2, 67721, Note_on_c, 0, 57, 0
2, 67731, Note_on_c, 0, 70, 0
2, 67761, Note_on_c, 0, 69, 62
2, 67763, Note_on_c, 0, 51, 0
2, 67843, Note_on_c, 0, 69, 0
2, 67863, Note_on_c, 0, 67, 59
2, 67950, Note_on_c, 0, 67, 0
2, 67961, Note_on_c, 0, 69, 71
2, 68138, Note_on_c, 0, 49, 48
2, 68143, Note_on_c, 0, 58, 43
2, 68145, Note_on_c, 0, 53, 46
2, 68148, Control_c, 0, 64, 95
2, 68168, Control_c, 0, 64, 80
2, 68185, Note_on_c, 0, 70, 80
2, 68186, Control_c, 0, 64, 68
2, 68200, Note_on_c, 0, 69, 0
2, 68206, Control_c, 0, 64, 59
2, 68225, Control_c, 0, 64, 41
2, 68244, Control_c, 0, 64, 9
2, 68263, Control_c, 0, 64, 0
2, 68494, Control_c, 0, 64, 32
2, 68513, Control_c, 0, 64, 46
2, 68532, Control_c, 0, 64, 55
2, 68551, Control_c, 0, 64, 60
2, 68571, Control_c, 0, 64, 63
2, 68589, Control_c, 0, 64, 64
2, 68608, Control_c, 0, 64, 66
2, 68627, Control_c, 0, 64, 69
2, 68647, Control_c, 0, 64, 72
2, 68665, Control_c, 0, 64, 79
2, 68685, Control_c, 0, 64, 89
2, 68704, Control_c, 0, 64, 104
2, 68724, Control_c, 0, 64, 127
2, 69377, Note_on_c, 0, 58, 0
2, 69450, Note_on_c, 0, 65, 71
2, 69925, Note_on_c, 0, 51, 41
2, 69940, Note_on_c, 0, 58, 30
2, 69984, Note_on_c, 0, 53, 0
2, 69999, Note_on_c, 0, 66, 72
2, 70011, Control_c, 0, 64, 115
2, 70029, Control_c, 0, 64, 90
2, 70049, Control_c, 0, 64, 75
2, 70060, Note_on_c, 0, 65, 0
2, 70063, Note_on_c, 0, 49, 0
2, 70068, Control_c, 0, 64, 65
2, 70088, Control_c, 0, 64, 54
2, 70106, Control_c, 0, 64, 36
2, 70126, Control_c, 0, 64, 23
2, 70145, Control_c, 0, 64, 9
2, 70164, Control_c, 0, 64, 0
2, 71164, Note_on_c, 0, 63, 63
2, 71279, Note_on_c, 0, 66, 0
2, 71339, Note_on_c, 0, 58, 0
2, 71604, Control_c, 0, 64, 9
2, 71623, Control_c, 0, 64, 13
2, 71628, Note_on_c, 0, 53, 39
2, 71641, Note_on_c, 0, 60, 58
2, 71643, Control_c, 0, 64, 17
2, 71681, Control_c, 0, 64, 18
2, 71714, Note_on_c, 0, 63, 0
2, 71733, Note_on_c, 0, 51, 0
2, 71739, Control_c, 0, 64, 19
2, 71757, Control_c, 0, 64, 20
2, 71777, Control_c, 0, 64, 22
2, 71796, Control_c, 0, 64, 24
2, 71815, Control_c, 0, 64, 26
2, 71834, Control_c, 0, 64, 28
2, 71854, Control_c, 0, 64, 30
2, 71873, Control_c, 0, 64, 34
2, 71892, Control_c, 0, 64, 40
2, 71911, Control_c, 0, 64, 47
2, 71931, Control_c, 0, 64, 53
2, 71949, Control_c, 0, 64, 56
2, 71969, Control_c, 0, 64, 58
2, 71988, Control_c, 0, 64, 60
2, 72008, Control_c, 0, 64, 61
2, 72026, Control_c, 0, 64, 62
2, 72046, Control_c, 0, 64, 63
2, 72065, Control_c, 0, 64, 65
2, 72084, Control_c, 0, 64, 66
2, 72103, Control_c, 0, 64, 67
2, 72123, Control_c, 0, 64, 70
2, 72142, Control_c, 0, 64, 73
2, 72161, Control_c, 0, 64, 77
2, 72180, Control_c, 0, 64, 83
2, 72200, Control_c, 0, 64, 89
2, 72219, Control_c, 0, 64, 96
2, 72237, Control_c, 0, 64, 105
2, 72257, Control_c, 0, 64, 121
2, 72276, Control_c, 0, 64, 127
2, 72774, Note_on_c, 0, 60, 0
2, 72785, Note_on_c, 0, 61, 58
2, 73001, Note_on_c, 0, 60, 54
2, 73022, Note_on_c, 0, 61, 0
2, 73033, Note_on_c, 0, 53, 0
2, 73173, Note_on_c, 0, 61, 60
2, 73332, Note_on_c, 0, 60, 0
2, 73378, Note_on_c, 0, 41, 48
2, 73382, Note_on_c, 0, 63, 63
2, 73389, Control_c, 0, 64, 102
2, 73394, Note_on_c, 0, 53, 35
2, 73409, Control_c, 0, 64, 82
2, 73420, Note_on_c, 0, 61, 0
2, 73428, Control_c, 0, 64, 72
2, 73434, Note_on_c, 0, 70, 0
2, 73448, Control_c, 0, 64, 65
2, 73466, Control_c, 0, 64, 59
2, 73486, Control_c, 0, 64, 49
2, 73505, Control_c, 0, 64, 38
2, 73524, Control_c, 0, 64, 27
2, 73543, Control_c, 0, 64, 0
2, 73578, Note_on_c, 0, 61, 59
2, 73624, Note_on_c, 0, 63, 0
2, 73769, Note_on_c, 0, 60, 62
2, 73783, Note_on_c, 0, 61, 0
2, 73945, Note_on_c, 0, 61, 60
2, 74013, Note_on_c, 0, 60, 0
2, 74135, Note_on_c, 0, 63, 67
2, 74158, Control_c, 0, 64, 28
2, 74178, Control_c, 0, 64, 45
2, 74184, Note_on_c, 0, 61, 0
2, 74197, Control_c, 0, 64, 55
2, 74216, Control_c, 0, 64, 59
2, 74235, Control_c, 0, 64, 62
2, 74255, Control_c, 0, 64, 63
2, 74273, Control_c, 0, 64, 64
2, 74293, Control_c, 0, 64, 66
2, 74312, Control_c, 0, 64, 68
2, 74329, Note_on_c, 0, 65, 64
2, 74332, Control_c, 0, 64, 72
2, 74350, Control_c, 0, 64, 79
2, 74370, Control_c, 0, 64, 92
2, 74373, Note_on_c, 0, 63, 0
2, 74377, Note_on_c, 0, 41, 0
2, 74389, Control_c, 0, 64, 106
2, 74395, Note_on_c, 0, 53, 0
2, 74409, Control_c, 0, 64, 127
2, 74520, Note_on_c, 0, 63, 73
2, 74562, Note_on_c, 0, 65, 0
2, 74703, Note_on_c, 0, 65, 74
2, 74721, Note_on_c, 0, 63, 0
2, 74797, Note_on_c, 0, 65, 0
2, 74930, Note_on_c, 0, 41, 56
2, 74939, Note_on_c, 0, 53, 43
2, 75023, Control_c, 0, 64, 99
2, 75028, Note_on_c, 0, 66, 70
2, 75038, Note_on_c, 0, 69, 71
2, 75042, Control_c, 0, 64, 77
2, 75042, Note_on_c, 0, 60, 57
2, 75061, Control_c, 0, 64, 63
2, 75081, Control_c, 0, 64, 43
2, 75099, Control_c, 0, 64, 0
2, 75233, Control_c, 0, 64, 20
2, 75253, Control_c, 0, 64, 47
2, 75272, Control_c, 0, 64, 60
2, 75292, Control_c, 0, 64, 64
2, 75310, Control_c, 0, 64, 66
2, 75330, Control_c, 0, 64, 70
2, 75349, Control_c, 0, 64, 77
2, 75369, Control_c, 0, 64, 90
2, 75387, Control_c, 0, 64, 127
2, 75462, Note_on_c, 0, 60, 0
2, 75603, Note_on_c, 0, 66, 0
2, 75997, Note_on_c, 0, 65, 60
2, 75998, Note_on_c, 0, 69, 0
2, 76036, Note_on_c, 0, 65, 0
2, 76059, Control_c, 0, 64, 117
2, 76068, Note_on_c, 0, 66, 55
2, 76078, Control_c, 0, 64, 79
2, 76098, Control_c, 0, 64, 63
2, 76117, Control_c, 0, 64, 0
2, 76118, Note_on_c, 0, 66, 0
2, 76124, Note_on_c, 0, 65, 66
2, 76270, Control_c, 0, 64, 37
2, 76291, Control_c, 0, 64, 58
2, 76310, Control_c, 0, 64, 63
2, 76329, Control_c, 0, 64, 65
2, 76348, Control_c, 0, 64, 67
2, 76368, Control_c, 0, 64, 69
2, 76387, Control_c, 0, 64, 75
2, 76406, Control_c, 0, 64, 87
2, 76425, Control_c, 0, 64, 118
2, 76445, Control_c, 0, 64, 127
2, 76540, Note_on_c, 0, 41, 0
2, 76725, Note_on_c, 0, 53, 0
2, 76963, Note_on_c, 0, 63, 62
2, 77069, Note_on_c, 0, 63, 0
2, 77251, Note_on_c, 0, 46, 44
2, 77252, Note_on_c, 0, 53, 40
2, 77262, Note_on_c, 0, 58, 38
2, 77269, Control_c, 0, 64, 117
2, 77289, Control_c, 0, 64, 96
2, 77307, Control_c, 0, 64, 82
2, 77317, Note_on_c, 0, 70, 66
2, 77327, Control_c, 0, 64, 72
2, 77328, Note_on_c, 0, 61, 47
2, 77346, Control_c, 0, 64, 66
2, 77365, Control_c, 0, 64, 60
2, 77384, Control_c, 0, 64, 51
2, 77404, Control_c, 0, 64, 31
2, 77409, Note_on_c, 0, 65, 0
2, 77423, Control_c, 0, 64, 0
2, 77884, Control_c, 0, 64, 25
2, 77903, Control_c, 0, 64, 44
2, 77922, Control_c, 0, 64, 52
2, 77941, Control_c, 0, 64, 56
2, 77961, Control_c, 0, 64, 59
2, 77979, Control_c, 0, 64, 61
2, 77998, Control_c, 0, 64, 63
2, 78018, Control_c, 0, 64, 64
2, 78037, Control_c, 0, 64, 66
2, 78056, Control_c, 0, 64, 68
2, 78075, Control_c, 0, 64, 71
2, 78095, Control_c, 0, 64, 79
2, 78113, Control_c, 0, 64, 89
2, 78133, Control_c, 0, 64, 107
2, 78152, Control_c, 0, 64, 127
2, 78281, Note_on_c, 0, 61, 0
2, 78369, Note_on_c, 0, 70, 0
2, 78586, Note_on_c, 0, 72, 75
2, 78617, Note_on_c, 0, 63, 55
2, 78718, Note_on_c, 0, 63, 0
2, 78859, Note_on_c, 0, 72, 0
2, 78971, Note_on_c, 0, 65, 46
2, 79012, Note_on_c, 0, 70, 61
2, 79079, Note_on_c, 0, 73, 73
2, 79092, Control_c, 0, 64, 97
2, 79111, Control_c, 0, 64, 76
2, 79131, Control_c, 0, 64, 64
2, 79149, Control_c, 0, 64, 46
2, 79169, Control_c, 0, 64, 0
2, 79704, Note_on_c, 0, 58, 0
2, 79780, Note_on_c, 0, 53, 0
2, 79854, Note_on_c, 0, 46, 0
2, 80014, Control_c, 0, 64, 39
2, 80033, Control_c, 0, 64, 53
2, 80052, Control_c, 0, 64, 59
2, 80071, Control_c, 0, 64, 62
2, 80091, Control_c, 0, 64, 64
2, 80109, Control_c, 0, 64, 67
2, 80129, Control_c, 0, 64, 70
2, 80148, Control_c, 0, 64, 76
2, 80168, Control_c, 0, 64, 83
2, 80186, Control_c, 0, 64, 92
2, 80206, Control_c, 0, 64, 100
2, 80225, Control_c, 0, 64, 107
2, 80244, Control_c, 0, 64, 115
2, 80263, Control_c, 0, 64, 127
2, 80385, Note_on_c, 0, 46, 73
2, 80696, Note_on_c, 0, 73, 0
2, 80702, Note_on_c, 0, 65, 0
2, 80719, Note_on_c, 0, 70, 0
2, 80839, Control_c, 0, 64, 103
2, 80839, Note_on_c, 0, 73, 72
2, 80852, Note_on_c, 0, 49, 72
2, 80853, Note_on_c, 0, 65, 60
2, 80859, Control_c, 0, 64, 83
2, 80861, Note_on_c, 0, 70, 64
2, 80877, Control_c, 0, 64, 68
2, 80897, Control_c, 0, 64, 53
2, 80906, Note_on_c, 0, 46, 0
2, 80916, Control_c, 0, 64, 0
2, 81031, Control_c, 0, 64, 27
2, 81051, Control_c, 0, 64, 51
2, 81069, Control_c, 0, 64, 61
2, 81089, Control_c, 0, 64, 63
2, 81108, Control_c, 0, 64, 65
2, 81128, Control_c, 0, 64, 67
2, 81146, Control_c, 0, 64, 71
2, 81166, Control_c, 0, 64, 77
2, 81185, Control_c, 0, 64, 90
2, 81204, Control_c, 0, 64, 111
2, 81223, Control_c, 0, 64, 127
2, 81593, Note_on_c, 0, 65, 0
2, 81911, Note_on_c, 0, 70, 0
2, 81938, Note_on_c, 0, 73, 0
2, 82075, Note_on_c, 0, 53, 72
2, 82113, Note_on_c, 0, 49, 0
2, 82217, Note_on_c, 0, 53, 0
2, 82536, Note_on_c, 0, 73, 71
2, 82540, Note_on_c, 0, 70, 59
2, 82547, Note_on_c, 0, 64, 65
2, 82548, Control_c, 0, 64, 100
2, 82549, Note_on_c, 0, 43, 65
2, 82568, Control_c, 0, 64, 78
2, 82586, Control_c, 0, 64, 66
2, 82606, Control_c, 0, 64, 48
2, 82625, Control_c, 0, 64, 0
2, 82839, Control_c, 0, 64, 32
2, 82858, Control_c, 0, 64, 53
2, 82877, Control_c, 0, 64, 60
2, 82897, Control_c, 0, 64, 63
2, 82916, Control_c, 0, 64, 65
2, 82935, Control_c, 0, 64, 67
2, 82954, Control_c, 0, 64, 71
2, 82974, Control_c, 0, 64, 78
2, 82992, Control_c, 0, 64, 90
2, 83011, Control_c, 0, 64, 114
2, 83031, Control_c, 0, 64, 127
2, 83364, Note_on_c, 0, 64, 0
2, 83421, Note_on_c, 0, 70, 0
2, 83971, Note_on_c, 0, 71, 67
2, 84057, Note_on_c, 0, 73, 0
2, 84131, Note_on_c, 0, 71, 0
2, 84158, Note_on_c, 0, 70, 70
2, 84240, Note_on_c, 0, 70, 0
2, 84363, Note_on_c, 0, 73, 66
2, 84363, Note_on_c, 0, 76, 65
2, 84374, Control_c, 0, 64, 97
2, 84375, Note_on_c, 0, 70, 67
2, 84393, Control_c, 0, 64, 77
2, 84413, Control_c, 0, 64, 63
2, 84432, Control_c, 0, 64, 37
2, 84450, Control_c, 0, 64, 0
2, 84585, Control_c, 0, 64, 21
2, 84604, Control_c, 0, 64, 46
2, 84624, Control_c, 0, 64, 57
2, 84642, Control_c, 0, 64, 61
2, 84662, Control_c, 0, 64, 63
2, 84681, Control_c, 0, 64, 64
2, 84701, Control_c, 0, 64, 65
2, 84719, Control_c, 0, 64, 67
2, 84739, Control_c, 0, 64, 71
2, 84758, Control_c, 0, 64, 77
2, 84777, Control_c, 0, 64, 88
2, 84796, Control_c, 0, 64, 105
2, 84816, Control_c, 0, 64, 127
2, 85534, Note_on_c, 0, 46, 62
2, 85743, Note_on_c, 0, 44, 68
2, 85774, Note_on_c, 0, 46, 0
2, 85796, Note_on_c, 0, 43, 0
2, 85919, Note_on_c, 0, 43, 68
2, 85948, Control_c, 0, 64, 108
2, 85951, Note_on_c, 0, 44, 0
2, 85967, Control_c, 0, 64, 99
2, 85987, Control_c, 0, 64, 90
2, 86006, Control_c, 0, 64, 81
2, 86025, Control_c, 0, 64, 74
2, 86044, Control_c, 0, 64, 68
2, 86064, Control_c, 0, 64, 63
2, 86082, Control_c, 0, 64, 54
2, 86102, Control_c, 0, 64, 41
2, 86121, Control_c, 0, 64, 25
2, 86135, Note_on_c, 0, 49, 68
2, 86141, Control_c, 0, 64, 0
2, 86217, Note_on_c, 0, 43, 0
2, 86309, Note_on_c, 0, 73, 0
2, 86486, Control_c, 0, 64, 19
2, 86505, Control_c, 0, 64, 40
2, 86524, Control_c, 0, 64, 53
2, 86544, Control_c, 0, 64, 59
2, 86562, Control_c, 0, 64, 62
2, 86582, Control_c, 0, 64, 63
2, 86601, Control_c, 0, 64, 65
2, 86621, Control_c, 0, 64, 66
2, 86627, Note_on_c, 0, 70, 0
2, 86639, Control_c, 0, 64, 68
2, 86659, Control_c, 0, 64, 72
2, 86678, Control_c, 0, 64, 78
2, 86697, Control_c, 0, 64, 88
2, 86716, Control_c, 0, 64, 102
2, 86736, Control_c, 0, 64, 127
2, 87335, Note_on_c, 0, 75, 77
2, 87343, Note_on_c, 0, 76, 0
2, 87532, Note_on_c, 0, 73, 79
2, 87575, Note_on_c, 0, 75, 0
2, 87644, Note_on_c, 0, 73, 0
2, 87715, Control_c, 0, 64, 110
2, 87732, Note_on_c, 0, 79, 77
2, 87734, Control_c, 0, 64, 81
2, 87744, Note_on_c, 0, 70, 71
2, 87751, Note_on_c, 0, 73, 68
2, 87753, Control_c, 0, 64, 65
2, 87772, Control_c, 0, 64, 44
2, 87792, Control_c, 0, 64, 0
2, 87907, Control_c, 0, 64, 21
2, 87926, Control_c, 0, 64, 51
2, 87945, Control_c, 0, 64, 60
2, 87964, Control_c, 0, 64, 63
2, 87984, Control_c, 0, 64, 64
2, 88002, Control_c, 0, 64, 66
2, 88022, Control_c, 0, 64, 68
2, 88041, Control_c, 0, 64, 74
2, 88061, Control_c, 0, 64, 86
2, 88079, Control_c, 0, 64, 119
2, 88099, Control_c, 0, 64, 127
2, 88833, Note_on_c, 0, 47, 64
2, 88943, Note_on_c, 0, 49, 0
2, 89029, Note_on_c, 0, 46, 69
2, 89036, Note_on_c, 0, 47, 0
2, 89232, Control_c, 0, 64, 111
2, 89250, Control_c, 0, 64, 91
2, 89270, Control_c, 0, 64, 79
2, 89289, Control_c, 0, 64, 70
2, 89308, Control_c, 0, 64, 64
2, 89327, Control_c, 0, 64, 57
2, 89337, Note_on_c, 0, 52, 59
2, 89347, Control_c, 0, 64, 47
2, 89366, Control_c, 0, 64, 34
2, 89385, Control_c, 0, 64, 21
2, 89404, Control_c, 0, 64, 0
2, 89404, Note_on_c, 0, 46, 0
2, 89761, Note_on_c, 0, 51, 65
2, 89826, Note_on_c, 0, 52, 0
2, 90119, Note_on_c, 0, 52, 72
2, 90162, Note_on_c, 0, 51, 0
2, 90171, Note_on_c, 0, 70, 0
2, 90192, Control_c, 0, 64, 31
2, 90211, Control_c, 0, 64, 44
2, 90231, Control_c, 0, 64, 54
2, 90250, Control_c, 0, 64, 59
2, 90269, Control_c, 0, 64, 62
2, 90288, Control_c, 0, 64, 63
2, 90308, Control_c, 0, 64, 64
2, 90326, Control_c, 0, 64, 64
2, 90346, Control_c, 0, 64, 66
2, 90365, Control_c, 0, 64, 68
2, 90385, Control_c, 0, 64, 71
2, 90403, Control_c, 0, 64, 79
2, 90423, Control_c, 0, 64, 91
2, 90433, Note_on_c, 0, 49, 75
2, 90442, Control_c, 0, 64, 109
2, 90449, Note_on_c, 0, 77, 79
2, 90462, Control_c, 0, 64, 127
2, 90465, Note_on_c, 0, 79, 0
2, 90473, Note_on_c, 0, 52, 0
2, 90494, Note_on_c, 0, 73, 0
2, 90629, Note_on_c, 0, 75, 82
2, 90648, Note_on_c, 0, 77, 0
2, 90784, Note_on_c, 0, 75, 0
2, 90856, Note_on_c, 0, 47, 73
2, 90875, Note_on_c, 0, 49, 0
2, 90942, Control_c, 0, 64, 109
2, 90945, Note_on_c, 0, 75, 66
2, 90945, Note_on_c, 0, 80, 81
2, 90956, Note_on_c, 0, 71, 69
2, 90960, Control_c, 0, 64, 87
2, 90980, Control_c, 0, 64, 72
2, 90999, Control_c, 0, 64, 64
2, 91018, Control_c, 0, 64, 54
2, 91038, Control_c, 0, 64, 46
2, 91058, Control_c, 0, 64, 39
2, 91077, Control_c, 0, 64, 34
2, 91096, Control_c, 0, 64, 28
2, 91115, Control_c, 0, 64, 21
2, 91135, Control_c, 0, 64, 18
2, 91220, Note_on_c, 0, 46, 71
2, 91230, Control_c, 0, 64, 17
2, 91273, Note_on_c, 0, 47, 0
2, 91400, Note_on_c, 0, 44, 67
2, 91436, Note_on_c, 0, 46, 0
2, 91591, Note_on_c, 0, 46, 71
2, 91636, Note_on_c, 0, 44, 0
2, 91712, Note_on_c, 0, 71, 0
2, 91774, Note_on_c, 0, 47, 72
2, 91829, Note_on_c, 0, 75, 0
2, 91840, Note_on_c, 0, 46, 0
2, 91926, Note_on_c, 0, 44, 73
2, 91970, Note_on_c, 0, 47, 0
2, 92127, Note_on_c, 0, 46, 71
2, 92169, Control_c, 0, 64, 15
2, 92181, Note_on_c, 0, 44, 0
2, 92298, Note_on_c, 0, 47, 69
2, 92347, Note_on_c, 0, 46, 0
2, 92531, Note_on_c, 0, 40, 74
2, 92554, Note_on_c, 0, 47, 0
2, 92591, Control_c, 0, 64, 17
2, 92609, Control_c, 0, 64, 18
2, 92627, Control_c, 0, 64, 20
2, 92647, Control_c, 0, 64, 23
2, 92665, Control_c, 0, 64, 29
2, 92685, Control_c, 0, 64, 35
2, 92704, Control_c, 0, 64, 42
2, 92724, Control_c, 0, 64, 49
2, 92742, Control_c, 0, 64, 55
2, 92761, Control_c, 0, 64, 58
2, 92781, Control_c, 0, 64, 60
2, 92799, Control_c, 0, 64, 63
2, 92819, Control_c, 0, 64, 64
2, 92838, Control_c, 0, 64, 66
2, 92858, Control_c, 0, 64, 69
2, 92876, Control_c, 0, 64, 73
2, 92884, Note_on_c, 0, 80, 0
2, 92896, Control_c, 0, 64, 80
2, 92915, Control_c, 0, 64, 91
2, 92915, Note_on_c, 0, 79, 83
2, 92934, Control_c, 0, 64, 127
2, 93263, Note_on_c, 0, 80, 90
2, 93308, Note_on_c, 0, 40, 0
2, 93325, Note_on_c, 0, 79, 0
2, 93443, Note_on_c, 0, 52, 70
2, 93638, Note_on_c, 0, 51, 68
2, 93650, Note_on_c, 0, 52, 0
2, 93653, Note_on_c, 0, 82, 92
2, 93703, Note_on_c, 0, 80, 0
2, 93830, Note_on_c, 0, 49, 72
2, 93849, Note_on_c, 0, 51, 0
2, 94089, Note_on_c, 0, 51, 72
2, 94144, Control_c, 0, 64, 110
2, 94158, Note_on_c, 0, 49, 0
2, 94164, Control_c, 0, 64, 78
2, 94180, Note_on_c, 0, 83, 80
2, 94182, Control_c, 0, 64, 60
2, 94185, Note_on_c, 0, 79, 61
2, 94196, Note_on_c, 0, 75, 61
2, 94201, Control_c, 0, 64, 0
2, 94227, Note_on_c, 0, 82, 0
2, 94336, Control_c, 0, 64, 52
2, 94355, Control_c, 0, 64, 63
2, 94374, Control_c, 0, 64, 67
2, 94393, Control_c, 0, 64, 72
2, 94413, Control_c, 0, 64, 81
2, 94432, Control_c, 0, 64, 101
2, 94444, Note_on_c, 0, 82, 82
2, 94451, Control_c, 0, 64, 127
2, 94462, Note_on_c, 0, 83, 0
2, 94473, Note_on_c, 0, 79, 0
2, 94602, Note_on_c, 0, 83, 75
2, 94614, Note_on_c, 0, 82, 0
2, 94750, Note_on_c, 0, 83, 0
2, 94753, Note_on_c, 0, 82, 77
2, 94854, Note_on_c, 0, 82, 0
2, 94869, Note_on_c, 0, 83, 74
2, 94967, Note_on_c, 0, 83, 0
2, 94974, Note_on_c, 0, 82, 76
2, 95042, Note_on_c, 0, 82, 0
2, 95054, Note_on_c, 0, 83, 71
2, 95134, Note_on_c, 0, 83, 0
2, 95142, Note_on_c, 0, 82, 72
2, 95196, Note_on_c, 0, 82, 0
2, 95217, Note_on_c, 0, 83, 71
2, 95287, Note_on_c, 0, 83, 0
2, 95296, Note_on_c, 0, 82, 75
2, 95341, Note_on_c, 0, 82, 0
2, 95374, Note_on_c, 0, 83, 65
2, 95436, Note_on_c, 0, 83, 0
2, 95446, Note_on_c, 0, 82, 75
2, 95477, Note_on_c, 0, 49, 67
2, 95481, Note_on_c, 0, 82, 0
2, 95508, Note_on_c, 0, 83, 64
2, 95541, Note_on_c, 0, 51, 0
2, 95566, Note_on_c, 0, 75, 0
2, 95571, Note_on_c, 0, 82, 81
2, 95588, Note_on_c, 0, 83, 0
2, 95640, Note_on_c, 0, 82, 0
2, 95641, Note_on_c, 0, 83, 60
2, 95719, Note_on_c, 0, 82, 75
2, 95724, Note_on_c, 0, 83, 0
2, 95736, Control_c, 0, 64, 90
2, 95755, Control_c, 0, 64, 68
2, 95774, Control_c, 0, 64, 53
2, 95777, Note_on_c, 0, 73, 15
2, 95793, Note_on_c, 0, 51, 70
2, 95793, Note_on_c, 0, 82, 0
2, 95794, Control_c, 0, 64, 29
2, 95809, Note_on_c, 0, 83, 64
2, 95830, Control_c, 0, 64, 36
2, 95836, Note_on_c, 0, 49, 0
2, 95850, Control_c, 0, 64, 54
2, 95864, Note_on_c, 0, 82, 69
2, 95869, Control_c, 0, 64, 63
2, 95875, Note_on_c, 0, 83, 0
2, 95888, Control_c, 0, 64, 68
2, 95907, Control_c, 0, 64, 75
2, 95915, Note_on_c, 0, 82, 0
2, 95927, Control_c, 0, 64, 91
2, 95946, Control_c, 0, 64, 127
2, 95949, Note_on_c, 0, 83, 53
2, 95999, Note_on_c, 0, 82, 64
2, 96038, Note_on_c, 0, 82, 0
2, 96117, Note_on_c, 0, 82, 73
2, 96158, Note_on_c, 0, 82, 0
2, 96547, Note_on_c, 0, 80, 83
2, 96611, Note_on_c, 0, 83, 0
2, 96687, Note_on_c, 0, 73, 0
2, 96993, Note_on_c, 0, 39, 72
2, 97089, Note_on_c, 0, 51, 0
2, 97096, Note_on_c, 0, 80, 0
2, 97561, Note_on_c, 0, 44, 64
2, 97563, Note_on_c, 0, 80, 79
2, 97576, Note_on_c, 0, 75, 69
2, 97578, Control_c, 0, 64, 85
2, 97584, Note_on_c, 0, 71, 66
2, 97597, Control_c, 0, 64, 68
2, 97616, Control_c, 0, 64, 41
2, 97628, Note_on_c, 0, 39, 0
2, 97636, Control_c, 0, 64, 0
2, 97770, Control_c, 0, 64, 47
2, 97789, Control_c, 0, 64, 62
2, 97808, Control_c, 0, 64, 65
2, 97827, Control_c, 0, 64, 67
2, 97847, Control_c, 0, 64, 72
2, 97866, Control_c, 0, 64, 88
2, 97885, Control_c, 0, 64, 127
2, 97971, Note_on_c, 0, 71, 0
2, 98049, Note_on_c, 0, 44, 0
2, 98101, Note_on_c, 0, 75, 0
2, 98111, Note_on_c, 0, 80, 0
2, 98883, Control_c, 0, 64, 86
2, 98901, Control_c, 0, 64, 70
2, 98921, Control_c, 0, 64, 60
2, 98940, Control_c, 0, 64, 47
2, 98960, Control_c, 0, 64, 42
2, 98966, Note_on_c, 0, 83, 86
2, 98978, Control_c, 0, 64, 41
2, 98998, Control_c, 0, 64, 38
2, 99017, Control_c, 0, 64, 34
2, 99037, Control_c, 0, 64, 27
2, 99055, Control_c, 0, 64, 19
2, 99075, Control_c, 0, 64, 18
2, 99324, Control_c, 0, 64, 19
2, 99363, Control_c, 0, 64, 20
2, 99401, Control_c, 0, 64, 21
2, 99451, Note_on_c, 0, 77, 84
2, 99497, Control_c, 0, 64, 22
2, 99516, Note_on_c, 0, 83, 0
2, 99651, Control_c, 0, 64, 23
2, 99689, Control_c, 0, 64, 24
2, 99843, Control_c, 0, 64, 25
2, 99900, Control_c, 0, 64, 26
2, 99920, Control_c, 0, 64, 27
2, 99958, Control_c, 0, 64, 27
2, 100054, Control_c, 0, 64, 28
2, 100073, Control_c, 0, 64, 29
2, 100111, Control_c, 0, 64, 29
2, 100207, Control_c, 0, 64, 30
2, 100246, Control_c, 0, 64, 31
2, 100265, Control_c, 0, 64, 31
2, 100303, Control_c, 0, 64, 32
2, 100323, Control_c, 0, 64, 32
2, 100400, Control_c, 0, 64, 33
2, 100418, Control_c, 0, 64, 34
2, 100438, Control_c, 0, 64, 35
2, 100457, Control_c, 0, 64, 35
2, 100477, Control_c, 0, 64, 36
2, 100515, Control_c, 0, 64, 36
2, 100552, Control_c, 0, 64, 37
2, 100611, Control_c, 0, 64, 37
2, 100687, Control_c, 0, 64, 38
2, 100697, Note_on_c, 0, 59, 66
2, 100706, Control_c, 0, 64, 38
2, 100707, Note_on_c, 0, 78, 82
2, 100726, Control_c, 0, 64, 39
2, 100821, Control_c, 0, 64, 39
2, 100830, Note_on_c, 0, 77, 0
2, 100860, Control_c, 0, 64, 40
2, 100890, Note_on_c, 0, 80, 82
2, 100898, Control_c, 0, 64, 40
2, 100949, Note_on_c, 0, 78, 0
2, 101112, Note_on_c, 0, 53, 64
2, 101121, Note_on_c, 0, 74, 75
2, 101179, Note_on_c, 0, 59, 0
2, 101188, Note_on_c, 0, 80, 0
2, 101225, Control_c, 0, 64, 41
2, 101474, Control_c, 0, 64, 41
2, 101493, Control_c, 0, 64, 42
2, 101511, Control_c, 0, 64, 44
2, 101531, Control_c, 0, 64, 46
2, 101550, Control_c, 0, 64, 49
2, 101570, Control_c, 0, 64, 53
2, 101589, Control_c, 0, 64, 57
2, 101609, Control_c, 0, 64, 60
2, 101628, Control_c, 0, 64, 62
2, 101647, Control_c, 0, 64, 63
2, 101666, Control_c, 0, 64, 64
2, 101686, Control_c, 0, 64, 65
2, 101705, Control_c, 0, 64, 66
2, 101724, Control_c, 0, 64, 68
2, 101743, Control_c, 0, 64, 73
2, 101763, Control_c, 0, 64, 80
2, 101781, Control_c, 0, 64, 92
2, 101801, Control_c, 0, 64, 119
2, 101820, Control_c, 0, 64, 127
2, 102314, Note_on_c, 0, 75, 83
2, 102341, Note_on_c, 0, 54, 56
2, 102352, Note_on_c, 0, 74, 0
2, 102381, Note_on_c, 0, 53, 0
2, 102490, Note_on_c, 0, 77, 81
2, 102502, Note_on_c, 0, 56, 67
2, 102515, Note_on_c, 0, 54, 0
2, 102522, Note_on_c, 0, 75, 0
2, 102684, Control_c, 0, 64, 104
2, 102703, Control_c, 0, 64, 78
2, 102711, Note_on_c, 0, 50, 65
2, 102711, Note_on_c, 0, 70, 85
2, 102723, Control_c, 0, 64, 66
2, 102730, Note_on_c, 0, 56, 0
2, 102741, Control_c, 0, 64, 54
2, 102741, Note_on_c, 0, 77, 0
2, 102761, Control_c, 0, 64, 27
2, 102780, Control_c, 0, 64, 0
2, 102895, Control_c, 0, 64, 21
2, 102915, Control_c, 0, 64, 46
2, 102934, Control_c, 0, 64, 59
2, 102952, Control_c, 0, 64, 63
2, 102972, Control_c, 0, 64, 65
2, 102991, Control_c, 0, 64, 68
2, 103011, Control_c, 0, 64, 73
2, 103029, Control_c, 0, 64, 86
2, 103049, Control_c, 0, 64, 127
2, 103875, Note_on_c, 0, 51, 45
2, 103898, Note_on_c, 0, 80, 92
2, 103924, Note_on_c, 0, 50, 0
2, 104059, Note_on_c, 0, 51, 0
2, 104060, Note_on_c, 0, 53, 57
2, 104257, Note_on_c, 0, 53, 0
2, 104281, Note_on_c, 0, 46, 64
2, 104288, Note_on_c, 0, 74, 80
2, 104298, Control_c, 0, 64, 86
2, 104317, Control_c, 0, 64, 69
2, 104336, Control_c, 0, 64, 51
2, 104356, Control_c, 0, 64, 0
2, 104382, Note_on_c, 0, 80, 0
2, 104490, Control_c, 0, 64, 35
2, 104495, Note_on_c, 0, 70, 0
2, 104509, Control_c, 0, 64, 57
2, 104528, Control_c, 0, 64, 63
2, 104547, Control_c, 0, 64, 65
2, 104567, Control_c, 0, 64, 67
2, 104586, Control_c, 0, 64, 72
2, 104605, Control_c, 0, 64, 81
2, 104624, Control_c, 0, 64, 107
2, 104644, Control_c, 0, 64, 127
2, 105485, Note_on_c, 0, 75, 86
2, 105499, Note_on_c, 0, 56, 56
2, 105531, Note_on_c, 0, 74, 0
2, 105653, Note_on_c, 0, 77, 74
2, 105722, Note_on_c, 0, 75, 0
2, 105891, Control_c, 0, 64, 100
2, 105899, Note_on_c, 0, 70, 87
2, 105904, Note_on_c, 0, 50, 65
2, 105910, Control_c, 0, 64, 74
2, 105930, Control_c, 0, 64, 59
2, 105949, Control_c, 0, 64, 0
2, 105980, Note_on_c, 0, 77, 0
2, 106053, Note_on_c, 0, 56, 0
2, 106063, Control_c, 0, 64, 30
2, 106077, Note_on_c, 0, 46, 0
2, 106083, Control_c, 0, 64, 55
2, 106101, Control_c, 0, 64, 63
2, 106121, Control_c, 0, 64, 66
2, 106140, Control_c, 0, 64, 69
2, 106160, Control_c, 0, 64, 76
2, 106178, Control_c, 0, 64, 89
2, 106198, Control_c, 0, 64, 127
2, 107052, Note_on_c, 0, 72, 79
2, 107072, Note_on_c, 0, 50, 0
2, 107084, Note_on_c, 0, 51, 53
2, 107085, Note_on_c, 0, 70, 0
2, 107223, Note_on_c, 0, 51, 0
2, 107237, Note_on_c, 0, 74, 78
2, 107263, Note_on_c, 0, 53, 52
2, 107276, Note_on_c, 0, 72, 0
2, 107469, Control_c, 0, 64, 94
2, 107471, Note_on_c, 0, 42, 63
2, 107477, Note_on_c, 0, 75, 82
2, 107488, Control_c, 0, 64, 75
2, 107507, Control_c, 0, 64, 63
2, 107521, Note_on_c, 0, 53, 0
2, 107527, Control_c, 0, 64, 23
2, 107544, Note_on_c, 0, 74, 0
2, 107545, Control_c, 0, 64, 0
2, 107679, Control_c, 0, 64, 31
2, 107699, Control_c, 0, 64, 56
2, 107718, Control_c, 0, 64, 63
2, 107738, Control_c, 0, 64, 64
2, 107756, Control_c, 0, 64, 66
2, 107776, Control_c, 0, 64, 69
2, 107795, Control_c, 0, 64, 76
2, 107814, Control_c, 0, 64, 89
2, 107833, Control_c, 0, 64, 127
2, 108726, Note_on_c, 0, 73, 78
2, 108887, Note_on_c, 0, 42, 0
2, 108894, Note_on_c, 0, 71, 77
2, 108900, Note_on_c, 0, 75, 0
2, 108953, Note_on_c, 0, 73, 0
2, 109114, Note_on_c, 0, 73, 73
2, 109119, Control_c, 0, 64, 106
2, 109119, Note_on_c, 0, 43, 51
2, 109138, Control_c, 0, 64, 81
2, 109157, Control_c, 0, 64, 66
2, 109177, Control_c, 0, 64, 13
2, 109186, Note_on_c, 0, 71, 0
2, 109195, Control_c, 0, 64, 0
2, 109407, Control_c, 0, 64, 48
2, 109426, Control_c, 0, 64, 63
2, 109445, Control_c, 0, 64, 67
2, 109464, Control_c, 0, 64, 71
2, 109483, Control_c, 0, 64, 79
2, 109503, Control_c, 0, 64, 94
2, 109522, Control_c, 0, 64, 127
2, 109624, Note_on_c, 0, 43, 0
2, 110579, Note_on_c, 0, 58, 50
2, 110733, Note_on_c, 0, 73, 0
2, 110962, Control_c, 0, 64, 112
2, 110981, Control_c, 0, 64, 99
2, 111000, Control_c, 0, 64, 87
2, 111020, Control_c, 0, 64, 76
2, 111039, Control_c, 0, 64, 66
2, 111039, Note_on_c, 0, 73, 63
2, 111055, Note_on_c, 0, 55, 36
2, 111058, Control_c, 0, 64, 53
2, 111061, Note_on_c, 0, 63, 40
2, 111070, Note_on_c, 0, 58, 0
2, 111070, Note_on_c, 0, 70, 45
2, 111077, Control_c, 0, 64, 20
2, 111097, Control_c, 0, 64, 0
2, 111250, Control_c, 0, 64, 42
2, 111269, Control_c, 0, 64, 56
2, 111289, Control_c, 0, 64, 61
2, 111308, Control_c, 0, 64, 63
2, 111327, Control_c, 0, 64, 65
2, 111346, Control_c, 0, 64, 66
2, 111365, Control_c, 0, 64, 69
2, 111384, Control_c, 0, 64, 75
2, 111403, Control_c, 0, 64, 86
2, 111423, Control_c, 0, 64, 102
2, 111442, Control_c, 0, 64, 127
2, 111661, Note_on_c, 0, 63, 0
2, 111792, Note_on_c, 0, 73, 0
2, 112235, Note_on_c, 0, 70, 0
2, 112466, Note_on_c, 0, 51, 39
2, 112547, Note_on_c, 0, 55, 0
2, 112620, Note_on_c, 0, 51, 0
2, 113085, Note_on_c, 0, 44, 45
2, 113103, Note_on_c, 0, 73, 52
2, 113127, Note_on_c, 0, 63, 38
2, 113132, Control_c, 0, 64, 99
2, 113136, Note_on_c, 0, 70, 43
2, 113151, Control_c, 0, 64, 78
2, 113170, Control_c, 0, 64, 67
2, 113189, Control_c, 0, 64, 56
2, 113209, Control_c, 0, 64, 36
2, 113228, Control_c, 0, 64, 11
2, 113247, Control_c, 0, 64, 0
2, 113592, Control_c, 0, 64, 9
2, 113612, Control_c, 0, 64, 20
2, 113631, Control_c, 0, 64, 25
2, 113650, Control_c, 0, 64, 30
2, 113669, Control_c, 0, 64, 37
2, 113689, Control_c, 0, 64, 45
2, 113708, Control_c, 0, 64, 52
2, 113727, Control_c, 0, 64, 54
2, 113746, Control_c, 0, 64, 55
2, 113765, Control_c, 0, 64, 56
2, 113784, Control_c, 0, 64, 57
2, 113803, Control_c, 0, 64, 58
2, 113823, Control_c, 0, 64, 59
2, 113842, Control_c, 0, 64, 61
2, 113861, Control_c, 0, 64, 61
2, 113880, Control_c, 0, 64, 62
2, 113900, Control_c, 0, 64, 63
2, 113919, Control_c, 0, 64, 64
2, 113938, Control_c, 0, 64, 65
2, 113957, Control_c, 0, 64, 67
2, 113957, Note_on_c, 0, 70, 0
2, 113977, Control_c, 0, 64, 69
2, 113995, Control_c, 0, 64, 72
2, 114015, Control_c, 0, 64, 77
2, 114034, Control_c, 0, 64, 83
2, 114054, Control_c, 0, 64, 91
2, 114071, Control_c, 0, 64, 100
2, 114091, Control_c, 0, 64, 111
2, 114110, Control_c, 0, 64, 127
2, 114417, Note_on_c, 0, 71, 45
2, 114554, Note_on_c, 0, 71, 0
2, 114602, Note_on_c, 0, 70, 44
2, 114724, Control_c, 0, 64, 104
2, 114744, Control_c, 0, 64, 86
2, 114762, Control_c, 0, 64, 73
2, 114775, Note_on_c, 0, 70, 0
2, 114782, Control_c, 0, 64, 63
2, 114801, Control_c, 0, 64, 43
2, 114812, Note_on_c, 0, 71, 40
2, 114820, Control_c, 0, 64, 0
2, 114886, Note_on_c, 0, 63, 0
2, 114936, Control_c, 0, 64, 19
2, 114954, Control_c, 0, 64, 42
2, 114974, Control_c, 0, 64, 53
2, 114993, Control_c, 0, 64, 58
2, 115013, Control_c, 0, 64, 59
2, 115029, Note_on_c, 0, 73, 0
2, 115031, Control_c, 0, 64, 61
2, 115051, Control_c, 0, 64, 62
2, 115070, Control_c, 0, 64, 63
2, 115090, Control_c, 0, 64, 65
2, 115108, Control_c, 0, 64, 66
2, 115128, Control_c, 0, 64, 68
2, 115147, Control_c, 0, 64, 72
2, 115165, Control_c, 0, 64, 77
2, 115185, Control_c, 0, 64, 86
2, 115204, Control_c, 0, 64, 97
2, 115224, Control_c, 0, 64, 116
2, 115242, Control_c, 0, 64, 127
2, 115305, Note_on_c, 0, 44, 0
2, 116006, Note_on_c, 0, 59, 49
2, 116162, Note_on_c, 0, 71, 0
2, 116414, Control_c, 0, 64, 119
2, 116426, Note_on_c, 0, 56, 46
2, 116433, Control_c, 0, 64, 100
2, 116453, Control_c, 0, 64, 84
2, 116469, Note_on_c, 0, 63, 50
2, 116471, Control_c, 0, 64, 73
2, 116491, Control_c, 0, 64, 65
2, 116510, Control_c, 0, 64, 54
2, 116530, Control_c, 0, 64, 34
2, 116540, Note_on_c, 0, 59, 0
2, 116547, Note_on_c, 0, 68, 48
2, 116548, Control_c, 0, 64, 9
2, 116568, Control_c, 0, 64, 0
2, 116609, Note_on_c, 0, 71, 62
2, 116702, Control_c, 0, 64, 17
2, 116721, Control_c, 0, 64, 38
2, 116740, Control_c, 0, 64, 53
2, 116759, Control_c, 0, 64, 59
2, 116779, Control_c, 0, 64, 61
2, 116798, Control_c, 0, 64, 63
2, 116817, Control_c, 0, 64, 64
2, 116836, Control_c, 0, 64, 66
2, 116856, Control_c, 0, 64, 68
2, 116874, Control_c, 0, 64, 72
2, 116894, Control_c, 0, 64, 79
2, 116913, Control_c, 0, 64, 91
2, 116933, Control_c, 0, 64, 112
2, 116951, Control_c, 0, 64, 127
2, 117075, Note_on_c, 0, 63, 0
2, 117269, Note_on_c, 0, 68, 0
2, 117841, Note_on_c, 0, 71, 0
2, 117862, Note_on_c, 0, 53, 54
2, 118286, Note_on_c, 0, 50, 48
2, 118297, Control_c, 0, 64, 97
2, 118315, Control_c, 0, 64, 80
2, 118320, Note_on_c, 0, 65, 39
2, 118335, Control_c, 0, 64, 68
2, 118345, Note_on_c, 0, 53, 0
2, 118345, Note_on_c, 0, 56, 0
2, 118354, Control_c, 0, 64, 57
2, 118374, Control_c, 0, 64, 29
2, 118382, Note_on_c, 0, 68, 52
2, 118392, Control_c, 0, 64, 0
2, 118471, Note_on_c, 0, 71, 60
2, 118526, Note_on_c, 0, 68, 0
2, 118541, Control_c, 0, 64, 20
2, 118560, Control_c, 0, 64, 42
2, 118580, Control_c, 0, 64, 54
2, 118599, Control_c, 0, 64, 60
2, 118618, Control_c, 0, 64, 62
2, 118637, Control_c, 0, 64, 64
2, 118657, Control_c, 0, 64, 65
2, 118675, Control_c, 0, 64, 67
2, 118695, Control_c, 0, 64, 71
2, 118714, Control_c, 0, 64, 79
2, 118734, Control_c, 0, 64, 92
2, 118752, Control_c, 0, 64, 127
2, 118813, Note_on_c, 0, 65, 0
2, 119677, Note_on_c, 0, 50, 0
2, 119695, Note_on_c, 0, 70, 62
2, 119724, Note_on_c, 0, 71, 0
2, 119855, Note_on_c, 0, 70, 0
2, 119884, Note_on_c, 0, 68, 64
2, 120016, Note_on_c, 0, 50, 47
2, 120085, Note_on_c, 0, 53, 44
2, 120119, Control_c, 0, 64, 91
2, 120139, Control_c, 0, 64, 73
2, 120148, Note_on_c, 0, 77, 66
2, 120158, Control_c, 0, 64, 62
2, 120177, Control_c, 0, 64, 36
2, 120178, Note_on_c, 0, 58, 43
2, 120196, Control_c, 0, 64, 0
2, 120230, Note_on_c, 0, 68, 0
2, 120370, Control_c, 0, 64, 21
2, 120388, Control_c, 0, 64, 48
2, 120407, Control_c, 0, 64, 59
2, 120427, Control_c, 0, 64, 63
2, 120445, Control_c, 0, 64, 65
2, 120465, Control_c, 0, 64, 68
2, 120484, Control_c, 0, 64, 72
2, 120504, Control_c, 0, 64, 82
2, 120522, Control_c, 0, 64, 104
2, 120542, Control_c, 0, 64, 127
2, 121142, Note_on_c, 0, 50, 0
2, 121156, Note_on_c, 0, 58, 0
2, 121219, Note_on_c, 0, 53, 0
2, 121441, Note_on_c, 0, 71, 58
2, 121726, Note_on_c, 0, 50, 37
2, 121809, Note_on_c, 0, 53, 31
2, 121891, Note_on_c, 0, 71, 0
2, 121903, Control_c, 0, 64, 123
2, 121923, Control_c, 0, 64, 103
2, 121926, Note_on_c, 0, 58, 33
2, 121937, Note_on_c, 0, 70, 59
2, 121941, Control_c, 0, 64, 92
2, 121961, Control_c, 0, 64, 82
2, 121980, Control_c, 0, 64, 76
2, 122000, Control_c, 0, 64, 71
2, 122018, Control_c, 0, 64, 66
2, 122038, Control_c, 0, 64, 63
2, 122057, Control_c, 0, 64, 60
2, 122076, Control_c, 0, 64, 57
2, 122095, Control_c, 0, 64, 55
2, 122106, Note_on_c, 0, 70, 0
2, 122114, Control_c, 0, 64, 51
2, 122134, Control_c, 0, 64, 47
2, 122150, Note_on_c, 0, 71, 55
2, 122152, Control_c, 0, 64, 43
2, 122172, Control_c, 0, 64, 40
2, 122191, Control_c, 0, 64, 37
2, 122211, Control_c, 0, 64, 36
2, 122229, Control_c, 0, 64, 35
2, 122240, Note_on_c, 0, 71, 0
2, 122249, Control_c, 0, 64, 34
2, 122268, Control_c, 0, 64, 33
2, 122268, Note_on_c, 0, 70, 57
2, 122318, Note_on_c, 0, 70, 0
2, 122376, Note_on_c, 0, 71, 58
2, 122421, Note_on_c, 0, 71, 0
2, 122453, Note_on_c, 0, 70, 54
2, 122484, Note_on_c, 0, 70, 0
2, 122521, Note_on_c, 0, 71, 52
2, 122554, Note_on_c, 0, 71, 0
2, 122586, Note_on_c, 0, 70, 56
2, 122749, Control_c, 0, 64, 34
2, 122768, Control_c, 0, 64, 36
2, 122787, Control_c, 0, 64, 43
2, 122807, Control_c, 0, 64, 49
2, 122818, Note_on_c, 0, 77, 0
2, 122826, Control_c, 0, 64, 54
2, 122845, Control_c, 0, 64, 57
2, 122864, Control_c, 0, 64, 60
2, 122884, Control_c, 0, 64, 62
2, 122902, Control_c, 0, 64, 63
2, 122922, Control_c, 0, 64, 65
2, 122941, Control_c, 0, 64, 66
2, 122961, Control_c, 0, 64, 69
2, 122979, Control_c, 0, 64, 75
2, 122999, Control_c, 0, 64, 84
2, 123009, Note_on_c, 0, 50, 0
2, 123018, Control_c, 0, 64, 97
2, 123036, Control_c, 0, 64, 114
2, 123056, Control_c, 0, 64, 127
2, 123086, Note_on_c, 0, 70, 0
2, 123105, Note_on_c, 0, 53, 0
2, 123124, Note_on_c, 0, 71, 56
2, 123233, Note_on_c, 0, 58, 0
2, 123278, Note_on_c, 0, 71, 0
2, 123301, Note_on_c, 0, 68, 61
2, 123386, Note_on_c, 0, 51, 32
2, 123391, Note_on_c, 0, 68, 0
2, 123420, Control_c, 0, 64, 121
2, 123440, Control_c, 0, 64, 116
2, 123458, Control_c, 0, 64, 112
2, 123478, Control_c, 0, 64, 107
2, 123479, Note_on_c, 0, 54, 37
2, 123497, Control_c, 0, 64, 101
2, 123516, Control_c, 0, 64, 91
2, 123535, Control_c, 0, 64, 81
2, 123542, Note_on_c, 0, 58, 37
2, 123554, Control_c, 0, 64, 71
2, 123554, Note_on_c, 0, 68, 57
2, 123574, Control_c, 0, 64, 64
2, 123582, Note_on_c, 0, 63, 37
2, 123592, Control_c, 0, 64, 57
2, 123612, Control_c, 0, 64, 46
2, 123631, Control_c, 0, 64, 36
2, 123651, Control_c, 0, 64, 30
2, 123670, Control_c, 0, 64, 23
2, 123690, Control_c, 0, 64, 13
2, 123709, Control_c, 0, 64, 0
2, 123996, Note_on_c, 0, 68, 0
2, 124022, Note_on_c, 0, 66, 47
2, 124266, Control_c, 0, 64, 27
2, 124284, Control_c, 0, 64, 42
2, 124303, Control_c, 0, 64, 53
2, 124323, Control_c, 0, 64, 58
2, 124341, Control_c, 0, 64, 61
2, 124361, Control_c, 0, 64, 63
2, 124380, Control_c, 0, 64, 64
2, 124400, Control_c, 0, 64, 66
2, 124418, Control_c, 0, 64, 70
2, 124438, Control_c, 0, 64, 77
2, 124457, Control_c, 0, 64, 88
2, 124476, Control_c, 0, 64, 102
2, 124495, Control_c, 0, 64, 119
2, 124514, Control_c, 0, 64, 127
2, 124528, Note_on_c, 0, 51, 0
2, 124605, Note_on_c, 0, 58, 0
2, 124630, Note_on_c, 0, 54, 0
2, 124720, Note_on_c, 0, 63, 0
2, 125003, Note_on_c, 0, 51, 36
2, 125091, Control_c, 0, 64, 116
2, 125109, Control_c, 0, 64, 109
2, 125112, Note_on_c, 0, 54, 39
2, 125129, Control_c, 0, 64, 104
2, 125148, Control_c, 0, 64, 101
2, 125161, Note_on_c, 0, 58, 42
2, 125167, Control_c, 0, 64, 96
2, 125186, Control_c, 0, 64, 92
2, 125206, Control_c, 0, 64, 87
2, 125225, Control_c, 0, 64, 83
2, 125244, Control_c, 0, 64, 78
2, 125262, Control_c, 0, 64, 75
2, 125282, Control_c, 0, 64, 72
2, 125301, Control_c, 0, 64, 70
2, 125320, Control_c, 0, 64, 67
2, 125339, Control_c, 0, 64, 65
2, 125359, Control_c, 0, 64, 62
2, 125377, Control_c, 0, 64, 59
2, 125396, Control_c, 0, 64, 54
2, 125403, Note_on_c, 0, 63, 55
2, 125416, Control_c, 0, 64, 51
2, 125435, Control_c, 0, 64, 47
2, 125454, Control_c, 0, 64, 42
2, 125454, Note_on_c, 0, 66, 0
2, 125473, Control_c, 0, 64, 36
2, 125493, Control_c, 0, 64, 27
2, 125511, Control_c, 0, 64, 15
2, 125531, Control_c, 0, 64, 0
2, 125638, Note_on_c, 0, 65, 58
2, 125647, Note_on_c, 0, 63, 0
2, 125822, Note_on_c, 0, 66, 68
2, 125863, Note_on_c, 0, 65, 0
2, 126014, Note_on_c, 0, 68, 72
2, 126067, Note_on_c, 0, 66, 0
2, 126185, Control_c, 0, 64, 26
2, 126190, Note_on_c, 0, 70, 77
2, 126202, Note_on_c, 0, 68, 0
2, 126204, Control_c, 0, 64, 42
2, 126222, Control_c, 0, 64, 55
2, 126242, Control_c, 0, 64, 60
2, 126261, Control_c, 0, 64, 63
2, 126280, Control_c, 0, 64, 65
2, 126299, Control_c, 0, 64, 67
2, 126319, Control_c, 0, 64, 70
2, 126337, Control_c, 0, 64, 75
2, 126337, Note_on_c, 0, 70, 0
2, 126356, Control_c, 0, 64, 82
2, 126362, Note_on_c, 0, 51, 0
2, 126376, Control_c, 0, 64, 89
2, 126392, Note_on_c, 0, 72, 80
2, 126395, Control_c, 0, 64, 93
2, 126414, Control_c, 0, 64, 94
2, 126420, Note_on_c, 0, 54, 0
2, 126433, Control_c, 0, 64, 94
2, 126553, Note_on_c, 0, 74, 71
2, 126563, Note_on_c, 0, 58, 0
2, 126565, Note_on_c, 0, 51, 42
2, 126568, Control_c, 0, 64, 94
2, 126583, Note_on_c, 0, 72, 0
2, 126587, Control_c, 0, 64, 93
2, 126607, Control_c, 0, 64, 91
2, 126625, Control_c, 0, 64, 88
2, 126645, Control_c, 0, 64, 84
2, 126664, Control_c, 0, 64, 78
2, 126683, Control_c, 0, 64, 71
2, 126702, Control_c, 0, 64, 66
2, 126710, Note_on_c, 0, 54, 58
2, 126722, Control_c, 0, 64, 63
2, 126739, Note_on_c, 0, 75, 75
2, 126741, Control_c, 0, 64, 58
2, 126760, Control_c, 0, 64, 50
2, 126772, Note_on_c, 0, 58, 57
2, 126779, Control_c, 0, 64, 42
2, 126791, Note_on_c, 0, 74, 0
2, 126799, Control_c, 0, 64, 36
2, 126817, Control_c, 0, 64, 28
2, 126836, Control_c, 0, 64, 20
2, 126856, Control_c, 0, 64, 11
2, 126875, Control_c, 0, 64, 0
2, 126906, Note_on_c, 0, 75, 0
2, 126917, Note_on_c, 0, 77, 83
2, 127100, Note_on_c, 0, 78, 80
2, 127168, Note_on_c, 0, 77, 0
2, 127289, Note_on_c, 0, 80, 82
2, 127344, Note_on_c, 0, 78, 0
2, 127413, Control_c, 0, 64, 15
2, 127431, Control_c, 0, 64, 32
2, 127451, Control_c, 0, 64, 47
2, 127470, Control_c, 0, 64, 55
2, 127476, Note_on_c, 0, 78, 83
2, 127490, Control_c, 0, 64, 60
2, 127508, Control_c, 0, 64, 62
2, 127524, Note_on_c, 0, 80, 0
2, 127528, Control_c, 0, 64, 64
2, 127547, Control_c, 0, 64, 66
2, 127567, Control_c, 0, 64, 70
2, 127585, Control_c, 0, 64, 78
2, 127605, Control_c, 0, 64, 93
2, 127624, Control_c, 0, 64, 127
2, 127640, Note_on_c, 0, 58, 0
2, 127648, Note_on_c, 0, 78, 0
2, 127653, Note_on_c, 0, 51, 0
2, 127656, Note_on_c, 0, 77, 67
2, 127657, Note_on_c, 0, 76, 75
2, 127701, Note_on_c, 0, 54, 0
2, 127879, Note_on_c, 0, 77, 0
2, 127881, Note_on_c, 0, 78, 82
2, 127883, Note_on_c, 0, 76, 0
2, 128060, Note_on_c, 0, 75, 85
2, 128108, Note_on_c, 0, 78, 0
2, 128151, Note_on_c, 0, 75, 0
2, 128301, Note_on_c, 0, 44, 82
2, 128430, Control_c, 0, 64, 86
2, 128450, Control_c, 0, 64, 71
2, 128468, Control_c, 0, 64, 62
2, 128488, Control_c, 0, 64, 48
2, 128507, Control_c, 0, 64, 39
2, 128508, Note_on_c, 0, 47, 68
2, 128527, Control_c, 0, 64, 34
2, 128545, Control_c, 0, 64, 28
2, 128565, Control_c, 0, 64, 18
2, 128584, Control_c, 0, 64, 0
2, 128593, Note_on_c, 0, 52, 74
2, 128650, Note_on_c, 0, 64, 72
2, 128661, Note_on_c, 0, 56, 64
2, 128675, Note_on_c, 0, 68, 71
2, 128708, Note_on_c, 0, 71, 55
2, 128748, Note_on_c, 0, 76, 87
2, 128891, Control_c, 0, 64, 28
2, 128910, Control_c, 0, 64, 46
2, 128930, Control_c, 0, 64, 57
2, 128948, Control_c, 0, 64, 62
2, 128968, Control_c, 0, 64, 65
2, 128987, Control_c, 0, 64, 68
2, 129007, Control_c, 0, 64, 75
2, 129025, Control_c, 0, 64, 91
2, 129045, Control_c, 0, 64, 127
2, 129412, Note_on_c, 0, 64, 0
2, 129413, Note_on_c, 0, 76, 0
2, 129726, Note_on_c, 0, 68, 0
2, 129750, Note_on_c, 0, 71, 0
2, 130571, Note_on_c, 0, 71, 82
2, 130734, Note_on_c, 0, 69, 84
2, 130801, Note_on_c, 0, 71, 0
2, 130810, Control_c, 0, 64, 114
2, 130829, Control_c, 0, 64, 104
2, 130849, Control_c, 0, 64, 97
2, 130867, Control_c, 0, 64, 90
2, 130882, Note_on_c, 0, 68, 87
2, 130887, Control_c, 0, 64, 83
2, 130906, Control_c, 0, 64, 78
2, 130922, Note_on_c, 0, 69, 0
2, 130926, Control_c, 0, 64, 74
2, 130944, Control_c, 0, 64, 71
2, 130964, Control_c, 0, 64, 68
2, 130983, Control_c, 0, 64, 66
2, 131002, Control_c, 0, 64, 64
2, 131021, Control_c, 0, 64, 61
2, 131041, Control_c, 0, 64, 59
2, 131060, Control_c, 0, 64, 55
2, 131079, Control_c, 0, 64, 50
2, 131098, Control_c, 0, 64, 45
2, 131117, Control_c, 0, 64, 39
2, 131137, Control_c, 0, 64, 30
2, 131155, Control_c, 0, 64, 19
2, 131175, Control_c, 0, 64, 0
2, 131403, Note_on_c, 0, 56, 0
2, 131426, Note_on_c, 0, 47, 0
2, 131461, Note_on_c, 0, 52, 0
2, 131497, Note_on_c, 0, 44, 0
2, 132328, Note_on_c, 0, 69, 76
2, 132417, Note_on_c, 0, 68, 0
2, 132518, Note_on_c, 0, 71, 83
2, 132557, Note_on_c, 0, 69, 0
2, 132692, Note_on_c, 0, 64, 77
2, 132705, Note_on_c, 0, 71, 0
2, 134009, Note_on_c, 0, 66, 73
2, 134097, Note_on_c, 0, 64, 0
2, 134182, Note_on_c, 0, 68, 84
2, 134215, Note_on_c, 0, 66, 0
2, 134355, Note_on_c, 0, 62, 79
2, 134358, Note_on_c, 0, 53, 59
2, 134363, Note_on_c, 0, 58, 60
2, 134368, Note_on_c, 0, 44, 65
2, 134407, Note_on_c, 0, 68, 0
2, 134669, Control_c, 0, 64, 21
2, 134689, Control_c, 0, 64, 42
2, 134707, Control_c, 0, 64, 52
2, 134727, Control_c, 0, 64, 57
2, 134746, Control_c, 0, 64, 60
2, 134766, Control_c, 0, 64, 62
2, 134784, Control_c, 0, 64, 63
2, 134804, Control_c, 0, 64, 65
2, 134823, Control_c, 0, 64, 68
2, 134842, Control_c, 0, 64, 73
2, 134861, Control_c, 0, 64, 82
2, 134881, Control_c, 0, 64, 97
2, 134900, Control_c, 0, 64, 127
2, 135806, Note_on_c, 0, 65, 75
2, 135947, Note_on_c, 0, 62, 0
2, 135955, Note_on_c, 0, 68, 82
2, 136007, Note_on_c, 0, 65, 0
2, 136128, Note_on_c, 0, 71, 83
2, 136165, Note_on_c, 0, 68, 0
2, 136225, Control_c, 0, 64, 116
2, 136245, Control_c, 0, 64, 101
2, 136264, Control_c, 0, 64, 91
2, 136283, Control_c, 0, 64, 84
2, 136302, Control_c, 0, 64, 78
2, 136322, Control_c, 0, 64, 74
2, 136341, Control_c, 0, 64, 70
2, 136360, Control_c, 0, 64, 66
2, 136379, Control_c, 0, 64, 64
2, 136398, Control_c, 0, 64, 61
2, 136417, Control_c, 0, 64, 58
2, 136435, Note_on_c, 0, 58, 0
2, 136436, Control_c, 0, 64, 55
2, 136456, Control_c, 0, 64, 50
2, 136475, Control_c, 0, 64, 44
2, 136494, Control_c, 0, 64, 38
2, 136497, Note_on_c, 0, 53, 0
2, 136513, Control_c, 0, 64, 31
2, 136533, Control_c, 0, 64, 21
2, 136537, Note_on_c, 0, 44, 0
2, 136551, Control_c, 0, 64, 0
2, 137489, Note_on_c, 0, 70, 78
2, 137535, Note_on_c, 0, 71, 0
2, 137669, Note_on_c, 0, 68, 81
2, 137674, Note_on_c, 0, 70, 0
2, 137836, Note_on_c, 0, 77, 86
2, 137841, Note_on_c, 0, 68, 0
2, 138979, Note_on_c, 0, 75, 82
2, 139028, Control_c, 0, 64, 9
2, 139038, Note_on_c, 0, 77, 0
2, 139048, Control_c, 0, 64, 11
2, 139067, Control_c, 0, 64, 13
2, 139087, Control_c, 0, 64, 15
2, 139105, Control_c, 0, 64, 17
2, 139125, Control_c, 0, 64, 19
2, 139144, Control_c, 0, 64, 21
2, 139146, Note_on_c, 0, 75, 0
2, 139162, Note_on_c, 0, 74, 78
2, 139163, Control_c, 0, 64, 23
2, 139182, Control_c, 0, 64, 25
2, 139202, Control_c, 0, 64, 27
2, 139221, Control_c, 0, 64, 27
2, 139239, Control_c, 0, 64, 28
2, 139278, Control_c, 0, 64, 29
2, 139297, Control_c, 0, 64, 29
2, 139316, Control_c, 0, 64, 30
2, 139336, Control_c, 0, 64, 31
2, 139355, Control_c, 0, 64, 31
2, 139413, Control_c, 0, 64, 32
2, 139436, Note_on_c, 0, 83, 87
2, 139509, Note_on_c, 0, 74, 0
2, 139952, Note_on_c, 0, 81, 91
2, 140018, Note_on_c, 0, 83, 0
2, 140373, Control_c, 0, 64, 32
2, 140411, Control_c, 0, 64, 33
2, 140488, Control_c, 0, 64, 34
2, 140603, Control_c, 0, 64, 34
2, 140660, Control_c, 0, 64, 35
2, 140755, Control_c, 0, 64, 35
2, 140775, Control_c, 0, 64, 36
2, 140794, Control_c, 0, 64, 39
2, 140807, Note_on_c, 0, 82, 86
2, 140813, Control_c, 0, 64, 44
2, 140826, Note_on_c, 0, 81, 0
2, 140832, Control_c, 0, 64, 52
2, 140852, Control_c, 0, 64, 59
2, 140871, Control_c, 0, 64, 63
2, 140890, Control_c, 0, 64, 66
2, 140909, Control_c, 0, 64, 70
2, 140929, Control_c, 0, 64, 80
2, 140947, Control_c, 0, 64, 100
2, 140967, Control_c, 0, 64, 127
2, 141029, Note_on_c, 0, 82, 0
2, 141384, Note_on_c, 0, 75, 88
2, 141610, Note_on_c, 0, 70, 81
2, 141734, Note_on_c, 0, 66, 77
2, 141824, Note_on_c, 0, 58, 70
2, 141903, Note_on_c, 0, 54, 74
2, 141967, Note_on_c, 0, 51, 63
2, 142032, Note_on_c, 0, 46, 65
2, 142061, Control_c, 0, 64, 104
2, 142081, Control_c, 0, 64, 76
2, 142100, Control_c, 0, 64, 63
2, 142118, Control_c, 0, 64, 42
2, 142138, Control_c, 0, 64, 24
2, 142177, Control_c, 0, 64, 35
2, 142195, Control_c, 0, 64, 51
2, 142215, Control_c, 0, 64, 61
2, 142234, Control_c, 0, 64, 65
2, 142253, Control_c, 0, 64, 68
2, 142272, Control_c, 0, 64, 73
2, 142292, Control_c, 0, 64, 82
2, 142311, Control_c, 0, 64, 100
2, 142330, Control_c, 0, 64, 127
2, 142815, Note_on_c, 0, 46, 0
2, 142984, Note_on_c, 0, 58, 0
2, 143342, Note_on_c, 0, 46, 82
2, 143347, Note_on_c, 0, 66, 0
2, 143367, Control_c, 0, 64, 113
2, 143386, Control_c, 0, 64, 81
2, 143396, Note_on_c, 0, 51, 0
2, 143406, Control_c, 0, 64, 63
2, 143424, Control_c, 0, 64, 38
2, 143444, Control_c, 0, 64, 0
2, 143468, Note_on_c, 0, 54, 0
2, 143482, Control_c, 0, 64, 18
2, 143501, Control_c, 0, 64, 43
2, 143520, Control_c, 0, 64, 59
2, 143540, Control_c, 0, 64, 64
2, 143558, Control_c, 0, 64, 67
2, 143578, Control_c, 0, 64, 70
2, 143597, Control_c, 0, 64, 77
2, 143617, Control_c, 0, 64, 91
2, 143635, Control_c, 0, 64, 127
2, 143660, Note_on_c, 0, 70, 0
2, 143693, Note_on_c, 0, 53, 71
2, 143828, Note_on_c, 0, 56, 77
2, 143834, Note_on_c, 0, 46, 0
2, 143897, Note_on_c, 0, 58, 65
2, 143923, Note_on_c, 0, 75, 0
2, 143979, Note_on_c, 0, 65, 65
2, 144026, Note_on_c, 0, 70, 78
2, 144112, Note_on_c, 0, 74, 81
2, 144468, Note_on_c, 0, 74, 0
2, 144512, Note_on_c, 0, 58, 0
2, 145130, Note_on_c, 0, 56, 0
2, 145311, Note_on_c, 0, 53, 0
2, 145648, Note_on_c, 0, 75, 73
2, 145808, Note_on_c, 0, 65, 0
2, 145901, Note_on_c, 0, 70, 0
2, 146511, Note_on_c, 0, 75, 0
2, 147007, Note_on_c, 0, 47, 43
2, 147024, Note_on_c, 0, 59, 38
2, 147028, Note_on_c, 0, 75, 49
2, 147033, Control_c, 0, 64, 92
2, 147038, Note_on_c, 0, 70, 44
2, 147049, Note_on_c, 0, 63, 31
2, 147052, Control_c, 0, 64, 76
2, 147071, Control_c, 0, 64, 64
2, 147091, Control_c, 0, 64, 49
2, 147110, Control_c, 0, 64, 15
2, 147129, Control_c, 0, 64, 0
2, 147359, Control_c, 0, 64, 42
2, 147379, Control_c, 0, 64, 57
2, 147397, Control_c, 0, 64, 62
2, 147417, Control_c, 0, 64, 64
2, 147436, Control_c, 0, 64, 65
2, 147456, Control_c, 0, 64, 67
2, 147474, Control_c, 0, 64, 70
2, 147494, Control_c, 0, 64, 75
2, 147513, Control_c, 0, 64, 85
2, 147532, Control_c, 0, 64, 103
2, 147551, Control_c, 0, 64, 127
2, 147705, Note_on_c, 0, 47, 0
2, 147786, Note_on_c, 0, 59, 0
2, 147900, Note_on_c, 0, 63, 0
2, 148430, Note_on_c, 0, 68, 51
2, 148549, Note_on_c, 0, 70, 0
2, 148699, Note_on_c, 0, 67, 47
2, 148707, Note_on_c, 0, 68, 0
2, 148909, Note_on_c, 0, 67, 0
2, 148916, Note_on_c, 0, 68, 49
2, 149167, Note_on_c, 0, 59, 48
2, 149178, Note_on_c, 0, 63, 41
2, 149183, Control_c, 0, 64, 87
2, 149196, Note_on_c, 0, 68, 0
2, 149203, Control_c, 0, 64, 69
2, 149220, Note_on_c, 0, 70, 49
2, 149222, Control_c, 0, 64, 55
2, 149241, Control_c, 0, 64, 0
2, 149337, Control_c, 0, 64, 37
2, 149356, Control_c, 0, 64, 58
2, 149376, Control_c, 0, 64, 63
2, 149394, Control_c, 0, 64, 66
2, 149394, Note_on_c, 0, 70, 0
2, 149414, Control_c, 0, 64, 68
2, 149433, Control_c, 0, 64, 73
2, 149438, Note_on_c, 0, 68, 45
2, 149452, Control_c, 0, 64, 84
2, 149471, Control_c, 0, 64, 107
2, 149491, Control_c, 0, 64, 127
2, 149517, Note_on_c, 0, 68, 0
2, 149542, Note_on_c, 0, 59, 0
2, 149596, Note_on_c, 0, 70, 37
2, 149597, Note_on_c, 0, 63, 0
2, 149665, Note_on_c, 0, 70, 0
2, 149703, Note_on_c, 0, 68, 40
2, 149744, Note_on_c, 0, 68, 0
2, 149813, Note_on_c, 0, 70, 47
2, 149857, Note_on_c, 0, 70, 0
2, 149880, Note_on_c, 0, 68, 48
2, 149926, Note_on_c, 0, 68, 0
2, 149975, Note_on_c, 0, 70, 55
2, 150020, Note_on_c, 0, 70, 0
2, 150052, Note_on_c, 0, 68, 54
2, 150084, Note_on_c, 0, 68, 0
2, 150136, Note_on_c, 0, 70, 51
2, 150178, Note_on_c, 0, 70, 0
2, 150200, Note_on_c, 0, 68, 52
2, 150240, Note_on_c, 0, 68, 0
2, 150290, Note_on_c, 0, 70, 55
2, 150331, Note_on_c, 0, 70, 0
2, 150363, Note_on_c, 0, 68, 55
2, 150396, Note_on_c, 0, 68, 0
2, 150439, Note_on_c, 0, 70, 54
2, 150480, Note_on_c, 0, 70, 0
2, 150514, Note_on_c, 0, 68, 52
2, 150551, Note_on_c, 0, 68, 0
2, 150591, Note_on_c, 0, 63, 45
2, 150591, Note_on_c, 0, 70, 55
2, 150592, Note_on_c, 0, 59, 45
2, 150636, Note_on_c, 0, 70, 0
2, 150673, Note_on_c, 0, 68, 54
2, 150712, Note_on_c, 0, 68, 0
2, 150751, Note_on_c, 0, 70, 53
2, 150791, Note_on_c, 0, 70, 0
2, 150826, Note_on_c, 0, 68, 60
2, 150862, Note_on_c, 0, 68, 0
2, 150897, Note_on_c, 0, 70, 64
2, 150937, Note_on_c, 0, 70, 0
2, 150971, Note_on_c, 0, 68, 50
2, 150998, Note_on_c, 0, 68, 0
2, 151022, Note_on_c, 0, 70, 58
2, 151054, Note_on_c, 0, 70, 0
2, 151067, Note_on_c, 0, 68, 50
2, 151331, Note_on_c, 0, 59, 0
2, 151355, Note_on_c, 0, 63, 0
2, 151567, Note_on_c, 0, 68, 0
2, 151612, Note_on_c, 0, 67, 48
2, 151740, Note_on_c, 0, 67, 0
2, 151753, Note_on_c, 0, 68, 57
2, 151968, Control_c, 0, 64, 102
2, 151968, Note_on_c, 0, 55, 37
2, 151984, Note_on_c, 0, 58, 38
2, 151987, Control_c, 0, 64, 82
2, 151987, Note_on_c, 0, 63, 39
2, 151987, Note_on_c, 0, 70, 58
2, 152003, Note_on_c, 0, 68, 0
2, 152006, Control_c, 0, 64, 68
2, 152025, Control_c, 0, 64, 58
2, 152045, Control_c, 0, 64, 27
2, 152063, Control_c, 0, 64, 0
2, 152217, Control_c, 0, 64, 36
2, 152236, Control_c, 0, 64, 56
2, 152256, Control_c, 0, 64, 62
2, 152274, Control_c, 0, 64, 64
2, 152294, Control_c, 0, 64, 65
2, 152313, Control_c, 0, 64, 66
2, 152323, Note_on_c, 0, 75, 0
2, 152332, Control_c, 0, 64, 69
2, 152351, Control_c, 0, 64, 75
2, 152371, Control_c, 0, 64, 86
2, 152390, Control_c, 0, 64, 107
2, 152409, Control_c, 0, 64, 127
2, 152702, Note_on_c, 0, 63, 0
2, 152733, Note_on_c, 0, 58, 0
2, 152767, Note_on_c, 0, 55, 0
2, 153486, Control_c, 0, 64, 106
2, 153504, Control_c, 0, 64, 89
2, 153504, Note_on_c, 0, 55, 31
2, 153508, Note_on_c, 0, 63, 32
2, 153519, Note_on_c, 0, 58, 27
2, 153524, Control_c, 0, 64, 75
2, 153543, Control_c, 0, 64, 66
2, 153561, Control_c, 0, 64, 57
2, 153581, Control_c, 0, 64, 27
2, 153600, Control_c, 0, 64, 0
2, 153754, Control_c, 0, 64, 31
2, 153773, Control_c, 0, 64, 52
2, 153792, Control_c, 0, 64, 60
2, 153812, Control_c, 0, 64, 63
2, 153831, Control_c, 0, 64, 64
2, 153850, Control_c, 0, 64, 66
2, 153869, Control_c, 0, 64, 69
2, 153889, Control_c, 0, 64, 75
2, 153907, Control_c, 0, 64, 87
2, 153927, Control_c, 0, 64, 119
2, 153946, Control_c, 0, 64, 127
2, 154449, Note_on_c, 0, 63, 0
2, 154459, Note_on_c, 0, 58, 0
2, 154488, Note_on_c, 0, 55, 0
2, 154573, Note_on_c, 0, 75, 58
2, 154619, Note_on_c, 0, 70, 0
2, 154860, Note_on_c, 0, 73, 65
2, 154959, Note_on_c, 0, 75, 0
2, 155037, Note_on_c, 0, 71, 62
2, 155047, Note_on_c, 0, 73, 0
2, 155195, Control_c, 0, 64, 94
2, 155214, Control_c, 0, 64, 78
2, 155233, Control_c, 0, 64, 68
2, 155248, Note_on_c, 0, 55, 30
2, 155253, Control_c, 0, 64, 61
2, 155264, Note_on_c, 0, 63, 24
2, 155267, Note_on_c, 0, 58, 24
2, 155272, Control_c, 0, 64, 52
2, 155280, Note_on_c, 0, 73, 54
2, 155293, Control_c, 0, 64, 41
2, 155313, Control_c, 0, 64, 29
2, 155332, Control_c, 0, 64, 9
2, 155336, Note_on_c, 0, 71, 0
2, 155351, Control_c, 0, 64, 0
2, 155601, Control_c, 0, 64, 37
2, 155620, Control_c, 0, 64, 54
2, 155639, Control_c, 0, 64, 61
2, 155659, Control_c, 0, 64, 63
2, 155678, Control_c, 0, 64, 64
2, 155697, Control_c, 0, 64, 66
2, 155716, Control_c, 0, 64, 67
2, 155736, Control_c, 0, 64, 70
2, 155755, Control_c, 0, 64, 75
2, 155773, Control_c, 0, 64, 83
2, 155793, Control_c, 0, 64, 99
2, 155812, Control_c, 0, 64, 127
2, 156433, Note_on_c, 0, 63, 0
2, 156562, Note_on_c, 0, 70, 61
2, 156714, Note_on_c, 0, 58, 0
2, 156795, Note_on_c, 0, 70, 0
2, 156898, Note_on_c, 0, 56, 33
2, 156931, Note_on_c, 0, 59, 34
2, 156970, Note_on_c, 0, 73, 0
2, 157019, Note_on_c, 0, 55, 0
2, 157071, Note_on_c, 0, 70, 56
2, 157075, Note_on_c, 0, 63, 33
2, 157079, Note_on_c, 0, 68, 42
2, 157097, Control_c, 0, 64, 90
2, 157116, Control_c, 0, 64, 74
2, 157134, Control_c, 0, 64, 65
2, 157154, Control_c, 0, 64, 58
2, 157173, Control_c, 0, 64, 52
2, 157193, Control_c, 0, 64, 47
2, 157211, Control_c, 0, 64, 41
2, 157231, Control_c, 0, 64, 32
2, 157250, Control_c, 0, 64, 17
2, 157270, Control_c, 0, 64, 0
2, 157460, Note_on_c, 0, 71, 49
2, 157494, Note_on_c, 0, 70, 0
2, 158677, Note_on_c, 0, 52, 40
2, 158792, Note_on_c, 0, 56, 0
2, 158805, Control_c, 0, 64, 22
2, 158825, Control_c, 0, 64, 42
2, 158844, Control_c, 0, 64, 52
2, 158863, Control_c, 0, 64, 57
2, 158882, Control_c, 0, 64, 59
2, 158902, Control_c, 0, 64, 61
2, 158913, Note_on_c, 0, 68, 0
2, 158920, Control_c, 0, 64, 63
2, 158938, Note_on_c, 0, 59, 0
2, 158940, Control_c, 0, 64, 64
2, 158959, Control_c, 0, 64, 65
2, 158979, Control_c, 0, 64, 67
2, 158997, Control_c, 0, 64, 69
2, 159017, Control_c, 0, 64, 73
2, 159036, Control_c, 0, 64, 80
2, 159054, Control_c, 0, 64, 90
2, 159074, Control_c, 0, 64, 102
2, 159093, Control_c, 0, 64, 127
2, 159265, Note_on_c, 0, 71, 0
2, 159279, Note_on_c, 0, 63, 0
2, 159663, Note_on_c, 0, 71, 57
2, 159693, Note_on_c, 0, 63, 37
2, 159723, Note_on_c, 0, 71, 0
2, 159737, Note_on_c, 0, 63, 0
2, 159782, Note_on_c, 0, 52, 0
2, 159865, Note_on_c, 0, 70, 58
2, 159877, Note_on_c, 0, 61, 60
2, 159925, Note_on_c, 0, 61, 0
2, 159940, Note_on_c, 0, 70, 0
2, 160054, Note_on_c, 0, 68, 57
2, 160077, Note_on_c, 0, 59, 46
2, 160157, Note_on_c, 0, 59, 0
2, 160270, Note_on_c, 0, 52, 44
2, 160279, Note_on_c, 0, 68, 0
2, 160283, Control_c, 0, 64, 113
2, 160302, Control_c, 0, 64, 87
2, 160303, Note_on_c, 0, 70, 54
2, 160305, Note_on_c, 0, 61, 45
2, 160321, Control_c, 0, 64, 70
2, 160341, Control_c, 0, 64, 61
2, 160360, Control_c, 0, 64, 41
2, 160379, Control_c, 0, 64, 0
2, 160590, Control_c, 0, 64, 31
2, 160609, Control_c, 0, 64, 54
2, 160629, Control_c, 0, 64, 61
2, 160647, Control_c, 0, 64, 64
2, 160667, Control_c, 0, 64, 65
2, 160686, Control_c, 0, 64, 67
2, 160705, Control_c, 0, 64, 69
2, 160724, Control_c, 0, 64, 72
2, 160744, Control_c, 0, 64, 79
2, 160763, Control_c, 0, 64, 89
2, 160782, Control_c, 0, 64, 103
2, 160801, Control_c, 0, 64, 127
2, 161054, Note_on_c, 0, 61, 0
2, 161463, Note_on_c, 0, 67, 49
2, 161501, Note_on_c, 0, 70, 0
2, 161502, Note_on_c, 0, 58, 28
2, 161603, Note_on_c, 0, 67, 0
2, 161665, Note_on_c, 0, 58, 0
2, 161966, Note_on_c, 0, 53, 39
2, 161972, Control_c, 0, 64, 115
2, 161987, Note_on_c, 0, 68, 42
2, 161988, Note_on_c, 0, 52, 0
2, 161992, Control_c, 0, 64, 85
2, 161995, Note_on_c, 0, 59, 36
2, 162005, Note_on_c, 0, 62, 34
2, 162010, Control_c, 0, 64, 70
2, 162030, Control_c, 0, 64, 61
2, 162049, Control_c, 0, 64, 44
2, 162069, Control_c, 0, 64, 20
2, 162087, Control_c, 0, 64, 0
2, 162261, Control_c, 0, 64, 41
2, 162280, Control_c, 0, 64, 56
2, 162299, Control_c, 0, 64, 61
2, 162318, Control_c, 0, 64, 63
2, 162338, Control_c, 0, 64, 64
2, 162356, Control_c, 0, 64, 66
2, 162375, Control_c, 0, 64, 68
2, 162395, Control_c, 0, 64, 71
2, 162414, Control_c, 0, 64, 76
2, 162433, Control_c, 0, 64, 84
2, 162452, Control_c, 0, 64, 94
2, 162472, Control_c, 0, 64, 105
2, 162490, Control_c, 0, 64, 119
2, 162510, Control_c, 0, 64, 127
2, 162855, Note_on_c, 0, 68, 0
2, 162863, Note_on_c, 0, 59, 0
2, 162913, Note_on_c, 0, 62, 0
2, 163547, Control_c, 0, 64, 117
2, 163566, Control_c, 0, 64, 89
2, 163585, Control_c, 0, 64, 72
2, 163586, Note_on_c, 0, 68, 42
2, 163599, Note_on_c, 0, 59, 19
2, 163604, Control_c, 0, 64, 61
2, 163614, Note_on_c, 0, 62, 23
2, 163624, Control_c, 0, 64, 34
2, 163643, Control_c, 0, 64, 11
2, 163662, Control_c, 0, 64, 0
2, 163739, Control_c, 0, 64, 15
2, 163758, Control_c, 0, 64, 35
2, 163778, Control_c, 0, 64, 48
2, 163796, Control_c, 0, 64, 58
2, 163815, Control_c, 0, 64, 62
2, 163835, Control_c, 0, 64, 63
2, 163854, Control_c, 0, 64, 65
2, 163873, Control_c, 0, 64, 66
2, 163892, Control_c, 0, 64, 68
2, 163912, Control_c, 0, 64, 70
2, 163930, Control_c, 0, 64, 75
2, 163950, Control_c, 0, 64, 83
2, 163969, Control_c, 0, 64, 93
2, 163990, Control_c, 0, 64, 105
2, 164008, Control_c, 0, 64, 127
2, 164694, Note_on_c, 0, 53, 0
2, 164701, Note_on_c, 0, 54, 43
2, 164805, Note_on_c, 0, 62, 0
2, 164809, Note_on_c, 0, 68, 0
2, 164864, Note_on_c, 0, 59, 0
2, 164941, Note_on_c, 0, 53, 49
2, 165067, Note_on_c, 0, 54, 0
2, 165085, Note_on_c, 0, 53, 0
2, 165110, Note_on_c, 0, 51, 52
2, 165277, Control_c, 0, 64, 119
2, 165295, Control_c, 0, 64, 95
2, 165314, Note_on_c, 0, 51, 0
2, 165315, Control_c, 0, 64, 80
2, 165334, Control_c, 0, 64, 69
2, 165334, Note_on_c, 0, 53, 43
2, 165354, Control_c, 0, 64, 63
2, 165362, Note_on_c, 0, 68, 35
2, 165366, Note_on_c, 0, 59, 12
2, 165372, Control_c, 0, 64, 56
2, 165372, Note_on_c, 0, 62, 23
2, 165392, Control_c, 0, 64, 48
2, 165411, Control_c, 0, 64, 43
2, 165430, Control_c, 0, 64, 36
2, 165449, Control_c, 0, 64, 26
2, 165469, Control_c, 0, 64, 0
2, 165939, Note_on_c, 0, 53, 0
2, 165945, Note_on_c, 0, 54, 46
2, 166140, Note_on_c, 0, 54, 0
2, 166148, Note_on_c, 0, 56, 49
2, 166338, Note_on_c, 0, 53, 48
2, 166357, Note_on_c, 0, 56, 0
2, 166531, Note_on_c, 0, 53, 0
2, 166535, Note_on_c, 0, 54, 58
2, 166553, Note_on_c, 0, 68, 0
2, 166652, Note_on_c, 0, 62, 0
2, 166714, Note_on_c, 0, 56, 55
2, 166720, Note_on_c, 0, 54, 0
2, 166742, Note_on_c, 0, 59, 0
2, 166908, Note_on_c, 0, 56, 0
2, 166932, Note_on_c, 0, 50, 38
2, 166935, Note_on_c, 0, 68, 48
2, 166962, Note_on_c, 0, 65, 31
2, 167099, Control_c, 0, 64, 18
2, 167118, Control_c, 0, 64, 31
2, 167138, Control_c, 0, 64, 42
2, 167156, Control_c, 0, 64, 51
2, 167175, Control_c, 0, 64, 56
2, 167195, Control_c, 0, 64, 60
2, 167214, Control_c, 0, 64, 62
2, 167233, Control_c, 0, 64, 63
2, 167252, Control_c, 0, 64, 64
2, 167272, Control_c, 0, 64, 65
2, 167290, Control_c, 0, 64, 66
2, 167310, Control_c, 0, 64, 68
2, 167329, Control_c, 0, 64, 70
2, 167349, Control_c, 0, 64, 75
2, 167367, Control_c, 0, 64, 82
2, 167387, Control_c, 0, 64, 91
2, 167406, Control_c, 0, 64, 103
2, 167425, Control_c, 0, 64, 127
2, 167567, Note_on_c, 0, 68, 0
2, 167650, Note_on_c, 0, 65, 0
2, 168424, Control_c, 0, 64, 102
2, 168442, Control_c, 0, 64, 79
2, 168462, Control_c, 0, 64, 68
2, 168478, Note_on_c, 0, 68, 34
2, 168481, Control_c, 0, 64, 60
2, 168486, Note_on_c, 0, 59, 21
2, 168498, Note_on_c, 0, 65, 17
2, 168501, Control_c, 0, 64, 51
2, 168520, Control_c, 0, 64, 42
2, 168539, Control_c, 0, 64, 36
2, 168558, Control_c, 0, 64, 34
2, 168596, Control_c, 0, 64, 39
2, 168615, Control_c, 0, 64, 51
2, 168635, Control_c, 0, 64, 60
2, 168654, Control_c, 0, 64, 63
2, 168673, Control_c, 0, 64, 65
2, 168692, Control_c, 0, 64, 66
2, 168712, Control_c, 0, 64, 69
2, 168730, Control_c, 0, 64, 72
2, 168750, Control_c, 0, 64, 78
2, 168769, Control_c, 0, 64, 86
2, 168790, Control_c, 0, 64, 97
2, 168808, Control_c, 0, 64, 113
2, 168828, Control_c, 0, 64, 127
2, 169432, Note_on_c, 0, 50, 0
2, 169446, Note_on_c, 0, 51, 43
2, 169622, Note_on_c, 0, 68, 0
2, 169684, Note_on_c, 0, 51, 0
2, 169704, Note_on_c, 0, 65, 0
2, 169709, Note_on_c, 0, 50, 44
2, 169757, Note_on_c, 0, 59, 0
2, 169854, Note_on_c, 0, 50, 0
2, 169871, Note_on_c, 0, 48, 49
2, 169998, Control_c, 0, 64, 123
2, 170018, Control_c, 0, 64, 110
2, 170036, Control_c, 0, 64, 97
2, 170055, Control_c, 0, 64, 85
2, 170075, Control_c, 0, 64, 74
2, 170084, Note_on_c, 0, 48, 0
2, 170094, Control_c, 0, 64, 66
2, 170110, Note_on_c, 0, 50, 47
2, 170113, Control_c, 0, 64, 60
2, 170113, Note_on_c, 0, 59, 36
2, 170131, Note_on_c, 0, 65, 29
2, 170132, Control_c, 0, 64, 53
2, 170132, Note_on_c, 0, 68, 40
2, 170152, Control_c, 0, 64, 46
2, 170170, Control_c, 0, 64, 43
2, 170190, Control_c, 0, 64, 38
2, 170209, Control_c, 0, 64, 31
2, 170229, Control_c, 0, 64, 17
2, 170247, Control_c, 0, 64, 0
2, 170700, Note_on_c, 0, 50, 0
2, 170700, Note_on_c, 0, 51, 44
2, 170871, Note_on_c, 0, 51, 0
2, 170892, Note_on_c, 0, 53, 48
2, 171084, Note_on_c, 0, 50, 49
2, 171100, Note_on_c, 0, 53, 0
2, 171120, Note_on_c, 0, 65, 0
2, 171130, Note_on_c, 0, 68, 0
2, 171143, Note_on_c, 0, 59, 0
2, 171265, Note_on_c, 0, 51, 44
2, 171282, Note_on_c, 0, 50, 0
2, 171414, Note_on_c, 0, 51, 0
2, 171424, Note_on_c, 0, 53, 40
2, 171649, Note_on_c, 0, 65, 32
2, 171651, Note_on_c, 0, 62, 29
2, 171651, Note_on_c, 0, 68, 41
2, 171654, Note_on_c, 0, 47, 38
2, 171654, Note_on_c, 0, 53, 0
2, 171745, Control_c, 0, 64, 30
2, 171764, Control_c, 0, 64, 44
2, 171784, Control_c, 0, 64, 54
2, 171803, Control_c, 0, 64, 58
2, 171822, Control_c, 0, 64, 61
2, 171841, Control_c, 0, 64, 62
2, 171861, Control_c, 0, 64, 64
2, 171880, Control_c, 0, 64, 65
2, 171899, Control_c, 0, 64, 67
2, 171918, Control_c, 0, 64, 70
2, 171938, Control_c, 0, 64, 77
2, 171956, Control_c, 0, 64, 89
2, 171975, Control_c, 0, 64, 108
2, 171995, Control_c, 0, 64, 127
2, 172232, Note_on_c, 0, 62, 0
2, 172320, Note_on_c, 0, 68, 0
2, 172414, Note_on_c, 0, 65, 0
2, 173110, Control_c, 0, 64, 116
2, 173128, Control_c, 0, 64, 104
2, 173143, Note_on_c, 0, 62, 33
2, 173148, Control_c, 0, 64, 95
2, 173151, Note_on_c, 0, 65, 40
2, 173153, Note_on_c, 0, 68, 42
2, 173167, Control_c, 0, 64, 87
2, 173186, Control_c, 0, 64, 80
2, 173205, Control_c, 0, 64, 75
2, 173225, Control_c, 0, 64, 70
2, 173244, Control_c, 0, 64, 64
2, 173261, Control_c, 0, 64, 60
2, 173280, Control_c, 0, 64, 55
2, 173300, Control_c, 0, 64, 51
2, 173319, Control_c, 0, 64, 47
2, 173337, Control_c, 0, 64, 44
2, 173357, Control_c, 0, 64, 40
2, 173376, Control_c, 0, 64, 35
2, 173395, Control_c, 0, 64, 28
2, 173414, Control_c, 0, 64, 25
2, 173434, Control_c, 0, 64, 23
2, 173453, Control_c, 0, 64, 21
2, 173472, Control_c, 0, 64, 20
2, 173491, Control_c, 0, 64, 19
2, 173960, Note_on_c, 0, 49, 52
2, 173990, Note_on_c, 0, 47, 0
2, 174221, Control_c, 0, 64, 21
2, 174240, Control_c, 0, 64, 27
2, 174260, Control_c, 0, 64, 33
2, 174279, Control_c, 0, 64, 39
2, 174290, Note_on_c, 0, 47, 54
2, 174297, Control_c, 0, 64, 44
2, 174317, Control_c, 0, 64, 48
2, 174323, Note_on_c, 0, 49, 0
2, 174336, Control_c, 0, 64, 52
2, 174355, Control_c, 0, 64, 56
2, 174374, Control_c, 0, 64, 57
2, 174394, Control_c, 0, 64, 58
2, 174413, Control_c, 0, 64, 59
2, 174471, Control_c, 0, 64, 59
2, 174537, Note_on_c, 0, 46, 65
2, 174544, Note_on_c, 0, 47, 0
2, 174551, Note_on_c, 0, 68, 0
2, 174566, Control_c, 0, 64, 59
2, 174616, Note_on_c, 0, 65, 0
2, 174630, Note_on_c, 0, 62, 0
2, 174643, Control_c, 0, 64, 58
2, 174740, Control_c, 0, 64, 58
2, 174767, Note_on_c, 0, 68, 56
2, 174770, Note_on_c, 0, 62, 55
2, 174773, Note_on_c, 0, 47, 68
2, 174774, Note_on_c, 0, 46, 0
2, 174776, Note_on_c, 0, 65, 49
2, 174777, Control_c, 0, 64, 57
2, 174816, Control_c, 0, 64, 57
2, 174874, Control_c, 0, 64, 56
2, 174893, Control_c, 0, 64, 56
2, 174912, Control_c, 0, 64, 55
2, 174931, Control_c, 0, 64, 55
2, 174970, Control_c, 0, 64, 54
2, 174989, Control_c, 0, 64, 53
2, 175000, Note_on_c, 0, 46, 69
2, 175008, Control_c, 0, 64, 53
2, 175028, Control_c, 0, 64, 52
2, 175046, Control_c, 0, 64, 50
2, 175056, Note_on_c, 0, 47, 0
2, 175066, Control_c, 0, 64, 47
2, 175085, Control_c, 0, 64, 43
2, 175105, Control_c, 0, 64, 36
2, 175123, Control_c, 0, 64, 23
2, 175143, Control_c, 0, 64, 0
2, 175171, Note_on_c, 0, 44, 74
2, 175203, Note_on_c, 0, 46, 0
2, 175363, Note_on_c, 0, 46, 71
2, 175404, Note_on_c, 0, 44, 0
2, 175540, Note_on_c, 0, 47, 75
2, 175602, Note_on_c, 0, 46, 0
2, 175606, Note_on_c, 0, 62, 0
2, 175739, Note_on_c, 0, 44, 75
2, 175775, Note_on_c, 0, 65, 0
2, 175792, Note_on_c, 0, 47, 0
2, 175937, Note_on_c, 0, 46, 75
2, 176011, Note_on_c, 0, 44, 0
2, 176111, Note_on_c, 0, 68, 0
2, 176113, Note_on_c, 0, 47, 78
2, 176176, Note_on_c, 0, 46, 0
2, 176363, Note_on_c, 0, 62, 59
2, 176364, Note_on_c, 0, 38, 68
2, 176421, Note_on_c, 0, 47, 0
2, 176426, Note_on_c, 0, 65, 64
2, 176450, Control_c, 0, 64, 11
2, 176471, Control_c, 0, 64, 17
2, 176471, Note_on_c, 0, 68, 71
2, 176489, Control_c, 0, 64, 20
2, 176508, Control_c, 0, 64, 24
2, 176528, Control_c, 0, 64, 27
2, 176536, Note_on_c, 0, 62, 0
2, 176547, Control_c, 0, 64, 31
2, 176553, Note_on_c, 0, 71, 86
2, 176563, Note_on_c, 0, 65, 0
2, 176566, Control_c, 0, 64, 34
2, 176585, Control_c, 0, 64, 36
2, 176605, Control_c, 0, 64, 39
2, 176606, Note_on_c, 0, 68, 0
2, 176623, Control_c, 0, 64, 43
2, 176643, Control_c, 0, 64, 46
2, 176662, Control_c, 0, 64, 49
2, 176682, Control_c, 0, 64, 51
2, 176700, Control_c, 0, 64, 52
2, 176720, Control_c, 0, 64, 53
2, 176739, Control_c, 0, 64, 54
2, 176758, Control_c, 0, 64, 55
2, 176777, Control_c, 0, 64, 57
2, 176797, Control_c, 0, 64, 59
2, 176816, Control_c, 0, 64, 60
2, 176835, Control_c, 0, 64, 62
2, 176854, Control_c, 0, 64, 63
2, 176874, Control_c, 0, 64, 64
2, 176893, Control_c, 0, 64, 65
2, 176912, Control_c, 0, 64, 67
2, 176931, Control_c, 0, 64, 71
2, 176951, Control_c, 0, 64, 79
2, 176969, Control_c, 0, 64, 98
2, 176988, Control_c, 0, 64, 127
2, 177176, Note_on_c, 0, 38, 0
2, 177871, Control_c, 0, 64, 112
2, 177890, Control_c, 0, 64, 105
2, 177909, Control_c, 0, 64, 99
2, 177928, Control_c, 0, 64, 93
2, 177947, Control_c, 0, 64, 87
2, 177967, Control_c, 0, 64, 83
2, 177986, Control_c, 0, 64, 78
2, 178005, Control_c, 0, 64, 74
2, 178024, Control_c, 0, 64, 70
2, 178044, Control_c, 0, 64, 68
2, 178062, Control_c, 0, 64, 66
2, 178082, Control_c, 0, 64, 64
2, 178101, Control_c, 0, 64, 63
2, 178121, Control_c, 0, 64, 62
2, 178139, Control_c, 0, 64, 60
2, 178159, Control_c, 0, 64, 58
2, 178178, Control_c, 0, 64, 56
2, 178198, Control_c, 0, 64, 52
2, 178216, Control_c, 0, 64, 48
2, 178236, Control_c, 0, 64, 44
2, 178255, Control_c, 0, 64, 39
2, 178274, Control_c, 0, 64, 33
2, 178293, Control_c, 0, 64, 28
2, 178313, Control_c, 0, 64, 22
2, 178332, Control_c, 0, 64, 13
2, 178351, Control_c, 0, 64, 0
2, 178538, Note_on_c, 0, 70, 62
2, 178879, Note_on_c, 0, 71, 0
2, 178916, Note_on_c, 0, 68, 70
2, 179004, Control_c, 0, 64, 9
2, 179008, Note_on_c, 0, 70, 0
2, 179022, Control_c, 0, 64, 11
2, 179061, Control_c, 0, 64, 13
2, 179099, Control_c, 0, 64, 15
2, 179119, Control_c, 0, 64, 17
2, 179138, Control_c, 0, 64, 19
2, 179158, Control_c, 0, 64, 20
2, 179176, Control_c, 0, 64, 21
2, 179183, Note_on_c, 0, 66, 77
2, 179215, Control_c, 0, 64, 22
2, 179225, Note_on_c, 0, 68, 0
2, 179253, Control_c, 0, 64, 23
2, 179273, Control_c, 0, 64, 24
2, 179292, Control_c, 0, 64, 25
2, 179311, Control_c, 0, 64, 26
2, 179349, Control_c, 0, 64, 27
2, 179401, Note_on_c, 0, 65, 71
2, 179408, Note_on_c, 0, 66, 0
2, 179445, Control_c, 0, 64, 27
2, 179575, Note_on_c, 0, 65, 0
2, 179593, Note_on_c, 0, 63, 76
2, 179618, Control_c, 0, 64, 28
2, 179768, Note_on_c, 0, 62, 72
2, 179789, Note_on_c, 0, 63, 0
2, 179938, Note_on_c, 0, 65, 75
2, 179968, Note_on_c, 0, 62, 0
2, 180041, Control_c, 0, 64, 29
2, 180118, Control_c, 0, 64, 29
2, 180128, Note_on_c, 0, 68, 78
2, 180136, Control_c, 0, 64, 30
2, 180156, Control_c, 0, 64, 31
2, 180168, Note_on_c, 0, 65, 0
2, 180233, Control_c, 0, 64, 31
2, 180287, Note_on_c, 0, 71, 81
2, 180307, Note_on_c, 0, 68, 0
2, 180347, Control_c, 0, 64, 32
2, 180424, Control_c, 0, 64, 32
2, 180449, Note_on_c, 0, 71, 0
2, 180494, Note_on_c, 0, 74, 83
2, 180694, Note_on_c, 0, 77, 87
2, 180741, Note_on_c, 0, 74, 0
2, 180935, Note_on_c, 0, 80, 90
2, 180987, Note_on_c, 0, 77, 0
2, 181278, Note_on_c, 0, 83, 87
2, 181307, Control_c, 0, 64, 33
2, 181315, Note_on_c, 0, 80, 0
2, 181540, Note_on_c, 0, 82, 84
2, 181578, Note_on_c, 0, 83, 0
2, 181596, Control_c, 0, 64, 34
2, 181692, Control_c, 0, 64, 34
2, 181749, Control_c, 0, 64, 35
2, 181750, Note_on_c, 0, 82, 0
2, 181752, Note_on_c, 0, 74, 80
2, 181768, Control_c, 0, 64, 35
2, 181807, Control_c, 0, 64, 36
2, 181864, Control_c, 0, 64, 36
2, 181903, Control_c, 0, 64, 37
2, 181962, Control_c, 0, 64, 37
2, 182026, Note_on_c, 0, 75, 84
2, 182070, Note_on_c, 0, 74, 0
2, 182154, Control_c, 0, 64, 39
2, 182173, Control_c, 0, 64, 43
2, 182192, Control_c, 0, 64, 49
2, 182211, Control_c, 0, 64, 55
2, 182230, Control_c, 0, 64, 60
2, 182249, Control_c, 0, 64, 63
2, 182268, Control_c, 0, 64, 65
2, 182288, Control_c, 0, 64, 67
2, 182307, Control_c, 0, 64, 70
2, 182326, Control_c, 0, 64, 80
2, 182345, Control_c, 0, 64, 97
2, 182365, Control_c, 0, 64, 127
2, 182649, Note_on_c, 0, 75, 0
2, 183247, Control_c, 0, 64, 91
2, 183266, Control_c, 0, 64, 67
2, 183267, Note_on_c, 0, 39, 64
2, 183277, Note_on_c, 0, 51, 52
2, 183285, Control_c, 0, 64, 21
2, 183291, Note_on_c, 0, 70, 80
2, 183292, Note_on_c, 0, 66, 74
2, 183304, Control_c, 0, 64, 0
2, 183362, Control_c, 0, 64, 18
2, 183381, Control_c, 0, 64, 55
2, 183401, Control_c, 0, 64, 66
2, 183419, Control_c, 0, 64, 77
2, 183439, Control_c, 0, 64, 127
2, 183451, Note_on_c, 0, 39, 0
2, 183494, Note_on_c, 0, 70, 0
2, 183529, Note_on_c, 0, 66, 0
2, 183530, Note_on_c, 0, 51, 0
2, 183779, Note_on_c, 0, 51, 47
2, 183789, Note_on_c, 0, 46, 53
2, 183808, Note_on_c, 0, 54, 56
2, 183841, Note_on_c, 0, 63, 72
2, 183841, Note_on_c, 0, 68, 77
2, 183884, Control_c, 0, 64, 113
2, 183902, Control_c, 0, 64, 80
2, 183921, Control_c, 0, 64, 64
2, 183941, Control_c, 0, 64, 18
2, 183960, Control_c, 0, 64, 0
2, 184126, Note_on_c, 0, 66, 77
2, 184185, Note_on_c, 0, 68, 0
2, 184383, Control_c, 0, 64, 25
2, 184402, Control_c, 0, 64, 50
2, 184422, Control_c, 0, 64, 60
2, 184440, Control_c, 0, 64, 64
2, 184460, Control_c, 0, 64, 67
2, 184479, Control_c, 0, 64, 70
2, 184499, Control_c, 0, 64, 76
2, 184517, Control_c, 0, 64, 86
2, 184537, Control_c, 0, 64, 103
2, 184556, Control_c, 0, 64, 127
2, 184860, Note_on_c, 0, 46, 0
2, 184987, Note_on_c, 0, 51, 0
2, 184997, Note_on_c, 0, 54, 0
2, 185119, Note_on_c, 0, 66, 0
2, 185132, Note_on_c, 0, 63, 0
2, 185169, Note_on_c, 0, 46, 45
2, 185278, Note_on_c, 0, 53, 49
2, 185346, Note_on_c, 0, 56, 56
2, 185392, Note_on_c, 0, 65, 57
2, 185428, Note_on_c, 0, 62, 48
2, 185438, Note_on_c, 0, 65, 0
2, 185439, Control_c, 0, 64, 102
2, 185455, Note_on_c, 0, 66, 66
2, 185459, Control_c, 0, 64, 81
2, 185477, Control_c, 0, 64, 66
2, 185497, Control_c, 0, 64, 44
2, 185516, Control_c, 0, 64, 0
2, 185520, Note_on_c, 0, 65, 68
2, 185580, Note_on_c, 0, 66, 0
2, 185905, Note_on_c, 0, 63, 58
2, 185946, Note_on_c, 0, 65, 0
2, 186010, Note_on_c, 0, 62, 0
2, 186386, Note_on_c, 0, 65, 51
2, 186453, Note_on_c, 0, 63, 0
2, 186553, Control_c, 0, 64, 15
2, 186572, Control_c, 0, 64, 34
2, 186591, Control_c, 0, 64, 48
2, 186611, Control_c, 0, 64, 57
2, 186630, Control_c, 0, 64, 61
2, 186649, Control_c, 0, 64, 63
2, 186668, Control_c, 0, 64, 64
2, 186669, Note_on_c, 0, 46, 0
2, 186688, Control_c, 0, 64, 65
2, 186707, Control_c, 0, 64, 67
2, 186727, Control_c, 0, 64, 70
2, 186735, Note_on_c, 0, 53, 0
2, 186746, Control_c, 0, 64, 77
2, 186766, Control_c, 0, 64, 87
2, 186784, Control_c, 0, 64, 100
2, 186804, Control_c, 0, 64, 127
2, 186891, Note_on_c, 0, 56, 0
2, 187344, Note_on_c, 0, 51, 33
2, 187386, Note_on_c, 0, 55, 37
2, 187419, Control_c, 0, 64, 107
2, 187438, Control_c, 0, 64, 96
2, 187457, Control_c, 0, 64, 84
2, 187476, Control_c, 0, 64, 73
2, 187496, Control_c, 0, 64, 64
2, 187515, Control_c, 0, 64, 50
2, 187534, Control_c, 0, 64, 26
2, 187550, Note_on_c, 0, 61, 23
2, 187551, Note_on_c, 0, 58, 18
2, 187553, Control_c, 0, 64, 0
2, 187612, Note_on_c, 0, 63, 47
2, 187651, Note_on_c, 0, 65, 0
2, 187726, Control_c, 0, 64, 28
2, 187744, Control_c, 0, 64, 46
2, 187764, Control_c, 0, 64, 57
2, 187783, Control_c, 0, 64, 62
2, 187801, Control_c, 0, 64, 64
2, 187821, Control_c, 0, 64, 66
2, 187840, Control_c, 0, 64, 68
2, 187860, Control_c, 0, 64, 73
2, 187878, Control_c, 0, 64, 81
2, 187898, Control_c, 0, 64, 93
2, 187917, Control_c, 0, 64, 117
2, 187936, Control_c, 0, 64, 127
2, 188092, Note_on_c, 0, 51, 0
2, 188106, Note_on_c, 0, 61, 0
2, 188319, Note_on_c, 0, 58, 0
2, 188387, Note_on_c, 0, 55, 0
2, 188907, Note_on_c, 0, 51, 33
2, 188949, Control_c, 0, 64, 112
2, 188964, Note_on_c, 0, 55, 39
2, 188968, Control_c, 0, 64, 93
2, 188987, Control_c, 0, 64, 78
2, 189007, Control_c, 0, 64, 66
2, 189026, Control_c, 0, 64, 48
2, 189045, Control_c, 0, 64, 0
2, 189053, Note_on_c, 0, 58, 28
2, 189083, Note_on_c, 0, 61, 43
2, 189161, Control_c, 0, 64, 23
2, 189179, Control_c, 0, 64, 46
2, 189199, Control_c, 0, 64, 58
2, 189218, Control_c, 0, 64, 63
2, 189238, Control_c, 0, 64, 65
2, 189256, Control_c, 0, 64, 66
2, 189276, Control_c, 0, 64, 68
2, 189295, Control_c, 0, 64, 71
2, 189305, Note_on_c, 0, 51, 0
2, 189314, Control_c, 0, 64, 76
2, 189333, Control_c, 0, 64, 85
2, 189353, Control_c, 0, 64, 99
2, 189372, Control_c, 0, 64, 121
2, 189390, Control_c, 0, 64, 127
2, 189419, Note_on_c, 0, 61, 0
2, 189662, Note_on_c, 0, 58, 0
2, 189908, Note_on_c, 0, 55, 0
2, 190127, Note_on_c, 0, 65, 56
2, 190167, Note_on_c, 0, 63, 0
2, 190325, Note_on_c, 0, 67, 63
2, 190355, Note_on_c, 0, 65, 0
2, 190499, Note_on_c, 0, 68, 69
2, 190524, Control_c, 0, 64, 119
2, 190536, Note_on_c, 0, 67, 0
2, 190542, Control_c, 0, 64, 112
2, 190542, Note_on_c, 0, 51, 36
2, 190562, Control_c, 0, 64, 105
2, 190573, Note_on_c, 0, 55, 42
2, 190581, Control_c, 0, 64, 97
2, 190601, Control_c, 0, 64, 89
2, 190619, Control_c, 0, 64, 81
2, 190639, Control_c, 0, 64, 73
2, 190658, Control_c, 0, 64, 66
2, 190678, Control_c, 0, 64, 61
2, 190691, Note_on_c, 0, 58, 32
2, 190696, Control_c, 0, 64, 55
2, 190716, Control_c, 0, 64, 46
2, 190735, Control_c, 0, 64, 37
2, 190747, Note_on_c, 0, 61, 32
2, 190754, Control_c, 0, 64, 26
2, 190763, Note_on_c, 0, 70, 65
2, 190773, Control_c, 0, 64, 0
2, 190813, Note_on_c, 0, 68, 0
2, 191334, Control_c, 0, 64, 22
2, 191352, Control_c, 0, 64, 39
2, 191372, Control_c, 0, 64, 50
2, 191391, Control_c, 0, 64, 57
2, 191411, Control_c, 0, 64, 60
2, 191429, Control_c, 0, 64, 62
2, 191449, Control_c, 0, 64, 63
2, 191468, Control_c, 0, 64, 64
2, 191488, Control_c, 0, 64, 65
2, 191502, Control_c, 0, 64, 68
2, 191521, Control_c, 0, 64, 71
2, 191540, Control_c, 0, 64, 79
2, 191560, Control_c, 0, 64, 90
2, 191567, Note_on_c, 0, 64, 63
2, 191578, Control_c, 0, 64, 104
2, 191595, Note_on_c, 0, 70, 0
2, 191598, Control_c, 0, 64, 127
2, 191610, Note_on_c, 0, 51, 0
2, 191625, Note_on_c, 0, 61, 0
2, 191649, Note_on_c, 0, 58, 0
2, 191754, Note_on_c, 0, 55, 0
2, 191785, Note_on_c, 0, 63, 67
2, 191828, Note_on_c, 0, 64, 0
2, 191983, Note_on_c, 0, 61, 71
2, 192019, Note_on_c, 0, 63, 0
2, 192125, Note_on_c, 0, 61, 0
2, 192242, Note_on_c, 0, 51, 38
2, 192255, Note_on_c, 0, 56, 41
2, 192366, Control_c, 0, 64, 108
2, 192385, Control_c, 0, 64, 93
2, 192404, Control_c, 0, 64, 81
2, 192423, Control_c, 0, 64, 70
2, 192426, Note_on_c, 0, 61, 61
2, 192443, Control_c, 0, 64, 63
2, 192462, Control_c, 0, 64, 54
2, 192481, Control_c, 0, 64, 42
2, 192500, Control_c, 0, 64, 24
2, 192520, Control_c, 0, 64, 0
2, 192849, Note_on_c, 0, 58, 56
2, 192929, Note_on_c, 0, 61, 0
2, 193278, Note_on_c, 0, 58, 0
2, 193284, Note_on_c, 0, 59, 53
2, 193480, Control_c, 0, 64, 32
2, 193498, Control_c, 0, 64, 51
2, 193518, Control_c, 0, 64, 61
2, 193537, Control_c, 0, 64, 65
2, 193557, Control_c, 0, 64, 68
2, 193575, Control_c, 0, 64, 73
2, 193595, Control_c, 0, 64, 81
2, 193600, Note_on_c, 0, 51, 0
2, 193608, Note_on_c, 0, 56, 0
2, 193614, Control_c, 0, 64, 96
2, 193632, Control_c, 0, 64, 127
2, 194066, Note_on_c, 0, 51, 36
2, 194094, Control_c, 0, 64, 107
2, 194098, Note_on_c, 0, 56, 41
2, 194112, Control_c, 0, 64, 92
2, 194132, Control_c, 0, 64, 79
2, 194151, Control_c, 0, 64, 68
2, 194171, Control_c, 0, 64, 59
2, 194189, Control_c, 0, 64, 45
2, 194209, Control_c, 0, 64, 31
2, 194228, Control_c, 0, 64, 22
2, 194248, Control_c, 0, 64, 9
2, 194266, Control_c, 0, 64, 0
2, 194601, Note_on_c, 0, 59, 0
2, 194630, Note_on_c, 0, 63, 48
2, 194865, Note_on_c, 0, 65, 50
2, 194866, Note_on_c, 0, 63, 0
2, 194977, Control_c, 0, 64, 36
2, 194997, Control_c, 0, 64, 52
2, 195015, Control_c, 0, 64, 60
2, 195035, Control_c, 0, 64, 64
2, 195049, Note_on_c, 0, 65, 0
2, 195054, Control_c, 0, 64, 66
2, 195064, Note_on_c, 0, 67, 50
2, 195072, Control_c, 0, 64, 69
2, 195092, Control_c, 0, 64, 73
2, 195111, Control_c, 0, 64, 81
2, 195131, Control_c, 0, 64, 87
2, 195149, Control_c, 0, 64, 92
2, 195169, Control_c, 0, 64, 94
2, 195208, Control_c, 0, 64, 95
2, 195214, Note_on_c, 0, 56, 0
2, 195219, Note_on_c, 0, 51, 0
2, 195278, Note_on_c, 0, 68, 64
2, 195342, Control_c, 0, 64, 94
2, 195380, Control_c, 0, 64, 94
2, 195383, Note_on_c, 0, 67, 0
2, 195400, Control_c, 0, 64, 93
2, 195418, Control_c, 0, 64, 93
2, 195464, Note_on_c, 0, 70, 66
2, 195477, Control_c, 0, 64, 92
2, 195487, Note_on_c, 0, 68, 0
2, 195495, Control_c, 0, 64, 92
2, 195515, Control_c, 0, 64, 91
2, 195534, Control_c, 0, 64, 90
2, 195552, Control_c, 0, 64, 89
2, 195572, Control_c, 0, 64, 89
2, 195591, Control_c, 0, 64, 88
2, 195611, Control_c, 0, 64, 87
2, 195629, Control_c, 0, 64, 86
2, 195649, Control_c, 0, 64, 84
2, 195669, Control_c, 0, 64, 82
2, 195688, Control_c, 0, 64, 78
2, 195690, Note_on_c, 0, 51, 34
2, 195697, Note_on_c, 0, 56, 33
2, 195707, Control_c, 0, 64, 74
2, 195727, Control_c, 0, 64, 69
2, 195746, Control_c, 0, 64, 64
2, 195765, Control_c, 0, 64, 58
2, 195781, Control_c, 0, 64, 50
2, 195801, Control_c, 0, 64, 34
2, 195806, Note_on_c, 0, 71, 59
2, 195820, Control_c, 0, 64, 0
2, 195845, Note_on_c, 0, 70, 0
2, 196411, Note_on_c, 0, 70, 56
2, 196461, Note_on_c, 0, 71, 0
2, 196493, Note_on_c, 0, 68, 60
2, 196536, Note_on_c, 0, 70, 0
2, 196565, Note_on_c, 0, 66, 55
2, 196592, Note_on_c, 0, 68, 0
2, 196656, Note_on_c, 0, 66, 0
2, 196659, Note_on_c, 0, 65, 55
2, 196849, Note_on_c, 0, 66, 58
2, 196885, Note_on_c, 0, 65, 0
2, 196914, Control_c, 0, 64, 32
2, 196932, Control_c, 0, 64, 46
2, 196952, Control_c, 0, 64, 55
2, 196971, Control_c, 0, 64, 60
2, 196990, Control_c, 0, 64, 62
2, 197009, Control_c, 0, 64, 63
2, 197029, Control_c, 0, 64, 64
2, 197035, Note_on_c, 0, 68, 58
2, 197048, Control_c, 0, 64, 66
2, 197051, Note_on_c, 0, 51, 0
2, 197067, Control_c, 0, 64, 69
2, 197082, Note_on_c, 0, 66, 0
2, 197086, Control_c, 0, 64, 73
2, 197106, Control_c, 0, 64, 80
2, 197125, Control_c, 0, 64, 88
2, 197144, Control_c, 0, 64, 95
2, 197163, Control_c, 0, 64, 100
2, 197183, Control_c, 0, 64, 104
2, 197201, Control_c, 0, 64, 105
2, 197220, Control_c, 0, 64, 106
2, 197220, Note_on_c, 0, 68, 0
2, 197240, Control_c, 0, 64, 107
2, 197254, Note_on_c, 0, 65, 54
2, 197259, Control_c, 0, 64, 108
2, 197432, Control_c, 0, 64, 107
2, 197470, Control_c, 0, 64, 107
2, 197489, Control_c, 0, 64, 106
2, 197509, Control_c, 0, 64, 106
2, 197522, Note_on_c, 0, 51, 28
2, 197528, Control_c, 0, 64, 105
2, 197543, Note_on_c, 0, 53, 35
2, 197547, Control_c, 0, 64, 104
2, 197566, Control_c, 0, 64, 103
2, 197586, Control_c, 0, 64, 102
2, 197602, Note_on_c, 0, 65, 0
2, 197605, Control_c, 0, 64, 101
2, 197624, Control_c, 0, 64, 99
2, 197643, Control_c, 0, 64, 97
2, 197663, Control_c, 0, 64, 94
2, 197681, Control_c, 0, 64, 91
2, 197700, Control_c, 0, 64, 87
2, 197715, Note_on_c, 0, 63, 61
2, 197720, Control_c, 0, 64, 83
2, 197739, Control_c, 0, 64, 77
2, 197758, Control_c, 0, 64, 70
2, 197768, Note_on_c, 0, 56, 0
2, 197777, Control_c, 0, 64, 64
2, 197797, Control_c, 0, 64, 58
2, 197815, Control_c, 0, 64, 51
2, 197835, Control_c, 0, 64, 42
2, 197854, Control_c, 0, 64, 31
2, 197874, Control_c, 0, 64, 0
2, 198404, Note_on_c, 0, 62, 42
2, 198417, Note_on_c, 0, 63, 0
2, 198757, Control_c, 0, 64, 30
2, 198775, Control_c, 0, 64, 44
2, 198795, Control_c, 0, 64, 55
2, 198814, Control_c, 0, 64, 61
2, 198834, Control_c, 0, 64, 64
2, 198852, Control_c, 0, 64, 65
2, 198872, Control_c, 0, 64, 67
2, 198891, Control_c, 0, 64, 70
2, 198910, Control_c, 0, 64, 75
2, 198929, Control_c, 0, 64, 83
2, 198949, Control_c, 0, 64, 92
2, 198968, Control_c, 0, 64, 104
2, 198987, Control_c, 0, 64, 121
2, 199006, Control_c, 0, 64, 127
2, 199165, Note_on_c, 0, 51, 0
2, 199165, Note_on_c, 0, 53, 0
2, 199173, Note_on_c, 0, 62, 0
2, 199712, Note_on_c, 0, 59, 40
2, 199835, Note_on_c, 0, 59, 0
2, 199878, Note_on_c, 0, 58, 33
2, 199986, Control_c, 0, 64, 121
2, 200005, Control_c, 0, 64, 103
2, 200024, Control_c, 0, 64, 88
2, 200027, Note_on_c, 0, 59, 47
2, 200040, Note_on_c, 0, 51, 37
2, 200043, Control_c, 0, 64, 74
2, 200051, Note_on_c, 0, 53, 35
2, 200062, Control_c, 0, 64, 62
2, 200081, Control_c, 0, 64, 37
2, 200096, Note_on_c, 0, 58, 0
2, 200100, Control_c, 0, 64, 0
2, 200275, Control_c, 0, 64, 26
2, 200293, Control_c, 0, 64, 46
2, 200313, Control_c, 0, 64, 57
2, 200332, Control_c, 0, 64, 62
2, 200351, Control_c, 0, 64, 64
2, 200370, Control_c, 0, 64, 65
2, 200390, Control_c, 0, 64, 67
2, 200409, Control_c, 0, 64, 70
2, 200428, Control_c, 0, 64, 74
2, 200447, Control_c, 0, 64, 83
2, 200468, Control_c, 0, 64, 94
2, 200486, Control_c, 0, 64, 114
2, 200506, Control_c, 0, 64, 127
2, 200795, Note_on_c, 0, 53, 0
2, 200894, Note_on_c, 0, 51, 0
2, 201372, Note_on_c, 0, 56, 50
2, 201562, Note_on_c, 0, 59, 0
2, 201971, Note_on_c, 0, 51, 29
2, 201979, Note_on_c, 0, 53, 52
2, 201984, Control_c, 0, 64, 98
2, 202002, Control_c, 0, 64, 74
2, 202015, Note_on_c, 0, 56, 0
2, 202021, Control_c, 0, 64, 60
2, 202041, Control_c, 0, 64, 0
2, 202156, Control_c, 0, 64, 18
2, 202175, Control_c, 0, 64, 40
2, 202195, Control_c, 0, 64, 54
2, 202213, Control_c, 0, 64, 61
2, 202233, Control_c, 0, 64, 64
2, 202252, Control_c, 0, 64, 66
2, 202271, Control_c, 0, 64, 69
2, 202290, Control_c, 0, 64, 75
2, 202310, Control_c, 0, 64, 86
2, 202329, Control_c, 0, 64, 105
2, 202348, Control_c, 0, 64, 127
2, 202620, Note_on_c, 0, 51, 0
2, 203764, Note_on_c, 0, 62, 47
2, 203837, Note_on_c, 0, 53, 0
2, 204284, Note_on_c, 0, 62, 0
2, 205565, Note_on_c, 0, 39, 34
2, 205565, Note_on_c, 0, 58, 34
2, 205572, Note_on_c, 0, 63, 39
2, 205573, Note_on_c, 0, 55, 30
2, 205580, Note_on_c, 0, 51, 20
2, 205606, Control_c, 0, 64, 105
2, 205624, Control_c, 0, 64, 84
2, 205644, Control_c, 0, 64, 72
2, 205663, Control_c, 0, 64, 64
2, 205683, Control_c, 0, 64, 57
2, 205701, Control_c, 0, 64, 49
2, 205720, Control_c, 0, 64, 42
2, 205740, Control_c, 0, 64, 35
2, 205759, Control_c, 0, 64, 23
2, 205778, Control_c, 0, 64, 0
2, 206200, Control_c, 0, 64, 21
2, 206220, Control_c, 0, 64, 31
2, 206238, Control_c, 0, 64, 42
2, 206257, Control_c, 0, 64, 52
2, 206276, Control_c, 0, 64, 58
2, 206296, Control_c, 0, 64, 61
2, 206314, Control_c, 0, 64, 63
2, 206334, Control_c, 0, 64, 64
2, 206353, Control_c, 0, 64, 64
2, 206373, Control_c, 0, 64, 66
2, 206391, Control_c, 0, 64, 68
2, 206411, Control_c, 0, 64, 71
2, 206430, Control_c, 0, 64, 76
2, 206450, Control_c, 0, 64, 84
2, 206468, Control_c, 0, 64, 95
2, 206488, Control_c, 0, 64, 110
2, 206507, Control_c, 0, 64, 127
2, 207778, Note_on_c, 0, 55, 0
2, 207911, Note_on_c, 0, 63, 0
2, 207979, Note_on_c, 0, 58, 0
2, 208085, Note_on_c, 0, 39, 0
2, 208248, Note_on_c, 0, 51, 0
2, 209272, Control_c, 0, 64, 121
2, 209292, Control_c, 0, 64, 116
2, 209311, Control_c, 0, 64, 112
2, 209330, Control_c, 0, 64, 109
2, 209349, Control_c, 0, 64, 106
2, 209369, Control_c, 0, 64, 103
2, 209388, Control_c, 0, 64, 101
2, 209407, Control_c, 0, 64, 98
2, 209426, Control_c, 0, 64, 95
2, 209446, Control_c, 0, 64, 92
2, 209465, Control_c, 0, 64, 90
2, 209484, Control_c, 0, 64, 88
2, 209503, Control_c, 0, 64, 87
2, 209523, Control_c, 0, 64, 86
2, 209541, Control_c, 0, 64, 84
2, 209560, Control_c, 0, 64, 82
2, 209580, Control_c, 0, 64, 80
2, 209599, Control_c, 0, 64, 78
2, 209618, Control_c, 0, 64, 77
2, 209637, Control_c, 0, 64, 74
2, 209657, Control_c, 0, 64, 72
2, 209675, Control_c, 0, 64, 70
2, 209695, Control_c, 0, 64, 69
2, 209714, Control_c, 0, 64, 68
2, 209733, Control_c, 0, 64, 67
2, 209751, Control_c, 0, 64, 67
2, 209771, Control_c, 0, 64, 66
2, 209790, Control_c, 0, 64, 66
2, 209810, Control_c, 0, 64, 65
2, 209828, Control_c, 0, 64, 64
2, 209848, Control_c, 0, 64, 64
2, 209867, Control_c, 0, 64, 63
2, 209886, Control_c, 0, 64, 63
2, 209905, Control_c, 0, 64, 62
2, 209925, Control_c, 0, 64, 61
2, 209944, Control_c, 0, 64, 60
2, 209963, Control_c, 0, 64, 58
2, 209982, Control_c, 0, 64, 57
2, 210001, Control_c, 0, 64, 54
2, 210020, Control_c, 0, 64, 51
2, 210039, Control_c, 0, 64, 47
2, 210059, Control_c, 0, 64, 43
2, 210079, Control_c, 0, 64, 40
2, 210098, Control_c, 0, 64, 35
2, 210117, Control_c, 0, 64, 30
2, 210137, Control_c, 0, 64, 22
2, 210155, Control_c, 0, 64, 0
2, 212186, Note_on_c, 0, 63, 49
2, 213220, Note_on_c, 0, 70, 61
2, 213474, Note_on_c, 0, 63, 0
2, 214678, Note_on_c, 0, 71, 51
2, 214752, Note_on_c, 0, 70, 0
2, 215137, Note_on_c, 0, 70, 63
2, 215206, Note_on_c, 0, 71, 0
2, 215563, Note_on_c, 0, 68, 62
2, 215612, Note_on_c, 0, 70, 0
2, 215996, Note_on_c, 0, 66, 57
2, 216017, Note_on_c, 0, 68, 0
2, 216411, Note_on_c, 0, 66, 0
2, 216414, Note_on_c, 0, 68, 58
2, 216869, Note_on_c, 0, 70, 47
2, 216883, Note_on_c, 0, 68, 0
2, 217690, Note_on_c, 0, 63, 46
2, 217860, Note_on_c, 0, 70, 0
2, 218395, Note_on_c, 0, 63, 0
2, 218638, Note_on_c, 0, 68, 61
2, 219993, Note_on_c, 0, 66, 49
2, 220040, Note_on_c, 0, 68, 0
2, 220436, Note_on_c, 0, 65, 46
2, 220470, Note_on_c, 0, 66, 0
2, 221303, Note_on_c, 0, 70, 66
2, 221335, Note_on_c, 0, 63, 30
2, 221420, Note_on_c, 0, 65, 0
2, 222163, Note_on_c, 0, 75, 68
2, 222566, Note_on_c, 0, 65, 47
2, 222600, Note_on_c, 0, 63, 0
2, 222962, Note_on_c, 0, 66, 47
2, 222968, Note_on_c, 0, 65, 0
2, 223360, Note_on_c, 0, 78, 66
2, 223411, Note_on_c, 0, 75, 0
2, 223501, Note_on_c, 0, 70, 0
2, 223777, Note_on_c, 0, 77, 69
2, 223780, Note_on_c, 0, 68, 42
2, 223826, Note_on_c, 0, 78, 0
2, 223853, Note_on_c, 0, 66, 0
2, 224194, Note_on_c, 0, 75, 67
2, 224261, Note_on_c, 0, 77, 0
2, 224603, Note_on_c, 0, 73, 62
2, 224604, Note_on_c, 0, 70, 46
2, 224656, Note_on_c, 0, 75, 0
2, 224737, Note_on_c, 0, 68, 0
2, 225020, Note_on_c, 0, 75, 67
2, 225090, Note_on_c, 0, 73, 0
2, 225471, Note_on_c, 0, 77, 64
2, 225491, Note_on_c, 0, 75, 0
2, 225881, Note_on_c, 0, 68, 53
2, 225881, Note_on_c, 0, 70, 0
2, 226287, Note_on_c, 0, 68, 0
2, 226300, Note_on_c, 0, 66, 33
2, 226302, Note_on_c, 0, 70, 67
2, 226378, Note_on_c, 0, 77, 0
2, 226697, Note_on_c, 0, 66, 0
2, 226704, Note_on_c, 0, 65, 44
2, 226799, Note_on_c, 0, 70, 0
2, 227084, Note_on_c, 0, 65, 0
2, 227097, Note_on_c, 0, 75, 64
2, 227105, Note_on_c, 0, 66, 42
2, 227492, Note_on_c, 0, 66, 0
2, 227495, Note_on_c, 0, 65, 43
2, 227662, Note_on_c, 0, 65, 0
2, 227694, Note_on_c, 0, 63, 46
2, 227881, Note_on_c, 0, 63, 0
2, 227902, Note_on_c, 0, 65, 41
2, 228280, Note_on_c, 0, 65, 0
2, 228283, Note_on_c, 0, 73, 54
2, 228290, Note_on_c, 0, 70, 42
2, 228590, Note_on_c, 0, 75, 0
2, 228661, Note_on_c, 0, 72, 55
2, 228716, Note_on_c, 0, 73, 0
2, 229086, Note_on_c, 0, 70, 0
2, 229091, Note_on_c, 0, 69, 50
2, 229387, Note_on_c, 0, 72, 0
2, 229496, Note_on_c, 0, 70, 54
2, 229560, Note_on_c, 0, 69, 0
2, 229923, Note_on_c, 0, 72, 60
2, 230332, Note_on_c, 0, 73, 62
2, 230440, Note_on_c, 0, 72, 0
2, 230741, Note_on_c, 0, 68, 51
2, 230777, Note_on_c, 0, 70, 0
2, 231134, Note_on_c, 0, 68, 0
2, 231145, Note_on_c, 0, 67, 39
2, 231543, Note_on_c, 0, 67, 0
2, 231551, Note_on_c, 0, 63, 33
2, 231962, Note_on_c, 0, 68, 48
2, 232099, Note_on_c, 0, 63, 0
2, 232346, Note_on_c, 0, 71, 55
2, 232381, Note_on_c, 0, 73, 0
2, 232772, Note_on_c, 0, 70, 59
2, 232802, Note_on_c, 0, 71, 0
2, 233185, Note_on_c, 0, 66, 45
2, 233187, Note_on_c, 0, 68, 0
2, 233587, Note_on_c, 0, 66, 0
2, 233601, Note_on_c, 0, 65, 37
2, 233615, Note_on_c, 0, 75, 62
2, 233685, Note_on_c, 0, 70, 0
2, 233979, Note_on_c, 0, 65, 0
2, 233997, Note_on_c, 0, 63, 41
2, 234411, Note_on_c, 0, 65, 44
2, 234426, Note_on_c, 0, 63, 0
2, 234828, Note_on_c, 0, 74, 54
2, 234837, Note_on_c, 0, 75, 0
2, 235214, Note_on_c, 0, 65, 0
2, 235219, Note_on_c, 0, 66, 53
2, 235234, Note_on_c, 0, 75, 62
2, 235276, Note_on_c, 0, 74, 0
2, 235369, Control_c, 0, 64, 17
2, 235388, Control_c, 0, 64, 29
2, 235407, Control_c, 0, 64, 39
2, 235426, Control_c, 0, 64, 47
2, 235446, Control_c, 0, 64, 53
2, 235464, Control_c, 0, 64, 57
2, 235484, Control_c, 0, 64, 59
2, 235503, Control_c, 0, 64, 61
2, 235523, Control_c, 0, 64, 63
2, 235541, Control_c, 0, 64, 65
2, 235561, Control_c, 0, 64, 67
2, 235580, Control_c, 0, 64, 72
2, 235600, Control_c, 0, 64, 80
2, 235618, Control_c, 0, 64, 93
2, 235621, Note_on_c, 0, 66, 0
2, 235627, Note_on_c, 0, 68, 61
2, 235638, Control_c, 0, 64, 118
2, 235647, Note_on_c, 0, 77, 67
2, 235660, Control_c, 0, 64, 127
2, 235665, Note_on_c, 0, 75, 0
2, 235669, Note_on_c, 0, 68, 0
2, 236059, Note_on_c, 0, 51, 55
2, 236063, Control_c, 0, 64, 102
2, 236083, Control_c, 0, 64, 81
2, 236101, Control_c, 0, 64, 65
2, 236108, Note_on_c, 0, 78, 58
2, 236110, Note_on_c, 0, 70, 53
2, 236120, Control_c, 0, 64, 44
2, 236140, Control_c, 0, 64, 0
2, 236160, Note_on_c, 0, 77, 0
2, 236235, Control_c, 0, 64, 22
2, 236255, Control_c, 0, 64, 44
2, 236274, Control_c, 0, 64, 56
2, 236293, Control_c, 0, 64, 62
2, 236312, Control_c, 0, 64, 65
2, 236332, Control_c, 0, 64, 67
2, 236351, Control_c, 0, 64, 71
2, 236370, Control_c, 0, 64, 80
2, 236389, Control_c, 0, 64, 92
2, 236409, Control_c, 0, 64, 112
2, 236427, Control_c, 0, 64, 127
2, 236512, Note_on_c, 0, 72, 61
2, 236525, Note_on_c, 0, 70, 0
2, 236658, Note_on_c, 0, 72, 0
2, 236926, Control_c, 0, 64, 95
2, 236945, Control_c, 0, 64, 77
2, 236950, Note_on_c, 0, 58, 59
2, 236952, Note_on_c, 0, 77, 59
2, 236964, Control_c, 0, 64, 65
2, 236968, Note_on_c, 0, 74, 26
2, 236982, Control_c, 0, 64, 54
2, 237002, Control_c, 0, 64, 37
2, 237014, Note_on_c, 0, 78, 0
2, 237021, Control_c, 0, 64, 31
2, 237040, Control_c, 0, 64, 29
2, 237098, Control_c, 0, 64, 28
2, 237117, Control_c, 0, 64, 27
2, 237124, Note_on_c, 0, 51, 0
2, 237136, Control_c, 0, 64, 26
2, 237155, Control_c, 0, 64, 25
2, 237213, Control_c, 0, 64, 24
2, 237356, Note_on_c, 0, 78, 60
2, 237359, Note_on_c, 0, 77, 0
2, 237364, Note_on_c, 0, 74, 0
2, 237364, Note_on_c, 0, 75, 45
2, 237673, Control_c, 0, 64, 26
2, 237693, Control_c, 0, 64, 32
2, 237712, Control_c, 0, 64, 41
2, 237732, Control_c, 0, 64, 50
2, 237750, Control_c, 0, 64, 58
2, 237756, Note_on_c, 0, 77, 36
2, 237763, Note_on_c, 0, 75, 0
2, 237763, Note_on_c, 0, 80, 54
2, 237770, Control_c, 0, 64, 62
2, 237789, Control_c, 0, 64, 65
2, 237808, Control_c, 0, 64, 68
2, 237827, Control_c, 0, 64, 74
2, 237837, Note_on_c, 0, 78, 0
2, 237847, Control_c, 0, 64, 85
2, 237855, Note_on_c, 0, 77, 0
2, 237866, Control_c, 0, 64, 102
2, 237885, Control_c, 0, 64, 127
2, 238153, Control_c, 0, 64, 107
2, 238157, Note_on_c, 0, 77, 64
2, 238164, Note_on_c, 0, 59, 59
2, 238173, Control_c, 0, 64, 89
2, 238181, Note_on_c, 0, 74, 33
2, 238192, Control_c, 0, 64, 78
2, 238212, Control_c, 0, 64, 70
2, 238214, Note_on_c, 0, 80, 0
2, 238224, Note_on_c, 0, 58, 0
2, 238224, Note_on_c, 0, 74, 0
2, 238230, Control_c, 0, 64, 64
2, 238250, Control_c, 0, 64, 58
2, 238269, Control_c, 0, 64, 53
2, 238288, Control_c, 0, 64, 48
2, 238307, Control_c, 0, 64, 44
2, 238327, Control_c, 0, 64, 41
2, 238346, Control_c, 0, 64, 35
2, 238365, Control_c, 0, 64, 29
2, 238384, Control_c, 0, 64, 24
2, 238404, Control_c, 0, 64, 22
2, 238499, Control_c, 0, 64, 21
2, 238581, Note_on_c, 0, 78, 68
2, 238586, Note_on_c, 0, 58, 60
2, 238641, Note_on_c, 0, 59, 0
2, 238661, Note_on_c, 0, 77, 0
2, 238991, Note_on_c, 0, 80, 64
2, 238995, Note_on_c, 0, 56, 64
2, 239001, Note_on_c, 0, 77, 56
2, 239007, Note_on_c, 0, 78, 0
2, 239022, Note_on_c, 0, 58, 0
2, 239075, Control_c, 0, 64, 22
2, 239398, Note_on_c, 0, 80, 0
2, 239405, Note_on_c, 0, 82, 56
2, 239410, Note_on_c, 0, 54, 54
2, 239410, Note_on_c, 0, 78, 59
2, 239418, Note_on_c, 0, 56, 0
2, 239460, Note_on_c, 0, 77, 0
2, 239794, Note_on_c, 0, 54, 0
2, 239800, Note_on_c, 0, 56, 56
2, 239816, Note_on_c, 0, 78, 0
2, 239817, Note_on_c, 0, 80, 57
2, 239819, Note_on_c, 0, 82, 0
2, 239835, Note_on_c, 0, 77, 48
2, 240205, Note_on_c, 0, 58, 48
2, 240207, Note_on_c, 0, 78, 57
2, 240208, Note_on_c, 0, 80, 0
2, 240211, Note_on_c, 0, 77, 0
2, 240222, Note_on_c, 0, 75, 43
2, 240236, Note_on_c, 0, 56, 0
2, 240271, Control_c, 0, 64, 24
2, 240291, Control_c, 0, 64, 31
2, 240310, Control_c, 0, 64, 41
2, 240329, Control_c, 0, 64, 50
2, 240348, Control_c, 0, 64, 57
2, 240368, Control_c, 0, 64, 62
2, 240387, Control_c, 0, 64, 64
2, 240406, Control_c, 0, 64, 67
2, 240425, Control_c, 0, 64, 71
2, 240445, Control_c, 0, 64, 77
2, 240461, Note_on_c, 0, 75, 0
2, 240463, Control_c, 0, 64, 85
2, 240472, Note_on_c, 0, 78, 0
2, 240483, Control_c, 0, 64, 94
2, 240502, Control_c, 0, 64, 101
2, 240521, Control_c, 0, 64, 104
2, 240540, Control_c, 0, 64, 104
2, 240610, Note_on_c, 0, 77, 53
2, 240613, Note_on_c, 0, 74, 36
2, 240636, Control_c, 0, 64, 104
2, 240656, Control_c, 0, 64, 103
2, 240674, Control_c, 0, 64, 102
2, 240694, Control_c, 0, 64, 101
2, 240713, Control_c, 0, 64, 100
2, 240733, Control_c, 0, 64, 98
2, 240751, Control_c, 0, 64, 97
2, 240771, Control_c, 0, 64, 96
2, 240790, Control_c, 0, 64, 95
2, 240804, Control_c, 0, 64, 94
2, 240822, Control_c, 0, 64, 93
2, 240841, Control_c, 0, 64, 91
2, 240861, Control_c, 0, 64, 89
2, 240880, Control_c, 0, 64, 85
2, 240899, Control_c, 0, 64, 81
2, 240918, Control_c, 0, 64, 74
2, 240938, Control_c, 0, 64, 67
2, 240957, Control_c, 0, 64, 62
2, 240976, Control_c, 0, 64, 53
2, 240984, Note_on_c, 0, 51, 54
2, 240995, Control_c, 0, 64, 40
2, 241014, Note_on_c, 0, 78, 52
2, 241015, Control_c, 0, 64, 25
2, 241017, Note_on_c, 0, 74, 0
2, 241024, Note_on_c, 0, 75, 51
2, 241033, Control_c, 0, 64, 0
2, 241066, Note_on_c, 0, 77, 0
2, 241155, Note_on_c, 0, 58, 0
2, 241284, Control_c, 0, 64, 29
2, 241302, Control_c, 0, 64, 42
2, 241321, Control_c, 0, 64, 54
2, 241341, Control_c, 0, 64, 60
2, 241360, Control_c, 0, 64, 63
2, 241379, Control_c, 0, 64, 65
2, 241398, Control_c, 0, 64, 68
2, 241418, Control_c, 0, 64, 71
2, 241422, Note_on_c, 0, 73, 57
2, 241437, Control_c, 0, 64, 76
2, 241456, Control_c, 0, 64, 81
2, 241475, Control_c, 0, 64, 84
2, 241495, Control_c, 0, 64, 85
2, 241500, Note_on_c, 0, 78, 0
2, 241533, Control_c, 0, 64, 85
2, 241550, Note_on_c, 0, 73, 0
2, 241590, Control_c, 0, 64, 84
2, 241633, Note_on_c, 0, 51, 0
2, 241648, Control_c, 0, 64, 84
2, 241667, Control_c, 0, 64, 83
2, 241687, Control_c, 0, 64, 82
2, 241706, Control_c, 0, 64, 79
2, 241725, Control_c, 0, 64, 76
2, 241744, Control_c, 0, 64, 72
2, 241764, Control_c, 0, 64, 68
2, 241782, Control_c, 0, 64, 63
2, 241801, Control_c, 0, 64, 55
2, 241821, Control_c, 0, 64, 43
2, 241830, Note_on_c, 0, 56, 66
2, 241840, Control_c, 0, 64, 29
2, 241851, Note_on_c, 0, 75, 0
2, 241854, Note_on_c, 0, 77, 55
2, 241859, Control_c, 0, 64, 11
2, 241861, Note_on_c, 0, 71, 53
2, 241878, Control_c, 0, 64, 0
2, 242090, Control_c, 0, 64, 24
2, 242109, Control_c, 0, 64, 42
2, 242128, Control_c, 0, 64, 53
2, 242147, Control_c, 0, 64, 60
2, 242167, Control_c, 0, 64, 63
2, 242186, Control_c, 0, 64, 66
2, 242205, Control_c, 0, 64, 69
2, 242224, Control_c, 0, 64, 76
2, 242244, Control_c, 0, 64, 88
2, 242262, Control_c, 0, 64, 102
2, 242277, Note_on_c, 0, 75, 61
2, 242281, Control_c, 0, 64, 127
2, 242334, Note_on_c, 0, 77, 0
2, 242401, Note_on_c, 0, 75, 0
2, 242608, Control_c, 0, 64, 119
2, 242626, Control_c, 0, 64, 98
2, 242646, Control_c, 0, 64, 80
2, 242665, Control_c, 0, 64, 67
2, 242674, Note_on_c, 0, 74, 49
2, 242684, Control_c, 0, 64, 54
2, 242695, Note_on_c, 0, 71, 0
2, 242697, Note_on_c, 0, 70, 36
2, 242703, Control_c, 0, 64, 27
2, 242724, Control_c, 0, 64, 21
2, 242781, Control_c, 0, 64, 29
2, 242800, Control_c, 0, 64, 39
2, 242819, Control_c, 0, 64, 49
2, 242838, Control_c, 0, 64, 58
2, 242858, Control_c, 0, 64, 61
2, 242877, Control_c, 0, 64, 63
2, 242896, Control_c, 0, 64, 64
2, 242915, Control_c, 0, 64, 66
2, 242935, Control_c, 0, 64, 67
2, 242953, Control_c, 0, 64, 69
2, 242973, Control_c, 0, 64, 70
2, 242992, Control_c, 0, 64, 71
2, 243012, Control_c, 0, 64, 70
2, 243030, Control_c, 0, 64, 68
2, 243050, Control_c, 0, 64, 64
2, 243069, Control_c, 0, 64, 61
2, 243077, Note_on_c, 0, 54, 54
2, 243078, Note_on_c, 0, 74, 0
2, 243088, Control_c, 0, 64, 56
2, 243088, Note_on_c, 0, 75, 50
2, 243107, Control_c, 0, 64, 50
2, 243124, Note_on_c, 0, 56, 0
2, 243127, Control_c, 0, 64, 47
2, 243146, Control_c, 0, 64, 46
2, 243204, Control_c, 0, 64, 46
2, 243261, Control_c, 0, 64, 46
2, 243280, Control_c, 0, 64, 45
2, 243299, Control_c, 0, 64, 45
2, 243318, Control_c, 0, 64, 44
2, 243338, Control_c, 0, 64, 44
2, 243357, Control_c, 0, 64, 43
2, 243376, Control_c, 0, 64, 43
2, 243500, Note_on_c, 0, 68, 47
2, 243502, Note_on_c, 0, 70, 0
2, 243503, Note_on_c, 0, 53, 46
2, 243510, Control_c, 0, 64, 42
2, 243525, Note_on_c, 0, 54, 0
2, 243549, Control_c, 0, 64, 42
2, 243721, Control_c, 0, 64, 41
2, 243741, Control_c, 0, 64, 41
2, 243760, Control_c, 0, 64, 40
2, 243928, Note_on_c, 0, 74, 44
2, 243933, Control_c, 0, 64, 40
2, 243953, Note_on_c, 0, 75, 0
2, 243991, Note_on_c, 0, 68, 0
2, 244324, Note_on_c, 0, 51, 48
2, 244336, Note_on_c, 0, 74, 0
2, 244351, Note_on_c, 0, 75, 49
2, 244365, Note_on_c, 0, 53, 0
2, 244366, Note_on_c, 0, 66, 37
2, 244452, Control_c, 0, 64, 40
2, 244470, Control_c, 0, 64, 41
2, 244490, Control_c, 0, 64, 43
2, 244509, Control_c, 0, 64, 45
2, 244528, Control_c, 0, 64, 48
2, 244547, Control_c, 0, 64, 51
2, 244567, Control_c, 0, 64, 55
2, 244586, Control_c, 0, 64, 58
2, 244605, Control_c, 0, 64, 60
2, 244624, Control_c, 0, 64, 62
2, 244644, Control_c, 0, 64, 64
2, 244662, Control_c, 0, 64, 67
2, 244681, Control_c, 0, 64, 71
2, 244701, Control_c, 0, 64, 79
2, 244718, Note_on_c, 0, 73, 53
2, 244720, Control_c, 0, 64, 93
2, 244739, Control_c, 0, 64, 123
2, 244751, Note_on_c, 0, 75, 0
2, 244758, Control_c, 0, 64, 127
2, 244821, Note_on_c, 0, 66, 0
2, 244821, Note_on_c, 0, 73, 0
2, 245161, Control_c, 0, 64, 102
2, 245162, Note_on_c, 0, 63, 61
2, 245181, Control_c, 0, 64, 77
2, 245196, Note_on_c, 0, 71, 40
2, 245197, Note_on_c, 0, 68, 38
2, 245200, Control_c, 0, 64, 64
2, 245219, Control_c, 0, 64, 50
2, 245238, Control_c, 0, 64, 38
2, 245277, Control_c, 0, 64, 38
2, 245297, Control_c, 0, 64, 43
2, 245316, Control_c, 0, 64, 52
2, 245326, Note_on_c, 0, 51, 0
2, 245336, Control_c, 0, 64, 58
2, 245354, Control_c, 0, 64, 62
2, 245374, Control_c, 0, 64, 64
2, 245393, Control_c, 0, 64, 66
2, 245413, Control_c, 0, 64, 68
2, 245431, Control_c, 0, 64, 73
2, 245451, Control_c, 0, 64, 86
2, 245470, Control_c, 0, 64, 102
2, 245489, Control_c, 0, 64, 127
2, 245593, Note_on_c, 0, 66, 50
2, 245648, Note_on_c, 0, 63, 0
2, 245663, Note_on_c, 0, 68, 0
2, 245969, Control_c, 0, 64, 107
2, 245982, Note_on_c, 0, 66, 0
2, 245988, Control_c, 0, 64, 94
2, 246008, Control_c, 0, 64, 80
2, 246018, Note_on_c, 0, 62, 49
2, 246018, Note_on_c, 0, 65, 45
2, 246027, Control_c, 0, 64, 69
2, 246046, Control_c, 0, 64, 62
2, 246065, Control_c, 0, 64, 50
2, 246085, Control_c, 0, 64, 39
2, 246103, Control_c, 0, 64, 32
2, 246122, Control_c, 0, 64, 28
2, 246142, Control_c, 0, 64, 22
2, 246161, Control_c, 0, 64, 13
2, 246180, Control_c, 0, 64, 0
2, 246442, Note_on_c, 0, 70, 58
2, 246465, Note_on_c, 0, 71, 0
2, 246628, Note_on_c, 0, 68, 61
2, 246637, Note_on_c, 0, 70, 0
2, 246784, Note_on_c, 0, 62, 0
2, 246830, Note_on_c, 0, 61, 47
2, 246852, Note_on_c, 0, 70, 68
2, 246871, Control_c, 0, 64, 9
2, 246891, Control_c, 0, 64, 25
2, 246895, Note_on_c, 0, 68, 0
2, 246896, Note_on_c, 0, 65, 0
2, 246910, Control_c, 0, 64, 35
2, 246929, Control_c, 0, 64, 44
2, 246948, Control_c, 0, 64, 51
2, 246968, Control_c, 0, 64, 58
2, 246987, Control_c, 0, 64, 60
2, 247006, Control_c, 0, 64, 62
2, 247025, Control_c, 0, 64, 63
2, 247045, Control_c, 0, 64, 64
2, 247063, Control_c, 0, 64, 66
2, 247082, Control_c, 0, 64, 68
2, 247102, Control_c, 0, 64, 72
2, 247121, Control_c, 0, 64, 79
2, 247140, Control_c, 0, 64, 88
2, 247159, Control_c, 0, 64, 97
2, 247178, Control_c, 0, 64, 104
2, 247184, Note_on_c, 0, 63, 46
2, 247197, Control_c, 0, 64, 108
2, 247202, Note_on_c, 0, 70, 0
2, 247216, Control_c, 0, 64, 110
2, 247221, Note_on_c, 0, 71, 75
2, 247223, Note_on_c, 0, 61, 0
2, 247235, Control_c, 0, 64, 110
2, 247255, Control_c, 0, 64, 112
2, 247293, Control_c, 0, 64, 112
2, 247358, Note_on_c, 0, 63, 0
2, 247396, Note_on_c, 0, 65, 45
2, 247397, Note_on_c, 0, 73, 71
2, 247497, Note_on_c, 0, 71, 0
2, 247504, Control_c, 0, 64, 111
2, 247526, Control_c, 0, 64, 109
2, 247544, Control_c, 0, 64, 106
2, 247564, Control_c, 0, 64, 101
2, 247583, Control_c, 0, 64, 90
2, 247587, Note_on_c, 0, 65, 0
2, 247602, Control_c, 0, 64, 77
2, 247621, Control_c, 0, 64, 66
2, 247629, Note_on_c, 0, 60, 42
2, 247630, Note_on_c, 0, 75, 77
2, 247640, Control_c, 0, 64, 49
2, 247647, Note_on_c, 0, 66, 39
2, 247660, Control_c, 0, 64, 0
2, 247696, Note_on_c, 0, 73, 0
2, 247775, Control_c, 0, 64, 19
2, 247794, Control_c, 0, 64, 46
2, 247813, Control_c, 0, 64, 57
2, 247832, Control_c, 0, 64, 61
2, 247852, Control_c, 0, 64, 64
2, 247871, Control_c, 0, 64, 65
2, 247890, Control_c, 0, 64, 68
2, 247909, Control_c, 0, 64, 73
2, 247929, Control_c, 0, 64, 84
2, 247947, Control_c, 0, 64, 101
2, 247967, Control_c, 0, 64, 127
2, 247971, Note_on_c, 0, 66, 0
2, 247994, Note_on_c, 0, 77, 71
2, 248008, Note_on_c, 0, 68, 49
2, 248015, Note_on_c, 0, 75, 0
2, 248140, Note_on_c, 0, 60, 0
2, 248148, Note_on_c, 0, 68, 0
2, 248176, Note_on_c, 0, 70, 55
2, 248196, Note_on_c, 0, 78, 67
2, 248229, Note_on_c, 0, 77, 0
2, 248242, Note_on_c, 0, 70, 0
2, 248391, Control_c, 0, 64, 110
2, 248410, Control_c, 0, 64, 81
2, 248428, Note_on_c, 0, 77, 51
2, 248430, Control_c, 0, 64, 66
2, 248433, Note_on_c, 0, 78, 0
2, 248448, Control_c, 0, 64, 45
2, 248459, Note_on_c, 0, 68, 27
2, 248464, Note_on_c, 0, 59, 31
2, 248468, Control_c, 0, 64, 0
2, 248545, Control_c, 0, 64, 34
2, 248564, Control_c, 0, 64, 53
2, 248583, Control_c, 0, 64, 61
2, 248602, Control_c, 0, 64, 64
2, 248622, Control_c, 0, 64, 66
2, 248640, Control_c, 0, 64, 69
2, 248660, Control_c, 0, 64, 76
2, 248679, Control_c, 0, 64, 89
2, 248699, Control_c, 0, 64, 119
2, 248717, Control_c, 0, 64, 127
2, 248918, Note_on_c, 0, 68, 0
2, 248978, Note_on_c, 0, 59, 0
2, 248991, Note_on_c, 0, 75, 59
2, 248994, Note_on_c, 0, 66, 42
2, 249014, Note_on_c, 0, 77, 0
2, 249033, Note_on_c, 0, 75, 0
2, 249098, Note_on_c, 0, 68, 13
2, 249102, Control_c, 0, 64, 93
2, 249120, Control_c, 0, 64, 71
2, 249140, Control_c, 0, 64, 58
2, 249159, Control_c, 0, 64, 43
2, 249164, Note_on_c, 0, 68, 0
2, 249179, Control_c, 0, 64, 42
2, 249185, Note_on_c, 0, 58, 46
2, 249197, Control_c, 0, 64, 49
2, 249198, Note_on_c, 0, 66, 0
2, 249199, Note_on_c, 0, 74, 48
2, 249217, Control_c, 0, 64, 59
2, 249217, Note_on_c, 0, 70, 43
2, 249236, Control_c, 0, 64, 64
2, 249256, Control_c, 0, 64, 66
2, 249260, Note_on_c, 0, 58, 0
2, 249274, Control_c, 0, 64, 69
2, 249293, Control_c, 0, 64, 73
2, 249313, Control_c, 0, 64, 83
2, 249331, Control_c, 0, 64, 95
2, 249351, Control_c, 0, 64, 112
2, 249370, Control_c, 0, 64, 127
2, 249536, Note_on_c, 0, 74, 0
2, 249576, Note_on_c, 0, 46, 55
2, 249596, Control_c, 0, 64, 110
2, 249600, Note_on_c, 0, 68, 62
2, 249616, Control_c, 0, 64, 80
2, 249620, Note_on_c, 0, 70, 0
2, 249634, Control_c, 0, 64, 65
2, 249653, Control_c, 0, 64, 49
2, 249673, Control_c, 0, 64, 36
2, 249691, Control_c, 0, 64, 36
2, 249711, Control_c, 0, 64, 46
2, 249730, Control_c, 0, 64, 58
2, 249750, Control_c, 0, 64, 63
2, 249768, Control_c, 0, 64, 64
2, 249788, Control_c, 0, 64, 66
2, 249807, Control_c, 0, 64, 68
2, 249826, Control_c, 0, 64, 70
2, 249845, Control_c, 0, 64, 75
2, 249865, Control_c, 0, 64, 82
2, 249884, Control_c, 0, 64, 92
2, 249903, Control_c, 0, 64, 103
2, 249922, Control_c, 0, 64, 108
2, 249942, Control_c, 0, 64, 106
2, 249960, Control_c, 0, 64, 92
2, 249980, Control_c, 0, 64, 72
2, 249997, Note_on_c, 0, 51, 51
2, 249999, Control_c, 0, 64, 60
2, 250000, Note_on_c, 0, 68, 0
2, 250007, Note_on_c, 0, 75, 61
2, 250013, Note_on_c, 0, 66, 54
2, 250019, Control_c, 0, 64, 38
2, 250034, Note_on_c, 0, 46, 0
2, 250037, Control_c, 0, 64, 29
2, 250077, Control_c, 0, 64, 38
2, 250096, Control_c, 0, 64, 54
2, 250115, Control_c, 0, 64, 62
2, 250134, Control_c, 0, 64, 65
2, 250154, Control_c, 0, 64, 68
2, 250172, Control_c, 0, 64, 72
2, 250192, Control_c, 0, 64, 81
2, 250211, Control_c, 0, 64, 97
2, 250230, Control_c, 0, 64, 127
2, 250307, Note_on_c, 0, 66, 0
2, 250427, Note_on_c, 0, 73, 63
2, 250428, Note_on_c, 0, 65, 49
2, 250470, Note_on_c, 0, 75, 0
2, 250531, Note_on_c, 0, 73, 0
2, 250793, Control_c, 0, 64, 118
2, 250812, Control_c, 0, 64, 78
2, 250831, Control_c, 0, 64, 63
2, 250848, Note_on_c, 0, 71, 58
2, 250850, Control_c, 0, 64, 41
2, 250863, Note_on_c, 0, 63, 43
2, 250870, Control_c, 0, 64, 31
2, 250900, Note_on_c, 0, 65, 0
2, 250908, Control_c, 0, 64, 39
2, 250927, Control_c, 0, 64, 55
2, 250947, Control_c, 0, 64, 63
2, 250965, Control_c, 0, 64, 66
2, 250985, Control_c, 0, 64, 69
2, 251004, Control_c, 0, 64, 74
2, 251023, Control_c, 0, 64, 83
2, 251041, Control_c, 0, 64, 96
2, 251061, Control_c, 0, 64, 119
2, 251080, Control_c, 0, 64, 127
2, 251228, Note_on_c, 0, 70, 70
2, 251243, Note_on_c, 0, 54, 55
2, 251248, Note_on_c, 0, 71, 0
2, 251276, Note_on_c, 0, 51, 0
2, 251323, Note_on_c, 0, 70, 0
2, 251644, Note_on_c, 0, 68, 68
2, 251650, Note_on_c, 0, 53, 54
2, 251656, Control_c, 0, 64, 123
2, 251675, Control_c, 0, 64, 91
2, 251675, Note_on_c, 0, 62, 36
2, 251694, Control_c, 0, 64, 76
2, 251714, Control_c, 0, 64, 67
2, 251714, Note_on_c, 0, 54, 0
2, 251732, Control_c, 0, 64, 61
2, 251752, Control_c, 0, 64, 54
2, 251771, Control_c, 0, 64, 49
2, 251790, Control_c, 0, 64, 47
2, 251809, Control_c, 0, 64, 46
2, 251829, Control_c, 0, 64, 44
2, 251848, Control_c, 0, 64, 42
2, 251867, Control_c, 0, 64, 41
2, 251886, Control_c, 0, 64, 40
2, 251906, Control_c, 0, 64, 38
2, 251925, Control_c, 0, 64, 36
2, 251944, Control_c, 0, 64, 35
2, 251963, Control_c, 0, 64, 35
2, 252068, Note_on_c, 0, 51, 47
2, 252075, Note_on_c, 0, 66, 61
2, 252094, Note_on_c, 0, 62, 0
2, 252119, Note_on_c, 0, 53, 0
2, 252154, Control_c, 0, 64, 34
2, 252465, Note_on_c, 0, 50, 53
2, 252466, Note_on_c, 0, 68, 0
2, 252468, Note_on_c, 0, 65, 57
2, 252486, Note_on_c, 0, 51, 0
2, 252527, Note_on_c, 0, 66, 0
2, 252579, Note_on_c, 0, 63, 0
2, 252844, Control_c, 0, 64, 35
2, 252868, Note_on_c, 0, 63, 42
2, 252881, Note_on_c, 0, 66, 54
2, 252883, Note_on_c, 0, 51, 43
2, 252907, Note_on_c, 0, 65, 0
2, 252927, Note_on_c, 0, 50, 0
2, 253049, Note_on_c, 0, 63, 0
2, 253289, Note_on_c, 0, 53, 50
2, 253293, Note_on_c, 0, 68, 51
2, 253310, Note_on_c, 0, 62, 44
2, 253324, Note_on_c, 0, 66, 0
2, 253361, Note_on_c, 0, 51, 0
2, 253728, Note_on_c, 0, 60, 55
2, 253752, Note_on_c, 0, 62, 0
2, 253823, Control_c, 0, 64, 35
2, 253957, Control_c, 0, 64, 36
2, 254072, Control_c, 0, 64, 36
2, 254118, Note_on_c, 0, 46, 53
2, 254149, Control_c, 0, 64, 37
2, 254157, Note_on_c, 0, 62, 52
2, 254168, Note_on_c, 0, 60, 0
2, 254208, Note_on_c, 0, 53, 0
2, 254226, Control_c, 0, 64, 37
2, 254265, Control_c, 0, 64, 38
2, 254303, Control_c, 0, 64, 38
2, 254381, Note_on_c, 0, 68, 0
2, 254457, Control_c, 0, 64, 39
2, 254532, Note_on_c, 0, 66, 57
2, 254564, Note_on_c, 0, 62, 0
2, 254591, Control_c, 0, 64, 39
2, 254648, Control_c, 0, 64, 40
2, 254686, Control_c, 0, 64, 40
2, 254703, Note_on_c, 0, 65, 57
2, 254725, Control_c, 0, 64, 41
2, 254783, Control_c, 0, 64, 41
2, 254798, Note_on_c, 0, 46, 0
2, 254798, Note_on_c, 0, 66, 0
2, 254821, Control_c, 0, 64, 42
2, 254879, Control_c, 0, 64, 42
2, 254915, Note_on_c, 0, 51, 59
2, 254917, Control_c, 0, 64, 43
2, 254937, Note_on_c, 0, 65, 0
2, 254939, Note_on_c, 0, 63, 46
2, 254941, Note_on_c, 0, 66, 56
2, 255109, Control_c, 0, 64, 43
2, 255128, Control_c, 0, 64, 44
2, 255148, Control_c, 0, 64, 46
2, 255166, Control_c, 0, 64, 49
2, 255186, Control_c, 0, 64, 53
2, 255205, Control_c, 0, 64, 56
2, 255225, Control_c, 0, 64, 60
2, 255243, Control_c, 0, 64, 63
2, 255263, Control_c, 0, 64, 64
2, 255282, Control_c, 0, 64, 67
2, 255301, Control_c, 0, 64, 70
2, 255320, Control_c, 0, 64, 77
2, 255331, Note_on_c, 0, 68, 61
2, 255340, Control_c, 0, 64, 88
2, 255342, Note_on_c, 0, 66, 0
2, 255355, Note_on_c, 0, 65, 51
2, 255359, Control_c, 0, 64, 111
2, 255378, Control_c, 0, 64, 127
2, 255389, Note_on_c, 0, 63, 0
2, 255421, Note_on_c, 0, 68, 0
2, 255685, Control_c, 0, 64, 114
2, 255705, Control_c, 0, 64, 84
2, 255723, Control_c, 0, 64, 68
2, 255728, Note_on_c, 0, 70, 58
2, 255739, Note_on_c, 0, 66, 49
2, 255743, Control_c, 0, 64, 55
2, 255762, Control_c, 0, 64, 21
2, 255781, Control_c, 0, 64, 9
2, 255781, Note_on_c, 0, 65, 0
2, 255800, Control_c, 0, 64, 0
2, 255820, Control_c, 0, 64, 9
2, 255839, Control_c, 0, 64, 29
2, 255858, Control_c, 0, 64, 49
2, 255877, Control_c, 0, 64, 60
2, 255897, Control_c, 0, 64, 64
2, 255915, Control_c, 0, 64, 66
2, 255934, Control_c, 0, 64, 69
2, 255954, Control_c, 0, 64, 73
2, 255973, Control_c, 0, 64, 82
2, 255992, Control_c, 0, 64, 100
2, 256011, Control_c, 0, 64, 127
2, 256082, Note_on_c, 0, 66, 0
2, 256126, Note_on_c, 0, 49, 63
2, 256131, Note_on_c, 0, 70, 0
2, 256219, Note_on_c, 0, 51, 0
2, 256472, Control_c, 0, 64, 114
2, 256491, Control_c, 0, 64, 90
2, 256511, Control_c, 0, 64, 77
2, 256511, Note_on_c, 0, 68, 50
2, 256519, Note_on_c, 0, 71, 57
2, 256520, Note_on_c, 0, 47, 53
2, 256530, Control_c, 0, 64, 68
2, 256549, Control_c, 0, 64, 62
2, 256568, Control_c, 0, 64, 55
2, 256577, Note_on_c, 0, 49, 0
2, 256588, Control_c, 0, 64, 46
2, 256606, Control_c, 0, 64, 41
2, 256626, Control_c, 0, 64, 34
2, 256645, Control_c, 0, 64, 26
2, 256665, Control_c, 0, 64, 21
2, 256683, Control_c, 0, 64, 19
2, 256886, Note_on_c, 0, 68, 0
2, 256892, Note_on_c, 0, 73, 53
2, 256905, Note_on_c, 0, 66, 33
2, 256921, Note_on_c, 0, 71, 0
2, 257065, Note_on_c, 0, 75, 50
2, 257163, Control_c, 0, 64, 20
2, 257225, Note_on_c, 0, 73, 0
2, 257281, Note_on_c, 0, 68, 49
2, 257295, Note_on_c, 0, 75, 0
2, 257301, Note_on_c, 0, 65, 26
2, 257355, Control_c, 0, 64, 21
2, 257398, Note_on_c, 0, 66, 0
2, 257490, Control_c, 0, 64, 22
2, 257509, Control_c, 0, 64, 24
2, 257528, Control_c, 0, 64, 28
2, 257548, Control_c, 0, 64, 34
2, 257566, Control_c, 0, 64, 41
2, 257586, Control_c, 0, 64, 45
2, 257605, Control_c, 0, 64, 50
2, 257625, Control_c, 0, 64, 55
2, 257643, Control_c, 0, 64, 59
2, 257663, Control_c, 0, 64, 61
2, 257674, Note_on_c, 0, 65, 0
2, 257682, Control_c, 0, 64, 63
2, 257687, Note_on_c, 0, 61, 49
2, 257701, Control_c, 0, 64, 65
2, 257720, Control_c, 0, 64, 67
2, 257740, Control_c, 0, 64, 71
2, 257759, Control_c, 0, 64, 78
2, 257778, Control_c, 0, 64, 87
2, 257797, Control_c, 0, 64, 96
2, 257816, Control_c, 0, 64, 102
2, 257835, Control_c, 0, 64, 104
2, 257912, Control_c, 0, 64, 105
2, 257931, Control_c, 0, 64, 107
2, 257951, Control_c, 0, 64, 108
2, 257970, Control_c, 0, 64, 109
2, 257989, Control_c, 0, 64, 110
2, 258028, Control_c, 0, 64, 109
2, 258046, Control_c, 0, 64, 107
2, 258066, Control_c, 0, 64, 103
2, 258071, Note_on_c, 0, 46, 47
2, 258085, Control_c, 0, 64, 91
2, 258098, Note_on_c, 0, 66, 56
2, 258105, Control_c, 0, 64, 74
2, 258113, Note_on_c, 0, 68, 0
2, 258121, Note_on_c, 0, 47, 0
2, 258123, Control_c, 0, 64, 64
2, 258143, Control_c, 0, 64, 50
2, 258162, Control_c, 0, 64, 36
2, 258181, Control_c, 0, 64, 35
2, 258220, Control_c, 0, 64, 40
2, 258228, Note_on_c, 0, 61, 0
2, 258239, Control_c, 0, 64, 52
2, 258258, Control_c, 0, 64, 59
2, 258277, Control_c, 0, 64, 63
2, 258296, Control_c, 0, 64, 65
2, 258315, Control_c, 0, 64, 67
2, 258334, Control_c, 0, 64, 69
2, 258354, Control_c, 0, 64, 75
2, 258373, Control_c, 0, 64, 83
2, 258392, Control_c, 0, 64, 98
2, 258411, Control_c, 0, 64, 112
2, 258431, Control_c, 0, 64, 119
2, 258450, Control_c, 0, 64, 121
2, 258490, Note_on_c, 0, 70, 62
2, 258585, Control_c, 0, 64, 119
2, 258603, Control_c, 0, 64, 118
2, 258623, Control_c, 0, 64, 117
2, 258642, Control_c, 0, 64, 116
2, 258661, Control_c, 0, 64, 115
2, 258795, Control_c, 0, 64, 114
2, 258814, Control_c, 0, 64, 112
2, 258834, Control_c, 0, 64, 105
2, 258853, Control_c, 0, 64, 91
2, 258872, Control_c, 0, 64, 75
2, 258890, Note_on_c, 0, 44, 48
2, 258891, Control_c, 0, 64, 63
2, 258893, Note_on_c, 0, 46, 0
2, 258908, Note_on_c, 0, 71, 59
2, 258911, Control_c, 0, 64, 40
2, 258912, Note_on_c, 0, 66, 0
2, 258930, Control_c, 0, 64, 17
2, 258962, Note_on_c, 0, 70, 0
2, 258968, Control_c, 0, 64, 19
2, 258988, Control_c, 0, 64, 37
2, 259006, Control_c, 0, 64, 54
2, 259026, Control_c, 0, 64, 62
2, 259045, Control_c, 0, 64, 64
2, 259065, Control_c, 0, 64, 67
2, 259083, Control_c, 0, 64, 70
2, 259103, Control_c, 0, 64, 76
2, 259122, Control_c, 0, 64, 87
2, 259141, Control_c, 0, 64, 105
2, 259160, Control_c, 0, 64, 127
2, 259304, Note_on_c, 0, 71, 0
2, 259307, Note_on_c, 0, 46, 58
2, 259307, Note_on_c, 0, 73, 70
2, 259318, Note_on_c, 0, 44, 0
2, 259390, Note_on_c, 0, 73, 0
2, 259680, Control_c, 0, 64, 97
2, 259699, Control_c, 0, 64, 73
2, 259705, Note_on_c, 0, 75, 75
2, 259712, Note_on_c, 0, 47, 51
2, 259718, Control_c, 0, 64, 61
2, 259718, Note_on_c, 0, 65, 59
2, 259722, Note_on_c, 0, 46, 0
2, 259738, Control_c, 0, 64, 42
2, 259756, Control_c, 0, 64, 39
2, 259775, Control_c, 0, 64, 41
2, 259795, Control_c, 0, 64, 52
2, 259814, Control_c, 0, 64, 62
2, 259833, Control_c, 0, 64, 65
2, 259838, Note_on_c, 0, 75, 0
2, 259852, Control_c, 0, 64, 69
2, 259872, Control_c, 0, 64, 75
2, 259890, Control_c, 0, 64, 88
2, 259899, Note_on_c, 0, 65, 0
2, 259910, Control_c, 0, 64, 108
2, 259929, Control_c, 0, 64, 127
2, 260107, Note_on_c, 0, 47, 0
2, 260110, Note_on_c, 0, 77, 75
2, 260111, Note_on_c, 0, 49, 60
2, 260504, Note_on_c, 0, 49, 0
2, 260515, Note_on_c, 0, 77, 0
2, 260519, Note_on_c, 0, 51, 48
2, 260520, Note_on_c, 0, 78, 74
2, 260525, Control_c, 0, 64, 98
2, 260545, Control_c, 0, 64, 74
2, 260564, Control_c, 0, 64, 60
2, 260583, Control_c, 0, 64, 34
2, 260602, Control_c, 0, 64, 32
2, 260639, Control_c, 0, 64, 41
2, 260658, Control_c, 0, 64, 55
2, 260677, Control_c, 0, 64, 62
2, 260696, Control_c, 0, 64, 64
2, 260715, Control_c, 0, 64, 67
2, 260734, Control_c, 0, 64, 70
2, 260754, Control_c, 0, 64, 75
2, 260773, Control_c, 0, 64, 85
2, 260792, Control_c, 0, 64, 108
2, 260811, Control_c, 0, 64, 127
2, 260889, Note_on_c, 0, 53, 56
2, 260900, Note_on_c, 0, 51, 0
2, 260914, Note_on_c, 0, 80, 83
2, 260989, Note_on_c, 0, 78, 0
2, 260997, Note_on_c, 0, 53, 0
2, 261307, Note_on_c, 0, 54, 50
2, 261340, Note_on_c, 0, 63, 35
2, 261343, Note_on_c, 0, 82, 79
2, 261368, Control_c, 0, 64, 83
2, 261388, Control_c, 0, 64, 67
2, 261396, Note_on_c, 0, 80, 0
2, 261406, Control_c, 0, 64, 48
2, 261426, Control_c, 0, 64, 39
2, 261465, Control_c, 0, 64, 42
2, 261483, Control_c, 0, 64, 52
2, 261503, Control_c, 0, 64, 60
2, 261522, Control_c, 0, 64, 64
2, 261541, Control_c, 0, 64, 67
2, 261560, Control_c, 0, 64, 71
2, 261580, Control_c, 0, 64, 77
2, 261599, Control_c, 0, 64, 87
2, 261618, Control_c, 0, 64, 103
2, 261637, Control_c, 0, 64, 127
2, 261721, Note_on_c, 0, 56, 56
2, 261723, Note_on_c, 0, 54, 0
2, 261734, Note_on_c, 0, 83, 79
2, 261762, Note_on_c, 0, 82, 0
2, 262060, Control_c, 0, 64, 94
2, 262078, Note_on_c, 0, 56, 0
2, 262079, Control_c, 0, 64, 73
2, 262098, Control_c, 0, 64, 56
2, 262099, Note_on_c, 0, 63, 0
2, 262115, Note_on_c, 0, 61, 49
2, 262116, Note_on_c, 0, 58, 45
2, 262117, Control_c, 0, 64, 22
2, 262136, Control_c, 0, 64, 11
2, 262174, Control_c, 0, 64, 26
2, 262194, Control_c, 0, 64, 47
2, 262213, Control_c, 0, 64, 60
2, 262232, Control_c, 0, 64, 64
2, 262251, Control_c, 0, 64, 66
2, 262271, Control_c, 0, 64, 68
2, 262290, Control_c, 0, 64, 73
2, 262309, Control_c, 0, 64, 81
2, 262328, Control_c, 0, 64, 96
2, 262348, Control_c, 0, 64, 127
2, 262530, Note_on_c, 0, 73, 75
2, 262542, Note_on_c, 0, 56, 48
2, 262545, Note_on_c, 0, 58, 0
2, 262545, Note_on_c, 0, 83, 0
2, 262548, Note_on_c, 0, 61, 0
2, 262551, Note_on_c, 0, 65, 31
2, 262944, Control_c, 0, 64, 83
2, 262944, Note_on_c, 0, 78, 80
2, 262955, Note_on_c, 0, 58, 48
2, 262956, Note_on_c, 0, 73, 0
2, 262963, Control_c, 0, 64, 67
2, 262969, Note_on_c, 0, 66, 51
2, 262982, Control_c, 0, 64, 52
2, 263001, Control_c, 0, 64, 29
2, 263005, Note_on_c, 0, 56, 0
2, 263021, Control_c, 0, 64, 27
2, 263059, Control_c, 0, 64, 36
2, 263069, Note_on_c, 0, 65, 0
2, 263078, Control_c, 0, 64, 51
2, 263097, Control_c, 0, 64, 61
2, 263116, Control_c, 0, 64, 65
2, 263135, Control_c, 0, 64, 68
2, 263155, Control_c, 0, 64, 73
2, 263174, Control_c, 0, 64, 81
2, 263193, Control_c, 0, 64, 96
2, 263212, Control_c, 0, 64, 114
2, 263232, Control_c, 0, 64, 127
2, 263283, Note_on_c, 0, 66, 0
2, 263336, Note_on_c, 0, 58, 0
2, 263347, Note_on_c, 0, 68, 68
2, 263349, Note_on_c, 0, 59, 59
2, 263655, Control_c, 0, 64, 115
2, 263674, Control_c, 0, 64, 99
2, 263693, Control_c, 0, 64, 80
2, 263713, Control_c, 0, 64, 65
2, 263731, Control_c, 0, 64, 42
2, 263749, Note_on_c, 0, 70, 70
2, 263750, Note_on_c, 0, 68, 0
2, 263751, Control_c, 0, 64, 0
2, 263757, Note_on_c, 0, 61, 52
2, 263764, Note_on_c, 0, 59, 0
2, 263847, Control_c, 0, 64, 26
2, 263866, Control_c, 0, 64, 52
2, 263885, Control_c, 0, 64, 62
2, 263905, Control_c, 0, 64, 65
2, 263924, Control_c, 0, 64, 67
2, 263943, Control_c, 0, 64, 70
2, 263962, Control_c, 0, 64, 76
2, 263981, Note_on_c, 0, 61, 0
2, 263982, Control_c, 0, 64, 88
2, 264000, Control_c, 0, 64, 113
2, 264020, Control_c, 0, 64, 127
2, 264145, Note_on_c, 0, 70, 0
2, 264171, Note_on_c, 0, 71, 62
2, 264397, Note_on_c, 0, 78, 0
2, 264537, Control_c, 0, 64, 95
2, 264551, Note_on_c, 0, 49, 65
2, 264556, Control_c, 0, 64, 75
2, 264563, Note_on_c, 0, 77, 62
2, 264572, Note_on_c, 0, 73, 55
2, 264575, Control_c, 0, 64, 60
2, 264595, Control_c, 0, 64, 0
2, 264604, Note_on_c, 0, 71, 0
2, 264710, Control_c, 0, 64, 9
2, 264729, Control_c, 0, 64, 50
2, 264749, Control_c, 0, 64, 61
2, 264767, Control_c, 0, 64, 64
2, 264787, Control_c, 0, 64, 66
2, 264807, Control_c, 0, 64, 69
2, 264826, Control_c, 0, 64, 75
2, 264845, Control_c, 0, 64, 88
2, 264865, Control_c, 0, 64, 107
2, 264884, Control_c, 0, 64, 127
2, 264969, Note_on_c, 0, 73, 0
2, 264983, Note_on_c, 0, 71, 57
2, 265345, Control_c, 0, 64, 121
2, 265356, Note_on_c, 0, 71, 0
2, 265364, Control_c, 0, 64, 93
2, 265372, Note_on_c, 0, 42, 61
2, 265381, Note_on_c, 0, 70, 59
2, 265383, Control_c, 0, 64, 74
2, 265402, Control_c, 0, 64, 60
2, 265421, Control_c, 0, 64, 26
2, 265440, Control_c, 0, 64, 0
2, 265442, Note_on_c, 0, 49, 0
2, 265507, Note_on_c, 0, 77, 0
2, 265535, Control_c, 0, 64, 43
2, 265555, Control_c, 0, 64, 59
2, 265574, Control_c, 0, 64, 64
2, 265593, Control_c, 0, 64, 65
2, 265612, Control_c, 0, 64, 67
2, 265632, Control_c, 0, 64, 70
2, 265650, Control_c, 0, 64, 76
2, 265670, Control_c, 0, 64, 89
2, 265689, Control_c, 0, 64, 109
2, 265709, Control_c, 0, 64, 127
2, 265819, Note_on_c, 0, 68, 65
2, 265820, Note_on_c, 0, 70, 0
2, 266151, Control_c, 0, 64, 112
2, 266170, Control_c, 0, 64, 83
2, 266190, Control_c, 0, 64, 67
2, 266208, Control_c, 0, 64, 50
2, 266209, Note_on_c, 0, 54, 61
2, 266228, Control_c, 0, 64, 0
2, 266232, Note_on_c, 0, 66, 45
2, 266233, Note_on_c, 0, 75, 48
2, 266240, Note_on_c, 0, 68, 0
2, 266305, Control_c, 0, 64, 18
2, 266324, Control_c, 0, 64, 46
2, 266343, Control_c, 0, 64, 60
2, 266362, Control_c, 0, 64, 64
2, 266381, Control_c, 0, 64, 66
2, 266400, Control_c, 0, 64, 69
2, 266419, Control_c, 0, 64, 73
2, 266438, Control_c, 0, 64, 81
2, 266457, Control_c, 0, 64, 94
2, 266476, Control_c, 0, 64, 115
2, 266495, Control_c, 0, 64, 127
2, 266608, Note_on_c, 0, 65, 51
2, 266611, Note_on_c, 0, 73, 63
2, 266623, Note_on_c, 0, 66, 0
2, 266688, Note_on_c, 0, 65, 0
2, 266812, Note_on_c, 0, 75, 0
2, 266937, Control_c, 0, 64, 99
2, 266956, Control_c, 0, 64, 75
2, 266975, Control_c, 0, 64, 62
2, 266986, Note_on_c, 0, 42, 0
2, 266995, Control_c, 0, 64, 43
2, 267007, Note_on_c, 0, 72, 66
2, 267014, Control_c, 0, 64, 35
2, 267033, Control_c, 0, 64, 36
2, 267035, Note_on_c, 0, 63, 45
2, 267052, Control_c, 0, 64, 48
2, 267072, Control_c, 0, 64, 60
2, 267090, Control_c, 0, 64, 65
2, 267110, Control_c, 0, 64, 68
2, 267129, Control_c, 0, 64, 73
2, 267149, Control_c, 0, 64, 81
2, 267158, Note_on_c, 0, 73, 0
2, 267167, Control_c, 0, 64, 92
2, 267168, Note_on_c, 0, 63, 0
2, 267187, Control_c, 0, 64, 105
2, 267206, Control_c, 0, 64, 123
2, 267226, Control_c, 0, 64, 127
2, 267342, Note_on_c, 0, 54, 0
2, 267392, Note_on_c, 0, 74, 72
2, 267398, Control_c, 0, 64, 106
2, 267417, Control_c, 0, 64, 77
2, 267419, Note_on_c, 0, 53, 55
2, 267421, Note_on_c, 0, 65, 47
2, 267425, Note_on_c, 0, 72, 0
2, 267436, Control_c, 0, 64, 63
2, 267455, Control_c, 0, 64, 46
2, 267475, Control_c, 0, 64, 45
2, 267484, Note_on_c, 0, 65, 0
2, 267494, Control_c, 0, 64, 50
2, 267513, Control_c, 0, 64, 60
2, 267532, Control_c, 0, 64, 65
2, 267552, Control_c, 0, 64, 70
2, 267570, Control_c, 0, 64, 76
2, 267590, Control_c, 0, 64, 86
2, 267609, Control_c, 0, 64, 96
2, 267629, Control_c, 0, 64, 110
2, 267647, Control_c, 0, 64, 127
2, 267761, Control_c, 0, 64, 81
2, 267781, Control_c, 0, 64, 65
2, 267799, Control_c, 0, 64, 52
2, 267810, Note_on_c, 0, 75, 75
2, 267819, Control_c, 0, 64, 48
2, 267821, Note_on_c, 0, 51, 49
2, 267821, Note_on_c, 0, 66, 53
2, 267838, Control_c, 0, 64, 51
2, 267840, Note_on_c, 0, 53, 0
2, 267842, Note_on_c, 0, 74, 0
2, 267856, Control_c, 0, 64, 60
2, 267876, Control_c, 0, 64, 66
2, 267895, Control_c, 0, 64, 70
2, 267915, Control_c, 0, 64, 78
2, 267933, Control_c, 0, 64, 90
2, 267940, Note_on_c, 0, 75, 0
2, 267953, Control_c, 0, 64, 108
2, 267972, Control_c, 0, 64, 127
2, 268111, Note_on_c, 0, 66, 0
2, 268184, Control_c, 0, 64, 84
2, 268200, Note_on_c, 0, 77, 74
2, 268202, Control_c, 0, 64, 68
2, 268209, Note_on_c, 0, 49, 51
2, 268210, Note_on_c, 0, 51, 0
2, 268222, Control_c, 0, 64, 60
2, 268241, Control_c, 0, 64, 58
2, 268245, Note_on_c, 0, 70, 35
2, 268261, Control_c, 0, 64, 60
2, 268279, Control_c, 0, 64, 64
2, 268294, Note_on_c, 0, 70, 0
2, 268298, Control_c, 0, 64, 68
2, 268318, Control_c, 0, 64, 74
2, 268336, Control_c, 0, 64, 83
2, 268349, Note_on_c, 0, 77, 0
2, 268356, Control_c, 0, 64, 95
2, 268375, Control_c, 0, 64, 106
2, 268395, Control_c, 0, 64, 117
2, 268413, Control_c, 0, 64, 127
2, 268599, Note_on_c, 0, 49, 0
2, 268605, Control_c, 0, 64, 88
2, 268609, Note_on_c, 0, 78, 73
2, 268622, Note_on_c, 0, 48, 53
2, 268625, Control_c, 0, 64, 69
2, 268625, Note_on_c, 0, 75, 56
2, 268646, Control_c, 0, 64, 56
2, 268666, Control_c, 0, 64, 40
2, 268684, Control_c, 0, 64, 39
2, 268704, Control_c, 0, 64, 44
2, 268723, Control_c, 0, 64, 57
2, 268742, Control_c, 0, 64, 63
2, 268761, Control_c, 0, 64, 67
2, 268781, Control_c, 0, 64, 71
2, 268800, Control_c, 0, 64, 78
2, 268818, Control_c, 0, 64, 89
2, 268838, Control_c, 0, 64, 106
2, 268857, Control_c, 0, 64, 127
2, 269043, Note_on_c, 0, 46, 45
2, 269043, Note_on_c, 0, 73, 58
2, 269070, Note_on_c, 0, 48, 0
2, 269176, Note_on_c, 0, 75, 0
2, 269220, Note_on_c, 0, 78, 0
2, 269412, Control_c, 0, 64, 93
2, 269431, Control_c, 0, 64, 72
2, 269449, Note_on_c, 0, 45, 46
2, 269450, Control_c, 0, 64, 60
2, 269454, Note_on_c, 0, 77, 62
2, 269464, Note_on_c, 0, 72, 51
2, 269470, Control_c, 0, 64, 35
2, 269489, Control_c, 0, 64, 17
2, 269506, Note_on_c, 0, 46, 0
2, 269508, Control_c, 0, 64, 0
2, 269515, Note_on_c, 0, 73, 0
2, 269565, Control_c, 0, 64, 29
2, 269585, Control_c, 0, 64, 51
2, 269604, Control_c, 0, 64, 62
2, 269624, Control_c, 0, 64, 66
2, 269642, Control_c, 0, 64, 70
2, 269662, Control_c, 0, 64, 77
2, 269681, Control_c, 0, 64, 86
2, 269701, Control_c, 0, 64, 100
2, 269719, Control_c, 0, 64, 127
2, 269845, Note_on_c, 0, 75, 67
2, 269846, Note_on_c, 0, 41, 49
2, 269857, Note_on_c, 0, 45, 0
2, 270161, Control_c, 0, 64, 106
2, 270181, Control_c, 0, 64, 85
2, 270199, Control_c, 0, 64, 69
2, 270218, Control_c, 0, 64, 53
2, 270238, Control_c, 0, 64, 9
2, 270256, Control_c, 0, 64, 0
2, 270256, Note_on_c, 0, 73, 66
2, 270258, Note_on_c, 0, 46, 42
2, 270269, Note_on_c, 0, 41, 0
2, 270290, Note_on_c, 0, 72, 0
2, 270300, Note_on_c, 0, 77, 0
2, 270317, Note_on_c, 0, 75, 0
2, 270333, Control_c, 0, 64, 31
2, 270353, Control_c, 0, 64, 52
2, 270372, Control_c, 0, 64, 62
2, 270391, Control_c, 0, 64, 65
2, 270410, Control_c, 0, 64, 67
2, 270430, Control_c, 0, 64, 71
2, 270449, Control_c, 0, 64, 77
2, 270468, Control_c, 0, 64, 87
2, 270487, Control_c, 0, 64, 112
2, 270507, Control_c, 0, 64, 127
2, 270621, Note_on_c, 0, 46, 0
2, 270636, Note_on_c, 0, 48, 45
2, 270654, Note_on_c, 0, 75, 73
2, 270724, Note_on_c, 0, 73, 0
2, 271025, Control_c, 0, 64, 92
2, 271044, Control_c, 0, 64, 69
2, 271055, Note_on_c, 0, 49, 46
2, 271064, Control_c, 0, 64, 54
2, 271068, Note_on_c, 0, 48, 0
2, 271070, Note_on_c, 0, 77, 66
2, 271082, Control_c, 0, 64, 18
2, 271094, Note_on_c, 0, 75, 0
2, 271095, Note_on_c, 0, 70, 43
2, 271102, Control_c, 0, 64, 0
2, 271141, Control_c, 0, 64, 13
2, 271159, Control_c, 0, 64, 41
2, 271178, Control_c, 0, 64, 59
2, 271198, Control_c, 0, 64, 64
2, 271216, Control_c, 0, 64, 67
2, 271236, Control_c, 0, 64, 70
2, 271255, Control_c, 0, 64, 75
2, 271275, Control_c, 0, 64, 84
2, 271293, Control_c, 0, 64, 98
2, 271313, Control_c, 0, 64, 127
2, 271447, Control_c, 0, 64, 83
2, 271456, Note_on_c, 0, 77, 0
2, 271465, Note_on_c, 0, 78, 65
2, 271466, Note_on_c, 0, 51, 38
2, 271467, Control_c, 0, 64, 69
2, 271485, Control_c, 0, 64, 63
2, 271486, Note_on_c, 0, 49, 0
2, 271505, Control_c, 0, 64, 61
2, 271526, Control_c, 0, 64, 63
2, 271546, Control_c, 0, 64, 65
2, 271564, Control_c, 0, 64, 68
2, 271584, Control_c, 0, 64, 75
2, 271603, Control_c, 0, 64, 82
2, 271622, Control_c, 0, 64, 90
2, 271641, Control_c, 0, 64, 98
2, 271661, Control_c, 0, 64, 104
2, 271680, Control_c, 0, 64, 107
2, 271698, Control_c, 0, 64, 108
2, 271795, Control_c, 0, 64, 101
2, 271814, Control_c, 0, 64, 85
2, 271833, Control_c, 0, 64, 70
2, 271848, Note_on_c, 0, 51, 0
2, 271852, Control_c, 0, 64, 59
2, 271869, Note_on_c, 0, 73, 63
2, 271872, Control_c, 0, 64, 42
2, 271882, Note_on_c, 0, 53, 30
2, 271890, Control_c, 0, 64, 41
2, 271910, Control_c, 0, 64, 41
2, 271929, Control_c, 0, 64, 49
2, 271949, Control_c, 0, 64, 59
2, 271961, Note_on_c, 0, 78, 0
2, 271967, Control_c, 0, 64, 64
2, 271987, Control_c, 0, 64, 67
2, 272006, Control_c, 0, 64, 72
2, 272026, Control_c, 0, 64, 80
2, 272044, Control_c, 0, 64, 95
2, 272064, Control_c, 0, 64, 127
2, 272249, Note_on_c, 0, 73, 0
2, 272255, Note_on_c, 0, 51, 40
2, 272270, Note_on_c, 0, 70, 0
2, 272276, Note_on_c, 0, 53, 0
2, 272615, Note_on_c, 0, 51, 0
2, 272618, Control_c, 0, 64, 110
2, 272636, Note_on_c, 0, 53, 34
2, 272638, Control_c, 0, 64, 79
2, 272656, Control_c, 0, 64, 64
2, 272670, Note_on_c, 0, 72, 62
2, 272676, Control_c, 0, 64, 47
2, 272694, Note_on_c, 0, 69, 42
2, 272695, Control_c, 0, 64, 39
2, 272715, Control_c, 0, 64, 40
2, 272733, Control_c, 0, 64, 47
2, 272753, Control_c, 0, 64, 59
2, 272772, Control_c, 0, 64, 65
2, 272791, Control_c, 0, 64, 69
2, 272810, Control_c, 0, 64, 75
2, 272830, Control_c, 0, 64, 90
2, 272849, Control_c, 0, 64, 114
2, 272868, Control_c, 0, 64, 127
2, 272871, Note_on_c, 0, 69, 0
2, 273051, Note_on_c, 0, 72, 0
2, 273061, Note_on_c, 0, 41, 41
2, 273593, Note_on_c, 0, 41, 0
2, 273593, Note_on_c, 0, 46, 37
2, 273656, Note_on_c, 0, 58, 68
2, 273667, Note_on_c, 0, 70, 66
2, 273694, Control_c, 0, 64, 95
2, 273714, Control_c, 0, 64, 73
2, 273733, Control_c, 0, 64, 61
2, 273752, Control_c, 0, 64, 38
2, 273770, Note_on_c, 0, 53, 0
2, 273771, Control_c, 0, 64, 21
2, 273791, Control_c, 0, 64, 20
2, 273810, Control_c, 0, 64, 21
2, 273829, Control_c, 0, 64, 34
2, 273848, Control_c, 0, 64, 50
2, 273868, Control_c, 0, 64, 61
2, 273886, Control_c, 0, 64, 65
2, 273906, Control_c, 0, 64, 67
2, 273925, Control_c, 0, 64, 72
2, 273945, Control_c, 0, 64, 79
2, 273963, Control_c, 0, 64, 90
2, 273983, Control_c, 0, 64, 108
2, 274002, Control_c, 0, 64, 127
2, 274149, Note_on_c, 0, 45, 41
2, 274154, Note_on_c, 0, 46, 0
2, 274515, Note_on_c, 0, 46, 45
2, 274519, Control_c, 0, 64, 90
2, 274538, Control_c, 0, 64, 72
2, 274542, Note_on_c, 0, 45, 0
2, 274558, Control_c, 0, 64, 60
2, 274571, Note_on_c, 0, 65, 68
2, 274576, Control_c, 0, 64, 38
2, 274596, Control_c, 0, 64, 24
2, 274615, Control_c, 0, 64, 23
2, 274623, Note_on_c, 0, 58, 0
2, 274635, Control_c, 0, 64, 24
2, 274653, Control_c, 0, 64, 36
2, 274673, Control_c, 0, 64, 53
2, 274692, Control_c, 0, 64, 62
2, 274711, Control_c, 0, 64, 66
2, 274725, Note_on_c, 0, 70, 0
2, 274730, Control_c, 0, 64, 69
2, 274750, Control_c, 0, 64, 75
2, 274769, Control_c, 0, 64, 84
2, 274788, Control_c, 0, 64, 98
2, 274807, Control_c, 0, 64, 127
2, 274969, Note_on_c, 0, 46, 0
2, 274998, Note_on_c, 0, 48, 50
2, 275345, Control_c, 0, 64, 97
2, 275364, Control_c, 0, 64, 75
2, 275384, Control_c, 0, 64, 63
2, 275388, Note_on_c, 0, 48, 0
2, 275389, Note_on_c, 0, 49, 42
2, 275402, Control_c, 0, 64, 42
2, 275406, Note_on_c, 0, 70, 74
2, 275422, Control_c, 0, 64, 26
2, 275461, Control_c, 0, 64, 28
2, 275479, Control_c, 0, 64, 44
2, 275498, Control_c, 0, 64, 59
2, 275518, Control_c, 0, 64, 64
2, 275536, Control_c, 0, 64, 67
2, 275556, Control_c, 0, 64, 70
2, 275575, Control_c, 0, 64, 76
2, 275595, Control_c, 0, 64, 83
2, 275613, Control_c, 0, 64, 92
2, 275633, Control_c, 0, 64, 103
2, 275652, Control_c, 0, 64, 114
2, 275671, Control_c, 0, 64, 123
2, 275690, Control_c, 0, 64, 127
2, 275806, Note_on_c, 0, 48, 42
2, 275825, Note_on_c, 0, 66, 71
2, 275846, Note_on_c, 0, 49, 0
2, 275880, Note_on_c, 0, 70, 0
2, 275951, Note_on_c, 0, 65, 0
2, 276000, Note_on_c, 0, 66, 0
2, 276190, Control_c, 0, 64, 96
2, 276206, Note_on_c, 0, 77, 76
2, 276209, Control_c, 0, 64, 73
2, 276226, Note_on_c, 0, 49, 47
2, 276228, Control_c, 0, 64, 60
2, 276231, Note_on_c, 0, 48, 0
2, 276232, Note_on_c, 0, 65, 65
2, 276247, Control_c, 0, 64, 37
2, 276267, Control_c, 0, 64, 30
2, 276305, Control_c, 0, 64, 41
2, 276324, Control_c, 0, 64, 57
2, 276344, Control_c, 0, 64, 64
2, 276346, Note_on_c, 0, 77, 0
2, 276362, Control_c, 0, 64, 67
2, 276382, Control_c, 0, 64, 72
2, 276401, Control_c, 0, 64, 82
2, 276421, Control_c, 0, 64, 97
2, 276439, Control_c, 0, 64, 127
2, 276631, Note_on_c, 0, 63, 75
2, 276632, Note_on_c, 0, 65, 0
2, 276644, Note_on_c, 0, 51, 47
2, 276646, Note_on_c, 0, 49, 0
2, 276958, Control_c, 0, 64, 84
2, 276976, Control_c, 0, 64, 66
2, 276996, Control_c, 0, 64, 44
2, 277015, Control_c, 0, 64, 0
2, 277025, Note_on_c, 0, 61, 74
2, 277037, Note_on_c, 0, 53, 43
2, 277038, Note_on_c, 0, 63, 0
2, 277042, Note_on_c, 0, 51, 0
2, 277073, Control_c, 0, 64, 9
2, 277092, Control_c, 0, 64, 49
2, 277111, Control_c, 0, 64, 61
2, 277125, Note_on_c, 0, 61, 0
2, 277130, Control_c, 0, 64, 65
2, 277150, Control_c, 0, 64, 68
2, 277169, Control_c, 0, 64, 73
2, 277188, Control_c, 0, 64, 83
2, 277207, Control_c, 0, 64, 104
2, 277227, Control_c, 0, 64, 127
2, 277293, Note_on_c, 0, 63, 60
2, 277333, Note_on_c, 0, 63, 0
2, 277381, Note_on_c, 0, 78, 75
2, 277393, Note_on_c, 0, 51, 46
2, 277410, Note_on_c, 0, 53, 0
2, 277544, Note_on_c, 0, 78, 0
2, 277762, Note_on_c, 0, 77, 80
2, 277764, Control_c, 0, 64, 106
2, 277781, Note_on_c, 0, 49, 48
2, 277784, Control_c, 0, 64, 76
2, 277784, Note_on_c, 0, 65, 57
2, 277802, Control_c, 0, 64, 62
2, 277804, Note_on_c, 0, 51, 0
2, 277822, Control_c, 0, 64, 26
2, 277841, Control_c, 0, 64, 0
2, 277899, Control_c, 0, 64, 13
2, 277919, Control_c, 0, 64, 50
2, 277937, Control_c, 0, 64, 62
2, 277957, Control_c, 0, 64, 65
2, 277976, Control_c, 0, 64, 69
2, 277996, Control_c, 0, 64, 75
2, 278014, Control_c, 0, 64, 86
2, 278034, Control_c, 0, 64, 103
2, 278053, Control_c, 0, 64, 127
2, 278132, Note_on_c, 0, 51, 44
2, 278137, Note_on_c, 0, 75, 82
2, 278177, Note_on_c, 0, 49, 0
2, 278194, Note_on_c, 0, 77, 0
2, 278292, Note_on_c, 0, 51, 0
2, 278320, Note_on_c, 0, 53, 54
2, 278494, Control_c, 0, 64, 98
2, 278508, Note_on_c, 0, 53, 0
2, 278514, Control_c, 0, 64, 73
2, 278527, Note_on_c, 0, 73, 73
2, 278533, Control_c, 0, 64, 59
2, 278545, Note_on_c, 0, 54, 47
2, 278546, Note_on_c, 0, 58, 43
2, 278552, Control_c, 0, 64, 21
2, 278571, Control_c, 0, 64, 0
2, 278571, Note_on_c, 0, 75, 0
2, 278610, Control_c, 0, 64, 25
2, 278629, Control_c, 0, 64, 51
2, 278630, Note_on_c, 0, 54, 0
2, 278648, Control_c, 0, 64, 62
2, 278668, Control_c, 0, 64, 65
2, 278686, Control_c, 0, 64, 68
2, 278706, Control_c, 0, 64, 72
2, 278722, Note_on_c, 0, 53, 17
2, 278725, Control_c, 0, 64, 80
2, 278745, Control_c, 0, 64, 97
2, 278763, Control_c, 0, 64, 127
2, 278881, Note_on_c, 0, 53, 0
2, 278890, Note_on_c, 0, 54, 42
2, 278912, Note_on_c, 0, 75, 78
2, 278926, Note_on_c, 0, 58, 0
2, 278937, Note_on_c, 0, 54, 0
2, 278968, Note_on_c, 0, 73, 0
2, 279243, Control_c, 0, 64, 103
2, 279263, Control_c, 0, 64, 76
2, 279278, Note_on_c, 0, 65, 0
2, 279281, Note_on_c, 0, 45, 46
2, 279282, Control_c, 0, 64, 60
2, 279300, Control_c, 0, 64, 29
2, 279300, Note_on_c, 0, 77, 75
2, 279320, Control_c, 0, 64, 0
2, 279377, Control_c, 0, 64, 35
2, 279397, Control_c, 0, 64, 55
2, 279416, Control_c, 0, 64, 63
2, 279436, Control_c, 0, 64, 67
2, 279439, Note_on_c, 0, 75, 0
2, 279454, Control_c, 0, 64, 71
2, 279474, Control_c, 0, 64, 78
2, 279480, Note_on_c, 0, 77, 0
2, 279493, Control_c, 0, 64, 90
2, 279512, Control_c, 0, 64, 111
2, 279531, Control_c, 0, 64, 127
2, 279604, Note_on_c, 0, 45, 0
2, 279707, Note_on_c, 0, 63, 67
2, 280031, Control_c, 0, 64, 89
2, 280050, Control_c, 0, 64, 70
2, 280069, Control_c, 0, 64, 55
2, 280088, Control_c, 0, 64, 0
2, 280102, Note_on_c, 0, 46, 41
2, 280124, Note_on_c, 0, 70, 46
2, 280165, Control_c, 0, 64, 27
2, 280185, Control_c, 0, 64, 55
2, 280203, Control_c, 0, 64, 63
2, 280223, Control_c, 0, 64, 67
2, 280242, Control_c, 0, 64, 72
2, 280260, Control_c, 0, 64, 82
2, 280280, Control_c, 0, 64, 100
2, 280299, Control_c, 0, 64, 127
2, 280479, Note_on_c, 0, 46, 0
2, 280500, Note_on_c, 0, 61, 64
2, 280561, Note_on_c, 0, 63, 0
2, 280575, Note_on_c, 0, 70, 0
2, 280696, Note_on_c, 0, 61, 0
2, 280895, Note_on_c, 0, 60, 54
2, 280904, Note_on_c, 0, 48, 53
2, 280933, Control_c, 0, 64, 80
2, 280952, Control_c, 0, 64, 65
2, 280971, Control_c, 0, 64, 43
2, 280991, Control_c, 0, 64, 0
2, 281048, Control_c, 0, 64, 26
2, 281068, Control_c, 0, 64, 54
2, 281086, Control_c, 0, 64, 63
2, 281106, Control_c, 0, 64, 66
2, 281125, Control_c, 0, 64, 69
2, 281145, Control_c, 0, 64, 74
2, 281163, Control_c, 0, 64, 82
2, 281183, Control_c, 0, 64, 96
2, 281202, Control_c, 0, 64, 127
2, 281207, Note_on_c, 0, 60, 0
2, 281314, Note_on_c, 0, 75, 79
2, 281653, Note_on_c, 0, 48, 0
2, 281695, Note_on_c, 0, 49, 46
2, 281700, Control_c, 0, 64, 90
2, 281709, Note_on_c, 0, 58, 43
2, 281720, Control_c, 0, 64, 70
2, 281740, Control_c, 0, 64, 54
2, 281760, Control_c, 0, 64, 0
2, 281817, Control_c, 0, 64, 17
2, 281836, Control_c, 0, 64, 47
2, 281855, Control_c, 0, 64, 61
2, 281875, Control_c, 0, 64, 64
2, 281894, Control_c, 0, 64, 67
2, 281913, Control_c, 0, 64, 71
2, 281932, Control_c, 0, 64, 77
2, 281952, Control_c, 0, 64, 88
2, 281970, Control_c, 0, 64, 106
2, 281990, Control_c, 0, 64, 127
2, 282079, Note_on_c, 0, 49, 0
2, 282099, Note_on_c, 0, 46, 49
2, 282106, Note_on_c, 0, 73, 70
2, 282179, Note_on_c, 0, 75, 0
2, 282245, Note_on_c, 0, 73, 0
2, 282523, Note_on_c, 0, 72, 69
2, 282527, Control_c, 0, 64, 110
2, 282528, Note_on_c, 0, 53, 40
2, 282547, Control_c, 0, 64, 81
2, 282566, Control_c, 0, 64, 66
2, 282586, Control_c, 0, 64, 44
2, 282604, Control_c, 0, 64, 15
2, 282624, Control_c, 0, 64, 9
2, 282662, Control_c, 0, 64, 22
2, 282681, Control_c, 0, 64, 46
2, 282700, Control_c, 0, 64, 60
2, 282720, Control_c, 0, 64, 65
2, 282738, Control_c, 0, 64, 68
2, 282758, Control_c, 0, 64, 71
2, 282777, Control_c, 0, 64, 75
2, 282796, Control_c, 0, 64, 79
2, 282815, Control_c, 0, 64, 82
2, 282835, Control_c, 0, 64, 84
2, 282867, Note_on_c, 0, 46, 0
2, 282892, Control_c, 0, 64, 84
2, 282912, Control_c, 0, 64, 82
2, 282916, Note_on_c, 0, 68, 75
2, 282920, Note_on_c, 0, 51, 44
2, 282930, Control_c, 0, 64, 77
2, 282932, Note_on_c, 0, 53, 0
2, 282950, Control_c, 0, 64, 69
2, 282969, Control_c, 0, 64, 61
2, 282973, Note_on_c, 0, 72, 0
2, 282989, Control_c, 0, 64, 39
2, 283007, Control_c, 0, 64, 0
2, 283294, Note_on_c, 0, 51, 0
2, 283311, Note_on_c, 0, 50, 47
2, 283317, Note_on_c, 0, 70, 62
2, 283601, Control_c, 0, 64, 15
2, 283620, Control_c, 0, 64, 26
2, 283639, Control_c, 0, 64, 29
2, 283658, Control_c, 0, 64, 31
2, 283696, Control_c, 0, 64, 31
2, 283703, Note_on_c, 0, 51, 47
2, 283709, Note_on_c, 0, 50, 0
2, 283726, Note_on_c, 0, 66, 69
2, 283755, Note_on_c, 0, 68, 0
2, 283768, Note_on_c, 0, 70, 0
2, 283793, Control_c, 0, 64, 31
2, 283812, Control_c, 0, 64, 29
2, 283831, Control_c, 0, 64, 27
2, 283845, Note_on_c, 0, 58, 0
2, 283850, Control_c, 0, 64, 26
2, 283870, Control_c, 0, 64, 25
2, 283947, Control_c, 0, 64, 27
2, 283965, Control_c, 0, 64, 34
2, 283985, Control_c, 0, 64, 43
2, 284006, Control_c, 0, 64, 51
2, 284026, Control_c, 0, 64, 57
2, 284044, Control_c, 0, 64, 59
2, 284064, Control_c, 0, 64, 61
2, 284083, Control_c, 0, 64, 63
2, 284101, Control_c, 0, 64, 64
2, 284119, Note_on_c, 0, 66, 0
2, 284121, Control_c, 0, 64, 66
2, 284127, Note_on_c, 0, 65, 69
2, 284140, Control_c, 0, 64, 69
2, 284160, Control_c, 0, 64, 75
2, 284178, Control_c, 0, 64, 84
2, 284198, Control_c, 0, 64, 98
2, 284204, Note_on_c, 0, 65, 0
2, 284217, Control_c, 0, 64, 119
2, 284236, Control_c, 0, 64, 127
2, 284518, Note_on_c, 0, 50, 51
2, 284525, Note_on_c, 0, 51, 0
2, 284531, Note_on_c, 0, 80, 85
2, 284610, Note_on_c, 0, 50, 0
2, 284888, Control_c, 0, 64, 104
2, 284899, Note_on_c, 0, 51, 57
2, 284908, Control_c, 0, 64, 79
2, 284914, Note_on_c, 0, 63, 47
2, 284926, Control_c, 0, 64, 64
2, 284946, Control_c, 0, 64, 48
2, 284965, Control_c, 0, 64, 31
2, 284985, Control_c, 0, 64, 27
2, 285003, Control_c, 0, 64, 24
2, 285023, Control_c, 0, 64, 23
2, 285307, Note_on_c, 0, 60, 42
2, 285322, Note_on_c, 0, 78, 74
2, 285408, Note_on_c, 0, 63, 0
2, 285483, Control_c, 0, 64, 24
2, 285636, Control_c, 0, 64, 25
2, 285655, Control_c, 0, 64, 27
2, 285675, Control_c, 0, 64, 32
2, 285693, Control_c, 0, 64, 37
2, 285710, Note_on_c, 0, 60, 0
2, 285713, Control_c, 0, 64, 42
2, 285723, Note_on_c, 0, 80, 0
2, 285727, Note_on_c, 0, 77, 72
2, 285732, Control_c, 0, 64, 47
2, 285735, Note_on_c, 0, 57, 45
2, 285751, Control_c, 0, 64, 54
2, 285770, Control_c, 0, 64, 58
2, 285790, Control_c, 0, 64, 60
2, 285809, Control_c, 0, 64, 62
2, 285828, Control_c, 0, 64, 63
2, 285847, Control_c, 0, 64, 65
2, 285867, Control_c, 0, 64, 66
2, 285885, Control_c, 0, 64, 69
2, 285905, Control_c, 0, 64, 72
2, 285924, Control_c, 0, 64, 78
2, 285944, Control_c, 0, 64, 87
2, 285962, Control_c, 0, 64, 100
2, 285970, Note_on_c, 0, 78, 0
2, 285981, Control_c, 0, 64, 118
2, 286001, Control_c, 0, 64, 127
2, 286098, Note_on_c, 0, 57, 0
2, 286123, Note_on_c, 0, 58, 55
2, 286124, Note_on_c, 0, 61, 43
2, 286137, Note_on_c, 0, 77, 0
2, 286365, Control_c, 0, 64, 119
2, 286385, Control_c, 0, 64, 107
2, 286404, Control_c, 0, 64, 97
2, 286424, Control_c, 0, 64, 85
2, 286442, Control_c, 0, 64, 76
2, 286461, Control_c, 0, 64, 70
2, 286465, Note_on_c, 0, 51, 0
2, 286481, Control_c, 0, 64, 66
2, 286494, Note_on_c, 0, 54, 42
2, 286495, Control_c, 0, 64, 62
2, 286495, Note_on_c, 0, 70, 73
2, 286513, Control_c, 0, 64, 58
2, 286531, Control_c, 0, 64, 54
2, 286550, Control_c, 0, 64, 48
2, 286570, Control_c, 0, 64, 44
2, 286588, Control_c, 0, 64, 41
2, 286608, Control_c, 0, 64, 37
2, 286627, Control_c, 0, 64, 32
2, 286646, Control_c, 0, 64, 27
2, 286664, Note_on_c, 0, 75, 70
2, 286665, Control_c, 0, 64, 19
2, 286685, Control_c, 0, 64, 11
2, 286704, Control_c, 0, 64, 0
2, 286730, Note_on_c, 0, 70, 0
2, 286848, Note_on_c, 0, 61, 0
2, 286861, Note_on_c, 0, 77, 72
2, 286871, Note_on_c, 0, 58, 0
2, 286871, Note_on_c, 0, 75, 0
2, 286876, Note_on_c, 0, 54, 0
2, 286880, Note_on_c, 0, 69, 62
2, 286885, Note_on_c, 0, 53, 47
2, 286993, Note_on_c, 0, 69, 0
2, 287038, Note_on_c, 0, 78, 70
2, 287057, Note_on_c, 0, 77, 0
2, 287242, Note_on_c, 0, 78, 0
2, 287244, Note_on_c, 0, 75, 72
2, 287250, Note_on_c, 0, 70, 59
2, 287260, Note_on_c, 0, 53, 0
2, 287261, Note_on_c, 0, 54, 47
2, 287340, Control_c, 0, 64, 15
2, 287359, Control_c, 0, 64, 31
2, 287379, Control_c, 0, 64, 46
2, 287397, Control_c, 0, 64, 58
2, 287417, Control_c, 0, 64, 61
2, 287436, Control_c, 0, 64, 63
2, 287455, Control_c, 0, 64, 65
2, 287474, Control_c, 0, 64, 67
2, 287491, Control_c, 0, 64, 71
2, 287510, Control_c, 0, 64, 78
2, 287530, Control_c, 0, 64, 92
2, 287548, Control_c, 0, 64, 107
2, 287568, Control_c, 0, 64, 127
2, 287595, Note_on_c, 0, 70, 0
2, 287759, Control_c, 0, 64, 121
2, 287779, Control_c, 0, 64, 118
2, 287798, Control_c, 0, 64, 117
2, 287817, Control_c, 0, 64, 116
2, 287849, Note_on_c, 0, 77, 74
2, 287873, Note_on_c, 0, 75, 0
2, 287896, Control_c, 0, 64, 115
2, 287915, Control_c, 0, 64, 114
2, 287950, Note_on_c, 0, 77, 0
2, 287953, Control_c, 0, 64, 113
2, 287973, Control_c, 0, 64, 112
2, 287992, Control_c, 0, 64, 107
2, 288011, Control_c, 0, 64, 94
2, 288030, Control_c, 0, 64, 77
2, 288050, Control_c, 0, 64, 65
2, 288065, Note_on_c, 0, 54, 0
2, 288067, Note_on_c, 0, 77, 77
2, 288069, Control_c, 0, 64, 48
2, 288073, Note_on_c, 0, 53, 45
2, 288075, Note_on_c, 0, 69, 58
2, 288088, Control_c, 0, 64, 0
2, 288184, Control_c, 0, 64, 41
2, 288204, Control_c, 0, 64, 58
2, 288220, Note_on_c, 0, 69, 0
2, 288222, Control_c, 0, 64, 64
2, 288242, Control_c, 0, 64, 66
2, 288261, Control_c, 0, 64, 69
2, 288279, Control_c, 0, 64, 74
2, 288299, Control_c, 0, 64, 85
2, 288305, Note_on_c, 0, 77, 0
2, 288318, Control_c, 0, 64, 107
2, 288338, Control_c, 0, 64, 127
2, 288636, Note_on_c, 0, 53, 0
2, 288895, Note_on_c, 0, 82, 84
2, 288909, Note_on_c, 0, 70, 74
2, 288912, Control_c, 0, 64, 86
2, 288932, Control_c, 0, 64, 71
2, 288951, Control_c, 0, 64, 61
2, 288970, Control_c, 0, 64, 49
2, 288989, Control_c, 0, 64, 41
2, 289009, Control_c, 0, 64, 38
2, 289028, Control_c, 0, 64, 32
2, 289047, Control_c, 0, 64, 17
2, 289066, Control_c, 0, 64, 0
2, 289666, Note_on_c, 0, 54, 49
2, 289700, Control_c, 0, 64, 9
2, 289719, Control_c, 0, 64, 22
2, 289738, Control_c, 0, 64, 34
2, 289739, Note_on_c, 0, 75, 75
2, 289759, Control_c, 0, 64, 42
2, 289779, Control_c, 0, 64, 50
2, 289797, Control_c, 0, 64, 55
2, 289817, Control_c, 0, 64, 59
2, 289836, Control_c, 0, 64, 62
2, 289855, Control_c, 0, 64, 63
2, 289874, Control_c, 0, 64, 65
2, 289894, Control_c, 0, 64, 67
2, 289911, Note_on_c, 0, 82, 0
2, 289913, Control_c, 0, 64, 71
2, 289932, Control_c, 0, 64, 77
2, 289951, Control_c, 0, 64, 87
2, 289971, Control_c, 0, 64, 104
2, 289990, Control_c, 0, 64, 127
2, 289990, Note_on_c, 0, 70, 0
2, 290133, Note_on_c, 0, 83, 79
2, 290489, Control_c, 0, 64, 96
2, 290508, Control_c, 0, 64, 73
2, 290528, Control_c, 0, 64, 61
2, 290543, Note_on_c, 0, 59, 67
2, 290545, Note_on_c, 0, 82, 76
2, 290546, Control_c, 0, 64, 39
2, 290566, Control_c, 0, 64, 29
2, 290605, Control_c, 0, 64, 33
2, 290623, Control_c, 0, 64, 47
2, 290643, Control_c, 0, 64, 59
2, 290662, Control_c, 0, 64, 64
2, 290681, Control_c, 0, 64, 67
2, 290683, Note_on_c, 0, 75, 0
2, 290700, Control_c, 0, 64, 72
2, 290719, Control_c, 0, 64, 79
2, 290739, Control_c, 0, 64, 91
2, 290757, Control_c, 0, 64, 112
2, 290777, Control_c, 0, 64, 127
2, 290913, Note_on_c, 0, 83, 0
2, 290942, Note_on_c, 0, 80, 82
2, 290945, Note_on_c, 0, 76, 64
2, 291004, Note_on_c, 0, 82, 0
2, 291100, Note_on_c, 0, 80, 0
2, 291165, Note_on_c, 0, 54, 0
2, 291314, Control_c, 0, 64, 117
2, 291334, Control_c, 0, 64, 90
2, 291343, Note_on_c, 0, 79, 73
2, 291353, Control_c, 0, 64, 76
2, 291372, Control_c, 0, 64, 69
2, 291373, Note_on_c, 0, 75, 61
2, 291386, Note_on_c, 0, 76, 0
2, 291391, Control_c, 0, 64, 64
2, 291411, Control_c, 0, 64, 62
2, 291430, Control_c, 0, 64, 59
2, 291449, Control_c, 0, 64, 57
2, 291468, Control_c, 0, 64, 53
2, 291488, Control_c, 0, 64, 49
2, 291506, Control_c, 0, 64, 47
2, 291526, Control_c, 0, 64, 45
2, 291545, Control_c, 0, 64, 44
2, 291565, Control_c, 0, 64, 44
2, 291583, Control_c, 0, 64, 42
2, 291603, Control_c, 0, 64, 40
2, 291622, Control_c, 0, 64, 38
2, 291641, Control_c, 0, 64, 36
2, 291775, Note_on_c, 0, 80, 77
2, 291782, Note_on_c, 0, 61, 54
2, 291821, Note_on_c, 0, 59, 0
2, 291836, Note_on_c, 0, 79, 0
2, 291928, Control_c, 0, 64, 37
2, 291947, Control_c, 0, 64, 38
2, 291967, Control_c, 0, 64, 39
2, 292139, Control_c, 0, 64, 39
2, 292158, Control_c, 0, 64, 40
2, 292168, Note_on_c, 0, 59, 50
2, 292174, Note_on_c, 0, 82, 78
2, 292196, Control_c, 0, 64, 40
2, 292203, Note_on_c, 0, 61, 0
2, 292249, Note_on_c, 0, 80, 0
2, 292349, Control_c, 0, 64, 41
2, 292523, Control_c, 0, 64, 41
2, 292560, Control_c, 0, 64, 42
2, 292576, Note_on_c, 0, 73, 69
2, 292588, Note_on_c, 0, 58, 52
2, 292615, Note_on_c, 0, 75, 0
2, 292625, Note_on_c, 0, 59, 0
2, 292675, Control_c, 0, 64, 42
2, 292714, Control_c, 0, 64, 43
2, 292906, Control_c, 0, 64, 43
2, 292985, Note_on_c, 0, 56, 51
2, 292989, Note_on_c, 0, 75, 75
2, 292997, Note_on_c, 0, 72, 48
2, 293025, Note_on_c, 0, 58, 0
2, 293067, Note_on_c, 0, 73, 0
2, 293080, Note_on_c, 0, 82, 0
2, 293194, Control_c, 0, 64, 44
2, 293379, Note_on_c, 0, 55, 54
2, 293380, Note_on_c, 0, 56, 0
2, 293784, Note_on_c, 0, 80, 72
2, 293786, Note_on_c, 0, 56, 56
2, 293810, Note_on_c, 0, 55, 0
2, 294151, Note_on_c, 0, 73, 66
2, 294153, Note_on_c, 0, 58, 50
2, 294203, Note_on_c, 0, 75, 0
2, 294221, Note_on_c, 0, 56, 0
2, 294524, Note_on_c, 0, 72, 0
2, 294558, Control_c, 0, 64, 44
2, 294578, Note_on_c, 0, 75, 73
2, 294584, Note_on_c, 0, 60, 48
2, 294595, Note_on_c, 0, 58, 0
2, 294596, Control_c, 0, 64, 46
2, 294616, Control_c, 0, 64, 48
2, 294635, Control_c, 0, 64, 50
2, 294655, Control_c, 0, 64, 53
2, 294658, Note_on_c, 0, 80, 0
2, 294673, Control_c, 0, 64, 56
2, 294693, Control_c, 0, 64, 59
2, 294712, Control_c, 0, 64, 61
2, 294731, Control_c, 0, 64, 62
2, 294732, Note_on_c, 0, 73, 0
2, 294750, Control_c, 0, 64, 64
2, 294770, Control_c, 0, 64, 65
2, 294789, Control_c, 0, 64, 66
2, 294808, Control_c, 0, 64, 68
2, 294827, Control_c, 0, 64, 71
2, 294847, Control_c, 0, 64, 77
2, 294865, Control_c, 0, 64, 86
2, 294885, Control_c, 0, 64, 100
2, 294904, Control_c, 0, 64, 127
2, 294984, Note_on_c, 0, 78, 72
2, 295105, Note_on_c, 0, 78, 0
2, 295365, Control_c, 0, 64, 114
2, 295384, Control_c, 0, 64, 104
2, 295394, Note_on_c, 0, 77, 73
2, 295398, Note_on_c, 0, 61, 46
2, 295404, Control_c, 0, 64, 98
2, 295409, Note_on_c, 0, 68, 60
2, 295422, Control_c, 0, 64, 91
2, 295432, Note_on_c, 0, 60, 0
2, 295442, Control_c, 0, 64, 85
2, 295455, Note_on_c, 0, 75, 0
2, 295461, Control_c, 0, 64, 79
2, 295480, Control_c, 0, 64, 73
2, 295499, Control_c, 0, 64, 69
2, 295517, Control_c, 0, 64, 65
2, 295537, Control_c, 0, 64, 63
2, 295555, Control_c, 0, 64, 60
2, 295575, Control_c, 0, 64, 57
2, 295594, Control_c, 0, 64, 54
2, 295614, Control_c, 0, 64, 50
2, 295632, Control_c, 0, 64, 48
2, 295652, Control_c, 0, 64, 46
2, 295671, Control_c, 0, 64, 45
2, 295690, Control_c, 0, 64, 44
2, 295709, Control_c, 0, 64, 43
2, 295729, Control_c, 0, 64, 42
2, 295748, Control_c, 0, 64, 41
2, 295767, Control_c, 0, 64, 40
2, 295778, Note_on_c, 0, 61, 0
2, 295786, Control_c, 0, 64, 39
2, 295806, Control_c, 0, 64, 39
2, 295807, Note_on_c, 0, 59, 54
2, 296214, Note_on_c, 0, 73, 64
2, 296223, Note_on_c, 0, 58, 46
2, 296305, Note_on_c, 0, 59, 0
2, 296630, Note_on_c, 0, 58, 0
2, 296637, Note_on_c, 0, 56, 50
2, 297045, Note_on_c, 0, 56, 0
2, 297050, Note_on_c, 0, 55, 47
2, 297050, Note_on_c, 0, 75, 67
2, 297095, Note_on_c, 0, 73, 0
2, 297447, Note_on_c, 0, 51, 47
2, 297456, Note_on_c, 0, 55, 0
2, 297538, Note_on_c, 0, 77, 0
2, 297872, Note_on_c, 0, 72, 66
2, 297877, Note_on_c, 0, 56, 45
2, 297919, Note_on_c, 0, 51, 0
2, 297927, Note_on_c, 0, 75, 0
2, 297960, Control_c, 0, 64, 40
2, 297980, Control_c, 0, 64, 42
2, 297999, Control_c, 0, 64, 47
2, 298018, Control_c, 0, 64, 51
2, 298037, Control_c, 0, 64, 55
2, 298054, Control_c, 0, 64, 59
2, 298073, Control_c, 0, 64, 61
2, 298092, Control_c, 0, 64, 63
2, 298111, Control_c, 0, 64, 65
2, 298130, Control_c, 0, 64, 66
2, 298150, Control_c, 0, 64, 69
2, 298168, Control_c, 0, 64, 72
2, 298188, Control_c, 0, 64, 77
2, 298207, Control_c, 0, 64, 82
2, 298227, Control_c, 0, 64, 88
2, 298245, Control_c, 0, 64, 93
2, 298262, Note_on_c, 0, 56, 0
2, 298265, Control_c, 0, 64, 95
2, 298275, Note_on_c, 0, 58, 52
2, 298284, Control_c, 0, 64, 96
2, 298303, Control_c, 0, 64, 96
2, 298322, Control_c, 0, 64, 97
2, 298342, Control_c, 0, 64, 97
2, 298380, Control_c, 0, 64, 98
2, 298610, Control_c, 0, 64, 97
2, 298630, Control_c, 0, 64, 93
2, 298648, Control_c, 0, 64, 85
2, 298658, Note_on_c, 0, 56, 48
2, 298668, Control_c, 0, 64, 72
2, 298671, Note_on_c, 0, 80, 78
2, 298687, Control_c, 0, 64, 64
2, 298705, Note_on_c, 0, 68, 0
2, 298707, Control_c, 0, 64, 55
2, 298725, Control_c, 0, 64, 48
2, 298729, Note_on_c, 0, 58, 0
2, 298745, Control_c, 0, 64, 47
2, 298764, Control_c, 0, 64, 46
2, 298783, Control_c, 0, 64, 47
2, 298802, Control_c, 0, 64, 51
2, 298822, Control_c, 0, 64, 58
2, 298841, Control_c, 0, 64, 62
2, 298860, Control_c, 0, 64, 64
2, 298879, Control_c, 0, 64, 67
2, 298899, Control_c, 0, 64, 71
2, 298918, Control_c, 0, 64, 78
2, 298937, Control_c, 0, 64, 90
2, 298956, Control_c, 0, 64, 127
2, 299089, Note_on_c, 0, 54, 56
2, 299125, Note_on_c, 0, 56, 0
2, 299452, Note_on_c, 0, 53, 53
2, 299475, Control_c, 0, 64, 90
2, 299495, Control_c, 0, 64, 68
2, 299505, Note_on_c, 0, 54, 0
2, 299514, Control_c, 0, 64, 56
2, 299514, Note_on_c, 0, 68, 77
2, 299532, Control_c, 0, 64, 43
2, 299561, Note_on_c, 0, 72, 0
2, 299571, Control_c, 0, 64, 43
2, 299591, Control_c, 0, 64, 49
2, 299597, Note_on_c, 0, 80, 0
2, 299609, Control_c, 0, 64, 57
2, 299629, Control_c, 0, 64, 62
2, 299648, Control_c, 0, 64, 65
2, 299668, Control_c, 0, 64, 67
2, 299686, Control_c, 0, 64, 71
2, 299706, Control_c, 0, 64, 78
2, 299725, Control_c, 0, 64, 89
2, 299744, Control_c, 0, 64, 112
2, 299763, Control_c, 0, 64, 127
2, 299878, Note_on_c, 0, 53, 0
2, 299899, Note_on_c, 0, 82, 79
2, 299906, Note_on_c, 0, 54, 52
2, 299970, Note_on_c, 0, 68, 0
2, 300020, Note_on_c, 0, 82, 0
2, 300302, Control_c, 0, 64, 103
2, 300312, Note_on_c, 0, 80, 75
2, 300323, Control_c, 0, 64, 86
2, 300325, Note_on_c, 0, 54, 0
2, 300325, Note_on_c, 0, 73, 66
2, 300329, Note_on_c, 0, 53, 48
2, 300343, Control_c, 0, 64, 76
2, 300361, Control_c, 0, 64, 69
2, 300381, Control_c, 0, 64, 65
2, 300400, Control_c, 0, 64, 61
2, 300419, Control_c, 0, 64, 57
2, 300438, Control_c, 0, 64, 52
2, 300458, Control_c, 0, 64, 46
2, 300477, Control_c, 0, 64, 39
2, 300496, Control_c, 0, 64, 27
2, 300515, Control_c, 0, 64, 0
2, 300724, Note_on_c, 0, 78, 68
2, 300734, Note_on_c, 0, 51, 45
2, 300738, Note_on_c, 0, 53, 0
2, 301149, Note_on_c, 0, 49, 40
2, 301165, Note_on_c, 0, 77, 64
2, 301188, Note_on_c, 0, 51, 0
2, 301193, Note_on_c, 0, 80, 0
2, 301228, Note_on_c, 0, 78, 0
2, 301243, Note_on_c, 0, 73, 0
2, 301356, Control_c, 0, 64, 13
2, 301560, Note_on_c, 0, 75, 69
2, 301562, Note_on_c, 0, 78, 70
2, 301569, Note_on_c, 0, 59, 42
2, 301598, Note_on_c, 0, 77, 0
2, 301605, Control_c, 0, 64, 11
2, 301644, Control_c, 0, 64, 9
2, 301702, Control_c, 0, 64, 0
2, 301913, Note_on_c, 0, 49, 0
2, 301950, Note_on_c, 0, 80, 73
2, 301951, Note_on_c, 0, 58, 48
2, 301954, Note_on_c, 0, 73, 70
2, 301990, Note_on_c, 0, 59, 0
2, 301992, Note_on_c, 0, 75, 0
2, 301999, Note_on_c, 0, 78, 0
2, 302336, Control_c, 0, 64, 9
2, 302349, Note_on_c, 0, 56, 55
2, 302350, Note_on_c, 0, 71, 74
2, 302372, Note_on_c, 0, 58, 0
2, 302373, Control_c, 0, 64, 11
2, 302383, Note_on_c, 0, 73, 0
2, 302412, Control_c, 0, 64, 13
2, 302508, Control_c, 0, 64, 15
2, 302547, Control_c, 0, 64, 17
2, 302585, Control_c, 0, 64, 18
2, 302685, Note_on_c, 0, 80, 0
2, 302748, Note_on_c, 0, 73, 73
2, 302756, Note_on_c, 0, 56, 0
2, 302766, Note_on_c, 0, 54, 49
2, 302766, Note_on_c, 0, 70, 59
2, 302786, Note_on_c, 0, 71, 0
2, 302834, Control_c, 0, 64, 19
2, 302852, Control_c, 0, 64, 21
2, 302872, Control_c, 0, 64, 27
2, 302891, Control_c, 0, 64, 35
2, 302910, Control_c, 0, 64, 42
2, 302929, Control_c, 0, 64, 47
2, 302940, Note_on_c, 0, 70, 0
2, 302949, Control_c, 0, 64, 52
2, 302968, Control_c, 0, 64, 55
2, 302987, Control_c, 0, 64, 58
2, 303006, Control_c, 0, 64, 61
2, 303026, Control_c, 0, 64, 63
2, 303044, Control_c, 0, 64, 65
2, 303064, Control_c, 0, 64, 68
2, 303083, Control_c, 0, 64, 74
2, 303103, Control_c, 0, 64, 81
2, 303110, Note_on_c, 0, 54, 0
2, 303121, Control_c, 0, 64, 89
2, 303132, Note_on_c, 0, 71, 67
2, 303141, Control_c, 0, 64, 96
2, 303144, Note_on_c, 0, 56, 55
2, 303152, Note_on_c, 0, 73, 0
2, 303160, Control_c, 0, 64, 104
2, 303179, Control_c, 0, 64, 115
2, 303199, Control_c, 0, 64, 127
2, 303503, Note_on_c, 0, 56, 0
2, 303525, Control_c, 0, 64, 102
2, 303527, Note_on_c, 0, 54, 50
2, 303542, Note_on_c, 0, 71, 0
2, 303544, Note_on_c, 0, 73, 66
2, 303545, Control_c, 0, 64, 84
2, 303545, Note_on_c, 0, 78, 74
2, 303564, Control_c, 0, 64, 70
2, 303583, Control_c, 0, 64, 59
2, 303602, Control_c, 0, 64, 31
2, 303622, Control_c, 0, 64, 0
2, 303699, Control_c, 0, 64, 18
2, 303718, Control_c, 0, 64, 43
2, 303737, Control_c, 0, 64, 57
2, 303756, Control_c, 0, 64, 62
2, 303776, Control_c, 0, 64, 65
2, 303794, Control_c, 0, 64, 68
2, 303812, Control_c, 0, 64, 72
2, 303832, Control_c, 0, 64, 81
2, 303851, Control_c, 0, 64, 96
2, 303870, Control_c, 0, 64, 127
2, 303879, Note_on_c, 0, 54, 0
2, 303942, Note_on_c, 0, 52, 51
2, 304313, Control_c, 0, 64, 95
2, 304315, Note_on_c, 0, 51, 46
2, 304320, Note_on_c, 0, 52, 0
2, 304332, Control_c, 0, 64, 73
2, 304348, Note_on_c, 0, 66, 70
2, 304351, Control_c, 0, 64, 58
2, 304370, Control_c, 0, 64, 0
2, 304393, Note_on_c, 0, 73, 0
2, 304447, Control_c, 0, 64, 21
2, 304467, Control_c, 0, 64, 47
2, 304485, Control_c, 0, 64, 60
2, 304505, Control_c, 0, 64, 65
2, 304524, Control_c, 0, 64, 69
2, 304543, Control_c, 0, 64, 76
2, 304562, Control_c, 0, 64, 91
2, 304582, Control_c, 0, 64, 127
2, 304708, Note_on_c, 0, 51, 0
2, 304733, Note_on_c, 0, 49, 50
2, 304746, Note_on_c, 0, 76, 55
2, 304822, Note_on_c, 0, 66, 0
2, 304835, Note_on_c, 0, 78, 0
2, 304888, Note_on_c, 0, 76, 0
2, 305101, Control_c, 0, 64, 106
2, 305104, Note_on_c, 0, 49, 0
2, 305122, Control_c, 0, 64, 85
2, 305142, Control_c, 0, 64, 70
2, 305142, Note_on_c, 0, 47, 50
2, 305144, Note_on_c, 0, 71, 64
2, 305151, Note_on_c, 0, 75, 70
2, 305160, Control_c, 0, 64, 60
2, 305180, Control_c, 0, 64, 43
2, 305199, Control_c, 0, 64, 27
2, 305218, Control_c, 0, 64, 17
2, 305237, Control_c, 0, 64, 0
2, 305548, Note_on_c, 0, 80, 59
2, 305563, Note_on_c, 0, 44, 42
2, 305565, Note_on_c, 0, 47, 0
2, 305566, Note_on_c, 0, 75, 0
2, 305926, Control_c, 0, 64, 13
2, 305938, Note_on_c, 0, 73, 59
2, 305946, Control_c, 0, 64, 34
2, 305947, Note_on_c, 0, 46, 41
2, 305958, Note_on_c, 0, 44, 0
2, 305965, Control_c, 0, 64, 51
2, 305984, Control_c, 0, 64, 59
2, 306001, Note_on_c, 0, 80, 0
2, 306003, Control_c, 0, 64, 63
2, 306017, Note_on_c, 0, 71, 0
2, 306023, Control_c, 0, 64, 65
2, 306042, Control_c, 0, 64, 68
2, 306061, Control_c, 0, 64, 72
2, 306079, Control_c, 0, 64, 78
2, 306099, Control_c, 0, 64, 88
2, 306118, Control_c, 0, 64, 95
2, 306137, Control_c, 0, 64, 98
2, 306310, Control_c, 0, 64, 96
2, 306328, Control_c, 0, 64, 88
2, 306336, Note_on_c, 0, 42, 46
2, 306348, Control_c, 0, 64, 76
2, 306352, Note_on_c, 0, 70, 65
2, 306362, Note_on_c, 0, 78, 57
2, 306367, Control_c, 0, 64, 64
2, 306379, Note_on_c, 0, 73, 0
2, 306387, Control_c, 0, 64, 53
2, 306388, Note_on_c, 0, 46, 0
2, 306405, Control_c, 0, 64, 38
2, 306425, Control_c, 0, 64, 35
2, 306444, Control_c, 0, 64, 36
2, 306463, Control_c, 0, 64, 43
2, 306482, Control_c, 0, 64, 54
2, 306502, Control_c, 0, 64, 61
2, 306521, Control_c, 0, 64, 64
2, 306540, Control_c, 0, 64, 66
2, 306559, Control_c, 0, 64, 70
2, 306579, Control_c, 0, 64, 76
2, 306598, Control_c, 0, 64, 85
2, 306617, Control_c, 0, 64, 97
2, 306636, Control_c, 0, 64, 112
2, 306656, Control_c, 0, 64, 127
2, 306712, Control_c, 0, 64, 112
2, 306714, Note_on_c, 0, 42, 0
2, 306731, Control_c, 0, 64, 89
2, 306748, Note_on_c, 0, 68, 56
2, 306750, Control_c, 0, 64, 72
2, 306755, Note_on_c, 0, 49, 46
2, 306769, Control_c, 0, 64, 62
2, 306772, Note_on_c, 0, 70, 0
2, 306789, Control_c, 0, 64, 46
2, 306808, Control_c, 0, 64, 45
2, 306827, Control_c, 0, 64, 48
2, 306846, Control_c, 0, 64, 57
2, 306866, Control_c, 0, 64, 62
2, 306884, Control_c, 0, 64, 65
2, 306904, Control_c, 0, 64, 67
2, 306923, Control_c, 0, 64, 73
2, 306943, Control_c, 0, 64, 82
2, 306961, Control_c, 0, 64, 96
2, 306981, Control_c, 0, 64, 127
2, 307130, Note_on_c, 0, 77, 60
2, 307136, Note_on_c, 0, 37, 40
2, 307153, Note_on_c, 0, 78, 0
2, 307209, Note_on_c, 0, 68, 0
2, 307277, Note_on_c, 0, 49, 0
2, 307554, Note_on_c, 0, 42, 43
2, 307616, Control_c, 0, 64, 94
2, 307618, Note_on_c, 0, 78, 69
2, 307634, Control_c, 0, 64, 73
2, 307651, Note_on_c, 0, 37, 0
2, 307653, Control_c, 0, 64, 61
2, 307663, Note_on_c, 0, 66, 21
2, 307671, Note_on_c, 0, 77, 0
2, 307673, Control_c, 0, 64, 37
2, 307692, Control_c, 0, 64, 24
2, 307730, Control_c, 0, 64, 31
2, 307750, Control_c, 0, 64, 50
2, 307768, Control_c, 0, 64, 60
2, 307774, Note_on_c, 0, 66, 0
2, 307788, Control_c, 0, 64, 64
2, 307807, Control_c, 0, 64, 68
2, 307827, Control_c, 0, 64, 73
2, 307845, Control_c, 0, 64, 84
2, 307865, Control_c, 0, 64, 102
2, 307884, Control_c, 0, 64, 127
2, 307904, Note_on_c, 0, 78, 0
2, 308021, Note_on_c, 0, 44, 43
2, 308037, Note_on_c, 0, 42, 0
2, 308064, Note_on_c, 0, 65, 19
2, 308443, Control_c, 0, 64, 112
2, 308444, Note_on_c, 0, 73, 69
2, 308451, Note_on_c, 0, 66, 46
2, 308460, Note_on_c, 0, 44, 0
2, 308461, Note_on_c, 0, 46, 42
2, 308462, Control_c, 0, 64, 93
2, 308481, Control_c, 0, 64, 79
2, 308501, Control_c, 0, 64, 68
2, 308515, Note_on_c, 0, 65, 0
2, 308519, Control_c, 0, 64, 61
2, 308539, Control_c, 0, 64, 50
2, 308558, Control_c, 0, 64, 44
2, 308578, Control_c, 0, 64, 41
2, 308596, Control_c, 0, 64, 38
2, 308613, Control_c, 0, 64, 35
2, 308633, Control_c, 0, 64, 28
2, 308652, Control_c, 0, 64, 20
2, 308671, Control_c, 0, 64, 13
2, 308690, Control_c, 0, 64, 9
2, 308710, Control_c, 0, 64, 0
2, 308818, Note_on_c, 0, 46, 0
2, 308848, Note_on_c, 0, 44, 43
2, 308858, Note_on_c, 0, 68, 51
2, 308898, Note_on_c, 0, 66, 0
2, 309152, Control_c, 0, 64, 17
2, 309171, Control_c, 0, 64, 29
2, 309191, Control_c, 0, 64, 40
2, 309209, Control_c, 0, 64, 50
2, 309229, Control_c, 0, 64, 57
2, 309239, Note_on_c, 0, 44, 0
2, 309242, Note_on_c, 0, 42, 44
2, 309248, Control_c, 0, 64, 62
2, 309261, Note_on_c, 0, 68, 0
2, 309262, Note_on_c, 0, 70, 60
2, 309268, Control_c, 0, 64, 65
2, 309286, Control_c, 0, 64, 68
2, 309306, Control_c, 0, 64, 73
2, 309325, Control_c, 0, 64, 81
2, 309342, Note_on_c, 0, 70, 0
2, 309343, Note_on_c, 0, 73, 0
2, 309344, Control_c, 0, 64, 92
2, 309363, Control_c, 0, 64, 104
2, 309383, Control_c, 0, 64, 117
2, 309402, Control_c, 0, 64, 127
2, 309529, Note_on_c, 0, 42, 0
2, 309594, Control_c, 0, 64, 113
2, 309613, Control_c, 0, 64, 104
2, 309632, Control_c, 0, 64, 97
2, 309632, Note_on_c, 0, 71, 67
2, 309646, Note_on_c, 0, 54, 38
2, 309651, Control_c, 0, 64, 88
2, 309671, Control_c, 0, 64, 78
2, 309675, Note_on_c, 0, 68, 41
2, 309689, Control_c, 0, 64, 71
2, 309709, Control_c, 0, 64, 65
2, 309728, Control_c, 0, 64, 60
2, 309748, Control_c, 0, 64, 53
2, 309766, Control_c, 0, 64, 46
2, 309786, Control_c, 0, 64, 42
2, 309805, Control_c, 0, 64, 38
2, 309824, Control_c, 0, 64, 29
2, 309843, Control_c, 0, 64, 9
2, 309863, Control_c, 0, 64, 0
2, 309888, Note_on_c, 0, 68, 0
2, 310036, Note_on_c, 0, 53, 42
2, 310047, Note_on_c, 0, 73, 67
2, 310056, Note_on_c, 0, 54, 0
2, 310060, Note_on_c, 0, 70, 50
2, 310063, Note_on_c, 0, 71, 0
2, 310409, Note_on_c, 0, 53, 0
2, 310429, Note_on_c, 0, 75, 66
2, 310439, Note_on_c, 0, 51, 38
2, 310465, Note_on_c, 0, 72, 48
2, 310468, Note_on_c, 0, 73, 0
2, 310478, Control_c, 0, 64, 17
2, 310498, Control_c, 0, 64, 41
2, 310516, Control_c, 0, 64, 54
2, 310518, Note_on_c, 0, 70, 0
2, 310536, Control_c, 0, 64, 61
2, 310555, Control_c, 0, 64, 64
2, 310573, Control_c, 0, 64, 65
2, 310593, Control_c, 0, 64, 66
2, 310612, Control_c, 0, 64, 67
2, 310632, Control_c, 0, 64, 68
2, 310648, Note_on_c, 0, 75, 0
2, 310650, Control_c, 0, 64, 69
2, 310670, Control_c, 0, 64, 69
2, 310689, Control_c, 0, 64, 70
2, 310766, Control_c, 0, 64, 69
2, 310785, Control_c, 0, 64, 69
2, 310804, Control_c, 0, 64, 68
2, 310824, Control_c, 0, 64, 66
2, 310830, Note_on_c, 0, 72, 0
2, 310841, Note_on_c, 0, 77, 61
2, 310843, Control_c, 0, 64, 64
2, 310849, Note_on_c, 0, 49, 42
2, 310857, Note_on_c, 0, 73, 43
2, 310862, Control_c, 0, 64, 61
2, 310882, Control_c, 0, 64, 57
2, 310902, Control_c, 0, 64, 49
2, 310904, Note_on_c, 0, 51, 0
2, 310920, Control_c, 0, 64, 37
2, 310940, Control_c, 0, 64, 27
2, 310959, Control_c, 0, 64, 13
2, 310978, Control_c, 0, 64, 0
2, 311242, Note_on_c, 0, 75, 68
2, 311257, Note_on_c, 0, 71, 46
2, 311274, Note_on_c, 0, 73, 0
2, 311305, Note_on_c, 0, 77, 0
2, 311632, Note_on_c, 0, 73, 64
2, 311653, Note_on_c, 0, 54, 39
2, 311699, Note_on_c, 0, 75, 0
2, 311712, Note_on_c, 0, 71, 0
2, 311745, Control_c, 0, 64, 27
2, 311764, Control_c, 0, 64, 43
2, 311784, Control_c, 0, 64, 55
2, 311803, Control_c, 0, 64, 61
2, 311822, Control_c, 0, 64, 64
2, 311840, Control_c, 0, 64, 66
2, 311860, Control_c, 0, 64, 68
2, 311878, Control_c, 0, 64, 71
2, 311898, Control_c, 0, 64, 76
2, 311917, Control_c, 0, 64, 83
2, 311937, Control_c, 0, 64, 89
2, 311955, Control_c, 0, 64, 92
2, 311974, Control_c, 0, 64, 94
2, 311979, Note_on_c, 0, 49, 0
2, 311994, Control_c, 0, 64, 95
2, 312013, Control_c, 0, 64, 95
2, 312025, Note_on_c, 0, 73, 0
2, 312035, Note_on_c, 0, 70, 53
2, 312071, Control_c, 0, 64, 96
2, 312224, Control_c, 0, 64, 95
2, 312301, Control_c, 0, 64, 94
2, 312320, Control_c, 0, 64, 93
2, 312340, Control_c, 0, 64, 92
2, 312358, Control_c, 0, 64, 91
2, 312378, Control_c, 0, 64, 89
2, 312397, Control_c, 0, 64, 85
2, 312417, Control_c, 0, 64, 78
2, 312435, Control_c, 0, 64, 67
2, 312442, Note_on_c, 0, 80, 76
2, 312454, Control_c, 0, 64, 58
2, 312473, Note_on_c, 0, 71, 42
2, 312474, Control_c, 0, 64, 31
2, 312493, Control_c, 0, 64, 0
2, 312501, Note_on_c, 0, 70, 0
2, 312589, Control_c, 0, 64, 27
2, 312608, Control_c, 0, 64, 48
2, 312628, Control_c, 0, 64, 60
2, 312646, Control_c, 0, 64, 64
2, 312666, Control_c, 0, 64, 67
2, 312685, Control_c, 0, 64, 71
2, 312704, Control_c, 0, 64, 81
2, 312723, Control_c, 0, 64, 92
2, 312743, Control_c, 0, 64, 105
2, 312762, Control_c, 0, 64, 123
2, 312781, Control_c, 0, 64, 127
2, 312824, Note_on_c, 0, 71, 0
2, 312897, Note_on_c, 0, 70, 37
2, 313012, Control_c, 0, 64, 123
2, 313050, Control_c, 0, 64, 121
2, 313070, Control_c, 0, 64, 119
2, 313089, Control_c, 0, 64, 118
2, 313127, Control_c, 0, 64, 117
2, 313185, Control_c, 0, 64, 116
2, 313204, Control_c, 0, 64, 114
2, 313224, Control_c, 0, 64, 110
2, 313243, Control_c, 0, 64, 101
2, 313262, Control_c, 0, 64, 83
2, 313281, Control_c, 0, 64, 69
2, 313282, Note_on_c, 0, 68, 35
2, 313282, Note_on_c, 0, 73, 67
2, 313288, Note_on_c, 0, 53, 37
2, 313301, Control_c, 0, 64, 56
2, 313319, Control_c, 0, 64, 13
2, 313332, Note_on_c, 0, 54, 0
2, 313333, Note_on_c, 0, 70, 0
2, 313339, Control_c, 0, 64, 0
2, 313414, Control_c, 0, 64, 36
2, 313434, Control_c, 0, 64, 52
2, 313453, Control_c, 0, 64, 61
2, 313472, Control_c, 0, 64, 65
2, 313489, Note_on_c, 0, 68, 0
2, 313491, Control_c, 0, 64, 68
2, 313511, Control_c, 0, 64, 74
2, 313529, Control_c, 0, 64, 86
2, 313549, Control_c, 0, 64, 100
2, 313568, Control_c, 0, 64, 127
2, 313691, Note_on_c, 0, 71, 51
2, 314066, Control_c, 0, 64, 99
2, 314066, Note_on_c, 0, 53, 0
2, 314075, Note_on_c, 0, 54, 48
2, 314084, Control_c, 0, 64, 78
2, 314087, Note_on_c, 0, 70, 59
2, 314104, Control_c, 0, 64, 65
2, 314112, Note_on_c, 0, 71, 0
2, 314116, Note_on_c, 0, 73, 0
2, 314123, Control_c, 0, 64, 50
2, 314143, Control_c, 0, 64, 43
2, 314161, Control_c, 0, 64, 45
2, 314181, Control_c, 0, 64, 53
2, 314200, Control_c, 0, 64, 61
2, 314219, Control_c, 0, 64, 64
2, 314238, Control_c, 0, 64, 66
2, 314258, Control_c, 0, 64, 69
2, 314277, Control_c, 0, 64, 74
2, 314295, Control_c, 0, 64, 82
2, 314315, Control_c, 0, 64, 95
2, 314334, Control_c, 0, 64, 123
2, 314353, Control_c, 0, 64, 127
2, 314459, Note_on_c, 0, 53, 44
2, 314466, Note_on_c, 0, 54, 0
2, 314469, Note_on_c, 0, 75, 69
2, 314526, Note_on_c, 0, 80, 0
2, 314835, Control_c, 0, 64, 95
2, 314854, Control_c, 0, 64, 75
2, 314874, Control_c, 0, 64, 62
2, 314893, Control_c, 0, 64, 18
2, 314893, Note_on_c, 0, 51, 39
2, 314893, Note_on_c, 0, 77, 70
2, 314912, Control_c, 0, 64, 0
2, 314938, Note_on_c, 0, 75, 0
2, 314941, Note_on_c, 0, 53, 0
2, 314989, Control_c, 0, 64, 22
2, 315008, Control_c, 0, 64, 44
2, 315028, Control_c, 0, 64, 57
2, 315046, Control_c, 0, 64, 64
2, 315066, Control_c, 0, 64, 67
2, 315085, Control_c, 0, 64, 72
2, 315104, Control_c, 0, 64, 80
2, 315123, Control_c, 0, 64, 93
2, 315143, Control_c, 0, 64, 113
2, 315162, Control_c, 0, 64, 127
2, 315295, Note_on_c, 0, 51, 0
2, 315306, Note_on_c, 0, 50, 49
2, 315502, Note_on_c, 0, 70, 0
2, 315660, Control_c, 0, 64, 86
2, 315680, Control_c, 0, 64, 68
2, 315700, Control_c, 0, 64, 49
2, 315703, Note_on_c, 0, 51, 38
2, 315715, Note_on_c, 0, 50, 0
2, 315718, Control_c, 0, 64, 0
2, 315721, Note_on_c, 0, 78, 65
2, 315775, Note_on_c, 0, 77, 0
2, 315795, Control_c, 0, 64, 19
2, 315814, Control_c, 0, 64, 44
2, 315834, Control_c, 0, 64, 57
2, 315853, Control_c, 0, 64, 63
2, 315872, Control_c, 0, 64, 66
2, 315891, Control_c, 0, 64, 70
2, 315911, Control_c, 0, 64, 76
2, 315929, Control_c, 0, 64, 87
2, 315949, Control_c, 0, 64, 107
2, 315968, Control_c, 0, 64, 127
2, 316113, Note_on_c, 0, 72, 69
2, 316450, Control_c, 0, 64, 107
2, 316470, Control_c, 0, 64, 78
2, 316479, Note_on_c, 0, 46, 48
2, 316486, Note_on_c, 0, 73, 63
2, 316487, Note_on_c, 0, 72, 0
2, 316488, Control_c, 0, 64, 63
2, 316501, Note_on_c, 0, 51, 0
2, 316507, Control_c, 0, 64, 26
2, 316527, Control_c, 0, 64, 0
2, 316584, Control_c, 0, 64, 29
2, 316604, Control_c, 0, 64, 52
2, 316622, Control_c, 0, 64, 63
2, 316642, Control_c, 0, 64, 67
2, 316661, Control_c, 0, 64, 72
2, 316681, Control_c, 0, 64, 82
2, 316699, Control_c, 0, 64, 100
2, 316719, Control_c, 0, 64, 127
2, 316873, Note_on_c, 0, 46, 0
2, 316880, Note_on_c, 0, 48, 50
2, 316890, Note_on_c, 0, 75, 68
2, 316985, Note_on_c, 0, 73, 0
2, 317042, Note_on_c, 0, 78, 0
2, 317237, Control_c, 0, 64, 85
2, 317255, Control_c, 0, 64, 66
2, 317269, Note_on_c, 0, 49, 45
2, 317275, Control_c, 0, 64, 41
2, 317294, Control_c, 0, 64, 0
2, 317306, Note_on_c, 0, 68, 63
2, 317307, Note_on_c, 0, 48, 0
2, 317345, Note_on_c, 0, 75, 0
2, 317371, Control_c, 0, 64, 31
2, 317390, Control_c, 0, 64, 55
2, 317409, Control_c, 0, 64, 63
2, 317429, Control_c, 0, 64, 67
2, 317447, Control_c, 0, 64, 72
2, 317466, Control_c, 0, 64, 80
2, 317486, Control_c, 0, 64, 94
2, 317505, Control_c, 0, 64, 127
2, 317672, Note_on_c, 0, 77, 64
2, 318023, Control_c, 0, 64, 91
2, 318036, Note_on_c, 0, 42, 50
2, 318043, Control_c, 0, 64, 70
2, 318061, Control_c, 0, 64, 50
2, 318061, Note_on_c, 0, 68, 0
2, 318064, Note_on_c, 0, 75, 64
2, 318078, Note_on_c, 0, 70, 56
2, 318081, Control_c, 0, 64, 0
2, 318123, Note_on_c, 0, 49, 0
2, 318150, Note_on_c, 0, 77, 0
2, 318158, Control_c, 0, 64, 36
2, 318177, Control_c, 0, 64, 53
2, 318196, Control_c, 0, 64, 63
2, 318214, Control_c, 0, 64, 67
2, 318234, Control_c, 0, 64, 73
2, 318253, Control_c, 0, 64, 83
2, 318272, Control_c, 0, 64, 103
2, 318291, Control_c, 0, 64, 127
2, 318460, Note_on_c, 0, 73, 73
2, 318519, Note_on_c, 0, 70, 0
2, 318521, Note_on_c, 0, 75, 0
2, 318556, Note_on_c, 0, 73, 0
2, 318819, Note_on_c, 0, 44, 51
2, 318882, Note_on_c, 0, 72, 75
2, 318906, Control_c, 0, 64, 92
2, 318912, Note_on_c, 0, 42, 0
2, 318926, Control_c, 0, 64, 70
2, 318945, Control_c, 0, 64, 52
2, 318964, Control_c, 0, 64, 0
2, 319041, Control_c, 0, 64, 37
2, 319060, Control_c, 0, 64, 54
2, 319080, Control_c, 0, 64, 62
2, 319098, Control_c, 0, 64, 65
2, 319118, Control_c, 0, 64, 68
2, 319137, Control_c, 0, 64, 73
2, 319156, Control_c, 0, 64, 84
2, 319175, Control_c, 0, 64, 115
2, 319195, Control_c, 0, 64, 127
2, 319299, Note_on_c, 0, 68, 53
2, 319340, Note_on_c, 0, 72, 0
2, 319662, Note_on_c, 0, 46, 49
2, 319681, Note_on_c, 0, 74, 74
2, 319694, Control_c, 0, 64, 91
2, 319698, Note_on_c, 0, 66, 60
2, 319706, Note_on_c, 0, 68, 0
2, 319713, Control_c, 0, 64, 66
2, 319732, Control_c, 0, 64, 40
2, 319751, Note_on_c, 0, 44, 0
2, 319752, Control_c, 0, 64, 0
2, 319809, Control_c, 0, 64, 29
2, 319829, Control_c, 0, 64, 51
2, 319847, Control_c, 0, 64, 63
2, 319866, Control_c, 0, 64, 68
2, 319886, Control_c, 0, 64, 74
2, 319905, Control_c, 0, 64, 88
2, 319924, Control_c, 0, 64, 123
2, 319943, Control_c, 0, 64, 127
2, 320052, Note_on_c, 0, 65, 54
2, 320131, Note_on_c, 0, 66, 0
2, 320138, Note_on_c, 0, 65, 0
2, 320161, Note_on_c, 0, 74, 0
2, 320437, Note_on_c, 0, 47, 40
2, 320481, Control_c, 0, 64, 100
2, 320493, Note_on_c, 0, 75, 75
2, 320500, Control_c, 0, 64, 82
2, 320505, Note_on_c, 0, 63, 56
2, 320520, Control_c, 0, 64, 69
2, 320537, Note_on_c, 0, 46, 0
2, 320538, Control_c, 0, 64, 59
2, 320558, Control_c, 0, 64, 44
2, 320577, Control_c, 0, 64, 31
2, 320596, Control_c, 0, 64, 22
2, 320615, Control_c, 0, 64, 0
2, 320899, Note_on_c, 0, 66, 53
2, 320908, Note_on_c, 0, 46, 39
2, 320937, Note_on_c, 0, 47, 0
2, 321285, Note_on_c, 0, 44, 41
2, 321295, Note_on_c, 0, 71, 58
2, 321311, Note_on_c, 0, 46, 0
2, 321407, Note_on_c, 0, 66, 0
2, 321456, Note_on_c, 0, 75, 0
2, 321687, Note_on_c, 0, 44, 0
2, 321694, Note_on_c, 0, 42, 45
2, 322098, Note_on_c, 0, 40, 43
2, 322116, Note_on_c, 0, 73, 56
2, 322127, Note_on_c, 0, 42, 0
2, 322151, Note_on_c, 0, 71, 0
2, 322209, Control_c, 0, 64, 21
2, 322228, Control_c, 0, 64, 29
2, 322247, Control_c, 0, 64, 35
2, 322266, Control_c, 0, 64, 39
2, 322286, Control_c, 0, 64, 44
2, 322305, Control_c, 0, 64, 51
2, 322324, Control_c, 0, 64, 58
2, 322343, Control_c, 0, 64, 61
2, 322360, Control_c, 0, 64, 61
2, 322379, Control_c, 0, 64, 62
2, 322478, Note_on_c, 0, 70, 58
2, 322513, Control_c, 0, 64, 61
2, 322518, Note_on_c, 0, 63, 0
2, 322629, Control_c, 0, 64, 61
2, 322724, Control_c, 0, 64, 60
2, 322744, Control_c, 0, 64, 60
2, 322763, Control_c, 0, 64, 59
2, 322783, Control_c, 0, 64, 57
2, 322801, Control_c, 0, 64, 54
2, 322821, Control_c, 0, 64, 50
2, 322840, Control_c, 0, 64, 47
2, 322859, Control_c, 0, 64, 44
2, 322859, Note_on_c, 0, 39, 46
2, 322866, Note_on_c, 0, 40, 0
2, 322878, Control_c, 0, 64, 42
2, 322901, Note_on_c, 0, 68, 60
2, 322917, Control_c, 0, 64, 43
2, 322935, Control_c, 0, 64, 46
2, 322955, Control_c, 0, 64, 49
2, 322957, Note_on_c, 0, 73, 0
2, 322960, Note_on_c, 0, 70, 0
2, 322974, Control_c, 0, 64, 51
2, 322993, Control_c, 0, 64, 54
2, 323013, Control_c, 0, 64, 57
2, 323033, Control_c, 0, 64, 59
2, 323052, Control_c, 0, 64, 61
2, 323071, Control_c, 0, 64, 63
2, 323090, Control_c, 0, 64, 64
2, 323110, Control_c, 0, 64, 65
2, 323128, Control_c, 0, 64, 67
2, 323148, Control_c, 0, 64, 69
2, 323167, Control_c, 0, 64, 73
2, 323187, Control_c, 0, 64, 80
2, 323205, Control_c, 0, 64, 91
2, 323225, Control_c, 0, 64, 102
2, 323244, Control_c, 0, 64, 117
2, 323248, Note_on_c, 0, 68, 0
2, 323264, Control_c, 0, 64, 127
2, 323270, Note_on_c, 0, 67, 53
2, 323608, Note_on_c, 0, 39, 0
2, 323629, Control_c, 0, 64, 109
2, 323645, Note_on_c, 0, 67, 0
2, 323648, Control_c, 0, 64, 93
2, 323653, Note_on_c, 0, 44, 45
2, 323666, Note_on_c, 0, 71, 58
2, 323668, Control_c, 0, 64, 78
2, 323670, Note_on_c, 0, 68, 51
2, 323686, Control_c, 0, 64, 66
2, 323706, Control_c, 0, 64, 50
2, 323725, Control_c, 0, 64, 38
2, 323744, Control_c, 0, 64, 37
2, 323783, Control_c, 0, 64, 41
2, 323802, Control_c, 0, 64, 48
2, 323821, Control_c, 0, 64, 56
2, 323840, Control_c, 0, 64, 61
2, 323860, Control_c, 0, 64, 64
2, 323878, Control_c, 0, 64, 66
2, 323897, Control_c, 0, 64, 69
2, 323917, Control_c, 0, 64, 73
2, 323936, Control_c, 0, 64, 79
2, 323955, Control_c, 0, 64, 86
2, 323973, Control_c, 0, 64, 92
2, 323993, Control_c, 0, 64, 95
2, 324070, Control_c, 0, 64, 95
2, 324075, Note_on_c, 0, 44, 0
2, 324075, Note_on_c, 0, 73, 68
2, 324079, Note_on_c, 0, 46, 49
2, 324133, Note_on_c, 0, 71, 0
2, 324396, Control_c, 0, 64, 94
2, 324415, Control_c, 0, 64, 86
2, 324434, Control_c, 0, 64, 75
2, 324451, Note_on_c, 0, 46, 0
2, 324453, Control_c, 0, 64, 64
2, 324471, Note_on_c, 0, 47, 43
2, 324473, Control_c, 0, 64, 47
2, 324476, Note_on_c, 0, 75, 73
2, 324492, Control_c, 0, 64, 30
2, 324521, Note_on_c, 0, 73, 0
2, 324530, Control_c, 0, 64, 34
2, 324550, Control_c, 0, 64, 47
2, 324568, Control_c, 0, 64, 58
2, 324588, Control_c, 0, 64, 63
2, 324607, Control_c, 0, 64, 67
2, 324627, Control_c, 0, 64, 71
2, 324645, Control_c, 0, 64, 78
2, 324655, Note_on_c, 0, 75, 0
2, 324665, Control_c, 0, 64, 92
2, 324684, Control_c, 0, 64, 114
2, 324704, Control_c, 0, 64, 127
2, 324830, Note_on_c, 0, 47, 0
2, 324839, Note_on_c, 0, 49, 52
2, 324864, Note_on_c, 0, 76, 69
2, 324913, Note_on_c, 0, 68, 0
2, 325219, Control_c, 0, 64, 87
2, 325238, Control_c, 0, 64, 68
2, 325257, Control_c, 0, 64, 50
2, 325273, Note_on_c, 0, 70, 65
2, 325275, Note_on_c, 0, 51, 41
2, 325284, Control_c, 0, 64, 0
2, 325302, Note_on_c, 0, 76, 0
2, 325304, Note_on_c, 0, 49, 0
2, 325342, Control_c, 0, 64, 29
2, 325361, Control_c, 0, 64, 52
2, 325380, Control_c, 0, 64, 61
2, 325399, Control_c, 0, 64, 65
2, 325419, Control_c, 0, 64, 68
2, 325438, Control_c, 0, 64, 73
2, 325456, Control_c, 0, 64, 81
2, 325476, Control_c, 0, 64, 93
2, 325495, Control_c, 0, 64, 109
2, 325514, Control_c, 0, 64, 127
2, 325677, Note_on_c, 0, 71, 55
2, 325765, Note_on_c, 0, 70, 0
2, 325956, Control_c, 0, 64, 104
2, 325975, Control_c, 0, 64, 84
2, 325994, Control_c, 0, 64, 67
2, 326013, Control_c, 0, 64, 48
2, 326013, Note_on_c, 0, 51, 0
2, 326033, Control_c, 0, 64, 0
2, 326067, Note_on_c, 0, 73, 64
2, 326087, Note_on_c, 0, 67, 37
2, 326092, Note_on_c, 0, 71, 0
2, 326128, Control_c, 0, 64, 38
2, 326148, Control_c, 0, 64, 56
2, 326167, Control_c, 0, 64, 64
2, 326187, Control_c, 0, 64, 69
2, 326205, Control_c, 0, 64, 75
2, 326225, Control_c, 0, 64, 88
2, 326239, Control_c, 0, 64, 112
2, 326259, Control_c, 0, 64, 127
2, 326415, Note_on_c, 0, 51, 47
2, 326432, Note_on_c, 0, 75, 72
2, 326457, Note_on_c, 0, 51, 0
2, 326473, Note_on_c, 0, 73, 0
2, 326508, Note_on_c, 0, 75, 0
2, 326706, Note_on_c, 0, 67, 0
2, 326769, Note_on_c, 0, 56, 62
2, 326837, Control_c, 0, 64, 108
2, 326842, Note_on_c, 0, 68, 75
2, 326856, Control_c, 0, 64, 76
2, 326876, Control_c, 0, 64, 59
2, 326878, Note_on_c, 0, 71, 59
2, 326895, Control_c, 0, 64, 31
2, 326914, Control_c, 0, 64, 26
2, 326933, Control_c, 0, 64, 34
2, 326953, Control_c, 0, 64, 54
2, 326971, Control_c, 0, 64, 64
2, 326991, Control_c, 0, 64, 70
2, 327010, Control_c, 0, 64, 85
2, 327029, Control_c, 0, 64, 127
2, 327249, Note_on_c, 0, 70, 61
2, 327260, Note_on_c, 0, 56, 0
2, 327263, Note_on_c, 0, 58, 37
2, 327286, Note_on_c, 0, 68, 0
2, 327314, Note_on_c, 0, 58, 0
2, 327641, Note_on_c, 0, 63, 67
2, 327644, Control_c, 0, 64, 104
2, 327653, Note_on_c, 0, 59, 58
2, 327662, Control_c, 0, 64, 75
2, 327667, Note_on_c, 0, 68, 66
2, 327682, Control_c, 0, 64, 58
2, 327701, Control_c, 0, 64, 0
2, 327759, Control_c, 0, 64, 20
2, 327759, Note_on_c, 0, 71, 0
2, 327778, Control_c, 0, 64, 51
2, 327797, Control_c, 0, 64, 63
2, 327817, Control_c, 0, 64, 67
2, 327837, Control_c, 0, 64, 73
2, 327856, Control_c, 0, 64, 77
2, 327868, Note_on_c, 0, 70, 0
2, 327875, Control_c, 0, 64, 81
2, 327894, Control_c, 0, 64, 82
2, 327932, Control_c, 0, 64, 81
2, 327952, Control_c, 0, 64, 81
2, 327991, Control_c, 0, 64, 80
2, 328009, Control_c, 0, 64, 80
2, 328016, Note_on_c, 0, 59, 0
2, 328028, Control_c, 0, 64, 79
2, 328048, Control_c, 0, 64, 78
2, 328049, Note_on_c, 0, 58, 47
2, 328051, Note_on_c, 0, 66, 50
2, 328066, Control_c, 0, 64, 76
2, 328085, Note_on_c, 0, 68, 0
2, 328086, Control_c, 0, 64, 72
2, 328105, Control_c, 0, 64, 66
2, 328125, Control_c, 0, 64, 61
2, 328143, Control_c, 0, 64, 48
2, 328163, Control_c, 0, 64, 27
2, 328182, Control_c, 0, 64, 0
2, 328355, Control_c, 0, 64, 26
2, 328374, Control_c, 0, 64, 48
2, 328394, Control_c, 0, 64, 62
2, 328412, Control_c, 0, 64, 66
2, 328419, Note_on_c, 0, 58, 0
2, 328427, Note_on_c, 0, 56, 49
2, 328432, Control_c, 0, 64, 70
2, 328441, Note_on_c, 0, 65, 51
2, 328451, Control_c, 0, 64, 77
2, 328471, Control_c, 0, 64, 89
2, 328475, Note_on_c, 0, 66, 0
2, 328489, Control_c, 0, 64, 106
2, 328508, Control_c, 0, 64, 127
2, 328652, Note_on_c, 0, 56, 0
2, 328700, Note_on_c, 0, 63, 0
2, 328803, Note_on_c, 0, 62, 56
2, 328829, Note_on_c, 0, 56, 44
2, 328851, Note_on_c, 0, 65, 0
2, 329178, Control_c, 0, 64, 87
2, 329198, Control_c, 0, 64, 66
2, 329199, Note_on_c, 0, 63, 71
2, 329211, Note_on_c, 0, 62, 0
2, 329213, Note_on_c, 0, 54, 40
2, 329217, Control_c, 0, 64, 43
2, 329236, Control_c, 0, 64, 0
2, 329260, Note_on_c, 0, 66, 39
2, 329294, Control_c, 0, 64, 22
2, 329313, Control_c, 0, 64, 46
2, 329332, Control_c, 0, 64, 59
2, 329352, Control_c, 0, 64, 65
2, 329371, Control_c, 0, 64, 68
2, 329389, Control_c, 0, 64, 74
2, 329405, Note_on_c, 0, 54, 0
2, 329409, Control_c, 0, 64, 83
2, 329428, Control_c, 0, 64, 99
2, 329447, Control_c, 0, 64, 127
2, 329545, Note_on_c, 0, 56, 0
2, 329611, Note_on_c, 0, 53, 50
2, 329622, Note_on_c, 0, 65, 75
2, 329663, Note_on_c, 0, 66, 0
2, 329686, Note_on_c, 0, 63, 0
2, 329979, Note_on_c, 0, 53, 0
2, 329984, Control_c, 0, 64, 97
2, 329994, Note_on_c, 0, 51, 49
2, 330001, Note_on_c, 0, 66, 70
2, 330003, Control_c, 0, 64, 75
2, 330018, Note_on_c, 0, 70, 62
2, 330022, Control_c, 0, 64, 61
2, 330023, Note_on_c, 0, 65, 0
2, 330042, Control_c, 0, 64, 0
2, 330137, Control_c, 0, 64, 39
2, 330157, Control_c, 0, 64, 56
2, 330176, Control_c, 0, 64, 64
2, 330196, Control_c, 0, 64, 67
2, 330214, Control_c, 0, 64, 72
2, 330234, Control_c, 0, 64, 80
2, 330253, Control_c, 0, 64, 94
2, 330272, Control_c, 0, 64, 127
2, 330412, Note_on_c, 0, 65, 71
2, 330413, Note_on_c, 0, 66, 0
2, 330431, Note_on_c, 0, 70, 0
2, 330451, Note_on_c, 0, 51, 0
2, 330752, Control_c, 0, 64, 104
2, 330771, Control_c, 0, 64, 79
2, 330790, Control_c, 0, 64, 64
2, 330796, Note_on_c, 0, 63, 55
2, 330800, Note_on_c, 0, 72, 63
2, 330810, Control_c, 0, 64, 34
2, 330815, Note_on_c, 0, 56, 49
2, 330828, Control_c, 0, 64, 0
2, 330867, Note_on_c, 0, 65, 0
2, 330925, Control_c, 0, 64, 41
2, 330944, Control_c, 0, 64, 57
2, 330963, Control_c, 0, 64, 64
2, 330982, Control_c, 0, 64, 67
2, 331002, Control_c, 0, 64, 74
2, 331021, Control_c, 0, 64, 84
2, 331041, Control_c, 0, 64, 100
2, 331060, Control_c, 0, 64, 127
2, 331193, Note_on_c, 0, 74, 64
2, 331230, Note_on_c, 0, 72, 0
2, 331560, Control_c, 0, 64, 100
2, 331578, Control_c, 0, 64, 76
2, 331580, Note_on_c, 0, 70, 73
2, 331593, Note_on_c, 0, 75, 62
2, 331598, Control_c, 0, 64, 63
2, 331617, Control_c, 0, 64, 42
2, 331636, Control_c, 0, 64, 34
2, 331651, Note_on_c, 0, 74, 0
2, 331655, Control_c, 0, 64, 36
2, 331675, Control_c, 0, 64, 52
2, 331694, Control_c, 0, 64, 62
2, 331713, Control_c, 0, 64, 67
2, 331732, Control_c, 0, 64, 72
2, 331752, Control_c, 0, 64, 84
2, 331771, Control_c, 0, 64, 105
2, 331789, Control_c, 0, 64, 127
2, 331849, Note_on_c, 0, 56, 0
2, 331998, Note_on_c, 0, 55, 49
2, 332083, Note_on_c, 0, 63, 0
2, 332182, Note_on_c, 0, 53, 47
2, 332237, Note_on_c, 0, 55, 0
2, 332309, Control_c, 0, 64, 96
2, 332328, Control_c, 0, 64, 73
2, 332347, Control_c, 0, 64, 59
2, 332367, Control_c, 0, 64, 13
2, 332381, Note_on_c, 0, 63, 50
2, 332384, Note_on_c, 0, 55, 55
2, 332386, Control_c, 0, 64, 0
2, 332387, Note_on_c, 0, 53, 0
2, 332424, Control_c, 0, 64, 27
2, 332444, Control_c, 0, 64, 49
2, 332462, Control_c, 0, 64, 61
2, 332482, Control_c, 0, 64, 66
2, 332501, Control_c, 0, 64, 72
2, 332521, Control_c, 0, 64, 81
2, 332539, Control_c, 0, 64, 98
2, 332559, Control_c, 0, 64, 127
2, 332746, Note_on_c, 0, 73, 68
2, 333096, Control_c, 0, 64, 108
2, 333116, Control_c, 0, 64, 79
2, 333130, Note_on_c, 0, 55, 0
2, 333135, Control_c, 0, 64, 64
2, 333139, Note_on_c, 0, 75, 0
2, 333142, Note_on_c, 0, 72, 67
2, 333154, Control_c, 0, 64, 41
2, 333158, Note_on_c, 0, 56, 47
2, 333163, Note_on_c, 0, 73, 0
2, 333173, Control_c, 0, 64, 27
2, 333193, Control_c, 0, 64, 28
2, 333205, Note_on_c, 0, 70, 0
2, 333211, Control_c, 0, 64, 44
2, 333230, Control_c, 0, 64, 58
2, 333250, Control_c, 0, 64, 65
2, 333269, Control_c, 0, 64, 69
2, 333288, Control_c, 0, 64, 75
2, 333307, Control_c, 0, 64, 85
2, 333327, Control_c, 0, 64, 101
2, 333346, Control_c, 0, 64, 127
2, 333502, Note_on_c, 0, 63, 0
2, 333514, Note_on_c, 0, 74, 68
2, 333525, Note_on_c, 0, 65, 59
2, 333544, Note_on_c, 0, 54, 49
2, 333572, Note_on_c, 0, 72, 0
2, 333584, Note_on_c, 0, 56, 0
2, 333597, Note_on_c, 0, 65, 0
2, 333882, Control_c, 0, 64, 112
2, 333901, Control_c, 0, 64, 85
2, 333913, Note_on_c, 0, 53, 42
2, 333916, Note_on_c, 0, 66, 66
2, 333920, Note_on_c, 0, 75, 69
2, 333923, Control_c, 0, 64, 68
2, 333928, Note_on_c, 0, 54, 0
2, 333942, Control_c, 0, 64, 51
2, 333961, Control_c, 0, 64, 0
2, 333965, Note_on_c, 0, 74, 0
2, 334019, Control_c, 0, 64, 21
2, 334038, Control_c, 0, 64, 44
2, 334057, Control_c, 0, 64, 57
2, 334077, Control_c, 0, 64, 63
2, 334096, Control_c, 0, 64, 66
2, 334115, Control_c, 0, 64, 70
2, 334134, Control_c, 0, 64, 76
2, 334154, Control_c, 0, 64, 90
2, 334172, Control_c, 0, 64, 111
2, 334192, Control_c, 0, 64, 127
2, 334290, Note_on_c, 0, 51, 46
2, 334291, Note_on_c, 0, 53, 0
2, 334634, Control_c, 0, 64, 86
2, 334652, Control_c, 0, 64, 67
2, 334672, Control_c, 0, 64, 47
2, 334679, Note_on_c, 0, 51, 0
2, 334683, Note_on_c, 0, 68, 67
2, 334686, Note_on_c, 0, 53, 44
2, 334691, Control_c, 0, 64, 0
2, 334748, Control_c, 0, 64, 22
2, 334768, Control_c, 0, 64, 45
2, 334786, Control_c, 0, 64, 58
2, 334806, Control_c, 0, 64, 63
2, 334825, Control_c, 0, 64, 66
2, 334845, Control_c, 0, 64, 70
2, 334863, Control_c, 0, 64, 75
2, 334880, Control_c, 0, 64, 86
2, 334899, Control_c, 0, 64, 105
2, 334919, Control_c, 0, 64, 127
2, 335072, Note_on_c, 0, 53, 0
2, 335096, Note_on_c, 0, 54, 51
2, 335201, Note_on_c, 0, 66, 0
2, 335437, Control_c, 0, 64, 88
2, 335456, Control_c, 0, 64, 68
2, 335473, Note_on_c, 0, 54, 0
2, 335476, Control_c, 0, 64, 52
2, 335476, Note_on_c, 0, 74, 59
2, 335485, Note_on_c, 0, 56, 40
2, 335494, Control_c, 0, 64, 0
2, 335518, Note_on_c, 0, 75, 0
2, 335552, Control_c, 0, 64, 17
2, 335571, Control_c, 0, 64, 33
2, 335585, Control_c, 0, 64, 42
2, 335604, Control_c, 0, 64, 50
2, 335623, Control_c, 0, 64, 57
2, 335642, Control_c, 0, 64, 62
2, 335662, Control_c, 0, 64, 66
2, 335680, Control_c, 0, 64, 71
2, 335700, Control_c, 0, 64, 82
2, 335719, Control_c, 0, 64, 101
2, 335739, Control_c, 0, 64, 127
2, 335878, Note_on_c, 0, 56, 0
2, 335908, Note_on_c, 0, 58, 36
2, 335953, Note_on_c, 0, 68, 0
2, 336180, Control_c, 0, 64, 90
2, 336199, Control_c, 0, 64, 70
2, 336219, Control_c, 0, 64, 55
2, 336223, Note_on_c, 0, 58, 0
2, 336236, Note_on_c, 0, 51, 33
2, 336237, Control_c, 0, 64, 45
2, 336247, Note_on_c, 0, 66, 49
2, 336257, Control_c, 0, 64, 47
2, 336270, Note_on_c, 0, 75, 48
2, 336276, Control_c, 0, 64, 55
2, 336296, Control_c, 0, 64, 62
2, 336314, Control_c, 0, 64, 66
2, 336327, Note_on_c, 0, 74, 0
2, 336334, Control_c, 0, 64, 71
2, 336353, Control_c, 0, 64, 84
2, 336372, Control_c, 0, 64, 104
2, 336391, Control_c, 0, 64, 127
2, 336426, Note_on_c, 0, 51, 0
2, 336477, Note_on_c, 0, 63, 48
2, 336629, Note_on_c, 0, 68, 64
2, 336632, Note_on_c, 0, 63, 0
2, 336656, Note_on_c, 0, 61, 47
2, 336791, Note_on_c, 0, 68, 0
2, 336796, Note_on_c, 0, 61, 0
2, 336813, Note_on_c, 0, 59, 51
2, 336818, Note_on_c, 0, 66, 0
2, 336948, Control_c, 0, 64, 101
2, 336967, Control_c, 0, 64, 74
2, 336986, Control_c, 0, 64, 59
2, 336994, Note_on_c, 0, 59, 0
2, 337005, Control_c, 0, 64, 18
2, 337007, Note_on_c, 0, 58, 49
2, 337016, Note_on_c, 0, 74, 60
2, 337020, Note_on_c, 0, 75, 0
2, 337025, Control_c, 0, 64, 0
2, 337026, Note_on_c, 0, 70, 61
2, 337082, Control_c, 0, 64, 23
2, 337102, Control_c, 0, 64, 45
2, 337120, Control_c, 0, 64, 58
2, 337140, Control_c, 0, 64, 64
2, 337159, Control_c, 0, 64, 67
2, 337179, Control_c, 0, 64, 73
2, 337197, Control_c, 0, 64, 84
2, 337217, Control_c, 0, 64, 106
2, 337236, Control_c, 0, 64, 127
2, 337399, Note_on_c, 0, 75, 72
2, 337410, Note_on_c, 0, 72, 63
2, 337411, Note_on_c, 0, 74, 0
2, 337427, Note_on_c, 0, 70, 0
2, 337509, Note_on_c, 0, 75, 0
2, 337736, Control_c, 0, 64, 77
2, 337756, Control_c, 0, 64, 61
2, 337776, Control_c, 0, 64, 18
2, 337792, Note_on_c, 0, 74, 61
2, 337792, Note_on_c, 0, 77, 68
2, 337795, Control_c, 0, 64, 0
2, 337803, Note_on_c, 0, 72, 0
2, 337833, Control_c, 0, 64, 19
2, 337853, Control_c, 0, 64, 49
2, 337871, Control_c, 0, 64, 63
2, 337891, Control_c, 0, 64, 68
2, 337910, Control_c, 0, 64, 74
2, 337930, Control_c, 0, 64, 84
2, 337932, Note_on_c, 0, 58, 0
2, 337948, Control_c, 0, 64, 99
2, 337967, Control_c, 0, 64, 127
2, 338180, Note_on_c, 0, 80, 82
2, 338183, Note_on_c, 0, 58, 43
2, 338198, Control_c, 0, 64, 92
2, 338202, Note_on_c, 0, 54, 43
2, 338202, Note_on_c, 0, 77, 0
2, 338217, Control_c, 0, 64, 70
2, 338236, Control_c, 0, 64, 55
2, 338256, Control_c, 0, 64, 24
2, 338275, Control_c, 0, 64, 21
2, 338294, Control_c, 0, 64, 27
2, 338313, Control_c, 0, 64, 47
2, 338333, Control_c, 0, 64, 60
2, 338351, Control_c, 0, 64, 65
2, 338368, Control_c, 0, 64, 68
2, 338388, Control_c, 0, 64, 72
2, 338407, Control_c, 0, 64, 79
2, 338426, Control_c, 0, 64, 92
2, 338445, Control_c, 0, 64, 114
2, 338465, Control_c, 0, 64, 127
2, 338542, Control_c, 0, 64, 118
2, 338547, Note_on_c, 0, 54, 0
2, 338547, Note_on_c, 0, 58, 0
2, 338560, Control_c, 0, 64, 82
2, 338560, Note_on_c, 0, 56, 55
2, 338564, Note_on_c, 0, 78, 77
2, 338567, Note_on_c, 0, 60, 50
2, 338580, Control_c, 0, 64, 65
2, 338599, Control_c, 0, 64, 46
2, 338619, Control_c, 0, 64, 32
2, 338657, Control_c, 0, 64, 43
2, 338676, Control_c, 0, 64, 57
2, 338696, Control_c, 0, 64, 64
2, 338715, Control_c, 0, 64, 68
2, 338735, Control_c, 0, 64, 73
2, 338754, Control_c, 0, 64, 81
2, 338773, Control_c, 0, 64, 95
2, 338792, Control_c, 0, 64, 127
2, 338800, Note_on_c, 0, 80, 0
2, 338863, Note_on_c, 0, 74, 0
2, 338912, Note_on_c, 0, 60, 0
2, 338928, Note_on_c, 0, 56, 0
2, 338936, Note_on_c, 0, 77, 77
2, 338937, Note_on_c, 0, 62, 49
2, 338939, Note_on_c, 0, 58, 51
2, 339017, Note_on_c, 0, 58, 0
2, 339269, Note_on_c, 0, 78, 0
2, 339281, Note_on_c, 0, 59, 54
2, 339286, Note_on_c, 0, 62, 0
2, 339306, Note_on_c, 0, 63, 45
2, 339348, Control_c, 0, 64, 83
2, 339367, Control_c, 0, 64, 65
2, 339376, Note_on_c, 0, 75, 75
2, 339386, Control_c, 0, 64, 34
2, 339405, Control_c, 0, 64, 0
2, 339425, Note_on_c, 0, 77, 0
2, 339463, Control_c, 0, 64, 29
2, 339482, Control_c, 0, 64, 49
2, 339502, Control_c, 0, 64, 61
2, 339520, Control_c, 0, 64, 66
2, 339540, Control_c, 0, 64, 71
2, 339559, Control_c, 0, 64, 79
2, 339579, Control_c, 0, 64, 95
2, 339597, Control_c, 0, 64, 127
2, 339710, Note_on_c, 0, 59, 0
2, 339724, Note_on_c, 0, 73, 66
2, 339743, Note_on_c, 0, 58, 51
2, 339853, Note_on_c, 0, 58, 0
2, 339911, Note_on_c, 0, 73, 0
2, 340077, Control_c, 0, 64, 89
2, 340097, Control_c, 0, 64, 69
2, 340115, Note_on_c, 0, 56, 61
2, 340116, Control_c, 0, 64, 54
2, 340128, Note_on_c, 0, 71, 64
2, 340136, Control_c, 0, 64, 38
2, 340154, Control_c, 0, 64, 39
2, 340174, Control_c, 0, 64, 47
2, 340178, Note_on_c, 0, 75, 0
2, 340193, Control_c, 0, 64, 58
2, 340212, Control_c, 0, 64, 65
2, 340231, Control_c, 0, 64, 68
2, 340251, Control_c, 0, 64, 74
2, 340270, Control_c, 0, 64, 84
2, 340288, Control_c, 0, 64, 99
2, 340308, Control_c, 0, 64, 127
2, 340455, Note_on_c, 0, 71, 0
2, 340465, Note_on_c, 0, 70, 66
2, 340485, Note_on_c, 0, 65, 67
2, 340559, Note_on_c, 0, 63, 0
2, 340635, Note_on_c, 0, 71, 56
2, 340639, Note_on_c, 0, 56, 0
2, 340669, Note_on_c, 0, 70, 0
2, 340884, Control_c, 0, 64, 96
2, 340893, Note_on_c, 0, 66, 61
2, 340901, Note_on_c, 0, 63, 59
2, 340903, Control_c, 0, 64, 73
2, 340920, Note_on_c, 0, 70, 72
2, 340922, Control_c, 0, 64, 59
2, 340942, Control_c, 0, 64, 19
2, 340946, Note_on_c, 0, 71, 0
2, 340953, Note_on_c, 0, 65, 0
2, 340960, Control_c, 0, 64, 0
2, 341019, Control_c, 0, 64, 11
2, 341037, Control_c, 0, 64, 43
2, 341057, Control_c, 0, 64, 57
2, 341076, Control_c, 0, 64, 63
2, 341096, Control_c, 0, 64, 67
2, 341114, Control_c, 0, 64, 73
2, 341134, Control_c, 0, 64, 84
2, 341153, Control_c, 0, 64, 114
2, 341172, Control_c, 0, 64, 127
2, 341284, Note_on_c, 0, 72, 81
2, 341302, Note_on_c, 0, 70, 0
2, 341651, Note_on_c, 0, 58, 50
2, 341652, Note_on_c, 0, 65, 49
2, 341654, Control_c, 0, 64, 103
2, 341659, Note_on_c, 0, 74, 79
2, 341673, Control_c, 0, 64, 75
2, 341681, Note_on_c, 0, 72, 0
2, 341693, Control_c, 0, 64, 59
2, 341711, Control_c, 0, 64, 0
2, 341727, Note_on_c, 0, 66, 0
2, 341732, Note_on_c, 0, 63, 0
2, 341807, Control_c, 0, 64, 35
2, 341827, Control_c, 0, 64, 54
2, 341845, Control_c, 0, 64, 63
2, 341865, Control_c, 0, 64, 68
2, 341884, Control_c, 0, 64, 75
2, 341904, Control_c, 0, 64, 88
2, 341922, Control_c, 0, 64, 107
2, 341942, Control_c, 0, 64, 127
2, 342052, Note_on_c, 0, 75, 83
2, 342053, Note_on_c, 0, 63, 64
2, 342057, Control_c, 0, 64, 118
2, 342076, Control_c, 0, 64, 83
2, 342096, Control_c, 0, 64, 67
2, 342098, Note_on_c, 0, 74, 0
2, 342106, Note_on_c, 0, 65, 0
2, 342118, Control_c, 0, 64, 54
2, 342136, Control_c, 0, 64, 46
2, 342156, Control_c, 0, 64, 49
2, 342175, Control_c, 0, 64, 57
2, 342194, Control_c, 0, 64, 63
2, 342212, Control_c, 0, 64, 66
2, 342232, Control_c, 0, 64, 69
2, 342251, Control_c, 0, 64, 74
2, 342270, Control_c, 0, 64, 83
2, 342289, Control_c, 0, 64, 97
2, 342309, Control_c, 0, 64, 127
2, 342404, Control_c, 0, 64, 93
2, 342424, Control_c, 0, 64, 72
2, 342443, Control_c, 0, 64, 59
2, 342452, Note_on_c, 0, 62, 55
2, 342452, Note_on_c, 0, 77, 75
2, 342463, Control_c, 0, 64, 43
2, 342480, Note_on_c, 0, 75, 0
2, 342481, Control_c, 0, 64, 43
2, 342484, Note_on_c, 0, 63, 0
2, 342500, Control_c, 0, 64, 50
2, 342520, Control_c, 0, 64, 60
2, 342538, Control_c, 0, 64, 64
2, 342559, Control_c, 0, 64, 67
2, 342578, Control_c, 0, 64, 71
2, 342598, Control_c, 0, 64, 76
2, 342616, Control_c, 0, 64, 84
2, 342636, Control_c, 0, 64, 98
2, 342655, Control_c, 0, 64, 127
2, 342808, Control_c, 0, 64, 90
2, 342828, Control_c, 0, 64, 67
2, 342840, Note_on_c, 0, 63, 54
2, 342847, Control_c, 0, 64, 51
2, 342856, Note_on_c, 0, 60, 55
2, 342856, Note_on_c, 0, 77, 0
2, 342857, Note_on_c, 0, 70, 79
2, 342867, Control_c, 0, 64, 33
2, 342867, Note_on_c, 0, 62, 0
2, 342883, Note_on_c, 0, 58, 0
2, 342905, Control_c, 0, 64, 41
2, 342924, Control_c, 0, 64, 56
2, 342944, Control_c, 0, 64, 64
2, 342962, Control_c, 0, 64, 68
2, 342981, Control_c, 0, 64, 74
2, 343001, Control_c, 0, 64, 84
2, 343019, Control_c, 0, 64, 100
2, 343039, Control_c, 0, 64, 127
2, 343249, Control_c, 0, 64, 89
2, 343269, Control_c, 0, 64, 68
2, 343272, Note_on_c, 0, 82, 79
2, 343288, Control_c, 0, 64, 50
2, 343290, Note_on_c, 0, 62, 52
2, 343297, Note_on_c, 0, 65, 31
2, 343307, Control_c, 0, 64, 23
2, 343312, Note_on_c, 0, 63, 0
2, 343346, Control_c, 0, 64, 27
2, 343364, Control_c, 0, 64, 48
2, 343366, Note_on_c, 0, 60, 0
2, 343384, Control_c, 0, 64, 60
2, 343403, Control_c, 0, 64, 65
2, 343423, Control_c, 0, 64, 68
2, 343441, Control_c, 0, 64, 75
2, 343460, Control_c, 0, 64, 86
2, 343480, Control_c, 0, 64, 110
2, 343498, Control_c, 0, 64, 127
2, 343646, Note_on_c, 0, 80, 79
2, 343818, Note_on_c, 0, 70, 0
2, 343978, Control_c, 0, 64, 87
2, 343998, Control_c, 0, 64, 67
2, 344017, Control_c, 0, 64, 52
2, 344020, Note_on_c, 0, 63, 43
2, 344034, Note_on_c, 0, 78, 72
2, 344037, Control_c, 0, 64, 40
2, 344053, Note_on_c, 0, 65, 0
2, 344055, Control_c, 0, 64, 41
2, 344072, Note_on_c, 0, 62, 0
2, 344075, Control_c, 0, 64, 51
2, 344094, Control_c, 0, 64, 61
2, 344110, Note_on_c, 0, 80, 0
2, 344111, Note_on_c, 0, 82, 0
2, 344114, Control_c, 0, 64, 66
2, 344132, Control_c, 0, 64, 71
2, 344152, Control_c, 0, 64, 82
2, 344171, Control_c, 0, 64, 101
2, 344190, Control_c, 0, 64, 127
2, 344290, Note_on_c, 0, 63, 0
2, 344405, Note_on_c, 0, 80, 76
2, 344424, Note_on_c, 0, 59, 31
2, 344445, Note_on_c, 0, 63, 32
2, 344525, Note_on_c, 0, 59, 0
2, 344549, Note_on_c, 0, 78, 0
2, 344566, Note_on_c, 0, 62, 47
2, 344575, Note_on_c, 0, 63, 0
2, 344764, Control_c, 0, 64, 106
2, 344784, Control_c, 0, 64, 77
2, 344789, Note_on_c, 0, 82, 74
2, 344798, Note_on_c, 0, 54, 51
2, 344803, Control_c, 0, 64, 62
2, 344811, Note_on_c, 0, 62, 0
2, 344821, Control_c, 0, 64, 29
2, 344833, Note_on_c, 0, 63, 29
2, 344841, Control_c, 0, 64, 0
2, 344866, Note_on_c, 0, 80, 0
2, 344879, Control_c, 0, 64, 13
2, 344898, Control_c, 0, 64, 38
2, 344918, Control_c, 0, 64, 54
2, 344937, Control_c, 0, 64, 62
2, 344956, Control_c, 0, 64, 66
2, 344975, Control_c, 0, 64, 70
2, 344995, Control_c, 0, 64, 76
2, 345013, Control_c, 0, 64, 90
2, 345033, Control_c, 0, 64, 127
2, 345170, Note_on_c, 0, 54, 0
2, 345176, Note_on_c, 0, 83, 70
2, 345192, Note_on_c, 0, 56, 52
2, 345347, Note_on_c, 0, 82, 0
2, 345532, Control_c, 0, 64, 85
2, 345552, Control_c, 0, 64, 67
2, 345553, Note_on_c, 0, 56, 0
2, 345570, Control_c, 0, 64, 36
2, 345581, Note_on_c, 0, 58, 42
2, 345590, Control_c, 0, 64, 0
2, 345601, Note_on_c, 0, 77, 60
2, 345667, Control_c, 0, 64, 36
2, 345686, Control_c, 0, 64, 54
2, 345688, Note_on_c, 0, 83, 0
2, 345705, Control_c, 0, 64, 63
2, 345724, Control_c, 0, 64, 67
2, 345744, Control_c, 0, 64, 72
2, 345763, Control_c, 0, 64, 83
2, 345781, Control_c, 0, 64, 105
2, 345801, Control_c, 0, 64, 127
2, 346011, Note_on_c, 0, 61, 55
2, 346014, Note_on_c, 0, 58, 0
2, 346073, Note_on_c, 0, 63, 0
2, 346381, Note_on_c, 0, 51, 49
2, 346396, Note_on_c, 0, 59, 49
2, 346400, Control_c, 0, 64, 103
2, 346408, Note_on_c, 0, 79, 74
2, 346412, Note_on_c, 0, 61, 0
2, 346419, Control_c, 0, 64, 75
2, 346438, Control_c, 0, 64, 60
2, 346457, Control_c, 0, 64, 0
2, 346485, Note_on_c, 0, 77, 0
2, 346534, Control_c, 0, 64, 35
2, 346554, Control_c, 0, 64, 55
2, 346573, Control_c, 0, 64, 63
2, 346592, Control_c, 0, 64, 66
2, 346611, Control_c, 0, 64, 71
2, 346631, Control_c, 0, 64, 78
2, 346649, Control_c, 0, 64, 91
2, 346669, Control_c, 0, 64, 127
2, 346792, Note_on_c, 0, 58, 63
2, 346807, Note_on_c, 0, 51, 0
2, 346860, Note_on_c, 0, 59, 0
2, 347167, Note_on_c, 0, 59, 56
2, 347178, Note_on_c, 0, 56, 52
2, 347187, Control_c, 0, 64, 83
2, 347190, Note_on_c, 0, 80, 79
2, 347199, Note_on_c, 0, 58, 0
2, 347205, Control_c, 0, 64, 65
2, 347225, Control_c, 0, 64, 34
2, 347241, Note_on_c, 0, 79, 0
2, 347244, Control_c, 0, 64, 0
2, 347264, Note_on_c, 0, 56, 0
2, 347282, Control_c, 0, 64, 21
2, 347301, Control_c, 0, 64, 49
2, 347321, Control_c, 0, 64, 62
2, 347339, Control_c, 0, 64, 67
2, 347358, Control_c, 0, 64, 75
2, 347377, Control_c, 0, 64, 88
2, 347397, Control_c, 0, 64, 113
2, 347415, Control_c, 0, 64, 127
2, 347532, Note_on_c, 0, 59, 0
2, 347546, Note_on_c, 0, 63, 62
2, 347579, Note_on_c, 0, 58, 50
2, 347586, Note_on_c, 0, 78, 74
2, 347647, Note_on_c, 0, 80, 0
2, 347678, Note_on_c, 0, 58, 0
2, 347972, Control_c, 0, 64, 117
2, 347981, Note_on_c, 0, 77, 65
2, 347988, Note_on_c, 0, 59, 50
2, 347992, Control_c, 0, 64, 82
2, 347998, Note_on_c, 0, 68, 61
2, 348011, Control_c, 0, 64, 64
2, 348028, Note_on_c, 0, 78, 0
2, 348030, Control_c, 0, 64, 32
2, 348049, Control_c, 0, 64, 0
2, 348078, Note_on_c, 0, 63, 0
2, 348126, Control_c, 0, 64, 15
2, 348146, Control_c, 0, 64, 47
2, 348164, Control_c, 0, 64, 61
2, 348184, Control_c, 0, 64, 67
2, 348203, Control_c, 0, 64, 73
2, 348222, Control_c, 0, 64, 83
2, 348241, Control_c, 0, 64, 102
2, 348260, Control_c, 0, 64, 127
2, 348282, Note_on_c, 0, 59, 0
2, 348382, Note_on_c, 0, 75, 70
2, 348479, Note_on_c, 0, 77, 0
2, 348744, Control_c, 0, 64, 102
2, 348763, Control_c, 0, 64, 76
2, 348771, Note_on_c, 0, 58, 41
2, 348781, Control_c, 0, 64, 61
2, 348801, Control_c, 0, 64, 0
2, 348806, Note_on_c, 0, 74, 58
2, 348864, Note_on_c, 0, 75, 0
2, 348883, Note_on_c, 0, 68, 0
2, 348897, Control_c, 0, 64, 41
2, 348916, Control_c, 0, 64, 58
2, 348930, Control_c, 0, 64, 64
2, 348950, Control_c, 0, 64, 68
2, 348969, Control_c, 0, 64, 72
2, 348989, Control_c, 0, 64, 79
2, 349007, Control_c, 0, 64, 91
2, 349027, Control_c, 0, 64, 105
2, 349046, Control_c, 0, 64, 127
2, 349155, Note_on_c, 0, 66, 52
2, 349401, Note_on_c, 0, 66, 0
2, 349545, Control_c, 0, 64, 104
2, 349564, Control_c, 0, 64, 79
2, 349584, Control_c, 0, 64, 64
2, 349603, Control_c, 0, 64, 31
2, 349603, Note_on_c, 0, 65, 37
2, 349605, Note_on_c, 0, 75, 65
2, 349621, Control_c, 0, 64, 0
2, 349684, Note_on_c, 0, 74, 0
2, 349698, Control_c, 0, 64, 45
2, 349718, Control_c, 0, 64, 60
2, 349737, Control_c, 0, 64, 65
2, 349756, Control_c, 0, 64, 69
2, 349775, Control_c, 0, 64, 76
2, 349795, Control_c, 0, 64, 86
2, 349813, Control_c, 0, 64, 101
2, 349833, Control_c, 0, 64, 127
2, 349994, Note_on_c, 0, 65, 0
2, 350021, Note_on_c, 0, 63, 41
2, 350352, Control_c, 0, 64, 89
2, 350358, Note_on_c, 0, 58, 0
2, 350370, Control_c, 0, 64, 69
2, 350388, Note_on_c, 0, 63, 0
2, 350390, Control_c, 0, 64, 45
2, 350392, Note_on_c, 0, 65, 45
2, 350409, Control_c, 0, 64, 0
2, 350447, Control_c, 0, 64, 11
2, 350467, Control_c, 0, 64, 42
2, 350486, Control_c, 0, 64, 59
2, 350505, Control_c, 0, 64, 66
2, 350524, Control_c, 0, 64, 73
2, 350544, Control_c, 0, 64, 84
2, 350563, Control_c, 0, 64, 106
2, 350581, Control_c, 0, 64, 127
2, 350800, Note_on_c, 0, 73, 63
2, 350846, Note_on_c, 0, 75, 0
2, 351159, Control_c, 0, 64, 83
2, 351176, Note_on_c, 0, 73, 0
2, 351178, Control_c, 0, 64, 65
2, 351184, Note_on_c, 0, 65, 0
2, 351194, Note_on_c, 0, 71, 52
2, 351195, Note_on_c, 0, 67, 37
2, 351198, Control_c, 0, 64, 36
2, 351217, Control_c, 0, 64, 21
2, 351237, Control_c, 0, 64, 23
2, 351255, Control_c, 0, 64, 43
2, 351275, Control_c, 0, 64, 60
2, 351294, Control_c, 0, 64, 67
2, 351314, Control_c, 0, 64, 74
2, 351332, Control_c, 0, 64, 89
2, 351352, Control_c, 0, 64, 127
2, 351458, Note_on_c, 0, 67, 0
2, 351582, Note_on_c, 0, 70, 68
2, 351602, Note_on_c, 0, 71, 0
2, 351969, Note_on_c, 0, 70, 0
2, 351984, Note_on_c, 0, 68, 61
2, 351985, Control_c, 0, 64, 81
2, 351988, Note_on_c, 0, 71, 47
2, 352003, Control_c, 0, 64, 63
2, 352022, Control_c, 0, 64, 33
2, 352042, Control_c, 0, 64, 0
2, 352080, Control_c, 0, 64, 38
2, 352099, Control_c, 0, 64, 59
2, 352119, Control_c, 0, 64, 67
2, 352138, Control_c, 0, 64, 74
2, 352156, Control_c, 0, 64, 91
2, 352175, Control_c, 0, 64, 127
2, 352361, Note_on_c, 0, 71, 0
2, 352378, Note_on_c, 0, 66, 65
2, 352404, Note_on_c, 0, 70, 61
2, 352408, Note_on_c, 0, 68, 0
2, 352720, Note_on_c, 0, 66, 0
2, 352795, Note_on_c, 0, 65, 65
2, 352813, Note_on_c, 0, 68, 64
2, 352824, Note_on_c, 0, 70, 0
2, 352909, Note_on_c, 0, 68, 0
2, 353211, Note_on_c, 0, 63, 72
2, 353262, Note_on_c, 0, 65, 0
2, 353626, Note_on_c, 0, 46, 73
2, 353653, Control_c, 0, 64, 109
2, 353673, Control_c, 0, 64, 76
2, 353676, Note_on_c, 0, 62, 61
2, 353692, Control_c, 0, 64, 57
2, 353712, Control_c, 0, 64, 0
2, 353756, Note_on_c, 0, 63, 0
2, 353807, Control_c, 0, 64, 45
2, 353827, Control_c, 0, 64, 62
2, 353846, Control_c, 0, 64, 68
2, 353865, Control_c, 0, 64, 78
2, 353884, Control_c, 0, 64, 108
2, 353903, Control_c, 0, 64, 127
2, 354044, Note_on_c, 0, 66, 65
2, 354112, Note_on_c, 0, 62, 0
2, 354223, Note_on_c, 0, 65, 60
2, 354288, Note_on_c, 0, 66, 0
2, 354405, Note_on_c, 0, 39, 69
2, 354421, Control_c, 0, 64, 95
2, 354426, Note_on_c, 0, 63, 63
2, 354434, Note_on_c, 0, 66, 65
2, 354441, Control_c, 0, 64, 69
2, 354446, Note_on_c, 0, 65, 0
2, 354460, Control_c, 0, 64, 46
2, 354479, Control_c, 0, 64, 0
2, 354498, Note_on_c, 0, 46, 0
2, 354537, Control_c, 0, 64, 23
2, 354556, Control_c, 0, 64, 51
2, 354575, Control_c, 0, 64, 63
2, 354595, Control_c, 0, 64, 68
2, 354613, Control_c, 0, 64, 77
2, 354633, Control_c, 0, 64, 97
2, 354652, Control_c, 0, 64, 127
2, 354805, Note_on_c, 0, 68, 74
2, 354838, Note_on_c, 0, 65, 53
2, 354853, Note_on_c, 0, 66, 0
2, 354912, Note_on_c, 0, 68, 0
2, 355209, Control_c, 0, 64, 123
2, 355217, Note_on_c, 0, 70, 77
2, 355229, Control_c, 0, 64, 78
2, 355247, Control_c, 0, 64, 61
2, 355266, Note_on_c, 0, 65, 0
2, 355267, Control_c, 0, 64, 27
2, 355286, Control_c, 0, 64, 11
2, 355324, Control_c, 0, 64, 30
2, 355343, Control_c, 0, 64, 54
2, 355363, Control_c, 0, 64, 64
2, 355381, Control_c, 0, 64, 69
2, 355401, Control_c, 0, 64, 77
2, 355420, Control_c, 0, 64, 97
2, 355439, Control_c, 0, 64, 127
2, 355634, Note_on_c, 0, 38, 58
2, 355634, Note_on_c, 0, 65, 57
2, 355658, Note_on_c, 0, 39, 0
2, 355724, Note_on_c, 0, 63, 0
2, 356035, Note_on_c, 0, 63, 74
2, 356052, Note_on_c, 0, 39, 56
2, 356054, Control_c, 0, 64, 107
2, 356074, Control_c, 0, 64, 75
2, 356093, Control_c, 0, 64, 60
2, 356113, Control_c, 0, 64, 34
2, 356117, Note_on_c, 0, 38, 0
2, 356131, Control_c, 0, 64, 30
2, 356151, Control_c, 0, 64, 35
2, 356170, Control_c, 0, 64, 54
2, 356189, Control_c, 0, 64, 63
2, 356204, Note_on_c, 0, 70, 0
2, 356208, Control_c, 0, 64, 69
2, 356228, Control_c, 0, 64, 78
2, 356247, Control_c, 0, 64, 97
2, 356266, Control_c, 0, 64, 127
2, 356303, Note_on_c, 0, 65, 0
2, 356426, Note_on_c, 0, 68, 68
2, 356439, Note_on_c, 0, 39, 0
2, 356439, Note_on_c, 0, 41, 56
2, 356803, Control_c, 0, 64, 84
2, 356820, Note_on_c, 0, 68, 0
2, 356821, Control_c, 0, 64, 65
2, 356836, Note_on_c, 0, 41, 0
2, 356839, Note_on_c, 0, 70, 61
2, 356841, Control_c, 0, 64, 39
2, 356842, Note_on_c, 0, 42, 56
2, 356860, Control_c, 0, 64, 31
2, 356879, Control_c, 0, 64, 35
2, 356898, Control_c, 0, 64, 51
2, 356918, Control_c, 0, 64, 63
2, 356937, Control_c, 0, 64, 68
2, 356957, Control_c, 0, 64, 75
2, 356976, Control_c, 0, 64, 89
2, 356996, Control_c, 0, 64, 127
2, 357217, Note_on_c, 0, 62, 65
2, 357222, Note_on_c, 0, 41, 58
2, 357239, Note_on_c, 0, 42, 0
2, 357239, Note_on_c, 0, 68, 69
2, 357265, Control_c, 0, 64, 78
2, 357266, Note_on_c, 0, 70, 0
2, 357284, Control_c, 0, 64, 63
2, 357302, Control_c, 0, 64, 43
2, 357322, Control_c, 0, 64, 39
2, 357341, Control_c, 0, 64, 42
2, 357360, Control_c, 0, 64, 55
2, 357370, Note_on_c, 0, 63, 0
2, 357379, Control_c, 0, 64, 63
2, 357399, Control_c, 0, 64, 68
2, 357409, Note_on_c, 0, 68, 0
2, 357418, Control_c, 0, 64, 73
2, 357437, Control_c, 0, 64, 83
2, 357456, Control_c, 0, 64, 98
2, 357476, Control_c, 0, 64, 127
2, 357609, Note_on_c, 0, 63, 75
2, 357618, Note_on_c, 0, 39, 54
2, 357644, Note_on_c, 0, 41, 0
2, 357644, Note_on_c, 0, 66, 59
2, 357722, Note_on_c, 0, 62, 0
2, 357954, Note_on_c, 0, 65, 71
2, 357993, Note_on_c, 0, 63, 0
2, 358016, Note_on_c, 0, 66, 0
2, 358155, Note_on_c, 0, 63, 48
2, 358165, Note_on_c, 0, 65, 0
2, 358339, Control_c, 0, 64, 102
2, 358353, Note_on_c, 0, 66, 69
2, 358359, Control_c, 0, 64, 71
2, 358360, Note_on_c, 0, 46, 54
2, 358364, Note_on_c, 0, 62, 54
2, 358378, Control_c, 0, 64, 51
2, 358397, Control_c, 0, 64, 0
2, 358474, Control_c, 0, 64, 36
2, 358493, Control_c, 0, 64, 58
2, 358507, Note_on_c, 0, 39, 0
2, 358513, Control_c, 0, 64, 64
2, 358530, Control_c, 0, 64, 69
2, 358549, Note_on_c, 0, 63, 0
2, 358550, Control_c, 0, 64, 75
2, 358569, Control_c, 0, 64, 88
2, 358589, Control_c, 0, 64, 118
2, 358607, Control_c, 0, 64, 127
2, 358783, Note_on_c, 0, 65, 60
2, 358784, Note_on_c, 0, 68, 46
2, 358802, Note_on_c, 0, 62, 0
2, 358835, Note_on_c, 0, 68, 0
2, 358998, Note_on_c, 0, 66, 0
2, 359146, Control_c, 0, 64, 100
2, 359162, Note_on_c, 0, 39, 51
2, 359165, Control_c, 0, 64, 73
2, 359174, Note_on_c, 0, 63, 67
2, 359184, Control_c, 0, 64, 49
2, 359204, Control_c, 0, 64, 0
2, 359206, Note_on_c, 0, 65, 0
2, 359215, Note_on_c, 0, 46, 0
2, 359280, Control_c, 0, 64, 45
2, 359299, Control_c, 0, 64, 61
2, 359319, Control_c, 0, 64, 67
2, 359338, Control_c, 0, 64, 74
2, 359357, Control_c, 0, 64, 88
2, 359376, Control_c, 0, 64, 127
2, 359547, Note_on_c, 0, 66, 40
2, 359675, Note_on_c, 0, 66, 0
2, 359695, Note_on_c, 0, 63, 0
2, 359704, Note_on_c, 0, 65, 33
2, 359748, Note_on_c, 0, 65, 0
2, 359893, Control_c, 0, 64, 116
2, 359913, Control_c, 0, 64, 79
2, 359913, Note_on_c, 0, 70, 68
2, 359926, Note_on_c, 0, 67, 57
2, 359932, Control_c, 0, 64, 63
2, 359952, Control_c, 0, 64, 41
2, 359970, Control_c, 0, 64, 34
2, 359990, Control_c, 0, 64, 36
2, 360009, Control_c, 0, 64, 51
2, 360029, Control_c, 0, 64, 61
2, 360047, Control_c, 0, 64, 66
2, 360067, Control_c, 0, 64, 72
2, 360086, Control_c, 0, 64, 83
2, 360104, Control_c, 0, 64, 109
2, 360124, Control_c, 0, 64, 127
2, 360286, Note_on_c, 0, 41, 53
2, 360298, Note_on_c, 0, 68, 61
2, 360300, Note_on_c, 0, 70, 0
2, 360365, Note_on_c, 0, 39, 0
2, 360514, Note_on_c, 0, 67, 0
2, 360680, Control_c, 0, 64, 105
2, 360689, Note_on_c, 0, 43, 50
2, 360698, Note_on_c, 0, 63, 68
2, 360699, Control_c, 0, 64, 73
2, 360719, Control_c, 0, 64, 58
2, 360723, Note_on_c, 0, 70, 60
2, 360728, Note_on_c, 0, 41, 0
2, 360737, Control_c, 0, 64, 30
2, 360749, Note_on_c, 0, 68, 0
2, 360757, Control_c, 0, 64, 26
2, 360776, Control_c, 0, 64, 28
2, 360796, Control_c, 0, 64, 42
2, 360815, Control_c, 0, 64, 57
2, 360835, Control_c, 0, 64, 65
2, 360853, Control_c, 0, 64, 69
2, 360873, Control_c, 0, 64, 78
2, 360892, Control_c, 0, 64, 96
2, 360912, Control_c, 0, 64, 127
2, 361087, Note_on_c, 0, 61, 57
2, 361164, Note_on_c, 0, 61, 0
2, 361449, Control_c, 0, 64, 102
2, 361469, Control_c, 0, 64, 74
2, 361487, Control_c, 0, 64, 59
2, 361489, Note_on_c, 0, 59, 60
2, 361507, Control_c, 0, 64, 22
2, 361510, Note_on_c, 0, 63, 0
2, 361526, Control_c, 0, 64, 11
2, 361531, Note_on_c, 0, 44, 41
2, 361544, Control_c, 0, 64, 17
2, 361559, Note_on_c, 0, 43, 0
2, 361564, Control_c, 0, 64, 38
2, 361583, Control_c, 0, 64, 56
2, 361603, Control_c, 0, 64, 64
2, 361621, Control_c, 0, 64, 68
2, 361641, Control_c, 0, 64, 76
2, 361660, Control_c, 0, 64, 95
2, 361679, Control_c, 0, 64, 127
2, 361846, Note_on_c, 0, 59, 0
2, 361846, Note_on_c, 0, 61, 64
2, 361856, Note_on_c, 0, 65, 67
2, 361928, Note_on_c, 0, 70, 0
2, 362023, Note_on_c, 0, 61, 0
2, 362258, Control_c, 0, 64, 102
2, 362262, Note_on_c, 0, 46, 55
2, 362272, Note_on_c, 0, 63, 70
2, 362275, Note_on_c, 0, 67, 66
2, 362278, Control_c, 0, 64, 75
2, 362296, Control_c, 0, 64, 60
2, 362312, Note_on_c, 0, 65, 0
2, 362316, Control_c, 0, 64, 21
2, 362317, Note_on_c, 0, 44, 0
2, 362335, Control_c, 0, 64, 0
2, 362370, Control_c, 0, 64, 27
2, 362390, Control_c, 0, 64, 50
2, 362409, Control_c, 0, 64, 62
2, 362429, Control_c, 0, 64, 66
2, 362447, Control_c, 0, 64, 72
2, 362467, Control_c, 0, 64, 85
2, 362486, Control_c, 0, 64, 127
2, 362651, Note_on_c, 0, 64, 76
2, 362666, Note_on_c, 0, 46, 0
2, 362677, Note_on_c, 0, 63, 0
2, 363032, Note_on_c, 0, 47, 57
2, 363043, Control_c, 0, 64, 82
2, 363044, Note_on_c, 0, 63, 75
2, 363061, Control_c, 0, 64, 65
2, 363064, Note_on_c, 0, 68, 63
2, 363073, Note_on_c, 0, 64, 0
2, 363081, Control_c, 0, 64, 42
2, 363100, Control_c, 0, 64, 23
2, 363121, Note_on_c, 0, 67, 0
2, 363138, Control_c, 0, 64, 34
2, 363158, Control_c, 0, 64, 52
2, 363177, Control_c, 0, 64, 64
2, 363196, Control_c, 0, 64, 69
2, 363204, Note_on_c, 0, 68, 0
2, 363215, Control_c, 0, 64, 77
2, 363235, Control_c, 0, 64, 98
2, 363253, Control_c, 0, 64, 127
2, 363316, Note_on_c, 0, 63, 0
2, 363438, Note_on_c, 0, 49, 65
2, 363457, Note_on_c, 0, 47, 0
2, 363858, Note_on_c, 0, 80, 83
2, 363868, Note_on_c, 0, 56, 48
2, 363870, Note_on_c, 0, 47, 57
2, 363874, Control_c, 0, 64, 99
2, 363893, Control_c, 0, 64, 72
2, 363904, Note_on_c, 0, 49, 0
2, 363912, Control_c, 0, 64, 56
2, 363932, Control_c, 0, 64, 0
2, 363989, Control_c, 0, 64, 27
2, 364009, Control_c, 0, 64, 53
2, 364027, Control_c, 0, 64, 63
2, 364046, Control_c, 0, 64, 67
2, 364066, Control_c, 0, 64, 73
2, 364084, Control_c, 0, 64, 83
2, 364104, Control_c, 0, 64, 102
2, 364123, Control_c, 0, 64, 127
2, 364285, Note_on_c, 0, 47, 0
2, 364290, Note_on_c, 0, 46, 60
2, 364662, Control_c, 0, 64, 92
2, 364681, Control_c, 0, 64, 70
2, 364694, Note_on_c, 0, 44, 55
2, 364700, Control_c, 0, 64, 48
2, 364706, Note_on_c, 0, 75, 72
2, 364717, Note_on_c, 0, 46, 0
2, 364719, Control_c, 0, 64, 0
2, 364758, Control_c, 0, 64, 15
2, 364777, Control_c, 0, 64, 42
2, 364796, Control_c, 0, 64, 59
2, 364816, Control_c, 0, 64, 65
2, 364834, Control_c, 0, 64, 72
2, 364854, Control_c, 0, 64, 83
2, 364861, Note_on_c, 0, 56, 0
2, 364873, Control_c, 0, 64, 103
2, 364893, Control_c, 0, 64, 127
2, 365063, Note_on_c, 0, 46, 62
2, 365064, Note_on_c, 0, 55, 54
2, 365084, Note_on_c, 0, 44, 0
2, 365155, Note_on_c, 0, 55, 0
2, 365275, Note_on_c, 0, 46, 0
2, 365428, Control_c, 0, 64, 86
2, 365447, Control_c, 0, 64, 68
2, 365450, Note_on_c, 0, 47, 63
2, 365466, Control_c, 0, 64, 55
2, 365473, Note_on_c, 0, 56, 57
2, 365485, Control_c, 0, 64, 46
2, 365505, Control_c, 0, 64, 48
2, 365524, Control_c, 0, 64, 56
2, 365543, Control_c, 0, 64, 63
2, 365562, Control_c, 0, 64, 67
2, 365582, Control_c, 0, 64, 73
2, 365600, Control_c, 0, 64, 85
2, 365619, Note_on_c, 0, 56, 0
2, 365620, Control_c, 0, 64, 112
2, 365639, Control_c, 0, 64, 127
2, 365785, Note_on_c, 0, 58, 51
2, 365792, Note_on_c, 0, 73, 79
2, 365796, Note_on_c, 0, 52, 53
2, 365851, Note_on_c, 0, 75, 0
2, 365931, Note_on_c, 0, 52, 0
2, 365935, Note_on_c, 0, 49, 66
2, 365946, Note_on_c, 0, 58, 0
2, 366073, Note_on_c, 0, 47, 0
2, 366154, Control_c, 0, 64, 84
2, 366172, Note_on_c, 0, 59, 55
2, 366174, Control_c, 0, 64, 66
2, 366181, Note_on_c, 0, 56, 51
2, 366188, Note_on_c, 0, 75, 85
2, 366193, Control_c, 0, 64, 42
2, 366212, Control_c, 0, 64, 26
2, 366232, Note_on_c, 0, 80, 0
2, 366250, Control_c, 0, 64, 32
2, 366269, Control_c, 0, 64, 48
2, 366271, Note_on_c, 0, 73, 0
2, 366288, Control_c, 0, 64, 60
2, 366307, Control_c, 0, 64, 65
2, 366314, Note_on_c, 0, 59, 0
2, 366327, Control_c, 0, 64, 70
2, 366346, Control_c, 0, 64, 79
2, 366365, Control_c, 0, 64, 97
2, 366384, Control_c, 0, 64, 127
2, 366563, Note_on_c, 0, 56, 0
2, 366586, Note_on_c, 0, 58, 67
2, 366738, Note_on_c, 0, 58, 0
2, 366944, Control_c, 0, 64, 103
2, 366963, Control_c, 0, 64, 76
2, 366968, Note_on_c, 0, 49, 0
2, 366969, Note_on_c, 0, 47, 66
2, 366976, Note_on_c, 0, 56, 63
2, 366982, Control_c, 0, 64, 63
2, 367002, Control_c, 0, 64, 48
2, 367021, Control_c, 0, 64, 46
2, 367040, Control_c, 0, 64, 51
2, 367059, Control_c, 0, 64, 59
2, 367079, Control_c, 0, 64, 64
2, 367097, Control_c, 0, 64, 69
2, 367116, Control_c, 0, 64, 77
2, 367136, Control_c, 0, 64, 95
2, 367155, Control_c, 0, 64, 127
2, 367346, Note_on_c, 0, 49, 58
2, 367349, Note_on_c, 0, 77, 80
2, 367355, Note_on_c, 0, 47, 0
2, 367395, Note_on_c, 0, 56, 0
2, 367412, Note_on_c, 0, 75, 0
2, 367437, Note_on_c, 0, 49, 0
2, 367729, Control_c, 0, 64, 117
2, 367748, Control_c, 0, 64, 80
2, 367768, Control_c, 0, 64, 65
2, 367768, Note_on_c, 0, 63, 57
2, 367773, Note_on_c, 0, 51, 46
2, 367774, Note_on_c, 0, 78, 79
2, 367786, Control_c, 0, 64, 52
2, 367806, Control_c, 0, 64, 49
2, 367825, Control_c, 0, 64, 53
2, 367845, Control_c, 0, 64, 61
2, 367847, Note_on_c, 0, 77, 0
2, 367863, Control_c, 0, 64, 65
2, 367883, Control_c, 0, 64, 71
2, 367902, Control_c, 0, 64, 82
2, 367922, Control_c, 0, 64, 108
2, 367940, Control_c, 0, 64, 127
2, 368036, Note_on_c, 0, 51, 0
2, 368135, Note_on_c, 0, 63, 0
2, 368176, Note_on_c, 0, 50, 59
2, 368516, Control_c, 0, 64, 98
2, 368536, Control_c, 0, 64, 70
2, 368554, Control_c, 0, 64, 54
2, 368574, Control_c, 0, 64, 29
2, 368582, Note_on_c, 0, 58, 57
2, 368587, Note_on_c, 0, 51, 53
2, 368590, Note_on_c, 0, 50, 0
2, 368593, Control_c, 0, 64, 29
2, 368609, Control_c, 0, 64, 32
2, 368629, Control_c, 0, 64, 47
2, 368648, Control_c, 0, 64, 60
2, 368668, Control_c, 0, 64, 66
2, 368686, Control_c, 0, 64, 73
2, 368705, Control_c, 0, 64, 84
2, 368725, Control_c, 0, 64, 110
2, 368743, Control_c, 0, 64, 127
2, 368953, Note_on_c, 0, 77, 78
2, 368958, Note_on_c, 0, 53, 55
2, 368959, Note_on_c, 0, 51, 0
2, 369033, Note_on_c, 0, 78, 0
2, 369300, Note_on_c, 0, 53, 0
2, 369301, Control_c, 0, 64, 89
2, 369321, Control_c, 0, 64, 69
2, 369323, Note_on_c, 0, 54, 56
2, 369337, Note_on_c, 0, 75, 76
2, 369340, Control_c, 0, 64, 55
2, 369359, Control_c, 0, 64, 44
2, 369360, Note_on_c, 0, 77, 0
2, 369378, Control_c, 0, 64, 45
2, 369398, Control_c, 0, 64, 54
2, 369417, Control_c, 0, 64, 62
2, 369436, Control_c, 0, 64, 66
2, 369455, Control_c, 0, 64, 72
2, 369475, Control_c, 0, 64, 83
2, 369493, Control_c, 0, 64, 127
2, 369516, Note_on_c, 0, 54, 0
2, 369569, Note_on_c, 0, 58, 0
2, 369697, Note_on_c, 0, 59, 56
2, 369736, Note_on_c, 0, 56, 46
2, 369776, Note_on_c, 0, 59, 0
2, 370049, Control_c, 0, 64, 107
2, 370069, Control_c, 0, 64, 77
2, 370088, Control_c, 0, 64, 62
2, 370108, Control_c, 0, 64, 40
2, 370108, Note_on_c, 0, 56, 0
2, 370109, Note_on_c, 0, 61, 40
2, 370116, Note_on_c, 0, 52, 38
2, 370118, Note_on_c, 0, 82, 77
2, 370126, Control_c, 0, 64, 33
2, 370145, Control_c, 0, 64, 34
2, 370165, Control_c, 0, 64, 43
2, 370169, Note_on_c, 0, 75, 0
2, 370183, Control_c, 0, 64, 57
2, 370203, Control_c, 0, 64, 63
2, 370222, Control_c, 0, 64, 67
2, 370242, Control_c, 0, 64, 72
2, 370260, Control_c, 0, 64, 81
2, 370280, Control_c, 0, 64, 99
2, 370299, Control_c, 0, 64, 127
2, 370515, Note_on_c, 0, 55, 46
2, 370546, Note_on_c, 0, 61, 0
2, 370649, Note_on_c, 0, 52, 0
2, 370856, Control_c, 0, 64, 84
2, 370875, Control_c, 0, 64, 65
2, 370894, Control_c, 0, 64, 48
2, 370899, Note_on_c, 0, 55, 0
2, 370900, Note_on_c, 0, 75, 66
2, 370912, Note_on_c, 0, 56, 46
2, 370914, Control_c, 0, 64, 41
2, 370952, Control_c, 0, 64, 49
2, 370971, Control_c, 0, 64, 58
2, 370991, Control_c, 0, 64, 64
2, 371009, Control_c, 0, 64, 68
2, 371029, Control_c, 0, 64, 74
2, 371048, Control_c, 0, 64, 85
2, 371068, Control_c, 0, 64, 111
2, 371086, Control_c, 0, 64, 127
2, 371309, Note_on_c, 0, 56, 0
2, 371309, Note_on_c, 0, 73, 57
2, 371338, Note_on_c, 0, 82, 0
2, 371346, Note_on_c, 0, 58, 32
2, 371643, Control_c, 0, 64, 111
2, 371653, Note_on_c, 0, 75, 0
2, 371662, Control_c, 0, 64, 79
2, 371673, Note_on_c, 0, 71, 60
2, 371682, Control_c, 0, 64, 65
2, 371682, Note_on_c, 0, 73, 0
2, 371695, Note_on_c, 0, 56, 45
2, 371700, Control_c, 0, 64, 53
2, 371720, Control_c, 0, 64, 53
2, 371739, Control_c, 0, 64, 58
2, 371750, Note_on_c, 0, 58, 0
2, 371759, Control_c, 0, 64, 63
2, 371777, Control_c, 0, 64, 66
2, 371797, Control_c, 0, 64, 71
2, 371816, Control_c, 0, 64, 80
2, 371835, Control_c, 0, 64, 102
2, 371854, Control_c, 0, 64, 127
2, 372017, Note_on_c, 0, 71, 0
2, 372079, Note_on_c, 0, 54, 49
2, 372081, Note_on_c, 0, 75, 68
2, 372083, Note_on_c, 0, 70, 63
2, 372093, Note_on_c, 0, 56, 0
2, 372483, Note_on_c, 0, 70, 0
2, 372486, Note_on_c, 0, 74, 69
2, 372489, Control_c, 0, 64, 91
2, 372491, Note_on_c, 0, 68, 71
2, 372496, Note_on_c, 0, 53, 59
2, 372500, Note_on_c, 0, 54, 0
2, 372509, Control_c, 0, 64, 69
2, 372527, Control_c, 0, 64, 53
2, 372540, Note_on_c, 0, 75, 0
2, 372546, Control_c, 0, 64, 44
2, 372566, Control_c, 0, 64, 44
2, 372584, Control_c, 0, 64, 53
2, 372604, Control_c, 0, 64, 62
2, 372623, Control_c, 0, 64, 66
2, 372643, Control_c, 0, 64, 71
2, 372661, Control_c, 0, 64, 83
2, 372677, Note_on_c, 0, 68, 0
2, 372681, Control_c, 0, 64, 104
2, 372700, Control_c, 0, 64, 127
2, 372881, Note_on_c, 0, 66, 72
2, 372884, Note_on_c, 0, 51, 60
2, 372888, Note_on_c, 0, 75, 79
2, 372923, Note_on_c, 0, 53, 0
2, 372950, Note_on_c, 0, 74, 0
2, 373014, Note_on_c, 0, 75, 0
2, 373033, Note_on_c, 0, 66, 0
2, 373238, Control_c, 0, 64, 106
2, 373257, Control_c, 0, 64, 76
2, 373272, Note_on_c, 0, 50, 68
2, 373273, Note_on_c, 0, 77, 77
2, 373281, Control_c, 0, 64, 62
2, 373285, Note_on_c, 0, 68, 68
2, 373300, Control_c, 0, 64, 43
2, 373308, Note_on_c, 0, 51, 0
2, 373319, Control_c, 0, 64, 41
2, 373338, Control_c, 0, 64, 47
2, 373358, Control_c, 0, 64, 61
2, 373377, Control_c, 0, 64, 67
2, 373396, Control_c, 0, 64, 74
2, 373415, Control_c, 0, 64, 91
2, 373435, Control_c, 0, 64, 127
2, 373649, Note_on_c, 0, 74, 74
2, 373649, Note_on_c, 0, 77, 0
2, 373658, Note_on_c, 0, 59, 57
2, 373660, Note_on_c, 0, 65, 72
2, 373668, Note_on_c, 0, 68, 0
2, 373742, Note_on_c, 0, 65, 0
2, 373874, Note_on_c, 0, 50, 0
2, 374011, Control_c, 0, 64, 103
2, 374031, Control_c, 0, 64, 75
2, 374032, Note_on_c, 0, 59, 0
2, 374034, Note_on_c, 0, 74, 0
2, 374044, Note_on_c, 0, 66, 79
2, 374046, Note_on_c, 0, 58, 60
2, 374047, Note_on_c, 0, 75, 77
2, 374050, Control_c, 0, 64, 59
2, 374069, Control_c, 0, 64, 47
2, 374088, Control_c, 0, 64, 48
2, 374108, Control_c, 0, 64, 56
2, 374127, Control_c, 0, 64, 63
2, 374145, Control_c, 0, 64, 67
2, 374165, Control_c, 0, 64, 75
2, 374166, Note_on_c, 0, 66, 0
2, 374175, Note_on_c, 0, 75, 0
2, 374184, Control_c, 0, 64, 96
2, 374204, Control_c, 0, 64, 127
2, 374410, Control_c, 0, 64, 111
2, 374422, Note_on_c, 0, 77, 79
2, 374425, Note_on_c, 0, 56, 73
2, 374429, Control_c, 0, 64, 82
2, 374448, Control_c, 0, 64, 67
2, 374465, Note_on_c, 0, 58, 0
2, 374467, Control_c, 0, 64, 64
2, 374467, Note_on_c, 0, 68, 46
2, 374485, Note_on_c, 0, 70, 39
2, 374487, Control_c, 0, 64, 64
2, 374505, Control_c, 0, 64, 66
2, 374519, Note_on_c, 0, 68, 0
2, 374525, Control_c, 0, 64, 70
2, 374537, Note_on_c, 0, 70, 0
2, 374544, Control_c, 0, 64, 76
2, 374564, Control_c, 0, 64, 88
2, 374582, Control_c, 0, 64, 127
2, 374774, Control_c, 0, 64, 90
2, 374794, Control_c, 0, 64, 69
2, 374796, Note_on_c, 0, 77, 0
2, 374800, Note_on_c, 0, 78, 80
2, 374804, Note_on_c, 0, 70, 81
2, 374810, Note_on_c, 0, 54, 69
2, 374813, Control_c, 0, 64, 58
2, 374819, Note_on_c, 0, 56, 0
2, 374833, Control_c, 0, 64, 54
2, 374851, Control_c, 0, 64, 57
2, 374871, Control_c, 0, 64, 63
2, 374890, Control_c, 0, 64, 68
2, 374909, Control_c, 0, 64, 77
2, 374928, Control_c, 0, 64, 100
2, 374947, Control_c, 0, 64, 127
2, 375011, Note_on_c, 0, 70, 0
2, 375159, Control_c, 0, 64, 83
2, 375178, Control_c, 0, 64, 66
2, 375195, Control_c, 0, 64, 57
2, 375200, Note_on_c, 0, 80, 85
2, 375202, Note_on_c, 0, 54, 0
2, 375208, Note_on_c, 0, 68, 74
2, 375209, Note_on_c, 0, 53, 72
2, 375234, Control_c, 0, 64, 61
2, 375241, Note_on_c, 0, 78, 0
2, 375253, Control_c, 0, 64, 65
2, 375272, Control_c, 0, 64, 72
2, 375291, Control_c, 0, 64, 89
2, 375306, Note_on_c, 0, 80, 0
2, 375311, Control_c, 0, 64, 127
2, 375336, Note_on_c, 0, 68, 0
2, 375563, Control_c, 0, 64, 87
2, 375582, Control_c, 0, 64, 67
2, 375602, Control_c, 0, 64, 54
2, 375602, Note_on_c, 0, 82, 84
2, 375613, Note_on_c, 0, 51, 73
2, 375620, Control_c, 0, 64, 50
2, 375640, Control_c, 0, 64, 54
2, 375659, Control_c, 0, 64, 62
2, 375668, Note_on_c, 0, 53, 0
2, 375677, Control_c, 0, 64, 68
2, 375692, Note_on_c, 0, 82, 0
2, 375697, Control_c, 0, 64, 79
2, 375716, Control_c, 0, 64, 110
2, 375736, Control_c, 0, 64, 127
2, 375965, Control_c, 0, 64, 108
2, 375965, Note_on_c, 0, 70, 78
2, 375975, Note_on_c, 0, 49, 78
2, 375978, Note_on_c, 0, 66, 68
2, 375984, Control_c, 0, 64, 73
2, 376004, Control_c, 0, 64, 55
2, 376007, Note_on_c, 0, 51, 0
2, 376022, Control_c, 0, 64, 33
2, 376042, Control_c, 0, 64, 34
2, 376061, Control_c, 0, 64, 49
2, 376081, Control_c, 0, 64, 63
2, 376099, Control_c, 0, 64, 74
2, 376118, Control_c, 0, 64, 100
2, 376138, Control_c, 0, 64, 127
2, 376139, Note_on_c, 0, 65, 64
2, 376170, Note_on_c, 0, 66, 0
2, 376310, Control_c, 0, 64, 78
2, 376330, Control_c, 0, 64, 60
2, 376349, Control_c, 0, 64, 27
2, 376368, Control_c, 0, 64, 23
2, 376387, Control_c, 0, 64, 41
2, 376390, Note_on_c, 0, 66, 73
2, 376391, Note_on_c, 0, 47, 77
2, 376396, Note_on_c, 0, 75, 77
2, 376403, Note_on_c, 0, 70, 0
2, 376407, Control_c, 0, 64, 60
2, 376425, Note_on_c, 0, 49, 0
2, 376426, Control_c, 0, 64, 68
2, 376445, Control_c, 0, 64, 81
2, 376464, Control_c, 0, 64, 127
2, 376498, Note_on_c, 0, 66, 0
2, 376553, Note_on_c, 0, 75, 0
2, 376577, Note_on_c, 0, 47, 0
2, 376767, Note_on_c, 0, 65, 0
2, 376798, Note_on_c, 0, 77, 76
2, 376802, Note_on_c, 0, 68, 82
2, 376899, Note_on_c, 0, 77, 0
2, 377212, Note_on_c, 0, 46, 72
2, 377232, Note_on_c, 0, 74, 76
2, 377244, Note_on_c, 0, 70, 82
2, 377252, Control_c, 0, 64, 90
2, 377271, Control_c, 0, 64, 64
2, 377291, Control_c, 0, 64, 0
2, 377314, Note_on_c, 0, 68, 0
2, 377368, Control_c, 0, 64, 24
2, 377386, Control_c, 0, 64, 61
2, 377406, Control_c, 0, 64, 71
2, 377425, Control_c, 0, 64, 95
2, 377432, Note_on_c, 0, 74, 0
2, 377445, Control_c, 0, 64, 127
2, 377581, Note_on_c, 0, 70, 0
2, 378108, Note_on_c, 0, 51, 63
2, 378113, Note_on_c, 0, 58, 81
2, 378352, Note_on_c, 0, 46, 0
2, 378843, Note_on_c, 0, 70, 87
2, 378847, Control_c, 0, 64, 86
2, 378849, Note_on_c, 0, 63, 69
2, 378866, Control_c, 0, 64, 64
2, 378886, Control_c, 0, 64, 0
2, 378962, Control_c, 0, 64, 43
2, 378981, Control_c, 0, 64, 63
2, 378993, Note_on_c, 0, 58, 0
2, 379001, Control_c, 0, 64, 73
2, 379020, Control_c, 0, 64, 94
2, 379038, Control_c, 0, 64, 127
2, 379101, Note_on_c, 0, 63, 0
2, 379236, Note_on_c, 0, 52, 71
2, 379249, Note_on_c, 0, 70, 0
2, 379323, Note_on_c, 0, 51, 0
2, 379660, Note_on_c, 0, 51, 64
2, 379671, Note_on_c, 0, 75, 86
2, 379692, Control_c, 0, 64, 104
2, 379711, Control_c, 0, 64, 73
2, 379730, Control_c, 0, 64, 55
2, 379731, Note_on_c, 0, 52, 0
2, 379749, Control_c, 0, 64, 0
2, 379787, Control_c, 0, 64, 13
2, 379807, Control_c, 0, 64, 52
2, 379826, Control_c, 0, 64, 64
2, 379846, Control_c, 0, 64, 71
2, 379864, Control_c, 0, 64, 84
2, 379884, Control_c, 0, 64, 127
2, 380049, Note_on_c, 0, 49, 75
2, 380062, Note_on_c, 0, 64, 84
2, 380125, Note_on_c, 0, 51, 0
2, 380236, Note_on_c, 0, 64, 0
2, 380451, Note_on_c, 0, 47, 69
2, 380473, Note_on_c, 0, 49, 0
2, 380478, Control_c, 0, 64, 95
2, 380488, Note_on_c, 0, 63, 86
2, 380498, Control_c, 0, 64, 66
2, 380517, Control_c, 0, 64, 39
2, 380537, Control_c, 0, 64, 0
2, 380575, Control_c, 0, 64, 41
2, 380594, Control_c, 0, 64, 63
2, 380611, Note_on_c, 0, 47, 0
2, 380612, Control_c, 0, 64, 72
2, 380612, Note_on_c, 0, 75, 0
2, 380631, Control_c, 0, 64, 95
2, 380651, Control_c, 0, 64, 127
2, 380855, Note_on_c, 0, 76, 87
2, 380861, Note_on_c, 0, 49, 65
2, 380870, Note_on_c, 0, 61, 64
2, 380904, Note_on_c, 0, 63, 0
2, 381019, Note_on_c, 0, 49, 0
2, 381074, Note_on_c, 0, 61, 0
2, 381226, Note_on_c, 0, 51, 62
2, 381235, Note_on_c, 0, 59, 67
2, 381243, Note_on_c, 0, 75, 88
2, 381246, Control_c, 0, 64, 78
2, 381265, Control_c, 0, 64, 59
2, 381285, Control_c, 0, 64, 0
2, 381300, Note_on_c, 0, 76, 0
2, 381362, Control_c, 0, 64, 44
2, 381380, Control_c, 0, 64, 63
2, 381399, Control_c, 0, 64, 70
2, 381419, Control_c, 0, 64, 82
2, 381437, Control_c, 0, 64, 127
2, 381578, Note_on_c, 0, 59, 0
2, 381607, Note_on_c, 0, 61, 60
2, 381620, Note_on_c, 0, 73, 81
2, 381671, Note_on_c, 0, 61, 0
2, 381687, Note_on_c, 0, 75, 0
2, 381688, Note_on_c, 0, 51, 0
2, 381767, Note_on_c, 0, 73, 0
2, 381989, Note_on_c, 0, 44, 69
2, 382014, Note_on_c, 0, 71, 82
2, 382027, Note_on_c, 0, 63, 71
2, 382052, Control_c, 0, 64, 83
2, 382070, Control_c, 0, 64, 63
2, 382090, Control_c, 0, 64, 0
2, 382186, Control_c, 0, 64, 51
2, 382205, Control_c, 0, 64, 64
2, 382224, Control_c, 0, 64, 71
2, 382244, Control_c, 0, 64, 81
2, 382262, Control_c, 0, 64, 102
2, 382282, Control_c, 0, 64, 127
2, 382386, Note_on_c, 0, 46, 73
2, 382420, Note_on_c, 0, 73, 85
2, 382456, Note_on_c, 0, 44, 0
2, 382456, Note_on_c, 0, 71, 0
2, 382494, Note_on_c, 0, 46, 0
2, 382797, Note_on_c, 0, 47, 60
2, 382798, Note_on_c, 0, 75, 84
2, 382820, Control_c, 0, 64, 92
2, 382829, Note_on_c, 0, 56, 50
2, 382839, Control_c, 0, 64, 67
2, 382859, Control_c, 0, 64, 34
2, 382874, Note_on_c, 0, 73, 0
2, 382877, Control_c, 0, 64, 0
2, 382974, Control_c, 0, 64, 45
2, 382993, Control_c, 0, 64, 62
2, 383012, Control_c, 0, 64, 67
2, 383031, Control_c, 0, 64, 74
2, 383051, Control_c, 0, 64, 86
2, 383070, Control_c, 0, 64, 107
2, 383089, Control_c, 0, 64, 127
2, 383185, Note_on_c, 0, 54, 68
2, 383251, Note_on_c, 0, 56, 0
2, 383565, Note_on_c, 0, 53, 58
2, 383567, Control_c, 0, 64, 92
2, 383567, Note_on_c, 0, 49, 76
2, 383572, Note_on_c, 0, 68, 69
2, 383582, Note_on_c, 0, 47, 0
2, 383586, Control_c, 0, 64, 69
2, 383606, Control_c, 0, 64, 50
2, 383610, Note_on_c, 0, 54, 0
2, 383625, Control_c, 0, 64, 0
2, 383672, Note_on_c, 0, 75, 0
2, 383683, Control_c, 0, 64, 42
2, 383702, Control_c, 0, 64, 61
2, 383720, Control_c, 0, 64, 68
2, 383740, Control_c, 0, 64, 76
2, 383759, Control_c, 0, 64, 94
2, 383778, Control_c, 0, 64, 127
2, 383859, Note_on_c, 0, 49, 0
2, 383947, Note_on_c, 0, 70, 67
2, 384012, Note_on_c, 0, 68, 0
2, 384138, Note_on_c, 0, 71, 65
2, 384150, Note_on_c, 0, 63, 0
2, 384167, Note_on_c, 0, 70, 0
2, 384316, Control_c, 0, 64, 97
2, 384322, Note_on_c, 0, 61, 75
2, 384328, Note_on_c, 0, 42, 61
2, 384336, Control_c, 0, 64, 73
2, 384349, Note_on_c, 0, 70, 61
2, 384355, Control_c, 0, 64, 50
2, 384375, Control_c, 0, 64, 0
2, 384391, Note_on_c, 0, 71, 0
2, 384470, Control_c, 0, 64, 46
2, 384488, Note_on_c, 0, 53, 0
2, 384490, Control_c, 0, 64, 63
2, 384509, Control_c, 0, 64, 68
2, 384528, Control_c, 0, 64, 76
2, 384547, Control_c, 0, 64, 90
2, 384567, Control_c, 0, 64, 127
2, 384732, Note_on_c, 0, 71, 74
2, 384770, Note_on_c, 0, 70, 0
2, 385111, Note_on_c, 0, 54, 51
2, 385143, Control_c, 0, 64, 87
2, 385160, Note_on_c, 0, 73, 80
2, 385163, Control_c, 0, 64, 67
2, 385182, Control_c, 0, 64, 39
2, 385202, Control_c, 0, 64, 0
2, 385208, Note_on_c, 0, 42, 0
2, 385233, Note_on_c, 0, 71, 0
2, 385239, Control_c, 0, 64, 27
2, 385259, Control_c, 0, 64, 52
2, 385277, Control_c, 0, 64, 63
2, 385297, Control_c, 0, 64, 68
2, 385316, Control_c, 0, 64, 78
2, 385336, Control_c, 0, 64, 94
2, 385354, Control_c, 0, 64, 127
2, 385514, Note_on_c, 0, 41, 57
2, 385726, Note_on_c, 0, 54, 0
2, 385872, Control_c, 0, 64, 107
2, 385892, Control_c, 0, 64, 76
2, 385910, Control_c, 0, 64, 61
2, 385915, Note_on_c, 0, 42, 56
2, 385926, Note_on_c, 0, 66, 72
2, 385928, Note_on_c, 0, 41, 0
2, 385930, Control_c, 0, 64, 29
2, 385949, Control_c, 0, 64, 15
2, 385968, Control_c, 0, 64, 17
2, 385987, Control_c, 0, 64, 36
2, 386007, Control_c, 0, 64, 57
2, 386026, Control_c, 0, 64, 64
2, 386045, Control_c, 0, 64, 69
2, 386064, Control_c, 0, 64, 79
2, 386084, Control_c, 0, 64, 101
2, 386102, Control_c, 0, 64, 127
2, 386122, Note_on_c, 0, 73, 0
2, 386298, Note_on_c, 0, 42, 0
2, 386326, Note_on_c, 0, 44, 63
2, 386336, Note_on_c, 0, 53, 62
2, 386400, Note_on_c, 0, 53, 0
2, 386435, Note_on_c, 0, 44, 0
2, 386645, Note_on_c, 0, 61, 0
2, 386651, Note_on_c, 0, 66, 0
2, 386711, Note_on_c, 0, 54, 67
2, 386713, Note_on_c, 0, 46, 65
2, 386738, Control_c, 0, 64, 96
2, 386757, Control_c, 0, 64, 69
2, 386777, Control_c, 0, 64, 46
2, 386795, Control_c, 0, 64, 0
2, 386834, Control_c, 0, 64, 24
2, 386853, Control_c, 0, 64, 55
2, 386872, Control_c, 0, 64, 65
2, 386892, Control_c, 0, 64, 73
2, 386911, Control_c, 0, 64, 88
2, 386930, Control_c, 0, 64, 127
2, 387080, Note_on_c, 0, 56, 72
2, 387084, Note_on_c, 0, 65, 69
2, 387103, Control_c, 0, 64, 92
2, 387106, Note_on_c, 0, 44, 57
2, 387116, Note_on_c, 0, 46, 0
2, 387122, Control_c, 0, 64, 72
2, 387141, Control_c, 0, 64, 62
2, 387160, Control_c, 0, 64, 57
2, 387180, Control_c, 0, 64, 60
2, 387194, Note_on_c, 0, 54, 0
2, 387198, Control_c, 0, 64, 63
2, 387218, Control_c, 0, 64, 66
2, 387236, Note_on_c, 0, 56, 0
2, 387237, Control_c, 0, 64, 72
2, 387257, Control_c, 0, 64, 80
2, 387275, Control_c, 0, 64, 95
2, 387295, Control_c, 0, 64, 127
2, 387450, Control_c, 0, 64, 83
2, 387468, Control_c, 0, 64, 65
2, 387477, Note_on_c, 0, 44, 0
2, 387480, Note_on_c, 0, 42, 51
2, 387482, Note_on_c, 0, 58, 60
2, 387488, Control_c, 0, 64, 43
2, 387490, Note_on_c, 0, 66, 72
2, 387507, Control_c, 0, 64, 25
2, 387527, Control_c, 0, 64, 29
2, 387539, Note_on_c, 0, 65, 0
2, 387545, Control_c, 0, 64, 48
2, 387565, Control_c, 0, 64, 61
2, 387584, Control_c, 0, 64, 66
2, 387602, Note_on_c, 0, 58, 0
2, 387603, Control_c, 0, 64, 71
2, 387622, Control_c, 0, 64, 81
2, 387640, Control_c, 0, 64, 96
2, 387658, Control_c, 0, 64, 127
2, 387809, Control_c, 0, 64, 87
2, 387828, Control_c, 0, 64, 69
2, 387837, Note_on_c, 0, 42, 0
2, 387848, Control_c, 0, 64, 60
2, 387858, Note_on_c, 0, 68, 83
2, 387867, Control_c, 0, 64, 56
2, 387868, Note_on_c, 0, 52, 43
2, 387878, Note_on_c, 0, 56, 58
2, 387886, Control_c, 0, 64, 60
2, 387905, Control_c, 0, 64, 64
2, 387925, Control_c, 0, 64, 70
2, 387943, Control_c, 0, 64, 81
2, 387953, Note_on_c, 0, 66, 0
2, 387963, Control_c, 0, 64, 110
2, 387982, Control_c, 0, 64, 127
2, 387989, Note_on_c, 0, 68, 0
2, 388020, Note_on_c, 0, 56, 0
2, 388251, Control_c, 0, 64, 88
2, 388264, Note_on_c, 0, 70, 81
2, 388265, Note_on_c, 0, 51, 47
2, 388271, Control_c, 0, 64, 66
2, 388280, Note_on_c, 0, 52, 0
2, 388280, Note_on_c, 0, 54, 42
2, 388289, Control_c, 0, 64, 35
2, 388308, Control_c, 0, 64, 0
2, 388366, Control_c, 0, 64, 37
2, 388385, Control_c, 0, 64, 58
2, 388405, Control_c, 0, 64, 65
2, 388424, Control_c, 0, 64, 69
2, 388443, Control_c, 0, 64, 76
2, 388462, Control_c, 0, 64, 86
2, 388482, Control_c, 0, 64, 104
2, 388500, Control_c, 0, 64, 127
2, 388647, Note_on_c, 0, 68, 77
2, 389001, Control_c, 0, 64, 103
2, 389006, Note_on_c, 0, 54, 0
2, 389020, Control_c, 0, 64, 76
2, 389039, Control_c, 0, 64, 56
2, 389046, Note_on_c, 0, 66, 68
2, 389055, Note_on_c, 0, 59, 41
2, 389058, Control_c, 0, 64, 0
2, 389116, Control_c, 0, 64, 9
2, 389132, Note_on_c, 0, 70, 0
2, 389135, Control_c, 0, 64, 47
2, 389155, Control_c, 0, 64, 62
2, 389159, Note_on_c, 0, 68, 0
2, 389174, Control_c, 0, 64, 68
2, 389193, Control_c, 0, 64, 75
2, 389212, Control_c, 0, 64, 88
2, 389232, Control_c, 0, 64, 111
2, 389249, Control_c, 0, 64, 127
2, 389305, Note_on_c, 0, 66, 0
2, 389361, Note_on_c, 0, 59, 0
2, 389439, Note_on_c, 0, 58, 52
2, 389497, Note_on_c, 0, 58, 0
2, 389824, Note_on_c, 0, 56, 54
2, 389836, Note_on_c, 0, 51, 0
2, 389848, Note_on_c, 0, 76, 79
2, 389922, Control_c, 0, 64, 101
2, 389940, Control_c, 0, 64, 86
2, 389960, Control_c, 0, 64, 74
2, 389979, Control_c, 0, 64, 66
2, 389999, Control_c, 0, 64, 58
2, 390017, Control_c, 0, 64, 51
2, 390037, Control_c, 0, 64, 48
2, 390056, Control_c, 0, 64, 47
2, 390075, Control_c, 0, 64, 45
2, 390094, Control_c, 0, 64, 43
2, 390114, Control_c, 0, 64, 38
2, 390133, Control_c, 0, 64, 31
2, 390152, Control_c, 0, 64, 27
2, 390171, Control_c, 0, 64, 24
2, 390190, Control_c, 0, 64, 23
2, 390228, Control_c, 0, 64, 22
2, 390245, Note_on_c, 0, 49, 53
2, 390267, Control_c, 0, 64, 21
2, 390286, Control_c, 0, 64, 20
2, 390305, Control_c, 0, 64, 19
2, 390344, Control_c, 0, 64, 18
2, 390363, Control_c, 0, 64, 17
2, 390536, Control_c, 0, 64, 15
2, 390611, Control_c, 0, 64, 13
2, 390658, Note_on_c, 0, 73, 69
2, 390664, Note_on_c, 0, 47, 45
2, 390675, Note_on_c, 0, 49, 0
2, 390764, Control_c, 0, 64, 15
2, 390783, Control_c, 0, 64, 18
2, 390803, Control_c, 0, 64, 24
2, 390822, Control_c, 0, 64, 34
2, 390841, Control_c, 0, 64, 42
2, 390860, Control_c, 0, 64, 48
2, 390880, Control_c, 0, 64, 52
2, 390899, Control_c, 0, 64, 56
2, 390918, Control_c, 0, 64, 59
2, 390937, Control_c, 0, 64, 62
2, 390957, Control_c, 0, 64, 65
2, 390975, Control_c, 0, 64, 68
2, 390995, Control_c, 0, 64, 72
2, 391014, Control_c, 0, 64, 78
2, 391034, Control_c, 0, 64, 87
2, 391049, Note_on_c, 0, 47, 0
2, 391052, Control_c, 0, 64, 96
2, 391063, Note_on_c, 0, 46, 56
2, 391072, Control_c, 0, 64, 102
2, 391091, Control_c, 0, 64, 103
2, 391321, Control_c, 0, 64, 102
2, 391340, Control_c, 0, 64, 101
2, 391360, Control_c, 0, 64, 99
2, 391379, Control_c, 0, 64, 95
2, 391398, Control_c, 0, 64, 86
2, 391417, Control_c, 0, 64, 74
2, 391432, Note_on_c, 0, 46, 0
2, 391437, Control_c, 0, 64, 63
2, 391448, Note_on_c, 0, 47, 50
2, 391455, Control_c, 0, 64, 43
2, 391473, Note_on_c, 0, 66, 67
2, 391475, Control_c, 0, 64, 25
2, 391501, Note_on_c, 0, 73, 0
2, 391515, Control_c, 0, 64, 30
2, 391534, Control_c, 0, 64, 46
2, 391554, Control_c, 0, 64, 58
2, 391573, Control_c, 0, 64, 63
2, 391592, Control_c, 0, 64, 66
2, 391611, Control_c, 0, 64, 70
2, 391630, Control_c, 0, 64, 76
2, 391649, Control_c, 0, 64, 91
2, 391650, Note_on_c, 0, 47, 0
2, 391668, Control_c, 0, 64, 127
2, 391804, Note_on_c, 0, 56, 0
2, 391859, Note_on_c, 0, 74, 73
2, 391895, Note_on_c, 0, 76, 0
2, 392262, Note_on_c, 0, 59, 51
2, 392274, Note_on_c, 0, 75, 76
2, 392284, Control_c, 0, 64, 90
2, 392303, Control_c, 0, 64, 70
2, 392323, Control_c, 0, 64, 46
2, 392324, Note_on_c, 0, 74, 0
2, 392341, Control_c, 0, 64, 0
2, 392418, Control_c, 0, 64, 15
2, 392438, Control_c, 0, 64, 48
2, 392457, Control_c, 0, 64, 61
2, 392475, Control_c, 0, 64, 66
2, 392494, Control_c, 0, 64, 70
2, 392514, Control_c, 0, 64, 76
2, 392533, Control_c, 0, 64, 87
2, 392552, Control_c, 0, 64, 104
2, 392571, Control_c, 0, 64, 127
2, 392652, Note_on_c, 0, 58, 62
2, 392713, Note_on_c, 0, 59, 0
2, 392974, Control_c, 0, 64, 98
2, 392994, Control_c, 0, 64, 74
2, 393013, Control_c, 0, 64, 54
2, 393028, Note_on_c, 0, 56, 62
2, 393032, Control_c, 0, 64, 0
2, 393049, Note_on_c, 0, 71, 66
2, 393072, Note_on_c, 0, 75, 0
2, 393088, Control_c, 0, 64, 34
2, 393090, Note_on_c, 0, 58, 0
2, 393106, Control_c, 0, 64, 57
2, 393126, Control_c, 0, 64, 65
2, 393145, Control_c, 0, 64, 70
2, 393164, Control_c, 0, 64, 81
2, 393183, Control_c, 0, 64, 96
2, 393203, Control_c, 0, 64, 127
2, 393279, Note_on_c, 0, 71, 0
2, 393334, Note_on_c, 0, 66, 0
2, 393423, Note_on_c, 0, 58, 58
2, 393437, Note_on_c, 0, 78, 77
2, 393441, Note_on_c, 0, 70, 78
2, 393472, Note_on_c, 0, 56, 0
2, 393686, Note_on_c, 0, 78, 0
2, 393800, Control_c, 0, 64, 82
2, 393819, Control_c, 0, 64, 65
2, 393821, Note_on_c, 0, 77, 81
2, 393834, Note_on_c, 0, 68, 73
2, 393836, Note_on_c, 0, 59, 63
2, 393839, Control_c, 0, 64, 33
2, 393846, Note_on_c, 0, 70, 0
2, 393857, Control_c, 0, 64, 15
2, 393877, Control_c, 0, 64, 21
2, 393892, Note_on_c, 0, 58, 0
2, 393896, Control_c, 0, 64, 48
2, 393915, Control_c, 0, 64, 63
2, 393934, Control_c, 0, 64, 69
2, 393954, Control_c, 0, 64, 82
2, 393956, Note_on_c, 0, 68, 0
2, 393973, Control_c, 0, 64, 127
2, 394184, Note_on_c, 0, 56, 63
2, 394225, Note_on_c, 0, 75, 84
2, 394234, Note_on_c, 0, 66, 76
2, 394244, Note_on_c, 0, 59, 0
2, 394246, Note_on_c, 0, 56, 0
2, 394281, Note_on_c, 0, 77, 0
2, 394364, Note_on_c, 0, 66, 0
2, 394479, Note_on_c, 0, 75, 0
2, 394570, Note_on_c, 0, 65, 65
2, 394571, Note_on_c, 0, 58, 63
2, 394634, Note_on_c, 0, 74, 81
2, 394644, Control_c, 0, 64, 90
2, 394663, Control_c, 0, 64, 64
2, 394682, Control_c, 0, 64, 32
2, 394701, Control_c, 0, 64, 0
2, 394739, Control_c, 0, 64, 19
2, 394759, Control_c, 0, 64, 52
2, 394778, Control_c, 0, 64, 64
2, 394798, Control_c, 0, 64, 73
2, 394816, Control_c, 0, 64, 92
2, 394836, Control_c, 0, 64, 127
2, 394994, Note_on_c, 0, 77, 87
2, 395013, Note_on_c, 0, 63, 66
2, 395034, Note_on_c, 0, 74, 0
2, 395042, Note_on_c, 0, 65, 0
2, 395369, Note_on_c, 0, 62, 67
2, 395393, Control_c, 0, 64, 97
2, 395399, Note_on_c, 0, 63, 0
2, 395412, Control_c, 0, 64, 70
2, 395413, Note_on_c, 0, 82, 90
2, 395430, Control_c, 0, 64, 50
2, 395445, Note_on_c, 0, 77, 0
2, 395450, Control_c, 0, 64, 22
2, 395469, Control_c, 0, 64, 23
2, 395474, Note_on_c, 0, 58, 0
2, 395489, Control_c, 0, 64, 47
2, 395507, Control_c, 0, 64, 63
2, 395527, Control_c, 0, 64, 72
2, 395546, Control_c, 0, 64, 91
2, 395565, Control_c, 0, 64, 127
2, 395776, Control_c, 0, 64, 78
2, 395786, Note_on_c, 0, 62, 0
2, 395790, Note_on_c, 0, 56, 69
2, 395791, Note_on_c, 0, 65, 66
2, 395796, Control_c, 0, 64, 63
2, 395815, Control_c, 0, 64, 48
2, 395834, Control_c, 0, 64, 48
2, 395853, Control_c, 0, 64, 57
2, 395873, Control_c, 0, 64, 64
2, 395892, Control_c, 0, 64, 72
2, 395910, Control_c, 0, 64, 99
2, 395930, Control_c, 0, 64, 127
2, 395961, Note_on_c, 0, 56, 0
2, 396142, Control_c, 0, 64, 115
2, 396162, Control_c, 0, 64, 76
2, 396180, Control_c, 0, 64, 59
2, 396190, Note_on_c, 0, 54, 70
2, 396200, Control_c, 0, 64, 46
2, 396200, Note_on_c, 0, 65, 0
2, 396203, Note_on_c, 0, 58, 70
2, 396219, Control_c, 0, 64, 50
2, 396239, Control_c, 0, 64, 60
2, 396257, Control_c, 0, 64, 68
2, 396277, Control_c, 0, 64, 81
2, 396296, Control_c, 0, 64, 127
2, 396322, Note_on_c, 0, 54, 0
2, 396603, Control_c, 0, 64, 102
2, 396622, Control_c, 0, 64, 71
2, 396629, Note_on_c, 0, 56, 63
2, 396631, Note_on_c, 0, 83, 82
2, 396642, Control_c, 0, 64, 51
2, 396650, Note_on_c, 0, 68, 55
2, 396660, Control_c, 0, 64, 21
2, 396680, Control_c, 0, 64, 23
2, 396686, Note_on_c, 0, 58, 0
2, 396692, Note_on_c, 0, 82, 0
2, 396699, Control_c, 0, 64, 46
2, 396719, Control_c, 0, 64, 64
2, 396737, Control_c, 0, 64, 71
2, 396757, Control_c, 0, 64, 85
2, 396776, Control_c, 0, 64, 127
2, 396808, Note_on_c, 0, 68, 0
2, 396987, Control_c, 0, 64, 83
2, 397006, Control_c, 0, 64, 60
2, 397018, Note_on_c, 0, 82, 86
2, 397020, Note_on_c, 0, 58, 58
2, 397023, Note_on_c, 0, 66, 53
2, 397025, Control_c, 0, 64, 22
2, 397045, Control_c, 0, 64, 17
2, 397056, Note_on_c, 0, 56, 0
2, 397064, Control_c, 0, 64, 29
2, 397079, Note_on_c, 0, 83, 0
2, 397083, Control_c, 0, 64, 55
2, 397102, Control_c, 0, 64, 66
2, 397122, Control_c, 0, 64, 76
2, 397140, Control_c, 0, 64, 127
2, 397179, Note_on_c, 0, 66, 0
2, 397370, Note_on_c, 0, 65, 58
2, 397404, Note_on_c, 0, 80, 88
2, 397413, Note_on_c, 0, 58, 0
2, 397417, Note_on_c, 0, 65, 0
2, 397483, Note_on_c, 0, 82, 0
2, 397754, Note_on_c, 0, 51, 59
2, 397761, Note_on_c, 0, 63, 59
2, 397774, Control_c, 0, 64, 83
2, 397794, Control_c, 0, 64, 62
2, 397794, Note_on_c, 0, 78, 79
2, 397813, Control_c, 0, 64, 0
2, 397856, Note_on_c, 0, 80, 0
2, 397870, Control_c, 0, 64, 31
2, 397889, Control_c, 0, 64, 58
2, 397906, Control_c, 0, 64, 68
2, 397926, Control_c, 0, 64, 79
2, 397945, Control_c, 0, 64, 127
2, 398154, Note_on_c, 0, 53, 63
2, 398161, Note_on_c, 0, 80, 87
2, 398216, Note_on_c, 0, 78, 0
2, 398300, Note_on_c, 0, 63, 0
2, 398306, Note_on_c, 0, 51, 0
2, 398560, Control_c, 0, 64, 115
2, 398573, Note_on_c, 0, 55, 58
2, 398577, Note_on_c, 0, 82, 82
2, 398579, Control_c, 0, 64, 74
2, 398579, Note_on_c, 0, 75, 73
2, 398598, Control_c, 0, 64, 55
2, 398617, Control_c, 0, 64, 0
2, 398624, Note_on_c, 0, 80, 0
2, 398639, Note_on_c, 0, 53, 0
2, 398675, Control_c, 0, 64, 20
2, 398694, Control_c, 0, 64, 51
2, 398714, Control_c, 0, 64, 64
2, 398732, Control_c, 0, 64, 70
2, 398751, Control_c, 0, 64, 82
2, 398771, Control_c, 0, 64, 127
2, 398978, Note_on_c, 0, 73, 58
2, 399024, Note_on_c, 0, 75, 0
2, 399074, Note_on_c, 0, 73, 0
2, 399125, Note_on_c, 0, 82, 0
2, 399320, Note_on_c, 0, 56, 60
2, 399338, Note_on_c, 0, 55, 0
2, 399365, Note_on_c, 0, 75, 82
2, 399370, Note_on_c, 0, 71, 71
2, 399404, Control_c, 0, 64, 79
2, 399423, Control_c, 0, 64, 61
2, 399443, Control_c, 0, 64, 0
2, 399500, Control_c, 0, 64, 34
2, 399520, Control_c, 0, 64, 58
2, 399539, Control_c, 0, 64, 66
2, 399558, Control_c, 0, 64, 74
2, 399577, Control_c, 0, 64, 93
2, 399597, Control_c, 0, 64, 127
2, 399731, Note_on_c, 0, 71, 0
2, 399772, Note_on_c, 0, 54, 56
2, 399809, Note_on_c, 0, 56, 0
2, 399809, Note_on_c, 0, 70, 38
2, 399965, Note_on_c, 0, 70, 0
2, 400149, Note_on_c, 0, 53, 47
2, 400182, Note_on_c, 0, 80, 83
2, 400188, Note_on_c, 0, 54, 0
2, 400191, Control_c, 0, 64, 105
2, 400196, Note_on_c, 0, 68, 65
2, 400211, Control_c, 0, 64, 73
2, 400229, Control_c, 0, 64, 53
2, 400249, Control_c, 0, 64, 0
2, 400326, Control_c, 0, 64, 22
2, 400345, Control_c, 0, 64, 53
2, 400364, Control_c, 0, 64, 64
2, 400383, Control_c, 0, 64, 70
2, 400403, Control_c, 0, 64, 82
2, 400422, Control_c, 0, 64, 121
2, 400441, Control_c, 0, 64, 127
2, 400483, Note_on_c, 0, 75, 0
2, 400591, Note_on_c, 0, 51, 45
2, 400613, Note_on_c, 0, 71, 56
2, 400642, Note_on_c, 0, 53, 0
2, 400645, Note_on_c, 0, 68, 0
2, 400971, Note_on_c, 0, 50, 50
2, 400979, Control_c, 0, 64, 93
2, 400999, Control_c, 0, 64, 68
2, 401000, Note_on_c, 0, 70, 64
2, 401008, Note_on_c, 0, 51, 0
2, 401018, Control_c, 0, 64, 55
2, 401038, Control_c, 0, 64, 47
2, 401056, Control_c, 0, 64, 49
2, 401076, Control_c, 0, 64, 57
2, 401095, Control_c, 0, 64, 63
2, 401114, Control_c, 0, 64, 68
2, 401125, Note_on_c, 0, 71, 0
2, 401133, Control_c, 0, 64, 77
2, 401136, Note_on_c, 0, 80, 0
2, 401152, Control_c, 0, 64, 95
2, 401172, Control_c, 0, 64, 127
2, 401371, Note_on_c, 0, 75, 58
2, 401371, Note_on_c, 0, 78, 81
2, 401373, Note_on_c, 0, 51, 46
2, 401374, Note_on_c, 0, 50, 0
2, 401642, Note_on_c, 0, 78, 0
2, 401700, Note_on_c, 0, 75, 0
2, 401777, Note_on_c, 0, 46, 46
2, 401841, Note_on_c, 0, 51, 0
2, 401844, Control_c, 0, 64, 116
2, 401847, Note_on_c, 0, 77, 80
2, 401863, Control_c, 0, 64, 79
2, 401882, Control_c, 0, 64, 63
2, 401901, Control_c, 0, 64, 36
2, 401921, Control_c, 0, 64, 11
2, 401959, Control_c, 0, 64, 25
2, 401978, Control_c, 0, 64, 49
2, 401998, Control_c, 0, 64, 61
2, 402016, Control_c, 0, 64, 66
2, 402036, Control_c, 0, 64, 71
2, 402055, Control_c, 0, 64, 79
2, 402074, Control_c, 0, 64, 96
2, 402093, Control_c, 0, 64, 127
2, 402216, Note_on_c, 0, 74, 59
2, 402223, Note_on_c, 0, 58, 36
2, 402268, Note_on_c, 0, 77, 0
2, 402284, Note_on_c, 0, 74, 0
2, 402310, Note_on_c, 0, 58, 0
2, 402317, Note_on_c, 0, 46, 0
2, 402592, Control_c, 0, 64, 103
2, 402598, Note_on_c, 0, 59, 45
2, 402600, Note_on_c, 0, 75, 75
2, 402612, Control_c, 0, 64, 74
2, 402630, Control_c, 0, 64, 58
2, 402635, Note_on_c, 0, 70, 0
2, 402650, Control_c, 0, 64, 0
2, 402706, Control_c, 0, 64, 29
2, 402726, Control_c, 0, 64, 55
2, 402745, Control_c, 0, 64, 64
2, 402764, Control_c, 0, 64, 70
2, 402783, Control_c, 0, 64, 81
2, 402803, Control_c, 0, 64, 101
2, 402822, Control_c, 0, 64, 127
2, 402974, Note_on_c, 0, 71, 43
2, 402982, Note_on_c, 0, 51, 35
2, 403014, Note_on_c, 0, 75, 0
2, 403124, Note_on_c, 0, 59, 0
2, 403362, Control_c, 0, 64, 92
2, 403380, Control_c, 0, 64, 71
2, 403392, Note_on_c, 0, 73, 64
2, 403400, Control_c, 0, 64, 57
2, 403408, Note_on_c, 0, 53, 35
2, 403415, Note_on_c, 0, 51, 0
2, 403419, Control_c, 0, 64, 28
2, 403428, Note_on_c, 0, 71, 0
2, 403439, Control_c, 0, 64, 22
2, 403479, Control_c, 0, 64, 40
2, 403499, Control_c, 0, 64, 57
2, 403517, Control_c, 0, 64, 64
2, 403537, Control_c, 0, 64, 68
2, 403556, Control_c, 0, 64, 76
2, 403576, Control_c, 0, 64, 90
2, 403594, Control_c, 0, 64, 127
2, 403798, Note_on_c, 0, 55, 38
2, 403803, Note_on_c, 0, 73, 0
2, 403808, Note_on_c, 0, 70, 51
2, 403817, Note_on_c, 0, 53, 0
2, 404132, Control_c, 0, 64, 104
2, 404150, Control_c, 0, 64, 75
2, 404170, Control_c, 0, 64, 61
2, 404189, Control_c, 0, 64, 29
2, 404192, Note_on_c, 0, 70, 0
2, 404195, Note_on_c, 0, 55, 0
2, 404195, Note_on_c, 0, 71, 58
2, 404208, Control_c, 0, 64, 0
2, 404210, Note_on_c, 0, 56, 38
2, 404247, Control_c, 0, 64, 17
2, 404266, Control_c, 0, 64, 44
2, 404284, Control_c, 0, 64, 59
2, 404304, Control_c, 0, 64, 65
2, 404323, Control_c, 0, 64, 69
2, 404342, Control_c, 0, 64, 76
2, 404361, Control_c, 0, 64, 87
2, 404381, Control_c, 0, 64, 103
2, 404400, Control_c, 0, 64, 127
2, 404573, Note_on_c, 0, 53, 41
2, 404575, Note_on_c, 0, 71, 0
2, 404589, Note_on_c, 0, 68, 52
2, 404661, Note_on_c, 0, 56, 0
2, 404957, Control_c, 0, 64, 97
2, 404970, Note_on_c, 0, 70, 64
2, 404972, Note_on_c, 0, 50, 43
2, 404976, Control_c, 0, 64, 73
2, 404981, Note_on_c, 0, 53, 0
2, 404987, Note_on_c, 0, 68, 0
2, 404995, Control_c, 0, 64, 60
2, 405015, Control_c, 0, 64, 35
2, 405033, Control_c, 0, 64, 25
2, 405053, Control_c, 0, 64, 26
2, 405072, Control_c, 0, 64, 39
2, 405092, Control_c, 0, 64, 56
2, 405110, Control_c, 0, 64, 64
2, 405130, Control_c, 0, 64, 69
2, 405149, Control_c, 0, 64, 77
2, 405168, Control_c, 0, 64, 92
2, 405187, Control_c, 0, 64, 127
2, 405334, Note_on_c, 0, 51, 39
2, 405380, Note_on_c, 0, 66, 43
2, 405406, Note_on_c, 0, 70, 0
2, 405494, Note_on_c, 0, 50, 0
2, 405726, Control_c, 0, 64, 104
2, 405744, Note_on_c, 0, 48, 40
2, 405744, Note_on_c, 0, 68, 65
2, 405745, Control_c, 0, 64, 77
2, 405750, Note_on_c, 0, 66, 0
2, 405764, Control_c, 0, 64, 63
2, 405773, Note_on_c, 0, 51, 0
2, 405783, Control_c, 0, 64, 40
2, 405802, Control_c, 0, 64, 30
2, 405822, Control_c, 0, 64, 31
2, 405841, Control_c, 0, 64, 44
2, 405860, Control_c, 0, 64, 58
2, 405879, Control_c, 0, 64, 64
2, 405899, Control_c, 0, 64, 69
2, 405917, Control_c, 0, 64, 78
2, 405936, Control_c, 0, 64, 95
2, 405955, Control_c, 0, 64, 127
2, 406102, Note_on_c, 0, 48, 0
2, 406112, Note_on_c, 0, 68, 0
2, 406132, Note_on_c, 0, 50, 45
2, 406151, Note_on_c, 0, 65, 28
2, 406438, Note_on_c, 0, 50, 0
2, 406494, Note_on_c, 0, 51, 36
2, 406531, Control_c, 0, 64, 85
2, 406533, Note_on_c, 0, 66, 60
2, 406549, Control_c, 0, 64, 65
2, 406569, Control_c, 0, 64, 29
2, 406577, Note_on_c, 0, 65, 0
2, 406588, Control_c, 0, 64, 0
2, 406646, Control_c, 0, 64, 36
2, 406665, Control_c, 0, 64, 59
2, 406683, Control_c, 0, 64, 67
2, 406703, Control_c, 0, 64, 76
2, 406722, Control_c, 0, 64, 96
2, 406742, Control_c, 0, 64, 127
2, 406904, Note_on_c, 0, 39, 40
2, 406920, Note_on_c, 0, 51, 0
2, 406923, Note_on_c, 0, 63, 38
2, 406933, Note_on_c, 0, 66, 0
2, 407240, Control_c, 0, 64, 112
2, 407240, Note_on_c, 0, 46, 54
2, 407251, Note_on_c, 0, 63, 0
2, 407260, Control_c, 0, 64, 74
2, 407279, Control_c, 0, 64, 57
2, 407298, Control_c, 0, 64, 0
2, 407330, Note_on_c, 0, 65, 67
2, 407331, Note_on_c, 0, 39, 0
2, 407356, Control_c, 0, 64, 52
2, 407356, Note_on_c, 0, 62, 42
2, 407375, Control_c, 0, 64, 66
2, 407394, Control_c, 0, 64, 79
2, 407414, Control_c, 0, 64, 127
2, 407428, Note_on_c, 0, 62, 0
2, 407577, Note_on_c, 0, 65, 0
2, 407699, Note_on_c, 0, 46, 0
2, 407792, Note_on_c, 0, 65, 4
2, 408114, Note_on_c, 0, 70, 70
2, 408217, Note_on_c, 0, 65, 0
2, 408353, Control_c, 0, 67, 10
2, 408373, Control_c, 0, 67, 14
2, 408392, Control_c, 0, 67, 18
2, 408411, Control_c, 0, 67, 23
2, 408430, Control_c, 0, 67, 27
2, 408450, Control_c, 0, 67, 30
2, 408468, Control_c, 0, 67, 36
2, 408488, Control_c, 0, 67, 42
2, 408507, Control_c, 0, 67, 49
2, 408527, Control_c, 0, 67, 54
2, 408545, Control_c, 0, 67, 56
2, 408549, Note_on_c, 0, 72, 41
2, 408564, Control_c, 0, 67, 57
2, 408584, Control_c, 0, 67, 57
2, 408602, Control_c, 0, 67, 58
2, 408622, Control_c, 0, 67, 58
2, 408640, Note_on_c, 0, 70, 0
2, 408661, Control_c, 0, 67, 59
2, 408679, Control_c, 0, 67, 59
2, 408718, Control_c, 0, 67, 60
2, 408737, Control_c, 0, 67, 61
2, 408756, Control_c, 0, 67, 63
2, 408776, Control_c, 0, 67, 64
2, 408796, Control_c, 0, 67, 65
2, 408815, Control_c, 0, 67, 65
2, 408834, Control_c, 0, 67, 66
2, 408854, Control_c, 0, 67, 66
2, 408892, Control_c, 0, 64, 90
2, 408892, Control_c, 0, 67, 67
2, 408898, Note_on_c, 0, 58, 64
2, 408911, Control_c, 0, 64, 68
2, 408931, Control_c, 0, 64, 43
2, 408944, Note_on_c, 0, 74, 39
2, 408949, Control_c, 0, 64, 0
2, 408949, Control_c, 0, 67, 68
2, 408963, Note_on_c, 0, 72, 0
2, 408969, Control_c, 0, 67, 69
2, 408988, Control_c, 0, 67, 73
2, 409007, Control_c, 0, 67, 77
2, 409026, Control_c, 0, 67, 81
2, 409046, Control_c, 0, 64, 36
2, 409046, Control_c, 0, 67, 85
2, 409065, Control_c, 0, 64, 59
2, 409065, Control_c, 0, 67, 86
2, 409083, Control_c, 0, 64, 67
2, 409083, Control_c, 0, 67, 85
2, 409103, Control_c, 0, 64, 79
2, 409103, Control_c, 0, 67, 84
2, 409122, Control_c, 0, 64, 127
2, 409122, Control_c, 0, 67, 82
2, 409142, Control_c, 0, 67, 80
2, 409160, Control_c, 0, 67, 79
2, 409180, Control_c, 0, 67, 77
2, 409199, Control_c, 0, 67, 76
2, 409218, Control_c, 0, 67, 75
2, 409237, Control_c, 0, 67, 74
2, 409257, Control_c, 0, 67, 74
2, 409276, Control_c, 0, 67, 73
2, 409295, Control_c, 0, 67, 72
2, 409311, Note_on_c, 0, 71, 45
2, 409314, Control_c, 0, 67, 71
2, 409322, Note_on_c, 0, 74, 0
2, 409334, Control_c, 0, 67, 70
2, 409353, Note_on_c, 0, 75, 49
2, 409372, Control_c, 0, 67, 71
2, 409410, Control_c, 0, 67, 71
2, 409428, Control_c, 0, 67, 72
2, 409428, Note_on_c, 0, 75, 0
2, 409645, Note_on_c, 0, 71, 0
2, 409704, Note_on_c, 0, 70, 49
2, 409704, Note_on_c, 0, 77, 53
2, 409871, Control_c, 0, 67, 72
2, 409909, Control_c, 0, 67, 73
2, 410005, Control_c, 0, 67, 73
2, 410057, Note_on_c, 0, 70, 0
2, 410091, Note_on_c, 0, 68, 46
2, 410136, Note_on_c, 0, 58, 0
2, 410274, Control_c, 0, 67, 74
2, 410390, Control_c, 0, 67, 74
2, 410468, Note_on_c, 0, 63, 55
2, 410468, Note_on_c, 0, 68, 0
2, 410483, Note_on_c, 0, 66, 50
2, 410506, Control_c, 0, 64, 114
2, 410524, Control_c, 0, 64, 89
2, 410544, Control_c, 0, 64, 73
2, 410563, Control_c, 0, 64, 63
2, 410582, Control_c, 0, 64, 50
2, 410601, Control_c, 0, 64, 40
2, 410601, Control_c, 0, 67, 75
2, 410621, Control_c, 0, 64, 37
2, 410640, Control_c, 0, 64, 35
2, 410659, Control_c, 0, 64, 30
2, 410678, Control_c, 0, 64, 22
2, 410698, Control_c, 0, 64, 9
2, 410717, Control_c, 0, 64, 0
2, 410837, Note_on_c, 0, 66, 0
2, 410837, Note_on_c, 0, 68, 46
2, 410852, Note_on_c, 0, 75, 50
2, 410857, Note_on_c, 0, 77, 0
2, 410870, Control_c, 0, 67, 75
2, 411149, Note_on_c, 0, 68, 0
2, 411170, Note_on_c, 0, 75, 0
2, 411199, Note_on_c, 0, 70, 44
2, 411207, Note_on_c, 0, 73, 45
2, 411363, Note_on_c, 0, 73, 0
2, 411376, Note_on_c, 0, 71, 43
2, 411520, Note_on_c, 0, 71, 0
2, 411546, Note_on_c, 0, 73, 44
2, 411679, Note_on_c, 0, 73, 0
2, 411727, Note_on_c, 0, 79, 47
2, 411836, Note_on_c, 0, 79, 0
2, 411891, Note_on_c, 0, 80, 53
2, 411964, Control_c, 0, 64, 11
2, 411984, Control_c, 0, 64, 17
2, 412003, Control_c, 0, 64, 25
2, 412022, Control_c, 0, 64, 34
2, 412041, Control_c, 0, 64, 42
2, 412050, Note_on_c, 0, 80, 0
2, 412061, Control_c, 0, 64, 48
2, 412073, Note_on_c, 0, 82, 53
2, 412080, Control_c, 0, 64, 53
2, 412099, Control_c, 0, 64, 57
2, 412108, Note_on_c, 0, 70, 0
2, 412118, Control_c, 0, 64, 60
2, 412138, Control_c, 0, 64, 62
2, 412157, Control_c, 0, 64, 64
2, 412176, Control_c, 0, 64, 64
2, 412195, Control_c, 0, 64, 65
2, 412215, Control_c, 0, 64, 66
2, 412233, Control_c, 0, 64, 68
2, 412252, Note_on_c, 0, 82, 0
2, 412253, Control_c, 0, 64, 70
2, 412255, Note_on_c, 0, 83, 59
2, 412272, Control_c, 0, 64, 74
2, 412292, Control_c, 0, 64, 78
2, 412310, Control_c, 0, 64, 83
2, 412330, Control_c, 0, 64, 85
2, 412349, Control_c, 0, 64, 85
2, 412368, Control_c, 0, 64, 85
2, 412387, Control_c, 0, 64, 84
2, 412407, Control_c, 0, 64, 84
2, 412426, Control_c, 0, 64, 83
2, 412464, Control_c, 0, 64, 83
2, 412502, Control_c, 0, 64, 82
2, 412521, Control_c, 0, 64, 82
2, 412541, Control_c, 0, 64, 81
2, 412560, Control_c, 0, 64, 80
2, 412579, Control_c, 0, 64, 78
2, 412598, Control_c, 0, 64, 74
2, 412607, Note_on_c, 0, 63, 0
2, 412611, Note_on_c, 0, 68, 32
2, 412613, Note_on_c, 0, 64, 52
2, 412618, Control_c, 0, 64, 69
2, 412637, Control_c, 0, 64, 64
2, 412656, Control_c, 0, 64, 55
2, 412675, Control_c, 0, 64, 34
2, 412695, Control_c, 0, 64, 0
2, 412772, Control_c, 0, 64, 18
2, 412790, Control_c, 0, 64, 38
2, 412810, Control_c, 0, 64, 51
2, 412829, Control_c, 0, 64, 59
2, 412848, Control_c, 0, 64, 63
2, 412867, Control_c, 0, 64, 64
2, 412887, Control_c, 0, 64, 66
2, 412906, Control_c, 0, 64, 68
2, 412924, Control_c, 0, 64, 70
2, 412944, Control_c, 0, 64, 73
2, 412963, Control_c, 0, 64, 76
2, 412982, Control_c, 0, 64, 78
2, 412988, Note_on_c, 0, 82, 53
2, 413020, Note_on_c, 0, 83, 0
2, 413117, Control_c, 0, 64, 77
2, 413129, Note_on_c, 0, 82, 0
2, 413153, Note_on_c, 0, 80, 48
2, 413155, Control_c, 0, 64, 77
2, 413193, Control_c, 0, 64, 76
2, 413232, Control_c, 0, 64, 76
2, 413268, Control_c, 0, 64, 75
2, 413284, Note_on_c, 0, 68, 0
2, 413288, Control_c, 0, 64, 74
2, 413307, Control_c, 0, 64, 70
2, 413327, Control_c, 0, 64, 65
2, 413335, Note_on_c, 0, 80, 0
2, 413345, Control_c, 0, 64, 57
2, 413351, Note_on_c, 0, 82, 60
2, 413361, Note_on_c, 0, 63, 51
2, 413364, Control_c, 0, 64, 29
2, 413384, Control_c, 0, 64, 0
2, 413387, Note_on_c, 0, 64, 0
2, 413479, Control_c, 0, 64, 34
2, 413499, Control_c, 0, 64, 47
2, 413518, Control_c, 0, 64, 55
2, 413537, Control_c, 0, 64, 59
2, 413556, Control_c, 0, 64, 62
2, 413576, Control_c, 0, 64, 65
2, 413595, Control_c, 0, 64, 67
2, 413614, Control_c, 0, 64, 71
2, 413633, Control_c, 0, 64, 79
2, 413653, Control_c, 0, 64, 94
2, 413672, Control_c, 0, 64, 117
2, 413691, Control_c, 0, 64, 127
2, 413736, Note_on_c, 0, 67, 33
2, 413764, Note_on_c, 0, 75, 39
2, 413777, Note_on_c, 0, 67, 0
2, 413862, Note_on_c, 0, 75, 0
2, 413862, Note_on_c, 0, 75, 13
2, 414094, Control_c, 0, 64, 112
2, 414113, Control_c, 0, 64, 89
2, 414132, Note_on_c, 0, 61, 52
2, 414133, Control_c, 0, 64, 73
2, 414136, Note_on_c, 0, 77, 58
2, 414141, Note_on_c, 0, 65, 41
2, 414152, Control_c, 0, 64, 61
2, 414164, Note_on_c, 0, 82, 0
2, 414171, Control_c, 0, 64, 33
2, 414183, Note_on_c, 0, 63, 0
2, 414184, Note_on_c, 0, 75, 0
2, 414190, Control_c, 0, 64, 0
2, 414229, Control_c, 0, 64, 17
2, 414249, Control_c, 0, 64, 39
2, 414268, Control_c, 0, 64, 54
2, 414287, Control_c, 0, 64, 61
2, 414306, Control_c, 0, 64, 64
2, 414306, Control_c, 0, 67, 76
2, 414325, Control_c, 0, 64, 66
2, 414345, Control_c, 0, 64, 69
2, 414363, Control_c, 0, 64, 72
2, 414383, Control_c, 0, 64, 78
2, 414402, Control_c, 0, 64, 87
2, 414402, Control_c, 0, 67, 75
2, 414422, Control_c, 0, 64, 98
2, 414440, Control_c, 0, 64, 107
2, 414460, Control_c, 0, 64, 111
2, 414479, Control_c, 0, 64, 112
2, 414487, Note_on_c, 0, 65, 0
2, 414517, Control_c, 0, 64, 112
2, 414526, Note_on_c, 0, 64, 42
2, 414537, Control_c, 0, 67, 76
2, 414545, Note_on_c, 0, 79, 55
2, 414549, Note_on_c, 0, 61, 0
2, 414584, Note_on_c, 0, 77, 0
2, 414614, Control_c, 0, 64, 112
2, 414652, Control_c, 0, 64, 111
2, 414652, Control_c, 0, 67, 75
2, 414671, Control_c, 0, 64, 110
2, 414691, Control_c, 0, 67, 76
2, 414709, Control_c, 0, 64, 110
2, 414748, Control_c, 0, 64, 109
2, 414766, Control_c, 0, 64, 108
2, 414786, Control_c, 0, 64, 107
2, 414805, Control_c, 0, 64, 106
2, 414825, Control_c, 0, 64, 105
2, 414843, Control_c, 0, 64, 104
2, 414863, Control_c, 0, 64, 102
2, 414882, Control_c, 0, 64, 95
2, 414902, Control_c, 0, 64, 85
2, 414920, Control_c, 0, 64, 73
2, 414940, Control_c, 0, 64, 63
2, 414947, Note_on_c, 0, 59, 45
2, 414959, Control_c, 0, 64, 41
2, 414966, Note_on_c, 0, 80, 61
2, 414978, Control_c, 0, 64, 0
2, 414990, Note_on_c, 0, 64, 0
2, 414997, Control_c, 0, 67, 75
2, 414999, Note_on_c, 0, 79, 0
2, 415055, Control_c, 0, 64, 19
2, 415074, Control_c, 0, 64, 44
2, 415074, Control_c, 0, 67, 76
2, 415094, Control_c, 0, 64, 57
2, 415112, Control_c, 0, 64, 62
2, 415132, Control_c, 0, 64, 65
2, 415151, Control_c, 0, 64, 67
2, 415171, Control_c, 0, 64, 71
2, 415189, Control_c, 0, 64, 76
2, 415209, Control_c, 0, 64, 84
2, 415228, Control_c, 0, 64, 95
2, 415246, Control_c, 0, 64, 108
2, 415266, Control_c, 0, 64, 127
2, 415342, Note_on_c, 0, 71, 42
2, 415651, Control_c, 0, 64, 119
2, 415669, Control_c, 0, 64, 104
2, 415689, Control_c, 0, 64, 84
2, 415706, Note_on_c, 0, 71, 0
2, 415708, Control_c, 0, 64, 66
2, 415726, Control_c, 0, 64, 46
2, 415730, Note_on_c, 0, 61, 48
2, 415743, Note_on_c, 0, 59, 0
2, 415746, Control_c, 0, 64, 11
2, 415757, Note_on_c, 0, 70, 47
2, 415765, Control_c, 0, 64, 9
2, 415785, Control_c, 0, 64, 13
2, 415803, Control_c, 0, 64, 37
2, 415823, Control_c, 0, 64, 54
2, 415828, Note_on_c, 0, 80, 0
2, 415842, Control_c, 0, 64, 63
2, 415862, Control_c, 0, 64, 65
2, 415862, Control_c, 0, 67, 76
2, 415880, Control_c, 0, 64, 68
2, 415900, Control_c, 0, 64, 71
2, 415900, Control_c, 0, 67, 77
2, 415912, Note_on_c, 0, 70, 0
2, 415919, Control_c, 0, 64, 77
2, 415938, Control_c, 0, 64, 86
2, 415957, Control_c, 0, 64, 98
2, 415977, Control_c, 0, 64, 123
2, 415977, Control_c, 0, 67, 76
2, 415996, Control_c, 0, 64, 127
2, 416072, Control_c, 0, 67, 77
2, 416094, Note_on_c, 0, 68, 46
2, 416245, Note_on_c, 0, 68, 0
2, 416436, Control_c, 0, 64, 110
2, 416456, Control_c, 0, 64, 89
2, 416459, Note_on_c, 0, 61, 0
2, 416475, Control_c, 0, 64, 72
2, 416494, Control_c, 0, 64, 58
2, 416498, Note_on_c, 0, 63, 42
2, 416510, Note_on_c, 0, 82, 66
2, 416512, Note_on_c, 0, 67, 22
2, 416513, Control_c, 0, 64, 0
2, 416590, Control_c, 0, 64, 28
2, 416610, Control_c, 0, 64, 51
2, 416628, Control_c, 0, 64, 61
2, 416648, Control_c, 0, 64, 65
2, 416667, Control_c, 0, 64, 68
2, 416686, Control_c, 0, 64, 73
2, 416697, Note_on_c, 0, 63, 0
2, 416705, Control_c, 0, 64, 80
2, 416719, Note_on_c, 0, 67, 0
2, 416724, Control_c, 0, 64, 90
2, 416744, Control_c, 0, 64, 104
2, 416762, Control_c, 0, 64, 127
2, 416782, Control_c, 0, 67, 76
2, 416839, Control_c, 0, 67, 77
2, 416865, Note_on_c, 0, 63, 49
2, 417046, Note_on_c, 0, 65, 35
2, 417139, Note_on_c, 0, 65, 0
2, 417165, Control_c, 0, 64, 110
2, 417184, Control_c, 0, 64, 90
2, 417184, Control_c, 0, 67, 76
2, 417203, Control_c, 0, 64, 72
2, 417223, Control_c, 0, 64, 55
2, 417229, Note_on_c, 0, 67, 37
2, 417242, Control_c, 0, 64, 11
2, 417254, Note_on_c, 0, 75, 57
2, 417261, Control_c, 0, 64, 0
2, 417300, Control_c, 0, 64, 13
2, 417318, Control_c, 0, 64, 42
2, 417338, Control_c, 0, 64, 57
2, 417357, Control_c, 0, 64, 64
2, 417377, Control_c, 0, 64, 67
2, 417395, Control_c, 0, 64, 71
2, 417415, Control_c, 0, 64, 76
2, 417415, Control_c, 0, 67, 77
2, 417433, Note_on_c, 0, 67, 0
2, 417435, Control_c, 0, 64, 86
2, 417454, Control_c, 0, 64, 101
2, 417473, Control_c, 0, 64, 127
2, 417547, Note_on_c, 0, 63, 0
2, 417582, Note_on_c, 0, 68, 46
2, 417703, Note_on_c, 0, 68, 0
2, 417758, Note_on_c, 0, 70, 45
2, 417945, Note_on_c, 0, 70, 0
2, 417992, Control_c, 0, 64, 119
2, 418011, Control_c, 0, 64, 92
2, 418016, Note_on_c, 0, 56, 64
2, 418030, Control_c, 0, 64, 73
2, 418037, Note_on_c, 0, 71, 53
2, 418049, Control_c, 0, 64, 55
2, 418067, Control_c, 0, 64, 0
2, 418163, Control_c, 0, 64, 34
2, 418183, Control_c, 0, 64, 56
2, 418202, Control_c, 0, 64, 63
2, 418221, Control_c, 0, 64, 66
2, 418221, Control_c, 0, 67, 77
2, 418231, Note_on_c, 0, 71, 0
2, 418240, Control_c, 0, 64, 69
2, 418260, Control_c, 0, 64, 74
2, 418278, Control_c, 0, 64, 83
2, 418298, Control_c, 0, 64, 98
2, 418298, Control_c, 0, 67, 77
2, 418317, Control_c, 0, 64, 127
2, 418433, Control_c, 0, 67, 77
2, 418438, Note_on_c, 0, 71, 43
2, 418438, Note_on_c, 0, 75, 0
2, 418510, Control_c, 0, 67, 77
2, 418543, Note_on_c, 0, 82, 0
2, 418779, Control_c, 0, 64, 107
2, 418798, Control_c, 0, 64, 79
2, 418802, Note_on_c, 0, 71, 0
2, 418804, Note_on_c, 0, 73, 53
2, 418817, Control_c, 0, 64, 64
2, 418836, Control_c, 0, 64, 47
2, 418856, Control_c, 0, 64, 40
2, 418875, Control_c, 0, 64, 43
2, 418894, Control_c, 0, 64, 55
2, 418913, Control_c, 0, 64, 63
2, 418933, Control_c, 0, 64, 66
2, 418952, Control_c, 0, 64, 71
2, 418952, Control_c, 0, 67, 77
2, 418971, Control_c, 0, 64, 80
2, 418990, Control_c, 0, 64, 94
2, 419010, Control_c, 0, 64, 127
2, 419086, Control_c, 0, 67, 77
2, 419156, Note_on_c, 0, 73, 0
2, 419163, Control_c, 0, 67, 77
2, 419175, Note_on_c, 0, 75, 54
2, 419187, Note_on_c, 0, 70, 47
2, 419263, Note_on_c, 0, 75, 0
2, 419548, Control_c, 0, 64, 104
2, 419566, Control_c, 0, 64, 79
2, 419574, Note_on_c, 0, 70, 0
2, 419577, Note_on_c, 0, 61, 59
2, 419586, Control_c, 0, 64, 65
2, 419597, Note_on_c, 0, 76, 34
2, 419605, Control_c, 0, 64, 46
2, 419608, Note_on_c, 0, 68, 39
2, 419625, Control_c, 0, 64, 15
2, 419643, Control_c, 0, 64, 13
2, 419663, Control_c, 0, 64, 15
2, 419682, Control_c, 0, 64, 31
2, 419702, Control_c, 0, 64, 51
2, 419720, Control_c, 0, 64, 60
2, 419740, Control_c, 0, 64, 63
2, 419749, Note_on_c, 0, 56, 0
2, 419759, Control_c, 0, 64, 64
2, 419759, Control_c, 0, 67, 78
2, 419778, Control_c, 0, 64, 65
2, 419797, Control_c, 0, 64, 66
2, 419817, Control_c, 0, 64, 67
2, 419836, Control_c, 0, 64, 68
2, 419836, Control_c, 0, 67, 77
2, 419855, Control_c, 0, 64, 69
2, 419874, Control_c, 0, 64, 70
2, 419939, Note_on_c, 0, 68, 0
2, 419971, Control_c, 0, 67, 78
2, 419972, Note_on_c, 0, 75, 52
2, 419989, Control_c, 0, 64, 69
2, 420010, Note_on_c, 0, 76, 0
2, 420012, Note_on_c, 0, 67, 22
2, 420028, Control_c, 0, 64, 69
2, 420046, Control_c, 0, 64, 68
2, 420046, Control_c, 0, 67, 77
2, 420066, Control_c, 0, 64, 68
2, 420085, Control_c, 0, 64, 66
2, 420105, Control_c, 0, 64, 64
2, 420123, Control_c, 0, 64, 61
2, 420143, Control_c, 0, 64, 55
2, 420162, Control_c, 0, 64, 41
2, 420182, Control_c, 0, 64, 22
2, 420200, Control_c, 0, 64, 9
2, 420239, Control_c, 0, 64, 15
2, 420258, Control_c, 0, 64, 36
2, 420277, Control_c, 0, 64, 51
2, 420297, Control_c, 0, 64, 60
2, 420306, Note_on_c, 0, 75, 0
2, 420317, Control_c, 0, 64, 64
2, 420336, Control_c, 0, 64, 67
2, 420337, Note_on_c, 0, 68, 44
2, 420338, Note_on_c, 0, 73, 47
2, 420355, Control_c, 0, 64, 71
2, 420375, Control_c, 0, 64, 78
2, 420393, Control_c, 0, 64, 93
2, 420400, Note_on_c, 0, 68, 0
2, 420413, Control_c, 0, 64, 127
2, 420547, Control_c, 0, 67, 78
2, 420602, Note_on_c, 0, 67, 0
2, 420686, Note_on_c, 0, 73, 0
2, 420706, Note_on_c, 0, 70, 47
2, 420746, Note_on_c, 0, 70, 0
2, 420932, Control_c, 0, 67, 78
2, 421065, Control_c, 0, 64, 99
2, 421083, Control_c, 0, 64, 76
2, 421095, Note_on_c, 0, 80, 60
2, 421103, Control_c, 0, 64, 62
2, 421106, Note_on_c, 0, 63, 33
2, 421122, Control_c, 0, 64, 39
2, 421142, Control_c, 0, 64, 27
2, 421180, Control_c, 0, 64, 29
2, 421199, Control_c, 0, 64, 40
2, 421218, Control_c, 0, 64, 53
2, 421237, Control_c, 0, 64, 60
2, 421257, Control_c, 0, 64, 64
2, 421275, Control_c, 0, 64, 66
2, 421294, Control_c, 0, 64, 70
2, 421313, Control_c, 0, 64, 77
2, 421333, Control_c, 0, 64, 89
2, 421352, Control_c, 0, 64, 123
2, 421371, Control_c, 0, 64, 127
2, 421442, Note_on_c, 0, 63, 0
2, 421482, Note_on_c, 0, 65, 46
2, 421734, Note_on_c, 0, 65, 0
2, 421806, Note_on_c, 0, 61, 0
2, 421832, Control_c, 0, 64, 90
2, 421851, Control_c, 0, 64, 71
2, 421857, Note_on_c, 0, 67, 33
2, 421862, Note_on_c, 0, 59, 45
2, 421862, Note_on_c, 0, 75, 56
2, 421870, Control_c, 0, 64, 58
2, 421889, Control_c, 0, 64, 39
2, 421907, Control_c, 0, 64, 37
2, 421926, Control_c, 0, 64, 40
2, 421946, Control_c, 0, 64, 51
2, 421965, Control_c, 0, 64, 60
2, 421984, Control_c, 0, 64, 64
2, 422003, Control_c, 0, 64, 67
2, 422023, Control_c, 0, 64, 71
2, 422042, Control_c, 0, 64, 80
2, 422042, Control_c, 0, 67, 79
2, 422061, Control_c, 0, 64, 93
2, 422080, Control_c, 0, 64, 127
2, 422118, Control_c, 0, 67, 78
2, 422204, Note_on_c, 0, 67, 0
2, 422215, Control_c, 0, 67, 79
2, 422226, Note_on_c, 0, 68, 52
2, 422522, Control_c, 0, 64, 108
2, 422541, Control_c, 0, 64, 81
2, 422560, Control_c, 0, 64, 65
2, 422567, Note_on_c, 0, 58, 46
2, 422580, Control_c, 0, 64, 39
2, 422591, Note_on_c, 0, 70, 49
2, 422598, Control_c, 0, 64, 11
2, 422627, Note_on_c, 0, 59, 0
2, 422637, Control_c, 0, 64, 17
2, 422657, Control_c, 0, 64, 38
2, 422675, Control_c, 0, 64, 53
2, 422695, Control_c, 0, 64, 61
2, 422707, Note_on_c, 0, 75, 0
2, 422714, Control_c, 0, 64, 64
2, 422733, Control_c, 0, 64, 67
2, 422743, Note_on_c, 0, 71, 38
2, 422747, Note_on_c, 0, 70, 0
2, 422752, Control_c, 0, 64, 71
2, 422772, Control_c, 0, 64, 77
2, 422791, Control_c, 0, 64, 89
2, 422810, Control_c, 0, 64, 110
2, 422829, Control_c, 0, 64, 127
2, 422886, Note_on_c, 0, 80, 0
2, 422969, Note_on_c, 0, 77, 51
2, 422974, Note_on_c, 0, 73, 44
2, 423002, Note_on_c, 0, 71, 0
2, 423232, Control_c, 0, 64, 112
2, 423252, Control_c, 0, 64, 82
2, 423271, Control_c, 0, 64, 63
2, 423271, Control_c, 0, 67, 78
2, 423290, Control_c, 0, 64, 36
2, 423309, Control_c, 0, 64, 17
2, 423347, Control_c, 0, 64, 28
2, 423366, Control_c, 0, 64, 48
2, 423378, Note_on_c, 0, 79, 59
2, 423386, Control_c, 0, 64, 60
2, 423392, Note_on_c, 0, 77, 0
2, 423405, Control_c, 0, 64, 65
2, 423424, Control_c, 0, 64, 69
2, 423443, Control_c, 0, 64, 74
2, 423463, Control_c, 0, 64, 83
2, 423482, Control_c, 0, 64, 94
2, 423497, Note_on_c, 0, 73, 0
2, 423501, Control_c, 0, 64, 108
2, 423520, Control_c, 0, 64, 127
2, 423757, Note_on_c, 0, 71, 36
2, 423850, Note_on_c, 0, 79, 0
2, 423909, Note_on_c, 0, 70, 34
2, 423914, Note_on_c, 0, 71, 0
2, 423956, Note_on_c, 0, 70, 0
2, 424058, Control_c, 0, 64, 97
2, 424077, Control_c, 0, 64, 77
2, 424097, Control_c, 0, 64, 62
2, 424107, Note_on_c, 0, 56, 44
2, 424112, Note_on_c, 0, 58, 0
2, 424115, Control_c, 0, 64, 36
2, 424135, Control_c, 0, 64, 18
2, 424137, Note_on_c, 0, 80, 43
2, 424174, Control_c, 0, 64, 25
2, 424193, Control_c, 0, 64, 44
2, 424213, Control_c, 0, 64, 57
2, 424232, Control_c, 0, 64, 63
2, 424251, Control_c, 0, 64, 66
2, 424251, Control_c, 0, 67, 79
2, 424270, Control_c, 0, 64, 69
2, 424290, Control_c, 0, 64, 73
2, 424308, Control_c, 0, 64, 82
2, 424327, Control_c, 0, 64, 96
2, 424327, Control_c, 0, 67, 78
2, 424347, Control_c, 0, 64, 127
2, 424366, Control_c, 0, 67, 78
2, 424462, Control_c, 0, 67, 78
2, 424507, Note_on_c, 0, 82, 56
2, 424512, Note_on_c, 0, 80, 0
2, 424807, Control_c, 0, 64, 110
2, 424827, Control_c, 0, 64, 81
2, 424846, Control_c, 0, 64, 65
2, 424865, Control_c, 0, 64, 49
2, 424877, Note_on_c, 0, 61, 45
2, 424884, Control_c, 0, 64, 37
2, 424884, Note_on_c, 0, 80, 55
2, 424904, Control_c, 0, 64, 38
2, 424922, Control_c, 0, 64, 47
2, 424922, Control_c, 0, 67, 78
2, 424933, Note_on_c, 0, 68, 0
2, 424942, Control_c, 0, 64, 58
2, 424961, Control_c, 0, 64, 63
2, 424981, Control_c, 0, 64, 67
2, 424999, Control_c, 0, 64, 71
2, 424999, Control_c, 0, 67, 78
2, 425019, Control_c, 0, 64, 78
2, 425038, Control_c, 0, 64, 91
2, 425057, Control_c, 0, 64, 127
2, 425096, Control_c, 0, 67, 78
2, 425213, Control_c, 0, 67, 78
2, 425247, Note_on_c, 0, 78, 61
2, 425315, Note_on_c, 0, 56, 0
2, 425327, Control_c, 0, 67, 78
2, 425404, Control_c, 0, 67, 78
2, 425597, Control_c, 0, 64, 87
2, 425616, Control_c, 0, 64, 66
2, 425632, Note_on_c, 0, 68, 46
2, 425635, Control_c, 0, 64, 48
2, 425635, Control_c, 0, 67, 78
2, 425646, Note_on_c, 0, 77, 53
2, 425655, Control_c, 0, 64, 9
2, 425673, Control_c, 0, 64, 0
2, 425673, Control_c, 0, 67, 77
2, 425680, Note_on_c, 0, 80, 0
2, 425686, Note_on_c, 0, 82, 0
2, 425691, Note_on_c, 0, 78, 0
2, 425712, Control_c, 0, 64, 11
2, 425731, Control_c, 0, 64, 35
2, 425749, Control_c, 0, 64, 52
2, 425768, Control_c, 0, 64, 60
2, 425768, Control_c, 0, 67, 78
2, 425788, Control_c, 0, 64, 63
2, 425807, Control_c, 0, 64, 65
2, 425826, Control_c, 0, 64, 67
2, 425845, Control_c, 0, 64, 71
2, 425865, Control_c, 0, 64, 78
2, 425883, Control_c, 0, 64, 91
2, 425903, Control_c, 0, 64, 105
2, 425922, Control_c, 0, 64, 127
2, 425939, Note_on_c, 0, 61, 0
2, 425974, Note_on_c, 0, 63, 45
2, 425987, Note_on_c, 0, 78, 70
2, 426144, Note_on_c, 0, 77, 0
2, 426173, Control_c, 0, 67, 78
2, 426326, Control_c, 0, 64, 108
2, 426346, Control_c, 0, 64, 87
2, 426364, Control_c, 0, 64, 71
2, 426384, Control_c, 0, 64, 59
2, 426387, Note_on_c, 0, 63, 0
2, 426392, Note_on_c, 0, 61, 45
2, 426392, Note_on_c, 0, 80, 69
2, 426403, Control_c, 0, 64, 38
2, 426422, Control_c, 0, 64, 32
2, 426441, Control_c, 0, 67, 78
2, 426461, Control_c, 0, 64, 37
2, 426480, Control_c, 0, 64, 49
2, 426499, Control_c, 0, 64, 58
2, 426518, Control_c, 0, 64, 63
2, 426538, Control_c, 0, 64, 65
2, 426557, Control_c, 0, 64, 68
2, 426557, Control_c, 0, 67, 78
2, 426576, Control_c, 0, 64, 72
2, 426595, Control_c, 0, 64, 78
2, 426602, Note_on_c, 0, 78, 0
2, 426615, Control_c, 0, 64, 88
2, 426633, Control_c, 0, 64, 98
2, 426653, Control_c, 0, 64, 106
2, 426672, Control_c, 0, 64, 108
2, 426672, Control_c, 0, 67, 78
2, 426727, Control_c, 0, 64, 108
2, 426727, Control_c, 0, 67, 78
2, 426734, Note_on_c, 0, 61, 0
2, 426747, Control_c, 0, 64, 109
2, 426755, Note_on_c, 0, 59, 52
2, 426766, Control_c, 0, 64, 110
2, 426785, Control_c, 0, 64, 110
2, 427035, Control_c, 0, 64, 110
2, 427054, Control_c, 0, 64, 106
2, 427073, Control_c, 0, 64, 95
2, 427093, Control_c, 0, 64, 79
2, 427106, Note_on_c, 0, 59, 0
2, 427112, Control_c, 0, 64, 65
2, 427128, Note_on_c, 0, 73, 63
2, 427131, Control_c, 0, 64, 44
2, 427135, Note_on_c, 0, 58, 33
2, 427150, Control_c, 0, 64, 29
2, 427188, Control_c, 0, 64, 31
2, 427207, Control_c, 0, 64, 45
2, 427227, Control_c, 0, 64, 57
2, 427246, Control_c, 0, 64, 62
2, 427265, Control_c, 0, 64, 66
2, 427284, Control_c, 0, 64, 69
2, 427284, Control_c, 0, 67, 79
2, 427304, Control_c, 0, 64, 74
2, 427322, Control_c, 0, 64, 82
2, 427342, Control_c, 0, 64, 96
2, 427361, Control_c, 0, 64, 127
2, 427419, Control_c, 0, 67, 78
2, 427476, Control_c, 0, 67, 79
2, 427525, Note_on_c, 0, 59, 50
2, 427542, Note_on_c, 0, 78, 62
2, 427543, Note_on_c, 0, 58, 0
2, 427660, Note_on_c, 0, 80, 0
2, 427802, Control_c, 0, 64, 102
2, 427821, Control_c, 0, 64, 76
2, 427840, Control_c, 0, 64, 63
2, 427860, Control_c, 0, 64, 48
2, 427878, Control_c, 0, 64, 44
2, 427891, Note_on_c, 0, 61, 42
2, 427895, Note_on_c, 0, 77, 56
2, 427898, Control_c, 0, 64, 46
2, 427904, Note_on_c, 0, 59, 0
2, 427905, Note_on_c, 0, 78, 0
2, 427917, Control_c, 0, 64, 54
2, 427921, Note_on_c, 0, 68, 0
2, 427937, Control_c, 0, 64, 61
2, 427955, Control_c, 0, 64, 65
2, 427975, Control_c, 0, 64, 68
2, 427995, Control_c, 0, 64, 73
2, 428014, Control_c, 0, 64, 81
2, 428033, Control_c, 0, 64, 96
2, 428053, Control_c, 0, 64, 127
2, 428130, Control_c, 0, 67, 78
2, 428256, Note_on_c, 0, 78, 54
2, 428258, Note_on_c, 0, 77, 0
2, 428302, Control_c, 0, 67, 78
2, 428395, Note_on_c, 0, 78, 0
2, 428419, Note_on_c, 0, 80, 58
2, 428571, Control_c, 0, 64, 117
2, 428590, Control_c, 0, 64, 83
2, 428610, Control_c, 0, 64, 66
2, 428612, Note_on_c, 0, 80, 0
2, 428615, Note_on_c, 0, 54, 38
2, 428625, Note_on_c, 0, 82, 54
2, 428629, Control_c, 0, 64, 49
2, 428648, Control_c, 0, 64, 37
2, 428659, Note_on_c, 0, 61, 0
2, 428687, Control_c, 0, 64, 43
2, 428706, Control_c, 0, 64, 54
2, 428725, Control_c, 0, 64, 61
2, 428745, Control_c, 0, 64, 64
2, 428763, Control_c, 0, 64, 66
2, 428783, Control_c, 0, 64, 70
2, 428797, Note_on_c, 0, 82, 0
2, 428800, Note_on_c, 0, 80, 48
2, 428802, Control_c, 0, 64, 76
2, 428822, Control_c, 0, 64, 88
2, 428840, Control_c, 0, 64, 111
2, 428860, Control_c, 0, 64, 127
2, 428860, Control_c, 0, 67, 77
2, 428991, Note_on_c, 0, 82, 58
2, 428994, Control_c, 0, 67, 78
2, 429007, Note_on_c, 0, 80, 0
2, 429071, Control_c, 0, 67, 77
2, 429167, Control_c, 0, 67, 78
2, 429340, Control_c, 0, 64, 95
2, 429355, Note_on_c, 0, 59, 36
2, 429359, Control_c, 0, 64, 73
2, 429377, Note_on_c, 0, 82, 0
2, 429378, Control_c, 0, 64, 59
2, 429385, Note_on_c, 0, 75, 60
2, 429397, Control_c, 0, 64, 38
2, 429417, Control_c, 0, 64, 35
2, 429436, Control_c, 0, 64, 36
2, 429455, Control_c, 0, 64, 48
2, 429474, Control_c, 0, 64, 59
2, 429494, Control_c, 0, 64, 64
2, 429512, Control_c, 0, 64, 68
2, 429532, Control_c, 0, 64, 74
2, 429551, Control_c, 0, 64, 85
2, 429571, Control_c, 0, 64, 106
2, 429587, Control_c, 0, 64, 127
2, 429695, Note_on_c, 0, 54, 0
2, 429722, Note_on_c, 0, 80, 54
2, 429741, Control_c, 0, 67, 78
2, 429837, Control_c, 0, 67, 78
2, 429857, Note_on_c, 0, 73, 0
2, 429866, Note_on_c, 0, 78, 48
2, 429915, Control_c, 0, 67, 78
2, 429934, Control_c, 0, 67, 79
2, 429992, Control_c, 0, 64, 106
2, 430011, Control_c, 0, 64, 78
2, 430030, Control_c, 0, 64, 63
2, 430035, Note_on_c, 0, 73, 60
2, 430050, Control_c, 0, 64, 53
2, 430059, Note_on_c, 0, 80, 0
2, 430084, Note_on_c, 0, 77, 53
2, 430087, Control_c, 0, 64, 57
2, 430093, Note_on_c, 0, 78, 0
2, 430107, Control_c, 0, 64, 62
2, 430126, Control_c, 0, 64, 66
2, 430145, Control_c, 0, 64, 71
2, 430164, Control_c, 0, 64, 79
2, 430184, Control_c, 0, 64, 94
2, 430202, Control_c, 0, 64, 127
2, 430279, Control_c, 0, 67, 78
2, 430337, Control_c, 0, 67, 79
2, 430454, Note_on_c, 0, 77, 0
2, 430462, Note_on_c, 0, 78, 62
2, 430465, Note_on_c, 0, 58, 50
2, 430513, Note_on_c, 0, 75, 0
2, 430526, Note_on_c, 0, 59, 0
2, 430552, Note_on_c, 0, 73, 0
2, 430567, Control_c, 0, 67, 79
2, 430644, Control_c, 0, 67, 79
2, 430721, Control_c, 0, 67, 79
2, 430741, Control_c, 0, 67, 80
2, 430779, Control_c, 0, 67, 80
2, 430798, Control_c, 0, 64, 100
2, 430817, Control_c, 0, 64, 74
2, 430828, Note_on_c, 0, 71, 71
2, 430836, Control_c, 0, 64, 58
2, 430854, Note_on_c, 0, 56, 49
2, 430856, Control_c, 0, 64, 38
2, 430856, Control_c, 0, 67, 80
2, 430875, Control_c, 0, 64, 37
2, 430894, Control_c, 0, 64, 38
2, 430895, Note_on_c, 0, 58, 0
2, 430913, Control_c, 0, 64, 47
2, 430933, Control_c, 0, 64, 58
2, 430933, Control_c, 0, 67, 80
2, 430952, Control_c, 0, 64, 63
2, 430971, Control_c, 0, 64, 67
2, 430990, Control_c, 0, 64, 71
2, 431009, Control_c, 0, 64, 78
2, 431028, Control_c, 0, 64, 93
2, 431047, Control_c, 0, 64, 127
2, 431047, Control_c, 0, 67, 80
2, 431086, Control_c, 0, 67, 79
2, 431126, Note_on_c, 0, 78, 0
2, 431179, Note_on_c, 0, 77, 65
2, 431182, Control_c, 0, 67, 80
2, 431522, Note_on_c, 0, 54, 48
2, 431526, Control_c, 0, 64, 99
2, 431546, Control_c, 0, 64, 75
2, 431561, Note_on_c, 0, 78, 59
2, 431565, Control_c, 0, 64, 63
2, 431565, Note_on_c, 0, 70, 71
2, 431576, Note_on_c, 0, 56, 0
2, 431584, Control_c, 0, 64, 51
2, 431603, Control_c, 0, 64, 50
2, 431616, Note_on_c, 0, 77, 0
2, 431623, Control_c, 0, 64, 54
2, 431623, Control_c, 0, 67, 79
2, 431642, Control_c, 0, 64, 61
2, 431661, Control_c, 0, 64, 65
2, 431663, Note_on_c, 0, 71, 0
2, 431680, Control_c, 0, 64, 69
2, 431700, Control_c, 0, 64, 77
2, 431700, Control_c, 0, 67, 80
2, 431718, Control_c, 0, 64, 92
2, 431738, Control_c, 0, 64, 127
2, 431815, Control_c, 0, 67, 79
2, 431846, Note_on_c, 0, 54, 0
2, 431944, Note_on_c, 0, 73, 71
2, 431946, Note_on_c, 0, 52, 51
2, 432092, Note_on_c, 0, 78, 0
2, 432152, Note_on_c, 0, 70, 0
2, 432286, Note_on_c, 0, 51, 47
2, 432299, Note_on_c, 0, 71, 71
2, 432301, Note_on_c, 0, 78, 67
2, 432333, Control_c, 0, 64, 96
2, 432346, Note_on_c, 0, 52, 0
2, 432352, Control_c, 0, 64, 70
2, 432372, Control_c, 0, 64, 56
2, 432391, Control_c, 0, 64, 39
2, 432391, Control_c, 0, 67, 79
2, 432409, Control_c, 0, 64, 39
2, 432409, Note_on_c, 0, 73, 0
2, 432429, Control_c, 0, 64, 43
2, 432445, Note_on_c, 0, 51, 0
2, 432448, Control_c, 0, 64, 54
2, 432468, Control_c, 0, 64, 62
2, 432471, Note_on_c, 0, 49, 56
2, 432487, Control_c, 0, 64, 66
2, 432487, Control_c, 0, 67, 79
2, 432507, Control_c, 0, 64, 69
2, 432526, Control_c, 0, 64, 74
2, 432545, Control_c, 0, 64, 84
2, 432564, Control_c, 0, 64, 99
2, 432584, Control_c, 0, 64, 127
2, 432584, Control_c, 0, 67, 79
2, 432642, Note_on_c, 0, 49, 0
2, 432649, Note_on_c, 0, 51, 55
2, 432737, Control_c, 0, 67, 79
2, 432754, Note_on_c, 0, 51, 0
2, 432795, Control_c, 0, 67, 79
2, 432798, Note_on_c, 0, 52, 51
2, 432910, Control_c, 0, 67, 79
2, 432987, Control_c, 0, 67, 79
2, 433025, Control_c, 0, 64, 103
2, 433044, Control_c, 0, 64, 87
2, 433057, Note_on_c, 0, 46, 53
2, 433058, Note_on_c, 0, 73, 74
2, 433064, Control_c, 0, 64, 76
2, 433082, Control_c, 0, 64, 68
2, 433099, Note_on_c, 0, 78, 0
2, 433102, Control_c, 0, 64, 61
2, 433118, Note_on_c, 0, 52, 0
2, 433121, Control_c, 0, 64, 50
2, 433141, Control_c, 0, 64, 44
2, 433159, Control_c, 0, 64, 41
2, 433179, Control_c, 0, 64, 38
2, 433198, Control_c, 0, 64, 36
2, 433217, Control_c, 0, 64, 36
2, 433423, Note_on_c, 0, 80, 67
2, 433424, Note_on_c, 0, 42, 47
2, 433440, Note_on_c, 0, 46, 0
2, 433752, Control_c, 0, 64, 36
2, 433771, Control_c, 0, 64, 39
2, 433789, Note_on_c, 0, 78, 62
2, 433790, Control_c, 0, 64, 44
2, 433791, Note_on_c, 0, 42, 0
2, 433804, Note_on_c, 0, 44, 49
2, 433810, Control_c, 0, 64, 48
2, 433829, Control_c, 0, 64, 53
2, 433848, Control_c, 0, 64, 58
2, 433867, Control_c, 0, 64, 61
2, 433887, Control_c, 0, 64, 63
2, 433888, Note_on_c, 0, 71, 0
2, 433905, Control_c, 0, 64, 65
2, 433925, Control_c, 0, 64, 67
2, 433944, Control_c, 0, 64, 71
2, 433964, Control_c, 0, 64, 77
2, 433965, Note_on_c, 0, 80, 0
2, 433982, Control_c, 0, 64, 86
2, 434002, Control_c, 0, 64, 101
2, 434021, Control_c, 0, 64, 116
2, 434040, Control_c, 0, 64, 127
2, 434145, Note_on_c, 0, 44, 0
2, 434150, Note_on_c, 0, 76, 61
2, 434172, Note_on_c, 0, 46, 46
2, 434174, Note_on_c, 0, 73, 0
2, 434174, Note_on_c, 0, 78, 0
2, 434212, Note_on_c, 0, 76, 0
2, 434384, Control_c, 0, 67, 78
2, 434422, Control_c, 0, 64, 123
2, 434442, Control_c, 0, 64, 117
2, 434460, Control_c, 0, 64, 112
2, 434480, Control_c, 0, 64, 107
2, 434499, Control_c, 0, 64, 102
2, 434518, Control_c, 0, 64, 96
2, 434528, Note_on_c, 0, 66, 70
2, 434537, Control_c, 0, 64, 86
2, 434548, Note_on_c, 0, 46, 0
2, 434556, Control_c, 0, 64, 77
2, 434557, Note_on_c, 0, 75, 54
2, 434576, Control_c, 0, 64, 69
2, 434576, Control_c, 0, 67, 78
2, 434576, Note_on_c, 0, 47, 44
2, 434594, Control_c, 0, 64, 63
2, 434614, Control_c, 0, 64, 56
2, 434633, Control_c, 0, 64, 51
2, 434653, Control_c, 0, 64, 49
2, 434671, Control_c, 0, 64, 47
2, 434691, Control_c, 0, 64, 45
2, 434711, Control_c, 0, 64, 43
2, 434730, Control_c, 0, 64, 40
2, 434749, Control_c, 0, 64, 39
2, 434769, Control_c, 0, 64, 38
2, 434788, Control_c, 0, 64, 37
2, 434807, Control_c, 0, 64, 36
2, 434864, Control_c, 0, 64, 36
2, 434899, Note_on_c, 0, 47, 0
2, 434923, Note_on_c, 0, 49, 45
2, 434940, Note_on_c, 0, 76, 50
2, 434951, Note_on_c, 0, 75, 0
2, 435315, Note_on_c, 0, 49, 0
2, 435330, Note_on_c, 0, 51, 38
2, 435334, Note_on_c, 0, 78, 59
2, 435355, Note_on_c, 0, 76, 0
2, 435382, Control_c, 0, 67, 77
2, 435574, Control_c, 0, 67, 77
2, 435634, Note_on_c, 0, 51, 0
2, 435684, Note_on_c, 0, 52, 44
2, 435803, Note_on_c, 0, 52, 0
2, 435845, Control_c, 0, 64, 36
2, 435850, Note_on_c, 0, 54, 45
2, 435902, Control_c, 0, 64, 37
2, 435998, Control_c, 0, 64, 37
2, 436019, Note_on_c, 0, 54, 0
2, 436036, Control_c, 0, 64, 38
2, 436046, Note_on_c, 0, 71, 58
2, 436049, Note_on_c, 0, 56, 43
2, 436056, Control_c, 0, 64, 38
2, 436075, Control_c, 0, 64, 39
2, 436076, Note_on_c, 0, 78, 0
2, 436094, Control_c, 0, 64, 41
2, 436113, Control_c, 0, 64, 43
2, 436133, Control_c, 0, 64, 46
2, 436152, Control_c, 0, 64, 49
2, 436171, Control_c, 0, 64, 51
2, 436190, Control_c, 0, 64, 54
2, 436210, Control_c, 0, 64, 57
2, 436229, Control_c, 0, 64, 59
2, 436248, Control_c, 0, 64, 61
2, 436267, Control_c, 0, 64, 62
2, 436287, Control_c, 0, 64, 63
2, 436305, Control_c, 0, 64, 64
2, 436325, Control_c, 0, 64, 66
2, 436340, Note_on_c, 0, 56, 0
2, 436344, Control_c, 0, 64, 69
2, 436364, Control_c, 0, 64, 73
2, 436367, Note_on_c, 0, 58, 46
2, 436382, Control_c, 0, 64, 81
2, 436402, Control_c, 0, 64, 92
2, 436421, Control_c, 0, 64, 104
2, 436440, Control_c, 0, 64, 116
2, 436459, Control_c, 0, 64, 121
2, 436482, Note_on_c, 0, 58, 0
2, 436544, Note_on_c, 0, 59, 45
2, 436668, Control_c, 0, 64, 119
2, 436688, Control_c, 0, 64, 112
2, 436707, Control_c, 0, 64, 99
2, 436710, Note_on_c, 0, 59, 0
2, 436726, Control_c, 0, 64, 84
2, 436740, Note_on_c, 0, 49, 46
2, 436745, Control_c, 0, 64, 71
2, 436750, Note_on_c, 0, 76, 63
2, 436765, Control_c, 0, 64, 63
2, 436784, Control_c, 0, 64, 52
2, 436803, Control_c, 0, 64, 44
2, 436822, Control_c, 0, 64, 42
2, 436842, Control_c, 0, 64, 40
2, 436860, Control_c, 0, 64, 39
2, 436863, Note_on_c, 0, 71, 0
2, 436880, Control_c, 0, 64, 37
2, 436899, Control_c, 0, 64, 36
2, 436937, Control_c, 0, 64, 35
2, 436976, Control_c, 0, 64, 35
2, 436994, Control_c, 0, 64, 34
2, 437123, Note_on_c, 0, 51, 42
2, 437151, Note_on_c, 0, 49, 0
2, 437225, Control_c, 0, 67, 76
2, 437267, Note_on_c, 0, 51, 0
2, 437306, Note_on_c, 0, 52, 49
2, 437399, Control_c, 0, 67, 76
2, 437443, Note_on_c, 0, 52, 0
2, 437496, Note_on_c, 0, 42, 54
2, 437821, Control_c, 0, 67, 75
2, 437855, Note_on_c, 0, 75, 61
2, 437858, Note_on_c, 0, 54, 43
2, 438216, Note_on_c, 0, 66, 0
2, 438224, Control_c, 0, 64, 35
2, 438241, Note_on_c, 0, 70, 61
2, 438244, Control_c, 0, 64, 37
2, 438251, Note_on_c, 0, 73, 58
2, 438263, Control_c, 0, 64, 44
2, 438283, Control_c, 0, 64, 50
2, 438301, Control_c, 0, 64, 55
2, 438321, Control_c, 0, 64, 59
2, 438340, Control_c, 0, 64, 62
2, 438343, Note_on_c, 0, 54, 0
2, 438359, Control_c, 0, 64, 63
2, 438378, Control_c, 0, 64, 65
2, 438397, Control_c, 0, 64, 67
2, 438417, Control_c, 0, 64, 71
2, 438435, Control_c, 0, 64, 77
2, 438444, Note_on_c, 0, 42, 0
2, 438455, Control_c, 0, 64, 86
2, 438474, Control_c, 0, 64, 98
2, 438494, Control_c, 0, 64, 112
2, 438512, Control_c, 0, 64, 127
2, 438512, Control_c, 0, 67, 75
2, 438551, Note_on_c, 0, 70, 0
2, 438630, Note_on_c, 0, 55, 54
2, 438724, Control_c, 0, 64, 123
2, 438743, Control_c, 0, 64, 119
2, 438763, Control_c, 0, 64, 117
2, 438781, Control_c, 0, 64, 115
2, 438801, Control_c, 0, 64, 113
2, 438820, Control_c, 0, 64, 112
2, 438839, Control_c, 0, 64, 110
2, 438858, Control_c, 0, 64, 107
2, 438877, Control_c, 0, 64, 104
2, 438897, Control_c, 0, 64, 100
2, 438915, Control_c, 0, 64, 97
2, 438935, Control_c, 0, 64, 93
2, 438954, Control_c, 0, 64, 87
2, 438974, Control_c, 0, 64, 81
2, 438992, Control_c, 0, 64, 74
2, 439010, Note_on_c, 0, 55, 0
2, 439012, Control_c, 0, 64, 67
2, 439018, Note_on_c, 0, 71, 59
2, 439019, Note_on_c, 0, 68, 52
2, 439020, Note_on_c, 0, 76, 0
2, 439029, Note_on_c, 0, 56, 37
2, 439031, Control_c, 0, 64, 61
2, 439050, Control_c, 0, 64, 55
2, 439066, Note_on_c, 0, 75, 0
2, 439069, Control_c, 0, 64, 51
2, 439086, Note_on_c, 0, 73, 0
2, 439089, Control_c, 0, 64, 47
2, 439108, Control_c, 0, 64, 42
2, 439127, Control_c, 0, 64, 36
2, 439146, Control_c, 0, 64, 28
2, 439166, Control_c, 0, 64, 22
2, 439184, Control_c, 0, 64, 19
2, 439204, Control_c, 0, 64, 18
2, 439223, Control_c, 0, 64, 11
2, 439243, Control_c, 0, 64, 0
2, 439393, Note_on_c, 0, 56, 0
2, 439398, Note_on_c, 0, 55, 43
2, 439781, Note_on_c, 0, 76, 68
2, 439785, Note_on_c, 0, 55, 0
2, 439799, Note_on_c, 0, 56, 43
2, 440106, Note_on_c, 0, 68, 0
2, 440159, Note_on_c, 0, 56, 0
2, 440163, Note_on_c, 0, 58, 46
2, 440518, Note_on_c, 0, 58, 0
2, 440529, Note_on_c, 0, 59, 40
2, 440535, Note_on_c, 0, 66, 66
2, 440586, Control_c, 0, 64, 9
2, 440606, Control_c, 0, 64, 20
2, 440616, Note_on_c, 0, 71, 0
2, 440624, Control_c, 0, 64, 29
2, 440644, Control_c, 0, 64, 39
2, 440663, Control_c, 0, 64, 46
2, 440683, Control_c, 0, 64, 53
2, 440701, Control_c, 0, 64, 58
2, 440721, Control_c, 0, 64, 61
2, 440721, Control_c, 0, 67, 75
2, 440740, Control_c, 0, 64, 64
2, 440759, Control_c, 0, 64, 66
2, 440778, Control_c, 0, 64, 67
2, 440797, Control_c, 0, 64, 70
2, 440817, Control_c, 0, 64, 73
2, 440835, Control_c, 0, 64, 79
2, 440855, Control_c, 0, 64, 87
2, 440874, Control_c, 0, 64, 100
2, 440894, Control_c, 0, 64, 123
2, 440898, Note_on_c, 0, 76, 0
2, 440909, Note_on_c, 0, 74, 55
2, 440912, Control_c, 0, 64, 127
2, 440913, Note_on_c, 0, 59, 0
2, 440929, Note_on_c, 0, 58, 41
2, 441257, Control_c, 0, 64, 98
2, 441276, Control_c, 0, 64, 82
2, 441296, Control_c, 0, 64, 71
2, 441305, Note_on_c, 0, 75, 67
2, 441308, Note_on_c, 0, 74, 0
2, 441312, Note_on_c, 0, 56, 45
2, 441314, Control_c, 0, 64, 63
2, 441314, Note_on_c, 0, 71, 66
2, 441322, Note_on_c, 0, 58, 0
2, 441334, Control_c, 0, 64, 55
2, 441353, Control_c, 0, 64, 49
2, 441373, Control_c, 0, 64, 46
2, 441391, Control_c, 0, 64, 43
2, 441411, Control_c, 0, 64, 39
2, 441431, Control_c, 0, 64, 32
2, 441450, Control_c, 0, 64, 27
2, 441469, Control_c, 0, 64, 26
2, 441508, Control_c, 0, 64, 25
2, 441527, Control_c, 0, 64, 23
2, 441546, Control_c, 0, 64, 21
2, 441566, Control_c, 0, 64, 19
2, 441623, Control_c, 0, 64, 18
2, 441662, Note_on_c, 0, 56, 0
2, 441673, Note_on_c, 0, 54, 51
2, 441835, Note_on_c, 0, 66, 0
2, 441949, Control_c, 0, 64, 20
2, 441969, Control_c, 0, 64, 25
2, 441988, Control_c, 0, 64, 31
2, 442007, Control_c, 0, 64, 38
2, 442026, Control_c, 0, 64, 47
2, 442031, Note_on_c, 0, 54, 0
2, 442045, Control_c, 0, 64, 54
2, 442058, Note_on_c, 0, 53, 46
2, 442064, Control_c, 0, 64, 58
2, 442084, Control_c, 0, 64, 62
2, 442103, Control_c, 0, 64, 63
2, 442121, Note_on_c, 0, 71, 0
2, 442123, Control_c, 0, 64, 65
2, 442141, Control_c, 0, 64, 66
2, 442161, Control_c, 0, 64, 68
2, 442179, Note_on_c, 0, 75, 0
2, 442180, Control_c, 0, 64, 71
2, 442199, Control_c, 0, 64, 76
2, 442218, Control_c, 0, 64, 82
2, 442237, Control_c, 0, 64, 88
2, 442257, Control_c, 0, 64, 92
2, 442314, Control_c, 0, 64, 92
2, 442392, Control_c, 0, 64, 92
2, 442403, Note_on_c, 0, 53, 0
2, 442411, Control_c, 0, 64, 91
2, 442430, Control_c, 0, 64, 89
2, 442444, Note_on_c, 0, 54, 46
2, 442448, Note_on_c, 0, 75, 75
2, 442450, Control_c, 0, 64, 86
2, 442469, Control_c, 0, 64, 82
2, 442488, Control_c, 0, 64, 77
2, 442507, Control_c, 0, 64, 72
2, 442527, Control_c, 0, 64, 67
2, 442545, Control_c, 0, 64, 63
2, 442565, Control_c, 0, 64, 59
2, 442584, Control_c, 0, 64, 54
2, 442604, Control_c, 0, 64, 50
2, 442622, Control_c, 0, 64, 47
2, 442642, Control_c, 0, 64, 44
2, 442661, Control_c, 0, 64, 40
2, 442679, Control_c, 0, 64, 36
2, 442699, Control_c, 0, 64, 32
2, 442718, Control_c, 0, 64, 28
2, 442738, Control_c, 0, 64, 25
2, 442756, Control_c, 0, 64, 24
2, 442776, Control_c, 0, 64, 23
2, 442815, Control_c, 0, 64, 22
2, 442837, Note_on_c, 0, 54, 0
2, 442844, Note_on_c, 0, 73, 73
2, 442856, Note_on_c, 0, 53, 42
2, 442861, Note_on_c, 0, 80, 67
2, 442872, Control_c, 0, 64, 21
2, 442925, Note_on_c, 0, 75, 0
2, 443232, Note_on_c, 0, 53, 0
2, 443235, Note_on_c, 0, 51, 43
2, 443236, Note_on_c, 0, 71, 77
2, 443278, Note_on_c, 0, 73, 0
2, 443508, Control_c, 0, 64, 22
2, 443547, Control_c, 0, 64, 24
2, 443566, Control_c, 0, 64, 26
2, 443585, Control_c, 0, 64, 31
2, 443590, Note_on_c, 0, 51, 0
2, 443603, Note_on_c, 0, 70, 78
2, 443604, Control_c, 0, 64, 39
2, 443609, Note_on_c, 0, 50, 43
2, 443624, Control_c, 0, 64, 48
2, 443642, Control_c, 0, 64, 54
2, 443653, Note_on_c, 0, 71, 0
2, 443662, Control_c, 0, 64, 57
2, 443681, Control_c, 0, 64, 61
2, 443701, Control_c, 0, 64, 63
2, 443719, Control_c, 0, 64, 65
2, 443739, Control_c, 0, 64, 67
2, 443758, Control_c, 0, 64, 72
2, 443778, Control_c, 0, 64, 78
2, 443778, Note_on_c, 0, 80, 0
2, 443784, Note_on_c, 0, 50, 0
2, 443796, Control_c, 0, 64, 88
2, 443816, Control_c, 0, 64, 103
2, 443835, Control_c, 0, 64, 127
2, 443873, Control_c, 0, 67, 76
2, 443942, Note_on_c, 0, 71, 73
2, 443942, Note_on_c, 0, 80, 66
2, 443946, Note_on_c, 0, 62, 52
2, 443975, Note_on_c, 0, 70, 0
2, 444065, Control_c, 0, 67, 76
2, 444091, Note_on_c, 0, 62, 0
2, 444127, Note_on_c, 0, 63, 49
2, 444138, Note_on_c, 0, 80, 0
2, 444258, Control_c, 0, 64, 110
2, 444276, Control_c, 0, 64, 84
2, 444296, Control_c, 0, 64, 68
2, 444301, Note_on_c, 0, 63, 0
2, 444310, Note_on_c, 0, 71, 0
2, 444316, Control_c, 0, 64, 50
2, 444319, Note_on_c, 0, 73, 63
2, 444323, Note_on_c, 0, 79, 59
2, 444335, Control_c, 0, 64, 26
2, 444354, Control_c, 0, 64, 24
2, 444357, Note_on_c, 0, 64, 38
2, 444392, Control_c, 0, 64, 26
2, 444411, Control_c, 0, 64, 35
2, 444431, Control_c, 0, 64, 44
2, 444450, Control_c, 0, 64, 55
2, 444469, Control_c, 0, 64, 60
2, 444488, Control_c, 0, 64, 63
2, 444508, Control_c, 0, 64, 65
2, 444527, Control_c, 0, 64, 69
2, 444546, Control_c, 0, 64, 74
2, 444565, Control_c, 0, 64, 84
2, 444585, Control_c, 0, 64, 101
2, 444603, Control_c, 0, 64, 127
2, 444679, Note_on_c, 0, 79, 0
2, 444682, Note_on_c, 0, 78, 62
2, 444687, Note_on_c, 0, 64, 0
2, 444699, Note_on_c, 0, 58, 37
2, 444988, Note_on_c, 0, 73, 0
2, 445005, Control_c, 0, 64, 104
2, 445024, Control_c, 0, 64, 81
2, 445043, Control_c, 0, 64, 66
2, 445054, Note_on_c, 0, 68, 66
2, 445058, Note_on_c, 0, 58, 0
2, 445063, Control_c, 0, 64, 50
2, 445082, Control_c, 0, 64, 36
2, 445088, Note_on_c, 0, 59, 32
2, 445120, Control_c, 0, 64, 36
2, 445140, Control_c, 0, 64, 45
2, 445158, Control_c, 0, 64, 54
2, 445158, Control_c, 0, 67, 77
2, 445163, Note_on_c, 0, 78, 0
2, 445178, Control_c, 0, 64, 60
2, 445197, Control_c, 0, 64, 63
2, 445217, Control_c, 0, 64, 66
2, 445235, Control_c, 0, 64, 70
2, 445255, Control_c, 0, 64, 77
2, 445275, Control_c, 0, 64, 94
2, 445294, Control_c, 0, 64, 127
2, 445355, Note_on_c, 0, 59, 0
2, 445360, Note_on_c, 0, 78, 61
2, 445428, Control_c, 0, 67, 77
2, 445481, Note_on_c, 0, 59, 49
2, 445517, Note_on_c, 0, 78, 0
2, 445528, Note_on_c, 0, 59, 0
2, 445559, Note_on_c, 0, 60, 41
2, 445599, Note_on_c, 0, 68, 0
2, 445715, Note_on_c, 0, 60, 0
2, 445716, Control_c, 0, 64, 105
2, 445736, Control_c, 0, 64, 81
2, 445745, Note_on_c, 0, 77, 61
2, 445755, Control_c, 0, 64, 66
2, 445756, Note_on_c, 0, 61, 47
2, 445774, Control_c, 0, 64, 53
2, 445775, Note_on_c, 0, 73, 48
2, 445793, Control_c, 0, 64, 34
2, 445813, Control_c, 0, 64, 28
2, 445832, Control_c, 0, 64, 24
2, 445850, Control_c, 0, 64, 22
2, 446111, Note_on_c, 0, 58, 47
2, 446112, Note_on_c, 0, 76, 61
2, 446163, Note_on_c, 0, 61, 0
2, 446482, Control_c, 0, 64, 25
2, 446496, Note_on_c, 0, 75, 57
2, 446498, Note_on_c, 0, 55, 41
2, 446502, Control_c, 0, 64, 32
2, 446509, Note_on_c, 0, 58, 0
2, 446521, Control_c, 0, 64, 42
2, 446521, Control_c, 0, 67, 77
2, 446540, Control_c, 0, 64, 50
2, 446556, Note_on_c, 0, 76, 0
2, 446559, Control_c, 0, 64, 55
2, 446566, Note_on_c, 0, 77, 0
2, 446579, Control_c, 0, 64, 59
2, 446597, Control_c, 0, 64, 62
2, 446617, Control_c, 0, 64, 63
2, 446636, Control_c, 0, 64, 64
2, 446656, Control_c, 0, 64, 65
2, 446674, Control_c, 0, 64, 66
2, 446694, Control_c, 0, 64, 66
2, 446698, Note_on_c, 0, 73, 0
2, 446713, Control_c, 0, 64, 67
2, 446751, Control_c, 0, 64, 67
2, 446790, Control_c, 0, 64, 67
2, 446808, Control_c, 0, 64, 66
2, 446828, Control_c, 0, 64, 65
2, 446845, Note_on_c, 0, 75, 0
2, 446847, Control_c, 0, 64, 63
2, 446862, Note_on_c, 0, 71, 56
2, 446864, Note_on_c, 0, 56, 44
2, 446867, Control_c, 0, 64, 61
2, 446886, Control_c, 0, 64, 57
2, 446906, Control_c, 0, 64, 52
2, 446906, Control_c, 0, 67, 76
2, 446919, Note_on_c, 0, 55, 0
2, 446925, Control_c, 0, 64, 44
2, 446944, Control_c, 0, 64, 34
2, 446963, Control_c, 0, 64, 23
2, 446983, Control_c, 0, 64, 15
2, 447002, Control_c, 0, 64, 9
2, 447021, Control_c, 0, 64, 0
2, 447212, Control_c, 0, 64, 13
2, 447232, Control_c, 0, 64, 24
2, 447247, Note_on_c, 0, 70, 54
2, 447250, Note_on_c, 0, 73, 59
2, 447251, Control_c, 0, 64, 33
2, 447269, Note_on_c, 0, 71, 0
2, 447271, Control_c, 0, 64, 43
2, 447289, Control_c, 0, 64, 52
2, 447289, Control_c, 0, 67, 76
2, 447309, Control_c, 0, 64, 60
2, 447328, Control_c, 0, 64, 64
2, 447347, Control_c, 0, 64, 67
2, 447366, Control_c, 0, 64, 70
2, 447386, Control_c, 0, 64, 75
2, 447405, Control_c, 0, 64, 82
2, 447424, Control_c, 0, 64, 91
2, 447443, Control_c, 0, 64, 102
2, 447463, Control_c, 0, 64, 118
2, 447482, Control_c, 0, 64, 127
2, 447482, Control_c, 0, 67, 75
2, 447532, Note_on_c, 0, 73, 0
2, 447602, Note_on_c, 0, 56, 0
2, 447611, Note_on_c, 0, 55, 50
2, 447942, Control_c, 0, 64, 97
2, 447952, Note_on_c, 0, 55, 0
2, 447961, Control_c, 0, 64, 79
2, 447980, Control_c, 0, 64, 66
2, 447985, Note_on_c, 0, 56, 45
2, 447999, Control_c, 0, 64, 49
2, 448000, Note_on_c, 0, 71, 55
2, 448019, Control_c, 0, 64, 0
2, 448027, Note_on_c, 0, 70, 0
2, 448096, Control_c, 0, 64, 19
2, 448114, Control_c, 0, 64, 43
2, 448134, Control_c, 0, 64, 56
2, 448153, Control_c, 0, 64, 62
2, 448172, Control_c, 0, 64, 65
2, 448191, Control_c, 0, 64, 67
2, 448210, Control_c, 0, 64, 70
2, 448230, Control_c, 0, 64, 76
2, 448248, Control_c, 0, 64, 84
2, 448268, Control_c, 0, 64, 94
2, 448287, Control_c, 0, 64, 103
2, 448307, Control_c, 0, 64, 105
2, 448359, Note_on_c, 0, 56, 0
2, 448364, Control_c, 0, 64, 105
2, 448380, Note_on_c, 0, 54, 50
2, 448402, Control_c, 0, 64, 106
2, 448408, Note_on_c, 0, 63, 63
2, 448482, Control_c, 0, 67, 75
2, 448501, Control_c, 0, 64, 105
2, 448539, Control_c, 0, 64, 105
2, 448713, Control_c, 0, 64, 104
2, 448731, Control_c, 0, 64, 101
2, 448737, Note_on_c, 0, 54, 0
2, 448751, Control_c, 0, 64, 90
2, 448768, Note_on_c, 0, 52, 58
2, 448768, Note_on_c, 0, 68, 76
2, 448769, Control_c, 0, 64, 76
2, 448779, Note_on_c, 0, 71, 0
2, 448789, Control_c, 0, 64, 65
2, 448807, Control_c, 0, 64, 52
2, 448807, Control_c, 0, 67, 74
2, 448827, Control_c, 0, 64, 43
2, 448846, Control_c, 0, 64, 44
2, 448846, Control_c, 0, 67, 74
2, 448866, Control_c, 0, 64, 50
2, 448884, Control_c, 0, 64, 58
2, 448903, Control_c, 0, 64, 63
2, 448923, Control_c, 0, 64, 65
2, 448941, Control_c, 0, 64, 67
2, 448961, Control_c, 0, 64, 69
2, 448980, Control_c, 0, 64, 73
2, 449000, Control_c, 0, 64, 78
2, 449018, Control_c, 0, 64, 82
2, 449038, Control_c, 0, 64, 85
2, 449038, Control_c, 0, 67, 73
2, 449057, Control_c, 0, 64, 86
2, 449095, Control_c, 0, 64, 85
2, 449116, Control_c, 0, 64, 85
2, 449122, Note_on_c, 0, 71, 75
2, 449131, Note_on_c, 0, 52, 0
2, 449135, Control_c, 0, 64, 84
2, 449137, Note_on_c, 0, 51, 58
2, 449148, Note_on_c, 0, 68, 0
2, 449173, Control_c, 0, 64, 83
2, 449193, Control_c, 0, 64, 83
2, 449211, Control_c, 0, 64, 82
2, 449226, Note_on_c, 0, 63, 0
2, 449231, Control_c, 0, 64, 80
2, 449250, Control_c, 0, 64, 79
2, 449270, Control_c, 0, 64, 79
2, 449385, Control_c, 0, 64, 78
2, 449404, Control_c, 0, 64, 77
2, 449422, Control_c, 0, 64, 73
2, 449442, Control_c, 0, 64, 68
2, 449461, Control_c, 0, 64, 62
2, 449480, Control_c, 0, 64, 47
2, 449493, Note_on_c, 0, 51, 0
2, 449494, Note_on_c, 0, 49, 61
2, 449497, Note_on_c, 0, 70, 79
2, 449499, Control_c, 0, 64, 0
2, 449535, Note_on_c, 0, 71, 0
2, 449634, Control_c, 0, 64, 35
2, 449653, Control_c, 0, 64, 51
2, 449673, Control_c, 0, 64, 60
2, 449691, Control_c, 0, 64, 64
2, 449711, Control_c, 0, 64, 66
2, 449730, Control_c, 0, 64, 69
2, 449750, Control_c, 0, 64, 72
2, 449768, Control_c, 0, 64, 78
2, 449788, Control_c, 0, 64, 88
2, 449807, Control_c, 0, 64, 102
2, 449826, Control_c, 0, 64, 127
2, 449845, Control_c, 0, 67, 73
2, 449880, Note_on_c, 0, 49, 0
2, 449884, Note_on_c, 0, 68, 79
2, 449906, Note_on_c, 0, 50, 53
2, 449915, Note_on_c, 0, 70, 0
2, 450133, Control_c, 0, 67, 73
2, 450171, Control_c, 0, 64, 112
2, 450191, Control_c, 0, 64, 82
2, 450210, Control_c, 0, 64, 66
2, 450230, Control_c, 0, 64, 50
2, 450230, Control_c, 0, 67, 73
2, 450233, Note_on_c, 0, 50, 0
2, 450246, Note_on_c, 0, 68, 0
2, 450248, Control_c, 0, 64, 43
2, 450253, Note_on_c, 0, 51, 47
2, 450268, Control_c, 0, 64, 44
2, 450276, Note_on_c, 0, 66, 76
2, 450287, Control_c, 0, 64, 49
2, 450306, Control_c, 0, 64, 57
2, 450325, Control_c, 0, 64, 61
2, 450325, Control_c, 0, 67, 73
2, 450344, Control_c, 0, 64, 64
2, 450364, Control_c, 0, 64, 66
2, 450382, Control_c, 0, 64, 70
2, 450402, Control_c, 0, 64, 76
2, 450421, Control_c, 0, 64, 88
2, 450440, Control_c, 0, 64, 110
2, 450459, Control_c, 0, 64, 127
2, 450641, Note_on_c, 0, 78, 81
2, 450650, Note_on_c, 0, 51, 0
2, 450655, Note_on_c, 0, 46, 54
2, 450702, Note_on_c, 0, 66, 0
2, 450737, Note_on_c, 0, 78, 0
2, 451052, Note_on_c, 0, 47, 54
2, 451053, Note_on_c, 0, 68, 75
2, 451055, Control_c, 0, 64, 105
2, 451075, Control_c, 0, 64, 88
2, 451093, Note_on_c, 0, 46, 0
2, 451094, Control_c, 0, 64, 76
2, 451114, Control_c, 0, 64, 67
2, 451132, Control_c, 0, 64, 59
2, 451152, Control_c, 0, 64, 49
2, 451171, Control_c, 0, 64, 43
2, 451190, Control_c, 0, 64, 37
2, 451209, Control_c, 0, 64, 30
2, 451229, Control_c, 0, 64, 18
2, 451248, Control_c, 0, 64, 0
2, 451415, Note_on_c, 0, 47, 0
2, 451448, Note_on_c, 0, 66, 65
2, 451450, Note_on_c, 0, 48, 44
2, 451531, Note_on_c, 0, 68, 0
2, 451800, Note_on_c, 0, 49, 48
2, 451826, Note_on_c, 0, 64, 62
2, 451828, Note_on_c, 0, 66, 0
2, 451843, Note_on_c, 0, 48, 0
2, 452195, Note_on_c, 0, 49, 0
2, 452201, Note_on_c, 0, 44, 43
2, 452219, Note_on_c, 0, 63, 51
2, 452236, Note_on_c, 0, 64, 0
2, 452606, Note_on_c, 0, 46, 45
2, 452627, Note_on_c, 0, 62, 56
2, 452653, Note_on_c, 0, 44, 0
2, 452660, Note_on_c, 0, 63, 0
2, 452706, Control_c, 0, 64, 22
2, 452725, Control_c, 0, 64, 37
2, 452744, Control_c, 0, 64, 48
2, 452764, Control_c, 0, 64, 56
2, 452782, Control_c, 0, 64, 60
2, 452802, Control_c, 0, 64, 63
2, 452821, Control_c, 0, 64, 64
2, 452840, Control_c, 0, 64, 66
2, 452859, Control_c, 0, 64, 67
2, 452879, Control_c, 0, 64, 70
2, 452898, Control_c, 0, 64, 73
2, 452917, Control_c, 0, 64, 77
2, 452936, Control_c, 0, 64, 83
2, 452956, Control_c, 0, 64, 89
2, 452961, Note_on_c, 0, 66, 62
2, 452975, Control_c, 0, 64, 94
2, 452994, Control_c, 0, 64, 99
2, 453001, Note_on_c, 0, 62, 0
2, 453013, Control_c, 0, 64, 101
2, 453033, Control_c, 0, 64, 102
2, 453051, Control_c, 0, 64, 103
2, 453071, Control_c, 0, 64, 104
2, 453090, Control_c, 0, 64, 105
2, 453110, Control_c, 0, 64, 107
2, 453128, Control_c, 0, 64, 112
2, 453144, Note_on_c, 0, 65, 56
2, 453148, Control_c, 0, 64, 119
2, 453167, Control_c, 0, 64, 127
2, 453224, Control_c, 0, 64, 121
2, 453236, Note_on_c, 0, 66, 0
2, 453244, Control_c, 0, 64, 99
2, 453262, Control_c, 0, 64, 77
2, 453282, Control_c, 0, 64, 65
2, 453301, Control_c, 0, 64, 52
2, 453301, Control_c, 0, 67, 73
2, 453320, Control_c, 0, 64, 42
2, 453337, Note_on_c, 0, 63, 59
2, 453339, Control_c, 0, 64, 42
2, 453342, Note_on_c, 0, 65, 0
2, 453342, Note_on_c, 0, 66, 65
2, 453359, Control_c, 0, 64, 49
2, 453378, Control_c, 0, 64, 58
2, 453397, Control_c, 0, 64, 63
2, 453416, Control_c, 0, 64, 66
2, 453436, Control_c, 0, 64, 69
2, 453455, Control_c, 0, 64, 76
2, 453474, Control_c, 0, 64, 88
2, 453493, Control_c, 0, 64, 113
2, 453513, Control_c, 0, 64, 127
2, 453513, Control_c, 0, 67, 72
2, 453551, Control_c, 0, 67, 72
2, 453707, Note_on_c, 0, 66, 0
2, 453718, Note_on_c, 0, 65, 67
2, 453722, Note_on_c, 0, 63, 0
2, 453734, Note_on_c, 0, 69, 58
2, 453771, Note_on_c, 0, 69, 0
2, 453838, Control_c, 0, 67, 72
2, 453915, Control_c, 0, 67, 72
2, 454030, Control_c, 0, 64, 112
2, 454049, Control_c, 0, 64, 79
2, 454069, Control_c, 0, 64, 62
2, 454071, Note_on_c, 0, 70, 81
2, 454087, Control_c, 0, 64, 51
2, 454107, Control_c, 0, 64, 55
2, 454126, Control_c, 0, 64, 61
2, 454146, Control_c, 0, 64, 65
2, 454149, Note_on_c, 0, 65, 0
2, 454164, Control_c, 0, 64, 72
2, 454183, Control_c, 0, 64, 87
2, 454203, Control_c, 0, 64, 127
2, 454395, Note_on_c, 0, 62, 74
2, 454403, Note_on_c, 0, 53, 68
2, 454433, Control_c, 0, 64, 87
2, 454452, Control_c, 0, 64, 69
2, 454472, Control_c, 0, 64, 61
2, 454490, Control_c, 0, 64, 60
2, 454490, Control_c, 0, 67, 71
2, 454490, Note_on_c, 0, 70, 0
2, 454510, Control_c, 0, 64, 63
2, 454528, Control_c, 0, 64, 66
2, 454548, Control_c, 0, 64, 70
2, 454566, Control_c, 0, 64, 79
2, 454566, Control_c, 0, 67, 72
2, 454586, Control_c, 0, 64, 95
2, 454600, Note_on_c, 0, 60, 73
2, 454605, Control_c, 0, 64, 127
2, 454664, Note_on_c, 0, 62, 0
2, 454682, Control_c, 0, 67, 71
2, 454777, Control_c, 0, 64, 82
2, 454797, Control_c, 0, 64, 65
2, 454810, Note_on_c, 0, 58, 71
2, 454811, Note_on_c, 0, 62, 72
2, 454816, Control_c, 0, 64, 50
2, 454816, Control_c, 0, 67, 72
2, 454823, Note_on_c, 0, 60, 0
2, 454835, Control_c, 0, 64, 45
2, 454854, Control_c, 0, 64, 48
2, 454854, Control_c, 0, 67, 71
2, 454875, Control_c, 0, 64, 57
2, 454894, Control_c, 0, 64, 63
2, 454913, Control_c, 0, 64, 68
2, 454932, Control_c, 0, 64, 75
2, 454952, Control_c, 0, 64, 88
2, 454970, Control_c, 0, 64, 123
2, 454990, Control_c, 0, 64, 127
2, 455136, Note_on_c, 0, 65, 77
2, 455163, Control_c, 0, 67, 72
2, 455165, Note_on_c, 0, 62, 0
2, 455191, Note_on_c, 0, 65, 0
2, 455355, Control_c, 0, 67, 72
2, 455393, Control_c, 0, 67, 73
2, 455486, Control_c, 0, 67, 72
2, 455538, Note_on_c, 0, 77, 80
2, 455539, Note_on_c, 0, 70, 82
2, 455545, Control_c, 0, 67, 73
2, 455564, Control_c, 0, 64, 99
2, 455583, Control_c, 0, 64, 73
2, 455583, Control_c, 0, 67, 73
2, 455602, Control_c, 0, 64, 54
2, 455604, Note_on_c, 0, 53, 0
2, 455622, Control_c, 0, 64, 32
2, 455622, Control_c, 0, 67, 73
2, 455660, Control_c, 0, 64, 35
2, 455679, Control_c, 0, 64, 47
2, 455691, Note_on_c, 0, 58, 0
2, 455699, Control_c, 0, 64, 58
2, 455710, Note_on_c, 0, 46, 0
2, 455717, Control_c, 0, 64, 63
2, 455717, Control_c, 0, 67, 73
2, 455737, Control_c, 0, 64, 67
2, 455756, Control_c, 0, 64, 71
2, 455756, Control_c, 0, 67, 74
2, 455776, Control_c, 0, 64, 79
2, 455794, Control_c, 0, 64, 96
2, 455813, Control_c, 0, 64, 127
2, 455834, Control_c, 0, 67, 73
2, 455891, Control_c, 0, 67, 73
2, 455922, Note_on_c, 0, 59, 72
2, 455929, Control_c, 0, 67, 73
2, 455968, Control_c, 0, 67, 74
2, 456064, Control_c, 0, 67, 73
2, 456122, Control_c, 0, 67, 74
2, 456141, Control_c, 0, 67, 74
2, 456180, Control_c, 0, 67, 75
2, 456295, Control_c, 0, 64, 90
2, 456314, Control_c, 0, 64, 69
2, 456329, Note_on_c, 0, 58, 70
2, 456332, Control_c, 0, 64, 58
2, 456332, Control_c, 0, 67, 75
2, 456352, Control_c, 0, 64, 50
2, 456371, Control_c, 0, 64, 52
2, 456376, Note_on_c, 0, 59, 0
2, 456391, Control_c, 0, 64, 58
2, 456409, Control_c, 0, 64, 64
2, 456429, Control_c, 0, 64, 68
2, 456448, Control_c, 0, 64, 76
2, 456448, Control_c, 0, 67, 76
2, 456468, Control_c, 0, 64, 91
2, 456486, Control_c, 0, 64, 127
2, 456506, Control_c, 0, 67, 76
2, 456602, Note_on_c, 0, 77, 0
2, 456666, Note_on_c, 0, 71, 85
2, 456670, Note_on_c, 0, 56, 74
2, 456678, Control_c, 0, 67, 77
2, 456692, Note_on_c, 0, 70, 0
2, 456740, Note_on_c, 0, 58, 0
2, 456768, Note_on_c, 0, 71, 0
2, 456851, Control_c, 0, 67, 77
2, 456889, Control_c, 0, 67, 78
2, 457024, Control_c, 0, 67, 78
2, 457043, Control_c, 0, 67, 79
2, 457060, Note_on_c, 0, 54, 65
2, 457127, Note_on_c, 0, 82, 84
2, 457132, Note_on_c, 0, 70, 81
2, 457140, Control_c, 0, 64, 103
2, 457144, Note_on_c, 0, 56, 0
2, 457158, Control_c, 0, 64, 78
2, 457178, Control_c, 0, 64, 64
2, 457197, Control_c, 0, 64, 44
2, 457217, Control_c, 0, 64, 0
2, 457292, Control_c, 0, 67, 79
2, 457312, Control_c, 0, 67, 80
2, 457508, Note_on_c, 0, 56, 70
2, 457559, Note_on_c, 0, 54, 0
2, 457620, Control_c, 0, 67, 79
2, 457879, Note_on_c, 0, 58, 68
2, 457917, Note_on_c, 0, 56, 0
2, 457965, Control_c, 0, 64, 11
2, 457984, Control_c, 0, 64, 27
2, 458003, Control_c, 0, 64, 40
2, 458023, Control_c, 0, 64, 54
2, 458042, Control_c, 0, 64, 62
2, 458061, Control_c, 0, 64, 66
2, 458077, Note_on_c, 0, 70, 0
2, 458080, Control_c, 0, 64, 69
2, 458100, Control_c, 0, 64, 73
2, 458118, Control_c, 0, 64, 81
2, 458138, Control_c, 0, 64, 92
2, 458157, Control_c, 0, 64, 113
2, 458169, Note_on_c, 0, 82, 0
2, 458177, Control_c, 0, 64, 127
2, 458177, Control_c, 0, 67, 79
2, 458239, Note_on_c, 0, 68, 82
2, 458395, Note_on_c, 0, 68, 0
2, 458594, Note_on_c, 0, 51, 52
2, 458648, Note_on_c, 0, 66, 81
2, 458656, Control_c, 0, 64, 83
2, 458674, Control_c, 0, 64, 65
2, 458674, Control_c, 0, 67, 78
2, 458693, Control_c, 0, 64, 43
2, 458699, Note_on_c, 0, 58, 0
2, 458713, Control_c, 0, 64, 24
2, 458732, Control_c, 0, 67, 78
2, 458751, Control_c, 0, 64, 38
2, 458770, Control_c, 0, 64, 55
2, 458790, Control_c, 0, 64, 63
2, 458808, Control_c, 0, 64, 67
2, 458828, Control_c, 0, 64, 73
2, 458833, Note_on_c, 0, 66, 0
2, 458847, Control_c, 0, 64, 85
2, 458867, Control_c, 0, 64, 114
2, 458885, Control_c, 0, 64, 127
2, 458924, Control_c, 0, 67, 77
2, 458973, Note_on_c, 0, 53, 60
2, 459018, Note_on_c, 0, 51, 0
2, 459136, Control_c, 0, 67, 77
2, 459157, Note_on_c, 0, 54, 70
2, 459197, Note_on_c, 0, 53, 0
2, 459327, Control_c, 0, 67, 76
2, 459347, Control_c, 0, 64, 104
2, 459365, Control_c, 0, 64, 73
2, 459365, Control_c, 0, 67, 76
2, 459372, Note_on_c, 0, 56, 57
2, 459378, Note_on_c, 0, 83, 83
2, 459385, Control_c, 0, 64, 56
2, 459404, Control_c, 0, 64, 0
2, 459428, Note_on_c, 0, 54, 0
2, 459462, Control_c, 0, 64, 27
2, 459481, Control_c, 0, 64, 54
2, 459500, Control_c, 0, 64, 64
2, 459519, Control_c, 0, 64, 68
2, 459539, Control_c, 0, 64, 73
2, 459557, Control_c, 0, 64, 83
2, 459577, Control_c, 0, 64, 103
2, 459596, Control_c, 0, 64, 127
2, 459638, Note_on_c, 0, 83, 0
2, 459765, Note_on_c, 0, 68, 62
2, 459812, Note_on_c, 0, 68, 0
2, 460127, Note_on_c, 0, 82, 82
2, 460142, Note_on_c, 0, 70, 65
2, 460153, Control_c, 0, 64, 87
2, 460172, Control_c, 0, 64, 67
2, 460191, Control_c, 0, 64, 42
2, 460210, Control_c, 0, 64, 0
2, 460210, Control_c, 0, 67, 75
2, 460268, Control_c, 0, 64, 22
2, 460287, Control_c, 0, 64, 50
2, 460308, Control_c, 0, 64, 62
2, 460326, Control_c, 0, 64, 66
2, 460346, Control_c, 0, 64, 70
2, 460365, Control_c, 0, 64, 79
2, 460384, Control_c, 0, 64, 96
2, 460403, Control_c, 0, 64, 127
2, 460442, Control_c, 0, 67, 75
2, 460480, Control_c, 0, 67, 74
2, 460518, Note_on_c, 0, 54, 55
2, 460557, Control_c, 0, 67, 75
2, 460578, Note_on_c, 0, 56, 0
2, 460652, Control_c, 0, 67, 74
2, 460860, Note_on_c, 0, 53, 51
2, 460880, Note_on_c, 0, 54, 0
2, 460882, Note_on_c, 0, 80, 80
2, 460883, Control_c, 0, 64, 112
2, 460903, Control_c, 0, 64, 78
2, 460922, Control_c, 0, 64, 63
2, 460941, Control_c, 0, 64, 41
2, 460960, Control_c, 0, 64, 34
2, 460960, Control_c, 0, 67, 74
2, 460980, Control_c, 0, 64, 36
2, 460998, Control_c, 0, 64, 50
2, 461018, Control_c, 0, 64, 61
2, 461037, Control_c, 0, 64, 65
2, 461057, Control_c, 0, 64, 69
2, 461075, Control_c, 0, 64, 75
2, 461094, Control_c, 0, 64, 87
2, 461114, Control_c, 0, 64, 105
2, 461132, Control_c, 0, 64, 127
2, 461169, Note_on_c, 0, 70, 0
2, 461171, Control_c, 0, 67, 73
2, 461222, Note_on_c, 0, 53, 0
2, 461271, Note_on_c, 0, 62, 50
2, 461615, Note_on_c, 0, 62, 0
2, 461639, Note_on_c, 0, 63, 49
2, 461651, Control_c, 0, 64, 86
2, 461658, Note_on_c, 0, 78, 79
2, 461671, Control_c, 0, 64, 67
2, 461689, Control_c, 0, 64, 48
2, 461709, Control_c, 0, 64, 0
2, 461709, Control_c, 0, 67, 73
2, 461761, Note_on_c, 0, 80, 0
2, 461766, Control_c, 0, 64, 27
2, 461769, Note_on_c, 0, 82, 0
2, 461786, Control_c, 0, 64, 52
2, 461805, Control_c, 0, 64, 61
2, 461824, Control_c, 0, 64, 65
2, 461843, Control_c, 0, 64, 69
2, 461863, Control_c, 0, 64, 74
2, 461882, Control_c, 0, 64, 86
2, 461901, Control_c, 0, 64, 107
2, 461920, Control_c, 0, 64, 127
2, 461958, Control_c, 0, 67, 72
2, 462011, Note_on_c, 0, 63, 0
2, 462037, Note_on_c, 0, 65, 48
2, 462054, Control_c, 0, 67, 73
2, 462169, Control_c, 0, 67, 72
2, 462175, Note_on_c, 0, 65, 0
2, 462201, Note_on_c, 0, 66, 48
2, 462263, Control_c, 0, 67, 73
2, 462359, Control_c, 0, 67, 72
2, 462389, Note_on_c, 0, 66, 0
2, 462395, Note_on_c, 0, 80, 76
2, 462397, Control_c, 0, 64, 118
2, 462411, Note_on_c, 0, 65, 45
2, 462417, Control_c, 0, 64, 81
2, 462436, Control_c, 0, 64, 64
2, 462445, Note_on_c, 0, 68, 37
2, 462454, Control_c, 0, 64, 34
2, 462474, Control_c, 0, 64, 0
2, 462518, Note_on_c, 0, 78, 0
2, 462531, Control_c, 0, 64, 35
2, 462552, Control_c, 0, 64, 54
2, 462571, Control_c, 0, 64, 62
2, 462571, Control_c, 0, 67, 72
2, 462590, Control_c, 0, 64, 66
2, 462609, Control_c, 0, 64, 70
2, 462629, Control_c, 0, 64, 76
2, 462647, Control_c, 0, 64, 86
2, 462667, Control_c, 0, 64, 103
2, 462686, Control_c, 0, 64, 127
2, 462784, Note_on_c, 0, 65, 0
2, 462817, Note_on_c, 0, 63, 42
2, 463192, Note_on_c, 0, 63, 0
2, 463202, Note_on_c, 0, 62, 39
2, 463204, Control_c, 0, 64, 99
2, 463224, Control_c, 0, 64, 78
2, 463243, Control_c, 0, 64, 63
2, 463263, Control_c, 0, 64, 29
2, 463263, Note_on_c, 0, 82, 72
2, 463281, Control_c, 0, 64, 0
2, 463366, Note_on_c, 0, 80, 0
2, 463378, Control_c, 0, 64, 41
2, 463397, Control_c, 0, 64, 56
2, 463415, Control_c, 0, 64, 62
2, 463435, Control_c, 0, 64, 65
2, 463454, Control_c, 0, 64, 67
2, 463473, Control_c, 0, 64, 71
2, 463492, Control_c, 0, 64, 77
2, 463513, Control_c, 0, 64, 88
2, 463513, Control_c, 0, 67, 71
2, 463532, Control_c, 0, 64, 104
2, 463551, Control_c, 0, 64, 127
2, 463628, Control_c, 0, 67, 72
2, 463650, Note_on_c, 0, 68, 0
2, 463658, Note_on_c, 0, 62, 0
2, 463676, Note_on_c, 0, 66, 45
2, 463686, Note_on_c, 0, 63, 41
2, 463916, Control_c, 0, 67, 71
2, 464029, Note_on_c, 0, 66, 0
2, 464031, Control_c, 0, 64, 123
2, 464042, Note_on_c, 0, 65, 56
2, 464050, Control_c, 0, 64, 86
2, 464070, Control_c, 0, 64, 68
2, 464088, Control_c, 0, 64, 53
2, 464108, Control_c, 0, 64, 32
2, 464146, Control_c, 0, 64, 39
2, 464146, Control_c, 0, 67, 71
2, 464164, Control_c, 0, 64, 54
2, 464184, Control_c, 0, 64, 62
2, 464203, Control_c, 0, 64, 66
2, 464203, Control_c, 0, 67, 71
2, 464223, Control_c, 0, 64, 69
2, 464241, Control_c, 0, 64, 75
2, 464261, Control_c, 0, 64, 87
2, 464280, Control_c, 0, 64, 106
2, 464299, Control_c, 0, 64, 127
2, 464299, Control_c, 0, 67, 71
2, 464403, Note_on_c, 0, 65, 0
2, 464418, Note_on_c, 0, 61, 52
2, 464452, Control_c, 0, 67, 71
2, 464498, Note_on_c, 0, 63, 0
2, 464510, Control_c, 0, 67, 71
2, 464810, Note_on_c, 0, 67, 38
2, 464837, Control_c, 0, 67, 71
2, 464866, Note_on_c, 0, 61, 0
2, 464875, Control_c, 0, 64, 112
2, 464894, Control_c, 0, 64, 81
2, 464912, Note_on_c, 0, 75, 72
2, 464913, Control_c, 0, 64, 65
2, 464913, Control_c, 0, 67, 71
2, 464932, Control_c, 0, 64, 40
2, 464952, Control_c, 0, 64, 0
2, 465009, Control_c, 0, 64, 39
2, 465029, Control_c, 0, 64, 57
2, 465029, Control_c, 0, 67, 71
2, 465047, Control_c, 0, 64, 63
2, 465067, Control_c, 0, 64, 66
2, 465086, Control_c, 0, 64, 70
2, 465107, Control_c, 0, 64, 75
2, 465115, Note_on_c, 0, 82, 0
2, 465125, Control_c, 0, 64, 85
2, 465145, Control_c, 0, 64, 101
2, 465164, Control_c, 0, 64, 127
2, 465164, Control_c, 0, 67, 71
2, 465172, Note_on_c, 0, 67, 0
2, 465236, Note_on_c, 0, 63, 42
2, 465260, Control_c, 0, 67, 71
2, 465261, Note_on_c, 0, 58, 26
2, 465375, Control_c, 0, 67, 71
2, 465405, Note_on_c, 0, 63, 0
2, 465428, Note_on_c, 0, 64, 54
2, 465548, Control_c, 0, 64, 95
2, 465567, Control_c, 0, 64, 73
2, 465587, Control_c, 0, 64, 59
2, 465604, Note_on_c, 0, 63, 55
2, 465605, Control_c, 0, 64, 29
2, 465605, Control_c, 0, 67, 70
2, 465612, Note_on_c, 0, 64, 0
2, 465625, Control_c, 0, 64, 18
2, 465644, Control_c, 0, 64, 21
2, 465663, Control_c, 0, 64, 41
2, 465682, Control_c, 0, 64, 58
2, 465702, Control_c, 0, 64, 64
2, 465721, Control_c, 0, 64, 68
2, 465721, Control_c, 0, 67, 71
2, 465740, Control_c, 0, 64, 72
2, 465759, Control_c, 0, 64, 80
2, 465779, Control_c, 0, 64, 94
2, 465797, Control_c, 0, 64, 110
2, 465817, Control_c, 0, 64, 127
2, 465855, Control_c, 0, 67, 70
2, 465973, Note_on_c, 0, 61, 59
2, 466010, Note_on_c, 0, 63, 0
2, 466328, Note_on_c, 0, 58, 0
2, 466393, Control_c, 0, 64, 117
2, 466393, Note_on_c, 0, 59, 44
2, 466412, Control_c, 0, 64, 89
2, 466431, Control_c, 0, 64, 71
2, 466450, Control_c, 0, 64, 57
2, 466454, Note_on_c, 0, 80, 80
2, 466470, Control_c, 0, 64, 48
2, 466488, Control_c, 0, 67, 70
2, 466508, Control_c, 0, 64, 50
2, 466508, Note_on_c, 0, 61, 0
2, 466527, Control_c, 0, 64, 56
2, 466547, Control_c, 0, 64, 62
2, 466565, Control_c, 0, 64, 65
2, 466585, Control_c, 0, 64, 68
2, 466604, Control_c, 0, 64, 75
2, 466623, Control_c, 0, 64, 88
2, 466642, Control_c, 0, 64, 127
2, 466698, Note_on_c, 0, 75, 0
2, 466816, Note_on_c, 0, 59, 0
2, 466824, Note_on_c, 0, 61, 50
2, 466835, Note_on_c, 0, 64, 45
2, 467160, Control_c, 0, 64, 92
2, 467179, Control_c, 0, 64, 69
2, 467184, Note_on_c, 0, 61, 0
2, 467198, Control_c, 0, 64, 53
2, 467205, Note_on_c, 0, 64, 0
2, 467207, Note_on_c, 0, 63, 50
2, 467218, Control_c, 0, 64, 29
2, 467219, Note_on_c, 0, 59, 52
2, 467237, Control_c, 0, 64, 29
2, 467255, Control_c, 0, 64, 36
2, 467275, Control_c, 0, 64, 55
2, 467294, Control_c, 0, 64, 63
2, 467313, Control_c, 0, 64, 67
2, 467332, Control_c, 0, 64, 71
2, 467352, Control_c, 0, 64, 79
2, 467352, Control_c, 0, 67, 70
2, 467371, Control_c, 0, 64, 90
2, 467390, Control_c, 0, 64, 106
2, 467409, Control_c, 0, 64, 127
2, 467447, Control_c, 0, 67, 70
2, 467560, Note_on_c, 0, 63, 0
2, 467563, Control_c, 0, 67, 70
2, 467575, Note_on_c, 0, 59, 0
2, 467598, Note_on_c, 0, 58, 58
2, 467598, Note_on_c, 0, 61, 52
2, 467678, Control_c, 0, 67, 70
2, 467755, Control_c, 0, 67, 70
2, 467762, Note_on_c, 0, 58, 0
2, 467911, Note_on_c, 0, 61, 0
2, 467947, Control_c, 0, 64, 106
2, 467965, Control_c, 0, 64, 75
2, 467965, Note_on_c, 0, 56, 59
2, 467972, Note_on_c, 0, 59, 53
2, 467985, Control_c, 0, 64, 62
2, 468003, Control_c, 0, 64, 46
2, 468023, Control_c, 0, 64, 44
2, 468023, Control_c, 0, 67, 70
2, 468042, Control_c, 0, 64, 48
2, 468062, Control_c, 0, 64, 58
2, 468080, Control_c, 0, 64, 64
2, 468100, Control_c, 0, 64, 68
2, 468119, Control_c, 0, 64, 75
2, 468119, Control_c, 0, 67, 70
2, 468138, Control_c, 0, 64, 86
2, 468157, Control_c, 0, 64, 108
2, 468176, Control_c, 0, 64, 127
2, 468214, Control_c, 0, 67, 70
2, 468330, Control_c, 0, 67, 70
2, 468335, Note_on_c, 0, 59, 0
2, 468335, Note_on_c, 0, 61, 67
2, 468343, Note_on_c, 0, 54, 44
2, 468368, Control_c, 0, 67, 71
2, 468406, Note_on_c, 0, 54, 0
2, 468407, Control_c, 0, 67, 70
2, 468445, Control_c, 0, 67, 70
2, 468489, Note_on_c, 0, 61, 0
2, 468522, Control_c, 0, 67, 70
2, 468542, Control_c, 0, 67, 71
2, 468618, Control_c, 0, 67, 70
2, 468714, Control_c, 0, 64, 99
2, 468714, Control_c, 0, 67, 71
2, 468724, Note_on_c, 0, 78, 81
2, 468733, Control_c, 0, 64, 74
2, 468735, Note_on_c, 0, 52, 51
2, 468735, Note_on_c, 0, 63, 44
2, 468740, Note_on_c, 0, 56, 0
2, 468753, Control_c, 0, 64, 61
2, 468771, Control_c, 0, 64, 39
2, 468791, Control_c, 0, 64, 36
2, 468810, Control_c, 0, 64, 39
2, 468810, Control_c, 0, 67, 70
2, 468829, Control_c, 0, 64, 51
2, 468848, Control_c, 0, 64, 61
2, 468868, Control_c, 0, 64, 66
2, 468887, Control_c, 0, 64, 70
2, 468887, Control_c, 0, 67, 71
2, 468906, Control_c, 0, 64, 77
2, 468924, Control_c, 0, 64, 93
2, 468944, Control_c, 0, 64, 127
2, 468969, Note_on_c, 0, 80, 0
2, 469021, Control_c, 0, 67, 70
2, 469078, Note_on_c, 0, 52, 0
2, 469098, Control_c, 0, 67, 71
2, 469116, Control_c, 0, 67, 71
2, 469127, Note_on_c, 0, 51, 34
2, 469162, Note_on_c, 0, 63, 0
2, 469212, Control_c, 0, 67, 71
2, 469290, Control_c, 0, 67, 71
2, 469348, Control_c, 0, 67, 72
2, 469425, Control_c, 0, 67, 71
2, 469482, Control_c, 0, 67, 72
2, 469502, Control_c, 0, 64, 99
2, 469520, Control_c, 0, 64, 73
2, 469520, Note_on_c, 0, 51, 0
2, 469531, Note_on_c, 0, 56, 44
2, 469533, Note_on_c, 0, 49, 21
2, 469540, Control_c, 0, 64, 57
2, 469552, Note_on_c, 0, 76, 60
2, 469559, Control_c, 0, 64, 0
2, 469616, Control_c, 0, 67, 71
2, 469647, Note_on_c, 0, 78, 0
2, 469654, Control_c, 0, 64, 39
2, 469674, Control_c, 0, 64, 55
2, 469674, Control_c, 0, 67, 72
2, 469693, Control_c, 0, 64, 62
2, 469713, Control_c, 0, 64, 65
2, 469731, Control_c, 0, 64, 67
2, 469751, Control_c, 0, 64, 73
2, 469770, Control_c, 0, 64, 82
2, 469789, Control_c, 0, 64, 101
2, 469802, Note_on_c, 0, 49, 0
2, 469808, Control_c, 0, 64, 127
2, 469868, Note_on_c, 0, 56, 0
2, 469885, Control_c, 0, 67, 72
2, 469924, Control_c, 0, 67, 73
2, 469936, Note_on_c, 0, 61, 48
2, 470001, Control_c, 0, 67, 72
2, 470062, Note_on_c, 0, 61, 0
2, 470075, Control_c, 0, 67, 73
2, 470093, Note_on_c, 0, 59, 49
2, 470114, Control_c, 0, 67, 73
2, 470235, Note_on_c, 0, 59, 0
2, 470249, Control_c, 0, 64, 82
2, 470267, Control_c, 0, 64, 64
2, 470287, Control_c, 0, 64, 34
2, 470290, Note_on_c, 0, 61, 29
2, 470298, Note_on_c, 0, 58, 35
2, 470306, Control_c, 0, 64, 0
2, 470383, Control_c, 0, 64, 33
2, 470401, Control_c, 0, 64, 51
2, 470421, Control_c, 0, 64, 60
2, 470440, Control_c, 0, 64, 65
2, 470460, Control_c, 0, 64, 68
2, 470478, Control_c, 0, 64, 73
2, 470498, Control_c, 0, 64, 81
2, 470517, Control_c, 0, 64, 95
2, 470536, Control_c, 0, 64, 127
2, 470676, Note_on_c, 0, 58, 0
2, 470684, Note_on_c, 0, 56, 45
2, 471055, Control_c, 0, 64, 91
2, 471060, Note_on_c, 0, 56, 0
2, 471074, Control_c, 0, 64, 73
2, 471093, Control_c, 0, 64, 60
2, 471112, Control_c, 0, 64, 21
2, 471112, Note_on_c, 0, 75, 57
2, 471116, Note_on_c, 0, 55, 18
2, 471132, Control_c, 0, 64, 0
2, 471184, Note_on_c, 0, 76, 0
2, 471227, Control_c, 0, 64, 35
2, 471247, Control_c, 0, 64, 54
2, 471266, Control_c, 0, 64, 62
2, 471277, Note_on_c, 0, 61, 0
2, 471284, Control_c, 0, 64, 65
2, 471304, Control_c, 0, 64, 67
2, 471323, Control_c, 0, 64, 71
2, 471343, Control_c, 0, 64, 78
2, 471361, Control_c, 0, 64, 90
2, 471381, Control_c, 0, 64, 115
2, 471400, Control_c, 0, 64, 127
2, 471400, Control_c, 0, 67, 73
2, 471495, Note_on_c, 0, 59, 44
2, 471527, Note_on_c, 0, 56, 24
2, 471803, Control_c, 0, 64, 110
2, 471822, Control_c, 0, 64, 78
2, 471840, Control_c, 0, 64, 64
2, 471860, Control_c, 0, 64, 46
2, 471869, Note_on_c, 0, 56, 0
2, 471872, Note_on_c, 0, 58, 43
2, 471879, Control_c, 0, 64, 38
2, 471884, Note_on_c, 0, 59, 0
2, 471899, Control_c, 0, 64, 39
2, 471899, Control_c, 0, 67, 72
2, 471917, Control_c, 0, 64, 45
2, 471937, Control_c, 0, 64, 56
2, 471956, Control_c, 0, 64, 63
2, 471975, Control_c, 0, 64, 65
2, 471994, Control_c, 0, 64, 67
2, 471994, Control_c, 0, 67, 73
2, 472014, Control_c, 0, 64, 71
2, 472033, Control_c, 0, 64, 77
2, 472052, Control_c, 0, 64, 85
2, 472071, Control_c, 0, 64, 98
2, 472091, Control_c, 0, 64, 115
2, 472110, Control_c, 0, 64, 127
2, 472110, Control_c, 0, 67, 72
2, 472227, Control_c, 0, 67, 73
2, 472240, Note_on_c, 0, 55, 0
2, 472254, Note_on_c, 0, 54, 41
2, 472284, Control_c, 0, 67, 72
2, 472322, Control_c, 0, 64, 123
2, 472399, Control_c, 0, 64, 121
2, 472438, Control_c, 0, 64, 117
2, 472457, Control_c, 0, 64, 114
2, 472476, Control_c, 0, 64, 110
2, 472496, Control_c, 0, 64, 106
2, 472515, Control_c, 0, 64, 103
2, 472534, Control_c, 0, 64, 100
2, 472553, Control_c, 0, 64, 98
2, 472573, Control_c, 0, 64, 96
2, 472591, Control_c, 0, 64, 94
2, 472611, Control_c, 0, 64, 91
2, 472630, Control_c, 0, 64, 86
2, 472650, Control_c, 0, 64, 81
2, 472668, Control_c, 0, 64, 77
2, 472673, Note_on_c, 0, 53, 33
2, 472683, Note_on_c, 0, 56, 43
2, 472688, Control_c, 0, 64, 73
2, 472707, Control_c, 0, 64, 70
2, 472719, Note_on_c, 0, 54, 0
2, 472725, Control_c, 0, 64, 68
2, 472745, Control_c, 0, 64, 65
2, 472762, Note_on_c, 0, 58, 0
2, 472763, Control_c, 0, 64, 63
2, 472783, Control_c, 0, 64, 59
2, 472801, Control_c, 0, 64, 56
2, 472821, Control_c, 0, 64, 53
2, 472840, Control_c, 0, 64, 49
2, 472860, Control_c, 0, 64, 46
2, 472878, Control_c, 0, 64, 44
2, 472898, Control_c, 0, 64, 41
2, 472917, Control_c, 0, 64, 38
2, 472936, Control_c, 0, 64, 35
2, 472955, Control_c, 0, 64, 32
2, 472975, Control_c, 0, 64, 29
2, 472994, Control_c, 0, 64, 27
2, 473013, Control_c, 0, 64, 25
2, 473032, Control_c, 0, 64, 23
2, 473050, Note_on_c, 0, 71, 64
2, 473052, Control_c, 0, 64, 21
2, 473070, Control_c, 0, 64, 20
2, 473090, Control_c, 0, 64, 19
2, 473111, Control_c, 0, 64, 17
2, 473149, Control_c, 0, 64, 15
2, 473172, Note_on_c, 0, 75, 0
2, 473455, Note_on_c, 0, 68, 72
2, 473468, Note_on_c, 0, 71, 0
2, 473495, Control_c, 0, 67, 72
2, 473849, Note_on_c, 0, 58, 54
2, 473864, Note_on_c, 0, 56, 0
2, 474031, Control_c, 0, 64, 17
2, 474253, Note_on_c, 0, 58, 0
2, 474270, Note_on_c, 0, 59, 48
2, 474358, Control_c, 0, 64, 18
2, 474473, Control_c, 0, 64, 19
2, 474511, Control_c, 0, 67, 71
2, 474588, Control_c, 0, 64, 20
2, 474611, Note_on_c, 0, 53, 0
2, 474620, Note_on_c, 0, 59, 0
2, 474630, Note_on_c, 0, 54, 35
2, 474633, Note_on_c, 0, 70, 64
2, 474656, Note_on_c, 0, 58, 37
2, 474686, Note_on_c, 0, 68, 0
2, 474722, Control_c, 0, 64, 21
2, 474896, Control_c, 0, 67, 71
2, 474973, Control_c, 0, 64, 22
2, 475014, Note_on_c, 0, 54, 0
2, 475023, Note_on_c, 0, 71, 61
2, 475028, Note_on_c, 0, 53, 35
2, 475032, Note_on_c, 0, 56, 48
2, 475074, Note_on_c, 0, 70, 0
2, 475095, Note_on_c, 0, 58, 0
2, 475140, Note_on_c, 0, 56, 0
2, 475394, Note_on_c, 0, 53, 0
2, 475417, Note_on_c, 0, 54, 40
2, 475418, Note_on_c, 0, 51, 40
2, 475530, Control_c, 0, 67, 70
2, 475770, Note_on_c, 0, 51, 0
2, 475800, Note_on_c, 0, 50, 37
2, 475821, Note_on_c, 0, 53, 42
2, 475853, Note_on_c, 0, 54, 0
2, 475894, Control_c, 0, 67, 70
2, 476263, Note_on_c, 0, 68, 54
2, 476414, Note_on_c, 0, 71, 0
2, 476639, Note_on_c, 0, 65, 47
2, 476645, Note_on_c, 0, 68, 0
2, 477009, Note_on_c, 0, 54, 44
2, 477032, Note_on_c, 0, 53, 0
2, 477362, Note_on_c, 0, 54, 0
2, 477396, Note_on_c, 0, 56, 39
2, 477723, Note_on_c, 0, 50, 0
2, 477755, Note_on_c, 0, 51, 39
2, 477764, Note_on_c, 0, 54, 33
2, 477764, Note_on_c, 0, 66, 51
2, 477792, Note_on_c, 0, 56, 0
2, 477795, Note_on_c, 0, 65, 0
2, 477965, Control_c, 0, 67, 69
2, 477985, Control_c, 0, 67, 69
2, 478004, Control_c, 0, 67, 68
2, 478042, Control_c, 0, 67, 68
2, 478062, Control_c, 0, 67, 67
2, 478080, Control_c, 0, 67, 65
2, 478088, Note_on_c, 0, 51, 0
2, 478100, Control_c, 0, 67, 52
2, 478117, Note_on_c, 0, 50, 43
2, 478119, Control_c, 0, 67, 40
2, 478139, Control_c, 0, 67, 28
2, 478157, Control_c, 0, 67, 15
2, 478160, Note_on_c, 0, 54, 0
2, 478171, Note_on_c, 0, 68, 59
2, 478173, Note_on_c, 0, 53, 26
2, 478177, Control_c, 0, 67, 0
2, 478221, Note_on_c, 0, 66, 0
2, 478388, Control_c, 0, 64, 23
2, 478426, Control_c, 0, 64, 24
2, 478478, Note_on_c, 0, 50, 0
2, 478508, Note_on_c, 0, 53, 0
2, 478522, Control_c, 0, 64, 25
2, 478534, Note_on_c, 0, 51, 36
2, 478538, Note_on_c, 0, 48, 28
2, 478600, Control_c, 0, 64, 26
2, 478638, Control_c, 0, 64, 27
2, 478658, Control_c, 0, 64, 27
2, 478696, Control_c, 0, 64, 28
2, 478924, Note_on_c, 0, 51, 0
2, 478947, Note_on_c, 0, 46, 31
2, 478951, Note_on_c, 0, 48, 0
2, 478956, Note_on_c, 0, 50, 37
2, 479355, Note_on_c, 0, 65, 49
2, 479546, Note_on_c, 0, 68, 0
2, 479750, Note_on_c, 0, 62, 52
2, 479756, Note_on_c, 0, 65, 0
2, 479963, Control_c, 0, 64, 29
2, 479983, Control_c, 0, 64, 31
2, 480001, Control_c, 0, 64, 35
2, 480021, Control_c, 0, 64, 39
2, 480040, Control_c, 0, 64, 45
2, 480060, Control_c, 0, 64, 51
2, 480078, Control_c, 0, 64, 57
2, 480090, Note_on_c, 0, 50, 0
2, 480098, Control_c, 0, 64, 61
2, 480114, Note_on_c, 0, 51, 49
2, 480117, Control_c, 0, 64, 64
2, 480136, Control_c, 0, 64, 66
2, 480155, Control_c, 0, 64, 68
2, 480175, Control_c, 0, 64, 72
2, 480194, Control_c, 0, 64, 79
2, 480213, Control_c, 0, 64, 94
2, 480232, Control_c, 0, 64, 116
2, 480252, Control_c, 0, 64, 127
2, 480315, Note_on_c, 0, 62, 0
2, 480447, Note_on_c, 0, 46, 0
2, 480517, Note_on_c, 0, 51, 0
2, 480526, Note_on_c, 0, 53, 45
2, 480807, Control_c, 0, 64, 121
2, 480826, Control_c, 0, 64, 96
2, 480845, Control_c, 0, 64, 79
2, 480865, Control_c, 0, 64, 67
2, 480884, Control_c, 0, 64, 54
2, 480887, Note_on_c, 0, 62, 58
2, 480901, Note_on_c, 0, 44, 38
2, 480903, Control_c, 0, 64, 29
2, 480922, Control_c, 0, 64, 24
2, 480960, Control_c, 0, 64, 27
2, 480980, Control_c, 0, 64, 38
2, 480999, Control_c, 0, 64, 48
2, 481019, Control_c, 0, 64, 56
2, 481027, Note_on_c, 0, 53, 0
2, 481037, Control_c, 0, 64, 59
2, 481057, Control_c, 0, 64, 60
2, 481076, Control_c, 0, 64, 60
2, 481230, Control_c, 0, 64, 58
2, 481249, Control_c, 0, 64, 54
2, 481268, Control_c, 0, 64, 44
2, 481281, Note_on_c, 0, 63, 64
2, 481285, Note_on_c, 0, 42, 47
2, 481287, Control_c, 0, 64, 28
2, 481302, Note_on_c, 0, 54, 54
2, 481306, Control_c, 0, 64, 0
2, 481314, Note_on_c, 0, 44, 0
2, 481335, Note_on_c, 0, 62, 0
2, 481383, Control_c, 0, 64, 13
2, 481402, Control_c, 0, 64, 41
2, 481422, Control_c, 0, 64, 55
2, 481440, Control_c, 0, 64, 61
2, 481440, Note_on_c, 0, 54, 0
2, 481460, Control_c, 0, 64, 63
2, 481479, Control_c, 0, 64, 64
2, 481499, Control_c, 0, 64, 65
2, 481517, Control_c, 0, 64, 65
2, 481537, Control_c, 0, 64, 66
2, 481556, Control_c, 0, 64, 68
2, 481575, Control_c, 0, 64, 69
2, 481594, Control_c, 0, 64, 70
2, 481614, Control_c, 0, 64, 68
2, 481633, Control_c, 0, 64, 62
2, 481652, Control_c, 0, 64, 49
2, 481656, Note_on_c, 0, 63, 0
2, 481670, Note_on_c, 0, 65, 68
2, 481671, Control_c, 0, 64, 15
2, 481691, Control_c, 0, 64, 0
2, 481693, Note_on_c, 0, 41, 52
2, 481695, Note_on_c, 0, 56, 60
2, 481704, Note_on_c, 0, 42, 0
2, 481749, Control_c, 0, 64, 44
2, 481769, Control_c, 0, 64, 59
2, 481787, Control_c, 0, 64, 63
2, 481806, Control_c, 0, 64, 65
2, 481826, Control_c, 0, 64, 67
2, 481842, Note_on_c, 0, 56, 0
2, 481844, Control_c, 0, 64, 69
2, 481864, Control_c, 0, 64, 73
2, 481883, Control_c, 0, 64, 80
2, 481903, Control_c, 0, 64, 90
2, 481921, Control_c, 0, 64, 105
2, 481941, Control_c, 0, 64, 127
2, 482018, Control_c, 0, 64, 114
2, 482037, Control_c, 0, 64, 87
2, 482056, Control_c, 0, 64, 70
2, 482075, Control_c, 0, 64, 57
2, 482083, Note_on_c, 0, 41, 0
2, 482085, Note_on_c, 0, 65, 0
2, 482087, Note_on_c, 0, 66, 74
2, 482095, Control_c, 0, 64, 43
2, 482099, Note_on_c, 0, 39, 54
2, 482100, Note_on_c, 0, 58, 56
2, 482114, Control_c, 0, 64, 42
2, 482133, Control_c, 0, 64, 48
2, 482152, Control_c, 0, 64, 58
2, 482172, Control_c, 0, 64, 64
2, 482190, Control_c, 0, 64, 66
2, 482210, Control_c, 0, 64, 70
2, 482229, Control_c, 0, 64, 75
2, 482249, Control_c, 0, 64, 85
2, 482267, Control_c, 0, 64, 102
2, 482286, Control_c, 0, 64, 127
2, 482294, Note_on_c, 0, 66, 0
2, 482325, Note_on_c, 0, 58, 0
2, 482437, Control_c, 0, 64, 96
2, 482457, Control_c, 0, 64, 73
2, 482463, Note_on_c, 0, 49, 54
2, 482468, Note_on_c, 0, 67, 71
2, 482475, Control_c, 0, 64, 61
2, 482483, Note_on_c, 0, 58, 58
2, 482495, Control_c, 0, 64, 50
2, 482514, Control_c, 0, 64, 51
2, 482534, Control_c, 0, 64, 55
2, 482552, Control_c, 0, 64, 62
2, 482572, Control_c, 0, 64, 65
2, 482591, Control_c, 0, 64, 69
2, 482610, Control_c, 0, 64, 74
2, 482629, Control_c, 0, 64, 83
2, 482649, Control_c, 0, 64, 97
2, 482650, Note_on_c, 0, 49, 0
2, 482668, Control_c, 0, 64, 127
2, 482699, Note_on_c, 0, 58, 0
2, 482822, Control_c, 0, 64, 91
2, 482841, Control_c, 0, 64, 68
2, 482861, Control_c, 0, 64, 50
2, 482865, Note_on_c, 0, 47, 53
2, 482867, Note_on_c, 0, 68, 70
2, 482868, Note_on_c, 0, 59, 69
2, 482880, Control_c, 0, 64, 28
2, 482918, Control_c, 0, 64, 32
2, 482930, Note_on_c, 0, 67, 0
2, 482938, Control_c, 0, 64, 49
2, 482956, Control_c, 0, 64, 61
2, 482976, Control_c, 0, 64, 65
2, 482980, Note_on_c, 0, 59, 0
2, 482995, Control_c, 0, 64, 69
2, 483015, Control_c, 0, 64, 75
2, 483027, Note_on_c, 0, 68, 0
2, 483033, Control_c, 0, 64, 85
2, 483053, Control_c, 0, 64, 103
2, 483072, Control_c, 0, 64, 127
2, 483206, Control_c, 0, 64, 96
2, 483225, Control_c, 0, 64, 68
2, 483229, Note_on_c, 0, 70, 80
2, 483236, Note_on_c, 0, 61, 73
2, 483238, Note_on_c, 0, 46, 53
2, 483239, Note_on_c, 0, 47, 0
2, 483244, Control_c, 0, 64, 52
2, 483264, Control_c, 0, 64, 38
2, 483283, Control_c, 0, 64, 39
2, 483302, Control_c, 0, 64, 47
2, 483319, Note_on_c, 0, 39, 0
2, 483321, Control_c, 0, 64, 59
2, 483342, Control_c, 0, 64, 64
2, 483360, Control_c, 0, 64, 68
2, 483380, Control_c, 0, 64, 75
2, 483399, Control_c, 0, 64, 86
2, 483419, Control_c, 0, 64, 113
2, 483433, Note_on_c, 0, 61, 0
2, 483437, Control_c, 0, 64, 127
2, 483520, Note_on_c, 0, 70, 0
2, 483591, Control_c, 0, 64, 88
2, 483611, Control_c, 0, 64, 67
2, 483616, Note_on_c, 0, 44, 57
2, 483622, Note_on_c, 0, 71, 77
2, 483630, Control_c, 0, 64, 50
2, 483640, Note_on_c, 0, 63, 66
2, 483645, Note_on_c, 0, 46, 0
2, 483649, Control_c, 0, 64, 39
2, 483668, Control_c, 0, 64, 41
2, 483687, Control_c, 0, 64, 53
2, 483706, Control_c, 0, 64, 63
2, 483725, Control_c, 0, 64, 66
2, 483745, Control_c, 0, 64, 71
2, 483764, Control_c, 0, 64, 79
2, 483783, Control_c, 0, 64, 95
2, 483802, Control_c, 0, 64, 127
2, 483843, Note_on_c, 0, 63, 0
2, 483975, Control_c, 0, 64, 90
2, 483994, Control_c, 0, 64, 68
2, 484014, Control_c, 0, 64, 54
2, 484033, Control_c, 0, 64, 44
2, 484039, Note_on_c, 0, 72, 82
2, 484046, Note_on_c, 0, 54, 53
2, 484052, Control_c, 0, 64, 47
2, 484055, Note_on_c, 0, 63, 67
2, 484071, Control_c, 0, 64, 58
2, 484081, Note_on_c, 0, 71, 0
2, 484091, Control_c, 0, 64, 64
2, 484110, Control_c, 0, 64, 69
2, 484129, Control_c, 0, 64, 76
2, 484148, Control_c, 0, 64, 89
2, 484155, Note_on_c, 0, 63, 0
2, 484167, Control_c, 0, 64, 115
2, 484186, Control_c, 0, 64, 127
2, 484228, Note_on_c, 0, 72, 0
2, 484264, Note_on_c, 0, 54, 0
2, 484397, Control_c, 0, 64, 105
2, 484417, Control_c, 0, 64, 73
2, 484436, Control_c, 0, 64, 57
2, 484436, Note_on_c, 0, 74, 81
2, 484446, Note_on_c, 0, 53, 54
2, 484451, Note_on_c, 0, 65, 68
2, 484455, Control_c, 0, 64, 24
2, 484474, Control_c, 0, 64, 22
2, 484494, Control_c, 0, 64, 31
2, 484513, Control_c, 0, 64, 54
2, 484526, Note_on_c, 0, 65, 0
2, 484532, Control_c, 0, 64, 64
2, 484551, Control_c, 0, 64, 69
2, 484571, Control_c, 0, 64, 78
2, 484590, Control_c, 0, 64, 98
2, 484603, Note_on_c, 0, 74, 0
2, 484608, Control_c, 0, 64, 127
2, 484821, Control_c, 0, 64, 83
2, 484832, Note_on_c, 0, 53, 0
2, 484840, Control_c, 0, 64, 65
2, 484860, Control_c, 0, 64, 51
2, 484864, Note_on_c, 0, 75, 84
2, 484871, Note_on_c, 0, 66, 74
2, 484878, Control_c, 0, 64, 48
2, 484886, Note_on_c, 0, 51, 45
2, 484898, Control_c, 0, 64, 52
2, 484917, Control_c, 0, 64, 61
2, 484936, Control_c, 0, 64, 66
2, 484955, Control_c, 0, 64, 73
2, 484975, Control_c, 0, 64, 86
2, 484991, Note_on_c, 0, 44, 0
2, 484994, Control_c, 0, 64, 127
2, 485065, Note_on_c, 0, 66, 0
2, 485244, Note_on_c, 0, 75, 0
2, 485393, Note_on_c, 0, 58, 48
2, 485472, Control_c, 0, 64, 102
2, 485479, Note_on_c, 0, 75, 83
2, 485491, Control_c, 0, 64, 73
2, 485502, Note_on_c, 0, 65, 57
2, 485510, Control_c, 0, 64, 55
2, 485530, Control_c, 0, 64, 0
2, 485548, Note_on_c, 0, 51, 0
2, 485625, Control_c, 0, 64, 15
2, 485644, Control_c, 0, 64, 52
2, 485664, Control_c, 0, 64, 63
2, 485683, Control_c, 0, 64, 68
2, 485702, Control_c, 0, 64, 75
2, 485721, Control_c, 0, 64, 89
2, 485741, Control_c, 0, 64, 127
2, 486028, Note_on_c, 0, 71, 80
2, 486124, Note_on_c, 0, 75, 0
2, 486214, Note_on_c, 0, 71, 0
2, 486463, Note_on_c, 0, 46, 39
2, 486604, Control_c, 0, 64, 85
2, 486617, Note_on_c, 0, 74, 65
2, 486624, Control_c, 0, 64, 66
2, 486628, Note_on_c, 0, 70, 65
2, 486630, Note_on_c, 0, 58, 0
2, 486630, Note_on_c, 0, 65, 0
2, 486643, Control_c, 0, 64, 41
2, 486662, Control_c, 0, 64, 0
2, 486758, Control_c, 0, 64, 42
2, 486778, Control_c, 0, 64, 59
2, 486796, Control_c, 0, 64, 65
2, 486816, Control_c, 0, 64, 69
2, 486835, Control_c, 0, 64, 76
2, 486855, Control_c, 0, 64, 88
2, 486873, Control_c, 0, 64, 115
2, 486893, Control_c, 0, 64, 127
2, 487373, Note_on_c, 0, 74, 0
2, 487445, Note_on_c, 0, 68, 59
2, 487635, Note_on_c, 0, 70, 0
2, 488325, Note_on_c, 0, 68, 0
2, 488952, Note_on_c, 0, 67, 45
2, 488952, Note_on_c, 0, 75, 50
2, 488955, Note_on_c, 0, 39, 48
2, 489006, Control_c, 0, 64, 91
2, 489026, Control_c, 0, 64, 74
2, 489045, Control_c, 0, 64, 64
2, 489064, Control_c, 0, 64, 53
2, 489083, Control_c, 0, 64, 45
2, 489086, Note_on_c, 0, 46, 0
2, 489103, Control_c, 0, 64, 43
2, 489121, Control_c, 0, 64, 40
2, 489141, Control_c, 0, 64, 34
2, 489160, Control_c, 0, 64, 22
2, 489171, Control_c, 0, 64, 0
2, 489698, Control_c, 0, 64, 23
2, 489716, Control_c, 0, 64, 35
2, 489736, Control_c, 0, 64, 44
2, 489755, Control_c, 0, 64, 49
2, 489775, Control_c, 0, 64, 52
2, 489793, Control_c, 0, 64, 54
2, 489813, Control_c, 0, 64, 57
2, 489832, Control_c, 0, 64, 59
2, 489851, Control_c, 0, 64, 60
2, 489870, Control_c, 0, 64, 60
2, 489889, Control_c, 0, 64, 61
2, 489906, Control_c, 0, 64, 62
2, 489925, Control_c, 0, 64, 64
2, 489944, Control_c, 0, 64, 65
2, 489964, Control_c, 0, 64, 67
2, 489983, Control_c, 0, 64, 69
2, 490002, Control_c, 0, 64, 72
2, 490020, Control_c, 0, 64, 78
2, 490040, Control_c, 0, 64, 86
2, 490058, Control_c, 0, 64, 96
2, 490077, Control_c, 0, 64, 110
2, 490097, Control_c, 0, 64, 127
2, 490657, Note_on_c, 0, 67, 0
2, 490782, Note_on_c, 0, 39, 0
2, 490970, Note_on_c, 0, 75, 0
2, 491452, Control_c, 0, 64, 118
2, 491471, Control_c, 0, 64, 112
2, 491490, Control_c, 0, 64, 109
2, 491509, Control_c, 0, 64, 106
2, 491529, Control_c, 0, 64, 105
2, 491548, Control_c, 0, 64, 104
2, 491567, Control_c, 0, 64, 103
2, 491586, Control_c, 0, 64, 102
2, 491606, Control_c, 0, 64, 101
2, 491624, Control_c, 0, 64, 100
2, 491643, Control_c, 0, 64, 99
2, 491663, Control_c, 0, 64, 98
2, 491682, Control_c, 0, 64, 97
2, 491701, Control_c, 0, 64, 95
2, 491720, Control_c, 0, 64, 94
2, 491740, Control_c, 0, 64, 93
2, 491759, Control_c, 0, 64, 92
2, 491775, Control_c, 0, 64, 92
2, 491795, Control_c, 0, 64, 91
2, 491814, Control_c, 0, 64, 90
2, 491832, Control_c, 0, 64, 89
2, 491852, Control_c, 0, 64, 88
2, 491871, Control_c, 0, 64, 86
2, 491891, Control_c, 0, 64, 85
2, 491909, Control_c, 0, 64, 84
2, 491929, Control_c, 0, 64, 83
2, 491949, Control_c, 0, 64, 81
2, 491968, Control_c, 0, 64, 80
2, 491987, Control_c, 0, 64, 79
2, 492007, Control_c, 0, 64, 78
2, 492026, Control_c, 0, 64, 77
2, 492045, Control_c, 0, 64, 75
2, 492064, Control_c, 0, 64, 73
2, 492084, Control_c, 0, 64, 71
2, 492102, Control_c, 0, 64, 69
2, 492122, Control_c, 0, 64, 67
2, 492141, Control_c, 0, 64, 66
2, 492161, Control_c, 0, 64, 64
2, 492179, Control_c, 0, 64, 63
2, 492199, Control_c, 0, 64, 62
2, 492218, Control_c, 0, 64, 62
2, 492237, Control_c, 0, 64, 61
2, 492277, Control_c, 0, 64, 61
2, 492296, Control_c, 0, 64, 59
2, 492315, Control_c, 0, 64, 58
2, 492334, Control_c, 0, 64, 56
2, 492353, Control_c, 0, 64, 56
2, 492372, Control_c, 0, 64, 55
2, 492391, Control_c, 0, 64, 55
2, 492411, Control_c, 0, 64, 54
2, 492430, Control_c, 0, 64, 54
2, 492488, Control_c, 0, 64, 53
2, 492526, Control_c, 0, 64, 53
2, 492583, Control_c, 0, 64, 52
2, 492833, Control_c, 0, 64, 52
2, 493121, Control_c, 0, 64, 52
2, 493122, End_track
0, 0, End_of_file
