0, 0, Header, 1, 2, 480
1, 0, Start_track
1, 0, Tempo, 500000
1, 0, Time_signature, 4, 2, 24, 8
1, 1, End_track
2, 0, Start_track
2, 0, Program_c, 0, 0
2, 0, Control_c, 0, 64, 127
2, 0, Control_c, 0, 67, 0
2, 946, Note_on_c, 0, 70, 51
2, 957, Note_on_c, 0, 66, 39
2, 969, Note_on_c, 0, 63, 39
2, 2106, Note_on_c, 0, 66, 0
2, 2228, Note_on_c, 0, 63, 0
2, 2624, Note_on_c, 0, 66, 43
2, 2640, Note_on_c, 0, 63, 33
2, 3726, Note_on_c, 0, 70, 0
2, 3771, Note_on_c, 0, 63, 0
2, 3789, Note_on_c, 0, 66, 0
2, 4022, Note_on_c, 0, 70, 66
2, 4187, Control_c, 0, 64, 110
2, 4205, Control_c, 0, 64, 94
2, 4222, Control_c, 0, 64, 85
2, 4242, Control_c, 0, 64, 78
2, 4253, Note_on_c, 0, 75, 68
2, 4256, Note_on_c, 0, 66, 45
2, 4261, Control_c, 0, 64, 72
2, 4265, Note_on_c, 0, 70, 0
2, 4278, Control_c, 0, 64, 67
2, 4295, Note_on_c, 0, 63, 31
2, 4300, Control_c, 0, 64, 64
2, 4320, Control_c, 0, 64, 61
2, 4336, Control_c, 0, 64, 59
2, 4355, Control_c, 0, 64, 55
2, 4375, Control_c, 0, 64, 51
2, 4394, Control_c, 0, 64, 45
2, 4413, Control_c, 0, 64, 38
2, 4431, Control_c, 0, 64, 32
2, 4450, Control_c, 0, 64, 26
2, 4472, Control_c, 0, 64, 20
2, 4491, Control_c, 0, 64, 10
2, 4509, Control_c, 0, 64, 0
2, 4664, Control_c, 0, 64, 13
2, 4682, Control_c, 0, 64, 20
2, 4700, Control_c, 0, 64, 28
2, 4720, Control_c, 0, 64, 34
2, 4740, Control_c, 0, 64, 41
2, 4758, Control_c, 0, 64, 47
2, 4776, Control_c, 0, 64, 51
2, 4796, Control_c, 0, 64, 55
2, 4816, Control_c, 0, 64, 57
2, 4837, Control_c, 0, 64, 58
2, 4853, Control_c, 0, 64, 59
2, 4872, Control_c, 0, 64, 61
2, 4892, Control_c, 0, 64, 63
2, 4913, Control_c, 0, 64, 64
2, 4931, Control_c, 0, 64, 65
2, 4949, Control_c, 0, 64, 67
2, 4968, Control_c, 0, 64, 70
2, 4990, Control_c, 0, 64, 73
2, 5008, Control_c, 0, 64, 78
2, 5028, Control_c, 0, 64, 83
2, 5048, Control_c, 0, 64, 87
2, 5066, Control_c, 0, 64, 91
2, 5086, Control_c, 0, 64, 95
2, 5105, Control_c, 0, 64, 101
2, 5125, Control_c, 0, 64, 109
2, 5142, Control_c, 0, 64, 127
2, 5417, Note_on_c, 0, 63, 0
2, 5446, Note_on_c, 0, 66, 0
2, 5612, Note_on_c, 0, 78, 61
2, 5657, Note_on_c, 0, 75, 0
2, 5737, Control_c, 0, 64, 122
2, 5757, Control_c, 0, 64, 108
2, 5779, Control_c, 0, 64, 98
2, 5795, Control_c, 0, 64, 91
2, 5814, Control_c, 0, 64, 83
2, 5819, Note_on_c, 0, 78, 0
2, 5833, Control_c, 0, 64, 75
2, 5840, Note_on_c, 0, 71, 57
2, 5857, Control_c, 0, 64, 67
2, 5861, Note_on_c, 0, 68, 40
2, 5872, Control_c, 0, 64, 62
2, 5881, Note_on_c, 0, 63, 33
2, 5891, Control_c, 0, 64, 59
2, 5911, Control_c, 0, 64, 56
2, 5929, Control_c, 0, 64, 53
2, 5946, Control_c, 0, 64, 48
2, 5965, Control_c, 0, 64, 41
2, 5984, Control_c, 0, 64, 32
2, 6007, Control_c, 0, 64, 16
2, 6022, Control_c, 0, 64, 0
2, 6291, Control_c, 0, 64, 20
2, 6310, Control_c, 0, 64, 30
2, 6331, Control_c, 0, 64, 39
2, 6349, Control_c, 0, 64, 46
2, 6369, Control_c, 0, 64, 52
2, 6387, Control_c, 0, 64, 56
2, 6406, Control_c, 0, 64, 59
2, 6429, Control_c, 0, 64, 60
2, 6448, Control_c, 0, 64, 61
2, 6463, Control_c, 0, 64, 63
2, 6483, Control_c, 0, 64, 64
2, 6504, Control_c, 0, 64, 66
2, 6524, Control_c, 0, 64, 69
2, 6542, Control_c, 0, 64, 75
2, 6562, Control_c, 0, 64, 82
2, 6581, Control_c, 0, 64, 91
2, 6597, Control_c, 0, 64, 102
2, 6618, Control_c, 0, 64, 127
2, 6810, Note_on_c, 0, 68, 0
2, 6859, Note_on_c, 0, 63, 0
2, 7044, Note_on_c, 0, 71, 0
2, 7525, Note_on_c, 0, 68, 39
2, 7525, Note_on_c, 0, 71, 42
2, 7537, Note_on_c, 0, 63, 32
2, 8129, Note_on_c, 0, 63, 0
2, 8138, Note_on_c, 0, 71, 0
2, 8239, Note_on_c, 0, 68, 0
2, 8971, Note_on_c, 0, 75, 76
2, 9095, Control_c, 0, 64, 104
2, 9115, Control_c, 0, 64, 90
2, 9134, Control_c, 0, 64, 78
2, 9151, Control_c, 0, 64, 70
2, 9171, Control_c, 0, 64, 66
2, 9188, Note_on_c, 0, 80, 79
2, 9192, Control_c, 0, 64, 64
2, 9210, Control_c, 0, 64, 62
2, 9221, Note_on_c, 0, 71, 47
2, 9223, Note_on_c, 0, 68, 42
2, 9223, Note_on_c, 0, 75, 0
2, 9228, Control_c, 0, 64, 60
2, 9233, Note_on_c, 0, 63, 32
2, 9248, Control_c, 0, 64, 57
2, 9268, Control_c, 0, 64, 54
2, 9287, Control_c, 0, 64, 50
2, 9305, Control_c, 0, 64, 45
2, 9325, Control_c, 0, 64, 41
2, 9347, Control_c, 0, 64, 36
2, 9363, Control_c, 0, 64, 28
2, 9383, Control_c, 0, 64, 15
2, 9404, Control_c, 0, 64, 0
2, 9655, Control_c, 0, 64, 17
2, 9670, Control_c, 0, 64, 28
2, 9690, Control_c, 0, 64, 37
2, 9710, Control_c, 0, 64, 46
2, 9728, Control_c, 0, 64, 52
2, 9746, Control_c, 0, 64, 56
2, 9768, Control_c, 0, 64, 58
2, 9786, Control_c, 0, 64, 60
2, 9804, Control_c, 0, 64, 61
2, 9824, Control_c, 0, 64, 63
2, 9845, Control_c, 0, 64, 66
2, 9863, Control_c, 0, 64, 69
2, 9881, Control_c, 0, 64, 75
2, 9901, Control_c, 0, 64, 85
2, 9920, Control_c, 0, 64, 97
2, 9939, Control_c, 0, 64, 118
2, 9957, Control_c, 0, 64, 127
2, 10312, Note_on_c, 0, 63, 0
2, 10316, Note_on_c, 0, 68, 0
2, 10725, Note_on_c, 0, 83, 58
2, 10729, Note_on_c, 0, 80, 0
2, 10881, Control_c, 0, 64, 104
2, 10897, Note_on_c, 0, 71, 0
2, 10902, Control_c, 0, 64, 92
2, 10918, Control_c, 0, 64, 81
2, 10918, Note_on_c, 0, 63, 26
2, 10938, Control_c, 0, 64, 72
2, 10940, Note_on_c, 0, 83, 0
2, 10951, Note_on_c, 0, 65, 22
2, 10958, Control_c, 0, 64, 64
2, 10967, Note_on_c, 0, 68, 40
2, 10976, Note_on_c, 0, 74, 55
2, 10980, Control_c, 0, 64, 60
2, 10997, Control_c, 0, 64, 57
2, 11014, Control_c, 0, 64, 55
2, 11034, Control_c, 0, 64, 53
2, 11052, Control_c, 0, 64, 51
2, 11074, Control_c, 0, 64, 48
2, 11092, Control_c, 0, 64, 43
2, 11113, Control_c, 0, 64, 38
2, 11129, Control_c, 0, 64, 35
2, 11152, Control_c, 0, 64, 31
2, 11172, Control_c, 0, 64, 28
2, 11190, Control_c, 0, 64, 23
2, 11207, Control_c, 0, 64, 17
2, 11230, Control_c, 0, 64, 0
2, 11381, Control_c, 0, 64, 15
2, 11402, Control_c, 0, 64, 23
2, 11420, Control_c, 0, 64, 31
2, 11438, Control_c, 0, 64, 39
2, 11456, Control_c, 0, 64, 45
2, 11475, Control_c, 0, 64, 50
2, 11494, Control_c, 0, 64, 55
2, 11512, Control_c, 0, 64, 57
2, 11533, Control_c, 0, 64, 59
2, 11551, Control_c, 0, 64, 60
2, 11571, Control_c, 0, 64, 61
2, 11593, Control_c, 0, 64, 62
2, 11610, Control_c, 0, 64, 64
2, 11629, Control_c, 0, 64, 65
2, 11649, Control_c, 0, 64, 67
2, 11668, Control_c, 0, 64, 71
2, 11685, Control_c, 0, 64, 75
2, 11706, Control_c, 0, 64, 81
2, 11727, Control_c, 0, 64, 85
2, 11746, Control_c, 0, 64, 90
2, 11762, Control_c, 0, 64, 93
2, 11781, Control_c, 0, 64, 98
2, 11801, Control_c, 0, 64, 104
2, 11823, Control_c, 0, 64, 115
2, 11838, Control_c, 0, 64, 127
2, 12065, Note_on_c, 0, 68, 0
2, 12075, Note_on_c, 0, 65, 0
2, 12135, Note_on_c, 0, 63, 0
2, 12668, Control_c, 0, 64, 110
2, 12675, Note_on_c, 0, 62, 34
2, 12686, Control_c, 0, 64, 96
2, 12686, Note_on_c, 0, 68, 40
2, 12699, Note_on_c, 0, 65, 33
2, 12708, Control_c, 0, 64, 86
2, 12726, Control_c, 0, 64, 76
2, 12742, Control_c, 0, 64, 67
2, 12764, Control_c, 0, 64, 63
2, 12781, Control_c, 0, 64, 60
2, 12798, Control_c, 0, 64, 59
2, 12820, Control_c, 0, 64, 58
2, 12840, Control_c, 0, 64, 57
2, 12857, Control_c, 0, 64, 55
2, 12877, Control_c, 0, 64, 51
2, 12897, Control_c, 0, 64, 49
2, 12915, Control_c, 0, 64, 46
2, 12934, Control_c, 0, 64, 44
2, 12954, Control_c, 0, 64, 42
2, 12973, Control_c, 0, 64, 39
2, 12993, Control_c, 0, 64, 34
2, 13012, Control_c, 0, 64, 29
2, 13032, Control_c, 0, 64, 25
2, 13149, Control_c, 0, 64, 26
2, 13163, Control_c, 0, 64, 30
2, 13185, Control_c, 0, 64, 35
2, 13202, Control_c, 0, 64, 41
2, 13223, Control_c, 0, 64, 49
2, 13241, Control_c, 0, 64, 55
2, 13261, Control_c, 0, 64, 58
2, 13281, Control_c, 0, 64, 60
2, 13299, Control_c, 0, 64, 61
2, 13319, Control_c, 0, 64, 62
2, 13339, Control_c, 0, 64, 64
2, 13357, Control_c, 0, 64, 66
2, 13377, Control_c, 0, 64, 69
2, 13397, Control_c, 0, 64, 75
2, 13417, Control_c, 0, 64, 83
2, 13433, Control_c, 0, 64, 93
2, 13453, Control_c, 0, 64, 103
2, 13471, Control_c, 0, 64, 118
2, 13484, Note_on_c, 0, 65, 0
2, 13493, Control_c, 0, 64, 127
2, 13516, Note_on_c, 0, 74, 0
2, 13703, Note_on_c, 0, 68, 0
2, 13880, Note_on_c, 0, 62, 0
2, 13945, Note_on_c, 0, 77, 66
2, 14017, Note_on_c, 0, 77, 0
2, 14091, Note_on_c, 0, 62, 43
2, 14182, Control_c, 0, 64, 112
2, 14187, Note_on_c, 0, 65, 41
2, 14202, Control_c, 0, 64, 96
2, 14224, Control_c, 0, 64, 84
2, 14243, Control_c, 0, 64, 74
2, 14259, Note_on_c, 0, 70, 58
2, 14260, Control_c, 0, 64, 65
2, 14280, Control_c, 0, 64, 61
2, 14298, Control_c, 0, 64, 59
2, 14317, Control_c, 0, 64, 58
2, 14336, Control_c, 0, 64, 57
2, 14356, Control_c, 0, 64, 56
2, 14375, Control_c, 0, 64, 54
2, 14393, Control_c, 0, 64, 50
2, 14412, Control_c, 0, 64, 47
2, 14426, Note_on_c, 0, 70, 0
2, 14435, Control_c, 0, 64, 45
2, 14453, Control_c, 0, 64, 44
2, 14453, Note_on_c, 0, 68, 62
2, 14488, Control_c, 0, 64, 43
2, 14508, Control_c, 0, 64, 42
2, 14527, Control_c, 0, 64, 39
2, 14532, Note_on_c, 0, 68, 0
2, 14547, Control_c, 0, 64, 37
2, 14567, Control_c, 0, 64, 36
2, 14572, Note_on_c, 0, 70, 63
2, 14621, Note_on_c, 0, 70, 0
2, 14670, Note_on_c, 0, 68, 59
2, 14704, Control_c, 0, 64, 35
2, 14709, Note_on_c, 0, 68, 0
2, 14729, Note_on_c, 0, 70, 61
2, 14772, Note_on_c, 0, 70, 0
2, 14798, Control_c, 0, 64, 34
2, 14804, Note_on_c, 0, 68, 66
2, 14816, Control_c, 0, 64, 33
2, 14836, Note_on_c, 0, 68, 0
2, 14840, Control_c, 0, 64, 31
2, 14854, Note_on_c, 0, 70, 71
2, 14858, Control_c, 0, 64, 30
2, 14874, Control_c, 0, 64, 29
2, 14893, Control_c, 0, 64, 28
2, 14899, Note_on_c, 0, 70, 0
2, 14924, Note_on_c, 0, 68, 72
2, 14931, Control_c, 0, 64, 27
2, 14950, Control_c, 0, 64, 25
2, 14969, Control_c, 0, 64, 22
2, 14989, Control_c, 0, 64, 18
2, 15011, Control_c, 0, 64, 11
2, 15011, Note_on_c, 0, 68, 0
2, 15027, Control_c, 0, 64, 0
2, 15042, Note_on_c, 0, 66, 70
2, 15216, Note_on_c, 0, 66, 0
2, 15220, Note_on_c, 0, 68, 69
2, 15351, Note_on_c, 0, 68, 0
2, 15372, Note_on_c, 0, 70, 69
2, 15482, Note_on_c, 0, 65, 0
2, 15504, Note_on_c, 0, 62, 0
2, 15504, Note_on_c, 0, 63, 48
2, 15609, Note_on_c, 0, 70, 0
2, 15634, Note_on_c, 0, 68, 59
2, 15783, Note_on_c, 0, 68, 0
2, 15816, Note_on_c, 0, 66, 58
2, 15895, Note_on_c, 0, 66, 0
2, 15934, Note_on_c, 0, 68, 63
2, 15990, Note_on_c, 0, 68, 0
2, 16055, Note_on_c, 0, 66, 56
2, 16084, Note_on_c, 0, 66, 0
2, 16129, Note_on_c, 0, 68, 61
2, 16171, Note_on_c, 0, 68, 0
2, 16192, Note_on_c, 0, 66, 61
2, 16243, Note_on_c, 0, 66, 0
2, 16261, Note_on_c, 0, 68, 66
2, 16312, Note_on_c, 0, 68, 0
2, 16342, Note_on_c, 0, 66, 65
2, 16384, Note_on_c, 0, 66, 0
2, 16410, Note_on_c, 0, 68, 64
2, 16454, Note_on_c, 0, 68, 0
2, 16469, Note_on_c, 0, 66, 62
2, 16508, Note_on_c, 0, 66, 0
2, 16598, Note_on_c, 0, 66, 63
2, 16671, Note_on_c, 0, 66, 0
2, 16687, Note_on_c, 0, 63, 0
2, 16700, Note_on_c, 0, 65, 55
2, 16892, Note_on_c, 0, 65, 0
2, 16908, Note_on_c, 0, 63, 53
2, 17159, Note_on_c, 0, 63, 0
2, 17198, Note_on_c, 0, 78, 52
2, 17906, Control_c, 0, 64, 13
2, 17925, Control_c, 0, 64, 18
2, 17946, Control_c, 0, 64, 24
2, 17963, Control_c, 0, 64, 30
2, 17983, Control_c, 0, 64, 35
2, 18004, Control_c, 0, 64, 39
2, 18025, Control_c, 0, 64, 43
2, 18043, Control_c, 0, 64, 47
2, 18061, Control_c, 0, 64, 51
2, 18083, Control_c, 0, 64, 55
2, 18099, Control_c, 0, 64, 58
2, 18119, Control_c, 0, 64, 59
2, 18138, Control_c, 0, 64, 60
2, 18157, Control_c, 0, 64, 61
2, 18178, Control_c, 0, 64, 62
2, 18196, Control_c, 0, 64, 63
2, 18214, Control_c, 0, 64, 64
2, 18234, Control_c, 0, 64, 65
2, 18252, Control_c, 0, 64, 67
2, 18272, Control_c, 0, 64, 70
2, 18292, Control_c, 0, 64, 73
2, 18310, Control_c, 0, 64, 77
2, 18328, Control_c, 0, 64, 81
2, 18350, Control_c, 0, 64, 85
2, 18369, Control_c, 0, 64, 87
2, 18388, Control_c, 0, 64, 89
2, 18406, Control_c, 0, 64, 90
2, 18576, Note_on_c, 0, 58, 68
2, 18580, Control_c, 0, 64, 89
2, 18598, Control_c, 0, 64, 87
2, 18617, Control_c, 0, 64, 85
2, 18640, Control_c, 0, 64, 82
2, 18656, Control_c, 0, 64, 78
2, 18665, Note_on_c, 0, 78, 0
2, 18669, Note_on_c, 0, 66, 48
2, 18674, Control_c, 0, 64, 75
2, 18695, Control_c, 0, 64, 72
2, 18713, Control_c, 0, 64, 68
2, 18733, Control_c, 0, 64, 64
2, 18737, Note_on_c, 0, 70, 44
2, 18754, Control_c, 0, 64, 62
2, 18769, Control_c, 0, 64, 61
2, 18787, Note_on_c, 0, 75, 43
2, 18792, Control_c, 0, 64, 59
2, 18810, Control_c, 0, 64, 57
2, 18827, Control_c, 0, 64, 52
2, 18848, Control_c, 0, 64, 46
2, 18861, Note_on_c, 0, 54, 56
2, 18870, Control_c, 0, 64, 38
2, 18870, Note_on_c, 0, 78, 52
2, 18874, Note_on_c, 0, 58, 0
2, 18886, Control_c, 0, 64, 30
2, 18906, Control_c, 0, 64, 22
2, 18926, Control_c, 0, 64, 8
2, 18945, Control_c, 0, 64, 0
2, 19231, Control_c, 0, 64, 17
2, 19252, Control_c, 0, 64, 28
2, 19269, Control_c, 0, 64, 37
2, 19290, Control_c, 0, 64, 44
2, 19308, Control_c, 0, 64, 49
2, 19327, Control_c, 0, 64, 52
2, 19346, Control_c, 0, 64, 55
2, 19366, Control_c, 0, 64, 56
2, 19386, Control_c, 0, 64, 58
2, 19406, Control_c, 0, 64, 59
2, 19424, Control_c, 0, 64, 60
2, 19446, Control_c, 0, 64, 62
2, 19462, Control_c, 0, 64, 63
2, 19481, Control_c, 0, 64, 64
2, 19500, Control_c, 0, 64, 65
2, 19522, Control_c, 0, 64, 67
2, 19542, Control_c, 0, 64, 71
2, 19558, Control_c, 0, 64, 76
2, 19577, Control_c, 0, 64, 81
2, 19596, Control_c, 0, 64, 87
2, 19615, Control_c, 0, 64, 94
2, 19637, Control_c, 0, 64, 100
2, 19655, Control_c, 0, 64, 111
2, 19675, Control_c, 0, 64, 127
2, 19951, Note_on_c, 0, 54, 0
2, 19974, Note_on_c, 0, 75, 0
2, 20003, Note_on_c, 0, 70, 0
2, 20091, Note_on_c, 0, 78, 0
2, 20120, Note_on_c, 0, 66, 0
2, 20336, Note_on_c, 0, 51, 49
2, 20388, Control_c, 0, 64, 112
2, 20406, Control_c, 0, 64, 101
2, 20417, Note_on_c, 0, 66, 43
2, 20426, Control_c, 0, 64, 89
2, 20443, Control_c, 0, 64, 78
2, 20467, Control_c, 0, 64, 70
2, 20467, Note_on_c, 0, 70, 45
2, 20487, Control_c, 0, 64, 64
2, 20502, Control_c, 0, 64, 60
2, 20520, Control_c, 0, 64, 56
2, 20527, Note_on_c, 0, 73, 50
2, 20542, Control_c, 0, 64, 53
2, 20561, Control_c, 0, 64, 50
2, 20570, Note_on_c, 0, 46, 40
2, 20570, Note_on_c, 0, 51, 0
2, 20579, Control_c, 0, 64, 46
2, 20597, Control_c, 0, 64, 40
2, 20618, Control_c, 0, 64, 32
2, 20635, Control_c, 0, 64, 21
2, 20656, Control_c, 0, 64, 0
2, 20716, Note_on_c, 0, 78, 60
2, 21155, Control_c, 0, 64, 23
2, 21173, Control_c, 0, 64, 33
2, 21193, Control_c, 0, 64, 39
2, 21214, Control_c, 0, 64, 46
2, 21231, Control_c, 0, 64, 51
2, 21251, Control_c, 0, 64, 56
2, 21273, Control_c, 0, 64, 59
2, 21292, Control_c, 0, 64, 60
2, 21308, Control_c, 0, 64, 61
2, 21328, Control_c, 0, 64, 62
2, 21346, Control_c, 0, 64, 64
2, 21366, Control_c, 0, 64, 65
2, 21384, Control_c, 0, 64, 68
2, 21404, Control_c, 0, 64, 73
2, 21424, Control_c, 0, 64, 80
2, 21445, Control_c, 0, 64, 89
2, 21462, Control_c, 0, 64, 99
2, 21480, Control_c, 0, 64, 116
2, 21500, Control_c, 0, 64, 127
2, 21761, Note_on_c, 0, 46, 0
2, 22105, Note_on_c, 0, 46, 39
2, 22157, Note_on_c, 0, 49, 43
2, 22209, Note_on_c, 0, 54, 52
2, 22271, Note_on_c, 0, 58, 56
2, 22759, Note_on_c, 0, 66, 0
2, 22805, Control_c, 0, 64, 100
2, 22825, Control_c, 0, 64, 86
2, 22845, Control_c, 0, 64, 76
2, 22865, Control_c, 0, 64, 68
2, 22883, Control_c, 0, 64, 63
2, 22903, Control_c, 0, 64, 58
2, 22921, Control_c, 0, 64, 55
2, 22942, Control_c, 0, 64, 54
2, 22960, Control_c, 0, 64, 55
2, 22999, Control_c, 0, 64, 57
2, 23019, Note_on_c, 0, 78, 0
2, 23020, Control_c, 0, 64, 59
2, 23039, Control_c, 0, 64, 61
2, 23045, Note_on_c, 0, 70, 0
2, 23056, Control_c, 0, 64, 63
2, 23073, Control_c, 0, 64, 64
2, 23093, Control_c, 0, 64, 66
2, 23113, Control_c, 0, 64, 68
2, 23131, Control_c, 0, 64, 72
2, 23151, Control_c, 0, 64, 76
2, 23171, Control_c, 0, 64, 81
2, 23191, Control_c, 0, 64, 86
2, 23211, Control_c, 0, 64, 93
2, 23229, Control_c, 0, 64, 98
2, 23249, Control_c, 0, 64, 103
2, 23268, Control_c, 0, 64, 108
2, 23287, Control_c, 0, 64, 115
2, 23305, Control_c, 0, 64, 122
2, 23329, Control_c, 0, 64, 127
2, 23331, Note_on_c, 0, 73, 0
2, 23335, Note_on_c, 0, 78, 64
2, 23429, Note_on_c, 0, 46, 0
2, 23429, Note_on_c, 0, 49, 0
2, 23440, Note_on_c, 0, 58, 0
2, 23476, Note_on_c, 0, 54, 0
2, 23535, Note_on_c, 0, 76, 72
2, 23577, Note_on_c, 0, 78, 0
2, 23632, Control_c, 0, 64, 122
2, 23652, Control_c, 0, 64, 120
2, 23670, Control_c, 0, 64, 118
2, 23691, Control_c, 0, 64, 113
2, 23691, Note_on_c, 0, 46, 40
2, 23709, Control_c, 0, 64, 109
2, 23719, Note_on_c, 0, 49, 49
2, 23724, Note_on_c, 0, 75, 78
2, 23728, Control_c, 0, 64, 104
2, 23746, Control_c, 0, 64, 97
2, 23762, Note_on_c, 0, 76, 0
2, 23765, Control_c, 0, 64, 91
2, 23788, Control_c, 0, 64, 84
2, 23793, Note_on_c, 0, 54, 48
2, 23806, Control_c, 0, 64, 78
2, 23823, Control_c, 0, 64, 71
2, 23841, Control_c, 0, 64, 65
2, 23861, Control_c, 0, 64, 61
2, 23883, Control_c, 0, 64, 57
2, 23901, Control_c, 0, 64, 54
2, 23921, Control_c, 0, 64, 52
2, 23939, Control_c, 0, 64, 49
2, 23957, Control_c, 0, 64, 44
2, 23970, Note_on_c, 0, 58, 48
2, 23975, Note_on_c, 0, 76, 75
2, 23977, Control_c, 0, 64, 38
2, 23995, Control_c, 0, 64, 28
2, 24016, Control_c, 0, 64, 14
2, 24020, Note_on_c, 0, 75, 0
2, 24036, Control_c, 0, 64, 0
2, 24381, Control_c, 0, 64, 9
2, 24401, Control_c, 0, 64, 20
2, 24419, Control_c, 0, 64, 27
2, 24436, Control_c, 0, 64, 34
2, 24458, Control_c, 0, 64, 40
2, 24476, Control_c, 0, 64, 44
2, 24496, Control_c, 0, 64, 48
2, 24514, Control_c, 0, 64, 52
2, 24532, Control_c, 0, 64, 55
2, 24552, Control_c, 0, 64, 58
2, 24573, Control_c, 0, 64, 59
2, 24592, Control_c, 0, 64, 60
2, 24611, Control_c, 0, 64, 62
2, 24632, Control_c, 0, 64, 63
2, 24649, Control_c, 0, 64, 65
2, 24671, Control_c, 0, 64, 67
2, 24689, Control_c, 0, 64, 71
2, 24708, Control_c, 0, 64, 79
2, 24726, Control_c, 0, 64, 88
2, 24744, Control_c, 0, 64, 102
2, 24764, Control_c, 0, 64, 127
2, 24950, Note_on_c, 0, 76, 0
2, 25194, Note_on_c, 0, 46, 0
2, 25215, Note_on_c, 0, 49, 0
2, 25244, Note_on_c, 0, 54, 0
2, 25295, Note_on_c, 0, 58, 0
2, 25332, Note_on_c, 0, 73, 65
2, 25408, Note_on_c, 0, 47, 42
2, 25461, Note_on_c, 0, 51, 50
2, 25501, Note_on_c, 0, 54, 44
2, 25505, Note_on_c, 0, 73, 0
2, 25551, Control_c, 0, 64, 111
2, 25571, Control_c, 0, 64, 96
2, 25582, Note_on_c, 0, 59, 43
2, 25590, Control_c, 0, 64, 83
2, 25610, Control_c, 0, 64, 73
2, 25617, Note_on_c, 0, 63, 41
2, 25628, Control_c, 0, 64, 65
2, 25648, Control_c, 0, 64, 60
2, 25657, Note_on_c, 0, 66, 44
2, 25667, Control_c, 0, 64, 57
2, 25676, Note_on_c, 0, 71, 48
2, 25685, Control_c, 0, 64, 55
2, 25705, Control_c, 0, 64, 53
2, 25724, Control_c, 0, 64, 50
2, 25742, Note_on_c, 0, 75, 64
2, 25747, Control_c, 0, 64, 45
2, 25763, Control_c, 0, 64, 38
2, 25781, Control_c, 0, 64, 30
2, 25801, Control_c, 0, 64, 22
2, 25819, Control_c, 0, 64, 17
2, 25838, Control_c, 0, 64, 12
2, 25861, Control_c, 0, 64, 0
2, 26185, Control_c, 0, 64, 11
2, 26204, Control_c, 0, 64, 18
2, 26222, Control_c, 0, 64, 22
2, 26242, Control_c, 0, 64, 27
2, 26261, Control_c, 0, 64, 31
2, 26279, Control_c, 0, 64, 35
2, 26300, Control_c, 0, 64, 39
2, 26319, Control_c, 0, 64, 42
2, 26339, Control_c, 0, 64, 44
2, 26359, Control_c, 0, 64, 47
2, 26377, Control_c, 0, 64, 49
2, 26397, Control_c, 0, 64, 52
2, 26415, Control_c, 0, 64, 54
2, 26435, Control_c, 0, 64, 56
2, 26456, Control_c, 0, 64, 57
2, 26472, Control_c, 0, 64, 59
2, 26493, Control_c, 0, 64, 60
2, 26511, Control_c, 0, 64, 62
2, 26533, Control_c, 0, 64, 63
2, 26551, Control_c, 0, 64, 65
2, 26569, Control_c, 0, 64, 67
2, 26589, Control_c, 0, 64, 70
2, 26593, Note_on_c, 0, 63, 0
2, 26610, Control_c, 0, 64, 76
2, 26626, Control_c, 0, 64, 83
2, 26647, Control_c, 0, 64, 92
2, 26665, Control_c, 0, 64, 100
2, 26683, Control_c, 0, 64, 113
2, 26704, Control_c, 0, 64, 127
2, 26747, Note_on_c, 0, 66, 0
2, 26760, Note_on_c, 0, 47, 0
2, 26774, Note_on_c, 0, 71, 0
2, 26793, Note_on_c, 0, 59, 0
2, 26882, Note_on_c, 0, 75, 0
2, 26891, Note_on_c, 0, 54, 0
2, 26933, Note_on_c, 0, 51, 0
2, 27251, Note_on_c, 0, 66, 40
2, 27280, Control_c, 0, 64, 112
2, 27285, Note_on_c, 0, 71, 47
2, 27299, Control_c, 0, 64, 100
2, 27319, Control_c, 0, 64, 92
2, 27336, Control_c, 0, 64, 85
2, 27355, Control_c, 0, 64, 80
2, 27364, Note_on_c, 0, 75, 49
2, 27375, Control_c, 0, 64, 76
2, 27398, Control_c, 0, 64, 72
2, 27412, Control_c, 0, 64, 67
2, 27432, Control_c, 0, 64, 64
2, 27453, Control_c, 0, 64, 61
2, 27471, Control_c, 0, 64, 59
2, 27489, Control_c, 0, 64, 58
2, 27511, Control_c, 0, 64, 55
2, 27531, Control_c, 0, 64, 51
2, 27547, Control_c, 0, 64, 46
2, 27566, Control_c, 0, 64, 40
2, 27588, Control_c, 0, 64, 35
2, 27606, Control_c, 0, 64, 29
2, 27626, Control_c, 0, 64, 24
2, 27644, Control_c, 0, 64, 17
2, 27664, Control_c, 0, 64, 8
2, 27682, Control_c, 0, 64, 0
2, 28070, Control_c, 0, 64, 10
2, 28085, Control_c, 0, 64, 18
2, 28105, Control_c, 0, 64, 24
2, 28125, Control_c, 0, 64, 30
2, 28143, Control_c, 0, 64, 35
2, 28161, Control_c, 0, 64, 39
2, 28182, Control_c, 0, 64, 43
2, 28202, Control_c, 0, 64, 47
2, 28219, Control_c, 0, 64, 49
2, 28239, Control_c, 0, 64, 52
2, 28259, Control_c, 0, 64, 54
2, 28277, Control_c, 0, 64, 55
2, 28296, Control_c, 0, 64, 56
2, 28315, Control_c, 0, 64, 57
2, 28335, Control_c, 0, 64, 59
2, 28355, Control_c, 0, 64, 60
2, 28392, Control_c, 0, 64, 61
2, 28413, Control_c, 0, 64, 62
2, 28433, Control_c, 0, 64, 63
2, 28471, Control_c, 0, 64, 64
2, 28489, Control_c, 0, 64, 65
2, 28509, Control_c, 0, 64, 66
2, 28528, Control_c, 0, 64, 67
2, 28548, Control_c, 0, 64, 68
2, 28567, Control_c, 0, 64, 69
2, 28597, Note_on_c, 0, 71, 0
2, 28606, Note_on_c, 0, 66, 0
2, 28703, Note_on_c, 0, 54, 61
2, 28709, Note_on_c, 0, 75, 0
2, 28814, Control_c, 0, 64, 68
2, 28821, Note_on_c, 0, 66, 40
2, 28873, Control_c, 0, 64, 67
2, 28890, Control_c, 0, 64, 66
2, 28901, Note_on_c, 0, 71, 44
2, 28914, Control_c, 0, 64, 65
2, 28931, Control_c, 0, 64, 64
2, 28949, Control_c, 0, 64, 62
2, 28971, Control_c, 0, 64, 60
2, 28982, Note_on_c, 0, 75, 46
2, 28986, Note_on_c, 0, 51, 55
2, 28990, Control_c, 0, 64, 58
2, 29009, Control_c, 0, 64, 56
2, 29014, Note_on_c, 0, 54, 0
2, 29027, Control_c, 0, 64, 53
2, 29048, Control_c, 0, 64, 50
2, 29066, Control_c, 0, 64, 46
2, 29083, Control_c, 0, 64, 43
2, 29106, Control_c, 0, 64, 39
2, 29122, Control_c, 0, 64, 35
2, 29145, Control_c, 0, 64, 31
2, 29160, Control_c, 0, 64, 27
2, 29180, Control_c, 0, 64, 24
2, 29199, Control_c, 0, 64, 22
2, 29296, Control_c, 0, 64, 24
2, 29313, Control_c, 0, 64, 28
2, 29335, Control_c, 0, 64, 34
2, 29356, Control_c, 0, 64, 41
2, 29372, Control_c, 0, 64, 47
2, 29391, Control_c, 0, 64, 54
2, 29411, Control_c, 0, 64, 56
2, 29429, Control_c, 0, 64, 58
2, 29450, Control_c, 0, 64, 59
2, 29468, Control_c, 0, 64, 60
2, 29490, Control_c, 0, 64, 61
2, 29508, Control_c, 0, 64, 62
2, 29525, Control_c, 0, 64, 64
2, 29544, Control_c, 0, 64, 65
2, 29567, Control_c, 0, 64, 67
2, 29584, Control_c, 0, 64, 71
2, 29602, Control_c, 0, 64, 78
2, 29621, Control_c, 0, 64, 87
2, 29642, Control_c, 0, 64, 99
2, 29659, Control_c, 0, 64, 115
2, 29677, Control_c, 0, 64, 127
2, 29865, Note_on_c, 0, 71, 0
2, 29880, Note_on_c, 0, 66, 0
2, 29960, Note_on_c, 0, 75, 0
2, 29991, Note_on_c, 0, 51, 0
2, 30421, Note_on_c, 0, 47, 43
2, 30473, Note_on_c, 0, 70, 44
2, 30545, Control_c, 0, 64, 113
2, 30549, Note_on_c, 0, 75, 47
2, 30562, Control_c, 0, 64, 101
2, 30582, Control_c, 0, 64, 90
2, 30602, Control_c, 0, 64, 79
2, 30620, Control_c, 0, 64, 69
2, 30640, Control_c, 0, 64, 62
2, 30660, Control_c, 0, 64, 57
2, 30677, Note_on_c, 0, 43, 43
2, 30681, Control_c, 0, 64, 55
2, 30694, Note_on_c, 0, 47, 0
2, 30699, Control_c, 0, 64, 53
2, 30719, Control_c, 0, 64, 51
2, 30736, Control_c, 0, 64, 49
2, 30756, Control_c, 0, 64, 46
2, 30776, Control_c, 0, 64, 41
2, 30793, Control_c, 0, 64, 37
2, 30805, Note_on_c, 0, 82, 55
2, 30812, Control_c, 0, 64, 33
2, 30829, Control_c, 0, 64, 32
2, 30849, Control_c, 0, 64, 31
2, 30869, Control_c, 0, 64, 30
2, 30889, Control_c, 0, 64, 28
2, 30908, Control_c, 0, 64, 26
2, 30928, Control_c, 0, 64, 22
2, 30949, Control_c, 0, 64, 18
2, 30966, Control_c, 0, 64, 15
2, 30986, Control_c, 0, 64, 14
2, 31004, Control_c, 0, 64, 13
2, 31159, Control_c, 0, 64, 15
2, 31177, Control_c, 0, 64, 17
2, 31194, Control_c, 0, 64, 18
2, 31215, Control_c, 0, 64, 22
2, 31236, Control_c, 0, 64, 27
2, 31253, Control_c, 0, 64, 30
2, 31272, Control_c, 0, 64, 35
2, 31292, Control_c, 0, 64, 39
2, 31312, Control_c, 0, 64, 43
2, 31332, Control_c, 0, 64, 48
2, 31349, Control_c, 0, 64, 51
2, 31368, Control_c, 0, 64, 53
2, 31389, Control_c, 0, 64, 54
2, 31407, Control_c, 0, 64, 55
2, 31426, Control_c, 0, 64, 56
2, 31445, Control_c, 0, 64, 58
2, 31465, Control_c, 0, 64, 59
2, 31485, Control_c, 0, 64, 60
2, 31501, Control_c, 0, 64, 61
2, 31523, Control_c, 0, 64, 62
2, 31544, Control_c, 0, 64, 63
2, 31560, Control_c, 0, 64, 64
2, 31580, Control_c, 0, 64, 65
2, 31600, Control_c, 0, 64, 67
2, 31619, Control_c, 0, 64, 69
2, 31637, Control_c, 0, 64, 72
2, 31657, Control_c, 0, 64, 75
2, 31677, Control_c, 0, 64, 77
2, 31697, Control_c, 0, 64, 80
2, 31714, Control_c, 0, 64, 81
2, 31736, Control_c, 0, 64, 83
2, 31752, Control_c, 0, 64, 86
2, 31772, Control_c, 0, 64, 89
2, 31790, Control_c, 0, 64, 94
2, 31810, Control_c, 0, 64, 100
2, 31830, Control_c, 0, 64, 105
2, 31849, Control_c, 0, 64, 109
2, 31866, Control_c, 0, 64, 112
2, 31886, Control_c, 0, 64, 120
2, 31906, Control_c, 0, 64, 127
2, 32051, Note_on_c, 0, 43, 0
2, 32268, Note_on_c, 0, 43, 37
2, 32328, Control_c, 0, 64, 111
2, 32349, Control_c, 0, 64, 99
2, 32358, Note_on_c, 0, 46, 39
2, 32367, Control_c, 0, 64, 89
2, 32387, Control_c, 0, 64, 80
2, 32392, Note_on_c, 0, 51, 52
2, 32406, Control_c, 0, 64, 70
2, 32424, Control_c, 0, 64, 62
2, 32443, Control_c, 0, 64, 57
2, 32459, Note_on_c, 0, 55, 54
2, 32464, Control_c, 0, 64, 54
2, 32484, Control_c, 0, 64, 53
2, 32503, Control_c, 0, 64, 52
2, 32521, Control_c, 0, 64, 50
2, 32539, Control_c, 0, 64, 49
2, 32561, Control_c, 0, 64, 46
2, 32577, Control_c, 0, 64, 43
2, 32598, Control_c, 0, 64, 42
2, 32807, Control_c, 0, 64, 43
2, 32851, Control_c, 0, 64, 44
2, 32866, Control_c, 0, 64, 45
2, 32889, Control_c, 0, 64, 46
2, 32905, Control_c, 0, 64, 47
2, 32926, Control_c, 0, 64, 49
2, 32942, Control_c, 0, 64, 50
2, 32959, Control_c, 0, 64, 51
2, 32979, Control_c, 0, 64, 53
2, 32996, Note_on_c, 0, 70, 0
2, 33000, Control_c, 0, 64, 54
2, 33018, Control_c, 0, 64, 56
2, 33036, Control_c, 0, 64, 57
2, 33054, Control_c, 0, 64, 58
2, 33074, Control_c, 0, 64, 60
2, 33096, Control_c, 0, 64, 61
2, 33113, Control_c, 0, 64, 62
2, 33133, Control_c, 0, 64, 63
2, 33153, Control_c, 0, 64, 65
2, 33169, Note_on_c, 0, 82, 0
2, 33174, Control_c, 0, 64, 66
2, 33189, Control_c, 0, 64, 69
2, 33208, Control_c, 0, 64, 74
2, 33228, Control_c, 0, 64, 79
2, 33249, Control_c, 0, 64, 88
2, 33260, Note_on_c, 0, 75, 0
2, 33269, Control_c, 0, 64, 94
2, 33287, Control_c, 0, 64, 101
2, 33304, Control_c, 0, 64, 108
2, 33325, Control_c, 0, 64, 127
2, 33520, Note_on_c, 0, 75, 64
2, 33662, Note_on_c, 0, 43, 0
2, 33664, Note_on_c, 0, 51, 0
2, 33669, Note_on_c, 0, 46, 0
2, 33704, Note_on_c, 0, 73, 76
2, 33744, Note_on_c, 0, 75, 0
2, 33841, Note_on_c, 0, 55, 0
2, 33852, Note_on_c, 0, 43, 38
2, 33888, Note_on_c, 0, 46, 41
2, 33888, Note_on_c, 0, 71, 76
2, 33888, Note_on_c, 0, 73, 0
2, 33978, Note_on_c, 0, 51, 48
2, 34016, Control_c, 0, 64, 111
2, 34036, Control_c, 0, 64, 95
2, 34056, Control_c, 0, 64, 82
2, 34072, Control_c, 0, 64, 70
2, 34092, Control_c, 0, 64, 63
2, 34103, Note_on_c, 0, 55, 45
2, 34113, Control_c, 0, 64, 58
2, 34118, Note_on_c, 0, 73, 72
2, 34134, Control_c, 0, 64, 54
2, 34134, Note_on_c, 0, 71, 0
2, 34150, Control_c, 0, 64, 51
2, 34168, Control_c, 0, 64, 49
2, 34188, Control_c, 0, 64, 45
2, 34208, Control_c, 0, 64, 40
2, 34228, Control_c, 0, 64, 35
2, 34245, Control_c, 0, 64, 28
2, 34264, Control_c, 0, 64, 24
2, 34284, Control_c, 0, 64, 23
2, 34304, Control_c, 0, 64, 22
2, 34322, Control_c, 0, 64, 20
2, 34342, Control_c, 0, 64, 18
2, 34382, Control_c, 0, 64, 17
2, 34438, Control_c, 0, 64, 18
2, 34457, Control_c, 0, 64, 20
2, 34476, Control_c, 0, 64, 23
2, 34496, Control_c, 0, 64, 29
2, 34515, Control_c, 0, 64, 34
2, 34535, Control_c, 0, 64, 40
2, 34551, Control_c, 0, 64, 47
2, 34573, Control_c, 0, 64, 53
2, 34591, Control_c, 0, 64, 56
2, 34611, Control_c, 0, 64, 58
2, 34630, Control_c, 0, 64, 59
2, 34650, Control_c, 0, 64, 61
2, 34670, Control_c, 0, 64, 63
2, 34686, Control_c, 0, 64, 64
2, 34708, Control_c, 0, 64, 66
2, 34726, Control_c, 0, 64, 69
2, 34744, Control_c, 0, 64, 73
2, 34765, Control_c, 0, 64, 81
2, 34783, Control_c, 0, 64, 87
2, 34803, Control_c, 0, 64, 92
2, 34822, Control_c, 0, 64, 95
2, 34840, Control_c, 0, 64, 99
2, 34859, Control_c, 0, 64, 103
2, 34881, Control_c, 0, 64, 116
2, 34898, Control_c, 0, 64, 127
2, 35059, Note_on_c, 0, 55, 0
2, 35067, Note_on_c, 0, 43, 0
2, 35143, Note_on_c, 0, 46, 0
2, 35359, Note_on_c, 0, 51, 0
2, 35381, Note_on_c, 0, 73, 0
2, 35385, Note_on_c, 0, 70, 59
2, 35461, Note_on_c, 0, 44, 41
2, 35495, Control_c, 0, 64, 104
2, 35516, Control_c, 0, 64, 86
2, 35516, Note_on_c, 0, 47, 47
2, 35533, Control_c, 0, 64, 72
2, 35552, Control_c, 0, 64, 64
2, 35570, Control_c, 0, 64, 58
2, 35590, Control_c, 0, 64, 54
2, 35595, Note_on_c, 0, 51, 43
2, 35611, Control_c, 0, 64, 53
2, 35628, Control_c, 0, 64, 52
2, 35647, Control_c, 0, 64, 50
2, 35667, Control_c, 0, 64, 48
2, 35687, Control_c, 0, 64, 44
2, 35705, Control_c, 0, 64, 40
2, 35709, Note_on_c, 0, 70, 0
2, 35724, Control_c, 0, 64, 37
2, 35730, Note_on_c, 0, 73, 58
2, 35764, Control_c, 0, 64, 36
2, 35787, Note_on_c, 0, 56, 43
2, 35800, Control_c, 0, 64, 35
2, 35940, Note_on_c, 0, 73, 0
2, 35976, Control_c, 0, 64, 36
2, 35981, Note_on_c, 0, 71, 52
2, 35994, Control_c, 0, 64, 38
2, 36011, Control_c, 0, 64, 40
2, 36031, Control_c, 0, 64, 42
2, 36053, Control_c, 0, 64, 47
2, 36062, Note_on_c, 0, 71, 0
2, 36071, Control_c, 0, 64, 52
2, 36091, Control_c, 0, 64, 56
2, 36110, Control_c, 0, 64, 58
2, 36110, Note_on_c, 0, 73, 55
2, 36128, Control_c, 0, 64, 59
2, 36146, Control_c, 0, 64, 61
2, 36167, Control_c, 0, 64, 62
2, 36176, Note_on_c, 0, 73, 0
2, 36185, Control_c, 0, 64, 63
2, 36206, Control_c, 0, 64, 65
2, 36219, Note_on_c, 0, 71, 58
2, 36223, Control_c, 0, 64, 68
2, 36245, Control_c, 0, 64, 72
2, 36264, Control_c, 0, 64, 78
2, 36264, Note_on_c, 0, 71, 0
2, 36280, Control_c, 0, 64, 87
2, 36301, Control_c, 0, 64, 94
2, 36321, Control_c, 0, 64, 100
2, 36336, Note_on_c, 0, 73, 51
2, 36340, Control_c, 0, 64, 107
2, 36356, Control_c, 0, 64, 120
2, 36368, Note_on_c, 0, 73, 0
2, 36380, Control_c, 0, 64, 127
2, 36380, Note_on_c, 0, 44, 0
2, 36385, Note_on_c, 0, 71, 56
2, 36397, Note_on_c, 0, 47, 0
2, 36402, Note_on_c, 0, 51, 0
2, 36431, Note_on_c, 0, 71, 0
2, 36453, Note_on_c, 0, 73, 70
2, 36460, Note_on_c, 0, 56, 0
2, 36493, Note_on_c, 0, 73, 0
2, 36538, Note_on_c, 0, 71, 63
2, 36581, Note_on_c, 0, 71, 0
2, 36603, Note_on_c, 0, 73, 66
2, 36629, Note_on_c, 0, 73, 0
2, 36679, Note_on_c, 0, 71, 48
2, 36705, Note_on_c, 0, 73, 70
2, 36709, Note_on_c, 0, 71, 0
2, 36762, Note_on_c, 0, 73, 0
2, 36782, Control_c, 0, 64, 103
2, 36786, Note_on_c, 0, 71, 71
2, 36800, Control_c, 0, 64, 89
2, 36819, Control_c, 0, 64, 74
2, 36839, Control_c, 0, 64, 65
2, 36843, Note_on_c, 0, 71, 0
2, 36858, Control_c, 0, 64, 59
2, 36875, Control_c, 0, 64, 56
2, 36896, Control_c, 0, 64, 54
2, 36901, Note_on_c, 0, 70, 63
2, 36919, Control_c, 0, 64, 52
2, 36937, Control_c, 0, 64, 50
2, 36952, Control_c, 0, 64, 45
2, 36972, Control_c, 0, 64, 38
2, 36994, Control_c, 0, 64, 29
2, 37011, Control_c, 0, 64, 22
2, 37028, Control_c, 0, 64, 17
2, 37050, Control_c, 0, 64, 11
2, 37069, Control_c, 0, 64, 0
2, 37086, Note_on_c, 0, 70, 0
2, 37111, Note_on_c, 0, 68, 58
2, 37267, Note_on_c, 0, 75, 47
2, 37336, Note_on_c, 0, 80, 50
2, 37395, Note_on_c, 0, 68, 0
2, 37409, Note_on_c, 0, 83, 56
2, 37912, Control_c, 0, 64, 10
2, 37935, Control_c, 0, 64, 15
2, 37954, Control_c, 0, 64, 18
2, 37972, Control_c, 0, 64, 22
2, 37988, Control_c, 0, 64, 25
2, 38009, Control_c, 0, 64, 28
2, 38027, Control_c, 0, 64, 31
2, 38047, Control_c, 0, 64, 35
2, 38067, Control_c, 0, 64, 40
2, 38087, Control_c, 0, 64, 44
2, 38104, Control_c, 0, 64, 48
2, 38126, Control_c, 0, 64, 53
2, 38142, Control_c, 0, 64, 56
2, 38165, Control_c, 0, 64, 58
2, 38182, Control_c, 0, 64, 59
2, 38200, Control_c, 0, 64, 61
2, 38221, Control_c, 0, 64, 63
2, 38241, Control_c, 0, 64, 64
2, 38259, Control_c, 0, 64, 65
2, 38277, Control_c, 0, 64, 68
2, 38296, Control_c, 0, 64, 72
2, 38316, Control_c, 0, 64, 79
2, 38335, Control_c, 0, 64, 88
2, 38357, Control_c, 0, 64, 99
2, 38375, Control_c, 0, 64, 127
2, 38776, Note_on_c, 0, 75, 0
2, 38780, Note_on_c, 0, 80, 0
2, 38872, Note_on_c, 0, 83, 0
2, 38916, Note_on_c, 0, 71, 58
2, 39009, Control_c, 0, 64, 105
2, 39025, Note_on_c, 0, 75, 36
2, 39028, Control_c, 0, 64, 85
2, 39047, Control_c, 0, 64, 73
2, 39065, Control_c, 0, 64, 66
2, 39070, Note_on_c, 0, 80, 41
2, 39085, Control_c, 0, 64, 61
2, 39103, Control_c, 0, 64, 58
2, 39142, Control_c, 0, 64, 57
2, 39163, Control_c, 0, 64, 56
2, 39163, Note_on_c, 0, 71, 0
2, 39181, Note_on_c, 0, 68, 52
2, 39186, Control_c, 0, 64, 54
2, 39191, Note_on_c, 0, 83, 34
2, 39202, Control_c, 0, 64, 51
2, 39218, Control_c, 0, 64, 48
2, 39238, Control_c, 0, 64, 46
2, 39257, Control_c, 0, 64, 44
2, 39277, Control_c, 0, 64, 43
2, 39295, Control_c, 0, 64, 41
2, 39317, Control_c, 0, 64, 39
2, 39334, Control_c, 0, 64, 37
2, 39355, Control_c, 0, 64, 36
2, 39469, Control_c, 0, 64, 37
2, 39488, Control_c, 0, 64, 39
2, 39506, Control_c, 0, 64, 42
2, 39525, Control_c, 0, 64, 44
2, 39545, Control_c, 0, 64, 47
2, 39563, Control_c, 0, 64, 50
2, 39583, Control_c, 0, 64, 53
2, 39603, Control_c, 0, 64, 55
2, 39625, Control_c, 0, 64, 56
2, 39640, Control_c, 0, 64, 57
2, 39662, Control_c, 0, 64, 58
2, 39678, Control_c, 0, 64, 60
2, 39700, Control_c, 0, 64, 61
2, 39719, Control_c, 0, 64, 62
2, 39736, Control_c, 0, 64, 63
2, 39756, Control_c, 0, 64, 64
2, 39775, Control_c, 0, 64, 66
2, 39795, Control_c, 0, 64, 68
2, 39814, Control_c, 0, 64, 71
2, 39834, Control_c, 0, 64, 76
2, 39854, Control_c, 0, 64, 85
2, 39870, Control_c, 0, 64, 94
2, 39892, Control_c, 0, 64, 107
2, 39910, Control_c, 0, 64, 127
2, 40370, Note_on_c, 0, 75, 0
2, 40425, Note_on_c, 0, 68, 0
2, 40466, Note_on_c, 0, 80, 0
2, 40473, Note_on_c, 0, 83, 0
2, 40554, Note_on_c, 0, 65, 54
2, 40682, Note_on_c, 0, 77, 59
2, 40765, Note_on_c, 0, 80, 60
2, 41005, Control_c, 0, 64, 105
2, 41024, Control_c, 0, 64, 85
2, 41024, Note_on_c, 0, 62, 38
2, 41028, Note_on_c, 0, 65, 0
2, 41042, Control_c, 0, 64, 72
2, 41061, Control_c, 0, 64, 64
2, 41083, Control_c, 0, 64, 59
2, 41103, Control_c, 0, 64, 57
2, 41125, Note_on_c, 0, 83, 56
2, 41139, Control_c, 0, 64, 55
2, 41156, Control_c, 0, 64, 52
2, 41177, Control_c, 0, 64, 48
2, 41197, Control_c, 0, 64, 44
2, 41217, Control_c, 0, 64, 40
2, 41234, Control_c, 0, 64, 37
2, 41253, Control_c, 0, 64, 36
2, 41275, Control_c, 0, 64, 35
2, 41294, Control_c, 0, 64, 32
2, 41311, Control_c, 0, 64, 30
2, 41333, Control_c, 0, 64, 27
2, 41426, Control_c, 0, 64, 28
2, 41444, Control_c, 0, 64, 31
2, 41464, Control_c, 0, 64, 35
2, 41482, Control_c, 0, 64, 40
2, 41502, Control_c, 0, 64, 46
2, 41522, Control_c, 0, 64, 52
2, 41544, Control_c, 0, 64, 55
2, 41560, Control_c, 0, 64, 57
2, 41580, Control_c, 0, 64, 58
2, 41599, Control_c, 0, 64, 60
2, 41618, Control_c, 0, 64, 61
2, 41640, Control_c, 0, 64, 62
2, 41658, Control_c, 0, 64, 64
2, 41678, Control_c, 0, 64, 65
2, 41696, Control_c, 0, 64, 67
2, 41714, Control_c, 0, 64, 70
2, 41734, Control_c, 0, 64, 75
2, 41754, Control_c, 0, 64, 81
2, 41774, Control_c, 0, 64, 90
2, 41792, Control_c, 0, 64, 100
2, 41811, Control_c, 0, 64, 113
2, 41829, Control_c, 0, 64, 127
2, 42156, Note_on_c, 0, 62, 0
2, 42507, Note_on_c, 0, 62, 38
2, 42601, Note_on_c, 0, 65, 44
2, 42648, Note_on_c, 0, 77, 0
2, 42655, Control_c, 0, 64, 112
2, 42674, Control_c, 0, 64, 93
2, 42681, Note_on_c, 0, 70, 51
2, 42687, Note_on_c, 0, 80, 0
2, 42692, Note_on_c, 0, 83, 0
2, 42697, Control_c, 0, 64, 80
2, 42712, Control_c, 0, 64, 71
2, 42733, Control_c, 0, 64, 64
2, 42753, Control_c, 0, 64, 60
2, 42771, Control_c, 0, 64, 57
2, 42789, Control_c, 0, 64, 55
2, 42811, Control_c, 0, 64, 52
2, 42827, Control_c, 0, 64, 49
2, 42846, Control_c, 0, 64, 45
2, 42868, Control_c, 0, 64, 39
2, 42886, Control_c, 0, 64, 34
2, 42904, Control_c, 0, 64, 32
2, 42944, Control_c, 0, 64, 31
2, 43096, Control_c, 0, 64, 32
2, 43133, Control_c, 0, 64, 33
2, 43154, Control_c, 0, 64, 34
2, 43174, Control_c, 0, 64, 35
2, 43210, Control_c, 0, 64, 36
2, 43269, Control_c, 0, 64, 37
2, 43288, Control_c, 0, 64, 39
2, 43308, Control_c, 0, 64, 42
2, 43328, Control_c, 0, 64, 44
2, 43346, Control_c, 0, 64, 47
2, 43365, Control_c, 0, 64, 50
2, 43386, Control_c, 0, 64, 53
2, 43406, Control_c, 0, 64, 55
2, 43423, Control_c, 0, 64, 58
2, 43441, Control_c, 0, 64, 59
2, 43461, Control_c, 0, 64, 60
2, 43480, Control_c, 0, 64, 61
2, 43499, Control_c, 0, 64, 62
2, 43519, Control_c, 0, 64, 63
2, 43537, Control_c, 0, 64, 65
2, 43557, Control_c, 0, 64, 66
2, 43575, Control_c, 0, 64, 69
2, 43595, Control_c, 0, 64, 73
2, 43615, Control_c, 0, 64, 78
2, 43635, Control_c, 0, 64, 84
2, 43652, Control_c, 0, 64, 90
2, 43673, Control_c, 0, 64, 95
2, 43693, Control_c, 0, 64, 102
2, 43711, Control_c, 0, 64, 111
2, 43730, Control_c, 0, 64, 127
2, 43755, Note_on_c, 0, 82, 45
2, 43925, Note_on_c, 0, 62, 0
2, 43939, Note_on_c, 0, 65, 0
2, 43961, Note_on_c, 0, 80, 60
2, 43992, Note_on_c, 0, 82, 0
2, 44097, Note_on_c, 0, 70, 0
2, 44145, Note_on_c, 0, 80, 0
2, 44152, Note_on_c, 0, 78, 70
2, 44187, Note_on_c, 0, 62, 47
2, 44243, Note_on_c, 0, 65, 45
2, 44287, Control_c, 0, 64, 122
2, 44305, Control_c, 0, 64, 103
2, 44326, Control_c, 0, 64, 91
2, 44347, Control_c, 0, 64, 79
2, 44364, Control_c, 0, 64, 69
2, 44380, Note_on_c, 0, 78, 0
2, 44384, Control_c, 0, 64, 62
2, 44402, Control_c, 0, 64, 56
2, 44409, Note_on_c, 0, 77, 56
2, 44423, Control_c, 0, 64, 53
2, 44425, Note_on_c, 0, 70, 43
2, 44442, Control_c, 0, 64, 52
2, 44458, Control_c, 0, 64, 51
2, 44480, Control_c, 0, 64, 49
2, 44498, Control_c, 0, 64, 47
2, 44516, Control_c, 0, 64, 43
2, 44537, Control_c, 0, 64, 38
2, 44557, Control_c, 0, 64, 36
2, 44650, Control_c, 0, 64, 35
2, 44662, Note_on_c, 0, 77, 0
2, 44699, Note_on_c, 0, 78, 52
2, 44863, Note_on_c, 0, 78, 0
2, 44903, Note_on_c, 0, 77, 53
2, 45076, Note_on_c, 0, 77, 0
2, 45102, Note_on_c, 0, 78, 58
2, 45262, Note_on_c, 0, 78, 0
2, 45294, Note_on_c, 0, 80, 61
2, 45485, Note_on_c, 0, 80, 0
2, 45509, Note_on_c, 0, 78, 64
2, 45675, Note_on_c, 0, 78, 0
2, 45705, Note_on_c, 0, 80, 65
2, 45727, Control_c, 0, 64, 36
2, 45748, Note_on_c, 0, 65, 0
2, 45870, Note_on_c, 0, 80, 0
2, 45900, Note_on_c, 0, 77, 73
2, 45936, Note_on_c, 0, 70, 0
2, 45960, Note_on_c, 0, 62, 0
2, 45965, Note_on_c, 0, 63, 50
2, 46074, Note_on_c, 0, 66, 47
2, 46214, Note_on_c, 0, 77, 0
2, 46224, Note_on_c, 0, 80, 61
2, 46341, Note_on_c, 0, 70, 47
2, 46399, Control_c, 0, 64, 37
2, 46446, Note_on_c, 0, 80, 0
2, 46470, Note_on_c, 0, 78, 60
2, 46575, Note_on_c, 0, 78, 0
2, 46605, Note_on_c, 0, 80, 64
2, 46680, Note_on_c, 0, 80, 0
2, 46722, Note_on_c, 0, 78, 60
2, 46770, Note_on_c, 0, 78, 0
2, 46803, Note_on_c, 0, 80, 63
2, 46839, Note_on_c, 0, 80, 0
2, 46870, Note_on_c, 0, 78, 63
2, 46917, Note_on_c, 0, 78, 0
2, 46926, Note_on_c, 0, 80, 66
2, 46981, Note_on_c, 0, 80, 0
2, 47014, Note_on_c, 0, 78, 62
2, 47054, Note_on_c, 0, 78, 0
2, 47065, Note_on_c, 0, 80, 58
2, 47107, Note_on_c, 0, 80, 0
2, 47161, Note_on_c, 0, 78, 52
2, 47232, Note_on_c, 0, 78, 0
2, 47258, Note_on_c, 0, 77, 66
2, 47340, Control_c, 0, 64, 38
2, 47359, Control_c, 0, 64, 41
2, 47381, Control_c, 0, 64, 47
2, 47397, Control_c, 0, 64, 54
2, 47417, Control_c, 0, 64, 59
2, 47434, Control_c, 0, 64, 61
2, 47456, Control_c, 0, 64, 63
2, 47475, Control_c, 0, 64, 66
2, 47475, Note_on_c, 0, 70, 0
2, 47479, Note_on_c, 0, 75, 62
2, 47479, Note_on_c, 0, 77, 0
2, 47494, Control_c, 0, 64, 70
2, 47512, Control_c, 0, 64, 77
2, 47531, Note_on_c, 0, 75, 0
2, 47536, Control_c, 0, 64, 86
2, 47551, Control_c, 0, 64, 96
2, 47573, Control_c, 0, 64, 104
2, 47589, Control_c, 0, 64, 106
2, 47613, Note_on_c, 0, 66, 0
2, 47647, Note_on_c, 0, 63, 0
2, 47668, Control_c, 0, 64, 105
2, 47689, Control_c, 0, 64, 102
2, 47701, Note_on_c, 0, 70, 40
2, 47705, Control_c, 0, 64, 97
2, 47724, Control_c, 0, 64, 91
2, 47746, Control_c, 0, 64, 85
2, 47763, Control_c, 0, 64, 78
2, 47783, Control_c, 0, 64, 72
2, 47799, Control_c, 0, 64, 66
2, 47818, Note_on_c, 0, 75, 46
2, 47823, Control_c, 0, 64, 62
2, 47842, Control_c, 0, 64, 59
2, 47861, Control_c, 0, 64, 57
2, 47876, Control_c, 0, 64, 56
2, 47883, Note_on_c, 0, 78, 60
2, 47896, Control_c, 0, 64, 54
2, 47916, Control_c, 0, 64, 51
2, 47936, Control_c, 0, 64, 47
2, 47954, Control_c, 0, 64, 43
2, 47974, Control_c, 0, 64, 39
2, 47993, Control_c, 0, 64, 37
2, 48011, Control_c, 0, 64, 35
2, 48020, Note_on_c, 0, 82, 72
2, 48032, Control_c, 0, 64, 34
2, 48050, Control_c, 0, 64, 32
2, 48068, Control_c, 0, 64, 30
2, 48087, Control_c, 0, 64, 29
2, 48282, Control_c, 0, 64, 30
2, 48299, Control_c, 0, 64, 31
2, 48318, Control_c, 0, 64, 33
2, 48339, Control_c, 0, 64, 35
2, 48357, Control_c, 0, 64, 37
2, 48377, Control_c, 0, 64, 40
2, 48395, Control_c, 0, 64, 43
2, 48414, Control_c, 0, 64, 47
2, 48434, Control_c, 0, 64, 50
2, 48453, Control_c, 0, 64, 53
2, 48472, Control_c, 0, 64, 55
2, 48495, Control_c, 0, 64, 56
2, 48512, Control_c, 0, 64, 57
2, 48529, Control_c, 0, 64, 59
2, 48551, Control_c, 0, 64, 60
2, 48568, Control_c, 0, 64, 61
2, 48588, Control_c, 0, 64, 62
2, 48607, Control_c, 0, 64, 64
2, 48627, Control_c, 0, 64, 65
2, 48648, Control_c, 0, 64, 67
2, 48664, Control_c, 0, 64, 71
2, 48684, Control_c, 0, 64, 77
2, 48702, Control_c, 0, 64, 86
2, 48724, Control_c, 0, 64, 97
2, 48740, Control_c, 0, 64, 111
2, 48760, Control_c, 0, 64, 127
2, 49188, Note_on_c, 0, 70, 0
2, 49219, Note_on_c, 0, 78, 0
2, 49467, Note_on_c, 0, 75, 0
2, 49617, Note_on_c, 0, 66, 51
2, 49628, Note_on_c, 0, 82, 0
2, 49723, Control_c, 0, 64, 108
2, 49739, Control_c, 0, 64, 97
2, 49743, Note_on_c, 0, 73, 44
2, 49759, Control_c, 0, 64, 89
2, 49773, Note_on_c, 0, 75, 43
2, 49778, Control_c, 0, 64, 82
2, 49798, Control_c, 0, 64, 75
2, 49817, Control_c, 0, 64, 68
2, 49825, Note_on_c, 0, 78, 48
2, 49836, Control_c, 0, 64, 64
2, 49856, Control_c, 0, 64, 62
2, 49874, Control_c, 0, 64, 61
2, 49892, Control_c, 0, 64, 60
2, 49901, Note_on_c, 0, 66, 0
2, 49907, Note_on_c, 0, 63, 46
2, 49912, Control_c, 0, 64, 59
2, 49933, Control_c, 0, 64, 56
2, 49947, Note_on_c, 0, 82, 48
2, 49952, Control_c, 0, 64, 53
2, 49970, Control_c, 0, 64, 50
2, 49988, Control_c, 0, 64, 47
2, 50007, Control_c, 0, 64, 44
2, 50029, Control_c, 0, 64, 40
2, 50046, Control_c, 0, 64, 30
2, 50066, Control_c, 0, 64, 15
2, 50084, Control_c, 0, 64, 0
2, 50450, Control_c, 0, 64, 22
2, 50470, Control_c, 0, 64, 31
2, 50491, Control_c, 0, 64, 39
2, 50507, Control_c, 0, 64, 45
2, 50527, Control_c, 0, 64, 50
2, 50547, Control_c, 0, 64, 54
2, 50565, Control_c, 0, 64, 56
2, 50584, Control_c, 0, 64, 58
2, 50604, Control_c, 0, 64, 59
2, 50624, Control_c, 0, 64, 60
2, 50641, Control_c, 0, 64, 61
2, 50661, Control_c, 0, 64, 62
2, 50682, Control_c, 0, 64, 63
2, 50699, Control_c, 0, 64, 64
2, 50720, Control_c, 0, 64, 66
2, 50739, Control_c, 0, 64, 68
2, 50761, Control_c, 0, 64, 72
2, 50776, Control_c, 0, 64, 76
2, 50795, Control_c, 0, 64, 81
2, 50815, Control_c, 0, 64, 87
2, 50835, Control_c, 0, 64, 93
2, 50853, Control_c, 0, 64, 99
2, 50873, Control_c, 0, 64, 108
2, 50891, Control_c, 0, 64, 127
2, 51011, Note_on_c, 0, 73, 0
2, 51069, Note_on_c, 0, 82, 0
2, 51110, Note_on_c, 0, 78, 0
2, 51204, Note_on_c, 0, 75, 0
2, 51330, Note_on_c, 0, 60, 45
2, 51346, Note_on_c, 0, 63, 0
2, 51376, Note_on_c, 0, 72, 46
2, 51410, Control_c, 0, 64, 112
2, 51430, Control_c, 0, 64, 103
2, 51441, Note_on_c, 0, 75, 46
2, 51449, Control_c, 0, 64, 96
2, 51467, Control_c, 0, 64, 90
2, 51487, Control_c, 0, 64, 84
2, 51507, Control_c, 0, 64, 78
2, 51512, Note_on_c, 0, 78, 62
2, 51525, Control_c, 0, 64, 73
2, 51545, Control_c, 0, 64, 67
2, 51562, Control_c, 0, 64, 64
2, 51583, Control_c, 0, 64, 63
2, 51605, Control_c, 0, 64, 62
2, 51621, Control_c, 0, 64, 61
2, 51641, Control_c, 0, 64, 60
2, 51650, Note_on_c, 0, 60, 0
2, 51659, Control_c, 0, 64, 59
2, 51674, Note_on_c, 0, 58, 44
2, 51679, Control_c, 0, 64, 58
2, 51698, Control_c, 0, 64, 56
2, 51716, Control_c, 0, 64, 55
2, 51736, Control_c, 0, 64, 54
2, 51755, Control_c, 0, 64, 53
2, 51774, Control_c, 0, 64, 51
2, 51785, Note_on_c, 0, 84, 46
2, 51797, Control_c, 0, 64, 49
2, 51815, Control_c, 0, 64, 47
2, 51835, Control_c, 0, 64, 45
2, 51855, Control_c, 0, 64, 42
2, 51870, Control_c, 0, 64, 39
2, 51890, Control_c, 0, 64, 36
2, 51909, Control_c, 0, 64, 32
2, 51928, Control_c, 0, 64, 25
2, 51947, Control_c, 0, 64, 17
2, 51966, Control_c, 0, 64, 0
2, 52088, Note_on_c, 0, 58, 0
2, 52139, Note_on_c, 0, 57, 27
2, 52410, Control_c, 0, 64, 12
2, 52430, Control_c, 0, 64, 18
2, 52447, Control_c, 0, 64, 25
2, 52467, Control_c, 0, 64, 32
2, 52486, Control_c, 0, 64, 37
2, 52504, Control_c, 0, 64, 42
2, 52523, Control_c, 0, 64, 46
2, 52543, Control_c, 0, 64, 49
2, 52561, Control_c, 0, 64, 52
2, 52581, Control_c, 0, 64, 53
2, 52602, Control_c, 0, 64, 54
2, 52622, Control_c, 0, 64, 55
2, 52641, Control_c, 0, 64, 56
2, 52660, Control_c, 0, 64, 57
2, 52678, Control_c, 0, 64, 58
2, 52715, Control_c, 0, 64, 59
2, 52737, Control_c, 0, 64, 60
2, 52752, Control_c, 0, 64, 61
2, 52772, Control_c, 0, 64, 62
2, 52793, Control_c, 0, 64, 63
2, 52811, Control_c, 0, 64, 64
2, 52831, Control_c, 0, 64, 65
2, 52851, Control_c, 0, 64, 67
2, 52869, Control_c, 0, 64, 71
2, 52890, Control_c, 0, 64, 75
2, 52908, Control_c, 0, 64, 81
2, 52927, Control_c, 0, 64, 88
2, 52946, Control_c, 0, 64, 95
2, 52964, Control_c, 0, 64, 105
2, 52984, Control_c, 0, 64, 127
2, 53193, Note_on_c, 0, 57, 0
2, 53392, Note_on_c, 0, 57, 29
2, 53485, Control_c, 0, 64, 110
2, 53492, Note_on_c, 0, 60, 43
2, 53507, Control_c, 0, 64, 93
2, 53524, Control_c, 0, 64, 79
2, 53540, Control_c, 0, 64, 69
2, 53562, Note_on_c, 0, 72, 0
2, 53567, Control_c, 0, 64, 63
2, 53567, Note_on_c, 0, 84, 0
2, 53578, Note_on_c, 0, 65, 47
2, 53583, Control_c, 0, 64, 58
2, 53597, Control_c, 0, 64, 55
2, 53615, Note_on_c, 0, 75, 0
2, 53617, Control_c, 0, 64, 54
2, 53631, Note_on_c, 0, 78, 0
2, 53640, Control_c, 0, 64, 52
2, 53658, Control_c, 0, 64, 50
2, 53675, Control_c, 0, 64, 46
2, 53694, Control_c, 0, 64, 43
2, 53715, Control_c, 0, 64, 39
2, 53733, Control_c, 0, 64, 37
2, 53753, Control_c, 0, 64, 35
2, 53771, Control_c, 0, 64, 33
2, 53791, Control_c, 0, 64, 30
2, 53811, Control_c, 0, 64, 27
2, 53829, Control_c, 0, 64, 23
2, 53849, Control_c, 0, 64, 20
2, 53867, Control_c, 0, 64, 19
2, 53889, Control_c, 0, 64, 18
2, 54059, Control_c, 0, 64, 20
2, 54078, Control_c, 0, 64, 21
2, 54098, Control_c, 0, 64, 23
2, 54118, Control_c, 0, 64, 24
2, 54140, Control_c, 0, 64, 25
2, 54157, Control_c, 0, 64, 27
2, 54175, Control_c, 0, 64, 28
2, 54194, Control_c, 0, 64, 31
2, 54215, Control_c, 0, 64, 34
2, 54233, Control_c, 0, 64, 38
2, 54252, Control_c, 0, 64, 43
2, 54270, Control_c, 0, 64, 46
2, 54291, Control_c, 0, 64, 48
2, 54308, Control_c, 0, 64, 51
2, 54329, Control_c, 0, 64, 53
2, 54346, Control_c, 0, 64, 55
2, 54368, Control_c, 0, 64, 57
2, 54386, Control_c, 0, 64, 59
2, 54406, Control_c, 0, 64, 60
2, 54424, Control_c, 0, 64, 61
2, 54444, Control_c, 0, 64, 62
2, 54462, Control_c, 0, 64, 63
2, 54482, Control_c, 0, 64, 64
2, 54500, Control_c, 0, 64, 65
2, 54520, Control_c, 0, 64, 67
2, 54540, Control_c, 0, 64, 70
2, 54560, Control_c, 0, 64, 73
2, 54580, Control_c, 0, 64, 78
2, 54597, Control_c, 0, 64, 83
2, 54617, Control_c, 0, 64, 87
2, 54635, Control_c, 0, 64, 92
2, 54654, Control_c, 0, 64, 96
2, 54675, Control_c, 0, 64, 100
2, 54691, Note_on_c, 0, 77, 51
2, 54695, Control_c, 0, 64, 102
2, 54714, Control_c, 0, 64, 104
2, 54730, Control_c, 0, 64, 106
2, 54750, Control_c, 0, 64, 109
2, 54770, Control_c, 0, 64, 110
2, 54789, Control_c, 0, 64, 111
2, 54808, Control_c, 0, 64, 112
2, 54895, Note_on_c, 0, 77, 0
2, 54908, Note_on_c, 0, 75, 61
2, 54932, Note_on_c, 0, 60, 0
2, 54981, Control_c, 0, 64, 111
2, 54990, Note_on_c, 0, 57, 0
2, 55001, Control_c, 0, 64, 110
2, 55022, Control_c, 0, 64, 109
2, 55077, Control_c, 0, 64, 108
2, 55091, Note_on_c, 0, 65, 0
2, 55097, Control_c, 0, 64, 107
2, 55099, Note_on_c, 0, 73, 72
2, 55115, Control_c, 0, 64, 106
2, 55115, Note_on_c, 0, 75, 0
2, 55135, Control_c, 0, 64, 104
2, 55142, Note_on_c, 0, 57, 46
2, 55173, Control_c, 0, 64, 103
2, 55193, Control_c, 0, 64, 102
2, 55213, Control_c, 0, 64, 100
2, 55217, Note_on_c, 0, 60, 45
2, 55230, Control_c, 0, 64, 97
2, 55250, Control_c, 0, 64, 92
2, 55270, Control_c, 0, 64, 85
2, 55288, Control_c, 0, 64, 79
2, 55306, Control_c, 0, 64, 72
2, 55326, Control_c, 0, 64, 66
2, 55348, Control_c, 0, 64, 61
2, 55352, Note_on_c, 0, 73, 0
2, 55364, Control_c, 0, 64, 58
2, 55368, Note_on_c, 0, 72, 61
2, 55383, Control_c, 0, 64, 56
2, 55399, Note_on_c, 0, 65, 44
2, 55406, Control_c, 0, 64, 53
2, 55422, Control_c, 0, 64, 51
2, 55441, Control_c, 0, 64, 49
2, 55462, Control_c, 0, 64, 45
2, 55481, Control_c, 0, 64, 41
2, 55499, Control_c, 0, 64, 36
2, 55518, Control_c, 0, 64, 33
2, 55537, Control_c, 0, 64, 29
2, 55558, Control_c, 0, 64, 28
2, 55576, Control_c, 0, 64, 26
2, 55596, Control_c, 0, 64, 25
2, 55634, Control_c, 0, 64, 24
2, 55640, Note_on_c, 0, 72, 0
2, 55651, Control_c, 0, 64, 23
2, 55656, Note_on_c, 0, 73, 61
2, 55672, Control_c, 0, 64, 22
2, 55786, Control_c, 0, 64, 21
2, 55824, Control_c, 0, 64, 20
2, 55832, Note_on_c, 0, 73, 0
2, 55845, Control_c, 0, 64, 19
2, 55867, Control_c, 0, 64, 18
2, 55867, Note_on_c, 0, 72, 58
2, 55883, Control_c, 0, 64, 14
2, 55903, Control_c, 0, 64, 8
2, 55924, Control_c, 0, 64, 0
2, 56046, Note_on_c, 0, 72, 0
2, 56062, Note_on_c, 0, 73, 61
2, 56228, Note_on_c, 0, 73, 0
2, 56252, Note_on_c, 0, 75, 63
2, 56437, Note_on_c, 0, 75, 0
2, 56457, Note_on_c, 0, 73, 65
2, 56622, Note_on_c, 0, 73, 0
2, 56638, Note_on_c, 0, 75, 64
2, 56780, Note_on_c, 0, 60, 0
2, 56814, Note_on_c, 0, 75, 0
2, 56842, Note_on_c, 0, 72, 72
2, 56950, Note_on_c, 0, 65, 0
2, 56965, Note_on_c, 0, 57, 0
2, 56976, Note_on_c, 0, 58, 48
2, 57055, Note_on_c, 0, 61, 47
2, 57150, Note_on_c, 0, 72, 0
2, 57152, Note_on_c, 0, 75, 63
2, 57304, Note_on_c, 0, 65, 45
2, 57370, Note_on_c, 0, 75, 0
2, 57393, Note_on_c, 0, 73, 63
2, 57505, Note_on_c, 0, 73, 0
2, 57528, Note_on_c, 0, 75, 63
2, 57605, Note_on_c, 0, 75, 0
2, 57639, Note_on_c, 0, 73, 64
2, 57695, Note_on_c, 0, 73, 0
2, 57732, Note_on_c, 0, 75, 61
2, 57775, Note_on_c, 0, 75, 0
2, 57811, Note_on_c, 0, 73, 64
2, 57857, Note_on_c, 0, 73, 0
2, 57866, Note_on_c, 0, 75, 69
2, 57906, Note_on_c, 0, 75, 0
2, 57942, Note_on_c, 0, 73, 70
2, 57983, Note_on_c, 0, 73, 0
2, 58005, Note_on_c, 0, 75, 58
2, 58039, Note_on_c, 0, 75, 0
2, 58089, Note_on_c, 0, 73, 41
2, 58107, Note_on_c, 0, 75, 54
2, 58142, Note_on_c, 0, 75, 0
2, 58151, Note_on_c, 0, 73, 0
2, 58151, Note_on_c, 0, 73, 57
2, 58228, Note_on_c, 0, 73, 0
2, 58265, Note_on_c, 0, 72, 64
2, 58302, Control_c, 0, 64, 9
2, 58323, Control_c, 0, 64, 30
2, 58340, Control_c, 0, 64, 43
2, 58358, Control_c, 0, 64, 54
2, 58379, Control_c, 0, 64, 60
2, 58400, Control_c, 0, 64, 63
2, 58419, Control_c, 0, 64, 65
2, 58436, Control_c, 0, 64, 68
2, 58444, Note_on_c, 0, 58, 0
2, 58460, Control_c, 0, 64, 75
2, 58460, Note_on_c, 0, 70, 72
2, 58464, Note_on_c, 0, 72, 0
2, 58475, Control_c, 0, 64, 85
2, 58479, Note_on_c, 0, 61, 0
2, 58486, Note_on_c, 0, 65, 0
2, 58495, Control_c, 0, 64, 96
2, 58515, Control_c, 0, 64, 107
2, 58519, Note_on_c, 0, 70, 0
2, 58536, Control_c, 0, 64, 116
2, 58556, Control_c, 0, 64, 118
2, 58612, Control_c, 0, 64, 116
2, 58628, Note_on_c, 0, 58, 45
2, 58632, Control_c, 0, 64, 112
2, 58653, Control_c, 0, 64, 106
2, 58653, Note_on_c, 0, 61, 51
2, 58671, Control_c, 0, 64, 99
2, 58689, Control_c, 0, 64, 91
2, 58704, Note_on_c, 0, 65, 51
2, 58708, Control_c, 0, 64, 82
2, 58729, Control_c, 0, 64, 76
2, 58747, Control_c, 0, 64, 72
2, 58767, Control_c, 0, 64, 70
2, 58784, Control_c, 0, 64, 67
2, 58789, Note_on_c, 0, 70, 48
2, 58807, Control_c, 0, 64, 64
2, 58823, Control_c, 0, 64, 62
2, 58843, Control_c, 0, 64, 59
2, 58847, Note_on_c, 0, 73, 60
2, 58863, Control_c, 0, 64, 58
2, 58882, Control_c, 0, 64, 57
2, 58901, Control_c, 0, 64, 55
2, 58922, Control_c, 0, 64, 53
2, 58940, Control_c, 0, 64, 50
2, 58946, Note_on_c, 0, 77, 74
2, 58958, Control_c, 0, 64, 46
2, 58978, Control_c, 0, 64, 41
2, 58997, Control_c, 0, 64, 36
2, 59017, Control_c, 0, 64, 33
2, 59038, Control_c, 0, 64, 29
2, 59058, Control_c, 0, 64, 25
2, 59073, Control_c, 0, 64, 20
2, 59091, Control_c, 0, 64, 16
2, 59112, Control_c, 0, 64, 13
2, 59226, Control_c, 0, 64, 16
2, 59246, Control_c, 0, 64, 21
2, 59264, Control_c, 0, 64, 29
2, 59284, Control_c, 0, 64, 36
2, 59302, Control_c, 0, 64, 44
2, 59327, Control_c, 0, 64, 50
2, 59342, Control_c, 0, 64, 55
2, 59360, Control_c, 0, 64, 57
2, 59381, Control_c, 0, 64, 58
2, 59401, Control_c, 0, 64, 59
2, 59421, Control_c, 0, 64, 60
2, 59438, Control_c, 0, 64, 62
2, 59457, Control_c, 0, 64, 63
2, 59476, Control_c, 0, 64, 65
2, 59481, Note_on_c, 0, 77, 0
2, 59497, Control_c, 0, 64, 68
2, 59514, Control_c, 0, 64, 71
2, 59536, Control_c, 0, 64, 78
2, 59545, Note_on_c, 0, 70, 0
2, 59553, Control_c, 0, 64, 86
2, 59573, Control_c, 0, 64, 96
2, 59592, Control_c, 0, 64, 109
2, 59611, Control_c, 0, 64, 127
2, 59699, Note_on_c, 0, 73, 0
2, 59746, Note_on_c, 0, 65, 0
2, 60032, Note_on_c, 0, 78, 58
2, 60080, Note_on_c, 0, 61, 0
2, 60146, Note_on_c, 0, 58, 0
2, 60188, Note_on_c, 0, 78, 0
2, 60251, Note_on_c, 0, 77, 69
2, 60437, Note_on_c, 0, 58, 47
2, 60444, Note_on_c, 0, 75, 72
2, 60490, Note_on_c, 0, 77, 0
2, 60532, Note_on_c, 0, 61, 42
2, 60554, Control_c, 0, 64, 111
2, 60571, Control_c, 0, 64, 99
2, 60590, Control_c, 0, 64, 89
2, 60610, Control_c, 0, 64, 81
2, 60628, Control_c, 0, 64, 73
2, 60649, Control_c, 0, 64, 66
2, 60667, Control_c, 0, 64, 62
2, 60689, Control_c, 0, 64, 58
2, 60705, Control_c, 0, 64, 56
2, 60715, Note_on_c, 0, 65, 39
2, 60723, Note_on_c, 0, 73, 63
2, 60728, Control_c, 0, 64, 54
2, 60743, Control_c, 0, 64, 53
2, 60747, Note_on_c, 0, 75, 0
2, 60764, Control_c, 0, 64, 51
2, 60782, Control_c, 0, 64, 48
2, 60802, Control_c, 0, 64, 44
2, 60822, Control_c, 0, 64, 40
2, 60840, Control_c, 0, 64, 37
2, 60860, Control_c, 0, 64, 35
2, 60878, Control_c, 0, 64, 34
2, 60896, Control_c, 0, 64, 33
2, 60936, Control_c, 0, 64, 32
2, 60947, Note_on_c, 0, 73, 0
2, 60951, Note_on_c, 0, 72, 59
2, 61013, Control_c, 0, 64, 31
2, 61050, Control_c, 0, 64, 30
2, 61090, Control_c, 0, 64, 29
2, 61109, Control_c, 0, 64, 28
2, 61130, Control_c, 0, 64, 27
2, 61169, Control_c, 0, 64, 26
2, 61173, Note_on_c, 0, 70, 58
2, 61178, Note_on_c, 0, 72, 0
2, 61206, Control_c, 0, 64, 25
2, 61223, Control_c, 0, 64, 24
2, 61243, Control_c, 0, 64, 22
2, 61261, Control_c, 0, 64, 20
2, 61284, Control_c, 0, 64, 19
2, 61300, Control_c, 0, 64, 18
2, 61322, Control_c, 0, 64, 17
2, 61338, Control_c, 0, 64, 15
2, 61357, Control_c, 0, 64, 11
2, 61378, Control_c, 0, 64, 0
2, 61391, Note_on_c, 0, 70, 0
2, 61399, Note_on_c, 0, 68, 58
2, 61682, Note_on_c, 0, 68, 0
2, 61696, Note_on_c, 0, 66, 50
2, 61763, Control_c, 0, 64, 18
2, 61781, Control_c, 0, 64, 29
2, 61801, Control_c, 0, 64, 38
2, 61820, Control_c, 0, 64, 46
2, 61838, Control_c, 0, 64, 53
2, 61856, Control_c, 0, 64, 57
2, 61877, Control_c, 0, 64, 59
2, 61896, Control_c, 0, 64, 60
2, 61916, Control_c, 0, 64, 61
2, 61933, Control_c, 0, 64, 63
2, 61953, Control_c, 0, 64, 64
2, 61975, Control_c, 0, 64, 66
2, 61991, Control_c, 0, 64, 70
2, 62010, Control_c, 0, 64, 75
2, 62033, Control_c, 0, 64, 81
2, 62051, Control_c, 0, 64, 87
2, 62070, Control_c, 0, 64, 91
2, 62088, Control_c, 0, 64, 94
2, 62088, Note_on_c, 0, 65, 0
2, 62110, Control_c, 0, 64, 98
2, 62125, Control_c, 0, 64, 104
2, 62145, Control_c, 0, 64, 120
2, 62167, Control_c, 0, 64, 127
2, 62171, Note_on_c, 0, 66, 0
2, 62191, Note_on_c, 0, 68, 58
2, 62229, Note_on_c, 0, 61, 0
2, 62243, Note_on_c, 0, 58, 0
2, 62368, Note_on_c, 0, 68, 0
2, 62414, Note_on_c, 0, 65, 52
2, 62501, Note_on_c, 0, 51, 46
2, 62568, Control_c, 0, 64, 116
2, 62588, Note_on_c, 0, 58, 45
2, 62592, Control_c, 0, 64, 108
2, 62606, Control_c, 0, 64, 100
2, 62626, Control_c, 0, 64, 93
2, 62644, Control_c, 0, 64, 86
2, 62664, Control_c, 0, 64, 80
2, 62684, Control_c, 0, 64, 75
2, 62693, Note_on_c, 0, 61, 43
2, 62702, Control_c, 0, 64, 70
2, 62721, Control_c, 0, 64, 67
2, 62741, Control_c, 0, 64, 64
2, 62760, Control_c, 0, 64, 62
2, 62779, Control_c, 0, 64, 60
2, 62796, Control_c, 0, 64, 59
2, 62820, Control_c, 0, 64, 58
2, 62820, Note_on_c, 0, 63, 41
2, 62838, Control_c, 0, 64, 57
2, 62842, Note_on_c, 0, 65, 0
2, 62858, Control_c, 0, 64, 55
2, 62872, Note_on_c, 0, 66, 58
2, 62875, Control_c, 0, 64, 53
2, 62894, Control_c, 0, 64, 50
2, 62915, Control_c, 0, 64, 47
2, 62932, Control_c, 0, 64, 46
2, 62952, Control_c, 0, 64, 44
2, 62972, Control_c, 0, 64, 41
2, 62992, Control_c, 0, 64, 36
2, 63008, Control_c, 0, 64, 30
2, 63028, Control_c, 0, 64, 19
2, 63047, Control_c, 0, 64, 0
2, 63433, Control_c, 0, 64, 18
2, 63451, Control_c, 0, 64, 32
2, 63470, Control_c, 0, 64, 42
2, 63490, Control_c, 0, 64, 50
2, 63509, Control_c, 0, 64, 55
2, 63529, Control_c, 0, 64, 59
2, 63547, Control_c, 0, 64, 60
2, 63567, Control_c, 0, 64, 62
2, 63586, Control_c, 0, 64, 63
2, 63604, Control_c, 0, 64, 65
2, 63624, Control_c, 0, 64, 67
2, 63643, Control_c, 0, 64, 72
2, 63662, Control_c, 0, 64, 80
2, 63682, Control_c, 0, 64, 91
2, 63703, Control_c, 0, 64, 105
2, 63722, Control_c, 0, 64, 127
2, 63814, Note_on_c, 0, 63, 0
2, 63850, Note_on_c, 0, 66, 0
2, 64217, Note_on_c, 0, 70, 70
2, 64221, Note_on_c, 0, 51, 0
2, 64293, Note_on_c, 0, 58, 0
2, 64403, Note_on_c, 0, 51, 48
2, 64424, Note_on_c, 0, 73, 85
2, 64483, Note_on_c, 0, 70, 0
2, 64490, Note_on_c, 0, 61, 0
2, 64547, Note_on_c, 0, 58, 43
2, 64701, Control_c, 0, 64, 109
2, 64720, Control_c, 0, 64, 96
2, 64738, Control_c, 0, 64, 86
2, 64755, Control_c, 0, 64, 76
2, 64775, Control_c, 0, 64, 66
2, 64794, Note_on_c, 0, 78, 74
2, 64798, Control_c, 0, 64, 60
2, 64816, Control_c, 0, 64, 56
2, 64824, Note_on_c, 0, 73, 0
2, 64833, Control_c, 0, 64, 54
2, 64853, Control_c, 0, 64, 52
2, 64873, Control_c, 0, 64, 49
2, 64873, Note_on_c, 0, 60, 41
2, 64891, Control_c, 0, 64, 46
2, 64908, Control_c, 0, 64, 41
2, 64928, Control_c, 0, 64, 36
2, 64948, Control_c, 0, 64, 31
2, 64970, Control_c, 0, 64, 28
2, 64987, Control_c, 0, 64, 25
2, 65007, Control_c, 0, 64, 20
2, 65029, Control_c, 0, 64, 13
2, 65045, Control_c, 0, 64, 0
2, 65334, Control_c, 0, 64, 21
2, 65353, Control_c, 0, 64, 32
2, 65370, Control_c, 0, 64, 42
2, 65390, Control_c, 0, 64, 49
2, 65409, Control_c, 0, 64, 55
2, 65430, Control_c, 0, 64, 58
2, 65448, Control_c, 0, 64, 60
2, 65467, Control_c, 0, 64, 61
2, 65488, Control_c, 0, 64, 63
2, 65506, Control_c, 0, 64, 64
2, 65525, Control_c, 0, 64, 67
2, 65543, Control_c, 0, 64, 72
2, 65563, Control_c, 0, 64, 80
2, 65582, Control_c, 0, 64, 94
2, 65603, Control_c, 0, 64, 127
2, 65727, Note_on_c, 0, 78, 0
2, 66028, Note_on_c, 0, 77, 49
2, 66166, Note_on_c, 0, 51, 0
2, 66208, Note_on_c, 0, 77, 0
2, 66223, Note_on_c, 0, 58, 0
2, 66243, Note_on_c, 0, 75, 54
2, 66400, Note_on_c, 0, 60, 0
2, 66429, Note_on_c, 0, 51, 44
2, 66437, Note_on_c, 0, 73, 68
2, 66441, Note_on_c, 0, 75, 0
2, 66558, Note_on_c, 0, 58, 37
2, 66600, Control_c, 0, 64, 103
2, 66618, Control_c, 0, 64, 90
2, 66638, Control_c, 0, 64, 79
2, 66656, Control_c, 0, 64, 71
2, 66675, Control_c, 0, 64, 64
2, 66696, Control_c, 0, 64, 59
2, 66703, Note_on_c, 0, 73, 0
2, 66718, Control_c, 0, 64, 56
2, 66724, Note_on_c, 0, 72, 60
2, 66737, Control_c, 0, 64, 54
2, 66757, Control_c, 0, 64, 52
2, 66774, Control_c, 0, 64, 49
2, 66793, Control_c, 0, 64, 45
2, 66808, Note_on_c, 0, 60, 38
2, 66812, Control_c, 0, 64, 39
2, 66831, Control_c, 0, 64, 32
2, 66850, Control_c, 0, 64, 26
2, 66870, Control_c, 0, 64, 23
2, 66888, Control_c, 0, 64, 19
2, 66908, Control_c, 0, 64, 14
2, 66928, Control_c, 0, 64, 10
2, 66946, Control_c, 0, 64, 9
2, 67081, Control_c, 0, 64, 11
2, 67099, Control_c, 0, 64, 12
2, 67116, Control_c, 0, 64, 13
2, 67137, Control_c, 0, 64, 14
2, 67158, Control_c, 0, 64, 15
2, 67195, Control_c, 0, 64, 16
2, 67233, Control_c, 0, 64, 17
2, 67271, Control_c, 0, 64, 18
2, 67348, Control_c, 0, 64, 19
2, 67398, Note_on_c, 0, 72, 0
2, 67427, Note_on_c, 0, 75, 52
2, 67443, Control_c, 0, 64, 20
2, 67514, Note_on_c, 0, 75, 0
2, 67519, Note_on_c, 0, 73, 64
2, 67581, Control_c, 0, 64, 21
2, 67588, Note_on_c, 0, 73, 0
2, 67636, Note_on_c, 0, 72, 60
2, 67657, Control_c, 0, 64, 22
2, 67814, Note_on_c, 0, 72, 0
2, 67836, Note_on_c, 0, 73, 62
2, 67963, Control_c, 0, 64, 23
2, 67982, Control_c, 0, 64, 24
2, 68001, Control_c, 0, 64, 26
2, 68019, Control_c, 0, 64, 30
2, 68024, Note_on_c, 0, 73, 0
2, 68041, Control_c, 0, 64, 37
2, 68046, Note_on_c, 0, 75, 67
2, 68060, Control_c, 0, 64, 47
2, 68079, Control_c, 0, 64, 54
2, 68096, Control_c, 0, 64, 58
2, 68117, Control_c, 0, 64, 60
2, 68137, Control_c, 0, 64, 62
2, 68156, Control_c, 0, 64, 64
2, 68173, Control_c, 0, 64, 66
2, 68194, Control_c, 0, 64, 69
2, 68217, Control_c, 0, 64, 77
2, 68217, Note_on_c, 0, 51, 0
2, 68233, Control_c, 0, 64, 87
2, 68237, Note_on_c, 0, 58, 0
2, 68250, Control_c, 0, 64, 96
2, 68270, Control_c, 0, 64, 103
2, 68292, Control_c, 0, 64, 106
2, 68310, Note_on_c, 0, 60, 0
2, 68375, Note_on_c, 0, 51, 49
2, 68404, Control_c, 0, 64, 104
2, 68426, Control_c, 0, 64, 102
2, 68443, Control_c, 0, 64, 100
2, 68463, Control_c, 0, 64, 98
2, 68473, Note_on_c, 0, 57, 45
2, 68487, Control_c, 0, 64, 96
2, 68504, Control_c, 0, 64, 95
2, 68523, Control_c, 0, 64, 92
2, 68544, Control_c, 0, 64, 88
2, 68562, Control_c, 0, 64, 83
2, 68580, Control_c, 0, 64, 77
2, 68600, Control_c, 0, 64, 70
2, 68619, Control_c, 0, 64, 64
2, 68619, Note_on_c, 0, 75, 0
2, 68623, Note_on_c, 0, 65, 58
2, 68641, Control_c, 0, 64, 60
2, 68657, Control_c, 0, 64, 58
2, 68680, Control_c, 0, 64, 57
2, 68696, Control_c, 0, 64, 56
2, 68713, Control_c, 0, 64, 53
2, 68733, Control_c, 0, 64, 49
2, 68752, Control_c, 0, 64, 44
2, 68771, Control_c, 0, 64, 40
2, 68780, Note_on_c, 0, 60, 42
2, 68791, Control_c, 0, 64, 38
2, 68814, Control_c, 0, 64, 37
2, 69002, Control_c, 0, 64, 38
2, 69042, Control_c, 0, 64, 39
2, 69080, Control_c, 0, 64, 40
2, 69214, Control_c, 0, 64, 41
2, 69288, Note_on_c, 0, 65, 0
2, 69330, Note_on_c, 0, 67, 48
2, 69439, Note_on_c, 0, 67, 0
2, 69476, Note_on_c, 0, 69, 50
2, 69621, Note_on_c, 0, 69, 0
2, 69665, Note_on_c, 0, 70, 53
2, 69677, Control_c, 0, 64, 42
2, 69693, Control_c, 0, 64, 43
2, 69714, Control_c, 0, 64, 44
2, 69732, Control_c, 0, 64, 45
2, 69752, Control_c, 0, 64, 47
2, 69770, Control_c, 0, 64, 48
2, 69779, Note_on_c, 0, 70, 0
2, 69811, Control_c, 0, 64, 49
2, 69816, Note_on_c, 0, 69, 51
2, 69886, Note_on_c, 0, 69, 0
2, 69934, Note_on_c, 0, 70, 57
2, 69972, Note_on_c, 0, 70, 0
2, 70016, Note_on_c, 0, 69, 53
2, 70047, Note_on_c, 0, 69, 0
2, 70060, Note_on_c, 0, 70, 70
2, 70107, Note_on_c, 0, 70, 0
2, 70137, Note_on_c, 0, 69, 63
2, 70176, Note_on_c, 0, 69, 0
2, 70207, Note_on_c, 0, 70, 56
2, 70235, Note_on_c, 0, 70, 0
2, 70259, Note_on_c, 0, 69, 51
2, 70288, Note_on_c, 0, 51, 0
2, 70288, Note_on_c, 0, 69, 0
2, 70310, Note_on_c, 0, 60, 0
2, 70326, Note_on_c, 0, 70, 51
2, 70365, Note_on_c, 0, 70, 0
2, 70381, Note_on_c, 0, 69, 60
2, 70386, Control_c, 0, 64, 50
2, 70405, Control_c, 0, 64, 52
2, 70421, Note_on_c, 0, 69, 0
2, 70425, Control_c, 0, 64, 55
2, 70443, Control_c, 0, 64, 58
2, 70449, Note_on_c, 0, 67, 69
2, 70464, Control_c, 0, 64, 60
2, 70480, Control_c, 0, 64, 61
2, 70502, Control_c, 0, 64, 63
2, 70522, Control_c, 0, 64, 64
2, 70522, Note_on_c, 0, 67, 0
2, 70527, Note_on_c, 0, 57, 0
2, 70539, Control_c, 0, 64, 65
2, 70539, Note_on_c, 0, 69, 61
2, 70556, Note_on_c, 0, 49, 49
2, 70560, Control_c, 0, 64, 66
2, 70577, Control_c, 0, 64, 67
2, 70616, Control_c, 0, 64, 66
2, 70624, Note_on_c, 0, 53, 50
2, 70655, Control_c, 0, 64, 65
2, 70673, Control_c, 0, 64, 63
2, 70678, Note_on_c, 0, 70, 81
2, 70687, Note_on_c, 0, 69, 0
2, 70696, Control_c, 0, 64, 61
2, 70705, Note_on_c, 0, 58, 59
2, 70711, Control_c, 0, 64, 59
2, 70730, Control_c, 0, 64, 57
2, 70750, Control_c, 0, 64, 54
2, 70770, Control_c, 0, 64, 50
2, 70788, Control_c, 0, 64, 46
2, 70808, Control_c, 0, 64, 42
2, 70827, Control_c, 0, 64, 37
2, 70848, Control_c, 0, 64, 33
2, 70863, Control_c, 0, 64, 26
2, 70883, Control_c, 0, 64, 15
2, 70903, Control_c, 0, 64, 0
2, 71230, Control_c, 0, 64, 21
2, 71249, Control_c, 0, 64, 36
2, 71268, Control_c, 0, 64, 45
2, 71290, Control_c, 0, 64, 52
2, 71306, Control_c, 0, 64, 57
2, 71325, Control_c, 0, 64, 59
2, 71344, Control_c, 0, 64, 60
2, 71364, Control_c, 0, 64, 61
2, 71382, Control_c, 0, 64, 63
2, 71402, Control_c, 0, 64, 64
2, 71421, Control_c, 0, 64, 67
2, 71440, Control_c, 0, 64, 71
2, 71460, Control_c, 0, 64, 77
2, 71480, Control_c, 0, 64, 87
2, 71498, Control_c, 0, 64, 103
2, 71517, Control_c, 0, 64, 127
2, 71826, Note_on_c, 0, 53, 0
2, 71944, Note_on_c, 0, 58, 0
2, 72250, Note_on_c, 0, 65, 73
2, 72477, Control_c, 0, 64, 109
2, 72496, Control_c, 0, 64, 98
2, 72516, Control_c, 0, 64, 90
2, 72523, Note_on_c, 0, 49, 0
2, 72539, Note_on_c, 0, 51, 47
2, 72543, Control_c, 0, 64, 82
2, 72543, Note_on_c, 0, 58, 41
2, 72543, Note_on_c, 0, 66, 69
2, 72554, Control_c, 0, 64, 74
2, 72563, Note_on_c, 0, 65, 0
2, 72574, Control_c, 0, 64, 66
2, 72597, Control_c, 0, 64, 61
2, 72610, Control_c, 0, 64, 55
2, 72632, Control_c, 0, 64, 52
2, 72650, Control_c, 0, 64, 50
2, 72671, Control_c, 0, 64, 47
2, 72687, Control_c, 0, 64, 42
2, 72707, Control_c, 0, 64, 34
2, 72727, Control_c, 0, 64, 24
2, 72747, Control_c, 0, 64, 10
2, 72764, Control_c, 0, 64, 0
2, 72885, Control_c, 0, 64, 15
2, 72900, Control_c, 0, 64, 20
2, 72920, Control_c, 0, 64, 25
2, 72938, Control_c, 0, 64, 27
2, 72958, Control_c, 0, 64, 29
2, 72979, Control_c, 0, 64, 30
2, 73034, Control_c, 0, 64, 31
2, 73092, Control_c, 0, 64, 32
2, 73170, Control_c, 0, 64, 33
2, 73207, Control_c, 0, 64, 34
2, 73246, Control_c, 0, 64, 35
2, 73285, Control_c, 0, 64, 36
2, 73303, Control_c, 0, 64, 37
2, 73342, Control_c, 0, 64, 38
2, 73360, Control_c, 0, 64, 39
2, 73380, Control_c, 0, 64, 41
2, 73403, Control_c, 0, 64, 44
2, 73418, Control_c, 0, 64, 48
2, 73438, Control_c, 0, 64, 53
2, 73458, Control_c, 0, 64, 56
2, 73476, Control_c, 0, 64, 57
2, 73494, Control_c, 0, 64, 58
2, 73515, Control_c, 0, 64, 60
2, 73536, Control_c, 0, 64, 61
2, 73553, Control_c, 0, 64, 62
2, 73573, Control_c, 0, 64, 63
2, 73591, Control_c, 0, 64, 64
2, 73610, Control_c, 0, 64, 66
2, 73630, Control_c, 0, 64, 68
2, 73647, Control_c, 0, 64, 71
2, 73667, Control_c, 0, 64, 74
2, 73689, Control_c, 0, 64, 78
2, 73707, Control_c, 0, 64, 82
2, 73726, Control_c, 0, 64, 85
2, 73744, Control_c, 0, 64, 87
2, 73766, Control_c, 0, 64, 89
2, 73784, Control_c, 0, 64, 91
2, 73803, Control_c, 0, 64, 93
2, 73823, Control_c, 0, 64, 95
2, 73862, Control_c, 0, 64, 96
2, 74129, Control_c, 0, 64, 95
2, 74224, Control_c, 0, 64, 94
2, 74233, Note_on_c, 0, 66, 0
2, 74259, Note_on_c, 0, 63, 45
2, 74302, Control_c, 0, 64, 93
2, 74360, Control_c, 0, 64, 92
2, 74377, Control_c, 0, 64, 91
2, 74399, Control_c, 0, 64, 90
2, 74417, Control_c, 0, 64, 89
2, 74436, Control_c, 0, 64, 88
2, 74454, Control_c, 0, 64, 86
2, 74467, Note_on_c, 0, 53, 42
2, 74473, Control_c, 0, 64, 83
2, 74493, Control_c, 0, 64, 81
2, 74511, Control_c, 0, 64, 78
2, 74530, Control_c, 0, 64, 75
2, 74537, Note_on_c, 0, 63, 0
2, 74552, Control_c, 0, 64, 71
2, 74552, Note_on_c, 0, 51, 0
2, 74560, Note_on_c, 0, 58, 0
2, 74565, Note_on_c, 0, 60, 48
2, 74569, Control_c, 0, 64, 67
2, 74590, Control_c, 0, 64, 64
2, 74611, Control_c, 0, 64, 62
2, 74630, Control_c, 0, 64, 60
2, 74648, Control_c, 0, 64, 59
2, 74667, Control_c, 0, 64, 58
2, 74685, Control_c, 0, 64, 55
2, 74706, Control_c, 0, 64, 52
2, 74723, Control_c, 0, 64, 49
2, 74743, Control_c, 0, 64, 47
2, 74762, Control_c, 0, 64, 45
2, 74781, Control_c, 0, 64, 43
2, 74801, Control_c, 0, 64, 40
2, 74820, Control_c, 0, 64, 35
2, 74838, Control_c, 0, 64, 31
2, 74860, Control_c, 0, 64, 25
2, 74876, Control_c, 0, 64, 20
2, 74896, Control_c, 0, 64, 10
2, 74916, Control_c, 0, 64, 0
2, 75414, Control_c, 0, 64, 8
2, 75432, Control_c, 0, 64, 15
2, 75452, Control_c, 0, 64, 20
2, 75470, Control_c, 0, 64, 25
2, 75492, Control_c, 0, 64, 29
2, 75509, Control_c, 0, 64, 34
2, 75527, Control_c, 0, 64, 38
2, 75547, Control_c, 0, 64, 42
2, 75569, Control_c, 0, 64, 46
2, 75586, Control_c, 0, 64, 51
2, 75603, Control_c, 0, 64, 54
2, 75625, Control_c, 0, 64, 56
2, 75645, Control_c, 0, 64, 57
2, 75683, Control_c, 0, 64, 58
2, 75699, Control_c, 0, 64, 59
2, 75719, Control_c, 0, 64, 60
2, 75740, Control_c, 0, 64, 61
2, 75753, Note_on_c, 0, 60, 0
2, 75757, Control_c, 0, 64, 62
2, 75775, Note_on_c, 0, 61, 39
2, 75793, Control_c, 0, 64, 63
2, 75830, Control_c, 0, 64, 64
2, 75981, Note_on_c, 0, 61, 0
2, 76017, Note_on_c, 0, 60, 56
2, 76060, Note_on_c, 0, 53, 0
2, 76233, Note_on_c, 0, 60, 0
2, 76237, Note_on_c, 0, 61, 53
2, 76272, Control_c, 0, 64, 63
2, 76312, Control_c, 0, 64, 62
2, 76350, Control_c, 0, 64, 61
2, 76369, Control_c, 0, 64, 60
2, 76388, Control_c, 0, 64, 59
2, 76408, Control_c, 0, 64, 58
2, 76427, Control_c, 0, 64, 57
2, 76447, Control_c, 0, 64, 55
2, 76462, Note_on_c, 0, 41, 37
2, 76466, Note_on_c, 0, 61, 0
2, 76470, Control_c, 0, 64, 52
2, 76475, Note_on_c, 0, 53, 39
2, 76485, Control_c, 0, 64, 49
2, 76490, Note_on_c, 0, 63, 49
2, 76503, Control_c, 0, 64, 46
2, 76522, Control_c, 0, 64, 44
2, 76540, Control_c, 0, 64, 43
2, 76637, Control_c, 0, 64, 44
2, 76656, Control_c, 0, 64, 47
2, 76677, Control_c, 0, 64, 51
2, 76694, Control_c, 0, 64, 55
2, 76716, Control_c, 0, 64, 58
2, 76735, Control_c, 0, 64, 60
2, 76748, Note_on_c, 0, 63, 0
2, 76753, Control_c, 0, 64, 61
2, 76753, Note_on_c, 0, 61, 53
2, 76772, Control_c, 0, 64, 63
2, 76792, Control_c, 0, 64, 65
2, 76811, Control_c, 0, 64, 67
2, 76831, Control_c, 0, 64, 71
2, 76849, Control_c, 0, 64, 76
2, 76868, Control_c, 0, 64, 82
2, 76891, Control_c, 0, 64, 87
2, 76906, Control_c, 0, 64, 90
2, 76928, Control_c, 0, 64, 91
2, 76932, Note_on_c, 0, 61, 0
2, 76949, Control_c, 0, 64, 92
2, 76958, Note_on_c, 0, 60, 59
2, 77059, Control_c, 0, 64, 91
2, 77081, Control_c, 0, 64, 90
2, 77099, Control_c, 0, 64, 89
2, 77119, Control_c, 0, 64, 87
2, 77137, Control_c, 0, 64, 81
2, 77159, Control_c, 0, 64, 73
2, 77163, Note_on_c, 0, 60, 0
2, 77163, Note_on_c, 0, 61, 62
2, 77179, Control_c, 0, 64, 66
2, 77195, Control_c, 0, 64, 61
2, 77217, Control_c, 0, 64, 57
2, 77234, Control_c, 0, 64, 55
2, 77254, Control_c, 0, 64, 54
2, 77311, Control_c, 0, 64, 55
2, 77330, Control_c, 0, 64, 57
2, 77347, Control_c, 0, 64, 58
2, 77369, Control_c, 0, 64, 60
2, 77369, Note_on_c, 0, 63, 73
2, 77391, Note_on_c, 0, 61, 0
2, 77407, Control_c, 0, 64, 61
2, 77409, Note_on_c, 0, 70, 0
2, 77485, Control_c, 0, 64, 62
2, 77581, Control_c, 0, 64, 61
2, 77581, Note_on_c, 0, 65, 75
2, 77587, Note_on_c, 0, 63, 0
2, 77618, Control_c, 0, 64, 60
2, 77656, Control_c, 0, 64, 59
2, 77675, Control_c, 0, 64, 58
2, 77714, Control_c, 0, 64, 57
2, 77733, Control_c, 0, 64, 56
2, 77751, Control_c, 0, 64, 55
2, 77771, Control_c, 0, 64, 53
2, 77790, Control_c, 0, 64, 51
2, 77809, Control_c, 0, 64, 49
2, 77816, Note_on_c, 0, 63, 79
2, 77828, Control_c, 0, 64, 46
2, 77848, Control_c, 0, 64, 42
2, 77861, Note_on_c, 0, 65, 0
2, 77866, Control_c, 0, 64, 38
2, 77888, Control_c, 0, 64, 34
2, 77905, Control_c, 0, 64, 33
2, 77942, Control_c, 0, 64, 36
2, 77962, Control_c, 0, 64, 42
2, 77982, Control_c, 0, 64, 52
2, 78000, Control_c, 0, 64, 59
2, 78022, Control_c, 0, 64, 62
2, 78028, Note_on_c, 0, 65, 82
2, 78040, Control_c, 0, 64, 64
2, 78061, Control_c, 0, 64, 67
2, 78061, Note_on_c, 0, 63, 0
2, 78072, Note_on_c, 0, 41, 0
2, 78081, Control_c, 0, 64, 72
2, 78096, Control_c, 0, 64, 79
2, 78120, Control_c, 0, 64, 89
2, 78120, Note_on_c, 0, 65, 0
2, 78130, Note_on_c, 0, 53, 0
2, 78135, Control_c, 0, 64, 94
2, 78155, Control_c, 0, 64, 95
2, 78211, Control_c, 0, 64, 94
2, 78231, Control_c, 0, 64, 93
2, 78253, Control_c, 0, 64, 92
2, 78270, Control_c, 0, 64, 90
2, 78287, Note_on_c, 0, 41, 21
2, 78292, Control_c, 0, 64, 86
2, 78308, Control_c, 0, 64, 82
2, 78329, Control_c, 0, 64, 78
2, 78346, Control_c, 0, 64, 75
2, 78364, Control_c, 0, 64, 71
2, 78385, Control_c, 0, 64, 67
2, 78398, Note_on_c, 0, 53, 42
2, 78405, Control_c, 0, 64, 64
2, 78416, Note_on_c, 0, 69, 67
2, 78423, Control_c, 0, 64, 60
2, 78432, Note_on_c, 0, 60, 61
2, 78432, Note_on_c, 0, 66, 69
2, 78443, Control_c, 0, 64, 58
2, 78462, Control_c, 0, 64, 56
2, 78482, Control_c, 0, 64, 54
2, 78499, Control_c, 0, 64, 52
2, 78520, Control_c, 0, 64, 47
2, 78539, Control_c, 0, 64, 42
2, 78559, Control_c, 0, 64, 37
2, 78576, Control_c, 0, 64, 33
2, 78595, Control_c, 0, 64, 32
2, 78617, Control_c, 0, 64, 31
2, 78634, Control_c, 0, 64, 30
2, 78655, Control_c, 0, 64, 29
2, 78673, Control_c, 0, 64, 28
2, 78827, Control_c, 0, 64, 29
2, 78845, Control_c, 0, 64, 31
2, 78864, Control_c, 0, 64, 34
2, 78884, Control_c, 0, 64, 38
2, 78906, Control_c, 0, 64, 43
2, 78923, Control_c, 0, 64, 48
2, 78942, Control_c, 0, 64, 54
2, 78964, Control_c, 0, 64, 57
2, 78983, Control_c, 0, 64, 58
2, 79003, Control_c, 0, 64, 59
2, 79018, Control_c, 0, 64, 60
2, 79040, Control_c, 0, 64, 61
2, 79057, Control_c, 0, 64, 63
2, 79077, Control_c, 0, 64, 64
2, 79115, Control_c, 0, 64, 65
2, 79137, Control_c, 0, 64, 66
2, 79174, Control_c, 0, 64, 67
2, 79212, Note_on_c, 0, 66, 0
2, 79287, Control_c, 0, 64, 66
2, 79346, Control_c, 0, 64, 65
2, 79364, Control_c, 0, 64, 64
2, 79402, Control_c, 0, 64, 63
2, 79421, Control_c, 0, 64, 62
2, 79439, Control_c, 0, 64, 60
2, 79448, Note_on_c, 0, 66, 53
2, 79462, Control_c, 0, 64, 58
2, 79481, Control_c, 0, 64, 56
2, 79498, Control_c, 0, 64, 55
2, 79517, Control_c, 0, 64, 54
2, 79532, Note_on_c, 0, 66, 0
2, 79555, Control_c, 0, 64, 53
2, 79571, Note_on_c, 0, 65, 49
2, 79575, Control_c, 0, 64, 51
2, 79593, Control_c, 0, 64, 49
2, 79613, Control_c, 0, 64, 47
2, 79621, Note_on_c, 0, 65, 0
2, 79633, Control_c, 0, 64, 45
2, 79652, Control_c, 0, 64, 44
2, 79663, Note_on_c, 0, 66, 54
2, 79670, Control_c, 0, 64, 43
2, 79690, Control_c, 0, 64, 42
2, 79695, Note_on_c, 0, 66, 0
2, 79709, Control_c, 0, 64, 39
2, 79729, Control_c, 0, 64, 34
2, 79738, Note_on_c, 0, 65, 42
2, 79748, Control_c, 0, 64, 30
2, 79768, Control_c, 0, 64, 25
2, 79779, Note_on_c, 0, 66, 64
2, 79788, Control_c, 0, 64, 21
2, 79804, Control_c, 0, 64, 17
2, 79814, Note_on_c, 0, 66, 0
2, 79818, Note_on_c, 0, 65, 0
2, 79818, Note_on_c, 0, 65, 45
2, 79827, Control_c, 0, 64, 11
2, 79844, Control_c, 0, 64, 0
2, 80077, Control_c, 0, 64, 13
2, 80094, Control_c, 0, 64, 25
2, 80114, Control_c, 0, 64, 35
2, 80131, Control_c, 0, 64, 43
2, 80154, Control_c, 0, 64, 50
2, 80170, Control_c, 0, 64, 55
2, 80190, Control_c, 0, 64, 59
2, 80212, Control_c, 0, 64, 60
2, 80229, Control_c, 0, 64, 61
2, 80248, Control_c, 0, 64, 63
2, 80268, Control_c, 0, 64, 65
2, 80289, Control_c, 0, 64, 67
2, 80306, Control_c, 0, 64, 71
2, 80324, Control_c, 0, 64, 78
2, 80344, Control_c, 0, 64, 88
2, 80362, Control_c, 0, 64, 100
2, 80381, Control_c, 0, 64, 127
2, 80428, Note_on_c, 0, 69, 0
2, 80443, Note_on_c, 0, 53, 0
2, 80458, Note_on_c, 0, 41, 0
2, 80487, Note_on_c, 0, 60, 0
2, 80894, Note_on_c, 0, 65, 0
2, 80923, Note_on_c, 0, 63, 56
2, 81002, Note_on_c, 0, 46, 43
2, 81055, Control_c, 0, 64, 100
2, 81062, Note_on_c, 0, 53, 44
2, 81073, Control_c, 0, 64, 86
2, 81096, Control_c, 0, 64, 76
2, 81111, Control_c, 0, 64, 68
2, 81131, Control_c, 0, 64, 63
2, 81152, Control_c, 0, 64, 59
2, 81152, Note_on_c, 0, 63, 0
2, 81170, Control_c, 0, 64, 57
2, 81181, Note_on_c, 0, 58, 35
2, 81181, Note_on_c, 0, 70, 54
2, 81185, Note_on_c, 0, 61, 47
2, 81188, Control_c, 0, 64, 55
2, 81208, Control_c, 0, 64, 53
2, 81226, Control_c, 0, 64, 49
2, 81247, Control_c, 0, 64, 45
2, 81265, Control_c, 0, 64, 39
2, 81284, Control_c, 0, 64, 35
2, 81303, Control_c, 0, 64, 32
2, 81323, Control_c, 0, 64, 30
2, 81341, Control_c, 0, 64, 28
2, 81359, Control_c, 0, 64, 24
2, 81383, Control_c, 0, 64, 19
2, 81401, Control_c, 0, 64, 16
2, 81515, Control_c, 0, 64, 18
2, 81535, Control_c, 0, 64, 20
2, 81552, Control_c, 0, 64, 23
2, 81572, Control_c, 0, 64, 27
2, 81593, Control_c, 0, 64, 31
2, 81610, Control_c, 0, 64, 35
2, 81628, Control_c, 0, 64, 39
2, 81648, Control_c, 0, 64, 43
2, 81668, Control_c, 0, 64, 46
2, 81688, Control_c, 0, 64, 50
2, 81705, Control_c, 0, 64, 52
2, 81725, Control_c, 0, 64, 54
2, 81747, Control_c, 0, 64, 55
2, 81765, Control_c, 0, 64, 56
2, 81784, Control_c, 0, 64, 57
2, 81801, Control_c, 0, 64, 58
2, 81824, Control_c, 0, 64, 59
2, 81840, Control_c, 0, 64, 60
2, 81860, Control_c, 0, 64, 61
2, 81898, Control_c, 0, 64, 62
2, 81917, Control_c, 0, 64, 63
2, 81936, Control_c, 0, 64, 64
2, 81956, Control_c, 0, 64, 65
2, 81976, Control_c, 0, 64, 66
2, 81996, Control_c, 0, 64, 68
2, 82015, Control_c, 0, 64, 71
2, 82034, Control_c, 0, 64, 74
2, 82052, Control_c, 0, 64, 78
2, 82070, Control_c, 0, 64, 83
2, 82090, Control_c, 0, 64, 90
2, 82112, Control_c, 0, 64, 98
2, 82131, Control_c, 0, 64, 109
2, 82150, Control_c, 0, 64, 127
2, 82357, Note_on_c, 0, 61, 0
2, 82468, Note_on_c, 0, 46, 0
2, 82473, Note_on_c, 0, 53, 0
2, 82482, Note_on_c, 0, 58, 0
2, 82620, Note_on_c, 0, 70, 0
2, 82663, Note_on_c, 0, 72, 77
2, 82674, Note_on_c, 0, 63, 62
2, 82708, Control_c, 0, 64, 95
2, 82724, Control_c, 0, 64, 77
2, 82743, Control_c, 0, 64, 67
2, 82762, Control_c, 0, 64, 64
2, 82770, Note_on_c, 0, 63, 0
2, 82782, Control_c, 0, 64, 65
2, 82802, Control_c, 0, 64, 68
2, 82821, Control_c, 0, 64, 73
2, 82841, Control_c, 0, 64, 81
2, 82858, Control_c, 0, 64, 92
2, 82878, Control_c, 0, 64, 103
2, 82898, Control_c, 0, 64, 109
2, 82918, Control_c, 0, 64, 110
2, 82951, Note_on_c, 0, 65, 47
2, 82975, Control_c, 0, 64, 106
2, 82994, Control_c, 0, 64, 101
2, 83015, Control_c, 0, 64, 95
2, 83015, Note_on_c, 0, 72, 0
2, 83019, Note_on_c, 0, 70, 54
2, 83030, Control_c, 0, 64, 88
2, 83051, Control_c, 0, 64, 81
2, 83061, Note_on_c, 0, 73, 66
2, 83072, Control_c, 0, 64, 72
2, 83088, Control_c, 0, 64, 66
2, 83111, Control_c, 0, 64, 62
2, 83126, Control_c, 0, 64, 60
2, 83146, Control_c, 0, 64, 59
2, 83164, Control_c, 0, 64, 58
2, 83183, Control_c, 0, 64, 57
2, 83204, Control_c, 0, 64, 55
2, 83225, Control_c, 0, 64, 52
2, 83243, Control_c, 0, 64, 49
2, 83263, Control_c, 0, 64, 46
2, 83280, Control_c, 0, 64, 44
2, 83300, Control_c, 0, 64, 42
2, 83319, Control_c, 0, 64, 40
2, 83338, Control_c, 0, 64, 37
2, 83359, Control_c, 0, 64, 33
2, 83378, Control_c, 0, 64, 28
2, 83395, Control_c, 0, 64, 25
2, 83415, Control_c, 0, 64, 22
2, 83437, Control_c, 0, 64, 19
2, 83453, Control_c, 0, 64, 13
2, 83472, Control_c, 0, 64, 0
2, 83895, Control_c, 0, 64, 16
2, 83915, Control_c, 0, 64, 30
2, 83934, Control_c, 0, 64, 40
2, 83954, Control_c, 0, 64, 47
2, 83971, Control_c, 0, 64, 52
2, 83991, Control_c, 0, 64, 56
2, 84009, Control_c, 0, 64, 58
2, 84031, Control_c, 0, 64, 59
2, 84050, Control_c, 0, 64, 61
2, 84071, Control_c, 0, 64, 62
2, 84088, Control_c, 0, 64, 63
2, 84107, Control_c, 0, 64, 65
2, 84125, Control_c, 0, 64, 67
2, 84145, Control_c, 0, 64, 69
2, 84165, Control_c, 0, 64, 74
2, 84182, Control_c, 0, 64, 80
2, 84203, Control_c, 0, 64, 85
2, 84221, Control_c, 0, 64, 91
2, 84241, Control_c, 0, 64, 95
2, 84259, Control_c, 0, 64, 99
2, 84279, Control_c, 0, 64, 101
2, 84299, Control_c, 0, 64, 102
2, 84317, Control_c, 0, 64, 103
2, 84357, Control_c, 0, 64, 104
2, 84395, Note_on_c, 0, 65, 0
2, 84431, Note_on_c, 0, 70, 0
2, 84490, Control_c, 0, 64, 103
2, 84510, Note_on_c, 0, 73, 0
2, 84568, Control_c, 0, 64, 102
2, 84605, Control_c, 0, 64, 101
2, 84625, Control_c, 0, 64, 100
2, 84630, Note_on_c, 0, 46, 56
2, 84644, Control_c, 0, 64, 98
2, 84663, Control_c, 0, 64, 96
2, 84684, Control_c, 0, 64, 93
2, 84700, Control_c, 0, 64, 89
2, 84721, Control_c, 0, 64, 84
2, 84726, Note_on_c, 0, 65, 44
2, 84742, Control_c, 0, 64, 79
2, 84761, Control_c, 0, 64, 75
2, 84781, Control_c, 0, 64, 70
2, 84785, Note_on_c, 0, 70, 43
2, 84800, Control_c, 0, 64, 65
2, 84818, Control_c, 0, 64, 62
2, 84835, Control_c, 0, 64, 59
2, 84844, Note_on_c, 0, 46, 0
2, 84851, Note_on_c, 0, 49, 54
2, 84851, Note_on_c, 0, 73, 50
2, 84856, Control_c, 0, 64, 57
2, 84877, Control_c, 0, 64, 56
2, 84893, Control_c, 0, 64, 54
2, 84911, Control_c, 0, 64, 50
2, 84931, Control_c, 0, 64, 46
2, 84950, Control_c, 0, 64, 40
2, 84970, Control_c, 0, 64, 35
2, 84992, Control_c, 0, 64, 30
2, 85012, Control_c, 0, 64, 26
2, 85032, Control_c, 0, 64, 22
2, 85046, Control_c, 0, 64, 16
2, 85066, Control_c, 0, 64, 8
2, 85085, Control_c, 0, 64, 0
2, 85219, Control_c, 0, 64, 16
2, 85238, Control_c, 0, 64, 23
2, 85259, Control_c, 0, 64, 30
2, 85276, Control_c, 0, 64, 39
2, 85297, Control_c, 0, 64, 46
2, 85316, Control_c, 0, 64, 51
2, 85335, Control_c, 0, 64, 54
2, 85353, Control_c, 0, 64, 56
2, 85372, Control_c, 0, 64, 57
2, 85391, Control_c, 0, 64, 58
2, 85414, Control_c, 0, 64, 60
2, 85433, Control_c, 0, 64, 62
2, 85450, Control_c, 0, 64, 63
2, 85470, Control_c, 0, 64, 64
2, 85488, Control_c, 0, 64, 65
2, 85508, Control_c, 0, 64, 67
2, 85528, Control_c, 0, 64, 70
2, 85547, Control_c, 0, 64, 75
2, 85565, Control_c, 0, 64, 81
2, 85585, Control_c, 0, 64, 88
2, 85604, Control_c, 0, 64, 96
2, 85627, Control_c, 0, 64, 106
2, 85644, Control_c, 0, 64, 127
2, 86030, Note_on_c, 0, 49, 0
2, 86157, Note_on_c, 0, 70, 0
2, 86200, Note_on_c, 0, 73, 0
2, 86219, Note_on_c, 0, 65, 0
2, 86304, Note_on_c, 0, 53, 72
2, 86541, Control_c, 0, 64, 120
2, 86561, Control_c, 0, 64, 93
2, 86576, Note_on_c, 0, 73, 74
2, 86584, Control_c, 0, 64, 76
2, 86588, Note_on_c, 0, 53, 0
2, 86593, Note_on_c, 0, 64, 57
2, 86593, Note_on_c, 0, 70, 56
2, 86600, Control_c, 0, 64, 64
2, 86604, Note_on_c, 0, 43, 49
2, 86618, Control_c, 0, 64, 56
2, 86639, Control_c, 0, 64, 48
2, 86656, Control_c, 0, 64, 45
2, 86676, Control_c, 0, 64, 44
2, 86694, Control_c, 0, 64, 42
2, 86714, Control_c, 0, 64, 37
2, 86733, Control_c, 0, 64, 30
2, 86754, Control_c, 0, 64, 19
2, 86773, Control_c, 0, 64, 0
2, 87097, Control_c, 0, 64, 15
2, 87117, Control_c, 0, 64, 27
2, 87137, Control_c, 0, 64, 37
2, 87155, Control_c, 0, 64, 44
2, 87175, Control_c, 0, 64, 50
2, 87194, Control_c, 0, 64, 55
2, 87214, Control_c, 0, 64, 57
2, 87231, Control_c, 0, 64, 59
2, 87252, Control_c, 0, 64, 60
2, 87272, Control_c, 0, 64, 62
2, 87292, Control_c, 0, 64, 64
2, 87311, Control_c, 0, 64, 65
2, 87328, Control_c, 0, 64, 68
2, 87348, Control_c, 0, 64, 73
2, 87367, Control_c, 0, 64, 80
2, 87385, Control_c, 0, 64, 88
2, 87409, Control_c, 0, 64, 98
2, 87424, Control_c, 0, 64, 111
2, 87445, Control_c, 0, 64, 127
2, 87662, Note_on_c, 0, 64, 0
2, 87742, Note_on_c, 0, 73, 0
2, 87819, Note_on_c, 0, 70, 0
2, 87907, Note_on_c, 0, 71, 61
2, 88082, Note_on_c, 0, 71, 0
2, 88086, Note_on_c, 0, 70, 78
2, 88159, Note_on_c, 0, 70, 0
2, 88310, Note_on_c, 0, 70, 59
2, 88367, Control_c, 0, 64, 100
2, 88385, Control_c, 0, 64, 84
2, 88394, Note_on_c, 0, 73, 64
2, 88404, Control_c, 0, 64, 71
2, 88423, Control_c, 0, 64, 62
2, 88443, Control_c, 0, 64, 55
2, 88452, Note_on_c, 0, 76, 77
2, 88461, Control_c, 0, 64, 53
2, 88481, Control_c, 0, 64, 52
2, 88501, Control_c, 0, 64, 50
2, 88522, Control_c, 0, 64, 48
2, 88538, Control_c, 0, 64, 45
2, 88557, Control_c, 0, 64, 39
2, 88576, Control_c, 0, 64, 28
2, 88598, Control_c, 0, 64, 13
2, 88614, Control_c, 0, 64, 0
2, 88751, Control_c, 0, 64, 10
2, 88768, Control_c, 0, 64, 23
2, 88788, Control_c, 0, 64, 35
2, 88806, Control_c, 0, 64, 45
2, 88826, Control_c, 0, 64, 53
2, 88845, Control_c, 0, 64, 59
2, 88863, Control_c, 0, 64, 60
2, 88885, Control_c, 0, 64, 62
2, 88905, Control_c, 0, 64, 63
2, 88922, Control_c, 0, 64, 64
2, 88943, Control_c, 0, 64, 66
2, 88963, Control_c, 0, 64, 70
2, 88981, Control_c, 0, 64, 77
2, 89000, Control_c, 0, 64, 85
2, 89018, Control_c, 0, 64, 97
2, 89040, Control_c, 0, 64, 109
2, 89057, Control_c, 0, 64, 127
2, 89523, Note_on_c, 0, 43, 0
2, 89534, Note_on_c, 0, 46, 56
2, 89556, Control_c, 0, 64, 122
2, 89574, Control_c, 0, 64, 103
2, 89593, Control_c, 0, 64, 92
2, 89613, Control_c, 0, 64, 83
2, 89633, Control_c, 0, 64, 74
2, 89650, Control_c, 0, 64, 67
2, 89670, Control_c, 0, 64, 62
2, 89690, Control_c, 0, 64, 59
2, 89711, Control_c, 0, 64, 58
2, 89730, Control_c, 0, 64, 57
2, 89748, Control_c, 0, 64, 56
2, 89759, Note_on_c, 0, 46, 0
2, 89769, Control_c, 0, 64, 54
2, 89769, Note_on_c, 0, 44, 73
2, 89786, Control_c, 0, 64, 51
2, 89807, Control_c, 0, 64, 47
2, 89825, Control_c, 0, 64, 43
2, 89844, Control_c, 0, 64, 41
2, 89863, Control_c, 0, 64, 39
2, 89883, Control_c, 0, 64, 37
2, 89903, Control_c, 0, 64, 35
2, 89921, Control_c, 0, 64, 33
2, 89940, Control_c, 0, 64, 32
2, 89958, Note_on_c, 0, 43, 76
2, 89969, Note_on_c, 0, 44, 0
2, 89982, Control_c, 0, 64, 31
2, 90216, Note_on_c, 0, 49, 72
2, 90238, Note_on_c, 0, 43, 0
2, 90593, Control_c, 0, 64, 30
2, 90612, Control_c, 0, 64, 27
2, 90635, Control_c, 0, 64, 22
2, 90650, Control_c, 0, 64, 14
2, 90670, Control_c, 0, 64, 0
2, 90805, Control_c, 0, 64, 17
2, 90824, Control_c, 0, 64, 31
2, 90844, Control_c, 0, 64, 44
2, 90861, Control_c, 0, 64, 54
2, 90882, Control_c, 0, 64, 60
2, 90902, Control_c, 0, 64, 62
2, 90919, Control_c, 0, 64, 63
2, 90938, Control_c, 0, 64, 65
2, 90959, Control_c, 0, 64, 67
2, 90977, Control_c, 0, 64, 72
2, 90995, Control_c, 0, 64, 79
2, 91015, Control_c, 0, 64, 89
2, 91037, Control_c, 0, 64, 102
2, 91052, Control_c, 0, 64, 127
2, 91094, Note_on_c, 0, 73, 0
2, 91103, Note_on_c, 0, 70, 0
2, 91123, Note_on_c, 0, 76, 0
2, 91470, Note_on_c, 0, 75, 80
2, 91515, Control_c, 0, 64, 118
2, 91534, Control_c, 0, 64, 115
2, 91553, Control_c, 0, 64, 112
2, 91575, Control_c, 0, 64, 111
2, 91593, Control_c, 0, 64, 110
2, 91609, Control_c, 0, 64, 109
2, 91670, Note_on_c, 0, 73, 94
2, 91708, Note_on_c, 0, 75, 0
2, 91764, Control_c, 0, 64, 111
2, 91782, Control_c, 0, 64, 113
2, 91802, Note_on_c, 0, 73, 0
2, 91803, Control_c, 0, 64, 115
2, 91821, Control_c, 0, 64, 116
2, 91866, Note_on_c, 0, 70, 72
2, 91879, Control_c, 0, 64, 115
2, 91897, Control_c, 0, 64, 109
2, 91919, Control_c, 0, 64, 100
2, 91919, Note_on_c, 0, 73, 81
2, 91938, Control_c, 0, 64, 87
2, 91941, Note_on_c, 0, 79, 91
2, 91957, Control_c, 0, 64, 75
2, 91975, Control_c, 0, 64, 66
2, 91995, Control_c, 0, 64, 59
2, 92015, Control_c, 0, 64, 50
2, 92033, Control_c, 0, 64, 44
2, 92052, Control_c, 0, 64, 38
2, 92071, Control_c, 0, 64, 33
2, 92091, Control_c, 0, 64, 25
2, 92108, Control_c, 0, 64, 12
2, 92130, Control_c, 0, 64, 0
2, 92398, Control_c, 0, 64, 21
2, 92418, Control_c, 0, 64, 37
2, 92435, Control_c, 0, 64, 47
2, 92456, Control_c, 0, 64, 55
2, 92475, Control_c, 0, 64, 59
2, 92494, Control_c, 0, 64, 61
2, 92512, Control_c, 0, 64, 63
2, 92533, Control_c, 0, 64, 64
2, 92550, Control_c, 0, 64, 67
2, 92570, Control_c, 0, 64, 75
2, 92591, Control_c, 0, 64, 88
2, 92612, Control_c, 0, 64, 116
2, 92629, Control_c, 0, 64, 127
2, 92718, Note_on_c, 0, 49, 0
2, 93166, Note_on_c, 0, 47, 78
2, 93168, Control_c, 0, 64, 102
2, 93185, Control_c, 0, 64, 91
2, 93203, Control_c, 0, 64, 82
2, 93225, Control_c, 0, 64, 73
2, 93245, Control_c, 0, 64, 65
2, 93261, Control_c, 0, 64, 61
2, 93281, Control_c, 0, 64, 57
2, 93301, Control_c, 0, 64, 54
2, 93320, Control_c, 0, 64, 50
2, 93339, Control_c, 0, 64, 45
2, 93356, Control_c, 0, 64, 37
2, 93378, Control_c, 0, 64, 26
2, 93396, Control_c, 0, 64, 0
2, 93409, Note_on_c, 0, 46, 81
2, 93437, Note_on_c, 0, 47, 0
2, 93683, Note_on_c, 0, 52, 84
2, 93697, Note_on_c, 0, 46, 0
2, 94112, Note_on_c, 0, 51, 86
2, 94172, Note_on_c, 0, 52, 0
2, 94528, Note_on_c, 0, 70, 0
2, 94538, Note_on_c, 0, 52, 85
2, 94554, Note_on_c, 0, 73, 0
2, 94574, Note_on_c, 0, 51, 0
2, 94958, Note_on_c, 0, 77, 93
2, 94962, Note_on_c, 0, 49, 80
2, 94976, Note_on_c, 0, 52, 0
2, 94991, Control_c, 0, 64, 11
2, 95006, Note_on_c, 0, 79, 0
2, 95011, Control_c, 0, 64, 23
2, 95028, Control_c, 0, 64, 33
2, 95048, Control_c, 0, 64, 45
2, 95068, Control_c, 0, 64, 53
2, 95086, Control_c, 0, 64, 58
2, 95104, Control_c, 0, 64, 60
2, 95126, Control_c, 0, 64, 61
2, 95143, Control_c, 0, 64, 63
2, 95161, Control_c, 0, 64, 65
2, 95183, Control_c, 0, 64, 70
2, 95183, Note_on_c, 0, 75, 95
2, 95203, Control_c, 0, 64, 80
2, 95221, Control_c, 0, 64, 100
2, 95225, Note_on_c, 0, 77, 0
2, 95230, Note_on_c, 0, 49, 0
2, 95239, Control_c, 0, 64, 127
2, 95374, Note_on_c, 0, 75, 0
2, 95485, Note_on_c, 0, 47, 75
2, 95489, Control_c, 0, 64, 109
2, 95492, Note_on_c, 0, 80, 97
2, 95501, Note_on_c, 0, 71, 82
2, 95509, Control_c, 0, 64, 83
2, 95514, Note_on_c, 0, 75, 80
2, 95527, Control_c, 0, 64, 67
2, 95546, Control_c, 0, 64, 58
2, 95566, Control_c, 0, 64, 47
2, 95585, Control_c, 0, 64, 38
2, 95605, Control_c, 0, 64, 35
2, 95625, Control_c, 0, 64, 34
2, 95642, Control_c, 0, 64, 32
2, 95662, Control_c, 0, 64, 28
2, 95679, Control_c, 0, 64, 23
2, 95699, Control_c, 0, 64, 20
2, 95719, Control_c, 0, 64, 19
2, 95776, Control_c, 0, 64, 17
2, 95796, Control_c, 0, 64, 13
2, 95796, Note_on_c, 0, 46, 80
2, 95804, Note_on_c, 0, 47, 0
2, 95815, Control_c, 0, 64, 9
2, 95834, Control_c, 0, 64, 0
2, 96009, Note_on_c, 0, 44, 82
2, 96039, Note_on_c, 0, 46, 0
2, 96214, Note_on_c, 0, 46, 84
2, 96241, Note_on_c, 0, 44, 0
2, 96429, Note_on_c, 0, 47, 79
2, 96456, Note_on_c, 0, 46, 0
2, 96636, Note_on_c, 0, 44, 82
2, 96665, Note_on_c, 0, 47, 0
2, 96878, Note_on_c, 0, 46, 85
2, 96910, Note_on_c, 0, 44, 0
2, 97136, Note_on_c, 0, 47, 84
2, 97169, Note_on_c, 0, 46, 0
2, 97466, Note_on_c, 0, 71, 0
2, 97496, Note_on_c, 0, 47, 0
2, 97501, Note_on_c, 0, 40, 74
2, 97508, Note_on_c, 0, 75, 0
2, 97582, Note_on_c, 0, 80, 0
2, 97891, Control_c, 0, 64, 20
2, 97913, Control_c, 0, 64, 32
2, 97930, Control_c, 0, 64, 43
2, 97950, Control_c, 0, 64, 52
2, 97968, Control_c, 0, 64, 57
2, 97987, Control_c, 0, 64, 59
2, 98006, Control_c, 0, 64, 60
2, 98025, Control_c, 0, 64, 61
2, 98045, Control_c, 0, 64, 62
2, 98065, Control_c, 0, 64, 64
2, 98083, Control_c, 0, 64, 65
2, 98103, Control_c, 0, 64, 68
2, 98125, Control_c, 0, 64, 73
2, 98125, Note_on_c, 0, 79, 94
2, 98144, Control_c, 0, 64, 82
2, 98159, Control_c, 0, 64, 93
2, 98182, Control_c, 0, 64, 109
2, 98199, Control_c, 0, 64, 127
2, 98382, Note_on_c, 0, 40, 0
2, 98552, Note_on_c, 0, 80, 93
2, 98592, Note_on_c, 0, 79, 0
2, 98754, Note_on_c, 0, 52, 85
2, 98928, Control_c, 0, 64, 109
2, 98946, Control_c, 0, 64, 95
2, 98960, Note_on_c, 0, 51, 83
2, 98966, Control_c, 0, 64, 83
2, 98973, Note_on_c, 0, 52, 0
2, 98980, Note_on_c, 0, 82, 94
2, 98987, Control_c, 0, 64, 73
2, 99006, Control_c, 0, 64, 65
2, 99025, Control_c, 0, 64, 61
2, 99025, Note_on_c, 0, 80, 0
2, 99043, Control_c, 0, 64, 57
2, 99085, Control_c, 0, 64, 56
2, 99100, Control_c, 0, 64, 54
2, 99119, Control_c, 0, 64, 51
2, 99139, Control_c, 0, 64, 48
2, 99160, Control_c, 0, 64, 45
2, 99173, Note_on_c, 0, 49, 79
2, 99178, Control_c, 0, 64, 42
2, 99189, Note_on_c, 0, 51, 0
2, 99196, Control_c, 0, 64, 39
2, 99215, Control_c, 0, 64, 37
2, 99238, Control_c, 0, 64, 35
2, 99254, Control_c, 0, 64, 33
2, 99273, Control_c, 0, 64, 30
2, 99292, Control_c, 0, 64, 27
2, 99314, Control_c, 0, 64, 26
2, 99372, Control_c, 0, 64, 25
2, 99504, Control_c, 0, 64, 24
2, 99524, Note_on_c, 0, 49, 0
2, 99540, Note_on_c, 0, 51, 68
2, 99544, Control_c, 0, 64, 23
2, 99574, Note_on_c, 0, 79, 80
2, 99578, Note_on_c, 0, 82, 0
2, 99587, Note_on_c, 0, 83, 81
2, 99596, Note_on_c, 0, 75, 71
2, 99620, Control_c, 0, 64, 24
2, 99638, Control_c, 0, 64, 28
2, 99657, Control_c, 0, 64, 35
2, 99677, Control_c, 0, 64, 45
2, 99695, Control_c, 0, 64, 54
2, 99714, Control_c, 0, 64, 59
2, 99735, Control_c, 0, 64, 61
2, 99753, Control_c, 0, 64, 63
2, 99773, Control_c, 0, 64, 65
2, 99793, Control_c, 0, 64, 68
2, 99813, Control_c, 0, 64, 76
2, 99833, Control_c, 0, 64, 88
2, 99833, Note_on_c, 0, 75, 0
2, 99838, Note_on_c, 0, 79, 0
2, 99838, Note_on_c, 0, 83, 0
2, 99840, Note_on_c, 0, 82, 75
2, 99851, Control_c, 0, 64, 104
2, 99869, Control_c, 0, 64, 127
2, 99931, Note_on_c, 0, 82, 0
2, 99988, Note_on_c, 0, 83, 63
2, 100053, Note_on_c, 0, 83, 0
2, 100070, Note_on_c, 0, 82, 71
2, 100141, Note_on_c, 0, 82, 0
2, 100194, Note_on_c, 0, 83, 68
2, 100241, Note_on_c, 0, 83, 0
2, 100296, Note_on_c, 0, 82, 63
2, 100336, Note_on_c, 0, 82, 0
2, 100349, Control_c, 0, 64, 122
2, 100368, Control_c, 0, 64, 120
2, 100382, Note_on_c, 0, 83, 56
2, 100409, Control_c, 0, 64, 118
2, 100413, Note_on_c, 0, 83, 0
2, 100447, Note_on_c, 0, 82, 56
2, 100474, Note_on_c, 0, 82, 0
2, 100490, Note_on_c, 0, 83, 68
2, 100534, Note_on_c, 0, 83, 0
2, 100565, Note_on_c, 0, 82, 63
2, 100606, Note_on_c, 0, 82, 0
2, 100629, Note_on_c, 0, 51, 0
2, 100638, Control_c, 0, 64, 116
2, 100642, Note_on_c, 0, 83, 77
2, 100647, Note_on_c, 0, 49, 62
2, 100695, Control_c, 0, 64, 115
2, 100733, Control_c, 0, 64, 113
2, 100749, Note_on_c, 0, 82, 75
2, 100771, Control_c, 0, 64, 112
2, 100787, Note_on_c, 0, 83, 0
2, 100849, Control_c, 0, 64, 113
2, 100869, Control_c, 0, 64, 115
2, 100869, Note_on_c, 0, 80, 87
2, 100886, Control_c, 0, 64, 118
2, 100899, Note_on_c, 0, 82, 0
2, 100907, Control_c, 0, 64, 120
2, 100925, Control_c, 0, 64, 127
2, 101041, Control_c, 0, 64, 110
2, 101047, Note_on_c, 0, 82, 84
2, 101052, Note_on_c, 0, 51, 67
2, 101059, Control_c, 0, 64, 97
2, 101068, Note_on_c, 0, 73, 80
2, 101072, Note_on_c, 0, 80, 0
2, 101078, Control_c, 0, 64, 83
2, 101092, Note_on_c, 0, 49, 0
2, 101101, Control_c, 0, 64, 70
2, 101119, Control_c, 0, 64, 62
2, 101135, Control_c, 0, 64, 55
2, 101155, Control_c, 0, 64, 51
2, 101175, Control_c, 0, 64, 47
2, 101195, Control_c, 0, 64, 43
2, 101213, Control_c, 0, 64, 36
2, 101231, Control_c, 0, 64, 18
2, 101251, Control_c, 0, 64, 0
2, 101560, Control_c, 0, 64, 31
2, 101578, Control_c, 0, 64, 44
2, 101597, Control_c, 0, 64, 53
2, 101617, Control_c, 0, 64, 59
2, 101636, Control_c, 0, 64, 61
2, 101654, Control_c, 0, 64, 63
2, 101673, Control_c, 0, 64, 65
2, 101692, Control_c, 0, 64, 67
2, 101715, Control_c, 0, 64, 73
2, 101730, Control_c, 0, 64, 83
2, 101750, Control_c, 0, 64, 99
2, 101770, Control_c, 0, 64, 127
2, 101993, Note_on_c, 0, 39, 77
2, 102055, Note_on_c, 0, 51, 0
2, 102089, Note_on_c, 0, 73, 0
2, 102455, Note_on_c, 0, 80, 93
2, 102519, Note_on_c, 0, 82, 0
2, 102852, Note_on_c, 0, 80, 0
2, 103130, Control_c, 0, 64, 102
2, 103150, Control_c, 0, 64, 82
2, 103165, Note_on_c, 0, 44, 77
2, 103170, Control_c, 0, 64, 67
2, 103170, Note_on_c, 0, 80, 87
2, 103181, Note_on_c, 0, 71, 75
2, 103181, Note_on_c, 0, 75, 75
2, 103190, Control_c, 0, 64, 59
2, 103190, Note_on_c, 0, 39, 0
2, 103209, Control_c, 0, 64, 52
2, 103227, Control_c, 0, 64, 46
2, 103244, Control_c, 0, 64, 41
2, 103265, Control_c, 0, 64, 36
2, 103285, Control_c, 0, 64, 31
2, 103307, Control_c, 0, 64, 20
2, 103322, Control_c, 0, 64, 0
2, 104416, Control_c, 0, 64, 8
2, 104453, Control_c, 0, 64, 9
2, 104473, Control_c, 0, 64, 10
2, 104511, Control_c, 0, 64, 11
2, 104540, Note_on_c, 0, 71, 0
2, 104572, Control_c, 0, 64, 12
2, 104572, Note_on_c, 0, 75, 0
2, 104639, Note_on_c, 0, 80, 0
2, 104723, Control_c, 0, 64, 13
2, 104801, Control_c, 0, 64, 15
2, 104819, Control_c, 0, 64, 16
2, 104839, Control_c, 0, 64, 17
2, 104853, Note_on_c, 0, 83, 86
2, 104857, Control_c, 0, 64, 18
2, 104876, Control_c, 0, 64, 19
2, 104895, Control_c, 0, 64, 20
2, 104935, Control_c, 0, 64, 21
2, 104993, Control_c, 0, 64, 22
2, 105031, Control_c, 0, 64, 23
2, 105069, Control_c, 0, 64, 24
2, 105091, Control_c, 0, 64, 25
2, 105272, Note_on_c, 0, 77, 90
2, 105312, Note_on_c, 0, 83, 0
2, 105318, Control_c, 0, 64, 24
2, 105434, Control_c, 0, 64, 23
2, 105566, Note_on_c, 0, 44, 0
2, 105588, Control_c, 0, 64, 22
2, 105606, Control_c, 0, 64, 20
2, 105626, Control_c, 0, 64, 18
2, 105644, Control_c, 0, 64, 16
2, 105664, Control_c, 0, 64, 11
2, 105683, Control_c, 0, 64, 0
2, 106584, Note_on_c, 0, 78, 91
2, 106588, Note_on_c, 0, 59, 82
2, 106620, Note_on_c, 0, 77, 0
2, 106730, Note_on_c, 0, 80, 86
2, 106766, Note_on_c, 0, 78, 0
2, 106897, Note_on_c, 0, 53, 69
2, 106897, Note_on_c, 0, 74, 83
2, 106901, Note_on_c, 0, 80, 0
2, 106903, Note_on_c, 0, 59, 0
2, 107351, Control_c, 0, 64, 13
2, 107372, Control_c, 0, 64, 21
2, 107390, Control_c, 0, 64, 28
2, 107409, Control_c, 0, 64, 36
2, 107431, Control_c, 0, 64, 44
2, 107450, Control_c, 0, 64, 50
2, 107468, Control_c, 0, 64, 55
2, 107487, Control_c, 0, 64, 59
2, 107504, Control_c, 0, 64, 60
2, 107525, Control_c, 0, 64, 62
2, 107542, Control_c, 0, 64, 63
2, 107562, Control_c, 0, 64, 66
2, 107582, Control_c, 0, 64, 69
2, 107604, Control_c, 0, 64, 75
2, 107621, Control_c, 0, 64, 85
2, 107641, Control_c, 0, 64, 97
2, 107660, Control_c, 0, 64, 116
2, 107678, Control_c, 0, 64, 127
2, 107753, Note_on_c, 0, 53, 0
2, 107809, Note_on_c, 0, 74, 0
2, 108214, Note_on_c, 0, 54, 74
2, 108214, Note_on_c, 0, 75, 81
2, 108292, Control_c, 0, 64, 113
2, 108312, Control_c, 0, 64, 94
2, 108330, Control_c, 0, 64, 79
2, 108349, Control_c, 0, 64, 68
2, 108367, Note_on_c, 0, 77, 81
2, 108371, Control_c, 0, 64, 60
2, 108380, Note_on_c, 0, 56, 73
2, 108388, Control_c, 0, 64, 51
2, 108402, Note_on_c, 0, 75, 0
2, 108408, Control_c, 0, 64, 45
2, 108423, Note_on_c, 0, 54, 0
2, 108427, Control_c, 0, 64, 38
2, 108448, Control_c, 0, 64, 29
2, 108466, Control_c, 0, 64, 15
2, 108486, Control_c, 0, 64, 0
2, 108537, Note_on_c, 0, 50, 69
2, 108539, Note_on_c, 0, 70, 83
2, 108562, Note_on_c, 0, 56, 0
2, 108580, Note_on_c, 0, 77, 0
2, 109157, Control_c, 0, 64, 16
2, 109175, Control_c, 0, 64, 27
2, 109195, Control_c, 0, 64, 34
2, 109213, Control_c, 0, 64, 40
2, 109233, Control_c, 0, 64, 43
2, 109251, Control_c, 0, 64, 47
2, 109275, Control_c, 0, 64, 51
2, 109292, Control_c, 0, 64, 55
2, 109313, Control_c, 0, 64, 58
2, 109331, Control_c, 0, 64, 60
2, 109349, Control_c, 0, 64, 62
2, 109368, Control_c, 0, 64, 63
2, 109386, Control_c, 0, 64, 65
2, 109407, Control_c, 0, 64, 67
2, 109425, Control_c, 0, 64, 71
2, 109445, Control_c, 0, 64, 78
2, 109467, Control_c, 0, 64, 86
2, 109484, Control_c, 0, 64, 96
2, 109502, Control_c, 0, 64, 109
2, 109520, Control_c, 0, 64, 127
2, 109581, Note_on_c, 0, 50, 0
2, 109955, Note_on_c, 0, 51, 74
2, 110020, Control_c, 0, 64, 105
2, 110032, Note_on_c, 0, 80, 86
2, 110040, Control_c, 0, 64, 86
2, 110059, Control_c, 0, 64, 73
2, 110079, Control_c, 0, 64, 64
2, 110083, Note_on_c, 0, 70, 0
2, 110097, Control_c, 0, 64, 58
2, 110117, Control_c, 0, 64, 55
2, 110135, Control_c, 0, 64, 53
2, 110155, Control_c, 0, 64, 50
2, 110161, Note_on_c, 0, 53, 74
2, 110174, Control_c, 0, 64, 44
2, 110194, Control_c, 0, 64, 35
2, 110207, Note_on_c, 0, 51, 0
2, 110216, Control_c, 0, 64, 20
2, 110231, Control_c, 0, 64, 0
2, 110361, Note_on_c, 0, 53, 0
2, 110366, Note_on_c, 0, 46, 71
2, 110381, Note_on_c, 0, 74, 77
2, 110415, Note_on_c, 0, 80, 0
2, 110865, Control_c, 0, 64, 18
2, 110885, Control_c, 0, 64, 24
2, 110902, Control_c, 0, 64, 28
2, 110922, Control_c, 0, 64, 32
2, 110945, Control_c, 0, 64, 35
2, 110962, Control_c, 0, 64, 39
2, 110982, Control_c, 0, 64, 42
2, 111000, Control_c, 0, 64, 45
2, 111020, Control_c, 0, 64, 49
2, 111038, Control_c, 0, 64, 52
2, 111057, Control_c, 0, 64, 55
2, 111079, Control_c, 0, 64, 58
2, 111095, Control_c, 0, 64, 60
2, 111117, Control_c, 0, 64, 62
2, 111134, Control_c, 0, 64, 64
2, 111155, Control_c, 0, 64, 66
2, 111173, Control_c, 0, 64, 71
2, 111192, Control_c, 0, 64, 79
2, 111214, Control_c, 0, 64, 93
2, 111231, Control_c, 0, 64, 127
2, 111415, Note_on_c, 0, 74, 0
2, 111778, Note_on_c, 0, 46, 0
2, 111821, Note_on_c, 0, 75, 67
2, 111825, Note_on_c, 0, 56, 57
2, 111863, Control_c, 0, 64, 113
2, 111883, Control_c, 0, 64, 96
2, 111901, Control_c, 0, 64, 82
2, 111922, Control_c, 0, 64, 71
2, 111941, Control_c, 0, 64, 63
2, 111961, Control_c, 0, 64, 54
2, 111982, Control_c, 0, 64, 44
2, 111982, Note_on_c, 0, 75, 0
2, 111982, Note_on_c, 0, 77, 75
2, 111997, Control_c, 0, 64, 28
2, 112017, Control_c, 0, 64, 0
2, 112148, Note_on_c, 0, 56, 0
2, 112163, Note_on_c, 0, 50, 50
2, 112163, Note_on_c, 0, 70, 68
2, 112170, Note_on_c, 0, 77, 0
2, 112636, Control_c, 0, 64, 8
2, 112652, Control_c, 0, 64, 20
2, 112672, Control_c, 0, 64, 26
2, 112694, Control_c, 0, 64, 32
2, 112709, Control_c, 0, 64, 37
2, 112728, Control_c, 0, 64, 42
2, 112750, Control_c, 0, 64, 46
2, 112770, Control_c, 0, 64, 51
2, 112788, Control_c, 0, 64, 55
2, 112806, Control_c, 0, 64, 58
2, 112827, Control_c, 0, 64, 60
2, 112843, Control_c, 0, 64, 63
2, 112864, Control_c, 0, 64, 65
2, 112884, Control_c, 0, 64, 69
2, 112902, Control_c, 0, 64, 77
2, 112923, Control_c, 0, 64, 90
2, 112944, Control_c, 0, 64, 127
2, 113106, Note_on_c, 0, 70, 0
2, 113122, Note_on_c, 0, 50, 0
2, 113553, Note_on_c, 0, 51, 51
2, 113562, Note_on_c, 0, 72, 60
2, 113650, Control_c, 0, 64, 107
2, 113671, Control_c, 0, 64, 91
2, 113687, Note_on_c, 0, 51, 0
2, 113690, Control_c, 0, 64, 79
2, 113707, Note_on_c, 0, 72, 0
2, 113712, Control_c, 0, 64, 71
2, 113728, Note_on_c, 0, 53, 53
2, 113732, Control_c, 0, 64, 66
2, 113737, Note_on_c, 0, 74, 59
2, 113747, Control_c, 0, 64, 63
2, 113767, Control_c, 0, 64, 61
2, 113787, Control_c, 0, 64, 59
2, 113804, Control_c, 0, 64, 55
2, 113827, Control_c, 0, 64, 48
2, 113844, Control_c, 0, 64, 37
2, 113863, Control_c, 0, 64, 24
2, 113882, Control_c, 0, 64, 0
2, 113897, Note_on_c, 0, 53, 0
2, 113913, Note_on_c, 0, 74, 0
2, 113939, Note_on_c, 0, 42, 48
2, 113947, Note_on_c, 0, 75, 55
2, 115169, Note_on_c, 0, 73, 55
2, 115169, Note_on_c, 0, 75, 0
2, 115302, Note_on_c, 0, 73, 0
2, 115350, Note_on_c, 0, 71, 52
2, 115445, Note_on_c, 0, 43, 37
2, 115468, Note_on_c, 0, 42, 0
2, 115544, Note_on_c, 0, 71, 0
2, 115571, Note_on_c, 0, 73, 57
2, 115917, Control_c, 0, 64, 16
2, 115937, Control_c, 0, 64, 24
2, 115955, Control_c, 0, 64, 30
2, 115974, Control_c, 0, 64, 36
2, 115992, Control_c, 0, 64, 43
2, 116012, Control_c, 0, 64, 50
2, 116033, Control_c, 0, 64, 55
2, 116051, Control_c, 0, 64, 58
2, 116069, Control_c, 0, 64, 59
2, 116088, Control_c, 0, 64, 60
2, 116109, Control_c, 0, 64, 61
2, 116128, Control_c, 0, 64, 62
2, 116145, Control_c, 0, 64, 63
2, 116165, Control_c, 0, 64, 64
2, 116186, Control_c, 0, 64, 65
2, 116204, Control_c, 0, 64, 67
2, 116224, Control_c, 0, 64, 71
2, 116244, Control_c, 0, 64, 78
2, 116261, Control_c, 0, 64, 85
2, 116284, Control_c, 0, 64, 95
2, 116302, Control_c, 0, 64, 115
2, 116320, Control_c, 0, 64, 127
2, 116554, Note_on_c, 0, 43, 0
2, 116692, Note_on_c, 0, 73, 0
2, 117055, Note_on_c, 0, 58, 73
2, 117183, Note_on_c, 0, 63, 51
2, 117205, Control_c, 0, 64, 92
2, 117224, Control_c, 0, 64, 76
2, 117224, Note_on_c, 0, 70, 58
2, 117242, Control_c, 0, 64, 66
2, 117262, Control_c, 0, 64, 60
2, 117280, Control_c, 0, 64, 57
2, 117291, Note_on_c, 0, 55, 64
2, 117300, Control_c, 0, 64, 56
2, 117316, Note_on_c, 0, 73, 58
2, 117320, Control_c, 0, 64, 55
2, 117331, Note_on_c, 0, 58, 0
2, 117338, Control_c, 0, 64, 52
2, 117358, Control_c, 0, 64, 49
2, 117376, Control_c, 0, 64, 45
2, 117397, Control_c, 0, 64, 40
2, 117414, Control_c, 0, 64, 36
2, 117433, Control_c, 0, 64, 32
2, 117453, Control_c, 0, 64, 30
2, 117471, Control_c, 0, 64, 28
2, 117492, Control_c, 0, 64, 25
2, 117510, Control_c, 0, 64, 22
2, 117528, Control_c, 0, 64, 17
2, 117550, Control_c, 0, 64, 13
2, 117568, Control_c, 0, 64, 11
2, 117683, Control_c, 0, 64, 13
2, 117702, Control_c, 0, 64, 15
2, 117720, Control_c, 0, 64, 19
2, 117740, Control_c, 0, 64, 25
2, 117759, Control_c, 0, 64, 32
2, 117779, Control_c, 0, 64, 39
2, 117798, Control_c, 0, 64, 44
2, 117817, Control_c, 0, 64, 49
2, 117839, Control_c, 0, 64, 52
2, 117857, Control_c, 0, 64, 54
2, 117877, Control_c, 0, 64, 56
2, 117893, Control_c, 0, 64, 57
2, 117914, Control_c, 0, 64, 59
2, 117933, Control_c, 0, 64, 60
2, 117951, Control_c, 0, 64, 62
2, 117970, Control_c, 0, 64, 63
2, 117991, Control_c, 0, 64, 64
2, 118009, Control_c, 0, 64, 67
2, 118028, Control_c, 0, 64, 71
2, 118049, Control_c, 0, 64, 79
2, 118067, Control_c, 0, 64, 94
2, 118087, Control_c, 0, 64, 127
2, 118207, Note_on_c, 0, 55, 0
2, 118625, Note_on_c, 0, 70, 0
2, 118657, Note_on_c, 0, 51, 57
2, 118661, Note_on_c, 0, 63, 0
2, 118679, Note_on_c, 0, 73, 0
2, 118876, Control_c, 0, 64, 115
2, 118893, Control_c, 0, 64, 91
2, 118912, Control_c, 0, 64, 76
2, 118916, Note_on_c, 0, 51, 0
2, 118934, Control_c, 0, 64, 66
2, 118934, Note_on_c, 0, 73, 57
2, 118938, Note_on_c, 0, 44, 45
2, 118952, Control_c, 0, 64, 59
2, 118961, Note_on_c, 0, 63, 43
2, 118965, Note_on_c, 0, 70, 46
2, 118970, Control_c, 0, 64, 55
2, 118990, Control_c, 0, 64, 52
2, 119008, Control_c, 0, 64, 49
2, 119030, Control_c, 0, 64, 44
2, 119046, Control_c, 0, 64, 37
2, 119065, Control_c, 0, 64, 27
2, 119086, Control_c, 0, 64, 16
2, 119105, Control_c, 0, 64, 8
2, 119122, Control_c, 0, 64, 0
2, 120178, Note_on_c, 0, 71, 53
2, 120198, Note_on_c, 0, 73, 0
2, 120209, Note_on_c, 0, 70, 0
2, 120360, Note_on_c, 0, 71, 0
2, 120365, Note_on_c, 0, 70, 55
2, 120570, Note_on_c, 0, 70, 0
2, 120596, Note_on_c, 0, 71, 49
2, 120871, Control_c, 0, 64, 8
2, 120889, Control_c, 0, 64, 11
2, 120911, Control_c, 0, 64, 15
2, 120931, Control_c, 0, 64, 18
2, 120948, Control_c, 0, 64, 21
2, 120965, Control_c, 0, 64, 24
2, 120988, Control_c, 0, 64, 27
2, 121004, Control_c, 0, 64, 30
2, 121023, Control_c, 0, 64, 33
2, 121043, Control_c, 0, 64, 36
2, 121063, Control_c, 0, 64, 41
2, 121081, Control_c, 0, 64, 44
2, 121101, Control_c, 0, 64, 48
2, 121123, Control_c, 0, 64, 50
2, 121138, Control_c, 0, 64, 51
2, 121158, Control_c, 0, 64, 52
2, 121200, Control_c, 0, 64, 54
2, 121215, Control_c, 0, 64, 55
2, 121237, Control_c, 0, 64, 57
2, 121253, Control_c, 0, 64, 58
2, 121274, Control_c, 0, 64, 60
2, 121292, Control_c, 0, 64, 61
2, 121311, Control_c, 0, 64, 62
2, 121331, Control_c, 0, 64, 64
2, 121351, Control_c, 0, 64, 66
2, 121369, Control_c, 0, 64, 69
2, 121388, Control_c, 0, 64, 75
2, 121408, Control_c, 0, 64, 85
2, 121427, Control_c, 0, 64, 102
2, 121444, Control_c, 0, 64, 127
2, 121642, Note_on_c, 0, 44, 0
2, 121709, Note_on_c, 0, 63, 0
2, 121775, Note_on_c, 0, 71, 0
2, 122065, Note_on_c, 0, 59, 44
2, 122158, Control_c, 0, 64, 103
2, 122174, Control_c, 0, 64, 89
2, 122180, Note_on_c, 0, 63, 43
2, 122196, Control_c, 0, 64, 77
2, 122213, Control_c, 0, 64, 68
2, 122233, Control_c, 0, 64, 63
2, 122253, Control_c, 0, 64, 60
2, 122253, Note_on_c, 0, 68, 36
2, 122272, Control_c, 0, 64, 59
2, 122291, Control_c, 0, 64, 57
2, 122310, Control_c, 0, 64, 56
2, 122319, Note_on_c, 0, 59, 0
2, 122330, Control_c, 0, 64, 53
2, 122330, Note_on_c, 0, 56, 46
2, 122350, Control_c, 0, 64, 50
2, 122370, Control_c, 0, 64, 46
2, 122374, Note_on_c, 0, 71, 50
2, 122389, Control_c, 0, 64, 42
2, 122406, Control_c, 0, 64, 39
2, 122426, Control_c, 0, 64, 33
2, 122445, Control_c, 0, 64, 26
2, 122463, Control_c, 0, 64, 15
2, 122483, Control_c, 0, 64, 0
2, 123174, Control_c, 0, 64, 15
2, 123192, Control_c, 0, 64, 25
2, 123211, Control_c, 0, 64, 33
2, 123231, Control_c, 0, 64, 40
2, 123249, Control_c, 0, 64, 50
2, 123270, Control_c, 0, 64, 56
2, 123290, Control_c, 0, 64, 59
2, 123310, Control_c, 0, 64, 60
2, 123326, Control_c, 0, 64, 61
2, 123348, Control_c, 0, 64, 62
2, 123365, Control_c, 0, 64, 63
2, 123387, Control_c, 0, 64, 64
2, 123404, Control_c, 0, 64, 67
2, 123422, Control_c, 0, 64, 70
2, 123443, Control_c, 0, 64, 74
2, 123463, Control_c, 0, 64, 79
2, 123481, Control_c, 0, 64, 83
2, 123503, Control_c, 0, 64, 87
2, 123519, Control_c, 0, 64, 89
2, 123541, Control_c, 0, 64, 90
2, 123570, Note_on_c, 0, 68, 0
2, 123577, Note_on_c, 0, 63, 0
2, 123581, Control_c, 0, 64, 91
2, 123596, Control_c, 0, 64, 92
2, 123809, Control_c, 0, 64, 91
2, 123813, Note_on_c, 0, 56, 0
2, 123828, Note_on_c, 0, 53, 65
2, 123842, Note_on_c, 0, 71, 0
2, 123864, Control_c, 0, 64, 90
2, 123887, Control_c, 0, 64, 89
2, 123887, Note_on_c, 0, 65, 59
2, 123903, Control_c, 0, 64, 88
2, 123925, Control_c, 0, 64, 87
2, 123942, Control_c, 0, 64, 84
2, 123962, Control_c, 0, 64, 82
2, 123974, Note_on_c, 0, 68, 70
2, 123981, Control_c, 0, 64, 79
2, 123998, Control_c, 0, 64, 76
2, 124017, Control_c, 0, 64, 73
2, 124039, Control_c, 0, 64, 70
2, 124058, Control_c, 0, 64, 67
2, 124075, Control_c, 0, 64, 63
2, 124080, Note_on_c, 0, 53, 0
2, 124098, Control_c, 0, 64, 60
2, 124098, Note_on_c, 0, 51, 56
2, 124115, Control_c, 0, 64, 59
2, 124135, Control_c, 0, 64, 58
2, 124152, Note_on_c, 0, 71, 66
2, 124156, Control_c, 0, 64, 56
2, 124174, Control_c, 0, 64, 53
2, 124191, Control_c, 0, 64, 49
2, 124212, Control_c, 0, 64, 44
2, 124232, Control_c, 0, 64, 38
2, 124251, Control_c, 0, 64, 33
2, 124268, Control_c, 0, 64, 30
2, 124287, Control_c, 0, 64, 27
2, 124306, Control_c, 0, 64, 23
2, 124325, Control_c, 0, 64, 18
2, 124346, Control_c, 0, 64, 15
2, 124363, Control_c, 0, 64, 13
2, 124382, Control_c, 0, 64, 12
2, 124631, Note_on_c, 0, 51, 0
2, 124654, Note_on_c, 0, 50, 42
2, 124982, Control_c, 0, 64, 15
2, 124997, Control_c, 0, 64, 23
2, 125019, Control_c, 0, 64, 33
2, 125039, Control_c, 0, 64, 43
2, 125057, Control_c, 0, 64, 53
2, 125073, Control_c, 0, 64, 60
2, 125097, Control_c, 0, 64, 62
2, 125112, Control_c, 0, 64, 63
2, 125133, Control_c, 0, 64, 64
2, 125150, Control_c, 0, 64, 67
2, 125170, Control_c, 0, 64, 72
2, 125190, Control_c, 0, 64, 82
2, 125208, Note_on_c, 0, 68, 0
2, 125212, Control_c, 0, 64, 92
2, 125227, Control_c, 0, 64, 103
2, 125247, Control_c, 0, 64, 127
2, 125269, Note_on_c, 0, 71, 0
2, 125577, Note_on_c, 0, 70, 71
2, 125612, Note_on_c, 0, 65, 0
2, 125648, Note_on_c, 0, 50, 0
2, 125764, Note_on_c, 0, 68, 90
2, 125771, Note_on_c, 0, 70, 0
2, 125823, Note_on_c, 0, 68, 0
2, 125827, Note_on_c, 0, 50, 37
2, 125920, Control_c, 0, 64, 118
2, 125940, Control_c, 0, 64, 102
2, 125958, Control_c, 0, 64, 92
2, 125962, Note_on_c, 0, 53, 46
2, 125978, Control_c, 0, 64, 84
2, 125997, Control_c, 0, 64, 78
2, 126017, Control_c, 0, 64, 70
2, 126034, Control_c, 0, 64, 64
2, 126055, Control_c, 0, 64, 60
2, 126073, Control_c, 0, 64, 56
2, 126092, Control_c, 0, 64, 53
2, 126110, Control_c, 0, 64, 50
2, 126121, Note_on_c, 0, 77, 64
2, 126133, Control_c, 0, 64, 44
2, 126151, Control_c, 0, 64, 37
2, 126170, Control_c, 0, 64, 29
2, 126189, Control_c, 0, 64, 18
2, 126189, Note_on_c, 0, 58, 41
2, 126208, Control_c, 0, 64, 0
2, 126533, Control_c, 0, 64, 13
2, 126553, Control_c, 0, 64, 21
2, 126573, Control_c, 0, 64, 29
2, 126594, Control_c, 0, 64, 35
2, 126610, Control_c, 0, 64, 41
2, 126631, Control_c, 0, 64, 45
2, 126649, Control_c, 0, 64, 48
2, 126669, Control_c, 0, 64, 52
2, 126689, Control_c, 0, 64, 56
2, 126706, Control_c, 0, 64, 59
2, 126727, Control_c, 0, 64, 61
2, 126747, Control_c, 0, 64, 62
2, 126764, Control_c, 0, 64, 64
2, 126784, Control_c, 0, 64, 65
2, 126804, Control_c, 0, 64, 68
2, 126821, Control_c, 0, 64, 72
2, 126841, Control_c, 0, 64, 80
2, 126860, Control_c, 0, 64, 89
2, 126880, Control_c, 0, 64, 101
2, 126898, Control_c, 0, 64, 122
2, 126918, Control_c, 0, 64, 127
2, 127042, Note_on_c, 0, 77, 0
2, 127221, Note_on_c, 0, 50, 0
2, 127257, Note_on_c, 0, 53, 0
2, 127380, Note_on_c, 0, 58, 0
2, 127428, Note_on_c, 0, 71, 57
2, 127530, Note_on_c, 0, 50, 45
2, 127590, Control_c, 0, 64, 115
2, 127612, Control_c, 0, 64, 100
2, 127612, Note_on_c, 0, 53, 44
2, 127628, Control_c, 0, 64, 89
2, 127649, Control_c, 0, 64, 80
2, 127667, Control_c, 0, 64, 71
2, 127687, Control_c, 0, 64, 65
2, 127705, Control_c, 0, 64, 60
2, 127723, Control_c, 0, 64, 56
2, 127735, Note_on_c, 0, 71, 0
2, 127744, Control_c, 0, 64, 53
2, 127765, Control_c, 0, 64, 51
2, 127765, Note_on_c, 0, 70, 57
2, 127770, Note_on_c, 0, 58, 38
2, 127783, Control_c, 0, 64, 50
2, 127801, Control_c, 0, 64, 49
2, 127821, Control_c, 0, 64, 46
2, 127842, Control_c, 0, 64, 43
2, 127859, Control_c, 0, 64, 38
2, 127878, Control_c, 0, 64, 33
2, 127897, Control_c, 0, 64, 30
2, 127920, Control_c, 0, 64, 27
2, 127934, Control_c, 0, 64, 24
2, 127953, Control_c, 0, 64, 22
2, 127977, Control_c, 0, 64, 20
2, 127978, Note_on_c, 0, 70, 0
2, 127994, Control_c, 0, 64, 18
2, 128005, Note_on_c, 0, 71, 60
2, 128012, Control_c, 0, 64, 17
2, 128032, Control_c, 0, 64, 16
2, 128070, Control_c, 0, 64, 15
2, 128093, Note_on_c, 0, 71, 0
2, 128131, Note_on_c, 0, 70, 61
2, 128146, Control_c, 0, 64, 14
2, 128178, Note_on_c, 0, 70, 0
2, 128215, Note_on_c, 0, 71, 58
2, 128243, Control_c, 0, 64, 13
2, 128268, Note_on_c, 0, 71, 0
2, 128293, Note_on_c, 0, 70, 60
2, 128338, Note_on_c, 0, 70, 0
2, 128356, Control_c, 0, 64, 12
2, 128376, Control_c, 0, 64, 11
2, 128395, Note_on_c, 0, 71, 30
2, 128416, Control_c, 0, 64, 10
2, 128439, Control_c, 0, 64, 9
2, 128450, Note_on_c, 0, 71, 0
2, 128450, Note_on_c, 0, 71, 12
2, 128454, Control_c, 0, 64, 8
2, 128492, Control_c, 0, 64, 0
2, 128509, Note_on_c, 0, 71, 0
2, 128518, Note_on_c, 0, 70, 71
2, 128776, Note_on_c, 0, 70, 0
2, 128826, Note_on_c, 0, 68, 46
2, 128874, Note_on_c, 0, 68, 0
2, 128889, Note_on_c, 0, 70, 61
2, 128978, Note_on_c, 0, 70, 0
2, 129001, Note_on_c, 0, 71, 68
2, 129146, Control_c, 0, 64, 16
2, 129150, Note_on_c, 0, 53, 0
2, 129163, Control_c, 0, 64, 27
2, 129185, Control_c, 0, 64, 41
2, 129202, Control_c, 0, 64, 51
2, 129222, Control_c, 0, 64, 59
2, 129227, Note_on_c, 0, 68, 76
2, 129227, Note_on_c, 0, 71, 0
2, 129242, Control_c, 0, 64, 62
2, 129260, Control_c, 0, 64, 63
2, 129278, Control_c, 0, 64, 64
2, 129287, Note_on_c, 0, 58, 0
2, 129298, Control_c, 0, 64, 66
2, 129316, Note_on_c, 0, 50, 0
2, 129320, Control_c, 0, 64, 70
2, 129338, Control_c, 0, 64, 75
2, 129343, Note_on_c, 0, 51, 52
2, 129357, Control_c, 0, 64, 80
2, 129378, Control_c, 0, 64, 83
2, 129398, Control_c, 0, 64, 84
2, 129398, Note_on_c, 0, 54, 54
2, 129413, Control_c, 0, 64, 83
2, 129434, Control_c, 0, 64, 82
2, 129446, Note_on_c, 0, 68, 0
2, 129455, Control_c, 0, 64, 81
2, 129473, Control_c, 0, 64, 79
2, 129481, Note_on_c, 0, 58, 56
2, 129492, Control_c, 0, 64, 76
2, 129512, Control_c, 0, 64, 71
2, 129520, Note_on_c, 0, 63, 63
2, 129529, Control_c, 0, 64, 66
2, 129548, Control_c, 0, 64, 60
2, 129567, Control_c, 0, 64, 56
2, 129580, Note_on_c, 0, 68, 78
2, 129587, Control_c, 0, 64, 55
2, 129607, Control_c, 0, 64, 53
2, 129624, Control_c, 0, 64, 51
2, 129645, Control_c, 0, 64, 46
2, 129664, Control_c, 0, 64, 36
2, 129683, Control_c, 0, 64, 23
2, 129700, Control_c, 0, 64, 0
2, 129962, Note_on_c, 0, 68, 0
2, 129976, Note_on_c, 0, 66, 59
2, 130316, Control_c, 0, 64, 13
2, 130334, Control_c, 0, 64, 19
2, 130353, Control_c, 0, 64, 24
2, 130373, Control_c, 0, 64, 29
2, 130391, Control_c, 0, 64, 33
2, 130408, Control_c, 0, 64, 38
2, 130429, Control_c, 0, 64, 41
2, 130450, Control_c, 0, 64, 44
2, 130470, Control_c, 0, 64, 47
2, 130487, Control_c, 0, 64, 50
2, 130507, Control_c, 0, 64, 53
2, 130524, Control_c, 0, 64, 56
2, 130543, Control_c, 0, 64, 58
2, 130562, Control_c, 0, 64, 60
2, 130582, Control_c, 0, 64, 61
2, 130604, Control_c, 0, 64, 63
2, 130619, Control_c, 0, 64, 64
2, 130642, Control_c, 0, 64, 67
2, 130660, Control_c, 0, 64, 71
2, 130680, Control_c, 0, 64, 80
2, 130698, Control_c, 0, 64, 92
2, 130718, Control_c, 0, 64, 110
2, 130740, Control_c, 0, 64, 127
2, 130985, Note_on_c, 0, 58, 0
2, 130990, Note_on_c, 0, 51, 0
2, 130990, Note_on_c, 0, 54, 0
2, 131322, Note_on_c, 0, 51, 50
2, 131386, Note_on_c, 0, 54, 56
2, 131449, Control_c, 0, 64, 102
2, 131449, Note_on_c, 0, 58, 61
2, 131449, Note_on_c, 0, 63, 0
2, 131469, Control_c, 0, 64, 83
2, 131473, Note_on_c, 0, 66, 0
2, 131487, Control_c, 0, 64, 70
2, 131506, Control_c, 0, 64, 60
2, 131524, Control_c, 0, 64, 51
2, 131544, Control_c, 0, 64, 45
2, 131563, Control_c, 0, 64, 41
2, 131581, Control_c, 0, 64, 40
2, 131601, Control_c, 0, 64, 39
2, 131618, Control_c, 0, 64, 36
2, 131638, Control_c, 0, 64, 33
2, 131658, Control_c, 0, 64, 29
2, 131678, Control_c, 0, 64, 27
2, 131779, Note_on_c, 0, 63, 51
2, 131957, Note_on_c, 0, 63, 0
2, 132000, Note_on_c, 0, 65, 48
2, 132208, Note_on_c, 0, 66, 58
2, 132210, Note_on_c, 0, 65, 0
2, 132330, Control_c, 0, 64, 26
2, 132394, Note_on_c, 0, 66, 0
2, 132410, Control_c, 0, 64, 25
2, 132410, Note_on_c, 0, 68, 65
2, 132445, Control_c, 0, 64, 24
2, 132521, Control_c, 0, 64, 26
2, 132541, Control_c, 0, 64, 35
2, 132563, Control_c, 0, 64, 47
2, 132578, Control_c, 0, 64, 58
2, 132598, Control_c, 0, 64, 63
2, 132603, Note_on_c, 0, 70, 72
2, 132606, Note_on_c, 0, 68, 0
2, 132618, Control_c, 0, 64, 67
2, 132638, Control_c, 0, 64, 71
2, 132656, Control_c, 0, 64, 80
2, 132674, Note_on_c, 0, 70, 0
2, 132676, Control_c, 0, 64, 95
2, 132694, Control_c, 0, 64, 127
2, 132791, Note_on_c, 0, 72, 79
2, 132844, Note_on_c, 0, 51, 0
2, 132853, Note_on_c, 0, 54, 0
2, 132898, Note_on_c, 0, 58, 0
2, 132991, Note_on_c, 0, 51, 51
2, 132996, Note_on_c, 0, 72, 0
2, 132996, Note_on_c, 0, 74, 78
2, 133032, Note_on_c, 0, 54, 60
2, 133099, Control_c, 0, 64, 106
2, 133117, Control_c, 0, 64, 88
2, 133136, Control_c, 0, 64, 75
2, 133156, Control_c, 0, 64, 66
2, 133174, Control_c, 0, 64, 58
2, 133193, Control_c, 0, 64, 53
2, 133213, Control_c, 0, 64, 49
2, 133235, Control_c, 0, 64, 47
2, 133235, Note_on_c, 0, 58, 69
2, 133244, Note_on_c, 0, 75, 81
2, 133248, Note_on_c, 0, 74, 0
2, 133253, Control_c, 0, 64, 46
2, 133271, Control_c, 0, 64, 45
2, 133291, Control_c, 0, 64, 43
2, 133310, Control_c, 0, 64, 40
2, 133328, Control_c, 0, 64, 38
2, 133348, Control_c, 0, 64, 37
2, 133437, Note_on_c, 0, 75, 0
2, 133483, Note_on_c, 0, 77, 85
2, 133597, Control_c, 0, 64, 36
2, 133695, Control_c, 0, 64, 35
2, 133699, Note_on_c, 0, 78, 90
2, 133732, Control_c, 0, 64, 34
2, 133732, Note_on_c, 0, 77, 0
2, 133789, Control_c, 0, 64, 33
2, 133909, Note_on_c, 0, 80, 90
2, 133923, Control_c, 0, 64, 32
2, 133947, Note_on_c, 0, 78, 0
2, 133964, Control_c, 0, 64, 31
2, 134096, Control_c, 0, 64, 30
2, 134155, Note_on_c, 0, 78, 95
2, 134172, Control_c, 0, 64, 29
2, 134204, Note_on_c, 0, 80, 0
2, 134251, Control_c, 0, 64, 28
2, 134389, Note_on_c, 0, 77, 92
2, 134400, Note_on_c, 0, 78, 0
2, 134664, Note_on_c, 0, 78, 94
2, 134703, Note_on_c, 0, 77, 0
2, 134961, Control_c, 0, 64, 36
2, 134981, Control_c, 0, 64, 49
2, 134981, Note_on_c, 0, 75, 98
2, 135002, Control_c, 0, 64, 61
2, 135008, Note_on_c, 0, 51, 0
2, 135008, Note_on_c, 0, 58, 0
2, 135019, Control_c, 0, 64, 67
2, 135024, Note_on_c, 0, 54, 0
2, 135033, Note_on_c, 0, 78, 0
2, 135038, Control_c, 0, 64, 75
2, 135057, Control_c, 0, 64, 87
2, 135075, Control_c, 0, 64, 127
2, 135093, Note_on_c, 0, 75, 0
2, 135247, Note_on_c, 0, 44, 75
2, 135258, Note_on_c, 0, 47, 63
2, 135300, Note_on_c, 0, 52, 81
2, 135334, Note_on_c, 0, 56, 85
2, 135403, Note_on_c, 0, 64, 83
2, 135434, Note_on_c, 0, 68, 89
2, 135443, Control_c, 0, 64, 118
2, 135461, Control_c, 0, 64, 95
2, 135479, Control_c, 0, 64, 81
2, 135487, Note_on_c, 0, 71, 82
2, 135499, Control_c, 0, 64, 69
2, 135517, Control_c, 0, 64, 62
2, 135539, Control_c, 0, 64, 56
2, 135556, Control_c, 0, 64, 54
2, 135576, Control_c, 0, 64, 53
2, 135631, Control_c, 0, 64, 52
2, 135650, Control_c, 0, 64, 50
2, 135671, Control_c, 0, 64, 49
2, 135692, Control_c, 0, 64, 47
2, 135720, Note_on_c, 0, 76, 97
2, 135729, Control_c, 0, 64, 45
2, 135747, Control_c, 0, 64, 42
2, 135766, Control_c, 0, 64, 39
2, 135785, Control_c, 0, 64, 34
2, 135805, Control_c, 0, 64, 30
2, 135824, Control_c, 0, 64, 26
2, 135844, Control_c, 0, 64, 22
2, 135862, Control_c, 0, 64, 17
2, 135882, Control_c, 0, 64, 15
2, 135902, Control_c, 0, 64, 14
2, 135996, Control_c, 0, 64, 15
2, 136016, Control_c, 0, 64, 16
2, 136038, Control_c, 0, 64, 18
2, 136058, Control_c, 0, 64, 20
2, 136074, Control_c, 0, 64, 21
2, 136093, Control_c, 0, 64, 22
2, 136112, Control_c, 0, 64, 23
2, 136133, Control_c, 0, 64, 24
2, 136150, Control_c, 0, 64, 25
2, 136169, Control_c, 0, 64, 26
2, 136226, Control_c, 0, 64, 27
2, 136305, Control_c, 0, 64, 28
2, 136343, Control_c, 0, 64, 29
2, 136400, Control_c, 0, 64, 30
2, 136457, Control_c, 0, 64, 31
2, 136477, Control_c, 0, 64, 32
2, 136515, Control_c, 0, 64, 33
2, 136537, Control_c, 0, 64, 34
2, 136573, Control_c, 0, 64, 35
2, 136611, Control_c, 0, 64, 36
2, 136651, Control_c, 0, 64, 37
2, 136669, Control_c, 0, 64, 39
2, 136687, Control_c, 0, 64, 41
2, 136709, Control_c, 0, 64, 43
2, 136726, Control_c, 0, 64, 45
2, 136746, Control_c, 0, 64, 48
2, 136769, Control_c, 0, 64, 51
2, 136786, Control_c, 0, 64, 54
2, 136804, Control_c, 0, 64, 56
2, 136823, Control_c, 0, 64, 57
2, 136841, Control_c, 0, 64, 59
2, 136860, Control_c, 0, 64, 60
2, 136883, Control_c, 0, 64, 62
2, 136899, Control_c, 0, 64, 64
2, 136920, Control_c, 0, 64, 65
2, 136938, Control_c, 0, 64, 69
2, 136956, Control_c, 0, 64, 74
2, 136975, Control_c, 0, 64, 80
2, 136984, Note_on_c, 0, 64, 0
2, 136995, Control_c, 0, 64, 87
2, 137014, Control_c, 0, 64, 94
2, 137034, Control_c, 0, 64, 97
2, 137046, Note_on_c, 0, 68, 0
2, 137053, Control_c, 0, 64, 99
2, 137071, Control_c, 0, 64, 101
2, 137085, Note_on_c, 0, 56, 0
2, 137103, Note_on_c, 0, 52, 0
2, 137109, Control_c, 0, 64, 102
2, 137153, Note_on_c, 0, 44, 0
2, 137166, Note_on_c, 0, 47, 0
2, 137183, Note_on_c, 0, 76, 0
2, 137226, Control_c, 0, 64, 101
2, 137262, Note_on_c, 0, 71, 0
2, 137266, Control_c, 0, 64, 100
2, 137283, Control_c, 0, 64, 98
2, 137303, Control_c, 0, 64, 95
2, 137325, Control_c, 0, 64, 91
2, 137342, Control_c, 0, 64, 86
2, 137361, Control_c, 0, 64, 81
2, 137378, Control_c, 0, 64, 76
2, 137398, Control_c, 0, 64, 70
2, 137420, Control_c, 0, 64, 65
2, 137436, Control_c, 0, 64, 61
2, 137456, Note_on_c, 0, 71, 92
2, 137460, Control_c, 0, 64, 59
2, 137476, Control_c, 0, 64, 58
2, 137494, Control_c, 0, 64, 56
2, 137516, Control_c, 0, 64, 54
2, 137533, Control_c, 0, 64, 52
2, 137552, Control_c, 0, 64, 49
2, 137572, Control_c, 0, 64, 45
2, 137590, Control_c, 0, 64, 42
2, 137610, Control_c, 0, 64, 40
2, 137629, Control_c, 0, 64, 37
2, 137650, Control_c, 0, 64, 34
2, 137659, Note_on_c, 0, 69, 83
2, 137668, Control_c, 0, 64, 29
2, 137685, Note_on_c, 0, 71, 0
2, 137687, Control_c, 0, 64, 24
2, 137705, Control_c, 0, 64, 17
2, 137725, Control_c, 0, 64, 0
2, 137834, Note_on_c, 0, 68, 90
2, 137852, Note_on_c, 0, 69, 0
2, 138436, Control_c, 0, 64, 23
2, 138457, Control_c, 0, 64, 33
2, 138475, Control_c, 0, 64, 40
2, 138492, Control_c, 0, 64, 45
2, 138513, Control_c, 0, 64, 50
2, 138531, Control_c, 0, 64, 54
2, 138551, Control_c, 0, 64, 56
2, 138569, Control_c, 0, 64, 57
2, 138589, Control_c, 0, 64, 59
2, 138607, Control_c, 0, 64, 60
2, 138627, Control_c, 0, 64, 61
2, 138646, Control_c, 0, 64, 62
2, 138667, Control_c, 0, 64, 63
2, 138683, Control_c, 0, 64, 65
2, 138706, Control_c, 0, 64, 66
2, 138724, Control_c, 0, 64, 68
2, 138744, Control_c, 0, 64, 71
2, 138760, Control_c, 0, 64, 75
2, 138780, Control_c, 0, 64, 79
2, 138800, Control_c, 0, 64, 84
2, 138820, Control_c, 0, 64, 90
2, 138837, Control_c, 0, 64, 96
2, 138859, Control_c, 0, 64, 102
2, 138878, Control_c, 0, 64, 106
2, 138896, Control_c, 0, 64, 111
2, 138915, Control_c, 0, 64, 127
2, 138976, Note_on_c, 0, 68, 0
2, 139426, Note_on_c, 0, 69, 82
2, 139473, Control_c, 0, 64, 106
2, 139491, Control_c, 0, 64, 95
2, 139511, Control_c, 0, 64, 86
2, 139531, Control_c, 0, 64, 78
2, 139549, Control_c, 0, 64, 70
2, 139567, Control_c, 0, 64, 64
2, 139588, Control_c, 0, 64, 60
2, 139606, Control_c, 0, 64, 57
2, 139626, Control_c, 0, 64, 55
2, 139631, Note_on_c, 0, 71, 86
2, 139647, Control_c, 0, 64, 53
2, 139647, Note_on_c, 0, 69, 0
2, 139663, Control_c, 0, 64, 50
2, 139682, Control_c, 0, 64, 46
2, 139702, Control_c, 0, 64, 42
2, 139722, Control_c, 0, 64, 38
2, 139741, Control_c, 0, 64, 36
2, 139764, Control_c, 0, 64, 34
2, 139779, Control_c, 0, 64, 33
2, 139798, Control_c, 0, 64, 31
2, 139819, Note_on_c, 0, 64, 87
2, 139819, Note_on_c, 0, 71, 0
2, 139823, Control_c, 0, 64, 27
2, 139839, Control_c, 0, 64, 25
2, 139857, Control_c, 0, 64, 23
2, 140240, Control_c, 0, 64, 24
2, 140278, Control_c, 0, 64, 25
2, 140316, Control_c, 0, 64, 26
2, 140396, Control_c, 0, 64, 27
2, 140490, Control_c, 0, 64, 28
2, 140625, Control_c, 0, 64, 29
2, 140701, Control_c, 0, 64, 30
2, 140778, Control_c, 0, 64, 31
2, 140816, Control_c, 0, 64, 32
2, 140836, Control_c, 0, 64, 33
2, 140856, Control_c, 0, 64, 34
2, 140873, Control_c, 0, 64, 35
2, 140931, Control_c, 0, 64, 36
2, 140949, Control_c, 0, 64, 37
2, 140989, Control_c, 0, 64, 38
2, 141047, Control_c, 0, 64, 39
2, 141105, Control_c, 0, 64, 40
2, 141146, Control_c, 0, 64, 41
2, 141161, Control_c, 0, 64, 42
2, 141199, Control_c, 0, 64, 43
2, 141220, Control_c, 0, 64, 44
2, 141238, Control_c, 0, 64, 45
2, 141258, Control_c, 0, 64, 47
2, 141276, Control_c, 0, 64, 48
2, 141297, Control_c, 0, 64, 49
2, 141314, Control_c, 0, 64, 50
2, 141335, Control_c, 0, 64, 51
2, 141356, Control_c, 0, 64, 52
2, 141372, Control_c, 0, 64, 53
2, 141392, Control_c, 0, 64, 54
2, 141397, Note_on_c, 0, 66, 66
2, 141411, Control_c, 0, 64, 55
2, 141420, Note_on_c, 0, 64, 0
2, 141431, Control_c, 0, 64, 57
2, 141451, Control_c, 0, 64, 58
2, 141469, Control_c, 0, 64, 59
2, 141488, Control_c, 0, 64, 60
2, 141508, Control_c, 0, 64, 61
2, 141525, Control_c, 0, 64, 63
2, 141547, Control_c, 0, 64, 65
2, 141566, Control_c, 0, 64, 68
2, 141584, Control_c, 0, 64, 74
2, 141604, Control_c, 0, 64, 86
2, 141611, Note_on_c, 0, 68, 83
2, 141626, Control_c, 0, 64, 111
2, 141630, Note_on_c, 0, 66, 0
2, 141642, Control_c, 0, 64, 127
2, 141669, Note_on_c, 0, 68, 0
2, 141930, Control_c, 0, 64, 98
2, 141948, Control_c, 0, 64, 83
2, 141955, Note_on_c, 0, 62, 72
2, 141971, Control_c, 0, 64, 71
2, 141982, Note_on_c, 0, 53, 47
2, 141986, Note_on_c, 0, 58, 57
2, 141990, Control_c, 0, 64, 64
2, 141990, Note_on_c, 0, 44, 51
2, 142006, Control_c, 0, 64, 60
2, 142025, Control_c, 0, 64, 59
2, 142045, Control_c, 0, 64, 58
2, 142067, Control_c, 0, 64, 56
2, 142084, Control_c, 0, 64, 54
2, 142103, Control_c, 0, 64, 51
2, 142121, Control_c, 0, 64, 47
2, 142141, Control_c, 0, 64, 44
2, 142160, Control_c, 0, 64, 43
2, 142180, Control_c, 0, 64, 42
2, 142216, Control_c, 0, 64, 41
2, 142255, Control_c, 0, 64, 40
2, 142428, Control_c, 0, 64, 41
2, 142448, Control_c, 0, 64, 42
2, 142467, Control_c, 0, 64, 43
2, 142486, Control_c, 0, 64, 45
2, 142507, Control_c, 0, 64, 47
2, 142525, Control_c, 0, 64, 49
2, 142544, Control_c, 0, 64, 51
2, 142564, Control_c, 0, 64, 53
2, 142583, Control_c, 0, 64, 54
2, 142603, Control_c, 0, 64, 55
2, 142621, Control_c, 0, 64, 57
2, 142660, Control_c, 0, 64, 58
2, 142678, Control_c, 0, 64, 59
2, 142698, Control_c, 0, 64, 60
2, 142716, Control_c, 0, 64, 61
2, 142737, Control_c, 0, 64, 62
2, 142755, Control_c, 0, 64, 63
2, 142775, Control_c, 0, 64, 64
2, 142793, Control_c, 0, 64, 65
2, 142813, Control_c, 0, 64, 67
2, 142832, Control_c, 0, 64, 70
2, 142851, Control_c, 0, 64, 76
2, 142871, Control_c, 0, 64, 83
2, 142892, Control_c, 0, 64, 94
2, 142909, Control_c, 0, 64, 106
2, 142929, Control_c, 0, 64, 127
2, 143022, Note_on_c, 0, 53, 0
2, 143124, Note_on_c, 0, 58, 0
2, 143129, Note_on_c, 0, 62, 0
2, 143175, Note_on_c, 0, 44, 0
2, 143503, Note_on_c, 0, 65, 81
2, 143600, Control_c, 0, 64, 109
2, 143618, Control_c, 0, 64, 85
2, 143639, Control_c, 0, 64, 73
2, 143658, Control_c, 0, 64, 66
2, 143677, Control_c, 0, 64, 61
2, 143695, Control_c, 0, 64, 57
2, 143703, Note_on_c, 0, 68, 91
2, 143717, Control_c, 0, 64, 55
2, 143734, Control_c, 0, 64, 53
2, 143754, Control_c, 0, 64, 51
2, 143772, Control_c, 0, 64, 48
2, 143785, Note_on_c, 0, 65, 0
2, 143791, Control_c, 0, 64, 44
2, 143812, Control_c, 0, 64, 39
2, 143830, Control_c, 0, 64, 33
2, 143848, Control_c, 0, 64, 28
2, 143869, Control_c, 0, 64, 22
2, 143888, Control_c, 0, 64, 12
2, 143910, Control_c, 0, 64, 0
2, 143939, Note_on_c, 0, 71, 85
2, 144023, Note_on_c, 0, 68, 0
2, 144542, Control_c, 0, 64, 11
2, 144560, Control_c, 0, 64, 13
2, 144599, Control_c, 0, 64, 14
2, 145175, Control_c, 0, 64, 15
2, 145224, Note_on_c, 0, 70, 74
2, 145231, Note_on_c, 0, 71, 0
2, 145387, Control_c, 0, 64, 16
2, 145430, Note_on_c, 0, 68, 87
2, 145439, Note_on_c, 0, 70, 0
2, 145462, Control_c, 0, 64, 17
2, 145539, Control_c, 0, 64, 18
2, 145577, Control_c, 0, 64, 20
2, 145595, Control_c, 0, 64, 22
2, 145615, Control_c, 0, 64, 23
2, 145634, Control_c, 0, 64, 25
2, 145672, Control_c, 0, 64, 26
2, 145717, Note_on_c, 0, 77, 74
2, 145725, Note_on_c, 0, 68, 0
2, 145752, Control_c, 0, 64, 27
2, 145944, Control_c, 0, 64, 26
2, 145962, Control_c, 0, 64, 25
2, 145980, Control_c, 0, 64, 21
2, 145999, Control_c, 0, 64, 15
2, 146019, Control_c, 0, 64, 0
2, 146966, Note_on_c, 0, 75, 81
2, 146996, Note_on_c, 0, 77, 0
2, 147205, Note_on_c, 0, 74, 86
2, 147239, Note_on_c, 0, 75, 0
2, 147480, Note_on_c, 0, 83, 82
2, 147500, Note_on_c, 0, 74, 0
2, 148085, Note_on_c, 0, 81, 82
2, 148165, Note_on_c, 0, 83, 0
2, 148400, Control_c, 0, 64, 20
2, 148418, Control_c, 0, 64, 37
2, 148439, Control_c, 0, 64, 51
2, 148459, Control_c, 0, 64, 59
2, 148477, Control_c, 0, 64, 62
2, 148497, Control_c, 0, 64, 63
2, 148514, Control_c, 0, 64, 65
2, 148534, Control_c, 0, 64, 67
2, 148555, Control_c, 0, 64, 71
2, 148573, Control_c, 0, 64, 76
2, 148591, Control_c, 0, 64, 83
2, 148611, Control_c, 0, 64, 90
2, 148630, Control_c, 0, 64, 101
2, 148650, Control_c, 0, 64, 122
2, 148668, Control_c, 0, 64, 127
2, 148940, Control_c, 0, 64, 103
2, 148956, Control_c, 0, 64, 94
2, 148976, Control_c, 0, 64, 89
2, 148996, Control_c, 0, 64, 85
2, 149014, Control_c, 0, 64, 83
2, 149034, Control_c, 0, 64, 80
2, 149052, Control_c, 0, 64, 76
2, 149072, Control_c, 0, 64, 70
2, 149090, Control_c, 0, 64, 65
2, 149109, Control_c, 0, 64, 61
2, 149131, Control_c, 0, 64, 58
2, 149149, Control_c, 0, 64, 57
2, 149153, Note_on_c, 0, 82, 81
2, 149170, Control_c, 0, 64, 56
2, 149179, Note_on_c, 0, 81, 0
2, 149187, Control_c, 0, 64, 54
2, 149206, Control_c, 0, 64, 51
2, 149225, Control_c, 0, 64, 46
2, 149243, Control_c, 0, 64, 39
2, 149263, Control_c, 0, 64, 30
2, 149283, Control_c, 0, 64, 25
2, 149302, Control_c, 0, 64, 22
2, 149323, Control_c, 0, 64, 17
2, 149340, Control_c, 0, 64, 8
2, 149359, Control_c, 0, 64, 0
2, 149456, Control_c, 0, 64, 15
2, 149474, Control_c, 0, 64, 30
2, 149494, Control_c, 0, 64, 44
2, 149516, Control_c, 0, 64, 56
2, 149535, Control_c, 0, 64, 62
2, 149552, Control_c, 0, 64, 64
2, 149571, Control_c, 0, 64, 66
2, 149591, Control_c, 0, 64, 70
2, 149609, Control_c, 0, 64, 76
2, 149630, Control_c, 0, 64, 85
2, 149630, Note_on_c, 0, 82, 0
2, 149648, Control_c, 0, 64, 95
2, 149666, Control_c, 0, 64, 111
2, 149686, Control_c, 0, 64, 127
2, 149903, Note_on_c, 0, 75, 83
2, 150206, Note_on_c, 0, 70, 72
2, 150331, Note_on_c, 0, 66, 74
2, 150380, Note_on_c, 0, 70, 0
2, 150456, Note_on_c, 0, 58, 59
2, 150533, Note_on_c, 0, 58, 0
2, 150550, Note_on_c, 0, 54, 64
2, 150600, Note_on_c, 0, 66, 0
2, 150632, Note_on_c, 0, 54, 0
2, 150653, Note_on_c, 0, 51, 68
2, 150658, Note_on_c, 0, 75, 0
2, 150720, Note_on_c, 0, 51, 0
2, 150742, Note_on_c, 0, 46, 71
2, 150836, Note_on_c, 0, 51, 72
2, 150918, Note_on_c, 0, 54, 72
2, 151009, Note_on_c, 0, 58, 74
2, 151119, Note_on_c, 0, 66, 78
2, 151231, Note_on_c, 0, 70, 85
2, 151454, Note_on_c, 0, 75, 86
2, 151522, Note_on_c, 0, 70, 0
2, 151578, Note_on_c, 0, 46, 0
2, 151652, Note_on_c, 0, 58, 0
2, 151661, Control_c, 0, 64, 120
2, 151682, Control_c, 0, 64, 79
2, 151682, Note_on_c, 0, 51, 0
2, 151687, Note_on_c, 0, 54, 0
2, 151696, Note_on_c, 0, 46, 84
2, 151696, Note_on_c, 0, 66, 0
2, 151700, Control_c, 0, 64, 60
2, 151707, Note_on_c, 0, 75, 0
2, 151719, Control_c, 0, 64, 36
2, 151737, Control_c, 0, 64, 0
2, 151853, Control_c, 0, 64, 37
2, 151871, Control_c, 0, 64, 58
2, 151891, Control_c, 0, 64, 69
2, 151895, Note_on_c, 0, 53, 66
2, 151913, Control_c, 0, 64, 82
2, 151913, Note_on_c, 0, 46, 0
2, 151929, Control_c, 0, 64, 127
2, 151983, Note_on_c, 0, 56, 71
2, 152031, Note_on_c, 0, 58, 77
2, 152094, Note_on_c, 0, 65, 70
2, 152158, Note_on_c, 0, 70, 84
2, 152243, Note_on_c, 0, 74, 90
2, 152268, Note_on_c, 0, 65, 0
2, 152285, Note_on_c, 0, 70, 0
2, 152407, Note_on_c, 0, 74, 0
2, 152628, Note_on_c, 0, 75, 74
2, 152710, Note_on_c, 0, 75, 0
2, 152746, Note_on_c, 0, 74, 70
2, 152800, Note_on_c, 0, 74, 0
2, 152839, Note_on_c, 0, 75, 64
2, 152876, Note_on_c, 0, 75, 0
2, 152923, Note_on_c, 0, 74, 62
2, 152955, Note_on_c, 0, 74, 0
2, 152960, Note_on_c, 0, 75, 75
2, 153005, Note_on_c, 0, 75, 0
2, 153039, Note_on_c, 0, 74, 70
2, 153085, Note_on_c, 0, 74, 0
2, 153110, Note_on_c, 0, 75, 51
2, 153134, Note_on_c, 0, 75, 0
2, 153161, Note_on_c, 0, 74, 52
2, 153195, Note_on_c, 0, 74, 0
2, 153232, Note_on_c, 0, 75, 47
2, 153267, Note_on_c, 0, 75, 0
2, 153306, Note_on_c, 0, 74, 44
2, 153327, Note_on_c, 0, 75, 60
2, 153370, Note_on_c, 0, 75, 0
2, 153377, Note_on_c, 0, 74, 0
2, 153377, Note_on_c, 0, 74, 57
2, 153432, Note_on_c, 0, 74, 0
2, 153461, Note_on_c, 0, 72, 80
2, 153630, Note_on_c, 0, 74, 83
2, 153634, Note_on_c, 0, 56, 0
2, 153634, Note_on_c, 0, 72, 0
2, 153672, Note_on_c, 0, 58, 0
2, 153745, Note_on_c, 0, 53, 0
2, 153777, Note_on_c, 0, 75, 90
2, 153793, Note_on_c, 0, 74, 0
2, 153859, Note_on_c, 0, 75, 0
2, 154081, Control_c, 0, 64, 94
2, 154098, Control_c, 0, 64, 81
2, 154117, Control_c, 0, 64, 72
2, 154135, Note_on_c, 0, 75, 71
2, 154139, Control_c, 0, 64, 65
2, 154153, Note_on_c, 0, 63, 62
2, 154159, Control_c, 0, 64, 62
2, 154164, Note_on_c, 0, 59, 41
2, 154172, Note_on_c, 0, 47, 39
2, 154172, Note_on_c, 0, 70, 63
2, 154176, Control_c, 0, 64, 59
2, 154197, Control_c, 0, 64, 57
2, 154214, Control_c, 0, 64, 54
2, 154235, Control_c, 0, 64, 50
2, 154252, Control_c, 0, 64, 43
2, 154274, Control_c, 0, 64, 32
2, 154292, Control_c, 0, 64, 15
2, 154311, Control_c, 0, 64, 0
2, 154789, Control_c, 0, 64, 8
2, 154813, Control_c, 0, 64, 16
2, 154829, Control_c, 0, 64, 21
2, 154848, Control_c, 0, 64, 25
2, 154868, Control_c, 0, 64, 29
2, 154886, Control_c, 0, 64, 32
2, 154905, Control_c, 0, 64, 36
2, 154923, Control_c, 0, 64, 40
2, 154944, Control_c, 0, 64, 45
2, 154963, Control_c, 0, 64, 50
2, 154983, Control_c, 0, 64, 54
2, 155001, Control_c, 0, 64, 57
2, 155021, Control_c, 0, 64, 58
2, 155041, Control_c, 0, 64, 60
2, 155059, Control_c, 0, 64, 62
2, 155078, Control_c, 0, 64, 64
2, 155097, Control_c, 0, 64, 66
2, 155120, Control_c, 0, 64, 70
2, 155135, Control_c, 0, 64, 80
2, 155156, Control_c, 0, 64, 103
2, 155174, Control_c, 0, 64, 127
2, 155286, Note_on_c, 0, 63, 0
2, 155324, Note_on_c, 0, 59, 0
2, 155333, Note_on_c, 0, 47, 0
2, 155472, Note_on_c, 0, 68, 72
2, 155488, Note_on_c, 0, 70, 0
2, 155679, Note_on_c, 0, 68, 0
2, 155683, Note_on_c, 0, 67, 79
2, 155864, Note_on_c, 0, 68, 85
2, 155907, Note_on_c, 0, 67, 0
2, 155984, Control_c, 0, 64, 104
2, 155999, Note_on_c, 0, 59, 53
2, 156004, Control_c, 0, 64, 94
2, 156021, Control_c, 0, 64, 83
2, 156041, Control_c, 0, 64, 74
2, 156056, Note_on_c, 0, 63, 53
2, 156060, Control_c, 0, 64, 67
2, 156079, Control_c, 0, 64, 63
2, 156098, Control_c, 0, 64, 60
2, 156118, Control_c, 0, 64, 57
2, 156140, Control_c, 0, 64, 54
2, 156155, Control_c, 0, 64, 50
2, 156174, Control_c, 0, 64, 46
2, 156178, Note_on_c, 0, 70, 74
2, 156192, Note_on_c, 0, 68, 0
2, 156196, Control_c, 0, 64, 42
2, 156213, Control_c, 0, 64, 38
2, 156233, Control_c, 0, 64, 35
2, 156257, Control_c, 0, 64, 32
2, 156277, Control_c, 0, 64, 31
2, 156292, Control_c, 0, 64, 30
2, 156368, Control_c, 0, 64, 34
2, 156389, Control_c, 0, 64, 40
2, 156405, Note_on_c, 0, 70, 0
2, 156410, Control_c, 0, 64, 48
2, 156414, Note_on_c, 0, 68, 72
2, 156430, Control_c, 0, 64, 56
2, 156445, Control_c, 0, 64, 60
2, 156465, Control_c, 0, 64, 61
2, 156485, Control_c, 0, 64, 62
2, 156505, Control_c, 0, 64, 63
2, 156519, Note_on_c, 0, 68, 0
2, 156544, Control_c, 0, 64, 64
2, 156544, Note_on_c, 0, 70, 67
2, 156562, Control_c, 0, 64, 65
2, 156582, Control_c, 0, 64, 66
2, 156599, Control_c, 0, 64, 67
2, 156611, Note_on_c, 0, 70, 0
2, 156646, Note_on_c, 0, 68, 71
2, 156676, Control_c, 0, 64, 68
2, 156698, Control_c, 0, 64, 70
2, 156698, Note_on_c, 0, 68, 0
2, 156717, Control_c, 0, 64, 72
2, 156734, Control_c, 0, 64, 76
2, 156740, Note_on_c, 0, 70, 69
2, 156754, Control_c, 0, 64, 81
2, 156774, Control_c, 0, 64, 87
2, 156779, Note_on_c, 0, 70, 0
2, 156796, Control_c, 0, 64, 93
2, 156812, Control_c, 0, 64, 102
2, 156816, Note_on_c, 0, 68, 67
2, 156828, Note_on_c, 0, 59, 0
2, 156830, Control_c, 0, 64, 116
2, 156849, Control_c, 0, 64, 127
2, 156861, Note_on_c, 0, 63, 0
2, 156873, Note_on_c, 0, 68, 0
2, 156878, Note_on_c, 0, 70, 57
2, 156885, Note_on_c, 0, 75, 0
2, 156885, Note_on_c, 0, 75, 8
2, 156918, Note_on_c, 0, 70, 0
2, 156954, Note_on_c, 0, 68, 54
2, 156995, Note_on_c, 0, 68, 0
2, 157000, Note_on_c, 0, 70, 66
2, 157042, Note_on_c, 0, 70, 0
2, 157090, Note_on_c, 0, 68, 70
2, 157138, Note_on_c, 0, 68, 0
2, 157147, Note_on_c, 0, 70, 67
2, 157181, Note_on_c, 0, 70, 0
2, 157221, Note_on_c, 0, 68, 72
2, 157272, Note_on_c, 0, 68, 0
2, 157272, Note_on_c, 0, 70, 64
2, 157296, Note_on_c, 0, 75, 0
2, 157296, Note_on_c, 0, 75, 21
2, 157325, Note_on_c, 0, 70, 0
2, 157381, Note_on_c, 0, 68, 59
2, 157381, Note_on_c, 0, 75, 0
2, 157389, Note_on_c, 0, 59, 49
2, 157406, Note_on_c, 0, 68, 0
2, 157411, Note_on_c, 0, 70, 67
2, 157424, Note_on_c, 0, 63, 65
2, 157454, Note_on_c, 0, 70, 0
2, 157493, Note_on_c, 0, 68, 70
2, 157544, Control_c, 0, 64, 120
2, 157544, Note_on_c, 0, 68, 0
2, 157546, Note_on_c, 0, 70, 69
2, 157555, Note_on_c, 0, 75, 22
2, 157560, Control_c, 0, 64, 107
2, 157579, Control_c, 0, 64, 100
2, 157594, Note_on_c, 0, 70, 0
2, 157598, Control_c, 0, 64, 96
2, 157617, Control_c, 0, 64, 95
2, 157638, Control_c, 0, 64, 94
2, 157642, Note_on_c, 0, 68, 60
2, 157656, Control_c, 0, 64, 93
2, 157675, Control_c, 0, 64, 92
2, 157675, Note_on_c, 0, 70, 72
2, 157680, Note_on_c, 0, 68, 0
2, 157693, Control_c, 0, 64, 91
2, 157707, Note_on_c, 0, 75, 0
2, 157707, Note_on_c, 0, 75, 9
2, 157714, Control_c, 0, 64, 90
2, 157723, Note_on_c, 0, 70, 0
2, 157733, Control_c, 0, 64, 89
2, 157750, Control_c, 0, 64, 88
2, 157780, Note_on_c, 0, 68, 64
2, 157814, Note_on_c, 0, 68, 0
2, 157827, Control_c, 0, 64, 87
2, 157836, Note_on_c, 0, 70, 68
2, 157858, Note_on_c, 0, 70, 0
2, 157866, Control_c, 0, 64, 86
2, 157889, Control_c, 0, 64, 85
2, 157904, Control_c, 0, 64, 83
2, 157909, Note_on_c, 0, 68, 66
2, 157923, Control_c, 0, 64, 82
2, 157946, Note_on_c, 0, 70, 73
2, 157955, Note_on_c, 0, 68, 0
2, 158003, Control_c, 0, 64, 81
2, 158008, Note_on_c, 0, 70, 0
2, 158053, Note_on_c, 0, 68, 59
2, 158084, Note_on_c, 0, 68, 0
2, 158084, Note_on_c, 0, 75, 0
2, 158096, Note_on_c, 0, 70, 71
2, 158116, Note_on_c, 0, 75, 10
2, 158143, Note_on_c, 0, 70, 0
2, 158178, Note_on_c, 0, 68, 67
2, 158213, Control_c, 0, 64, 80
2, 158231, Note_on_c, 0, 68, 0
2, 158233, Control_c, 0, 64, 79
2, 158243, Note_on_c, 0, 70, 71
2, 158248, Note_on_c, 0, 75, 0
2, 158248, Note_on_c, 0, 75, 14
2, 158252, Control_c, 0, 64, 78
2, 158269, Control_c, 0, 64, 76
2, 158276, Note_on_c, 0, 70, 0
2, 158289, Control_c, 0, 64, 74
2, 158311, Control_c, 0, 64, 70
2, 158311, Note_on_c, 0, 75, 0
2, 158328, Control_c, 0, 64, 67
2, 158337, Note_on_c, 0, 68, 60
2, 158346, Control_c, 0, 64, 64
2, 158366, Control_c, 0, 64, 62
2, 158376, Note_on_c, 0, 68, 0
2, 158387, Control_c, 0, 64, 61
2, 158387, Note_on_c, 0, 70, 57
2, 158420, Note_on_c, 0, 70, 0
2, 158426, Control_c, 0, 64, 60
2, 158426, Note_on_c, 0, 75, 16
2, 158444, Control_c, 0, 64, 58
2, 158463, Control_c, 0, 64, 55
2, 158474, Note_on_c, 0, 68, 59
2, 158483, Control_c, 0, 64, 52
2, 158502, Control_c, 0, 64, 50
2, 158507, Note_on_c, 0, 68, 0
2, 158511, Note_on_c, 0, 70, 58
2, 158519, Control_c, 0, 64, 49
2, 158587, Note_on_c, 0, 70, 0
2, 158617, Note_on_c, 0, 68, 58
2, 158622, Control_c, 0, 64, 50
2, 158636, Control_c, 0, 64, 54
2, 158654, Control_c, 0, 64, 59
2, 158661, Note_on_c, 0, 68, 0
2, 158674, Control_c, 0, 64, 62
2, 158693, Control_c, 0, 64, 64
2, 158704, Note_on_c, 0, 67, 59
2, 158712, Control_c, 0, 64, 66
2, 158733, Control_c, 0, 64, 68
2, 158733, Note_on_c, 0, 59, 0
2, 158751, Control_c, 0, 64, 72
2, 158770, Control_c, 0, 64, 79
2, 158789, Control_c, 0, 64, 86
2, 158802, Note_on_c, 0, 63, 0
2, 158808, Control_c, 0, 64, 94
2, 158828, Control_c, 0, 64, 98
2, 158860, Note_on_c, 0, 67, 0
2, 158864, Note_on_c, 0, 68, 77
2, 158886, Control_c, 0, 64, 96
2, 158899, Note_on_c, 0, 55, 46
2, 158905, Control_c, 0, 64, 93
2, 158923, Control_c, 0, 64, 89
2, 158942, Control_c, 0, 64, 82
2, 158965, Control_c, 0, 64, 74
2, 158979, Note_on_c, 0, 58, 47
2, 158981, Control_c, 0, 64, 67
2, 159000, Control_c, 0, 64, 62
2, 159020, Control_c, 0, 64, 59
2, 159038, Control_c, 0, 64, 58
2, 159076, Control_c, 0, 64, 56
2, 159096, Control_c, 0, 64, 54
2, 159116, Control_c, 0, 64, 50
2, 159134, Control_c, 0, 64, 47
2, 159145, Note_on_c, 0, 68, 0
2, 159149, Note_on_c, 0, 70, 65
2, 159154, Control_c, 0, 64, 44
2, 159173, Control_c, 0, 64, 40
2, 159188, Note_on_c, 0, 63, 47
2, 159193, Control_c, 0, 64, 36
2, 159210, Control_c, 0, 64, 29
2, 159228, Control_c, 0, 64, 16
2, 159248, Control_c, 0, 64, 0
2, 159575, Control_c, 0, 64, 14
2, 159595, Control_c, 0, 64, 35
2, 159614, Control_c, 0, 64, 47
2, 159634, Control_c, 0, 64, 56
2, 159653, Control_c, 0, 64, 60
2, 159671, Control_c, 0, 64, 61
2, 159689, Control_c, 0, 64, 62
2, 159710, Control_c, 0, 64, 63
2, 159729, Control_c, 0, 64, 65
2, 159748, Control_c, 0, 64, 68
2, 159770, Control_c, 0, 64, 74
2, 159787, Control_c, 0, 64, 85
2, 159807, Control_c, 0, 64, 102
2, 159826, Control_c, 0, 64, 127
2, 160116, Note_on_c, 0, 55, 0
2, 160267, Note_on_c, 0, 63, 0
2, 160317, Note_on_c, 0, 58, 0
2, 160860, Note_on_c, 0, 55, 36
2, 160900, Note_on_c, 0, 58, 47
2, 160980, Note_on_c, 0, 63, 49
2, 161700, Note_on_c, 0, 63, 0
2, 161735, Note_on_c, 0, 55, 0
2, 161774, Note_on_c, 0, 75, 0
2, 161903, Note_on_c, 0, 58, 0
2, 162176, Note_on_c, 0, 70, 0
2, 162202, Note_on_c, 0, 75, 55
2, 162402, Note_on_c, 0, 73, 69
2, 162477, Note_on_c, 0, 75, 0
2, 162585, Note_on_c, 0, 71, 69
2, 162622, Note_on_c, 0, 73, 0
2, 162633, Note_on_c, 0, 55, 43
2, 162726, Note_on_c, 0, 58, 47
2, 162744, Control_c, 0, 64, 122
2, 162762, Control_c, 0, 64, 94
2, 162785, Control_c, 0, 64, 80
2, 162801, Control_c, 0, 64, 70
2, 162821, Control_c, 0, 64, 63
2, 162839, Control_c, 0, 64, 58
2, 162845, Note_on_c, 0, 73, 65
2, 162850, Note_on_c, 0, 71, 0
2, 162859, Control_c, 0, 64, 55
2, 162876, Note_on_c, 0, 63, 42
2, 162878, Control_c, 0, 64, 52
2, 162899, Control_c, 0, 64, 49
2, 162919, Control_c, 0, 64, 44
2, 162934, Control_c, 0, 64, 37
2, 162954, Control_c, 0, 64, 25
2, 162976, Control_c, 0, 64, 0
2, 163340, Control_c, 0, 64, 16
2, 163358, Control_c, 0, 64, 31
2, 163377, Control_c, 0, 64, 42
2, 163398, Control_c, 0, 64, 51
2, 163415, Control_c, 0, 64, 58
2, 163434, Control_c, 0, 64, 60
2, 163454, Control_c, 0, 64, 61
2, 163474, Control_c, 0, 64, 62
2, 163493, Control_c, 0, 64, 63
2, 163511, Control_c, 0, 64, 64
2, 163533, Control_c, 0, 64, 66
2, 163552, Control_c, 0, 64, 69
2, 163569, Control_c, 0, 64, 75
2, 163588, Control_c, 0, 64, 85
2, 163608, Control_c, 0, 64, 95
2, 163626, Control_c, 0, 64, 109
2, 163648, Control_c, 0, 64, 127
2, 163906, Note_on_c, 0, 58, 0
2, 163980, Note_on_c, 0, 63, 0
2, 164219, Note_on_c, 0, 70, 76
2, 164251, Note_on_c, 0, 73, 0
2, 164318, Note_on_c, 0, 55, 0
2, 164409, Note_on_c, 0, 56, 48
2, 164458, Note_on_c, 0, 59, 57
2, 164521, Note_on_c, 0, 70, 0
2, 164547, Note_on_c, 0, 63, 64
2, 164602, Note_on_c, 0, 68, 74
2, 164606, Control_c, 0, 64, 108
2, 164629, Control_c, 0, 64, 93
2, 164646, Control_c, 0, 64, 80
2, 164662, Control_c, 0, 64, 70
2, 164675, Note_on_c, 0, 70, 80
2, 164682, Control_c, 0, 64, 62
2, 164704, Control_c, 0, 64, 56
2, 164721, Control_c, 0, 64, 53
2, 164739, Control_c, 0, 64, 49
2, 164760, Control_c, 0, 64, 45
2, 164777, Control_c, 0, 64, 39
2, 164797, Control_c, 0, 64, 32
2, 164815, Control_c, 0, 64, 20
2, 164838, Control_c, 0, 64, 11
2, 164858, Control_c, 0, 64, 0
2, 165195, Note_on_c, 0, 71, 65
2, 165239, Note_on_c, 0, 70, 0
2, 165491, Control_c, 0, 64, 8
2, 165511, Control_c, 0, 64, 11
2, 165529, Control_c, 0, 64, 12
2, 165546, Control_c, 0, 64, 13
2, 165568, Control_c, 0, 64, 15
2, 165586, Control_c, 0, 64, 16
2, 165606, Control_c, 0, 64, 18
2, 165623, Control_c, 0, 64, 21
2, 165642, Control_c, 0, 64, 25
2, 165662, Control_c, 0, 64, 28
2, 165682, Control_c, 0, 64, 30
2, 165701, Control_c, 0, 64, 32
2, 165719, Control_c, 0, 64, 35
2, 165741, Control_c, 0, 64, 37
2, 165759, Control_c, 0, 64, 39
2, 165779, Control_c, 0, 64, 40
2, 165799, Control_c, 0, 64, 42
2, 165873, Control_c, 0, 64, 43
2, 165988, Control_c, 0, 64, 44
2, 166334, Control_c, 0, 64, 45
2, 166634, Note_on_c, 0, 52, 62
2, 166795, Control_c, 0, 64, 46
2, 166891, Control_c, 0, 64, 47
2, 166911, Control_c, 0, 64, 48
2, 166929, Control_c, 0, 64, 49
2, 166948, Control_c, 0, 64, 50
2, 166967, Control_c, 0, 64, 51
2, 166987, Control_c, 0, 64, 52
2, 167005, Control_c, 0, 64, 53
2, 167026, Control_c, 0, 64, 54
2, 167063, Control_c, 0, 64, 55
2, 167102, Control_c, 0, 64, 56
2, 167141, Control_c, 0, 64, 57
2, 167159, Control_c, 0, 64, 58
2, 167179, Control_c, 0, 64, 59
2, 167217, Control_c, 0, 64, 60
2, 167237, Control_c, 0, 64, 61
2, 167256, Control_c, 0, 64, 62
2, 167276, Control_c, 0, 64, 63
2, 167292, Note_on_c, 0, 59, 0
2, 167296, Control_c, 0, 64, 65
2, 167313, Control_c, 0, 64, 68
2, 167332, Control_c, 0, 64, 72
2, 167351, Control_c, 0, 64, 80
2, 167373, Control_c, 0, 64, 90
2, 167392, Control_c, 0, 64, 102
2, 167410, Control_c, 0, 64, 127
2, 167513, Note_on_c, 0, 56, 0
2, 167563, Note_on_c, 0, 71, 0
2, 167624, Note_on_c, 0, 63, 0
2, 167738, Note_on_c, 0, 68, 0
2, 168082, Note_on_c, 0, 71, 51
2, 168089, Note_on_c, 0, 63, 54
2, 168130, Note_on_c, 0, 71, 0
2, 168173, Note_on_c, 0, 63, 0
2, 168293, Note_on_c, 0, 70, 61
2, 168302, Note_on_c, 0, 61, 56
2, 168367, Note_on_c, 0, 70, 0
2, 168376, Note_on_c, 0, 61, 0
2, 168418, Note_on_c, 0, 52, 0
2, 168496, Note_on_c, 0, 59, 62
2, 168500, Note_on_c, 0, 68, 68
2, 168556, Note_on_c, 0, 59, 0
2, 168657, Control_c, 0, 64, 105
2, 168675, Control_c, 0, 64, 92
2, 168696, Control_c, 0, 64, 83
2, 168715, Control_c, 0, 64, 74
2, 168734, Control_c, 0, 64, 66
2, 168754, Note_on_c, 0, 52, 40
2, 168754, Note_on_c, 0, 61, 44
2, 168758, Control_c, 0, 64, 60
2, 168758, Note_on_c, 0, 70, 53
2, 168762, Note_on_c, 0, 68, 0
2, 168773, Control_c, 0, 64, 56
2, 168791, Control_c, 0, 64, 54
2, 168814, Control_c, 0, 64, 51
2, 168830, Control_c, 0, 64, 46
2, 168848, Control_c, 0, 64, 38
2, 168870, Control_c, 0, 64, 21
2, 168888, Control_c, 0, 64, 0
2, 169407, Control_c, 0, 64, 23
2, 169425, Control_c, 0, 64, 37
2, 169445, Control_c, 0, 64, 46
2, 169467, Control_c, 0, 64, 53
2, 169483, Control_c, 0, 64, 58
2, 169501, Control_c, 0, 64, 60
2, 169521, Control_c, 0, 64, 61
2, 169542, Control_c, 0, 64, 62
2, 169560, Control_c, 0, 64, 63
2, 169580, Control_c, 0, 64, 65
2, 169601, Control_c, 0, 64, 68
2, 169617, Control_c, 0, 64, 72
2, 169635, Control_c, 0, 64, 81
2, 169657, Control_c, 0, 64, 92
2, 169675, Control_c, 0, 64, 109
2, 169695, Control_c, 0, 64, 127
2, 169932, Note_on_c, 0, 61, 0
2, 169969, Note_on_c, 0, 70, 0
2, 170233, Note_on_c, 0, 58, 50
2, 170233, Note_on_c, 0, 67, 53
2, 170348, Note_on_c, 0, 58, 0
2, 170495, Note_on_c, 0, 53, 40
2, 170503, Note_on_c, 0, 52, 0
2, 170623, Note_on_c, 0, 59, 49
2, 170636, Control_c, 0, 64, 93
2, 170653, Control_c, 0, 64, 78
2, 170673, Control_c, 0, 64, 67
2, 170693, Control_c, 0, 64, 61
2, 170711, Control_c, 0, 64, 56
2, 170730, Control_c, 0, 64, 53
2, 170750, Control_c, 0, 64, 49
2, 170761, Note_on_c, 0, 62, 50
2, 170772, Control_c, 0, 64, 46
2, 170788, Control_c, 0, 64, 42
2, 170810, Control_c, 0, 64, 37
2, 170826, Control_c, 0, 64, 32
2, 170848, Control_c, 0, 64, 27
2, 170865, Control_c, 0, 64, 23
2, 170885, Control_c, 0, 64, 20
2, 170904, Control_c, 0, 64, 18
2, 170923, Control_c, 0, 64, 16
2, 170941, Control_c, 0, 64, 14
2, 170960, Control_c, 0, 64, 13
2, 171018, Control_c, 0, 64, 12
2, 171152, Control_c, 0, 64, 11
2, 171192, Control_c, 0, 64, 10
2, 171214, Control_c, 0, 64, 8
2, 171218, Note_on_c, 0, 68, 55
2, 171229, Control_c, 0, 64, 0
2, 171259, Note_on_c, 0, 67, 0
2, 171672, Control_c, 0, 64, 13
2, 171689, Control_c, 0, 64, 19
2, 171710, Control_c, 0, 64, 21
2, 171728, Control_c, 0, 64, 23
2, 171749, Control_c, 0, 64, 24
2, 171766, Control_c, 0, 64, 27
2, 171788, Control_c, 0, 64, 30
2, 171805, Control_c, 0, 64, 34
2, 171824, Control_c, 0, 64, 37
2, 171843, Control_c, 0, 64, 39
2, 171862, Control_c, 0, 64, 40
2, 171884, Control_c, 0, 64, 41
2, 171902, Control_c, 0, 64, 43
2, 171922, Control_c, 0, 64, 45
2, 171942, Control_c, 0, 64, 48
2, 171960, Control_c, 0, 64, 52
2, 171979, Control_c, 0, 64, 56
2, 171998, Control_c, 0, 64, 57
2, 172018, Control_c, 0, 64, 58
2, 172038, Control_c, 0, 64, 59
2, 172055, Control_c, 0, 64, 61
2, 172076, Control_c, 0, 64, 62
2, 172093, Control_c, 0, 64, 64
2, 172114, Control_c, 0, 64, 67
2, 172132, Control_c, 0, 64, 70
2, 172152, Control_c, 0, 64, 76
2, 172170, Control_c, 0, 64, 84
2, 172190, Control_c, 0, 64, 96
2, 172208, Control_c, 0, 64, 127
2, 172422, Note_on_c, 0, 62, 0
2, 172424, Note_on_c, 0, 59, 0
2, 172455, Note_on_c, 0, 68, 0
2, 172919, Note_on_c, 0, 59, 30
2, 172986, Note_on_c, 0, 62, 43
2, 173033, Note_on_c, 0, 68, 60
2, 173833, Note_on_c, 0, 53, 0
2, 174238, Note_on_c, 0, 54, 50
2, 174361, Note_on_c, 0, 62, 0
2, 174380, Note_on_c, 0, 59, 0
2, 174405, Note_on_c, 0, 68, 0
2, 174418, Note_on_c, 0, 54, 0
2, 174441, Note_on_c, 0, 53, 60
2, 174514, Control_c, 0, 64, 109
2, 174533, Control_c, 0, 64, 96
2, 174555, Control_c, 0, 64, 86
2, 174570, Control_c, 0, 64, 78
2, 174591, Control_c, 0, 64, 71
2, 174596, Note_on_c, 0, 53, 0
2, 174604, Note_on_c, 0, 51, 66
2, 174608, Control_c, 0, 64, 67
2, 174630, Control_c, 0, 64, 65
2, 174646, Control_c, 0, 64, 64
2, 174704, Control_c, 0, 64, 63
2, 174711, Note_on_c, 0, 59, 44
2, 174727, Control_c, 0, 64, 61
2, 174744, Control_c, 0, 64, 59
2, 174762, Control_c, 0, 64, 57
2, 174781, Control_c, 0, 64, 55
2, 174795, Note_on_c, 0, 62, 51
2, 174803, Control_c, 0, 64, 52
2, 174819, Control_c, 0, 64, 47
2, 174839, Control_c, 0, 64, 42
2, 174861, Control_c, 0, 64, 35
2, 174879, Control_c, 0, 64, 27
2, 174879, Note_on_c, 0, 53, 60
2, 174897, Note_on_c, 0, 68, 56
2, 174901, Control_c, 0, 64, 20
2, 174916, Note_on_c, 0, 51, 0
2, 174918, Control_c, 0, 64, 16
2, 174938, Control_c, 0, 64, 11
2, 174955, Control_c, 0, 64, 0
2, 175525, Note_on_c, 0, 53, 0
2, 175552, Note_on_c, 0, 54, 53
2, 175819, Note_on_c, 0, 54, 0
2, 175835, Note_on_c, 0, 56, 51
2, 176047, Note_on_c, 0, 56, 0
2, 176065, Note_on_c, 0, 53, 52
2, 176259, Note_on_c, 0, 53, 0
2, 176284, Note_on_c, 0, 54, 60
2, 176288, Note_on_c, 0, 59, 0
2, 176288, Note_on_c, 0, 68, 0
2, 176461, Note_on_c, 0, 56, 60
2, 176468, Note_on_c, 0, 54, 0
2, 176596, Note_on_c, 0, 59, 47
2, 176657, Note_on_c, 0, 65, 59
2, 176777, Note_on_c, 0, 50, 55
2, 176815, Note_on_c, 0, 56, 0
2, 176851, Note_on_c, 0, 62, 0
2, 176970, Note_on_c, 0, 68, 71
2, 177531, Control_c, 0, 64, 18
2, 177549, Control_c, 0, 64, 29
2, 177569, Control_c, 0, 64, 37
2, 177587, Control_c, 0, 64, 42
2, 177607, Control_c, 0, 64, 47
2, 177625, Control_c, 0, 64, 51
2, 177645, Control_c, 0, 64, 53
2, 177668, Control_c, 0, 64, 55
2, 177683, Control_c, 0, 64, 57
2, 177705, Control_c, 0, 64, 59
2, 177723, Control_c, 0, 64, 61
2, 177742, Control_c, 0, 64, 62
2, 177762, Control_c, 0, 64, 64
2, 177778, Control_c, 0, 64, 66
2, 177799, Control_c, 0, 64, 68
2, 177819, Control_c, 0, 64, 74
2, 177838, Control_c, 0, 64, 82
2, 177857, Control_c, 0, 64, 93
2, 177875, Control_c, 0, 64, 110
2, 177886, Note_on_c, 0, 59, 0
2, 177895, Control_c, 0, 64, 127
2, 177975, Note_on_c, 0, 68, 0
2, 178053, Note_on_c, 0, 65, 0
2, 178599, Note_on_c, 0, 59, 39
2, 178644, Note_on_c, 0, 65, 34
2, 178717, Note_on_c, 0, 68, 51
2, 179366, Note_on_c, 0, 50, 0
2, 179742, Note_on_c, 0, 51, 54
2, 179942, Note_on_c, 0, 51, 0
2, 179954, Note_on_c, 0, 50, 60
2, 179954, Note_on_c, 0, 59, 0
2, 179979, Note_on_c, 0, 65, 0
2, 179983, Note_on_c, 0, 68, 0
2, 180084, Control_c, 0, 64, 120
2, 180104, Control_c, 0, 64, 106
2, 180122, Control_c, 0, 64, 101
2, 180145, Control_c, 0, 64, 96
2, 180145, Note_on_c, 0, 48, 66
2, 180145, Note_on_c, 0, 50, 0
2, 180159, Control_c, 0, 64, 92
2, 180179, Control_c, 0, 64, 88
2, 180199, Control_c, 0, 64, 83
2, 180220, Control_c, 0, 64, 79
2, 180237, Control_c, 0, 64, 74
2, 180255, Control_c, 0, 64, 70
2, 180276, Control_c, 0, 64, 67
2, 180288, Note_on_c, 0, 59, 49
2, 180297, Control_c, 0, 64, 64
2, 180313, Control_c, 0, 64, 62
2, 180336, Control_c, 0, 64, 60
2, 180354, Control_c, 0, 64, 58
2, 180364, Note_on_c, 0, 65, 52
2, 180373, Control_c, 0, 64, 56
2, 180384, Note_on_c, 0, 50, 64
2, 180391, Control_c, 0, 64, 53
2, 180409, Control_c, 0, 64, 50
2, 180430, Control_c, 0, 64, 46
2, 180441, Note_on_c, 0, 48, 0
2, 180454, Control_c, 0, 64, 41
2, 180454, Note_on_c, 0, 68, 61
2, 180466, Control_c, 0, 64, 37
2, 180487, Control_c, 0, 64, 32
2, 180506, Control_c, 0, 64, 26
2, 180528, Control_c, 0, 64, 18
2, 180544, Control_c, 0, 64, 10
2, 180566, Control_c, 0, 64, 0
2, 181069, Note_on_c, 0, 51, 67
2, 181074, Note_on_c, 0, 50, 0
2, 181370, Note_on_c, 0, 53, 61
2, 181386, Note_on_c, 0, 51, 0
2, 181602, Note_on_c, 0, 50, 63
2, 181622, Note_on_c, 0, 53, 0
2, 181809, Note_on_c, 0, 51, 72
2, 181842, Note_on_c, 0, 50, 0
2, 181865, Note_on_c, 0, 65, 0
2, 181869, Note_on_c, 0, 68, 0
2, 182002, Note_on_c, 0, 53, 78
2, 182057, Note_on_c, 0, 51, 0
2, 182137, Note_on_c, 0, 62, 69
2, 182141, Note_on_c, 0, 59, 0
2, 182191, Note_on_c, 0, 65, 69
2, 182342, Note_on_c, 0, 47, 65
2, 182396, Note_on_c, 0, 53, 0
2, 182481, Note_on_c, 0, 68, 74
2, 182944, Control_c, 0, 64, 9
2, 182966, Control_c, 0, 64, 13
2, 182982, Control_c, 0, 64, 15
2, 183003, Control_c, 0, 64, 18
2, 183021, Control_c, 0, 64, 22
2, 183041, Control_c, 0, 64, 24
2, 183059, Control_c, 0, 64, 27
2, 183080, Control_c, 0, 64, 30
2, 183096, Control_c, 0, 64, 32
2, 183116, Control_c, 0, 64, 35
2, 183137, Control_c, 0, 64, 38
2, 183157, Control_c, 0, 64, 40
2, 183175, Control_c, 0, 64, 43
2, 183195, Control_c, 0, 64, 48
2, 183215, Control_c, 0, 64, 53
2, 183232, Control_c, 0, 64, 57
2, 183255, Control_c, 0, 64, 59
2, 183272, Control_c, 0, 64, 60
2, 183293, Control_c, 0, 64, 62
2, 183309, Control_c, 0, 64, 63
2, 183327, Control_c, 0, 64, 65
2, 183348, Control_c, 0, 64, 68
2, 183367, Control_c, 0, 64, 74
2, 183385, Control_c, 0, 64, 82
2, 183399, Note_on_c, 0, 62, 0
2, 183407, Control_c, 0, 64, 95
2, 183424, Control_c, 0, 64, 113
2, 183446, Control_c, 0, 64, 127
2, 183559, Note_on_c, 0, 65, 0
2, 183669, Note_on_c, 0, 68, 0
2, 184111, Note_on_c, 0, 62, 42
2, 184142, Note_on_c, 0, 65, 53
2, 184182, Note_on_c, 0, 68, 72
2, 184856, Note_on_c, 0, 47, 0
2, 185301, Note_on_c, 0, 49, 69
2, 185342, Control_c, 0, 64, 108
2, 185359, Control_c, 0, 64, 93
2, 185381, Control_c, 0, 64, 79
2, 185400, Control_c, 0, 64, 70
2, 185419, Control_c, 0, 64, 64
2, 185437, Control_c, 0, 64, 62
2, 185457, Control_c, 0, 64, 61
2, 185475, Control_c, 0, 64, 60
2, 185496, Control_c, 0, 64, 57
2, 185513, Control_c, 0, 64, 55
2, 185533, Control_c, 0, 64, 52
2, 185533, Note_on_c, 0, 47, 74
2, 185552, Control_c, 0, 64, 51
2, 185565, Note_on_c, 0, 49, 0
2, 185569, Control_c, 0, 64, 52
2, 185589, Control_c, 0, 64, 55
2, 185609, Control_c, 0, 64, 58
2, 185613, Note_on_c, 0, 62, 0
2, 185613, Note_on_c, 0, 65, 0
2, 185626, Control_c, 0, 64, 60
2, 185646, Control_c, 0, 64, 62
2, 185666, Control_c, 0, 64, 63
2, 185684, Control_c, 0, 64, 64
2, 185704, Control_c, 0, 64, 66
2, 185725, Note_on_c, 0, 46, 83
2, 185726, Control_c, 0, 64, 69
2, 185726, Note_on_c, 0, 68, 0
2, 185742, Control_c, 0, 64, 73
2, 185753, Note_on_c, 0, 47, 0
2, 185763, Control_c, 0, 64, 76
2, 185779, Control_c, 0, 64, 78
2, 185820, Control_c, 0, 64, 77
2, 185838, Control_c, 0, 64, 76
2, 185843, Note_on_c, 0, 62, 54
2, 185857, Control_c, 0, 64, 75
2, 185876, Control_c, 0, 64, 74
2, 185897, Control_c, 0, 64, 71
2, 185901, Note_on_c, 0, 65, 64
2, 185915, Control_c, 0, 64, 68
2, 185935, Control_c, 0, 64, 65
2, 185957, Control_c, 0, 64, 63
2, 185973, Control_c, 0, 64, 61
2, 185991, Control_c, 0, 64, 60
2, 185999, Note_on_c, 0, 68, 79
2, 186004, Note_on_c, 0, 47, 80
2, 186011, Control_c, 0, 64, 59
2, 186020, Note_on_c, 0, 46, 0
2, 186032, Control_c, 0, 64, 57
2, 186049, Control_c, 0, 64, 55
2, 186068, Control_c, 0, 64, 53
2, 186091, Control_c, 0, 64, 51
2, 186108, Control_c, 0, 64, 49
2, 186128, Control_c, 0, 64, 47
2, 186146, Control_c, 0, 64, 46
2, 186164, Control_c, 0, 64, 45
2, 186184, Control_c, 0, 64, 44
2, 186206, Control_c, 0, 64, 43
2, 186225, Control_c, 0, 64, 41
2, 186244, Control_c, 0, 64, 39
2, 186263, Control_c, 0, 64, 38
2, 186280, Control_c, 0, 64, 37
2, 186294, Note_on_c, 0, 46, 78
2, 186300, Control_c, 0, 64, 36
2, 186323, Note_on_c, 0, 47, 0
2, 186434, Control_c, 0, 64, 35
2, 186526, Note_on_c, 0, 44, 82
2, 186560, Note_on_c, 0, 46, 0
2, 186587, Control_c, 0, 64, 34
2, 186722, Note_on_c, 0, 46, 81
2, 186760, Note_on_c, 0, 44, 0
2, 186938, Note_on_c, 0, 47, 81
2, 186952, Control_c, 0, 64, 35
2, 186968, Note_on_c, 0, 46, 0
2, 187048, Control_c, 0, 64, 36
2, 187159, Note_on_c, 0, 44, 86
2, 187182, Control_c, 0, 64, 37
2, 187191, Note_on_c, 0, 47, 0
2, 187337, Control_c, 0, 64, 38
2, 187433, Note_on_c, 0, 46, 88
2, 187475, Note_on_c, 0, 44, 0
2, 187535, Note_on_c, 0, 62, 0
2, 187568, Note_on_c, 0, 65, 0
2, 187625, Note_on_c, 0, 68, 0
2, 187720, Note_on_c, 0, 47, 87
2, 187767, Note_on_c, 0, 46, 0
2, 187831, Note_on_c, 0, 62, 74
2, 187900, Note_on_c, 0, 65, 82
2, 187992, Note_on_c, 0, 68, 91
2, 188132, Control_c, 0, 64, 39
2, 188205, Control_c, 0, 64, 40
2, 188224, Control_c, 0, 64, 41
2, 188262, Control_c, 0, 64, 42
2, 188344, Note_on_c, 0, 47, 0
2, 188348, Note_on_c, 0, 38, 80
2, 188353, Note_on_c, 0, 71, 96
2, 188456, Control_c, 0, 64, 41
2, 188494, Control_c, 0, 64, 40
2, 188588, Control_c, 0, 64, 39
2, 188645, Control_c, 0, 64, 40
2, 189568, Control_c, 0, 64, 41
2, 189733, Control_c, 0, 64, 42
2, 189773, Note_on_c, 0, 65, 0
2, 189773, Note_on_c, 0, 68, 0
2, 189782, Note_on_c, 0, 62, 0
2, 189790, Note_on_c, 0, 38, 0
2, 189810, Control_c, 0, 64, 41
2, 189833, Control_c, 0, 64, 39
2, 189850, Control_c, 0, 64, 37
2, 189867, Control_c, 0, 64, 33
2, 189888, Control_c, 0, 64, 27
2, 189906, Control_c, 0, 64, 22
2, 189925, Control_c, 0, 64, 17
2, 189943, Control_c, 0, 64, 9
2, 189963, Control_c, 0, 64, 0
2, 190898, Note_on_c, 0, 70, 82
2, 190932, Note_on_c, 0, 71, 0
2, 191468, Note_on_c, 0, 68, 85
2, 191525, Note_on_c, 0, 70, 0
2, 191900, Note_on_c, 0, 66, 80
2, 191952, Note_on_c, 0, 68, 0
2, 192243, Note_on_c, 0, 66, 0
2, 192248, Note_on_c, 0, 65, 66
2, 192515, Note_on_c, 0, 65, 0
2, 192526, Note_on_c, 0, 63, 63
2, 192750, Note_on_c, 0, 63, 0
2, 192773, Note_on_c, 0, 62, 66
2, 192990, Note_on_c, 0, 62, 0
2, 193004, Note_on_c, 0, 65, 71
2, 193202, Note_on_c, 0, 68, 84
2, 193229, Note_on_c, 0, 65, 0
2, 193285, Control_c, 0, 64, 13
2, 193304, Control_c, 0, 64, 24
2, 193323, Control_c, 0, 64, 37
2, 193343, Control_c, 0, 64, 48
2, 193361, Control_c, 0, 64, 58
2, 193381, Control_c, 0, 64, 64
2, 193403, Control_c, 0, 64, 70
2, 193410, Note_on_c, 0, 71, 85
2, 193414, Note_on_c, 0, 68, 0
2, 193419, Control_c, 0, 64, 85
2, 193437, Control_c, 0, 64, 127
2, 193471, Note_on_c, 0, 71, 0
2, 193611, Control_c, 0, 64, 115
2, 193624, Note_on_c, 0, 74, 89
2, 193630, Control_c, 0, 64, 89
2, 193651, Control_c, 0, 64, 74
2, 193668, Control_c, 0, 64, 65
2, 193688, Control_c, 0, 64, 60
2, 193706, Control_c, 0, 64, 58
2, 193727, Control_c, 0, 64, 57
2, 193766, Control_c, 0, 64, 54
2, 193782, Control_c, 0, 64, 51
2, 193802, Control_c, 0, 64, 46
2, 193823, Control_c, 0, 64, 42
2, 193841, Control_c, 0, 64, 40
2, 193854, Note_on_c, 0, 77, 96
2, 193861, Control_c, 0, 64, 39
2, 193900, Control_c, 0, 64, 37
2, 193904, Note_on_c, 0, 74, 0
2, 193919, Control_c, 0, 64, 35
2, 193939, Control_c, 0, 64, 34
2, 193959, Control_c, 0, 64, 33
2, 193995, Control_c, 0, 64, 32
2, 194200, Note_on_c, 0, 80, 80
2, 194249, Note_on_c, 0, 77, 0
2, 194458, Control_c, 0, 64, 31
2, 194598, Note_on_c, 0, 83, 66
2, 194636, Note_on_c, 0, 80, 0
2, 195004, Note_on_c, 0, 82, 66
2, 195031, Note_on_c, 0, 83, 0
2, 195543, Note_on_c, 0, 74, 65
2, 195565, Note_on_c, 0, 82, 0
2, 196593, Note_on_c, 0, 75, 67
2, 196600, Note_on_c, 0, 74, 0
2, 197301, Control_c, 0, 64, 32
2, 197357, Control_c, 0, 64, 33
2, 197530, Control_c, 0, 64, 34
2, 198509, Control_c, 0, 64, 35
2, 198531, Control_c, 0, 64, 36
2, 198546, Note_on_c, 0, 70, 73
2, 198551, Control_c, 0, 64, 41
2, 198551, Note_on_c, 0, 66, 66
2, 198565, Note_on_c, 0, 51, 57
2, 198570, Control_c, 0, 64, 48
2, 198573, Note_on_c, 0, 39, 52
2, 198587, Control_c, 0, 64, 56
2, 198606, Control_c, 0, 64, 60
2, 198625, Control_c, 0, 64, 63
2, 198647, Control_c, 0, 64, 66
2, 198662, Control_c, 0, 64, 71
2, 198683, Control_c, 0, 64, 87
2, 198703, Control_c, 0, 64, 127
2, 198719, Note_on_c, 0, 39, 0
2, 198744, Note_on_c, 0, 66, 0
2, 198785, Note_on_c, 0, 51, 0
2, 198785, Note_on_c, 0, 70, 0
2, 198958, Note_on_c, 0, 68, 70
2, 198967, Note_on_c, 0, 51, 45
2, 198972, Control_c, 0, 64, 106
2, 198972, Note_on_c, 0, 63, 53
2, 198983, Note_on_c, 0, 54, 56
2, 198990, Control_c, 0, 64, 84
2, 198998, Note_on_c, 0, 46, 46
2, 199010, Control_c, 0, 64, 70
2, 199029, Control_c, 0, 64, 62
2, 199048, Control_c, 0, 64, 55
2, 199066, Control_c, 0, 64, 50
2, 199086, Control_c, 0, 64, 46
2, 199105, Control_c, 0, 64, 44
2, 199124, Control_c, 0, 64, 41
2, 199144, Control_c, 0, 64, 35
2, 199164, Control_c, 0, 64, 27
2, 199180, Control_c, 0, 64, 17
2, 199200, Control_c, 0, 64, 8
2, 199219, Control_c, 0, 64, 0
2, 199305, Note_on_c, 0, 68, 0
2, 199314, Note_on_c, 0, 66, 60
2, 199722, Control_c, 0, 64, 9
2, 199740, Control_c, 0, 64, 11
2, 199758, Control_c, 0, 64, 14
2, 199780, Control_c, 0, 64, 17
2, 199798, Control_c, 0, 64, 20
2, 199816, Control_c, 0, 64, 24
2, 199835, Control_c, 0, 64, 27
2, 199854, Control_c, 0, 64, 29
2, 199875, Control_c, 0, 64, 31
2, 199892, Control_c, 0, 64, 32
2, 199934, Control_c, 0, 64, 33
2, 199952, Control_c, 0, 64, 37
2, 199967, Control_c, 0, 64, 43
2, 199989, Control_c, 0, 64, 48
2, 200007, Control_c, 0, 64, 51
2, 200026, Control_c, 0, 64, 54
2, 200044, Control_c, 0, 64, 56
2, 200064, Control_c, 0, 64, 58
2, 200084, Control_c, 0, 64, 61
2, 200105, Control_c, 0, 64, 63
2, 200121, Control_c, 0, 64, 65
2, 200141, Control_c, 0, 64, 68
2, 200161, Control_c, 0, 64, 75
2, 200183, Control_c, 0, 64, 88
2, 200199, Control_c, 0, 64, 127
2, 200251, Note_on_c, 0, 46, 0
2, 200281, Note_on_c, 0, 75, 0
2, 200314, Note_on_c, 0, 51, 0
2, 200325, Note_on_c, 0, 63, 0
2, 200344, Note_on_c, 0, 54, 0
2, 200399, Note_on_c, 0, 66, 0
2, 200638, Note_on_c, 0, 46, 40
2, 200685, Control_c, 0, 64, 101
2, 200685, Note_on_c, 0, 53, 44
2, 200699, Control_c, 0, 64, 84
2, 200718, Control_c, 0, 64, 72
2, 200729, Note_on_c, 0, 56, 46
2, 200738, Control_c, 0, 64, 63
2, 200758, Note_on_c, 0, 66, 59
2, 200763, Control_c, 0, 64, 54
2, 200776, Control_c, 0, 64, 49
2, 200791, Note_on_c, 0, 62, 41
2, 200795, Control_c, 0, 64, 45
2, 200815, Control_c, 0, 64, 44
2, 200854, Control_c, 0, 64, 42
2, 200871, Control_c, 0, 64, 39
2, 200890, Control_c, 0, 64, 35
2, 200911, Control_c, 0, 64, 33
2, 200963, Note_on_c, 0, 66, 0
2, 200997, Note_on_c, 0, 65, 51
2, 201026, Control_c, 0, 64, 32
2, 201066, Note_on_c, 0, 65, 0
2, 201125, Note_on_c, 0, 66, 58
2, 201176, Note_on_c, 0, 66, 0
2, 201222, Note_on_c, 0, 65, 51
2, 201264, Note_on_c, 0, 65, 0
2, 201274, Control_c, 0, 64, 31
2, 201292, Note_on_c, 0, 66, 59
2, 201334, Note_on_c, 0, 66, 0
2, 201363, Note_on_c, 0, 65, 57
2, 201391, Control_c, 0, 64, 30
2, 201391, Note_on_c, 0, 65, 0
2, 201418, Note_on_c, 0, 66, 71
2, 201428, Control_c, 0, 64, 29
2, 201453, Note_on_c, 0, 66, 0
2, 201481, Note_on_c, 0, 65, 65
2, 201485, Control_c, 0, 64, 28
2, 201525, Control_c, 0, 64, 27
2, 201545, Control_c, 0, 64, 26
2, 201563, Control_c, 0, 64, 25
2, 201581, Control_c, 0, 64, 24
2, 201601, Control_c, 0, 64, 23
2, 201620, Control_c, 0, 64, 22
2, 201638, Control_c, 0, 64, 21
2, 201658, Control_c, 0, 64, 19
2, 201677, Control_c, 0, 64, 18
2, 201697, Control_c, 0, 64, 17
2, 201714, Control_c, 0, 64, 15
2, 201735, Control_c, 0, 64, 13
2, 201755, Control_c, 0, 64, 10
2, 201775, Control_c, 0, 64, 0
2, 202076, Note_on_c, 0, 65, 0
2, 202103, Note_on_c, 0, 63, 52
2, 202885, Note_on_c, 0, 65, 37
2, 202939, Note_on_c, 0, 63, 0
2, 203234, Control_c, 0, 64, 11
2, 203252, Control_c, 0, 64, 18
2, 203272, Control_c, 0, 64, 25
2, 203293, Control_c, 0, 64, 31
2, 203308, Control_c, 0, 64, 35
2, 203328, Control_c, 0, 64, 40
2, 203350, Control_c, 0, 64, 45
2, 203369, Control_c, 0, 64, 50
2, 203385, Control_c, 0, 64, 53
2, 203406, Control_c, 0, 64, 56
2, 203424, Control_c, 0, 64, 57
2, 203446, Control_c, 0, 64, 59
2, 203463, Control_c, 0, 64, 60
2, 203482, Control_c, 0, 64, 62
2, 203501, Control_c, 0, 64, 63
2, 203523, Control_c, 0, 64, 65
2, 203539, Control_c, 0, 64, 69
2, 203559, Control_c, 0, 64, 76
2, 203578, Control_c, 0, 64, 89
2, 203598, Control_c, 0, 64, 127
2, 203748, Note_on_c, 0, 46, 0
2, 203769, Note_on_c, 0, 62, 0
2, 203773, Note_on_c, 0, 53, 0
2, 203814, Note_on_c, 0, 56, 0
2, 204129, Note_on_c, 0, 51, 41
2, 204242, Note_on_c, 0, 55, 46
2, 204362, Note_on_c, 0, 58, 52
2, 204501, Control_c, 0, 64, 99
2, 204519, Note_on_c, 0, 63, 62
2, 204523, Control_c, 0, 64, 87
2, 204538, Control_c, 0, 64, 78
2, 204559, Control_c, 0, 64, 72
2, 204576, Control_c, 0, 64, 67
2, 204594, Note_on_c, 0, 65, 0
2, 204598, Control_c, 0, 64, 63
2, 204614, Control_c, 0, 64, 62
2, 204634, Control_c, 0, 64, 61
2, 204654, Control_c, 0, 64, 60
2, 204672, Control_c, 0, 64, 57
2, 204677, Note_on_c, 0, 61, 41
2, 204691, Control_c, 0, 64, 53
2, 204710, Control_c, 0, 64, 49
2, 204731, Control_c, 0, 64, 44
2, 204751, Control_c, 0, 64, 39
2, 204768, Control_c, 0, 64, 35
2, 204788, Control_c, 0, 64, 30
2, 204808, Control_c, 0, 64, 23
2, 204830, Control_c, 0, 64, 13
2, 204844, Control_c, 0, 64, 0
2, 205019, Control_c, 0, 64, 9
2, 205038, Control_c, 0, 64, 17
2, 205057, Control_c, 0, 64, 25
2, 205077, Control_c, 0, 64, 33
2, 205096, Control_c, 0, 64, 42
2, 205114, Control_c, 0, 64, 48
2, 205132, Control_c, 0, 64, 53
2, 205153, Control_c, 0, 64, 57
2, 205172, Control_c, 0, 64, 59
2, 205194, Control_c, 0, 64, 60
2, 205211, Control_c, 0, 64, 62
2, 205229, Control_c, 0, 64, 64
2, 205249, Control_c, 0, 64, 66
2, 205268, Control_c, 0, 64, 69
2, 205287, Control_c, 0, 64, 76
2, 205306, Control_c, 0, 64, 85
2, 205326, Control_c, 0, 64, 98
2, 205346, Control_c, 0, 64, 122
2, 205363, Control_c, 0, 64, 127
2, 205593, Note_on_c, 0, 51, 0
2, 205602, Note_on_c, 0, 58, 0
2, 205644, Note_on_c, 0, 55, 0
2, 205665, Note_on_c, 0, 61, 0
2, 206079, Note_on_c, 0, 51, 33
2, 206130, Note_on_c, 0, 55, 38
2, 206190, Note_on_c, 0, 58, 48
2, 206261, Note_on_c, 0, 61, 47
2, 206918, Note_on_c, 0, 51, 0
2, 207153, Note_on_c, 0, 55, 0
2, 207228, Note_on_c, 0, 58, 0
2, 207258, Note_on_c, 0, 61, 0
2, 207284, Note_on_c, 0, 63, 0
2, 207310, Note_on_c, 0, 65, 56
2, 207497, Note_on_c, 0, 65, 0
2, 207499, Note_on_c, 0, 67, 73
2, 207615, Note_on_c, 0, 51, 38
2, 207677, Note_on_c, 0, 68, 83
2, 207699, Note_on_c, 0, 55, 51
2, 207703, Note_on_c, 0, 67, 0
2, 207784, Control_c, 0, 64, 105
2, 207802, Control_c, 0, 64, 90
2, 207813, Note_on_c, 0, 58, 55
2, 207822, Control_c, 0, 64, 78
2, 207841, Control_c, 0, 64, 69
2, 207859, Control_c, 0, 64, 63
2, 207880, Control_c, 0, 64, 60
2, 207898, Control_c, 0, 64, 58
2, 207939, Control_c, 0, 64, 56
2, 207939, Note_on_c, 0, 70, 80
2, 207955, Control_c, 0, 64, 54
2, 207978, Control_c, 0, 64, 51
2, 207978, Note_on_c, 0, 68, 0
2, 207991, Note_on_c, 0, 61, 47
2, 207995, Control_c, 0, 64, 47
2, 208017, Control_c, 0, 64, 43
2, 208033, Control_c, 0, 64, 39
2, 208051, Control_c, 0, 64, 37
2, 208071, Control_c, 0, 64, 35
2, 208092, Control_c, 0, 64, 33
2, 208108, Control_c, 0, 64, 31
2, 208128, Control_c, 0, 64, 29
2, 208205, Control_c, 0, 64, 32
2, 208225, Control_c, 0, 64, 37
2, 208244, Control_c, 0, 64, 44
2, 208264, Control_c, 0, 64, 53
2, 208282, Control_c, 0, 64, 59
2, 208302, Control_c, 0, 64, 62
2, 208322, Control_c, 0, 64, 64
2, 208339, Control_c, 0, 64, 65
2, 208359, Control_c, 0, 64, 68
2, 208378, Control_c, 0, 64, 72
2, 208400, Control_c, 0, 64, 78
2, 208418, Control_c, 0, 64, 86
2, 208438, Control_c, 0, 64, 98
2, 208455, Control_c, 0, 64, 127
2, 208704, Note_on_c, 0, 70, 0
2, 208713, Note_on_c, 0, 51, 0
2, 208881, Note_on_c, 0, 61, 0
2, 209145, Note_on_c, 0, 64, 53
2, 209165, Note_on_c, 0, 58, 0
2, 209347, Note_on_c, 0, 64, 0
2, 209354, Note_on_c, 0, 63, 58
2, 209525, Note_on_c, 0, 61, 62
2, 209542, Note_on_c, 0, 63, 0
2, 209626, Note_on_c, 0, 61, 0
2, 209733, Note_on_c, 0, 51, 44
2, 209779, Control_c, 0, 64, 115
2, 209799, Control_c, 0, 64, 98
2, 209799, Note_on_c, 0, 55, 0
2, 209803, Note_on_c, 0, 56, 43
2, 209819, Control_c, 0, 64, 86
2, 209838, Control_c, 0, 64, 74
2, 209857, Control_c, 0, 64, 66
2, 209864, Note_on_c, 0, 61, 46
2, 209877, Control_c, 0, 64, 61
2, 209896, Control_c, 0, 64, 58
2, 209915, Control_c, 0, 64, 56
2, 209933, Control_c, 0, 64, 55
2, 209955, Control_c, 0, 64, 53
2, 209971, Control_c, 0, 64, 49
2, 209993, Control_c, 0, 64, 45
2, 210009, Control_c, 0, 64, 40
2, 210031, Control_c, 0, 64, 34
2, 210048, Control_c, 0, 64, 28
2, 210068, Control_c, 0, 64, 22
2, 210085, Control_c, 0, 64, 18
2, 210105, Control_c, 0, 64, 16
2, 210125, Control_c, 0, 64, 13
2, 210147, Control_c, 0, 64, 8
2, 210165, Control_c, 0, 64, 0
2, 210288, Note_on_c, 0, 61, 0
2, 210312, Note_on_c, 0, 59, 42
2, 210781, Control_c, 0, 64, 27
2, 210798, Control_c, 0, 64, 40
2, 210815, Control_c, 0, 64, 50
2, 210835, Control_c, 0, 64, 57
2, 210854, Control_c, 0, 64, 61
2, 210874, Control_c, 0, 64, 62
2, 210894, Control_c, 0, 64, 64
2, 210912, Control_c, 0, 64, 66
2, 210932, Control_c, 0, 64, 71
2, 210952, Control_c, 0, 64, 78
2, 210969, Control_c, 0, 64, 93
2, 210988, Control_c, 0, 64, 127
2, 211072, Note_on_c, 0, 56, 0
2, 211097, Note_on_c, 0, 51, 0
2, 211599, Note_on_c, 0, 51, 36
2, 211619, Note_on_c, 0, 56, 38
2, 212053, Note_on_c, 0, 59, 0
2, 212248, Note_on_c, 0, 63, 53
2, 212452, Note_on_c, 0, 63, 0
2, 212485, Note_on_c, 0, 65, 63
2, 212649, Note_on_c, 0, 51, 0
2, 212670, Note_on_c, 0, 65, 0
2, 212675, Note_on_c, 0, 56, 0
2, 212675, Note_on_c, 0, 67, 77
2, 212855, Note_on_c, 0, 68, 89
2, 212877, Note_on_c, 0, 67, 0
2, 213043, Note_on_c, 0, 70, 93
2, 213056, Note_on_c, 0, 68, 0
2, 213306, Note_on_c, 0, 51, 47
2, 213320, Note_on_c, 0, 56, 51
2, 213334, Control_c, 0, 64, 105
2, 213351, Control_c, 0, 64, 86
2, 213355, Note_on_c, 0, 71, 84
2, 213374, Control_c, 0, 64, 72
2, 213389, Control_c, 0, 64, 64
2, 213407, Note_on_c, 0, 70, 0
2, 213412, Control_c, 0, 64, 57
2, 213427, Control_c, 0, 64, 54
2, 213446, Control_c, 0, 64, 53
2, 213467, Control_c, 0, 64, 51
2, 213484, Control_c, 0, 64, 49
2, 213506, Control_c, 0, 64, 46
2, 213525, Control_c, 0, 64, 42
2, 213545, Control_c, 0, 64, 38
2, 213562, Control_c, 0, 64, 36
2, 213580, Control_c, 0, 64, 35
2, 213638, Control_c, 0, 64, 34
2, 213658, Control_c, 0, 64, 33
2, 213680, Control_c, 0, 64, 32
2, 213979, Note_on_c, 0, 71, 0
2, 213985, Note_on_c, 0, 70, 72
2, 214062, Note_on_c, 0, 68, 71
2, 214097, Note_on_c, 0, 70, 0
2, 214138, Note_on_c, 0, 66, 78
2, 214182, Note_on_c, 0, 68, 0
2, 214238, Note_on_c, 0, 65, 77
2, 214253, Note_on_c, 0, 66, 0
2, 214440, Note_on_c, 0, 66, 80
2, 214476, Note_on_c, 0, 65, 0
2, 214651, Note_on_c, 0, 68, 85
2, 214682, Note_on_c, 0, 66, 0
2, 214753, Control_c, 0, 64, 36
2, 214773, Control_c, 0, 64, 42
2, 214793, Control_c, 0, 64, 52
2, 214810, Control_c, 0, 64, 59
2, 214828, Control_c, 0, 64, 62
2, 214848, Control_c, 0, 64, 65
2, 214870, Control_c, 0, 64, 70
2, 214870, Note_on_c, 0, 65, 85
2, 214875, Note_on_c, 0, 68, 0
2, 214891, Control_c, 0, 64, 81
2, 214907, Control_c, 0, 64, 122
2, 214927, Control_c, 0, 64, 127
2, 214950, Note_on_c, 0, 56, 0
2, 214998, Note_on_c, 0, 51, 0
2, 215263, Note_on_c, 0, 63, 79
2, 215270, Control_c, 0, 64, 97
2, 215292, Control_c, 0, 64, 81
2, 215301, Note_on_c, 0, 53, 61
2, 215305, Note_on_c, 0, 51, 54
2, 215310, Control_c, 0, 64, 70
2, 215314, Note_on_c, 0, 65, 0
2, 215327, Control_c, 0, 64, 62
2, 215347, Control_c, 0, 64, 59
2, 215368, Control_c, 0, 64, 58
2, 215386, Control_c, 0, 64, 56
2, 215406, Control_c, 0, 64, 54
2, 215425, Control_c, 0, 64, 51
2, 215445, Control_c, 0, 64, 46
2, 215463, Control_c, 0, 64, 40
2, 215483, Control_c, 0, 64, 32
2, 215502, Control_c, 0, 64, 27
2, 215522, Control_c, 0, 64, 24
2, 215539, Control_c, 0, 64, 23
2, 215578, Control_c, 0, 64, 22
2, 215813, Note_on_c, 0, 62, 72
2, 215848, Note_on_c, 0, 63, 0
2, 216500, Control_c, 0, 64, 23
2, 216518, Control_c, 0, 64, 24
2, 216538, Control_c, 0, 64, 26
2, 216556, Control_c, 0, 64, 28
2, 216576, Control_c, 0, 64, 31
2, 216599, Control_c, 0, 64, 34
2, 216615, Control_c, 0, 64, 37
2, 216634, Control_c, 0, 64, 41
2, 216652, Control_c, 0, 64, 44
2, 216674, Control_c, 0, 64, 48
2, 216694, Control_c, 0, 64, 51
2, 216712, Control_c, 0, 64, 54
2, 216730, Control_c, 0, 64, 56
2, 216769, Control_c, 0, 64, 58
2, 216788, Control_c, 0, 64, 59
2, 216807, Control_c, 0, 64, 61
2, 216826, Control_c, 0, 64, 62
2, 216845, Control_c, 0, 64, 64
2, 216867, Control_c, 0, 64, 65
2, 216885, Control_c, 0, 64, 67
2, 216904, Control_c, 0, 64, 70
2, 216921, Control_c, 0, 64, 75
2, 216941, Control_c, 0, 64, 83
2, 216960, Control_c, 0, 64, 94
2, 216980, Control_c, 0, 64, 112
2, 216998, Control_c, 0, 64, 127
2, 217257, Note_on_c, 0, 59, 49
2, 217410, Note_on_c, 0, 51, 0
2, 217448, Note_on_c, 0, 53, 0
2, 217467, Note_on_c, 0, 59, 0
2, 217498, Note_on_c, 0, 58, 54
2, 217762, Note_on_c, 0, 58, 0
2, 217782, Note_on_c, 0, 53, 36
2, 217787, Control_c, 0, 64, 103
2, 217796, Note_on_c, 0, 59, 53
2, 217802, Note_on_c, 0, 51, 42
2, 217807, Control_c, 0, 64, 84
2, 217825, Control_c, 0, 64, 73
2, 217844, Control_c, 0, 64, 66
2, 217864, Control_c, 0, 64, 61
2, 217882, Control_c, 0, 64, 59
2, 217900, Control_c, 0, 64, 58
2, 217920, Control_c, 0, 64, 56
2, 217940, Control_c, 0, 64, 54
2, 217958, Control_c, 0, 64, 51
2, 217982, Control_c, 0, 64, 46
2, 217999, Control_c, 0, 64, 41
2, 218017, Control_c, 0, 64, 36
2, 218035, Control_c, 0, 64, 30
2, 218055, Control_c, 0, 64, 23
2, 218077, Control_c, 0, 64, 11
2, 218092, Control_c, 0, 64, 0
2, 218555, Control_c, 0, 64, 15
2, 218573, Control_c, 0, 64, 28
2, 218593, Control_c, 0, 64, 39
2, 218613, Control_c, 0, 64, 49
2, 218632, Control_c, 0, 64, 57
2, 218652, Control_c, 0, 64, 59
2, 218669, Control_c, 0, 64, 60
2, 218689, Control_c, 0, 64, 61
2, 218707, Control_c, 0, 64, 62
2, 218727, Control_c, 0, 64, 63
2, 218745, Control_c, 0, 64, 65
2, 218766, Control_c, 0, 64, 68
2, 218785, Control_c, 0, 64, 73
2, 218803, Control_c, 0, 64, 79
2, 218822, Control_c, 0, 64, 87
2, 218842, Control_c, 0, 64, 94
2, 218862, Control_c, 0, 64, 100
2, 218883, Control_c, 0, 64, 109
2, 218899, Control_c, 0, 64, 127
2, 219184, Note_on_c, 0, 53, 0
2, 219229, Note_on_c, 0, 51, 0
2, 219511, Note_on_c, 0, 56, 43
2, 219818, Note_on_c, 0, 56, 0
2, 219823, Control_c, 0, 64, 118
2, 219839, Control_c, 0, 64, 109
2, 219861, Control_c, 0, 64, 104
2, 219869, Note_on_c, 0, 53, 45
2, 219881, Control_c, 0, 64, 95
2, 219892, Note_on_c, 0, 51, 39
2, 219899, Control_c, 0, 64, 85
2, 219918, Note_on_c, 0, 59, 0
2, 219922, Control_c, 0, 64, 74
2, 219936, Control_c, 0, 64, 66
2, 219956, Control_c, 0, 64, 60
2, 219976, Control_c, 0, 64, 57
2, 219995, Control_c, 0, 64, 56
2, 220015, Control_c, 0, 64, 55
2, 220033, Control_c, 0, 64, 53
2, 220051, Control_c, 0, 64, 50
2, 220070, Control_c, 0, 64, 44
2, 220089, Control_c, 0, 64, 36
2, 220109, Control_c, 0, 64, 26
2, 220127, Control_c, 0, 64, 19
2, 220148, Control_c, 0, 64, 15
2, 220167, Control_c, 0, 64, 13
2, 220185, Control_c, 0, 64, 10
2, 220205, Control_c, 0, 64, 0
2, 220532, Control_c, 0, 64, 9
2, 220550, Control_c, 0, 64, 19
2, 220570, Control_c, 0, 64, 27
2, 220592, Control_c, 0, 64, 32
2, 220610, Control_c, 0, 64, 36
2, 220627, Control_c, 0, 64, 38
2, 220648, Control_c, 0, 64, 40
2, 220666, Control_c, 0, 64, 42
2, 220685, Control_c, 0, 64, 44
2, 220705, Control_c, 0, 64, 48
2, 220724, Control_c, 0, 64, 51
2, 220745, Control_c, 0, 64, 53
2, 220763, Control_c, 0, 64, 55
2, 220803, Control_c, 0, 64, 56
2, 220821, Control_c, 0, 64, 57
2, 220839, Control_c, 0, 64, 59
2, 220858, Control_c, 0, 64, 61
2, 220876, Control_c, 0, 64, 62
2, 220896, Control_c, 0, 64, 63
2, 220933, Control_c, 0, 64, 65
2, 220953, Control_c, 0, 64, 66
2, 220972, Control_c, 0, 64, 67
2, 220995, Control_c, 0, 64, 69
2, 221010, Control_c, 0, 64, 71
2, 221030, Control_c, 0, 64, 75
2, 221051, Control_c, 0, 64, 79
2, 221071, Control_c, 0, 64, 85
2, 221089, Control_c, 0, 64, 90
2, 221107, Control_c, 0, 64, 96
2, 221128, Control_c, 0, 64, 103
2, 221145, Control_c, 0, 64, 111
2, 221164, Control_c, 0, 64, 127
2, 221477, Note_on_c, 0, 62, 0
2, 221948, Note_on_c, 0, 62, 45
2, 222006, Note_on_c, 0, 51, 0
2, 222017, Note_on_c, 0, 53, 0
2, 222682, Control_c, 0, 64, 118
2, 222702, Control_c, 0, 64, 110
2, 222720, Control_c, 0, 64, 104
2, 222739, Control_c, 0, 64, 99
2, 222759, Control_c, 0, 64, 93
2, 222770, Note_on_c, 0, 39, 43
2, 222779, Control_c, 0, 64, 88
2, 222798, Control_c, 0, 64, 84
2, 222817, Control_c, 0, 64, 77
2, 222835, Control_c, 0, 64, 70
2, 222855, Control_c, 0, 64, 65
2, 222874, Control_c, 0, 64, 61
2, 222894, Control_c, 0, 64, 58
2, 222913, Control_c, 0, 64, 55
2, 222932, Control_c, 0, 64, 53
2, 222954, Control_c, 0, 64, 50
2, 222970, Control_c, 0, 64, 46
2, 222988, Control_c, 0, 64, 41
2, 223008, Control_c, 0, 64, 37
2, 223030, Control_c, 0, 64, 34
2, 223278, Control_c, 0, 64, 35
2, 223334, Control_c, 0, 64, 36
2, 223450, Control_c, 0, 64, 37
2, 223468, Note_on_c, 0, 46, 38
2, 223583, Control_c, 0, 64, 38
2, 223832, Note_on_c, 0, 51, 39
2, 223873, Control_c, 0, 64, 39
2, 224033, Note_on_c, 0, 55, 43
2, 224105, Control_c, 0, 64, 40
2, 224200, Control_c, 0, 64, 41
2, 224218, Control_c, 0, 64, 44
2, 224237, Control_c, 0, 64, 49
2, 224257, Control_c, 0, 64, 53
2, 224276, Control_c, 0, 64, 57
2, 224293, Control_c, 0, 64, 58
2, 224298, Note_on_c, 0, 58, 56
2, 224315, Control_c, 0, 64, 60
2, 224334, Control_c, 0, 64, 62
2, 224352, Control_c, 0, 64, 64
2, 224372, Control_c, 0, 64, 66
2, 224391, Control_c, 0, 64, 69
2, 224413, Control_c, 0, 64, 74
2, 224429, Control_c, 0, 64, 81
2, 224447, Control_c, 0, 64, 87
2, 224468, Control_c, 0, 64, 93
2, 224487, Control_c, 0, 64, 98
2, 224507, Control_c, 0, 64, 103
2, 224525, Control_c, 0, 64, 107
2, 224545, Note_on_c, 0, 62, 0
2, 224548, Control_c, 0, 64, 110
2, 224584, Control_c, 0, 64, 111
2, 224717, Control_c, 0, 64, 110
2, 224736, Control_c, 0, 64, 109
2, 224775, Control_c, 0, 64, 108
2, 224793, Control_c, 0, 64, 106
2, 224813, Control_c, 0, 64, 105
2, 224831, Control_c, 0, 64, 103
2, 224851, Control_c, 0, 64, 101
2, 224871, Control_c, 0, 64, 99
2, 224890, Control_c, 0, 64, 97
2, 224908, Control_c, 0, 64, 95
2, 224928, Control_c, 0, 64, 92
2, 224949, Control_c, 0, 64, 88
2, 224968, Control_c, 0, 64, 85
2, 224988, Control_c, 0, 64, 81
2, 225005, Control_c, 0, 64, 78
2, 225023, Control_c, 0, 64, 76
2, 225043, Control_c, 0, 64, 73
2, 225062, Control_c, 0, 64, 71
2, 225082, Control_c, 0, 64, 68
2, 225089, Note_on_c, 0, 62, 44
2, 225102, Control_c, 0, 64, 66
2, 225121, Control_c, 0, 64, 64
2, 225141, Control_c, 0, 64, 62
2, 225158, Control_c, 0, 64, 61
2, 225178, Control_c, 0, 64, 59
2, 225196, Control_c, 0, 64, 58
2, 225216, Control_c, 0, 64, 57
2, 225236, Control_c, 0, 64, 55
2, 225253, Control_c, 0, 64, 52
2, 225276, Control_c, 0, 64, 50
2, 225296, Control_c, 0, 64, 48
2, 225311, Control_c, 0, 64, 46
2, 225330, Control_c, 0, 64, 44
2, 225350, Control_c, 0, 64, 43
2, 225370, Control_c, 0, 64, 42
2, 225677, Control_c, 0, 64, 43
2, 225774, Control_c, 0, 64, 44
2, 225965, Control_c, 0, 64, 45
2, 227043, Note_on_c, 0, 63, 37
2, 227124, Note_on_c, 0, 62, 0
2, 227347, Control_c, 0, 64, 44
2, 227712, Control_c, 0, 64, 45
2, 230647, Note_on_c, 0, 63, 0
2, 230766, Note_on_c, 0, 46, 0
2, 230808, Note_on_c, 0, 39, 0
2, 230830, Note_on_c, 0, 51, 0
2, 230835, Note_on_c, 0, 55, 0
2, 230913, Note_on_c, 0, 58, 0
2, 231322, Control_c, 0, 64, 44
2, 231435, Control_c, 0, 64, 43
2, 231515, Control_c, 0, 64, 42
2, 231551, Control_c, 0, 64, 41
2, 231571, Control_c, 0, 64, 40
2, 231591, Control_c, 0, 64, 39
2, 231629, Control_c, 0, 64, 38
2, 231648, Control_c, 0, 64, 37
2, 231666, Control_c, 0, 64, 36
2, 231686, Control_c, 0, 64, 34
2, 231705, Control_c, 0, 64, 33
2, 231725, Control_c, 0, 64, 31
2, 231763, Control_c, 0, 64, 30
2, 232071, Control_c, 0, 64, 29
2, 233848, Note_on_c, 0, 63, 37
2, 233878, Control_c, 0, 64, 30
2, 233914, Control_c, 0, 64, 32
2, 233934, Control_c, 0, 64, 35
2, 233951, Control_c, 0, 64, 39
2, 233972, Control_c, 0, 64, 44
2, 233990, Control_c, 0, 64, 49
2, 234010, Control_c, 0, 64, 52
2, 234030, Control_c, 0, 64, 55
2, 234048, Control_c, 0, 64, 58
2, 234067, Control_c, 0, 64, 60
2, 234086, Control_c, 0, 64, 62
2, 234107, Control_c, 0, 64, 63
2, 234125, Control_c, 0, 64, 64
2, 234162, Control_c, 0, 64, 65
2, 234182, Control_c, 0, 64, 66
2, 234202, Control_c, 0, 64, 67
2, 234224, Control_c, 0, 64, 69
2, 234239, Control_c, 0, 64, 70
2, 234267, Note_on_c, 0, 63, 0
2, 234529, Control_c, 0, 64, 69
2, 234585, Control_c, 0, 64, 68
2, 234605, Control_c, 0, 64, 67
2, 234623, Control_c, 0, 64, 66
2, 234643, Control_c, 0, 64, 64
2, 234663, Control_c, 0, 64, 63
2, 234681, Control_c, 0, 64, 62
2, 234700, Control_c, 0, 64, 61
2, 234722, Control_c, 0, 64, 60
2, 234739, Control_c, 0, 64, 58
2, 234748, Note_on_c, 0, 70, 47
2, 234759, Control_c, 0, 64, 57
2, 234776, Control_c, 0, 64, 55
2, 234797, Control_c, 0, 64, 54
2, 234817, Control_c, 0, 64, 51
2, 234835, Control_c, 0, 64, 49
2, 234852, Control_c, 0, 64, 47
2, 234874, Control_c, 0, 64, 45
2, 234893, Control_c, 0, 64, 43
2, 234911, Control_c, 0, 64, 41
2, 234932, Control_c, 0, 64, 38
2, 234953, Control_c, 0, 64, 35
2, 234969, Control_c, 0, 64, 33
2, 234992, Control_c, 0, 64, 32
2, 235047, Control_c, 0, 64, 31
2, 235085, Control_c, 0, 64, 30
2, 235122, Control_c, 0, 64, 29
2, 235145, Control_c, 0, 64, 28
2, 235527, Control_c, 0, 64, 29
2, 235872, Control_c, 0, 64, 30
2, 236560, Note_on_c, 0, 71, 49
2, 236629, Note_on_c, 0, 70, 0
2, 236966, Control_c, 0, 64, 31
2, 236990, Note_on_c, 0, 70, 58
2, 237001, Note_on_c, 0, 71, 0
2, 237081, Control_c, 0, 64, 32
2, 237381, Note_on_c, 0, 68, 55
2, 237397, Note_on_c, 0, 70, 0
2, 237786, Note_on_c, 0, 68, 0
2, 237795, Note_on_c, 0, 66, 49
2, 238173, Note_on_c, 0, 66, 0
2, 238183, Note_on_c, 0, 68, 56
2, 238614, Note_on_c, 0, 70, 49
2, 238616, Note_on_c, 0, 68, 0
2, 239395, Note_on_c, 0, 70, 0
2, 239415, Note_on_c, 0, 63, 47
2, 239496, Control_c, 0, 64, 33
2, 239558, Control_c, 0, 64, 34
2, 239574, Control_c, 0, 64, 35
2, 239594, Control_c, 0, 64, 38
2, 239612, Control_c, 0, 64, 41
2, 239631, Control_c, 0, 64, 45
2, 239649, Control_c, 0, 64, 50
2, 239673, Control_c, 0, 64, 54
2, 239688, Control_c, 0, 64, 58
2, 239709, Control_c, 0, 64, 60
2, 239728, Control_c, 0, 64, 61
2, 239749, Control_c, 0, 64, 63
2, 239765, Control_c, 0, 64, 64
2, 239786, Control_c, 0, 64, 67
2, 239804, Control_c, 0, 64, 71
2, 239824, Control_c, 0, 64, 78
2, 239842, Control_c, 0, 64, 85
2, 239862, Control_c, 0, 64, 93
2, 239881, Control_c, 0, 64, 100
2, 239902, Control_c, 0, 64, 105
2, 239921, Control_c, 0, 64, 111
2, 239938, Control_c, 0, 64, 118
2, 239969, Note_on_c, 0, 63, 0
2, 240073, Control_c, 0, 64, 116
2, 240093, Control_c, 0, 64, 115
2, 240113, Control_c, 0, 64, 110
2, 240130, Control_c, 0, 64, 107
2, 240150, Control_c, 0, 64, 104
2, 240171, Control_c, 0, 64, 102
2, 240190, Control_c, 0, 64, 98
2, 240207, Control_c, 0, 64, 95
2, 240230, Control_c, 0, 64, 91
2, 240247, Control_c, 0, 64, 85
2, 240266, Control_c, 0, 64, 79
2, 240284, Control_c, 0, 64, 73
2, 240304, Control_c, 0, 64, 68
2, 240320, Note_on_c, 0, 68, 50
2, 240324, Control_c, 0, 64, 64
2, 240344, Control_c, 0, 64, 61
2, 240361, Control_c, 0, 64, 60
2, 240380, Control_c, 0, 64, 58
2, 240400, Control_c, 0, 64, 57
2, 240419, Control_c, 0, 64, 55
2, 240438, Control_c, 0, 64, 53
2, 240457, Control_c, 0, 64, 50
2, 240477, Control_c, 0, 64, 47
2, 240497, Control_c, 0, 64, 46
2, 240515, Control_c, 0, 64, 45
2, 240537, Control_c, 0, 64, 44
2, 240552, Control_c, 0, 64, 43
2, 240572, Control_c, 0, 64, 42
2, 240594, Control_c, 0, 64, 39
2, 240611, Control_c, 0, 64, 36
2, 240631, Control_c, 0, 64, 34
2, 240708, Control_c, 0, 64, 33
2, 241513, Note_on_c, 0, 66, 42
2, 241582, Note_on_c, 0, 68, 0
2, 241957, Note_on_c, 0, 65, 40
2, 241977, Note_on_c, 0, 66, 0
2, 242474, Control_c, 0, 64, 34
2, 242569, Control_c, 0, 64, 35
2, 242664, Control_c, 0, 64, 36
2, 242833, Note_on_c, 0, 63, 30
2, 242833, Note_on_c, 0, 65, 0
2, 242833, Note_on_c, 0, 70, 59
2, 242973, Control_c, 0, 64, 37
2, 242991, Control_c, 0, 64, 39
2, 243012, Control_c, 0, 64, 44
2, 243032, Control_c, 0, 64, 51
2, 243047, Control_c, 0, 64, 56
2, 243068, Control_c, 0, 64, 59
2, 243087, Control_c, 0, 64, 62
2, 243109, Control_c, 0, 64, 64
2, 243124, Control_c, 0, 64, 66
2, 243147, Control_c, 0, 64, 72
2, 243164, Control_c, 0, 64, 82
2, 243183, Control_c, 0, 64, 97
2, 243203, Control_c, 0, 64, 127
2, 243287, Note_on_c, 0, 70, 0
2, 243568, Control_c, 0, 64, 112
2, 243587, Control_c, 0, 64, 97
2, 243605, Control_c, 0, 64, 85
2, 243625, Control_c, 0, 64, 76
2, 243648, Control_c, 0, 64, 69
2, 243652, Note_on_c, 0, 75, 64
2, 243664, Control_c, 0, 64, 65
2, 243684, Control_c, 0, 64, 63
2, 243703, Control_c, 0, 64, 62
2, 243742, Control_c, 0, 64, 61
2, 243762, Control_c, 0, 64, 60
2, 243777, Control_c, 0, 64, 58
2, 243798, Control_c, 0, 64, 57
2, 243818, Control_c, 0, 64, 55
2, 243838, Control_c, 0, 64, 54
2, 243858, Control_c, 0, 64, 53
2, 243875, Control_c, 0, 64, 52
2, 243894, Control_c, 0, 64, 50
2, 243917, Control_c, 0, 64, 47
2, 243933, Control_c, 0, 64, 45
2, 243951, Control_c, 0, 64, 43
2, 243971, Control_c, 0, 64, 41
2, 243990, Control_c, 0, 64, 40
2, 244008, Control_c, 0, 64, 39
2, 244025, Note_on_c, 0, 63, 0
2, 244030, Control_c, 0, 64, 37
2, 244030, Note_on_c, 0, 65, 48
2, 244050, Control_c, 0, 64, 35
2, 244067, Control_c, 0, 64, 34
2, 244089, Control_c, 0, 64, 32
2, 244106, Control_c, 0, 64, 31
2, 244125, Control_c, 0, 64, 30
2, 244143, Control_c, 0, 64, 29
2, 244163, Control_c, 0, 64, 28
2, 244183, Control_c, 0, 64, 27
2, 244240, Control_c, 0, 64, 26
2, 244386, Note_on_c, 0, 65, 0
2, 244412, Note_on_c, 0, 66, 50
2, 244808, Note_on_c, 0, 78, 68
2, 244838, Note_on_c, 0, 75, 0
2, 245179, Note_on_c, 0, 66, 0
2, 245204, Note_on_c, 0, 68, 45
2, 245208, Note_on_c, 0, 77, 67
2, 245242, Note_on_c, 0, 78, 0
2, 245587, Note_on_c, 0, 75, 68
2, 245630, Note_on_c, 0, 77, 0
2, 245986, Control_c, 0, 64, 27
2, 246009, Note_on_c, 0, 73, 66
2, 246020, Note_on_c, 0, 70, 40
2, 246025, Note_on_c, 0, 68, 0
2, 246062, Note_on_c, 0, 75, 0
2, 246412, Note_on_c, 0, 75, 66
2, 246433, Note_on_c, 0, 73, 0
2, 246801, Note_on_c, 0, 77, 68
2, 246817, Note_on_c, 0, 75, 0
2, 247195, Note_on_c, 0, 70, 0
2, 247212, Note_on_c, 0, 68, 47
2, 247562, Note_on_c, 0, 68, 0
2, 247605, Note_on_c, 0, 70, 66
2, 247611, Note_on_c, 0, 66, 43
2, 247622, Note_on_c, 0, 77, 0
2, 247698, Control_c, 0, 64, 28
2, 247734, Control_c, 0, 64, 29
2, 247773, Control_c, 0, 64, 30
2, 247810, Control_c, 0, 64, 32
2, 247833, Control_c, 0, 64, 33
2, 247850, Control_c, 0, 64, 36
2, 247867, Control_c, 0, 64, 40
2, 247887, Control_c, 0, 64, 45
2, 247907, Control_c, 0, 64, 51
2, 247925, Control_c, 0, 64, 55
2, 247944, Control_c, 0, 64, 58
2, 247962, Note_on_c, 0, 66, 0
2, 247967, Control_c, 0, 64, 59
2, 247985, Control_c, 0, 64, 60
2, 248002, Control_c, 0, 64, 62
2, 248019, Note_on_c, 0, 65, 47
2, 248023, Control_c, 0, 64, 64
2, 248041, Control_c, 0, 64, 66
2, 248062, Control_c, 0, 64, 69
2, 248082, Control_c, 0, 64, 73
2, 248098, Control_c, 0, 64, 79
2, 248120, Control_c, 0, 64, 85
2, 248138, Note_on_c, 0, 70, 0
2, 248142, Control_c, 0, 64, 88
2, 248155, Control_c, 0, 64, 90
2, 248175, Control_c, 0, 64, 91
2, 248290, Control_c, 0, 64, 90
2, 248309, Control_c, 0, 64, 88
2, 248329, Control_c, 0, 64, 86
2, 248348, Control_c, 0, 64, 83
2, 248366, Control_c, 0, 64, 80
2, 248386, Control_c, 0, 64, 76
2, 248407, Control_c, 0, 64, 72
2, 248418, Note_on_c, 0, 75, 60
2, 248426, Control_c, 0, 64, 68
2, 248439, Note_on_c, 0, 65, 0
2, 248446, Control_c, 0, 64, 64
2, 248446, Note_on_c, 0, 66, 42
2, 248464, Control_c, 0, 64, 60
2, 248483, Control_c, 0, 64, 57
2, 248501, Control_c, 0, 64, 56
2, 248540, Control_c, 0, 64, 54
2, 248561, Control_c, 0, 64, 52
2, 248578, Control_c, 0, 64, 49
2, 248597, Control_c, 0, 64, 45
2, 248616, Control_c, 0, 64, 42
2, 248636, Control_c, 0, 64, 41
2, 248694, Control_c, 0, 64, 40
2, 248714, Control_c, 0, 64, 39
2, 248731, Control_c, 0, 64, 38
2, 248771, Control_c, 0, 64, 37
2, 248791, Control_c, 0, 64, 36
2, 248831, Control_c, 0, 64, 35
2, 248831, Note_on_c, 0, 65, 47
2, 248849, Control_c, 0, 64, 34
2, 248868, Control_c, 0, 64, 33
2, 248868, Note_on_c, 0, 66, 0
2, 248886, Control_c, 0, 64, 32
2, 248992, Note_on_c, 0, 65, 0
2, 249014, Note_on_c, 0, 63, 50
2, 249206, Note_on_c, 0, 63, 0
2, 249243, Note_on_c, 0, 65, 48
2, 249557, Note_on_c, 0, 65, 0
2, 249611, Note_on_c, 0, 70, 55
2, 249611, Note_on_c, 0, 73, 59
2, 249629, Note_on_c, 0, 75, 0
2, 250003, Note_on_c, 0, 73, 0
2, 250007, Note_on_c, 0, 72, 56
2, 250358, Note_on_c, 0, 70, 0
2, 250416, Note_on_c, 0, 69, 36
2, 250768, Note_on_c, 0, 69, 0
2, 250837, Note_on_c, 0, 70, 52
2, 250851, Note_on_c, 0, 72, 0
2, 251229, Note_on_c, 0, 72, 72
2, 251343, Control_c, 0, 64, 33
2, 251624, Note_on_c, 0, 73, 73
2, 251625, Note_on_c, 0, 72, 0
2, 251974, Note_on_c, 0, 70, 0
2, 252001, Note_on_c, 0, 68, 49
2, 252410, Note_on_c, 0, 68, 0
2, 252428, Note_on_c, 0, 67, 41
2, 252789, Note_on_c, 0, 67, 0
2, 252811, Note_on_c, 0, 63, 45
2, 253180, Note_on_c, 0, 63, 0
2, 253216, Note_on_c, 0, 68, 45
2, 253622, Note_on_c, 0, 71, 53
2, 253642, Note_on_c, 0, 73, 0
2, 253989, Note_on_c, 0, 71, 0
2, 254007, Note_on_c, 0, 70, 55
2, 254423, Note_on_c, 0, 68, 0
2, 254437, Note_on_c, 0, 66, 45
2, 254805, Note_on_c, 0, 70, 0
2, 254819, Note_on_c, 0, 75, 56
2, 254830, Note_on_c, 0, 65, 37
2, 254847, Note_on_c, 0, 66, 0
2, 255206, Note_on_c, 0, 65, 0
2, 255245, Note_on_c, 0, 63, 44
2, 255584, Note_on_c, 0, 63, 0
2, 255638, Note_on_c, 0, 65, 40
2, 255739, Control_c, 0, 64, 32
2, 255778, Control_c, 0, 64, 31
2, 255798, Control_c, 0, 64, 28
2, 255817, Control_c, 0, 64, 22
2, 255838, Control_c, 0, 64, 13
2, 255855, Control_c, 0, 64, 0
2, 256039, Note_on_c, 0, 74, 57
2, 256039, Note_on_c, 0, 75, 0
2, 256084, Control_c, 0, 64, 24
2, 256105, Control_c, 0, 64, 41
2, 256124, Control_c, 0, 64, 53
2, 256143, Control_c, 0, 64, 60
2, 256162, Control_c, 0, 64, 62
2, 256182, Control_c, 0, 64, 64
2, 256194, Note_on_c, 0, 74, 0
2, 256200, Control_c, 0, 64, 66
2, 256222, Control_c, 0, 64, 70
2, 256239, Control_c, 0, 64, 77
2, 256257, Note_on_c, 0, 65, 0
2, 256259, Control_c, 0, 64, 85
2, 256282, Control_c, 0, 64, 93
2, 256295, Control_c, 0, 64, 100
2, 256315, Control_c, 0, 64, 102
2, 256354, Control_c, 0, 64, 99
2, 256374, Control_c, 0, 64, 94
2, 256394, Control_c, 0, 64, 85
2, 256412, Control_c, 0, 64, 74
2, 256431, Control_c, 0, 64, 65
2, 256449, Note_on_c, 0, 75, 54
2, 256450, Control_c, 0, 64, 58
2, 256460, Note_on_c, 0, 66, 48
2, 256472, Control_c, 0, 64, 53
2, 256509, Control_c, 0, 64, 54
2, 256527, Control_c, 0, 64, 56
2, 256545, Control_c, 0, 64, 59
2, 256566, Control_c, 0, 64, 62
2, 256586, Control_c, 0, 64, 64
2, 256604, Control_c, 0, 64, 66
2, 256624, Control_c, 0, 64, 71
2, 256643, Control_c, 0, 64, 78
2, 256663, Control_c, 0, 64, 88
2, 256668, Note_on_c, 0, 66, 0
2, 256683, Control_c, 0, 64, 99
2, 256702, Control_c, 0, 64, 112
2, 256720, Control_c, 0, 64, 127
2, 256815, Control_c, 0, 64, 104
2, 256835, Control_c, 0, 64, 87
2, 256849, Note_on_c, 0, 77, 65
2, 256853, Note_on_c, 0, 68, 60
2, 256858, Control_c, 0, 64, 73
2, 256858, Note_on_c, 0, 75, 0
2, 256873, Control_c, 0, 64, 63
2, 256891, Control_c, 0, 64, 57
2, 256934, Control_c, 0, 64, 58
2, 256949, Control_c, 0, 64, 61
2, 256968, Control_c, 0, 64, 63
2, 256989, Control_c, 0, 64, 66
2, 257008, Control_c, 0, 64, 69
2, 257024, Control_c, 0, 64, 74
2, 257036, Note_on_c, 0, 77, 0
2, 257046, Control_c, 0, 64, 82
2, 257068, Control_c, 0, 64, 92
2, 257084, Control_c, 0, 64, 104
2, 257104, Control_c, 0, 64, 120
2, 257123, Note_on_c, 0, 68, 0
2, 257127, Control_c, 0, 64, 127
2, 257199, Control_c, 0, 64, 122
2, 257221, Control_c, 0, 64, 113
2, 257237, Control_c, 0, 64, 105
2, 257258, Control_c, 0, 64, 95
2, 257276, Control_c, 0, 64, 85
2, 257296, Control_c, 0, 64, 75
2, 257301, Note_on_c, 0, 78, 61
2, 257313, Note_on_c, 0, 51, 62
2, 257318, Control_c, 0, 64, 66
2, 257318, Note_on_c, 0, 70, 52
2, 257336, Control_c, 0, 64, 61
2, 257352, Control_c, 0, 64, 58
2, 257372, Control_c, 0, 64, 57
2, 257410, Control_c, 0, 64, 56
2, 257485, Control_c, 0, 64, 58
2, 257507, Control_c, 0, 64, 61
2, 257526, Control_c, 0, 64, 63
2, 257544, Control_c, 0, 64, 65
2, 257564, Control_c, 0, 64, 67
2, 257583, Control_c, 0, 64, 71
2, 257603, Control_c, 0, 64, 77
2, 257625, Control_c, 0, 64, 83
2, 257642, Control_c, 0, 64, 91
2, 257660, Control_c, 0, 64, 99
2, 257678, Control_c, 0, 64, 105
2, 257698, Control_c, 0, 64, 109
2, 257734, Note_on_c, 0, 70, 0
2, 257738, Note_on_c, 0, 72, 66
2, 257755, Control_c, 0, 64, 110
2, 257774, Control_c, 0, 64, 111
2, 257790, Note_on_c, 0, 51, 0
2, 257897, Note_on_c, 0, 72, 0
2, 257928, Control_c, 0, 64, 109
2, 257948, Control_c, 0, 64, 108
2, 257967, Control_c, 0, 64, 104
2, 257989, Control_c, 0, 64, 100
2, 258007, Control_c, 0, 64, 94
2, 258027, Control_c, 0, 64, 89
2, 258043, Control_c, 0, 64, 84
2, 258064, Control_c, 0, 64, 79
2, 258086, Control_c, 0, 64, 73
2, 258103, Control_c, 0, 64, 67
2, 258121, Control_c, 0, 64, 62
2, 258128, Note_on_c, 0, 77, 61
2, 258137, Note_on_c, 0, 58, 69
2, 258141, Control_c, 0, 64, 56
2, 258146, Note_on_c, 0, 74, 53
2, 258160, Control_c, 0, 64, 52
2, 258180, Control_c, 0, 64, 48
2, 258198, Control_c, 0, 64, 45
2, 258202, Note_on_c, 0, 78, 0
2, 258217, Control_c, 0, 64, 42
2, 258237, Control_c, 0, 64, 38
2, 258255, Control_c, 0, 64, 33
2, 258273, Control_c, 0, 64, 27
2, 258294, Control_c, 0, 64, 25
2, 258315, Control_c, 0, 64, 24
2, 258409, Control_c, 0, 64, 23
2, 258504, Control_c, 0, 64, 22
2, 258531, Note_on_c, 0, 74, 0
2, 258547, Note_on_c, 0, 75, 62
2, 258554, Note_on_c, 0, 78, 64
2, 258583, Note_on_c, 0, 77, 0
2, 258601, Control_c, 0, 64, 21
2, 258735, Control_c, 0, 64, 20
2, 258812, Control_c, 0, 64, 19
2, 258830, Control_c, 0, 64, 18
2, 258872, Note_on_c, 0, 78, 0
2, 258930, Control_c, 0, 64, 19
2, 258930, Note_on_c, 0, 80, 75
2, 258934, Note_on_c, 0, 77, 59
2, 258941, Note_on_c, 0, 75, 0
2, 258947, Control_c, 0, 64, 27
2, 258967, Control_c, 0, 64, 41
2, 258984, Control_c, 0, 64, 53
2, 259006, Control_c, 0, 64, 61
2, 259024, Control_c, 0, 64, 64
2, 259042, Control_c, 0, 64, 66
2, 259062, Note_on_c, 0, 77, 0
2, 259067, Control_c, 0, 64, 72
2, 259080, Control_c, 0, 64, 82
2, 259100, Control_c, 0, 64, 109
2, 259120, Control_c, 0, 64, 127
2, 259337, Control_c, 0, 64, 88
2, 259337, Note_on_c, 0, 59, 75
2, 259337, Note_on_c, 0, 74, 63
2, 259337, Note_on_c, 0, 77, 73
2, 259349, Control_c, 0, 64, 69
2, 259369, Note_on_c, 0, 80, 0
2, 259374, Control_c, 0, 64, 58
2, 259384, Note_on_c, 0, 58, 0
2, 259388, Control_c, 0, 64, 52
2, 259425, Control_c, 0, 64, 56
2, 259446, Control_c, 0, 64, 60
2, 259467, Control_c, 0, 64, 63
2, 259485, Control_c, 0, 64, 67
2, 259502, Control_c, 0, 64, 72
2, 259522, Control_c, 0, 64, 80
2, 259544, Control_c, 0, 64, 89
2, 259551, Note_on_c, 0, 74, 0
2, 259562, Control_c, 0, 64, 100
2, 259580, Control_c, 0, 64, 120
2, 259600, Control_c, 0, 64, 127
2, 259730, Note_on_c, 0, 78, 78
2, 259734, Control_c, 0, 64, 107
2, 259740, Note_on_c, 0, 58, 77
2, 259749, Note_on_c, 0, 75, 68
2, 259754, Control_c, 0, 64, 89
2, 259754, Note_on_c, 0, 77, 0
2, 259765, Note_on_c, 0, 59, 0
2, 259774, Control_c, 0, 64, 76
2, 259790, Control_c, 0, 64, 65
2, 259810, Control_c, 0, 64, 59
2, 259833, Control_c, 0, 64, 54
2, 259850, Control_c, 0, 64, 51
2, 259907, Control_c, 0, 64, 50
2, 259925, Control_c, 0, 64, 49
2, 259945, Control_c, 0, 64, 47
2, 259963, Control_c, 0, 64, 46
2, 260115, Note_on_c, 0, 56, 74
2, 260128, Note_on_c, 0, 80, 75
2, 260136, Note_on_c, 0, 77, 76
2, 260168, Note_on_c, 0, 78, 0
2, 260173, Note_on_c, 0, 58, 0
2, 260204, Note_on_c, 0, 75, 0
2, 260444, Note_on_c, 0, 75, 17
2, 260536, Note_on_c, 0, 54, 66
2, 260536, Note_on_c, 0, 82, 70
2, 260540, Note_on_c, 0, 78, 68
2, 260565, Note_on_c, 0, 75, 0
2, 260586, Note_on_c, 0, 80, 0
2, 260596, Note_on_c, 0, 77, 0
2, 260601, Note_on_c, 0, 56, 0
2, 260694, Control_c, 0, 64, 45
2, 260752, Control_c, 0, 64, 44
2, 260903, Control_c, 0, 64, 43
2, 260933, Note_on_c, 0, 56, 68
2, 260935, Note_on_c, 0, 82, 0
2, 260946, Note_on_c, 0, 54, 0
2, 260948, Note_on_c, 0, 80, 62
2, 260952, Note_on_c, 0, 77, 64
2, 260968, Note_on_c, 0, 78, 0
2, 260981, Control_c, 0, 64, 42
2, 261288, Control_c, 0, 64, 41
2, 261336, Note_on_c, 0, 77, 0
2, 261341, Note_on_c, 0, 58, 57
2, 261345, Note_on_c, 0, 56, 0
2, 261350, Note_on_c, 0, 78, 66
2, 261360, Note_on_c, 0, 75, 46
2, 261379, Note_on_c, 0, 80, 0
2, 261557, Control_c, 0, 64, 40
2, 261595, Control_c, 0, 64, 39
2, 261628, Note_on_c, 0, 75, 0
2, 261711, Control_c, 0, 64, 40
2, 261729, Control_c, 0, 64, 45
2, 261743, Note_on_c, 0, 77, 63
2, 261749, Control_c, 0, 64, 53
2, 261754, Note_on_c, 0, 74, 51
2, 261768, Control_c, 0, 64, 60
2, 261788, Control_c, 0, 64, 63
2, 261788, Note_on_c, 0, 78, 0
2, 261806, Control_c, 0, 64, 66
2, 261825, Control_c, 0, 64, 73
2, 261845, Control_c, 0, 64, 93
2, 261861, Note_on_c, 0, 77, 0
2, 261866, Control_c, 0, 64, 127
2, 262114, Control_c, 0, 64, 108
2, 262125, Note_on_c, 0, 74, 0
2, 262134, Control_c, 0, 64, 85
2, 262152, Control_c, 0, 64, 73
2, 262158, Note_on_c, 0, 78, 55
2, 262162, Note_on_c, 0, 51, 50
2, 262162, Note_on_c, 0, 58, 0
2, 262171, Control_c, 0, 64, 65
2, 262171, Note_on_c, 0, 75, 49
2, 262190, Control_c, 0, 64, 61
2, 262210, Control_c, 0, 64, 58
2, 262232, Control_c, 0, 64, 56
2, 262247, Control_c, 0, 64, 53
2, 262267, Control_c, 0, 64, 48
2, 262289, Control_c, 0, 64, 42
2, 262305, Control_c, 0, 64, 38
2, 262324, Control_c, 0, 64, 35
2, 262497, Control_c, 0, 64, 36
2, 262517, Control_c, 0, 64, 39
2, 262528, Note_on_c, 0, 75, 0
2, 262537, Control_c, 0, 64, 45
2, 262555, Control_c, 0, 64, 53
2, 262576, Note_on_c, 0, 73, 54
2, 262580, Control_c, 0, 64, 58
2, 262594, Control_c, 0, 64, 60
2, 262615, Control_c, 0, 64, 62
2, 262631, Control_c, 0, 64, 64
2, 262652, Control_c, 0, 64, 66
2, 262674, Control_c, 0, 64, 71
2, 262691, Control_c, 0, 64, 80
2, 262709, Control_c, 0, 64, 92
2, 262727, Control_c, 0, 64, 108
2, 262736, Note_on_c, 0, 51, 0
2, 262741, Note_on_c, 0, 78, 0
2, 262748, Control_c, 0, 64, 127
2, 262903, Control_c, 0, 64, 113
2, 262921, Control_c, 0, 64, 101
2, 262939, Control_c, 0, 64, 88
2, 262961, Control_c, 0, 64, 75
2, 262972, Note_on_c, 0, 73, 0
2, 262979, Control_c, 0, 64, 66
2, 262985, Note_on_c, 0, 77, 60
2, 262990, Note_on_c, 0, 71, 57
2, 262996, Control_c, 0, 64, 61
2, 263010, Note_on_c, 0, 56, 54
2, 263019, Control_c, 0, 64, 57
2, 263039, Control_c, 0, 64, 56
2, 263054, Control_c, 0, 64, 55
2, 263074, Control_c, 0, 64, 53
2, 263094, Control_c, 0, 64, 51
2, 263112, Control_c, 0, 64, 48
2, 263133, Control_c, 0, 64, 45
2, 263150, Control_c, 0, 64, 44
2, 263171, Control_c, 0, 64, 43
2, 263228, Control_c, 0, 64, 41
2, 263247, Control_c, 0, 64, 40
2, 263267, Control_c, 0, 64, 39
2, 263362, Control_c, 0, 64, 41
2, 263382, Control_c, 0, 64, 46
2, 263384, Note_on_c, 0, 77, 0
2, 263401, Control_c, 0, 64, 54
2, 263406, Note_on_c, 0, 75, 56
2, 263423, Control_c, 0, 64, 60
2, 263438, Control_c, 0, 64, 63
2, 263458, Control_c, 0, 64, 66
2, 263478, Control_c, 0, 64, 71
2, 263496, Control_c, 0, 64, 81
2, 263516, Control_c, 0, 64, 108
2, 263534, Control_c, 0, 64, 127
2, 263542, Note_on_c, 0, 75, 0
2, 263766, Control_c, 0, 64, 98
2, 263787, Control_c, 0, 64, 79
2, 263805, Control_c, 0, 64, 69
2, 263809, Note_on_c, 0, 71, 0
2, 263811, Note_on_c, 0, 74, 49
2, 263816, Note_on_c, 0, 70, 41
2, 263823, Control_c, 0, 64, 63
2, 263842, Control_c, 0, 64, 59
2, 263860, Control_c, 0, 64, 58
2, 263899, Control_c, 0, 64, 57
2, 263919, Control_c, 0, 64, 56
2, 263937, Control_c, 0, 64, 55
2, 263957, Control_c, 0, 64, 53
2, 263979, Control_c, 0, 64, 52
2, 264053, Control_c, 0, 64, 51
2, 264094, Control_c, 0, 64, 50
2, 264169, Control_c, 0, 64, 49
2, 264189, Note_on_c, 0, 56, 0
2, 264204, Note_on_c, 0, 54, 47
2, 264204, Note_on_c, 0, 74, 0
2, 264222, Note_on_c, 0, 75, 50
2, 264588, Note_on_c, 0, 54, 0
2, 264588, Note_on_c, 0, 70, 0
2, 264607, Note_on_c, 0, 53, 51
2, 264627, Note_on_c, 0, 68, 49
2, 264898, Control_c, 0, 64, 50
2, 264919, Control_c, 0, 64, 51
2, 264937, Control_c, 0, 64, 54
2, 264955, Control_c, 0, 64, 57
2, 264975, Control_c, 0, 64, 60
2, 264995, Control_c, 0, 64, 63
2, 264999, Note_on_c, 0, 75, 0
2, 265016, Control_c, 0, 64, 67
2, 265025, Note_on_c, 0, 74, 52
2, 265032, Control_c, 0, 64, 72
2, 265053, Control_c, 0, 64, 81
2, 265072, Control_c, 0, 64, 100
2, 265090, Control_c, 0, 64, 127
2, 265134, Note_on_c, 0, 53, 0
2, 265165, Note_on_c, 0, 68, 0
2, 265165, Note_on_c, 0, 74, 0
2, 265438, Control_c, 0, 64, 92
2, 265455, Control_c, 0, 64, 77
2, 265460, Note_on_c, 0, 51, 49
2, 265460, Note_on_c, 0, 75, 53
2, 265478, Control_c, 0, 64, 67
2, 265478, Note_on_c, 0, 66, 49
2, 265494, Control_c, 0, 64, 61
2, 265513, Control_c, 0, 64, 58
2, 265589, Control_c, 0, 64, 57
2, 265608, Control_c, 0, 64, 56
2, 265626, Control_c, 0, 64, 55
2, 265667, Control_c, 0, 64, 56
2, 265705, Control_c, 0, 64, 57
2, 265723, Control_c, 0, 64, 58
2, 265742, Control_c, 0, 64, 60
2, 265761, Control_c, 0, 64, 62
2, 265783, Control_c, 0, 64, 64
2, 265801, Control_c, 0, 64, 68
2, 265819, Control_c, 0, 64, 74
2, 265839, Control_c, 0, 64, 88
2, 265859, Control_c, 0, 64, 118
2, 265878, Control_c, 0, 64, 127
2, 265893, Note_on_c, 0, 73, 68
2, 265956, Note_on_c, 0, 75, 0
2, 266155, Note_on_c, 0, 66, 0
2, 266202, Note_on_c, 0, 51, 0
2, 266243, Control_c, 0, 64, 101
2, 266263, Control_c, 0, 64, 80
2, 266267, Note_on_c, 0, 63, 41
2, 266267, Note_on_c, 0, 68, 68
2, 266277, Note_on_c, 0, 71, 66
2, 266284, Control_c, 0, 64, 68
2, 266284, Note_on_c, 0, 73, 0
2, 266299, Control_c, 0, 64, 61
2, 266321, Control_c, 0, 64, 57
2, 266338, Control_c, 0, 64, 56
2, 266358, Control_c, 0, 64, 55
2, 266377, Control_c, 0, 64, 54
2, 266395, Control_c, 0, 64, 52
2, 266413, Control_c, 0, 64, 50
2, 266434, Control_c, 0, 64, 48
2, 266456, Control_c, 0, 64, 47
2, 266549, Control_c, 0, 64, 48
2, 266569, Control_c, 0, 64, 49
2, 266590, Control_c, 0, 64, 51
2, 266606, Control_c, 0, 64, 55
2, 266625, Control_c, 0, 64, 59
2, 266645, Control_c, 0, 64, 61
2, 266668, Control_c, 0, 64, 63
2, 266685, Control_c, 0, 64, 66
2, 266701, Note_on_c, 0, 68, 0
2, 266703, Control_c, 0, 64, 69
2, 266712, Note_on_c, 0, 66, 65
2, 266723, Control_c, 0, 64, 75
2, 266744, Control_c, 0, 64, 85
2, 266762, Control_c, 0, 64, 97
2, 266780, Control_c, 0, 64, 118
2, 266802, Control_c, 0, 64, 127
2, 267041, Note_on_c, 0, 66, 0
2, 267048, Control_c, 0, 64, 109
2, 267068, Control_c, 0, 64, 93
2, 267088, Control_c, 0, 64, 78
2, 267092, Note_on_c, 0, 65, 60
2, 267106, Control_c, 0, 64, 69
2, 267123, Note_on_c, 0, 62, 46
2, 267127, Control_c, 0, 64, 63
2, 267127, Note_on_c, 0, 63, 0
2, 267144, Control_c, 0, 64, 59
2, 267165, Control_c, 0, 64, 57
2, 267201, Control_c, 0, 64, 56
2, 267222, Control_c, 0, 64, 55
2, 267242, Control_c, 0, 64, 53
2, 267260, Control_c, 0, 64, 51
2, 267278, Control_c, 0, 64, 49
2, 267296, Control_c, 0, 64, 48
2, 267374, Control_c, 0, 64, 47
2, 267394, Control_c, 0, 64, 46
2, 267413, Control_c, 0, 64, 45
2, 267430, Control_c, 0, 64, 44
2, 267468, Note_on_c, 0, 71, 0
2, 267471, Control_c, 0, 64, 43
2, 267491, Control_c, 0, 64, 42
2, 267495, Note_on_c, 0, 70, 65
2, 267509, Control_c, 0, 64, 41
2, 267528, Control_c, 0, 64, 39
2, 267548, Control_c, 0, 64, 38
2, 267566, Control_c, 0, 64, 36
2, 267586, Control_c, 0, 64, 35
2, 267609, Control_c, 0, 64, 32
2, 267626, Control_c, 0, 64, 29
2, 267646, Control_c, 0, 64, 27
2, 267651, Note_on_c, 0, 70, 0
2, 267664, Control_c, 0, 64, 23
2, 267680, Note_on_c, 0, 68, 61
2, 267684, Control_c, 0, 64, 11
2, 267702, Control_c, 0, 64, 0
2, 267849, Note_on_c, 0, 62, 0
2, 267886, Note_on_c, 0, 68, 0
2, 267897, Note_on_c, 0, 61, 41
2, 267897, Note_on_c, 0, 70, 61
2, 267932, Control_c, 0, 64, 27
2, 267952, Control_c, 0, 64, 45
2, 267970, Control_c, 0, 64, 56
2, 267991, Control_c, 0, 64, 61
2, 268011, Control_c, 0, 64, 63
2, 268029, Control_c, 0, 64, 65
2, 268050, Control_c, 0, 64, 70
2, 268069, Control_c, 0, 64, 76
2, 268087, Control_c, 0, 64, 83
2, 268104, Control_c, 0, 64, 91
2, 268124, Control_c, 0, 64, 98
2, 268144, Control_c, 0, 64, 107
2, 268162, Control_c, 0, 64, 122
2, 268184, Control_c, 0, 64, 127
2, 268207, Note_on_c, 0, 65, 0
2, 268230, Note_on_c, 0, 70, 0
2, 268251, Note_on_c, 0, 61, 0
2, 268292, Note_on_c, 0, 71, 64
2, 268301, Note_on_c, 0, 63, 55
2, 268450, Control_c, 0, 64, 122
2, 268461, Note_on_c, 0, 63, 0
2, 268478, Note_on_c, 0, 73, 79
2, 268488, Note_on_c, 0, 65, 56
2, 268502, Note_on_c, 0, 71, 0
2, 268603, Control_c, 0, 64, 116
2, 268624, Control_c, 0, 64, 100
2, 268643, Control_c, 0, 64, 81
2, 268665, Control_c, 0, 64, 67
2, 268678, Note_on_c, 0, 65, 0
2, 268679, Control_c, 0, 64, 57
2, 268704, Control_c, 0, 64, 50
2, 268704, Note_on_c, 0, 66, 58
2, 268704, Note_on_c, 0, 75, 80
2, 268713, Note_on_c, 0, 60, 46
2, 268720, Control_c, 0, 64, 47
2, 268726, Note_on_c, 0, 73, 0
2, 268739, Control_c, 0, 64, 48
2, 268759, Control_c, 0, 64, 50
2, 268777, Control_c, 0, 64, 55
2, 268795, Control_c, 0, 64, 59
2, 268815, Control_c, 0, 64, 62
2, 268835, Control_c, 0, 64, 63
2, 268855, Control_c, 0, 64, 65
2, 268872, Control_c, 0, 64, 69
2, 268892, Control_c, 0, 64, 73
2, 268912, Control_c, 0, 64, 79
2, 268931, Control_c, 0, 64, 85
2, 268949, Control_c, 0, 64, 89
2, 268968, Control_c, 0, 64, 91
2, 269003, Note_on_c, 0, 66, 0
2, 269009, Control_c, 0, 64, 92
2, 269026, Control_c, 0, 64, 93
2, 269046, Control_c, 0, 64, 94
2, 269050, Note_on_c, 0, 75, 0
2, 269081, Note_on_c, 0, 68, 64
2, 269085, Note_on_c, 0, 77, 77
2, 269113, Note_on_c, 0, 60, 0
2, 269122, Control_c, 0, 64, 95
2, 269140, Control_c, 0, 64, 96
2, 269160, Control_c, 0, 64, 97
2, 269178, Control_c, 0, 64, 100
2, 269198, Control_c, 0, 64, 104
2, 269221, Control_c, 0, 64, 120
2, 269232, Note_on_c, 0, 77, 0
2, 269238, Note_on_c, 0, 68, 0
2, 269238, Note_on_c, 0, 78, 83
2, 269243, Control_c, 0, 64, 127
2, 269266, Note_on_c, 0, 70, 54
2, 269325, Note_on_c, 0, 70, 0
2, 269353, Note_on_c, 0, 78, 0
2, 269429, Control_c, 0, 64, 100
2, 269450, Control_c, 0, 64, 74
2, 269457, Note_on_c, 0, 59, 48
2, 269470, Control_c, 0, 64, 62
2, 269489, Control_c, 0, 64, 52
2, 269507, Control_c, 0, 64, 48
2, 269522, Note_on_c, 0, 77, 68
2, 269527, Control_c, 0, 64, 50
2, 269538, Note_on_c, 0, 68, 64
2, 269545, Control_c, 0, 64, 54
2, 269562, Control_c, 0, 64, 59
2, 269585, Control_c, 0, 64, 62
2, 269585, Note_on_c, 0, 77, 0
2, 269604, Control_c, 0, 64, 64
2, 269619, Control_c, 0, 64, 66
2, 269640, Control_c, 0, 64, 70
2, 269651, Note_on_c, 0, 68, 0
2, 269662, Control_c, 0, 64, 76
2, 269679, Control_c, 0, 64, 84
2, 269697, Control_c, 0, 64, 94
2, 269717, Control_c, 0, 64, 100
2, 269722, Note_on_c, 0, 70, 61
2, 269737, Control_c, 0, 64, 102
2, 269756, Control_c, 0, 64, 103
2, 269767, Note_on_c, 0, 70, 0
2, 269775, Control_c, 0, 64, 104
2, 269782, Note_on_c, 0, 59, 0
2, 269798, Control_c, 0, 64, 107
2, 269800, Note_on_c, 0, 68, 63
2, 269814, Control_c, 0, 64, 109
2, 269831, Control_c, 0, 64, 115
2, 269847, Note_on_c, 0, 68, 0
2, 269851, Control_c, 0, 64, 122
2, 269860, Note_on_c, 0, 70, 72
2, 269874, Control_c, 0, 64, 127
2, 269908, Note_on_c, 0, 70, 0
2, 269938, Note_on_c, 0, 68, 71
2, 269992, Note_on_c, 0, 68, 0
2, 270019, Note_on_c, 0, 70, 64
2, 270063, Note_on_c, 0, 70, 0
2, 270089, Note_on_c, 0, 66, 66
2, 270094, Note_on_c, 0, 75, 72
2, 270164, Note_on_c, 0, 66, 0
2, 270170, Note_on_c, 0, 68, 77
2, 270206, Note_on_c, 0, 75, 0
2, 270217, Control_c, 0, 64, 112
2, 270234, Control_c, 0, 64, 88
2, 270254, Control_c, 0, 64, 70
2, 270271, Control_c, 0, 64, 61
2, 270290, Control_c, 0, 64, 53
2, 270303, Note_on_c, 0, 74, 72
2, 270314, Control_c, 0, 64, 48
2, 270314, Note_on_c, 0, 70, 70
2, 270332, Control_c, 0, 64, 45
2, 270332, Note_on_c, 0, 58, 63
2, 270336, Note_on_c, 0, 68, 0
2, 270347, Control_c, 0, 64, 43
2, 270675, Control_c, 0, 64, 42
2, 270679, Note_on_c, 0, 58, 0
2, 270712, Control_c, 0, 64, 41
2, 270735, Control_c, 0, 64, 40
2, 270735, Note_on_c, 0, 46, 76
2, 270739, Note_on_c, 0, 70, 0
2, 270749, Note_on_c, 0, 68, 64
2, 270751, Control_c, 0, 64, 39
2, 270788, Control_c, 0, 64, 40
2, 270808, Control_c, 0, 64, 42
2, 270813, Note_on_c, 0, 74, 0
2, 270828, Control_c, 0, 64, 46
2, 270847, Control_c, 0, 64, 50
2, 270865, Control_c, 0, 64, 52
2, 270903, Note_on_c, 0, 46, 0
2, 270923, Control_c, 0, 64, 51
2, 271041, Control_c, 0, 64, 50
2, 271098, Control_c, 0, 64, 49
2, 271112, Note_on_c, 0, 68, 0
2, 271116, Control_c, 0, 64, 48
2, 271135, Control_c, 0, 64, 46
2, 271158, Note_on_c, 0, 51, 74
2, 271158, Note_on_c, 0, 75, 58
2, 271162, Control_c, 0, 64, 45
2, 271162, Note_on_c, 0, 66, 57
2, 271173, Control_c, 0, 64, 43
2, 271231, Control_c, 0, 64, 45
2, 271250, Control_c, 0, 64, 50
2, 271270, Control_c, 0, 64, 56
2, 271289, Control_c, 0, 64, 60
2, 271308, Control_c, 0, 64, 63
2, 271330, Control_c, 0, 64, 65
2, 271347, Control_c, 0, 64, 69
2, 271365, Control_c, 0, 64, 76
2, 271387, Control_c, 0, 64, 91
2, 271403, Control_c, 0, 64, 127
2, 271459, Note_on_c, 0, 66, 0
2, 271519, Control_c, 0, 64, 102
2, 271539, Control_c, 0, 64, 77
2, 271560, Control_c, 0, 64, 65
2, 271560, Note_on_c, 0, 73, 68
2, 271565, Note_on_c, 0, 65, 58
2, 271565, Note_on_c, 0, 75, 0
2, 271577, Control_c, 0, 64, 57
2, 271596, Control_c, 0, 64, 55
2, 271618, Control_c, 0, 64, 56
2, 271634, Control_c, 0, 64, 59
2, 271653, Control_c, 0, 64, 62
2, 271673, Control_c, 0, 64, 64
2, 271693, Control_c, 0, 64, 68
2, 271712, Control_c, 0, 64, 73
2, 271729, Control_c, 0, 64, 83
2, 271749, Control_c, 0, 64, 100
2, 271767, Note_on_c, 0, 65, 0
2, 271771, Control_c, 0, 64, 127
2, 271940, Control_c, 0, 64, 115
2, 271964, Control_c, 0, 64, 80
2, 271970, Note_on_c, 0, 71, 64
2, 271975, Note_on_c, 0, 73, 0
2, 271980, Control_c, 0, 64, 65
2, 271985, Note_on_c, 0, 63, 54
2, 272003, Control_c, 0, 64, 57
2, 272017, Control_c, 0, 64, 55
2, 272037, Control_c, 0, 64, 57
2, 272056, Control_c, 0, 64, 60
2, 272076, Control_c, 0, 64, 62
2, 272093, Control_c, 0, 64, 64
2, 272115, Control_c, 0, 64, 65
2, 272135, Control_c, 0, 64, 67
2, 272152, Control_c, 0, 64, 69
2, 272173, Control_c, 0, 64, 72
2, 272194, Control_c, 0, 64, 75
2, 272212, Control_c, 0, 64, 78
2, 272233, Control_c, 0, 64, 79
2, 272270, Control_c, 0, 64, 78
2, 272312, Control_c, 0, 64, 75
2, 272328, Control_c, 0, 64, 69
2, 272348, Control_c, 0, 64, 62
2, 272366, Control_c, 0, 64, 55
2, 272370, Note_on_c, 0, 54, 74
2, 272381, Note_on_c, 0, 51, 0
2, 272385, Note_on_c, 0, 71, 0
2, 272390, Control_c, 0, 64, 51
2, 272390, Note_on_c, 0, 70, 66
2, 272408, Control_c, 0, 64, 48
2, 272446, Control_c, 0, 64, 52
2, 272462, Control_c, 0, 64, 58
2, 272482, Control_c, 0, 64, 63
2, 272501, Control_c, 0, 64, 66
2, 272521, Control_c, 0, 64, 70
2, 272541, Control_c, 0, 64, 77
2, 272563, Control_c, 0, 64, 88
2, 272583, Control_c, 0, 64, 107
2, 272599, Control_c, 0, 64, 127
2, 272632, Note_on_c, 0, 63, 0
2, 272775, Note_on_c, 0, 70, 0
2, 272802, Note_on_c, 0, 68, 65
2, 272812, Control_c, 0, 64, 103
2, 272812, Note_on_c, 0, 62, 60
2, 272814, Note_on_c, 0, 53, 61
2, 272821, Note_on_c, 0, 54, 0
2, 272830, Control_c, 0, 64, 84
2, 272853, Control_c, 0, 64, 71
2, 272870, Control_c, 0, 64, 61
2, 272888, Control_c, 0, 64, 56
2, 272908, Control_c, 0, 64, 53
2, 272926, Control_c, 0, 64, 52
2, 272965, Control_c, 0, 64, 51
2, 272983, Control_c, 0, 64, 50
2, 273003, Control_c, 0, 64, 48
2, 273023, Control_c, 0, 64, 46
2, 273042, Control_c, 0, 64, 44
2, 273099, Control_c, 0, 64, 43
2, 273117, Control_c, 0, 64, 42
2, 273195, Control_c, 0, 64, 43
2, 273200, Note_on_c, 0, 68, 0
2, 273207, Note_on_c, 0, 62, 0
2, 273211, Note_on_c, 0, 53, 0
2, 273219, Control_c, 0, 64, 45
2, 273219, Note_on_c, 0, 51, 68
2, 273223, Note_on_c, 0, 66, 52
2, 273234, Control_c, 0, 64, 50
2, 273246, Note_on_c, 0, 63, 49
2, 273252, Control_c, 0, 64, 57
2, 273272, Control_c, 0, 64, 61
2, 273291, Control_c, 0, 64, 63
2, 273311, Control_c, 0, 64, 65
2, 273329, Control_c, 0, 64, 68
2, 273349, Control_c, 0, 64, 72
2, 273369, Control_c, 0, 64, 77
2, 273390, Control_c, 0, 64, 83
2, 273406, Control_c, 0, 64, 87
2, 273421, Note_on_c, 0, 63, 0
2, 273425, Control_c, 0, 64, 95
2, 273445, Control_c, 0, 64, 97
2, 273501, Control_c, 0, 64, 96
2, 273520, Control_c, 0, 64, 94
2, 273542, Control_c, 0, 64, 92
2, 273559, Control_c, 0, 64, 86
2, 273579, Control_c, 0, 64, 80
2, 273600, Control_c, 0, 64, 72
2, 273612, Note_on_c, 0, 50, 63
2, 273614, Note_on_c, 0, 51, 0
2, 273618, Control_c, 0, 64, 64
2, 273618, Note_on_c, 0, 66, 0
2, 273624, Note_on_c, 0, 65, 53
2, 273639, Control_c, 0, 64, 59
2, 273657, Control_c, 0, 64, 55
2, 273677, Control_c, 0, 64, 54
2, 273695, Control_c, 0, 64, 52
2, 273715, Control_c, 0, 64, 51
2, 273733, Control_c, 0, 64, 50
2, 273753, Control_c, 0, 64, 48
2, 273770, Control_c, 0, 64, 46
2, 273791, Control_c, 0, 64, 45
2, 273867, Control_c, 0, 64, 44
2, 273924, Control_c, 0, 64, 43
2, 274012, Note_on_c, 0, 65, 0
2, 274038, Note_on_c, 0, 51, 67
2, 274046, Note_on_c, 0, 50, 0
2, 274055, Note_on_c, 0, 66, 50
2, 274066, Note_on_c, 0, 63, 43
2, 274434, Note_on_c, 0, 66, 0
2, 274451, Note_on_c, 0, 68, 59
2, 274461, Note_on_c, 0, 53, 62
2, 274465, Note_on_c, 0, 62, 51
2, 274484, Note_on_c, 0, 51, 0
2, 274495, Note_on_c, 0, 63, 0
2, 274673, Control_c, 0, 64, 44
2, 274693, Control_c, 0, 64, 45
2, 274711, Control_c, 0, 64, 47
2, 274731, Control_c, 0, 64, 51
2, 274749, Control_c, 0, 64, 57
2, 274769, Control_c, 0, 64, 61
2, 274787, Control_c, 0, 64, 64
2, 274807, Control_c, 0, 64, 67
2, 274828, Control_c, 0, 64, 73
2, 274847, Control_c, 0, 64, 87
2, 274865, Control_c, 0, 64, 127
2, 274887, Note_on_c, 0, 62, 0
2, 274925, Note_on_c, 0, 60, 51
2, 275013, Note_on_c, 0, 53, 0
2, 275225, Note_on_c, 0, 60, 0
2, 275231, Control_c, 0, 64, 95
2, 275249, Control_c, 0, 64, 77
2, 275269, Control_c, 0, 64, 65
2, 275290, Control_c, 0, 64, 57
2, 275290, Note_on_c, 0, 46, 60
2, 275296, Note_on_c, 0, 62, 50
2, 275307, Control_c, 0, 64, 53
2, 275327, Control_c, 0, 64, 52
2, 275441, Control_c, 0, 64, 53
2, 275461, Control_c, 0, 64, 54
2, 275482, Control_c, 0, 64, 56
2, 275508, Note_on_c, 0, 62, 0
2, 275519, Control_c, 0, 64, 57
2, 275536, Control_c, 0, 64, 58
2, 275557, Control_c, 0, 64, 60
2, 275577, Control_c, 0, 64, 62
2, 275595, Control_c, 0, 64, 64
2, 275615, Control_c, 0, 64, 66
2, 275633, Control_c, 0, 64, 69
2, 275654, Control_c, 0, 64, 75
2, 275674, Control_c, 0, 64, 82
2, 275692, Control_c, 0, 64, 91
2, 275707, Note_on_c, 0, 66, 67
2, 275711, Control_c, 0, 64, 101
2, 275729, Control_c, 0, 64, 108
2, 275741, Note_on_c, 0, 68, 0
2, 275749, Control_c, 0, 64, 109
2, 275807, Note_on_c, 0, 46, 0
2, 275845, Control_c, 0, 64, 108
2, 275864, Control_c, 0, 64, 106
2, 275875, Note_on_c, 0, 65, 72
2, 275884, Control_c, 0, 64, 103
2, 275893, Note_on_c, 0, 66, 0
2, 275905, Control_c, 0, 64, 100
2, 275921, Control_c, 0, 64, 98
2, 275941, Control_c, 0, 64, 96
2, 275959, Control_c, 0, 64, 94
2, 275979, Control_c, 0, 64, 93
2, 275998, Control_c, 0, 64, 91
2, 276019, Control_c, 0, 64, 89
2, 276040, Control_c, 0, 64, 86
2, 276055, Control_c, 0, 64, 84
2, 276075, Control_c, 0, 64, 80
2, 276091, Note_on_c, 0, 66, 66
2, 276095, Control_c, 0, 64, 74
2, 276104, Note_on_c, 0, 51, 76
2, 276104, Note_on_c, 0, 63, 58
2, 276104, Note_on_c, 0, 65, 0
2, 276114, Control_c, 0, 64, 68
2, 276134, Control_c, 0, 64, 62
2, 276152, Control_c, 0, 64, 58
2, 276170, Control_c, 0, 64, 56
2, 276192, Control_c, 0, 64, 55
2, 276211, Control_c, 0, 64, 54
2, 276232, Control_c, 0, 64, 52
2, 276247, Control_c, 0, 64, 49
2, 276268, Control_c, 0, 64, 47
2, 276287, Control_c, 0, 64, 44
2, 276305, Control_c, 0, 64, 41
2, 276324, Control_c, 0, 64, 39
2, 276346, Control_c, 0, 64, 37
2, 276364, Control_c, 0, 64, 33
2, 276383, Control_c, 0, 64, 28
2, 276401, Control_c, 0, 64, 22
2, 276421, Control_c, 0, 64, 15
2, 276441, Control_c, 0, 64, 0
2, 276507, Note_on_c, 0, 68, 79
2, 276516, Note_on_c, 0, 65, 65
2, 276535, Note_on_c, 0, 66, 0
2, 276550, Note_on_c, 0, 63, 0
2, 276879, Note_on_c, 0, 68, 0
2, 276904, Note_on_c, 0, 70, 78
2, 276913, Note_on_c, 0, 66, 68
2, 276928, Note_on_c, 0, 65, 0
2, 277151, Control_c, 0, 64, 13
2, 277169, Control_c, 0, 64, 32
2, 277191, Control_c, 0, 64, 44
2, 277211, Control_c, 0, 64, 54
2, 277228, Control_c, 0, 64, 60
2, 277247, Control_c, 0, 64, 62
2, 277265, Control_c, 0, 64, 63
2, 277286, Control_c, 0, 64, 65
2, 277305, Note_on_c, 0, 66, 0
2, 277310, Control_c, 0, 64, 68
2, 277324, Control_c, 0, 64, 73
2, 277332, Note_on_c, 0, 70, 0
2, 277342, Control_c, 0, 64, 79
2, 277342, Note_on_c, 0, 49, 80
2, 277361, Control_c, 0, 64, 85
2, 277369, Note_on_c, 0, 51, 0
2, 277381, Control_c, 0, 64, 88
2, 277401, Control_c, 0, 64, 89
2, 277556, Control_c, 0, 64, 88
2, 277596, Control_c, 0, 64, 86
2, 277612, Control_c, 0, 64, 85
2, 277630, Control_c, 0, 64, 82
2, 277650, Control_c, 0, 64, 79
2, 277670, Control_c, 0, 64, 75
2, 277687, Control_c, 0, 64, 68
2, 277707, Control_c, 0, 64, 63
2, 277726, Control_c, 0, 64, 58
2, 277749, Control_c, 0, 64, 53
2, 277749, Note_on_c, 0, 71, 78
2, 277755, Note_on_c, 0, 47, 68
2, 277757, Note_on_c, 0, 49, 0
2, 277762, Note_on_c, 0, 68, 75
2, 277764, Control_c, 0, 64, 49
2, 277782, Control_c, 0, 64, 45
2, 277800, Control_c, 0, 64, 42
2, 277820, Control_c, 0, 64, 39
2, 277838, Control_c, 0, 64, 36
2, 277858, Control_c, 0, 64, 33
2, 277876, Control_c, 0, 64, 30
2, 277896, Control_c, 0, 64, 29
2, 278056, Note_on_c, 0, 68, 0
2, 278140, Note_on_c, 0, 73, 80
2, 278153, Note_on_c, 0, 71, 0
2, 278169, Note_on_c, 0, 66, 66
2, 278184, Control_c, 0, 64, 32
2, 278203, Control_c, 0, 64, 35
2, 278223, Control_c, 0, 64, 41
2, 278242, Control_c, 0, 64, 50
2, 278262, Control_c, 0, 64, 56
2, 278280, Control_c, 0, 64, 59
2, 278301, Control_c, 0, 64, 61
2, 278315, Note_on_c, 0, 75, 81
2, 278319, Control_c, 0, 64, 62
2, 278338, Control_c, 0, 64, 63
2, 278359, Control_c, 0, 64, 65
2, 278359, Note_on_c, 0, 73, 0
2, 278377, Control_c, 0, 64, 67
2, 278387, Note_on_c, 0, 66, 0
2, 278396, Control_c, 0, 64, 71
2, 278414, Control_c, 0, 64, 76
2, 278434, Control_c, 0, 64, 79
2, 278455, Control_c, 0, 64, 80
2, 278493, Control_c, 0, 64, 78
2, 278511, Control_c, 0, 64, 72
2, 278531, Control_c, 0, 64, 66
2, 278549, Control_c, 0, 64, 60
2, 278554, Note_on_c, 0, 68, 82
2, 278564, Note_on_c, 0, 65, 66
2, 278571, Control_c, 0, 64, 54
2, 278587, Note_on_c, 0, 75, 0
2, 278591, Control_c, 0, 64, 51
2, 278606, Control_c, 0, 64, 50
2, 278629, Control_c, 0, 64, 49
2, 278663, Control_c, 0, 64, 50
2, 278683, Control_c, 0, 64, 52
2, 278703, Control_c, 0, 64, 56
2, 278721, Control_c, 0, 64, 61
2, 278741, Control_c, 0, 64, 64
2, 278761, Control_c, 0, 64, 68
2, 278768, Note_on_c, 0, 65, 0
2, 278778, Control_c, 0, 64, 80
2, 278800, Control_c, 0, 64, 98
2, 278818, Control_c, 0, 64, 127
2, 278980, Note_on_c, 0, 61, 58
2, 279064, Note_on_c, 0, 61, 0
2, 279318, Control_c, 0, 64, 102
2, 279336, Control_c, 0, 64, 85
2, 279354, Control_c, 0, 64, 73
2, 279365, Note_on_c, 0, 47, 0
2, 279370, Note_on_c, 0, 68, 0
2, 279374, Control_c, 0, 64, 64
2, 279396, Note_on_c, 0, 66, 60
2, 279401, Control_c, 0, 64, 59
2, 279401, Note_on_c, 0, 46, 43
2, 279414, Control_c, 0, 64, 57
2, 279434, Control_c, 0, 64, 56
2, 279470, Control_c, 0, 64, 54
2, 279490, Control_c, 0, 64, 53
2, 279508, Control_c, 0, 64, 50
2, 279528, Control_c, 0, 64, 48
2, 279548, Control_c, 0, 64, 45
2, 279567, Control_c, 0, 64, 43
2, 279584, Control_c, 0, 64, 42
2, 279604, Control_c, 0, 64, 41
2, 279643, Control_c, 0, 64, 40
2, 279661, Control_c, 0, 64, 39
2, 279778, Control_c, 0, 64, 40
2, 279798, Control_c, 0, 64, 44
2, 279811, Note_on_c, 0, 70, 55
2, 279820, Control_c, 0, 64, 50
2, 279835, Control_c, 0, 64, 57
2, 279856, Control_c, 0, 64, 62
2, 279874, Control_c, 0, 64, 64
2, 279892, Control_c, 0, 64, 66
2, 279912, Control_c, 0, 64, 68
2, 279912, Note_on_c, 0, 70, 0
2, 279931, Control_c, 0, 64, 72
2, 279949, Control_c, 0, 64, 76
2, 279969, Control_c, 0, 64, 81
2, 279989, Control_c, 0, 64, 85
2, 280010, Control_c, 0, 64, 88
2, 280145, Control_c, 0, 64, 87
2, 280160, Control_c, 0, 64, 85
2, 280181, Control_c, 0, 64, 83
2, 280187, Note_on_c, 0, 46, 0
2, 280200, Control_c, 0, 64, 80
2, 280220, Control_c, 0, 64, 76
2, 280228, Note_on_c, 0, 44, 49
2, 280228, Note_on_c, 0, 71, 55
2, 280237, Control_c, 0, 64, 71
2, 280257, Control_c, 0, 64, 66
2, 280279, Control_c, 0, 64, 62
2, 280297, Control_c, 0, 64, 59
2, 280316, Control_c, 0, 64, 57
2, 280337, Control_c, 0, 64, 56
2, 280353, Control_c, 0, 64, 54
2, 280374, Control_c, 0, 64, 53
2, 280391, Control_c, 0, 64, 51
2, 280411, Control_c, 0, 64, 48
2, 280429, Control_c, 0, 64, 46
2, 280449, Control_c, 0, 64, 45
2, 280487, Control_c, 0, 64, 44
2, 280569, Control_c, 0, 64, 45
2, 280586, Control_c, 0, 64, 48
2, 280590, Note_on_c, 0, 44, 0
2, 280603, Control_c, 0, 64, 54
2, 280626, Control_c, 0, 64, 59
2, 280630, Note_on_c, 0, 46, 44
2, 280630, Note_on_c, 0, 71, 0
2, 280639, Note_on_c, 0, 73, 65
2, 280642, Control_c, 0, 64, 63
2, 280661, Control_c, 0, 64, 65
2, 280679, Control_c, 0, 64, 69
2, 280701, Control_c, 0, 64, 77
2, 280718, Control_c, 0, 64, 90
2, 280741, Control_c, 0, 64, 110
2, 280756, Control_c, 0, 64, 127
2, 280792, Note_on_c, 0, 73, 0
2, 280808, Note_on_c, 0, 66, 0
2, 280987, Control_c, 0, 64, 110
2, 281007, Control_c, 0, 64, 94
2, 281028, Control_c, 0, 64, 81
2, 281042, Note_on_c, 0, 46, 0
2, 281046, Control_c, 0, 64, 69
2, 281068, Note_on_c, 0, 47, 42
2, 281068, Note_on_c, 0, 65, 58
2, 281070, Control_c, 0, 64, 62
2, 281070, Note_on_c, 0, 75, 61
2, 281087, Control_c, 0, 64, 56
2, 281102, Control_c, 0, 64, 51
2, 281120, Control_c, 0, 64, 43
2, 281142, Control_c, 0, 64, 26
2, 281160, Control_c, 0, 64, 0
2, 281391, Control_c, 0, 64, 32
2, 281408, Control_c, 0, 64, 53
2, 281427, Control_c, 0, 64, 64
2, 281451, Control_c, 0, 64, 70
2, 281451, Note_on_c, 0, 77, 77
2, 281462, Note_on_c, 0, 47, 0
2, 281469, Control_c, 0, 64, 85
2, 281479, Note_on_c, 0, 49, 53
2, 281479, Note_on_c, 0, 75, 0
2, 281489, Control_c, 0, 64, 127
2, 281518, Note_on_c, 0, 65, 0
2, 281524, Note_on_c, 0, 49, 0
2, 281557, Note_on_c, 0, 77, 0
2, 281853, Note_on_c, 0, 51, 60
2, 281868, Note_on_c, 0, 78, 86
2, 282215, Control_c, 0, 64, 116
2, 282235, Control_c, 0, 64, 89
2, 282254, Control_c, 0, 64, 74
2, 282269, Note_on_c, 0, 53, 69
2, 282275, Control_c, 0, 64, 65
2, 282275, Note_on_c, 0, 80, 89
2, 282278, Note_on_c, 0, 51, 0
2, 282293, Control_c, 0, 64, 62
2, 282334, Control_c, 0, 64, 63
2, 282339, Note_on_c, 0, 78, 0
2, 282350, Control_c, 0, 64, 66
2, 282370, Control_c, 0, 64, 71
2, 282391, Control_c, 0, 64, 83
2, 282409, Control_c, 0, 64, 122
2, 282427, Control_c, 0, 64, 127
2, 282443, Note_on_c, 0, 53, 0
2, 282693, Note_on_c, 0, 82, 87
2, 282702, Note_on_c, 0, 63, 59
2, 282716, Control_c, 0, 64, 99
2, 282718, Note_on_c, 0, 54, 50
2, 282734, Control_c, 0, 64, 84
2, 282739, Note_on_c, 0, 80, 0
2, 282754, Control_c, 0, 64, 73
2, 282772, Control_c, 0, 64, 65
2, 282791, Control_c, 0, 64, 60
2, 282812, Control_c, 0, 64, 58
2, 282832, Control_c, 0, 64, 57
2, 282848, Control_c, 0, 64, 56
2, 282869, Control_c, 0, 64, 55
2, 282888, Control_c, 0, 64, 54
2, 282908, Control_c, 0, 64, 52
2, 282966, Control_c, 0, 64, 51
2, 283041, Control_c, 0, 64, 50
2, 283061, Control_c, 0, 64, 49
2, 283099, Control_c, 0, 64, 48
2, 283134, Note_on_c, 0, 54, 0
2, 283141, Note_on_c, 0, 56, 52
2, 283141, Note_on_c, 0, 83, 68
2, 283150, Note_on_c, 0, 82, 0
2, 283156, Control_c, 0, 64, 47
2, 283177, Control_c, 0, 64, 46
2, 283197, Control_c, 0, 64, 43
2, 283215, Control_c, 0, 64, 41
2, 283233, Control_c, 0, 64, 38
2, 283254, Control_c, 0, 64, 36
2, 283273, Control_c, 0, 64, 34
2, 283291, Control_c, 0, 64, 33
2, 283388, Control_c, 0, 64, 32
2, 283435, Note_on_c, 0, 83, 0
2, 283520, Note_on_c, 0, 56, 0
2, 283531, Note_on_c, 0, 58, 49
2, 283535, Note_on_c, 0, 61, 50
2, 283625, Note_on_c, 0, 63, 0
2, 283751, Control_c, 0, 64, 31
2, 283791, Control_c, 0, 64, 30
2, 283850, Control_c, 0, 64, 29
2, 283900, Note_on_c, 0, 58, 0
2, 283937, Note_on_c, 0, 61, 0
2, 283943, Control_c, 0, 64, 30
2, 283962, Control_c, 0, 64, 34
2, 283973, Note_on_c, 0, 56, 35
2, 283977, Note_on_c, 0, 65, 45
2, 283977, Note_on_c, 0, 73, 75
2, 283982, Control_c, 0, 64, 43
2, 284002, Control_c, 0, 64, 52
2, 284020, Control_c, 0, 64, 60
2, 284040, Control_c, 0, 64, 63
2, 284059, Control_c, 0, 64, 65
2, 284080, Control_c, 0, 64, 69
2, 284097, Control_c, 0, 64, 76
2, 284118, Control_c, 0, 64, 88
2, 284135, Control_c, 0, 64, 104
2, 284156, Control_c, 0, 64, 127
2, 284177, Note_on_c, 0, 73, 0
2, 284184, Note_on_c, 0, 65, 0
2, 284238, Note_on_c, 0, 56, 0
2, 284328, Control_c, 0, 64, 116
2, 284348, Control_c, 0, 64, 90
2, 284366, Control_c, 0, 64, 72
2, 284385, Control_c, 0, 64, 62
2, 284405, Control_c, 0, 64, 54
2, 284420, Note_on_c, 0, 78, 64
2, 284425, Control_c, 0, 64, 50
2, 284434, Note_on_c, 0, 58, 38
2, 284438, Note_on_c, 0, 66, 52
2, 284483, Control_c, 0, 64, 52
2, 284503, Control_c, 0, 64, 54
2, 284521, Control_c, 0, 64, 57
2, 284539, Control_c, 0, 64, 60
2, 284558, Control_c, 0, 64, 62
2, 284577, Control_c, 0, 64, 64
2, 284597, Control_c, 0, 64, 66
2, 284610, Note_on_c, 0, 66, 0
2, 284617, Control_c, 0, 64, 69
2, 284636, Control_c, 0, 64, 73
2, 284654, Control_c, 0, 64, 78
2, 284674, Control_c, 0, 64, 83
2, 284693, Control_c, 0, 64, 87
2, 284713, Control_c, 0, 64, 88
2, 284769, Control_c, 0, 64, 87
2, 284787, Note_on_c, 0, 58, 0
2, 284792, Control_c, 0, 64, 85
2, 284808, Control_c, 0, 64, 83
2, 284826, Control_c, 0, 64, 80
2, 284833, Note_on_c, 0, 59, 49
2, 284847, Control_c, 0, 64, 74
2, 284847, Note_on_c, 0, 68, 63
2, 284865, Control_c, 0, 64, 68
2, 284884, Control_c, 0, 64, 63
2, 284904, Control_c, 0, 64, 60
2, 284922, Control_c, 0, 64, 59
2, 284960, Control_c, 0, 64, 58
2, 284983, Control_c, 0, 64, 57
2, 285001, Control_c, 0, 64, 56
2, 285021, Control_c, 0, 64, 55
2, 285038, Control_c, 0, 64, 54
2, 285114, Control_c, 0, 64, 53
2, 285173, Note_on_c, 0, 59, 0
2, 285231, Control_c, 0, 64, 52
2, 285233, Note_on_c, 0, 68, 0
2, 285255, Note_on_c, 0, 61, 31
2, 285255, Note_on_c, 0, 70, 58
2, 285268, Control_c, 0, 64, 51
2, 285308, Control_c, 0, 64, 50
2, 285326, Control_c, 0, 64, 49
2, 285346, Control_c, 0, 64, 48
2, 285366, Control_c, 0, 64, 47
2, 285385, Control_c, 0, 64, 46
2, 285402, Control_c, 0, 64, 45
2, 285422, Control_c, 0, 64, 44
2, 285499, Control_c, 0, 64, 43
2, 285574, Control_c, 0, 64, 44
2, 285595, Control_c, 0, 64, 46
2, 285616, Control_c, 0, 64, 51
2, 285635, Control_c, 0, 64, 56
2, 285642, Note_on_c, 0, 61, 0
2, 285653, Control_c, 0, 64, 59
2, 285657, Note_on_c, 0, 70, 0
2, 285671, Note_on_c, 0, 71, 71
2, 285675, Control_c, 0, 64, 60
2, 285691, Control_c, 0, 64, 61
2, 285709, Control_c, 0, 64, 62
2, 285732, Control_c, 0, 64, 63
2, 285747, Control_c, 0, 64, 64
2, 285769, Control_c, 0, 64, 65
2, 285806, Control_c, 0, 64, 66
2, 285829, Control_c, 0, 64, 67
2, 285844, Control_c, 0, 64, 68
2, 285863, Control_c, 0, 64, 69
2, 285885, Control_c, 0, 64, 70
2, 285952, Note_on_c, 0, 78, 0
2, 285960, Control_c, 0, 64, 71
2, 286017, Control_c, 0, 64, 70
2, 286077, Control_c, 0, 64, 69
2, 286090, Note_on_c, 0, 77, 67
2, 286094, Control_c, 0, 64, 68
2, 286094, Note_on_c, 0, 73, 70
2, 286115, Control_c, 0, 64, 66
2, 286115, Note_on_c, 0, 49, 50
2, 286133, Control_c, 0, 64, 63
2, 286137, Note_on_c, 0, 71, 0
2, 286153, Control_c, 0, 64, 59
2, 286171, Control_c, 0, 64, 57
2, 286190, Control_c, 0, 64, 56
2, 286208, Control_c, 0, 64, 55
2, 286248, Control_c, 0, 64, 56
2, 286267, Control_c, 0, 64, 57
2, 286286, Control_c, 0, 64, 59
2, 286308, Control_c, 0, 64, 61
2, 286324, Control_c, 0, 64, 62
2, 286344, Control_c, 0, 64, 63
2, 286364, Control_c, 0, 64, 64
2, 286381, Control_c, 0, 64, 66
2, 286402, Control_c, 0, 64, 69
2, 286420, Control_c, 0, 64, 73
2, 286440, Control_c, 0, 64, 77
2, 286459, Control_c, 0, 64, 82
2, 286478, Control_c, 0, 64, 85
2, 286496, Control_c, 0, 64, 88
2, 286516, Control_c, 0, 64, 90
2, 286518, Note_on_c, 0, 73, 0
2, 286529, Note_on_c, 0, 71, 69
2, 286538, Control_c, 0, 64, 91
2, 286614, Note_on_c, 0, 49, 0
2, 286651, Control_c, 0, 64, 90
2, 286672, Control_c, 0, 64, 88
2, 286691, Control_c, 0, 64, 85
2, 286709, Control_c, 0, 64, 81
2, 286729, Control_c, 0, 64, 77
2, 286750, Control_c, 0, 64, 73
2, 286767, Control_c, 0, 64, 68
2, 286786, Control_c, 0, 64, 64
2, 286804, Control_c, 0, 64, 62
2, 286824, Control_c, 0, 64, 60
2, 286862, Control_c, 0, 64, 59
2, 286882, Control_c, 0, 64, 58
2, 286900, Control_c, 0, 64, 57
2, 286920, Control_c, 0, 64, 56
2, 286940, Control_c, 0, 64, 54
2, 286944, Note_on_c, 0, 70, 66
2, 286949, Note_on_c, 0, 42, 70
2, 286949, Note_on_c, 0, 71, 0
2, 286962, Control_c, 0, 64, 53
2, 286979, Control_c, 0, 64, 52
2, 286998, Control_c, 0, 64, 51
2, 287016, Control_c, 0, 64, 50
2, 287033, Control_c, 0, 64, 48
2, 287113, Control_c, 0, 64, 49
2, 287132, Control_c, 0, 64, 50
2, 287150, Control_c, 0, 64, 51
2, 287168, Control_c, 0, 64, 53
2, 287189, Control_c, 0, 64, 55
2, 287209, Control_c, 0, 64, 57
2, 287226, Control_c, 0, 64, 59
2, 287265, Control_c, 0, 64, 60
2, 287303, Control_c, 0, 64, 61
2, 287322, Control_c, 0, 64, 62
2, 287342, Control_c, 0, 64, 63
2, 287347, Note_on_c, 0, 70, 0
2, 287364, Control_c, 0, 64, 65
2, 287381, Control_c, 0, 64, 68
2, 287385, Note_on_c, 0, 68, 82
2, 287400, Control_c, 0, 64, 73
2, 287418, Control_c, 0, 64, 84
2, 287438, Note_on_c, 0, 42, 0
2, 287443, Control_c, 0, 64, 105
2, 287456, Control_c, 0, 64, 127
2, 287548, Note_on_c, 0, 77, 0
2, 287644, Note_on_c, 0, 68, 0
2, 287785, Control_c, 0, 64, 104
2, 287802, Control_c, 0, 64, 82
2, 287822, Control_c, 0, 64, 69
2, 287842, Control_c, 0, 64, 61
2, 287842, Note_on_c, 0, 75, 60
2, 287849, Note_on_c, 0, 66, 57
2, 287851, Note_on_c, 0, 54, 73
2, 287860, Control_c, 0, 64, 55
2, 287880, Control_c, 0, 64, 52
2, 287901, Control_c, 0, 64, 51
2, 287917, Control_c, 0, 64, 50
2, 287957, Control_c, 0, 64, 49
2, 287996, Control_c, 0, 64, 51
2, 288014, Control_c, 0, 64, 55
2, 288033, Control_c, 0, 64, 60
2, 288054, Control_c, 0, 64, 63
2, 288072, Control_c, 0, 64, 66
2, 288090, Control_c, 0, 64, 72
2, 288110, Control_c, 0, 64, 83
2, 288132, Control_c, 0, 64, 115
2, 288148, Control_c, 0, 64, 127
2, 288161, Note_on_c, 0, 66, 0
2, 288243, Control_c, 0, 64, 122
2, 288265, Control_c, 0, 64, 84
2, 288274, Note_on_c, 0, 73, 64
2, 288282, Control_c, 0, 64, 67
2, 288287, Note_on_c, 0, 65, 52
2, 288304, Control_c, 0, 64, 61
2, 288308, Note_on_c, 0, 75, 0
2, 288322, Control_c, 0, 64, 58
2, 288339, Control_c, 0, 64, 59
2, 288359, Control_c, 0, 64, 62
2, 288379, Control_c, 0, 64, 65
2, 288401, Control_c, 0, 64, 71
2, 288418, Control_c, 0, 64, 87
2, 288436, Control_c, 0, 64, 127
2, 288475, Note_on_c, 0, 65, 0
2, 288655, Note_on_c, 0, 73, 0
2, 288668, Control_c, 0, 64, 88
2, 288685, Control_c, 0, 64, 67
2, 288705, Control_c, 0, 64, 58
2, 288714, Note_on_c, 0, 72, 62
2, 288725, Note_on_c, 0, 63, 59
2, 288730, Control_c, 0, 64, 52
2, 288761, Control_c, 0, 64, 55
2, 288781, Control_c, 0, 64, 59
2, 288801, Control_c, 0, 64, 62
2, 288820, Control_c, 0, 64, 66
2, 288839, Control_c, 0, 64, 71
2, 288859, Control_c, 0, 64, 81
2, 288879, Control_c, 0, 64, 105
2, 288897, Control_c, 0, 64, 127
2, 288906, Note_on_c, 0, 63, 0
2, 289055, Note_on_c, 0, 72, 0
2, 289110, Control_c, 0, 64, 91
2, 289123, Note_on_c, 0, 53, 67
2, 289128, Control_c, 0, 64, 70
2, 289128, Note_on_c, 0, 74, 72
2, 289133, Note_on_c, 0, 54, 0
2, 289137, Note_on_c, 0, 65, 66
2, 289148, Control_c, 0, 64, 60
2, 289166, Control_c, 0, 64, 53
2, 289184, Control_c, 0, 64, 52
2, 289203, Control_c, 0, 64, 55
2, 289223, Control_c, 0, 64, 59
2, 289243, Control_c, 0, 64, 64
2, 289262, Control_c, 0, 64, 67
2, 289284, Control_c, 0, 64, 73
2, 289301, Control_c, 0, 64, 84
2, 289321, Control_c, 0, 64, 104
2, 289340, Control_c, 0, 64, 127
2, 289374, Note_on_c, 0, 65, 0
2, 289452, Note_on_c, 0, 74, 0
2, 289511, Control_c, 0, 64, 97
2, 289521, Note_on_c, 0, 53, 0
2, 289532, Control_c, 0, 64, 73
2, 289537, Note_on_c, 0, 51, 76
2, 289546, Note_on_c, 0, 66, 75
2, 289546, Note_on_c, 0, 75, 77
2, 289550, Control_c, 0, 64, 62
2, 289568, Control_c, 0, 64, 52
2, 289588, Control_c, 0, 64, 48
2, 289606, Control_c, 0, 64, 49
2, 289628, Control_c, 0, 64, 55
2, 289646, Control_c, 0, 64, 60
2, 289668, Control_c, 0, 64, 65
2, 289685, Control_c, 0, 64, 70
2, 289706, Control_c, 0, 64, 81
2, 289723, Control_c, 0, 64, 112
2, 289744, Control_c, 0, 64, 127
2, 289744, Note_on_c, 0, 75, 0
2, 289758, Note_on_c, 0, 66, 0
2, 289933, Control_c, 0, 64, 86
2, 289954, Control_c, 0, 64, 67
2, 289954, Note_on_c, 0, 51, 0
2, 289959, Note_on_c, 0, 49, 69
2, 289962, Note_on_c, 0, 77, 79
2, 289967, Note_on_c, 0, 70, 84
2, 289973, Control_c, 0, 64, 56
2, 289991, Control_c, 0, 64, 48
2, 290009, Control_c, 0, 64, 47
2, 290029, Control_c, 0, 64, 51
2, 290051, Control_c, 0, 64, 58
2, 290067, Control_c, 0, 64, 64
2, 290089, Control_c, 0, 64, 70
2, 290103, Note_on_c, 0, 77, 0
2, 290107, Control_c, 0, 64, 85
2, 290125, Control_c, 0, 64, 127
2, 290147, Note_on_c, 0, 70, 0
2, 290218, Note_on_c, 0, 49, 0
2, 290392, Note_on_c, 0, 78, 89
2, 290409, Note_on_c, 0, 75, 76
2, 290422, Note_on_c, 0, 48, 58
2, 290433, Control_c, 0, 64, 86
2, 290456, Control_c, 0, 64, 70
2, 290473, Control_c, 0, 64, 61
2, 290493, Control_c, 0, 64, 53
2, 290509, Control_c, 0, 64, 50
2, 290528, Control_c, 0, 64, 49
2, 290548, Control_c, 0, 64, 48
2, 290568, Control_c, 0, 64, 45
2, 290588, Control_c, 0, 64, 39
2, 290608, Control_c, 0, 64, 28
2, 290627, Control_c, 0, 64, 12
2, 290646, Control_c, 0, 64, 0
2, 290827, Note_on_c, 0, 75, 0
2, 290836, Note_on_c, 0, 48, 0
2, 290841, Note_on_c, 0, 73, 64
2, 290845, Note_on_c, 0, 46, 54
2, 290896, Control_c, 0, 64, 14
2, 290914, Control_c, 0, 64, 38
2, 290933, Control_c, 0, 64, 51
2, 290951, Control_c, 0, 64, 60
2, 290972, Control_c, 0, 64, 62
2, 290990, Control_c, 0, 64, 64
2, 291010, Control_c, 0, 64, 67
2, 291028, Control_c, 0, 64, 74
2, 291048, Control_c, 0, 64, 84
2, 291068, Control_c, 0, 64, 96
2, 291086, Control_c, 0, 64, 109
2, 291099, Note_on_c, 0, 78, 0
2, 291108, Control_c, 0, 64, 127
2, 291195, Note_on_c, 0, 46, 0
2, 291202, Control_c, 0, 64, 111
2, 291224, Control_c, 0, 64, 99
2, 291234, Note_on_c, 0, 73, 0
2, 291239, Control_c, 0, 64, 87
2, 291245, Note_on_c, 0, 72, 74
2, 291245, Note_on_c, 0, 77, 74
2, 291250, Note_on_c, 0, 45, 50
2, 291259, Control_c, 0, 64, 76
2, 291278, Control_c, 0, 64, 68
2, 291298, Control_c, 0, 64, 62
2, 291316, Control_c, 0, 64, 56
2, 291335, Control_c, 0, 64, 54
2, 291377, Control_c, 0, 64, 53
2, 291392, Control_c, 0, 64, 52
2, 291412, Control_c, 0, 64, 51
2, 291430, Control_c, 0, 64, 48
2, 291451, Control_c, 0, 64, 43
2, 291471, Control_c, 0, 64, 39
2, 291493, Control_c, 0, 64, 37
2, 291510, Control_c, 0, 64, 36
2, 291529, Control_c, 0, 64, 35
2, 291547, Control_c, 0, 64, 33
2, 291567, Control_c, 0, 64, 31
2, 291586, Control_c, 0, 64, 29
2, 291604, Control_c, 0, 64, 28
2, 291643, Control_c, 0, 64, 27
2, 291656, Note_on_c, 0, 75, 69
2, 291667, Note_on_c, 0, 77, 0
2, 291673, Note_on_c, 0, 41, 45
2, 291678, Note_on_c, 0, 45, 0
2, 291682, Control_c, 0, 64, 26
2, 291721, Control_c, 0, 64, 25
2, 292084, Note_on_c, 0, 73, 62
2, 292098, Note_on_c, 0, 75, 0
2, 292107, Note_on_c, 0, 41, 0
2, 292107, Note_on_c, 0, 46, 46
2, 292480, Note_on_c, 0, 46, 0
2, 292494, Control_c, 0, 64, 28
2, 292494, Note_on_c, 0, 73, 0
2, 292494, Note_on_c, 0, 75, 70
2, 292502, Note_on_c, 0, 48, 44
2, 292507, Control_c, 0, 64, 37
2, 292527, Control_c, 0, 64, 47
2, 292544, Control_c, 0, 64, 58
2, 292565, Control_c, 0, 64, 63
2, 292576, Note_on_c, 0, 72, 0
2, 292583, Control_c, 0, 64, 64
2, 292604, Control_c, 0, 64, 67
2, 292622, Control_c, 0, 64, 71
2, 292641, Control_c, 0, 64, 79
2, 292660, Control_c, 0, 64, 89
2, 292679, Control_c, 0, 64, 102
2, 292698, Control_c, 0, 64, 120
2, 292718, Control_c, 0, 64, 127
2, 292832, Note_on_c, 0, 48, 0
2, 292852, Control_c, 0, 64, 104
2, 292874, Control_c, 0, 64, 90
2, 292888, Note_on_c, 0, 75, 0
2, 292893, Control_c, 0, 64, 78
2, 292903, Note_on_c, 0, 49, 46
2, 292907, Note_on_c, 0, 70, 68
2, 292907, Note_on_c, 0, 77, 73
2, 292911, Control_c, 0, 64, 68
2, 292933, Control_c, 0, 64, 62
2, 292950, Control_c, 0, 64, 56
2, 292967, Control_c, 0, 64, 53
2, 292987, Control_c, 0, 64, 52
2, 293005, Control_c, 0, 64, 51
2, 293024, Control_c, 0, 64, 49
2, 293044, Control_c, 0, 64, 47
2, 293062, Control_c, 0, 64, 44
2, 293084, Control_c, 0, 64, 41
2, 293102, Control_c, 0, 64, 39
2, 293140, Control_c, 0, 64, 38
2, 293159, Control_c, 0, 64, 37
2, 293179, Control_c, 0, 64, 36
2, 293200, Control_c, 0, 64, 34
2, 293217, Control_c, 0, 64, 32
2, 293281, Note_on_c, 0, 49, 0
2, 293298, Control_c, 0, 64, 33
2, 293298, Note_on_c, 0, 77, 0
2, 293314, Control_c, 0, 64, 38
2, 293319, Note_on_c, 0, 78, 69
2, 293325, Note_on_c, 0, 51, 50
2, 293335, Control_c, 0, 64, 47
2, 293352, Control_c, 0, 64, 56
2, 293371, Control_c, 0, 64, 62
2, 293391, Control_c, 0, 64, 65
2, 293409, Control_c, 0, 64, 69
2, 293429, Control_c, 0, 64, 79
2, 293447, Control_c, 0, 64, 102
2, 293467, Control_c, 0, 64, 127
2, 293598, Note_on_c, 0, 51, 0
2, 293678, Control_c, 0, 64, 116
2, 293699, Control_c, 0, 64, 98
2, 293715, Control_c, 0, 64, 86
2, 293735, Control_c, 0, 64, 76
2, 293752, Note_on_c, 0, 78, 0
2, 293756, Control_c, 0, 64, 68
2, 293760, Note_on_c, 0, 73, 63
2, 293770, Note_on_c, 0, 53, 38
2, 293774, Control_c, 0, 64, 62
2, 293792, Control_c, 0, 64, 58
2, 293813, Control_c, 0, 64, 56
2, 293832, Control_c, 0, 64, 54
2, 293850, Control_c, 0, 64, 53
2, 293869, Control_c, 0, 64, 50
2, 293891, Control_c, 0, 64, 46
2, 293909, Control_c, 0, 64, 43
2, 293926, Control_c, 0, 64, 39
2, 293947, Control_c, 0, 64, 37
2, 293967, Control_c, 0, 64, 35
2, 293988, Control_c, 0, 64, 33
2, 294002, Control_c, 0, 64, 30
2, 294023, Control_c, 0, 64, 28
2, 294043, Control_c, 0, 64, 27
2, 294101, Control_c, 0, 64, 29
2, 294121, Control_c, 0, 64, 34
2, 294139, Control_c, 0, 64, 42
2, 294158, Control_c, 0, 64, 51
2, 294164, Note_on_c, 0, 53, 0
2, 294177, Control_c, 0, 64, 58
2, 294182, Note_on_c, 0, 51, 43
2, 294198, Control_c, 0, 64, 61
2, 294215, Control_c, 0, 64, 62
2, 294234, Control_c, 0, 64, 64
2, 294253, Control_c, 0, 64, 66
2, 294274, Control_c, 0, 64, 69
2, 294284, Note_on_c, 0, 73, 0
2, 294288, Note_on_c, 0, 70, 0
2, 294292, Control_c, 0, 64, 74
2, 294312, Control_c, 0, 64, 79
2, 294331, Control_c, 0, 64, 85
2, 294349, Control_c, 0, 64, 87
2, 294503, Control_c, 0, 64, 86
2, 294525, Control_c, 0, 64, 85
2, 294543, Control_c, 0, 64, 83
2, 294559, Note_on_c, 0, 51, 0
2, 294563, Control_c, 0, 64, 79
2, 294583, Control_c, 0, 64, 75
2, 294601, Control_c, 0, 64, 70
2, 294606, Note_on_c, 0, 72, 65
2, 294619, Control_c, 0, 64, 64
2, 294619, Note_on_c, 0, 69, 49
2, 294624, Note_on_c, 0, 53, 41
2, 294640, Control_c, 0, 64, 58
2, 294656, Control_c, 0, 64, 54
2, 294679, Control_c, 0, 64, 51
2, 294791, Control_c, 0, 64, 53
2, 294809, Control_c, 0, 64, 55
2, 294831, Control_c, 0, 64, 59
2, 294851, Control_c, 0, 64, 61
2, 294869, Control_c, 0, 64, 63
2, 294886, Control_c, 0, 64, 64
2, 294906, Control_c, 0, 64, 66
2, 294924, Control_c, 0, 64, 70
2, 294944, Control_c, 0, 64, 77
2, 294964, Control_c, 0, 64, 88
2, 294983, Control_c, 0, 64, 104
2, 294987, Note_on_c, 0, 69, 0
2, 295003, Control_c, 0, 64, 127
2, 295007, Note_on_c, 0, 53, 0
2, 295007, Note_on_c, 0, 72, 0
2, 295028, Note_on_c, 0, 41, 51
2, 295489, Note_on_c, 0, 41, 0
2, 295489, Note_on_c, 0, 46, 49
2, 295492, Note_on_c, 0, 58, 85
2, 295504, Control_c, 0, 64, 94
2, 295508, Note_on_c, 0, 70, 76
2, 295521, Control_c, 0, 64, 76
2, 295540, Control_c, 0, 64, 64
2, 295560, Control_c, 0, 64, 56
2, 295580, Control_c, 0, 64, 52
2, 295598, Control_c, 0, 64, 50
2, 295693, Control_c, 0, 64, 51
2, 295713, Control_c, 0, 64, 54
2, 295735, Control_c, 0, 64, 58
2, 295751, Control_c, 0, 64, 61
2, 295769, Control_c, 0, 64, 63
2, 295790, Control_c, 0, 64, 65
2, 295809, Control_c, 0, 64, 68
2, 295828, Control_c, 0, 64, 73
2, 295848, Control_c, 0, 64, 81
2, 295871, Control_c, 0, 64, 92
2, 295888, Control_c, 0, 64, 112
2, 295906, Control_c, 0, 64, 127
2, 295933, Note_on_c, 0, 45, 53
2, 295951, Note_on_c, 0, 58, 0
2, 295955, Note_on_c, 0, 46, 0
2, 296327, Note_on_c, 0, 65, 87
2, 296331, Note_on_c, 0, 46, 55
2, 296342, Note_on_c, 0, 45, 0
2, 296348, Control_c, 0, 64, 122
2, 296368, Control_c, 0, 64, 87
2, 296385, Control_c, 0, 64, 69
2, 296405, Control_c, 0, 64, 57
2, 296424, Control_c, 0, 64, 50
2, 296444, Control_c, 0, 64, 46
2, 296462, Control_c, 0, 64, 45
2, 296480, Control_c, 0, 64, 44
2, 296500, Control_c, 0, 64, 43
2, 296518, Control_c, 0, 64, 42
2, 296576, Control_c, 0, 64, 43
2, 296596, Control_c, 0, 64, 48
2, 296616, Control_c, 0, 64, 54
2, 296634, Control_c, 0, 64, 59
2, 296654, Control_c, 0, 64, 62
2, 296672, Control_c, 0, 64, 64
2, 296692, Control_c, 0, 64, 66
2, 296712, Control_c, 0, 64, 70
2, 296732, Control_c, 0, 64, 77
2, 296737, Note_on_c, 0, 46, 0
2, 296750, Control_c, 0, 64, 85
2, 296764, Note_on_c, 0, 48, 51
2, 296772, Control_c, 0, 64, 98
2, 296788, Control_c, 0, 64, 127
2, 296884, Note_on_c, 0, 70, 0
2, 297114, Control_c, 0, 64, 102
2, 297135, Control_c, 0, 64, 75
2, 297153, Note_on_c, 0, 48, 0
2, 297155, Control_c, 0, 64, 62
2, 297174, Control_c, 0, 64, 53
2, 297174, Note_on_c, 0, 70, 84
2, 297191, Control_c, 0, 64, 51
2, 297202, Note_on_c, 0, 49, 40
2, 297211, Control_c, 0, 64, 52
2, 297230, Control_c, 0, 64, 55
2, 297252, Control_c, 0, 64, 59
2, 297267, Control_c, 0, 64, 62
2, 297287, Control_c, 0, 64, 64
2, 297308, Control_c, 0, 64, 67
2, 297325, Control_c, 0, 64, 72
2, 297345, Control_c, 0, 64, 81
2, 297365, Control_c, 0, 64, 99
2, 297385, Control_c, 0, 64, 127
2, 297479, Note_on_c, 0, 49, 0
2, 297569, Note_on_c, 0, 66, 87
2, 297591, Note_on_c, 0, 65, 0
2, 297604, Note_on_c, 0, 70, 0
2, 297608, Note_on_c, 0, 48, 51
2, 297656, Note_on_c, 0, 66, 0
2, 297959, Note_on_c, 0, 48, 0
2, 297961, Control_c, 0, 64, 87
2, 297980, Control_c, 0, 64, 66
2, 297998, Control_c, 0, 64, 52
2, 298002, Note_on_c, 0, 77, 83
2, 298007, Note_on_c, 0, 49, 51
2, 298007, Note_on_c, 0, 65, 74
2, 298018, Control_c, 0, 64, 43
2, 298036, Control_c, 0, 64, 41
2, 298059, Control_c, 0, 64, 45
2, 298074, Control_c, 0, 64, 53
2, 298095, Control_c, 0, 64, 61
2, 298114, Control_c, 0, 64, 65
2, 298134, Control_c, 0, 64, 69
2, 298136, Note_on_c, 0, 77, 0
2, 298152, Control_c, 0, 64, 77
2, 298170, Control_c, 0, 64, 87
2, 298191, Control_c, 0, 64, 106
2, 298210, Control_c, 0, 64, 127
2, 298398, Note_on_c, 0, 63, 77
2, 298404, Note_on_c, 0, 49, 0
2, 298408, Note_on_c, 0, 51, 60
2, 298438, Note_on_c, 0, 65, 0
2, 298790, Note_on_c, 0, 51, 0
2, 298798, Note_on_c, 0, 61, 84
2, 298805, Note_on_c, 0, 53, 62
2, 298842, Note_on_c, 0, 63, 0
2, 298851, Note_on_c, 0, 53, 0
2, 298874, Note_on_c, 0, 61, 0
2, 299169, Control_c, 0, 64, 96
2, 299189, Control_c, 0, 64, 70
2, 299206, Control_c, 0, 64, 58
2, 299215, Note_on_c, 0, 78, 87
2, 299223, Note_on_c, 0, 63, 66
2, 299227, Control_c, 0, 64, 53
2, 299243, Note_on_c, 0, 51, 58
2, 299247, Control_c, 0, 64, 56
2, 299268, Control_c, 0, 64, 59
2, 299288, Control_c, 0, 64, 64
2, 299304, Control_c, 0, 64, 69
2, 299324, Control_c, 0, 64, 80
2, 299341, Control_c, 0, 64, 106
2, 299365, Control_c, 0, 64, 127
2, 299369, Note_on_c, 0, 78, 0
2, 299409, Note_on_c, 0, 63, 0
2, 299556, Note_on_c, 0, 51, 0
2, 299592, Control_c, 0, 64, 106
2, 299608, Note_on_c, 0, 77, 86
2, 299612, Control_c, 0, 64, 74
2, 299615, Note_on_c, 0, 65, 71
2, 299630, Control_c, 0, 64, 60
2, 299640, Note_on_c, 0, 61, 53
2, 299649, Control_c, 0, 64, 50
2, 299655, Note_on_c, 0, 53, 40
2, 299669, Control_c, 0, 64, 49
2, 299688, Control_c, 0, 64, 53
2, 299708, Control_c, 0, 64, 60
2, 299726, Control_c, 0, 64, 64
2, 299745, Control_c, 0, 64, 69
2, 299767, Control_c, 0, 64, 78
2, 299776, Note_on_c, 0, 53, 0
2, 299785, Control_c, 0, 64, 90
2, 299788, Note_on_c, 0, 61, 0
2, 299805, Control_c, 0, 64, 106
2, 299820, Control_c, 0, 64, 127
2, 299975, Control_c, 0, 64, 111
2, 299994, Control_c, 0, 64, 77
2, 300013, Note_on_c, 0, 75, 78
2, 300016, Control_c, 0, 64, 62
2, 300034, Control_c, 0, 64, 52
2, 300043, Note_on_c, 0, 49, 37
2, 300043, Note_on_c, 0, 77, 0
2, 300051, Control_c, 0, 64, 51
2, 300073, Control_c, 0, 64, 54
2, 300091, Control_c, 0, 64, 58
2, 300110, Control_c, 0, 64, 61
2, 300129, Control_c, 0, 64, 64
2, 300147, Note_on_c, 0, 49, 0
2, 300151, Control_c, 0, 64, 66
2, 300167, Control_c, 0, 64, 69
2, 300183, Note_on_c, 0, 51, 64
2, 300187, Control_c, 0, 64, 72
2, 300206, Control_c, 0, 64, 77
2, 300225, Control_c, 0, 64, 85
2, 300243, Control_c, 0, 64, 97
2, 300262, Control_c, 0, 64, 109
2, 300302, Control_c, 0, 64, 107
2, 300320, Note_on_c, 0, 51, 0
2, 300325, Control_c, 0, 64, 104
2, 300343, Control_c, 0, 64, 98
2, 300359, Control_c, 0, 64, 91
2, 300378, Control_c, 0, 64, 82
2, 300382, Note_on_c, 0, 53, 63
2, 300391, Note_on_c, 0, 73, 88
2, 300398, Control_c, 0, 64, 72
2, 300402, Note_on_c, 0, 65, 0
2, 300417, Control_c, 0, 64, 65
2, 300440, Control_c, 0, 64, 61
2, 300440, Note_on_c, 0, 75, 0
2, 300459, Control_c, 0, 64, 60
2, 300484, Note_on_c, 0, 53, 0
2, 300498, Note_on_c, 0, 58, 34
2, 300617, Note_on_c, 0, 54, 57
2, 300648, Control_c, 0, 64, 59
2, 300672, Control_c, 0, 64, 57
2, 300672, Note_on_c, 0, 58, 0
2, 300685, Control_c, 0, 64, 55
2, 300690, Note_on_c, 0, 54, 0
2, 300708, Control_c, 0, 64, 52
2, 300726, Control_c, 0, 64, 50
2, 300746, Control_c, 0, 64, 49
2, 300782, Control_c, 0, 64, 51
2, 300782, Note_on_c, 0, 75, 78
2, 300796, Note_on_c, 0, 58, 56
2, 300800, Control_c, 0, 64, 57
2, 300814, Note_on_c, 0, 53, 34
2, 300820, Control_c, 0, 64, 63
2, 300842, Control_c, 0, 64, 66
2, 300847, Note_on_c, 0, 73, 0
2, 300857, Note_on_c, 0, 53, 0
2, 300860, Control_c, 0, 64, 73
2, 300864, Note_on_c, 0, 58, 0
2, 300877, Control_c, 0, 64, 83
2, 300896, Control_c, 0, 64, 107
2, 300915, Control_c, 0, 64, 127
2, 301070, Control_c, 0, 64, 95
2, 301090, Control_c, 0, 64, 72
2, 301109, Control_c, 0, 64, 61
2, 301127, Control_c, 0, 64, 53
2, 301147, Control_c, 0, 64, 52
2, 301160, Note_on_c, 0, 77, 82
2, 301169, Control_c, 0, 64, 55
2, 301175, Note_on_c, 0, 45, 53
2, 301186, Control_c, 0, 64, 59
2, 301191, Note_on_c, 0, 75, 0
2, 301204, Control_c, 0, 64, 63
2, 301222, Control_c, 0, 64, 66
2, 301240, Note_on_c, 0, 77, 0
2, 301245, Control_c, 0, 64, 71
2, 301263, Control_c, 0, 64, 76
2, 301280, Control_c, 0, 64, 82
2, 301301, Control_c, 0, 64, 89
2, 301318, Control_c, 0, 64, 97
2, 301339, Control_c, 0, 64, 107
2, 301356, Control_c, 0, 64, 120
2, 301376, Control_c, 0, 64, 127
2, 301579, Note_on_c, 0, 63, 90
2, 301626, Control_c, 0, 64, 122
2, 301644, Control_c, 0, 64, 118
2, 301665, Control_c, 0, 64, 112
2, 301684, Control_c, 0, 64, 108
2, 301703, Control_c, 0, 64, 103
2, 301724, Control_c, 0, 64, 100
2, 301744, Control_c, 0, 64, 97
2, 301761, Control_c, 0, 64, 94
2, 301781, Control_c, 0, 64, 92
2, 301799, Control_c, 0, 64, 88
2, 301819, Control_c, 0, 64, 85
2, 301839, Control_c, 0, 64, 80
2, 301858, Control_c, 0, 64, 76
2, 301876, Control_c, 0, 64, 72
2, 301895, Control_c, 0, 64, 68
2, 301913, Control_c, 0, 64, 64
2, 301934, Control_c, 0, 64, 62
2, 301943, Note_on_c, 0, 45, 0
2, 301953, Control_c, 0, 64, 60
2, 301974, Control_c, 0, 64, 58
2, 301990, Control_c, 0, 64, 56
2, 302011, Control_c, 0, 64, 53
2, 302022, Note_on_c, 0, 70, 63
2, 302026, Note_on_c, 0, 46, 40
2, 302032, Control_c, 0, 64, 50
2, 302049, Control_c, 0, 64, 42
2, 302068, Control_c, 0, 64, 33
2, 302087, Control_c, 0, 64, 17
2, 302106, Control_c, 0, 64, 0
2, 302394, Control_c, 0, 64, 8
2, 302399, Note_on_c, 0, 63, 0
2, 302418, Control_c, 0, 64, 35
2, 302418, Note_on_c, 0, 61, 69
2, 302434, Control_c, 0, 64, 52
2, 302454, Control_c, 0, 64, 62
2, 302472, Control_c, 0, 64, 64
2, 302492, Control_c, 0, 64, 67
2, 302510, Control_c, 0, 64, 73
2, 302529, Control_c, 0, 64, 86
2, 302549, Control_c, 0, 64, 104
2, 302558, Note_on_c, 0, 46, 0
2, 302567, Control_c, 0, 64, 127
2, 302704, Note_on_c, 0, 61, 0
2, 302740, Control_c, 0, 64, 108
2, 302759, Control_c, 0, 64, 99
2, 302780, Control_c, 0, 64, 91
2, 302786, Note_on_c, 0, 70, 0
2, 302798, Control_c, 0, 64, 84
2, 302816, Control_c, 0, 64, 78
2, 302826, Note_on_c, 0, 60, 78
2, 302837, Control_c, 0, 64, 73
2, 302841, Note_on_c, 0, 48, 64
2, 302859, Control_c, 0, 64, 69
2, 302873, Control_c, 0, 64, 65
2, 302895, Control_c, 0, 64, 62
2, 302914, Control_c, 0, 64, 59
2, 302933, Control_c, 0, 64, 57
2, 302951, Control_c, 0, 64, 56
2, 302969, Control_c, 0, 64, 55
2, 302991, Control_c, 0, 64, 53
2, 303008, Control_c, 0, 64, 51
2, 303029, Control_c, 0, 64, 50
2, 303043, Control_c, 0, 64, 48
2, 303063, Control_c, 0, 64, 47
2, 303102, Control_c, 0, 64, 46
2, 303159, Control_c, 0, 64, 45
2, 303218, Control_c, 0, 64, 46
2, 303235, Control_c, 0, 64, 50
2, 303244, Note_on_c, 0, 75, 89
2, 303257, Control_c, 0, 64, 55
2, 303274, Control_c, 0, 64, 60
2, 303294, Control_c, 0, 64, 62
2, 303312, Control_c, 0, 64, 65
2, 303332, Control_c, 0, 64, 68
2, 303354, Control_c, 0, 64, 75
2, 303367, Note_on_c, 0, 60, 0
2, 303372, Control_c, 0, 64, 87
2, 303389, Control_c, 0, 64, 103
2, 303405, Note_on_c, 0, 48, 0
2, 303410, Control_c, 0, 64, 127
2, 303660, Control_c, 0, 64, 122
2, 303673, Note_on_c, 0, 58, 60
2, 303677, Control_c, 0, 64, 97
2, 303688, Note_on_c, 0, 49, 50
2, 303697, Control_c, 0, 64, 80
2, 303717, Control_c, 0, 64, 70
2, 303735, Control_c, 0, 64, 63
2, 303755, Control_c, 0, 64, 58
2, 303773, Control_c, 0, 64, 55
2, 303793, Control_c, 0, 64, 53
2, 303832, Control_c, 0, 64, 52
2, 303853, Control_c, 0, 64, 51
2, 303871, Control_c, 0, 64, 50
2, 303888, Control_c, 0, 64, 49
2, 303927, Control_c, 0, 64, 48
2, 303985, Control_c, 0, 64, 47
2, 303999, Note_on_c, 0, 49, 0
2, 304007, Control_c, 0, 64, 46
2, 304044, Control_c, 0, 64, 47
2, 304060, Note_on_c, 0, 73, 74
2, 304064, Control_c, 0, 64, 51
2, 304064, Note_on_c, 0, 46, 53
2, 304082, Control_c, 0, 64, 56
2, 304094, Note_on_c, 0, 75, 0
2, 304103, Control_c, 0, 64, 61
2, 304121, Control_c, 0, 64, 64
2, 304141, Control_c, 0, 64, 67
2, 304159, Control_c, 0, 64, 73
2, 304179, Control_c, 0, 64, 83
2, 304197, Control_c, 0, 64, 98
2, 304217, Control_c, 0, 64, 127
2, 304411, Note_on_c, 0, 73, 0
2, 304447, Control_c, 0, 64, 104
2, 304456, Note_on_c, 0, 72, 65
2, 304462, Note_on_c, 0, 53, 51
2, 304467, Control_c, 0, 64, 88
2, 304484, Control_c, 0, 64, 77
2, 304503, Control_c, 0, 64, 70
2, 304508, Note_on_c, 0, 46, 0
2, 304523, Control_c, 0, 64, 64
2, 304541, Control_c, 0, 64, 61
2, 304564, Control_c, 0, 64, 60
2, 304581, Control_c, 0, 64, 59
2, 304601, Control_c, 0, 64, 58
2, 304618, Control_c, 0, 64, 57
2, 304638, Control_c, 0, 64, 56
2, 304658, Control_c, 0, 64, 54
2, 304676, Control_c, 0, 64, 53
2, 304695, Control_c, 0, 64, 52
2, 304771, Control_c, 0, 64, 51
2, 304792, Control_c, 0, 64, 50
2, 304811, Control_c, 0, 64, 49
2, 304832, Control_c, 0, 64, 48
2, 304845, Note_on_c, 0, 68, 85
2, 304854, Note_on_c, 0, 53, 0
2, 304859, Note_on_c, 0, 51, 67
2, 304870, Note_on_c, 0, 58, 0
2, 304887, Control_c, 0, 64, 47
2, 305267, Note_on_c, 0, 50, 43
2, 305271, Note_on_c, 0, 72, 0
2, 305283, Note_on_c, 0, 51, 0
2, 305310, Note_on_c, 0, 70, 50
2, 305329, Control_c, 0, 64, 46
2, 305347, Control_c, 0, 64, 45
2, 305367, Control_c, 0, 64, 43
2, 305386, Control_c, 0, 64, 42
2, 305404, Control_c, 0, 64, 39
2, 305425, Control_c, 0, 64, 35
2, 305446, Control_c, 0, 64, 30
2, 305464, Control_c, 0, 64, 19
2, 305483, Control_c, 0, 64, 0
2, 305643, Note_on_c, 0, 50, 0
2, 305675, Note_on_c, 0, 51, 55
2, 305675, Note_on_c, 0, 66, 62
2, 305688, Note_on_c, 0, 68, 0
2, 305925, Control_c, 0, 64, 11
2, 305946, Control_c, 0, 64, 29
2, 305962, Control_c, 0, 64, 43
2, 305982, Control_c, 0, 64, 54
2, 306000, Control_c, 0, 64, 61
2, 306020, Control_c, 0, 64, 63
2, 306042, Control_c, 0, 64, 65
2, 306055, Note_on_c, 0, 65, 80
2, 306059, Control_c, 0, 64, 69
2, 306064, Note_on_c, 0, 70, 0
2, 306078, Control_c, 0, 64, 78
2, 306094, Note_on_c, 0, 66, 0
2, 306098, Control_c, 0, 64, 100
2, 306117, Control_c, 0, 64, 127
2, 306141, Note_on_c, 0, 51, 0
2, 306160, Note_on_c, 0, 65, 0
2, 306462, Control_c, 0, 64, 93
2, 306476, Note_on_c, 0, 80, 94
2, 306483, Control_c, 0, 64, 72
2, 306487, Note_on_c, 0, 62, 61
2, 306496, Note_on_c, 0, 50, 56
2, 306503, Control_c, 0, 64, 61
2, 306519, Control_c, 0, 64, 52
2, 306540, Control_c, 0, 64, 50
2, 306558, Control_c, 0, 64, 54
2, 306577, Control_c, 0, 64, 60
2, 306595, Control_c, 0, 64, 63
2, 306615, Control_c, 0, 64, 67
2, 306638, Control_c, 0, 64, 75
2, 306656, Control_c, 0, 64, 91
2, 306667, Note_on_c, 0, 50, 0
2, 306674, Control_c, 0, 64, 127
2, 306697, Note_on_c, 0, 62, 0
2, 306884, Control_c, 0, 64, 110
2, 306903, Control_c, 0, 64, 89
2, 306923, Control_c, 0, 64, 76
2, 306930, Note_on_c, 0, 63, 56
2, 306944, Control_c, 0, 64, 66
2, 306962, Control_c, 0, 64, 60
2, 306962, Note_on_c, 0, 51, 43
2, 306983, Control_c, 0, 64, 56
2, 307000, Control_c, 0, 64, 54
2, 307019, Control_c, 0, 64, 53
2, 307037, Control_c, 0, 64, 52
2, 307057, Control_c, 0, 64, 50
2, 307077, Control_c, 0, 64, 48
2, 307094, Control_c, 0, 64, 45
2, 307115, Control_c, 0, 64, 44
2, 307267, Control_c, 0, 64, 43
2, 307343, Note_on_c, 0, 63, 0
2, 307352, Note_on_c, 0, 78, 72
2, 307361, Note_on_c, 0, 60, 45
2, 307399, Note_on_c, 0, 80, 0
2, 307441, Control_c, 0, 64, 42
2, 307536, Control_c, 0, 64, 41
2, 307613, Control_c, 0, 64, 40
2, 307680, Note_on_c, 0, 60, 0
2, 307691, Control_c, 0, 64, 39
2, 307700, Note_on_c, 0, 78, 0
2, 307717, Note_on_c, 0, 57, 50
2, 307724, Note_on_c, 0, 77, 65
2, 307781, Note_on_c, 0, 51, 0
2, 308069, Note_on_c, 0, 57, 0
2, 308095, Control_c, 0, 64, 42
2, 308112, Control_c, 0, 64, 47
2, 308130, Note_on_c, 0, 58, 49
2, 308135, Control_c, 0, 64, 54
2, 308140, Note_on_c, 0, 61, 47
2, 308151, Control_c, 0, 64, 60
2, 308171, Control_c, 0, 64, 63
2, 308188, Control_c, 0, 64, 65
2, 308209, Control_c, 0, 64, 69
2, 308227, Control_c, 0, 64, 77
2, 308247, Control_c, 0, 64, 91
2, 308265, Control_c, 0, 64, 110
2, 308285, Control_c, 0, 64, 127
2, 308401, Note_on_c, 0, 77, 0
2, 308460, Control_c, 0, 64, 120
2, 308477, Control_c, 0, 64, 93
2, 308481, Note_on_c, 0, 61, 0
2, 308486, Note_on_c, 0, 58, 0
2, 308498, Control_c, 0, 64, 76
2, 308505, Note_on_c, 0, 70, 62
2, 308516, Control_c, 0, 64, 64
2, 308516, Note_on_c, 0, 54, 47
2, 308536, Control_c, 0, 64, 59
2, 308555, Control_c, 0, 64, 57
2, 308575, Control_c, 0, 64, 58
2, 308592, Control_c, 0, 64, 60
2, 308611, Control_c, 0, 64, 62
2, 308616, Note_on_c, 0, 70, 0
2, 308631, Control_c, 0, 64, 64
2, 308651, Control_c, 0, 64, 66
2, 308671, Control_c, 0, 64, 68
2, 308679, Note_on_c, 0, 75, 73
2, 308692, Control_c, 0, 64, 72
2, 308706, Control_c, 0, 64, 77
2, 308728, Control_c, 0, 64, 84
2, 308746, Control_c, 0, 64, 93
2, 308767, Control_c, 0, 64, 99
2, 308784, Control_c, 0, 64, 100
2, 308804, Control_c, 0, 64, 98
2, 308825, Control_c, 0, 64, 94
2, 308842, Control_c, 0, 64, 86
2, 308862, Control_c, 0, 64, 75
2, 308869, Note_on_c, 0, 54, 0
2, 308869, Note_on_c, 0, 77, 75
2, 308880, Note_on_c, 0, 69, 60
2, 308882, Control_c, 0, 64, 66
2, 308894, Note_on_c, 0, 53, 46
2, 308901, Control_c, 0, 64, 61
2, 308912, Note_on_c, 0, 75, 0
2, 308919, Control_c, 0, 64, 57
2, 308957, Control_c, 0, 64, 58
2, 308978, Control_c, 0, 64, 59
2, 308996, Control_c, 0, 64, 60
2, 309000, Note_on_c, 0, 77, 0
2, 309016, Control_c, 0, 64, 62
2, 309026, Note_on_c, 0, 78, 82
2, 309036, Control_c, 0, 64, 63
2, 309036, Note_on_c, 0, 69, 0
2, 309054, Control_c, 0, 64, 64
2, 309073, Control_c, 0, 64, 66
2, 309093, Control_c, 0, 64, 68
2, 309111, Control_c, 0, 64, 70
2, 309129, Control_c, 0, 64, 71
2, 309159, Note_on_c, 0, 53, 0
2, 309221, Note_on_c, 0, 54, 47
2, 309225, Control_c, 0, 64, 70
2, 309249, Control_c, 0, 64, 68
2, 309264, Control_c, 0, 64, 66
2, 309284, Control_c, 0, 64, 63
2, 309304, Control_c, 0, 64, 60
2, 309308, Note_on_c, 0, 78, 0
2, 309326, Note_on_c, 0, 70, 56
2, 309326, Note_on_c, 0, 77, 68
2, 309330, Control_c, 0, 64, 59
2, 309340, Control_c, 0, 64, 58
2, 309362, Control_c, 0, 64, 57
2, 309379, Control_c, 0, 64, 56
2, 309400, Control_c, 0, 64, 55
2, 309419, Control_c, 0, 64, 54
2, 309425, Note_on_c, 0, 77, 0
2, 309439, Control_c, 0, 64, 52
2, 309452, Note_on_c, 0, 75, 56
2, 309476, Control_c, 0, 64, 51
2, 309494, Control_c, 0, 64, 50
2, 309498, Note_on_c, 0, 75, 0
2, 309514, Control_c, 0, 64, 49
2, 309523, Note_on_c, 0, 77, 56
2, 309534, Control_c, 0, 64, 47
2, 309554, Control_c, 0, 64, 44
2, 309576, Control_c, 0, 64, 42
2, 309576, Note_on_c, 0, 77, 0
2, 309590, Note_on_c, 0, 75, 62
2, 309595, Control_c, 0, 64, 40
2, 309611, Control_c, 0, 64, 37
2, 309627, Note_on_c, 0, 75, 0
2, 309631, Control_c, 0, 64, 34
2, 309649, Control_c, 0, 64, 30
2, 309656, Note_on_c, 0, 77, 69
2, 309669, Control_c, 0, 64, 28
2, 309689, Control_c, 0, 64, 27
2, 309707, Control_c, 0, 64, 26
2, 309712, Note_on_c, 0, 75, 69
2, 309712, Note_on_c, 0, 77, 0
2, 309745, Control_c, 0, 64, 27
2, 309764, Control_c, 0, 64, 29
2, 309784, Control_c, 0, 64, 36
2, 309803, Control_c, 0, 64, 44
2, 309821, Control_c, 0, 64, 53
2, 309840, Control_c, 0, 64, 59
2, 309860, Control_c, 0, 64, 62
2, 309878, Control_c, 0, 64, 64
2, 309885, Note_on_c, 0, 75, 0
2, 309899, Control_c, 0, 64, 66
2, 309914, Note_on_c, 0, 78, 70
2, 309918, Control_c, 0, 64, 70
2, 309935, Control_c, 0, 64, 78
2, 309953, Note_on_c, 0, 78, 0
2, 309955, Control_c, 0, 64, 88
2, 309977, Control_c, 0, 64, 98
2, 309994, Control_c, 0, 64, 102
2, 310022, Note_on_c, 0, 77, 24
2, 310033, Control_c, 0, 64, 99
2, 310049, Note_on_c, 0, 70, 0
2, 310053, Control_c, 0, 64, 97
2, 310073, Control_c, 0, 64, 95
2, 310077, Note_on_c, 0, 77, 0
2, 310089, Control_c, 0, 64, 93
2, 310109, Control_c, 0, 64, 90
2, 310129, Control_c, 0, 64, 84
2, 310148, Control_c, 0, 64, 76
2, 310168, Control_c, 0, 64, 67
2, 310186, Control_c, 0, 64, 61
2, 310206, Control_c, 0, 64, 57
2, 310224, Control_c, 0, 64, 55
2, 310244, Note_on_c, 0, 77, 44
2, 310249, Control_c, 0, 64, 52
2, 310249, Note_on_c, 0, 54, 0
2, 310263, Control_c, 0, 64, 49
2, 310287, Control_c, 0, 64, 43
2, 310287, Note_on_c, 0, 69, 48
2, 310291, Note_on_c, 0, 53, 36
2, 310302, Control_c, 0, 64, 34
2, 310320, Control_c, 0, 64, 23
2, 310340, Control_c, 0, 64, 10
2, 310360, Control_c, 0, 64, 0
2, 310705, Control_c, 0, 64, 32
2, 310722, Control_c, 0, 64, 48
2, 310744, Control_c, 0, 64, 58
2, 310762, Control_c, 0, 64, 63
2, 310781, Control_c, 0, 64, 64
2, 310801, Control_c, 0, 64, 66
2, 310818, Control_c, 0, 64, 70
2, 310841, Control_c, 0, 64, 77
2, 310841, Note_on_c, 0, 69, 0
2, 310862, Control_c, 0, 64, 88
2, 310880, Control_c, 0, 64, 101
2, 310897, Control_c, 0, 64, 127
2, 310897, Note_on_c, 0, 77, 0
2, 311223, Control_c, 0, 64, 106
2, 311242, Control_c, 0, 64, 94
2, 311261, Control_c, 0, 64, 84
2, 311281, Control_c, 0, 64, 76
2, 311301, Control_c, 0, 64, 69
2, 311303, Note_on_c, 0, 82, 45
2, 311308, Note_on_c, 0, 70, 40
2, 311319, Control_c, 0, 64, 64
2, 311334, Note_on_c, 0, 53, 0
2, 311338, Control_c, 0, 64, 60
2, 311357, Control_c, 0, 64, 58
2, 311377, Control_c, 0, 64, 57
2, 311394, Control_c, 0, 64, 54
2, 311416, Control_c, 0, 64, 51
2, 311435, Control_c, 0, 64, 46
2, 311453, Control_c, 0, 64, 40
2, 311472, Control_c, 0, 64, 34
2, 311491, Control_c, 0, 64, 28
2, 311512, Control_c, 0, 64, 24
2, 311530, Control_c, 0, 64, 18
2, 311550, Control_c, 0, 64, 9
2, 311570, Control_c, 0, 64, 0
2, 311840, Control_c, 0, 64, 10
2, 311857, Control_c, 0, 64, 12
2, 311877, Control_c, 0, 64, 14
2, 311895, Control_c, 0, 64, 15
2, 311914, Control_c, 0, 64, 17
2, 311934, Control_c, 0, 64, 18
2, 311955, Control_c, 0, 64, 19
2, 311971, Control_c, 0, 64, 20
2, 311992, Control_c, 0, 64, 22
2, 312010, Control_c, 0, 64, 23
2, 312031, Control_c, 0, 64, 25
2, 312069, Control_c, 0, 64, 27
2, 312088, Control_c, 0, 64, 28
2, 312107, Control_c, 0, 64, 29
2, 312125, Control_c, 0, 64, 31
2, 312144, Control_c, 0, 64, 32
2, 312166, Control_c, 0, 64, 35
2, 312184, Control_c, 0, 64, 39
2, 312201, Control_c, 0, 64, 43
2, 312220, Control_c, 0, 64, 49
2, 312240, Control_c, 0, 64, 54
2, 312260, Control_c, 0, 64, 59
2, 312278, Control_c, 0, 64, 60
2, 312292, Note_on_c, 0, 54, 44
2, 312300, Control_c, 0, 64, 62
2, 312300, Note_on_c, 0, 75, 40
2, 312317, Control_c, 0, 64, 64
2, 312340, Control_c, 0, 64, 66
2, 312344, Note_on_c, 0, 70, 0
2, 312357, Control_c, 0, 64, 72
2, 312374, Note_on_c, 0, 82, 0
2, 312378, Control_c, 0, 64, 81
2, 312395, Control_c, 0, 64, 94
2, 312413, Control_c, 0, 64, 116
2, 312433, Control_c, 0, 64, 127
2, 312693, Note_on_c, 0, 83, 49
2, 312782, Note_on_c, 0, 54, 0
2, 313049, Control_c, 0, 64, 103
2, 313067, Control_c, 0, 64, 82
2, 313082, Note_on_c, 0, 82, 50
2, 313086, Control_c, 0, 64, 68
2, 313086, Note_on_c, 0, 59, 49
2, 313105, Control_c, 0, 64, 60
2, 313123, Note_on_c, 0, 83, 0
2, 313127, Control_c, 0, 64, 55
2, 313143, Control_c, 0, 64, 53
2, 313162, Control_c, 0, 64, 55
2, 313182, Control_c, 0, 64, 59
2, 313201, Control_c, 0, 64, 62
2, 313220, Control_c, 0, 64, 64
2, 313240, Note_on_c, 0, 75, 0
2, 313241, Control_c, 0, 64, 65
2, 313258, Control_c, 0, 64, 67
2, 313276, Control_c, 0, 64, 71
2, 313296, Control_c, 0, 64, 75
2, 313318, Control_c, 0, 64, 81
2, 313335, Control_c, 0, 64, 85
2, 313353, Control_c, 0, 64, 87
2, 313373, Control_c, 0, 64, 86
2, 313411, Control_c, 0, 64, 85
2, 313431, Control_c, 0, 64, 82
2, 313453, Control_c, 0, 64, 77
2, 313469, Control_c, 0, 64, 68
2, 313489, Control_c, 0, 64, 62
2, 313498, Note_on_c, 0, 77, 55
2, 313505, Note_on_c, 0, 80, 57
2, 313509, Control_c, 0, 64, 57
2, 313519, Note_on_c, 0, 82, 0
2, 313526, Control_c, 0, 64, 56
2, 313565, Control_c, 0, 64, 58
2, 313586, Control_c, 0, 64, 59
2, 313607, Control_c, 0, 64, 62
2, 313625, Control_c, 0, 64, 64
2, 313642, Control_c, 0, 64, 66
2, 313664, Control_c, 0, 64, 70
2, 313673, Note_on_c, 0, 77, 0
2, 313684, Control_c, 0, 64, 76
2, 313701, Control_c, 0, 64, 82
2, 313719, Control_c, 0, 64, 90
2, 313741, Control_c, 0, 64, 97
2, 313757, Control_c, 0, 64, 100
2, 313842, Note_on_c, 0, 80, 0
2, 313853, Control_c, 0, 64, 97
2, 313873, Control_c, 0, 64, 92
2, 313891, Control_c, 0, 64, 84
2, 313900, Note_on_c, 0, 79, 59
2, 313904, Note_on_c, 0, 75, 54
2, 313911, Control_c, 0, 64, 75
2, 313930, Control_c, 0, 64, 68
2, 313951, Control_c, 0, 64, 63
2, 313969, Control_c, 0, 64, 60
2, 313989, Control_c, 0, 64, 59
2, 314047, Control_c, 0, 64, 58
2, 314065, Control_c, 0, 64, 57
2, 314087, Control_c, 0, 64, 55
2, 314104, Control_c, 0, 64, 54
2, 314183, Control_c, 0, 64, 53
2, 314237, Control_c, 0, 64, 52
2, 314301, Note_on_c, 0, 59, 0
2, 314327, Note_on_c, 0, 61, 55
2, 314334, Note_on_c, 0, 79, 0
2, 314345, Note_on_c, 0, 80, 58
2, 314724, Note_on_c, 0, 61, 0
2, 314729, Note_on_c, 0, 80, 0
2, 314733, Note_on_c, 0, 59, 60
2, 314738, Note_on_c, 0, 82, 65
2, 314911, Note_on_c, 0, 75, 0
2, 315085, Control_c, 0, 64, 53
2, 315101, Control_c, 0, 64, 54
2, 315108, Note_on_c, 0, 59, 0
2, 315120, Control_c, 0, 64, 57
2, 315140, Control_c, 0, 64, 59
2, 315144, Note_on_c, 0, 73, 66
2, 315146, Note_on_c, 0, 58, 63
2, 315160, Control_c, 0, 64, 61
2, 315177, Control_c, 0, 64, 63
2, 315197, Control_c, 0, 64, 65
2, 315218, Control_c, 0, 64, 69
2, 315235, Control_c, 0, 64, 76
2, 315255, Control_c, 0, 64, 91
2, 315273, Control_c, 0, 64, 127
2, 315335, Note_on_c, 0, 73, 0
2, 315525, Control_c, 0, 64, 104
2, 315543, Control_c, 0, 64, 88
2, 315565, Note_on_c, 0, 56, 53
2, 315565, Note_on_c, 0, 58, 0
2, 315565, Note_on_c, 0, 72, 67
2, 315570, Control_c, 0, 64, 76
2, 315570, Note_on_c, 0, 75, 70
2, 315584, Control_c, 0, 64, 67
2, 315601, Control_c, 0, 64, 62
2, 315611, Note_on_c, 0, 82, 0
2, 315620, Control_c, 0, 64, 58
2, 315639, Control_c, 0, 64, 56
2, 315677, Control_c, 0, 64, 55
2, 315696, Control_c, 0, 64, 53
2, 315716, Control_c, 0, 64, 52
2, 315736, Control_c, 0, 64, 50
2, 315754, Control_c, 0, 64, 49
2, 315774, Control_c, 0, 64, 48
2, 315984, Note_on_c, 0, 56, 0
2, 315986, Note_on_c, 0, 55, 58
2, 316024, Control_c, 0, 64, 47
2, 316346, Note_on_c, 0, 55, 0
2, 316364, Note_on_c, 0, 72, 0
2, 316373, Note_on_c, 0, 80, 73
2, 316395, Note_on_c, 0, 56, 47
2, 316758, Note_on_c, 0, 56, 0
2, 316784, Note_on_c, 0, 73, 69
2, 316787, Note_on_c, 0, 75, 0
2, 316793, Note_on_c, 0, 58, 48
2, 317186, Note_on_c, 0, 58, 0
2, 317208, Note_on_c, 0, 75, 76
2, 317212, Note_on_c, 0, 60, 44
2, 317251, Note_on_c, 0, 73, 0
2, 317255, Note_on_c, 0, 80, 0
2, 317290, Control_c, 0, 64, 48
2, 317328, Control_c, 0, 64, 49
2, 317349, Control_c, 0, 64, 51
2, 317369, Control_c, 0, 64, 53
2, 317386, Control_c, 0, 64, 57
2, 317406, Control_c, 0, 64, 60
2, 317424, Control_c, 0, 64, 62
2, 317444, Control_c, 0, 64, 63
2, 317462, Control_c, 0, 64, 65
2, 317481, Control_c, 0, 64, 68
2, 317501, Control_c, 0, 64, 75
2, 317521, Control_c, 0, 64, 85
2, 317543, Control_c, 0, 64, 100
2, 317558, Control_c, 0, 64, 127
2, 317602, Note_on_c, 0, 78, 75
2, 317781, Note_on_c, 0, 78, 0
2, 317964, Control_c, 0, 64, 120
2, 317977, Note_on_c, 0, 60, 0
2, 317981, Control_c, 0, 64, 100
2, 317999, Note_on_c, 0, 75, 0
2, 318004, Control_c, 0, 64, 82
2, 318017, Note_on_c, 0, 61, 41
2, 318017, Note_on_c, 0, 77, 72
2, 318021, Control_c, 0, 64, 70
2, 318035, Note_on_c, 0, 68, 54
2, 318039, Control_c, 0, 64, 63
2, 318059, Control_c, 0, 64, 57
2, 318076, Control_c, 0, 64, 53
2, 318096, Control_c, 0, 64, 50
2, 318116, Control_c, 0, 64, 49
2, 318135, Control_c, 0, 64, 48
2, 318153, Control_c, 0, 64, 47
2, 318173, Control_c, 0, 64, 46
2, 318307, Control_c, 0, 64, 48
2, 318327, Control_c, 0, 64, 50
2, 318348, Control_c, 0, 64, 54
2, 318364, Control_c, 0, 64, 58
2, 318386, Control_c, 0, 64, 61
2, 318393, Note_on_c, 0, 61, 0
2, 318405, Control_c, 0, 64, 64
2, 318425, Control_c, 0, 64, 67
2, 318433, Note_on_c, 0, 59, 56
2, 318442, Control_c, 0, 64, 73
2, 318462, Control_c, 0, 64, 86
2, 318480, Control_c, 0, 64, 127
2, 318609, Note_on_c, 0, 59, 0
2, 318846, Control_c, 0, 64, 109
2, 318853, Note_on_c, 0, 68, 0
2, 318853, Note_on_c, 0, 73, 68
2, 318868, Control_c, 0, 64, 95
2, 318887, Control_c, 0, 64, 82
2, 318887, Note_on_c, 0, 58, 41
2, 318904, Control_c, 0, 64, 72
2, 318923, Control_c, 0, 64, 65
2, 318941, Control_c, 0, 64, 61
2, 318960, Control_c, 0, 64, 59
2, 318979, Control_c, 0, 64, 58
2, 318999, Control_c, 0, 64, 57
2, 319018, Control_c, 0, 64, 55
2, 319036, Control_c, 0, 64, 53
2, 319059, Control_c, 0, 64, 51
2, 319075, Control_c, 0, 64, 49
2, 319191, Control_c, 0, 64, 50
2, 319209, Control_c, 0, 64, 52
2, 319229, Control_c, 0, 64, 54
2, 319248, Control_c, 0, 64, 58
2, 319267, Control_c, 0, 64, 61
2, 319271, Note_on_c, 0, 56, 41
2, 319290, Control_c, 0, 64, 63
2, 319290, Note_on_c, 0, 58, 0
2, 319309, Control_c, 0, 64, 64
2, 319328, Control_c, 0, 64, 66
2, 319346, Control_c, 0, 64, 69
2, 319365, Control_c, 0, 64, 73
2, 319383, Control_c, 0, 64, 80
2, 319402, Control_c, 0, 64, 88
2, 319421, Control_c, 0, 64, 98
2, 319440, Control_c, 0, 64, 110
2, 319462, Control_c, 0, 64, 127
2, 319573, Control_c, 0, 64, 122
2, 319593, Control_c, 0, 64, 113
2, 319611, Control_c, 0, 64, 106
2, 319633, Control_c, 0, 64, 97
2, 319653, Control_c, 0, 64, 85
2, 319662, Note_on_c, 0, 77, 0
2, 319667, Note_on_c, 0, 75, 61
2, 319671, Control_c, 0, 64, 74
2, 319682, Note_on_c, 0, 55, 43
2, 319690, Control_c, 0, 64, 65
2, 319709, Control_c, 0, 64, 60
2, 319725, Note_on_c, 0, 56, 0
2, 319732, Control_c, 0, 64, 58
2, 319747, Control_c, 0, 64, 57
2, 319787, Control_c, 0, 64, 56
2, 319805, Control_c, 0, 64, 54
2, 319825, Control_c, 0, 64, 52
2, 319844, Control_c, 0, 64, 51
2, 320041, Note_on_c, 0, 55, 0
2, 320097, Note_on_c, 0, 51, 49
2, 320249, Control_c, 0, 64, 50
2, 320269, Control_c, 0, 64, 49
2, 320285, Control_c, 0, 64, 48
2, 320304, Control_c, 0, 64, 46
2, 320323, Control_c, 0, 64, 44
2, 320341, Control_c, 0, 64, 38
2, 320361, Control_c, 0, 64, 27
2, 320382, Control_c, 0, 64, 0
2, 320471, Note_on_c, 0, 73, 0
2, 320483, Note_on_c, 0, 51, 0
2, 320492, Note_on_c, 0, 72, 62
2, 320510, Note_on_c, 0, 56, 46
2, 320880, Control_c, 0, 64, 14
2, 320891, Note_on_c, 0, 56, 0
2, 320902, Control_c, 0, 64, 32
2, 320902, Note_on_c, 0, 58, 61
2, 320920, Control_c, 0, 64, 44
2, 320936, Control_c, 0, 64, 53
2, 320958, Control_c, 0, 64, 59
2, 320975, Control_c, 0, 64, 61
2, 320995, Control_c, 0, 64, 62
2, 321018, Control_c, 0, 64, 64
2, 321035, Control_c, 0, 64, 66
2, 321053, Control_c, 0, 64, 69
2, 321073, Control_c, 0, 64, 75
2, 321094, Control_c, 0, 64, 82
2, 321111, Control_c, 0, 64, 88
2, 321131, Control_c, 0, 64, 90
2, 321188, Control_c, 0, 64, 89
2, 321209, Control_c, 0, 64, 88
2, 321225, Control_c, 0, 64, 86
2, 321245, Control_c, 0, 64, 81
2, 321264, Control_c, 0, 64, 73
2, 321276, Note_on_c, 0, 72, 0
2, 321282, Control_c, 0, 64, 64
2, 321292, Note_on_c, 0, 80, 78
2, 321298, Note_on_c, 0, 58, 0
2, 321303, Note_on_c, 0, 56, 47
2, 321308, Control_c, 0, 64, 56
2, 321322, Control_c, 0, 64, 53
2, 321344, Control_c, 0, 64, 52
2, 321362, Control_c, 0, 64, 53
2, 321379, Control_c, 0, 64, 54
2, 321399, Control_c, 0, 64, 57
2, 321419, Control_c, 0, 64, 59
2, 321436, Control_c, 0, 64, 62
2, 321457, Control_c, 0, 64, 63
2, 321477, Control_c, 0, 64, 65
2, 321494, Control_c, 0, 64, 68
2, 321513, Control_c, 0, 64, 72
2, 321536, Control_c, 0, 64, 77
2, 321552, Control_c, 0, 64, 82
2, 321572, Control_c, 0, 64, 86
2, 321590, Control_c, 0, 64, 88
2, 321610, Control_c, 0, 64, 87
2, 321630, Control_c, 0, 64, 83
2, 321648, Control_c, 0, 64, 75
2, 321669, Control_c, 0, 64, 65
2, 321674, Note_on_c, 0, 56, 0
2, 321686, Control_c, 0, 64, 59
2, 321695, Note_on_c, 0, 54, 56
2, 321706, Control_c, 0, 64, 57
2, 321724, Control_c, 0, 64, 58
2, 321743, Control_c, 0, 64, 60
2, 321764, Control_c, 0, 64, 63
2, 321783, Control_c, 0, 64, 65
2, 321802, Control_c, 0, 64, 69
2, 321820, Control_c, 0, 64, 74
2, 321839, Control_c, 0, 64, 81
2, 321863, Control_c, 0, 64, 93
2, 321878, Control_c, 0, 64, 111
2, 321898, Control_c, 0, 64, 127
2, 322014, Control_c, 0, 64, 94
2, 322033, Control_c, 0, 64, 73
2, 322053, Control_c, 0, 64, 62
2, 322067, Note_on_c, 0, 54, 0
2, 322071, Control_c, 0, 64, 54
2, 322080, Note_on_c, 0, 75, 0
2, 322091, Control_c, 0, 64, 55
2, 322096, Note_on_c, 0, 53, 53
2, 322106, Note_on_c, 0, 68, 80
2, 322110, Control_c, 0, 64, 59
2, 322129, Control_c, 0, 64, 63
2, 322149, Control_c, 0, 64, 66
2, 322166, Control_c, 0, 64, 72
2, 322188, Control_c, 0, 64, 80
2, 322192, Note_on_c, 0, 80, 0
2, 322205, Control_c, 0, 64, 95
2, 322225, Control_c, 0, 64, 127
2, 322250, Note_on_c, 0, 68, 0
2, 322429, Note_on_c, 0, 53, 0
2, 322489, Note_on_c, 0, 54, 54
2, 322489, Note_on_c, 0, 82, 80
2, 322645, Note_on_c, 0, 82, 0
2, 322892, Note_on_c, 0, 54, 0
2, 322907, Note_on_c, 0, 73, 82
2, 322913, Note_on_c, 0, 53, 54
2, 322913, Note_on_c, 0, 80, 78
2, 322916, Control_c, 0, 64, 118
2, 322936, Control_c, 0, 64, 87
2, 322954, Control_c, 0, 64, 72
2, 322975, Control_c, 0, 64, 61
2, 322993, Control_c, 0, 64, 55
2, 323011, Control_c, 0, 64, 51
2, 323050, Control_c, 0, 64, 50
2, 323088, Control_c, 0, 64, 49
2, 323109, Control_c, 0, 64, 47
2, 323126, Control_c, 0, 64, 46
2, 323206, Control_c, 0, 64, 45
2, 323264, Note_on_c, 0, 53, 0
2, 323321, Control_c, 0, 64, 44
2, 323321, Note_on_c, 0, 51, 51
2, 323328, Note_on_c, 0, 78, 73
2, 323358, Control_c, 0, 64, 43
2, 323372, Note_on_c, 0, 80, 0
2, 323453, Control_c, 0, 64, 42
2, 323511, Control_c, 0, 64, 41
2, 323551, Control_c, 0, 64, 40
2, 323587, Control_c, 0, 64, 39
2, 323606, Control_c, 0, 64, 38
2, 323626, Control_c, 0, 64, 37
2, 323646, Control_c, 0, 64, 35
2, 323668, Control_c, 0, 64, 33
2, 323672, Note_on_c, 0, 51, 0
2, 323705, Note_on_c, 0, 77, 69
2, 323714, Note_on_c, 0, 78, 0
2, 323723, Note_on_c, 0, 49, 43
2, 323741, Control_c, 0, 64, 36
2, 323762, Control_c, 0, 64, 45
2, 323779, Control_c, 0, 64, 55
2, 323800, Control_c, 0, 64, 62
2, 323819, Control_c, 0, 64, 65
2, 323837, Control_c, 0, 64, 70
2, 323859, Control_c, 0, 64, 81
2, 323859, Note_on_c, 0, 77, 0
2, 323876, Control_c, 0, 64, 106
2, 323887, Note_on_c, 0, 73, 0
2, 323897, Control_c, 0, 64, 127
2, 324069, Note_on_c, 0, 49, 0
2, 324087, Control_c, 0, 64, 91
2, 324109, Note_on_c, 0, 75, 68
2, 324109, Note_on_c, 0, 78, 70
2, 324110, Control_c, 0, 64, 70
2, 324128, Control_c, 0, 64, 60
2, 324138, Note_on_c, 0, 59, 44
2, 324145, Control_c, 0, 64, 53
2, 324165, Control_c, 0, 64, 52
2, 324185, Control_c, 0, 64, 54
2, 324202, Control_c, 0, 64, 57
2, 324222, Control_c, 0, 64, 60
2, 324240, Control_c, 0, 64, 63
2, 324260, Control_c, 0, 64, 65
2, 324278, Control_c, 0, 64, 68
2, 324297, Control_c, 0, 64, 73
2, 324318, Control_c, 0, 64, 79
2, 324338, Control_c, 0, 64, 92
2, 324354, Control_c, 0, 64, 109
2, 324376, Control_c, 0, 64, 127
2, 324376, Note_on_c, 0, 78, 0
2, 324472, Control_c, 0, 64, 93
2, 324477, Note_on_c, 0, 59, 0
2, 324489, Control_c, 0, 64, 75
2, 324494, Note_on_c, 0, 75, 0
2, 324506, Note_on_c, 0, 73, 79
2, 324506, Note_on_c, 0, 80, 76
2, 324511, Control_c, 0, 64, 64
2, 324521, Note_on_c, 0, 58, 51
2, 324532, Control_c, 0, 64, 56
2, 324547, Control_c, 0, 64, 52
2, 324566, Control_c, 0, 64, 53
2, 324588, Control_c, 0, 64, 56
2, 324605, Control_c, 0, 64, 59
2, 324624, Control_c, 0, 64, 62
2, 324642, Control_c, 0, 64, 64
2, 324662, Control_c, 0, 64, 66
2, 324684, Control_c, 0, 64, 70
2, 324700, Control_c, 0, 64, 75
2, 324720, Control_c, 0, 64, 84
2, 324740, Control_c, 0, 64, 100
2, 324760, Control_c, 0, 64, 127
2, 324763, Note_on_c, 0, 73, 0
2, 324895, Control_c, 0, 64, 105
2, 324916, Control_c, 0, 64, 80
2, 324916, Note_on_c, 0, 58, 0
2, 324916, Note_on_c, 0, 71, 76
2, 324932, Control_c, 0, 64, 66
2, 324938, Note_on_c, 0, 56, 56
2, 324952, Control_c, 0, 64, 58
2, 324971, Control_c, 0, 64, 54
2, 324989, Control_c, 0, 64, 55
2, 325007, Control_c, 0, 64, 58
2, 325028, Control_c, 0, 64, 62
2, 325048, Control_c, 0, 64, 65
2, 325065, Control_c, 0, 64, 71
2, 325069, Note_on_c, 0, 80, 0
2, 325087, Control_c, 0, 64, 79
2, 325108, Control_c, 0, 64, 91
2, 325124, Control_c, 0, 64, 108
2, 325141, Control_c, 0, 64, 127
2, 325272, Note_on_c, 0, 56, 0
2, 325314, Control_c, 0, 64, 96
2, 325323, Note_on_c, 0, 70, 70
2, 325323, Note_on_c, 0, 73, 74
2, 325336, Control_c, 0, 64, 78
2, 325341, Note_on_c, 0, 54, 49
2, 325354, Control_c, 0, 64, 67
2, 325359, Note_on_c, 0, 71, 0
2, 325375, Control_c, 0, 64, 61
2, 325394, Control_c, 0, 64, 57
2, 325413, Control_c, 0, 64, 56
2, 325431, Control_c, 0, 64, 55
2, 325449, Control_c, 0, 64, 54
2, 325469, Control_c, 0, 64, 53
2, 325489, Control_c, 0, 64, 52
2, 325507, Control_c, 0, 64, 50
2, 325526, Control_c, 0, 64, 49
2, 325582, Control_c, 0, 64, 48
2, 325606, Control_c, 0, 64, 47
2, 325624, Control_c, 0, 64, 45
2, 325642, Control_c, 0, 64, 44
2, 325698, Note_on_c, 0, 54, 0
2, 325700, Control_c, 0, 64, 45
2, 325719, Control_c, 0, 64, 49
2, 325725, Note_on_c, 0, 71, 82
2, 325732, Note_on_c, 0, 56, 55
2, 325736, Control_c, 0, 64, 55
2, 325741, Note_on_c, 0, 73, 0
2, 325751, Note_on_c, 0, 70, 0
2, 325757, Control_c, 0, 64, 60
2, 325777, Control_c, 0, 64, 63
2, 325798, Control_c, 0, 64, 66
2, 325818, Control_c, 0, 64, 69
2, 325835, Control_c, 0, 64, 75
2, 325855, Control_c, 0, 64, 84
2, 325872, Control_c, 0, 64, 93
2, 325891, Control_c, 0, 64, 103
2, 325910, Control_c, 0, 64, 116
2, 325930, Control_c, 0, 64, 127
2, 326044, Control_c, 0, 64, 108
2, 326064, Control_c, 0, 64, 94
2, 326084, Control_c, 0, 64, 80
2, 326104, Control_c, 0, 64, 69
2, 326104, Note_on_c, 0, 56, 0
2, 326122, Control_c, 0, 64, 61
2, 326144, Control_c, 0, 64, 57
2, 326144, Note_on_c, 0, 73, 74
2, 326144, Note_on_c, 0, 78, 68
2, 326148, Note_on_c, 0, 71, 0
2, 326157, Note_on_c, 0, 54, 44
2, 326161, Control_c, 0, 64, 55
2, 326199, Control_c, 0, 64, 54
2, 326220, Control_c, 0, 64, 53
2, 326240, Control_c, 0, 64, 51
2, 326255, Control_c, 0, 64, 50
2, 326351, Control_c, 0, 64, 51
2, 326370, Control_c, 0, 64, 52
2, 326391, Control_c, 0, 64, 54
2, 326411, Control_c, 0, 64, 58
2, 326432, Control_c, 0, 64, 62
2, 326448, Control_c, 0, 64, 64
2, 326470, Control_c, 0, 64, 67
2, 326475, Note_on_c, 0, 54, 0
2, 326492, Control_c, 0, 64, 72
2, 326508, Control_c, 0, 64, 79
2, 326526, Control_c, 0, 64, 91
2, 326546, Control_c, 0, 64, 127
2, 326559, Note_on_c, 0, 52, 52
2, 326698, Note_on_c, 0, 52, 0
2, 326698, Note_on_c, 0, 73, 0
2, 326854, Control_c, 0, 64, 118
2, 326874, Control_c, 0, 64, 92
2, 326893, Control_c, 0, 64, 76
2, 326910, Control_c, 0, 64, 65
2, 326933, Control_c, 0, 64, 59
2, 326951, Control_c, 0, 64, 56
2, 326962, Note_on_c, 0, 66, 71
2, 326971, Control_c, 0, 64, 55
2, 326971, Note_on_c, 0, 51, 50
2, 327048, Control_c, 0, 64, 56
2, 327068, Control_c, 0, 64, 58
2, 327085, Control_c, 0, 64, 61
2, 327103, Control_c, 0, 64, 64
2, 327124, Control_c, 0, 64, 69
2, 327144, Control_c, 0, 64, 78
2, 327162, Control_c, 0, 64, 94
2, 327181, Control_c, 0, 64, 127
2, 327238, Note_on_c, 0, 78, 0
2, 327287, Note_on_c, 0, 66, 0
2, 327365, Note_on_c, 0, 51, 0
2, 327379, Note_on_c, 0, 76, 70
2, 327392, Note_on_c, 0, 49, 40
2, 327467, Note_on_c, 0, 76, 0
2, 327699, Control_c, 0, 64, 115
2, 327718, Control_c, 0, 64, 92
2, 327739, Control_c, 0, 64, 76
2, 327743, Note_on_c, 0, 49, 0
2, 327757, Control_c, 0, 64, 65
2, 327774, Control_c, 0, 64, 57
2, 327792, Note_on_c, 0, 47, 36
2, 327792, Note_on_c, 0, 71, 65
2, 327797, Control_c, 0, 64, 54
2, 327809, Note_on_c, 0, 75, 55
2, 327814, Control_c, 0, 64, 53
2, 327873, Control_c, 0, 64, 52
2, 327892, Control_c, 0, 64, 51
2, 327911, Control_c, 0, 64, 49
2, 327931, Control_c, 0, 64, 48
2, 328120, Control_c, 0, 64, 49
2, 328187, Note_on_c, 0, 47, 0
2, 328192, Note_on_c, 0, 75, 0
2, 328203, Note_on_c, 0, 80, 63
2, 328212, Note_on_c, 0, 44, 43
2, 328216, Control_c, 0, 64, 50
2, 328469, Control_c, 0, 64, 51
2, 328599, Note_on_c, 0, 80, 0
2, 328608, Note_on_c, 0, 44, 0
2, 328616, Note_on_c, 0, 73, 54
2, 328628, Note_on_c, 0, 46, 40
2, 328868, Control_c, 0, 64, 50
2, 328987, Control_c, 0, 64, 51
2, 328987, Note_on_c, 0, 46, 0
2, 328998, Note_on_c, 0, 71, 0
2, 329000, Control_c, 0, 64, 53
2, 329024, Control_c, 0, 64, 57
2, 329024, Note_on_c, 0, 42, 40
2, 329024, Note_on_c, 0, 70, 53
2, 329029, Note_on_c, 0, 78, 58
2, 329040, Control_c, 0, 64, 60
2, 329058, Control_c, 0, 64, 62
2, 329074, Note_on_c, 0, 73, 0
2, 329079, Control_c, 0, 64, 64
2, 329096, Control_c, 0, 64, 67
2, 329116, Control_c, 0, 64, 73
2, 329137, Control_c, 0, 64, 81
2, 329157, Control_c, 0, 64, 99
2, 329176, Control_c, 0, 64, 127
2, 329326, Note_on_c, 0, 70, 0
2, 329368, Control_c, 0, 64, 111
2, 329387, Control_c, 0, 64, 94
2, 329405, Control_c, 0, 64, 81
2, 329416, Note_on_c, 0, 42, 0
2, 329427, Control_c, 0, 64, 70
2, 329444, Note_on_c, 0, 68, 65
2, 329449, Control_c, 0, 64, 63
2, 329464, Control_c, 0, 64, 59
2, 329464, Note_on_c, 0, 49, 40
2, 329482, Control_c, 0, 64, 57
2, 329519, Control_c, 0, 64, 56
2, 329558, Control_c, 0, 64, 54
2, 329580, Control_c, 0, 64, 52
2, 329595, Control_c, 0, 64, 50
2, 329617, Control_c, 0, 64, 49
2, 329635, Control_c, 0, 64, 48
2, 329656, Control_c, 0, 64, 46
2, 329673, Control_c, 0, 64, 44
2, 329694, Control_c, 0, 64, 39
2, 329711, Control_c, 0, 64, 32
2, 329730, Control_c, 0, 64, 22
2, 329750, Control_c, 0, 64, 12
2, 329773, Control_c, 0, 64, 0
2, 329829, Note_on_c, 0, 78, 0
2, 329858, Note_on_c, 0, 77, 55
2, 329865, Note_on_c, 0, 37, 39
2, 329943, Control_c, 0, 64, 32
2, 329961, Control_c, 0, 64, 51
2, 329983, Control_c, 0, 64, 62
2, 330001, Control_c, 0, 64, 64
2, 330016, Note_on_c, 0, 77, 0
2, 330021, Control_c, 0, 64, 67
2, 330039, Note_on_c, 0, 68, 0
2, 330043, Control_c, 0, 64, 70
2, 330059, Control_c, 0, 64, 77
2, 330078, Control_c, 0, 64, 86
2, 330096, Control_c, 0, 64, 99
2, 330100, Note_on_c, 0, 37, 0
2, 330118, Control_c, 0, 64, 127
2, 330232, Note_on_c, 0, 49, 0
2, 330269, Control_c, 0, 64, 112
2, 330289, Control_c, 0, 64, 93
2, 330307, Control_c, 0, 64, 78
2, 330325, Control_c, 0, 64, 66
2, 330345, Control_c, 0, 64, 58
2, 330348, Note_on_c, 0, 78, 55
2, 330367, Control_c, 0, 64, 53
2, 330367, Note_on_c, 0, 66, 43
2, 330369, Note_on_c, 0, 42, 35
2, 330383, Control_c, 0, 64, 52
2, 330402, Control_c, 0, 64, 53
2, 330423, Control_c, 0, 64, 55
2, 330441, Control_c, 0, 64, 58
2, 330460, Control_c, 0, 64, 61
2, 330479, Control_c, 0, 64, 65
2, 330500, Control_c, 0, 64, 70
2, 330518, Control_c, 0, 64, 83
2, 330538, Control_c, 0, 64, 127
2, 330651, Note_on_c, 0, 66, 0
2, 330710, Note_on_c, 0, 78, 0
2, 330743, Note_on_c, 0, 42, 0
2, 330779, Note_on_c, 0, 44, 42
2, 330804, Note_on_c, 0, 65, 44
2, 330862, Note_on_c, 0, 65, 0
2, 331187, Note_on_c, 0, 73, 68
2, 331189, Control_c, 0, 64, 120
2, 331209, Control_c, 0, 64, 90
2, 331224, Note_on_c, 0, 44, 0
2, 331224, Note_on_c, 0, 46, 39
2, 331229, Note_on_c, 0, 66, 46
2, 331234, Control_c, 0, 64, 72
2, 331249, Control_c, 0, 64, 64
2, 331267, Control_c, 0, 64, 58
2, 331287, Control_c, 0, 64, 54
2, 331305, Control_c, 0, 64, 52
2, 331325, Control_c, 0, 64, 51
2, 331342, Control_c, 0, 64, 49
2, 331363, Control_c, 0, 64, 46
2, 331383, Control_c, 0, 64, 42
2, 331401, Control_c, 0, 64, 39
2, 331421, Control_c, 0, 64, 37
2, 331459, Control_c, 0, 64, 36
2, 331498, Control_c, 0, 64, 35
2, 331536, Control_c, 0, 64, 34
2, 331570, Note_on_c, 0, 66, 0
2, 331583, Note_on_c, 0, 46, 0
2, 331606, Note_on_c, 0, 68, 51
2, 331632, Control_c, 0, 64, 33
2, 331637, Note_on_c, 0, 44, 31
2, 331671, Control_c, 0, 64, 32
2, 331688, Control_c, 0, 64, 31
2, 331711, Control_c, 0, 64, 30
2, 331767, Control_c, 0, 64, 29
2, 331862, Control_c, 0, 64, 28
2, 331974, Note_on_c, 0, 68, 0
2, 331978, Control_c, 0, 64, 30
2, 331978, Note_on_c, 0, 44, 0
2, 332001, Control_c, 0, 64, 35
2, 332001, Note_on_c, 0, 42, 38
2, 332013, Note_on_c, 0, 70, 45
2, 332017, Control_c, 0, 64, 44
2, 332035, Control_c, 0, 64, 54
2, 332053, Control_c, 0, 64, 61
2, 332074, Control_c, 0, 64, 63
2, 332096, Control_c, 0, 64, 65
2, 332113, Control_c, 0, 64, 68
2, 332131, Control_c, 0, 64, 73
2, 332149, Control_c, 0, 64, 82
2, 332153, Note_on_c, 0, 70, 0
2, 332170, Control_c, 0, 64, 94
2, 332189, Control_c, 0, 64, 127
2, 332409, Note_on_c, 0, 73, 0
2, 332420, Note_on_c, 0, 42, 0
2, 332424, Control_c, 0, 64, 97
2, 332424, Note_on_c, 0, 72, 60
2, 332440, Control_c, 0, 64, 75
2, 332442, Note_on_c, 0, 54, 42
2, 332446, Note_on_c, 0, 68, 49
2, 332458, Control_c, 0, 64, 62
2, 332476, Control_c, 0, 64, 55
2, 332497, Control_c, 0, 64, 54
2, 332515, Control_c, 0, 64, 55
2, 332533, Control_c, 0, 64, 58
2, 332553, Control_c, 0, 64, 60
2, 332571, Control_c, 0, 64, 63
2, 332592, Control_c, 0, 64, 65
2, 332610, Control_c, 0, 64, 68
2, 332630, Control_c, 0, 64, 72
2, 332648, Control_c, 0, 64, 78
2, 332670, Control_c, 0, 64, 86
2, 332688, Control_c, 0, 64, 93
2, 332710, Control_c, 0, 64, 95
2, 332746, Control_c, 0, 64, 94
2, 332767, Control_c, 0, 64, 93
2, 332785, Control_c, 0, 64, 91
2, 332805, Control_c, 0, 64, 87
2, 332807, Note_on_c, 0, 54, 0
2, 332825, Control_c, 0, 64, 81
2, 332825, Note_on_c, 0, 72, 0
2, 332830, Note_on_c, 0, 70, 62
2, 332835, Note_on_c, 0, 73, 71
2, 332842, Control_c, 0, 64, 73
2, 332848, Note_on_c, 0, 68, 0
2, 332852, Note_on_c, 0, 53, 40
2, 332860, Control_c, 0, 64, 65
2, 332880, Control_c, 0, 64, 60
2, 332902, Control_c, 0, 64, 57
2, 332920, Control_c, 0, 64, 56
2, 332937, Control_c, 0, 64, 55
2, 332957, Control_c, 0, 64, 54
2, 332979, Control_c, 0, 64, 53
2, 332995, Control_c, 0, 64, 51
2, 333013, Control_c, 0, 64, 49
2, 333032, Control_c, 0, 64, 48
2, 333110, Control_c, 0, 64, 47
2, 333130, Control_c, 0, 64, 46
2, 333144, Note_on_c, 0, 73, 0
2, 333149, Control_c, 0, 64, 45
2, 333169, Control_c, 0, 64, 44
2, 333198, Note_on_c, 0, 53, 0
2, 333202, Note_on_c, 0, 75, 74
2, 333206, Note_on_c, 0, 70, 0
2, 333217, Note_on_c, 0, 72, 65
2, 333230, Note_on_c, 0, 51, 49
2, 333266, Control_c, 0, 64, 46
2, 333283, Control_c, 0, 64, 53
2, 333303, Control_c, 0, 64, 59
2, 333321, Control_c, 0, 64, 64
2, 333334, Note_on_c, 0, 72, 0
2, 333343, Control_c, 0, 64, 67
2, 333360, Control_c, 0, 64, 73
2, 333380, Control_c, 0, 64, 85
2, 333401, Control_c, 0, 64, 106
2, 333418, Control_c, 0, 64, 127
2, 333440, Note_on_c, 0, 75, 0
2, 333612, Control_c, 0, 64, 96
2, 333630, Note_on_c, 0, 77, 74
2, 333634, Control_c, 0, 64, 80
2, 333638, Note_on_c, 0, 51, 0
2, 333647, Control_c, 0, 64, 69
2, 333668, Control_c, 0, 64, 62
2, 333672, Note_on_c, 0, 49, 41
2, 333672, Note_on_c, 0, 73, 48
2, 333688, Control_c, 0, 64, 57
2, 333706, Control_c, 0, 64, 55
2, 333724, Control_c, 0, 64, 53
2, 333762, Control_c, 0, 64, 51
2, 333782, Control_c, 0, 64, 49
2, 333800, Control_c, 0, 64, 46
2, 333820, Control_c, 0, 64, 43
2, 333916, Control_c, 0, 64, 42
2, 333936, Control_c, 0, 64, 41
2, 334012, Note_on_c, 0, 73, 0
2, 334018, Note_on_c, 0, 77, 0
2, 334037, Note_on_c, 0, 75, 59
2, 334051, Note_on_c, 0, 71, 47
2, 334243, Control_c, 0, 64, 42
2, 334432, Note_on_c, 0, 71, 0
2, 334462, Note_on_c, 0, 73, 63
2, 334462, Note_on_c, 0, 75, 0
2, 334471, Note_on_c, 0, 49, 0
2, 334486, Note_on_c, 0, 54, 38
2, 334684, Control_c, 0, 64, 43
2, 334760, Control_c, 0, 64, 44
2, 334780, Control_c, 0, 64, 46
2, 334802, Control_c, 0, 64, 49
2, 334820, Control_c, 0, 64, 54
2, 334840, Control_c, 0, 64, 58
2, 334851, Note_on_c, 0, 70, 40
2, 334858, Control_c, 0, 64, 61
2, 334877, Control_c, 0, 64, 62
2, 334898, Control_c, 0, 64, 64
2, 334916, Control_c, 0, 64, 67
2, 334934, Control_c, 0, 64, 73
2, 334950, Note_on_c, 0, 70, 0
2, 334954, Control_c, 0, 64, 84
2, 334972, Control_c, 0, 64, 104
2, 334991, Control_c, 0, 64, 127
2, 335222, Control_c, 0, 64, 112
2, 335239, Note_on_c, 0, 73, 0
2, 335244, Control_c, 0, 64, 93
2, 335255, Note_on_c, 0, 80, 57
2, 335262, Control_c, 0, 64, 80
2, 335278, Control_c, 0, 64, 71
2, 335301, Control_c, 0, 64, 64
2, 335301, Note_on_c, 0, 71, 10
2, 335318, Control_c, 0, 64, 60
2, 335340, Control_c, 0, 64, 59
2, 335357, Control_c, 0, 64, 58
2, 335378, Control_c, 0, 64, 57
2, 335395, Control_c, 0, 64, 56
2, 335413, Control_c, 0, 64, 55
2, 335433, Control_c, 0, 64, 54
2, 335453, Control_c, 0, 64, 53
2, 335491, Control_c, 0, 64, 54
2, 335530, Control_c, 0, 64, 55
2, 335549, Control_c, 0, 64, 57
2, 335566, Control_c, 0, 64, 59
2, 335587, Control_c, 0, 64, 62
2, 335607, Control_c, 0, 64, 64
2, 335625, Control_c, 0, 64, 68
2, 335645, Control_c, 0, 64, 74
2, 335656, Note_on_c, 0, 71, 0
2, 335664, Control_c, 0, 64, 85
2, 335669, Note_on_c, 0, 70, 46
2, 335686, Control_c, 0, 64, 108
2, 335702, Control_c, 0, 64, 127
2, 335777, Note_on_c, 0, 70, 0
2, 335803, Note_on_c, 0, 80, 0
2, 336048, Control_c, 0, 64, 108
2, 336066, Control_c, 0, 64, 90
2, 336080, Note_on_c, 0, 73, 59
2, 336086, Control_c, 0, 64, 78
2, 336097, Note_on_c, 0, 68, 49
2, 336105, Control_c, 0, 64, 69
2, 336116, Note_on_c, 0, 53, 26
2, 336121, Note_on_c, 0, 54, 0
2, 336125, Control_c, 0, 64, 64
2, 336142, Control_c, 0, 64, 61
2, 336165, Control_c, 0, 64, 59
2, 336182, Control_c, 0, 64, 57
2, 336202, Control_c, 0, 64, 56
2, 336220, Control_c, 0, 64, 53
2, 336241, Control_c, 0, 64, 51
2, 336259, Control_c, 0, 64, 49
2, 336277, Control_c, 0, 64, 47
2, 336298, Control_c, 0, 64, 46
2, 336413, Control_c, 0, 64, 47
2, 336433, Control_c, 0, 64, 48
2, 336452, Control_c, 0, 64, 52
2, 336470, Control_c, 0, 64, 56
2, 336490, Control_c, 0, 64, 59
2, 336508, Control_c, 0, 64, 61
2, 336508, Note_on_c, 0, 71, 47
2, 336528, Control_c, 0, 64, 63
2, 336548, Control_c, 0, 64, 65
2, 336561, Note_on_c, 0, 68, 0
2, 336566, Control_c, 0, 64, 68
2, 336586, Control_c, 0, 64, 74
2, 336605, Control_c, 0, 64, 83
2, 336623, Control_c, 0, 64, 95
2, 336644, Control_c, 0, 64, 116
2, 336664, Control_c, 0, 64, 127
2, 336853, Control_c, 0, 64, 113
2, 336866, Note_on_c, 0, 71, 0
2, 336875, Control_c, 0, 64, 88
2, 336884, Note_on_c, 0, 53, 0
2, 336893, Control_c, 0, 64, 73
2, 336913, Control_c, 0, 64, 63
2, 336922, Note_on_c, 0, 54, 37
2, 336922, Note_on_c, 0, 70, 43
2, 336930, Control_c, 0, 64, 57
2, 336950, Control_c, 0, 64, 55
2, 336991, Control_c, 0, 64, 56
2, 337007, Control_c, 0, 64, 55
2, 337047, Control_c, 0, 64, 54
2, 337161, Control_c, 0, 64, 55
2, 337271, Note_on_c, 0, 54, 0
2, 337278, Control_c, 0, 64, 56
2, 337294, Control_c, 0, 64, 57
2, 337314, Note_on_c, 0, 75, 67
2, 337316, Control_c, 0, 64, 59
2, 337318, Note_on_c, 0, 53, 42
2, 337336, Control_c, 0, 64, 60
2, 337347, Note_on_c, 0, 73, 0
2, 337354, Control_c, 0, 64, 63
2, 337371, Control_c, 0, 64, 65
2, 337391, Control_c, 0, 64, 68
2, 337412, Control_c, 0, 64, 74
2, 337429, Control_c, 0, 64, 82
2, 337448, Control_c, 0, 64, 92
2, 337468, Control_c, 0, 64, 104
2, 337487, Control_c, 0, 64, 120
2, 337506, Control_c, 0, 64, 127
2, 337719, Note_on_c, 0, 75, 0
2, 337724, Control_c, 0, 64, 110
2, 337724, Note_on_c, 0, 77, 75
2, 337730, Note_on_c, 0, 51, 49
2, 337737, Control_c, 0, 64, 98
2, 337756, Control_c, 0, 64, 88
2, 337777, Control_c, 0, 64, 77
2, 337791, Note_on_c, 0, 53, 0
2, 337795, Control_c, 0, 64, 68
2, 337812, Control_c, 0, 64, 63
2, 337832, Control_c, 0, 64, 60
2, 337890, Control_c, 0, 64, 59
2, 337912, Control_c, 0, 64, 58
2, 337930, Control_c, 0, 64, 57
2, 337948, Control_c, 0, 64, 56
2, 337968, Control_c, 0, 64, 55
2, 338025, Control_c, 0, 64, 54
2, 338045, Control_c, 0, 64, 52
2, 338064, Control_c, 0, 64, 50
2, 338084, Control_c, 0, 64, 49
2, 338102, Control_c, 0, 64, 46
2, 338122, Control_c, 0, 64, 44
2, 338131, Note_on_c, 0, 50, 51
2, 338141, Control_c, 0, 64, 41
2, 338160, Control_c, 0, 64, 37
2, 338173, Note_on_c, 0, 51, 0
2, 338178, Control_c, 0, 64, 33
2, 338198, Control_c, 0, 64, 30
2, 338217, Control_c, 0, 64, 27
2, 338239, Control_c, 0, 64, 25
2, 338276, Control_c, 0, 64, 23
2, 338295, Control_c, 0, 64, 22
2, 338331, Control_c, 0, 64, 21
2, 338371, Control_c, 0, 64, 20
2, 338507, Control_c, 0, 64, 19
2, 338524, Control_c, 0, 64, 18
2, 338537, Note_on_c, 0, 50, 0
2, 338543, Control_c, 0, 64, 16
2, 338547, Note_on_c, 0, 77, 0
2, 338554, Note_on_c, 0, 78, 72
2, 338563, Control_c, 0, 64, 13
2, 338569, Note_on_c, 0, 51, 48
2, 338583, Control_c, 0, 64, 9
2, 338601, Control_c, 0, 64, 0
2, 338992, Note_on_c, 0, 72, 66
2, 339026, Control_c, 0, 64, 26
2, 339035, Note_on_c, 0, 70, 0
2, 339045, Control_c, 0, 64, 44
2, 339064, Control_c, 0, 64, 56
2, 339081, Control_c, 0, 64, 61
2, 339100, Control_c, 0, 64, 62
2, 339118, Control_c, 0, 64, 63
2, 339139, Control_c, 0, 64, 64
2, 339178, Control_c, 0, 64, 65
2, 339196, Control_c, 0, 64, 66
2, 339216, Control_c, 0, 64, 67
2, 339312, Control_c, 0, 64, 66
2, 339349, Control_c, 0, 64, 65
2, 339371, Control_c, 0, 64, 64
2, 339376, Note_on_c, 0, 51, 0
2, 339376, Note_on_c, 0, 73, 75
2, 339383, Note_on_c, 0, 72, 0
2, 339391, Control_c, 0, 64, 62
2, 339393, Note_on_c, 0, 46, 45
2, 339406, Control_c, 0, 64, 60
2, 339427, Control_c, 0, 64, 57
2, 339447, Control_c, 0, 64, 54
2, 339466, Control_c, 0, 64, 51
2, 339484, Control_c, 0, 64, 46
2, 339506, Control_c, 0, 64, 41
2, 339524, Control_c, 0, 64, 37
2, 339543, Control_c, 0, 64, 33
2, 339561, Control_c, 0, 64, 31
2, 339581, Control_c, 0, 64, 30
2, 339600, Control_c, 0, 64, 28
2, 339621, Control_c, 0, 64, 26
2, 339637, Control_c, 0, 64, 24
2, 339658, Control_c, 0, 64, 21
2, 339677, Control_c, 0, 64, 19
2, 339697, Control_c, 0, 64, 18
2, 339777, Note_on_c, 0, 75, 69
2, 339779, Note_on_c, 0, 73, 0
2, 339792, Note_on_c, 0, 46, 0
2, 339803, Note_on_c, 0, 48, 41
2, 340130, Note_on_c, 0, 48, 0
2, 340137, Control_c, 0, 64, 19
2, 340171, Note_on_c, 0, 75, 0
2, 340179, Control_c, 0, 64, 20
2, 340188, Note_on_c, 0, 68, 65
2, 340195, Control_c, 0, 64, 22
2, 340201, Note_on_c, 0, 49, 38
2, 340214, Control_c, 0, 64, 25
2, 340233, Control_c, 0, 64, 31
2, 340253, Control_c, 0, 64, 40
2, 340271, Control_c, 0, 64, 50
2, 340291, Control_c, 0, 64, 58
2, 340311, Control_c, 0, 64, 62
2, 340328, Control_c, 0, 64, 64
2, 340349, Control_c, 0, 64, 66
2, 340366, Control_c, 0, 64, 71
2, 340387, Control_c, 0, 64, 81
2, 340407, Control_c, 0, 64, 100
2, 340424, Control_c, 0, 64, 127
2, 340444, Note_on_c, 0, 78, 0
2, 340571, Note_on_c, 0, 77, 79
2, 340609, Note_on_c, 0, 68, 0
2, 340965, Control_c, 0, 64, 112
2, 340986, Control_c, 0, 64, 97
2, 340986, Note_on_c, 0, 77, 0
2, 340997, Note_on_c, 0, 70, 71
2, 340997, Note_on_c, 0, 75, 70
2, 341002, Control_c, 0, 64, 87
2, 341022, Control_c, 0, 64, 78
2, 341026, Note_on_c, 0, 42, 49
2, 341040, Note_on_c, 0, 49, 0
2, 341044, Control_c, 0, 64, 69
2, 341059, Control_c, 0, 64, 63
2, 341077, Control_c, 0, 64, 58
2, 341098, Control_c, 0, 64, 57
2, 341155, Control_c, 0, 64, 55
2, 341174, Control_c, 0, 64, 52
2, 341194, Control_c, 0, 64, 49
2, 341213, Control_c, 0, 64, 46
2, 341231, Control_c, 0, 64, 43
2, 341251, Control_c, 0, 64, 41
2, 341270, Control_c, 0, 64, 39
2, 341289, Control_c, 0, 64, 35
2, 341307, Control_c, 0, 64, 30
2, 341326, Control_c, 0, 64, 26
2, 341346, Control_c, 0, 64, 24
2, 341369, Control_c, 0, 64, 23
2, 341383, Control_c, 0, 64, 22
2, 341406, Control_c, 0, 64, 21
2, 341416, Note_on_c, 0, 73, 75
2, 341427, Control_c, 0, 64, 20
2, 341444, Control_c, 0, 64, 18
2, 341455, Note_on_c, 0, 75, 0
2, 341462, Control_c, 0, 64, 17
2, 341482, Control_c, 0, 64, 16
2, 341501, Control_c, 0, 64, 15
2, 341521, Control_c, 0, 64, 14
2, 341771, Note_on_c, 0, 42, 0
2, 341810, Note_on_c, 0, 72, 73
2, 341815, Note_on_c, 0, 44, 47
2, 341849, Note_on_c, 0, 73, 0
2, 341904, Control_c, 0, 64, 18
2, 341924, Control_c, 0, 64, 26
2, 341944, Control_c, 0, 64, 38
2, 341960, Control_c, 0, 64, 52
2, 341980, Control_c, 0, 64, 60
2, 342000, Control_c, 0, 64, 62
2, 342018, Control_c, 0, 64, 64
2, 342037, Control_c, 0, 64, 67
2, 342057, Control_c, 0, 64, 73
2, 342078, Control_c, 0, 64, 85
2, 342078, Note_on_c, 0, 70, 0
2, 342095, Control_c, 0, 64, 112
2, 342113, Control_c, 0, 64, 127
2, 342212, Note_on_c, 0, 72, 0
2, 342218, Note_on_c, 0, 68, 78
2, 342338, Note_on_c, 0, 68, 0
2, 342575, Control_c, 0, 64, 104
2, 342594, Control_c, 0, 64, 93
2, 342616, Control_c, 0, 64, 83
2, 342622, Note_on_c, 0, 66, 66
2, 342627, Note_on_c, 0, 74, 69
2, 342629, Note_on_c, 0, 44, 0
2, 342633, Control_c, 0, 64, 74
2, 342638, Note_on_c, 0, 46, 47
2, 342656, Control_c, 0, 64, 65
2, 342671, Control_c, 0, 64, 60
2, 342689, Control_c, 0, 64, 57
2, 342712, Control_c, 0, 64, 56
2, 342730, Control_c, 0, 64, 55
2, 342751, Control_c, 0, 64, 53
2, 342767, Control_c, 0, 64, 50
2, 342787, Control_c, 0, 64, 44
2, 342807, Control_c, 0, 64, 37
2, 342825, Control_c, 0, 64, 28
2, 342845, Control_c, 0, 64, 14
2, 342864, Control_c, 0, 64, 0
2, 343020, Note_on_c, 0, 66, 0
2, 343027, Note_on_c, 0, 65, 65
2, 343093, Control_c, 0, 64, 25
2, 343113, Control_c, 0, 64, 47
2, 343131, Control_c, 0, 64, 60
2, 343153, Control_c, 0, 64, 66
2, 343173, Control_c, 0, 64, 73
2, 343177, Note_on_c, 0, 74, 0
2, 343192, Control_c, 0, 64, 94
2, 343201, Note_on_c, 0, 65, 0
2, 343210, Control_c, 0, 64, 127
2, 343421, Control_c, 0, 64, 120
2, 343440, Control_c, 0, 64, 90
2, 343451, Note_on_c, 0, 46, 0
2, 343451, Note_on_c, 0, 75, 71
2, 343458, Control_c, 0, 64, 75
2, 343458, Note_on_c, 0, 47, 49
2, 343467, Note_on_c, 0, 63, 56
2, 343479, Control_c, 0, 64, 64
2, 343499, Control_c, 0, 64, 58
2, 343516, Control_c, 0, 64, 55
2, 343554, Control_c, 0, 64, 54
2, 343574, Control_c, 0, 64, 53
2, 343596, Control_c, 0, 64, 52
2, 343612, Control_c, 0, 64, 51
2, 343631, Control_c, 0, 64, 49
2, 343729, Control_c, 0, 64, 48
2, 343766, Control_c, 0, 64, 47
2, 343824, Control_c, 0, 64, 46
2, 343875, Note_on_c, 0, 46, 62
2, 343875, Note_on_c, 0, 66, 66
2, 343882, Control_c, 0, 64, 45
2, 343882, Note_on_c, 0, 47, 0
2, 343924, Note_on_c, 0, 63, 0
2, 344227, Control_c, 0, 64, 44
2, 344265, Note_on_c, 0, 44, 67
2, 344276, Note_on_c, 0, 46, 0
2, 344280, Note_on_c, 0, 66, 0
2, 344291, Note_on_c, 0, 71, 64
2, 344458, Control_c, 0, 64, 43
2, 344535, Control_c, 0, 64, 42
2, 344662, Note_on_c, 0, 44, 0
2, 344670, Control_c, 0, 64, 43
2, 344675, Note_on_c, 0, 42, 62
2, 344688, Control_c, 0, 64, 47
2, 344710, Control_c, 0, 64, 54
2, 344724, Control_c, 0, 64, 59
2, 344745, Control_c, 0, 64, 61
2, 344764, Control_c, 0, 64, 64
2, 344785, Control_c, 0, 64, 66
2, 344803, Control_c, 0, 64, 70
2, 344820, Control_c, 0, 64, 78
2, 344827, Note_on_c, 0, 75, 0
2, 344840, Control_c, 0, 64, 90
2, 344860, Control_c, 0, 64, 100
2, 344878, Control_c, 0, 64, 106
2, 344938, Control_c, 0, 64, 104
2, 344956, Control_c, 0, 64, 102
2, 344975, Control_c, 0, 64, 98
2, 344996, Control_c, 0, 64, 93
2, 345013, Control_c, 0, 64, 86
2, 345033, Control_c, 0, 64, 76
2, 345053, Control_c, 0, 64, 67
2, 345073, Note_on_c, 0, 42, 0
2, 345077, Control_c, 0, 64, 60
2, 345090, Control_c, 0, 64, 54
2, 345107, Note_on_c, 0, 73, 60
2, 345111, Control_c, 0, 64, 50
2, 345111, Note_on_c, 0, 40, 43
2, 345129, Control_c, 0, 64, 49
2, 345150, Control_c, 0, 64, 48
2, 345167, Control_c, 0, 64, 46
2, 345185, Control_c, 0, 64, 43
2, 345205, Control_c, 0, 64, 40
2, 345225, Control_c, 0, 64, 37
2, 345243, Control_c, 0, 64, 36
2, 345282, Control_c, 0, 64, 35
2, 345341, Control_c, 0, 64, 34
2, 345501, Note_on_c, 0, 71, 0
2, 345510, Note_on_c, 0, 70, 52
2, 345881, Note_on_c, 0, 40, 0
2, 345899, Note_on_c, 0, 70, 0
2, 345921, Note_on_c, 0, 68, 51
2, 345933, Note_on_c, 0, 39, 43
2, 346015, Control_c, 0, 64, 33
2, 346069, Control_c, 0, 64, 32
2, 346126, Control_c, 0, 64, 31
2, 346183, Control_c, 0, 64, 30
2, 346289, Note_on_c, 0, 68, 0
2, 346300, Control_c, 0, 64, 32
2, 346319, Control_c, 0, 64, 37
2, 346333, Note_on_c, 0, 67, 49
2, 346340, Control_c, 0, 64, 46
2, 346357, Control_c, 0, 64, 57
2, 346377, Control_c, 0, 64, 62
2, 346397, Control_c, 0, 64, 65
2, 346415, Control_c, 0, 64, 69
2, 346435, Control_c, 0, 64, 79
2, 346444, Note_on_c, 0, 67, 0
2, 346455, Control_c, 0, 64, 104
2, 346473, Control_c, 0, 64, 127
2, 346497, Note_on_c, 0, 39, 0
2, 346705, Control_c, 0, 64, 108
2, 346723, Control_c, 0, 64, 89
2, 346731, Note_on_c, 0, 73, 0
2, 346747, Control_c, 0, 64, 75
2, 346751, Note_on_c, 0, 68, 55
2, 346762, Control_c, 0, 64, 65
2, 346762, Note_on_c, 0, 71, 48
2, 346774, Note_on_c, 0, 44, 42
2, 346783, Control_c, 0, 64, 58
2, 346801, Control_c, 0, 64, 55
2, 346840, Control_c, 0, 64, 54
2, 346857, Control_c, 0, 64, 51
2, 346875, Control_c, 0, 64, 48
2, 346895, Control_c, 0, 64, 42
2, 346916, Control_c, 0, 64, 35
2, 346935, Control_c, 0, 64, 32
2, 346954, Control_c, 0, 64, 31
2, 347011, Control_c, 0, 64, 30
2, 347032, Control_c, 0, 64, 28
2, 347052, Control_c, 0, 64, 27
2, 347067, Control_c, 0, 64, 26
2, 347144, Control_c, 0, 64, 25
2, 347158, Note_on_c, 0, 44, 0
2, 347178, Note_on_c, 0, 46, 47
2, 347183, Note_on_c, 0, 71, 0
2, 347187, Control_c, 0, 64, 24
2, 347187, Note_on_c, 0, 73, 66
2, 347203, Control_c, 0, 64, 23
2, 347243, Control_c, 0, 64, 22
2, 347298, Control_c, 0, 64, 21
2, 347470, Control_c, 0, 64, 20
2, 347537, Note_on_c, 0, 46, 0
2, 347562, Note_on_c, 0, 75, 72
2, 347566, Note_on_c, 0, 73, 0
2, 347571, Note_on_c, 0, 47, 51
2, 347953, Note_on_c, 0, 75, 0
2, 347966, Note_on_c, 0, 76, 76
2, 347984, Note_on_c, 0, 47, 0
2, 347993, Note_on_c, 0, 49, 53
2, 348360, Note_on_c, 0, 49, 0
2, 348360, Note_on_c, 0, 76, 0
2, 348382, Note_on_c, 0, 70, 55
2, 348418, Note_on_c, 0, 51, 44
2, 348757, Note_on_c, 0, 70, 0
2, 348777, Control_c, 0, 64, 25
2, 348790, Note_on_c, 0, 71, 51
2, 348797, Control_c, 0, 64, 35
2, 348816, Control_c, 0, 64, 47
2, 348836, Control_c, 0, 64, 58
2, 348853, Control_c, 0, 64, 62
2, 348872, Control_c, 0, 64, 64
2, 348894, Control_c, 0, 64, 67
2, 348911, Control_c, 0, 64, 72
2, 348932, Control_c, 0, 64, 83
2, 348949, Control_c, 0, 64, 97
2, 348968, Control_c, 0, 64, 118
2, 348990, Control_c, 0, 64, 127
2, 348990, Note_on_c, 0, 68, 0
2, 349021, Note_on_c, 0, 71, 0
2, 349068, Control_c, 0, 64, 122
2, 349086, Control_c, 0, 64, 120
2, 349103, Control_c, 0, 64, 113
2, 349122, Control_c, 0, 64, 106
2, 349142, Control_c, 0, 64, 99
2, 349162, Control_c, 0, 64, 91
2, 349179, Control_c, 0, 64, 84
2, 349202, Control_c, 0, 64, 77
2, 349202, Note_on_c, 0, 67, 49
2, 349207, Note_on_c, 0, 73, 53
2, 349211, Note_on_c, 0, 51, 0
2, 349218, Control_c, 0, 64, 70
2, 349241, Control_c, 0, 64, 65
2, 349257, Control_c, 0, 64, 60
2, 349276, Control_c, 0, 64, 58
2, 349294, Control_c, 0, 64, 56
2, 349314, Control_c, 0, 64, 54
2, 349333, Control_c, 0, 64, 52
2, 349354, Control_c, 0, 64, 47
2, 349372, Control_c, 0, 64, 42
2, 349392, Control_c, 0, 64, 36
2, 349411, Control_c, 0, 64, 33
2, 349429, Control_c, 0, 64, 32
2, 349449, Control_c, 0, 64, 31
2, 349470, Control_c, 0, 64, 29
2, 349488, Control_c, 0, 64, 28
2, 349543, Control_c, 0, 64, 31
2, 349563, Control_c, 0, 64, 39
2, 349583, Control_c, 0, 64, 51
2, 349588, Note_on_c, 0, 75, 52
2, 349596, Note_on_c, 0, 73, 0
2, 349601, Control_c, 0, 64, 61
2, 349615, Note_on_c, 0, 51, 46
2, 349624, Control_c, 0, 64, 66
2, 349641, Control_c, 0, 64, 72
2, 349661, Control_c, 0, 64, 92
2, 349680, Control_c, 0, 64, 127
2, 349693, Note_on_c, 0, 51, 0
2, 349702, Note_on_c, 0, 75, 0
2, 349948, Control_c, 0, 64, 95
2, 349968, Control_c, 0, 64, 82
2, 349987, Control_c, 0, 64, 71
2, 350005, Control_c, 0, 64, 63
2, 350025, Control_c, 0, 64, 57
2, 350034, Note_on_c, 0, 56, 41
2, 350038, Note_on_c, 0, 71, 48
2, 350040, Note_on_c, 0, 68, 52
2, 350045, Control_c, 0, 64, 54
2, 350058, Note_on_c, 0, 67, 0
2, 350063, Control_c, 0, 64, 52
2, 350083, Control_c, 0, 64, 49
2, 350101, Control_c, 0, 64, 45
2, 350121, Control_c, 0, 64, 40
2, 350140, Control_c, 0, 64, 35
2, 350160, Control_c, 0, 64, 32
2, 350217, Control_c, 0, 64, 37
2, 350237, Control_c, 0, 64, 44
2, 350255, Control_c, 0, 64, 52
2, 350275, Control_c, 0, 64, 58
2, 350294, Control_c, 0, 64, 61
2, 350314, Control_c, 0, 64, 63
2, 350331, Control_c, 0, 64, 64
2, 350351, Control_c, 0, 64, 68
2, 350373, Control_c, 0, 64, 73
2, 350391, Control_c, 0, 64, 81
2, 350404, Note_on_c, 0, 71, 0
2, 350408, Control_c, 0, 64, 94
2, 350428, Control_c, 0, 64, 127
2, 350433, Note_on_c, 0, 58, 43
2, 350441, Note_on_c, 0, 56, 0
2, 350490, Note_on_c, 0, 70, 29
2, 350499, Note_on_c, 0, 68, 0
2, 350785, Note_on_c, 0, 58, 0
2, 350792, Control_c, 0, 64, 108
2, 350809, Note_on_c, 0, 70, 0
2, 350814, Control_c, 0, 64, 91
2, 350821, Note_on_c, 0, 63, 64
2, 350832, Control_c, 0, 64, 79
2, 350841, Note_on_c, 0, 68, 55
2, 350845, Note_on_c, 0, 59, 52
2, 350850, Control_c, 0, 64, 68
2, 350870, Control_c, 0, 64, 61
2, 350889, Control_c, 0, 64, 54
2, 350907, Control_c, 0, 64, 50
2, 350926, Control_c, 0, 64, 48
2, 350947, Control_c, 0, 64, 44
2, 350964, Control_c, 0, 64, 40
2, 350985, Control_c, 0, 64, 35
2, 351005, Control_c, 0, 64, 28
2, 351023, Control_c, 0, 64, 18
2, 351043, Control_c, 0, 64, 0
2, 351215, Note_on_c, 0, 59, 0
2, 351240, Note_on_c, 0, 66, 57
2, 351240, Note_on_c, 0, 68, 0
2, 351245, Note_on_c, 0, 56, 46
2, 351580, Note_on_c, 0, 66, 0
2, 351600, Note_on_c, 0, 56, 0
2, 351638, Control_c, 0, 64, 27
2, 351644, Note_on_c, 0, 58, 49
2, 351644, Note_on_c, 0, 65, 49
2, 351657, Control_c, 0, 64, 44
2, 351676, Control_c, 0, 64, 55
2, 351695, Control_c, 0, 64, 61
2, 351714, Control_c, 0, 64, 63
2, 351732, Control_c, 0, 64, 65
2, 351753, Control_c, 0, 64, 68
2, 351773, Control_c, 0, 64, 75
2, 351791, Control_c, 0, 64, 87
2, 351810, Control_c, 0, 64, 111
2, 351831, Control_c, 0, 64, 127
2, 351902, Note_on_c, 0, 63, 0
2, 351983, Control_c, 0, 64, 103
2, 352003, Control_c, 0, 64, 74
2, 352023, Control_c, 0, 64, 61
2, 352041, Control_c, 0, 64, 52
2, 352059, Note_on_c, 0, 58, 0
2, 352059, Note_on_c, 0, 62, 64
2, 352061, Control_c, 0, 64, 49
2, 352085, Note_on_c, 0, 56, 45
2, 352100, Control_c, 0, 64, 52
2, 352120, Control_c, 0, 64, 56
2, 352136, Control_c, 0, 64, 61
2, 352156, Control_c, 0, 64, 64
2, 352176, Note_on_c, 0, 56, 0
2, 352181, Control_c, 0, 64, 68
2, 352194, Control_c, 0, 64, 75
2, 352213, Control_c, 0, 64, 90
2, 352231, Control_c, 0, 64, 127
2, 352352, Note_on_c, 0, 65, 0
2, 352444, Control_c, 0, 64, 83
2, 352444, Note_on_c, 0, 62, 0
2, 352454, Note_on_c, 0, 63, 69
2, 352461, Note_on_c, 0, 66, 68
2, 352465, Control_c, 0, 64, 66
2, 352465, Note_on_c, 0, 54, 50
2, 352483, Control_c, 0, 64, 56
2, 352500, Control_c, 0, 64, 50
2, 352541, Control_c, 0, 64, 52
2, 352559, Control_c, 0, 64, 58
2, 352576, Control_c, 0, 64, 62
2, 352596, Control_c, 0, 64, 65
2, 352616, Control_c, 0, 64, 68
2, 352637, Control_c, 0, 64, 73
2, 352654, Control_c, 0, 64, 81
2, 352676, Control_c, 0, 64, 96
2, 352692, Control_c, 0, 64, 127
2, 352848, Control_c, 0, 64, 109
2, 352867, Control_c, 0, 64, 86
2, 352867, Note_on_c, 0, 65, 76
2, 352867, Note_on_c, 0, 68, 75
2, 352877, Note_on_c, 0, 66, 0
2, 352878, Note_on_c, 0, 53, 55
2, 352889, Control_c, 0, 64, 71
2, 352893, Note_on_c, 0, 63, 0
2, 352902, Note_on_c, 0, 54, 0
2, 352906, Control_c, 0, 64, 63
2, 352925, Control_c, 0, 64, 57
2, 352944, Control_c, 0, 64, 55
2, 352964, Control_c, 0, 64, 54
2, 353002, Control_c, 0, 64, 53
2, 353019, Control_c, 0, 64, 52
2, 353039, Control_c, 0, 64, 50
2, 353061, Control_c, 0, 64, 49
2, 353077, Control_c, 0, 64, 48
2, 353193, Control_c, 0, 64, 47
2, 353253, Note_on_c, 0, 53, 0
2, 353260, Note_on_c, 0, 68, 0
2, 353274, Note_on_c, 0, 66, 76
2, 353274, Note_on_c, 0, 70, 69
2, 353290, Control_c, 0, 64, 46
2, 353303, Note_on_c, 0, 65, 0
2, 353312, Control_c, 0, 64, 45
2, 353312, Note_on_c, 0, 51, 49
2, 353328, Control_c, 0, 64, 44
2, 353346, Control_c, 0, 64, 43
2, 353368, Control_c, 0, 64, 42
2, 353383, Control_c, 0, 64, 41
2, 353403, Control_c, 0, 64, 39
2, 353423, Control_c, 0, 64, 36
2, 353445, Control_c, 0, 64, 34
2, 353460, Control_c, 0, 64, 30
2, 353483, Control_c, 0, 64, 27
2, 353501, Control_c, 0, 64, 23
2, 353520, Control_c, 0, 64, 20
2, 353577, Control_c, 0, 64, 21
2, 353595, Control_c, 0, 64, 27
2, 353616, Control_c, 0, 64, 37
2, 353635, Control_c, 0, 64, 50
2, 353655, Control_c, 0, 64, 61
2, 353673, Control_c, 0, 64, 64
2, 353688, Note_on_c, 0, 65, 79
2, 353692, Control_c, 0, 64, 69
2, 353712, Control_c, 0, 64, 79
2, 353733, Control_c, 0, 64, 112
2, 353737, Note_on_c, 0, 66, 0
2, 353750, Control_c, 0, 64, 127
2, 353801, Note_on_c, 0, 65, 0
2, 353814, Note_on_c, 0, 51, 0
2, 353817, Note_on_c, 0, 70, 0
2, 354057, Control_c, 0, 64, 98
2, 354077, Control_c, 0, 64, 83
2, 354094, Control_c, 0, 64, 72
2, 354101, Note_on_c, 0, 72, 78
2, 354117, Control_c, 0, 64, 64
2, 354122, Note_on_c, 0, 63, 58
2, 354134, Control_c, 0, 64, 58
2, 354134, Note_on_c, 0, 56, 46
2, 354154, Control_c, 0, 64, 54
2, 354170, Control_c, 0, 64, 51
2, 354191, Control_c, 0, 64, 48
2, 354210, Control_c, 0, 64, 44
2, 354229, Control_c, 0, 64, 38
2, 354247, Control_c, 0, 64, 31
2, 354271, Control_c, 0, 64, 25
2, 354288, Control_c, 0, 64, 21
2, 354307, Control_c, 0, 64, 20
2, 354325, Control_c, 0, 64, 19
2, 354345, Control_c, 0, 64, 17
2, 354363, Control_c, 0, 64, 13
2, 354386, Control_c, 0, 64, 8
2, 354401, Control_c, 0, 64, 0
2, 354519, Control_c, 0, 64, 12
2, 354524, Note_on_c, 0, 72, 0
2, 354528, Note_on_c, 0, 74, 70
2, 354537, Control_c, 0, 64, 25
2, 354556, Control_c, 0, 64, 39
2, 354578, Control_c, 0, 64, 53
2, 354597, Control_c, 0, 64, 61
2, 354614, Control_c, 0, 64, 64
2, 354632, Control_c, 0, 64, 66
2, 354655, Control_c, 0, 64, 70
2, 354668, Note_on_c, 0, 74, 0
2, 354672, Control_c, 0, 64, 78
2, 354690, Control_c, 0, 64, 90
2, 354708, Control_c, 0, 64, 107
2, 354728, Control_c, 0, 64, 127
2, 354922, Control_c, 0, 64, 115
2, 354940, Control_c, 0, 64, 98
2, 354960, Control_c, 0, 64, 87
2, 354973, Note_on_c, 0, 75, 61
2, 354982, Control_c, 0, 64, 78
2, 354982, Note_on_c, 0, 70, 56
2, 354999, Control_c, 0, 64, 71
2, 355017, Control_c, 0, 64, 65
2, 355036, Control_c, 0, 64, 60
2, 355054, Control_c, 0, 64, 58
2, 355071, Note_on_c, 0, 63, 0
2, 355075, Control_c, 0, 64, 57
2, 355088, Note_on_c, 0, 56, 0
2, 355113, Control_c, 0, 64, 56
2, 355133, Control_c, 0, 64, 54
2, 355150, Control_c, 0, 64, 53
2, 355171, Control_c, 0, 64, 51
2, 355189, Control_c, 0, 64, 50
2, 355363, Control_c, 0, 64, 51
2, 355382, Control_c, 0, 64, 53
2, 355390, Note_on_c, 0, 55, 50
2, 355405, Control_c, 0, 64, 55
2, 355440, Control_c, 0, 64, 56
2, 355555, Note_on_c, 0, 55, 0
2, 355593, Note_on_c, 0, 53, 47
2, 355649, Control_c, 0, 64, 55
2, 355689, Control_c, 0, 64, 54
2, 355726, Control_c, 0, 64, 52
2, 355747, Control_c, 0, 64, 50
2, 355770, Control_c, 0, 64, 49
2, 355770, Note_on_c, 0, 53, 0
2, 355784, Control_c, 0, 64, 47
2, 355796, Note_on_c, 0, 63, 56
2, 355805, Control_c, 0, 64, 46
2, 355823, Control_c, 0, 64, 45
2, 355827, Note_on_c, 0, 55, 43
2, 355843, Control_c, 0, 64, 43
2, 355861, Control_c, 0, 64, 40
2, 355881, Control_c, 0, 64, 36
2, 355903, Control_c, 0, 64, 33
2, 355918, Control_c, 0, 64, 29
2, 355938, Control_c, 0, 64, 22
2, 355958, Control_c, 0, 64, 8
2, 355976, Control_c, 0, 64, 0
2, 356188, Control_c, 0, 64, 26
2, 356206, Note_on_c, 0, 73, 67
2, 356210, Control_c, 0, 64, 46
2, 356213, Note_on_c, 0, 75, 0
2, 356226, Control_c, 0, 64, 57
2, 356245, Control_c, 0, 64, 62
2, 356265, Control_c, 0, 64, 64
2, 356287, Control_c, 0, 64, 66
2, 356287, Note_on_c, 0, 70, 0
2, 356303, Control_c, 0, 64, 70
2, 356322, Control_c, 0, 64, 79
2, 356341, Control_c, 0, 64, 93
2, 356363, Control_c, 0, 64, 122
2, 356379, Control_c, 0, 64, 127
2, 356533, Control_c, 0, 64, 108
2, 356553, Control_c, 0, 64, 77
2, 356560, Note_on_c, 0, 55, 0
2, 356571, Control_c, 0, 64, 63
2, 356587, Note_on_c, 0, 73, 0
2, 356591, Control_c, 0, 64, 54
2, 356606, Note_on_c, 0, 72, 70
2, 356610, Control_c, 0, 64, 50
2, 356614, Note_on_c, 0, 56, 46
2, 356649, Control_c, 0, 64, 51
2, 356670, Control_c, 0, 64, 53
2, 356687, Control_c, 0, 64, 57
2, 356707, Control_c, 0, 64, 61
2, 356724, Control_c, 0, 64, 64
2, 356744, Control_c, 0, 64, 68
2, 356763, Control_c, 0, 64, 75
2, 356784, Control_c, 0, 64, 91
2, 356802, Control_c, 0, 64, 127
2, 356984, Note_on_c, 0, 72, 0
2, 356990, Note_on_c, 0, 56, 0
2, 356995, Control_c, 0, 64, 93
2, 357008, Note_on_c, 0, 74, 70
2, 357012, Note_on_c, 0, 65, 63
2, 357017, Control_c, 0, 64, 70
2, 357017, Note_on_c, 0, 54, 54
2, 357033, Control_c, 0, 64, 60
2, 357052, Control_c, 0, 64, 51
2, 357072, Control_c, 0, 64, 50
2, 357090, Control_c, 0, 64, 53
2, 357110, Control_c, 0, 64, 57
2, 357119, Note_on_c, 0, 63, 0
2, 357132, Control_c, 0, 64, 62
2, 357148, Control_c, 0, 64, 65
2, 357166, Control_c, 0, 64, 69
2, 357187, Control_c, 0, 64, 76
2, 357206, Control_c, 0, 64, 87
2, 357225, Control_c, 0, 64, 109
2, 357235, Note_on_c, 0, 65, 0
2, 357244, Control_c, 0, 64, 127
2, 357415, Control_c, 0, 64, 102
2, 357428, Note_on_c, 0, 74, 0
2, 357432, Note_on_c, 0, 75, 78
2, 357439, Control_c, 0, 64, 82
2, 357439, Note_on_c, 0, 53, 53
2, 357439, Note_on_c, 0, 66, 71
2, 357457, Control_c, 0, 64, 69
2, 357470, Note_on_c, 0, 54, 0
2, 357475, Control_c, 0, 64, 61
2, 357493, Control_c, 0, 64, 55
2, 357512, Control_c, 0, 64, 50
2, 357533, Control_c, 0, 64, 48
2, 357550, Control_c, 0, 64, 46
2, 357572, Control_c, 0, 64, 43
2, 357589, Control_c, 0, 64, 37
2, 357608, Control_c, 0, 64, 31
2, 357628, Control_c, 0, 64, 24
2, 357648, Control_c, 0, 64, 18
2, 357665, Control_c, 0, 64, 14
2, 357684, Control_c, 0, 64, 10
2, 357706, Control_c, 0, 64, 0
2, 357809, Note_on_c, 0, 53, 0
2, 357817, Note_on_c, 0, 51, 58
2, 358225, Note_on_c, 0, 51, 0
2, 358239, Note_on_c, 0, 53, 48
2, 358254, Note_on_c, 0, 68, 65
2, 358270, Note_on_c, 0, 66, 0
2, 358609, Note_on_c, 0, 53, 0
2, 358645, Note_on_c, 0, 54, 50
2, 359026, Note_on_c, 0, 54, 0
2, 359043, Note_on_c, 0, 75, 0
2, 359069, Note_on_c, 0, 74, 58
2, 359096, Note_on_c, 0, 56, 38
2, 359441, Note_on_c, 0, 56, 0
2, 359469, Note_on_c, 0, 58, 45
2, 359503, Note_on_c, 0, 68, 0
2, 359794, Note_on_c, 0, 58, 0
2, 359839, Note_on_c, 0, 74, 0
2, 359872, Note_on_c, 0, 75, 52
2, 359874, Note_on_c, 0, 51, 47
2, 359892, Note_on_c, 0, 66, 41
2, 359977, Note_on_c, 0, 51, 0
2, 360070, Note_on_c, 0, 66, 0
2, 360075, Note_on_c, 0, 63, 58
2, 360233, Note_on_c, 0, 63, 0
2, 360276, Note_on_c, 0, 61, 53
2, 360304, Note_on_c, 0, 68, 58
2, 360332, Control_c, 0, 64, 23
2, 360351, Control_c, 0, 64, 34
2, 360369, Control_c, 0, 64, 43
2, 360389, Control_c, 0, 64, 50
2, 360400, Note_on_c, 0, 68, 0
2, 360412, Control_c, 0, 64, 53
2, 360429, Control_c, 0, 64, 54
2, 360429, Note_on_c, 0, 61, 0
2, 360445, Control_c, 0, 64, 53
2, 360461, Note_on_c, 0, 59, 54
2, 360523, Control_c, 0, 64, 52
2, 360564, Control_c, 0, 64, 51
2, 360582, Control_c, 0, 64, 50
2, 360600, Control_c, 0, 64, 49
2, 360620, Control_c, 0, 64, 48
2, 360641, Control_c, 0, 64, 46
2, 360654, Note_on_c, 0, 75, 0
2, 360659, Control_c, 0, 64, 45
2, 360663, Note_on_c, 0, 59, 0
2, 360680, Control_c, 0, 64, 43
2, 360696, Control_c, 0, 64, 42
2, 360696, Note_on_c, 0, 74, 51
2, 360709, Note_on_c, 0, 70, 39
2, 360714, Note_on_c, 0, 58, 48
2, 360716, Control_c, 0, 64, 39
2, 360735, Control_c, 0, 64, 37
2, 360754, Control_c, 0, 64, 34
2, 360772, Control_c, 0, 64, 32
2, 360793, Control_c, 0, 64, 29
2, 360811, Control_c, 0, 64, 27
2, 360831, Control_c, 0, 64, 24
2, 360851, Control_c, 0, 64, 20
2, 360871, Control_c, 0, 64, 16
2, 360889, Control_c, 0, 64, 11
2, 360908, Control_c, 0, 64, 0
2, 360987, Control_c, 0, 64, 10
2, 361002, Control_c, 0, 64, 20
2, 361022, Control_c, 0, 64, 31
2, 361042, Control_c, 0, 64, 41
2, 361062, Control_c, 0, 64, 52
2, 361080, Control_c, 0, 64, 61
2, 361096, Note_on_c, 0, 72, 56
2, 361100, Control_c, 0, 64, 63
2, 361105, Note_on_c, 0, 75, 62
2, 361119, Control_c, 0, 64, 65
2, 361141, Control_c, 0, 64, 68
2, 361141, Note_on_c, 0, 74, 0
2, 361157, Control_c, 0, 64, 74
2, 361167, Note_on_c, 0, 70, 0
2, 361171, Note_on_c, 0, 72, 0
2, 361178, Control_c, 0, 64, 85
2, 361197, Control_c, 0, 64, 97
2, 361210, Note_on_c, 0, 75, 0
2, 361219, Control_c, 0, 64, 127
2, 361408, Control_c, 0, 64, 109
2, 361426, Control_c, 0, 64, 101
2, 361446, Control_c, 0, 64, 96
2, 361464, Control_c, 0, 64, 92
2, 361483, Control_c, 0, 64, 88
2, 361497, Note_on_c, 0, 58, 0
2, 361497, Note_on_c, 0, 77, 72
2, 361506, Control_c, 0, 64, 78
2, 361506, Note_on_c, 0, 74, 61
2, 361522, Control_c, 0, 64, 70
2, 361542, Control_c, 0, 64, 66
2, 361561, Control_c, 0, 64, 63
2, 361582, Control_c, 0, 64, 62
2, 361598, Control_c, 0, 64, 61
2, 361621, Control_c, 0, 64, 59
2, 361640, Control_c, 0, 64, 56
2, 361658, Control_c, 0, 64, 51
2, 361677, Control_c, 0, 64, 45
2, 361697, Control_c, 0, 64, 36
2, 361714, Control_c, 0, 64, 28
2, 361734, Control_c, 0, 64, 21
2, 361752, Control_c, 0, 64, 18
2, 361790, Control_c, 0, 64, 17
2, 361811, Control_c, 0, 64, 16
2, 361828, Control_c, 0, 64, 15
2, 361850, Control_c, 0, 64, 14
2, 361870, Control_c, 0, 64, 13
2, 361890, Control_c, 0, 64, 12
2, 361901, Note_on_c, 0, 80, 77
2, 361907, Control_c, 0, 64, 11
2, 361907, Note_on_c, 0, 58, 40
2, 361924, Note_on_c, 0, 77, 0
2, 361928, Control_c, 0, 64, 8
2, 361928, Note_on_c, 0, 54, 36
2, 361946, Control_c, 0, 64, 0
2, 361954, Note_on_c, 0, 74, 0
2, 362277, Note_on_c, 0, 54, 0
2, 362277, Note_on_c, 0, 58, 0
2, 362329, Note_on_c, 0, 78, 74
2, 362334, Note_on_c, 0, 60, 45
2, 362338, Note_on_c, 0, 56, 43
2, 362359, Note_on_c, 0, 80, 0
2, 362653, Note_on_c, 0, 56, 0
2, 362657, Note_on_c, 0, 60, 0
2, 362713, Control_c, 0, 64, 22
2, 362727, Note_on_c, 0, 58, 41
2, 362727, Note_on_c, 0, 77, 67
2, 362734, Control_c, 0, 64, 38
2, 362740, Note_on_c, 0, 78, 0
2, 362751, Control_c, 0, 64, 49
2, 362751, Note_on_c, 0, 62, 46
2, 362770, Control_c, 0, 64, 58
2, 362790, Control_c, 0, 64, 62
2, 362810, Control_c, 0, 64, 64
2, 362826, Control_c, 0, 64, 65
2, 362847, Control_c, 0, 64, 68
2, 362869, Control_c, 0, 64, 74
2, 362873, Note_on_c, 0, 62, 0
2, 362887, Control_c, 0, 64, 79
2, 362904, Control_c, 0, 64, 85
2, 362924, Control_c, 0, 64, 89
2, 362942, Control_c, 0, 64, 91
2, 362982, Control_c, 0, 64, 90
2, 363002, Control_c, 0, 64, 89
2, 363021, Control_c, 0, 64, 88
2, 363039, Control_c, 0, 64, 87
2, 363058, Control_c, 0, 64, 85
2, 363067, Note_on_c, 0, 58, 0
2, 363076, Control_c, 0, 64, 82
2, 363100, Control_c, 0, 64, 79
2, 363116, Control_c, 0, 64, 76
2, 363138, Control_c, 0, 64, 73
2, 363156, Control_c, 0, 64, 68
2, 363157, Note_on_c, 0, 77, 0
2, 363162, Note_on_c, 0, 59, 41
2, 363167, Note_on_c, 0, 63, 41
2, 363168, Note_on_c, 0, 75, 59
2, 363174, Control_c, 0, 64, 64
2, 363193, Control_c, 0, 64, 60
2, 363213, Control_c, 0, 64, 57
2, 363234, Control_c, 0, 64, 54
2, 363251, Control_c, 0, 64, 52
2, 363269, Control_c, 0, 64, 49
2, 363289, Control_c, 0, 64, 45
2, 363309, Control_c, 0, 64, 42
2, 363328, Control_c, 0, 64, 38
2, 363345, Control_c, 0, 64, 35
2, 363365, Control_c, 0, 64, 33
2, 363384, Control_c, 0, 64, 32
2, 363523, Note_on_c, 0, 59, 0
2, 363564, Note_on_c, 0, 73, 67
2, 363569, Note_on_c, 0, 58, 48
2, 363573, Note_on_c, 0, 75, 0
2, 363754, Control_c, 0, 64, 33
2, 363809, Control_c, 0, 64, 34
2, 363828, Control_c, 0, 64, 35
2, 363849, Control_c, 0, 64, 36
2, 363868, Control_c, 0, 64, 38
2, 363886, Control_c, 0, 64, 42
2, 363907, Control_c, 0, 64, 46
2, 363925, Control_c, 0, 64, 51
2, 363937, Note_on_c, 0, 73, 0
2, 363941, Note_on_c, 0, 58, 0
2, 363947, Control_c, 0, 64, 55
2, 363951, Note_on_c, 0, 56, 48
2, 363951, Note_on_c, 0, 71, 65
2, 363963, Control_c, 0, 64, 58
2, 363982, Control_c, 0, 64, 60
2, 364003, Control_c, 0, 64, 61
2, 364020, Control_c, 0, 64, 62
2, 364044, Control_c, 0, 64, 63
2, 364059, Control_c, 0, 64, 64
2, 364086, Note_on_c, 0, 63, 0
2, 364254, Control_c, 0, 64, 63
2, 364271, Control_c, 0, 64, 62
2, 364289, Control_c, 0, 64, 59
2, 364309, Control_c, 0, 64, 56
2, 364328, Control_c, 0, 64, 53
2, 364337, Note_on_c, 0, 71, 0
2, 364342, Note_on_c, 0, 70, 63
2, 364350, Control_c, 0, 64, 52
2, 364350, Note_on_c, 0, 65, 62
2, 364357, Note_on_c, 0, 56, 0
2, 364368, Control_c, 0, 64, 51
2, 364386, Control_c, 0, 64, 52
2, 364405, Control_c, 0, 64, 54
2, 364426, Control_c, 0, 64, 56
2, 364444, Control_c, 0, 64, 58
2, 364464, Control_c, 0, 64, 59
2, 364540, Note_on_c, 0, 71, 75
2, 364545, Note_on_c, 0, 70, 0
2, 364636, Control_c, 0, 64, 58
2, 364675, Control_c, 0, 64, 57
2, 364693, Control_c, 0, 64, 55
2, 364715, Control_c, 0, 64, 53
2, 364731, Control_c, 0, 64, 51
2, 364749, Note_on_c, 0, 65, 0
2, 364753, Control_c, 0, 64, 49
2, 364753, Note_on_c, 0, 71, 0
2, 364755, Note_on_c, 0, 70, 69
2, 364762, Note_on_c, 0, 66, 56
2, 364773, Control_c, 0, 64, 45
2, 364783, Note_on_c, 0, 63, 47
2, 364789, Control_c, 0, 64, 40
2, 364808, Control_c, 0, 64, 33
2, 364826, Control_c, 0, 64, 27
2, 364848, Control_c, 0, 64, 21
2, 364865, Control_c, 0, 64, 18
2, 364885, Control_c, 0, 64, 14
2, 364906, Control_c, 0, 64, 0
2, 365077, Control_c, 0, 64, 16
2, 365099, Control_c, 0, 64, 29
2, 365118, Control_c, 0, 64, 41
2, 365134, Control_c, 0, 64, 51
2, 365149, Note_on_c, 0, 70, 0
2, 365154, Control_c, 0, 64, 59
2, 365165, Note_on_c, 0, 72, 76
2, 365174, Control_c, 0, 64, 63
2, 365192, Control_c, 0, 64, 64
2, 365214, Control_c, 0, 64, 66
2, 365230, Control_c, 0, 64, 70
2, 365252, Control_c, 0, 64, 77
2, 365268, Control_c, 0, 64, 85
2, 365288, Control_c, 0, 64, 93
2, 365308, Control_c, 0, 64, 98
2, 365330, Control_c, 0, 64, 100
2, 365344, Note_on_c, 0, 63, 0
2, 365375, Note_on_c, 0, 66, 0
2, 365423, Control_c, 0, 64, 99
2, 365443, Control_c, 0, 64, 97
2, 365461, Control_c, 0, 64, 93
2, 365480, Control_c, 0, 64, 88
2, 365501, Control_c, 0, 64, 83
2, 365519, Control_c, 0, 64, 78
2, 365537, Control_c, 0, 64, 72
2, 365552, Note_on_c, 0, 74, 71
2, 365556, Note_on_c, 0, 65, 51
2, 365560, Control_c, 0, 64, 67
2, 365564, Note_on_c, 0, 72, 0
2, 365578, Control_c, 0, 64, 63
2, 365582, Note_on_c, 0, 58, 44
2, 365598, Control_c, 0, 64, 58
2, 365613, Control_c, 0, 64, 53
2, 365633, Control_c, 0, 64, 46
2, 365656, Control_c, 0, 64, 40
2, 365672, Control_c, 0, 64, 36
2, 365691, Control_c, 0, 64, 34
2, 365729, Control_c, 0, 64, 33
2, 365962, Note_on_c, 0, 65, 0
2, 365966, Note_on_c, 0, 74, 0
2, 365975, Note_on_c, 0, 75, 66
2, 365998, Control_c, 0, 64, 32
2, 366004, Note_on_c, 0, 63, 43
2, 366022, Control_c, 0, 64, 30
2, 366037, Control_c, 0, 64, 27
2, 366057, Control_c, 0, 64, 25
2, 366075, Control_c, 0, 64, 23
2, 366095, Control_c, 0, 64, 21
2, 366115, Control_c, 0, 64, 19
2, 366133, Control_c, 0, 64, 16
2, 366151, Control_c, 0, 64, 12
2, 366172, Control_c, 0, 64, 0
2, 366333, Note_on_c, 0, 75, 0
2, 366340, Note_on_c, 0, 63, 0
2, 366371, Note_on_c, 0, 77, 64
2, 366386, Note_on_c, 0, 62, 43
2, 366737, Note_on_c, 0, 58, 0
2, 366760, Note_on_c, 0, 62, 0
2, 366773, Note_on_c, 0, 77, 0
2, 366794, Note_on_c, 0, 70, 51
2, 366797, Note_on_c, 0, 63, 42
2, 366806, Note_on_c, 0, 60, 38
2, 367178, Note_on_c, 0, 60, 0
2, 367198, Note_on_c, 0, 70, 0
2, 367205, Note_on_c, 0, 82, 52
2, 367221, Note_on_c, 0, 65, 40
2, 367226, Note_on_c, 0, 63, 0
2, 367232, Note_on_c, 0, 62, 34
2, 367555, Control_c, 0, 64, 18
2, 367572, Control_c, 0, 64, 33
2, 367591, Control_c, 0, 64, 45
2, 367612, Control_c, 0, 64, 55
2, 367618, Note_on_c, 0, 82, 0
2, 367634, Control_c, 0, 64, 60
2, 367638, Note_on_c, 0, 80, 54
2, 367649, Control_c, 0, 64, 62
2, 367671, Control_c, 0, 64, 63
2, 367683, Note_on_c, 0, 65, 0
2, 367689, Control_c, 0, 64, 64
2, 367708, Control_c, 0, 64, 66
2, 367728, Control_c, 0, 64, 69
2, 367745, Control_c, 0, 64, 73
2, 367763, Note_on_c, 0, 80, 0
2, 367767, Control_c, 0, 64, 76
2, 367784, Control_c, 0, 64, 77
2, 367917, Control_c, 0, 64, 76
2, 367938, Control_c, 0, 64, 74
2, 367958, Control_c, 0, 64, 70
2, 367976, Control_c, 0, 64, 63
2, 367983, Note_on_c, 0, 62, 0
2, 367996, Control_c, 0, 64, 57
2, 368013, Control_c, 0, 64, 53
2, 368037, Control_c, 0, 64, 50
2, 368037, Note_on_c, 0, 78, 63
2, 368069, Note_on_c, 0, 63, 34
2, 368073, Control_c, 0, 64, 51
2, 368090, Control_c, 0, 64, 54
2, 368109, Control_c, 0, 64, 58
2, 368132, Control_c, 0, 64, 61
2, 368148, Control_c, 0, 64, 63
2, 368167, Control_c, 0, 64, 65
2, 368188, Control_c, 0, 64, 67
2, 368208, Control_c, 0, 64, 70
2, 368225, Control_c, 0, 64, 76
2, 368237, Note_on_c, 0, 63, 0
2, 368246, Control_c, 0, 64, 85
2, 368263, Control_c, 0, 64, 95
2, 368283, Control_c, 0, 64, 106
2, 368301, Control_c, 0, 64, 112
2, 368321, Control_c, 0, 64, 113
2, 368328, Note_on_c, 0, 78, 0
2, 368445, Note_on_c, 0, 63, 47
2, 368445, Note_on_c, 0, 80, 82
2, 368452, Note_on_c, 0, 59, 46
2, 368553, Control_c, 0, 64, 115
2, 368558, Note_on_c, 0, 59, 0
2, 368572, Control_c, 0, 64, 116
2, 368590, Control_c, 0, 64, 118
2, 368615, Note_on_c, 0, 62, 62
2, 368633, Note_on_c, 0, 63, 0
2, 368726, Control_c, 0, 64, 116
2, 368742, Control_c, 0, 64, 111
2, 368762, Control_c, 0, 64, 105
2, 368782, Control_c, 0, 64, 97
2, 368803, Control_c, 0, 64, 85
2, 368812, Note_on_c, 0, 62, 0
2, 368821, Control_c, 0, 64, 76
2, 368837, Note_on_c, 0, 82, 81
2, 368841, Control_c, 0, 64, 67
2, 368854, Note_on_c, 0, 63, 53
2, 368858, Note_on_c, 0, 80, 0
2, 368863, Control_c, 0, 64, 62
2, 368880, Control_c, 0, 64, 57
2, 368880, Note_on_c, 0, 54, 46
2, 368900, Control_c, 0, 64, 55
2, 368918, Control_c, 0, 64, 53
2, 368938, Control_c, 0, 64, 52
2, 368955, Control_c, 0, 64, 50
2, 368976, Control_c, 0, 64, 48
2, 368993, Control_c, 0, 64, 45
2, 369012, Control_c, 0, 64, 43
2, 369226, Note_on_c, 0, 54, 0
2, 369246, Note_on_c, 0, 83, 75
2, 369271, Note_on_c, 0, 56, 48
2, 369278, Note_on_c, 0, 82, 0
2, 369417, Control_c, 0, 64, 42
2, 369621, Note_on_c, 0, 56, 0
2, 369670, Note_on_c, 0, 77, 77
2, 369678, Note_on_c, 0, 58, 43
2, 369686, Control_c, 0, 64, 44
2, 369691, Note_on_c, 0, 83, 0
2, 369707, Control_c, 0, 64, 48
2, 369724, Control_c, 0, 64, 54
2, 369742, Control_c, 0, 64, 58
2, 369761, Control_c, 0, 64, 60
2, 369784, Control_c, 0, 64, 61
2, 369800, Control_c, 0, 64, 62
2, 369822, Control_c, 0, 64, 63
2, 369826, Note_on_c, 0, 63, 0
2, 369838, Control_c, 0, 64, 64
2, 369858, Control_c, 0, 64, 66
2, 369878, Control_c, 0, 64, 69
2, 369895, Control_c, 0, 64, 72
2, 369915, Control_c, 0, 64, 75
2, 369936, Control_c, 0, 64, 77
2, 369954, Control_c, 0, 64, 78
2, 370031, Control_c, 0, 64, 79
2, 370097, Note_on_c, 0, 61, 57
2, 370147, Control_c, 0, 64, 80
2, 370185, Control_c, 0, 64, 81
2, 370225, Control_c, 0, 64, 82
2, 370273, Note_on_c, 0, 61, 0
2, 370415, Control_c, 0, 64, 81
2, 370452, Control_c, 0, 64, 78
2, 370473, Control_c, 0, 64, 75
2, 370492, Control_c, 0, 64, 72
2, 370492, Note_on_c, 0, 79, 83
2, 370498, Note_on_c, 0, 59, 59
2, 370505, Note_on_c, 0, 58, 0
2, 370514, Control_c, 0, 64, 67
2, 370528, Note_on_c, 0, 51, 39
2, 370529, Control_c, 0, 64, 62
2, 370548, Control_c, 0, 64, 58
2, 370554, Note_on_c, 0, 77, 0
2, 370572, Control_c, 0, 64, 55
2, 370589, Control_c, 0, 64, 52
2, 370608, Control_c, 0, 64, 50
2, 370626, Control_c, 0, 64, 48
2, 370644, Control_c, 0, 64, 45
2, 370664, Control_c, 0, 64, 43
2, 370686, Control_c, 0, 64, 41
2, 370703, Control_c, 0, 64, 40
2, 370818, Control_c, 0, 64, 41
2, 370838, Control_c, 0, 64, 44
2, 370856, Control_c, 0, 64, 50
2, 370874, Control_c, 0, 64, 57
2, 370894, Control_c, 0, 64, 61
2, 370912, Note_on_c, 0, 58, 69
2, 370916, Control_c, 0, 64, 64
2, 370917, Note_on_c, 0, 59, 0
2, 370932, Control_c, 0, 64, 66
2, 370953, Control_c, 0, 64, 72
2, 370973, Control_c, 0, 64, 84
2, 370991, Control_c, 0, 64, 120
2, 371010, Control_c, 0, 64, 127
2, 371043, Note_on_c, 0, 51, 0
2, 371090, Note_on_c, 0, 58, 0
2, 371280, Control_c, 0, 64, 122
2, 371299, Control_c, 0, 64, 95
2, 371318, Control_c, 0, 64, 80
2, 371322, Note_on_c, 0, 80, 81
2, 371340, Control_c, 0, 64, 69
2, 371340, Note_on_c, 0, 79, 0
2, 371349, Note_on_c, 0, 59, 64
2, 371356, Control_c, 0, 64, 62
2, 371360, Note_on_c, 0, 56, 51
2, 371373, Control_c, 0, 64, 58
2, 371394, Control_c, 0, 64, 57
2, 371413, Control_c, 0, 64, 56
2, 371433, Control_c, 0, 64, 55
2, 371450, Control_c, 0, 64, 53
2, 371473, Control_c, 0, 64, 50
2, 371492, Control_c, 0, 64, 47
2, 371510, Control_c, 0, 64, 45
2, 371530, Control_c, 0, 64, 44
2, 371625, Control_c, 0, 64, 43
2, 371710, Note_on_c, 0, 59, 0
2, 371730, Note_on_c, 0, 56, 0
2, 371740, Control_c, 0, 64, 44
2, 371740, Note_on_c, 0, 78, 87
2, 371745, Note_on_c, 0, 63, 67
2, 371758, Control_c, 0, 64, 49
2, 371758, Note_on_c, 0, 58, 57
2, 371777, Control_c, 0, 64, 56
2, 371795, Control_c, 0, 64, 61
2, 371811, Note_on_c, 0, 80, 0
2, 371816, Control_c, 0, 64, 64
2, 371837, Control_c, 0, 64, 68
2, 371857, Control_c, 0, 64, 75
2, 371875, Control_c, 0, 64, 87
2, 371893, Control_c, 0, 64, 127
2, 371897, Note_on_c, 0, 58, 0
2, 372001, Note_on_c, 0, 78, 0
2, 372104, Control_c, 0, 64, 113
2, 372122, Control_c, 0, 64, 92
2, 372142, Control_c, 0, 64, 79
2, 372146, Note_on_c, 0, 63, 0
2, 372151, Note_on_c, 0, 77, 73
2, 372155, Note_on_c, 0, 68, 62
2, 372162, Control_c, 0, 64, 69
2, 372171, Note_on_c, 0, 59, 52
2, 372180, Control_c, 0, 64, 63
2, 372200, Control_c, 0, 64, 58
2, 372222, Control_c, 0, 64, 53
2, 372237, Control_c, 0, 64, 46
2, 372256, Control_c, 0, 64, 36
2, 372280, Control_c, 0, 64, 19
2, 372297, Control_c, 0, 64, 0
2, 372562, Note_on_c, 0, 77, 0
2, 372567, Note_on_c, 0, 75, 66
2, 372945, Note_on_c, 0, 75, 0
2, 372975, Note_on_c, 0, 74, 55
2, 372991, Note_on_c, 0, 58, 37
2, 373004, Note_on_c, 0, 59, 0
2, 373365, Note_on_c, 0, 66, 53
2, 373401, Note_on_c, 0, 68, 0
2, 373770, Note_on_c, 0, 65, 39
2, 373774, Note_on_c, 0, 66, 0
2, 373779, Note_on_c, 0, 74, 0
2, 373783, Note_on_c, 0, 75, 62
2, 374136, Note_on_c, 0, 65, 0
2, 374178, Note_on_c, 0, 63, 46
2, 374583, Control_c, 0, 64, 20
2, 374601, Control_c, 0, 64, 33
2, 374603, Note_on_c, 0, 65, 47
2, 374609, Note_on_c, 0, 63, 0
2, 374620, Control_c, 0, 64, 42
2, 374627, Note_on_c, 0, 58, 0
2, 374641, Control_c, 0, 64, 49
2, 374657, Control_c, 0, 64, 55
2, 374678, Control_c, 0, 64, 58
2, 374698, Control_c, 0, 64, 59
2, 374717, Control_c, 0, 64, 60
2, 374737, Control_c, 0, 64, 62
2, 374753, Control_c, 0, 64, 63
2, 374773, Control_c, 0, 64, 65
2, 374790, Control_c, 0, 64, 66
2, 374811, Control_c, 0, 64, 68
2, 374833, Control_c, 0, 64, 69
2, 374849, Control_c, 0, 64, 71
2, 374871, Control_c, 0, 64, 72
2, 374929, Control_c, 0, 64, 70
2, 374949, Control_c, 0, 64, 66
2, 374967, Control_c, 0, 64, 60
2, 374984, Control_c, 0, 64, 55
2, 374989, Note_on_c, 0, 75, 0
2, 375000, Note_on_c, 0, 73, 56
2, 375023, Control_c, 0, 64, 58
2, 375043, Control_c, 0, 64, 61
2, 375060, Control_c, 0, 64, 64
2, 375080, Control_c, 0, 64, 68
2, 375102, Control_c, 0, 64, 76
2, 375119, Control_c, 0, 64, 96
2, 375137, Control_c, 0, 64, 127
2, 375149, Note_on_c, 0, 73, 0
2, 375165, Note_on_c, 0, 65, 0
2, 375408, Control_c, 0, 64, 96
2, 375428, Control_c, 0, 64, 82
2, 375435, Note_on_c, 0, 67, 48
2, 375444, Note_on_c, 0, 71, 53
2, 375446, Control_c, 0, 64, 72
2, 375464, Control_c, 0, 64, 64
2, 375485, Control_c, 0, 64, 60
2, 375501, Control_c, 0, 64, 58
2, 375521, Control_c, 0, 64, 57
2, 375561, Control_c, 0, 64, 55
2, 375578, Control_c, 0, 64, 53
2, 375597, Control_c, 0, 64, 50
2, 375616, Control_c, 0, 64, 47
2, 375640, Control_c, 0, 64, 45
2, 375655, Control_c, 0, 64, 43
2, 375675, Control_c, 0, 64, 42
2, 375693, Control_c, 0, 64, 39
2, 375713, Control_c, 0, 64, 37
2, 375733, Control_c, 0, 64, 36
2, 375791, Note_on_c, 0, 71, 0
2, 375796, Control_c, 0, 64, 37
2, 375810, Control_c, 0, 64, 42
2, 375816, Note_on_c, 0, 70, 55
2, 375829, Control_c, 0, 64, 50
2, 375848, Control_c, 0, 64, 59
2, 375868, Control_c, 0, 64, 65
2, 375887, Control_c, 0, 64, 69
2, 375905, Control_c, 0, 64, 78
2, 375925, Control_c, 0, 64, 93
2, 375948, Control_c, 0, 64, 127
2, 375948, Note_on_c, 0, 70, 0
2, 376005, Note_on_c, 0, 67, 0
2, 376195, Control_c, 0, 64, 115
2, 376215, Control_c, 0, 64, 93
2, 376233, Control_c, 0, 64, 79
2, 376251, Control_c, 0, 64, 70
2, 376255, Note_on_c, 0, 71, 46
2, 376264, Note_on_c, 0, 68, 44
2, 376271, Control_c, 0, 64, 65
2, 376290, Control_c, 0, 64, 61
2, 376309, Control_c, 0, 64, 58
2, 376327, Control_c, 0, 64, 57
2, 376367, Control_c, 0, 64, 56
2, 376387, Control_c, 0, 64, 55
2, 376405, Control_c, 0, 64, 53
2, 376425, Control_c, 0, 64, 52
2, 376442, Control_c, 0, 64, 50
2, 376520, Control_c, 0, 64, 49
2, 376538, Control_c, 0, 64, 48
2, 376558, Control_c, 0, 64, 46
2, 376578, Control_c, 0, 64, 45
2, 376597, Control_c, 0, 64, 43
2, 376610, Note_on_c, 0, 71, 0
2, 376615, Control_c, 0, 64, 42
2, 376635, Control_c, 0, 64, 41
2, 376657, Note_on_c, 0, 66, 46
2, 376657, Note_on_c, 0, 68, 0
2, 376660, Control_c, 0, 64, 40
2, 376660, Note_on_c, 0, 70, 50
2, 376673, Control_c, 0, 64, 39
2, 377029, Note_on_c, 0, 70, 0
2, 377046, Note_on_c, 0, 66, 0
2, 377063, Note_on_c, 0, 65, 47
2, 377068, Note_on_c, 0, 68, 57
2, 377448, Note_on_c, 0, 65, 0
2, 377473, Note_on_c, 0, 63, 59
2, 377827, Control_c, 0, 64, 40
2, 377883, Control_c, 0, 64, 41
2, 377888, Note_on_c, 0, 63, 0
2, 377904, Control_c, 0, 64, 42
2, 377924, Control_c, 0, 64, 44
2, 377929, Note_on_c, 0, 62, 57
2, 377943, Control_c, 0, 64, 48
2, 377947, Note_on_c, 0, 46, 75
2, 377961, Control_c, 0, 64, 53
2, 377980, Control_c, 0, 64, 56
2, 377998, Control_c, 0, 64, 58
2, 378018, Control_c, 0, 64, 60
2, 378040, Control_c, 0, 64, 62
2, 378056, Control_c, 0, 64, 64
2, 378076, Control_c, 0, 64, 67
2, 378094, Control_c, 0, 64, 72
2, 378114, Control_c, 0, 64, 81
2, 378132, Control_c, 0, 64, 93
2, 378152, Control_c, 0, 64, 113
2, 378170, Control_c, 0, 64, 127
2, 378299, Note_on_c, 0, 46, 0
2, 378350, Note_on_c, 0, 66, 66
2, 378355, Note_on_c, 0, 62, 0
2, 378435, Note_on_c, 0, 68, 0
2, 378535, Note_on_c, 0, 65, 70
2, 378549, Note_on_c, 0, 66, 0
2, 378726, Control_c, 0, 64, 100
2, 378745, Control_c, 0, 64, 85
2, 378766, Control_c, 0, 64, 72
2, 378775, Note_on_c, 0, 39, 75
2, 378775, Note_on_c, 0, 65, 0
2, 378779, Note_on_c, 0, 63, 62
2, 378784, Note_on_c, 0, 66, 69
2, 378788, Control_c, 0, 64, 63
2, 378807, Control_c, 0, 64, 56
2, 378824, Control_c, 0, 64, 50
2, 378842, Control_c, 0, 64, 48
2, 378900, Control_c, 0, 64, 47
2, 379209, Note_on_c, 0, 68, 76
2, 379219, Note_on_c, 0, 63, 0
2, 379228, Note_on_c, 0, 65, 65
2, 379228, Note_on_c, 0, 66, 0
2, 379324, Control_c, 0, 64, 48
2, 379580, Note_on_c, 0, 68, 0
2, 379587, Note_on_c, 0, 65, 0
2, 379591, Note_on_c, 0, 70, 81
2, 379602, Note_on_c, 0, 66, 64
2, 379650, Control_c, 0, 64, 49
2, 379670, Control_c, 0, 64, 52
2, 379688, Control_c, 0, 64, 57
2, 379708, Control_c, 0, 64, 61
2, 379726, Control_c, 0, 64, 64
2, 379746, Control_c, 0, 64, 66
2, 379765, Control_c, 0, 64, 70
2, 379785, Control_c, 0, 64, 78
2, 379804, Control_c, 0, 64, 95
2, 379822, Control_c, 0, 64, 127
2, 379913, Note_on_c, 0, 39, 0
2, 379957, Note_on_c, 0, 66, 0
2, 379999, Note_on_c, 0, 65, 60
2, 380015, Control_c, 0, 64, 85
2, 380030, Note_on_c, 0, 38, 66
2, 380035, Control_c, 0, 64, 68
2, 380054, Control_c, 0, 64, 58
2, 380071, Control_c, 0, 64, 51
2, 380091, Control_c, 0, 64, 49
2, 380111, Control_c, 0, 64, 51
2, 380129, Control_c, 0, 64, 55
2, 380147, Control_c, 0, 64, 59
2, 380167, Control_c, 0, 64, 63
2, 380187, Control_c, 0, 64, 66
2, 380207, Control_c, 0, 64, 72
2, 380226, Control_c, 0, 64, 82
2, 380244, Control_c, 0, 64, 98
2, 380253, Note_on_c, 0, 38, 0
2, 380263, Control_c, 0, 64, 127
2, 380321, Note_on_c, 0, 65, 0
2, 380326, Note_on_c, 0, 70, 0
2, 380423, Note_on_c, 0, 63, 82
2, 380427, Note_on_c, 0, 39, 66
2, 380436, Control_c, 0, 64, 97
2, 380445, Note_on_c, 0, 66, 67
2, 380456, Control_c, 0, 64, 79
2, 380473, Control_c, 0, 64, 67
2, 380493, Control_c, 0, 64, 59
2, 380514, Control_c, 0, 64, 55
2, 380532, Control_c, 0, 64, 54
2, 380629, Control_c, 0, 64, 53
2, 380807, Note_on_c, 0, 39, 0
2, 380811, Note_on_c, 0, 41, 65
2, 380822, Control_c, 0, 64, 54
2, 380827, Note_on_c, 0, 68, 69
2, 380835, Note_on_c, 0, 66, 0
2, 380860, Control_c, 0, 64, 55
2, 380877, Control_c, 0, 64, 57
2, 380899, Control_c, 0, 64, 59
2, 380916, Control_c, 0, 64, 60
2, 380936, Control_c, 0, 64, 61
2, 380956, Control_c, 0, 64, 62
2, 380995, Control_c, 0, 64, 63
2, 381013, Control_c, 0, 64, 64
2, 381051, Control_c, 0, 64, 65
2, 381090, Control_c, 0, 64, 64
2, 381128, Control_c, 0, 64, 63
2, 381147, Control_c, 0, 64, 61
2, 381167, Control_c, 0, 64, 58
2, 381185, Control_c, 0, 64, 54
2, 381205, Control_c, 0, 64, 51
2, 381210, Note_on_c, 0, 41, 0
2, 381214, Note_on_c, 0, 68, 0
2, 381221, Note_on_c, 0, 42, 65
2, 381228, Control_c, 0, 64, 49
2, 381228, Note_on_c, 0, 70, 65
2, 381243, Control_c, 0, 64, 48
2, 381280, Control_c, 0, 64, 51
2, 381301, Control_c, 0, 64, 56
2, 381321, Control_c, 0, 64, 61
2, 381339, Control_c, 0, 64, 63
2, 381359, Control_c, 0, 64, 66
2, 381376, Control_c, 0, 64, 69
2, 381395, Control_c, 0, 64, 74
2, 381417, Control_c, 0, 64, 82
2, 381435, Control_c, 0, 64, 93
2, 381457, Control_c, 0, 64, 120
2, 381457, Note_on_c, 0, 70, 0
2, 381475, Control_c, 0, 64, 127
2, 381475, Note_on_c, 0, 63, 0
2, 381592, Control_c, 0, 64, 109
2, 381607, Control_c, 0, 64, 85
2, 381612, Note_on_c, 0, 42, 0
2, 381630, Control_c, 0, 64, 69
2, 381634, Note_on_c, 0, 41, 68
2, 381645, Control_c, 0, 64, 59
2, 381650, Note_on_c, 0, 62, 72
2, 381658, Note_on_c, 0, 68, 67
2, 381668, Control_c, 0, 64, 53
2, 381703, Control_c, 0, 64, 56
2, 381722, Control_c, 0, 64, 59
2, 381742, Control_c, 0, 64, 62
2, 381761, Control_c, 0, 64, 64
2, 381782, Control_c, 0, 64, 67
2, 381799, Control_c, 0, 64, 71
2, 381821, Control_c, 0, 64, 77
2, 381838, Control_c, 0, 64, 88
2, 381859, Control_c, 0, 64, 109
2, 381878, Control_c, 0, 64, 127
2, 381882, Note_on_c, 0, 62, 0
2, 381937, Note_on_c, 0, 68, 0
2, 381974, Control_c, 0, 64, 107
2, 381990, Control_c, 0, 64, 84
2, 381999, Note_on_c, 0, 41, 0
2, 382012, Control_c, 0, 64, 66
2, 382026, Note_on_c, 0, 39, 66
2, 382031, Control_c, 0, 64, 57
2, 382040, Note_on_c, 0, 66, 73
2, 382044, Note_on_c, 0, 63, 71
2, 382049, Control_c, 0, 64, 52
2, 382068, Control_c, 0, 64, 53
2, 382087, Control_c, 0, 64, 57
2, 382107, Control_c, 0, 64, 61
2, 382126, Control_c, 0, 64, 64
2, 382146, Control_c, 0, 64, 68
2, 382165, Control_c, 0, 64, 72
2, 382187, Control_c, 0, 64, 77
2, 382202, Control_c, 0, 64, 81
2, 382221, Control_c, 0, 64, 88
2, 382221, Note_on_c, 0, 63, 0
2, 382244, Control_c, 0, 64, 95
2, 382259, Control_c, 0, 64, 100
2, 382282, Control_c, 0, 64, 101
2, 382406, Note_on_c, 0, 66, 0
2, 382426, Note_on_c, 0, 65, 62
2, 382433, Control_c, 0, 64, 102
2, 382472, Control_c, 0, 64, 104
2, 382490, Control_c, 0, 64, 108
2, 382512, Control_c, 0, 64, 118
2, 382530, Control_c, 0, 64, 127
2, 382554, Note_on_c, 0, 65, 0
2, 382602, Note_on_c, 0, 63, 72
2, 382684, Note_on_c, 0, 63, 0
2, 382798, Control_c, 0, 64, 95
2, 382821, Control_c, 0, 64, 78
2, 382832, Note_on_c, 0, 66, 75
2, 382839, Control_c, 0, 64, 65
2, 382846, Note_on_c, 0, 62, 66
2, 382855, Control_c, 0, 64, 59
2, 382860, Note_on_c, 0, 46, 69
2, 382862, Note_on_c, 0, 39, 0
2, 382875, Control_c, 0, 64, 55
2, 382894, Control_c, 0, 64, 54
2, 382951, Control_c, 0, 64, 53
2, 382971, Control_c, 0, 64, 51
2, 382991, Control_c, 0, 64, 50
2, 383086, Control_c, 0, 64, 51
2, 383123, Control_c, 0, 64, 52
2, 383143, Control_c, 0, 64, 54
2, 383163, Control_c, 0, 64, 55
2, 383182, Control_c, 0, 64, 57
2, 383204, Control_c, 0, 64, 59
2, 383220, Control_c, 0, 64, 60
2, 383241, Control_c, 0, 64, 62
2, 383259, Control_c, 0, 64, 65
2, 383275, Note_on_c, 0, 68, 71
2, 383279, Control_c, 0, 64, 69
2, 383281, Note_on_c, 0, 65, 70
2, 383288, Note_on_c, 0, 62, 0
2, 383299, Control_c, 0, 64, 80
2, 383299, Note_on_c, 0, 66, 0
2, 383316, Control_c, 0, 64, 120
2, 383336, Control_c, 0, 64, 127
2, 383586, Note_on_c, 0, 46, 0
2, 383624, Control_c, 0, 64, 111
2, 383642, Control_c, 0, 64, 84
2, 383647, Note_on_c, 0, 65, 0
2, 383655, Note_on_c, 0, 39, 68
2, 383659, Note_on_c, 0, 63, 65
2, 383664, Control_c, 0, 64, 67
2, 383683, Control_c, 0, 64, 60
2, 383702, Control_c, 0, 64, 56
2, 383721, Control_c, 0, 64, 55
2, 383778, Control_c, 0, 64, 54
2, 383796, Control_c, 0, 64, 53
2, 383836, Control_c, 0, 64, 52
2, 383912, Control_c, 0, 64, 53
2, 384027, Control_c, 0, 64, 54
2, 384047, Control_c, 0, 64, 55
2, 384065, Control_c, 0, 64, 59
2, 384081, Note_on_c, 0, 66, 76
2, 384085, Control_c, 0, 64, 62
2, 384104, Control_c, 0, 64, 65
2, 384123, Control_c, 0, 64, 69
2, 384130, Note_on_c, 0, 68, 0
2, 384132, Note_on_c, 0, 63, 0
2, 384144, Control_c, 0, 64, 76
2, 384162, Control_c, 0, 64, 87
2, 384180, Control_c, 0, 64, 109
2, 384200, Control_c, 0, 64, 127
2, 384261, Note_on_c, 0, 65, 79
2, 384288, Note_on_c, 0, 66, 0
2, 384429, Control_c, 0, 64, 111
2, 384450, Control_c, 0, 64, 83
2, 384470, Control_c, 0, 64, 67
2, 384474, Note_on_c, 0, 70, 73
2, 384487, Note_on_c, 0, 67, 73
2, 384492, Control_c, 0, 64, 57
2, 384492, Note_on_c, 0, 65, 0
2, 384510, Control_c, 0, 64, 53
2, 384545, Control_c, 0, 64, 54
2, 384568, Control_c, 0, 64, 57
2, 384583, Control_c, 0, 64, 60
2, 384603, Control_c, 0, 64, 63
2, 384621, Control_c, 0, 64, 67
2, 384641, Control_c, 0, 64, 74
2, 384661, Control_c, 0, 64, 88
2, 384678, Control_c, 0, 64, 127
2, 384728, Note_on_c, 0, 70, 0
2, 384804, Note_on_c, 0, 39, 0
2, 384853, Control_c, 0, 64, 122
2, 384874, Control_c, 0, 64, 83
2, 384874, Note_on_c, 0, 41, 75
2, 384881, Note_on_c, 0, 68, 83
2, 384891, Control_c, 0, 64, 66
2, 384911, Control_c, 0, 64, 58
2, 384911, Note_on_c, 0, 67, 0
2, 384929, Control_c, 0, 64, 57
2, 384949, Control_c, 0, 64, 59
2, 384969, Control_c, 0, 64, 62
2, 384986, Control_c, 0, 64, 65
2, 385006, Control_c, 0, 64, 71
2, 385027, Control_c, 0, 64, 81
2, 385045, Control_c, 0, 64, 100
2, 385065, Control_c, 0, 64, 127
2, 385069, Note_on_c, 0, 41, 0
2, 385091, Note_on_c, 0, 68, 0
2, 385256, Control_c, 0, 64, 100
2, 385273, Control_c, 0, 64, 80
2, 385290, Note_on_c, 0, 70, 68
2, 385294, Control_c, 0, 64, 67
2, 385305, Note_on_c, 0, 43, 66
2, 385305, Note_on_c, 0, 63, 71
2, 385314, Control_c, 0, 64, 57
2, 385333, Control_c, 0, 64, 52
2, 385352, Control_c, 0, 64, 50
2, 385371, Control_c, 0, 64, 49
2, 385486, Control_c, 0, 64, 51
2, 385508, Control_c, 0, 64, 54
2, 385524, Control_c, 0, 64, 57
2, 385544, Control_c, 0, 64, 60
2, 385565, Control_c, 0, 64, 61
2, 385581, Control_c, 0, 64, 63
2, 385602, Control_c, 0, 64, 64
2, 385619, Control_c, 0, 64, 67
2, 385641, Control_c, 0, 64, 72
2, 385659, Control_c, 0, 64, 80
2, 385678, Control_c, 0, 64, 95
2, 385691, Note_on_c, 0, 61, 66
2, 385699, Control_c, 0, 64, 127
2, 385711, Note_on_c, 0, 63, 0
2, 385810, Note_on_c, 0, 61, 0
2, 385839, Note_on_c, 0, 70, 0
2, 386023, Control_c, 0, 64, 100
2, 386043, Control_c, 0, 64, 79
2, 386058, Note_on_c, 0, 43, 0
2, 386061, Control_c, 0, 64, 65
2, 386081, Control_c, 0, 64, 56
2, 386092, Note_on_c, 0, 44, 57
2, 386092, Note_on_c, 0, 63, 66
2, 386097, Note_on_c, 0, 59, 63
2, 386101, Control_c, 0, 64, 51
2, 386121, Control_c, 0, 64, 50
2, 386157, Control_c, 0, 64, 53
2, 386177, Control_c, 0, 64, 57
2, 386197, Control_c, 0, 64, 60
2, 386215, Control_c, 0, 64, 63
2, 386235, Control_c, 0, 64, 65
2, 386242, Note_on_c, 0, 59, 0
2, 386257, Control_c, 0, 64, 67
2, 386274, Control_c, 0, 64, 74
2, 386292, Control_c, 0, 64, 83
2, 386312, Control_c, 0, 64, 97
2, 386332, Control_c, 0, 64, 127
2, 386409, Control_c, 0, 64, 99
2, 386427, Control_c, 0, 64, 79
2, 386449, Control_c, 0, 64, 66
2, 386449, Note_on_c, 0, 63, 0
2, 386465, Control_c, 0, 64, 58
2, 386484, Control_c, 0, 64, 54
2, 386502, Control_c, 0, 64, 55
2, 386502, Note_on_c, 0, 65, 55
2, 386518, Note_on_c, 0, 61, 47
2, 386522, Control_c, 0, 64, 57
2, 386543, Control_c, 0, 64, 61
2, 386560, Control_c, 0, 64, 64
2, 386580, Control_c, 0, 64, 68
2, 386598, Control_c, 0, 64, 72
2, 386621, Control_c, 0, 64, 78
2, 386641, Control_c, 0, 64, 85
2, 386658, Control_c, 0, 64, 96
2, 386678, Control_c, 0, 64, 122
2, 386697, Control_c, 0, 64, 127
2, 386711, Note_on_c, 0, 61, 0
2, 386832, Control_c, 0, 64, 100
2, 386837, Note_on_c, 0, 65, 0
2, 386849, Control_c, 0, 64, 85
2, 386869, Control_c, 0, 64, 72
2, 386888, Control_c, 0, 64, 64
2, 386906, Control_c, 0, 64, 58
2, 386910, Note_on_c, 0, 44, 0
2, 386915, Note_on_c, 0, 63, 54
2, 386917, Note_on_c, 0, 67, 58
2, 386928, Control_c, 0, 64, 55
2, 386932, Note_on_c, 0, 46, 42
2, 386944, Control_c, 0, 64, 53
2, 386965, Control_c, 0, 64, 50
2, 386985, Control_c, 0, 64, 48
2, 387003, Control_c, 0, 64, 45
2, 387022, Control_c, 0, 64, 42
2, 387080, Control_c, 0, 64, 43
2, 387100, Control_c, 0, 64, 46
2, 387119, Control_c, 0, 64, 51
2, 387137, Control_c, 0, 64, 55
2, 387155, Control_c, 0, 64, 59
2, 387175, Control_c, 0, 64, 61
2, 387198, Control_c, 0, 64, 62
2, 387212, Control_c, 0, 64, 64
2, 387232, Control_c, 0, 64, 65
2, 387251, Control_c, 0, 64, 69
2, 387272, Control_c, 0, 64, 74
2, 387290, Control_c, 0, 64, 83
2, 387294, Note_on_c, 0, 67, 0
2, 387310, Control_c, 0, 64, 98
2, 387329, Control_c, 0, 64, 127
2, 387336, Note_on_c, 0, 63, 0
2, 387353, Note_on_c, 0, 64, 54
2, 387406, Note_on_c, 0, 46, 0
2, 387456, Note_on_c, 0, 64, 0
2, 387639, Control_c, 0, 64, 116
2, 387656, Control_c, 0, 64, 102
2, 387674, Control_c, 0, 64, 94
2, 387693, Control_c, 0, 64, 86
2, 387713, Control_c, 0, 64, 78
2, 387732, Control_c, 0, 64, 69
2, 387736, Note_on_c, 0, 68, 54
2, 387743, Note_on_c, 0, 63, 49
2, 387748, Note_on_c, 0, 47, 39
2, 387755, Control_c, 0, 64, 63
2, 387771, Control_c, 0, 64, 59
2, 387790, Control_c, 0, 64, 56
2, 387807, Control_c, 0, 64, 54
2, 387831, Control_c, 0, 64, 53
2, 387849, Control_c, 0, 64, 51
2, 387867, Control_c, 0, 64, 49
2, 387885, Control_c, 0, 64, 46
2, 387904, Control_c, 0, 64, 45
2, 387927, Control_c, 0, 64, 44
2, 388023, Control_c, 0, 64, 45
2, 388040, Control_c, 0, 64, 46
2, 388058, Control_c, 0, 64, 51
2, 388078, Control_c, 0, 64, 56
2, 388097, Control_c, 0, 64, 60
2, 388117, Control_c, 0, 64, 61
2, 388128, Note_on_c, 0, 47, 0
2, 388131, Note_on_c, 0, 63, 0
2, 388136, Control_c, 0, 64, 62
2, 388158, Note_on_c, 0, 49, 45
2, 388173, Note_on_c, 0, 68, 0
2, 388250, Control_c, 0, 64, 61
2, 388270, Control_c, 0, 64, 60
2, 388288, Control_c, 0, 64, 58
2, 388308, Control_c, 0, 64, 57
2, 388327, Control_c, 0, 64, 56
2, 388345, Control_c, 0, 64, 54
2, 388366, Control_c, 0, 64, 53
2, 388386, Control_c, 0, 64, 52
2, 388405, Control_c, 0, 64, 51
2, 388424, Control_c, 0, 64, 49
2, 388444, Control_c, 0, 64, 47
2, 388462, Control_c, 0, 64, 45
2, 388484, Control_c, 0, 64, 42
2, 388503, Control_c, 0, 64, 39
2, 388521, Control_c, 0, 64, 35
2, 388539, Control_c, 0, 64, 30
2, 388548, Note_on_c, 0, 49, 0
2, 388548, Note_on_c, 0, 80, 69
2, 388554, Note_on_c, 0, 56, 32
2, 388559, Control_c, 0, 64, 25
2, 388563, Note_on_c, 0, 47, 37
2, 388579, Control_c, 0, 64, 19
2, 388597, Control_c, 0, 64, 15
2, 388615, Control_c, 0, 64, 13
2, 388692, Control_c, 0, 64, 15
2, 388710, Control_c, 0, 64, 20
2, 388731, Control_c, 0, 64, 28
2, 388749, Control_c, 0, 64, 40
2, 388769, Control_c, 0, 64, 50
2, 388789, Control_c, 0, 64, 57
2, 388807, Control_c, 0, 64, 60
2, 388827, Control_c, 0, 64, 62
2, 388848, Control_c, 0, 64, 63
2, 388866, Control_c, 0, 64, 65
2, 388883, Control_c, 0, 64, 68
2, 388894, Note_on_c, 0, 47, 0
2, 388903, Control_c, 0, 64, 73
2, 388923, Control_c, 0, 64, 80
2, 388932, Note_on_c, 0, 46, 45
2, 388943, Control_c, 0, 64, 90
2, 388961, Control_c, 0, 64, 102
2, 388981, Control_c, 0, 64, 113
2, 388999, Control_c, 0, 64, 127
2, 389073, Note_on_c, 0, 46, 0
2, 389190, Control_c, 0, 64, 120
2, 389210, Control_c, 0, 64, 115
2, 389230, Control_c, 0, 64, 111
2, 389249, Control_c, 0, 64, 106
2, 389271, Control_c, 0, 64, 101
2, 389288, Control_c, 0, 64, 95
2, 389310, Control_c, 0, 64, 85
2, 389321, Note_on_c, 0, 80, 0
2, 389325, Control_c, 0, 64, 75
2, 389345, Control_c, 0, 64, 65
2, 389367, Control_c, 0, 64, 57
2, 389367, Note_on_c, 0, 75, 63
2, 389388, Control_c, 0, 64, 51
2, 389388, Note_on_c, 0, 44, 46
2, 389404, Control_c, 0, 64, 49
2, 389441, Control_c, 0, 64, 50
2, 389460, Control_c, 0, 64, 52
2, 389478, Control_c, 0, 64, 56
2, 389491, Note_on_c, 0, 56, 0
2, 389500, Control_c, 0, 64, 60
2, 389517, Control_c, 0, 64, 63
2, 389539, Control_c, 0, 64, 66
2, 389554, Control_c, 0, 64, 69
2, 389576, Control_c, 0, 64, 75
2, 389594, Control_c, 0, 64, 81
2, 389614, Control_c, 0, 64, 88
2, 389634, Control_c, 0, 64, 93
2, 389653, Control_c, 0, 64, 96
2, 389675, Control_c, 0, 64, 97
2, 389690, Control_c, 0, 64, 96
2, 389712, Control_c, 0, 64, 87
2, 389730, Control_c, 0, 64, 74
2, 389748, Control_c, 0, 64, 65
2, 389768, Note_on_c, 0, 44, 0
2, 389773, Control_c, 0, 64, 60
2, 389788, Control_c, 0, 64, 61
2, 389792, Note_on_c, 0, 55, 48
2, 389802, Note_on_c, 0, 46, 39
2, 389807, Control_c, 0, 64, 63
2, 389825, Control_c, 0, 64, 66
2, 389843, Control_c, 0, 64, 71
2, 389863, Control_c, 0, 64, 83
2, 389885, Control_c, 0, 64, 101
2, 389903, Control_c, 0, 64, 127
2, 389903, Note_on_c, 0, 55, 0
2, 389944, Note_on_c, 0, 46, 0
2, 390094, Control_c, 0, 64, 116
2, 390115, Control_c, 0, 64, 84
2, 390135, Control_c, 0, 64, 66
2, 390150, Control_c, 0, 64, 59
2, 390171, Control_c, 0, 64, 58
2, 390180, Note_on_c, 0, 56, 52
2, 390185, Note_on_c, 0, 47, 43
2, 390195, Control_c, 0, 64, 60
2, 390208, Control_c, 0, 64, 63
2, 390228, Control_c, 0, 64, 66
2, 390249, Control_c, 0, 64, 70
2, 390266, Control_c, 0, 64, 78
2, 390285, Control_c, 0, 64, 86
2, 390305, Control_c, 0, 64, 94
2, 390323, Control_c, 0, 64, 102
2, 390341, Note_on_c, 0, 56, 0
2, 390345, Control_c, 0, 64, 113
2, 390362, Control_c, 0, 64, 127
2, 390517, Control_c, 0, 64, 104
2, 390537, Control_c, 0, 64, 75
2, 390552, Note_on_c, 0, 47, 0
2, 390556, Control_c, 0, 64, 63
2, 390561, Note_on_c, 0, 73, 76
2, 390574, Control_c, 0, 64, 55
2, 390596, Note_on_c, 0, 51, 49
2, 390600, Note_on_c, 0, 58, 51
2, 390613, Control_c, 0, 64, 58
2, 390630, Control_c, 0, 64, 62
2, 390641, Note_on_c, 0, 75, 0
2, 390650, Control_c, 0, 64, 66
2, 390670, Control_c, 0, 64, 72
2, 390693, Control_c, 0, 64, 85
2, 390707, Control_c, 0, 64, 102
2, 390726, Control_c, 0, 64, 127
2, 390743, Note_on_c, 0, 51, 0
2, 390803, Note_on_c, 0, 58, 0
2, 390958, Control_c, 0, 64, 105
2, 390978, Control_c, 0, 64, 89
2, 390984, Note_on_c, 0, 75, 81
2, 390988, Note_on_c, 0, 59, 55
2, 390997, Control_c, 0, 64, 75
2, 391016, Control_c, 0, 64, 65
2, 391021, Note_on_c, 0, 56, 46
2, 391026, Note_on_c, 0, 73, 0
2, 391034, Control_c, 0, 64, 58
2, 391054, Control_c, 0, 64, 54
2, 391072, Control_c, 0, 64, 53
2, 391112, Control_c, 0, 64, 52
2, 391130, Control_c, 0, 64, 50
2, 391148, Control_c, 0, 64, 49
2, 391303, Control_c, 0, 64, 50
2, 391324, Control_c, 0, 64, 53
2, 391344, Control_c, 0, 64, 59
2, 391363, Control_c, 0, 64, 63
2, 391380, Control_c, 0, 64, 66
2, 391389, Note_on_c, 0, 56, 0
2, 391401, Control_c, 0, 64, 71
2, 391406, Note_on_c, 0, 58, 66
2, 391406, Note_on_c, 0, 59, 0
2, 391419, Control_c, 0, 64, 80
2, 391441, Control_c, 0, 64, 97
2, 391456, Control_c, 0, 64, 127
2, 391502, Note_on_c, 0, 58, 0
2, 391764, Control_c, 0, 64, 104
2, 391785, Control_c, 0, 64, 83
2, 391789, Note_on_c, 0, 56, 68
2, 391796, Note_on_c, 0, 47, 57
2, 391803, Control_c, 0, 64, 71
2, 391821, Control_c, 0, 64, 64
2, 391843, Control_c, 0, 64, 59
2, 391861, Control_c, 0, 64, 56
2, 391881, Control_c, 0, 64, 55
2, 391919, Control_c, 0, 64, 54
2, 391938, Control_c, 0, 64, 53
2, 391957, Control_c, 0, 64, 52
2, 391976, Control_c, 0, 64, 51
2, 391995, Control_c, 0, 64, 50
2, 392032, Control_c, 0, 64, 49
2, 392127, Control_c, 0, 64, 51
2, 392149, Control_c, 0, 64, 55
2, 392169, Control_c, 0, 64, 60
2, 392180, Note_on_c, 0, 47, 0
2, 392186, Control_c, 0, 64, 64
2, 392190, Note_on_c, 0, 77, 85
2, 392202, Note_on_c, 0, 49, 57
2, 392206, Note_on_c, 0, 75, 0
2, 392210, Control_c, 0, 64, 69
2, 392226, Control_c, 0, 64, 79
2, 392244, Control_c, 0, 64, 101
2, 392262, Control_c, 0, 64, 127
2, 392264, Note_on_c, 0, 49, 0
2, 392269, Note_on_c, 0, 56, 0
2, 392286, Note_on_c, 0, 77, 0
2, 392532, Control_c, 0, 64, 120
2, 392550, Control_c, 0, 64, 86
2, 392570, Control_c, 0, 64, 68
2, 392592, Control_c, 0, 64, 58
2, 392605, Note_on_c, 0, 78, 88
2, 392609, Control_c, 0, 64, 46
2, 392613, Note_on_c, 0, 63, 62
2, 392629, Control_c, 0, 64, 42
2, 392629, Note_on_c, 0, 51, 53
2, 392667, Control_c, 0, 64, 45
2, 392687, Control_c, 0, 64, 53
2, 392706, Control_c, 0, 64, 60
2, 392724, Control_c, 0, 64, 64
2, 392744, Control_c, 0, 64, 67
2, 392764, Control_c, 0, 64, 73
2, 392782, Control_c, 0, 64, 81
2, 392802, Control_c, 0, 64, 94
2, 392820, Control_c, 0, 64, 113
2, 392841, Control_c, 0, 64, 127
2, 392841, Note_on_c, 0, 51, 0
2, 392856, Note_on_c, 0, 63, 0
2, 393010, Note_on_c, 0, 50, 51
2, 393080, Note_on_c, 0, 50, 0
2, 393358, Control_c, 0, 64, 116
2, 393378, Control_c, 0, 64, 101
2, 393397, Control_c, 0, 64, 89
2, 393415, Control_c, 0, 64, 78
2, 393415, Note_on_c, 0, 58, 63
2, 393435, Control_c, 0, 64, 68
2, 393435, Note_on_c, 0, 51, 51
2, 393455, Control_c, 0, 64, 61
2, 393473, Control_c, 0, 64, 55
2, 393492, Control_c, 0, 64, 52
2, 393510, Control_c, 0, 64, 50
2, 393531, Control_c, 0, 64, 48
2, 393553, Control_c, 0, 64, 44
2, 393572, Control_c, 0, 64, 39
2, 393588, Control_c, 0, 64, 33
2, 393608, Control_c, 0, 64, 29
2, 393626, Control_c, 0, 64, 27
2, 393646, Control_c, 0, 64, 26
2, 393664, Control_c, 0, 64, 24
2, 393685, Control_c, 0, 64, 18
2, 393704, Control_c, 0, 64, 0
2, 393765, Note_on_c, 0, 51, 0
2, 393805, Note_on_c, 0, 77, 75
2, 393818, Note_on_c, 0, 78, 0
2, 393829, Note_on_c, 0, 53, 47
2, 394148, Note_on_c, 0, 53, 0
2, 394164, Note_on_c, 0, 77, 0
2, 394169, Control_c, 0, 64, 8
2, 394183, Control_c, 0, 64, 33
2, 394202, Control_c, 0, 64, 48
2, 394211, Note_on_c, 0, 54, 45
2, 394211, Note_on_c, 0, 75, 66
2, 394222, Control_c, 0, 64, 58
2, 394240, Control_c, 0, 64, 62
2, 394261, Control_c, 0, 64, 65
2, 394279, Control_c, 0, 64, 68
2, 394297, Control_c, 0, 64, 75
2, 394317, Control_c, 0, 64, 89
2, 394339, Control_c, 0, 64, 127
2, 394347, Note_on_c, 0, 54, 0
2, 394567, Control_c, 0, 64, 113
2, 394588, Control_c, 0, 64, 81
2, 394607, Control_c, 0, 64, 65
2, 394614, Note_on_c, 0, 59, 65
2, 394625, Control_c, 0, 64, 54
2, 394641, Note_on_c, 0, 58, 0
2, 394646, Control_c, 0, 64, 49
2, 394653, Note_on_c, 0, 56, 49
2, 394682, Control_c, 0, 64, 53
2, 394702, Control_c, 0, 64, 58
2, 394719, Control_c, 0, 64, 62
2, 394741, Control_c, 0, 64, 65
2, 394759, Control_c, 0, 64, 68
2, 394779, Control_c, 0, 64, 75
2, 394797, Control_c, 0, 64, 84
2, 394817, Control_c, 0, 64, 100
2, 394835, Control_c, 0, 64, 116
2, 394854, Control_c, 0, 64, 127
2, 394951, Control_c, 0, 64, 118
2, 394971, Control_c, 0, 64, 106
2, 394988, Control_c, 0, 64, 96
2, 394988, Note_on_c, 0, 56, 0
2, 395008, Control_c, 0, 64, 85
2, 395008, Note_on_c, 0, 82, 84
2, 395021, Note_on_c, 0, 59, 0
2, 395025, Control_c, 0, 64, 75
2, 395025, Note_on_c, 0, 61, 50
2, 395030, Note_on_c, 0, 53, 46
2, 395047, Control_c, 0, 64, 67
2, 395047, Note_on_c, 0, 75, 0
2, 395066, Control_c, 0, 64, 61
2, 395081, Control_c, 0, 64, 56
2, 395101, Control_c, 0, 64, 54
2, 395121, Control_c, 0, 64, 53
2, 395142, Control_c, 0, 64, 51
2, 395158, Control_c, 0, 64, 50
2, 395178, Control_c, 0, 64, 47
2, 395197, Control_c, 0, 64, 42
2, 395217, Control_c, 0, 64, 37
2, 395235, Control_c, 0, 64, 34
2, 395256, Control_c, 0, 64, 32
2, 395296, Control_c, 0, 64, 31
2, 395353, Control_c, 0, 64, 32
2, 395370, Control_c, 0, 64, 35
2, 395391, Control_c, 0, 64, 41
2, 395409, Control_c, 0, 64, 49
2, 395413, Note_on_c, 0, 53, 0
2, 395429, Control_c, 0, 64, 56
2, 395446, Control_c, 0, 64, 61
2, 395469, Control_c, 0, 64, 62
2, 395487, Control_c, 0, 64, 64
2, 395491, Note_on_c, 0, 55, 33
2, 395505, Control_c, 0, 64, 66
2, 395523, Control_c, 0, 64, 69
2, 395543, Control_c, 0, 64, 75
2, 395563, Control_c, 0, 64, 83
2, 395581, Control_c, 0, 64, 92
2, 395601, Control_c, 0, 64, 99
2, 395619, Control_c, 0, 64, 102
2, 395696, Control_c, 0, 64, 101
2, 395718, Control_c, 0, 64, 99
2, 395736, Control_c, 0, 64, 96
2, 395755, Control_c, 0, 64, 91
2, 395776, Control_c, 0, 64, 82
2, 395793, Control_c, 0, 64, 75
2, 395795, Note_on_c, 0, 75, 74
2, 395810, Note_on_c, 0, 55, 0
2, 395813, Control_c, 0, 64, 68
2, 395818, Note_on_c, 0, 82, 0
2, 395831, Control_c, 0, 64, 62
2, 395831, Note_on_c, 0, 56, 46
2, 395852, Control_c, 0, 64, 58
2, 395870, Control_c, 0, 64, 57
2, 395890, Control_c, 0, 64, 55
2, 395909, Control_c, 0, 64, 54
2, 395928, Control_c, 0, 64, 52
2, 395946, Control_c, 0, 64, 51
2, 395966, Control_c, 0, 64, 49
2, 395984, Control_c, 0, 64, 47
2, 396004, Control_c, 0, 64, 46
2, 396080, Control_c, 0, 64, 45
2, 396100, Control_c, 0, 64, 44
2, 396119, Control_c, 0, 64, 43
2, 396156, Control_c, 0, 64, 42
2, 396201, Note_on_c, 0, 56, 0
2, 396218, Note_on_c, 0, 73, 51
2, 396232, Note_on_c, 0, 58, 51
2, 396370, Control_c, 0, 64, 43
2, 396407, Control_c, 0, 64, 44
2, 396426, Control_c, 0, 64, 45
2, 396446, Control_c, 0, 64, 47
2, 396466, Control_c, 0, 64, 50
2, 396484, Control_c, 0, 64, 53
2, 396503, Control_c, 0, 64, 56
2, 396524, Control_c, 0, 64, 58
2, 396540, Control_c, 0, 64, 60
2, 396561, Control_c, 0, 64, 62
2, 396579, Control_c, 0, 64, 64
2, 396587, Note_on_c, 0, 73, 0
2, 396601, Control_c, 0, 64, 67
2, 396601, Note_on_c, 0, 75, 0
2, 396605, Note_on_c, 0, 71, 69
2, 396609, Note_on_c, 0, 56, 57
2, 396616, Note_on_c, 0, 58, 0
2, 396621, Control_c, 0, 64, 71
2, 396621, Note_on_c, 0, 61, 0
2, 396639, Control_c, 0, 64, 78
2, 396660, Control_c, 0, 64, 88
2, 396678, Control_c, 0, 64, 100
2, 396695, Control_c, 0, 64, 120
2, 396715, Control_c, 0, 64, 127
2, 396782, Note_on_c, 0, 71, 0
2, 396939, Note_on_c, 0, 56, 0
2, 396945, Control_c, 0, 64, 112
2, 396965, Control_c, 0, 64, 83
2, 396985, Control_c, 0, 64, 67
2, 396996, Note_on_c, 0, 75, 74
2, 397003, Control_c, 0, 64, 56
2, 397007, Note_on_c, 0, 54, 53
2, 397007, Note_on_c, 0, 70, 69
2, 397024, Control_c, 0, 64, 51
2, 397061, Control_c, 0, 64, 52
2, 397080, Control_c, 0, 64, 55
2, 397099, Control_c, 0, 64, 59
2, 397117, Control_c, 0, 64, 63
2, 397138, Control_c, 0, 64, 67
2, 397158, Control_c, 0, 64, 75
2, 397178, Control_c, 0, 64, 97
2, 397195, Control_c, 0, 64, 127
2, 397195, Note_on_c, 0, 70, 0
2, 397246, Note_on_c, 0, 54, 0
2, 397259, Note_on_c, 0, 75, 0
2, 397400, Note_on_c, 0, 53, 51
2, 397407, Control_c, 0, 64, 81
2, 397411, Note_on_c, 0, 74, 80
2, 397418, Note_on_c, 0, 68, 72
2, 397424, Control_c, 0, 64, 64
2, 397446, Control_c, 0, 64, 55
2, 397462, Control_c, 0, 64, 53
2, 397482, Control_c, 0, 64, 54
2, 397502, Control_c, 0, 64, 56
2, 397522, Control_c, 0, 64, 60
2, 397540, Control_c, 0, 64, 63
2, 397559, Control_c, 0, 64, 66
2, 397578, Control_c, 0, 64, 71
2, 397598, Control_c, 0, 64, 79
2, 397610, Note_on_c, 0, 68, 0
2, 397617, Control_c, 0, 64, 94
2, 397636, Control_c, 0, 64, 127
2, 397661, Note_on_c, 0, 74, 0
2, 397788, Note_on_c, 0, 53, 0
2, 397792, Control_c, 0, 64, 93
2, 397808, Control_c, 0, 64, 70
2, 397817, Note_on_c, 0, 75, 80
2, 397824, Note_on_c, 0, 51, 56
2, 397824, Note_on_c, 0, 66, 73
2, 397828, Control_c, 0, 64, 57
2, 397846, Control_c, 0, 64, 51
2, 397866, Control_c, 0, 64, 50
2, 397888, Control_c, 0, 64, 52
2, 397905, Control_c, 0, 64, 56
2, 397927, Control_c, 0, 64, 60
2, 397947, Control_c, 0, 64, 63
2, 397962, Control_c, 0, 64, 66
2, 397982, Control_c, 0, 64, 70
2, 398000, Control_c, 0, 64, 77
2, 398021, Control_c, 0, 64, 88
2, 398026, Note_on_c, 0, 66, 0
2, 398041, Control_c, 0, 64, 104
2, 398061, Control_c, 0, 64, 127
2, 398061, Note_on_c, 0, 51, 0
2, 398086, Note_on_c, 0, 75, 0
2, 398134, Control_c, 0, 64, 113
2, 398154, Control_c, 0, 64, 103
2, 398174, Control_c, 0, 64, 88
2, 398197, Control_c, 0, 64, 73
2, 398212, Control_c, 0, 64, 62
2, 398231, Control_c, 0, 64, 52
2, 398231, Note_on_c, 0, 77, 80
2, 398237, Note_on_c, 0, 68, 69
2, 398245, Note_on_c, 0, 50, 50
2, 398252, Control_c, 0, 64, 47
2, 398271, Control_c, 0, 64, 46
2, 398289, Control_c, 0, 64, 47
2, 398307, Control_c, 0, 64, 50
2, 398327, Control_c, 0, 64, 56
2, 398347, Control_c, 0, 64, 61
2, 398366, Control_c, 0, 64, 63
2, 398385, Control_c, 0, 64, 66
2, 398407, Control_c, 0, 64, 70
2, 398418, Note_on_c, 0, 68, 0
2, 398423, Control_c, 0, 64, 78
2, 398443, Control_c, 0, 64, 93
2, 398452, Note_on_c, 0, 77, 0
2, 398466, Control_c, 0, 64, 127
2, 398466, Note_on_c, 0, 50, 0
2, 398597, Control_c, 0, 64, 85
2, 398616, Control_c, 0, 64, 67
2, 398634, Control_c, 0, 64, 56
2, 398641, Note_on_c, 0, 59, 62
2, 398646, Note_on_c, 0, 65, 74
2, 398646, Note_on_c, 0, 74, 76
2, 398653, Control_c, 0, 64, 48
2, 398692, Control_c, 0, 64, 52
2, 398714, Control_c, 0, 64, 57
2, 398729, Control_c, 0, 64, 62
2, 398750, Control_c, 0, 64, 65
2, 398769, Control_c, 0, 64, 68
2, 398788, Control_c, 0, 64, 73
2, 398810, Control_c, 0, 64, 80
2, 398810, Note_on_c, 0, 65, 0
2, 398810, Note_on_c, 0, 74, 0
2, 398829, Control_c, 0, 64, 92
2, 398846, Control_c, 0, 64, 127
2, 398873, Note_on_c, 0, 59, 0
2, 399001, Control_c, 0, 64, 83
2, 399019, Control_c, 0, 64, 65
2, 399039, Control_c, 0, 64, 54
2, 399054, Note_on_c, 0, 75, 76
2, 399058, Control_c, 0, 64, 50
2, 399062, Note_on_c, 0, 66, 75
2, 399066, Note_on_c, 0, 58, 76
2, 399078, Control_c, 0, 64, 51
2, 399095, Control_c, 0, 64, 56
2, 399114, Control_c, 0, 64, 61
2, 399133, Control_c, 0, 64, 65
2, 399154, Control_c, 0, 64, 70
2, 399170, Control_c, 0, 64, 82
2, 399191, Control_c, 0, 64, 115
2, 399202, Note_on_c, 0, 66, 0
2, 399211, Control_c, 0, 64, 127
2, 399222, Note_on_c, 0, 75, 0
2, 399422, Control_c, 0, 64, 118
2, 399440, Control_c, 0, 64, 77
2, 399449, Note_on_c, 0, 77, 85
2, 399456, Note_on_c, 0, 68, 80
2, 399464, Control_c, 0, 64, 61
2, 399464, Note_on_c, 0, 56, 73
2, 399480, Control_c, 0, 64, 48
2, 399487, Note_on_c, 0, 58, 0
2, 399499, Control_c, 0, 64, 46
2, 399517, Control_c, 0, 64, 49
2, 399536, Control_c, 0, 64, 55
2, 399557, Control_c, 0, 64, 62
2, 399575, Control_c, 0, 64, 66
2, 399593, Control_c, 0, 64, 73
2, 399613, Control_c, 0, 64, 86
2, 399618, Note_on_c, 0, 68, 0
2, 399626, Note_on_c, 0, 77, 0
2, 399633, Control_c, 0, 64, 127
2, 399861, Note_on_c, 0, 78, 90
2, 399863, Control_c, 0, 64, 89
2, 399867, Note_on_c, 0, 54, 77
2, 399869, Note_on_c, 0, 70, 82
2, 399883, Control_c, 0, 64, 68
2, 399902, Control_c, 0, 64, 57
2, 399925, Control_c, 0, 64, 52
2, 399925, Note_on_c, 0, 56, 0
2, 399957, Control_c, 0, 64, 56
2, 399977, Control_c, 0, 64, 60
2, 399998, Control_c, 0, 64, 64
2, 400017, Control_c, 0, 64, 68
2, 400034, Control_c, 0, 64, 75
2, 400056, Control_c, 0, 64, 85
2, 400074, Control_c, 0, 64, 101
2, 400093, Control_c, 0, 64, 127
2, 400216, Note_on_c, 0, 70, 0
2, 400303, Note_on_c, 0, 53, 79
2, 400303, Note_on_c, 0, 68, 89
2, 400303, Note_on_c, 0, 80, 82
2, 400305, Control_c, 0, 64, 104
2, 400323, Control_c, 0, 64, 87
2, 400346, Control_c, 0, 64, 77
2, 400359, Note_on_c, 0, 78, 0
2, 400364, Control_c, 0, 64, 70
2, 400373, Note_on_c, 0, 54, 0
2, 400382, Control_c, 0, 64, 67
2, 400399, Control_c, 0, 64, 66
2, 400420, Control_c, 0, 64, 65
2, 400460, Control_c, 0, 64, 64
2, 400478, Control_c, 0, 64, 63
2, 400497, Control_c, 0, 64, 62
2, 400515, Control_c, 0, 64, 61
2, 400536, Control_c, 0, 64, 60
2, 400554, Control_c, 0, 64, 58
2, 400574, Control_c, 0, 64, 55
2, 400594, Control_c, 0, 64, 50
2, 400614, Control_c, 0, 64, 47
2, 400614, Note_on_c, 0, 80, 0
2, 400630, Control_c, 0, 64, 45
2, 400670, Control_c, 0, 64, 46
2, 400689, Control_c, 0, 64, 50
2, 400699, Note_on_c, 0, 51, 76
2, 400701, Note_on_c, 0, 82, 81
2, 400710, Control_c, 0, 64, 59
2, 400728, Control_c, 0, 64, 67
2, 400728, Note_on_c, 0, 53, 0
2, 400748, Control_c, 0, 64, 79
2, 400766, Control_c, 0, 64, 127
2, 400781, Note_on_c, 0, 82, 0
2, 400808, Note_on_c, 0, 51, 0
2, 400849, Note_on_c, 0, 68, 0
2, 401105, Note_on_c, 0, 49, 79
2, 401116, Note_on_c, 0, 66, 80
2, 401118, Note_on_c, 0, 70, 77
2, 401233, Note_on_c, 0, 66, 0
2, 401256, Note_on_c, 0, 70, 0
2, 401283, Note_on_c, 0, 65, 80
2, 401386, Note_on_c, 0, 65, 0
2, 401516, Control_c, 0, 64, 82
2, 401520, Note_on_c, 0, 47, 87
2, 401520, Note_on_c, 0, 75, 92
2, 401525, Note_on_c, 0, 66, 88
2, 401534, Control_c, 0, 64, 64
2, 401547, Note_on_c, 0, 49, 0
2, 401554, Control_c, 0, 64, 47
2, 401572, Control_c, 0, 64, 29
2, 401592, Control_c, 0, 64, 11
2, 401628, Control_c, 0, 64, 23
2, 401648, Control_c, 0, 64, 37
2, 401668, Control_c, 0, 64, 51
2, 401687, Control_c, 0, 64, 62
2, 401704, Control_c, 0, 64, 65
2, 401726, Control_c, 0, 64, 67
2, 401747, Control_c, 0, 64, 70
2, 401763, Control_c, 0, 64, 77
2, 401783, Control_c, 0, 64, 89
2, 401788, Note_on_c, 0, 66, 0
2, 401801, Control_c, 0, 64, 107
2, 401823, Control_c, 0, 64, 127
2, 401867, Note_on_c, 0, 75, 0
2, 401969, Note_on_c, 0, 68, 100
2, 401969, Note_on_c, 0, 77, 92
2, 402056, Note_on_c, 0, 47, 0
2, 402099, Note_on_c, 0, 77, 0
2, 402158, Note_on_c, 0, 68, 0
2, 402462, Note_on_c, 0, 46, 87
2, 402462, Note_on_c, 0, 70, 89
2, 402462, Note_on_c, 0, 74, 88
2, 402493, Control_c, 0, 64, 97
2, 402513, Control_c, 0, 64, 70
2, 402532, Control_c, 0, 64, 57
2, 402550, Control_c, 0, 64, 40
2, 402571, Control_c, 0, 64, 0
2, 402686, Control_c, 0, 64, 27
2, 402706, Control_c, 0, 64, 43
2, 402726, Control_c, 0, 64, 56
2, 402743, Control_c, 0, 64, 63
2, 402762, Control_c, 0, 64, 67
2, 402782, Control_c, 0, 64, 74
2, 402802, Control_c, 0, 64, 86
2, 402820, Control_c, 0, 64, 111
2, 402840, Control_c, 0, 64, 127
2, 402918, Note_on_c, 0, 74, 0
2, 403008, Note_on_c, 0, 46, 0
2, 403037, Note_on_c, 0, 70, 0
2, 403463, Note_on_c, 0, 51, 91
2, 403470, Note_on_c, 0, 58, 93
2, 403530, Control_c, 0, 64, 118
2, 403551, Control_c, 0, 64, 80
2, 403569, Control_c, 0, 64, 64
2, 403587, Control_c, 0, 64, 55
2, 403608, Control_c, 0, 64, 46
2, 403626, Control_c, 0, 64, 41
2, 403646, Control_c, 0, 64, 36
2, 403663, Control_c, 0, 64, 32
2, 403683, Control_c, 0, 64, 28
2, 403742, Control_c, 0, 64, 35
2, 403760, Control_c, 0, 64, 49
2, 403780, Control_c, 0, 64, 60
2, 403799, Control_c, 0, 64, 64
2, 403817, Control_c, 0, 64, 68
2, 403838, Control_c, 0, 64, 75
2, 403858, Control_c, 0, 64, 88
2, 403875, Control_c, 0, 64, 127
2, 403994, Note_on_c, 0, 58, 0
2, 404318, Note_on_c, 0, 63, 89
2, 404323, Note_on_c, 0, 70, 80
2, 404336, Control_c, 0, 64, 104
2, 404354, Control_c, 0, 64, 83
2, 404374, Control_c, 0, 64, 69
2, 404394, Control_c, 0, 64, 61
2, 404412, Control_c, 0, 64, 55
2, 404436, Control_c, 0, 64, 53
2, 404452, Control_c, 0, 64, 51
2, 404472, Control_c, 0, 64, 49
2, 404490, Control_c, 0, 64, 47
2, 404511, Control_c, 0, 64, 45
2, 404530, Control_c, 0, 64, 44
2, 404586, Control_c, 0, 64, 45
2, 404606, Control_c, 0, 64, 47
2, 404627, Control_c, 0, 64, 48
2, 404645, Control_c, 0, 64, 50
2, 404665, Control_c, 0, 64, 53
2, 404682, Control_c, 0, 64, 57
2, 404703, Control_c, 0, 64, 61
2, 404721, Control_c, 0, 64, 63
2, 404721, Note_on_c, 0, 52, 88
2, 404732, Note_on_c, 0, 63, 0
2, 404742, Control_c, 0, 64, 66
2, 404742, Note_on_c, 0, 70, 0
2, 404760, Control_c, 0, 64, 68
2, 404760, Note_on_c, 0, 51, 0
2, 404777, Control_c, 0, 64, 72
2, 404798, Control_c, 0, 64, 78
2, 404819, Control_c, 0, 64, 88
2, 404835, Control_c, 0, 64, 104
2, 404855, Control_c, 0, 64, 127
2, 405123, Control_c, 0, 64, 83
2, 405131, Note_on_c, 0, 75, 93
2, 405136, Note_on_c, 0, 51, 85
2, 405142, Control_c, 0, 64, 66
2, 405163, Control_c, 0, 64, 56
2, 405168, Note_on_c, 0, 52, 0
2, 405182, Control_c, 0, 64, 51
2, 405200, Control_c, 0, 64, 50
2, 405219, Control_c, 0, 64, 51
2, 405240, Control_c, 0, 64, 53
2, 405257, Control_c, 0, 64, 56
2, 405276, Control_c, 0, 64, 60
2, 405295, Control_c, 0, 64, 62
2, 405316, Control_c, 0, 64, 64
2, 405336, Control_c, 0, 64, 67
2, 405356, Control_c, 0, 64, 70
2, 405375, Control_c, 0, 64, 76
2, 405397, Control_c, 0, 64, 83
2, 405412, Control_c, 0, 64, 94
2, 405430, Control_c, 0, 64, 105
2, 405451, Control_c, 0, 64, 113
2, 405469, Control_c, 0, 64, 110
2, 405489, Control_c, 0, 64, 91
2, 405508, Control_c, 0, 64, 72
2, 405531, Control_c, 0, 64, 59
2, 405531, Note_on_c, 0, 64, 91
2, 405535, Note_on_c, 0, 49, 74
2, 405546, Control_c, 0, 64, 48
2, 405566, Control_c, 0, 64, 47
2, 405585, Control_c, 0, 64, 49
2, 405587, Note_on_c, 0, 51, 0
2, 405606, Control_c, 0, 64, 55
2, 405624, Control_c, 0, 64, 62
2, 405642, Control_c, 0, 64, 68
2, 405660, Control_c, 0, 64, 80
2, 405680, Control_c, 0, 64, 127
2, 405750, Note_on_c, 0, 64, 0
2, 405835, Control_c, 0, 64, 79
2, 405853, Control_c, 0, 64, 61
2, 405873, Control_c, 0, 64, 47
2, 405893, Control_c, 0, 64, 41
2, 405911, Control_c, 0, 64, 44
2, 405919, Note_on_c, 0, 47, 70
2, 405926, Note_on_c, 0, 49, 0
2, 405926, Note_on_c, 0, 63, 87
2, 405931, Control_c, 0, 64, 53
2, 405949, Control_c, 0, 64, 63
2, 405969, Control_c, 0, 64, 70
2, 405990, Control_c, 0, 64, 91
2, 406006, Control_c, 0, 64, 127
2, 406033, Note_on_c, 0, 47, 0
2, 406055, Note_on_c, 0, 75, 0
2, 406075, Note_on_c, 0, 63, 0
2, 406318, Note_on_c, 0, 76, 97
2, 406325, Note_on_c, 0, 61, 74
2, 406334, Note_on_c, 0, 49, 70
2, 406339, Control_c, 0, 64, 89
2, 406351, Control_c, 0, 64, 66
2, 406374, Control_c, 0, 64, 53
2, 406391, Control_c, 0, 64, 52
2, 406411, Control_c, 0, 64, 56
2, 406428, Control_c, 0, 64, 62
2, 406447, Control_c, 0, 64, 67
2, 406467, Control_c, 0, 64, 76
2, 406488, Control_c, 0, 64, 94
2, 406505, Control_c, 0, 64, 127
2, 406595, Note_on_c, 0, 61, 0
2, 406703, Note_on_c, 0, 49, 0
2, 406718, Control_c, 0, 64, 106
2, 406737, Control_c, 0, 64, 76
2, 406737, Note_on_c, 0, 75, 93
2, 406749, Note_on_c, 0, 59, 63
2, 406756, Control_c, 0, 64, 61
2, 406760, Note_on_c, 0, 51, 53
2, 406778, Control_c, 0, 64, 48
2, 406778, Note_on_c, 0, 76, 0
2, 406795, Control_c, 0, 64, 40
2, 406814, Control_c, 0, 64, 39
2, 406834, Control_c, 0, 64, 42
2, 406855, Control_c, 0, 64, 50
2, 406872, Control_c, 0, 64, 58
2, 406889, Control_c, 0, 64, 63
2, 406911, Control_c, 0, 64, 65
2, 406931, Control_c, 0, 64, 67
2, 406939, Note_on_c, 0, 59, 0
2, 406948, Control_c, 0, 64, 70
2, 406967, Control_c, 0, 64, 73
2, 406988, Control_c, 0, 64, 78
2, 407008, Control_c, 0, 64, 82
2, 407024, Control_c, 0, 64, 85
2, 407121, Control_c, 0, 64, 87
2, 407132, Note_on_c, 0, 73, 94
2, 407137, Note_on_c, 0, 61, 70
2, 407142, Control_c, 0, 64, 88
2, 407158, Control_c, 0, 64, 92
2, 407181, Control_c, 0, 64, 96
2, 407181, Note_on_c, 0, 75, 0
2, 407200, Control_c, 0, 64, 101
2, 407200, Note_on_c, 0, 61, 0
2, 407218, Control_c, 0, 64, 104
2, 407226, Note_on_c, 0, 73, 0
2, 407231, Note_on_c, 0, 51, 0
2, 407235, Control_c, 0, 64, 107
2, 407256, Control_c, 0, 64, 116
2, 407274, Control_c, 0, 64, 127
2, 407540, Note_on_c, 0, 71, 87
2, 407544, Control_c, 0, 64, 111
2, 407557, Note_on_c, 0, 63, 70
2, 407564, Control_c, 0, 64, 85
2, 407568, Note_on_c, 0, 44, 60
2, 407582, Control_c, 0, 64, 70
2, 407600, Control_c, 0, 64, 59
2, 407620, Control_c, 0, 64, 52
2, 407638, Control_c, 0, 64, 49
2, 407658, Control_c, 0, 64, 48
2, 407678, Control_c, 0, 64, 47
2, 407696, Control_c, 0, 64, 46
2, 407715, Control_c, 0, 64, 44
2, 407735, Control_c, 0, 64, 43
2, 407773, Control_c, 0, 64, 44
2, 407792, Control_c, 0, 64, 45
2, 407812, Control_c, 0, 64, 46
2, 407869, Control_c, 0, 64, 47
2, 407884, Note_on_c, 0, 71, 0
2, 407888, Control_c, 0, 64, 50
2, 407911, Control_c, 0, 64, 54
2, 407928, Control_c, 0, 64, 60
2, 407937, Note_on_c, 0, 46, 66
2, 407941, Note_on_c, 0, 73, 88
2, 407946, Control_c, 0, 64, 63
2, 407946, Note_on_c, 0, 44, 0
2, 407966, Control_c, 0, 64, 67
2, 407984, Control_c, 0, 64, 74
2, 408004, Control_c, 0, 64, 88
2, 408022, Control_c, 0, 64, 127
2, 408062, Note_on_c, 0, 46, 0
2, 408255, Note_on_c, 0, 47, 58
2, 408334, Note_on_c, 0, 56, 72
2, 408345, Note_on_c, 0, 75, 88
2, 408369, Control_c, 0, 64, 84
2, 408389, Control_c, 0, 64, 67
2, 408397, Note_on_c, 0, 73, 0
2, 408407, Control_c, 0, 64, 55
2, 408428, Control_c, 0, 64, 46
2, 408446, Control_c, 0, 64, 44
2, 408484, Control_c, 0, 64, 43
2, 408541, Control_c, 0, 64, 44
2, 408560, Control_c, 0, 64, 46
2, 408579, Control_c, 0, 64, 48
2, 408600, Control_c, 0, 64, 50
2, 408618, Control_c, 0, 64, 51
2, 408638, Control_c, 0, 64, 52
2, 408657, Control_c, 0, 64, 55
2, 408676, Control_c, 0, 64, 59
2, 408694, Control_c, 0, 64, 63
2, 408713, Control_c, 0, 64, 68
2, 408720, Note_on_c, 0, 54, 85
2, 408735, Control_c, 0, 64, 77
2, 408753, Control_c, 0, 64, 101
2, 408762, Note_on_c, 0, 56, 0
2, 408770, Control_c, 0, 64, 127
2, 408793, Note_on_c, 0, 63, 0
2, 408836, Note_on_c, 0, 47, 0
2, 408842, Note_on_c, 0, 54, 0
2, 408951, Note_on_c, 0, 75, 0
2, 409140, Control_c, 0, 64, 80
2, 409153, Note_on_c, 0, 68, 89
2, 409158, Control_c, 0, 64, 62
2, 409158, Note_on_c, 0, 49, 76
2, 409169, Note_on_c, 0, 53, 69
2, 409179, Control_c, 0, 64, 49
2, 409197, Control_c, 0, 64, 41
2, 409216, Control_c, 0, 64, 39
2, 409256, Control_c, 0, 64, 41
2, 409276, Control_c, 0, 64, 49
2, 409294, Control_c, 0, 64, 58
2, 409312, Control_c, 0, 64, 63
2, 409332, Control_c, 0, 64, 67
2, 409350, Control_c, 0, 64, 72
2, 409369, Control_c, 0, 64, 82
2, 409390, Control_c, 0, 64, 99
2, 409410, Control_c, 0, 64, 127
2, 409456, Note_on_c, 0, 53, 0
2, 409525, Note_on_c, 0, 49, 0
2, 409586, Note_on_c, 0, 70, 84
2, 409630, Note_on_c, 0, 68, 0
2, 409759, Note_on_c, 0, 71, 84
2, 409790, Note_on_c, 0, 70, 0
2, 409835, Note_on_c, 0, 71, 0
2, 409945, Control_c, 0, 64, 115
2, 409967, Control_c, 0, 64, 83
2, 409972, Note_on_c, 0, 70, 86
2, 409978, Note_on_c, 0, 61, 76
2, 409984, Control_c, 0, 64, 66
2, 409988, Note_on_c, 0, 42, 64
2, 410003, Control_c, 0, 64, 55
2, 410023, Control_c, 0, 64, 45
2, 410043, Control_c, 0, 64, 38
2, 410063, Control_c, 0, 64, 35
2, 410120, Control_c, 0, 64, 36
2, 410140, Control_c, 0, 64, 40
2, 410158, Control_c, 0, 64, 48
2, 410176, Control_c, 0, 64, 56
2, 410195, Control_c, 0, 64, 60
2, 410213, Control_c, 0, 64, 61
2, 410291, Control_c, 0, 64, 62
2, 410330, Control_c, 0, 64, 61
2, 410350, Control_c, 0, 64, 59
2, 410367, Control_c, 0, 64, 54
2, 410389, Control_c, 0, 64, 50
2, 410396, Note_on_c, 0, 71, 75
2, 410410, Control_c, 0, 64, 47
2, 410426, Control_c, 0, 64, 45
2, 410453, Note_on_c, 0, 70, 0
2, 410463, Control_c, 0, 64, 47
2, 410483, Control_c, 0, 64, 51
2, 410506, Control_c, 0, 64, 58
2, 410523, Control_c, 0, 64, 62
2, 410543, Control_c, 0, 64, 64
2, 410560, Control_c, 0, 64, 67
2, 410580, Control_c, 0, 64, 71
2, 410589, Note_on_c, 0, 71, 0
2, 410599, Control_c, 0, 64, 78
2, 410621, Control_c, 0, 64, 88
2, 410638, Control_c, 0, 64, 106
2, 410656, Control_c, 0, 64, 127
2, 410694, Control_c, 0, 64, 104
2, 410714, Control_c, 0, 64, 85
2, 410732, Control_c, 0, 64, 70
2, 410752, Control_c, 0, 64, 62
2, 410771, Control_c, 0, 64, 56
2, 410797, Note_on_c, 0, 73, 78
2, 410804, Note_on_c, 0, 54, 56
2, 410813, Control_c, 0, 64, 57
2, 410828, Control_c, 0, 64, 58
2, 410849, Control_c, 0, 64, 60
2, 410868, Control_c, 0, 64, 62
2, 410888, Control_c, 0, 64, 65
2, 410906, Control_c, 0, 64, 71
2, 410924, Control_c, 0, 64, 83
2, 410943, Control_c, 0, 64, 109
2, 410964, Control_c, 0, 64, 127
2, 411097, Note_on_c, 0, 42, 0
2, 411107, Note_on_c, 0, 54, 0
2, 411156, Control_c, 0, 64, 93
2, 411174, Control_c, 0, 64, 70
2, 411194, Control_c, 0, 64, 58
2, 411210, Note_on_c, 0, 41, 73
2, 411214, Control_c, 0, 64, 52
2, 411232, Control_c, 0, 64, 53
2, 411247, Control_c, 0, 64, 56
2, 411267, Control_c, 0, 64, 60
2, 411287, Control_c, 0, 64, 64
2, 411305, Control_c, 0, 64, 67
2, 411327, Control_c, 0, 64, 75
2, 411347, Control_c, 0, 64, 88
2, 411364, Control_c, 0, 64, 127
2, 411405, Note_on_c, 0, 41, 0
2, 411593, Control_c, 0, 64, 88
2, 411606, Note_on_c, 0, 66, 77
2, 411616, Control_c, 0, 64, 67
2, 411618, Note_on_c, 0, 42, 63
2, 411625, Note_on_c, 0, 61, 0
2, 411629, Note_on_c, 0, 73, 0
2, 411633, Control_c, 0, 64, 54
2, 411651, Control_c, 0, 64, 44
2, 411671, Control_c, 0, 64, 43
2, 411689, Control_c, 0, 64, 47
2, 411708, Control_c, 0, 64, 54
2, 411728, Control_c, 0, 64, 61
2, 411746, Control_c, 0, 64, 64
2, 411765, Control_c, 0, 64, 66
2, 411786, Control_c, 0, 64, 68
2, 411806, Control_c, 0, 64, 71
2, 411824, Control_c, 0, 64, 77
2, 411834, Note_on_c, 0, 42, 0
2, 411844, Control_c, 0, 64, 87
2, 411864, Control_c, 0, 64, 106
2, 411882, Control_c, 0, 64, 127
2, 411941, Control_c, 0, 64, 112
2, 411960, Control_c, 0, 64, 95
2, 411981, Control_c, 0, 64, 76
2, 411998, Control_c, 0, 64, 63
2, 412005, Note_on_c, 0, 53, 65
2, 412016, Note_on_c, 0, 44, 69
2, 412020, Control_c, 0, 64, 51
2, 412036, Control_c, 0, 64, 47
2, 412055, Control_c, 0, 64, 49
2, 412073, Control_c, 0, 64, 55
2, 412097, Control_c, 0, 64, 60
2, 412112, Control_c, 0, 64, 64
2, 412131, Control_c, 0, 64, 67
2, 412151, Control_c, 0, 64, 72
2, 412169, Control_c, 0, 64, 79
2, 412188, Control_c, 0, 64, 88
2, 412196, Note_on_c, 0, 53, 0
2, 412208, Control_c, 0, 64, 106
2, 412230, Control_c, 0, 64, 127
2, 412381, Control_c, 0, 64, 101
2, 412399, Control_c, 0, 64, 75
2, 412423, Control_c, 0, 64, 60
2, 412425, Note_on_c, 0, 44, 0
2, 412432, Note_on_c, 0, 54, 68
2, 412438, Control_c, 0, 64, 51
2, 412448, Note_on_c, 0, 46, 63
2, 412458, Control_c, 0, 64, 49
2, 412496, Control_c, 0, 64, 51
2, 412515, Control_c, 0, 64, 55
2, 412535, Control_c, 0, 64, 59
2, 412554, Control_c, 0, 64, 63
2, 412572, Control_c, 0, 64, 65
2, 412594, Control_c, 0, 64, 69
2, 412612, Control_c, 0, 64, 76
2, 412629, Control_c, 0, 64, 86
2, 412650, Control_c, 0, 64, 106
2, 412669, Control_c, 0, 64, 127
2, 412803, Control_c, 0, 64, 94
2, 412825, Control_c, 0, 64, 71
2, 412829, Note_on_c, 0, 46, 0
2, 412829, Note_on_c, 0, 66, 0
2, 412836, Note_on_c, 0, 54, 0
2, 412836, Note_on_c, 0, 65, 69
2, 412840, Note_on_c, 0, 44, 61
2, 412840, Note_on_c, 0, 56, 72
2, 412842, Control_c, 0, 64, 56
2, 412862, Control_c, 0, 64, 47
2, 412881, Control_c, 0, 64, 46
2, 412901, Control_c, 0, 64, 47
2, 412918, Control_c, 0, 64, 51
2, 412938, Control_c, 0, 64, 57
2, 412957, Control_c, 0, 64, 61
2, 412977, Control_c, 0, 64, 64
2, 412995, Control_c, 0, 64, 67
2, 413014, Control_c, 0, 64, 73
2, 413033, Control_c, 0, 64, 86
2, 413040, Note_on_c, 0, 56, 0
2, 413054, Control_c, 0, 64, 127
2, 413130, Note_on_c, 0, 65, 0
2, 413232, Note_on_c, 0, 66, 84
2, 413239, Note_on_c, 0, 58, 73
2, 413246, Control_c, 0, 64, 78
2, 413255, Note_on_c, 0, 42, 73
2, 413264, Control_c, 0, 64, 62
2, 413284, Control_c, 0, 64, 51
2, 413295, Note_on_c, 0, 44, 0
2, 413302, Control_c, 0, 64, 47
2, 413341, Control_c, 0, 64, 51
2, 413361, Control_c, 0, 64, 57
2, 413380, Control_c, 0, 64, 62
2, 413400, Control_c, 0, 64, 66
2, 413418, Control_c, 0, 64, 72
2, 413437, Control_c, 0, 64, 83
2, 413458, Control_c, 0, 64, 118
2, 413467, Note_on_c, 0, 58, 0
2, 413476, Control_c, 0, 64, 127
2, 413581, Note_on_c, 0, 66, 0
2, 413592, Control_c, 0, 64, 109
2, 413612, Control_c, 0, 64, 75
2, 413629, Control_c, 0, 64, 60
2, 413649, Note_on_c, 0, 68, 87
2, 413653, Control_c, 0, 64, 47
2, 413653, Note_on_c, 0, 56, 81
2, 413668, Control_c, 0, 64, 45
2, 413672, Note_on_c, 0, 52, 73
2, 413677, Note_on_c, 0, 42, 0
2, 413688, Control_c, 0, 64, 50
2, 413704, Control_c, 0, 64, 58
2, 413724, Control_c, 0, 64, 64
2, 413745, Control_c, 0, 64, 71
2, 413752, Note_on_c, 0, 56, 0
2, 413764, Control_c, 0, 64, 85
2, 413775, Note_on_c, 0, 52, 0
2, 413783, Control_c, 0, 64, 127
2, 413812, Note_on_c, 0, 68, 0
2, 414015, Control_c, 0, 64, 93
2, 414032, Control_c, 0, 64, 78
2, 414053, Control_c, 0, 64, 67
2, 414062, Note_on_c, 0, 70, 80
2, 414066, Note_on_c, 0, 54, 62
2, 414069, Note_on_c, 0, 51, 59
2, 414070, Control_c, 0, 64, 61
2, 414090, Control_c, 0, 64, 56
2, 414110, Control_c, 0, 64, 53
2, 414129, Control_c, 0, 64, 49
2, 414147, Control_c, 0, 64, 45
2, 414167, Control_c, 0, 64, 41
2, 414185, Control_c, 0, 64, 35
2, 414205, Control_c, 0, 64, 29
2, 414223, Control_c, 0, 64, 20
2, 414243, Control_c, 0, 64, 15
2, 414263, Control_c, 0, 64, 11
2, 414283, Control_c, 0, 64, 8
2, 414301, Control_c, 0, 64, 0
2, 414455, Note_on_c, 0, 68, 79
2, 414487, Note_on_c, 0, 70, 0
2, 414847, Note_on_c, 0, 68, 0
2, 414884, Note_on_c, 0, 66, 73
2, 414896, Note_on_c, 0, 54, 0
2, 414905, Note_on_c, 0, 59, 48
2, 415260, Control_c, 0, 64, 30
2, 415275, Note_on_c, 0, 58, 63
2, 415280, Note_on_c, 0, 59, 0
2, 415284, Control_c, 0, 64, 45
2, 415298, Control_c, 0, 64, 55
2, 415318, Control_c, 0, 64, 61
2, 415339, Control_c, 0, 64, 62
2, 415360, Control_c, 0, 64, 63
2, 415375, Control_c, 0, 64, 64
2, 415398, Control_c, 0, 64, 65
2, 415414, Control_c, 0, 64, 68
2, 415436, Control_c, 0, 64, 71
2, 415441, Note_on_c, 0, 66, 0
2, 415454, Control_c, 0, 64, 77
2, 415473, Control_c, 0, 64, 82
2, 415491, Control_c, 0, 64, 84
2, 415531, Control_c, 0, 64, 83
2, 415569, Control_c, 0, 64, 82
2, 415587, Control_c, 0, 64, 79
2, 415605, Control_c, 0, 64, 75
2, 415627, Control_c, 0, 64, 68
2, 415644, Control_c, 0, 64, 60
2, 415664, Control_c, 0, 64, 50
2, 415680, Note_on_c, 0, 58, 0
2, 415684, Control_c, 0, 64, 42
2, 415703, Control_c, 0, 64, 37
2, 415707, Note_on_c, 0, 76, 84
2, 415725, Control_c, 0, 64, 36
2, 415725, Note_on_c, 0, 56, 59
2, 415740, Control_c, 0, 64, 39
2, 415759, Control_c, 0, 64, 47
2, 415781, Control_c, 0, 64, 57
2, 415799, Control_c, 0, 64, 63
2, 415816, Control_c, 0, 64, 67
2, 415839, Control_c, 0, 64, 72
2, 415859, Control_c, 0, 64, 83
2, 415859, Note_on_c, 0, 56, 0
2, 415876, Control_c, 0, 64, 104
2, 415894, Control_c, 0, 64, 127
2, 415900, Note_on_c, 0, 51, 0
2, 416130, Note_on_c, 0, 49, 71
2, 416528, Control_c, 0, 64, 91
2, 416531, Note_on_c, 0, 47, 67
2, 416535, Note_on_c, 0, 73, 89
2, 416545, Note_on_c, 0, 49, 0
2, 416550, Control_c, 0, 64, 69
2, 416568, Control_c, 0, 64, 58
2, 416585, Note_on_c, 0, 76, 0
2, 416588, Control_c, 0, 64, 47
2, 416604, Control_c, 0, 64, 40
2, 416625, Control_c, 0, 64, 39
2, 416643, Control_c, 0, 64, 41
2, 416664, Control_c, 0, 64, 48
2, 416683, Control_c, 0, 64, 56
2, 416703, Control_c, 0, 64, 60
2, 416721, Control_c, 0, 64, 62
2, 416761, Control_c, 0, 64, 63
2, 416778, Control_c, 0, 64, 64
2, 416796, Control_c, 0, 64, 65
2, 416833, Control_c, 0, 64, 66
2, 416854, Control_c, 0, 64, 64
2, 416875, Control_c, 0, 64, 61
2, 416892, Control_c, 0, 64, 56
2, 416910, Control_c, 0, 64, 49
2, 416930, Control_c, 0, 64, 42
2, 416943, Note_on_c, 0, 46, 68
2, 416943, Note_on_c, 0, 47, 0
2, 416950, Control_c, 0, 64, 39
2, 416969, Control_c, 0, 64, 40
2, 416987, Control_c, 0, 64, 46
2, 417009, Control_c, 0, 64, 54
2, 417027, Control_c, 0, 64, 61
2, 417047, Control_c, 0, 64, 65
2, 417067, Control_c, 0, 64, 67
2, 417085, Control_c, 0, 64, 70
2, 417105, Control_c, 0, 64, 77
2, 417123, Control_c, 0, 64, 84
2, 417142, Control_c, 0, 64, 93
2, 417162, Control_c, 0, 64, 99
2, 417183, Control_c, 0, 64, 100
2, 417234, Note_on_c, 0, 46, 0
2, 417259, Control_c, 0, 64, 99
2, 417276, Control_c, 0, 64, 97
2, 417296, Control_c, 0, 64, 93
2, 417314, Control_c, 0, 64, 86
2, 417335, Control_c, 0, 64, 78
2, 417348, Note_on_c, 0, 47, 56
2, 417348, Note_on_c, 0, 66, 59
2, 417352, Control_c, 0, 64, 70
2, 417373, Control_c, 0, 64, 63
2, 417393, Control_c, 0, 64, 58
2, 417410, Control_c, 0, 64, 55
2, 417430, Control_c, 0, 64, 53
2, 417448, Control_c, 0, 64, 52
2, 417470, Control_c, 0, 64, 51
2, 417489, Control_c, 0, 64, 50
2, 417509, Control_c, 0, 64, 48
2, 417528, Control_c, 0, 64, 46
2, 417546, Control_c, 0, 64, 44
2, 417660, Control_c, 0, 64, 43
2, 417756, Control_c, 0, 64, 44
2, 417769, Note_on_c, 0, 74, 75
2, 417771, Note_on_c, 0, 73, 0
2, 417780, Control_c, 0, 64, 47
2, 417798, Control_c, 0, 64, 55
2, 417817, Control_c, 0, 64, 61
2, 417835, Control_c, 0, 64, 65
2, 417854, Control_c, 0, 64, 69
2, 417872, Control_c, 0, 64, 78
2, 417893, Control_c, 0, 64, 92
2, 417911, Control_c, 0, 64, 116
2, 417930, Control_c, 0, 64, 127
2, 418117, Note_on_c, 0, 47, 0
2, 418142, Control_c, 0, 64, 112
2, 418151, Note_on_c, 0, 74, 0
2, 418162, Control_c, 0, 64, 101
2, 418165, Note_on_c, 0, 75, 74
2, 418169, Note_on_c, 0, 59, 54
2, 418180, Control_c, 0, 64, 90
2, 418198, Control_c, 0, 64, 80
2, 418218, Control_c, 0, 64, 70
2, 418236, Control_c, 0, 64, 64
2, 418256, Control_c, 0, 64, 61
2, 418275, Control_c, 0, 64, 58
2, 418294, Control_c, 0, 64, 57
2, 418314, Control_c, 0, 64, 54
2, 418333, Control_c, 0, 64, 51
2, 418353, Control_c, 0, 64, 47
2, 418371, Control_c, 0, 64, 44
2, 418393, Control_c, 0, 64, 42
2, 418410, Control_c, 0, 64, 41
2, 418429, Control_c, 0, 64, 39
2, 418447, Control_c, 0, 64, 38
2, 418468, Control_c, 0, 64, 35
2, 418488, Control_c, 0, 64, 32
2, 418506, Control_c, 0, 64, 31
2, 418540, Note_on_c, 0, 59, 0
2, 418564, Control_c, 0, 64, 33
2, 418583, Control_c, 0, 64, 38
2, 418588, Note_on_c, 0, 58, 52
2, 418603, Control_c, 0, 64, 47
2, 418622, Control_c, 0, 64, 57
2, 418641, Control_c, 0, 64, 61
2, 418659, Control_c, 0, 64, 63
2, 418677, Control_c, 0, 64, 64
2, 418697, Control_c, 0, 64, 66
2, 418717, Control_c, 0, 64, 68
2, 418736, Control_c, 0, 64, 72
2, 418755, Control_c, 0, 64, 79
2, 418777, Control_c, 0, 64, 85
2, 418794, Control_c, 0, 64, 91
2, 418812, Control_c, 0, 64, 92
2, 418870, Control_c, 0, 64, 91
2, 418890, Control_c, 0, 64, 90
2, 418910, Control_c, 0, 64, 84
2, 418925, Note_on_c, 0, 58, 0
2, 418931, Control_c, 0, 64, 74
2, 418947, Control_c, 0, 64, 64
2, 418966, Control_c, 0, 64, 57
2, 418976, Note_on_c, 0, 66, 0
2, 418985, Control_c, 0, 64, 54
2, 418998, Note_on_c, 0, 56, 35
2, 419001, Note_on_c, 0, 71, 61
2, 419018, Note_on_c, 0, 75, 0
2, 419024, Control_c, 0, 64, 57
2, 419042, Control_c, 0, 64, 60
2, 419062, Control_c, 0, 64, 62
2, 419082, Control_c, 0, 64, 64
2, 419101, Control_c, 0, 64, 67
2, 419121, Control_c, 0, 64, 70
2, 419140, Control_c, 0, 64, 75
2, 419158, Control_c, 0, 64, 82
2, 419177, Control_c, 0, 64, 93
2, 419196, Control_c, 0, 64, 101
2, 419216, Control_c, 0, 64, 102
2, 419274, Control_c, 0, 64, 101
2, 419296, Control_c, 0, 64, 96
2, 419313, Control_c, 0, 64, 83
2, 419334, Control_c, 0, 64, 70
2, 419351, Control_c, 0, 64, 62
2, 419371, Control_c, 0, 64, 56
2, 419375, Note_on_c, 0, 56, 0
2, 419389, Control_c, 0, 64, 55
2, 419399, Note_on_c, 0, 58, 42
2, 419403, Note_on_c, 0, 78, 58
2, 419408, Control_c, 0, 64, 57
2, 419417, Note_on_c, 0, 70, 50
2, 419427, Control_c, 0, 64, 59
2, 419447, Control_c, 0, 64, 63
2, 419466, Control_c, 0, 64, 65
2, 419485, Control_c, 0, 64, 67
2, 419505, Control_c, 0, 64, 72
2, 419525, Control_c, 0, 64, 78
2, 419543, Control_c, 0, 64, 87
2, 419563, Control_c, 0, 64, 101
2, 419574, Note_on_c, 0, 78, 0
2, 419581, Control_c, 0, 64, 127
2, 419585, Note_on_c, 0, 70, 0
2, 419735, Control_c, 0, 64, 97
2, 419753, Control_c, 0, 64, 77
2, 419764, Note_on_c, 0, 58, 0
2, 419773, Control_c, 0, 64, 65
2, 419794, Control_c, 0, 64, 58
2, 419798, Note_on_c, 0, 77, 64
2, 419811, Control_c, 0, 64, 56
2, 419818, Note_on_c, 0, 59, 39
2, 419818, Note_on_c, 0, 68, 49
2, 419830, Control_c, 0, 64, 57
2, 419849, Control_c, 0, 64, 60
2, 419870, Control_c, 0, 64, 63
2, 419883, Note_on_c, 0, 71, 0
2, 419889, Control_c, 0, 64, 65
2, 419907, Control_c, 0, 64, 68
2, 419927, Control_c, 0, 64, 73
2, 419945, Control_c, 0, 64, 79
2, 419956, Note_on_c, 0, 68, 0
2, 419965, Control_c, 0, 64, 88
2, 419984, Control_c, 0, 64, 101
2, 420004, Control_c, 0, 64, 127
2, 420101, Control_c, 0, 64, 105
2, 420119, Control_c, 0, 64, 84
2, 420138, Control_c, 0, 64, 66
2, 420160, Control_c, 0, 64, 57
2, 420160, Note_on_c, 0, 77, 0
2, 420163, Note_on_c, 0, 59, 0
2, 420175, Control_c, 0, 64, 52
2, 420196, Control_c, 0, 64, 54
2, 420205, Note_on_c, 0, 75, 59
2, 420216, Control_c, 0, 64, 58
2, 420220, Note_on_c, 0, 66, 45
2, 420223, Note_on_c, 0, 56, 39
2, 420233, Control_c, 0, 64, 62
2, 420251, Control_c, 0, 64, 66
2, 420272, Control_c, 0, 64, 72
2, 420294, Control_c, 0, 64, 83
2, 420311, Control_c, 0, 64, 101
2, 420315, Note_on_c, 0, 66, 0
2, 420329, Control_c, 0, 64, 127
2, 420345, Note_on_c, 0, 56, 0
2, 420562, Control_c, 0, 64, 113
2, 420581, Control_c, 0, 64, 95
2, 420599, Control_c, 0, 64, 81
2, 420611, Note_on_c, 0, 75, 0
2, 420620, Control_c, 0, 64, 70
2, 420620, Note_on_c, 0, 65, 44
2, 420628, Note_on_c, 0, 74, 59
2, 420639, Control_c, 0, 64, 64
2, 420639, Note_on_c, 0, 58, 28
2, 420657, Control_c, 0, 64, 59
2, 420677, Control_c, 0, 64, 57
2, 420695, Control_c, 0, 64, 56
2, 420712, Control_c, 0, 64, 55
2, 420734, Control_c, 0, 64, 54
2, 420753, Control_c, 0, 64, 53
2, 420770, Control_c, 0, 64, 51
2, 420790, Control_c, 0, 64, 50
2, 420984, Note_on_c, 0, 65, 0
2, 420995, Note_on_c, 0, 74, 0
2, 421025, Note_on_c, 0, 63, 50
2, 421030, Note_on_c, 0, 77, 68
2, 421363, Note_on_c, 0, 63, 0
2, 421409, Note_on_c, 0, 58, 0
2, 421411, Note_on_c, 0, 77, 0
2, 421431, Note_on_c, 0, 82, 66
2, 421439, Note_on_c, 0, 62, 43
2, 421750, Control_c, 0, 64, 51
2, 421769, Control_c, 0, 64, 53
2, 421791, Control_c, 0, 64, 57
2, 421791, Note_on_c, 0, 62, 0
2, 421808, Control_c, 0, 64, 60
2, 421827, Control_c, 0, 64, 62
2, 421851, Control_c, 0, 64, 64
2, 421851, Note_on_c, 0, 65, 42
2, 421869, Control_c, 0, 64, 66
2, 421869, Note_on_c, 0, 56, 32
2, 421885, Control_c, 0, 64, 69
2, 421905, Control_c, 0, 64, 76
2, 421923, Control_c, 0, 64, 90
2, 421943, Control_c, 0, 64, 115
2, 421959, Note_on_c, 0, 56, 0
2, 421963, Control_c, 0, 64, 127
2, 422153, Control_c, 0, 64, 106
2, 422175, Control_c, 0, 64, 81
2, 422191, Control_c, 0, 64, 64
2, 422211, Control_c, 0, 64, 56
2, 422218, Note_on_c, 0, 65, 0
2, 422229, Control_c, 0, 64, 55
2, 422242, Note_on_c, 0, 58, 52
2, 422249, Note_on_c, 0, 54, 45
2, 422254, Control_c, 0, 64, 57
2, 422270, Control_c, 0, 64, 60
2, 422289, Control_c, 0, 64, 63
2, 422309, Control_c, 0, 64, 66
2, 422326, Control_c, 0, 64, 73
2, 422346, Control_c, 0, 64, 87
2, 422363, Control_c, 0, 64, 127
2, 422413, Note_on_c, 0, 54, 0
2, 422419, Note_on_c, 0, 58, 0
2, 422636, Control_c, 0, 64, 98
2, 422640, Note_on_c, 0, 83, 84
2, 422654, Note_on_c, 0, 68, 64
2, 422656, Control_c, 0, 64, 72
2, 422656, Note_on_c, 0, 82, 0
2, 422670, Note_on_c, 0, 56, 51
2, 422674, Control_c, 0, 64, 60
2, 422692, Control_c, 0, 64, 54
2, 422711, Control_c, 0, 64, 55
2, 422730, Control_c, 0, 64, 59
2, 422750, Control_c, 0, 64, 64
2, 422771, Control_c, 0, 64, 68
2, 422787, Control_c, 0, 64, 78
2, 422805, Control_c, 0, 64, 95
2, 422825, Control_c, 0, 64, 127
2, 422852, Note_on_c, 0, 56, 0
2, 422863, Note_on_c, 0, 68, 0
2, 423035, Control_c, 0, 64, 93
2, 423056, Note_on_c, 0, 66, 54
2, 423060, Control_c, 0, 64, 76
2, 423069, Note_on_c, 0, 82, 77
2, 423076, Control_c, 0, 64, 65
2, 423078, Note_on_c, 0, 83, 0
2, 423090, Note_on_c, 0, 58, 41
2, 423094, Control_c, 0, 64, 58
2, 423112, Control_c, 0, 64, 54
2, 423171, Control_c, 0, 64, 53
2, 423191, Control_c, 0, 64, 52
2, 423213, Control_c, 0, 64, 50
2, 423230, Control_c, 0, 64, 48
2, 423248, Control_c, 0, 64, 47
2, 423308, Control_c, 0, 64, 46
2, 423402, Control_c, 0, 64, 48
2, 423420, Control_c, 0, 64, 53
2, 423437, Note_on_c, 0, 66, 0
2, 423441, Control_c, 0, 64, 60
2, 423461, Control_c, 0, 64, 63
2, 423461, Note_on_c, 0, 80, 82
2, 423470, Note_on_c, 0, 65, 53
2, 423478, Control_c, 0, 64, 66
2, 423496, Control_c, 0, 64, 70
2, 423517, Control_c, 0, 64, 78
2, 423521, Note_on_c, 0, 82, 0
2, 423537, Control_c, 0, 64, 90
2, 423548, Note_on_c, 0, 65, 0
2, 423557, Control_c, 0, 64, 127
2, 423583, Note_on_c, 0, 58, 0
2, 423826, Control_c, 0, 64, 109
2, 423841, Control_c, 0, 64, 86
2, 423852, Note_on_c, 0, 51, 49
2, 423863, Control_c, 0, 64, 72
2, 423879, Note_on_c, 0, 78, 84
2, 423883, Control_c, 0, 64, 64
2, 423892, Note_on_c, 0, 63, 45
2, 423901, Control_c, 0, 64, 58
2, 423919, Control_c, 0, 64, 55
2, 423930, Note_on_c, 0, 80, 0
2, 423939, Control_c, 0, 64, 54
2, 423957, Control_c, 0, 64, 53
2, 423997, Control_c, 0, 64, 51
2, 424017, Control_c, 0, 64, 49
2, 424035, Control_c, 0, 64, 46
2, 424057, Control_c, 0, 64, 45
2, 424130, Control_c, 0, 64, 44
2, 424170, Control_c, 0, 64, 43
2, 424235, Note_on_c, 0, 51, 0
2, 424246, Control_c, 0, 64, 46
2, 424267, Control_c, 0, 64, 52
2, 424278, Note_on_c, 0, 80, 81
2, 424284, Control_c, 0, 64, 58
2, 424284, Note_on_c, 0, 53, 45
2, 424304, Control_c, 0, 64, 62
2, 424326, Control_c, 0, 64, 65
2, 424326, Note_on_c, 0, 78, 0
2, 424341, Control_c, 0, 64, 69
2, 424363, Control_c, 0, 64, 76
2, 424380, Control_c, 0, 64, 85
2, 424400, Control_c, 0, 64, 102
2, 424418, Control_c, 0, 64, 127
2, 424426, Note_on_c, 0, 80, 0
2, 424593, Control_c, 0, 64, 118
2, 424611, Control_c, 0, 64, 95
2, 424631, Control_c, 0, 64, 79
2, 424648, Control_c, 0, 64, 68
2, 424668, Control_c, 0, 64, 60
2, 424673, Note_on_c, 0, 53, 0
2, 424689, Control_c, 0, 64, 55
2, 424694, Note_on_c, 0, 75, 67
2, 424694, Note_on_c, 0, 82, 62
2, 424706, Control_c, 0, 64, 53
2, 424719, Note_on_c, 0, 55, 36
2, 424746, Control_c, 0, 64, 52
2, 424766, Control_c, 0, 64, 50
2, 424786, Control_c, 0, 64, 48
2, 424802, Control_c, 0, 64, 46
2, 424821, Control_c, 0, 64, 45
2, 425036, Control_c, 0, 64, 46
2, 425053, Control_c, 0, 64, 49
2, 425071, Control_c, 0, 64, 53
2, 425092, Control_c, 0, 64, 60
2, 425092, Note_on_c, 0, 75, 0
2, 425105, Note_on_c, 0, 73, 79
2, 425113, Control_c, 0, 64, 64
2, 425131, Control_c, 0, 64, 68
2, 425149, Control_c, 0, 64, 76
2, 425169, Control_c, 0, 64, 93
2, 425187, Control_c, 0, 64, 127
2, 425195, Note_on_c, 0, 82, 0
2, 425260, Note_on_c, 0, 73, 0
2, 425440, Note_on_c, 0, 63, 0
2, 425475, Control_c, 0, 64, 103
2, 425494, Control_c, 0, 64, 74
2, 425516, Note_on_c, 0, 75, 78
2, 425520, Control_c, 0, 64, 63
2, 425520, Note_on_c, 0, 55, 0
2, 425520, Note_on_c, 0, 71, 75
2, 425534, Control_c, 0, 64, 56
2, 425538, Note_on_c, 0, 56, 51
2, 425551, Control_c, 0, 64, 54
2, 425628, Control_c, 0, 64, 52
2, 425647, Control_c, 0, 64, 51
2, 425667, Control_c, 0, 64, 50
2, 425881, Control_c, 0, 64, 51
2, 425899, Control_c, 0, 64, 52
2, 425917, Control_c, 0, 64, 57
2, 425932, Note_on_c, 0, 70, 73
2, 425937, Note_on_c, 0, 56, 0
2, 425939, Control_c, 0, 64, 62
2, 425954, Control_c, 0, 64, 65
2, 425954, Note_on_c, 0, 54, 53
2, 425958, Note_on_c, 0, 71, 0
2, 425975, Control_c, 0, 64, 70
2, 425997, Control_c, 0, 64, 82
2, 426013, Control_c, 0, 64, 109
2, 426030, Control_c, 0, 64, 127
2, 426037, Note_on_c, 0, 70, 0
2, 426291, Note_on_c, 0, 75, 0
2, 426320, Control_c, 0, 64, 101
2, 426328, Note_on_c, 0, 54, 0
2, 426332, Note_on_c, 0, 80, 88
2, 426341, Control_c, 0, 64, 78
2, 426341, Note_on_c, 0, 68, 85
2, 426359, Control_c, 0, 64, 65
2, 426359, Note_on_c, 0, 53, 57
2, 426376, Control_c, 0, 64, 58
2, 426396, Control_c, 0, 64, 55
2, 426416, Control_c, 0, 64, 54
2, 426472, Control_c, 0, 64, 52
2, 426494, Control_c, 0, 64, 51
2, 426511, Control_c, 0, 64, 49
2, 426723, Control_c, 0, 64, 51
2, 426737, Note_on_c, 0, 53, 0
2, 426743, Control_c, 0, 64, 55
2, 426750, Note_on_c, 0, 71, 75
2, 426761, Control_c, 0, 64, 60
2, 426772, Note_on_c, 0, 51, 59
2, 426783, Control_c, 0, 64, 63
2, 426787, Note_on_c, 0, 68, 0
2, 426800, Control_c, 0, 64, 66
2, 426819, Control_c, 0, 64, 71
2, 426837, Control_c, 0, 64, 81
2, 426857, Control_c, 0, 64, 97
2, 426879, Control_c, 0, 64, 127
2, 426913, Note_on_c, 0, 51, 0
2, 426941, Note_on_c, 0, 50, 41
2, 427031, Note_on_c, 0, 50, 0
2, 427145, Control_c, 0, 64, 94
2, 427152, Note_on_c, 0, 70, 83
2, 427167, Control_c, 0, 64, 71
2, 427176, Note_on_c, 0, 50, 63
2, 427182, Note_on_c, 0, 71, 0
2, 427183, Control_c, 0, 64, 59
2, 427205, Control_c, 0, 64, 49
2, 427222, Control_c, 0, 64, 43
2, 427242, Control_c, 0, 64, 42
2, 427260, Control_c, 0, 64, 44
2, 427278, Control_c, 0, 64, 49
2, 427300, Control_c, 0, 64, 57
2, 427318, Control_c, 0, 64, 62
2, 427337, Control_c, 0, 64, 64
2, 427356, Control_c, 0, 64, 67
2, 427377, Control_c, 0, 64, 72
2, 427386, Note_on_c, 0, 80, 0
2, 427395, Control_c, 0, 64, 78
2, 427416, Control_c, 0, 64, 86
2, 427433, Control_c, 0, 64, 95
2, 427455, Control_c, 0, 64, 101
2, 427471, Control_c, 0, 64, 102
2, 427491, Control_c, 0, 64, 103
2, 427509, Note_on_c, 0, 50, 0
2, 427511, Control_c, 0, 64, 105
2, 427529, Control_c, 0, 64, 109
2, 427550, Control_c, 0, 64, 127
2, 427550, Note_on_c, 0, 78, 90
2, 427557, Note_on_c, 0, 75, 79
2, 427563, Note_on_c, 0, 51, 56
2, 427592, Note_on_c, 0, 70, 0
2, 427855, Note_on_c, 0, 78, 0
2, 427935, Note_on_c, 0, 51, 0
2, 427952, Control_c, 0, 64, 115
2, 427961, Note_on_c, 0, 46, 53
2, 427973, Control_c, 0, 64, 81
2, 427978, Note_on_c, 0, 77, 94
2, 427991, Control_c, 0, 64, 66
2, 428011, Control_c, 0, 64, 57
2, 428030, Control_c, 0, 64, 51
2, 428048, Control_c, 0, 64, 49
2, 428088, Control_c, 0, 64, 48
2, 428125, Control_c, 0, 64, 45
2, 428143, Control_c, 0, 64, 43
2, 428163, Control_c, 0, 64, 42
2, 428222, Control_c, 0, 64, 44
2, 428240, Control_c, 0, 64, 45
2, 428259, Control_c, 0, 64, 48
2, 428277, Control_c, 0, 64, 51
2, 428300, Control_c, 0, 64, 55
2, 428315, Control_c, 0, 64, 58
2, 428336, Control_c, 0, 64, 60
2, 428355, Control_c, 0, 64, 62
2, 428374, Control_c, 0, 64, 63
2, 428394, Control_c, 0, 64, 65
2, 428414, Control_c, 0, 64, 68
2, 428431, Control_c, 0, 64, 72
2, 428440, Note_on_c, 0, 73, 95
2, 428451, Control_c, 0, 64, 81
2, 428461, Note_on_c, 0, 58, 59
2, 428472, Control_c, 0, 64, 93
2, 428486, Note_on_c, 0, 75, 0
2, 428490, Control_c, 0, 64, 115
2, 428508, Control_c, 0, 64, 127
2, 428684, Note_on_c, 0, 46, 0
2, 428762, Note_on_c, 0, 58, 0
2, 428930, Control_c, 0, 64, 109
2, 428953, Control_c, 0, 64, 81
2, 428971, Control_c, 0, 64, 67
2, 428971, Note_on_c, 0, 75, 90
2, 428987, Control_c, 0, 64, 59
2, 428991, Note_on_c, 0, 59, 48
2, 428999, Note_on_c, 0, 77, 0
2, 429010, Control_c, 0, 64, 53
2, 429026, Control_c, 0, 64, 51
2, 429046, Control_c, 0, 64, 52
2, 429064, Control_c, 0, 64, 55
2, 429083, Control_c, 0, 64, 60
2, 429103, Control_c, 0, 64, 63
2, 429123, Control_c, 0, 64, 65
2, 429142, Control_c, 0, 64, 67
2, 429160, Control_c, 0, 64, 71
2, 429180, Control_c, 0, 64, 78
2, 429200, Control_c, 0, 64, 87
2, 429222, Control_c, 0, 64, 110
2, 429238, Control_c, 0, 64, 127
2, 429422, Note_on_c, 0, 73, 0
2, 429430, Control_c, 0, 64, 92
2, 429439, Note_on_c, 0, 71, 83
2, 429453, Control_c, 0, 64, 72
2, 429453, Note_on_c, 0, 51, 56
2, 429458, Note_on_c, 0, 59, 0
2, 429470, Control_c, 0, 64, 62
2, 429491, Control_c, 0, 64, 54
2, 429506, Control_c, 0, 64, 53
2, 429526, Control_c, 0, 64, 54
2, 429548, Control_c, 0, 64, 57
2, 429564, Control_c, 0, 64, 60
2, 429583, Control_c, 0, 64, 63
2, 429602, Control_c, 0, 64, 65
2, 429621, Control_c, 0, 64, 70
2, 429641, Control_c, 0, 64, 77
2, 429661, Control_c, 0, 64, 91
2, 429679, Control_c, 0, 64, 127
2, 429778, Note_on_c, 0, 51, 0
2, 429822, Note_on_c, 0, 73, 82
2, 429833, Note_on_c, 0, 53, 55
2, 429837, Control_c, 0, 64, 95
2, 429853, Control_c, 0, 64, 72
2, 429862, Note_on_c, 0, 75, 0
2, 429871, Control_c, 0, 64, 61
2, 429890, Control_c, 0, 64, 53
2, 429911, Control_c, 0, 64, 52
2, 429931, Control_c, 0, 64, 54
2, 429949, Control_c, 0, 64, 57
2, 429968, Control_c, 0, 64, 61
2, 429986, Control_c, 0, 64, 63
2, 430006, Control_c, 0, 64, 65
2, 430024, Control_c, 0, 64, 68
2, 430044, Control_c, 0, 64, 74
2, 430066, Control_c, 0, 64, 84
2, 430083, Control_c, 0, 64, 100
2, 430102, Control_c, 0, 64, 127
2, 430181, Control_c, 0, 64, 107
2, 430181, Note_on_c, 0, 53, 0
2, 430198, Control_c, 0, 64, 86
2, 430208, Note_on_c, 0, 70, 71
2, 430218, Control_c, 0, 64, 70
2, 430223, Note_on_c, 0, 55, 50
2, 430224, Note_on_c, 0, 71, 0
2, 430237, Control_c, 0, 64, 60
2, 430255, Control_c, 0, 64, 54
2, 430294, Control_c, 0, 64, 55
2, 430316, Control_c, 0, 64, 59
2, 430333, Control_c, 0, 64, 62
2, 430352, Control_c, 0, 64, 64
2, 430374, Control_c, 0, 64, 66
2, 430390, Control_c, 0, 64, 69
2, 430412, Control_c, 0, 64, 74
2, 430429, Control_c, 0, 64, 81
2, 430451, Control_c, 0, 64, 88
2, 430467, Control_c, 0, 64, 95
2, 430504, Control_c, 0, 64, 92
2, 430524, Control_c, 0, 64, 85
2, 430544, Control_c, 0, 64, 74
2, 430565, Control_c, 0, 64, 64
2, 430569, Note_on_c, 0, 55, 0
2, 430584, Control_c, 0, 64, 56
2, 430584, Note_on_c, 0, 71, 71
2, 430602, Control_c, 0, 64, 53
2, 430606, Note_on_c, 0, 56, 43
2, 430631, Note_on_c, 0, 73, 0
2, 430640, Control_c, 0, 64, 55
2, 430658, Control_c, 0, 64, 58
2, 430677, Control_c, 0, 64, 61
2, 430697, Control_c, 0, 64, 64
2, 430717, Control_c, 0, 64, 66
2, 430735, Control_c, 0, 64, 71
2, 430755, Control_c, 0, 64, 78
2, 430775, Control_c, 0, 64, 87
2, 430793, Control_c, 0, 64, 98
2, 430813, Control_c, 0, 64, 109
2, 430831, Control_c, 0, 64, 115
2, 430870, Control_c, 0, 64, 112
2, 430888, Control_c, 0, 64, 107
2, 430907, Control_c, 0, 64, 97
2, 430930, Control_c, 0, 64, 81
2, 430949, Control_c, 0, 64, 67
2, 430949, Note_on_c, 0, 56, 0
2, 430955, Note_on_c, 0, 70, 0
2, 430968, Control_c, 0, 64, 58
2, 430988, Control_c, 0, 64, 53
2, 430988, Note_on_c, 0, 68, 78
2, 431015, Note_on_c, 0, 53, 44
2, 431023, Control_c, 0, 64, 55
2, 431043, Control_c, 0, 64, 59
2, 431061, Control_c, 0, 64, 62
2, 431083, Control_c, 0, 64, 64
2, 431101, Control_c, 0, 64, 65
2, 431118, Control_c, 0, 64, 68
2, 431141, Control_c, 0, 64, 72
2, 431160, Control_c, 0, 64, 79
2, 431178, Control_c, 0, 64, 88
2, 431198, Control_c, 0, 64, 99
2, 431215, Control_c, 0, 64, 106
2, 431234, Control_c, 0, 64, 107
2, 431252, Control_c, 0, 64, 106
2, 431272, Control_c, 0, 64, 102
2, 431291, Control_c, 0, 64, 94
2, 431313, Control_c, 0, 64, 81
2, 431329, Control_c, 0, 64, 67
2, 431338, Note_on_c, 0, 71, 0
2, 431349, Control_c, 0, 64, 59
2, 431360, Note_on_c, 0, 53, 0
2, 431373, Control_c, 0, 64, 53
2, 431373, Note_on_c, 0, 70, 65
2, 431385, Note_on_c, 0, 50, 44
2, 431408, Control_c, 0, 64, 56
2, 431428, Control_c, 0, 64, 60
2, 431449, Control_c, 0, 64, 63
2, 431464, Control_c, 0, 64, 66
2, 431484, Control_c, 0, 64, 69
2, 431507, Control_c, 0, 64, 74
2, 431523, Control_c, 0, 64, 79
2, 431542, Control_c, 0, 64, 88
2, 431562, Control_c, 0, 64, 103
2, 431573, Note_on_c, 0, 68, 0
2, 431582, Control_c, 0, 64, 122
2, 431601, Control_c, 0, 64, 127
2, 431695, Control_c, 0, 64, 112
2, 431714, Control_c, 0, 64, 92
2, 431734, Note_on_c, 0, 50, 0
2, 431738, Control_c, 0, 64, 74
2, 431756, Control_c, 0, 64, 62
2, 431756, Note_on_c, 0, 66, 67
2, 431774, Control_c, 0, 64, 53
2, 431779, Note_on_c, 0, 51, 45
2, 431790, Control_c, 0, 64, 50
2, 431831, Control_c, 0, 64, 53
2, 431849, Control_c, 0, 64, 57
2, 431868, Control_c, 0, 64, 60
2, 431889, Control_c, 0, 64, 62
2, 431907, Control_c, 0, 64, 63
2, 431927, Control_c, 0, 64, 65
2, 431947, Control_c, 0, 64, 69
2, 431964, Control_c, 0, 64, 77
2, 431986, Control_c, 0, 64, 86
2, 432002, Control_c, 0, 64, 97
2, 432022, Control_c, 0, 64, 101
2, 432044, Control_c, 0, 64, 100
2, 432060, Control_c, 0, 64, 96
2, 432081, Control_c, 0, 64, 91
2, 432100, Control_c, 0, 64, 81
2, 432122, Control_c, 0, 64, 68
2, 432138, Control_c, 0, 64, 60
2, 432156, Control_c, 0, 64, 55
2, 432160, Note_on_c, 0, 68, 62
2, 432171, Note_on_c, 0, 51, 0
2, 432172, Note_on_c, 0, 48, 35
2, 432177, Control_c, 0, 64, 54
2, 432186, Note_on_c, 0, 70, 0
2, 432198, Control_c, 0, 64, 56
2, 432214, Control_c, 0, 64, 59
2, 432232, Control_c, 0, 64, 62
2, 432252, Control_c, 0, 64, 65
2, 432274, Control_c, 0, 64, 68
2, 432291, Control_c, 0, 64, 72
2, 432310, Control_c, 0, 64, 77
2, 432331, Control_c, 0, 64, 84
2, 432351, Control_c, 0, 64, 93
2, 432367, Control_c, 0, 64, 102
2, 432390, Control_c, 0, 64, 108
2, 432401, Note_on_c, 0, 66, 0
2, 432446, Control_c, 0, 64, 106
2, 432464, Control_c, 0, 64, 103
2, 432482, Control_c, 0, 64, 96
2, 432501, Control_c, 0, 64, 85
2, 432524, Control_c, 0, 64, 70
2, 432524, Note_on_c, 0, 48, 0
2, 432541, Control_c, 0, 64, 61
2, 432553, Note_on_c, 0, 65, 56
2, 432560, Control_c, 0, 64, 55
2, 432570, Note_on_c, 0, 50, 39
2, 432578, Control_c, 0, 64, 54
2, 432620, Control_c, 0, 64, 55
2, 432638, Control_c, 0, 64, 56
2, 432658, Control_c, 0, 64, 59
2, 432677, Control_c, 0, 64, 61
2, 432695, Control_c, 0, 64, 63
2, 432713, Control_c, 0, 64, 65
2, 432733, Control_c, 0, 64, 67
2, 432752, Control_c, 0, 64, 70
2, 432771, Control_c, 0, 64, 73
2, 432791, Control_c, 0, 64, 75
2, 432812, Control_c, 0, 64, 76
2, 432848, Control_c, 0, 64, 75
2, 432868, Control_c, 0, 64, 74
2, 432885, Control_c, 0, 64, 72
2, 432905, Control_c, 0, 64, 69
2, 432909, Note_on_c, 0, 68, 0
2, 432916, Note_on_c, 0, 50, 0
2, 432926, Control_c, 0, 64, 64
2, 432940, Note_on_c, 0, 66, 52
2, 432945, Control_c, 0, 64, 60
2, 432959, Note_on_c, 0, 51, 42
2, 432962, Control_c, 0, 64, 58
2, 432983, Control_c, 0, 64, 56
2, 433003, Control_c, 0, 64, 55
2, 433020, Control_c, 0, 64, 53
2, 433040, Control_c, 0, 64, 52
2, 433058, Control_c, 0, 64, 51
2, 433080, Control_c, 0, 64, 50
2, 433096, Control_c, 0, 64, 49
2, 433155, Control_c, 0, 64, 48
2, 433174, Control_c, 0, 64, 47
2, 433194, Control_c, 0, 64, 46
2, 433212, Control_c, 0, 64, 45
2, 433232, Control_c, 0, 64, 44
2, 433347, Control_c, 0, 64, 46
2, 433366, Control_c, 0, 64, 50
2, 433371, Note_on_c, 0, 39, 37
2, 433382, Note_on_c, 0, 63, 46
2, 433386, Control_c, 0, 64, 56
2, 433397, Note_on_c, 0, 51, 0
2, 433397, Note_on_c, 0, 65, 0
2, 433406, Control_c, 0, 64, 61
2, 433424, Control_c, 0, 64, 64
2, 433445, Control_c, 0, 64, 67
2, 433461, Control_c, 0, 64, 73
2, 433482, Control_c, 0, 64, 84
2, 433499, Control_c, 0, 64, 99
2, 433519, Control_c, 0, 64, 127
2, 433537, Note_on_c, 0, 63, 0
2, 433602, Note_on_c, 0, 39, 0
2, 433661, Note_on_c, 0, 66, 0
2, 433712, Control_c, 0, 64, 122
2, 433732, Control_c, 0, 64, 104
2, 433750, Control_c, 0, 64, 92
2, 433770, Control_c, 0, 64, 81
2, 433792, Control_c, 0, 64, 70
2, 433807, Control_c, 0, 64, 61
2, 433829, Control_c, 0, 64, 54
2, 433847, Control_c, 0, 64, 51
2, 433858, Note_on_c, 0, 65, 41
2, 433862, Note_on_c, 0, 62, 38
2, 433880, Note_on_c, 0, 46, 36
2, 433925, Control_c, 0, 64, 53
2, 433943, Control_c, 0, 64, 55
2, 433962, Control_c, 0, 64, 59
2, 433979, Control_c, 0, 64, 62
2, 433999, Control_c, 0, 64, 65
2, 434019, Control_c, 0, 64, 68
2, 434024, Note_on_c, 0, 65, 0
2, 434040, Control_c, 0, 64, 73
2, 434058, Control_c, 0, 64, 77
2, 434077, Control_c, 0, 64, 81
2, 434097, Control_c, 0, 64, 85
2, 434116, Control_c, 0, 64, 89
2, 434136, Control_c, 0, 64, 92
2, 434155, Control_c, 0, 64, 93
2, 434235, Note_on_c, 0, 62, 0
2, 434251, Control_c, 0, 64, 92
2, 434251, Note_on_c, 0, 46, 0
2, 434269, Control_c, 0, 64, 91
2, 434269, Note_on_c, 0, 65, 48
2, 434287, Control_c, 0, 64, 90
2, 434306, Control_c, 0, 64, 88
2, 434326, Control_c, 0, 64, 87
2, 434363, Control_c, 0, 64, 86
2, 434382, Control_c, 0, 64, 85
2, 434482, Control_c, 0, 64, 84
2, 434500, Control_c, 0, 64, 82
2, 434517, Control_c, 0, 64, 78
2, 434537, Control_c, 0, 64, 70
2, 434556, Control_c, 0, 64, 63
2, 434576, Control_c, 0, 64, 56
2, 434595, Control_c, 0, 64, 48
2, 434611, Note_on_c, 0, 65, 0
2, 434615, Control_c, 0, 64, 39
2, 434632, Control_c, 0, 64, 26
2, 434652, Control_c, 0, 64, 11
2, 434663, Note_on_c, 0, 70, 63
2, 434671, Control_c, 0, 64, 0
2, 434713, Control_c, 0, 64, 10
2, 434732, Control_c, 0, 64, 25
2, 434748, Control_c, 0, 64, 39
2, 434766, Control_c, 0, 64, 53
2, 434786, Control_c, 0, 64, 61
2, 434806, Control_c, 0, 64, 64
2, 434827, Control_c, 0, 64, 68
2, 434844, Control_c, 0, 64, 75
2, 434859, Note_on_c, 0, 70, 0
2, 434868, Control_c, 0, 64, 90
2, 434883, Control_c, 0, 64, 122
2, 434903, Control_c, 0, 64, 127
2, 435146, Note_on_c, 0, 72, 38
2, 435497, Note_on_c, 0, 72, 0
2, 435516, Note_on_c, 0, 70, 48
2, 435521, Note_on_c, 0, 74, 49
2, 435537, Note_on_c, 0, 58, 51
2, 435868, Note_on_c, 0, 74, 0
2, 435902, Control_c, 0, 64, 111
2, 435907, Note_on_c, 0, 71, 62
2, 435920, Note_on_c, 0, 75, 54
2, 435924, Control_c, 0, 64, 98
2, 435938, Control_c, 0, 64, 88
2, 435952, Note_on_c, 0, 70, 0
2, 435959, Control_c, 0, 64, 77
2, 435977, Control_c, 0, 64, 70
2, 435996, Control_c, 0, 64, 64
2, 436016, Control_c, 0, 64, 61
2, 436034, Control_c, 0, 64, 59
2, 436052, Control_c, 0, 64, 57
2, 436073, Control_c, 0, 64, 55
2, 436094, Control_c, 0, 64, 51
2, 436115, Control_c, 0, 64, 46
2, 436130, Control_c, 0, 64, 41
2, 436148, Control_c, 0, 64, 36
2, 436170, Control_c, 0, 64, 30
2, 436188, Control_c, 0, 64, 23
2, 436210, Control_c, 0, 64, 16
2, 436228, Control_c, 0, 64, 0
2, 436248, Note_on_c, 0, 75, 0
2, 436298, Note_on_c, 0, 71, 0
2, 436324, Note_on_c, 0, 70, 54
2, 436324, Note_on_c, 0, 77, 49
2, 436592, Control_c, 0, 64, 28
2, 436612, Control_c, 0, 64, 45
2, 436629, Control_c, 0, 64, 56
2, 436649, Control_c, 0, 64, 61
2, 436668, Control_c, 0, 64, 63
2, 436688, Control_c, 0, 64, 65
2, 436697, Note_on_c, 0, 68, 51
2, 436706, Control_c, 0, 64, 70
2, 436728, Control_c, 0, 64, 78
2, 436740, Note_on_c, 0, 70, 0
2, 436749, Control_c, 0, 64, 93
2, 436765, Control_c, 0, 64, 127
2, 436788, Note_on_c, 0, 58, 0
2, 436911, Note_on_c, 0, 68, 0
2, 437071, Control_c, 0, 64, 108
2, 437091, Control_c, 0, 64, 90
2, 437110, Control_c, 0, 64, 76
2, 437123, Note_on_c, 0, 63, 54
2, 437131, Control_c, 0, 64, 66
2, 437136, Note_on_c, 0, 66, 51
2, 437148, Control_c, 0, 64, 59
2, 437168, Control_c, 0, 64, 55
2, 437187, Control_c, 0, 64, 54
2, 437207, Control_c, 0, 64, 53
2, 437245, Control_c, 0, 64, 52
2, 437263, Control_c, 0, 64, 50
2, 437283, Control_c, 0, 64, 48
2, 437301, Control_c, 0, 64, 47
2, 437419, Control_c, 0, 64, 46
2, 437452, Note_on_c, 0, 66, 0
2, 437505, Note_on_c, 0, 77, 0
2, 437514, Note_on_c, 0, 68, 46
2, 437514, Note_on_c, 0, 75, 56
2, 437552, Control_c, 0, 64, 45
2, 437701, Note_on_c, 0, 75, 0
2, 437744, Control_c, 0, 64, 44
2, 437749, Note_on_c, 0, 73, 50
2, 437783, Note_on_c, 0, 73, 0
2, 437807, Note_on_c, 0, 75, 46
2, 437816, Note_on_c, 0, 68, 0
2, 437820, Control_c, 0, 64, 43
2, 437850, Note_on_c, 0, 75, 0
2, 437863, Note_on_c, 0, 70, 40
2, 437868, Note_on_c, 0, 73, 63
2, 437900, Control_c, 0, 64, 42
2, 437976, Control_c, 0, 64, 41
2, 438031, Note_on_c, 0, 73, 0
2, 438063, Note_on_c, 0, 71, 52
2, 438072, Control_c, 0, 64, 40
2, 438167, Control_c, 0, 64, 39
2, 438220, Note_on_c, 0, 71, 0
2, 438240, Note_on_c, 0, 73, 56
2, 438257, Note_on_c, 0, 70, 0
2, 438282, Control_c, 0, 64, 38
2, 438377, Control_c, 0, 64, 37
2, 438397, Control_c, 0, 64, 36
2, 438413, Note_on_c, 0, 73, 0
2, 438431, Note_on_c, 0, 79, 60
2, 438436, Control_c, 0, 64, 35
2, 438472, Control_c, 0, 64, 34
2, 438512, Control_c, 0, 64, 33
2, 438530, Control_c, 0, 64, 32
2, 438565, Note_on_c, 0, 79, 0
2, 438569, Control_c, 0, 64, 31
2, 438627, Note_on_c, 0, 80, 54
2, 438683, Control_c, 0, 64, 30
2, 438793, Note_on_c, 0, 80, 0
2, 438813, Note_on_c, 0, 82, 60
2, 438972, Note_on_c, 0, 82, 0
2, 439013, Note_on_c, 0, 83, 56
2, 439410, Note_on_c, 0, 64, 60
2, 439419, Note_on_c, 0, 68, 46
2, 439441, Note_on_c, 0, 63, 0
2, 439702, Control_c, 0, 64, 32
2, 439722, Control_c, 0, 64, 36
2, 439740, Control_c, 0, 64, 44
2, 439759, Control_c, 0, 64, 52
2, 439777, Control_c, 0, 64, 59
2, 439798, Note_on_c, 0, 83, 0
2, 439802, Control_c, 0, 64, 61
2, 439816, Control_c, 0, 64, 63
2, 439825, Note_on_c, 0, 82, 48
2, 439835, Control_c, 0, 64, 64
2, 439855, Control_c, 0, 64, 66
2, 439875, Control_c, 0, 64, 68
2, 439894, Control_c, 0, 64, 71
2, 439911, Control_c, 0, 64, 74
2, 439931, Control_c, 0, 64, 77
2, 439995, Note_on_c, 0, 82, 0
2, 440027, Note_on_c, 0, 80, 47
2, 440086, Control_c, 0, 64, 75
2, 440108, Control_c, 0, 64, 73
2, 440126, Control_c, 0, 64, 71
2, 440143, Control_c, 0, 64, 67
2, 440163, Control_c, 0, 64, 65
2, 440176, Note_on_c, 0, 80, 0
2, 440184, Control_c, 0, 64, 62
2, 440189, Note_on_c, 0, 64, 0
2, 440201, Control_c, 0, 64, 58
2, 440217, Note_on_c, 0, 63, 59
2, 440222, Control_c, 0, 64, 53
2, 440230, Note_on_c, 0, 82, 45
2, 440239, Control_c, 0, 64, 47
2, 440243, Note_on_c, 0, 68, 0
2, 440260, Control_c, 0, 64, 41
2, 440276, Control_c, 0, 64, 35
2, 440298, Control_c, 0, 64, 32
2, 440317, Control_c, 0, 64, 31
2, 440373, Control_c, 0, 64, 32
2, 440392, Control_c, 0, 64, 34
2, 440415, Control_c, 0, 64, 40
2, 440431, Control_c, 0, 64, 47
2, 440449, Control_c, 0, 64, 55
2, 440471, Control_c, 0, 64, 59
2, 440489, Control_c, 0, 64, 61
2, 440507, Control_c, 0, 64, 62
2, 440529, Control_c, 0, 64, 64
2, 440547, Control_c, 0, 64, 65
2, 440569, Control_c, 0, 64, 68
2, 440585, Control_c, 0, 64, 74
2, 440605, Control_c, 0, 64, 84
2, 440626, Control_c, 0, 64, 100
2, 440626, Note_on_c, 0, 67, 44
2, 440634, Note_on_c, 0, 75, 40
2, 440643, Control_c, 0, 64, 127
2, 440706, Note_on_c, 0, 67, 0
2, 440722, Note_on_c, 0, 75, 0
2, 440931, Control_c, 0, 64, 107
2, 440950, Control_c, 0, 64, 95
2, 440969, Control_c, 0, 64, 84
2, 440988, Control_c, 0, 64, 75
2, 440995, Note_on_c, 0, 61, 50
2, 441008, Control_c, 0, 64, 68
2, 441027, Note_on_c, 0, 77, 40
2, 441032, Control_c, 0, 64, 63
2, 441032, Note_on_c, 0, 65, 42
2, 441034, Note_on_c, 0, 82, 0
2, 441047, Control_c, 0, 64, 58
2, 441060, Note_on_c, 0, 63, 0
2, 441066, Control_c, 0, 64, 56
2, 441085, Control_c, 0, 64, 54
2, 441103, Control_c, 0, 64, 52
2, 441123, Control_c, 0, 64, 49
2, 441140, Control_c, 0, 64, 46
2, 441162, Control_c, 0, 64, 42
2, 441181, Control_c, 0, 64, 38
2, 441199, Control_c, 0, 64, 35
2, 441278, Control_c, 0, 64, 34
2, 441330, Note_on_c, 0, 65, 0
2, 441362, Note_on_c, 0, 77, 0
2, 441422, Note_on_c, 0, 64, 39
2, 441422, Note_on_c, 0, 79, 47
2, 441681, Note_on_c, 0, 79, 0
2, 441764, Note_on_c, 0, 80, 54
2, 441766, Note_on_c, 0, 59, 48
2, 441796, Note_on_c, 0, 63, 40
2, 441800, Note_on_c, 0, 64, 0
2, 441871, Note_on_c, 0, 61, 0
2, 442084, Control_c, 0, 64, 35
2, 442143, Control_c, 0, 64, 37
2, 442160, Control_c, 0, 64, 43
2, 442178, Control_c, 0, 64, 52
2, 442188, Note_on_c, 0, 71, 47
2, 442198, Control_c, 0, 64, 59
2, 442216, Control_c, 0, 64, 62
2, 442236, Control_c, 0, 64, 64
2, 442254, Control_c, 0, 64, 65
2, 442276, Control_c, 0, 64, 68
2, 442294, Control_c, 0, 64, 75
2, 442312, Control_c, 0, 64, 84
2, 442332, Control_c, 0, 64, 95
2, 442352, Control_c, 0, 64, 109
2, 442374, Control_c, 0, 64, 120
2, 442488, Control_c, 0, 64, 113
2, 442507, Control_c, 0, 64, 106
2, 442526, Control_c, 0, 64, 96
2, 442544, Control_c, 0, 64, 83
2, 442548, Note_on_c, 0, 71, 0
2, 442560, Note_on_c, 0, 59, 0
2, 442565, Control_c, 0, 64, 68
2, 442584, Note_on_c, 0, 61, 53
2, 442588, Control_c, 0, 64, 60
2, 442588, Note_on_c, 0, 70, 43
2, 442603, Control_c, 0, 64, 53
2, 442608, Note_on_c, 0, 63, 0
2, 442621, Control_c, 0, 64, 48
2, 442638, Control_c, 0, 64, 45
2, 442661, Control_c, 0, 64, 44
2, 442677, Control_c, 0, 64, 43
2, 442717, Control_c, 0, 64, 46
2, 442735, Control_c, 0, 64, 53
2, 442754, Control_c, 0, 64, 60
2, 442773, Control_c, 0, 64, 63
2, 442794, Control_c, 0, 64, 66
2, 442814, Control_c, 0, 64, 70
2, 442834, Control_c, 0, 64, 75
2, 442851, Control_c, 0, 64, 82
2, 442873, Control_c, 0, 64, 90
2, 442890, Control_c, 0, 64, 101
2, 442908, Control_c, 0, 64, 127
2, 442992, Note_on_c, 0, 68, 42
2, 443032, Note_on_c, 0, 80, 0
2, 443237, Note_on_c, 0, 68, 0
2, 443330, Control_c, 0, 64, 115
2, 443349, Control_c, 0, 64, 103
2, 443370, Control_c, 0, 64, 91
2, 443389, Control_c, 0, 64, 75
2, 443406, Control_c, 0, 64, 64
2, 443426, Note_on_c, 0, 61, 0
2, 443429, Control_c, 0, 64, 55
2, 443429, Note_on_c, 0, 63, 43
2, 443429, Note_on_c, 0, 82, 46
2, 443437, Note_on_c, 0, 70, 0
2, 443449, Control_c, 0, 64, 49
2, 443459, Note_on_c, 0, 67, 32
2, 443465, Control_c, 0, 64, 46
2, 443523, Control_c, 0, 64, 48
2, 443542, Control_c, 0, 64, 53
2, 443563, Control_c, 0, 64, 59
2, 443580, Control_c, 0, 64, 63
2, 443600, Control_c, 0, 64, 66
2, 443618, Control_c, 0, 64, 70
2, 443637, Control_c, 0, 64, 79
2, 443657, Control_c, 0, 64, 91
2, 443667, Note_on_c, 0, 63, 0
2, 443676, Control_c, 0, 64, 115
2, 443695, Control_c, 0, 64, 127
2, 443820, Note_on_c, 0, 67, 0
2, 443853, Note_on_c, 0, 63, 44
2, 444042, Note_on_c, 0, 65, 47
2, 444176, Control_c, 0, 64, 113
2, 444196, Control_c, 0, 64, 91
2, 444212, Control_c, 0, 64, 72
2, 444233, Control_c, 0, 64, 62
2, 444242, Note_on_c, 0, 82, 0
2, 444246, Note_on_c, 0, 75, 57
2, 444255, Control_c, 0, 64, 54
2, 444255, Note_on_c, 0, 67, 44
2, 444260, Note_on_c, 0, 65, 0
2, 444273, Control_c, 0, 64, 49
2, 444330, Control_c, 0, 64, 51
2, 444350, Control_c, 0, 64, 54
2, 444367, Control_c, 0, 64, 59
2, 444387, Control_c, 0, 64, 62
2, 444405, Control_c, 0, 64, 64
2, 444426, Control_c, 0, 64, 68
2, 444444, Control_c, 0, 64, 74
2, 444463, Control_c, 0, 64, 84
2, 444483, Control_c, 0, 64, 102
2, 444501, Control_c, 0, 64, 127
2, 444618, Note_on_c, 0, 68, 58
2, 444657, Note_on_c, 0, 67, 0
2, 444788, Note_on_c, 0, 68, 0
2, 444802, Note_on_c, 0, 70, 58
2, 444962, Control_c, 0, 64, 106
2, 444973, Note_on_c, 0, 70, 0
2, 444983, Control_c, 0, 64, 85
2, 445001, Control_c, 0, 64, 69
2, 445021, Control_c, 0, 64, 59
2, 445023, Note_on_c, 0, 63, 0
2, 445036, Note_on_c, 0, 56, 62
2, 445036, Note_on_c, 0, 71, 47
2, 445040, Control_c, 0, 64, 50
2, 445061, Control_c, 0, 64, 47
2, 445116, Control_c, 0, 64, 49
2, 445136, Control_c, 0, 64, 53
2, 445153, Control_c, 0, 64, 57
2, 445173, Control_c, 0, 64, 61
2, 445195, Control_c, 0, 64, 65
2, 445212, Control_c, 0, 64, 68
2, 445231, Control_c, 0, 64, 75
2, 445249, Control_c, 0, 64, 84
2, 445269, Control_c, 0, 64, 97
2, 445275, Note_on_c, 0, 71, 0
2, 445290, Control_c, 0, 64, 122
2, 445309, Control_c, 0, 64, 127
2, 445472, Note_on_c, 0, 71, 61
2, 445838, Note_on_c, 0, 73, 80
2, 445866, Note_on_c, 0, 75, 0
2, 445870, Note_on_c, 0, 71, 0
2, 446253, Note_on_c, 0, 75, 75
2, 446262, Note_on_c, 0, 70, 70
2, 446297, Note_on_c, 0, 73, 0
2, 446459, Note_on_c, 0, 70, 0
2, 446654, Control_c, 0, 64, 107
2, 446665, Note_on_c, 0, 75, 0
2, 446674, Control_c, 0, 64, 87
2, 446681, Note_on_c, 0, 76, 64
2, 446685, Note_on_c, 0, 61, 58
2, 446692, Control_c, 0, 64, 70
2, 446692, Note_on_c, 0, 56, 0
2, 446701, Note_on_c, 0, 68, 55
2, 446710, Control_c, 0, 64, 61
2, 446730, Control_c, 0, 64, 52
2, 446747, Control_c, 0, 64, 47
2, 446767, Control_c, 0, 64, 44
2, 446787, Control_c, 0, 64, 43
2, 446843, Control_c, 0, 64, 48
2, 446866, Control_c, 0, 64, 56
2, 446884, Control_c, 0, 64, 62
2, 446901, Control_c, 0, 64, 67
2, 446921, Control_c, 0, 64, 72
2, 446941, Control_c, 0, 64, 81
2, 446959, Control_c, 0, 64, 92
2, 446963, Note_on_c, 0, 68, 0
2, 446978, Control_c, 0, 64, 109
2, 447000, Control_c, 0, 64, 127
2, 447063, Note_on_c, 0, 76, 0
2, 447075, Control_c, 0, 64, 98
2, 447088, Note_on_c, 0, 75, 62
2, 447100, Control_c, 0, 64, 76
2, 447100, Note_on_c, 0, 67, 57
2, 447113, Control_c, 0, 64, 62
2, 447131, Control_c, 0, 64, 54
2, 447151, Control_c, 0, 64, 53
2, 447171, Control_c, 0, 64, 55
2, 447191, Control_c, 0, 64, 58
2, 447209, Control_c, 0, 64, 62
2, 447227, Control_c, 0, 64, 64
2, 447247, Control_c, 0, 64, 67
2, 447259, Note_on_c, 0, 67, 0
2, 447269, Control_c, 0, 64, 71
2, 447285, Control_c, 0, 64, 77
2, 447306, Control_c, 0, 64, 86
2, 447324, Control_c, 0, 64, 101
2, 447345, Control_c, 0, 64, 127
2, 447460, Control_c, 0, 64, 95
2, 447460, Note_on_c, 0, 75, 0
2, 447477, Control_c, 0, 64, 76
2, 447485, Note_on_c, 0, 73, 61
2, 447496, Note_on_c, 0, 68, 50
2, 447501, Control_c, 0, 64, 63
2, 447515, Control_c, 0, 64, 53
2, 447539, Control_c, 0, 64, 49
2, 447612, Control_c, 0, 64, 48
2, 447671, Control_c, 0, 64, 49
2, 447689, Control_c, 0, 64, 51
2, 447708, Control_c, 0, 64, 52
2, 447726, Control_c, 0, 64, 54
2, 447746, Control_c, 0, 64, 55
2, 447765, Control_c, 0, 64, 57
2, 447785, Control_c, 0, 64, 60
2, 447805, Control_c, 0, 64, 63
2, 447822, Control_c, 0, 64, 65
2, 447845, Control_c, 0, 64, 68
2, 447860, Control_c, 0, 64, 72
2, 447879, Control_c, 0, 64, 78
2, 447900, Control_c, 0, 64, 87
2, 447900, Note_on_c, 0, 70, 45
2, 447920, Control_c, 0, 64, 99
2, 447939, Control_c, 0, 64, 127
2, 447967, Note_on_c, 0, 70, 0
2, 447994, Note_on_c, 0, 73, 0
2, 448187, Control_c, 0, 64, 118
2, 448205, Control_c, 0, 64, 101
2, 448226, Control_c, 0, 64, 91
2, 448248, Control_c, 0, 64, 80
2, 448264, Control_c, 0, 64, 70
2, 448287, Control_c, 0, 64, 64
2, 448287, Note_on_c, 0, 80, 61
2, 448299, Note_on_c, 0, 63, 33
2, 448305, Control_c, 0, 64, 59
2, 448305, Note_on_c, 0, 61, 0
2, 448322, Control_c, 0, 64, 57
2, 448360, Control_c, 0, 64, 56
2, 448380, Control_c, 0, 64, 54
2, 448399, Control_c, 0, 64, 51
2, 448417, Control_c, 0, 64, 49
2, 448437, Control_c, 0, 64, 48
2, 448515, Control_c, 0, 64, 47
2, 448553, Control_c, 0, 64, 46
2, 448629, Control_c, 0, 64, 47
2, 448647, Control_c, 0, 64, 48
2, 448652, Note_on_c, 0, 63, 0
2, 448669, Control_c, 0, 64, 51
2, 448686, Control_c, 0, 64, 56
2, 448699, Note_on_c, 0, 65, 40
2, 448706, Control_c, 0, 64, 61
2, 448723, Control_c, 0, 64, 64
2, 448745, Control_c, 0, 64, 66
2, 448763, Control_c, 0, 64, 72
2, 448782, Control_c, 0, 64, 80
2, 448802, Control_c, 0, 64, 89
2, 448822, Control_c, 0, 64, 101
2, 448842, Control_c, 0, 64, 110
2, 448860, Control_c, 0, 64, 111
2, 448860, Note_on_c, 0, 65, 0
2, 448918, Control_c, 0, 64, 112
2, 448994, Control_c, 0, 64, 110
2, 449016, Control_c, 0, 64, 107
2, 449033, Control_c, 0, 64, 103
2, 449052, Control_c, 0, 64, 97
2, 449071, Control_c, 0, 64, 89
2, 449078, Note_on_c, 0, 68, 0
2, 449093, Control_c, 0, 64, 78
2, 449112, Control_c, 0, 64, 68
2, 449112, Note_on_c, 0, 75, 60
2, 449116, Note_on_c, 0, 80, 0
2, 449128, Note_on_c, 0, 67, 40
2, 449129, Control_c, 0, 64, 60
2, 449134, Note_on_c, 0, 59, 29
2, 449147, Control_c, 0, 64, 55
2, 449167, Control_c, 0, 64, 54
2, 449223, Control_c, 0, 64, 55
2, 449245, Control_c, 0, 64, 56
2, 449265, Control_c, 0, 64, 58
2, 449282, Control_c, 0, 64, 61
2, 449302, Control_c, 0, 64, 64
2, 449320, Control_c, 0, 64, 67
2, 449343, Control_c, 0, 64, 70
2, 449361, Control_c, 0, 64, 74
2, 449377, Control_c, 0, 64, 79
2, 449397, Control_c, 0, 64, 86
2, 449417, Control_c, 0, 64, 93
2, 449438, Control_c, 0, 64, 102
2, 449453, Control_c, 0, 64, 112
2, 449475, Control_c, 0, 64, 120
2, 449493, Control_c, 0, 64, 122
2, 449513, Control_c, 0, 64, 127
2, 449536, Note_on_c, 0, 68, 60
2, 449563, Note_on_c, 0, 59, 0
2, 449632, Note_on_c, 0, 68, 0
2, 449788, Note_on_c, 0, 67, 0
2, 449820, Control_c, 0, 64, 120
2, 449839, Control_c, 0, 64, 109
2, 449858, Control_c, 0, 64, 93
2, 449877, Control_c, 0, 64, 78
2, 449898, Control_c, 0, 64, 66
2, 449917, Control_c, 0, 64, 58
2, 449917, Note_on_c, 0, 58, 38
2, 449928, Note_on_c, 0, 70, 53
2, 449935, Control_c, 0, 64, 54
2, 449976, Control_c, 0, 64, 56
2, 449991, Control_c, 0, 64, 58
2, 450014, Control_c, 0, 64, 61
2, 450029, Control_c, 0, 64, 63
2, 450049, Control_c, 0, 64, 65
2, 450070, Control_c, 0, 64, 69
2, 450086, Note_on_c, 0, 70, 0
2, 450090, Control_c, 0, 64, 74
2, 450110, Control_c, 0, 64, 82
2, 450114, Note_on_c, 0, 71, 61
2, 450128, Control_c, 0, 64, 91
2, 450147, Control_c, 0, 64, 97
2, 450160, Note_on_c, 0, 75, 0
2, 450165, Control_c, 0, 64, 99
2, 450206, Control_c, 0, 64, 98
2, 450225, Control_c, 0, 64, 97
2, 450225, Note_on_c, 0, 71, 0
2, 450242, Control_c, 0, 64, 94
2, 450264, Control_c, 0, 64, 88
2, 450280, Control_c, 0, 64, 76
2, 450300, Control_c, 0, 64, 65
2, 450311, Note_on_c, 0, 77, 71
2, 450319, Control_c, 0, 64, 58
2, 450323, Note_on_c, 0, 73, 64
2, 450338, Control_c, 0, 64, 54
2, 450394, Control_c, 0, 64, 56
2, 450414, Control_c, 0, 64, 59
2, 450435, Control_c, 0, 64, 61
2, 450453, Control_c, 0, 64, 63
2, 450470, Control_c, 0, 64, 65
2, 450490, Control_c, 0, 64, 67
2, 450512, Control_c, 0, 64, 71
2, 450527, Note_on_c, 0, 77, 0
2, 450532, Control_c, 0, 64, 75
2, 450551, Control_c, 0, 64, 81
2, 450569, Control_c, 0, 64, 84
2, 450591, Control_c, 0, 64, 85
2, 450606, Control_c, 0, 64, 84
2, 450626, Control_c, 0, 64, 83
2, 450646, Control_c, 0, 64, 82
2, 450668, Control_c, 0, 64, 80
2, 450684, Control_c, 0, 64, 74
2, 450702, Control_c, 0, 64, 67
2, 450722, Control_c, 0, 64, 61
2, 450742, Note_on_c, 0, 79, 62
2, 450744, Control_c, 0, 64, 56
2, 450760, Control_c, 0, 64, 54
2, 450779, Control_c, 0, 64, 53
2, 450801, Control_c, 0, 64, 54
2, 450838, Control_c, 0, 64, 55
2, 450856, Control_c, 0, 64, 57
2, 450876, Control_c, 0, 64, 60
2, 450895, Control_c, 0, 64, 62
2, 450913, Control_c, 0, 64, 63
2, 450937, Control_c, 0, 64, 65
2, 450953, Control_c, 0, 64, 67
2, 450972, Control_c, 0, 64, 69
2, 450992, Control_c, 0, 64, 71
2, 451011, Control_c, 0, 64, 74
2, 451031, Control_c, 0, 64, 77
2, 451048, Control_c, 0, 64, 79
2, 451067, Control_c, 0, 64, 81
2, 451086, Control_c, 0, 64, 83
2, 451099, Note_on_c, 0, 79, 0
2, 451108, Control_c, 0, 64, 84
2, 451125, Control_c, 0, 64, 85
2, 451130, Note_on_c, 0, 73, 0
2, 451142, Note_on_c, 0, 71, 54
2, 451147, Control_c, 0, 64, 87
2, 451164, Control_c, 0, 64, 89
2, 451222, Control_c, 0, 64, 90
2, 451248, Note_on_c, 0, 71, 0
2, 451315, Note_on_c, 0, 70, 59
2, 451357, Control_c, 0, 64, 89
2, 451378, Control_c, 0, 64, 88
2, 451378, Note_on_c, 0, 70, 0
2, 451394, Control_c, 0, 64, 86
2, 451416, Control_c, 0, 64, 83
2, 451434, Control_c, 0, 64, 78
2, 451454, Control_c, 0, 64, 73
2, 451469, Control_c, 0, 64, 67
2, 451491, Control_c, 0, 64, 62
2, 451510, Control_c, 0, 64, 58
2, 451528, Control_c, 0, 64, 56
2, 451533, Note_on_c, 0, 80, 59
2, 451540, Note_on_c, 0, 58, 0
2, 451549, Control_c, 0, 64, 54
2, 451549, Note_on_c, 0, 71, 42
2, 451555, Note_on_c, 0, 56, 40
2, 451566, Control_c, 0, 64, 53
2, 451587, Control_c, 0, 64, 52
2, 451604, Control_c, 0, 64, 49
2, 451626, Control_c, 0, 64, 47
2, 451644, Control_c, 0, 64, 44
2, 451663, Control_c, 0, 64, 42
2, 451683, Control_c, 0, 64, 41
2, 451778, Control_c, 0, 64, 42
2, 451797, Control_c, 0, 64, 44
2, 451817, Control_c, 0, 64, 47
2, 451834, Control_c, 0, 64, 52
2, 451855, Control_c, 0, 64, 57
2, 451875, Control_c, 0, 64, 59
2, 451895, Control_c, 0, 64, 61
2, 451913, Control_c, 0, 64, 62
2, 451929, Note_on_c, 0, 80, 0
2, 451933, Control_c, 0, 64, 63
2, 451953, Control_c, 0, 64, 65
2, 451962, Note_on_c, 0, 82, 55
2, 451970, Control_c, 0, 64, 66
2, 451988, Control_c, 0, 64, 68
2, 452009, Control_c, 0, 64, 71
2, 452028, Control_c, 0, 64, 73
2, 452065, Control_c, 0, 64, 74
2, 452085, Control_c, 0, 64, 77
2, 452107, Control_c, 0, 64, 81
2, 452123, Control_c, 0, 64, 87
2, 452143, Control_c, 0, 64, 92
2, 452162, Control_c, 0, 64, 94
2, 452200, Control_c, 0, 64, 92
2, 452209, Note_on_c, 0, 56, 0
2, 452218, Control_c, 0, 64, 91
2, 452239, Control_c, 0, 64, 88
2, 452260, Control_c, 0, 64, 83
2, 452279, Control_c, 0, 64, 78
2, 452296, Control_c, 0, 64, 72
2, 452316, Control_c, 0, 64, 65
2, 452336, Control_c, 0, 64, 58
2, 452355, Control_c, 0, 64, 53
2, 452367, Note_on_c, 0, 82, 0
2, 452374, Control_c, 0, 64, 50
2, 452383, Note_on_c, 0, 80, 47
2, 452390, Note_on_c, 0, 61, 49
2, 452394, Control_c, 0, 64, 47
2, 452412, Control_c, 0, 64, 45
2, 452431, Control_c, 0, 64, 44
2, 452450, Control_c, 0, 64, 43
2, 452469, Control_c, 0, 64, 42
2, 452527, Control_c, 0, 64, 44
2, 452545, Control_c, 0, 64, 47
2, 452565, Control_c, 0, 64, 51
2, 452583, Control_c, 0, 64, 57
2, 452604, Control_c, 0, 64, 60
2, 452624, Control_c, 0, 64, 62
2, 452644, Control_c, 0, 64, 64
2, 452681, Control_c, 0, 64, 65
2, 452700, Control_c, 0, 64, 67
2, 452719, Control_c, 0, 64, 68
2, 452737, Control_c, 0, 64, 70
2, 452758, Control_c, 0, 64, 71
2, 452778, Control_c, 0, 64, 72
2, 452783, Note_on_c, 0, 80, 0
2, 452787, Note_on_c, 0, 78, 68
2, 452873, Control_c, 0, 64, 71
2, 452934, Control_c, 0, 64, 70
2, 452967, Control_c, 0, 64, 69
2, 452987, Control_c, 0, 64, 68
2, 453025, Control_c, 0, 64, 67
2, 453044, Control_c, 0, 64, 66
2, 453066, Control_c, 0, 64, 65
2, 453084, Control_c, 0, 64, 64
2, 453102, Control_c, 0, 64, 63
2, 453122, Control_c, 0, 64, 62
2, 453141, Control_c, 0, 64, 61
2, 453160, Control_c, 0, 64, 60
2, 453180, Control_c, 0, 64, 59
2, 453197, Note_on_c, 0, 68, 72
2, 453199, Control_c, 0, 64, 58
2, 453222, Control_c, 0, 64, 56
2, 453222, Note_on_c, 0, 77, 58
2, 453237, Control_c, 0, 64, 54
2, 453257, Control_c, 0, 64, 51
2, 453259, Note_on_c, 0, 78, 0
2, 453277, Control_c, 0, 64, 49
2, 453297, Control_c, 0, 64, 48
2, 453315, Control_c, 0, 64, 47
2, 453333, Control_c, 0, 64, 45
2, 453353, Control_c, 0, 64, 42
2, 453372, Control_c, 0, 64, 38
2, 453390, Control_c, 0, 64, 35
2, 453409, Control_c, 0, 64, 32
2, 453429, Control_c, 0, 64, 30
2, 453446, Control_c, 0, 64, 27
2, 453466, Control_c, 0, 64, 24
2, 453486, Control_c, 0, 64, 19
2, 453505, Control_c, 0, 64, 13
2, 453523, Control_c, 0, 64, 0
2, 453594, Note_on_c, 0, 63, 64
2, 453601, Note_on_c, 0, 78, 74
2, 453614, Note_on_c, 0, 61, 0
2, 453642, Note_on_c, 0, 77, 0
2, 453999, Note_on_c, 0, 61, 61
2, 454003, Note_on_c, 0, 80, 72
2, 454027, Note_on_c, 0, 63, 0
2, 454045, Note_on_c, 0, 78, 0
2, 454409, Control_c, 0, 64, 30
2, 454421, Note_on_c, 0, 61, 0
2, 454428, Control_c, 0, 64, 43
2, 454450, Control_c, 0, 64, 54
2, 454450, Note_on_c, 0, 59, 53
2, 454467, Control_c, 0, 64, 59
2, 454485, Control_c, 0, 64, 60
2, 454500, Note_on_c, 0, 71, 0
2, 454505, Control_c, 0, 64, 61
2, 454525, Control_c, 0, 64, 62
2, 454542, Control_c, 0, 64, 63
2, 454564, Control_c, 0, 64, 65
2, 454583, Control_c, 0, 64, 67
2, 454601, Control_c, 0, 64, 69
2, 454618, Control_c, 0, 64, 73
2, 454638, Control_c, 0, 64, 75
2, 454657, Control_c, 0, 64, 76
2, 454697, Note_on_c, 0, 68, 0
2, 454717, Control_c, 0, 64, 75
2, 454755, Control_c, 0, 64, 74
2, 454775, Control_c, 0, 64, 73
2, 454793, Control_c, 0, 64, 70
2, 454804, Note_on_c, 0, 59, 0
2, 454813, Control_c, 0, 64, 67
2, 454822, Note_on_c, 0, 73, 79
2, 454827, Note_on_c, 0, 58, 57
2, 454831, Control_c, 0, 64, 64
2, 454850, Control_c, 0, 64, 61
2, 454873, Control_c, 0, 64, 59
2, 454878, Note_on_c, 0, 80, 0
2, 454889, Control_c, 0, 64, 56
2, 454908, Control_c, 0, 64, 53
2, 454928, Control_c, 0, 64, 50
2, 454946, Control_c, 0, 64, 48
2, 454968, Control_c, 0, 64, 45
2, 454985, Control_c, 0, 64, 43
2, 455005, Control_c, 0, 64, 41
2, 455024, Control_c, 0, 64, 39
2, 455042, Control_c, 0, 64, 38
2, 455118, Control_c, 0, 64, 37
2, 455157, Control_c, 0, 64, 36
2, 455175, Control_c, 0, 64, 35
2, 455186, Note_on_c, 0, 58, 0
2, 455195, Control_c, 0, 64, 34
2, 455215, Note_on_c, 0, 78, 76
2, 455233, Control_c, 0, 64, 33
2, 455242, Note_on_c, 0, 59, 43
2, 455253, Control_c, 0, 64, 32
2, 455270, Control_c, 0, 64, 31
2, 455292, Control_c, 0, 64, 30
2, 455311, Control_c, 0, 64, 29
2, 455329, Control_c, 0, 64, 28
2, 455521, Control_c, 0, 64, 27
2, 455624, Note_on_c, 0, 77, 69
2, 455636, Control_c, 0, 64, 26
2, 455640, Note_on_c, 0, 59, 0
2, 455649, Note_on_c, 0, 61, 42
2, 455656, Control_c, 0, 64, 25
2, 455660, Note_on_c, 0, 78, 0
2, 455678, Control_c, 0, 64, 24
2, 455696, Control_c, 0, 64, 22
2, 455713, Control_c, 0, 64, 20
2, 455736, Control_c, 0, 64, 18
2, 455753, Control_c, 0, 64, 17
2, 455771, Control_c, 0, 64, 15
2, 455791, Control_c, 0, 64, 13
2, 455887, Control_c, 0, 64, 12
2, 455944, Control_c, 0, 64, 11
2, 456021, Control_c, 0, 64, 10
2, 456039, Note_on_c, 0, 78, 64
2, 456043, Note_on_c, 0, 77, 0
2, 456117, Control_c, 0, 64, 9
2, 456155, Control_c, 0, 64, 8
2, 456200, Note_on_c, 0, 80, 72
2, 456211, Note_on_c, 0, 78, 0
2, 456215, Control_c, 0, 64, 0
2, 456402, Note_on_c, 0, 80, 0
2, 456402, Note_on_c, 0, 82, 71
2, 456411, Note_on_c, 0, 54, 52
2, 456431, Note_on_c, 0, 61, 0
2, 456600, Note_on_c, 0, 80, 77
2, 456635, Note_on_c, 0, 82, 0
2, 456796, Note_on_c, 0, 82, 75
2, 456802, Note_on_c, 0, 80, 0
2, 457185, Note_on_c, 0, 54, 0
2, 457198, Note_on_c, 0, 75, 81
2, 457211, Note_on_c, 0, 59, 56
2, 457234, Note_on_c, 0, 73, 0
2, 457249, Note_on_c, 0, 82, 0
2, 457269, Control_c, 0, 64, 11
2, 457289, Control_c, 0, 64, 20
2, 457306, Control_c, 0, 64, 29
2, 457326, Control_c, 0, 64, 40
2, 457348, Control_c, 0, 64, 50
2, 457366, Control_c, 0, 64, 58
2, 457386, Control_c, 0, 64, 61
2, 457405, Control_c, 0, 64, 62
2, 457441, Control_c, 0, 64, 64
2, 457461, Control_c, 0, 64, 65
2, 457483, Control_c, 0, 64, 66
2, 457500, Control_c, 0, 64, 67
2, 457519, Control_c, 0, 64, 68
2, 457640, Note_on_c, 0, 80, 60
2, 457831, Note_on_c, 0, 78, 64
2, 457847, Note_on_c, 0, 80, 0
2, 457945, Control_c, 0, 64, 67
2, 457980, Control_c, 0, 64, 65
2, 458000, Control_c, 0, 64, 64
2, 458007, Note_on_c, 0, 73, 69
2, 458013, Note_on_c, 0, 77, 68
2, 458023, Control_c, 0, 64, 61
2, 458023, Note_on_c, 0, 75, 0
2, 458036, Control_c, 0, 64, 57
2, 458036, Note_on_c, 0, 78, 0
2, 458057, Control_c, 0, 64, 53
2, 458075, Control_c, 0, 64, 49
2, 458095, Control_c, 0, 64, 44
2, 458113, Control_c, 0, 64, 39
2, 458133, Control_c, 0, 64, 34
2, 458153, Control_c, 0, 64, 30
2, 458172, Control_c, 0, 64, 27
2, 458192, Control_c, 0, 64, 25
2, 458209, Control_c, 0, 64, 23
2, 458230, Control_c, 0, 64, 21
2, 458250, Control_c, 0, 64, 19
2, 458266, Control_c, 0, 64, 17
2, 458287, Control_c, 0, 64, 15
2, 458308, Control_c, 0, 64, 13
2, 458366, Control_c, 0, 64, 14
2, 458366, Note_on_c, 0, 77, 0
2, 458382, Control_c, 0, 64, 24
2, 458394, Note_on_c, 0, 59, 0
2, 458399, Note_on_c, 0, 78, 68
2, 458403, Control_c, 0, 64, 36
2, 458411, Note_on_c, 0, 58, 52
2, 458426, Control_c, 0, 64, 47
2, 458442, Control_c, 0, 64, 57
2, 458458, Control_c, 0, 64, 62
2, 458478, Control_c, 0, 64, 63
2, 458498, Control_c, 0, 64, 64
2, 458517, Control_c, 0, 64, 65
2, 458537, Control_c, 0, 64, 69
2, 458555, Control_c, 0, 64, 73
2, 458575, Control_c, 0, 64, 78
2, 458586, Note_on_c, 0, 73, 0
2, 458594, Control_c, 0, 64, 81
2, 458651, Control_c, 0, 64, 80
2, 458671, Control_c, 0, 64, 79
2, 458689, Control_c, 0, 64, 78
2, 458707, Control_c, 0, 64, 77
2, 458727, Control_c, 0, 64, 74
2, 458746, Control_c, 0, 64, 70
2, 458767, Control_c, 0, 64, 66
2, 458781, Note_on_c, 0, 58, 0
2, 458787, Control_c, 0, 64, 62
2, 458795, Note_on_c, 0, 71, 59
2, 458800, Note_on_c, 0, 56, 60
2, 458806, Control_c, 0, 64, 57
2, 458824, Control_c, 0, 64, 54
2, 458845, Control_c, 0, 64, 50
2, 458866, Control_c, 0, 64, 47
2, 458882, Control_c, 0, 64, 44
2, 458901, Control_c, 0, 64, 40
2, 458921, Control_c, 0, 64, 36
2, 458940, Control_c, 0, 64, 33
2, 458960, Control_c, 0, 64, 31
2, 458977, Control_c, 0, 64, 30
2, 459019, Control_c, 0, 64, 29
2, 459035, Control_c, 0, 64, 28
2, 459053, Control_c, 0, 64, 27
2, 459073, Control_c, 0, 64, 26
2, 459152, Control_c, 0, 64, 28
2, 459171, Control_c, 0, 64, 34
2, 459177, Note_on_c, 0, 77, 61
2, 459182, Note_on_c, 0, 78, 0
2, 459190, Control_c, 0, 64, 43
2, 459207, Control_c, 0, 64, 52
2, 459228, Control_c, 0, 64, 60
2, 459248, Control_c, 0, 64, 62
2, 459266, Control_c, 0, 64, 63
2, 459286, Note_on_c, 0, 77, 0
2, 459288, Control_c, 0, 64, 64
2, 459308, Control_c, 0, 64, 66
2, 459324, Control_c, 0, 64, 69
2, 459342, Control_c, 0, 64, 73
2, 459362, Control_c, 0, 64, 78
2, 459382, Control_c, 0, 64, 80
2, 459401, Control_c, 0, 64, 81
2, 459458, Control_c, 0, 64, 80
2, 459496, Control_c, 0, 64, 79
2, 459514, Control_c, 0, 64, 76
2, 459535, Control_c, 0, 64, 70
2, 459554, Control_c, 0, 64, 64
2, 459561, Note_on_c, 0, 71, 0
2, 459565, Note_on_c, 0, 56, 0
2, 459572, Control_c, 0, 64, 58
2, 459586, Note_on_c, 0, 78, 63
2, 459594, Control_c, 0, 64, 53
2, 459594, Note_on_c, 0, 70, 55
2, 459599, Note_on_c, 0, 54, 51
2, 459615, Control_c, 0, 64, 50
2, 459631, Control_c, 0, 64, 48
2, 459651, Control_c, 0, 64, 46
2, 459670, Control_c, 0, 64, 44
2, 459690, Control_c, 0, 64, 41
2, 459708, Control_c, 0, 64, 37
2, 459727, Control_c, 0, 64, 34
2, 459746, Control_c, 0, 64, 33
2, 459804, Control_c, 0, 64, 32
2, 459822, Control_c, 0, 64, 31
2, 459842, Control_c, 0, 64, 30
2, 459920, Control_c, 0, 64, 32
2, 459939, Control_c, 0, 64, 39
2, 459956, Control_c, 0, 64, 49
2, 459965, Note_on_c, 0, 54, 0
2, 459976, Control_c, 0, 64, 58
2, 459990, Note_on_c, 0, 73, 72
2, 459997, Control_c, 0, 64, 62
2, 460001, Note_on_c, 0, 52, 53
2, 460014, Control_c, 0, 64, 64
2, 460018, Note_on_c, 0, 70, 0
2, 460023, Note_on_c, 0, 78, 0
2, 460034, Control_c, 0, 64, 66
2, 460052, Control_c, 0, 64, 72
2, 460075, Control_c, 0, 64, 81
2, 460080, Note_on_c, 0, 52, 0
2, 460093, Control_c, 0, 64, 95
2, 460111, Control_c, 0, 64, 127
2, 460341, Control_c, 0, 64, 109
2, 460360, Control_c, 0, 64, 90
2, 460364, Note_on_c, 0, 51, 66
2, 460367, Note_on_c, 0, 78, 80
2, 460371, Note_on_c, 0, 73, 0
2, 460380, Note_on_c, 0, 71, 74
2, 460384, Control_c, 0, 64, 76
2, 460398, Control_c, 0, 64, 66
2, 460417, Control_c, 0, 64, 59
2, 460436, Control_c, 0, 64, 54
2, 460455, Control_c, 0, 64, 51
2, 460495, Control_c, 0, 64, 50
2, 460534, Control_c, 0, 64, 49
2, 460555, Control_c, 0, 64, 47
2, 460555, Note_on_c, 0, 49, 66
2, 460572, Control_c, 0, 64, 46
2, 460581, Note_on_c, 0, 51, 0
2, 460593, Control_c, 0, 64, 45
2, 460688, Control_c, 0, 64, 44
2, 460751, Note_on_c, 0, 51, 76
2, 460762, Note_on_c, 0, 49, 0
2, 460802, Control_c, 0, 64, 43
2, 460928, Note_on_c, 0, 52, 78
2, 460933, Note_on_c, 0, 51, 0
2, 461012, Control_c, 0, 64, 42
2, 461138, Note_on_c, 0, 73, 85
2, 461143, Note_on_c, 0, 46, 74
2, 461143, Note_on_c, 0, 52, 0
2, 461164, Note_on_c, 0, 71, 0
2, 461175, Note_on_c, 0, 78, 0
2, 461205, Control_c, 0, 64, 41
2, 461540, Note_on_c, 0, 42, 67
2, 461540, Note_on_c, 0, 46, 0
2, 461554, Control_c, 0, 64, 40
2, 461558, Note_on_c, 0, 80, 78
2, 461935, Note_on_c, 0, 42, 0
2, 461941, Note_on_c, 0, 44, 67
2, 461941, Note_on_c, 0, 78, 70
2, 461953, Control_c, 0, 64, 42
2, 461974, Note_on_c, 0, 80, 0
2, 461978, Control_c, 0, 64, 46
2, 461992, Control_c, 0, 64, 51
2, 462011, Control_c, 0, 64, 55
2, 462029, Control_c, 0, 64, 57
2, 462049, Control_c, 0, 64, 59
2, 462105, Control_c, 0, 64, 60
2, 462243, Control_c, 0, 64, 59
2, 462263, Control_c, 0, 64, 57
2, 462283, Control_c, 0, 64, 53
2, 462300, Control_c, 0, 64, 48
2, 462320, Control_c, 0, 64, 42
2, 462333, Note_on_c, 0, 44, 0
2, 462333, Note_on_c, 0, 46, 66
2, 462337, Control_c, 0, 64, 39
2, 462337, Note_on_c, 0, 76, 72
2, 462378, Control_c, 0, 64, 43
2, 462386, Note_on_c, 0, 78, 0
2, 462395, Control_c, 0, 64, 54
2, 462415, Control_c, 0, 64, 62
2, 462436, Control_c, 0, 64, 65
2, 462452, Control_c, 0, 64, 70
2, 462472, Control_c, 0, 64, 78
2, 462492, Control_c, 0, 64, 87
2, 462510, Control_c, 0, 64, 103
2, 462529, Control_c, 0, 64, 115
2, 462536, Note_on_c, 0, 46, 0
2, 462536, Note_on_c, 0, 76, 0
2, 462551, Control_c, 0, 64, 122
2, 462569, Control_c, 0, 64, 127
2, 462663, Note_on_c, 0, 73, 0
2, 462685, Control_c, 0, 64, 109
2, 462702, Control_c, 0, 64, 96
2, 462723, Control_c, 0, 64, 83
2, 462733, Note_on_c, 0, 66, 75
2, 462735, Note_on_c, 0, 75, 74
2, 462742, Control_c, 0, 64, 73
2, 462748, Note_on_c, 0, 47, 57
2, 462762, Control_c, 0, 64, 64
2, 462780, Control_c, 0, 64, 59
2, 462800, Control_c, 0, 64, 55
2, 462820, Control_c, 0, 64, 53
2, 462837, Control_c, 0, 64, 52
2, 462858, Control_c, 0, 64, 51
2, 462876, Control_c, 0, 64, 49
2, 462895, Control_c, 0, 64, 47
2, 462913, Control_c, 0, 64, 44
2, 462932, Control_c, 0, 64, 43
2, 463125, Control_c, 0, 64, 44
2, 463130, Note_on_c, 0, 47, 0
2, 463148, Note_on_c, 0, 49, 54
2, 463152, Note_on_c, 0, 76, 71
2, 463164, Control_c, 0, 64, 45
2, 463177, Note_on_c, 0, 75, 0
2, 463203, Control_c, 0, 64, 46
2, 463451, Control_c, 0, 64, 47
2, 463507, Note_on_c, 0, 76, 0
2, 463532, Note_on_c, 0, 78, 82
2, 463543, Note_on_c, 0, 49, 0
2, 463545, Note_on_c, 0, 51, 58
2, 463700, Control_c, 0, 64, 48
2, 463720, Control_c, 0, 64, 51
2, 463740, Control_c, 0, 64, 56
2, 463761, Control_c, 0, 64, 61
2, 463779, Control_c, 0, 64, 63
2, 463798, Control_c, 0, 64, 65
2, 463816, Control_c, 0, 64, 68
2, 463836, Control_c, 0, 64, 75
2, 463854, Control_c, 0, 64, 88
2, 463874, Control_c, 0, 64, 127
2, 463905, Note_on_c, 0, 51, 0
2, 463934, Note_on_c, 0, 52, 62
2, 464054, Note_on_c, 0, 66, 0
2, 464113, Note_on_c, 0, 52, 0
2, 464122, Note_on_c, 0, 54, 67
2, 464171, Note_on_c, 0, 54, 0
2, 464295, Control_c, 0, 64, 111
2, 464316, Note_on_c, 0, 71, 82
2, 464320, Control_c, 0, 64, 84
2, 464337, Control_c, 0, 64, 70
2, 464341, Note_on_c, 0, 56, 56
2, 464341, Note_on_c, 0, 68, 70
2, 464348, Note_on_c, 0, 78, 0
2, 464356, Control_c, 0, 64, 61
2, 464372, Control_c, 0, 64, 52
2, 464392, Control_c, 0, 64, 46
2, 464412, Control_c, 0, 64, 43
2, 464429, Control_c, 0, 64, 42
2, 464449, Control_c, 0, 64, 41
2, 464468, Control_c, 0, 64, 39
2, 464488, Control_c, 0, 64, 36
2, 464508, Control_c, 0, 64, 33
2, 464525, Control_c, 0, 64, 31
2, 464545, Control_c, 0, 64, 30
2, 464640, Control_c, 0, 64, 32
2, 464658, Control_c, 0, 64, 35
2, 464679, Control_c, 0, 64, 43
2, 464697, Control_c, 0, 64, 53
2, 464708, Note_on_c, 0, 56, 0
2, 464717, Control_c, 0, 64, 60
2, 464722, Note_on_c, 0, 58, 69
2, 464737, Control_c, 0, 64, 63
2, 464755, Control_c, 0, 64, 66
2, 464773, Control_c, 0, 64, 72
2, 464794, Control_c, 0, 64, 83
2, 464796, Note_on_c, 0, 68, 0
2, 464813, Control_c, 0, 64, 105
2, 464833, Control_c, 0, 64, 127
2, 464880, Note_on_c, 0, 58, 0
2, 464899, Note_on_c, 0, 59, 77
2, 464969, Note_on_c, 0, 59, 0
2, 465122, Note_on_c, 0, 49, 65
2, 465136, Note_on_c, 0, 76, 89
2, 465140, Control_c, 0, 64, 91
2, 465161, Control_c, 0, 64, 75
2, 465168, Note_on_c, 0, 71, 0
2, 465178, Control_c, 0, 64, 65
2, 465196, Control_c, 0, 64, 58
2, 465216, Control_c, 0, 64, 54
2, 465234, Control_c, 0, 64, 51
2, 465256, Control_c, 0, 64, 47
2, 465275, Control_c, 0, 64, 40
2, 465296, Control_c, 0, 64, 27
2, 465311, Control_c, 0, 64, 0
2, 465499, Note_on_c, 0, 49, 0
2, 465518, Note_on_c, 0, 51, 64
2, 465668, Note_on_c, 0, 51, 0
2, 465708, Note_on_c, 0, 52, 59
2, 465862, Note_on_c, 0, 52, 0
2, 465916, Note_on_c, 0, 42, 64
2, 466283, Note_on_c, 0, 42, 0
2, 466323, Note_on_c, 0, 54, 48
2, 466323, Note_on_c, 0, 75, 66
2, 466341, Note_on_c, 0, 76, 0
2, 466727, Note_on_c, 0, 73, 64
2, 466735, Note_on_c, 0, 70, 56
2, 466775, Note_on_c, 0, 75, 0
2, 467109, Note_on_c, 0, 54, 0
2, 467118, Control_c, 0, 64, 21
2, 467136, Control_c, 0, 64, 38
2, 467151, Note_on_c, 0, 55, 42
2, 467156, Control_c, 0, 64, 51
2, 467175, Control_c, 0, 64, 60
2, 467193, Control_c, 0, 64, 63
2, 467211, Control_c, 0, 64, 66
2, 467232, Control_c, 0, 64, 71
2, 467252, Control_c, 0, 64, 81
2, 467252, Note_on_c, 0, 70, 0
2, 467271, Control_c, 0, 64, 102
2, 467288, Control_c, 0, 64, 127
2, 467315, Note_on_c, 0, 55, 0
2, 467541, Control_c, 0, 64, 98
2, 467558, Control_c, 0, 64, 84
2, 467577, Control_c, 0, 64, 72
2, 467581, Note_on_c, 0, 71, 51
2, 467590, Note_on_c, 0, 68, 46
2, 467599, Control_c, 0, 64, 64
2, 467617, Control_c, 0, 64, 58
2, 467622, Note_on_c, 0, 56, 33
2, 467633, Control_c, 0, 64, 54
2, 467653, Control_c, 0, 64, 51
2, 467666, Note_on_c, 0, 73, 0
2, 467674, Control_c, 0, 64, 49
2, 467693, Control_c, 0, 64, 47
2, 467710, Control_c, 0, 64, 44
2, 467730, Control_c, 0, 64, 41
2, 467750, Control_c, 0, 64, 37
2, 467772, Control_c, 0, 64, 35
2, 467787, Control_c, 0, 64, 34
2, 467884, Control_c, 0, 64, 35
2, 467905, Control_c, 0, 64, 37
2, 467922, Control_c, 0, 64, 41
2, 467942, Control_c, 0, 64, 48
2, 467964, Control_c, 0, 64, 55
2, 467982, Control_c, 0, 64, 59
2, 468002, Control_c, 0, 64, 61
2, 468019, Control_c, 0, 64, 62
2, 468037, Control_c, 0, 64, 64
2, 468046, Note_on_c, 0, 55, 49
2, 468055, Note_on_c, 0, 56, 0
2, 468059, Control_c, 0, 64, 67
2, 468076, Control_c, 0, 64, 72
2, 468098, Control_c, 0, 64, 80
2, 468116, Control_c, 0, 64, 90
2, 468134, Control_c, 0, 64, 95
2, 468152, Control_c, 0, 64, 97
2, 468249, Control_c, 0, 64, 96
2, 468288, Control_c, 0, 64, 95
2, 468305, Control_c, 0, 64, 93
2, 468326, Control_c, 0, 64, 91
2, 468347, Control_c, 0, 64, 88
2, 468367, Control_c, 0, 64, 83
2, 468367, Note_on_c, 0, 55, 0
2, 468385, Control_c, 0, 64, 78
2, 468403, Control_c, 0, 64, 72
2, 468403, Note_on_c, 0, 76, 76
2, 468407, Note_on_c, 0, 71, 0
2, 468420, Note_on_c, 0, 56, 46
2, 468424, Control_c, 0, 64, 67
2, 468441, Control_c, 0, 64, 62
2, 468450, Note_on_c, 0, 68, 0
2, 468462, Control_c, 0, 64, 58
2, 468480, Control_c, 0, 64, 55
2, 468500, Control_c, 0, 64, 53
2, 468518, Control_c, 0, 64, 51
2, 468538, Control_c, 0, 64, 50
2, 468556, Control_c, 0, 64, 49
2, 468575, Control_c, 0, 64, 48
2, 468597, Control_c, 0, 64, 46
2, 468614, Control_c, 0, 64, 44
2, 468632, Control_c, 0, 64, 43
2, 468689, Control_c, 0, 64, 42
2, 468709, Control_c, 0, 64, 41
2, 468731, Control_c, 0, 64, 39
2, 468770, Note_on_c, 0, 56, 0
2, 468803, Note_on_c, 0, 58, 58
2, 469214, Note_on_c, 0, 66, 75
2, 469225, Note_on_c, 0, 58, 0
2, 469232, Note_on_c, 0, 59, 49
2, 469299, Note_on_c, 0, 76, 0
2, 469573, Control_c, 0, 64, 41
2, 469594, Control_c, 0, 64, 46
2, 469613, Control_c, 0, 64, 53
2, 469617, Note_on_c, 0, 59, 0
2, 469622, Note_on_c, 0, 74, 73
2, 469635, Control_c, 0, 64, 58
2, 469635, Note_on_c, 0, 58, 48
2, 469652, Control_c, 0, 64, 61
2, 469669, Control_c, 0, 64, 64
2, 469675, Note_on_c, 0, 66, 0
2, 469691, Control_c, 0, 64, 66
2, 469709, Control_c, 0, 64, 70
2, 469728, Control_c, 0, 64, 77
2, 469747, Control_c, 0, 64, 87
2, 469765, Control_c, 0, 64, 100
2, 469786, Control_c, 0, 64, 120
2, 469808, Control_c, 0, 64, 127
2, 469979, Control_c, 0, 64, 109
2, 469996, Control_c, 0, 64, 94
2, 470016, Control_c, 0, 64, 81
2, 470020, Note_on_c, 0, 74, 0
2, 470024, Note_on_c, 0, 75, 69
2, 470036, Control_c, 0, 64, 70
2, 470040, Note_on_c, 0, 56, 47
2, 470040, Note_on_c, 0, 71, 65
2, 470057, Control_c, 0, 64, 63
2, 470057, Note_on_c, 0, 58, 0
2, 470073, Control_c, 0, 64, 57
2, 470094, Control_c, 0, 64, 54
2, 470112, Control_c, 0, 64, 53
2, 470171, Control_c, 0, 64, 52
2, 470191, Control_c, 0, 64, 51
2, 470210, Control_c, 0, 64, 50
2, 470227, Control_c, 0, 64, 49
2, 470266, Control_c, 0, 64, 48
2, 470303, Control_c, 0, 64, 47
2, 470324, Control_c, 0, 64, 45
2, 470340, Control_c, 0, 64, 44
2, 470364, Control_c, 0, 64, 42
2, 470368, Note_on_c, 0, 56, 0
2, 470384, Control_c, 0, 64, 41
2, 470406, Note_on_c, 0, 54, 53
2, 470648, Control_c, 0, 64, 40
2, 470708, Note_on_c, 0, 54, 0
2, 470746, Control_c, 0, 64, 41
2, 470763, Control_c, 0, 64, 46
2, 470783, Control_c, 0, 64, 55
2, 470795, Note_on_c, 0, 53, 64
2, 470803, Control_c, 0, 64, 62
2, 470822, Control_c, 0, 64, 66
2, 470840, Control_c, 0, 64, 71
2, 470860, Control_c, 0, 64, 85
2, 470877, Note_on_c, 0, 71, 0
2, 470881, Control_c, 0, 64, 127
2, 470926, Note_on_c, 0, 75, 0
2, 471110, Note_on_c, 0, 53, 0
2, 471182, Note_on_c, 0, 75, 90
2, 471202, Note_on_c, 0, 54, 64
2, 471569, Control_c, 0, 64, 91
2, 471576, Note_on_c, 0, 54, 0
2, 471580, Note_on_c, 0, 73, 90
2, 471585, Note_on_c, 0, 80, 82
2, 471590, Control_c, 0, 64, 73
2, 471610, Control_c, 0, 64, 62
2, 471615, Note_on_c, 0, 53, 38
2, 471624, Note_on_c, 0, 75, 0
2, 471628, Control_c, 0, 64, 57
2, 471647, Control_c, 0, 64, 55
2, 471681, Note_on_c, 0, 52, 3
2, 471725, Control_c, 0, 64, 53
2, 471729, Note_on_c, 0, 52, 0
2, 471744, Control_c, 0, 64, 52
2, 471820, Control_c, 0, 64, 51
2, 471858, Control_c, 0, 64, 50
2, 471879, Control_c, 0, 64, 49
2, 471897, Control_c, 0, 64, 48
2, 471950, Note_on_c, 0, 53, 0
2, 471956, Control_c, 0, 64, 47
2, 471956, Note_on_c, 0, 71, 75
2, 471983, Note_on_c, 0, 51, 47
2, 471987, Note_on_c, 0, 73, 0
2, 471996, Control_c, 0, 64, 46
2, 472014, Control_c, 0, 64, 45
2, 472031, Control_c, 0, 64, 44
2, 472070, Control_c, 0, 64, 43
2, 472107, Control_c, 0, 64, 42
2, 472128, Control_c, 0, 64, 41
2, 472146, Control_c, 0, 64, 40
2, 472165, Control_c, 0, 64, 38
2, 472184, Control_c, 0, 64, 37
2, 472205, Control_c, 0, 64, 35
2, 472223, Control_c, 0, 64, 31
2, 472243, Control_c, 0, 64, 24
2, 472263, Control_c, 0, 64, 9
2, 472281, Control_c, 0, 64, 0
2, 472303, Note_on_c, 0, 51, 0
2, 472387, Note_on_c, 0, 70, 63
2, 472401, Note_on_c, 0, 50, 42
2, 472421, Note_on_c, 0, 71, 0
2, 472433, Control_c, 0, 64, 36
2, 472456, Control_c, 0, 64, 52
2, 472474, Control_c, 0, 64, 61
2, 472492, Control_c, 0, 64, 65
2, 472511, Control_c, 0, 64, 68
2, 472529, Control_c, 0, 64, 75
2, 472545, Note_on_c, 0, 50, 0
2, 472550, Control_c, 0, 64, 90
2, 472570, Control_c, 0, 64, 127
2, 472588, Note_on_c, 0, 70, 0
2, 472603, Note_on_c, 0, 80, 0
2, 472800, Note_on_c, 0, 80, 84
2, 472804, Note_on_c, 0, 62, 49
2, 472804, Note_on_c, 0, 71, 83
2, 472966, Note_on_c, 0, 62, 0
2, 472966, Note_on_c, 0, 63, 76
2, 473037, Note_on_c, 0, 80, 0
2, 473087, Control_c, 0, 64, 111
2, 473107, Control_c, 0, 64, 98
2, 473131, Control_c, 0, 64, 85
2, 473131, Note_on_c, 0, 71, 0
2, 473146, Control_c, 0, 64, 75
2, 473158, Note_on_c, 0, 79, 86
2, 473164, Control_c, 0, 64, 67
2, 473168, Note_on_c, 0, 73, 79
2, 473175, Note_on_c, 0, 63, 0
2, 473183, Control_c, 0, 64, 60
2, 473196, Note_on_c, 0, 64, 62
2, 473204, Control_c, 0, 64, 54
2, 473225, Control_c, 0, 64, 50
2, 473240, Control_c, 0, 64, 46
2, 473260, Control_c, 0, 64, 41
2, 473281, Control_c, 0, 64, 35
2, 473299, Control_c, 0, 64, 27
2, 473316, Control_c, 0, 64, 22
2, 473338, Control_c, 0, 64, 20
2, 473375, Control_c, 0, 64, 19
2, 473395, Control_c, 0, 64, 17
2, 473413, Control_c, 0, 64, 11
2, 473432, Control_c, 0, 64, 0
2, 473529, Control_c, 0, 64, 11
2, 473549, Control_c, 0, 64, 23
2, 473571, Control_c, 0, 64, 37
2, 473571, Note_on_c, 0, 78, 72
2, 473593, Control_c, 0, 64, 50
2, 473593, Note_on_c, 0, 58, 54
2, 473593, Note_on_c, 0, 64, 0
2, 473593, Note_on_c, 0, 79, 0
2, 473607, Control_c, 0, 64, 60
2, 473627, Control_c, 0, 64, 64
2, 473645, Control_c, 0, 64, 66
2, 473664, Control_c, 0, 64, 72
2, 473681, Control_c, 0, 64, 82
2, 473703, Note_on_c, 0, 73, 0
2, 473707, Control_c, 0, 64, 95
2, 473711, Note_on_c, 0, 78, 0
2, 473722, Control_c, 0, 64, 127
2, 473858, Note_on_c, 0, 58, 0
2, 473913, Control_c, 0, 64, 97
2, 473935, Control_c, 0, 64, 76
2, 473952, Control_c, 0, 64, 62
2, 473957, Note_on_c, 0, 59, 52
2, 473957, Note_on_c, 0, 68, 86
2, 473970, Control_c, 0, 64, 51
2, 473990, Control_c, 0, 64, 45
2, 474029, Control_c, 0, 64, 46
2, 474047, Control_c, 0, 64, 48
2, 474067, Control_c, 0, 64, 51
2, 474087, Control_c, 0, 64, 55
2, 474105, Control_c, 0, 64, 58
2, 474123, Control_c, 0, 64, 60
2, 474143, Control_c, 0, 64, 61
2, 474162, Control_c, 0, 64, 63
2, 474184, Control_c, 0, 64, 64
2, 474203, Control_c, 0, 64, 67
2, 474219, Control_c, 0, 64, 70
2, 474239, Control_c, 0, 64, 75
2, 474257, Control_c, 0, 64, 79
2, 474279, Control_c, 0, 64, 85
2, 474296, Control_c, 0, 64, 90
2, 474317, Control_c, 0, 64, 95
2, 474321, Note_on_c, 0, 59, 0
2, 474334, Control_c, 0, 64, 100
2, 474354, Control_c, 0, 64, 106
2, 474359, Note_on_c, 0, 60, 55
2, 474359, Note_on_c, 0, 78, 83
2, 474375, Control_c, 0, 64, 115
2, 474392, Control_c, 0, 64, 127
2, 474456, Note_on_c, 0, 68, 0
2, 474512, Note_on_c, 0, 78, 0
2, 474741, Control_c, 0, 64, 105
2, 474746, Note_on_c, 0, 60, 0
2, 474746, Note_on_c, 0, 77, 79
2, 474755, Note_on_c, 0, 73, 87
2, 474757, Control_c, 0, 64, 92
2, 474773, Note_on_c, 0, 61, 51
2, 474779, Control_c, 0, 64, 78
2, 474795, Control_c, 0, 64, 69
2, 474817, Control_c, 0, 64, 62
2, 474835, Control_c, 0, 64, 57
2, 474853, Control_c, 0, 64, 54
2, 474893, Control_c, 0, 64, 53
2, 474913, Control_c, 0, 64, 51
2, 474930, Control_c, 0, 64, 47
2, 474950, Control_c, 0, 64, 43
2, 474972, Control_c, 0, 64, 39
2, 474987, Control_c, 0, 64, 36
2, 475007, Control_c, 0, 64, 35
2, 475167, Note_on_c, 0, 61, 0
2, 475190, Note_on_c, 0, 58, 48
2, 475190, Note_on_c, 0, 76, 73
2, 475221, Control_c, 0, 64, 34
2, 475234, Note_on_c, 0, 77, 0
2, 475256, Control_c, 0, 64, 33
2, 475277, Control_c, 0, 64, 32
2, 475295, Control_c, 0, 64, 31
2, 475314, Control_c, 0, 64, 30
2, 475336, Control_c, 0, 64, 28
2, 475354, Control_c, 0, 64, 27
2, 475372, Control_c, 0, 64, 25
2, 475392, Control_c, 0, 64, 23
2, 475411, Control_c, 0, 64, 20
2, 475432, Control_c, 0, 64, 18
2, 475448, Control_c, 0, 64, 12
2, 475470, Control_c, 0, 64, 0
2, 475550, Note_on_c, 0, 58, 0
2, 475570, Note_on_c, 0, 55, 50
2, 475575, Note_on_c, 0, 75, 69
2, 475591, Note_on_c, 0, 76, 0
2, 475898, Note_on_c, 0, 55, 0
2, 475936, Note_on_c, 0, 73, 0
2, 475945, Note_on_c, 0, 71, 72
2, 475959, Note_on_c, 0, 56, 46
2, 476329, Note_on_c, 0, 70, 65
2, 476335, Note_on_c, 0, 73, 65
2, 476350, Note_on_c, 0, 71, 0
2, 476359, Note_on_c, 0, 75, 0
2, 476682, Note_on_c, 0, 56, 0
2, 476735, Control_c, 0, 64, 26
2, 476739, Note_on_c, 0, 55, 42
2, 476755, Control_c, 0, 64, 41
2, 476777, Control_c, 0, 64, 53
2, 476793, Control_c, 0, 64, 61
2, 476812, Control_c, 0, 64, 63
2, 476831, Control_c, 0, 64, 64
2, 476849, Control_c, 0, 64, 66
2, 476872, Control_c, 0, 64, 68
2, 476889, Control_c, 0, 64, 72
2, 476909, Control_c, 0, 64, 77
2, 476927, Control_c, 0, 64, 83
2, 476948, Control_c, 0, 64, 89
2, 476967, Control_c, 0, 64, 94
2, 476985, Control_c, 0, 64, 95
2, 477023, Control_c, 0, 64, 94
2, 477043, Control_c, 0, 64, 93
2, 477061, Control_c, 0, 64, 90
2, 477082, Control_c, 0, 64, 83
2, 477100, Control_c, 0, 64, 73
2, 477113, Note_on_c, 0, 55, 0
2, 477122, Control_c, 0, 64, 62
2, 477142, Control_c, 0, 64, 52
2, 477155, Note_on_c, 0, 71, 65
2, 477160, Control_c, 0, 64, 42
2, 477176, Control_c, 0, 64, 33
2, 477176, Note_on_c, 0, 56, 38
2, 477196, Control_c, 0, 64, 32
2, 477235, Control_c, 0, 64, 36
2, 477255, Control_c, 0, 64, 45
2, 477269, Note_on_c, 0, 73, 0
2, 477274, Control_c, 0, 64, 54
2, 477292, Control_c, 0, 64, 60
2, 477312, Control_c, 0, 64, 63
2, 477330, Control_c, 0, 64, 65
2, 477350, Control_c, 0, 64, 67
2, 477370, Control_c, 0, 64, 71
2, 477389, Control_c, 0, 64, 79
2, 477407, Control_c, 0, 64, 92
2, 477427, Control_c, 0, 64, 115
2, 477446, Control_c, 0, 64, 127
2, 477509, Note_on_c, 0, 70, 0
2, 477529, Note_on_c, 0, 56, 0
2, 477559, Note_on_c, 0, 54, 55
2, 477564, Note_on_c, 0, 63, 76
2, 477906, Control_c, 0, 64, 101
2, 477929, Control_c, 0, 64, 74
2, 477948, Control_c, 0, 64, 61
2, 477953, Note_on_c, 0, 68, 84
2, 477965, Control_c, 0, 64, 48
2, 477969, Note_on_c, 0, 54, 0
2, 477974, Note_on_c, 0, 52, 58
2, 477983, Control_c, 0, 64, 34
2, 478003, Control_c, 0, 64, 27
2, 478007, Note_on_c, 0, 71, 0
2, 478017, Note_on_c, 0, 63, 0
2, 478042, Control_c, 0, 64, 29
2, 478059, Control_c, 0, 64, 38
2, 478081, Control_c, 0, 64, 52
2, 478099, Control_c, 0, 64, 60
2, 478117, Control_c, 0, 64, 64
2, 478136, Control_c, 0, 64, 66
2, 478155, Control_c, 0, 64, 69
2, 478177, Control_c, 0, 64, 75
2, 478197, Control_c, 0, 64, 84
2, 478214, Control_c, 0, 64, 100
2, 478233, Control_c, 0, 64, 127
2, 478345, Note_on_c, 0, 52, 0
2, 478364, Note_on_c, 0, 71, 73
2, 478367, Note_on_c, 0, 51, 58
2, 478488, Note_on_c, 0, 51, 0
2, 478677, Control_c, 0, 64, 108
2, 478695, Control_c, 0, 64, 96
2, 478715, Control_c, 0, 64, 88
2, 478733, Control_c, 0, 64, 81
2, 478756, Control_c, 0, 64, 74
2, 478756, Note_on_c, 0, 49, 49
2, 478773, Control_c, 0, 64, 67
2, 478778, Note_on_c, 0, 70, 68
2, 478793, Control_c, 0, 64, 62
2, 478810, Control_c, 0, 64, 59
2, 478831, Control_c, 0, 64, 57
2, 478849, Control_c, 0, 64, 56
2, 478869, Control_c, 0, 64, 53
2, 478883, Note_on_c, 0, 71, 0
2, 478889, Control_c, 0, 64, 49
2, 478910, Control_c, 0, 64, 43
2, 478927, Control_c, 0, 64, 40
2, 478929, Note_on_c, 0, 68, 0
2, 478945, Control_c, 0, 64, 38
2, 478964, Control_c, 0, 64, 37
2, 478987, Control_c, 0, 64, 36
2, 479003, Control_c, 0, 64, 35
2, 479022, Control_c, 0, 64, 32
2, 479043, Control_c, 0, 64, 29
2, 479063, Control_c, 0, 64, 26
2, 479079, Control_c, 0, 64, 23
2, 479099, Control_c, 0, 64, 22
2, 479103, Note_on_c, 0, 49, 0
2, 479119, Control_c, 0, 64, 21
2, 479124, Note_on_c, 0, 68, 66
2, 479136, Note_on_c, 0, 50, 43
2, 479174, Control_c, 0, 64, 25
2, 479194, Control_c, 0, 64, 33
2, 479213, Control_c, 0, 64, 44
2, 479235, Control_c, 0, 64, 54
2, 479255, Control_c, 0, 64, 60
2, 479274, Control_c, 0, 64, 61
2, 479292, Control_c, 0, 64, 62
2, 479310, Control_c, 0, 64, 63
2, 479329, Control_c, 0, 64, 64
2, 479348, Control_c, 0, 64, 65
2, 479387, Control_c, 0, 64, 66
2, 479424, Control_c, 0, 64, 65
2, 479444, Control_c, 0, 64, 63
2, 479462, Control_c, 0, 64, 59
2, 479483, Control_c, 0, 64, 53
2, 479491, Note_on_c, 0, 50, 0
2, 479501, Control_c, 0, 64, 47
2, 479520, Control_c, 0, 64, 43
2, 479538, Note_on_c, 0, 68, 0
2, 479542, Control_c, 0, 64, 42
2, 479549, Note_on_c, 0, 51, 44
2, 479559, Control_c, 0, 64, 43
2, 479559, Note_on_c, 0, 66, 57
2, 479578, Control_c, 0, 64, 49
2, 479596, Control_c, 0, 64, 58
2, 479618, Control_c, 0, 64, 63
2, 479636, Control_c, 0, 64, 66
2, 479657, Control_c, 0, 64, 69
2, 479675, Control_c, 0, 64, 75
2, 479693, Note_on_c, 0, 70, 0
2, 479698, Control_c, 0, 64, 81
2, 479714, Control_c, 0, 64, 88
2, 479732, Control_c, 0, 64, 97
2, 479751, Control_c, 0, 64, 107
2, 479770, Control_c, 0, 64, 127
2, 479946, Note_on_c, 0, 51, 0
2, 479951, Note_on_c, 0, 78, 66
2, 479977, Note_on_c, 0, 46, 47
2, 480036, Note_on_c, 0, 78, 0
2, 480071, Note_on_c, 0, 66, 0
2, 480158, Control_c, 0, 64, 120
2, 480176, Control_c, 0, 64, 116
2, 480196, Control_c, 0, 64, 112
2, 480213, Control_c, 0, 64, 108
2, 480233, Control_c, 0, 64, 103
2, 480251, Control_c, 0, 64, 98
2, 480269, Control_c, 0, 64, 93
2, 480289, Control_c, 0, 64, 86
2, 480309, Control_c, 0, 64, 80
2, 480328, Control_c, 0, 64, 73
2, 480347, Control_c, 0, 64, 67
2, 480367, Control_c, 0, 64, 61
2, 480371, Note_on_c, 0, 47, 40
2, 480371, Note_on_c, 0, 68, 59
2, 480385, Control_c, 0, 64, 55
2, 480389, Note_on_c, 0, 46, 0
2, 480405, Control_c, 0, 64, 51
2, 480423, Control_c, 0, 64, 46
2, 480443, Control_c, 0, 64, 42
2, 480461, Control_c, 0, 64, 39
2, 480481, Control_c, 0, 64, 35
2, 480500, Control_c, 0, 64, 30
2, 480518, Control_c, 0, 64, 25
2, 480538, Control_c, 0, 64, 22
2, 480558, Control_c, 0, 64, 20
2, 480579, Control_c, 0, 64, 19
2, 480597, Control_c, 0, 64, 18
2, 480616, Control_c, 0, 64, 16
2, 480634, Control_c, 0, 64, 13
2, 480655, Control_c, 0, 64, 10
2, 480672, Control_c, 0, 64, 0
2, 480750, Note_on_c, 0, 47, 0
2, 480786, Note_on_c, 0, 48, 39
2, 480791, Note_on_c, 0, 66, 44
2, 481161, Note_on_c, 0, 66, 0
2, 481172, Note_on_c, 0, 48, 0
2, 481192, Note_on_c, 0, 49, 37
2, 481210, Note_on_c, 0, 64, 44
2, 481567, Note_on_c, 0, 64, 0
2, 481594, Note_on_c, 0, 63, 44
2, 481601, Note_on_c, 0, 44, 42
2, 481603, Note_on_c, 0, 49, 0
2, 482018, Note_on_c, 0, 63, 0
2, 482058, Note_on_c, 0, 46, 40
2, 482069, Note_on_c, 0, 62, 39
2, 482097, Note_on_c, 0, 44, 0
2, 482459, Control_c, 0, 64, 25
2, 482477, Control_c, 0, 64, 44
2, 482497, Control_c, 0, 64, 56
2, 482517, Note_on_c, 0, 68, 0
2, 482522, Control_c, 0, 64, 61
2, 482528, Note_on_c, 0, 66, 52
2, 482537, Control_c, 0, 64, 62
2, 482554, Control_c, 0, 64, 64
2, 482574, Control_c, 0, 64, 67
2, 482596, Control_c, 0, 64, 69
2, 482596, Note_on_c, 0, 62, 0
2, 482612, Control_c, 0, 64, 71
2, 482632, Control_c, 0, 64, 73
2, 482679, Note_on_c, 0, 66, 0
2, 482696, Note_on_c, 0, 65, 55
2, 482707, Control_c, 0, 64, 74
2, 482726, Control_c, 0, 64, 75
2, 482764, Control_c, 0, 64, 74
2, 482801, Control_c, 0, 64, 73
2, 482821, Control_c, 0, 64, 71
2, 482841, Control_c, 0, 64, 68
2, 482862, Control_c, 0, 64, 66
2, 482879, Control_c, 0, 64, 64
2, 482885, Note_on_c, 0, 65, 0
2, 482898, Control_c, 0, 64, 62
2, 482917, Control_c, 0, 64, 60
2, 482926, Note_on_c, 0, 66, 56
2, 482931, Note_on_c, 0, 63, 53
2, 482936, Control_c, 0, 64, 59
2, 482955, Control_c, 0, 64, 58
2, 482976, Control_c, 0, 64, 57
2, 483012, Control_c, 0, 64, 55
2, 483032, Control_c, 0, 64, 54
2, 483069, Control_c, 0, 64, 53
2, 483092, Control_c, 0, 64, 52
2, 483128, Control_c, 0, 64, 51
2, 483147, Control_c, 0, 64, 50
2, 483169, Control_c, 0, 64, 48
2, 483187, Control_c, 0, 64, 46
2, 483206, Control_c, 0, 64, 43
2, 483225, Control_c, 0, 64, 41
2, 483246, Control_c, 0, 64, 39
2, 483263, Control_c, 0, 64, 38
2, 483301, Control_c, 0, 64, 37
2, 483308, Note_on_c, 0, 66, 0
2, 483309, Note_on_c, 0, 68, 65
2, 483409, Note_on_c, 0, 46, 0
2, 483418, Control_c, 0, 64, 36
2, 483436, Control_c, 0, 64, 35
2, 483474, Control_c, 0, 64, 34
2, 483695, Note_on_c, 0, 68, 0
2, 483709, Note_on_c, 0, 70, 68
2, 483974, Control_c, 0, 64, 35
2, 484012, Control_c, 0, 64, 36
2, 484023, Note_on_c, 0, 63, 0
2, 484032, Control_c, 0, 64, 38
2, 484051, Control_c, 0, 64, 43
2, 484070, Control_c, 0, 64, 52
2, 484089, Control_c, 0, 64, 60
2, 484105, Note_on_c, 0, 53, 81
2, 484105, Note_on_c, 0, 62, 54
2, 484107, Control_c, 0, 64, 64
2, 484127, Control_c, 0, 64, 68
2, 484149, Control_c, 0, 64, 75
2, 484166, Control_c, 0, 64, 88
2, 484184, Control_c, 0, 64, 127
2, 484202, Note_on_c, 0, 53, 0
2, 484264, Note_on_c, 0, 62, 0
2, 484298, Note_on_c, 0, 60, 60
2, 484510, Control_c, 0, 64, 97
2, 484525, Note_on_c, 0, 60, 0
2, 484529, Control_c, 0, 64, 74
2, 484547, Note_on_c, 0, 58, 84
2, 484551, Control_c, 0, 64, 60
2, 484569, Control_c, 0, 64, 50
2, 484584, Note_on_c, 0, 62, 60
2, 484588, Control_c, 0, 64, 46
2, 484607, Control_c, 0, 64, 47
2, 484626, Control_c, 0, 64, 50
2, 484648, Control_c, 0, 64, 54
2, 484664, Control_c, 0, 64, 58
2, 484685, Control_c, 0, 64, 62
2, 484702, Control_c, 0, 64, 64
2, 484723, Control_c, 0, 64, 68
2, 484741, Control_c, 0, 64, 75
2, 484761, Control_c, 0, 64, 90
2, 484779, Control_c, 0, 64, 127
2, 484818, Note_on_c, 0, 62, 0
2, 484834, Note_on_c, 0, 70, 0
2, 484959, Note_on_c, 0, 65, 80
2, 485033, Note_on_c, 0, 65, 0
2, 485353, Note_on_c, 0, 70, 88
2, 485353, Note_on_c, 0, 77, 91
2, 485396, Control_c, 0, 64, 101
2, 485414, Control_c, 0, 64, 84
2, 485434, Control_c, 0, 64, 72
2, 485453, Control_c, 0, 64, 64
2, 485471, Control_c, 0, 64, 58
2, 485490, Control_c, 0, 64, 54
2, 485511, Control_c, 0, 64, 52
2, 485547, Control_c, 0, 64, 51
2, 485566, Control_c, 0, 64, 50
2, 485589, Control_c, 0, 64, 49
2, 485604, Control_c, 0, 64, 48
2, 485623, Control_c, 0, 64, 47
2, 485741, Control_c, 0, 64, 46
2, 485774, Note_on_c, 0, 59, 81
2, 485803, Note_on_c, 0, 58, 0
2, 486049, Control_c, 0, 64, 47
2, 486173, Note_on_c, 0, 58, 79
2, 486184, Note_on_c, 0, 59, 0
2, 486453, Control_c, 0, 64, 48
2, 486469, Control_c, 0, 64, 49
2, 486489, Control_c, 0, 64, 51
2, 486507, Control_c, 0, 64, 55
2, 486527, Control_c, 0, 64, 58
2, 486551, Control_c, 0, 64, 61
2, 486551, Note_on_c, 0, 56, 71
2, 486551, Note_on_c, 0, 71, 93
2, 486556, Note_on_c, 0, 77, 0
2, 486562, Note_on_c, 0, 58, 0
2, 486567, Control_c, 0, 64, 63
2, 486577, Note_on_c, 0, 70, 0
2, 486587, Control_c, 0, 64, 64
2, 486606, Control_c, 0, 64, 68
2, 486626, Control_c, 0, 64, 73
2, 486642, Control_c, 0, 64, 80
2, 486661, Control_c, 0, 64, 90
2, 486681, Control_c, 0, 64, 105
2, 486698, Control_c, 0, 64, 127
2, 486707, Note_on_c, 0, 71, 0
2, 486971, Control_c, 0, 64, 104
2, 486971, Note_on_c, 0, 70, 94
2, 486971, Note_on_c, 0, 82, 93
2, 486987, Control_c, 0, 64, 82
2, 486987, Note_on_c, 0, 54, 74
2, 487008, Control_c, 0, 64, 68
2, 487013, Note_on_c, 0, 56, 0
2, 487026, Control_c, 0, 64, 58
2, 487046, Control_c, 0, 64, 51
2, 487064, Control_c, 0, 64, 49
2, 487122, Control_c, 0, 64, 47
2, 487141, Control_c, 0, 64, 44
2, 487161, Control_c, 0, 64, 40
2, 487180, Control_c, 0, 64, 38
2, 487202, Control_c, 0, 64, 37
2, 487391, Note_on_c, 0, 56, 81
2, 487412, Control_c, 0, 64, 38
2, 487432, Note_on_c, 0, 54, 0
2, 487449, Control_c, 0, 64, 39
2, 487563, Control_c, 0, 64, 40
2, 487622, Control_c, 0, 64, 41
2, 487642, Control_c, 0, 64, 42
2, 487659, Control_c, 0, 64, 43
2, 487681, Control_c, 0, 64, 45
2, 487701, Control_c, 0, 64, 49
2, 487718, Control_c, 0, 64, 55
2, 487736, Control_c, 0, 64, 59
2, 487756, Control_c, 0, 64, 61
2, 487774, Control_c, 0, 64, 63
2, 487783, Note_on_c, 0, 58, 86
2, 487795, Control_c, 0, 64, 65
2, 487812, Control_c, 0, 64, 69
2, 487817, Note_on_c, 0, 56, 0
2, 487832, Control_c, 0, 64, 77
2, 487852, Control_c, 0, 64, 93
2, 487870, Control_c, 0, 64, 127
2, 487914, Note_on_c, 0, 82, 0
2, 487932, Note_on_c, 0, 70, 0
2, 488184, Note_on_c, 0, 68, 87
2, 488326, Note_on_c, 0, 68, 0
2, 488524, Control_c, 0, 64, 112
2, 488544, Control_c, 0, 64, 95
2, 488562, Control_c, 0, 64, 81
2, 488582, Control_c, 0, 64, 69
2, 488602, Control_c, 0, 64, 59
2, 488602, Note_on_c, 0, 51, 76
2, 488602, Note_on_c, 0, 66, 78
2, 488620, Control_c, 0, 64, 47
2, 488638, Control_c, 0, 64, 30
2, 488643, Note_on_c, 0, 58, 0
2, 488659, Control_c, 0, 64, 12
2, 488676, Control_c, 0, 64, 0
2, 488738, Control_c, 0, 64, 13
2, 488753, Control_c, 0, 64, 23
2, 488772, Control_c, 0, 64, 34
2, 488794, Control_c, 0, 64, 46
2, 488811, Control_c, 0, 64, 57
2, 488834, Control_c, 0, 64, 62
2, 488853, Control_c, 0, 64, 64
2, 488872, Control_c, 0, 64, 66
2, 488888, Control_c, 0, 64, 69
2, 488908, Control_c, 0, 64, 76
2, 488918, Note_on_c, 0, 66, 0
2, 488929, Control_c, 0, 64, 88
2, 488946, Control_c, 0, 64, 109
2, 488964, Control_c, 0, 64, 127
2, 488984, Note_on_c, 0, 51, 0
2, 488997, Note_on_c, 0, 53, 76
2, 489171, Note_on_c, 0, 54, 84
2, 489213, Note_on_c, 0, 53, 0
2, 489350, Control_c, 0, 64, 107
2, 489369, Control_c, 0, 64, 80
2, 489384, Note_on_c, 0, 56, 91
2, 489389, Control_c, 0, 64, 64
2, 489398, Note_on_c, 0, 83, 90
2, 489404, Note_on_c, 0, 54, 0
2, 489409, Control_c, 0, 64, 50
2, 489425, Control_c, 0, 64, 20
2, 489446, Control_c, 0, 64, 0
2, 489579, Control_c, 0, 64, 37
2, 489598, Control_c, 0, 64, 56
2, 489619, Control_c, 0, 64, 65
2, 489637, Control_c, 0, 64, 73
2, 489657, Control_c, 0, 64, 89
2, 489675, Control_c, 0, 64, 127
2, 489694, Note_on_c, 0, 83, 0
2, 489843, Note_on_c, 0, 68, 77
2, 489952, Note_on_c, 0, 68, 0
2, 490196, Note_on_c, 0, 82, 93
2, 490200, Note_on_c, 0, 70, 91
2, 490271, Control_c, 0, 64, 116
2, 490290, Control_c, 0, 64, 88
2, 490310, Control_c, 0, 64, 73
2, 490328, Control_c, 0, 64, 63
2, 490346, Control_c, 0, 64, 55
2, 490366, Control_c, 0, 64, 49
2, 490389, Control_c, 0, 64, 43
2, 490406, Control_c, 0, 64, 35
2, 490423, Control_c, 0, 64, 20
2, 490443, Control_c, 0, 64, 0
2, 490588, Note_on_c, 0, 54, 78
2, 490630, Note_on_c, 0, 56, 0
2, 490635, Control_c, 0, 64, 26
2, 490656, Control_c, 0, 64, 45
2, 490674, Control_c, 0, 64, 57
2, 490694, Control_c, 0, 64, 62
2, 490713, Control_c, 0, 64, 64
2, 490731, Control_c, 0, 64, 67
2, 490750, Control_c, 0, 64, 72
2, 490771, Control_c, 0, 64, 80
2, 490788, Control_c, 0, 64, 91
2, 490808, Control_c, 0, 64, 104
2, 490827, Control_c, 0, 64, 127
2, 490900, Note_on_c, 0, 82, 0
2, 490904, Control_c, 0, 64, 118
2, 490923, Control_c, 0, 64, 103
2, 490943, Control_c, 0, 64, 92
2, 490963, Control_c, 0, 64, 81
2, 490974, Note_on_c, 0, 80, 90
2, 490985, Control_c, 0, 64, 71
2, 490985, Note_on_c, 0, 53, 74
2, 491003, Control_c, 0, 64, 64
2, 491020, Control_c, 0, 64, 58
2, 491020, Note_on_c, 0, 54, 0
2, 491038, Control_c, 0, 64, 55
2, 491059, Control_c, 0, 64, 54
2, 491076, Control_c, 0, 64, 53
2, 491096, Control_c, 0, 64, 51
2, 491115, Control_c, 0, 64, 48
2, 491134, Control_c, 0, 64, 43
2, 491156, Control_c, 0, 64, 39
2, 491174, Control_c, 0, 64, 35
2, 491192, Control_c, 0, 64, 31
2, 491211, Control_c, 0, 64, 27
2, 491230, Control_c, 0, 64, 21
2, 491250, Control_c, 0, 64, 13
2, 491268, Control_c, 0, 64, 0
2, 491348, Control_c, 0, 64, 15
2, 491366, Control_c, 0, 64, 36
2, 491384, Control_c, 0, 64, 53
2, 491398, Note_on_c, 0, 62, 78
2, 491405, Control_c, 0, 64, 63
2, 491408, Note_on_c, 0, 53, 0
2, 491421, Control_c, 0, 64, 69
2, 491441, Control_c, 0, 64, 80
2, 491464, Control_c, 0, 64, 104
2, 491481, Control_c, 0, 64, 127
2, 491492, Note_on_c, 0, 62, 0
2, 491783, Note_on_c, 0, 78, 91
2, 491788, Control_c, 0, 64, 122
2, 491797, Note_on_c, 0, 63, 66
2, 491808, Control_c, 0, 64, 88
2, 491830, Control_c, 0, 64, 71
2, 491830, Note_on_c, 0, 80, 0
2, 491845, Control_c, 0, 64, 60
2, 491864, Control_c, 0, 64, 54
2, 491882, Control_c, 0, 64, 51
2, 491903, Control_c, 0, 64, 49
2, 491923, Control_c, 0, 64, 47
2, 491941, Control_c, 0, 64, 42
2, 491959, Control_c, 0, 64, 32
2, 491979, Control_c, 0, 64, 15
2, 491999, Control_c, 0, 64, 0
2, 492094, Control_c, 0, 64, 9
2, 492112, Control_c, 0, 64, 21
2, 492133, Control_c, 0, 64, 35
2, 492153, Control_c, 0, 64, 49
2, 492166, Note_on_c, 0, 70, 0
2, 492170, Control_c, 0, 64, 58
2, 492191, Control_c, 0, 64, 62
2, 492195, Note_on_c, 0, 63, 0
2, 492206, Note_on_c, 0, 65, 68
2, 492210, Control_c, 0, 64, 64
2, 492229, Control_c, 0, 64, 66
2, 492249, Control_c, 0, 64, 70
2, 492269, Control_c, 0, 64, 76
2, 492287, Control_c, 0, 64, 85
2, 492307, Control_c, 0, 64, 102
2, 492325, Control_c, 0, 64, 127
2, 492372, Note_on_c, 0, 66, 83
2, 492373, Note_on_c, 0, 65, 0
2, 492499, Control_c, 0, 64, 122
2, 492517, Control_c, 0, 64, 98
2, 492537, Control_c, 0, 64, 83
2, 492554, Control_c, 0, 64, 73
2, 492576, Control_c, 0, 64, 64
2, 492576, Note_on_c, 0, 80, 96
2, 492589, Note_on_c, 0, 65, 70
2, 492589, Note_on_c, 0, 68, 68
2, 492597, Control_c, 0, 64, 57
2, 492610, Note_on_c, 0, 66, 0
2, 492614, Control_c, 0, 64, 51
2, 492628, Note_on_c, 0, 78, 0
2, 492633, Control_c, 0, 64, 47
2, 492652, Control_c, 0, 64, 44
2, 492670, Control_c, 0, 64, 42
2, 492690, Control_c, 0, 64, 38
2, 492709, Control_c, 0, 64, 33
2, 492729, Control_c, 0, 64, 25
2, 492749, Control_c, 0, 64, 16
2, 492768, Control_c, 0, 64, 11
2, 492805, Control_c, 0, 64, 8
2, 492823, Control_c, 0, 64, 0
2, 492999, Note_on_c, 0, 63, 67
2, 493013, Note_on_c, 0, 65, 0
2, 493398, Note_on_c, 0, 82, 84
2, 493414, Note_on_c, 0, 62, 57
2, 493466, Note_on_c, 0, 63, 0
2, 493466, Note_on_c, 0, 80, 0
2, 493787, Note_on_c, 0, 62, 0
2, 493793, Note_on_c, 0, 66, 76
2, 493814, Note_on_c, 0, 63, 68
2, 493832, Note_on_c, 0, 68, 0
2, 494204, Note_on_c, 0, 66, 0
2, 494217, Note_on_c, 0, 65, 68
2, 494534, Control_c, 0, 64, 16
2, 494554, Control_c, 0, 64, 32
2, 494571, Control_c, 0, 64, 47
2, 494584, Note_on_c, 0, 63, 0
2, 494593, Control_c, 0, 64, 60
2, 494614, Control_c, 0, 64, 66
2, 494630, Control_c, 0, 64, 71
2, 494639, Note_on_c, 0, 61, 45
2, 494643, Note_on_c, 0, 82, 0
2, 494648, Control_c, 0, 64, 88
2, 494668, Control_c, 0, 64, 127
2, 494794, Note_on_c, 0, 65, 0
2, 495014, Control_c, 0, 64, 99
2, 495018, Note_on_c, 0, 75, 87
2, 495034, Control_c, 0, 64, 75
2, 495045, Note_on_c, 0, 67, 65
2, 495052, Control_c, 0, 64, 62
2, 495073, Control_c, 0, 64, 53
2, 495089, Control_c, 0, 64, 47
2, 495112, Control_c, 0, 64, 45
2, 495145, Control_c, 0, 64, 47
2, 495169, Control_c, 0, 64, 51
2, 495185, Control_c, 0, 64, 57
2, 495205, Control_c, 0, 64, 61
2, 495226, Control_c, 0, 64, 64
2, 495243, Control_c, 0, 64, 66
2, 495262, Control_c, 0, 64, 70
2, 495281, Control_c, 0, 64, 77
2, 495303, Control_c, 0, 64, 83
2, 495321, Control_c, 0, 64, 90
2, 495341, Control_c, 0, 64, 95
2, 495359, Control_c, 0, 64, 96
2, 495376, Note_on_c, 0, 67, 0
2, 495381, Control_c, 0, 64, 97
2, 495418, Control_c, 0, 64, 98
2, 495426, Note_on_c, 0, 58, 75
2, 495436, Control_c, 0, 64, 99
2, 495440, Note_on_c, 0, 63, 67
2, 495454, Control_c, 0, 64, 100
2, 495477, Note_on_c, 0, 61, 0
2, 495494, Control_c, 0, 64, 101
2, 495532, Control_c, 0, 64, 102
2, 495536, Note_on_c, 0, 63, 0
2, 495630, Control_c, 0, 64, 101
2, 495634, Note_on_c, 0, 64, 65
2, 495648, Control_c, 0, 64, 100
2, 495663, Control_c, 0, 64, 99
2, 495685, Control_c, 0, 64, 97
2, 495705, Control_c, 0, 64, 93
2, 495722, Control_c, 0, 64, 90
2, 495744, Control_c, 0, 64, 86
2, 495763, Control_c, 0, 64, 81
2, 495782, Control_c, 0, 64, 75
2, 495801, Control_c, 0, 64, 67
2, 495820, Control_c, 0, 64, 61
2, 495829, Note_on_c, 0, 64, 0
2, 495832, Note_on_c, 0, 63, 86
2, 495840, Control_c, 0, 64, 54
2, 495858, Control_c, 0, 64, 50
2, 495871, Note_on_c, 0, 58, 0
2, 495878, Control_c, 0, 64, 44
2, 495895, Control_c, 0, 64, 39
2, 495916, Control_c, 0, 64, 32
2, 495936, Control_c, 0, 64, 22
2, 495954, Control_c, 0, 64, 13
2, 495974, Control_c, 0, 64, 0
2, 496290, Note_on_c, 0, 61, 44
2, 496650, Note_on_c, 0, 80, 79
2, 496666, Note_on_c, 0, 59, 50
2, 496666, Note_on_c, 0, 61, 0
2, 496673, Note_on_c, 0, 75, 0
2, 497053, Note_on_c, 0, 64, 70
2, 497060, Note_on_c, 0, 61, 68
2, 497062, Note_on_c, 0, 59, 0
2, 497095, Note_on_c, 0, 63, 0
2, 497434, Note_on_c, 0, 61, 0
2, 497440, Note_on_c, 0, 63, 71
2, 497444, Note_on_c, 0, 64, 0
2, 497453, Note_on_c, 0, 59, 65
2, 497817, Control_c, 0, 64, 18
2, 497833, Note_on_c, 0, 61, 68
2, 497834, Control_c, 0, 64, 42
2, 497839, Note_on_c, 0, 63, 0
2, 497844, Note_on_c, 0, 58, 63
2, 497856, Control_c, 0, 64, 58
2, 497872, Control_c, 0, 64, 66
2, 497884, Note_on_c, 0, 59, 0
2, 497893, Control_c, 0, 64, 73
2, 497913, Control_c, 0, 64, 91
2, 497934, Note_on_c, 0, 58, 0
2, 497934, Note_on_c, 0, 61, 0
2, 497938, Control_c, 0, 64, 127
2, 498163, Control_c, 0, 64, 116
2, 498182, Control_c, 0, 64, 85
2, 498201, Control_c, 0, 64, 69
2, 498220, Control_c, 0, 64, 60
2, 498227, Note_on_c, 0, 59, 65
2, 498241, Control_c, 0, 64, 52
2, 498252, Note_on_c, 0, 56, 59
2, 498258, Control_c, 0, 64, 47
2, 498278, Control_c, 0, 64, 44
2, 498294, Control_c, 0, 64, 40
2, 498319, Control_c, 0, 64, 33
2, 498334, Control_c, 0, 64, 23
2, 498354, Control_c, 0, 64, 0
2, 498606, Note_on_c, 0, 56, 0
2, 498622, Control_c, 0, 64, 12
2, 498633, Note_on_c, 0, 61, 63
2, 498644, Control_c, 0, 64, 37
2, 498644, Note_on_c, 0, 54, 66
2, 498653, Note_on_c, 0, 59, 0
2, 498661, Control_c, 0, 64, 54
2, 498679, Control_c, 0, 64, 63
2, 498699, Control_c, 0, 64, 67
2, 498720, Control_c, 0, 64, 76
2, 498738, Control_c, 0, 64, 97
2, 498757, Control_c, 0, 64, 127
2, 498757, Note_on_c, 0, 54, 0
2, 498815, Note_on_c, 0, 61, 0
2, 499007, Control_c, 0, 64, 112
2, 499025, Control_c, 0, 64, 88
2, 499048, Control_c, 0, 64, 72
2, 499055, Note_on_c, 0, 63, 68
2, 499055, Note_on_c, 0, 78, 95
2, 499059, Note_on_c, 0, 52, 58
2, 499065, Control_c, 0, 64, 62
2, 499083, Control_c, 0, 64, 54
2, 499104, Control_c, 0, 64, 48
2, 499121, Control_c, 0, 64, 45
2, 499137, Note_on_c, 0, 80, 0
2, 499141, Control_c, 0, 64, 42
2, 499158, Control_c, 0, 64, 38
2, 499179, Control_c, 0, 64, 32
2, 499199, Control_c, 0, 64, 23
2, 499220, Control_c, 0, 64, 13
2, 499237, Control_c, 0, 64, 0
2, 499410, Control_c, 0, 64, 11
2, 499430, Control_c, 0, 64, 27
2, 499450, Control_c, 0, 64, 42
2, 499453, Note_on_c, 0, 51, 76
2, 499466, Control_c, 0, 64, 56
2, 499490, Control_c, 0, 64, 63
2, 499505, Control_c, 0, 64, 66
2, 499525, Control_c, 0, 64, 72
2, 499529, Note_on_c, 0, 52, 0
2, 499545, Control_c, 0, 64, 93
2, 499563, Control_c, 0, 64, 127
2, 499660, Note_on_c, 0, 51, 0
2, 499672, Note_on_c, 0, 63, 0
2, 499852, Control_c, 0, 64, 87
2, 499870, Control_c, 0, 64, 69
2, 499879, Note_on_c, 0, 76, 90
2, 499881, Note_on_c, 0, 56, 65
2, 499890, Control_c, 0, 64, 59
2, 499890, Note_on_c, 0, 49, 63
2, 499910, Control_c, 0, 64, 49
2, 499915, Note_on_c, 0, 78, 0
2, 499928, Control_c, 0, 64, 39
2, 499950, Control_c, 0, 64, 27
2, 499965, Control_c, 0, 64, 15
2, 499986, Control_c, 0, 64, 8
2, 500007, Control_c, 0, 64, 0
2, 500044, Control_c, 0, 64, 9
2, 500064, Control_c, 0, 64, 24
2, 500081, Control_c, 0, 64, 41
2, 500100, Control_c, 0, 64, 57
2, 500119, Control_c, 0, 64, 63
2, 500141, Control_c, 0, 64, 65
2, 500157, Control_c, 0, 64, 67
2, 500180, Control_c, 0, 64, 70
2, 500198, Control_c, 0, 64, 75
2, 500218, Control_c, 0, 64, 84
2, 500218, Note_on_c, 0, 49, 0
2, 500235, Control_c, 0, 64, 97
2, 500255, Control_c, 0, 64, 112
2, 500276, Control_c, 0, 64, 127
2, 500276, Note_on_c, 0, 56, 0
2, 500327, Note_on_c, 0, 61, 59
2, 500406, Control_c, 0, 64, 115
2, 500426, Control_c, 0, 64, 106
2, 500449, Control_c, 0, 64, 98
2, 500465, Control_c, 0, 64, 91
2, 500473, Note_on_c, 0, 61, 0
2, 500483, Control_c, 0, 64, 83
2, 500501, Note_on_c, 0, 59, 76
2, 500505, Control_c, 0, 64, 74
2, 500523, Control_c, 0, 64, 68
2, 500542, Control_c, 0, 64, 64
2, 500564, Control_c, 0, 64, 60
2, 500584, Control_c, 0, 64, 58
2, 500600, Control_c, 0, 64, 56
2, 500618, Control_c, 0, 64, 53
2, 500638, Control_c, 0, 64, 49
2, 500659, Control_c, 0, 64, 42
2, 500675, Control_c, 0, 64, 34
2, 500697, Control_c, 0, 64, 28
2, 500697, Note_on_c, 0, 61, 62
2, 500702, Note_on_c, 0, 58, 67
2, 500716, Control_c, 0, 64, 22
2, 500733, Control_c, 0, 64, 18
2, 500740, Note_on_c, 0, 59, 0
2, 500756, Control_c, 0, 64, 11
2, 500772, Control_c, 0, 64, 0
2, 501104, Note_on_c, 0, 56, 51
2, 501109, Note_on_c, 0, 58, 0
2, 501466, Note_on_c, 0, 56, 0
2, 501488, Note_on_c, 0, 55, 47
2, 501488, Note_on_c, 0, 75, 75
2, 501545, Note_on_c, 0, 76, 0
2, 501890, Note_on_c, 0, 55, 0
2, 501912, Note_on_c, 0, 59, 62
2, 501934, Note_on_c, 0, 56, 56
2, 501959, Note_on_c, 0, 61, 0
2, 502302, Note_on_c, 0, 59, 0
2, 502315, Note_on_c, 0, 58, 61
2, 502712, Note_on_c, 0, 54, 68
2, 502735, Note_on_c, 0, 56, 0
2, 502750, Control_c, 0, 64, 21
2, 502772, Control_c, 0, 64, 39
2, 502788, Control_c, 0, 64, 53
2, 502808, Control_c, 0, 64, 61
2, 502831, Control_c, 0, 64, 63
2, 502846, Control_c, 0, 64, 64
2, 502864, Control_c, 0, 64, 65
2, 502888, Control_c, 0, 64, 67
2, 502903, Control_c, 0, 64, 70
2, 502923, Control_c, 0, 64, 75
2, 502942, Control_c, 0, 64, 80
2, 502962, Control_c, 0, 64, 86
2, 502981, Control_c, 0, 64, 89
2, 503028, Note_on_c, 0, 54, 0
2, 503057, Control_c, 0, 64, 88
2, 503116, Control_c, 0, 64, 87
2, 503138, Control_c, 0, 64, 84
2, 503154, Control_c, 0, 64, 81
2, 503174, Control_c, 0, 64, 77
2, 503192, Control_c, 0, 64, 73
2, 503214, Control_c, 0, 64, 69
2, 503230, Control_c, 0, 64, 64
2, 503243, Note_on_c, 0, 56, 65
2, 503247, Note_on_c, 0, 53, 65
2, 503252, Control_c, 0, 64, 58
2, 503270, Control_c, 0, 64, 52
2, 503292, Control_c, 0, 64, 47
2, 503292, Note_on_c, 0, 58, 0
2, 503310, Control_c, 0, 64, 42
2, 503326, Control_c, 0, 64, 39
2, 503345, Control_c, 0, 64, 37
2, 503366, Control_c, 0, 64, 36
2, 503386, Control_c, 0, 64, 35
2, 503423, Control_c, 0, 64, 34
2, 503763, Note_on_c, 0, 71, 76
2, 503787, Control_c, 0, 64, 33
2, 503800, Note_on_c, 0, 75, 0
2, 503864, Control_c, 0, 64, 32
2, 504077, Control_c, 0, 64, 31
2, 504154, Control_c, 0, 64, 30
2, 504190, Control_c, 0, 64, 29
2, 504199, Note_on_c, 0, 68, 87
2, 504232, Control_c, 0, 64, 28
2, 504232, Note_on_c, 0, 71, 0
2, 504247, Control_c, 0, 64, 27
2, 504306, Control_c, 0, 64, 26
2, 504344, Control_c, 0, 64, 25
2, 504421, Control_c, 0, 64, 24
2, 504478, Control_c, 0, 64, 23
2, 504558, Note_on_c, 0, 58, 72
2, 504575, Control_c, 0, 64, 22
2, 504607, Note_on_c, 0, 56, 0
2, 504729, Control_c, 0, 64, 21
2, 504825, Control_c, 0, 64, 20
2, 504862, Control_c, 0, 64, 19
2, 504882, Control_c, 0, 64, 18
2, 504920, Note_on_c, 0, 58, 0
2, 504938, Note_on_c, 0, 59, 74
2, 504958, Control_c, 0, 64, 24
2, 504978, Control_c, 0, 64, 35
2, 504996, Control_c, 0, 64, 46
2, 505016, Control_c, 0, 64, 57
2, 505035, Control_c, 0, 64, 63
2, 505053, Control_c, 0, 64, 64
2, 505073, Control_c, 0, 64, 66
2, 505092, Control_c, 0, 64, 69
2, 505112, Control_c, 0, 64, 74
2, 505121, Note_on_c, 0, 59, 0
2, 505130, Control_c, 0, 64, 81
2, 505150, Control_c, 0, 64, 86
2, 505168, Control_c, 0, 64, 88
2, 505208, Control_c, 0, 64, 87
2, 505227, Control_c, 0, 64, 86
2, 505247, Control_c, 0, 64, 85
2, 505268, Control_c, 0, 64, 83
2, 505275, Note_on_c, 0, 53, 0
2, 505286, Control_c, 0, 64, 78
2, 505305, Control_c, 0, 64, 72
2, 505314, Note_on_c, 0, 58, 68
2, 505316, Note_on_c, 0, 54, 51
2, 505316, Note_on_c, 0, 70, 80
2, 505322, Control_c, 0, 64, 64
2, 505342, Control_c, 0, 64, 57
2, 505358, Note_on_c, 0, 68, 0
2, 505362, Control_c, 0, 64, 50
2, 505380, Control_c, 0, 64, 45
2, 505398, Control_c, 0, 64, 43
2, 505439, Control_c, 0, 64, 42
2, 505461, Control_c, 0, 64, 41
2, 505476, Control_c, 0, 64, 38
2, 505496, Control_c, 0, 64, 35
2, 505515, Control_c, 0, 64, 34
2, 505553, Control_c, 0, 64, 33
2, 505629, Control_c, 0, 64, 32
2, 505712, Control_c, 0, 64, 31
2, 505712, Note_on_c, 0, 54, 0
2, 505712, Note_on_c, 0, 58, 0
2, 505712, Note_on_c, 0, 71, 78
2, 505717, Note_on_c, 0, 53, 52
2, 505717, Note_on_c, 0, 56, 60
2, 505730, Note_on_c, 0, 70, 0
2, 505747, Control_c, 0, 64, 30
2, 505764, Control_c, 0, 64, 29
2, 505823, Control_c, 0, 64, 28
2, 505861, Control_c, 0, 64, 27
2, 505881, Control_c, 0, 64, 26
2, 505899, Control_c, 0, 64, 25
2, 505917, Control_c, 0, 64, 23
2, 505937, Control_c, 0, 64, 22
2, 505976, Control_c, 0, 64, 20
2, 506014, Control_c, 0, 64, 19
2, 506053, Note_on_c, 0, 53, 0
2, 506074, Control_c, 0, 64, 20
2, 506091, Control_c, 0, 64, 26
2, 506115, Note_on_c, 0, 51, 55
2, 506116, Control_c, 0, 64, 36
2, 506116, Note_on_c, 0, 54, 62
2, 506118, Note_on_c, 0, 56, 0
2, 506129, Control_c, 0, 64, 47
2, 506149, Control_c, 0, 64, 59
2, 506168, Control_c, 0, 64, 63
2, 506187, Control_c, 0, 64, 65
2, 506206, Control_c, 0, 64, 68
2, 506228, Control_c, 0, 64, 72
2, 506245, Control_c, 0, 64, 80
2, 506267, Control_c, 0, 64, 87
2, 506281, Note_on_c, 0, 51, 0
2, 506283, Note_on_c, 0, 54, 0
2, 506287, Control_c, 0, 64, 92
2, 506306, Control_c, 0, 64, 93
2, 506341, Control_c, 0, 64, 92
2, 506360, Control_c, 0, 64, 91
2, 506379, Control_c, 0, 64, 90
2, 506399, Control_c, 0, 64, 89
2, 506418, Control_c, 0, 64, 87
2, 506436, Control_c, 0, 64, 82
2, 506456, Control_c, 0, 64, 77
2, 506475, Control_c, 0, 64, 71
2, 506495, Control_c, 0, 64, 65
2, 506513, Control_c, 0, 64, 61
2, 506532, Control_c, 0, 64, 57
2, 506549, Note_on_c, 0, 53, 54
2, 506553, Control_c, 0, 64, 53
2, 506553, Note_on_c, 0, 50, 46
2, 506575, Control_c, 0, 64, 49
2, 506590, Control_c, 0, 64, 45
2, 506612, Control_c, 0, 64, 41
2, 506630, Control_c, 0, 64, 36
2, 506648, Control_c, 0, 64, 30
2, 506668, Control_c, 0, 64, 24
2, 506686, Control_c, 0, 64, 20
2, 506709, Control_c, 0, 64, 17
2, 506725, Control_c, 0, 64, 13
2, 506744, Control_c, 0, 64, 9
2, 506763, Control_c, 0, 64, 0
2, 506976, Note_on_c, 0, 68, 64
2, 506988, Note_on_c, 0, 71, 0
2, 507326, Note_on_c, 0, 68, 0
2, 507345, Note_on_c, 0, 65, 57
2, 507689, Note_on_c, 0, 53, 0
2, 507716, Note_on_c, 0, 54, 51
2, 508104, Note_on_c, 0, 54, 0
2, 508126, Control_c, 0, 64, 18
2, 508132, Note_on_c, 0, 56, 51
2, 508145, Control_c, 0, 64, 32
2, 508164, Control_c, 0, 64, 44
2, 508182, Control_c, 0, 64, 55
2, 508204, Control_c, 0, 64, 61
2, 508222, Control_c, 0, 64, 63
2, 508241, Control_c, 0, 64, 65
2, 508259, Control_c, 0, 64, 67
2, 508278, Control_c, 0, 64, 71
2, 508303, Control_c, 0, 64, 77
2, 508303, Note_on_c, 0, 56, 0
2, 508318, Control_c, 0, 64, 82
2, 508337, Control_c, 0, 64, 84
2, 508357, Control_c, 0, 64, 83
2, 508377, Control_c, 0, 64, 82
2, 508398, Control_c, 0, 64, 81
2, 508400, Note_on_c, 0, 50, 0
2, 508415, Control_c, 0, 64, 79
2, 508434, Control_c, 0, 64, 76
2, 508452, Control_c, 0, 64, 71
2, 508472, Control_c, 0, 64, 64
2, 508492, Control_c, 0, 64, 57
2, 508511, Control_c, 0, 64, 53
2, 508520, Note_on_c, 0, 54, 48
2, 508520, Note_on_c, 0, 65, 0
2, 508520, Note_on_c, 0, 66, 58
2, 508524, Note_on_c, 0, 51, 49
2, 508533, Control_c, 0, 64, 52
2, 508568, Control_c, 0, 64, 53
2, 508590, Control_c, 0, 64, 55
2, 508606, Control_c, 0, 64, 58
2, 508626, Control_c, 0, 64, 61
2, 508646, Control_c, 0, 64, 63
2, 508666, Control_c, 0, 64, 64
2, 508683, Control_c, 0, 64, 66
2, 508701, Control_c, 0, 64, 68
2, 508722, Control_c, 0, 64, 70
2, 508740, Control_c, 0, 64, 71
2, 508789, Note_on_c, 0, 54, 0
2, 508816, Control_c, 0, 64, 70
2, 508836, Control_c, 0, 64, 69
2, 508858, Control_c, 0, 64, 68
2, 508867, Note_on_c, 0, 51, 0
2, 508876, Control_c, 0, 64, 66
2, 508896, Control_c, 0, 64, 63
2, 508915, Control_c, 0, 64, 60
2, 508927, Note_on_c, 0, 50, 45
2, 508927, Note_on_c, 0, 53, 42
2, 508932, Control_c, 0, 64, 58
2, 508945, Note_on_c, 0, 68, 62
2, 508952, Control_c, 0, 64, 56
2, 508956, Note_on_c, 0, 66, 0
2, 508970, Control_c, 0, 64, 55
2, 508989, Control_c, 0, 64, 53
2, 509008, Control_c, 0, 64, 51
2, 509029, Control_c, 0, 64, 47
2, 509046, Control_c, 0, 64, 43
2, 509066, Control_c, 0, 64, 40
2, 509086, Control_c, 0, 64, 39
2, 509105, Control_c, 0, 64, 38
2, 509143, Control_c, 0, 64, 37
2, 509161, Control_c, 0, 64, 36
2, 509183, Control_c, 0, 64, 34
2, 509204, Control_c, 0, 64, 33
2, 509276, Note_on_c, 0, 50, 0
2, 509304, Note_on_c, 0, 53, 0
2, 509330, Note_on_c, 0, 51, 46
2, 509346, Note_on_c, 0, 48, 36
2, 509396, Control_c, 0, 64, 32
2, 509725, Note_on_c, 0, 51, 0
2, 509733, Note_on_c, 0, 48, 0
2, 509761, Note_on_c, 0, 50, 39
2, 509783, Note_on_c, 0, 46, 35
2, 510178, Note_on_c, 0, 68, 0
2, 510190, Note_on_c, 0, 65, 44
2, 510571, Note_on_c, 0, 65, 0
2, 510603, Note_on_c, 0, 62, 46
2, 510987, Note_on_c, 0, 50, 0
2, 511000, Note_on_c, 0, 51, 42
2, 511331, Control_c, 0, 64, 33
2, 511354, Control_c, 0, 64, 35
2, 511354, Note_on_c, 0, 51, 0
2, 511370, Control_c, 0, 64, 40
2, 511390, Control_c, 0, 64, 49
2, 511409, Control_c, 0, 64, 57
2, 511428, Note_on_c, 0, 53, 44
2, 511433, Control_c, 0, 64, 61
2, 511448, Control_c, 0, 64, 64
2, 511468, Control_c, 0, 64, 65
2, 511481, Note_on_c, 0, 62, 0
2, 511486, Control_c, 0, 64, 68
2, 511506, Control_c, 0, 64, 73
2, 511524, Control_c, 0, 64, 82
2, 511544, Control_c, 0, 64, 92
2, 511564, Control_c, 0, 64, 103
2, 511582, Control_c, 0, 64, 112
2, 511602, Control_c, 0, 64, 116
2, 511602, Note_on_c, 0, 46, 0
2, 511639, Control_c, 0, 64, 118
2, 511659, Control_c, 0, 64, 122
2, 511679, Control_c, 0, 64, 127
2, 511813, Control_c, 0, 64, 102
2, 511833, Control_c, 0, 64, 82
2, 511855, Control_c, 0, 64, 67
2, 511872, Note_on_c, 0, 62, 58
2, 511874, Control_c, 0, 64, 58
2, 511883, Note_on_c, 0, 53, 0
2, 511888, Note_on_c, 0, 44, 48
2, 511892, Control_c, 0, 64, 53
2, 511909, Control_c, 0, 64, 52
2, 511927, Control_c, 0, 64, 55
2, 511947, Control_c, 0, 64, 58
2, 511965, Control_c, 0, 64, 62
2, 511985, Control_c, 0, 64, 65
2, 512005, Control_c, 0, 64, 70
2, 512025, Control_c, 0, 64, 78
2, 512043, Control_c, 0, 64, 94
2, 512061, Control_c, 0, 64, 127
2, 512067, Note_on_c, 0, 62, 0
2, 512270, Control_c, 0, 64, 95
2, 512279, Note_on_c, 0, 42, 56
2, 512279, Note_on_c, 0, 63, 68
2, 512293, Note_on_c, 0, 54, 59
2, 512297, Control_c, 0, 64, 73
2, 512297, Note_on_c, 0, 44, 0
2, 512309, Control_c, 0, 64, 63
2, 512327, Control_c, 0, 64, 59
2, 512347, Control_c, 0, 64, 60
2, 512369, Control_c, 0, 64, 63
2, 512384, Control_c, 0, 64, 67
2, 512405, Control_c, 0, 64, 77
2, 512425, Control_c, 0, 64, 102
2, 512445, Control_c, 0, 64, 127
2, 512476, Note_on_c, 0, 54, 0
2, 512640, Note_on_c, 0, 42, 0
2, 512655, Control_c, 0, 64, 90
2, 512673, Control_c, 0, 64, 69
2, 512683, Note_on_c, 0, 41, 60
2, 512683, Note_on_c, 0, 65, 66
2, 512689, Note_on_c, 0, 56, 66
2, 512693, Control_c, 0, 64, 60
2, 512698, Note_on_c, 0, 63, 0
2, 512713, Control_c, 0, 64, 56
2, 512733, Control_c, 0, 64, 58
2, 512753, Control_c, 0, 64, 63
2, 512769, Control_c, 0, 64, 68
2, 512789, Control_c, 0, 64, 79
2, 512809, Control_c, 0, 64, 127
2, 512824, Note_on_c, 0, 65, 0
2, 512850, Note_on_c, 0, 56, 0
2, 512901, Note_on_c, 0, 41, 0
2, 513077, Control_c, 0, 64, 80
2, 513097, Control_c, 0, 64, 64
2, 513101, Note_on_c, 0, 66, 72
2, 513117, Note_on_c, 0, 39, 61
2, 513122, Control_c, 0, 64, 54
2, 513122, Note_on_c, 0, 58, 66
2, 513133, Control_c, 0, 64, 51
2, 513153, Control_c, 0, 64, 53
2, 513173, Control_c, 0, 64, 57
2, 513192, Control_c, 0, 64, 62
2, 513211, Control_c, 0, 64, 66
2, 513231, Control_c, 0, 64, 72
2, 513251, Control_c, 0, 64, 85
2, 513268, Control_c, 0, 64, 127
2, 513318, Note_on_c, 0, 66, 0
2, 513324, Note_on_c, 0, 58, 0
2, 513495, Note_on_c, 0, 67, 75
2, 513502, Control_c, 0, 64, 85
2, 513504, Note_on_c, 0, 39, 0
2, 513504, Note_on_c, 0, 58, 71
2, 513509, Note_on_c, 0, 49, 64
2, 513518, Control_c, 0, 64, 66
2, 513538, Control_c, 0, 64, 55
2, 513556, Control_c, 0, 64, 49
2, 513599, Control_c, 0, 64, 53
2, 513614, Control_c, 0, 64, 58
2, 513632, Control_c, 0, 64, 63
2, 513652, Control_c, 0, 64, 67
2, 513672, Control_c, 0, 64, 76
2, 513692, Control_c, 0, 64, 97
2, 513709, Control_c, 0, 64, 127
2, 513714, Note_on_c, 0, 67, 0
2, 513732, Note_on_c, 0, 58, 0
2, 513897, Note_on_c, 0, 49, 0
2, 513901, Note_on_c, 0, 47, 70
2, 513901, Note_on_c, 0, 68, 85
2, 513906, Control_c, 0, 64, 112
2, 513906, Note_on_c, 0, 59, 79
2, 513923, Control_c, 0, 64, 77
2, 513939, Control_c, 0, 64, 63
2, 513960, Control_c, 0, 64, 55
2, 513977, Control_c, 0, 64, 53
2, 513999, Control_c, 0, 64, 56
2, 514017, Control_c, 0, 64, 60
2, 514039, Control_c, 0, 64, 64
2, 514055, Control_c, 0, 64, 69
2, 514075, Control_c, 0, 64, 81
2, 514082, Note_on_c, 0, 59, 0
2, 514095, Control_c, 0, 64, 120
2, 514117, Control_c, 0, 64, 127
2, 514134, Note_on_c, 0, 68, 0
2, 514285, Control_c, 0, 64, 107
2, 514303, Note_on_c, 0, 70, 81
2, 514307, Note_on_c, 0, 46, 76
2, 514307, Note_on_c, 0, 61, 81
2, 514312, Control_c, 0, 64, 72
2, 514324, Control_c, 0, 64, 59
2, 514324, Note_on_c, 0, 47, 0
2, 514346, Control_c, 0, 64, 51
2, 514361, Control_c, 0, 64, 52
2, 514383, Control_c, 0, 64, 58
2, 514401, Control_c, 0, 64, 64
2, 514421, Control_c, 0, 64, 77
2, 514439, Control_c, 0, 64, 127
2, 514464, Note_on_c, 0, 61, 0
2, 514476, Note_on_c, 0, 70, 0
2, 514729, Control_c, 0, 64, 88
2, 514729, Note_on_c, 0, 71, 88
2, 514733, Note_on_c, 0, 44, 79
2, 514742, Note_on_c, 0, 63, 80
2, 514752, Control_c, 0, 64, 66
2, 514752, Note_on_c, 0, 46, 0
2, 514767, Control_c, 0, 64, 54
2, 514788, Control_c, 0, 64, 45
2, 514803, Control_c, 0, 64, 43
2, 514823, Control_c, 0, 64, 45
2, 514843, Control_c, 0, 64, 52
2, 514861, Control_c, 0, 64, 61
2, 514881, Control_c, 0, 64, 65
2, 514901, Control_c, 0, 64, 71
2, 514921, Control_c, 0, 64, 84
2, 514938, Control_c, 0, 64, 127
2, 515016, Note_on_c, 0, 63, 0
2, 515041, Note_on_c, 0, 71, 0
2, 515078, Note_on_c, 0, 44, 0
2, 515132, Control_c, 0, 64, 99
2, 515141, Note_on_c, 0, 72, 95
2, 515145, Note_on_c, 0, 54, 75
2, 515145, Note_on_c, 0, 63, 86
2, 515150, Control_c, 0, 64, 71
2, 515168, Control_c, 0, 64, 58
2, 515188, Control_c, 0, 64, 46
2, 515208, Control_c, 0, 64, 41
2, 515226, Control_c, 0, 64, 42
2, 515246, Control_c, 0, 64, 50
2, 515266, Control_c, 0, 64, 60
2, 515286, Control_c, 0, 64, 65
2, 515303, Control_c, 0, 64, 70
2, 515323, Control_c, 0, 64, 81
2, 515343, Control_c, 0, 64, 98
2, 515362, Note_on_c, 0, 63, 0
2, 515366, Control_c, 0, 64, 127
2, 515494, Note_on_c, 0, 72, 0
2, 515518, Note_on_c, 0, 54, 0
2, 515572, Control_c, 0, 64, 111
2, 515579, Note_on_c, 0, 74, 92
2, 515588, Note_on_c, 0, 53, 75
2, 515588, Note_on_c, 0, 65, 85
2, 515593, Control_c, 0, 64, 77
2, 515609, Control_c, 0, 64, 62
2, 515630, Control_c, 0, 64, 51
2, 515648, Control_c, 0, 64, 44
2, 515668, Control_c, 0, 64, 45
2, 515686, Control_c, 0, 64, 50
2, 515706, Control_c, 0, 64, 58
2, 515725, Control_c, 0, 64, 64
2, 515745, Control_c, 0, 64, 69
2, 515767, Control_c, 0, 64, 80
2, 515784, Control_c, 0, 64, 120
2, 515801, Control_c, 0, 64, 127
2, 515822, Note_on_c, 0, 65, 0
2, 515822, Note_on_c, 0, 74, 0
2, 515993, Note_on_c, 0, 51, 69
2, 516004, Note_on_c, 0, 66, 92
2, 516004, Note_on_c, 0, 75, 91
2, 516033, Control_c, 0, 64, 95
2, 516053, Control_c, 0, 64, 71
2, 516071, Note_on_c, 0, 53, 0
2, 516075, Control_c, 0, 64, 57
2, 516090, Control_c, 0, 64, 47
2, 516110, Control_c, 0, 64, 43
2, 516148, Control_c, 0, 64, 46
2, 516169, Control_c, 0, 64, 53
2, 516187, Control_c, 0, 64, 61
2, 516209, Control_c, 0, 64, 65
2, 516227, Control_c, 0, 64, 69
2, 516247, Control_c, 0, 64, 77
2, 516265, Control_c, 0, 64, 99
2, 516283, Control_c, 0, 64, 127
2, 516347, Note_on_c, 0, 66, 0
2, 516351, Note_on_c, 0, 75, 0
2, 516489, Note_on_c, 0, 75, 89
2, 516496, Note_on_c, 0, 65, 85
2, 516518, Control_c, 0, 64, 106
2, 516518, Note_on_c, 0, 58, 60
2, 516526, Note_on_c, 0, 51, 0
2, 516538, Control_c, 0, 64, 84
2, 516553, Control_c, 0, 64, 70
2, 516577, Control_c, 0, 64, 62
2, 516595, Control_c, 0, 64, 56
2, 516611, Control_c, 0, 64, 54
2, 516651, Control_c, 0, 64, 53
2, 516689, Control_c, 0, 64, 51
2, 516711, Control_c, 0, 64, 49
2, 516731, Control_c, 0, 64, 47
2, 516746, Control_c, 0, 64, 46
2, 516768, Control_c, 0, 64, 47
2, 516806, Control_c, 0, 64, 49
2, 516823, Control_c, 0, 64, 50
2, 516841, Control_c, 0, 64, 51
2, 516937, Control_c, 0, 64, 50
2, 516980, Note_on_c, 0, 71, 84
2, 517009, Note_on_c, 0, 65, 0
2, 517036, Control_c, 0, 64, 52
2, 517054, Control_c, 0, 64, 57
2, 517074, Control_c, 0, 64, 62
2, 517092, Control_c, 0, 64, 66
2, 517112, Control_c, 0, 64, 74
2, 517130, Control_c, 0, 64, 98
2, 517150, Control_c, 0, 64, 127
2, 517237, Note_on_c, 0, 71, 0
2, 517275, Note_on_c, 0, 75, 0
2, 517516, Note_on_c, 0, 74, 89
2, 517518, Note_on_c, 0, 70, 86
2, 517535, Note_on_c, 0, 46, 64
2, 517546, Note_on_c, 0, 58, 0
2, 517571, Control_c, 0, 64, 98
2, 517593, Control_c, 0, 64, 78
2, 517614, Control_c, 0, 64, 66
2, 517628, Control_c, 0, 64, 60
2, 517649, Control_c, 0, 64, 54
2, 517669, Control_c, 0, 64, 51
2, 517689, Control_c, 0, 64, 50
2, 517708, Control_c, 0, 64, 48
2, 517725, Control_c, 0, 64, 47
2, 517745, Control_c, 0, 64, 44
2, 517767, Control_c, 0, 64, 42
2, 517782, Control_c, 0, 64, 40
2, 517803, Control_c, 0, 64, 39
2, 517956, Control_c, 0, 64, 40
2, 517978, Control_c, 0, 64, 41
2, 517995, Control_c, 0, 64, 42
2, 518015, Control_c, 0, 64, 44
2, 518035, Control_c, 0, 64, 46
2, 518052, Control_c, 0, 64, 48
2, 518070, Control_c, 0, 64, 50
2, 518090, Control_c, 0, 64, 51
2, 518110, Control_c, 0, 64, 52
2, 518239, Note_on_c, 0, 68, 92
2, 518295, Note_on_c, 0, 70, 0
2, 518342, Control_c, 0, 64, 53
2, 518359, Control_c, 0, 64, 56
2, 518380, Control_c, 0, 64, 59
2, 518398, Control_c, 0, 64, 62
2, 518417, Control_c, 0, 64, 64
2, 518436, Control_c, 0, 64, 68
2, 518455, Control_c, 0, 64, 75
2, 518474, Control_c, 0, 64, 87
2, 518494, Control_c, 0, 64, 127
2, 518679, Note_on_c, 0, 74, 0
2, 518708, Note_on_c, 0, 68, 0
2, 518717, Note_on_c, 0, 46, 0
2, 519379, Note_on_c, 0, 75, 87
2, 519387, Note_on_c, 0, 67, 83
2, 519392, Note_on_c, 0, 39, 73
2, 519454, Control_c, 0, 64, 92
2, 519473, Control_c, 0, 64, 76
2, 519492, Control_c, 0, 64, 66
2, 519512, Control_c, 0, 64, 58
2, 519530, Control_c, 0, 64, 52
2, 519550, Control_c, 0, 64, 50
2, 519569, Control_c, 0, 64, 48
2, 519588, Control_c, 0, 64, 47
2, 519607, Control_c, 0, 64, 45
2, 519626, Control_c, 0, 64, 43
2, 519648, Control_c, 0, 64, 40
2, 519665, Control_c, 0, 64, 38
2, 519684, Control_c, 0, 64, 36
2, 520068, Control_c, 0, 64, 37
2, 520107, Control_c, 0, 64, 38
2, 520125, Control_c, 0, 64, 39
2, 520202, Control_c, 0, 64, 40
2, 520222, Control_c, 0, 64, 41
2, 520240, Control_c, 0, 64, 42
2, 520280, Control_c, 0, 64, 43
2, 520319, Control_c, 0, 64, 44
2, 520375, Control_c, 0, 64, 45
2, 520394, Control_c, 0, 64, 46
2, 520414, Control_c, 0, 64, 47
2, 520431, Control_c, 0, 64, 48
2, 520472, Control_c, 0, 64, 49
2, 520777, Control_c, 0, 64, 50
2, 521047, Control_c, 0, 64, 51
2, 521989, Control_c, 0, 64, 52
2, 522159, Control_c, 0, 64, 53
2, 522179, Control_c, 0, 64, 54
2, 522199, Control_c, 0, 64, 55
2, 522218, Control_c, 0, 64, 56
2, 522238, Control_c, 0, 64, 57
2, 522259, Control_c, 0, 64, 58
2, 522295, Control_c, 0, 64, 59
2, 522391, Control_c, 0, 64, 60
2, 522449, Control_c, 0, 64, 61
2, 522506, Control_c, 0, 64, 62
2, 522543, Control_c, 0, 64, 63
2, 522584, Control_c, 0, 64, 64
2, 522604, Control_c, 0, 64, 65
2, 522621, Control_c, 0, 64, 66
2, 522641, Control_c, 0, 64, 67
2, 522662, Control_c, 0, 64, 70
2, 522680, Control_c, 0, 64, 72
2, 522700, Control_c, 0, 64, 74
2, 522716, Control_c, 0, 64, 76
2, 522736, Control_c, 0, 64, 78
2, 522756, Control_c, 0, 64, 79
2, 522794, Control_c, 0, 64, 80
2, 522832, Control_c, 0, 64, 81
2, 522854, Control_c, 0, 64, 82
2, 522873, Control_c, 0, 64, 83
2, 522891, Control_c, 0, 64, 84
2, 522986, Control_c, 0, 64, 85
2, 523044, Control_c, 0, 64, 86
2, 523523, Control_c, 0, 64, 87
2, 523717, Control_c, 0, 64, 88
2, 523766, Note_on_c, 0, 67, 0
2, 523941, Note_on_c, 0, 39, 0
2, 523957, Note_on_c, 0, 75, 0
2, 524158, Control_c, 0, 64, 87
2, 524234, Control_c, 0, 64, 86
2, 524257, Control_c, 0, 64, 85
2, 524291, Control_c, 0, 64, 83
2, 524313, Control_c, 0, 64, 82
2, 524330, Control_c, 0, 64, 81
2, 524348, Control_c, 0, 64, 79
2, 524369, Control_c, 0, 64, 76
2, 524387, Control_c, 0, 64, 73
2, 524406, Control_c, 0, 64, 69
2, 524426, Control_c, 0, 64, 66
2, 524446, Control_c, 0, 64, 65
2, 524464, Control_c, 0, 64, 63
2, 524484, Control_c, 0, 64, 62
2, 524504, Control_c, 0, 64, 61
2, 524522, Control_c, 0, 64, 59
2, 524542, Control_c, 0, 64, 58
2, 524560, Control_c, 0, 64, 56
2, 524580, Control_c, 0, 64, 55
2, 524600, Control_c, 0, 64, 54
2, 524618, Control_c, 0, 64, 52
2, 524638, Control_c, 0, 64, 49
2, 524656, Control_c, 0, 64, 46
2, 524676, Control_c, 0, 64, 43
2, 524694, Control_c, 0, 64, 40
2, 524714, Control_c, 0, 64, 38
2, 524733, Control_c, 0, 64, 35
2, 524753, Control_c, 0, 64, 32
2, 524771, Control_c, 0, 64, 27
2, 524793, Control_c, 0, 64, 22
2, 524809, Control_c, 0, 64, 13
2, 524828, Control_c, 0, 64, 0
2, 524829, End_track
0, 0, End_of_file
