0, 0, Header, 1, 2, 480
1, 0, Start_track
1, 0, Tempo, 500000
1, 0, Time_signature, 4, 2, 24, 8
1, 1, End_track
2,0,Start_track
2,0, Note_on_c, 0, 63, 37
2,30, Control_c, 0, 64, 30
2,66, Control_c, 0, 64, 32
2,86, Control_c, 0, 64, 35
2,103, Control_c, 0, 64, 39
2,124, Control_c, 0, 64, 44
2,142, Control_c, 0, 64, 49
2,162, Control_c, 0, 64, 52
2,182, Control_c, 0, 64, 55
2,200, Control_c, 0, 64, 58
2,219, Control_c, 0, 64, 60
2,238, Control_c, 0, 64, 62
2,259, Control_c, 0, 64, 63
2,277, Control_c, 0, 64, 64
2,314, Control_c, 0, 64, 65
2,334, Control_c, 0, 64, 66
2,354, Control_c, 0, 64, 67
2,376, Control_c, 0, 64, 69
2,391, Control_c, 0, 64, 70
2,419, Note_on_c, 0, 63, 0
2,681, Control_c, 0, 64, 69
2,737, Control_c, 0, 64, 68
2,757, Control_c, 0, 64, 67
2,775, Control_c, 0, 64, 66
2,795, Control_c, 0, 64, 64
2,815, Control_c, 0, 64, 63
2,833, Control_c, 0, 64, 62
2,852, Control_c, 0, 64, 61
2,874, Control_c, 0, 64, 60
2,891, Control_c, 0, 64, 58
2,900, Note_on_c, 0, 70, 47
2,911, Control_c, 0, 64, 57
2,928, Control_c, 0, 64, 55
2,949, Control_c, 0, 64, 54
2,969, Control_c, 0, 64, 51
2,987, Control_c, 0, 64, 49
2,1004, Control_c, 0, 64, 47
2,1026, Control_c, 0, 64, 45
2,1045, Control_c, 0, 64, 43
2,1063, Control_c, 0, 64, 41
2,1084, Control_c, 0, 64, 38
2,1105, Control_c, 0, 64, 35
2,1121, Control_c, 0, 64, 33
2,1144, Control_c, 0, 64, 32
2,1199, Control_c, 0, 64, 31
2,1237, Control_c, 0, 64, 30
2,1274, Control_c, 0, 64, 29
2,1297, Control_c, 0, 64, 28
2,1679, Control_c, 0, 64, 29
2,2024, Control_c, 0, 64, 30
2,2712, Note_on_c, 0, 71, 49
2,2781, Note_on_c, 0, 70, 0
2,3118, Control_c, 0, 64, 31
2,3142, Note_on_c, 0, 70, 58
2,3153, Note_on_c, 0, 71, 0
2,3233, Control_c, 0, 64, 32
2,3533, Note_on_c, 0, 68, 55
2,3549, Note_on_c, 0, 70, 0
2,3938, Note_on_c, 0, 68, 0
2,3947, Note_on_c, 0, 66, 49
2,4325, Note_on_c, 0, 66, 0
2,4335, Note_on_c, 0, 68, 56
2,4766, Note_on_c, 0, 70, 49
2,4768, Note_on_c, 0, 68, 0
2,5547, Note_on_c, 0, 70, 0
2,5567, Note_on_c, 0, 63, 47
2,5648, Control_c, 0, 64, 33
2,5710, Control_c, 0, 64, 34
2,5726, Control_c, 0, 64, 35
2,5746, Control_c, 0, 64, 38
2,5764, Control_c, 0, 64, 41
2,5783, Control_c, 0, 64, 45
2,5801, Control_c, 0, 64, 50
2,5825, Control_c, 0, 64, 54
2,5840, Control_c, 0, 64, 58
2,5861, Control_c, 0, 64, 60
2,5880, Control_c, 0, 64, 61
2,5901, Control_c, 0, 64, 63
2,5917, Control_c, 0, 64, 64
2,5938, Control_c, 0, 64, 67
2,5956, Control_c, 0, 64, 71
2,5976, Control_c, 0, 64, 78
2,5994, Control_c, 0, 64, 85
2,6014, Control_c, 0, 64, 93
2,6033, Control_c, 0, 64, 100
2,6054, Control_c, 0, 64, 105
2,6073, Control_c, 0, 64, 111
2,6090, Control_c, 0, 64, 118
2,6121, Note_on_c, 0, 63, 0
2,6225, Control_c, 0, 64, 116
2,6245, Control_c, 0, 64, 115
2,6265, Control_c, 0, 64, 110
2,6282, Control_c, 0, 64, 107
2,6302, Control_c, 0, 64, 104
2,6323, Control_c, 0, 64, 102
2,6342, Control_c, 0, 64, 98
2,6359, Control_c, 0, 64, 95
2,6382, Control_c, 0, 64, 91
2,6399, Control_c, 0, 64, 85
2,6418, Control_c, 0, 64, 79
2,6436, Control_c, 0, 64, 73
2,6456, Control_c, 0, 64, 68
2,6472, Note_on_c, 0, 68, 50
2,6476, Control_c, 0, 64, 64
2,6496, Control_c, 0, 64, 61
2,6513, Control_c, 0, 64, 60
2,6532, Control_c, 0, 64, 58
2,6552, Control_c, 0, 64, 57
2,6571, Control_c, 0, 64, 55
2,6590, Control_c, 0, 64, 53
2,6609, Control_c, 0, 64, 50
2,6629, Control_c, 0, 64, 47
2,6649, Control_c, 0, 64, 46
2,6667, Control_c, 0, 64, 45
2,6689, Control_c, 0, 64, 44
2,6704, Control_c, 0, 64, 43
2,6724, Control_c, 0, 64, 42
2,6746, Control_c, 0, 64, 39
2,6763, Control_c, 0, 64, 36
2,6783, Control_c, 0, 64, 34
2,6860, Control_c, 0, 64, 33
2,7665, Note_on_c, 0, 66, 42
2,7734, Note_on_c, 0, 68, 0
2,8109, Note_on_c, 0, 65, 40
2,8129, Note_on_c, 0, 66, 0
2,8626, Control_c, 0, 64, 34
2,8721, Control_c, 0, 64, 35
2,8816, Control_c, 0, 64, 36
2,8985, Note_on_c, 0, 63, 30
2,8985, Note_on_c, 0, 65, 0
2,8985, Note_on_c, 0, 70, 59
2,9125, Control_c, 0, 64, 37
2,9143, Control_c, 0, 64, 39
2,9164, Control_c, 0, 64, 44
2,9184, Control_c, 0, 64, 51
2,9199, Control_c, 0, 64, 56
2,9220, Control_c, 0, 64, 59
2,9239, Control_c, 0, 64, 62
2,9261, Control_c, 0, 64, 64
2,9276, Control_c, 0, 64, 66
2,9299, Control_c, 0, 64, 72
2,9316, Control_c, 0, 64, 82
2,9335, Control_c, 0, 64, 97
2,9355, Control_c, 0, 64, 127
2,9439, Note_on_c, 0, 70, 0
2,9720, Control_c, 0, 64, 112
2,9739, Control_c, 0, 64, 97
2,9757, Control_c, 0, 64, 85
2,9777, Control_c, 0, 64, 76
2,9800, Control_c, 0, 64, 69
2,9804, Note_on_c, 0, 75, 64
2,9816, Control_c, 0, 64, 65
2,9836, Control_c, 0, 64, 63
2,9855, Control_c, 0, 64, 62
2,9894, Control_c, 0, 64, 61
2,9914, Control_c, 0, 64, 60
2,9929, Control_c, 0, 64, 58
2,9950, Control_c, 0, 64, 57
2,9970, Control_c, 0, 64, 55
2,9990, Control_c, 0, 64, 54
2,10010, Control_c, 0, 64, 53
2,10027, Control_c, 0, 64, 52
2,10046, Control_c, 0, 64, 50
2,10069, Control_c, 0, 64, 47
2,10085, Control_c, 0, 64, 45
2,10103, Control_c, 0, 64, 43
2,10123, Control_c, 0, 64, 41
2,10142, Control_c, 0, 64, 40
2,10160, Control_c, 0, 64, 39
2,10177, Note_on_c, 0, 63, 0
2,10182, Control_c, 0, 64, 37
2,10182, Note_on_c, 0, 65, 48
2,10202, Control_c, 0, 64, 35
2,10219, Control_c, 0, 64, 34
2,10241, Control_c, 0, 64, 32
2,10258, Control_c, 0, 64, 31
2,10277, Control_c, 0, 64, 30
2,10295, Control_c, 0, 64, 29
2,10315, Control_c, 0, 64, 28
2,10335, Control_c, 0, 64, 27
2,10392, Control_c, 0, 64, 26
2,10538, Note_on_c, 0, 65, 0
2,10564, Note_on_c, 0, 66, 50
2,10960, Note_on_c, 0, 78, 68
2,10990, Note_on_c, 0, 75, 0
2,11331, Note_on_c, 0, 66, 0
2,11356, Note_on_c, 0, 68, 45
2,11360, Note_on_c, 0, 77, 67
2,11394, Note_on_c, 0, 78, 0
2,11739, Note_on_c, 0, 75, 68
2,11782, Note_on_c, 0, 77, 0
2,12138, Control_c, 0, 64, 27
2,12161, Note_on_c, 0, 73, 66
2,12172, Note_on_c, 0, 70, 40
2,12177, Note_on_c, 0, 68, 0
2,12214, Note_on_c, 0, 75, 0
2,12564, Note_on_c, 0, 75, 66
2,12585, Note_on_c, 0, 73, 0
2,12953, Note_on_c, 0, 77, 68
2,12969, Note_on_c, 0, 75, 0
2,13347, Note_on_c, 0, 70, 0
2,13364, Note_on_c, 0, 68, 47
2,13714, Note_on_c, 0, 68, 0
2,13757, Note_on_c, 0, 70, 66
2,13763, Note_on_c, 0, 66, 43
2,13774, Note_on_c, 0, 77, 0
2,13850, Control_c, 0, 64, 28
2,13886, Control_c, 0, 64, 29
2,13925, Control_c, 0, 64, 30
2,13962, Control_c, 0, 64, 32
2,13985, Control_c, 0, 64, 33
2,14002, Control_c, 0, 64, 36
2,14019, Control_c, 0, 64, 40
2,14039, Control_c, 0, 64, 45
2,14059, Control_c, 0, 64, 51
2,14077, Control_c, 0, 64, 55
2,14096, Control_c, 0, 64, 58
2,14114, Note_on_c, 0, 66, 0
2,14119, Control_c, 0, 64, 59
2,14137, Control_c, 0, 64, 60
2,14154, Control_c, 0, 64, 62
2,14171, Note_on_c, 0, 65, 47
2,14175, Control_c, 0, 64, 64
2,14193, Control_c, 0, 64, 66
2,14214, Control_c, 0, 64, 69
2,14234, Control_c, 0, 64, 73
2,14250, Control_c, 0, 64, 79
2,14272, Control_c, 0, 64, 85
2,14290, Note_on_c, 0, 70, 0
2,14294, Control_c, 0, 64, 88
2,14307, Control_c, 0, 64, 90
2,14327, Control_c, 0, 64, 91
2,14442, Control_c, 0, 64, 90
2,14461, Control_c, 0, 64, 88
2,14481, Control_c, 0, 64, 86
2,14500, Control_c, 0, 64, 83
2,14518, Control_c, 0, 64, 80
2,14538, Control_c, 0, 64, 76
2,14559, Control_c, 0, 64, 72
2,14570, Note_on_c, 0, 75, 60
2,14578, Control_c, 0, 64, 68
2,14591, Note_on_c, 0, 65, 0
2,14598, Control_c, 0, 64, 64
2,14598, Note_on_c, 0, 66, 42
2,14616, Control_c, 0, 64, 60
2,14635, Control_c, 0, 64, 57
2,14653, Control_c, 0, 64, 56
2,14692, Control_c, 0, 64, 54
2,14713, Control_c, 0, 64, 52
2,14730, Control_c, 0, 64, 49
2,14749, Control_c, 0, 64, 45
2,14768, Control_c, 0, 64, 42
2,14788, Control_c, 0, 64, 41
2,14846, Control_c, 0, 64, 40
2,14866, Control_c, 0, 64, 39
2,14883, Control_c, 0, 64, 38
2,14923, Control_c, 0, 64, 37
2,14943, Control_c, 0, 64, 36
2,14983, Control_c, 0, 64, 35
2,14983, Note_on_c, 0, 65, 47
2,15001, Control_c, 0, 64, 34
2,15020, Control_c, 0, 64, 33
2,15020, Note_on_c, 0, 66, 0
2,15038, Control_c, 0, 64, 32
2,15144, Note_on_c, 0, 65, 0
2,15166, Note_on_c, 0, 63, 50
2,15358, Note_on_c, 0, 63, 0
2,15395, Note_on_c, 0, 65, 48
2,15709, Note_on_c, 0, 65, 0
2,15763, Note_on_c, 0, 70, 55
2,15763, Note_on_c, 0, 73, 59
2,15781, Note_on_c, 0, 75, 0
2,16155, Note_on_c, 0, 73, 0
2,16159, Note_on_c, 0, 72, 56
2,16510, Note_on_c, 0, 70, 0
2,16568, Note_on_c, 0, 69, 36
2,16920, Note_on_c, 0, 69, 0
2,16989, Note_on_c, 0, 70, 52
2,17003, Note_on_c, 0, 72, 0
2,17381, Note_on_c, 0, 72, 72
2,17495, Control_c, 0, 64, 33
2,17776, Note_on_c, 0, 73, 73
2,17777, Note_on_c, 0, 72, 0
2,18126, Note_on_c, 0, 70, 0
2,18153, Note_on_c, 0, 68, 49
2,18562, Note_on_c, 0, 68, 0
2,18580, Note_on_c, 0, 67, 41
2,18941, Note_on_c, 0, 67, 0
2,18963, Note_on_c, 0, 63, 45
2,19332, Note_on_c, 0, 63, 0
2,19368, Note_on_c, 0, 68, 45
2,19774, Note_on_c, 0, 71, 53
2,19794, Note_on_c, 0, 73, 0
2,20141, Note_on_c, 0, 71, 0
2,20159, Note_on_c, 0, 70, 55
2,20575, Note_on_c, 0, 68, 0
2,20589, Note_on_c, 0, 66, 45
2,20957, Note_on_c, 0, 70, 0
2,20971, Note_on_c, 0, 75, 56
2,20982, Note_on_c, 0, 65, 37
2,20999, Note_on_c, 0, 66, 0
2,21358, Note_on_c, 0, 65, 0
2,21397, Note_on_c, 0, 63, 44
2,21736, Note_on_c, 0, 63, 0
2,21790, Note_on_c, 0, 65, 40
2,21891, Control_c, 0, 64, 32
2,21930, Control_c, 0, 64, 31
2,21950, Control_c, 0, 64, 28
2,21969, Control_c, 0, 64, 22
2,21990, Control_c, 0, 64, 13
2,22007, Control_c, 0, 64, 0
2,22191, Note_on_c, 0, 74, 57
2,22191, Note_on_c, 0, 75, 0
2,22236, Control_c, 0, 64, 24
2,22257, Control_c, 0, 64, 41
2,22276, Control_c, 0, 64, 53
2,22295, Control_c, 0, 64, 60
2,22314, Control_c, 0, 64, 62
2,22334, Control_c, 0, 64, 64
2,22346, Note_on_c, 0, 74, 0
2,22352, Control_c, 0, 64, 66
2,22374, Control_c, 0, 64, 70
2,22391, Control_c, 0, 64, 77
2,22409, Note_on_c, 0, 65, 0
2,22411, Control_c, 0, 64, 85
2,22434, Control_c, 0, 64, 93
2,22447, Control_c, 0, 64, 100
2,22467, Control_c, 0, 64, 102
2,22506, Control_c, 0, 64, 99
2,22526, Control_c, 0, 64, 94
2,22546, Control_c, 0, 64, 85
2,22564, Control_c, 0, 64, 74
2,22583, Control_c, 0, 64, 65
2,22601, Note_on_c, 0, 75, 54
2,22602, Control_c, 0, 64, 58
2,22612, Note_on_c, 0, 66, 48
2,22624, Control_c, 0, 64, 53
2,22661, Control_c, 0, 64, 54
2,22679, Control_c, 0, 64, 56
2,22697, Control_c, 0, 64, 59
2,22718, Control_c, 0, 64, 62
2,22738, Control_c, 0, 64, 64
2,22756, Control_c, 0, 64, 66
2,22776, Control_c, 0, 64, 71
2,22795, Control_c, 0, 64, 78
2,22815, Control_c, 0, 64, 88
2,22820, Note_on_c, 0, 66, 0
2,22835, Control_c, 0, 64, 99
2,22854, Control_c, 0, 64, 112
2,22872, Control_c, 0, 64, 127
2,22967, Control_c, 0, 64, 104
2,22987, Control_c, 0, 64, 87
2,23001, Note_on_c, 0, 77, 65
2,23005, Note_on_c, 0, 68, 60
2,23010, Control_c, 0, 64, 73
2,23010, Note_on_c, 0, 75, 0
2,23025, Control_c, 0, 64, 63
2,23043, Control_c, 0, 64, 57
2,23086, Control_c, 0, 64, 58
2,23101, Control_c, 0, 64, 61
2,23120, Control_c, 0, 64, 63
2,23141, Control_c, 0, 64, 66
2,23160, Control_c, 0, 64, 69
2,23176, Control_c, 0, 64, 74
2,23188, Note_on_c, 0, 77, 0
2,23198, Control_c, 0, 64, 82
2,23220, Control_c, 0, 64, 92
2,23236, Control_c, 0, 64, 104
2,23256, Control_c, 0, 64, 120
2,23275, Note_on_c, 0, 68, 0
2,23279, Control_c, 0, 64, 127
2,23351, Control_c, 0, 64, 122
2,23373, Control_c, 0, 64, 113
2,23389, Control_c, 0, 64, 105
2,23410, Control_c, 0, 64, 95
2,23428, Control_c, 0, 64, 85
2,23448, Control_c, 0, 64, 75
2,23453, Note_on_c, 0, 78, 61
2,23465, Note_on_c, 0, 51, 62
2,23470, Control_c, 0, 64, 66
2,23470, Note_on_c, 0, 70, 52
2,23488, Control_c, 0, 64, 61
2,23504, Control_c, 0, 64, 58
2,23524, Control_c, 0, 64, 57
2,23562, Control_c, 0, 64, 56
2,23637, Control_c, 0, 64, 58
2,23659, Control_c, 0, 64, 61
2,23678, Control_c, 0, 64, 63
2,23696, Control_c, 0, 64, 65
2,23716, Control_c, 0, 64, 67
2,23735, Control_c, 0, 64, 71
2,23755, Control_c, 0, 64, 77
2,23777, Control_c, 0, 64, 83
2,23794, Control_c, 0, 64, 91
2,23812, Control_c, 0, 64, 99
2,23830, Control_c, 0, 64, 105
2,23850, Control_c, 0, 64, 109
2,23886, Note_on_c, 0, 70, 0
2,23890, Note_on_c, 0, 72, 66
2,23907, Control_c, 0, 64, 110
2,23926, Control_c, 0, 64, 111
2,23942, Note_on_c, 0, 51, 0
2,24049, Note_on_c, 0, 72, 0
2,24080, Control_c, 0, 64, 109
2,24100, Control_c, 0, 64, 108
2,24119, Control_c, 0, 64, 104
2,24141, Control_c, 0, 64, 100
2,24159, Control_c, 0, 64, 94
2,24179, Control_c, 0, 64, 89
2,24195, Control_c, 0, 64, 84
2,24216, Control_c, 0, 64, 79
2,24238, Control_c, 0, 64, 73
2,24255, Control_c, 0, 64, 67
2,24273, Control_c, 0, 64, 62
2,24280, Note_on_c, 0, 77, 61
2,24289, Note_on_c, 0, 58, 69
2,24293, Control_c, 0, 64, 56
2,24298, Note_on_c, 0, 74, 53
2,24312, Control_c, 0, 64, 52
2,24332, Control_c, 0, 64, 48
2,24350, Control_c, 0, 64, 45
2,24354, Note_on_c, 0, 78, 0
2,24369, Control_c, 0, 64, 42
2,24389, Control_c, 0, 64, 38
2,24407, Control_c, 0, 64, 33
2,24425, Control_c, 0, 64, 27
2,24446, Control_c, 0, 64, 25
2,24467, Control_c, 0, 64, 24
2,24561, Control_c, 0, 64, 23
2,24656, Control_c, 0, 64, 22
2,24683, Note_on_c, 0, 74, 0
2,24699, Note_on_c, 0, 75, 62
2,24706, Note_on_c, 0, 78, 64
2,24735, Note_on_c, 0, 77, 0
2,24753, Control_c, 0, 64, 21
2,24887, Control_c, 0, 64, 20
2,24964, Control_c, 0, 64, 19
2,24982, Control_c, 0, 64, 18
2,25024, Note_on_c, 0, 78, 0
2,25082, Control_c, 0, 64, 19
2,25082, Note_on_c, 0, 80, 75
2,25086, Note_on_c, 0, 77, 59
2,25093, Note_on_c, 0, 75, 0
2,25099, Control_c, 0, 64, 27
2,25119, Control_c, 0, 64, 41
2,25136, Control_c, 0, 64, 53
2,25158, Control_c, 0, 64, 61
2,25176, Control_c, 0, 64, 64
2,25194, Control_c, 0, 64, 66
2,25214, Note_on_c, 0, 77, 0
2,25219, Control_c, 0, 64, 72
2,25232, Control_c, 0, 64, 82
2,25252, Control_c, 0, 64, 109
2,25272, Control_c, 0, 64, 127
2,25489, Control_c, 0, 64, 88
2,25489, Note_on_c, 0, 59, 75
2,25489, Note_on_c, 0, 74, 63
2,25489, Note_on_c, 0, 77, 73
2,25501, Control_c, 0, 64, 69
2,25521, Note_on_c, 0, 80, 0
2,25526, Control_c, 0, 64, 58
2,25536, Note_on_c, 0, 58, 0
2,25540, Control_c, 0, 64, 52
2,25577, Control_c, 0, 64, 56
2,25598, Control_c, 0, 64, 60
2,25619, Control_c, 0, 64, 63
2,25637, Control_c, 0, 64, 67
2,25654, Control_c, 0, 64, 72
2,25674, Control_c, 0, 64, 80
2,25696, Control_c, 0, 64, 89
2,25703, Note_on_c, 0, 74, 0
2,25714, Control_c, 0, 64, 100
2,25732, Control_c, 0, 64, 120
2,25752, Control_c, 0, 64, 127
2,25882, Note_on_c, 0, 78, 78
2,25886, Control_c, 0, 64, 107
2,25892, Note_on_c, 0, 58, 77
2,25901, Note_on_c, 0, 75, 68
2,25906, Control_c, 0, 64, 89
2,25906, Note_on_c, 0, 77, 0
2,25917, Note_on_c, 0, 59, 0
2,25926, Control_c, 0, 64, 76
2,25942, Control_c, 0, 64, 65
2,25962, Control_c, 0, 64, 59
2,25985, Control_c, 0, 64, 54
2,26002, Control_c, 0, 64, 51
2,26059, Control_c, 0, 64, 50
2,26077, Control_c, 0, 64, 49
2,26097, Control_c, 0, 64, 47
2,26115, Control_c, 0, 64, 46
2,26267, Note_on_c, 0, 56, 74
2,26280, Note_on_c, 0, 80, 75
2,26288, Note_on_c, 0, 77, 76
2,26320, Note_on_c, 0, 78, 0
2,26325, Note_on_c, 0, 58, 0
2,26356, Note_on_c, 0, 75, 0
2,26596, Note_on_c, 0, 75, 17
2,26688, Note_on_c, 0, 54, 66
2,26688, Note_on_c, 0, 82, 70
2,26692, Note_on_c, 0, 78, 68
2,26717, Note_on_c, 0, 75, 0
2,26738, Note_on_c, 0, 80, 0
2,26748, Note_on_c, 0, 77, 0
2,26753, Note_on_c, 0, 56, 0
2,26846, Control_c, 0, 64, 45
2,26904, Control_c, 0, 64, 44
2,27055, Control_c, 0, 64, 43
2,27085, Note_on_c, 0, 56, 68
2,27087, Note_on_c, 0, 82, 0
2,27098, Note_on_c, 0, 54, 0
2,27100, Note_on_c, 0, 80, 62
2,27104, Note_on_c, 0, 77, 64
2,27120, Note_on_c, 0, 78, 0
2,27133, Control_c, 0, 64, 42
2,27440, Control_c, 0, 64, 41
2,27488, Note_on_c, 0, 77, 0
2,27493, Note_on_c, 0, 58, 57
2,27497, Note_on_c, 0, 56, 0
2,27502, Note_on_c, 0, 78, 66
2,27512, Note_on_c, 0, 75, 46
2,27531, Note_on_c, 0, 80, 0
2,27709, Control_c, 0, 64, 40
2,27747, Control_c, 0, 64, 39
2,27780, Note_on_c, 0, 75, 0
2,27863, Control_c, 0, 64, 40
2,27881, Control_c, 0, 64, 45
2,27895, Note_on_c, 0, 77, 63
2,27901, Control_c, 0, 64, 53
2,27906, Note_on_c, 0, 74, 51
2,27920, Control_c, 0, 64, 60
2,27940, Control_c, 0, 64, 63
2,27940, Note_on_c, 0, 78, 0
2,27958, Control_c, 0, 64, 66
2,27977, Control_c, 0, 64, 73
2,27997, Control_c, 0, 64, 93
2,28013, Note_on_c, 0, 77, 0
2,28018, Control_c, 0, 64, 127
2,28266, Control_c, 0, 64, 108
2,28277, Note_on_c, 0, 74, 0
2,28286, Control_c, 0, 64, 85
2,28304, Control_c, 0, 64, 73
2,28310, Note_on_c, 0, 78, 55
2,28314, Note_on_c, 0, 51, 50
2,28314, Note_on_c, 0, 58, 0
2,28323, Control_c, 0, 64, 65
2,28323, Note_on_c, 0, 75, 49
2,28342, Control_c, 0, 64, 61
2,28362, Control_c, 0, 64, 58
2,28384, Control_c, 0, 64, 56
2,28399, Control_c, 0, 64, 53
2,28419, Control_c, 0, 64, 48
2,28441, Control_c, 0, 64, 42
2,28457, Control_c, 0, 64, 38
2,28476, Control_c, 0, 64, 35
2,28649, Control_c, 0, 64, 36
2,28669, Control_c, 0, 64, 39
2,28680, Note_on_c, 0, 75, 0
2,28689, Control_c, 0, 64, 45
2,28707, Control_c, 0, 64, 53
2,28728, Note_on_c, 0, 73, 54
2,28732, Control_c, 0, 64, 58
2,28746, Control_c, 0, 64, 60
2,28767, Control_c, 0, 64, 62
2,28783, Control_c, 0, 64, 64
2,28804, Control_c, 0, 64, 66
2,28826, Control_c, 0, 64, 71
2,28843, Control_c, 0, 64, 80
2,28861, Control_c, 0, 64, 92
2,28879, Control_c, 0, 64, 108
2,28888, Note_on_c, 0, 51, 0
2,28893, Note_on_c, 0, 78, 0
2,28900, Control_c, 0, 64, 127
2,29055, Control_c, 0, 64, 113
2,29073, Control_c, 0, 64, 101
2,29091, Control_c, 0, 64, 88
2,29113, Control_c, 0, 64, 75
2,29124, Note_on_c, 0, 73, 0
2,29131, Control_c, 0, 64, 66
2,29137, Note_on_c, 0, 77, 60
2,29142, Note_on_c, 0, 71, 57
2,29148, Control_c, 0, 64, 61
2,29162, Note_on_c, 0, 56, 54
2,29171, Control_c, 0, 64, 57
2,29191, Control_c, 0, 64, 56
2,29206, Control_c, 0, 64, 55
2,29226, Control_c, 0, 64, 53
2,29246, Control_c, 0, 64, 51
2,29264, Control_c, 0, 64, 48
2,29285, Control_c, 0, 64, 45
2,29302, Control_c, 0, 64, 44
2,29323, Control_c, 0, 64, 43
2,29380, Control_c, 0, 64, 41
2,29399, Control_c, 0, 64, 40
2,29419, Control_c, 0, 64, 39
2,29514, Control_c, 0, 64, 41
2,29534, Control_c, 0, 64, 46
2,29536, Note_on_c, 0, 77, 0
2,29553, Control_c, 0, 64, 54
2,29558, Note_on_c, 0, 75, 56
2,29575, Control_c, 0, 64, 60
2,29590, Control_c, 0, 64, 63
2,29610, Control_c, 0, 64, 66
2,29630, Control_c, 0, 64, 71
2,29648, Control_c, 0, 64, 81
2,29668, Control_c, 0, 64, 108
2,29686, Control_c, 0, 64, 127
2,29694, Note_on_c, 0, 75, 0
2,29918, Control_c, 0, 64, 98
2,29939, Control_c, 0, 64, 79
2,29957, Control_c, 0, 64, 69
2,29961, Note_on_c, 0, 71, 0
2,29963, Note_on_c, 0, 74, 49
2,29968, Note_on_c, 0, 70, 41
2,29975, Control_c, 0, 64, 63
2,29994, Control_c, 0, 64, 59
2,30012, Control_c, 0, 64, 58
2,30051, Control_c, 0, 64, 57
2,30071, Control_c, 0, 64, 56
2,30089, Control_c, 0, 64, 55
2,30109, Control_c, 0, 64, 53
2,30131, Control_c, 0, 64, 52
2,30205, Control_c, 0, 64, 51
2,30246, Control_c, 0, 64, 50
2,30321, Control_c, 0, 64, 49
2,30341, Note_on_c, 0, 56, 0
2,30356, Note_on_c, 0, 54, 47
2,30356, Note_on_c, 0, 74, 0
2,30374, Note_on_c, 0, 75, 50
2,30740, Note_on_c, 0, 54, 0
2,30740, Note_on_c, 0, 70, 0
2,30759, Note_on_c, 0, 53, 51
2,30779, Note_on_c, 0, 68, 49
2,31050, Control_c, 0, 64, 50
2,31071, Control_c, 0, 64, 51
2,31089, Control_c, 0, 64, 54
2,31107, Control_c, 0, 64, 57
2,31127, Control_c, 0, 64, 60
2,31147, Control_c, 0, 64, 63
2,31151, Note_on_c, 0, 75, 0
2,31168, Control_c, 0, 64, 67
2,31177, Note_on_c, 0, 74, 52
2,31184, Control_c, 0, 64, 72
2,31205, Control_c, 0, 64, 81
2,31224, Control_c, 0, 64, 100
2,31242, Control_c, 0, 64, 127
2,31286, Note_on_c, 0, 53, 0
2,31317, Note_on_c, 0, 68, 0
2,31317, Note_on_c, 0, 74, 0
2,31590, Control_c, 0, 64, 92
2,31607, Control_c, 0, 64, 77
2,31612, Note_on_c, 0, 51, 49
2,31612, Note_on_c, 0, 75, 53
2,31630, Control_c, 0, 64, 67
2,31630, Note_on_c, 0, 66, 49
2,31646, Control_c, 0, 64, 61
2,31665, Control_c, 0, 64, 58
2,31741, Control_c, 0, 64, 57
2,31760, Control_c, 0, 64, 56
2,31778, Control_c, 0, 64, 55
2,31819, Control_c, 0, 64, 56
2,31857, Control_c, 0, 64, 57
2,31875, Control_c, 0, 64, 58
2,31894, Control_c, 0, 64, 60
2,31913, Control_c, 0, 64, 62
2,31935, Control_c, 0, 64, 64
2,31953, Control_c, 0, 64, 68
2,31971, Control_c, 0, 64, 74
2,31991, Control_c, 0, 64, 88
2,32011, Control_c, 0, 64, 118
2,32030, Control_c, 0, 64, 127
2,32045, Note_on_c, 0, 73, 68
2,32108, Note_on_c, 0, 75, 0
2,32307, Note_on_c, 0, 66, 0
2,32354, Note_on_c, 0, 51, 0
2,32395, Control_c, 0, 64, 101
2,32415, Control_c, 0, 64, 80
2,32419, Note_on_c, 0, 63, 41
2,32419, Note_on_c, 0, 68, 68
2,32429, Note_on_c, 0, 71, 66
2,32436, Control_c, 0, 64, 68
2,32436, Note_on_c, 0, 73, 0
2,32451, Control_c, 0, 64, 61
2,32473, Control_c, 0, 64, 57
2,32490, Control_c, 0, 64, 56
2,32510, Control_c, 0, 64, 55
2,32529, Control_c, 0, 64, 54
2,32547, Control_c, 0, 64, 52
2,32565, Control_c, 0, 64, 50
2,32586, Control_c, 0, 64, 48
2,32608, Control_c, 0, 64, 47
2,32701, Control_c, 0, 64, 48
2,32721, Control_c, 0, 64, 49
2,32742, Control_c, 0, 64, 51
2,32758, Control_c, 0, 64, 55
2,32777, Control_c, 0, 64, 59
2,32797, Control_c, 0, 64, 61
2,32820, Control_c, 0, 64, 63
2,32837, Control_c, 0, 64, 66
2,32853, Note_on_c, 0, 68, 0
2,32855, Control_c, 0, 64, 69
2,32864, Note_on_c, 0, 66, 65
2,32875, Control_c, 0, 64, 75
2,32896, Control_c, 0, 64, 85
2,32914, Control_c, 0, 64, 97
2,32932, Control_c, 0, 64, 118
2,32954, Control_c, 0, 64, 127
2,33193, Note_on_c, 0, 66, 0
2,33200, Control_c, 0, 64, 109
2,33220, Control_c, 0, 64, 93
2,33240, Control_c, 0, 64, 78
2,33244, Note_on_c, 0, 65, 60
2,33258, Control_c, 0, 64, 69
2,33275, Note_on_c, 0, 62, 46
2,33279, Control_c, 0, 64, 63
2,33279, Note_on_c, 0, 63, 0
2,33296, Control_c, 0, 64, 59
2,33317, Control_c, 0, 64, 57
2,33353, Control_c, 0, 64, 56
2,33374, Control_c, 0, 64, 55
2,33394, Control_c, 0, 64, 53
2,33412, Control_c, 0, 64, 51
2,33430, Control_c, 0, 64, 49
2,33448, Control_c, 0, 64, 48
2,33526, Control_c, 0, 64, 47
2,33546, Control_c, 0, 64, 46
2,33565, Control_c, 0, 64, 45
2,33582, Control_c, 0, 64, 44
2,33620, Note_on_c, 0, 71, 0
2,33623, Control_c, 0, 64, 43
2,33643, Control_c, 0, 64, 42
2,33647, Note_on_c, 0, 70, 65
2,33661, Control_c, 0, 64, 41
2,33680, Control_c, 0, 64, 39
2,33700, Control_c, 0, 64, 38
2,33718, Control_c, 0, 64, 36
2,33738, Control_c, 0, 64, 35
2,33761, Control_c, 0, 64, 32
2,33778, Control_c, 0, 64, 29
2,33798, Control_c, 0, 64, 27
2,33803, Note_on_c, 0, 70, 0
2,33816, Control_c, 0, 64, 23
2,33832, Note_on_c, 0, 68, 61
2,33836, Control_c, 0, 64, 11
2,33854, Control_c, 0, 64, 0
2,34001, Note_on_c, 0, 62, 0
2,34038, Note_on_c, 0, 68, 0
2,34049, Note_on_c, 0, 61, 41
2,34049, Note_on_c, 0, 70, 61
2,34084, Control_c, 0, 64, 27
2,34104, Control_c, 0, 64, 45
2,34122, Control_c, 0, 64, 56
2,34143, Control_c, 0, 64, 61
2,34163, Control_c, 0, 64, 63
2,34181, Control_c, 0, 64, 65
2,34202, Control_c, 0, 64, 70
2,34221, Control_c, 0, 64, 76
2,34239, Control_c, 0, 64, 83
2,34256, Control_c, 0, 64, 91
2,34276, Control_c, 0, 64, 98
2,34296, Control_c, 0, 64, 107
2,34314, Control_c, 0, 64, 122
2,34336, Control_c, 0, 64, 127
2,34359, Note_on_c, 0, 65, 0
2,34382, Note_on_c, 0, 70, 0
2,34403, Note_on_c, 0, 61, 0
2,34444, Note_on_c, 0, 71, 64
2,34453, Note_on_c, 0, 63, 55
2,34602, Control_c, 0, 64, 122
2,34613, Note_on_c, 0, 63, 0
2,34630, Note_on_c, 0, 73, 79
2,34640, Note_on_c, 0, 65, 56
2,34654, Note_on_c, 0, 71, 0
2,34755, Control_c, 0, 64, 116
2,34776, Control_c, 0, 64, 100
2,34795, Control_c, 0, 64, 81
2,34817, Control_c, 0, 64, 67
2,34830, Note_on_c, 0, 65, 0
2,34831, Control_c, 0, 64, 57
2,34856, Control_c, 0, 64, 50
2,34856, Note_on_c, 0, 66, 58
2,34856, Note_on_c, 0, 75, 80
2,34865, Note_on_c, 0, 60, 46
2,34872, Control_c, 0, 64, 47
2,34878, Note_on_c, 0, 73, 0
2,34891, Control_c, 0, 64, 48
2,34911, Control_c, 0, 64, 50
2,34929, Control_c, 0, 64, 55
2,34947, Control_c, 0, 64, 59
2,34967, Control_c, 0, 64, 62
2,34987, Control_c, 0, 64, 63
2,35007, Control_c, 0, 64, 65
2,35024, Control_c, 0, 64, 69
2,35044, Control_c, 0, 64, 73
2,35064, Control_c, 0, 64, 79
2,35083, Control_c, 0, 64, 85
2,35101, Control_c, 0, 64, 89
2,35120, Control_c, 0, 64, 91
2,35155, Note_on_c, 0, 66, 0
2,35161, Control_c, 0, 64, 92
2,35178, Control_c, 0, 64, 93
2,35198, Control_c, 0, 64, 94
2,35202, Note_on_c, 0, 75, 0
2,35233, Note_on_c, 0, 68, 64
2,35237, Note_on_c, 0, 77, 77
2,35265, Note_on_c, 0, 60, 0
2,35274, Control_c, 0, 64, 95
2,35292, Control_c, 0, 64, 96
2,35312, Control_c, 0, 64, 97
2,35330, Control_c, 0, 64, 100
2,35350, Control_c, 0, 64, 104
2,35373, Control_c, 0, 64, 120
2,35384, Note_on_c, 0, 77, 0
2,35390, Note_on_c, 0, 68, 0
2,35390, Note_on_c, 0, 78, 83
2,35395, Control_c, 0, 64, 127
2,35418, Note_on_c, 0, 70, 54
2,35477, Note_on_c, 0, 70, 0
2,35505, Note_on_c, 0, 78, 0
2,35581, Control_c, 0, 64, 100
2,35602, Control_c, 0, 64, 74
2,35609, Note_on_c, 0, 59, 48
2,35622, Control_c, 0, 64, 62
2,35641, Control_c, 0, 64, 52
2,35659, Control_c, 0, 64, 48
2,35674, Note_on_c, 0, 77, 68
2,35679, Control_c, 0, 64, 50
2,35690, Note_on_c, 0, 68, 64
2,35697, Control_c, 0, 64, 54
2,35714, Control_c, 0, 64, 59
2,35737, Control_c, 0, 64, 62
2,35737, Note_on_c, 0, 77, 0
2,35756, Control_c, 0, 64, 64
2,35771, Control_c, 0, 64, 66
2,35792, Control_c, 0, 64, 70
2,35803, Note_on_c, 0, 68, 0
2,35814, Control_c, 0, 64, 76
2,35831, Control_c, 0, 64, 84
2,35849, Control_c, 0, 64, 94
2,35869, Control_c, 0, 64, 100
2,35874, Note_on_c, 0, 70, 61
2,35889, Control_c, 0, 64, 102
2,35908, Control_c, 0, 64, 103
2,35919, Note_on_c, 0, 70, 0
2,35927, Control_c, 0, 64, 104
2,35934, Note_on_c, 0, 59, 0
2,35950, Control_c, 0, 64, 107
2,35952, Note_on_c, 0, 68, 63
2,35966, Control_c, 0, 64, 109
2,35983, Control_c, 0, 64, 115
2,35999, Note_on_c, 0, 68, 0
2,36003, Control_c, 0, 64, 122
2,36012, Note_on_c, 0, 70, 72
2,36026, Control_c, 0, 64, 127
2,36060, Note_on_c, 0, 70, 0
2,36090, Note_on_c, 0, 68, 71
2,36144, Note_on_c, 0, 68, 0
2,36171, Note_on_c, 0, 70, 64
2,36215, Note_on_c, 0, 70, 0
2,36241, Note_on_c, 0, 66, 66
2,36246, Note_on_c, 0, 75, 72
2,36316, Note_on_c, 0, 66, 0
2,36322, Note_on_c, 0, 68, 77
2,36358, Note_on_c, 0, 75, 0
2,36369, Control_c, 0, 64, 112
2,36386, Control_c, 0, 64, 88
2,36406, Control_c, 0, 64, 70
2,36423, Control_c, 0, 64, 61
2,36442, Control_c, 0, 64, 53
2,36455, Note_on_c, 0, 74, 72
2,36466, Control_c, 0, 64, 48
2,36466, Note_on_c, 0, 70, 70
2,36484, Control_c, 0, 64, 45
2,36484, Note_on_c, 0, 58, 63
2,36488, Note_on_c, 0, 68, 0
2,36499, Control_c, 0, 64, 43
2,36827, Control_c, 0, 64, 42
2,36831, Note_on_c, 0, 58, 0
2,36864, Control_c, 0, 64, 41
2,36887, Control_c, 0, 64, 40
2,36887, Note_on_c, 0, 46, 76
2,36891, Note_on_c, 0, 70, 0
2,36901, Note_on_c, 0, 68, 64
2,36903, Control_c, 0, 64, 39
2,36940, Control_c, 0, 64, 40
2,36960, Control_c, 0, 64, 42
2,36965, Note_on_c, 0, 74, 0
2,36980, Control_c, 0, 64, 46
2,36999, Control_c, 0, 64, 50
2,37017, Control_c, 0, 64, 52
2,37055, Note_on_c, 0, 46, 0
2,37075, Control_c, 0, 64, 51
2,37193, Control_c, 0, 64, 50
2,37250, Control_c, 0, 64, 49
2,37264, Note_on_c, 0, 68, 0
2,37268, Control_c, 0, 64, 48
2,37287, Control_c, 0, 64, 46
2,37310, Note_on_c, 0, 51, 74
2,37310, Note_on_c, 0, 75, 58
2,37314, Control_c, 0, 64, 45
2,37314, Note_on_c, 0, 66, 57
2,37325, Control_c, 0, 64, 43
2,37383, Control_c, 0, 64, 45
2,37402, Control_c, 0, 64, 50
2,37422, Control_c, 0, 64, 56
2,37441, Control_c, 0, 64, 60
2,37460, Control_c, 0, 64, 63
2,37482, Control_c, 0, 64, 65
2,37499, Control_c, 0, 64, 69
2,37517, Control_c, 0, 64, 76
2,37539, Control_c, 0, 64, 91
2,37555, Control_c, 0, 64, 127
2,37611, Note_on_c, 0, 66, 0
2,37671, Control_c, 0, 64, 102
2,37691, Control_c, 0, 64, 77
2,37712, Control_c, 0, 64, 65
2,37712, Note_on_c, 0, 73, 68
2,37717, Note_on_c, 0, 65, 58
2,37717, Note_on_c, 0, 75, 0
2,37729, Control_c, 0, 64, 57
2,37748, Control_c, 0, 64, 55
2,37770, Control_c, 0, 64, 56
2,37786, Control_c, 0, 64, 59
2,37805, Control_c, 0, 64, 62
2,37825, Control_c, 0, 64, 64
2,37845, Control_c, 0, 64, 68
2,37864, Control_c, 0, 64, 73
2,37881, Control_c, 0, 64, 83
2,37901, Control_c, 0, 64, 100
2,37919, Note_on_c, 0, 65, 0
2,37923, Control_c, 0, 64, 127
2,38092, Control_c, 0, 64, 115
2,38116, Control_c, 0, 64, 80
2,38122, Note_on_c, 0, 71, 64
2,38127, Note_on_c, 0, 73, 0
2,38132, Control_c, 0, 64, 65
2,38137, Note_on_c, 0, 63, 54
2,38155, Control_c, 0, 64, 57
2,38169, Control_c, 0, 64, 55
2,38189, Control_c, 0, 64, 57
2,38208, Control_c, 0, 64, 60
2,38228, Control_c, 0, 64, 62
2,38245, Control_c, 0, 64, 64
2,38267, Control_c, 0, 64, 65
2,38287, Control_c, 0, 64, 67
2,38304, Control_c, 0, 64, 69
2,38325, Control_c, 0, 64, 72
2,38346, Control_c, 0, 64, 75
2,38364, Control_c, 0, 64, 78
2,38385, Control_c, 0, 64, 79
2,38422, Control_c, 0, 64, 78
2,38464, Control_c, 0, 64, 75
2,38480, Control_c, 0, 64, 69
2,38500, Control_c, 0, 64, 62
2,38518, Control_c, 0, 64, 55
2,38522, Note_on_c, 0, 54, 74
2,38533, Note_on_c, 0, 51, 0
2,38537, Note_on_c, 0, 71, 0
2,38542, Control_c, 0, 64, 51
2,38542, Note_on_c, 0, 70, 66
2,38560, Control_c, 0, 64, 48
2,38598, Control_c, 0, 64, 52
2,38614, Control_c, 0, 64, 58
2,38634, Control_c, 0, 64, 63
2,38653, Control_c, 0, 64, 66
2,38673, Control_c, 0, 64, 70
2,38693, Control_c, 0, 64, 77
2,38715, Control_c, 0, 64, 88
2,38735, Control_c, 0, 64, 107
2,38751, Control_c, 0, 64, 127
2,38784, Note_on_c, 0, 63, 0
2,38927, Note_on_c, 0, 70, 0
2,38954, Note_on_c, 0, 68, 65
2,38964, Control_c, 0, 64, 103
2,38964, Note_on_c, 0, 62, 60
2,38966, Note_on_c, 0, 53, 61
2,38973, Note_on_c, 0, 54, 0
2,38982, Control_c, 0, 64, 84
2,39005, Control_c, 0, 64, 71
2,39022, Control_c, 0, 64, 61
2,39040, Control_c, 0, 64, 56
2,39060, Control_c, 0, 64, 53
2,39078, Control_c, 0, 64, 52
2,39117, Control_c, 0, 64, 51
2,39135, Control_c, 0, 64, 50
2,39155, Control_c, 0, 64, 48
2,39175, Control_c, 0, 64, 46
2,39194, Control_c, 0, 64, 44
2,39251, Control_c, 0, 64, 43
2,39269, Control_c, 0, 64, 42
2,39347, Control_c, 0, 64, 43
2,39352, Note_on_c, 0, 68, 0
2,39359, Note_on_c, 0, 62, 0
2,39363, Note_on_c, 0, 53, 0
2,39371, Control_c, 0, 64, 45
2,39371, Note_on_c, 0, 51, 68
2,39375, Note_on_c, 0, 66, 52
2,39386, Control_c, 0, 64, 50
2,39398, Note_on_c, 0, 63, 49
2,39404, Control_c, 0, 64, 57
2,39424, Control_c, 0, 64, 61
2,39443, Control_c, 0, 64, 63
2,39463, Control_c, 0, 64, 65
2,39481, Control_c, 0, 64, 68
2,39501, Control_c, 0, 64, 72
2,39521, Control_c, 0, 64, 77
2,39542, Control_c, 0, 64, 83
2,39558, Control_c, 0, 64, 87
2,39573, Note_on_c, 0, 63, 0
2,39577, Control_c, 0, 64, 95
2,39597, Control_c, 0, 64, 97
2,39653, Control_c, 0, 64, 96
2,39672, Control_c, 0, 64, 94
2,39694, Control_c, 0, 64, 92
2,39711, Control_c, 0, 64, 86
2,39731, Control_c, 0, 64, 80
2,39752, Control_c, 0, 64, 72
2,39764, Note_on_c, 0, 50, 63
2,39766, Note_on_c, 0, 51, 0
2,39770, Control_c, 0, 64, 64
2,39770, Note_on_c, 0, 66, 0
2,39776, Note_on_c, 0, 65, 53
2,39791, Control_c, 0, 64, 59
2,39809, Control_c, 0, 64, 55
2,39829, Control_c, 0, 64, 54
2,39847, Control_c, 0, 64, 52
2,39867, Control_c, 0, 64, 51
2,39885, Control_c, 0, 64, 50
2,39905, Control_c, 0, 64, 48
2,39922, Control_c, 0, 64, 46
2,39943, Control_c, 0, 64, 45
2,40019, Control_c, 0, 64, 44
2,40076, Control_c, 0, 64, 43
2,40164, Note_on_c, 0, 65, 0
2,40190, Note_on_c, 0, 51, 67
2,40198, Note_on_c, 0, 50, 0
2,40207, Note_on_c, 0, 66, 50
2,40218, Note_on_c, 0, 63, 43
2,40586, Note_on_c, 0, 66, 0
2,40603, Note_on_c, 0, 68, 59
2,40613, Note_on_c, 0, 53, 62
2,40617, Note_on_c, 0, 62, 51
2,40636, Note_on_c, 0, 51, 0
2,40647, Note_on_c, 0, 63, 0
2,40825, Control_c, 0, 64, 44
2,40845, Control_c, 0, 64, 45
2,40863, Control_c, 0, 64, 47
2,40883, Control_c, 0, 64, 51
2,40901, Control_c, 0, 64, 57
2,40921, Control_c, 0, 64, 61
2,40939, Control_c, 0, 64, 64
2,40959, Control_c, 0, 64, 67
2,40980, Control_c, 0, 64, 73
2,40999, Control_c, 0, 64, 87
2,41017, Control_c, 0, 64, 127
2,41039, Note_on_c, 0, 62, 0
2,41077, Note_on_c, 0, 60, 51
2,41165, Note_on_c, 0, 53, 0
2,41377, Note_on_c, 0, 60, 0
2,41383, Control_c, 0, 64, 95
2,41401, Control_c, 0, 64, 77
2,41421, Control_c, 0, 64, 65
2,41442, Control_c, 0, 64, 57
2,41442, Note_on_c, 0, 46, 60
2,41448, Note_on_c, 0, 62, 50
2,41459, Control_c, 0, 64, 53
2,41479, Control_c, 0, 64, 52
2,41593, Control_c, 0, 64, 53
2,41613, Control_c, 0, 64, 54
2,41634, Control_c, 0, 64, 56
2,41660, Note_on_c, 0, 62, 0
2,41671, Control_c, 0, 64, 57
2,41688, Control_c, 0, 64, 58
2,41709, Control_c, 0, 64, 60
2,41729, Control_c, 0, 64, 62
2,41747, Control_c, 0, 64, 64
2,41767, Control_c, 0, 64, 66
2,41785, Control_c, 0, 64, 69
2,41806, Control_c, 0, 64, 75
2,41826, Control_c, 0, 64, 82
2,41844, Control_c, 0, 64, 91
2,41859, Note_on_c, 0, 66, 67
2,41863, Control_c, 0, 64, 101
2,41881, Control_c, 0, 64, 108
2,41893, Note_on_c, 0, 68, 0
2,41901, Control_c, 0, 64, 109
2,41959, Note_on_c, 0, 46, 0
2,41997, Control_c, 0, 64, 108
2,42016, Control_c, 0, 64, 106
2,42027, Note_on_c, 0, 65, 72
2,42036, Control_c, 0, 64, 103
2,42045, Note_on_c, 0, 66, 0
2,42057, Control_c, 0, 64, 100
2,42073, Control_c, 0, 64, 98
2,42093, Control_c, 0, 64, 96
2,42111, Control_c, 0, 64, 94
2,42131, Control_c, 0, 64, 93
2,42150, Control_c, 0, 64, 91
2,42171, Control_c, 0, 64, 89
2,42192, Control_c, 0, 64, 86
2,42207, Control_c, 0, 64, 84
2,42227, Control_c, 0, 64, 80
2,42243, Note_on_c, 0, 66, 66
2,42247, Control_c, 0, 64, 74
2,42256, Note_on_c, 0, 51, 76
2,42256, Note_on_c, 0, 63, 58
2,42256, Note_on_c, 0, 65, 0
2,42266, Control_c, 0, 64, 68
2,42286, Control_c, 0, 64, 62
2,42304, Control_c, 0, 64, 58
2,42322, Control_c, 0, 64, 56
2,42344, Control_c, 0, 64, 55
2,42363, Control_c, 0, 64, 54
2,42384, Control_c, 0, 64, 52
2,42399, Control_c, 0, 64, 49
2,42420, Control_c, 0, 64, 47
2,42439, Control_c, 0, 64, 44
2,42457, Control_c, 0, 64, 41
2,42476, Control_c, 0, 64, 39
2,42498, Control_c, 0, 64, 37
2,42516, Control_c, 0, 64, 33
2,42535, Control_c, 0, 64, 28
2,42553, Control_c, 0, 64, 22
2,42573, Control_c, 0, 64, 15
2,42593, Control_c, 0, 64, 0
2,42659, Note_on_c, 0, 68, 79
2,42668, Note_on_c, 0, 65, 65
2,42687, Note_on_c, 0, 66, 0
2,42702, Note_on_c, 0, 63, 0
2,43031, Note_on_c, 0, 68, 0
2,43056, Note_on_c, 0, 70, 78
2,43065, Note_on_c, 0, 66, 68
2,43080, Note_on_c, 0, 65, 0
2,43303, Control_c, 0, 64, 13
2,43321, Control_c, 0, 64, 32
2,43343, Control_c, 0, 64, 44
2,43363, Control_c, 0, 64, 54
2,43380, Control_c, 0, 64, 60
2,43399, Control_c, 0, 64, 62
2,43417, Control_c, 0, 64, 63
2,43438, Control_c, 0, 64, 65
2,43457, Note_on_c, 0, 66, 0
2,43462, Control_c, 0, 64, 68
2,43476, Control_c, 0, 64, 73
2,43484, Note_on_c, 0, 70, 0
2,43494, Control_c, 0, 64, 79
2,43494, Note_on_c, 0, 49, 80
2,43513, Control_c, 0, 64, 85
2,43521, Note_on_c, 0, 51, 0
2,43533, Control_c, 0, 64, 88
2,43553, Control_c, 0, 64, 89
2,43708, Control_c, 0, 64, 88
2,43748, Control_c, 0, 64, 86
2,43764, Control_c, 0, 64, 85
2,43782, Control_c, 0, 64, 82
2,43802, Control_c, 0, 64, 79
2,43822, Control_c, 0, 64, 75
2,43839, Control_c, 0, 64, 68
2,43859, Control_c, 0, 64, 63
2,43878, Control_c, 0, 64, 58
2,43901, Control_c, 0, 64, 53
2,43901, Note_on_c, 0, 71, 78
2,43907, Note_on_c, 0, 47, 68
2,43909, Note_on_c, 0, 49, 0
2,43914, Note_on_c, 0, 68, 75
2,43916, Control_c, 0, 64, 49
2,43934, Control_c, 0, 64, 45
2,43952, Control_c, 0, 64, 42
2,43972, Control_c, 0, 64, 39
2,43990, Control_c, 0, 64, 36
2,44010, Control_c, 0, 64, 33
2,44028, Control_c, 0, 64, 30
2,44048, Control_c, 0, 64, 29
2,44208, Note_on_c, 0, 68, 0
2,44292, Note_on_c, 0, 73, 80
2,44305, Note_on_c, 0, 71, 0
2,44321, Note_on_c, 0, 66, 66
2,44336, Control_c, 0, 64, 32
2,44355, Control_c, 0, 64, 35
2,44375, Control_c, 0, 64, 41
2,44394, Control_c, 0, 64, 50
2,44414, Control_c, 0, 64, 56
2,44432, Control_c, 0, 64, 59
2,44453, Control_c, 0, 64, 61
2,44467, Note_on_c, 0, 75, 81
2,44471, Control_c, 0, 64, 62
2,44490, Control_c, 0, 64, 63
2,44511, Control_c, 0, 64, 65
2,44511, Note_on_c, 0, 73, 0
2,44529, Control_c, 0, 64, 67
2,44539, Note_on_c, 0, 66, 0
2,44548, Control_c, 0, 64, 71
2,44566, Control_c, 0, 64, 76
2,44586, Control_c, 0, 64, 79
2,44607, Control_c, 0, 64, 80
2,44645, Control_c, 0, 64, 78
2,44663, Control_c, 0, 64, 72
2,44683, Control_c, 0, 64, 66
2,44701, Control_c, 0, 64, 60
2,44706, Note_on_c, 0, 68, 82
2,44716, Note_on_c, 0, 65, 66
2,44723, Control_c, 0, 64, 54
2,44739, Note_on_c, 0, 75, 0
2,44743, Control_c, 0, 64, 51
2,44758, Control_c, 0, 64, 50
2,44781, Control_c, 0, 64, 49
2,44815, Control_c, 0, 64, 50
2,44835, Control_c, 0, 64, 52
2,44855, Control_c, 0, 64, 56
2,44873, Control_c, 0, 64, 61
2,44893, Control_c, 0, 64, 64
2,44913, Control_c, 0, 64, 68
2,44920, Note_on_c, 0, 65, 0
2,44930, Control_c, 0, 64, 80
2,44952, Control_c, 0, 64, 98
2,44970, Control_c, 0, 64, 127
2,45132, Note_on_c, 0, 61, 58
2,45216, Note_on_c, 0, 61, 0
2,45470, Control_c, 0, 64, 102
2,45488, Control_c, 0, 64, 85
2,45506, Control_c, 0, 64, 73
2,45517, Note_on_c, 0, 47, 0
2,45522, Note_on_c, 0, 68, 0
2,45526, Control_c, 0, 64, 64
2,45548, Note_on_c, 0, 66, 60
2,45553, Control_c, 0, 64, 59
2,45553, Note_on_c, 0, 46, 43
2,45566, Control_c, 0, 64, 57
2,45586, Control_c, 0, 64, 56
2,45622, Control_c, 0, 64, 54
2,45642, Control_c, 0, 64, 53
2,45660, Control_c, 0, 64, 50
2,45680, Control_c, 0, 64, 48
2,45700, Control_c, 0, 64, 45
2,45719, Control_c, 0, 64, 43
2,45736, Control_c, 0, 64, 42
2,45756, Control_c, 0, 64, 41
2,45795, Control_c, 0, 64, 40
2,45813, Control_c, 0, 64, 39
2,45930, Control_c, 0, 64, 40
2,45950, Control_c, 0, 64, 44
2,45963, Note_on_c, 0, 70, 55
2,45972, Control_c, 0, 64, 50
2,45987, Control_c, 0, 64, 57
2,46008, Control_c, 0, 64, 62
2,46026, Control_c, 0, 64, 64
2,46044, Control_c, 0, 64, 66
2,46064, Control_c, 0, 64, 68
2,46064, Note_on_c, 0, 70, 0
2,46083, Control_c, 0, 64, 72
2,46101, Control_c, 0, 64, 76
2,46121, Control_c, 0, 64, 81
2,46141, Control_c, 0, 64, 85
2,46162, Control_c, 0, 64, 88
2,46297, Control_c, 0, 64, 87
2,46312, Control_c, 0, 64, 85
2,46333, Control_c, 0, 64, 83
2,46339, Note_on_c, 0, 46, 0
2,46352, Control_c, 0, 64, 80
2,46372, Control_c, 0, 64, 76
2,46380, Note_on_c, 0, 44, 49
2,46380, Note_on_c, 0, 71, 55
2,46389, Control_c, 0, 64, 71
2,46409, Control_c, 0, 64, 66
2,46431, Control_c, 0, 64, 62
2,46449, Control_c, 0, 64, 59
2,46468, Control_c, 0, 64, 57
2,46489, Control_c, 0, 64, 56
2,46505, Control_c, 0, 64, 54
2,46526, Control_c, 0, 64, 53
2,46543, Control_c, 0, 64, 51
2,46563, Control_c, 0, 64, 48
2,46581, Control_c, 0, 64, 46
2,46601, Control_c, 0, 64, 45
2,46639, Control_c, 0, 64, 44
2,46721, Control_c, 0, 64, 45
2,46738, Control_c, 0, 64, 48
2,46742, Note_on_c, 0, 44, 0
2,46755, Control_c, 0, 64, 54
2,46778, Control_c, 0, 64, 59
2,46782, Note_on_c, 0, 46, 44
2,46782, Note_on_c, 0, 71, 0
2,46791, Note_on_c, 0, 73, 65
2,46794, Control_c, 0, 64, 63
2,46813, Control_c, 0, 64, 65
2,46831, Control_c, 0, 64, 69
2,46853, Control_c, 0, 64, 77
2,46870, Control_c, 0, 64, 90
2,46893, Control_c, 0, 64, 110
2,46908, Control_c, 0, 64, 127
2,46944, Note_on_c, 0, 73, 0
2,46960, Note_on_c, 0, 66, 0
2,47139, Control_c, 0, 64, 110
2,47159, Control_c, 0, 64, 94
2,47180, Control_c, 0, 64, 81
2,47194, Note_on_c, 0, 46, 0
2,47198, Control_c, 0, 64, 69
2,47220, Note_on_c, 0, 47, 42
2,47220, Note_on_c, 0, 65, 58
2,47222, Control_c, 0, 64, 62
2,47222, Note_on_c, 0, 75, 61
2,47239, Control_c, 0, 64, 56
2,47254, Control_c, 0, 64, 51
2,47272, Control_c, 0, 64, 43
2,47294, Control_c, 0, 64, 26
2,47312, Control_c, 0, 64, 0
2,47543, Control_c, 0, 64, 32
2,47560, Control_c, 0, 64, 53
2,47579, Control_c, 0, 64, 64
2,47603, Control_c, 0, 64, 70
2,47603, Note_on_c, 0, 77, 77
2,47614, Note_on_c, 0, 47, 0
2,47621, Control_c, 0, 64, 85
2,47631, Note_on_c, 0, 49, 53
2,47631, Note_on_c, 0, 75, 0
2,47641, Control_c, 0, 64, 127
2,47670, Note_on_c, 0, 65, 0
2,47676, Note_on_c, 0, 49, 0
2,47709, Note_on_c, 0, 77, 0
2,48005, Note_on_c, 0, 51, 60
2,48020, Note_on_c, 0, 78, 86
2,48367, Control_c, 0, 64, 116
2,48387, Control_c, 0, 64, 89
2,48406, Control_c, 0, 64, 74
2,48421, Note_on_c, 0, 53, 69
2,48427, Control_c, 0, 64, 65
2,48427, Note_on_c, 0, 80, 89
2,48430, Note_on_c, 0, 51, 0
2,48445, Control_c, 0, 64, 62
2,48486, Control_c, 0, 64, 63
2,48491, Note_on_c, 0, 78, 0
2,48502, Control_c, 0, 64, 66
2,48522, Control_c, 0, 64, 71
2,48543, Control_c, 0, 64, 83
2,48561, Control_c, 0, 64, 122
2,48579, Control_c, 0, 64, 127
2,48595, Note_on_c, 0, 53, 0
2,48845, Note_on_c, 0, 82, 87
2,48854, Note_on_c, 0, 63, 59
2,48868, Control_c, 0, 64, 99
2,48870, Note_on_c, 0, 54, 50
2,48886, Control_c, 0, 64, 84
2,48891, Note_on_c, 0, 80, 0
2,48906, Control_c, 0, 64, 73
2,48924, Control_c, 0, 64, 65
2,48943, Control_c, 0, 64, 60
2,48964, Control_c, 0, 64, 58
2,48984, Control_c, 0, 64, 57
2,49000, Control_c, 0, 64, 56
2,49021, Control_c, 0, 64, 55
2,49040, Control_c, 0, 64, 54
2,49060, Control_c, 0, 64, 52
2,49118, Control_c, 0, 64, 51
2,49193, Control_c, 0, 64, 50
2,49213, Control_c, 0, 64, 49
2,49251, Control_c, 0, 64, 48
2,49286, Note_on_c, 0, 54, 0
2,49293, Note_on_c, 0, 56, 52
2,49293, Note_on_c, 0, 83, 68
2,49302, Note_on_c, 0, 82, 0
2,49308, Control_c, 0, 64, 47
2,49329, Control_c, 0, 64, 46
2,49349, Control_c, 0, 64, 43
2,49367, Control_c, 0, 64, 41
2,49385, Control_c, 0, 64, 38
2,49406, Control_c, 0, 64, 36
2,49425, Control_c, 0, 64, 34
2,49443, Control_c, 0, 64, 33
2,49540, Control_c, 0, 64, 32
2,49587, Note_on_c, 0, 83, 0
2,49672, Note_on_c, 0, 56, 0
2,49683, Note_on_c, 0, 58, 49
2,49687, Note_on_c, 0, 61, 50
2,49777, Note_on_c, 0, 63, 0
2,49903, Control_c, 0, 64, 31
2,49943, Control_c, 0, 64, 30
2,50002, Control_c, 0, 64, 29
2,50052, Note_on_c, 0, 58, 0
2,50089, Note_on_c, 0, 61, 0
2,50095, Control_c, 0, 64, 30
2,50114, Control_c, 0, 64, 34
2,50125, Note_on_c, 0, 56, 35
2,50129, Note_on_c, 0, 65, 45
2,50129, Note_on_c, 0, 73, 75
2,50134, Control_c, 0, 64, 43
2,50154, Control_c, 0, 64, 52
2,50172, Control_c, 0, 64, 60
2,50192, Control_c, 0, 64, 63
2,50211, Control_c, 0, 64, 65
2,50232, Control_c, 0, 64, 69
2,50249, Control_c, 0, 64, 76
2,50270, Control_c, 0, 64, 88
2,50287, Control_c, 0, 64, 104
2,50308, Control_c, 0, 64, 127
2,50329, Note_on_c, 0, 73, 0
2,50336, Note_on_c, 0, 65, 0
2,50390, Note_on_c, 0, 56, 0
2,50480, Control_c, 0, 64, 116
2,50500, Control_c, 0, 64, 90
2,50518, Control_c, 0, 64, 72
2,50537, Control_c, 0, 64, 62
2,50557, Control_c, 0, 64, 54
2,50572, Note_on_c, 0, 78, 64
2,50577, Control_c, 0, 64, 50
2,50586, Note_on_c, 0, 58, 38
2,50590, Note_on_c, 0, 66, 52
2,50635, Control_c, 0, 64, 52
2,50655, Control_c, 0, 64, 54
2,50673, Control_c, 0, 64, 57
2,50691, Control_c, 0, 64, 60
2,50710, Control_c, 0, 64, 62
2,50729, Control_c, 0, 64, 64
2,50749, Control_c, 0, 64, 66
2,50762, Note_on_c, 0, 66, 0
2,50769, Control_c, 0, 64, 69
2,50788, Control_c, 0, 64, 73
2,50806, Control_c, 0, 64, 78
2,50826, Control_c, 0, 64, 83
2,50845, Control_c, 0, 64, 87
2,50865, Control_c, 0, 64, 88
2,50921, Control_c, 0, 64, 87
2,50939, Note_on_c, 0, 58, 0
2,50944, Control_c, 0, 64, 85
2,50960, Control_c, 0, 64, 83
2,50978, Control_c, 0, 64, 80
2,50985, Note_on_c, 0, 59, 49
2,50999, Control_c, 0, 64, 74
2,50999, Note_on_c, 0, 68, 63
2,51017, Control_c, 0, 64, 68
2,51036, Control_c, 0, 64, 63
2,51056, Control_c, 0, 64, 60
2,51074, Control_c, 0, 64, 59
2,51112, Control_c, 0, 64, 58
2,51135, Control_c, 0, 64, 57
2,51153, Control_c, 0, 64, 56
2,51173, Control_c, 0, 64, 55
2,51190, Control_c, 0, 64, 54
2,51266, Control_c, 0, 64, 53
2,51325, Note_on_c, 0, 59, 0
2,51383, Control_c, 0, 64, 52
2,51385, Note_on_c, 0, 68, 0
2,51407, Note_on_c, 0, 61, 31
2,51407, Note_on_c, 0, 70, 58
2,51420, Control_c, 0, 64, 51
2,51460, Control_c, 0, 64, 50
2,51478, Control_c, 0, 64, 49
2,51498, Control_c, 0, 64, 48
2,51518, Control_c, 0, 64, 47
2,51537, Control_c, 0, 64, 46
2,51554, Control_c, 0, 64, 45
2,51574, Control_c, 0, 64, 44
2,51651, Control_c, 0, 64, 43
2,51726, Control_c, 0, 64, 44
2,51747, Control_c, 0, 64, 46
2,51768, Control_c, 0, 64, 51
2,51787, Control_c, 0, 64, 56
2,51794, Note_on_c, 0, 61, 0
2,51805, Control_c, 0, 64, 59
2,51809, Note_on_c, 0, 70, 0
2,51823, Note_on_c, 0, 71, 71
2,51827, Control_c, 0, 64, 60
2,51843, Control_c, 0, 64, 61
2,51861, Control_c, 0, 64, 62
2,51884, Control_c, 0, 64, 63
2,51899, Control_c, 0, 64, 64
2,51921, Control_c, 0, 64, 65
2,51958, Control_c, 0, 64, 66
2,51981, Control_c, 0, 64, 67
2,51996, Control_c, 0, 64, 68
2,52015, Control_c, 0, 64, 69
2,52037, Control_c, 0, 64, 70
2,52104, Note_on_c, 0, 78, 0
2,52112, Control_c, 0, 64, 71
2,52169, Control_c, 0, 64, 70
2,52229, Control_c, 0, 64, 69
2,52242, Note_on_c, 0, 77, 67
2,52246, Control_c, 0, 64, 68
2,52246, Note_on_c, 0, 73, 70
2,52267, Control_c, 0, 64, 66
2,52267, Note_on_c, 0, 49, 50
2,52285, Control_c, 0, 64, 63
2,52289, Note_on_c, 0, 71, 0
2,52305, Control_c, 0, 64, 59
2,52323, Control_c, 0, 64, 57
2,52342, Control_c, 0, 64, 56
2,52360, Control_c, 0, 64, 55
2,52400, Control_c, 0, 64, 56
2,52419, Control_c, 0, 64, 57
2,52438, Control_c, 0, 64, 59
2,52460, Control_c, 0, 64, 61
2,52476, Control_c, 0, 64, 62
2,52496, Control_c, 0, 64, 63
2,52516, Control_c, 0, 64, 64
2,52533, Control_c, 0, 64, 66
2,52554, Control_c, 0, 64, 69
2,52572, Control_c, 0, 64, 73
2,52592, Control_c, 0, 64, 77
2,52611, Control_c, 0, 64, 82
2,52630, Control_c, 0, 64, 85
2,52648, Control_c, 0, 64, 88
2,52668, Control_c, 0, 64, 90
2,52670, Note_on_c, 0, 73, 0
2,52681, Note_on_c, 0, 71, 69
2,52690, Control_c, 0, 64, 91
2,52766, Note_on_c, 0, 49, 0
2,52803, Control_c, 0, 64, 90
2,52824, Control_c, 0, 64, 88
2,52843, Control_c, 0, 64, 85
2,52861, Control_c, 0, 64, 81
2,52881, Control_c, 0, 64, 77
2,52902, Control_c, 0, 64, 73
2,52919, Control_c, 0, 64, 68
2,52938, Control_c, 0, 64, 64
2,52956, Control_c, 0, 64, 62
2,52976, Control_c, 0, 64, 60
2,53014, Control_c, 0, 64, 59
2,53034, Control_c, 0, 64, 58
2,53052, Control_c, 0, 64, 57
2,53072, Control_c, 0, 64, 56
2,53092, Control_c, 0, 64, 54
2,53096, Note_on_c, 0, 70, 66
2,53101, Note_on_c, 0, 42, 70
2,53101, Note_on_c, 0, 71, 0
2,53114, Control_c, 0, 64, 53
2,53131, Control_c, 0, 64, 52
2,53150, Control_c, 0, 64, 51
2,53168, Control_c, 0, 64, 50
2,53185, Control_c, 0, 64, 48
2,53265, Control_c, 0, 64, 49
2,53284, Control_c, 0, 64, 50
2,53302, Control_c, 0, 64, 51
2,53320, Control_c, 0, 64, 53
2,53341, Control_c, 0, 64, 55
2,53361, Control_c, 0, 64, 57
2,53378, Control_c, 0, 64, 59
2,53417, Control_c, 0, 64, 60
2,53455, Control_c, 0, 64, 61
2,53474, Control_c, 0, 64, 62
2,53494, Control_c, 0, 64, 63
2,53499, Note_on_c, 0, 70, 0
2,53516, Control_c, 0, 64, 65
2,53533, Control_c, 0, 64, 68
2,53537, Note_on_c, 0, 68, 82
2,53552, Control_c, 0, 64, 73
2,53570, Control_c, 0, 64, 84
2,53590, Note_on_c, 0, 42, 0
2,53595, Control_c, 0, 64, 105
2,53608, Control_c, 0, 64, 127
2,53700, Note_on_c, 0, 77, 0
2,53796, Note_on_c, 0, 68, 0
2,53937, Control_c, 0, 64, 104
2,53954, Control_c, 0, 64, 82
2,53974, Control_c, 0, 64, 69
2,53994, Control_c, 0, 64, 61
2,53994, Note_on_c, 0, 75, 60
2,54001, Note_on_c, 0, 66, 57
2,54003, Note_on_c, 0, 54, 73
2,54012, Control_c, 0, 64, 55
2,54032, Control_c, 0, 64, 52
2,54053, Control_c, 0, 64, 51
2,54069, Control_c, 0, 64, 50
2,54109, Control_c, 0, 64, 49
2,54148, Control_c, 0, 64, 51
2,54166, Control_c, 0, 64, 55
2,54185, Control_c, 0, 64, 60
2,54206, Control_c, 0, 64, 63
2,54224, Control_c, 0, 64, 66
2,54242, Control_c, 0, 64, 72
2,54262, Control_c, 0, 64, 83
2,54284, Control_c, 0, 64, 115
2,54300, Control_c, 0, 64, 127
2,54313, Note_on_c, 0, 66, 0
2,54395, Control_c, 0, 64, 122
2,54417, Control_c, 0, 64, 84
2,54426, Note_on_c, 0, 73, 64
2,54434, Control_c, 0, 64, 67
2,54439, Note_on_c, 0, 65, 52
2,54456, Control_c, 0, 64, 61
2,54460, Note_on_c, 0, 75, 0
2,54474, Control_c, 0, 64, 58
2,54491, Control_c, 0, 64, 59
2,54511, Control_c, 0, 64, 62
2,54531, Control_c, 0, 64, 65
2,54553, Control_c, 0, 64, 71
2,54570, Control_c, 0, 64, 87
2,54588, Control_c, 0, 64, 127
2,54627, Note_on_c, 0, 65, 0
2,54807, Note_on_c, 0, 73, 0
2,54820, Control_c, 0, 64, 88
2,54837, Control_c, 0, 64, 67
2,54857, Control_c, 0, 64, 58
2,54866, Note_on_c, 0, 72, 62
2,54877, Note_on_c, 0, 63, 59
2,54882, Control_c, 0, 64, 52
2,54913, Control_c, 0, 64, 55
2,54933, Control_c, 0, 64, 59
2,54953, Control_c, 0, 64, 62
2,54972, Control_c, 0, 64, 66
2,54991, Control_c, 0, 64, 71
2,55011, Control_c, 0, 64, 81
2,55031, Control_c, 0, 64, 105
2,55049, Control_c, 0, 64, 127
2,55058, Note_on_c, 0, 63, 0
2,55207, Note_on_c, 0, 72, 0
2,55262, Control_c, 0, 64, 91
2,55275, Note_on_c, 0, 53, 67
2,55280, Control_c, 0, 64, 70
2,55280, Note_on_c, 0, 74, 72
2,55285, Note_on_c, 0, 54, 0
2,55289, Note_on_c, 0, 65, 66
2,55300, Control_c, 0, 64, 60
2,55318, Control_c, 0, 64, 53
2,55336, Control_c, 0, 64, 52
2,55355, Control_c, 0, 64, 55
2,55375, Control_c, 0, 64, 59
2,55395, Control_c, 0, 64, 64
2,55414, Control_c, 0, 64, 67
2,55436, Control_c, 0, 64, 73
2,55453, Control_c, 0, 64, 84
2,55473, Control_c, 0, 64, 104
2,55492, Control_c, 0, 64, 127
2,55526, Note_on_c, 0, 65, 0
2,55604, Note_on_c, 0, 74, 0
2,55663, Control_c, 0, 64, 97
2,55673, Note_on_c, 0, 53, 0
2,55684, Control_c, 0, 64, 73
2,55689, Note_on_c, 0, 51, 76
2,55698, Note_on_c, 0, 66, 75
2,55698, Note_on_c, 0, 75, 77
2,55702, Control_c, 0, 64, 62
2,55720, Control_c, 0, 64, 52
2,55740, Control_c, 0, 64, 48
2,55758, Control_c, 0, 64, 49
2,55780, Control_c, 0, 64, 55
2,55798, Control_c, 0, 64, 60
2,55820, Control_c, 0, 64, 65
2,55837, Control_c, 0, 64, 70
2,55858, Control_c, 0, 64, 81
2,55875, Control_c, 0, 64, 112
2,55896, Control_c, 0, 64, 127
2,55896, Note_on_c, 0, 75, 0
2,55910, Note_on_c, 0, 66, 0
2,56085, Control_c, 0, 64, 86
2,56106, Control_c, 0, 64, 67
2,56106, Note_on_c, 0, 51, 0
2,56111, Note_on_c, 0, 49, 69
2,56114, Note_on_c, 0, 77, 79
2,56119, Note_on_c, 0, 70, 84
2,56125, Control_c, 0, 64, 56
2,56143, Control_c, 0, 64, 48
2,56161, Control_c, 0, 64, 47
2,56181, Control_c, 0, 64, 51
2,56203, Control_c, 0, 64, 58
2,56219, Control_c, 0, 64, 64
2,56241, Control_c, 0, 64, 70
2,56255, Note_on_c, 0, 77, 0
2,56259, Control_c, 0, 64, 85
2,56277, Control_c, 0, 64, 127
2,56299, Note_on_c, 0, 70, 0
2,56370, Note_on_c, 0, 49, 0
2,56544, Note_on_c, 0, 78, 89
2,56561, Note_on_c, 0, 75, 76
2,56574, Note_on_c, 0, 48, 58
2,56585, Control_c, 0, 64, 86
2,56608, Control_c, 0, 64, 70
2,56625, Control_c, 0, 64, 61
2,56645, Control_c, 0, 64, 53
2,56661, Control_c, 0, 64, 50
2,56680, Control_c, 0, 64, 49
2,56700, Control_c, 0, 64, 48
2,56720, Control_c, 0, 64, 45
2,56740, Control_c, 0, 64, 39
2,56760, Control_c, 0, 64, 28
2,56779, Control_c, 0, 64, 12
2,56798, Control_c, 0, 64, 0
2,56979, Note_on_c, 0, 75, 0
2,56988, Note_on_c, 0, 48, 0
2,56993, Note_on_c, 0, 73, 64
2,56997, Note_on_c, 0, 46, 54
2,57048, Control_c, 0, 64, 14
2,57066, Control_c, 0, 64, 38
2,57085, Control_c, 0, 64, 51
2,57103, Control_c, 0, 64, 60
2,57124, Control_c, 0, 64, 62
2,57142, Control_c, 0, 64, 64
2,57162, Control_c, 0, 64, 67
2,57180, Control_c, 0, 64, 74
2,57200, Control_c, 0, 64, 84
2,57220, Control_c, 0, 64, 96
2,57238, Control_c, 0, 64, 109
2,57251, Note_on_c, 0, 78, 0
2,57260, Control_c, 0, 64, 127
2,57347, Note_on_c, 0, 46, 0
2,57354, Control_c, 0, 64, 111
2,57376, Control_c, 0, 64, 99
2,57386, Note_on_c, 0, 73, 0
2,57391, Control_c, 0, 64, 87
2,57397, Note_on_c, 0, 72, 74
2,57397, Note_on_c, 0, 77, 74
2,57402, Note_on_c, 0, 45, 50
2,57411, Control_c, 0, 64, 76
2,57430, Control_c, 0, 64, 68
2,57450, Control_c, 0, 64, 62
2,57468, Control_c, 0, 64, 56
2,57487, Control_c, 0, 64, 54
2,57529, Control_c, 0, 64, 53
2,57544, Control_c, 0, 64, 52
2,57564, Control_c, 0, 64, 51
2,57582, Control_c, 0, 64, 48
2,57603, Control_c, 0, 64, 43
2,57623, Control_c, 0, 64, 39
2,57645, Control_c, 0, 64, 37
2,57662, Control_c, 0, 64, 36
2,57681, Control_c, 0, 64, 35
2,57699, Control_c, 0, 64, 33
2,57719, Control_c, 0, 64, 31
2,57738, Control_c, 0, 64, 29
2,57756, Control_c, 0, 64, 28
2,57795, Control_c, 0, 64, 27
2,57808, Note_on_c, 0, 75, 69
2,57819, Note_on_c, 0, 77, 0
2,57825, Note_on_c, 0, 41, 45
2,57830, Note_on_c, 0, 45, 0
2,57834, Control_c, 0, 64, 26
2,57873, Control_c, 0, 64, 25
2,58236, Note_on_c, 0, 73, 62
2,58250, Note_on_c, 0, 75, 0
2,58259, Note_on_c, 0, 41, 0
2,58259, Note_on_c, 0, 46, 46
2,58632, Note_on_c, 0, 46, 0
2,58646, Control_c, 0, 64, 28
2,58646, Note_on_c, 0, 73, 0
2,58646, Note_on_c, 0, 75, 70
2,58654, Note_on_c, 0, 48, 44
2,58659, Control_c, 0, 64, 37
2,58679, Control_c, 0, 64, 47
2,58696, Control_c, 0, 64, 58
2,58717, Control_c, 0, 64, 63
2,58728, Note_on_c, 0, 72, 0
2,58735, Control_c, 0, 64, 64
2,58756, Control_c, 0, 64, 67
2,58774, Control_c, 0, 64, 71
2,58793, Control_c, 0, 64, 79
2,58812, Control_c, 0, 64, 89
2,58831, Control_c, 0, 64, 102
2,58850, Control_c, 0, 64, 120
2,58870, Control_c, 0, 64, 127
2,58984, Note_on_c, 0, 48, 0
2,59004, Control_c, 0, 64, 104
2,59026, Control_c, 0, 64, 90
2,59040, Note_on_c, 0, 75, 0
2,59045, Control_c, 0, 64, 78
2,59055, Note_on_c, 0, 49, 46
2,59059, Note_on_c, 0, 70, 68
2,59059, Note_on_c, 0, 77, 73
2,59063, Control_c, 0, 64, 68
2,59085, Control_c, 0, 64, 62
2,59102, Control_c, 0, 64, 56
2,59119, Control_c, 0, 64, 53
2,59139, Control_c, 0, 64, 52
2,59157, Control_c, 0, 64, 51
2,59176, Control_c, 0, 64, 49
2,59196, Control_c, 0, 64, 47
2,59214, Control_c, 0, 64, 44
2,59236, Control_c, 0, 64, 41
2,59254, Control_c, 0, 64, 39
2,59292, Control_c, 0, 64, 38
2,59311, Control_c, 0, 64, 37
2,59331, Control_c, 0, 64, 36
2,59352, Control_c, 0, 64, 34
2,59369, Control_c, 0, 64, 32
2,59433, Note_on_c, 0, 49, 0
2,59450, Control_c, 0, 64, 33
2,59450, Note_on_c, 0, 77, 0
2,59466, Control_c, 0, 64, 38
2,59471, Note_on_c, 0, 78, 69
2,59477, Note_on_c, 0, 51, 50
2,59487, Control_c, 0, 64, 47
2,59504, Control_c, 0, 64, 56
2,59523, Control_c, 0, 64, 62
2,59543, Control_c, 0, 64, 65
2,59561, Control_c, 0, 64, 69
2,59581, Control_c, 0, 64, 79
2,59599, Control_c, 0, 64, 102
2,59619, Control_c, 0, 64, 127
2,59750, Note_on_c, 0, 51, 0
2,59830, Control_c, 0, 64, 116
2,59851, Control_c, 0, 64, 98
2,59867, Control_c, 0, 64, 86
2,59887, Control_c, 0, 64, 76
2,59904, Note_on_c, 0, 78, 0
2,59908, Control_c, 0, 64, 68
2,59912, Note_on_c, 0, 73, 63
2,59922, Note_on_c, 0, 53, 38
2,59926, Control_c, 0, 64, 62
2,59944, Control_c, 0, 64, 58
2,59965, Control_c, 0, 64, 56
2,59984, Control_c, 0, 64, 54
2,60002, Control_c, 0, 64, 53
2,60021, Control_c, 0, 64, 50
2,60043, Control_c, 0, 64, 46
2,60061, Control_c, 0, 64, 43
2,60078, Control_c, 0, 64, 39
2,60099, Control_c, 0, 64, 37
2,60119, Control_c, 0, 64, 35
2,60140, Control_c, 0, 64, 33
2,60154, Control_c, 0, 64, 30
2,60175, Control_c, 0, 64, 28
2,60195, Control_c, 0, 64, 27
2,60253, Control_c, 0, 64, 29
2,60273, Control_c, 0, 64, 34
2,60291, Control_c, 0, 64, 42
2,60310, Control_c, 0, 64, 51
2,60316, Note_on_c, 0, 53, 0
2,60329, Control_c, 0, 64, 58
2,60334, Note_on_c, 0, 51, 43
2,60350, Control_c, 0, 64, 61
2,60367, Control_c, 0, 64, 62
2,60386, Control_c, 0, 64, 64
2,60405, Control_c, 0, 64, 66
2,60426, Control_c, 0, 64, 69
2,60436, Note_on_c, 0, 73, 0
2,60440, Note_on_c, 0, 70, 0
2,60444, Control_c, 0, 64, 74
2,60464, Control_c, 0, 64, 79
2,60483, Control_c, 0, 64, 85
2,60501, Control_c, 0, 64, 87
2,60655, Control_c, 0, 64, 86
2,60677, Control_c, 0, 64, 85
2,60695, Control_c, 0, 64, 83
2,60711, Note_on_c, 0, 51, 0
2,60715, Control_c, 0, 64, 79
2,60735, Control_c, 0, 64, 75
2,60753, Control_c, 0, 64, 70
2,60758, Note_on_c, 0, 72, 65
2,60771, Control_c, 0, 64, 64
2,60771, Note_on_c, 0, 69, 49
2,60776, Note_on_c, 0, 53, 41
2,60792, Control_c, 0, 64, 58
2,60808, Control_c, 0, 64, 54
2,60831, Control_c, 0, 64, 51
2,60943, Control_c, 0, 64, 53
2,60961, Control_c, 0, 64, 55
2,60983, Control_c, 0, 64, 59
2,61003, Control_c, 0, 64, 61
2,61021, Control_c, 0, 64, 63
2,61038, Control_c, 0, 64, 64
2,61058, Control_c, 0, 64, 66
2,61076, Control_c, 0, 64, 70
2,61096, Control_c, 0, 64, 77
2,61116, Control_c, 0, 64, 88
2,61135, Control_c, 0, 64, 104
2,61139, Note_on_c, 0, 69, 0
2,61155, Control_c, 0, 64, 127
2,61159, Note_on_c, 0, 53, 0
2,61159, Note_on_c, 0, 72, 0
2,61180, Note_on_c, 0, 41, 51
2,61641, Note_on_c, 0, 41, 0
2,61641, Note_on_c, 0, 46, 49
2,61644, Note_on_c, 0, 58, 85
2,61656, Control_c, 0, 64, 94
2,61660, Note_on_c, 0, 70, 76
2,61673, Control_c, 0, 64, 76
2,61692, Control_c, 0, 64, 64
2,61712, Control_c, 0, 64, 56
2,61732, Control_c, 0, 64, 52
2,61750, Control_c, 0, 64, 50
2,61845, Control_c, 0, 64, 51
2,61865, Control_c, 0, 64, 54
2,61887, Control_c, 0, 64, 58
2,61903, Control_c, 0, 64, 61
2,61921, Control_c, 0, 64, 63
2,61942, Control_c, 0, 64, 65
2,61961, Control_c, 0, 64, 68
2,61980, Control_c, 0, 64, 73
2,62000, Control_c, 0, 64, 81
2,62023, Control_c, 0, 64, 92
2,62040, Control_c, 0, 64, 112
2,62058, Control_c, 0, 64, 127
2,62085, Note_on_c, 0, 45, 53
2,62103, Note_on_c, 0, 58, 0
2,62107, Note_on_c, 0, 46, 0
2,62479, Note_on_c, 0, 65, 87
2,62483, Note_on_c, 0, 46, 55
2,62494, Note_on_c, 0, 45, 0
2,62500, Control_c, 0, 64, 122
2,62520, Control_c, 0, 64, 87
2,62537, Control_c, 0, 64, 69
2,62557, Control_c, 0, 64, 57
2,62576, Control_c, 0, 64, 50
2,62596, Control_c, 0, 64, 46
2,62614, Control_c, 0, 64, 45
2,62632, Control_c, 0, 64, 44
2,62652, Control_c, 0, 64, 43
2,62670, Control_c, 0, 64, 42
2,62728, Control_c, 0, 64, 43
2,62748, Control_c, 0, 64, 48
2,62768, Control_c, 0, 64, 54
2,62786, Control_c, 0, 64, 59
2,62806, Control_c, 0, 64, 62
2,62824, Control_c, 0, 64, 64
2,62844, Control_c, 0, 64, 66
2,62864, Control_c, 0, 64, 70
2,62884, Control_c, 0, 64, 77
2,62889, Note_on_c, 0, 46, 0
2,62902, Control_c, 0, 64, 85
2,62916, Note_on_c, 0, 48, 51
2,62924, Control_c, 0, 64, 98
2,62940, Control_c, 0, 64, 127
2,63036, Note_on_c, 0, 70, 0
2,63266, Control_c, 0, 64, 102
2,63287, Control_c, 0, 64, 75
2,63305, Note_on_c, 0, 48, 0
2,63307, Control_c, 0, 64, 62
2,63326, Control_c, 0, 64, 53
2,63326, Note_on_c, 0, 70, 84
2,63343, Control_c, 0, 64, 51
2,63354, Note_on_c, 0, 49, 40
2,63363, Control_c, 0, 64, 52
2,63382, Control_c, 0, 64, 55
2,63404, Control_c, 0, 64, 59
2,63419, Control_c, 0, 64, 62
2,63439, Control_c, 0, 64, 64
2,63460, Control_c, 0, 64, 67
2,63477, Control_c, 0, 64, 72
2,63497, Control_c, 0, 64, 81
2,63517, Control_c, 0, 64, 99
2,63537, Control_c, 0, 64, 127
2,63631, Note_on_c, 0, 49, 0
2,63721, Note_on_c, 0, 66, 87
2,63743, Note_on_c, 0, 65, 0
2,63756, Note_on_c, 0, 70, 0
2,63760, Note_on_c, 0, 48, 51
2,63808, Note_on_c, 0, 66, 0
2,64111, Note_on_c, 0, 48, 0
2,64113, Control_c, 0, 64, 87
2,64132, Control_c, 0, 64, 66
2,64150, Control_c, 0, 64, 52
2,64154, Note_on_c, 0, 77, 83
2,64159, Note_on_c, 0, 49, 51
2,64159, Note_on_c, 0, 65, 74
2,64170, Control_c, 0, 64, 43
2,64188, Control_c, 0, 64, 41
2,64211, Control_c, 0, 64, 45
2,64226, Control_c, 0, 64, 53
2,64247, Control_c, 0, 64, 61
2,64266, Control_c, 0, 64, 65
2,64286, Control_c, 0, 64, 69
2,64288, Note_on_c, 0, 77, 0
2,64304, Control_c, 0, 64, 77
2,64322, Control_c, 0, 64, 87
2,64343, Control_c, 0, 64, 106
2,64362, Control_c, 0, 64, 127
2,64550, Note_on_c, 0, 63, 77
2,64556, Note_on_c, 0, 49, 0
2,64560, Note_on_c, 0, 51, 60
2,64590, Note_on_c, 0, 65, 0
2,64942, Note_on_c, 0, 51, 0
2,64950, Note_on_c, 0, 61, 84
2,64957, Note_on_c, 0, 53, 62
2,64994, Note_on_c, 0, 63, 0
2,65003, Note_on_c, 0, 53, 0
2,65026, Note_on_c, 0, 61, 0
2,65321, Control_c, 0, 64, 96
2,65341, Control_c, 0, 64, 70
2,65358, Control_c, 0, 64, 58
2,65367, Note_on_c, 0, 78, 87
2,65375, Note_on_c, 0, 63, 66
2,65379, Control_c, 0, 64, 53
2,65395, Note_on_c, 0, 51, 58
2,65399, Control_c, 0, 64, 56
2,65420, Control_c, 0, 64, 59
2,65440, Control_c, 0, 64, 64
2,65456, Control_c, 0, 64, 69
2,65476, Control_c, 0, 64, 80
2,65493, Control_c, 0, 64, 106
2,65517, Control_c, 0, 64, 127
2,65521, Note_on_c, 0, 78, 0
2,65561, Note_on_c, 0, 63, 0
2,65708, Note_on_c, 0, 51, 0
2,65744, Control_c, 0, 64, 106
2,65760, Note_on_c, 0, 77, 86
2,65764, Control_c, 0, 64, 74
2,65767, Note_on_c, 0, 65, 71
2,65782, Control_c, 0, 64, 60
2,65792, Note_on_c, 0, 61, 53
2,65801, Control_c, 0, 64, 50
2,65807, Note_on_c, 0, 53, 40
2,65821, Control_c, 0, 64, 49
2,65840, Control_c, 0, 64, 53
2,65860, Control_c, 0, 64, 60
2,65878, Control_c, 0, 64, 64
2,65897, Control_c, 0, 64, 69
2,65919, Control_c, 0, 64, 78
2,65928, Note_on_c, 0, 53, 0
2,65937, Control_c, 0, 64, 90
2,65940, Note_on_c, 0, 61, 0
2,65957, Control_c, 0, 64, 106
2,65972, Control_c, 0, 64, 127
2,66127, Control_c, 0, 64, 111
2,66146, Control_c, 0, 64, 77
2,66165, Note_on_c, 0, 75, 78
2,66168, Control_c, 0, 64, 62
2,66186, Control_c, 0, 64, 52
2,66195, Note_on_c, 0, 49, 37
2,66195, Note_on_c, 0, 77, 0
2,66203, Control_c, 0, 64, 51
2,66225, Control_c, 0, 64, 54
2,66243, Control_c, 0, 64, 58
2,66262, Control_c, 0, 64, 61
2,66281, Control_c, 0, 64, 64
2,66299, Note_on_c, 0, 49, 0
2,66303, Control_c, 0, 64, 66
2,66319, Control_c, 0, 64, 69
2,66335, Note_on_c, 0, 51, 64
2,66339, Control_c, 0, 64, 72
2,66358, Control_c, 0, 64, 77
2,66377, Control_c, 0, 64, 85
2,66395, Control_c, 0, 64, 97
2,66414, Control_c, 0, 64, 109
2,66454, Control_c, 0, 64, 107
2,66472, Note_on_c, 0, 51, 0
2,66477, Control_c, 0, 64, 104
2,66495, Control_c, 0, 64, 98
2,66511, Control_c, 0, 64, 91
2,66530, Control_c, 0, 64, 82
2,66534, Note_on_c, 0, 53, 63
2,66543, Note_on_c, 0, 73, 88
2,66550, Control_c, 0, 64, 72
2,66554, Note_on_c, 0, 65, 0
2,66569, Control_c, 0, 64, 65
2,66592, Control_c, 0, 64, 61
2,66592, Note_on_c, 0, 75, 0
2,66611, Control_c, 0, 64, 60
2,66636, Note_on_c, 0, 53, 0
2,66650, Note_on_c, 0, 58, 34
2,66769, Note_on_c, 0, 54, 57
2,66800, Control_c, 0, 64, 59
2,66824, Control_c, 0, 64, 57
2,66824, Note_on_c, 0, 58, 0
2,66837, Control_c, 0, 64, 55
2,66842, Note_on_c, 0, 54, 0
2,66860, Control_c, 0, 64, 52
2,66878, Control_c, 0, 64, 50
2,66898, Control_c, 0, 64, 49
2,66934, Control_c, 0, 64, 51
2,66934, Note_on_c, 0, 75, 78
2,66948, Note_on_c, 0, 58, 56
2,66952, Control_c, 0, 64, 57
2,66966, Note_on_c, 0, 53, 34
2,66972, Control_c, 0, 64, 63
2,66994, Control_c, 0, 64, 66
2,66999, Note_on_c, 0, 73, 0
2,67009, Note_on_c, 0, 53, 0
2,67012, Control_c, 0, 64, 73
2,67016, Note_on_c, 0, 58, 0
2,67029, Control_c, 0, 64, 83
2,67048, Control_c, 0, 64, 107
2,67067, Control_c, 0, 64, 127
2,67222, Control_c, 0, 64, 95
2,67242, Control_c, 0, 64, 72
2,67261, Control_c, 0, 64, 61
2,67279, Control_c, 0, 64, 53
2,67299, Control_c, 0, 64, 52
2,67312, Note_on_c, 0, 77, 82
2,67321, Control_c, 0, 64, 55
2,67327, Note_on_c, 0, 45, 53
2,67338, Control_c, 0, 64, 59
2,67343, Note_on_c, 0, 75, 0
2,67356, Control_c, 0, 64, 63
2,67374, Control_c, 0, 64, 66
2,67392, Note_on_c, 0, 77, 0
2,67397, Control_c, 0, 64, 71
2,67415, Control_c, 0, 64, 76
2,67432, Control_c, 0, 64, 82
2,67453, Control_c, 0, 64, 89
2,67470, Control_c, 0, 64, 97
2,67491, Control_c, 0, 64, 107
2,67508, Control_c, 0, 64, 120
2,67528, Control_c, 0, 64, 127
2,67731, Note_on_c, 0, 63, 90
2,67778, Control_c, 0, 64, 122
2,67796, Control_c, 0, 64, 118
2,67817, Control_c, 0, 64, 112
2,67836, Control_c, 0, 64, 108
2,67855, Control_c, 0, 64, 103
2,67876, Control_c, 0, 64, 100
2,67896, Control_c, 0, 64, 97
2,67913, Control_c, 0, 64, 94
2,67933, Control_c, 0, 64, 92
2,67951, Control_c, 0, 64, 88
2,67971, Control_c, 0, 64, 85
2,67991, Control_c, 0, 64, 80
2,68010, Control_c, 0, 64, 76
2,68028, Control_c, 0, 64, 72
2,68047, Control_c, 0, 64, 68
2,68065, Control_c, 0, 64, 64
2,68086, Control_c, 0, 64, 62
2,68095, Note_on_c, 0, 45, 0
2,68105, Control_c, 0, 64, 60
2,68126, Control_c, 0, 64, 58
2,68142, Control_c, 0, 64, 56
2,68163, Control_c, 0, 64, 53
2,68174, Note_on_c, 0, 70, 63
2,68178, Note_on_c, 0, 46, 40
2,68184, Control_c, 0, 64, 50
2,68201, Control_c, 0, 64, 42
2,68220, Control_c, 0, 64, 33
2,68239, Control_c, 0, 64, 17
2,68258, Control_c, 0, 64, 0
2,68546, Control_c, 0, 64, 8
2,68551, Note_on_c, 0, 63, 0
2,68570, Control_c, 0, 64, 35
2,68570, Note_on_c, 0, 61, 69
2,68586, Control_c, 0, 64, 52
2,68606, Control_c, 0, 64, 62
2,68624, Control_c, 0, 64, 64
2,68644, Control_c, 0, 64, 67
2,68662, Control_c, 0, 64, 73
2,68681, Control_c, 0, 64, 86
2,68701, Control_c, 0, 64, 104
2,68710, Note_on_c, 0, 46, 0
2,68719, Control_c, 0, 64, 127
2,68856, Note_on_c, 0, 61, 0
2,68892, Control_c, 0, 64, 108
2,68911, Control_c, 0, 64, 99
2,68932, Control_c, 0, 64, 91
2,68938, Note_on_c, 0, 70, 0
2,68950, Control_c, 0, 64, 84
2,68968, Control_c, 0, 64, 78
2,68978, Note_on_c, 0, 60, 78
2,68989, Control_c, 0, 64, 73
2,68993, Note_on_c, 0, 48, 64
2,69011, Control_c, 0, 64, 69
2,69025, Control_c, 0, 64, 65
2,69047, Control_c, 0, 64, 62
2,69066, Control_c, 0, 64, 59
2,69085, Control_c, 0, 64, 57
2,69103, Control_c, 0, 64, 56
2,69121, Control_c, 0, 64, 55
2,69143, Control_c, 0, 64, 53
2,69160, Control_c, 0, 64, 51
2,69181, Control_c, 0, 64, 50
2,69195, Control_c, 0, 64, 48
2,69215, Control_c, 0, 64, 47
2,69254, Control_c, 0, 64, 46
2,69311, Control_c, 0, 64, 45
2,69370, Control_c, 0, 64, 46
2,69387, Control_c, 0, 64, 50
2,69396, Note_on_c, 0, 75, 89
2,69409, Control_c, 0, 64, 55
2,69426, Control_c, 0, 64, 60
2,69446, Control_c, 0, 64, 62
2,69464, Control_c, 0, 64, 65
2,69484, Control_c, 0, 64, 68
2,69506, Control_c, 0, 64, 75
2,69519, Note_on_c, 0, 60, 0
2,69524, Control_c, 0, 64, 87
2,69541, Control_c, 0, 64, 103
2,69557, Note_on_c, 0, 48, 0
2,69562, Control_c, 0, 64, 127
2,69812, Control_c, 0, 64, 122
2,69825, Note_on_c, 0, 58, 60
2,69829, Control_c, 0, 64, 97
2,69840, Note_on_c, 0, 49, 50
2,69849, Control_c, 0, 64, 80
2,69869, Control_c, 0, 64, 70
2,69887, Control_c, 0, 64, 63
2,69907, Control_c, 0, 64, 58
2,69925, Control_c, 0, 64, 55
2,69945, Control_c, 0, 64, 53
2,69984, Control_c, 0, 64, 52
2,70005, Control_c, 0, 64, 51
2,70023, Control_c, 0, 64, 50
2,70040, Control_c, 0, 64, 49
2,70079, Control_c, 0, 64, 48
2,70137, Control_c, 0, 64, 47
2,70151, Note_on_c, 0, 49, 0
2,70159, Control_c, 0, 64, 46
2,70196, Control_c, 0, 64, 47
2,70212, Note_on_c, 0, 73, 74
2,70216, Control_c, 0, 64, 51
2,70216, Note_on_c, 0, 46, 53
2,70234, Control_c, 0, 64, 56
2,70246, Note_on_c, 0, 75, 0
2,70255, Control_c, 0, 64, 61
2,70273, Control_c, 0, 64, 64
2,70293, Control_c, 0, 64, 67
2,70311, Control_c, 0, 64, 73
2,70331, Control_c, 0, 64, 83
2,70349, Control_c, 0, 64, 98
2,70369, Control_c, 0, 64, 127
2,70563, Note_on_c, 0, 73, 0
2,70599, Control_c, 0, 64, 104
2,70608, Note_on_c, 0, 72, 65
2,70614, Note_on_c, 0, 53, 51
2,70619, Control_c, 0, 64, 88
2,70636, Control_c, 0, 64, 77
2,70655, Control_c, 0, 64, 70
2,70660, Note_on_c, 0, 46, 0
2,70675, Control_c, 0, 64, 64
2,70693, Control_c, 0, 64, 61
2,70716, Control_c, 0, 64, 60
2,70733, Control_c, 0, 64, 59
2,70753, Control_c, 0, 64, 58
2,70770, Control_c, 0, 64, 57
2,70790, Control_c, 0, 64, 56
2,70810, Control_c, 0, 64, 54
2,70828, Control_c, 0, 64, 53
2,70847, Control_c, 0, 64, 52
2,70923, Control_c, 0, 64, 51
2,70944, Control_c, 0, 64, 50
2,70963, Control_c, 0, 64, 49
2,70984, Control_c, 0, 64, 48
2,70997, Note_on_c, 0, 68, 85
2,71006, Note_on_c, 0, 53, 0
2,71011, Note_on_c, 0, 51, 67
2,71022, Note_on_c, 0, 58, 0
2,71039, Control_c, 0, 64, 47
2,71419, Note_on_c, 0, 50, 43
2,71423, Note_on_c, 0, 72, 0
2,71435, Note_on_c, 0, 51, 0
2,71462, Note_on_c, 0, 70, 50
2,71481, Control_c, 0, 64, 46
2,71499, Control_c, 0, 64, 45
2,71519, Control_c, 0, 64, 43
2,71538, Control_c, 0, 64, 42
2,71556, Control_c, 0, 64, 39
2,71577, Control_c, 0, 64, 35
2,71598, Control_c, 0, 64, 30
2,71616, Control_c, 0, 64, 19
2,71635, Control_c, 0, 64, 0
2,71795, Note_on_c, 0, 50, 0
2,71827, Note_on_c, 0, 51, 55
2,71827, Note_on_c, 0, 66, 62
2,71840, Note_on_c, 0, 68, 0
2,72077, Control_c, 0, 64, 11
2,72098, Control_c, 0, 64, 29
2,72114, Control_c, 0, 64, 43
2,72134, Control_c, 0, 64, 54
2,72152, Control_c, 0, 64, 61
2,72172, Control_c, 0, 64, 63
2,72194, Control_c, 0, 64, 65
2,72207, Note_on_c, 0, 65, 80
2,72211, Control_c, 0, 64, 69
2,72216, Note_on_c, 0, 70, 0
2,72230, Control_c, 0, 64, 78
2,72246, Note_on_c, 0, 66, 0
2,72250, Control_c, 0, 64, 100
2,72269, Control_c, 0, 64, 127
2,72293, Note_on_c, 0, 51, 0
2,72312, Note_on_c, 0, 65, 0
2,72614, Control_c, 0, 64, 93
2,72628, Note_on_c, 0, 80, 94
2,72635, Control_c, 0, 64, 72
2,72639, Note_on_c, 0, 62, 61
2,72648, Note_on_c, 0, 50, 56
2,72655, Control_c, 0, 64, 61
2,72671, Control_c, 0, 64, 52
2,72692, Control_c, 0, 64, 50
2,72710, Control_c, 0, 64, 54
2,72729, Control_c, 0, 64, 60
2,72747, Control_c, 0, 64, 63
2,72767, Control_c, 0, 64, 67
2,72790, Control_c, 0, 64, 75
2,72808, Control_c, 0, 64, 91
2,72819, Note_on_c, 0, 50, 0
2,72826, Control_c, 0, 64, 127
2,72849, Note_on_c, 0, 62, 0
2,73036, Control_c, 0, 64, 110
2,73055, Control_c, 0, 64, 89
2,73075, Control_c, 0, 64, 76
2,73082, Note_on_c, 0, 63, 56
2,73096, Control_c, 0, 64, 66
2,73114, Control_c, 0, 64, 60
2,73114, Note_on_c, 0, 51, 43
2,73135, Control_c, 0, 64, 56
2,73152, Control_c, 0, 64, 54
2,73171, Control_c, 0, 64, 53
2,73189, Control_c, 0, 64, 52
2,73209, Control_c, 0, 64, 50
2,73229, Control_c, 0, 64, 48
2,73246, Control_c, 0, 64, 45
2,73267, Control_c, 0, 64, 44
2,73419, Control_c, 0, 64, 43
2,73495, Note_on_c, 0, 63, 0
2,73504, Note_on_c, 0, 78, 72
2,73513, Note_on_c, 0, 60, 45
2,73551, Note_on_c, 0, 80, 0
2,73593, Control_c, 0, 64, 42
2,73688, Control_c, 0, 64, 41
2,73765, Control_c, 0, 64, 40
2,73832, Note_on_c, 0, 60, 0
2,73843, Control_c, 0, 64, 39
2,73852, Note_on_c, 0, 78, 0
2,73869, Note_on_c, 0, 57, 50
2,73876, Note_on_c, 0, 77, 65
2,73933, Note_on_c, 0, 51, 0
2,74221, Note_on_c, 0, 57, 0
2,74247, Control_c, 0, 64, 42
2,74264, Control_c, 0, 64, 47
2,74282, Note_on_c, 0, 58, 49
2,74287, Control_c, 0, 64, 54
2,74292, Note_on_c, 0, 61, 47
2,74303, Control_c, 0, 64, 60
2,74323, Control_c, 0, 64, 63
2,74340, Control_c, 0, 64, 65
2,74361, Control_c, 0, 64, 69
2,74379, Control_c, 0, 64, 77
2,74399, Control_c, 0, 64, 91
2,74417, Control_c, 0, 64, 110
2,74437, Control_c, 0, 64, 127
2,74553, Note_on_c, 0, 77, 0
2,74612, Control_c, 0, 64, 120
2,74629, Control_c, 0, 64, 93
2,74633, Note_on_c, 0, 61, 0
2,74638, Note_on_c, 0, 58, 0
2,74650, Control_c, 0, 64, 76
2,74657, Note_on_c, 0, 70, 62
2,74668, Control_c, 0, 64, 64
2,74668, Note_on_c, 0, 54, 47
2,74688, Control_c, 0, 64, 59
2,74707, Control_c, 0, 64, 57
2,74727, Control_c, 0, 64, 58
2,74744, Control_c, 0, 64, 60
2,74763, Control_c, 0, 64, 62
2,74768, Note_on_c, 0, 70, 0
2,74783, Control_c, 0, 64, 64
2,74803, Control_c, 0, 64, 66
2,74823, Control_c, 0, 64, 68
2,74831, Note_on_c, 0, 75, 73
2,74844, Control_c, 0, 64, 72
2,74858, Control_c, 0, 64, 77
2,74880, Control_c, 0, 64, 84
2,74898, Control_c, 0, 64, 93
2,74919, Control_c, 0, 64, 99
2,74936, Control_c, 0, 64, 100
2,74956, Control_c, 0, 64, 98
2,74977, Control_c, 0, 64, 94
2,74994, Control_c, 0, 64, 86
2,75014, Control_c, 0, 64, 75
2,75021, Note_on_c, 0, 54, 0
2,75021, Note_on_c, 0, 77, 75
2,75032, Note_on_c, 0, 69, 60
2,75034, Control_c, 0, 64, 66
2,75046, Note_on_c, 0, 53, 46
2,75053, Control_c, 0, 64, 61
2,75064, Note_on_c, 0, 75, 0
2,75071, Control_c, 0, 64, 57
2,75109, Control_c, 0, 64, 58
2,75130, Control_c, 0, 64, 59
2,75148, Control_c, 0, 64, 60
2,75152, Note_on_c, 0, 77, 0
2,75168, Control_c, 0, 64, 62
2,75178, Note_on_c, 0, 78, 82
2,75188, Control_c, 0, 64, 63
2,75188, Note_on_c, 0, 69, 0
2,75206, Control_c, 0, 64, 64
2,75225, Control_c, 0, 64, 66
2,75245, Control_c, 0, 64, 68
2,75263, Control_c, 0, 64, 70
2,75281, Control_c, 0, 64, 71
2,75311, Note_on_c, 0, 53, 0
2,75373, Note_on_c, 0, 54, 47
2,75377, Control_c, 0, 64, 70
2,75401, Control_c, 0, 64, 68
2,75416, Control_c, 0, 64, 66
2,75436, Control_c, 0, 64, 63
2,75456, Control_c, 0, 64, 60
2,75460, Note_on_c, 0, 78, 0
2,75478, Note_on_c, 0, 70, 56
2,75478, Note_on_c, 0, 77, 68
2,75482, Control_c, 0, 64, 59
2,75492, Control_c, 0, 64, 58
2,75514, Control_c, 0, 64, 57
2,75531, Control_c, 0, 64, 56
2,75552, Control_c, 0, 64, 55
2,75571, Control_c, 0, 64, 54
2,75577, Note_on_c, 0, 77, 0
2,75591, Control_c, 0, 64, 52
2,75604, Note_on_c, 0, 75, 56
2,75628, Control_c, 0, 64, 51
2,75646, Control_c, 0, 64, 50
2,75650, Note_on_c, 0, 75, 0
2,75666, Control_c, 0, 64, 49
2,75675, Note_on_c, 0, 77, 56
2,75686, Control_c, 0, 64, 47
2,75706, Control_c, 0, 64, 44
2,75728, Control_c, 0, 64, 42
2,75728, Note_on_c, 0, 77, 0
2,75742, Note_on_c, 0, 75, 62
2,75747, Control_c, 0, 64, 40
2,75763, Control_c, 0, 64, 37
2,75779, Note_on_c, 0, 75, 0
2,75783, Control_c, 0, 64, 34
2,75801, Control_c, 0, 64, 30
2,75808, Note_on_c, 0, 77, 69
2,75821, Control_c, 0, 64, 28
2,75841, Control_c, 0, 64, 27
2,75859, Control_c, 0, 64, 26
2,75864, Note_on_c, 0, 75, 69
2,75864, Note_on_c, 0, 77, 0
2,75897, Control_c, 0, 64, 27
2,75916, Control_c, 0, 64, 29
2,75936, Control_c, 0, 64, 36
2,75955, Control_c, 0, 64, 44
2,75973, Control_c, 0, 64, 53
2,75992, Control_c, 0, 64, 59
2,76012, Control_c, 0, 64, 62
2,76030, Control_c, 0, 64, 64
2,76037, Note_on_c, 0, 75, 0
2,76051, Control_c, 0, 64, 66
2,76066, Note_on_c, 0, 78, 70
2,76070, Control_c, 0, 64, 70
2,76087, Control_c, 0, 64, 78
2,76105, Note_on_c, 0, 78, 0
2,76107, Control_c, 0, 64, 88
2,76129, Control_c, 0, 64, 98
2,76146, Control_c, 0, 64, 102
2,76174, Note_on_c, 0, 77, 24
2,76185, Control_c, 0, 64, 99
2,76201, Note_on_c, 0, 70, 0
2,76205, Control_c, 0, 64, 97
2,76225, Control_c, 0, 64, 95
2,76229, Note_on_c, 0, 77, 0
2,76241, Control_c, 0, 64, 93
2,76261, Control_c, 0, 64, 90
2,76281, Control_c, 0, 64, 84
2,76300, Control_c, 0, 64, 76
2,76320, Control_c, 0, 64, 67
2,76338, Control_c, 0, 64, 61
2,76358, Control_c, 0, 64, 57
2,76376, Control_c, 0, 64, 55
2,76396, Note_on_c, 0, 77, 44
2,76401, Control_c, 0, 64, 52
2,76401, Note_on_c, 0, 54, 0
2,76415, Control_c, 0, 64, 49
2,76439, Control_c, 0, 64, 43
2,76439, Note_on_c, 0, 69, 48
2,76443, Note_on_c, 0, 53, 36
2,76454, Control_c, 0, 64, 34
2,76472, Control_c, 0, 64, 23
2,76492, Control_c, 0, 64, 10
2,76512, Control_c, 0, 64, 0
2,76857, Control_c, 0, 64, 32
2,76874, Control_c, 0, 64, 48
2,76896, Control_c, 0, 64, 58
2,76914, Control_c, 0, 64, 63
2,76933, Control_c, 0, 64, 64
2,76953, Control_c, 0, 64, 66
2,76970, Control_c, 0, 64, 70
2,76993, Control_c, 0, 64, 77
2,76993, Note_on_c, 0, 69, 0
2,77014, Control_c, 0, 64, 88
2,77032, Control_c, 0, 64, 101
2,77049, Control_c, 0, 64, 127
2,77049, Note_on_c, 0, 77, 0
2,77375, Control_c, 0, 64, 106
2,77394, Control_c, 0, 64, 94
2,77413, Control_c, 0, 64, 84
2,77433, Control_c, 0, 64, 76
2,77453, Control_c, 0, 64, 69
2,77455, Note_on_c, 0, 82, 45
2,77460, Note_on_c, 0, 70, 40
2,77471, Control_c, 0, 64, 64
2,77486, Note_on_c, 0, 53, 0
2,77490, Control_c, 0, 64, 60
2,77509, Control_c, 0, 64, 58
2,77529, Control_c, 0, 64, 57
2,77546, Control_c, 0, 64, 54
2,77568, Control_c, 0, 64, 51
2,77587, Control_c, 0, 64, 46
2,77605, Control_c, 0, 64, 40
2,77624, Control_c, 0, 64, 34
2,77643, Control_c, 0, 64, 28
2,77664, Control_c, 0, 64, 24
2,77682, Control_c, 0, 64, 18
2,77702, Control_c, 0, 64, 9
2,77722, Control_c, 0, 64, 0
2,77992, Control_c, 0, 64, 10
2,78009, Control_c, 0, 64, 12
2,78029, Control_c, 0, 64, 14
2,78047, Control_c, 0, 64, 15
2,78066, Control_c, 0, 64, 17
2,78086, Control_c, 0, 64, 18
2,78107, Control_c, 0, 64, 19
2,78123, Control_c, 0, 64, 20
2,78144, Control_c, 0, 64, 22
2,78162, Control_c, 0, 64, 23
2,78183, Control_c, 0, 64, 25
2,78221, Control_c, 0, 64, 27
2,78240, Control_c, 0, 64, 28
2,78259, Control_c, 0, 64, 29
2,78277, Control_c, 0, 64, 31
2,78296, Control_c, 0, 64, 32
2,78318, Control_c, 0, 64, 35
2,78336, Control_c, 0, 64, 39
2,78353, Control_c, 0, 64, 43
2,78372, Control_c, 0, 64, 49
2,78392, Control_c, 0, 64, 54
2,78412, Control_c, 0, 64, 59
2,78430, Control_c, 0, 64, 60
2,78444, Note_on_c, 0, 54, 44
2,78452, Control_c, 0, 64, 62
2,78452, Note_on_c, 0, 75, 40
2,78469, Control_c, 0, 64, 64
2,78492, Control_c, 0, 64, 66
2,78496, Note_on_c, 0, 70, 0
2,78509, Control_c, 0, 64, 72
2,78526, Note_on_c, 0, 82, 0
2,78530, Control_c, 0, 64, 81
2,78547, Control_c, 0, 64, 94
2,78565, Control_c, 0, 64, 116
2,78585, Control_c, 0, 64, 127
2,78845, Note_on_c, 0, 83, 49
2,78934, Note_on_c, 0, 54, 0
2,79201, Control_c, 0, 64, 103
2,79219, Control_c, 0, 64, 82
2,79234, Note_on_c, 0, 82, 50
2,79238, Control_c, 0, 64, 68
2,79238, Note_on_c, 0, 59, 49
2,79257, Control_c, 0, 64, 60
2,79275, Note_on_c, 0, 83, 0
2,79279, Control_c, 0, 64, 55
2,79295, Control_c, 0, 64, 53
2,79314, Control_c, 0, 64, 55
2,79334, Control_c, 0, 64, 59
2,79353, Control_c, 0, 64, 62
2,79372, Control_c, 0, 64, 64
2,79392, Note_on_c, 0, 75, 0
2,79393, Control_c, 0, 64, 65
2,79410, Control_c, 0, 64, 67
2,79428, Control_c, 0, 64, 71
2,79448, Control_c, 0, 64, 75
2,79470, Control_c, 0, 64, 81
2,79487, Control_c, 0, 64, 85
2,79505, Control_c, 0, 64, 87
2,79525, Control_c, 0, 64, 86
2,79563, Control_c, 0, 64, 85
2,79583, Control_c, 0, 64, 82
2,79605, Control_c, 0, 64, 77
2,79621, Control_c, 0, 64, 68
2,79641, Control_c, 0, 64, 62
2,79650, Note_on_c, 0, 77, 55
2,79657, Note_on_c, 0, 80, 57
2,79661, Control_c, 0, 64, 57
2,79671, Note_on_c, 0, 82, 0
2,79678, Control_c, 0, 64, 56
2,79717, Control_c, 0, 64, 58
2,79738, Control_c, 0, 64, 59
2,79759, Control_c, 0, 64, 62
2,79777, Control_c, 0, 64, 64
2,79794, Control_c, 0, 64, 66
2,79816, Control_c, 0, 64, 70
2,79825, Note_on_c, 0, 77, 0
2,79836, Control_c, 0, 64, 76
2,79853, Control_c, 0, 64, 82
2,79871, Control_c, 0, 64, 90
2,79893, Control_c, 0, 64, 97
2,79909, Control_c, 0, 64, 100
2,79994, Note_on_c, 0, 80, 0
2,80005, Control_c, 0, 64, 97
2,80025, Control_c, 0, 64, 92
2,80043, Control_c, 0, 64, 84
2,80052, Note_on_c, 0, 79, 59
2,80056, Note_on_c, 0, 75, 54
2,80063, Control_c, 0, 64, 75
2,80082, Control_c, 0, 64, 68
2,80103, Control_c, 0, 64, 63
2,80121, Control_c, 0, 64, 60
2,80141, Control_c, 0, 64, 59
2,80199, Control_c, 0, 64, 58
2,80217, Control_c, 0, 64, 57
2,80239, Control_c, 0, 64, 55
2,80256, Control_c, 0, 64, 54
2,80335, Control_c, 0, 64, 53
2,80389, Control_c, 0, 64, 52
2,80453, Note_on_c, 0, 59, 0
2,80479, Note_on_c, 0, 61, 55
2,80486, Note_on_c, 0, 79, 0
2,80497, Note_on_c, 0, 80, 58
2,80876, Note_on_c, 0, 61, 0
2,80881, Note_on_c, 0, 80, 0
2,80885, Note_on_c, 0, 59, 60
2,80890, Note_on_c, 0, 82, 65
2,81063, Note_on_c, 0, 75, 0
2,81237, Control_c, 0, 64, 53
2,81253, Control_c, 0, 64, 54
2,81260, Note_on_c, 0, 59, 0
2,81272, Control_c, 0, 64, 57
2,81292, Control_c, 0, 64, 59
2,81296, Note_on_c, 0, 73, 66
2,81298, Note_on_c, 0, 58, 63
2,81312, Control_c, 0, 64, 61
2,81329, Control_c, 0, 64, 63
2,81349, Control_c, 0, 64, 65
2,81370, Control_c, 0, 64, 69
2,81387, Control_c, 0, 64, 76
2,81407, Control_c, 0, 64, 91
2,81425, Control_c, 0, 64, 127
2,81487, Note_on_c, 0, 73, 0
2,81677, Control_c, 0, 64, 104
2,81695, Control_c, 0, 64, 88
2,81717, Note_on_c, 0, 56, 53
2,81717, Note_on_c, 0, 58, 0
2,81717, Note_on_c, 0, 72, 67
2,81722, Control_c, 0, 64, 76
2,81722, Note_on_c, 0, 75, 70
2,81736, Control_c, 0, 64, 67
2,81753, Control_c, 0, 64, 62
2,81763, Note_on_c, 0, 82, 0
2,81772, Control_c, 0, 64, 58
2,81791, Control_c, 0, 64, 56
2,81829, Control_c, 0, 64, 55
2,81848, Control_c, 0, 64, 53
2,81868, Control_c, 0, 64, 52
2,81888, Control_c, 0, 64, 50
2,81906, Control_c, 0, 64, 49
2,81926, Control_c, 0, 64, 48
2,82136, Note_on_c, 0, 56, 0
2,82138, Note_on_c, 0, 55, 58
2,82176, Control_c, 0, 64, 47
2,82498, Note_on_c, 0, 55, 0
2,82516, Note_on_c, 0, 72, 0
2,82525, Note_on_c, 0, 80, 73
2,82547, Note_on_c, 0, 56, 47
2,82910, Note_on_c, 0, 56, 0
2,82936, Note_on_c, 0, 73, 69
2,82939, Note_on_c, 0, 75, 0
2,82945, Note_on_c, 0, 58, 48
2,83338, Note_on_c, 0, 58, 0
2,83360, Note_on_c, 0, 75, 76
2,83364, Note_on_c, 0, 60, 44
2,83403, Note_on_c, 0, 73, 0
2,83407, Note_on_c, 0, 80, 0
2,83442, Control_c, 0, 64, 48
2,83480, Control_c, 0, 64, 49
2,83501, Control_c, 0, 64, 51
2,83521, Control_c, 0, 64, 53
2,83538, Control_c, 0, 64, 57
2,83558, Control_c, 0, 64, 60
2,83576, Control_c, 0, 64, 62
2,83596, Control_c, 0, 64, 63
2,83614, Control_c, 0, 64, 65
2,83633, Control_c, 0, 64, 68
2,83653, Control_c, 0, 64, 75
2,83673, Control_c, 0, 64, 85
2,83695, Control_c, 0, 64, 100
2,83710, Control_c, 0, 64, 127
2,83754, Note_on_c, 0, 78, 75
2,83933, Note_on_c, 0, 78, 0
2,84116, Control_c, 0, 64, 120
2,84129, Note_on_c, 0, 60, 0
2,84133, Control_c, 0, 64, 100
2,84151, Note_on_c, 0, 75, 0
2,84156, Control_c, 0, 64, 82
2,84169, Note_on_c, 0, 61, 41
2,84169, Note_on_c, 0, 77, 72
2,84173, Control_c, 0, 64, 70
2,84187, Note_on_c, 0, 68, 54
2,84191, Control_c, 0, 64, 63
2,84211, Control_c, 0, 64, 57
2,84228, Control_c, 0, 64, 53
2,84248, Control_c, 0, 64, 50
2,84268, Control_c, 0, 64, 49
2,84287, Control_c, 0, 64, 48
2,84305, Control_c, 0, 64, 47
2,84325, Control_c, 0, 64, 46
2,84459, Control_c, 0, 64, 48
2,84479, Control_c, 0, 64, 50
2,84500, Control_c, 0, 64, 54
2,84516, Control_c, 0, 64, 58
2,84538, Control_c, 0, 64, 61
2,84545, Note_on_c, 0, 61, 0
2,84557, Control_c, 0, 64, 64
2,84577, Control_c, 0, 64, 67
2,84585, Note_on_c, 0, 59, 56
2,84594, Control_c, 0, 64, 73
2,84614, Control_c, 0, 64, 86
2,84632, Control_c, 0, 64, 127
2,84761, Note_on_c, 0, 59, 0
2,84998, Control_c, 0, 64, 109
2,85005, Note_on_c, 0, 68, 0
2,85005, Note_on_c, 0, 73, 68
2,85020, Control_c, 0, 64, 95
2,85039, Control_c, 0, 64, 82
2,85039, Note_on_c, 0, 58, 41
2,85056, Control_c, 0, 64, 72
2,85075, Control_c, 0, 64, 65
2,85093, Control_c, 0, 64, 61
2,85112, Control_c, 0, 64, 59
2,85131, Control_c, 0, 64, 58
2,85151, Control_c, 0, 64, 57
2,85170, Control_c, 0, 64, 55
2,85188, Control_c, 0, 64, 53
2,85211, Control_c, 0, 64, 51
2,85227, Control_c, 0, 64, 49
2,85343, Control_c, 0, 64, 50
2,85361, Control_c, 0, 64, 52
2,85381, Control_c, 0, 64, 54
2,85400, Control_c, 0, 64, 58
2,85419, Control_c, 0, 64, 61
2,85423, Note_on_c, 0, 56, 41
2,85442, Control_c, 0, 64, 63
2,85442, Note_on_c, 0, 58, 0
2,85461, Control_c, 0, 64, 64
2,85480, Control_c, 0, 64, 66
2,85498, Control_c, 0, 64, 69
2,85517, Control_c, 0, 64, 73
2,85535, Control_c, 0, 64, 80
2,85554, Control_c, 0, 64, 88
2,85573, Control_c, 0, 64, 98
2,85592, Control_c, 0, 64, 110
2,85614, Control_c, 0, 64, 127
2,85725, Control_c, 0, 64, 122
2,85745, Control_c, 0, 64, 113
2,85763, Control_c, 0, 64, 106
2,85785, Control_c, 0, 64, 97
2,85805, Control_c, 0, 64, 85
2,85814, Note_on_c, 0, 77, 0
2,85819, Note_on_c, 0, 75, 61
2,85823, Control_c, 0, 64, 74
2,85834, Note_on_c, 0, 55, 43
2,85842, Control_c, 0, 64, 65
2,85861, Control_c, 0, 64, 60
2,85877, Note_on_c, 0, 56, 0
2,85884, Control_c, 0, 64, 58
2,85899, Control_c, 0, 64, 57
2,85939, Control_c, 0, 64, 56
2,85957, Control_c, 0, 64, 54
2,85977, Control_c, 0, 64, 52
2,85996, Control_c, 0, 64, 51
2,86193, Note_on_c, 0, 55, 0
2,86249, Note_on_c, 0, 51, 49
2,86401, Control_c, 0, 64, 50
2,86421, Control_c, 0, 64, 49
2,86437, Control_c, 0, 64, 48
2,86456, Control_c, 0, 64, 46
2,86475, Control_c, 0, 64, 44
2,86493, Control_c, 0, 64, 38
2,86513, Control_c, 0, 64, 27
2,86534, Control_c, 0, 64, 0
2,86623, Note_on_c, 0, 73, 0
2,86635, Note_on_c, 0, 51, 0
2,86644, Note_on_c, 0, 72, 62
2,86662, Note_on_c, 0, 56, 46
2,87032, Control_c, 0, 64, 14
2,87043, Note_on_c, 0, 56, 0
2,87054, Control_c, 0, 64, 32
2,87054, Note_on_c, 0, 58, 61
2,87072, Control_c, 0, 64, 44
2,87088, Control_c, 0, 64, 53
2,87110, Control_c, 0, 64, 59
2,87127, Control_c, 0, 64, 61
2,87147, Control_c, 0, 64, 62
2,87170, Control_c, 0, 64, 64
2,87187, Control_c, 0, 64, 66
2,87205, Control_c, 0, 64, 69
2,87225, Control_c, 0, 64, 75
2,87246, Control_c, 0, 64, 82
2,87263, Control_c, 0, 64, 88
2,87283, Control_c, 0, 64, 90
2,87340, Control_c, 0, 64, 89
2,87361, Control_c, 0, 64, 88
2,87377, Control_c, 0, 64, 86
2,87397, Control_c, 0, 64, 81
2,87416, Control_c, 0, 64, 73
2,87428, Note_on_c, 0, 72, 0
2,87434, Control_c, 0, 64, 64
2,87444, Note_on_c, 0, 80, 78
2,87450, Note_on_c, 0, 58, 0
2,87455, Note_on_c, 0, 56, 47
2,87460, Control_c, 0, 64, 56
2,87474, Control_c, 0, 64, 53
2,87496, Control_c, 0, 64, 52
2,87514, Control_c, 0, 64, 53
2,87531, Control_c, 0, 64, 54
2,87551, Control_c, 0, 64, 57
2,87571, Control_c, 0, 64, 59
2,87588, Control_c, 0, 64, 62
2,87609, Control_c, 0, 64, 63
2,87629, Control_c, 0, 64, 65
2,87646, Control_c, 0, 64, 68
2,87665, Control_c, 0, 64, 72
2,87688, Control_c, 0, 64, 77
2,87704, Control_c, 0, 64, 82
2,87724, Control_c, 0, 64, 86
2,87742, Control_c, 0, 64, 88
2,87762, Control_c, 0, 64, 87
2,87782, Control_c, 0, 64, 83
2,87800, Control_c, 0, 64, 75
2,87821, Control_c, 0, 64, 65
2,87826, Note_on_c, 0, 56, 0
2,87838, Control_c, 0, 64, 59
2,87847, Note_on_c, 0, 54, 56
2,87858, Control_c, 0, 64, 57
2,87876, Control_c, 0, 64, 58
2,87895, Control_c, 0, 64, 60
2,87916, Control_c, 0, 64, 63
2,87935, Control_c, 0, 64, 65
2,87954, Control_c, 0, 64, 69
2,87972, Control_c, 0, 64, 74
2,87991, Control_c, 0, 64, 81
2,88015, Control_c, 0, 64, 93
2,88030, Control_c, 0, 64, 111
2,88050, Control_c, 0, 64, 127
2,88166, Control_c, 0, 64, 94
2,88185, Control_c, 0, 64, 73
2,88205, Control_c, 0, 64, 62
2,88219, Note_on_c, 0, 54, 0
2,88223, Control_c, 0, 64, 54
2,88232, Note_on_c, 0, 75, 0
2,88243, Control_c, 0, 64, 55
2,88248, Note_on_c, 0, 53, 53
2,88258, Note_on_c, 0, 68, 80
2,88262, Control_c, 0, 64, 59
2,88281, Control_c, 0, 64, 63
2,88301, Control_c, 0, 64, 66
2,88318, Control_c, 0, 64, 72
2,88340, Control_c, 0, 64, 80
2,88344, Note_on_c, 0, 80, 0
2,88357, Control_c, 0, 64, 95
2,88377, Control_c, 0, 64, 127
2,88402, Note_on_c, 0, 68, 0
2,88581, Note_on_c, 0, 53, 0
2,88641, Note_on_c, 0, 54, 54
2,88641, Note_on_c, 0, 82, 80
2,88797, Note_on_c, 0, 82, 0
2,89044, Note_on_c, 0, 54, 0
2,89059, Note_on_c, 0, 73, 82
2,89065, Note_on_c, 0, 53, 54
2,89065, Note_on_c, 0, 80, 78
2,89068, Control_c, 0, 64, 118
2,89088, Control_c, 0, 64, 87
2,89106, Control_c, 0, 64, 72
2,89127, Control_c, 0, 64, 61
2,89145, Control_c, 0, 64, 55
2,89163, Control_c, 0, 64, 51
2,89202, Control_c, 0, 64, 50
2,89240, Control_c, 0, 64, 49
2,89261, Control_c, 0, 64, 47
2,89278, Control_c, 0, 64, 46
2,89358, Control_c, 0, 64, 45
2,89416, Note_on_c, 0, 53, 0
2,89473, Control_c, 0, 64, 44
2,89473, Note_on_c, 0, 51, 51
2,89480, Note_on_c, 0, 78, 73
2,89510, Control_c, 0, 64, 43
2,89524, Note_on_c, 0, 80, 0
2,89605, Control_c, 0, 64, 42
2,89663, Control_c, 0, 64, 41
2,89703, Control_c, 0, 64, 40
2,89739, Control_c, 0, 64, 39
2,89758, Control_c, 0, 64, 38
2,89778, Control_c, 0, 64, 37
2,89798, Control_c, 0, 64, 35
2,89820, Control_c, 0, 64, 33
2,89824, Note_on_c, 0, 51, 0
2,89857, Note_on_c, 0, 77, 69
2,89866, Note_on_c, 0, 78, 0
2,89875, Note_on_c, 0, 49, 43
2,89893, Control_c, 0, 64, 36
2,89914, Control_c, 0, 64, 45
2,89931, Control_c, 0, 64, 55
2,89952, Control_c, 0, 64, 62
2,89971, Control_c, 0, 64, 65
2,89989, Control_c, 0, 64, 70
2,90011, Control_c, 0, 64, 81
2,90011, Note_on_c, 0, 77, 0
2,90028, Control_c, 0, 64, 106
2,90039, Note_on_c, 0, 73, 0
2,90049, Control_c, 0, 64, 127
2,90221, Note_on_c, 0, 49, 0
2,90239, Control_c, 0, 64, 91
2,90261, Note_on_c, 0, 75, 68
2,90261, Note_on_c, 0, 78, 70
2,90262, Control_c, 0, 64, 70
2,90280, Control_c, 0, 64, 60
2,90290, Note_on_c, 0, 59, 44
2,90297, Control_c, 0, 64, 53
2,90317, Control_c, 0, 64, 52
2,90337, Control_c, 0, 64, 54
2,90354, Control_c, 0, 64, 57
2,90374, Control_c, 0, 64, 60
2,90392, Control_c, 0, 64, 63
2,90412, Control_c, 0, 64, 65
2,90430, Control_c, 0, 64, 68
2,90449, Control_c, 0, 64, 73
2,90470, Control_c, 0, 64, 79
2,90490, Control_c, 0, 64, 92
2,90506, Control_c, 0, 64, 109
2,90528, Control_c, 0, 64, 127
2,90528, Note_on_c, 0, 78, 0
2,90624, Control_c, 0, 64, 93
2,90629, Note_on_c, 0, 59, 0
2,90641, Control_c, 0, 64, 75
2,90646, Note_on_c, 0, 75, 0
2,90658, Note_on_c, 0, 73, 79
2,90658, Note_on_c, 0, 80, 76
2,90663, Control_c, 0, 64, 64
2,90673, Note_on_c, 0, 58, 51
2,90684, Control_c, 0, 64, 56
2,90699, Control_c, 0, 64, 52
2,90718, Control_c, 0, 64, 53
2,90740, Control_c, 0, 64, 56
2,90757, Control_c, 0, 64, 59
2,90776, Control_c, 0, 64, 62
2,90794, Control_c, 0, 64, 64
2,90814, Control_c, 0, 64, 66
2,90836, Control_c, 0, 64, 70
2,90852, Control_c, 0, 64, 75
2,90872, Control_c, 0, 64, 84
2,90892, Control_c, 0, 64, 100
2,90912, Control_c, 0, 64, 127
2,90915, Note_on_c, 0, 73, 0
2,91047, Control_c, 0, 64, 105
2,91068, Control_c, 0, 64, 80
2,91068, Note_on_c, 0, 58, 0
2,91068, Note_on_c, 0, 71, 76
2,91084, Control_c, 0, 64, 66
2,91090, Note_on_c, 0, 56, 56
2,91104, Control_c, 0, 64, 58
2,91123, Control_c, 0, 64, 54
2,91141, Control_c, 0, 64, 55
2,91159, Control_c, 0, 64, 58
2,91180, Control_c, 0, 64, 62
2,91200, Control_c, 0, 64, 65
2,91217, Control_c, 0, 64, 71
2,91221, Note_on_c, 0, 80, 0
2,91239, Control_c, 0, 64, 79
2,91260, Control_c, 0, 64, 91
2,91276, Control_c, 0, 64, 108
2,91293, Control_c, 0, 64, 127
2,91424, Note_on_c, 0, 56, 0
2,91466, Control_c, 0, 64, 96
2,91475, Note_on_c, 0, 70, 70
2,91475, Note_on_c, 0, 73, 74
2,91488, Control_c, 0, 64, 78
2,91493, Note_on_c, 0, 54, 49
2,91506, Control_c, 0, 64, 67
2,91511, Note_on_c, 0, 71, 0
2,91527, Control_c, 0, 64, 61
2,91546, Control_c, 0, 64, 57
2,91565, Control_c, 0, 64, 56
2,91583, Control_c, 0, 64, 55
2,91601, Control_c, 0, 64, 54
2,91621, Control_c, 0, 64, 53
2,91641, Control_c, 0, 64, 52
2,91659, Control_c, 0, 64, 50
2,91678, Control_c, 0, 64, 49
2,91734, Control_c, 0, 64, 48
2,91758, Control_c, 0, 64, 47
2,91776, Control_c, 0, 64, 45
2,91794, Control_c, 0, 64, 44
2,91850, Note_on_c, 0, 54, 0
2,91852, Control_c, 0, 64, 45
2,91871, Control_c, 0, 64, 49
2,91877, Note_on_c, 0, 71, 82
2,91884, Note_on_c, 0, 56, 55
2,91888, Control_c, 0, 64, 55
2,91893, Note_on_c, 0, 73, 0
2,91903, Note_on_c, 0, 70, 0
2,91909, Control_c, 0, 64, 60
2,91929, Control_c, 0, 64, 63
2,91950, Control_c, 0, 64, 66
2,91970, Control_c, 0, 64, 69
2,91987, Control_c, 0, 64, 75
2,92007, Control_c, 0, 64, 84
2,92024, Control_c, 0, 64, 93
2,92043, Control_c, 0, 64, 103
2,92062, Control_c, 0, 64, 116
2,92082, Control_c, 0, 64, 127
2,92196, Control_c, 0, 64, 108
2,92216, Control_c, 0, 64, 94
2,92236, Control_c, 0, 64, 80
2,92256, Control_c, 0, 64, 69
2,92256, Note_on_c, 0, 56, 0
2,92274, Control_c, 0, 64, 61
2,92296, Control_c, 0, 64, 57
2,92296, Note_on_c, 0, 73, 74
2,92296, Note_on_c, 0, 78, 68
2,92300, Note_on_c, 0, 71, 0
2,92309, Note_on_c, 0, 54, 44
2,92313, Control_c, 0, 64, 55
2,92351, Control_c, 0, 64, 54
2,92372, Control_c, 0, 64, 53
2,92392, Control_c, 0, 64, 51
2,92407, Control_c, 0, 64, 50
2,92503, Control_c, 0, 64, 51
2,92522, Control_c, 0, 64, 52
2,92543, Control_c, 0, 64, 54
2,92563, Control_c, 0, 64, 58
2,92584, Control_c, 0, 64, 62
2,92600, Control_c, 0, 64, 64
2,92622, Control_c, 0, 64, 67
2,92627, Note_on_c, 0, 54, 0
2,92644, Control_c, 0, 64, 72
2,92660, Control_c, 0, 64, 79
2,92678, Control_c, 0, 64, 91
2,92698, Control_c, 0, 64, 127
2,92711, Note_on_c, 0, 52, 52
2,92850, Note_on_c, 0, 52, 0
2,92850, Note_on_c, 0, 73, 0
2,93006, Control_c, 0, 64, 118
2,93026, Control_c, 0, 64, 92
2,93045, Control_c, 0, 64, 76
2,93062, Control_c, 0, 64, 65
2,93085, Control_c, 0, 64, 59
2,93103, Control_c, 0, 64, 56
2,93114, Note_on_c, 0, 66, 71
2,93123, Control_c, 0, 64, 55
2,93123, Note_on_c, 0, 51, 50
2,93200, Control_c, 0, 64, 56
2,93220, Control_c, 0, 64, 58
2,93237, Control_c, 0, 64, 61
2,93255, Control_c, 0, 64, 64
2,93276, Control_c, 0, 64, 69
2,93296, Control_c, 0, 64, 78
2,93314, Control_c, 0, 64, 94
2,93333, Control_c, 0, 64, 127
2,93390, Note_on_c, 0, 78, 0
2,93439, Note_on_c, 0, 66, 0
2,93517, Note_on_c, 0, 51, 0
2,93531, Note_on_c, 0, 76, 70
2,93544, Note_on_c, 0, 49, 40
2,93619, Note_on_c, 0, 76, 0
2,93851, Control_c, 0, 64, 115
2,93870, Control_c, 0, 64, 92
2,93891, Control_c, 0, 64, 76
2,93895, Note_on_c, 0, 49, 0
2,93909, Control_c, 0, 64, 65
2,93926, Control_c, 0, 64, 57
2,93944, Note_on_c, 0, 47, 36
2,93944, Note_on_c, 0, 71, 65
2,93949, Control_c, 0, 64, 54
2,93961, Note_on_c, 0, 75, 55
2,93966, Control_c, 0, 64, 53
2,94025, Control_c, 0, 64, 52
2,94044, Control_c, 0, 64, 51
2,94063, Control_c, 0, 64, 49
2,94083, Control_c, 0, 64, 48
2,94272, Control_c, 0, 64, 49
2,94339, Note_on_c, 0, 47, 0
2,94344, Note_on_c, 0, 75, 0
2,94355, Note_on_c, 0, 80, 63
2,94364, Note_on_c, 0, 44, 43
2,94368, Control_c, 0, 64, 50
2,94621, Control_c, 0, 64, 51
2,94751, Note_on_c, 0, 80, 0
2,94760, Note_on_c, 0, 44, 0
2,94768, Note_on_c, 0, 73, 54
2,94780, Note_on_c, 0, 46, 40
2,95020, Control_c, 0, 64, 50
2,95139, Control_c, 0, 64, 51
2,95139, Note_on_c, 0, 46, 0
2,95150, Note_on_c, 0, 71, 0
2,95152, Control_c, 0, 64, 53
2,95176, Control_c, 0, 64, 57
2,95176, Note_on_c, 0, 42, 40
2,95176, Note_on_c, 0, 70, 53
2,95181, Note_on_c, 0, 78, 58
2,95192, Control_c, 0, 64, 60
2,95210, Control_c, 0, 64, 62
2,95226, Note_on_c, 0, 73, 0
2,95231, Control_c, 0, 64, 64
2,95248, Control_c, 0, 64, 67
2,95268, Control_c, 0, 64, 73
2,95289, Control_c, 0, 64, 81
2,95309, Control_c, 0, 64, 99
2,95328, Control_c, 0, 64, 127
2,95478, Note_on_c, 0, 70, 0
2,95520, Control_c, 0, 64, 111
2,95539, Control_c, 0, 64, 94
2,95557, Control_c, 0, 64, 81
2,95568, Note_on_c, 0, 42, 0
2,95579, Control_c, 0, 64, 70
2,95596, Note_on_c, 0, 68, 65
2,95601, Control_c, 0, 64, 63
2,95616, Control_c, 0, 64, 59
2,95616, Note_on_c, 0, 49, 40
2,95634, Control_c, 0, 64, 57
2,95671, Control_c, 0, 64, 56
2,95710, Control_c, 0, 64, 54
2,95732, Control_c, 0, 64, 52
2,95747, Control_c, 0, 64, 50
2,95769, Control_c, 0, 64, 49
2,95787, Control_c, 0, 64, 48
2,95808, Control_c, 0, 64, 46
2,95825, Control_c, 0, 64, 44
2,95846, Control_c, 0, 64, 39
2,95863, Control_c, 0, 64, 32
2,95882, Control_c, 0, 64, 22
2,95902, Control_c, 0, 64, 12
2,95925, Control_c, 0, 64, 0
2,95981, Note_on_c, 0, 78, 0
2,96010, Note_on_c, 0, 77, 55
2,96017, Note_on_c, 0, 37, 39
2,96095, Control_c, 0, 64, 32
2,96113, Control_c, 0, 64, 51
2,96135, Control_c, 0, 64, 62
2,96153, Control_c, 0, 64, 64
2,96168, Note_on_c, 0, 77, 0
2,96173, Control_c, 0, 64, 67
2,96191, Note_on_c, 0, 68, 0
2,96195, Control_c, 0, 64, 70
2,96211, Control_c, 0, 64, 77
2,96230, Control_c, 0, 64, 86
2,96248, Control_c, 0, 64, 99
2,96252, Note_on_c, 0, 37, 0
2,96270, Control_c, 0, 64, 127
2,96384, Note_on_c, 0, 49, 0
2,96421, Control_c, 0, 64, 112
2,96441, Control_c, 0, 64, 93
2,96459, Control_c, 0, 64, 78
2,96477, Control_c, 0, 64, 66
2,96497, Control_c, 0, 64, 58
2,96500, Note_on_c, 0, 78, 55
2,96519, Control_c, 0, 64, 53
2,96519, Note_on_c, 0, 66, 43
2,96521, Note_on_c, 0, 42, 35
2,96535, Control_c, 0, 64, 52
2,96554, Control_c, 0, 64, 53
2,96575, Control_c, 0, 64, 55
2,96593, Control_c, 0, 64, 58
2,96612, Control_c, 0, 64, 61
2,96631, Control_c, 0, 64, 65
2,96652, Control_c, 0, 64, 70
2,96670, Control_c, 0, 64, 83
2,96690, Control_c, 0, 64, 127
2,96803, Note_on_c, 0, 66, 0
2,96862, Note_on_c, 0, 78, 0
2,96895, Note_on_c, 0, 42, 0
2,96931, Note_on_c, 0, 44, 42
2,96956, Note_on_c, 0, 65, 44
2,97014, Note_on_c, 0, 65, 0
2,97339, Note_on_c, 0, 73, 68
2,97341, Control_c, 0, 64, 120
2,97361, Control_c, 0, 64, 90
2,97376, Note_on_c, 0, 44, 0
2,97376, Note_on_c, 0, 46, 39
2,97381, Note_on_c, 0, 66, 46
2,97386, Control_c, 0, 64, 72
2,97401, Control_c, 0, 64, 64
2,97419, Control_c, 0, 64, 58
2,97439, Control_c, 0, 64, 54
2,97457, Control_c, 0, 64, 52
2,97477, Control_c, 0, 64, 51
2,97494, Control_c, 0, 64, 49
2,97515, Control_c, 0, 64, 46
2,97535, Control_c, 0, 64, 42
2,97553, Control_c, 0, 64, 39
2,97573, Control_c, 0, 64, 37
2,97611, Control_c, 0, 64, 36
2,97650, Control_c, 0, 64, 35
2,97688, Control_c, 0, 64, 34
2,97722, Note_on_c, 0, 66, 0
2,97735, Note_on_c, 0, 46, 0
2,97758, Note_on_c, 0, 68, 51
2,97784, Control_c, 0, 64, 33
2,97789, Note_on_c, 0, 44, 31
2,97823, Control_c, 0, 64, 32
2,97840, Control_c, 0, 64, 31
2,97863, Control_c, 0, 64, 30
2,97919, Control_c, 0, 64, 29
2,98014, Control_c, 0, 64, 28
2,98126, Note_on_c, 0, 68, 0
2,98130, Control_c, 0, 64, 30
2,98130, Note_on_c, 0, 44, 0
2,98153, Control_c, 0, 64, 35
2,98153, Note_on_c, 0, 42, 38
2,98165, Note_on_c, 0, 70, 45
2,98169, Control_c, 0, 64, 44
2,98187, Control_c, 0, 64, 54
2,98205, Control_c, 0, 64, 61
2,98226, Control_c, 0, 64, 63
2,98248, Control_c, 0, 64, 65
2,98265, Control_c, 0, 64, 68
2,98283, Control_c, 0, 64, 73
2,98301, Control_c, 0, 64, 82
2,98305, Note_on_c, 0, 70, 0
2,98322, Control_c, 0, 64, 94
2,98341, Control_c, 0, 64, 127
2,98561, Note_on_c, 0, 73, 0
2,98572, Note_on_c, 0, 42, 0
2,98576, Control_c, 0, 64, 97
2,98576, Note_on_c, 0, 72, 60
2,98592, Control_c, 0, 64, 75
2,98594, Note_on_c, 0, 54, 42
2,98598, Note_on_c, 0, 68, 49
2,98610, Control_c, 0, 64, 62
2,98628, Control_c, 0, 64, 55
2,98649, Control_c, 0, 64, 54
2,98667, Control_c, 0, 64, 55
2,98685, Control_c, 0, 64, 58
2,98705, Control_c, 0, 64, 60
2,98723, Control_c, 0, 64, 63
2,98744, Control_c, 0, 64, 65
2,98762, Control_c, 0, 64, 68
2,98782, Control_c, 0, 64, 72
2,98800, Control_c, 0, 64, 78
2,98822, Control_c, 0, 64, 86
2,98840, Control_c, 0, 64, 93
2,98862, Control_c, 0, 64, 95
2,98898, Control_c, 0, 64, 94
2,98919, Control_c, 0, 64, 93
2,98937, Control_c, 0, 64, 91
2,98957, Control_c, 0, 64, 87
2,98959, Note_on_c, 0, 54, 0
2,98977, Control_c, 0, 64, 81
2,98977, Note_on_c, 0, 72, 0
2,98982, Note_on_c, 0, 70, 62
2,98987, Note_on_c, 0, 73, 71
2,98994, Control_c, 0, 64, 73
2,99000, Note_on_c, 0, 68, 0
2,99004, Note_on_c, 0, 53, 40
2,99012, Control_c, 0, 64, 65
2,99032, Control_c, 0, 64, 60
2,99054, Control_c, 0, 64, 57
2,99072, Control_c, 0, 64, 56
2,99089, Control_c, 0, 64, 55
2,99109, Control_c, 0, 64, 54
2,99131, Control_c, 0, 64, 53
2,99147, Control_c, 0, 64, 51
2,99165, Control_c, 0, 64, 49
2,99184, Control_c, 0, 64, 48
2,99262, Control_c, 0, 64, 47
2,99282, Control_c, 0, 64, 46
2,99296, Note_on_c, 0, 73, 0
2,99301, Control_c, 0, 64, 45
2,99321, Control_c, 0, 64, 44
2,99350, Note_on_c, 0, 53, 0
2,99354, Note_on_c, 0, 75, 74
2,99358, Note_on_c, 0, 70, 0
2,99369, Note_on_c, 0, 72, 65
2,99382, Note_on_c, 0, 51, 49
2,99418, Control_c, 0, 64, 46
2,99435, Control_c, 0, 64, 53
2,99455, Control_c, 0, 64, 59
2,99473, Control_c, 0, 64, 64
2,99486, Note_on_c, 0, 72, 0
2,99495, Control_c, 0, 64, 67
2,99512, Control_c, 0, 64, 73
2,99532, Control_c, 0, 64, 85
2,99553, Control_c, 0, 64, 106
2,99570, Control_c, 0, 64, 127
2,99592, Note_on_c, 0, 75, 0
2,99764, Control_c, 0, 64, 96
2,99782, Note_on_c, 0, 77, 74
2,99786, Control_c, 0, 64, 80
2,99790, Note_on_c, 0, 51, 0
2,99799, Control_c, 0, 64, 69
2,99820, Control_c, 0, 64, 62
2,99824, Note_on_c, 0, 49, 41
2,99824, Note_on_c, 0, 73, 48
2,99840, Control_c, 0, 64, 57
2,99858, Control_c, 0, 64, 55
2,99876, Control_c, 0, 64, 53
2,99914, Control_c, 0, 64, 51
2,99934, Control_c, 0, 64, 49
2,99952, Control_c, 0, 64, 46
2,99972, Control_c, 0, 64, 43
2,100068, Control_c, 0, 64, 42
2,100088, Control_c, 0, 64, 41
2,100164, Note_on_c, 0, 73, 0
2,100170, Note_on_c, 0, 77, 0
2,100189, Note_on_c, 0, 75, 59
2,100203, Note_on_c, 0, 71, 47
2,100395, Control_c, 0, 64, 42
2,100584, Note_on_c, 0, 71, 0
2,100614, Note_on_c, 0, 73, 63
2,100614, Note_on_c, 0, 75, 0
2,100623, Note_on_c, 0, 49, 0
2,100638, Note_on_c, 0, 54, 38
2,100836, Control_c, 0, 64, 43
2,100912, Control_c, 0, 64, 44
2,100932, Control_c, 0, 64, 46
2,100954, Control_c, 0, 64, 49
2,100972, Control_c, 0, 64, 54
2,100992, Control_c, 0, 64, 58
2,101003, Note_on_c, 0, 70, 40
2,101010, Control_c, 0, 64, 61
2,101029, Control_c, 0, 64, 62
2,101050, Control_c, 0, 64, 64
2,101068, Control_c, 0, 64, 67
2,101086, Control_c, 0, 64, 73
2,101102, Note_on_c, 0, 70, 0
2,101106, Control_c, 0, 64, 84
2,101124, Control_c, 0, 64, 104
2,101143, Control_c, 0, 64, 127
2,101374, Control_c, 0, 64, 112
2,101391, Note_on_c, 0, 73, 0
2,101396, Control_c, 0, 64, 93
2,101407, Note_on_c, 0, 80, 57
2,101414, Control_c, 0, 64, 80
2,101430, Control_c, 0, 64, 71
2,101453, Control_c, 0, 64, 64
2,101453, Note_on_c, 0, 71, 10
2,101470, Control_c, 0, 64, 60
2,101492, Control_c, 0, 64, 59
2,101509, Control_c, 0, 64, 58
2,101530, Control_c, 0, 64, 57
2,101547, Control_c, 0, 64, 56
2,101565, Control_c, 0, 64, 55
2,101585, Control_c, 0, 64, 54
2,101605, Control_c, 0, 64, 53
2,101643, Control_c, 0, 64, 54
2,101682, Control_c, 0, 64, 55
2,101701, Control_c, 0, 64, 57
2,101718, Control_c, 0, 64, 59
2,101739, Control_c, 0, 64, 62
2,101759, Control_c, 0, 64, 64
2,101777, Control_c, 0, 64, 68
2,101797, Control_c, 0, 64, 74
2,101808, Note_on_c, 0, 71, 0
2,101816, Control_c, 0, 64, 85
2,101821, Note_on_c, 0, 70, 46
2,101838, Control_c, 0, 64, 108
2,101854, Control_c, 0, 64, 127
2,101929, Note_on_c, 0, 70, 0
2,101955, Note_on_c, 0, 80, 0
2,102200, Control_c, 0, 64, 108
2,102218, Control_c, 0, 64, 90
2,102232, Note_on_c, 0, 73, 59
2,102238, Control_c, 0, 64, 78
2,102249, Note_on_c, 0, 68, 49
2,102257, Control_c, 0, 64, 69
2,102268, Note_on_c, 0, 53, 26
2,102273, Note_on_c, 0, 54, 0
2,102277, Control_c, 0, 64, 64
2,102294, Control_c, 0, 64, 61
2,102317, Control_c, 0, 64, 59
2,102334, Control_c, 0, 64, 57
2,102354, Control_c, 0, 64, 56
2,102372, Control_c, 0, 64, 53
2,102393, Control_c, 0, 64, 51
2,102411, Control_c, 0, 64, 49
2,102429, Control_c, 0, 64, 47
2,102450, Control_c, 0, 64, 46
2,102565, Control_c, 0, 64, 47
2,102585, Control_c, 0, 64, 48
2,102604, Control_c, 0, 64, 52
2,102622, Control_c, 0, 64, 56
2,102642, Control_c, 0, 64, 59
2,102660, Control_c, 0, 64, 61
2,102660, Note_on_c, 0, 71, 47
2,102680, Control_c, 0, 64, 63
2,102700, Control_c, 0, 64, 65
2,102713, Note_on_c, 0, 68, 0
2,102718, Control_c, 0, 64, 68
2,102738, Control_c, 0, 64, 74
2,102757, Control_c, 0, 64, 83
2,102775, Control_c, 0, 64, 95
2,102796, Control_c, 0, 64, 116
2,102816, Control_c, 0, 64, 127
2,103005, Control_c, 0, 64, 113
2,103018, Note_on_c, 0, 71, 0
2,103027, Control_c, 0, 64, 88
2,103036, Note_on_c, 0, 53, 0
2,103045, Control_c, 0, 64, 73
2,103065, Control_c, 0, 64, 63
2,103074, Note_on_c, 0, 54, 37
2,103074, Note_on_c, 0, 70, 43
2,103082, Control_c, 0, 64, 57
2,103102, Control_c, 0, 64, 55
2,103143, Control_c, 0, 64, 56
2,103159, Control_c, 0, 64, 55
2,103199, Control_c, 0, 64, 54
2,103313, Control_c, 0, 64, 55
2,103423, Note_on_c, 0, 54, 0
2,103430, Control_c, 0, 64, 56
2,103446, Control_c, 0, 64, 57
2,103466, Note_on_c, 0, 75, 67
2,103468, Control_c, 0, 64, 59
2,103470, Note_on_c, 0, 53, 42
2,103488, Control_c, 0, 64, 60
2,103499, Note_on_c, 0, 73, 0
2,103506, Control_c, 0, 64, 63
2,103523, Control_c, 0, 64, 65
2,103543, Control_c, 0, 64, 68
2,103564, Control_c, 0, 64, 74
2,103581, Control_c, 0, 64, 82
2,103600, Control_c, 0, 64, 92
2,103620, Control_c, 0, 64, 104
2,103639, Control_c, 0, 64, 120
2,103658, Control_c, 0, 64, 127
2,103871, Note_on_c, 0, 75, 0
2,103876, Control_c, 0, 64, 110
2,103876, Note_on_c, 0, 77, 75
2,103882, Note_on_c, 0, 51, 49
2,103889, Control_c, 0, 64, 98
2,103908, Control_c, 0, 64, 88
2,103929, Control_c, 0, 64, 77
2,103943, Note_on_c, 0, 53, 0
2,103947, Control_c, 0, 64, 68
2,103964, Control_c, 0, 64, 63
2,103984, Control_c, 0, 64, 60
2,104042, Control_c, 0, 64, 59
2,104064, Control_c, 0, 64, 58
2,104082, Control_c, 0, 64, 57
2,104100, Control_c, 0, 64, 56
2,104120, Control_c, 0, 64, 55
2,104177, Control_c, 0, 64, 54
2,104197, Control_c, 0, 64, 52
2,104216, Control_c, 0, 64, 50
2,104236, Control_c, 0, 64, 49
2,104254, Control_c, 0, 64, 46
2,104274, Control_c, 0, 64, 44
2,104283, Note_on_c, 0, 50, 51
2,104293, Control_c, 0, 64, 41
2,104312, Control_c, 0, 64, 37
2,104325, Note_on_c, 0, 51, 0
2,104330, Control_c, 0, 64, 33
2,104350, Control_c, 0, 64, 30
2,104369, Control_c, 0, 64, 27
2,104391, Control_c, 0, 64, 25
2,104428, Control_c, 0, 64, 23
2,104447, Control_c, 0, 64, 22
2,104483, Control_c, 0, 64, 21
2,104523, Control_c, 0, 64, 20
2,104659, Control_c, 0, 64, 19
2,104676, Control_c, 0, 64, 18
2,104689, Note_on_c, 0, 50, 0
2,104695, Control_c, 0, 64, 16
2,104699, Note_on_c, 0, 77, 0
2,104706, Note_on_c, 0, 78, 72
2,104715, Control_c, 0, 64, 13
2,104721, Note_on_c, 0, 51, 48
2,104735, Control_c, 0, 64, 9
2,104753, Control_c, 0, 64, 0
2,105144, Note_on_c, 0, 72, 66
2,105178, Control_c, 0, 64, 26
2,105187, Note_on_c, 0, 70, 0
2,105197, Control_c, 0, 64, 44
2,105216, Control_c, 0, 64, 56
2,105233, Control_c, 0, 64, 61
2,105252, Control_c, 0, 64, 62
2,105270, Control_c, 0, 64, 63
2,105291, Control_c, 0, 64, 64
2,105330, Control_c, 0, 64, 65
2,105348, Control_c, 0, 64, 66
2,105368, Control_c, 0, 64, 67
2,105464, Control_c, 0, 64, 66
2,105501, Control_c, 0, 64, 65
2,105523, Control_c, 0, 64, 64
2,105528, Note_on_c, 0, 51, 0
2,105528, Note_on_c, 0, 73, 75
2,105535, Note_on_c, 0, 72, 0
2,105543, Control_c, 0, 64, 62
2,105545, Note_on_c, 0, 46, 45
2,105558, Control_c, 0, 64, 60
2,105579, Control_c, 0, 64, 57
2,105599, Control_c, 0, 64, 54
2,105618, Control_c, 0, 64, 51
2,105636, Control_c, 0, 64, 46
2,105658, Control_c, 0, 64, 41
2,105676, Control_c, 0, 64, 37
2,105695, Control_c, 0, 64, 33
2,105713, Control_c, 0, 64, 31
2,105733, Control_c, 0, 64, 30
2,105752, Control_c, 0, 64, 28
2,105773, Control_c, 0, 64, 26
2,105789, Control_c, 0, 64, 24
2,105810, Control_c, 0, 64, 21
2,105829, Control_c, 0, 64, 19
2,105849, Control_c, 0, 64, 18
2,105929, Note_on_c, 0, 75, 69
2,105931, Note_on_c, 0, 73, 0
2,105944, Note_on_c, 0, 46, 0
2,105955, Note_on_c, 0, 48, 41
2,106282, Note_on_c, 0, 48, 0
2,106289, Control_c, 0, 64, 19
2,106323, Note_on_c, 0, 75, 0
2,106331, Control_c, 0, 64, 20
2,106340, Note_on_c, 0, 68, 65
2,106347, Control_c, 0, 64, 22
2,106353, Note_on_c, 0, 49, 38
2,106366, Control_c, 0, 64, 25
2,106385, Control_c, 0, 64, 31
2,106405, Control_c, 0, 64, 40
2,106423, Control_c, 0, 64, 50
2,106443, Control_c, 0, 64, 58
2,106463, Control_c, 0, 64, 62
2,106480, Control_c, 0, 64, 64
2,106501, Control_c, 0, 64, 66
2,106518, Control_c, 0, 64, 71
2,106539, Control_c, 0, 64, 81
2,106559, Control_c, 0, 64, 100
2,106576, Control_c, 0, 64, 127
2,106596, Note_on_c, 0, 78, 0
2,106723, Note_on_c, 0, 77, 79
2,106761, Note_on_c, 0, 68, 0
2,107117, Control_c, 0, 64, 112
2,107138, Control_c, 0, 64, 97
2,107138, Note_on_c, 0, 77, 0
2,107149, Note_on_c, 0, 70, 71
2,107149, Note_on_c, 0, 75, 70
2,107154, Control_c, 0, 64, 87
2,107174, Control_c, 0, 64, 78
2,107178, Note_on_c, 0, 42, 49
2,107192, Note_on_c, 0, 49, 0
2,107196, Control_c, 0, 64, 69
2,107211, Control_c, 0, 64, 63
2,107229, Control_c, 0, 64, 58
2,107250, Control_c, 0, 64, 57
2,107307, Control_c, 0, 64, 55
2,107326, Control_c, 0, 64, 52
2,107346, Control_c, 0, 64, 49
2,107365, Control_c, 0, 64, 46
2,107383, Control_c, 0, 64, 43
2,107403, Control_c, 0, 64, 41
2,107422, Control_c, 0, 64, 39
2,107441, Control_c, 0, 64, 35
2,107459, Control_c, 0, 64, 30
2,107478, Control_c, 0, 64, 26
2,107498, Control_c, 0, 64, 24
2,107521, Control_c, 0, 64, 23
2,107535, Control_c, 0, 64, 22
2,107558, Control_c, 0, 64, 21
2,107568, Note_on_c, 0, 73, 75
2,107579, Control_c, 0, 64, 20
2,107596, Control_c, 0, 64, 18
2,107607, Note_on_c, 0, 75, 0
2,107614, Control_c, 0, 64, 17
2,107634, Control_c, 0, 64, 16
2,107653, Control_c, 0, 64, 15
2,107673, Control_c, 0, 64, 14
2,107923, Note_on_c, 0, 42, 0
2,107962, Note_on_c, 0, 72, 73
2,107967, Note_on_c, 0, 44, 47
2,108001, Note_on_c, 0, 73, 0
2,108056, Control_c, 0, 64, 18
2,108076, Control_c, 0, 64, 26
2,108096, Control_c, 0, 64, 38
2,108112, Control_c, 0, 64, 52
2,108132, Control_c, 0, 64, 60
2,108152, Control_c, 0, 64, 62
2,108170, Control_c, 0, 64, 64
2,108189, Control_c, 0, 64, 67
2,108209, Control_c, 0, 64, 73
2,108230, Control_c, 0, 64, 85
2,108230, Note_on_c, 0, 70, 0
2,108247, Control_c, 0, 64, 112
2,108265, Control_c, 0, 64, 127
2,108364, Note_on_c, 0, 72, 0
2,108370, Note_on_c, 0, 68, 78
2,108490, Note_on_c, 0, 68, 0
2,108727, Control_c, 0, 64, 104
2,108746, Control_c, 0, 64, 93
2,108768, Control_c, 0, 64, 83
2,108774, Note_on_c, 0, 66, 66
2,108779, Note_on_c, 0, 74, 69
2,108781, Note_on_c, 0, 44, 0
2,108785, Control_c, 0, 64, 74
2,108790, Note_on_c, 0, 46, 47
2,108808, Control_c, 0, 64, 65
2,108823, Control_c, 0, 64, 60
2,108841, Control_c, 0, 64, 57
2,108864, Control_c, 0, 64, 56
2,108882, Control_c, 0, 64, 55
2,108903, Control_c, 0, 64, 53
2,108919, Control_c, 0, 64, 50
2,108939, Control_c, 0, 64, 44
2,108959, Control_c, 0, 64, 37
2,108977, Control_c, 0, 64, 28
2,108997, Control_c, 0, 64, 14
2,109016, Control_c, 0, 64, 0
2,109172, Note_on_c, 0, 66, 0
2,109179, Note_on_c, 0, 65, 65
2,109245, Control_c, 0, 64, 25
2,109265, Control_c, 0, 64, 47
2,109283, Control_c, 0, 64, 60
2,109305, Control_c, 0, 64, 66
2,109325, Control_c, 0, 64, 73
2,109329, Note_on_c, 0, 74, 0
2,109344, Control_c, 0, 64, 94
2,109353, Note_on_c, 0, 65, 0
2,109362, Control_c, 0, 64, 127
2,109573, Control_c, 0, 64, 120
2,109592, Control_c, 0, 64, 90
2,109603, Note_on_c, 0, 46, 0
2,109603, Note_on_c, 0, 75, 71
2,109610, Control_c, 0, 64, 75
2,109610, Note_on_c, 0, 47, 49
2,109619, Note_on_c, 0, 63, 56
2,109631, Control_c, 0, 64, 64
2,109651, Control_c, 0, 64, 58
2,109668, Control_c, 0, 64, 55
2,109706, Control_c, 0, 64, 54
2,109726, Control_c, 0, 64, 53
2,109748, Control_c, 0, 64, 52
2,109764, Control_c, 0, 64, 51
2,109783, Control_c, 0, 64, 49
2,109881, Control_c, 0, 64, 48
2,109918, Control_c, 0, 64, 47
2,109976, Control_c, 0, 64, 46
2,110027, Note_on_c, 0, 46, 62
2,110027, Note_on_c, 0, 66, 66
2,110034, Control_c, 0, 64, 45
2,110034, Note_on_c, 0, 47, 0
2,110076, Note_on_c, 0, 63, 0
2,110379, Control_c, 0, 64, 44
2,110417, Note_on_c, 0, 44, 67
2,110428, Note_on_c, 0, 46, 0
2,110432, Note_on_c, 0, 66, 0
2,110443, Note_on_c, 0, 71, 64
2,110610, Control_c, 0, 64, 43
2,110687, Control_c, 0, 64, 42
2,110814, Note_on_c, 0, 44, 0
2,110822, Control_c, 0, 64, 43
2,110827, Note_on_c, 0, 42, 62
2,110840, Control_c, 0, 64, 47
2,110862, Control_c, 0, 64, 54
2,110876, Control_c, 0, 64, 59
2,110897, Control_c, 0, 64, 61
2,110916, Control_c, 0, 64, 64
2,110937, Control_c, 0, 64, 66
2,110955, Control_c, 0, 64, 70
2,110972, Control_c, 0, 64, 78
2,110979, Note_on_c, 0, 75, 0
2,110992, Control_c, 0, 64, 90
2,111012, Control_c, 0, 64, 100
2,111030, Control_c, 0, 64, 106
2,111090, Control_c, 0, 64, 104
2,111108, Control_c, 0, 64, 102
2,111127, Control_c, 0, 64, 98
2,111148, Control_c, 0, 64, 93
2,111165, Control_c, 0, 64, 86
2,111185, Control_c, 0, 64, 76
2,111205, Control_c, 0, 64, 67
2,111225, Note_on_c, 0, 42, 0
2,111229, Control_c, 0, 64, 60
2,111242, Control_c, 0, 64, 54
2,111259, Note_on_c, 0, 73, 60
2,111263, Control_c, 0, 64, 50
2,111263, Note_on_c, 0, 40, 43
2,111281, Control_c, 0, 64, 49
2,111302, Control_c, 0, 64, 48
2,111319, Control_c, 0, 64, 46
2,111337, Control_c, 0, 64, 43
2,111357, Control_c, 0, 64, 40
2,111377, Control_c, 0, 64, 37
2,111395, Control_c, 0, 64, 36
2,111434, Control_c, 0, 64, 35
2,111493, Control_c, 0, 64, 34
2,111653, Note_on_c, 0, 71, 0
2,111662, Note_on_c, 0, 70, 52
2,112033, Note_on_c, 0, 40, 0
2,112051, Note_on_c, 0, 70, 0
2,112073, Note_on_c, 0, 68, 51
2,112085, Note_on_c, 0, 39, 43
2,112167, Control_c, 0, 64, 33
2,112221, Control_c, 0, 64, 32
2,112278, Control_c, 0, 64, 31
2,112335, Control_c, 0, 64, 30
2,112441, Note_on_c, 0, 68, 0
2,112452, Control_c, 0, 64, 32
2,112471, Control_c, 0, 64, 37
2,112485, Note_on_c, 0, 67, 49
2,112492, Control_c, 0, 64, 46
2,112509, Control_c, 0, 64, 57
2,112529, Control_c, 0, 64, 62
2,112549, Control_c, 0, 64, 65
2,112567, Control_c, 0, 64, 69
2,112587, Control_c, 0, 64, 79
2,112596, Note_on_c, 0, 67, 0
2,112607, Control_c, 0, 64, 104
2,112625, Control_c, 0, 64, 127
2,112649, Note_on_c, 0, 39, 0
2,112857, Control_c, 0, 64, 108
2,112875, Control_c, 0, 64, 89
2,112883, Note_on_c, 0, 73, 0
2,112899, Control_c, 0, 64, 75
2,112903, Note_on_c, 0, 68, 55
2,112914, Control_c, 0, 64, 65
2,112914, Note_on_c, 0, 71, 48
2,112926, Note_on_c, 0, 44, 42
2,112935, Control_c, 0, 64, 58
2,112953, Control_c, 0, 64, 55
2,112992, Control_c, 0, 64, 54
2,113009, Control_c, 0, 64, 51
2,113027, Control_c, 0, 64, 48
2,113047, Control_c, 0, 64, 42
2,113068, Control_c, 0, 64, 35
2,113087, Control_c, 0, 64, 32
2,113106, Control_c, 0, 64, 31
2,113163, Control_c, 0, 64, 30
2,113184, Control_c, 0, 64, 28
2,113204, Control_c, 0, 64, 27
2,113219, Control_c, 0, 64, 26
2,113296, Control_c, 0, 64, 25
2,113310, Note_on_c, 0, 44, 0
2,113330, Note_on_c, 0, 46, 47
2,113335, Note_on_c, 0, 71, 0
2,113339, Control_c, 0, 64, 24
2,113339, Note_on_c, 0, 73, 66
2,113355, Control_c, 0, 64, 23
2,113395, Control_c, 0, 64, 22
2,113450, Control_c, 0, 64, 21
2,113622, Control_c, 0, 64, 20
2,113689, Note_on_c, 0, 46, 0
2,113714, Note_on_c, 0, 75, 72
2,113718, Note_on_c, 0, 73, 0
2,113723, Note_on_c, 0, 47, 51
2,114105, Note_on_c, 0, 75, 0
2,114118, Note_on_c, 0, 76, 76
2,114136, Note_on_c, 0, 47, 0
2,114145, Note_on_c, 0, 49, 53
2,114512, Note_on_c, 0, 49, 0
2,114512, Note_on_c, 0, 76, 0
2,114534, Note_on_c, 0, 70, 55
2,114570, Note_on_c, 0, 51, 44
2,114909, Note_on_c, 0, 70, 0
2,114929, Control_c, 0, 64, 25
2,114942, Note_on_c, 0, 71, 51
2,114949, Control_c, 0, 64, 35
2,114968, Control_c, 0, 64, 47
2,114988, Control_c, 0, 64, 58
2,115005, Control_c, 0, 64, 62
2,115024, Control_c, 0, 64, 64
2,115046, Control_c, 0, 64, 67
2,115063, Control_c, 0, 64, 72
2,115084, Control_c, 0, 64, 83
2,115101, Control_c, 0, 64, 97
2,115120, Control_c, 0, 64, 118
2,115142, Control_c, 0, 64, 127
2,115142, Note_on_c, 0, 68, 0
2,115173, Note_on_c, 0, 71, 0
2,115220, Control_c, 0, 64, 122
2,115238, Control_c, 0, 64, 120
2,115255, Control_c, 0, 64, 113
2,115274, Control_c, 0, 64, 106
2,115294, Control_c, 0, 64, 99
2,115314, Control_c, 0, 64, 91
2,115331, Control_c, 0, 64, 84
2,115354, Control_c, 0, 64, 77
2,115354, Note_on_c, 0, 67, 49
2,115359, Note_on_c, 0, 73, 53
2,115363, Note_on_c, 0, 51, 0
2,115370, Control_c, 0, 64, 70
2,115393, Control_c, 0, 64, 65
2,115409, Control_c, 0, 64, 60
2,115428, Control_c, 0, 64, 58
2,115446, Control_c, 0, 64, 56
2,115466, Control_c, 0, 64, 54
2,115485, Control_c, 0, 64, 52
2,115506, Control_c, 0, 64, 47
2,115524, Control_c, 0, 64, 42
2,115544, Control_c, 0, 64, 36
2,115563, Control_c, 0, 64, 33
2,115581, Control_c, 0, 64, 32
2,115601, Control_c, 0, 64, 31
2,115622, Control_c, 0, 64, 29
2,115640, Control_c, 0, 64, 28
2,115695, Control_c, 0, 64, 31
2,115715, Control_c, 0, 64, 39
2,115735, Control_c, 0, 64, 51
2,115740, Note_on_c, 0, 75, 52
2,115748, Note_on_c, 0, 73, 0
2,115753, Control_c, 0, 64, 61
2,115767, Note_on_c, 0, 51, 46
2,115776, Control_c, 0, 64, 66
2,115793, Control_c, 0, 64, 72
2,115813, Control_c, 0, 64, 92
2,115832, Control_c, 0, 64, 127
2,115845, Note_on_c, 0, 51, 0
2,115854, Note_on_c, 0, 75, 0
2,116100, Control_c, 0, 64, 95
2,116120, Control_c, 0, 64, 82
2,116139, Control_c, 0, 64, 71
2,116157, Control_c, 0, 64, 63
2,116177, Control_c, 0, 64, 57
2,116186, Note_on_c, 0, 56, 41
2,116190, Note_on_c, 0, 71, 48
2,116192, Note_on_c, 0, 68, 52
2,116197, Control_c, 0, 64, 54
2,116210, Note_on_c, 0, 67, 0
2,116215, Control_c, 0, 64, 52
2,116235, Control_c, 0, 64, 49
2,116253, Control_c, 0, 64, 45
2,116273, Control_c, 0, 64, 40
2,116292, Control_c, 0, 64, 35
2,116312, Control_c, 0, 64, 32
2,116369, Control_c, 0, 64, 37
2,116389, Control_c, 0, 64, 44
2,116407, Control_c, 0, 64, 52
2,116427, Control_c, 0, 64, 58
2,116446, Control_c, 0, 64, 61
2,116466, Control_c, 0, 64, 63
2,116483, Control_c, 0, 64, 64
2,116503, Control_c, 0, 64, 68
2,116525, Control_c, 0, 64, 73
2,116543, Control_c, 0, 64, 81
2,116556, Note_on_c, 0, 71, 0
2,116560, Control_c, 0, 64, 94
2,116580, Control_c, 0, 64, 127
2,116585, Note_on_c, 0, 58, 43
2,116593, Note_on_c, 0, 56, 0
2,116642, Note_on_c, 0, 70, 29
2,116651, Note_on_c, 0, 68, 0
2,116937, Note_on_c, 0, 58, 0
2,116944, Control_c, 0, 64, 108
2,116961, Note_on_c, 0, 70, 0
2,116966, Control_c, 0, 64, 91
2,116973, Note_on_c, 0, 63, 64
2,116984, Control_c, 0, 64, 79
2,116993, Note_on_c, 0, 68, 55
2,116997, Note_on_c, 0, 59, 52
2,117002, Control_c, 0, 64, 68
2,117022, Control_c, 0, 64, 61
2,117041, Control_c, 0, 64, 54
2,117059, Control_c, 0, 64, 50
2,117078, Control_c, 0, 64, 48
2,117099, Control_c, 0, 64, 44
2,117116, Control_c, 0, 64, 40
2,117137, Control_c, 0, 64, 35
2,117157, Control_c, 0, 64, 28
2,117175, Control_c, 0, 64, 18
2,117195, Control_c, 0, 64, 0
2,117367, Note_on_c, 0, 59, 0
2,117392, Note_on_c, 0, 66, 57
2,117392, Note_on_c, 0, 68, 0
2,117397, Note_on_c, 0, 56, 46
2,117732, Note_on_c, 0, 66, 0
2,117752, Note_on_c, 0, 56, 0
2,117790, Control_c, 0, 64, 27
2,117796, Note_on_c, 0, 58, 49
2,117796, Note_on_c, 0, 65, 49
2,117809, Control_c, 0, 64, 44
2,117828, Control_c, 0, 64, 55
2,117847, Control_c, 0, 64, 61
2,117866, Control_c, 0, 64, 63
2,117884, Control_c, 0, 64, 65
2,117905, Control_c, 0, 64, 68
2,117925, Control_c, 0, 64, 75
2,117943, Control_c, 0, 64, 87
2,117962, Control_c, 0, 64, 111
2,117983, Control_c, 0, 64, 127
2,118054, Note_on_c, 0, 63, 0
2,118135, Control_c, 0, 64, 103
2,118155, Control_c, 0, 64, 74
2,118175, Control_c, 0, 64, 61
2,118193, Control_c, 0, 64, 52
2,118211, Note_on_c, 0, 58, 0
2,118211, Note_on_c, 0, 62, 64
2,118213, Control_c, 0, 64, 49
2,118237, Note_on_c, 0, 56, 45
2,118252, Control_c, 0, 64, 52
2,118272, Control_c, 0, 64, 56
2,118288, Control_c, 0, 64, 61
2,118308, Control_c, 0, 64, 64
2,118328, Note_on_c, 0, 56, 0
2,118333, Control_c, 0, 64, 68
2,118346, Control_c, 0, 64, 75
2,118365, Control_c, 0, 64, 90
2,118383, Control_c, 0, 64, 127
2,118504, Note_on_c, 0, 65, 0
2,118596, Control_c, 0, 64, 83
2,118596, Note_on_c, 0, 62, 0
2,118606, Note_on_c, 0, 63, 69
2,118613, Note_on_c, 0, 66, 68
2,118617, Control_c, 0, 64, 66
2,118617, Note_on_c, 0, 54, 50
2,118635, Control_c, 0, 64, 56
2,118652, Control_c, 0, 64, 50
2,118693, Control_c, 0, 64, 52
2,118711, Control_c, 0, 64, 58
2,118728, Control_c, 0, 64, 62
2,118748, Control_c, 0, 64, 65
2,118768, Control_c, 0, 64, 68
2,118789, Control_c, 0, 64, 73
2,118806, Control_c, 0, 64, 81
2,118828, Control_c, 0, 64, 96
2,118844, Control_c, 0, 64, 127
2,119000, Control_c, 0, 64, 109
2,119019, Control_c, 0, 64, 86
2,119019, Note_on_c, 0, 65, 76
2,119019, Note_on_c, 0, 68, 75
2,119029, Note_on_c, 0, 66, 0
2,119030, Note_on_c, 0, 53, 55
2,119041, Control_c, 0, 64, 71
2,119045, Note_on_c, 0, 63, 0
2,119054, Note_on_c, 0, 54, 0
2,119058, Control_c, 0, 64, 63
2,119077, Control_c, 0, 64, 57
2,119096, Control_c, 0, 64, 55
2,119116, Control_c, 0, 64, 54
2,119154, Control_c, 0, 64, 53
2,119171, Control_c, 0, 64, 52
2,119191, Control_c, 0, 64, 50
2,119213, Control_c, 0, 64, 49
2,119229, Control_c, 0, 64, 48
2,119345, Control_c, 0, 64, 47
2,119405, Note_on_c, 0, 53, 0
2,119412, Note_on_c, 0, 68, 0
2,119426, Note_on_c, 0, 66, 76
2,119426, Note_on_c, 0, 70, 69
2,119442, Control_c, 0, 64, 46
2,119455, Note_on_c, 0, 65, 0
2,119464, Control_c, 0, 64, 45
2,119464, Note_on_c, 0, 51, 49
2,119480, Control_c, 0, 64, 44
2,119498, Control_c, 0, 64, 43
2,119520, Control_c, 0, 64, 42
2,119535, Control_c, 0, 64, 41
2,119555, Control_c, 0, 64, 39
2,119575, Control_c, 0, 64, 36
2,119597, Control_c, 0, 64, 34
2,119612, Control_c, 0, 64, 30
2,119635, Control_c, 0, 64, 27
2,119653, Control_c, 0, 64, 23
2,119672, Control_c, 0, 64, 20
2,119729, Control_c, 0, 64, 21
2,119747, Control_c, 0, 64, 27
2,119768, Control_c, 0, 64, 37
2,119787, Control_c, 0, 64, 50
2,119807, Control_c, 0, 64, 61
2,119825, Control_c, 0, 64, 64
2,119840, Note_on_c, 0, 65, 79
2,119844, Control_c, 0, 64, 69
2,119864, Control_c, 0, 64, 79
2,119885, Control_c, 0, 64, 112
2,119889, Note_on_c, 0, 66, 0
2,119902, Control_c, 0, 64, 127
2,119953, Note_on_c, 0, 65, 0
2,119966, Note_on_c, 0, 51, 0
2,119969, Note_on_c, 0, 70, 0
2,120209, Control_c, 0, 64, 98
2,120229, Control_c, 0, 64, 83
2,120246, Control_c, 0, 64, 72
2,120253, Note_on_c, 0, 72, 78
2,120269, Control_c, 0, 64, 64
2,120274, Note_on_c, 0, 63, 58
2,120286, Control_c, 0, 64, 58
2,120286, Note_on_c, 0, 56, 46
2,120306, Control_c, 0, 64, 54
2,120322, Control_c, 0, 64, 51
2,120343, Control_c, 0, 64, 48
2,120362, Control_c, 0, 64, 44
2,120381, Control_c, 0, 64, 38
2,120399, Control_c, 0, 64, 31
2,120423, Control_c, 0, 64, 25
2,120440, Control_c, 0, 64, 21
2,120459, Control_c, 0, 64, 20
2,120477, Control_c, 0, 64, 19
2,120497, Control_c, 0, 64, 17
2,120515, Control_c, 0, 64, 13
2,120538, Control_c, 0, 64, 8
2,120553, Control_c, 0, 64, 0
2,120671, Control_c, 0, 64, 12
2,120676, Note_on_c, 0, 72, 0
2,120680, Note_on_c, 0, 74, 70
2,120689, Control_c, 0, 64, 25
2,120708, Control_c, 0, 64, 39
2,120730, Control_c, 0, 64, 53
2,120749, Control_c, 0, 64, 61
2,120766, Control_c, 0, 64, 64
2,120784, Control_c, 0, 64, 66
2,120807, Control_c, 0, 64, 70
2,120820, Note_on_c, 0, 74, 0
2,120824, Control_c, 0, 64, 78
2,120842, Control_c, 0, 64, 90
2,120860, Control_c, 0, 64, 107
2,120880, Control_c, 0, 64, 127
2,121074, Control_c, 0, 64, 115
2,121092, Control_c, 0, 64, 98
2,121112, Control_c, 0, 64, 87
2,121125, Note_on_c, 0, 75, 61
2,121134, Control_c, 0, 64, 78
2,121134, Note_on_c, 0, 70, 56
2,121151, Control_c, 0, 64, 71
2,121169, Control_c, 0, 64, 65
2,121188, Control_c, 0, 64, 60
2,121206, Control_c, 0, 64, 58
2,121223, Note_on_c, 0, 63, 0
2,121227, Control_c, 0, 64, 57
2,121240, Note_on_c, 0, 56, 0
2,121265, Control_c, 0, 64, 56
2,121285, Control_c, 0, 64, 54
2,121302, Control_c, 0, 64, 53
2,121323, Control_c, 0, 64, 51
2,121341, Control_c, 0, 64, 50
2,121515, Control_c, 0, 64, 51
2,121534, Control_c, 0, 64, 53
2,121542, Note_on_c, 0, 55, 50
2,121557, Control_c, 0, 64, 55
2,121592, Control_c, 0, 64, 56
2,121707, Note_on_c, 0, 55, 0
2,121745, Note_on_c, 0, 53, 47
2,121801, Control_c, 0, 64, 55
2,121841, Control_c, 0, 64, 54
2,121878, Control_c, 0, 64, 52
2,121899, Control_c, 0, 64, 50
2,121922, Control_c, 0, 64, 49
2,121922, Note_on_c, 0, 53, 0
2,121936, Control_c, 0, 64, 47
2,121948, Note_on_c, 0, 63, 56
2,121957, Control_c, 0, 64, 46
2,121975, Control_c, 0, 64, 45
2,121979, Note_on_c, 0, 55, 43
2,121995, Control_c, 0, 64, 43
2,122013, Control_c, 0, 64, 40
2,122033, Control_c, 0, 64, 36
2,122055, Control_c, 0, 64, 33
2,122070, Control_c, 0, 64, 29
2,122090, Control_c, 0, 64, 22
2,122110, Control_c, 0, 64, 8
2,122128, Control_c, 0, 64, 0
2,122340, Control_c, 0, 64, 26
2,122358, Note_on_c, 0, 73, 67
2,122362, Control_c, 0, 64, 46
2,122365, Note_on_c, 0, 75, 0
2,122378, Control_c, 0, 64, 57
2,122397, Control_c, 0, 64, 62
2,122417, Control_c, 0, 64, 64
2,122439, Control_c, 0, 64, 66
2,122439, Note_on_c, 0, 70, 0
2,122455, Control_c, 0, 64, 70
2,122474, Control_c, 0, 64, 79
2,122493, Control_c, 0, 64, 93
2,122515, Control_c, 0, 64, 122
2,122531, Control_c, 0, 64, 127
2,122685, Control_c, 0, 64, 108
2,122705, Control_c, 0, 64, 77
2,122712, Note_on_c, 0, 55, 0
2,122723, Control_c, 0, 64, 63
2,122739, Note_on_c, 0, 73, 0
2,122743, Control_c, 0, 64, 54
2,122758, Note_on_c, 0, 72, 70
2,122762, Control_c, 0, 64, 50
2,122766, Note_on_c, 0, 56, 46
2,122801, Control_c, 0, 64, 51
2,122822, Control_c, 0, 64, 53
2,122839, Control_c, 0, 64, 57
2,122859, Control_c, 0, 64, 61
2,122876, Control_c, 0, 64, 64
2,122896, Control_c, 0, 64, 68
2,122915, Control_c, 0, 64, 75
2,122936, Control_c, 0, 64, 91
2,122954, Control_c, 0, 64, 127
2,123136, Note_on_c, 0, 72, 0
2,123142, Note_on_c, 0, 56, 0
2,123147, Control_c, 0, 64, 93
2,123160, Note_on_c, 0, 74, 70
2,123164, Note_on_c, 0, 65, 63
2,123169, Control_c, 0, 64, 70
2,123169, Note_on_c, 0, 54, 54
2,123185, Control_c, 0, 64, 60
2,123204, Control_c, 0, 64, 51
2,123224, Control_c, 0, 64, 50
2,123242, Control_c, 0, 64, 53
2,123262, Control_c, 0, 64, 57
2,123271, Note_on_c, 0, 63, 0
2,123284, Control_c, 0, 64, 62
2,123300, Control_c, 0, 64, 65
2,123318, Control_c, 0, 64, 69
2,123339, Control_c, 0, 64, 76
2,123358, Control_c, 0, 64, 87
2,123377, Control_c, 0, 64, 109
2,123387, Note_on_c, 0, 65, 0
2,123396, Control_c, 0, 64, 127
2,123567, Control_c, 0, 64, 102
2,123580, Note_on_c, 0, 74, 0
2,123584, Note_on_c, 0, 75, 78
2,123591, Control_c, 0, 64, 82
2,123591, Note_on_c, 0, 53, 53
2,123591, Note_on_c, 0, 66, 71
2,123609, Control_c, 0, 64, 69
2,123622, Note_on_c, 0, 54, 0
2,123627, Control_c, 0, 64, 61
2,123645, Control_c, 0, 64, 55
2,123664, Control_c, 0, 64, 50
2,123685, Control_c, 0, 64, 48
2,123702, Control_c, 0, 64, 46
2,123724, Control_c, 0, 64, 43
2,123741, Control_c, 0, 64, 37
2,123760, Control_c, 0, 64, 31
2,123780, Control_c, 0, 64, 24
2,123800, Control_c, 0, 64, 18
2,123817, Control_c, 0, 64, 14
2,123836, Control_c, 0, 64, 10
2,123858, Control_c, 0, 64, 0
2,123961, Note_on_c, 0, 53, 0
2,123969, Note_on_c, 0, 51, 58
2,124377, Note_on_c, 0, 51, 0
2,124391, Note_on_c, 0, 53, 48
2,124406, Note_on_c, 0, 68, 65
2,124422, Note_on_c, 0, 66, 0
2,124761, Note_on_c, 0, 53, 0
2,124797, Note_on_c, 0, 54, 50
2,125178, Note_on_c, 0, 54, 0
2,125195, Note_on_c, 0, 75, 0
2,125221, Note_on_c, 0, 74, 58
2,125248, Note_on_c, 0, 56, 38
2,125593, Note_on_c, 0, 56, 0
2,125621, Note_on_c, 0, 58, 45
2,125655, Note_on_c, 0, 68, 0
2,125946, Note_on_c, 0, 58, 0
2,125991, Note_on_c, 0, 74, 0
2,126024, Note_on_c, 0, 75, 52
2,126026, Note_on_c, 0, 51, 47
2,126044, Note_on_c, 0, 66, 41
2,126129, Note_on_c, 0, 51, 0
2,126222, Note_on_c, 0, 66, 0
2,126227, Note_on_c, 0, 63, 58
2,126385, Note_on_c, 0, 63, 0
2,126428, Note_on_c, 0, 61, 53
2,126456, Note_on_c, 0, 68, 58
2,126484, Control_c, 0, 64, 23
2,126503, Control_c, 0, 64, 34
2,126521, Control_c, 0, 64, 43
2,126541, Control_c, 0, 64, 50
2,126552, Note_on_c, 0, 68, 0
2,126564, Control_c, 0, 64, 53
2,126581, Control_c, 0, 64, 54
2,126581, Note_on_c, 0, 61, 0
2,126597, Control_c, 0, 64, 53
2,126613, Note_on_c, 0, 59, 54
2,126675, Control_c, 0, 64, 52
2,126716, Control_c, 0, 64, 51
2,126734, Control_c, 0, 64, 50
2,126752, Control_c, 0, 64, 49
2,126772, Control_c, 0, 64, 48
2,126793, Control_c, 0, 64, 46
2,126806, Note_on_c, 0, 75, 0
2,126811, Control_c, 0, 64, 45
2,126815, Note_on_c, 0, 59, 0
2,126832, Control_c, 0, 64, 43
2,126848, Control_c, 0, 64, 42
2,126848, Note_on_c, 0, 74, 51
2,126861, Note_on_c, 0, 70, 39
2,126866, Note_on_c, 0, 58, 48
2,126868, Control_c, 0, 64, 39
2,126887, Control_c, 0, 64, 37
2,126906, Control_c, 0, 64, 34
2,126924, Control_c, 0, 64, 32
2,126945, Control_c, 0, 64, 29
2,126963, Control_c, 0, 64, 27
2,126983, Control_c, 0, 64, 24
2,127003, Control_c, 0, 64, 20
2,127023, Control_c, 0, 64, 16
2,127041, Control_c, 0, 64, 11
2,127060, Control_c, 0, 64, 0
2,127139, Control_c, 0, 64, 10
2,127154, Control_c, 0, 64, 20
2,127174, Control_c, 0, 64, 31
2,127194, Control_c, 0, 64, 41
2,127214, Control_c, 0, 64, 52
2,127232, Control_c, 0, 64, 61
2,127248, Note_on_c, 0, 72, 56
2,127252, Control_c, 0, 64, 63
2,127257, Note_on_c, 0, 75, 62
2,127271, Control_c, 0, 64, 65
2,127293, Control_c, 0, 64, 68
2,127293, Note_on_c, 0, 74, 0
2,127309, Control_c, 0, 64, 74
2,127319, Note_on_c, 0, 70, 0
2,127323, Note_on_c, 0, 72, 0
2,127330, Control_c, 0, 64, 85
2,127349, Control_c, 0, 64, 97
2,127362, Note_on_c, 0, 75, 0
2,127371, Control_c, 0, 64, 127
2,127560, Control_c, 0, 64, 109
2,127578, Control_c, 0, 64, 101
2,127598, Control_c, 0, 64, 96
2,127616, Control_c, 0, 64, 92
2,127635, Control_c, 0, 64, 88
2,127649, Note_on_c, 0, 58, 0
2,127649, Note_on_c, 0, 77, 72
2,127658, Control_c, 0, 64, 78
2,127658, Note_on_c, 0, 74, 61
2,127674, Control_c, 0, 64, 70
2,127694, Control_c, 0, 64, 66
2,127713, Control_c, 0, 64, 63
2,127734, Control_c, 0, 64, 62
2,127750, Control_c, 0, 64, 61
2,127773, Control_c, 0, 64, 59
2,127792, Control_c, 0, 64, 56
2,127810, Control_c, 0, 64, 51
2,127829, Control_c, 0, 64, 45
2,127849, Control_c, 0, 64, 36
2,127866, Control_c, 0, 64, 28
2,127886, Control_c, 0, 64, 21
2,127904, Control_c, 0, 64, 18
2,127942, Control_c, 0, 64, 17
2,127963, Control_c, 0, 64, 16
2,127980, Control_c, 0, 64, 15
2,128002, Control_c, 0, 64, 14
2,128022, Control_c, 0, 64, 13
2,128042, Control_c, 0, 64, 12
2,128053, Note_on_c, 0, 80, 77
2,128059, Control_c, 0, 64, 11
2,128059, Note_on_c, 0, 58, 40
2,128076, Note_on_c, 0, 77, 0
2,128080, Control_c, 0, 64, 8
2,128080, Note_on_c, 0, 54, 36
2,128098, Control_c, 0, 64, 0
2,128106, Note_on_c, 0, 74, 0
2,128429, Note_on_c, 0, 54, 0
2,128429, Note_on_c, 0, 58, 0
2,128481, Note_on_c, 0, 78, 74
2,128486, Note_on_c, 0, 60, 45
2,128490, Note_on_c, 0, 56, 43
2,128511, Note_on_c, 0, 80, 0
2,128805, Note_on_c, 0, 56, 0
2,128809, Note_on_c, 0, 60, 0
2,128865, Control_c, 0, 64, 22
2,128879, Note_on_c, 0, 58, 41
2,128879, Note_on_c, 0, 77, 67
2,128886, Control_c, 0, 64, 38
2,128892, Note_on_c, 0, 78, 0
2,128903, Control_c, 0, 64, 49
2,128903, Note_on_c, 0, 62, 46
2,128922, Control_c, 0, 64, 58
2,128942, Control_c, 0, 64, 62
2,128962, Control_c, 0, 64, 64
2,128978, Control_c, 0, 64, 65
2,128999, Control_c, 0, 64, 68
2,129021, Control_c, 0, 64, 74
2,129025, Note_on_c, 0, 62, 0
2,129039, Control_c, 0, 64, 79
2,129056, Control_c, 0, 64, 85
2,129076, Control_c, 0, 64, 89
2,129094, Control_c, 0, 64, 91
2,129134, Control_c, 0, 64, 90
2,129154, Control_c, 0, 64, 89
2,129173, Control_c, 0, 64, 88
2,129191, Control_c, 0, 64, 87
2,129210, Control_c, 0, 64, 85
2,129219, Note_on_c, 0, 58, 0
2,129228, Control_c, 0, 64, 82
2,129252, Control_c, 0, 64, 79
2,129268, Control_c, 0, 64, 76
2,129290, Control_c, 0, 64, 73
2,129308, Control_c, 0, 64, 68
2,129309, Note_on_c, 0, 77, 0
2,129314, Note_on_c, 0, 59, 41
2,129319, Note_on_c, 0, 63, 41
2,129320, Note_on_c, 0, 75, 59
2,129326, Control_c, 0, 64, 64
2,129345, Control_c, 0, 64, 60
2,129365, Control_c, 0, 64, 57
2,129386, Control_c, 0, 64, 54
2,129403, Control_c, 0, 64, 52
2,129421, Control_c, 0, 64, 49
2,129441, Control_c, 0, 64, 45
2,129461, Control_c, 0, 64, 42
2,129480, Control_c, 0, 64, 38
2,129497, Control_c, 0, 64, 35
2,129517, Control_c, 0, 64, 33
2,129536, Control_c, 0, 64, 32
2,129675, Note_on_c, 0, 59, 0
2,129716, Note_on_c, 0, 73, 67
2,129721, Note_on_c, 0, 58, 48
2,129725, Note_on_c, 0, 75, 0
2,129906, Control_c, 0, 64, 33
2,129961, Control_c, 0, 64, 34
2,129980, Control_c, 0, 64, 35
2,130001, Control_c, 0, 64, 36
2,130020, Control_c, 0, 64, 38
2,130038, Control_c, 0, 64, 42
2,130059, Control_c, 0, 64, 46
2,130077, Control_c, 0, 64, 51
2,130089, Note_on_c, 0, 73, 0
2,130093, Note_on_c, 0, 58, 0
2,130099, Control_c, 0, 64, 55
2,130103, Note_on_c, 0, 56, 48
2,130103, Note_on_c, 0, 71, 65
2,130115, Control_c, 0, 64, 58
2,130134, Control_c, 0, 64, 60
2,130155, Control_c, 0, 64, 61
2,130172, Control_c, 0, 64, 62
2,130196, Control_c, 0, 64, 63
2,130211, Control_c, 0, 64, 64
2,130238, Note_on_c, 0, 63, 0
2,130406, Control_c, 0, 64, 63
2,130423, Control_c, 0, 64, 62
2,130441, Control_c, 0, 64, 59
2,130461, Control_c, 0, 64, 56
2,130480, Control_c, 0, 64, 53
2,130489, Note_on_c, 0, 71, 0
2,130494, Note_on_c, 0, 70, 63
2,130502, Control_c, 0, 64, 52
2,130502, Note_on_c, 0, 65, 62
2,130509, Note_on_c, 0, 56, 0
2,130520, Control_c, 0, 64, 51
2,130538, Control_c, 0, 64, 52
2,130557, Control_c, 0, 64, 54
2,130578, Control_c, 0, 64, 56
2,130596, Control_c, 0, 64, 58
2,130616, Control_c, 0, 64, 59
2,130692, Note_on_c, 0, 71, 75
2,130697, Note_on_c, 0, 70, 0
2,130788, Control_c, 0, 64, 58
2,130827, Control_c, 0, 64, 57
2,130845, Control_c, 0, 64, 55
2,130867, Control_c, 0, 64, 53
2,130883, Control_c, 0, 64, 51
2,130901, Note_on_c, 0, 65, 0
2,130905, Control_c, 0, 64, 49
2,130905, Note_on_c, 0, 71, 0
2,130907, Note_on_c, 0, 70, 69
2,130914, Note_on_c, 0, 66, 56
2,130925, Control_c, 0, 64, 45
2,130935, Note_on_c, 0, 63, 47
2,130941, Control_c, 0, 64, 40
2,130960, Control_c, 0, 64, 33
2,130978, Control_c, 0, 64, 27
2,131000, Control_c, 0, 64, 21
2,131017, Control_c, 0, 64, 18
2,131037, Control_c, 0, 64, 14
2,131058, Control_c, 0, 64, 0
2,131229, Control_c, 0, 64, 16
2,131251, Control_c, 0, 64, 29
2,131270, Control_c, 0, 64, 41
2,131286, Control_c, 0, 64, 51
2,131301, Note_on_c, 0, 70, 0
2,131306, Control_c, 0, 64, 59
2,131317, Note_on_c, 0, 72, 76
2,131326, Control_c, 0, 64, 63
2,131344, Control_c, 0, 64, 64
2,131366, Control_c, 0, 64, 66
2,131382, Control_c, 0, 64, 70
2,131404, Control_c, 0, 64, 77
2,131420, Control_c, 0, 64, 85
2,131440, Control_c, 0, 64, 93
2,131460, Control_c, 0, 64, 98
2,131482, Control_c, 0, 64, 100
2,131496, Note_on_c, 0, 63, 0
2,131527, Note_on_c, 0, 66, 0
2,131575, Control_c, 0, 64, 99
2,131595, Control_c, 0, 64, 97
2,131613, Control_c, 0, 64, 93
2,131632, Control_c, 0, 64, 88
2,131653, Control_c, 0, 64, 83
2,131671, Control_c, 0, 64, 78
2,131689, Control_c, 0, 64, 72
2,131704, Note_on_c, 0, 74, 71
2,131708, Note_on_c, 0, 65, 51
2,131712, Control_c, 0, 64, 67
2,131716, Note_on_c, 0, 72, 0
2,131730, Control_c, 0, 64, 63
2,131734, Note_on_c, 0, 58, 44
2,131750, Control_c, 0, 64, 58
2,131765, Control_c, 0, 64, 53
2,131785, Control_c, 0, 64, 46
2,131808, Control_c, 0, 64, 40
2,131824, Control_c, 0, 64, 36
2,131843, Control_c, 0, 64, 34
2,131881, Control_c, 0, 64, 33
2,132114, Note_on_c, 0, 65, 0
2,132118, Note_on_c, 0, 74, 0
2,132127, Note_on_c, 0, 75, 66
2,132150, Control_c, 0, 64, 32
2,132156, Note_on_c, 0, 63, 43
2,132174, Control_c, 0, 64, 30
2,132189, Control_c, 0, 64, 27
2,132209, Control_c, 0, 64, 25
2,132227, Control_c, 0, 64, 23
2,132247, Control_c, 0, 64, 21
2,132267, Control_c, 0, 64, 19
2,132285, Control_c, 0, 64, 16
2,132303, Control_c, 0, 64, 12
2,132324, Control_c, 0, 64, 0
2,132485, Note_on_c, 0, 75, 0
2,132492, Note_on_c, 0, 63, 0
2,132523, Note_on_c, 0, 77, 64
2,132538, Note_on_c, 0, 62, 43
2,132889, Note_on_c, 0, 58, 0
2,132912, Note_on_c, 0, 62, 0
2,132925, Note_on_c, 0, 77, 0
2,132946, Note_on_c, 0, 70, 51
2,132949, Note_on_c, 0, 63, 42
2,132958, Note_on_c, 0, 60, 38
2,133330, Note_on_c, 0, 60, 0
2,133350, Note_on_c, 0, 70, 0
2,133357, Note_on_c, 0, 82, 52
2,133373, Note_on_c, 0, 65, 40
2,133378, Note_on_c, 0, 63, 0
2,133384, Note_on_c, 0, 62, 34
2,133707, Control_c, 0, 64, 18
2,133724, Control_c, 0, 64, 33
2,133743, Control_c, 0, 64, 45
2,133764, Control_c, 0, 64, 55
2,133770, Note_on_c, 0, 82, 0
2,133786, Control_c, 0, 64, 60
2,133790, Note_on_c, 0, 80, 54
2,133801, Control_c, 0, 64, 62
2,133823, Control_c, 0, 64, 63
2,133835, Note_on_c, 0, 65, 0
2,133841, Control_c, 0, 64, 64
2,133860, Control_c, 0, 64, 66
2,133880, Control_c, 0, 64, 69
2,133897, Control_c, 0, 64, 73
2,133915, Note_on_c, 0, 80, 0
2,133919, Control_c, 0, 64, 76
2,133936, Control_c, 0, 64, 77
2,134069, Control_c, 0, 64, 76
2,134090, Control_c, 0, 64, 74
2,134110, Control_c, 0, 64, 70
2,134128, Control_c, 0, 64, 63
2,134135, Note_on_c, 0, 62, 0
2,134148, Control_c, 0, 64, 57
2,134165, Control_c, 0, 64, 53
2,134189, Control_c, 0, 64, 50
2,134189, Note_on_c, 0, 78, 63
2,134221, Note_on_c, 0, 63, 34
2,134225, Control_c, 0, 64, 51
2,134242, Control_c, 0, 64, 54
2,134261, Control_c, 0, 64, 58
2,134284, Control_c, 0, 64, 61
2,134300, Control_c, 0, 64, 63
2,134319, Control_c, 0, 64, 65
2,134340, Control_c, 0, 64, 67
2,134360, Control_c, 0, 64, 70
2,134377, Control_c, 0, 64, 76
2,134389, Note_on_c, 0, 63, 0
2,134398, Control_c, 0, 64, 85
2,134415, Control_c, 0, 64, 95
2,134435, Control_c, 0, 64, 106
2,134453, Control_c, 0, 64, 112
2,134473, Control_c, 0, 64, 113
2,134480, Note_on_c, 0, 78, 0
2,134597, Note_on_c, 0, 63, 47
2,134597, Note_on_c, 0, 80, 82
2,134604, Note_on_c, 0, 59, 46
2,134705, Control_c, 0, 64, 115
2,134710, Note_on_c, 0, 59, 0
2,134724, Control_c, 0, 64, 116
2,134742, Control_c, 0, 64, 118
2,134767, Note_on_c, 0, 62, 62
2,134785, Note_on_c, 0, 63, 0
2,134878, Control_c, 0, 64, 116
2,134894, Control_c, 0, 64, 111
2,134914, Control_c, 0, 64, 105
2,134934, Control_c, 0, 64, 97
2,134955, Control_c, 0, 64, 85
2,134964, Note_on_c, 0, 62, 0
2,134973, Control_c, 0, 64, 76
2,134989, Note_on_c, 0, 82, 81
2,134993, Control_c, 0, 64, 67
2,135006, Note_on_c, 0, 63, 53
2,135010, Note_on_c, 0, 80, 0
2,135015, Control_c, 0, 64, 62
2,135032, Control_c, 0, 64, 57
2,135032, Note_on_c, 0, 54, 46
2,135052, Control_c, 0, 64, 55
2,135070, Control_c, 0, 64, 53
2,135090, Control_c, 0, 64, 52
2,135107, Control_c, 0, 64, 50
2,135128, Control_c, 0, 64, 48
2,135145, Control_c, 0, 64, 45
2,135164, Control_c, 0, 64, 43
2,135378, Note_on_c, 0, 54, 0
2,135398, Note_on_c, 0, 83, 75
2,135423, Note_on_c, 0, 56, 48
2,135430, Note_on_c, 0, 82, 0
2,135569, Control_c, 0, 64, 42
2,135773, Note_on_c, 0, 56, 0
2,135822, Note_on_c, 0, 77, 77
2,135830, Note_on_c, 0, 58, 43
2,135838, Control_c, 0, 64, 44
2,135843, Note_on_c, 0, 83, 0
2,135859, Control_c, 0, 64, 48
2,135876, Control_c, 0, 64, 54
2,135894, Control_c, 0, 64, 58
2,135913, Control_c, 0, 64, 60
2,135936, Control_c, 0, 64, 61
2,135952, Control_c, 0, 64, 62
2,135974, Control_c, 0, 64, 63
2,135978, Note_on_c, 0, 63, 0
2,135990, Control_c, 0, 64, 64
2,136010, Control_c, 0, 64, 66
2,136030, Control_c, 0, 64, 69
2,136047, Control_c, 0, 64, 72
2,136067, Control_c, 0, 64, 75
2,136088, Control_c, 0, 64, 77
2,136106, Control_c, 0, 64, 78
2,136183, Control_c, 0, 64, 79
2,136249, Note_on_c, 0, 61, 57
2,136299, Control_c, 0, 64, 80
2,136337, Control_c, 0, 64, 81
2,136377, Control_c, 0, 64, 82
2,136425, Note_on_c, 0, 61, 0
2,136567, Control_c, 0, 64, 81
2,136604, Control_c, 0, 64, 78
2,136625, Control_c, 0, 64, 75
2,136644, Control_c, 0, 64, 72
2,136644, Note_on_c, 0, 79, 83
2,136650, Note_on_c, 0, 59, 59
2,136657, Note_on_c, 0, 58, 0
2,136666, Control_c, 0, 64, 67
2,136680, Note_on_c, 0, 51, 39
2,136681, Control_c, 0, 64, 62
2,136700, Control_c, 0, 64, 58
2,136706, Note_on_c, 0, 77, 0
2,136724, Control_c, 0, 64, 55
2,136741, Control_c, 0, 64, 52
2,136760, Control_c, 0, 64, 50
2,136778, Control_c, 0, 64, 48
2,136796, Control_c, 0, 64, 45
2,136816, Control_c, 0, 64, 43
2,136838, Control_c, 0, 64, 41
2,136855, Control_c, 0, 64, 40
2,136970, Control_c, 0, 64, 41
2,136990, Control_c, 0, 64, 44
2,137008, Control_c, 0, 64, 50
2,137026, Control_c, 0, 64, 57
2,137046, Control_c, 0, 64, 61
2,137064, Note_on_c, 0, 58, 69
2,137068, Control_c, 0, 64, 64
2,137069, Note_on_c, 0, 59, 0
2,137084, Control_c, 0, 64, 66
2,137105, Control_c, 0, 64, 72
2,137125, Control_c, 0, 64, 84
2,137143, Control_c, 0, 64, 120
2,137162, Control_c, 0, 64, 127
2,137195, Note_on_c, 0, 51, 0
2,137242, Note_on_c, 0, 58, 0
2,137432, Control_c, 0, 64, 122
2,137451, Control_c, 0, 64, 95
2,137470, Control_c, 0, 64, 80
2,137474, Note_on_c, 0, 80, 81
2,137492, Control_c, 0, 64, 69
2,137492, Note_on_c, 0, 79, 0
2,137501, Note_on_c, 0, 59, 64
2,137508, Control_c, 0, 64, 62
2,137512, Note_on_c, 0, 56, 51
2,137525, Control_c, 0, 64, 58
2,137546, Control_c, 0, 64, 57
2,137565, Control_c, 0, 64, 56
2,137585, Control_c, 0, 64, 55
2,137602, Control_c, 0, 64, 53
2,137625, Control_c, 0, 64, 50
2,137644, Control_c, 0, 64, 47
2,137662, Control_c, 0, 64, 45
2,137682, Control_c, 0, 64, 44
2,137777, Control_c, 0, 64, 43
2,137862, Note_on_c, 0, 59, 0
2,137882, Note_on_c, 0, 56, 0
2,137892, Control_c, 0, 64, 44
2,137892, Note_on_c, 0, 78, 87
2,137897, Note_on_c, 0, 63, 67
2,137910, Control_c, 0, 64, 49
2,137910, Note_on_c, 0, 58, 57
2,137929, Control_c, 0, 64, 56
2,137947, Control_c, 0, 64, 61
2,137963, Note_on_c, 0, 80, 0
2,137968, Control_c, 0, 64, 64
2,137989, Control_c, 0, 64, 68
2,138009, Control_c, 0, 64, 75
2,138027, Control_c, 0, 64, 87
2,138045, Control_c, 0, 64, 127
2,138049, Note_on_c, 0, 58, 0
2,138153, Note_on_c, 0, 78, 0
2,138256, Control_c, 0, 64, 113
2,138274, Control_c, 0, 64, 92
2,138294, Control_c, 0, 64, 79
2,138298, Note_on_c, 0, 63, 0
2,138303, Note_on_c, 0, 77, 73
2,138307, Note_on_c, 0, 68, 62
2,138314, Control_c, 0, 64, 69
2,138323, Note_on_c, 0, 59, 52
2,138332, Control_c, 0, 64, 63
2,138352, Control_c, 0, 64, 58
2,138374, Control_c, 0, 64, 53
2,138389, Control_c, 0, 64, 46
2,138408, Control_c, 0, 64, 36
2,138432, Control_c, 0, 64, 19
2,138449, Control_c, 0, 64, 0
2,138714, Note_on_c, 0, 77, 0
2,138719, Note_on_c, 0, 75, 66
2,139097, Note_on_c, 0, 75, 0
2,139127, Note_on_c, 0, 74, 55
2,139143, Note_on_c, 0, 58, 37
2,139156, Note_on_c, 0, 59, 0
2,139517, Note_on_c, 0, 66, 53
2,139553, Note_on_c, 0, 68, 0
2,139922, Note_on_c, 0, 65, 39
2,139926, Note_on_c, 0, 66, 0
2,139931, Note_on_c, 0, 74, 0
2,139935, Note_on_c, 0, 75, 62
2,140288, Note_on_c, 0, 65, 0
2,140330, Note_on_c, 0, 63, 46
2,140735, Control_c, 0, 64, 20
2,140753, Control_c, 0, 64, 33
2,140755, Note_on_c, 0, 65, 47
2,140761, Note_on_c, 0, 63, 0
2,140772, Control_c, 0, 64, 42
2,140779, Note_on_c, 0, 58, 0
2,140793, Control_c, 0, 64, 49
2,140809, Control_c, 0, 64, 55
2,140830, Control_c, 0, 64, 58
2,140850, Control_c, 0, 64, 59
2,140869, Control_c, 0, 64, 60
2,140889, Control_c, 0, 64, 62
2,140905, Control_c, 0, 64, 63
2,140925, Control_c, 0, 64, 65
2,140942, Control_c, 0, 64, 66
2,140963, Control_c, 0, 64, 68
2,140985, Control_c, 0, 64, 69
2,141001, Control_c, 0, 64, 71
2,141023, Control_c, 0, 64, 72
2,141081, Control_c, 0, 64, 70
2,141101, Control_c, 0, 64, 66
2,141119, Control_c, 0, 64, 60
2,141136, Control_c, 0, 64, 55
2,141141, Note_on_c, 0, 75, 0
2,141152, Note_on_c, 0, 73, 56
2,141175, Control_c, 0, 64, 58
2,141195, Control_c, 0, 64, 61
2,141212, Control_c, 0, 64, 64
2,141232, Control_c, 0, 64, 68
2,141254, Control_c, 0, 64, 76
2,141271, Control_c, 0, 64, 96
2,141289, Control_c, 0, 64, 127
2,141301, Note_on_c, 0, 73, 0
2,141317, Note_on_c, 0, 65, 0
2,141560, Control_c, 0, 64, 96
2,141580, Control_c, 0, 64, 82
2,141587, Note_on_c, 0, 67, 48
2,141596, Note_on_c, 0, 71, 53
2,141598, Control_c, 0, 64, 72
2,141616, Control_c, 0, 64, 64
2,141637, Control_c, 0, 64, 60
2,141653, Control_c, 0, 64, 58
2,141673, Control_c, 0, 64, 57
2,141713, Control_c, 0, 64, 55
2,141730, Control_c, 0, 64, 53
2,141749, Control_c, 0, 64, 50
2,141768, Control_c, 0, 64, 47
2,141792, Control_c, 0, 64, 45
2,141807, Control_c, 0, 64, 43
2,141827, Control_c, 0, 64, 42
2,141845, Control_c, 0, 64, 39
2,141865, Control_c, 0, 64, 37
2,141885, Control_c, 0, 64, 36
2,141943, Note_on_c, 0, 71, 0
2,141948, Control_c, 0, 64, 37
2,141962, Control_c, 0, 64, 42
2,141968, Note_on_c, 0, 70, 55
2,141981, Control_c, 0, 64, 50
2,142000, Control_c, 0, 64, 59
2,142020, Control_c, 0, 64, 65
2,142039, Control_c, 0, 64, 69
2,142057, Control_c, 0, 64, 78
2,142077, Control_c, 0, 64, 93
2,142100, Control_c, 0, 64, 127
2,142100, Note_on_c, 0, 70, 0
2,142157, Note_on_c, 0, 67, 0
2,142347, Control_c, 0, 64, 115
2,142367, Control_c, 0, 64, 93
2,142385, Control_c, 0, 64, 79
2,142403, Control_c, 0, 64, 70
2,142407, Note_on_c, 0, 71, 46
2,142416, Note_on_c, 0, 68, 44
2,142423, Control_c, 0, 64, 65
2,142442, Control_c, 0, 64, 61
2,142461, Control_c, 0, 64, 58
2,142479, Control_c, 0, 64, 57
2,142519, Control_c, 0, 64, 56
2,142539, Control_c, 0, 64, 55
2,142557, Control_c, 0, 64, 53
2,142577, Control_c, 0, 64, 52
2,142594, Control_c, 0, 64, 50
2,142672, Control_c, 0, 64, 49
2,142690, Control_c, 0, 64, 48
2,142710, Control_c, 0, 64, 46
2,142730, Control_c, 0, 64, 45
2,142749, Control_c, 0, 64, 43
2,142762, Note_on_c, 0, 71, 0
2,142767, Control_c, 0, 64, 42
2,142787, Control_c, 0, 64, 41
2,142809, Note_on_c, 0, 66, 46
2,142809, Note_on_c, 0, 68, 0
2,142812, Control_c, 0, 64, 40
2,142812, Note_on_c, 0, 70, 50
2,142825, Control_c, 0, 64, 39
2,143181, Note_on_c, 0, 70, 0
2,143198, Note_on_c, 0, 66, 0
2,143215, Note_on_c, 0, 65, 47
2,143220, Note_on_c, 0, 68, 57
2,143600, Note_on_c, 0, 65, 0
2,143625, Note_on_c, 0, 63, 59
2,143979, Control_c, 0, 64, 40
2,144035, Control_c, 0, 64, 41
2,144040, Note_on_c, 0, 63, 0
2,144056, Control_c, 0, 64, 42
2,144076, Control_c, 0, 64, 44
2,144081, Note_on_c, 0, 62, 57
2,144095, Control_c, 0, 64, 48
2,144099, Note_on_c, 0, 46, 75
2,144113, Control_c, 0, 64, 53
2,144132, Control_c, 0, 64, 56
2,144150, Control_c, 0, 64, 58
2,144170, Control_c, 0, 64, 60
2,144192, Control_c, 0, 64, 62
2,144208, Control_c, 0, 64, 64
2,144228, Control_c, 0, 64, 67
2,144246, Control_c, 0, 64, 72
2,144266, Control_c, 0, 64, 81
2,144284, Control_c, 0, 64, 93
2,144304, Control_c, 0, 64, 113
2,144322, Control_c, 0, 64, 127
2,144451, Note_on_c, 0, 46, 0
2,144502, Note_on_c, 0, 66, 66
2,144507, Note_on_c, 0, 62, 0
2,144587, Note_on_c, 0, 68, 0
2,144687, Note_on_c, 0, 65, 70
2,144701, Note_on_c, 0, 66, 0
2,144878, Control_c, 0, 64, 100
2,144897, Control_c, 0, 64, 85
2,144918, Control_c, 0, 64, 72
2,144927, Note_on_c, 0, 39, 75
2,144927, Note_on_c, 0, 65, 0
2,144931, Note_on_c, 0, 63, 62
2,144936, Note_on_c, 0, 66, 69
2,144940, Control_c, 0, 64, 63
2,144959, Control_c, 0, 64, 56
2,144976, Control_c, 0, 64, 50
2,144994, Control_c, 0, 64, 48
2,145052, Control_c, 0, 64, 47
2,145361, Note_on_c, 0, 68, 76
2,145371, Note_on_c, 0, 63, 0
2,145380, Note_on_c, 0, 65, 65
2,145380, Note_on_c, 0, 66, 0
2,145476, Control_c, 0, 64, 48
2,145732, Note_on_c, 0, 68, 0
2,145739, Note_on_c, 0, 65, 0
2,145743, Note_on_c, 0, 70, 81
2,145754, Note_on_c, 0, 66, 64
2,145802, Control_c, 0, 64, 49
2,145822, Control_c, 0, 64, 52
2,145840, Control_c, 0, 64, 57
2,145860, Control_c, 0, 64, 61
2,145878, Control_c, 0, 64, 64
2,145898, Control_c, 0, 64, 66
2,145917, Control_c, 0, 64, 70
2,145937, Control_c, 0, 64, 78
2,145956, Control_c, 0, 64, 95
2,145974, Control_c, 0, 64, 127
2,146065, Note_on_c, 0, 39, 0
2,146109, Note_on_c, 0, 66, 0
2,146151, Note_on_c, 0, 65, 60
2,146167, Control_c, 0, 64, 85
2,146182, Note_on_c, 0, 38, 66
2,146187, Control_c, 0, 64, 68
2,146206, Control_c, 0, 64, 58
2,146223, Control_c, 0, 64, 51
2,146243, Control_c, 0, 64, 49
2,146263, Control_c, 0, 64, 51
2,146281, Control_c, 0, 64, 55
2,146299, Control_c, 0, 64, 59
2,146319, Control_c, 0, 64, 63
2,146339, Control_c, 0, 64, 66
2,146359, Control_c, 0, 64, 72
2,146378, Control_c, 0, 64, 82
2,146396, Control_c, 0, 64, 98
2,146405, Note_on_c, 0, 38, 0
2,146415, Control_c, 0, 64, 127
2,146473, Note_on_c, 0, 65, 0
2,146478, Note_on_c, 0, 70, 0
2,146575, Note_on_c, 0, 63, 82
2,146579, Note_on_c, 0, 39, 66
2,146588, Control_c, 0, 64, 97
2,146597, Note_on_c, 0, 66, 67
2,146608, Control_c, 0, 64, 79
2,146625, Control_c, 0, 64, 67
2,146645, Control_c, 0, 64, 59
2,146666, Control_c, 0, 64, 55
2,146684, Control_c, 0, 64, 54
2,146781, Control_c, 0, 64, 53
2,146959, Note_on_c, 0, 39, 0
2,146963, Note_on_c, 0, 41, 65
2,146974, Control_c, 0, 64, 54
2,146979, Note_on_c, 0, 68, 69
2,146987, Note_on_c, 0, 66, 0
2,147012, Control_c, 0, 64, 55
2,147029, Control_c, 0, 64, 57
2,147051, Control_c, 0, 64, 59
2,147068, Control_c, 0, 64, 60
2,147088, Control_c, 0, 64, 61
2,147108, Control_c, 0, 64, 62
2,147147, Control_c, 0, 64, 63
2,147165, Control_c, 0, 64, 64
2,147203, Control_c, 0, 64, 65
2,147242, Control_c, 0, 64, 64
2,147280, Control_c, 0, 64, 63
2,147299, Control_c, 0, 64, 61
2,147319, Control_c, 0, 64, 58
2,147337, Control_c, 0, 64, 54
2,147357, Control_c, 0, 64, 51
2,147362, Note_on_c, 0, 41, 0
2,147366, Note_on_c, 0, 68, 0
2,147373, Note_on_c, 0, 42, 65
2,147380, Control_c, 0, 64, 49
2,147380, Note_on_c, 0, 70, 65
2,147395, Control_c, 0, 64, 48
2,147432, Control_c, 0, 64, 51
2,147453, Control_c, 0, 64, 56
2,147473, Control_c, 0, 64, 61
2,147491, Control_c, 0, 64, 63
2,147511, Control_c, 0, 64, 66
2,147528, Control_c, 0, 64, 69
2,147547, Control_c, 0, 64, 74
2,147569, Control_c, 0, 64, 82
2,147587, Control_c, 0, 64, 93
2,147609, Control_c, 0, 64, 120
2,147609, Note_on_c, 0, 70, 0
2,147627, Control_c, 0, 64, 127
2,147627, Note_on_c, 0, 63, 0
2,147744, Control_c, 0, 64, 109
2,147759, Control_c, 0, 64, 85
2,147764, Note_on_c, 0, 42, 0
2,147782, Control_c, 0, 64, 69
2,147786, Note_on_c, 0, 41, 68
2,147797, Control_c, 0, 64, 59
2,147802, Note_on_c, 0, 62, 72
2,147810, Note_on_c, 0, 68, 67
2,147820, Control_c, 0, 64, 53
2,147855, Control_c, 0, 64, 56
2,147874, Control_c, 0, 64, 59
2,147894, Control_c, 0, 64, 62
2,147913, Control_c, 0, 64, 64
2,147934, Control_c, 0, 64, 67
2,147951, Control_c, 0, 64, 71
2,147973, Control_c, 0, 64, 77
2,147990, Control_c, 0, 64, 88
2,148011, Control_c, 0, 64, 109
2,148030, Control_c, 0, 64, 127
2,148034, Note_on_c, 0, 62, 0
2,148089, Note_on_c, 0, 68, 0
2,148126, Control_c, 0, 64, 107
2,148142, Control_c, 0, 64, 84
2,148151, Note_on_c, 0, 41, 0
2,148164, Control_c, 0, 64, 66
2,148178, Note_on_c, 0, 39, 66
2,148183, Control_c, 0, 64, 57
2,148192, Note_on_c, 0, 66, 73
2,148196, Note_on_c, 0, 63, 71
2,148201, Control_c, 0, 64, 52
2,148220, Control_c, 0, 64, 53
2,148239, Control_c, 0, 64, 57
2,148259, Control_c, 0, 64, 61
2,148278, Control_c, 0, 64, 64
2,148298, Control_c, 0, 64, 68
2,148317, Control_c, 0, 64, 72
2,148339, Control_c, 0, 64, 77
2,148354, Control_c, 0, 64, 81
2,148373, Control_c, 0, 64, 88
2,148373, Note_on_c, 0, 63, 0
2,148396, Control_c, 0, 64, 95
2,148411, Control_c, 0, 64, 100
2,148434, Control_c, 0, 64, 101
2,148558, Note_on_c, 0, 66, 0
2,148578, Note_on_c, 0, 65, 62
2,148585, Control_c, 0, 64, 102
2,148624, Control_c, 0, 64, 104
2,148642, Control_c, 0, 64, 108
2,148664, Control_c, 0, 64, 118
2,148682, Control_c, 0, 64, 127
2,148706, Note_on_c, 0, 65, 0
2,148754, Note_on_c, 0, 63, 72
2,148836, Note_on_c, 0, 63, 0
2,148950, Control_c, 0, 64, 95
2,148973, Control_c, 0, 64, 78
2,148984, Note_on_c, 0, 66, 75
2,148991, Control_c, 0, 64, 65
2,148998, Note_on_c, 0, 62, 66
2,149007, Control_c, 0, 64, 59
2,149012, Note_on_c, 0, 46, 69
2,149014, Note_on_c, 0, 39, 0
2,149027, Control_c, 0, 64, 55
2,149046, Control_c, 0, 64, 54
2,149103, Control_c, 0, 64, 53
2,149123, Control_c, 0, 64, 51
2,149143, Control_c, 0, 64, 50
2,149238, Control_c, 0, 64, 51
2,149275, Control_c, 0, 64, 52
2,149295, Control_c, 0, 64, 54
2,149315, Control_c, 0, 64, 55
2,149334, Control_c, 0, 64, 57
2,149356, Control_c, 0, 64, 59
2,149372, Control_c, 0, 64, 60
2,149393, Control_c, 0, 64, 62
2,149411, Control_c, 0, 64, 65
2,149427, Note_on_c, 0, 68, 71
2,149431, Control_c, 0, 64, 69
2,149433, Note_on_c, 0, 65, 70
2,149440, Note_on_c, 0, 62, 0
2,149451, Control_c, 0, 64, 80
2,149451, Note_on_c, 0, 66, 0
2,149468, Control_c, 0, 64, 120
2,149488, Control_c, 0, 64, 127
2,149738, Note_on_c, 0, 46, 0
2,149776, Control_c, 0, 64, 111
2,149794, Control_c, 0, 64, 84
2,149799, Note_on_c, 0, 65, 0
2,149807, Note_on_c, 0, 39, 68
2,149811, Note_on_c, 0, 63, 65
2,149816, Control_c, 0, 64, 67
2,149835, Control_c, 0, 64, 60
2,149854, Control_c, 0, 64, 56
2,149873, Control_c, 0, 64, 55
2,149930, Control_c, 0, 64, 54
2,149948, Control_c, 0, 64, 53
2,149988, Control_c, 0, 64, 52
2,150064, Control_c, 0, 64, 53
2,150179, Control_c, 0, 64, 54
2,150199, Control_c, 0, 64, 55
2,150217, Control_c, 0, 64, 59
2,150233, Note_on_c, 0, 66, 76
2,150237, Control_c, 0, 64, 62
2,150256, Control_c, 0, 64, 65
2,150275, Control_c, 0, 64, 69
2,150282, Note_on_c, 0, 68, 0
2,150284, Note_on_c, 0, 63, 0
2,150296, Control_c, 0, 64, 76
2,150314, Control_c, 0, 64, 87
2,150332, Control_c, 0, 64, 109
2,150352, Control_c, 0, 64, 127
2,150413, Note_on_c, 0, 65, 79
2,150440, Note_on_c, 0, 66, 0
2,150581, Control_c, 0, 64, 111
2,150602, Control_c, 0, 64, 83
2,150622, Control_c, 0, 64, 67
2,150626, Note_on_c, 0, 70, 73
2,150639, Note_on_c, 0, 67, 73
2,150644, Control_c, 0, 64, 57
2,150644, Note_on_c, 0, 65, 0
2,150662, Control_c, 0, 64, 53
2,150697, Control_c, 0, 64, 54
2,150720, Control_c, 0, 64, 57
2,150735, Control_c, 0, 64, 60
2,150755, Control_c, 0, 64, 63
2,150773, Control_c, 0, 64, 67
2,150793, Control_c, 0, 64, 74
2,150813, Control_c, 0, 64, 88
2,150830, Control_c, 0, 64, 127
2,150880, Note_on_c, 0, 70, 0
2,150956, Note_on_c, 0, 39, 0
2,151005, Control_c, 0, 64, 122
2,151026, Control_c, 0, 64, 83
2,151026, Note_on_c, 0, 41, 75
2,151033, Note_on_c, 0, 68, 83
2,151043, Control_c, 0, 64, 66
2,151063, Control_c, 0, 64, 58
2,151063, Note_on_c, 0, 67, 0
2,151081, Control_c, 0, 64, 57
2,151101, Control_c, 0, 64, 59
2,151121, Control_c, 0, 64, 62
2,151138, Control_c, 0, 64, 65
2,151158, Control_c, 0, 64, 71
2,151179, Control_c, 0, 64, 81
2,151197, Control_c, 0, 64, 100
2,151217, Control_c, 0, 64, 127
2,151221, Note_on_c, 0, 41, 0
2,151243, Note_on_c, 0, 68, 0
2,151408, Control_c, 0, 64, 100
2,151425, Control_c, 0, 64, 80
2,151442, Note_on_c, 0, 70, 68
2,151446, Control_c, 0, 64, 67
2,151457, Note_on_c, 0, 43, 66
2,151457, Note_on_c, 0, 63, 71
2,151466, Control_c, 0, 64, 57
2,151485, Control_c, 0, 64, 52
2,151504, Control_c, 0, 64, 50
2,151523, Control_c, 0, 64, 49
2,151638, Control_c, 0, 64, 51
2,151660, Control_c, 0, 64, 54
2,151676, Control_c, 0, 64, 57
2,151696, Control_c, 0, 64, 60
2,151717, Control_c, 0, 64, 61
2,151733, Control_c, 0, 64, 63
2,151754, Control_c, 0, 64, 64
2,151771, Control_c, 0, 64, 67
2,151793, Control_c, 0, 64, 72
2,151811, Control_c, 0, 64, 80
2,151830, Control_c, 0, 64, 95
2,151843, Note_on_c, 0, 61, 66
2,151851, Control_c, 0, 64, 127
2,151863, Note_on_c, 0, 63, 0
2,151962, Note_on_c, 0, 61, 0
2,151991, Note_on_c, 0, 70, 0
2,152175, Control_c, 0, 64, 100
2,152195, Control_c, 0, 64, 79
2,152210, Note_on_c, 0, 43, 0
2,152213, Control_c, 0, 64, 65
2,152233, Control_c, 0, 64, 56
2,152244, Note_on_c, 0, 44, 57
2,152244, Note_on_c, 0, 63, 66
2,152249, Note_on_c, 0, 59, 63
2,152253, Control_c, 0, 64, 51
2,152273, Control_c, 0, 64, 50
2,152309, Control_c, 0, 64, 53
2,152329, Control_c, 0, 64, 57
2,152349, Control_c, 0, 64, 60
2,152367, Control_c, 0, 64, 63
2,152387, Control_c, 0, 64, 65
2,152394, Note_on_c, 0, 59, 0
2,152409, Control_c, 0, 64, 67
2,152426, Control_c, 0, 64, 74
2,152444, Control_c, 0, 64, 83
2,152464, Control_c, 0, 64, 97
2,152484, Control_c, 0, 64, 127
2,152561, Control_c, 0, 64, 99
2,152579, Control_c, 0, 64, 79
2,152601, Control_c, 0, 64, 66
2,152601, Note_on_c, 0, 63, 0
2,152617, Control_c, 0, 64, 58
2,152636, Control_c, 0, 64, 54
2,152654, Control_c, 0, 64, 55
2,152654, Note_on_c, 0, 65, 55
2,152670, Note_on_c, 0, 61, 47
2,152674, Control_c, 0, 64, 57
2,152695, Control_c, 0, 64, 61
2,152712, Control_c, 0, 64, 64
2,152732, Control_c, 0, 64, 68
2,152750, Control_c, 0, 64, 72
2,152773, Control_c, 0, 64, 78
2,152793, Control_c, 0, 64, 85
2,152810, Control_c, 0, 64, 96
2,152830, Control_c, 0, 64, 122
2,152849, Control_c, 0, 64, 127
2,152863, Note_on_c, 0, 61, 0
2,152984, Control_c, 0, 64, 100
2,152989, Note_on_c, 0, 65, 0
2,153001, Control_c, 0, 64, 85
2,153021, Control_c, 0, 64, 72
2,153040, Control_c, 0, 64, 64
2,153058, Control_c, 0, 64, 58
2,153062, Note_on_c, 0, 44, 0
2,153067, Note_on_c, 0, 63, 54
2,153069, Note_on_c, 0, 67, 58
2,153080, Control_c, 0, 64, 55
2,153084, Note_on_c, 0, 46, 42
2,153096, Control_c, 0, 64, 53
2,153117, Control_c, 0, 64, 50
2,153137, Control_c, 0, 64, 48
2,153155, Control_c, 0, 64, 45
2,153174, Control_c, 0, 64, 42
2,153232, Control_c, 0, 64, 43
2,153252, Control_c, 0, 64, 46
2,153271, Control_c, 0, 64, 51
2,153289, Control_c, 0, 64, 55
2,153307, Control_c, 0, 64, 59
2,153327, Control_c, 0, 64, 61
2,153350, Control_c, 0, 64, 62
2,153364, Control_c, 0, 64, 64
2,153384, Control_c, 0, 64, 65
2,153403, Control_c, 0, 64, 69
2,153424, Control_c, 0, 64, 74
2,153442, Control_c, 0, 64, 83
2,153446, Note_on_c, 0, 67, 0
2,153462, Control_c, 0, 64, 98
2,153481, Control_c, 0, 64, 127
2,153488, Note_on_c, 0, 63, 0
2,153505, Note_on_c, 0, 64, 54
2,153558, Note_on_c, 0, 46, 0
2,153608, Note_on_c, 0, 64, 0
2,153791, Control_c, 0, 64, 116
2,153808, Control_c, 0, 64, 102
2,153826, Control_c, 0, 64, 94
2,153845, Control_c, 0, 64, 86
2,153865, Control_c, 0, 64, 78
2,153884, Control_c, 0, 64, 69
2,153888, Note_on_c, 0, 68, 54
2,153895, Note_on_c, 0, 63, 49
2,153900, Note_on_c, 0, 47, 39
2,153907, Control_c, 0, 64, 63
2,153923, Control_c, 0, 64, 59
2,153942, Control_c, 0, 64, 56
2,153959, Control_c, 0, 64, 54
2,153983, Control_c, 0, 64, 53
2,154001, Control_c, 0, 64, 51
2,154019, Control_c, 0, 64, 49
2,154037, Control_c, 0, 64, 46
2,154056, Control_c, 0, 64, 45
2,154079, Control_c, 0, 64, 44
2,154175, Control_c, 0, 64, 45
2,154192, Control_c, 0, 64, 46
2,154210, Control_c, 0, 64, 51
2,154230, Control_c, 0, 64, 56
2,154249, Control_c, 0, 64, 60
2,154269, Control_c, 0, 64, 61
2,154280, Note_on_c, 0, 47, 0
2,154283, Note_on_c, 0, 63, 0
2,154288, Control_c, 0, 64, 62
2,154310, Note_on_c, 0, 49, 45
2,154325, Note_on_c, 0, 68, 0
2,154402, Control_c, 0, 64, 61
2,154422, Control_c, 0, 64, 60
2,154440, Control_c, 0, 64, 58
2,154460, Control_c, 0, 64, 57
2,154479, Control_c, 0, 64, 56
2,154497, Control_c, 0, 64, 54
2,154518, Control_c, 0, 64, 53
2,154538, Control_c, 0, 64, 52
2,154557, Control_c, 0, 64, 51
2,154576, Control_c, 0, 64, 49
2,154596, Control_c, 0, 64, 47
2,154614, Control_c, 0, 64, 45
2,154636, Control_c, 0, 64, 42
2,154655, Control_c, 0, 64, 39
2,154673, Control_c, 0, 64, 35
2,154691, Control_c, 0, 64, 30
2,154700, Note_on_c, 0, 49, 0
2,154700, Note_on_c, 0, 80, 69
2,154706, Note_on_c, 0, 56, 32
2,154711, Control_c, 0, 64, 25
2,154715, Note_on_c, 0, 47, 37
2,154731, Control_c, 0, 64, 19
2,154749, Control_c, 0, 64, 15
2,154767, Control_c, 0, 64, 13
2,154844, Control_c, 0, 64, 15
2,154862, Control_c, 0, 64, 20
2,154883, Control_c, 0, 64, 28
2,154901, Control_c, 0, 64, 40
2,154921, Control_c, 0, 64, 50
2,154941, Control_c, 0, 64, 57
2,154959, Control_c, 0, 64, 60
2,154979, Control_c, 0, 64, 62
2,155000, Control_c, 0, 64, 63
2,155018, Control_c, 0, 64, 65
2,155035, Control_c, 0, 64, 68
2,155046, Note_on_c, 0, 47, 0
2,155055, Control_c, 0, 64, 73
2,155075, Control_c, 0, 64, 80
2,155084, Note_on_c, 0, 46, 45
2,155095, Control_c, 0, 64, 90
2,155113, Control_c, 0, 64, 102
2,155133, Control_c, 0, 64, 113
2,155151, Control_c, 0, 64, 127
2,155225, Note_on_c, 0, 46, 0
2,155342, Control_c, 0, 64, 120
2,155362, Control_c, 0, 64, 115
2,155382, Control_c, 0, 64, 111
2,155401, Control_c, 0, 64, 106
2,155423, Control_c, 0, 64, 101
2,155440, Control_c, 0, 64, 95
2,155462, Control_c, 0, 64, 85
2,155473, Note_on_c, 0, 80, 0
2,155477, Control_c, 0, 64, 75
2,155497, Control_c, 0, 64, 65
2,155519, Control_c, 0, 64, 57
2,155519, Note_on_c, 0, 75, 63
2,155540, Control_c, 0, 64, 51
2,155540, Note_on_c, 0, 44, 46
2,155556, Control_c, 0, 64, 49
2,155593, Control_c, 0, 64, 50
2,155612, Control_c, 0, 64, 52
2,155630, Control_c, 0, 64, 56
2,155643, Note_on_c, 0, 56, 0
2,155652, Control_c, 0, 64, 60
2,155669, Control_c, 0, 64, 63
2,155691, Control_c, 0, 64, 66
2,155706, Control_c, 0, 64, 69
2,155728, Control_c, 0, 64, 75
2,155746, Control_c, 0, 64, 81
2,155766, Control_c, 0, 64, 88
2,155786, Control_c, 0, 64, 93
2,155805, Control_c, 0, 64, 96
2,155827, Control_c, 0, 64, 97
2,155842, Control_c, 0, 64, 96
2,155864, Control_c, 0, 64, 87
2,155882, Control_c, 0, 64, 74
2,155900, Control_c, 0, 64, 65
2,155920, Note_on_c, 0, 44, 0
2,155925, Control_c, 0, 64, 60
2,155940, Control_c, 0, 64, 61
2,155944, Note_on_c, 0, 55, 48
2,155954, Note_on_c, 0, 46, 39
2,155959, Control_c, 0, 64, 63
2,155977, Control_c, 0, 64, 66
2,155995, Control_c, 0, 64, 71
2,156015, Control_c, 0, 64, 83
2,156037, Control_c, 0, 64, 101
2,156055, Control_c, 0, 64, 127
2,156055, Note_on_c, 0, 55, 0
2,156096, Note_on_c, 0, 46, 0
2,156246, Control_c, 0, 64, 116
2,156267, Control_c, 0, 64, 84
2,156287, Control_c, 0, 64, 66
2,156302, Control_c, 0, 64, 59
2,156323, Control_c, 0, 64, 58
2,156332, Note_on_c, 0, 56, 52
2,156337, Note_on_c, 0, 47, 43
2,156347, Control_c, 0, 64, 60
2,156360, Control_c, 0, 64, 63
2,156380, Control_c, 0, 64, 66
2,156401, Control_c, 0, 64, 70
2,156418, Control_c, 0, 64, 78
2,156437, Control_c, 0, 64, 86
2,156457, Control_c, 0, 64, 94
2,156475, Control_c, 0, 64, 102
2,156493, Note_on_c, 0, 56, 0
2,156497, Control_c, 0, 64, 113
2,156514, Control_c, 0, 64, 127
2,156669, Control_c, 0, 64, 104
2,156689, Control_c, 0, 64, 75
2,156704, Note_on_c, 0, 47, 0
2,156708, Control_c, 0, 64, 63
2,156713, Note_on_c, 0, 73, 76
2,156726, Control_c, 0, 64, 55
2,156748, Note_on_c, 0, 51, 49
2,156752, Note_on_c, 0, 58, 51
2,156765, Control_c, 0, 64, 58
2,156782, Control_c, 0, 64, 62
2,156793, Note_on_c, 0, 75, 0
2,156802, Control_c, 0, 64, 66
2,156822, Control_c, 0, 64, 72
2,156845, Control_c, 0, 64, 85
2,156859, Control_c, 0, 64, 102
2,156878, Control_c, 0, 64, 127
2,156895, Note_on_c, 0, 51, 0
2,156955, Note_on_c, 0, 58, 0
2,157110, Control_c, 0, 64, 105
2,157130, Control_c, 0, 64, 89
2,157136, Note_on_c, 0, 75, 81
2,157140, Note_on_c, 0, 59, 55
2,157149, Control_c, 0, 64, 75
2,157168, Control_c, 0, 64, 65
2,157173, Note_on_c, 0, 56, 46
2,157178, Note_on_c, 0, 73, 0
2,157186, Control_c, 0, 64, 58
2,157206, Control_c, 0, 64, 54
2,157224, Control_c, 0, 64, 53
2,157264, Control_c, 0, 64, 52
2,157282, Control_c, 0, 64, 50
2,157300, Control_c, 0, 64, 49
2,157455, Control_c, 0, 64, 50
2,157476, Control_c, 0, 64, 53
2,157496, Control_c, 0, 64, 59
2,157515, Control_c, 0, 64, 63
2,157532, Control_c, 0, 64, 66
2,157541, Note_on_c, 0, 56, 0
2,157553, Control_c, 0, 64, 71
2,157558, Note_on_c, 0, 58, 66
2,157558, Note_on_c, 0, 59, 0
2,157571, Control_c, 0, 64, 80
2,157593, Control_c, 0, 64, 97
2,157608, Control_c, 0, 64, 127
2,157654, Note_on_c, 0, 58, 0
2,157916, Control_c, 0, 64, 104
2,157937, Control_c, 0, 64, 83
2,157941, Note_on_c, 0, 56, 68
2,157948, Note_on_c, 0, 47, 57
2,157955, Control_c, 0, 64, 71
2,157973, Control_c, 0, 64, 64
2,157995, Control_c, 0, 64, 59
2,158013, Control_c, 0, 64, 56
2,158033, Control_c, 0, 64, 55
2,158071, Control_c, 0, 64, 54
2,158090, Control_c, 0, 64, 53
2,158109, Control_c, 0, 64, 52
2,158128, Control_c, 0, 64, 51
2,158147, Control_c, 0, 64, 50
2,158184, Control_c, 0, 64, 49
2,158279, Control_c, 0, 64, 51
2,158301, Control_c, 0, 64, 55
2,158321, Control_c, 0, 64, 60
2,158332, Note_on_c, 0, 47, 0
2,158338, Control_c, 0, 64, 64
2,158342, Note_on_c, 0, 77, 85
2,158354, Note_on_c, 0, 49, 57
2,158358, Note_on_c, 0, 75, 0
2,158362, Control_c, 0, 64, 69
2,158378, Control_c, 0, 64, 79
2,158396, Control_c, 0, 64, 101
2,158414, Control_c, 0, 64, 127
2,158416, Note_on_c, 0, 49, 0
2,158421, Note_on_c, 0, 56, 0
2,158438, Note_on_c, 0, 77, 0
2,158684, Control_c, 0, 64, 120
2,158702, Control_c, 0, 64, 86
2,158722, Control_c, 0, 64, 68
2,158744, Control_c, 0, 64, 58
2,158757, Note_on_c, 0, 78, 88
2,158761, Control_c, 0, 64, 46
2,158765, Note_on_c, 0, 63, 62
2,158781, Control_c, 0, 64, 42
2,158781, Note_on_c, 0, 51, 53
2,158819, Control_c, 0, 64, 45
2,158839, Control_c, 0, 64, 53
2,158858, Control_c, 0, 64, 60
2,158876, Control_c, 0, 64, 64
2,158896, Control_c, 0, 64, 67
2,158916, Control_c, 0, 64, 73
2,158934, Control_c, 0, 64, 81
2,158954, Control_c, 0, 64, 94
2,158972, Control_c, 0, 64, 113
2,158993, Control_c, 0, 64, 127
2,158993, Note_on_c, 0, 51, 0
2,159008, Note_on_c, 0, 63, 0
2,159162, Note_on_c, 0, 50, 51
2,159232, Note_on_c, 0, 50, 0
2,159510, Control_c, 0, 64, 116
2,159530, Control_c, 0, 64, 101
2,159549, Control_c, 0, 64, 89
2,159567, Control_c, 0, 64, 78
2,159567, Note_on_c, 0, 58, 63
2,159587, Control_c, 0, 64, 68
2,159587, Note_on_c, 0, 51, 51
2,159607, Control_c, 0, 64, 61
2,159625, Control_c, 0, 64, 55
2,159644, Control_c, 0, 64, 52
2,159662, Control_c, 0, 64, 50
2,159683, Control_c, 0, 64, 48
2,159705, Control_c, 0, 64, 44
2,159724, Control_c, 0, 64, 39
2,159740, Control_c, 0, 64, 33
2,159760, Control_c, 0, 64, 29
2,159778, Control_c, 0, 64, 27
2,159798, Control_c, 0, 64, 26
2,159816, Control_c, 0, 64, 24
2,159837, Control_c, 0, 64, 18
2,159856, Control_c, 0, 64, 0
2,159917, Note_on_c, 0, 51, 0
2,159957, Note_on_c, 0, 77, 75
2,159970, Note_on_c, 0, 78, 0
2,159981, Note_on_c, 0, 53, 47
2,160300, Note_on_c, 0, 53, 0
2,160316, Note_on_c, 0, 77, 0
2,160321, Control_c, 0, 64, 8
2,160335, Control_c, 0, 64, 33
2,160354, Control_c, 0, 64, 48
2,160363, Note_on_c, 0, 54, 45
2,160363, Note_on_c, 0, 75, 66
2,160374, Control_c, 0, 64, 58
2,160392, Control_c, 0, 64, 62
2,160413, Control_c, 0, 64, 65
2,160431, Control_c, 0, 64, 68
2,160449, Control_c, 0, 64, 75
2,160469, Control_c, 0, 64, 89
2,160491, Control_c, 0, 64, 127
2,160499, Note_on_c, 0, 54, 0
2,160719, Control_c, 0, 64, 113
2,160740, Control_c, 0, 64, 81
2,160759, Control_c, 0, 64, 65
2,160766, Note_on_c, 0, 59, 65
2,160777, Control_c, 0, 64, 54
2,160793, Note_on_c, 0, 58, 0
2,160798, Control_c, 0, 64, 49
2,160805, Note_on_c, 0, 56, 49
2,160834, Control_c, 0, 64, 53
2,160854, Control_c, 0, 64, 58
2,160871, Control_c, 0, 64, 62
2,160893, Control_c, 0, 64, 65
2,160911, Control_c, 0, 64, 68
2,160931, Control_c, 0, 64, 75
2,160949, Control_c, 0, 64, 84
2,160969, Control_c, 0, 64, 100
2,160987, Control_c, 0, 64, 116
2,161006, Control_c, 0, 64, 127
2,161103, Control_c, 0, 64, 118
2,161123, Control_c, 0, 64, 106
2,161140, Control_c, 0, 64, 96
2,161140, Note_on_c, 0, 56, 0
2,161160, Control_c, 0, 64, 85
2,161160, Note_on_c, 0, 82, 84
2,161173, Note_on_c, 0, 59, 0
2,161177, Control_c, 0, 64, 75
2,161177, Note_on_c, 0, 61, 50
2,161182, Note_on_c, 0, 53, 46
2,161199, Control_c, 0, 64, 67
2,161199, Note_on_c, 0, 75, 0
2,161218, Control_c, 0, 64, 61
2,161233, Control_c, 0, 64, 56
2,161253, Control_c, 0, 64, 54
2,161273, Control_c, 0, 64, 53
2,161294, Control_c, 0, 64, 51
2,161310, Control_c, 0, 64, 50
2,161330, Control_c, 0, 64, 47
2,161349, Control_c, 0, 64, 42
2,161369, Control_c, 0, 64, 37
2,161387, Control_c, 0, 64, 34
2,161408, Control_c, 0, 64, 32
2,161448, Control_c, 0, 64, 31
2,161505, Control_c, 0, 64, 32
2,161522, Control_c, 0, 64, 35
2,161543, Control_c, 0, 64, 41
2,161561, Control_c, 0, 64, 49
2,161565, Note_on_c, 0, 53, 0
2,161581, Control_c, 0, 64, 56
2,161598, Control_c, 0, 64, 61
2,161621, Control_c, 0, 64, 62
2,161639, Control_c, 0, 64, 64
2,161643, Note_on_c, 0, 55, 33
2,161657, Control_c, 0, 64, 66
2,161675, Control_c, 0, 64, 69
2,161695, Control_c, 0, 64, 75
2,161715, Control_c, 0, 64, 83
2,161733, Control_c, 0, 64, 92
2,161753, Control_c, 0, 64, 99
2,161771, Control_c, 0, 64, 102
2,161848, Control_c, 0, 64, 101
2,161870, Control_c, 0, 64, 99
2,161888, Control_c, 0, 64, 96
2,161907, Control_c, 0, 64, 91
2,161928, Control_c, 0, 64, 82
2,161945, Control_c, 0, 64, 75
2,161947, Note_on_c, 0, 75, 74
2,161962, Note_on_c, 0, 55, 0
2,161965, Control_c, 0, 64, 68
2,161970, Note_on_c, 0, 82, 0
2,161983, Control_c, 0, 64, 62
2,161983, Note_on_c, 0, 56, 46
2,162004, Control_c, 0, 64, 58
2,162022, Control_c, 0, 64, 57
2,162042, Control_c, 0, 64, 55
2,162061, Control_c, 0, 64, 54
2,162080, Control_c, 0, 64, 52
2,162098, Control_c, 0, 64, 51
2,162118, Control_c, 0, 64, 49
2,162136, Control_c, 0, 64, 47
2,162156, Control_c, 0, 64, 46
2,162232, Control_c, 0, 64, 45
2,162252, Control_c, 0, 64, 44
2,162271, Control_c, 0, 64, 43
2,162308, Control_c, 0, 64, 42
2,162353, Note_on_c, 0, 56, 0
2,162370, Note_on_c, 0, 73, 51
2,162384, Note_on_c, 0, 58, 51
2,162522, Control_c, 0, 64, 43
2,162559, Control_c, 0, 64, 44
2,162578, Control_c, 0, 64, 45
2,162598, Control_c, 0, 64, 47
2,162618, Control_c, 0, 64, 50
2,162636, Control_c, 0, 64, 53
2,162655, Control_c, 0, 64, 56
2,162676, Control_c, 0, 64, 58
2,162692, Control_c, 0, 64, 60
2,162713, Control_c, 0, 64, 62
2,162731, Control_c, 0, 64, 64
2,162739, Note_on_c, 0, 73, 0
2,162753, Control_c, 0, 64, 67
2,162753, Note_on_c, 0, 75, 0
2,162757, Note_on_c, 0, 71, 69
2,162761, Note_on_c, 0, 56, 57
2,162768, Note_on_c, 0, 58, 0
2,162773, Control_c, 0, 64, 71
2,162773, Note_on_c, 0, 61, 0
2,162791, Control_c, 0, 64, 78
2,162812, Control_c, 0, 64, 88
2,162830, Control_c, 0, 64, 100
2,162847, Control_c, 0, 64, 120
2,162867, Control_c, 0, 64, 127
2,162934, Note_on_c, 0, 71, 0
2,163091, Note_on_c, 0, 56, 0
2,163097, Control_c, 0, 64, 112
2,163117, Control_c, 0, 64, 83
2,163137, Control_c, 0, 64, 67
2,163148, Note_on_c, 0, 75, 74
2,163155, Control_c, 0, 64, 56
2,163159, Note_on_c, 0, 54, 53
2,163159, Note_on_c, 0, 70, 69
2,163176, Control_c, 0, 64, 51
2,163213, Control_c, 0, 64, 52
2,163232, Control_c, 0, 64, 55
2,163251, Control_c, 0, 64, 59
2,163269, Control_c, 0, 64, 63
2,163290, Control_c, 0, 64, 67
2,163310, Control_c, 0, 64, 75
2,163330, Control_c, 0, 64, 97
2,163347, Control_c, 0, 64, 127
2,163347, Note_on_c, 0, 70, 0
2,163398, Note_on_c, 0, 54, 0
2,163411, Note_on_c, 0, 75, 0
2,163552, Note_on_c, 0, 53, 51
2,163559, Control_c, 0, 64, 81
2,163563, Note_on_c, 0, 74, 80
2,163570, Note_on_c, 0, 68, 72
2,163576, Control_c, 0, 64, 64
2,163598, Control_c, 0, 64, 55
2,163614, Control_c, 0, 64, 53
2,163634, Control_c, 0, 64, 54
2,163654, Control_c, 0, 64, 56
2,163674, Control_c, 0, 64, 60
2,163692, Control_c, 0, 64, 63
2,163711, Control_c, 0, 64, 66
2,163730, Control_c, 0, 64, 71
2,163750, Control_c, 0, 64, 79
2,163762, Note_on_c, 0, 68, 0
2,163769, Control_c, 0, 64, 94
2,163788, Control_c, 0, 64, 127
2,163813, Note_on_c, 0, 74, 0
2,163940, Note_on_c, 0, 53, 0
2,163944, Control_c, 0, 64, 93
2,163960, Control_c, 0, 64, 70
2,163969, Note_on_c, 0, 75, 80
2,163976, Note_on_c, 0, 51, 56
2,163976, Note_on_c, 0, 66, 73
2,163980, Control_c, 0, 64, 57
2,163998, Control_c, 0, 64, 51
2,164018, Control_c, 0, 64, 50
2,164040, Control_c, 0, 64, 52
2,164057, Control_c, 0, 64, 56
2,164079, Control_c, 0, 64, 60
2,164099, Control_c, 0, 64, 63
2,164114, Control_c, 0, 64, 66
2,164134, Control_c, 0, 64, 70
2,164152, Control_c, 0, 64, 77
2,164173, Control_c, 0, 64, 88
2,164178, Note_on_c, 0, 66, 0
2,164193, Control_c, 0, 64, 104
2,164213, Control_c, 0, 64, 127
2,164213, Note_on_c, 0, 51, 0
2,164238, Note_on_c, 0, 75, 0
2,164286, Control_c, 0, 64, 113
2,164306, Control_c, 0, 64, 103
2,164326, Control_c, 0, 64, 88
2,164349, Control_c, 0, 64, 73
2,164364, Control_c, 0, 64, 62
2,164383, Control_c, 0, 64, 52
2,164383, Note_on_c, 0, 77, 80
2,164389, Note_on_c, 0, 68, 69
2,164397, Note_on_c, 0, 50, 50
2,164404, Control_c, 0, 64, 47
2,164423, Control_c, 0, 64, 46
2,164441, Control_c, 0, 64, 47
2,164459, Control_c, 0, 64, 50
2,164479, Control_c, 0, 64, 56
2,164499, Control_c, 0, 64, 61
2,164518, Control_c, 0, 64, 63
2,164537, Control_c, 0, 64, 66
2,164559, Control_c, 0, 64, 70
2,164570, Note_on_c, 0, 68, 0
2,164575, Control_c, 0, 64, 78
2,164595, Control_c, 0, 64, 93
2,164604, Note_on_c, 0, 77, 0
2,164618, Control_c, 0, 64, 127
2,164618, Note_on_c, 0, 50, 0
2,164749, Control_c, 0, 64, 85
2,164768, Control_c, 0, 64, 67
2,164786, Control_c, 0, 64, 56
2,164793, Note_on_c, 0, 59, 62
2,164798, Note_on_c, 0, 65, 74
2,164798, Note_on_c, 0, 74, 76
2,164805, Control_c, 0, 64, 48
2,164844, Control_c, 0, 64, 52
2,164866, Control_c, 0, 64, 57
2,164881, Control_c, 0, 64, 62
2,164902, Control_c, 0, 64, 65
2,164921, Control_c, 0, 64, 68
2,164940, Control_c, 0, 64, 73
2,164962, Control_c, 0, 64, 80
2,164962, Note_on_c, 0, 65, 0
2,164962, Note_on_c, 0, 74, 0
2,164981, Control_c, 0, 64, 92
2,164998, Control_c, 0, 64, 127
2,165025, Note_on_c, 0, 59, 0
2,165153, Control_c, 0, 64, 83
2,165171, Control_c, 0, 64, 65
2,165191, Control_c, 0, 64, 54
2,165206, Note_on_c, 0, 75, 76
2,165210, Control_c, 0, 64, 50
2,165214, Note_on_c, 0, 66, 75
2,165218, Note_on_c, 0, 58, 76
2,165230, Control_c, 0, 64, 51
2,165247, Control_c, 0, 64, 56
2,165266, Control_c, 0, 64, 61
2,165285, Control_c, 0, 64, 65
2,165306, Control_c, 0, 64, 70
2,165322, Control_c, 0, 64, 82
2,165343, Control_c, 0, 64, 115
2,165354, Note_on_c, 0, 66, 0
2,165363, Control_c, 0, 64, 127
2,165374, Note_on_c, 0, 75, 0
2,165574, Control_c, 0, 64, 118
2,165592, Control_c, 0, 64, 77
2,165601, Note_on_c, 0, 77, 85
2,165608, Note_on_c, 0, 68, 80
2,165616, Control_c, 0, 64, 61
2,165616, Note_on_c, 0, 56, 73
2,165632, Control_c, 0, 64, 48
2,165639, Note_on_c, 0, 58, 0
2,165651, Control_c, 0, 64, 46
2,165669, Control_c, 0, 64, 49
2,165688, Control_c, 0, 64, 55
2,165709, Control_c, 0, 64, 62
2,165727, Control_c, 0, 64, 66
2,165745, Control_c, 0, 64, 73
2,165765, Control_c, 0, 64, 86
2,165770, Note_on_c, 0, 68, 0
2,165778, Note_on_c, 0, 77, 0
2,165785, Control_c, 0, 64, 127
2,166013, Note_on_c, 0, 78, 90
2,166015, Control_c, 0, 64, 89
2,166019, Note_on_c, 0, 54, 77
2,166021, Note_on_c, 0, 70, 82
2,166035, Control_c, 0, 64, 68
2,166054, Control_c, 0, 64, 57
2,166077, Control_c, 0, 64, 52
2,166077, Note_on_c, 0, 56, 0
2,166109, Control_c, 0, 64, 56
2,166129, Control_c, 0, 64, 60
2,166150, Control_c, 0, 64, 64
2,166169, Control_c, 0, 64, 68
2,166186, Control_c, 0, 64, 75
2,166208, Control_c, 0, 64, 85
2,166226, Control_c, 0, 64, 101
2,166245, Control_c, 0, 64, 127
2,166368, Note_on_c, 0, 70, 0
2,166455, Note_on_c, 0, 53, 79
2,166455, Note_on_c, 0, 68, 89
2,166455, Note_on_c, 0, 80, 82
2,166457, Control_c, 0, 64, 104
2,166475, Control_c, 0, 64, 87
2,166498, Control_c, 0, 64, 77
2,166511, Note_on_c, 0, 78, 0
2,166516, Control_c, 0, 64, 70
2,166525, Note_on_c, 0, 54, 0
2,166534, Control_c, 0, 64, 67
2,166551, Control_c, 0, 64, 66
2,166572, Control_c, 0, 64, 65
2,166612, Control_c, 0, 64, 64
2,166630, Control_c, 0, 64, 63
2,166649, Control_c, 0, 64, 62
2,166667, Control_c, 0, 64, 61
2,166688, Control_c, 0, 64, 60
2,166706, Control_c, 0, 64, 58
2,166726, Control_c, 0, 64, 55
2,166746, Control_c, 0, 64, 50
2,166766, Control_c, 0, 64, 47
2,166766, Note_on_c, 0, 80, 0
2,166782, Control_c, 0, 64, 45
2,166822, Control_c, 0, 64, 46
2,166841, Control_c, 0, 64, 50
2,166851, Note_on_c, 0, 51, 76
2,166853, Note_on_c, 0, 82, 81
2,166862, Control_c, 0, 64, 59
2,166880, Control_c, 0, 64, 67
2,166880, Note_on_c, 0, 53, 0
2,166900, Control_c, 0, 64, 79
2,166918, Control_c, 0, 64, 127
2,166933, Note_on_c, 0, 82, 0
2,166960, Note_on_c, 0, 51, 0
2,167001, Note_on_c, 0, 68, 0
2,167257, Note_on_c, 0, 49, 79
2,167268, Note_on_c, 0, 66, 80
2,167270, Note_on_c, 0, 70, 77
2,167385, Note_on_c, 0, 66, 0
2,167408, Note_on_c, 0, 70, 0
2,167435, Note_on_c, 0, 65, 80
2,167538, Note_on_c, 0, 65, 0
2,167668, Control_c, 0, 64, 82
2,167672, Note_on_c, 0, 47, 87
2,167672, Note_on_c, 0, 75, 92
2,167677, Note_on_c, 0, 66, 88
2,167686, Control_c, 0, 64, 64
2,167699, Note_on_c, 0, 49, 0
2,167706, Control_c, 0, 64, 47
2,167724, Control_c, 0, 64, 29
2,167744, Control_c, 0, 64, 11
2,167780, Control_c, 0, 64, 23
2,167800, Control_c, 0, 64, 37
2,167820, Control_c, 0, 64, 51
2,167839, Control_c, 0, 64, 62
2,167856, Control_c, 0, 64, 65
2,167878, Control_c, 0, 64, 67
2,167899, Control_c, 0, 64, 70
2,167915, Control_c, 0, 64, 77
2,167935, Control_c, 0, 64, 89
2,167940, Note_on_c, 0, 66, 0
2,167953, Control_c, 0, 64, 107
2,167975, Control_c, 0, 64, 127
2,168019, Note_on_c, 0, 75, 0
2,168121, Note_on_c, 0, 68, 100
2,168121, Note_on_c, 0, 77, 92
2,168208, Note_on_c, 0, 47, 0
2,168251, Note_on_c, 0, 77, 0
2,168310, Note_on_c, 0, 68, 0
2,168614, Note_on_c, 0, 46, 87
2,168614, Note_on_c, 0, 70, 89
2,168614, Note_on_c, 0, 74, 88
2,168645, Control_c, 0, 64, 97
2,168665, Control_c, 0, 64, 70
2,168684, Control_c, 0, 64, 57
2,168702, Control_c, 0, 64, 40
2,168723, Control_c, 0, 64, 0
2,168838, Control_c, 0, 64, 27
2,168858, Control_c, 0, 64, 43
2,168878, Control_c, 0, 64, 56
2,168895, Control_c, 0, 64, 63
2,168914, Control_c, 0, 64, 67
2,168934, Control_c, 0, 64, 74
2,168954, Control_c, 0, 64, 86
2,168972, Control_c, 0, 64, 111
2,168992, Control_c, 0, 64, 127
2,169070, Note_on_c, 0, 74, 0
2,169160, Note_on_c, 0, 46, 0
2,169189, Note_on_c, 0, 70, 0
2,169615, Note_on_c, 0, 51, 91
2,169622, Note_on_c, 0, 58, 93
2,169682, Control_c, 0, 64, 118
2,169703, Control_c, 0, 64, 80
2,169721, Control_c, 0, 64, 64
2,169739, Control_c, 0, 64, 55
2,169760, Control_c, 0, 64, 46
2,169778, Control_c, 0, 64, 41
2,169798, Control_c, 0, 64, 36
2,169815, Control_c, 0, 64, 32
2,169835, Control_c, 0, 64, 28
2,169894, Control_c, 0, 64, 35
2,169912, Control_c, 0, 64, 49
2,169932, Control_c, 0, 64, 60
2,169951, Control_c, 0, 64, 64
2,169969, Control_c, 0, 64, 68
2,169990, Control_c, 0, 64, 75
2,170010, Control_c, 0, 64, 88
2,170027, Control_c, 0, 64, 127
2,170146, Note_on_c, 0, 58, 0
2,170470, Note_on_c, 0, 63, 89
2,170475, Note_on_c, 0, 70, 80
2,170488, Control_c, 0, 64, 104
2,170506, Control_c, 0, 64, 83
2,170526, Control_c, 0, 64, 69
2,170546, Control_c, 0, 64, 61
2,170564, Control_c, 0, 64, 55
2,170588, Control_c, 0, 64, 53
2,170604, Control_c, 0, 64, 51
2,170624, Control_c, 0, 64, 49
2,170642, Control_c, 0, 64, 47
2,170663, Control_c, 0, 64, 45
2,170682, Control_c, 0, 64, 44
2,170738, Control_c, 0, 64, 45
2,170758, Control_c, 0, 64, 47
2,170779, Control_c, 0, 64, 48
2,170797, Control_c, 0, 64, 50
2,170817, Control_c, 0, 64, 53
2,170834, Control_c, 0, 64, 57
2,170855, Control_c, 0, 64, 61
2,170873, Control_c, 0, 64, 63
2,170873, Note_on_c, 0, 52, 88
2,170884, Note_on_c, 0, 63, 0
2,170894, Control_c, 0, 64, 66
2,170894, Note_on_c, 0, 70, 0
2,170912, Control_c, 0, 64, 68
2,170912, Note_on_c, 0, 51, 0
2,170929, Control_c, 0, 64, 72
2,170950, Control_c, 0, 64, 78
2,170971, Control_c, 0, 64, 88
2,170987, Control_c, 0, 64, 104
2,171007, Control_c, 0, 64, 127
2,171275, Control_c, 0, 64, 83
2,171283, Note_on_c, 0, 75, 93
2,171288, Note_on_c, 0, 51, 85
2,171294, Control_c, 0, 64, 66
2,171315, Control_c, 0, 64, 56
2,171320, Note_on_c, 0, 52, 0
2,171334, Control_c, 0, 64, 51
2,171352, Control_c, 0, 64, 50
2,171371, Control_c, 0, 64, 51
2,171392, Control_c, 0, 64, 53
2,171409, Control_c, 0, 64, 56
2,171428, Control_c, 0, 64, 60
2,171447, Control_c, 0, 64, 62
2,171468, Control_c, 0, 64, 64
2,171488, Control_c, 0, 64, 67
2,171508, Control_c, 0, 64, 70
2,171527, Control_c, 0, 64, 76
2,171549, Control_c, 0, 64, 83
2,171564, Control_c, 0, 64, 94
2,171582, Control_c, 0, 64, 105
2,171603, Control_c, 0, 64, 113
2,171621, Control_c, 0, 64, 110
2,171641, Control_c, 0, 64, 91
2,171660, Control_c, 0, 64, 72
2,171683, Control_c, 0, 64, 59
2,171683, Note_on_c, 0, 64, 91
2,171687, Note_on_c, 0, 49, 74
2,171698, Control_c, 0, 64, 48
2,171718, Control_c, 0, 64, 47
2,171737, Control_c, 0, 64, 49
2,171739, Note_on_c, 0, 51, 0
2,171758, Control_c, 0, 64, 55
2,171776, Control_c, 0, 64, 62
2,171794, Control_c, 0, 64, 68
2,171812, Control_c, 0, 64, 80
2,171832, Control_c, 0, 64, 127
2,171902, Note_on_c, 0, 64, 0
2,171987, Control_c, 0, 64, 79
2,172005, Control_c, 0, 64, 61
2,172025, Control_c, 0, 64, 47
2,172045, Control_c, 0, 64, 41
2,172063, Control_c, 0, 64, 44
2,172071, Note_on_c, 0, 47, 70
2,172078, Note_on_c, 0, 49, 0
2,172078, Note_on_c, 0, 63, 87
2,172083, Control_c, 0, 64, 53
2,172101, Control_c, 0, 64, 63
2,172121, Control_c, 0, 64, 70
2,172142, Control_c, 0, 64, 91
2,172158, Control_c, 0, 64, 127
2,172185, Note_on_c, 0, 47, 0
2,172207, Note_on_c, 0, 75, 0
2,172227, Note_on_c, 0, 63, 0
2,172470, Note_on_c, 0, 76, 97
2,172477, Note_on_c, 0, 61, 74
2,172486, Note_on_c, 0, 49, 70
2,172491, Control_c, 0, 64, 89
2,172503, Control_c, 0, 64, 66
2,172526, Control_c, 0, 64, 53
2,172543, Control_c, 0, 64, 52
2,172563, Control_c, 0, 64, 56
2,172580, Control_c, 0, 64, 62
2,172599, Control_c, 0, 64, 67
2,172619, Control_c, 0, 64, 76
2,172640, Control_c, 0, 64, 94
2,172657, Control_c, 0, 64, 127
2,172747, Note_on_c, 0, 61, 0
2,172855, Note_on_c, 0, 49, 0
2,172870, Control_c, 0, 64, 106
2,172889, Control_c, 0, 64, 76
2,172889, Note_on_c, 0, 75, 93
2,172901, Note_on_c, 0, 59, 63
2,172908, Control_c, 0, 64, 61
2,172912, Note_on_c, 0, 51, 53
2,172930, Control_c, 0, 64, 48
2,172930, Note_on_c, 0, 76, 0
2,172947, Control_c, 0, 64, 40
2,172966, Control_c, 0, 64, 39
2,172986, Control_c, 0, 64, 42
2,173007, Control_c, 0, 64, 50
2,173024, Control_c, 0, 64, 58
2,173041, Control_c, 0, 64, 63
2,173063, Control_c, 0, 64, 65
2,173083, Control_c, 0, 64, 67
2,173091, Note_on_c, 0, 59, 0
2,173100, Control_c, 0, 64, 70
2,173119, Control_c, 0, 64, 73
2,173140, Control_c, 0, 64, 78
2,173160, Control_c, 0, 64, 82
2,173176, Control_c, 0, 64, 85
2,173273, Control_c, 0, 64, 87
2,173284, Note_on_c, 0, 73, 94
2,173289, Note_on_c, 0, 61, 70
2,173294, Control_c, 0, 64, 88
2,173310, Control_c, 0, 64, 92
2,173333, Control_c, 0, 64, 96
2,173333, Note_on_c, 0, 75, 0
2,173352, Control_c, 0, 64, 101
2,173352, Note_on_c, 0, 61, 0
2,173370, Control_c, 0, 64, 104
2,173378, Note_on_c, 0, 73, 0
2,173383, Note_on_c, 0, 51, 0
2,173387, Control_c, 0, 64, 107
2,173408, Control_c, 0, 64, 116
2,173426, Control_c, 0, 64, 127
2,173692, Note_on_c, 0, 71, 87
2,173696, Control_c, 0, 64, 111
2,173709, Note_on_c, 0, 63, 70
2,173716, Control_c, 0, 64, 85
2,173720, Note_on_c, 0, 44, 60
2,173734, Control_c, 0, 64, 70
2,173752, Control_c, 0, 64, 59
2,173772, Control_c, 0, 64, 52
2,173790, Control_c, 0, 64, 49
2,173810, Control_c, 0, 64, 48
2,173830, Control_c, 0, 64, 47
2,173848, Control_c, 0, 64, 46
2,173867, Control_c, 0, 64, 44
2,173887, Control_c, 0, 64, 43
2,173925, Control_c, 0, 64, 44
2,173944, Control_c, 0, 64, 45
2,173964, Control_c, 0, 64, 46
2,174021, Control_c, 0, 64, 47
2,174036, Note_on_c, 0, 71, 0
2,174040, Control_c, 0, 64, 50
2,174063, Control_c, 0, 64, 54
2,174080, Control_c, 0, 64, 60
2,174089, Note_on_c, 0, 46, 66
2,174093, Note_on_c, 0, 73, 88
2,174098, Control_c, 0, 64, 63
2,174098, Note_on_c, 0, 44, 0
2,174118, Control_c, 0, 64, 67
2,174136, Control_c, 0, 64, 74
2,174156, Control_c, 0, 64, 88
2,174174, Control_c, 0, 64, 127
2,174214, Note_on_c, 0, 46, 0
2,174407, Note_on_c, 0, 47, 58
2,174486, Note_on_c, 0, 56, 72
2,174497, Note_on_c, 0, 75, 88
2,174521, Control_c, 0, 64, 84
2,174541, Control_c, 0, 64, 67
2,174549, Note_on_c, 0, 73, 0
2,174559, Control_c, 0, 64, 55
2,174580, Control_c, 0, 64, 46
2,174598, Control_c, 0, 64, 44
2,174636, Control_c, 0, 64, 43
2,174693, Control_c, 0, 64, 44
2,174712, Control_c, 0, 64, 46
2,174731, Control_c, 0, 64, 48
2,174752, Control_c, 0, 64, 50
2,174770, Control_c, 0, 64, 51
2,174790, Control_c, 0, 64, 52
2,174809, Control_c, 0, 64, 55
2,174828, Control_c, 0, 64, 59
2,174846, Control_c, 0, 64, 63
2,174865, Control_c, 0, 64, 68
2,174872, Note_on_c, 0, 54, 85
2,174887, Control_c, 0, 64, 77
2,174905, Control_c, 0, 64, 101
2,174914, Note_on_c, 0, 56, 0
2,174922, Control_c, 0, 64, 127
2,174945, Note_on_c, 0, 63, 0
2,174988, Note_on_c, 0, 47, 0
2,174994, Note_on_c, 0, 54, 0
2,175103, Note_on_c, 0, 75, 0
2,175292, Control_c, 0, 64, 80
2,175305, Note_on_c, 0, 68, 89
2,175310, Control_c, 0, 64, 62
2,175310, Note_on_c, 0, 49, 76
2,175321, Note_on_c, 0, 53, 69
2,175331, Control_c, 0, 64, 49
2,175349, Control_c, 0, 64, 41
2,175368, Control_c, 0, 64, 39
2,175408, Control_c, 0, 64, 41
2,175428, Control_c, 0, 64, 49
2,175446, Control_c, 0, 64, 58
2,175464, Control_c, 0, 64, 63
2,175484, Control_c, 0, 64, 67
2,175502, Control_c, 0, 64, 72
2,175521, Control_c, 0, 64, 82
2,175542, Control_c, 0, 64, 99
2,175562, Control_c, 0, 64, 127
2,175608, Note_on_c, 0, 53, 0
2,175677, Note_on_c, 0, 49, 0
2,175738, Note_on_c, 0, 70, 84
2,175782, Note_on_c, 0, 68, 0
2,175911, Note_on_c, 0, 71, 84
2,175942, Note_on_c, 0, 70, 0
2,175987, Note_on_c, 0, 71, 0
2,176097, Control_c, 0, 64, 115
2,176119, Control_c, 0, 64, 83
2,176124, Note_on_c, 0, 70, 86
2,176130, Note_on_c, 0, 61, 76
2,176136, Control_c, 0, 64, 66
2,176140, Note_on_c, 0, 42, 64
2,176155, Control_c, 0, 64, 55
2,176175, Control_c, 0, 64, 45
2,176195, Control_c, 0, 64, 38
2,176215, Control_c, 0, 64, 35
2,176272, Control_c, 0, 64, 36
2,176292, Control_c, 0, 64, 40
2,176310, Control_c, 0, 64, 48
2,176328, Control_c, 0, 64, 56
2,176347, Control_c, 0, 64, 60
2,176365, Control_c, 0, 64, 61
2,176443, Control_c, 0, 64, 62
2,176482, Control_c, 0, 64, 61
2,176502, Control_c, 0, 64, 59
2,176519, Control_c, 0, 64, 54
2,176541, Control_c, 0, 64, 50
2,176548, Note_on_c, 0, 71, 75
2,176562, Control_c, 0, 64, 47
2,176578, Control_c, 0, 64, 45
2,176605, Note_on_c, 0, 70, 0
2,176615, Control_c, 0, 64, 47
2,176635, Control_c, 0, 64, 51
2,176658, Control_c, 0, 64, 58
2,176675, Control_c, 0, 64, 62
2,176695, Control_c, 0, 64, 64
2,176712, Control_c, 0, 64, 67
2,176732, Control_c, 0, 64, 71
2,176741, Note_on_c, 0, 71, 0
2,176751, Control_c, 0, 64, 78
2,176773, Control_c, 0, 64, 88
2,176790, Control_c, 0, 64, 106
2,176808, Control_c, 0, 64, 127
2,176846, Control_c, 0, 64, 104
2,176866, Control_c, 0, 64, 85
2,176884, Control_c, 0, 64, 70
2,176904, Control_c, 0, 64, 62
2,176923, Control_c, 0, 64, 56
2,176949, Note_on_c, 0, 73, 78
2,176956, Note_on_c, 0, 54, 56
2,176965, Control_c, 0, 64, 57
2,176980, Control_c, 0, 64, 58
2,177001, Control_c, 0, 64, 60
2,177020, Control_c, 0, 64, 62
2,177040, Control_c, 0, 64, 65
2,177058, Control_c, 0, 64, 71
2,177076, Control_c, 0, 64, 83
2,177095, Control_c, 0, 64, 109
2,177116, Control_c, 0, 64, 127
2,177249, Note_on_c, 0, 42, 0
2,177259, Note_on_c, 0, 54, 0
2,177308, Control_c, 0, 64, 93
2,177326, Control_c, 0, 64, 70
2,177346, Control_c, 0, 64, 58
2,177362, Note_on_c, 0, 41, 73
2,177366, Control_c, 0, 64, 52
2,177384, Control_c, 0, 64, 53
2,177399, Control_c, 0, 64, 56
2,177419, Control_c, 0, 64, 60
2,177439, Control_c, 0, 64, 64
2,177457, Control_c, 0, 64, 67
2,177479, Control_c, 0, 64, 75
2,177499, Control_c, 0, 64, 88
2,177516, Control_c, 0, 64, 127
2,177557, Note_on_c, 0, 41, 0
2,177745, Control_c, 0, 64, 88
2,177758, Note_on_c, 0, 66, 77
2,177768, Control_c, 0, 64, 67
2,177770, Note_on_c, 0, 42, 63
2,177777, Note_on_c, 0, 61, 0
2,177781, Note_on_c, 0, 73, 0
2,177785, Control_c, 0, 64, 54
2,177803, Control_c, 0, 64, 44
2,177823, Control_c, 0, 64, 43
2,177841, Control_c, 0, 64, 47
2,177860, Control_c, 0, 64, 54
2,177880, Control_c, 0, 64, 61
2,177898, Control_c, 0, 64, 64
2,177917, Control_c, 0, 64, 66
2,177938, Control_c, 0, 64, 68
2,177958, Control_c, 0, 64, 71
2,177976, Control_c, 0, 64, 77
2,177986, Note_on_c, 0, 42, 0
2,177996, Control_c, 0, 64, 87
2,178016, Control_c, 0, 64, 106
2,178034, Control_c, 0, 64, 127
2,178093, Control_c, 0, 64, 112
2,178112, Control_c, 0, 64, 95
2,178133, Control_c, 0, 64, 76
2,178150, Control_c, 0, 64, 63
2,178157, Note_on_c, 0, 53, 65
2,178168, Note_on_c, 0, 44, 69
2,178172, Control_c, 0, 64, 51
2,178188, Control_c, 0, 64, 47
2,178207, Control_c, 0, 64, 49
2,178225, Control_c, 0, 64, 55
2,178249, Control_c, 0, 64, 60
2,178264, Control_c, 0, 64, 64
2,178283, Control_c, 0, 64, 67
2,178303, Control_c, 0, 64, 72
2,178321, Control_c, 0, 64, 79
2,178340, Control_c, 0, 64, 88
2,178348, Note_on_c, 0, 53, 0
2,178360, Control_c, 0, 64, 106
2,178382, Control_c, 0, 64, 127
2,178533, Control_c, 0, 64, 101
2,178551, Control_c, 0, 64, 75
2,178575, Control_c, 0, 64, 60
2,178577, Note_on_c, 0, 44, 0
2,178584, Note_on_c, 0, 54, 68
2,178590, Control_c, 0, 64, 51
2,178600, Note_on_c, 0, 46, 63
2,178610, Control_c, 0, 64, 49
2,178648, Control_c, 0, 64, 51
2,178667, Control_c, 0, 64, 55
2,178687, Control_c, 0, 64, 59
2,178706, Control_c, 0, 64, 63
2,178724, Control_c, 0, 64, 65
2,178746, Control_c, 0, 64, 69
2,178764, Control_c, 0, 64, 76
2,178781, Control_c, 0, 64, 86
2,178802, Control_c, 0, 64, 106
2,178821, Control_c, 0, 64, 127
2,178955, Control_c, 0, 64, 94
2,178977, Control_c, 0, 64, 71
2,178981, Note_on_c, 0, 46, 0
2,178981, Note_on_c, 0, 66, 0
2,178988, Note_on_c, 0, 54, 0
2,178988, Note_on_c, 0, 65, 69
2,178992, Note_on_c, 0, 44, 61
2,178992, Note_on_c, 0, 56, 72
2,178994, Control_c, 0, 64, 56
2,179014, Control_c, 0, 64, 47
2,179033, Control_c, 0, 64, 46
2,179053, Control_c, 0, 64, 47
2,179070, Control_c, 0, 64, 51
2,179090, Control_c, 0, 64, 57
2,179109, Control_c, 0, 64, 61
2,179129, Control_c, 0, 64, 64
2,179147, Control_c, 0, 64, 67
2,179166, Control_c, 0, 64, 73
2,179185, Control_c, 0, 64, 86
2,179192, Note_on_c, 0, 56, 0
2,179206, Control_c, 0, 64, 127
2,179282, Note_on_c, 0, 65, 0
2,179384, Note_on_c, 0, 66, 84
2,179391, Note_on_c, 0, 58, 73
2,179398, Control_c, 0, 64, 78
2,179407, Note_on_c, 0, 42, 73
2,179416, Control_c, 0, 64, 62
2,179436, Control_c, 0, 64, 51
2,179447, Note_on_c, 0, 44, 0
2,179454, Control_c, 0, 64, 47
2,179493, Control_c, 0, 64, 51
2,179513, Control_c, 0, 64, 57
2,179532, Control_c, 0, 64, 62
2,179552, Control_c, 0, 64, 66
2,179570, Control_c, 0, 64, 72
2,179589, Control_c, 0, 64, 83
2,179610, Control_c, 0, 64, 118
2,179619, Note_on_c, 0, 58, 0
2,179628, Control_c, 0, 64, 127
2,179733, Note_on_c, 0, 66, 0
2,179744, Control_c, 0, 64, 109
2,179764, Control_c, 0, 64, 75
2,179781, Control_c, 0, 64, 60
2,179801, Note_on_c, 0, 68, 87
2,179805, Control_c, 0, 64, 47
2,179805, Note_on_c, 0, 56, 81
2,179820, Control_c, 0, 64, 45
2,179824, Note_on_c, 0, 52, 73
2,179829, Note_on_c, 0, 42, 0
2,179840, Control_c, 0, 64, 50
2,179856, Control_c, 0, 64, 58
2,179876, Control_c, 0, 64, 64
2,179897, Control_c, 0, 64, 71
2,179904, Note_on_c, 0, 56, 0
2,179916, Control_c, 0, 64, 85
2,179927, Note_on_c, 0, 52, 0
2,179935, Control_c, 0, 64, 127
2,179964, Note_on_c, 0, 68, 0
2,180167, Control_c, 0, 64, 93
2,180184, Control_c, 0, 64, 78
2,180205, Control_c, 0, 64, 67
2,180214, Note_on_c, 0, 70, 80
2,180218, Note_on_c, 0, 54, 62
2,180221, Note_on_c, 0, 51, 59
2,180222, Control_c, 0, 64, 61
2,180242, Control_c, 0, 64, 56
2,180262, Control_c, 0, 64, 53
2,180281, Control_c, 0, 64, 49
2,180299, Control_c, 0, 64, 45
2,180319, Control_c, 0, 64, 41
2,180337, Control_c, 0, 64, 35
2,180357, Control_c, 0, 64, 29
2,180375, Control_c, 0, 64, 20
2,180395, Control_c, 0, 64, 15
2,180415, Control_c, 0, 64, 11
2,180435, Control_c, 0, 64, 8
2,180453, Control_c, 0, 64, 0
2,180607, Note_on_c, 0, 68, 79
2,180639, Note_on_c, 0, 70, 0
2,180999, Note_on_c, 0, 68, 0
2,181036, Note_on_c, 0, 66, 73
2,181048, Note_on_c, 0, 54, 0
2,181057, Note_on_c, 0, 59, 48
2,181412, Control_c, 0, 64, 30
2,181427, Note_on_c, 0, 58, 63
2,181432, Note_on_c, 0, 59, 0
2,181436, Control_c, 0, 64, 45
2,181450, Control_c, 0, 64, 55
2,181470, Control_c, 0, 64, 61
2,181491, Control_c, 0, 64, 62
2,181512, Control_c, 0, 64, 63
2,181527, Control_c, 0, 64, 64
2,181550, Control_c, 0, 64, 65
2,181566, Control_c, 0, 64, 68
2,181588, Control_c, 0, 64, 71
2,181593, Note_on_c, 0, 66, 0
2,181606, Control_c, 0, 64, 77
2,181625, Control_c, 0, 64, 82
2,181643, Control_c, 0, 64, 84
2,181683, Control_c, 0, 64, 83
2,181721, Control_c, 0, 64, 82
2,181739, Control_c, 0, 64, 79
2,181757, Control_c, 0, 64, 75
2,181779, Control_c, 0, 64, 68
2,181796, Control_c, 0, 64, 60
2,181816, Control_c, 0, 64, 50
2,181832, Note_on_c, 0, 58, 0
2,181836, Control_c, 0, 64, 42
2,181855, Control_c, 0, 64, 37
2,181859, Note_on_c, 0, 76, 84
2,181877, Control_c, 0, 64, 36
2,181877, Note_on_c, 0, 56, 59
2,181892, Control_c, 0, 64, 39
2,181911, Control_c, 0, 64, 47
2,181933, Control_c, 0, 64, 57
2,181951, Control_c, 0, 64, 63
2,181968, Control_c, 0, 64, 67
2,181991, Control_c, 0, 64, 72
2,182011, Control_c, 0, 64, 83
2,182011, Note_on_c, 0, 56, 0
2,182028, Control_c, 0, 64, 104
2,182046, Control_c, 0, 64, 127
2,182052, Note_on_c, 0, 51, 0
2,182282, Note_on_c, 0, 49, 71
2,182680, Control_c, 0, 64, 91
2,182683, Note_on_c, 0, 47, 67
2,182687, Note_on_c, 0, 73, 89
2,182697, Note_on_c, 0, 49, 0
2,182702, Control_c, 0, 64, 69
2,182720, Control_c, 0, 64, 58
2,182737, Note_on_c, 0, 76, 0
2,182740, Control_c, 0, 64, 47
2,182756, Control_c, 0, 64, 40
2,182777, Control_c, 0, 64, 39
2,182795, Control_c, 0, 64, 41
2,182816, Control_c, 0, 64, 48
2,182835, Control_c, 0, 64, 56
2,182855, Control_c, 0, 64, 60
2,182873, Control_c, 0, 64, 62
2,182913, Control_c, 0, 64, 63
2,182930, Control_c, 0, 64, 64
2,182948, Control_c, 0, 64, 65
2,182985, Control_c, 0, 64, 66
2,183006, Control_c, 0, 64, 64
2,183027, Control_c, 0, 64, 61
2,183044, Control_c, 0, 64, 56
2,183062, Control_c, 0, 64, 49
2,183082, Control_c, 0, 64, 42
2,183095, Note_on_c, 0, 46, 68
2,183095, Note_on_c, 0, 47, 0
2,183102, Control_c, 0, 64, 39
2,183121, Control_c, 0, 64, 40
2,183139, Control_c, 0, 64, 46
2,183161, Control_c, 0, 64, 54
2,183179, Control_c, 0, 64, 61
2,183199, Control_c, 0, 64, 65
2,183219, Control_c, 0, 64, 67
2,183237, Control_c, 0, 64, 70
2,183257, Control_c, 0, 64, 77
2,183275, Control_c, 0, 64, 84
2,183294, Control_c, 0, 64, 93
2,183314, Control_c, 0, 64, 99
2,183335, Control_c, 0, 64, 100
2,183386, Note_on_c, 0, 46, 0
2,183411, Control_c, 0, 64, 99
2,183428, Control_c, 0, 64, 97
2,183448, Control_c, 0, 64, 93
2,183466, Control_c, 0, 64, 86
2,183487, Control_c, 0, 64, 78
2,183500, Note_on_c, 0, 47, 56
2,183500, Note_on_c, 0, 66, 59
2,183504, Control_c, 0, 64, 70
2,183525, Control_c, 0, 64, 63
2,183545, Control_c, 0, 64, 58
2,183562, Control_c, 0, 64, 55
2,183582, Control_c, 0, 64, 53
2,183600, Control_c, 0, 64, 52
2,183622, Control_c, 0, 64, 51
2,183641, Control_c, 0, 64, 50
2,183661, Control_c, 0, 64, 48
2,183680, Control_c, 0, 64, 46
2,183698, Control_c, 0, 64, 44
2,183812, Control_c, 0, 64, 43
2,183908, Control_c, 0, 64, 44
2,183921, Note_on_c, 0, 74, 75
2,183923, Note_on_c, 0, 73, 0
2,183932, Control_c, 0, 64, 47
2,183950, Control_c, 0, 64, 55
2,183969, Control_c, 0, 64, 61
2,183987, Control_c, 0, 64, 65
2,184006, Control_c, 0, 64, 69
2,184024, Control_c, 0, 64, 78
2,184045, Control_c, 0, 64, 92
2,184063, Control_c, 0, 64, 116
2,184082, Control_c, 0, 64, 127
2,184269, Note_on_c, 0, 47, 0
2,184294, Control_c, 0, 64, 112
2,184303, Note_on_c, 0, 74, 0
2,184314, Control_c, 0, 64, 101
2,184317, Note_on_c, 0, 75, 74
2,184321, Note_on_c, 0, 59, 54
2,184332, Control_c, 0, 64, 90
2,184350, Control_c, 0, 64, 80
2,184370, Control_c, 0, 64, 70
2,184388, Control_c, 0, 64, 64
2,184408, Control_c, 0, 64, 61
2,184427, Control_c, 0, 64, 58
2,184446, Control_c, 0, 64, 57
2,184466, Control_c, 0, 64, 54
2,184485, Control_c, 0, 64, 51
2,184505, Control_c, 0, 64, 47
2,184523, Control_c, 0, 64, 44
2,184545, Control_c, 0, 64, 42
2,184562, Control_c, 0, 64, 41
2,184581, Control_c, 0, 64, 39
2,184599, Control_c, 0, 64, 38
2,184620, Control_c, 0, 64, 35
2,184640, Control_c, 0, 64, 32
2,184658, Control_c, 0, 64, 31
2,184692, Note_on_c, 0, 59, 0
2,184716, Control_c, 0, 64, 33
2,184735, Control_c, 0, 64, 38
2,184740, Note_on_c, 0, 58, 52
2,184755, Control_c, 0, 64, 47
2,184774, Control_c, 0, 64, 57
2,184793, Control_c, 0, 64, 61
2,184811, Control_c, 0, 64, 63
2,184829, Control_c, 0, 64, 64
2,184849, Control_c, 0, 64, 66
2,184869, Control_c, 0, 64, 68
2,184888, Control_c, 0, 64, 72
2,184907, Control_c, 0, 64, 79
2,184929, Control_c, 0, 64, 85
2,184946, Control_c, 0, 64, 91
2,184964, Control_c, 0, 64, 92
2,185022, Control_c, 0, 64, 91
2,185042, Control_c, 0, 64, 90
2,185062, Control_c, 0, 64, 84
2,185077, Note_on_c, 0, 58, 0
2,185083, Control_c, 0, 64, 74
2,185099, Control_c, 0, 64, 64
2,185118, Control_c, 0, 64, 57
2,185128, Note_on_c, 0, 66, 0
2,185137, Control_c, 0, 64, 54
2,185150, Note_on_c, 0, 56, 35
2,185153, Note_on_c, 0, 71, 61
2,185170, Note_on_c, 0, 75, 0
2,185176, Control_c, 0, 64, 57
2,185194, Control_c, 0, 64, 60
2,185214, Control_c, 0, 64, 62
2,185234, Control_c, 0, 64, 64
2,185253, Control_c, 0, 64, 67
2,185273, Control_c, 0, 64, 70
2,185292, Control_c, 0, 64, 75
2,185310, Control_c, 0, 64, 82
2,185329, Control_c, 0, 64, 93
2,185348, Control_c, 0, 64, 101
2,185368, Control_c, 0, 64, 102
2,185426, Control_c, 0, 64, 101
2,185448, Control_c, 0, 64, 96
2,185465, Control_c, 0, 64, 83
2,185486, Control_c, 0, 64, 70
2,185503, Control_c, 0, 64, 62
2,185523, Control_c, 0, 64, 56
2,185527, Note_on_c, 0, 56, 0
2,185541, Control_c, 0, 64, 55
2,185551, Note_on_c, 0, 58, 42
2,185555, Note_on_c, 0, 78, 58
2,185560, Control_c, 0, 64, 57
2,185569, Note_on_c, 0, 70, 50
2,185579, Control_c, 0, 64, 59
2,185599, Control_c, 0, 64, 63
2,185618, Control_c, 0, 64, 65
2,185637, Control_c, 0, 64, 67
2,185657, Control_c, 0, 64, 72
2,185677, Control_c, 0, 64, 78
2,185695, Control_c, 0, 64, 87
2,185715, Control_c, 0, 64, 101
2,185726, Note_on_c, 0, 78, 0
2,185733, Control_c, 0, 64, 127
2,185737, Note_on_c, 0, 70, 0
2,185887, Control_c, 0, 64, 97
2,185905, Control_c, 0, 64, 77
2,185916, Note_on_c, 0, 58, 0
2,185925, Control_c, 0, 64, 65
2,185946, Control_c, 0, 64, 58
2,185950, Note_on_c, 0, 77, 64
2,185963, Control_c, 0, 64, 56
2,185970, Note_on_c, 0, 59, 39
2,185970, Note_on_c, 0, 68, 49
2,185982, Control_c, 0, 64, 57
2,186001, Control_c, 0, 64, 60
2,186022, Control_c, 0, 64, 63
2,186035, Note_on_c, 0, 71, 0
2,186041, Control_c, 0, 64, 65
2,186059, Control_c, 0, 64, 68
2,186079, Control_c, 0, 64, 73
2,186097, Control_c, 0, 64, 79
2,186108, Note_on_c, 0, 68, 0
2,186117, Control_c, 0, 64, 88
2,186136, Control_c, 0, 64, 101
2,186156, Control_c, 0, 64, 127
2,186253, Control_c, 0, 64, 105
2,186271, Control_c, 0, 64, 84
2,186290, Control_c, 0, 64, 66
2,186312, Control_c, 0, 64, 57
2,186312, Note_on_c, 0, 77, 0
2,186315, Note_on_c, 0, 59, 0
2,186327, Control_c, 0, 64, 52
2,186348, Control_c, 0, 64, 54
2,186357, Note_on_c, 0, 75, 59
2,186368, Control_c, 0, 64, 58
2,186372, Note_on_c, 0, 66, 45
2,186375, Note_on_c, 0, 56, 39
2,186385, Control_c, 0, 64, 62
2,186403, Control_c, 0, 64, 66
2,186424, Control_c, 0, 64, 72
2,186446, Control_c, 0, 64, 83
2,186463, Control_c, 0, 64, 101
2,186467, Note_on_c, 0, 66, 0
2,186481, Control_c, 0, 64, 127
2,186497, Note_on_c, 0, 56, 0
2,186714, Control_c, 0, 64, 113
2,186733, Control_c, 0, 64, 95
2,186751, Control_c, 0, 64, 81
2,186763, Note_on_c, 0, 75, 0
2,186772, Control_c, 0, 64, 70
2,186772, Note_on_c, 0, 65, 44
2,186780, Note_on_c, 0, 74, 59
2,186791, Control_c, 0, 64, 64
2,186791, Note_on_c, 0, 58, 28
2,186809, Control_c, 0, 64, 59
2,186829, Control_c, 0, 64, 57
2,186847, Control_c, 0, 64, 56
2,186864, Control_c, 0, 64, 55
2,186886, Control_c, 0, 64, 54
2,186905, Control_c, 0, 64, 53
2,186922, Control_c, 0, 64, 51
2,186942, Control_c, 0, 64, 50
2,187136, Note_on_c, 0, 65, 0
2,187147, Note_on_c, 0, 74, 0
2,187177, Note_on_c, 0, 63, 50
2,187182, Note_on_c, 0, 77, 68
2,187515, Note_on_c, 0, 63, 0
2,187561, Note_on_c, 0, 58, 0
2,187563, Note_on_c, 0, 77, 0
2,187583, Note_on_c, 0, 82, 66
2,187591, Note_on_c, 0, 62, 43
2,187902, Control_c, 0, 64, 51
2,187921, Control_c, 0, 64, 53
2,187943, Control_c, 0, 64, 57
2,187943, Note_on_c, 0, 62, 0
2,187960, Control_c, 0, 64, 60
2,187979, Control_c, 0, 64, 62
2,188003, Control_c, 0, 64, 64
2,188003, Note_on_c, 0, 65, 42
2,188021, Control_c, 0, 64, 66
2,188021, Note_on_c, 0, 56, 32
2,188037, Control_c, 0, 64, 69
2,188057, Control_c, 0, 64, 76
2,188075, Control_c, 0, 64, 90
2,188095, Control_c, 0, 64, 115
2,188111, Note_on_c, 0, 56, 0
2,188115, Control_c, 0, 64, 127
2,188305, Control_c, 0, 64, 106
2,188327, Control_c, 0, 64, 81
2,188343, Control_c, 0, 64, 64
2,188363, Control_c, 0, 64, 56
2,188370, Note_on_c, 0, 65, 0
2,188381, Control_c, 0, 64, 55
2,188394, Note_on_c, 0, 58, 52
2,188401, Note_on_c, 0, 54, 45
2,188406, Control_c, 0, 64, 57
2,188422, Control_c, 0, 64, 60
2,188441, Control_c, 0, 64, 63
2,188461, Control_c, 0, 64, 66
2,188478, Control_c, 0, 64, 73
2,188498, Control_c, 0, 64, 87
2,188515, Control_c, 0, 64, 127
2,188565, Note_on_c, 0, 54, 0
2,188571, Note_on_c, 0, 58, 0
2,188788, Control_c, 0, 64, 98
2,188792, Note_on_c, 0, 83, 84
2,188806, Note_on_c, 0, 68, 64
2,188808, Control_c, 0, 64, 72
2,188808, Note_on_c, 0, 82, 0
2,188822, Note_on_c, 0, 56, 51
2,188826, Control_c, 0, 64, 60
2,188844, Control_c, 0, 64, 54
2,188863, Control_c, 0, 64, 55
2,188882, Control_c, 0, 64, 59
2,188902, Control_c, 0, 64, 64
2,188923, Control_c, 0, 64, 68
2,188939, Control_c, 0, 64, 78
2,188957, Control_c, 0, 64, 95
2,188977, Control_c, 0, 64, 127
2,189004, Note_on_c, 0, 56, 0
2,189015, Note_on_c, 0, 68, 0
2,189187, Control_c, 0, 64, 93
2,189208, Note_on_c, 0, 66, 54
2,189212, Control_c, 0, 64, 76
2,189221, Note_on_c, 0, 82, 77
2,189228, Control_c, 0, 64, 65
2,189230, Note_on_c, 0, 83, 0
2,189242, Note_on_c, 0, 58, 41
2,189246, Control_c, 0, 64, 58
2,189264, Control_c, 0, 64, 54
2,189323, Control_c, 0, 64, 53
2,189343, Control_c, 0, 64, 52
2,189365, Control_c, 0, 64, 50
2,189382, Control_c, 0, 64, 48
2,189400, Control_c, 0, 64, 47
2,189460, Control_c, 0, 64, 46
2,189554, Control_c, 0, 64, 48
2,189572, Control_c, 0, 64, 53
2,189589, Note_on_c, 0, 66, 0
2,189593, Control_c, 0, 64, 60
2,189613, Control_c, 0, 64, 63
2,189613, Note_on_c, 0, 80, 82
2,189622, Note_on_c, 0, 65, 53
2,189630, Control_c, 0, 64, 66
2,189648, Control_c, 0, 64, 70
2,189669, Control_c, 0, 64, 78
2,189673, Note_on_c, 0, 82, 0
2,189689, Control_c, 0, 64, 90
2,189700, Note_on_c, 0, 65, 0
2,189709, Control_c, 0, 64, 127
2,189735, Note_on_c, 0, 58, 0
2,189978, Control_c, 0, 64, 109
2,189993, Control_c, 0, 64, 86
2,190004, Note_on_c, 0, 51, 49
2,190015, Control_c, 0, 64, 72
2,190031, Note_on_c, 0, 78, 84
2,190035, Control_c, 0, 64, 64
2,190044, Note_on_c, 0, 63, 45
2,190053, Control_c, 0, 64, 58
2,190071, Control_c, 0, 64, 55
2,190082, Note_on_c, 0, 80, 0
2,190091, Control_c, 0, 64, 54
2,190109, Control_c, 0, 64, 53
2,190149, Control_c, 0, 64, 51
2,190169, Control_c, 0, 64, 49
2,190187, Control_c, 0, 64, 46
2,190209, Control_c, 0, 64, 45
2,190282, Control_c, 0, 64, 44
2,190322, Control_c, 0, 64, 43
2,190387, Note_on_c, 0, 51, 0
2,190398, Control_c, 0, 64, 46
2,190419, Control_c, 0, 64, 52
2,190430, Note_on_c, 0, 80, 81
2,190436, Control_c, 0, 64, 58
2,190436, Note_on_c, 0, 53, 45
2,190456, Control_c, 0, 64, 62
2,190478, Control_c, 0, 64, 65
2,190478, Note_on_c, 0, 78, 0
2,190493, Control_c, 0, 64, 69
2,190515, Control_c, 0, 64, 76
2,190532, Control_c, 0, 64, 85
2,190552, Control_c, 0, 64, 102
2,190570, Control_c, 0, 64, 127
2,190578, Note_on_c, 0, 80, 0
2,190745, Control_c, 0, 64, 118
2,190763, Control_c, 0, 64, 95
2,190783, Control_c, 0, 64, 79
2,190800, Control_c, 0, 64, 68
2,190820, Control_c, 0, 64, 60
2,190825, Note_on_c, 0, 53, 0
2,190841, Control_c, 0, 64, 55
2,190846, Note_on_c, 0, 75, 67
2,190846, Note_on_c, 0, 82, 62
2,190858, Control_c, 0, 64, 53
2,190871, Note_on_c, 0, 55, 36
2,190898, Control_c, 0, 64, 52
2,190918, Control_c, 0, 64, 50
2,190938, Control_c, 0, 64, 48
2,190954, Control_c, 0, 64, 46
2,190973, Control_c, 0, 64, 45
2,191188, Control_c, 0, 64, 46
2,191205, Control_c, 0, 64, 49
2,191223, Control_c, 0, 64, 53
2,191244, Control_c, 0, 64, 60
2,191244, Note_on_c, 0, 75, 0
2,191257, Note_on_c, 0, 73, 79
2,191265, Control_c, 0, 64, 64
2,191283, Control_c, 0, 64, 68
2,191301, Control_c, 0, 64, 76
2,191321, Control_c, 0, 64, 93
2,191339, Control_c, 0, 64, 127
2,191347, Note_on_c, 0, 82, 0
2,191412, Note_on_c, 0, 73, 0
2,191592, Note_on_c, 0, 63, 0
2,191627, Control_c, 0, 64, 103
2,191646, Control_c, 0, 64, 74
2,191668, Note_on_c, 0, 75, 78
2,191672, Control_c, 0, 64, 63
2,191672, Note_on_c, 0, 55, 0
2,191672, Note_on_c, 0, 71, 75
2,191686, Control_c, 0, 64, 56
2,191690, Note_on_c, 0, 56, 51
2,191703, Control_c, 0, 64, 54
2,191780, Control_c, 0, 64, 52
2,191799, Control_c, 0, 64, 51
2,191819, Control_c, 0, 64, 50
2,192033, Control_c, 0, 64, 51
2,192051, Control_c, 0, 64, 52
2,192069, Control_c, 0, 64, 57
2,192084, Note_on_c, 0, 70, 73
2,192089, Note_on_c, 0, 56, 0
2,192091, Control_c, 0, 64, 62
2,192106, Control_c, 0, 64, 65
2,192106, Note_on_c, 0, 54, 53
2,192110, Note_on_c, 0, 71, 0
2,192127, Control_c, 0, 64, 70
2,192149, Control_c, 0, 64, 82
2,192165, Control_c, 0, 64, 109
2,192182, Control_c, 0, 64, 127
2,192189, Note_on_c, 0, 70, 0
2,192443, Note_on_c, 0, 75, 0
2,192472, Control_c, 0, 64, 101
2,192480, Note_on_c, 0, 54, 0
2,192484, Note_on_c, 0, 80, 88
2,192493, Control_c, 0, 64, 78
2,192493, Note_on_c, 0, 68, 85
2,192511, Control_c, 0, 64, 65
2,192511, Note_on_c, 0, 53, 57
2,192528, Control_c, 0, 64, 58
2,192548, Control_c, 0, 64, 55
2,192568, Control_c, 0, 64, 54
2,192624, Control_c, 0, 64, 52
2,192646, Control_c, 0, 64, 51
2,192663, Control_c, 0, 64, 49
2,192875, Control_c, 0, 64, 51
2,192889, Note_on_c, 0, 53, 0
2,192895, Control_c, 0, 64, 55
2,192902, Note_on_c, 0, 71, 75
2,192913, Control_c, 0, 64, 60
2,192924, Note_on_c, 0, 51, 59
2,192935, Control_c, 0, 64, 63
2,192939, Note_on_c, 0, 68, 0
2,192952, Control_c, 0, 64, 66
2,192971, Control_c, 0, 64, 71
2,192989, Control_c, 0, 64, 81
2,193009, Control_c, 0, 64, 97
2,193031, Control_c, 0, 64, 127
2,193065, Note_on_c, 0, 51, 0
2,193093, Note_on_c, 0, 50, 41
2,193183, Note_on_c, 0, 50, 0
2,193297, Control_c, 0, 64, 94
2,193304, Note_on_c, 0, 70, 83
2,193319, Control_c, 0, 64, 71
2,193328, Note_on_c, 0, 50, 63
2,193334, Note_on_c, 0, 71, 0
2,193335, Control_c, 0, 64, 59
2,193357, Control_c, 0, 64, 49
2,193374, Control_c, 0, 64, 43
2,193394, Control_c, 0, 64, 42
2,193412, Control_c, 0, 64, 44
2,193430, Control_c, 0, 64, 49
2,193452, Control_c, 0, 64, 57
2,193470, Control_c, 0, 64, 62
2,193489, Control_c, 0, 64, 64
2,193508, Control_c, 0, 64, 67
2,193529, Control_c, 0, 64, 72
2,193538, Note_on_c, 0, 80, 0
2,193547, Control_c, 0, 64, 78
2,193568, Control_c, 0, 64, 86
2,193585, Control_c, 0, 64, 95
2,193607, Control_c, 0, 64, 101
2,193623, Control_c, 0, 64, 102
2,193643, Control_c, 0, 64, 103
2,193661, Note_on_c, 0, 50, 0
2,193663, Control_c, 0, 64, 105
2,193681, Control_c, 0, 64, 109
2,193702, Control_c, 0, 64, 127
2,193702, Note_on_c, 0, 78, 90
2,193709, Note_on_c, 0, 75, 79
2,193715, Note_on_c, 0, 51, 56
2,193744, Note_on_c, 0, 70, 0
2,194007, Note_on_c, 0, 78, 0
2,194087, Note_on_c, 0, 51, 0
2,194104, Control_c, 0, 64, 115
2,194113, Note_on_c, 0, 46, 53
2,194125, Control_c, 0, 64, 81
2,194130, Note_on_c, 0, 77, 94
2,194143, Control_c, 0, 64, 66
2,194163, Control_c, 0, 64, 57
2,194182, Control_c, 0, 64, 51
2,194200, Control_c, 0, 64, 49
2,194240, Control_c, 0, 64, 48
2,194277, Control_c, 0, 64, 45
2,194295, Control_c, 0, 64, 43
2,194315, Control_c, 0, 64, 42
2,194374, Control_c, 0, 64, 44
2,194392, Control_c, 0, 64, 45
2,194411, Control_c, 0, 64, 48
2,194429, Control_c, 0, 64, 51
2,194452, Control_c, 0, 64, 55
2,194467, Control_c, 0, 64, 58
2,194488, Control_c, 0, 64, 60
2,194507, Control_c, 0, 64, 62
2,194526, Control_c, 0, 64, 63
2,194546, Control_c, 0, 64, 65
2,194566, Control_c, 0, 64, 68
2,194583, Control_c, 0, 64, 72
2,194592, Note_on_c, 0, 73, 95
2,194603, Control_c, 0, 64, 81
2,194613, Note_on_c, 0, 58, 59
2,194624, Control_c, 0, 64, 93
2,194638, Note_on_c, 0, 75, 0
2,194642, Control_c, 0, 64, 115
2,194660, Control_c, 0, 64, 127
2,194836, Note_on_c, 0, 46, 0
2,194914, Note_on_c, 0, 58, 0
2,195082, Control_c, 0, 64, 109
2,195105, Control_c, 0, 64, 81
2,195123, Control_c, 0, 64, 67
2,195123, Note_on_c, 0, 75, 90
2,195139, Control_c, 0, 64, 59
2,195143, Note_on_c, 0, 59, 48
2,195151, Note_on_c, 0, 77, 0
2,195162, Control_c, 0, 64, 53
2,195178, Control_c, 0, 64, 51
2,195198, Control_c, 0, 64, 52
2,195216, Control_c, 0, 64, 55
2,195235, Control_c, 0, 64, 60
2,195255, Control_c, 0, 64, 63
2,195275, Control_c, 0, 64, 65
2,195294, Control_c, 0, 64, 67
2,195312, Control_c, 0, 64, 71
2,195332, Control_c, 0, 64, 78
2,195352, Control_c, 0, 64, 87
2,195374, Control_c, 0, 64, 110
2,195390, Control_c, 0, 64, 127
2,195574, Note_on_c, 0, 73, 0
2,195582, Control_c, 0, 64, 92
2,195591, Note_on_c, 0, 71, 83
2,195605, Control_c, 0, 64, 72
2,195605, Note_on_c, 0, 51, 56
2,195610, Note_on_c, 0, 59, 0
2,195622, Control_c, 0, 64, 62
2,195643, Control_c, 0, 64, 54
2,195658, Control_c, 0, 64, 53
2,195678, Control_c, 0, 64, 54
2,195700, Control_c, 0, 64, 57
2,195716, Control_c, 0, 64, 60
2,195735, Control_c, 0, 64, 63
2,195754, Control_c, 0, 64, 65
2,195773, Control_c, 0, 64, 70
2,195793, Control_c, 0, 64, 77
2,195813, Control_c, 0, 64, 91
2,195831, Control_c, 0, 64, 127
2,195930, Note_on_c, 0, 51, 0
2,195974, Note_on_c, 0, 73, 82
2,195985, Note_on_c, 0, 53, 55
2,195989, Control_c, 0, 64, 95
2,196005, Control_c, 0, 64, 72
2,196014, Note_on_c, 0, 75, 0
2,196023, Control_c, 0, 64, 61
2,196042, Control_c, 0, 64, 53
2,196063, Control_c, 0, 64, 52
2,196083, Control_c, 0, 64, 54
2,196101, Control_c, 0, 64, 57
2,196120, Control_c, 0, 64, 61
2,196138, Control_c, 0, 64, 63
2,196158, Control_c, 0, 64, 65
2,196176, Control_c, 0, 64, 68
2,196196, Control_c, 0, 64, 74
2,196218, Control_c, 0, 64, 84
2,196235, Control_c, 0, 64, 100
2,196254, Control_c, 0, 64, 127
2,196333, Control_c, 0, 64, 107
2,196333, Note_on_c, 0, 53, 0
2,196350, Control_c, 0, 64, 86
2,196360, Note_on_c, 0, 70, 71
2,196370, Control_c, 0, 64, 70
2,196375, Note_on_c, 0, 55, 50
2,196376, Note_on_c, 0, 71, 0
2,196389, Control_c, 0, 64, 60
2,196407, Control_c, 0, 64, 54
2,196446, Control_c, 0, 64, 55
2,196468, Control_c, 0, 64, 59
2,196485, Control_c, 0, 64, 62
2,196504, Control_c, 0, 64, 64
2,196526, Control_c, 0, 64, 66
2,196542, Control_c, 0, 64, 69
2,196564, Control_c, 0, 64, 74
2,196581, Control_c, 0, 64, 81
2,196603, Control_c, 0, 64, 88
2,196619, Control_c, 0, 64, 95
2,196656, Control_c, 0, 64, 92
2,196676, Control_c, 0, 64, 85
2,196696, Control_c, 0, 64, 74
2,196717, Control_c, 0, 64, 64
2,196721, Note_on_c, 0, 55, 0
2,196736, Control_c, 0, 64, 56
2,196736, Note_on_c, 0, 71, 71
2,196754, Control_c, 0, 64, 53
2,196758, Note_on_c, 0, 56, 43
2,196783, Note_on_c, 0, 73, 0
2,196792, Control_c, 0, 64, 55
2,196810, Control_c, 0, 64, 58
2,196829, Control_c, 0, 64, 61
2,196849, Control_c, 0, 64, 64
2,196869, Control_c, 0, 64, 66
2,196887, Control_c, 0, 64, 71
2,196907, Control_c, 0, 64, 78
2,196927, Control_c, 0, 64, 87
2,196945, Control_c, 0, 64, 98
2,196965, Control_c, 0, 64, 109
2,196983, Control_c, 0, 64, 115
2,197022, Control_c, 0, 64, 112
2,197040, Control_c, 0, 64, 107
2,197059, Control_c, 0, 64, 97
2,197082, Control_c, 0, 64, 81
2,197101, Control_c, 0, 64, 67
2,197101, Note_on_c, 0, 56, 0
2,197107, Note_on_c, 0, 70, 0
2,197120, Control_c, 0, 64, 58
2,197140, Control_c, 0, 64, 53
2,197140, Note_on_c, 0, 68, 78
2,197167, Note_on_c, 0, 53, 44
2,197175, Control_c, 0, 64, 55
2,197195, Control_c, 0, 64, 59
2,197213, Control_c, 0, 64, 62
2,197235, Control_c, 0, 64, 64
2,197253, Control_c, 0, 64, 65
2,197270, Control_c, 0, 64, 68
2,197293, Control_c, 0, 64, 72
2,197312, Control_c, 0, 64, 79
2,197330, Control_c, 0, 64, 88
2,197350, Control_c, 0, 64, 99
2,197367, Control_c, 0, 64, 106
2,197386, Control_c, 0, 64, 107
2,197404, Control_c, 0, 64, 106
2,197424, Control_c, 0, 64, 102
2,197443, Control_c, 0, 64, 94
2,197465, Control_c, 0, 64, 81
2,197481, Control_c, 0, 64, 67
2,197490, Note_on_c, 0, 71, 0
2,197501, Control_c, 0, 64, 59
2,197512, Note_on_c, 0, 53, 0
2,197525, Control_c, 0, 64, 53
2,197525, Note_on_c, 0, 70, 65
2,197537, Note_on_c, 0, 50, 44
2,197560, Control_c, 0, 64, 56
2,197580, Control_c, 0, 64, 60
2,197601, Control_c, 0, 64, 63
2,197616, Control_c, 0, 64, 66
2,197636, Control_c, 0, 64, 69
2,197659, Control_c, 0, 64, 74
2,197675, Control_c, 0, 64, 79
2,197694, Control_c, 0, 64, 88
2,197714, Control_c, 0, 64, 103
2,197725, Note_on_c, 0, 68, 0
2,197734, Control_c, 0, 64, 122
2,197753, Control_c, 0, 64, 127
2,197847, Control_c, 0, 64, 112
2,197866, Control_c, 0, 64, 92
2,197886, Note_on_c, 0, 50, 0
2,197890, Control_c, 0, 64, 74
2,197908, Control_c, 0, 64, 62
2,197908, Note_on_c, 0, 66, 67
2,197926, Control_c, 0, 64, 53
2,197931, Note_on_c, 0, 51, 45
2,197942, Control_c, 0, 64, 50
2,197983, Control_c, 0, 64, 53
2,198001, Control_c, 0, 64, 57
2,198020, Control_c, 0, 64, 60
2,198041, Control_c, 0, 64, 62
2,198059, Control_c, 0, 64, 63
2,198079, Control_c, 0, 64, 65
2,198099, Control_c, 0, 64, 69
2,198116, Control_c, 0, 64, 77
2,198138, Control_c, 0, 64, 86
2,198154, Control_c, 0, 64, 97
2,198174, Control_c, 0, 64, 101
2,198196, Control_c, 0, 64, 100
2,198212, Control_c, 0, 64, 96
2,198233, Control_c, 0, 64, 91
2,198252, Control_c, 0, 64, 81
2,198274, Control_c, 0, 64, 68
2,198290, Control_c, 0, 64, 60
2,198308, Control_c, 0, 64, 55
2,198312, Note_on_c, 0, 68, 62
2,198323, Note_on_c, 0, 51, 0
2,198324, Note_on_c, 0, 48, 35
2,198329, Control_c, 0, 64, 54
2,198338, Note_on_c, 0, 70, 0
2,198350, Control_c, 0, 64, 56
2,198366, Control_c, 0, 64, 59
2,198384, Control_c, 0, 64, 62
2,198404, Control_c, 0, 64, 65
2,198426, Control_c, 0, 64, 68
2,198443, Control_c, 0, 64, 72
2,198462, Control_c, 0, 64, 77
2,198483, Control_c, 0, 64, 84
2,198503, Control_c, 0, 64, 93
2,198519, Control_c, 0, 64, 102
2,198542, Control_c, 0, 64, 108
2,198553, Note_on_c, 0, 66, 0
2,198598, Control_c, 0, 64, 106
2,198616, Control_c, 0, 64, 103
2,198634, Control_c, 0, 64, 96
2,198653, Control_c, 0, 64, 85
2,198676, Control_c, 0, 64, 70
2,198676, Note_on_c, 0, 48, 0
2,198693, Control_c, 0, 64, 61
2,198705, Note_on_c, 0, 65, 56
2,198712, Control_c, 0, 64, 55
2,198722, Note_on_c, 0, 50, 39
2,198730, Control_c, 0, 64, 54
2,198772, Control_c, 0, 64, 55
2,198790, Control_c, 0, 64, 56
2,198810, Control_c, 0, 64, 59
2,198829, Control_c, 0, 64, 61
2,198847, Control_c, 0, 64, 63
2,198865, Control_c, 0, 64, 65
2,198885, Control_c, 0, 64, 67
2,198904, Control_c, 0, 64, 70
2,198923, Control_c, 0, 64, 73
2,198943, Control_c, 0, 64, 75
2,198964, Control_c, 0, 64, 76
2,199000, Control_c, 0, 64, 75
2,199020, Control_c, 0, 64, 74
2,199037, Control_c, 0, 64, 72
2,199057, Control_c, 0, 64, 69
2,199061, Note_on_c, 0, 68, 0
2,199068, Note_on_c, 0, 50, 0
2,199078, Control_c, 0, 64, 64
2,199092, Note_on_c, 0, 66, 52
2,199097, Control_c, 0, 64, 60
2,199111, Note_on_c, 0, 51, 42
2,199114, Control_c, 0, 64, 58
2,199135, Control_c, 0, 64, 56
2,199155, Control_c, 0, 64, 55
2,199172, Control_c, 0, 64, 53
2,199192, Control_c, 0, 64, 52
2,199210, Control_c, 0, 64, 51
2,199232, Control_c, 0, 64, 50
2,199248, Control_c, 0, 64, 49
2,199307, Control_c, 0, 64, 48
2,199326, Control_c, 0, 64, 47
2,199346, Control_c, 0, 64, 46
2,199364, Control_c, 0, 64, 45
2,199384, Control_c, 0, 64, 44
2,199499, Control_c, 0, 64, 46
2,199518, Control_c, 0, 64, 50
2,199523, Note_on_c, 0, 39, 37
2,199534, Note_on_c, 0, 63, 46
2,199538, Control_c, 0, 64, 56
2,199549, Note_on_c, 0, 51, 0
2,199549, Note_on_c, 0, 65, 0
2,199558, Control_c, 0, 64, 61
2,199576, Control_c, 0, 64, 64
2,199597, Control_c, 0, 64, 67
2,199613, Control_c, 0, 64, 73
2,199634, Control_c, 0, 64, 84
2,199651, Control_c, 0, 64, 99
2,199671, Control_c, 0, 64, 127
2,199689, Note_on_c, 0, 63, 0
2,199754, Note_on_c, 0, 39, 0
2,199813, Note_on_c, 0, 66, 0
2,199864, Control_c, 0, 64, 122
2,199884, Control_c, 0, 64, 104
2,199902, Control_c, 0, 64, 92
2,199922, Control_c, 0, 64, 81
2,199944, Control_c, 0, 64, 70
2,199959, Control_c, 0, 64, 61
2,199981, Control_c, 0, 64, 54
2,199999, Control_c, 0, 64, 51
2,200010, Note_on_c, 0, 65, 41
2,200014, Note_on_c, 0, 62, 38
2,200032, Note_on_c, 0, 46, 36
2,200077, Control_c, 0, 64, 53
2,200095, Control_c, 0, 64, 55
2,200114, Control_c, 0, 64, 59
2,200131, Control_c, 0, 64, 62
2,200151, Control_c, 0, 64, 65
2,200171, Control_c, 0, 64, 68
2,200176, Note_on_c, 0, 65, 0
2,200192, Control_c, 0, 64, 73
2,200210, Control_c, 0, 64, 77
2,200229, Control_c, 0, 64, 81
2,200249, Control_c, 0, 64, 85
2,200268, Control_c, 0, 64, 89
2,200288, Control_c, 0, 64, 92
2,200307, Control_c, 0, 64, 93
2,200387, Note_on_c, 0, 62, 0
2,200403, Control_c, 0, 64, 92
2,200403, Note_on_c, 0, 46, 0
2,200421, Control_c, 0, 64, 91
2,200421, Note_on_c, 0, 65, 48
2,200439, Control_c, 0, 64, 90
2,200458, Control_c, 0, 64, 88
2,200478, Control_c, 0, 64, 87
2,200515, Control_c, 0, 64, 86
2,200534, Control_c, 0, 64, 85
2,200634, Control_c, 0, 64, 84
2,200652, Control_c, 0, 64, 82
2,200669, Control_c, 0, 64, 78
2,200689, Control_c, 0, 64, 70
2,200708, Control_c, 0, 64, 63
2,200728, Control_c, 0, 64, 56
2,200747, Control_c, 0, 64, 48
2,200763, Note_on_c, 0, 65, 0
2,200767, Control_c, 0, 64, 39
2,200784, Control_c, 0, 64, 26
2,200804, Control_c, 0, 64, 11
2,200815, Note_on_c, 0, 70, 63
2,200823, Control_c, 0, 64, 0
2,200865, Control_c, 0, 64, 10
2,200884, Control_c, 0, 64, 25
2,200900, Control_c, 0, 64, 39
2,200918, Control_c, 0, 64, 53
2,200938, Control_c, 0, 64, 61
2,200958, Control_c, 0, 64, 64
2,200979, Control_c, 0, 64, 68
2,200996, Control_c, 0, 64, 75
2,201011, Note_on_c, 0, 70, 0
2,201020, Control_c, 0, 64, 90
2,201035, Control_c, 0, 64, 122
2,201055, Control_c, 0, 64, 127
2,201298, Note_on_c, 0, 72, 38
2,201649, Note_on_c, 0, 72, 0
2,201668, Note_on_c, 0, 70, 48
2,201673, Note_on_c, 0, 74, 49
2,201689, Note_on_c, 0, 58, 51
2,202020, Note_on_c, 0, 74, 0
2,202054, Control_c, 0, 64, 111
2,202059, Note_on_c, 0, 71, 62
2,202072, Note_on_c, 0, 75, 54
2,202076, Control_c, 0, 64, 98
2,202090, Control_c, 0, 64, 88
2,202104, Note_on_c, 0, 70, 0
2,202111, Control_c, 0, 64, 77
2,202129, Control_c, 0, 64, 70
2,202148, Control_c, 0, 64, 64
2,202168, Control_c, 0, 64, 61
2,202186, Control_c, 0, 64, 59
2,202204, Control_c, 0, 64, 57
2,202225, Control_c, 0, 64, 55
2,202246, Control_c, 0, 64, 51
2,202267, Control_c, 0, 64, 46
2,202282, Control_c, 0, 64, 41
2,202300, Control_c, 0, 64, 36
2,202322, Control_c, 0, 64, 30
2,202340, Control_c, 0, 64, 23
2,202362, Control_c, 0, 64, 16
2,202380, Control_c, 0, 64, 0
2,202400, Note_on_c, 0, 75, 0
2,202450, Note_on_c, 0, 71, 0
2,202476, Note_on_c, 0, 70, 54
2,202476, Note_on_c, 0, 77, 49
2,202744, Control_c, 0, 64, 28
2,202764, Control_c, 0, 64, 45
2,202781, Control_c, 0, 64, 56
2,202801, Control_c, 0, 64, 61
2,202820, Control_c, 0, 64, 63
2,202840, Control_c, 0, 64, 65
2,202849, Note_on_c, 0, 68, 51
2,202858, Control_c, 0, 64, 70
2,202880, Control_c, 0, 64, 78
2,202892, Note_on_c, 0, 70, 0
2,202901, Control_c, 0, 64, 93
2,202917, Control_c, 0, 64, 127
2,202940, Note_on_c, 0, 58, 0
2,203063, Note_on_c, 0, 68, 0
2,203223, Control_c, 0, 64, 108
2,203243, Control_c, 0, 64, 90
2,203262, Control_c, 0, 64, 76
2,203275, Note_on_c, 0, 63, 54
2,203283, Control_c, 0, 64, 66
2,203288, Note_on_c, 0, 66, 51
2,203300, Control_c, 0, 64, 59
2,203320, Control_c, 0, 64, 55
2,203339, Control_c, 0, 64, 54
2,203359, Control_c, 0, 64, 53
2,203397, Control_c, 0, 64, 52
2,203415, Control_c, 0, 64, 50
2,203435, Control_c, 0, 64, 48
2,203453, Control_c, 0, 64, 47
2,203571, Control_c, 0, 64, 46
2,203604, Note_on_c, 0, 66, 0
2,203657, Note_on_c, 0, 77, 0
2,203666, Note_on_c, 0, 68, 46
2,203666, Note_on_c, 0, 75, 56
2,203704, Control_c, 0, 64, 45
2,203853, Note_on_c, 0, 75, 0
2,203896, Control_c, 0, 64, 44
2,203901, Note_on_c, 0, 73, 50
2,203935, Note_on_c, 0, 73, 0
2,203959, Note_on_c, 0, 75, 46
2,203968, Note_on_c, 0, 68, 0
2,203972, Control_c, 0, 64, 43
2,204002, Note_on_c, 0, 75, 0
2,204015, Note_on_c, 0, 70, 40
2,204020, Note_on_c, 0, 73, 63
2,204052, Control_c, 0, 64, 42
2,204128, Control_c, 0, 64, 41
2,204183, Note_on_c, 0, 73, 0
2,204215, Note_on_c, 0, 71, 52
2,204224, Control_c, 0, 64, 40
2,204319, Control_c, 0, 64, 39
2,204372, Note_on_c, 0, 71, 0
2,204392, Note_on_c, 0, 73, 56
2,204409, Note_on_c, 0, 70, 0
2,204434, Control_c, 0, 64, 38
2,204529, Control_c, 0, 64, 37
2,204549, Control_c, 0, 64, 36
2,204565, Note_on_c, 0, 73, 0
2,204583, Note_on_c, 0, 79, 60
2,204588, Control_c, 0, 64, 35
2,204624, Control_c, 0, 64, 34
2,204664, Control_c, 0, 64, 33
2,204682, Control_c, 0, 64, 32
2,204717, Note_on_c, 0, 79, 0
2,204721, Control_c, 0, 64, 31
2,204779, Note_on_c, 0, 80, 54
2,204835, Control_c, 0, 64, 30
2,204945, Note_on_c, 0, 80, 0
2,204965, Note_on_c, 0, 82, 60
2,205124, Note_on_c, 0, 82, 0
2,205165, Note_on_c, 0, 83, 56
2,205562, Note_on_c, 0, 64, 60
2,205571, Note_on_c, 0, 68, 46
2,205593, Note_on_c, 0, 63, 0
2,205854, Control_c, 0, 64, 32
2,205874, Control_c, 0, 64, 36
2,205892, Control_c, 0, 64, 44
2,205911, Control_c, 0, 64, 52
2,205929, Control_c, 0, 64, 59
2,205950, Note_on_c, 0, 83, 0
2,205954, Control_c, 0, 64, 61
2,205968, Control_c, 0, 64, 63
2,205977, Note_on_c, 0, 82, 48
2,205987, Control_c, 0, 64, 64
2,206007, Control_c, 0, 64, 66
2,206027, Control_c, 0, 64, 68
2,206046, Control_c, 0, 64, 71
2,206063, Control_c, 0, 64, 74
2,206083, Control_c, 0, 64, 77
2,206147, Note_on_c, 0, 82, 0
2,206179, Note_on_c, 0, 80, 47
2,206238, Control_c, 0, 64, 75
2,206260, Control_c, 0, 64, 73
2,206278, Control_c, 0, 64, 71
2,206295, Control_c, 0, 64, 67
2,206315, Control_c, 0, 64, 65
2,206328, Note_on_c, 0, 80, 0
2,206336, Control_c, 0, 64, 62
2,206341, Note_on_c, 0, 64, 0
2,206353, Control_c, 0, 64, 58
2,206369, Note_on_c, 0, 63, 59
2,206374, Control_c, 0, 64, 53
2,206382, Note_on_c, 0, 82, 45
2,206391, Control_c, 0, 64, 47
2,206395, Note_on_c, 0, 68, 0
2,206412, Control_c, 0, 64, 41
2,206428, Control_c, 0, 64, 35
2,206450, Control_c, 0, 64, 32
2,206469, Control_c, 0, 64, 31
2,206525, Control_c, 0, 64, 32
2,206544, Control_c, 0, 64, 34
2,206567, Control_c, 0, 64, 40
2,206583, Control_c, 0, 64, 47
2,206601, Control_c, 0, 64, 55
2,206623, Control_c, 0, 64, 59
2,206641, Control_c, 0, 64, 61
2,206659, Control_c, 0, 64, 62
2,206681, Control_c, 0, 64, 64
2,206699, Control_c, 0, 64, 65
2,206721, Control_c, 0, 64, 68
2,206737, Control_c, 0, 64, 74
2,206757, Control_c, 0, 64, 84
2,206778, Control_c, 0, 64, 100
2,206778, Note_on_c, 0, 67, 44
2,206786, Note_on_c, 0, 75, 40
2,206795, Control_c, 0, 64, 127
2,206858, Note_on_c, 0, 67, 0
2,206874, Note_on_c, 0, 75, 0
2,207083, Control_c, 0, 64, 107
2,207102, Control_c, 0, 64, 95
2,207121, Control_c, 0, 64, 84
2,207140, Control_c, 0, 64, 75
2,207147, Note_on_c, 0, 61, 50
2,207160, Control_c, 0, 64, 68
2,207179, Note_on_c, 0, 77, 40
2,207184, Control_c, 0, 64, 63
2,207184, Note_on_c, 0, 65, 42
2,207186, Note_on_c, 0, 82, 0
2,207199, Control_c, 0, 64, 58
2,207212, Note_on_c, 0, 63, 0
2,207218, Control_c, 0, 64, 56
2,207237, Control_c, 0, 64, 54
2,207255, Control_c, 0, 64, 52
2,207275, Control_c, 0, 64, 49
2,207292, Control_c, 0, 64, 46
2,207314, Control_c, 0, 64, 42
2,207333, Control_c, 0, 64, 38
2,207351, Control_c, 0, 64, 35
2,207430, Control_c, 0, 64, 34
2,207482, Note_on_c, 0, 65, 0
2,207514, Note_on_c, 0, 77, 0
2,207574, Note_on_c, 0, 64, 39
2,207574, Note_on_c, 0, 79, 47
2,207833, Note_on_c, 0, 79, 0
2,207916, Note_on_c, 0, 80, 54
2,207918, Note_on_c, 0, 59, 48
2,207948, Note_on_c, 0, 63, 40
2,207952, Note_on_c, 0, 64, 0
2,208023, Note_on_c, 0, 61, 0
2,208236, Control_c, 0, 64, 35
2,208295, Control_c, 0, 64, 37
2,208312, Control_c, 0, 64, 43
2,208330, Control_c, 0, 64, 52
2,208340, Note_on_c, 0, 71, 47
2,208350, Control_c, 0, 64, 59
2,208368, Control_c, 0, 64, 62
2,208388, Control_c, 0, 64, 64
2,208406, Control_c, 0, 64, 65
2,208428, Control_c, 0, 64, 68
2,208446, Control_c, 0, 64, 75
2,208464, Control_c, 0, 64, 84
2,208484, Control_c, 0, 64, 95
2,208504, Control_c, 0, 64, 109
2,208526, Control_c, 0, 64, 120
2,208640, Control_c, 0, 64, 113
2,208659, Control_c, 0, 64, 106
2,208678, Control_c, 0, 64, 96
2,208696, Control_c, 0, 64, 83
2,208700, Note_on_c, 0, 71, 0
2,208712, Note_on_c, 0, 59, 0
2,208717, Control_c, 0, 64, 68
2,208736, Note_on_c, 0, 61, 53
2,208740, Control_c, 0, 64, 60
2,208740, Note_on_c, 0, 70, 43
2,208755, Control_c, 0, 64, 53
2,208760, Note_on_c, 0, 63, 0
2,208773, Control_c, 0, 64, 48
2,208790, Control_c, 0, 64, 45
2,208813, Control_c, 0, 64, 44
2,208829, Control_c, 0, 64, 43
2,208869, Control_c, 0, 64, 46
2,208887, Control_c, 0, 64, 53
2,208906, Control_c, 0, 64, 60
2,208925, Control_c, 0, 64, 63
2,208946, Control_c, 0, 64, 66
2,208966, Control_c, 0, 64, 70
2,208986, Control_c, 0, 64, 75
2,209003, Control_c, 0, 64, 82
2,209025, Control_c, 0, 64, 90
2,209042, Control_c, 0, 64, 101
2,209060, Control_c, 0, 64, 127
2,209144, Note_on_c, 0, 68, 42
2,209184, Note_on_c, 0, 80, 0
2,209389, Note_on_c, 0, 68, 0
2,209482, Control_c, 0, 64, 115
2,209501, Control_c, 0, 64, 103
2,209522, Control_c, 0, 64, 91
2,209541, Control_c, 0, 64, 75
2,209558, Control_c, 0, 64, 64
2,209578, Note_on_c, 0, 61, 0
2,209581, Control_c, 0, 64, 55
2,209581, Note_on_c, 0, 63, 43
2,209581, Note_on_c, 0, 82, 46
2,209589, Note_on_c, 0, 70, 0
2,209601, Control_c, 0, 64, 49
2,209611, Note_on_c, 0, 67, 32
2,209617, Control_c, 0, 64, 46
2,209675, Control_c, 0, 64, 48
2,209694, Control_c, 0, 64, 53
2,209715, Control_c, 0, 64, 59
2,209732, Control_c, 0, 64, 63
2,209752, Control_c, 0, 64, 66
2,209770, Control_c, 0, 64, 70
2,209789, Control_c, 0, 64, 79
2,209809, Control_c, 0, 64, 91
2,209819, Note_on_c, 0, 63, 0
2,209828, Control_c, 0, 64, 115
2,209847, Control_c, 0, 64, 127
2,209972, Note_on_c, 0, 67, 0
2,210005, Note_on_c, 0, 63, 44
2,210194, Note_on_c, 0, 65, 47
2,210328, Control_c, 0, 64, 113
2,210348, Control_c, 0, 64, 91
2,210364, Control_c, 0, 64, 72
2,210385, Control_c, 0, 64, 62
2,210394, Note_on_c, 0, 82, 0
2,210398, Note_on_c, 0, 75, 57
2,210407, Control_c, 0, 64, 54
2,210407, Note_on_c, 0, 67, 44
2,210412, Note_on_c, 0, 65, 0
2,210425, Control_c, 0, 64, 49
2,210482, Control_c, 0, 64, 51
2,210502, Control_c, 0, 64, 54
2,210519, Control_c, 0, 64, 59
2,210539, Control_c, 0, 64, 62
2,210557, Control_c, 0, 64, 64
2,210578, Control_c, 0, 64, 68
2,210596, Control_c, 0, 64, 74
2,210615, Control_c, 0, 64, 84
2,210635, Control_c, 0, 64, 102
2,210653, Control_c, 0, 64, 127
2,210770, Note_on_c, 0, 68, 58
2,210809, Note_on_c, 0, 67, 0
2,210940, Note_on_c, 0, 68, 0
2,210954, Note_on_c, 0, 70, 58
2,211114, Control_c, 0, 64, 106
2,211125, Note_on_c, 0, 70, 0
2,211135, Control_c, 0, 64, 85
2,211153, Control_c, 0, 64, 69
2,211173, Control_c, 0, 64, 59
2,211175, Note_on_c, 0, 63, 0
2,211188, Note_on_c, 0, 56, 62
2,211188, Note_on_c, 0, 71, 47
2,211192, Control_c, 0, 64, 50
2,211213, Control_c, 0, 64, 47
2,211268, Control_c, 0, 64, 49
2,211288, Control_c, 0, 64, 53
2,211305, Control_c, 0, 64, 57
2,211325, Control_c, 0, 64, 61
2,211347, Control_c, 0, 64, 65
2,211364, Control_c, 0, 64, 68
2,211383, Control_c, 0, 64, 75
2,211401, Control_c, 0, 64, 84
2,211421, Control_c, 0, 64, 97
2,211427, Note_on_c, 0, 71, 0
2,211442, Control_c, 0, 64, 122
2,211461, Control_c, 0, 64, 127
2,211624, Note_on_c, 0, 71, 61
2,211990, Note_on_c, 0, 73, 80
2,212018, Note_on_c, 0, 75, 0
2,212022, Note_on_c, 0, 71, 0
2,212405, Note_on_c, 0, 75, 75
2,212414, Note_on_c, 0, 70, 70
2,212449, Note_on_c, 0, 73, 0
2,212611, Note_on_c, 0, 70, 0
2,212806, Control_c, 0, 64, 107
2,212817, Note_on_c, 0, 75, 0
2,212826, Control_c, 0, 64, 87
2,212833, Note_on_c, 0, 76, 64
2,212837, Note_on_c, 0, 61, 58
2,212844, Control_c, 0, 64, 70
2,212844, Note_on_c, 0, 56, 0
2,212853, Note_on_c, 0, 68, 55
2,212862, Control_c, 0, 64, 61
2,212882, Control_c, 0, 64, 52
2,212899, Control_c, 0, 64, 47
2,212919, Control_c, 0, 64, 44
2,212939, Control_c, 0, 64, 43
2,212995, Control_c, 0, 64, 48
2,213018, Control_c, 0, 64, 56
2,213036, Control_c, 0, 64, 62
2,213053, Control_c, 0, 64, 67
2,213073, Control_c, 0, 64, 72
2,213093, Control_c, 0, 64, 81
2,213111, Control_c, 0, 64, 92
2,213115, Note_on_c, 0, 68, 0
2,213130, Control_c, 0, 64, 109
2,213152, Control_c, 0, 64, 127
2,213215, Note_on_c, 0, 76, 0
2,213227, Control_c, 0, 64, 98
2,213240, Note_on_c, 0, 75, 62
2,213252, Control_c, 0, 64, 76
2,213252, Note_on_c, 0, 67, 57
2,213265, Control_c, 0, 64, 62
2,213283, Control_c, 0, 64, 54
2,213303, Control_c, 0, 64, 53
2,213323, Control_c, 0, 64, 55
2,213343, Control_c, 0, 64, 58
2,213361, Control_c, 0, 64, 62
2,213379, Control_c, 0, 64, 64
2,213399, Control_c, 0, 64, 67
2,213411, Note_on_c, 0, 67, 0
2,213421, Control_c, 0, 64, 71
2,213437, Control_c, 0, 64, 77
2,213458, Control_c, 0, 64, 86
2,213476, Control_c, 0, 64, 101
2,213497, Control_c, 0, 64, 127
2,213612, Control_c, 0, 64, 95
2,213612, Note_on_c, 0, 75, 0
2,213629, Control_c, 0, 64, 76
2,213637, Note_on_c, 0, 73, 61
2,213648, Note_on_c, 0, 68, 50
2,213653, Control_c, 0, 64, 63
2,213667, Control_c, 0, 64, 53
2,213691, Control_c, 0, 64, 49
2,213764, Control_c, 0, 64, 48
2,213823, Control_c, 0, 64, 49
2,213841, Control_c, 0, 64, 51
2,213860, Control_c, 0, 64, 52
2,213878, Control_c, 0, 64, 54
2,213898, Control_c, 0, 64, 55
2,213917, Control_c, 0, 64, 57
2,213937, Control_c, 0, 64, 60
2,213957, Control_c, 0, 64, 63
2,213974, Control_c, 0, 64, 65
2,213997, Control_c, 0, 64, 68
2,214012, Control_c, 0, 64, 72
2,214031, Control_c, 0, 64, 78
2,214052, Control_c, 0, 64, 87
2,214052, Note_on_c, 0, 70, 45
2,214072, Control_c, 0, 64, 99
2,214091, Control_c, 0, 64, 127
2,214119, Note_on_c, 0, 70, 0
2,214146, Note_on_c, 0, 73, 0
2,214339, Control_c, 0, 64, 118
2,214357, Control_c, 0, 64, 101
2,214378, Control_c, 0, 64, 91
2,214400, Control_c, 0, 64, 80
2,214416, Control_c, 0, 64, 70
2,214439, Control_c, 0, 64, 64
2,214439, Note_on_c, 0, 80, 61
2,214451, Note_on_c, 0, 63, 33
2,214457, Control_c, 0, 64, 59
2,214457, Note_on_c, 0, 61, 0
2,214474, Control_c, 0, 64, 57
2,214512, Control_c, 0, 64, 56
2,214532, Control_c, 0, 64, 54
2,214551, Control_c, 0, 64, 51
2,214569, Control_c, 0, 64, 49
2,214589, Control_c, 0, 64, 48
2,214667, Control_c, 0, 64, 47
2,214705, Control_c, 0, 64, 46
2,214781, Control_c, 0, 64, 47
2,214799, Control_c, 0, 64, 48
2,214804, Note_on_c, 0, 63, 0
2,214821, Control_c, 0, 64, 51
2,214838, Control_c, 0, 64, 56
2,214851, Note_on_c, 0, 65, 40
2,214858, Control_c, 0, 64, 61
2,214875, Control_c, 0, 64, 64
2,214897, Control_c, 0, 64, 66
2,214915, Control_c, 0, 64, 72
2,214934, Control_c, 0, 64, 80
2,214954, Control_c, 0, 64, 89
2,214974, Control_c, 0, 64, 101
2,214994, Control_c, 0, 64, 110
2,215012, Control_c, 0, 64, 111
2,215012, Note_on_c, 0, 65, 0
2,215070, Control_c, 0, 64, 112
2,215146, Control_c, 0, 64, 110
2,215168, Control_c, 0, 64, 107
2,215185, Control_c, 0, 64, 103
2,215204, Control_c, 0, 64, 97
2,215223, Control_c, 0, 64, 89
2,215230, Note_on_c, 0, 68, 0
2,215245, Control_c, 0, 64, 78
2,215264, Control_c, 0, 64, 68
2,215264, Note_on_c, 0, 75, 60
2,215268, Note_on_c, 0, 80, 0
2,215280, Note_on_c, 0, 67, 40
2,215281, Control_c, 0, 64, 60
2,215286, Note_on_c, 0, 59, 29
2,215299, Control_c, 0, 64, 55
2,215319, Control_c, 0, 64, 54
2,215375, Control_c, 0, 64, 55
2,215397, Control_c, 0, 64, 56
2,215417, Control_c, 0, 64, 58
2,215434, Control_c, 0, 64, 61
2,215454, Control_c, 0, 64, 64
2,215472, Control_c, 0, 64, 67
2,215495, Control_c, 0, 64, 70
2,215513, Control_c, 0, 64, 74
2,215529, Control_c, 0, 64, 79
2,215549, Control_c, 0, 64, 86
2,215569, Control_c, 0, 64, 93
2,215590, Control_c, 0, 64, 102
2,215605, Control_c, 0, 64, 112
2,215627, Control_c, 0, 64, 120
2,215645, Control_c, 0, 64, 122
2,215665, Control_c, 0, 64, 127
2,215688, Note_on_c, 0, 68, 60
2,215715, Note_on_c, 0, 59, 0
2,215784, Note_on_c, 0, 68, 0
2,215940, Note_on_c, 0, 67, 0
2,215972, Control_c, 0, 64, 120
2,215991, Control_c, 0, 64, 109
2,216010, Control_c, 0, 64, 93
2,216029, Control_c, 0, 64, 78
2,216050, Control_c, 0, 64, 66
2,216069, Control_c, 0, 64, 58
2,216069, Note_on_c, 0, 58, 38
2,216080, Note_on_c, 0, 70, 53
2,216087, Control_c, 0, 64, 54
2,216128, Control_c, 0, 64, 56
2,216143, Control_c, 0, 64, 58
2,216166, Control_c, 0, 64, 61
2,216181, Control_c, 0, 64, 63
2,216201, Control_c, 0, 64, 65
2,216222, Control_c, 0, 64, 69
2,216238, Note_on_c, 0, 70, 0
2,216242, Control_c, 0, 64, 74
2,216262, Control_c, 0, 64, 82
2,216266, Note_on_c, 0, 71, 61
2,216280, Control_c, 0, 64, 91
2,216299, Control_c, 0, 64, 97
2,216312, Note_on_c, 0, 75, 0
2,216317, Control_c, 0, 64, 99
2,216358, Control_c, 0, 64, 98
2,216377, Control_c, 0, 64, 97
2,216377, Note_on_c, 0, 71, 0
2,216394, Control_c, 0, 64, 94
2,216416, Control_c, 0, 64, 88
2,216432, Control_c, 0, 64, 76
2,216452, Control_c, 0, 64, 65
2,216463, Note_on_c, 0, 77, 71
2,216471, Control_c, 0, 64, 58
2,216475, Note_on_c, 0, 73, 64
2,216490, Control_c, 0, 64, 54
2,216546, Control_c, 0, 64, 56
2,216566, Control_c, 0, 64, 59
2,216587, Control_c, 0, 64, 61
2,216605, Control_c, 0, 64, 63
2,216622, Control_c, 0, 64, 65
2,216642, Control_c, 0, 64, 67
2,216664, Control_c, 0, 64, 71
2,216679, Note_on_c, 0, 77, 0
2,216684, Control_c, 0, 64, 75
2,216703, Control_c, 0, 64, 81
2,216721, Control_c, 0, 64, 84
2,216743, Control_c, 0, 64, 85
2,216758, Control_c, 0, 64, 84
2,216778, Control_c, 0, 64, 83
2,216798, Control_c, 0, 64, 82
2,216820, Control_c, 0, 64, 80
2,216836, Control_c, 0, 64, 74
2,216854, Control_c, 0, 64, 67
2,216874, Control_c, 0, 64, 61
2,216894, Note_on_c, 0, 79, 62
2,216896, Control_c, 0, 64, 56
2,216912, Control_c, 0, 64, 54
2,216931, Control_c, 0, 64, 53
2,216953, Control_c, 0, 64, 54
2,216990, Control_c, 0, 64, 55
2,217008, Control_c, 0, 64, 57
2,217028, Control_c, 0, 64, 60
2,217047, Control_c, 0, 64, 62
2,217065, Control_c, 0, 64, 63
2,217089, Control_c, 0, 64, 65
2,217105, Control_c, 0, 64, 67
2,217124, Control_c, 0, 64, 69
2,217144, Control_c, 0, 64, 71
2,217163, Control_c, 0, 64, 74
2,217183, Control_c, 0, 64, 77
2,217200, Control_c, 0, 64, 79
2,217219, Control_c, 0, 64, 81
2,217238, Control_c, 0, 64, 83
2,217251, Note_on_c, 0, 79, 0
2,217260, Control_c, 0, 64, 84
2,217277, Control_c, 0, 64, 85
2,217282, Note_on_c, 0, 73, 0
2,217294, Note_on_c, 0, 71, 54
2,217299, Control_c, 0, 64, 87
2,217316, Control_c, 0, 64, 89
2,217374, Control_c, 0, 64, 90
2,217400, Note_on_c, 0, 71, 0
2,217467, Note_on_c, 0, 70, 59
2,217509, Control_c, 0, 64, 89
2,217530, Control_c, 0, 64, 88
2,217530, Note_on_c, 0, 70, 0
2,217546, Control_c, 0, 64, 86
2,217568, Control_c, 0, 64, 83
2,217586, Control_c, 0, 64, 78
2,217606, Control_c, 0, 64, 73
2,217621, Control_c, 0, 64, 67
2,217643, Control_c, 0, 64, 62
2,217662, Control_c, 0, 64, 58
2,217680, Control_c, 0, 64, 56
2,217685, Note_on_c, 0, 80, 59
2,217692, Note_on_c, 0, 58, 0
2,217701, Control_c, 0, 64, 54
2,217701, Note_on_c, 0, 71, 42
2,217707, Note_on_c, 0, 56, 40
2,217718, Control_c, 0, 64, 53
2,217739, Control_c, 0, 64, 52
2,217756, Control_c, 0, 64, 49
2,217778, Control_c, 0, 64, 47
2,217796, Control_c, 0, 64, 44
2,217815, Control_c, 0, 64, 42
2,217835, Control_c, 0, 64, 41
2,217930, Control_c, 0, 64, 42
2,217949, Control_c, 0, 64, 44
2,217969, Control_c, 0, 64, 47
2,217986, Control_c, 0, 64, 52
2,218007, Control_c, 0, 64, 57
2,218027, Control_c, 0, 64, 59
2,218047, Control_c, 0, 64, 61
2,218065, Control_c, 0, 64, 62
2,218081, Note_on_c, 0, 80, 0
2,218085, Control_c, 0, 64, 63
2,218105, Control_c, 0, 64, 65
2,218114, Note_on_c, 0, 82, 55
2,218122, Control_c, 0, 64, 66
2,218140, Control_c, 0, 64, 68
2,218161, Control_c, 0, 64, 71
2,218180, Control_c, 0, 64, 73
2,218217, Control_c, 0, 64, 74
2,218237, Control_c, 0, 64, 77
2,218259, Control_c, 0, 64, 81
2,218275, Control_c, 0, 64, 87
2,218295, Control_c, 0, 64, 92
2,218314, Control_c, 0, 64, 94
2,218352, Control_c, 0, 64, 92
2,218361, Note_on_c, 0, 56, 0
2,218370, Control_c, 0, 64, 91
2,218391, Control_c, 0, 64, 88
2,218412, Control_c, 0, 64, 83
2,218431, Control_c, 0, 64, 78
2,218448, Control_c, 0, 64, 72
2,218468, Control_c, 0, 64, 65
2,218488, Control_c, 0, 64, 58
2,218507, Control_c, 0, 64, 53
2,218519, Note_on_c, 0, 82, 0
2,218526, Control_c, 0, 64, 50
2,218535, Note_on_c, 0, 80, 47
2,218542, Note_on_c, 0, 61, 49
2,218546, Control_c, 0, 64, 47
2,218564, Control_c, 0, 64, 45
2,218583, Control_c, 0, 64, 44
2,218602, Control_c, 0, 64, 43
2,218621, Control_c, 0, 64, 42
2,218679, Control_c, 0, 64, 44
2,218697, Control_c, 0, 64, 47
2,218717, Control_c, 0, 64, 51
2,218735, Control_c, 0, 64, 57
2,218756, Control_c, 0, 64, 60
2,218776, Control_c, 0, 64, 62
2,218796, Control_c, 0, 64, 64
2,218833, Control_c, 0, 64, 65
2,218852, Control_c, 0, 64, 67
2,218871, Control_c, 0, 64, 68
2,218889, Control_c, 0, 64, 70
2,218910, Control_c, 0, 64, 71
2,218930, Control_c, 0, 64, 72
2,218935, Note_on_c, 0, 80, 0
2,218939, Note_on_c, 0, 78, 68
2,219025, Control_c, 0, 64, 71
2,219086, Control_c, 0, 64, 70
2,219119, Control_c, 0, 64, 69
2,219139, Control_c, 0, 64, 68
2,219177, Control_c, 0, 64, 67
2,219196, Control_c, 0, 64, 66
2,219218, Control_c, 0, 64, 65
2,219236, Control_c, 0, 64, 64
2,219254, Control_c, 0, 64, 63
2,219274, Control_c, 0, 64, 62
2,219293, Control_c, 0, 64, 61
2,219312, Control_c, 0, 64, 60
2,219332, Control_c, 0, 64, 59
2,219349, Note_on_c, 0, 68, 72
2,219351, Control_c, 0, 64, 58
2,219374, Control_c, 0, 64, 56
2,219374, Note_on_c, 0, 77, 58
2,219389, Control_c, 0, 64, 54
2,219409, Control_c, 0, 64, 51
2,219411, Note_on_c, 0, 78, 0
2,219429, Control_c, 0, 64, 49
2,219449, Control_c, 0, 64, 48
2,219467, Control_c, 0, 64, 47
2,219485, Control_c, 0, 64, 45
2,219505, Control_c, 0, 64, 42
2,219524, Control_c, 0, 64, 38
2,219542, Control_c, 0, 64, 35
2,219561, Control_c, 0, 64, 32
2,219581, Control_c, 0, 64, 30
2,219598, Control_c, 0, 64, 27
2,219618, Control_c, 0, 64, 24
2,219638, Control_c, 0, 64, 19
2,219657, Control_c, 0, 64, 13
2,219675, Control_c, 0, 64, 0
2,219746, Note_on_c, 0, 63, 64
2,219753, Note_on_c, 0, 78, 74
2,219766, Note_on_c, 0, 61, 0
2,219794, Note_on_c, 0, 77, 0
2,220151, Note_on_c, 0, 61, 61
2,220155, Note_on_c, 0, 80, 72
2,220179, Note_on_c, 0, 63, 0
2,220197, Note_on_c, 0, 78, 0
2,220561, Control_c, 0, 64, 30
2,220573, Note_on_c, 0, 61, 0
2,220580, Control_c, 0, 64, 43
2,220602, Control_c, 0, 64, 54
2,220602, Note_on_c, 0, 59, 53
2,220619, Control_c, 0, 64, 59
2,220637, Control_c, 0, 64, 60
2,220652, Note_on_c, 0, 71, 0
2,220657, Control_c, 0, 64, 61
2,220677, Control_c, 0, 64, 62
2,220694, Control_c, 0, 64, 63
2,220716, Control_c, 0, 64, 65
2,220735, Control_c, 0, 64, 67
2,220753, Control_c, 0, 64, 69
2,220770, Control_c, 0, 64, 73
2,220790, Control_c, 0, 64, 75
2,220809, Control_c, 0, 64, 76
2,220849, Note_on_c, 0, 68, 0
2,220869, Control_c, 0, 64, 75
2,220907, Control_c, 0, 64, 74
2,220927, Control_c, 0, 64, 73
2,220945, Control_c, 0, 64, 70
2,220956, Note_on_c, 0, 59, 0
2,220965, Control_c, 0, 64, 67
2,220974, Note_on_c, 0, 73, 79
2,220979, Note_on_c, 0, 58, 57
2,220983, Control_c, 0, 64, 64
2,221002, Control_c, 0, 64, 61
2,221025, Control_c, 0, 64, 59
2,221030, Note_on_c, 0, 80, 0
2,221041, Control_c, 0, 64, 56
2,221060, Control_c, 0, 64, 53
2,221080, Control_c, 0, 64, 50
2,221098, Control_c, 0, 64, 48
2,221120, Control_c, 0, 64, 45
2,221137, Control_c, 0, 64, 43
2,221157, Control_c, 0, 64, 41
2,221176, Control_c, 0, 64, 39
2,221194, Control_c, 0, 64, 38
2,221270, Control_c, 0, 64, 37
2,221309, Control_c, 0, 64, 36
2,221327, Control_c, 0, 64, 35
2,221338, Note_on_c, 0, 58, 0
2,221347, Control_c, 0, 64, 34
2,221367, Note_on_c, 0, 78, 76
2,221385, Control_c, 0, 64, 33
2,221394, Note_on_c, 0, 59, 43
2,221405, Control_c, 0, 64, 32
2,221422, Control_c, 0, 64, 31
2,221444, Control_c, 0, 64, 30
2,221463, Control_c, 0, 64, 29
2,221481, Control_c, 0, 64, 28
2,221673, Control_c, 0, 64, 27
2,221776, Note_on_c, 0, 77, 69
2,221788, Control_c, 0, 64, 26
2,221792, Note_on_c, 0, 59, 0
2,221801, Note_on_c, 0, 61, 42
2,221808, Control_c, 0, 64, 25
2,221812, Note_on_c, 0, 78, 0
2,221830, Control_c, 0, 64, 24
2,221848, Control_c, 0, 64, 22
2,221865, Control_c, 0, 64, 20
2,221888, Control_c, 0, 64, 18
2,221905, Control_c, 0, 64, 17
2,221923, Control_c, 0, 64, 15
2,221943, Control_c, 0, 64, 13
2,222039, Control_c, 0, 64, 12
2,222096, Control_c, 0, 64, 11
2,222173, Control_c, 0, 64, 10
2,222191, Note_on_c, 0, 78, 64
2,222195, Note_on_c, 0, 77, 0
2,222269, Control_c, 0, 64, 9
2,222307, Control_c, 0, 64, 8
2,222352, Note_on_c, 0, 80, 72
2,222363, Note_on_c, 0, 78, 0
2,222367, Control_c, 0, 64, 0
2,222554, Note_on_c, 0, 80, 0
2,222554, Note_on_c, 0, 82, 71
2,222563, Note_on_c, 0, 54, 52
2,222583, Note_on_c, 0, 61, 0
2,222752, Note_on_c, 0, 80, 77
2,222787, Note_on_c, 0, 82, 0
2,222948, Note_on_c, 0, 82, 75
2,222954, Note_on_c, 0, 80, 0
2,223337, Note_on_c, 0, 54, 0
2,223350, Note_on_c, 0, 75, 81
2,223363, Note_on_c, 0, 59, 56
2,223386, Note_on_c, 0, 73, 0
2,223401, Note_on_c, 0, 82, 0
2,223421, Control_c, 0, 64, 11
2,223441, Control_c, 0, 64, 20
2,223458, Control_c, 0, 64, 29
2,223478, Control_c, 0, 64, 40
2,223500, Control_c, 0, 64, 50
2,223518, Control_c, 0, 64, 58
2,223538, Control_c, 0, 64, 61
2,223557, Control_c, 0, 64, 62
2,223593, Control_c, 0, 64, 64
2,223613, Control_c, 0, 64, 65
2,223635, Control_c, 0, 64, 66
2,223652, Control_c, 0, 64, 67
2,223671, Control_c, 0, 64, 68
2,223792, Note_on_c, 0, 80, 60
2,223983, Note_on_c, 0, 78, 64
2,223999, Note_on_c, 0, 80, 0
2,224097, Control_c, 0, 64, 67
2,224132, Control_c, 0, 64, 65
2,224152, Control_c, 0, 64, 64
2,224159, Note_on_c, 0, 73, 69
2,224165, Note_on_c, 0, 77, 68
2,224175, Control_c, 0, 64, 61
2,224175, Note_on_c, 0, 75, 0
2,224188, Control_c, 0, 64, 57
2,224188, Note_on_c, 0, 78, 0
2,224209, Control_c, 0, 64, 53
2,224227, Control_c, 0, 64, 49
2,224247, Control_c, 0, 64, 44
2,224265, Control_c, 0, 64, 39
2,224285, Control_c, 0, 64, 34
2,224305, Control_c, 0, 64, 30
2,224324, Control_c, 0, 64, 27
2,224344, Control_c, 0, 64, 25
2,224361, Control_c, 0, 64, 23
2,224382, Control_c, 0, 64, 21
2,224402, Control_c, 0, 64, 19
2,224418, Control_c, 0, 64, 17
2,224439, Control_c, 0, 64, 15
2,224460, Control_c, 0, 64, 13
2,224518, Control_c, 0, 64, 14
2,224518, Note_on_c, 0, 77, 0
2,224534, Control_c, 0, 64, 24
2,224546, Note_on_c, 0, 59, 0
2,224551, Note_on_c, 0, 78, 68
2,224555, Control_c, 0, 64, 36
2,224563, Note_on_c, 0, 58, 52
2,224578, Control_c, 0, 64, 47
2,224594, Control_c, 0, 64, 57
2,224610, Control_c, 0, 64, 62
2,224630, Control_c, 0, 64, 63
2,224650, Control_c, 0, 64, 64
2,224669, Control_c, 0, 64, 65
2,224689, Control_c, 0, 64, 69
2,224707, Control_c, 0, 64, 73
2,224727, Control_c, 0, 64, 78
2,224738, Note_on_c, 0, 73, 0
2,224746, Control_c, 0, 64, 81
2,224803, Control_c, 0, 64, 80
2,224823, Control_c, 0, 64, 79
2,224841, Control_c, 0, 64, 78
2,224859, Control_c, 0, 64, 77
2,224879, Control_c, 0, 64, 74
2,224898, Control_c, 0, 64, 70
2,224919, Control_c, 0, 64, 66
2,224933, Note_on_c, 0, 58, 0
2,224939, Control_c, 0, 64, 62
2,224947, Note_on_c, 0, 71, 59
2,224952, Note_on_c, 0, 56, 60
2,224958, Control_c, 0, 64, 57
2,224976, Control_c, 0, 64, 54
2,224997, Control_c, 0, 64, 50
2,225018, Control_c, 0, 64, 47
2,225034, Control_c, 0, 64, 44
2,225053, Control_c, 0, 64, 40
2,225073, Control_c, 0, 64, 36
2,225092, Control_c, 0, 64, 33
2,225112, Control_c, 0, 64, 31
2,225129, Control_c, 0, 64, 30
2,225171, Control_c, 0, 64, 29
2,225187, Control_c, 0, 64, 28
2,225205, Control_c, 0, 64, 27
2,225225, Control_c, 0, 64, 26
2,225304, Control_c, 0, 64, 28
2,225323, Control_c, 0, 64, 34
2,225329, Note_on_c, 0, 77, 61
2,225334, Note_on_c, 0, 78, 0
2,225342, Control_c, 0, 64, 43
2,225359, Control_c, 0, 64, 52
2,225380, Control_c, 0, 64, 60
2,225400, Control_c, 0, 64, 62
2,225418, Control_c, 0, 64, 63
2,225438, Note_on_c, 0, 77, 0
2,225440, Control_c, 0, 64, 64
2,225460, Control_c, 0, 64, 66
2,225476, Control_c, 0, 64, 69
2,225494, Control_c, 0, 64, 73
2,225514, Control_c, 0, 64, 78
2,225534, Control_c, 0, 64, 80
2,225553, Control_c, 0, 64, 81
2,225610, Control_c, 0, 64, 80
2,225648, Control_c, 0, 64, 79
2,225666, Control_c, 0, 64, 76
2,225687, Control_c, 0, 64, 70
2,225706, Control_c, 0, 64, 64
2,225713, Note_on_c, 0, 71, 0
2,225717, Note_on_c, 0, 56, 0
2,225724, Control_c, 0, 64, 58
2,225738, Note_on_c, 0, 78, 63
2,225746, Control_c, 0, 64, 53
2,225746, Note_on_c, 0, 70, 55
2,225751, Note_on_c, 0, 54, 51
2,225767, Control_c, 0, 64, 50
2,225783, Control_c, 0, 64, 48
2,225803, Control_c, 0, 64, 46
2,225822, Control_c, 0, 64, 44
2,225842, Control_c, 0, 64, 41
2,225860, Control_c, 0, 64, 37
2,225879, Control_c, 0, 64, 34
2,225898, Control_c, 0, 64, 33
2,225956, Control_c, 0, 64, 32
2,225974, Control_c, 0, 64, 31
2,225994, Control_c, 0, 64, 30
2,226072, Control_c, 0, 64, 32
2,226091, Control_c, 0, 64, 39
2,226108, Control_c, 0, 64, 49
2,226117, Note_on_c, 0, 54, 0
2,226128, Control_c, 0, 64, 58
2,226142, Note_on_c, 0, 73, 72
2,226149, Control_c, 0, 64, 62
2,226153, Note_on_c, 0, 52, 53
2,226166, Control_c, 0, 64, 64
2,226170, Note_on_c, 0, 70, 0
2,226175, Note_on_c, 0, 78, 0
2,226186, Control_c, 0, 64, 66
2,226204, Control_c, 0, 64, 72
2,226227, Control_c, 0, 64, 81
2,226232, Note_on_c, 0, 52, 0
2,226245, Control_c, 0, 64, 95
2,226263, Control_c, 0, 64, 127
2,226493, Control_c, 0, 64, 109
2,226512, Control_c, 0, 64, 90
2,226516, Note_on_c, 0, 51, 66
2,226519, Note_on_c, 0, 78, 80
2,226523, Note_on_c, 0, 73, 0
2,226532, Note_on_c, 0, 71, 74
2,226536, Control_c, 0, 64, 76
2,226550, Control_c, 0, 64, 66
2,226569, Control_c, 0, 64, 59
2,226588, Control_c, 0, 64, 54
2,226607, Control_c, 0, 64, 51
2,226647, Control_c, 0, 64, 50
2,226686, Control_c, 0, 64, 49
2,226707, Control_c, 0, 64, 47
2,226707, Note_on_c, 0, 49, 66
2,226724, Control_c, 0, 64, 46
2,226733, Note_on_c, 0, 51, 0
2,226745, Control_c, 0, 64, 45
2,226840, Control_c, 0, 64, 44
2,226903, Note_on_c, 0, 51, 76
2,226914, Note_on_c, 0, 49, 0
2,226954, Control_c, 0, 64, 43
2,227080, Note_on_c, 0, 52, 78
2,227085, Note_on_c, 0, 51, 0
2,227164, Control_c, 0, 64, 42
2,227290, Note_on_c, 0, 73, 85
2,227295, Note_on_c, 0, 46, 74
2,227295, Note_on_c, 0, 52, 0
2,227316, Note_on_c, 0, 71, 0
2,227327, Note_on_c, 0, 78, 0
2,227357, Control_c, 0, 64, 41
2,227692, Note_on_c, 0, 42, 67
2,227692, Note_on_c, 0, 46, 0
2,227706, Control_c, 0, 64, 40
2,227710, Note_on_c, 0, 80, 78
2,228087, Note_on_c, 0, 42, 0
2,228093, Note_on_c, 0, 44, 67
2,228093, Note_on_c, 0, 78, 70
2,228105, Control_c, 0, 64, 42
2,228126, Note_on_c, 0, 80, 0
2,228130, Control_c, 0, 64, 46
2,228144, Control_c, 0, 64, 51
2,228163, Control_c, 0, 64, 55
2,228181, Control_c, 0, 64, 57
2,228201, Control_c, 0, 64, 59
2,228257, Control_c, 0, 64, 60
2,228395, Control_c, 0, 64, 59
2,228415, Control_c, 0, 64, 57
2,228435, Control_c, 0, 64, 53
2,228452, Control_c, 0, 64, 48
2,228472, Control_c, 0, 64, 42
2,228485, Note_on_c, 0, 44, 0
2,228485, Note_on_c, 0, 46, 66
2,228489, Control_c, 0, 64, 39
2,228489, Note_on_c, 0, 76, 72
2,228530, Control_c, 0, 64, 43
2,228538, Note_on_c, 0, 78, 0
2,228547, Control_c, 0, 64, 54
2,228567, Control_c, 0, 64, 62
2,228588, Control_c, 0, 64, 65
2,228604, Control_c, 0, 64, 70
2,228624, Control_c, 0, 64, 78
2,228644, Control_c, 0, 64, 87
2,228662, Control_c, 0, 64, 103
2,228681, Control_c, 0, 64, 115
2,228688, Note_on_c, 0, 46, 0
2,228688, Note_on_c, 0, 76, 0
2,228703, Control_c, 0, 64, 122
2,228721, Control_c, 0, 64, 127
2,228815, Note_on_c, 0, 73, 0
2,228837, Control_c, 0, 64, 109
2,228854, Control_c, 0, 64, 96
2,228875, Control_c, 0, 64, 83
2,228885, Note_on_c, 0, 66, 75
2,228887, Note_on_c, 0, 75, 74
2,228894, Control_c, 0, 64, 73
2,228900, Note_on_c, 0, 47, 57
2,228914, Control_c, 0, 64, 64
2,228932, Control_c, 0, 64, 59
2,228952, Control_c, 0, 64, 55
2,228972, Control_c, 0, 64, 53
2,228989, Control_c, 0, 64, 52
2,229010, Control_c, 0, 64, 51
2,229028, Control_c, 0, 64, 49
2,229047, Control_c, 0, 64, 47
2,229065, Control_c, 0, 64, 44
2,229084, Control_c, 0, 64, 43
2,229277, Control_c, 0, 64, 44
2,229282, Note_on_c, 0, 47, 0
2,229300, Note_on_c, 0, 49, 54
2,229304, Note_on_c, 0, 76, 71
2,229316, Control_c, 0, 64, 45
2,229329, Note_on_c, 0, 75, 0
2,229355, Control_c, 0, 64, 46
2,229603, Control_c, 0, 64, 47
2,229659, Note_on_c, 0, 76, 0
2,229684, Note_on_c, 0, 78, 82
2,229695, Note_on_c, 0, 49, 0
2,229697, Note_on_c, 0, 51, 58
2,229852, Control_c, 0, 64, 48
2,229872, Control_c, 0, 64, 51
2,229892, Control_c, 0, 64, 56
2,229913, Control_c, 0, 64, 61
2,229931, Control_c, 0, 64, 63
2,229950, Control_c, 0, 64, 65
2,229968, Control_c, 0, 64, 68
2,229988, Control_c, 0, 64, 75
2,230006, Control_c, 0, 64, 88
2,230026, Control_c, 0, 64, 127
2,230057, Note_on_c, 0, 51, 0
2,230086, Note_on_c, 0, 52, 62
2,230206, Note_on_c, 0, 66, 0
2,230265, Note_on_c, 0, 52, 0
2,230274, Note_on_c, 0, 54, 67
2,230323, Note_on_c, 0, 54, 0
2,230447, Control_c, 0, 64, 111
2,230468, Note_on_c, 0, 71, 82
2,230472, Control_c, 0, 64, 84
2,230489, Control_c, 0, 64, 70
2,230493, Note_on_c, 0, 56, 56
2,230493, Note_on_c, 0, 68, 70
2,230500, Note_on_c, 0, 78, 0
2,230508, Control_c, 0, 64, 61
2,230524, Control_c, 0, 64, 52
2,230544, Control_c, 0, 64, 46
2,230564, Control_c, 0, 64, 43
2,230581, Control_c, 0, 64, 42
2,230601, Control_c, 0, 64, 41
2,230620, Control_c, 0, 64, 39
2,230640, Control_c, 0, 64, 36
2,230660, Control_c, 0, 64, 33
2,230677, Control_c, 0, 64, 31
2,230697, Control_c, 0, 64, 30
2,230792, Control_c, 0, 64, 32
2,230810, Control_c, 0, 64, 35
2,230831, Control_c, 0, 64, 43
2,230849, Control_c, 0, 64, 53
2,230860, Note_on_c, 0, 56, 0
2,230869, Control_c, 0, 64, 60
2,230874, Note_on_c, 0, 58, 69
2,230889, Control_c, 0, 64, 63
2,230907, Control_c, 0, 64, 66
2,230925, Control_c, 0, 64, 72
2,230946, Control_c, 0, 64, 83
2,230948, Note_on_c, 0, 68, 0
2,230965, Control_c, 0, 64, 105
2,230985, Control_c, 0, 64, 127
2,231032, Note_on_c, 0, 58, 0
2,231051, Note_on_c, 0, 59, 77
2,231121, Note_on_c, 0, 59, 0
2,231274, Note_on_c, 0, 49, 65
2,231288, Note_on_c, 0, 76, 89
2,231292, Control_c, 0, 64, 91
2,231313, Control_c, 0, 64, 75
2,231320, Note_on_c, 0, 71, 0
2,231330, Control_c, 0, 64, 65
2,231348, Control_c, 0, 64, 58
2,231368, Control_c, 0, 64, 54
2,231386, Control_c, 0, 64, 51
2,231408, Control_c, 0, 64, 47
2,231427, Control_c, 0, 64, 40
2,231448, Control_c, 0, 64, 27
2,231463, Control_c, 0, 64, 0
2,231651, Note_on_c, 0, 49, 0
2,231670, Note_on_c, 0, 51, 64
2,231820, Note_on_c, 0, 51, 0
2,231860, Note_on_c, 0, 52, 59
2,232014, Note_on_c, 0, 52, 0
2,232068, Note_on_c, 0, 42, 64
2,232435, Note_on_c, 0, 42, 0
2,232475, Note_on_c, 0, 54, 48
2,232475, Note_on_c, 0, 75, 66
2,232493, Note_on_c, 0, 76, 0
2,232879, Note_on_c, 0, 73, 64
2,232887, Note_on_c, 0, 70, 56
2,232927, Note_on_c, 0, 75, 0
2,233261, Note_on_c, 0, 54, 0
2,233270, Control_c, 0, 64, 21
2,233288, Control_c, 0, 64, 38
2,233303, Note_on_c, 0, 55, 42
2,233308, Control_c, 0, 64, 51
2,233327, Control_c, 0, 64, 60
2,233345, Control_c, 0, 64, 63
2,233363, Control_c, 0, 64, 66
2,233384, Control_c, 0, 64, 71
2,233404, Control_c, 0, 64, 81
2,233404, Note_on_c, 0, 70, 0
2,233423, Control_c, 0, 64, 102
2,233440, Control_c, 0, 64, 127
2,233467, Note_on_c, 0, 55, 0
2,233693, Control_c, 0, 64, 98
2,233710, Control_c, 0, 64, 84
2,233729, Control_c, 0, 64, 72
2,233733, Note_on_c, 0, 71, 51
2,233742, Note_on_c, 0, 68, 46
2,233751, Control_c, 0, 64, 64
2,233769, Control_c, 0, 64, 58
2,233774, Note_on_c, 0, 56, 33
2,233785, Control_c, 0, 64, 54
2,233805, Control_c, 0, 64, 51
2,233818, Note_on_c, 0, 73, 0
2,233826, Control_c, 0, 64, 49
2,233845, Control_c, 0, 64, 47
2,233862, Control_c, 0, 64, 44
2,233882, Control_c, 0, 64, 41
2,233902, Control_c, 0, 64, 37
2,233924, Control_c, 0, 64, 35
2,233939, Control_c, 0, 64, 34
2,234036, Control_c, 0, 64, 35
2,234057, Control_c, 0, 64, 37
2,234074, Control_c, 0, 64, 41
2,234094, Control_c, 0, 64, 48
2,234116, Control_c, 0, 64, 55
2,234134, Control_c, 0, 64, 59
2,234154, Control_c, 0, 64, 61
2,234171, Control_c, 0, 64, 62
2,234189, Control_c, 0, 64, 64
2,234198, Note_on_c, 0, 55, 49
2,234207, Note_on_c, 0, 56, 0
2,234211, Control_c, 0, 64, 67
2,234228, Control_c, 0, 64, 72
2,234250, Control_c, 0, 64, 80
2,234268, Control_c, 0, 64, 90
2,234286, Control_c, 0, 64, 95
2,234304, Control_c, 0, 64, 97
2,234401, Control_c, 0, 64, 96
2,234440, Control_c, 0, 64, 95
2,234457, Control_c, 0, 64, 93
2,234478, Control_c, 0, 64, 91
2,234499, Control_c, 0, 64, 88
2,234519, Control_c, 0, 64, 83
2,234519, Note_on_c, 0, 55, 0
2,234537, Control_c, 0, 64, 78
2,234555, Control_c, 0, 64, 72
2,234555, Note_on_c, 0, 76, 76
2,234559, Note_on_c, 0, 71, 0
2,234572, Note_on_c, 0, 56, 46
2,234576, Control_c, 0, 64, 67
2,234593, Control_c, 0, 64, 62
2,234602, Note_on_c, 0, 68, 0
2,234614, Control_c, 0, 64, 58
2,234632, Control_c, 0, 64, 55
2,234652, Control_c, 0, 64, 53
2,234670, Control_c, 0, 64, 51
2,234690, Control_c, 0, 64, 50
2,234708, Control_c, 0, 64, 49
2,234727, Control_c, 0, 64, 48
2,234749, Control_c, 0, 64, 46
2,234766, Control_c, 0, 64, 44
2,234784, Control_c, 0, 64, 43
2,234841, Control_c, 0, 64, 42
2,234861, Control_c, 0, 64, 41
2,234883, Control_c, 0, 64, 39
2,234922, Note_on_c, 0, 56, 0
2,234955, Note_on_c, 0, 58, 58
2,235366, Note_on_c, 0, 66, 75
2,235377, Note_on_c, 0, 58, 0
2,235384, Note_on_c, 0, 59, 49
2,235451, Note_on_c, 0, 76, 0
2,235725, Control_c, 0, 64, 41
2,235746, Control_c, 0, 64, 46
2,235765, Control_c, 0, 64, 53
2,235769, Note_on_c, 0, 59, 0
2,235774, Note_on_c, 0, 74, 73
2,235787, Control_c, 0, 64, 58
2,235787, Note_on_c, 0, 58, 48
2,235804, Control_c, 0, 64, 61
2,235821, Control_c, 0, 64, 64
2,235827, Note_on_c, 0, 66, 0
2,235843, Control_c, 0, 64, 66
2,235861, Control_c, 0, 64, 70
2,235880, Control_c, 0, 64, 77
2,235899, Control_c, 0, 64, 87
2,235917, Control_c, 0, 64, 100
2,235938, Control_c, 0, 64, 120
2,235960, Control_c, 0, 64, 127
2,236131, Control_c, 0, 64, 109
2,236148, Control_c, 0, 64, 94
2,236168, Control_c, 0, 64, 81
2,236172, Note_on_c, 0, 74, 0
2,236176, Note_on_c, 0, 75, 69
2,236188, Control_c, 0, 64, 70
2,236192, Note_on_c, 0, 56, 47
2,236192, Note_on_c, 0, 71, 65
2,236209, Control_c, 0, 64, 63
2,236209, Note_on_c, 0, 58, 0
2,236225, Control_c, 0, 64, 57
2,236246, Control_c, 0, 64, 54
2,236264, Control_c, 0, 64, 53
2,236323, Control_c, 0, 64, 52
2,236343, Control_c, 0, 64, 51
2,236362, Control_c, 0, 64, 50
2,236379, Control_c, 0, 64, 49
2,236418, Control_c, 0, 64, 48
2,236455, Control_c, 0, 64, 47
2,236476, Control_c, 0, 64, 45
2,236492, Control_c, 0, 64, 44
2,236516, Control_c, 0, 64, 42
2,236520, Note_on_c, 0, 56, 0
2,236536, Control_c, 0, 64, 41
2,236558, Note_on_c, 0, 54, 53
2,236800, Control_c, 0, 64, 40
2,236860, Note_on_c, 0, 54, 0
2,236898, Control_c, 0, 64, 41
2,236915, Control_c, 0, 64, 46
2,236935, Control_c, 0, 64, 55
2,236947, Note_on_c, 0, 53, 64
2,236955, Control_c, 0, 64, 62
2,236974, Control_c, 0, 64, 66
2,236992, Control_c, 0, 64, 71
2,237012, Control_c, 0, 64, 85
2,237029, Note_on_c, 0, 71, 0
2,237033, Control_c, 0, 64, 127
2,237078, Note_on_c, 0, 75, 0
2,237262, Note_on_c, 0, 53, 0
2,237334, Note_on_c, 0, 75, 90
2,237354, Note_on_c, 0, 54, 64
2,237721, Control_c, 0, 64, 91
2,237728, Note_on_c, 0, 54, 0
2,237732, Note_on_c, 0, 73, 90
2,237737, Note_on_c, 0, 80, 82
2,237742, Control_c, 0, 64, 73
2,237762, Control_c, 0, 64, 62
2,237767, Note_on_c, 0, 53, 38
2,237776, Note_on_c, 0, 75, 0
2,237780, Control_c, 0, 64, 57
2,237799, Control_c, 0, 64, 55
2,237833, Note_on_c, 0, 52, 3
2,237877, Control_c, 0, 64, 53
2,237881, Note_on_c, 0, 52, 0
2,237896, Control_c, 0, 64, 52
2,237972, Control_c, 0, 64, 51
2,238010, Control_c, 0, 64, 50
2,238031, Control_c, 0, 64, 49
2,238049, Control_c, 0, 64, 48
2,238102, Note_on_c, 0, 53, 0
2,238108, Control_c, 0, 64, 47
2,238108, Note_on_c, 0, 71, 75
2,238135, Note_on_c, 0, 51, 47
2,238139, Note_on_c, 0, 73, 0
2,238148, Control_c, 0, 64, 46
2,238166, Control_c, 0, 64, 45
2,238183, Control_c, 0, 64, 44
2,238222, Control_c, 0, 64, 43
2,238259, Control_c, 0, 64, 42
2,238280, Control_c, 0, 64, 41
2,238298, Control_c, 0, 64, 40
2,238317, Control_c, 0, 64, 38
2,238336, Control_c, 0, 64, 37
2,238357, Control_c, 0, 64, 35
2,238375, Control_c, 0, 64, 31
2,238395, Control_c, 0, 64, 24
2,238415, Control_c, 0, 64, 9
2,238433, Control_c, 0, 64, 0
2,238455, Note_on_c, 0, 51, 0
2,238539, Note_on_c, 0, 70, 63
2,238553, Note_on_c, 0, 50, 42
2,238573, Note_on_c, 0, 71, 0
2,238585, Control_c, 0, 64, 36
2,238608, Control_c, 0, 64, 52
2,238626, Control_c, 0, 64, 61
2,238644, Control_c, 0, 64, 65
2,238663, Control_c, 0, 64, 68
2,238681, Control_c, 0, 64, 75
2,238697, Note_on_c, 0, 50, 0
2,238702, Control_c, 0, 64, 90
2,238722, Control_c, 0, 64, 127
2,238740, Note_on_c, 0, 70, 0
2,238755, Note_on_c, 0, 80, 0
2,238952, Note_on_c, 0, 80, 84
2,238956, Note_on_c, 0, 62, 49
2,238956, Note_on_c, 0, 71, 83
2,239118, Note_on_c, 0, 62, 0
2,239118, Note_on_c, 0, 63, 76
2,239189, Note_on_c, 0, 80, 0
2,239239, Control_c, 0, 64, 111
2,239259, Control_c, 0, 64, 98
2,239283, Control_c, 0, 64, 85
2,239283, Note_on_c, 0, 71, 0
2,239298, Control_c, 0, 64, 75
2,239310, Note_on_c, 0, 79, 86
2,239316, Control_c, 0, 64, 67
2,239320, Note_on_c, 0, 73, 79
2,239327, Note_on_c, 0, 63, 0
2,239335, Control_c, 0, 64, 60
2,239348, Note_on_c, 0, 64, 62
2,239356, Control_c, 0, 64, 54
2,239377, Control_c, 0, 64, 50
2,239392, Control_c, 0, 64, 46
2,239412, Control_c, 0, 64, 41
2,239433, Control_c, 0, 64, 35
2,239451, Control_c, 0, 64, 27
2,239468, Control_c, 0, 64, 22
2,239490, Control_c, 0, 64, 20
2,239527, Control_c, 0, 64, 19
2,239547, Control_c, 0, 64, 17
2,239565, Control_c, 0, 64, 11
2,239584, Control_c, 0, 64, 0
2,239681, Control_c, 0, 64, 11
2,239701, Control_c, 0, 64, 23
2,239723, Control_c, 0, 64, 37
2,239723, Note_on_c, 0, 78, 72
2,239745, Control_c, 0, 64, 50
2,239745, Note_on_c, 0, 58, 54
2,239745, Note_on_c, 0, 64, 0
2,239745, Note_on_c, 0, 79, 0
2,239759, Control_c, 0, 64, 60
2,239779, Control_c, 0, 64, 64
2,239797, Control_c, 0, 64, 66
2,239816, Control_c, 0, 64, 72
2,239833, Control_c, 0, 64, 82
2,239855, Note_on_c, 0, 73, 0
2,239859, Control_c, 0, 64, 95
2,239863, Note_on_c, 0, 78, 0
2,239874, Control_c, 0, 64, 127
2,240010, Note_on_c, 0, 58, 0
2,240065, Control_c, 0, 64, 97
2,240087, Control_c, 0, 64, 76
2,240104, Control_c, 0, 64, 62
2,240109, Note_on_c, 0, 59, 52
2,240109, Note_on_c, 0, 68, 86
2,240122, Control_c, 0, 64, 51
2,240142, Control_c, 0, 64, 45
2,240181, Control_c, 0, 64, 46
2,240199, Control_c, 0, 64, 48
2,240219, Control_c, 0, 64, 51
2,240239, Control_c, 0, 64, 55
2,240257, Control_c, 0, 64, 58
2,240275, Control_c, 0, 64, 60
2,240295, Control_c, 0, 64, 61
2,240314, Control_c, 0, 64, 63
2,240336, Control_c, 0, 64, 64
2,240355, Control_c, 0, 64, 67
2,240371, Control_c, 0, 64, 70
2,240391, Control_c, 0, 64, 75
2,240409, Control_c, 0, 64, 79
2,240431, Control_c, 0, 64, 85
2,240448, Control_c, 0, 64, 90
2,240469, Control_c, 0, 64, 95
2,240473, Note_on_c, 0, 59, 0
2,240486, Control_c, 0, 64, 100
2,240506, Control_c, 0, 64, 106
2,240511, Note_on_c, 0, 60, 55
2,240511, Note_on_c, 0, 78, 83
2,240527, Control_c, 0, 64, 115
2,240544, Control_c, 0, 64, 127
2,240608, Note_on_c, 0, 68, 0
2,240664, Note_on_c, 0, 78, 0
2,240893, Control_c, 0, 64, 105
2,240898, Note_on_c, 0, 60, 0
2,240898, Note_on_c, 0, 77, 79
2,240907, Note_on_c, 0, 73, 87
2,240909, Control_c, 0, 64, 92
2,240925, Note_on_c, 0, 61, 51
2,240931, Control_c, 0, 64, 78
2,240947, Control_c, 0, 64, 69
2,240969, Control_c, 0, 64, 62
2,240987, Control_c, 0, 64, 57
2,241005, Control_c, 0, 64, 54
2,241045, Control_c, 0, 64, 53
2,241065, Control_c, 0, 64, 51
2,241082, Control_c, 0, 64, 47
2,241102, Control_c, 0, 64, 43
2,241124, Control_c, 0, 64, 39
2,241139, Control_c, 0, 64, 36
2,241159, Control_c, 0, 64, 35
2,241319, Note_on_c, 0, 61, 0
2,241342, Note_on_c, 0, 58, 48
2,241342, Note_on_c, 0, 76, 73
2,241373, Control_c, 0, 64, 34
2,241386, Note_on_c, 0, 77, 0
2,241408, Control_c, 0, 64, 33
2,241429, Control_c, 0, 64, 32
2,241447, Control_c, 0, 64, 31
2,241466, Control_c, 0, 64, 30
2,241488, Control_c, 0, 64, 28
2,241506, Control_c, 0, 64, 27
2,241524, Control_c, 0, 64, 25
2,241544, Control_c, 0, 64, 23
2,241563, Control_c, 0, 64, 20
2,241584, Control_c, 0, 64, 18
2,241600, Control_c, 0, 64, 12
2,241622, Control_c, 0, 64, 0
2,241702, Note_on_c, 0, 58, 0
2,241722, Note_on_c, 0, 55, 50
2,241727, Note_on_c, 0, 75, 69
2,241743, Note_on_c, 0, 76, 0
2,242050, Note_on_c, 0, 55, 0
2,242088, Note_on_c, 0, 73, 0
2,242097, Note_on_c, 0, 71, 72
2,242111, Note_on_c, 0, 56, 46
2,242481, Note_on_c, 0, 70, 65
2,242487, Note_on_c, 0, 73, 65
2,242502, Note_on_c, 0, 71, 0
2,242511, Note_on_c, 0, 75, 0
2,242834, Note_on_c, 0, 56, 0
2,242887, Control_c, 0, 64, 26
2,242891, Note_on_c, 0, 55, 42
2,242907, Control_c, 0, 64, 41
2,242929, Control_c, 0, 64, 53
2,242945, Control_c, 0, 64, 61
2,242964, Control_c, 0, 64, 63
2,242983, Control_c, 0, 64, 64
2,243001, Control_c, 0, 64, 66
2,243024, Control_c, 0, 64, 68
2,243041, Control_c, 0, 64, 72
2,243061, Control_c, 0, 64, 77
2,243079, Control_c, 0, 64, 83
2,243100, Control_c, 0, 64, 89
2,243119, Control_c, 0, 64, 94
2,243137, Control_c, 0, 64, 95
2,243175, Control_c, 0, 64, 94
2,243195, Control_c, 0, 64, 93
2,243213, Control_c, 0, 64, 90
2,243234, Control_c, 0, 64, 83
2,243252, Control_c, 0, 64, 73
2,243265, Note_on_c, 0, 55, 0
2,243274, Control_c, 0, 64, 62
2,243294, Control_c, 0, 64, 52
2,243307, Note_on_c, 0, 71, 65
2,243312, Control_c, 0, 64, 42
2,243328, Control_c, 0, 64, 33
2,243328, Note_on_c, 0, 56, 38
2,243348, Control_c, 0, 64, 32
2,243387, Control_c, 0, 64, 36
2,243407, Control_c, 0, 64, 45
2,243421, Note_on_c, 0, 73, 0
2,243426, Control_c, 0, 64, 54
2,243444, Control_c, 0, 64, 60
2,243464, Control_c, 0, 64, 63
2,243482, Control_c, 0, 64, 65
2,243502, Control_c, 0, 64, 67
2,243522, Control_c, 0, 64, 71
2,243541, Control_c, 0, 64, 79
2,243559, Control_c, 0, 64, 92
2,243579, Control_c, 0, 64, 115
2,243598, Control_c, 0, 64, 127
2,243661, Note_on_c, 0, 70, 0
2,243681, Note_on_c, 0, 56, 0
2,243711, Note_on_c, 0, 54, 55
2,243716, Note_on_c, 0, 63, 76
2,244058, Control_c, 0, 64, 101
2,244081, Control_c, 0, 64, 74
2,244100, Control_c, 0, 64, 61
2,244105, Note_on_c, 0, 68, 84
2,244117, Control_c, 0, 64, 48
2,244121, Note_on_c, 0, 54, 0
2,244126, Note_on_c, 0, 52, 58
2,244135, Control_c, 0, 64, 34
2,244155, Control_c, 0, 64, 27
2,244159, Note_on_c, 0, 71, 0
2,244169, Note_on_c, 0, 63, 0
2,244194, Control_c, 0, 64, 29
2,244211, Control_c, 0, 64, 38
2,244233, Control_c, 0, 64, 52
2,244251, Control_c, 0, 64, 60
2,244269, Control_c, 0, 64, 64
2,244288, Control_c, 0, 64, 66
2,244307, Control_c, 0, 64, 69
2,244329, Control_c, 0, 64, 75
2,244349, Control_c, 0, 64, 84
2,244366, Control_c, 0, 64, 100
2,244385, Control_c, 0, 64, 127
2,244497, Note_on_c, 0, 52, 0
2,244516, Note_on_c, 0, 71, 73
2,244519, Note_on_c, 0, 51, 58
2,244640, Note_on_c, 0, 51, 0
2,244829, Control_c, 0, 64, 108
2,244847, Control_c, 0, 64, 96
2,244867, Control_c, 0, 64, 88
2,244885, Control_c, 0, 64, 81
2,244908, Control_c, 0, 64, 74
2,244908, Note_on_c, 0, 49, 49
2,244925, Control_c, 0, 64, 67
2,244930, Note_on_c, 0, 70, 68
2,244945, Control_c, 0, 64, 62
2,244962, Control_c, 0, 64, 59
2,244983, Control_c, 0, 64, 57
2,245001, Control_c, 0, 64, 56
2,245021, Control_c, 0, 64, 53
2,245035, Note_on_c, 0, 71, 0
2,245041, Control_c, 0, 64, 49
2,245062, Control_c, 0, 64, 43
2,245079, Control_c, 0, 64, 40
2,245081, Note_on_c, 0, 68, 0
2,245097, Control_c, 0, 64, 38
2,245116, Control_c, 0, 64, 37
2,245139, Control_c, 0, 64, 36
2,245155, Control_c, 0, 64, 35
2,245174, Control_c, 0, 64, 32
2,245195, Control_c, 0, 64, 29
2,245215, Control_c, 0, 64, 26
2,245231, Control_c, 0, 64, 23
2,245251, Control_c, 0, 64, 22
2,245255, Note_on_c, 0, 49, 0
2,245271, Control_c, 0, 64, 21
2,245276, Note_on_c, 0, 68, 66
2,245288, Note_on_c, 0, 50, 43
2,245326, Control_c, 0, 64, 25
2,245346, Control_c, 0, 64, 33
2,245365, Control_c, 0, 64, 44
2,245387, Control_c, 0, 64, 54
2,245407, Control_c, 0, 64, 60
2,245426, Control_c, 0, 64, 61
2,245444, Control_c, 0, 64, 62
2,245462, Control_c, 0, 64, 63
2,245481, Control_c, 0, 64, 64
2,245500, Control_c, 0, 64, 65
2,245539, Control_c, 0, 64, 66
2,245576, Control_c, 0, 64, 65
2,245596, Control_c, 0, 64, 63
2,245614, Control_c, 0, 64, 59
2,245635, Control_c, 0, 64, 53
2,245643, Note_on_c, 0, 50, 0
2,245653, Control_c, 0, 64, 47
2,245672, Control_c, 0, 64, 43
2,245690, Note_on_c, 0, 68, 0
2,245694, Control_c, 0, 64, 42
2,245701, Note_on_c, 0, 51, 44
2,245711, Control_c, 0, 64, 43
2,245711, Note_on_c, 0, 66, 57
2,245730, Control_c, 0, 64, 49
2,245748, Control_c, 0, 64, 58
2,245770, Control_c, 0, 64, 63
2,245788, Control_c, 0, 64, 66
2,245809, Control_c, 0, 64, 69
2,245827, Control_c, 0, 64, 75
2,245845, Note_on_c, 0, 70, 0
2,245850, Control_c, 0, 64, 81
2,245866, Control_c, 0, 64, 88
2,245884, Control_c, 0, 64, 97
2,245903, Control_c, 0, 64, 107
2,245922, Control_c, 0, 64, 127
2,246098, Note_on_c, 0, 51, 0
2,246103, Note_on_c, 0, 78, 66
2,246129, Note_on_c, 0, 46, 47
2,246188, Note_on_c, 0, 78, 0
2,246223, Note_on_c, 0, 66, 0
2,246310, Control_c, 0, 64, 120
2,246328, Control_c, 0, 64, 116
2,246348, Control_c, 0, 64, 112
2,246365, Control_c, 0, 64, 108
2,246385, Control_c, 0, 64, 103
2,246403, Control_c, 0, 64, 98
2,246421, Control_c, 0, 64, 93
2,246441, Control_c, 0, 64, 86
2,246461, Control_c, 0, 64, 80
2,246480, Control_c, 0, 64, 73
2,246499, Control_c, 0, 64, 67
2,246519, Control_c, 0, 64, 61
2,246523, Note_on_c, 0, 47, 40
2,246523, Note_on_c, 0, 68, 59
2,246537, Control_c, 0, 64, 55
2,246541, Note_on_c, 0, 46, 0
2,246557, Control_c, 0, 64, 51
2,246575, Control_c, 0, 64, 46
2,246595, Control_c, 0, 64, 42
2,246613, Control_c, 0, 64, 39
2,246633, Control_c, 0, 64, 35
2,246652, Control_c, 0, 64, 30
2,246670, Control_c, 0, 64, 25
2,246690, Control_c, 0, 64, 22
2,246710, Control_c, 0, 64, 20
2,246731, Control_c, 0, 64, 19
2,246749, Control_c, 0, 64, 18
2,246768, Control_c, 0, 64, 16
2,246786, Control_c, 0, 64, 13
2,246807, Control_c, 0, 64, 10
2,246824, Control_c, 0, 64, 0
2,246902, Note_on_c, 0, 47, 0
2,246938, Note_on_c, 0, 48, 39
2,246943, Note_on_c, 0, 66, 44
2,247313, Note_on_c, 0, 66, 0
2,247324, Note_on_c, 0, 48, 0
2,247344, Note_on_c, 0, 49, 37
2,247362, Note_on_c, 0, 64, 44
2,247719, Note_on_c, 0, 64, 0
2,247746, Note_on_c, 0, 63, 44
2,247753, Note_on_c, 0, 44, 42
2,247755, Note_on_c, 0, 49, 0
2,248170, Note_on_c, 0, 63, 0
2,248210, Note_on_c, 0, 46, 40
2,248221, Note_on_c, 0, 62, 39
2,248249, Note_on_c, 0, 44, 0
2,248611, Control_c, 0, 64, 25
2,248629, Control_c, 0, 64, 44
2,248649, Control_c, 0, 64, 56
2,248669, Note_on_c, 0, 68, 0
2,248674, Control_c, 0, 64, 61
2,248680, Note_on_c, 0, 66, 52
2,248689, Control_c, 0, 64, 62
2,248706, Control_c, 0, 64, 64
2,248726, Control_c, 0, 64, 67
2,248748, Control_c, 0, 64, 69
2,248748, Note_on_c, 0, 62, 0
2,248764, Control_c, 0, 64, 71
2,248784, Control_c, 0, 64, 73
2,248831, Note_on_c, 0, 66, 0
2,248848, Note_on_c, 0, 65, 55
2,248859, Control_c, 0, 64, 74
2,248878, Control_c, 0, 64, 75
2,248916, Control_c, 0, 64, 74
2,248953, Control_c, 0, 64, 73
2,248973, Control_c, 0, 64, 71
2,248993, Control_c, 0, 64, 68
2,249014, Control_c, 0, 64, 66
2,249031, Control_c, 0, 64, 64
2,249037, Note_on_c, 0, 65, 0
2,249050, Control_c, 0, 64, 62
2,249069, Control_c, 0, 64, 60
2,249078, Note_on_c, 0, 66, 56
2,249083, Note_on_c, 0, 63, 53
2,249088, Control_c, 0, 64, 59
2,249107, Control_c, 0, 64, 58
2,249128, Control_c, 0, 64, 57
2,249164, Control_c, 0, 64, 55
2,249184, Control_c, 0, 64, 54
2,249221, Control_c, 0, 64, 53
2,249244, Control_c, 0, 64, 52
2,249280, Control_c, 0, 64, 51
2,249299, Control_c, 0, 64, 50
2,249321, Control_c, 0, 64, 48
2,249339, Control_c, 0, 64, 46
2,249358, Control_c, 0, 64, 43
2,249377, Control_c, 0, 64, 41
2,249398, Control_c, 0, 64, 39
2,249415, Control_c, 0, 64, 38
2,249453, Control_c, 0, 64, 37
2,249460, Note_on_c, 0, 66, 0
2,249461, Note_on_c, 0, 68, 65
2,249561, Note_on_c, 0, 46, 0
2,249570, Control_c, 0, 64, 36
2,249588, Control_c, 0, 64, 35
2,249626, Control_c, 0, 64, 34
2,249847, Note_on_c, 0, 68, 0
2,249861, Note_on_c, 0, 70, 68
2,250126, Control_c, 0, 64, 35
2,250164, Control_c, 0, 64, 36
2,250175, Note_on_c, 0, 63, 0
2,250184, Control_c, 0, 64, 38
2,250203, Control_c, 0, 64, 43
2,250222, Control_c, 0, 64, 52
2,250241, Control_c, 0, 64, 60
2,250257, Note_on_c, 0, 53, 81
2,250257, Note_on_c, 0, 62, 54
2,250259, Control_c, 0, 64, 64
2,250279, Control_c, 0, 64, 68
2,250301, Control_c, 0, 64, 75
2,250318, Control_c, 0, 64, 88
2,250336, Control_c, 0, 64, 127
2,250354, Note_on_c, 0, 53, 0
2,250416, Note_on_c, 0, 62, 0
2,250450, Note_on_c, 0, 60, 60
2,250662, Control_c, 0, 64, 97
2,250677, Note_on_c, 0, 60, 0
2,250681, Control_c, 0, 64, 74
2,250699, Note_on_c, 0, 58, 84
2,250703, Control_c, 0, 64, 60
2,250721, Control_c, 0, 64, 50
2,250736, Note_on_c, 0, 62, 60
2,250740, Control_c, 0, 64, 46
2,250759, Control_c, 0, 64, 47
2,250778, Control_c, 0, 64, 50
2,250800, Control_c, 0, 64, 54
2,250816, Control_c, 0, 64, 58
2,250837, Control_c, 0, 64, 62
2,250854, Control_c, 0, 64, 64
2,250875, Control_c, 0, 64, 68
2,250893, Control_c, 0, 64, 75
2,250913, Control_c, 0, 64, 90
2,250931, Control_c, 0, 64, 127
2,250970, Note_on_c, 0, 62, 0
2,250986, Note_on_c, 0, 70, 0
2,251111, Note_on_c, 0, 65, 80
2,251185, Note_on_c, 0, 65, 0
2,251505, Note_on_c, 0, 70, 88
2,251505, Note_on_c, 0, 77, 91
2,251548, Control_c, 0, 64, 101
2,251566, Control_c, 0, 64, 84
2,251586, Control_c, 0, 64, 72
2,251605, Control_c, 0, 64, 64
2,251623, Control_c, 0, 64, 58
2,251642, Control_c, 0, 64, 54
2,251663, Control_c, 0, 64, 52
2,251699, Control_c, 0, 64, 51
2,251718, Control_c, 0, 64, 50
2,251741, Control_c, 0, 64, 49
2,251756, Control_c, 0, 64, 48
2,251775, Control_c, 0, 64, 47
2,251893, Control_c, 0, 64, 46
2,251926, Note_on_c, 0, 59, 81
2,251955, Note_on_c, 0, 58, 0
2,252201, Control_c, 0, 64, 47
2,252325, Note_on_c, 0, 58, 79
2,252336, Note_on_c, 0, 59, 0
2,252605, Control_c, 0, 64, 48
2,252621, Control_c, 0, 64, 49
2,252641, Control_c, 0, 64, 51
2,252659, Control_c, 0, 64, 55
2,252679, Control_c, 0, 64, 58
2,252703, Control_c, 0, 64, 61
2,252703, Note_on_c, 0, 56, 71
2,252703, Note_on_c, 0, 71, 93
2,252708, Note_on_c, 0, 77, 0
2,252714, Note_on_c, 0, 58, 0
2,252719, Control_c, 0, 64, 63
2,252729, Note_on_c, 0, 70, 0
2,252739, Control_c, 0, 64, 64
2,252758, Control_c, 0, 64, 68
2,252778, Control_c, 0, 64, 73
2,252794, Control_c, 0, 64, 80
2,252813, Control_c, 0, 64, 90
2,252833, Control_c, 0, 64, 105
2,252850, Control_c, 0, 64, 127
2,252859, Note_on_c, 0, 71, 0
2,253123, Control_c, 0, 64, 104
2,253123, Note_on_c, 0, 70, 94
2,253123, Note_on_c, 0, 82, 93
2,253139, Control_c, 0, 64, 82
2,253139, Note_on_c, 0, 54, 74
2,253160, Control_c, 0, 64, 68
2,253165, Note_on_c, 0, 56, 0
2,253178, Control_c, 0, 64, 58
2,253198, Control_c, 0, 64, 51
2,253216, Control_c, 0, 64, 49
2,253274, Control_c, 0, 64, 47
2,253293, Control_c, 0, 64, 44
2,253313, Control_c, 0, 64, 40
2,253332, Control_c, 0, 64, 38
2,253354, Control_c, 0, 64, 37
2,253543, Note_on_c, 0, 56, 81
2,253564, Control_c, 0, 64, 38
2,253584, Note_on_c, 0, 54, 0
2,253601, Control_c, 0, 64, 39
2,253715, Control_c, 0, 64, 40
2,253774, Control_c, 0, 64, 41
2,253794, Control_c, 0, 64, 42
2,253811, Control_c, 0, 64, 43
2,253833, Control_c, 0, 64, 45
2,253853, Control_c, 0, 64, 49
2,253870, Control_c, 0, 64, 55
2,253888, Control_c, 0, 64, 59
2,253908, Control_c, 0, 64, 61
2,253926, Control_c, 0, 64, 63
2,253935, Note_on_c, 0, 58, 86
2,253947, Control_c, 0, 64, 65
2,253964, Control_c, 0, 64, 69
2,253969, Note_on_c, 0, 56, 0
2,253984, Control_c, 0, 64, 77
2,254004, Control_c, 0, 64, 93
2,254022, Control_c, 0, 64, 127
2,254066, Note_on_c, 0, 82, 0
2,254084, Note_on_c, 0, 70, 0
2,254336, Note_on_c, 0, 68, 87
2,254478, Note_on_c, 0, 68, 0
2,254676, Control_c, 0, 64, 112
2,254696, Control_c, 0, 64, 95
2,254714, Control_c, 0, 64, 81
2,254734, Control_c, 0, 64, 69
2,254754, Control_c, 0, 64, 59
2,254754, Note_on_c, 0, 51, 76
2,254754, Note_on_c, 0, 66, 78
2,254772, Control_c, 0, 64, 47
2,254790, Control_c, 0, 64, 30
2,254795, Note_on_c, 0, 58, 0
2,254811, Control_c, 0, 64, 12
2,254828, Control_c, 0, 64, 0
2,254890, Control_c, 0, 64, 13
2,254905, Control_c, 0, 64, 23
2,254924, Control_c, 0, 64, 34
2,254946, Control_c, 0, 64, 46
2,254963, Control_c, 0, 64, 57
2,254986, Control_c, 0, 64, 62
2,255005, Control_c, 0, 64, 64
2,255024, Control_c, 0, 64, 66
2,255040, Control_c, 0, 64, 69
2,255060, Control_c, 0, 64, 76
2,255070, Note_on_c, 0, 66, 0
2,255081, Control_c, 0, 64, 88
2,255098, Control_c, 0, 64, 109
2,255116, Control_c, 0, 64, 127
2,255136, Note_on_c, 0, 51, 0
2,255149, Note_on_c, 0, 53, 76
2,255323, Note_on_c, 0, 54, 84
2,255365, Note_on_c, 0, 53, 0
2,255502, Control_c, 0, 64, 107
2,255521, Control_c, 0, 64, 80
2,255536, Note_on_c, 0, 56, 91
2,255541, Control_c, 0, 64, 64
2,255550, Note_on_c, 0, 83, 90
2,255556, Note_on_c, 0, 54, 0
2,255561, Control_c, 0, 64, 50
2,255577, Control_c, 0, 64, 20
2,255598, Control_c, 0, 64, 0
2,255731, Control_c, 0, 64, 37
2,255750, Control_c, 0, 64, 56
2,255771, Control_c, 0, 64, 65
2,255789, Control_c, 0, 64, 73
2,255809, Control_c, 0, 64, 89
2,255827, Control_c, 0, 64, 127
2,255846, Note_on_c, 0, 83, 0
2,255995, Note_on_c, 0, 68, 77
2,256104, Note_on_c, 0, 68, 0
2,256348, Note_on_c, 0, 82, 93
2,256352, Note_on_c, 0, 70, 91
2,256423, Control_c, 0, 64, 116
2,256442, Control_c, 0, 64, 88
2,256462, Control_c, 0, 64, 73
2,256480, Control_c, 0, 64, 63
2,256498, Control_c, 0, 64, 55
2,256518, Control_c, 0, 64, 49
2,256541, Control_c, 0, 64, 43
2,256558, Control_c, 0, 64, 35
2,256575, Control_c, 0, 64, 20
2,256595, Control_c, 0, 64, 0
2,256740, Note_on_c, 0, 54, 78
2,256782, Note_on_c, 0, 56, 0
2,256787, Control_c, 0, 64, 26
2,256808, Control_c, 0, 64, 45
2,256826, Control_c, 0, 64, 57
2,256846, Control_c, 0, 64, 62
2,256865, Control_c, 0, 64, 64
2,256883, Control_c, 0, 64, 67
2,256902, Control_c, 0, 64, 72
2,256923, Control_c, 0, 64, 80
2,256940, Control_c, 0, 64, 91
2,256960, Control_c, 0, 64, 104
2,256979, Control_c, 0, 64, 127
2,257052, Note_on_c, 0, 82, 0
2,257056, Control_c, 0, 64, 118
2,257075, Control_c, 0, 64, 103
2,257095, Control_c, 0, 64, 92
2,257115, Control_c, 0, 64, 81
2,257126, Note_on_c, 0, 80, 90
2,257137, Control_c, 0, 64, 71
2,257137, Note_on_c, 0, 53, 74
2,257155, Control_c, 0, 64, 64
2,257172, Control_c, 0, 64, 58
2,257172, Note_on_c, 0, 54, 0
2,257190, Control_c, 0, 64, 55
2,257211, Control_c, 0, 64, 54
2,257228, Control_c, 0, 64, 53
2,257248, Control_c, 0, 64, 51
2,257267, Control_c, 0, 64, 48
2,257286, Control_c, 0, 64, 43
2,257308, Control_c, 0, 64, 39
2,257326, Control_c, 0, 64, 35
2,257344, Control_c, 0, 64, 31
2,257363, Control_c, 0, 64, 27
2,257382, Control_c, 0, 64, 21
2,257402, Control_c, 0, 64, 13
2,257420, Control_c, 0, 64, 0
2,257500, Control_c, 0, 64, 15
2,257518, Control_c, 0, 64, 36
2,257536, Control_c, 0, 64, 53
2,257550, Note_on_c, 0, 62, 78
2,257557, Control_c, 0, 64, 63
2,257560, Note_on_c, 0, 53, 0
2,257573, Control_c, 0, 64, 69
2,257593, Control_c, 0, 64, 80
2,257616, Control_c, 0, 64, 104
2,257633, Control_c, 0, 64, 127
2,257644, Note_on_c, 0, 62, 0
2,257935, Note_on_c, 0, 78, 91
2,257940, Control_c, 0, 64, 122
2,257949, Note_on_c, 0, 63, 66
2,257960, Control_c, 0, 64, 88
2,257982, Control_c, 0, 64, 71
2,257982, Note_on_c, 0, 80, 0
2,257997, Control_c, 0, 64, 60
2,258016, Control_c, 0, 64, 54
2,258034, Control_c, 0, 64, 51
2,258055, Control_c, 0, 64, 49
2,258075, Control_c, 0, 64, 47
2,258093, Control_c, 0, 64, 42
2,258111, Control_c, 0, 64, 32
2,258131, Control_c, 0, 64, 15
2,258151, Control_c, 0, 64, 0
2,258246, Control_c, 0, 64, 9
2,258264, Control_c, 0, 64, 21
2,258285, Control_c, 0, 64, 35
2,258305, Control_c, 0, 64, 49
2,258318, Note_on_c, 0, 70, 0
2,258322, Control_c, 0, 64, 58
2,258343, Control_c, 0, 64, 62
2,258347, Note_on_c, 0, 63, 0
2,258358, Note_on_c, 0, 65, 68
2,258362, Control_c, 0, 64, 64
2,258381, Control_c, 0, 64, 66
2,258401, Control_c, 0, 64, 70
2,258421, Control_c, 0, 64, 76
2,258439, Control_c, 0, 64, 85
2,258459, Control_c, 0, 64, 102
2,258477, Control_c, 0, 64, 127
2,258524, Note_on_c, 0, 66, 83
2,258525, Note_on_c, 0, 65, 0
2,258651, Control_c, 0, 64, 122
2,258669, Control_c, 0, 64, 98
2,258689, Control_c, 0, 64, 83
2,258706, Control_c, 0, 64, 73
2,258728, Control_c, 0, 64, 64
2,258728, Note_on_c, 0, 80, 96
2,258741, Note_on_c, 0, 65, 70
2,258741, Note_on_c, 0, 68, 68
2,258749, Control_c, 0, 64, 57
2,258762, Note_on_c, 0, 66, 0
2,258766, Control_c, 0, 64, 51
2,258780, Note_on_c, 0, 78, 0
2,258785, Control_c, 0, 64, 47
2,258804, Control_c, 0, 64, 44
2,258822, Control_c, 0, 64, 42
2,258842, Control_c, 0, 64, 38
2,258861, Control_c, 0, 64, 33
2,258881, Control_c, 0, 64, 25
2,258901, Control_c, 0, 64, 16
2,258920, Control_c, 0, 64, 11
2,258957, Control_c, 0, 64, 8
2,258975, Control_c, 0, 64, 0
2,259151, Note_on_c, 0, 63, 67
2,259165, Note_on_c, 0, 65, 0
2,259550, Note_on_c, 0, 82, 84
2,259566, Note_on_c, 0, 62, 57
2,259618, Note_on_c, 0, 63, 0
2,259618, Note_on_c, 0, 80, 0
2,259939, Note_on_c, 0, 62, 0
2,259945, Note_on_c, 0, 66, 76
2,259966, Note_on_c, 0, 63, 68
2,259984, Note_on_c, 0, 68, 0
2,260356, Note_on_c, 0, 66, 0
2,260369, Note_on_c, 0, 65, 68
2,260686, Control_c, 0, 64, 16
2,260706, Control_c, 0, 64, 32
2,260723, Control_c, 0, 64, 47
2,260736, Note_on_c, 0, 63, 0
2,260745, Control_c, 0, 64, 60
2,260766, Control_c, 0, 64, 66
2,260782, Control_c, 0, 64, 71
2,260791, Note_on_c, 0, 61, 45
2,260795, Note_on_c, 0, 82, 0
2,260800, Control_c, 0, 64, 88
2,260820, Control_c, 0, 64, 127
2,260946, Note_on_c, 0, 65, 0
2,261166, Control_c, 0, 64, 99
2,261170, Note_on_c, 0, 75, 87
2,261186, Control_c, 0, 64, 75
2,261197, Note_on_c, 0, 67, 65
2,261204, Control_c, 0, 64, 62
2,261225, Control_c, 0, 64, 53
2,261241, Control_c, 0, 64, 47
2,261264, Control_c, 0, 64, 45
2,261297, Control_c, 0, 64, 47
2,261321, Control_c, 0, 64, 51
2,261337, Control_c, 0, 64, 57
2,261357, Control_c, 0, 64, 61
2,261378, Control_c, 0, 64, 64
2,261395, Control_c, 0, 64, 66
2,261414, Control_c, 0, 64, 70
2,261433, Control_c, 0, 64, 77
2,261455, Control_c, 0, 64, 83
2,261473, Control_c, 0, 64, 90
2,261493, Control_c, 0, 64, 95
2,261511, Control_c, 0, 64, 96
2,261528, Note_on_c, 0, 67, 0
2,261533, Control_c, 0, 64, 97
2,261570, Control_c, 0, 64, 98
2,261578, Note_on_c, 0, 58, 75
2,261588, Control_c, 0, 64, 99
2,261592, Note_on_c, 0, 63, 67
2,261606, Control_c, 0, 64, 100
2,261629, Note_on_c, 0, 61, 0
2,261646, Control_c, 0, 64, 101
2,261684, Control_c, 0, 64, 102
2,261688, Note_on_c, 0, 63, 0
2,261782, Control_c, 0, 64, 101
2,261786, Note_on_c, 0, 64, 65
2,261800, Control_c, 0, 64, 100
2,261815, Control_c, 0, 64, 99
2,261837, Control_c, 0, 64, 97
2,261857, Control_c, 0, 64, 93
2,261874, Control_c, 0, 64, 90
2,261896, Control_c, 0, 64, 86
2,261915, Control_c, 0, 64, 81
2,261934, Control_c, 0, 64, 75
2,261953, Control_c, 0, 64, 67
2,261972, Control_c, 0, 64, 61
2,261981, Note_on_c, 0, 64, 0
2,261984, Note_on_c, 0, 63, 86
2,261992, Control_c, 0, 64, 54
2,262010, Control_c, 0, 64, 50
2,262023, Note_on_c, 0, 58, 0
2,262030, Control_c, 0, 64, 44
2,262047, Control_c, 0, 64, 39
2,262068, Control_c, 0, 64, 32
2,262088, Control_c, 0, 64, 22
2,262106, Control_c, 0, 64, 13
2,262126, Control_c, 0, 64, 0
2,262442, Note_on_c, 0, 61, 44
2,262802, Note_on_c, 0, 80, 79
2,262818, Note_on_c, 0, 59, 50
2,262818, Note_on_c, 0, 61, 0
2,262825, Note_on_c, 0, 75, 0
2,263205, Note_on_c, 0, 64, 70
2,263212, Note_on_c, 0, 61, 68
2,263214, Note_on_c, 0, 59, 0
2,263247, Note_on_c, 0, 63, 0
2,263586, Note_on_c, 0, 61, 0
2,263592, Note_on_c, 0, 63, 71
2,263596, Note_on_c, 0, 64, 0
2,263605, Note_on_c, 0, 59, 65
2,263969, Control_c, 0, 64, 18
2,263985, Note_on_c, 0, 61, 68
2,263986, Control_c, 0, 64, 42
2,263991, Note_on_c, 0, 63, 0
2,263996, Note_on_c, 0, 58, 63
2,264008, Control_c, 0, 64, 58
2,264024, Control_c, 0, 64, 66
2,264036, Note_on_c, 0, 59, 0
2,264045, Control_c, 0, 64, 73
2,264065, Control_c, 0, 64, 91
2,264086, Note_on_c, 0, 58, 0
2,264086, Note_on_c, 0, 61, 0
2,264090, Control_c, 0, 64, 127
2,264315, Control_c, 0, 64, 116
2,264334, Control_c, 0, 64, 85
2,264353, Control_c, 0, 64, 69
2,264372, Control_c, 0, 64, 60
2,264379, Note_on_c, 0, 59, 65
2,264393, Control_c, 0, 64, 52
2,264404, Note_on_c, 0, 56, 59
2,264410, Control_c, 0, 64, 47
2,264430, Control_c, 0, 64, 44
2,264446, Control_c, 0, 64, 40
2,264471, Control_c, 0, 64, 33
2,264486, Control_c, 0, 64, 23
2,264506, Control_c, 0, 64, 0
2,264758, Note_on_c, 0, 56, 0
2,264774, Control_c, 0, 64, 12
2,264785, Note_on_c, 0, 61, 63
2,264796, Control_c, 0, 64, 37
2,264796, Note_on_c, 0, 54, 66
2,264805, Note_on_c, 0, 59, 0
2,264813, Control_c, 0, 64, 54
2,264831, Control_c, 0, 64, 63
2,264851, Control_c, 0, 64, 67
2,264872, Control_c, 0, 64, 76
2,264890, Control_c, 0, 64, 97
2,264909, Control_c, 0, 64, 127
2,264909, Note_on_c, 0, 54, 0
2,264967, Note_on_c, 0, 61, 0
2,265159, Control_c, 0, 64, 112
2,265177, Control_c, 0, 64, 88
2,265200, Control_c, 0, 64, 72
2,265207, Note_on_c, 0, 63, 68
2,265207, Note_on_c, 0, 78, 95
2,265211, Note_on_c, 0, 52, 58
2,265217, Control_c, 0, 64, 62
2,265235, Control_c, 0, 64, 54
2,265256, Control_c, 0, 64, 48
2,265273, Control_c, 0, 64, 45
2,265289, Note_on_c, 0, 80, 0
2,265293, Control_c, 0, 64, 42
2,265310, Control_c, 0, 64, 38
2,265331, Control_c, 0, 64, 32
2,265351, Control_c, 0, 64, 23
2,265372, Control_c, 0, 64, 13
2,265389, Control_c, 0, 64, 0
2,265562, Control_c, 0, 64, 11
2,265582, Control_c, 0, 64, 27
2,265602, Control_c, 0, 64, 42
2,265605, Note_on_c, 0, 51, 76
2,265618, Control_c, 0, 64, 56
2,265642, Control_c, 0, 64, 63
2,265657, Control_c, 0, 64, 66
2,265677, Control_c, 0, 64, 72
2,265681, Note_on_c, 0, 52, 0
2,265697, Control_c, 0, 64, 93
2,265715, Control_c, 0, 64, 127
2,265812, Note_on_c, 0, 51, 0
2,265824, Note_on_c, 0, 63, 0
2,266004, Control_c, 0, 64, 87
2,266022, Control_c, 0, 64, 69
2,266031, Note_on_c, 0, 76, 90
2,266033, Note_on_c, 0, 56, 65
2,266042, Control_c, 0, 64, 59
2,266042, Note_on_c, 0, 49, 63
2,266062, Control_c, 0, 64, 49
2,266067, Note_on_c, 0, 78, 0
2,266080, Control_c, 0, 64, 39
2,266102, Control_c, 0, 64, 27
2,266117, Control_c, 0, 64, 15
2,266138, Control_c, 0, 64, 8
2,266159, Control_c, 0, 64, 0
2,266196, Control_c, 0, 64, 9
2,266216, Control_c, 0, 64, 24
2,266233, Control_c, 0, 64, 41
2,266252, Control_c, 0, 64, 57
2,266271, Control_c, 0, 64, 63
2,266293, Control_c, 0, 64, 65
2,266309, Control_c, 0, 64, 67
2,266332, Control_c, 0, 64, 70
2,266350, Control_c, 0, 64, 75
2,266370, Control_c, 0, 64, 84
2,266370, Note_on_c, 0, 49, 0
2,266387, Control_c, 0, 64, 97
2,266407, Control_c, 0, 64, 112
2,266428, Control_c, 0, 64, 127
2,266428, Note_on_c, 0, 56, 0
2,266479, Note_on_c, 0, 61, 59
2,266558, Control_c, 0, 64, 115
2,266578, Control_c, 0, 64, 106
2,266601, Control_c, 0, 64, 98
2,266617, Control_c, 0, 64, 91
2,266625, Note_on_c, 0, 61, 0
2,266635, Control_c, 0, 64, 83
2,266653, Note_on_c, 0, 59, 76
2,266657, Control_c, 0, 64, 74
2,266675, Control_c, 0, 64, 68
2,266694, Control_c, 0, 64, 64
2,266716, Control_c, 0, 64, 60
2,266736, Control_c, 0, 64, 58
2,266752, Control_c, 0, 64, 56
2,266770, Control_c, 0, 64, 53
2,266790, Control_c, 0, 64, 49
2,266811, Control_c, 0, 64, 42
2,266827, Control_c, 0, 64, 34
2,266849, Control_c, 0, 64, 28
2,266849, Note_on_c, 0, 61, 62
2,266854, Note_on_c, 0, 58, 67
2,266868, Control_c, 0, 64, 22
2,266885, Control_c, 0, 64, 18
2,266892, Note_on_c, 0, 59, 0
2,266908, Control_c, 0, 64, 11
2,266924, Control_c, 0, 64, 0
2,267256, Note_on_c, 0, 56, 51
2,267261, Note_on_c, 0, 58, 0
2,267618, Note_on_c, 0, 56, 0
2,267640, Note_on_c, 0, 55, 47
2,267640, Note_on_c, 0, 75, 75
2,267697, Note_on_c, 0, 76, 0
2,268042, Note_on_c, 0, 55, 0
2,268064, Note_on_c, 0, 59, 62
2,268086, Note_on_c, 0, 56, 56
2,268111, Note_on_c, 0, 61, 0
2,268454, Note_on_c, 0, 59, 0
2,268467, Note_on_c, 0, 58, 61
2,268864, Note_on_c, 0, 54, 68
2,268887, Note_on_c, 0, 56, 0
2,268902, Control_c, 0, 64, 21
2,268924, Control_c, 0, 64, 39
2,268940, Control_c, 0, 64, 53
2,268960, Control_c, 0, 64, 61
2,268983, Control_c, 0, 64, 63
2,268998, Control_c, 0, 64, 64
2,269016, Control_c, 0, 64, 65
2,269040, Control_c, 0, 64, 67
2,269055, Control_c, 0, 64, 70
2,269075, Control_c, 0, 64, 75
2,269094, Control_c, 0, 64, 80
2,269114, Control_c, 0, 64, 86
2,269133, Control_c, 0, 64, 89
2,269180, Note_on_c, 0, 54, 0
2,269209, Control_c, 0, 64, 88
2,269268, Control_c, 0, 64, 87
2,269290, Control_c, 0, 64, 84
2,269306, Control_c, 0, 64, 81
2,269326, Control_c, 0, 64, 77
2,269344, Control_c, 0, 64, 73
2,269366, Control_c, 0, 64, 69
2,269382, Control_c, 0, 64, 64
2,269395, Note_on_c, 0, 56, 65
2,269399, Note_on_c, 0, 53, 65
2,269404, Control_c, 0, 64, 58
2,269422, Control_c, 0, 64, 52
2,269444, Control_c, 0, 64, 47
2,269444, Note_on_c, 0, 58, 0
2,269462, Control_c, 0, 64, 42
2,269478, Control_c, 0, 64, 39
2,269497, Control_c, 0, 64, 37
2,269518, Control_c, 0, 64, 36
2,269538, Control_c, 0, 64, 35
2,269575, Control_c, 0, 64, 34
2,269915, Note_on_c, 0, 71, 76
2,269939, Control_c, 0, 64, 33
2,269952, Note_on_c, 0, 75, 0
2,270016, Control_c, 0, 64, 32
2,270229, Control_c, 0, 64, 31
2,270306, Control_c, 0, 64, 30
2,270342, Control_c, 0, 64, 29
2,270351, Note_on_c, 0, 68, 87
2,270384, Control_c, 0, 64, 28
2,270384, Note_on_c, 0, 71, 0
2,270399, Control_c, 0, 64, 27
2,270458, Control_c, 0, 64, 26
2,270496, Control_c, 0, 64, 25
2,270573, Control_c, 0, 64, 24
2,270630, Control_c, 0, 64, 23
2,270710, Note_on_c, 0, 58, 72
2,270727, Control_c, 0, 64, 22
2,270759, Note_on_c, 0, 56, 0
2,270881, Control_c, 0, 64, 21
2,270977, Control_c, 0, 64, 20
2,271014, Control_c, 0, 64, 19
2,271034, Control_c, 0, 64, 18
2,271072, Note_on_c, 0, 58, 0
2,271090, Note_on_c, 0, 59, 74
2,271110, Control_c, 0, 64, 24
2,271130, Control_c, 0, 64, 35
2,271148, Control_c, 0, 64, 46
2,271168, Control_c, 0, 64, 57
2,271187, Control_c, 0, 64, 63
2,271205, Control_c, 0, 64, 64
2,271225, Control_c, 0, 64, 66
2,271244, Control_c, 0, 64, 69
2,271264, Control_c, 0, 64, 74
2,271273, Note_on_c, 0, 59, 0
2,271282, Control_c, 0, 64, 81
2,271302, Control_c, 0, 64, 86
2,271320, Control_c, 0, 64, 88
2,271360, Control_c, 0, 64, 87
2,271379, Control_c, 0, 64, 86
2,271399, Control_c, 0, 64, 85
2,271420, Control_c, 0, 64, 83
2,271427, Note_on_c, 0, 53, 0
2,271438, Control_c, 0, 64, 78
2,271457, Control_c, 0, 64, 72
2,271466, Note_on_c, 0, 58, 68
2,271468, Note_on_c, 0, 54, 51
2,271468, Note_on_c, 0, 70, 80
2,271474, Control_c, 0, 64, 64
2,271494, Control_c, 0, 64, 57
2,271510, Note_on_c, 0, 68, 0
2,271514, Control_c, 0, 64, 50
2,271532, Control_c, 0, 64, 45
2,271550, Control_c, 0, 64, 43
2,271591, Control_c, 0, 64, 42
2,271613, Control_c, 0, 64, 41
2,271628, Control_c, 0, 64, 38
2,271648, Control_c, 0, 64, 35
2,271667, Control_c, 0, 64, 34
2,271705, Control_c, 0, 64, 33
2,271781, Control_c, 0, 64, 32
2,271864, Control_c, 0, 64, 31
2,271864, Note_on_c, 0, 54, 0
2,271864, Note_on_c, 0, 58, 0
2,271864, Note_on_c, 0, 71, 78
2,271869, Note_on_c, 0, 53, 52
2,271869, Note_on_c, 0, 56, 60
2,271882, Note_on_c, 0, 70, 0
2,271899, Control_c, 0, 64, 30
2,271916, Control_c, 0, 64, 29
2,271975, Control_c, 0, 64, 28
2,272013, Control_c, 0, 64, 27
2,272033, Control_c, 0, 64, 26
2,272051, Control_c, 0, 64, 25
2,272069, Control_c, 0, 64, 23
2,272089, Control_c, 0, 64, 22
2,272128, Control_c, 0, 64, 20
2,272166, Control_c, 0, 64, 19
2,272205, Note_on_c, 0, 53, 0
2,272226, Control_c, 0, 64, 20
2,272243, Control_c, 0, 64, 26
2,272267, Note_on_c, 0, 51, 55
2,272268, Control_c, 0, 64, 36
2,272268, Note_on_c, 0, 54, 62
2,272270, Note_on_c, 0, 56, 0
2,272281, Control_c, 0, 64, 47
2,272301, Control_c, 0, 64, 59
2,272320, Control_c, 0, 64, 63
2,272339, Control_c, 0, 64, 65
2,272358, Control_c, 0, 64, 68
2,272380, Control_c, 0, 64, 72
2,272397, Control_c, 0, 64, 80
2,272419, Control_c, 0, 64, 87
2,272433, Note_on_c, 0, 51, 0
2,272435, Note_on_c, 0, 54, 0
2,272439, Control_c, 0, 64, 92
2,272458, Control_c, 0, 64, 93
2,272493, Control_c, 0, 64, 92
2,272512, Control_c, 0, 64, 91
2,272531, Control_c, 0, 64, 90
2,272551, Control_c, 0, 64, 89
2,272570, Control_c, 0, 64, 87
2,272588, Control_c, 0, 64, 82
2,272608, Control_c, 0, 64, 77
2,272627, Control_c, 0, 64, 71
2,272647, Control_c, 0, 64, 65
2,272665, Control_c, 0, 64, 61
2,272684, Control_c, 0, 64, 57
2,272701, Note_on_c, 0, 53, 54
2,272705, Control_c, 0, 64, 53
2,272705, Note_on_c, 0, 50, 46
2,272727, Control_c, 0, 64, 49
2,272742, Control_c, 0, 64, 45
2,272764, Control_c, 0, 64, 41
2,272782, Control_c, 0, 64, 36
2,272800, Control_c, 0, 64, 30
2,272820, Control_c, 0, 64, 24
2,272838, Control_c, 0, 64, 20
2,272861, Control_c, 0, 64, 17
2,272877, Control_c, 0, 64, 13
2,272896, Control_c, 0, 64, 9
2,272915, Control_c, 0, 64, 0
2,273128, Note_on_c, 0, 68, 64
2,273140, Note_on_c, 0, 71, 0
2,273478, Note_on_c, 0, 68, 0
2,273497, Note_on_c, 0, 65, 57
2,273841, Note_on_c, 0, 53, 0
2,273868, Note_on_c, 0, 54, 51
2,274256, Note_on_c, 0, 54, 0
2,274278, Control_c, 0, 64, 18
2,274284, Note_on_c, 0, 56, 51
2,274297, Control_c, 0, 64, 32
2,274316, Control_c, 0, 64, 44
2,274334, Control_c, 0, 64, 55
2,274356, Control_c, 0, 64, 61
2,274374, Control_c, 0, 64, 63
2,274393, Control_c, 0, 64, 65
2,274411, Control_c, 0, 64, 67
2,274430, Control_c, 0, 64, 71
2,274455, Control_c, 0, 64, 77
2,274455, Note_on_c, 0, 56, 0
2,274470, Control_c, 0, 64, 82
2,274489, Control_c, 0, 64, 84
2,274509, Control_c, 0, 64, 83
2,274529, Control_c, 0, 64, 82
2,274550, Control_c, 0, 64, 81
2,274552, Note_on_c, 0, 50, 0
2,274567, Control_c, 0, 64, 79
2,274586, Control_c, 0, 64, 76
2,274604, Control_c, 0, 64, 71
2,274624, Control_c, 0, 64, 64
2,274644, Control_c, 0, 64, 57
2,274663, Control_c, 0, 64, 53
2,274672, Note_on_c, 0, 54, 48
2,274672, Note_on_c, 0, 65, 0
2,274672, Note_on_c, 0, 66, 58
2,274676, Note_on_c, 0, 51, 49
2,274685, Control_c, 0, 64, 52
2,274720, Control_c, 0, 64, 53
2,274742, Control_c, 0, 64, 55
2,274758, Control_c, 0, 64, 58
2,274778, Control_c, 0, 64, 61
2,274798, Control_c, 0, 64, 63
2,274818, Control_c, 0, 64, 64
2,274835, Control_c, 0, 64, 66
2,274853, Control_c, 0, 64, 68
2,274874, Control_c, 0, 64, 70
2,274892, Control_c, 0, 64, 71
2,274941, Note_on_c, 0, 54, 0
2,274968, Control_c, 0, 64, 70
2,274988, Control_c, 0, 64, 69
2,275010, Control_c, 0, 64, 68
2,275019, Note_on_c, 0, 51, 0
2,275028, Control_c, 0, 64, 66
2,275048, Control_c, 0, 64, 63
2,275067, Control_c, 0, 64, 60
2,275079, Note_on_c, 0, 50, 45
2,275079, Note_on_c, 0, 53, 42
2,275084, Control_c, 0, 64, 58
2,275097, Note_on_c, 0, 68, 62
2,275104, Control_c, 0, 64, 56
2,275108, Note_on_c, 0, 66, 0
2,275122, Control_c, 0, 64, 55
2,275141, Control_c, 0, 64, 53
2,275160, Control_c, 0, 64, 51
2,275181, Control_c, 0, 64, 47
2,275198, Control_c, 0, 64, 43
2,275218, Control_c, 0, 64, 40
2,275238, Control_c, 0, 64, 39
2,275257, Control_c, 0, 64, 38
2,275295, Control_c, 0, 64, 37
2,275313, Control_c, 0, 64, 36
2,275335, Control_c, 0, 64, 34
2,275356, Control_c, 0, 64, 33
2,275428, Note_on_c, 0, 50, 0
2,275456, Note_on_c, 0, 53, 0
2,275482, Note_on_c, 0, 51, 46
2,275498, Note_on_c, 0, 48, 36
2,275548, Control_c, 0, 64, 32
2,275877, Note_on_c, 0, 51, 0
2,275885, Note_on_c, 0, 48, 0
2,275913, Note_on_c, 0, 50, 39
2,275935, Note_on_c, 0, 46, 35
2,276330, Note_on_c, 0, 68, 0
2,276342, Note_on_c, 0, 65, 44
2,276723, Note_on_c, 0, 65, 0
2,276755, Note_on_c, 0, 62, 46
2,277139, Note_on_c, 0, 50, 0
2,277152, Note_on_c, 0, 51, 42
2,277483, Control_c, 0, 64, 33
2,277506, Control_c, 0, 64, 35
2,277506, Note_on_c, 0, 51, 0
2,277522, Control_c, 0, 64, 40
2,277542, Control_c, 0, 64, 49
2,277561, Control_c, 0, 64, 57
2,277580, Note_on_c, 0, 53, 44
2,277585, Control_c, 0, 64, 61
2,277600, Control_c, 0, 64, 64
2,277620, Control_c, 0, 64, 65
2,277633, Note_on_c, 0, 62, 0
2,277638, Control_c, 0, 64, 68
2,277658, Control_c, 0, 64, 73
2,277676, Control_c, 0, 64, 82
2,277696, Control_c, 0, 64, 92
2,277716, Control_c, 0, 64, 103
2,277734, Control_c, 0, 64, 112
2,277754, Control_c, 0, 64, 116
2,277754, Note_on_c, 0, 46, 0
2,277791, Control_c, 0, 64, 118
2,277811, Control_c, 0, 64, 122
2,277831, Control_c, 0, 64, 127
2,277965, Control_c, 0, 64, 102
2,277985, Control_c, 0, 64, 82
2,278007, Control_c, 0, 64, 67
2,278024, Note_on_c, 0, 62, 58
2,278026, Control_c, 0, 64, 58
2,278035, Note_on_c, 0, 53, 0
2,278040, Note_on_c, 0, 44, 48
2,278044, Control_c, 0, 64, 53
2,278061, Control_c, 0, 64, 52
2,278079, Control_c, 0, 64, 55
2,278099, Control_c, 0, 64, 58
2,278117, Control_c, 0, 64, 62
2,278137, Control_c, 0, 64, 65
2,278157, Control_c, 0, 64, 70
2,278177, Control_c, 0, 64, 78
2,278195, Control_c, 0, 64, 94
2,278213, Control_c, 0, 64, 127
2,278219, Note_on_c, 0, 62, 0
2,278422, Control_c, 0, 64, 95
2,278431, Note_on_c, 0, 42, 56
2,278431, Note_on_c, 0, 63, 68
2,278445, Note_on_c, 0, 54, 59
2,278449, Control_c, 0, 64, 73
2,278449, Note_on_c, 0, 44, 0
2,278461, Control_c, 0, 64, 63
2,278479, Control_c, 0, 64, 59
2,278499, Control_c, 0, 64, 60
2,278521, Control_c, 0, 64, 63
2,278536, Control_c, 0, 64, 67
2,278557, Control_c, 0, 64, 77
2,278577, Control_c, 0, 64, 102
2,278597, Control_c, 0, 64, 127
2,278628, Note_on_c, 0, 54, 0
2,278792, Note_on_c, 0, 42, 0
2,278807, Control_c, 0, 64, 90
2,278825, Control_c, 0, 64, 69
2,278835, Note_on_c, 0, 41, 60
2,278835, Note_on_c, 0, 65, 66
2,278841, Note_on_c, 0, 56, 66
2,278845, Control_c, 0, 64, 60
2,278850, Note_on_c, 0, 63, 0
2,278865, Control_c, 0, 64, 56
2,278885, Control_c, 0, 64, 58
2,278905, Control_c, 0, 64, 63
2,278921, Control_c, 0, 64, 68
2,278941, Control_c, 0, 64, 79
2,278961, Control_c, 0, 64, 127
2,278976, Note_on_c, 0, 65, 0
2,279002, Note_on_c, 0, 56, 0
2,279053, Note_on_c, 0, 41, 0
2,279229, Control_c, 0, 64, 80
2,279249, Control_c, 0, 64, 64
2,279253, Note_on_c, 0, 66, 72
2,279269, Note_on_c, 0, 39, 61
2,279274, Control_c, 0, 64, 54
2,279274, Note_on_c, 0, 58, 66
2,279285, Control_c, 0, 64, 51
2,279305, Control_c, 0, 64, 53
2,279325, Control_c, 0, 64, 57
2,279344, Control_c, 0, 64, 62
2,279363, Control_c, 0, 64, 66
2,279383, Control_c, 0, 64, 72
2,279403, Control_c, 0, 64, 85
2,279420, Control_c, 0, 64, 127
2,279470, Note_on_c, 0, 66, 0
2,279476, Note_on_c, 0, 58, 0
2,279647, Note_on_c, 0, 67, 75
2,279654, Control_c, 0, 64, 85
2,279656, Note_on_c, 0, 39, 0
2,279656, Note_on_c, 0, 58, 71
2,279661, Note_on_c, 0, 49, 64
2,279670, Control_c, 0, 64, 66
2,279690, Control_c, 0, 64, 55
2,279708, Control_c, 0, 64, 49
2,279751, Control_c, 0, 64, 53
2,279766, Control_c, 0, 64, 58
2,279784, Control_c, 0, 64, 63
2,279804, Control_c, 0, 64, 67
2,279824, Control_c, 0, 64, 76
2,279844, Control_c, 0, 64, 97
2,279861, Control_c, 0, 64, 127
2,279866, Note_on_c, 0, 67, 0
2,279884, Note_on_c, 0, 58, 0
2,280049, Note_on_c, 0, 49, 0
2,280053, Note_on_c, 0, 47, 70
2,280053, Note_on_c, 0, 68, 85
2,280058, Control_c, 0, 64, 112
2,280058, Note_on_c, 0, 59, 79
2,280075, Control_c, 0, 64, 77
2,280091, Control_c, 0, 64, 63
2,280112, Control_c, 0, 64, 55
2,280129, Control_c, 0, 64, 53
2,280151, Control_c, 0, 64, 56
2,280169, Control_c, 0, 64, 60
2,280191, Control_c, 0, 64, 64
2,280207, Control_c, 0, 64, 69
2,280227, Control_c, 0, 64, 81
2,280234, Note_on_c, 0, 59, 0
2,280247, Control_c, 0, 64, 120
2,280269, Control_c, 0, 64, 127
2,280286, Note_on_c, 0, 68, 0
2,280437, Control_c, 0, 64, 107
2,280455, Note_on_c, 0, 70, 81
2,280459, Note_on_c, 0, 46, 76
2,280459, Note_on_c, 0, 61, 81
2,280464, Control_c, 0, 64, 72
2,280476, Control_c, 0, 64, 59
2,280476, Note_on_c, 0, 47, 0
2,280498, Control_c, 0, 64, 51
2,280513, Control_c, 0, 64, 52
2,280535, Control_c, 0, 64, 58
2,280553, Control_c, 0, 64, 64
2,280573, Control_c, 0, 64, 77
2,280591, Control_c, 0, 64, 127
2,280616, Note_on_c, 0, 61, 0
2,280628, Note_on_c, 0, 70, 0
2,280881, Control_c, 0, 64, 88
2,280881, Note_on_c, 0, 71, 88
2,280885, Note_on_c, 0, 44, 79
2,280894, Note_on_c, 0, 63, 80
2,280904, Control_c, 0, 64, 66
2,280904, Note_on_c, 0, 46, 0
2,280919, Control_c, 0, 64, 54
2,280940, Control_c, 0, 64, 45
2,280955, Control_c, 0, 64, 43
2,280975, Control_c, 0, 64, 45
2,280995, Control_c, 0, 64, 52
2,281013, Control_c, 0, 64, 61
2,281033, Control_c, 0, 64, 65
2,281053, Control_c, 0, 64, 71
2,281073, Control_c, 0, 64, 84
2,281090, Control_c, 0, 64, 127
2,281168, Note_on_c, 0, 63, 0
2,281193, Note_on_c, 0, 71, 0
2,281230, Note_on_c, 0, 44, 0
2,281284, Control_c, 0, 64, 99
2,281293, Note_on_c, 0, 72, 95
2,281297, Note_on_c, 0, 54, 75
2,281297, Note_on_c, 0, 63, 86
2,281302, Control_c, 0, 64, 71
2,281320, Control_c, 0, 64, 58
2,281340, Control_c, 0, 64, 46
2,281360, Control_c, 0, 64, 41
2,281378, Control_c, 0, 64, 42
2,281398, Control_c, 0, 64, 50
2,281418, Control_c, 0, 64, 60
2,281438, Control_c, 0, 64, 65
2,281455, Control_c, 0, 64, 70
2,281475, Control_c, 0, 64, 81
2,281495, Control_c, 0, 64, 98
2,281514, Note_on_c, 0, 63, 0
2,281518, Control_c, 0, 64, 127
2,281646, Note_on_c, 0, 72, 0
2,281670, Note_on_c, 0, 54, 0
2,281724, Control_c, 0, 64, 111
2,281731, Note_on_c, 0, 74, 92
2,281740, Note_on_c, 0, 53, 75
2,281740, Note_on_c, 0, 65, 85
2,281745, Control_c, 0, 64, 77
2,281761, Control_c, 0, 64, 62
2,281782, Control_c, 0, 64, 51
2,281800, Control_c, 0, 64, 44
2,281820, Control_c, 0, 64, 45
2,281838, Control_c, 0, 64, 50
2,281858, Control_c, 0, 64, 58
2,281877, Control_c, 0, 64, 64
2,281897, Control_c, 0, 64, 69
2,281919, Control_c, 0, 64, 80
2,281936, Control_c, 0, 64, 120
2,281953, Control_c, 0, 64, 127
2,281974, Note_on_c, 0, 65, 0
2,281974, Note_on_c, 0, 74, 0
2,282145, Note_on_c, 0, 51, 69
2,282156, Note_on_c, 0, 66, 92
2,282156, Note_on_c, 0, 75, 91
2,282185, Control_c, 0, 64, 95
2,282205, Control_c, 0, 64, 71
2,282223, Note_on_c, 0, 53, 0
2,282227, Control_c, 0, 64, 57
2,282242, Control_c, 0, 64, 47
2,282262, Control_c, 0, 64, 43
2,282300, Control_c, 0, 64, 46
2,282321, Control_c, 0, 64, 53
2,282339, Control_c, 0, 64, 61
2,282361, Control_c, 0, 64, 65
2,282379, Control_c, 0, 64, 69
2,282399, Control_c, 0, 64, 77
2,282417, Control_c, 0, 64, 99
2,282435, Control_c, 0, 64, 127
2,282499, Note_on_c, 0, 66, 0
2,282503, Note_on_c, 0, 75, 0
2,282641, Note_on_c, 0, 75, 89
2,282648, Note_on_c, 0, 65, 85
2,282670, Control_c, 0, 64, 106
2,282670, Note_on_c, 0, 58, 60
2,282678, Note_on_c, 0, 51, 0
2,282690, Control_c, 0, 64, 84
2,282705, Control_c, 0, 64, 70
2,282729, Control_c, 0, 64, 62
2,282747, Control_c, 0, 64, 56
2,282763, Control_c, 0, 64, 54
2,282803, Control_c, 0, 64, 53
2,282841, Control_c, 0, 64, 51
2,282863, Control_c, 0, 64, 49
2,282883, Control_c, 0, 64, 47
2,282898, Control_c, 0, 64, 46
2,282920, Control_c, 0, 64, 47
2,282958, Control_c, 0, 64, 49
2,282975, Control_c, 0, 64, 50
2,282993, Control_c, 0, 64, 51
2,283089, Control_c, 0, 64, 50
2,283132, Note_on_c, 0, 71, 84
2,283161, Note_on_c, 0, 65, 0
2,283188, Control_c, 0, 64, 52
2,283206, Control_c, 0, 64, 57
2,283226, Control_c, 0, 64, 62
2,283244, Control_c, 0, 64, 66
2,283264, Control_c, 0, 64, 74
2,283282, Control_c, 0, 64, 98
2,283302, Control_c, 0, 64, 127
2,283389, Note_on_c, 0, 71, 0
2,283427, Note_on_c, 0, 75, 0
2,283668, Note_on_c, 0, 74, 89
2,283670, Note_on_c, 0, 70, 86
2,283687, Note_on_c, 0, 46, 64
2,283698, Note_on_c, 0, 58, 0
2,283723, Control_c, 0, 64, 98
2,283745, Control_c, 0, 64, 78
2,283766, Control_c, 0, 64, 66
2,283780, Control_c, 0, 64, 60
2,283801, Control_c, 0, 64, 54
2,283821, Control_c, 0, 64, 51
2,283841, Control_c, 0, 64, 50
2,283860, Control_c, 0, 64, 48
2,283877, Control_c, 0, 64, 47
2,283897, Control_c, 0, 64, 44
2,283919, Control_c, 0, 64, 42
2,283934, Control_c, 0, 64, 40
2,283955, Control_c, 0, 64, 39
2,284108, Control_c, 0, 64, 40
2,284130, Control_c, 0, 64, 41
2,284147, Control_c, 0, 64, 42
2,284167, Control_c, 0, 64, 44
2,284187, Control_c, 0, 64, 46
2,284204, Control_c, 0, 64, 48
2,284222, Control_c, 0, 64, 50
2,284242, Control_c, 0, 64, 51
2,284262, Control_c, 0, 64, 52
2,284391, Note_on_c, 0, 68, 92
2,284447, Note_on_c, 0, 70, 0
2,284494, Control_c, 0, 64, 53
2,284511, Control_c, 0, 64, 56
2,284532, Control_c, 0, 64, 59
2,284550, Control_c, 0, 64, 62
2,284569, Control_c, 0, 64, 64
2,284588, Control_c, 0, 64, 68
2,284607, Control_c, 0, 64, 75
2,284626, Control_c, 0, 64, 87
2,284646, Control_c, 0, 64, 127
2,284831, Note_on_c, 0, 74, 0
2,284860, Note_on_c, 0, 68, 0
2,284869, Note_on_c, 0, 46, 0
2,285531, Note_on_c, 0, 75, 87
2,285539, Note_on_c, 0, 67, 83
2,285544, Note_on_c, 0, 39, 73
2,285606, Control_c, 0, 64, 92
2,285625, Control_c, 0, 64, 76
2,285644, Control_c, 0, 64, 66
2,285664, Control_c, 0, 64, 58
2,285682, Control_c, 0, 64, 52
2,285702, Control_c, 0, 64, 50
2,285721, Control_c, 0, 64, 48
2,285740, Control_c, 0, 64, 47
2,285759, Control_c, 0, 64, 45
2,285778, Control_c, 0, 64, 43
2,285800, Control_c, 0, 64, 40
2,285817, Control_c, 0, 64, 38
2,285836, Control_c, 0, 64, 36
2,286220, Control_c, 0, 64, 37
2,286259, Control_c, 0, 64, 38
2,286277, Control_c, 0, 64, 39
2,286354, Control_c, 0, 64, 40
2,286374, Control_c, 0, 64, 41
2,286392, Control_c, 0, 64, 42
2,286432, Control_c, 0, 64, 43
2,286471, Control_c, 0, 64, 44
2,286527, Control_c, 0, 64, 45
2,286546, Control_c, 0, 64, 46
2,286566, Control_c, 0, 64, 47
2,286583, Control_c, 0, 64, 48
2,286624, Control_c, 0, 64, 49
2,286929, Control_c, 0, 64, 50
2,287199, Control_c, 0, 64, 51
2,288141, Control_c, 0, 64, 52
2,288311, Control_c, 0, 64, 53
2,288331, Control_c, 0, 64, 54
2,288351, Control_c, 0, 64, 55
2,288370, Control_c, 0, 64, 56
2,288390, Control_c, 0, 64, 57
2,288411, Control_c, 0, 64, 58
2,288447, Control_c, 0, 64, 59
2,288543, Control_c, 0, 64, 60
2,288601, Control_c, 0, 64, 61
2,288658, Control_c, 0, 64, 62
2,288695, Control_c, 0, 64, 63
2,288736, Control_c, 0, 64, 64
2,288756, Control_c, 0, 64, 65
2,288773, Control_c, 0, 64, 66
2,288793, Control_c, 0, 64, 67
2,288814, Control_c, 0, 64, 70
2,288832, Control_c, 0, 64, 72
2,288852, Control_c, 0, 64, 74
2,288868, Control_c, 0, 64, 76
2,288888, Control_c, 0, 64, 78
2,288908, Control_c, 0, 64, 79
2,288946, Control_c, 0, 64, 80
2,288984, Control_c, 0, 64, 81
2,289006, Control_c, 0, 64, 82
2,289025, Control_c, 0, 64, 83
2,289043, Control_c, 0, 64, 84
2,289138, Control_c, 0, 64, 85
2,289196, Control_c, 0, 64, 86
2,289675, Control_c, 0, 64, 87
2,289869, Control_c, 0, 64, 88
2,289918, Note_on_c, 0, 67, 0
2,290093, Note_on_c, 0, 39, 0
2,290109, Note_on_c, 0, 75, 0
2,290310, Control_c, 0, 64, 87
2,290386, Control_c, 0, 64, 86
2,290409, Control_c, 0, 64, 85
2,290443, Control_c, 0, 64, 83
2,290465, Control_c, 0, 64, 82
2,290482, Control_c, 0, 64, 81
2,290500, Control_c, 0, 64, 79
2,290521, Control_c, 0, 64, 76
2,290539, Control_c, 0, 64, 73
2,290558, Control_c, 0, 64, 69
2,290578, Control_c, 0, 64, 66
2,290598, Control_c, 0, 64, 65
2,290616, Control_c, 0, 64, 63
2,290636, Control_c, 0, 64, 62
2,290656, Control_c, 0, 64, 61
2,290674, Control_c, 0, 64, 59
2,290694, Control_c, 0, 64, 58
2,290712, Control_c, 0, 64, 56
2,290732, Control_c, 0, 64, 55
2,290752, Control_c, 0, 64, 54
2,290770, Control_c, 0, 64, 52
2,290790, Control_c, 0, 64, 49
2,290808, Control_c, 0, 64, 46
2,290828, Control_c, 0, 64, 43
2,290846, Control_c, 0, 64, 40
2,290866, Control_c, 0, 64, 38
2,290885, Control_c, 0, 64, 35
2,290905, Control_c, 0, 64, 32
2,290923, Control_c, 0, 64, 27
2,290945, Control_c, 0, 64, 22
2,290961, Control_c, 0, 64, 13
2,290980, Control_c, 0, 64, 0
2,290981, End_track
0, 0, End_of_file
