0, 0, Header, 1, 2, 480
1, 0, Start_track
1, 0, Tempo, 500000
1, 0, Time_signature, 4, 2, 24, 8
1, 1, End_track
2, 0, Start_track
2, 0, Program_c, 0, 0
2, 0, Control_c, 0, 64, 127
2, 0, Control_c, 0, 67, 0
2, 946, Note_on_c, 0, 70, 51
2, 957, Note_on_c, 0, 66, 39
2, 969, Note_on_c, 0, 63, 39
2, 2106, Note_on_c, 0, 66, 0
2, 2228, Note_on_c, 0, 63, 0
2, 2624, Note_on_c, 0, 66, 43
2, 2640, Note_on_c, 0, 63, 33
2, 3726, Note_on_c, 0, 70, 0
2, 3771, Note_on_c, 0, 63, 0
2, 3789, Note_on_c, 0, 66, 0
2, 4022, Note_on_c, 0, 70, 66
2, 4187, Control_c, 0, 64, 110
2, 4205, Control_c, 0, 64, 94
2, 4222, Control_c, 0, 64, 85
2, 4242, Control_c, 0, 64, 78
2, 4253, Note_on_c, 0, 75, 68
2, 4256, Note_on_c, 0, 66, 45
2, 4261, Control_c, 0, 64, 72
2, 4265, Note_on_c, 0, 70, 0
2, 4278, Control_c, 0, 64, 67
2, 4295, Note_on_c, 0, 63, 31
2, 4300, Control_c, 0, 64, 64
2, 4320, Control_c, 0, 64, 61
2, 4336, Control_c, 0, 64, 59
2, 4355, Control_c, 0, 64, 55
2, 4375, Control_c, 0, 64, 51
2, 4394, Control_c, 0, 64, 45
2, 4413, Control_c, 0, 64, 38
2, 4431, Control_c, 0, 64, 32
2, 4450, Control_c, 0, 64, 26
2, 4472, Control_c, 0, 64, 20
2, 4491, Control_c, 0, 64, 10
2, 4509, Control_c, 0, 64, 0
2, 4664, Control_c, 0, 64, 13
2, 4682, Control_c, 0, 64, 20
2, 4700, Control_c, 0, 64, 28
2, 4720, Control_c, 0, 64, 34
2, 4740, Control_c, 0, 64, 41
2, 4758, Control_c, 0, 64, 47
2, 4776, Control_c, 0, 64, 51
2, 4796, Control_c, 0, 64, 55
2, 4816, Control_c, 0, 64, 57
2, 4837, Control_c, 0, 64, 58
2, 4853, Control_c, 0, 64, 59
2, 4872, Control_c, 0, 64, 61
2, 4892, Control_c, 0, 64, 63
2, 4913, Control_c, 0, 64, 64
2, 4931, Control_c, 0, 64, 65
2, 4949, Control_c, 0, 64, 67
2, 4968, Control_c, 0, 64, 70
2, 4990, Control_c, 0, 64, 73
2, 5008, Control_c, 0, 64, 78
2, 5028, Control_c, 0, 64, 83
2, 5048, Control_c, 0, 64, 87
2, 5066, Control_c, 0, 64, 91
2, 5086, Control_c, 0, 64, 95
2, 5105, Control_c, 0, 64, 101
2, 5125, Control_c, 0, 64, 109
2, 5142, Control_c, 0, 64, 127
2, 5417, Note_on_c, 0, 63, 0
2, 5446, Note_on_c, 0, 66, 0
2, 5612, Note_on_c, 0, 78, 61
2, 5657, Note_on_c, 0, 75, 0
2, 5737, Control_c, 0, 64, 122
2, 5757, Control_c, 0, 64, 108
2, 5779, Control_c, 0, 64, 98
2, 5795, Control_c, 0, 64, 91
2, 5814, Control_c, 0, 64, 83
2, 5819, Note_on_c, 0, 78, 0
2, 5833, Control_c, 0, 64, 75
2, 5840, Note_on_c, 0, 71, 57
2, 5857, Control_c, 0, 64, 67
2, 5861, Note_on_c, 0, 68, 40
2, 5872, Control_c, 0, 64, 62
2, 5881, Note_on_c, 0, 63, 33
2, 5891, Control_c, 0, 64, 59
2, 5911, Control_c, 0, 64, 56
2, 5929, Control_c, 0, 64, 53
2, 5946, Control_c, 0, 64, 48
2, 5965, Control_c, 0, 64, 41
2, 5984, Control_c, 0, 64, 32
2, 6007, Control_c, 0, 64, 16
2, 6022, Control_c, 0, 64, 0
2, 6291, Control_c, 0, 64, 20
2, 6310, Control_c, 0, 64, 30
2, 6331, Control_c, 0, 64, 39
2, 6349, Control_c, 0, 64, 46
2, 6369, Control_c, 0, 64, 52
2, 6387, Control_c, 0, 64, 56
2, 6406, Control_c, 0, 64, 59
2, 6429, Control_c, 0, 64, 60
2, 6448, Control_c, 0, 64, 61
2, 6463, Control_c, 0, 64, 63
2, 6483, Control_c, 0, 64, 64
2, 6504, Control_c, 0, 64, 66
2, 6524, Control_c, 0, 64, 69
2, 6542, Control_c, 0, 64, 75
2, 6562, Control_c, 0, 64, 82
2, 6581, Control_c, 0, 64, 91
2, 6597, Control_c, 0, 64, 102
2, 6618, Control_c, 0, 64, 127
2, 6810, Note_on_c, 0, 68, 0
2, 6859, Note_on_c, 0, 63, 0
2, 7044, Note_on_c, 0, 71, 0
2, 7525, Note_on_c, 0, 68, 39
2, 7525, Note_on_c, 0, 71, 42
2, 7537, Note_on_c, 0, 63, 32
2, 8129, Note_on_c, 0, 63, 0
2, 8138, Note_on_c, 0, 71, 0
2, 8239, Note_on_c, 0, 68, 0
2, 8971, Note_on_c, 0, 75, 76
2, 9095, Control_c, 0, 64, 104
2, 9115, Control_c, 0, 64, 90
2, 9134, Control_c, 0, 64, 78
2, 9151, Control_c, 0, 64, 70
2, 9171, Control_c, 0, 64, 66
2, 9188, Note_on_c, 0, 80, 79
2, 9192, Control_c, 0, 64, 64
2, 9210, Control_c, 0, 64, 62
2, 9221, Note_on_c, 0, 71, 47
2, 9223, Note_on_c, 0, 68, 42
2, 9223, Note_on_c, 0, 75, 0
2, 9228, Control_c, 0, 64, 60
2, 9233, Note_on_c, 0, 63, 32
2, 9248, Control_c, 0, 64, 57
2, 9268, Control_c, 0, 64, 54
2, 9287, Control_c, 0, 64, 50
2, 9305, Control_c, 0, 64, 45
2, 9325, Control_c, 0, 64, 41
2, 9347, Control_c, 0, 64, 36
2, 9363, Control_c, 0, 64, 28
2, 9383, Control_c, 0, 64, 15
2, 9404, Control_c, 0, 64, 0
2, 9655, Control_c, 0, 64, 17
2, 9670, Control_c, 0, 64, 28
2, 9690, Control_c, 0, 64, 37
2, 9710, Control_c, 0, 64, 46
2, 9728, Control_c, 0, 64, 52
2, 9746, Control_c, 0, 64, 56
2, 9768, Control_c, 0, 64, 58
2, 9786, Control_c, 0, 64, 60
2, 9804, Control_c, 0, 64, 61
2, 9824, Control_c, 0, 64, 63
2, 9845, Control_c, 0, 64, 66
2, 9863, Control_c, 0, 64, 69
2, 9881, Control_c, 0, 64, 75
2, 9901, Control_c, 0, 64, 85
2, 9920, Control_c, 0, 64, 97
2, 9939, Control_c, 0, 64, 118
2, 9957, Control_c, 0, 64, 127
2, 10312, Note_on_c, 0, 63, 0
2, 10316, Note_on_c, 0, 68, 0
2, 10725, Note_on_c, 0, 83, 58
2, 10729, Note_on_c, 0, 80, 0
2, 10881, Control_c, 0, 64, 104
2, 10897, Note_on_c, 0, 71, 0
2, 10902, Control_c, 0, 64, 92
2, 10918, Control_c, 0, 64, 81
2, 10918, Note_on_c, 0, 63, 26
2, 10938, Control_c, 0, 64, 72
2, 10940, Note_on_c, 0, 83, 0
2, 10951, Note_on_c, 0, 65, 22
2, 10958, Control_c, 0, 64, 64
2, 10967, Note_on_c, 0, 68, 40
2, 10976, Note_on_c, 0, 74, 55
2, 10980, Control_c, 0, 64, 60
2, 10997, Control_c, 0, 64, 57
2, 11014, Control_c, 0, 64, 55
2, 11034, Control_c, 0, 64, 53
2, 11052, Control_c, 0, 64, 51
2, 11074, Control_c, 0, 64, 48
2, 11092, Control_c, 0, 64, 43
2, 11113, Control_c, 0, 64, 38
2, 11129, Control_c, 0, 64, 35
2, 11152, Control_c, 0, 64, 31
2, 11172, Control_c, 0, 64, 28
2, 11190, Control_c, 0, 64, 23
2, 11207, Control_c, 0, 64, 17
2, 11230, Control_c, 0, 64, 0
2, 11381, Control_c, 0, 64, 15
2, 11402, Control_c, 0, 64, 23
2, 11420, Control_c, 0, 64, 31
2, 11438, Control_c, 0, 64, 39
2, 11456, Control_c, 0, 64, 45
2, 11475, Control_c, 0, 64, 50
2, 11494, Control_c, 0, 64, 55
2, 11512, Control_c, 0, 64, 57
2, 11533, Control_c, 0, 64, 59
2, 11551, Control_c, 0, 64, 60
2, 11571, Control_c, 0, 64, 61
2, 11593, Control_c, 0, 64, 62
2, 11610, Control_c, 0, 64, 64
2, 11629, Control_c, 0, 64, 65
2, 11649, Control_c, 0, 64, 67
2, 11668, Control_c, 0, 64, 71
2, 11685, Control_c, 0, 64, 75
2, 11706, Control_c, 0, 64, 81
2, 11727, Control_c, 0, 64, 85
2, 11746, Control_c, 0, 64, 90
2, 11762, Control_c, 0, 64, 93
2, 11781, Control_c, 0, 64, 98
2, 11801, Control_c, 0, 64, 104
2, 11823, Control_c, 0, 64, 115
2, 11838, Control_c, 0, 64, 127
2, 12065, Note_on_c, 0, 68, 0
2, 12075, Note_on_c, 0, 65, 0
2, 12135, Note_on_c, 0, 63, 0
2, 12668, Control_c, 0, 64, 110
2, 12675, Note_on_c, 0, 62, 34
2, 12686, Control_c, 0, 64, 96
2, 12686, Note_on_c, 0, 68, 40
2, 12699, Note_on_c, 0, 65, 33
2, 12708, Control_c, 0, 64, 86
2, 12726, Control_c, 0, 64, 76
2, 12742, Control_c, 0, 64, 67
2, 12764, Control_c, 0, 64, 63
2, 12781, Control_c, 0, 64, 60
2, 12798, Control_c, 0, 64, 59
2, 12820, Control_c, 0, 64, 58
2, 12840, Control_c, 0, 64, 57
2, 12857, Control_c, 0, 64, 55
2, 12877, Control_c, 0, 64, 51
2, 12897, Control_c, 0, 64, 49
2, 12915, Control_c, 0, 64, 46
2, 12934, Control_c, 0, 64, 44
2, 12954, Control_c, 0, 64, 42
2, 12973, Control_c, 0, 64, 39
2, 12993, Control_c, 0, 64, 34
2, 13012, Control_c, 0, 64, 29
2, 13032, Control_c, 0, 64, 25
2, 13149, Control_c, 0, 64, 26
2, 13163, Control_c, 0, 64, 30
2, 13185, Control_c, 0, 64, 35
2, 13202, Control_c, 0, 64, 41
2, 13223, Control_c, 0, 64, 49
2, 13241, Control_c, 0, 64, 55
2, 13261, Control_c, 0, 64, 58
2, 13281, Control_c, 0, 64, 60
2, 13299, Control_c, 0, 64, 61
2, 13319, Control_c, 0, 64, 62
2, 13339, Control_c, 0, 64, 64
2, 13357, Control_c, 0, 64, 66
2, 13377, Control_c, 0, 64, 69
2, 13397, Control_c, 0, 64, 75
2, 13417, Control_c, 0, 64, 83
2, 13433, Control_c, 0, 64, 93
2, 13453, Control_c, 0, 64, 103
2, 13471, Control_c, 0, 64, 118
2, 13484, Note_on_c, 0, 65, 0
2, 13493, Control_c, 0, 64, 127
2, 13516, Note_on_c, 0, 74, 0
2, 13703, Note_on_c, 0, 68, 0
2, 13880, Note_on_c, 0, 62, 0
2, 13945, Note_on_c, 0, 77, 66
2, 14017, Note_on_c, 0, 77, 0
2, 14091, Note_on_c, 0, 62, 43
2, 14182, Control_c, 0, 64, 112
2, 14187, Note_on_c, 0, 65, 41
2, 14202, Control_c, 0, 64, 96
2, 14224, Control_c, 0, 64, 84
2, 14243, Control_c, 0, 64, 74
2, 14259, Note_on_c, 0, 70, 58
2, 14260, Control_c, 0, 64, 65
2, 14280, Control_c, 0, 64, 61
2, 14298, Control_c, 0, 64, 59
2, 14317, Control_c, 0, 64, 58
2, 14336, Control_c, 0, 64, 57
2, 14356, Control_c, 0, 64, 56
2, 14375, Control_c, 0, 64, 54
2, 14393, Control_c, 0, 64, 50
2, 14412, Control_c, 0, 64, 47
2, 14426, Note_on_c, 0, 70, 0
2, 14435, Control_c, 0, 64, 45
2, 14453, Control_c, 0, 64, 44
2, 14453, Note_on_c, 0, 68, 62
2, 14488, Control_c, 0, 64, 43
2, 14508, Control_c, 0, 64, 42
2, 14527, Control_c, 0, 64, 39
2, 14532, Note_on_c, 0, 68, 0
2, 14547, Control_c, 0, 64, 37
2, 14567, Control_c, 0, 64, 36
2, 14572, Note_on_c, 0, 70, 63
2, 14621, Note_on_c, 0, 70, 0
2, 14670, Note_on_c, 0, 68, 59
2, 14704, Control_c, 0, 64, 35
2, 14709, Note_on_c, 0, 68, 0
2, 14729, Note_on_c, 0, 70, 61
2, 14772, Note_on_c, 0, 70, 0
2, 14798, Control_c, 0, 64, 34
2, 14804, Note_on_c, 0, 68, 66
2, 14816, Control_c, 0, 64, 33
2, 14836, Note_on_c, 0, 68, 0
2, 14840, Control_c, 0, 64, 31
2, 14854, Note_on_c, 0, 70, 71
2, 14858, Control_c, 0, 64, 30
2, 14874, Control_c, 0, 64, 29
2, 14893, Control_c, 0, 64, 28
2, 14899, Note_on_c, 0, 70, 0
2, 14924, Note_on_c, 0, 68, 72
2, 14931, Control_c, 0, 64, 27
2, 14950, Control_c, 0, 64, 25
2, 14969, Control_c, 0, 64, 22
2, 14989, Control_c, 0, 64, 18
2, 15011, Control_c, 0, 64, 11
2, 15011, Note_on_c, 0, 68, 0
2, 15027, Control_c, 0, 64, 0
2, 15042, Note_on_c, 0, 66, 70
2, 15216, Note_on_c, 0, 66, 0
2, 15220, Note_on_c, 0, 68, 69
2, 15351, Note_on_c, 0, 68, 0
2, 15372, Note_on_c, 0, 70, 69
2, 15482, Note_on_c, 0, 65, 0
2, 15504, Note_on_c, 0, 62, 0
2, 15504, Note_on_c, 0, 63, 48
2, 15609, Note_on_c, 0, 70, 0
2, 15634, Note_on_c, 0, 68, 59
2, 15783, Note_on_c, 0, 68, 0
2, 15816, Note_on_c, 0, 66, 58
2, 15895, Note_on_c, 0, 66, 0
2, 15934, Note_on_c, 0, 68, 63
2, 15990, Note_on_c, 0, 68, 0
2, 16055, Note_on_c, 0, 66, 56
2, 16084, Note_on_c, 0, 66, 0
2, 16129, Note_on_c, 0, 68, 61
2, 16171, Note_on_c, 0, 68, 0
2, 16192, Note_on_c, 0, 66, 61
2, 16243, Note_on_c, 0, 66, 0
2, 16261, Note_on_c, 0, 68, 66
2, 16312, Note_on_c, 0, 68, 0
2, 16342, Note_on_c, 0, 66, 65
2, 16384, Note_on_c, 0, 66, 0
2, 16410, Note_on_c, 0, 68, 64
2, 16454, Note_on_c, 0, 68, 0
2, 16469, Note_on_c, 0, 66, 62
2, 16508, Note_on_c, 0, 66, 0
2, 16598, Note_on_c, 0, 66, 63
2, 16671, Note_on_c, 0, 66, 0
2, 16687, Note_on_c, 0, 63, 0
2, 16700, Note_on_c, 0, 65, 55
2, 16892, Note_on_c, 0, 65, 0
2, 16908, Note_on_c, 0, 63, 53
2, 17159, Note_on_c, 0, 63, 0
2, 17198, Note_on_c, 0, 78, 52
2, 17906, Control_c, 0, 64, 13
2, 17925, Control_c, 0, 64, 18
2, 17946, Control_c, 0, 64, 24
2, 17963, Control_c, 0, 64, 30
2, 17983, Control_c, 0, 64, 35
2, 18004, Control_c, 0, 64, 39
2, 18025, Control_c, 0, 64, 43
2, 18043, Control_c, 0, 64, 47
2, 18061, Control_c, 0, 64, 51
2, 18083, Control_c, 0, 64, 55
2, 18099, Control_c, 0, 64, 58
2, 18119, Control_c, 0, 64, 59
2, 18138, Control_c, 0, 64, 60
2, 18157, Control_c, 0, 64, 61
2, 18178, Control_c, 0, 64, 62
2, 18196, Control_c, 0, 64, 63
2, 18214, Control_c, 0, 64, 64
2, 18234, Control_c, 0, 64, 65
2, 18252, Control_c, 0, 64, 67
2, 18272, Control_c, 0, 64, 70
2, 18292, Control_c, 0, 64, 73
2, 18310, Control_c, 0, 64, 77
2, 18328, Control_c, 0, 64, 81
2, 18350, Control_c, 0, 64, 85
2, 18369, Control_c, 0, 64, 87
2, 18388, Control_c, 0, 64, 89
2, 18406, Control_c, 0, 64, 90
2, 18576, Note_on_c, 0, 58, 68
2, 18580, Control_c, 0, 64, 89
2, 18598, Control_c, 0, 64, 87
2, 18617, Control_c, 0, 64, 85
2, 18640, Control_c, 0, 64, 82
2, 18656, Control_c, 0, 64, 78
2, 18665, Note_on_c, 0, 78, 0
2, 18669, Note_on_c, 0, 66, 48
2, 18674, Control_c, 0, 64, 75
2, 18695, Control_c, 0, 64, 72
2, 18713, Control_c, 0, 64, 68
2, 18733, Control_c, 0, 64, 64
2, 18737, Note_on_c, 0, 70, 44
2, 18754, Control_c, 0, 64, 62
2, 18769, Control_c, 0, 64, 61
2, 18787, Note_on_c, 0, 75, 43
2, 18792, Control_c, 0, 64, 59
2, 18810, Control_c, 0, 64, 57
2, 18827, Control_c, 0, 64, 52
2, 18848, Control_c, 0, 64, 46
2, 18861, Note_on_c, 0, 54, 56
2, 18870, Control_c, 0, 64, 38
2, 18870, Note_on_c, 0, 78, 52
2, 18874, Note_on_c, 0, 58, 0
2, 18886, Control_c, 0, 64, 30
2, 18906, Control_c, 0, 64, 22
2, 18926, Control_c, 0, 64, 8
2, 18945, Control_c, 0, 64, 0
2, 19231, Control_c, 0, 64, 17
2, 19252, Control_c, 0, 64, 28
2, 19269, Control_c, 0, 64, 37
2, 19290, Control_c, 0, 64, 44
2, 19308, Control_c, 0, 64, 49
2, 19327, Control_c, 0, 64, 52
2, 19346, Control_c, 0, 64, 55
2, 19366, Control_c, 0, 64, 56
2, 19386, Control_c, 0, 64, 58
2, 19406, Control_c, 0, 64, 59
2, 19424, Control_c, 0, 64, 60
2, 19446, Control_c, 0, 64, 62
2, 19462, Control_c, 0, 64, 63
2, 19481, Control_c, 0, 64, 64
2, 19500, Control_c, 0, 64, 65
2, 19522, Control_c, 0, 64, 67
2, 19542, Control_c, 0, 64, 71
2, 19558, Control_c, 0, 64, 76
2, 19577, Control_c, 0, 64, 81
2, 19596, Control_c, 0, 64, 87
2, 19615, Control_c, 0, 64, 94
2, 19637, Control_c, 0, 64, 100
2, 19655, Control_c, 0, 64, 111
2, 19675, Control_c, 0, 64, 127
2, 19951, Note_on_c, 0, 54, 0
2, 19974, Note_on_c, 0, 75, 0
2, 20003, Note_on_c, 0, 70, 0
2, 20091, Note_on_c, 0, 78, 0
2, 20120, Note_on_c, 0, 66, 0
2, 20336, Note_on_c, 0, 51, 49
2, 20388, Control_c, 0, 64, 112
2, 20406, Control_c, 0, 64, 101
2, 20417, Note_on_c, 0, 66, 43
2, 20426, Control_c, 0, 64, 89
2, 20443, Control_c, 0, 64, 78
2, 20467, Control_c, 0, 64, 70
2, 20467, Note_on_c, 0, 70, 45
2, 20487, Control_c, 0, 64, 64
2, 20502, Control_c, 0, 64, 60
2, 20520, Control_c, 0, 64, 56
2, 20527, Note_on_c, 0, 73, 50
2, 20542, Control_c, 0, 64, 53
2, 20561, Control_c, 0, 64, 50
2, 20570, Note_on_c, 0, 46, 40
2, 20570, Note_on_c, 0, 51, 0
2, 20579, Control_c, 0, 64, 46
2, 20597, Control_c, 0, 64, 40
2, 20618, Control_c, 0, 64, 32
2, 20635, Control_c, 0, 64, 21
2, 20656, Control_c, 0, 64, 0
2, 20716, Note_on_c, 0, 78, 60
2, 21155, Control_c, 0, 64, 23
2, 21173, Control_c, 0, 64, 33
2, 21193, Control_c, 0, 64, 39
2, 21214, Control_c, 0, 64, 46
2, 21231, Control_c, 0, 64, 51
2, 21251, Control_c, 0, 64, 56
2, 21273, Control_c, 0, 64, 59
2, 21292, Control_c, 0, 64, 60
2, 21308, Control_c, 0, 64, 61
2, 21328, Control_c, 0, 64, 62
2, 21346, Control_c, 0, 64, 64
2, 21366, Control_c, 0, 64, 65
2, 21384, Control_c, 0, 64, 68
2, 21404, Control_c, 0, 64, 73
2, 21424, Control_c, 0, 64, 80
2, 21445, Control_c, 0, 64, 89
2, 21462, Control_c, 0, 64, 99
2, 21480, Control_c, 0, 64, 116
2, 21500, Control_c, 0, 64, 127
2, 21761, Note_on_c, 0, 46, 0
2, 22105, Note_on_c, 0, 46, 39
2, 22157, Note_on_c, 0, 49, 43
2, 22209, Note_on_c, 0, 54, 52
2, 22271, Note_on_c, 0, 58, 56
2, 22759, Note_on_c, 0, 66, 0
2, 22805, Control_c, 0, 64, 100
2, 22825, Control_c, 0, 64, 86
2, 22845, Control_c, 0, 64, 76
2, 22865, Control_c, 0, 64, 68
2, 22883, Control_c, 0, 64, 63
2, 22903, Control_c, 0, 64, 58
2, 22921, Control_c, 0, 64, 55
2, 22942, Control_c, 0, 64, 54
2, 22960, Control_c, 0, 64, 55
2, 22999, Control_c, 0, 64, 57
2, 23019, Note_on_c, 0, 78, 0
2, 23020, Control_c, 0, 64, 59
2, 23039, Control_c, 0, 64, 61
2, 23045, Note_on_c, 0, 70, 0
2, 23056, Control_c, 0, 64, 63
2, 23073, Control_c, 0, 64, 64
2, 23093, Control_c, 0, 64, 66
2, 23113, Control_c, 0, 64, 68
2, 23131, Control_c, 0, 64, 72
2, 23151, Control_c, 0, 64, 76
2, 23171, Control_c, 0, 64, 81
2, 23191, Control_c, 0, 64, 86
2, 23211, Control_c, 0, 64, 93
2, 23229, Control_c, 0, 64, 98
2, 23249, Control_c, 0, 64, 103
2, 23268, Control_c, 0, 64, 108
2, 23287, Control_c, 0, 64, 115
2, 23305, Control_c, 0, 64, 122
2, 23329, Control_c, 0, 64, 127
2, 23331, Note_on_c, 0, 73, 0
2, 23335, Note_on_c, 0, 78, 64
2, 23429, Note_on_c, 0, 46, 0
2, 23429, Note_on_c, 0, 49, 0
2, 23440, Note_on_c, 0, 58, 0
2, 23476, Note_on_c, 0, 54, 0
2, 23535, Note_on_c, 0, 76, 72
2, 23577, Note_on_c, 0, 78, 0
2, 23632, Control_c, 0, 64, 122
2, 23652, Control_c, 0, 64, 120
2, 23670, Control_c, 0, 64, 118
2, 23691, Control_c, 0, 64, 113
2, 23691, Note_on_c, 0, 46, 40
2, 23709, Control_c, 0, 64, 109
2, 23719, Note_on_c, 0, 49, 49
2, 23724, Note_on_c, 0, 75, 78
2, 23728, Control_c, 0, 64, 104
2, 23746, Control_c, 0, 64, 97
2, 23762, Note_on_c, 0, 76, 0
2, 23765, Control_c, 0, 64, 91
2, 23788, Control_c, 0, 64, 84
2, 23793, Note_on_c, 0, 54, 48
2, 23806, Control_c, 0, 64, 78
2, 23823, Control_c, 0, 64, 71
2, 23841, Control_c, 0, 64, 65
2, 23861, Control_c, 0, 64, 61
2, 23883, Control_c, 0, 64, 57
2, 23901, Control_c, 0, 64, 54
2, 23921, Control_c, 0, 64, 52
2, 23939, Control_c, 0, 64, 49
2, 23957, Control_c, 0, 64, 44
2, 23970, Note_on_c, 0, 58, 48
2, 23975, Note_on_c, 0, 76, 75
2, 23977, Control_c, 0, 64, 38
2, 23995, Control_c, 0, 64, 28
2, 24016, Control_c, 0, 64, 14
2, 24020, Note_on_c, 0, 75, 0
2, 24036, Control_c, 0, 64, 0
2, 24381, Control_c, 0, 64, 9
2, 24401, Control_c, 0, 64, 20
2, 24419, Control_c, 0, 64, 27
2, 24436, Control_c, 0, 64, 34
2, 24458, Control_c, 0, 64, 40
2, 24476, Control_c, 0, 64, 44
2, 24496, Control_c, 0, 64, 48
2, 24514, Control_c, 0, 64, 52
2, 24532, Control_c, 0, 64, 55
2, 24552, Control_c, 0, 64, 58
2, 24573, Control_c, 0, 64, 59
2, 24592, Control_c, 0, 64, 60
2, 24611, Control_c, 0, 64, 62
2, 24632, Control_c, 0, 64, 63
2, 24649, Control_c, 0, 64, 65
2, 24671, Control_c, 0, 64, 67
2, 24689, Control_c, 0, 64, 71
2, 24708, Control_c, 0, 64, 79
2, 24726, Control_c, 0, 64, 88
2, 24744, Control_c, 0, 64, 102
2, 24764, Control_c, 0, 64, 127
2, 24950, Note_on_c, 0, 76, 0
2, 25194, Note_on_c, 0, 46, 0
2, 25215, Note_on_c, 0, 49, 0
2, 25244, Note_on_c, 0, 54, 0
2, 25295, Note_on_c, 0, 58, 0
2, 25332, Note_on_c, 0, 73, 65
2, 25408, Note_on_c, 0, 47, 42
2, 25461, Note_on_c, 0, 51, 50
2, 25501, Note_on_c, 0, 54, 44
2, 25505, Note_on_c, 0, 73, 0
2, 25551, Control_c, 0, 64, 111
2, 25571, Control_c, 0, 64, 96
2, 25582, Note_on_c, 0, 59, 43
2, 25590, Control_c, 0, 64, 83
2, 25610, Control_c, 0, 64, 73
2, 25617, Note_on_c, 0, 63, 41
2, 25628, Control_c, 0, 64, 65
2, 25648, Control_c, 0, 64, 60
2, 25657, Note_on_c, 0, 66, 44
2, 25667, Control_c, 0, 64, 57
2, 25676, Note_on_c, 0, 71, 48
2, 25685, Control_c, 0, 64, 55
2, 25705, Control_c, 0, 64, 53
2, 25724, Control_c, 0, 64, 50
2, 25742, Note_on_c, 0, 75, 64
2, 25747, Control_c, 0, 64, 45
2, 25763, Control_c, 0, 64, 38
2, 25781, Control_c, 0, 64, 30
2, 25801, Control_c, 0, 64, 22
2, 25819, Control_c, 0, 64, 17
2, 25838, Control_c, 0, 64, 12
2, 25861, Control_c, 0, 64, 0
2, 26185, Control_c, 0, 64, 11
2, 26204, Control_c, 0, 64, 18
2, 26222, Control_c, 0, 64, 22
2, 26242, Control_c, 0, 64, 27
2, 26261, Control_c, 0, 64, 31
2, 26279, Control_c, 0, 64, 35
2, 26300, Control_c, 0, 64, 39
2, 26319, Control_c, 0, 64, 42
2, 26339, Control_c, 0, 64, 44
2, 26359, Control_c, 0, 64, 47
2, 26377, Control_c, 0, 64, 49
2, 26397, Control_c, 0, 64, 52
2, 26415, Control_c, 0, 64, 54
2, 26435, Control_c, 0, 64, 56
2, 26456, Control_c, 0, 64, 57
2, 26472, Control_c, 0, 64, 59
2, 26493, Control_c, 0, 64, 60
2, 26511, Control_c, 0, 64, 62
2, 26533, Control_c, 0, 64, 63
2, 26551, Control_c, 0, 64, 65
2, 26569, Control_c, 0, 64, 67
2, 26589, Control_c, 0, 64, 70
2, 26593, Note_on_c, 0, 63, 0
2, 26610, Control_c, 0, 64, 76
2, 26626, Control_c, 0, 64, 83
2, 26647, Control_c, 0, 64, 92
2, 26665, Control_c, 0, 64, 100
2, 26683, Control_c, 0, 64, 113
2, 26704, Control_c, 0, 64, 127
2, 26747, Note_on_c, 0, 66, 0
2, 26760, Note_on_c, 0, 47, 0
2, 26774, Note_on_c, 0, 71, 0
2, 26793, Note_on_c, 0, 59, 0
2, 26882, Note_on_c, 0, 75, 0
2, 26891, Note_on_c, 0, 54, 0
2, 26933, Note_on_c, 0, 51, 0
2, 27251, Note_on_c, 0, 66, 40
2, 27280, Control_c, 0, 64, 112
2, 27285, Note_on_c, 0, 71, 47
2, 27299, Control_c, 0, 64, 100
2, 27319, Control_c, 0, 64, 92
2, 27336, Control_c, 0, 64, 85
2, 27355, Control_c, 0, 64, 80
2, 27364, Note_on_c, 0, 75, 49
2, 27375, Control_c, 0, 64, 76
2, 27398, Control_c, 0, 64, 72
2, 27412, Control_c, 0, 64, 67
2, 27432, Control_c, 0, 64, 64
2, 27453, Control_c, 0, 64, 61
2, 27471, Control_c, 0, 64, 59
2, 27489, Control_c, 0, 64, 58
2, 27511, Control_c, 0, 64, 55
2, 27531, Control_c, 0, 64, 51
2, 27547, Control_c, 0, 64, 46
2, 27566, Control_c, 0, 64, 40
2, 27588, Control_c, 0, 64, 35
2, 27606, Control_c, 0, 64, 29
2, 27626, Control_c, 0, 64, 24
2, 27644, Control_c, 0, 64, 17
2, 27664, Control_c, 0, 64, 8
2, 27682, Control_c, 0, 64, 0
2, 28070, Control_c, 0, 64, 10
2, 28085, Control_c, 0, 64, 18
2, 28105, Control_c, 0, 64, 24
2, 28125, Control_c, 0, 64, 30
2, 28143, Control_c, 0, 64, 35
2, 28161, Control_c, 0, 64, 39
2, 28182, Control_c, 0, 64, 43
2, 28202, Control_c, 0, 64, 47
2, 28219, Control_c, 0, 64, 49
2, 28239, Control_c, 0, 64, 52
2, 28259, Control_c, 0, 64, 54
2, 28277, Control_c, 0, 64, 55
2, 28296, Control_c, 0, 64, 56
2, 28315, Control_c, 0, 64, 57
2, 28335, Control_c, 0, 64, 59
2, 28355, Control_c, 0, 64, 60
2, 28392, Control_c, 0, 64, 61
2, 28413, Control_c, 0, 64, 62
2, 28433, Control_c, 0, 64, 63
2, 28471, Control_c, 0, 64, 64
2, 28489, Control_c, 0, 64, 65
2, 28509, Control_c, 0, 64, 66
2, 28528, Control_c, 0, 64, 67
2, 28548, Control_c, 0, 64, 68
2, 28567, Control_c, 0, 64, 69
2, 28597, Note_on_c, 0, 71, 0
2, 28606, Note_on_c, 0, 66, 0
2, 28703, Note_on_c, 0, 54, 61
2, 28709, Note_on_c, 0, 75, 0
2, 28814, Control_c, 0, 64, 68
2, 28821, Note_on_c, 0, 66, 40
2, 28873, Control_c, 0, 64, 67
2, 28890, Control_c, 0, 64, 66
2, 28901, Note_on_c, 0, 71, 44
2, 28914, Control_c, 0, 64, 65
2, 28931, Control_c, 0, 64, 64
2, 28949, Control_c, 0, 64, 62
2, 28971, Control_c, 0, 64, 60
2, 28982, Note_on_c, 0, 75, 46
2, 28986, Note_on_c, 0, 51, 55
2, 28990, Control_c, 0, 64, 58
2, 29009, Control_c, 0, 64, 56
2, 29014, Note_on_c, 0, 54, 0
2, 29027, Control_c, 0, 64, 53
2, 29048, Control_c, 0, 64, 50
2, 29066, Control_c, 0, 64, 46
2, 29083, Control_c, 0, 64, 43
2, 29106, Control_c, 0, 64, 39
2, 29122, Control_c, 0, 64, 35
2, 29145, Control_c, 0, 64, 31
2, 29160, Control_c, 0, 64, 27
2, 29180, Control_c, 0, 64, 24
2, 29199, Control_c, 0, 64, 22
2, 29296, Control_c, 0, 64, 24
2, 29313, Control_c, 0, 64, 28
2, 29335, Control_c, 0, 64, 34
2, 29356, Control_c, 0, 64, 41
2, 29372, Control_c, 0, 64, 47
2, 29391, Control_c, 0, 64, 54
2, 29411, Control_c, 0, 64, 56
2, 29429, Control_c, 0, 64, 58
2, 29450, Control_c, 0, 64, 59
2, 29468, Control_c, 0, 64, 60
2, 29490, Control_c, 0, 64, 61
2, 29508, Control_c, 0, 64, 62
2, 29525, Control_c, 0, 64, 64
2, 29544, Control_c, 0, 64, 65
2, 29567, Control_c, 0, 64, 67
2, 29584, Control_c, 0, 64, 71
2, 29602, Control_c, 0, 64, 78
2, 29621, Control_c, 0, 64, 87
2, 29642, Control_c, 0, 64, 99
2, 29659, Control_c, 0, 64, 115
2, 29677, Control_c, 0, 64, 127
2, 29865, Note_on_c, 0, 71, 0
2, 29880, Note_on_c, 0, 66, 0
2, 29960, Note_on_c, 0, 75, 0
2, 29991, Note_on_c, 0, 51, 0
2, 30421, Note_on_c, 0, 47, 43
2, 30473, Note_on_c, 0, 70, 44
2, 30545, Control_c, 0, 64, 113
2, 30549, Note_on_c, 0, 75, 47
2, 30562, Control_c, 0, 64, 101
2, 30582, Control_c, 0, 64, 90
2, 30602, Control_c, 0, 64, 79
2, 30620, Control_c, 0, 64, 69
2, 30640, Control_c, 0, 64, 62
2, 30660, Control_c, 0, 64, 57
2, 30677, Note_on_c, 0, 43, 43
2, 30681, Control_c, 0, 64, 55
2, 30694, Note_on_c, 0, 47, 0
2, 30699, Control_c, 0, 64, 53
2, 30719, Control_c, 0, 64, 51
2, 30736, Control_c, 0, 64, 49
2, 30756, Control_c, 0, 64, 46
2, 30776, Control_c, 0, 64, 41
2, 30793, Control_c, 0, 64, 37
2, 30805, Note_on_c, 0, 82, 55
2, 30812, Control_c, 0, 64, 33
2, 30829, Control_c, 0, 64, 32
2, 30849, Control_c, 0, 64, 31
2, 30869, Control_c, 0, 64, 30
2, 30889, Control_c, 0, 64, 28
2, 30908, Control_c, 0, 64, 26
2, 30928, Control_c, 0, 64, 22
2, 30949, Control_c, 0, 64, 18
2, 30966, Control_c, 0, 64, 15
2, 30986, Control_c, 0, 64, 14
2, 31004, Control_c, 0, 64, 13
2, 31159, Control_c, 0, 64, 15
2, 31177, Control_c, 0, 64, 17
2, 31194, Control_c, 0, 64, 18
2, 31215, Control_c, 0, 64, 22
2, 31236, Control_c, 0, 64, 27
2, 31253, Control_c, 0, 64, 30
2, 31272, Control_c, 0, 64, 35
2, 31292, Control_c, 0, 64, 39
2, 31312, Control_c, 0, 64, 43
2, 31332, Control_c, 0, 64, 48
2, 31349, Control_c, 0, 64, 51
2, 31368, Control_c, 0, 64, 53
2, 31389, Control_c, 0, 64, 54
2, 31407, Control_c, 0, 64, 55
2, 31426, Control_c, 0, 64, 56
2, 31445, Control_c, 0, 64, 58
2, 31465, Control_c, 0, 64, 59
2, 31485, Control_c, 0, 64, 60
2, 31501, Control_c, 0, 64, 61
2, 31523, Control_c, 0, 64, 62
2, 31544, Control_c, 0, 64, 63
2, 31560, Control_c, 0, 64, 64
2, 31580, Control_c, 0, 64, 65
2, 31600, Control_c, 0, 64, 67
2, 31619, Control_c, 0, 64, 69
2, 31637, Control_c, 0, 64, 72
2, 31657, Control_c, 0, 64, 75
2, 31677, Control_c, 0, 64, 77
2, 31697, Control_c, 0, 64, 80
2, 31714, Control_c, 0, 64, 81
2, 31736, Control_c, 0, 64, 83
2, 31752, Control_c, 0, 64, 86
2, 31772, Control_c, 0, 64, 89
2, 31790, Control_c, 0, 64, 94
2, 31810, Control_c, 0, 64, 100
2, 31830, Control_c, 0, 64, 105
2, 31849, Control_c, 0, 64, 109
2, 31866, Control_c, 0, 64, 112
2, 31886, Control_c, 0, 64, 120
2, 31906, Control_c, 0, 64, 127
2, 32051, Note_on_c, 0, 43, 0
2, 32268, Note_on_c, 0, 43, 37
2, 32328, Control_c, 0, 64, 111
2, 32349, Control_c, 0, 64, 99
2, 32358, Note_on_c, 0, 46, 39
2, 32367, Control_c, 0, 64, 89
2, 32387, Control_c, 0, 64, 80
2, 32392, Note_on_c, 0, 51, 52
2, 32406, Control_c, 0, 64, 70
2, 32424, Control_c, 0, 64, 62
2, 32443, Control_c, 0, 64, 57
2, 32459, Note_on_c, 0, 55, 54
2, 32464, Control_c, 0, 64, 54
2, 32484, Control_c, 0, 64, 53
2, 32503, Control_c, 0, 64, 52
2, 32521, Control_c, 0, 64, 50
2, 32539, Control_c, 0, 64, 49
2, 32561, Control_c, 0, 64, 46
2, 32577, Control_c, 0, 64, 43
2, 32598, Control_c, 0, 64, 42
2, 32807, Control_c, 0, 64, 43
2, 32851, Control_c, 0, 64, 44
2, 32866, Control_c, 0, 64, 45
2, 32889, Control_c, 0, 64, 46
2, 32905, Control_c, 0, 64, 47
2, 32926, Control_c, 0, 64, 49
2, 32942, Control_c, 0, 64, 50
2, 32959, Control_c, 0, 64, 51
2, 32979, Control_c, 0, 64, 53
2, 32996, Note_on_c, 0, 70, 0
2, 33000, Control_c, 0, 64, 54
2, 33018, Control_c, 0, 64, 56
2, 33036, Control_c, 0, 64, 57
2, 33054, Control_c, 0, 64, 58
2, 33074, Control_c, 0, 64, 60
2, 33096, Control_c, 0, 64, 61
2, 33113, Control_c, 0, 64, 62
2, 33133, Control_c, 0, 64, 63
2, 33153, Control_c, 0, 64, 65
2, 33169, Note_on_c, 0, 82, 0
2, 33174, Control_c, 0, 64, 66
2, 33189, Control_c, 0, 64, 69
2, 33208, Control_c, 0, 64, 74
2, 33228, Control_c, 0, 64, 79
2, 33249, Control_c, 0, 64, 88
2, 33260, Note_on_c, 0, 75, 0
2, 33269, Control_c, 0, 64, 94
2, 33287, Control_c, 0, 64, 101
2, 33304, Control_c, 0, 64, 108
2, 33325, Control_c, 0, 64, 127
2, 33520, Note_on_c, 0, 75, 64
2, 33662, Note_on_c, 0, 43, 0
2, 33664, Note_on_c, 0, 51, 0
2, 33669, Note_on_c, 0, 46, 0
2, 33704, Note_on_c, 0, 73, 76
2, 33744, Note_on_c, 0, 75, 0
2, 33841, Note_on_c, 0, 55, 0
2, 33852, Note_on_c, 0, 43, 38
2, 33888, Note_on_c, 0, 46, 41
2, 33888, Note_on_c, 0, 71, 76
2, 33888, Note_on_c, 0, 73, 0
2, 33978, Note_on_c, 0, 51, 48
2, 34016, Control_c, 0, 64, 111
2, 34036, Control_c, 0, 64, 95
2, 34056, Control_c, 0, 64, 82
2, 34072, Control_c, 0, 64, 70
2, 34092, Control_c, 0, 64, 63
2, 34103, Note_on_c, 0, 55, 45
2, 34113, Control_c, 0, 64, 58
2, 34118, Note_on_c, 0, 73, 72
2, 34134, Control_c, 0, 64, 54
2, 34134, Note_on_c, 0, 71, 0
2, 34150, Control_c, 0, 64, 51
2, 34168, Control_c, 0, 64, 49
2, 34188, Control_c, 0, 64, 45
2, 34208, Control_c, 0, 64, 40
2, 34228, Control_c, 0, 64, 35
2, 34245, Control_c, 0, 64, 28
2, 34264, Control_c, 0, 64, 24
2, 34284, Control_c, 0, 64, 23
2, 34304, Control_c, 0, 64, 22
2, 34322, Control_c, 0, 64, 20
2, 34342, Control_c, 0, 64, 18
2, 34382, Control_c, 0, 64, 17
2, 34438, Control_c, 0, 64, 18
2, 34457, Control_c, 0, 64, 20
2, 34476, Control_c, 0, 64, 23
2, 34496, Control_c, 0, 64, 29
2, 34515, Control_c, 0, 64, 34
2, 34535, Control_c, 0, 64, 40
2, 34551, Control_c, 0, 64, 47
2, 34573, Control_c, 0, 64, 53
2, 34591, Control_c, 0, 64, 56
2, 34611, Control_c, 0, 64, 58
2, 34630, Control_c, 0, 64, 59
2, 34650, Control_c, 0, 64, 61
2, 34670, Control_c, 0, 64, 63
2, 34686, Control_c, 0, 64, 64
2, 34708, Control_c, 0, 64, 66
2, 34726, Control_c, 0, 64, 69
2, 34744, Control_c, 0, 64, 73
2, 34765, Control_c, 0, 64, 81
2, 34783, Control_c, 0, 64, 87
2, 34803, Control_c, 0, 64, 92
2, 34822, Control_c, 0, 64, 95
2, 34840, Control_c, 0, 64, 99
2, 34859, Control_c, 0, 64, 103
2, 34881, Control_c, 0, 64, 116
2, 34898, Control_c, 0, 64, 127
2, 35059, Note_on_c, 0, 55, 0
2, 35067, Note_on_c, 0, 43, 0
2, 35143, Note_on_c, 0, 46, 0
2, 35359, Note_on_c, 0, 51, 0
2, 35381, Note_on_c, 0, 73, 0
2, 35385, Note_on_c, 0, 70, 59
2, 35461, Note_on_c, 0, 44, 41
2, 35495, Control_c, 0, 64, 104
2, 35516, Control_c, 0, 64, 86
2, 35516, Note_on_c, 0, 47, 47
2, 35533, Control_c, 0, 64, 72
2, 35552, Control_c, 0, 64, 64
2, 35570, Control_c, 0, 64, 58
2, 35590, Control_c, 0, 64, 54
2, 35595, Note_on_c, 0, 51, 43
2, 35611, Control_c, 0, 64, 53
2, 35628, Control_c, 0, 64, 52
2, 35647, Control_c, 0, 64, 50
2, 35667, Control_c, 0, 64, 48
2, 35687, Control_c, 0, 64, 44
2, 35705, Control_c, 0, 64, 40
2, 35709, Note_on_c, 0, 70, 0
2, 35724, Control_c, 0, 64, 37
2, 35730, Note_on_c, 0, 73, 58
2, 35764, Control_c, 0, 64, 36
2, 35787, Note_on_c, 0, 56, 43
2, 35800, Control_c, 0, 64, 35
2, 35940, Note_on_c, 0, 73, 0
2, 35976, Control_c, 0, 64, 36
2, 35981, Note_on_c, 0, 71, 52
2, 35994, Control_c, 0, 64, 38
2, 36011, Control_c, 0, 64, 40
2, 36031, Control_c, 0, 64, 42
2, 36053, Control_c, 0, 64, 47
2, 36062, Note_on_c, 0, 71, 0
2, 36071, Control_c, 0, 64, 52
2, 36091, Control_c, 0, 64, 56
2, 36110, Control_c, 0, 64, 58
2, 36110, Note_on_c, 0, 73, 55
2, 36128, Control_c, 0, 64, 59
2, 36146, Control_c, 0, 64, 61
2, 36167, Control_c, 0, 64, 62
2, 36176, Note_on_c, 0, 73, 0
2, 36185, Control_c, 0, 64, 63
2, 36206, Control_c, 0, 64, 65
2, 36219, Note_on_c, 0, 71, 58
2, 36223, Control_c, 0, 64, 68
2, 36245, Control_c, 0, 64, 72
2, 36264, Control_c, 0, 64, 78
2, 36264, Note_on_c, 0, 71, 0
2, 36280, Control_c, 0, 64, 87
2, 36301, Control_c, 0, 64, 94
2, 36321, Control_c, 0, 64, 100
2, 36336, Note_on_c, 0, 73, 51
2, 36340, Control_c, 0, 64, 107
2, 36356, Control_c, 0, 64, 120
2, 36368, Note_on_c, 0, 73, 0
2, 36380, Control_c, 0, 64, 127
2, 36380, Note_on_c, 0, 44, 0
2, 36385, Note_on_c, 0, 71, 56
2, 36397, Note_on_c, 0, 47, 0
2, 36402, Note_on_c, 0, 51, 0
2, 36431, Note_on_c, 0, 71, 0
2, 36453, Note_on_c, 0, 73, 70
2, 36460, Note_on_c, 0, 56, 0
2, 36493, Note_on_c, 0, 73, 0
2, 36538, Note_on_c, 0, 71, 63
2, 36581, Note_on_c, 0, 71, 0
2, 36603, Note_on_c, 0, 73, 66
2, 36629, Note_on_c, 0, 73, 0
2, 36679, Note_on_c, 0, 71, 48
2, 36705, Note_on_c, 0, 73, 70
2, 36709, Note_on_c, 0, 71, 0
2, 36762, Note_on_c, 0, 73, 0
2, 36782, Control_c, 0, 64, 103
2, 36786, Note_on_c, 0, 71, 71
2, 36800, Control_c, 0, 64, 89
2, 36819, Control_c, 0, 64, 74
2, 36839, Control_c, 0, 64, 65
2, 36843, Note_on_c, 0, 71, 0
2, 36858, Control_c, 0, 64, 59
2, 36875, Control_c, 0, 64, 56
2, 36896, Control_c, 0, 64, 54
2, 36901, Note_on_c, 0, 70, 63
2, 36919, Control_c, 0, 64, 52
2, 36937, Control_c, 0, 64, 50
2, 36952, Control_c, 0, 64, 45
2, 36972, Control_c, 0, 64, 38
2, 36994, Control_c, 0, 64, 29
2, 37011, Control_c, 0, 64, 22
2, 37028, Control_c, 0, 64, 17
2, 37050, Control_c, 0, 64, 11
2, 37069, Control_c, 0, 64, 0
2, 37086, Note_on_c, 0, 70, 0
2, 37111, Note_on_c, 0, 68, 58
2, 37267, Note_on_c, 0, 75, 47
2, 37336, Note_on_c, 0, 80, 50
2, 37395, Note_on_c, 0, 68, 0
2, 37409, Note_on_c, 0, 83, 56
2, 37912, Control_c, 0, 64, 10
2, 37935, Control_c, 0, 64, 15
2, 37954, Control_c, 0, 64, 18
2, 37972, Control_c, 0, 64, 22
2, 37988, Control_c, 0, 64, 25
2, 38009, Control_c, 0, 64, 28
2, 38027, Control_c, 0, 64, 31
2, 38047, Control_c, 0, 64, 35
2, 38067, Control_c, 0, 64, 40
2, 38087, Control_c, 0, 64, 44
2, 38104, Control_c, 0, 64, 48
2, 38126, Control_c, 0, 64, 53
2, 38142, Control_c, 0, 64, 56
2, 38165, Control_c, 0, 64, 58
2, 38182, Control_c, 0, 64, 59
2, 38200, Control_c, 0, 64, 61
2, 38221, Control_c, 0, 64, 63
2, 38241, Control_c, 0, 64, 64
2, 38259, Control_c, 0, 64, 65
2, 38277, Control_c, 0, 64, 68
2, 38296, Control_c, 0, 64, 72
2, 38316, Control_c, 0, 64, 79
2, 38335, Control_c, 0, 64, 88
2, 38357, Control_c, 0, 64, 99
2, 38375, Control_c, 0, 64, 127
2, 38776, Note_on_c, 0, 75, 0
2, 38780, Note_on_c, 0, 80, 0
2, 38872, Note_on_c, 0, 83, 0
2, 38916, Note_on_c, 0, 71, 58
2, 39009, Control_c, 0, 64, 105
2, 39025, Note_on_c, 0, 75, 36
2, 39028, Control_c, 0, 64, 85
2, 39047, Control_c, 0, 64, 73
2, 39065, Control_c, 0, 64, 66
2, 39070, Note_on_c, 0, 80, 41
2, 39085, Control_c, 0, 64, 61
2, 39103, Control_c, 0, 64, 58
2, 39142, Control_c, 0, 64, 57
2, 39163, Control_c, 0, 64, 56
2, 39163, Note_on_c, 0, 71, 0
2, 39181, Note_on_c, 0, 68, 52
2, 39186, Control_c, 0, 64, 54
2, 39191, Note_on_c, 0, 83, 34
2, 39202, Control_c, 0, 64, 51
2, 39218, Control_c, 0, 64, 48
2, 39238, Control_c, 0, 64, 46
2, 39257, Control_c, 0, 64, 44
2, 39277, Control_c, 0, 64, 43
2, 39295, Control_c, 0, 64, 41
2, 39317, Control_c, 0, 64, 39
2, 39334, Control_c, 0, 64, 37
2, 39355, Control_c, 0, 64, 36
2, 39469, Control_c, 0, 64, 37
2, 39488, Control_c, 0, 64, 39
2, 39506, Control_c, 0, 64, 42
2, 39525, Control_c, 0, 64, 44
2, 39545, Control_c, 0, 64, 47
2, 39563, Control_c, 0, 64, 50
2, 39583, Control_c, 0, 64, 53
2, 39603, Control_c, 0, 64, 55
2, 39625, Control_c, 0, 64, 56
2, 39640, Control_c, 0, 64, 57
2, 39662, Control_c, 0, 64, 58
2, 39678, Control_c, 0, 64, 60
2, 39700, Control_c, 0, 64, 61
2, 39719, Control_c, 0, 64, 62
2, 39736, Control_c, 0, 64, 63
2, 39756, Control_c, 0, 64, 64
2, 39775, Control_c, 0, 64, 66
2, 39795, Control_c, 0, 64, 68
2, 39814, Control_c, 0, 64, 71
2, 39834, Control_c, 0, 64, 76
2, 39854, Control_c, 0, 64, 85
2, 39870, Control_c, 0, 64, 94
2, 39892, Control_c, 0, 64, 107
2, 39910, Control_c, 0, 64, 127
2, 40370, Note_on_c, 0, 75, 0
2, 40425, Note_on_c, 0, 68, 0
2, 40466, Note_on_c, 0, 80, 0
2, 40473, Note_on_c, 0, 83, 0
2, 40554, Note_on_c, 0, 65, 54
2, 40682, Note_on_c, 0, 77, 59
2, 40765, Note_on_c, 0, 80, 60
2, 41005, Control_c, 0, 64, 105
2, 41024, Control_c, 0, 64, 85
2, 41024, Note_on_c, 0, 62, 38
2, 41028, Note_on_c, 0, 65, 0
2, 41042, Control_c, 0, 64, 72
2, 41061, Control_c, 0, 64, 64
2, 41083, Control_c, 0, 64, 59
2, 41103, Control_c, 0, 64, 57
2, 41125, Note_on_c, 0, 83, 56
2, 41139, Control_c, 0, 64, 55
2, 41156, Control_c, 0, 64, 52
2, 41177, Control_c, 0, 64, 48
2, 41197, Control_c, 0, 64, 44
2, 41217, Control_c, 0, 64, 40
2, 41234, Control_c, 0, 64, 37
2, 41253, Control_c, 0, 64, 36
2, 41275, Control_c, 0, 64, 35
2, 41294, Control_c, 0, 64, 32
2, 41311, Control_c, 0, 64, 30
2, 41333, Control_c, 0, 64, 27
2, 41426, Control_c, 0, 64, 28
2, 41444, Control_c, 0, 64, 31
2, 41464, Control_c, 0, 64, 35
2, 41482, Control_c, 0, 64, 40
2, 41502, Control_c, 0, 64, 46
2, 41522, Control_c, 0, 64, 52
2, 41544, Control_c, 0, 64, 55
2, 41560, Control_c, 0, 64, 57
2, 41580, Control_c, 0, 64, 58
2, 41599, Control_c, 0, 64, 60
2, 41618, Control_c, 0, 64, 61
2, 41640, Control_c, 0, 64, 62
2, 41658, Control_c, 0, 64, 64
2, 41678, Control_c, 0, 64, 65
2, 41696, Control_c, 0, 64, 67
2, 41714, Control_c, 0, 64, 70
2, 41734, Control_c, 0, 64, 75
2, 41754, Control_c, 0, 64, 81
2, 41774, Control_c, 0, 64, 90
2, 41792, Control_c, 0, 64, 100
2, 41811, Control_c, 0, 64, 113
2, 41829, Control_c, 0, 64, 127
2, 42156, Note_on_c, 0, 62, 0
2, 42507, Note_on_c, 0, 62, 38
2, 42601, Note_on_c, 0, 65, 44
2, 42648, Note_on_c, 0, 77, 0
2, 42655, Control_c, 0, 64, 112
2, 42674, Control_c, 0, 64, 93
2, 42681, Note_on_c, 0, 70, 51
2, 42687, Note_on_c, 0, 80, 0
2, 42692, Note_on_c, 0, 83, 0
2, 42697, Control_c, 0, 64, 80
2, 42712, Control_c, 0, 64, 71
2, 42733, Control_c, 0, 64, 64
2, 42753, Control_c, 0, 64, 60
2, 42771, Control_c, 0, 64, 57
2, 42789, Control_c, 0, 64, 55
2, 42811, Control_c, 0, 64, 52
2, 42827, Control_c, 0, 64, 49
2, 42846, Control_c, 0, 64, 45
2, 42868, Control_c, 0, 64, 39
2, 42886, Control_c, 0, 64, 34
2, 42904, Control_c, 0, 64, 32
2, 42944, Control_c, 0, 64, 31
2, 43096, Control_c, 0, 64, 32
2, 43133, Control_c, 0, 64, 33
2, 43154, Control_c, 0, 64, 34
2, 43174, Control_c, 0, 64, 35
2, 43210, Control_c, 0, 64, 36
2, 43269, Control_c, 0, 64, 37
2, 43288, Control_c, 0, 64, 39
2, 43308, Control_c, 0, 64, 42
2, 43328, Control_c, 0, 64, 44
2, 43346, Control_c, 0, 64, 47
2, 43365, Control_c, 0, 64, 50
2, 43386, Control_c, 0, 64, 53
2, 43406, Control_c, 0, 64, 55
2, 43423, Control_c, 0, 64, 58
2, 43441, Control_c, 0, 64, 59
2, 43461, Control_c, 0, 64, 60
2, 43480, Control_c, 0, 64, 61
2, 43499, Control_c, 0, 64, 62
2, 43519, Control_c, 0, 64, 63
2, 43537, Control_c, 0, 64, 65
2, 43557, Control_c, 0, 64, 66
2, 43575, Control_c, 0, 64, 69
2, 43595, Control_c, 0, 64, 73
2, 43615, Control_c, 0, 64, 78
2, 43635, Control_c, 0, 64, 84
2, 43652, Control_c, 0, 64, 90
2, 43673, Control_c, 0, 64, 95
2, 43693, Control_c, 0, 64, 102
2, 43711, Control_c, 0, 64, 111
2, 43730, Control_c, 0, 64, 127
2, 43755, Note_on_c, 0, 82, 45
2, 43925, Note_on_c, 0, 62, 0
2, 43939, Note_on_c, 0, 65, 0
2, 43961, Note_on_c, 0, 80, 60
2, 43992, Note_on_c, 0, 82, 0
2, 44097, Note_on_c, 0, 70, 0
2, 44145, Note_on_c, 0, 80, 0
2, 44152, Note_on_c, 0, 78, 70
2, 44187, Note_on_c, 0, 62, 47
2, 44243, Note_on_c, 0, 65, 45
2, 44287, Control_c, 0, 64, 122
2, 44305, Control_c, 0, 64, 103
2, 44326, Control_c, 0, 64, 91
2, 44347, Control_c, 0, 64, 79
2, 44364, Control_c, 0, 64, 69
2, 44380, Note_on_c, 0, 78, 0
2, 44384, Control_c, 0, 64, 62
2, 44402, Control_c, 0, 64, 56
2, 44409, Note_on_c, 0, 77, 56
2, 44423, Control_c, 0, 64, 53
2, 44425, Note_on_c, 0, 70, 43
2, 44442, Control_c, 0, 64, 52
2, 44458, Control_c, 0, 64, 51
2, 44480, Control_c, 0, 64, 49
2, 44498, Control_c, 0, 64, 47
2, 44516, Control_c, 0, 64, 43
2, 44537, Control_c, 0, 64, 38
2, 44557, Control_c, 0, 64, 36
2, 44650, Control_c, 0, 64, 35
2, 44662, Note_on_c, 0, 77, 0
2, 44699, Note_on_c, 0, 78, 52
2, 44863, Note_on_c, 0, 78, 0
2, 44903, Note_on_c, 0, 77, 53
2, 45076, Note_on_c, 0, 77, 0
2, 45102, Note_on_c, 0, 78, 58
2, 45262, Note_on_c, 0, 78, 0
2, 45294, Note_on_c, 0, 80, 61
2, 45485, Note_on_c, 0, 80, 0
2, 45509, Note_on_c, 0, 78, 64
2, 45675, Note_on_c, 0, 78, 0
2, 45705, Note_on_c, 0, 80, 65
2, 45727, Control_c, 0, 64, 36
2, 45748, Note_on_c, 0, 65, 0
2, 45870, Note_on_c, 0, 80, 0
2, 45900, Note_on_c, 0, 77, 73
2, 45936, Note_on_c, 0, 70, 0
2, 45960, Note_on_c, 0, 62, 0
2, 45965, Note_on_c, 0, 63, 50
2, 46074, Note_on_c, 0, 66, 47
2, 46214, Note_on_c, 0, 77, 0
2, 46224, Note_on_c, 0, 80, 61
2, 46341, Note_on_c, 0, 70, 47
2, 46399, Control_c, 0, 64, 37
2, 46446, Note_on_c, 0, 80, 0
2, 46470, Note_on_c, 0, 78, 60
2, 46575, Note_on_c, 0, 78, 0
2, 46605, Note_on_c, 0, 80, 64
2, 46680, Note_on_c, 0, 80, 0
2, 46722, Note_on_c, 0, 78, 60
2, 46770, Note_on_c, 0, 78, 0
2, 46803, Note_on_c, 0, 80, 63
2, 46839, Note_on_c, 0, 80, 0
2, 46870, Note_on_c, 0, 78, 63
2, 46917, Note_on_c, 0, 78, 0
2, 46926, Note_on_c, 0, 80, 66
2, 46981, Note_on_c, 0, 80, 0
2, 47014, Note_on_c, 0, 78, 62
2, 47054, Note_on_c, 0, 78, 0
2, 47065, Note_on_c, 0, 80, 58
2, 47107, Note_on_c, 0, 80, 0
2, 47161, Note_on_c, 0, 78, 52
2, 47232, Note_on_c, 0, 78, 0
2, 47258, Note_on_c, 0, 77, 66
2, 47340, Control_c, 0, 64, 38
2, 47359, Control_c, 0, 64, 41
2, 47381, Control_c, 0, 64, 47
2, 47397, Control_c, 0, 64, 54
2, 47417, Control_c, 0, 64, 59
2, 47434, Control_c, 0, 64, 61
2, 47456, Control_c, 0, 64, 63
2, 47475, Control_c, 0, 64, 66
2, 47475, Note_on_c, 0, 70, 0
2, 47479, Note_on_c, 0, 75, 62
2, 47479, Note_on_c, 0, 77, 0
2, 47494, Control_c, 0, 64, 70
2, 47512, Control_c, 0, 64, 77
2, 47531, Note_on_c, 0, 75, 0
2, 47536, Control_c, 0, 64, 86
2, 47551, Control_c, 0, 64, 96
2, 47573, Control_c, 0, 64, 104
2, 47589, Control_c, 0, 64, 106
2, 47613, Note_on_c, 0, 66, 0
2, 47647, Note_on_c, 0, 63, 0
2, 47668, Control_c, 0, 64, 105
2, 47689, Control_c, 0, 64, 102
2, 47701, Note_on_c, 0, 70, 40
2, 47705, Control_c, 0, 64, 97
2, 47724, Control_c, 0, 64, 91
2, 47746, Control_c, 0, 64, 85
2, 47763, Control_c, 0, 64, 78
2, 47783, Control_c, 0, 64, 72
2, 47799, Control_c, 0, 64, 66
2, 47818, Note_on_c, 0, 75, 46
2, 47823, Control_c, 0, 64, 62
2, 47842, Control_c, 0, 64, 59
2, 47861, Control_c, 0, 64, 57
2, 47876, Control_c, 0, 64, 56
2, 47883, Note_on_c, 0, 78, 60
2, 47896, Control_c, 0, 64, 54
2, 47916, Control_c, 0, 64, 51
2, 47936, Control_c, 0, 64, 47
2, 47954, Control_c, 0, 64, 43
2, 47974, Control_c, 0, 64, 39
2, 47993, Control_c, 0, 64, 37
2, 48011, Control_c, 0, 64, 35
2, 48020, Note_on_c, 0, 82, 72
2, 48032, Control_c, 0, 64, 34
2, 48050, Control_c, 0, 64, 32
2, 48068, Control_c, 0, 64, 30
2, 48087, Control_c, 0, 64, 29
2, 48282, Control_c, 0, 64, 30
2, 48299, Control_c, 0, 64, 31
2, 48318, Control_c, 0, 64, 33
2, 48339, Control_c, 0, 64, 35
2, 48357, Control_c, 0, 64, 37
2, 48377, Control_c, 0, 64, 40
2, 48395, Control_c, 0, 64, 43
2, 48414, Control_c, 0, 64, 47
2, 48434, Control_c, 0, 64, 50
2, 48453, Control_c, 0, 64, 53
2, 48472, Control_c, 0, 64, 55
2, 48495, Control_c, 0, 64, 56
2, 48512, Control_c, 0, 64, 57
2, 48529, Control_c, 0, 64, 59
2, 48551, Control_c, 0, 64, 60
2, 48568, Control_c, 0, 64, 61
2, 48588, Control_c, 0, 64, 62
2, 48607, Control_c, 0, 64, 64
2, 48627, Control_c, 0, 64, 65
2, 48648, Control_c, 0, 64, 67
2, 48664, Control_c, 0, 64, 71
2, 48684, Control_c, 0, 64, 77
2, 48702, Control_c, 0, 64, 86
2, 48724, Control_c, 0, 64, 97
2, 48740, Control_c, 0, 64, 111
2, 48760, Control_c, 0, 64, 127
2, 49188, Note_on_c, 0, 70, 0
2, 49219, Note_on_c, 0, 78, 0
2, 49467, Note_on_c, 0, 75, 0
2, 49617, Note_on_c, 0, 66, 51
2, 49628, Note_on_c, 0, 82, 0
2, 49723, Control_c, 0, 64, 108
2, 49739, Control_c, 0, 64, 97
2, 49743, Note_on_c, 0, 73, 44
2, 49759, Control_c, 0, 64, 89
2, 49773, Note_on_c, 0, 75, 43
2, 49778, Control_c, 0, 64, 82
2, 49798, Control_c, 0, 64, 75
2, 49817, Control_c, 0, 64, 68
2, 49825, Note_on_c, 0, 78, 48
2, 49836, Control_c, 0, 64, 64
2, 49856, Control_c, 0, 64, 62
2, 49874, Control_c, 0, 64, 61
2, 49892, Control_c, 0, 64, 60
2, 49901, Note_on_c, 0, 66, 0
2, 49907, Note_on_c, 0, 63, 46
2, 49912, Control_c, 0, 64, 59
2, 49933, Control_c, 0, 64, 56
2, 49947, Note_on_c, 0, 82, 48
2, 49952, Control_c, 0, 64, 53
2, 49970, Control_c, 0, 64, 50
2, 49988, Control_c, 0, 64, 47
2, 50007, Control_c, 0, 64, 44
2, 50029, Control_c, 0, 64, 40
2, 50046, Control_c, 0, 64, 30
2, 50066, Control_c, 0, 64, 15
2, 50084, Control_c, 0, 64, 0
2, 50450, Control_c, 0, 64, 22
2, 50470, Control_c, 0, 64, 31
2, 50491, Control_c, 0, 64, 39
2, 50507, Control_c, 0, 64, 45
2, 50527, Control_c, 0, 64, 50
2, 50547, Control_c, 0, 64, 54
2, 50565, Control_c, 0, 64, 56
2, 50584, Control_c, 0, 64, 58
2, 50604, Control_c, 0, 64, 59
2, 50624, Control_c, 0, 64, 60
2, 50641, Control_c, 0, 64, 61
2, 50661, Control_c, 0, 64, 62
2, 50682, Control_c, 0, 64, 63
2, 50699, Control_c, 0, 64, 64
2, 50720, Control_c, 0, 64, 66
2, 50739, Control_c, 0, 64, 68
2, 50761, Control_c, 0, 64, 72
2, 50776, Control_c, 0, 64, 76
2, 50795, Control_c, 0, 64, 81
2, 50815, Control_c, 0, 64, 87
2, 50835, Control_c, 0, 64, 93
2, 50853, Control_c, 0, 64, 99
2, 50873, Control_c, 0, 64, 108
2, 50891, Control_c, 0, 64, 127
2, 51011, Note_on_c, 0, 73, 0
2, 51069, Note_on_c, 0, 82, 0
2, 51110, Note_on_c, 0, 78, 0
2, 51204, Note_on_c, 0, 75, 0
2, 51330, Note_on_c, 0, 60, 45
2, 51346, Note_on_c, 0, 63, 0
2, 51376, Note_on_c, 0, 72, 46
2, 51410, Control_c, 0, 64, 112
2, 51430, Control_c, 0, 64, 103
2, 51441, Note_on_c, 0, 75, 46
2, 51449, Control_c, 0, 64, 96
2, 51467, Control_c, 0, 64, 90
2, 51487, Control_c, 0, 64, 84
2, 51507, Control_c, 0, 64, 78
2, 51512, Note_on_c, 0, 78, 62
2, 51525, Control_c, 0, 64, 73
2, 51545, Control_c, 0, 64, 67
2, 51562, Control_c, 0, 64, 64
2, 51583, Control_c, 0, 64, 63
2, 51605, Control_c, 0, 64, 62
2, 51621, Control_c, 0, 64, 61
2, 51641, Control_c, 0, 64, 60
2, 51650, Note_on_c, 0, 60, 0
2, 51659, Control_c, 0, 64, 59
2, 51674, Note_on_c, 0, 58, 44
2, 51679, Control_c, 0, 64, 58
2, 51698, Control_c, 0, 64, 56
2, 51716, Control_c, 0, 64, 55
2, 51736, Control_c, 0, 64, 54
2, 51755, Control_c, 0, 64, 53
2, 51774, Control_c, 0, 64, 51
2, 51785, Note_on_c, 0, 84, 46
2, 51797, Control_c, 0, 64, 49
2, 51815, Control_c, 0, 64, 47
2, 51835, Control_c, 0, 64, 45
2, 51855, Control_c, 0, 64, 42
2, 51870, Control_c, 0, 64, 39
2, 51890, Control_c, 0, 64, 36
2, 51909, Control_c, 0, 64, 32
2, 51928, Control_c, 0, 64, 25
2, 51947, Control_c, 0, 64, 17
2, 51966, Control_c, 0, 64, 0
2, 52088, Note_on_c, 0, 58, 0
2, 52139, Note_on_c, 0, 57, 27
2, 52410, Control_c, 0, 64, 12
2, 52430, Control_c, 0, 64, 18
2, 52447, Control_c, 0, 64, 25
2, 52467, Control_c, 0, 64, 32
2, 52486, Control_c, 0, 64, 37
2, 52504, Control_c, 0, 64, 42
2, 52523, Control_c, 0, 64, 46
2, 52543, Control_c, 0, 64, 49
2, 52561, Control_c, 0, 64, 52
2, 52581, Control_c, 0, 64, 53
2, 52602, Control_c, 0, 64, 54
2, 52622, Control_c, 0, 64, 55
2, 52641, Control_c, 0, 64, 56
2, 52660, Control_c, 0, 64, 57
2, 52678, Control_c, 0, 64, 58
2, 52715, Control_c, 0, 64, 59
2, 52737, Control_c, 0, 64, 60
2, 52752, Control_c, 0, 64, 61
2, 52772, Control_c, 0, 64, 62
2, 52793, Control_c, 0, 64, 63
2, 52811, Control_c, 0, 64, 64
2, 52831, Control_c, 0, 64, 65
2, 52851, Control_c, 0, 64, 67
2, 52869, Control_c, 0, 64, 71
2, 52890, Control_c, 0, 64, 75
2, 52908, Control_c, 0, 64, 81
2, 52927, Control_c, 0, 64, 88
2, 52946, Control_c, 0, 64, 95
2, 52964, Control_c, 0, 64, 105
2, 52984, Control_c, 0, 64, 127
2, 53193, Note_on_c, 0, 57, 0
2, 53392, Note_on_c, 0, 57, 29
2, 53485, Control_c, 0, 64, 110
2, 53492, Note_on_c, 0, 60, 43
2, 53507, Control_c, 0, 64, 93
2, 53524, Control_c, 0, 64, 79
2, 53540, Control_c, 0, 64, 69
2, 53562, Note_on_c, 0, 72, 0
2, 53567, Control_c, 0, 64, 63
2, 53567, Note_on_c, 0, 84, 0
2, 53578, Note_on_c, 0, 65, 47
2, 53583, Control_c, 0, 64, 58
2, 53597, Control_c, 0, 64, 55
2, 53615, Note_on_c, 0, 75, 0
2, 53617, Control_c, 0, 64, 54
2, 53631, Note_on_c, 0, 78, 0
2, 53640, Control_c, 0, 64, 52
2, 53658, Control_c, 0, 64, 50
2, 53675, Control_c, 0, 64, 46
2, 53694, Control_c, 0, 64, 43
2, 53715, Control_c, 0, 64, 39
2, 53733, Control_c, 0, 64, 37
2, 53753, Control_c, 0, 64, 35
2, 53771, Control_c, 0, 64, 33
2, 53791, Control_c, 0, 64, 30
2, 53811, Control_c, 0, 64, 27
2, 53829, Control_c, 0, 64, 23
2, 53849, Control_c, 0, 64, 20
2, 53867, Control_c, 0, 64, 19
2, 53889, Control_c, 0, 64, 18
2, 54059, Control_c, 0, 64, 20
2, 54078, Control_c, 0, 64, 21
2, 54098, Control_c, 0, 64, 23
2, 54118, Control_c, 0, 64, 24
2, 54140, Control_c, 0, 64, 25
2, 54157, Control_c, 0, 64, 27
2, 54175, Control_c, 0, 64, 28
2, 54194, Control_c, 0, 64, 31
2, 54215, Control_c, 0, 64, 34
2, 54233, Control_c, 0, 64, 38
2, 54252, Control_c, 0, 64, 43
2, 54270, Control_c, 0, 64, 46
2, 54291, Control_c, 0, 64, 48
2, 54308, Control_c, 0, 64, 51
2, 54329, Control_c, 0, 64, 53
2, 54346, Control_c, 0, 64, 55
2, 54368, Control_c, 0, 64, 57
2, 54386, Control_c, 0, 64, 59
2, 54406, Control_c, 0, 64, 60
2, 54424, Control_c, 0, 64, 61
2, 54444, Control_c, 0, 64, 62
2, 54462, Control_c, 0, 64, 63
2, 54482, Control_c, 0, 64, 64
2, 54500, Control_c, 0, 64, 65
2, 54520, Control_c, 0, 64, 67
2, 54540, Control_c, 0, 64, 70
2, 54560, Control_c, 0, 64, 73
2, 54580, Control_c, 0, 64, 78
2, 54597, Control_c, 0, 64, 83
2, 54617, Control_c, 0, 64, 87
2, 54635, Control_c, 0, 64, 92
2, 54654, Control_c, 0, 64, 96
2, 54675, Control_c, 0, 64, 100
2, 54691, Note_on_c, 0, 77, 51
2, 54695, Control_c, 0, 64, 102
2, 54714, Control_c, 0, 64, 104
2, 54730, Control_c, 0, 64, 106
2, 54750, Control_c, 0, 64, 109
2, 54770, Control_c, 0, 64, 110
2, 54789, Control_c, 0, 64, 111
2, 54808, Control_c, 0, 64, 112
2, 54895, Note_on_c, 0, 77, 0
2, 54908, Note_on_c, 0, 75, 61
2, 54932, Note_on_c, 0, 60, 0
2, 54981, Control_c, 0, 64, 111
2, 54990, Note_on_c, 0, 57, 0
2, 55001, Control_c, 0, 64, 110
2, 55022, Control_c, 0, 64, 109
2, 55077, Control_c, 0, 64, 108
2, 55091, Note_on_c, 0, 65, 0
2, 55097, Control_c, 0, 64, 107
2, 55099, Note_on_c, 0, 73, 72
2, 55115, Control_c, 0, 64, 106
2, 55115, Note_on_c, 0, 75, 0
2, 55135, Control_c, 0, 64, 104
2, 55142, Note_on_c, 0, 57, 46
2, 55173, Control_c, 0, 64, 103
2, 55193, Control_c, 0, 64, 102
2, 55213, Control_c, 0, 64, 100
2, 55217, Note_on_c, 0, 60, 45
2, 55230, Control_c, 0, 64, 97
2, 55250, Control_c, 0, 64, 92
2, 55270, Control_c, 0, 64, 85
2, 55288, Control_c, 0, 64, 79
2, 55306, Control_c, 0, 64, 72
2, 55326, Control_c, 0, 64, 66
2, 55348, Control_c, 0, 64, 61
2, 55352, Note_on_c, 0, 73, 0
2, 55364, Control_c, 0, 64, 58
2, 55368, Note_on_c, 0, 72, 61
2, 55383, Control_c, 0, 64, 56
2, 55399, Note_on_c, 0, 65, 44
2, 55406, Control_c, 0, 64, 53
2, 55422, Control_c, 0, 64, 51
2, 55441, Control_c, 0, 64, 49
2, 55462, Control_c, 0, 64, 45
2, 55481, Control_c, 0, 64, 41
2, 55499, Control_c, 0, 64, 36
2, 55518, Control_c, 0, 64, 33
2, 55537, Control_c, 0, 64, 29
2, 55558, Control_c, 0, 64, 28
2, 55576, Control_c, 0, 64, 26
2, 55596, Control_c, 0, 64, 25
2, 55634, Control_c, 0, 64, 24
2, 55640, Note_on_c, 0, 72, 0
2, 55651, Control_c, 0, 64, 23
2, 55656, Note_on_c, 0, 73, 61
2, 55672, Control_c, 0, 64, 22
2, 55786, Control_c, 0, 64, 21
2, 55824, Control_c, 0, 64, 20
2, 55832, Note_on_c, 0, 73, 0
2, 55845, Control_c, 0, 64, 19
2, 55867, Control_c, 0, 64, 18
2, 55867, Note_on_c, 0, 72, 58
2, 55883, Control_c, 0, 64, 14
2, 55903, Control_c, 0, 64, 8
2, 55924, Control_c, 0, 64, 0
2, 56046, Note_on_c, 0, 72, 0
2, 56062, Note_on_c, 0, 73, 61
2, 56228, Note_on_c, 0, 73, 0
2, 56252, Note_on_c, 0, 75, 63
2, 56437, Note_on_c, 0, 75, 0
2, 56457, Note_on_c, 0, 73, 65
2, 56622, Note_on_c, 0, 73, 0
2, 56638, Note_on_c, 0, 75, 64
2, 56780, Note_on_c, 0, 60, 0
2, 56814, Note_on_c, 0, 75, 0
2, 56842, Note_on_c, 0, 72, 72
2, 56950, Note_on_c, 0, 65, 0
2, 56965, Note_on_c, 0, 57, 0
2, 56976, Note_on_c, 0, 58, 48
2, 57055, Note_on_c, 0, 61, 47
2, 57150, Note_on_c, 0, 72, 0
2, 57152, Note_on_c, 0, 75, 63
2, 57304, Note_on_c, 0, 65, 45
2, 57370, Note_on_c, 0, 75, 0
2, 57393, Note_on_c, 0, 73, 63
2, 57505, Note_on_c, 0, 73, 0
2, 57528, Note_on_c, 0, 75, 63
2, 57605, Note_on_c, 0, 75, 0
2, 57639, Note_on_c, 0, 73, 64
2, 57695, Note_on_c, 0, 73, 0
2, 57732, Note_on_c, 0, 75, 61
2, 57775, Note_on_c, 0, 75, 0
2, 57811, Note_on_c, 0, 73, 64
2, 57857, Note_on_c, 0, 73, 0
2, 57866, Note_on_c, 0, 75, 69
2, 57906, Note_on_c, 0, 75, 0
2, 57942, Note_on_c, 0, 73, 70
2, 57983, Note_on_c, 0, 73, 0
2, 58005, Note_on_c, 0, 75, 58
2, 58039, Note_on_c, 0, 75, 0
2, 58089, Note_on_c, 0, 73, 41
2, 58107, Note_on_c, 0, 75, 54
2, 58142, Note_on_c, 0, 75, 0
2, 58151, Note_on_c, 0, 73, 0
2, 58151, Note_on_c, 0, 73, 57
2, 58228, Note_on_c, 0, 73, 0
2, 58265, Note_on_c, 0, 72, 64
2, 58302, Control_c, 0, 64, 9
2, 58323, Control_c, 0, 64, 30
2, 58340, Control_c, 0, 64, 43
2, 58358, Control_c, 0, 64, 54
2, 58379, Control_c, 0, 64, 60
2, 58400, Control_c, 0, 64, 63
2, 58419, Control_c, 0, 64, 65
2, 58436, Control_c, 0, 64, 68
2, 58444, Note_on_c, 0, 58, 0
2, 58460, Control_c, 0, 64, 75
2, 58460, Note_on_c, 0, 70, 72
2, 58464, Note_on_c, 0, 72, 0
2, 58475, Control_c, 0, 64, 85
2, 58479, Note_on_c, 0, 61, 0
2, 58486, Note_on_c, 0, 65, 0
2, 58495, Control_c, 0, 64, 96
2, 58515, Control_c, 0, 64, 107
2, 58519, Note_on_c, 0, 70, 0
2, 58536, Control_c, 0, 64, 116
2, 58556, Control_c, 0, 64, 118
2, 58612, Control_c, 0, 64, 116
2, 58628, Note_on_c, 0, 58, 45
2, 58632, Control_c, 0, 64, 112
2, 58653, Control_c, 0, 64, 106
2, 58653, Note_on_c, 0, 61, 51
2, 58671, Control_c, 0, 64, 99
2, 58689, Control_c, 0, 64, 91
2, 58704, Note_on_c, 0, 65, 51
2, 58708, Control_c, 0, 64, 82
2, 58729, Control_c, 0, 64, 76
2, 58747, Control_c, 0, 64, 72
2, 58767, Control_c, 0, 64, 70
2, 58784, Control_c, 0, 64, 67
2, 58789, Note_on_c, 0, 70, 48
2, 58807, Control_c, 0, 64, 64
2, 58823, Control_c, 0, 64, 62
2, 58843, Control_c, 0, 64, 59
2, 58847, Note_on_c, 0, 73, 60
2, 58863, Control_c, 0, 64, 58
2, 58882, Control_c, 0, 64, 57
2, 58901, Control_c, 0, 64, 55
2, 58922, Control_c, 0, 64, 53
2, 58940, Control_c, 0, 64, 50
2, 58946, Note_on_c, 0, 77, 74
2, 58958, Control_c, 0, 64, 46
2, 58978, Control_c, 0, 64, 41
2, 58997, Control_c, 0, 64, 36
2, 59017, Control_c, 0, 64, 33
2, 59038, Control_c, 0, 64, 29
2, 59058, Control_c, 0, 64, 25
2, 59073, Control_c, 0, 64, 20
2, 59091, Control_c, 0, 64, 16
2, 59112, Control_c, 0, 64, 13
2, 59226, Control_c, 0, 64, 16
2, 59246, Control_c, 0, 64, 21
2, 59264, Control_c, 0, 64, 29
2, 59284, Control_c, 0, 64, 36
2, 59302, Control_c, 0, 64, 44
2, 59327, Control_c, 0, 64, 50
2, 59342, Control_c, 0, 64, 55
2, 59360, Control_c, 0, 64, 57
2, 59381, Control_c, 0, 64, 58
2, 59401, Control_c, 0, 64, 59
2, 59421, Control_c, 0, 64, 60
2, 59438, Control_c, 0, 64, 62
2, 59457, Control_c, 0, 64, 63
2, 59476, Control_c, 0, 64, 65
2, 59481, Note_on_c, 0, 77, 0
2, 59497, Control_c, 0, 64, 68
2, 59514, Control_c, 0, 64, 71
2, 59536, Control_c, 0, 64, 78
2, 59545, Note_on_c, 0, 70, 0
2, 59553, Control_c, 0, 64, 86
2, 59573, Control_c, 0, 64, 96
2, 59592, Control_c, 0, 64, 109
2, 59611, Control_c, 0, 64, 127
2, 59699, Note_on_c, 0, 73, 0
2, 59746, Note_on_c, 0, 65, 0
2, 60032, Note_on_c, 0, 78, 58
2, 60080, Note_on_c, 0, 61, 0
2, 60146, Note_on_c, 0, 58, 0
2, 60188, Note_on_c, 0, 78, 0
2, 60251, Note_on_c, 0, 77, 69
2, 60437, Note_on_c, 0, 58, 47
2, 60444, Note_on_c, 0, 75, 72
2, 60490, Note_on_c, 0, 77, 0
2, 60532, Note_on_c, 0, 61, 42
2, 60554, Control_c, 0, 64, 111
2, 60571, Control_c, 0, 64, 99
2, 60590, Control_c, 0, 64, 89
2, 60610, Control_c, 0, 64, 81
2, 60628, Control_c, 0, 64, 73
2, 60649, Control_c, 0, 64, 66
2, 60667, Control_c, 0, 64, 62
2, 60689, Control_c, 0, 64, 58
2, 60705, Control_c, 0, 64, 56
2, 60715, Note_on_c, 0, 65, 39
2, 60723, Note_on_c, 0, 73, 63
2, 60728, Control_c, 0, 64, 54
2, 60743, Control_c, 0, 64, 53
2, 60747, Note_on_c, 0, 75, 0
2, 60764, Control_c, 0, 64, 51
2, 60782, Control_c, 0, 64, 48
2, 60802, Control_c, 0, 64, 44
2, 60822, Control_c, 0, 64, 40
2, 60840, Control_c, 0, 64, 37
2, 60860, Control_c, 0, 64, 35
2, 60878, Control_c, 0, 64, 34
2, 60896, Control_c, 0, 64, 33
2, 60936, Control_c, 0, 64, 32
2, 60947, Note_on_c, 0, 73, 0
2, 60951, Note_on_c, 0, 72, 59
2, 61013, Control_c, 0, 64, 31
2, 61050, Control_c, 0, 64, 30
2, 61090, Control_c, 0, 64, 29
2, 61109, Control_c, 0, 64, 28
2, 61130, Control_c, 0, 64, 27
2, 61169, Control_c, 0, 64, 26
2, 61173, Note_on_c, 0, 70, 58
2, 61178, Note_on_c, 0, 72, 0
2, 61206, Control_c, 0, 64, 25
2, 61223, Control_c, 0, 64, 24
2, 61243, Control_c, 0, 64, 22
2, 61261, Control_c, 0, 64, 20
2, 61284, Control_c, 0, 64, 19
2, 61300, Control_c, 0, 64, 18
2, 61322, Control_c, 0, 64, 17
2, 61338, Control_c, 0, 64, 15
2, 61357, Control_c, 0, 64, 11
2, 61378, Control_c, 0, 64, 0
2, 61391, Note_on_c, 0, 70, 0
2, 61399, Note_on_c, 0, 68, 58
2, 61682, Note_on_c, 0, 68, 0
2, 61696, Note_on_c, 0, 66, 50
2, 61763, Control_c, 0, 64, 18
2, 61781, Control_c, 0, 64, 29
2, 61801, Control_c, 0, 64, 38
2, 61820, Control_c, 0, 64, 46
2, 61838, Control_c, 0, 64, 53
2, 61856, Control_c, 0, 64, 57
2, 61877, Control_c, 0, 64, 59
2, 61896, Control_c, 0, 64, 60
2, 61916, Control_c, 0, 64, 61
2, 61933, Control_c, 0, 64, 63
2, 61953, Control_c, 0, 64, 64
2, 61975, Control_c, 0, 64, 66
2, 61991, Control_c, 0, 64, 70
2, 62010, Control_c, 0, 64, 75
2, 62033, Control_c, 0, 64, 81
2, 62051, Control_c, 0, 64, 87
2, 62070, Control_c, 0, 64, 91
2, 62088, Control_c, 0, 64, 94
2, 62088, Note_on_c, 0, 65, 0
2, 62110, Control_c, 0, 64, 98
2, 62125, Control_c, 0, 64, 104
2, 62145, Control_c, 0, 64, 120
2, 62167, Control_c, 0, 64, 127
2, 62171, Note_on_c, 0, 66, 0
2, 62191, Note_on_c, 0, 68, 58
2, 62229, Note_on_c, 0, 61, 0
2, 62243, Note_on_c, 0, 58, 0
2, 62368, Note_on_c, 0, 68, 0
2, 62414, Note_on_c, 0, 65, 52
2, 62501, Note_on_c, 0, 51, 46
2, 62568, Control_c, 0, 64, 116
2, 62588, Note_on_c, 0, 58, 45
2, 62592, Control_c, 0, 64, 108
2, 62606, Control_c, 0, 64, 100
2, 62626, Control_c, 0, 64, 93
2, 62644, Control_c, 0, 64, 86
2, 62664, Control_c, 0, 64, 80
2, 62684, Control_c, 0, 64, 75
2, 62693, Note_on_c, 0, 61, 43
2, 62702, Control_c, 0, 64, 70
2, 62721, Control_c, 0, 64, 67
2, 62741, Control_c, 0, 64, 64
2, 62760, Control_c, 0, 64, 62
2, 62779, Control_c, 0, 64, 60
2, 62796, Control_c, 0, 64, 59
2, 62820, Control_c, 0, 64, 58
2, 62820, Note_on_c, 0, 63, 41
2, 62838, Control_c, 0, 64, 57
2, 62842, Note_on_c, 0, 65, 0
2, 62858, Control_c, 0, 64, 55
2, 62872, Note_on_c, 0, 66, 58
2, 62875, Control_c, 0, 64, 53
2, 62894, Control_c, 0, 64, 50
2, 62915, Control_c, 0, 64, 47
2, 62932, Control_c, 0, 64, 46
2, 62952, Control_c, 0, 64, 44
2, 62972, Control_c, 0, 64, 41
2, 62992, Control_c, 0, 64, 36
2, 63008, Control_c, 0, 64, 30
2, 63028, Control_c, 0, 64, 19
2, 63047, Control_c, 0, 64, 0
2, 63433, Control_c, 0, 64, 18
2, 63451, Control_c, 0, 64, 32
2, 63470, Control_c, 0, 64, 42
2, 63490, Control_c, 0, 64, 50
2, 63509, Control_c, 0, 64, 55
2, 63529, Control_c, 0, 64, 59
2, 63547, Control_c, 0, 64, 60
2, 63567, Control_c, 0, 64, 62
2, 63586, Control_c, 0, 64, 63
2, 63604, Control_c, 0, 64, 65
2, 63624, Control_c, 0, 64, 67
2, 63643, Control_c, 0, 64, 72
2, 63662, Control_c, 0, 64, 80
2, 63682, Control_c, 0, 64, 91
2, 63703, Control_c, 0, 64, 105
2, 63722, Control_c, 0, 64, 127
2, 63814, Note_on_c, 0, 63, 0
2, 63850, Note_on_c, 0, 66, 0
2, 64217, Note_on_c, 0, 70, 70
2, 64221, Note_on_c, 0, 51, 0
2, 64293, Note_on_c, 0, 58, 0
2, 64403, Note_on_c, 0, 51, 48
2, 64424, Note_on_c, 0, 73, 85
2, 64483, Note_on_c, 0, 70, 0
2, 64490, Note_on_c, 0, 61, 0
2, 64547, Note_on_c, 0, 58, 43
2, 64701, Control_c, 0, 64, 109
2, 64720, Control_c, 0, 64, 96
2, 64738, Control_c, 0, 64, 86
2, 64755, Control_c, 0, 64, 76
2, 64775, Control_c, 0, 64, 66
2, 64794, Note_on_c, 0, 78, 74
2, 64798, Control_c, 0, 64, 60
2, 64816, Control_c, 0, 64, 56
2, 64824, Note_on_c, 0, 73, 0
2, 64833, Control_c, 0, 64, 54
2, 64853, Control_c, 0, 64, 52
2, 64873, Control_c, 0, 64, 49
2, 64873, Note_on_c, 0, 60, 41
2, 64891, Control_c, 0, 64, 46
2, 64908, Control_c, 0, 64, 41
2, 64928, Control_c, 0, 64, 36
2, 64948, Control_c, 0, 64, 31
2, 64970, Control_c, 0, 64, 28
2, 64987, Control_c, 0, 64, 25
2, 65007, Control_c, 0, 64, 20
2, 65029, Control_c, 0, 64, 13
2, 65045, Control_c, 0, 64, 0
2, 65334, Control_c, 0, 64, 21
2, 65353, Control_c, 0, 64, 32
2, 65370, Control_c, 0, 64, 42
2, 65390, Control_c, 0, 64, 49
2, 65409, Control_c, 0, 64, 55
2, 65430, Control_c, 0, 64, 58
2, 65448, Control_c, 0, 64, 60
2, 65467, Control_c, 0, 64, 61
2, 65488, Control_c, 0, 64, 63
2, 65506, Control_c, 0, 64, 64
2, 65525, Control_c, 0, 64, 67
2, 65543, Control_c, 0, 64, 72
2, 65563, Control_c, 0, 64, 80
2, 65582, Control_c, 0, 64, 94
2, 65603, Control_c, 0, 64, 127
2, 65727, Note_on_c, 0, 78, 0
2, 66028, Note_on_c, 0, 77, 49
2, 66166, Note_on_c, 0, 51, 0
2, 66208, Note_on_c, 0, 77, 0
2, 66223, Note_on_c, 0, 58, 0
2, 66243, Note_on_c, 0, 75, 54
2, 66400, Note_on_c, 0, 60, 0
2, 66429, Note_on_c, 0, 51, 44
2, 66437, Note_on_c, 0, 73, 68
2, 66441, Note_on_c, 0, 75, 0
2, 66558, Note_on_c, 0, 58, 37
2, 66600, Control_c, 0, 64, 103
2, 66618, Control_c, 0, 64, 90
2, 66638, Control_c, 0, 64, 79
2, 66656, Control_c, 0, 64, 71
2, 66675, Control_c, 0, 64, 64
2, 66696, Control_c, 0, 64, 59
2, 66703, Note_on_c, 0, 73, 0
2, 66718, Control_c, 0, 64, 56
2, 66724, Note_on_c, 0, 72, 60
2, 66737, Control_c, 0, 64, 54
2, 66757, Control_c, 0, 64, 52
2, 66774, Control_c, 0, 64, 49
2, 66793, Control_c, 0, 64, 45
2, 66808, Note_on_c, 0, 60, 38
2, 66812, Control_c, 0, 64, 39
2, 66831, Control_c, 0, 64, 32
2, 66850, Control_c, 0, 64, 26
2, 66870, Control_c, 0, 64, 23
2, 66888, Control_c, 0, 64, 19
2, 66908, Control_c, 0, 64, 14
2, 66928, Control_c, 0, 64, 10
2, 66946, Control_c, 0, 64, 9
2, 67081, Control_c, 0, 64, 11
2, 67099, Control_c, 0, 64, 12
2, 67116, Control_c, 0, 64, 13
2, 67137, Control_c, 0, 64, 14
2, 67158, Control_c, 0, 64, 15
2, 67195, Control_c, 0, 64, 16
2, 67233, Control_c, 0, 64, 17
2, 67271, Control_c, 0, 64, 18
2, 67348, Control_c, 0, 64, 19
2, 67398, Note_on_c, 0, 72, 0
2, 67427, Note_on_c, 0, 75, 52
2, 67443, Control_c, 0, 64, 20
2, 67514, Note_on_c, 0, 75, 0
2, 67519, Note_on_c, 0, 73, 64
2, 67581, Control_c, 0, 64, 21
2, 67588, Note_on_c, 0, 73, 0
2, 67636, Note_on_c, 0, 72, 60
2, 67657, Control_c, 0, 64, 22
2, 67814, Note_on_c, 0, 72, 0
2, 67836, Note_on_c, 0, 73, 62
2, 67963, Control_c, 0, 64, 23
2, 67982, Control_c, 0, 64, 24
2, 68001, Control_c, 0, 64, 26
2, 68019, Control_c, 0, 64, 30
2, 68024, Note_on_c, 0, 73, 0
2, 68041, Control_c, 0, 64, 37
2, 68046, Note_on_c, 0, 75, 67
2, 68060, Control_c, 0, 64, 47
2, 68079, Control_c, 0, 64, 54
2, 68096, Control_c, 0, 64, 58
2, 68117, Control_c, 0, 64, 60
2, 68137, Control_c, 0, 64, 62
2, 68156, Control_c, 0, 64, 64
2, 68173, Control_c, 0, 64, 66
2, 68194, Control_c, 0, 64, 69
2, 68217, Control_c, 0, 64, 77
2, 68217, Note_on_c, 0, 51, 0
2, 68233, Control_c, 0, 64, 87
2, 68237, Note_on_c, 0, 58, 0
2, 68250, Control_c, 0, 64, 96
2, 68270, Control_c, 0, 64, 103
2, 68292, Control_c, 0, 64, 106
2, 68310, Note_on_c, 0, 60, 0
2, 68375, Note_on_c, 0, 51, 49
2, 68404, Control_c, 0, 64, 104
2, 68426, Control_c, 0, 64, 102
2, 68443, Control_c, 0, 64, 100
2, 68463, Control_c, 0, 64, 98
2, 68473, Note_on_c, 0, 57, 45
2, 68487, Control_c, 0, 64, 96
2, 68504, Control_c, 0, 64, 95
2, 68523, Control_c, 0, 64, 92
2, 68544, Control_c, 0, 64, 88
2, 68562, Control_c, 0, 64, 83
2, 68580, Control_c, 0, 64, 77
2, 68600, Control_c, 0, 64, 70
2, 68619, Control_c, 0, 64, 64
2, 68619, Note_on_c, 0, 75, 0
2, 68623, Note_on_c, 0, 65, 58
2, 68641, Control_c, 0, 64, 60
2, 68657, Control_c, 0, 64, 58
2, 68680, Control_c, 0, 64, 57
2, 68696, Control_c, 0, 64, 56
2, 68713, Control_c, 0, 64, 53
2, 68733, Control_c, 0, 64, 49
2, 68752, Control_c, 0, 64, 44
2, 68771, Control_c, 0, 64, 40
2, 68780, Note_on_c, 0, 60, 42
2, 68791, Control_c, 0, 64, 38
2, 68814, Control_c, 0, 64, 37
2, 69002, Control_c, 0, 64, 38
2, 69042, Control_c, 0, 64, 39
2, 69080, Control_c, 0, 64, 40
2, 69214, Control_c, 0, 64, 41
2, 69288, Note_on_c, 0, 65, 0
2, 69330, Note_on_c, 0, 67, 48
2, 69439, Note_on_c, 0, 67, 0
2, 69476, Note_on_c, 0, 69, 50
2, 69621, Note_on_c, 0, 69, 0
2, 69665, Note_on_c, 0, 70, 53
2, 69677, Control_c, 0, 64, 42
2, 69693, Control_c, 0, 64, 43
2, 69714, Control_c, 0, 64, 44
2, 69732, Control_c, 0, 64, 45
2, 69752, Control_c, 0, 64, 47
2, 69770, Control_c, 0, 64, 48
2, 69779, Note_on_c, 0, 70, 0
2, 69811, Control_c, 0, 64, 49
2, 69816, Note_on_c, 0, 69, 51
2, 69886, Note_on_c, 0, 69, 0
2, 69934, Note_on_c, 0, 70, 57
2, 69972, Note_on_c, 0, 70, 0
2, 70016, Note_on_c, 0, 69, 53
2, 70047, Note_on_c, 0, 69, 0
2, 70060, Note_on_c, 0, 70, 70
2, 70107, Note_on_c, 0, 70, 0
2, 70137, Note_on_c, 0, 69, 63
2, 70176, Note_on_c, 0, 69, 0
2, 70207, Note_on_c, 0, 70, 56
2, 70235, Note_on_c, 0, 70, 0
2, 70259, Note_on_c, 0, 69, 51
2, 70288, Note_on_c, 0, 51, 0
2, 70288, Note_on_c, 0, 69, 0
2, 70310, Note_on_c, 0, 60, 0
2, 70326, Note_on_c, 0, 70, 51
2, 70365, Note_on_c, 0, 70, 0
2, 70381, Note_on_c, 0, 69, 60
2, 70386, Control_c, 0, 64, 50
2, 70405, Control_c, 0, 64, 52
2, 70421, Note_on_c, 0, 69, 0
2, 70425, Control_c, 0, 64, 55
2, 70443, Control_c, 0, 64, 58
2, 70449, Note_on_c, 0, 67, 69
2, 70464, Control_c, 0, 64, 60
2, 70480, Control_c, 0, 64, 61
2, 70502, Control_c, 0, 64, 63
2, 70522, Control_c, 0, 64, 64
2, 70522, Note_on_c, 0, 67, 0
2, 70527, Note_on_c, 0, 57, 0
2, 70539, Control_c, 0, 64, 65
2, 70539, Note_on_c, 0, 69, 61
2, 70556, Note_on_c, 0, 49, 49
2, 70560, Control_c, 0, 64, 66
2, 70577, Control_c, 0, 64, 67
2, 70616, Control_c, 0, 64, 66
2, 70624, Note_on_c, 0, 53, 50
2, 70655, Control_c, 0, 64, 65
2, 70673, Control_c, 0, 64, 63
2, 70678, Note_on_c, 0, 70, 81
2, 70687, Note_on_c, 0, 69, 0
2, 70696, Control_c, 0, 64, 61
2, 70705, Note_on_c, 0, 58, 59
2, 70711, Control_c, 0, 64, 59
2, 70730, Control_c, 0, 64, 57
2, 70750, Control_c, 0, 64, 54
2, 70770, Control_c, 0, 64, 50
2, 70788, Control_c, 0, 64, 46
2, 70808, Control_c, 0, 64, 42
2, 70827, Control_c, 0, 64, 37
2, 70848, Control_c, 0, 64, 33
2, 70863, Control_c, 0, 64, 26
2, 70883, Control_c, 0, 64, 15
2, 70903, Control_c, 0, 64, 0
2, 71230, Control_c, 0, 64, 21
2, 71249, Control_c, 0, 64, 36
2, 71268, Control_c, 0, 64, 45
2, 71290, Control_c, 0, 64, 52
2, 71306, Control_c, 0, 64, 57
2, 71325, Control_c, 0, 64, 59
2, 71344, Control_c, 0, 64, 60
2, 71364, Control_c, 0, 64, 61
2, 71382, Control_c, 0, 64, 63
2, 71402, Control_c, 0, 64, 64
2, 71421, Control_c, 0, 64, 67
2, 71440, Control_c, 0, 64, 71
2, 71460, Control_c, 0, 64, 77
2, 71480, Control_c, 0, 64, 87
2, 71498, Control_c, 0, 64, 103
2, 71517, Control_c, 0, 64, 127
2, 71826, Note_on_c, 0, 53, 0
2, 71944, Note_on_c, 0, 58, 0
2, 72250, Note_on_c, 0, 65, 73
2, 72477, Control_c, 0, 64, 109
2, 72496, Control_c, 0, 64, 98
2, 72516, Control_c, 0, 64, 90
2, 72523, Note_on_c, 0, 49, 0
2, 72539, Note_on_c, 0, 51, 47
2, 72543, Control_c, 0, 64, 82
2, 72543, Note_on_c, 0, 58, 41
2, 72543, Note_on_c, 0, 66, 69
2, 72554, Control_c, 0, 64, 74
2, 72563, Note_on_c, 0, 65, 0
2, 72574, Control_c, 0, 64, 66
2, 72597, Control_c, 0, 64, 61
2, 72610, Control_c, 0, 64, 55
2, 72632, Control_c, 0, 64, 52
2, 72650, Control_c, 0, 64, 50
2, 72671, Control_c, 0, 64, 47
2, 72687, Control_c, 0, 64, 42
2, 72707, Control_c, 0, 64, 34
2, 72727, Control_c, 0, 64, 24
2, 72747, Control_c, 0, 64, 10
2, 72764, Control_c, 0, 64, 0
2, 72885, Control_c, 0, 64, 15
2, 72900, Control_c, 0, 64, 20
2, 72920, Control_c, 0, 64, 25
2, 72938, Control_c, 0, 64, 27
2, 72958, Control_c, 0, 64, 29
2, 72979, Control_c, 0, 64, 30
2, 73034, Control_c, 0, 64, 31
2, 73092, Control_c, 0, 64, 32
2, 73170, Control_c, 0, 64, 33
2, 73207, Control_c, 0, 64, 34
2, 73246, Control_c, 0, 64, 35
2, 73285, Control_c, 0, 64, 36
2, 73303, Control_c, 0, 64, 37
2, 73342, Control_c, 0, 64, 38
2, 73360, Control_c, 0, 64, 39
2, 73380, Control_c, 0, 64, 41
2, 73403, Control_c, 0, 64, 44
2, 73418, Control_c, 0, 64, 48
2, 73438, Control_c, 0, 64, 53
2, 73458, Control_c, 0, 64, 56
2, 73476, Control_c, 0, 64, 57
2, 73494, Control_c, 0, 64, 58
2, 73515, Control_c, 0, 64, 60
2, 73536, Control_c, 0, 64, 61
2, 73553, Control_c, 0, 64, 62
2, 73573, Control_c, 0, 64, 63
2, 73591, Control_c, 0, 64, 64
2, 73610, Control_c, 0, 64, 66
2, 73630, Control_c, 0, 64, 68
2, 73647, Control_c, 0, 64, 71
2, 73667, Control_c, 0, 64, 74
2, 73689, Control_c, 0, 64, 78
2, 73707, Control_c, 0, 64, 82
2, 73726, Control_c, 0, 64, 85
2, 73744, Control_c, 0, 64, 87
2, 73766, Control_c, 0, 64, 89
2, 73784, Control_c, 0, 64, 91
2, 73803, Control_c, 0, 64, 93
2, 73823, Control_c, 0, 64, 95
2, 73862, Control_c, 0, 64, 96
2, 74129, Control_c, 0, 64, 95
2, 74224, Control_c, 0, 64, 94
2, 74233, Note_on_c, 0, 66, 0
2, 74259, Note_on_c, 0, 63, 45
2, 74302, Control_c, 0, 64, 93
2, 74360, Control_c, 0, 64, 92
2, 74377, Control_c, 0, 64, 91
2, 74399, Control_c, 0, 64, 90
2, 74417, Control_c, 0, 64, 89
2, 74436, Control_c, 0, 64, 88
2, 74454, Control_c, 0, 64, 86
2, 74467, Note_on_c, 0, 53, 42
2, 74473, Control_c, 0, 64, 83
2, 74493, Control_c, 0, 64, 81
2, 74511, Control_c, 0, 64, 78
2, 74530, Control_c, 0, 64, 75
2, 74537, Note_on_c, 0, 63, 0
2, 74552, Control_c, 0, 64, 71
2, 74552, Note_on_c, 0, 51, 0
2, 74560, Note_on_c, 0, 58, 0
2, 74565, Note_on_c, 0, 60, 48
2, 74569, Control_c, 0, 64, 67
2, 74590, Control_c, 0, 64, 64
2, 74611, Control_c, 0, 64, 62
2, 74630, Control_c, 0, 64, 60
2, 74648, Control_c, 0, 64, 59
2, 74667, Control_c, 0, 64, 58
2, 74685, Control_c, 0, 64, 55
2, 74706, Control_c, 0, 64, 52
2, 74723, Control_c, 0, 64, 49
2, 74743, Control_c, 0, 64, 47
2, 74762, Control_c, 0, 64, 45
2, 74781, Control_c, 0, 64, 43
2, 74801, Control_c, 0, 64, 40
2, 74820, Control_c, 0, 64, 35
2, 74838, Control_c, 0, 64, 31
2, 74860, Control_c, 0, 64, 25
2, 74876, Control_c, 0, 64, 20
2, 74896, Control_c, 0, 64, 10
2, 74916, Control_c, 0, 64, 0
2, 75414, Control_c, 0, 64, 8
2, 75432, Control_c, 0, 64, 15
2, 75452, Control_c, 0, 64, 20
2, 75470, Control_c, 0, 64, 25
2, 75492, Control_c, 0, 64, 29
2, 75509, Control_c, 0, 64, 34
2, 75527, Control_c, 0, 64, 38
2, 75547, Control_c, 0, 64, 42
2, 75569, Control_c, 0, 64, 46
2, 75586, Control_c, 0, 64, 51
2, 75603, Control_c, 0, 64, 54
2, 75625, Control_c, 0, 64, 56
2, 75645, Control_c, 0, 64, 57
2, 75683, Control_c, 0, 64, 58
2, 75699, Control_c, 0, 64, 59
2, 75719, Control_c, 0, 64, 60
2, 75740, Control_c, 0, 64, 61
2, 75753, Note_on_c, 0, 60, 0
2, 75757, Control_c, 0, 64, 62
2, 75775, Note_on_c, 0, 61, 39
2, 75793, Control_c, 0, 64, 63
2, 75830, Control_c, 0, 64, 64
2, 75981, Note_on_c, 0, 61, 0
2, 76017, Note_on_c, 0, 60, 56
2, 76060, Note_on_c, 0, 53, 0
2, 76233, Note_on_c, 0, 60, 0
2, 76237, Note_on_c, 0, 61, 53
2, 76272, Control_c, 0, 64, 63
2, 76312, Control_c, 0, 64, 62
2, 76350, Control_c, 0, 64, 61
2, 76369, Control_c, 0, 64, 60
2, 76388, Control_c, 0, 64, 59
2, 76408, Control_c, 0, 64, 58
2, 76427, Control_c, 0, 64, 57
2, 76447, Control_c, 0, 64, 55
2, 76462, Note_on_c, 0, 41, 37
2, 76466, Note_on_c, 0, 61, 0
2, 76470, Control_c, 0, 64, 52
2, 76475, Note_on_c, 0, 53, 39
2, 76485, Control_c, 0, 64, 49
2, 76490, Note_on_c, 0, 63, 49
2, 76503, Control_c, 0, 64, 46
2, 76522, Control_c, 0, 64, 44
2, 76540, Control_c, 0, 64, 43
2, 76637, Control_c, 0, 64, 44
2, 76656, Control_c, 0, 64, 47
2, 76677, Control_c, 0, 64, 51
2, 76694, Control_c, 0, 64, 55
2, 76716, Control_c, 0, 64, 58
2, 76735, Control_c, 0, 64, 60
2, 76748, Note_on_c, 0, 63, 0
2, 76753, Control_c, 0, 64, 61
2, 76753, Note_on_c, 0, 61, 53
2, 76772, Control_c, 0, 64, 63
2, 76792, Control_c, 0, 64, 65
2, 76811, Control_c, 0, 64, 67
2, 76831, Control_c, 0, 64, 71
2, 76849, Control_c, 0, 64, 76
2, 76868, Control_c, 0, 64, 82
2, 76891, Control_c, 0, 64, 87
2, 76906, Control_c, 0, 64, 90
2, 76928, Control_c, 0, 64, 91
2, 76932, Note_on_c, 0, 61, 0
2, 76949, Control_c, 0, 64, 92
2, 76958, Note_on_c, 0, 60, 59
2, 77059, Control_c, 0, 64, 91
2, 77081, Control_c, 0, 64, 90
2, 77099, Control_c, 0, 64, 89
2, 77119, Control_c, 0, 64, 87
2, 77137, Control_c, 0, 64, 81
2, 77159, Control_c, 0, 64, 73
2, 77163, Note_on_c, 0, 60, 0
2, 77163, Note_on_c, 0, 61, 62
2, 77179, Control_c, 0, 64, 66
2, 77195, Control_c, 0, 64, 61
2, 77217, Control_c, 0, 64, 57
2, 77234, Control_c, 0, 64, 55
2, 77254, Control_c, 0, 64, 54
2, 77311, Control_c, 0, 64, 55
2, 77330, Control_c, 0, 64, 57
2, 77347, Control_c, 0, 64, 58
2, 77369, Control_c, 0, 64, 60
2, 77369, Note_on_c, 0, 63, 73
2, 77391, Note_on_c, 0, 61, 0
2, 77407, Control_c, 0, 64, 61
2, 77409, Note_on_c, 0, 70, 0
2, 77485, Control_c, 0, 64, 62
2, 77581, Control_c, 0, 64, 61
2, 77581, Note_on_c, 0, 65, 75
2, 77587, Note_on_c, 0, 63, 0
2, 77618, Control_c, 0, 64, 60
2, 77656, Control_c, 0, 64, 59
2, 77675, Control_c, 0, 64, 58
2, 77714, Control_c, 0, 64, 57
2, 77733, Control_c, 0, 64, 56
2, 77751, Control_c, 0, 64, 55
2, 77771, Control_c, 0, 64, 53
2, 77790, Control_c, 0, 64, 51
2, 77809, Control_c, 0, 64, 49
2, 77816, Note_on_c, 0, 63, 79
2, 77828, Control_c, 0, 64, 46
2, 77848, Control_c, 0, 64, 42
2, 77861, Note_on_c, 0, 65, 0
2, 77866, Control_c, 0, 64, 38
2, 77888, Control_c, 0, 64, 34
2, 77905, Control_c, 0, 64, 33
2, 77942, Control_c, 0, 64, 36
2, 77962, Control_c, 0, 64, 42
2, 77982, Control_c, 0, 64, 52
2, 78000, Control_c, 0, 64, 59
2, 78022, Control_c, 0, 64, 62
2, 78028, Note_on_c, 0, 65, 82
2, 78040, Control_c, 0, 64, 64
2, 78061, Control_c, 0, 64, 67
2, 78061, Note_on_c, 0, 63, 0
2, 78072, Note_on_c, 0, 41, 0
2, 78081, Control_c, 0, 64, 72
2, 78096, Control_c, 0, 64, 79
2, 78120, Control_c, 0, 64, 89
2, 78120, Note_on_c, 0, 65, 0
2, 78130, Note_on_c, 0, 53, 0
2, 78135, Control_c, 0, 64, 94
2, 78155, Control_c, 0, 64, 95
2, 78211, Control_c, 0, 64, 94
2, 78231, Control_c, 0, 64, 93
2, 78253, Control_c, 0, 64, 92
2, 78270, Control_c, 0, 64, 90
2, 78287, Note_on_c, 0, 41, 21
2, 78292, Control_c, 0, 64, 86
2, 78308, Control_c, 0, 64, 82
2, 78329, Control_c, 0, 64, 78
2, 78346, Control_c, 0, 64, 75
2, 78364, Control_c, 0, 64, 71
2, 78385, Control_c, 0, 64, 67
2, 78398, Note_on_c, 0, 53, 42
2, 78405, Control_c, 0, 64, 64
2, 78416, Note_on_c, 0, 69, 67
2, 78423, Control_c, 0, 64, 60
2, 78432, Note_on_c, 0, 60, 61
2, 78432, Note_on_c, 0, 66, 69
2, 78443, Control_c, 0, 64, 58
2, 78462, Control_c, 0, 64, 56
2, 78482, Control_c, 0, 64, 54
2, 78499, Control_c, 0, 64, 52
2, 78520, Control_c, 0, 64, 47
2, 78539, Control_c, 0, 64, 42
2, 78559, Control_c, 0, 64, 37
2, 78576, Control_c, 0, 64, 33
2, 78595, Control_c, 0, 64, 32
2, 78617, Control_c, 0, 64, 31
2, 78634, Control_c, 0, 64, 30
2, 78655, Control_c, 0, 64, 29
2, 78673, Control_c, 0, 64, 28
2, 78827, Control_c, 0, 64, 29
2, 78845, Control_c, 0, 64, 31
2, 78864, Control_c, 0, 64, 34
2, 78884, Control_c, 0, 64, 38
2, 78906, Control_c, 0, 64, 43
2, 78923, Control_c, 0, 64, 48
2, 78942, Control_c, 0, 64, 54
2, 78964, Control_c, 0, 64, 57
2, 78983, Control_c, 0, 64, 58
2, 79003, Control_c, 0, 64, 59
2, 79018, Control_c, 0, 64, 60
2, 79040, Control_c, 0, 64, 61
2, 79057, Control_c, 0, 64, 63
2, 79077, Control_c, 0, 64, 64
2, 79115, Control_c, 0, 64, 65
2, 79137, Control_c, 0, 64, 66
2, 79174, Control_c, 0, 64, 67
2, 79212, Note_on_c, 0, 66, 0
2, 79287, Control_c, 0, 64, 66
2, 79346, Control_c, 0, 64, 65
2, 79364, Control_c, 0, 64, 64
2, 79402, Control_c, 0, 64, 63
2, 79421, Control_c, 0, 64, 62
2, 79439, Control_c, 0, 64, 60
2, 79448, Note_on_c, 0, 66, 53
2, 79462, Control_c, 0, 64, 58
2, 79481, Control_c, 0, 64, 56
2, 79498, Control_c, 0, 64, 55
2, 79517, Control_c, 0, 64, 54
2, 79532, Note_on_c, 0, 66, 0
2, 79555, Control_c, 0, 64, 53
2, 79571, Note_on_c, 0, 65, 49
2, 79575, Control_c, 0, 64, 51
2, 79593, Control_c, 0, 64, 49
2, 79613, Control_c, 0, 64, 47
2, 79621, Note_on_c, 0, 65, 0
2, 79633, Control_c, 0, 64, 45
2, 79652, Control_c, 0, 64, 44
2, 79663, Note_on_c, 0, 66, 54
2, 79670, Control_c, 0, 64, 43
2, 79690, Control_c, 0, 64, 42
2, 79695, Note_on_c, 0, 66, 0
2, 79709, Control_c, 0, 64, 39
2, 79729, Control_c, 0, 64, 34
2, 79738, Note_on_c, 0, 65, 42
2, 79748, Control_c, 0, 64, 30
2, 79768, Control_c, 0, 64, 25
2, 79779, Note_on_c, 0, 66, 64
2, 79788, Control_c, 0, 64, 21
2, 79804, Control_c, 0, 64, 17
2, 79814, Note_on_c, 0, 66, 0
2, 79818, Note_on_c, 0, 65, 0
2, 79818, Note_on_c, 0, 65, 45
2, 79827, Control_c, 0, 64, 11
2, 79844, Control_c, 0, 64, 0
2, 80077, Control_c, 0, 64, 13
2, 80094, Control_c, 0, 64, 25
2, 80114, Control_c, 0, 64, 35
2, 80131, Control_c, 0, 64, 43
2, 80154, Control_c, 0, 64, 50
2, 80170, Control_c, 0, 64, 55
2, 80190, Control_c, 0, 64, 59
2, 80212, Control_c, 0, 64, 60
2, 80229, Control_c, 0, 64, 61
2, 80248, Control_c, 0, 64, 63
2, 80268, Control_c, 0, 64, 65
2, 80289, Control_c, 0, 64, 67
2, 80306, Control_c, 0, 64, 71
2, 80324, Control_c, 0, 64, 78
2, 80344, Control_c, 0, 64, 88
2, 80362, Control_c, 0, 64, 100
2, 80381, Control_c, 0, 64, 127
2, 80428, Note_on_c, 0, 69, 0
2, 80443, Note_on_c, 0, 53, 0
2, 80458, Note_on_c, 0, 41, 0
2, 80487, Note_on_c, 0, 60, 0
2, 80894, Note_on_c, 0, 65, 0
2, 80923, Note_on_c, 0, 63, 56
2, 81002, Note_on_c, 0, 46, 43
2, 81055, Control_c, 0, 64, 100
2, 81062, Note_on_c, 0, 53, 44
2, 81073, Control_c, 0, 64, 86
2, 81096, Control_c, 0, 64, 76
2, 81111, Control_c, 0, 64, 68
2, 81131, Control_c, 0, 64, 63
2, 81152, Control_c, 0, 64, 59
2, 81152, Note_on_c, 0, 63, 0
2, 81170, Control_c, 0, 64, 57
2, 81181, Note_on_c, 0, 58, 35
2, 81181, Note_on_c, 0, 70, 54
2, 81185, Note_on_c, 0, 61, 47
2, 81188, Control_c, 0, 64, 55
2, 81208, Control_c, 0, 64, 53
2, 81226, Control_c, 0, 64, 49
2, 81247, Control_c, 0, 64, 45
2, 81265, Control_c, 0, 64, 39
2, 81284, Control_c, 0, 64, 35
2, 81303, Control_c, 0, 64, 32
2, 81323, Control_c, 0, 64, 30
2, 81341, Control_c, 0, 64, 28
2, 81359, Control_c, 0, 64, 24
2, 81383, Control_c, 0, 64, 19
2, 81401, Control_c, 0, 64, 16
2, 81515, Control_c, 0, 64, 18
2, 81535, Control_c, 0, 64, 20
2, 81552, Control_c, 0, 64, 23
2, 81572, Control_c, 0, 64, 27
2, 81593, Control_c, 0, 64, 31
2, 81610, Control_c, 0, 64, 35
2, 81628, Control_c, 0, 64, 39
2, 81648, Control_c, 0, 64, 43
2, 81668, Control_c, 0, 64, 46
2, 81688, Control_c, 0, 64, 50
2, 81705, Control_c, 0, 64, 52
2, 81725, Control_c, 0, 64, 54
2, 81747, Control_c, 0, 64, 55
2, 81765, Control_c, 0, 64, 56
2, 81784, Control_c, 0, 64, 57
2, 81801, Control_c, 0, 64, 58
2, 81824, Control_c, 0, 64, 59
2, 81840, Control_c, 0, 64, 60
2, 81860, Control_c, 0, 64, 61
2, 81898, Control_c, 0, 64, 62
2, 81917, Control_c, 0, 64, 63
2, 81936, Control_c, 0, 64, 64
2, 81956, Control_c, 0, 64, 65
2, 81976, Control_c, 0, 64, 66
2, 81996, Control_c, 0, 64, 68
2, 82015, Control_c, 0, 64, 71
2, 82034, Control_c, 0, 64, 74
2, 82052, Control_c, 0, 64, 78
2, 82070, Control_c, 0, 64, 83
2, 82090, Control_c, 0, 64, 90
2, 82112, Control_c, 0, 64, 98
2, 82131, Control_c, 0, 64, 109
2, 82150, Control_c, 0, 64, 127
2, 82357, Note_on_c, 0, 61, 0
2, 82468, Note_on_c, 0, 46, 0
2, 82473, Note_on_c, 0, 53, 0
2, 82482, Note_on_c, 0, 58, 0
2, 82620, Note_on_c, 0, 70, 0
2, 82663, Note_on_c, 0, 72, 77
2, 82674, Note_on_c, 0, 63, 62
2, 82708, Control_c, 0, 64, 95
2, 82724, Control_c, 0, 64, 77
2, 82743, Control_c, 0, 64, 67
2, 82762, Control_c, 0, 64, 64
2, 82770, Note_on_c, 0, 63, 0
2, 82782, Control_c, 0, 64, 65
2, 82802, Control_c, 0, 64, 68
2, 82821, Control_c, 0, 64, 73
2, 82841, Control_c, 0, 64, 81
2, 82858, Control_c, 0, 64, 92
2, 82878, Control_c, 0, 64, 103
2, 82898, Control_c, 0, 64, 109
2, 82918, Control_c, 0, 64, 110
2, 82951, Note_on_c, 0, 65, 47
2, 82975, Control_c, 0, 64, 106
2, 82994, Control_c, 0, 64, 101
2, 83015, Control_c, 0, 64, 95
2, 83015, Note_on_c, 0, 72, 0
2, 83019, Note_on_c, 0, 70, 54
2, 83030, Control_c, 0, 64, 88
2, 83051, Control_c, 0, 64, 81
2, 83061, Note_on_c, 0, 73, 66
2, 83072, Control_c, 0, 64, 72
2, 83088, Control_c, 0, 64, 66
2, 83111, Control_c, 0, 64, 62
2, 83126, Control_c, 0, 64, 60
2, 83146, Control_c, 0, 64, 59
2, 83164, Control_c, 0, 64, 58
2, 83183, Control_c, 0, 64, 57
2, 83204, Control_c, 0, 64, 55
2, 83225, Control_c, 0, 64, 52
2, 83243, Control_c, 0, 64, 49
2, 83263, Control_c, 0, 64, 46
2, 83280, Control_c, 0, 64, 44
2, 83300, Control_c, 0, 64, 42
2, 83319, Control_c, 0, 64, 40
2, 83338, Control_c, 0, 64, 37
2, 83359, Control_c, 0, 64, 33
2, 83378, Control_c, 0, 64, 28
2, 83395, Control_c, 0, 64, 25
2, 83415, Control_c, 0, 64, 22
2, 83437, Control_c, 0, 64, 19
2, 83453, Control_c, 0, 64, 13
2, 83472, Control_c, 0, 64, 0
2, 83895, Control_c, 0, 64, 16
2, 83915, Control_c, 0, 64, 30
2, 83934, Control_c, 0, 64, 40
2, 83954, Control_c, 0, 64, 47
2, 83971, Control_c, 0, 64, 52
2, 83991, Control_c, 0, 64, 56
2, 84009, Control_c, 0, 64, 58
2, 84031, Control_c, 0, 64, 59
2, 84050, Control_c, 0, 64, 61
2, 84071, Control_c, 0, 64, 62
2, 84088, Control_c, 0, 64, 63
2, 84107, Control_c, 0, 64, 65
2, 84125, Control_c, 0, 64, 67
2, 84145, Control_c, 0, 64, 69
2, 84165, Control_c, 0, 64, 74
2, 84182, Control_c, 0, 64, 80
2, 84203, Control_c, 0, 64, 85
2, 84221, Control_c, 0, 64, 91
2, 84241, Control_c, 0, 64, 95
2, 84259, Control_c, 0, 64, 99
2, 84279, Control_c, 0, 64, 101
2, 84299, Control_c, 0, 64, 102
2, 84317, Control_c, 0, 64, 103
2, 84357, Control_c, 0, 64, 104
2, 84395, Note_on_c, 0, 65, 0
2, 84431, Note_on_c, 0, 70, 0
2, 84490, Control_c, 0, 64, 103
2, 84510, Note_on_c, 0, 73, 0
2, 84568, Control_c, 0, 64, 102
2, 84605, Control_c, 0, 64, 101
2, 84625, Control_c, 0, 64, 100
2, 84630, Note_on_c, 0, 46, 56
2, 84644, Control_c, 0, 64, 98
2, 84663, Control_c, 0, 64, 96
2, 84684, Control_c, 0, 64, 93
2, 84700, Control_c, 0, 64, 89
2, 84721, Control_c, 0, 64, 84
2, 84726, Note_on_c, 0, 65, 44
2, 84742, Control_c, 0, 64, 79
2, 84761, Control_c, 0, 64, 75
2, 84781, Control_c, 0, 64, 70
2, 84785, Note_on_c, 0, 70, 43
2, 84800, Control_c, 0, 64, 65
2, 84818, Control_c, 0, 64, 62
2, 84835, Control_c, 0, 64, 59
2, 84844, Note_on_c, 0, 46, 0
2, 84851, Note_on_c, 0, 49, 54
2, 84851, Note_on_c, 0, 73, 50
2, 84856, Control_c, 0, 64, 57
2, 84877, Control_c, 0, 64, 56
2, 84893, Control_c, 0, 64, 54
2, 84911, Control_c, 0, 64, 50
2, 84931, Control_c, 0, 64, 46
2, 84950, Control_c, 0, 64, 40
2, 84970, Control_c, 0, 64, 35
2, 84992, Control_c, 0, 64, 30
2, 85012, Control_c, 0, 64, 26
2, 85032, Control_c, 0, 64, 22
2, 85046, Control_c, 0, 64, 16
2, 85066, Control_c, 0, 64, 8
2, 85085, Control_c, 0, 64, 0
2, 85219, Control_c, 0, 64, 16
2, 85238, Control_c, 0, 64, 23
2, 85259, Control_c, 0, 64, 30
2, 85276, Control_c, 0, 64, 39
2, 85297, Control_c, 0, 64, 46
2, 85316, Control_c, 0, 64, 51
2, 85335, Control_c, 0, 64, 54
2, 85353, Control_c, 0, 64, 56
2, 85372, Control_c, 0, 64, 57
2, 85391, Control_c, 0, 64, 58
2, 85414, Control_c, 0, 64, 60
2, 85433, Control_c, 0, 64, 62
2, 85450, Control_c, 0, 64, 63
2, 85470, Control_c, 0, 64, 64
2, 85488, Control_c, 0, 64, 65
2, 85508, Control_c, 0, 64, 67
2, 85528, Control_c, 0, 64, 70
2, 85547, Control_c, 0, 64, 75
2, 85565, Control_c, 0, 64, 81
2, 85585, Control_c, 0, 64, 88
2, 85604, Control_c, 0, 64, 96
2, 85627, Control_c, 0, 64, 106
2, 85644, Control_c, 0, 64, 127
2, 86030, Note_on_c, 0, 49, 0
2, 86157, Note_on_c, 0, 70, 0
2, 86200, Note_on_c, 0, 73, 0
2, 86219, Note_on_c, 0, 65, 0
2, 86304, Note_on_c, 0, 53, 72
2, 86541, Control_c, 0, 64, 120
2, 86561, Control_c, 0, 64, 93
2, 86576, Note_on_c, 0, 73, 74
2, 86584, Control_c, 0, 64, 76
2, 86588, Note_on_c, 0, 53, 0
2, 86593, Note_on_c, 0, 64, 57
2, 86593, Note_on_c, 0, 70, 56
2, 86600, Control_c, 0, 64, 64
2, 86604, Note_on_c, 0, 43, 49
2, 86618, Control_c, 0, 64, 56
2, 86639, Control_c, 0, 64, 48
2, 86656, Control_c, 0, 64, 45
2, 86676, Control_c, 0, 64, 44
2, 86694, Control_c, 0, 64, 42
2, 86714, Control_c, 0, 64, 37
2, 86733, Control_c, 0, 64, 30
2, 86754, Control_c, 0, 64, 19
2, 86773, Control_c, 0, 64, 0
2, 87097, Control_c, 0, 64, 15
2, 87117, Control_c, 0, 64, 27
2, 87137, Control_c, 0, 64, 37
2, 87155, Control_c, 0, 64, 44
2, 87175, Control_c, 0, 64, 50
2, 87194, Control_c, 0, 64, 55
2, 87214, Control_c, 0, 64, 57
2, 87231, Control_c, 0, 64, 59
2, 87252, Control_c, 0, 64, 60
2, 87272, Control_c, 0, 64, 62
2, 87292, Control_c, 0, 64, 64
2, 87311, Control_c, 0, 64, 65
2, 87328, Control_c, 0, 64, 68
2, 87348, Control_c, 0, 64, 73
2, 87367, Control_c, 0, 64, 80
2, 87385, Control_c, 0, 64, 88
2, 87409, Control_c, 0, 64, 98
2, 87424, Control_c, 0, 64, 111
2, 87445, Control_c, 0, 64, 127
2, 87662, Note_on_c, 0, 64, 0
2, 87742, Note_on_c, 0, 73, 0
2, 87819, Note_on_c, 0, 70, 0
2, 87907, Note_on_c, 0, 71, 61
2, 88082, Note_on_c, 0, 71, 0
2, 88086, Note_on_c, 0, 70, 78
2, 88159, Note_on_c, 0, 70, 0
2, 88310, Note_on_c, 0, 70, 59
2, 88367, Control_c, 0, 64, 100
2, 88385, Control_c, 0, 64, 84
2, 88394, Note_on_c, 0, 73, 64
2, 88404, Control_c, 0, 64, 71
2, 88423, Control_c, 0, 64, 62
2, 88443, Control_c, 0, 64, 55
2, 88452, Note_on_c, 0, 76, 77
2, 88461, Control_c, 0, 64, 53
2, 88481, Control_c, 0, 64, 52
2, 88501, Control_c, 0, 64, 50
2, 88522, Control_c, 0, 64, 48
2, 88538, Control_c, 0, 64, 45
2, 88557, Control_c, 0, 64, 39
2, 88576, Control_c, 0, 64, 28
2, 88598, Control_c, 0, 64, 13
2, 88614, Control_c, 0, 64, 0
2, 88751, Control_c, 0, 64, 10
2, 88768, Control_c, 0, 64, 23
2, 88788, Control_c, 0, 64, 35
2, 88806, Control_c, 0, 64, 45
2, 88826, Control_c, 0, 64, 53
2, 88845, Control_c, 0, 64, 59
2, 88863, Control_c, 0, 64, 60
2, 88885, Control_c, 0, 64, 62
2, 88905, Control_c, 0, 64, 63
2, 88922, Control_c, 0, 64, 64
2, 88943, Control_c, 0, 64, 66
2, 88963, Control_c, 0, 64, 70
2, 88981, Control_c, 0, 64, 77
2, 89000, Control_c, 0, 64, 85
2, 89018, Control_c, 0, 64, 97
2, 89040, Control_c, 0, 64, 109
2, 89057, Control_c, 0, 64, 127
2, 89523, Note_on_c, 0, 43, 0
2, 89534, Note_on_c, 0, 46, 56
2, 89556, Control_c, 0, 64, 122
2, 89574, Control_c, 0, 64, 103
2, 89593, Control_c, 0, 64, 92
2, 89613, Control_c, 0, 64, 83
2, 89633, Control_c, 0, 64, 74
2, 89650, Control_c, 0, 64, 67
2, 89670, Control_c, 0, 64, 62
2, 89690, Control_c, 0, 64, 59
2, 89711, Control_c, 0, 64, 58
2, 89730, Control_c, 0, 64, 57
2, 89748, Control_c, 0, 64, 56
2, 89759, Note_on_c, 0, 46, 0
2, 89769, Control_c, 0, 64, 54
2, 89769, Note_on_c, 0, 44, 73
2, 89786, Control_c, 0, 64, 51
2, 89807, Control_c, 0, 64, 47
2, 89825, Control_c, 0, 64, 43
2, 89844, Control_c, 0, 64, 41
2, 89863, Control_c, 0, 64, 39
2, 89883, Control_c, 0, 64, 37
2, 89903, Control_c, 0, 64, 35
2, 89921, Control_c, 0, 64, 33
2, 89940, Control_c, 0, 64, 32
2, 89958, Note_on_c, 0, 43, 76
2, 89969, Note_on_c, 0, 44, 0
2, 89982, Control_c, 0, 64, 31
2, 90216, Note_on_c, 0, 49, 72
2, 90238, Note_on_c, 0, 43, 0
2, 90593, Control_c, 0, 64, 30
2, 90612, Control_c, 0, 64, 27
2, 90635, Control_c, 0, 64, 22
2, 90650, Control_c, 0, 64, 14
2, 90670, Control_c, 0, 64, 0
2, 90805, Control_c, 0, 64, 17
2, 90824, Control_c, 0, 64, 31
2, 90844, Control_c, 0, 64, 44
2, 90861, Control_c, 0, 64, 54
2, 90882, Control_c, 0, 64, 60
2, 90902, Control_c, 0, 64, 62
2, 90919, Control_c, 0, 64, 63
2, 90938, Control_c, 0, 64, 65
2, 90959, Control_c, 0, 64, 67
2, 90977, Control_c, 0, 64, 72
2, 90995, Control_c, 0, 64, 79
2, 91015, Control_c, 0, 64, 89
2, 91037, Control_c, 0, 64, 102
2, 91052, Control_c, 0, 64, 127
2, 91094, Note_on_c, 0, 73, 0
2, 91103, Note_on_c, 0, 70, 0
2, 91123, Note_on_c, 0, 76, 0
2, 91470, Note_on_c, 0, 75, 80
2, 91515, Control_c, 0, 64, 118
2, 91534, Control_c, 0, 64, 115
2, 91553, Control_c, 0, 64, 112
2, 91575, Control_c, 0, 64, 111
2, 91593, Control_c, 0, 64, 110
2, 91609, Control_c, 0, 64, 109
2, 91670, Note_on_c, 0, 73, 94
2, 91708, Note_on_c, 0, 75, 0
2, 91764, Control_c, 0, 64, 111
2, 91782, Control_c, 0, 64, 113
2, 91802, Note_on_c, 0, 73, 0
2, 91803, Control_c, 0, 64, 115
2, 91821, Control_c, 0, 64, 116
2, 91866, Note_on_c, 0, 70, 72
2, 91879, Control_c, 0, 64, 115
2, 91897, Control_c, 0, 64, 109
2, 91919, Control_c, 0, 64, 100
2, 91919, Note_on_c, 0, 73, 81
2, 91938, Control_c, 0, 64, 87
2, 91941, Note_on_c, 0, 79, 91
2, 91957, Control_c, 0, 64, 75
2, 91975, Control_c, 0, 64, 66
2, 91995, Control_c, 0, 64, 59
2, 92015, Control_c, 0, 64, 50
2, 92033, Control_c, 0, 64, 44
2, 92052, Control_c, 0, 64, 38
2, 92071, Control_c, 0, 64, 33
2, 92091, Control_c, 0, 64, 25
2, 92108, Control_c, 0, 64, 12
2, 92130, Control_c, 0, 64, 0
2, 92398, Control_c, 0, 64, 21
2, 92418, Control_c, 0, 64, 37
2, 92435, Control_c, 0, 64, 47
2, 92456, Control_c, 0, 64, 55
2, 92475, Control_c, 0, 64, 59
2, 92494, Control_c, 0, 64, 61
2, 92512, Control_c, 0, 64, 63
2, 92533, Control_c, 0, 64, 64
2, 92550, Control_c, 0, 64, 67
2, 92570, Control_c, 0, 64, 75
2, 92591, Control_c, 0, 64, 88
2, 92612, Control_c, 0, 64, 116
2, 92629, Control_c, 0, 64, 127
2, 92718, Note_on_c, 0, 49, 0
2, 93166, Note_on_c, 0, 47, 78
2, 93168, Control_c, 0, 64, 102
2, 93185, Control_c, 0, 64, 91
2, 93203, Control_c, 0, 64, 82
2, 93225, Control_c, 0, 64, 73
2, 93245, Control_c, 0, 64, 65
2, 93261, Control_c, 0, 64, 61
2, 93281, Control_c, 0, 64, 57
2, 93301, Control_c, 0, 64, 54
2, 93320, Control_c, 0, 64, 50
2, 93339, Control_c, 0, 64, 45
2, 93356, Control_c, 0, 64, 37
2, 93378, Control_c, 0, 64, 26
2, 93396, Control_c, 0, 64, 0
2, 93409, Note_on_c, 0, 46, 81
2, 93437, Note_on_c, 0, 47, 0
2, 93683, Note_on_c, 0, 52, 84
2, 93697, Note_on_c, 0, 46, 0
2, 94112, Note_on_c, 0, 51, 86
2, 94172, Note_on_c, 0, 52, 0
2, 94528, Note_on_c, 0, 70, 0
2, 94538, Note_on_c, 0, 52, 85
2, 94554, Note_on_c, 0, 73, 0
2, 94574, Note_on_c, 0, 51, 0
2, 94958, Note_on_c, 0, 77, 93
2, 94962, Note_on_c, 0, 49, 80
2, 94976, Note_on_c, 0, 52, 0
2, 94991, Control_c, 0, 64, 11
2, 95006, Note_on_c, 0, 79, 0
2, 95011, Control_c, 0, 64, 23
2, 95028, Control_c, 0, 64, 33
2, 95048, Control_c, 0, 64, 45
2, 95068, Control_c, 0, 64, 53
2, 95086, Control_c, 0, 64, 58
2, 95104, Control_c, 0, 64, 60
2, 95126, Control_c, 0, 64, 61
2, 95143, Control_c, 0, 64, 63
2, 95161, Control_c, 0, 64, 65
2, 95183, Control_c, 0, 64, 70
2, 95183, Note_on_c, 0, 75, 95
2, 95203, Control_c, 0, 64, 80
2, 95221, Control_c, 0, 64, 100
2, 95225, Note_on_c, 0, 77, 0
2, 95230, Note_on_c, 0, 49, 0
2, 95239, Control_c, 0, 64, 127
2, 95374, Note_on_c, 0, 75, 0
2, 95485, Note_on_c, 0, 47, 75
2, 95489, Control_c, 0, 64, 109
2, 95492, Note_on_c, 0, 80, 97
2, 95501, Note_on_c, 0, 71, 82
2, 95509, Control_c, 0, 64, 83
2, 95514, Note_on_c, 0, 75, 80
2, 95527, Control_c, 0, 64, 67
2, 95546, Control_c, 0, 64, 58
2, 95566, Control_c, 0, 64, 47
2, 95585, Control_c, 0, 64, 38
2, 95605, Control_c, 0, 64, 35
2, 95625, Control_c, 0, 64, 34
2, 95642, Control_c, 0, 64, 32
2, 95662, Control_c, 0, 64, 28
2, 95679, Control_c, 0, 64, 23
2, 95699, Control_c, 0, 64, 20
2, 95719, Control_c, 0, 64, 19
2, 95776, Control_c, 0, 64, 17
2, 95796, Control_c, 0, 64, 13
2, 95796, Note_on_c, 0, 46, 80
2, 95804, Note_on_c, 0, 47, 0
2, 95815, Control_c, 0, 64, 9
2, 95834, Control_c, 0, 64, 0
2, 96009, Note_on_c, 0, 44, 82
2, 96039, Note_on_c, 0, 46, 0
2, 96214, Note_on_c, 0, 46, 84
2, 96241, Note_on_c, 0, 44, 0
2, 96429, Note_on_c, 0, 47, 79
2, 96456, Note_on_c, 0, 46, 0
2, 96636, Note_on_c, 0, 44, 82
2, 96665, Note_on_c, 0, 47, 0
2, 96878, Note_on_c, 0, 46, 85
2, 96910, Note_on_c, 0, 44, 0
2, 97136, Note_on_c, 0, 47, 84
2, 97169, Note_on_c, 0, 46, 0
2, 97466, Note_on_c, 0, 71, 0
2, 97496, Note_on_c, 0, 47, 0
2, 97501, Note_on_c, 0, 40, 74
2, 97508, Note_on_c, 0, 75, 0
2, 97582, Note_on_c, 0, 80, 0
2, 97891, Control_c, 0, 64, 20
2, 97913, Control_c, 0, 64, 32
2, 97930, Control_c, 0, 64, 43
2, 97950, Control_c, 0, 64, 52
2, 97968, Control_c, 0, 64, 57
2, 97987, Control_c, 0, 64, 59
2, 98006, Control_c, 0, 64, 60
2, 98025, Control_c, 0, 64, 61
2, 98045, Control_c, 0, 64, 62
2, 98065, Control_c, 0, 64, 64
2, 98083, Control_c, 0, 64, 65
2, 98103, Control_c, 0, 64, 68
2, 98125, Control_c, 0, 64, 73
2, 98125, Note_on_c, 0, 79, 94
2, 98144, Control_c, 0, 64, 82
2, 98159, Control_c, 0, 64, 93
2, 98182, Control_c, 0, 64, 109
2, 98199, Control_c, 0, 64, 127
2, 98382, Note_on_c, 0, 40, 0
2, 98552, Note_on_c, 0, 80, 93
2, 98592, Note_on_c, 0, 79, 0
2, 98754, Note_on_c, 0, 52, 85
2, 98928, Control_c, 0, 64, 109
2, 98946, Control_c, 0, 64, 95
2, 98960, Note_on_c, 0, 51, 83
2, 98966, Control_c, 0, 64, 83
2, 98973, Note_on_c, 0, 52, 0
2, 98980, Note_on_c, 0, 82, 94
2, 98987, Control_c, 0, 64, 73
2, 99006, Control_c, 0, 64, 65
2, 99025, Control_c, 0, 64, 61
2, 99025, Note_on_c, 0, 80, 0
2, 99043, Control_c, 0, 64, 57
2, 99085, Control_c, 0, 64, 56
2, 99100, Control_c, 0, 64, 54
2, 99119, Control_c, 0, 64, 51
2, 99139, Control_c, 0, 64, 48
2, 99160, Control_c, 0, 64, 45
2, 99173, Note_on_c, 0, 49, 79
2, 99178, Control_c, 0, 64, 42
2, 99189, Note_on_c, 0, 51, 0
2, 99196, Control_c, 0, 64, 39
2, 99215, Control_c, 0, 64, 37
2, 99238, Control_c, 0, 64, 35
2, 99254, Control_c, 0, 64, 33
2, 99273, Control_c, 0, 64, 30
2, 99292, Control_c, 0, 64, 27
2, 99314, Control_c, 0, 64, 26
2, 99372, Control_c, 0, 64, 25
2, 99504, Control_c, 0, 64, 24
2, 99524, Note_on_c, 0, 49, 0
2, 99540, Note_on_c, 0, 51, 68
2, 99544, Control_c, 0, 64, 23
2, 99574, Note_on_c, 0, 79, 80
2, 99578, Note_on_c, 0, 82, 0
2, 99587, Note_on_c, 0, 83, 81
2, 99596, Note_on_c, 0, 75, 71
2, 99620, Control_c, 0, 64, 24
2, 99638, Control_c, 0, 64, 28
2, 99657, Control_c, 0, 64, 35
2, 99677, Control_c, 0, 64, 45
2, 99695, Control_c, 0, 64, 54
2, 99714, Control_c, 0, 64, 59
2, 99735, Control_c, 0, 64, 61
2, 99753, Control_c, 0, 64, 63
2, 99773, Control_c, 0, 64, 65
2, 99793, Control_c, 0, 64, 68
2, 99813, Control_c, 0, 64, 76
2, 99833, Control_c, 0, 64, 88
2, 99833, Note_on_c, 0, 75, 0
2, 99838, Note_on_c, 0, 79, 0
2, 99838, Note_on_c, 0, 83, 0
2, 99840, Note_on_c, 0, 82, 75
2, 99851, Control_c, 0, 64, 104
2, 99869, Control_c, 0, 64, 127
2, 99931, Note_on_c, 0, 82, 0
2, 99988, Note_on_c, 0, 83, 63
2, 100053, Note_on_c, 0, 83, 0
2, 100070, Note_on_c, 0, 82, 71
2, 100141, Note_on_c, 0, 82, 0
2, 100194, Note_on_c, 0, 83, 68
2, 100241, Note_on_c, 0, 83, 0
2, 100296, Note_on_c, 0, 82, 63
2, 100336, Note_on_c, 0, 82, 0
2, 100349, Control_c, 0, 64, 122
2, 100368, Control_c, 0, 64, 120
2, 100382, Note_on_c, 0, 83, 56
2, 100409, Control_c, 0, 64, 118
2, 100413, Note_on_c, 0, 83, 0
2, 100447, Note_on_c, 0, 82, 56
2, 100474, Note_on_c, 0, 82, 0
2, 100490, Note_on_c, 0, 83, 68
2, 100534, Note_on_c, 0, 83, 0
2, 100565, Note_on_c, 0, 82, 63
2, 100606, Note_on_c, 0, 82, 0
2, 100629, Note_on_c, 0, 51, 0
2, 100638, Control_c, 0, 64, 116
2, 100642, Note_on_c, 0, 83, 77
2, 100647, Note_on_c, 0, 49, 62
2, 100695, Control_c, 0, 64, 115
2, 100733, Control_c, 0, 64, 113
2, 100749, Note_on_c, 0, 82, 75
2, 100771, Control_c, 0, 64, 112
2, 100787, Note_on_c, 0, 83, 0
2, 100849, Control_c, 0, 64, 113
2, 100869, Control_c, 0, 64, 115
2, 100869, Note_on_c, 0, 80, 87
2, 100886, Control_c, 0, 64, 118
2, 100899, Note_on_c, 0, 82, 0
2, 100907, Control_c, 0, 64, 120
2, 100925, Control_c, 0, 64, 127
2, 101041, Control_c, 0, 64, 110
2, 101047, Note_on_c, 0, 82, 84
2, 101052, Note_on_c, 0, 51, 67
2, 101059, Control_c, 0, 64, 97
2, 101068, Note_on_c, 0, 73, 80
2, 101072, Note_on_c, 0, 80, 0
2, 101078, Control_c, 0, 64, 83
2, 101092, Note_on_c, 0, 49, 0
2, 101101, Control_c, 0, 64, 70
2, 101119, Control_c, 0, 64, 62
2, 101135, Control_c, 0, 64, 55
2, 101155, Control_c, 0, 64, 51
2, 101175, Control_c, 0, 64, 47
2, 101195, Control_c, 0, 64, 43
2, 101213, Control_c, 0, 64, 36
2, 101231, Control_c, 0, 64, 18
2, 101251, Control_c, 0, 64, 0
2, 101560, Control_c, 0, 64, 31
2, 101578, Control_c, 0, 64, 44
2, 101597, Control_c, 0, 64, 53
2, 101617, Control_c, 0, 64, 59
2, 101636, Control_c, 0, 64, 61
2, 101654, Control_c, 0, 64, 63
2, 101673, Control_c, 0, 64, 65
2, 101692, Control_c, 0, 64, 67
2, 101715, Control_c, 0, 64, 73
2, 101730, Control_c, 0, 64, 83
2, 101750, Control_c, 0, 64, 99
2, 101770, Control_c, 0, 64, 127
2, 101993, Note_on_c, 0, 39, 77
2, 102055, Note_on_c, 0, 51, 0
2, 102089, Note_on_c, 0, 73, 0
2, 102455, Note_on_c, 0, 80, 93
2, 102519, Note_on_c, 0, 82, 0
2, 102852, Note_on_c, 0, 80, 0
2, 103130, Control_c, 0, 64, 102
2, 103150, Control_c, 0, 64, 82
2, 103165, Note_on_c, 0, 44, 77
2, 103170, Control_c, 0, 64, 67
2, 103170, Note_on_c, 0, 80, 87
2, 103181, Note_on_c, 0, 71, 75
2, 103181, Note_on_c, 0, 75, 75
2, 103190, Control_c, 0, 64, 59
2, 103190, Note_on_c, 0, 39, 0
2, 103209, Control_c, 0, 64, 52
2, 103227, Control_c, 0, 64, 46
2, 103244, Control_c, 0, 64, 41
2, 103265, Control_c, 0, 64, 36
2, 103285, Control_c, 0, 64, 31
2, 103307, Control_c, 0, 64, 20
2, 103322, Control_c, 0, 64, 0
2, 104416, Control_c, 0, 64, 8
2, 104453, Control_c, 0, 64, 9
2, 104473, Control_c, 0, 64, 10
2, 104511, Control_c, 0, 64, 11
2, 104540, Note_on_c, 0, 71, 0
2, 104572, Control_c, 0, 64, 12
2, 104572, Note_on_c, 0, 75, 0
2, 104639, Note_on_c, 0, 80, 0
2, 104723, Control_c, 0, 64, 13
2, 104801, Control_c, 0, 64, 15
2, 104819, Control_c, 0, 64, 16
2, 104839, Control_c, 0, 64, 17
2, 104853, Note_on_c, 0, 83, 86
2, 104857, Control_c, 0, 64, 18
2, 104876, Control_c, 0, 64, 19
2, 104895, Control_c, 0, 64, 20
2, 104935, Control_c, 0, 64, 21
2, 104993, Control_c, 0, 64, 22
2, 105031, Control_c, 0, 64, 23
2, 105069, Control_c, 0, 64, 24
2, 105091, Control_c, 0, 64, 25
2, 105272, Note_on_c, 0, 77, 90
2, 105312, Note_on_c, 0, 83, 0
2, 105318, Control_c, 0, 64, 24
2, 105434, Control_c, 0, 64, 23
2, 105566, Note_on_c, 0, 44, 0
2, 105588, Control_c, 0, 64, 22
2, 105606, Control_c, 0, 64, 20
2, 105626, Control_c, 0, 64, 18
2, 105644, Control_c, 0, 64, 16
2, 105664, Control_c, 0, 64, 11
2, 105683, Control_c, 0, 64, 0
2, 106584, Note_on_c, 0, 78, 91
2, 106588, Note_on_c, 0, 59, 82
2, 106620, Note_on_c, 0, 77, 0
2, 106730, Note_on_c, 0, 80, 86
2, 106766, Note_on_c, 0, 78, 0
2, 106897, Note_on_c, 0, 53, 69
2, 106897, Note_on_c, 0, 74, 83
2, 106901, Note_on_c, 0, 80, 0
2, 106903, Note_on_c, 0, 59, 0
2, 107351, Control_c, 0, 64, 13
2, 107372, Control_c, 0, 64, 21
2, 107390, Control_c, 0, 64, 28
2, 107409, Control_c, 0, 64, 36
2, 107431, Control_c, 0, 64, 44
2, 107450, Control_c, 0, 64, 50
2, 107468, Control_c, 0, 64, 55
2, 107487, Control_c, 0, 64, 59
2, 107504, Control_c, 0, 64, 60
2, 107525, Control_c, 0, 64, 62
2, 107542, Control_c, 0, 64, 63
2, 107562, Control_c, 0, 64, 66
2, 107582, Control_c, 0, 64, 69
2, 107604, Control_c, 0, 64, 75
2, 107621, Control_c, 0, 64, 85
2, 107641, Control_c, 0, 64, 97
2, 107660, Control_c, 0, 64, 116
2, 107678, Control_c, 0, 64, 127
2, 107753, Note_on_c, 0, 53, 0
2, 107809, Note_on_c, 0, 74, 0
2, 108214, Note_on_c, 0, 54, 74
2, 108214, Note_on_c, 0, 75, 81
2, 108292, Control_c, 0, 64, 113
2, 108312, Control_c, 0, 64, 94
2, 108330, Control_c, 0, 64, 79
2, 108349, Control_c, 0, 64, 68
2, 108367, Note_on_c, 0, 77, 81
2, 108371, Control_c, 0, 64, 60
2, 108380, Note_on_c, 0, 56, 73
2, 108388, Control_c, 0, 64, 51
2, 108402, Note_on_c, 0, 75, 0
2, 108408, Control_c, 0, 64, 45
2, 108423, Note_on_c, 0, 54, 0
2, 108427, Control_c, 0, 64, 38
2, 108448, Control_c, 0, 64, 29
2, 108466, Control_c, 0, 64, 15
2, 108486, Control_c, 0, 64, 0
2, 108537, Note_on_c, 0, 50, 69
2, 108539, Note_on_c, 0, 70, 83
2, 108562, Note_on_c, 0, 56, 0
2, 108580, Note_on_c, 0, 77, 0
2, 109157, Control_c, 0, 64, 16
2, 109175, Control_c, 0, 64, 27
2, 109195, Control_c, 0, 64, 34
2, 109213, Control_c, 0, 64, 40
2, 109233, Control_c, 0, 64, 43
2, 109251, Control_c, 0, 64, 47
2, 109275, Control_c, 0, 64, 51
2, 109292, Control_c, 0, 64, 55
2, 109313, Control_c, 0, 64, 58
2, 109331, Control_c, 0, 64, 60
2, 109349, Control_c, 0, 64, 62
2, 109368, Control_c, 0, 64, 63
2, 109386, Control_c, 0, 64, 65
2, 109407, Control_c, 0, 64, 67
2, 109425, Control_c, 0, 64, 71
2, 109445, Control_c, 0, 64, 78
2, 109467, Control_c, 0, 64, 86
2, 109484, Control_c, 0, 64, 96
2, 109502, Control_c, 0, 64, 109
2, 109520, Control_c, 0, 64, 127
2, 109581, Note_on_c, 0, 50, 0
2, 109955, Note_on_c, 0, 51, 74
2, 110020, Control_c, 0, 64, 105
2, 110032, Note_on_c, 0, 80, 86
2, 110040, Control_c, 0, 64, 86
2, 110059, Control_c, 0, 64, 73
2, 110079, Control_c, 0, 64, 64
2, 110083, Note_on_c, 0, 70, 0
2, 110097, Control_c, 0, 64, 58
2, 110117, Control_c, 0, 64, 55
2, 110135, Control_c, 0, 64, 53
2, 110155, Control_c, 0, 64, 50
2, 110161, Note_on_c, 0, 53, 74
2, 110174, Control_c, 0, 64, 44
2, 110194, Control_c, 0, 64, 35
2, 110207, Note_on_c, 0, 51, 0
2, 110216, Control_c, 0, 64, 20
2, 110231, Control_c, 0, 64, 0
2, 110361, Note_on_c, 0, 53, 0
2, 110366, Note_on_c, 0, 46, 71
2, 110381, Note_on_c, 0, 74, 77
2, 110415, Note_on_c, 0, 80, 0
2, 110865, Control_c, 0, 64, 18
2, 110885, Control_c, 0, 64, 24
2, 110902, Control_c, 0, 64, 28
2, 110922, Control_c, 0, 64, 32
2, 110945, Control_c, 0, 64, 35
2, 110962, Control_c, 0, 64, 39
2, 110982, Control_c, 0, 64, 42
2, 111000, Control_c, 0, 64, 45
2, 111020, Control_c, 0, 64, 49
2, 111038, Control_c, 0, 64, 52
2, 111057, Control_c, 0, 64, 55
2, 111079, Control_c, 0, 64, 58
2, 111095, Control_c, 0, 64, 60
2, 111117, Control_c, 0, 64, 62
2, 111134, Control_c, 0, 64, 64
2, 111155, Control_c, 0, 64, 66
2, 111173, Control_c, 0, 64, 71
2, 111192, Control_c, 0, 64, 79
2, 111214, Control_c, 0, 64, 93
2, 111231, Control_c, 0, 64, 127
2, 111415, Note_on_c, 0, 74, 0
2, 111778, Note_on_c, 0, 46, 0
2, 111821, Note_on_c, 0, 75, 67
2, 111825, Note_on_c, 0, 56, 57
2, 111863, Control_c, 0, 64, 113
2, 111883, Control_c, 0, 64, 96
2, 111901, Control_c, 0, 64, 82
2, 111922, Control_c, 0, 64, 71
2, 111941, Control_c, 0, 64, 63
2, 111961, Control_c, 0, 64, 54
2, 111982, Control_c, 0, 64, 44
2, 111982, Note_on_c, 0, 75, 0
2, 111982, Note_on_c, 0, 77, 75
2, 111997, Control_c, 0, 64, 28
2, 112017, Control_c, 0, 64, 0
2, 112148, Note_on_c, 0, 56, 0
2, 112163, Note_on_c, 0, 50, 50
2, 112163, Note_on_c, 0, 70, 68
2, 112170, Note_on_c, 0, 77, 0
2, 112636, Control_c, 0, 64, 8
2, 112652, Control_c, 0, 64, 20
2, 112672, Control_c, 0, 64, 26
2, 112694, Control_c, 0, 64, 32
2, 112709, Control_c, 0, 64, 37
2, 112728, Control_c, 0, 64, 42
2, 112750, Control_c, 0, 64, 46
2, 112770, Control_c, 0, 64, 51
2, 112788, Control_c, 0, 64, 55
2, 112806, Control_c, 0, 64, 58
2, 112827, Control_c, 0, 64, 60
2, 112843, Control_c, 0, 64, 63
2, 112864, Control_c, 0, 64, 65
2, 112884, Control_c, 0, 64, 69
2, 112902, Control_c, 0, 64, 77
2, 112923, Control_c, 0, 64, 90
2, 112944, Control_c, 0, 64, 127
2, 113106, Note_on_c, 0, 70, 0
2, 113122, Note_on_c, 0, 50, 0
2, 113553, Note_on_c, 0, 51, 51
2, 113562, Note_on_c, 0, 72, 60
2, 113650, Control_c, 0, 64, 107
2, 113671, Control_c, 0, 64, 91
2, 113687, Note_on_c, 0, 51, 0
2, 113690, Control_c, 0, 64, 79
2, 113707, Note_on_c, 0, 72, 0
2, 113712, Control_c, 0, 64, 71
2, 113728, Note_on_c, 0, 53, 53
2, 113732, Control_c, 0, 64, 66
2, 113737, Note_on_c, 0, 74, 59
2, 113747, Control_c, 0, 64, 63
2, 113767, Control_c, 0, 64, 61
2, 113787, Control_c, 0, 64, 59
2, 113804, Control_c, 0, 64, 55
2, 113827, Control_c, 0, 64, 48
2, 113844, Control_c, 0, 64, 37
2, 113863, Control_c, 0, 64, 24
2, 113882, Control_c, 0, 64, 0
2, 113897, Note_on_c, 0, 53, 0
2, 113913, Note_on_c, 0, 74, 0
2, 113939, Note_on_c, 0, 42, 48
2, 113947, Note_on_c, 0, 75, 55
2, 115169, Note_on_c, 0, 73, 55
2, 115169, Note_on_c, 0, 75, 0
2, 115302, Note_on_c, 0, 73, 0
2, 115350, Note_on_c, 0, 71, 52
2, 115445, Note_on_c, 0, 43, 37
2, 115468, Note_on_c, 0, 42, 0
2, 115544, Note_on_c, 0, 71, 0
2, 115571, Note_on_c, 0, 73, 57
2, 115917, Control_c, 0, 64, 16
2, 115937, Control_c, 0, 64, 24
2, 115955, Control_c, 0, 64, 30
2, 115974, Control_c, 0, 64, 36
2, 115992, Control_c, 0, 64, 43
2, 116012, Control_c, 0, 64, 50
2, 116033, Control_c, 0, 64, 55
2, 116051, Control_c, 0, 64, 58
2, 116069, Control_c, 0, 64, 59
2, 116088, Control_c, 0, 64, 60
2, 116109, Control_c, 0, 64, 61
2, 116128, Control_c, 0, 64, 62
2, 116145, Control_c, 0, 64, 63
2, 116165, Control_c, 0, 64, 64
2, 116186, Control_c, 0, 64, 65
2, 116204, Control_c, 0, 64, 67
2, 116224, Control_c, 0, 64, 71
2, 116244, Control_c, 0, 64, 78
2, 116261, Control_c, 0, 64, 85
2, 116284, Control_c, 0, 64, 95
2, 116302, Control_c, 0, 64, 115
2, 116320, Control_c, 0, 64, 127
2, 116554, Note_on_c, 0, 43, 0
2, 116692, Note_on_c, 0, 73, 0
2, 117055, Note_on_c, 0, 58, 73
2, 117183, Note_on_c, 0, 63, 51
2, 117205, Control_c, 0, 64, 92
2, 117224, Control_c, 0, 64, 76
2, 117224, Note_on_c, 0, 70, 58
2, 117242, Control_c, 0, 64, 66
2, 117262, Control_c, 0, 64, 60
2, 117280, Control_c, 0, 64, 57
2, 117291, Note_on_c, 0, 55, 64
2, 117300, Control_c, 0, 64, 56
2, 117316, Note_on_c, 0, 73, 58
2, 117320, Control_c, 0, 64, 55
2, 117331, Note_on_c, 0, 58, 0
2, 117338, Control_c, 0, 64, 52
2, 117358, Control_c, 0, 64, 49
2, 117376, Control_c, 0, 64, 45
2, 117397, Control_c, 0, 64, 40
2, 117414, Control_c, 0, 64, 36
2, 117433, Control_c, 0, 64, 32
2, 117453, Control_c, 0, 64, 30
2, 117471, Control_c, 0, 64, 28
2, 117492, Control_c, 0, 64, 25
2, 117510, Control_c, 0, 64, 22
2, 117528, Control_c, 0, 64, 17
2, 117550, Control_c, 0, 64, 13
2, 117568, Control_c, 0, 64, 11
2, 117683, Control_c, 0, 64, 13
2, 117702, Control_c, 0, 64, 15
2, 117720, Control_c, 0, 64, 19
2, 117740, Control_c, 0, 64, 25
2, 117759, Control_c, 0, 64, 32
2, 117779, Control_c, 0, 64, 39
2, 117798, Control_c, 0, 64, 44
2, 117817, Control_c, 0, 64, 49
2, 117839, Control_c, 0, 64, 52
2, 117857, Control_c, 0, 64, 54
2, 117877, Control_c, 0, 64, 56
2, 117893, Control_c, 0, 64, 57
2, 117914, Control_c, 0, 64, 59
2, 117933, Control_c, 0, 64, 60
2, 117951, Control_c, 0, 64, 62
2, 117970, Control_c, 0, 64, 63
2, 117991, Control_c, 0, 64, 64
2, 118009, Control_c, 0, 64, 67
2, 118028, Control_c, 0, 64, 71
2, 118049, Control_c, 0, 64, 79
2, 118067, Control_c, 0, 64, 94
2, 118087, Control_c, 0, 64, 127
2, 118207, Note_on_c, 0, 55, 0
2, 118625, Note_on_c, 0, 70, 0
2, 118657, Note_on_c, 0, 51, 57
2, 118661, Note_on_c, 0, 63, 0
2, 118679, Note_on_c, 0, 73, 0
2, 118876, Control_c, 0, 64, 115
2, 118893, Control_c, 0, 64, 91
2, 118912, Control_c, 0, 64, 76
2, 118916, Note_on_c, 0, 51, 0
2, 118934, Control_c, 0, 64, 66
2, 118934, Note_on_c, 0, 73, 57
2, 118938, Note_on_c, 0, 44, 45
2, 118952, Control_c, 0, 64, 59
2, 118961, Note_on_c, 0, 63, 43
2, 118965, Note_on_c, 0, 70, 46
2, 118970, Control_c, 0, 64, 55
2, 118990, Control_c, 0, 64, 52
2, 119008, Control_c, 0, 64, 49
2, 119030, Control_c, 0, 64, 44
2, 119046, Control_c, 0, 64, 37
2, 119065, Control_c, 0, 64, 27
2, 119086, Control_c, 0, 64, 16
2, 119105, Control_c, 0, 64, 8
2, 119122, Control_c, 0, 64, 0
2, 120178, Note_on_c, 0, 71, 53
2, 120198, Note_on_c, 0, 73, 0
2, 120209, Note_on_c, 0, 70, 0
2, 120360, Note_on_c, 0, 71, 0
2, 120365, Note_on_c, 0, 70, 55
2, 120570, Note_on_c, 0, 70, 0
2, 120596, Note_on_c, 0, 71, 49
2, 120871, Control_c, 0, 64, 8
2, 120889, Control_c, 0, 64, 11
2, 120911, Control_c, 0, 64, 15
2, 120931, Control_c, 0, 64, 18
2, 120948, Control_c, 0, 64, 21
2, 120965, Control_c, 0, 64, 24
2, 120988, Control_c, 0, 64, 27
2, 121004, Control_c, 0, 64, 30
2, 121023, Control_c, 0, 64, 33
2, 121043, Control_c, 0, 64, 36
2, 121063, Control_c, 0, 64, 41
2, 121081, Control_c, 0, 64, 44
2, 121101, Control_c, 0, 64, 48
2, 121123, Control_c, 0, 64, 50
2, 121138, Control_c, 0, 64, 51
2, 121158, Control_c, 0, 64, 52
2, 121200, Control_c, 0, 64, 54
2, 121215, Control_c, 0, 64, 55
2, 121237, Control_c, 0, 64, 57
2, 121253, Control_c, 0, 64, 58
2, 121274, Control_c, 0, 64, 60
2, 121292, Control_c, 0, 64, 61
2, 121311, Control_c, 0, 64, 62
2, 121331, Control_c, 0, 64, 64
2, 121351, Control_c, 0, 64, 66
2, 121369, Control_c, 0, 64, 69
2, 121388, Control_c, 0, 64, 75
2, 121408, Control_c, 0, 64, 85
2, 121427, Control_c, 0, 64, 102
2, 121444, Control_c, 0, 64, 127
2, 121642, Note_on_c, 0, 44, 0
2, 121709, Note_on_c, 0, 63, 0
2, 121775, Note_on_c, 0, 71, 0
2, 122065, Note_on_c, 0, 59, 44
2, 122158, Control_c, 0, 64, 103
2, 122174, Control_c, 0, 64, 89
2, 122180, Note_on_c, 0, 63, 43
2, 122196, Control_c, 0, 64, 77
2, 122213, Control_c, 0, 64, 68
2, 122233, Control_c, 0, 64, 63
2, 122253, Control_c, 0, 64, 60
2, 122253, Note_on_c, 0, 68, 36
2, 122272, Control_c, 0, 64, 59
2, 122291, Control_c, 0, 64, 57
2, 122310, Control_c, 0, 64, 56
2, 122319, Note_on_c, 0, 59, 0
2, 122330, Control_c, 0, 64, 53
2, 122330, Note_on_c, 0, 56, 46
2, 122350, Control_c, 0, 64, 50
2, 122370, Control_c, 0, 64, 46
2, 122374, Note_on_c, 0, 71, 50
2, 122389, Control_c, 0, 64, 42
2, 122406, Control_c, 0, 64, 39
2, 122426, Control_c, 0, 64, 33
2, 122445, Control_c, 0, 64, 26
2, 122463, Control_c, 0, 64, 15
2, 122483, Control_c, 0, 64, 0
2, 123174, Control_c, 0, 64, 15
2, 123192, Control_c, 0, 64, 25
2, 123211, Control_c, 0, 64, 33
2, 123231, Control_c, 0, 64, 40
2, 123249, Control_c, 0, 64, 50
2, 123270, Control_c, 0, 64, 56
2, 123290, Control_c, 0, 64, 59
2, 123310, Control_c, 0, 64, 60
2, 123326, Control_c, 0, 64, 61
2, 123348, Control_c, 0, 64, 62
2, 123365, Control_c, 0, 64, 63
2, 123387, Control_c, 0, 64, 64
2, 123404, Control_c, 0, 64, 67
2, 123422, Control_c, 0, 64, 70
2, 123443, Control_c, 0, 64, 74
2, 123463, Control_c, 0, 64, 79
2, 123481, Control_c, 0, 64, 83
2, 123503, Control_c, 0, 64, 87
2, 123519, Control_c, 0, 64, 89
2, 123541, Control_c, 0, 64, 90
2, 123570, Note_on_c, 0, 68, 0
2, 123577, Note_on_c, 0, 63, 0
2, 123581, Control_c, 0, 64, 91
2, 123596, Control_c, 0, 64, 92
2, 123809, Control_c, 0, 64, 91
2, 123813, Note_on_c, 0, 56, 0
2, 123828, Note_on_c, 0, 53, 65
2, 123842, Note_on_c, 0, 71, 0
2, 123864, Control_c, 0, 64, 90
2, 123887, Control_c, 0, 64, 89
2, 123887, Note_on_c, 0, 65, 59
2, 123903, Control_c, 0, 64, 88
2, 123925, Control_c, 0, 64, 87
2, 123942, Control_c, 0, 64, 84
2, 123962, Control_c, 0, 64, 82
2, 123974, Note_on_c, 0, 68, 70
2, 123981, Control_c, 0, 64, 79
2, 123998, Control_c, 0, 64, 76
2, 124017, Control_c, 0, 64, 73
2, 124039, Control_c, 0, 64, 70
2, 124058, Control_c, 0, 64, 67
2, 124075, Control_c, 0, 64, 63
2, 124080, Note_on_c, 0, 53, 0
2, 124098, Control_c, 0, 64, 60
2, 124098, Note_on_c, 0, 51, 56
2, 124115, Control_c, 0, 64, 59
2, 124135, Control_c, 0, 64, 58
2, 124152, Note_on_c, 0, 71, 66
2, 124156, Control_c, 0, 64, 56
2, 124174, Control_c, 0, 64, 53
2, 124191, Control_c, 0, 64, 49
2, 124212, Control_c, 0, 64, 44
2, 124232, Control_c, 0, 64, 38
2, 124251, Control_c, 0, 64, 33
2, 124268, Control_c, 0, 64, 30
2, 124287, Control_c, 0, 64, 27
2, 124306, Control_c, 0, 64, 23
2, 124325, Control_c, 0, 64, 18
2, 124346, Control_c, 0, 64, 15
2, 124363, Control_c, 0, 64, 13
2, 124382, Control_c, 0, 64, 12
2, 124631, Note_on_c, 0, 51, 0
2, 124654, Note_on_c, 0, 50, 42
2, 124982, Control_c, 0, 64, 15
2, 124997, Control_c, 0, 64, 23
2, 125019, Control_c, 0, 64, 33
2, 125039, Control_c, 0, 64, 43
2, 125057, Control_c, 0, 64, 53
2, 125073, Control_c, 0, 64, 60
2, 125097, Control_c, 0, 64, 62
2, 125112, Control_c, 0, 64, 63
2, 125133, Control_c, 0, 64, 64
2, 125150, Control_c, 0, 64, 67
2, 125170, Control_c, 0, 64, 72
2, 125190, Control_c, 0, 64, 82
2, 125208, Note_on_c, 0, 68, 0
2, 125212, Control_c, 0, 64, 92
2, 125227, Control_c, 0, 64, 103
2, 125247, Control_c, 0, 64, 127
2, 125269, Note_on_c, 0, 71, 0
2, 125577, Note_on_c, 0, 70, 71
2, 125612, Note_on_c, 0, 65, 0
2, 125648, Note_on_c, 0, 50, 0
2, 125764, Note_on_c, 0, 68, 90
2, 125771, Note_on_c, 0, 70, 0
2, 125823, Note_on_c, 0, 68, 0
2, 125827, Note_on_c, 0, 50, 37
2, 125920, Control_c, 0, 64, 118
2, 125940, Control_c, 0, 64, 102
2, 125958, Control_c, 0, 64, 92
2, 125962, Note_on_c, 0, 53, 46
2, 125978, Control_c, 0, 64, 84
2, 125997, Control_c, 0, 64, 78
2, 126017, Control_c, 0, 64, 70
2, 126034, Control_c, 0, 64, 64
2, 126055, Control_c, 0, 64, 60
2, 126073, Control_c, 0, 64, 56
2, 126092, Control_c, 0, 64, 53
2, 126110, Control_c, 0, 64, 50
2, 126121, Note_on_c, 0, 77, 64
2, 126133, Control_c, 0, 64, 44
2, 126151, Control_c, 0, 64, 37
2, 126170, Control_c, 0, 64, 29
2, 126189, Control_c, 0, 64, 18
2, 126189, Note_on_c, 0, 58, 41
2, 126208, Control_c, 0, 64, 0
2, 126533, Control_c, 0, 64, 13
2, 126553, Control_c, 0, 64, 21
2, 126573, Control_c, 0, 64, 29
2, 126594, Control_c, 0, 64, 35
2, 126610, Control_c, 0, 64, 41
2, 126631, Control_c, 0, 64, 45
2, 126649, Control_c, 0, 64, 48
2, 126669, Control_c, 0, 64, 52
2, 126689, Control_c, 0, 64, 56
2, 126706, Control_c, 0, 64, 59
2, 126727, Control_c, 0, 64, 61
2, 126747, Control_c, 0, 64, 62
2, 126764, Control_c, 0, 64, 64
2, 126784, Control_c, 0, 64, 65
2, 126804, Control_c, 0, 64, 68
2, 126821, Control_c, 0, 64, 72
2, 126841, Control_c, 0, 64, 80
2, 126860, Control_c, 0, 64, 89
2, 126880, Control_c, 0, 64, 101
2, 126898, Control_c, 0, 64, 122
2, 126918, Control_c, 0, 64, 127
2, 127042, Note_on_c, 0, 77, 0
2, 127221, Note_on_c, 0, 50, 0
2, 127257, Note_on_c, 0, 53, 0
2, 127380, Note_on_c, 0, 58, 0
2, 127428, Note_on_c, 0, 71, 57
2, 127530, Note_on_c, 0, 50, 45
2, 127590, Control_c, 0, 64, 115
2, 127612, Control_c, 0, 64, 100
2, 127612, Note_on_c, 0, 53, 44
2, 127628, Control_c, 0, 64, 89
2, 127649, Control_c, 0, 64, 80
2, 127667, Control_c, 0, 64, 71
2, 127687, Control_c, 0, 64, 65
2, 127705, Control_c, 0, 64, 60
2, 127723, Control_c, 0, 64, 56
2, 127735, Note_on_c, 0, 71, 0
2, 127744, Control_c, 0, 64, 53
2, 127765, Control_c, 0, 64, 51
2, 127765, Note_on_c, 0, 70, 57
2, 127770, Note_on_c, 0, 58, 38
2, 127783, Control_c, 0, 64, 50
2, 127801, Control_c, 0, 64, 49
2, 127821, Control_c, 0, 64, 46
2, 127842, Control_c, 0, 64, 43
2, 127859, Control_c, 0, 64, 38
2, 127878, Control_c, 0, 64, 33
2, 127897, Control_c, 0, 64, 30
2, 127920, Control_c, 0, 64, 27
2, 127934, Control_c, 0, 64, 24
2, 127953, Control_c, 0, 64, 22
2, 127977, Control_c, 0, 64, 20
2, 127978, Note_on_c, 0, 70, 0
2, 127994, Control_c, 0, 64, 18
2, 128005, Note_on_c, 0, 71, 60
2, 128012, Control_c, 0, 64, 17
2, 128032, Control_c, 0, 64, 16
2, 128070, Control_c, 0, 64, 15
2, 128093, Note_on_c, 0, 71, 0
2, 128131, Note_on_c, 0, 70, 61
2, 128146, Control_c, 0, 64, 14
2, 128178, Note_on_c, 0, 70, 0
2, 128215, Note_on_c, 0, 71, 58
2, 128243, Control_c, 0, 64, 13
2, 128268, Note_on_c, 0, 71, 0
2, 128293, Note_on_c, 0, 70, 60
2, 128338, Note_on_c, 0, 70, 0
2, 128356, Control_c, 0, 64, 12
2, 128376, Control_c, 0, 64, 11
2, 128395, Note_on_c, 0, 71, 30
2, 128416, Control_c, 0, 64, 10
2, 128439, Control_c, 0, 64, 9
2, 128450, Note_on_c, 0, 71, 0
2, 128450, Note_on_c, 0, 71, 12
2, 128454, Control_c, 0, 64, 8
2, 128492, Control_c, 0, 64, 0
2, 128509, Note_on_c, 0, 71, 0
2, 128518, Note_on_c, 0, 70, 71
2, 128776, Note_on_c, 0, 70, 0
2, 128826, Note_on_c, 0, 68, 46
2, 128874, Note_on_c, 0, 68, 0
2, 128889, Note_on_c, 0, 70, 61
2, 128978, Note_on_c, 0, 70, 0
2, 129001, Note_on_c, 0, 71, 68
2, 129146, Control_c, 0, 64, 16
2, 129150, Note_on_c, 0, 53, 0
2, 129163, Control_c, 0, 64, 27
2, 129185, Control_c, 0, 64, 41
2, 129202, Control_c, 0, 64, 51
2, 129222, Control_c, 0, 64, 59
2, 129227, Note_on_c, 0, 68, 76
2, 129227, Note_on_c, 0, 71, 0
2, 129242, Control_c, 0, 64, 62
2, 129260, Control_c, 0, 64, 63
2, 129278, Control_c, 0, 64, 64
2, 129287, Note_on_c, 0, 58, 0
2, 129298, Control_c, 0, 64, 66
2, 129316, Note_on_c, 0, 50, 0
2, 129320, Control_c, 0, 64, 70
2, 129338, Control_c, 0, 64, 75
2, 129343, Note_on_c, 0, 51, 52
2, 129357, Control_c, 0, 64, 80
2, 129378, Control_c, 0, 64, 83
2, 129398, Control_c, 0, 64, 84
2, 129398, Note_on_c, 0, 54, 54
2, 129413, Control_c, 0, 64, 83
2, 129434, Control_c, 0, 64, 82
2, 129446, Note_on_c, 0, 68, 0
2, 129455, Control_c, 0, 64, 81
2, 129473, Control_c, 0, 64, 79
2, 129481, Note_on_c, 0, 58, 56
2, 129492, Control_c, 0, 64, 76
2, 129512, Control_c, 0, 64, 71
2, 129520, Note_on_c, 0, 63, 63
2, 129529, Control_c, 0, 64, 66
2, 129548, Control_c, 0, 64, 60
2, 129567, Control_c, 0, 64, 56
2, 129580, Note_on_c, 0, 68, 78
2, 129587, Control_c, 0, 64, 55
2, 129607, Control_c, 0, 64, 53
2, 129624, Control_c, 0, 64, 51
2, 129645, Control_c, 0, 64, 46
2, 129664, Control_c, 0, 64, 36
2, 129683, Control_c, 0, 64, 23
2, 129700, Control_c, 0, 64, 0
2, 129962, Note_on_c, 0, 68, 0
2, 129976, Note_on_c, 0, 66, 59
2, 130316, Control_c, 0, 64, 13
2, 130334, Control_c, 0, 64, 19
2, 130353, Control_c, 0, 64, 24
2, 130373, Control_c, 0, 64, 29
2, 130391, Control_c, 0, 64, 33
2, 130408, Control_c, 0, 64, 38
2, 130429, Control_c, 0, 64, 41
2, 130450, Control_c, 0, 64, 44
2, 130470, Control_c, 0, 64, 47
2, 130487, Control_c, 0, 64, 50
2, 130507, Control_c, 0, 64, 53
2, 130524, Control_c, 0, 64, 56
2, 130543, Control_c, 0, 64, 58
2, 130562, Control_c, 0, 64, 60
2, 130582, Control_c, 0, 64, 61
2, 130604, Control_c, 0, 64, 63
2, 130619, Control_c, 0, 64, 64
2, 130642, Control_c, 0, 64, 67
2, 130660, Control_c, 0, 64, 71
2, 130680, Control_c, 0, 64, 80
2, 130698, Control_c, 0, 64, 92
2, 130718, Control_c, 0, 64, 110
2, 130740, Control_c, 0, 64, 127
2, 130985, Note_on_c, 0, 58, 0
2, 130990, Note_on_c, 0, 51, 0
2, 130990, Note_on_c, 0, 54, 0
2, 131322, Note_on_c, 0, 51, 50
2, 131386, Note_on_c, 0, 54, 56
2, 131449, Control_c, 0, 64, 102
2, 131449, Note_on_c, 0, 58, 61
2, 131449, Note_on_c, 0, 63, 0
2, 131469, Control_c, 0, 64, 83
2, 131473, Note_on_c, 0, 66, 0
2, 131487, Control_c, 0, 64, 70
2, 131506, Control_c, 0, 64, 60
2, 131524, Control_c, 0, 64, 51
2, 131544, Control_c, 0, 64, 45
2, 131563, Control_c, 0, 64, 41
2, 131581, Control_c, 0, 64, 40
2, 131601, Control_c, 0, 64, 39
2, 131618, Control_c, 0, 64, 36
2, 131638, Control_c, 0, 64, 33
2, 131658, Control_c, 0, 64, 29
2, 131678, Control_c, 0, 64, 27
2, 131779, Note_on_c, 0, 63, 51
2, 131957, Note_on_c, 0, 63, 0
2, 132000, Note_on_c, 0, 65, 48
2, 132208, Note_on_c, 0, 66, 58
2, 132210, Note_on_c, 0, 65, 0
2, 132330, Control_c, 0, 64, 26
2, 132394, Note_on_c, 0, 66, 0
2, 132410, Control_c, 0, 64, 25
2, 132410, Note_on_c, 0, 68, 65
2, 132445, Control_c, 0, 64, 24
2, 132521, Control_c, 0, 64, 26
2, 132541, Control_c, 0, 64, 35
2, 132563, Control_c, 0, 64, 47
2, 132578, Control_c, 0, 64, 58
2, 132598, Control_c, 0, 64, 63
2, 132603, Note_on_c, 0, 70, 72
2, 132606, Note_on_c, 0, 68, 0
2, 132618, Control_c, 0, 64, 67
2, 132638, Control_c, 0, 64, 71
2, 132656, Control_c, 0, 64, 80
2, 132674, Note_on_c, 0, 70, 0
2, 132676, Control_c, 0, 64, 95
2, 132694, Control_c, 0, 64, 127
2, 132791, Note_on_c, 0, 72, 79
2, 132844, Note_on_c, 0, 51, 0
2, 132853, Note_on_c, 0, 54, 0
2, 132898, Note_on_c, 0, 58, 0
2, 132991, Note_on_c, 0, 51, 51
2, 132996, Note_on_c, 0, 72, 0
2, 132996, Note_on_c, 0, 74, 78
2, 133032, Note_on_c, 0, 54, 60
2, 133099, Control_c, 0, 64, 106
2, 133117, Control_c, 0, 64, 88
2, 133136, Control_c, 0, 64, 75
2, 133156, Control_c, 0, 64, 66
2, 133174, Control_c, 0, 64, 58
2, 133193, Control_c, 0, 64, 53
2, 133213, Control_c, 0, 64, 49
2, 133235, Control_c, 0, 64, 47
2, 133235, Note_on_c, 0, 58, 69
2, 133244, Note_on_c, 0, 75, 81
2, 133248, Note_on_c, 0, 74, 0
2, 133253, Control_c, 0, 64, 46
2, 133271, Control_c, 0, 64, 45
2, 133291, Control_c, 0, 64, 43
2, 133310, Control_c, 0, 64, 40
2, 133328, Control_c, 0, 64, 38
2, 133348, Control_c, 0, 64, 37
2, 133437, Note_on_c, 0, 75, 0
2, 133483, Note_on_c, 0, 77, 85
2, 133597, Control_c, 0, 64, 36
2, 133695, Control_c, 0, 64, 35
2, 133699, Note_on_c, 0, 78, 90
2, 133732, Control_c, 0, 64, 34
2, 133732, Note_on_c, 0, 77, 0
2, 133789, Control_c, 0, 64, 33
2, 133909, Note_on_c, 0, 80, 90
2, 133923, Control_c, 0, 64, 32
2, 133947, Note_on_c, 0, 78, 0
2, 133964, Control_c, 0, 64, 31
2, 134096, Control_c, 0, 64, 30
2, 134155, Note_on_c, 0, 78, 95
2, 134172, Control_c, 0, 64, 29
2, 134204, Note_on_c, 0, 80, 0
2, 134251, Control_c, 0, 64, 28
2, 134389, Note_on_c, 0, 77, 92
2, 134400, Note_on_c, 0, 78, 0
2, 134664, Note_on_c, 0, 78, 94
2, 134703, Note_on_c, 0, 77, 0
2, 134961, Control_c, 0, 64, 36
2, 134981, Control_c, 0, 64, 49
2, 134981, Note_on_c, 0, 75, 98
2, 135002, Control_c, 0, 64, 61
2, 135008, Note_on_c, 0, 51, 0
2, 135008, Note_on_c, 0, 58, 0
2, 135019, Control_c, 0, 64, 67
2, 135024, Note_on_c, 0, 54, 0
2, 135033, Note_on_c, 0, 78, 0
2, 135038, Control_c, 0, 64, 75
2, 135057, Control_c, 0, 64, 87
2, 135075, Control_c, 0, 64, 127
2, 135093, Note_on_c, 0, 75, 0
2, 135247, Note_on_c, 0, 44, 75
2, 135258, Note_on_c, 0, 47, 63
2, 135300, Note_on_c, 0, 52, 81
2, 135334, Note_on_c, 0, 56, 85
2, 135403, Note_on_c, 0, 64, 83
2, 135434, Note_on_c, 0, 68, 89
2, 135443, Control_c, 0, 64, 118
2, 135461, Control_c, 0, 64, 95
2, 135479, Control_c, 0, 64, 81
2, 135487, Note_on_c, 0, 71, 82
2, 135499, Control_c, 0, 64, 69
2, 135517, Control_c, 0, 64, 62
2, 135539, Control_c, 0, 64, 56
2, 135556, Control_c, 0, 64, 54
2, 135576, Control_c, 0, 64, 53
2, 135631, Control_c, 0, 64, 52
2, 135650, Control_c, 0, 64, 50
2, 135671, Control_c, 0, 64, 49
2, 135692, Control_c, 0, 64, 47
2, 135720, Note_on_c, 0, 76, 97
2, 135729, Control_c, 0, 64, 45
2, 135747, Control_c, 0, 64, 42
2, 135766, Control_c, 0, 64, 39
2, 135785, Control_c, 0, 64, 34
2, 135805, Control_c, 0, 64, 30
2, 135824, Control_c, 0, 64, 26
2, 135844, Control_c, 0, 64, 22
2, 135862, Control_c, 0, 64, 17
2, 135882, Control_c, 0, 64, 15
2, 135902, Control_c, 0, 64, 14
2, 135996, Control_c, 0, 64, 15
2, 136016, Control_c, 0, 64, 16
2, 136038, Control_c, 0, 64, 18
2, 136058, Control_c, 0, 64, 20
2, 136074, Control_c, 0, 64, 21
2, 136093, Control_c, 0, 64, 22
2, 136112, Control_c, 0, 64, 23
2, 136133, Control_c, 0, 64, 24
2, 136150, Control_c, 0, 64, 25
2, 136169, Control_c, 0, 64, 26
2, 136226, Control_c, 0, 64, 27
2, 136305, Control_c, 0, 64, 28
2, 136343, Control_c, 0, 64, 29
2, 136400, Control_c, 0, 64, 30
2, 136457, Control_c, 0, 64, 31
2, 136477, Control_c, 0, 64, 32
2, 136515, Control_c, 0, 64, 33
2, 136537, Control_c, 0, 64, 34
2, 136573, Control_c, 0, 64, 35
2, 136611, Control_c, 0, 64, 36
2, 136651, Control_c, 0, 64, 37
2, 136669, Control_c, 0, 64, 39
2, 136687, Control_c, 0, 64, 41
2, 136709, Control_c, 0, 64, 43
2, 136726, Control_c, 0, 64, 45
2, 136746, Control_c, 0, 64, 48
2, 136769, Control_c, 0, 64, 51
2, 136786, Control_c, 0, 64, 54
2, 136804, Control_c, 0, 64, 56
2, 136823, Control_c, 0, 64, 57
2, 136841, Control_c, 0, 64, 59
2, 136860, Control_c, 0, 64, 60
2, 136883, Control_c, 0, 64, 62
2, 136899, Control_c, 0, 64, 64
2, 136920, Control_c, 0, 64, 65
2, 136938, Control_c, 0, 64, 69
2, 136956, Control_c, 0, 64, 74
2, 136975, Control_c, 0, 64, 80
2, 136984, Note_on_c, 0, 64, 0
2, 136995, Control_c, 0, 64, 87
2, 137014, Control_c, 0, 64, 94
2, 137034, Control_c, 0, 64, 97
2, 137046, Note_on_c, 0, 68, 0
2, 137053, Control_c, 0, 64, 99
2, 137071, Control_c, 0, 64, 101
2, 137085, Note_on_c, 0, 56, 0
2, 137103, Note_on_c, 0, 52, 0
2, 137109, Control_c, 0, 64, 102
2, 137153, Note_on_c, 0, 44, 0
2, 137166, Note_on_c, 0, 47, 0
2, 137183, Note_on_c, 0, 76, 0
2, 137226, Control_c, 0, 64, 101
2, 137262, Note_on_c, 0, 71, 0
2, 137266, Control_c, 0, 64, 100
2, 137283, Control_c, 0, 64, 98
2, 137303, Control_c, 0, 64, 95
2, 137325, Control_c, 0, 64, 91
2, 137342, Control_c, 0, 64, 86
2, 137361, Control_c, 0, 64, 81
2, 137378, Control_c, 0, 64, 76
2, 137398, Control_c, 0, 64, 70
2, 137420, Control_c, 0, 64, 65
2, 137436, Control_c, 0, 64, 61
2, 137456, Note_on_c, 0, 71, 92
2, 137460, Control_c, 0, 64, 59
2, 137476, Control_c, 0, 64, 58
2, 137494, Control_c, 0, 64, 56
2, 137516, Control_c, 0, 64, 54
2, 137533, Control_c, 0, 64, 52
2, 137552, Control_c, 0, 64, 49
2, 137572, Control_c, 0, 64, 45
2, 137590, Control_c, 0, 64, 42
2, 137610, Control_c, 0, 64, 40
2, 137629, Control_c, 0, 64, 37
2, 137650, Control_c, 0, 64, 34
2, 137659, Note_on_c, 0, 69, 83
2, 137668, Control_c, 0, 64, 29
2, 137685, Note_on_c, 0, 71, 0
2, 137687, Control_c, 0, 64, 24
2, 137705, Control_c, 0, 64, 17
2, 137725, Control_c, 0, 64, 0
2, 137834, Note_on_c, 0, 68, 90
2, 137852, Note_on_c, 0, 69, 0
2, 138436, Control_c, 0, 64, 23
2, 138457, Control_c, 0, 64, 33
2, 138475, Control_c, 0, 64, 40
2, 138492, Control_c, 0, 64, 45
2, 138513, Control_c, 0, 64, 50
2, 138531, Control_c, 0, 64, 54
2, 138551, Control_c, 0, 64, 56
2, 138569, Control_c, 0, 64, 57
2, 138589, Control_c, 0, 64, 59
2, 138607, Control_c, 0, 64, 60
2, 138627, Control_c, 0, 64, 61
2, 138646, Control_c, 0, 64, 62
2, 138667, Control_c, 0, 64, 63
2, 138683, Control_c, 0, 64, 65
2, 138706, Control_c, 0, 64, 66
2, 138724, Control_c, 0, 64, 68
2, 138744, Control_c, 0, 64, 71
2, 138760, Control_c, 0, 64, 75
2, 138780, Control_c, 0, 64, 79
2, 138800, Control_c, 0, 64, 84
2, 138820, Control_c, 0, 64, 90
2, 138837, Control_c, 0, 64, 96
2, 138859, Control_c, 0, 64, 102
2, 138878, Control_c, 0, 64, 106
2, 138896, Control_c, 0, 64, 111
2, 138915, Control_c, 0, 64, 127
2, 138976, Note_on_c, 0, 68, 0
2, 139426, Note_on_c, 0, 69, 82
2, 139473, Control_c, 0, 64, 106
2, 139491, Control_c, 0, 64, 95
2, 139511, Control_c, 0, 64, 86
2, 139531, Control_c, 0, 64, 78
2, 139549, Control_c, 0, 64, 70
2, 139567, Control_c, 0, 64, 64
2, 139588, Control_c, 0, 64, 60
2, 139606, Control_c, 0, 64, 57
2, 139626, Control_c, 0, 64, 55
2, 139631, Note_on_c, 0, 71, 86
2, 139647, Control_c, 0, 64, 53
2, 139647, Note_on_c, 0, 69, 0
2, 139663, Control_c, 0, 64, 50
2, 139682, Control_c, 0, 64, 46
2, 139702, Control_c, 0, 64, 42
2, 139722, Control_c, 0, 64, 38
2, 139741, Control_c, 0, 64, 36
2, 139764, Control_c, 0, 64, 34
2, 139779, Control_c, 0, 64, 33
2, 139798, Control_c, 0, 64, 31
2, 139819, Note_on_c, 0, 64, 87
2, 139819, Note_on_c, 0, 71, 0
2, 139823, Control_c, 0, 64, 27
2, 139839, Control_c, 0, 64, 25
2, 139857, Control_c, 0, 64, 23
2, 140240, Control_c, 0, 64, 24
2, 140278, Control_c, 0, 64, 25
2, 140316, Control_c, 0, 64, 26
2, 140396, Control_c, 0, 64, 27
2, 140490, Control_c, 0, 64, 28
2, 140625, Control_c, 0, 64, 29
2, 140701, Control_c, 0, 64, 30
2, 140778, Control_c, 0, 64, 31
2, 140816, Control_c, 0, 64, 32
2, 140836, Control_c, 0, 64, 33
2, 140856, Control_c, 0, 64, 34
2, 140873, Control_c, 0, 64, 35
2, 140931, Control_c, 0, 64, 36
2, 140949, Control_c, 0, 64, 37
2, 140989, Control_c, 0, 64, 38
2, 141047, Control_c, 0, 64, 39
2, 141105, Control_c, 0, 64, 40
2, 141146, Control_c, 0, 64, 41
2, 141161, Control_c, 0, 64, 42
2, 141199, Control_c, 0, 64, 43
2, 141220, Control_c, 0, 64, 44
2, 141238, Control_c, 0, 64, 45
2, 141258, Control_c, 0, 64, 47
2, 141276, Control_c, 0, 64, 48
2, 141297, Control_c, 0, 64, 49
2, 141314, Control_c, 0, 64, 50
2, 141335, Control_c, 0, 64, 51
2, 141356, Control_c, 0, 64, 52
2, 141372, Control_c, 0, 64, 53
2, 141392, Control_c, 0, 64, 54
2, 141397, Note_on_c, 0, 66, 66
2, 141411, Control_c, 0, 64, 55
2, 141420, Note_on_c, 0, 64, 0
2, 141431, Control_c, 0, 64, 57
2, 141451, Control_c, 0, 64, 58
2, 141469, Control_c, 0, 64, 59
2, 141488, Control_c, 0, 64, 60
2, 141508, Control_c, 0, 64, 61
2, 141525, Control_c, 0, 64, 63
2, 141547, Control_c, 0, 64, 65
2, 141566, Control_c, 0, 64, 68
2, 141584, Control_c, 0, 64, 74
2, 141604, Control_c, 0, 64, 86
2, 141611, Note_on_c, 0, 68, 83
2, 141626, Control_c, 0, 64, 111
2, 141630, Note_on_c, 0, 66, 0
2, 141642, Control_c, 0, 64, 127
2, 141669, Note_on_c, 0, 68, 0
2, 141930, Control_c, 0, 64, 98
2, 141948, Control_c, 0, 64, 83
2, 141955, Note_on_c, 0, 62, 72
2, 141971, Control_c, 0, 64, 71
2, 141982, Note_on_c, 0, 53, 47
2, 141986, Note_on_c, 0, 58, 57
2, 141990, Control_c, 0, 64, 64
2, 141990, Note_on_c, 0, 44, 51
2, 142006, Control_c, 0, 64, 60
2, 142025, Control_c, 0, 64, 59
2, 142045, Control_c, 0, 64, 58
2, 142067, Control_c, 0, 64, 56
2, 142084, Control_c, 0, 64, 54
2, 142103, Control_c, 0, 64, 51
2, 142121, Control_c, 0, 64, 47
2, 142141, Control_c, 0, 64, 44
2, 142160, Control_c, 0, 64, 43
2, 142180, Control_c, 0, 64, 42
2, 142216, Control_c, 0, 64, 41
2, 142255, Control_c, 0, 64, 40
2, 142428, Control_c, 0, 64, 41
2, 142448, Control_c, 0, 64, 42
2, 142467, Control_c, 0, 64, 43
2, 142486, Control_c, 0, 64, 45
2, 142507, Control_c, 0, 64, 47
2, 142525, Control_c, 0, 64, 49
2, 142544, Control_c, 0, 64, 51
2, 142564, Control_c, 0, 64, 53
2, 142583, Control_c, 0, 64, 54
2, 142603, Control_c, 0, 64, 55
2, 142621, Control_c, 0, 64, 57
2, 142660, Control_c, 0, 64, 58
2, 142678, Control_c, 0, 64, 59
2, 142698, Control_c, 0, 64, 60
2, 142716, Control_c, 0, 64, 61
2, 142737, Control_c, 0, 64, 62
2, 142755, Control_c, 0, 64, 63
2, 142775, Control_c, 0, 64, 64
2, 142793, Control_c, 0, 64, 65
2, 142813, Control_c, 0, 64, 67
2, 142832, Control_c, 0, 64, 70
2, 142851, Control_c, 0, 64, 76
2, 142871, Control_c, 0, 64, 83
2, 142892, Control_c, 0, 64, 94
2, 142909, Control_c, 0, 64, 106
2, 142929, Control_c, 0, 64, 127
2, 143022, Note_on_c, 0, 53, 0
2, 143124, Note_on_c, 0, 58, 0
2, 143129, Note_on_c, 0, 62, 0
2, 143175, Note_on_c, 0, 44, 0
2, 143503, Note_on_c, 0, 65, 81
2, 143600, Control_c, 0, 64, 109
2, 143618, Control_c, 0, 64, 85
2, 143639, Control_c, 0, 64, 73
2, 143658, Control_c, 0, 64, 66
2, 143677, Control_c, 0, 64, 61
2, 143695, Control_c, 0, 64, 57
2, 143703, Note_on_c, 0, 68, 91
2, 143717, Control_c, 0, 64, 55
2, 143734, Control_c, 0, 64, 53
2, 143754, Control_c, 0, 64, 51
2, 143772, Control_c, 0, 64, 48
2, 143785, Note_on_c, 0, 65, 0
2, 143791, Control_c, 0, 64, 44
2, 143812, Control_c, 0, 64, 39
2, 143830, Control_c, 0, 64, 33
2, 143848, Control_c, 0, 64, 28
2, 143869, Control_c, 0, 64, 22
2, 143888, Control_c, 0, 64, 12
2, 143910, Control_c, 0, 64, 0
2, 143939, Note_on_c, 0, 71, 85
2, 144023, Note_on_c, 0, 68, 0
2, 144542, Control_c, 0, 64, 11
2, 144560, Control_c, 0, 64, 13
2, 144599, Control_c, 0, 64, 14
2, 145175, Control_c, 0, 64, 15
2, 145224, Note_on_c, 0, 70, 74
2, 145231, Note_on_c, 0, 71, 0
2, 145387, Control_c, 0, 64, 16
2, 145430, Note_on_c, 0, 68, 87
2, 145439, Note_on_c, 0, 70, 0
2, 145462, Control_c, 0, 64, 17
2, 145539, Control_c, 0, 64, 18
2, 145577, Control_c, 0, 64, 20
2, 145595, Control_c, 0, 64, 22
2, 145615, Control_c, 0, 64, 23
2, 145634, Control_c, 0, 64, 25
2, 145672, Control_c, 0, 64, 26
2, 145717, Note_on_c, 0, 77, 74
2, 145725, Note_on_c, 0, 68, 0
2, 145752, Control_c, 0, 64, 27
2, 145944, Control_c, 0, 64, 26
2, 145962, Control_c, 0, 64, 25
2, 145980, Control_c, 0, 64, 21
2, 145999, Control_c, 0, 64, 15
2, 146019, Control_c, 0, 64, 0
2, 146966, Note_on_c, 0, 75, 81
2, 146996, Note_on_c, 0, 77, 0
2, 147205, Note_on_c, 0, 74, 86
2, 147239, Note_on_c, 0, 75, 0
2, 147480, Note_on_c, 0, 83, 82
2, 147500, Note_on_c, 0, 74, 0
2, 148085, Note_on_c, 0, 81, 82
2, 148165, Note_on_c, 0, 83, 0
2, 148400, Control_c, 0, 64, 20
2, 148418, Control_c, 0, 64, 37
2, 148439, Control_c, 0, 64, 51
2, 148459, Control_c, 0, 64, 59
2, 148477, Control_c, 0, 64, 62
2, 148497, Control_c, 0, 64, 63
2, 148514, Control_c, 0, 64, 65
2, 148534, Control_c, 0, 64, 67
2, 148555, Control_c, 0, 64, 71
2, 148573, Control_c, 0, 64, 76
2, 148591, Control_c, 0, 64, 83
2, 148611, Control_c, 0, 64, 90
2, 148630, Control_c, 0, 64, 101
2, 148650, Control_c, 0, 64, 122
2, 148668, Control_c, 0, 64, 127
2, 148940, Control_c, 0, 64, 103
2, 148956, Control_c, 0, 64, 94
2, 148976, Control_c, 0, 64, 89
2, 148996, Control_c, 0, 64, 85
2, 149014, Control_c, 0, 64, 83
2, 149034, Control_c, 0, 64, 80
2, 149052, Control_c, 0, 64, 76
2, 149072, Control_c, 0, 64, 70
2, 149090, Control_c, 0, 64, 65
2, 149109, Control_c, 0, 64, 61
2, 149131, Control_c, 0, 64, 58
2, 149149, Control_c, 0, 64, 57
2, 149153, Note_on_c, 0, 82, 81
2, 149170, Control_c, 0, 64, 56
2, 149179, Note_on_c, 0, 81, 0
2, 149187, Control_c, 0, 64, 54
2, 149206, Control_c, 0, 64, 51
2, 149225, Control_c, 0, 64, 46
2, 149243, Control_c, 0, 64, 39
2, 149263, Control_c, 0, 64, 30
2, 149283, Control_c, 0, 64, 25
2, 149302, Control_c, 0, 64, 22
2, 149323, Control_c, 0, 64, 17
2, 149340, Control_c, 0, 64, 8
2, 149359, Control_c, 0, 64, 0
2, 149456, Control_c, 0, 64, 15
2, 149474, Control_c, 0, 64, 30
2, 149494, Control_c, 0, 64, 44
2, 149516, Control_c, 0, 64, 56
2, 149535, Control_c, 0, 64, 62
2, 149552, Control_c, 0, 64, 64
2, 149571, Control_c, 0, 64, 66
2, 149591, Control_c, 0, 64, 70
2, 149609, Control_c, 0, 64, 76
2, 149630, Control_c, 0, 64, 85
2, 149630, Note_on_c, 0, 82, 0
2, 149648, Control_c, 0, 64, 95
2, 149666, Control_c, 0, 64, 111
2, 149686, Control_c, 0, 64, 127
2, 149903, Note_on_c, 0, 75, 83
2, 150206, Note_on_c, 0, 70, 72
2, 150331, Note_on_c, 0, 66, 74
2, 150380, Note_on_c, 0, 70, 0
2, 150456, Note_on_c, 0, 58, 59
2, 150533, Note_on_c, 0, 58, 0
2, 150550, Note_on_c, 0, 54, 64
2, 150600, Note_on_c, 0, 66, 0
2, 150632, Note_on_c, 0, 54, 0
2, 150653, Note_on_c, 0, 51, 68
2, 150658, Note_on_c, 0, 75, 0
2, 150720, Note_on_c, 0, 51, 0
2, 150742, Note_on_c, 0, 46, 71
2, 150836, Note_on_c, 0, 51, 72
2, 150918, Note_on_c, 0, 54, 72
2, 151009, Note_on_c, 0, 58, 74
2, 151119, Note_on_c, 0, 66, 78
2, 151231, Note_on_c, 0, 70, 85
2, 151454, Note_on_c, 0, 75, 86
2, 151522, Note_on_c, 0, 70, 0
2, 151578, Note_on_c, 0, 46, 0
2, 151652, Note_on_c, 0, 58, 0
2, 151661, Control_c, 0, 64, 120
2, 151682, Control_c, 0, 64, 79
2, 151682, Note_on_c, 0, 51, 0
2, 151687, Note_on_c, 0, 54, 0
2, 151696, Note_on_c, 0, 46, 84
2, 151696, Note_on_c, 0, 66, 0
2, 151700, Control_c, 0, 64, 60
2, 151707, Note_on_c, 0, 75, 0
2, 151719, Control_c, 0, 64, 36
2, 151737, Control_c, 0, 64, 0
2, 151853, Control_c, 0, 64, 37
2, 151871, Control_c, 0, 64, 58
2, 151891, Control_c, 0, 64, 69
2, 151895, Note_on_c, 0, 53, 66
2, 151913, Control_c, 0, 64, 82
2, 151913, Note_on_c, 0, 46, 0
2, 151929, Control_c, 0, 64, 127
2, 151983, Note_on_c, 0, 56, 71
2, 152031, Note_on_c, 0, 58, 77
2, 152094, Note_on_c, 0, 65, 70
2, 152158, Note_on_c, 0, 70, 84
2, 152243, Note_on_c, 0, 74, 90
2, 152268, Note_on_c, 0, 65, 0
2, 152285, Note_on_c, 0, 70, 0
2, 152407, Note_on_c, 0, 74, 0
2, 152628, Note_on_c, 0, 75, 74
2, 152710, Note_on_c, 0, 75, 0
2, 152746, Note_on_c, 0, 74, 70
2, 152800, Note_on_c, 0, 74, 0
2, 152839, Note_on_c, 0, 75, 64
2, 152876, Note_on_c, 0, 75, 0
2, 152923, Note_on_c, 0, 74, 62
2, 152955, Note_on_c, 0, 74, 0
2, 152960, Note_on_c, 0, 75, 75
2, 153005, Note_on_c, 0, 75, 0
2, 153039, Note_on_c, 0, 74, 70
2, 153085, Note_on_c, 0, 74, 0
2, 153110, Note_on_c, 0, 75, 51
2, 153134, Note_on_c, 0, 75, 0
2, 153161, Note_on_c, 0, 74, 52
2, 153195, Note_on_c, 0, 74, 0
2, 153232, Note_on_c, 0, 75, 47
2, 153267, Note_on_c, 0, 75, 0
2, 153306, Note_on_c, 0, 74, 44
2, 153327, Note_on_c, 0, 75, 60
2, 153370, Note_on_c, 0, 75, 0
2, 153377, Note_on_c, 0, 74, 0
2, 153377, Note_on_c, 0, 74, 57
2, 153432, Note_on_c, 0, 74, 0
2, 153461, Note_on_c, 0, 72, 80
2, 153630, Note_on_c, 0, 74, 83
2, 153634, Note_on_c, 0, 56, 0
2, 153634, Note_on_c, 0, 72, 0
2, 153672, Note_on_c, 0, 58, 0
2, 153745, Note_on_c, 0, 53, 0
2, 153777, Note_on_c, 0, 75, 90
2, 153793, Note_on_c, 0, 74, 0
2, 153859, Note_on_c, 0, 75, 0
2, 154081, Control_c, 0, 64, 94
2, 154098, Control_c, 0, 64, 81
2, 154117, Control_c, 0, 64, 72
2, 154135, Note_on_c, 0, 75, 71
2, 154139, Control_c, 0, 64, 65
2, 154153, Note_on_c, 0, 63, 62
2, 154159, Control_c, 0, 64, 62
2, 154164, Note_on_c, 0, 59, 41
2, 154172, Note_on_c, 0, 47, 39
2, 154172, Note_on_c, 0, 70, 63
2, 154176, Control_c, 0, 64, 59
2, 154197, Control_c, 0, 64, 57
2, 154214, Control_c, 0, 64, 54
2, 154235, Control_c, 0, 64, 50
2, 154252, Control_c, 0, 64, 43
2, 154274, Control_c, 0, 64, 32
2, 154292, Control_c, 0, 64, 15
2, 154311, Control_c, 0, 64, 0
2, 154789, Control_c, 0, 64, 8
2, 154813, Control_c, 0, 64, 16
2, 154829, Control_c, 0, 64, 21
2, 154848, Control_c, 0, 64, 25
2, 154868, Control_c, 0, 64, 29
2, 154886, Control_c, 0, 64, 32
2, 154905, Control_c, 0, 64, 36
2, 154923, Control_c, 0, 64, 40
2, 154944, Control_c, 0, 64, 45
2, 154963, Control_c, 0, 64, 50
2, 154983, Control_c, 0, 64, 54
2, 155001, Control_c, 0, 64, 57
2, 155021, Control_c, 0, 64, 58
2, 155041, Control_c, 0, 64, 60
2, 155059, Control_c, 0, 64, 62
2, 155078, Control_c, 0, 64, 64
2, 155097, Control_c, 0, 64, 66
2, 155120, Control_c, 0, 64, 70
2, 155135, Control_c, 0, 64, 80
2, 155156, Control_c, 0, 64, 103
2, 155174, Control_c, 0, 64, 127
2, 155286, Note_on_c, 0, 63, 0
2, 155324, Note_on_c, 0, 59, 0
2, 155333, Note_on_c, 0, 47, 0
2, 155472, Note_on_c, 0, 68, 72
2, 155488, Note_on_c, 0, 70, 0
2, 155679, Note_on_c, 0, 68, 0
2, 155683, Note_on_c, 0, 67, 79
2, 155864, Note_on_c, 0, 68, 85
2, 155907, Note_on_c, 0, 67, 0
2, 155984, Control_c, 0, 64, 104
2, 155999, Note_on_c, 0, 59, 53
2, 156004, Control_c, 0, 64, 94
2, 156021, Control_c, 0, 64, 83
2, 156041, Control_c, 0, 64, 74
2, 156056, Note_on_c, 0, 63, 53
2, 156060, Control_c, 0, 64, 67
2, 156079, Control_c, 0, 64, 63
2, 156098, Control_c, 0, 64, 60
2, 156118, Control_c, 0, 64, 57
2, 156140, Control_c, 0, 64, 54
2, 156155, Control_c, 0, 64, 50
2, 156174, Control_c, 0, 64, 46
2, 156178, Note_on_c, 0, 70, 74
2, 156192, Note_on_c, 0, 68, 0
2, 156196, Control_c, 0, 64, 42
2, 156213, Control_c, 0, 64, 38
2, 156233, Control_c, 0, 64, 35
2, 156257, Control_c, 0, 64, 32
2, 156277, Control_c, 0, 64, 31
2, 156292, Control_c, 0, 64, 30
2, 156368, Control_c, 0, 64, 34
2, 156389, Control_c, 0, 64, 40
2, 156405, Note_on_c, 0, 70, 0
2, 156410, Control_c, 0, 64, 48
2, 156414, Note_on_c, 0, 68, 72
2, 156430, Control_c, 0, 64, 56
2, 156445, Control_c, 0, 64, 60
2, 156465, Control_c, 0, 64, 61
2, 156485, Control_c, 0, 64, 62
2, 156505, Control_c, 0, 64, 63
2, 156519, Note_on_c, 0, 68, 0
2, 156544, Control_c, 0, 64, 64
2, 156544, Note_on_c, 0, 70, 67
2, 156562, Control_c, 0, 64, 65
2, 156582, Control_c, 0, 64, 66
2, 156599, Control_c, 0, 64, 67
2, 156611, Note_on_c, 0, 70, 0
2, 156646, Note_on_c, 0, 68, 71
2, 156676, Control_c, 0, 64, 68
2, 156698, Control_c, 0, 64, 70
2, 156698, Note_on_c, 0, 68, 0
2, 156717, Control_c, 0, 64, 72
2, 156734, Control_c, 0, 64, 76
2, 156740, Note_on_c, 0, 70, 69
2, 156754, Control_c, 0, 64, 81
2, 156774, Control_c, 0, 64, 87
2, 156779, Note_on_c, 0, 70, 0
2, 156796, Control_c, 0, 64, 93
2, 156812, Control_c, 0, 64, 102
2, 156816, Note_on_c, 0, 68, 67
2, 156828, Note_on_c, 0, 59, 0
2, 156830, Control_c, 0, 64, 116
2, 156849, Control_c, 0, 64, 127
2, 156861, Note_on_c, 0, 63, 0
2, 156873, Note_on_c, 0, 68, 0
2, 156878, Note_on_c, 0, 70, 57
2, 156885, Note_on_c, 0, 75, 0
2, 156885, Note_on_c, 0, 75, 8
2, 156918, Note_on_c, 0, 70, 0
2, 156954, Note_on_c, 0, 68, 54
2, 156995, Note_on_c, 0, 68, 0
2, 157000, Note_on_c, 0, 70, 66
2, 157042, Note_on_c, 0, 70, 0
2, 157090, Note_on_c, 0, 68, 70
2, 157138, Note_on_c, 0, 68, 0
2, 157147, Note_on_c, 0, 70, 67
2, 157181, Note_on_c, 0, 70, 0
2, 157221, Note_on_c, 0, 68, 72
2, 157272, Note_on_c, 0, 68, 0
2, 157272, Note_on_c, 0, 70, 64
2, 157296, Note_on_c, 0, 75, 0
2, 157296, Note_on_c, 0, 75, 21
2, 157325, Note_on_c, 0, 70, 0
2, 157381, Note_on_c, 0, 68, 59
2, 157381, Note_on_c, 0, 75, 0
2, 157389, Note_on_c, 0, 59, 49
2, 157406, Note_on_c, 0, 68, 0
2, 157411, Note_on_c, 0, 70, 67
2, 157424, Note_on_c, 0, 63, 65
2, 157454, Note_on_c, 0, 70, 0
2, 157493, Note_on_c, 0, 68, 70
2, 157544, Control_c, 0, 64, 120
2, 157544, Note_on_c, 0, 68, 0
2, 157546, Note_on_c, 0, 70, 69
2, 157555, Note_on_c, 0, 75, 22
2, 157560, Control_c, 0, 64, 107
2, 157579, Control_c, 0, 64, 100
2, 157594, Note_on_c, 0, 70, 0
2, 157598, Control_c, 0, 64, 96
2, 157617, Control_c, 0, 64, 95
2, 157638, Control_c, 0, 64, 94
2, 157642, Note_on_c, 0, 68, 60
2, 157656, Control_c, 0, 64, 93
2, 157675, Control_c, 0, 64, 92
2, 157675, Note_on_c, 0, 70, 72
2, 157680, Note_on_c, 0, 68, 0
2, 157693, Control_c, 0, 64, 91
2, 157707, Note_on_c, 0, 75, 0
2, 157707, Note_on_c, 0, 75, 9
2, 157714, Control_c, 0, 64, 90
2, 157723, Note_on_c, 0, 70, 0
2, 157733, Control_c, 0, 64, 89
2, 157750, Control_c, 0, 64, 88
2, 157780, Note_on_c, 0, 68, 64
2, 157814, Note_on_c, 0, 68, 0
2, 157827, Control_c, 0, 64, 87
2, 157836, Note_on_c, 0, 70, 68
2, 157858, Note_on_c, 0, 70, 0
2, 157866, Control_c, 0, 64, 86
2, 157889, Control_c, 0, 64, 85
2, 157904, Control_c, 0, 64, 83
2, 157909, Note_on_c, 0, 68, 66
2, 157923, Control_c, 0, 64, 82
2, 157946, Note_on_c, 0, 70, 73
2, 157955, Note_on_c, 0, 68, 0
2, 158003, Control_c, 0, 64, 81
2, 158008, Note_on_c, 0, 70, 0
2, 158053, Note_on_c, 0, 68, 59
2, 158084, Note_on_c, 0, 68, 0
2, 158084, Note_on_c, 0, 75, 0
2, 158096, Note_on_c, 0, 70, 71
2, 158116, Note_on_c, 0, 75, 10
2, 158143, Note_on_c, 0, 70, 0
2, 158178, Note_on_c, 0, 68, 67
2, 158213, Control_c, 0, 64, 80
2, 158231, Note_on_c, 0, 68, 0
2, 158233, Control_c, 0, 64, 79
2, 158243, Note_on_c, 0, 70, 71
2, 158248, Note_on_c, 0, 75, 0
2, 158248, Note_on_c, 0, 75, 14
2, 158252, Control_c, 0, 64, 78
2, 158269, Control_c, 0, 64, 76
2, 158276, Note_on_c, 0, 70, 0
2, 158289, Control_c, 0, 64, 74
2, 158311, Control_c, 0, 64, 70
2, 158311, Note_on_c, 0, 75, 0
2, 158328, Control_c, 0, 64, 67
2, 158337, Note_on_c, 0, 68, 60
2, 158346, Control_c, 0, 64, 64
2, 158366, Control_c, 0, 64, 62
2, 158376, Note_on_c, 0, 68, 0
2, 158387, Control_c, 0, 64, 61
2, 158387, Note_on_c, 0, 70, 57
2, 158420, Note_on_c, 0, 70, 0
2, 158426, Control_c, 0, 64, 60
2, 158426, Note_on_c, 0, 75, 16
2, 158444, Control_c, 0, 64, 58
2, 158463, Control_c, 0, 64, 55
2, 158474, Note_on_c, 0, 68, 59
2, 158483, Control_c, 0, 64, 52
2, 158502, Control_c, 0, 64, 50
2, 158507, Note_on_c, 0, 68, 0
2, 158511, Note_on_c, 0, 70, 58
2, 158519, Control_c, 0, 64, 49
2, 158587, Note_on_c, 0, 70, 0
2, 158617, Note_on_c, 0, 68, 58
2, 158622, Control_c, 0, 64, 50
2, 158636, Control_c, 0, 64, 54
2, 158654, Control_c, 0, 64, 59
2, 158661, Note_on_c, 0, 68, 0
2, 158674, Control_c, 0, 64, 62
2, 158693, Control_c, 0, 64, 64
2, 158704, Note_on_c, 0, 67, 59
2, 158712, Control_c, 0, 64, 66
2, 158733, Control_c, 0, 64, 68
2, 158733, Note_on_c, 0, 59, 0
2, 158751, Control_c, 0, 64, 72
2, 158770, Control_c, 0, 64, 79
2, 158789, Control_c, 0, 64, 86
2, 158802, Note_on_c, 0, 63, 0
2, 158808, Control_c, 0, 64, 94
2, 158828, Control_c, 0, 64, 98
2, 158860, Note_on_c, 0, 67, 0
2, 158864, Note_on_c, 0, 68, 77
2, 158886, Control_c, 0, 64, 96
2, 158899, Note_on_c, 0, 55, 46
2, 158905, Control_c, 0, 64, 93
2, 158923, Control_c, 0, 64, 89
2, 158942, Control_c, 0, 64, 82
2, 158965, Control_c, 0, 64, 74
2, 158979, Note_on_c, 0, 58, 47
2, 158981, Control_c, 0, 64, 67
2, 159000, Control_c, 0, 64, 62
2, 159020, Control_c, 0, 64, 59
2, 159038, Control_c, 0, 64, 58
2, 159076, Control_c, 0, 64, 56
2, 159096, Control_c, 0, 64, 54
2, 159116, Control_c, 0, 64, 50
2, 159134, Control_c, 0, 64, 47
2, 159145, Note_on_c, 0, 68, 0
2, 159149, Note_on_c, 0, 70, 65
2, 159154, Control_c, 0, 64, 44
2, 159173, Control_c, 0, 64, 40
2, 159188, Note_on_c, 0, 63, 47
2, 159193, Control_c, 0, 64, 36
2, 159210, Control_c, 0, 64, 29
2, 159228, Control_c, 0, 64, 16
2, 159248, Control_c, 0, 64, 0
2, 159575, Control_c, 0, 64, 14
2, 159595, Control_c, 0, 64, 35
2, 159614, Control_c, 0, 64, 47
2, 159634, Control_c, 0, 64, 56
2, 159653, Control_c, 0, 64, 60
2, 159671, Control_c, 0, 64, 61
2, 159689, Control_c, 0, 64, 62
2, 159710, Control_c, 0, 64, 63
2, 159729, Control_c, 0, 64, 65
2, 159748, Control_c, 0, 64, 68
2, 159770, Control_c, 0, 64, 74
2, 159787, Control_c, 0, 64, 85
2, 159807, Control_c, 0, 64, 102
2, 159826, Control_c, 0, 64, 127
2, 160116, Note_on_c, 0, 55, 0
2, 160267, Note_on_c, 0, 63, 0
2, 160317, Note_on_c, 0, 58, 0
2, 160860, Note_on_c, 0, 55, 36
2, 160900, Note_on_c, 0, 58, 47
2, 160980, Note_on_c, 0, 63, 49
2, 161700, Note_on_c, 0, 63, 0
2, 161735, Note_on_c, 0, 55, 0
2, 161774, Note_on_c, 0, 75, 0
2, 161903, Note_on_c, 0, 58, 0
2, 162176, Note_on_c, 0, 70, 0
2, 162202, Note_on_c, 0, 75, 55
2, 162402, Note_on_c, 0, 73, 69
2, 162477, Note_on_c, 0, 75, 0
2, 162585, Note_on_c, 0, 71, 69
2, 162622, Note_on_c, 0, 73, 0
2, 162633, Note_on_c, 0, 55, 43
2, 162726, Note_on_c, 0, 58, 47
2, 162744, Control_c, 0, 64, 122
2, 162762, Control_c, 0, 64, 94
2, 162785, Control_c, 0, 64, 80
2, 162801, Control_c, 0, 64, 70
2, 162821, Control_c, 0, 64, 63
2, 162839, Control_c, 0, 64, 58
2, 162845, Note_on_c, 0, 73, 65
2, 162850, Note_on_c, 0, 71, 0
2, 162859, Control_c, 0, 64, 55
2, 162876, Note_on_c, 0, 63, 42
2, 162878, Control_c, 0, 64, 52
2, 162899, Control_c, 0, 64, 49
2, 162919, Control_c, 0, 64, 44
2, 162934, Control_c, 0, 64, 37
2, 162954, Control_c, 0, 64, 25
2, 162976, Control_c, 0, 64, 0
2, 163340, Control_c, 0, 64, 16
2, 163358, Control_c, 0, 64, 31
2, 163377, Control_c, 0, 64, 42
2, 163398, Control_c, 0, 64, 51
2, 163415, Control_c, 0, 64, 58
2, 163434, Control_c, 0, 64, 60
2, 163454, Control_c, 0, 64, 61
2, 163474, Control_c, 0, 64, 62
2, 163493, Control_c, 0, 64, 63
2, 163511, Control_c, 0, 64, 64
2, 163533, Control_c, 0, 64, 66
2, 163552, Control_c, 0, 64, 69
2, 163569, Control_c, 0, 64, 75
2, 163588, Control_c, 0, 64, 85
2, 163608, Control_c, 0, 64, 95
2, 163626, Control_c, 0, 64, 109
2, 163648, Control_c, 0, 64, 127
2, 163906, Note_on_c, 0, 58, 0
2, 163980, Note_on_c, 0, 63, 0
2, 164219, Note_on_c, 0, 70, 76
2, 164251, Note_on_c, 0, 73, 0
2, 164318, Note_on_c, 0, 55, 0
2, 164409, Note_on_c, 0, 56, 48
2, 164458, Note_on_c, 0, 59, 57
2, 164521, Note_on_c, 0, 70, 0
2, 164547, Note_on_c, 0, 63, 64
2, 164602, Note_on_c, 0, 68, 74
2, 164606, Control_c, 0, 64, 108
2, 164629, Control_c, 0, 64, 93
2, 164646, Control_c, 0, 64, 80
2, 164662, Control_c, 0, 64, 70
2, 164675, Note_on_c, 0, 70, 80
2, 164682, Control_c, 0, 64, 62
2, 164704, Control_c, 0, 64, 56
2, 164721, Control_c, 0, 64, 53
2, 164739, Control_c, 0, 64, 49
2, 164760, Control_c, 0, 64, 45
2, 164777, Control_c, 0, 64, 39
2, 164797, Control_c, 0, 64, 32
2, 164815, Control_c, 0, 64, 20
2, 164838, Control_c, 0, 64, 11
2, 164858, Control_c, 0, 64, 0
2, 165195, Note_on_c, 0, 71, 65
2, 165239, Note_on_c, 0, 70, 0
2, 165491, Control_c, 0, 64, 8
2, 165511, Control_c, 0, 64, 11
2, 165529, Control_c, 0, 64, 12
2, 165546, Control_c, 0, 64, 13
2, 165568, Control_c, 0, 64, 15
2, 165586, Control_c, 0, 64, 16
2, 165606, Control_c, 0, 64, 18
2, 165623, Control_c, 0, 64, 21
2, 165642, Control_c, 0, 64, 25
2, 165662, Control_c, 0, 64, 28
2, 165682, Control_c, 0, 64, 30
2, 165701, Control_c, 0, 64, 32
2, 165719, Control_c, 0, 64, 35
2, 165741, Control_c, 0, 64, 37
2, 165759, Control_c, 0, 64, 39
2, 165779, Control_c, 0, 64, 40
2, 165799, Control_c, 0, 64, 42
2, 165873, Control_c, 0, 64, 43
2, 165988, Control_c, 0, 64, 44
2, 166334, Control_c, 0, 64, 45
2, 166634, Note_on_c, 0, 52, 62
2, 166795, Control_c, 0, 64, 46
2, 166891, Control_c, 0, 64, 47
2, 166911, Control_c, 0, 64, 48
2, 166929, Control_c, 0, 64, 49
2, 166948, Control_c, 0, 64, 50
2, 166967, Control_c, 0, 64, 51
2, 166987, Control_c, 0, 64, 52
2, 167005, Control_c, 0, 64, 53
2, 167026, Control_c, 0, 64, 54
2, 167063, Control_c, 0, 64, 55
2, 167102, Control_c, 0, 64, 56
2, 167141, Control_c, 0, 64, 57
2, 167159, Control_c, 0, 64, 58
2, 167179, Control_c, 0, 64, 59
2, 167217, Control_c, 0, 64, 60
2, 167237, Control_c, 0, 64, 61
2, 167256, Control_c, 0, 64, 62
2, 167276, Control_c, 0, 64, 63
2, 167292, Note_on_c, 0, 59, 0
2, 167296, Control_c, 0, 64, 65
2, 167313, Control_c, 0, 64, 68
2, 167332, Control_c, 0, 64, 72
2, 167351, Control_c, 0, 64, 80
2, 167373, Control_c, 0, 64, 90
2, 167392, Control_c, 0, 64, 102
2, 167410, Control_c, 0, 64, 127
2, 167513, Note_on_c, 0, 56, 0
2, 167563, Note_on_c, 0, 71, 0
2, 167624, Note_on_c, 0, 63, 0
2, 167738, Note_on_c, 0, 68, 0
2, 168082, Note_on_c, 0, 71, 51
2, 168089, Note_on_c, 0, 63, 54
2, 168130, Note_on_c, 0, 71, 0
2, 168173, Note_on_c, 0, 63, 0
2, 168293, Note_on_c, 0, 70, 61
2, 168302, Note_on_c, 0, 61, 56
2, 168367, Note_on_c, 0, 70, 0
2, 168376, Note_on_c, 0, 61, 0
2, 168418, Note_on_c, 0, 52, 0
2, 168496, Note_on_c, 0, 59, 62
2, 168500, Note_on_c, 0, 68, 68
2, 168556, Note_on_c, 0, 59, 0
2, 168657, Control_c, 0, 64, 105
2, 168675, Control_c, 0, 64, 92
2, 168696, Control_c, 0, 64, 83
2, 168715, Control_c, 0, 64, 74
2, 168734, Control_c, 0, 64, 66
2, 168754, Note_on_c, 0, 52, 40
2, 168754, Note_on_c, 0, 61, 44
2, 168758, Control_c, 0, 64, 60
2, 168758, Note_on_c, 0, 70, 53
2, 168762, Note_on_c, 0, 68, 0
2, 168773, Control_c, 0, 64, 56
2, 168791, Control_c, 0, 64, 54
2, 168814, Control_c, 0, 64, 51
2, 168830, Control_c, 0, 64, 46
2, 168848, Control_c, 0, 64, 38
2, 168870, Control_c, 0, 64, 21
2, 168888, Control_c, 0, 64, 0
2, 169407, Control_c, 0, 64, 23
2, 169425, Control_c, 0, 64, 37
2, 169445, Control_c, 0, 64, 46
2, 169467, Control_c, 0, 64, 53
2, 169483, Control_c, 0, 64, 58
2, 169501, Control_c, 0, 64, 60
2, 169521, Control_c, 0, 64, 61
2, 169542, Control_c, 0, 64, 62
2, 169560, Control_c, 0, 64, 63
2, 169580, Control_c, 0, 64, 65
2, 169601, Control_c, 0, 64, 68
2, 169617, Control_c, 0, 64, 72
2, 169635, Control_c, 0, 64, 81
2, 169657, Control_c, 0, 64, 92
2, 169675, Control_c, 0, 64, 109
2, 169695, Control_c, 0, 64, 127
2, 169932, Note_on_c, 0, 61, 0
2, 169969, Note_on_c, 0, 70, 0
2, 170233, Note_on_c, 0, 58, 50
2, 170233, Note_on_c, 0, 67, 53
2, 170348, Note_on_c, 0, 58, 0
2, 170495, Note_on_c, 0, 53, 40
2, 170503, Note_on_c, 0, 52, 0
2, 170623, Note_on_c, 0, 59, 49
2, 170636, Control_c, 0, 64, 93
2, 170653, Control_c, 0, 64, 78
2, 170673, Control_c, 0, 64, 67
2, 170693, Control_c, 0, 64, 61
2, 170711, Control_c, 0, 64, 56
2, 170730, Control_c, 0, 64, 53
2, 170750, Control_c, 0, 64, 49
2, 170761, Note_on_c, 0, 62, 50
2, 170772, Control_c, 0, 64, 46
2, 170788, Control_c, 0, 64, 42
2, 170810, Control_c, 0, 64, 37
2, 170826, Control_c, 0, 64, 32
2, 170848, Control_c, 0, 64, 27
2, 170865, Control_c, 0, 64, 23
2, 170885, Control_c, 0, 64, 20
2, 170904, Control_c, 0, 64, 18
2, 170923, Control_c, 0, 64, 16
2, 170941, Control_c, 0, 64, 14
2, 170960, Control_c, 0, 64, 13
2, 171018, Control_c, 0, 64, 12
2, 171152, Control_c, 0, 64, 11
2, 171192, Control_c, 0, 64, 10
2, 171214, Control_c, 0, 64, 8
2, 171218, Note_on_c, 0, 68, 55
2, 171229, Control_c, 0, 64, 0
2, 171259, Note_on_c, 0, 67, 0
2, 171672, Control_c, 0, 64, 13
2, 171689, Control_c, 0, 64, 19
2, 171710, Control_c, 0, 64, 21
2, 171728, Control_c, 0, 64, 23
2, 171749, Control_c, 0, 64, 24
2, 171766, Control_c, 0, 64, 27
2, 171788, Control_c, 0, 64, 30
2, 171805, Control_c, 0, 64, 34
2, 171824, Control_c, 0, 64, 37
2, 171843, Control_c, 0, 64, 39
2, 171862, Control_c, 0, 64, 40
2, 171884, Control_c, 0, 64, 41
2, 171902, Control_c, 0, 64, 43
2, 171922, Control_c, 0, 64, 45
2, 171942, Control_c, 0, 64, 48
2, 171960, Control_c, 0, 64, 52
2, 171979, Control_c, 0, 64, 56
2, 171998, Control_c, 0, 64, 57
2, 172018, Control_c, 0, 64, 58
2, 172038, Control_c, 0, 64, 59
2, 172055, Control_c, 0, 64, 61
2, 172076, Control_c, 0, 64, 62
2, 172093, Control_c, 0, 64, 64
2, 172114, Control_c, 0, 64, 67
2, 172132, Control_c, 0, 64, 70
2, 172152, Control_c, 0, 64, 76
2, 172170, Control_c, 0, 64, 84
2, 172190, Control_c, 0, 64, 96
2, 172208, Control_c, 0, 64, 127
2, 172422, Note_on_c, 0, 62, 0
2, 172424, Note_on_c, 0, 59, 0
2, 172455, Note_on_c, 0, 68, 0
2, 172919, Note_on_c, 0, 59, 30
2, 172986, Note_on_c, 0, 62, 43
2, 173033, Note_on_c, 0, 68, 60
2, 173833, Note_on_c, 0, 53, 0
2, 174238, Note_on_c, 0, 54, 50
2, 174361, Note_on_c, 0, 62, 0
2, 174380, Note_on_c, 0, 59, 0
2, 174405, Note_on_c, 0, 68, 0
2, 174418, Note_on_c, 0, 54, 0
2, 174441, Note_on_c, 0, 53, 60
2, 174514, Control_c, 0, 64, 109
2, 174533, Control_c, 0, 64, 96
2, 174555, Control_c, 0, 64, 86
2, 174570, Control_c, 0, 64, 78
2, 174591, Control_c, 0, 64, 71
2, 174596, Note_on_c, 0, 53, 0
2, 174604, Note_on_c, 0, 51, 66
2, 174608, Control_c, 0, 64, 67
2, 174630, Control_c, 0, 64, 65
2, 174646, Control_c, 0, 64, 64
2, 174704, Control_c, 0, 64, 63
2, 174711, Note_on_c, 0, 59, 44
2, 174727, Control_c, 0, 64, 61
2, 174744, Control_c, 0, 64, 59
2, 174762, Control_c, 0, 64, 57
2, 174781, Control_c, 0, 64, 55
2, 174795, Note_on_c, 0, 62, 51
2, 174803, Control_c, 0, 64, 52
2, 174819, Control_c, 0, 64, 47
2, 174839, Control_c, 0, 64, 42
2, 174861, Control_c, 0, 64, 35
2, 174879, Control_c, 0, 64, 27
2, 174879, Note_on_c, 0, 53, 60
2, 174897, Note_on_c, 0, 68, 56
2, 174901, Control_c, 0, 64, 20
2, 174916, Note_on_c, 0, 51, 0
2, 174918, Control_c, 0, 64, 16
2, 174938, Control_c, 0, 64, 11
2, 174955, Control_c, 0, 64, 0
2, 175525, Note_on_c, 0, 53, 0
2, 175552, Note_on_c, 0, 54, 53
2, 175819, Note_on_c, 0, 54, 0
2, 175835, Note_on_c, 0, 56, 51
2, 176047, Note_on_c, 0, 56, 0
2, 176065, Note_on_c, 0, 53, 52
2, 176259, Note_on_c, 0, 53, 0
2, 176284, Note_on_c, 0, 54, 60
2, 176288, Note_on_c, 0, 59, 0
2, 176288, Note_on_c, 0, 68, 0
2, 176461, Note_on_c, 0, 56, 60
2, 176468, Note_on_c, 0, 54, 0
2, 176596, Note_on_c, 0, 59, 47
2, 176657, Note_on_c, 0, 65, 59
2, 176777, Note_on_c, 0, 50, 55
2, 176815, Note_on_c, 0, 56, 0
2, 176851, Note_on_c, 0, 62, 0
2, 176970, Note_on_c, 0, 68, 71
2, 177531, Control_c, 0, 64, 18
2, 177549, Control_c, 0, 64, 29
2, 177569, Control_c, 0, 64, 37
2, 177587, Control_c, 0, 64, 42
2, 177607, Control_c, 0, 64, 47
2, 177625, Control_c, 0, 64, 51
2, 177645, Control_c, 0, 64, 53
2, 177668, Control_c, 0, 64, 55
2, 177683, Control_c, 0, 64, 57
2, 177705, Control_c, 0, 64, 59
2, 177723, Control_c, 0, 64, 61
2, 177742, Control_c, 0, 64, 62
2, 177762, Control_c, 0, 64, 64
2, 177778, Control_c, 0, 64, 66
2, 177799, Control_c, 0, 64, 68
2, 177819, Control_c, 0, 64, 74
2, 177838, Control_c, 0, 64, 82
2, 177857, Control_c, 0, 64, 93
2, 177875, Control_c, 0, 64, 110
2, 177886, Note_on_c, 0, 59, 0
2, 177895, Control_c, 0, 64, 127
2, 177975, Note_on_c, 0, 68, 0
2, 178053, Note_on_c, 0, 65, 0
2, 178599, Note_on_c, 0, 59, 39
2, 178644, Note_on_c, 0, 65, 34
2, 178717, Note_on_c, 0, 68, 51
2, 179366, Note_on_c, 0, 50, 0
2, 179742, Note_on_c, 0, 51, 54
2, 179942, Note_on_c, 0, 51, 0
2, 179954, Note_on_c, 0, 50, 60
2, 179954, Note_on_c, 0, 59, 0
2, 179979, Note_on_c, 0, 65, 0
2, 179983, Note_on_c, 0, 68, 0
2, 180084, Control_c, 0, 64, 120
2, 180104, Control_c, 0, 64, 106
2, 180122, Control_c, 0, 64, 101
2, 180145, Control_c, 0, 64, 96
2, 180145, Note_on_c, 0, 48, 66
2, 180145, Note_on_c, 0, 50, 0
2, 180159, Control_c, 0, 64, 92
2, 180179, Control_c, 0, 64, 88
2, 180199, Control_c, 0, 64, 83
2, 180220, Control_c, 0, 64, 79
2, 180237, Control_c, 0, 64, 74
2, 180255, Control_c, 0, 64, 70
2, 180276, Control_c, 0, 64, 67
2, 180288, Note_on_c, 0, 59, 49
2, 180297, Control_c, 0, 64, 64
2, 180313, Control_c, 0, 64, 62
2, 180336, Control_c, 0, 64, 60
2, 180354, Control_c, 0, 64, 58
2, 180364, Note_on_c, 0, 65, 52
2, 180373, Control_c, 0, 64, 56
2, 180384, Note_on_c, 0, 50, 64
2, 180391, Control_c, 0, 64, 53
2, 180409, Control_c, 0, 64, 50
2, 180430, Control_c, 0, 64, 46
2, 180441, Note_on_c, 0, 48, 0
2, 180454, Control_c, 0, 64, 41
2, 180454, Note_on_c, 0, 68, 61
2, 180466, Control_c, 0, 64, 37
2, 180487, Control_c, 0, 64, 32
2, 180506, Control_c, 0, 64, 26
2, 180528, Control_c, 0, 64, 18
2, 180544, Control_c, 0, 64, 10
2, 180566, Control_c, 0, 64, 0
2, 181069, Note_on_c, 0, 51, 67
2, 181074, Note_on_c, 0, 50, 0
2, 181370, Note_on_c, 0, 53, 61
2, 181386, Note_on_c, 0, 51, 0
2, 181602, Note_on_c, 0, 50, 63
2, 181622, Note_on_c, 0, 53, 0
2, 181809, Note_on_c, 0, 51, 72
2, 181842, Note_on_c, 0, 50, 0
2, 181865, Note_on_c, 0, 65, 0
2, 181869, Note_on_c, 0, 68, 0
2, 182002, Note_on_c, 0, 53, 78
2, 182057, Note_on_c, 0, 51, 0
2, 182137, Note_on_c, 0, 62, 69
2, 182141, Note_on_c, 0, 59, 0
2, 182191, Note_on_c, 0, 65, 69
2, 182342, Note_on_c, 0, 47, 65
2, 182396, Note_on_c, 0, 53, 0
2, 182481, Note_on_c, 0, 68, 74
2, 182944, Control_c, 0, 64, 9
2, 182966, Control_c, 0, 64, 13
2, 182982, Control_c, 0, 64, 15
2, 183003, Control_c, 0, 64, 18
2, 183021, Control_c, 0, 64, 22
2, 183041, Control_c, 0, 64, 24
2, 183059, Control_c, 0, 64, 27
2, 183080, Control_c, 0, 64, 30
2, 183096, Control_c, 0, 64, 32
2, 183116, Control_c, 0, 64, 35
2, 183137, Control_c, 0, 64, 38
2, 183157, Control_c, 0, 64, 40
2, 183175, Control_c, 0, 64, 43
2, 183195, Control_c, 0, 64, 48
2, 183215, Control_c, 0, 64, 53
2, 183232, Control_c, 0, 64, 57
2, 183255, Control_c, 0, 64, 59
2, 183272, Control_c, 0, 64, 60
2, 183293, Control_c, 0, 64, 62
2, 183309, Control_c, 0, 64, 63
2, 183327, Control_c, 0, 64, 65
2, 183348, Control_c, 0, 64, 68
2, 183367, Control_c, 0, 64, 74
2, 183385, Control_c, 0, 64, 82
2, 183399, Note_on_c, 0, 62, 0
2, 183407, Control_c, 0, 64, 95
2, 183424, Control_c, 0, 64, 113
2, 183446, Control_c, 0, 64, 127
2, 183559, Note_on_c, 0, 65, 0
2, 183669, Note_on_c, 0, 68, 0
2, 184111, Note_on_c, 0, 62, 42
2, 184142, Note_on_c, 0, 65, 53
2, 184182, Note_on_c, 0, 68, 72
2, 184856, Note_on_c, 0, 47, 0
2, 185301, Note_on_c, 0, 49, 69
2, 185342, Control_c, 0, 64, 108
2, 185359, Control_c, 0, 64, 93
2, 185381, Control_c, 0, 64, 79
2, 185400, Control_c, 0, 64, 70
2, 185419, Control_c, 0, 64, 64
2, 185437, Control_c, 0, 64, 62
2, 185457, Control_c, 0, 64, 61
2, 185475, Control_c, 0, 64, 60
2, 185496, Control_c, 0, 64, 57
2, 185513, Control_c, 0, 64, 55
2, 185533, Control_c, 0, 64, 52
2, 185533, Note_on_c, 0, 47, 74
2, 185552, Control_c, 0, 64, 51
2, 185565, Note_on_c, 0, 49, 0
2, 185569, Control_c, 0, 64, 52
2, 185589, Control_c, 0, 64, 55
2, 185609, Control_c, 0, 64, 58
2, 185613, Note_on_c, 0, 62, 0
2, 185613, Note_on_c, 0, 65, 0
2, 185626, Control_c, 0, 64, 60
2, 185646, Control_c, 0, 64, 62
2, 185666, Control_c, 0, 64, 63
2, 185684, Control_c, 0, 64, 64
2, 185704, Control_c, 0, 64, 66
2, 185725, Note_on_c, 0, 46, 83
2, 185726, Control_c, 0, 64, 69
2, 185726, Note_on_c, 0, 68, 0
2, 185742, Control_c, 0, 64, 73
2, 185753, Note_on_c, 0, 47, 0
2, 185763, Control_c, 0, 64, 76
2, 185779, Control_c, 0, 64, 78
2, 185820, Control_c, 0, 64, 77
2, 185838, Control_c, 0, 64, 76
2, 185843, Note_on_c, 0, 62, 54
2, 185857, Control_c, 0, 64, 75
2, 185876, Control_c, 0, 64, 74
2, 185897, Control_c, 0, 64, 71
2, 185901, Note_on_c, 0, 65, 64
2, 185915, Control_c, 0, 64, 68
2, 185935, Control_c, 0, 64, 65
2, 185957, Control_c, 0, 64, 63
2, 185973, Control_c, 0, 64, 61
2, 185991, Control_c, 0, 64, 60
2, 185999, Note_on_c, 0, 68, 79
2, 186004, Note_on_c, 0, 47, 80
2, 186011, Control_c, 0, 64, 59
2, 186020, Note_on_c, 0, 46, 0
2, 186032, Control_c, 0, 64, 57
2, 186049, Control_c, 0, 64, 55
2, 186068, Control_c, 0, 64, 53
2, 186091, Control_c, 0, 64, 51
2, 186108, Control_c, 0, 64, 49
2, 186128, Control_c, 0, 64, 47
2, 186146, Control_c, 0, 64, 46
2, 186164, Control_c, 0, 64, 45
2, 186184, Control_c, 0, 64, 44
2, 186206, Control_c, 0, 64, 43
2, 186225, Control_c, 0, 64, 41
2, 186244, Control_c, 0, 64, 39
2, 186263, Control_c, 0, 64, 38
2, 186280, Control_c, 0, 64, 37
2, 186294, Note_on_c, 0, 46, 78
2, 186300, Control_c, 0, 64, 36
2, 186323, Note_on_c, 0, 47, 0
2, 186434, Control_c, 0, 64, 35
2, 186526, Note_on_c, 0, 44, 82
2, 186560, Note_on_c, 0, 46, 0
2, 186587, Control_c, 0, 64, 34
2, 186722, Note_on_c, 0, 46, 81
2, 186760, Note_on_c, 0, 44, 0
2, 186938, Note_on_c, 0, 47, 81
2, 186952, Control_c, 0, 64, 35
2, 186968, Note_on_c, 0, 46, 0
2, 187048, Control_c, 0, 64, 36
2, 187159, Note_on_c, 0, 44, 86
2, 187182, Control_c, 0, 64, 37
2, 187191, Note_on_c, 0, 47, 0
2, 187337, Control_c, 0, 64, 38
2, 187433, Note_on_c, 0, 46, 88
2, 187475, Note_on_c, 0, 44, 0
2, 187535, Note_on_c, 0, 62, 0
2, 187568, Note_on_c, 0, 65, 0
2, 187625, Note_on_c, 0, 68, 0
2, 187720, Note_on_c, 0, 47, 87
2, 187767, Note_on_c, 0, 46, 0
2, 187831, Note_on_c, 0, 62, 74
2, 187900, Note_on_c, 0, 65, 82
2, 187992, Note_on_c, 0, 68, 91
2, 188132, Control_c, 0, 64, 39
2, 188205, Control_c, 0, 64, 40
2, 188224, Control_c, 0, 64, 41
2, 188262, Control_c, 0, 64, 42
2, 188344, Note_on_c, 0, 47, 0
2, 188348, Note_on_c, 0, 38, 80
2, 188353, Note_on_c, 0, 71, 96
2, 188456, Control_c, 0, 64, 41
2, 188494, Control_c, 0, 64, 40
2, 188588, Control_c, 0, 64, 39
2, 188645, Control_c, 0, 64, 40
2, 189568, Control_c, 0, 64, 41
2, 189733, Control_c, 0, 64, 42
2, 189773, Note_on_c, 0, 65, 0
2, 189773, Note_on_c, 0, 68, 0
2, 189782, Note_on_c, 0, 62, 0
2, 189790, Note_on_c, 0, 38, 0
2, 189810, Control_c, 0, 64, 41
2, 189833, Control_c, 0, 64, 39
2, 189850, Control_c, 0, 64, 37
2, 189867, Control_c, 0, 64, 33
2, 189888, Control_c, 0, 64, 27
2, 189906, Control_c, 0, 64, 22
2, 189925, Control_c, 0, 64, 17
2, 189943, Control_c, 0, 64, 9
2, 189963, Control_c, 0, 64, 0
2, 190898, Note_on_c, 0, 70, 82
2, 190932, Note_on_c, 0, 71, 0
2, 191468, Note_on_c, 0, 68, 85
2, 191525, Note_on_c, 0, 70, 0
2, 191900, Note_on_c, 0, 66, 80
2, 191952, Note_on_c, 0, 68, 0
2, 192243, Note_on_c, 0, 66, 0
2, 192248, Note_on_c, 0, 65, 66
2, 192515, Note_on_c, 0, 65, 0
2, 192526, Note_on_c, 0, 63, 63
2, 192750, Note_on_c, 0, 63, 0
2, 192773, Note_on_c, 0, 62, 66
2, 192990, Note_on_c, 0, 62, 0
2, 193004, Note_on_c, 0, 65, 71
2, 193202, Note_on_c, 0, 68, 84
2, 193229, Note_on_c, 0, 65, 0
2, 193285, Control_c, 0, 64, 13
2, 193304, Control_c, 0, 64, 24
2, 193323, Control_c, 0, 64, 37
2, 193343, Control_c, 0, 64, 48
2, 193361, Control_c, 0, 64, 58
2, 193381, Control_c, 0, 64, 64
2, 193403, Control_c, 0, 64, 70
2, 193410, Note_on_c, 0, 71, 85
2, 193414, Note_on_c, 0, 68, 0
2, 193419, Control_c, 0, 64, 85
2, 193437, Control_c, 0, 64, 127
2, 193471, Note_on_c, 0, 71, 0
2, 193611, Control_c, 0, 64, 115
2, 193624, Note_on_c, 0, 74, 89
2, 193630, Control_c, 0, 64, 89
2, 193651, Control_c, 0, 64, 74
2, 193668, Control_c, 0, 64, 65
2, 193688, Control_c, 0, 64, 60
2, 193706, Control_c, 0, 64, 58
2, 193727, Control_c, 0, 64, 57
2, 193766, Control_c, 0, 64, 54
2, 193782, Control_c, 0, 64, 51
2, 193802, Control_c, 0, 64, 46
2, 193823, Control_c, 0, 64, 42
2, 193841, Control_c, 0, 64, 40
2, 193854, Note_on_c, 0, 77, 96
2, 193861, Control_c, 0, 64, 39
2, 193900, Control_c, 0, 64, 37
2, 193904, Note_on_c, 0, 74, 0
2, 193919, Control_c, 0, 64, 35
2, 193939, Control_c, 0, 64, 34
2, 193959, Control_c, 0, 64, 33
2, 193995, Control_c, 0, 64, 32
2, 194200, Note_on_c, 0, 80, 80
2, 194249, Note_on_c, 0, 77, 0
2, 194458, Control_c, 0, 64, 31
2, 194598, Note_on_c, 0, 83, 66
2, 194636, Note_on_c, 0, 80, 0
2, 195004, Note_on_c, 0, 82, 66
2, 195031, Note_on_c, 0, 83, 0
2, 195543, Note_on_c, 0, 74, 65
2, 195565, Note_on_c, 0, 82, 0
2, 196593, Note_on_c, 0, 75, 67
2, 196600, Note_on_c, 0, 74, 0
2, 197301, Control_c, 0, 64, 32
2, 197357, Control_c, 0, 64, 33
2, 197530, Control_c, 0, 64, 34
2, 198509, Control_c, 0, 64, 35
2, 198531, Control_c, 0, 64, 36
2, 198546, Note_on_c, 0, 70, 73
2, 198551, Control_c, 0, 64, 41
2, 198551, Note_on_c, 0, 66, 66
2, 198565, Note_on_c, 0, 51, 57
2, 198570, Control_c, 0, 64, 48
2, 198573, Note_on_c, 0, 39, 52
2, 198587, Control_c, 0, 64, 56
2, 198606, Control_c, 0, 64, 60
2, 198625, Control_c, 0, 64, 63
2, 198647, Control_c, 0, 64, 66
2, 198662, Control_c, 0, 64, 71
2, 198683, Control_c, 0, 64, 87
2, 198703, Control_c, 0, 64, 127
2, 198719, Note_on_c, 0, 39, 0
2, 198744, Note_on_c, 0, 66, 0
2, 198785, Note_on_c, 0, 51, 0
2, 198785, Note_on_c, 0, 70, 0
2, 198958, Note_on_c, 0, 68, 70
2, 198967, Note_on_c, 0, 51, 45
2, 198972, Control_c, 0, 64, 106
2, 198972, Note_on_c, 0, 63, 53
2, 198983, Note_on_c, 0, 54, 56
2, 198990, Control_c, 0, 64, 84
2, 198998, Note_on_c, 0, 46, 46
2, 199010, Control_c, 0, 64, 70
2, 199029, Control_c, 0, 64, 62
2, 199048, Control_c, 0, 64, 55
2, 199066, Control_c, 0, 64, 50
2, 199086, Control_c, 0, 64, 46
2, 199105, Control_c, 0, 64, 44
2, 199124, Control_c, 0, 64, 41
2, 199144, Control_c, 0, 64, 35
2, 199164, Control_c, 0, 64, 27
2, 199180, Control_c, 0, 64, 17
2, 199200, Control_c, 0, 64, 8
2, 199219, Control_c, 0, 64, 0
2, 199305, Note_on_c, 0, 68, 0
2, 199314, Note_on_c, 0, 66, 60
2, 199722, Control_c, 0, 64, 9
2, 199740, Control_c, 0, 64, 11
2, 199758, Control_c, 0, 64, 14
2, 199780, Control_c, 0, 64, 17
2, 199798, Control_c, 0, 64, 20
2, 199816, Control_c, 0, 64, 24
2, 199835, Control_c, 0, 64, 27
2, 199854, Control_c, 0, 64, 29
2, 199875, Control_c, 0, 64, 31
2, 199892, Control_c, 0, 64, 32
2, 199934, Control_c, 0, 64, 33
2, 199952, Control_c, 0, 64, 37
2, 199967, Control_c, 0, 64, 43
2, 199989, Control_c, 0, 64, 48
2, 200007, Control_c, 0, 64, 51
2, 200026, Control_c, 0, 64, 54
2, 200044, Control_c, 0, 64, 56
2, 200064, Control_c, 0, 64, 58
2, 200084, Control_c, 0, 64, 61
2, 200105, Control_c, 0, 64, 63
2, 200121, Control_c, 0, 64, 65
2, 200141, Control_c, 0, 64, 68
2, 200161, Control_c, 0, 64, 75
2, 200183, Control_c, 0, 64, 88
2, 200199, Control_c, 0, 64, 127
2, 200251, Note_on_c, 0, 46, 0
2, 200281, Note_on_c, 0, 75, 0
2, 200314, Note_on_c, 0, 51, 0
2, 200325, Note_on_c, 0, 63, 0
2, 200344, Note_on_c, 0, 54, 0
2, 200399, Note_on_c, 0, 66, 0
2, 200638, Note_on_c, 0, 46, 40
2, 200685, Control_c, 0, 64, 101
2, 200685, Note_on_c, 0, 53, 44
2, 200699, Control_c, 0, 64, 84
2, 200718, Control_c, 0, 64, 72
2, 200729, Note_on_c, 0, 56, 46
2, 200738, Control_c, 0, 64, 63
2, 200758, Note_on_c, 0, 66, 59
2, 200763, Control_c, 0, 64, 54
2, 200776, Control_c, 0, 64, 49
2, 200791, Note_on_c, 0, 62, 41
2, 200795, Control_c, 0, 64, 45
2, 200815, Control_c, 0, 64, 44
2, 200854, Control_c, 0, 64, 42
2, 200871, Control_c, 0, 64, 39
2, 200890, Control_c, 0, 64, 35
2, 200911, Control_c, 0, 64, 33
2, 200963, Note_on_c, 0, 66, 0
2, 200997, Note_on_c, 0, 65, 51
2, 201026, Control_c, 0, 64, 32
2, 201066, Note_on_c, 0, 65, 0
2, 201125, Note_on_c, 0, 66, 58
2, 201176, Note_on_c, 0, 66, 0
2, 201222, Note_on_c, 0, 65, 51
2, 201264, Note_on_c, 0, 65, 0
2, 201274, Control_c, 0, 64, 31
2, 201292, Note_on_c, 0, 66, 59
2, 201334, Note_on_c, 0, 66, 0
2, 201363, Note_on_c, 0, 65, 57
2, 201391, Control_c, 0, 64, 30
2, 201391, Note_on_c, 0, 65, 0
2, 201418, Note_on_c, 0, 66, 71
2, 201428, Control_c, 0, 64, 29
2, 201453, Note_on_c, 0, 66, 0
2, 201481, Note_on_c, 0, 65, 65
2, 201485, Control_c, 0, 64, 28
2, 201525, Control_c, 0, 64, 27
2, 201545, Control_c, 0, 64, 26
2, 201563, Control_c, 0, 64, 25
2, 201581, Control_c, 0, 64, 24
2, 201601, Control_c, 0, 64, 23
2, 201620, Control_c, 0, 64, 22
2, 201638, Control_c, 0, 64, 21
2, 201658, Control_c, 0, 64, 19
2, 201677, Control_c, 0, 64, 18
2, 201697, Control_c, 0, 64, 17
2, 201714, Control_c, 0, 64, 15
2, 201735, Control_c, 0, 64, 13
2, 201755, Control_c, 0, 64, 10
2, 201775, Control_c, 0, 64, 0
2, 202076, Note_on_c, 0, 65, 0
2, 202103, Note_on_c, 0, 63, 52
2, 202885, Note_on_c, 0, 65, 37
2, 202939, Note_on_c, 0, 63, 0
2, 203234, Control_c, 0, 64, 11
2, 203252, Control_c, 0, 64, 18
2, 203272, Control_c, 0, 64, 25
2, 203293, Control_c, 0, 64, 31
2, 203308, Control_c, 0, 64, 35
2, 203328, Control_c, 0, 64, 40
2, 203350, Control_c, 0, 64, 45
2, 203369, Control_c, 0, 64, 50
2, 203385, Control_c, 0, 64, 53
2, 203406, Control_c, 0, 64, 56
2, 203424, Control_c, 0, 64, 57
2, 203446, Control_c, 0, 64, 59
2, 203463, Control_c, 0, 64, 60
2, 203482, Control_c, 0, 64, 62
2, 203501, Control_c, 0, 64, 63
2, 203523, Control_c, 0, 64, 65
2, 203539, Control_c, 0, 64, 69
2, 203559, Control_c, 0, 64, 76
2, 203578, Control_c, 0, 64, 89
2, 203598, Control_c, 0, 64, 127
2, 203748, Note_on_c, 0, 46, 0
2, 203769, Note_on_c, 0, 62, 0
2, 203773, Note_on_c, 0, 53, 0
2, 203814, Note_on_c, 0, 56, 0
2, 204129, Note_on_c, 0, 51, 41
2, 204242, Note_on_c, 0, 55, 46
2, 204362, Note_on_c, 0, 58, 52
2, 204501, Control_c, 0, 64, 99
2, 204519, Note_on_c, 0, 63, 62
2, 204523, Control_c, 0, 64, 87
2, 204538, Control_c, 0, 64, 78
2, 204559, Control_c, 0, 64, 72
2, 204576, Control_c, 0, 64, 67
2, 204594, Note_on_c, 0, 65, 0
2, 204598, Control_c, 0, 64, 63
2, 204614, Control_c, 0, 64, 62
2, 204634, Control_c, 0, 64, 61
2, 204654, Control_c, 0, 64, 60
2, 204672, Control_c, 0, 64, 57
2, 204677, Note_on_c, 0, 61, 41
2, 204691, Control_c, 0, 64, 53
2, 204710, Control_c, 0, 64, 49
2, 204731, Control_c, 0, 64, 44
2, 204751, Control_c, 0, 64, 39
2, 204768, Control_c, 0, 64, 35
2, 204788, Control_c, 0, 64, 30
2, 204808, Control_c, 0, 64, 23
2, 204830, Control_c, 0, 64, 13
2, 204844, Control_c, 0, 64, 0
2, 205019, Control_c, 0, 64, 9
2, 205038, Control_c, 0, 64, 17
2, 205057, Control_c, 0, 64, 25
2, 205077, Control_c, 0, 64, 33
2, 205096, Control_c, 0, 64, 42
2, 205114, Control_c, 0, 64, 48
2, 205132, Control_c, 0, 64, 53
2, 205153, Control_c, 0, 64, 57
2, 205172, Control_c, 0, 64, 59
2, 205194, Control_c, 0, 64, 60
2, 205211, Control_c, 0, 64, 62
2, 205229, Control_c, 0, 64, 64
2, 205249, Control_c, 0, 64, 66
2, 205268, Control_c, 0, 64, 69
2, 205287, Control_c, 0, 64, 76
2, 205306, Control_c, 0, 64, 85
2, 205326, Control_c, 0, 64, 98
2, 205346, Control_c, 0, 64, 122
2, 205363, Control_c, 0, 64, 127
2, 205593, Note_on_c, 0, 51, 0
2, 205602, Note_on_c, 0, 58, 0
2, 205644, Note_on_c, 0, 55, 0
2, 205665, Note_on_c, 0, 61, 0
2, 206079, Note_on_c, 0, 51, 33
2, 206130, Note_on_c, 0, 55, 38
2, 206190, Note_on_c, 0, 58, 48
2, 206261, Note_on_c, 0, 61, 47
2, 206918, Note_on_c, 0, 51, 0
2, 207153, Note_on_c, 0, 55, 0
2, 207228, Note_on_c, 0, 58, 0
2, 207258, Note_on_c, 0, 61, 0
2, 207284, Note_on_c, 0, 63, 0
2, 207310, Note_on_c, 0, 65, 56
2, 207497, Note_on_c, 0, 65, 0
2, 207499, Note_on_c, 0, 67, 73
2, 207615, Note_on_c, 0, 51, 38
2, 207677, Note_on_c, 0, 68, 83
2, 207699, Note_on_c, 0, 55, 51
2, 207703, Note_on_c, 0, 67, 0
2, 207784, Control_c, 0, 64, 105
2, 207802, Control_c, 0, 64, 90
2, 207813, Note_on_c, 0, 58, 55
2, 207822, Control_c, 0, 64, 78
2, 207841, Control_c, 0, 64, 69
2, 207859, Control_c, 0, 64, 63
2, 207880, Control_c, 0, 64, 60
2, 207898, Control_c, 0, 64, 58
2, 207939, Control_c, 0, 64, 56
2, 207939, Note_on_c, 0, 70, 80
2, 207955, Control_c, 0, 64, 54
2, 207978, Control_c, 0, 64, 51
2, 207978, Note_on_c, 0, 68, 0
2, 207991, Note_on_c, 0, 61, 47
2, 207995, Control_c, 0, 64, 47
2, 208017, Control_c, 0, 64, 43
2, 208033, Control_c, 0, 64, 39
2, 208051, Control_c, 0, 64, 37
2, 208071, Control_c, 0, 64, 35
2, 208092, Control_c, 0, 64, 33
2, 208108, Control_c, 0, 64, 31
2, 208128, Control_c, 0, 64, 29
2, 208205, Control_c, 0, 64, 32
2, 208225, Control_c, 0, 64, 37
2, 208244, Control_c, 0, 64, 44
2, 208264, Control_c, 0, 64, 53
2, 208282, Control_c, 0, 64, 59
2, 208302, Control_c, 0, 64, 62
2, 208322, Control_c, 0, 64, 64
2, 208339, Control_c, 0, 64, 65
2, 208359, Control_c, 0, 64, 68
2, 208378, Control_c, 0, 64, 72
2, 208400, Control_c, 0, 64, 78
2, 208418, Control_c, 0, 64, 86
2, 208438, Control_c, 0, 64, 98
2, 208455, Control_c, 0, 64, 127
2, 208704, Note_on_c, 0, 70, 0
2, 208713, Note_on_c, 0, 51, 0
2, 208881, Note_on_c, 0, 61, 0
2, 209145, Note_on_c, 0, 64, 53
2, 209165, Note_on_c, 0, 58, 0
2, 209347, Note_on_c, 0, 64, 0
2, 209354, Note_on_c, 0, 63, 58
2, 209525, Note_on_c, 0, 61, 62
2, 209542, Note_on_c, 0, 63, 0
2, 209626, Note_on_c, 0, 61, 0
2, 209733, Note_on_c, 0, 51, 44
2, 209779, Control_c, 0, 64, 115
2, 209799, Control_c, 0, 64, 98
2, 209799, Note_on_c, 0, 55, 0
2, 209803, Note_on_c, 0, 56, 43
2, 209819, Control_c, 0, 64, 86
2, 209838, Control_c, 0, 64, 74
2, 209857, Control_c, 0, 64, 66
2, 209864, Note_on_c, 0, 61, 46
2, 209877, Control_c, 0, 64, 61
2, 209896, Control_c, 0, 64, 58
2, 209915, Control_c, 0, 64, 56
2, 209933, Control_c, 0, 64, 55
2, 209955, Control_c, 0, 64, 53
2, 209971, Control_c, 0, 64, 49
2, 209993, Control_c, 0, 64, 45
2, 210009, Control_c, 0, 64, 40
2, 210031, Control_c, 0, 64, 34
2, 210048, Control_c, 0, 64, 28
2, 210068, Control_c, 0, 64, 22
2, 210085, Control_c, 0, 64, 18
2, 210105, Control_c, 0, 64, 16
2, 210125, Control_c, 0, 64, 13
2, 210147, Control_c, 0, 64, 8
2, 210165, Control_c, 0, 64, 0
2, 210288, Note_on_c, 0, 61, 0
2, 210312, Note_on_c, 0, 59, 42
2, 210781, Control_c, 0, 64, 27
2, 210798, Control_c, 0, 64, 40
2, 210815, Control_c, 0, 64, 50
2, 210835, Control_c, 0, 64, 57
2, 210854, Control_c, 0, 64, 61
2, 210874, Control_c, 0, 64, 62
2, 210894, Control_c, 0, 64, 64
2, 210912, Control_c, 0, 64, 66
2, 210932, Control_c, 0, 64, 71
2, 210952, Control_c, 0, 64, 78
2, 210969, Control_c, 0, 64, 93
2, 210988, Control_c, 0, 64, 127
2, 211072, Note_on_c, 0, 56, 0
2, 211097, Note_on_c, 0, 51, 0
2, 211599, Note_on_c, 0, 51, 36
2, 211619, Note_on_c, 0, 56, 38
2, 212053, Note_on_c, 0, 59, 0
2, 212248, Note_on_c, 0, 63, 53
2, 212452, Note_on_c, 0, 63, 0
2, 212485, Note_on_c, 0, 65, 63
2, 212649, Note_on_c, 0, 51, 0
2, 212670, Note_on_c, 0, 65, 0
2, 212675, Note_on_c, 0, 56, 0
2, 212675, Note_on_c, 0, 67, 77
2, 212855, Note_on_c, 0, 68, 89
2, 212877, Note_on_c, 0, 67, 0
2, 213043, Note_on_c, 0, 70, 93
2, 213056, Note_on_c, 0, 68, 0
2, 213306, Note_on_c, 0, 51, 47
2, 213320, Note_on_c, 0, 56, 51
2, 213334, Control_c, 0, 64, 105
2, 213351, Control_c, 0, 64, 86
2, 213355, Note_on_c, 0, 71, 84
2, 213374, Control_c, 0, 64, 72
2, 213389, Control_c, 0, 64, 64
2, 213407, Note_on_c, 0, 70, 0
2, 213412, Control_c, 0, 64, 57
2, 213427, Control_c, 0, 64, 54
2, 213446, Control_c, 0, 64, 53
2, 213467, Control_c, 0, 64, 51
2, 213484, Control_c, 0, 64, 49
2, 213506, Control_c, 0, 64, 46
2, 213525, Control_c, 0, 64, 42
2, 213545, Control_c, 0, 64, 38
2, 213562, Control_c, 0, 64, 36
2, 213580, Control_c, 0, 64, 35
2, 213638, Control_c, 0, 64, 34
2, 213658, Control_c, 0, 64, 33
2, 213680, Control_c, 0, 64, 32
2, 213979, Note_on_c, 0, 71, 0
2, 213985, Note_on_c, 0, 70, 72
2, 214062, Note_on_c, 0, 68, 71
2, 214097, Note_on_c, 0, 70, 0
2, 214138, Note_on_c, 0, 66, 78
2, 214182, Note_on_c, 0, 68, 0
2, 214238, Note_on_c, 0, 65, 77
2, 214253, Note_on_c, 0, 66, 0
2, 214440, Note_on_c, 0, 66, 80
2, 214476, Note_on_c, 0, 65, 0
2, 214651, Note_on_c, 0, 68, 85
2, 214682, Note_on_c, 0, 66, 0
2, 214753, Control_c, 0, 64, 36
2, 214773, Control_c, 0, 64, 42
2, 214793, Control_c, 0, 64, 52
2, 214810, Control_c, 0, 64, 59
2, 214828, Control_c, 0, 64, 62
2, 214848, Control_c, 0, 64, 65
2, 214870, Control_c, 0, 64, 70
2, 214870, Note_on_c, 0, 65, 85
2, 214875, Note_on_c, 0, 68, 0
2, 214891, Control_c, 0, 64, 81
2, 214907, Control_c, 0, 64, 122
2, 214927, Control_c, 0, 64, 127
2, 214950, Note_on_c, 0, 56, 0
2, 214998, Note_on_c, 0, 51, 0
2, 215263, Note_on_c, 0, 63, 79
2, 215270, Control_c, 0, 64, 97
2, 215292, Control_c, 0, 64, 81
2, 215301, Note_on_c, 0, 53, 61
2, 215305, Note_on_c, 0, 51, 54
2, 215310, Control_c, 0, 64, 70
2, 215314, Note_on_c, 0, 65, 0
2, 215327, Control_c, 0, 64, 62
2, 215347, Control_c, 0, 64, 59
2, 215368, Control_c, 0, 64, 58
2, 215386, Control_c, 0, 64, 56
2, 215406, Control_c, 0, 64, 54
2, 215425, Control_c, 0, 64, 51
2, 215445, Control_c, 0, 64, 46
2, 215463, Control_c, 0, 64, 40
2, 215483, Control_c, 0, 64, 32
2, 215502, Control_c, 0, 64, 27
2, 215522, Control_c, 0, 64, 24
2, 215539, Control_c, 0, 64, 23
2, 215578, Control_c, 0, 64, 22
2, 215813, Note_on_c, 0, 62, 72
2, 215848, Note_on_c, 0, 63, 0
2, 216500, Control_c, 0, 64, 23
2, 216518, Control_c, 0, 64, 24
2, 216538, Control_c, 0, 64, 26
2, 216556, Control_c, 0, 64, 28
2, 216576, Control_c, 0, 64, 31
2, 216599, Control_c, 0, 64, 34
2, 216615, Control_c, 0, 64, 37
2, 216634, Control_c, 0, 64, 41
2, 216652, Control_c, 0, 64, 44
2, 216674, Control_c, 0, 64, 48
2, 216694, Control_c, 0, 64, 51
2, 216712, Control_c, 0, 64, 54
2, 216730, Control_c, 0, 64, 56
2, 216769, Control_c, 0, 64, 58
2, 216788, Control_c, 0, 64, 59
2, 216807, Control_c, 0, 64, 61
2, 216826, Control_c, 0, 64, 62
2, 216845, Control_c, 0, 64, 64
2, 216867, Control_c, 0, 64, 65
2, 216885, Control_c, 0, 64, 67
2, 216904, Control_c, 0, 64, 70
2, 216921, Control_c, 0, 64, 75
2, 216941, Control_c, 0, 64, 83
2, 216960, Control_c, 0, 64, 94
2, 216980, Control_c, 0, 64, 112
2, 216998, Control_c, 0, 64, 127
2, 217257, Note_on_c, 0, 59, 49
2, 217410, Note_on_c, 0, 51, 0
2, 217448, Note_on_c, 0, 53, 0
2, 217467, Note_on_c, 0, 59, 0
2, 217498, Note_on_c, 0, 58, 54
2, 217762, Note_on_c, 0, 58, 0
2, 217782, Note_on_c, 0, 53, 36
2, 217787, Control_c, 0, 64, 103
2, 217796, Note_on_c, 0, 59, 53
2, 217802, Note_on_c, 0, 51, 42
2, 217807, Control_c, 0, 64, 84
2, 217825, Control_c, 0, 64, 73
2, 217844, Control_c, 0, 64, 66
2, 217864, Control_c, 0, 64, 61
2, 217882, Control_c, 0, 64, 59
2, 217900, Control_c, 0, 64, 58
2, 217920, Control_c, 0, 64, 56
2, 217940, Control_c, 0, 64, 54
2, 217958, Control_c, 0, 64, 51
2, 217982, Control_c, 0, 64, 46
2, 217999, Control_c, 0, 64, 41
2, 218017, Control_c, 0, 64, 36
2, 218035, Control_c, 0, 64, 30
2, 218055, Control_c, 0, 64, 23
2, 218077, Control_c, 0, 64, 11
2, 218092, Control_c, 0, 64, 0
2, 218555, Control_c, 0, 64, 15
2, 218573, Control_c, 0, 64, 28
2, 218593, Control_c, 0, 64, 39
2, 218613, Control_c, 0, 64, 49
2, 218632, Control_c, 0, 64, 57
2, 218652, Control_c, 0, 64, 59
2, 218669, Control_c, 0, 64, 60
2, 218689, Control_c, 0, 64, 61
2, 218707, Control_c, 0, 64, 62
2, 218727, Control_c, 0, 64, 63
2, 218745, Control_c, 0, 64, 65
2, 218766, Control_c, 0, 64, 68
2, 218785, Control_c, 0, 64, 73
2, 218803, Control_c, 0, 64, 79
2, 218822, Control_c, 0, 64, 87
2, 218842, Control_c, 0, 64, 94
2, 218862, Control_c, 0, 64, 100
2, 218883, Control_c, 0, 64, 109
2, 218899, Control_c, 0, 64, 127
2, 219184, Note_on_c, 0, 53, 0
2, 219229, Note_on_c, 0, 51, 0
2, 219511, Note_on_c, 0, 56, 43
2, 219818, Note_on_c, 0, 56, 0
2, 219823, Control_c, 0, 64, 118
2, 219839, Control_c, 0, 64, 109
2, 219861, Control_c, 0, 64, 104
2, 219869, Note_on_c, 0, 53, 45
2, 219881, Control_c, 0, 64, 95
2, 219892, Note_on_c, 0, 51, 39
2, 219899, Control_c, 0, 64, 85
2, 219918, Note_on_c, 0, 59, 0
2, 219922, Control_c, 0, 64, 74
2, 219936, Control_c, 0, 64, 66
2, 219956, Control_c, 0, 64, 60
2, 219976, Control_c, 0, 64, 57
2, 219995, Control_c, 0, 64, 56
2, 220015, Control_c, 0, 64, 55
2, 220033, Control_c, 0, 64, 53
2, 220051, Control_c, 0, 64, 50
2, 220070, Control_c, 0, 64, 44
2, 220089, Control_c, 0, 64, 36
2, 220109, Control_c, 0, 64, 26
2, 220127, Control_c, 0, 64, 19
2, 220148, Control_c, 0, 64, 15
2, 220167, Control_c, 0, 64, 13
2, 220185, Control_c, 0, 64, 10
2, 220205, Control_c, 0, 64, 0
2, 220532, Control_c, 0, 64, 9
2, 220550, Control_c, 0, 64, 19
2, 220570, Control_c, 0, 64, 27
2, 220592, Control_c, 0, 64, 32
2, 220610, Control_c, 0, 64, 36
2, 220627, Control_c, 0, 64, 38
2, 220648, Control_c, 0, 64, 40
2, 220666, Control_c, 0, 64, 42
2, 220685, Control_c, 0, 64, 44
2, 220705, Control_c, 0, 64, 48
2, 220724, Control_c, 0, 64, 51
2, 220745, Control_c, 0, 64, 53
2, 220763, Control_c, 0, 64, 55
2, 220803, Control_c, 0, 64, 56
2, 220821, Control_c, 0, 64, 57
2, 220839, Control_c, 0, 64, 59
2, 220858, Control_c, 0, 64, 61
2, 220876, Control_c, 0, 64, 62
2, 220896, Control_c, 0, 64, 63
2, 220933, Control_c, 0, 64, 65
2, 220953, Control_c, 0, 64, 66
2, 220972, Control_c, 0, 64, 67
2, 220995, Control_c, 0, 64, 69
2, 221010, Control_c, 0, 64, 71
2, 221030, Control_c, 0, 64, 75
2, 221051, Control_c, 0, 64, 79
2, 221071, Control_c, 0, 64, 85
2, 221089, Control_c, 0, 64, 90
2, 221107, Control_c, 0, 64, 96
2, 221128, Control_c, 0, 64, 103
2, 221145, Control_c, 0, 64, 111
2, 221164, Control_c, 0, 64, 127
2, 221477, Note_on_c, 0, 62, 0
2, 221948, Note_on_c, 0, 62, 45
2, 222006, Note_on_c, 0, 51, 0
2, 222017, Note_on_c, 0, 53, 0
2, 222682, Control_c, 0, 64, 118
2, 222702, Control_c, 0, 64, 110
2, 222720, Control_c, 0, 64, 104
2, 222739, Control_c, 0, 64, 99
2, 222759, Control_c, 0, 64, 93
2, 222770, Note_on_c, 0, 39, 43
2, 222779, Control_c, 0, 64, 88
2, 222798, Control_c, 0, 64, 84
2, 222817, Control_c, 0, 64, 77
2, 222835, Control_c, 0, 64, 70
2, 222855, Control_c, 0, 64, 65
2, 222874, Control_c, 0, 64, 61
2, 222894, Control_c, 0, 64, 58
2, 222913, Control_c, 0, 64, 55
2, 222932, Control_c, 0, 64, 53
2, 222954, Control_c, 0, 64, 50
2, 222970, Control_c, 0, 64, 46
2, 222988, Control_c, 0, 64, 41
2, 223008, Control_c, 0, 64, 37
2, 223030, Control_c, 0, 64, 34
2, 223278, Control_c, 0, 64, 35
2, 223334, Control_c, 0, 64, 36
2, 223450, Control_c, 0, 64, 37
2, 223468, Note_on_c, 0, 46, 38
2, 223583, Control_c, 0, 64, 38
2, 223832, Note_on_c, 0, 51, 39
2, 223873, Control_c, 0, 64, 39
2, 224033, Note_on_c, 0, 55, 43
2, 224105, Control_c, 0, 64, 40
2, 224200, Control_c, 0, 64, 41
2, 224218, Control_c, 0, 64, 44
2, 224237, Control_c, 0, 64, 49
2, 224257, Control_c, 0, 64, 53
2, 224276, Control_c, 0, 64, 57
2, 224293, Control_c, 0, 64, 58
2, 224298, Note_on_c, 0, 58, 56
2, 224315, Control_c, 0, 64, 60
2, 224334, Control_c, 0, 64, 62
2, 224352, Control_c, 0, 64, 64
2, 224372, Control_c, 0, 64, 66
2, 224391, Control_c, 0, 64, 69
2, 224413, Control_c, 0, 64, 74
2, 224429, Control_c, 0, 64, 81
2, 224447, Control_c, 0, 64, 87
2, 224468, Control_c, 0, 64, 93
2, 224487, Control_c, 0, 64, 98
2, 224507, Control_c, 0, 64, 103
2, 224525, Control_c, 0, 64, 107
2, 224545, Note_on_c, 0, 62, 0
2, 224548, Control_c, 0, 64, 110
2, 224584, Control_c, 0, 64, 111
2, 224717, Control_c, 0, 64, 110
2, 224736, Control_c, 0, 64, 109
2, 224775, Control_c, 0, 64, 108
2, 224793, Control_c, 0, 64, 106
2, 224813, Control_c, 0, 64, 105
2, 224831, Control_c, 0, 64, 103
2, 224851, Control_c, 0, 64, 101
2, 224871, Control_c, 0, 64, 99
2, 224890, Control_c, 0, 64, 97
2, 224908, Control_c, 0, 64, 95
2, 224928, Control_c, 0, 64, 92
2, 224949, Control_c, 0, 64, 88
2, 224968, Control_c, 0, 64, 85
2, 224988, Control_c, 0, 64, 81
2, 225005, Control_c, 0, 64, 78
2, 225023, Control_c, 0, 64, 76
2, 225043, Control_c, 0, 64, 73
2, 225062, Control_c, 0, 64, 71
2, 225082, Control_c, 0, 64, 68
2, 225089, Note_on_c, 0, 62, 44
2, 225102, Control_c, 0, 64, 66
2, 225121, Control_c, 0, 64, 64
2, 225141, Control_c, 0, 64, 62
2, 225158, Control_c, 0, 64, 61
2, 225178, Control_c, 0, 64, 59
2, 225196, Control_c, 0, 64, 58
2, 225216, Control_c, 0, 64, 57
2, 225236, Control_c, 0, 64, 55
2, 225253, Control_c, 0, 64, 52
2, 225276, Control_c, 0, 64, 50
2, 225296, Control_c, 0, 64, 48
2, 225311, Control_c, 0, 64, 46
2, 225330, Control_c, 0, 64, 44
2, 225350, Control_c, 0, 64, 43
2, 225370, Control_c, 0, 64, 42
2, 225677, Control_c, 0, 64, 43
2, 225774, Control_c, 0, 64, 44
2, 225965, Control_c, 0, 64, 45
2, 227043, Note_on_c, 0, 63, 37
2, 227124, Note_on_c, 0, 62, 0
2, 227347, Control_c, 0, 64, 44
2, 227712, Control_c, 0, 64, 45
2, 230647, Note_on_c, 0, 63, 0
2, 230766, Note_on_c, 0, 46, 0
2, 230808, Note_on_c, 0, 39, 0
2, 230830, Note_on_c, 0, 51, 0
2, 230835, Note_on_c, 0, 55, 0
2, 230913, Note_on_c, 0, 58, 0
2, 231322, Control_c, 0, 64, 44
2, 231435, Control_c, 0, 64, 43
2, 231515, Control_c, 0, 64, 42
2, 231551, Control_c, 0, 64, 41
2, 231571, Control_c, 0, 64, 40
2, 231591, Control_c, 0, 64, 39
2, 231629, Control_c, 0, 64, 38
2, 231648, Control_c, 0, 64, 37
2, 231666, Control_c, 0, 64, 36
2, 231686, Control_c, 0, 64, 34
2, 231705, Control_c, 0, 64, 33
2, 231725, Control_c, 0, 64, 31
2, 231763, Control_c, 0, 64, 30
2, 232071, Control_c, 0, 64, 29
2, 233848,End_track
0, 0, End_of_file
