0, 0, Header, 1, 2, 480
1, 0, Start_track
1, 0, Tempo, 500000
1, 0, Time_signature, 4, 2, 24, 8
1, 1, End_track
2, 0, Start_track
2, 0, Program_c, 0, 0
2, 0, Control_c, 0, 64, 41
2, 45, Control_c, 0, 64, 40
2, 83, Control_c, 0, 64, 40
2, 103, Control_c, 0, 64, 39
2, 122, Control_c, 0, 64, 39
2, 141, Control_c, 0, 64, 38
2, 160, Control_c, 0, 64, 38
2, 179, Control_c, 0, 64, 36
2, 199, Control_c, 0, 64, 35
2, 217, Control_c, 0, 64, 32
2, 237, Control_c, 0, 64, 31
2, 256, Control_c, 0, 64, 28
2, 275, Control_c, 0, 64, 24
2, 294, Control_c, 0, 64, 17
2, 314, Control_c, 0, 64, 0
2, 974, Note_on_c, 0, 70, 49
2, 994, Note_on_c, 0, 66, 38
2, 1002, Note_on_c, 0, 63, 34
2, 1154, Control_c, 0, 64, 35
2, 1174, Control_c, 0, 64, 58
2, 1192, Control_c, 0, 64, 64
2, 1212, Control_c, 0, 64, 67
2, 1231, Control_c, 0, 64, 73
2, 1250, Control_c, 0, 64, 81
2, 1269, Control_c, 0, 64, 91
2, 1289, Control_c, 0, 64, 106
2, 1308, Control_c, 0, 64, 127
2, 1550, Note_on_c, 0, 66, 0
2, 1590, Note_on_c, 0, 63, 0
2, 1933, Note_on_c, 0, 70, 0
2, 2404, Note_on_c, 0, 66, 29
2, 2409, Note_on_c, 0, 63, 31
2, 2519, Control_c, 0, 64, 92
2, 2539, Control_c, 0, 64, 73
2, 2557, Control_c, 0, 64, 61
2, 2577, Control_c, 0, 64, 0
2, 2673, Control_c, 0, 64, 9
2, 2692, Control_c, 0, 64, 49
2, 2711, Control_c, 0, 64, 62
2, 2731, Control_c, 0, 64, 65
2, 2750, Control_c, 0, 64, 69
2, 2768, Control_c, 0, 64, 74
2, 2788, Control_c, 0, 64, 84
2, 2807, Control_c, 0, 64, 99
2, 2827, Control_c, 0, 64, 127
2, 3085, Note_on_c, 0, 66, 0
2, 3135, Note_on_c, 0, 63, 0
2, 3494, Note_on_c, 0, 70, 51
2, 3860, Note_on_c, 0, 75, 51
2, 3890, Note_on_c, 0, 63, 28
2, 3891, Note_on_c, 0, 66, 24
2, 3921, Control_c, 0, 64, 99
2, 3940, Control_c, 0, 64, 73
2, 3959, Control_c, 0, 64, 55
2, 3979, Control_c, 0, 64, 0
2, 4019, Note_on_c, 0, 70, 0
2, 4113, Control_c, 0, 64, 11
2, 4133, Control_c, 0, 64, 51
2, 4151, Control_c, 0, 64, 60
2, 4171, Control_c, 0, 64, 64
2, 4190, Control_c, 0, 64, 67
2, 4208, Control_c, 0, 64, 71
2, 4228, Control_c, 0, 64, 82
2, 4247, Control_c, 0, 64, 97
2, 4267, Control_c, 0, 64, 127
2, 4486, Note_on_c, 0, 66, 0
2, 4488, Note_on_c, 0, 63, 0
2, 4533, Note_on_c, 0, 75, 0
2, 4932, Note_on_c, 0, 78, 56
2, 5230, Note_on_c, 0, 78, 0
2, 5324, Note_on_c, 0, 63, 33
2, 5328, Note_on_c, 0, 68, 34
2, 5338, Note_on_c, 0, 71, 48
2, 5380, Control_c, 0, 64, 117
2, 5399, Control_c, 0, 64, 83
2, 5419, Control_c, 0, 64, 66
2, 5437, Control_c, 0, 64, 29
2, 5457, Control_c, 0, 64, 0
2, 5591, Control_c, 0, 64, 32
2, 5611, Control_c, 0, 64, 56
2, 5630, Control_c, 0, 64, 63
2, 5648, Control_c, 0, 64, 66
2, 5668, Control_c, 0, 64, 71
2, 5687, Control_c, 0, 64, 80
2, 5707, Control_c, 0, 64, 94
2, 5725, Control_c, 0, 64, 127
2, 5859, Note_on_c, 0, 63, 0
2, 5892, Note_on_c, 0, 68, 0
2, 5910, Note_on_c, 0, 71, 0
2, 6823, Note_on_c, 0, 71, 37
2, 6833, Note_on_c, 0, 68, 29
2, 6835, Note_on_c, 0, 63, 35
2, 6859, Control_c, 0, 64, 103
2, 6877, Control_c, 0, 64, 78
2, 6897, Control_c, 0, 64, 63
2, 6916, Control_c, 0, 64, 0
2, 7051, Control_c, 0, 64, 43
2, 7070, Control_c, 0, 64, 60
2, 7088, Control_c, 0, 64, 64
2, 7108, Control_c, 0, 64, 69
2, 7127, Control_c, 0, 64, 76
2, 7147, Control_c, 0, 64, 87
2, 7165, Control_c, 0, 64, 106
2, 7185, Control_c, 0, 64, 127
2, 7321, Note_on_c, 0, 63, 0
2, 7334, Note_on_c, 0, 71, 0
2, 7410, Note_on_c, 0, 68, 0
2, 7924, Note_on_c, 0, 75, 57
2, 8287, Note_on_c, 0, 80, 60
2, 8307, Note_on_c, 0, 63, 27
2, 8314, Note_on_c, 0, 71, 30
2, 8319, Note_on_c, 0, 68, 18
2, 8356, Control_c, 0, 64, 113
2, 8376, Control_c, 0, 64, 81
2, 8394, Control_c, 0, 64, 64
2, 8414, Control_c, 0, 64, 0
2, 8479, Note_on_c, 0, 75, 0
2, 8547, Control_c, 0, 64, 39
2, 8566, Control_c, 0, 64, 60
2, 8586, Control_c, 0, 64, 65
2, 8604, Control_c, 0, 64, 70
2, 8624, Control_c, 0, 64, 78
2, 8643, Control_c, 0, 64, 92
2, 8662, Control_c, 0, 64, 127
2, 8786, Note_on_c, 0, 71, 0
2, 8923, Note_on_c, 0, 68, 0
2, 8933, Note_on_c, 0, 80, 0
2, 8962, Note_on_c, 0, 63, 0
2, 9398, Note_on_c, 0, 83, 62
2, 9783, Note_on_c, 0, 68, 23
2, 9797, Note_on_c, 0, 63, 30
2, 9808, Note_on_c, 0, 74, 51
2, 9814, Note_on_c, 0, 65, 25
2, 9840, Note_on_c, 0, 83, 0
2, 9892, Control_c, 0, 64, 87
2, 9911, Control_c, 0, 64, 67
2, 9931, Control_c, 0, 64, 28
2, 9950, Control_c, 0, 64, 0
2, 10083, Control_c, 0, 64, 41
2, 10102, Control_c, 0, 64, 60
2, 10121, Control_c, 0, 64, 64
2, 10141, Control_c, 0, 64, 68
2, 10160, Control_c, 0, 64, 73
2, 10179, Control_c, 0, 64, 82
2, 10198, Control_c, 0, 64, 97
2, 10218, Control_c, 0, 64, 127
2, 10372, Note_on_c, 0, 68, 0
2, 10393, Note_on_c, 0, 65, 0
2, 10417, Note_on_c, 0, 63, 0
2, 10942, Note_on_c, 0, 74, 0
2, 11268, Note_on_c, 0, 62, 33
2, 11287, Note_on_c, 0, 68, 33
2, 11304, Note_on_c, 0, 65, 32
2, 11372, Control_c, 0, 64, 117
2, 11392, Control_c, 0, 64, 82
2, 11411, Control_c, 0, 64, 65
2, 11431, Control_c, 0, 64, 15
2, 11450, Control_c, 0, 64, 0
2, 11585, Control_c, 0, 64, 49
2, 11604, Control_c, 0, 64, 60
2, 11623, Control_c, 0, 64, 64
2, 11642, Control_c, 0, 64, 67
2, 11661, Control_c, 0, 64, 71
2, 11680, Control_c, 0, 64, 78
2, 11699, Control_c, 0, 64, 88
2, 11719, Control_c, 0, 64, 105
2, 11738, Control_c, 0, 64, 127
2, 11845, Note_on_c, 0, 68, 0
2, 11901, Note_on_c, 0, 65, 0
2, 11912, Note_on_c, 0, 62, 0
2, 12317, Note_on_c, 0, 77, 58
2, 12394, Note_on_c, 0, 77, 0
2, 12701, Note_on_c, 0, 70, 54
2, 12705, Note_on_c, 0, 62, 32
2, 12722, Note_on_c, 0, 65, 30
2, 12794, Control_c, 0, 64, 110
2, 12811, Note_on_c, 0, 70, 0
2, 12813, Control_c, 0, 64, 82
2, 12826, Note_on_c, 0, 68, 56
2, 12833, Control_c, 0, 64, 66
2, 12851, Control_c, 0, 64, 41
2, 12871, Control_c, 0, 64, 0
2, 12894, Note_on_c, 0, 68, 0
2, 12938, Note_on_c, 0, 70, 51
2, 13013, Note_on_c, 0, 70, 0
2, 13032, Note_on_c, 0, 68, 48
2, 13274, Control_c, 0, 64, 26
2, 13293, Control_c, 0, 64, 50
2, 13313, Control_c, 0, 64, 60
2, 13331, Control_c, 0, 64, 63
2, 13351, Control_c, 0, 64, 66
2, 13364, Note_on_c, 0, 65, 0
2, 13370, Control_c, 0, 64, 70
2, 13389, Control_c, 0, 64, 77
2, 13408, Control_c, 0, 64, 89
2, 13428, Control_c, 0, 64, 112
2, 13447, Control_c, 0, 64, 127
2, 13449, Note_on_c, 0, 62, 0
2, 13530, Note_on_c, 0, 68, 0
2, 13592, Note_on_c, 0, 66, 45
2, 13790, Note_on_c, 0, 68, 56
2, 13838, Note_on_c, 0, 66, 0
2, 13929, Note_on_c, 0, 70, 56
2, 13934, Note_on_c, 0, 68, 0
2, 13983, Note_on_c, 0, 70, 0
2, 14115, Note_on_c, 0, 63, 36
2, 14151, Note_on_c, 0, 68, 41
2, 14237, Note_on_c, 0, 68, 0
2, 14254, Control_c, 0, 64, 99
2, 14268, Note_on_c, 0, 66, 48
2, 14274, Control_c, 0, 64, 76
2, 14293, Control_c, 0, 64, 64
2, 14313, Control_c, 0, 64, 29
2, 14332, Control_c, 0, 64, 0
2, 14335, Note_on_c, 0, 66, 0
2, 14380, Note_on_c, 0, 68, 48
2, 14442, Note_on_c, 0, 68, 0
2, 14468, Note_on_c, 0, 66, 50
2, 14535, Note_on_c, 0, 66, 0
2, 14563, Note_on_c, 0, 68, 59
2, 14632, Note_on_c, 0, 68, 0
2, 14664, Note_on_c, 0, 66, 54
2, 14735, Note_on_c, 0, 66, 0
2, 14774, Note_on_c, 0, 68, 61
2, 14827, Note_on_c, 0, 68, 0
2, 14855, Note_on_c, 0, 66, 52
2, 14920, Note_on_c, 0, 66, 0
2, 14952, Note_on_c, 0, 68, 61
2, 15011, Note_on_c, 0, 68, 0
2, 15051, Note_on_c, 0, 66, 44
2, 15097, Note_on_c, 0, 66, 0
2, 15145, Note_on_c, 0, 68, 46
2, 15204, Note_on_c, 0, 68, 0
2, 15212, Note_on_c, 0, 66, 53
2, 15349, Note_on_c, 0, 66, 0
2, 15357, Note_on_c, 0, 63, 0
2, 15358, Note_on_c, 0, 65, 41
2, 15592, Note_on_c, 0, 63, 42
2, 15601, Note_on_c, 0, 65, 0
2, 15910, Note_on_c, 0, 78, 49
2, 16000, Note_on_c, 0, 63, 0
2, 16403, Control_c, 0, 64, 39
2, 16421, Control_c, 0, 64, 55
2, 16441, Control_c, 0, 64, 61
2, 16460, Control_c, 0, 64, 65
2, 16479, Control_c, 0, 64, 68
2, 16498, Control_c, 0, 64, 73
2, 16518, Control_c, 0, 64, 81
2, 16537, Control_c, 0, 64, 91
2, 16556, Control_c, 0, 64, 104
2, 16575, Control_c, 0, 64, 127
2, 16945, Note_on_c, 0, 78, 0
2, 17196, Note_on_c, 0, 58, 40
2, 17513, Note_on_c, 0, 66, 34
2, 17562, Note_on_c, 0, 70, 47
2, 17620, Note_on_c, 0, 75, 50
2, 17653, Note_on_c, 0, 54, 41
2, 17679, Note_on_c, 0, 78, 55
2, 17786, Control_c, 0, 64, 79
2, 17792, Note_on_c, 0, 58, 0
2, 17806, Control_c, 0, 64, 59
2, 17825, Control_c, 0, 64, 0
2, 17960, Control_c, 0, 64, 53
2, 17979, Control_c, 0, 64, 63
2, 17998, Control_c, 0, 64, 66
2, 18017, Control_c, 0, 64, 70
2, 18037, Control_c, 0, 64, 78
2, 18056, Control_c, 0, 64, 94
2, 18075, Control_c, 0, 64, 127
2, 18282, Note_on_c, 0, 66, 0
2, 18349, Note_on_c, 0, 54, 0
2, 18412, Note_on_c, 0, 70, 0
2, 18463, Note_on_c, 0, 78, 0
2, 18497, Note_on_c, 0, 75, 0
2, 18923, Note_on_c, 0, 51, 55
2, 19253, Note_on_c, 0, 66, 51
2, 19317, Note_on_c, 0, 70, 59
2, 19362, Note_on_c, 0, 73, 59
2, 19412, Note_on_c, 0, 46, 47
2, 19453, Note_on_c, 0, 78, 65
2, 19483, Note_on_c, 0, 51, 0
2, 19534, Control_c, 0, 64, 86
2, 19553, Control_c, 0, 64, 64
2, 19572, Control_c, 0, 64, 0
2, 19765, Control_c, 0, 64, 62
2, 19783, Control_c, 0, 64, 67
2, 19803, Control_c, 0, 64, 74
2, 19822, Control_c, 0, 64, 85
2, 19842, Control_c, 0, 64, 105
2, 19860, Control_c, 0, 64, 127
2, 20015, Note_on_c, 0, 46, 0
2, 20168, Note_on_c, 0, 66, 0
2, 20320, Note_on_c, 0, 70, 0
2, 20429, Note_on_c, 0, 73, 0
2, 20458, Note_on_c, 0, 78, 0
2, 20936, Note_on_c, 0, 46, 38
2, 21002, Note_on_c, 0, 49, 41
2, 21046, Note_on_c, 0, 54, 47
2, 21121, Note_on_c, 0, 58, 48
2, 21147, Control_c, 0, 64, 113
2, 21166, Control_c, 0, 64, 75
2, 21185, Control_c, 0, 64, 53
2, 21205, Control_c, 0, 64, 0
2, 21377, Control_c, 0, 64, 54
2, 21397, Control_c, 0, 64, 65
2, 21416, Control_c, 0, 64, 73
2, 21432, Control_c, 0, 64, 85
2, 21451, Control_c, 0, 64, 116
2, 21471, Control_c, 0, 64, 127
2, 21626, Note_on_c, 0, 58, 0
2, 21639, Note_on_c, 0, 46, 0
2, 21763, Note_on_c, 0, 54, 0
2, 21820, Note_on_c, 0, 49, 0
2, 22172, Note_on_c, 0, 78, 58
2, 22377, Note_on_c, 0, 76, 63
2, 22547, Note_on_c, 0, 75, 66
2, 22552, Note_on_c, 0, 46, 40
2, 22564, Note_on_c, 0, 76, 0
2, 22581, Note_on_c, 0, 78, 0
2, 22633, Note_on_c, 0, 49, 37
2, 22679, Note_on_c, 0, 54, 38
2, 22809, Note_on_c, 0, 58, 37
2, 22814, Control_c, 0, 64, 91
2, 22826, Note_on_c, 0, 76, 62
2, 22834, Control_c, 0, 64, 70
2, 22853, Control_c, 0, 64, 49
2, 22854, Note_on_c, 0, 75, 0
2, 22872, Control_c, 0, 64, 0
2, 23122, Control_c, 0, 64, 23
2, 23140, Control_c, 0, 64, 58
2, 23160, Control_c, 0, 64, 64
2, 23179, Control_c, 0, 64, 68
2, 23199, Control_c, 0, 64, 74
2, 23217, Control_c, 0, 64, 91
2, 23237, Control_c, 0, 64, 127
2, 23283, Note_on_c, 0, 58, 0
2, 23374, Note_on_c, 0, 46, 0
2, 23386, Note_on_c, 0, 76, 0
2, 23439, Note_on_c, 0, 54, 0
2, 23475, Note_on_c, 0, 49, 0
2, 24006, Note_on_c, 0, 73, 53
2, 24065, Note_on_c, 0, 73, 0
2, 24176, Note_on_c, 0, 47, 36
2, 24250, Note_on_c, 0, 51, 31
2, 24303, Note_on_c, 0, 54, 31
2, 24354, Note_on_c, 0, 63, 35
2, 24380, Note_on_c, 0, 66, 45
2, 24392, Note_on_c, 0, 59, 38
2, 24425, Note_on_c, 0, 71, 55
2, 24466, Control_c, 0, 64, 91
2, 24485, Control_c, 0, 64, 72
2, 24505, Control_c, 0, 64, 56
2, 24523, Control_c, 0, 64, 0
2, 24532, Note_on_c, 0, 75, 55
2, 24792, Control_c, 0, 64, 50
2, 24811, Control_c, 0, 64, 60
2, 24831, Control_c, 0, 64, 63
2, 24849, Control_c, 0, 64, 66
2, 24869, Control_c, 0, 64, 70
2, 24888, Control_c, 0, 64, 79
2, 24908, Control_c, 0, 64, 98
2, 24926, Control_c, 0, 64, 127
2, 25027, Note_on_c, 0, 63, 0
2, 25105, Note_on_c, 0, 66, 0
2, 25155, Note_on_c, 0, 71, 0
2, 25257, Note_on_c, 0, 75, 0
2, 25312, Note_on_c, 0, 59, 0
2, 25654, Note_on_c, 0, 47, 0
2, 25667, Note_on_c, 0, 54, 0
2, 25776, Note_on_c, 0, 51, 0
2, 25974, Note_on_c, 0, 66, 31
2, 26028, Note_on_c, 0, 71, 39
2, 26088, Note_on_c, 0, 75, 47
2, 26155, Control_c, 0, 64, 108
2, 26174, Control_c, 0, 64, 79
2, 26194, Control_c, 0, 64, 63
2, 26213, Control_c, 0, 64, 0
2, 26577, Control_c, 0, 64, 15
2, 26597, Control_c, 0, 64, 47
2, 26616, Control_c, 0, 64, 59
2, 26635, Control_c, 0, 64, 64
2, 26654, Control_c, 0, 64, 68
2, 26674, Control_c, 0, 64, 73
2, 26693, Control_c, 0, 64, 82
2, 26712, Control_c, 0, 64, 94
2, 26731, Control_c, 0, 64, 117
2, 26751, Control_c, 0, 64, 127
2, 27285, Note_on_c, 0, 66, 0
2, 27329, Note_on_c, 0, 71, 0
2, 27369, Note_on_c, 0, 75, 0
2, 27410, Note_on_c, 0, 54, 45
2, 27758, Note_on_c, 0, 66, 38
2, 27817, Note_on_c, 0, 71, 41
2, 27846, Note_on_c, 0, 51, 43
2, 27864, Note_on_c, 0, 75, 58
2, 27951, Note_on_c, 0, 54, 0
2, 27980, Control_c, 0, 64, 85
2, 27999, Control_c, 0, 64, 65
2, 28018, Control_c, 0, 64, 0
2, 28172, Control_c, 0, 64, 41
2, 28192, Control_c, 0, 64, 60
2, 28210, Control_c, 0, 64, 65
2, 28230, Control_c, 0, 64, 68
2, 28249, Control_c, 0, 64, 73
2, 28269, Control_c, 0, 64, 84
2, 28287, Control_c, 0, 64, 104
2, 28307, Control_c, 0, 64, 127
2, 28452, Note_on_c, 0, 51, 0
2, 28529, Note_on_c, 0, 66, 0
2, 28610, Note_on_c, 0, 71, 0
2, 28767, Note_on_c, 0, 75, 0
2, 29154, Note_on_c, 0, 47, 59
2, 29518, Note_on_c, 0, 70, 51
2, 29586, Note_on_c, 0, 75, 55
2, 29664, Note_on_c, 0, 82, 74
2, 29673, Note_on_c, 0, 43, 44
2, 29727, Control_c, 0, 64, 87
2, 29734, Note_on_c, 0, 47, 0
2, 29747, Control_c, 0, 64, 66
2, 29766, Control_c, 0, 64, 0
2, 29958, Control_c, 0, 64, 47
2, 29977, Control_c, 0, 64, 62
2, 29996, Control_c, 0, 64, 65
2, 30015, Control_c, 0, 64, 69
2, 30035, Control_c, 0, 64, 76
2, 30054, Control_c, 0, 64, 89
2, 30073, Control_c, 0, 64, 127
2, 30374, Note_on_c, 0, 43, 0
2, 30728, Note_on_c, 0, 70, 0
2, 30928, Note_on_c, 0, 75, 0
2, 31019, Note_on_c, 0, 82, 0
2, 31238, Note_on_c, 0, 43, 34
2, 31295, Note_on_c, 0, 46, 36
2, 31322, Note_on_c, 0, 51, 36
2, 31386, Note_on_c, 0, 55, 48
2, 31435, Control_c, 0, 64, 93
2, 31454, Control_c, 0, 64, 71
2, 31474, Control_c, 0, 64, 44
2, 31493, Control_c, 0, 64, 0
2, 31629, Control_c, 0, 64, 28
2, 31647, Control_c, 0, 64, 59
2, 31667, Control_c, 0, 64, 65
2, 31686, Control_c, 0, 64, 69
2, 31704, Control_c, 0, 64, 76
2, 31724, Control_c, 0, 64, 87
2, 31743, Control_c, 0, 64, 127
2, 31884, Note_on_c, 0, 43, 0
2, 31899, Note_on_c, 0, 55, 0
2, 32051, Note_on_c, 0, 51, 0
2, 32130, Note_on_c, 0, 46, 0
2, 32472, Note_on_c, 0, 75, 55
2, 32675, Note_on_c, 0, 73, 57
2, 32764, Note_on_c, 0, 75, 0
2, 32837, Note_on_c, 0, 43, 31
2, 32858, Note_on_c, 0, 71, 61
2, 32881, Note_on_c, 0, 46, 38
2, 32883, Note_on_c, 0, 73, 0
2, 32932, Note_on_c, 0, 51, 39
2, 33081, Note_on_c, 0, 55, 41
2, 33104, Control_c, 0, 64, 97
2, 33122, Note_on_c, 0, 73, 58
2, 33124, Control_c, 0, 64, 74
2, 33143, Control_c, 0, 64, 58
2, 33151, Note_on_c, 0, 71, 0
2, 33162, Control_c, 0, 64, 0
2, 33412, Control_c, 0, 64, 47
2, 33431, Control_c, 0, 64, 62
2, 33450, Control_c, 0, 64, 65
2, 33470, Control_c, 0, 64, 67
2, 33489, Control_c, 0, 64, 70
2, 33508, Control_c, 0, 64, 77
2, 33527, Control_c, 0, 64, 94
2, 33547, Control_c, 0, 64, 127
2, 33604, Note_on_c, 0, 43, 0
2, 33724, Note_on_c, 0, 55, 0
2, 33811, Note_on_c, 0, 51, 0
2, 33936, Note_on_c, 0, 46, 0
2, 34003, Note_on_c, 0, 73, 0
2, 34337, Note_on_c, 0, 70, 56
2, 34440, Note_on_c, 0, 70, 0
2, 34477, Note_on_c, 0, 44, 37
2, 34567, Note_on_c, 0, 47, 33
2, 34641, Note_on_c, 0, 51, 35
2, 34694, Note_on_c, 0, 56, 39
2, 34736, Control_c, 0, 64, 104
2, 34756, Control_c, 0, 64, 74
2, 34775, Control_c, 0, 64, 62
2, 34780, Note_on_c, 0, 73, 38
2, 34794, Control_c, 0, 64, 36
2, 34813, Control_c, 0, 64, 0
2, 34828, Note_on_c, 0, 73, 0
2, 34833, Control_c, 0, 64, 27
2, 34852, Control_c, 0, 64, 50
2, 34867, Note_on_c, 0, 71, 47
2, 34871, Control_c, 0, 64, 61
2, 34890, Control_c, 0, 64, 64
2, 34910, Control_c, 0, 64, 67
2, 34922, Note_on_c, 0, 71, 0
2, 34929, Control_c, 0, 64, 68
2, 34948, Control_c, 0, 64, 69
2, 34949, Note_on_c, 0, 73, 52
2, 35000, Note_on_c, 0, 73, 0
2, 35024, Control_c, 0, 64, 70
2, 35047, Note_on_c, 0, 71, 50
2, 35082, Control_c, 0, 64, 69
2, 35101, Control_c, 0, 64, 68
2, 35110, Note_on_c, 0, 71, 0
2, 35121, Control_c, 0, 64, 67
2, 35124, Note_on_c, 0, 73, 49
2, 35139, Control_c, 0, 64, 65
2, 35159, Control_c, 0, 64, 62
2, 35178, Control_c, 0, 64, 54
2, 35188, Note_on_c, 0, 73, 0
2, 35198, Control_c, 0, 64, 31
2, 35216, Control_c, 0, 64, 0
2, 35228, Note_on_c, 0, 71, 58
2, 35286, Note_on_c, 0, 71, 0
2, 35309, Note_on_c, 0, 73, 53
2, 35361, Note_on_c, 0, 73, 0
2, 35403, Note_on_c, 0, 71, 51
2, 35465, Note_on_c, 0, 71, 0
2, 35473, Note_on_c, 0, 73, 55
2, 35555, Note_on_c, 0, 73, 0
2, 35595, Note_on_c, 0, 71, 55
2, 35650, Note_on_c, 0, 71, 0
2, 35677, Note_on_c, 0, 73, 48
2, 35734, Note_on_c, 0, 73, 0
2, 35768, Note_on_c, 0, 71, 54
2, 35886, Note_on_c, 0, 70, 52
2, 35924, Note_on_c, 0, 71, 0
2, 35929, Control_c, 0, 64, 37
2, 35949, Control_c, 0, 64, 57
2, 35967, Control_c, 0, 64, 63
2, 35985, Control_c, 0, 64, 66
2, 36005, Control_c, 0, 64, 71
2, 36024, Control_c, 0, 64, 80
2, 36043, Control_c, 0, 64, 93
2, 36062, Control_c, 0, 64, 127
2, 36098, Note_on_c, 0, 68, 54
2, 36111, Note_on_c, 0, 70, 0
2, 36130, Note_on_c, 0, 68, 0
2, 36356, Note_on_c, 0, 75, 31
2, 36408, Note_on_c, 0, 80, 52
2, 36425, Note_on_c, 0, 44, 0
2, 36448, Note_on_c, 0, 47, 0
2, 36469, Note_on_c, 0, 83, 52
2, 36474, Note_on_c, 0, 56, 0
2, 36489, Note_on_c, 0, 51, 0
2, 36522, Control_c, 0, 64, 89
2, 36541, Control_c, 0, 64, 71
2, 36561, Control_c, 0, 64, 51
2, 36579, Control_c, 0, 64, 0
2, 37136, Control_c, 0, 64, 42
2, 37156, Control_c, 0, 64, 56
2, 37175, Control_c, 0, 64, 61
2, 37195, Control_c, 0, 64, 63
2, 37213, Control_c, 0, 64, 65
2, 37233, Control_c, 0, 64, 67
2, 37252, Control_c, 0, 64, 69
2, 37271, Control_c, 0, 64, 73
2, 37290, Control_c, 0, 64, 80
2, 37310, Control_c, 0, 64, 88
2, 37329, Control_c, 0, 64, 99
2, 37348, Control_c, 0, 64, 123
2, 37367, Control_c, 0, 64, 127
2, 37719, Note_on_c, 0, 75, 0
2, 37762, Note_on_c, 0, 80, 0
2, 37771, Note_on_c, 0, 83, 0
2, 37780, Note_on_c, 0, 71, 39
2, 38129, Note_on_c, 0, 75, 26
2, 38176, Note_on_c, 0, 80, 43
2, 38231, Note_on_c, 0, 68, 41
2, 38238, Note_on_c, 0, 83, 53
2, 38325, Note_on_c, 0, 71, 0
2, 38346, Control_c, 0, 64, 94
2, 38365, Control_c, 0, 64, 72
2, 38384, Control_c, 0, 64, 52
2, 38404, Control_c, 0, 64, 0
2, 38519, Control_c, 0, 64, 43
2, 38538, Control_c, 0, 64, 59
2, 38558, Control_c, 0, 64, 64
2, 38576, Control_c, 0, 64, 67
2, 38596, Control_c, 0, 64, 70
2, 38615, Control_c, 0, 64, 77
2, 38635, Control_c, 0, 64, 86
2, 38653, Control_c, 0, 64, 98
2, 38673, Control_c, 0, 64, 127
2, 38848, Note_on_c, 0, 68, 0
2, 39063, Note_on_c, 0, 75, 0
2, 39144, Note_on_c, 0, 80, 0
2, 39163, Note_on_c, 0, 83, 0
2, 39554, Note_on_c, 0, 65, 37
2, 39939, Note_on_c, 0, 77, 35
2, 39985, Note_on_c, 0, 80, 46
2, 40033, Note_on_c, 0, 62, 33
2, 40066, Note_on_c, 0, 83, 53
2, 40108, Note_on_c, 0, 65, 0
2, 40113, Control_c, 0, 64, 106
2, 40132, Control_c, 0, 64, 78
2, 40151, Control_c, 0, 64, 63
2, 40170, Control_c, 0, 64, 0
2, 40324, Control_c, 0, 64, 41
2, 40343, Control_c, 0, 64, 58
2, 40362, Control_c, 0, 64, 64
2, 40381, Control_c, 0, 64, 66
2, 40401, Control_c, 0, 64, 70
2, 40419, Control_c, 0, 64, 77
2, 40439, Control_c, 0, 64, 88
2, 40458, Control_c, 0, 64, 106
2, 40478, Control_c, 0, 64, 127
2, 40695, Note_on_c, 0, 62, 0
2, 41109, Note_on_c, 0, 77, 0
2, 41160, Note_on_c, 0, 83, 0
2, 41186, Note_on_c, 0, 80, 0
2, 41565, Note_on_c, 0, 62, 31
2, 41660, Note_on_c, 0, 65, 29
2, 41742, Note_on_c, 0, 70, 42
2, 41784, Control_c, 0, 64, 89
2, 41803, Control_c, 0, 64, 70
2, 41822, Control_c, 0, 64, 55
2, 41842, Control_c, 0, 64, 0
2, 41995, Control_c, 0, 64, 44
2, 42014, Control_c, 0, 64, 60
2, 42034, Control_c, 0, 64, 65
2, 42053, Control_c, 0, 64, 70
2, 42072, Control_c, 0, 64, 77
2, 42091, Control_c, 0, 64, 90
2, 42111, Control_c, 0, 64, 112
2, 42129, Control_c, 0, 64, 127
2, 42327, Note_on_c, 0, 70, 0
2, 42444, Note_on_c, 0, 62, 0
2, 42522, Note_on_c, 0, 65, 0
2, 42808, Note_on_c, 0, 82, 48
2, 43030, Note_on_c, 0, 80, 55
2, 43192, Note_on_c, 0, 78, 55
2, 43197, Note_on_c, 0, 82, 0
2, 43218, Note_on_c, 0, 62, 33
2, 43240, Note_on_c, 0, 80, 0
2, 43288, Note_on_c, 0, 65, 32
2, 43416, Control_c, 0, 64, 88
2, 43421, Note_on_c, 0, 70, 39
2, 43435, Control_c, 0, 64, 68
2, 43441, Note_on_c, 0, 77, 44
2, 43444, Note_on_c, 0, 78, 0
2, 43454, Control_c, 0, 64, 52
2, 43474, Control_c, 0, 64, 0
2, 43531, Control_c, 0, 64, 32
2, 43551, Control_c, 0, 64, 55
2, 43569, Control_c, 0, 64, 63
2, 43589, Control_c, 0, 64, 66
2, 43608, Control_c, 0, 64, 68
2, 43627, Control_c, 0, 64, 70
2, 43635, Note_on_c, 0, 78, 51
2, 43646, Control_c, 0, 64, 74
2, 43660, Note_on_c, 0, 77, 0
2, 43665, Control_c, 0, 64, 78
2, 43685, Control_c, 0, 64, 82
2, 43704, Control_c, 0, 64, 87
2, 43723, Control_c, 0, 64, 90
2, 43742, Control_c, 0, 64, 92
2, 43762, Control_c, 0, 64, 93
2, 43800, Control_c, 0, 64, 93
2, 43823, Note_on_c, 0, 77, 58
2, 43851, Note_on_c, 0, 78, 0
2, 43896, Control_c, 0, 64, 92
2, 43915, Control_c, 0, 64, 90
2, 43934, Control_c, 0, 64, 87
2, 43954, Control_c, 0, 64, 83
2, 43973, Control_c, 0, 64, 77
2, 43992, Control_c, 0, 64, 68
2, 44011, Control_c, 0, 64, 60
2, 44016, Note_on_c, 0, 78, 63
2, 44031, Control_c, 0, 64, 33
2, 44049, Control_c, 0, 64, 0
2, 44081, Note_on_c, 0, 77, 0
2, 44244, Note_on_c, 0, 80, 58
2, 44245, Note_on_c, 0, 78, 0
2, 44437, Note_on_c, 0, 78, 51
2, 44444, Note_on_c, 0, 80, 0
2, 44491, Control_c, 0, 64, 47
2, 44511, Control_c, 0, 64, 57
2, 44529, Control_c, 0, 64, 62
2, 44549, Control_c, 0, 64, 64
2, 44568, Control_c, 0, 64, 66
2, 44583, Note_on_c, 0, 62, 0
2, 44587, Control_c, 0, 64, 69
2, 44606, Control_c, 0, 64, 75
2, 44625, Control_c, 0, 64, 84
2, 44625, Note_on_c, 0, 65, 0
2, 44626, Note_on_c, 0, 80, 47
2, 44645, Control_c, 0, 64, 97
2, 44653, Note_on_c, 0, 70, 0
2, 44662, Note_on_c, 0, 78, 0
2, 44664, Control_c, 0, 64, 127
2, 44791, Note_on_c, 0, 80, 0
2, 44816, Note_on_c, 0, 77, 47
2, 44878, Note_on_c, 0, 63, 35
2, 44993, Note_on_c, 0, 66, 30
2, 45067, Control_c, 0, 64, 118
2, 45067, Note_on_c, 0, 80, 52
2, 45086, Control_c, 0, 64, 85
2, 45098, Note_on_c, 0, 70, 43
2, 45103, Note_on_c, 0, 77, 0
2, 45105, Control_c, 0, 64, 69
2, 45125, Control_c, 0, 64, 56
2, 45141, Note_on_c, 0, 80, 0
2, 45144, Control_c, 0, 64, 19
2, 45163, Control_c, 0, 64, 0
2, 45174, Note_on_c, 0, 78, 48
2, 45182, Control_c, 0, 64, 31
2, 45202, Control_c, 0, 64, 52
2, 45220, Control_c, 0, 64, 62
2, 45240, Control_c, 0, 64, 64
2, 45256, Note_on_c, 0, 78, 0
2, 45259, Control_c, 0, 64, 66
2, 45279, Control_c, 0, 64, 67
2, 45287, Note_on_c, 0, 80, 56
2, 45297, Control_c, 0, 64, 68
2, 45317, Control_c, 0, 64, 70
2, 45336, Control_c, 0, 64, 71
2, 45342, Note_on_c, 0, 80, 0
2, 45355, Control_c, 0, 64, 72
2, 45374, Control_c, 0, 64, 72
2, 45375, Note_on_c, 0, 78, 54
2, 45413, Control_c, 0, 64, 72
2, 45445, Note_on_c, 0, 78, 0
2, 45451, Control_c, 0, 64, 71
2, 45471, Control_c, 0, 64, 70
2, 45474, Note_on_c, 0, 80, 58
2, 45489, Control_c, 0, 64, 69
2, 45509, Control_c, 0, 64, 66
2, 45528, Control_c, 0, 64, 63
2, 45543, Note_on_c, 0, 80, 0
2, 45547, Control_c, 0, 64, 58
2, 45566, Control_c, 0, 64, 42
2, 45570, Note_on_c, 0, 78, 55
2, 45585, Control_c, 0, 64, 0
2, 45642, Note_on_c, 0, 78, 0
2, 45675, Note_on_c, 0, 80, 59
2, 45745, Note_on_c, 0, 80, 0
2, 45767, Note_on_c, 0, 78, 56
2, 45856, Note_on_c, 0, 78, 0
2, 45876, Note_on_c, 0, 80, 62
2, 45941, Note_on_c, 0, 80, 0
2, 45964, Note_on_c, 0, 78, 52
2, 46034, Note_on_c, 0, 78, 0
2, 46067, Note_on_c, 0, 80, 57
2, 46154, Note_on_c, 0, 78, 53
2, 46162, Note_on_c, 0, 80, 0
2, 46270, Note_on_c, 0, 78, 0
2, 46286, Note_on_c, 0, 77, 50
2, 46316, Control_c, 0, 64, 13
2, 46335, Control_c, 0, 64, 51
2, 46355, Control_c, 0, 64, 61
2, 46374, Control_c, 0, 64, 64
2, 46393, Control_c, 0, 64, 66
2, 46412, Control_c, 0, 64, 70
2, 46432, Control_c, 0, 64, 76
2, 46436, Note_on_c, 0, 70, 0
2, 46446, Note_on_c, 0, 77, 0
2, 46450, Control_c, 0, 64, 86
2, 46470, Control_c, 0, 64, 100
2, 46477, Note_on_c, 0, 75, 51
2, 46489, Control_c, 0, 64, 127
2, 46539, Note_on_c, 0, 75, 0
2, 46585, Note_on_c, 0, 66, 0
2, 46632, Note_on_c, 0, 63, 0
2, 46722, Note_on_c, 0, 70, 34
2, 46774, Note_on_c, 0, 75, 49
2, 46837, Note_on_c, 0, 78, 42
2, 46914, Note_on_c, 0, 82, 52
2, 46969, Control_c, 0, 64, 96
2, 46989, Control_c, 0, 64, 76
2, 47007, Control_c, 0, 64, 60
2, 47026, Control_c, 0, 64, 0
2, 47276, Control_c, 0, 64, 50
2, 47295, Control_c, 0, 64, 60
2, 47315, Control_c, 0, 64, 63
2, 47334, Control_c, 0, 64, 65
2, 47353, Control_c, 0, 64, 68
2, 47372, Control_c, 0, 64, 74
2, 47392, Control_c, 0, 64, 85
2, 47410, Control_c, 0, 64, 101
2, 47430, Control_c, 0, 64, 127
2, 47600, Note_on_c, 0, 70, 0
2, 47724, Note_on_c, 0, 75, 0
2, 47775, Note_on_c, 0, 82, 0
2, 47790, Note_on_c, 0, 78, 0
2, 48238, Note_on_c, 0, 66, 43
2, 48568, Note_on_c, 0, 73, 36
2, 48624, Note_on_c, 0, 75, 44
2, 48684, Note_on_c, 0, 78, 42
2, 48714, Note_on_c, 0, 63, 44
2, 48726, Note_on_c, 0, 82, 62
2, 48785, Note_on_c, 0, 66, 0
2, 48809, Control_c, 0, 64, 102
2, 48828, Control_c, 0, 64, 75
2, 48848, Control_c, 0, 64, 59
2, 48866, Control_c, 0, 64, 0
2, 49001, Control_c, 0, 64, 47
2, 49020, Control_c, 0, 64, 61
2, 49040, Control_c, 0, 64, 65
2, 49059, Control_c, 0, 64, 68
2, 49078, Control_c, 0, 64, 74
2, 49097, Control_c, 0, 64, 85
2, 49117, Control_c, 0, 64, 105
2, 49135, Control_c, 0, 64, 127
2, 49240, Note_on_c, 0, 73, 0
2, 49319, Note_on_c, 0, 63, 0
2, 49445, Note_on_c, 0, 75, 0
2, 49467, Note_on_c, 0, 78, 0
2, 49494, Note_on_c, 0, 82, 0
2, 50001, Note_on_c, 0, 60, 57
2, 50347, Note_on_c, 0, 72, 51
2, 50414, Note_on_c, 0, 75, 60
2, 50483, Note_on_c, 0, 78, 55
2, 50502, Note_on_c, 0, 57, 43
2, 50527, Note_on_c, 0, 60, 0
2, 50548, Note_on_c, 0, 84, 75
2, 50634, Control_c, 0, 64, 107
2, 50652, Control_c, 0, 64, 78
2, 50672, Control_c, 0, 64, 61
2, 50691, Control_c, 0, 64, 0
2, 50806, Control_c, 0, 64, 38
2, 50825, Control_c, 0, 64, 60
2, 50844, Control_c, 0, 64, 65
2, 50863, Control_c, 0, 64, 71
2, 50883, Control_c, 0, 64, 81
2, 50902, Control_c, 0, 64, 101
2, 50921, Control_c, 0, 64, 127
2, 51147, Note_on_c, 0, 72, 0
2, 51234, Note_on_c, 0, 57, 0
2, 51307, Note_on_c, 0, 75, 0
2, 51404, Note_on_c, 0, 84, 0
2, 51424, Note_on_c, 0, 78, 0
2, 52036, Note_on_c, 0, 57, 34
2, 52111, Note_on_c, 0, 60, 43
2, 52196, Note_on_c, 0, 65, 44
2, 52246, Control_c, 0, 64, 101
2, 52265, Control_c, 0, 64, 76
2, 52284, Control_c, 0, 64, 59
2, 52303, Control_c, 0, 64, 0
2, 52438, Control_c, 0, 64, 52
2, 52457, Control_c, 0, 64, 62
2, 52477, Control_c, 0, 64, 66
2, 52495, Control_c, 0, 64, 69
2, 52515, Control_c, 0, 64, 77
2, 52534, Control_c, 0, 64, 89
2, 52554, Control_c, 0, 64, 112
2, 52572, Control_c, 0, 64, 127
2, 52729, Note_on_c, 0, 65, 0
2, 52769, Note_on_c, 0, 57, 0
2, 52867, Note_on_c, 0, 60, 0
2, 53317, Note_on_c, 0, 77, 47
2, 53530, Note_on_c, 0, 75, 58
2, 53540, Note_on_c, 0, 77, 0
2, 53695, Note_on_c, 0, 73, 60
2, 53734, Note_on_c, 0, 57, 31
2, 53744, Note_on_c, 0, 75, 0
2, 53815, Note_on_c, 0, 60, 33
2, 53878, Control_c, 0, 64, 95
2, 53897, Control_c, 0, 64, 72
2, 53917, Control_c, 0, 64, 59
2, 53933, Note_on_c, 0, 65, 21
2, 53935, Control_c, 0, 64, 0
2, 53938, Note_on_c, 0, 73, 0
2, 53941, Note_on_c, 0, 72, 52
2, 53994, Control_c, 0, 64, 27
2, 54012, Control_c, 0, 64, 53
2, 54032, Control_c, 0, 64, 62
2, 54051, Control_c, 0, 64, 65
2, 54069, Control_c, 0, 64, 66
2, 54089, Control_c, 0, 64, 68
2, 54108, Control_c, 0, 64, 69
2, 54128, Control_c, 0, 64, 71
2, 54141, Note_on_c, 0, 73, 51
2, 54146, Control_c, 0, 64, 73
2, 54146, Note_on_c, 0, 72, 0
2, 54166, Control_c, 0, 64, 75
2, 54185, Control_c, 0, 64, 76
2, 54219, Control_c, 0, 64, 76
2, 54238, Control_c, 0, 64, 75
2, 54257, Control_c, 0, 64, 75
2, 54277, Control_c, 0, 64, 74
2, 54295, Control_c, 0, 64, 71
2, 54315, Control_c, 0, 64, 66
2, 54328, Note_on_c, 0, 72, 56
2, 54334, Control_c, 0, 64, 60
2, 54346, Note_on_c, 0, 73, 0
2, 54354, Control_c, 0, 64, 40
2, 54372, Control_c, 0, 64, 0
2, 54513, Note_on_c, 0, 73, 59
2, 54571, Note_on_c, 0, 72, 0
2, 54730, Note_on_c, 0, 73, 0
2, 54737, Note_on_c, 0, 75, 53
2, 54925, Note_on_c, 0, 73, 48
2, 54926, Note_on_c, 0, 75, 0
2, 54972, Control_c, 0, 64, 9
2, 54992, Control_c, 0, 64, 47
2, 55011, Control_c, 0, 64, 58
2, 55029, Control_c, 0, 64, 62
2, 55049, Control_c, 0, 64, 64
2, 55068, Control_c, 0, 64, 66
2, 55088, Control_c, 0, 64, 70
2, 55089, Note_on_c, 0, 57, 0
2, 55106, Control_c, 0, 64, 75
2, 55119, Note_on_c, 0, 60, 0
2, 55120, Note_on_c, 0, 75, 50
2, 55126, Control_c, 0, 64, 85
2, 55133, Note_on_c, 0, 73, 0
2, 55145, Control_c, 0, 64, 94
2, 55155, Note_on_c, 0, 65, 0
2, 55165, Control_c, 0, 64, 103
2, 55183, Control_c, 0, 64, 110
2, 55204, Control_c, 0, 64, 112
2, 55223, Control_c, 0, 64, 113
2, 55242, Control_c, 0, 64, 114
2, 55261, Control_c, 0, 64, 116
2, 55281, Control_c, 0, 64, 118
2, 55287, Note_on_c, 0, 75, 0
2, 55314, Note_on_c, 0, 72, 47
2, 55361, Note_on_c, 0, 58, 35
2, 55477, Note_on_c, 0, 61, 29
2, 55530, Control_c, 0, 64, 102
2, 55549, Control_c, 0, 64, 86
2, 55549, Note_on_c, 0, 75, 52
2, 55559, Note_on_c, 0, 65, 34
2, 55569, Control_c, 0, 64, 72
2, 55588, Control_c, 0, 64, 63
2, 55595, Note_on_c, 0, 72, 0
2, 55608, Control_c, 0, 64, 49
2, 55627, Control_c, 0, 64, 42
2, 55639, Note_on_c, 0, 75, 0
2, 55646, Control_c, 0, 64, 50
2, 55661, Note_on_c, 0, 73, 49
2, 55665, Control_c, 0, 64, 57
2, 55685, Control_c, 0, 64, 62
2, 55704, Control_c, 0, 64, 64
2, 55723, Control_c, 0, 64, 66
2, 55742, Control_c, 0, 64, 68
2, 55753, Note_on_c, 0, 73, 0
2, 55762, Control_c, 0, 64, 70
2, 55780, Control_c, 0, 64, 73
2, 55786, Note_on_c, 0, 75, 54
2, 55800, Control_c, 0, 64, 76
2, 55819, Control_c, 0, 64, 80
2, 55839, Control_c, 0, 64, 83
2, 55840, Note_on_c, 0, 75, 0
2, 55857, Control_c, 0, 64, 83
2, 55858, Note_on_c, 0, 73, 51
2, 55896, Control_c, 0, 64, 83
2, 55915, Control_c, 0, 64, 82
2, 55934, Control_c, 0, 64, 81
2, 55942, Note_on_c, 0, 73, 0
2, 55954, Control_c, 0, 64, 77
2, 55956, Note_on_c, 0, 75, 59
2, 55973, Control_c, 0, 64, 71
2, 55992, Control_c, 0, 64, 65
2, 56011, Control_c, 0, 64, 55
2, 56027, Note_on_c, 0, 75, 0
2, 56031, Control_c, 0, 64, 0
2, 56047, Note_on_c, 0, 73, 52
2, 56129, Note_on_c, 0, 73, 0
2, 56155, Note_on_c, 0, 75, 58
2, 56210, Note_on_c, 0, 75, 0
2, 56236, Note_on_c, 0, 73, 55
2, 56318, Note_on_c, 0, 73, 0
2, 56340, Note_on_c, 0, 75, 60
2, 56401, Note_on_c, 0, 75, 0
2, 56428, Note_on_c, 0, 73, 58
2, 56498, Note_on_c, 0, 73, 0
2, 56532, Note_on_c, 0, 75, 55
2, 56615, Note_on_c, 0, 73, 50
2, 56647, Note_on_c, 0, 75, 0
2, 56738, Note_on_c, 0, 72, 51
2, 56752, Note_on_c, 0, 73, 0
2, 56777, Control_c, 0, 64, 46
2, 56797, Control_c, 0, 64, 59
2, 56815, Control_c, 0, 64, 63
2, 56835, Control_c, 0, 64, 65
2, 56838, Note_on_c, 0, 65, 0
2, 56853, Note_on_c, 0, 61, 0
2, 56854, Control_c, 0, 64, 66
2, 56856, Note_on_c, 0, 58, 0
2, 56874, Control_c, 0, 64, 69
2, 56892, Control_c, 0, 64, 74
2, 56912, Control_c, 0, 64, 83
2, 56927, Note_on_c, 0, 70, 53
2, 56931, Control_c, 0, 64, 95
2, 56936, Note_on_c, 0, 72, 0
2, 56949, Control_c, 0, 64, 116
2, 56969, Control_c, 0, 64, 127
2, 56975, Note_on_c, 0, 70, 0
2, 57040, Note_on_c, 0, 58, 29
2, 57125, Note_on_c, 0, 70, 44
2, 57165, Note_on_c, 0, 61, 35
2, 57200, Control_c, 0, 64, 94
2, 57203, Note_on_c, 0, 73, 46
2, 57219, Control_c, 0, 64, 73
2, 57235, Note_on_c, 0, 65, 33
2, 57238, Control_c, 0, 64, 58
2, 57257, Control_c, 0, 64, 0
2, 57282, Note_on_c, 0, 77, 47
2, 57491, Control_c, 0, 64, 42
2, 57511, Control_c, 0, 64, 57
2, 57530, Control_c, 0, 64, 62
2, 57549, Control_c, 0, 64, 64
2, 57568, Control_c, 0, 64, 66
2, 57587, Control_c, 0, 64, 69
2, 57607, Control_c, 0, 64, 77
2, 57625, Control_c, 0, 64, 90
2, 57645, Control_c, 0, 64, 121
2, 57664, Control_c, 0, 64, 127
2, 57694, Note_on_c, 0, 77, 0
2, 57792, Note_on_c, 0, 70, 0
2, 57793, Note_on_c, 0, 65, 0
2, 57827, Note_on_c, 0, 73, 0
2, 57991, Note_on_c, 0, 61, 0
2, 58065, Note_on_c, 0, 58, 0
2, 58346, Note_on_c, 0, 78, 49
2, 58483, Note_on_c, 0, 78, 0
2, 58538, Note_on_c, 0, 77, 58
2, 58713, Note_on_c, 0, 75, 64
2, 58721, Note_on_c, 0, 58, 35
2, 58770, Note_on_c, 0, 61, 39
2, 58777, Note_on_c, 0, 77, 0
2, 58931, Note_on_c, 0, 73, 61
2, 58965, Note_on_c, 0, 65, 37
2, 59012, Note_on_c, 0, 75, 0
2, 59063, Control_c, 0, 64, 101
2, 59082, Control_c, 0, 64, 85
2, 59101, Control_c, 0, 64, 74
2, 59121, Control_c, 0, 64, 64
2, 59136, Note_on_c, 0, 73, 0
2, 59139, Control_c, 0, 64, 50
2, 59153, Note_on_c, 0, 72, 66
2, 59159, Control_c, 0, 64, 0
2, 59349, Note_on_c, 0, 70, 63
2, 59405, Note_on_c, 0, 72, 0
2, 59560, Note_on_c, 0, 68, 63
2, 59625, Note_on_c, 0, 70, 0
2, 59832, Note_on_c, 0, 66, 50
2, 59875, Note_on_c, 0, 68, 0
2, 60015, Note_on_c, 0, 65, 0
2, 60024, Control_c, 0, 64, 23
2, 60043, Control_c, 0, 64, 49
2, 60062, Control_c, 0, 64, 58
2, 60082, Control_c, 0, 64, 63
2, 60100, Control_c, 0, 64, 65
2, 60120, Control_c, 0, 64, 67
2, 60133, Note_on_c, 0, 61, 0
2, 60139, Control_c, 0, 64, 71
2, 60159, Control_c, 0, 64, 76
2, 60171, Note_on_c, 0, 58, 0
2, 60177, Control_c, 0, 64, 84
2, 60197, Control_c, 0, 64, 94
2, 60216, Control_c, 0, 64, 110
2, 60235, Control_c, 0, 64, 127
2, 60251, Note_on_c, 0, 68, 50
2, 60352, Note_on_c, 0, 66, 0
2, 60447, Note_on_c, 0, 68, 0
2, 60462, Note_on_c, 0, 65, 41
2, 60520, Note_on_c, 0, 51, 37
2, 60634, Note_on_c, 0, 58, 34
2, 60855, Note_on_c, 0, 66, 43
2, 60857, Note_on_c, 0, 61, 34
2, 60881, Note_on_c, 0, 63, 38
2, 60907, Control_c, 0, 64, 93
2, 60926, Control_c, 0, 64, 74
2, 60945, Control_c, 0, 64, 60
2, 60954, Note_on_c, 0, 65, 0
2, 60964, Control_c, 0, 64, 0
2, 61175, Control_c, 0, 64, 56
2, 61195, Control_c, 0, 64, 62
2, 61213, Control_c, 0, 64, 64
2, 61233, Control_c, 0, 64, 66
2, 61252, Control_c, 0, 64, 69
2, 61270, Control_c, 0, 64, 75
2, 61290, Control_c, 0, 64, 85
2, 61309, Control_c, 0, 64, 107
2, 61329, Control_c, 0, 64, 127
2, 61354, Note_on_c, 0, 61, 0
2, 61447, Note_on_c, 0, 66, 0
2, 61487, Note_on_c, 0, 51, 0
2, 61628, Note_on_c, 0, 58, 0
2, 62132, Note_on_c, 0, 63, 0
2, 62176, Note_on_c, 0, 70, 58
2, 62362, Note_on_c, 0, 51, 29
2, 62372, Note_on_c, 0, 73, 68
2, 62440, Note_on_c, 0, 70, 0
2, 62464, Note_on_c, 0, 58, 44
2, 62663, Note_on_c, 0, 60, 36
2, 62674, Note_on_c, 0, 78, 60
2, 62730, Control_c, 0, 64, 85
2, 62731, Note_on_c, 0, 73, 0
2, 62749, Control_c, 0, 64, 67
2, 62769, Control_c, 0, 64, 36
2, 62787, Control_c, 0, 64, 0
2, 62941, Control_c, 0, 64, 26
2, 62961, Control_c, 0, 64, 58
2, 62979, Control_c, 0, 64, 64
2, 62999, Control_c, 0, 64, 66
2, 63018, Control_c, 0, 64, 70
2, 63038, Control_c, 0, 64, 77
2, 63056, Control_c, 0, 64, 91
2, 63076, Control_c, 0, 64, 127
2, 63194, Note_on_c, 0, 60, 0
2, 63219, Note_on_c, 0, 51, 0
2, 63298, Note_on_c, 0, 58, 0
2, 63359, Note_on_c, 0, 78, 0
2, 63789, Note_on_c, 0, 77, 50
2, 63989, Note_on_c, 0, 75, 64
2, 64047, Note_on_c, 0, 77, 0
2, 64128, Note_on_c, 0, 51, 33
2, 64165, Note_on_c, 0, 73, 67
2, 64233, Note_on_c, 0, 58, 36
2, 64240, Note_on_c, 0, 75, 0
2, 64417, Control_c, 0, 64, 102
2, 64425, Note_on_c, 0, 60, 40
2, 64436, Control_c, 0, 64, 80
2, 64441, Note_on_c, 0, 72, 60
2, 64455, Control_c, 0, 64, 66
2, 64464, Note_on_c, 0, 73, 0
2, 64475, Control_c, 0, 64, 0
2, 64666, Control_c, 0, 64, 43
2, 64686, Control_c, 0, 64, 61
2, 64704, Control_c, 0, 64, 65
2, 64724, Control_c, 0, 64, 67
2, 64743, Control_c, 0, 64, 69
2, 64763, Control_c, 0, 64, 73
2, 64781, Control_c, 0, 64, 79
2, 64802, Control_c, 0, 64, 87
2, 64821, Control_c, 0, 64, 98
2, 64840, Control_c, 0, 64, 116
2, 64859, Control_c, 0, 64, 127
2, 65010, Note_on_c, 0, 72, 0
2, 65055, Note_on_c, 0, 75, 56
2, 65155, Note_on_c, 0, 73, 56
2, 65204, Note_on_c, 0, 75, 0
2, 65244, Control_c, 0, 64, 103
2, 65262, Control_c, 0, 64, 77
2, 65264, Note_on_c, 0, 72, 66
2, 65282, Control_c, 0, 64, 63
2, 65300, Note_on_c, 0, 73, 0
2, 65301, Control_c, 0, 64, 0
2, 65397, Control_c, 0, 64, 26
2, 65416, Control_c, 0, 64, 53
2, 65436, Control_c, 0, 64, 63
2, 65450, Note_on_c, 0, 60, 0
2, 65454, Control_c, 0, 64, 66
2, 65471, Note_on_c, 0, 73, 66
2, 65474, Control_c, 0, 64, 69
2, 65493, Control_c, 0, 64, 73
2, 65513, Control_c, 0, 64, 80
2, 65515, Note_on_c, 0, 72, 0
2, 65521, Note_on_c, 0, 58, 0
2, 65531, Control_c, 0, 64, 88
2, 65550, Control_c, 0, 64, 99
2, 65554, Note_on_c, 0, 51, 0
2, 65570, Control_c, 0, 64, 123
2, 65589, Control_c, 0, 64, 127
2, 65704, Note_on_c, 0, 75, 74
2, 65730, Note_on_c, 0, 73, 0
2, 65833, Note_on_c, 0, 75, 0
2, 66164, Note_on_c, 0, 57, 28
2, 66180, Note_on_c, 0, 51, 33
2, 66202, Note_on_c, 0, 60, 32
2, 66235, Note_on_c, 0, 65, 47
2, 66267, Control_c, 0, 64, 118
2, 66285, Control_c, 0, 64, 86
2, 66305, Control_c, 0, 64, 68
2, 66324, Control_c, 0, 64, 39
2, 66344, Control_c, 0, 64, 0
2, 66459, Control_c, 0, 64, 52
2, 66478, Control_c, 0, 64, 63
2, 66497, Control_c, 0, 64, 68
2, 66516, Control_c, 0, 64, 74
2, 66536, Control_c, 0, 64, 84
2, 66555, Control_c, 0, 64, 105
2, 66573, Control_c, 0, 64, 127
2, 66740, Note_on_c, 0, 65, 0
2, 66839, Note_on_c, 0, 67, 43
2, 66937, Note_on_c, 0, 69, 59
2, 66950, Note_on_c, 0, 67, 0
2, 66976, Note_on_c, 0, 69, 0
2, 67112, Note_on_c, 0, 70, 55
2, 67131, Control_c, 0, 64, 100
2, 67151, Control_c, 0, 64, 78
2, 67170, Control_c, 0, 64, 66
2, 67185, Note_on_c, 0, 70, 0
2, 67189, Control_c, 0, 64, 58
2, 67208, Control_c, 0, 64, 54
2, 67210, Note_on_c, 0, 69, 59
2, 67228, Control_c, 0, 64, 59
2, 67246, Control_c, 0, 64, 63
2, 67266, Control_c, 0, 64, 66
2, 67285, Control_c, 0, 64, 70
2, 67297, Note_on_c, 0, 69, 0
2, 67305, Control_c, 0, 64, 74
2, 67323, Control_c, 0, 64, 79
2, 67324, Note_on_c, 0, 70, 63
2, 67343, Control_c, 0, 64, 84
2, 67362, Control_c, 0, 64, 86
2, 67380, Note_on_c, 0, 70, 0
2, 67400, Control_c, 0, 64, 85
2, 67402, Note_on_c, 0, 69, 60
2, 67420, Control_c, 0, 64, 85
2, 67433, Note_on_c, 0, 60, 0
2, 67439, Control_c, 0, 64, 84
2, 67458, Control_c, 0, 64, 82
2, 67461, Note_on_c, 0, 69, 0
2, 67477, Control_c, 0, 64, 77
2, 67497, Control_c, 0, 64, 71
2, 67501, Note_on_c, 0, 70, 62
2, 67515, Control_c, 0, 64, 63
2, 67516, Note_on_c, 0, 57, 0
2, 67534, Control_c, 0, 64, 47
2, 67554, Control_c, 0, 64, 0
2, 67564, Note_on_c, 0, 70, 0
2, 67573, Note_on_c, 0, 69, 64
2, 67672, Note_on_c, 0, 67, 60
2, 67675, Note_on_c, 0, 69, 0
2, 67691, Note_on_c, 0, 49, 24
2, 67771, Note_on_c, 0, 51, 0
2, 67793, Note_on_c, 0, 69, 59
2, 67801, Note_on_c, 0, 53, 34
2, 67821, Note_on_c, 0, 67, 0
2, 68005, Note_on_c, 0, 58, 38
2, 68036, Note_on_c, 0, 70, 56
2, 68063, Note_on_c, 0, 69, 0
2, 68336, Control_c, 0, 64, 22
2, 68355, Control_c, 0, 64, 49
2, 68374, Control_c, 0, 64, 59
2, 68394, Control_c, 0, 64, 63
2, 68412, Control_c, 0, 64, 66
2, 68432, Control_c, 0, 64, 69
2, 68451, Control_c, 0, 64, 74
2, 68470, Control_c, 0, 64, 86
2, 68489, Control_c, 0, 64, 101
2, 68509, Control_c, 0, 64, 127
2, 68664, Note_on_c, 0, 49, 0
2, 68812, Note_on_c, 0, 58, 0
2, 68991, Note_on_c, 0, 53, 0
2, 69374, Note_on_c, 0, 65, 44
2, 69781, Note_on_c, 0, 51, 34
2, 69805, Note_on_c, 0, 58, 29
2, 69820, Note_on_c, 0, 66, 50
2, 69871, Control_c, 0, 64, 96
2, 69890, Control_c, 0, 64, 71
2, 69908, Note_on_c, 0, 65, 0
2, 69910, Control_c, 0, 64, 48
2, 69928, Control_c, 0, 64, 0
2, 70044, Control_c, 0, 64, 27
2, 70063, Control_c, 0, 64, 54
2, 70082, Control_c, 0, 64, 62
2, 70102, Control_c, 0, 64, 66
2, 70120, Control_c, 0, 64, 71
2, 70140, Control_c, 0, 64, 78
2, 70159, Control_c, 0, 64, 88
2, 70179, Control_c, 0, 64, 101
2, 70197, Control_c, 0, 64, 127
2, 70226, Note_on_c, 0, 58, 0
2, 70470, Note_on_c, 0, 66, 0
2, 70728, Note_on_c, 0, 51, 0
2, 71135, Note_on_c, 0, 63, 53
2, 71299, Note_on_c, 0, 63, 0
2, 71671, Note_on_c, 0, 53, 36
2, 71700, Note_on_c, 0, 61, 53
2, 71810, Control_c, 0, 64, 92
2, 71830, Control_c, 0, 64, 70
2, 71848, Control_c, 0, 64, 47
2, 71868, Control_c, 0, 64, 0
2, 71985, Control_c, 0, 64, 39
2, 72004, Control_c, 0, 64, 59
2, 72024, Control_c, 0, 64, 64
2, 72042, Control_c, 0, 64, 68
2, 72062, Control_c, 0, 64, 74
2, 72081, Control_c, 0, 64, 83
2, 72100, Control_c, 0, 64, 96
2, 72119, Control_c, 0, 64, 127
2, 72215, Control_c, 0, 64, 91
2, 72224, Note_on_c, 0, 60, 45
2, 72235, Control_c, 0, 64, 71
2, 72253, Control_c, 0, 64, 57
2, 72273, Control_c, 0, 64, 0
2, 72277, Note_on_c, 0, 61, 0
2, 72465, Control_c, 0, 64, 35
2, 72484, Control_c, 0, 64, 57
2, 72504, Control_c, 0, 64, 64
2, 72522, Control_c, 0, 64, 68
2, 72542, Control_c, 0, 64, 76
2, 72561, Control_c, 0, 64, 91
2, 72580, Control_c, 0, 64, 127
2, 72777, Note_on_c, 0, 53, 0
2, 72859, Note_on_c, 0, 61, 50
2, 72860, Note_on_c, 0, 60, 0
2, 73057, Note_on_c, 0, 60, 55
2, 73068, Note_on_c, 0, 61, 0
2, 73220, Note_on_c, 0, 61, 66
2, 73282, Note_on_c, 0, 60, 0
2, 73436, Note_on_c, 0, 53, 37
2, 73447, Note_on_c, 0, 41, 35
2, 73514, Note_on_c, 0, 63, 56
2, 73540, Control_c, 0, 64, 82
2, 73540, Note_on_c, 0, 61, 0
2, 73558, Control_c, 0, 64, 60
2, 73578, Control_c, 0, 64, 0
2, 73692, Control_c, 0, 64, 46
2, 73712, Control_c, 0, 64, 59
2, 73728, Note_on_c, 0, 61, 59
2, 73731, Control_c, 0, 64, 63
2, 73750, Control_c, 0, 64, 66
2, 73769, Control_c, 0, 64, 68
2, 73789, Control_c, 0, 64, 70
2, 73808, Control_c, 0, 64, 74
2, 73827, Control_c, 0, 64, 79
2, 73846, Control_c, 0, 64, 84
2, 73851, Note_on_c, 0, 63, 0
2, 73866, Control_c, 0, 64, 87
2, 73885, Control_c, 0, 64, 87
2, 73915, Note_on_c, 0, 61, 0
2, 73919, Note_on_c, 0, 60, 68
2, 73943, Control_c, 0, 64, 87
2, 73961, Control_c, 0, 64, 85
2, 73981, Control_c, 0, 64, 79
2, 74000, Control_c, 0, 64, 72
2, 74020, Control_c, 0, 64, 66
2, 74038, Control_c, 0, 64, 57
2, 74058, Control_c, 0, 64, 11
2, 74077, Control_c, 0, 64, 0
2, 74105, Note_on_c, 0, 61, 67
2, 74117, Note_on_c, 0, 60, 0
2, 74318, Note_on_c, 0, 63, 69
2, 74385, Note_on_c, 0, 61, 0
2, 74506, Note_on_c, 0, 63, 0
2, 74508, Note_on_c, 0, 65, 66
2, 74594, Control_c, 0, 64, 25
2, 74613, Control_c, 0, 64, 53
2, 74633, Control_c, 0, 64, 59
2, 74651, Control_c, 0, 64, 62
2, 74671, Control_c, 0, 64, 63
2, 74690, Control_c, 0, 64, 65
2, 74710, Control_c, 0, 64, 68
2, 74711, Note_on_c, 0, 63, 70
2, 74728, Control_c, 0, 64, 72
2, 74735, Note_on_c, 0, 65, 0
2, 74748, Control_c, 0, 64, 80
2, 74768, Control_c, 0, 64, 90
2, 74787, Control_c, 0, 64, 102
2, 74800, Note_on_c, 0, 70, 0
2, 74806, Control_c, 0, 64, 118
2, 74826, Control_c, 0, 64, 127
2, 74830, Note_on_c, 0, 53, 0
2, 74846, Note_on_c, 0, 41, 0
2, 74910, Note_on_c, 0, 65, 73
2, 74990, Note_on_c, 0, 63, 0
2, 75204, Note_on_c, 0, 41, 37
2, 75207, Note_on_c, 0, 53, 37
2, 75286, Control_c, 0, 64, 121
2, 75303, Note_on_c, 0, 66, 63
2, 75306, Control_c, 0, 64, 116
2, 75315, Note_on_c, 0, 69, 62
2, 75316, Note_on_c, 0, 60, 49
2, 75325, Control_c, 0, 64, 110
2, 75344, Control_c, 0, 64, 97
2, 75354, Note_on_c, 0, 65, 0
2, 75363, Control_c, 0, 64, 79
2, 75383, Control_c, 0, 64, 63
2, 75401, Control_c, 0, 64, 0
2, 75535, Control_c, 0, 64, 31
2, 75555, Control_c, 0, 64, 57
2, 75574, Control_c, 0, 64, 63
2, 75594, Control_c, 0, 64, 65
2, 75612, Control_c, 0, 64, 67
2, 75632, Control_c, 0, 64, 70
2, 75651, Control_c, 0, 64, 76
2, 75670, Control_c, 0, 64, 85
2, 75689, Control_c, 0, 64, 96
2, 75708, Note_on_c, 0, 66, 0
2, 75709, Control_c, 0, 64, 108
2, 75729, Control_c, 0, 64, 127
2, 75975, Note_on_c, 0, 65, 50
2, 76017, Control_c, 0, 64, 123
2, 76017, Note_on_c, 0, 65, 0
2, 76036, Control_c, 0, 64, 107
2, 76045, Note_on_c, 0, 66, 53
2, 76055, Control_c, 0, 64, 90
2, 76075, Control_c, 0, 64, 73
2, 76093, Control_c, 0, 64, 58
2, 76108, Note_on_c, 0, 66, 0
2, 76113, Control_c, 0, 64, 0
2, 76120, Note_on_c, 0, 65, 57
2, 76267, Control_c, 0, 64, 46
2, 76285, Control_c, 0, 64, 61
2, 76305, Control_c, 0, 64, 64
2, 76324, Control_c, 0, 64, 67
2, 76344, Control_c, 0, 64, 71
2, 76362, Control_c, 0, 64, 81
2, 76382, Control_c, 0, 64, 108
2, 76401, Control_c, 0, 64, 127
2, 76429, Note_on_c, 0, 41, 0
2, 76455, Note_on_c, 0, 69, 0
2, 76482, Note_on_c, 0, 60, 0
2, 76495, Note_on_c, 0, 53, 0
2, 76513, Note_on_c, 0, 65, 0
2, 77015, Note_on_c, 0, 63, 48
2, 77034, Control_c, 0, 67, 11
2, 77052, Control_c, 0, 67, 18
2, 77072, Control_c, 0, 67, 27
2, 77091, Control_c, 0, 67, 36
2, 77110, Control_c, 0, 67, 48
2, 77129, Control_c, 0, 67, 65
2, 77149, Control_c, 0, 67, 88
2, 77168, Control_c, 0, 67, 115
2, 77187, Control_c, 0, 67, 127
2, 77364, Note_on_c, 0, 53, 35
2, 77373, Note_on_c, 0, 58, 33
2, 77392, Note_on_c, 0, 46, 33
2, 77398, Control_c, 0, 64, 90
2, 77406, Note_on_c, 0, 70, 47
2, 77418, Control_c, 0, 64, 69
2, 77420, Note_on_c, 0, 61, 31
2, 77437, Control_c, 0, 64, 48
2, 77455, Control_c, 0, 64, 0
2, 77455, Note_on_c, 0, 63, 0
2, 77763, Control_c, 0, 64, 39
2, 77783, Control_c, 0, 64, 53
2, 77801, Control_c, 0, 64, 60
2, 77821, Control_c, 0, 64, 64
2, 77840, Control_c, 0, 64, 67
2, 77860, Control_c, 0, 64, 72
2, 77878, Control_c, 0, 64, 80
2, 77898, Control_c, 0, 64, 93
2, 77917, Control_c, 0, 64, 117
2, 77935, Control_c, 0, 64, 127
2, 77935, Control_c, 0, 67, 127
2, 77955, Control_c, 0, 67, 126
2, 77974, Control_c, 0, 67, 126
2, 78051, Control_c, 0, 67, 125
2, 78068, Note_on_c, 0, 61, 0
2, 78070, Control_c, 0, 67, 124
2, 78089, Control_c, 0, 67, 122
2, 78109, Control_c, 0, 67, 120
2, 78128, Control_c, 0, 67, 118
2, 78143, Note_on_c, 0, 70, 0
2, 78147, Control_c, 0, 67, 117
2, 78166, Control_c, 0, 67, 116
2, 78186, Control_c, 0, 67, 114
2, 78205, Control_c, 0, 67, 112
2, 78224, Control_c, 0, 67, 111
2, 78244, Control_c, 0, 67, 108
2, 78264, Control_c, 0, 67, 103
2, 78282, Control_c, 0, 67, 98
2, 78302, Control_c, 0, 67, 91
2, 78321, Control_c, 0, 67, 84
2, 78341, Control_c, 0, 67, 75
2, 78359, Control_c, 0, 67, 68
2, 78379, Control_c, 0, 67, 63
2, 78398, Control_c, 0, 67, 61
2, 78416, Control_c, 0, 67, 58
2, 78436, Control_c, 0, 67, 54
2, 78455, Control_c, 0, 67, 51
2, 78475, Control_c, 0, 67, 48
2, 78484, Note_on_c, 0, 58, 0
2, 78493, Control_c, 0, 67, 48
2, 78607, Control_c, 0, 67, 48
2, 78665, Control_c, 0, 67, 49
2, 78760, Control_c, 0, 67, 49
2, 78796, Note_on_c, 0, 72, 48
2, 78822, Note_on_c, 0, 63, 30
2, 78870, Note_on_c, 0, 46, 0
2, 78893, Note_on_c, 0, 63, 0
2, 78956, Note_on_c, 0, 72, 0
2, 79010, Control_c, 0, 67, 50
2, 79026, Note_on_c, 0, 53, 0
2, 79172, Note_on_c, 0, 65, 36
2, 79213, Note_on_c, 0, 70, 44
2, 79274, Note_on_c, 0, 73, 50
2, 79336, Control_c, 0, 64, 94
2, 79356, Control_c, 0, 64, 75
2, 79375, Control_c, 0, 64, 63
2, 79394, Control_c, 0, 64, 0
2, 79606, Control_c, 0, 67, 49
2, 79645, Control_c, 0, 64, 18
2, 79664, Control_c, 0, 64, 50
2, 79683, Control_c, 0, 64, 60
2, 79703, Control_c, 0, 64, 64
2, 79721, Control_c, 0, 64, 66
2, 79741, Control_c, 0, 64, 68
2, 79741, Control_c, 0, 67, 49
2, 79760, Control_c, 0, 64, 73
2, 79760, Control_c, 0, 67, 48
2, 79780, Control_c, 0, 64, 79
2, 79780, Control_c, 0, 67, 48
2, 79798, Control_c, 0, 64, 88
2, 79798, Control_c, 0, 67, 47
2, 79818, Control_c, 0, 64, 101
2, 79818, Control_c, 0, 67, 46
2, 79837, Control_c, 0, 64, 127
2, 79837, Control_c, 0, 67, 46
2, 79875, Control_c, 0, 67, 45
2, 79914, Control_c, 0, 67, 44
2, 79932, Control_c, 0, 67, 40
2, 79952, Control_c, 0, 67, 35
2, 79971, Control_c, 0, 67, 29
2, 79990, Control_c, 0, 67, 22
2, 80009, Control_c, 0, 67, 15
2, 80029, Control_c, 0, 67, 10
2, 80048, Control_c, 0, 67, 0
2, 80650, Note_on_c, 0, 46, 38
2, 80650, Note_on_c, 0, 70, 0
2, 80658, Note_on_c, 0, 65, 0
2, 80683, Note_on_c, 0, 73, 0
2, 81012, Note_on_c, 0, 65, 36
2, 81070, Note_on_c, 0, 70, 46
2, 81124, Note_on_c, 0, 73, 60
2, 81125, Note_on_c, 0, 49, 50
2, 81198, Note_on_c, 0, 46, 0
2, 81255, Control_c, 0, 64, 99
2, 81275, Control_c, 0, 64, 76
2, 81294, Control_c, 0, 64, 60
2, 81313, Control_c, 0, 64, 0
2, 81447, Control_c, 0, 64, 48
2, 81467, Control_c, 0, 64, 60
2, 81487, Control_c, 0, 64, 64
2, 81506, Control_c, 0, 64, 66
2, 81525, Control_c, 0, 64, 70
2, 81545, Control_c, 0, 64, 77
2, 81564, Control_c, 0, 64, 87
2, 81583, Control_c, 0, 64, 102
2, 81602, Control_c, 0, 64, 127
2, 82062, Note_on_c, 0, 65, 0
2, 82224, Note_on_c, 0, 70, 0
2, 82251, Note_on_c, 0, 73, 0
2, 82529, Note_on_c, 0, 53, 58
2, 82877, Note_on_c, 0, 64, 43
2, 82953, Note_on_c, 0, 70, 53
2, 82998, Note_on_c, 0, 43, 44
2, 83008, Note_on_c, 0, 73, 61
2, 83032, Note_on_c, 0, 53, 0
2, 83080, Control_c, 0, 64, 91
2, 83099, Control_c, 0, 64, 70
2, 83118, Control_c, 0, 64, 48
2, 83137, Control_c, 0, 64, 0
2, 83146, Note_on_c, 0, 49, 0
2, 83272, Control_c, 0, 64, 26
2, 83290, Control_c, 0, 64, 57
2, 83310, Control_c, 0, 64, 63
2, 83329, Control_c, 0, 64, 66
2, 83349, Control_c, 0, 64, 70
2, 83367, Control_c, 0, 64, 76
2, 83387, Control_c, 0, 64, 88
2, 83409, Control_c, 0, 64, 121
2, 83428, Control_c, 0, 64, 127
2, 84019, Note_on_c, 0, 73, 0
2, 84025, Note_on_c, 0, 70, 0
2, 84296, Note_on_c, 0, 71, 53
2, 84494, Note_on_c, 0, 70, 69
2, 84525, Note_on_c, 0, 71, 0
2, 84557, Note_on_c, 0, 70, 0
2, 84648, Note_on_c, 0, 64, 0
2, 84708, Note_on_c, 0, 70, 60
2, 84784, Note_on_c, 0, 73, 55
2, 84829, Note_on_c, 0, 76, 66
2, 84942, Control_c, 0, 64, 119
2, 84961, Control_c, 0, 64, 83
2, 84981, Control_c, 0, 64, 64
2, 85000, Control_c, 0, 64, 18
2, 85019, Control_c, 0, 64, 0
2, 85891, Note_on_c, 0, 46, 42
2, 85936, Note_on_c, 0, 43, 0
2, 86109, Note_on_c, 0, 44, 64
2, 86165, Note_on_c, 0, 46, 0
2, 86292, Note_on_c, 0, 43, 63
2, 86332, Note_on_c, 0, 44, 0
2, 86590, Note_on_c, 0, 49, 55
2, 86623, Note_on_c, 0, 43, 0
2, 87112, Control_c, 0, 64, 45
2, 87130, Control_c, 0, 64, 58
2, 87150, Control_c, 0, 64, 63
2, 87169, Control_c, 0, 64, 66
2, 87189, Control_c, 0, 64, 71
2, 87207, Control_c, 0, 64, 79
2, 87227, Control_c, 0, 64, 90
2, 87248, Control_c, 0, 64, 104
2, 87267, Control_c, 0, 64, 127
2, 87325, Note_on_c, 0, 76, 0
2, 87352, Note_on_c, 0, 73, 0
2, 87891, Note_on_c, 0, 75, 69
2, 87924, Note_on_c, 0, 70, 0
2, 88094, Note_on_c, 0, 73, 75
2, 88184, Note_on_c, 0, 75, 0
2, 88210, Note_on_c, 0, 73, 0
2, 88251, Note_on_c, 0, 70, 67
2, 88335, Note_on_c, 0, 73, 58
2, 88392, Note_on_c, 0, 79, 79
2, 88513, Control_c, 0, 64, 86
2, 88532, Control_c, 0, 64, 69
2, 88552, Control_c, 0, 64, 46
2, 88570, Control_c, 0, 64, 0
2, 89656, Note_on_c, 0, 47, 63
2, 89750, Note_on_c, 0, 49, 0
2, 89856, Note_on_c, 0, 46, 69
2, 89897, Note_on_c, 0, 47, 0
2, 90188, Note_on_c, 0, 52, 73
2, 90224, Note_on_c, 0, 46, 0
2, 90677, Note_on_c, 0, 51, 74
2, 90732, Note_on_c, 0, 52, 0
2, 91092, Note_on_c, 0, 52, 79
2, 91106, Note_on_c, 0, 51, 0
2, 91492, Note_on_c, 0, 49, 79
2, 91515, Note_on_c, 0, 77, 77
2, 91525, Note_on_c, 0, 52, 0
2, 91526, Note_on_c, 0, 73, 0
2, 91551, Note_on_c, 0, 79, 0
2, 91567, Control_c, 0, 64, 51
2, 91586, Control_c, 0, 64, 62
2, 91605, Control_c, 0, 64, 65
2, 91618, Note_on_c, 0, 70, 0
2, 91625, Control_c, 0, 64, 67
2, 91644, Control_c, 0, 64, 71
2, 91663, Control_c, 0, 64, 79
2, 91683, Control_c, 0, 64, 93
2, 91703, Control_c, 0, 64, 127
2, 91708, Note_on_c, 0, 75, 82
2, 91778, Note_on_c, 0, 77, 0
2, 91829, Note_on_c, 0, 75, 0
2, 91985, Note_on_c, 0, 47, 73
2, 92016, Note_on_c, 0, 49, 0
2, 92032, Note_on_c, 0, 80, 87
2, 92047, Note_on_c, 0, 71, 70
2, 92047, Note_on_c, 0, 75, 72
2, 92086, Control_c, 0, 64, 94
2, 92106, Control_c, 0, 64, 72
2, 92125, Control_c, 0, 64, 48
2, 92144, Control_c, 0, 64, 0
2, 92305, Note_on_c, 0, 46, 70
2, 92365, Note_on_c, 0, 47, 0
2, 92492, Note_on_c, 0, 44, 75
2, 92528, Note_on_c, 0, 46, 0
2, 92705, Note_on_c, 0, 46, 73
2, 92742, Note_on_c, 0, 44, 0
2, 92905, Note_on_c, 0, 47, 75
2, 92936, Note_on_c, 0, 46, 0
2, 93104, Note_on_c, 0, 44, 76
2, 93158, Note_on_c, 0, 47, 0
2, 93310, Note_on_c, 0, 46, 77
2, 93352, Note_on_c, 0, 44, 0
2, 93498, Note_on_c, 0, 47, 77
2, 93512, Note_on_c, 0, 46, 0
2, 93799, Note_on_c, 0, 40, 78
2, 93832, Note_on_c, 0, 47, 0
2, 94258, Note_on_c, 0, 79, 85
2, 94301, Note_on_c, 0, 80, 0
2, 94683, Note_on_c, 0, 80, 80
2, 94769, Note_on_c, 0, 79, 0
2, 94826, Note_on_c, 0, 40, 0
2, 94863, Note_on_c, 0, 52, 70
2, 95098, Note_on_c, 0, 82, 90
2, 95118, Note_on_c, 0, 51, 66
2, 95152, Note_on_c, 0, 52, 0
2, 95157, Note_on_c, 0, 80, 0
2, 95172, Note_on_c, 0, 75, 0
2, 95176, Note_on_c, 0, 71, 0
2, 95215, Control_c, 0, 64, 60
2, 95234, Control_c, 0, 64, 66
2, 95253, Control_c, 0, 64, 71
2, 95273, Control_c, 0, 64, 80
2, 95291, Control_c, 0, 64, 95
2, 95303, Note_on_c, 0, 82, 0
2, 95311, Control_c, 0, 64, 127
2, 95311, Note_on_c, 0, 49, 78
2, 95329, Note_on_c, 0, 51, 0
2, 95589, Note_on_c, 0, 51, 69
2, 95625, Note_on_c, 0, 83, 81
2, 95628, Note_on_c, 0, 79, 71
2, 95635, Note_on_c, 0, 49, 0
2, 95637, Note_on_c, 0, 75, 70
2, 95655, Control_c, 0, 64, 93
2, 95675, Control_c, 0, 64, 67
2, 95694, Control_c, 0, 64, 0
2, 95770, Control_c, 0, 64, 44
2, 95787, Note_on_c, 0, 82, 75
2, 95790, Control_c, 0, 64, 62
2, 95800, Note_on_c, 0, 83, 0
2, 95809, Control_c, 0, 64, 68
2, 95829, Control_c, 0, 64, 74
2, 95847, Control_c, 0, 64, 83
2, 95867, Control_c, 0, 64, 87
2, 95886, Control_c, 0, 64, 88
2, 95905, Note_on_c, 0, 83, 77
2, 95906, Control_c, 0, 64, 87
2, 95924, Control_c, 0, 64, 83
2, 95932, Note_on_c, 0, 82, 0
2, 95944, Control_c, 0, 64, 76
2, 95963, Control_c, 0, 64, 68
2, 95982, Control_c, 0, 64, 54
2, 95995, Note_on_c, 0, 82, 67
2, 96001, Control_c, 0, 64, 0
2, 96001, Note_on_c, 0, 83, 0
2, 96104, Note_on_c, 0, 83, 79
2, 96106, Note_on_c, 0, 82, 0
2, 96196, Note_on_c, 0, 82, 75
2, 96203, Note_on_c, 0, 83, 0
2, 96293, Note_on_c, 0, 82, 0
2, 96295, Note_on_c, 0, 83, 78
2, 96388, Note_on_c, 0, 82, 74
2, 96400, Note_on_c, 0, 83, 0
2, 96490, Note_on_c, 0, 83, 75
2, 96494, Note_on_c, 0, 82, 0
2, 96584, Note_on_c, 0, 82, 74
2, 96599, Note_on_c, 0, 83, 0
2, 96689, Note_on_c, 0, 83, 73
2, 96751, Note_on_c, 0, 82, 0
2, 96775, Note_on_c, 0, 82, 54
2, 96797, Note_on_c, 0, 83, 0
2, 96889, Note_on_c, 0, 82, 0
2, 96889, Note_on_c, 0, 83, 76
2, 96894, Note_on_c, 0, 49, 70
2, 96920, Note_on_c, 0, 51, 0
2, 96945, Note_on_c, 0, 79, 0
2, 96983, Note_on_c, 0, 82, 73
2, 96991, Note_on_c, 0, 83, 0
2, 97076, Note_on_c, 0, 82, 0
2, 97084, Note_on_c, 0, 83, 75
2, 97107, Note_on_c, 0, 75, 0
2, 97167, Note_on_c, 0, 82, 73
2, 97189, Note_on_c, 0, 83, 0
2, 97286, Note_on_c, 0, 82, 0
2, 97293, Note_on_c, 0, 83, 78
2, 97304, Note_on_c, 0, 51, 71
2, 97318, Note_on_c, 0, 49, 0
2, 97323, Note_on_c, 0, 73, 65
2, 97400, Note_on_c, 0, 82, 80
2, 97410, Note_on_c, 0, 83, 0
2, 97500, Note_on_c, 0, 82, 0
2, 97514, Note_on_c, 0, 83, 75
2, 97595, Note_on_c, 0, 82, 74
2, 97613, Note_on_c, 0, 83, 0
2, 97696, Note_on_c, 0, 82, 0
2, 97706, Note_on_c, 0, 83, 74
2, 97793, Note_on_c, 0, 82, 77
2, 97806, Note_on_c, 0, 83, 0
2, 97891, Note_on_c, 0, 82, 0
2, 97900, Note_on_c, 0, 83, 73
2, 98017, Note_on_c, 0, 82, 80
2, 98050, Note_on_c, 0, 83, 0
2, 98153, Note_on_c, 0, 80, 80
2, 98220, Note_on_c, 0, 82, 0
2, 98323, Control_c, 0, 64, 38
2, 98343, Control_c, 0, 64, 64
2, 98362, Control_c, 0, 64, 69
2, 98380, Control_c, 0, 64, 78
2, 98400, Control_c, 0, 64, 90
2, 98419, Control_c, 0, 64, 127
2, 98502, Note_on_c, 0, 73, 0
2, 98503, Note_on_c, 0, 80, 0
2, 98604, Note_on_c, 0, 39, 70
2, 98646, Note_on_c, 0, 51, 0
2, 99113, Note_on_c, 0, 80, 84
2, 99125, Note_on_c, 0, 44, 58
2, 99125, Note_on_c, 0, 71, 59
2, 99132, Note_on_c, 0, 75, 63
2, 99168, Control_c, 0, 64, 83
2, 99188, Control_c, 0, 64, 62
2, 99190, Note_on_c, 0, 39, 0
2, 99206, Control_c, 0, 64, 0
2, 99417, Control_c, 0, 64, 63
2, 99437, Control_c, 0, 64, 70
2, 99456, Control_c, 0, 64, 81
2, 99475, Control_c, 0, 64, 95
2, 99494, Control_c, 0, 64, 127
2, 99894, Note_on_c, 0, 80, 0
2, 99915, Note_on_c, 0, 75, 0
2, 100026, Note_on_c, 0, 44, 0
2, 100052, Note_on_c, 0, 71, 0
2, 100450, Note_on_c, 0, 83, 85
2, 100909, Note_on_c, 0, 77, 71
2, 100974, Note_on_c, 0, 83, 0
2, 101011, Control_c, 0, 64, 85
2, 101031, Control_c, 0, 64, 66
2, 101050, Control_c, 0, 64, 22
2, 101069, Control_c, 0, 64, 0
2, 102209, Note_on_c, 0, 59, 67
2, 102212, Note_on_c, 0, 78, 70
2, 102271, Note_on_c, 0, 77, 0
2, 102411, Note_on_c, 0, 80, 78
2, 102470, Note_on_c, 0, 78, 0
2, 102681, Note_on_c, 0, 74, 70
2, 102692, Note_on_c, 0, 53, 55
2, 102729, Note_on_c, 0, 80, 0
2, 102749, Note_on_c, 0, 59, 0
2, 104029, Note_on_c, 0, 54, 58
2, 104031, Note_on_c, 0, 75, 71
2, 104050, Note_on_c, 0, 53, 0
2, 104076, Note_on_c, 0, 74, 0
2, 104219, Note_on_c, 0, 77, 80
2, 104224, Note_on_c, 0, 56, 63
2, 104227, Note_on_c, 0, 54, 0
2, 104251, Note_on_c, 0, 75, 0
2, 104505, Note_on_c, 0, 50, 56
2, 104516, Note_on_c, 0, 70, 76
2, 104550, Note_on_c, 0, 56, 0
2, 104573, Note_on_c, 0, 77, 0
2, 105820, Note_on_c, 0, 80, 80
2, 105828, Note_on_c, 0, 51, 57
2, 105879, Note_on_c, 0, 50, 0
2, 105970, Note_on_c, 0, 70, 0
2, 106007, Note_on_c, 0, 53, 66
2, 106015, Note_on_c, 0, 51, 0
2, 106260, Note_on_c, 0, 46, 61
2, 106271, Note_on_c, 0, 74, 73
2, 106305, Note_on_c, 0, 53, 0
2, 106347, Note_on_c, 0, 80, 0
2, 107641, Note_on_c, 0, 56, 57
2, 107650, Note_on_c, 0, 75, 70
2, 107686, Note_on_c, 0, 74, 0
2, 107717, Note_on_c, 0, 46, 0
2, 107852, Note_on_c, 0, 77, 75
2, 107915, Note_on_c, 0, 75, 0
2, 108102, Note_on_c, 0, 50, 53
2, 108107, Note_on_c, 0, 70, 69
2, 108171, Note_on_c, 0, 77, 0
2, 108179, Note_on_c, 0, 56, 0
2, 109445, Note_on_c, 0, 51, 53
2, 109456, Note_on_c, 0, 72, 69
2, 109494, Note_on_c, 0, 70, 0
2, 109501, Note_on_c, 0, 50, 0
2, 109642, Note_on_c, 0, 51, 0
2, 109653, Note_on_c, 0, 53, 59
2, 109657, Note_on_c, 0, 74, 74
2, 109748, Note_on_c, 0, 72, 0
2, 109963, Note_on_c, 0, 75, 75
2, 109975, Note_on_c, 0, 42, 56
2, 110005, Note_on_c, 0, 53, 0
2, 110011, Note_on_c, 0, 74, 0
2, 110957, Control_c, 0, 64, 28
2, 110976, Control_c, 0, 64, 49
2, 110996, Control_c, 0, 64, 55
2, 111014, Control_c, 0, 64, 59
2, 111034, Control_c, 0, 64, 63
2, 111053, Control_c, 0, 64, 65
2, 111072, Control_c, 0, 64, 69
2, 111091, Control_c, 0, 64, 76
2, 111111, Control_c, 0, 64, 90
2, 111130, Control_c, 0, 64, 123
2, 111149, Control_c, 0, 64, 127
2, 111321, Note_on_c, 0, 42, 0
2, 111351, Note_on_c, 0, 73, 58
2, 111507, Note_on_c, 0, 75, 0
2, 111561, Note_on_c, 0, 71, 58
2, 111590, Note_on_c, 0, 73, 0
2, 111726, Control_c, 0, 67, 8
2, 111746, Control_c, 0, 67, 15
2, 111764, Control_c, 0, 67, 23
2, 111784, Control_c, 0, 67, 32
2, 111803, Control_c, 0, 67, 42
2, 111821, Control_c, 0, 67, 53
2, 111839, Control_c, 0, 67, 65
2, 111858, Control_c, 0, 67, 80
2, 111878, Control_c, 0, 67, 95
2, 111896, Control_c, 0, 67, 111
2, 111906, Note_on_c, 0, 73, 48
2, 111907, Note_on_c, 0, 43, 38
2, 111916, Control_c, 0, 64, 94
2, 111916, Control_c, 0, 67, 127
2, 111935, Control_c, 0, 64, 68
2, 111939, Note_on_c, 0, 71, 0
2, 111955, Control_c, 0, 64, 36
2, 111973, Control_c, 0, 64, 0
2, 112185, Control_c, 0, 64, 19
2, 112204, Control_c, 0, 64, 50
2, 112224, Control_c, 0, 64, 60
2, 112242, Control_c, 0, 64, 64
2, 112261, Control_c, 0, 64, 67
2, 112281, Control_c, 0, 64, 71
2, 112300, Control_c, 0, 64, 80
2, 112319, Control_c, 0, 64, 95
2, 112338, Control_c, 0, 64, 127
2, 112455, Note_on_c, 0, 43, 0
2, 112902, Note_on_c, 0, 73, 0
2, 113326, Note_on_c, 0, 58, 39
2, 113658, Note_on_c, 0, 63, 35
2, 113729, Note_on_c, 0, 70, 38
2, 113775, Note_on_c, 0, 73, 48
2, 113781, Note_on_c, 0, 55, 34
2, 113815, Note_on_c, 0, 58, 0
2, 113855, Control_c, 0, 64, 96
2, 113875, Control_c, 0, 64, 72
2, 113893, Control_c, 0, 64, 56
2, 113913, Control_c, 0, 64, 0
2, 114047, Control_c, 0, 64, 26
2, 114067, Control_c, 0, 64, 55
2, 114085, Control_c, 0, 64, 63
2, 114105, Control_c, 0, 64, 67
2, 114124, Control_c, 0, 64, 72
2, 114143, Control_c, 0, 64, 83
2, 114162, Control_c, 0, 64, 97
2, 114181, Control_c, 0, 64, 127
2, 114593, Note_on_c, 0, 63, 0
2, 114693, Note_on_c, 0, 73, 0
2, 114694, Note_on_c, 0, 70, 0
2, 115163, Note_on_c, 0, 51, 36
2, 115374, Note_on_c, 0, 55, 0
2, 115590, Note_on_c, 0, 63, 29
2, 115655, Note_on_c, 0, 70, 44
2, 115751, Note_on_c, 0, 73, 46
2, 115766, Note_on_c, 0, 44, 36
2, 115795, Control_c, 0, 64, 112
2, 115810, Note_on_c, 0, 51, 0
2, 115813, Control_c, 0, 64, 86
2, 115833, Control_c, 0, 64, 69
2, 115852, Control_c, 0, 64, 51
2, 115871, Control_c, 0, 64, 0
2, 116063, Control_c, 0, 64, 17
2, 116082, Control_c, 0, 64, 51
2, 116101, Control_c, 0, 64, 61
2, 116121, Control_c, 0, 64, 64
2, 116140, Control_c, 0, 64, 67
2, 116159, Control_c, 0, 64, 71
2, 116178, Control_c, 0, 64, 78
2, 116198, Control_c, 0, 64, 89
2, 116216, Control_c, 0, 64, 112
2, 116236, Control_c, 0, 64, 127
2, 116435, Note_on_c, 0, 73, 0
2, 116560, Note_on_c, 0, 70, 0
2, 116695, Note_on_c, 0, 44, 0
2, 117121, Note_on_c, 0, 71, 35
2, 117352, Note_on_c, 0, 70, 50
2, 117376, Note_on_c, 0, 71, 0
2, 117479, Note_on_c, 0, 63, 0
2, 117580, Note_on_c, 0, 71, 40
2, 117632, Note_on_c, 0, 70, 0
2, 117638, Control_c, 0, 64, 101
2, 117656, Control_c, 0, 64, 77
2, 117676, Control_c, 0, 64, 63
2, 117695, Control_c, 0, 64, 0
2, 118195, Control_c, 0, 64, 45
2, 118213, Control_c, 0, 64, 59
2, 118233, Control_c, 0, 64, 63
2, 118252, Control_c, 0, 64, 66
2, 118271, Control_c, 0, 64, 69
2, 118290, Control_c, 0, 64, 74
2, 118310, Control_c, 0, 64, 81
2, 118329, Control_c, 0, 64, 89
2, 118348, Control_c, 0, 64, 98
2, 118367, Control_c, 0, 64, 112
2, 118387, Control_c, 0, 64, 127
2, 118682, Note_on_c, 0, 71, 0
2, 118979, Note_on_c, 0, 59, 37
2, 119321, Note_on_c, 0, 63, 27
2, 119373, Note_on_c, 0, 68, 35
2, 119431, Note_on_c, 0, 71, 41
2, 119446, Note_on_c, 0, 56, 31
2, 119500, Control_c, 0, 64, 108
2, 119520, Control_c, 0, 64, 83
2, 119539, Control_c, 0, 64, 67
2, 119559, Control_c, 0, 64, 44
2, 119561, Note_on_c, 0, 59, 0
2, 119577, Control_c, 0, 64, 0
2, 119712, Control_c, 0, 64, 27
2, 119731, Control_c, 0, 64, 54
2, 119751, Control_c, 0, 64, 62
2, 119770, Control_c, 0, 64, 66
2, 119789, Control_c, 0, 64, 69
2, 119808, Control_c, 0, 64, 75
2, 119828, Control_c, 0, 64, 83
2, 119846, Control_c, 0, 64, 94
2, 119866, Control_c, 0, 64, 113
2, 119885, Control_c, 0, 64, 127
2, 120212, Note_on_c, 0, 63, 0
2, 120240, Note_on_c, 0, 56, 0
2, 120309, Note_on_c, 0, 71, 0
2, 120344, Note_on_c, 0, 68, 0
2, 120764, Note_on_c, 0, 53, 35
2, 121169, Note_on_c, 0, 65, 4
2, 121196, Note_on_c, 0, 68, 41
2, 121248, Note_on_c, 0, 50, 34
2, 121266, Note_on_c, 0, 71, 46
2, 121286, Control_c, 0, 64, 104
2, 121304, Control_c, 0, 64, 78
2, 121324, Control_c, 0, 64, 64
2, 121326, Note_on_c, 0, 53, 0
2, 121343, Control_c, 0, 64, 32
2, 121362, Control_c, 0, 64, 0
2, 121555, Control_c, 0, 64, 30
2, 121573, Control_c, 0, 64, 56
2, 121593, Control_c, 0, 64, 63
2, 121612, Control_c, 0, 64, 65
2, 121631, Control_c, 0, 64, 68
2, 121650, Control_c, 0, 64, 73
2, 121670, Control_c, 0, 64, 83
2, 121689, Control_c, 0, 64, 96
2, 121708, Control_c, 0, 64, 127
2, 121907, Note_on_c, 0, 68, 0
2, 122034, Note_on_c, 0, 65, 0
2, 122091, Note_on_c, 0, 71, 0
2, 122250, Note_on_c, 0, 50, 0
2, 122588, Note_on_c, 0, 70, 46
2, 122779, Note_on_c, 0, 68, 55
2, 122833, Note_on_c, 0, 70, 0
2, 122874, Note_on_c, 0, 50, 34
2, 122925, Note_on_c, 0, 53, 36
2, 123073, Note_on_c, 0, 77, 58
2, 123077, Note_on_c, 0, 58, 32
2, 123091, Control_c, 0, 64, 95
2, 123111, Control_c, 0, 64, 76
2, 123130, Control_c, 0, 64, 62
2, 123147, Note_on_c, 0, 68, 0
2, 123149, Control_c, 0, 64, 0
2, 123377, Control_c, 0, 64, 47
2, 123397, Control_c, 0, 64, 61
2, 123415, Control_c, 0, 64, 65
2, 123435, Control_c, 0, 64, 68
2, 123454, Control_c, 0, 64, 74
2, 123474, Control_c, 0, 64, 82
2, 123492, Control_c, 0, 64, 95
2, 123512, Control_c, 0, 64, 117
2, 123531, Control_c, 0, 64, 127
2, 123671, Note_on_c, 0, 77, 0
2, 123787, Note_on_c, 0, 50, 0
2, 123804, Note_on_c, 0, 58, 0
2, 124013, Note_on_c, 0, 53, 0
2, 124351, Note_on_c, 0, 71, 43
2, 124458, Note_on_c, 0, 71, 0
2, 124541, Note_on_c, 0, 50, 34
2, 124615, Note_on_c, 0, 53, 34
2, 124734, Note_on_c, 0, 58, 37
2, 124734, Note_on_c, 0, 70, 47
2, 124741, Control_c, 0, 64, 82
2, 124761, Control_c, 0, 64, 66
2, 124780, Control_c, 0, 64, 49
2, 124792, Note_on_c, 0, 70, 0
2, 124799, Control_c, 0, 64, 0
2, 124820, Note_on_c, 0, 71, 53
2, 124838, Control_c, 0, 64, 34
2, 124856, Control_c, 0, 64, 53
2, 124876, Control_c, 0, 64, 61
2, 124894, Note_on_c, 0, 71, 0
2, 124895, Control_c, 0, 64, 63
2, 124918, Note_on_c, 0, 70, 56
2, 124933, Control_c, 0, 64, 62
2, 124953, Control_c, 0, 64, 62
2, 124972, Control_c, 0, 64, 61
2, 124991, Control_c, 0, 64, 60
2, 124992, Note_on_c, 0, 70, 0
2, 125010, Control_c, 0, 64, 57
2, 125013, Note_on_c, 0, 71, 50
2, 125030, Control_c, 0, 64, 54
2, 125049, Control_c, 0, 64, 47
2, 125068, Control_c, 0, 64, 31
2, 125087, Control_c, 0, 64, 0
2, 125105, Note_on_c, 0, 71, 0
2, 125116, Note_on_c, 0, 70, 56
2, 125203, Note_on_c, 0, 70, 0
2, 125213, Note_on_c, 0, 71, 46
2, 125302, Note_on_c, 0, 70, 48
2, 125302, Note_on_c, 0, 71, 0
2, 125409, Note_on_c, 0, 70, 0
2, 125418, Note_on_c, 0, 71, 54
2, 125548, Note_on_c, 0, 70, 54
2, 125551, Note_on_c, 0, 71, 0
2, 125643, Control_c, 0, 64, 27
2, 125662, Control_c, 0, 64, 58
2, 125681, Control_c, 0, 64, 65
2, 125700, Control_c, 0, 64, 71
2, 125720, Control_c, 0, 64, 80
2, 125739, Control_c, 0, 64, 95
2, 125754, Note_on_c, 0, 50, 0
2, 125758, Control_c, 0, 64, 127
2, 125779, Note_on_c, 0, 70, 0
2, 125795, Note_on_c, 0, 58, 0
2, 125802, Note_on_c, 0, 53, 0
2, 126035, Note_on_c, 0, 71, 47
2, 126199, Note_on_c, 0, 71, 0
2, 126222, Note_on_c, 0, 68, 46
2, 126267, Note_on_c, 0, 68, 0
2, 126309, Note_on_c, 0, 51, 32
2, 126441, Note_on_c, 0, 54, 36
2, 126558, Note_on_c, 0, 66, 47
2, 126559, Note_on_c, 0, 58, 28
2, 126565, Control_c, 0, 64, 88
2, 126572, Note_on_c, 0, 63, 43
2, 126583, Control_c, 0, 64, 70
2, 126604, Control_c, 0, 64, 53
2, 126623, Control_c, 0, 64, 0
2, 126853, Control_c, 0, 64, 42
2, 126873, Control_c, 0, 64, 57
2, 126892, Control_c, 0, 64, 62
2, 126911, Control_c, 0, 64, 65
2, 126930, Control_c, 0, 64, 69
2, 126950, Control_c, 0, 64, 76
2, 126969, Control_c, 0, 64, 88
2, 126988, Control_c, 0, 64, 108
2, 127007, Control_c, 0, 64, 127
2, 127264, Note_on_c, 0, 63, 0
2, 127363, Note_on_c, 0, 51, 0
2, 127414, Note_on_c, 0, 58, 0
2, 127468, Note_on_c, 0, 54, 0
2, 128078, Note_on_c, 0, 51, 28
2, 128121, Note_on_c, 0, 54, 39
2, 128197, Control_c, 0, 64, 85
2, 128215, Control_c, 0, 64, 66
2, 128229, Note_on_c, 0, 58, 31
2, 128235, Control_c, 0, 64, 32
2, 128254, Control_c, 0, 64, 0
2, 128331, Control_c, 0, 64, 34
2, 128351, Control_c, 0, 64, 54
2, 128369, Control_c, 0, 64, 60
2, 128389, Control_c, 0, 64, 62
2, 128408, Control_c, 0, 64, 63
2, 128418, Note_on_c, 0, 63, 34
2, 128426, Control_c, 0, 64, 63
2, 128503, Control_c, 0, 64, 63
2, 128523, Control_c, 0, 64, 62
2, 128542, Control_c, 0, 64, 61
2, 128561, Control_c, 0, 64, 59
2, 128568, Note_on_c, 0, 66, 0
2, 128580, Control_c, 0, 64, 55
2, 128600, Control_c, 0, 64, 47
2, 128619, Control_c, 0, 64, 27
2, 128635, Note_on_c, 0, 63, 0
2, 128638, Control_c, 0, 64, 0
2, 128654, Note_on_c, 0, 65, 45
2, 128846, Note_on_c, 0, 66, 55
2, 128896, Note_on_c, 0, 65, 0
2, 129057, Note_on_c, 0, 68, 62
2, 129090, Note_on_c, 0, 66, 0
2, 129137, Control_c, 0, 64, 40
2, 129157, Control_c, 0, 64, 57
2, 129175, Control_c, 0, 64, 63
2, 129195, Control_c, 0, 64, 65
2, 129214, Control_c, 0, 64, 69
2, 129234, Control_c, 0, 64, 74
2, 129252, Control_c, 0, 64, 83
2, 129257, Note_on_c, 0, 70, 73
2, 129272, Control_c, 0, 64, 102
2, 129291, Control_c, 0, 64, 127
2, 129296, Note_on_c, 0, 68, 0
2, 129311, Control_c, 0, 67, 124
2, 129329, Control_c, 0, 67, 118
2, 129329, Note_on_c, 0, 70, 0
2, 129349, Control_c, 0, 67, 113
2, 129367, Note_on_c, 0, 51, 0
2, 129368, Control_c, 0, 67, 108
2, 129385, Note_on_c, 0, 54, 0
2, 129386, Control_c, 0, 67, 102
2, 129406, Control_c, 0, 67, 95
2, 129419, Note_on_c, 0, 58, 0
2, 129425, Control_c, 0, 67, 87
2, 129445, Control_c, 0, 67, 79
2, 129453, Note_on_c, 0, 72, 70
2, 129463, Control_c, 0, 67, 71
2, 129483, Control_c, 0, 67, 61
2, 129502, Control_c, 0, 67, 52
2, 129521, Control_c, 0, 67, 43
2, 129540, Control_c, 0, 67, 32
2, 129560, Control_c, 0, 67, 22
2, 129579, Control_c, 0, 67, 11
2, 129598, Control_c, 0, 67, 0
2, 129640, Note_on_c, 0, 51, 46
2, 129641, Note_on_c, 0, 74, 70
2, 129655, Note_on_c, 0, 72, 0
2, 129740, Note_on_c, 0, 54, 48
2, 129849, Note_on_c, 0, 58, 52
2, 129881, Note_on_c, 0, 75, 76
2, 129905, Control_c, 0, 64, 110
2, 129925, Control_c, 0, 64, 82
2, 129926, Note_on_c, 0, 74, 0
2, 129943, Control_c, 0, 64, 66
2, 129963, Control_c, 0, 64, 20
2, 129982, Control_c, 0, 64, 0
2, 130062, Note_on_c, 0, 75, 0
2, 130078, Control_c, 0, 64, 47
2, 130087, Note_on_c, 0, 77, 77
2, 130097, Control_c, 0, 64, 60
2, 130117, Control_c, 0, 64, 63
2, 130135, Control_c, 0, 64, 65
2, 130155, Control_c, 0, 64, 66
2, 130174, Control_c, 0, 64, 67
2, 130194, Control_c, 0, 64, 68
2, 130212, Control_c, 0, 64, 70
2, 130232, Control_c, 0, 64, 72
2, 130251, Control_c, 0, 64, 74
2, 130271, Control_c, 0, 64, 75
2, 130289, Control_c, 0, 64, 76
2, 130291, Note_on_c, 0, 78, 77
2, 130328, Control_c, 0, 64, 74
2, 130335, Note_on_c, 0, 77, 0
2, 130346, Control_c, 0, 64, 71
2, 130366, Control_c, 0, 64, 65
2, 130385, Control_c, 0, 64, 57
2, 130405, Control_c, 0, 64, 24
2, 130423, Control_c, 0, 64, 0
2, 130498, Note_on_c, 0, 80, 86
2, 130540, Note_on_c, 0, 78, 0
2, 130717, Note_on_c, 0, 78, 82
2, 130782, Note_on_c, 0, 80, 0
2, 130926, Note_on_c, 0, 77, 87
2, 130936, Note_on_c, 0, 78, 0
2, 131149, Note_on_c, 0, 78, 88
2, 131159, Note_on_c, 0, 58, 0
2, 131172, Control_c, 0, 64, 44
2, 131185, Note_on_c, 0, 77, 0
2, 131189, Note_on_c, 0, 54, 0
2, 131192, Control_c, 0, 64, 63
2, 131203, Note_on_c, 0, 51, 0
2, 131211, Control_c, 0, 64, 68
2, 131231, Control_c, 0, 64, 77
2, 131249, Control_c, 0, 64, 96
2, 131269, Control_c, 0, 64, 127
2, 131379, Note_on_c, 0, 75, 89
2, 131425, Note_on_c, 0, 78, 0
2, 131447, Note_on_c, 0, 75, 0
2, 131520, Note_on_c, 0, 44, 70
2, 131578, Note_on_c, 0, 47, 59
2, 131618, Note_on_c, 0, 52, 63
2, 131670, Note_on_c, 0, 64, 66
2, 131717, Note_on_c, 0, 68, 80
2, 131729, Note_on_c, 0, 56, 70
2, 131760, Note_on_c, 0, 71, 67
2, 131814, Note_on_c, 0, 76, 92
2, 131845, Control_c, 0, 64, 104
2, 131863, Control_c, 0, 64, 73
2, 131883, Control_c, 0, 64, 18
2, 131902, Control_c, 0, 64, 0
2, 132094, Control_c, 0, 64, 28
2, 132114, Control_c, 0, 64, 66
2, 132132, Control_c, 0, 64, 77
2, 132152, Control_c, 0, 64, 104
2, 132171, Control_c, 0, 64, 127
2, 132515, Note_on_c, 0, 64, 0
2, 132520, Note_on_c, 0, 76, 0
2, 132552, Note_on_c, 0, 71, 0
2, 132767, Note_on_c, 0, 68, 0
2, 133160, Note_on_c, 0, 71, 79
2, 133351, Note_on_c, 0, 69, 87
2, 133420, Note_on_c, 0, 71, 0
2, 133589, Note_on_c, 0, 56, 0
2, 133605, Note_on_c, 0, 68, 81
2, 133643, Note_on_c, 0, 44, 0
2, 133664, Note_on_c, 0, 52, 0
2, 133667, Control_c, 0, 64, 112
2, 133673, Note_on_c, 0, 47, 0
2, 133686, Control_c, 0, 64, 75
2, 133688, Note_on_c, 0, 69, 0
2, 133705, Control_c, 0, 64, 55
2, 133724, Control_c, 0, 64, 0
2, 134903, Note_on_c, 0, 69, 74
2, 134957, Note_on_c, 0, 68, 0
2, 135107, Note_on_c, 0, 71, 78
2, 135163, Note_on_c, 0, 69, 0
2, 135378, Note_on_c, 0, 64, 71
2, 135400, Note_on_c, 0, 71, 0
2, 136735, Note_on_c, 0, 66, 70
2, 136822, Note_on_c, 0, 64, 0
2, 136938, Note_on_c, 0, 68, 81
2, 137033, Note_on_c, 0, 66, 0
2, 137251, Note_on_c, 0, 62, 66
2, 137254, Note_on_c, 0, 53, 45
2, 137255, Note_on_c, 0, 58, 57
2, 137263, Note_on_c, 0, 44, 51
2, 137293, Note_on_c, 0, 68, 0
2, 137679, Control_c, 0, 64, 62
2, 137699, Control_c, 0, 64, 69
2, 137718, Control_c, 0, 64, 76
2, 137738, Control_c, 0, 64, 85
2, 137757, Control_c, 0, 64, 98
2, 137776, Control_c, 0, 64, 127
2, 138625, Note_on_c, 0, 65, 56
2, 138705, Note_on_c, 0, 62, 0
2, 138824, Note_on_c, 0, 68, 78
2, 138902, Note_on_c, 0, 65, 0
2, 138915, Note_on_c, 0, 44, 0
2, 138923, Note_on_c, 0, 58, 0
2, 139022, Note_on_c, 0, 53, 0
2, 139070, Note_on_c, 0, 71, 76
2, 139119, Control_c, 0, 64, 89
2, 139126, Note_on_c, 0, 68, 0
2, 139139, Control_c, 0, 64, 68
2, 139158, Control_c, 0, 64, 41
2, 139178, Control_c, 0, 64, 0
2, 140385, Note_on_c, 0, 70, 68
2, 140435, Note_on_c, 0, 71, 0
2, 140585, Note_on_c, 0, 68, 79
2, 140603, Note_on_c, 0, 70, 0
2, 140857, Note_on_c, 0, 77, 79
2, 140914, Note_on_c, 0, 68, 0
2, 142151, Note_on_c, 0, 75, 77
2, 142208, Note_on_c, 0, 77, 0
2, 142375, Note_on_c, 0, 74, 84
2, 142389, Note_on_c, 0, 75, 0
2, 142767, Note_on_c, 0, 83, 92
2, 142837, Note_on_c, 0, 74, 0
2, 143379, Note_on_c, 0, 81, 85
2, 143453, Note_on_c, 0, 83, 0
2, 144331, Note_on_c, 0, 82, 83
2, 144342, Control_c, 0, 64, 42
2, 144361, Control_c, 0, 64, 63
2, 144380, Note_on_c, 0, 81, 0
2, 144381, Control_c, 0, 64, 69
2, 144399, Control_c, 0, 64, 85
2, 144419, Control_c, 0, 64, 127
2, 144438, Note_on_c, 0, 82, 0
2, 144513, Note_on_c, 0, 46, 57
2, 144586, Note_on_c, 0, 51, 54
2, 144664, Note_on_c, 0, 54, 58
2, 144699, Note_on_c, 0, 66, 63
2, 144746, Note_on_c, 0, 58, 65
2, 144749, Note_on_c, 0, 70, 69
2, 144806, Note_on_c, 0, 75, 92
2, 144878, Control_c, 0, 64, 91
2, 144896, Control_c, 0, 64, 67
2, 144916, Control_c, 0, 64, 0
2, 145088, Control_c, 0, 64, 55
2, 145108, Control_c, 0, 64, 67
2, 145127, Control_c, 0, 64, 75
2, 145147, Control_c, 0, 64, 85
2, 145165, Control_c, 0, 64, 98
2, 145185, Control_c, 0, 64, 127
2, 145517, Note_on_c, 0, 58, 0
2, 145616, Note_on_c, 0, 46, 0
2, 145680, Note_on_c, 0, 51, 0
2, 145721, Note_on_c, 0, 54, 0
2, 146113, Note_on_c, 0, 70, 0
2, 146119, Note_on_c, 0, 66, 0
2, 146137, Note_on_c, 0, 75, 0
2, 146288, Note_on_c, 0, 46, 64
2, 146363, Note_on_c, 0, 53, 59
2, 146438, Note_on_c, 0, 65, 66
2, 146448, Note_on_c, 0, 56, 60
2, 146506, Note_on_c, 0, 70, 73
2, 146508, Note_on_c, 0, 58, 72
2, 146558, Note_on_c, 0, 74, 82
2, 146567, Control_c, 0, 64, 88
2, 146587, Control_c, 0, 64, 63
2, 146605, Control_c, 0, 64, 0
2, 146798, Control_c, 0, 64, 66
2, 146816, Control_c, 0, 64, 80
2, 146836, Control_c, 0, 64, 127
2, 147042, Note_on_c, 0, 46, 0
2, 147132, Note_on_c, 0, 58, 0
2, 147462, Note_on_c, 0, 70, 0
2, 147552, Note_on_c, 0, 56, 0
2, 147577, Note_on_c, 0, 53, 0
2, 148015, Note_on_c, 0, 75, 88
2, 148060, Note_on_c, 0, 74, 0
2, 148062, Note_on_c, 0, 65, 0
2, 148134, Note_on_c, 0, 75, 0
2, 148733, Note_on_c, 0, 75, 86
2, 148741, Note_on_c, 0, 59, 74
2, 148744, Note_on_c, 0, 63, 73
2, 148746, Note_on_c, 0, 70, 76
2, 148747, Note_on_c, 0, 47, 65
2, 148775, Control_c, 0, 64, 94
2, 148794, Control_c, 0, 64, 66
2, 148813, Control_c, 0, 64, 0
2, 149025, Control_c, 0, 64, 61
2, 149044, Control_c, 0, 64, 71
2, 149063, Control_c, 0, 64, 80
2, 149082, Control_c, 0, 64, 87
2, 149102, Control_c, 0, 64, 91
2, 149121, Control_c, 0, 64, 97
2, 149140, Control_c, 0, 64, 121
2, 149159, Control_c, 0, 64, 127
2, 149519, Note_on_c, 0, 70, 0
2, 149555, Note_on_c, 0, 47, 0
2, 149605, Note_on_c, 0, 63, 0
2, 149628, Note_on_c, 0, 59, 0
2, 149934, Note_on_c, 0, 68, 63
2, 150140, Note_on_c, 0, 67, 65
2, 150169, Note_on_c, 0, 68, 0
2, 150307, Note_on_c, 0, 68, 75
2, 150364, Note_on_c, 0, 67, 0
2, 150524, Note_on_c, 0, 63, 40
2, 150536, Note_on_c, 0, 59, 37
2, 150583, Note_on_c, 0, 70, 59
2, 150590, Note_on_c, 0, 68, 0
2, 150599, Control_c, 0, 64, 78
2, 150618, Control_c, 0, 64, 61
2, 150638, Control_c, 0, 64, 0
2, 150693, Note_on_c, 0, 70, 0
2, 150695, Control_c, 0, 64, 29
2, 150705, Note_on_c, 0, 68, 62
2, 150714, Control_c, 0, 64, 58
2, 150733, Control_c, 0, 64, 66
2, 150753, Control_c, 0, 64, 71
2, 150772, Control_c, 0, 64, 76
2, 150791, Control_c, 0, 64, 78
2, 150794, Note_on_c, 0, 68, 0
2, 150810, Control_c, 0, 64, 76
2, 150817, Note_on_c, 0, 70, 66
2, 150830, Control_c, 0, 64, 72
2, 150848, Control_c, 0, 64, 66
2, 150868, Control_c, 0, 64, 58
2, 150887, Control_c, 0, 64, 36
2, 150889, Note_on_c, 0, 70, 0
2, 150900, Note_on_c, 0, 68, 63
2, 150907, Control_c, 0, 64, 0
2, 150986, Note_on_c, 0, 68, 0
2, 151006, Note_on_c, 0, 70, 65
2, 151064, Note_on_c, 0, 70, 0
2, 151078, Note_on_c, 0, 68, 59
2, 151159, Note_on_c, 0, 68, 0
2, 151182, Note_on_c, 0, 70, 67
2, 151251, Note_on_c, 0, 70, 0
2, 151259, Note_on_c, 0, 68, 67
2, 151349, Note_on_c, 0, 68, 0
2, 151371, Note_on_c, 0, 70, 69
2, 151450, Note_on_c, 0, 70, 0
2, 151451, Note_on_c, 0, 68, 64
2, 151547, Note_on_c, 0, 68, 0
2, 151563, Note_on_c, 0, 70, 66
2, 151643, Note_on_c, 0, 70, 0
2, 151647, Note_on_c, 0, 68, 69
2, 151737, Note_on_c, 0, 68, 0
2, 151761, Note_on_c, 0, 70, 69
2, 151828, Note_on_c, 0, 70, 0
2, 151829, Control_c, 0, 64, 48
2, 151838, Note_on_c, 0, 68, 63
2, 151848, Control_c, 0, 64, 62
2, 151868, Control_c, 0, 64, 66
2, 151886, Control_c, 0, 64, 69
2, 151906, Control_c, 0, 64, 73
2, 151922, Note_on_c, 0, 63, 0
2, 151925, Control_c, 0, 64, 76
2, 151925, Note_on_c, 0, 68, 0
2, 151944, Control_c, 0, 64, 79
2, 151944, Note_on_c, 0, 59, 0
2, 151945, Note_on_c, 0, 70, 67
2, 151963, Control_c, 0, 64, 82
2, 151983, Control_c, 0, 64, 85
2, 152002, Control_c, 0, 64, 88
2, 152021, Control_c, 0, 64, 91
2, 152024, Note_on_c, 0, 70, 0
2, 152030, Note_on_c, 0, 68, 67
2, 152040, Control_c, 0, 64, 94
2, 152059, Control_c, 0, 64, 95
2, 152081, Control_c, 0, 64, 96
2, 152100, Control_c, 0, 64, 94
2, 152120, Control_c, 0, 64, 82
2, 152132, Note_on_c, 0, 68, 0
2, 152136, Note_on_c, 0, 63, 42
2, 152139, Control_c, 0, 64, 69
2, 152139, Note_on_c, 0, 59, 36
2, 152156, Note_on_c, 0, 70, 63
2, 152157, Control_c, 0, 64, 56
2, 152176, Control_c, 0, 64, 0
2, 152230, Note_on_c, 0, 70, 0
2, 152248, Note_on_c, 0, 68, 63
2, 152335, Note_on_c, 0, 68, 0
2, 152366, Note_on_c, 0, 70, 62
2, 152426, Note_on_c, 0, 70, 0
2, 152451, Note_on_c, 0, 68, 62
2, 152529, Note_on_c, 0, 68, 0
2, 152562, Note_on_c, 0, 70, 63
2, 152618, Note_on_c, 0, 70, 0
2, 152643, Note_on_c, 0, 68, 60
2, 152723, Note_on_c, 0, 68, 0
2, 152756, Note_on_c, 0, 70, 63
2, 152811, Note_on_c, 0, 70, 0
2, 152838, Note_on_c, 0, 68, 60
2, 152915, Note_on_c, 0, 68, 0
2, 152949, Note_on_c, 0, 70, 61
2, 153001, Note_on_c, 0, 70, 0
2, 153027, Note_on_c, 0, 68, 58
2, 153102, Note_on_c, 0, 68, 0
2, 153132, Note_on_c, 0, 70, 61
2, 153225, Note_on_c, 0, 70, 0
2, 153230, Note_on_c, 0, 68, 57
2, 153367, Note_on_c, 0, 67, 46
2, 153371, Note_on_c, 0, 68, 0
2, 153483, Control_c, 0, 64, 41
2, 153502, Control_c, 0, 64, 54
2, 153521, Control_c, 0, 64, 60
2, 153521, Control_c, 0, 67, 8
2, 153540, Control_c, 0, 64, 63
2, 153540, Control_c, 0, 67, 15
2, 153560, Control_c, 0, 64, 65
2, 153560, Control_c, 0, 67, 24
2, 153579, Control_c, 0, 64, 67
2, 153579, Control_c, 0, 67, 30
2, 153597, Note_on_c, 0, 59, 0
2, 153598, Control_c, 0, 64, 70
2, 153598, Control_c, 0, 67, 38
2, 153609, Note_on_c, 0, 63, 0
2, 153614, Note_on_c, 0, 68, 44
2, 153617, Control_c, 0, 64, 73
2, 153617, Control_c, 0, 67, 46
2, 153637, Control_c, 0, 64, 76
2, 153637, Control_c, 0, 67, 56
2, 153656, Control_c, 0, 64, 79
2, 153656, Control_c, 0, 67, 72
2, 153675, Control_c, 0, 64, 82
2, 153675, Control_c, 0, 67, 92
2, 153694, Control_c, 0, 64, 85
2, 153694, Control_c, 0, 67, 114
2, 153695, Note_on_c, 0, 67, 0
2, 153714, Control_c, 0, 64, 89
2, 153714, Control_c, 0, 67, 127
2, 153732, Control_c, 0, 64, 92
2, 153752, Control_c, 0, 64, 95
2, 153771, Control_c, 0, 64, 96
2, 153882, Note_on_c, 0, 55, 26
2, 153967, Note_on_c, 0, 58, 27
2, 154001, Control_c, 0, 64, 96
2, 154020, Control_c, 0, 64, 94
2, 154029, Note_on_c, 0, 63, 37
2, 154040, Control_c, 0, 64, 92
2, 154059, Control_c, 0, 64, 91
2, 154073, Note_on_c, 0, 70, 43
2, 154078, Control_c, 0, 64, 89
2, 154097, Control_c, 0, 64, 87
2, 154117, Control_c, 0, 64, 84
2, 154136, Control_c, 0, 64, 76
2, 154155, Control_c, 0, 64, 66
2, 154156, Note_on_c, 0, 68, 0
2, 154174, Control_c, 0, 64, 29
2, 154194, Control_c, 0, 64, 0
2, 154463, Control_c, 0, 64, 41
2, 154482, Control_c, 0, 64, 55
2, 154501, Control_c, 0, 64, 61
2, 154521, Control_c, 0, 64, 64
2, 154540, Control_c, 0, 64, 66
2, 154559, Control_c, 0, 64, 70
2, 154578, Control_c, 0, 64, 78
2, 154598, Control_c, 0, 64, 86
2, 154616, Control_c, 0, 64, 95
2, 154636, Control_c, 0, 64, 105
2, 154655, Control_c, 0, 64, 119
2, 154675, Control_c, 0, 64, 127
2, 154892, Note_on_c, 0, 55, 0
2, 155024, Note_on_c, 0, 63, 0
2, 155055, Note_on_c, 0, 58, 0
2, 155694, Note_on_c, 0, 55, 19
2, 155756, Note_on_c, 0, 58, 29
2, 155767, Control_c, 0, 64, 112
2, 155786, Control_c, 0, 64, 95
2, 155805, Control_c, 0, 64, 79
2, 155806, Note_on_c, 0, 63, 32
2, 155824, Control_c, 0, 64, 64
2, 155844, Control_c, 0, 64, 27
2, 155862, Control_c, 0, 64, 0
2, 156036, Control_c, 0, 64, 36
2, 156055, Control_c, 0, 64, 55
2, 156074, Control_c, 0, 64, 62
2, 156093, Control_c, 0, 64, 65
2, 156113, Control_c, 0, 64, 67
2, 156131, Control_c, 0, 64, 71
2, 156150, Control_c, 0, 64, 78
2, 156170, Control_c, 0, 64, 87
2, 156189, Control_c, 0, 64, 100
2, 156208, Control_c, 0, 64, 127
2, 156212, Note_on_c, 0, 75, 0
2, 156439, Note_on_c, 0, 55, 0
2, 156497, Note_on_c, 0, 63, 0
2, 156566, Note_on_c, 0, 70, 0
2, 156603, Note_on_c, 0, 58, 0
2, 156954, Note_on_c, 0, 75, 50
2, 157150, Note_on_c, 0, 73, 60
2, 157252, Note_on_c, 0, 75, 0
2, 157325, Note_on_c, 0, 71, 60
2, 157355, Note_on_c, 0, 73, 0
2, 157373, Note_on_c, 0, 55, 32
2, 157433, Note_on_c, 0, 58, 31
2, 157514, Control_c, 0, 64, 104
2, 157533, Control_c, 0, 64, 84
2, 157553, Control_c, 0, 64, 69
2, 157569, Note_on_c, 0, 63, 26
2, 157571, Control_c, 0, 64, 54
2, 157590, Control_c, 0, 64, 0
2, 157593, Note_on_c, 0, 73, 46
2, 157623, Note_on_c, 0, 71, 0
2, 157879, Control_c, 0, 64, 50
2, 157898, Control_c, 0, 64, 60
2, 157916, Control_c, 0, 64, 64
2, 157935, Control_c, 0, 64, 66
2, 157955, Control_c, 0, 64, 69
2, 157974, Control_c, 0, 64, 74
2, 157993, Control_c, 0, 64, 83
2, 158012, Control_c, 0, 64, 96
2, 158031, Control_c, 0, 64, 127
2, 158114, Note_on_c, 0, 63, 0
2, 158186, Note_on_c, 0, 55, 0
2, 158271, Note_on_c, 0, 58, 0
2, 158892, Note_on_c, 0, 70, 60
2, 159076, Note_on_c, 0, 73, 0
2, 159365, Note_on_c, 0, 71, 50
2, 159380, Note_on_c, 0, 68, 41
2, 159386, Note_on_c, 0, 59, 35
2, 159389, Note_on_c, 0, 56, 26
2, 159390, Note_on_c, 0, 63, 38
2, 159404, Note_on_c, 0, 70, 0
2, 159415, Control_c, 0, 64, 101
2, 159434, Control_c, 0, 64, 80
2, 159453, Control_c, 0, 64, 65
2, 159473, Control_c, 0, 64, 31
2, 159491, Control_c, 0, 64, 0
2, 159645, Control_c, 0, 64, 36
2, 159664, Control_c, 0, 64, 55
2, 159684, Control_c, 0, 64, 62
2, 159702, Control_c, 0, 64, 65
2, 159722, Control_c, 0, 64, 68
2, 159741, Control_c, 0, 64, 74
2, 159761, Control_c, 0, 64, 82
2, 159779, Control_c, 0, 64, 94
2, 159799, Control_c, 0, 64, 109
2, 159818, Control_c, 0, 64, 127
2, 160097, Note_on_c, 0, 59, 0
2, 160352, Note_on_c, 0, 56, 0
2, 161103, Note_on_c, 0, 52, 40
2, 161180, Control_c, 0, 64, 91
2, 161200, Control_c, 0, 64, 73
2, 161218, Control_c, 0, 64, 58
2, 161238, Control_c, 0, 64, 0
2, 161352, Control_c, 0, 64, 32
2, 161372, Control_c, 0, 64, 59
2, 161391, Control_c, 0, 64, 66
2, 161411, Control_c, 0, 64, 71
2, 161429, Control_c, 0, 64, 80
2, 161449, Control_c, 0, 64, 97
2, 161468, Control_c, 0, 64, 127
2, 161538, Note_on_c, 0, 71, 0
2, 161620, Note_on_c, 0, 63, 0
2, 161762, Note_on_c, 0, 52, 0
2, 161898, Note_on_c, 0, 68, 0
2, 162220, Note_on_c, 0, 71, 49
2, 162246, Note_on_c, 0, 63, 35
2, 162440, Note_on_c, 0, 70, 68
2, 162463, Note_on_c, 0, 61, 46
2, 162480, Note_on_c, 0, 71, 0
2, 162528, Note_on_c, 0, 63, 0
2, 162628, Note_on_c, 0, 59, 54
2, 162631, Note_on_c, 0, 68, 69
2, 162648, Note_on_c, 0, 61, 0
2, 162661, Note_on_c, 0, 59, 0
2, 162663, Note_on_c, 0, 70, 0
2, 162869, Control_c, 0, 64, 93
2, 162889, Control_c, 0, 64, 72
2, 162905, Note_on_c, 0, 70, 55
2, 162908, Control_c, 0, 64, 57
2, 162918, Note_on_c, 0, 52, 35
2, 162927, Control_c, 0, 64, 0
2, 162928, Note_on_c, 0, 61, 30
2, 162940, Note_on_c, 0, 68, 0
2, 163158, Control_c, 0, 64, 17
2, 163177, Control_c, 0, 64, 57
2, 163196, Control_c, 0, 64, 64
2, 163215, Control_c, 0, 64, 67
2, 163235, Control_c, 0, 64, 70
2, 163254, Control_c, 0, 64, 78
2, 163272, Control_c, 0, 64, 91
2, 163292, Control_c, 0, 64, 127
2, 163352, Note_on_c, 0, 61, 0
2, 163525, Note_on_c, 0, 70, 0
2, 164150, Note_on_c, 0, 67, 49
2, 164173, Note_on_c, 0, 58, 38
2, 164256, Note_on_c, 0, 67, 0
2, 164281, Note_on_c, 0, 58, 0
2, 164460, Note_on_c, 0, 59, 45
2, 164546, Note_on_c, 0, 62, 42
2, 164598, Control_c, 0, 64, 92
2, 164602, Note_on_c, 0, 68, 56
2, 164610, Note_on_c, 0, 53, 38
2, 164617, Control_c, 0, 64, 73
2, 164636, Control_c, 0, 64, 54
2, 164636, Note_on_c, 0, 52, 0
2, 164655, Control_c, 0, 64, 0
2, 164924, Control_c, 0, 64, 40
2, 164943, Control_c, 0, 64, 57
2, 164963, Control_c, 0, 64, 63
2, 164981, Control_c, 0, 64, 65
2, 165001, Control_c, 0, 64, 69
2, 165020, Control_c, 0, 64, 74
2, 165040, Control_c, 0, 64, 86
2, 165058, Control_c, 0, 64, 103
2, 165078, Control_c, 0, 64, 127
2, 165382, Note_on_c, 0, 59, 0
2, 165437, Note_on_c, 0, 62, 0
2, 165450, Note_on_c, 0, 68, 0
2, 166157, Note_on_c, 0, 59, 37
2, 166204, Note_on_c, 0, 62, 33
2, 166268, Control_c, 0, 64, 112
2, 166286, Note_on_c, 0, 68, 49
2, 166287, Control_c, 0, 64, 87
2, 166306, Control_c, 0, 64, 71
2, 166326, Control_c, 0, 64, 58
2, 166345, Control_c, 0, 64, 0
2, 166575, Control_c, 0, 64, 39
2, 166595, Control_c, 0, 64, 57
2, 166614, Control_c, 0, 64, 63
2, 166632, Control_c, 0, 64, 66
2, 166652, Control_c, 0, 64, 69
2, 166671, Control_c, 0, 64, 74
2, 166691, Control_c, 0, 64, 82
2, 166709, Control_c, 0, 64, 90
2, 166729, Control_c, 0, 64, 100
2, 166748, Control_c, 0, 64, 119
2, 166767, Control_c, 0, 64, 127
2, 167289, Note_on_c, 0, 53, 0
2, 167342, Note_on_c, 0, 54, 36
2, 167562, Note_on_c, 0, 53, 52
2, 167598, Note_on_c, 0, 68, 0
2, 167621, Note_on_c, 0, 54, 0
2, 167633, Note_on_c, 0, 59, 0
2, 167645, Note_on_c, 0, 62, 0
2, 167741, Note_on_c, 0, 51, 51
2, 167753, Note_on_c, 0, 53, 0
2, 167918, Note_on_c, 0, 59, 42
2, 167966, Note_on_c, 0, 62, 38
2, 168014, Note_on_c, 0, 51, 0
2, 168015, Control_c, 0, 64, 94
2, 168019, Note_on_c, 0, 53, 49
2, 168026, Note_on_c, 0, 68, 52
2, 168035, Control_c, 0, 64, 75
2, 168054, Control_c, 0, 64, 62
2, 168072, Control_c, 0, 64, 0
2, 168657, Note_on_c, 0, 54, 58
2, 168685, Note_on_c, 0, 53, 0
2, 168783, Control_c, 0, 67, 121
2, 168803, Control_c, 0, 67, 115
2, 168821, Control_c, 0, 67, 108
2, 168842, Control_c, 0, 67, 101
2, 168861, Control_c, 0, 67, 94
2, 168871, Note_on_c, 0, 56, 55
2, 168881, Control_c, 0, 67, 85
2, 168884, Note_on_c, 0, 54, 0
2, 168899, Control_c, 0, 67, 77
2, 168919, Control_c, 0, 67, 67
2, 168938, Control_c, 0, 67, 59
2, 168957, Control_c, 0, 67, 51
2, 168976, Control_c, 0, 67, 44
2, 168996, Control_c, 0, 67, 37
2, 169015, Control_c, 0, 67, 30
2, 169033, Control_c, 0, 67, 23
2, 169052, Note_on_c, 0, 53, 58
2, 169053, Control_c, 0, 67, 15
2, 169072, Control_c, 0, 67, 8
2, 169091, Control_c, 0, 67, 0
2, 169102, Note_on_c, 0, 56, 0
2, 169267, Note_on_c, 0, 54, 62
2, 169284, Note_on_c, 0, 53, 0
2, 169364, Note_on_c, 0, 59, 0
2, 169423, Note_on_c, 0, 54, 0
2, 169457, Note_on_c, 0, 56, 59
2, 169466, Note_on_c, 0, 68, 0
2, 169528, Note_on_c, 0, 62, 0
2, 169699, Note_on_c, 0, 59, 35
2, 169766, Note_on_c, 0, 65, 30
2, 169781, Note_on_c, 0, 50, 43
2, 169810, Note_on_c, 0, 56, 0
2, 169811, Note_on_c, 0, 68, 45
2, 170129, Control_c, 0, 64, 51
2, 170148, Control_c, 0, 64, 61
2, 170168, Control_c, 0, 64, 65
2, 170186, Control_c, 0, 64, 68
2, 170206, Control_c, 0, 64, 73
2, 170225, Control_c, 0, 64, 82
2, 170245, Control_c, 0, 64, 98
2, 170263, Control_c, 0, 64, 127
2, 170497, Note_on_c, 0, 59, 0
2, 170538, Note_on_c, 0, 65, 0
2, 170559, Note_on_c, 0, 68, 0
2, 171243, Note_on_c, 0, 59, 34
2, 171307, Note_on_c, 0, 65, 37
2, 171374, Control_c, 0, 64, 91
2, 171377, Note_on_c, 0, 68, 45
2, 171393, Control_c, 0, 64, 73
2, 171413, Control_c, 0, 64, 60
2, 171431, Control_c, 0, 64, 0
2, 171701, Control_c, 0, 64, 19
2, 171720, Control_c, 0, 64, 47
2, 171739, Control_c, 0, 64, 57
2, 171759, Control_c, 0, 64, 62
2, 171777, Control_c, 0, 64, 64
2, 171797, Control_c, 0, 64, 66
2, 171816, Control_c, 0, 64, 69
2, 171836, Control_c, 0, 64, 73
2, 171854, Control_c, 0, 64, 79
2, 171873, Control_c, 0, 64, 87
2, 171893, Control_c, 0, 64, 96
2, 171911, Control_c, 0, 64, 111
2, 171931, Control_c, 0, 64, 127
2, 172383, Note_on_c, 0, 50, 0
2, 172391, Note_on_c, 0, 51, 43
2, 172596, Note_on_c, 0, 50, 56
2, 172623, Note_on_c, 0, 51, 0
2, 172629, Note_on_c, 0, 68, 0
2, 172692, Note_on_c, 0, 65, 0
2, 172698, Note_on_c, 0, 59, 0
2, 172793, Note_on_c, 0, 48, 57
2, 172796, Note_on_c, 0, 50, 0
2, 172996, Note_on_c, 0, 59, 38
2, 173031, Note_on_c, 0, 65, 32
2, 173064, Note_on_c, 0, 50, 54
2, 173068, Note_on_c, 0, 68, 56
2, 173071, Note_on_c, 0, 48, 0
2, 173105, Control_c, 0, 64, 91
2, 173124, Control_c, 0, 64, 72
2, 173144, Control_c, 0, 64, 58
2, 173162, Control_c, 0, 64, 0
2, 173689, Note_on_c, 0, 51, 52
2, 173737, Note_on_c, 0, 50, 0
2, 173905, Note_on_c, 0, 53, 58
2, 173915, Note_on_c, 0, 51, 0
2, 174099, Note_on_c, 0, 50, 63
2, 174157, Note_on_c, 0, 53, 0
2, 174309, Note_on_c, 0, 51, 65
2, 174347, Note_on_c, 0, 50, 0
2, 174359, Note_on_c, 0, 59, 0
2, 174445, Note_on_c, 0, 65, 0
2, 174506, Note_on_c, 0, 53, 66
2, 174513, Note_on_c, 0, 51, 0
2, 174538, Note_on_c, 0, 68, 0
2, 174694, Note_on_c, 0, 62, 45
2, 174752, Note_on_c, 0, 65, 41
2, 174810, Note_on_c, 0, 68, 63
2, 174813, Note_on_c, 0, 47, 60
2, 174883, Note_on_c, 0, 53, 0
2, 175142, Control_c, 0, 64, 60
2, 175161, Control_c, 0, 64, 66
2, 175181, Control_c, 0, 64, 70
2, 175199, Control_c, 0, 64, 76
2, 175219, Control_c, 0, 64, 84
2, 175238, Control_c, 0, 64, 94
2, 175258, Control_c, 0, 64, 127
2, 175583, Note_on_c, 0, 62, 0
2, 175631, Note_on_c, 0, 68, 0
2, 175634, Note_on_c, 0, 65, 0
2, 176369, Note_on_c, 0, 62, 36
2, 176431, Note_on_c, 0, 65, 35
2, 176486, Note_on_c, 0, 68, 50
2, 176521, Control_c, 0, 64, 96
2, 176540, Control_c, 0, 64, 74
2, 176560, Control_c, 0, 64, 60
2, 176578, Control_c, 0, 64, 0
2, 177509, Note_on_c, 0, 47, 0
2, 177517, Note_on_c, 0, 49, 56
2, 177731, Note_on_c, 0, 47, 59
2, 177767, Note_on_c, 0, 49, 0
2, 177909, Note_on_c, 0, 46, 68
2, 177925, Note_on_c, 0, 47, 0
2, 177957, Note_on_c, 0, 62, 0
2, 177968, Note_on_c, 0, 65, 0
2, 177983, Note_on_c, 0, 68, 0
2, 178122, Note_on_c, 0, 62, 45
2, 178128, Note_on_c, 0, 46, 0
2, 178139, Note_on_c, 0, 65, 48
2, 178151, Note_on_c, 0, 47, 69
2, 178159, Note_on_c, 0, 68, 61
2, 178373, Note_on_c, 0, 46, 69
2, 178400, Note_on_c, 0, 47, 0
2, 178565, Note_on_c, 0, 44, 74
2, 178587, Note_on_c, 0, 46, 0
2, 178770, Note_on_c, 0, 46, 77
2, 178795, Note_on_c, 0, 44, 0
2, 178981, Note_on_c, 0, 47, 79
2, 179008, Note_on_c, 0, 46, 0
2, 179185, Note_on_c, 0, 44, 81
2, 179232, Note_on_c, 0, 47, 0
2, 179259, Note_on_c, 0, 68, 0
2, 179269, Note_on_c, 0, 62, 0
2, 179290, Note_on_c, 0, 65, 0
2, 179406, Note_on_c, 0, 46, 83
2, 179443, Note_on_c, 0, 44, 0
2, 179598, Note_on_c, 0, 47, 83
2, 179620, Note_on_c, 0, 46, 0
2, 179724, Note_on_c, 0, 62, 69
2, 179795, Note_on_c, 0, 65, 72
2, 179870, Note_on_c, 0, 68, 80
2, 180021, Note_on_c, 0, 38, 86
2, 180023, Note_on_c, 0, 71, 86
2, 180033, Note_on_c, 0, 47, 0
2, 180168, Control_c, 0, 64, 36
2, 180187, Control_c, 0, 64, 67
2, 180206, Control_c, 0, 64, 79
2, 180225, Control_c, 0, 64, 108
2, 180245, Control_c, 0, 64, 127
2, 181228, Note_on_c, 0, 38, 0
2, 181268, Note_on_c, 0, 65, 0
2, 181304, Note_on_c, 0, 68, 0
2, 181500, Note_on_c, 0, 62, 0
2, 182165, Control_c, 0, 64, 104
2, 182184, Control_c, 0, 64, 79
2, 182203, Control_c, 0, 64, 64
2, 182222, Control_c, 0, 64, 0
2, 182616, Note_on_c, 0, 70, 42
2, 182716, Note_on_c, 0, 71, 0
2, 182848, Note_on_c, 0, 68, 49
2, 182986, Note_on_c, 0, 70, 0
2, 183059, Note_on_c, 0, 66, 53
2, 183098, Note_on_c, 0, 68, 0
2, 183248, Note_on_c, 0, 66, 0
2, 183278, Note_on_c, 0, 65, 52
2, 183480, Note_on_c, 0, 63, 60
2, 183499, Note_on_c, 0, 65, 0
2, 183650, Note_on_c, 0, 63, 0
2, 183686, Note_on_c, 0, 62, 56
2, 183895, Note_on_c, 0, 65, 66
2, 183908, Note_on_c, 0, 62, 0
2, 184110, Note_on_c, 0, 68, 75
2, 184140, Note_on_c, 0, 65, 0
2, 184263, Note_on_c, 0, 68, 0
2, 184300, Note_on_c, 0, 71, 75
2, 184524, Note_on_c, 0, 74, 76
2, 184560, Note_on_c, 0, 71, 0
2, 184741, Note_on_c, 0, 77, 82
2, 184790, Note_on_c, 0, 74, 0
2, 184983, Note_on_c, 0, 80, 85
2, 185051, Note_on_c, 0, 77, 0
2, 185232, Note_on_c, 0, 83, 87
2, 185273, Note_on_c, 0, 80, 0
2, 185516, Note_on_c, 0, 82, 86
2, 185582, Note_on_c, 0, 83, 0
2, 185822, Note_on_c, 0, 74, 78
2, 185884, Note_on_c, 0, 82, 0
2, 186289, Note_on_c, 0, 75, 84
2, 186364, Note_on_c, 0, 74, 0
2, 187663, Note_on_c, 0, 51, 67
2, 187664, Note_on_c, 0, 70, 79
2, 187670, Note_on_c, 0, 66, 68
2, 187674, Note_on_c, 0, 39, 61
2, 187675, Control_c, 0, 64, 49
2, 187694, Control_c, 0, 64, 69
2, 187713, Control_c, 0, 64, 83
2, 187733, Control_c, 0, 64, 127
2, 187770, Note_on_c, 0, 39, 0
2, 187796, Note_on_c, 0, 51, 0
2, 187819, Note_on_c, 0, 70, 0
2, 187849, Note_on_c, 0, 66, 0
2, 188248, Note_on_c, 0, 54, 63
2, 188248, Note_on_c, 0, 68, 85
2, 188255, Note_on_c, 0, 46, 59
2, 188255, Note_on_c, 0, 63, 74
2, 188265, Note_on_c, 0, 51, 55
2, 188308, Control_c, 0, 64, 83
2, 188328, Control_c, 0, 64, 64
2, 188347, Control_c, 0, 64, 0
2, 188706, Note_on_c, 0, 66, 75
2, 188775, Note_on_c, 0, 68, 0
2, 189057, Control_c, 0, 64, 57
2, 189076, Control_c, 0, 64, 71
2, 189096, Control_c, 0, 64, 86
2, 189115, Control_c, 0, 64, 127
2, 189341, Note_on_c, 0, 54, 0
2, 189379, Note_on_c, 0, 46, 0
2, 189441, Note_on_c, 0, 75, 0
2, 189464, Note_on_c, 0, 51, 0
2, 189498, Note_on_c, 0, 66, 0
2, 189508, Note_on_c, 0, 63, 0
2, 189851, Note_on_c, 0, 65, 55
2, 189867, Note_on_c, 0, 62, 47
2, 189888, Note_on_c, 0, 65, 0
2, 189910, Note_on_c, 0, 66, 64
2, 189944, Note_on_c, 0, 56, 62
2, 189947, Note_on_c, 0, 53, 56
2, 189954, Note_on_c, 0, 46, 53
2, 189970, Note_on_c, 0, 65, 76
2, 190000, Control_c, 0, 64, 74
2, 190018, Control_c, 0, 64, 40
2, 190023, Note_on_c, 0, 66, 0
2, 190037, Control_c, 0, 64, 0
2, 190114, Control_c, 0, 64, 38
2, 190134, Control_c, 0, 64, 63
2, 190152, Control_c, 0, 64, 69
2, 190172, Control_c, 0, 64, 81
2, 190191, Control_c, 0, 64, 110
2, 190211, Control_c, 0, 64, 127
2, 190264, Note_on_c, 0, 65, 0
2, 190540, Note_on_c, 0, 63, 74
2, 190594, Control_c, 0, 64, 97
2, 190614, Control_c, 0, 64, 68
2, 190632, Control_c, 0, 64, 0
2, 190729, Control_c, 0, 64, 50
2, 190748, Control_c, 0, 64, 64
2, 190767, Control_c, 0, 64, 72
2, 190786, Control_c, 0, 64, 85
2, 190806, Control_c, 0, 64, 112
2, 190825, Control_c, 0, 64, 127
2, 191127, Note_on_c, 0, 65, 64
2, 191170, Control_c, 0, 64, 112
2, 191181, Note_on_c, 0, 63, 0
2, 191188, Control_c, 0, 64, 68
2, 191208, Control_c, 0, 64, 0
2, 191304, Control_c, 0, 64, 52
2, 191323, Control_c, 0, 64, 67
2, 191342, Control_c, 0, 64, 79
2, 191362, Control_c, 0, 64, 123
2, 191381, Control_c, 0, 64, 127
2, 191381, Note_on_c, 0, 62, 0
2, 191506, Note_on_c, 0, 46, 0
2, 191532, Note_on_c, 0, 53, 0
2, 191553, Note_on_c, 0, 56, 0
2, 191899, Control_c, 0, 67, 12
2, 191918, Control_c, 0, 67, 19
2, 191937, Control_c, 0, 67, 28
2, 191956, Control_c, 0, 67, 42
2, 191976, Control_c, 0, 67, 58
2, 191995, Control_c, 0, 67, 75
2, 192014, Control_c, 0, 67, 93
2, 192025, Note_on_c, 0, 51, 37
2, 192033, Control_c, 0, 67, 110
2, 192053, Control_c, 0, 67, 127
2, 192071, Control_c, 0, 67, 127
2, 192162, Note_on_c, 0, 55, 27
2, 192207, Note_on_c, 0, 58, 29
2, 192382, Note_on_c, 0, 63, 45
2, 192388, Note_on_c, 0, 61, 36
2, 192417, Control_c, 0, 64, 107
2, 192436, Control_c, 0, 64, 77
2, 192438, Note_on_c, 0, 65, 0
2, 192456, Control_c, 0, 64, 57
2, 192474, Control_c, 0, 64, 0
2, 192686, Control_c, 0, 64, 55
2, 192704, Control_c, 0, 64, 59
2, 192724, Control_c, 0, 64, 60
2, 192743, Control_c, 0, 64, 63
2, 192762, Control_c, 0, 64, 65
2, 192781, Control_c, 0, 64, 68
2, 192801, Control_c, 0, 64, 74
2, 192820, Control_c, 0, 64, 88
2, 192838, Control_c, 0, 64, 108
2, 192858, Control_c, 0, 64, 127
2, 192988, Note_on_c, 0, 61, 0
2, 193010, Note_on_c, 0, 51, 0
2, 193121, Note_on_c, 0, 58, 0
2, 193129, Note_on_c, 0, 55, 0
2, 193882, Note_on_c, 0, 51, 24
2, 193982, Note_on_c, 0, 55, 22
2, 193991, Control_c, 0, 64, 112
2, 194009, Note_on_c, 0, 58, 35
2, 194010, Control_c, 0, 64, 89
2, 194029, Control_c, 0, 64, 73
2, 194049, Control_c, 0, 64, 60
2, 194067, Control_c, 0, 64, 0
2, 194089, Note_on_c, 0, 61, 33
2, 194260, Control_c, 0, 64, 41
2, 194278, Control_c, 0, 64, 61
2, 194298, Control_c, 0, 64, 65
2, 194317, Control_c, 0, 64, 68
2, 194336, Control_c, 0, 64, 73
2, 194355, Control_c, 0, 64, 80
2, 194375, Control_c, 0, 64, 91
2, 194394, Control_c, 0, 64, 121
2, 194413, Control_c, 0, 64, 127
2, 194543, Note_on_c, 0, 61, 0
2, 194567, Note_on_c, 0, 63, 0
2, 194677, Note_on_c, 0, 51, 0
2, 194798, Note_on_c, 0, 58, 0
2, 194855, Note_on_c, 0, 55, 0
2, 195133, Note_on_c, 0, 65, 42
2, 195329, Note_on_c, 0, 67, 55
2, 195377, Note_on_c, 0, 65, 0
2, 195465, Note_on_c, 0, 51, 39
2, 195501, Note_on_c, 0, 68, 68
2, 195546, Note_on_c, 0, 67, 0
2, 195557, Note_on_c, 0, 55, 29
2, 195582, Note_on_c, 0, 58, 34
2, 195718, Control_c, 0, 64, 106
2, 195738, Control_c, 0, 64, 83
2, 195757, Control_c, 0, 64, 67
2, 195770, Note_on_c, 0, 61, 32
2, 195776, Control_c, 0, 64, 47
2, 195780, Note_on_c, 0, 70, 57
2, 195795, Control_c, 0, 64, 0
2, 195838, Note_on_c, 0, 68, 0
2, 196046, Control_c, 0, 64, 36
2, 196064, Control_c, 0, 64, 62
2, 196084, Control_c, 0, 64, 67
2, 196103, Control_c, 0, 64, 71
2, 196122, Control_c, 0, 64, 77
2, 196141, Control_c, 0, 64, 86
2, 196161, Control_c, 0, 64, 99
2, 196180, Control_c, 0, 64, 127
2, 196271, Note_on_c, 0, 61, 0
2, 196426, Note_on_c, 0, 51, 0
2, 196432, Note_on_c, 0, 70, 0
2, 196484, Note_on_c, 0, 58, 0
2, 196521, Note_on_c, 0, 55, 0
2, 196812, Note_on_c, 0, 64, 43
2, 197045, Note_on_c, 0, 63, 51
2, 197079, Note_on_c, 0, 64, 0
2, 197227, Note_on_c, 0, 61, 54
2, 197274, Note_on_c, 0, 63, 0
2, 197303, Note_on_c, 0, 61, 0
2, 197428, Control_c, 0, 64, 100
2, 197448, Control_c, 0, 64, 79
2, 197467, Control_c, 0, 64, 65
2, 197474, Note_on_c, 0, 61, 42
2, 197487, Control_c, 0, 64, 38
2, 197490, Note_on_c, 0, 51, 29
2, 197501, Note_on_c, 0, 56, 27
2, 197505, Control_c, 0, 64, 0
2, 197697, Control_c, 0, 64, 39
2, 197716, Control_c, 0, 64, 57
2, 197736, Control_c, 0, 64, 62
2, 197755, Control_c, 0, 64, 64
2, 197774, Control_c, 0, 64, 66
2, 197793, Control_c, 0, 64, 69
2, 197813, Control_c, 0, 64, 73
2, 197831, Control_c, 0, 64, 79
2, 197851, Control_c, 0, 64, 86
2, 197870, Control_c, 0, 64, 93
2, 197890, Control_c, 0, 64, 98
2, 197908, Control_c, 0, 64, 100
2, 197967, Control_c, 0, 64, 101
2, 198101, Control_c, 0, 64, 100
2, 198139, Control_c, 0, 64, 100
2, 198177, Control_c, 0, 64, 99
2, 198196, Control_c, 0, 64, 99
2, 198253, Control_c, 0, 64, 98
2, 198272, Control_c, 0, 64, 98
2, 198311, Control_c, 0, 64, 97
2, 198349, Control_c, 0, 64, 96
2, 198369, Control_c, 0, 64, 95
2, 198387, Control_c, 0, 64, 91
2, 198407, Control_c, 0, 64, 80
2, 198410, Note_on_c, 0, 59, 37
2, 198426, Control_c, 0, 64, 67
2, 198446, Control_c, 0, 64, 45
2, 198464, Control_c, 0, 64, 0
2, 198473, Note_on_c, 0, 61, 0
2, 198561, Control_c, 0, 64, 17
2, 198580, Control_c, 0, 64, 53
2, 198598, Control_c, 0, 64, 63
2, 198618, Control_c, 0, 64, 67
2, 198637, Control_c, 0, 64, 71
2, 198656, Control_c, 0, 64, 77
2, 198675, Control_c, 0, 64, 85
2, 198695, Control_c, 0, 64, 93
2, 198714, Control_c, 0, 64, 101
2, 198718, Note_on_c, 0, 56, 0
2, 198733, Control_c, 0, 64, 112
2, 198741, Note_on_c, 0, 51, 0
2, 198752, Control_c, 0, 64, 127
2, 199262, Note_on_c, 0, 56, 38
2, 199265, Note_on_c, 0, 51, 29
2, 199271, Control_c, 0, 64, 113
2, 199290, Control_c, 0, 64, 94
2, 199309, Control_c, 0, 64, 76
2, 199329, Control_c, 0, 64, 63
2, 199347, Control_c, 0, 64, 0
2, 199444, Control_c, 0, 64, 42
2, 199463, Control_c, 0, 64, 60
2, 199482, Control_c, 0, 64, 65
2, 199501, Control_c, 0, 64, 70
2, 199521, Control_c, 0, 64, 77
2, 199540, Control_c, 0, 64, 88
2, 199558, Control_c, 0, 64, 103
2, 199578, Control_c, 0, 64, 127
2, 199583, Note_on_c, 0, 59, 0
2, 199903, Note_on_c, 0, 63, 42
2, 200071, Note_on_c, 0, 63, 0
2, 200113, Note_on_c, 0, 65, 46
2, 200303, Note_on_c, 0, 67, 60
2, 200336, Note_on_c, 0, 65, 0
2, 200394, Note_on_c, 0, 56, 0
2, 200399, Note_on_c, 0, 51, 0
2, 200487, Note_on_c, 0, 68, 71
2, 200527, Note_on_c, 0, 67, 0
2, 200672, Note_on_c, 0, 70, 76
2, 200743, Note_on_c, 0, 68, 0
2, 200952, Note_on_c, 0, 56, 32
2, 200964, Note_on_c, 0, 51, 33
2, 200988, Note_on_c, 0, 71, 58
2, 200999, Control_c, 0, 64, 119
2, 201014, Note_on_c, 0, 70, 0
2, 201019, Control_c, 0, 64, 96
2, 201038, Control_c, 0, 64, 78
2, 201057, Control_c, 0, 64, 64
2, 201076, Control_c, 0, 64, 0
2, 201211, Control_c, 0, 64, 23
2, 201230, Control_c, 0, 64, 55
2, 201250, Control_c, 0, 64, 63
2, 201268, Control_c, 0, 64, 65
2, 201288, Control_c, 0, 64, 68
2, 201307, Control_c, 0, 64, 71
2, 201327, Control_c, 0, 64, 76
2, 201345, Control_c, 0, 64, 82
2, 201365, Control_c, 0, 64, 89
2, 201384, Control_c, 0, 64, 93
2, 201403, Control_c, 0, 64, 95
2, 201422, Control_c, 0, 64, 96
2, 201442, Control_c, 0, 64, 96
2, 201461, Control_c, 0, 64, 97
2, 201477, Control_c, 0, 64, 98
2, 201497, Control_c, 0, 64, 98
2, 201581, Note_on_c, 0, 70, 55
2, 201593, Control_c, 0, 64, 99
2, 201631, Note_on_c, 0, 71, 0
2, 201657, Note_on_c, 0, 68, 58
2, 201659, Note_on_c, 0, 70, 0
2, 201670, Control_c, 0, 64, 98
2, 201708, Control_c, 0, 64, 98
2, 201728, Control_c, 0, 64, 97
2, 201731, Note_on_c, 0, 66, 55
2, 201746, Control_c, 0, 64, 95
2, 201758, Note_on_c, 0, 68, 0
2, 201766, Control_c, 0, 64, 90
2, 201785, Control_c, 0, 64, 82
2, 201805, Control_c, 0, 64, 71
2, 201817, Note_on_c, 0, 65, 50
2, 201823, Control_c, 0, 64, 60
2, 201831, Note_on_c, 0, 66, 0
2, 201843, Control_c, 0, 64, 0
2, 202024, Note_on_c, 0, 66, 56
2, 202079, Note_on_c, 0, 65, 0
2, 202224, Note_on_c, 0, 68, 65
2, 202228, Note_on_c, 0, 66, 0
2, 202381, Control_c, 0, 64, 40
2, 202400, Control_c, 0, 64, 54
2, 202405, Note_on_c, 0, 51, 0
2, 202420, Control_c, 0, 64, 60
2, 202426, Note_on_c, 0, 65, 52
2, 202438, Control_c, 0, 64, 63
2, 202458, Control_c, 0, 64, 64
2, 202458, Note_on_c, 0, 68, 0
2, 202477, Control_c, 0, 64, 66
2, 202497, Control_c, 0, 64, 67
2, 202515, Control_c, 0, 64, 69
2, 202535, Control_c, 0, 64, 71
2, 202554, Control_c, 0, 64, 74
2, 202573, Control_c, 0, 64, 78
2, 202592, Control_c, 0, 64, 82
2, 202612, Control_c, 0, 64, 84
2, 202631, Control_c, 0, 64, 85
2, 202727, Control_c, 0, 64, 86
2, 202740, Note_on_c, 0, 51, 30
2, 202749, Note_on_c, 0, 53, 38
2, 202784, Control_c, 0, 64, 85
2, 202787, Note_on_c, 0, 65, 0
2, 202796, Note_on_c, 0, 62, 50
2, 202804, Control_c, 0, 64, 85
2, 202823, Control_c, 0, 64, 84
2, 202842, Control_c, 0, 64, 83
2, 202861, Control_c, 0, 64, 79
2, 202880, Control_c, 0, 64, 71
2, 202900, Control_c, 0, 64, 61
2, 202916, Note_on_c, 0, 56, 0
2, 202918, Control_c, 0, 64, 0
2, 203071, Control_c, 0, 64, 46
2, 203091, Control_c, 0, 64, 61
2, 203110, Control_c, 0, 64, 64
2, 203129, Control_c, 0, 64, 65
2, 203148, Control_c, 0, 64, 68
2, 203168, Control_c, 0, 64, 71
2, 203186, Control_c, 0, 64, 77
2, 203206, Control_c, 0, 64, 86
2, 203225, Control_c, 0, 64, 99
2, 203245, Control_c, 0, 64, 127
2, 203428, Note_on_c, 0, 53, 0
2, 203477, Note_on_c, 0, 51, 0
2, 204063, Note_on_c, 0, 59, 47
2, 204255, Note_on_c, 0, 59, 0
2, 204260, Note_on_c, 0, 58, 48
2, 204372, Note_on_c, 0, 58, 0
2, 204588, Control_c, 0, 64, 110
2, 204596, Note_on_c, 0, 59, 39
2, 204608, Control_c, 0, 64, 84
2, 204615, Note_on_c, 0, 53, 36
2, 204622, Note_on_c, 0, 51, 22
2, 204626, Control_c, 0, 64, 69
2, 204646, Control_c, 0, 64, 52
2, 204665, Control_c, 0, 64, 0
2, 205068, Control_c, 0, 64, 43
2, 205088, Control_c, 0, 64, 56
2, 205106, Control_c, 0, 64, 62
2, 205126, Control_c, 0, 64, 65
2, 205145, Control_c, 0, 64, 67
2, 205165, Control_c, 0, 64, 70
2, 205183, Control_c, 0, 64, 74
2, 205203, Control_c, 0, 64, 82
2, 205222, Control_c, 0, 64, 90
2, 205242, Control_c, 0, 64, 102
2, 205260, Control_c, 0, 64, 127
2, 205526, Note_on_c, 0, 59, 0
2, 205559, Note_on_c, 0, 51, 0
2, 205582, Note_on_c, 0, 53, 0
2, 205709, Note_on_c, 0, 62, 0
2, 206064, Note_on_c, 0, 56, 42
2, 206186, Note_on_c, 0, 56, 0
2, 206588, Note_on_c, 0, 53, 37
2, 206612, Note_on_c, 0, 51, 30
2, 206683, Control_c, 0, 64, 95
2, 206702, Control_c, 0, 64, 76
2, 206722, Control_c, 0, 64, 60
2, 206741, Control_c, 0, 64, 0
2, 206913, Control_c, 0, 64, 48
2, 206933, Control_c, 0, 64, 60
2, 206951, Control_c, 0, 64, 64
2, 206971, Control_c, 0, 64, 66
2, 206990, Control_c, 0, 64, 69
2, 207010, Control_c, 0, 64, 75
2, 207028, Control_c, 0, 64, 84
2, 207048, Control_c, 0, 64, 96
2, 207067, Control_c, 0, 64, 116
2, 207087, Control_c, 0, 64, 127
2, 207491, Note_on_c, 0, 53, 0
2, 207517, Note_on_c, 0, 51, 0
2, 208062, Note_on_c, 0, 62, 41
2, 208568, Note_on_c, 0, 39, 33
2, 208666, Note_on_c, 0, 62, 0
2, 208901, Note_on_c, 0, 46, 41
2, 209220, Note_on_c, 0, 51, 37
2, 209548, Note_on_c, 0, 55, 38
2, 209676, Control_c, 0, 64, 111
2, 209696, Control_c, 0, 64, 102
2, 209714, Control_c, 0, 64, 95
2, 209734, Control_c, 0, 64, 88
2, 209753, Control_c, 0, 64, 80
2, 209772, Control_c, 0, 64, 74
2, 209791, Control_c, 0, 64, 69
2, 209811, Control_c, 0, 64, 65
2, 209830, Control_c, 0, 64, 62
2, 209849, Control_c, 0, 64, 59
2, 209868, Control_c, 0, 64, 55
2, 209888, Control_c, 0, 64, 46
2, 209893, Note_on_c, 0, 58, 33
2, 209906, Control_c, 0, 64, 27
2, 209926, Control_c, 0, 64, 0
2, 210436, Note_on_c, 0, 63, 33
2, 210906, Control_c, 0, 64, 32
2, 210926, Control_c, 0, 64, 47
2, 210944, Control_c, 0, 64, 56
2, 210964, Control_c, 0, 64, 60
2, 210983, Control_c, 0, 64, 63
2, 211001, Control_c, 0, 64, 64
2, 211021, Control_c, 0, 64, 66
2, 211040, Control_c, 0, 64, 67
2, 211060, Control_c, 0, 64, 70
2, 211078, Control_c, 0, 64, 75
2, 211098, Control_c, 0, 64, 81
2, 211117, Control_c, 0, 64, 89
2, 211137, Control_c, 0, 64, 97
2, 211155, Control_c, 0, 64, 110
2, 211175, Control_c, 0, 64, 127
2, 212733, Note_on_c, 0, 39, 0
2, 212779, Note_on_c, 0, 51, 0
2, 212874, Note_on_c, 0, 46, 0
2, 212905, Note_on_c, 0, 55, 0
2, 213106, Note_on_c, 0, 63, 0
2, 213107, Note_on_c, 0, 58, 0
2, 213900, Control_c, 0, 64, 123
2, 213919, Control_c, 0, 64, 117
2, 213939, Control_c, 0, 64, 111
2, 213957, Control_c, 0, 64, 105
2, 213977, Control_c, 0, 64, 101
2, 213996, Control_c, 0, 64, 97
2, 214016, Control_c, 0, 64, 94
2, 214034, Control_c, 0, 64, 91
2, 214054, Control_c, 0, 64, 87
2, 214073, Control_c, 0, 64, 83
2, 214092, Control_c, 0, 64, 79
2, 214111, Control_c, 0, 64, 75
2, 214131, Control_c, 0, 64, 72
2, 214150, Control_c, 0, 64, 69
2, 214169, Control_c, 0, 64, 67
2, 214188, Control_c, 0, 64, 65
2, 214208, Control_c, 0, 64, 64
2, 214226, Control_c, 0, 64, 64
2, 214246, Control_c, 0, 64, 63
2, 214265, Control_c, 0, 64, 62
2, 214285, Control_c, 0, 64, 61
2, 214303, Control_c, 0, 64, 60
2, 214322, Control_c, 0, 64, 60
2, 214342, Control_c, 0, 64, 59
2, 214361, Control_c, 0, 64, 57
2, 214380, Control_c, 0, 64, 55
2, 214399, Control_c, 0, 64, 53
2, 214419, Control_c, 0, 64, 50
2, 214437, Control_c, 0, 64, 44
2, 214457, Control_c, 0, 64, 36
2, 214476, Control_c, 0, 64, 18
2, 214496, Control_c, 0, 64, 0
2, 215186, Control_c, 0, 64, 9
2, 215206, Control_c, 0, 64, 11
2, 215263, Control_c, 0, 64, 13
2, 215321, Control_c, 0, 64, 15
2, 215379, Control_c, 0, 64, 17
2, 215397, Control_c, 0, 64, 18
2, 215494, Control_c, 0, 64, 19
2, 215609, Control_c, 0, 64, 20
2, 215666, Control_c, 0, 64, 21
2, 215705, Control_c, 0, 64, 22
2, 215725, Control_c, 0, 64, 23
2, 215762, Control_c, 0, 64, 24
2, 215801, Control_c, 0, 64, 25
2, 215839, Control_c, 0, 64, 26
2, 215879, Control_c, 0, 67, 123
2, 215899, Control_c, 0, 67, 117
2, 215918, Control_c, 0, 67, 109
2, 215937, Control_c, 0, 64, 27
2, 215937, Control_c, 0, 67, 100
2, 215956, Control_c, 0, 64, 27
2, 215956, Control_c, 0, 67, 85
2, 215976, Control_c, 0, 64, 28
2, 215976, Control_c, 0, 67, 73
2, 215995, Control_c, 0, 67, 62
2, 216014, Control_c, 0, 64, 29
2, 216014, Control_c, 0, 67, 55
2, 216033, Control_c, 0, 67, 50
2, 216053, Control_c, 0, 67, 44
2, 216071, Control_c, 0, 64, 29
2, 216071, Control_c, 0, 67, 34
2, 216091, Control_c, 0, 67, 20
2, 216110, Control_c, 0, 67, 0
2, 216148, Control_c, 0, 64, 30
2, 216187, Control_c, 0, 64, 31
2, 216207, Control_c, 0, 64, 31
2, 216282, Control_c, 0, 64, 32
2, 216341, Control_c, 0, 64, 32
2, 216359, Control_c, 0, 64, 33
2, 216398, Control_c, 0, 64, 34
2, 216417, Control_c, 0, 64, 34
2, 216436, Control_c, 0, 64, 35
2, 216512, Control_c, 0, 64, 35
2, 216570, Control_c, 0, 64, 36
2, 216627,End_track
0, 0, End_of_file
