0, 0, Header, 1, 2, 480
1, 0, Start_track
1, 0, Tempo, 500000
1, 0, Time_signature, 4, 2, 24, 8
1, 1, End_track
2, 0, Start_track
2, 0, Program_c, 0, 0
2, 0, Control_c, 0, 64, 41
2, 45, Control_c, 0, 64, 40
2, 83, Control_c, 0, 64, 40
2, 103, Control_c, 0, 64, 39
2, 122, Control_c, 0, 64, 39
2, 141, Control_c, 0, 64, 38
2, 160, Control_c, 0, 64, 38
2, 179, Control_c, 0, 64, 36
2, 199, Control_c, 0, 64, 35
2, 217, Control_c, 0, 64, 32
2, 237, Control_c, 0, 64, 31
2, 256, Control_c, 0, 64, 28
2, 275, Control_c, 0, 64, 24
2, 294, Control_c, 0, 64, 17
2, 314, Control_c, 0, 64, 0
2, 974, Note_on_c, 0, 70, 49
2, 994, Note_on_c, 0, 66, 38
2, 1002, Note_on_c, 0, 63, 34
2, 1154, Control_c, 0, 64, 35
2, 1174, Control_c, 0, 64, 58
2, 1192, Control_c, 0, 64, 64
2, 1212, Control_c, 0, 64, 67
2, 1231, Control_c, 0, 64, 73
2, 1250, Control_c, 0, 64, 81
2, 1269, Control_c, 0, 64, 91
2, 1289, Control_c, 0, 64, 106
2, 1308, Control_c, 0, 64, 127
2, 1550, Note_on_c, 0, 66, 0
2, 1590, Note_on_c, 0, 63, 0
2, 1933, Note_on_c, 0, 70, 0
2, 2404, Note_on_c, 0, 66, 29
2, 2409, Note_on_c, 0, 63, 31
2, 2519, Control_c, 0, 64, 92
2, 2539, Control_c, 0, 64, 73
2, 2557, Control_c, 0, 64, 61
2, 2577, Control_c, 0, 64, 0
2, 2673, Control_c, 0, 64, 9
2, 2692, Control_c, 0, 64, 49
2, 2711, Control_c, 0, 64, 62
2, 2731, Control_c, 0, 64, 65
2, 2750, Control_c, 0, 64, 69
2, 2768, Control_c, 0, 64, 74
2, 2788, Control_c, 0, 64, 84
2, 2807, Control_c, 0, 64, 99
2, 2827, Control_c, 0, 64, 127
2, 3085, Note_on_c, 0, 66, 0
2, 3135, Note_on_c, 0, 63, 0
2, 3494, Note_on_c, 0, 70, 51
2, 3860, Note_on_c, 0, 75, 51
2, 3890, Note_on_c, 0, 63, 28
2, 3891, Note_on_c, 0, 66, 24
2, 3921, Control_c, 0, 64, 99
2, 3940, Control_c, 0, 64, 73
2, 3959, Control_c, 0, 64, 55
2, 3979, Control_c, 0, 64, 0
2, 4019, Note_on_c, 0, 70, 0
2, 4113, Control_c, 0, 64, 11
2, 4133, Control_c, 0, 64, 51
2, 4151, Control_c, 0, 64, 60
2, 4171, Control_c, 0, 64, 64
2, 4190, Control_c, 0, 64, 67
2, 4208, Control_c, 0, 64, 71
2, 4228, Control_c, 0, 64, 82
2, 4247, Control_c, 0, 64, 97
2, 4267, Control_c, 0, 64, 127
2, 4486, Note_on_c, 0, 66, 0
2, 4488, Note_on_c, 0, 63, 0
2, 4533, Note_on_c, 0, 75, 0
2, 4932, Note_on_c, 0, 78, 56
2, 5230, Note_on_c, 0, 78, 0
2, 5324, Note_on_c, 0, 63, 33
2, 5328, Note_on_c, 0, 68, 34
2, 5338, Note_on_c, 0, 71, 48
2, 5380, Control_c, 0, 64, 117
2, 5399, Control_c, 0, 64, 83
2, 5419, Control_c, 0, 64, 66
2, 5437, Control_c, 0, 64, 29
2, 5457, Control_c, 0, 64, 0
2, 5591, Control_c, 0, 64, 32
2, 5611, Control_c, 0, 64, 56
2, 5630, Control_c, 0, 64, 63
2, 5648, Control_c, 0, 64, 66
2, 5668, Control_c, 0, 64, 71
2, 5687, Control_c, 0, 64, 80
2, 5707, Control_c, 0, 64, 94
2, 5725, Control_c, 0, 64, 127
2, 5859, Note_on_c, 0, 63, 0
2, 5892, Note_on_c, 0, 68, 0
2, 5910, Note_on_c, 0, 71, 0
2, 6823, Note_on_c, 0, 71, 37
2, 6833, Note_on_c, 0, 68, 29
2, 6835, Note_on_c, 0, 63, 35
2, 6859, Control_c, 0, 64, 103
2, 6877, Control_c, 0, 64, 78
2, 6897, Control_c, 0, 64, 63
2, 6916, Control_c, 0, 64, 0
2, 7051, Control_c, 0, 64, 43
2, 7070, Control_c, 0, 64, 60
2, 7088, Control_c, 0, 64, 64
2, 7108, Control_c, 0, 64, 69
2, 7127, Control_c, 0, 64, 76
2, 7147, Control_c, 0, 64, 87
2, 7165, Control_c, 0, 64, 106
2, 7185, Control_c, 0, 64, 127
2, 7321, Note_on_c, 0, 63, 0
2, 7334, Note_on_c, 0, 71, 0
2, 7410, Note_on_c, 0, 68, 0
2, 7924, Note_on_c, 0, 75, 57
2, 8287, Note_on_c, 0, 80, 60
2, 8307, Note_on_c, 0, 63, 27
2, 8314, Note_on_c, 0, 71, 30
2, 8319, Note_on_c, 0, 68, 18
2, 8356, Control_c, 0, 64, 113
2, 8376, Control_c, 0, 64, 81
2, 8394, Control_c, 0, 64, 64
2, 8414, Control_c, 0, 64, 0
2, 8479, Note_on_c, 0, 75, 0
2, 8547, Control_c, 0, 64, 39
2, 8566, Control_c, 0, 64, 60
2, 8586, Control_c, 0, 64, 65
2, 8604, Control_c, 0, 64, 70
2, 8624, Control_c, 0, 64, 78
2, 8643, Control_c, 0, 64, 92
2, 8662, Control_c, 0, 64, 127
2, 8786, Note_on_c, 0, 71, 0
2, 8923, Note_on_c, 0, 68, 0
2, 8933, Note_on_c, 0, 80, 0
2, 8962, Note_on_c, 0, 63, 0
2, 9398, Note_on_c, 0, 83, 62
2, 9783, Note_on_c, 0, 68, 23
2, 9797, Note_on_c, 0, 63, 30
2, 9808, Note_on_c, 0, 74, 51
2, 9814, Note_on_c, 0, 65, 25
2, 9840, Note_on_c, 0, 83, 0
2, 9892, Control_c, 0, 64, 87
2, 9911, Control_c, 0, 64, 67
2, 9931, Control_c, 0, 64, 28
2, 9950, Control_c, 0, 64, 0
2, 10083, Control_c, 0, 64, 41
2, 10102, Control_c, 0, 64, 60
2, 10121, Control_c, 0, 64, 64
2, 10141, Control_c, 0, 64, 68
2, 10160, Control_c, 0, 64, 73
2, 10179, Control_c, 0, 64, 82
2, 10198, Control_c, 0, 64, 97
2, 10218, Control_c, 0, 64, 127
2, 10372, Note_on_c, 0, 68, 0
2, 10393, Note_on_c, 0, 65, 0
2, 10417, Note_on_c, 0, 63, 0
2, 10942, Note_on_c, 0, 74, 0
2, 11268, Note_on_c, 0, 62, 33
2, 11287, Note_on_c, 0, 68, 33
2, 11304, Note_on_c, 0, 65, 32
2, 11372, Control_c, 0, 64, 117
2, 11392, Control_c, 0, 64, 82
2, 11411, Control_c, 0, 64, 65
2, 11431, Control_c, 0, 64, 15
2, 11450, Control_c, 0, 64, 0
2, 11585, Control_c, 0, 64, 49
2, 11604, Control_c, 0, 64, 60
2, 11623, Control_c, 0, 64, 64
2, 11642, Control_c, 0, 64, 67
2, 11661, Control_c, 0, 64, 71
2, 11680, Control_c, 0, 64, 78
2, 11699, Control_c, 0, 64, 88
2, 11719, Control_c, 0, 64, 105
2, 11738, Control_c, 0, 64, 127
2, 11845, Note_on_c, 0, 68, 0
2, 11901, Note_on_c, 0, 65, 0
2, 11912, Note_on_c, 0, 62, 0
2, 12317, Note_on_c, 0, 77, 58
2, 12394, Note_on_c, 0, 77, 0
2, 12701, Note_on_c, 0, 70, 54
2, 12705, Note_on_c, 0, 62, 32
2, 12722, Note_on_c, 0, 65, 30
2, 12794, Control_c, 0, 64, 110
2, 12811, Note_on_c, 0, 70, 0
2, 12813, Control_c, 0, 64, 82
2, 12826, Note_on_c, 0, 68, 56
2, 12833, Control_c, 0, 64, 66
2, 12851, Control_c, 0, 64, 41
2, 12871, Control_c, 0, 64, 0
2, 12894, Note_on_c, 0, 68, 0
2, 12938, Note_on_c, 0, 70, 51
2, 13013, Note_on_c, 0, 70, 0
2, 13032, Note_on_c, 0, 68, 48
2, 13274, Control_c, 0, 64, 26
2, 13293, Control_c, 0, 64, 50
2, 13313, Control_c, 0, 64, 60
2, 13331, Control_c, 0, 64, 63
2, 13351, Control_c, 0, 64, 66
2, 13364, Note_on_c, 0, 65, 0
2, 13370, Control_c, 0, 64, 70
2, 13389, Control_c, 0, 64, 77
2, 13408, Control_c, 0, 64, 89
2, 13428, Control_c, 0, 64, 112
2, 13447, Control_c, 0, 64, 127
2, 13449, Note_on_c, 0, 62, 0
2, 13530, Note_on_c, 0, 68, 0
2, 13592, Note_on_c, 0, 66, 45
2, 13790, Note_on_c, 0, 68, 56
2, 13838, Note_on_c, 0, 66, 0
2, 13929, Note_on_c, 0, 70, 56
2, 13934, Note_on_c, 0, 68, 0
2, 13983, Note_on_c, 0, 70, 0
2, 14115, Note_on_c, 0, 63, 36
2, 14151, Note_on_c, 0, 68, 41
2, 14237, Note_on_c, 0, 68, 0
2, 14254, Control_c, 0, 64, 99
2, 14268, Note_on_c, 0, 66, 48
2, 14274, Control_c, 0, 64, 76
2, 14293, Control_c, 0, 64, 64
2, 14313, Control_c, 0, 64, 29
2, 14332, Control_c, 0, 64, 0
2, 14335, Note_on_c, 0, 66, 0
2, 14380, Note_on_c, 0, 68, 48
2, 14442, Note_on_c, 0, 68, 0
2, 14468, Note_on_c, 0, 66, 50
2, 14535, Note_on_c, 0, 66, 0
2, 14563, Note_on_c, 0, 68, 59
2, 14632, Note_on_c, 0, 68, 0
2, 14664, Note_on_c, 0, 66, 54
2, 14735, Note_on_c, 0, 66, 0
2, 14774, Note_on_c, 0, 68, 61
2, 14827, Note_on_c, 0, 68, 0
2, 14855, Note_on_c, 0, 66, 52
2, 14920, Note_on_c, 0, 66, 0
2, 14952, Note_on_c, 0, 68, 61
2, 15011, Note_on_c, 0, 68, 0
2, 15051, Note_on_c, 0, 66, 44
2, 15097, Note_on_c, 0, 66, 0
2, 15145, Note_on_c, 0, 68, 46
2, 15204, Note_on_c, 0, 68, 0
2, 15212, Note_on_c, 0, 66, 53
2, 15349, Note_on_c, 0, 66, 0
2, 15357, Note_on_c, 0, 63, 0
2, 15358, Note_on_c, 0, 65, 41
2, 15592, Note_on_c, 0, 63, 42
2, 15601, Note_on_c, 0, 65, 0
2, 15910, Note_on_c, 0, 78, 49
2, 16000, Note_on_c, 0, 63, 0
2, 16403, Control_c, 0, 64, 39
2, 16421, Control_c, 0, 64, 55
2, 16441, Control_c, 0, 64, 61
2, 16460, Control_c, 0, 64, 65
2, 16479, Control_c, 0, 64, 68
2, 16498, Control_c, 0, 64, 73
2, 16518, Control_c, 0, 64, 81
2, 16537, Control_c, 0, 64, 91
2, 16556, Control_c, 0, 64, 104
2, 16575, Control_c, 0, 64, 127
2, 16945, Note_on_c, 0, 78, 0
2, 17196, Note_on_c, 0, 58, 40
2, 17513, Note_on_c, 0, 66, 34
2, 17562, Note_on_c, 0, 70, 47
2, 17620, Note_on_c, 0, 75, 50
2, 17653, Note_on_c, 0, 54, 41
2, 17679, Note_on_c, 0, 78, 55
2, 17786, Control_c, 0, 64, 79
2, 17792, Note_on_c, 0, 58, 0
2, 17806, Control_c, 0, 64, 59
2, 17825, Control_c, 0, 64, 0
2, 17960, Control_c, 0, 64, 53
2, 17979, Control_c, 0, 64, 63
2, 17998, Control_c, 0, 64, 66
2, 18017, Control_c, 0, 64, 70
2, 18037, Control_c, 0, 64, 78
2, 18056, Control_c, 0, 64, 94
2, 18075, Control_c, 0, 64, 127
2, 18282, Note_on_c, 0, 66, 0
2, 18349, Note_on_c, 0, 54, 0
2, 18412, Note_on_c, 0, 70, 0
2, 18463, Note_on_c, 0, 78, 0
2, 18497, Note_on_c, 0, 75, 0
2, 18923, Note_on_c, 0, 51, 55
2, 19253, Note_on_c, 0, 66, 51
2, 19317, Note_on_c, 0, 70, 59
2, 19362, Note_on_c, 0, 73, 59
2, 19412, Note_on_c, 0, 46, 47
2, 19453, Note_on_c, 0, 78, 65
2, 19483, Note_on_c, 0, 51, 0
2, 19534, Control_c, 0, 64, 86
2, 19553, Control_c, 0, 64, 64
2, 19572, Control_c, 0, 64, 0
2, 19765, Control_c, 0, 64, 62
2, 19783, Control_c, 0, 64, 67
2, 19803, Control_c, 0, 64, 74
2, 19822, Control_c, 0, 64, 85
2, 19842, Control_c, 0, 64, 105
2, 19860, Control_c, 0, 64, 127
2, 20015, Note_on_c, 0, 46, 0
2, 20168, Note_on_c, 0, 66, 0
2, 20320, Note_on_c, 0, 70, 0
2, 20429, Note_on_c, 0, 73, 0
2, 20458, Note_on_c, 0, 78, 0
2, 20936, Note_on_c, 0, 46, 38
2, 21002, Note_on_c, 0, 49, 41
2, 21046, Note_on_c, 0, 54, 47
2, 21121, Note_on_c, 0, 58, 48
2, 21147, Control_c, 0, 64, 113
2, 21166, Control_c, 0, 64, 75
2, 21185, Control_c, 0, 64, 53
2, 21205, Control_c, 0, 64, 0
2, 21377, Control_c, 0, 64, 54
2, 21397, Control_c, 0, 64, 65
2, 21416, Control_c, 0, 64, 73
2, 21432, Control_c, 0, 64, 85
2, 21451, Control_c, 0, 64, 116
2, 21471, Control_c, 0, 64, 127
2, 21626, Note_on_c, 0, 58, 0
2, 21639, Note_on_c, 0, 46, 0
2, 21763, Note_on_c, 0, 54, 0
2, 21820, Note_on_c, 0, 49, 0
2, 22172, Note_on_c, 0, 78, 58
2, 22377, Note_on_c, 0, 76, 63
2, 22547, Note_on_c, 0, 75, 66
2, 22552, Note_on_c, 0, 46, 40
2, 22564, Note_on_c, 0, 76, 0
2, 22581, Note_on_c, 0, 78, 0
2, 22633, Note_on_c, 0, 49, 37
2, 22679, Note_on_c, 0, 54, 38
2, 22809, Note_on_c, 0, 58, 37
2, 22814, Control_c, 0, 64, 91
2, 22826, Note_on_c, 0, 76, 62
2, 22834, Control_c, 0, 64, 70
2, 22853, Control_c, 0, 64, 49
2, 22854, Note_on_c, 0, 75, 0
2, 22872, Control_c, 0, 64, 0
2, 23122, Control_c, 0, 64, 23
2, 23140, Control_c, 0, 64, 58
2, 23160, Control_c, 0, 64, 64
2, 23179, Control_c, 0, 64, 68
2, 23199, Control_c, 0, 64, 74
2, 23217, Control_c, 0, 64, 91
2, 23237, Control_c, 0, 64, 127
2, 23283, Note_on_c, 0, 58, 0
2, 23374, Note_on_c, 0, 46, 0
2, 23386, Note_on_c, 0, 76, 0
2, 23439, Note_on_c, 0, 54, 0
2, 23475, Note_on_c, 0, 49, 0
2, 24006, Note_on_c, 0, 73, 53
2, 24065, Note_on_c, 0, 73, 0
2, 24176, Note_on_c, 0, 47, 36
2, 24250, Note_on_c, 0, 51, 31
2, 24303, Note_on_c, 0, 54, 31
2, 24354, Note_on_c, 0, 63, 35
2, 24380, Note_on_c, 0, 66, 45
2, 24392, Note_on_c, 0, 59, 38
2, 24425, Note_on_c, 0, 71, 55
2, 24466, Control_c, 0, 64, 91
2, 24485, Control_c, 0, 64, 72
2, 24505, Control_c, 0, 64, 56
2, 24523, Control_c, 0, 64, 0
2, 24532, Note_on_c, 0, 75, 55
2, 24792, Control_c, 0, 64, 50
2, 24811, Control_c, 0, 64, 60
2, 24831, Control_c, 0, 64, 63
2, 24849, Control_c, 0, 64, 66
2, 24869, Control_c, 0, 64, 70
2, 24888, Control_c, 0, 64, 79
2, 24908, Control_c, 0, 64, 98
2, 24926, Control_c, 0, 64, 127
2, 25027, Note_on_c, 0, 63, 0
2, 25105, Note_on_c, 0, 66, 0
2, 25155, Note_on_c, 0, 71, 0
2, 25257, Note_on_c, 0, 75, 0
2, 25312, Note_on_c, 0, 59, 0
2, 25654, Note_on_c, 0, 47, 0
2, 25667, Note_on_c, 0, 54, 0
2, 25776, Note_on_c, 0, 51, 0
2, 25974, Note_on_c, 0, 66, 31
2, 26028, Note_on_c, 0, 71, 39
2, 26088, Note_on_c, 0, 75, 47
2, 26155, Control_c, 0, 64, 108
2, 26174, Control_c, 0, 64, 79
2, 26194, Control_c, 0, 64, 63
2, 26213, Control_c, 0, 64, 0
2, 26577, Control_c, 0, 64, 15
2, 26597, Control_c, 0, 64, 47
2, 26616, Control_c, 0, 64, 59
2, 26635, Control_c, 0, 64, 64
2, 26654, Control_c, 0, 64, 68
2, 26674, Control_c, 0, 64, 73
2, 26693, Control_c, 0, 64, 82
2, 26712, Control_c, 0, 64, 94
2, 26731, Control_c, 0, 64, 117
2, 26751, Control_c, 0, 64, 127
2, 27285, Note_on_c, 0, 66, 0
2, 27329, Note_on_c, 0, 71, 0
2, 27369, Note_on_c, 0, 75, 0
2, 27410, Note_on_c, 0, 54, 45
2, 27758, Note_on_c, 0, 66, 38
2, 27817, Note_on_c, 0, 71, 41
2, 27846, Note_on_c, 0, 51, 43
2, 27864, Note_on_c, 0, 75, 58
2, 27951, Note_on_c, 0, 54, 0
2, 27980, Control_c, 0, 64, 85
2, 27999, Control_c, 0, 64, 65
2, 28018, Control_c, 0, 64, 0
2, 28172, Control_c, 0, 64, 41
2, 28192, Control_c, 0, 64, 60
2, 28210, Control_c, 0, 64, 65
2, 28230, Control_c, 0, 64, 68
2, 28249, Control_c, 0, 64, 73
2, 28269, Control_c, 0, 64, 84
2, 28287, Control_c, 0, 64, 104
2, 28307, Control_c, 0, 64, 127
2, 28452, Note_on_c, 0, 51, 0
2, 28529, Note_on_c, 0, 66, 0
2, 28610, Note_on_c, 0, 71, 0
2, 28767, Note_on_c, 0, 75, 0
2, 29154, Note_on_c, 0, 47, 59
2, 29518, Note_on_c, 0, 70, 51
2, 29586, Note_on_c, 0, 75, 55
2, 29664, Note_on_c, 0, 82, 74
2, 29673, Note_on_c, 0, 43, 44
2, 29727, Control_c, 0, 64, 87
2, 29734, Note_on_c, 0, 47, 0
2, 29747, Control_c, 0, 64, 66
2, 29766, Control_c, 0, 64, 0
2, 29958, Control_c, 0, 64, 47
2, 29977, Control_c, 0, 64, 62
2, 29996, Control_c, 0, 64, 65
2, 30015, Control_c, 0, 64, 69
2, 30035, Control_c, 0, 64, 76
2, 30054, Control_c, 0, 64, 89
2, 30073, Control_c, 0, 64, 127
2, 30374, Note_on_c, 0, 43, 0
2, 30728, Note_on_c, 0, 70, 0
2, 30928, Note_on_c, 0, 75, 0
2, 31019, Note_on_c, 0, 82, 0
2, 31238, Note_on_c, 0, 43, 34
2, 31295, Note_on_c, 0, 46, 36
2, 31322, Note_on_c, 0, 51, 36
2, 31386, Note_on_c, 0, 55, 48
2, 31435, Control_c, 0, 64, 93
2, 31454, Control_c, 0, 64, 71
2, 31474, Control_c, 0, 64, 44
2, 31493, Control_c, 0, 64, 0
2, 31629, Control_c, 0, 64, 28
2, 31647, Control_c, 0, 64, 59
2, 31667, Control_c, 0, 64, 65
2, 31686, Control_c, 0, 64, 69
2, 31704, Control_c, 0, 64, 76
2, 31724, Control_c, 0, 64, 87
2, 31743, Control_c, 0, 64, 127
2, 31884, Note_on_c, 0, 43, 0
2, 31899, Note_on_c, 0, 55, 0
2, 32051, Note_on_c, 0, 51, 0
2, 32130, Note_on_c, 0, 46, 0
2, 32472, Note_on_c, 0, 75, 55
2, 32675, Note_on_c, 0, 73, 57
2, 32764, Note_on_c, 0, 75, 0
2, 32837, Note_on_c, 0, 43, 31
2, 32858, Note_on_c, 0, 71, 61
2, 32881, Note_on_c, 0, 46, 38
2, 32883, Note_on_c, 0, 73, 0
2, 32932, Note_on_c, 0, 51, 39
2, 33081, Note_on_c, 0, 55, 41
2, 33104, Control_c, 0, 64, 97
2, 33122, Note_on_c, 0, 73, 58
2, 33124, Control_c, 0, 64, 74
2, 33143, Control_c, 0, 64, 58
2, 33151, Note_on_c, 0, 71, 0
2, 33162, Control_c, 0, 64, 0
2, 33412, Control_c, 0, 64, 47
2, 33431, Control_c, 0, 64, 62
2, 33450, Control_c, 0, 64, 65
2, 33470, Control_c, 0, 64, 67
2, 33489, Control_c, 0, 64, 70
2, 33508, Control_c, 0, 64, 77
2, 33527, Control_c, 0, 64, 94
2, 33547, Control_c, 0, 64, 127
2, 33604, Note_on_c, 0, 43, 0
2, 33724, Note_on_c, 0, 55, 0
2, 33811, Note_on_c, 0, 51, 0
2, 33936, Note_on_c, 0, 46, 0
2, 34003, Note_on_c, 0, 73, 0
2, 34337, Note_on_c, 0, 70, 56
2, 34440, Note_on_c, 0, 70, 0
2, 34477, Note_on_c, 0, 44, 37
2, 34567, Note_on_c, 0, 47, 33
2, 34641, Note_on_c, 0, 51, 35
2, 34694, Note_on_c, 0, 56, 39
2, 34736, Control_c, 0, 64, 104
2, 34756, Control_c, 0, 64, 74
2, 34775, Control_c, 0, 64, 62
2, 34780, Note_on_c, 0, 73, 38
2, 34794, Control_c, 0, 64, 36
2, 34813, Control_c, 0, 64, 0
2, 34828, Note_on_c, 0, 73, 0
2, 34833, Control_c, 0, 64, 27
2, 34852, Control_c, 0, 64, 50
2, 34867, Note_on_c, 0, 71, 47
2, 34871, Control_c, 0, 64, 61
2, 34890, Control_c, 0, 64, 64
2, 34910, Control_c, 0, 64, 67
2, 34922, Note_on_c, 0, 71, 0
2, 34929, Control_c, 0, 64, 68
2, 34948, Control_c, 0, 64, 69
2, 34949, Note_on_c, 0, 73, 52
2, 35000, Note_on_c, 0, 73, 0
2, 35024, Control_c, 0, 64, 70
2, 35047, Note_on_c, 0, 71, 50
2, 35082, Control_c, 0, 64, 69
2, 35101, Control_c, 0, 64, 68
2, 35110, Note_on_c, 0, 71, 0
2, 35121, Control_c, 0, 64, 67
2, 35124, Note_on_c, 0, 73, 49
2, 35139, Control_c, 0, 64, 65
2, 35159, Control_c, 0, 64, 62
2, 35178, Control_c, 0, 64, 54
2, 35188, Note_on_c, 0, 73, 0
2, 35198, Control_c, 0, 64, 31
2, 35216, Control_c, 0, 64, 0
2, 35228, Note_on_c, 0, 71, 58
2, 35286, Note_on_c, 0, 71, 0
2, 35309, Note_on_c, 0, 73, 53
2, 35361, Note_on_c, 0, 73, 0
2, 35403, Note_on_c, 0, 71, 51
2, 35465, Note_on_c, 0, 71, 0
2, 35473, Note_on_c, 0, 73, 55
2, 35555, Note_on_c, 0, 73, 0
2, 35595, Note_on_c, 0, 71, 55
2, 35650, Note_on_c, 0, 71, 0
2, 35677, Note_on_c, 0, 73, 48
2, 35734, Note_on_c, 0, 73, 0
2, 35768, Note_on_c, 0, 71, 54
2, 35886, Note_on_c, 0, 70, 52
2, 35924, Note_on_c, 0, 71, 0
2, 35929, Control_c, 0, 64, 37
2, 35949, Control_c, 0, 64, 57
2, 35967, Control_c, 0, 64, 63
2, 35985, Control_c, 0, 64, 66
2, 36005, Control_c, 0, 64, 71
2, 36024, Control_c, 0, 64, 80
2, 36043, Control_c, 0, 64, 93
2, 36062, Control_c, 0, 64, 127
2, 36098, Note_on_c, 0, 68, 54
2, 36111, Note_on_c, 0, 70, 0
2, 36130, Note_on_c, 0, 68, 0
2, 36356, Note_on_c, 0, 75, 31
2, 36408, Note_on_c, 0, 80, 52
2, 36425, Note_on_c, 0, 44, 0
2, 36448, Note_on_c, 0, 47, 0
2, 36469, Note_on_c, 0, 83, 52
2, 36474, Note_on_c, 0, 56, 0
2, 36489, Note_on_c, 0, 51, 0
2, 36522, Control_c, 0, 64, 89
2, 36541, Control_c, 0, 64, 71
2, 36561, Control_c, 0, 64, 51
2, 36579, Control_c, 0, 64, 0
2, 37136, Control_c, 0, 64, 42
2, 37156, Control_c, 0, 64, 56
2, 37175, Control_c, 0, 64, 61
2, 37195, Control_c, 0, 64, 63
2, 37213, Control_c, 0, 64, 65
2, 37233, Control_c, 0, 64, 67
2, 37252, Control_c, 0, 64, 69
2, 37271, Control_c, 0, 64, 73
2, 37290, Control_c, 0, 64, 80
2, 37310, Control_c, 0, 64, 88
2, 37329, Control_c, 0, 64, 99
2, 37348, Control_c, 0, 64, 123
2, 37367, Control_c, 0, 64, 127
2, 37719, Note_on_c, 0, 75, 0
2, 37762, Note_on_c, 0, 80, 0
2, 37771, Note_on_c, 0, 83, 0
2, 37780, Note_on_c, 0, 71, 39
2, 38129, Note_on_c, 0, 75, 26
2, 38176, Note_on_c, 0, 80, 43
2, 38231, Note_on_c, 0, 68, 41
2, 38238, Note_on_c, 0, 83, 53
2, 38325, Note_on_c, 0, 71, 0
2, 38346, Control_c, 0, 64, 94
2, 38365, Control_c, 0, 64, 72
2, 38384, Control_c, 0, 64, 52
2, 38404, Control_c, 0, 64, 0
2, 38519, Control_c, 0, 64, 43
2, 38538, Control_c, 0, 64, 59
2, 38558, Control_c, 0, 64, 64
2, 38576, Control_c, 0, 64, 67
2, 38596, Control_c, 0, 64, 70
2, 38615, Control_c, 0, 64, 77
2, 38635, Control_c, 0, 64, 86
2, 38653, Control_c, 0, 64, 98
2, 38673, Control_c, 0, 64, 127
2, 38848, Note_on_c, 0, 68, 0
2, 39063, Note_on_c, 0, 75, 0
2, 39144, Note_on_c, 0, 80, 0
2, 39163, Note_on_c, 0, 83, 0
2, 39554, Note_on_c, 0, 65, 37
2, 39939, Note_on_c, 0, 77, 35
2, 39985, Note_on_c, 0, 80, 46
2, 40033, Note_on_c, 0, 62, 33
2, 40066, Note_on_c, 0, 83, 53
2, 40108, Note_on_c, 0, 65, 0
2, 40113, Control_c, 0, 64, 106
2, 40132, Control_c, 0, 64, 78
2, 40151, Control_c, 0, 64, 63
2, 40170, Control_c, 0, 64, 0
2, 40324, Control_c, 0, 64, 41
2, 40343, Control_c, 0, 64, 58
2, 40362, Control_c, 0, 64, 64
2, 40381, Control_c, 0, 64, 66
2, 40401, Control_c, 0, 64, 70
2, 40419, Control_c, 0, 64, 77
2, 40439, Control_c, 0, 64, 88
2, 40458, Control_c, 0, 64, 106
2, 40478, Control_c, 0, 64, 127
2, 40695, Note_on_c, 0, 62, 0
2, 41109, Note_on_c, 0, 77, 0
2, 41160, Note_on_c, 0, 83, 0
2, 41186, Note_on_c, 0, 80, 0
2, 41565, Note_on_c, 0, 62, 31
2, 41660, Note_on_c, 0, 65, 29
2, 41742, Note_on_c, 0, 70, 42
2, 41784, Control_c, 0, 64, 89
2, 41803, Control_c, 0, 64, 70
2, 41822, Control_c, 0, 64, 55
2, 41842, Control_c, 0, 64, 0
2, 41995, Control_c, 0, 64, 44
2, 42014, Control_c, 0, 64, 60
2, 42034, Control_c, 0, 64, 65
2, 42053, Control_c, 0, 64, 70
2, 42072, Control_c, 0, 64, 77
2, 42091, Control_c, 0, 64, 90
2, 42111, Control_c, 0, 64, 112
2, 42129, Control_c, 0, 64, 127
2, 42327, Note_on_c, 0, 70, 0
2, 42444, Note_on_c, 0, 62, 0
2, 42522, Note_on_c, 0, 65, 0
2, 42808, Note_on_c, 0, 82, 48
2, 43030, Note_on_c, 0, 80, 55
2, 43192, Note_on_c, 0, 78, 55
2, 43197, Note_on_c, 0, 82, 0
2, 43218, Note_on_c, 0, 62, 33
2, 43240, Note_on_c, 0, 80, 0
2, 43288, Note_on_c, 0, 65, 32
2, 43416, Control_c, 0, 64, 88
2, 43421, Note_on_c, 0, 70, 39
2, 43435, Control_c, 0, 64, 68
2, 43441, Note_on_c, 0, 77, 44
2, 43444, Note_on_c, 0, 78, 0
2, 43454, Control_c, 0, 64, 52
2, 43474, Control_c, 0, 64, 0
2, 43531, Control_c, 0, 64, 32
2, 43551, Control_c, 0, 64, 55
2, 43569, Control_c, 0, 64, 63
2, 43589, Control_c, 0, 64, 66
2, 43608, Control_c, 0, 64, 68
2, 43627, Control_c, 0, 64, 70
2, 43635, Note_on_c, 0, 78, 51
2, 43646, Control_c, 0, 64, 74
2, 43660, Note_on_c, 0, 77, 0
2, 43665, Control_c, 0, 64, 78
2, 43685, Control_c, 0, 64, 82
2, 43704, Control_c, 0, 64, 87
2, 43723, Control_c, 0, 64, 90
2, 43742, Control_c, 0, 64, 92
2, 43762, Control_c, 0, 64, 93
2, 43800, Control_c, 0, 64, 93
2, 43823, Note_on_c, 0, 77, 58
2, 43851, Note_on_c, 0, 78, 0
2, 43896, Control_c, 0, 64, 92
2, 43915, Control_c, 0, 64, 90
2, 43934, Control_c, 0, 64, 87
2, 43954, Control_c, 0, 64, 83
2, 43973, Control_c, 0, 64, 77
2, 43992, Control_c, 0, 64, 68
2, 44011, Control_c, 0, 64, 60
2, 44016, Note_on_c, 0, 78, 63
2, 44031, Control_c, 0, 64, 33
2, 44049, Control_c, 0, 64, 0
2, 44081, Note_on_c, 0, 77, 0
2, 44244, Note_on_c, 0, 80, 58
2, 44245, Note_on_c, 0, 78, 0
2, 44437, Note_on_c, 0, 78, 51
2, 44444, Note_on_c, 0, 80, 0
2, 44491, Control_c, 0, 64, 47
2, 44511, Control_c, 0, 64, 57
2, 44529, Control_c, 0, 64, 62
2, 44549, Control_c, 0, 64, 64
2, 44568, Control_c, 0, 64, 66
2, 44583, Note_on_c, 0, 62, 0
2, 44587, Control_c, 0, 64, 69
2, 44606, Control_c, 0, 64, 75
2, 44625, Control_c, 0, 64, 84
2, 44625, Note_on_c, 0, 65, 0
2, 44626, Note_on_c, 0, 80, 47
2, 44645, Control_c, 0, 64, 97
2, 44653, Note_on_c, 0, 70, 0
2, 44662, Note_on_c, 0, 78, 0
2, 44664, Control_c, 0, 64, 127
2, 44791, Note_on_c, 0, 80, 0
2, 44816, Note_on_c, 0, 77, 47
2, 44878, Note_on_c, 0, 63, 35
2, 44993, Note_on_c, 0, 66, 30
2, 45067, Control_c, 0, 64, 118
2, 45067, Note_on_c, 0, 80, 52
2, 45086, Control_c, 0, 64, 85
2, 45098, Note_on_c, 0, 70, 43
2, 45103, Note_on_c, 0, 77, 0
2, 45105, Control_c, 0, 64, 69
2, 45125, Control_c, 0, 64, 56
2, 45141, Note_on_c, 0, 80, 0
2, 45144, Control_c, 0, 64, 19
2, 45163, Control_c, 0, 64, 0
2, 45174, Note_on_c, 0, 78, 48
2, 45182, Control_c, 0, 64, 31
2, 45202, Control_c, 0, 64, 52
2, 45220, Control_c, 0, 64, 62
2, 45240, Control_c, 0, 64, 64
2, 45256, Note_on_c, 0, 78, 0
2, 45259, Control_c, 0, 64, 66
2, 45279, Control_c, 0, 64, 67
2, 45287, Note_on_c, 0, 80, 56
2, 45297, Control_c, 0, 64, 68
2, 45317, Control_c, 0, 64, 70
2, 45336, Control_c, 0, 64, 71
2, 45342, Note_on_c, 0, 80, 0
2, 45355, Control_c, 0, 64, 72
2, 45374, Control_c, 0, 64, 72
2, 45375, Note_on_c, 0, 78, 54
2, 45413, Control_c, 0, 64, 72
2, 45445, Note_on_c, 0, 78, 0
2, 45451, Control_c, 0, 64, 71
2, 45471, Control_c, 0, 64, 70
2, 45474, Note_on_c, 0, 80, 58
2, 45489, Control_c, 0, 64, 69
2, 45509, Control_c, 0, 64, 66
2, 45528, Control_c, 0, 64, 63
2, 45543, Note_on_c, 0, 80, 0
2, 45547, Control_c, 0, 64, 58
2, 45566, Control_c, 0, 64, 42
2, 45570, Note_on_c, 0, 78, 55
2, 45585, Control_c, 0, 64, 0
2, 45642, Note_on_c, 0, 78, 0
2, 45675, Note_on_c, 0, 80, 59
2, 45745, Note_on_c, 0, 80, 0
2, 45767, Note_on_c, 0, 78, 56
2, 45856, Note_on_c, 0, 78, 0
2, 45876, Note_on_c, 0, 80, 62
2, 45941, Note_on_c, 0, 80, 0
2, 45964, Note_on_c, 0, 78, 52
2, 46034, Note_on_c, 0, 78, 0
2, 46067, Note_on_c, 0, 80, 57
2, 46154, Note_on_c, 0, 78, 53
2, 46162, Note_on_c, 0, 80, 0
2, 46270, Note_on_c, 0, 78, 0
2, 46286, Note_on_c, 0, 77, 50
2, 46316, Control_c, 0, 64, 13
2, 46335, Control_c, 0, 64, 51
2, 46355, Control_c, 0, 64, 61
2, 46374, Control_c, 0, 64, 64
2, 46393, Control_c, 0, 64, 66
2, 46412, Control_c, 0, 64, 70
2, 46432, Control_c, 0, 64, 76
2, 46436, Note_on_c, 0, 70, 0
2, 46446, Note_on_c, 0, 77, 0
2, 46450, Control_c, 0, 64, 86
2, 46470, Control_c, 0, 64, 100
2, 46477, Note_on_c, 0, 75, 51
2, 46489, Control_c, 0, 64, 127
2, 46539, Note_on_c, 0, 75, 0
2, 46585, Note_on_c, 0, 66, 0
2, 46632, Note_on_c, 0, 63, 0
2, 46722, Note_on_c, 0, 70, 34
2, 46774, Note_on_c, 0, 75, 49
2, 46837, Note_on_c, 0, 78, 42
2, 46914, Note_on_c, 0, 82, 52
2, 46969, Control_c, 0, 64, 96
2, 46989, Control_c, 0, 64, 76
2, 47007, Control_c, 0, 64, 60
2, 47026, Control_c, 0, 64, 0
2, 47276, Control_c, 0, 64, 50
2, 47295, Control_c, 0, 64, 60
2, 47315, Control_c, 0, 64, 63
2, 47334, Control_c, 0, 64, 65
2, 47353, Control_c, 0, 64, 68
2, 47372, Control_c, 0, 64, 74
2, 47392, Control_c, 0, 64, 85
2, 47410, Control_c, 0, 64, 101
2, 47430, Control_c, 0, 64, 127
2, 47600, Note_on_c, 0, 70, 0
2, 47724, Note_on_c, 0, 75, 0
2, 47775, Note_on_c, 0, 82, 0
2, 47790, Note_on_c, 0, 78, 0
2, 48238, Note_on_c, 0, 66, 43
2, 48568, Note_on_c, 0, 73, 36
2, 48624, Note_on_c, 0, 75, 44
2, 48684, Note_on_c, 0, 78, 42
2, 48714, Note_on_c, 0, 63, 44
2, 48726, Note_on_c, 0, 82, 62
2, 48785, Note_on_c, 0, 66, 0
2, 48809, Control_c, 0, 64, 102
2, 48828, Control_c, 0, 64, 75
2, 48848, Control_c, 0, 64, 59
2, 48866, Control_c, 0, 64, 0
2, 49001, Control_c, 0, 64, 47
2, 49020, Control_c, 0, 64, 61
2, 49040, Control_c, 0, 64, 65
2, 49059, Control_c, 0, 64, 68
2, 49078, Control_c, 0, 64, 74
2, 49097, Control_c, 0, 64, 85
2, 49117, Control_c, 0, 64, 105
2, 49135, Control_c, 0, 64, 127
2, 49240, Note_on_c, 0, 73, 0
2, 49319, Note_on_c, 0, 63, 0
2, 49445, Note_on_c, 0, 75, 0
2, 49467, Note_on_c, 0, 78, 0
2, 49494, Note_on_c, 0, 82, 0
2, 50001, Note_on_c, 0, 60, 57
2, 50347, Note_on_c, 0, 72, 51
2, 50414, Note_on_c, 0, 75, 60
2, 50483, Note_on_c, 0, 78, 55
2, 50502, Note_on_c, 0, 57, 43
2, 50527, Note_on_c, 0, 60, 0
2, 50548, Note_on_c, 0, 84, 75
2, 50634, Control_c, 0, 64, 107
2, 50652, Control_c, 0, 64, 78
2, 50672, Control_c, 0, 64, 61
2, 50691, Control_c, 0, 64, 0
2, 50806, Control_c, 0, 64, 38
2, 50825, Control_c, 0, 64, 60
2, 50844, Control_c, 0, 64, 65
2, 50863, Control_c, 0, 64, 71
2, 50883, Control_c, 0, 64, 81
2, 50902, Control_c, 0, 64, 101
2, 50921, Control_c, 0, 64, 127
2, 51147, Note_on_c, 0, 72, 0
2, 51234, Note_on_c, 0, 57, 0
2, 51307, Note_on_c, 0, 75, 0
2, 51404, Note_on_c, 0, 84, 0
2, 51424, Note_on_c, 0, 78, 0
2, 52036, Note_on_c, 0, 57, 34
2, 52111, Note_on_c, 0, 60, 43
2, 52196, Note_on_c, 0, 65, 44
2, 52246, Control_c, 0, 64, 101
2, 52265, Control_c, 0, 64, 76
2, 52284, Control_c, 0, 64, 59
2, 52303, Control_c, 0, 64, 0
2, 52438, Control_c, 0, 64, 52
2, 52457, Control_c, 0, 64, 62
2, 52477, Control_c, 0, 64, 66
2, 52495, Control_c, 0, 64, 69
2, 52515, Control_c, 0, 64, 77
2, 52534, Control_c, 0, 64, 89
2, 52554, Control_c, 0, 64, 112
2, 52572, Control_c, 0, 64, 127
2, 52729, Note_on_c, 0, 65, 0
2, 52769, Note_on_c, 0, 57, 0
2, 52867, Note_on_c, 0, 60, 0
2, 53317, Note_on_c, 0, 77, 47
2, 53530, Note_on_c, 0, 75, 58
2, 53540, Note_on_c, 0, 77, 0
2, 53695, Note_on_c, 0, 73, 60
2, 53734, Note_on_c, 0, 57, 31
2, 53744, Note_on_c, 0, 75, 0
2, 53815, Note_on_c, 0, 60, 33
2, 53878, Control_c, 0, 64, 95
2, 53897, Control_c, 0, 64, 72
2, 53917, Control_c, 0, 64, 59
2, 53933, Note_on_c, 0, 65, 21
2, 53935, Control_c, 0, 64, 0
2, 53938, Note_on_c, 0, 73, 0
2, 53941, Note_on_c, 0, 72, 52
2, 53994, Control_c, 0, 64, 27
2, 54012, Control_c, 0, 64, 53
2, 54032, Control_c, 0, 64, 62
2, 54051, Control_c, 0, 64, 65
2, 54069, Control_c, 0, 64, 66
2, 54089, Control_c, 0, 64, 68
2, 54108, Control_c, 0, 64, 69
2, 54128, Control_c, 0, 64, 71
2, 54141, Note_on_c, 0, 73, 51
2, 54146, Control_c, 0, 64, 73
2, 54146, Note_on_c, 0, 72, 0
2, 54166, Control_c, 0, 64, 75
2, 54185, Control_c, 0, 64, 76
2, 54219, Control_c, 0, 64, 76
2, 54238, Control_c, 0, 64, 75
2, 54257, Control_c, 0, 64, 75
2, 54277, Control_c, 0, 64, 74
2, 54295, Control_c, 0, 64, 71
2, 54315, Control_c, 0, 64, 66
2, 54328, Note_on_c, 0, 72, 56
2, 54334, Control_c, 0, 64, 60
2, 54346, Note_on_c, 0, 73, 0
2, 54354, Control_c, 0, 64, 40
2, 54372, Control_c, 0, 64, 0
2, 54513, Note_on_c, 0, 73, 59
2, 54571, Note_on_c, 0, 72, 0
2, 54730, Note_on_c, 0, 73, 0
2, 54737, Note_on_c, 0, 75, 53
2, 54925, Note_on_c, 0, 73, 48
2, 54926, Note_on_c, 0, 75, 0
2, 54972, Control_c, 0, 64, 9
2, 54992, Control_c, 0, 64, 47
2, 55011, Control_c, 0, 64, 58
2, 55029, Control_c, 0, 64, 62
2, 55049, Control_c, 0, 64, 64
2, 55068, Control_c, 0, 64, 66
2, 55088, Control_c, 0, 64, 70
2, 55089, Note_on_c, 0, 57, 0
2, 55106, Control_c, 0, 64, 75
2, 55119, Note_on_c, 0, 60, 0
2, 55120, Note_on_c, 0, 75, 50
2, 55126, Control_c, 0, 64, 85
2, 55133, Note_on_c, 0, 73, 0
2, 55145, Control_c, 0, 64, 94
2, 55155, Note_on_c, 0, 65, 0
2, 55165, Control_c, 0, 64, 103
2, 55183, Control_c, 0, 64, 110
2, 55204, Control_c, 0, 64, 112
2, 55223, Control_c, 0, 64, 113
2, 55242, Control_c, 0, 64, 114
2, 55261, Control_c, 0, 64, 116
2, 55281, Control_c, 0, 64, 118
2, 55287, Note_on_c, 0, 75, 0
2, 55314, Note_on_c, 0, 72, 47
2, 55361, Note_on_c, 0, 58, 35
2, 55477, Note_on_c, 0, 61, 29
2, 55530, Control_c, 0, 64, 102
2, 55549, Control_c, 0, 64, 86
2, 55549, Note_on_c, 0, 75, 52
2, 55559, Note_on_c, 0, 65, 34
2, 55569, Control_c, 0, 64, 72
2, 55588, Control_c, 0, 64, 63
2, 55595, Note_on_c, 0, 72, 0
2, 55608, Control_c, 0, 64, 49
2, 55627, Control_c, 0, 64, 42
2, 55639, Note_on_c, 0, 75, 0
2, 55646, Control_c, 0, 64, 50
2, 55661, Note_on_c, 0, 73, 49
2, 55665, Control_c, 0, 64, 57
2, 55685, Control_c, 0, 64, 62
2, 55704, Control_c, 0, 64, 64
2, 55723, Control_c, 0, 64, 66
2, 55742, Control_c, 0, 64, 68
2, 55753, Note_on_c, 0, 73, 0
2, 55762, Control_c, 0, 64, 70
2, 55780, Control_c, 0, 64, 73
2, 55786, Note_on_c, 0, 75, 54
2, 55800, Control_c, 0, 64, 76
2, 55819, Control_c, 0, 64, 80
2, 55839, Control_c, 0, 64, 83
2, 55840, Note_on_c, 0, 75, 0
2, 55857, Control_c, 0, 64, 83
2, 55858, Note_on_c, 0, 73, 51
2, 55896, Control_c, 0, 64, 83
2, 55915, Control_c, 0, 64, 82
2, 55934, Control_c, 0, 64, 81
2, 55942, Note_on_c, 0, 73, 0
2, 55954, Control_c, 0, 64, 77
2, 55956, Note_on_c, 0, 75, 59
2, 55973, Control_c, 0, 64, 71
2, 55992, Control_c, 0, 64, 65
2, 56011, Control_c, 0, 64, 55
2, 56027, Note_on_c, 0, 75, 0
2, 56031, Control_c, 0, 64, 0
2, 56047, Note_on_c, 0, 73, 52
2, 56129, Note_on_c, 0, 73, 0
2, 56155, Note_on_c, 0, 75, 58
2, 56210, Note_on_c, 0, 75, 0
2, 56236, Note_on_c, 0, 73, 55
2, 56318, Note_on_c, 0, 73, 0
2, 56340, Note_on_c, 0, 75, 60
2, 56401, Note_on_c, 0, 75, 0
2, 56428, Note_on_c, 0, 73, 58
2, 56498, Note_on_c, 0, 73, 0
2, 56532, Note_on_c, 0, 75, 55
2, 56615, Note_on_c, 0, 73, 50
2, 56647, Note_on_c, 0, 75, 0
2, 56738, Note_on_c, 0, 72, 51
2, 56752, Note_on_c, 0, 73, 0
2, 56777, Control_c, 0, 64, 46
2, 56797, Control_c, 0, 64, 59
2, 56815, Control_c, 0, 64, 63
2, 56835, Control_c, 0, 64, 65
2, 56838, Note_on_c, 0, 65, 0
2, 56853, Note_on_c, 0, 61, 0
2, 56854, Control_c, 0, 64, 66
2, 56856, Note_on_c, 0, 58, 0
2, 56874, Control_c, 0, 64, 69
2, 56892, Control_c, 0, 64, 74
2, 56912, Control_c, 0, 64, 83
2, 56927, Note_on_c, 0, 70, 53
2, 56931, Control_c, 0, 64, 95
2, 56936, Note_on_c, 0, 72, 0
2, 56949, Control_c, 0, 64, 116
2, 56969, Control_c, 0, 64, 127
2, 56975, Note_on_c, 0, 70, 0
2, 57040, Note_on_c, 0, 58, 29
2, 57125, Note_on_c, 0, 70, 44
2, 57165, Note_on_c, 0, 61, 35
2, 57200, Control_c, 0, 64, 94
2, 57203, Note_on_c, 0, 73, 46
2, 57219, Control_c, 0, 64, 73
2, 57235, Note_on_c, 0, 65, 33
2, 57238, Control_c, 0, 64, 58
2, 57257, Control_c, 0, 64, 0
2, 57282, Note_on_c, 0, 77, 47
2, 57491, Control_c, 0, 64, 42
2, 57511, Control_c, 0, 64, 57
2, 57530, Control_c, 0, 64, 62
2, 57549, Control_c, 0, 64, 64
2, 57568, Control_c, 0, 64, 66
2, 57587, Control_c, 0, 64, 69
2, 57607, Control_c, 0, 64, 77
2, 57625, Control_c, 0, 64, 90
2, 57645, Control_c, 0, 64, 121
2, 57664, Control_c, 0, 64, 127
2, 57694, Note_on_c, 0, 77, 0
2, 57792, Note_on_c, 0, 70, 0
2, 57793, Note_on_c, 0, 65, 0
2, 57827, Note_on_c, 0, 73, 0
2, 57991, Note_on_c, 0, 61, 0
2, 58065, Note_on_c, 0, 58, 0
2, 58346, Note_on_c, 0, 78, 49
2, 58483, Note_on_c, 0, 78, 0
2, 58538, Note_on_c, 0, 77, 58
2, 58713, Note_on_c, 0, 75, 64
2, 58721, Note_on_c, 0, 58, 35
2, 58770, Note_on_c, 0, 61, 39
2, 58777, Note_on_c, 0, 77, 0
2, 58931, Note_on_c, 0, 73, 61
2, 58965, Note_on_c, 0, 65, 37
2, 59012, Note_on_c, 0, 75, 0
2, 59063, Control_c, 0, 64, 101
2, 59082, Control_c, 0, 64, 85
2, 59101, Control_c, 0, 64, 74
2, 59121, Control_c, 0, 64, 64
2, 59136, Note_on_c, 0, 73, 0
2, 59139, Control_c, 0, 64, 50
2, 59153, Note_on_c, 0, 72, 66
2, 59159, Control_c, 0, 64, 0
2, 59349, Note_on_c, 0, 70, 63
2, 59405, Note_on_c, 0, 72, 0
2, 59560, Note_on_c, 0, 68, 63
2, 59625, Note_on_c, 0, 70, 0
2, 59832, Note_on_c, 0, 66, 50
2, 59875, Note_on_c, 0, 68, 0
2, 60015, Note_on_c, 0, 65, 0
2, 60024, Control_c, 0, 64, 23
2, 60043, Control_c, 0, 64, 49
2, 60062, Control_c, 0, 64, 58
2, 60082, Control_c, 0, 64, 63
2, 60100, Control_c, 0, 64, 65
2, 60120, Control_c, 0, 64, 67
2, 60133, Note_on_c, 0, 61, 0
2, 60139, Control_c, 0, 64, 71
2, 60159, Control_c, 0, 64, 76
2, 60171, Note_on_c, 0, 58, 0
2, 60177, Control_c, 0, 64, 84
2, 60197, Control_c, 0, 64, 94
2, 60216, Control_c, 0, 64, 110
2, 60235, Control_c, 0, 64, 127
2, 60251, Note_on_c, 0, 68, 50
2, 60352, Note_on_c, 0, 66, 0
2, 60447, Note_on_c, 0, 68, 0
2, 60462, Note_on_c, 0, 65, 41
2, 60520, Note_on_c, 0, 51, 37
2, 60634, Note_on_c, 0, 58, 34
2, 60855, Note_on_c, 0, 66, 43
2, 60857, Note_on_c, 0, 61, 34
2, 60881, Note_on_c, 0, 63, 38
2, 60907, Control_c, 0, 64, 93
2, 60926, Control_c, 0, 64, 74
2, 60945, Control_c, 0, 64, 60
2, 60954, Note_on_c, 0, 65, 0
2, 60964, Control_c, 0, 64, 0
2, 61175, Control_c, 0, 64, 56
2, 61195, Control_c, 0, 64, 62
2, 61213, Control_c, 0, 64, 64
2, 61233, Control_c, 0, 64, 66
2, 61252, Control_c, 0, 64, 69
2, 61270, Control_c, 0, 64, 75
2, 61290, Control_c, 0, 64, 85
2, 61309, Control_c, 0, 64, 107
2, 61329, Control_c, 0, 64, 127
2, 61354, Note_on_c, 0, 61, 0
2, 61447, Note_on_c, 0, 66, 0
2, 61487, Note_on_c, 0, 51, 0
2, 61628, Note_on_c, 0, 58, 0
2, 62132, Note_on_c, 0, 63, 0
2, 62176, Note_on_c, 0, 70, 58
2, 62362, Note_on_c, 0, 51, 29
2, 62372, Note_on_c, 0, 73, 68
2, 62440, Note_on_c, 0, 70, 0
2, 62464, Note_on_c, 0, 58, 44
2, 62663, Note_on_c, 0, 60, 36
2, 62674, Note_on_c, 0, 78, 60
2, 62730, Control_c, 0, 64, 85
2, 62731, Note_on_c, 0, 73, 0
2, 62749, Control_c, 0, 64, 67
2, 62769, Control_c, 0, 64, 36
2, 62787, Control_c, 0, 64, 0
2, 62941, Control_c, 0, 64, 26
2, 62961, Control_c, 0, 64, 58
2, 62979, Control_c, 0, 64, 64
2, 62999, Control_c, 0, 64, 66
2, 63018, Control_c, 0, 64, 70
2, 63038, Control_c, 0, 64, 77
2, 63056, Control_c, 0, 64, 91
2, 63076, Control_c, 0, 64, 127
2, 63194, Note_on_c, 0, 60, 0
2, 63219, Note_on_c, 0, 51, 0
2, 63298, Note_on_c, 0, 58, 0
2, 63359, Note_on_c, 0, 78, 0
2, 63789, Note_on_c, 0, 77, 50
2, 63989, Note_on_c, 0, 75, 64
2, 64047, Note_on_c, 0, 77, 0
2, 64128, Note_on_c, 0, 51, 33
2, 64165, Note_on_c, 0, 73, 67
2, 64233, Note_on_c, 0, 58, 36
2, 64240, Note_on_c, 0, 75, 0
2, 64417, Control_c, 0, 64, 102
2, 64425, Note_on_c, 0, 60, 40
2, 64436, Control_c, 0, 64, 80
2, 64441, Note_on_c, 0, 72, 60
2, 64455, Control_c, 0, 64, 66
2, 64464, Note_on_c, 0, 73, 0
2, 64475, Control_c, 0, 64, 0
2, 64666, Control_c, 0, 64, 43
2, 64686, Control_c, 0, 64, 61
2, 64704, Control_c, 0, 64, 65
2, 64724, Control_c, 0, 64, 67
2, 64743, Control_c, 0, 64, 69
2, 64763, Control_c, 0, 64, 73
2, 64781, Control_c, 0, 64, 79
2, 64802, Control_c, 0, 64, 87
2, 64821, Control_c, 0, 64, 98
2, 64840, Control_c, 0, 64, 116
2, 64859, Control_c, 0, 64, 127
2, 65010, Note_on_c, 0, 72, 0
2, 65055, Note_on_c, 0, 75, 56
2, 65155, Note_on_c, 0, 73, 56
2, 65204, Note_on_c, 0, 75, 0
2, 65244, Control_c, 0, 64, 103
2, 65262, Control_c, 0, 64, 77
2, 65264, Note_on_c, 0, 72, 66
2, 65282, Control_c, 0, 64, 63
2, 65300, Note_on_c, 0, 73, 0
2, 65301, Control_c, 0, 64, 0
2, 65397, Control_c, 0, 64, 26
2, 65416, Control_c, 0, 64, 53
2, 65436, Control_c, 0, 64, 63
2, 65450, Note_on_c, 0, 60, 0
2, 65454, Control_c, 0, 64, 66
2, 65471, Note_on_c, 0, 73, 66
2, 65474, Control_c, 0, 64, 69
2, 65493, Control_c, 0, 64, 73
2, 65513, Control_c, 0, 64, 80
2, 65515, Note_on_c, 0, 72, 0
2, 65521, Note_on_c, 0, 58, 0
2, 65531, Control_c, 0, 64, 88
2, 65550, Control_c, 0, 64, 99
2, 65554, Note_on_c, 0, 51, 0
2, 65570, Control_c, 0, 64, 123
2, 65589, Control_c, 0, 64, 127
2, 65704, Note_on_c, 0, 75, 74
2, 65730, Note_on_c, 0, 73, 0
2, 65833, Note_on_c, 0, 75, 0
2, 66164, Note_on_c, 0, 57, 28
2, 66180, Note_on_c, 0, 51, 33
2, 66202, Note_on_c, 0, 60, 32
2, 66235, Note_on_c, 0, 65, 47
2, 66267, Control_c, 0, 64, 118
2, 66285, Control_c, 0, 64, 86
2, 66305, Control_c, 0, 64, 68
2, 66324, Control_c, 0, 64, 39
2, 66344, Control_c, 0, 64, 0
2, 66459, Control_c, 0, 64, 52
2, 66478, Control_c, 0, 64, 63
2, 66497, Control_c, 0, 64, 68
2, 66516, Control_c, 0, 64, 74
2, 66536, Control_c, 0, 64, 84
2, 66555, Control_c, 0, 64, 105
2, 66573, Control_c, 0, 64, 127
2, 66740, Note_on_c, 0, 65, 0
2, 66839, Note_on_c, 0, 67, 43
2, 66937, Note_on_c, 0, 69, 59
2, 66950, Note_on_c, 0, 67, 0
2, 66976, Note_on_c, 0, 69, 0
2, 67112, Note_on_c, 0, 70, 55
2, 67131, Control_c, 0, 64, 100
2, 67151, Control_c, 0, 64, 78
2, 67170, Control_c, 0, 64, 66
2, 67185, Note_on_c, 0, 70, 0
2, 67189, Control_c, 0, 64, 58
2, 67208, Control_c, 0, 64, 54
2, 67210, Note_on_c, 0, 69, 59
2, 67228, Control_c, 0, 64, 59
2, 67246, Control_c, 0, 64, 63
2, 67266, Control_c, 0, 64, 66
2, 67285, Control_c, 0, 64, 70
2, 67297, Note_on_c, 0, 69, 0
2, 67305, Control_c, 0, 64, 74
2, 67323, Control_c, 0, 64, 79
2, 67324, Note_on_c, 0, 70, 63
2, 67343, Control_c, 0, 64, 84
2, 67362, Control_c, 0, 64, 86
2, 67380, Note_on_c, 0, 70, 0
2, 67400, Control_c, 0, 64, 85
2, 67402, Note_on_c, 0, 69, 60
2, 67420, Control_c, 0, 64, 85
2, 67433, Note_on_c, 0, 60, 0
2, 67439, Control_c, 0, 64, 84
2, 67458, Control_c, 0, 64, 82
2, 67461, Note_on_c, 0, 69, 0
2, 67477, Control_c, 0, 64, 77
2, 67497, Control_c, 0, 64, 71
2, 67501, Note_on_c, 0, 70, 62
2, 67515, Control_c, 0, 64, 63
2, 67516, Note_on_c, 0, 57, 0
2, 67534, Control_c, 0, 64, 47
2, 67554, Control_c, 0, 64, 0
2, 67564, Note_on_c, 0, 70, 0
2, 67573, Note_on_c, 0, 69, 64
2, 67672, Note_on_c, 0, 67, 60
2, 67675, Note_on_c, 0, 69, 0
2, 67691, Note_on_c, 0, 49, 24
2, 67771, Note_on_c, 0, 51, 0
2, 67793, Note_on_c, 0, 69, 59
2, 67801, Note_on_c, 0, 53, 34
2, 67821, Note_on_c, 0, 67, 0
2, 68005, Note_on_c, 0, 58, 38
2, 68036, Note_on_c, 0, 70, 56
2, 68063, Note_on_c, 0, 69, 0
2, 68336, Control_c, 0, 64, 22
2, 68355, Control_c, 0, 64, 49
2, 68374, Control_c, 0, 64, 59
2, 68394, Control_c, 0, 64, 63
2, 68412, Control_c, 0, 64, 66
2, 68432, Control_c, 0, 64, 69
2, 68451, Control_c, 0, 64, 74
2, 68470, Control_c, 0, 64, 86
2, 68489, Control_c, 0, 64, 101
2, 68509, Control_c, 0, 64, 127
2, 68664, Note_on_c, 0, 49, 0
2, 68812, Note_on_c, 0, 58, 0
2, 68991, Note_on_c, 0, 53, 0
2, 69374, Note_on_c, 0, 65, 44
2, 69781, Note_on_c, 0, 51, 34
2, 69805, Note_on_c, 0, 58, 29
2, 69820, Note_on_c, 0, 66, 50
2, 69871, Control_c, 0, 64, 96
2, 69890, Control_c, 0, 64, 71
2, 69908, Note_on_c, 0, 65, 0
2, 69910, Control_c, 0, 64, 48
2, 69928, Control_c, 0, 64, 0
2, 70044, Control_c, 0, 64, 27
2, 70063, Control_c, 0, 64, 54
2, 70082, Control_c, 0, 64, 62
2, 70102, Control_c, 0, 64, 66
2, 70120, Control_c, 0, 64, 71
2, 70140, Control_c, 0, 64, 78
2, 70159, Control_c, 0, 64, 88
2, 70179, Control_c, 0, 64, 101
2, 70197, Control_c, 0, 64, 127
2, 70226, Note_on_c, 0, 58, 0
2, 70470, Note_on_c, 0, 66, 0
2, 70728, Note_on_c, 0, 51, 0
2, 71135, Note_on_c, 0, 63, 53
2, 71299, Note_on_c, 0, 63, 0
2, 71671, Note_on_c, 0, 53, 36
2, 71700, Note_on_c, 0, 61, 53
2, 71810, Control_c, 0, 64, 92
2, 71830, Control_c, 0, 64, 70
2, 71848, Control_c, 0, 64, 47
2, 71868, Control_c, 0, 64, 0
2, 71985, Control_c, 0, 64, 39
2, 72004, Control_c, 0, 64, 59
2, 72024, Control_c, 0, 64, 64
2, 72042, Control_c, 0, 64, 68
2, 72062, Control_c, 0, 64, 74
2, 72081, Control_c, 0, 64, 83
2, 72100, Control_c, 0, 64, 96
2, 72119, Control_c, 0, 64, 127
2, 72215, Control_c, 0, 64, 91
2, 72224, Note_on_c, 0, 60, 45
2, 72235, Control_c, 0, 64, 71
2, 72253, Control_c, 0, 64, 57
2, 72273, Control_c, 0, 64, 0
2, 72277, Note_on_c, 0, 61, 0
2, 72465, Control_c, 0, 64, 35
2, 72484, Control_c, 0, 64, 57
2, 72504, Control_c, 0, 64, 64
2, 72522, Control_c, 0, 64, 68
2, 72542, Control_c, 0, 64, 76
2, 72561, Control_c, 0, 64, 91
2, 72580, Control_c, 0, 64, 127
2, 72777, Note_on_c, 0, 53, 0
2, 72859, Note_on_c, 0, 61, 50
2, 72860, Note_on_c, 0, 60, 0
2, 73057, Note_on_c, 0, 60, 55
2, 73068, Note_on_c, 0, 61, 0
2, 73220, Note_on_c, 0, 61, 66
2, 73282, Note_on_c, 0, 60, 0
2, 73436, Note_on_c, 0, 53, 37
2, 73447, Note_on_c, 0, 41, 35
2, 73514, Note_on_c, 0, 63, 56
2, 73540, Control_c, 0, 64, 82
2, 73540, Note_on_c, 0, 61, 0
2, 73558, Control_c, 0, 64, 60
2, 73578, Control_c, 0, 64, 0
2, 73692, Control_c, 0, 64, 46
2, 73712, Control_c, 0, 64, 59
2, 73728, Note_on_c, 0, 61, 59
2, 73731, Control_c, 0, 64, 63
2, 73750, Control_c, 0, 64, 66
2, 73769, Control_c, 0, 64, 68
2, 73789, Control_c, 0, 64, 70
2, 73808, Control_c, 0, 64, 74
2, 73827, Control_c, 0, 64, 79
2, 73846, Control_c, 0, 64, 84
2, 73851, Note_on_c, 0, 63, 0
2, 73866, Control_c, 0, 64, 87
2, 73885, Control_c, 0, 64, 87
2, 73915, Note_on_c, 0, 61, 0
2, 73919, Note_on_c, 0, 60, 68
2, 73943, Control_c, 0, 64, 87
2, 73961, Control_c, 0, 64, 85
2, 73981, Control_c, 0, 64, 79
2, 74000, Control_c, 0, 64, 72
2, 74020, Control_c, 0, 64, 66
2, 74038, Control_c, 0, 64, 57
2, 74058, Control_c, 0, 64, 11
2, 74077, Control_c, 0, 64, 0
2, 74105, Note_on_c, 0, 61, 67
2, 74117, Note_on_c, 0, 60, 0
2, 74318, Note_on_c, 0, 63, 69
2, 74385, Note_on_c, 0, 61, 0
2, 74506, Note_on_c, 0, 63, 0
2, 74508, Note_on_c, 0, 65, 66
2, 74594, Control_c, 0, 64, 25
2, 74613, Control_c, 0, 64, 53
2, 74633, Control_c, 0, 64, 59
2, 74651, Control_c, 0, 64, 62
2, 74671, Control_c, 0, 64, 63
2, 74690, Control_c, 0, 64, 65
2, 74710, Control_c, 0, 64, 68
2, 74711, Note_on_c, 0, 63, 70
2, 74728, Control_c, 0, 64, 72
2, 74735, Note_on_c, 0, 65, 0
2, 74748, Control_c, 0, 64, 80
2, 74768, Control_c, 0, 64, 90
2, 74787, Control_c, 0, 64, 102
2, 74800, Note_on_c, 0, 70, 0
2, 74806, Control_c, 0, 64, 118
2, 74826, Control_c, 0, 64, 127
2, 74830, Note_on_c, 0, 53, 0
2, 74846, Note_on_c, 0, 41, 0
2, 74910, Note_on_c, 0, 65, 73
2, 74990, Note_on_c, 0, 63, 0
2, 75204, Note_on_c, 0, 41, 37
2, 75207, Note_on_c, 0, 53, 37
2, 75286, Control_c, 0, 64, 121
2, 75303, Note_on_c, 0, 66, 63
2, 75306, Control_c, 0, 64, 116
2, 75315, Note_on_c, 0, 69, 62
2, 75316, Note_on_c, 0, 60, 49
2, 75325, Control_c, 0, 64, 110
2, 75344, Control_c, 0, 64, 97
2, 75354, Note_on_c, 0, 65, 0
2, 75363, Control_c, 0, 64, 79
2, 75383, Control_c, 0, 64, 63
2, 75401, Control_c, 0, 64, 0
2, 75535, Control_c, 0, 64, 31
2, 75555, Control_c, 0, 64, 57
2, 75574, Control_c, 0, 64, 63
2, 75594, Control_c, 0, 64, 65
2, 75612, Control_c, 0, 64, 67
2, 75632, Control_c, 0, 64, 70
2, 75651, Control_c, 0, 64, 76
2, 75670, Control_c, 0, 64, 85
2, 75689, Control_c, 0, 64, 96
2, 75708, Note_on_c, 0, 66, 0
2, 75709, Control_c, 0, 64, 108
2, 75729, Control_c, 0, 64, 127
2, 75975, Note_on_c, 0, 65, 50
2, 76017, Control_c, 0, 64, 123
2, 76017, Note_on_c, 0, 65, 0
2, 76036, Control_c, 0, 64, 107
2, 76045, Note_on_c, 0, 66, 53
2, 76055, Control_c, 0, 64, 90
2, 76075, Control_c, 0, 64, 73
2, 76093, Control_c, 0, 64, 58
2, 76108, Note_on_c, 0, 66, 0
2, 76113, Control_c, 0, 64, 0
2, 76120, Note_on_c, 0, 65, 57
2, 76267, Control_c, 0, 64, 46
2, 76285, Control_c, 0, 64, 61
2, 76305, Control_c, 0, 64, 64
2, 76324, Control_c, 0, 64, 67
2, 76344, Control_c, 0, 64, 71
2, 76362, Control_c, 0, 64, 81
2, 76382, Control_c, 0, 64, 108
2, 76401, Control_c, 0, 64, 127
2, 76429, Note_on_c, 0, 41, 0
2, 76455, Note_on_c, 0, 69, 0
2, 76482, Note_on_c, 0, 60, 0
2, 76495, Note_on_c, 0, 53, 0
2, 76513, Note_on_c, 0, 65, 0
2, 77015, Note_on_c, 0, 63, 48
2, 77034, Control_c, 0, 67, 11
2, 77052, Control_c, 0, 67, 18
2, 77072, Control_c, 0, 67, 27
2, 77091, Control_c, 0, 67, 36
2, 77110, Control_c, 0, 67, 48
2, 77129, Control_c, 0, 67, 65
2, 77149, Control_c, 0, 67, 88
2, 77168, Control_c, 0, 67, 115
2, 77187, Control_c, 0, 67, 127
2, 77364, Note_on_c, 0, 53, 35
2, 77373, Note_on_c, 0, 58, 33
2, 77392, Note_on_c, 0, 46, 33
2, 77398, Control_c, 0, 64, 90
2, 77406, Note_on_c, 0, 70, 47
2, 77418, Control_c, 0, 64, 69
2, 77420, Note_on_c, 0, 61, 31
2, 77437, Control_c, 0, 64, 48
2, 77455, Control_c, 0, 64, 0
2, 77455, Note_on_c, 0, 63, 0
2, 77763, Control_c, 0, 64, 39
2, 77783, Control_c, 0, 64, 53
2, 77801, Control_c, 0, 64, 60
2, 77821, Control_c, 0, 64, 64
2, 77840, Control_c, 0, 64, 67
2, 77860, Control_c, 0, 64, 72
2, 77878, Control_c, 0, 64, 80
2, 77898, Control_c, 0, 64, 93
2, 77917, Control_c, 0, 64, 117
2, 77935, Control_c, 0, 64, 127
2, 77935, Control_c, 0, 67, 127
2, 77955, Control_c, 0, 67, 126
2, 77974, Control_c, 0, 67, 126
2, 78051, Control_c, 0, 67, 125
2, 78068, Note_on_c, 0, 61, 0
2, 78070, Control_c, 0, 67, 124
2, 78089, Control_c, 0, 67, 122
2, 78109, Control_c, 0, 67, 120
2, 78128, Control_c, 0, 67, 118
2, 78143, Note_on_c, 0, 70, 0
2, 78147, Control_c, 0, 67, 117
2, 78166, Control_c, 0, 67, 116
2, 78186, Control_c, 0, 67, 114
2, 78205, Control_c, 0, 67, 112
2, 78224, Control_c, 0, 67, 111
2, 78244, Control_c, 0, 67, 108
2, 78264, Control_c, 0, 67, 103
2, 78282, Control_c, 0, 67, 98
2, 78302, Control_c, 0, 67, 91
2, 78321, Control_c, 0, 67, 84
2, 78341, Control_c, 0, 67, 75
2, 78359, Control_c, 0, 67, 68
2, 78379, Control_c, 0, 67, 63
2, 78398, Control_c, 0, 67, 61
2, 78416, Control_c, 0, 67, 58
2, 78436, Control_c, 0, 67, 54
2, 78455, Control_c, 0, 67, 51
2, 78475, Control_c, 0, 67, 48
2, 78484, Note_on_c, 0, 58, 0
2, 78493, Control_c, 0, 67, 48
2, 78607, Control_c, 0, 67, 48
2, 78665, Control_c, 0, 67, 49
2, 78760, Control_c, 0, 67, 49
2, 78796, Note_on_c, 0, 72, 48
2, 78822, Note_on_c, 0, 63, 30
2, 78870, Note_on_c, 0, 46, 0
2, 78893, Note_on_c, 0, 63, 0
2, 78956, Note_on_c, 0, 72, 0
2, 79010, Control_c, 0, 67, 50
2, 79026, Note_on_c, 0, 53, 0
2, 79172, Note_on_c, 0, 65, 36
2, 79213, Note_on_c, 0, 70, 44
2, 79274, Note_on_c, 0, 73, 50
2, 79336, Control_c, 0, 64, 94
2, 79356, Control_c, 0, 64, 75
2, 79375, Control_c, 0, 64, 63
2, 79394, Control_c, 0, 64, 0
2, 79606, Control_c, 0, 67, 49
2, 79645, Control_c, 0, 64, 18
2, 79664, Control_c, 0, 64, 50
2, 79683, Control_c, 0, 64, 60
2, 79703, Control_c, 0, 64, 64
2, 79721, Control_c, 0, 64, 66
2, 79741, Control_c, 0, 64, 68
2, 79741, Control_c, 0, 67, 49
2, 79760, Control_c, 0, 64, 73
2, 79760, Control_c, 0, 67, 48
2, 79780, Control_c, 0, 64, 79
2, 79780, Control_c, 0, 67, 48
2, 79798, Control_c, 0, 64, 88
2, 79798, Control_c, 0, 67, 47
2, 79818, Control_c, 0, 64, 101
2, 79818, Control_c, 0, 67, 46
2, 79837, Control_c, 0, 64, 127
2, 79837, Control_c, 0, 67, 46
2, 79875, Control_c, 0, 67, 45
2, 79914, Control_c, 0, 67, 44
2, 79932, Control_c, 0, 67, 40
2, 79952, Control_c, 0, 67, 35
2, 79971, Control_c, 0, 67, 29
2, 79990, Control_c, 0, 67, 22
2, 80009, Control_c, 0, 67, 15
2, 80029, Control_c, 0, 67, 10
2, 80048, Control_c, 0, 67, 0
2, 80650, Note_on_c, 0, 46, 38
2, 80650, Note_on_c, 0, 70, 0
2, 80658, Note_on_c, 0, 65, 0
2, 80683, Note_on_c, 0, 73, 0
2, 81012, Note_on_c, 0, 65, 36
2, 81070, Note_on_c, 0, 70, 46
2, 81124, Note_on_c, 0, 73, 60
2, 81125, Note_on_c, 0, 49, 50
2, 81198, Note_on_c, 0, 46, 0
2, 81255, Control_c, 0, 64, 99
2, 81275, Control_c, 0, 64, 76
2, 81294, Control_c, 0, 64, 60
2, 81313, Control_c, 0, 64, 0
2, 81447, Control_c, 0, 64, 48
2, 81467, Control_c, 0, 64, 60
2, 81487, Control_c, 0, 64, 64
2, 81506, Control_c, 0, 64, 66
2, 81525, Control_c, 0, 64, 70
2, 81545, Control_c, 0, 64, 77
2, 81564, Control_c, 0, 64, 87
2, 81583, Control_c, 0, 64, 102
2, 81602, Control_c, 0, 64, 127
2, 82062, Note_on_c, 0, 65, 0
2, 82224, Note_on_c, 0, 70, 0
2, 82251, Note_on_c, 0, 73, 0
2, 82529, Note_on_c, 0, 53, 58
2, 82877, Note_on_c, 0, 64, 43
2, 82953, Note_on_c, 0, 70, 53
2, 82998, Note_on_c, 0, 43, 44
2, 83008, Note_on_c, 0, 73, 61
2, 83032, Note_on_c, 0, 53, 0
2, 83080, Control_c, 0, 64, 91
2, 83099, Control_c, 0, 64, 70
2, 83118, Control_c, 0, 64, 48
2, 83137, Control_c, 0, 64, 0
2, 83146, Note_on_c, 0, 49, 0
2, 83272, Control_c, 0, 64, 26
2, 83290, Control_c, 0, 64, 57
2, 83310, Control_c, 0, 64, 63
2, 83329, Control_c, 0, 64, 66
2, 83349, Control_c, 0, 64, 70
2, 83367, Control_c, 0, 64, 76
2, 83387, Control_c, 0, 64, 88
2, 83409, Control_c, 0, 64, 121
2, 83428, Control_c, 0, 64, 127
2, 84019, Note_on_c, 0, 73, 0
2, 84025, Note_on_c, 0, 70, 0
2, 84296, Note_on_c, 0, 71, 53
2, 84494, Note_on_c, 0, 70, 69
2, 84525, Note_on_c, 0, 71, 0
2, 84557, Note_on_c, 0, 70, 0
2, 84648, Note_on_c, 0, 64, 0
2, 84708, Note_on_c, 0, 70, 60
2, 84784, Note_on_c, 0, 73, 55
2, 84829, Note_on_c, 0, 76, 66
2, 84942, Control_c, 0, 64, 119
2, 84961, Control_c, 0, 64, 83
2, 84981, Control_c, 0, 64, 64
2, 85000, Control_c, 0, 64, 18
2, 85019, Control_c, 0, 64, 0
2, 85891, Note_on_c, 0, 46, 42
2, 85936, Note_on_c, 0, 43, 0
2, 86109, Note_on_c, 0, 44, 64
2, 86165, Note_on_c, 0, 46, 0
2, 86292, Note_on_c, 0, 43, 63
2, 86332, Note_on_c, 0, 44, 0
2, 86590, Note_on_c, 0, 49, 55
2, 86623, Note_on_c, 0, 43, 0
2, 87112, Control_c, 0, 64, 45
2, 87130, Control_c, 0, 64, 58
2, 87150, Control_c, 0, 64, 63
2, 87169, Control_c, 0, 64, 66
2, 87189, Control_c, 0, 64, 71
2, 87207, Control_c, 0, 64, 79
2, 87227, Control_c, 0, 64, 90
2, 87248, Control_c, 0, 64, 104
2, 87267, Control_c, 0, 64, 127
2, 87325, Note_on_c, 0, 76, 0
2, 87352, Note_on_c, 0, 73, 0
2, 87891, Note_on_c, 0, 75, 69
2, 87924, Note_on_c, 0, 70, 0
2, 88094, Note_on_c, 0, 73, 75
2, 88184, Note_on_c, 0, 75, 0
2, 88210, Note_on_c, 0, 73, 0
2, 88251, Note_on_c, 0, 70, 67
2, 88335, Note_on_c, 0, 73, 58
2, 88392, Note_on_c, 0, 79, 79
2, 88513, Control_c, 0, 64, 86
2, 88532, Control_c, 0, 64, 69
2, 88552, Control_c, 0, 64, 46
2, 88570, Control_c, 0, 64, 0
2, 89656, Note_on_c, 0, 47, 63
2, 89750, Note_on_c, 0, 49, 0
2, 89856, Note_on_c, 0, 46, 69
2, 89897, Note_on_c, 0, 47, 0
2, 90188, Note_on_c, 0, 52, 73
2, 90224, Note_on_c, 0, 46, 0
2, 90677, Note_on_c, 0, 51, 74
2, 90732, Note_on_c, 0, 52, 0
2, 91092, Note_on_c, 0, 52, 79
2, 91106, Note_on_c, 0, 51, 0
2, 91492, Note_on_c, 0, 49, 79
2, 91515, Note_on_c, 0, 77, 77
2, 91525, Note_on_c, 0, 52, 0
2, 91526, Note_on_c, 0, 73, 0
2, 91551, Note_on_c, 0, 79, 0
2, 91567, Control_c, 0, 64, 51
2, 91586, Control_c, 0, 64, 62
2, 91605, Control_c, 0, 64, 65
2, 91618, Note_on_c, 0, 70, 0
2, 91625, Control_c, 0, 64, 67
2, 91644, Control_c, 0, 64, 71
2, 91663, Control_c, 0, 64, 79
2, 91683, Control_c, 0, 64, 93
2, 91703, Control_c, 0, 64, 127
2, 91708, Note_on_c, 0, 75, 82
2, 91778, Note_on_c, 0, 77, 0
2, 91829, Note_on_c, 0, 75, 0
2, 91985, Note_on_c, 0, 47, 73
2, 92016, Note_on_c, 0, 49, 0
2, 92032, Note_on_c, 0, 80, 87
2, 92047, Note_on_c, 0, 71, 70
2, 92047, Note_on_c, 0, 75, 72
2, 92086, Control_c, 0, 64, 94
2, 92106, Control_c, 0, 64, 72
2, 92125, Control_c, 0, 64, 48
2, 92144, Control_c, 0, 64, 0
2, 92305, Note_on_c, 0, 46, 70
2, 92365, Note_on_c, 0, 47, 0
2, 92492, Note_on_c, 0, 44, 75
2, 92528, Note_on_c, 0, 46, 0
2, 92705, Note_on_c, 0, 46, 73
2, 92742, Note_on_c, 0, 44, 0
2, 92905, Note_on_c, 0, 47, 75
2, 92936, Note_on_c, 0, 46, 0
2, 93104, Note_on_c, 0, 44, 76
2, 93158, Note_on_c, 0, 47, 0
2, 93310, Note_on_c, 0, 46, 77
2, 93352, Note_on_c, 0, 44, 0
2, 93498, Note_on_c, 0, 47, 77
2, 93512, Note_on_c, 0, 46, 0
2, 93799, Note_on_c, 0, 40, 78
2, 93832, Note_on_c, 0, 47, 0
2, 94258, Note_on_c, 0, 79, 85
2, 94301, Note_on_c, 0, 80, 0
2, 94683, Note_on_c, 0, 80, 80
2, 94769, Note_on_c, 0, 79, 0
2, 94826, Note_on_c, 0, 40, 0
2, 94863, Note_on_c, 0, 52, 70
2, 95098, Note_on_c, 0, 82, 90
2, 95118, Note_on_c, 0, 51, 66
2, 95152, Note_on_c, 0, 52, 0
2, 95157, Note_on_c, 0, 80, 0
2, 95172, Note_on_c, 0, 75, 0
2, 95176, Note_on_c, 0, 71, 0
2, 95215, Control_c, 0, 64, 60
2, 95234, Control_c, 0, 64, 66
2, 95253, Control_c, 0, 64, 71
2, 95273, Control_c, 0, 64, 80
2, 95291, Control_c, 0, 64, 95
2, 95303, Note_on_c, 0, 82, 0
2, 95311, Control_c, 0, 64, 127
2, 95311, Note_on_c, 0, 49, 78
2, 95329, Note_on_c, 0, 51, 0
2, 95589, Note_on_c, 0, 51, 69
2, 95625, Note_on_c, 0, 83, 81
2, 95628, Note_on_c, 0, 79, 71
2, 95635, Note_on_c, 0, 49, 0
2, 95637, Note_on_c, 0, 75, 70
2, 95655, Control_c, 0, 64, 93
2, 95675, Control_c, 0, 64, 67
2, 95694, Control_c, 0, 64, 0
2, 95770, Control_c, 0, 64, 44
2, 95787, Note_on_c, 0, 82, 75
2, 95790, Control_c, 0, 64, 62
2, 95800, Note_on_c, 0, 83, 0
2, 95809, Control_c, 0, 64, 68
2, 95829, Control_c, 0, 64, 74
2, 95847, Control_c, 0, 64, 83
2, 95867, Control_c, 0, 64, 87
2, 95886, Control_c, 0, 64, 88
2, 95905, Note_on_c, 0, 83, 77
2, 95906, Control_c, 0, 64, 87
2, 95924, Control_c, 0, 64, 83
2, 95932, Note_on_c, 0, 82, 0
2, 95944, Control_c, 0, 64, 76
2, 95963, Control_c, 0, 64, 68
2, 95982, Control_c, 0, 64, 54
2, 95995, Note_on_c, 0, 82, 67
2, 96001, Control_c, 0, 64, 0
2, 96001, Note_on_c, 0, 83, 0
2, 96104, Note_on_c, 0, 83, 79
2, 96106, Note_on_c, 0, 82, 0
2, 96196, Note_on_c, 0, 82, 75
2, 96203, Note_on_c, 0, 83, 0
2, 96293, Note_on_c, 0, 82, 0
2, 96295, Note_on_c, 0, 83, 78
2, 96388, Note_on_c, 0, 82, 74
2, 96400, Note_on_c, 0, 83, 0
2, 96490, Note_on_c, 0, 83, 75
2, 96494, Note_on_c, 0, 82, 0
2, 96584, Note_on_c, 0, 82, 74
2, 96599, Note_on_c, 0, 83, 0
2, 96689, Note_on_c, 0, 83, 73
2, 96751, Note_on_c, 0, 82, 0
2, 96775, Note_on_c, 0, 82, 54
2, 96797, Note_on_c, 0, 83, 0
2, 96889, Note_on_c, 0, 82, 0
2, 96889, Note_on_c, 0, 83, 76
2, 96894, Note_on_c, 0, 49, 70
2, 96920, Note_on_c, 0, 51, 0
2, 96945, Note_on_c, 0, 79, 0
2, 96983, Note_on_c, 0, 82, 73
2, 96991, Note_on_c, 0, 83, 0
2, 97076, Note_on_c, 0, 82, 0
2, 97084, Note_on_c, 0, 83, 75
2, 97107, Note_on_c, 0, 75, 0
2, 97167, Note_on_c, 0, 82, 73
2, 97189, Note_on_c, 0, 83, 0
2, 97286, Note_on_c, 0, 82, 0
2, 97293, Note_on_c, 0, 83, 78
2, 97304, Note_on_c, 0, 51, 71
2, 97318, Note_on_c, 0, 49, 0
2, 97323, Note_on_c, 0, 73, 65
2, 97400, Note_on_c, 0, 82, 80
2, 97410, Note_on_c, 0, 83, 0
2, 97500, Note_on_c, 0, 82, 0
2, 97514, Note_on_c, 0, 83, 75
2, 97595, Note_on_c, 0, 82, 74
2, 97613, Note_on_c, 0, 83, 0
2, 97696, Note_on_c, 0, 82, 0
2, 97706, Note_on_c, 0, 83, 74
2, 97793, Note_on_c, 0, 82, 77
2, 97806, Note_on_c, 0, 83, 0
2, 97891, Note_on_c, 0, 82, 0
2, 97900, Note_on_c, 0, 83, 73
2, 98017, Note_on_c, 0, 82, 80
2, 98050, Note_on_c, 0, 83, 0
2, 98153, Note_on_c, 0, 80, 80
2, 98220, Note_on_c, 0, 82, 0
2, 98323, Control_c, 0, 64, 38
2, 98343, Control_c, 0, 64, 64
2, 98362, Control_c, 0, 64, 69
2, 98380, Control_c, 0, 64, 78
2, 98400, Control_c, 0, 64, 90
2, 98419, Control_c, 0, 64, 127
2, 98502, Note_on_c, 0, 73, 0
2, 98503, Note_on_c, 0, 80, 0
2, 98604, Note_on_c, 0, 39, 70
2, 98646, Note_on_c, 0, 51, 0
2, 99113, Note_on_c, 0, 80, 84
2, 99125, Note_on_c, 0, 44, 58
2, 99125, Note_on_c, 0, 71, 59
2, 99132, Note_on_c, 0, 75, 63
2, 99168, Control_c, 0, 64, 83
2, 99188, Control_c, 0, 64, 62
2, 99190, Note_on_c, 0, 39, 0
2, 99206, Control_c, 0, 64, 0
2, 99417, Control_c, 0, 64, 63
2, 99437, Control_c, 0, 64, 70
2, 99456, Control_c, 0, 64, 81
2, 99475, Control_c, 0, 64, 95
2, 99494, Control_c, 0, 64, 127
2, 99894, Note_on_c, 0, 80, 0
2, 99915, Note_on_c, 0, 75, 0
2, 100026, Note_on_c, 0, 44, 0
2, 100052, Note_on_c, 0, 71, 0
2, 100450, Note_on_c, 0, 83, 85
2, 100909, Note_on_c, 0, 77, 71
2, 100974, Note_on_c, 0, 83, 0
2, 101011, Control_c, 0, 64, 85
2, 101031, Control_c, 0, 64, 66
2, 101050, Control_c, 0, 64, 22
2, 101069, Control_c, 0, 64, 0
2, 102209, Note_on_c, 0, 59, 67
2, 102212, Note_on_c, 0, 78, 70
2, 102271, Note_on_c, 0, 77, 0
2, 102411, Note_on_c, 0, 80, 78
2, 102470, Note_on_c, 0, 78, 0
2, 102681, Note_on_c, 0, 74, 70
2, 102692, Note_on_c, 0, 53, 55
2, 102729, Note_on_c, 0, 80, 0
2, 102749, Note_on_c, 0, 59, 0
2, 104029, Note_on_c, 0, 54, 58
2, 104031, Note_on_c, 0, 75, 71
2, 104050, Note_on_c, 0, 53, 0
2, 104076, Note_on_c, 0, 74, 0
2, 104219, Note_on_c, 0, 77, 80
2, 104224, Note_on_c, 0, 56, 63
2, 104227, Note_on_c, 0, 54, 0
2, 104251, Note_on_c, 0, 75, 0
2, 104505, Note_on_c, 0, 50, 56
2, 104516, Note_on_c, 0, 70, 76
2, 104550, Note_on_c, 0, 56, 0
2, 104573, Note_on_c, 0, 77, 0
2, 105820, Note_on_c, 0, 80, 80
2, 105828, Note_on_c, 0, 51, 57
2, 105879, Note_on_c, 0, 50, 0
2, 105970, Note_on_c, 0, 70, 0
2, 106007, Note_on_c, 0, 53, 66
2, 106015, Note_on_c, 0, 51, 0
2, 106260, Note_on_c, 0, 46, 61
2, 106271, Note_on_c, 0, 74, 73
2, 106305, Note_on_c, 0, 53, 0
2, 106347, Note_on_c, 0, 80, 0
2, 107641, Note_on_c, 0, 56, 57
2, 107650, Note_on_c, 0, 75, 70
2, 107686, Note_on_c, 0, 74, 0
2, 107717, Note_on_c, 0, 46, 0
2, 107852, Note_on_c, 0, 77, 75
2, 107915, Note_on_c, 0, 75, 0
2, 108102, Note_on_c, 0, 50, 53
2, 108107, Note_on_c, 0, 70, 69
2, 108171, Note_on_c, 0, 77, 0
2, 108179, Note_on_c, 0, 56, 0
2, 109445, Note_on_c, 0, 51, 53
2, 109456, Note_on_c, 0, 72, 69
2, 109494, Note_on_c, 0, 70, 0
2, 109501, Note_on_c, 0, 50, 0
2, 109642, Note_on_c, 0, 51, 0
2, 109653, Note_on_c, 0, 53, 59
2, 109657, Note_on_c, 0, 74, 74
2, 109748, Note_on_c, 0, 72, 0
2, 109963, Note_on_c, 0, 75, 75
2, 109975, Note_on_c, 0, 42, 56
2, 110005, Note_on_c, 0, 53, 0
2, 110011, Note_on_c, 0, 74, 0
2, 110957, Control_c, 0, 64, 28
2, 110976, Control_c, 0, 64, 49
2, 110996, Control_c, 0, 64, 55
2, 111014, Control_c, 0, 64, 59
2, 111034, Control_c, 0, 64, 63
2, 111053, Control_c, 0, 64, 65
2, 111072, Control_c, 0, 64, 69
2, 111091, Control_c, 0, 64, 76
2, 111111, Control_c, 0, 64, 90
2, 111130, Control_c, 0, 64, 123
2, 111149, Control_c, 0, 64, 127
2, 111321, Note_on_c, 0, 42, 0
2, 111351, Note_on_c, 0, 73, 58
2, 111507, Note_on_c, 0, 75, 0
2, 111561, Note_on_c, 0, 71, 58
2, 111590, Note_on_c, 0, 73, 0
2, 111726, Control_c, 0, 67, 8
2, 111746, Control_c, 0, 67, 15
2, 111764, Control_c, 0, 67, 23
2, 111784, Control_c, 0, 67, 32
2, 111803, Control_c, 0, 67, 42
2, 111821, Control_c, 0, 67, 53
2, 111839, Control_c, 0, 67, 65
2, 111858, Control_c, 0, 67, 80
2, 111878, Control_c, 0, 67, 95
2, 111896, Control_c, 0, 67, 111
2, 111906, Note_on_c, 0, 73, 48
2, 111907, Note_on_c, 0, 43, 38
2, 111916, Control_c, 0, 64, 94
2, 111916, Control_c, 0, 67, 127
2, 111935, Control_c, 0, 64, 68
2, 111939, Note_on_c, 0, 71, 0
2, 111955, Control_c, 0, 64, 36
2, 111973, Control_c, 0, 64, 0
2, 112185, Control_c, 0, 64, 19
2, 112204, Control_c, 0, 64, 50
2, 112224, Control_c, 0, 64, 60
2, 112242, Control_c, 0, 64, 64
2, 112261, Control_c, 0, 64, 67
2, 112281, Control_c, 0, 64, 71
2, 112300, Control_c, 0, 64, 80
2, 112319, Control_c, 0, 64, 95
2, 112338, Control_c, 0, 64, 127
2, 112455, Note_on_c, 0, 43, 0
2, 112902, Note_on_c, 0, 73, 0
2, 113326, Note_on_c, 0, 58, 39
2, 113658, Note_on_c, 0, 63, 35
2, 113729, Note_on_c, 0, 70, 38
2, 113775, Note_on_c, 0, 73, 48
2, 113781, Note_on_c, 0, 55, 34
2, 113815, Note_on_c, 0, 58, 0
2, 113855, Control_c, 0, 64, 96
2, 113875, Control_c, 0, 64, 72
2, 113893, Control_c, 0, 64, 56
2, 113913, Control_c, 0, 64, 0
2, 114047, Control_c, 0, 64, 26
2, 114067, Control_c, 0, 64, 55
2, 114085, Control_c, 0, 64, 63
2, 114105, Control_c, 0, 64, 67
2, 114124, Control_c, 0, 64, 72
2, 114143, Control_c, 0, 64, 83
2, 114162, Control_c, 0, 64, 97
2, 114181, Control_c, 0, 64, 127
2, 114593, Note_on_c, 0, 63, 0
2, 114693, Note_on_c, 0, 73, 0
2, 114694, Note_on_c, 0, 70, 0
2, 115163, Note_on_c, 0, 51, 36
2, 115374, Note_on_c, 0, 55, 0
2, 115590, Note_on_c, 0, 63, 29
2, 115655, Note_on_c, 0, 70, 44
2, 115751, Note_on_c, 0, 73, 46
2, 115766, Note_on_c, 0, 44, 36
2, 115795, Control_c, 0, 64, 112
2, 115810, Note_on_c, 0, 51, 0
2, 115813, Control_c, 0, 64, 86
2, 115833, Control_c, 0, 64, 69
2, 115852, Control_c, 0, 64, 51
2, 115871, Control_c, 0, 64, 0
2, 116063, Control_c, 0, 64, 17
2, 116082, Control_c, 0, 64, 51
2, 116101, Control_c, 0, 64, 61
2, 116121, Control_c, 0, 64, 64
2, 116140, Control_c, 0, 64, 67
2, 116159, Control_c, 0, 64, 71
2, 116178, Control_c, 0, 64, 78
2, 116198, Control_c, 0, 64, 89
2, 116216, Control_c, 0, 64, 112
2, 116236, Control_c, 0, 64, 127
2, 116435, Note_on_c, 0, 73, 0
2, 116560, Note_on_c, 0, 70, 0
2, 116695, Note_on_c, 0, 44, 0
2, 117121, Note_on_c, 0, 71, 35
2, 117352, Note_on_c, 0, 70, 50
2, 117376, Note_on_c, 0, 71, 0
2, 117479, Note_on_c, 0, 63, 0
2, 117580, Note_on_c, 0, 71, 40
2, 117632, Note_on_c, 0, 70, 0
2, 117638, Control_c, 0, 64, 101
2, 117656, Control_c, 0, 64, 77
2, 117676, Control_c, 0, 64, 63
2, 117695, Control_c, 0, 64, 0
2, 118195, Control_c, 0, 64, 45
2, 118213, Control_c, 0, 64, 59
2, 118233, Control_c, 0, 64, 63
2, 118252, Control_c, 0, 64, 66
2, 118271, Control_c, 0, 64, 69
2, 118290, Control_c, 0, 64, 74
2, 118310, Control_c, 0, 64, 81
2, 118329, Control_c, 0, 64, 89
2, 118348, Control_c, 0, 64, 98
2, 118367, Control_c, 0, 64, 112
2, 118387, Control_c, 0, 64, 127
2, 118682, Note_on_c, 0, 71, 0
2, 118979, Note_on_c, 0, 59, 37
2, 119321, Note_on_c, 0, 63, 27
2, 119373, Note_on_c, 0, 68, 35
2, 119431, Note_on_c, 0, 71, 41
2, 119446, Note_on_c, 0, 56, 31
2, 119500, Control_c, 0, 64, 108
2, 119520, Control_c, 0, 64, 83
2, 119539, Control_c, 0, 64, 67
2, 119559, Control_c, 0, 64, 44
2, 119561, Note_on_c, 0, 59, 0
2, 119577, Control_c, 0, 64, 0
2, 119712, Control_c, 0, 64, 27
2, 119731, Control_c, 0, 64, 54
2, 119751, Control_c, 0, 64, 62
2, 119770, Control_c, 0, 64, 66
2, 119789, Control_c, 0, 64, 69
2, 119808, Control_c, 0, 64, 75
2, 119828, Control_c, 0, 64, 83
2, 119846, Control_c, 0, 64, 94
2, 119866, Control_c, 0, 64, 113
2, 119885, Control_c, 0, 64, 127
2, 120212, Note_on_c, 0, 63, 0
2, 120240, Note_on_c, 0, 56, 0
2, 120309, Note_on_c, 0, 71, 0
2, 120344, Note_on_c, 0, 68, 0
2, 120764, Note_on_c, 0, 53, 35
2, 121169, Note_on_c, 0, 65, 4
2, 121196, Note_on_c, 0, 68, 41
2, 121248, Note_on_c, 0, 50, 34
2, 121266, Note_on_c, 0, 71, 46
2, 121286, Control_c, 0, 64, 104
2, 121304, Control_c, 0, 64, 78
2, 121324, Control_c, 0, 64, 64
2, 121326, Note_on_c, 0, 53, 0
2, 121343, Control_c, 0, 64, 32
2, 121362, Control_c, 0, 64, 0
2, 121555, Control_c, 0, 64, 30
2, 121573, Control_c, 0, 64, 56
2, 121593, Control_c, 0, 64, 63
2, 121612, Control_c, 0, 64, 65
2, 121631, Control_c, 0, 64, 68
2, 121650, Control_c, 0, 64, 73
2, 121670, Control_c, 0, 64, 83
2, 121689, Control_c, 0, 64, 96
2, 121708, Control_c, 0, 64, 127
2, 121907, Note_on_c, 0, 68, 0
2, 122034, Note_on_c, 0, 65, 0
2, 122091, Note_on_c, 0, 71, 0
2, 122250, Note_on_c, 0, 50, 0
2, 122588, Note_on_c, 0, 70, 46
2, 122779, Note_on_c, 0, 68, 55
2, 122833, Note_on_c, 0, 70, 0
2, 122874, Note_on_c, 0, 50, 34
2, 122925, Note_on_c, 0, 53, 36
2, 123073, Note_on_c, 0, 77, 58
2, 123077, Note_on_c, 0, 58, 32
2, 123091, Control_c, 0, 64, 95
2, 123111, Control_c, 0, 64, 76
2, 123130, Control_c, 0, 64, 62
2, 123147, Note_on_c, 0, 68, 0
2, 123149, Control_c, 0, 64, 0
2, 123377, Control_c, 0, 64, 47
2, 123397, Control_c, 0, 64, 61
2, 123415, Control_c, 0, 64, 65
2, 123435, Control_c, 0, 64, 68
2, 123454, Control_c, 0, 64, 74
2, 123474, Control_c, 0, 64, 82
2, 123492, Control_c, 0, 64, 95
2, 123512, Control_c, 0, 64, 117
2, 123531, Control_c, 0, 64, 127
2, 123671, Note_on_c, 0, 77, 0
2, 123787, Note_on_c, 0, 50, 0
2, 123804, Note_on_c, 0, 58, 0
2, 124013, Note_on_c, 0, 53, 0
2, 124351, Note_on_c, 0, 71, 43
2, 124458, Note_on_c, 0, 71, 0
2, 124541, Note_on_c, 0, 50, 34
2, 124615, Note_on_c, 0, 53, 34
2, 124734, Note_on_c, 0, 58, 37
2, 124734, Note_on_c, 0, 70, 47
2, 124741, Control_c, 0, 64, 82
2, 124761, Control_c, 0, 64, 66
2, 124780, Control_c, 0, 64, 49
2, 124792, Note_on_c, 0, 70, 0
2, 124799, Control_c, 0, 64, 0
2, 124820, Note_on_c, 0, 71, 53
2, 124838, Control_c, 0, 64, 34
2, 124856, Control_c, 0, 64, 53
2, 124876, Control_c, 0, 64, 61
2, 124894, Note_on_c, 0, 71, 0
2, 124895, Control_c, 0, 64, 63
2, 124918, Note_on_c, 0, 70, 56
2, 124933, Control_c, 0, 64, 62
2, 124953, Control_c, 0, 64, 62
2, 124972, Control_c, 0, 64, 61
2, 124991, Control_c, 0, 64, 60
2, 124992, Note_on_c, 0, 70, 0
2, 125010, Control_c, 0, 64, 57
2, 125013, Note_on_c, 0, 71, 50
2, 125030, Control_c, 0, 64, 54
2, 125049, Control_c, 0, 64, 47
2, 125068, Control_c, 0, 64, 31
2, 125087, Control_c, 0, 64, 0
2, 125105, Note_on_c, 0, 71, 0
2, 125116, Note_on_c, 0, 70, 56
2, 125203, Note_on_c, 0, 70, 0
2, 125213, Note_on_c, 0, 71, 46
2, 125302, Note_on_c, 0, 70, 48
2, 125302, Note_on_c, 0, 71, 0
2, 125409, Note_on_c, 0, 70, 0
2, 125418, Note_on_c, 0, 71, 54
2, 125548, Note_on_c, 0, 70, 54
2, 125551, Note_on_c, 0, 71, 0
2, 125643, Control_c, 0, 64, 27
2, 125662, Control_c, 0, 64, 58
2, 125681, Control_c, 0, 64, 65
2, 125700, Control_c, 0, 64, 71
2, 125720, Control_c, 0, 64, 80
2, 125739, Control_c, 0, 64, 95
2, 125754, Note_on_c, 0, 50, 0
2, 125758, Control_c, 0, 64, 127
2, 125779, Note_on_c, 0, 70, 0
2, 125795, Note_on_c, 0, 58, 0
2, 125802, Note_on_c, 0, 53, 0
2, 126035, Note_on_c, 0, 71, 47
2, 126199, Note_on_c, 0, 71, 0
2, 126222, Note_on_c, 0, 68, 46
2, 126267, Note_on_c, 0, 68, 0
2, 126309, Note_on_c, 0, 51, 32
2, 126441, Note_on_c, 0, 54, 36
2, 126558, Note_on_c, 0, 66, 47
2, 126559, Note_on_c, 0, 58, 28
2, 126565, Control_c, 0, 64, 88
2, 126572, Note_on_c, 0, 63, 43
2, 126583, Control_c, 0, 64, 70
2, 126604, Control_c, 0, 64, 53
2, 126623, Control_c, 0, 64, 0
2, 126853, Control_c, 0, 64, 42
2, 126873, Control_c, 0, 64, 57
2, 126892, Control_c, 0, 64, 62
2, 126911, Control_c, 0, 64, 65
2, 126930, Control_c, 0, 64, 69
2, 126950, Control_c, 0, 64, 76
2, 126969, Control_c, 0, 64, 88
2, 126988, Control_c, 0, 64, 108
2, 127007, Control_c, 0, 64, 127
2, 127264, Note_on_c, 0, 63, 0
2, 127363, Note_on_c, 0, 51, 0
2, 127414, Note_on_c, 0, 58, 0
2, 127468, Note_on_c, 0, 54, 0
2, 128078, Note_on_c, 0, 51, 28
2, 128121, Note_on_c, 0, 54, 39
2, 128197, Control_c, 0, 64, 85
2, 128215, Control_c, 0, 64, 66
2, 128229, Note_on_c, 0, 58, 31
2, 128235, Control_c, 0, 64, 32
2, 128254, Control_c, 0, 64, 0
2, 128331, Control_c, 0, 64, 34
2, 128351, Control_c, 0, 64, 54
2, 128369, Control_c, 0, 64, 60
2, 128389, Control_c, 0, 64, 62
2, 128408, Control_c, 0, 64, 63
2, 128418, Note_on_c, 0, 63, 34
2, 128426, Control_c, 0, 64, 63
2, 128503, Control_c, 0, 64, 63
2, 128523, Control_c, 0, 64, 62
2, 128542, Control_c, 0, 64, 61
2, 128561, Control_c, 0, 64, 59
2, 128568, Note_on_c, 0, 66, 0
2, 128580, Control_c, 0, 64, 55
2, 128600, Control_c, 0, 64, 47
2, 128619, Control_c, 0, 64, 27
2, 128635, Note_on_c, 0, 63, 0
2, 128638, Control_c, 0, 64, 0
2, 128654, Note_on_c, 0, 65, 45
2, 128846, Note_on_c, 0, 66, 55
2, 128896, Note_on_c, 0, 65, 0
2, 129057, Note_on_c, 0, 68, 62
2, 129090, Note_on_c, 0, 66, 0
2, 129137, Control_c, 0, 64, 40
2, 129157, Control_c, 0, 64, 57
2, 129175, Control_c, 0, 64, 63
2, 129195, Control_c, 0, 64, 65
2, 129214, Control_c, 0, 64, 69
2, 129234, Control_c, 0, 64, 74
2, 129252, Control_c, 0, 64, 83
2, 129257, Note_on_c, 0, 70, 73
2, 129272, Control_c, 0, 64, 102
2, 129291, Control_c, 0, 64, 127
2, 129296, Note_on_c, 0, 68, 0
2, 129311, Control_c, 0, 67, 124
2, 129329, Control_c, 0, 67, 118
2, 129329, Note_on_c, 0, 70, 0
2, 129349, Control_c, 0, 67, 113
2, 129367, Note_on_c, 0, 51, 0
2, 129368, Control_c, 0, 67, 108
2, 129385, Note_on_c, 0, 54, 0
2, 129386, Control_c, 0, 67, 102
2, 129406, Control_c, 0, 67, 95
2, 129419, Note_on_c, 0, 58, 0
2, 129425, Control_c, 0, 67, 87
2, 129445, Control_c, 0, 67, 79
2, 129453, Note_on_c, 0, 72, 70
2, 129463, Control_c, 0, 67, 71
2, 129483, Control_c, 0, 67, 61
2, 129502, Control_c, 0, 67, 52
2, 129521, Control_c, 0, 67, 43
2, 129540, Control_c, 0, 67, 32
2, 129560, Control_c, 0, 67, 22
2, 129579, Control_c, 0, 67, 11
2, 129598, Control_c, 0, 67, 0
2, 129640, Note_on_c, 0, 51, 46
2, 129641, Note_on_c, 0, 74, 70
2, 129655, Note_on_c, 0, 72, 0
2, 129740, Note_on_c, 0, 54, 48
2, 129849, Note_on_c, 0, 58, 52
2, 129881, Note_on_c, 0, 75, 76
2, 129905, Control_c, 0, 64, 110
2, 129925, Control_c, 0, 64, 82
2, 129926, Note_on_c, 0, 74, 0
2, 129943, Control_c, 0, 64, 66
2, 129963, Control_c, 0, 64, 20
2, 129982, Control_c, 0, 64, 0
2, 130062, Note_on_c, 0, 75, 0
2, 130078, Control_c, 0, 64, 47
2, 130087, Note_on_c, 0, 77, 77
2, 130097, Control_c, 0, 64, 60
2, 130117, Control_c, 0, 64, 63
2, 130135, Control_c, 0, 64, 65
2, 130155, Control_c, 0, 64, 66
2, 130174, Control_c, 0, 64, 67
2, 130194, Control_c, 0, 64, 68
2, 130212, Control_c, 0, 64, 70
2, 130232, Control_c, 0, 64, 72
2, 130251, Control_c, 0, 64, 74
2, 130271, Control_c, 0, 64, 75
2, 130289, Control_c, 0, 64, 76
2, 130291, Note_on_c, 0, 78, 77
2, 130328, Control_c, 0, 64, 74
2, 130335, Note_on_c, 0, 77, 0
2, 130346, Control_c, 0, 64, 71
2, 130366, Control_c, 0, 64, 65
2, 130385, Control_c, 0, 64, 57
2, 130405, Control_c, 0, 64, 24
2, 130423, Control_c, 0, 64, 0
2, 130498, Note_on_c, 0, 80, 86
2, 130540, Note_on_c, 0, 78, 0
2, 130717, Note_on_c, 0, 78, 82
2, 130782, Note_on_c, 0, 80, 0
2, 130926, Note_on_c, 0, 77, 87
2, 130936, Note_on_c, 0, 78, 0
2, 131149, Note_on_c, 0, 78, 88
2, 131159, Note_on_c, 0, 58, 0
2, 131172, Control_c, 0, 64, 44
2, 131185, Note_on_c, 0, 77, 0
2, 131189, Note_on_c, 0, 54, 0
2, 131192, Control_c, 0, 64, 63
2, 131203, Note_on_c, 0, 51, 0
2, 131211, Control_c, 0, 64, 68
2, 131231, Control_c, 0, 64, 77
2, 131249, Control_c, 0, 64, 96
2, 131269, Control_c, 0, 64, 127
2, 131379, Note_on_c, 0, 75, 89
2, 131425, Note_on_c, 0, 78, 0
2, 131447, Note_on_c, 0, 75, 0
2, 131520, Note_on_c, 0, 44, 70
2, 131578, Note_on_c, 0, 47, 59
2, 131618, Note_on_c, 0, 52, 63
2, 131670, Note_on_c, 0, 64, 66
2, 131717, Note_on_c, 0, 68, 80
2, 131729, Note_on_c, 0, 56, 70
2, 131760, Note_on_c, 0, 71, 67
2, 131814, Note_on_c, 0, 76, 92
2, 131845, Control_c, 0, 64, 104
2, 131863, Control_c, 0, 64, 73
2, 131883, Control_c, 0, 64, 18
2, 131902, Control_c, 0, 64, 0
2, 132094, Control_c, 0, 64, 28
2, 132114, Control_c, 0, 64, 66
2, 132132, Control_c, 0, 64, 77
2, 132152, Control_c, 0, 64, 104
2, 132171, Control_c, 0, 64, 127
2, 132515, Note_on_c, 0, 64, 0
2, 132520, Note_on_c, 0, 76, 0
2, 132552, Note_on_c, 0, 71, 0
2, 132767, Note_on_c, 0, 68, 0
2, 133160, Note_on_c, 0, 71, 79
2, 133351, Note_on_c, 0, 69, 87
2, 133420, Note_on_c, 0, 71, 0
2, 133589, Note_on_c, 0, 56, 0
2, 133605, Note_on_c, 0, 68, 81
2, 133643, Note_on_c, 0, 44, 0
2, 133664, Note_on_c, 0, 52, 0
2, 133667, Control_c, 0, 64, 112
2, 133673, Note_on_c, 0, 47, 0
2, 133686, Control_c, 0, 64, 75
2, 133688, Note_on_c, 0, 69, 0
2, 133705, Control_c, 0, 64, 55
2, 133724, Control_c, 0, 64, 0
2, 134903, Note_on_c, 0, 69, 74
2, 134957, Note_on_c, 0, 68, 0
2, 135107, Note_on_c, 0, 71, 78
2, 135163, Note_on_c, 0, 69, 0
2, 135378, Note_on_c, 0, 64, 71
2, 135400, Note_on_c, 0, 71, 0
2, 136735, Note_on_c, 0, 66, 70
2, 136822, Note_on_c, 0, 64, 0
2, 136938, Note_on_c, 0, 68, 81
2, 137033, Note_on_c, 0, 66, 0
2, 137251, Note_on_c, 0, 62, 66
2, 137254, Note_on_c, 0, 53, 45
2, 137255, Note_on_c, 0, 58, 57
2, 137263, Note_on_c, 0, 44, 51
2, 137293, Note_on_c, 0, 68, 0
2, 137679, Control_c, 0, 64, 62
2, 137699, Control_c, 0, 64, 69
2, 137718, Control_c, 0, 64, 76
2, 137738, Control_c, 0, 64, 85
2, 137757, Control_c, 0, 64, 98
2, 137776, Control_c, 0, 64, 127
2, 138625, Note_on_c, 0, 65, 56
2, 138705, Note_on_c, 0, 62, 0
2, 138824, Note_on_c, 0, 68, 78
2, 138902, Note_on_c, 0, 65, 0
2, 138915, Note_on_c, 0, 44, 0
2, 138923, Note_on_c, 0, 58, 0
2, 139022, Note_on_c, 0, 53, 0
2, 139070, Note_on_c, 0, 71, 76
2, 139119, Control_c, 0, 64, 89
2, 139126, Note_on_c, 0, 68, 0
2, 139139, Control_c, 0, 64, 68
2, 139158, Control_c, 0, 64, 41
2, 139178, Control_c, 0, 64, 0
2, 140385, Note_on_c, 0, 70, 68
2, 140435, Note_on_c, 0, 71, 0
2, 140585, Note_on_c, 0, 68, 79
2, 140603, Note_on_c, 0, 70, 0
2, 140857, Note_on_c, 0, 77, 79
2, 140914, Note_on_c, 0, 68, 0
2, 142151, Note_on_c, 0, 75, 77
2, 142208, Note_on_c, 0, 77, 0
2, 142375, Note_on_c, 0, 74, 84
2, 142389, Note_on_c, 0, 75, 0
2, 142767, Note_on_c, 0, 83, 92
2, 142837, Note_on_c, 0, 74, 0
2, 143379, Note_on_c, 0, 81, 85
2, 143453, Note_on_c, 0, 83, 0
2, 144331, Note_on_c, 0, 82, 83
2, 144342, Control_c, 0, 64, 42
2, 144361, Control_c, 0, 64, 63
2, 144380, Note_on_c, 0, 81, 0
2, 144381, Control_c, 0, 64, 69
2, 144399, Control_c, 0, 64, 85
2, 144419, Control_c, 0, 64, 127
2, 144438, Note_on_c, 0, 82, 0
2, 144513, Note_on_c, 0, 46, 57
2, 144586, Note_on_c, 0, 51, 54
2, 144664, Note_on_c, 0, 54, 58
2, 144699, Note_on_c, 0, 66, 63
2, 144746, Note_on_c, 0, 58, 65
2, 144749, Note_on_c, 0, 70, 69
2, 144806, Note_on_c, 0, 75, 92
2, 144878, Control_c, 0, 64, 91
2, 144896, Control_c, 0, 64, 67
2, 144916, Control_c, 0, 64, 0
2, 145088, Control_c, 0, 64, 55
2, 145108, Control_c, 0, 64, 67
2, 145127, Control_c, 0, 64, 75
2, 145147, Control_c, 0, 64, 85
2, 145165, Control_c, 0, 64, 98
2, 145185, Control_c, 0, 64, 127
2, 145517, Note_on_c, 0, 58, 0
2, 145616, Note_on_c, 0, 46, 0
2, 145680, Note_on_c, 0, 51, 0
2, 145721, Note_on_c, 0, 54, 0
2, 146113, Note_on_c, 0, 70, 0
2, 146119, Note_on_c, 0, 66, 0
2, 146137, Note_on_c, 0, 75, 0
2, 146288, Note_on_c, 0, 46, 64
2, 146363, Note_on_c, 0, 53, 59
2, 146438, Note_on_c, 0, 65, 66
2, 146448, Note_on_c, 0, 56, 60
2, 146506, Note_on_c, 0, 70, 73
2, 146508, Note_on_c, 0, 58, 72
2, 146558, Note_on_c, 0, 74, 82
2, 146567, Control_c, 0, 64, 88
2, 146587, Control_c, 0, 64, 63
2, 146605, Control_c, 0, 64, 0
2, 146798, Control_c, 0, 64, 66
2, 146816, Control_c, 0, 64, 80
2, 146836, Control_c, 0, 64, 127
2, 147042, Note_on_c, 0, 46, 0
2, 147132, Note_on_c, 0, 58, 0
2, 147462, Note_on_c, 0, 70, 0
2, 147552, Note_on_c, 0, 56, 0
2, 147577, Note_on_c, 0, 53, 0
2, 148015, Note_on_c, 0, 75, 88
2, 148060, Note_on_c, 0, 74, 0
2, 148062, Note_on_c, 0, 65, 0
2, 148134, Note_on_c, 0, 75, 0
2, 148733, Note_on_c, 0, 75, 86
2, 148741, Note_on_c, 0, 59, 74
2, 148744, Note_on_c, 0, 63, 73
2, 148746, Note_on_c, 0, 70, 76
2, 148747, Note_on_c, 0, 47, 65
2, 148775, Control_c, 0, 64, 94
2, 148794, Control_c, 0, 64, 66
2, 148813, Control_c, 0, 64, 0
2, 149025, Control_c, 0, 64, 61
2, 149044, Control_c, 0, 64, 71
2, 149063, Control_c, 0, 64, 80
2, 149082, Control_c, 0, 64, 87
2, 149102, Control_c, 0, 64, 91
2, 149121, Control_c, 0, 64, 97
2, 149140, Control_c, 0, 64, 121
2, 149159, Control_c, 0, 64, 127
2, 149519, Note_on_c, 0, 70, 0
2, 149555, Note_on_c, 0, 47, 0
2, 149605, Note_on_c, 0, 63, 0
2, 149628, Note_on_c, 0, 59, 0
2, 149934, Note_on_c, 0, 68, 63
2, 150140, Note_on_c, 0, 67, 65
2, 150169, Note_on_c, 0, 68, 0
2, 150307, Note_on_c, 0, 68, 75
2, 150364, Note_on_c, 0, 67, 0
2, 150524, Note_on_c, 0, 63, 40
2, 150536, Note_on_c, 0, 59, 37
2, 150583, Note_on_c, 0, 70, 59
2, 150590, Note_on_c, 0, 68, 0
2, 150599, Control_c, 0, 64, 78
2, 150618, Control_c, 0, 64, 61
2, 150638, Control_c, 0, 64, 0
2, 150693, Note_on_c, 0, 70, 0
2, 150695, Control_c, 0, 64, 29
2, 150705, Note_on_c, 0, 68, 62
2, 150714, Control_c, 0, 64, 58
2, 150733, Control_c, 0, 64, 66
2, 150753, Control_c, 0, 64, 71
2, 150772, Control_c, 0, 64, 76
2, 150791, Control_c, 0, 64, 78
2, 150794, Note_on_c, 0, 68, 0
2, 150810, Control_c, 0, 64, 76
2, 150817, Note_on_c, 0, 70, 66
2, 150830, Control_c, 0, 64, 72
2, 150848, Control_c, 0, 64, 66
2, 150868, Control_c, 0, 64, 58
2, 150887, Control_c, 0, 64, 36
2, 150889, Note_on_c, 0, 70, 0
2, 150900, Note_on_c, 0, 68, 63
2, 150907, Control_c, 0, 64, 0
2, 150986, Note_on_c, 0, 68, 0
2, 151006, Note_on_c, 0, 70, 65
2, 151064, Note_on_c, 0, 70, 0
2, 151078, Note_on_c, 0, 68, 59
2, 151159, Note_on_c, 0, 68, 0
2, 151182, Note_on_c, 0, 70, 67
2, 151251, Note_on_c, 0, 70, 0
2, 151259, Note_on_c, 0, 68, 67
2, 151349, Note_on_c, 0, 68, 0
2, 151371, Note_on_c, 0, 70, 69
2, 151450, Note_on_c, 0, 70, 0
2, 151451, Note_on_c, 0, 68, 64
2, 151547, Note_on_c, 0, 68, 0
2, 151563, Note_on_c, 0, 70, 66
2, 151643, Note_on_c, 0, 70, 0
2, 151647, Note_on_c, 0, 68, 69
2, 151737, Note_on_c, 0, 68, 0
2, 151761, Note_on_c, 0, 70, 69
2, 151828, Note_on_c, 0, 70, 0
2, 151829, Control_c, 0, 64, 48
2, 151838, Note_on_c, 0, 68, 63
2, 151848, Control_c, 0, 64, 62
2, 151868, Control_c, 0, 64, 66
2, 151886, Control_c, 0, 64, 69
2, 151906, Control_c, 0, 64, 73
2, 151922, Note_on_c, 0, 63, 0
2, 151925, Control_c, 0, 64, 76
2, 151925, Note_on_c, 0, 68, 0
2, 151944, Control_c, 0, 64, 79
2, 151944, Note_on_c, 0, 59, 0
2, 151945, Note_on_c, 0, 70, 67
2, 151963, Control_c, 0, 64, 82
2, 151983, Control_c, 0, 64, 85
2, 152002, Control_c, 0, 64, 88
2, 152021, Control_c, 0, 64, 91
2, 152024, Note_on_c, 0, 70, 0
2, 152030, Note_on_c, 0, 68, 67
2, 152040, Control_c, 0, 64, 94
2, 152059, Control_c, 0, 64, 95
2, 152081, Control_c, 0, 64, 96
2, 152100, Control_c, 0, 64, 94
2, 152120, Control_c, 0, 64, 82
2, 152132, Note_on_c, 0, 68, 0
2, 152136, Note_on_c, 0, 63, 42
2, 152139, Control_c, 0, 64, 69
2, 152139, Note_on_c, 0, 59, 36
2, 152156, Note_on_c, 0, 70, 63
2, 152157, Control_c, 0, 64, 56
2, 152176, Control_c, 0, 64, 0
2, 152230, Note_on_c, 0, 70, 0
2, 152248, Note_on_c, 0, 68, 63
2, 152335, Note_on_c, 0, 68, 0
2, 152366, Note_on_c, 0, 70, 62
2, 152426, Note_on_c, 0, 70, 0
2, 152451, Note_on_c, 0, 68, 62
2, 152529, Note_on_c, 0, 68, 0
2, 152562, Note_on_c, 0, 70, 63
2, 152618, Note_on_c, 0, 70, 0
2, 152643, Note_on_c, 0, 68, 60
2, 152723, Note_on_c, 0, 68, 0
2, 152756, Note_on_c, 0, 70, 63
2, 152811, Note_on_c, 0, 70, 0
2, 152838, Note_on_c, 0, 68, 60
2, 152915, Note_on_c, 0, 68, 0
2, 152949, Note_on_c, 0, 70, 61
2, 153001, Note_on_c, 0, 70, 0
2, 153027, Note_on_c, 0, 68, 58
2, 153102, Note_on_c, 0, 68, 0
2, 153132, Note_on_c, 0, 70, 61
2, 153225, Note_on_c, 0, 70, 0
2, 153230, Note_on_c, 0, 68, 57
2, 153367, Note_on_c, 0, 67, 46
2, 153371, Note_on_c, 0, 68, 0
2, 153483, Control_c, 0, 64, 41
2, 153502, Control_c, 0, 64, 54
2, 153521, Control_c, 0, 64, 60
2, 153521, Control_c, 0, 67, 8
2, 153540, Control_c, 0, 64, 63
2, 153540, Control_c, 0, 67, 15
2, 153560, Control_c, 0, 64, 65
2, 153560, Control_c, 0, 67, 24
2, 153579, Control_c, 0, 64, 67
2, 153579, Control_c, 0, 67, 30
2, 153597, Note_on_c, 0, 59, 0
2, 153598, Control_c, 0, 64, 70
2, 153598, Control_c, 0, 67, 38
2, 153609, Note_on_c, 0, 63, 0
2, 153614, Note_on_c, 0, 68, 44
2, 153617, Control_c, 0, 64, 73
2, 153617, Control_c, 0, 67, 46
2, 153637, Control_c, 0, 64, 76
2, 153637, Control_c, 0, 67, 56
2, 153656, Control_c, 0, 64, 79
2, 153656, Control_c, 0, 67, 72
2, 153675, Control_c, 0, 64, 82
2, 153675, Control_c, 0, 67, 92
2, 153694, Control_c, 0, 64, 85
2, 153694, Control_c, 0, 67, 114
2, 153695, Note_on_c, 0, 67, 0
2, 153714, Control_c, 0, 64, 89
2, 153714, Control_c, 0, 67, 127
2, 153732, Control_c, 0, 64, 92
2, 153752, Control_c, 0, 64, 95
2, 153771, Control_c, 0, 64, 96
2, 153882, Note_on_c, 0, 55, 26
2, 153967, Note_on_c, 0, 58, 27
2, 154001, Control_c, 0, 64, 96
2, 154020, Control_c, 0, 64, 94
2, 154029, Note_on_c, 0, 63, 37
2, 154040, Control_c, 0, 64, 92
2, 154059, Control_c, 0, 64, 91
2, 154073, Note_on_c, 0, 70, 43
2, 154078, Control_c, 0, 64, 89
2, 154097, Control_c, 0, 64, 87
2, 154117, Control_c, 0, 64, 84
2, 154136, Control_c, 0, 64, 76
2, 154155, Control_c, 0, 64, 66
2, 154156, Note_on_c, 0, 68, 0
2, 154174, Control_c, 0, 64, 29
2, 154194, Control_c, 0, 64, 0
2, 154463, Control_c, 0, 64, 41
2, 154482, Control_c, 0, 64, 55
2, 154501, Control_c, 0, 64, 61
2, 154521, Control_c, 0, 64, 64
2, 154540, Control_c, 0, 64, 66
2, 154559, Control_c, 0, 64, 70
2, 154578, Control_c, 0, 64, 78
2, 154598, Control_c, 0, 64, 86
2, 154616, Control_c, 0, 64, 95
2, 154636, Control_c, 0, 64, 105
2, 154655, Control_c, 0, 64, 119
2, 154675, Control_c, 0, 64, 127
2, 154892, Note_on_c, 0, 55, 0
2, 155024, Note_on_c, 0, 63, 0
2, 155055, Note_on_c, 0, 58, 0
2, 155694, Note_on_c, 0, 55, 19
2, 155756, Note_on_c, 0, 58, 29
2, 155767, Control_c, 0, 64, 112
2, 155786, Control_c, 0, 64, 95
2, 155805, Control_c, 0, 64, 79
2, 155806, Note_on_c, 0, 63, 32
2, 155824, Control_c, 0, 64, 64
2, 155844, Control_c, 0, 64, 27
2, 155862, Control_c, 0, 64, 0
2, 156036, Control_c, 0, 64, 36
2, 156055, Control_c, 0, 64, 55
2, 156074, Control_c, 0, 64, 62
2, 156093, Control_c, 0, 64, 65
2, 156113, Control_c, 0, 64, 67
2, 156131, Control_c, 0, 64, 71
2, 156150, Control_c, 0, 64, 78
2, 156170, Control_c, 0, 64, 87
2, 156189, Control_c, 0, 64, 100
2, 156208, Control_c, 0, 64, 127
2, 156212, Note_on_c, 0, 75, 0
2, 156439, Note_on_c, 0, 55, 0
2, 156497, Note_on_c, 0, 63, 0
2, 156566, Note_on_c, 0, 70, 0
2, 156603, Note_on_c, 0, 58, 0
2, 156954, Note_on_c, 0, 75, 50
2, 157150, Note_on_c, 0, 73, 60
2, 157252, Note_on_c, 0, 75, 0
2, 157325, Note_on_c, 0, 71, 60
2, 157355, Note_on_c, 0, 73, 0
2, 157373, Note_on_c, 0, 55, 32
2, 157433, Note_on_c, 0, 58, 31
2, 157514, Control_c, 0, 64, 104
2, 157533, Control_c, 0, 64, 84
2, 157553, Control_c, 0, 64, 69
2, 157569, Note_on_c, 0, 63, 26
2, 157571, Control_c, 0, 64, 54
2, 157590, Control_c, 0, 64, 0
2, 157593, Note_on_c, 0, 73, 46
2, 157623, Note_on_c, 0, 71, 0
2, 157879, Control_c, 0, 64, 50
2, 157898, Control_c, 0, 64, 60
2, 157916, Control_c, 0, 64, 64
2, 157935, Control_c, 0, 64, 66
2, 157955, Control_c, 0, 64, 69
2, 157974, Control_c, 0, 64, 74
2, 157993, Control_c, 0, 64, 83
2, 158012, Control_c, 0, 64, 96
2, 158031, Control_c, 0, 64, 127
2, 158114, Note_on_c, 0, 63, 0
2, 158186, Note_on_c, 0, 55, 0
2, 158271, Note_on_c, 0, 58, 0
2, 158892, Note_on_c, 0, 70, 60
2, 159076, Note_on_c, 0, 73, 0
2, 159365, Note_on_c, 0, 71, 50
2, 159380, Note_on_c, 0, 68, 41
2, 159386, Note_on_c, 0, 59, 35
2, 159389, Note_on_c, 0, 56, 26
2, 159390, Note_on_c, 0, 63, 38
2, 159404, Note_on_c, 0, 70, 0
2, 159415, Control_c, 0, 64, 101
2, 159434, Control_c, 0, 64, 80
2, 159453, Control_c, 0, 64, 65
2, 159473, Control_c, 0, 64, 31
2, 159491, Control_c, 0, 64, 0
2, 159645, Control_c, 0, 64, 36
2, 159664, Control_c, 0, 64, 55
2, 159684, Control_c, 0, 64, 62
2, 159702, Control_c, 0, 64, 65
2, 159722, Control_c, 0, 64, 68
2, 159741, Control_c, 0, 64, 74
2, 159761, Control_c, 0, 64, 82
2, 159779, Control_c, 0, 64, 94
2, 159799, Control_c, 0, 64, 109
2, 159818, Control_c, 0, 64, 127
2, 160097, Note_on_c, 0, 59, 0
2, 160352, Note_on_c, 0, 56, 0
2, 161103, Note_on_c, 0, 52, 40
2, 161180, Control_c, 0, 64, 91
2, 161200, Control_c, 0, 64, 73
2, 161218, Control_c, 0, 64, 58
2, 161238, Control_c, 0, 64, 0
2, 161352, Control_c, 0, 64, 32
2, 161372, Control_c, 0, 64, 59
2, 161391, Control_c, 0, 64, 66
2, 161411, Control_c, 0, 64, 71
2, 161429, Control_c, 0, 64, 80
2, 161449, Control_c, 0, 64, 97
2, 161468, Control_c, 0, 64, 127
2, 161538, Note_on_c, 0, 71, 0
2, 161620, Note_on_c, 0, 63, 0
2, 161762, Note_on_c, 0, 52, 0
2, 161898, Note_on_c, 0, 68, 0
2, 162220, Note_on_c, 0, 71, 49
2, 162246, Note_on_c, 0, 63, 35
2, 162440, Note_on_c, 0, 70, 68
2, 162463, Note_on_c, 0, 61, 46
2, 162480, Note_on_c, 0, 71, 0
2, 162528, Note_on_c, 0, 63, 0
2, 162628, Note_on_c, 0, 59, 54
2, 162631, Note_on_c, 0, 68, 69
2, 162648, Note_on_c, 0, 61, 0
2, 162661, Note_on_c, 0, 59, 0
2, 162663, Note_on_c, 0, 70, 0
2, 162869, Control_c, 0, 64, 93
2, 162889, Control_c, 0, 64, 72
2, 162905, Note_on_c, 0, 70, 55
2, 162908, Control_c, 0, 64, 57
2, 162918, Note_on_c, 0, 52, 35
2, 162927, Control_c, 0, 64, 0
2, 162928, Note_on_c, 0, 61, 30
2, 162940, Note_on_c, 0, 68, 0
2, 163158, Control_c, 0, 64, 17
2, 163177, Control_c, 0, 64, 57
2, 163196, Control_c, 0, 64, 64
2, 163215, Control_c, 0, 64, 67
2, 163235, Control_c, 0, 64, 70
2, 163254, Control_c, 0, 64, 78
2, 163272, Control_c, 0, 64, 91
2, 163292, Control_c, 0, 64, 127
2, 163352, Note_on_c, 0, 61, 0
2, 163525, Note_on_c, 0, 70, 0
2, 164150, Note_on_c, 0, 67, 49
2, 164173, Note_on_c, 0, 58, 38
2, 164256, Note_on_c, 0, 67, 0
2, 164281, Note_on_c, 0, 58, 0
2, 164460, Note_on_c, 0, 59, 45
2, 164546, Note_on_c, 0, 62, 42
2, 164598, Control_c, 0, 64, 92
2, 164602, Note_on_c, 0, 68, 56
2, 164610, Note_on_c, 0, 53, 38
2, 164617, Control_c, 0, 64, 73
2, 164636, Control_c, 0, 64, 54
2, 164636, Note_on_c, 0, 52, 0
2, 164655, Control_c, 0, 64, 0
2, 164924, Control_c, 0, 64, 40
2, 164943, Control_c, 0, 64, 57
2, 164963, Control_c, 0, 64, 63
2, 164981, Control_c, 0, 64, 65
2, 165001, Control_c, 0, 64, 69
2, 165020, Control_c, 0, 64, 74
2, 165040, Control_c, 0, 64, 86
2, 165058, Control_c, 0, 64, 103
2, 165078, Control_c, 0, 64, 127
2, 165382, Note_on_c, 0, 59, 0
2, 165437, Note_on_c, 0, 62, 0
2, 165450, Note_on_c, 0, 68, 0
2, 166157, Note_on_c, 0, 59, 37
2, 166204, Note_on_c, 0, 62, 33
2, 166268, Control_c, 0, 64, 112
2, 166286, Note_on_c, 0, 68, 49
2, 166287, Control_c, 0, 64, 87
2, 166306, Control_c, 0, 64, 71
2, 166326, Control_c, 0, 64, 58
2, 166345, Control_c, 0, 64, 0
2, 166575, Control_c, 0, 64, 39
2, 166595, Control_c, 0, 64, 57
2, 166614, Control_c, 0, 64, 63
2, 166632, Control_c, 0, 64, 66
2, 166652, Control_c, 0, 64, 69
2, 166671, Control_c, 0, 64, 74
2, 166691, Control_c, 0, 64, 82
2, 166709, Control_c, 0, 64, 90
2, 166729, Control_c, 0, 64, 100
2, 166748, Control_c, 0, 64, 119
2, 166767, Control_c, 0, 64, 127
2, 167289, Note_on_c, 0, 53, 0
2, 167342, Note_on_c, 0, 54, 36
2, 167562, Note_on_c, 0, 53, 52
2, 167598, Note_on_c, 0, 68, 0
2, 167621, Note_on_c, 0, 54, 0
2, 167633, Note_on_c, 0, 59, 0
2, 167645, Note_on_c, 0, 62, 0
2, 167741, Note_on_c, 0, 51, 51
2, 167753, Note_on_c, 0, 53, 0
2, 167918, Note_on_c, 0, 59, 42
2, 167966, Note_on_c, 0, 62, 38
2, 168014, Note_on_c, 0, 51, 0
2, 168015, Control_c, 0, 64, 94
2, 168019, Note_on_c, 0, 53, 49
2, 168026, Note_on_c, 0, 68, 52
2, 168035, Control_c, 0, 64, 75
2, 168054, Control_c, 0, 64, 62
2, 168072, Control_c, 0, 64, 0
2, 168657, Note_on_c, 0, 54, 58
2, 168685, Note_on_c, 0, 53, 0
2, 168783, Control_c, 0, 67, 121
2, 168803, Control_c, 0, 67, 115
2, 168821, Control_c, 0, 67, 108
2, 168842, Control_c, 0, 67, 101
2, 168861, Control_c, 0, 67, 94
2, 168871, Note_on_c, 0, 56, 55
2, 168881, Control_c, 0, 67, 85
2, 168884, Note_on_c, 0, 54, 0
2, 168899, Control_c, 0, 67, 77
2, 168919, Control_c, 0, 67, 67
2, 168938, Control_c, 0, 67, 59
2, 168957, Control_c, 0, 67, 51
2, 168976, Control_c, 0, 67, 44
2, 168996, Control_c, 0, 67, 37
2, 169015, Control_c, 0, 67, 30
2, 169033, Control_c, 0, 67, 23
2, 169052, Note_on_c, 0, 53, 58
2, 169053, Control_c, 0, 67, 15
2, 169072, Control_c, 0, 67, 8
2, 169091, Control_c, 0, 67, 0
2, 169102, Note_on_c, 0, 56, 0
2, 169267, Note_on_c, 0, 54, 62
2, 169284, Note_on_c, 0, 53, 0
2, 169364, Note_on_c, 0, 59, 0
2, 169423, Note_on_c, 0, 54, 0
2, 169457, Note_on_c, 0, 56, 59
2, 169466, Note_on_c, 0, 68, 0
2, 169528, Note_on_c, 0, 62, 0
2, 169699, Note_on_c, 0, 59, 35
2, 169766, Note_on_c, 0, 65, 30
2, 169781, Note_on_c, 0, 50, 43
2, 169810, Note_on_c, 0, 56, 0
2, 169811, Note_on_c, 0, 68, 45
2, 170129, Control_c, 0, 64, 51
2, 170148, Control_c, 0, 64, 61
2, 170168, Control_c, 0, 64, 65
2, 170186, Control_c, 0, 64, 68
2, 170206, Control_c, 0, 64, 73
2, 170225, Control_c, 0, 64, 82
2, 170245, Control_c, 0, 64, 98
2, 170263, Control_c, 0, 64, 127
2, 170497, Note_on_c, 0, 59, 0
2, 170538, Note_on_c, 0, 65, 0
2, 170559, Note_on_c, 0, 68, 0
2, 171243, Note_on_c, 0, 59, 34
2, 171307, Note_on_c, 0, 65, 37
2, 171374, Control_c, 0, 64, 91
2, 171377, Note_on_c, 0, 68, 45
2, 171393, Control_c, 0, 64, 73
2, 171413, Control_c, 0, 64, 60
2, 171431, Control_c, 0, 64, 0
2, 171701, Control_c, 0, 64, 19
2, 171720, Control_c, 0, 64, 47
2, 171739, Control_c, 0, 64, 57
2, 171759, Control_c, 0, 64, 62
2, 171777, Control_c, 0, 64, 64
2, 171797, Control_c, 0, 64, 66
2, 171816, Control_c, 0, 64, 69
2, 171836, Control_c, 0, 64, 73
2, 171854, Control_c, 0, 64, 79
2, 171873, Control_c, 0, 64, 87
2, 171893, Control_c, 0, 64, 96
2, 171911, Control_c, 0, 64, 111
2, 171931, Control_c, 0, 64, 127
2, 172383, Note_on_c, 0, 50, 0
2, 172391, Note_on_c, 0, 51, 43
2, 172596, Note_on_c, 0, 50, 56
2, 172623, Note_on_c, 0, 51, 0
2, 172629, Note_on_c, 0, 68, 0
2, 172692, Note_on_c, 0, 65, 0
2, 172698, Note_on_c, 0, 59, 0
2, 172793, Note_on_c, 0, 48, 57
2, 172796, Note_on_c, 0, 50, 0
2, 172996, Note_on_c, 0, 59, 38
2, 173031, Note_on_c, 0, 65, 32
2, 173064, Note_on_c, 0, 50, 54
2, 173068, Note_on_c, 0, 68, 56
2, 173071, Note_on_c, 0, 48, 0
2, 173105, Control_c, 0, 64, 91
2, 173124, Control_c, 0, 64, 72
2, 173144, Control_c, 0, 64, 58
2, 173162, Control_c, 0, 64, 0
2, 173689, Note_on_c, 0, 51, 52
2, 173737, Note_on_c, 0, 50, 0
2, 173905, Note_on_c, 0, 53, 58
2, 173915, Note_on_c, 0, 51, 0
2, 174099, Note_on_c, 0, 50, 63
2, 174157, Note_on_c, 0, 53, 0
2, 174309, Note_on_c, 0, 51, 65
2, 174347, Note_on_c, 0, 50, 0
2, 174359, Note_on_c, 0, 59, 0
2, 174445, Note_on_c, 0, 65, 0
2, 174506, Note_on_c, 0, 53, 66
2, 174513, Note_on_c, 0, 51, 0
2, 174538, Note_on_c, 0, 68, 0
2, 174694, Note_on_c, 0, 62, 45
2, 174752, Note_on_c, 0, 65, 41
2, 174810, Note_on_c, 0, 68, 63
2, 174813, Note_on_c, 0, 47, 60
2, 174883, Note_on_c, 0, 53, 0
2, 175142, Control_c, 0, 64, 60
2, 175161, Control_c, 0, 64, 66
2, 175181, Control_c, 0, 64, 70
2, 175199, Control_c, 0, 64, 76
2, 175219, Control_c, 0, 64, 84
2, 175238, Control_c, 0, 64, 94
2, 175258, Control_c, 0, 64, 127
2, 175583, Note_on_c, 0, 62, 0
2, 175631, Note_on_c, 0, 68, 0
2, 175634, Note_on_c, 0, 65, 0
2, 176369, Note_on_c, 0, 62, 36
2, 176431, Note_on_c, 0, 65, 35
2, 176486, Note_on_c, 0, 68, 50
2, 176521, Control_c, 0, 64, 96
2, 176540, Control_c, 0, 64, 74
2, 176560, Control_c, 0, 64, 60
2, 176578, Control_c, 0, 64, 0
2, 177509, Note_on_c, 0, 47, 0
2, 177517, Note_on_c, 0, 49, 56
2, 177731, Note_on_c, 0, 47, 59
2, 177767, Note_on_c, 0, 49, 0
2, 177909, Note_on_c, 0, 46, 68
2, 177925, Note_on_c, 0, 47, 0
2, 177957, Note_on_c, 0, 62, 0
2, 177968, Note_on_c, 0, 65, 0
2, 177983, Note_on_c, 0, 68, 0
2, 178122, Note_on_c, 0, 62, 45
2, 178128, Note_on_c, 0, 46, 0
2, 178139, Note_on_c, 0, 65, 48
2, 178151, Note_on_c, 0, 47, 69
2, 178159, Note_on_c, 0, 68, 61
2, 178373, Note_on_c, 0, 46, 69
2, 178400, Note_on_c, 0, 47, 0
2, 178565, Note_on_c, 0, 44, 74
2, 178587, Note_on_c, 0, 46, 0
2, 178770, Note_on_c, 0, 46, 77
2, 178795, Note_on_c, 0, 44, 0
2, 178981, Note_on_c, 0, 47, 79
2, 179008, Note_on_c, 0, 46, 0
2, 179185, Note_on_c, 0, 44, 81
2, 179232, Note_on_c, 0, 47, 0
2, 179259, Note_on_c, 0, 68, 0
2, 179269, Note_on_c, 0, 62, 0
2, 179290, Note_on_c, 0, 65, 0
2, 179406, Note_on_c, 0, 46, 83
2, 179443, Note_on_c, 0, 44, 0
2, 179598, Note_on_c, 0, 47, 83
2, 179620, Note_on_c, 0, 46, 0
2, 179724, Note_on_c, 0, 62, 69
2, 179795, Note_on_c, 0, 65, 72
2, 179870, Note_on_c, 0, 68, 80
2, 180021, Note_on_c, 0, 38, 86
2, 180023, Note_on_c, 0, 71, 86
2, 180033, Note_on_c, 0, 47, 0
2, 180168, Control_c, 0, 64, 36
2, 180187, Control_c, 0, 64, 67
2, 180206, Control_c, 0, 64, 79
2, 180225, Control_c, 0, 64, 108
2, 180245, Control_c, 0, 64, 127
2, 181228, Note_on_c, 0, 38, 0
2, 181268, Note_on_c, 0, 65, 0
2, 181304, Note_on_c, 0, 68, 0
2, 181500, Note_on_c, 0, 62, 0
2, 182165, Control_c, 0, 64, 104
2, 182184, Control_c, 0, 64, 79
2, 182203, Control_c, 0, 64, 64
2, 182222, Control_c, 0, 64, 0
2, 182616, Note_on_c, 0, 70, 42
2, 182716, Note_on_c, 0, 71, 0
2, 182848, Note_on_c, 0, 68, 49
2, 182986, Note_on_c, 0, 70, 0
2, 183059, Note_on_c, 0, 66, 53
2, 183098, Note_on_c, 0, 68, 0
2, 183248, Note_on_c, 0, 66, 0
2, 183278, Note_on_c, 0, 65, 52
2, 183480, Note_on_c, 0, 63, 60
2, 183499, Note_on_c, 0, 65, 0
2, 183650, Note_on_c, 0, 63, 0
2, 183686, Note_on_c, 0, 62, 56
2, 183895, Note_on_c, 0, 65, 66
2, 183908, Note_on_c, 0, 62, 0
2, 184110, Note_on_c, 0, 68, 75
2, 184140, Note_on_c, 0, 65, 0
2, 184263, Note_on_c, 0, 68, 0
2, 184300, Note_on_c, 0, 71, 75
2, 184524, Note_on_c, 0, 74, 76
2, 184560, Note_on_c, 0, 71, 0
2, 184741, Note_on_c, 0, 77, 82
2, 184790, Note_on_c, 0, 74, 0
2, 184983, Note_on_c, 0, 80, 85
2, 185051, Note_on_c, 0, 77, 0
2, 185232, Note_on_c, 0, 83, 87
2, 185273, Note_on_c, 0, 80, 0
2, 185516, Note_on_c, 0, 82, 86
2, 185582, Note_on_c, 0, 83, 0
2, 185822, Note_on_c, 0, 74, 78
2, 185884, Note_on_c, 0, 82, 0
2, 186289, Note_on_c, 0, 75, 84
2, 186364, Note_on_c, 0, 74, 0
2, 187663, Note_on_c, 0, 51, 67
2, 187664, Note_on_c, 0, 70, 79
2, 187670, Note_on_c, 0, 66, 68
2, 187674, Note_on_c, 0, 39, 61
2, 187675, Control_c, 0, 64, 49
2, 187694, Control_c, 0, 64, 69
2, 187713, Control_c, 0, 64, 83
2, 187733, Control_c, 0, 64, 127
2, 187770, Note_on_c, 0, 39, 0
2, 187796, Note_on_c, 0, 51, 0
2, 187819, Note_on_c, 0, 70, 0
2, 187849, Note_on_c, 0, 66, 0
2, 188248, Note_on_c, 0, 54, 63
2, 188248, Note_on_c, 0, 68, 85
2, 188255, Note_on_c, 0, 46, 59
2, 188255, Note_on_c, 0, 63, 74
2, 188265, Note_on_c, 0, 51, 55
2, 188308, Control_c, 0, 64, 83
2, 188328, Control_c, 0, 64, 64
2, 188347, Control_c, 0, 64, 0
2, 188706, Note_on_c, 0, 66, 75
2, 188775, Note_on_c, 0, 68, 0
2, 189057, Control_c, 0, 64, 57
2, 189076, Control_c, 0, 64, 71
2, 189096, Control_c, 0, 64, 86
2, 189115, Control_c, 0, 64, 127
2, 189341, Note_on_c, 0, 54, 0
2, 189379, Note_on_c, 0, 46, 0
2, 189441, Note_on_c, 0, 75, 0
2, 189464, Note_on_c, 0, 51, 0
2, 189498, Note_on_c, 0, 66, 0
2, 189508, Note_on_c, 0, 63, 0
2, 189851, Note_on_c, 0, 65, 55
2, 189867, Note_on_c, 0, 62, 47
2, 189888, Note_on_c, 0, 65, 0
2, 189910, Note_on_c, 0, 66, 64
2, 189944, Note_on_c, 0, 56, 62
2, 189947, Note_on_c, 0, 53, 56
2, 189954, Note_on_c, 0, 46, 53
2, 189970, Note_on_c, 0, 65, 76
2, 190000, Control_c, 0, 64, 74
2, 190018, Control_c, 0, 64, 40
2, 190023, Note_on_c, 0, 66, 0
2, 190037, Control_c, 0, 64, 0
2, 190114, Control_c, 0, 64, 38
2, 190134, Control_c, 0, 64, 63
2, 190152, Control_c, 0, 64, 69
2, 190172, Control_c, 0, 64, 81
2, 190191, Control_c, 0, 64, 110
2, 190211, Control_c, 0, 64, 127
2, 190264, Note_on_c, 0, 65, 0
2, 190540, Note_on_c, 0, 63, 74
2, 190594, Control_c, 0, 64, 97
2, 190614, Control_c, 0, 64, 68
2, 190632, Control_c, 0, 64, 0
2, 190729, Control_c, 0, 64, 50
2, 190748, Control_c, 0, 64, 64
2, 190767, Control_c, 0, 64, 72
2, 190786, Control_c, 0, 64, 85
2, 190806, Control_c, 0, 64, 112
2, 190825, Control_c, 0, 64, 127
2, 191127, Note_on_c, 0, 65, 64
2, 191170, Control_c, 0, 64, 112
2, 191181, Note_on_c, 0, 63, 0
2, 191188, Control_c, 0, 64, 68
2, 191208, Control_c, 0, 64, 0
2, 191304, Control_c, 0, 64, 52
2, 191323, Control_c, 0, 64, 67
2, 191342, Control_c, 0, 64, 79
2, 191362, Control_c, 0, 64, 123
2, 191381, Control_c, 0, 64, 127
2, 191381, Note_on_c, 0, 62, 0
2, 191506, Note_on_c, 0, 46, 0
2, 191532, Note_on_c, 0, 53, 0
2, 191553, Note_on_c, 0, 56, 0
2, 191899, Control_c, 0, 67, 12
2, 191918, Control_c, 0, 67, 19
2, 191937, Control_c, 0, 67, 28
2, 191956, Control_c, 0, 67, 42
2, 191976, Control_c, 0, 67, 58
2, 191995, Control_c, 0, 67, 75
2, 192014, Control_c, 0, 67, 93
2, 192025, Note_on_c, 0, 51, 37
2, 192033, Control_c, 0, 67, 110
2, 192053, Control_c, 0, 67, 127
2, 192071, Control_c, 0, 67, 127
2, 192162, Note_on_c, 0, 55, 27
2, 192207, Note_on_c, 0, 58, 29
2, 192382, Note_on_c, 0, 63, 45
2, 192388, Note_on_c, 0, 61, 36
2, 192417, Control_c, 0, 64, 107
2, 192436, Control_c, 0, 64, 77
2, 192438, Note_on_c, 0, 65, 0
2, 192456, Control_c, 0, 64, 57
2, 192474, Control_c, 0, 64, 0
2, 192686, Control_c, 0, 64, 55
2, 192704, Control_c, 0, 64, 59
2, 192724, Control_c, 0, 64, 60
2, 192743, Control_c, 0, 64, 63
2, 192762, Control_c, 0, 64, 65
2, 192781, Control_c, 0, 64, 68
2, 192801, Control_c, 0, 64, 74
2, 192820, Control_c, 0, 64, 88
2, 192838, Control_c, 0, 64, 108
2, 192858, Control_c, 0, 64, 127
2, 192988, Note_on_c, 0, 61, 0
2, 193010, Note_on_c, 0, 51, 0
2, 193121, Note_on_c, 0, 58, 0
2, 193129, Note_on_c, 0, 55, 0
2, 193882, Note_on_c, 0, 51, 24
2, 193982, Note_on_c, 0, 55, 22
2, 193991, Control_c, 0, 64, 112
2, 194009, Note_on_c, 0, 58, 35
2, 194010, Control_c, 0, 64, 89
2, 194029, Control_c, 0, 64, 73
2, 194049, Control_c, 0, 64, 60
2, 194067, Control_c, 0, 64, 0
2, 194089, Note_on_c, 0, 61, 33
2, 194260, Control_c, 0, 64, 41
2, 194278, Control_c, 0, 64, 61
2, 194298, Control_c, 0, 64, 65
2, 194317, Control_c, 0, 64, 68
2, 194336, Control_c, 0, 64, 73
2, 194355, Control_c, 0, 64, 80
2, 194375, Control_c, 0, 64, 91
2, 194394, Control_c, 0, 64, 121
2, 194413, Control_c, 0, 64, 127
2, 194543, Note_on_c, 0, 61, 0
2, 194567, Note_on_c, 0, 63, 0
2, 194677, Note_on_c, 0, 51, 0
2, 194798, Note_on_c, 0, 58, 0
2, 194855, Note_on_c, 0, 55, 0
2, 195133, Note_on_c, 0, 65, 42
2, 195329, Note_on_c, 0, 67, 55
2, 195377, Note_on_c, 0, 65, 0
2, 195465, Note_on_c, 0, 51, 39
2, 195501, Note_on_c, 0, 68, 68
2, 195546, Note_on_c, 0, 67, 0
2, 195557, Note_on_c, 0, 55, 29
2, 195582, Note_on_c, 0, 58, 34
2, 195718, Control_c, 0, 64, 106
2, 195738, Control_c, 0, 64, 83
2, 195757, Control_c, 0, 64, 67
2, 195770, Note_on_c, 0, 61, 32
2, 195776, Control_c, 0, 64, 47
2, 195780, Note_on_c, 0, 70, 57
2, 195795, Control_c, 0, 64, 0
2, 195838, Note_on_c, 0, 68, 0
2, 196046, Control_c, 0, 64, 36
2, 196064, Control_c, 0, 64, 62
2, 196084, Control_c, 0, 64, 67
2, 196103, Control_c, 0, 64, 71
2, 196122, Control_c, 0, 64, 77
2, 196141, Control_c, 0, 64, 86
2, 196161, Control_c, 0, 64, 99
2, 196180, Control_c, 0, 64, 127
2, 196271, Note_on_c, 0, 61, 0
2, 196426, Note_on_c, 0, 51, 0
2, 196432, Note_on_c, 0, 70, 0
2, 196484, Note_on_c, 0, 58, 0
2, 196521, Note_on_c, 0, 55, 0
2, 196812, Note_on_c, 0, 64, 43
2, 197045, Note_on_c, 0, 63, 51
2, 197079, Note_on_c, 0, 64, 0
2, 197227, Note_on_c, 0, 61, 54
2, 197274, Note_on_c, 0, 63, 0
2, 197303, Note_on_c, 0, 61, 0
2, 197428, Control_c, 0, 64, 100
2, 197448, Control_c, 0, 64, 79
2, 197467, Control_c, 0, 64, 65
2, 197474, Note_on_c, 0, 61, 42
2, 197487, Control_c, 0, 64, 38
2, 197490, Note_on_c, 0, 51, 29
2, 197501, Note_on_c, 0, 56, 27
2, 197505, Control_c, 0, 64, 0
2, 197697, Control_c, 0, 64, 39
2, 197716, Control_c, 0, 64, 57
2, 197736, Control_c, 0, 64, 62
2, 197755, Control_c, 0, 64, 64
2, 197774, Control_c, 0, 64, 66
2, 197793, Control_c, 0, 64, 69
2, 197813, Control_c, 0, 64, 73
2, 197831, Control_c, 0, 64, 79
2, 197851, Control_c, 0, 64, 86
2, 197870, Control_c, 0, 64, 93
2, 197890, Control_c, 0, 64, 98
2, 197908, Control_c, 0, 64, 100
2, 197967, Control_c, 0, 64, 101
2, 198101, Control_c, 0, 64, 100
2, 198139, Control_c, 0, 64, 100
2, 198177, Control_c, 0, 64, 99
2, 198196, Control_c, 0, 64, 99
2, 198253, Control_c, 0, 64, 98
2, 198272, Control_c, 0, 64, 98
2, 198311, Control_c, 0, 64, 97
2, 198349, Control_c, 0, 64, 96
2, 198369, Control_c, 0, 64, 95
2, 198387, Control_c, 0, 64, 91
2, 198407, Control_c, 0, 64, 80
2, 198410, Note_on_c, 0, 59, 37
2, 198426, Control_c, 0, 64, 67
2, 198446, Control_c, 0, 64, 45
2, 198464, Control_c, 0, 64, 0
2, 198473, Note_on_c, 0, 61, 0
2, 198561, Control_c, 0, 64, 17
2, 198580, Control_c, 0, 64, 53
2, 198598, Control_c, 0, 64, 63
2, 198618, Control_c, 0, 64, 67
2, 198637, Control_c, 0, 64, 71
2, 198656, Control_c, 0, 64, 77
2, 198675, Control_c, 0, 64, 85
2, 198695, Control_c, 0, 64, 93
2, 198714, Control_c, 0, 64, 101
2, 198718, Note_on_c, 0, 56, 0
2, 198733, Control_c, 0, 64, 112
2, 198741, Note_on_c, 0, 51, 0
2, 198752, Control_c, 0, 64, 127
2, 199262, Note_on_c, 0, 56, 38
2, 199265, Note_on_c, 0, 51, 29
2, 199271, Control_c, 0, 64, 113
2, 199290, Control_c, 0, 64, 94
2, 199309, Control_c, 0, 64, 76
2, 199329, Control_c, 0, 64, 63
2, 199347, Control_c, 0, 64, 0
2, 199444, Control_c, 0, 64, 42
2, 199463, Control_c, 0, 64, 60
2, 199482, Control_c, 0, 64, 65
2, 199501, Control_c, 0, 64, 70
2, 199521, Control_c, 0, 64, 77
2, 199540, Control_c, 0, 64, 88
2, 199558, Control_c, 0, 64, 103
2, 199578, Control_c, 0, 64, 127
2, 199583, Note_on_c, 0, 59, 0
2, 199903, Note_on_c, 0, 63, 42
2, 200071, Note_on_c, 0, 63, 0
2, 200113, Note_on_c, 0, 65, 46
2, 200303, Note_on_c, 0, 67, 60
2, 200336, Note_on_c, 0, 65, 0
2, 200394, Note_on_c, 0, 56, 0
2, 200399, Note_on_c, 0, 51, 0
2, 200487, Note_on_c, 0, 68, 71
2, 200527, Note_on_c, 0, 67, 0
2, 200672, Note_on_c, 0, 70, 76
2, 200743, Note_on_c, 0, 68, 0
2, 200952, Note_on_c, 0, 56, 32
2, 200964, Note_on_c, 0, 51, 33
2, 200988, Note_on_c, 0, 71, 58
2, 200999, Control_c, 0, 64, 119
2, 201014, Note_on_c, 0, 70, 0
2, 201019, Control_c, 0, 64, 96
2, 201038, Control_c, 0, 64, 78
2, 201057, Control_c, 0, 64, 64
2, 201076, Control_c, 0, 64, 0
2, 201211, Control_c, 0, 64, 23
2, 201230, Control_c, 0, 64, 55
2, 201250, Control_c, 0, 64, 63
2, 201268, Control_c, 0, 64, 65
2, 201288, Control_c, 0, 64, 68
2, 201307, Control_c, 0, 64, 71
2, 201327, Control_c, 0, 64, 76
2, 201345, Control_c, 0, 64, 82
2, 201365, Control_c, 0, 64, 89
2, 201384, Control_c, 0, 64, 93
2, 201403, Control_c, 0, 64, 95
2, 201422, Control_c, 0, 64, 96
2, 201442, Control_c, 0, 64, 96
2, 201461, Control_c, 0, 64, 97
2, 201477, Control_c, 0, 64, 98
2, 201497, Control_c, 0, 64, 98
2, 201581, Note_on_c, 0, 70, 55
2, 201593, Control_c, 0, 64, 99
2, 201631, Note_on_c, 0, 71, 0
2, 201657, Note_on_c, 0, 68, 58
2, 201659, Note_on_c, 0, 70, 0
2, 201670, Control_c, 0, 64, 98
2, 201708, Control_c, 0, 64, 98
2, 201728, Control_c, 0, 64, 97
2, 201731, Note_on_c, 0, 66, 55
2, 201746, Control_c, 0, 64, 95
2, 201758, Note_on_c, 0, 68, 0
2, 201766, Control_c, 0, 64, 90
2, 201785, Control_c, 0, 64, 82
2, 201805, Control_c, 0, 64, 71
2, 201817, Note_on_c, 0, 65, 50
2, 201823, Control_c, 0, 64, 60
2, 201831, Note_on_c, 0, 66, 0
2, 201843, Control_c, 0, 64, 0
2, 202024, Note_on_c, 0, 66, 56
2, 202079, Note_on_c, 0, 65, 0
2, 202224, Note_on_c, 0, 68, 65
2, 202228, Note_on_c, 0, 66, 0
2, 202381, Control_c, 0, 64, 40
2, 202400, Control_c, 0, 64, 54
2, 202405, Note_on_c, 0, 51, 0
2, 202420, Control_c, 0, 64, 60
2, 202426, Note_on_c, 0, 65, 52
2, 202438, Control_c, 0, 64, 63
2, 202458, Control_c, 0, 64, 64
2, 202458, Note_on_c, 0, 68, 0
2, 202477, Control_c, 0, 64, 66
2, 202497, Control_c, 0, 64, 67
2, 202515, Control_c, 0, 64, 69
2, 202535, Control_c, 0, 64, 71
2, 202554, Control_c, 0, 64, 74
2, 202573, Control_c, 0, 64, 78
2, 202592, Control_c, 0, 64, 82
2, 202612, Control_c, 0, 64, 84
2, 202631, Control_c, 0, 64, 85
2, 202727, Control_c, 0, 64, 86
2, 202740, Note_on_c, 0, 51, 30
2, 202749, Note_on_c, 0, 53, 38
2, 202784, Control_c, 0, 64, 85
2, 202787, Note_on_c, 0, 65, 0
2, 202796, Note_on_c, 0, 62, 50
2, 202804, Control_c, 0, 64, 85
2, 202823, Control_c, 0, 64, 84
2, 202842, Control_c, 0, 64, 83
2, 202861, Control_c, 0, 64, 79
2, 202880, Control_c, 0, 64, 71
2, 202900, Control_c, 0, 64, 61
2, 202916, Note_on_c, 0, 56, 0
2, 202918, Control_c, 0, 64, 0
2, 203071, Control_c, 0, 64, 46
2, 203091, Control_c, 0, 64, 61
2, 203110, Control_c, 0, 64, 64
2, 203129, Control_c, 0, 64, 65
2, 203148, Control_c, 0, 64, 68
2, 203168, Control_c, 0, 64, 71
2, 203186, Control_c, 0, 64, 77
2, 203206, Control_c, 0, 64, 86
2, 203225, Control_c, 0, 64, 99
2, 203245, Control_c, 0, 64, 127
2, 203428, Note_on_c, 0, 53, 0
2, 203477, Note_on_c, 0, 51, 0
2, 204063, Note_on_c, 0, 59, 47
2, 204255, Note_on_c, 0, 59, 0
2, 204260, Note_on_c, 0, 58, 48
2, 204372, Note_on_c, 0, 58, 0
2, 204588, Control_c, 0, 64, 110
2, 204596, Note_on_c, 0, 59, 39
2, 204608, Control_c, 0, 64, 84
2, 204615, Note_on_c, 0, 53, 36
2, 204622, Note_on_c, 0, 51, 22
2, 204626, Control_c, 0, 64, 69
2, 204646, Control_c, 0, 64, 52
2, 204665, Control_c, 0, 64, 0
2, 205068, Control_c, 0, 64, 43
2, 205088, Control_c, 0, 64, 56
2, 205106, Control_c, 0, 64, 62
2, 205126, Control_c, 0, 64, 65
2, 205145, Control_c, 0, 64, 67
2, 205165, Control_c, 0, 64, 70
2, 205183, Control_c, 0, 64, 74
2, 205203, Control_c, 0, 64, 82
2, 205222, Control_c, 0, 64, 90
2, 205242, Control_c, 0, 64, 102
2, 205260, Control_c, 0, 64, 127
2, 205526, Note_on_c, 0, 59, 0
2, 205559, Note_on_c, 0, 51, 0
2, 205582, Note_on_c, 0, 53, 0
2, 205709, Note_on_c, 0, 62, 0
2, 206064, Note_on_c, 0, 56, 42
2, 206186, Note_on_c, 0, 56, 0
2, 206588, Note_on_c, 0, 53, 37
2, 206612, Note_on_c, 0, 51, 30
2, 206683, Control_c, 0, 64, 95
2, 206702, Control_c, 0, 64, 76
2, 206722, Control_c, 0, 64, 60
2, 206741, Control_c, 0, 64, 0
2, 206913, Control_c, 0, 64, 48
2, 206933, Control_c, 0, 64, 60
2, 206951, Control_c, 0, 64, 64
2, 206971, Control_c, 0, 64, 66
2, 206990, Control_c, 0, 64, 69
2, 207010, Control_c, 0, 64, 75
2, 207028, Control_c, 0, 64, 84
2, 207048, Control_c, 0, 64, 96
2, 207067, Control_c, 0, 64, 116
2, 207087, Control_c, 0, 64, 127
2, 207491, Note_on_c, 0, 53, 0
2, 207517, Note_on_c, 0, 51, 0
2, 208062, Note_on_c, 0, 62, 41
2, 208568, Note_on_c, 0, 39, 33
2, 208666, Note_on_c, 0, 62, 0
2, 208901, Note_on_c, 0, 46, 41
2, 209220, Note_on_c, 0, 51, 37
2, 209548, Note_on_c, 0, 55, 38
2, 209676, Control_c, 0, 64, 111
2, 209696, Control_c, 0, 64, 102
2, 209714, Control_c, 0, 64, 95
2, 209734, Control_c, 0, 64, 88
2, 209753, Control_c, 0, 64, 80
2, 209772, Control_c, 0, 64, 74
2, 209791, Control_c, 0, 64, 69
2, 209811, Control_c, 0, 64, 65
2, 209830, Control_c, 0, 64, 62
2, 209849, Control_c, 0, 64, 59
2, 209868, Control_c, 0, 64, 55
2, 209888, Control_c, 0, 64, 46
2, 209893, Note_on_c, 0, 58, 33
2, 209906, Control_c, 0, 64, 27
2, 209926, Control_c, 0, 64, 0
2, 210436, Note_on_c, 0, 63, 33
2, 210906, Control_c, 0, 64, 32
2, 210926, Control_c, 0, 64, 47
2, 210944, Control_c, 0, 64, 56
2, 210964, Control_c, 0, 64, 60
2, 210983, Control_c, 0, 64, 63
2, 211001, Control_c, 0, 64, 64
2, 211021, Control_c, 0, 64, 66
2, 211040, Control_c, 0, 64, 67
2, 211060, Control_c, 0, 64, 70
2, 211078, Control_c, 0, 64, 75
2, 211098, Control_c, 0, 64, 81
2, 211117, Control_c, 0, 64, 89
2, 211137, Control_c, 0, 64, 97
2, 211155, Control_c, 0, 64, 110
2, 211175, Control_c, 0, 64, 127
2, 212733, Note_on_c, 0, 39, 0
2, 212779, Note_on_c, 0, 51, 0
2, 212874, Note_on_c, 0, 46, 0
2, 212905, Note_on_c, 0, 55, 0
2, 213106, Note_on_c, 0, 63, 0
2, 213107, Note_on_c, 0, 58, 0
2, 213900, Control_c, 0, 64, 123
2, 213919, Control_c, 0, 64, 117
2, 213939, Control_c, 0, 64, 111
2, 213957, Control_c, 0, 64, 105
2, 213977, Control_c, 0, 64, 101
2, 213996, Control_c, 0, 64, 97
2, 214016, Control_c, 0, 64, 94
2, 214034, Control_c, 0, 64, 91
2, 214054, Control_c, 0, 64, 87
2, 214073, Control_c, 0, 64, 83
2, 214092, Control_c, 0, 64, 79
2, 214111, Control_c, 0, 64, 75
2, 214131, Control_c, 0, 64, 72
2, 214150, Control_c, 0, 64, 69
2, 214169, Control_c, 0, 64, 67
2, 214188, Control_c, 0, 64, 65
2, 214208, Control_c, 0, 64, 64
2, 214226, Control_c, 0, 64, 64
2, 214246, Control_c, 0, 64, 63
2, 214265, Control_c, 0, 64, 62
2, 214285, Control_c, 0, 64, 61
2, 214303, Control_c, 0, 64, 60
2, 214322, Control_c, 0, 64, 60
2, 214342, Control_c, 0, 64, 59
2, 214361, Control_c, 0, 64, 57
2, 214380, Control_c, 0, 64, 55
2, 214399, Control_c, 0, 64, 53
2, 214419, Control_c, 0, 64, 50
2, 214437, Control_c, 0, 64, 44
2, 214457, Control_c, 0, 64, 36
2, 214476, Control_c, 0, 64, 18
2, 214496, Control_c, 0, 64, 0
2, 215186, Control_c, 0, 64, 9
2, 215206, Control_c, 0, 64, 11
2, 215263, Control_c, 0, 64, 13
2, 215321, Control_c, 0, 64, 15
2, 215379, Control_c, 0, 64, 17
2, 215397, Control_c, 0, 64, 18
2, 215494, Control_c, 0, 64, 19
2, 215609, Control_c, 0, 64, 20
2, 215666, Control_c, 0, 64, 21
2, 215705, Control_c, 0, 64, 22
2, 215725, Control_c, 0, 64, 23
2, 215762, Control_c, 0, 64, 24
2, 215801, Control_c, 0, 64, 25
2, 215839, Control_c, 0, 64, 26
2, 215879, Control_c, 0, 67, 123
2, 215899, Control_c, 0, 67, 117
2, 215918, Control_c, 0, 67, 109
2, 215937, Control_c, 0, 64, 27
2, 215937, Control_c, 0, 67, 100
2, 215956, Control_c, 0, 64, 27
2, 215956, Control_c, 0, 67, 85
2, 215976, Control_c, 0, 64, 28
2, 215976, Control_c, 0, 67, 73
2, 215995, Control_c, 0, 67, 62
2, 216014, Control_c, 0, 64, 29
2, 216014, Control_c, 0, 67, 55
2, 216033, Control_c, 0, 67, 50
2, 216053, Control_c, 0, 67, 44
2, 216071, Control_c, 0, 64, 29
2, 216071, Control_c, 0, 67, 34
2, 216091, Control_c, 0, 67, 20
2, 216110, Control_c, 0, 67, 0
2, 216148, Control_c, 0, 64, 30
2, 216187, Control_c, 0, 64, 31
2, 216207, Control_c, 0, 64, 31
2, 216282, Control_c, 0, 64, 32
2, 216341, Control_c, 0, 64, 32
2, 216359, Control_c, 0, 64, 33
2, 216398, Control_c, 0, 64, 34
2, 216417, Control_c, 0, 64, 34
2, 216436, Control_c, 0, 64, 35
2, 216512, Control_c, 0, 64, 35
2, 216570, Control_c, 0, 64, 36
2, 216627, Note_on_c, 0, 63, 37
2, 216724, Control_c, 0, 64, 36
2, 217298, Control_c, 0, 64, 37
2, 217487, Note_on_c, 0, 70, 53
2, 217592, Note_on_c, 0, 63, 0
2, 218645, Note_on_c, 0, 71, 47
2, 218704, Note_on_c, 0, 70, 0
2, 219037, Note_on_c, 0, 70, 54
2, 219064, Control_c, 0, 64, 37
2, 219089, Note_on_c, 0, 71, 0
2, 219198, Control_c, 0, 64, 38
2, 219256, Control_c, 0, 64, 38
2, 219295, Control_c, 0, 64, 39
2, 219352, Control_c, 0, 64, 39
2, 219372, Control_c, 0, 64, 40
2, 219410, Control_c, 0, 64, 40
2, 219415, Note_on_c, 0, 68, 54
2, 219451, Note_on_c, 0, 70, 0
2, 219582, Control_c, 0, 64, 41
2, 219678, Control_c, 0, 64, 41
2, 219698, Control_c, 0, 64, 42
2, 219755, Control_c, 0, 64, 42
2, 219775, Control_c, 0, 64, 43
2, 219803, Note_on_c, 0, 66, 45
2, 219828, Note_on_c, 0, 68, 0
2, 219832, Control_c, 0, 64, 43
2, 219870, Control_c, 0, 64, 44
2, 220139, Control_c, 0, 64, 44
2, 220188, Note_on_c, 0, 68, 57
2, 220205, Note_on_c, 0, 66, 0
2, 220390, Control_c, 0, 64, 44
2, 220583, Note_on_c, 0, 70, 50
2, 220600, Note_on_c, 0, 68, 0
2, 220852, Control_c, 0, 64, 43
2, 220890, Control_c, 0, 64, 43
2, 221081, Control_c, 0, 64, 42
2, 221332, Note_on_c, 0, 63, 36
2, 221429, Note_on_c, 0, 70, 0
2, 221715, Control_c, 0, 64, 42
2, 222023, Control_c, 0, 64, 42
2, 222166, Note_on_c, 0, 68, 44
2, 222263, Note_on_c, 0, 63, 0
2, 222463, Control_c, 0, 64, 42
2, 222867, Control_c, 0, 64, 42
2, 222905, Control_c, 0, 64, 43
2, 223116, Control_c, 0, 64, 43
2, 223174, Control_c, 0, 64, 44
2, 223257, Note_on_c, 0, 66, 44
2, 223343, Note_on_c, 0, 68, 0
2, 223366, Control_c, 0, 64, 44
2, 223481, Control_c, 0, 64, 45
2, 223577, Control_c, 0, 64, 45
2, 223684, Note_on_c, 0, 65, 39
2, 223734, Note_on_c, 0, 66, 0
2, 224448, Note_on_c, 0, 63, 31
2, 224477, Note_on_c, 0, 70, 54
2, 224517, Control_c, 0, 64, 46
2, 224529, Note_on_c, 0, 65, 0
2, 224691, Control_c, 0, 64, 46
2, 224748, Control_c, 0, 64, 47
2, 224787, Control_c, 0, 64, 47
2, 224863, Control_c, 0, 64, 48
2, 224921, Control_c, 0, 64, 48
2, 225150, Control_c, 0, 64, 49
2, 225255, Note_on_c, 0, 75, 58
2, 225383, Note_on_c, 0, 70, 0
2, 225515, Control_c, 0, 64, 49
2, 225644, Note_on_c, 0, 63, 0
2, 225646, Note_on_c, 0, 65, 38
2, 226036, Note_on_c, 0, 66, 39
2, 226068, Note_on_c, 0, 65, 0
2, 226168, Control_c, 0, 64, 49
2, 226398, Control_c, 0, 64, 48
2, 226403, Note_on_c, 0, 78, 59
2, 226456, Control_c, 0, 64, 48
2, 226481, Note_on_c, 0, 75, 0
2, 226513, Control_c, 0, 64, 47
2, 226590, Control_c, 0, 64, 47
2, 226793, Note_on_c, 0, 77, 57
2, 226797, Note_on_c, 0, 68, 37
2, 226860, Note_on_c, 0, 66, 0
2, 226903, Note_on_c, 0, 78, 0
2, 226993, Control_c, 0, 64, 46
2, 227052, Control_c, 0, 64, 46
2, 227109, Control_c, 0, 64, 45
2, 227184, Note_on_c, 0, 75, 63
2, 227272, Note_on_c, 0, 77, 0
2, 227281, Control_c, 0, 64, 45
2, 227358, Control_c, 0, 64, 44
2, 227552, Note_on_c, 0, 73, 58
2, 227588, Note_on_c, 0, 70, 22
2, 227616, Note_on_c, 0, 75, 0
2, 227647, Note_on_c, 0, 68, 0
2, 227704, Control_c, 0, 64, 44
2, 227941, Note_on_c, 0, 75, 60
2, 228012, Note_on_c, 0, 73, 0
2, 228280, Control_c, 0, 64, 44
2, 228327, Note_on_c, 0, 77, 52
2, 228387, Note_on_c, 0, 75, 0
2, 228530, Control_c, 0, 64, 45
2, 228549, Control_c, 0, 64, 45
2, 228607, Control_c, 0, 64, 46
2, 228702, Control_c, 0, 64, 46
2, 228705, Note_on_c, 0, 68, 41
2, 228800, Note_on_c, 0, 70, 0
2, 228836, Control_c, 0, 64, 46
2, 228913, Control_c, 0, 64, 45
2, 229099, Note_on_c, 0, 66, 43
2, 229104, Note_on_c, 0, 70, 52
2, 229128, Note_on_c, 0, 68, 0
2, 229164, Note_on_c, 0, 77, 0
2, 229376, Control_c, 0, 64, 46
2, 229469, Note_on_c, 0, 66, 0
2, 229492, Note_on_c, 0, 65, 32
2, 229869, Note_on_c, 0, 66, 33
2, 229872, Note_on_c, 0, 75, 57
2, 229930, Note_on_c, 0, 65, 0
2, 229936, Note_on_c, 0, 70, 0
2, 230142, Control_c, 0, 64, 46
2, 230218, Note_on_c, 0, 66, 0
2, 230227, Note_on_c, 0, 65, 31
2, 230391, Note_on_c, 0, 65, 0
2, 230396, Note_on_c, 0, 63, 41
2, 230527, Control_c, 0, 64, 47
2, 230605, Note_on_c, 0, 63, 0
2, 230636, Note_on_c, 0, 65, 38
2, 230833, Control_c, 0, 64, 47
2, 230892, Control_c, 0, 64, 48
2, 230968, Control_c, 0, 64, 48
2, 230992, Note_on_c, 0, 73, 52
2, 230994, Note_on_c, 0, 70, 42
2, 231001, Note_on_c, 0, 65, 0
2, 231064, Control_c, 0, 64, 49
2, 231065, Note_on_c, 0, 75, 0
2, 231388, Note_on_c, 0, 72, 51
2, 231438, Note_on_c, 0, 73, 0
2, 231774, Note_on_c, 0, 69, 43
2, 231775, Control_c, 0, 64, 48
2, 231803, Note_on_c, 0, 70, 0
2, 231832, Control_c, 0, 64, 48
2, 231870, Control_c, 0, 64, 47
2, 231909, Control_c, 0, 64, 47
2, 231928, Control_c, 0, 64, 46
2, 231967, Control_c, 0, 64, 46
2, 232024, Control_c, 0, 64, 45
2, 232154, Note_on_c, 0, 70, 43
2, 232173, Note_on_c, 0, 72, 0
2, 232190, Note_on_c, 0, 69, 0
2, 232196, Control_c, 0, 64, 45
2, 232215, Control_c, 0, 64, 44
2, 232254, Control_c, 0, 64, 44
2, 232272, Control_c, 0, 64, 43
2, 232292, Control_c, 0, 64, 43
2, 232311, Control_c, 0, 64, 42
2, 232331, Control_c, 0, 64, 42
2, 232349, Control_c, 0, 64, 41
2, 232369, Control_c, 0, 64, 41
2, 232445, Control_c, 0, 64, 40
2, 232514, Note_on_c, 0, 72, 55
2, 232714, Control_c, 0, 64, 40
2, 232902, Note_on_c, 0, 73, 52
2, 232962, Note_on_c, 0, 72, 0
2, 233022, Control_c, 0, 64, 40
2, 233117, Control_c, 0, 64, 41
2, 233175, Control_c, 0, 64, 41
2, 233194, Control_c, 0, 64, 42
2, 233251, Note_on_c, 0, 68, 44
2, 233335, Note_on_c, 0, 70, 0
2, 233617, Control_c, 0, 64, 42
2, 233631, Note_on_c, 0, 68, 0
2, 233636, Control_c, 0, 64, 43
2, 233657, Note_on_c, 0, 67, 29
2, 234022, Note_on_c, 0, 63, 45
2, 234091, Note_on_c, 0, 67, 0
2, 234252, Control_c, 0, 64, 43
2, 234290, Control_c, 0, 64, 44
2, 234347, Control_c, 0, 64, 44
2, 234397, Note_on_c, 0, 68, 44
2, 234431, Note_on_c, 0, 63, 0
2, 234462, Control_c, 0, 64, 45
2, 234558, Control_c, 0, 64, 45
2, 234635, Control_c, 0, 64, 46
2, 234693, Control_c, 0, 64, 46
2, 234798, Note_on_c, 0, 71, 48
2, 234835, Note_on_c, 0, 73, 0
2, 234846, Control_c, 0, 64, 47
2, 235115, Control_c, 0, 64, 47
2, 235162, Note_on_c, 0, 70, 54
2, 235238, Note_on_c, 0, 71, 0
2, 235364, Control_c, 0, 64, 48
2, 235518, Control_c, 0, 64, 47
2, 235530, Note_on_c, 0, 66, 42
2, 235594, Note_on_c, 0, 68, 0
2, 235825, Control_c, 0, 64, 47
2, 235915, Note_on_c, 0, 66, 0
2, 235921, Note_on_c, 0, 75, 60
2, 235928, Note_on_c, 0, 65, 28
2, 235940, Control_c, 0, 64, 46
2, 235979, Note_on_c, 0, 70, 0
2, 235997, Control_c, 0, 64, 46
2, 236074, Control_c, 0, 64, 45
2, 236209, Control_c, 0, 64, 45
2, 236246, Control_c, 0, 64, 44
2, 236266, Control_c, 0, 64, 44
2, 236272, Note_on_c, 0, 63, 43
2, 236285, Control_c, 0, 64, 43
2, 236305, Control_c, 0, 64, 42
2, 236308, Note_on_c, 0, 65, 0
2, 236323, Control_c, 0, 64, 40
2, 236343, Control_c, 0, 64, 38
2, 236362, Control_c, 0, 64, 35
2, 236382, Control_c, 0, 64, 31
2, 236400, Control_c, 0, 64, 23
2, 236420, Control_c, 0, 64, 0
2, 236668, Note_on_c, 0, 65, 35
2, 236681, Note_on_c, 0, 63, 0
2, 237032, Note_on_c, 0, 74, 54
2, 237061, Note_on_c, 0, 75, 0
2, 237370, Note_on_c, 0, 65, 0
2, 237415, Note_on_c, 0, 75, 56
2, 237450, Note_on_c, 0, 66, 42
2, 237479, Note_on_c, 0, 74, 0
2, 237535, Control_c, 0, 64, 59
2, 237553, Control_c, 0, 64, 65
2, 237573, Control_c, 0, 64, 70
2, 237592, Control_c, 0, 64, 79
2, 237612, Control_c, 0, 64, 100
2, 237628, Note_on_c, 0, 66, 0
2, 237630, Control_c, 0, 64, 127
2, 237780, Note_on_c, 0, 77, 63
2, 237822, Note_on_c, 0, 75, 0
2, 237824, Note_on_c, 0, 68, 44
2, 237863, Note_on_c, 0, 68, 0
2, 237890, Note_on_c, 0, 77, 0
2, 238166, Note_on_c, 0, 51, 50
2, 238187, Control_c, 0, 64, 110
2, 238187, Note_on_c, 0, 78, 58
2, 238206, Control_c, 0, 64, 76
2, 238210, Note_on_c, 0, 70, 49
2, 238226, Control_c, 0, 64, 51
2, 238244, Control_c, 0, 64, 0
2, 238341, Control_c, 0, 64, 47
2, 238360, Control_c, 0, 64, 63
2, 238379, Control_c, 0, 64, 67
2, 238395, Note_on_c, 0, 70, 0
2, 238398, Control_c, 0, 64, 73
2, 238418, Control_c, 0, 64, 83
2, 238437, Control_c, 0, 64, 99
2, 238456, Control_c, 0, 64, 127
2, 238572, Control_c, 0, 64, 121
2, 238575, Note_on_c, 0, 72, 48
2, 238591, Control_c, 0, 64, 84
2, 238611, Control_c, 0, 64, 66
2, 238630, Control_c, 0, 64, 35
2, 238649, Control_c, 0, 64, 0
2, 238940, Note_on_c, 0, 72, 0
2, 238967, Note_on_c, 0, 58, 57
2, 238974, Note_on_c, 0, 77, 52
2, 238986, Note_on_c, 0, 74, 41
2, 239064, Note_on_c, 0, 51, 0
2, 239090, Note_on_c, 0, 78, 0
2, 239364, Note_on_c, 0, 78, 51
2, 239374, Note_on_c, 0, 77, 0
2, 239381, Note_on_c, 0, 75, 43
2, 239425, Note_on_c, 0, 74, 0
2, 239741, Note_on_c, 0, 80, 54
2, 239757, Note_on_c, 0, 77, 49
2, 239787, Note_on_c, 0, 78, 0
2, 239801, Control_c, 0, 64, 19
2, 239820, Control_c, 0, 64, 53
2, 239839, Control_c, 0, 64, 62
2, 239849, Note_on_c, 0, 75, 0
2, 239859, Control_c, 0, 64, 65
2, 239877, Control_c, 0, 64, 67
2, 239897, Control_c, 0, 64, 70
2, 239916, Control_c, 0, 64, 75
2, 239936, Control_c, 0, 64, 81
2, 239945, Note_on_c, 0, 77, 0
2, 239954, Control_c, 0, 64, 86
2, 239974, Control_c, 0, 64, 91
2, 239993, Control_c, 0, 64, 95
2, 240012, Control_c, 0, 64, 99
2, 240031, Control_c, 0, 64, 102
2, 240051, Control_c, 0, 64, 106
2, 240070, Control_c, 0, 64, 107
2, 240089, Control_c, 0, 64, 108
2, 240134, Note_on_c, 0, 59, 59
2, 240147, Control_c, 0, 64, 106
2, 240147, Note_on_c, 0, 77, 48
2, 240165, Control_c, 0, 64, 101
2, 240165, Note_on_c, 0, 74, 41
2, 240175, Note_on_c, 0, 58, 0
2, 240185, Control_c, 0, 64, 89
2, 240204, Control_c, 0, 64, 75
2, 240215, Note_on_c, 0, 80, 0
2, 240223, Control_c, 0, 64, 64
2, 240242, Control_c, 0, 64, 43
2, 240262, Control_c, 0, 64, 0
2, 240506, Note_on_c, 0, 58, 60
2, 240515, Note_on_c, 0, 78, 56
2, 240521, Note_on_c, 0, 74, 0
2, 240532, Note_on_c, 0, 75, 48
2, 240548, Note_on_c, 0, 77, 0
2, 240566, Note_on_c, 0, 59, 0
2, 240877, Note_on_c, 0, 56, 61
2, 240885, Note_on_c, 0, 78, 0
2, 240886, Note_on_c, 0, 77, 53
2, 240889, Note_on_c, 0, 80, 60
2, 240915, Note_on_c, 0, 58, 0
2, 240921, Note_on_c, 0, 75, 0
2, 241256, Note_on_c, 0, 80, 0
2, 241257, Note_on_c, 0, 54, 52
2, 241273, Note_on_c, 0, 82, 50
2, 241284, Note_on_c, 0, 56, 0
2, 241292, Note_on_c, 0, 78, 50
2, 241357, Note_on_c, 0, 77, 0
2, 241639, Note_on_c, 0, 56, 63
2, 241649, Note_on_c, 0, 78, 0
2, 241649, Note_on_c, 0, 80, 54
2, 241662, Note_on_c, 0, 77, 45
2, 241675, Note_on_c, 0, 54, 0
2, 241710, Note_on_c, 0, 82, 0
2, 242022, Note_on_c, 0, 77, 0
2, 242027, Note_on_c, 0, 58, 47
2, 242035, Note_on_c, 0, 78, 50
2, 242046, Note_on_c, 0, 80, 0
2, 242050, Note_on_c, 0, 75, 41
2, 242072, Note_on_c, 0, 56, 0
2, 242361, Note_on_c, 0, 78, 0
2, 242413, Note_on_c, 0, 77, 47
2, 242415, Note_on_c, 0, 74, 39
2, 242427, Note_on_c, 0, 75, 0
2, 242792, Note_on_c, 0, 77, 0
2, 242799, Note_on_c, 0, 51, 44
2, 242801, Note_on_c, 0, 78, 46
2, 242807, Note_on_c, 0, 75, 46
2, 242873, Note_on_c, 0, 58, 0
2, 242895, Note_on_c, 0, 74, 0
2, 243176, Note_on_c, 0, 73, 46
2, 243234, Note_on_c, 0, 75, 0
2, 243565, Note_on_c, 0, 56, 50
2, 243578, Note_on_c, 0, 71, 38
2, 243581, Note_on_c, 0, 77, 47
2, 243625, Note_on_c, 0, 73, 0
2, 243631, Note_on_c, 0, 78, 0
2, 243655, Note_on_c, 0, 51, 0
2, 243964, Note_on_c, 0, 75, 52
2, 243997, Note_on_c, 0, 77, 0
2, 244334, Note_on_c, 0, 70, 47
2, 244336, Note_on_c, 0, 75, 0
2, 244348, Note_on_c, 0, 74, 42
2, 244379, Note_on_c, 0, 71, 0
2, 244710, Note_on_c, 0, 54, 52
2, 244719, Note_on_c, 0, 75, 50
2, 244759, Note_on_c, 0, 56, 0
2, 244792, Note_on_c, 0, 74, 0
2, 245109, Note_on_c, 0, 54, 0
2, 245110, Note_on_c, 0, 53, 44
2, 245114, Note_on_c, 0, 68, 45
2, 245124, Note_on_c, 0, 70, 0
2, 245470, Note_on_c, 0, 74, 52
2, 245472, Note_on_c, 0, 75, 0
2, 245846, Note_on_c, 0, 74, 0
2, 245868, Note_on_c, 0, 75, 54
2, 245882, Note_on_c, 0, 51, 40
2, 245894, Note_on_c, 0, 66, 40
2, 245905, Note_on_c, 0, 68, 0
2, 245937, Note_on_c, 0, 53, 0
2, 246234, Note_on_c, 0, 73, 58
2, 246390, Note_on_c, 0, 75, 0
2, 246477, Note_on_c, 0, 66, 0
2, 246633, Note_on_c, 0, 63, 49
2, 246638, Note_on_c, 0, 71, 49
2, 246643, Note_on_c, 0, 68, 43
2, 246686, Note_on_c, 0, 73, 0
2, 246690, Note_on_c, 0, 51, 0
2, 246903, Control_c, 0, 64, 33
2, 246922, Control_c, 0, 64, 50
2, 246942, Control_c, 0, 64, 58
2, 246960, Control_c, 0, 64, 61
2, 246980, Control_c, 0, 64, 62
2, 246999, Control_c, 0, 64, 63
2, 247007, Note_on_c, 0, 66, 48
2, 247018, Control_c, 0, 64, 64
2, 247029, Note_on_c, 0, 68, 0
2, 247037, Control_c, 0, 64, 65
2, 247057, Control_c, 0, 64, 66
2, 247076, Control_c, 0, 64, 67
2, 247095, Control_c, 0, 64, 68
2, 247114, Control_c, 0, 64, 70
2, 247134, Control_c, 0, 64, 74
2, 247152, Control_c, 0, 64, 77
2, 247172, Control_c, 0, 64, 81
2, 247191, Control_c, 0, 64, 84
2, 247211, Control_c, 0, 64, 86
2, 247229, Control_c, 0, 64, 87
2, 247248, Control_c, 0, 64, 88
2, 247268, Control_c, 0, 64, 89
2, 247286, Control_c, 0, 64, 90
2, 247306, Control_c, 0, 64, 90
2, 247400, Note_on_c, 0, 66, 0
2, 247402, Control_c, 0, 64, 88
2, 247421, Note_on_c, 0, 62, 41
2, 247422, Control_c, 0, 64, 81
2, 247423, Note_on_c, 0, 65, 45
2, 247427, Note_on_c, 0, 63, 0
2, 247440, Control_c, 0, 64, 68
2, 247460, Control_c, 0, 64, 56
2, 247479, Control_c, 0, 64, 0
2, 247575, Control_c, 0, 64, 46
2, 247594, Control_c, 0, 64, 60
2, 247614, Control_c, 0, 64, 64
2, 247632, Control_c, 0, 64, 66
2, 247652, Control_c, 0, 64, 67
2, 247671, Control_c, 0, 64, 69
2, 247691, Control_c, 0, 64, 71
2, 247709, Control_c, 0, 64, 74
2, 247728, Control_c, 0, 64, 76
2, 247748, Control_c, 0, 64, 77
2, 247766, Control_c, 0, 64, 77
2, 247782, Note_on_c, 0, 70, 59
2, 247805, Control_c, 0, 64, 76
2, 247825, Control_c, 0, 64, 75
2, 247843, Control_c, 0, 64, 72
2, 247863, Control_c, 0, 64, 67
2, 247882, Control_c, 0, 64, 62
2, 247902, Control_c, 0, 64, 54
2, 247920, Control_c, 0, 64, 33
2, 247931, Note_on_c, 0, 68, 62
2, 247940, Control_c, 0, 64, 0
2, 247962, Note_on_c, 0, 70, 0
2, 247963, Note_on_c, 0, 65, 0
2, 247977, Note_on_c, 0, 71, 0
2, 248198, Note_on_c, 0, 70, 57
2, 248200, Note_on_c, 0, 61, 35
2, 248218, Note_on_c, 0, 62, 0
2, 248232, Note_on_c, 0, 68, 0
2, 248533, Note_on_c, 0, 70, 0
2, 248545, Note_on_c, 0, 63, 50
2, 248562, Note_on_c, 0, 71, 57
2, 248711, Note_on_c, 0, 63, 0
2, 248725, Note_on_c, 0, 73, 68
2, 248728, Note_on_c, 0, 65, 48
2, 248771, Note_on_c, 0, 71, 0
2, 248924, Note_on_c, 0, 65, 0
2, 248948, Note_on_c, 0, 75, 68
2, 248949, Note_on_c, 0, 66, 53
2, 248951, Note_on_c, 0, 60, 38
2, 248988, Note_on_c, 0, 73, 0
2, 249012, Note_on_c, 0, 61, 0
2, 249129, Control_c, 0, 64, 15
2, 249148, Control_c, 0, 64, 53
2, 249167, Control_c, 0, 64, 60
2, 249187, Control_c, 0, 64, 62
2, 249206, Control_c, 0, 64, 64
2, 249225, Control_c, 0, 64, 65
2, 249244, Control_c, 0, 64, 67
2, 249264, Control_c, 0, 64, 70
2, 249282, Control_c, 0, 64, 75
2, 249302, Control_c, 0, 64, 81
2, 249316, Note_on_c, 0, 75, 0
2, 249316, Note_on_c, 0, 77, 66
2, 249321, Control_c, 0, 64, 87
2, 249326, Note_on_c, 0, 68, 62
2, 249341, Control_c, 0, 64, 93
2, 249359, Control_c, 0, 64, 100
2, 249379, Control_c, 0, 64, 108
2, 249379, Note_on_c, 0, 66, 0
2, 249398, Control_c, 0, 64, 116
2, 249417, Control_c, 0, 64, 121
2, 249436, Control_c, 0, 64, 127
2, 249464, Note_on_c, 0, 68, 0
2, 249478, Note_on_c, 0, 78, 68
2, 249493, Note_on_c, 0, 70, 68
2, 249499, Note_on_c, 0, 77, 0
2, 249644, Note_on_c, 0, 70, 0
2, 249667, Control_c, 0, 64, 96
2, 249685, Note_on_c, 0, 60, 0
2, 249685, Note_on_c, 0, 77, 58
2, 249686, Control_c, 0, 64, 73
2, 249705, Control_c, 0, 64, 46
2, 249715, Note_on_c, 0, 68, 51
2, 249717, Note_on_c, 0, 59, 43
2, 249724, Control_c, 0, 64, 0
2, 249786, Note_on_c, 0, 78, 0
2, 249859, Control_c, 0, 64, 61
2, 249878, Control_c, 0, 64, 69
2, 249897, Control_c, 0, 64, 76
2, 249916, Control_c, 0, 64, 85
2, 249936, Control_c, 0, 64, 90
2, 249955, Control_c, 0, 64, 97
2, 249974, Control_c, 0, 64, 111
2, 249993, Control_c, 0, 64, 127
2, 249998, Note_on_c, 0, 59, 0
2, 250065, Note_on_c, 0, 75, 68
2, 250082, Note_on_c, 0, 77, 0
2, 250096, Note_on_c, 0, 68, 0
2, 250119, Note_on_c, 0, 75, 0
2, 250242, Note_on_c, 0, 66, 50
2, 250316, Note_on_c, 0, 68, 61
2, 250333, Note_on_c, 0, 66, 0
2, 250442, Note_on_c, 0, 58, 52
2, 250455, Note_on_c, 0, 70, 52
2, 250455, Note_on_c, 0, 74, 54
2, 250495, Control_c, 0, 64, 88
2, 250513, Control_c, 0, 64, 68
2, 250516, Note_on_c, 0, 68, 0
2, 250533, Control_c, 0, 64, 39
2, 250552, Control_c, 0, 64, 0
2, 250833, Note_on_c, 0, 46, 63
2, 250837, Note_on_c, 0, 70, 0
2, 250857, Note_on_c, 0, 68, 56
2, 250861, Note_on_c, 0, 58, 0
2, 251234, Note_on_c, 0, 74, 0
2, 251261, Note_on_c, 0, 75, 61
2, 251267, Note_on_c, 0, 51, 59
2, 251281, Note_on_c, 0, 66, 43
2, 251311, Note_on_c, 0, 68, 0
2, 251323, Note_on_c, 0, 46, 0
2, 251549, Note_on_c, 0, 66, 0
2, 251644, Note_on_c, 0, 73, 57
2, 251647, Note_on_c, 0, 65, 34
2, 251675, Note_on_c, 0, 75, 0
2, 252008, Note_on_c, 0, 71, 54
2, 252055, Note_on_c, 0, 63, 53
2, 252066, Note_on_c, 0, 73, 0
2, 252142, Note_on_c, 0, 65, 0
2, 252405, Note_on_c, 0, 54, 63
2, 252406, Note_on_c, 0, 70, 56
2, 252455, Note_on_c, 0, 51, 0
2, 252467, Note_on_c, 0, 71, 0
2, 252792, Note_on_c, 0, 53, 58
2, 252794, Note_on_c, 0, 63, 0
2, 252794, Note_on_c, 0, 68, 59
2, 252809, Note_on_c, 0, 54, 0
2, 252815, Note_on_c, 0, 62, 46
2, 252818, Note_on_c, 0, 70, 0
2, 253176, Note_on_c, 0, 51, 62
2, 253180, Note_on_c, 0, 66, 58
2, 253199, Note_on_c, 0, 63, 51
2, 253202, Note_on_c, 0, 68, 0
2, 253219, Note_on_c, 0, 53, 0
2, 253305, Note_on_c, 0, 62, 0
2, 253559, Note_on_c, 0, 50, 59
2, 253567, Note_on_c, 0, 65, 50
2, 253588, Note_on_c, 0, 66, 0
2, 253595, Note_on_c, 0, 63, 0
2, 253598, Note_on_c, 0, 51, 0
2, 253939, Note_on_c, 0, 51, 61
2, 253947, Note_on_c, 0, 66, 53
2, 253963, Note_on_c, 0, 50, 0
2, 253973, Note_on_c, 0, 63, 43
2, 253976, Note_on_c, 0, 65, 0
2, 254358, Note_on_c, 0, 53, 52
2, 254365, Note_on_c, 0, 63, 0
2, 254367, Note_on_c, 0, 68, 54
2, 254384, Note_on_c, 0, 66, 0
2, 254389, Note_on_c, 0, 62, 40
2, 254390, Note_on_c, 0, 51, 0
2, 254738, Note_on_c, 0, 62, 0
2, 254751, Note_on_c, 0, 60, 43
2, 255122, Note_on_c, 0, 46, 48
2, 255122, Note_on_c, 0, 60, 0
2, 255145, Note_on_c, 0, 62, 41
2, 255212, Note_on_c, 0, 53, 0
2, 255532, Note_on_c, 0, 66, 53
2, 255570, Note_on_c, 0, 62, 0
2, 255678, Note_on_c, 0, 65, 59
2, 255693, Note_on_c, 0, 66, 0
2, 255899, Note_on_c, 0, 51, 48
2, 255904, Note_on_c, 0, 68, 0
2, 255926, Note_on_c, 0, 66, 51
2, 255932, Note_on_c, 0, 65, 0
2, 255942, Note_on_c, 0, 63, 48
2, 255999, Note_on_c, 0, 46, 0
2, 256295, Note_on_c, 0, 68, 67
2, 256308, Note_on_c, 0, 65, 55
2, 256327, Note_on_c, 0, 63, 0
2, 256333, Note_on_c, 0, 66, 0
2, 256677, Note_on_c, 0, 66, 59
2, 256687, Note_on_c, 0, 70, 64
2, 256695, Note_on_c, 0, 65, 0
2, 256791, Note_on_c, 0, 68, 0
2, 257065, Note_on_c, 0, 49, 67
2, 257150, Note_on_c, 0, 51, 0
2, 257298, Note_on_c, 0, 70, 0
2, 257450, Note_on_c, 0, 47, 57
2, 257454, Note_on_c, 0, 71, 66
2, 257465, Note_on_c, 0, 68, 57
2, 257475, Note_on_c, 0, 66, 0
2, 257549, Note_on_c, 0, 49, 0
2, 257821, Note_on_c, 0, 73, 67
2, 257840, Note_on_c, 0, 68, 0
2, 257848, Note_on_c, 0, 66, 52
2, 257850, Note_on_c, 0, 71, 0
2, 257993, Note_on_c, 0, 75, 68
2, 258009, Note_on_c, 0, 73, 0
2, 258210, Note_on_c, 0, 68, 66
2, 258221, Note_on_c, 0, 65, 21
2, 258221, Note_on_c, 0, 75, 0
2, 258283, Note_on_c, 0, 66, 0
2, 258586, Note_on_c, 0, 65, 0
2, 258588, Note_on_c, 0, 61, 53
2, 258960, Note_on_c, 0, 66, 53
2, 258964, Note_on_c, 0, 46, 44
2, 258978, Note_on_c, 0, 61, 0
2, 259035, Note_on_c, 0, 47, 0
2, 259074, Note_on_c, 0, 68, 0
2, 259152, Control_c, 0, 64, 33
2, 259170, Control_c, 0, 64, 58
2, 259190, Control_c, 0, 64, 63
2, 259209, Control_c, 0, 64, 65
2, 259228, Control_c, 0, 64, 67
2, 259247, Control_c, 0, 64, 69
2, 259267, Control_c, 0, 64, 76
2, 259286, Control_c, 0, 64, 84
2, 259305, Control_c, 0, 64, 94
2, 259324, Control_c, 0, 64, 113
2, 259344, Control_c, 0, 64, 127
2, 259347, Note_on_c, 0, 70, 59
2, 259428, Note_on_c, 0, 70, 0
2, 259737, Note_on_c, 0, 71, 46
2, 259749, Note_on_c, 0, 44, 38
2, 259764, Control_c, 0, 64, 102
2, 259783, Control_c, 0, 64, 75
2, 259802, Control_c, 0, 64, 59
2, 259806, Note_on_c, 0, 46, 0
2, 259822, Control_c, 0, 64, 0
2, 259899, Control_c, 0, 64, 21
2, 259917, Control_c, 0, 64, 53
2, 259937, Control_c, 0, 64, 62
2, 259956, Control_c, 0, 64, 65
2, 259976, Control_c, 0, 64, 68
2, 259994, Control_c, 0, 64, 72
2, 260014, Control_c, 0, 64, 78
2, 260035, Control_c, 0, 64, 86
2, 260054, Control_c, 0, 64, 94
2, 260073, Control_c, 0, 64, 102
2, 260093, Control_c, 0, 64, 109
2, 260112, Control_c, 0, 64, 110
2, 260115, Note_on_c, 0, 73, 57
2, 260126, Note_on_c, 0, 46, 46
2, 260130, Control_c, 0, 64, 104
2, 260150, Control_c, 0, 64, 91
2, 260169, Control_c, 0, 64, 77
2, 260169, Note_on_c, 0, 66, 0
2, 260173, Note_on_c, 0, 44, 0
2, 260188, Control_c, 0, 64, 66
2, 260207, Control_c, 0, 64, 52
2, 260227, Control_c, 0, 64, 0
2, 260247, Note_on_c, 0, 71, 0
2, 260502, Note_on_c, 0, 46, 0
2, 260516, Note_on_c, 0, 75, 67
2, 260523, Note_on_c, 0, 47, 47
2, 260529, Note_on_c, 0, 65, 49
2, 260553, Note_on_c, 0, 73, 0
2, 260868, Note_on_c, 0, 47, 0
2, 260871, Note_on_c, 0, 75, 0
2, 260883, Note_on_c, 0, 49, 57
2, 260889, Note_on_c, 0, 77, 69
2, 261275, Note_on_c, 0, 78, 69
2, 261288, Note_on_c, 0, 51, 56
2, 261298, Note_on_c, 0, 77, 0
2, 261312, Note_on_c, 0, 65, 0
2, 261316, Note_on_c, 0, 49, 0
2, 261655, Note_on_c, 0, 80, 78
2, 261687, Note_on_c, 0, 51, 0
2, 261705, Note_on_c, 0, 53, 52
2, 261713, Note_on_c, 0, 78, 0
2, 262049, Note_on_c, 0, 82, 79
2, 262057, Note_on_c, 0, 54, 57
2, 262064, Note_on_c, 0, 63, 51
2, 262067, Note_on_c, 0, 53, 0
2, 262082, Note_on_c, 0, 80, 0
2, 262205, Control_c, 0, 64, 51
2, 262225, Control_c, 0, 64, 61
2, 262243, Control_c, 0, 64, 64
2, 262263, Control_c, 0, 64, 66
2, 262282, Control_c, 0, 64, 69
2, 262302, Control_c, 0, 64, 74
2, 262320, Control_c, 0, 64, 81
2, 262340, Control_c, 0, 64, 88
2, 262359, Control_c, 0, 64, 96
2, 262378, Control_c, 0, 64, 107
2, 262397, Control_c, 0, 64, 127
2, 262410, Note_on_c, 0, 54, 0
2, 262434, Note_on_c, 0, 56, 59
2, 262437, Note_on_c, 0, 83, 78
2, 262455, Control_c, 0, 64, 110
2, 262474, Control_c, 0, 64, 89
2, 262481, Note_on_c, 0, 82, 0
2, 262494, Control_c, 0, 64, 72
2, 262512, Control_c, 0, 64, 61
2, 262531, Control_c, 0, 64, 34
2, 262550, Control_c, 0, 64, 0
2, 262569, Control_c, 0, 64, 18
2, 262588, Control_c, 0, 64, 49
2, 262607, Control_c, 0, 64, 60
2, 262627, Control_c, 0, 64, 64
2, 262646, Control_c, 0, 64, 68
2, 262665, Control_c, 0, 64, 73
2, 262684, Control_c, 0, 64, 81
2, 262704, Control_c, 0, 64, 90
2, 262722, Control_c, 0, 64, 103
2, 262742, Control_c, 0, 64, 127
2, 262826, Note_on_c, 0, 63, 0
2, 262828, Note_on_c, 0, 58, 58
2, 262833, Note_on_c, 0, 61, 64
2, 262838, Note_on_c, 0, 56, 0
2, 262857, Control_c, 0, 64, 85
2, 262876, Control_c, 0, 64, 68
2, 262896, Control_c, 0, 64, 53
2, 262914, Control_c, 0, 64, 13
2, 262933, Control_c, 0, 64, 11
2, 262952, Control_c, 0, 64, 41
2, 262971, Control_c, 0, 64, 58
2, 262991, Control_c, 0, 64, 65
2, 263009, Control_c, 0, 64, 69
2, 263029, Control_c, 0, 64, 76
2, 263048, Control_c, 0, 64, 86
2, 263067, Control_c, 0, 64, 100
2, 263086, Control_c, 0, 64, 127
2, 263183, Control_c, 0, 64, 104
2, 263202, Control_c, 0, 64, 78
2, 263211, Note_on_c, 0, 73, 74
2, 263213, Note_on_c, 0, 83, 0
2, 263218, Note_on_c, 0, 56, 52
2, 263218, Note_on_c, 0, 65, 57
2, 263221, Control_c, 0, 64, 64
2, 263240, Control_c, 0, 64, 54
2, 263246, Note_on_c, 0, 58, 0
2, 263260, Control_c, 0, 64, 56
2, 263266, Note_on_c, 0, 61, 0
2, 263278, Control_c, 0, 64, 62
2, 263298, Control_c, 0, 64, 66
2, 263317, Control_c, 0, 64, 73
2, 263337, Control_c, 0, 64, 86
2, 263355, Control_c, 0, 64, 117
2, 263375, Control_c, 0, 64, 127
2, 263601, Note_on_c, 0, 58, 55
2, 263622, Note_on_c, 0, 65, 0
2, 263627, Note_on_c, 0, 78, 83
2, 263641, Note_on_c, 0, 73, 0
2, 263644, Note_on_c, 0, 66, 57
2, 263653, Note_on_c, 0, 56, 0
2, 263718, Control_c, 0, 64, 97
2, 263738, Control_c, 0, 64, 74
2, 263757, Control_c, 0, 64, 60
2, 263776, Control_c, 0, 64, 0
2, 263995, Note_on_c, 0, 59, 63
2, 264004, Note_on_c, 0, 66, 0
2, 264010, Note_on_c, 0, 68, 69
2, 264029, Note_on_c, 0, 58, 0
2, 264395, Note_on_c, 0, 70, 72
2, 264404, Note_on_c, 0, 61, 61
2, 264433, Note_on_c, 0, 59, 0
2, 264439, Note_on_c, 0, 68, 0
2, 264777, Note_on_c, 0, 70, 0
2, 264787, Note_on_c, 0, 71, 72
2, 265139, Note_on_c, 0, 78, 0
2, 265169, Note_on_c, 0, 49, 53
2, 265192, Note_on_c, 0, 77, 71
2, 265202, Note_on_c, 0, 73, 61
2, 265231, Note_on_c, 0, 71, 0
2, 265263, Note_on_c, 0, 61, 0
2, 265564, Note_on_c, 0, 71, 57
2, 265567, Note_on_c, 0, 73, 0
2, 265959, Note_on_c, 0, 70, 61
2, 265972, Note_on_c, 0, 42, 46
2, 265988, Note_on_c, 0, 49, 0
2, 266038, Note_on_c, 0, 71, 0
2, 266140, Control_c, 0, 64, 19
2, 266158, Control_c, 0, 64, 59
2, 266178, Control_c, 0, 64, 64
2, 266197, Control_c, 0, 64, 66
2, 266217, Control_c, 0, 64, 69
2, 266235, Control_c, 0, 64, 73
2, 266255, Control_c, 0, 64, 81
2, 266274, Control_c, 0, 64, 92
2, 266292, Control_c, 0, 64, 119
2, 266312, Control_c, 0, 64, 127
2, 266337, Note_on_c, 0, 77, 0
2, 266349, Note_on_c, 0, 68, 66
2, 266367, Note_on_c, 0, 70, 0
2, 266757, Note_on_c, 0, 54, 29
2, 266766, Note_on_c, 0, 75, 57
2, 266767, Note_on_c, 0, 66, 43
2, 266774, Control_c, 0, 64, 103
2, 266786, Note_on_c, 0, 42, 0
2, 266793, Control_c, 0, 64, 72
2, 266812, Control_c, 0, 64, 44
2, 266818, Note_on_c, 0, 68, 0
2, 266832, Control_c, 0, 64, 0
2, 266908, Control_c, 0, 64, 45
2, 266927, Control_c, 0, 64, 63
2, 266947, Control_c, 0, 64, 70
2, 266966, Control_c, 0, 64, 80
2, 266985, Control_c, 0, 64, 105
2, 267004, Control_c, 0, 64, 127
2, 267016, Note_on_c, 0, 66, 0
2, 267147, Note_on_c, 0, 73, 56
2, 267163, Note_on_c, 0, 65, 43
2, 267196, Control_c, 0, 64, 90
2, 267216, Control_c, 0, 64, 72
2, 267235, Control_c, 0, 64, 63
2, 267254, Control_c, 0, 64, 56
2, 267265, Note_on_c, 0, 75, 0
2, 267273, Control_c, 0, 64, 59
2, 267292, Control_c, 0, 64, 63
2, 267300, Note_on_c, 0, 65, 0
2, 267312, Control_c, 0, 64, 67
2, 267330, Control_c, 0, 64, 72
2, 267349, Control_c, 0, 64, 80
2, 267368, Control_c, 0, 64, 92
2, 267387, Control_c, 0, 64, 127
2, 267523, Note_on_c, 0, 72, 66
2, 267541, Control_c, 0, 64, 88
2, 267548, Note_on_c, 0, 63, 51
2, 267560, Control_c, 0, 64, 71
2, 267575, Note_on_c, 0, 73, 0
2, 267580, Control_c, 0, 64, 61
2, 267598, Control_c, 0, 64, 50
2, 267618, Control_c, 0, 64, 53
2, 267637, Control_c, 0, 64, 59
2, 267657, Control_c, 0, 64, 64
2, 267675, Control_c, 0, 64, 68
2, 267695, Control_c, 0, 64, 73
2, 267709, Note_on_c, 0, 63, 0
2, 267715, Control_c, 0, 64, 81
2, 267734, Control_c, 0, 64, 92
2, 267753, Control_c, 0, 64, 106
2, 267754, Note_on_c, 0, 54, 0
2, 267772, Control_c, 0, 64, 127
2, 267911, Note_on_c, 0, 74, 70
2, 267926, Control_c, 0, 64, 87
2, 267927, Note_on_c, 0, 53, 51
2, 267927, Note_on_c, 0, 65, 56
2, 267945, Control_c, 0, 64, 67
2, 267964, Control_c, 0, 64, 45
2, 267969, Note_on_c, 0, 72, 0
2, 267984, Control_c, 0, 64, 0
2, 268022, Control_c, 0, 64, 15
2, 268039, Note_on_c, 0, 65, 0
2, 268041, Control_c, 0, 64, 53
2, 268061, Control_c, 0, 64, 63
2, 268079, Control_c, 0, 64, 67
2, 268099, Control_c, 0, 64, 70
2, 268118, Control_c, 0, 64, 75
2, 268138, Control_c, 0, 64, 81
2, 268156, Control_c, 0, 64, 87
2, 268176, Control_c, 0, 64, 93
2, 268195, Control_c, 0, 64, 100
2, 268214, Control_c, 0, 64, 112
2, 268233, Control_c, 0, 64, 127
2, 268287, Note_on_c, 0, 75, 77
2, 268290, Control_c, 0, 64, 102
2, 268294, Note_on_c, 0, 51, 51
2, 268303, Note_on_c, 0, 66, 61
2, 268310, Control_c, 0, 64, 83
2, 268311, Note_on_c, 0, 74, 0
2, 268329, Control_c, 0, 64, 68
2, 268348, Control_c, 0, 64, 53
2, 268355, Note_on_c, 0, 53, 0
2, 268367, Control_c, 0, 64, 23
2, 268406, Control_c, 0, 64, 43
2, 268425, Control_c, 0, 64, 58
2, 268444, Control_c, 0, 64, 63
2, 268444, Note_on_c, 0, 66, 0
2, 268464, Control_c, 0, 64, 66
2, 268482, Control_c, 0, 64, 70
2, 268502, Control_c, 0, 64, 76
2, 268521, Control_c, 0, 64, 84
2, 268541, Control_c, 0, 64, 93
2, 268559, Control_c, 0, 64, 102
2, 268579, Control_c, 0, 64, 112
2, 268598, Control_c, 0, 64, 123
2, 268618, Control_c, 0, 64, 127
2, 268674, Note_on_c, 0, 75, 0
2, 268680, Control_c, 0, 64, 107
2, 268683, Note_on_c, 0, 49, 62
2, 268687, Note_on_c, 0, 77, 80
2, 268691, Note_on_c, 0, 70, 69
2, 268700, Control_c, 0, 64, 86
2, 268719, Control_c, 0, 64, 69
2, 268720, Note_on_c, 0, 51, 0
2, 268738, Control_c, 0, 64, 56
2, 268757, Control_c, 0, 64, 0
2, 268815, Control_c, 0, 64, 46
2, 268834, Control_c, 0, 64, 61
2, 268854, Control_c, 0, 64, 65
2, 268872, Control_c, 0, 64, 69
2, 268891, Control_c, 0, 64, 75
2, 268911, Control_c, 0, 64, 84
2, 268930, Control_c, 0, 64, 93
2, 268949, Control_c, 0, 64, 101
2, 268962, Note_on_c, 0, 70, 0
2, 268968, Control_c, 0, 64, 107
2, 268988, Control_c, 0, 64, 113
2, 269007, Control_c, 0, 64, 118
2, 269026, Control_c, 0, 64, 127
2, 269077, Note_on_c, 0, 48, 53
2, 269095, Note_on_c, 0, 49, 0
2, 269108, Note_on_c, 0, 78, 78
2, 269124, Note_on_c, 0, 75, 68
2, 269150, Note_on_c, 0, 77, 0
2, 269160, Control_c, 0, 64, 104
2, 269180, Control_c, 0, 64, 79
2, 269199, Control_c, 0, 64, 62
2, 269218, Control_c, 0, 64, 0
2, 269468, Note_on_c, 0, 73, 57
2, 269472, Note_on_c, 0, 46, 53
2, 269524, Note_on_c, 0, 75, 0
2, 269529, Note_on_c, 0, 48, 0
2, 269863, Note_on_c, 0, 77, 71
2, 269864, Note_on_c, 0, 45, 51
2, 269873, Note_on_c, 0, 72, 59
2, 269873, Note_on_c, 0, 73, 0
2, 269913, Note_on_c, 0, 46, 0
2, 269949, Note_on_c, 0, 78, 0
2, 270267, Note_on_c, 0, 75, 73
2, 270274, Note_on_c, 0, 41, 54
2, 270287, Note_on_c, 0, 45, 0
2, 270344, Note_on_c, 0, 77, 0
2, 270631, Note_on_c, 0, 46, 53
2, 270667, Note_on_c, 0, 73, 69
2, 270688, Note_on_c, 0, 41, 0
2, 270732, Note_on_c, 0, 75, 0
2, 271012, Note_on_c, 0, 46, 0
2, 271021, Note_on_c, 0, 48, 54
2, 271036, Note_on_c, 0, 75, 80
2, 271089, Note_on_c, 0, 73, 0
2, 271419, Note_on_c, 0, 49, 51
2, 271435, Note_on_c, 0, 77, 76
2, 271442, Note_on_c, 0, 70, 64
2, 271452, Note_on_c, 0, 75, 0
2, 271471, Note_on_c, 0, 48, 0
2, 271479, Note_on_c, 0, 72, 0
2, 271819, Note_on_c, 0, 78, 79
2, 271835, Note_on_c, 0, 51, 49
2, 271848, Note_on_c, 0, 49, 0
2, 271849, Note_on_c, 0, 77, 0
2, 272231, Note_on_c, 0, 73, 81
2, 272247, Note_on_c, 0, 53, 54
2, 272256, Note_on_c, 0, 51, 0
2, 272298, Note_on_c, 0, 78, 0
2, 272346, Control_c, 0, 64, 30
2, 272365, Control_c, 0, 64, 62
2, 272384, Control_c, 0, 64, 66
2, 272403, Control_c, 0, 64, 71
2, 272422, Control_c, 0, 64, 79
2, 272442, Control_c, 0, 64, 94
2, 272460, Control_c, 0, 64, 127
2, 272541, Note_on_c, 0, 70, 0
2, 272547, Note_on_c, 0, 73, 0
2, 272630, Note_on_c, 0, 51, 67
2, 272659, Note_on_c, 0, 53, 0
2, 273020, Note_on_c, 0, 53, 51
2, 273033, Note_on_c, 0, 72, 78
2, 273043, Note_on_c, 0, 69, 72
2, 273047, Note_on_c, 0, 51, 0
2, 273076, Control_c, 0, 64, 85
2, 273095, Control_c, 0, 64, 61
2, 273112, Control_c, 0, 64, 0
2, 273189, Control_c, 0, 64, 34
2, 273208, Control_c, 0, 64, 64
2, 273227, Control_c, 0, 64, 72
2, 273246, Control_c, 0, 64, 92
2, 273265, Control_c, 0, 64, 127
2, 273367, Note_on_c, 0, 72, 0
2, 273443, Note_on_c, 0, 69, 0
2, 273485, Note_on_c, 0, 41, 70
2, 273498, Note_on_c, 0, 53, 0
2, 273954, Note_on_c, 0, 46, 58
2, 274007, Note_on_c, 0, 41, 0
2, 274010, Note_on_c, 0, 58, 78
2, 274016, Note_on_c, 0, 70, 79
2, 274129, Control_c, 0, 64, 91
2, 274149, Control_c, 0, 64, 68
2, 274168, Control_c, 0, 64, 39
2, 274187, Control_c, 0, 64, 0
2, 274411, Note_on_c, 0, 45, 54
2, 274424, Note_on_c, 0, 46, 0
2, 274813, Note_on_c, 0, 65, 74
2, 274819, Note_on_c, 0, 46, 51
2, 274830, Note_on_c, 0, 45, 0
2, 274845, Note_on_c, 0, 58, 0
2, 274955, Control_c, 0, 64, 61
2, 274974, Control_c, 0, 64, 67
2, 274994, Control_c, 0, 64, 72
2, 275012, Control_c, 0, 64, 80
2, 275033, Control_c, 0, 64, 90
2, 275052, Control_c, 0, 64, 106
2, 275071, Control_c, 0, 64, 127
2, 275120, Note_on_c, 0, 70, 0
2, 275159, Note_on_c, 0, 46, 0
2, 275179, Note_on_c, 0, 48, 55
2, 275593, Note_on_c, 0, 70, 84
2, 275600, Note_on_c, 0, 49, 60
2, 275609, Control_c, 0, 64, 101
2, 275612, Note_on_c, 0, 48, 0
2, 275628, Control_c, 0, 64, 72
2, 275647, Control_c, 0, 64, 41
2, 275667, Control_c, 0, 64, 0
2, 275743, Control_c, 0, 64, 54
2, 275762, Control_c, 0, 64, 64
2, 275781, Control_c, 0, 64, 71
2, 275801, Control_c, 0, 64, 85
2, 275820, Control_c, 0, 64, 127
2, 275955, Control_c, 0, 64, 90
2, 275973, Control_c, 0, 64, 70
2, 275980, Note_on_c, 0, 49, 0
2, 275987, Note_on_c, 0, 48, 53
2, 275992, Control_c, 0, 64, 58
2, 275996, Note_on_c, 0, 66, 76
2, 276011, Control_c, 0, 64, 51
2, 276030, Control_c, 0, 64, 57
2, 276042, Note_on_c, 0, 65, 0
2, 276049, Control_c, 0, 64, 63
2, 276064, Note_on_c, 0, 70, 0
2, 276069, Control_c, 0, 64, 69
2, 276087, Note_on_c, 0, 66, 0
2, 276088, Control_c, 0, 64, 78
2, 276107, Control_c, 0, 64, 96
2, 276126, Control_c, 0, 64, 127
2, 276357, Control_c, 0, 64, 103
2, 276374, Note_on_c, 0, 49, 63
2, 276375, Control_c, 0, 64, 75
2, 276390, Note_on_c, 0, 77, 77
2, 276395, Control_c, 0, 64, 60
2, 276398, Note_on_c, 0, 65, 64
2, 276399, Note_on_c, 0, 48, 0
2, 276414, Control_c, 0, 64, 17
2, 276434, Control_c, 0, 64, 0
2, 276452, Control_c, 0, 64, 37
2, 276471, Note_on_c, 0, 49, 0
2, 276472, Control_c, 0, 64, 61
2, 276491, Control_c, 0, 64, 67
2, 276510, Control_c, 0, 64, 75
2, 276529, Control_c, 0, 64, 90
2, 276549, Control_c, 0, 64, 118
2, 276568, Control_c, 0, 64, 127
2, 276770, Note_on_c, 0, 63, 73
2, 276775, Note_on_c, 0, 51, 58
2, 276779, Control_c, 0, 64, 96
2, 276798, Control_c, 0, 64, 71
2, 276817, Control_c, 0, 64, 54
2, 276837, Control_c, 0, 64, 0
2, 276875, Control_c, 0, 64, 28
2, 276894, Control_c, 0, 64, 61
2, 276914, Control_c, 0, 64, 67
2, 276924, Note_on_c, 0, 63, 0
2, 276932, Control_c, 0, 64, 76
2, 276951, Control_c, 0, 64, 93
2, 276970, Control_c, 0, 64, 127
2, 277096, Note_on_c, 0, 65, 0
2, 277124, Note_on_c, 0, 51, 0
2, 277161, Note_on_c, 0, 53, 58
2, 277162, Control_c, 0, 64, 92
2, 277169, Note_on_c, 0, 61, 71
2, 277181, Control_c, 0, 64, 70
2, 277200, Control_c, 0, 64, 55
2, 277219, Control_c, 0, 64, 25
2, 277239, Control_c, 0, 64, 32
2, 277258, Control_c, 0, 64, 54
2, 277277, Control_c, 0, 64, 64
2, 277296, Control_c, 0, 64, 71
2, 277317, Control_c, 0, 64, 84
2, 277335, Control_c, 0, 64, 115
2, 277340, Note_on_c, 0, 61, 0
2, 277355, Control_c, 0, 64, 127
2, 277528, Control_c, 0, 64, 111
2, 277545, Note_on_c, 0, 78, 84
2, 277547, Control_c, 0, 64, 78
2, 277552, Note_on_c, 0, 51, 60
2, 277553, Note_on_c, 0, 53, 0
2, 277566, Control_c, 0, 64, 61
2, 277566, Note_on_c, 0, 63, 61
2, 277585, Control_c, 0, 64, 40
2, 277589, Note_on_c, 0, 77, 0
2, 277605, Control_c, 0, 64, 44
2, 277623, Control_c, 0, 64, 57
2, 277643, Control_c, 0, 64, 64
2, 277662, Control_c, 0, 64, 70
2, 277681, Control_c, 0, 64, 83
2, 277700, Control_c, 0, 64, 112
2, 277707, Note_on_c, 0, 78, 0
2, 277720, Control_c, 0, 64, 127
2, 277815, Note_on_c, 0, 63, 0
2, 277938, Note_on_c, 0, 49, 60
2, 277955, Note_on_c, 0, 77, 79
2, 277965, Note_on_c, 0, 65, 62
2, 277989, Control_c, 0, 64, 111
2, 277992, Note_on_c, 0, 51, 0
2, 278008, Control_c, 0, 64, 76
2, 278027, Control_c, 0, 64, 58
2, 278046, Control_c, 0, 64, 0
2, 278103, Control_c, 0, 64, 38
2, 278123, Control_c, 0, 64, 62
2, 278142, Control_c, 0, 64, 67
2, 278161, Control_c, 0, 64, 73
2, 278180, Control_c, 0, 64, 84
2, 278200, Control_c, 0, 64, 99
2, 278219, Control_c, 0, 64, 127
2, 278317, Note_on_c, 0, 51, 59
2, 278325, Note_on_c, 0, 75, 80
2, 278344, Note_on_c, 0, 65, 0
2, 278391, Control_c, 0, 64, 82
2, 278393, Note_on_c, 0, 77, 0
2, 278410, Control_c, 0, 64, 64
2, 278418, Note_on_c, 0, 49, 0
2, 278430, Control_c, 0, 64, 0
2, 278475, Note_on_c, 0, 53, 70
2, 278506, Note_on_c, 0, 51, 0
2, 278697, Note_on_c, 0, 54, 61
2, 278699, Note_on_c, 0, 53, 0
2, 278700, Note_on_c, 0, 73, 77
2, 278704, Note_on_c, 0, 58, 63
2, 278760, Note_on_c, 0, 75, 0
2, 278879, Note_on_c, 0, 53, 62
2, 278915, Note_on_c, 0, 54, 0
2, 279078, Note_on_c, 0, 54, 63
2, 279084, Note_on_c, 0, 75, 80
2, 279091, Note_on_c, 0, 53, 0
2, 279143, Note_on_c, 0, 73, 0
2, 279426, Note_on_c, 0, 54, 0
2, 279465, Note_on_c, 0, 45, 54
2, 279474, Note_on_c, 0, 77, 79
2, 279510, Note_on_c, 0, 75, 0
2, 279562, Control_c, 0, 64, 51
2, 279581, Control_c, 0, 64, 63
2, 279600, Control_c, 0, 64, 66
2, 279619, Control_c, 0, 64, 68
2, 279639, Control_c, 0, 64, 74
2, 279658, Control_c, 0, 64, 80
2, 279677, Control_c, 0, 64, 88
2, 279696, Control_c, 0, 64, 99
2, 279716, Control_c, 0, 64, 119
2, 279735, Control_c, 0, 64, 127
2, 279838, Note_on_c, 0, 58, 0
2, 279863, Note_on_c, 0, 63, 74
2, 279908, Control_c, 0, 64, 95
2, 279927, Control_c, 0, 64, 73
2, 279945, Control_c, 0, 64, 59
2, 279965, Control_c, 0, 64, 0
2, 280271, Note_on_c, 0, 46, 56
2, 280272, Note_on_c, 0, 70, 76
2, 280275, Note_on_c, 0, 45, 0
2, 280331, Control_c, 0, 64, 38
2, 280350, Control_c, 0, 64, 63
2, 280369, Control_c, 0, 64, 67
2, 280389, Control_c, 0, 64, 72
2, 280408, Control_c, 0, 64, 78
2, 280426, Control_c, 0, 64, 86
2, 280446, Control_c, 0, 64, 96
2, 280465, Control_c, 0, 64, 127
2, 280660, Note_on_c, 0, 61, 72
2, 280681, Note_on_c, 0, 46, 0
2, 280751, Note_on_c, 0, 61, 0
2, 281025, Note_on_c, 0, 60, 67
2, 281037, Note_on_c, 0, 48, 57
2, 281059, Control_c, 0, 64, 95
2, 281079, Control_c, 0, 64, 68
2, 281098, Control_c, 0, 64, 0
2, 281194, Control_c, 0, 64, 33
2, 281213, Control_c, 0, 64, 61
2, 281233, Control_c, 0, 64, 69
2, 281251, Control_c, 0, 64, 80
2, 281271, Control_c, 0, 64, 108
2, 281290, Control_c, 0, 64, 127
2, 281384, Note_on_c, 0, 60, 0
2, 281430, Note_on_c, 0, 75, 77
2, 281439, Note_on_c, 0, 77, 0
2, 281779, Note_on_c, 0, 48, 0
2, 281808, Note_on_c, 0, 58, 68
2, 281817, Note_on_c, 0, 49, 57
2, 281865, Control_c, 0, 64, 81
2, 281885, Control_c, 0, 64, 63
2, 281904, Control_c, 0, 64, 0
2, 281962, Control_c, 0, 64, 23
2, 281981, Control_c, 0, 64, 60
2, 282000, Control_c, 0, 64, 67
2, 282019, Control_c, 0, 64, 74
2, 282039, Control_c, 0, 64, 87
2, 282058, Control_c, 0, 64, 104
2, 282077, Control_c, 0, 64, 127
2, 282180, Note_on_c, 0, 46, 57
2, 282198, Note_on_c, 0, 73, 79
2, 282244, Note_on_c, 0, 49, 0
2, 282263, Note_on_c, 0, 70, 0
2, 282267, Control_c, 0, 64, 116
2, 282282, Note_on_c, 0, 63, 0
2, 282285, Control_c, 0, 64, 85
2, 282305, Control_c, 0, 64, 68
2, 282324, Control_c, 0, 64, 47
2, 282343, Control_c, 0, 64, 0
2, 282368, Note_on_c, 0, 75, 0
2, 282573, Note_on_c, 0, 53, 53
2, 282597, Note_on_c, 0, 72, 79
2, 282654, Note_on_c, 0, 46, 0
2, 282658, Note_on_c, 0, 73, 0
2, 282993, Note_on_c, 0, 51, 55
2, 282996, Note_on_c, 0, 68, 81
2, 283374, Note_on_c, 0, 51, 0
2, 283384, Note_on_c, 0, 50, 52
2, 283392, Note_on_c, 0, 70, 77
2, 283399, Control_c, 0, 64, 48
2, 283419, Control_c, 0, 64, 59
2, 283434, Note_on_c, 0, 53, 0
2, 283437, Control_c, 0, 64, 64
2, 283457, Control_c, 0, 64, 67
2, 283476, Control_c, 0, 64, 71
2, 283495, Control_c, 0, 64, 78
2, 283514, Control_c, 0, 64, 85
2, 283521, Note_on_c, 0, 68, 0
2, 283533, Control_c, 0, 64, 90
2, 283553, Control_c, 0, 64, 91
2, 283572, Control_c, 0, 64, 89
2, 283591, Control_c, 0, 64, 83
2, 283610, Control_c, 0, 64, 77
2, 283630, Control_c, 0, 64, 74
2, 283648, Control_c, 0, 64, 76
2, 283668, Control_c, 0, 64, 79
2, 283687, Control_c, 0, 64, 84
2, 283707, Control_c, 0, 64, 92
2, 283725, Control_c, 0, 64, 112
2, 283745, Control_c, 0, 64, 127
2, 283757, Note_on_c, 0, 51, 58
2, 283767, Note_on_c, 0, 50, 0
2, 283773, Note_on_c, 0, 66, 77
2, 283841, Control_c, 0, 64, 83
2, 283860, Control_c, 0, 64, 64
2, 283879, Control_c, 0, 64, 0
2, 283908, Note_on_c, 0, 70, 0
2, 283910, Note_on_c, 0, 72, 0
2, 283975, Control_c, 0, 64, 53
2, 283994, Control_c, 0, 64, 64
2, 284013, Control_c, 0, 64, 69
2, 284034, Control_c, 0, 64, 79
2, 284052, Control_c, 0, 64, 94
2, 284072, Control_c, 0, 64, 127
2, 284168, Note_on_c, 0, 65, 71
2, 284192, Note_on_c, 0, 66, 0
2, 284218, Note_on_c, 0, 58, 0
2, 284222, Note_on_c, 0, 65, 0
2, 284555, Note_on_c, 0, 51, 0
2, 284562, Note_on_c, 0, 50, 60
2, 284578, Note_on_c, 0, 80, 83
2, 284627, Note_on_c, 0, 50, 0
2, 284944, Note_on_c, 0, 51, 66
2, 284958, Note_on_c, 0, 63, 75
2, 284975, Control_c, 0, 64, 77
2, 284995, Control_c, 0, 64, 48
2, 285013, Control_c, 0, 64, 0
2, 285090, Control_c, 0, 64, 46
2, 285110, Control_c, 0, 64, 62
2, 285129, Control_c, 0, 64, 68
2, 285148, Control_c, 0, 64, 75
2, 285167, Control_c, 0, 64, 85
2, 285187, Control_c, 0, 64, 95
2, 285206, Control_c, 0, 64, 105
2, 285225, Control_c, 0, 64, 121
2, 285244, Control_c, 0, 64, 127
2, 285312, Note_on_c, 0, 60, 54
2, 285328, Note_on_c, 0, 78, 82
2, 285359, Control_c, 0, 64, 109
2, 285379, Control_c, 0, 64, 80
2, 285398, Control_c, 0, 64, 64
2, 285410, Note_on_c, 0, 80, 0
2, 285418, Control_c, 0, 64, 0
2, 285475, Control_c, 0, 64, 9
2, 285493, Control_c, 0, 64, 54
2, 285513, Control_c, 0, 64, 64
2, 285532, Control_c, 0, 64, 69
2, 285552, Control_c, 0, 64, 79
2, 285570, Control_c, 0, 64, 90
2, 285590, Control_c, 0, 64, 102
2, 285609, Control_c, 0, 64, 123
2, 285628, Control_c, 0, 64, 127
2, 285706, Note_on_c, 0, 63, 0
2, 285717, Note_on_c, 0, 57, 56
2, 285726, Note_on_c, 0, 77, 80
2, 285744, Control_c, 0, 64, 91
2, 285748, Note_on_c, 0, 51, 0
2, 285750, Note_on_c, 0, 60, 0
2, 285762, Control_c, 0, 64, 71
2, 285782, Control_c, 0, 64, 58
2, 285794, Note_on_c, 0, 78, 0
2, 285801, Control_c, 0, 64, 0
2, 285839, Control_c, 0, 64, 22
2, 285859, Control_c, 0, 64, 53
2, 285878, Control_c, 0, 64, 63
2, 285898, Control_c, 0, 64, 66
2, 285916, Control_c, 0, 64, 69
2, 285935, Control_c, 0, 64, 74
2, 285956, Control_c, 0, 64, 80
2, 285974, Control_c, 0, 64, 88
2, 285994, Control_c, 0, 64, 96
2, 286013, Control_c, 0, 64, 104
2, 286032, Control_c, 0, 64, 110
2, 286051, Control_c, 0, 64, 111
2, 286071, Control_c, 0, 64, 107
2, 286090, Control_c, 0, 64, 93
2, 286108, Note_on_c, 0, 61, 67
2, 286109, Control_c, 0, 64, 72
2, 286110, Note_on_c, 0, 58, 62
2, 286117, Note_on_c, 0, 57, 0
2, 286128, Control_c, 0, 64, 57
2, 286148, Control_c, 0, 64, 0
2, 286225, Control_c, 0, 64, 37
2, 286243, Control_c, 0, 64, 59
2, 286263, Control_c, 0, 64, 64
2, 286282, Control_c, 0, 64, 67
2, 286302, Control_c, 0, 64, 70
2, 286320, Control_c, 0, 64, 75
2, 286340, Control_c, 0, 64, 81
2, 286359, Control_c, 0, 64, 89
2, 286378, Control_c, 0, 64, 101
2, 286397, Control_c, 0, 64, 121
2, 286416, Control_c, 0, 64, 127
2, 286474, Control_c, 0, 64, 121
2, 286475, Note_on_c, 0, 54, 61
2, 286485, Note_on_c, 0, 70, 80
2, 286493, Control_c, 0, 64, 91
2, 286512, Control_c, 0, 64, 70
2, 286531, Control_c, 0, 64, 56
2, 286550, Control_c, 0, 64, 0
2, 286601, Note_on_c, 0, 77, 0
2, 286607, Control_c, 0, 64, 41
2, 286627, Control_c, 0, 64, 59
2, 286646, Control_c, 0, 64, 64
2, 286665, Control_c, 0, 64, 67
2, 286668, Note_on_c, 0, 75, 77
2, 286684, Control_c, 0, 64, 72
2, 286704, Control_c, 0, 64, 80
2, 286716, Note_on_c, 0, 70, 0
2, 286722, Control_c, 0, 64, 89
2, 286742, Control_c, 0, 64, 101
2, 286761, Control_c, 0, 64, 127
2, 286855, Note_on_c, 0, 53, 65
2, 286855, Note_on_c, 0, 75, 0
2, 286858, Control_c, 0, 64, 98
2, 286861, Note_on_c, 0, 77, 80
2, 286871, Note_on_c, 0, 54, 0
2, 286873, Note_on_c, 0, 69, 71
2, 286876, Control_c, 0, 64, 75
2, 286895, Control_c, 0, 64, 61
2, 286912, Note_on_c, 0, 61, 0
2, 286915, Control_c, 0, 64, 21
2, 286921, Note_on_c, 0, 58, 0
2, 286933, Control_c, 0, 64, 0
2, 286953, Control_c, 0, 64, 26
2, 286968, Note_on_c, 0, 69, 0
2, 286972, Control_c, 0, 64, 54
2, 286992, Control_c, 0, 64, 63
2, 287010, Control_c, 0, 64, 67
2, 287030, Control_c, 0, 64, 71
2, 287031, Note_on_c, 0, 78, 79
2, 287048, Note_on_c, 0, 77, 0
2, 287049, Control_c, 0, 64, 77
2, 287068, Control_c, 0, 64, 85
2, 287087, Control_c, 0, 64, 92
2, 287107, Control_c, 0, 64, 98
2, 287126, Control_c, 0, 64, 104
2, 287145, Control_c, 0, 64, 112
2, 287164, Control_c, 0, 64, 127
2, 287222, Control_c, 0, 64, 116
2, 287240, Note_on_c, 0, 77, 75
2, 287241, Control_c, 0, 64, 93
2, 287249, Note_on_c, 0, 54, 63
2, 287255, Note_on_c, 0, 70, 63
2, 287256, Note_on_c, 0, 78, 0
2, 287261, Control_c, 0, 64, 74
2, 287268, Note_on_c, 0, 53, 0
2, 287279, Control_c, 0, 64, 61
2, 287299, Control_c, 0, 64, 0
2, 287313, Note_on_c, 0, 77, 0
2, 287315, Note_on_c, 0, 75, 76
2, 287382, Note_on_c, 0, 75, 0
2, 287384, Note_on_c, 0, 77, 72
2, 287433, Control_c, 0, 64, 34
2, 287452, Control_c, 0, 64, 60
2, 287459, Note_on_c, 0, 77, 0
2, 287465, Note_on_c, 0, 75, 68
2, 287472, Control_c, 0, 64, 66
2, 287490, Control_c, 0, 64, 69
2, 287503, Note_on_c, 0, 75, 0
2, 287509, Control_c, 0, 64, 73
2, 287510, Note_on_c, 0, 77, 69
2, 287528, Control_c, 0, 64, 76
2, 287548, Control_c, 0, 64, 74
2, 287566, Control_c, 0, 64, 66
2, 287582, Note_on_c, 0, 75, 84
2, 287586, Control_c, 0, 64, 47
2, 287603, Note_on_c, 0, 77, 0
2, 287605, Control_c, 0, 64, 0
2, 287701, Control_c, 0, 64, 43
2, 287720, Control_c, 0, 64, 62
2, 287740, Control_c, 0, 64, 67
2, 287758, Control_c, 0, 64, 75
2, 287778, Control_c, 0, 64, 86
2, 287797, Control_c, 0, 64, 104
2, 287804, Note_on_c, 0, 70, 0
2, 287816, Control_c, 0, 64, 127
2, 287831, Note_on_c, 0, 54, 0
2, 287852, Note_on_c, 0, 77, 86
2, 287874, Note_on_c, 0, 75, 0
2, 287942, Note_on_c, 0, 77, 0
2, 288123, Control_c, 0, 64, 119
2, 288127, Note_on_c, 0, 53, 65
2, 288131, Note_on_c, 0, 77, 85
2, 288143, Control_c, 0, 64, 76
2, 288143, Note_on_c, 0, 69, 73
2, 288162, Control_c, 0, 64, 34
2, 288181, Control_c, 0, 64, 0
2, 288296, Control_c, 0, 64, 62
2, 288315, Control_c, 0, 64, 68
2, 288334, Control_c, 0, 64, 76
2, 288354, Control_c, 0, 64, 90
2, 288372, Control_c, 0, 64, 117
2, 288392, Control_c, 0, 64, 127
2, 288399, Note_on_c, 0, 69, 0
2, 288913, Note_on_c, 0, 53, 0
2, 288979, Note_on_c, 0, 82, 87
2, 288997, Note_on_c, 0, 70, 67
2, 289009, Note_on_c, 0, 77, 0
2, 289199, Control_c, 0, 64, 108
2, 289219, Control_c, 0, 64, 80
2, 289238, Control_c, 0, 64, 64
2, 289258, Control_c, 0, 64, 0
2, 289797, Note_on_c, 0, 54, 66
2, 289811, Note_on_c, 0, 75, 71
2, 289850, Control_c, 0, 64, 22
2, 289870, Control_c, 0, 64, 59
2, 289888, Control_c, 0, 64, 65
2, 289908, Control_c, 0, 64, 69
2, 289927, Control_c, 0, 64, 74
2, 289932, Note_on_c, 0, 70, 0
2, 289947, Control_c, 0, 64, 83
2, 289965, Control_c, 0, 64, 94
2, 289978, Note_on_c, 0, 82, 0
2, 289985, Control_c, 0, 64, 112
2, 290004, Control_c, 0, 64, 127
2, 290202, Note_on_c, 0, 83, 82
2, 290227, Note_on_c, 0, 75, 0
2, 290576, Note_on_c, 0, 82, 82
2, 290579, Note_on_c, 0, 59, 64
2, 290599, Control_c, 0, 64, 84
2, 290619, Control_c, 0, 64, 66
2, 290626, Note_on_c, 0, 83, 0
2, 290637, Control_c, 0, 64, 27
2, 290656, Control_c, 0, 64, 0
2, 290659, Note_on_c, 0, 54, 0
2, 290695, Control_c, 0, 64, 9
2, 290714, Control_c, 0, 64, 53
2, 290733, Control_c, 0, 64, 63
2, 290753, Control_c, 0, 64, 66
2, 290772, Control_c, 0, 64, 70
2, 290791, Control_c, 0, 64, 75
2, 290810, Control_c, 0, 64, 80
2, 290830, Control_c, 0, 64, 85
2, 290848, Control_c, 0, 64, 89
2, 290868, Control_c, 0, 64, 92
2, 290887, Control_c, 0, 64, 95
2, 290907, Control_c, 0, 64, 97
2, 290925, Control_c, 0, 64, 99
2, 290945, Control_c, 0, 64, 100
2, 290961, Note_on_c, 0, 80, 80
2, 290981, Note_on_c, 0, 77, 73
2, 290985, Control_c, 0, 64, 97
2, 291000, Note_on_c, 0, 82, 0
2, 291005, Control_c, 0, 64, 88
2, 291024, Control_c, 0, 64, 75
2, 291044, Control_c, 0, 64, 64
2, 291062, Control_c, 0, 64, 21
2, 291082, Control_c, 0, 64, 0
2, 291366, Note_on_c, 0, 79, 80
2, 291369, Note_on_c, 0, 77, 0
2, 291376, Note_on_c, 0, 75, 69
2, 291405, Note_on_c, 0, 80, 0
2, 291769, Note_on_c, 0, 80, 76
2, 291775, Note_on_c, 0, 61, 60
2, 291795, Note_on_c, 0, 59, 0
2, 291842, Note_on_c, 0, 79, 0
2, 292170, Note_on_c, 0, 59, 62
2, 292175, Note_on_c, 0, 82, 80
2, 292231, Note_on_c, 0, 61, 0
2, 292245, Note_on_c, 0, 80, 0
2, 292574, Note_on_c, 0, 73, 70
2, 292578, Note_on_c, 0, 58, 52
2, 292593, Note_on_c, 0, 75, 0
2, 292621, Note_on_c, 0, 59, 0
2, 292830, Control_c, 0, 64, 11
2, 292848, Control_c, 0, 64, 15
2, 292867, Control_c, 0, 64, 17
2, 292982, Note_on_c, 0, 75, 75
2, 292991, Note_on_c, 0, 56, 54
2, 292991, Note_on_c, 0, 72, 65
2, 293016, Note_on_c, 0, 73, 0
2, 293018, Note_on_c, 0, 58, 0
2, 293030, Note_on_c, 0, 82, 0
2, 293040, Control_c, 0, 64, 18
2, 293233, Control_c, 0, 64, 19
2, 293369, Note_on_c, 0, 56, 0
2, 293373, Note_on_c, 0, 55, 62
2, 293483, Control_c, 0, 64, 18
2, 293502, Control_c, 0, 64, 17
2, 293521, Control_c, 0, 64, 15
2, 293540, Control_c, 0, 64, 13
2, 293731, Control_c, 0, 64, 11
2, 293770, Control_c, 0, 64, 9
2, 293775, Note_on_c, 0, 80, 81
2, 293800, Note_on_c, 0, 56, 53
2, 293808, Control_c, 0, 64, 0
2, 293819, Note_on_c, 0, 55, 0
2, 294174, Note_on_c, 0, 58, 57
2, 294176, Note_on_c, 0, 73, 76
2, 294193, Note_on_c, 0, 56, 0
2, 294224, Note_on_c, 0, 72, 0
2, 294226, Note_on_c, 0, 75, 0
2, 294600, Note_on_c, 0, 75, 81
2, 294605, Note_on_c, 0, 60, 56
2, 294626, Note_on_c, 0, 58, 0
2, 294906, Note_on_c, 0, 80, 0
2, 294980, Note_on_c, 0, 78, 76
2, 295003, Note_on_c, 0, 75, 0
2, 295330, Note_on_c, 0, 73, 0
2, 295373, Note_on_c, 0, 77, 72
2, 295382, Note_on_c, 0, 68, 63
2, 295383, Note_on_c, 0, 61, 50
2, 295415, Note_on_c, 0, 60, 0
2, 295422, Control_c, 0, 64, 9
2, 295460, Control_c, 0, 64, 11
2, 295466, Note_on_c, 0, 78, 0
2, 295612, Control_c, 0, 64, 13
2, 295650, Control_c, 0, 64, 15
2, 295765, Note_on_c, 0, 61, 0
2, 295775, Note_on_c, 0, 59, 64
2, 295804, Control_c, 0, 64, 17
2, 296015, Control_c, 0, 64, 18
2, 296170, Note_on_c, 0, 73, 75
2, 296172, Note_on_c, 0, 58, 48
2, 296225, Note_on_c, 0, 59, 0
2, 296226, Control_c, 0, 64, 19
2, 296265, Control_c, 0, 64, 20
2, 296555, Note_on_c, 0, 56, 60
2, 296596, Note_on_c, 0, 58, 0
2, 296629, Control_c, 0, 64, 21
2, 296745, Control_c, 0, 64, 22
2, 296803, Control_c, 0, 64, 23
2, 296841, Control_c, 0, 64, 24
2, 296947, Note_on_c, 0, 55, 53
2, 296966, Note_on_c, 0, 56, 0
2, 296970, Note_on_c, 0, 75, 73
2, 297031, Note_on_c, 0, 77, 0
2, 297052, Control_c, 0, 64, 25
2, 297283, Control_c, 0, 64, 24
2, 297301, Control_c, 0, 64, 23
2, 297307, Note_on_c, 0, 73, 0
2, 297321, Control_c, 0, 64, 22
2, 297336, Note_on_c, 0, 51, 51
2, 297340, Control_c, 0, 64, 21
2, 297360, Control_c, 0, 64, 20
2, 297375, Note_on_c, 0, 55, 0
2, 297398, Control_c, 0, 64, 19
2, 297436, Control_c, 0, 64, 18
2, 297475, Control_c, 0, 64, 17
2, 297494, Control_c, 0, 64, 15
2, 297513, Control_c, 0, 64, 13
2, 297552, Control_c, 0, 64, 11
2, 297666, Control_c, 0, 64, 9
2, 297705, Control_c, 0, 64, 0
2, 297764, Note_on_c, 0, 56, 45
2, 297793, Note_on_c, 0, 72, 66
2, 297831, Note_on_c, 0, 51, 0
2, 298159, Note_on_c, 0, 56, 0
2, 298170, Note_on_c, 0, 58, 47
2, 298557, Note_on_c, 0, 56, 43
2, 298567, Note_on_c, 0, 80, 63
2, 298591, Note_on_c, 0, 58, 0
2, 298905, Note_on_c, 0, 68, 0
2, 298940, Note_on_c, 0, 54, 43
2, 298955, Note_on_c, 0, 56, 0
2, 299011, Control_c, 0, 64, 45
2, 299031, Control_c, 0, 64, 60
2, 299050, Control_c, 0, 64, 64
2, 299069, Control_c, 0, 64, 67
2, 299088, Control_c, 0, 64, 70
2, 299107, Control_c, 0, 64, 75
2, 299127, Control_c, 0, 64, 81
2, 299145, Control_c, 0, 64, 86
2, 299165, Control_c, 0, 64, 91
2, 299184, Control_c, 0, 64, 95
2, 299204, Control_c, 0, 64, 98
2, 299222, Control_c, 0, 64, 103
2, 299242, Control_c, 0, 64, 110
2, 299261, Control_c, 0, 64, 123
2, 299281, Control_c, 0, 64, 127
2, 299313, Note_on_c, 0, 72, 0
2, 299341, Note_on_c, 0, 54, 0
2, 299346, Note_on_c, 0, 75, 0
2, 299348, Note_on_c, 0, 53, 45
2, 299350, Note_on_c, 0, 68, 63
2, 299376, Control_c, 0, 64, 115
2, 299396, Control_c, 0, 64, 93
2, 299415, Control_c, 0, 64, 75
2, 299434, Control_c, 0, 64, 62
2, 299453, Control_c, 0, 64, 0
2, 299530, Control_c, 0, 64, 31
2, 299549, Control_c, 0, 64, 56
2, 299568, Control_c, 0, 64, 63
2, 299587, Control_c, 0, 64, 66
2, 299607, Control_c, 0, 64, 68
2, 299625, Control_c, 0, 64, 71
2, 299645, Control_c, 0, 64, 75
2, 299664, Control_c, 0, 64, 79
2, 299684, Control_c, 0, 64, 84
2, 299702, Control_c, 0, 64, 88
2, 299709, Note_on_c, 0, 54, 40
2, 299722, Control_c, 0, 64, 91
2, 299740, Note_on_c, 0, 82, 66
2, 299761, Control_c, 0, 64, 90
2, 299761, Note_on_c, 0, 80, 0
2, 299765, Note_on_c, 0, 53, 0
2, 299779, Control_c, 0, 64, 86
2, 299799, Control_c, 0, 64, 77
2, 299818, Control_c, 0, 64, 67
2, 299837, Control_c, 0, 64, 56
2, 299856, Control_c, 0, 64, 0
2, 300114, Note_on_c, 0, 54, 0
2, 300127, Note_on_c, 0, 73, 52
2, 300131, Note_on_c, 0, 80, 62
2, 300134, Note_on_c, 0, 53, 42
2, 300136, Note_on_c, 0, 82, 0
2, 300187, Note_on_c, 0, 68, 0
2, 300524, Note_on_c, 0, 51, 38
2, 300524, Note_on_c, 0, 78, 54
2, 300554, Note_on_c, 0, 53, 0
2, 300586, Note_on_c, 0, 80, 0
2, 300922, Note_on_c, 0, 77, 51
2, 300939, Note_on_c, 0, 49, 41
2, 300984, Note_on_c, 0, 51, 0
2, 300984, Note_on_c, 0, 78, 0
2, 301321, Note_on_c, 0, 59, 39
2, 301329, Note_on_c, 0, 78, 59
2, 301343, Note_on_c, 0, 75, 52
2, 301357, Note_on_c, 0, 73, 0
2, 301360, Note_on_c, 0, 49, 0
2, 301362, Note_on_c, 0, 77, 0
2, 301703, Note_on_c, 0, 58, 44
2, 301715, Note_on_c, 0, 80, 68
2, 301722, Note_on_c, 0, 73, 50
2, 301727, Note_on_c, 0, 59, 0
2, 301746, Note_on_c, 0, 75, 0
2, 301758, Note_on_c, 0, 78, 0
2, 302077, Note_on_c, 0, 56, 44
2, 302112, Note_on_c, 0, 58, 0
2, 302112, Note_on_c, 0, 73, 0
2, 302117, Note_on_c, 0, 71, 59
2, 302488, Note_on_c, 0, 54, 43
2, 302499, Note_on_c, 0, 73, 60
2, 302506, Note_on_c, 0, 70, 60
2, 302513, Note_on_c, 0, 56, 0
2, 302521, Note_on_c, 0, 80, 0
2, 302533, Note_on_c, 0, 71, 0
2, 302856, Note_on_c, 0, 54, 0
2, 302865, Note_on_c, 0, 56, 59
2, 302906, Note_on_c, 0, 71, 53
2, 302907, Note_on_c, 0, 70, 0
2, 303190, Note_on_c, 0, 73, 0
2, 303284, Note_on_c, 0, 54, 44
2, 303301, Note_on_c, 0, 56, 0
2, 303301, Note_on_c, 0, 78, 64
2, 303316, Note_on_c, 0, 73, 62
2, 303338, Note_on_c, 0, 71, 0
2, 303643, Note_on_c, 0, 54, 0
2, 303664, Note_on_c, 0, 52, 52
2, 304078, Note_on_c, 0, 51, 48
2, 304079, Note_on_c, 0, 66, 63
2, 304096, Note_on_c, 0, 52, 0
2, 304420, Note_on_c, 0, 78, 0
2, 304455, Note_on_c, 0, 49, 53
2, 304459, Note_on_c, 0, 76, 74
2, 304478, Note_on_c, 0, 73, 0
2, 304485, Note_on_c, 0, 51, 0
2, 304794, Note_on_c, 0, 66, 0
2, 304840, Note_on_c, 0, 47, 46
2, 304844, Note_on_c, 0, 49, 0
2, 304860, Note_on_c, 0, 75, 70
2, 304865, Note_on_c, 0, 76, 0
2, 304869, Note_on_c, 0, 71, 60
2, 305156, Control_c, 0, 64, 9
2, 305248, Note_on_c, 0, 80, 74
2, 305249, Note_on_c, 0, 44, 42
2, 305270, Control_c, 0, 64, 11
2, 305280, Note_on_c, 0, 47, 0
2, 305316, Note_on_c, 0, 75, 0
2, 305597, Control_c, 0, 64, 9
2, 305633, Note_on_c, 0, 73, 71
2, 305636, Control_c, 0, 64, 0
2, 305642, Note_on_c, 0, 46, 47
2, 305647, Note_on_c, 0, 44, 0
2, 305699, Note_on_c, 0, 71, 0
2, 305708, Note_on_c, 0, 80, 0
2, 306030, Note_on_c, 0, 78, 69
2, 306034, Note_on_c, 0, 42, 38
2, 306034, Note_on_c, 0, 46, 0
2, 306035, Note_on_c, 0, 70, 58
2, 306081, Note_on_c, 0, 73, 0
2, 306440, Note_on_c, 0, 68, 57
2, 306452, Note_on_c, 0, 49, 37
2, 306462, Note_on_c, 0, 42, 0
2, 306466, Note_on_c, 0, 70, 0
2, 306896, Note_on_c, 0, 37, 37
2, 306921, Note_on_c, 0, 77, 57
2, 306933, Note_on_c, 0, 49, 0
2, 306948, Note_on_c, 0, 78, 0
2, 307005, Note_on_c, 0, 68, 0
2, 307018, Control_c, 0, 64, 49
2, 307037, Control_c, 0, 64, 62
2, 307056, Control_c, 0, 64, 66
2, 307076, Control_c, 0, 64, 71
2, 307095, Control_c, 0, 64, 80
2, 307114, Control_c, 0, 64, 94
2, 307133, Control_c, 0, 64, 127
2, 307343, Note_on_c, 0, 37, 0
2, 307381, Note_on_c, 0, 77, 0
2, 307534, Note_on_c, 0, 42, 36
2, 307572, Note_on_c, 0, 78, 56
2, 307593, Note_on_c, 0, 66, 35
2, 307594, Control_c, 0, 64, 118
2, 307613, Control_c, 0, 64, 79
2, 307633, Control_c, 0, 64, 62
2, 307651, Control_c, 0, 64, 0
2, 307746, Control_c, 0, 64, 22
2, 307766, Control_c, 0, 64, 55
2, 307785, Control_c, 0, 64, 63
2, 307804, Control_c, 0, 64, 67
2, 307821, Note_on_c, 0, 66, 0
2, 307823, Control_c, 0, 64, 72
2, 307843, Control_c, 0, 64, 81
2, 307858, Note_on_c, 0, 78, 0
2, 307861, Control_c, 0, 64, 91
2, 307881, Control_c, 0, 64, 103
2, 307900, Control_c, 0, 64, 127
2, 308014, Note_on_c, 0, 65, 31
2, 308015, Note_on_c, 0, 42, 0
2, 308018, Note_on_c, 0, 44, 37
2, 308393, Note_on_c, 0, 46, 40
2, 308396, Note_on_c, 0, 73, 53
2, 308400, Control_c, 0, 64, 100
2, 308413, Note_on_c, 0, 66, 43
2, 308418, Control_c, 0, 64, 76
2, 308427, Note_on_c, 0, 44, 0
2, 308434, Note_on_c, 0, 65, 0
2, 308438, Control_c, 0, 64, 62
2, 308457, Control_c, 0, 64, 0
2, 308749, Note_on_c, 0, 66, 0
2, 308775, Note_on_c, 0, 44, 28
2, 308782, Note_on_c, 0, 68, 50
2, 308837, Note_on_c, 0, 46, 0
2, 309153, Note_on_c, 0, 42, 30
2, 309159, Note_on_c, 0, 70, 43
2, 309161, Note_on_c, 0, 68, 0
2, 309216, Note_on_c, 0, 44, 0
2, 309514, Note_on_c, 0, 70, 0
2, 309538, Note_on_c, 0, 72, 53
2, 309541, Note_on_c, 0, 54, 36
2, 309557, Note_on_c, 0, 42, 0
2, 309559, Note_on_c, 0, 73, 0
2, 309564, Note_on_c, 0, 68, 37
2, 309608, Control_c, 0, 64, 21
2, 309627, Control_c, 0, 64, 51
2, 309646, Control_c, 0, 64, 60
2, 309665, Control_c, 0, 64, 64
2, 309685, Control_c, 0, 64, 66
2, 309704, Control_c, 0, 64, 67
2, 309723, Control_c, 0, 64, 70
2, 309742, Control_c, 0, 64, 72
2, 309762, Control_c, 0, 64, 76
2, 309780, Control_c, 0, 64, 79
2, 309800, Control_c, 0, 64, 82
2, 309819, Control_c, 0, 64, 84
2, 309839, Control_c, 0, 64, 86
2, 309857, Control_c, 0, 64, 87
2, 309916, Control_c, 0, 64, 85
2, 309924, Note_on_c, 0, 54, 0
2, 309928, Note_on_c, 0, 73, 61
2, 309932, Note_on_c, 0, 72, 0
2, 309934, Control_c, 0, 64, 79
2, 309945, Note_on_c, 0, 53, 39
2, 309949, Note_on_c, 0, 70, 51
2, 309951, Note_on_c, 0, 68, 0
2, 309954, Control_c, 0, 64, 70
2, 309974, Control_c, 0, 64, 62
2, 309992, Control_c, 0, 64, 42
2, 310012, Control_c, 0, 64, 0
2, 310050, Control_c, 0, 64, 9
2, 310069, Control_c, 0, 64, 48
2, 310089, Control_c, 0, 64, 60
2, 310108, Control_c, 0, 64, 64
2, 310127, Control_c, 0, 64, 66
2, 310146, Control_c, 0, 64, 69
2, 310166, Control_c, 0, 64, 72
2, 310185, Control_c, 0, 64, 77
2, 310204, Control_c, 0, 64, 82
2, 310223, Control_c, 0, 64, 88
2, 310243, Control_c, 0, 64, 92
2, 310261, Control_c, 0, 64, 94
2, 310289, Note_on_c, 0, 51, 40
2, 310300, Control_c, 0, 64, 92
2, 310309, Note_on_c, 0, 75, 65
2, 310314, Note_on_c, 0, 73, 0
2, 310320, Control_c, 0, 64, 83
2, 310321, Note_on_c, 0, 72, 57
2, 310338, Control_c, 0, 64, 72
2, 310342, Note_on_c, 0, 70, 0
2, 310358, Control_c, 0, 64, 63
2, 310363, Note_on_c, 0, 53, 0
2, 310377, Control_c, 0, 64, 42
2, 310396, Control_c, 0, 64, 0
2, 310681, Note_on_c, 0, 75, 0
2, 310730, Note_on_c, 0, 73, 43
2, 310731, Note_on_c, 0, 77, 48
2, 310735, Note_on_c, 0, 49, 32
2, 310770, Note_on_c, 0, 51, 0
2, 310798, Note_on_c, 0, 72, 0
2, 311129, Note_on_c, 0, 75, 60
2, 311143, Note_on_c, 0, 71, 45
2, 311150, Note_on_c, 0, 73, 0
2, 311181, Note_on_c, 0, 77, 0
2, 311524, Note_on_c, 0, 54, 37
2, 311525, Note_on_c, 0, 73, 57
2, 311582, Note_on_c, 0, 75, 0
2, 311638, Note_on_c, 0, 49, 0
2, 311767, Note_on_c, 0, 71, 0
2, 311932, Note_on_c, 0, 70, 64
2, 312342, Note_on_c, 0, 80, 63
2, 312349, Note_on_c, 0, 70, 0
2, 312358, Note_on_c, 0, 71, 48
2, 312359, Note_on_c, 0, 73, 0
2, 312746, Note_on_c, 0, 70, 46
2, 312750, Note_on_c, 0, 71, 0
2, 313097, Note_on_c, 0, 70, 0
2, 313124, Note_on_c, 0, 73, 55
2, 313133, Note_on_c, 0, 68, 41
2, 313137, Note_on_c, 0, 53, 36
2, 313200, Note_on_c, 0, 54, 0
2, 313503, Note_on_c, 0, 71, 53
2, 313506, Note_on_c, 0, 68, 0
2, 313674, Note_on_c, 0, 80, 0
2, 313896, Note_on_c, 0, 54, 39
2, 313907, Note_on_c, 0, 70, 46
2, 313919, Note_on_c, 0, 71, 0
2, 313941, Note_on_c, 0, 73, 0
2, 313973, Note_on_c, 0, 53, 0
2, 314296, Note_on_c, 0, 53, 39
2, 314301, Note_on_c, 0, 75, 60
2, 314324, Note_on_c, 0, 54, 0
2, 314692, Note_on_c, 0, 77, 65
2, 314698, Note_on_c, 0, 51, 31
2, 314756, Note_on_c, 0, 53, 0
2, 314756, Note_on_c, 0, 75, 0
2, 315060, Note_on_c, 0, 50, 59
2, 315101, Note_on_c, 0, 51, 0
2, 315480, Note_on_c, 0, 78, 69
2, 315495, Note_on_c, 0, 51, 44
2, 315515, Note_on_c, 0, 50, 0
2, 315537, Note_on_c, 0, 77, 0
2, 315861, Note_on_c, 0, 72, 46
2, 316241, Note_on_c, 0, 46, 45
2, 316252, Note_on_c, 0, 73, 50
2, 316299, Note_on_c, 0, 72, 0
2, 316308, Note_on_c, 0, 51, 0
2, 316353, Note_on_c, 0, 70, 0
2, 316627, Note_on_c, 0, 75, 60
2, 316635, Note_on_c, 0, 48, 51
2, 316666, Note_on_c, 0, 46, 0
2, 316709, Note_on_c, 0, 73, 0
2, 316859, Note_on_c, 0, 78, 0
2, 317024, Note_on_c, 0, 49, 53
2, 317047, Note_on_c, 0, 68, 62
2, 317062, Note_on_c, 0, 48, 0
2, 317070, Note_on_c, 0, 75, 0
2, 317430, Note_on_c, 0, 77, 70
2, 317787, Note_on_c, 0, 42, 47
2, 317820, Note_on_c, 0, 75, 66
2, 317839, Note_on_c, 0, 70, 58
2, 317846, Note_on_c, 0, 68, 0
2, 317884, Note_on_c, 0, 77, 0
2, 317934, Note_on_c, 0, 49, 0
2, 318116, Control_c, 0, 64, 37
2, 318135, Control_c, 0, 64, 59
2, 318153, Control_c, 0, 64, 64
2, 318173, Control_c, 0, 64, 67
2, 318192, Control_c, 0, 64, 73
2, 318210, Note_on_c, 0, 73, 73
2, 318211, Control_c, 0, 64, 83
2, 318230, Control_c, 0, 64, 107
2, 318249, Control_c, 0, 64, 127
2, 318279, Note_on_c, 0, 75, 0
2, 318320, Note_on_c, 0, 73, 0
2, 318390, Note_on_c, 0, 70, 0
2, 318586, Note_on_c, 0, 44, 47
2, 318605, Note_on_c, 0, 72, 73
2, 318707, Note_on_c, 0, 42, 0
2, 318709, Control_c, 0, 64, 90
2, 318729, Control_c, 0, 64, 69
2, 318748, Control_c, 0, 64, 45
2, 318767, Control_c, 0, 64, 0
2, 318863, Control_c, 0, 64, 41
2, 318883, Control_c, 0, 64, 59
2, 318901, Control_c, 0, 64, 64
2, 318921, Control_c, 0, 64, 67
2, 318940, Control_c, 0, 64, 70
2, 318960, Control_c, 0, 64, 76
2, 318969, Note_on_c, 0, 68, 72
2, 318978, Control_c, 0, 64, 84
2, 318998, Control_c, 0, 64, 92
2, 319017, Control_c, 0, 64, 101
2, 319036, Control_c, 0, 64, 112
2, 319055, Control_c, 0, 64, 127
2, 319366, Note_on_c, 0, 46, 47
2, 319369, Note_on_c, 0, 44, 0
2, 319381, Note_on_c, 0, 74, 65
2, 319385, Note_on_c, 0, 66, 51
2, 319401, Control_c, 0, 64, 96
2, 319420, Control_c, 0, 64, 70
2, 319440, Control_c, 0, 64, 41
2, 319451, Note_on_c, 0, 72, 0
2, 319454, Note_on_c, 0, 68, 0
2, 319458, Control_c, 0, 64, 0
2, 319535, Control_c, 0, 64, 57
2, 319555, Control_c, 0, 64, 66
2, 319574, Control_c, 0, 64, 74
2, 319592, Control_c, 0, 64, 89
2, 319612, Control_c, 0, 64, 127
2, 319643, Note_on_c, 0, 66, 0
2, 319743, Note_on_c, 0, 46, 0
2, 319761, Note_on_c, 0, 65, 64
2, 319803, Note_on_c, 0, 74, 0
2, 319819, Note_on_c, 0, 65, 0
2, 320158, Note_on_c, 0, 47, 45
2, 320182, Note_on_c, 0, 75, 70
2, 320205, Note_on_c, 0, 63, 53
2, 320284, Control_c, 0, 64, 97
2, 320303, Control_c, 0, 64, 75
2, 320323, Control_c, 0, 64, 62
2, 320341, Control_c, 0, 64, 22
2, 320361, Control_c, 0, 64, 0
2, 320571, Note_on_c, 0, 66, 67
2, 320573, Note_on_c, 0, 46, 50
2, 320718, Note_on_c, 0, 47, 0
2, 320953, Note_on_c, 0, 44, 52
2, 320976, Note_on_c, 0, 71, 68
2, 321039, Note_on_c, 0, 75, 0
2, 321052, Note_on_c, 0, 46, 0
2, 321281, Control_c, 0, 64, 19
2, 321299, Control_c, 0, 64, 43
2, 321319, Control_c, 0, 64, 56
2, 321333, Note_on_c, 0, 42, 65
2, 321338, Control_c, 0, 64, 61
2, 321358, Control_c, 0, 64, 64
2, 321361, Note_on_c, 0, 44, 0
2, 321376, Control_c, 0, 64, 67
2, 321396, Control_c, 0, 64, 70
2, 321415, Control_c, 0, 64, 75
2, 321434, Control_c, 0, 64, 82
2, 321453, Control_c, 0, 64, 90
2, 321473, Control_c, 0, 64, 96
2, 321492, Control_c, 0, 64, 103
2, 321511, Control_c, 0, 64, 110
2, 321530, Control_c, 0, 64, 117
2, 321550, Control_c, 0, 64, 127
2, 321741, Note_on_c, 0, 40, 53
2, 321755, Note_on_c, 0, 42, 0
2, 321786, Note_on_c, 0, 73, 72
2, 321818, Control_c, 0, 64, 104
2, 321838, Control_c, 0, 64, 82
2, 321856, Control_c, 0, 64, 67
2, 321876, Control_c, 0, 64, 21
2, 321877, Note_on_c, 0, 71, 0
2, 321895, Control_c, 0, 64, 0
2, 321991, Control_c, 0, 64, 27
2, 322010, Control_c, 0, 64, 56
2, 322030, Control_c, 0, 64, 63
2, 322048, Control_c, 0, 64, 66
2, 322067, Control_c, 0, 64, 70
2, 322084, Control_c, 0, 64, 76
2, 322103, Control_c, 0, 64, 83
2, 322123, Control_c, 0, 64, 90
2, 322141, Control_c, 0, 64, 101
2, 322153, Note_on_c, 0, 70, 73
2, 322161, Control_c, 0, 64, 118
2, 322168, Note_on_c, 0, 66, 0
2, 322180, Control_c, 0, 64, 127
2, 322226, Note_on_c, 0, 63, 0
2, 322524, Note_on_c, 0, 39, 47
2, 322530, Control_c, 0, 64, 113
2, 322533, Note_on_c, 0, 68, 59
2, 322550, Control_c, 0, 64, 81
2, 322569, Control_c, 0, 64, 59
2, 322585, Note_on_c, 0, 40, 0
2, 322588, Control_c, 0, 64, 0
2, 322596, Note_on_c, 0, 70, 0
2, 322684, Control_c, 0, 64, 21
2, 322703, Control_c, 0, 64, 58
2, 322723, Control_c, 0, 64, 64
2, 322741, Control_c, 0, 64, 68
2, 322761, Control_c, 0, 64, 75
2, 322780, Control_c, 0, 64, 85
2, 322799, Control_c, 0, 64, 97
2, 322818, Control_c, 0, 64, 116
2, 322838, Control_c, 0, 64, 127
2, 322898, Note_on_c, 0, 67, 50
2, 322941, Note_on_c, 0, 68, 0
2, 322961, Note_on_c, 0, 67, 0
2, 322976, Note_on_c, 0, 73, 0
2, 323310, Note_on_c, 0, 44, 36
2, 323311, Note_on_c, 0, 71, 45
2, 323328, Note_on_c, 0, 68, 37
2, 323333, Control_c, 0, 64, 104
2, 323353, Control_c, 0, 64, 78
2, 323371, Control_c, 0, 64, 62
2, 323391, Control_c, 0, 64, 0
2, 323397, Note_on_c, 0, 39, 0
2, 323487, Control_c, 0, 64, 9
2, 323506, Control_c, 0, 64, 47
2, 323525, Control_c, 0, 64, 59
2, 323545, Control_c, 0, 64, 63
2, 323563, Control_c, 0, 64, 65
2, 323582, Control_c, 0, 64, 66
2, 323602, Control_c, 0, 64, 67
2, 323621, Control_c, 0, 64, 67
2, 323697, Control_c, 0, 64, 68
2, 323713, Note_on_c, 0, 46, 47
2, 323717, Control_c, 0, 64, 67
2, 323717, Note_on_c, 0, 73, 60
2, 323736, Control_c, 0, 64, 66
2, 323756, Control_c, 0, 64, 63
2, 323774, Control_c, 0, 64, 58
2, 323786, Note_on_c, 0, 44, 0
2, 323794, Control_c, 0, 64, 39
2, 323813, Control_c, 0, 64, 0
2, 323918, Note_on_c, 0, 71, 0
2, 324114, Note_on_c, 0, 75, 75
2, 324122, Note_on_c, 0, 47, 52
2, 324126, Note_on_c, 0, 46, 0
2, 324227, Note_on_c, 0, 73, 0
2, 324502, Note_on_c, 0, 49, 51
2, 324506, Note_on_c, 0, 47, 0
2, 324506, Note_on_c, 0, 76, 71
2, 324561, Note_on_c, 0, 75, 0
2, 324919, Note_on_c, 0, 51, 40
2, 324923, Note_on_c, 0, 70, 66
2, 324941, Note_on_c, 0, 49, 0
2, 325019, Note_on_c, 0, 68, 0
2, 325163, Note_on_c, 0, 76, 0
2, 325316, Note_on_c, 0, 71, 51
2, 325376, Note_on_c, 0, 70, 0
2, 325672, Note_on_c, 0, 51, 0
2, 325698, Note_on_c, 0, 73, 51
2, 325701, Note_on_c, 0, 67, 35
2, 325735, Note_on_c, 0, 71, 0
2, 326098, Note_on_c, 0, 75, 52
2, 326099, Note_on_c, 0, 73, 0
2, 326100, Note_on_c, 0, 51, 36
2, 326506, Note_on_c, 0, 56, 45
2, 326508, Note_on_c, 0, 68, 60
2, 326548, Note_on_c, 0, 71, 47
2, 326566, Note_on_c, 0, 67, 0
2, 326568, Note_on_c, 0, 75, 0
2, 326674, Control_c, 0, 64, 25
2, 326674, Note_on_c, 0, 51, 0
2, 326693, Control_c, 0, 64, 50
2, 326713, Control_c, 0, 64, 58
2, 326731, Control_c, 0, 64, 62
2, 326751, Control_c, 0, 64, 64
2, 326770, Control_c, 0, 64, 65
2, 326789, Control_c, 0, 64, 67
2, 326808, Control_c, 0, 64, 69
2, 326828, Control_c, 0, 64, 73
2, 326847, Control_c, 0, 64, 77
2, 326866, Control_c, 0, 64, 83
2, 326884, Control_c, 0, 64, 89
2, 326896, Note_on_c, 0, 71, 0
2, 326903, Control_c, 0, 64, 98
2, 326915, Note_on_c, 0, 70, 61
2, 326920, Note_on_c, 0, 58, 43
2, 326923, Control_c, 0, 64, 113
2, 326941, Control_c, 0, 64, 127
2, 327008, Note_on_c, 0, 56, 0
2, 327083, Note_on_c, 0, 68, 0
2, 327328, Note_on_c, 0, 63, 60
2, 327331, Note_on_c, 0, 58, 0
2, 327335, Note_on_c, 0, 59, 45
2, 327337, Note_on_c, 0, 68, 61
2, 327344, Control_c, 0, 64, 88
2, 327364, Control_c, 0, 64, 65
2, 327377, Note_on_c, 0, 70, 0
2, 327383, Control_c, 0, 64, 0
2, 327498, Control_c, 0, 64, 36
2, 327518, Control_c, 0, 64, 57
2, 327537, Control_c, 0, 64, 63
2, 327556, Control_c, 0, 64, 65
2, 327575, Control_c, 0, 64, 68
2, 327595, Control_c, 0, 64, 71
2, 327613, Control_c, 0, 64, 75
2, 327633, Control_c, 0, 64, 80
2, 327652, Control_c, 0, 64, 87
2, 327672, Control_c, 0, 64, 89
2, 327690, Control_c, 0, 64, 86
2, 327698, Note_on_c, 0, 66, 54
2, 327710, Control_c, 0, 64, 77
2, 327714, Note_on_c, 0, 56, 40
2, 327729, Control_c, 0, 64, 66
2, 327748, Control_c, 0, 64, 53
2, 327767, Control_c, 0, 64, 13
2, 327786, Note_on_c, 0, 59, 0
2, 327787, Control_c, 0, 64, 0
2, 327806, Control_c, 0, 64, 36
2, 327824, Control_c, 0, 64, 56
2, 327844, Control_c, 0, 64, 63
2, 327863, Control_c, 0, 64, 66
2, 327880, Note_on_c, 0, 66, 0
2, 327883, Control_c, 0, 64, 70
2, 327901, Control_c, 0, 64, 75
2, 327921, Control_c, 0, 64, 82
2, 327940, Control_c, 0, 64, 88
2, 327959, Control_c, 0, 64, 95
2, 327978, Control_c, 0, 64, 105
2, 327998, Control_c, 0, 64, 127
2, 328113, Control_c, 0, 64, 112
2, 328130, Note_on_c, 0, 65, 43
2, 328132, Control_c, 0, 64, 85
2, 328132, Note_on_c, 0, 56, 0
2, 328132, Note_on_c, 0, 58, 37
2, 328152, Control_c, 0, 64, 69
2, 328170, Control_c, 0, 64, 55
2, 328190, Control_c, 0, 64, 0
2, 328247, Control_c, 0, 64, 48
2, 328267, Control_c, 0, 64, 62
2, 328286, Control_c, 0, 64, 66
2, 328304, Control_c, 0, 64, 70
2, 328324, Control_c, 0, 64, 76
2, 328343, Control_c, 0, 64, 82
2, 328363, Control_c, 0, 64, 88
2, 328381, Control_c, 0, 64, 94
2, 328386, Note_on_c, 0, 63, 0
2, 328401, Control_c, 0, 64, 101
2, 328420, Control_c, 0, 64, 112
2, 328439, Control_c, 0, 64, 127
2, 328521, Note_on_c, 0, 62, 60
2, 328528, Note_on_c, 0, 56, 42
2, 328535, Control_c, 0, 64, 110
2, 328538, Note_on_c, 0, 65, 0
2, 328555, Control_c, 0, 64, 88
2, 328573, Control_c, 0, 64, 71
2, 328593, Control_c, 0, 64, 59
2, 328603, Note_on_c, 0, 58, 0
2, 328612, Control_c, 0, 64, 28
2, 328632, Control_c, 0, 64, 35
2, 328650, Control_c, 0, 64, 54
2, 328670, Control_c, 0, 64, 63
2, 328689, Control_c, 0, 64, 67
2, 328708, Control_c, 0, 64, 74
2, 328727, Control_c, 0, 64, 87
2, 328747, Control_c, 0, 64, 113
2, 328766, Control_c, 0, 64, 127
2, 328860, Control_c, 0, 64, 112
2, 328880, Control_c, 0, 64, 81
2, 328899, Control_c, 0, 64, 66
2, 328918, Control_c, 0, 64, 48
2, 328921, Note_on_c, 0, 66, 60
2, 328923, Note_on_c, 0, 54, 41
2, 328930, Note_on_c, 0, 63, 53
2, 328937, Control_c, 0, 64, 0
2, 328950, Note_on_c, 0, 62, 0
2, 328954, Note_on_c, 0, 56, 0
2, 328962, Note_on_c, 0, 68, 0
2, 329014, Control_c, 0, 64, 42
2, 329034, Control_c, 0, 64, 60
2, 329053, Control_c, 0, 64, 64
2, 329072, Control_c, 0, 64, 68
2, 329091, Control_c, 0, 64, 72
2, 329111, Control_c, 0, 64, 79
2, 329129, Control_c, 0, 64, 89
2, 329149, Control_c, 0, 64, 103
2, 329171, Control_c, 0, 64, 127
2, 329267, Control_c, 0, 64, 95
2, 329286, Control_c, 0, 64, 75
2, 329287, Note_on_c, 0, 54, 0
2, 329294, Note_on_c, 0, 63, 0
2, 329296, Note_on_c, 0, 68, 72
2, 329301, Note_on_c, 0, 65, 58
2, 329306, Control_c, 0, 64, 61
2, 329312, Note_on_c, 0, 53, 42
2, 329324, Control_c, 0, 64, 37
2, 329335, Note_on_c, 0, 66, 0
2, 329343, Control_c, 0, 64, 0
2, 329363, Control_c, 0, 64, 22
2, 329382, Control_c, 0, 64, 47
2, 329401, Control_c, 0, 64, 60
2, 329420, Control_c, 0, 64, 64
2, 329440, Control_c, 0, 64, 67
2, 329458, Control_c, 0, 64, 70
2, 329478, Control_c, 0, 64, 73
2, 329497, Control_c, 0, 64, 79
2, 329517, Control_c, 0, 64, 87
2, 329535, Control_c, 0, 64, 97
2, 329555, Control_c, 0, 64, 111
2, 329574, Control_c, 0, 64, 127
2, 329670, Control_c, 0, 64, 102
2, 329689, Control_c, 0, 64, 80
2, 329706, Note_on_c, 0, 68, 0
2, 329708, Note_on_c, 0, 53, 0
2, 329708, Note_on_c, 0, 66, 52
2, 329709, Control_c, 0, 64, 63
2, 329710, Note_on_c, 0, 70, 58
2, 329714, Note_on_c, 0, 51, 34
2, 329728, Control_c, 0, 64, 0
2, 329741, Note_on_c, 0, 65, 0
2, 329861, Control_c, 0, 64, 48
2, 329880, Control_c, 0, 64, 62
2, 329899, Control_c, 0, 64, 66
2, 329919, Control_c, 0, 64, 70
2, 329937, Control_c, 0, 64, 77
2, 329957, Control_c, 0, 64, 87
2, 329976, Control_c, 0, 64, 100
2, 329996, Control_c, 0, 64, 127
2, 330093, Note_on_c, 0, 65, 63
2, 330149, Note_on_c, 0, 66, 0
2, 330165, Note_on_c, 0, 70, 0
2, 330169, Note_on_c, 0, 65, 0
2, 330504, Note_on_c, 0, 56, 46
2, 330514, Note_on_c, 0, 63, 64
2, 330519, Note_on_c, 0, 72, 58
2, 330611, Control_c, 0, 64, 116
2, 330623, Note_on_c, 0, 51, 0
2, 330630, Control_c, 0, 64, 89
2, 330649, Control_c, 0, 64, 71
2, 330669, Control_c, 0, 64, 50
2, 330688, Control_c, 0, 64, 0
2, 330892, Note_on_c, 0, 74, 65
2, 330989, Note_on_c, 0, 72, 0
2, 331292, Note_on_c, 0, 70, 67
2, 331310, Note_on_c, 0, 75, 57
2, 331323, Note_on_c, 0, 74, 0
2, 331367, Note_on_c, 0, 63, 0
2, 331674, Note_on_c, 0, 56, 0
2, 331681, Note_on_c, 0, 55, 42
2, 331841, Note_on_c, 0, 53, 52
2, 331847, Note_on_c, 0, 55, 0
2, 332083, Note_on_c, 0, 63, 57
2, 332087, Note_on_c, 0, 53, 0
2, 332113, Note_on_c, 0, 55, 37
2, 332158, Note_on_c, 0, 70, 0
2, 332460, Note_on_c, 0, 73, 53
2, 332613, Note_on_c, 0, 75, 0
2, 332829, Note_on_c, 0, 72, 57
2, 332848, Note_on_c, 0, 56, 32
2, 332872, Note_on_c, 0, 73, 0
2, 332914, Control_c, 0, 64, 44
2, 332927, Note_on_c, 0, 55, 0
2, 332933, Control_c, 0, 64, 56
2, 332953, Control_c, 0, 64, 60
2, 332957, Note_on_c, 0, 63, 0
2, 332971, Control_c, 0, 64, 62
2, 332991, Control_c, 0, 64, 64
2, 333010, Control_c, 0, 64, 66
2, 333029, Control_c, 0, 64, 69
2, 333048, Control_c, 0, 64, 73
2, 333068, Control_c, 0, 64, 79
2, 333087, Control_c, 0, 64, 86
2, 333105, Control_c, 0, 64, 91
2, 333125, Control_c, 0, 64, 94
2, 333144, Control_c, 0, 64, 95
2, 333182, Control_c, 0, 64, 95
2, 333219, Note_on_c, 0, 74, 62
2, 333240, Control_c, 0, 64, 92
2, 333250, Note_on_c, 0, 65, 48
2, 333251, Note_on_c, 0, 54, 42
2, 333259, Control_c, 0, 64, 83
2, 333268, Note_on_c, 0, 72, 0
2, 333279, Control_c, 0, 64, 71
2, 333298, Control_c, 0, 64, 60
2, 333301, Note_on_c, 0, 56, 0
2, 333317, Control_c, 0, 64, 42
2, 333336, Control_c, 0, 64, 21
2, 333356, Control_c, 0, 64, 31
2, 333374, Control_c, 0, 64, 50
2, 333394, Control_c, 0, 64, 60
2, 333413, Control_c, 0, 64, 64
2, 333433, Control_c, 0, 64, 67
2, 333451, Control_c, 0, 64, 71
2, 333471, Control_c, 0, 64, 76
2, 333490, Control_c, 0, 64, 83
2, 333509, Control_c, 0, 64, 90
2, 333528, Control_c, 0, 64, 98
2, 333548, Control_c, 0, 64, 108
2, 333567, Control_c, 0, 64, 127
2, 333613, Note_on_c, 0, 75, 70
2, 333616, Note_on_c, 0, 54, 0
2, 333629, Note_on_c, 0, 66, 64
2, 333630, Note_on_c, 0, 53, 50
2, 333646, Note_on_c, 0, 74, 0
2, 333662, Control_c, 0, 64, 112
2, 333682, Control_c, 0, 64, 88
2, 333701, Control_c, 0, 64, 69
2, 333701, Note_on_c, 0, 65, 0
2, 333720, Control_c, 0, 64, 56
2, 333739, Control_c, 0, 64, 0
2, 333778, Control_c, 0, 64, 13
2, 333797, Control_c, 0, 64, 50
2, 333816, Control_c, 0, 64, 61
2, 333836, Control_c, 0, 64, 65
2, 333854, Control_c, 0, 64, 67
2, 333874, Control_c, 0, 64, 70
2, 333893, Control_c, 0, 64, 74
2, 333913, Control_c, 0, 64, 77
2, 333931, Control_c, 0, 64, 81
2, 333951, Control_c, 0, 64, 83
2, 333971, Control_c, 0, 64, 84
2, 333991, Note_on_c, 0, 51, 56
2, 334009, Control_c, 0, 64, 83
2, 334029, Control_c, 0, 64, 78
2, 334029, Note_on_c, 0, 53, 0
2, 334048, Control_c, 0, 64, 70
2, 334067, Control_c, 0, 64, 62
2, 334086, Control_c, 0, 64, 43
2, 334105, Control_c, 0, 64, 0
2, 334392, Note_on_c, 0, 68, 68
2, 334408, Note_on_c, 0, 51, 0
2, 334416, Note_on_c, 0, 66, 0
2, 334418, Note_on_c, 0, 53, 48
2, 334774, Note_on_c, 0, 54, 58
2, 334791, Note_on_c, 0, 53, 0
2, 335158, Note_on_c, 0, 74, 70
2, 335167, Note_on_c, 0, 56, 58
2, 335181, Note_on_c, 0, 54, 0
2, 335224, Note_on_c, 0, 75, 0
2, 335522, Note_on_c, 0, 56, 0
2, 335529, Note_on_c, 0, 58, 56
2, 335917, Note_on_c, 0, 51, 38
2, 335925, Note_on_c, 0, 75, 66
2, 335945, Note_on_c, 0, 74, 0
2, 335952, Note_on_c, 0, 66, 41
2, 335952, Note_on_c, 0, 68, 0
2, 336045, Note_on_c, 0, 58, 0
2, 336068, Note_on_c, 0, 51, 0
2, 336105, Note_on_c, 0, 63, 53
2, 336296, Note_on_c, 0, 68, 72
2, 336308, Note_on_c, 0, 61, 60
2, 336340, Note_on_c, 0, 66, 0
2, 336366, Note_on_c, 0, 63, 0
2, 336462, Note_on_c, 0, 59, 71
2, 336487, Note_on_c, 0, 61, 0
2, 336654, Note_on_c, 0, 68, 0
2, 336704, Note_on_c, 0, 74, 62
2, 336711, Note_on_c, 0, 70, 65
2, 336716, Note_on_c, 0, 58, 52
2, 336724, Note_on_c, 0, 59, 0
2, 336727, Note_on_c, 0, 75, 0
2, 337090, Note_on_c, 0, 75, 74
2, 337104, Note_on_c, 0, 72, 62
2, 337104, Note_on_c, 0, 74, 0
2, 337127, Note_on_c, 0, 70, 0
2, 337445, Control_c, 0, 64, 50
2, 337462, Note_on_c, 0, 75, 0
2, 337464, Control_c, 0, 64, 65
2, 337471, Note_on_c, 0, 77, 73
2, 337483, Control_c, 0, 64, 71
2, 337483, Note_on_c, 0, 74, 61
2, 337484, Note_on_c, 0, 58, 0
2, 337502, Control_c, 0, 64, 82
2, 337522, Control_c, 0, 64, 99
2, 337527, Note_on_c, 0, 72, 0
2, 337541, Control_c, 0, 64, 127
2, 337558, Note_on_c, 0, 74, 0
2, 337573, Note_on_c, 0, 77, 0
2, 337846, Note_on_c, 0, 58, 50
2, 337854, Note_on_c, 0, 54, 51
2, 337858, Note_on_c, 0, 80, 79
2, 337908, Control_c, 0, 64, 82
2, 337928, Control_c, 0, 64, 64
2, 337947, Control_c, 0, 64, 17
2, 337966, Control_c, 0, 64, 0
2, 338024, Control_c, 0, 64, 54
2, 338043, Control_c, 0, 64, 64
2, 338062, Control_c, 0, 64, 69
2, 338082, Control_c, 0, 64, 76
2, 338101, Control_c, 0, 64, 87
2, 338120, Control_c, 0, 64, 100
2, 338139, Control_c, 0, 64, 127
2, 338235, Control_c, 0, 64, 99
2, 338243, Note_on_c, 0, 56, 52
2, 338246, Note_on_c, 0, 58, 0
2, 338248, Note_on_c, 0, 78, 72
2, 338251, Note_on_c, 0, 60, 60
2, 338254, Control_c, 0, 64, 72
2, 338273, Control_c, 0, 64, 59
2, 338275, Note_on_c, 0, 54, 0
2, 338293, Control_c, 0, 64, 34
2, 338331, Control_c, 0, 64, 52
2, 338350, Control_c, 0, 64, 62
2, 338370, Control_c, 0, 64, 67
2, 338388, Control_c, 0, 64, 73
2, 338407, Control_c, 0, 64, 83
2, 338426, Control_c, 0, 64, 95
2, 338446, Control_c, 0, 64, 112
2, 338464, Control_c, 0, 64, 127
2, 338464, Note_on_c, 0, 80, 0
2, 338526, Note_on_c, 0, 78, 0
2, 338580, Control_c, 0, 64, 101
2, 338599, Control_c, 0, 64, 75
2, 338618, Control_c, 0, 64, 61
2, 338622, Note_on_c, 0, 56, 0
2, 338623, Note_on_c, 0, 58, 53
2, 338625, Note_on_c, 0, 62, 55
2, 338628, Note_on_c, 0, 77, 73
2, 338637, Control_c, 0, 64, 0
2, 338680, Note_on_c, 0, 60, 0
2, 338695, Control_c, 0, 64, 34
2, 338714, Control_c, 0, 64, 59
2, 338733, Control_c, 0, 64, 65
2, 338752, Control_c, 0, 64, 68
2, 338767, Note_on_c, 0, 62, 0
2, 338768, Control_c, 0, 64, 73
2, 338787, Control_c, 0, 64, 80
2, 338806, Control_c, 0, 64, 89
2, 338825, Control_c, 0, 64, 101
2, 338845, Control_c, 0, 64, 127
2, 339030, Note_on_c, 0, 59, 51
2, 339034, Note_on_c, 0, 63, 63
2, 339035, Note_on_c, 0, 75, 77
2, 339036, Control_c, 0, 64, 91
2, 339056, Control_c, 0, 64, 68
2, 339070, Note_on_c, 0, 58, 0
2, 339075, Control_c, 0, 64, 50
2, 339094, Control_c, 0, 64, 0
2, 339127, Note_on_c, 0, 77, 0
2, 339151, Control_c, 0, 64, 45
2, 339171, Control_c, 0, 64, 61
2, 339190, Control_c, 0, 64, 66
2, 339210, Control_c, 0, 64, 70
2, 339228, Control_c, 0, 64, 77
2, 339248, Control_c, 0, 64, 88
2, 339267, Control_c, 0, 64, 102
2, 339286, Control_c, 0, 64, 127
2, 339383, Control_c, 0, 64, 114
2, 339403, Control_c, 0, 64, 82
2, 339408, Note_on_c, 0, 58, 51
2, 339408, Note_on_c, 0, 73, 64
2, 339421, Control_c, 0, 64, 65
2, 339441, Control_c, 0, 64, 34
2, 339454, Note_on_c, 0, 59, 0
2, 339460, Control_c, 0, 64, 0
2, 339517, Control_c, 0, 64, 54
2, 339537, Control_c, 0, 64, 64
2, 339555, Control_c, 0, 64, 69
2, 339575, Control_c, 0, 64, 76
2, 339594, Control_c, 0, 64, 88
2, 339614, Control_c, 0, 64, 111
2, 339632, Control_c, 0, 64, 127
2, 339709, Control_c, 0, 64, 94
2, 339734, Control_c, 0, 64, 73
2, 339752, Control_c, 0, 64, 58
2, 339772, Control_c, 0, 64, 42
2, 339789, Note_on_c, 0, 71, 64
2, 339790, Note_on_c, 0, 56, 60
2, 339791, Control_c, 0, 64, 49
2, 339806, Note_on_c, 0, 58, 0
2, 339811, Control_c, 0, 64, 59
2, 339820, Note_on_c, 0, 75, 0
2, 339829, Control_c, 0, 64, 65
2, 339832, Note_on_c, 0, 73, 0
2, 339849, Control_c, 0, 64, 69
2, 339868, Control_c, 0, 64, 76
2, 339874, Note_on_c, 0, 71, 0
2, 339887, Control_c, 0, 64, 88
2, 339906, Control_c, 0, 64, 98
2, 339906, Note_on_c, 0, 63, 0
2, 339926, Control_c, 0, 64, 108
2, 339945, Control_c, 0, 64, 123
2, 339964, Control_c, 0, 64, 127
2, 340152, Note_on_c, 0, 65, 67
2, 340167, Note_on_c, 0, 70, 75
2, 340194, Control_c, 0, 64, 92
2, 340214, Control_c, 0, 64, 72
2, 340232, Control_c, 0, 64, 58
2, 340252, Control_c, 0, 64, 0
2, 340334, Note_on_c, 0, 71, 72
2, 340357, Note_on_c, 0, 70, 0
2, 340562, Note_on_c, 0, 63, 54
2, 340567, Note_on_c, 0, 66, 68
2, 340574, Note_on_c, 0, 70, 70
2, 340581, Note_on_c, 0, 71, 0
2, 340591, Note_on_c, 0, 56, 0
2, 340607, Note_on_c, 0, 65, 0
2, 340727, Control_c, 0, 64, 53
2, 340746, Control_c, 0, 64, 63
2, 340766, Control_c, 0, 64, 64
2, 340785, Control_c, 0, 64, 65
2, 340804, Control_c, 0, 64, 66
2, 340823, Control_c, 0, 64, 68
2, 340843, Control_c, 0, 64, 71
2, 340861, Control_c, 0, 64, 79
2, 340881, Control_c, 0, 64, 88
2, 340900, Control_c, 0, 64, 99
2, 340920, Control_c, 0, 64, 116
2, 340938, Control_c, 0, 64, 127
2, 340950, Note_on_c, 0, 72, 71
2, 340987, Note_on_c, 0, 70, 0
2, 341304, Note_on_c, 0, 66, 0
2, 341327, Note_on_c, 0, 58, 58
2, 341339, Note_on_c, 0, 74, 67
2, 341344, Note_on_c, 0, 63, 0
2, 341344, Note_on_c, 0, 72, 0
2, 341345, Note_on_c, 0, 65, 61
2, 341361, Control_c, 0, 64, 106
2, 341380, Control_c, 0, 64, 78
2, 341400, Control_c, 0, 64, 59
2, 341418, Control_c, 0, 64, 0
2, 341495, Control_c, 0, 64, 27
2, 341514, Control_c, 0, 64, 55
2, 341534, Control_c, 0, 64, 63
2, 341552, Control_c, 0, 64, 65
2, 341572, Control_c, 0, 64, 68
2, 341591, Control_c, 0, 64, 72
2, 341611, Control_c, 0, 64, 77
2, 341629, Control_c, 0, 64, 83
2, 341651, Control_c, 0, 64, 89
2, 341670, Control_c, 0, 64, 94
2, 341689, Control_c, 0, 64, 98
2, 341708, Control_c, 0, 64, 98
2, 341729, Note_on_c, 0, 63, 68
2, 341730, Note_on_c, 0, 75, 76
2, 341733, Note_on_c, 0, 74, 0
2, 341746, Control_c, 0, 64, 98
2, 341766, Control_c, 0, 64, 96
2, 341769, Note_on_c, 0, 65, 0
2, 341785, Control_c, 0, 64, 91
2, 341805, Control_c, 0, 64, 81
2, 341823, Control_c, 0, 64, 68
2, 341843, Control_c, 0, 64, 56
2, 341862, Control_c, 0, 64, 0
2, 342120, Note_on_c, 0, 77, 71
2, 342121, Note_on_c, 0, 62, 58
2, 342145, Note_on_c, 0, 75, 0
2, 342161, Note_on_c, 0, 63, 0
2, 342464, Note_on_c, 0, 58, 0
2, 342501, Note_on_c, 0, 60, 55
2, 342501, Note_on_c, 0, 77, 0
2, 342504, Note_on_c, 0, 70, 81
2, 342505, Note_on_c, 0, 63, 67
2, 342512, Note_on_c, 0, 62, 0
2, 342901, Note_on_c, 0, 62, 52
2, 342906, Note_on_c, 0, 65, 53
2, 342909, Note_on_c, 0, 82, 85
2, 342918, Note_on_c, 0, 63, 0
2, 342928, Note_on_c, 0, 60, 0
2, 343037, Note_on_c, 0, 70, 0
2, 343110, Control_c, 0, 64, 22
2, 343129, Control_c, 0, 64, 62
2, 343148, Control_c, 0, 64, 68
2, 343168, Control_c, 0, 64, 78
2, 343186, Control_c, 0, 64, 102
2, 343203, Note_on_c, 0, 65, 0
2, 343206, Control_c, 0, 64, 127
2, 343278, Note_on_c, 0, 62, 0
2, 343307, Note_on_c, 0, 80, 82
2, 343409, Note_on_c, 0, 82, 0
2, 343667, Note_on_c, 0, 63, 61
2, 343678, Note_on_c, 0, 78, 76
2, 343686, Control_c, 0, 64, 117
2, 343705, Control_c, 0, 64, 76
2, 343725, Control_c, 0, 64, 55
2, 343743, Control_c, 0, 64, 0
2, 343768, Note_on_c, 0, 80, 0
2, 343820, Control_c, 0, 64, 52
2, 343840, Control_c, 0, 64, 64
2, 343859, Control_c, 0, 64, 68
2, 343877, Control_c, 0, 64, 77
2, 343894, Note_on_c, 0, 63, 0
2, 343897, Control_c, 0, 64, 86
2, 343916, Control_c, 0, 64, 96
2, 343936, Control_c, 0, 64, 106
2, 343954, Control_c, 0, 64, 127
2, 344056, Note_on_c, 0, 80, 82
2, 344063, Note_on_c, 0, 63, 61
2, 344070, Control_c, 0, 64, 116
2, 344089, Control_c, 0, 64, 81
2, 344108, Control_c, 0, 64, 64
2, 344128, Control_c, 0, 64, 0
2, 344161, Note_on_c, 0, 78, 0
2, 344211, Note_on_c, 0, 62, 60
2, 344238, Note_on_c, 0, 63, 0
2, 344448, Note_on_c, 0, 82, 80
2, 344454, Note_on_c, 0, 54, 51
2, 344458, Note_on_c, 0, 62, 0
2, 344459, Note_on_c, 0, 63, 62
2, 344487, Note_on_c, 0, 80, 0
2, 344833, Note_on_c, 0, 56, 57
2, 344848, Note_on_c, 0, 83, 80
2, 344858, Note_on_c, 0, 54, 0
2, 344902, Note_on_c, 0, 82, 0
2, 345230, Note_on_c, 0, 58, 49
2, 345260, Note_on_c, 0, 77, 77
2, 345285, Note_on_c, 0, 56, 0
2, 345299, Control_c, 0, 64, 27
2, 345317, Control_c, 0, 64, 47
2, 345324, Note_on_c, 0, 83, 0
2, 345337, Control_c, 0, 64, 57
2, 345356, Control_c, 0, 64, 62
2, 345376, Control_c, 0, 64, 64
2, 345394, Control_c, 0, 64, 67
2, 345414, Control_c, 0, 64, 71
2, 345433, Control_c, 0, 64, 77
2, 345452, Control_c, 0, 64, 84
2, 345471, Control_c, 0, 64, 96
2, 345491, Control_c, 0, 64, 127
2, 345643, Note_on_c, 0, 61, 64
2, 345673, Note_on_c, 0, 58, 0
2, 345682, Note_on_c, 0, 63, 0
2, 345983, Note_on_c, 0, 61, 0
2, 346024, Note_on_c, 0, 59, 59
2, 346032, Note_on_c, 0, 51, 47
2, 346034, Note_on_c, 0, 79, 76
2, 346080, Note_on_c, 0, 77, 0
2, 346085, Control_c, 0, 64, 78
2, 346104, Control_c, 0, 64, 60
2, 346124, Control_c, 0, 64, 0
2, 346201, Control_c, 0, 64, 31
2, 346219, Control_c, 0, 64, 61
2, 346238, Control_c, 0, 64, 66
2, 346258, Control_c, 0, 64, 72
2, 346276, Control_c, 0, 64, 83
2, 346296, Control_c, 0, 64, 97
2, 346315, Control_c, 0, 64, 127
2, 346409, Note_on_c, 0, 58, 61
2, 346438, Note_on_c, 0, 51, 0
2, 346462, Note_on_c, 0, 58, 0
2, 346473, Note_on_c, 0, 59, 0
2, 346824, Note_on_c, 0, 56, 48
2, 346829, Note_on_c, 0, 59, 46
2, 346838, Note_on_c, 0, 80, 64
2, 346861, Note_on_c, 0, 79, 0
2, 346873, Control_c, 0, 64, 90
2, 346892, Control_c, 0, 64, 68
2, 346911, Control_c, 0, 64, 17
2, 346931, Control_c, 0, 64, 0
2, 347008, Control_c, 0, 64, 37
2, 347026, Control_c, 0, 64, 59
2, 347046, Control_c, 0, 64, 65
2, 347065, Control_c, 0, 64, 69
2, 347085, Control_c, 0, 64, 73
2, 347103, Control_c, 0, 64, 78
2, 347123, Control_c, 0, 64, 84
2, 347142, Control_c, 0, 64, 89
2, 347161, Control_c, 0, 64, 93
2, 347180, Control_c, 0, 64, 94
2, 347205, Note_on_c, 0, 63, 64
2, 347216, Note_on_c, 0, 59, 0
2, 347216, Note_on_c, 0, 78, 75
2, 347227, Note_on_c, 0, 58, 51
2, 347237, Control_c, 0, 64, 94
2, 347243, Note_on_c, 0, 56, 0
2, 347257, Control_c, 0, 64, 92
2, 347276, Control_c, 0, 64, 86
2, 347296, Control_c, 0, 64, 76
2, 347314, Control_c, 0, 64, 66
2, 347334, Control_c, 0, 64, 44
2, 347353, Control_c, 0, 64, 0
2, 347389, Note_on_c, 0, 80, 0
2, 347637, Note_on_c, 0, 68, 65
2, 347637, Note_on_c, 0, 77, 70
2, 347641, Note_on_c, 0, 58, 0
2, 347642, Note_on_c, 0, 59, 56
2, 347691, Note_on_c, 0, 63, 0
2, 347729, Note_on_c, 0, 78, 0
2, 348022, Note_on_c, 0, 75, 73
2, 348119, Note_on_c, 0, 77, 0
2, 348416, Note_on_c, 0, 74, 67
2, 348423, Note_on_c, 0, 58, 49
2, 348443, Note_on_c, 0, 59, 0
2, 348466, Note_on_c, 0, 75, 0
2, 348811, Note_on_c, 0, 66, 61
2, 348856, Note_on_c, 0, 68, 0
2, 349201, Note_on_c, 0, 65, 51
2, 349201, Note_on_c, 0, 75, 75
2, 349252, Note_on_c, 0, 66, 0
2, 349278, Note_on_c, 0, 74, 0
2, 349578, Note_on_c, 0, 63, 60
2, 349625, Note_on_c, 0, 65, 0
2, 350002, Note_on_c, 0, 65, 58
2, 350004, Note_on_c, 0, 63, 0
2, 350139, Control_c, 0, 64, 37
2, 350158, Control_c, 0, 64, 56
2, 350177, Control_c, 0, 64, 62
2, 350196, Control_c, 0, 64, 64
2, 350216, Control_c, 0, 64, 66
2, 350235, Control_c, 0, 64, 68
2, 350254, Control_c, 0, 64, 72
2, 350273, Control_c, 0, 64, 77
2, 350294, Control_c, 0, 64, 84
2, 350312, Control_c, 0, 64, 91
2, 350332, Control_c, 0, 64, 102
2, 350351, Control_c, 0, 64, 127
2, 350376, Note_on_c, 0, 73, 69
2, 350424, Note_on_c, 0, 65, 0
2, 350691, Note_on_c, 0, 75, 0
2, 350737, Note_on_c, 0, 58, 0
2, 350761, Note_on_c, 0, 71, 57
2, 350783, Note_on_c, 0, 67, 44
2, 350812, Control_c, 0, 64, 84
2, 350819, Note_on_c, 0, 73, 0
2, 350831, Control_c, 0, 64, 65
2, 350851, Control_c, 0, 64, 29
2, 350867, Control_c, 0, 64, 0
2, 350925, Control_c, 0, 64, 48
2, 350943, Control_c, 0, 64, 62
2, 350963, Control_c, 0, 64, 67
2, 350982, Control_c, 0, 64, 72
2, 351001, Control_c, 0, 64, 81
2, 351020, Control_c, 0, 64, 94
2, 351039, Control_c, 0, 64, 127
2, 351153, Note_on_c, 0, 70, 58
2, 351189, Note_on_c, 0, 71, 0
2, 351209, Note_on_c, 0, 70, 0
2, 351212, Note_on_c, 0, 67, 0
2, 351555, Note_on_c, 0, 68, 44
2, 351558, Note_on_c, 0, 71, 50
2, 351635, Control_c, 0, 64, 95
2, 351655, Control_c, 0, 64, 73
2, 351674, Control_c, 0, 64, 58
2, 351693, Control_c, 0, 64, 0
2, 351934, Note_on_c, 0, 70, 52
2, 351949, Note_on_c, 0, 66, 39
2, 351950, Note_on_c, 0, 68, 0
2, 351987, Note_on_c, 0, 71, 0
2, 352310, Note_on_c, 0, 68, 52
2, 352320, Note_on_c, 0, 66, 0
2, 352323, Note_on_c, 0, 65, 41
2, 352351, Note_on_c, 0, 70, 0
2, 352714, Note_on_c, 0, 63, 43
2, 352731, Note_on_c, 0, 65, 0
2, 353115, Note_on_c, 0, 46, 72
2, 353143, Note_on_c, 0, 62, 52
2, 353164, Note_on_c, 0, 63, 0
2, 353513, Note_on_c, 0, 66, 60
2, 353569, Note_on_c, 0, 62, 0
2, 353662, Note_on_c, 0, 68, 0
2, 353674, Note_on_c, 0, 65, 59
2, 353715, Note_on_c, 0, 66, 0
2, 353919, Note_on_c, 0, 39, 61
2, 353923, Note_on_c, 0, 63, 57
2, 353931, Note_on_c, 0, 66, 62
2, 353952, Note_on_c, 0, 65, 0
2, 353989, Note_on_c, 0, 46, 0
2, 354312, Note_on_c, 0, 68, 61
2, 354336, Note_on_c, 0, 65, 46
2, 354358, Note_on_c, 0, 66, 0
2, 354713, Note_on_c, 0, 70, 76
2, 354736, Note_on_c, 0, 66, 57
2, 354745, Note_on_c, 0, 68, 0
2, 354763, Note_on_c, 0, 65, 0
2, 354777, Note_on_c, 0, 63, 0
2, 355096, Note_on_c, 0, 65, 47
2, 355102, Note_on_c, 0, 38, 64
2, 355103, Note_on_c, 0, 39, 0
2, 355135, Note_on_c, 0, 66, 0
2, 355495, Note_on_c, 0, 63, 66
2, 355509, Note_on_c, 0, 39, 48
2, 355510, Note_on_c, 0, 66, 61
2, 355536, Note_on_c, 0, 65, 0
2, 355546, Note_on_c, 0, 38, 0
2, 355571, Note_on_c, 0, 70, 0
2, 355905, Note_on_c, 0, 68, 58
2, 355913, Note_on_c, 0, 41, 50
2, 355919, Note_on_c, 0, 39, 0
2, 355979, Note_on_c, 0, 66, 0
2, 356311, Note_on_c, 0, 42, 54
2, 356333, Note_on_c, 0, 70, 62
2, 356349, Note_on_c, 0, 41, 0
2, 356371, Note_on_c, 0, 68, 0
2, 356678, Note_on_c, 0, 63, 0
2, 356686, Note_on_c, 0, 41, 53
2, 356694, Note_on_c, 0, 68, 67
2, 356696, Note_on_c, 0, 62, 62
2, 356701, Note_on_c, 0, 42, 0
2, 356735, Note_on_c, 0, 70, 0
2, 357096, Note_on_c, 0, 66, 60
2, 357099, Note_on_c, 0, 63, 64
2, 357103, Note_on_c, 0, 39, 53
2, 357115, Note_on_c, 0, 68, 0
2, 357125, Note_on_c, 0, 41, 0
2, 357157, Note_on_c, 0, 62, 0
2, 357458, Note_on_c, 0, 65, 68
2, 357498, Note_on_c, 0, 63, 0
2, 357528, Note_on_c, 0, 66, 0
2, 357648, Note_on_c, 0, 63, 63
2, 357859, Note_on_c, 0, 46, 55
2, 357866, Note_on_c, 0, 66, 71
2, 357868, Note_on_c, 0, 65, 0
2, 357873, Note_on_c, 0, 62, 58
2, 357887, Note_on_c, 0, 63, 0
2, 357889, Note_on_c, 0, 39, 0
2, 358279, Note_on_c, 0, 65, 55
2, 358279, Note_on_c, 0, 68, 65
2, 358311, Note_on_c, 0, 62, 0
2, 358357, Note_on_c, 0, 66, 0
2, 358683, Note_on_c, 0, 39, 61
2, 358692, Note_on_c, 0, 63, 51
2, 358718, Note_on_c, 0, 65, 0
2, 358746, Note_on_c, 0, 46, 0
2, 359055, Note_on_c, 0, 66, 62
2, 359178, Note_on_c, 0, 66, 0
2, 359198, Note_on_c, 0, 65, 66
2, 359208, Note_on_c, 0, 63, 0
2, 359239, Note_on_c, 0, 68, 0
2, 359443, Note_on_c, 0, 70, 73
2, 359448, Note_on_c, 0, 67, 61
2, 359465, Note_on_c, 0, 65, 0
2, 359818, Note_on_c, 0, 41, 66
2, 359826, Note_on_c, 0, 68, 58
2, 359855, Note_on_c, 0, 70, 0
2, 359863, Note_on_c, 0, 39, 0
2, 359878, Note_on_c, 0, 67, 0
2, 360231, Note_on_c, 0, 63, 63
2, 360231, Note_on_c, 0, 70, 65
2, 360240, Note_on_c, 0, 43, 52
2, 360243, Note_on_c, 0, 68, 0
2, 360246, Note_on_c, 0, 41, 0
2, 360507, Control_c, 0, 64, 32
2, 360526, Control_c, 0, 64, 55
2, 360545, Control_c, 0, 64, 62
2, 360564, Control_c, 0, 64, 64
2, 360584, Control_c, 0, 64, 66
2, 360603, Control_c, 0, 64, 69
2, 360608, Note_on_c, 0, 63, 0
2, 360613, Note_on_c, 0, 61, 51
2, 360622, Control_c, 0, 64, 71
2, 360641, Control_c, 0, 64, 71
2, 360661, Control_c, 0, 64, 69
2, 360679, Control_c, 0, 64, 64
2, 360699, Control_c, 0, 64, 56
2, 360718, Control_c, 0, 64, 28
2, 360738, Control_c, 0, 64, 0
2, 361032, Note_on_c, 0, 61, 0
2, 361033, Note_on_c, 0, 63, 52
2, 361040, Note_on_c, 0, 43, 0
2, 361050, Note_on_c, 0, 59, 45
2, 361051, Note_on_c, 0, 44, 41
2, 361060, Note_on_c, 0, 70, 0
2, 361256, Control_c, 0, 64, 28
2, 361275, Control_c, 0, 64, 45
2, 361293, Control_c, 0, 64, 54
2, 361313, Control_c, 0, 64, 59
2, 361332, Control_c, 0, 64, 62
2, 361352, Control_c, 0, 64, 63
2, 361370, Control_c, 0, 64, 64
2, 361390, Control_c, 0, 64, 65
2, 361396, Note_on_c, 0, 63, 0
2, 361409, Control_c, 0, 64, 66
2, 361419, Note_on_c, 0, 59, 0
2, 361420, Note_on_c, 0, 65, 54
2, 361429, Control_c, 0, 64, 67
2, 361437, Note_on_c, 0, 61, 51
2, 361447, Control_c, 0, 64, 68
2, 361467, Control_c, 0, 64, 70
2, 361486, Control_c, 0, 64, 73
2, 361505, Control_c, 0, 64, 75
2, 361524, Control_c, 0, 64, 76
2, 361544, Control_c, 0, 64, 77
2, 361563, Control_c, 0, 64, 78
2, 361601, Control_c, 0, 64, 78
2, 361621, Control_c, 0, 64, 79
2, 361639, Control_c, 0, 64, 80
2, 361716, Control_c, 0, 64, 81
2, 361736, Control_c, 0, 64, 82
2, 361755, Control_c, 0, 64, 83
2, 361773, Control_c, 0, 64, 83
2, 361793, Control_c, 0, 64, 83
2, 361811, Note_on_c, 0, 67, 68
2, 361812, Control_c, 0, 64, 80
2, 361813, Note_on_c, 0, 63, 67
2, 361818, Note_on_c, 0, 65, 0
2, 361824, Note_on_c, 0, 46, 52
2, 361832, Control_c, 0, 64, 73
2, 361850, Control_c, 0, 64, 63
2, 361866, Note_on_c, 0, 61, 0
2, 361869, Note_on_c, 0, 44, 0
2, 361870, Control_c, 0, 64, 22
2, 361889, Control_c, 0, 64, 0
2, 362004, Control_c, 0, 64, 50
2, 362024, Control_c, 0, 64, 61
2, 362043, Control_c, 0, 64, 65
2, 362062, Control_c, 0, 64, 68
2, 362081, Control_c, 0, 64, 71
2, 362101, Control_c, 0, 64, 74
2, 362119, Control_c, 0, 64, 79
2, 362139, Control_c, 0, 64, 85
2, 362158, Control_c, 0, 64, 91
2, 362178, Control_c, 0, 64, 99
2, 362196, Control_c, 0, 64, 104
2, 362212, Note_on_c, 0, 64, 74
2, 362215, Note_on_c, 0, 67, 0
2, 362216, Control_c, 0, 64, 108
2, 362216, Note_on_c, 0, 63, 0
2, 362235, Control_c, 0, 64, 113
2, 362253, Control_c, 0, 64, 127
2, 362601, Note_on_c, 0, 47, 61
2, 362609, Note_on_c, 0, 46, 0
2, 362620, Control_c, 0, 64, 99
2, 362629, Note_on_c, 0, 68, 83
2, 362639, Control_c, 0, 64, 74
2, 362643, Note_on_c, 0, 63, 68
2, 362659, Control_c, 0, 64, 54
2, 362672, Note_on_c, 0, 64, 0
2, 362677, Control_c, 0, 64, 0
2, 362754, Control_c, 0, 64, 42
2, 362775, Control_c, 0, 64, 63
2, 362794, Control_c, 0, 64, 69
2, 362812, Control_c, 0, 64, 78
2, 362832, Control_c, 0, 64, 94
2, 362851, Control_c, 0, 64, 127
2, 362867, Note_on_c, 0, 63, 0
2, 362927, Note_on_c, 0, 68, 0
2, 363003, Note_on_c, 0, 47, 0
2, 363005, Note_on_c, 0, 49, 76
2, 363394, Note_on_c, 0, 56, 61
2, 363408, Note_on_c, 0, 47, 57
2, 363461, Note_on_c, 0, 49, 0
2, 363469, Note_on_c, 0, 80, 85
2, 363519, Control_c, 0, 64, 116
2, 363539, Control_c, 0, 64, 83
2, 363558, Control_c, 0, 64, 65
2, 363577, Control_c, 0, 64, 39
2, 363596, Control_c, 0, 64, 0
2, 363813, Note_on_c, 0, 46, 64
2, 363832, Note_on_c, 0, 47, 0
2, 364218, Note_on_c, 0, 44, 52
2, 364227, Note_on_c, 0, 75, 84
2, 364239, Note_on_c, 0, 46, 0
2, 364310, Control_c, 0, 64, 48
2, 364314, Note_on_c, 0, 80, 0
2, 364328, Control_c, 0, 64, 60
2, 364348, Control_c, 0, 64, 63
2, 364367, Control_c, 0, 64, 64
2, 364373, Note_on_c, 0, 56, 0
2, 364386, Control_c, 0, 64, 67
2, 364405, Control_c, 0, 64, 72
2, 364425, Control_c, 0, 64, 79
2, 364443, Control_c, 0, 64, 92
2, 364463, Control_c, 0, 64, 127
2, 364597, Control_c, 0, 64, 85
2, 364613, Note_on_c, 0, 46, 63
2, 364615, Note_on_c, 0, 55, 64
2, 364617, Control_c, 0, 64, 68
2, 364636, Control_c, 0, 64, 56
2, 364646, Note_on_c, 0, 44, 0
2, 364655, Control_c, 0, 64, 27
2, 364674, Control_c, 0, 64, 34
2, 364693, Control_c, 0, 64, 52
2, 364713, Control_c, 0, 64, 62
2, 364730, Note_on_c, 0, 55, 0
2, 364731, Control_c, 0, 64, 66
2, 364751, Control_c, 0, 64, 70
2, 364770, Control_c, 0, 64, 76
2, 364789, Control_c, 0, 64, 83
2, 364805, Note_on_c, 0, 46, 0
2, 364808, Control_c, 0, 64, 92
2, 364828, Control_c, 0, 64, 97
2, 364847, Control_c, 0, 64, 102
2, 364866, Control_c, 0, 64, 108
2, 364885, Control_c, 0, 64, 123
2, 364905, Control_c, 0, 64, 127
2, 364982, Control_c, 0, 64, 89
2, 364989, Note_on_c, 0, 56, 76
2, 364996, Note_on_c, 0, 47, 61
2, 365000, Control_c, 0, 64, 70
2, 365020, Control_c, 0, 64, 54
2, 365039, Control_c, 0, 64, 0
2, 365077, Control_c, 0, 64, 21
2, 365097, Control_c, 0, 64, 55
2, 365113, Control_c, 0, 64, 64
2, 365132, Control_c, 0, 64, 69
2, 365151, Control_c, 0, 64, 76
2, 365171, Control_c, 0, 64, 86
2, 365178, Note_on_c, 0, 56, 0
2, 365190, Control_c, 0, 64, 95
2, 365209, Control_c, 0, 64, 103
2, 365228, Control_c, 0, 64, 108
2, 365248, Control_c, 0, 64, 112
2, 365265, Control_c, 0, 64, 115
2, 365284, Control_c, 0, 64, 119
2, 365303, Control_c, 0, 64, 127
2, 365360, Control_c, 0, 64, 108
2, 365362, Note_on_c, 0, 47, 0
2, 365372, Note_on_c, 0, 52, 64
2, 365372, Note_on_c, 0, 73, 80
2, 365374, Note_on_c, 0, 58, 69
2, 365380, Control_c, 0, 64, 84
2, 365399, Control_c, 0, 64, 67
2, 365418, Control_c, 0, 64, 38
2, 365423, Note_on_c, 0, 75, 0
2, 365437, Control_c, 0, 64, 0
2, 365495, Control_c, 0, 64, 51
2, 365514, Control_c, 0, 64, 64
2, 365525, Note_on_c, 0, 49, 69
2, 365534, Control_c, 0, 64, 69
2, 365552, Control_c, 0, 64, 76
2, 365568, Note_on_c, 0, 52, 0
2, 365572, Control_c, 0, 64, 84
2, 365577, Note_on_c, 0, 58, 0
2, 365591, Control_c, 0, 64, 90
2, 365600, Note_on_c, 0, 49, 0
2, 365611, Control_c, 0, 64, 95
2, 365629, Control_c, 0, 64, 98
2, 365654, Control_c, 0, 64, 101
2, 365672, Control_c, 0, 64, 104
2, 365692, Control_c, 0, 64, 107
2, 365711, Control_c, 0, 64, 108
2, 365749, Control_c, 0, 64, 109
2, 365769, Control_c, 0, 64, 108
2, 365776, Note_on_c, 0, 59, 69
2, 365780, Note_on_c, 0, 75, 78
2, 365788, Control_c, 0, 64, 103
2, 365788, Note_on_c, 0, 56, 63
2, 365807, Control_c, 0, 64, 86
2, 365826, Control_c, 0, 64, 69
2, 365846, Control_c, 0, 64, 42
2, 365851, Note_on_c, 0, 73, 0
2, 365865, Control_c, 0, 64, 0
2, 365941, Control_c, 0, 64, 39
2, 365960, Control_c, 0, 64, 60
2, 365971, Note_on_c, 0, 59, 0
2, 365980, Control_c, 0, 64, 66
2, 365999, Control_c, 0, 64, 70
2, 366018, Control_c, 0, 64, 78
2, 366037, Control_c, 0, 64, 92
2, 366057, Control_c, 0, 64, 110
2, 366076, Control_c, 0, 64, 127
2, 366172, Control_c, 0, 64, 99
2, 366177, Note_on_c, 0, 56, 0
2, 366178, Note_on_c, 0, 58, 69
2, 366191, Control_c, 0, 64, 76
2, 366211, Control_c, 0, 64, 62
2, 366226, Control_c, 0, 64, 0
2, 366508, Note_on_c, 0, 58, 0
2, 366530, Note_on_c, 0, 56, 66
2, 366551, Note_on_c, 0, 47, 62
2, 366669, Control_c, 0, 64, 38
2, 366689, Control_c, 0, 64, 57
2, 366707, Control_c, 0, 64, 63
2, 366727, Control_c, 0, 64, 66
2, 366746, Control_c, 0, 64, 69
2, 366766, Control_c, 0, 64, 76
2, 366784, Control_c, 0, 64, 88
2, 366804, Control_c, 0, 64, 110
2, 366806, Note_on_c, 0, 47, 0
2, 366823, Control_c, 0, 64, 127
2, 366929, Note_on_c, 0, 77, 79
2, 366930, Note_on_c, 0, 49, 66
2, 366935, Note_on_c, 0, 75, 0
2, 366975, Note_on_c, 0, 49, 0
2, 367006, Note_on_c, 0, 56, 0
2, 367325, Note_on_c, 0, 63, 68
2, 367333, Note_on_c, 0, 51, 60
2, 367336, Note_on_c, 0, 78, 81
2, 367341, Control_c, 0, 64, 91
2, 367360, Control_c, 0, 64, 68
2, 367368, Note_on_c, 0, 77, 0
2, 367380, Control_c, 0, 64, 28
2, 367398, Control_c, 0, 64, 0
2, 367475, Control_c, 0, 64, 36
2, 367495, Control_c, 0, 64, 59
2, 367514, Control_c, 0, 64, 65
2, 367533, Control_c, 0, 64, 69
2, 367552, Control_c, 0, 64, 76
2, 367572, Control_c, 0, 64, 83
2, 367591, Control_c, 0, 64, 89
2, 367610, Control_c, 0, 64, 95
2, 367629, Control_c, 0, 64, 99
2, 367649, Control_c, 0, 64, 99
2, 367667, Control_c, 0, 64, 99
2, 367687, Control_c, 0, 64, 94
2, 367706, Control_c, 0, 64, 86
2, 367716, Note_on_c, 0, 50, 66
2, 367726, Control_c, 0, 64, 75
2, 367738, Note_on_c, 0, 63, 0
2, 367744, Control_c, 0, 64, 64
2, 367750, Note_on_c, 0, 51, 0
2, 367763, Control_c, 0, 64, 40
2, 367783, Control_c, 0, 64, 0
2, 368104, Note_on_c, 0, 58, 67
2, 368113, Note_on_c, 0, 51, 58
2, 368148, Note_on_c, 0, 50, 0
2, 368186, Control_c, 0, 64, 42
2, 368206, Control_c, 0, 64, 62
2, 368224, Control_c, 0, 64, 65
2, 368243, Control_c, 0, 64, 67
2, 368263, Control_c, 0, 64, 69
2, 368281, Control_c, 0, 64, 72
2, 368301, Control_c, 0, 64, 76
2, 368320, Control_c, 0, 64, 82
2, 368340, Control_c, 0, 64, 89
2, 368358, Control_c, 0, 64, 97
2, 368378, Control_c, 0, 64, 109
2, 368397, Control_c, 0, 64, 118
2, 368416, Control_c, 0, 64, 119
2, 368486, Note_on_c, 0, 51, 0
2, 368487, Note_on_c, 0, 53, 58
2, 368490, Note_on_c, 0, 77, 76
2, 368493, Control_c, 0, 64, 114
2, 368512, Control_c, 0, 64, 93
2, 368532, Control_c, 0, 64, 74
2, 368551, Control_c, 0, 64, 61
2, 368570, Control_c, 0, 64, 0
2, 368581, Note_on_c, 0, 78, 0
2, 368627, Control_c, 0, 64, 23
2, 368647, Control_c, 0, 64, 58
2, 368666, Control_c, 0, 64, 65
2, 368686, Control_c, 0, 64, 71
2, 368704, Control_c, 0, 64, 81
2, 368723, Control_c, 0, 64, 94
2, 368743, Control_c, 0, 64, 111
2, 368761, Control_c, 0, 64, 127
2, 368800, Control_c, 0, 64, 118
2, 368820, Control_c, 0, 64, 98
2, 368838, Control_c, 0, 64, 79
2, 368858, Control_c, 0, 64, 65
2, 368877, Control_c, 0, 64, 50
2, 368885, Note_on_c, 0, 75, 83
2, 368892, Note_on_c, 0, 54, 59
2, 368896, Control_c, 0, 64, 34
2, 368915, Control_c, 0, 64, 47
2, 368926, Note_on_c, 0, 77, 0
2, 368934, Note_on_c, 0, 53, 0
2, 368935, Control_c, 0, 64, 59
2, 368954, Control_c, 0, 64, 64
2, 368973, Control_c, 0, 64, 69
2, 368983, Note_on_c, 0, 54, 0
2, 368992, Control_c, 0, 64, 76
2, 369006, Note_on_c, 0, 58, 0
2, 369012, Control_c, 0, 64, 85
2, 369031, Control_c, 0, 64, 95
2, 369050, Control_c, 0, 64, 104
2, 369069, Control_c, 0, 64, 127
2, 369241, Control_c, 0, 64, 91
2, 369256, Note_on_c, 0, 59, 77
2, 369260, Control_c, 0, 64, 70
2, 369261, Note_on_c, 0, 56, 64
2, 369279, Control_c, 0, 64, 53
2, 369299, Control_c, 0, 64, 0
2, 369337, Control_c, 0, 64, 32
2, 369356, Control_c, 0, 64, 59
2, 369376, Control_c, 0, 64, 66
2, 369394, Control_c, 0, 64, 73
2, 369414, Control_c, 0, 64, 84
2, 369433, Control_c, 0, 64, 101
2, 369452, Control_c, 0, 64, 127
2, 369481, Note_on_c, 0, 59, 0
2, 369651, Note_on_c, 0, 53, 57
2, 369657, Note_on_c, 0, 61, 58
2, 369691, Note_on_c, 0, 82, 87
2, 369736, Note_on_c, 0, 56, 0
2, 369740, Control_c, 0, 64, 78
2, 369759, Control_c, 0, 64, 62
2, 369779, Control_c, 0, 64, 0
2, 369786, Note_on_c, 0, 75, 0
2, 369836, Control_c, 0, 64, 29
2, 369856, Control_c, 0, 64, 58
2, 369874, Control_c, 0, 64, 65
2, 369894, Control_c, 0, 64, 72
2, 369913, Control_c, 0, 64, 83
2, 369932, Control_c, 0, 64, 99
2, 369951, Control_c, 0, 64, 127
2, 370048, Control_c, 0, 64, 101
2, 370065, Note_on_c, 0, 55, 66
2, 370066, Control_c, 0, 64, 76
2, 370086, Control_c, 0, 64, 62
2, 370092, Note_on_c, 0, 53, 0
2, 370105, Control_c, 0, 64, 0
2, 370457, Note_on_c, 0, 56, 53
2, 370479, Note_on_c, 0, 75, 76
2, 370506, Note_on_c, 0, 55, 0
2, 370550, Note_on_c, 0, 82, 0
2, 370603, Control_c, 0, 64, 48
2, 370622, Control_c, 0, 64, 60
2, 370641, Control_c, 0, 64, 64
2, 370661, Control_c, 0, 64, 67
2, 370680, Control_c, 0, 64, 71
2, 370699, Control_c, 0, 64, 78
2, 370718, Control_c, 0, 64, 90
2, 370738, Control_c, 0, 64, 109
2, 370756, Control_c, 0, 64, 127
2, 370866, Note_on_c, 0, 56, 0
2, 370879, Note_on_c, 0, 73, 55
2, 370889, Note_on_c, 0, 58, 46
2, 370910, Control_c, 0, 64, 116
2, 370930, Control_c, 0, 64, 80
2, 370949, Control_c, 0, 64, 64
2, 370968, Control_c, 0, 64, 31
2, 370987, Control_c, 0, 64, 0
2, 371026, Control_c, 0, 64, 49
2, 371045, Control_c, 0, 64, 62
2, 371064, Control_c, 0, 64, 67
2, 371083, Control_c, 0, 64, 74
2, 371102, Control_c, 0, 64, 87
2, 371121, Control_c, 0, 64, 119
2, 371141, Control_c, 0, 64, 127
2, 371256, Control_c, 0, 64, 101
2, 371270, Note_on_c, 0, 71, 54
2, 371272, Note_on_c, 0, 56, 46
2, 371273, Note_on_c, 0, 75, 0
2, 371275, Control_c, 0, 64, 75
2, 371278, Note_on_c, 0, 58, 0
2, 371278, Note_on_c, 0, 73, 0
2, 371295, Control_c, 0, 64, 62
2, 371313, Control_c, 0, 64, 36
2, 371333, Control_c, 0, 64, 25
2, 371352, Control_c, 0, 64, 43
2, 371371, Control_c, 0, 64, 58
2, 371390, Control_c, 0, 64, 64
2, 371409, Note_on_c, 0, 61, 0
2, 371410, Control_c, 0, 64, 67
2, 371429, Control_c, 0, 64, 71
2, 371448, Control_c, 0, 64, 78
2, 371467, Control_c, 0, 64, 87
2, 371487, Control_c, 0, 64, 97
2, 371506, Control_c, 0, 64, 108
2, 371525, Control_c, 0, 64, 118
2, 371544, Control_c, 0, 64, 119
2, 371582, Control_c, 0, 64, 117
2, 371601, Control_c, 0, 64, 104
2, 371621, Control_c, 0, 64, 85
2, 371633, Note_on_c, 0, 75, 56
2, 371640, Control_c, 0, 64, 69
2, 371647, Note_on_c, 0, 54, 40
2, 371651, Note_on_c, 0, 70, 45
2, 371659, Control_c, 0, 64, 54
2, 371662, Note_on_c, 0, 71, 0
2, 371678, Control_c, 0, 64, 0
2, 371716, Control_c, 0, 64, 34
2, 371736, Control_c, 0, 64, 58
2, 371755, Control_c, 0, 64, 64
2, 371767, Note_on_c, 0, 56, 0
2, 371775, Control_c, 0, 64, 68
2, 371780, Note_on_c, 0, 54, 0
2, 371793, Control_c, 0, 64, 74
2, 371813, Control_c, 0, 64, 82
2, 371832, Control_c, 0, 64, 90
2, 371851, Control_c, 0, 64, 95
2, 371870, Control_c, 0, 64, 98
2, 371890, Control_c, 0, 64, 98
2, 371909, Control_c, 0, 64, 99
2, 371928, Control_c, 0, 64, 101
2, 371947, Control_c, 0, 64, 106
2, 371967, Control_c, 0, 64, 111
2, 371986, Control_c, 0, 64, 112
2, 371987, Note_on_c, 0, 53, 44
2, 371998, Note_on_c, 0, 75, 0
2, 372009, Note_on_c, 0, 74, 63
2, 372017, Note_on_c, 0, 70, 0
2, 372018, Note_on_c, 0, 68, 58
2, 372023, Control_c, 0, 64, 108
2, 372042, Control_c, 0, 64, 98
2, 372061, Control_c, 0, 64, 82
2, 372080, Control_c, 0, 64, 64
2, 372100, Control_c, 0, 64, 28
2, 372119, Control_c, 0, 64, 0
2, 372177, Control_c, 0, 64, 28
2, 372196, Control_c, 0, 64, 57
2, 372215, Control_c, 0, 64, 64
2, 372234, Control_c, 0, 64, 67
2, 372254, Control_c, 0, 64, 71
2, 372272, Control_c, 0, 64, 77
2, 372292, Control_c, 0, 64, 84
2, 372311, Control_c, 0, 64, 93
2, 372331, Control_c, 0, 64, 102
2, 372349, Control_c, 0, 64, 113
2, 372370, Control_c, 0, 64, 119
2, 372375, Note_on_c, 0, 51, 50
2, 372386, Note_on_c, 0, 53, 0
2, 372389, Control_c, 0, 64, 118
2, 372390, Note_on_c, 0, 75, 77
2, 372403, Note_on_c, 0, 66, 58
2, 372403, Note_on_c, 0, 68, 0
2, 372408, Control_c, 0, 64, 104
2, 372427, Control_c, 0, 64, 85
2, 372439, Note_on_c, 0, 74, 0
2, 372447, Control_c, 0, 64, 69
2, 372466, Control_c, 0, 64, 54
2, 372485, Control_c, 0, 64, 0
2, 372523, Control_c, 0, 64, 23
2, 372542, Control_c, 0, 64, 53
2, 372561, Control_c, 0, 64, 63
2, 372581, Control_c, 0, 64, 66
2, 372600, Control_c, 0, 64, 71
2, 372619, Control_c, 0, 64, 79
2, 372638, Control_c, 0, 64, 91
2, 372658, Control_c, 0, 64, 104
2, 372676, Control_c, 0, 64, 123
2, 372696, Control_c, 0, 64, 127
2, 372746, Note_on_c, 0, 51, 0
2, 372753, Control_c, 0, 64, 112
2, 372773, Control_c, 0, 64, 86
2, 372780, Note_on_c, 0, 50, 47
2, 372784, Note_on_c, 0, 68, 50
2, 372785, Note_on_c, 0, 77, 62
2, 372792, Control_c, 0, 64, 68
2, 372793, Note_on_c, 0, 66, 0
2, 372807, Note_on_c, 0, 75, 0
2, 372811, Control_c, 0, 64, 49
2, 372830, Control_c, 0, 64, 0
2, 372907, Control_c, 0, 64, 47
2, 372927, Control_c, 0, 64, 62
2, 372946, Control_c, 0, 64, 66
2, 372963, Control_c, 0, 64, 71
2, 372983, Control_c, 0, 64, 78
2, 373002, Control_c, 0, 64, 88
2, 373021, Control_c, 0, 64, 99
2, 373040, Control_c, 0, 64, 127
2, 373153, Note_on_c, 0, 77, 0
2, 373156, Note_on_c, 0, 50, 0
2, 373156, Note_on_c, 0, 74, 63
2, 373175, Control_c, 0, 64, 86
2, 373183, Note_on_c, 0, 59, 48
2, 373191, Note_on_c, 0, 65, 47
2, 373194, Control_c, 0, 64, 66
2, 373199, Note_on_c, 0, 68, 0
2, 373214, Control_c, 0, 64, 49
2, 373232, Control_c, 0, 64, 0
2, 373252, Control_c, 0, 64, 18
2, 373271, Control_c, 0, 64, 46
2, 373291, Control_c, 0, 64, 60
2, 373304, Note_on_c, 0, 65, 0
2, 373306, Control_c, 0, 64, 65
2, 373329, Control_c, 0, 64, 70
2, 373348, Control_c, 0, 64, 76
2, 373367, Control_c, 0, 64, 86
2, 373386, Control_c, 0, 64, 100
2, 373406, Control_c, 0, 64, 127
2, 373552, Note_on_c, 0, 75, 75
2, 373559, Control_c, 0, 64, 97
2, 373563, Note_on_c, 0, 58, 54
2, 373565, Note_on_c, 0, 74, 0
2, 373567, Note_on_c, 0, 66, 64
2, 373578, Control_c, 0, 64, 73
2, 373581, Note_on_c, 0, 59, 0
2, 373598, Control_c, 0, 64, 56
2, 373617, Control_c, 0, 64, 15
2, 373636, Control_c, 0, 64, 0
2, 373655, Control_c, 0, 64, 39
2, 373675, Control_c, 0, 64, 58
2, 373693, Control_c, 0, 64, 64
2, 373707, Note_on_c, 0, 66, 0
2, 373712, Control_c, 0, 64, 68
2, 373732, Control_c, 0, 64, 76
2, 373751, Control_c, 0, 64, 87
2, 373770, Control_c, 0, 64, 102
2, 373789, Control_c, 0, 64, 127
2, 373900, Note_on_c, 0, 75, 0
2, 373937, Note_on_c, 0, 56, 62
2, 373938, Note_on_c, 0, 77, 77
2, 373939, Note_on_c, 0, 68, 71
2, 373941, Control_c, 0, 64, 96
2, 373961, Control_c, 0, 64, 73
2, 373972, Note_on_c, 0, 58, 0
2, 373979, Control_c, 0, 64, 59
2, 373999, Control_c, 0, 64, 20
2, 374011, Note_on_c, 0, 68, 0
2, 374018, Control_c, 0, 64, 25
2, 374038, Control_c, 0, 64, 48
2, 374056, Control_c, 0, 64, 61
2, 374076, Control_c, 0, 64, 66
2, 374095, Control_c, 0, 64, 72
2, 374114, Control_c, 0, 64, 84
2, 374133, Control_c, 0, 64, 101
2, 374152, Control_c, 0, 64, 127
2, 374311, Note_on_c, 0, 78, 82
2, 374319, Note_on_c, 0, 54, 64
2, 374326, Note_on_c, 0, 70, 67
2, 374328, Control_c, 0, 64, 103
2, 374346, Note_on_c, 0, 77, 0
2, 374347, Control_c, 0, 64, 75
2, 374349, Note_on_c, 0, 56, 0
2, 374367, Control_c, 0, 64, 61
2, 374385, Control_c, 0, 64, 0
2, 374424, Control_c, 0, 64, 18
2, 374444, Control_c, 0, 64, 55
2, 374462, Control_c, 0, 64, 64
2, 374466, Note_on_c, 0, 70, 0
2, 374482, Control_c, 0, 64, 70
2, 374501, Control_c, 0, 64, 78
2, 374520, Control_c, 0, 64, 93
2, 374539, Control_c, 0, 64, 118
2, 374559, Control_c, 0, 64, 127
2, 374684, Note_on_c, 0, 54, 0
2, 374698, Note_on_c, 0, 80, 89
2, 374702, Note_on_c, 0, 53, 67
2, 374709, Note_on_c, 0, 78, 0
2, 374712, Control_c, 0, 64, 118
2, 374716, Note_on_c, 0, 68, 72
2, 374731, Control_c, 0, 64, 80
2, 374750, Control_c, 0, 64, 64
2, 374770, Control_c, 0, 64, 34
2, 374788, Control_c, 0, 64, 0
2, 374808, Control_c, 0, 64, 11
2, 374827, Control_c, 0, 64, 54
2, 374847, Control_c, 0, 64, 64
2, 374862, Control_c, 0, 64, 70
2, 374881, Control_c, 0, 64, 80
2, 374900, Control_c, 0, 64, 100
2, 374920, Control_c, 0, 64, 127
2, 375054, Control_c, 0, 64, 99
2, 375073, Control_c, 0, 64, 73
2, 375092, Control_c, 0, 64, 60
2, 375095, Note_on_c, 0, 82, 85
2, 375100, Note_on_c, 0, 51, 63
2, 375111, Control_c, 0, 64, 36
2, 375118, Note_on_c, 0, 53, 0
2, 375128, Note_on_c, 0, 80, 0
2, 375131, Control_c, 0, 64, 45
2, 375149, Control_c, 0, 64, 60
2, 375165, Note_on_c, 0, 82, 0
2, 375169, Control_c, 0, 64, 66
2, 375173, Note_on_c, 0, 68, 0
2, 375188, Control_c, 0, 64, 74
2, 375208, Control_c, 0, 64, 94
2, 375226, Control_c, 0, 64, 127
2, 375398, Note_on_c, 0, 51, 0
2, 375440, Control_c, 0, 64, 95
2, 375457, Note_on_c, 0, 70, 80
2, 375459, Control_c, 0, 64, 70
2, 375463, Note_on_c, 0, 66, 69
2, 375469, Note_on_c, 0, 49, 74
2, 375479, Control_c, 0, 64, 54
2, 375497, Control_c, 0, 64, 27
2, 375517, Control_c, 0, 64, 43
2, 375536, Control_c, 0, 64, 59
2, 375555, Control_c, 0, 64, 66
2, 375569, Note_on_c, 0, 49, 0
2, 375574, Control_c, 0, 64, 72
2, 375582, Note_on_c, 0, 70, 0
2, 375585, Note_on_c, 0, 66, 0
2, 375593, Control_c, 0, 64, 86
2, 375613, Control_c, 0, 64, 113
2, 375615, Note_on_c, 0, 65, 68
2, 375631, Control_c, 0, 64, 127
2, 375651, Note_on_c, 0, 65, 0
2, 375823, Note_on_c, 0, 47, 63
2, 375852, Note_on_c, 0, 75, 86
2, 375863, Note_on_c, 0, 66, 73
2, 375882, Note_on_c, 0, 47, 0
2, 375889, Note_on_c, 0, 49, 75
2, 375901, Control_c, 0, 64, 92
2, 375921, Control_c, 0, 64, 67
2, 375940, Control_c, 0, 64, 0
2, 375965, Note_on_c, 0, 49, 0
2, 375977, Note_on_c, 0, 47, 69
2, 376039, Note_on_c, 0, 47, 0
2, 376049, Note_on_c, 0, 49, 66
2, 376127, Note_on_c, 0, 49, 0
2, 376129, Note_on_c, 0, 47, 62
2, 376176, Note_on_c, 0, 66, 0
2, 376208, Note_on_c, 0, 47, 0
2, 376217, Note_on_c, 0, 49, 70
2, 376235, Note_on_c, 0, 68, 79
2, 376235, Note_on_c, 0, 77, 80
2, 376281, Note_on_c, 0, 47, 55
2, 376288, Note_on_c, 0, 49, 0
2, 376288, Note_on_c, 0, 75, 0
2, 376348, Note_on_c, 0, 47, 0
2, 376364, Note_on_c, 0, 49, 71
2, 376449, Note_on_c, 0, 47, 56
2, 376479, Note_on_c, 0, 49, 0
2, 376732, Note_on_c, 0, 46, 77
2, 376744, Note_on_c, 0, 74, 78
2, 376748, Note_on_c, 0, 68, 0
2, 376750, Note_on_c, 0, 65, 73
2, 376752, Note_on_c, 0, 47, 0
2, 376792, Note_on_c, 0, 77, 0
2, 376820, Control_c, 0, 64, 32
2, 376840, Control_c, 0, 64, 66
2, 376858, Control_c, 0, 64, 75
2, 376878, Control_c, 0, 64, 89
2, 376897, Control_c, 0, 64, 105
2, 376917, Control_c, 0, 64, 127
2, 377159, Note_on_c, 0, 65, 0
2, 377264, Note_on_c, 0, 74, 0
2, 377647, Note_on_c, 0, 58, 80
2, 377648, Note_on_c, 0, 51, 70
2, 377723, Control_c, 0, 64, 91
2, 377736, Note_on_c, 0, 46, 0
2, 377742, Control_c, 0, 64, 67
2, 377760, Control_c, 0, 64, 0
2, 378525, Note_on_c, 0, 63, 81
2, 378534, Note_on_c, 0, 70, 78
2, 378627, Control_c, 0, 64, 23
2, 378645, Control_c, 0, 64, 61
2, 378665, Control_c, 0, 64, 66
2, 378684, Control_c, 0, 64, 68
2, 378704, Control_c, 0, 64, 71
2, 378722, Control_c, 0, 64, 76
2, 378742, Control_c, 0, 64, 83
2, 378761, Control_c, 0, 64, 93
2, 378780, Control_c, 0, 64, 114
2, 378799, Control_c, 0, 64, 127
2, 378948, Note_on_c, 0, 51, 0
2, 378955, Note_on_c, 0, 52, 69
2, 379319, Control_c, 0, 64, 83
2, 379338, Control_c, 0, 64, 62
2, 379342, Note_on_c, 0, 75, 85
2, 379355, Note_on_c, 0, 51, 60
2, 379357, Control_c, 0, 64, 0
2, 379395, Note_on_c, 0, 52, 0
2, 379454, Control_c, 0, 64, 41
2, 379472, Control_c, 0, 64, 62
2, 379492, Control_c, 0, 64, 67
2, 379511, Control_c, 0, 64, 74
2, 379530, Control_c, 0, 64, 84
2, 379549, Control_c, 0, 64, 98
2, 379564, Note_on_c, 0, 63, 0
2, 379569, Control_c, 0, 64, 127
2, 379721, Note_on_c, 0, 64, 79
2, 379730, Note_on_c, 0, 49, 68
2, 379741, Control_c, 0, 64, 97
2, 379757, Note_on_c, 0, 51, 0
2, 379760, Control_c, 0, 64, 71
2, 379780, Control_c, 0, 64, 50
2, 379799, Control_c, 0, 64, 0
2, 379809, Note_on_c, 0, 58, 0
2, 379857, Control_c, 0, 64, 55
2, 379875, Control_c, 0, 64, 65
2, 379875, Note_on_c, 0, 64, 0
2, 379895, Control_c, 0, 64, 70
2, 379914, Control_c, 0, 64, 80
2, 379934, Control_c, 0, 64, 96
2, 379952, Control_c, 0, 64, 119
2, 379972, Control_c, 0, 64, 127
2, 380090, Note_on_c, 0, 49, 0
2, 380127, Control_c, 0, 64, 103
2, 380130, Note_on_c, 0, 63, 83
2, 380139, Note_on_c, 0, 47, 68
2, 380145, Control_c, 0, 64, 75
2, 380164, Control_c, 0, 64, 58
2, 380184, Control_c, 0, 64, 0
2, 380186, Note_on_c, 0, 75, 0
2, 380216, Note_on_c, 0, 70, 0
2, 380241, Control_c, 0, 64, 52
2, 380261, Control_c, 0, 64, 64
2, 380276, Note_on_c, 0, 47, 0
2, 380280, Control_c, 0, 64, 70
2, 380299, Control_c, 0, 64, 81
2, 380318, Control_c, 0, 64, 100
2, 380338, Control_c, 0, 64, 127
2, 380498, Note_on_c, 0, 63, 0
2, 380530, Note_on_c, 0, 61, 75
2, 380532, Note_on_c, 0, 76, 85
2, 380537, Note_on_c, 0, 49, 68
2, 380549, Control_c, 0, 64, 116
2, 380568, Control_c, 0, 64, 78
2, 380587, Control_c, 0, 64, 62
2, 380607, Control_c, 0, 64, 0
2, 380644, Control_c, 0, 64, 29
2, 380656, Note_on_c, 0, 61, 0
2, 380664, Control_c, 0, 64, 58
2, 380683, Control_c, 0, 64, 65
2, 380702, Control_c, 0, 64, 71
2, 380721, Control_c, 0, 64, 82
2, 380741, Control_c, 0, 64, 98
2, 380760, Control_c, 0, 64, 127
2, 380913, Control_c, 0, 64, 109
2, 380927, Note_on_c, 0, 49, 0
2, 380932, Note_on_c, 0, 75, 84
2, 380933, Control_c, 0, 64, 77
2, 380934, Note_on_c, 0, 59, 73
2, 380940, Note_on_c, 0, 51, 64
2, 380952, Control_c, 0, 64, 62
2, 380971, Control_c, 0, 64, 0
2, 380999, Note_on_c, 0, 76, 0
2, 381019, Note_on_c, 0, 59, 0
2, 381029, Control_c, 0, 64, 55
2, 381048, Control_c, 0, 64, 65
2, 381067, Control_c, 0, 64, 71
2, 381087, Control_c, 0, 64, 81
2, 381105, Control_c, 0, 64, 97
2, 381124, Control_c, 0, 64, 127
2, 381330, Note_on_c, 0, 73, 82
2, 381332, Note_on_c, 0, 61, 77
2, 381365, Note_on_c, 0, 75, 0
2, 381367, Note_on_c, 0, 61, 0
2, 381382, Note_on_c, 0, 51, 0
2, 381753, Note_on_c, 0, 44, 67
2, 381757, Note_on_c, 0, 71, 78
2, 381763, Note_on_c, 0, 63, 71
2, 381798, Control_c, 0, 64, 96
2, 381804, Note_on_c, 0, 73, 0
2, 381817, Control_c, 0, 64, 69
2, 381837, Control_c, 0, 64, 0
2, 382151, Note_on_c, 0, 46, 66
2, 382161, Note_on_c, 0, 73, 79
2, 382166, Note_on_c, 0, 44, 0
2, 382233, Note_on_c, 0, 71, 0
2, 382573, Note_on_c, 0, 75, 84
2, 382575, Note_on_c, 0, 56, 70
2, 382580, Note_on_c, 0, 47, 65
2, 382610, Note_on_c, 0, 73, 0
2, 382643, Control_c, 0, 64, 61
2, 382652, Note_on_c, 0, 46, 0
2, 382663, Control_c, 0, 64, 67
2, 382682, Control_c, 0, 64, 74
2, 382701, Control_c, 0, 64, 80
2, 382720, Control_c, 0, 64, 85
2, 382740, Control_c, 0, 64, 91
2, 382758, Control_c, 0, 64, 100
2, 382777, Control_c, 0, 64, 127
2, 382953, Note_on_c, 0, 54, 79
2, 382990, Note_on_c, 0, 56, 0
2, 383317, Control_c, 0, 64, 87
2, 383336, Control_c, 0, 64, 68
2, 383352, Note_on_c, 0, 47, 0
2, 383356, Control_c, 0, 64, 35
2, 383374, Control_c, 0, 64, 0
2, 383377, Note_on_c, 0, 53, 69
2, 383383, Note_on_c, 0, 49, 64
2, 383387, Note_on_c, 0, 68, 78
2, 383413, Note_on_c, 0, 54, 0
2, 383426, Note_on_c, 0, 63, 0
2, 383448, Note_on_c, 0, 75, 0
2, 383796, Note_on_c, 0, 70, 78
2, 383815, Note_on_c, 0, 68, 0
2, 383950, Note_on_c, 0, 71, 75
2, 383973, Note_on_c, 0, 70, 0
2, 384173, Note_on_c, 0, 49, 0
2, 384174, Note_on_c, 0, 61, 72
2, 384176, Note_on_c, 0, 42, 67
2, 384176, Note_on_c, 0, 70, 79
2, 384209, Note_on_c, 0, 71, 0
2, 384223, Note_on_c, 0, 53, 0
2, 384256, Control_c, 0, 64, 35
2, 384275, Control_c, 0, 64, 60
2, 384294, Control_c, 0, 64, 62
2, 384333, Control_c, 0, 64, 62
2, 384352, Control_c, 0, 64, 61
2, 384371, Control_c, 0, 64, 57
2, 384391, Control_c, 0, 64, 41
2, 384409, Control_c, 0, 64, 0
2, 384558, Note_on_c, 0, 71, 75
2, 384596, Note_on_c, 0, 70, 0
2, 384959, Note_on_c, 0, 73, 79
2, 384968, Note_on_c, 0, 54, 64
2, 385003, Note_on_c, 0, 71, 0
2, 385063, Control_c, 0, 64, 24
2, 385082, Control_c, 0, 64, 59
2, 385101, Control_c, 0, 64, 63
2, 385120, Control_c, 0, 64, 64
2, 385140, Control_c, 0, 64, 65
2, 385158, Control_c, 0, 64, 67
2, 385177, Control_c, 0, 64, 69
2, 385197, Control_c, 0, 64, 73
2, 385216, Control_c, 0, 64, 79
2, 385235, Control_c, 0, 64, 86
2, 385254, Control_c, 0, 64, 90
2, 385274, Control_c, 0, 64, 88
2, 385293, Control_c, 0, 64, 77
2, 385312, Control_c, 0, 64, 65
2, 385331, Control_c, 0, 64, 36
2, 385351, Control_c, 0, 64, 0
2, 385353, Note_on_c, 0, 41, 65
2, 385377, Note_on_c, 0, 42, 0
2, 385486, Control_c, 0, 64, 21
2, 385505, Control_c, 0, 64, 52
2, 385524, Control_c, 0, 64, 60
2, 385544, Control_c, 0, 64, 63
2, 385563, Control_c, 0, 64, 65
2, 385582, Control_c, 0, 64, 68
2, 385601, Control_c, 0, 64, 72
2, 385621, Control_c, 0, 64, 79
2, 385639, Control_c, 0, 64, 87
2, 385659, Control_c, 0, 64, 94
2, 385678, Control_c, 0, 64, 98
2, 385713, Control_c, 0, 64, 97
2, 385733, Control_c, 0, 64, 92
2, 385737, Note_on_c, 0, 41, 0
2, 385748, Note_on_c, 0, 42, 53
2, 385752, Control_c, 0, 64, 79
2, 385757, Note_on_c, 0, 66, 70
2, 385771, Control_c, 0, 64, 65
2, 385790, Control_c, 0, 64, 31
2, 385810, Control_c, 0, 64, 0
2, 385842, Note_on_c, 0, 73, 0
2, 385886, Control_c, 0, 64, 43
2, 385905, Control_c, 0, 64, 60
2, 385924, Control_c, 0, 64, 64
2, 385935, Note_on_c, 0, 42, 0
2, 385938, Note_on_c, 0, 54, 0
2, 385944, Control_c, 0, 64, 68
2, 385963, Control_c, 0, 64, 72
2, 385982, Control_c, 0, 64, 81
2, 386001, Control_c, 0, 64, 90
2, 386021, Control_c, 0, 64, 104
2, 386040, Control_c, 0, 64, 127
2, 386136, Control_c, 0, 64, 111
2, 386148, Note_on_c, 0, 53, 62
2, 386155, Control_c, 0, 64, 79
2, 386164, Note_on_c, 0, 44, 59
2, 386175, Control_c, 0, 64, 64
2, 386193, Control_c, 0, 64, 11
2, 386213, Control_c, 0, 64, 0
2, 386251, Control_c, 0, 64, 18
2, 386267, Control_c, 0, 64, 56
2, 386287, Control_c, 0, 64, 64
2, 386304, Note_on_c, 0, 53, 0
2, 386306, Control_c, 0, 64, 68
2, 386325, Control_c, 0, 64, 75
2, 386344, Control_c, 0, 64, 84
2, 386364, Control_c, 0, 64, 94
2, 386381, Control_c, 0, 64, 108
2, 386398, Control_c, 0, 64, 127
2, 386497, Note_on_c, 0, 44, 0
2, 386532, Control_c, 0, 64, 90
2, 386540, Note_on_c, 0, 54, 68
2, 386544, Note_on_c, 0, 46, 58
2, 386551, Control_c, 0, 64, 69
2, 386571, Control_c, 0, 64, 47
2, 386590, Control_c, 0, 64, 0
2, 386648, Control_c, 0, 64, 32
2, 386667, Control_c, 0, 64, 61
2, 386686, Control_c, 0, 64, 66
2, 386705, Control_c, 0, 64, 71
2, 386714, Note_on_c, 0, 54, 0
2, 386725, Control_c, 0, 64, 78
2, 386743, Control_c, 0, 64, 86
2, 386767, Control_c, 0, 64, 96
2, 386786, Control_c, 0, 64, 110
2, 386805, Control_c, 0, 64, 127
2, 386897, Note_on_c, 0, 46, 0
2, 386901, Control_c, 0, 64, 97
2, 386921, Control_c, 0, 64, 73
2, 386923, Note_on_c, 0, 61, 0
2, 386927, Note_on_c, 0, 44, 59
2, 386927, Note_on_c, 0, 65, 75
2, 386930, Note_on_c, 0, 56, 66
2, 386939, Control_c, 0, 64, 49
2, 386959, Control_c, 0, 64, 0
2, 386971, Note_on_c, 0, 66, 0
2, 387016, Control_c, 0, 64, 30
2, 387035, Control_c, 0, 64, 59
2, 387050, Note_on_c, 0, 56, 0
2, 387055, Control_c, 0, 64, 66
2, 387073, Control_c, 0, 64, 73
2, 387093, Control_c, 0, 64, 83
2, 387112, Control_c, 0, 64, 95
2, 387132, Control_c, 0, 64, 121
2, 387150, Control_c, 0, 64, 127
2, 387266, Control_c, 0, 64, 115
2, 387285, Control_c, 0, 64, 78
2, 387304, Control_c, 0, 64, 61
2, 387324, Control_c, 0, 64, 0
2, 387327, Note_on_c, 0, 66, 75
2, 387329, Note_on_c, 0, 65, 0
2, 387334, Note_on_c, 0, 42, 63
2, 387342, Note_on_c, 0, 58, 64
2, 387379, Control_c, 0, 64, 44
2, 387399, Control_c, 0, 64, 63
2, 387400, Note_on_c, 0, 44, 0
2, 387417, Control_c, 0, 64, 69
2, 387424, Note_on_c, 0, 42, 0
2, 387437, Control_c, 0, 64, 77
2, 387456, Control_c, 0, 64, 91
2, 387475, Control_c, 0, 64, 114
2, 387494, Control_c, 0, 64, 127
2, 387705, Control_c, 0, 64, 88
2, 387722, Note_on_c, 0, 68, 78
2, 387724, Control_c, 0, 64, 66
2, 387731, Note_on_c, 0, 58, 0
2, 387736, Note_on_c, 0, 56, 61
2, 387741, Note_on_c, 0, 52, 53
2, 387746, Control_c, 0, 64, 0
2, 387791, Note_on_c, 0, 66, 0
2, 387823, Control_c, 0, 64, 53
2, 387841, Control_c, 0, 64, 64
2, 387861, Control_c, 0, 64, 68
2, 387869, Note_on_c, 0, 56, 0
2, 387880, Control_c, 0, 64, 74
2, 387900, Control_c, 0, 64, 86
2, 387918, Control_c, 0, 64, 97
2, 387938, Control_c, 0, 64, 108
2, 387957, Control_c, 0, 64, 118
2, 387976, Control_c, 0, 64, 127
2, 388131, Note_on_c, 0, 54, 56
2, 388140, Note_on_c, 0, 51, 46
2, 388147, Note_on_c, 0, 70, 76
2, 388149, Control_c, 0, 64, 94
2, 388169, Control_c, 0, 64, 69
2, 388184, Note_on_c, 0, 52, 0
2, 388187, Control_c, 0, 64, 0
2, 388196, Note_on_c, 0, 68, 0
2, 388283, Control_c, 0, 64, 54
2, 388303, Control_c, 0, 64, 63
2, 388321, Control_c, 0, 64, 67
2, 388341, Control_c, 0, 64, 69
2, 388360, Control_c, 0, 64, 72
2, 388380, Control_c, 0, 64, 75
2, 388398, Control_c, 0, 64, 75
2, 388418, Control_c, 0, 64, 75
2, 388437, Control_c, 0, 64, 72
2, 388456, Control_c, 0, 64, 66
2, 388475, Control_c, 0, 64, 55
2, 388495, Control_c, 0, 64, 0
2, 388536, Note_on_c, 0, 68, 77
2, 388609, Note_on_c, 0, 70, 0
2, 388934, Note_on_c, 0, 54, 0
2, 388935, Note_on_c, 0, 59, 61
2, 388935, Note_on_c, 0, 66, 70
2, 388950, Note_on_c, 0, 68, 0
2, 389323, Note_on_c, 0, 58, 71
2, 389340, Note_on_c, 0, 59, 0
2, 389729, Note_on_c, 0, 56, 53
2, 389745, Note_on_c, 0, 76, 76
2, 389779, Note_on_c, 0, 58, 0
2, 390127, Note_on_c, 0, 49, 55
2, 390145, Note_on_c, 0, 51, 0
2, 390529, Note_on_c, 0, 73, 63
2, 390535, Note_on_c, 0, 47, 47
2, 390546, Note_on_c, 0, 49, 0
2, 390901, Note_on_c, 0, 47, 0
2, 390909, Note_on_c, 0, 46, 54
2, 390970, Note_on_c, 0, 66, 0
2, 391321, Note_on_c, 0, 46, 0
2, 391322, Note_on_c, 0, 47, 55
2, 391323, Note_on_c, 0, 66, 63
2, 391370, Note_on_c, 0, 73, 0
2, 391722, Note_on_c, 0, 74, 66
2, 391750, Note_on_c, 0, 76, 0
2, 392058, Note_on_c, 0, 47, 0
2, 392111, Note_on_c, 0, 75, 71
2, 392124, Note_on_c, 0, 59, 51
2, 392138, Note_on_c, 0, 56, 0
2, 392174, Note_on_c, 0, 74, 0
2, 392536, Note_on_c, 0, 58, 55
2, 392577, Note_on_c, 0, 59, 0
2, 392904, Note_on_c, 0, 71, 70
2, 392920, Note_on_c, 0, 56, 48
2, 392944, Note_on_c, 0, 58, 0
2, 392950, Note_on_c, 0, 66, 0
2, 393121, Control_c, 0, 64, 45
2, 393141, Control_c, 0, 64, 59
2, 393160, Control_c, 0, 64, 64
2, 393180, Control_c, 0, 64, 67
2, 393198, Control_c, 0, 64, 71
2, 393218, Control_c, 0, 64, 77
2, 393237, Control_c, 0, 64, 85
2, 393256, Control_c, 0, 64, 93
2, 393275, Control_c, 0, 64, 95
2, 393281, Note_on_c, 0, 58, 43
2, 393295, Control_c, 0, 64, 87
2, 393296, Note_on_c, 0, 71, 0
2, 393298, Note_on_c, 0, 78, 66
2, 393310, Note_on_c, 0, 70, 56
2, 393314, Control_c, 0, 64, 73
2, 393316, Note_on_c, 0, 56, 0
2, 393333, Control_c, 0, 64, 62
2, 393340, Note_on_c, 0, 75, 0
2, 393352, Control_c, 0, 64, 38
2, 393372, Control_c, 0, 64, 0
2, 393390, Control_c, 0, 64, 38
2, 393410, Control_c, 0, 64, 59
2, 393429, Control_c, 0, 64, 65
2, 393449, Control_c, 0, 64, 70
2, 393467, Control_c, 0, 64, 80
2, 393486, Control_c, 0, 64, 96
2, 393506, Control_c, 0, 64, 127
2, 393554, Note_on_c, 0, 78, 0
2, 393667, Note_on_c, 0, 58, 0
2, 393670, Note_on_c, 0, 59, 47
2, 393678, Control_c, 0, 64, 101
2, 393688, Note_on_c, 0, 77, 59
2, 393698, Control_c, 0, 64, 76
2, 393704, Note_on_c, 0, 68, 50
2, 393717, Control_c, 0, 64, 63
2, 393734, Note_on_c, 0, 70, 0
2, 393736, Control_c, 0, 64, 41
2, 393755, Control_c, 0, 64, 30
2, 393775, Control_c, 0, 64, 47
2, 393794, Control_c, 0, 64, 60
2, 393813, Control_c, 0, 64, 66
2, 393832, Control_c, 0, 64, 70
2, 393852, Control_c, 0, 64, 78
2, 393870, Control_c, 0, 64, 90
2, 393890, Control_c, 0, 64, 107
2, 393907, Note_on_c, 0, 68, 0
2, 393909, Control_c, 0, 64, 127
2, 394024, Control_c, 0, 64, 86
2, 394043, Control_c, 0, 64, 68
2, 394063, Control_c, 0, 64, 53
2, 394065, Note_on_c, 0, 56, 45
2, 394069, Note_on_c, 0, 75, 63
2, 394082, Control_c, 0, 64, 20
2, 394086, Note_on_c, 0, 66, 49
2, 394102, Control_c, 0, 64, 38
2, 394103, Note_on_c, 0, 59, 0
2, 394121, Control_c, 0, 64, 57
2, 394123, Note_on_c, 0, 56, 0
2, 394132, Note_on_c, 0, 77, 0
2, 394140, Control_c, 0, 64, 64
2, 394159, Control_c, 0, 64, 67
2, 394179, Control_c, 0, 64, 73
2, 394198, Control_c, 0, 64, 81
2, 394216, Note_on_c, 0, 66, 0
2, 394217, Control_c, 0, 64, 90
2, 394236, Control_c, 0, 64, 100
2, 394256, Control_c, 0, 64, 108
2, 394275, Control_c, 0, 64, 116
2, 394294, Control_c, 0, 64, 127
2, 394348, Note_on_c, 0, 75, 0
2, 394450, Control_c, 0, 64, 119
2, 394462, Note_on_c, 0, 58, 48
2, 394462, Note_on_c, 0, 74, 60
2, 394469, Control_c, 0, 64, 86
2, 394487, Control_c, 0, 64, 68
2, 394488, Note_on_c, 0, 65, 50
2, 394507, Control_c, 0, 64, 42
2, 394526, Control_c, 0, 64, 0
2, 394564, Control_c, 0, 64, 31
2, 394584, Control_c, 0, 64, 57
2, 394603, Control_c, 0, 64, 64
2, 394622, Control_c, 0, 64, 68
2, 394641, Control_c, 0, 64, 76
2, 394661, Control_c, 0, 64, 87
2, 394680, Control_c, 0, 64, 101
2, 394699, Control_c, 0, 64, 127
2, 394751, Note_on_c, 0, 65, 0
2, 394795, Control_c, 0, 64, 93
2, 394815, Control_c, 0, 64, 74
2, 394833, Control_c, 0, 64, 63
2, 394843, Note_on_c, 0, 77, 68
2, 394853, Control_c, 0, 64, 55
2, 394857, Note_on_c, 0, 63, 47
2, 394872, Control_c, 0, 64, 58
2, 394891, Control_c, 0, 64, 63
2, 394893, Note_on_c, 0, 74, 0
2, 394910, Control_c, 0, 64, 66
2, 394930, Control_c, 0, 64, 71
2, 394931, Note_on_c, 0, 77, 0
2, 394949, Control_c, 0, 64, 79
2, 394967, Control_c, 0, 64, 89
2, 394987, Control_c, 0, 64, 99
2, 395006, Control_c, 0, 64, 113
2, 395025, Control_c, 0, 64, 127
2, 395247, Note_on_c, 0, 62, 51
2, 395251, Note_on_c, 0, 82, 79
2, 395256, Control_c, 0, 64, 100
2, 395275, Control_c, 0, 64, 75
2, 395295, Control_c, 0, 64, 61
2, 395306, Note_on_c, 0, 63, 0
2, 395313, Control_c, 0, 64, 0
2, 395371, Control_c, 0, 64, 44
2, 395390, Control_c, 0, 64, 61
2, 395411, Control_c, 0, 64, 65
2, 395430, Control_c, 0, 64, 70
2, 395448, Control_c, 0, 64, 76
2, 395468, Control_c, 0, 64, 89
2, 395487, Control_c, 0, 64, 103
2, 395506, Control_c, 0, 64, 127
2, 395602, Control_c, 0, 64, 99
2, 395622, Control_c, 0, 64, 73
2, 395638, Note_on_c, 0, 65, 54
2, 395640, Control_c, 0, 64, 61
2, 395643, Note_on_c, 0, 62, 0
2, 395647, Note_on_c, 0, 56, 51
2, 395660, Control_c, 0, 64, 38
2, 395679, Control_c, 0, 64, 38
2, 395699, Control_c, 0, 64, 52
2, 395700, Note_on_c, 0, 58, 0
2, 395717, Control_c, 0, 64, 61
2, 395737, Control_c, 0, 64, 65
2, 395749, Note_on_c, 0, 56, 0
2, 395756, Control_c, 0, 64, 71
2, 395776, Control_c, 0, 64, 81
2, 395794, Control_c, 0, 64, 97
2, 395806, Note_on_c, 0, 65, 0
2, 395814, Control_c, 0, 64, 127
2, 396003, Control_c, 0, 64, 117
2, 396012, Note_on_c, 0, 54, 66
2, 396012, Note_on_c, 0, 58, 63
2, 396023, Control_c, 0, 64, 77
2, 396042, Control_c, 0, 64, 62
2, 396061, Control_c, 0, 64, 15
2, 396080, Control_c, 0, 64, 0
2, 396119, Control_c, 0, 64, 40
2, 396138, Control_c, 0, 64, 60
2, 396157, Control_c, 0, 64, 66
2, 396165, Note_on_c, 0, 54, 0
2, 396177, Control_c, 0, 64, 72
2, 396195, Control_c, 0, 64, 81
2, 396215, Control_c, 0, 64, 92
2, 396234, Control_c, 0, 64, 108
2, 396254, Control_c, 0, 64, 127
2, 396399, Note_on_c, 0, 56, 51
2, 396410, Note_on_c, 0, 68, 64
2, 396410, Note_on_c, 0, 83, 81
2, 396425, Control_c, 0, 64, 93
2, 396435, Note_on_c, 0, 58, 0
2, 396442, Note_on_c, 0, 82, 0
2, 396444, Control_c, 0, 64, 68
2, 396464, Control_c, 0, 64, 44
2, 396482, Control_c, 0, 64, 0
2, 396540, Control_c, 0, 64, 48
2, 396559, Control_c, 0, 64, 62
2, 396575, Note_on_c, 0, 68, 0
2, 396579, Control_c, 0, 64, 67
2, 396598, Control_c, 0, 64, 72
2, 396617, Control_c, 0, 64, 79
2, 396636, Control_c, 0, 64, 90
2, 396656, Control_c, 0, 64, 105
2, 396675, Control_c, 0, 64, 127
2, 396790, Control_c, 0, 64, 112
2, 396793, Note_on_c, 0, 66, 47
2, 396798, Note_on_c, 0, 82, 77
2, 396801, Note_on_c, 0, 58, 53
2, 396810, Control_c, 0, 64, 81
2, 396810, Note_on_c, 0, 56, 0
2, 396828, Control_c, 0, 64, 65
2, 396847, Control_c, 0, 64, 36
2, 396867, Control_c, 0, 64, 0
2, 396881, Note_on_c, 0, 83, 0
2, 396885, Control_c, 0, 64, 19
2, 396905, Control_c, 0, 64, 51
2, 396924, Control_c, 0, 64, 62
2, 396944, Control_c, 0, 64, 67
2, 396962, Control_c, 0, 64, 72
2, 396982, Control_c, 0, 64, 84
2, 397001, Control_c, 0, 64, 101
2, 397006, Note_on_c, 0, 66, 0
2, 397020, Control_c, 0, 64, 127
2, 397155, Control_c, 0, 64, 87
2, 397174, Control_c, 0, 64, 70
2, 397177, Note_on_c, 0, 65, 55
2, 397181, Note_on_c, 0, 80, 72
2, 397193, Control_c, 0, 64, 60
2, 397213, Control_c, 0, 64, 50
2, 397231, Control_c, 0, 64, 54
2, 397246, Note_on_c, 0, 65, 0
2, 397251, Control_c, 0, 64, 61
2, 397251, Note_on_c, 0, 82, 0
2, 397270, Control_c, 0, 64, 64
2, 397282, Note_on_c, 0, 58, 0
2, 397290, Control_c, 0, 64, 67
2, 397308, Control_c, 0, 64, 70
2, 397330, Control_c, 0, 64, 75
2, 397349, Control_c, 0, 64, 81
2, 397367, Control_c, 0, 64, 89
2, 397387, Control_c, 0, 64, 96
2, 397406, Control_c, 0, 64, 100
2, 397425, Control_c, 0, 64, 101
2, 397444, Control_c, 0, 64, 101
2, 397464, Control_c, 0, 64, 102
2, 397483, Control_c, 0, 64, 103
2, 397502, Control_c, 0, 64, 103
2, 397541, Control_c, 0, 64, 102
2, 397560, Control_c, 0, 64, 99
2, 397563, Note_on_c, 0, 51, 49
2, 397565, Note_on_c, 0, 63, 54
2, 397579, Control_c, 0, 64, 94
2, 397588, Note_on_c, 0, 78, 76
2, 397598, Control_c, 0, 64, 86
2, 397618, Control_c, 0, 64, 76
2, 397636, Control_c, 0, 64, 65
2, 397651, Note_on_c, 0, 80, 0
2, 397656, Control_c, 0, 64, 41
2, 397675, Control_c, 0, 64, 0
2, 397960, Note_on_c, 0, 53, 55
2, 397973, Note_on_c, 0, 80, 80
2, 397981, Note_on_c, 0, 51, 0
2, 398028, Note_on_c, 0, 78, 0
2, 398334, Note_on_c, 0, 55, 45
2, 398391, Note_on_c, 0, 82, 77
2, 398400, Note_on_c, 0, 53, 0
2, 398405, Note_on_c, 0, 75, 69
2, 398432, Note_on_c, 0, 80, 0
2, 398518, Control_c, 0, 64, 9
2, 398537, Control_c, 0, 64, 48
2, 398556, Control_c, 0, 64, 58
2, 398576, Control_c, 0, 64, 61
2, 398595, Control_c, 0, 64, 63
2, 398614, Control_c, 0, 64, 65
2, 398633, Control_c, 0, 64, 69
2, 398653, Control_c, 0, 64, 74
2, 398671, Control_c, 0, 64, 81
2, 398691, Control_c, 0, 64, 90
2, 398710, Control_c, 0, 64, 100
2, 398730, Control_c, 0, 64, 114
2, 398748, Control_c, 0, 64, 127
2, 398751, Note_on_c, 0, 73, 67
2, 398780, Note_on_c, 0, 75, 0
2, 399078, Note_on_c, 0, 82, 0
2, 399131, Note_on_c, 0, 56, 51
2, 399133, Note_on_c, 0, 55, 0
2, 399162, Note_on_c, 0, 75, 75
2, 399163, Note_on_c, 0, 73, 0
2, 399171, Control_c, 0, 64, 104
2, 399187, Note_on_c, 0, 71, 55
2, 399190, Control_c, 0, 64, 74
2, 399209, Control_c, 0, 64, 60
2, 399228, Control_c, 0, 64, 0
2, 399307, Control_c, 0, 64, 50
2, 399326, Control_c, 0, 64, 63
2, 399345, Control_c, 0, 64, 66
2, 399364, Control_c, 0, 64, 69
2, 399384, Control_c, 0, 64, 72
2, 399403, Control_c, 0, 64, 76
2, 399422, Control_c, 0, 64, 78
2, 399426, Note_on_c, 0, 63, 0
2, 399441, Control_c, 0, 64, 80
2, 399461, Control_c, 0, 64, 80
2, 399480, Control_c, 0, 64, 79
2, 399499, Control_c, 0, 64, 77
2, 399518, Control_c, 0, 64, 73
2, 399519, Note_on_c, 0, 71, 0
2, 399531, Note_on_c, 0, 54, 57
2, 399537, Note_on_c, 0, 70, 67
2, 399538, Control_c, 0, 64, 67
2, 399556, Control_c, 0, 64, 59
2, 399576, Control_c, 0, 64, 31
2, 399582, Note_on_c, 0, 56, 0
2, 399595, Control_c, 0, 64, 0
2, 399901, Note_on_c, 0, 70, 0
2, 399911, Note_on_c, 0, 53, 47
2, 399918, Note_on_c, 0, 54, 0
2, 399936, Note_on_c, 0, 80, 81
2, 399945, Note_on_c, 0, 68, 56
2, 399980, Note_on_c, 0, 75, 0
2, 400300, Note_on_c, 0, 71, 55
2, 400305, Note_on_c, 0, 51, 51
2, 400331, Note_on_c, 0, 68, 0
2, 400353, Note_on_c, 0, 53, 0
2, 400681, Note_on_c, 0, 50, 52
2, 400701, Note_on_c, 0, 71, 0
2, 400705, Note_on_c, 0, 70, 67
2, 400725, Note_on_c, 0, 51, 0
2, 401058, Note_on_c, 0, 51, 50
2, 401085, Note_on_c, 0, 78, 77
2, 401096, Note_on_c, 0, 75, 64
2, 401106, Note_on_c, 0, 50, 0
2, 401121, Note_on_c, 0, 70, 0
2, 401228, Note_on_c, 0, 80, 0
2, 401441, Note_on_c, 0, 46, 47
2, 401489, Note_on_c, 0, 51, 0
2, 401533, Note_on_c, 0, 77, 73
2, 401581, Note_on_c, 0, 75, 0
2, 401601, Note_on_c, 0, 78, 0
2, 401893, Note_on_c, 0, 46, 0
2, 401900, Note_on_c, 0, 58, 48
2, 401908, Note_on_c, 0, 73, 73
2, 402328, Note_on_c, 0, 58, 0
2, 402331, Note_on_c, 0, 75, 74
2, 402332, Note_on_c, 0, 59, 45
2, 402449, Note_on_c, 0, 77, 0
2, 402576, Note_on_c, 0, 73, 0
2, 402701, Note_on_c, 0, 71, 57
2, 402714, Note_on_c, 0, 51, 43
2, 402780, Note_on_c, 0, 59, 0
2, 403092, Note_on_c, 0, 53, 46
2, 403096, Note_on_c, 0, 73, 68
2, 403135, Note_on_c, 0, 51, 0
2, 403184, Note_on_c, 0, 75, 0
2, 403204, Note_on_c, 0, 71, 0
2, 403461, Note_on_c, 0, 70, 60
2, 403464, Note_on_c, 0, 55, 42
2, 403480, Note_on_c, 0, 53, 0
2, 403866, Note_on_c, 0, 55, 0
2, 403866, Note_on_c, 0, 71, 64
2, 403888, Note_on_c, 0, 56, 44
2, 403914, Note_on_c, 0, 73, 0
2, 403941, Note_on_c, 0, 70, 0
2, 404249, Note_on_c, 0, 53, 42
2, 404253, Note_on_c, 0, 68, 52
2, 404308, Note_on_c, 0, 56, 0
2, 404632, Note_on_c, 0, 50, 41
2, 404634, Note_on_c, 0, 70, 61
2, 404645, Note_on_c, 0, 53, 0
2, 404683, Note_on_c, 0, 71, 0
2, 404706, Note_on_c, 0, 68, 0
2, 405004, Note_on_c, 0, 50, 0
2, 405007, Note_on_c, 0, 66, 48
2, 405008, Note_on_c, 0, 51, 41
2, 405395, Note_on_c, 0, 68, 54
2, 405397, Note_on_c, 0, 51, 0
2, 405406, Note_on_c, 0, 48, 34
2, 405457, Note_on_c, 0, 66, 0
2, 405487, Note_on_c, 0, 70, 0
2, 405775, Note_on_c, 0, 50, 36
2, 405804, Note_on_c, 0, 65, 40
2, 405805, Note_on_c, 0, 48, 0
2, 406161, Note_on_c, 0, 50, 0
2, 406179, Note_on_c, 0, 68, 0
2, 406186, Note_on_c, 0, 51, 36
2, 406186, Note_on_c, 0, 66, 44
2, 406309, Note_on_c, 0, 65, 0
2, 406487, Control_c, 0, 64, 38
2, 406506, Control_c, 0, 64, 54
2, 406525, Control_c, 0, 64, 60
2, 406545, Control_c, 0, 64, 62
2, 406563, Control_c, 0, 64, 64
2, 406566, Note_on_c, 0, 51, 0
2, 406573, Note_on_c, 0, 39, 37
2, 406583, Control_c, 0, 64, 64
2, 406589, Note_on_c, 0, 63, 41
2, 406602, Control_c, 0, 64, 63
2, 406621, Control_c, 0, 64, 58
2, 406639, Note_on_c, 0, 66, 0
2, 406640, Control_c, 0, 64, 44
2, 406659, Control_c, 0, 64, 0
2, 406698, Control_c, 0, 64, 23
2, 406717, Control_c, 0, 64, 56
2, 406736, Control_c, 0, 64, 65
2, 406756, Control_c, 0, 64, 74
2, 406774, Control_c, 0, 64, 91
2, 406794, Control_c, 0, 64, 127
2, 406948, Control_c, 0, 64, 99
2, 406967, Control_c, 0, 64, 72
2, 406984, Note_on_c, 0, 46, 39
2, 406986, Control_c, 0, 64, 52
2, 406989, Note_on_c, 0, 63, 0
2, 406996, Note_on_c, 0, 65, 38
2, 407005, Control_c, 0, 64, 0
2, 407037, Note_on_c, 0, 39, 0
2, 407045, Note_on_c, 0, 62, 11
2, 407063, Control_c, 0, 64, 26
2, 407082, Control_c, 0, 64, 56
2, 407101, Control_c, 0, 64, 64
2, 407104, Note_on_c, 0, 62, 0
2, 407120, Control_c, 0, 64, 67
2, 407139, Control_c, 0, 64, 72
2, 407159, Control_c, 0, 64, 81
2, 407163, Note_on_c, 0, 65, 0
2, 407178, Control_c, 0, 64, 92
2, 407197, Control_c, 0, 64, 109
2, 407216, Control_c, 0, 64, 127
2, 407396, Note_on_c, 0, 65, 49
2, 407476, Note_on_c, 0, 46, 0
2, 407805, Note_on_c, 0, 70, 59
2, 407909, Control_c, 0, 64, 91
2, 407928, Control_c, 0, 64, 72
2, 407947, Control_c, 0, 64, 57
2, 407966, Control_c, 0, 64, 0
2, 408214, Note_on_c, 0, 72, 41
2, 408584, Note_on_c, 0, 58, 40
2, 408616, Note_on_c, 0, 74, 46
2, 408637, Note_on_c, 0, 65, 0
2, 408674, Control_c, 0, 64, 42
2, 408693, Control_c, 0, 64, 59
2, 408712, Control_c, 0, 64, 64
2, 408732, Control_c, 0, 64, 66
2, 408750, Control_c, 0, 64, 69
2, 408769, Control_c, 0, 64, 73
2, 408789, Control_c, 0, 64, 79
2, 408808, Control_c, 0, 64, 86
2, 408827, Control_c, 0, 64, 93
2, 408846, Control_c, 0, 64, 98
2, 408866, Control_c, 0, 64, 103
2, 408885, Control_c, 0, 64, 108
2, 408904, Control_c, 0, 64, 115
2, 408923, Control_c, 0, 64, 127
2, 408977, Note_on_c, 0, 74, 0
2, 408982, Note_on_c, 0, 75, 60
2, 409001, Note_on_c, 0, 71, 48
2, 409002, Note_on_c, 0, 72, 0
2, 409007, Note_on_c, 0, 70, 0
2, 409020, Control_c, 0, 64, 119
2, 409038, Control_c, 0, 64, 92
2, 409058, Control_c, 0, 64, 76
2, 409077, Control_c, 0, 64, 65
2, 409096, Control_c, 0, 64, 53
2, 409115, Control_c, 0, 64, 46
2, 409135, Control_c, 0, 64, 51
2, 409154, Control_c, 0, 64, 59
2, 409173, Control_c, 0, 64, 63
2, 409192, Control_c, 0, 64, 65
2, 409211, Control_c, 0, 64, 67
2, 409230, Control_c, 0, 64, 70
2, 409249, Control_c, 0, 64, 74
2, 409269, Control_c, 0, 64, 79
2, 409288, Control_c, 0, 64, 84
2, 409307, Control_c, 0, 64, 89
2, 409326, Control_c, 0, 64, 93
2, 409346, Control_c, 0, 64, 95
2, 409365, Control_c, 0, 64, 95
2, 409384, Control_c, 0, 64, 91
2, 409385, Note_on_c, 0, 70, 57
2, 409386, Note_on_c, 0, 77, 58
2, 409391, Note_on_c, 0, 71, 0
2, 409403, Control_c, 0, 64, 81
2, 409409, Note_on_c, 0, 75, 0
2, 409423, Control_c, 0, 64, 70
2, 409440, Control_c, 0, 64, 60
2, 409460, Control_c, 0, 64, 38
2, 409479, Control_c, 0, 64, 0
2, 409517, Control_c, 0, 64, 33
2, 409537, Control_c, 0, 64, 53
2, 409556, Control_c, 0, 64, 61
2, 409576, Control_c, 0, 64, 64
2, 409594, Control_c, 0, 64, 66
2, 409614, Control_c, 0, 64, 70
2, 409633, Control_c, 0, 64, 75
2, 409651, Control_c, 0, 64, 81
2, 409671, Control_c, 0, 64, 88
2, 409690, Control_c, 0, 64, 95
2, 409710, Control_c, 0, 64, 101
2, 409728, Control_c, 0, 64, 103
2, 409758, Note_on_c, 0, 70, 0
2, 409767, Control_c, 0, 64, 101
2, 409768, Note_on_c, 0, 68, 61
2, 409786, Control_c, 0, 64, 89
2, 409805, Control_c, 0, 64, 76
2, 409825, Control_c, 0, 64, 66
2, 409844, Control_c, 0, 64, 61
2, 409863, Control_c, 0, 64, 62
2, 409882, Control_c, 0, 64, 64
2, 409902, Control_c, 0, 64, 66
2, 409920, Control_c, 0, 64, 70
2, 409940, Control_c, 0, 64, 76
2, 409959, Control_c, 0, 64, 83
2, 409979, Control_c, 0, 64, 91
2, 409997, Control_c, 0, 64, 100
2, 410017, Control_c, 0, 64, 110
2, 410036, Control_c, 0, 64, 118
2, 410056, Control_c, 0, 64, 119
2, 410094, Control_c, 0, 64, 118
2, 410113, Control_c, 0, 64, 111
2, 410131, Control_c, 0, 64, 96
2, 410151, Control_c, 0, 64, 79
2, 410170, Control_c, 0, 64, 65
2, 410186, Note_on_c, 0, 63, 39
2, 410186, Note_on_c, 0, 66, 54
2, 410188, Note_on_c, 0, 68, 0
2, 410190, Control_c, 0, 64, 39
2, 410208, Control_c, 0, 64, 0
2, 410223, Note_on_c, 0, 58, 0
2, 410285, Control_c, 0, 64, 44
2, 410305, Control_c, 0, 64, 59
2, 410324, Control_c, 0, 64, 64
2, 410343, Control_c, 0, 64, 66
2, 410362, Control_c, 0, 64, 69
2, 410382, Control_c, 0, 64, 73
2, 410399, Control_c, 0, 64, 79
2, 410418, Control_c, 0, 64, 90
2, 410437, Control_c, 0, 64, 103
2, 410457, Control_c, 0, 64, 127
2, 410495, Control_c, 0, 64, 108
2, 410514, Control_c, 0, 64, 85
2, 410516, Note_on_c, 0, 77, 0
2, 410534, Control_c, 0, 64, 70
2, 410549, Note_on_c, 0, 68, 60
2, 410552, Control_c, 0, 64, 59
2, 410554, Note_on_c, 0, 66, 0
2, 410557, Note_on_c, 0, 75, 50
2, 410571, Control_c, 0, 64, 45
2, 410591, Control_c, 0, 64, 48
2, 410610, Control_c, 0, 64, 59
2, 410629, Control_c, 0, 64, 64
2, 410648, Control_c, 0, 64, 67
2, 410668, Control_c, 0, 64, 70
2, 410686, Control_c, 0, 64, 76
2, 410706, Control_c, 0, 64, 82
2, 410725, Control_c, 0, 64, 88
2, 410745, Control_c, 0, 64, 94
2, 410766, Control_c, 0, 64, 101
2, 410786, Control_c, 0, 64, 110
2, 410805, Control_c, 0, 64, 127
2, 410813, Note_on_c, 0, 68, 0
2, 410881, Control_c, 0, 64, 100
2, 410901, Control_c, 0, 64, 80
2, 410920, Control_c, 0, 64, 66
2, 410924, Note_on_c, 0, 73, 55
2, 410935, Note_on_c, 0, 70, 53
2, 410940, Control_c, 0, 64, 52
2, 410958, Control_c, 0, 64, 23
2, 410978, Control_c, 0, 64, 25
2, 410990, Note_on_c, 0, 75, 0
2, 410997, Control_c, 0, 64, 46
2, 411016, Control_c, 0, 64, 61
2, 411035, Control_c, 0, 64, 65
2, 411055, Control_c, 0, 64, 68
2, 411074, Control_c, 0, 64, 72
2, 411093, Control_c, 0, 64, 79
2, 411094, Note_on_c, 0, 73, 0
2, 411111, Note_on_c, 0, 71, 58
2, 411112, Control_c, 0, 64, 86
2, 411131, Control_c, 0, 64, 91
2, 411135, Note_on_c, 0, 63, 0
2, 411150, Control_c, 0, 64, 95
2, 411169, Control_c, 0, 64, 96
2, 411189, Control_c, 0, 64, 97
2, 411227, Control_c, 0, 64, 97
2, 411246, Control_c, 0, 64, 98
2, 411266, Control_c, 0, 64, 100
2, 411285, Control_c, 0, 64, 102
2, 411302, Note_on_c, 0, 73, 58
2, 411304, Control_c, 0, 64, 103
2, 411320, Note_on_c, 0, 71, 0
2, 411379, Control_c, 0, 64, 102
2, 411418, Note_on_c, 0, 73, 0
2, 411450, Note_on_c, 0, 79, 70
2, 411514, Note_on_c, 0, 79, 0
2, 411570, Control_c, 0, 64, 101
2, 411590, Control_c, 0, 64, 100
2, 411609, Control_c, 0, 64, 99
2, 411629, Control_c, 0, 64, 97
2, 411647, Control_c, 0, 64, 90
2, 411661, Note_on_c, 0, 63, 48
2, 411664, Note_on_c, 0, 80, 63
2, 411667, Control_c, 0, 64, 78
2, 411686, Control_c, 0, 64, 66
2, 411706, Control_c, 0, 64, 40
2, 411727, Control_c, 0, 64, 0
2, 411855, Note_on_c, 0, 82, 67
2, 411900, Note_on_c, 0, 80, 0
2, 412063, Note_on_c, 0, 82, 0
2, 412066, Note_on_c, 0, 83, 60
2, 412426, Note_on_c, 0, 68, 60
2, 412428, Note_on_c, 0, 64, 56
2, 412440, Note_on_c, 0, 63, 0
2, 412796, Note_on_c, 0, 83, 0
2, 412799, Note_on_c, 0, 82, 68
2, 412965, Note_on_c, 0, 80, 69
2, 412992, Note_on_c, 0, 82, 0
2, 413215, Note_on_c, 0, 82, 66
2, 413233, Note_on_c, 0, 63, 43
2, 413235, Note_on_c, 0, 80, 0
2, 413245, Note_on_c, 0, 64, 0
2, 413278, Note_on_c, 0, 68, 0
2, 413624, Note_on_c, 0, 75, 58
2, 413639, Note_on_c, 0, 67, 37
2, 413979, Note_on_c, 0, 63, 0
2, 413987, Note_on_c, 0, 61, 45
2, 413992, Note_on_c, 0, 65, 33
2, 414001, Note_on_c, 0, 77, 61
2, 414027, Note_on_c, 0, 70, 0
2, 414038, Note_on_c, 0, 82, 0
2, 414060, Note_on_c, 0, 75, 0
2, 414089, Control_c, 0, 64, 46
2, 414099, Note_on_c, 0, 67, 0
2, 414108, Control_c, 0, 64, 59
2, 414127, Control_c, 0, 64, 63
2, 414147, Control_c, 0, 64, 65
2, 414165, Control_c, 0, 64, 67
2, 414185, Control_c, 0, 64, 72
2, 414204, Control_c, 0, 64, 78
2, 414224, Control_c, 0, 64, 85
2, 414242, Control_c, 0, 64, 92
2, 414262, Control_c, 0, 64, 102
2, 414281, Control_c, 0, 64, 116
2, 414301, Control_c, 0, 64, 127
2, 414365, Note_on_c, 0, 64, 52
2, 414376, Note_on_c, 0, 79, 69
2, 414406, Note_on_c, 0, 64, 0
2, 414417, Note_on_c, 0, 65, 0
2, 414437, Note_on_c, 0, 77, 0
2, 414730, Note_on_c, 0, 61, 0
2, 414759, Note_on_c, 0, 80, 65
2, 414761, Control_c, 0, 64, 100
2, 414765, Note_on_c, 0, 59, 51
2, 414775, Note_on_c, 0, 63, 43
2, 414781, Control_c, 0, 64, 74
2, 414790, Note_on_c, 0, 79, 0
2, 414799, Control_c, 0, 64, 57
2, 414819, Control_c, 0, 64, 0
2, 414896, Control_c, 0, 64, 20
2, 414915, Control_c, 0, 64, 54
2, 414934, Control_c, 0, 64, 63
2, 414953, Control_c, 0, 64, 66
2, 414972, Control_c, 0, 64, 70
2, 414991, Control_c, 0, 64, 76
2, 415010, Control_c, 0, 64, 86
2, 415030, Control_c, 0, 64, 97
2, 415049, Control_c, 0, 64, 114
2, 415068, Control_c, 0, 64, 127
2, 415125, Control_c, 0, 64, 99
2, 415127, Note_on_c, 0, 71, 59
2, 415145, Control_c, 0, 64, 77
2, 415164, Control_c, 0, 64, 65
2, 415184, Control_c, 0, 64, 52
2, 415201, Control_c, 0, 64, 50
2, 415221, Control_c, 0, 64, 57
2, 415240, Control_c, 0, 64, 63
2, 415260, Control_c, 0, 64, 66
2, 415278, Control_c, 0, 64, 72
2, 415298, Control_c, 0, 64, 82
2, 415317, Control_c, 0, 64, 94
2, 415336, Control_c, 0, 64, 112
2, 415355, Control_c, 0, 64, 127
2, 415528, Control_c, 0, 64, 89
2, 415531, Note_on_c, 0, 70, 59
2, 415534, Note_on_c, 0, 71, 0
2, 415536, Note_on_c, 0, 61, 49
2, 415547, Control_c, 0, 64, 70
2, 415551, Note_on_c, 0, 59, 0
2, 415568, Control_c, 0, 64, 54
2, 415572, Note_on_c, 0, 63, 0
2, 415588, Control_c, 0, 64, 0
2, 415645, Control_c, 0, 64, 47
2, 415665, Control_c, 0, 64, 60
2, 415683, Control_c, 0, 64, 64
2, 415703, Control_c, 0, 64, 66
2, 415722, Control_c, 0, 64, 67
2, 415741, Control_c, 0, 64, 70
2, 415760, Control_c, 0, 64, 73
2, 415780, Control_c, 0, 64, 77
2, 415799, Control_c, 0, 64, 82
2, 415818, Control_c, 0, 64, 87
2, 415837, Control_c, 0, 64, 91
2, 415857, Control_c, 0, 64, 92
2, 415870, Note_on_c, 0, 70, 0
2, 415875, Control_c, 0, 64, 90
2, 415895, Control_c, 0, 64, 83
2, 415902, Note_on_c, 0, 68, 62
2, 415914, Control_c, 0, 64, 73
2, 415934, Control_c, 0, 64, 65
2, 415952, Control_c, 0, 64, 59
2, 415971, Control_c, 0, 64, 58
2, 415991, Control_c, 0, 64, 61
2, 416010, Control_c, 0, 64, 63
2, 416029, Control_c, 0, 64, 66
2, 416048, Control_c, 0, 64, 68
2, 416068, Control_c, 0, 64, 71
2, 416086, Control_c, 0, 64, 75
2, 416106, Control_c, 0, 64, 81
2, 416125, Control_c, 0, 64, 86
2, 416145, Control_c, 0, 64, 90
2, 416163, Control_c, 0, 64, 93
2, 416183, Control_c, 0, 64, 94
2, 416202, Control_c, 0, 64, 96
2, 416221, Control_c, 0, 64, 96
2, 416279, Control_c, 0, 64, 92
2, 416298, Control_c, 0, 64, 82
2, 416317, Control_c, 0, 64, 68
2, 416321, Note_on_c, 0, 82, 71
2, 416329, Note_on_c, 0, 63, 47
2, 416337, Control_c, 0, 64, 54
2, 416339, Note_on_c, 0, 68, 0
2, 416341, Note_on_c, 0, 80, 0
2, 416343, Note_on_c, 0, 67, 37
2, 416355, Control_c, 0, 64, 0
2, 416364, Note_on_c, 0, 61, 0
2, 416432, Control_c, 0, 64, 50
2, 416451, Control_c, 0, 64, 62
2, 416471, Control_c, 0, 64, 66
2, 416490, Control_c, 0, 64, 70
2, 416494, Note_on_c, 0, 67, 0
2, 416509, Control_c, 0, 64, 76
2, 416521, Note_on_c, 0, 63, 0
2, 416528, Control_c, 0, 64, 84
2, 416548, Control_c, 0, 64, 91
2, 416566, Control_c, 0, 64, 96
2, 416586, Control_c, 0, 64, 101
2, 416605, Control_c, 0, 64, 105
2, 416625, Control_c, 0, 64, 109
2, 416626, Note_on_c, 0, 82, 0
2, 416643, Control_c, 0, 64, 113
2, 416663, Control_c, 0, 64, 118
2, 416682, Control_c, 0, 64, 121
2, 416691, Note_on_c, 0, 63, 55
2, 416701, Control_c, 0, 64, 123
2, 416720, Control_c, 0, 64, 127
2, 416869, Note_on_c, 0, 65, 57
2, 417085, Control_c, 0, 64, 117
2, 417096, Note_on_c, 0, 75, 59
2, 417100, Note_on_c, 0, 65, 0
2, 417105, Control_c, 0, 64, 98
2, 417119, Note_on_c, 0, 67, 46
2, 417124, Control_c, 0, 64, 79
2, 417144, Control_c, 0, 64, 65
2, 417163, Control_c, 0, 64, 19
2, 417182, Control_c, 0, 64, 0
2, 417478, Note_on_c, 0, 68, 53
2, 417622, Note_on_c, 0, 68, 0
2, 417642, Note_on_c, 0, 70, 60
2, 417832, Note_on_c, 0, 67, 0
2, 417870, Note_on_c, 0, 56, 49
2, 417877, Note_on_c, 0, 71, 43
2, 417882, Note_on_c, 0, 70, 0
2, 417911, Note_on_c, 0, 63, 0
2, 418027, Control_c, 0, 64, 43
2, 418046, Control_c, 0, 64, 61
2, 418066, Control_c, 0, 64, 64
2, 418081, Control_c, 0, 64, 66
2, 418101, Control_c, 0, 64, 68
2, 418114, Note_on_c, 0, 71, 0
2, 418120, Control_c, 0, 64, 71
2, 418140, Control_c, 0, 64, 76
2, 418158, Control_c, 0, 64, 84
2, 418178, Control_c, 0, 64, 95
2, 418197, Control_c, 0, 64, 107
2, 418216, Control_c, 0, 64, 127
2, 418276, Note_on_c, 0, 71, 53
2, 418647, Note_on_c, 0, 73, 64
2, 418692, Note_on_c, 0, 75, 0
2, 418715, Control_c, 0, 64, 102
2, 418735, Control_c, 0, 64, 81
2, 418754, Control_c, 0, 64, 66
2, 418772, Control_c, 0, 64, 46
2, 418792, Control_c, 0, 64, 0
2, 419000, Note_on_c, 0, 71, 0
2, 419010, Note_on_c, 0, 75, 69
2, 419018, Note_on_c, 0, 70, 61
2, 419078, Note_on_c, 0, 73, 0
2, 419404, Note_on_c, 0, 61, 36
2, 419410, Note_on_c, 0, 75, 0
2, 419421, Note_on_c, 0, 68, 46
2, 419422, Note_on_c, 0, 76, 51
2, 419430, Note_on_c, 0, 70, 0
2, 419478, Note_on_c, 0, 56, 0
2, 419539, Control_c, 0, 64, 42
2, 419558, Control_c, 0, 64, 58
2, 419578, Control_c, 0, 64, 63
2, 419596, Control_c, 0, 64, 64
2, 419601, Note_on_c, 0, 68, 0
2, 419616, Control_c, 0, 64, 66
2, 419635, Control_c, 0, 64, 68
2, 419655, Control_c, 0, 64, 71
2, 419673, Control_c, 0, 64, 75
2, 419692, Control_c, 0, 64, 81
2, 419712, Control_c, 0, 64, 85
2, 419730, Control_c, 0, 64, 88
2, 419750, Control_c, 0, 64, 89
2, 419789, Control_c, 0, 64, 89
2, 419792, Note_on_c, 0, 75, 68
2, 419804, Note_on_c, 0, 76, 0
2, 419807, Control_c, 0, 64, 90
2, 419821, Note_on_c, 0, 67, 44
2, 419827, Control_c, 0, 64, 91
2, 419866, Control_c, 0, 64, 87
2, 419884, Control_c, 0, 64, 81
2, 419904, Control_c, 0, 64, 72
2, 419923, Control_c, 0, 64, 65
2, 419942, Control_c, 0, 64, 57
2, 419961, Control_c, 0, 64, 50
2, 419981, Control_c, 0, 64, 56
2, 420000, Control_c, 0, 64, 62
2, 420019, Control_c, 0, 64, 65
2, 420038, Control_c, 0, 64, 69
2, 420058, Control_c, 0, 64, 76
2, 420076, Control_c, 0, 64, 84
2, 420096, Control_c, 0, 64, 94
2, 420115, Control_c, 0, 64, 100
2, 420135, Control_c, 0, 64, 101
2, 420153, Control_c, 0, 64, 94
2, 420168, Note_on_c, 0, 73, 71
2, 420171, Note_on_c, 0, 67, 0
2, 420172, Control_c, 0, 64, 80
2, 420192, Control_c, 0, 64, 67
2, 420194, Note_on_c, 0, 68, 51
2, 420210, Control_c, 0, 64, 55
2, 420230, Control_c, 0, 64, 15
2, 420233, Note_on_c, 0, 75, 0
2, 420249, Control_c, 0, 64, 0
2, 420269, Control_c, 0, 64, 37
2, 420287, Control_c, 0, 64, 55
2, 420307, Control_c, 0, 64, 63
2, 420326, Control_c, 0, 64, 66
2, 420346, Control_c, 0, 64, 69
2, 420368, Control_c, 0, 64, 74
2, 420388, Control_c, 0, 64, 80
2, 420406, Control_c, 0, 64, 86
2, 420426, Control_c, 0, 64, 91
2, 420445, Control_c, 0, 64, 95
2, 420465, Control_c, 0, 64, 96
2, 420483, Control_c, 0, 64, 96
2, 420503, Control_c, 0, 64, 89
2, 420522, Control_c, 0, 64, 78
2, 420541, Control_c, 0, 64, 69
2, 420560, Control_c, 0, 64, 65
2, 420561, Note_on_c, 0, 70, 63
2, 420580, Control_c, 0, 64, 65
2, 420588, Note_on_c, 0, 68, 0
2, 420599, Control_c, 0, 64, 67
2, 420612, Note_on_c, 0, 70, 0
2, 420616, Note_on_c, 0, 73, 0
2, 420618, Control_c, 0, 64, 70
2, 420637, Control_c, 0, 64, 75
2, 420657, Control_c, 0, 64, 84
2, 420675, Control_c, 0, 64, 91
2, 420695, Control_c, 0, 64, 99
2, 420714, Control_c, 0, 64, 107
2, 420733, Control_c, 0, 64, 121
2, 420752, Control_c, 0, 64, 127
2, 420953, Note_on_c, 0, 80, 72
2, 420960, Note_on_c, 0, 63, 47
2, 420963, Control_c, 0, 64, 121
2, 420983, Control_c, 0, 64, 84
2, 421002, Control_c, 0, 64, 67
2, 421021, Control_c, 0, 64, 48
2, 421040, Control_c, 0, 64, 0
2, 421098, Control_c, 0, 64, 51
2, 421117, Control_c, 0, 64, 62
2, 421137, Control_c, 0, 64, 66
2, 421155, Control_c, 0, 64, 70
2, 421175, Control_c, 0, 64, 76
2, 421194, Control_c, 0, 64, 87
2, 421207, Note_on_c, 0, 80, 0
2, 421213, Control_c, 0, 64, 96
2, 421232, Control_c, 0, 64, 107
2, 421251, Control_c, 0, 64, 127
2, 421343, Note_on_c, 0, 65, 52
2, 421718, Note_on_c, 0, 59, 56
2, 421718, Note_on_c, 0, 75, 62
2, 421725, Note_on_c, 0, 67, 50
2, 421751, Control_c, 0, 64, 107
2, 421757, Note_on_c, 0, 65, 0
2, 421770, Control_c, 0, 64, 79
2, 421770, Note_on_c, 0, 61, 0
2, 421789, Control_c, 0, 64, 64
2, 421795, Note_on_c, 0, 63, 0
2, 421808, Control_c, 0, 64, 0
2, 422105, Note_on_c, 0, 68, 59
2, 422121, Note_on_c, 0, 67, 0
2, 422476, Note_on_c, 0, 58, 52
2, 422476, Note_on_c, 0, 70, 64
2, 422505, Note_on_c, 0, 68, 0
2, 422526, Note_on_c, 0, 59, 0
2, 422573, Note_on_c, 0, 75, 0
2, 422594, Note_on_c, 0, 70, 0
2, 422626, Note_on_c, 0, 71, 62
2, 422850, Note_on_c, 0, 77, 68
2, 422856, Note_on_c, 0, 71, 0
2, 422877, Note_on_c, 0, 73, 49
2, 423234, Note_on_c, 0, 79, 75
2, 423248, Note_on_c, 0, 77, 0
2, 423436, Control_c, 0, 64, 53
2, 423456, Control_c, 0, 64, 62
2, 423475, Control_c, 0, 64, 64
2, 423495, Control_c, 0, 64, 67
2, 423513, Control_c, 0, 64, 71
2, 423530, Note_on_c, 0, 79, 0
2, 423532, Control_c, 0, 64, 79
2, 423544, Note_on_c, 0, 73, 0
2, 423552, Control_c, 0, 64, 89
2, 423570, Control_c, 0, 64, 102
2, 423590, Control_c, 0, 64, 127
2, 423597, Note_on_c, 0, 71, 43
2, 423756, Note_on_c, 0, 71, 0
2, 423767, Note_on_c, 0, 70, 40
2, 423807, Note_on_c, 0, 70, 0
2, 424066, Note_on_c, 0, 80, 53
2, 424077, Note_on_c, 0, 56, 35
2, 424096, Note_on_c, 0, 71, 27
2, 424109, Control_c, 0, 64, 88
2, 424127, Control_c, 0, 64, 70
2, 424142, Note_on_c, 0, 58, 0
2, 424147, Control_c, 0, 64, 51
2, 424166, Control_c, 0, 64, 0
2, 424301, Control_c, 0, 64, 34
2, 424320, Control_c, 0, 64, 55
2, 424339, Control_c, 0, 64, 61
2, 424358, Control_c, 0, 64, 63
2, 424416, Control_c, 0, 64, 63
2, 424435, Control_c, 0, 64, 61
2, 424455, Control_c, 0, 64, 56
2, 424459, Note_on_c, 0, 82, 51
2, 424471, Note_on_c, 0, 80, 0
2, 424473, Control_c, 0, 64, 41
2, 424492, Control_c, 0, 64, 0
2, 424862, Note_on_c, 0, 80, 48
2, 424870, Note_on_c, 0, 61, 33
2, 424896, Note_on_c, 0, 82, 0
2, 424983, Note_on_c, 0, 56, 0
2, 425090, Note_on_c, 0, 71, 0
2, 425246, Note_on_c, 0, 78, 51
2, 425265, Note_on_c, 0, 80, 0
2, 425628, Note_on_c, 0, 77, 50
2, 425631, Note_on_c, 0, 78, 0
2, 425646, Note_on_c, 0, 68, 51
2, 426031, Note_on_c, 0, 78, 52
2, 426052, Note_on_c, 0, 63, 35
2, 426064, Note_on_c, 0, 77, 0
2, 426090, Note_on_c, 0, 61, 0
2, 426431, Note_on_c, 0, 61, 31
2, 426443, Note_on_c, 0, 80, 54
2, 426468, Note_on_c, 0, 78, 0
2, 426540, Note_on_c, 0, 63, 0
2, 426803, Note_on_c, 0, 59, 47
2, 426881, Note_on_c, 0, 61, 0
2, 427193, Note_on_c, 0, 73, 54
2, 427209, Note_on_c, 0, 58, 31
2, 427212, Note_on_c, 0, 59, 0
2, 427589, Note_on_c, 0, 59, 40
2, 427597, Note_on_c, 0, 78, 50
2, 427617, Note_on_c, 0, 58, 0
2, 427665, Note_on_c, 0, 80, 0
2, 427950, Note_on_c, 0, 78, 0
2, 427978, Note_on_c, 0, 77, 46
2, 427980, Note_on_c, 0, 59, 0
2, 427989, Note_on_c, 0, 61, 43
2, 428084, Control_c, 0, 64, 51
2, 428103, Control_c, 0, 64, 62
2, 428122, Control_c, 0, 64, 65
2, 428142, Control_c, 0, 64, 67
2, 428160, Control_c, 0, 64, 71
2, 428180, Control_c, 0, 64, 77
2, 428199, Control_c, 0, 64, 84
2, 428219, Control_c, 0, 64, 94
2, 428237, Control_c, 0, 64, 106
2, 428257, Control_c, 0, 64, 127
2, 428358, Note_on_c, 0, 78, 52
2, 428472, Note_on_c, 0, 77, 0
2, 428522, Note_on_c, 0, 80, 66
2, 428542, Note_on_c, 0, 78, 0
2, 428573, Note_on_c, 0, 80, 0
2, 428734, Note_on_c, 0, 54, 39
2, 428736, Control_c, 0, 64, 112
2, 428751, Note_on_c, 0, 82, 52
2, 428755, Control_c, 0, 64, 77
2, 428774, Control_c, 0, 64, 61
2, 428789, Note_on_c, 0, 61, 0
2, 428793, Control_c, 0, 64, 0
2, 428907, Note_on_c, 0, 80, 50
2, 428925, Note_on_c, 0, 82, 0
2, 429110, Note_on_c, 0, 73, 0
2, 429110, Note_on_c, 0, 82, 50
2, 429121, Note_on_c, 0, 80, 0
2, 429496, Note_on_c, 0, 75, 57
2, 429510, Note_on_c, 0, 59, 31
2, 429549, Note_on_c, 0, 82, 0
2, 429553, Note_on_c, 0, 54, 0
2, 429582, Control_c, 0, 64, 50
2, 429600, Control_c, 0, 64, 61
2, 429620, Control_c, 0, 64, 64
2, 429639, Control_c, 0, 64, 66
2, 429659, Control_c, 0, 64, 69
2, 429677, Control_c, 0, 64, 74
2, 429697, Control_c, 0, 64, 82
2, 429716, Control_c, 0, 64, 93
2, 429736, Control_c, 0, 64, 117
2, 429754, Control_c, 0, 64, 127
2, 429796, Note_on_c, 0, 68, 0
2, 429878, Note_on_c, 0, 80, 55
2, 430029, Note_on_c, 0, 78, 61
2, 430232, Note_on_c, 0, 78, 0
2, 430241, Note_on_c, 0, 73, 56
2, 430241, Note_on_c, 0, 80, 0
2, 430248, Note_on_c, 0, 77, 57
2, 430273, Control_c, 0, 64, 104
2, 430291, Control_c, 0, 64, 76
2, 430303, Note_on_c, 0, 75, 0
2, 430311, Control_c, 0, 64, 62
2, 430330, Control_c, 0, 64, 0
2, 430407, Control_c, 0, 64, 46
2, 430426, Control_c, 0, 64, 62
2, 430445, Control_c, 0, 64, 65
2, 430465, Control_c, 0, 64, 68
2, 430484, Control_c, 0, 64, 73
2, 430503, Control_c, 0, 64, 79
2, 430522, Control_c, 0, 64, 86
2, 430542, Control_c, 0, 64, 94
2, 430561, Control_c, 0, 64, 105
2, 430581, Control_c, 0, 64, 127
2, 430631, Note_on_c, 0, 78, 62
2, 430649, Note_on_c, 0, 77, 0
2, 430651, Note_on_c, 0, 58, 37
2, 430719, Note_on_c, 0, 59, 0
2, 430950, Note_on_c, 0, 58, 0
2, 430988, Note_on_c, 0, 56, 50
2, 430990, Note_on_c, 0, 71, 55
2, 431027, Note_on_c, 0, 73, 0
2, 431041, Control_c, 0, 64, 112
2, 431061, Control_c, 0, 64, 87
2, 431063, Note_on_c, 0, 56, 0
2, 431080, Control_c, 0, 64, 70
2, 431100, Control_c, 0, 64, 50
2, 431114, Note_on_c, 0, 58, 46
2, 431118, Control_c, 0, 64, 0
2, 431155, Note_on_c, 0, 58, 0
2, 431189, Note_on_c, 0, 56, 54
2, 431237, Note_on_c, 0, 56, 0
2, 431277, Note_on_c, 0, 58, 48
2, 431308, Note_on_c, 0, 77, 59
2, 431323, Note_on_c, 0, 58, 0
2, 431370, Note_on_c, 0, 78, 0
2, 431419, Note_on_c, 0, 58, 61
2, 431474, Note_on_c, 0, 58, 0
2, 431509, Note_on_c, 0, 56, 18
2, 431711, Note_on_c, 0, 70, 55
2, 431712, Note_on_c, 0, 78, 58
2, 431737, Note_on_c, 0, 56, 0
2, 431740, Note_on_c, 0, 54, 37
2, 431745, Note_on_c, 0, 77, 0
2, 431794, Note_on_c, 0, 71, 0
2, 432051, Note_on_c, 0, 54, 0
2, 432086, Note_on_c, 0, 52, 46
2, 432087, Note_on_c, 0, 73, 52
2, 432163, Note_on_c, 0, 78, 0
2, 432302, Note_on_c, 0, 70, 0
2, 432473, Note_on_c, 0, 78, 61
2, 432479, Note_on_c, 0, 51, 40
2, 432481, Note_on_c, 0, 71, 46
2, 432495, Note_on_c, 0, 52, 0
2, 432519, Note_on_c, 0, 73, 0
2, 432659, Note_on_c, 0, 51, 0
2, 432661, Note_on_c, 0, 49, 54
2, 432874, Note_on_c, 0, 51, 46
2, 432884, Note_on_c, 0, 49, 0
2, 433006, Note_on_c, 0, 51, 0
2, 433035, Note_on_c, 0, 52, 57
2, 433258, Note_on_c, 0, 73, 60
2, 433266, Note_on_c, 0, 46, 47
2, 433289, Note_on_c, 0, 71, 0
2, 433299, Note_on_c, 0, 52, 0
2, 433645, Note_on_c, 0, 46, 0
2, 433657, Note_on_c, 0, 80, 62
2, 433660, Note_on_c, 0, 42, 38
2, 433666, Note_on_c, 0, 78, 0
2, 434020, Note_on_c, 0, 44, 45
2, 434033, Note_on_c, 0, 78, 62
2, 434049, Note_on_c, 0, 80, 0
2, 434054, Note_on_c, 0, 42, 0
2, 434421, Note_on_c, 0, 46, 46
2, 434421, Note_on_c, 0, 76, 60
2, 434452, Note_on_c, 0, 78, 0
2, 434453, Note_on_c, 0, 44, 0
2, 434800, Note_on_c, 0, 46, 0
2, 434802, Note_on_c, 0, 75, 65
2, 434805, Note_on_c, 0, 76, 0
2, 434808, Note_on_c, 0, 66, 58
2, 434808, Note_on_c, 0, 73, 0
2, 434815, Note_on_c, 0, 47, 47
2, 435169, Note_on_c, 0, 47, 0
2, 435197, Note_on_c, 0, 49, 45
2, 435206, Note_on_c, 0, 76, 63
2, 435255, Note_on_c, 0, 75, 0
2, 435583, Note_on_c, 0, 51, 43
2, 435585, Note_on_c, 0, 78, 67
2, 435589, Note_on_c, 0, 49, 0
2, 435635, Note_on_c, 0, 76, 0
2, 435907, Note_on_c, 0, 51, 0
2, 435939, Note_on_c, 0, 52, 52
2, 436111, Note_on_c, 0, 52, 0
2, 436111, Note_on_c, 0, 54, 61
2, 436372, Note_on_c, 0, 54, 0
2, 436373, Note_on_c, 0, 56, 42
2, 436374, Note_on_c, 0, 71, 65
2, 436452, Note_on_c, 0, 66, 0
2, 436741, Note_on_c, 0, 58, 44
2, 436757, Note_on_c, 0, 78, 0
2, 436759, Note_on_c, 0, 56, 0
2, 436875, Note_on_c, 0, 58, 0
2, 436922, Note_on_c, 0, 59, 54
2, 437147, Note_on_c, 0, 59, 0
2, 437147, Note_on_c, 0, 76, 59
2, 437161, Note_on_c, 0, 49, 38
2, 437488, Note_on_c, 0, 51, 45
2, 437531, Note_on_c, 0, 49, 0
2, 437631, Note_on_c, 0, 51, 0
2, 437667, Note_on_c, 0, 52, 54
2, 437911, Note_on_c, 0, 42, 51
2, 437922, Note_on_c, 0, 52, 0
2, 438299, Note_on_c, 0, 75, 70
2, 438301, Note_on_c, 0, 54, 41
2, 438315, Note_on_c, 0, 42, 0
2, 438369, Note_on_c, 0, 76, 0
2, 438378, Note_on_c, 0, 71, 0
2, 438686, Note_on_c, 0, 73, 63
2, 438690, Note_on_c, 0, 70, 60
2, 438746, Note_on_c, 0, 75, 0
2, 439052, Note_on_c, 0, 54, 0
2, 439075, Note_on_c, 0, 55, 46
2, 439458, Note_on_c, 0, 70, 0
2, 439469, Note_on_c, 0, 68, 55
2, 439475, Note_on_c, 0, 71, 58
2, 439480, Note_on_c, 0, 56, 43
2, 439514, Note_on_c, 0, 73, 0
2, 439517, Note_on_c, 0, 55, 0
2, 439853, Note_on_c, 0, 55, 44
2, 439876, Note_on_c, 0, 56, 0
2, 440255, Note_on_c, 0, 56, 44
2, 440256, Note_on_c, 0, 76, 64
2, 440266, Note_on_c, 0, 55, 0
2, 440649, Note_on_c, 0, 58, 58
2, 440683, Note_on_c, 0, 56, 0
2, 441045, Note_on_c, 0, 71, 0
2, 441051, Note_on_c, 0, 66, 66
2, 441067, Note_on_c, 0, 58, 0
2, 441072, Note_on_c, 0, 59, 49
2, 441091, Note_on_c, 0, 68, 0
2, 441432, Note_on_c, 0, 58, 44
2, 441447, Note_on_c, 0, 74, 69
2, 441486, Note_on_c, 0, 76, 0
2, 441494, Note_on_c, 0, 59, 0
2, 441624, Note_on_c, 0, 66, 0
2, 441865, Note_on_c, 0, 75, 68
2, 441867, Note_on_c, 0, 56, 43
2, 441869, Note_on_c, 0, 71, 63
2, 441886, Note_on_c, 0, 58, 0
2, 441917, Note_on_c, 0, 74, 0
2, 442235, Note_on_c, 0, 54, 49
2, 442255, Note_on_c, 0, 56, 0
2, 442625, Note_on_c, 0, 54, 0
2, 442630, Note_on_c, 0, 53, 62
2, 442682, Note_on_c, 0, 75, 0
2, 443032, Note_on_c, 0, 75, 78
2, 443040, Note_on_c, 0, 54, 54
2, 443068, Note_on_c, 0, 53, 0
2, 443151, Note_on_c, 0, 71, 0
2, 443405, Note_on_c, 0, 53, 53
2, 443428, Note_on_c, 0, 54, 0
2, 443441, Note_on_c, 0, 80, 77
2, 443456, Note_on_c, 0, 73, 62
2, 443511, Note_on_c, 0, 75, 0
2, 443825, Note_on_c, 0, 51, 40
2, 443837, Note_on_c, 0, 53, 0
2, 443840, Note_on_c, 0, 71, 53
2, 443856, Note_on_c, 0, 73, 0
2, 444193, Note_on_c, 0, 51, 0
2, 444197, Note_on_c, 0, 70, 67
2, 444199, Note_on_c, 0, 50, 53
2, 444227, Note_on_c, 0, 71, 0
2, 444383, Control_c, 0, 64, 49
2, 444388, Note_on_c, 0, 80, 0
2, 444402, Control_c, 0, 64, 57
2, 444421, Control_c, 0, 64, 60
2, 444440, Control_c, 0, 64, 62
2, 444460, Control_c, 0, 64, 64
2, 444479, Control_c, 0, 64, 67
2, 444497, Control_c, 0, 64, 70
2, 444517, Control_c, 0, 64, 76
2, 444536, Control_c, 0, 64, 83
2, 444536, Note_on_c, 0, 50, 0
2, 444556, Control_c, 0, 64, 90
2, 444573, Note_on_c, 0, 80, 77
2, 444574, Control_c, 0, 64, 97
2, 444580, Note_on_c, 0, 62, 53
2, 444594, Control_c, 0, 64, 108
2, 444595, Note_on_c, 0, 71, 59
2, 444596, Note_on_c, 0, 70, 0
2, 444613, Control_c, 0, 64, 127
2, 444632, Control_c, 0, 64, 123
2, 444651, Control_c, 0, 64, 95
2, 444671, Control_c, 0, 64, 77
2, 444690, Control_c, 0, 64, 64
2, 444709, Control_c, 0, 64, 37
2, 444728, Control_c, 0, 64, 0
2, 444731, Note_on_c, 0, 63, 64
2, 444735, Note_on_c, 0, 62, 0
2, 444894, Note_on_c, 0, 80, 0
2, 444991, Note_on_c, 0, 79, 78
2, 444995, Note_on_c, 0, 64, 57
2, 445006, Note_on_c, 0, 63, 0
2, 445013, Note_on_c, 0, 73, 62
2, 445050, Note_on_c, 0, 71, 0
2, 445390, Note_on_c, 0, 58, 47
2, 445402, Note_on_c, 0, 78, 80
2, 445452, Note_on_c, 0, 64, 0
2, 445465, Note_on_c, 0, 79, 0
2, 445770, Note_on_c, 0, 59, 54
2, 445786, Note_on_c, 0, 68, 75
2, 445830, Note_on_c, 0, 58, 0
2, 445832, Note_on_c, 0, 78, 0
2, 446163, Note_on_c, 0, 78, 80
2, 446171, Note_on_c, 0, 60, 59
2, 446177, Note_on_c, 0, 59, 0
2, 446203, Note_on_c, 0, 73, 0
2, 446530, Note_on_c, 0, 61, 53
2, 446600, Note_on_c, 0, 60, 0
2, 446610, Note_on_c, 0, 77, 73
2, 446629, Note_on_c, 0, 73, 58
2, 446639, Note_on_c, 0, 68, 0
2, 446707, Note_on_c, 0, 78, 0
2, 446964, Note_on_c, 0, 58, 53
2, 446992, Note_on_c, 0, 76, 80
2, 447039, Note_on_c, 0, 77, 0
2, 447082, Note_on_c, 0, 61, 0
2, 447368, Note_on_c, 0, 55, 38
2, 447381, Note_on_c, 0, 58, 0
2, 447423, Note_on_c, 0, 75, 63
2, 447533, Note_on_c, 0, 76, 0
2, 447775, Note_on_c, 0, 56, 46
2, 447799, Note_on_c, 0, 71, 59
2, 447826, Note_on_c, 0, 55, 0
2, 447840, Note_on_c, 0, 73, 0
2, 448185, Note_on_c, 0, 73, 62
2, 448201, Note_on_c, 0, 70, 55
2, 448248, Note_on_c, 0, 75, 0
2, 448266, Note_on_c, 0, 71, 0
2, 448539, Note_on_c, 0, 55, 45
2, 448548, Note_on_c, 0, 56, 0
2, 448966, Note_on_c, 0, 56, 39
2, 448975, Note_on_c, 0, 55, 0
2, 448991, Note_on_c, 0, 71, 65
2, 449048, Note_on_c, 0, 70, 0
2, 449048, Note_on_c, 0, 73, 0
2, 449378, Note_on_c, 0, 56, 0
2, 449381, Note_on_c, 0, 54, 38
2, 449419, Note_on_c, 0, 63, 45
2, 449757, Note_on_c, 0, 54, 0
2, 449772, Note_on_c, 0, 52, 35
2, 449777, Note_on_c, 0, 68, 52
2, 449813, Note_on_c, 0, 71, 0
2, 450138, Note_on_c, 0, 51, 36
2, 450149, Note_on_c, 0, 71, 64
2, 450216, Note_on_c, 0, 52, 0
2, 450220, Note_on_c, 0, 68, 0
2, 450343, Note_on_c, 0, 63, 0
2, 450564, Note_on_c, 0, 49, 41
2, 450572, Note_on_c, 0, 70, 61
2, 450589, Note_on_c, 0, 51, 0
2, 450607, Note_on_c, 0, 71, 0
2, 450940, Note_on_c, 0, 50, 37
2, 450953, Note_on_c, 0, 68, 48
2, 450983, Note_on_c, 0, 49, 0
2, 451343, Note_on_c, 0, 70, 0
2, 451347, Note_on_c, 0, 68, 0
2, 451353, Note_on_c, 0, 50, 0
2, 451362, Note_on_c, 0, 51, 32
2, 451362, Note_on_c, 0, 66, 55
2, 451735, Note_on_c, 0, 78, 68
2, 451738, Note_on_c, 0, 46, 37
2, 451757, Control_c, 0, 64, 11
2, 451800, Note_on_c, 0, 51, 0
2, 451956, Note_on_c, 0, 66, 0
2, 451968, Control_c, 0, 64, 13
2, 452044, Control_c, 0, 64, 15
2, 452145, Note_on_c, 0, 68, 60
2, 452148, Note_on_c, 0, 47, 41
2, 452192, Note_on_c, 0, 46, 0
2, 452198, Control_c, 0, 64, 17
2, 452199, Note_on_c, 0, 78, 0
2, 452275, Control_c, 0, 64, 18
2, 452389, Control_c, 0, 64, 19
2, 452539, Note_on_c, 0, 47, 0
2, 452545, Note_on_c, 0, 48, 28
2, 452553, Note_on_c, 0, 66, 40
2, 452678, Control_c, 0, 64, 18
2, 452697, Control_c, 0, 64, 17
2, 452717, Control_c, 0, 64, 13
2, 452735, Control_c, 0, 64, 11
2, 452755, Control_c, 0, 64, 9
2, 452794, Control_c, 0, 64, 0
2, 452944, Note_on_c, 0, 49, 35
2, 452952, Note_on_c, 0, 48, 0
2, 452954, Note_on_c, 0, 66, 0
2, 452981, Note_on_c, 0, 64, 37
2, 453325, Note_on_c, 0, 44, 41
2, 453341, Note_on_c, 0, 63, 40
2, 453367, Note_on_c, 0, 49, 0
2, 453377, Note_on_c, 0, 64, 0
2, 453724, Note_on_c, 0, 63, 0
2, 453726, Note_on_c, 0, 62, 45
2, 453732, Note_on_c, 0, 46, 43
2, 453784, Note_on_c, 0, 44, 0
2, 454101, Note_on_c, 0, 66, 51
2, 454114, Note_on_c, 0, 62, 0
2, 454235, Note_on_c, 0, 68, 0
2, 454259, Note_on_c, 0, 65, 56
2, 454278, Note_on_c, 0, 66, 0
2, 454522, Note_on_c, 0, 66, 59
2, 454531, Note_on_c, 0, 65, 0
2, 454533, Note_on_c, 0, 63, 51
2, 454579, Control_c, 0, 64, 9
2, 454618, Control_c, 0, 64, 11
2, 454695, Control_c, 0, 64, 13
2, 454733, Control_c, 0, 64, 15
2, 454753, Control_c, 0, 64, 17
2, 454772, Control_c, 0, 64, 18
2, 454790, Control_c, 0, 64, 19
2, 454810, Control_c, 0, 64, 20
2, 454887, Control_c, 0, 64, 21
2, 454906, Control_c, 0, 64, 22
2, 454914, Note_on_c, 0, 68, 74
2, 454925, Control_c, 0, 64, 23
2, 454944, Control_c, 0, 64, 25
2, 454964, Control_c, 0, 64, 26
2, 454979, Note_on_c, 0, 66, 0
2, 455002, Control_c, 0, 64, 27
2, 455175, Control_c, 0, 64, 27
2, 455213, Control_c, 0, 64, 28
2, 455333, Note_on_c, 0, 70, 77
2, 455365, Note_on_c, 0, 68, 0
2, 455405, Control_c, 0, 64, 27
2, 455424, Control_c, 0, 64, 26
2, 455444, Control_c, 0, 64, 22
2, 455463, Control_c, 0, 64, 15
2, 455482, Control_c, 0, 64, 0
2, 455703, Note_on_c, 0, 53, 65
2, 455710, Note_on_c, 0, 63, 0
2, 455734, Note_on_c, 0, 62, 69
2, 455914, Note_on_c, 0, 60, 75
2, 455950, Note_on_c, 0, 62, 0
2, 456164, Note_on_c, 0, 58, 77
2, 456181, Note_on_c, 0, 62, 77
2, 456210, Note_on_c, 0, 60, 0
2, 456249, Control_c, 0, 64, 51
2, 456268, Control_c, 0, 64, 71
2, 456288, Control_c, 0, 64, 93
2, 456302, Note_on_c, 0, 62, 0
2, 456306, Control_c, 0, 64, 127
2, 456322, Note_on_c, 0, 70, 0
2, 456603, Note_on_c, 0, 65, 81
2, 456768, Control_c, 0, 64, 93
2, 456786, Control_c, 0, 64, 73
2, 456806, Control_c, 0, 64, 58
2, 456825, Control_c, 0, 64, 0
2, 457023, Note_on_c, 0, 77, 90
2, 457031, Note_on_c, 0, 70, 77
2, 457151, Control_c, 0, 64, 47
2, 457171, Control_c, 0, 64, 60
2, 457189, Control_c, 0, 64, 64
2, 457209, Control_c, 0, 64, 67
2, 457228, Control_c, 0, 64, 72
2, 457248, Control_c, 0, 64, 83
2, 457266, Control_c, 0, 64, 95
2, 457286, Control_c, 0, 64, 123
2, 457303, Note_on_c, 0, 58, 0
2, 457305, Control_c, 0, 64, 127
2, 457331, Note_on_c, 0, 46, 0
2, 457394, Note_on_c, 0, 53, 0
2, 457419, Note_on_c, 0, 59, 75
2, 457440, Control_c, 0, 64, 112
2, 457459, Control_c, 0, 64, 79
2, 457478, Control_c, 0, 64, 64
2, 457497, Control_c, 0, 64, 29
2, 457517, Control_c, 0, 64, 0
2, 457555, Control_c, 0, 64, 41
2, 457574, Control_c, 0, 64, 61
2, 457594, Control_c, 0, 64, 66
2, 457612, Control_c, 0, 64, 70
2, 457631, Control_c, 0, 64, 78
2, 457651, Control_c, 0, 64, 89
2, 457669, Control_c, 0, 64, 99
2, 457689, Control_c, 0, 64, 115
2, 457708, Control_c, 0, 64, 127
2, 457785, Control_c, 0, 64, 112
2, 457799, Note_on_c, 0, 58, 78
2, 457805, Control_c, 0, 64, 80
2, 457824, Control_c, 0, 64, 66
2, 457838, Note_on_c, 0, 59, 0
2, 457844, Control_c, 0, 64, 54
2, 457863, Control_c, 0, 64, 46
2, 457882, Control_c, 0, 64, 53
2, 457901, Control_c, 0, 64, 61
2, 457916, Note_on_c, 0, 70, 0
2, 457921, Control_c, 0, 64, 65
2, 457939, Control_c, 0, 64, 70
2, 457959, Control_c, 0, 64, 77
2, 457978, Control_c, 0, 64, 88
2, 457998, Control_c, 0, 64, 105
2, 458016, Control_c, 0, 64, 127
2, 458170, Control_c, 0, 64, 113
2, 458187, Control_c, 0, 64, 84
2, 458206, Control_c, 0, 64, 67
2, 458210, Note_on_c, 0, 56, 74
2, 458212, Note_on_c, 0, 71, 83
2, 458222, Note_on_c, 0, 58, 0
2, 458225, Control_c, 0, 64, 59
2, 458233, Note_on_c, 0, 65, 0
2, 458244, Control_c, 0, 64, 53
2, 458264, Control_c, 0, 64, 57
2, 458282, Control_c, 0, 64, 62
2, 458302, Control_c, 0, 64, 66
2, 458305, Note_on_c, 0, 77, 0
2, 458321, Control_c, 0, 64, 71
2, 458340, Control_c, 0, 64, 82
2, 458342, Note_on_c, 0, 71, 0
2, 458359, Control_c, 0, 64, 94
2, 458378, Control_c, 0, 64, 108
2, 458399, Control_c, 0, 64, 127
2, 458614, Note_on_c, 0, 54, 70
2, 458649, Note_on_c, 0, 82, 90
2, 458655, Note_on_c, 0, 70, 79
2, 458672, Note_on_c, 0, 56, 0
2, 458745, Control_c, 0, 64, 83
2, 458763, Control_c, 0, 64, 62
2, 458783, Control_c, 0, 64, 0
2, 459031, Note_on_c, 0, 56, 73
2, 459063, Note_on_c, 0, 54, 0
2, 459403, Note_on_c, 0, 58, 75
2, 459408, Note_on_c, 0, 56, 0
2, 459474, Control_c, 0, 64, 63
2, 459493, Control_c, 0, 64, 71
2, 459512, Control_c, 0, 64, 84
2, 459531, Control_c, 0, 64, 107
2, 459546, Note_on_c, 0, 70, 0
2, 459551, Control_c, 0, 64, 127
2, 459742, Note_on_c, 0, 58, 0
2, 459798, Note_on_c, 0, 68, 84
2, 459992, Note_on_c, 0, 68, 0
2, 460214, Note_on_c, 0, 51, 69
2, 460223, Control_c, 0, 64, 84
2, 460223, Note_on_c, 0, 66, 73
2, 460242, Control_c, 0, 64, 58
2, 460260, Control_c, 0, 64, 0
2, 460356, Control_c, 0, 64, 50
2, 460375, Control_c, 0, 64, 70
2, 460395, Control_c, 0, 64, 86
2, 460405, Note_on_c, 0, 51, 0
2, 460413, Control_c, 0, 64, 127
2, 460620, Note_on_c, 0, 53, 70
2, 460647, Note_on_c, 0, 82, 0
2, 460746, Note_on_c, 0, 54, 72
2, 460772, Note_on_c, 0, 53, 0
2, 460978, Note_on_c, 0, 56, 70
2, 460985, Note_on_c, 0, 83, 88
2, 460990, Control_c, 0, 64, 102
2, 460991, Note_on_c, 0, 54, 0
2, 461009, Control_c, 0, 64, 71
2, 461028, Control_c, 0, 64, 26
2, 461047, Control_c, 0, 64, 0
2, 461144, Control_c, 0, 64, 55
2, 461162, Control_c, 0, 64, 64
2, 461182, Control_c, 0, 64, 68
2, 461201, Control_c, 0, 64, 73
2, 461220, Control_c, 0, 64, 80
2, 461239, Control_c, 0, 64, 92
2, 461258, Control_c, 0, 64, 108
2, 461278, Control_c, 0, 64, 127
2, 461376, Note_on_c, 0, 68, 81
2, 461393, Control_c, 0, 64, 88
2, 461412, Control_c, 0, 64, 69
2, 461431, Control_c, 0, 64, 52
2, 461450, Control_c, 0, 64, 0
2, 461489, Control_c, 0, 64, 36
2, 461508, Control_c, 0, 64, 60
2, 461527, Control_c, 0, 64, 66
2, 461547, Control_c, 0, 64, 73
2, 461566, Control_c, 0, 64, 85
2, 461580, Note_on_c, 0, 68, 0
2, 461585, Control_c, 0, 64, 103
2, 461604, Control_c, 0, 64, 127
2, 461768, Note_on_c, 0, 82, 87
2, 461776, Note_on_c, 0, 70, 77
2, 461804, Note_on_c, 0, 83, 0
2, 461815, Control_c, 0, 64, 82
2, 461835, Control_c, 0, 64, 65
2, 461853, Control_c, 0, 64, 38
2, 461873, Control_c, 0, 64, 0
2, 461911, Control_c, 0, 64, 21
2, 461930, Control_c, 0, 64, 57
2, 461950, Control_c, 0, 64, 65
2, 461969, Control_c, 0, 64, 69
2, 461988, Control_c, 0, 64, 76
2, 462007, Control_c, 0, 64, 86
2, 462027, Control_c, 0, 64, 96
2, 462046, Control_c, 0, 64, 110
2, 462065, Control_c, 0, 64, 127
2, 462149, Note_on_c, 0, 54, 72
2, 462187, Note_on_c, 0, 66, 0
2, 462217, Note_on_c, 0, 56, 0
2, 462534, Note_on_c, 0, 53, 64
2, 462539, Note_on_c, 0, 80, 85
2, 462553, Note_on_c, 0, 54, 0
2, 462564, Control_c, 0, 64, 82
2, 462584, Control_c, 0, 64, 64
2, 462601, Control_c, 0, 64, 0
2, 462610, Note_on_c, 0, 82, 0
2, 462671, Note_on_c, 0, 70, 0
2, 462678, Control_c, 0, 64, 18
2, 462697, Control_c, 0, 64, 55
2, 462717, Control_c, 0, 64, 64
2, 462736, Control_c, 0, 64, 69
2, 462755, Control_c, 0, 64, 76
2, 462774, Control_c, 0, 64, 86
2, 462794, Control_c, 0, 64, 98
2, 462812, Control_c, 0, 64, 114
2, 462832, Control_c, 0, 64, 127
2, 462876, Note_on_c, 0, 53, 0
2, 462889, Control_c, 0, 64, 100
2, 462900, Note_on_c, 0, 62, 63
2, 462909, Control_c, 0, 64, 79
2, 462928, Control_c, 0, 64, 65
2, 462947, Control_c, 0, 64, 42
2, 462966, Control_c, 0, 64, 0
2, 463312, Note_on_c, 0, 78, 80
2, 463317, Note_on_c, 0, 63, 59
2, 463329, Note_on_c, 0, 62, 0
2, 463379, Note_on_c, 0, 80, 0
2, 463696, Note_on_c, 0, 63, 0
2, 463713, Note_on_c, 0, 65, 66
2, 463874, Note_on_c, 0, 66, 65
2, 463904, Note_on_c, 0, 65, 0
2, 464087, Note_on_c, 0, 80, 87
2, 464096, Note_on_c, 0, 66, 0
2, 464099, Note_on_c, 0, 68, 73
2, 464105, Note_on_c, 0, 65, 60
2, 464151, Note_on_c, 0, 78, 0
2, 464468, Note_on_c, 0, 63, 71
2, 464505, Note_on_c, 0, 65, 0
2, 464870, Note_on_c, 0, 82, 86
2, 464877, Note_on_c, 0, 62, 56
2, 464907, Note_on_c, 0, 63, 0
2, 464907, Note_on_c, 0, 80, 0
2, 464945, Control_c, 0, 64, 11
2, 464964, Control_c, 0, 64, 55
2, 464984, Control_c, 0, 64, 62
2, 465002, Control_c, 0, 64, 64
2, 465021, Control_c, 0, 64, 66
2, 465041, Control_c, 0, 64, 68
2, 465060, Control_c, 0, 64, 71
2, 465079, Control_c, 0, 64, 76
2, 465098, Control_c, 0, 64, 83
2, 465118, Control_c, 0, 64, 92
2, 465136, Control_c, 0, 64, 107
2, 465156, Control_c, 0, 64, 127
2, 465270, Note_on_c, 0, 66, 73
2, 465271, Control_c, 0, 64, 91
2, 465273, Note_on_c, 0, 63, 65
2, 465274, Note_on_c, 0, 62, 0
2, 465290, Control_c, 0, 64, 72
2, 465310, Control_c, 0, 64, 61
2, 465329, Control_c, 0, 64, 46
2, 465348, Control_c, 0, 64, 50
2, 465367, Control_c, 0, 64, 59
2, 465387, Control_c, 0, 64, 64
2, 465406, Control_c, 0, 64, 68
2, 465425, Control_c, 0, 64, 76
2, 465444, Control_c, 0, 64, 88
2, 465464, Control_c, 0, 64, 106
2, 465478, Control_c, 0, 64, 127
2, 465528, Note_on_c, 0, 66, 0
2, 465631, Control_c, 0, 64, 90
2, 465650, Control_c, 0, 64, 71
2, 465669, Note_on_c, 0, 65, 70
2, 465670, Control_c, 0, 64, 59
2, 465689, Control_c, 0, 64, 25
2, 465708, Control_c, 0, 64, 0
2, 465715, Note_on_c, 0, 68, 0
2, 465727, Control_c, 0, 64, 34
2, 465747, Control_c, 0, 64, 57
2, 465766, Control_c, 0, 64, 66
2, 465785, Control_c, 0, 64, 72
2, 465804, Control_c, 0, 64, 83
2, 465824, Control_c, 0, 64, 103
2, 465842, Control_c, 0, 64, 127
2, 465882, Note_on_c, 0, 82, 0
2, 466059, Note_on_c, 0, 61, 73
2, 466088, Note_on_c, 0, 65, 0
2, 466112, Note_on_c, 0, 63, 0
2, 466515, Note_on_c, 0, 75, 82
2, 466520, Note_on_c, 0, 67, 67
2, 466652, Control_c, 0, 64, 98
2, 466672, Control_c, 0, 64, 74
2, 466691, Control_c, 0, 64, 59
2, 466711, Control_c, 0, 64, 0
2, 466901, Note_on_c, 0, 63, 70
2, 466913, Note_on_c, 0, 58, 55
2, 466929, Note_on_c, 0, 61, 0
2, 467067, Note_on_c, 0, 64, 73
2, 467083, Note_on_c, 0, 63, 0
2, 467278, Note_on_c, 0, 63, 74
2, 467301, Note_on_c, 0, 64, 0
2, 467663, Note_on_c, 0, 61, 74
2, 467678, Note_on_c, 0, 58, 0
2, 468068, Note_on_c, 0, 59, 59
2, 468075, Note_on_c, 0, 61, 0
2, 468131, Note_on_c, 0, 80, 87
2, 468229, Control_c, 0, 64, 59
2, 468249, Control_c, 0, 64, 66
2, 468268, Control_c, 0, 64, 69
2, 468288, Control_c, 0, 64, 73
2, 468306, Control_c, 0, 64, 78
2, 468326, Control_c, 0, 64, 85
2, 468345, Control_c, 0, 64, 93
2, 468364, Control_c, 0, 64, 110
2, 468381, Note_on_c, 0, 67, 0
2, 468383, Control_c, 0, 64, 127
2, 468429, Note_on_c, 0, 75, 0
2, 468444, Note_on_c, 0, 63, 0
2, 468468, Note_on_c, 0, 59, 0
2, 468503, Note_on_c, 0, 61, 62
2, 468506, Note_on_c, 0, 64, 68
2, 468614, Control_c, 0, 64, 91
2, 468633, Control_c, 0, 64, 74
2, 468652, Control_c, 0, 64, 65
2, 468691, Control_c, 0, 64, 68
2, 468709, Control_c, 0, 64, 73
2, 468729, Control_c, 0, 64, 83
2, 468748, Control_c, 0, 64, 99
2, 468768, Control_c, 0, 64, 121
2, 468786, Control_c, 0, 64, 113
2, 468806, Control_c, 0, 64, 87
2, 468825, Control_c, 0, 64, 70
2, 468844, Control_c, 0, 64, 57
2, 468863, Control_c, 0, 64, 0
2, 468871, Note_on_c, 0, 61, 0
2, 468878, Note_on_c, 0, 63, 70
2, 468888, Note_on_c, 0, 59, 60
2, 468888, Note_on_c, 0, 64, 0
2, 468902, Control_c, 0, 64, 17
2, 468921, Control_c, 0, 64, 52
2, 468940, Control_c, 0, 64, 64
2, 468958, Control_c, 0, 64, 67
2, 468977, Control_c, 0, 64, 73
2, 468996, Control_c, 0, 64, 81
2, 469015, Control_c, 0, 64, 90
2, 469035, Control_c, 0, 64, 100
2, 469054, Control_c, 0, 64, 112
2, 469072, Control_c, 0, 64, 127
2, 469204, Note_on_c, 0, 59, 0
2, 469226, Control_c, 0, 64, 87
2, 469240, Note_on_c, 0, 61, 58
2, 469246, Control_c, 0, 64, 69
2, 469246, Note_on_c, 0, 58, 66
2, 469264, Control_c, 0, 64, 56
2, 469279, Note_on_c, 0, 63, 0
2, 469284, Control_c, 0, 64, 42
2, 469303, Control_c, 0, 64, 50
2, 469324, Control_c, 0, 64, 60
2, 469343, Control_c, 0, 64, 66
2, 469363, Control_c, 0, 64, 71
2, 469382, Control_c, 0, 64, 80
2, 469401, Control_c, 0, 64, 92
2, 469420, Control_c, 0, 64, 107
2, 469440, Control_c, 0, 64, 127
2, 469631, Control_c, 0, 64, 105
2, 469641, Note_on_c, 0, 61, 0
2, 469643, Note_on_c, 0, 56, 68
2, 469645, Note_on_c, 0, 59, 73
2, 469651, Control_c, 0, 64, 78
2, 469666, Note_on_c, 0, 58, 0
2, 469669, Control_c, 0, 64, 64
2, 469689, Control_c, 0, 64, 35
2, 469708, Control_c, 0, 64, 0
2, 469746, Control_c, 0, 64, 46
2, 469766, Control_c, 0, 64, 62
2, 469785, Control_c, 0, 64, 66
2, 469804, Control_c, 0, 64, 70
2, 469823, Control_c, 0, 64, 76
2, 469843, Control_c, 0, 64, 83
2, 469862, Control_c, 0, 64, 89
2, 469881, Control_c, 0, 64, 93
2, 469900, Control_c, 0, 64, 99
2, 469919, Control_c, 0, 64, 105
2, 469938, Control_c, 0, 64, 113
2, 469957, Control_c, 0, 64, 119
2, 469976, Control_c, 0, 64, 121
2, 469996, Control_c, 0, 64, 116
2, 470014, Control_c, 0, 64, 97
2, 470033, Control_c, 0, 64, 75
2, 470044, Note_on_c, 0, 61, 68
2, 470045, Note_on_c, 0, 54, 68
2, 470053, Control_c, 0, 64, 63
2, 470063, Note_on_c, 0, 59, 0
2, 470072, Control_c, 0, 64, 32
2, 470072, Note_on_c, 0, 56, 0
2, 470091, Control_c, 0, 64, 0
2, 470130, Control_c, 0, 64, 44
2, 470144, Note_on_c, 0, 54, 0
2, 470148, Control_c, 0, 64, 61
2, 470168, Control_c, 0, 64, 67
2, 470187, Control_c, 0, 64, 72
2, 470207, Control_c, 0, 64, 81
2, 470225, Control_c, 0, 64, 91
2, 470245, Control_c, 0, 64, 101
2, 470264, Control_c, 0, 64, 112
2, 470285, Control_c, 0, 64, 127
2, 470289, Note_on_c, 0, 54, 12
2, 470349, Note_on_c, 0, 61, 0
2, 470477, Note_on_c, 0, 78, 87
2, 470481, Note_on_c, 0, 63, 59
2, 470484, Note_on_c, 0, 52, 56
2, 470496, Control_c, 0, 64, 83
2, 470516, Control_c, 0, 64, 64
2, 470526, Note_on_c, 0, 54, 0
2, 470535, Control_c, 0, 64, 0
2, 470539, Note_on_c, 0, 80, 0
2, 470612, Control_c, 0, 64, 49
2, 470630, Control_c, 0, 64, 63
2, 470650, Control_c, 0, 64, 68
2, 470669, Control_c, 0, 64, 74
2, 470689, Control_c, 0, 64, 84
2, 470707, Control_c, 0, 64, 96
2, 470727, Control_c, 0, 64, 109
2, 470746, Control_c, 0, 64, 108
2, 470765, Control_c, 0, 64, 95
2, 470784, Control_c, 0, 64, 78
2, 470804, Control_c, 0, 64, 65
2, 470813, Note_on_c, 0, 52, 0
2, 470823, Control_c, 0, 64, 49
2, 470841, Note_on_c, 0, 51, 60
2, 470842, Control_c, 0, 64, 0
2, 470879, Control_c, 0, 64, 18
2, 470898, Control_c, 0, 64, 50
2, 470917, Control_c, 0, 64, 61
2, 470936, Control_c, 0, 64, 65
2, 470956, Control_c, 0, 64, 68
2, 470974, Control_c, 0, 64, 73
2, 470993, Control_c, 0, 64, 81
2, 471013, Control_c, 0, 64, 91
2, 471032, Control_c, 0, 64, 102
2, 471051, Control_c, 0, 64, 127
2, 471263, Note_on_c, 0, 49, 61
2, 471263, Note_on_c, 0, 56, 59
2, 471294, Note_on_c, 0, 51, 0
2, 471300, Note_on_c, 0, 76, 83
2, 471302, Control_c, 0, 64, 88
2, 471321, Control_c, 0, 64, 67
2, 471324, Note_on_c, 0, 63, 0
2, 471340, Control_c, 0, 64, 32
2, 471350, Note_on_c, 0, 78, 0
2, 471360, Control_c, 0, 64, 0
2, 471437, Control_c, 0, 64, 52
2, 471455, Control_c, 0, 64, 63
2, 471474, Control_c, 0, 64, 68
2, 471494, Control_c, 0, 64, 73
2, 471513, Control_c, 0, 64, 83
2, 471532, Control_c, 0, 64, 95
2, 471551, Control_c, 0, 64, 112
2, 471571, Control_c, 0, 64, 127
2, 471602, Note_on_c, 0, 49, 0
2, 471640, Note_on_c, 0, 56, 0
2, 471668, Note_on_c, 0, 61, 67
2, 471814, Note_on_c, 0, 59, 72
2, 471839, Note_on_c, 0, 61, 0
2, 472045, Note_on_c, 0, 61, 63
2, 472049, Note_on_c, 0, 58, 62
2, 472062, Note_on_c, 0, 59, 0
2, 472069, Control_c, 0, 64, 107
2, 472089, Control_c, 0, 64, 79
2, 472108, Control_c, 0, 64, 61
2, 472128, Control_c, 0, 64, 0
2, 472426, Note_on_c, 0, 56, 67
2, 472442, Note_on_c, 0, 58, 0
2, 472845, Note_on_c, 0, 55, 59
2, 472860, Note_on_c, 0, 75, 79
2, 472862, Note_on_c, 0, 56, 0
2, 472918, Note_on_c, 0, 76, 0
2, 472950, Note_on_c, 0, 61, 0
2, 473242, Note_on_c, 0, 55, 0
2, 473254, Note_on_c, 0, 59, 65
2, 473267, Note_on_c, 0, 56, 58
2, 473638, Note_on_c, 0, 58, 64
2, 473650, Note_on_c, 0, 59, 0
2, 474028, Note_on_c, 0, 54, 62
2, 474028, Note_on_c, 0, 56, 0
2, 474182, Control_c, 0, 64, 39
2, 474201, Control_c, 0, 64, 52
2, 474220, Control_c, 0, 64, 56
2, 474240, Control_c, 0, 64, 57
2, 474278, Control_c, 0, 64, 56
2, 474297, Control_c, 0, 64, 53
2, 474317, Control_c, 0, 64, 50
2, 474335, Control_c, 0, 64, 49
2, 474374, Control_c, 0, 64, 51
2, 474393, Control_c, 0, 64, 53
2, 474412, Control_c, 0, 64, 54
2, 474431, Control_c, 0, 64, 55
2, 474451, Control_c, 0, 64, 55
2, 474485, Note_on_c, 0, 53, 42
2, 474488, Note_on_c, 0, 56, 50
2, 474493, Note_on_c, 0, 54, 0
2, 474528, Control_c, 0, 64, 55
2, 474566, Control_c, 0, 64, 54
2, 474574, Note_on_c, 0, 58, 0
2, 474585, Control_c, 0, 64, 54
2, 474623, Control_c, 0, 64, 53
2, 474643, Control_c, 0, 64, 52
2, 474662, Control_c, 0, 64, 50
2, 474681, Control_c, 0, 64, 46
2, 474700, Control_c, 0, 64, 38
2, 474720, Control_c, 0, 64, 0
2, 474865, Note_on_c, 0, 71, 58
2, 475206, Note_on_c, 0, 75, 0
2, 475257, Note_on_c, 0, 68, 60
2, 475329, Note_on_c, 0, 71, 0
2, 475635, Note_on_c, 0, 58, 61
2, 475659, Note_on_c, 0, 56, 0
2, 476026, Note_on_c, 0, 59, 73
2, 476063, Note_on_c, 0, 58, 0
2, 476140, Control_c, 0, 64, 42
2, 476160, Control_c, 0, 64, 61
2, 476179, Control_c, 0, 64, 64
2, 476198, Control_c, 0, 64, 67
2, 476217, Control_c, 0, 64, 70
2, 476237, Control_c, 0, 64, 77
2, 476255, Control_c, 0, 64, 85
2, 476274, Control_c, 0, 64, 95
2, 476294, Control_c, 0, 64, 114
2, 476313, Control_c, 0, 64, 127
2, 476328, Note_on_c, 0, 53, 0
2, 476410, Note_on_c, 0, 70, 76
2, 476416, Note_on_c, 0, 58, 57
2, 476419, Note_on_c, 0, 54, 53
2, 476428, Control_c, 0, 64, 91
2, 476448, Control_c, 0, 64, 72
2, 476466, Control_c, 0, 64, 61
2, 476486, Control_c, 0, 64, 39
2, 476505, Control_c, 0, 64, 38
2, 476511, Note_on_c, 0, 68, 0
2, 476524, Control_c, 0, 64, 54
2, 476543, Control_c, 0, 64, 63
2, 476562, Note_on_c, 0, 58, 0
2, 476563, Control_c, 0, 64, 67
2, 476582, Control_c, 0, 64, 72
2, 476601, Control_c, 0, 64, 79
2, 476610, Note_on_c, 0, 59, 0
2, 476620, Control_c, 0, 64, 89
2, 476641, Control_c, 0, 64, 101
2, 476659, Control_c, 0, 64, 114
2, 476679, Control_c, 0, 64, 127
2, 476815, Note_on_c, 0, 53, 49
2, 476817, Note_on_c, 0, 71, 66
2, 476819, Note_on_c, 0, 56, 51
2, 476831, Note_on_c, 0, 54, 0
2, 476832, Control_c, 0, 64, 90
2, 476852, Control_c, 0, 64, 69
2, 476862, Note_on_c, 0, 70, 0
2, 476870, Control_c, 0, 64, 48
2, 476890, Control_c, 0, 64, 0
2, 477005, Control_c, 0, 64, 47
2, 477024, Control_c, 0, 64, 61
2, 477044, Control_c, 0, 64, 65
2, 477063, Control_c, 0, 64, 69
2, 477082, Control_c, 0, 64, 73
2, 477101, Control_c, 0, 64, 74
2, 477121, Control_c, 0, 64, 70
2, 477139, Control_c, 0, 64, 63
2, 477159, Control_c, 0, 64, 41
2, 477178, Control_c, 0, 64, 0
2, 477192, Note_on_c, 0, 51, 44
2, 477195, Note_on_c, 0, 54, 46
2, 477230, Note_on_c, 0, 53, 0
2, 477253, Note_on_c, 0, 56, 0
2, 477255, Control_c, 0, 64, 20
2, 477273, Control_c, 0, 64, 56
2, 477293, Control_c, 0, 64, 64
2, 477312, Control_c, 0, 64, 67
2, 477332, Control_c, 0, 64, 74
2, 477350, Control_c, 0, 64, 83
2, 477370, Control_c, 0, 64, 94
2, 477389, Control_c, 0, 64, 106
2, 477409, Control_c, 0, 64, 127
2, 477437, Note_on_c, 0, 51, 0
2, 477620, Note_on_c, 0, 53, 51
2, 477626, Note_on_c, 0, 50, 45
2, 477639, Control_c, 0, 64, 107
2, 477658, Control_c, 0, 64, 80
2, 477678, Control_c, 0, 64, 63
2, 477679, Note_on_c, 0, 54, 0
2, 477696, Control_c, 0, 64, 0
2, 477812, Control_c, 0, 64, 39
2, 477830, Control_c, 0, 64, 57
2, 477850, Control_c, 0, 64, 62
2, 477869, Control_c, 0, 64, 65
2, 477889, Control_c, 0, 64, 66
2, 477907, Control_c, 0, 64, 67
2, 477927, Control_c, 0, 64, 68
2, 477966, Control_c, 0, 64, 67
2, 477979, Note_on_c, 0, 68, 56
2, 477985, Control_c, 0, 64, 66
2, 478005, Control_c, 0, 64, 65
2, 478020, Note_on_c, 0, 71, 0
2, 478024, Control_c, 0, 64, 58
2, 478043, Control_c, 0, 64, 32
2, 478062, Control_c, 0, 64, 0
2, 478363, Note_on_c, 0, 65, 48
2, 478409, Note_on_c, 0, 68, 0
2, 478739, Note_on_c, 0, 53, 0
2, 478746, Note_on_c, 0, 54, 56
2, 478963, Control_c, 0, 64, 47
2, 478982, Control_c, 0, 64, 59
2, 479001, Control_c, 0, 64, 63
2, 479020, Control_c, 0, 64, 64
2, 479040, Control_c, 0, 64, 66
2, 479059, Control_c, 0, 64, 68
2, 479078, Control_c, 0, 64, 70
2, 479097, Control_c, 0, 64, 71
2, 479117, Control_c, 0, 64, 69
2, 479135, Control_c, 0, 64, 64
2, 479140, Note_on_c, 0, 54, 0
2, 479140, Note_on_c, 0, 56, 55
2, 479154, Control_c, 0, 64, 53
2, 479174, Control_c, 0, 64, 0
2, 479269, Control_c, 0, 64, 35
2, 479289, Control_c, 0, 64, 58
2, 479308, Control_c, 0, 64, 64
2, 479328, Control_c, 0, 64, 67
2, 479346, Control_c, 0, 64, 71
2, 479366, Control_c, 0, 64, 77
2, 479385, Control_c, 0, 64, 84
2, 479404, Control_c, 0, 64, 90
2, 479423, Control_c, 0, 64, 95
2, 479443, Control_c, 0, 64, 97
2, 479481, Control_c, 0, 64, 95
2, 479492, Note_on_c, 0, 50, 0
2, 479500, Control_c, 0, 64, 88
2, 479517, Control_c, 0, 64, 73
2, 479520, Note_on_c, 0, 66, 63
2, 479526, Note_on_c, 0, 51, 42
2, 479536, Control_c, 0, 64, 62
2, 479536, Note_on_c, 0, 54, 41
2, 479554, Control_c, 0, 64, 42
2, 479574, Control_c, 0, 64, 0
2, 479593, Control_c, 0, 64, 11
2, 479605, Note_on_c, 0, 56, 0
2, 479613, Control_c, 0, 64, 44
2, 479618, Note_on_c, 0, 65, 0
2, 479631, Control_c, 0, 64, 59
2, 479651, Control_c, 0, 64, 64
2, 479670, Control_c, 0, 64, 68
2, 479671, Note_on_c, 0, 51, 0
2, 479689, Control_c, 0, 64, 71
2, 479708, Control_c, 0, 64, 77
2, 479728, Control_c, 0, 64, 82
2, 479729, Note_on_c, 0, 54, 0
2, 479747, Control_c, 0, 64, 87
2, 479766, Control_c, 0, 64, 91
2, 479785, Control_c, 0, 64, 95
2, 479805, Control_c, 0, 64, 98
2, 479824, Control_c, 0, 64, 100
2, 479843, Control_c, 0, 64, 101
2, 479902, Control_c, 0, 64, 100
2, 479922, Control_c, 0, 64, 92
2, 479928, Note_on_c, 0, 68, 57
2, 479930, Note_on_c, 0, 53, 45
2, 479933, Note_on_c, 0, 50, 41
2, 479941, Control_c, 0, 64, 75
2, 479960, Control_c, 0, 64, 63
2, 479979, Control_c, 0, 64, 9
2, 479989, Note_on_c, 0, 66, 0
2, 479999, Control_c, 0, 64, 0
2, 480094, Control_c, 0, 64, 36
2, 480113, Control_c, 0, 64, 56
2, 480133, Control_c, 0, 64, 62
2, 480152, Control_c, 0, 64, 64
2, 480190, Control_c, 0, 64, 63
2, 480210, Control_c, 0, 64, 62
2, 480229, Control_c, 0, 64, 55
2, 480248, Control_c, 0, 64, 40
2, 480267, Control_c, 0, 64, 0
2, 480269, Note_on_c, 0, 50, 0
2, 480294, Note_on_c, 0, 51, 45
2, 480320, Note_on_c, 0, 53, 0
2, 480321, Note_on_c, 0, 48, 38
2, 480729, Note_on_c, 0, 50, 45
2, 480730, Note_on_c, 0, 48, 0
2, 480731, Note_on_c, 0, 51, 0
2, 480751, Note_on_c, 0, 46, 40
2, 480978, Control_c, 0, 64, 24
2, 480996, Control_c, 0, 64, 45
2, 481016, Control_c, 0, 64, 48
2, 481035, Control_c, 0, 64, 50
2, 481054, Control_c, 0, 64, 50
2, 481093, Control_c, 0, 64, 47
2, 481111, Note_on_c, 0, 65, 45
2, 481112, Control_c, 0, 64, 38
2, 481131, Control_c, 0, 64, 0
2, 481166, Note_on_c, 0, 68, 0
2, 481504, Note_on_c, 0, 62, 48
2, 481547, Note_on_c, 0, 65, 0
2, 481689, Control_c, 0, 64, 50
2, 481708, Control_c, 0, 64, 59
2, 481728, Control_c, 0, 64, 63
2, 481746, Control_c, 0, 64, 64
2, 481766, Control_c, 0, 64, 65
2, 481785, Control_c, 0, 64, 66
2, 481804, Control_c, 0, 64, 68
2, 481823, Control_c, 0, 64, 71
2, 481843, Control_c, 0, 64, 73
2, 481862, Control_c, 0, 64, 72
2, 481881, Control_c, 0, 64, 67
2, 481883, Note_on_c, 0, 51, 44
2, 481900, Control_c, 0, 64, 59
2, 481920, Control_c, 0, 64, 35
2, 481925, Note_on_c, 0, 50, 0
2, 481939, Control_c, 0, 64, 0
2, 481996, Control_c, 0, 64, 37
2, 482015, Control_c, 0, 64, 60
2, 482034, Control_c, 0, 64, 65
2, 482054, Control_c, 0, 64, 67
2, 482073, Control_c, 0, 64, 71
2, 482092, Control_c, 0, 64, 76
2, 482111, Control_c, 0, 64, 83
2, 482131, Control_c, 0, 64, 91
2, 482149, Control_c, 0, 64, 107
2, 482169, Control_c, 0, 64, 127
2, 482226, Control_c, 0, 64, 117
2, 482246, Control_c, 0, 64, 87
2, 482265, Control_c, 0, 64, 70
2, 482278, Note_on_c, 0, 53, 45
2, 482284, Control_c, 0, 64, 55
2, 482303, Control_c, 0, 64, 41
2, 482309, Note_on_c, 0, 51, 0
2, 482323, Control_c, 0, 64, 49
2, 482340, Note_on_c, 0, 46, 0
2, 482342, Control_c, 0, 64, 59
2, 482361, Control_c, 0, 64, 64
2, 482365, Note_on_c, 0, 62, 0
2, 482380, Control_c, 0, 64, 68
2, 482400, Control_c, 0, 64, 73
2, 482419, Control_c, 0, 64, 84
2, 482438, Control_c, 0, 64, 96
2, 482457, Control_c, 0, 64, 117
2, 482476, Control_c, 0, 64, 127
2, 482662, Note_on_c, 0, 62, 50
2, 482668, Control_c, 0, 64, 90
2, 482683, Note_on_c, 0, 44, 38
2, 482688, Control_c, 0, 64, 67
2, 482699, Note_on_c, 0, 53, 0
2, 482706, Control_c, 0, 64, 47
2, 482726, Control_c, 0, 64, 0
2, 482764, Control_c, 0, 64, 39
2, 482783, Control_c, 0, 64, 58
2, 482803, Control_c, 0, 64, 64
2, 482822, Control_c, 0, 64, 67
2, 482841, Control_c, 0, 64, 73
2, 482860, Control_c, 0, 64, 82
2, 482880, Control_c, 0, 64, 92
2, 482899, Control_c, 0, 64, 104
2, 482918, Control_c, 0, 64, 119
2, 482937, Control_c, 0, 64, 127
2, 483014, Control_c, 0, 64, 106
2, 483033, Control_c, 0, 64, 85
2, 483052, Control_c, 0, 64, 69
2, 483055, Note_on_c, 0, 63, 45
2, 483063, Note_on_c, 0, 42, 38
2, 483071, Control_c, 0, 64, 52
2, 483080, Note_on_c, 0, 54, 34
2, 483091, Control_c, 0, 64, 0
2, 483116, Note_on_c, 0, 62, 0
2, 483148, Control_c, 0, 64, 42
2, 483165, Note_on_c, 0, 44, 0
2, 483168, Control_c, 0, 64, 60
2, 483186, Control_c, 0, 64, 65
2, 483193, Note_on_c, 0, 42, 0
2, 483206, Control_c, 0, 64, 68
2, 483225, Control_c, 0, 64, 74
2, 483228, Note_on_c, 0, 54, 0
2, 483244, Control_c, 0, 64, 82
2, 483263, Control_c, 0, 64, 91
2, 483283, Control_c, 0, 64, 101
2, 483302, Control_c, 0, 64, 110
2, 483321, Control_c, 0, 64, 123
2, 483340, Control_c, 0, 64, 127
2, 483395, Control_c, 0, 64, 108
2, 483415, Control_c, 0, 64, 87
2, 483434, Control_c, 0, 64, 70
2, 483447, Note_on_c, 0, 65, 50
2, 483454, Control_c, 0, 64, 57
2, 483467, Note_on_c, 0, 41, 39
2, 483472, Control_c, 0, 64, 19
2, 483475, Note_on_c, 0, 63, 0
2, 483476, Note_on_c, 0, 56, 51
2, 483492, Control_c, 0, 64, 9
2, 483511, Control_c, 0, 64, 45
2, 483530, Control_c, 0, 64, 60
2, 483549, Control_c, 0, 64, 65
2, 483550, Note_on_c, 0, 56, 0
2, 483569, Control_c, 0, 64, 70
2, 483570, Note_on_c, 0, 41, 0
2, 483588, Control_c, 0, 64, 78
2, 483607, Control_c, 0, 64, 90
2, 483619, Note_on_c, 0, 65, 0
2, 483626, Control_c, 0, 64, 107
2, 483646, Control_c, 0, 64, 127
2, 483872, Note_on_c, 0, 66, 61
2, 483875, Control_c, 0, 64, 102
2, 483876, Note_on_c, 0, 39, 48
2, 483881, Note_on_c, 0, 58, 49
2, 483895, Control_c, 0, 64, 77
2, 483914, Control_c, 0, 64, 63
2, 483934, Control_c, 0, 64, 27
2, 483952, Control_c, 0, 64, 0
2, 483972, Control_c, 0, 64, 29
2, 483991, Control_c, 0, 64, 54
2, 484010, Control_c, 0, 64, 63
2, 484020, Note_on_c, 0, 58, 0
2, 484029, Control_c, 0, 64, 67
2, 484049, Control_c, 0, 64, 72
2, 484068, Control_c, 0, 64, 84
2, 484087, Control_c, 0, 64, 99
2, 484106, Control_c, 0, 64, 127
2, 484260, Control_c, 0, 64, 115
2, 484261, Note_on_c, 0, 39, 0
2, 484270, Note_on_c, 0, 49, 52
2, 484272, Note_on_c, 0, 67, 67
2, 484279, Control_c, 0, 64, 82
2, 484294, Note_on_c, 0, 58, 54
2, 484298, Control_c, 0, 64, 66
2, 484318, Control_c, 0, 64, 47
2, 484337, Control_c, 0, 64, 9
2, 484339, Note_on_c, 0, 66, 0
2, 484355, Control_c, 0, 64, 34
2, 484375, Control_c, 0, 64, 56
2, 484394, Control_c, 0, 64, 64
2, 484414, Control_c, 0, 64, 68
2, 484414, Note_on_c, 0, 58, 0
2, 484416, Note_on_c, 0, 67, 0
2, 484432, Control_c, 0, 64, 74
2, 484452, Control_c, 0, 64, 84
2, 484471, Control_c, 0, 64, 95
2, 484490, Control_c, 0, 64, 110
2, 484509, Control_c, 0, 64, 127
2, 484589, Note_on_c, 0, 49, 0
2, 484645, Note_on_c, 0, 68, 77
2, 484657, Note_on_c, 0, 47, 58
2, 484669, Note_on_c, 0, 59, 61
2, 484684, Control_c, 0, 64, 90
2, 484702, Control_c, 0, 64, 70
2, 484722, Control_c, 0, 64, 57
2, 484741, Control_c, 0, 64, 38
2, 484760, Control_c, 0, 64, 44
2, 484779, Control_c, 0, 64, 57
2, 484799, Control_c, 0, 64, 64
2, 484818, Control_c, 0, 64, 68
2, 484836, Control_c, 0, 64, 76
2, 484856, Control_c, 0, 64, 92
2, 484875, Control_c, 0, 64, 127
2, 484932, Note_on_c, 0, 59, 0
2, 484990, Control_c, 0, 64, 88
2, 485010, Control_c, 0, 64, 70
2, 485014, Note_on_c, 0, 70, 79
2, 485023, Note_on_c, 0, 46, 61
2, 485026, Note_on_c, 0, 61, 65
2, 485029, Control_c, 0, 64, 57
2, 485035, Note_on_c, 0, 47, 0
2, 485048, Control_c, 0, 64, 50
2, 485067, Control_c, 0, 64, 57
2, 485072, Note_on_c, 0, 68, 0
2, 485087, Control_c, 0, 64, 63
2, 485097, Note_on_c, 0, 61, 0
2, 485105, Control_c, 0, 64, 67
2, 485125, Control_c, 0, 64, 74
2, 485131, Note_on_c, 0, 70, 0
2, 485144, Control_c, 0, 64, 86
2, 485164, Control_c, 0, 64, 108
2, 485182, Control_c, 0, 64, 127
2, 485368, Note_on_c, 0, 46, 0
2, 485381, Note_on_c, 0, 44, 64
2, 485389, Note_on_c, 0, 71, 77
2, 485391, Control_c, 0, 64, 86
2, 485405, Note_on_c, 0, 63, 64
2, 485411, Control_c, 0, 64, 66
2, 485430, Control_c, 0, 64, 36
2, 485449, Control_c, 0, 64, 0
2, 485507, Control_c, 0, 64, 53
2, 485526, Control_c, 0, 64, 64
2, 485545, Control_c, 0, 64, 68
2, 485546, Note_on_c, 0, 63, 0
2, 485565, Control_c, 0, 64, 75
2, 485584, Control_c, 0, 64, 87
2, 485603, Control_c, 0, 64, 101
2, 485622, Control_c, 0, 64, 127
2, 485778, Control_c, 0, 64, 103
2, 485787, Note_on_c, 0, 72, 80
2, 485789, Note_on_c, 0, 54, 70
2, 485796, Control_c, 0, 64, 74
2, 485804, Note_on_c, 0, 71, 0
2, 485806, Note_on_c, 0, 63, 69
2, 485810, Note_on_c, 0, 44, 0
2, 485816, Control_c, 0, 64, 58
2, 485835, Control_c, 0, 64, 0
2, 485873, Control_c, 0, 64, 29
2, 485893, Control_c, 0, 64, 58
2, 485912, Control_c, 0, 64, 66
2, 485931, Control_c, 0, 64, 72
2, 485937, Note_on_c, 0, 63, 0
2, 485950, Control_c, 0, 64, 84
2, 485970, Control_c, 0, 64, 102
2, 485982, Note_on_c, 0, 72, 0
2, 485989, Control_c, 0, 64, 127
2, 486022, Note_on_c, 0, 54, 0
2, 486182, Note_on_c, 0, 74, 83
2, 486184, Note_on_c, 0, 53, 72
2, 486194, Note_on_c, 0, 65, 71
2, 486200, Control_c, 0, 64, 82
2, 486219, Control_c, 0, 64, 63
2, 486239, Control_c, 0, 64, 0
2, 486315, Control_c, 0, 64, 51
2, 486334, Control_c, 0, 64, 64
2, 486353, Control_c, 0, 64, 69
2, 486373, Control_c, 0, 64, 76
2, 486381, Note_on_c, 0, 65, 0
2, 486384, Note_on_c, 0, 74, 0
2, 486392, Control_c, 0, 64, 86
2, 486411, Control_c, 0, 64, 98
2, 486430, Control_c, 0, 64, 110
2, 486450, Control_c, 0, 64, 127
2, 486607, Note_on_c, 0, 75, 90
2, 486615, Note_on_c, 0, 51, 72
2, 486615, Note_on_c, 0, 66, 71
2, 486622, Control_c, 0, 64, 106
2, 486642, Control_c, 0, 64, 75
2, 486645, Note_on_c, 0, 53, 0
2, 486661, Control_c, 0, 64, 56
2, 486680, Control_c, 0, 64, 0
2, 486738, Control_c, 0, 64, 19
2, 486756, Control_c, 0, 64, 57
2, 486776, Control_c, 0, 64, 65
2, 486795, Control_c, 0, 64, 70
2, 486814, Control_c, 0, 64, 81
2, 486833, Control_c, 0, 64, 93
2, 486853, Control_c, 0, 64, 107
2, 486872, Control_c, 0, 64, 119
2, 486891, Control_c, 0, 64, 127
2, 486907, Note_on_c, 0, 66, 0
2, 486917, Note_on_c, 0, 75, 0
2, 487103, Note_on_c, 0, 58, 65
2, 487164, Note_on_c, 0, 75, 88
2, 487182, Note_on_c, 0, 65, 66
2, 487188, Note_on_c, 0, 51, 0
2, 487217, Control_c, 0, 64, 94
2, 487235, Control_c, 0, 64, 67
2, 487255, Control_c, 0, 64, 0
2, 487669, Note_on_c, 0, 71, 78
2, 488224, Note_on_c, 0, 46, 50
2, 488230, Note_on_c, 0, 74, 72
2, 488243, Note_on_c, 0, 70, 64
2, 488250, Note_on_c, 0, 65, 0
2, 488281, Note_on_c, 0, 75, 0
2, 488291, Note_on_c, 0, 71, 0
2, 488314, Note_on_c, 0, 58, 0
2, 488523, Control_c, 0, 64, 15
2, 488541, Control_c, 0, 64, 59
2, 488561, Control_c, 0, 64, 64
2, 488580, Control_c, 0, 64, 65
2, 488600, Control_c, 0, 64, 66
2, 488618, Control_c, 0, 64, 68
2, 488637, Control_c, 0, 64, 74
2, 488657, Control_c, 0, 64, 85
2, 488675, Control_c, 0, 64, 112
2, 488695, Control_c, 0, 64, 127
2, 488950, Note_on_c, 0, 68, 73
2, 488969, Note_on_c, 0, 46, 0
2, 489051, Note_on_c, 0, 70, 0
2, 489384, Note_on_c, 0, 74, 0
2, 490457, Note_on_c, 0, 75, 52
2, 490458, Note_on_c, 0, 39, 40
2, 490470, Note_on_c, 0, 51, 32
2, 490470, Note_on_c, 0, 67, 39
2, 490480, Control_c, 0, 64, 115
2, 490499, Control_c, 0, 64, 76
2, 490518, Control_c, 0, 64, 57
2, 490518, Note_on_c, 0, 68, 0
2, 490537, Control_c, 0, 64, 0
2, 491051, Control_c, 0, 64, 32
2, 491069, Control_c, 0, 64, 53
2, 491089, Control_c, 0, 64, 58
2, 491108, Control_c, 0, 64, 60
2, 491127, Control_c, 0, 64, 62
2, 491146, Control_c, 0, 64, 64
2, 491166, Control_c, 0, 64, 66
2, 491185, Control_c, 0, 64, 70
2, 491203, Control_c, 0, 64, 77
2, 491223, Control_c, 0, 64, 87
2, 491241, Control_c, 0, 64, 97
2, 491258, Control_c, 0, 64, 110
2, 491278, Control_c, 0, 64, 127
2, 492704, Note_on_c, 0, 51, 0
2, 493149, Note_on_c, 0, 39, 0
2, 493261, Note_on_c, 0, 67, 0
2, 493350, Note_on_c, 0, 75, 0
2, 494078, Control_c, 0, 64, 116
2, 494097, Control_c, 0, 64, 112
2, 494117, Control_c, 0, 64, 109
2, 494135, Control_c, 0, 64, 106
2, 494155, Control_c, 0, 64, 102
2, 494174, Control_c, 0, 64, 97
2, 494193, Control_c, 0, 64, 88
2, 494212, Control_c, 0, 64, 78
2, 494231, Control_c, 0, 64, 70
2, 494252, Control_c, 0, 64, 64
2, 494270, Control_c, 0, 64, 54
2, 494290, Control_c, 0, 64, 29
2, 494309, Control_c, 0, 64, 0
2, 494310, End_track
0, 0, End_of_file
