0, 0, Header, 1, 2, 480
1, 0, Start_track
1, 0, Tempo, 500000
1, 0, Time_signature, 4, 2, 24, 8
1, 1, End_track
2,0,Start_track
2,0, Note_on_c, 0, 63, 37
2,97, Control_c, 0, 64, 36
2,671, Control_c, 0, 64, 37
2,860, Note_on_c, 0, 70, 53
2,965, Note_on_c, 0, 63, 0
2,2018, Note_on_c, 0, 71, 47
2,2077, Note_on_c, 0, 70, 0
2,2410, Note_on_c, 0, 70, 54
2,2437, Control_c, 0, 64, 37
2,2462, Note_on_c, 0, 71, 0
2,2571, Control_c, 0, 64, 38
2,2629, Control_c, 0, 64, 38
2,2668, Control_c, 0, 64, 39
2,2725, Control_c, 0, 64, 39
2,2745, Control_c, 0, 64, 40
2,2783, Control_c, 0, 64, 40
2,2788, Note_on_c, 0, 68, 54
2,2824, Note_on_c, 0, 70, 0
2,2955, Control_c, 0, 64, 41
2,3051, Control_c, 0, 64, 41
2,3071, Control_c, 0, 64, 42
2,3128, Control_c, 0, 64, 42
2,3148, Control_c, 0, 64, 43
2,3176, Note_on_c, 0, 66, 45
2,3201, Note_on_c, 0, 68, 0
2,3205, Control_c, 0, 64, 43
2,3243, Control_c, 0, 64, 44
2,3512, Control_c, 0, 64, 44
2,3561, Note_on_c, 0, 68, 57
2,3578, Note_on_c, 0, 66, 0
2,3763, Control_c, 0, 64, 44
2,3956, Note_on_c, 0, 70, 50
2,3973, Note_on_c, 0, 68, 0
2,4225, Control_c, 0, 64, 43
2,4263, Control_c, 0, 64, 43
2,4454, Control_c, 0, 64, 42
2,4705, Note_on_c, 0, 63, 36
2,4802, Note_on_c, 0, 70, 0
2,5088, Control_c, 0, 64, 42
2,5396, Control_c, 0, 64, 42
2,5539, Note_on_c, 0, 68, 44
2,5636, Note_on_c, 0, 63, 0
2,5836, Control_c, 0, 64, 42
2,6240, Control_c, 0, 64, 42
2,6278, Control_c, 0, 64, 43
2,6489, Control_c, 0, 64, 43
2,6547, Control_c, 0, 64, 44
2,6630, Note_on_c, 0, 66, 44
2,6716, Note_on_c, 0, 68, 0
2,6739, Control_c, 0, 64, 44
2,6854, Control_c, 0, 64, 45
2,6950, Control_c, 0, 64, 45
2,7057, Note_on_c, 0, 65, 39
2,7107, Note_on_c, 0, 66, 0
2,7821, Note_on_c, 0, 63, 31
2,7850, Note_on_c, 0, 70, 54
2,7890, Control_c, 0, 64, 46
2,7902, Note_on_c, 0, 65, 0
2,8064, Control_c, 0, 64, 46
2,8121, Control_c, 0, 64, 47
2,8160, Control_c, 0, 64, 47
2,8236, Control_c, 0, 64, 48
2,8294, Control_c, 0, 64, 48
2,8523, Control_c, 0, 64, 49
2,8628, Note_on_c, 0, 75, 58
2,8756, Note_on_c, 0, 70, 0
2,8888, Control_c, 0, 64, 49
2,9017, Note_on_c, 0, 63, 0
2,9019, Note_on_c, 0, 65, 38
2,9409, Note_on_c, 0, 66, 39
2,9441, Note_on_c, 0, 65, 0
2,9541, Control_c, 0, 64, 49
2,9771, Control_c, 0, 64, 48
2,9776, Note_on_c, 0, 78, 59
2,9829, Control_c, 0, 64, 48
2,9854, Note_on_c, 0, 75, 0
2,9886, Control_c, 0, 64, 47
2,9963, Control_c, 0, 64, 47
2,10166, Note_on_c, 0, 77, 57
2,10170, Note_on_c, 0, 68, 37
2,10233, Note_on_c, 0, 66, 0
2,10276, Note_on_c, 0, 78, 0
2,10366, Control_c, 0, 64, 46
2,10425, Control_c, 0, 64, 46
2,10482, Control_c, 0, 64, 45
2,10557, Note_on_c, 0, 75, 63
2,10645, Note_on_c, 0, 77, 0
2,10654, Control_c, 0, 64, 45
2,10731, Control_c, 0, 64, 44
2,10925, Note_on_c, 0, 73, 58
2,10961, Note_on_c, 0, 70, 22
2,10989, Note_on_c, 0, 75, 0
2,11020, Note_on_c, 0, 68, 0
2,11077, Control_c, 0, 64, 44
2,11314, Note_on_c, 0, 75, 60
2,11385, Note_on_c, 0, 73, 0
2,11653, Control_c, 0, 64, 44
2,11700, Note_on_c, 0, 77, 52
2,11760, Note_on_c, 0, 75, 0
2,11903, Control_c, 0, 64, 45
2,11922, Control_c, 0, 64, 45
2,11980, Control_c, 0, 64, 46
2,12075, Control_c, 0, 64, 46
2,12078, Note_on_c, 0, 68, 41
2,12173, Note_on_c, 0, 70, 0
2,12209, Control_c, 0, 64, 46
2,12286, Control_c, 0, 64, 45
2,12472, Note_on_c, 0, 66, 43
2,12477, Note_on_c, 0, 70, 52
2,12501, Note_on_c, 0, 68, 0
2,12537, Note_on_c, 0, 77, 0
2,12749, Control_c, 0, 64, 46
2,12842, Note_on_c, 0, 66, 0
2,12865, Note_on_c, 0, 65, 32
2,13242, Note_on_c, 0, 66, 33
2,13245, Note_on_c, 0, 75, 57
2,13303, Note_on_c, 0, 65, 0
2,13309, Note_on_c, 0, 70, 0
2,13515, Control_c, 0, 64, 46
2,13591, Note_on_c, 0, 66, 0
2,13600, Note_on_c, 0, 65, 31
2,13764, Note_on_c, 0, 65, 0
2,13769, Note_on_c, 0, 63, 41
2,13900, Control_c, 0, 64, 47
2,13978, Note_on_c, 0, 63, 0
2,14009, Note_on_c, 0, 65, 38
2,14206, Control_c, 0, 64, 47
2,14265, Control_c, 0, 64, 48
2,14341, Control_c, 0, 64, 48
2,14365, Note_on_c, 0, 73, 52
2,14367, Note_on_c, 0, 70, 42
2,14374, Note_on_c, 0, 65, 0
2,14437, Control_c, 0, 64, 49
2,14438, Note_on_c, 0, 75, 0
2,14761, Note_on_c, 0, 72, 51
2,14811, Note_on_c, 0, 73, 0
2,15147, Note_on_c, 0, 69, 43
2,15148, Control_c, 0, 64, 48
2,15176, Note_on_c, 0, 70, 0
2,15205, Control_c, 0, 64, 48
2,15243, Control_c, 0, 64, 47
2,15282, Control_c, 0, 64, 47
2,15301, Control_c, 0, 64, 46
2,15340, Control_c, 0, 64, 46
2,15397, Control_c, 0, 64, 45
2,15527, Note_on_c, 0, 70, 43
2,15546, Note_on_c, 0, 72, 0
2,15563, Note_on_c, 0, 69, 0
2,15569, Control_c, 0, 64, 45
2,15588, Control_c, 0, 64, 44
2,15627, Control_c, 0, 64, 44
2,15645, Control_c, 0, 64, 43
2,15665, Control_c, 0, 64, 43
2,15684, Control_c, 0, 64, 42
2,15704, Control_c, 0, 64, 42
2,15722, Control_c, 0, 64, 41
2,15742, Control_c, 0, 64, 41
2,15818, Control_c, 0, 64, 40
2,15887, Note_on_c, 0, 72, 55
2,16087, Control_c, 0, 64, 40
2,16275, Note_on_c, 0, 73, 52
2,16335, Note_on_c, 0, 72, 0
2,16395, Control_c, 0, 64, 40
2,16490, Control_c, 0, 64, 41
2,16548, Control_c, 0, 64, 41
2,16567, Control_c, 0, 64, 42
2,16624, Note_on_c, 0, 68, 44
2,16708, Note_on_c, 0, 70, 0
2,16990, Control_c, 0, 64, 42
2,17004, Note_on_c, 0, 68, 0
2,17009, Control_c, 0, 64, 43
2,17030, Note_on_c, 0, 67, 29
2,17395, Note_on_c, 0, 63, 45
2,17464, Note_on_c, 0, 67, 0
2,17625, Control_c, 0, 64, 43
2,17663, Control_c, 0, 64, 44
2,17720, Control_c, 0, 64, 44
2,17770, Note_on_c, 0, 68, 44
2,17804, Note_on_c, 0, 63, 0
2,17835, Control_c, 0, 64, 45
2,17931, Control_c, 0, 64, 45
2,18008, Control_c, 0, 64, 46
2,18066, Control_c, 0, 64, 46
2,18171, Note_on_c, 0, 71, 48
2,18208, Note_on_c, 0, 73, 0
2,18219, Control_c, 0, 64, 47
2,18488, Control_c, 0, 64, 47
2,18535, Note_on_c, 0, 70, 54
2,18611, Note_on_c, 0, 71, 0
2,18737, Control_c, 0, 64, 48
2,18891, Control_c, 0, 64, 47
2,18903, Note_on_c, 0, 66, 42
2,18967, Note_on_c, 0, 68, 0
2,19198, Control_c, 0, 64, 47
2,19288, Note_on_c, 0, 66, 0
2,19294, Note_on_c, 0, 75, 60
2,19301, Note_on_c, 0, 65, 28
2,19313, Control_c, 0, 64, 46
2,19352, Note_on_c, 0, 70, 0
2,19370, Control_c, 0, 64, 46
2,19447, Control_c, 0, 64, 45
2,19582, Control_c, 0, 64, 45
2,19619, Control_c, 0, 64, 44
2,19639, Control_c, 0, 64, 44
2,19645, Note_on_c, 0, 63, 43
2,19658, Control_c, 0, 64, 43
2,19678, Control_c, 0, 64, 42
2,19681, Note_on_c, 0, 65, 0
2,19696, Control_c, 0, 64, 40
2,19716, Control_c, 0, 64, 38
2,19735, Control_c, 0, 64, 35
2,19755, Control_c, 0, 64, 31
2,19773, Control_c, 0, 64, 23
2,19793, Control_c, 0, 64, 0
2,20041, Note_on_c, 0, 65, 35
2,20054, Note_on_c, 0, 63, 0
2,20405, Note_on_c, 0, 74, 54
2,20434, Note_on_c, 0, 75, 0
2,20743, Note_on_c, 0, 65, 0
2,20788, Note_on_c, 0, 75, 56
2,20823, Note_on_c, 0, 66, 42
2,20852, Note_on_c, 0, 74, 0
2,20908, Control_c, 0, 64, 59
2,20926, Control_c, 0, 64, 65
2,20946, Control_c, 0, 64, 70
2,20965, Control_c, 0, 64, 79
2,20985, Control_c, 0, 64, 100
2,21001, Note_on_c, 0, 66, 0
2,21003, Control_c, 0, 64, 127
2,21153, Note_on_c, 0, 77, 63
2,21195, Note_on_c, 0, 75, 0
2,21197, Note_on_c, 0, 68, 44
2,21236, Note_on_c, 0, 68, 0
2,21263, Note_on_c, 0, 77, 0
2,21539, Note_on_c, 0, 51, 50
2,21560, Control_c, 0, 64, 110
2,21560, Note_on_c, 0, 78, 58
2,21579, Control_c, 0, 64, 76
2,21583, Note_on_c, 0, 70, 49
2,21599, Control_c, 0, 64, 51
2,21617, Control_c, 0, 64, 0
2,21714, Control_c, 0, 64, 47
2,21733, Control_c, 0, 64, 63
2,21752, Control_c, 0, 64, 67
2,21768, Note_on_c, 0, 70, 0
2,21771, Control_c, 0, 64, 73
2,21791, Control_c, 0, 64, 83
2,21810, Control_c, 0, 64, 99
2,21829, Control_c, 0, 64, 127
2,21945, Control_c, 0, 64, 121
2,21948, Note_on_c, 0, 72, 48
2,21964, Control_c, 0, 64, 84
2,21984, Control_c, 0, 64, 66
2,22003, Control_c, 0, 64, 35
2,22022, Control_c, 0, 64, 0
2,22313, Note_on_c, 0, 72, 0
2,22340, Note_on_c, 0, 58, 57
2,22347, Note_on_c, 0, 77, 52
2,22359, Note_on_c, 0, 74, 41
2,22437, Note_on_c, 0, 51, 0
2,22463, Note_on_c, 0, 78, 0
2,22737, Note_on_c, 0, 78, 51
2,22747, Note_on_c, 0, 77, 0
2,22754, Note_on_c, 0, 75, 43
2,22798, Note_on_c, 0, 74, 0
2,23114, Note_on_c, 0, 80, 54
2,23130, Note_on_c, 0, 77, 49
2,23160, Note_on_c, 0, 78, 0
2,23174, Control_c, 0, 64, 19
2,23193, Control_c, 0, 64, 53
2,23212, Control_c, 0, 64, 62
2,23222, Note_on_c, 0, 75, 0
2,23232, Control_c, 0, 64, 65
2,23250, Control_c, 0, 64, 67
2,23270, Control_c, 0, 64, 70
2,23289, Control_c, 0, 64, 75
2,23309, Control_c, 0, 64, 81
2,23318, Note_on_c, 0, 77, 0
2,23327, Control_c, 0, 64, 86
2,23347, Control_c, 0, 64, 91
2,23366, Control_c, 0, 64, 95
2,23385, Control_c, 0, 64, 99
2,23404, Control_c, 0, 64, 102
2,23424, Control_c, 0, 64, 106
2,23443, Control_c, 0, 64, 107
2,23462, Control_c, 0, 64, 108
2,23507, Note_on_c, 0, 59, 59
2,23520, Control_c, 0, 64, 106
2,23520, Note_on_c, 0, 77, 48
2,23538, Control_c, 0, 64, 101
2,23538, Note_on_c, 0, 74, 41
2,23548, Note_on_c, 0, 58, 0
2,23558, Control_c, 0, 64, 89
2,23577, Control_c, 0, 64, 75
2,23588, Note_on_c, 0, 80, 0
2,23596, Control_c, 0, 64, 64
2,23615, Control_c, 0, 64, 43
2,23635, Control_c, 0, 64, 0
2,23879, Note_on_c, 0, 58, 60
2,23888, Note_on_c, 0, 78, 56
2,23894, Note_on_c, 0, 74, 0
2,23905, Note_on_c, 0, 75, 48
2,23921, Note_on_c, 0, 77, 0
2,23939, Note_on_c, 0, 59, 0
2,24250, Note_on_c, 0, 56, 61
2,24258, Note_on_c, 0, 78, 0
2,24259, Note_on_c, 0, 77, 53
2,24262, Note_on_c, 0, 80, 60
2,24288, Note_on_c, 0, 58, 0
2,24294, Note_on_c, 0, 75, 0
2,24629, Note_on_c, 0, 80, 0
2,24630, Note_on_c, 0, 54, 52
2,24646, Note_on_c, 0, 82, 50
2,24657, Note_on_c, 0, 56, 0
2,24665, Note_on_c, 0, 78, 50
2,24730, Note_on_c, 0, 77, 0
2,25012, Note_on_c, 0, 56, 63
2,25022, Note_on_c, 0, 78, 0
2,25022, Note_on_c, 0, 80, 54
2,25035, Note_on_c, 0, 77, 45
2,25048, Note_on_c, 0, 54, 0
2,25083, Note_on_c, 0, 82, 0
2,25395, Note_on_c, 0, 77, 0
2,25400, Note_on_c, 0, 58, 47
2,25408, Note_on_c, 0, 78, 50
2,25419, Note_on_c, 0, 80, 0
2,25423, Note_on_c, 0, 75, 41
2,25445, Note_on_c, 0, 56, 0
2,25734, Note_on_c, 0, 78, 0
2,25786, Note_on_c, 0, 77, 47
2,25788, Note_on_c, 0, 74, 39
2,25800, Note_on_c, 0, 75, 0
2,26165, Note_on_c, 0, 77, 0
2,26172, Note_on_c, 0, 51, 44
2,26174, Note_on_c, 0, 78, 46
2,26180, Note_on_c, 0, 75, 46
2,26246, Note_on_c, 0, 58, 0
2,26268, Note_on_c, 0, 74, 0
2,26549, Note_on_c, 0, 73, 46
2,26607, Note_on_c, 0, 75, 0
2,26938, Note_on_c, 0, 56, 50
2,26951, Note_on_c, 0, 71, 38
2,26954, Note_on_c, 0, 77, 47
2,26998, Note_on_c, 0, 73, 0
2,27004, Note_on_c, 0, 78, 0
2,27028, Note_on_c, 0, 51, 0
2,27337, Note_on_c, 0, 75, 52
2,27370, Note_on_c, 0, 77, 0
2,27707, Note_on_c, 0, 70, 47
2,27709, Note_on_c, 0, 75, 0
2,27721, Note_on_c, 0, 74, 42
2,27752, Note_on_c, 0, 71, 0
2,28083, Note_on_c, 0, 54, 52
2,28092, Note_on_c, 0, 75, 50
2,28132, Note_on_c, 0, 56, 0
2,28165, Note_on_c, 0, 74, 0
2,28482, Note_on_c, 0, 54, 0
2,28483, Note_on_c, 0, 53, 44
2,28487, Note_on_c, 0, 68, 45
2,28497, Note_on_c, 0, 70, 0
2,28843, Note_on_c, 0, 74, 52
2,28845, Note_on_c, 0, 75, 0
2,29219, Note_on_c, 0, 74, 0
2,29241, Note_on_c, 0, 75, 54
2,29255, Note_on_c, 0, 51, 40
2,29267, Note_on_c, 0, 66, 40
2,29278, Note_on_c, 0, 68, 0
2,29310, Note_on_c, 0, 53, 0
2,29607, Note_on_c, 0, 73, 58
2,29763, Note_on_c, 0, 75, 0
2,29850, Note_on_c, 0, 66, 0
2,30006, Note_on_c, 0, 63, 49
2,30011, Note_on_c, 0, 71, 49
2,30016, Note_on_c, 0, 68, 43
2,30059, Note_on_c, 0, 73, 0
2,30063, Note_on_c, 0, 51, 0
2,30276, Control_c, 0, 64, 33
2,30295, Control_c, 0, 64, 50
2,30315, Control_c, 0, 64, 58
2,30333, Control_c, 0, 64, 61
2,30353, Control_c, 0, 64, 62
2,30372, Control_c, 0, 64, 63
2,30380, Note_on_c, 0, 66, 48
2,30391, Control_c, 0, 64, 64
2,30402, Note_on_c, 0, 68, 0
2,30410, Control_c, 0, 64, 65
2,30430, Control_c, 0, 64, 66
2,30449, Control_c, 0, 64, 67
2,30468, Control_c, 0, 64, 68
2,30487, Control_c, 0, 64, 70
2,30507, Control_c, 0, 64, 74
2,30525, Control_c, 0, 64, 77
2,30545, Control_c, 0, 64, 81
2,30564, Control_c, 0, 64, 84
2,30584, Control_c, 0, 64, 86
2,30602, Control_c, 0, 64, 87
2,30621, Control_c, 0, 64, 88
2,30641, Control_c, 0, 64, 89
2,30659, Control_c, 0, 64, 90
2,30679, Control_c, 0, 64, 90
2,30773, Note_on_c, 0, 66, 0
2,30775, Control_c, 0, 64, 88
2,30794, Note_on_c, 0, 62, 41
2,30795, Control_c, 0, 64, 81
2,30796, Note_on_c, 0, 65, 45
2,30800, Note_on_c, 0, 63, 0
2,30813, Control_c, 0, 64, 68
2,30833, Control_c, 0, 64, 56
2,30852, Control_c, 0, 64, 0
2,30948, Control_c, 0, 64, 46
2,30967, Control_c, 0, 64, 60
2,30987, Control_c, 0, 64, 64
2,31005, Control_c, 0, 64, 66
2,31025, Control_c, 0, 64, 67
2,31044, Control_c, 0, 64, 69
2,31064, Control_c, 0, 64, 71
2,31082, Control_c, 0, 64, 74
2,31101, Control_c, 0, 64, 76
2,31121, Control_c, 0, 64, 77
2,31139, Control_c, 0, 64, 77
2,31155, Note_on_c, 0, 70, 59
2,31178, Control_c, 0, 64, 76
2,31198, Control_c, 0, 64, 75
2,31216, Control_c, 0, 64, 72
2,31236, Control_c, 0, 64, 67
2,31255, Control_c, 0, 64, 62
2,31275, Control_c, 0, 64, 54
2,31293, Control_c, 0, 64, 33
2,31304, Note_on_c, 0, 68, 62
2,31313, Control_c, 0, 64, 0
2,31335, Note_on_c, 0, 70, 0
2,31336, Note_on_c, 0, 65, 0
2,31350, Note_on_c, 0, 71, 0
2,31571, Note_on_c, 0, 70, 57
2,31573, Note_on_c, 0, 61, 35
2,31591, Note_on_c, 0, 62, 0
2,31605, Note_on_c, 0, 68, 0
2,31906, Note_on_c, 0, 70, 0
2,31918, Note_on_c, 0, 63, 50
2,31935, Note_on_c, 0, 71, 57
2,32084, Note_on_c, 0, 63, 0
2,32098, Note_on_c, 0, 73, 68
2,32101, Note_on_c, 0, 65, 48
2,32144, Note_on_c, 0, 71, 0
2,32297, Note_on_c, 0, 65, 0
2,32321, Note_on_c, 0, 75, 68
2,32322, Note_on_c, 0, 66, 53
2,32324, Note_on_c, 0, 60, 38
2,32361, Note_on_c, 0, 73, 0
2,32385, Note_on_c, 0, 61, 0
2,32502, Control_c, 0, 64, 15
2,32521, Control_c, 0, 64, 53
2,32540, Control_c, 0, 64, 60
2,32560, Control_c, 0, 64, 62
2,32579, Control_c, 0, 64, 64
2,32598, Control_c, 0, 64, 65
2,32617, Control_c, 0, 64, 67
2,32637, Control_c, 0, 64, 70
2,32655, Control_c, 0, 64, 75
2,32675, Control_c, 0, 64, 81
2,32689, Note_on_c, 0, 75, 0
2,32689, Note_on_c, 0, 77, 66
2,32694, Control_c, 0, 64, 87
2,32699, Note_on_c, 0, 68, 62
2,32714, Control_c, 0, 64, 93
2,32732, Control_c, 0, 64, 100
2,32752, Control_c, 0, 64, 108
2,32752, Note_on_c, 0, 66, 0
2,32771, Control_c, 0, 64, 116
2,32790, Control_c, 0, 64, 121
2,32809, Control_c, 0, 64, 127
2,32837, Note_on_c, 0, 68, 0
2,32851, Note_on_c, 0, 78, 68
2,32866, Note_on_c, 0, 70, 68
2,32872, Note_on_c, 0, 77, 0
2,33017, Note_on_c, 0, 70, 0
2,33040, Control_c, 0, 64, 96
2,33058, Note_on_c, 0, 60, 0
2,33058, Note_on_c, 0, 77, 58
2,33059, Control_c, 0, 64, 73
2,33078, Control_c, 0, 64, 46
2,33088, Note_on_c, 0, 68, 51
2,33090, Note_on_c, 0, 59, 43
2,33097, Control_c, 0, 64, 0
2,33159, Note_on_c, 0, 78, 0
2,33232, Control_c, 0, 64, 61
2,33251, Control_c, 0, 64, 69
2,33270, Control_c, 0, 64, 76
2,33289, Control_c, 0, 64, 85
2,33309, Control_c, 0, 64, 90
2,33328, Control_c, 0, 64, 97
2,33347, Control_c, 0, 64, 111
2,33366, Control_c, 0, 64, 127
2,33371, Note_on_c, 0, 59, 0
2,33438, Note_on_c, 0, 75, 68
2,33455, Note_on_c, 0, 77, 0
2,33469, Note_on_c, 0, 68, 0
2,33492, Note_on_c, 0, 75, 0
2,33615, Note_on_c, 0, 66, 50
2,33689, Note_on_c, 0, 68, 61
2,33706, Note_on_c, 0, 66, 0
2,33815, Note_on_c, 0, 58, 52
2,33828, Note_on_c, 0, 70, 52
2,33828, Note_on_c, 0, 74, 54
2,33868, Control_c, 0, 64, 88
2,33886, Control_c, 0, 64, 68
2,33889, Note_on_c, 0, 68, 0
2,33906, Control_c, 0, 64, 39
2,33925, Control_c, 0, 64, 0
2,34206, Note_on_c, 0, 46, 63
2,34210, Note_on_c, 0, 70, 0
2,34230, Note_on_c, 0, 68, 56
2,34234, Note_on_c, 0, 58, 0
2,34607, Note_on_c, 0, 74, 0
2,34634, Note_on_c, 0, 75, 61
2,34640, Note_on_c, 0, 51, 59
2,34654, Note_on_c, 0, 66, 43
2,34684, Note_on_c, 0, 68, 0
2,34696, Note_on_c, 0, 46, 0
2,34922, Note_on_c, 0, 66, 0
2,35017, Note_on_c, 0, 73, 57
2,35020, Note_on_c, 0, 65, 34
2,35048, Note_on_c, 0, 75, 0
2,35381, Note_on_c, 0, 71, 54
2,35428, Note_on_c, 0, 63, 53
2,35439, Note_on_c, 0, 73, 0
2,35515, Note_on_c, 0, 65, 0
2,35778, Note_on_c, 0, 54, 63
2,35779, Note_on_c, 0, 70, 56
2,35828, Note_on_c, 0, 51, 0
2,35840, Note_on_c, 0, 71, 0
2,36165, Note_on_c, 0, 53, 58
2,36167, Note_on_c, 0, 63, 0
2,36167, Note_on_c, 0, 68, 59
2,36182, Note_on_c, 0, 54, 0
2,36188, Note_on_c, 0, 62, 46
2,36191, Note_on_c, 0, 70, 0
2,36549, Note_on_c, 0, 51, 62
2,36553, Note_on_c, 0, 66, 58
2,36572, Note_on_c, 0, 63, 51
2,36575, Note_on_c, 0, 68, 0
2,36592, Note_on_c, 0, 53, 0
2,36678, Note_on_c, 0, 62, 0
2,36932, Note_on_c, 0, 50, 59
2,36940, Note_on_c, 0, 65, 50
2,36961, Note_on_c, 0, 66, 0
2,36968, Note_on_c, 0, 63, 0
2,36971, Note_on_c, 0, 51, 0
2,37312, Note_on_c, 0, 51, 61
2,37320, Note_on_c, 0, 66, 53
2,37336, Note_on_c, 0, 50, 0
2,37346, Note_on_c, 0, 63, 43
2,37349, Note_on_c, 0, 65, 0
2,37731, Note_on_c, 0, 53, 52
2,37738, Note_on_c, 0, 63, 0
2,37740, Note_on_c, 0, 68, 54
2,37757, Note_on_c, 0, 66, 0
2,37762, Note_on_c, 0, 62, 40
2,37763, Note_on_c, 0, 51, 0
2,38111, Note_on_c, 0, 62, 0
2,38124, Note_on_c, 0, 60, 43
2,38495, Note_on_c, 0, 46, 48
2,38495, Note_on_c, 0, 60, 0
2,38518, Note_on_c, 0, 62, 41
2,38585, Note_on_c, 0, 53, 0
2,38905, Note_on_c, 0, 66, 53
2,38943, Note_on_c, 0, 62, 0
2,39051, Note_on_c, 0, 65, 59
2,39066, Note_on_c, 0, 66, 0
2,39272, Note_on_c, 0, 51, 48
2,39277, Note_on_c, 0, 68, 0
2,39299, Note_on_c, 0, 66, 51
2,39305, Note_on_c, 0, 65, 0
2,39315, Note_on_c, 0, 63, 48
2,39372, Note_on_c, 0, 46, 0
2,39668, Note_on_c, 0, 68, 67
2,39681, Note_on_c, 0, 65, 55
2,39700, Note_on_c, 0, 63, 0
2,39706, Note_on_c, 0, 66, 0
2,40050, Note_on_c, 0, 66, 59
2,40060, Note_on_c, 0, 70, 64
2,40068, Note_on_c, 0, 65, 0
2,40164, Note_on_c, 0, 68, 0
2,40438, Note_on_c, 0, 49, 67
2,40523, Note_on_c, 0, 51, 0
2,40671, Note_on_c, 0, 70, 0
2,40823, Note_on_c, 0, 47, 57
2,40827, Note_on_c, 0, 71, 66
2,40838, Note_on_c, 0, 68, 57
2,40848, Note_on_c, 0, 66, 0
2,40922, Note_on_c, 0, 49, 0
2,41194, Note_on_c, 0, 73, 67
2,41213, Note_on_c, 0, 68, 0
2,41221, Note_on_c, 0, 66, 52
2,41223, Note_on_c, 0, 71, 0
2,41366, Note_on_c, 0, 75, 68
2,41382, Note_on_c, 0, 73, 0
2,41583, Note_on_c, 0, 68, 66
2,41594, Note_on_c, 0, 65, 21
2,41594, Note_on_c, 0, 75, 0
2,41656, Note_on_c, 0, 66, 0
2,41959, Note_on_c, 0, 65, 0
2,41961, Note_on_c, 0, 61, 53
2,42333, Note_on_c, 0, 66, 53
2,42337, Note_on_c, 0, 46, 44
2,42351, Note_on_c, 0, 61, 0
2,42408, Note_on_c, 0, 47, 0
2,42447, Note_on_c, 0, 68, 0
2,42525, Control_c, 0, 64, 33
2,42543, Control_c, 0, 64, 58
2,42563, Control_c, 0, 64, 63
2,42582, Control_c, 0, 64, 65
2,42601, Control_c, 0, 64, 67
2,42620, Control_c, 0, 64, 69
2,42640, Control_c, 0, 64, 76
2,42659, Control_c, 0, 64, 84
2,42678, Control_c, 0, 64, 94
2,42697, Control_c, 0, 64, 113
2,42717, Control_c, 0, 64, 127
2,42720, Note_on_c, 0, 70, 59
2,42801, Note_on_c, 0, 70, 0
2,43110, Note_on_c, 0, 71, 46
2,43122, Note_on_c, 0, 44, 38
2,43137, Control_c, 0, 64, 102
2,43156, Control_c, 0, 64, 75
2,43175, Control_c, 0, 64, 59
2,43179, Note_on_c, 0, 46, 0
2,43195, Control_c, 0, 64, 0
2,43272, Control_c, 0, 64, 21
2,43290, Control_c, 0, 64, 53
2,43310, Control_c, 0, 64, 62
2,43329, Control_c, 0, 64, 65
2,43349, Control_c, 0, 64, 68
2,43367, Control_c, 0, 64, 72
2,43387, Control_c, 0, 64, 78
2,43408, Control_c, 0, 64, 86
2,43427, Control_c, 0, 64, 94
2,43446, Control_c, 0, 64, 102
2,43466, Control_c, 0, 64, 109
2,43485, Control_c, 0, 64, 110
2,43488, Note_on_c, 0, 73, 57
2,43499, Note_on_c, 0, 46, 46
2,43503, Control_c, 0, 64, 104
2,43523, Control_c, 0, 64, 91
2,43542, Control_c, 0, 64, 77
2,43542, Note_on_c, 0, 66, 0
2,43546, Note_on_c, 0, 44, 0
2,43561, Control_c, 0, 64, 66
2,43580, Control_c, 0, 64, 52
2,43600, Control_c, 0, 64, 0
2,43620, Note_on_c, 0, 71, 0
2,43875, Note_on_c, 0, 46, 0
2,43889, Note_on_c, 0, 75, 67
2,43896, Note_on_c, 0, 47, 47
2,43902, Note_on_c, 0, 65, 49
2,43926, Note_on_c, 0, 73, 0
2,44241, Note_on_c, 0, 47, 0
2,44244, Note_on_c, 0, 75, 0
2,44256, Note_on_c, 0, 49, 57
2,44262, Note_on_c, 0, 77, 69
2,44648, Note_on_c, 0, 78, 69
2,44661, Note_on_c, 0, 51, 56
2,44671, Note_on_c, 0, 77, 0
2,44685, Note_on_c, 0, 65, 0
2,44689, Note_on_c, 0, 49, 0
2,45028, Note_on_c, 0, 80, 78
2,45060, Note_on_c, 0, 51, 0
2,45078, Note_on_c, 0, 53, 52
2,45086, Note_on_c, 0, 78, 0
2,45422, Note_on_c, 0, 82, 79
2,45430, Note_on_c, 0, 54, 57
2,45437, Note_on_c, 0, 63, 51
2,45440, Note_on_c, 0, 53, 0
2,45455, Note_on_c, 0, 80, 0
2,45578, Control_c, 0, 64, 51
2,45598, Control_c, 0, 64, 61
2,45616, Control_c, 0, 64, 64
2,45636, Control_c, 0, 64, 66
2,45655, Control_c, 0, 64, 69
2,45675, Control_c, 0, 64, 74
2,45693, Control_c, 0, 64, 81
2,45713, Control_c, 0, 64, 88
2,45732, Control_c, 0, 64, 96
2,45751, Control_c, 0, 64, 107
2,45770, Control_c, 0, 64, 127
2,45783, Note_on_c, 0, 54, 0
2,45807, Note_on_c, 0, 56, 59
2,45810, Note_on_c, 0, 83, 78
2,45828, Control_c, 0, 64, 110
2,45847, Control_c, 0, 64, 89
2,45854, Note_on_c, 0, 82, 0
2,45867, Control_c, 0, 64, 72
2,45885, Control_c, 0, 64, 61
2,45904, Control_c, 0, 64, 34
2,45923, Control_c, 0, 64, 0
2,45942, Control_c, 0, 64, 18
2,45961, Control_c, 0, 64, 49
2,45980, Control_c, 0, 64, 60
2,46000, Control_c, 0, 64, 64
2,46019, Control_c, 0, 64, 68
2,46038, Control_c, 0, 64, 73
2,46057, Control_c, 0, 64, 81
2,46077, Control_c, 0, 64, 90
2,46095, Control_c, 0, 64, 103
2,46115, Control_c, 0, 64, 127
2,46199, Note_on_c, 0, 63, 0
2,46201, Note_on_c, 0, 58, 58
2,46206, Note_on_c, 0, 61, 64
2,46211, Note_on_c, 0, 56, 0
2,46230, Control_c, 0, 64, 85
2,46249, Control_c, 0, 64, 68
2,46269, Control_c, 0, 64, 53
2,46287, Control_c, 0, 64, 13
2,46306, Control_c, 0, 64, 11
2,46325, Control_c, 0, 64, 41
2,46344, Control_c, 0, 64, 58
2,46364, Control_c, 0, 64, 65
2,46382, Control_c, 0, 64, 69
2,46402, Control_c, 0, 64, 76
2,46421, Control_c, 0, 64, 86
2,46440, Control_c, 0, 64, 100
2,46459, Control_c, 0, 64, 127
2,46556, Control_c, 0, 64, 104
2,46575, Control_c, 0, 64, 78
2,46584, Note_on_c, 0, 73, 74
2,46586, Note_on_c, 0, 83, 0
2,46591, Note_on_c, 0, 56, 52
2,46591, Note_on_c, 0, 65, 57
2,46594, Control_c, 0, 64, 64
2,46613, Control_c, 0, 64, 54
2,46619, Note_on_c, 0, 58, 0
2,46633, Control_c, 0, 64, 56
2,46639, Note_on_c, 0, 61, 0
2,46651, Control_c, 0, 64, 62
2,46671, Control_c, 0, 64, 66
2,46690, Control_c, 0, 64, 73
2,46710, Control_c, 0, 64, 86
2,46728, Control_c, 0, 64, 117
2,46748, Control_c, 0, 64, 127
2,46974, Note_on_c, 0, 58, 55
2,46995, Note_on_c, 0, 65, 0
2,47000, Note_on_c, 0, 78, 83
2,47014, Note_on_c, 0, 73, 0
2,47017, Note_on_c, 0, 66, 57
2,47026, Note_on_c, 0, 56, 0
2,47091, Control_c, 0, 64, 97
2,47111, Control_c, 0, 64, 74
2,47130, Control_c, 0, 64, 60
2,47149, Control_c, 0, 64, 0
2,47368, Note_on_c, 0, 59, 63
2,47377, Note_on_c, 0, 66, 0
2,47383, Note_on_c, 0, 68, 69
2,47402, Note_on_c, 0, 58, 0
2,47768, Note_on_c, 0, 70, 72
2,47777, Note_on_c, 0, 61, 61
2,47806, Note_on_c, 0, 59, 0
2,47812, Note_on_c, 0, 68, 0
2,48150, Note_on_c, 0, 70, 0
2,48160, Note_on_c, 0, 71, 72
2,48512, Note_on_c, 0, 78, 0
2,48542, Note_on_c, 0, 49, 53
2,48565, Note_on_c, 0, 77, 71
2,48575, Note_on_c, 0, 73, 61
2,48604, Note_on_c, 0, 71, 0
2,48636, Note_on_c, 0, 61, 0
2,48937, Note_on_c, 0, 71, 57
2,48940, Note_on_c, 0, 73, 0
2,49332, Note_on_c, 0, 70, 61
2,49345, Note_on_c, 0, 42, 46
2,49361, Note_on_c, 0, 49, 0
2,49411, Note_on_c, 0, 71, 0
2,49513, Control_c, 0, 64, 19
2,49531, Control_c, 0, 64, 59
2,49551, Control_c, 0, 64, 64
2,49570, Control_c, 0, 64, 66
2,49590, Control_c, 0, 64, 69
2,49608, Control_c, 0, 64, 73
2,49628, Control_c, 0, 64, 81
2,49647, Control_c, 0, 64, 92
2,49665, Control_c, 0, 64, 119
2,49685, Control_c, 0, 64, 127
2,49710, Note_on_c, 0, 77, 0
2,49722, Note_on_c, 0, 68, 66
2,49740, Note_on_c, 0, 70, 0
2,50130, Note_on_c, 0, 54, 29
2,50139, Note_on_c, 0, 75, 57
2,50140, Note_on_c, 0, 66, 43
2,50147, Control_c, 0, 64, 103
2,50159, Note_on_c, 0, 42, 0
2,50166, Control_c, 0, 64, 72
2,50185, Control_c, 0, 64, 44
2,50191, Note_on_c, 0, 68, 0
2,50205, Control_c, 0, 64, 0
2,50281, Control_c, 0, 64, 45
2,50300, Control_c, 0, 64, 63
2,50320, Control_c, 0, 64, 70
2,50339, Control_c, 0, 64, 80
2,50358, Control_c, 0, 64, 105
2,50377, Control_c, 0, 64, 127
2,50389, Note_on_c, 0, 66, 0
2,50520, Note_on_c, 0, 73, 56
2,50536, Note_on_c, 0, 65, 43
2,50569, Control_c, 0, 64, 90
2,50589, Control_c, 0, 64, 72
2,50608, Control_c, 0, 64, 63
2,50627, Control_c, 0, 64, 56
2,50638, Note_on_c, 0, 75, 0
2,50646, Control_c, 0, 64, 59
2,50665, Control_c, 0, 64, 63
2,50673, Note_on_c, 0, 65, 0
2,50685, Control_c, 0, 64, 67
2,50703, Control_c, 0, 64, 72
2,50722, Control_c, 0, 64, 80
2,50741, Control_c, 0, 64, 92
2,50760, Control_c, 0, 64, 127
2,50896, Note_on_c, 0, 72, 66
2,50914, Control_c, 0, 64, 88
2,50921, Note_on_c, 0, 63, 51
2,50933, Control_c, 0, 64, 71
2,50948, Note_on_c, 0, 73, 0
2,50953, Control_c, 0, 64, 61
2,50971, Control_c, 0, 64, 50
2,50991, Control_c, 0, 64, 53
2,51010, Control_c, 0, 64, 59
2,51030, Control_c, 0, 64, 64
2,51048, Control_c, 0, 64, 68
2,51068, Control_c, 0, 64, 73
2,51082, Note_on_c, 0, 63, 0
2,51088, Control_c, 0, 64, 81
2,51107, Control_c, 0, 64, 92
2,51126, Control_c, 0, 64, 106
2,51127, Note_on_c, 0, 54, 0
2,51145, Control_c, 0, 64, 127
2,51284, Note_on_c, 0, 74, 70
2,51299, Control_c, 0, 64, 87
2,51300, Note_on_c, 0, 53, 51
2,51300, Note_on_c, 0, 65, 56
2,51318, Control_c, 0, 64, 67
2,51337, Control_c, 0, 64, 45
2,51342, Note_on_c, 0, 72, 0
2,51357, Control_c, 0, 64, 0
2,51395, Control_c, 0, 64, 15
2,51412, Note_on_c, 0, 65, 0
2,51414, Control_c, 0, 64, 53
2,51434, Control_c, 0, 64, 63
2,51452, Control_c, 0, 64, 67
2,51472, Control_c, 0, 64, 70
2,51491, Control_c, 0, 64, 75
2,51511, Control_c, 0, 64, 81
2,51529, Control_c, 0, 64, 87
2,51549, Control_c, 0, 64, 93
2,51568, Control_c, 0, 64, 100
2,51587, Control_c, 0, 64, 112
2,51606, Control_c, 0, 64, 127
2,51660, Note_on_c, 0, 75, 77
2,51663, Control_c, 0, 64, 102
2,51667, Note_on_c, 0, 51, 51
2,51676, Note_on_c, 0, 66, 61
2,51683, Control_c, 0, 64, 83
2,51684, Note_on_c, 0, 74, 0
2,51702, Control_c, 0, 64, 68
2,51721, Control_c, 0, 64, 53
2,51728, Note_on_c, 0, 53, 0
2,51740, Control_c, 0, 64, 23
2,51779, Control_c, 0, 64, 43
2,51798, Control_c, 0, 64, 58
2,51817, Control_c, 0, 64, 63
2,51817, Note_on_c, 0, 66, 0
2,51837, Control_c, 0, 64, 66
2,51855, Control_c, 0, 64, 70
2,51875, Control_c, 0, 64, 76
2,51894, Control_c, 0, 64, 84
2,51914, Control_c, 0, 64, 93
2,51932, Control_c, 0, 64, 102
2,51952, Control_c, 0, 64, 112
2,51971, Control_c, 0, 64, 123
2,51991, Control_c, 0, 64, 127
2,52047, Note_on_c, 0, 75, 0
2,52053, Control_c, 0, 64, 107
2,52056, Note_on_c, 0, 49, 62
2,52060, Note_on_c, 0, 77, 80
2,52064, Note_on_c, 0, 70, 69
2,52073, Control_c, 0, 64, 86
2,52092, Control_c, 0, 64, 69
2,52093, Note_on_c, 0, 51, 0
2,52111, Control_c, 0, 64, 56
2,52130, Control_c, 0, 64, 0
2,52188, Control_c, 0, 64, 46
2,52207, Control_c, 0, 64, 61
2,52227, Control_c, 0, 64, 65
2,52245, Control_c, 0, 64, 69
2,52264, Control_c, 0, 64, 75
2,52284, Control_c, 0, 64, 84
2,52303, Control_c, 0, 64, 93
2,52322, Control_c, 0, 64, 101
2,52335, Note_on_c, 0, 70, 0
2,52341, Control_c, 0, 64, 107
2,52361, Control_c, 0, 64, 113
2,52380, Control_c, 0, 64, 118
2,52399, Control_c, 0, 64, 127
2,52450, Note_on_c, 0, 48, 53
2,52468, Note_on_c, 0, 49, 0
2,52481, Note_on_c, 0, 78, 78
2,52497, Note_on_c, 0, 75, 68
2,52523, Note_on_c, 0, 77, 0
2,52533, Control_c, 0, 64, 104
2,52553, Control_c, 0, 64, 79
2,52572, Control_c, 0, 64, 62
2,52591, Control_c, 0, 64, 0
2,52841, Note_on_c, 0, 73, 57
2,52845, Note_on_c, 0, 46, 53
2,52897, Note_on_c, 0, 75, 0
2,52902, Note_on_c, 0, 48, 0
2,53236, Note_on_c, 0, 77, 71
2,53237, Note_on_c, 0, 45, 51
2,53246, Note_on_c, 0, 72, 59
2,53246, Note_on_c, 0, 73, 0
2,53286, Note_on_c, 0, 46, 0
2,53322, Note_on_c, 0, 78, 0
2,53640, Note_on_c, 0, 75, 73
2,53647, Note_on_c, 0, 41, 54
2,53660, Note_on_c, 0, 45, 0
2,53717, Note_on_c, 0, 77, 0
2,54004, Note_on_c, 0, 46, 53
2,54040, Note_on_c, 0, 73, 69
2,54061, Note_on_c, 0, 41, 0
2,54105, Note_on_c, 0, 75, 0
2,54385, Note_on_c, 0, 46, 0
2,54394, Note_on_c, 0, 48, 54
2,54409, Note_on_c, 0, 75, 80
2,54462, Note_on_c, 0, 73, 0
2,54792, Note_on_c, 0, 49, 51
2,54808, Note_on_c, 0, 77, 76
2,54815, Note_on_c, 0, 70, 64
2,54825, Note_on_c, 0, 75, 0
2,54844, Note_on_c, 0, 48, 0
2,54852, Note_on_c, 0, 72, 0
2,55192, Note_on_c, 0, 78, 79
2,55208, Note_on_c, 0, 51, 49
2,55221, Note_on_c, 0, 49, 0
2,55222, Note_on_c, 0, 77, 0
2,55604, Note_on_c, 0, 73, 81
2,55620, Note_on_c, 0, 53, 54
2,55629, Note_on_c, 0, 51, 0
2,55671, Note_on_c, 0, 78, 0
2,55719, Control_c, 0, 64, 30
2,55738, Control_c, 0, 64, 62
2,55757, Control_c, 0, 64, 66
2,55776, Control_c, 0, 64, 71
2,55795, Control_c, 0, 64, 79
2,55815, Control_c, 0, 64, 94
2,55833, Control_c, 0, 64, 127
2,55914, Note_on_c, 0, 70, 0
2,55920, Note_on_c, 0, 73, 0
2,56003, Note_on_c, 0, 51, 67
2,56032, Note_on_c, 0, 53, 0
2,56393, Note_on_c, 0, 53, 51
2,56406, Note_on_c, 0, 72, 78
2,56416, Note_on_c, 0, 69, 72
2,56420, Note_on_c, 0, 51, 0
2,56449, Control_c, 0, 64, 85
2,56468, Control_c, 0, 64, 61
2,56485, Control_c, 0, 64, 0
2,56562, Control_c, 0, 64, 34
2,56581, Control_c, 0, 64, 64
2,56600, Control_c, 0, 64, 72
2,56619, Control_c, 0, 64, 92
2,56638, Control_c, 0, 64, 127
2,56740, Note_on_c, 0, 72, 0
2,56816, Note_on_c, 0, 69, 0
2,56858, Note_on_c, 0, 41, 70
2,56871, Note_on_c, 0, 53, 0
2,57327, Note_on_c, 0, 46, 58
2,57380, Note_on_c, 0, 41, 0
2,57383, Note_on_c, 0, 58, 78
2,57389, Note_on_c, 0, 70, 79
2,57502, Control_c, 0, 64, 91
2,57522, Control_c, 0, 64, 68
2,57541, Control_c, 0, 64, 39
2,57560, Control_c, 0, 64, 0
2,57784, Note_on_c, 0, 45, 54
2,57797, Note_on_c, 0, 46, 0
2,58186, Note_on_c, 0, 65, 74
2,58192, Note_on_c, 0, 46, 51
2,58203, Note_on_c, 0, 45, 0
2,58218, Note_on_c, 0, 58, 0
2,58328, Control_c, 0, 64, 61
2,58347, Control_c, 0, 64, 67
2,58367, Control_c, 0, 64, 72
2,58385, Control_c, 0, 64, 80
2,58406, Control_c, 0, 64, 90
2,58425, Control_c, 0, 64, 106
2,58444, Control_c, 0, 64, 127
2,58493, Note_on_c, 0, 70, 0
2,58532, Note_on_c, 0, 46, 0
2,58552, Note_on_c, 0, 48, 55
2,58966, Note_on_c, 0, 70, 84
2,58973, Note_on_c, 0, 49, 60
2,58982, Control_c, 0, 64, 101
2,58985, Note_on_c, 0, 48, 0
2,59001, Control_c, 0, 64, 72
2,59020, Control_c, 0, 64, 41
2,59040, Control_c, 0, 64, 0
2,59116, Control_c, 0, 64, 54
2,59135, Control_c, 0, 64, 64
2,59154, Control_c, 0, 64, 71
2,59174, Control_c, 0, 64, 85
2,59193, Control_c, 0, 64, 127
2,59328, Control_c, 0, 64, 90
2,59346, Control_c, 0, 64, 70
2,59353, Note_on_c, 0, 49, 0
2,59360, Note_on_c, 0, 48, 53
2,59365, Control_c, 0, 64, 58
2,59369, Note_on_c, 0, 66, 76
2,59384, Control_c, 0, 64, 51
2,59403, Control_c, 0, 64, 57
2,59415, Note_on_c, 0, 65, 0
2,59422, Control_c, 0, 64, 63
2,59437, Note_on_c, 0, 70, 0
2,59442, Control_c, 0, 64, 69
2,59460, Note_on_c, 0, 66, 0
2,59461, Control_c, 0, 64, 78
2,59480, Control_c, 0, 64, 96
2,59499, Control_c, 0, 64, 127
2,59730, Control_c, 0, 64, 103
2,59747, Note_on_c, 0, 49, 63
2,59748, Control_c, 0, 64, 75
2,59763, Note_on_c, 0, 77, 77
2,59768, Control_c, 0, 64, 60
2,59771, Note_on_c, 0, 65, 64
2,59772, Note_on_c, 0, 48, 0
2,59787, Control_c, 0, 64, 17
2,59807, Control_c, 0, 64, 0
2,59825, Control_c, 0, 64, 37
2,59844, Note_on_c, 0, 49, 0
2,59845, Control_c, 0, 64, 61
2,59864, Control_c, 0, 64, 67
2,59883, Control_c, 0, 64, 75
2,59902, Control_c, 0, 64, 90
2,59922, Control_c, 0, 64, 118
2,59941, Control_c, 0, 64, 127
2,60143, Note_on_c, 0, 63, 73
2,60148, Note_on_c, 0, 51, 58
2,60152, Control_c, 0, 64, 96
2,60171, Control_c, 0, 64, 71
2,60190, Control_c, 0, 64, 54
2,60210, Control_c, 0, 64, 0
2,60248, Control_c, 0, 64, 28
2,60267, Control_c, 0, 64, 61
2,60287, Control_c, 0, 64, 67
2,60297, Note_on_c, 0, 63, 0
2,60305, Control_c, 0, 64, 76
2,60324, Control_c, 0, 64, 93
2,60343, Control_c, 0, 64, 127
2,60469, Note_on_c, 0, 65, 0
2,60497, Note_on_c, 0, 51, 0
2,60534, Note_on_c, 0, 53, 58
2,60535, Control_c, 0, 64, 92
2,60542, Note_on_c, 0, 61, 71
2,60554, Control_c, 0, 64, 70
2,60573, Control_c, 0, 64, 55
2,60592, Control_c, 0, 64, 25
2,60612, Control_c, 0, 64, 32
2,60631, Control_c, 0, 64, 54
2,60650, Control_c, 0, 64, 64
2,60669, Control_c, 0, 64, 71
2,60690, Control_c, 0, 64, 84
2,60708, Control_c, 0, 64, 115
2,60713, Note_on_c, 0, 61, 0
2,60728, Control_c, 0, 64, 127
2,60901, Control_c, 0, 64, 111
2,60918, Note_on_c, 0, 78, 84
2,60920, Control_c, 0, 64, 78
2,60925, Note_on_c, 0, 51, 60
2,60926, Note_on_c, 0, 53, 0
2,60939, Control_c, 0, 64, 61
2,60939, Note_on_c, 0, 63, 61
2,60958, Control_c, 0, 64, 40
2,60962, Note_on_c, 0, 77, 0
2,60978, Control_c, 0, 64, 44
2,60996, Control_c, 0, 64, 57
2,61016, Control_c, 0, 64, 64
2,61035, Control_c, 0, 64, 70
2,61054, Control_c, 0, 64, 83
2,61073, Control_c, 0, 64, 112
2,61080, Note_on_c, 0, 78, 0
2,61093, Control_c, 0, 64, 127
2,61188, Note_on_c, 0, 63, 0
2,61311, Note_on_c, 0, 49, 60
2,61328, Note_on_c, 0, 77, 79
2,61338, Note_on_c, 0, 65, 62
2,61362, Control_c, 0, 64, 111
2,61365, Note_on_c, 0, 51, 0
2,61381, Control_c, 0, 64, 76
2,61400, Control_c, 0, 64, 58
2,61419, Control_c, 0, 64, 0
2,61476, Control_c, 0, 64, 38
2,61496, Control_c, 0, 64, 62
2,61515, Control_c, 0, 64, 67
2,61534, Control_c, 0, 64, 73
2,61553, Control_c, 0, 64, 84
2,61573, Control_c, 0, 64, 99
2,61592, Control_c, 0, 64, 127
2,61690, Note_on_c, 0, 51, 59
2,61698, Note_on_c, 0, 75, 80
2,61717, Note_on_c, 0, 65, 0
2,61764, Control_c, 0, 64, 82
2,61766, Note_on_c, 0, 77, 0
2,61783, Control_c, 0, 64, 64
2,61791, Note_on_c, 0, 49, 0
2,61803, Control_c, 0, 64, 0
2,61848, Note_on_c, 0, 53, 70
2,61879, Note_on_c, 0, 51, 0
2,62070, Note_on_c, 0, 54, 61
2,62072, Note_on_c, 0, 53, 0
2,62073, Note_on_c, 0, 73, 77
2,62077, Note_on_c, 0, 58, 63
2,62133, Note_on_c, 0, 75, 0
2,62252, Note_on_c, 0, 53, 62
2,62288, Note_on_c, 0, 54, 0
2,62451, Note_on_c, 0, 54, 63
2,62457, Note_on_c, 0, 75, 80
2,62464, Note_on_c, 0, 53, 0
2,62516, Note_on_c, 0, 73, 0
2,62799, Note_on_c, 0, 54, 0
2,62838, Note_on_c, 0, 45, 54
2,62847, Note_on_c, 0, 77, 79
2,62883, Note_on_c, 0, 75, 0
2,62935, Control_c, 0, 64, 51
2,62954, Control_c, 0, 64, 63
2,62973, Control_c, 0, 64, 66
2,62992, Control_c, 0, 64, 68
2,63012, Control_c, 0, 64, 74
2,63031, Control_c, 0, 64, 80
2,63050, Control_c, 0, 64, 88
2,63069, Control_c, 0, 64, 99
2,63089, Control_c, 0, 64, 119
2,63108, Control_c, 0, 64, 127
2,63211, Note_on_c, 0, 58, 0
2,63236, Note_on_c, 0, 63, 74
2,63281, Control_c, 0, 64, 95
2,63300, Control_c, 0, 64, 73
2,63318, Control_c, 0, 64, 59
2,63338, Control_c, 0, 64, 0
2,63644, Note_on_c, 0, 46, 56
2,63645, Note_on_c, 0, 70, 76
2,63648, Note_on_c, 0, 45, 0
2,63704, Control_c, 0, 64, 38
2,63723, Control_c, 0, 64, 63
2,63742, Control_c, 0, 64, 67
2,63762, Control_c, 0, 64, 72
2,63781, Control_c, 0, 64, 78
2,63799, Control_c, 0, 64, 86
2,63819, Control_c, 0, 64, 96
2,63838, Control_c, 0, 64, 127
2,64033, Note_on_c, 0, 61, 72
2,64054, Note_on_c, 0, 46, 0
2,64124, Note_on_c, 0, 61, 0
2,64398, Note_on_c, 0, 60, 67
2,64410, Note_on_c, 0, 48, 57
2,64432, Control_c, 0, 64, 95
2,64452, Control_c, 0, 64, 68
2,64471, Control_c, 0, 64, 0
2,64567, Control_c, 0, 64, 33
2,64586, Control_c, 0, 64, 61
2,64606, Control_c, 0, 64, 69
2,64624, Control_c, 0, 64, 80
2,64644, Control_c, 0, 64, 108
2,64663, Control_c, 0, 64, 127
2,64757, Note_on_c, 0, 60, 0
2,64803, Note_on_c, 0, 75, 77
2,64812, Note_on_c, 0, 77, 0
2,65152, Note_on_c, 0, 48, 0
2,65181, Note_on_c, 0, 58, 68
2,65190, Note_on_c, 0, 49, 57
2,65238, Control_c, 0, 64, 81
2,65258, Control_c, 0, 64, 63
2,65277, Control_c, 0, 64, 0
2,65335, Control_c, 0, 64, 23
2,65354, Control_c, 0, 64, 60
2,65373, Control_c, 0, 64, 67
2,65392, Control_c, 0, 64, 74
2,65412, Control_c, 0, 64, 87
2,65431, Control_c, 0, 64, 104
2,65450, Control_c, 0, 64, 127
2,65553, Note_on_c, 0, 46, 57
2,65571, Note_on_c, 0, 73, 79
2,65617, Note_on_c, 0, 49, 0
2,65636, Note_on_c, 0, 70, 0
2,65640, Control_c, 0, 64, 116
2,65655, Note_on_c, 0, 63, 0
2,65658, Control_c, 0, 64, 85
2,65678, Control_c, 0, 64, 68
2,65697, Control_c, 0, 64, 47
2,65716, Control_c, 0, 64, 0
2,65741, Note_on_c, 0, 75, 0
2,65946, Note_on_c, 0, 53, 53
2,65970, Note_on_c, 0, 72, 79
2,66027, Note_on_c, 0, 46, 0
2,66031, Note_on_c, 0, 73, 0
2,66366, Note_on_c, 0, 51, 55
2,66369, Note_on_c, 0, 68, 81
2,66747, Note_on_c, 0, 51, 0
2,66757, Note_on_c, 0, 50, 52
2,66765, Note_on_c, 0, 70, 77
2,66772, Control_c, 0, 64, 48
2,66792, Control_c, 0, 64, 59
2,66807, Note_on_c, 0, 53, 0
2,66810, Control_c, 0, 64, 64
2,66830, Control_c, 0, 64, 67
2,66849, Control_c, 0, 64, 71
2,66868, Control_c, 0, 64, 78
2,66887, Control_c, 0, 64, 85
2,66894, Note_on_c, 0, 68, 0
2,66906, Control_c, 0, 64, 90
2,66926, Control_c, 0, 64, 91
2,66945, Control_c, 0, 64, 89
2,66964, Control_c, 0, 64, 83
2,66983, Control_c, 0, 64, 77
2,67003, Control_c, 0, 64, 74
2,67021, Control_c, 0, 64, 76
2,67041, Control_c, 0, 64, 79
2,67060, Control_c, 0, 64, 84
2,67080, Control_c, 0, 64, 92
2,67098, Control_c, 0, 64, 112
2,67118, Control_c, 0, 64, 127
2,67130, Note_on_c, 0, 51, 58
2,67140, Note_on_c, 0, 50, 0
2,67146, Note_on_c, 0, 66, 77
2,67214, Control_c, 0, 64, 83
2,67233, Control_c, 0, 64, 64
2,67252, Control_c, 0, 64, 0
2,67281, Note_on_c, 0, 70, 0
2,67283, Note_on_c, 0, 72, 0
2,67348, Control_c, 0, 64, 53
2,67367, Control_c, 0, 64, 64
2,67386, Control_c, 0, 64, 69
2,67407, Control_c, 0, 64, 79
2,67425, Control_c, 0, 64, 94
2,67445, Control_c, 0, 64, 127
2,67541, Note_on_c, 0, 65, 71
2,67565, Note_on_c, 0, 66, 0
2,67591, Note_on_c, 0, 58, 0
2,67595, Note_on_c, 0, 65, 0
2,67928, Note_on_c, 0, 51, 0
2,67935, Note_on_c, 0, 50, 60
2,67951, Note_on_c, 0, 80, 83
2,68000, Note_on_c, 0, 50, 0
2,68317, Note_on_c, 0, 51, 66
2,68331, Note_on_c, 0, 63, 75
2,68348, Control_c, 0, 64, 77
2,68368, Control_c, 0, 64, 48
2,68386, Control_c, 0, 64, 0
2,68463, Control_c, 0, 64, 46
2,68483, Control_c, 0, 64, 62
2,68502, Control_c, 0, 64, 68
2,68521, Control_c, 0, 64, 75
2,68540, Control_c, 0, 64, 85
2,68560, Control_c, 0, 64, 95
2,68579, Control_c, 0, 64, 105
2,68598, Control_c, 0, 64, 121
2,68617, Control_c, 0, 64, 127
2,68685, Note_on_c, 0, 60, 54
2,68701, Note_on_c, 0, 78, 82
2,68732, Control_c, 0, 64, 109
2,68752, Control_c, 0, 64, 80
2,68771, Control_c, 0, 64, 64
2,68783, Note_on_c, 0, 80, 0
2,68791, Control_c, 0, 64, 0
2,68848, Control_c, 0, 64, 9
2,68866, Control_c, 0, 64, 54
2,68886, Control_c, 0, 64, 64
2,68905, Control_c, 0, 64, 69
2,68925, Control_c, 0, 64, 79
2,68943, Control_c, 0, 64, 90
2,68963, Control_c, 0, 64, 102
2,68982, Control_c, 0, 64, 123
2,69001, Control_c, 0, 64, 127
2,69079, Note_on_c, 0, 63, 0
2,69090, Note_on_c, 0, 57, 56
2,69099, Note_on_c, 0, 77, 80
2,69117, Control_c, 0, 64, 91
2,69121, Note_on_c, 0, 51, 0
2,69123, Note_on_c, 0, 60, 0
2,69135, Control_c, 0, 64, 71
2,69155, Control_c, 0, 64, 58
2,69167, Note_on_c, 0, 78, 0
2,69174, Control_c, 0, 64, 0
2,69212, Control_c, 0, 64, 22
2,69232, Control_c, 0, 64, 53
2,69251, Control_c, 0, 64, 63
2,69271, Control_c, 0, 64, 66
2,69289, Control_c, 0, 64, 69
2,69308, Control_c, 0, 64, 74
2,69329, Control_c, 0, 64, 80
2,69347, Control_c, 0, 64, 88
2,69367, Control_c, 0, 64, 96
2,69386, Control_c, 0, 64, 104
2,69405, Control_c, 0, 64, 110
2,69424, Control_c, 0, 64, 111
2,69444, Control_c, 0, 64, 107
2,69463, Control_c, 0, 64, 93
2,69481, Note_on_c, 0, 61, 67
2,69482, Control_c, 0, 64, 72
2,69483, Note_on_c, 0, 58, 62
2,69490, Note_on_c, 0, 57, 0
2,69501, Control_c, 0, 64, 57
2,69521, Control_c, 0, 64, 0
2,69598, Control_c, 0, 64, 37
2,69616, Control_c, 0, 64, 59
2,69636, Control_c, 0, 64, 64
2,69655, Control_c, 0, 64, 67
2,69675, Control_c, 0, 64, 70
2,69693, Control_c, 0, 64, 75
2,69713, Control_c, 0, 64, 81
2,69732, Control_c, 0, 64, 89
2,69751, Control_c, 0, 64, 101
2,69770, Control_c, 0, 64, 121
2,69789, Control_c, 0, 64, 127
2,69847, Control_c, 0, 64, 121
2,69848, Note_on_c, 0, 54, 61
2,69858, Note_on_c, 0, 70, 80
2,69866, Control_c, 0, 64, 91
2,69885, Control_c, 0, 64, 70
2,69904, Control_c, 0, 64, 56
2,69923, Control_c, 0, 64, 0
2,69974, Note_on_c, 0, 77, 0
2,69980, Control_c, 0, 64, 41
2,70000, Control_c, 0, 64, 59
2,70019, Control_c, 0, 64, 64
2,70038, Control_c, 0, 64, 67
2,70041, Note_on_c, 0, 75, 77
2,70057, Control_c, 0, 64, 72
2,70077, Control_c, 0, 64, 80
2,70089, Note_on_c, 0, 70, 0
2,70095, Control_c, 0, 64, 89
2,70115, Control_c, 0, 64, 101
2,70134, Control_c, 0, 64, 127
2,70228, Note_on_c, 0, 53, 65
2,70228, Note_on_c, 0, 75, 0
2,70231, Control_c, 0, 64, 98
2,70234, Note_on_c, 0, 77, 80
2,70244, Note_on_c, 0, 54, 0
2,70246, Note_on_c, 0, 69, 71
2,70249, Control_c, 0, 64, 75
2,70268, Control_c, 0, 64, 61
2,70285, Note_on_c, 0, 61, 0
2,70288, Control_c, 0, 64, 21
2,70294, Note_on_c, 0, 58, 0
2,70306, Control_c, 0, 64, 0
2,70326, Control_c, 0, 64, 26
2,70341, Note_on_c, 0, 69, 0
2,70345, Control_c, 0, 64, 54
2,70365, Control_c, 0, 64, 63
2,70383, Control_c, 0, 64, 67
2,70403, Control_c, 0, 64, 71
2,70404, Note_on_c, 0, 78, 79
2,70421, Note_on_c, 0, 77, 0
2,70422, Control_c, 0, 64, 77
2,70441, Control_c, 0, 64, 85
2,70460, Control_c, 0, 64, 92
2,70480, Control_c, 0, 64, 98
2,70499, Control_c, 0, 64, 104
2,70518, Control_c, 0, 64, 112
2,70537, Control_c, 0, 64, 127
2,70595, Control_c, 0, 64, 116
2,70613, Note_on_c, 0, 77, 75
2,70614, Control_c, 0, 64, 93
2,70622, Note_on_c, 0, 54, 63
2,70628, Note_on_c, 0, 70, 63
2,70629, Note_on_c, 0, 78, 0
2,70634, Control_c, 0, 64, 74
2,70641, Note_on_c, 0, 53, 0
2,70652, Control_c, 0, 64, 61
2,70672, Control_c, 0, 64, 0
2,70686, Note_on_c, 0, 77, 0
2,70688, Note_on_c, 0, 75, 76
2,70755, Note_on_c, 0, 75, 0
2,70757, Note_on_c, 0, 77, 72
2,70806, Control_c, 0, 64, 34
2,70825, Control_c, 0, 64, 60
2,70832, Note_on_c, 0, 77, 0
2,70838, Note_on_c, 0, 75, 68
2,70845, Control_c, 0, 64, 66
2,70863, Control_c, 0, 64, 69
2,70876, Note_on_c, 0, 75, 0
2,70882, Control_c, 0, 64, 73
2,70883, Note_on_c, 0, 77, 69
2,70901, Control_c, 0, 64, 76
2,70921, Control_c, 0, 64, 74
2,70939, Control_c, 0, 64, 66
2,70955, Note_on_c, 0, 75, 84
2,70959, Control_c, 0, 64, 47
2,70976, Note_on_c, 0, 77, 0
2,70978, Control_c, 0, 64, 0
2,71074, Control_c, 0, 64, 43
2,71093, Control_c, 0, 64, 62
2,71113, Control_c, 0, 64, 67
2,71131, Control_c, 0, 64, 75
2,71151, Control_c, 0, 64, 86
2,71170, Control_c, 0, 64, 104
2,71177, Note_on_c, 0, 70, 0
2,71189, Control_c, 0, 64, 127
2,71204, Note_on_c, 0, 54, 0
2,71225, Note_on_c, 0, 77, 86
2,71247, Note_on_c, 0, 75, 0
2,71315, Note_on_c, 0, 77, 0
2,71496, Control_c, 0, 64, 119
2,71500, Note_on_c, 0, 53, 65
2,71504, Note_on_c, 0, 77, 85
2,71516, Control_c, 0, 64, 76
2,71516, Note_on_c, 0, 69, 73
2,71535, Control_c, 0, 64, 34
2,71554, Control_c, 0, 64, 0
2,71669, Control_c, 0, 64, 62
2,71688, Control_c, 0, 64, 68
2,71707, Control_c, 0, 64, 76
2,71727, Control_c, 0, 64, 90
2,71745, Control_c, 0, 64, 117
2,71765, Control_c, 0, 64, 127
2,71772, Note_on_c, 0, 69, 0
2,72286, Note_on_c, 0, 53, 0
2,72352, Note_on_c, 0, 82, 87
2,72370, Note_on_c, 0, 70, 67
2,72382, Note_on_c, 0, 77, 0
2,72572, Control_c, 0, 64, 108
2,72592, Control_c, 0, 64, 80
2,72611, Control_c, 0, 64, 64
2,72631, Control_c, 0, 64, 0
2,73170, Note_on_c, 0, 54, 66
2,73184, Note_on_c, 0, 75, 71
2,73223, Control_c, 0, 64, 22
2,73243, Control_c, 0, 64, 59
2,73261, Control_c, 0, 64, 65
2,73281, Control_c, 0, 64, 69
2,73300, Control_c, 0, 64, 74
2,73305, Note_on_c, 0, 70, 0
2,73320, Control_c, 0, 64, 83
2,73338, Control_c, 0, 64, 94
2,73351, Note_on_c, 0, 82, 0
2,73358, Control_c, 0, 64, 112
2,73377, Control_c, 0, 64, 127
2,73575, Note_on_c, 0, 83, 82
2,73600, Note_on_c, 0, 75, 0
2,73949, Note_on_c, 0, 82, 82
2,73952, Note_on_c, 0, 59, 64
2,73972, Control_c, 0, 64, 84
2,73992, Control_c, 0, 64, 66
2,73999, Note_on_c, 0, 83, 0
2,74010, Control_c, 0, 64, 27
2,74029, Control_c, 0, 64, 0
2,74032, Note_on_c, 0, 54, 0
2,74068, Control_c, 0, 64, 9
2,74087, Control_c, 0, 64, 53
2,74106, Control_c, 0, 64, 63
2,74126, Control_c, 0, 64, 66
2,74145, Control_c, 0, 64, 70
2,74164, Control_c, 0, 64, 75
2,74183, Control_c, 0, 64, 80
2,74203, Control_c, 0, 64, 85
2,74221, Control_c, 0, 64, 89
2,74241, Control_c, 0, 64, 92
2,74260, Control_c, 0, 64, 95
2,74280, Control_c, 0, 64, 97
2,74298, Control_c, 0, 64, 99
2,74318, Control_c, 0, 64, 100
2,74334, Note_on_c, 0, 80, 80
2,74354, Note_on_c, 0, 77, 73
2,74358, Control_c, 0, 64, 97
2,74373, Note_on_c, 0, 82, 0
2,74378, Control_c, 0, 64, 88
2,74397, Control_c, 0, 64, 75
2,74417, Control_c, 0, 64, 64
2,74435, Control_c, 0, 64, 21
2,74455, Control_c, 0, 64, 0
2,74739, Note_on_c, 0, 79, 80
2,74742, Note_on_c, 0, 77, 0
2,74749, Note_on_c, 0, 75, 69
2,74778, Note_on_c, 0, 80, 0
2,75142, Note_on_c, 0, 80, 76
2,75148, Note_on_c, 0, 61, 60
2,75168, Note_on_c, 0, 59, 0
2,75215, Note_on_c, 0, 79, 0
2,75543, Note_on_c, 0, 59, 62
2,75548, Note_on_c, 0, 82, 80
2,75604, Note_on_c, 0, 61, 0
2,75618, Note_on_c, 0, 80, 0
2,75947, Note_on_c, 0, 73, 70
2,75951, Note_on_c, 0, 58, 52
2,75966, Note_on_c, 0, 75, 0
2,75994, Note_on_c, 0, 59, 0
2,76203, Control_c, 0, 64, 11
2,76221, Control_c, 0, 64, 15
2,76240, Control_c, 0, 64, 17
2,76355, Note_on_c, 0, 75, 75
2,76364, Note_on_c, 0, 56, 54
2,76364, Note_on_c, 0, 72, 65
2,76389, Note_on_c, 0, 73, 0
2,76391, Note_on_c, 0, 58, 0
2,76403, Note_on_c, 0, 82, 0
2,76413, Control_c, 0, 64, 18
2,76606, Control_c, 0, 64, 19
2,76742, Note_on_c, 0, 56, 0
2,76746, Note_on_c, 0, 55, 62
2,76856, Control_c, 0, 64, 18
2,76875, Control_c, 0, 64, 17
2,76894, Control_c, 0, 64, 15
2,76913, Control_c, 0, 64, 13
2,77104, Control_c, 0, 64, 11
2,77143, Control_c, 0, 64, 9
2,77148, Note_on_c, 0, 80, 81
2,77173, Note_on_c, 0, 56, 53
2,77181, Control_c, 0, 64, 0
2,77192, Note_on_c, 0, 55, 0
2,77547, Note_on_c, 0, 58, 57
2,77549, Note_on_c, 0, 73, 76
2,77566, Note_on_c, 0, 56, 0
2,77597, Note_on_c, 0, 72, 0
2,77599, Note_on_c, 0, 75, 0
2,77973, Note_on_c, 0, 75, 81
2,77978, Note_on_c, 0, 60, 56
2,77999, Note_on_c, 0, 58, 0
2,78279, Note_on_c, 0, 80, 0
2,78353, Note_on_c, 0, 78, 76
2,78376, Note_on_c, 0, 75, 0
2,78703, Note_on_c, 0, 73, 0
2,78746, Note_on_c, 0, 77, 72
2,78755, Note_on_c, 0, 68, 63
2,78756, Note_on_c, 0, 61, 50
2,78788, Note_on_c, 0, 60, 0
2,78795, Control_c, 0, 64, 9
2,78833, Control_c, 0, 64, 11
2,78839, Note_on_c, 0, 78, 0
2,78985, Control_c, 0, 64, 13
2,79023, Control_c, 0, 64, 15
2,79138, Note_on_c, 0, 61, 0
2,79148, Note_on_c, 0, 59, 64
2,79177, Control_c, 0, 64, 17
2,79388, Control_c, 0, 64, 18
2,79543, Note_on_c, 0, 73, 75
2,79545, Note_on_c, 0, 58, 48
2,79598, Note_on_c, 0, 59, 0
2,79599, Control_c, 0, 64, 19
2,79638, Control_c, 0, 64, 20
2,79928, Note_on_c, 0, 56, 60
2,79969, Note_on_c, 0, 58, 0
2,80002, Control_c, 0, 64, 21
2,80118, Control_c, 0, 64, 22
2,80176, Control_c, 0, 64, 23
2,80214, Control_c, 0, 64, 24
2,80320, Note_on_c, 0, 55, 53
2,80339, Note_on_c, 0, 56, 0
2,80343, Note_on_c, 0, 75, 73
2,80404, Note_on_c, 0, 77, 0
2,80425, Control_c, 0, 64, 25
2,80656, Control_c, 0, 64, 24
2,80674, Control_c, 0, 64, 23
2,80680, Note_on_c, 0, 73, 0
2,80694, Control_c, 0, 64, 22
2,80709, Note_on_c, 0, 51, 51
2,80713, Control_c, 0, 64, 21
2,80733, Control_c, 0, 64, 20
2,80748, Note_on_c, 0, 55, 0
2,80771, Control_c, 0, 64, 19
2,80809, Control_c, 0, 64, 18
2,80848, Control_c, 0, 64, 17
2,80867, Control_c, 0, 64, 15
2,80886, Control_c, 0, 64, 13
2,80925, Control_c, 0, 64, 11
2,81039, Control_c, 0, 64, 9
2,81078, Control_c, 0, 64, 0
2,81137, Note_on_c, 0, 56, 45
2,81166, Note_on_c, 0, 72, 66
2,81204, Note_on_c, 0, 51, 0
2,81532, Note_on_c, 0, 56, 0
2,81543, Note_on_c, 0, 58, 47
2,81930, Note_on_c, 0, 56, 43
2,81940, Note_on_c, 0, 80, 63
2,81964, Note_on_c, 0, 58, 0
2,82278, Note_on_c, 0, 68, 0
2,82313, Note_on_c, 0, 54, 43
2,82328, Note_on_c, 0, 56, 0
2,82384, Control_c, 0, 64, 45
2,82404, Control_c, 0, 64, 60
2,82423, Control_c, 0, 64, 64
2,82442, Control_c, 0, 64, 67
2,82461, Control_c, 0, 64, 70
2,82480, Control_c, 0, 64, 75
2,82500, Control_c, 0, 64, 81
2,82518, Control_c, 0, 64, 86
2,82538, Control_c, 0, 64, 91
2,82557, Control_c, 0, 64, 95
2,82577, Control_c, 0, 64, 98
2,82595, Control_c, 0, 64, 103
2,82615, Control_c, 0, 64, 110
2,82634, Control_c, 0, 64, 123
2,82654, Control_c, 0, 64, 127
2,82686, Note_on_c, 0, 72, 0
2,82714, Note_on_c, 0, 54, 0
2,82719, Note_on_c, 0, 75, 0
2,82721, Note_on_c, 0, 53, 45
2,82723, Note_on_c, 0, 68, 63
2,82749, Control_c, 0, 64, 115
2,82769, Control_c, 0, 64, 93
2,82788, Control_c, 0, 64, 75
2,82807, Control_c, 0, 64, 62
2,82826, Control_c, 0, 64, 0
2,82903, Control_c, 0, 64, 31
2,82922, Control_c, 0, 64, 56
2,82941, Control_c, 0, 64, 63
2,82960, Control_c, 0, 64, 66
2,82980, Control_c, 0, 64, 68
2,82998, Control_c, 0, 64, 71
2,83018, Control_c, 0, 64, 75
2,83037, Control_c, 0, 64, 79
2,83057, Control_c, 0, 64, 84
2,83075, Control_c, 0, 64, 88
2,83082, Note_on_c, 0, 54, 40
2,83095, Control_c, 0, 64, 91
2,83113, Note_on_c, 0, 82, 66
2,83134, Control_c, 0, 64, 90
2,83134, Note_on_c, 0, 80, 0
2,83138, Note_on_c, 0, 53, 0
2,83152, Control_c, 0, 64, 86
2,83172, Control_c, 0, 64, 77
2,83191, Control_c, 0, 64, 67
2,83210, Control_c, 0, 64, 56
2,83229, Control_c, 0, 64, 0
2,83487, Note_on_c, 0, 54, 0
2,83500, Note_on_c, 0, 73, 52
2,83504, Note_on_c, 0, 80, 62
2,83507, Note_on_c, 0, 53, 42
2,83509, Note_on_c, 0, 82, 0
2,83560, Note_on_c, 0, 68, 0
2,83897, Note_on_c, 0, 51, 38
2,83897, Note_on_c, 0, 78, 54
2,83927, Note_on_c, 0, 53, 0
2,83959, Note_on_c, 0, 80, 0
2,84295, Note_on_c, 0, 77, 51
2,84312, Note_on_c, 0, 49, 41
2,84357, Note_on_c, 0, 51, 0
2,84357, Note_on_c, 0, 78, 0
2,84694, Note_on_c, 0, 59, 39
2,84702, Note_on_c, 0, 78, 59
2,84716, Note_on_c, 0, 75, 52
2,84730, Note_on_c, 0, 73, 0
2,84733, Note_on_c, 0, 49, 0
2,84735, Note_on_c, 0, 77, 0
2,85076, Note_on_c, 0, 58, 44
2,85088, Note_on_c, 0, 80, 68
2,85095, Note_on_c, 0, 73, 50
2,85100, Note_on_c, 0, 59, 0
2,85119, Note_on_c, 0, 75, 0
2,85131, Note_on_c, 0, 78, 0
2,85450, Note_on_c, 0, 56, 44
2,85485, Note_on_c, 0, 58, 0
2,85485, Note_on_c, 0, 73, 0
2,85490, Note_on_c, 0, 71, 59
2,85861, Note_on_c, 0, 54, 43
2,85872, Note_on_c, 0, 73, 60
2,85879, Note_on_c, 0, 70, 60
2,85886, Note_on_c, 0, 56, 0
2,85894, Note_on_c, 0, 80, 0
2,85906, Note_on_c, 0, 71, 0
2,86229, Note_on_c, 0, 54, 0
2,86238, Note_on_c, 0, 56, 59
2,86279, Note_on_c, 0, 71, 53
2,86280, Note_on_c, 0, 70, 0
2,86563, Note_on_c, 0, 73, 0
2,86657, Note_on_c, 0, 54, 44
2,86674, Note_on_c, 0, 56, 0
2,86674, Note_on_c, 0, 78, 64
2,86689, Note_on_c, 0, 73, 62
2,86711, Note_on_c, 0, 71, 0
2,87016, Note_on_c, 0, 54, 0
2,87037, Note_on_c, 0, 52, 52
2,87451, Note_on_c, 0, 51, 48
2,87452, Note_on_c, 0, 66, 63
2,87469, Note_on_c, 0, 52, 0
2,87793, Note_on_c, 0, 78, 0
2,87828, Note_on_c, 0, 49, 53
2,87832, Note_on_c, 0, 76, 74
2,87851, Note_on_c, 0, 73, 0
2,87858, Note_on_c, 0, 51, 0
2,88167, Note_on_c, 0, 66, 0
2,88213, Note_on_c, 0, 47, 46
2,88217, Note_on_c, 0, 49, 0
2,88233, Note_on_c, 0, 75, 70
2,88238, Note_on_c, 0, 76, 0
2,88242, Note_on_c, 0, 71, 60
2,88529, Control_c, 0, 64, 9
2,88621, Note_on_c, 0, 80, 74
2,88622, Note_on_c, 0, 44, 42
2,88643, Control_c, 0, 64, 11
2,88653, Note_on_c, 0, 47, 0
2,88689, Note_on_c, 0, 75, 0
2,88970, Control_c, 0, 64, 9
2,89006, Note_on_c, 0, 73, 71
2,89009, Control_c, 0, 64, 0
2,89015, Note_on_c, 0, 46, 47
2,89020, Note_on_c, 0, 44, 0
2,89072, Note_on_c, 0, 71, 0
2,89081, Note_on_c, 0, 80, 0
2,89403, Note_on_c, 0, 78, 69
2,89407, Note_on_c, 0, 42, 38
2,89407, Note_on_c, 0, 46, 0
2,89408, Note_on_c, 0, 70, 58
2,89454, Note_on_c, 0, 73, 0
2,89813, Note_on_c, 0, 68, 57
2,89825, Note_on_c, 0, 49, 37
2,89835, Note_on_c, 0, 42, 0
2,89839, Note_on_c, 0, 70, 0
2,90269, Note_on_c, 0, 37, 37
2,90294, Note_on_c, 0, 77, 57
2,90306, Note_on_c, 0, 49, 0
2,90321, Note_on_c, 0, 78, 0
2,90378, Note_on_c, 0, 68, 0
2,90391, Control_c, 0, 64, 49
2,90410, Control_c, 0, 64, 62
2,90429, Control_c, 0, 64, 66
2,90449, Control_c, 0, 64, 71
2,90468, Control_c, 0, 64, 80
2,90487, Control_c, 0, 64, 94
2,90506, Control_c, 0, 64, 127
2,90716, Note_on_c, 0, 37, 0
2,90754, Note_on_c, 0, 77, 0
2,90907, Note_on_c, 0, 42, 36
2,90945, Note_on_c, 0, 78, 56
2,90966, Note_on_c, 0, 66, 35
2,90967, Control_c, 0, 64, 118
2,90986, Control_c, 0, 64, 79
2,91006, Control_c, 0, 64, 62
2,91024, Control_c, 0, 64, 0
2,91119, Control_c, 0, 64, 22
2,91139, Control_c, 0, 64, 55
2,91158, Control_c, 0, 64, 63
2,91177, Control_c, 0, 64, 67
2,91194, Note_on_c, 0, 66, 0
2,91196, Control_c, 0, 64, 72
2,91216, Control_c, 0, 64, 81
2,91231, Note_on_c, 0, 78, 0
2,91234, Control_c, 0, 64, 91
2,91254, Control_c, 0, 64, 103
2,91273, Control_c, 0, 64, 127
2,91387, Note_on_c, 0, 65, 31
2,91388, Note_on_c, 0, 42, 0
2,91391, Note_on_c, 0, 44, 37
2,91766, Note_on_c, 0, 46, 40
2,91769, Note_on_c, 0, 73, 53
2,91773, Control_c, 0, 64, 100
2,91786, Note_on_c, 0, 66, 43
2,91791, Control_c, 0, 64, 76
2,91800, Note_on_c, 0, 44, 0
2,91807, Note_on_c, 0, 65, 0
2,91811, Control_c, 0, 64, 62
2,91830, Control_c, 0, 64, 0
2,92122, Note_on_c, 0, 66, 0
2,92148, Note_on_c, 0, 44, 28
2,92155, Note_on_c, 0, 68, 50
2,92210, Note_on_c, 0, 46, 0
2,92526, Note_on_c, 0, 42, 30
2,92532, Note_on_c, 0, 70, 43
2,92534, Note_on_c, 0, 68, 0
2,92589, Note_on_c, 0, 44, 0
2,92887, Note_on_c, 0, 70, 0
2,92911, Note_on_c, 0, 72, 53
2,92914, Note_on_c, 0, 54, 36
2,92930, Note_on_c, 0, 42, 0
2,92932, Note_on_c, 0, 73, 0
2,92937, Note_on_c, 0, 68, 37
2,92981, Control_c, 0, 64, 21
2,93000, Control_c, 0, 64, 51
2,93019, Control_c, 0, 64, 60
2,93038, Control_c, 0, 64, 64
2,93058, Control_c, 0, 64, 66
2,93077, Control_c, 0, 64, 67
2,93096, Control_c, 0, 64, 70
2,93115, Control_c, 0, 64, 72
2,93135, Control_c, 0, 64, 76
2,93153, Control_c, 0, 64, 79
2,93173, Control_c, 0, 64, 82
2,93192, Control_c, 0, 64, 84
2,93212, Control_c, 0, 64, 86
2,93230, Control_c, 0, 64, 87
2,93289, Control_c, 0, 64, 85
2,93297, Note_on_c, 0, 54, 0
2,93301, Note_on_c, 0, 73, 61
2,93305, Note_on_c, 0, 72, 0
2,93307, Control_c, 0, 64, 79
2,93318, Note_on_c, 0, 53, 39
2,93322, Note_on_c, 0, 70, 51
2,93324, Note_on_c, 0, 68, 0
2,93327, Control_c, 0, 64, 70
2,93347, Control_c, 0, 64, 62
2,93365, Control_c, 0, 64, 42
2,93385, Control_c, 0, 64, 0
2,93423, Control_c, 0, 64, 9
2,93442, Control_c, 0, 64, 48
2,93462, Control_c, 0, 64, 60
2,93481, Control_c, 0, 64, 64
2,93500, Control_c, 0, 64, 66
2,93519, Control_c, 0, 64, 69
2,93539, Control_c, 0, 64, 72
2,93558, Control_c, 0, 64, 77
2,93577, Control_c, 0, 64, 82
2,93596, Control_c, 0, 64, 88
2,93616, Control_c, 0, 64, 92
2,93634, Control_c, 0, 64, 94
2,93662, Note_on_c, 0, 51, 40
2,93673, Control_c, 0, 64, 92
2,93682, Note_on_c, 0, 75, 65
2,93687, Note_on_c, 0, 73, 0
2,93693, Control_c, 0, 64, 83
2,93694, Note_on_c, 0, 72, 57
2,93711, Control_c, 0, 64, 72
2,93715, Note_on_c, 0, 70, 0
2,93731, Control_c, 0, 64, 63
2,93736, Note_on_c, 0, 53, 0
2,93750, Control_c, 0, 64, 42
2,93769, Control_c, 0, 64, 0
2,94054, Note_on_c, 0, 75, 0
2,94103, Note_on_c, 0, 73, 43
2,94104, Note_on_c, 0, 77, 48
2,94108, Note_on_c, 0, 49, 32
2,94143, Note_on_c, 0, 51, 0
2,94171, Note_on_c, 0, 72, 0
2,94502, Note_on_c, 0, 75, 60
2,94516, Note_on_c, 0, 71, 45
2,94523, Note_on_c, 0, 73, 0
2,94554, Note_on_c, 0, 77, 0
2,94897, Note_on_c, 0, 54, 37
2,94898, Note_on_c, 0, 73, 57
2,94955, Note_on_c, 0, 75, 0
2,95011, Note_on_c, 0, 49, 0
2,95140, Note_on_c, 0, 71, 0
2,95305, Note_on_c, 0, 70, 64
2,95715, Note_on_c, 0, 80, 63
2,95722, Note_on_c, 0, 70, 0
2,95731, Note_on_c, 0, 71, 48
2,95732, Note_on_c, 0, 73, 0
2,96119, Note_on_c, 0, 70, 46
2,96123, Note_on_c, 0, 71, 0
2,96470, Note_on_c, 0, 70, 0
2,96497, Note_on_c, 0, 73, 55
2,96506, Note_on_c, 0, 68, 41
2,96510, Note_on_c, 0, 53, 36
2,96573, Note_on_c, 0, 54, 0
2,96876, Note_on_c, 0, 71, 53
2,96879, Note_on_c, 0, 68, 0
2,97047, Note_on_c, 0, 80, 0
2,97269, Note_on_c, 0, 54, 39
2,97280, Note_on_c, 0, 70, 46
2,97292, Note_on_c, 0, 71, 0
2,97314, Note_on_c, 0, 73, 0
2,97346, Note_on_c, 0, 53, 0
2,97669, Note_on_c, 0, 53, 39
2,97674, Note_on_c, 0, 75, 60
2,97697, Note_on_c, 0, 54, 0
2,98065, Note_on_c, 0, 77, 65
2,98071, Note_on_c, 0, 51, 31
2,98129, Note_on_c, 0, 53, 0
2,98129, Note_on_c, 0, 75, 0
2,98433, Note_on_c, 0, 50, 59
2,98474, Note_on_c, 0, 51, 0
2,98853, Note_on_c, 0, 78, 69
2,98868, Note_on_c, 0, 51, 44
2,98888, Note_on_c, 0, 50, 0
2,98910, Note_on_c, 0, 77, 0
2,99234, Note_on_c, 0, 72, 46
2,99614, Note_on_c, 0, 46, 45
2,99625, Note_on_c, 0, 73, 50
2,99672, Note_on_c, 0, 72, 0
2,99681, Note_on_c, 0, 51, 0
2,99726, Note_on_c, 0, 70, 0
2,100000, Note_on_c, 0, 75, 60
2,100008, Note_on_c, 0, 48, 51
2,100039, Note_on_c, 0, 46, 0
2,100082, Note_on_c, 0, 73, 0
2,100232, Note_on_c, 0, 78, 0
2,100397, Note_on_c, 0, 49, 53
2,100420, Note_on_c, 0, 68, 62
2,100435, Note_on_c, 0, 48, 0
2,100443, Note_on_c, 0, 75, 0
2,100803, Note_on_c, 0, 77, 70
2,101160, Note_on_c, 0, 42, 47
2,101193, Note_on_c, 0, 75, 66
2,101212, Note_on_c, 0, 70, 58
2,101219, Note_on_c, 0, 68, 0
2,101257, Note_on_c, 0, 77, 0
2,101307, Note_on_c, 0, 49, 0
2,101489, Control_c, 0, 64, 37
2,101508, Control_c, 0, 64, 59
2,101526, Control_c, 0, 64, 64
2,101546, Control_c, 0, 64, 67
2,101565, Control_c, 0, 64, 73
2,101583, Note_on_c, 0, 73, 73
2,101584, Control_c, 0, 64, 83
2,101603, Control_c, 0, 64, 107
2,101622, Control_c, 0, 64, 127
2,101652, Note_on_c, 0, 75, 0
2,101693, Note_on_c, 0, 73, 0
2,101763, Note_on_c, 0, 70, 0
2,101959, Note_on_c, 0, 44, 47
2,101978, Note_on_c, 0, 72, 73
2,102080, Note_on_c, 0, 42, 0
2,102082, Control_c, 0, 64, 90
2,102102, Control_c, 0, 64, 69
2,102121, Control_c, 0, 64, 45
2,102140, Control_c, 0, 64, 0
2,102236, Control_c, 0, 64, 41
2,102256, Control_c, 0, 64, 59
2,102274, Control_c, 0, 64, 64
2,102294, Control_c, 0, 64, 67
2,102313, Control_c, 0, 64, 70
2,102333, Control_c, 0, 64, 76
2,102342, Note_on_c, 0, 68, 72
2,102351, Control_c, 0, 64, 84
2,102371, Control_c, 0, 64, 92
2,102390, Control_c, 0, 64, 101
2,102409, Control_c, 0, 64, 112
2,102428, Control_c, 0, 64, 127
2,102739, Note_on_c, 0, 46, 47
2,102742, Note_on_c, 0, 44, 0
2,102754, Note_on_c, 0, 74, 65
2,102758, Note_on_c, 0, 66, 51
2,102774, Control_c, 0, 64, 96
2,102793, Control_c, 0, 64, 70
2,102813, Control_c, 0, 64, 41
2,102824, Note_on_c, 0, 72, 0
2,102827, Note_on_c, 0, 68, 0
2,102831, Control_c, 0, 64, 0
2,102908, Control_c, 0, 64, 57
2,102928, Control_c, 0, 64, 66
2,102947, Control_c, 0, 64, 74
2,102965, Control_c, 0, 64, 89
2,102985, Control_c, 0, 64, 127
2,103016, Note_on_c, 0, 66, 0
2,103116, Note_on_c, 0, 46, 0
2,103134, Note_on_c, 0, 65, 64
2,103176, Note_on_c, 0, 74, 0
2,103192, Note_on_c, 0, 65, 0
2,103531, Note_on_c, 0, 47, 45
2,103555, Note_on_c, 0, 75, 70
2,103578, Note_on_c, 0, 63, 53
2,103657, Control_c, 0, 64, 97
2,103676, Control_c, 0, 64, 75
2,103696, Control_c, 0, 64, 62
2,103714, Control_c, 0, 64, 22
2,103734, Control_c, 0, 64, 0
2,103944, Note_on_c, 0, 66, 67
2,103946, Note_on_c, 0, 46, 50
2,104091, Note_on_c, 0, 47, 0
2,104326, Note_on_c, 0, 44, 52
2,104349, Note_on_c, 0, 71, 68
2,104412, Note_on_c, 0, 75, 0
2,104425, Note_on_c, 0, 46, 0
2,104654, Control_c, 0, 64, 19
2,104672, Control_c, 0, 64, 43
2,104692, Control_c, 0, 64, 56
2,104706, Note_on_c, 0, 42, 65
2,104711, Control_c, 0, 64, 61
2,104731, Control_c, 0, 64, 64
2,104734, Note_on_c, 0, 44, 0
2,104749, Control_c, 0, 64, 67
2,104769, Control_c, 0, 64, 70
2,104788, Control_c, 0, 64, 75
2,104807, Control_c, 0, 64, 82
2,104826, Control_c, 0, 64, 90
2,104846, Control_c, 0, 64, 96
2,104865, Control_c, 0, 64, 103
2,104884, Control_c, 0, 64, 110
2,104903, Control_c, 0, 64, 117
2,104923, Control_c, 0, 64, 127
2,105114, Note_on_c, 0, 40, 53
2,105128, Note_on_c, 0, 42, 0
2,105159, Note_on_c, 0, 73, 72
2,105191, Control_c, 0, 64, 104
2,105211, Control_c, 0, 64, 82
2,105229, Control_c, 0, 64, 67
2,105249, Control_c, 0, 64, 21
2,105250, Note_on_c, 0, 71, 0
2,105268, Control_c, 0, 64, 0
2,105364, Control_c, 0, 64, 27
2,105383, Control_c, 0, 64, 56
2,105403, Control_c, 0, 64, 63
2,105421, Control_c, 0, 64, 66
2,105440, Control_c, 0, 64, 70
2,105457, Control_c, 0, 64, 76
2,105476, Control_c, 0, 64, 83
2,105496, Control_c, 0, 64, 90
2,105514, Control_c, 0, 64, 101
2,105526, Note_on_c, 0, 70, 73
2,105534, Control_c, 0, 64, 118
2,105541, Note_on_c, 0, 66, 0
2,105553, Control_c, 0, 64, 127
2,105599, Note_on_c, 0, 63, 0
2,105897, Note_on_c, 0, 39, 47
2,105903, Control_c, 0, 64, 113
2,105906, Note_on_c, 0, 68, 59
2,105923, Control_c, 0, 64, 81
2,105942, Control_c, 0, 64, 59
2,105958, Note_on_c, 0, 40, 0
2,105961, Control_c, 0, 64, 0
2,105969, Note_on_c, 0, 70, 0
2,106057, Control_c, 0, 64, 21
2,106076, Control_c, 0, 64, 58
2,106096, Control_c, 0, 64, 64
2,106114, Control_c, 0, 64, 68
2,106134, Control_c, 0, 64, 75
2,106153, Control_c, 0, 64, 85
2,106172, Control_c, 0, 64, 97
2,106191, Control_c, 0, 64, 116
2,106211, Control_c, 0, 64, 127
2,106271, Note_on_c, 0, 67, 50
2,106314, Note_on_c, 0, 68, 0
2,106334, Note_on_c, 0, 67, 0
2,106349, Note_on_c, 0, 73, 0
2,106683, Note_on_c, 0, 44, 36
2,106684, Note_on_c, 0, 71, 45
2,106701, Note_on_c, 0, 68, 37
2,106706, Control_c, 0, 64, 104
2,106726, Control_c, 0, 64, 78
2,106744, Control_c, 0, 64, 62
2,106764, Control_c, 0, 64, 0
2,106770, Note_on_c, 0, 39, 0
2,106860, Control_c, 0, 64, 9
2,106879, Control_c, 0, 64, 47
2,106898, Control_c, 0, 64, 59
2,106918, Control_c, 0, 64, 63
2,106936, Control_c, 0, 64, 65
2,106955, Control_c, 0, 64, 66
2,106975, Control_c, 0, 64, 67
2,106994, Control_c, 0, 64, 67
2,107070, Control_c, 0, 64, 68
2,107086, Note_on_c, 0, 46, 47
2,107090, Control_c, 0, 64, 67
2,107090, Note_on_c, 0, 73, 60
2,107109, Control_c, 0, 64, 66
2,107129, Control_c, 0, 64, 63
2,107147, Control_c, 0, 64, 58
2,107159, Note_on_c, 0, 44, 0
2,107167, Control_c, 0, 64, 39
2,107186, Control_c, 0, 64, 0
2,107291, Note_on_c, 0, 71, 0
2,107487, Note_on_c, 0, 75, 75
2,107495, Note_on_c, 0, 47, 52
2,107499, Note_on_c, 0, 46, 0
2,107600, Note_on_c, 0, 73, 0
2,107875, Note_on_c, 0, 49, 51
2,107879, Note_on_c, 0, 47, 0
2,107879, Note_on_c, 0, 76, 71
2,107934, Note_on_c, 0, 75, 0
2,108292, Note_on_c, 0, 51, 40
2,108296, Note_on_c, 0, 70, 66
2,108314, Note_on_c, 0, 49, 0
2,108392, Note_on_c, 0, 68, 0
2,108536, Note_on_c, 0, 76, 0
2,108689, Note_on_c, 0, 71, 51
2,108749, Note_on_c, 0, 70, 0
2,109045, Note_on_c, 0, 51, 0
2,109071, Note_on_c, 0, 73, 51
2,109074, Note_on_c, 0, 67, 35
2,109108, Note_on_c, 0, 71, 0
2,109471, Note_on_c, 0, 75, 52
2,109472, Note_on_c, 0, 73, 0
2,109473, Note_on_c, 0, 51, 36
2,109879, Note_on_c, 0, 56, 45
2,109881, Note_on_c, 0, 68, 60
2,109921, Note_on_c, 0, 71, 47
2,109939, Note_on_c, 0, 67, 0
2,109941, Note_on_c, 0, 75, 0
2,110047, Control_c, 0, 64, 25
2,110047, Note_on_c, 0, 51, 0
2,110066, Control_c, 0, 64, 50
2,110086, Control_c, 0, 64, 58
2,110104, Control_c, 0, 64, 62
2,110124, Control_c, 0, 64, 64
2,110143, Control_c, 0, 64, 65
2,110162, Control_c, 0, 64, 67
2,110181, Control_c, 0, 64, 69
2,110201, Control_c, 0, 64, 73
2,110220, Control_c, 0, 64, 77
2,110239, Control_c, 0, 64, 83
2,110257, Control_c, 0, 64, 89
2,110269, Note_on_c, 0, 71, 0
2,110276, Control_c, 0, 64, 98
2,110288, Note_on_c, 0, 70, 61
2,110293, Note_on_c, 0, 58, 43
2,110296, Control_c, 0, 64, 113
2,110314, Control_c, 0, 64, 127
2,110381, Note_on_c, 0, 56, 0
2,110456, Note_on_c, 0, 68, 0
2,110701, Note_on_c, 0, 63, 60
2,110704, Note_on_c, 0, 58, 0
2,110708, Note_on_c, 0, 59, 45
2,110710, Note_on_c, 0, 68, 61
2,110717, Control_c, 0, 64, 88
2,110737, Control_c, 0, 64, 65
2,110750, Note_on_c, 0, 70, 0
2,110756, Control_c, 0, 64, 0
2,110871, Control_c, 0, 64, 36
2,110891, Control_c, 0, 64, 57
2,110910, Control_c, 0, 64, 63
2,110929, Control_c, 0, 64, 65
2,110948, Control_c, 0, 64, 68
2,110968, Control_c, 0, 64, 71
2,110986, Control_c, 0, 64, 75
2,111006, Control_c, 0, 64, 80
2,111025, Control_c, 0, 64, 87
2,111045, Control_c, 0, 64, 89
2,111063, Control_c, 0, 64, 86
2,111071, Note_on_c, 0, 66, 54
2,111083, Control_c, 0, 64, 77
2,111087, Note_on_c, 0, 56, 40
2,111102, Control_c, 0, 64, 66
2,111121, Control_c, 0, 64, 53
2,111140, Control_c, 0, 64, 13
2,111159, Note_on_c, 0, 59, 0
2,111160, Control_c, 0, 64, 0
2,111179, Control_c, 0, 64, 36
2,111197, Control_c, 0, 64, 56
2,111217, Control_c, 0, 64, 63
2,111236, Control_c, 0, 64, 66
2,111253, Note_on_c, 0, 66, 0
2,111256, Control_c, 0, 64, 70
2,111274, Control_c, 0, 64, 75
2,111294, Control_c, 0, 64, 82
2,111313, Control_c, 0, 64, 88
2,111332, Control_c, 0, 64, 95
2,111351, Control_c, 0, 64, 105
2,111371, Control_c, 0, 64, 127
2,111486, Control_c, 0, 64, 112
2,111503, Note_on_c, 0, 65, 43
2,111505, Control_c, 0, 64, 85
2,111505, Note_on_c, 0, 56, 0
2,111505, Note_on_c, 0, 58, 37
2,111525, Control_c, 0, 64, 69
2,111543, Control_c, 0, 64, 55
2,111563, Control_c, 0, 64, 0
2,111620, Control_c, 0, 64, 48
2,111640, Control_c, 0, 64, 62
2,111659, Control_c, 0, 64, 66
2,111677, Control_c, 0, 64, 70
2,111697, Control_c, 0, 64, 76
2,111716, Control_c, 0, 64, 82
2,111736, Control_c, 0, 64, 88
2,111754, Control_c, 0, 64, 94
2,111759, Note_on_c, 0, 63, 0
2,111774, Control_c, 0, 64, 101
2,111793, Control_c, 0, 64, 112
2,111812, Control_c, 0, 64, 127
2,111894, Note_on_c, 0, 62, 60
2,111901, Note_on_c, 0, 56, 42
2,111908, Control_c, 0, 64, 110
2,111911, Note_on_c, 0, 65, 0
2,111928, Control_c, 0, 64, 88
2,111946, Control_c, 0, 64, 71
2,111966, Control_c, 0, 64, 59
2,111976, Note_on_c, 0, 58, 0
2,111985, Control_c, 0, 64, 28
2,112005, Control_c, 0, 64, 35
2,112023, Control_c, 0, 64, 54
2,112043, Control_c, 0, 64, 63
2,112062, Control_c, 0, 64, 67
2,112081, Control_c, 0, 64, 74
2,112100, Control_c, 0, 64, 87
2,112120, Control_c, 0, 64, 113
2,112139, Control_c, 0, 64, 127
2,112233, Control_c, 0, 64, 112
2,112253, Control_c, 0, 64, 81
2,112272, Control_c, 0, 64, 66
2,112291, Control_c, 0, 64, 48
2,112294, Note_on_c, 0, 66, 60
2,112296, Note_on_c, 0, 54, 41
2,112303, Note_on_c, 0, 63, 53
2,112310, Control_c, 0, 64, 0
2,112323, Note_on_c, 0, 62, 0
2,112327, Note_on_c, 0, 56, 0
2,112335, Note_on_c, 0, 68, 0
2,112387, Control_c, 0, 64, 42
2,112407, Control_c, 0, 64, 60
2,112426, Control_c, 0, 64, 64
2,112445, Control_c, 0, 64, 68
2,112464, Control_c, 0, 64, 72
2,112484, Control_c, 0, 64, 79
2,112502, Control_c, 0, 64, 89
2,112522, Control_c, 0, 64, 103
2,112544, Control_c, 0, 64, 127
2,112640, Control_c, 0, 64, 95
2,112659, Control_c, 0, 64, 75
2,112660, Note_on_c, 0, 54, 0
2,112667, Note_on_c, 0, 63, 0
2,112669, Note_on_c, 0, 68, 72
2,112674, Note_on_c, 0, 65, 58
2,112679, Control_c, 0, 64, 61
2,112685, Note_on_c, 0, 53, 42
2,112697, Control_c, 0, 64, 37
2,112708, Note_on_c, 0, 66, 0
2,112716, Control_c, 0, 64, 0
2,112736, Control_c, 0, 64, 22
2,112755, Control_c, 0, 64, 47
2,112774, Control_c, 0, 64, 60
2,112793, Control_c, 0, 64, 64
2,112813, Control_c, 0, 64, 67
2,112831, Control_c, 0, 64, 70
2,112851, Control_c, 0, 64, 73
2,112870, Control_c, 0, 64, 79
2,112890, Control_c, 0, 64, 87
2,112908, Control_c, 0, 64, 97
2,112928, Control_c, 0, 64, 111
2,112947, Control_c, 0, 64, 127
2,113043, Control_c, 0, 64, 102
2,113062, Control_c, 0, 64, 80
2,113079, Note_on_c, 0, 68, 0
2,113081, Note_on_c, 0, 53, 0
2,113081, Note_on_c, 0, 66, 52
2,113082, Control_c, 0, 64, 63
2,113083, Note_on_c, 0, 70, 58
2,113087, Note_on_c, 0, 51, 34
2,113101, Control_c, 0, 64, 0
2,113114, Note_on_c, 0, 65, 0
2,113234, Control_c, 0, 64, 48
2,113253, Control_c, 0, 64, 62
2,113272, Control_c, 0, 64, 66
2,113292, Control_c, 0, 64, 70
2,113310, Control_c, 0, 64, 77
2,113330, Control_c, 0, 64, 87
2,113349, Control_c, 0, 64, 100
2,113369, Control_c, 0, 64, 127
2,113466, Note_on_c, 0, 65, 63
2,113522, Note_on_c, 0, 66, 0
2,113538, Note_on_c, 0, 70, 0
2,113542, Note_on_c, 0, 65, 0
2,113877, Note_on_c, 0, 56, 46
2,113887, Note_on_c, 0, 63, 64
2,113892, Note_on_c, 0, 72, 58
2,113984, Control_c, 0, 64, 116
2,113996, Note_on_c, 0, 51, 0
2,114003, Control_c, 0, 64, 89
2,114022, Control_c, 0, 64, 71
2,114042, Control_c, 0, 64, 50
2,114061, Control_c, 0, 64, 0
2,114265, Note_on_c, 0, 74, 65
2,114362, Note_on_c, 0, 72, 0
2,114665, Note_on_c, 0, 70, 67
2,114683, Note_on_c, 0, 75, 57
2,114696, Note_on_c, 0, 74, 0
2,114740, Note_on_c, 0, 63, 0
2,115047, Note_on_c, 0, 56, 0
2,115054, Note_on_c, 0, 55, 42
2,115214, Note_on_c, 0, 53, 52
2,115220, Note_on_c, 0, 55, 0
2,115456, Note_on_c, 0, 63, 57
2,115460, Note_on_c, 0, 53, 0
2,115486, Note_on_c, 0, 55, 37
2,115531, Note_on_c, 0, 70, 0
2,115833, Note_on_c, 0, 73, 53
2,115986, Note_on_c, 0, 75, 0
2,116202, Note_on_c, 0, 72, 57
2,116221, Note_on_c, 0, 56, 32
2,116245, Note_on_c, 0, 73, 0
2,116287, Control_c, 0, 64, 44
2,116300, Note_on_c, 0, 55, 0
2,116306, Control_c, 0, 64, 56
2,116326, Control_c, 0, 64, 60
2,116330, Note_on_c, 0, 63, 0
2,116344, Control_c, 0, 64, 62
2,116364, Control_c, 0, 64, 64
2,116383, Control_c, 0, 64, 66
2,116402, Control_c, 0, 64, 69
2,116421, Control_c, 0, 64, 73
2,116441, Control_c, 0, 64, 79
2,116460, Control_c, 0, 64, 86
2,116478, Control_c, 0, 64, 91
2,116498, Control_c, 0, 64, 94
2,116517, Control_c, 0, 64, 95
2,116555, Control_c, 0, 64, 95
2,116592, Note_on_c, 0, 74, 62
2,116613, Control_c, 0, 64, 92
2,116623, Note_on_c, 0, 65, 48
2,116624, Note_on_c, 0, 54, 42
2,116632, Control_c, 0, 64, 83
2,116641, Note_on_c, 0, 72, 0
2,116652, Control_c, 0, 64, 71
2,116671, Control_c, 0, 64, 60
2,116674, Note_on_c, 0, 56, 0
2,116690, Control_c, 0, 64, 42
2,116709, Control_c, 0, 64, 21
2,116729, Control_c, 0, 64, 31
2,116747, Control_c, 0, 64, 50
2,116767, Control_c, 0, 64, 60
2,116786, Control_c, 0, 64, 64
2,116806, Control_c, 0, 64, 67
2,116824, Control_c, 0, 64, 71
2,116844, Control_c, 0, 64, 76
2,116863, Control_c, 0, 64, 83
2,116882, Control_c, 0, 64, 90
2,116901, Control_c, 0, 64, 98
2,116921, Control_c, 0, 64, 108
2,116940, Control_c, 0, 64, 127
2,116986, Note_on_c, 0, 75, 70
2,116989, Note_on_c, 0, 54, 0
2,117002, Note_on_c, 0, 66, 64
2,117003, Note_on_c, 0, 53, 50
2,117019, Note_on_c, 0, 74, 0
2,117035, Control_c, 0, 64, 112
2,117055, Control_c, 0, 64, 88
2,117074, Control_c, 0, 64, 69
2,117074, Note_on_c, 0, 65, 0
2,117093, Control_c, 0, 64, 56
2,117112, Control_c, 0, 64, 0
2,117151, Control_c, 0, 64, 13
2,117170, Control_c, 0, 64, 50
2,117189, Control_c, 0, 64, 61
2,117209, Control_c, 0, 64, 65
2,117227, Control_c, 0, 64, 67
2,117247, Control_c, 0, 64, 70
2,117266, Control_c, 0, 64, 74
2,117286, Control_c, 0, 64, 77
2,117304, Control_c, 0, 64, 81
2,117324, Control_c, 0, 64, 83
2,117344, Control_c, 0, 64, 84
2,117364, Note_on_c, 0, 51, 56
2,117382, Control_c, 0, 64, 83
2,117402, Control_c, 0, 64, 78
2,117402, Note_on_c, 0, 53, 0
2,117421, Control_c, 0, 64, 70
2,117440, Control_c, 0, 64, 62
2,117459, Control_c, 0, 64, 43
2,117478, Control_c, 0, 64, 0
2,117765, Note_on_c, 0, 68, 68
2,117781, Note_on_c, 0, 51, 0
2,117789, Note_on_c, 0, 66, 0
2,117791, Note_on_c, 0, 53, 48
2,118147, Note_on_c, 0, 54, 58
2,118164, Note_on_c, 0, 53, 0
2,118531, Note_on_c, 0, 74, 70
2,118540, Note_on_c, 0, 56, 58
2,118554, Note_on_c, 0, 54, 0
2,118597, Note_on_c, 0, 75, 0
2,118895, Note_on_c, 0, 56, 0
2,118902, Note_on_c, 0, 58, 56
2,119290, Note_on_c, 0, 51, 38
2,119298, Note_on_c, 0, 75, 66
2,119318, Note_on_c, 0, 74, 0
2,119325, Note_on_c, 0, 66, 41
2,119325, Note_on_c, 0, 68, 0
2,119418, Note_on_c, 0, 58, 0
2,119441, Note_on_c, 0, 51, 0
2,119478, Note_on_c, 0, 63, 53
2,119669, Note_on_c, 0, 68, 72
2,119681, Note_on_c, 0, 61, 60
2,119713, Note_on_c, 0, 66, 0
2,119739, Note_on_c, 0, 63, 0
2,119835, Note_on_c, 0, 59, 71
2,119860, Note_on_c, 0, 61, 0
2,120027, Note_on_c, 0, 68, 0
2,120077, Note_on_c, 0, 74, 62
2,120084, Note_on_c, 0, 70, 65
2,120089, Note_on_c, 0, 58, 52
2,120097, Note_on_c, 0, 59, 0
2,120100, Note_on_c, 0, 75, 0
2,120463, Note_on_c, 0, 75, 74
2,120477, Note_on_c, 0, 72, 62
2,120477, Note_on_c, 0, 74, 0
2,120500, Note_on_c, 0, 70, 0
2,120818, Control_c, 0, 64, 50
2,120835, Note_on_c, 0, 75, 0
2,120837, Control_c, 0, 64, 65
2,120844, Note_on_c, 0, 77, 73
2,120856, Control_c, 0, 64, 71
2,120856, Note_on_c, 0, 74, 61
2,120857, Note_on_c, 0, 58, 0
2,120875, Control_c, 0, 64, 82
2,120895, Control_c, 0, 64, 99
2,120900, Note_on_c, 0, 72, 0
2,120914, Control_c, 0, 64, 127
2,120931, Note_on_c, 0, 74, 0
2,120946, Note_on_c, 0, 77, 0
2,121219, Note_on_c, 0, 58, 50
2,121227, Note_on_c, 0, 54, 51
2,121231, Note_on_c, 0, 80, 79
2,121281, Control_c, 0, 64, 82
2,121301, Control_c, 0, 64, 64
2,121320, Control_c, 0, 64, 17
2,121339, Control_c, 0, 64, 0
2,121397, Control_c, 0, 64, 54
2,121416, Control_c, 0, 64, 64
2,121435, Control_c, 0, 64, 69
2,121455, Control_c, 0, 64, 76
2,121474, Control_c, 0, 64, 87
2,121493, Control_c, 0, 64, 100
2,121512, Control_c, 0, 64, 127
2,121608, Control_c, 0, 64, 99
2,121616, Note_on_c, 0, 56, 52
2,121619, Note_on_c, 0, 58, 0
2,121621, Note_on_c, 0, 78, 72
2,121624, Note_on_c, 0, 60, 60
2,121627, Control_c, 0, 64, 72
2,121646, Control_c, 0, 64, 59
2,121648, Note_on_c, 0, 54, 0
2,121666, Control_c, 0, 64, 34
2,121704, Control_c, 0, 64, 52
2,121723, Control_c, 0, 64, 62
2,121743, Control_c, 0, 64, 67
2,121761, Control_c, 0, 64, 73
2,121780, Control_c, 0, 64, 83
2,121799, Control_c, 0, 64, 95
2,121819, Control_c, 0, 64, 112
2,121837, Control_c, 0, 64, 127
2,121837, Note_on_c, 0, 80, 0
2,121899, Note_on_c, 0, 78, 0
2,121953, Control_c, 0, 64, 101
2,121972, Control_c, 0, 64, 75
2,121991, Control_c, 0, 64, 61
2,121995, Note_on_c, 0, 56, 0
2,121996, Note_on_c, 0, 58, 53
2,121998, Note_on_c, 0, 62, 55
2,122001, Note_on_c, 0, 77, 73
2,122010, Control_c, 0, 64, 0
2,122053, Note_on_c, 0, 60, 0
2,122068, Control_c, 0, 64, 34
2,122087, Control_c, 0, 64, 59
2,122106, Control_c, 0, 64, 65
2,122125, Control_c, 0, 64, 68
2,122140, Note_on_c, 0, 62, 0
2,122141, Control_c, 0, 64, 73
2,122160, Control_c, 0, 64, 80
2,122179, Control_c, 0, 64, 89
2,122198, Control_c, 0, 64, 101
2,122218, Control_c, 0, 64, 127
2,122403, Note_on_c, 0, 59, 51
2,122407, Note_on_c, 0, 63, 63
2,122408, Note_on_c, 0, 75, 77
2,122409, Control_c, 0, 64, 91
2,122429, Control_c, 0, 64, 68
2,122443, Note_on_c, 0, 58, 0
2,122448, Control_c, 0, 64, 50
2,122467, Control_c, 0, 64, 0
2,122500, Note_on_c, 0, 77, 0
2,122524, Control_c, 0, 64, 45
2,122544, Control_c, 0, 64, 61
2,122563, Control_c, 0, 64, 66
2,122583, Control_c, 0, 64, 70
2,122601, Control_c, 0, 64, 77
2,122621, Control_c, 0, 64, 88
2,122640, Control_c, 0, 64, 102
2,122659, Control_c, 0, 64, 127
2,122756, Control_c, 0, 64, 114
2,122776, Control_c, 0, 64, 82
2,122781, Note_on_c, 0, 58, 51
2,122781, Note_on_c, 0, 73, 64
2,122794, Control_c, 0, 64, 65
2,122814, Control_c, 0, 64, 34
2,122827, Note_on_c, 0, 59, 0
2,122833, Control_c, 0, 64, 0
2,122890, Control_c, 0, 64, 54
2,122910, Control_c, 0, 64, 64
2,122928, Control_c, 0, 64, 69
2,122948, Control_c, 0, 64, 76
2,122967, Control_c, 0, 64, 88
2,122987, Control_c, 0, 64, 111
2,123005, Control_c, 0, 64, 127
2,123082, Control_c, 0, 64, 94
2,123107, Control_c, 0, 64, 73
2,123125, Control_c, 0, 64, 58
2,123145, Control_c, 0, 64, 42
2,123162, Note_on_c, 0, 71, 64
2,123163, Note_on_c, 0, 56, 60
2,123164, Control_c, 0, 64, 49
2,123179, Note_on_c, 0, 58, 0
2,123184, Control_c, 0, 64, 59
2,123193, Note_on_c, 0, 75, 0
2,123202, Control_c, 0, 64, 65
2,123205, Note_on_c, 0, 73, 0
2,123222, Control_c, 0, 64, 69
2,123241, Control_c, 0, 64, 76
2,123247, Note_on_c, 0, 71, 0
2,123260, Control_c, 0, 64, 88
2,123279, Control_c, 0, 64, 98
2,123279, Note_on_c, 0, 63, 0
2,123299, Control_c, 0, 64, 108
2,123318, Control_c, 0, 64, 123
2,123337, Control_c, 0, 64, 127
2,123525, Note_on_c, 0, 65, 67
2,123540, Note_on_c, 0, 70, 75
2,123567, Control_c, 0, 64, 92
2,123587, Control_c, 0, 64, 72
2,123605, Control_c, 0, 64, 58
2,123625, Control_c, 0, 64, 0
2,123707, Note_on_c, 0, 71, 72
2,123730, Note_on_c, 0, 70, 0
2,123935, Note_on_c, 0, 63, 54
2,123940, Note_on_c, 0, 66, 68
2,123947, Note_on_c, 0, 70, 70
2,123954, Note_on_c, 0, 71, 0
2,123964, Note_on_c, 0, 56, 0
2,123980, Note_on_c, 0, 65, 0
2,124100, Control_c, 0, 64, 53
2,124119, Control_c, 0, 64, 63
2,124139, Control_c, 0, 64, 64
2,124158, Control_c, 0, 64, 65
2,124177, Control_c, 0, 64, 66
2,124196, Control_c, 0, 64, 68
2,124216, Control_c, 0, 64, 71
2,124234, Control_c, 0, 64, 79
2,124254, Control_c, 0, 64, 88
2,124273, Control_c, 0, 64, 99
2,124293, Control_c, 0, 64, 116
2,124311, Control_c, 0, 64, 127
2,124323, Note_on_c, 0, 72, 71
2,124360, Note_on_c, 0, 70, 0
2,124677, Note_on_c, 0, 66, 0
2,124700, Note_on_c, 0, 58, 58
2,124712, Note_on_c, 0, 74, 67
2,124717, Note_on_c, 0, 63, 0
2,124717, Note_on_c, 0, 72, 0
2,124718, Note_on_c, 0, 65, 61
2,124734, Control_c, 0, 64, 106
2,124753, Control_c, 0, 64, 78
2,124773, Control_c, 0, 64, 59
2,124791, Control_c, 0, 64, 0
2,124868, Control_c, 0, 64, 27
2,124887, Control_c, 0, 64, 55
2,124907, Control_c, 0, 64, 63
2,124925, Control_c, 0, 64, 65
2,124945, Control_c, 0, 64, 68
2,124964, Control_c, 0, 64, 72
2,124984, Control_c, 0, 64, 77
2,125002, Control_c, 0, 64, 83
2,125024, Control_c, 0, 64, 89
2,125043, Control_c, 0, 64, 94
2,125062, Control_c, 0, 64, 98
2,125081, Control_c, 0, 64, 98
2,125102, Note_on_c, 0, 63, 68
2,125103, Note_on_c, 0, 75, 76
2,125106, Note_on_c, 0, 74, 0
2,125119, Control_c, 0, 64, 98
2,125139, Control_c, 0, 64, 96
2,125142, Note_on_c, 0, 65, 0
2,125158, Control_c, 0, 64, 91
2,125178, Control_c, 0, 64, 81
2,125196, Control_c, 0, 64, 68
2,125216, Control_c, 0, 64, 56
2,125235, Control_c, 0, 64, 0
2,125493, Note_on_c, 0, 77, 71
2,125494, Note_on_c, 0, 62, 58
2,125518, Note_on_c, 0, 75, 0
2,125534, Note_on_c, 0, 63, 0
2,125837, Note_on_c, 0, 58, 0
2,125874, Note_on_c, 0, 60, 55
2,125874, Note_on_c, 0, 77, 0
2,125877, Note_on_c, 0, 70, 81
2,125878, Note_on_c, 0, 63, 67
2,125885, Note_on_c, 0, 62, 0
2,126274, Note_on_c, 0, 62, 52
2,126279, Note_on_c, 0, 65, 53
2,126282, Note_on_c, 0, 82, 85
2,126291, Note_on_c, 0, 63, 0
2,126301, Note_on_c, 0, 60, 0
2,126410, Note_on_c, 0, 70, 0
2,126483, Control_c, 0, 64, 22
2,126502, Control_c, 0, 64, 62
2,126521, Control_c, 0, 64, 68
2,126541, Control_c, 0, 64, 78
2,126559, Control_c, 0, 64, 102
2,126576, Note_on_c, 0, 65, 0
2,126579, Control_c, 0, 64, 127
2,126651, Note_on_c, 0, 62, 0
2,126680, Note_on_c, 0, 80, 82
2,126782, Note_on_c, 0, 82, 0
2,127040, Note_on_c, 0, 63, 61
2,127051, Note_on_c, 0, 78, 76
2,127059, Control_c, 0, 64, 117
2,127078, Control_c, 0, 64, 76
2,127098, Control_c, 0, 64, 55
2,127116, Control_c, 0, 64, 0
2,127141, Note_on_c, 0, 80, 0
2,127193, Control_c, 0, 64, 52
2,127213, Control_c, 0, 64, 64
2,127232, Control_c, 0, 64, 68
2,127250, Control_c, 0, 64, 77
2,127267, Note_on_c, 0, 63, 0
2,127270, Control_c, 0, 64, 86
2,127289, Control_c, 0, 64, 96
2,127309, Control_c, 0, 64, 106
2,127327, Control_c, 0, 64, 127
2,127429, Note_on_c, 0, 80, 82
2,127436, Note_on_c, 0, 63, 61
2,127443, Control_c, 0, 64, 116
2,127462, Control_c, 0, 64, 81
2,127481, Control_c, 0, 64, 64
2,127501, Control_c, 0, 64, 0
2,127534, Note_on_c, 0, 78, 0
2,127584, Note_on_c, 0, 62, 60
2,127611, Note_on_c, 0, 63, 0
2,127821, Note_on_c, 0, 82, 80
2,127827, Note_on_c, 0, 54, 51
2,127831, Note_on_c, 0, 62, 0
2,127832, Note_on_c, 0, 63, 62
2,127860, Note_on_c, 0, 80, 0
2,128206, Note_on_c, 0, 56, 57
2,128221, Note_on_c, 0, 83, 80
2,128231, Note_on_c, 0, 54, 0
2,128275, Note_on_c, 0, 82, 0
2,128603, Note_on_c, 0, 58, 49
2,128633, Note_on_c, 0, 77, 77
2,128658, Note_on_c, 0, 56, 0
2,128672, Control_c, 0, 64, 27
2,128690, Control_c, 0, 64, 47
2,128697, Note_on_c, 0, 83, 0
2,128710, Control_c, 0, 64, 57
2,128729, Control_c, 0, 64, 62
2,128749, Control_c, 0, 64, 64
2,128767, Control_c, 0, 64, 67
2,128787, Control_c, 0, 64, 71
2,128806, Control_c, 0, 64, 77
2,128825, Control_c, 0, 64, 84
2,128844, Control_c, 0, 64, 96
2,128864, Control_c, 0, 64, 127
2,129016, Note_on_c, 0, 61, 64
2,129046, Note_on_c, 0, 58, 0
2,129055, Note_on_c, 0, 63, 0
2,129356, Note_on_c, 0, 61, 0
2,129397, Note_on_c, 0, 59, 59
2,129405, Note_on_c, 0, 51, 47
2,129407, Note_on_c, 0, 79, 76
2,129453, Note_on_c, 0, 77, 0
2,129458, Control_c, 0, 64, 78
2,129477, Control_c, 0, 64, 60
2,129497, Control_c, 0, 64, 0
2,129574, Control_c, 0, 64, 31
2,129592, Control_c, 0, 64, 61
2,129611, Control_c, 0, 64, 66
2,129631, Control_c, 0, 64, 72
2,129649, Control_c, 0, 64, 83
2,129669, Control_c, 0, 64, 97
2,129688, Control_c, 0, 64, 127
2,129782, Note_on_c, 0, 58, 61
2,129811, Note_on_c, 0, 51, 0
2,129835, Note_on_c, 0, 58, 0
2,129846, Note_on_c, 0, 59, 0
2,130197, Note_on_c, 0, 56, 48
2,130202, Note_on_c, 0, 59, 46
2,130211, Note_on_c, 0, 80, 64
2,130234, Note_on_c, 0, 79, 0
2,130246, Control_c, 0, 64, 90
2,130265, Control_c, 0, 64, 68
2,130284, Control_c, 0, 64, 17
2,130304, Control_c, 0, 64, 0
2,130381, Control_c, 0, 64, 37
2,130399, Control_c, 0, 64, 59
2,130419, Control_c, 0, 64, 65
2,130438, Control_c, 0, 64, 69
2,130458, Control_c, 0, 64, 73
2,130476, Control_c, 0, 64, 78
2,130496, Control_c, 0, 64, 84
2,130515, Control_c, 0, 64, 89
2,130534, Control_c, 0, 64, 93
2,130553, Control_c, 0, 64, 94
2,130578, Note_on_c, 0, 63, 64
2,130589, Note_on_c, 0, 59, 0
2,130589, Note_on_c, 0, 78, 75
2,130600, Note_on_c, 0, 58, 51
2,130610, Control_c, 0, 64, 94
2,130616, Note_on_c, 0, 56, 0
2,130630, Control_c, 0, 64, 92
2,130649, Control_c, 0, 64, 86
2,130669, Control_c, 0, 64, 76
2,130687, Control_c, 0, 64, 66
2,130707, Control_c, 0, 64, 44
2,130726, Control_c, 0, 64, 0
2,130762, Note_on_c, 0, 80, 0
2,131010, Note_on_c, 0, 68, 65
2,131010, Note_on_c, 0, 77, 70
2,131014, Note_on_c, 0, 58, 0
2,131015, Note_on_c, 0, 59, 56
2,131064, Note_on_c, 0, 63, 0
2,131102, Note_on_c, 0, 78, 0
2,131395, Note_on_c, 0, 75, 73
2,131492, Note_on_c, 0, 77, 0
2,131789, Note_on_c, 0, 74, 67
2,131796, Note_on_c, 0, 58, 49
2,131816, Note_on_c, 0, 59, 0
2,131839, Note_on_c, 0, 75, 0
2,132184, Note_on_c, 0, 66, 61
2,132229, Note_on_c, 0, 68, 0
2,132574, Note_on_c, 0, 65, 51
2,132574, Note_on_c, 0, 75, 75
2,132625, Note_on_c, 0, 66, 0
2,132651, Note_on_c, 0, 74, 0
2,132951, Note_on_c, 0, 63, 60
2,132998, Note_on_c, 0, 65, 0
2,133375, Note_on_c, 0, 65, 58
2,133377, Note_on_c, 0, 63, 0
2,133512, Control_c, 0, 64, 37
2,133531, Control_c, 0, 64, 56
2,133550, Control_c, 0, 64, 62
2,133569, Control_c, 0, 64, 64
2,133589, Control_c, 0, 64, 66
2,133608, Control_c, 0, 64, 68
2,133627, Control_c, 0, 64, 72
2,133646, Control_c, 0, 64, 77
2,133667, Control_c, 0, 64, 84
2,133685, Control_c, 0, 64, 91
2,133705, Control_c, 0, 64, 102
2,133724, Control_c, 0, 64, 127
2,133749, Note_on_c, 0, 73, 69
2,133797, Note_on_c, 0, 65, 0
2,134064, Note_on_c, 0, 75, 0
2,134110, Note_on_c, 0, 58, 0
2,134134, Note_on_c, 0, 71, 57
2,134156, Note_on_c, 0, 67, 44
2,134185, Control_c, 0, 64, 84
2,134192, Note_on_c, 0, 73, 0
2,134204, Control_c, 0, 64, 65
2,134224, Control_c, 0, 64, 29
2,134240, Control_c, 0, 64, 0
2,134298, Control_c, 0, 64, 48
2,134316, Control_c, 0, 64, 62
2,134336, Control_c, 0, 64, 67
2,134355, Control_c, 0, 64, 72
2,134374, Control_c, 0, 64, 81
2,134393, Control_c, 0, 64, 94
2,134412, Control_c, 0, 64, 127
2,134526, Note_on_c, 0, 70, 58
2,134562, Note_on_c, 0, 71, 0
2,134582, Note_on_c, 0, 70, 0
2,134585, Note_on_c, 0, 67, 0
2,134928, Note_on_c, 0, 68, 44
2,134931, Note_on_c, 0, 71, 50
2,135008, Control_c, 0, 64, 95
2,135028, Control_c, 0, 64, 73
2,135047, Control_c, 0, 64, 58
2,135066, Control_c, 0, 64, 0
2,135307, Note_on_c, 0, 70, 52
2,135322, Note_on_c, 0, 66, 39
2,135323, Note_on_c, 0, 68, 0
2,135360, Note_on_c, 0, 71, 0
2,135683, Note_on_c, 0, 68, 52
2,135693, Note_on_c, 0, 66, 0
2,135696, Note_on_c, 0, 65, 41
2,135724, Note_on_c, 0, 70, 0
2,136087, Note_on_c, 0, 63, 43
2,136104, Note_on_c, 0, 65, 0
2,136488, Note_on_c, 0, 46, 72
2,136516, Note_on_c, 0, 62, 52
2,136537, Note_on_c, 0, 63, 0
2,136886, Note_on_c, 0, 66, 60
2,136942, Note_on_c, 0, 62, 0
2,137035, Note_on_c, 0, 68, 0
2,137047, Note_on_c, 0, 65, 59
2,137088, Note_on_c, 0, 66, 0
2,137292, Note_on_c, 0, 39, 61
2,137296, Note_on_c, 0, 63, 57
2,137304, Note_on_c, 0, 66, 62
2,137325, Note_on_c, 0, 65, 0
2,137362, Note_on_c, 0, 46, 0
2,137685, Note_on_c, 0, 68, 61
2,137709, Note_on_c, 0, 65, 46
2,137731, Note_on_c, 0, 66, 0
2,138086, Note_on_c, 0, 70, 76
2,138109, Note_on_c, 0, 66, 57
2,138118, Note_on_c, 0, 68, 0
2,138136, Note_on_c, 0, 65, 0
2,138150, Note_on_c, 0, 63, 0
2,138469, Note_on_c, 0, 65, 47
2,138475, Note_on_c, 0, 38, 64
2,138476, Note_on_c, 0, 39, 0
2,138508, Note_on_c, 0, 66, 0
2,138868, Note_on_c, 0, 63, 66
2,138882, Note_on_c, 0, 39, 48
2,138883, Note_on_c, 0, 66, 61
2,138909, Note_on_c, 0, 65, 0
2,138919, Note_on_c, 0, 38, 0
2,138944, Note_on_c, 0, 70, 0
2,139278, Note_on_c, 0, 68, 58
2,139286, Note_on_c, 0, 41, 50
2,139292, Note_on_c, 0, 39, 0
2,139352, Note_on_c, 0, 66, 0
2,139684, Note_on_c, 0, 42, 54
2,139706, Note_on_c, 0, 70, 62
2,139722, Note_on_c, 0, 41, 0
2,139744, Note_on_c, 0, 68, 0
2,140051, Note_on_c, 0, 63, 0
2,140059, Note_on_c, 0, 41, 53
2,140067, Note_on_c, 0, 68, 67
2,140069, Note_on_c, 0, 62, 62
2,140074, Note_on_c, 0, 42, 0
2,140108, Note_on_c, 0, 70, 0
2,140469, Note_on_c, 0, 66, 60
2,140472, Note_on_c, 0, 63, 64
2,140476, Note_on_c, 0, 39, 53
2,140488, Note_on_c, 0, 68, 0
2,140498, Note_on_c, 0, 41, 0
2,140530, Note_on_c, 0, 62, 0
2,140831, Note_on_c, 0, 65, 68
2,140871, Note_on_c, 0, 63, 0
2,140901, Note_on_c, 0, 66, 0
2,141021, Note_on_c, 0, 63, 63
2,141232, Note_on_c, 0, 46, 55
2,141239, Note_on_c, 0, 66, 71
2,141241, Note_on_c, 0, 65, 0
2,141246, Note_on_c, 0, 62, 58
2,141260, Note_on_c, 0, 63, 0
2,141262, Note_on_c, 0, 39, 0
2,141652, Note_on_c, 0, 65, 55
2,141652, Note_on_c, 0, 68, 65
2,141684, Note_on_c, 0, 62, 0
2,141730, Note_on_c, 0, 66, 0
2,142056, Note_on_c, 0, 39, 61
2,142065, Note_on_c, 0, 63, 51
2,142091, Note_on_c, 0, 65, 0
2,142119, Note_on_c, 0, 46, 0
2,142428, Note_on_c, 0, 66, 62
2,142551, Note_on_c, 0, 66, 0
2,142571, Note_on_c, 0, 65, 66
2,142581, Note_on_c, 0, 63, 0
2,142612, Note_on_c, 0, 68, 0
2,142816, Note_on_c, 0, 70, 73
2,142821, Note_on_c, 0, 67, 61
2,142838, Note_on_c, 0, 65, 0
2,143191, Note_on_c, 0, 41, 66
2,143199, Note_on_c, 0, 68, 58
2,143228, Note_on_c, 0, 70, 0
2,143236, Note_on_c, 0, 39, 0
2,143251, Note_on_c, 0, 67, 0
2,143604, Note_on_c, 0, 63, 63
2,143604, Note_on_c, 0, 70, 65
2,143613, Note_on_c, 0, 43, 52
2,143616, Note_on_c, 0, 68, 0
2,143619, Note_on_c, 0, 41, 0
2,143880, Control_c, 0, 64, 32
2,143899, Control_c, 0, 64, 55
2,143918, Control_c, 0, 64, 62
2,143937, Control_c, 0, 64, 64
2,143957, Control_c, 0, 64, 66
2,143976, Control_c, 0, 64, 69
2,143981, Note_on_c, 0, 63, 0
2,143986, Note_on_c, 0, 61, 51
2,143995, Control_c, 0, 64, 71
2,144014, Control_c, 0, 64, 71
2,144034, Control_c, 0, 64, 69
2,144052, Control_c, 0, 64, 64
2,144072, Control_c, 0, 64, 56
2,144091, Control_c, 0, 64, 28
2,144111, Control_c, 0, 64, 0
2,144405, Note_on_c, 0, 61, 0
2,144406, Note_on_c, 0, 63, 52
2,144413, Note_on_c, 0, 43, 0
2,144423, Note_on_c, 0, 59, 45
2,144424, Note_on_c, 0, 44, 41
2,144433, Note_on_c, 0, 70, 0
2,144629, Control_c, 0, 64, 28
2,144648, Control_c, 0, 64, 45
2,144666, Control_c, 0, 64, 54
2,144686, Control_c, 0, 64, 59
2,144705, Control_c, 0, 64, 62
2,144725, Control_c, 0, 64, 63
2,144743, Control_c, 0, 64, 64
2,144763, Control_c, 0, 64, 65
2,144769, Note_on_c, 0, 63, 0
2,144782, Control_c, 0, 64, 66
2,144792, Note_on_c, 0, 59, 0
2,144793, Note_on_c, 0, 65, 54
2,144802, Control_c, 0, 64, 67
2,144810, Note_on_c, 0, 61, 51
2,144820, Control_c, 0, 64, 68
2,144840, Control_c, 0, 64, 70
2,144859, Control_c, 0, 64, 73
2,144878, Control_c, 0, 64, 75
2,144897, Control_c, 0, 64, 76
2,144917, Control_c, 0, 64, 77
2,144936, Control_c, 0, 64, 78
2,144974, Control_c, 0, 64, 78
2,144994, Control_c, 0, 64, 79
2,145012, Control_c, 0, 64, 80
2,145089, Control_c, 0, 64, 81
2,145109, Control_c, 0, 64, 82
2,145128, Control_c, 0, 64, 83
2,145146, Control_c, 0, 64, 83
2,145166, Control_c, 0, 64, 83
2,145184, Note_on_c, 0, 67, 68
2,145185, Control_c, 0, 64, 80
2,145186, Note_on_c, 0, 63, 67
2,145191, Note_on_c, 0, 65, 0
2,145197, Note_on_c, 0, 46, 52
2,145205, Control_c, 0, 64, 73
2,145223, Control_c, 0, 64, 63
2,145239, Note_on_c, 0, 61, 0
2,145242, Note_on_c, 0, 44, 0
2,145243, Control_c, 0, 64, 22
2,145262, Control_c, 0, 64, 0
2,145377, Control_c, 0, 64, 50
2,145397, Control_c, 0, 64, 61
2,145416, Control_c, 0, 64, 65
2,145435, Control_c, 0, 64, 68
2,145454, Control_c, 0, 64, 71
2,145474, Control_c, 0, 64, 74
2,145492, Control_c, 0, 64, 79
2,145512, Control_c, 0, 64, 85
2,145531, Control_c, 0, 64, 91
2,145551, Control_c, 0, 64, 99
2,145569, Control_c, 0, 64, 104
2,145585, Note_on_c, 0, 64, 74
2,145588, Note_on_c, 0, 67, 0
2,145589, Control_c, 0, 64, 108
2,145589, Note_on_c, 0, 63, 0
2,145608, Control_c, 0, 64, 113
2,145626, Control_c, 0, 64, 127
2,145974, Note_on_c, 0, 47, 61
2,145982, Note_on_c, 0, 46, 0
2,145993, Control_c, 0, 64, 99
2,146002, Note_on_c, 0, 68, 83
2,146012, Control_c, 0, 64, 74
2,146016, Note_on_c, 0, 63, 68
2,146032, Control_c, 0, 64, 54
2,146045, Note_on_c, 0, 64, 0
2,146050, Control_c, 0, 64, 0
2,146127, Control_c, 0, 64, 42
2,146148, Control_c, 0, 64, 63
2,146167, Control_c, 0, 64, 69
2,146185, Control_c, 0, 64, 78
2,146205, Control_c, 0, 64, 94
2,146224, Control_c, 0, 64, 127
2,146240, Note_on_c, 0, 63, 0
2,146300, Note_on_c, 0, 68, 0
2,146376, Note_on_c, 0, 47, 0
2,146378, Note_on_c, 0, 49, 76
2,146767, Note_on_c, 0, 56, 61
2,146781, Note_on_c, 0, 47, 57
2,146834, Note_on_c, 0, 49, 0
2,146842, Note_on_c, 0, 80, 85
2,146892, Control_c, 0, 64, 116
2,146912, Control_c, 0, 64, 83
2,146931, Control_c, 0, 64, 65
2,146950, Control_c, 0, 64, 39
2,146969, Control_c, 0, 64, 0
2,147186, Note_on_c, 0, 46, 64
2,147205, Note_on_c, 0, 47, 0
2,147591, Note_on_c, 0, 44, 52
2,147600, Note_on_c, 0, 75, 84
2,147612, Note_on_c, 0, 46, 0
2,147683, Control_c, 0, 64, 48
2,147687, Note_on_c, 0, 80, 0
2,147701, Control_c, 0, 64, 60
2,147721, Control_c, 0, 64, 63
2,147740, Control_c, 0, 64, 64
2,147746, Note_on_c, 0, 56, 0
2,147759, Control_c, 0, 64, 67
2,147778, Control_c, 0, 64, 72
2,147798, Control_c, 0, 64, 79
2,147816, Control_c, 0, 64, 92
2,147836, Control_c, 0, 64, 127
2,147970, Control_c, 0, 64, 85
2,147986, Note_on_c, 0, 46, 63
2,147988, Note_on_c, 0, 55, 64
2,147990, Control_c, 0, 64, 68
2,148009, Control_c, 0, 64, 56
2,148019, Note_on_c, 0, 44, 0
2,148028, Control_c, 0, 64, 27
2,148047, Control_c, 0, 64, 34
2,148066, Control_c, 0, 64, 52
2,148086, Control_c, 0, 64, 62
2,148103, Note_on_c, 0, 55, 0
2,148104, Control_c, 0, 64, 66
2,148124, Control_c, 0, 64, 70
2,148143, Control_c, 0, 64, 76
2,148162, Control_c, 0, 64, 83
2,148178, Note_on_c, 0, 46, 0
2,148181, Control_c, 0, 64, 92
2,148201, Control_c, 0, 64, 97
2,148220, Control_c, 0, 64, 102
2,148239, Control_c, 0, 64, 108
2,148258, Control_c, 0, 64, 123
2,148278, Control_c, 0, 64, 127
2,148355, Control_c, 0, 64, 89
2,148362, Note_on_c, 0, 56, 76
2,148369, Note_on_c, 0, 47, 61
2,148373, Control_c, 0, 64, 70
2,148393, Control_c, 0, 64, 54
2,148412, Control_c, 0, 64, 0
2,148450, Control_c, 0, 64, 21
2,148470, Control_c, 0, 64, 55
2,148486, Control_c, 0, 64, 64
2,148505, Control_c, 0, 64, 69
2,148524, Control_c, 0, 64, 76
2,148544, Control_c, 0, 64, 86
2,148551, Note_on_c, 0, 56, 0
2,148563, Control_c, 0, 64, 95
2,148582, Control_c, 0, 64, 103
2,148601, Control_c, 0, 64, 108
2,148621, Control_c, 0, 64, 112
2,148638, Control_c, 0, 64, 115
2,148657, Control_c, 0, 64, 119
2,148676, Control_c, 0, 64, 127
2,148733, Control_c, 0, 64, 108
2,148735, Note_on_c, 0, 47, 0
2,148745, Note_on_c, 0, 52, 64
2,148745, Note_on_c, 0, 73, 80
2,148747, Note_on_c, 0, 58, 69
2,148753, Control_c, 0, 64, 84
2,148772, Control_c, 0, 64, 67
2,148791, Control_c, 0, 64, 38
2,148796, Note_on_c, 0, 75, 0
2,148810, Control_c, 0, 64, 0
2,148868, Control_c, 0, 64, 51
2,148887, Control_c, 0, 64, 64
2,148898, Note_on_c, 0, 49, 69
2,148907, Control_c, 0, 64, 69
2,148925, Control_c, 0, 64, 76
2,148941, Note_on_c, 0, 52, 0
2,148945, Control_c, 0, 64, 84
2,148950, Note_on_c, 0, 58, 0
2,148964, Control_c, 0, 64, 90
2,148973, Note_on_c, 0, 49, 0
2,148984, Control_c, 0, 64, 95
2,149002, Control_c, 0, 64, 98
2,149027, Control_c, 0, 64, 101
2,149045, Control_c, 0, 64, 104
2,149065, Control_c, 0, 64, 107
2,149084, Control_c, 0, 64, 108
2,149122, Control_c, 0, 64, 109
2,149142, Control_c, 0, 64, 108
2,149149, Note_on_c, 0, 59, 69
2,149153, Note_on_c, 0, 75, 78
2,149161, Control_c, 0, 64, 103
2,149161, Note_on_c, 0, 56, 63
2,149180, Control_c, 0, 64, 86
2,149199, Control_c, 0, 64, 69
2,149219, Control_c, 0, 64, 42
2,149224, Note_on_c, 0, 73, 0
2,149238, Control_c, 0, 64, 0
2,149314, Control_c, 0, 64, 39
2,149333, Control_c, 0, 64, 60
2,149344, Note_on_c, 0, 59, 0
2,149353, Control_c, 0, 64, 66
2,149372, Control_c, 0, 64, 70
2,149391, Control_c, 0, 64, 78
2,149410, Control_c, 0, 64, 92
2,149430, Control_c, 0, 64, 110
2,149449, Control_c, 0, 64, 127
2,149545, Control_c, 0, 64, 99
2,149550, Note_on_c, 0, 56, 0
2,149551, Note_on_c, 0, 58, 69
2,149564, Control_c, 0, 64, 76
2,149584, Control_c, 0, 64, 62
2,149599, Control_c, 0, 64, 0
2,149881, Note_on_c, 0, 58, 0
2,149903, Note_on_c, 0, 56, 66
2,149924, Note_on_c, 0, 47, 62
2,150042, Control_c, 0, 64, 38
2,150062, Control_c, 0, 64, 57
2,150080, Control_c, 0, 64, 63
2,150100, Control_c, 0, 64, 66
2,150119, Control_c, 0, 64, 69
2,150139, Control_c, 0, 64, 76
2,150157, Control_c, 0, 64, 88
2,150177, Control_c, 0, 64, 110
2,150179, Note_on_c, 0, 47, 0
2,150196, Control_c, 0, 64, 127
2,150302, Note_on_c, 0, 77, 79
2,150303, Note_on_c, 0, 49, 66
2,150308, Note_on_c, 0, 75, 0
2,150348, Note_on_c, 0, 49, 0
2,150379, Note_on_c, 0, 56, 0
2,150698, Note_on_c, 0, 63, 68
2,150706, Note_on_c, 0, 51, 60
2,150709, Note_on_c, 0, 78, 81
2,150714, Control_c, 0, 64, 91
2,150733, Control_c, 0, 64, 68
2,150741, Note_on_c, 0, 77, 0
2,150753, Control_c, 0, 64, 28
2,150771, Control_c, 0, 64, 0
2,150848, Control_c, 0, 64, 36
2,150868, Control_c, 0, 64, 59
2,150887, Control_c, 0, 64, 65
2,150906, Control_c, 0, 64, 69
2,150925, Control_c, 0, 64, 76
2,150945, Control_c, 0, 64, 83
2,150964, Control_c, 0, 64, 89
2,150983, Control_c, 0, 64, 95
2,151002, Control_c, 0, 64, 99
2,151022, Control_c, 0, 64, 99
2,151040, Control_c, 0, 64, 99
2,151060, Control_c, 0, 64, 94
2,151079, Control_c, 0, 64, 86
2,151089, Note_on_c, 0, 50, 66
2,151099, Control_c, 0, 64, 75
2,151111, Note_on_c, 0, 63, 0
2,151117, Control_c, 0, 64, 64
2,151123, Note_on_c, 0, 51, 0
2,151136, Control_c, 0, 64, 40
2,151156, Control_c, 0, 64, 0
2,151477, Note_on_c, 0, 58, 67
2,151486, Note_on_c, 0, 51, 58
2,151521, Note_on_c, 0, 50, 0
2,151559, Control_c, 0, 64, 42
2,151579, Control_c, 0, 64, 62
2,151597, Control_c, 0, 64, 65
2,151616, Control_c, 0, 64, 67
2,151636, Control_c, 0, 64, 69
2,151654, Control_c, 0, 64, 72
2,151674, Control_c, 0, 64, 76
2,151693, Control_c, 0, 64, 82
2,151713, Control_c, 0, 64, 89
2,151731, Control_c, 0, 64, 97
2,151751, Control_c, 0, 64, 109
2,151770, Control_c, 0, 64, 118
2,151789, Control_c, 0, 64, 119
2,151859, Note_on_c, 0, 51, 0
2,151860, Note_on_c, 0, 53, 58
2,151863, Note_on_c, 0, 77, 76
2,151866, Control_c, 0, 64, 114
2,151885, Control_c, 0, 64, 93
2,151905, Control_c, 0, 64, 74
2,151924, Control_c, 0, 64, 61
2,151943, Control_c, 0, 64, 0
2,151954, Note_on_c, 0, 78, 0
2,152000, Control_c, 0, 64, 23
2,152020, Control_c, 0, 64, 58
2,152039, Control_c, 0, 64, 65
2,152059, Control_c, 0, 64, 71
2,152077, Control_c, 0, 64, 81
2,152096, Control_c, 0, 64, 94
2,152116, Control_c, 0, 64, 111
2,152134, Control_c, 0, 64, 127
2,152173, Control_c, 0, 64, 118
2,152193, Control_c, 0, 64, 98
2,152211, Control_c, 0, 64, 79
2,152231, Control_c, 0, 64, 65
2,152250, Control_c, 0, 64, 50
2,152258, Note_on_c, 0, 75, 83
2,152265, Note_on_c, 0, 54, 59
2,152269, Control_c, 0, 64, 34
2,152288, Control_c, 0, 64, 47
2,152299, Note_on_c, 0, 77, 0
2,152307, Note_on_c, 0, 53, 0
2,152308, Control_c, 0, 64, 59
2,152327, Control_c, 0, 64, 64
2,152346, Control_c, 0, 64, 69
2,152356, Note_on_c, 0, 54, 0
2,152365, Control_c, 0, 64, 76
2,152379, Note_on_c, 0, 58, 0
2,152385, Control_c, 0, 64, 85
2,152404, Control_c, 0, 64, 95
2,152423, Control_c, 0, 64, 104
2,152442, Control_c, 0, 64, 127
2,152614, Control_c, 0, 64, 91
2,152629, Note_on_c, 0, 59, 77
2,152633, Control_c, 0, 64, 70
2,152634, Note_on_c, 0, 56, 64
2,152652, Control_c, 0, 64, 53
2,152672, Control_c, 0, 64, 0
2,152710, Control_c, 0, 64, 32
2,152729, Control_c, 0, 64, 59
2,152749, Control_c, 0, 64, 66
2,152767, Control_c, 0, 64, 73
2,152787, Control_c, 0, 64, 84
2,152806, Control_c, 0, 64, 101
2,152825, Control_c, 0, 64, 127
2,152854, Note_on_c, 0, 59, 0
2,153024, Note_on_c, 0, 53, 57
2,153030, Note_on_c, 0, 61, 58
2,153064, Note_on_c, 0, 82, 87
2,153109, Note_on_c, 0, 56, 0
2,153113, Control_c, 0, 64, 78
2,153132, Control_c, 0, 64, 62
2,153152, Control_c, 0, 64, 0
2,153159, Note_on_c, 0, 75, 0
2,153209, Control_c, 0, 64, 29
2,153229, Control_c, 0, 64, 58
2,153247, Control_c, 0, 64, 65
2,153267, Control_c, 0, 64, 72
2,153286, Control_c, 0, 64, 83
2,153305, Control_c, 0, 64, 99
2,153324, Control_c, 0, 64, 127
2,153421, Control_c, 0, 64, 101
2,153438, Note_on_c, 0, 55, 66
2,153439, Control_c, 0, 64, 76
2,153459, Control_c, 0, 64, 62
2,153465, Note_on_c, 0, 53, 0
2,153478, Control_c, 0, 64, 0
2,153830, Note_on_c, 0, 56, 53
2,153852, Note_on_c, 0, 75, 76
2,153879, Note_on_c, 0, 55, 0
2,153923, Note_on_c, 0, 82, 0
2,153976, Control_c, 0, 64, 48
2,153995, Control_c, 0, 64, 60
2,154014, Control_c, 0, 64, 64
2,154034, Control_c, 0, 64, 67
2,154053, Control_c, 0, 64, 71
2,154072, Control_c, 0, 64, 78
2,154091, Control_c, 0, 64, 90
2,154111, Control_c, 0, 64, 109
2,154129, Control_c, 0, 64, 127
2,154239, Note_on_c, 0, 56, 0
2,154252, Note_on_c, 0, 73, 55
2,154262, Note_on_c, 0, 58, 46
2,154283, Control_c, 0, 64, 116
2,154303, Control_c, 0, 64, 80
2,154322, Control_c, 0, 64, 64
2,154341, Control_c, 0, 64, 31
2,154360, Control_c, 0, 64, 0
2,154399, Control_c, 0, 64, 49
2,154418, Control_c, 0, 64, 62
2,154437, Control_c, 0, 64, 67
2,154456, Control_c, 0, 64, 74
2,154475, Control_c, 0, 64, 87
2,154494, Control_c, 0, 64, 119
2,154514, Control_c, 0, 64, 127
2,154629, Control_c, 0, 64, 101
2,154643, Note_on_c, 0, 71, 54
2,154645, Note_on_c, 0, 56, 46
2,154646, Note_on_c, 0, 75, 0
2,154648, Control_c, 0, 64, 75
2,154651, Note_on_c, 0, 58, 0
2,154651, Note_on_c, 0, 73, 0
2,154668, Control_c, 0, 64, 62
2,154686, Control_c, 0, 64, 36
2,154706, Control_c, 0, 64, 25
2,154725, Control_c, 0, 64, 43
2,154744, Control_c, 0, 64, 58
2,154763, Control_c, 0, 64, 64
2,154782, Note_on_c, 0, 61, 0
2,154783, Control_c, 0, 64, 67
2,154802, Control_c, 0, 64, 71
2,154821, Control_c, 0, 64, 78
2,154840, Control_c, 0, 64, 87
2,154860, Control_c, 0, 64, 97
2,154879, Control_c, 0, 64, 108
2,154898, Control_c, 0, 64, 118
2,154917, Control_c, 0, 64, 119
2,154955, Control_c, 0, 64, 117
2,154974, Control_c, 0, 64, 104
2,154994, Control_c, 0, 64, 85
2,155006, Note_on_c, 0, 75, 56
2,155013, Control_c, 0, 64, 69
2,155020, Note_on_c, 0, 54, 40
2,155024, Note_on_c, 0, 70, 45
2,155032, Control_c, 0, 64, 54
2,155035, Note_on_c, 0, 71, 0
2,155051, Control_c, 0, 64, 0
2,155089, Control_c, 0, 64, 34
2,155109, Control_c, 0, 64, 58
2,155128, Control_c, 0, 64, 64
2,155140, Note_on_c, 0, 56, 0
2,155148, Control_c, 0, 64, 68
2,155153, Note_on_c, 0, 54, 0
2,155166, Control_c, 0, 64, 74
2,155186, Control_c, 0, 64, 82
2,155205, Control_c, 0, 64, 90
2,155224, Control_c, 0, 64, 95
2,155243, Control_c, 0, 64, 98
2,155263, Control_c, 0, 64, 98
2,155282, Control_c, 0, 64, 99
2,155301, Control_c, 0, 64, 101
2,155320, Control_c, 0, 64, 106
2,155340, Control_c, 0, 64, 111
2,155359, Control_c, 0, 64, 112
2,155360, Note_on_c, 0, 53, 44
2,155371, Note_on_c, 0, 75, 0
2,155382, Note_on_c, 0, 74, 63
2,155390, Note_on_c, 0, 70, 0
2,155391, Note_on_c, 0, 68, 58
2,155396, Control_c, 0, 64, 108
2,155415, Control_c, 0, 64, 98
2,155434, Control_c, 0, 64, 82
2,155453, Control_c, 0, 64, 64
2,155473, Control_c, 0, 64, 28
2,155492, Control_c, 0, 64, 0
2,155550, Control_c, 0, 64, 28
2,155569, Control_c, 0, 64, 57
2,155588, Control_c, 0, 64, 64
2,155607, Control_c, 0, 64, 67
2,155627, Control_c, 0, 64, 71
2,155645, Control_c, 0, 64, 77
2,155665, Control_c, 0, 64, 84
2,155684, Control_c, 0, 64, 93
2,155704, Control_c, 0, 64, 102
2,155722, Control_c, 0, 64, 113
2,155743, Control_c, 0, 64, 119
2,155748, Note_on_c, 0, 51, 50
2,155759, Note_on_c, 0, 53, 0
2,155762, Control_c, 0, 64, 118
2,155763, Note_on_c, 0, 75, 77
2,155776, Note_on_c, 0, 66, 58
2,155776, Note_on_c, 0, 68, 0
2,155781, Control_c, 0, 64, 104
2,155800, Control_c, 0, 64, 85
2,155812, Note_on_c, 0, 74, 0
2,155820, Control_c, 0, 64, 69
2,155839, Control_c, 0, 64, 54
2,155858, Control_c, 0, 64, 0
2,155896, Control_c, 0, 64, 23
2,155915, Control_c, 0, 64, 53
2,155934, Control_c, 0, 64, 63
2,155954, Control_c, 0, 64, 66
2,155973, Control_c, 0, 64, 71
2,155992, Control_c, 0, 64, 79
2,156011, Control_c, 0, 64, 91
2,156031, Control_c, 0, 64, 104
2,156049, Control_c, 0, 64, 123
2,156069, Control_c, 0, 64, 127
2,156119, Note_on_c, 0, 51, 0
2,156126, Control_c, 0, 64, 112
2,156146, Control_c, 0, 64, 86
2,156153, Note_on_c, 0, 50, 47
2,156157, Note_on_c, 0, 68, 50
2,156158, Note_on_c, 0, 77, 62
2,156165, Control_c, 0, 64, 68
2,156166, Note_on_c, 0, 66, 0
2,156180, Note_on_c, 0, 75, 0
2,156184, Control_c, 0, 64, 49
2,156203, Control_c, 0, 64, 0
2,156280, Control_c, 0, 64, 47
2,156300, Control_c, 0, 64, 62
2,156319, Control_c, 0, 64, 66
2,156336, Control_c, 0, 64, 71
2,156356, Control_c, 0, 64, 78
2,156375, Control_c, 0, 64, 88
2,156394, Control_c, 0, 64, 99
2,156413, Control_c, 0, 64, 127
2,156526, Note_on_c, 0, 77, 0
2,156529, Note_on_c, 0, 50, 0
2,156529, Note_on_c, 0, 74, 63
2,156548, Control_c, 0, 64, 86
2,156556, Note_on_c, 0, 59, 48
2,156564, Note_on_c, 0, 65, 47
2,156567, Control_c, 0, 64, 66
2,156572, Note_on_c, 0, 68, 0
2,156587, Control_c, 0, 64, 49
2,156605, Control_c, 0, 64, 0
2,156625, Control_c, 0, 64, 18
2,156644, Control_c, 0, 64, 46
2,156664, Control_c, 0, 64, 60
2,156677, Note_on_c, 0, 65, 0
2,156679, Control_c, 0, 64, 65
2,156702, Control_c, 0, 64, 70
2,156721, Control_c, 0, 64, 76
2,156740, Control_c, 0, 64, 86
2,156759, Control_c, 0, 64, 100
2,156779, Control_c, 0, 64, 127
2,156925, Note_on_c, 0, 75, 75
2,156932, Control_c, 0, 64, 97
2,156936, Note_on_c, 0, 58, 54
2,156938, Note_on_c, 0, 74, 0
2,156940, Note_on_c, 0, 66, 64
2,156951, Control_c, 0, 64, 73
2,156954, Note_on_c, 0, 59, 0
2,156971, Control_c, 0, 64, 56
2,156990, Control_c, 0, 64, 15
2,157009, Control_c, 0, 64, 0
2,157028, Control_c, 0, 64, 39
2,157048, Control_c, 0, 64, 58
2,157066, Control_c, 0, 64, 64
2,157080, Note_on_c, 0, 66, 0
2,157085, Control_c, 0, 64, 68
2,157105, Control_c, 0, 64, 76
2,157124, Control_c, 0, 64, 87
2,157143, Control_c, 0, 64, 102
2,157162, Control_c, 0, 64, 127
2,157273, Note_on_c, 0, 75, 0
2,157310, Note_on_c, 0, 56, 62
2,157311, Note_on_c, 0, 77, 77
2,157312, Note_on_c, 0, 68, 71
2,157314, Control_c, 0, 64, 96
2,157334, Control_c, 0, 64, 73
2,157345, Note_on_c, 0, 58, 0
2,157352, Control_c, 0, 64, 59
2,157372, Control_c, 0, 64, 20
2,157384, Note_on_c, 0, 68, 0
2,157391, Control_c, 0, 64, 25
2,157411, Control_c, 0, 64, 48
2,157429, Control_c, 0, 64, 61
2,157449, Control_c, 0, 64, 66
2,157468, Control_c, 0, 64, 72
2,157487, Control_c, 0, 64, 84
2,157506, Control_c, 0, 64, 101
2,157525, Control_c, 0, 64, 127
2,157684, Note_on_c, 0, 78, 82
2,157692, Note_on_c, 0, 54, 64
2,157699, Note_on_c, 0, 70, 67
2,157701, Control_c, 0, 64, 103
2,157719, Note_on_c, 0, 77, 0
2,157720, Control_c, 0, 64, 75
2,157722, Note_on_c, 0, 56, 0
2,157740, Control_c, 0, 64, 61
2,157758, Control_c, 0, 64, 0
2,157797, Control_c, 0, 64, 18
2,157817, Control_c, 0, 64, 55
2,157835, Control_c, 0, 64, 64
2,157839, Note_on_c, 0, 70, 0
2,157855, Control_c, 0, 64, 70
2,157874, Control_c, 0, 64, 78
2,157893, Control_c, 0, 64, 93
2,157912, Control_c, 0, 64, 118
2,157932, Control_c, 0, 64, 127
2,158057, Note_on_c, 0, 54, 0
2,158071, Note_on_c, 0, 80, 89
2,158075, Note_on_c, 0, 53, 67
2,158082, Note_on_c, 0, 78, 0
2,158085, Control_c, 0, 64, 118
2,158089, Note_on_c, 0, 68, 72
2,158104, Control_c, 0, 64, 80
2,158123, Control_c, 0, 64, 64
2,158143, Control_c, 0, 64, 34
2,158161, Control_c, 0, 64, 0
2,158181, Control_c, 0, 64, 11
2,158200, Control_c, 0, 64, 54
2,158220, Control_c, 0, 64, 64
2,158235, Control_c, 0, 64, 70
2,158254, Control_c, 0, 64, 80
2,158273, Control_c, 0, 64, 100
2,158293, Control_c, 0, 64, 127
2,158427, Control_c, 0, 64, 99
2,158446, Control_c, 0, 64, 73
2,158465, Control_c, 0, 64, 60
2,158468, Note_on_c, 0, 82, 85
2,158473, Note_on_c, 0, 51, 63
2,158484, Control_c, 0, 64, 36
2,158491, Note_on_c, 0, 53, 0
2,158501, Note_on_c, 0, 80, 0
2,158504, Control_c, 0, 64, 45
2,158522, Control_c, 0, 64, 60
2,158538, Note_on_c, 0, 82, 0
2,158542, Control_c, 0, 64, 66
2,158546, Note_on_c, 0, 68, 0
2,158561, Control_c, 0, 64, 74
2,158581, Control_c, 0, 64, 94
2,158599, Control_c, 0, 64, 127
2,158771, Note_on_c, 0, 51, 0
2,158813, Control_c, 0, 64, 95
2,158830, Note_on_c, 0, 70, 80
2,158832, Control_c, 0, 64, 70
2,158836, Note_on_c, 0, 66, 69
2,158842, Note_on_c, 0, 49, 74
2,158852, Control_c, 0, 64, 54
2,158870, Control_c, 0, 64, 27
2,158890, Control_c, 0, 64, 43
2,158909, Control_c, 0, 64, 59
2,158928, Control_c, 0, 64, 66
2,158942, Note_on_c, 0, 49, 0
2,158947, Control_c, 0, 64, 72
2,158955, Note_on_c, 0, 70, 0
2,158958, Note_on_c, 0, 66, 0
2,158966, Control_c, 0, 64, 86
2,158986, Control_c, 0, 64, 113
2,158988, Note_on_c, 0, 65, 68
2,159004, Control_c, 0, 64, 127
2,159024, Note_on_c, 0, 65, 0
2,159196, Note_on_c, 0, 47, 63
2,159225, Note_on_c, 0, 75, 86
2,159236, Note_on_c, 0, 66, 73
2,159255, Note_on_c, 0, 47, 0
2,159262, Note_on_c, 0, 49, 75
2,159274, Control_c, 0, 64, 92
2,159294, Control_c, 0, 64, 67
2,159313, Control_c, 0, 64, 0
2,159338, Note_on_c, 0, 49, 0
2,159350, Note_on_c, 0, 47, 69
2,159412, Note_on_c, 0, 47, 0
2,159422, Note_on_c, 0, 49, 66
2,159500, Note_on_c, 0, 49, 0
2,159502, Note_on_c, 0, 47, 62
2,159549, Note_on_c, 0, 66, 0
2,159581, Note_on_c, 0, 47, 0
2,159590, Note_on_c, 0, 49, 70
2,159608, Note_on_c, 0, 68, 79
2,159608, Note_on_c, 0, 77, 80
2,159654, Note_on_c, 0, 47, 55
2,159661, Note_on_c, 0, 49, 0
2,159661, Note_on_c, 0, 75, 0
2,159721, Note_on_c, 0, 47, 0
2,159737, Note_on_c, 0, 49, 71
2,159822, Note_on_c, 0, 47, 56
2,159852, Note_on_c, 0, 49, 0
2,160105, Note_on_c, 0, 46, 77
2,160117, Note_on_c, 0, 74, 78
2,160121, Note_on_c, 0, 68, 0
2,160123, Note_on_c, 0, 65, 73
2,160125, Note_on_c, 0, 47, 0
2,160165, Note_on_c, 0, 77, 0
2,160193, Control_c, 0, 64, 32
2,160213, Control_c, 0, 64, 66
2,160231, Control_c, 0, 64, 75
2,160251, Control_c, 0, 64, 89
2,160270, Control_c, 0, 64, 105
2,160290, Control_c, 0, 64, 127
2,160532, Note_on_c, 0, 65, 0
2,160637, Note_on_c, 0, 74, 0
2,161020, Note_on_c, 0, 58, 80
2,161021, Note_on_c, 0, 51, 70
2,161096, Control_c, 0, 64, 91
2,161109, Note_on_c, 0, 46, 0
2,161115, Control_c, 0, 64, 67
2,161133, Control_c, 0, 64, 0
2,161898, Note_on_c, 0, 63, 81
2,161907, Note_on_c, 0, 70, 78
2,162000, Control_c, 0, 64, 23
2,162018, Control_c, 0, 64, 61
2,162038, Control_c, 0, 64, 66
2,162057, Control_c, 0, 64, 68
2,162077, Control_c, 0, 64, 71
2,162095, Control_c, 0, 64, 76
2,162115, Control_c, 0, 64, 83
2,162134, Control_c, 0, 64, 93
2,162153, Control_c, 0, 64, 114
2,162172, Control_c, 0, 64, 127
2,162321, Note_on_c, 0, 51, 0
2,162328, Note_on_c, 0, 52, 69
2,162692, Control_c, 0, 64, 83
2,162711, Control_c, 0, 64, 62
2,162715, Note_on_c, 0, 75, 85
2,162728, Note_on_c, 0, 51, 60
2,162730, Control_c, 0, 64, 0
2,162768, Note_on_c, 0, 52, 0
2,162827, Control_c, 0, 64, 41
2,162845, Control_c, 0, 64, 62
2,162865, Control_c, 0, 64, 67
2,162884, Control_c, 0, 64, 74
2,162903, Control_c, 0, 64, 84
2,162922, Control_c, 0, 64, 98
2,162937, Note_on_c, 0, 63, 0
2,162942, Control_c, 0, 64, 127
2,163094, Note_on_c, 0, 64, 79
2,163103, Note_on_c, 0, 49, 68
2,163114, Control_c, 0, 64, 97
2,163130, Note_on_c, 0, 51, 0
2,163133, Control_c, 0, 64, 71
2,163153, Control_c, 0, 64, 50
2,163172, Control_c, 0, 64, 0
2,163182, Note_on_c, 0, 58, 0
2,163230, Control_c, 0, 64, 55
2,163248, Control_c, 0, 64, 65
2,163248, Note_on_c, 0, 64, 0
2,163268, Control_c, 0, 64, 70
2,163287, Control_c, 0, 64, 80
2,163307, Control_c, 0, 64, 96
2,163325, Control_c, 0, 64, 119
2,163345, Control_c, 0, 64, 127
2,163463, Note_on_c, 0, 49, 0
2,163500, Control_c, 0, 64, 103
2,163503, Note_on_c, 0, 63, 83
2,163512, Note_on_c, 0, 47, 68
2,163518, Control_c, 0, 64, 75
2,163537, Control_c, 0, 64, 58
2,163557, Control_c, 0, 64, 0
2,163559, Note_on_c, 0, 75, 0
2,163589, Note_on_c, 0, 70, 0
2,163614, Control_c, 0, 64, 52
2,163634, Control_c, 0, 64, 64
2,163649, Note_on_c, 0, 47, 0
2,163653, Control_c, 0, 64, 70
2,163672, Control_c, 0, 64, 81
2,163691, Control_c, 0, 64, 100
2,163711, Control_c, 0, 64, 127
2,163871, Note_on_c, 0, 63, 0
2,163903, Note_on_c, 0, 61, 75
2,163905, Note_on_c, 0, 76, 85
2,163910, Note_on_c, 0, 49, 68
2,163922, Control_c, 0, 64, 116
2,163941, Control_c, 0, 64, 78
2,163960, Control_c, 0, 64, 62
2,163980, Control_c, 0, 64, 0
2,164017, Control_c, 0, 64, 29
2,164029, Note_on_c, 0, 61, 0
2,164037, Control_c, 0, 64, 58
2,164056, Control_c, 0, 64, 65
2,164075, Control_c, 0, 64, 71
2,164094, Control_c, 0, 64, 82
2,164114, Control_c, 0, 64, 98
2,164133, Control_c, 0, 64, 127
2,164286, Control_c, 0, 64, 109
2,164300, Note_on_c, 0, 49, 0
2,164305, Note_on_c, 0, 75, 84
2,164306, Control_c, 0, 64, 77
2,164307, Note_on_c, 0, 59, 73
2,164313, Note_on_c, 0, 51, 64
2,164325, Control_c, 0, 64, 62
2,164344, Control_c, 0, 64, 0
2,164372, Note_on_c, 0, 76, 0
2,164392, Note_on_c, 0, 59, 0
2,164402, Control_c, 0, 64, 55
2,164421, Control_c, 0, 64, 65
2,164440, Control_c, 0, 64, 71
2,164460, Control_c, 0, 64, 81
2,164478, Control_c, 0, 64, 97
2,164497, Control_c, 0, 64, 127
2,164703, Note_on_c, 0, 73, 82
2,164705, Note_on_c, 0, 61, 77
2,164738, Note_on_c, 0, 75, 0
2,164740, Note_on_c, 0, 61, 0
2,164755, Note_on_c, 0, 51, 0
2,165126, Note_on_c, 0, 44, 67
2,165130, Note_on_c, 0, 71, 78
2,165136, Note_on_c, 0, 63, 71
2,165171, Control_c, 0, 64, 96
2,165177, Note_on_c, 0, 73, 0
2,165190, Control_c, 0, 64, 69
2,165210, Control_c, 0, 64, 0
2,165524, Note_on_c, 0, 46, 66
2,165534, Note_on_c, 0, 73, 79
2,165539, Note_on_c, 0, 44, 0
2,165606, Note_on_c, 0, 71, 0
2,165946, Note_on_c, 0, 75, 84
2,165948, Note_on_c, 0, 56, 70
2,165953, Note_on_c, 0, 47, 65
2,165983, Note_on_c, 0, 73, 0
2,166016, Control_c, 0, 64, 61
2,166025, Note_on_c, 0, 46, 0
2,166036, Control_c, 0, 64, 67
2,166055, Control_c, 0, 64, 74
2,166074, Control_c, 0, 64, 80
2,166093, Control_c, 0, 64, 85
2,166113, Control_c, 0, 64, 91
2,166131, Control_c, 0, 64, 100
2,166150, Control_c, 0, 64, 127
2,166326, Note_on_c, 0, 54, 79
2,166363, Note_on_c, 0, 56, 0
2,166690, Control_c, 0, 64, 87
2,166709, Control_c, 0, 64, 68
2,166725, Note_on_c, 0, 47, 0
2,166729, Control_c, 0, 64, 35
2,166747, Control_c, 0, 64, 0
2,166750, Note_on_c, 0, 53, 69
2,166756, Note_on_c, 0, 49, 64
2,166760, Note_on_c, 0, 68, 78
2,166786, Note_on_c, 0, 54, 0
2,166799, Note_on_c, 0, 63, 0
2,166821, Note_on_c, 0, 75, 0
2,167169, Note_on_c, 0, 70, 78
2,167188, Note_on_c, 0, 68, 0
2,167323, Note_on_c, 0, 71, 75
2,167346, Note_on_c, 0, 70, 0
2,167546, Note_on_c, 0, 49, 0
2,167547, Note_on_c, 0, 61, 72
2,167549, Note_on_c, 0, 42, 67
2,167549, Note_on_c, 0, 70, 79
2,167582, Note_on_c, 0, 71, 0
2,167596, Note_on_c, 0, 53, 0
2,167629, Control_c, 0, 64, 35
2,167648, Control_c, 0, 64, 60
2,167667, Control_c, 0, 64, 62
2,167706, Control_c, 0, 64, 62
2,167725, Control_c, 0, 64, 61
2,167744, Control_c, 0, 64, 57
2,167764, Control_c, 0, 64, 41
2,167782, Control_c, 0, 64, 0
2,167931, Note_on_c, 0, 71, 75
2,167969, Note_on_c, 0, 70, 0
2,168332, Note_on_c, 0, 73, 79
2,168341, Note_on_c, 0, 54, 64
2,168376, Note_on_c, 0, 71, 0
2,168436, Control_c, 0, 64, 24
2,168455, Control_c, 0, 64, 59
2,168474, Control_c, 0, 64, 63
2,168493, Control_c, 0, 64, 64
2,168513, Control_c, 0, 64, 65
2,168531, Control_c, 0, 64, 67
2,168550, Control_c, 0, 64, 69
2,168570, Control_c, 0, 64, 73
2,168589, Control_c, 0, 64, 79
2,168608, Control_c, 0, 64, 86
2,168627, Control_c, 0, 64, 90
2,168647, Control_c, 0, 64, 88
2,168666, Control_c, 0, 64, 77
2,168685, Control_c, 0, 64, 65
2,168704, Control_c, 0, 64, 36
2,168724, Control_c, 0, 64, 0
2,168726, Note_on_c, 0, 41, 65
2,168750, Note_on_c, 0, 42, 0
2,168859, Control_c, 0, 64, 21
2,168878, Control_c, 0, 64, 52
2,168897, Control_c, 0, 64, 60
2,168917, Control_c, 0, 64, 63
2,168936, Control_c, 0, 64, 65
2,168955, Control_c, 0, 64, 68
2,168974, Control_c, 0, 64, 72
2,168994, Control_c, 0, 64, 79
2,169012, Control_c, 0, 64, 87
2,169032, Control_c, 0, 64, 94
2,169051, Control_c, 0, 64, 98
2,169086, Control_c, 0, 64, 97
2,169106, Control_c, 0, 64, 92
2,169110, Note_on_c, 0, 41, 0
2,169121, Note_on_c, 0, 42, 53
2,169125, Control_c, 0, 64, 79
2,169130, Note_on_c, 0, 66, 70
2,169144, Control_c, 0, 64, 65
2,169163, Control_c, 0, 64, 31
2,169183, Control_c, 0, 64, 0
2,169215, Note_on_c, 0, 73, 0
2,169259, Control_c, 0, 64, 43
2,169278, Control_c, 0, 64, 60
2,169297, Control_c, 0, 64, 64
2,169308, Note_on_c, 0, 42, 0
2,169311, Note_on_c, 0, 54, 0
2,169317, Control_c, 0, 64, 68
2,169336, Control_c, 0, 64, 72
2,169355, Control_c, 0, 64, 81
2,169374, Control_c, 0, 64, 90
2,169394, Control_c, 0, 64, 104
2,169413, Control_c, 0, 64, 127
2,169509, Control_c, 0, 64, 111
2,169521, Note_on_c, 0, 53, 62
2,169528, Control_c, 0, 64, 79
2,169537, Note_on_c, 0, 44, 59
2,169548, Control_c, 0, 64, 64
2,169566, Control_c, 0, 64, 11
2,169586, Control_c, 0, 64, 0
2,169624, Control_c, 0, 64, 18
2,169640, Control_c, 0, 64, 56
2,169660, Control_c, 0, 64, 64
2,169677, Note_on_c, 0, 53, 0
2,169679, Control_c, 0, 64, 68
2,169698, Control_c, 0, 64, 75
2,169717, Control_c, 0, 64, 84
2,169737, Control_c, 0, 64, 94
2,169754, Control_c, 0, 64, 108
2,169771, Control_c, 0, 64, 127
2,169870, Note_on_c, 0, 44, 0
2,169905, Control_c, 0, 64, 90
2,169913, Note_on_c, 0, 54, 68
2,169917, Note_on_c, 0, 46, 58
2,169924, Control_c, 0, 64, 69
2,169944, Control_c, 0, 64, 47
2,169963, Control_c, 0, 64, 0
2,170021, Control_c, 0, 64, 32
2,170040, Control_c, 0, 64, 61
2,170059, Control_c, 0, 64, 66
2,170078, Control_c, 0, 64, 71
2,170087, Note_on_c, 0, 54, 0
2,170098, Control_c, 0, 64, 78
2,170116, Control_c, 0, 64, 86
2,170140, Control_c, 0, 64, 96
2,170159, Control_c, 0, 64, 110
2,170178, Control_c, 0, 64, 127
2,170270, Note_on_c, 0, 46, 0
2,170274, Control_c, 0, 64, 97
2,170294, Control_c, 0, 64, 73
2,170296, Note_on_c, 0, 61, 0
2,170300, Note_on_c, 0, 44, 59
2,170300, Note_on_c, 0, 65, 75
2,170303, Note_on_c, 0, 56, 66
2,170312, Control_c, 0, 64, 49
2,170332, Control_c, 0, 64, 0
2,170344, Note_on_c, 0, 66, 0
2,170389, Control_c, 0, 64, 30
2,170408, Control_c, 0, 64, 59
2,170423, Note_on_c, 0, 56, 0
2,170428, Control_c, 0, 64, 66
2,170446, Control_c, 0, 64, 73
2,170466, Control_c, 0, 64, 83
2,170485, Control_c, 0, 64, 95
2,170505, Control_c, 0, 64, 121
2,170523, Control_c, 0, 64, 127
2,170639, Control_c, 0, 64, 115
2,170658, Control_c, 0, 64, 78
2,170677, Control_c, 0, 64, 61
2,170697, Control_c, 0, 64, 0
2,170700, Note_on_c, 0, 66, 75
2,170702, Note_on_c, 0, 65, 0
2,170707, Note_on_c, 0, 42, 63
2,170715, Note_on_c, 0, 58, 64
2,170752, Control_c, 0, 64, 44
2,170772, Control_c, 0, 64, 63
2,170773, Note_on_c, 0, 44, 0
2,170790, Control_c, 0, 64, 69
2,170797, Note_on_c, 0, 42, 0
2,170810, Control_c, 0, 64, 77
2,170829, Control_c, 0, 64, 91
2,170848, Control_c, 0, 64, 114
2,170867, Control_c, 0, 64, 127
2,171078, Control_c, 0, 64, 88
2,171095, Note_on_c, 0, 68, 78
2,171097, Control_c, 0, 64, 66
2,171104, Note_on_c, 0, 58, 0
2,171109, Note_on_c, 0, 56, 61
2,171114, Note_on_c, 0, 52, 53
2,171119, Control_c, 0, 64, 0
2,171164, Note_on_c, 0, 66, 0
2,171196, Control_c, 0, 64, 53
2,171214, Control_c, 0, 64, 64
2,171234, Control_c, 0, 64, 68
2,171242, Note_on_c, 0, 56, 0
2,171253, Control_c, 0, 64, 74
2,171273, Control_c, 0, 64, 86
2,171291, Control_c, 0, 64, 97
2,171311, Control_c, 0, 64, 108
2,171330, Control_c, 0, 64, 118
2,171349, Control_c, 0, 64, 127
2,171504, Note_on_c, 0, 54, 56
2,171513, Note_on_c, 0, 51, 46
2,171520, Note_on_c, 0, 70, 76
2,171522, Control_c, 0, 64, 94
2,171542, Control_c, 0, 64, 69
2,171557, Note_on_c, 0, 52, 0
2,171560, Control_c, 0, 64, 0
2,171569, Note_on_c, 0, 68, 0
2,171656, Control_c, 0, 64, 54
2,171676, Control_c, 0, 64, 63
2,171694, Control_c, 0, 64, 67
2,171714, Control_c, 0, 64, 69
2,171733, Control_c, 0, 64, 72
2,171753, Control_c, 0, 64, 75
2,171771, Control_c, 0, 64, 75
2,171791, Control_c, 0, 64, 75
2,171810, Control_c, 0, 64, 72
2,171829, Control_c, 0, 64, 66
2,171848, Control_c, 0, 64, 55
2,171868, Control_c, 0, 64, 0
2,171909, Note_on_c, 0, 68, 77
2,171982, Note_on_c, 0, 70, 0
2,172307, Note_on_c, 0, 54, 0
2,172308, Note_on_c, 0, 59, 61
2,172308, Note_on_c, 0, 66, 70
2,172323, Note_on_c, 0, 68, 0
2,172696, Note_on_c, 0, 58, 71
2,172713, Note_on_c, 0, 59, 0
2,173102, Note_on_c, 0, 56, 53
2,173118, Note_on_c, 0, 76, 76
2,173152, Note_on_c, 0, 58, 0
2,173500, Note_on_c, 0, 49, 55
2,173518, Note_on_c, 0, 51, 0
2,173902, Note_on_c, 0, 73, 63
2,173908, Note_on_c, 0, 47, 47
2,173919, Note_on_c, 0, 49, 0
2,174274, Note_on_c, 0, 47, 0
2,174282, Note_on_c, 0, 46, 54
2,174343, Note_on_c, 0, 66, 0
2,174694, Note_on_c, 0, 46, 0
2,174695, Note_on_c, 0, 47, 55
2,174696, Note_on_c, 0, 66, 63
2,174743, Note_on_c, 0, 73, 0
2,175095, Note_on_c, 0, 74, 66
2,175123, Note_on_c, 0, 76, 0
2,175431, Note_on_c, 0, 47, 0
2,175484, Note_on_c, 0, 75, 71
2,175497, Note_on_c, 0, 59, 51
2,175511, Note_on_c, 0, 56, 0
2,175547, Note_on_c, 0, 74, 0
2,175909, Note_on_c, 0, 58, 55
2,175950, Note_on_c, 0, 59, 0
2,176277, Note_on_c, 0, 71, 70
2,176293, Note_on_c, 0, 56, 48
2,176317, Note_on_c, 0, 58, 0
2,176323, Note_on_c, 0, 66, 0
2,176494, Control_c, 0, 64, 45
2,176514, Control_c, 0, 64, 59
2,176533, Control_c, 0, 64, 64
2,176553, Control_c, 0, 64, 67
2,176571, Control_c, 0, 64, 71
2,176591, Control_c, 0, 64, 77
2,176610, Control_c, 0, 64, 85
2,176629, Control_c, 0, 64, 93
2,176648, Control_c, 0, 64, 95
2,176654, Note_on_c, 0, 58, 43
2,176668, Control_c, 0, 64, 87
2,176669, Note_on_c, 0, 71, 0
2,176671, Note_on_c, 0, 78, 66
2,176683, Note_on_c, 0, 70, 56
2,176687, Control_c, 0, 64, 73
2,176689, Note_on_c, 0, 56, 0
2,176706, Control_c, 0, 64, 62
2,176713, Note_on_c, 0, 75, 0
2,176725, Control_c, 0, 64, 38
2,176745, Control_c, 0, 64, 0
2,176763, Control_c, 0, 64, 38
2,176783, Control_c, 0, 64, 59
2,176802, Control_c, 0, 64, 65
2,176822, Control_c, 0, 64, 70
2,176840, Control_c, 0, 64, 80
2,176859, Control_c, 0, 64, 96
2,176879, Control_c, 0, 64, 127
2,176927, Note_on_c, 0, 78, 0
2,177040, Note_on_c, 0, 58, 0
2,177043, Note_on_c, 0, 59, 47
2,177051, Control_c, 0, 64, 101
2,177061, Note_on_c, 0, 77, 59
2,177071, Control_c, 0, 64, 76
2,177077, Note_on_c, 0, 68, 50
2,177090, Control_c, 0, 64, 63
2,177107, Note_on_c, 0, 70, 0
2,177109, Control_c, 0, 64, 41
2,177128, Control_c, 0, 64, 30
2,177148, Control_c, 0, 64, 47
2,177167, Control_c, 0, 64, 60
2,177186, Control_c, 0, 64, 66
2,177205, Control_c, 0, 64, 70
2,177225, Control_c, 0, 64, 78
2,177243, Control_c, 0, 64, 90
2,177263, Control_c, 0, 64, 107
2,177280, Note_on_c, 0, 68, 0
2,177282, Control_c, 0, 64, 127
2,177397, Control_c, 0, 64, 86
2,177416, Control_c, 0, 64, 68
2,177436, Control_c, 0, 64, 53
2,177438, Note_on_c, 0, 56, 45
2,177442, Note_on_c, 0, 75, 63
2,177455, Control_c, 0, 64, 20
2,177459, Note_on_c, 0, 66, 49
2,177475, Control_c, 0, 64, 38
2,177476, Note_on_c, 0, 59, 0
2,177494, Control_c, 0, 64, 57
2,177496, Note_on_c, 0, 56, 0
2,177505, Note_on_c, 0, 77, 0
2,177513, Control_c, 0, 64, 64
2,177532, Control_c, 0, 64, 67
2,177552, Control_c, 0, 64, 73
2,177571, Control_c, 0, 64, 81
2,177589, Note_on_c, 0, 66, 0
2,177590, Control_c, 0, 64, 90
2,177609, Control_c, 0, 64, 100
2,177629, Control_c, 0, 64, 108
2,177648, Control_c, 0, 64, 116
2,177667, Control_c, 0, 64, 127
2,177721, Note_on_c, 0, 75, 0
2,177823, Control_c, 0, 64, 119
2,177835, Note_on_c, 0, 58, 48
2,177835, Note_on_c, 0, 74, 60
2,177842, Control_c, 0, 64, 86
2,177860, Control_c, 0, 64, 68
2,177861, Note_on_c, 0, 65, 50
2,177880, Control_c, 0, 64, 42
2,177899, Control_c, 0, 64, 0
2,177937, Control_c, 0, 64, 31
2,177957, Control_c, 0, 64, 57
2,177976, Control_c, 0, 64, 64
2,177995, Control_c, 0, 64, 68
2,178014, Control_c, 0, 64, 76
2,178034, Control_c, 0, 64, 87
2,178053, Control_c, 0, 64, 101
2,178072, Control_c, 0, 64, 127
2,178124, Note_on_c, 0, 65, 0
2,178168, Control_c, 0, 64, 93
2,178188, Control_c, 0, 64, 74
2,178206, Control_c, 0, 64, 63
2,178216, Note_on_c, 0, 77, 68
2,178226, Control_c, 0, 64, 55
2,178230, Note_on_c, 0, 63, 47
2,178245, Control_c, 0, 64, 58
2,178264, Control_c, 0, 64, 63
2,178266, Note_on_c, 0, 74, 0
2,178283, Control_c, 0, 64, 66
2,178303, Control_c, 0, 64, 71
2,178304, Note_on_c, 0, 77, 0
2,178322, Control_c, 0, 64, 79
2,178340, Control_c, 0, 64, 89
2,178360, Control_c, 0, 64, 99
2,178379, Control_c, 0, 64, 113
2,178398, Control_c, 0, 64, 127
2,178620, Note_on_c, 0, 62, 51
2,178624, Note_on_c, 0, 82, 79
2,178629, Control_c, 0, 64, 100
2,178648, Control_c, 0, 64, 75
2,178668, Control_c, 0, 64, 61
2,178679, Note_on_c, 0, 63, 0
2,178686, Control_c, 0, 64, 0
2,178744, Control_c, 0, 64, 44
2,178763, Control_c, 0, 64, 61
2,178784, Control_c, 0, 64, 65
2,178803, Control_c, 0, 64, 70
2,178821, Control_c, 0, 64, 76
2,178841, Control_c, 0, 64, 89
2,178860, Control_c, 0, 64, 103
2,178879, Control_c, 0, 64, 127
2,178975, Control_c, 0, 64, 99
2,178995, Control_c, 0, 64, 73
2,179011, Note_on_c, 0, 65, 54
2,179013, Control_c, 0, 64, 61
2,179016, Note_on_c, 0, 62, 0
2,179020, Note_on_c, 0, 56, 51
2,179033, Control_c, 0, 64, 38
2,179052, Control_c, 0, 64, 38
2,179072, Control_c, 0, 64, 52
2,179073, Note_on_c, 0, 58, 0
2,179090, Control_c, 0, 64, 61
2,179110, Control_c, 0, 64, 65
2,179122, Note_on_c, 0, 56, 0
2,179129, Control_c, 0, 64, 71
2,179149, Control_c, 0, 64, 81
2,179167, Control_c, 0, 64, 97
2,179179, Note_on_c, 0, 65, 0
2,179187, Control_c, 0, 64, 127
2,179376, Control_c, 0, 64, 117
2,179385, Note_on_c, 0, 54, 66
2,179385, Note_on_c, 0, 58, 63
2,179396, Control_c, 0, 64, 77
2,179415, Control_c, 0, 64, 62
2,179434, Control_c, 0, 64, 15
2,179453, Control_c, 0, 64, 0
2,179492, Control_c, 0, 64, 40
2,179511, Control_c, 0, 64, 60
2,179530, Control_c, 0, 64, 66
2,179538, Note_on_c, 0, 54, 0
2,179550, Control_c, 0, 64, 72
2,179568, Control_c, 0, 64, 81
2,179588, Control_c, 0, 64, 92
2,179607, Control_c, 0, 64, 108
2,179627, Control_c, 0, 64, 127
2,179772, Note_on_c, 0, 56, 51
2,179783, Note_on_c, 0, 68, 64
2,179783, Note_on_c, 0, 83, 81
2,179798, Control_c, 0, 64, 93
2,179808, Note_on_c, 0, 58, 0
2,179815, Note_on_c, 0, 82, 0
2,179817, Control_c, 0, 64, 68
2,179837, Control_c, 0, 64, 44
2,179855, Control_c, 0, 64, 0
2,179913, Control_c, 0, 64, 48
2,179932, Control_c, 0, 64, 62
2,179948, Note_on_c, 0, 68, 0
2,179952, Control_c, 0, 64, 67
2,179971, Control_c, 0, 64, 72
2,179990, Control_c, 0, 64, 79
2,180009, Control_c, 0, 64, 90
2,180029, Control_c, 0, 64, 105
2,180048, Control_c, 0, 64, 127
2,180163, Control_c, 0, 64, 112
2,180166, Note_on_c, 0, 66, 47
2,180171, Note_on_c, 0, 82, 77
2,180174, Note_on_c, 0, 58, 53
2,180183, Control_c, 0, 64, 81
2,180183, Note_on_c, 0, 56, 0
2,180201, Control_c, 0, 64, 65
2,180220, Control_c, 0, 64, 36
2,180240, Control_c, 0, 64, 0
2,180254, Note_on_c, 0, 83, 0
2,180258, Control_c, 0, 64, 19
2,180278, Control_c, 0, 64, 51
2,180297, Control_c, 0, 64, 62
2,180317, Control_c, 0, 64, 67
2,180335, Control_c, 0, 64, 72
2,180355, Control_c, 0, 64, 84
2,180374, Control_c, 0, 64, 101
2,180379, Note_on_c, 0, 66, 0
2,180393, Control_c, 0, 64, 127
2,180528, Control_c, 0, 64, 87
2,180547, Control_c, 0, 64, 70
2,180550, Note_on_c, 0, 65, 55
2,180554, Note_on_c, 0, 80, 72
2,180566, Control_c, 0, 64, 60
2,180586, Control_c, 0, 64, 50
2,180604, Control_c, 0, 64, 54
2,180619, Note_on_c, 0, 65, 0
2,180624, Control_c, 0, 64, 61
2,180624, Note_on_c, 0, 82, 0
2,180643, Control_c, 0, 64, 64
2,180655, Note_on_c, 0, 58, 0
2,180663, Control_c, 0, 64, 67
2,180681, Control_c, 0, 64, 70
2,180703, Control_c, 0, 64, 75
2,180722, Control_c, 0, 64, 81
2,180740, Control_c, 0, 64, 89
2,180760, Control_c, 0, 64, 96
2,180779, Control_c, 0, 64, 100
2,180798, Control_c, 0, 64, 101
2,180817, Control_c, 0, 64, 101
2,180837, Control_c, 0, 64, 102
2,180856, Control_c, 0, 64, 103
2,180875, Control_c, 0, 64, 103
2,180914, Control_c, 0, 64, 102
2,180933, Control_c, 0, 64, 99
2,180936, Note_on_c, 0, 51, 49
2,180938, Note_on_c, 0, 63, 54
2,180952, Control_c, 0, 64, 94
2,180961, Note_on_c, 0, 78, 76
2,180971, Control_c, 0, 64, 86
2,180991, Control_c, 0, 64, 76
2,181009, Control_c, 0, 64, 65
2,181024, Note_on_c, 0, 80, 0
2,181029, Control_c, 0, 64, 41
2,181048, Control_c, 0, 64, 0
2,181333, Note_on_c, 0, 53, 55
2,181346, Note_on_c, 0, 80, 80
2,181354, Note_on_c, 0, 51, 0
2,181401, Note_on_c, 0, 78, 0
2,181707, Note_on_c, 0, 55, 45
2,181764, Note_on_c, 0, 82, 77
2,181773, Note_on_c, 0, 53, 0
2,181778, Note_on_c, 0, 75, 69
2,181805, Note_on_c, 0, 80, 0
2,181891, Control_c, 0, 64, 9
2,181910, Control_c, 0, 64, 48
2,181929, Control_c, 0, 64, 58
2,181949, Control_c, 0, 64, 61
2,181968, Control_c, 0, 64, 63
2,181987, Control_c, 0, 64, 65
2,182006, Control_c, 0, 64, 69
2,182026, Control_c, 0, 64, 74
2,182044, Control_c, 0, 64, 81
2,182064, Control_c, 0, 64, 90
2,182083, Control_c, 0, 64, 100
2,182103, Control_c, 0, 64, 114
2,182121, Control_c, 0, 64, 127
2,182124, Note_on_c, 0, 73, 67
2,182153, Note_on_c, 0, 75, 0
2,182451, Note_on_c, 0, 82, 0
2,182504, Note_on_c, 0, 56, 51
2,182506, Note_on_c, 0, 55, 0
2,182535, Note_on_c, 0, 75, 75
2,182536, Note_on_c, 0, 73, 0
2,182544, Control_c, 0, 64, 104
2,182560, Note_on_c, 0, 71, 55
2,182563, Control_c, 0, 64, 74
2,182582, Control_c, 0, 64, 60
2,182601, Control_c, 0, 64, 0
2,182680, Control_c, 0, 64, 50
2,182699, Control_c, 0, 64, 63
2,182718, Control_c, 0, 64, 66
2,182737, Control_c, 0, 64, 69
2,182757, Control_c, 0, 64, 72
2,182776, Control_c, 0, 64, 76
2,182795, Control_c, 0, 64, 78
2,182799, Note_on_c, 0, 63, 0
2,182814, Control_c, 0, 64, 80
2,182834, Control_c, 0, 64, 80
2,182853, Control_c, 0, 64, 79
2,182872, Control_c, 0, 64, 77
2,182891, Control_c, 0, 64, 73
2,182892, Note_on_c, 0, 71, 0
2,182904, Note_on_c, 0, 54, 57
2,182910, Note_on_c, 0, 70, 67
2,182911, Control_c, 0, 64, 67
2,182929, Control_c, 0, 64, 59
2,182949, Control_c, 0, 64, 31
2,182955, Note_on_c, 0, 56, 0
2,182968, Control_c, 0, 64, 0
2,183274, Note_on_c, 0, 70, 0
2,183284, Note_on_c, 0, 53, 47
2,183291, Note_on_c, 0, 54, 0
2,183309, Note_on_c, 0, 80, 81
2,183318, Note_on_c, 0, 68, 56
2,183353, Note_on_c, 0, 75, 0
2,183673, Note_on_c, 0, 71, 55
2,183678, Note_on_c, 0, 51, 51
2,183704, Note_on_c, 0, 68, 0
2,183726, Note_on_c, 0, 53, 0
2,184054, Note_on_c, 0, 50, 52
2,184074, Note_on_c, 0, 71, 0
2,184078, Note_on_c, 0, 70, 67
2,184098, Note_on_c, 0, 51, 0
2,184431, Note_on_c, 0, 51, 50
2,184458, Note_on_c, 0, 78, 77
2,184469, Note_on_c, 0, 75, 64
2,184479, Note_on_c, 0, 50, 0
2,184494, Note_on_c, 0, 70, 0
2,184601, Note_on_c, 0, 80, 0
2,184814, Note_on_c, 0, 46, 47
2,184862, Note_on_c, 0, 51, 0
2,184906, Note_on_c, 0, 77, 73
2,184954, Note_on_c, 0, 75, 0
2,184974, Note_on_c, 0, 78, 0
2,185266, Note_on_c, 0, 46, 0
2,185273, Note_on_c, 0, 58, 48
2,185281, Note_on_c, 0, 73, 73
2,185701, Note_on_c, 0, 58, 0
2,185704, Note_on_c, 0, 75, 74
2,185705, Note_on_c, 0, 59, 45
2,185822, Note_on_c, 0, 77, 0
2,185949, Note_on_c, 0, 73, 0
2,186074, Note_on_c, 0, 71, 57
2,186087, Note_on_c, 0, 51, 43
2,186153, Note_on_c, 0, 59, 0
2,186465, Note_on_c, 0, 53, 46
2,186469, Note_on_c, 0, 73, 68
2,186508, Note_on_c, 0, 51, 0
2,186557, Note_on_c, 0, 75, 0
2,186577, Note_on_c, 0, 71, 0
2,186834, Note_on_c, 0, 70, 60
2,186837, Note_on_c, 0, 55, 42
2,186853, Note_on_c, 0, 53, 0
2,187239, Note_on_c, 0, 55, 0
2,187239, Note_on_c, 0, 71, 64
2,187261, Note_on_c, 0, 56, 44
2,187287, Note_on_c, 0, 73, 0
2,187314, Note_on_c, 0, 70, 0
2,187622, Note_on_c, 0, 53, 42
2,187626, Note_on_c, 0, 68, 52
2,187681, Note_on_c, 0, 56, 0
2,188005, Note_on_c, 0, 50, 41
2,188007, Note_on_c, 0, 70, 61
2,188018, Note_on_c, 0, 53, 0
2,188056, Note_on_c, 0, 71, 0
2,188079, Note_on_c, 0, 68, 0
2,188377, Note_on_c, 0, 50, 0
2,188380, Note_on_c, 0, 66, 48
2,188381, Note_on_c, 0, 51, 41
2,188768, Note_on_c, 0, 68, 54
2,188770, Note_on_c, 0, 51, 0
2,188779, Note_on_c, 0, 48, 34
2,188830, Note_on_c, 0, 66, 0
2,188860, Note_on_c, 0, 70, 0
2,189148, Note_on_c, 0, 50, 36
2,189177, Note_on_c, 0, 65, 40
2,189178, Note_on_c, 0, 48, 0
2,189534, Note_on_c, 0, 50, 0
2,189552, Note_on_c, 0, 68, 0
2,189559, Note_on_c, 0, 51, 36
2,189559, Note_on_c, 0, 66, 44
2,189682, Note_on_c, 0, 65, 0
2,189860, Control_c, 0, 64, 38
2,189879, Control_c, 0, 64, 54
2,189898, Control_c, 0, 64, 60
2,189918, Control_c, 0, 64, 62
2,189936, Control_c, 0, 64, 64
2,189939, Note_on_c, 0, 51, 0
2,189946, Note_on_c, 0, 39, 37
2,189956, Control_c, 0, 64, 64
2,189962, Note_on_c, 0, 63, 41
2,189975, Control_c, 0, 64, 63
2,189994, Control_c, 0, 64, 58
2,190012, Note_on_c, 0, 66, 0
2,190013, Control_c, 0, 64, 44
2,190032, Control_c, 0, 64, 0
2,190071, Control_c, 0, 64, 23
2,190090, Control_c, 0, 64, 56
2,190109, Control_c, 0, 64, 65
2,190129, Control_c, 0, 64, 74
2,190147, Control_c, 0, 64, 91
2,190167, Control_c, 0, 64, 127
2,190321, Control_c, 0, 64, 99
2,190340, Control_c, 0, 64, 72
2,190357, Note_on_c, 0, 46, 39
2,190359, Control_c, 0, 64, 52
2,190362, Note_on_c, 0, 63, 0
2,190369, Note_on_c, 0, 65, 38
2,190378, Control_c, 0, 64, 0
2,190410, Note_on_c, 0, 39, 0
2,190418, Note_on_c, 0, 62, 11
2,190436, Control_c, 0, 64, 26
2,190455, Control_c, 0, 64, 56
2,190474, Control_c, 0, 64, 64
2,190477, Note_on_c, 0, 62, 0
2,190493, Control_c, 0, 64, 67
2,190512, Control_c, 0, 64, 72
2,190532, Control_c, 0, 64, 81
2,190536, Note_on_c, 0, 65, 0
2,190551, Control_c, 0, 64, 92
2,190570, Control_c, 0, 64, 109
2,190589, Control_c, 0, 64, 127
2,190769, Note_on_c, 0, 65, 49
2,190849, Note_on_c, 0, 46, 0
2,191178, Note_on_c, 0, 70, 59
2,191282, Control_c, 0, 64, 91
2,191301, Control_c, 0, 64, 72
2,191320, Control_c, 0, 64, 57
2,191339, Control_c, 0, 64, 0
2,191587, Note_on_c, 0, 72, 41
2,191957, Note_on_c, 0, 58, 40
2,191989, Note_on_c, 0, 74, 46
2,192010, Note_on_c, 0, 65, 0
2,192047, Control_c, 0, 64, 42
2,192066, Control_c, 0, 64, 59
2,192085, Control_c, 0, 64, 64
2,192105, Control_c, 0, 64, 66
2,192123, Control_c, 0, 64, 69
2,192142, Control_c, 0, 64, 73
2,192162, Control_c, 0, 64, 79
2,192181, Control_c, 0, 64, 86
2,192200, Control_c, 0, 64, 93
2,192219, Control_c, 0, 64, 98
2,192239, Control_c, 0, 64, 103
2,192258, Control_c, 0, 64, 108
2,192277, Control_c, 0, 64, 115
2,192296, Control_c, 0, 64, 127
2,192350, Note_on_c, 0, 74, 0
2,192355, Note_on_c, 0, 75, 60
2,192374, Note_on_c, 0, 71, 48
2,192375, Note_on_c, 0, 72, 0
2,192380, Note_on_c, 0, 70, 0
2,192393, Control_c, 0, 64, 119
2,192411, Control_c, 0, 64, 92
2,192431, Control_c, 0, 64, 76
2,192450, Control_c, 0, 64, 65
2,192469, Control_c, 0, 64, 53
2,192488, Control_c, 0, 64, 46
2,192508, Control_c, 0, 64, 51
2,192527, Control_c, 0, 64, 59
2,192546, Control_c, 0, 64, 63
2,192565, Control_c, 0, 64, 65
2,192584, Control_c, 0, 64, 67
2,192603, Control_c, 0, 64, 70
2,192622, Control_c, 0, 64, 74
2,192642, Control_c, 0, 64, 79
2,192661, Control_c, 0, 64, 84
2,192680, Control_c, 0, 64, 89
2,192699, Control_c, 0, 64, 93
2,192719, Control_c, 0, 64, 95
2,192738, Control_c, 0, 64, 95
2,192757, Control_c, 0, 64, 91
2,192758, Note_on_c, 0, 70, 57
2,192759, Note_on_c, 0, 77, 58
2,192764, Note_on_c, 0, 71, 0
2,192776, Control_c, 0, 64, 81
2,192782, Note_on_c, 0, 75, 0
2,192796, Control_c, 0, 64, 70
2,192813, Control_c, 0, 64, 60
2,192833, Control_c, 0, 64, 38
2,192852, Control_c, 0, 64, 0
2,192890, Control_c, 0, 64, 33
2,192910, Control_c, 0, 64, 53
2,192929, Control_c, 0, 64, 61
2,192949, Control_c, 0, 64, 64
2,192967, Control_c, 0, 64, 66
2,192987, Control_c, 0, 64, 70
2,193006, Control_c, 0, 64, 75
2,193024, Control_c, 0, 64, 81
2,193044, Control_c, 0, 64, 88
2,193063, Control_c, 0, 64, 95
2,193083, Control_c, 0, 64, 101
2,193101, Control_c, 0, 64, 103
2,193131, Note_on_c, 0, 70, 0
2,193140, Control_c, 0, 64, 101
2,193141, Note_on_c, 0, 68, 61
2,193159, Control_c, 0, 64, 89
2,193178, Control_c, 0, 64, 76
2,193198, Control_c, 0, 64, 66
2,193217, Control_c, 0, 64, 61
2,193236, Control_c, 0, 64, 62
2,193255, Control_c, 0, 64, 64
2,193275, Control_c, 0, 64, 66
2,193293, Control_c, 0, 64, 70
2,193313, Control_c, 0, 64, 76
2,193332, Control_c, 0, 64, 83
2,193352, Control_c, 0, 64, 91
2,193370, Control_c, 0, 64, 100
2,193390, Control_c, 0, 64, 110
2,193409, Control_c, 0, 64, 118
2,193429, Control_c, 0, 64, 119
2,193467, Control_c, 0, 64, 118
2,193486, Control_c, 0, 64, 111
2,193504, Control_c, 0, 64, 96
2,193524, Control_c, 0, 64, 79
2,193543, Control_c, 0, 64, 65
2,193559, Note_on_c, 0, 63, 39
2,193559, Note_on_c, 0, 66, 54
2,193561, Note_on_c, 0, 68, 0
2,193563, Control_c, 0, 64, 39
2,193581, Control_c, 0, 64, 0
2,193596, Note_on_c, 0, 58, 0
2,193658, Control_c, 0, 64, 44
2,193678, Control_c, 0, 64, 59
2,193697, Control_c, 0, 64, 64
2,193716, Control_c, 0, 64, 66
2,193735, Control_c, 0, 64, 69
2,193755, Control_c, 0, 64, 73
2,193772, Control_c, 0, 64, 79
2,193791, Control_c, 0, 64, 90
2,193810, Control_c, 0, 64, 103
2,193830, Control_c, 0, 64, 127
2,193868, Control_c, 0, 64, 108
2,193887, Control_c, 0, 64, 85
2,193889, Note_on_c, 0, 77, 0
2,193907, Control_c, 0, 64, 70
2,193922, Note_on_c, 0, 68, 60
2,193925, Control_c, 0, 64, 59
2,193927, Note_on_c, 0, 66, 0
2,193930, Note_on_c, 0, 75, 50
2,193944, Control_c, 0, 64, 45
2,193964, Control_c, 0, 64, 48
2,193983, Control_c, 0, 64, 59
2,194002, Control_c, 0, 64, 64
2,194021, Control_c, 0, 64, 67
2,194041, Control_c, 0, 64, 70
2,194059, Control_c, 0, 64, 76
2,194079, Control_c, 0, 64, 82
2,194098, Control_c, 0, 64, 88
2,194118, Control_c, 0, 64, 94
2,194139, Control_c, 0, 64, 101
2,194159, Control_c, 0, 64, 110
2,194178, Control_c, 0, 64, 127
2,194186, Note_on_c, 0, 68, 0
2,194254, Control_c, 0, 64, 100
2,194274, Control_c, 0, 64, 80
2,194293, Control_c, 0, 64, 66
2,194297, Note_on_c, 0, 73, 55
2,194308, Note_on_c, 0, 70, 53
2,194313, Control_c, 0, 64, 52
2,194331, Control_c, 0, 64, 23
2,194351, Control_c, 0, 64, 25
2,194363, Note_on_c, 0, 75, 0
2,194370, Control_c, 0, 64, 46
2,194389, Control_c, 0, 64, 61
2,194408, Control_c, 0, 64, 65
2,194428, Control_c, 0, 64, 68
2,194447, Control_c, 0, 64, 72
2,194466, Control_c, 0, 64, 79
2,194467, Note_on_c, 0, 73, 0
2,194484, Note_on_c, 0, 71, 58
2,194485, Control_c, 0, 64, 86
2,194504, Control_c, 0, 64, 91
2,194508, Note_on_c, 0, 63, 0
2,194523, Control_c, 0, 64, 95
2,194542, Control_c, 0, 64, 96
2,194562, Control_c, 0, 64, 97
2,194600, Control_c, 0, 64, 97
2,194619, Control_c, 0, 64, 98
2,194639, Control_c, 0, 64, 100
2,194658, Control_c, 0, 64, 102
2,194675, Note_on_c, 0, 73, 58
2,194677, Control_c, 0, 64, 103
2,194693, Note_on_c, 0, 71, 0
2,194752, Control_c, 0, 64, 102
2,194791, Note_on_c, 0, 73, 0
2,194823, Note_on_c, 0, 79, 70
2,194887, Note_on_c, 0, 79, 0
2,194943, Control_c, 0, 64, 101
2,194963, Control_c, 0, 64, 100
2,194982, Control_c, 0, 64, 99
2,195002, Control_c, 0, 64, 97
2,195020, Control_c, 0, 64, 90
2,195034, Note_on_c, 0, 63, 48
2,195037, Note_on_c, 0, 80, 63
2,195040, Control_c, 0, 64, 78
2,195059, Control_c, 0, 64, 66
2,195079, Control_c, 0, 64, 40
2,195100, Control_c, 0, 64, 0
2,195228, Note_on_c, 0, 82, 67
2,195273, Note_on_c, 0, 80, 0
2,195436, Note_on_c, 0, 82, 0
2,195439, Note_on_c, 0, 83, 60
2,195799, Note_on_c, 0, 68, 60
2,195801, Note_on_c, 0, 64, 56
2,195813, Note_on_c, 0, 63, 0
2,196169, Note_on_c, 0, 83, 0
2,196172, Note_on_c, 0, 82, 68
2,196338, Note_on_c, 0, 80, 69
2,196365, Note_on_c, 0, 82, 0
2,196588, Note_on_c, 0, 82, 66
2,196606, Note_on_c, 0, 63, 43
2,196608, Note_on_c, 0, 80, 0
2,196618, Note_on_c, 0, 64, 0
2,196651, Note_on_c, 0, 68, 0
2,196997, Note_on_c, 0, 75, 58
2,197012, Note_on_c, 0, 67, 37
2,197352, Note_on_c, 0, 63, 0
2,197360, Note_on_c, 0, 61, 45
2,197365, Note_on_c, 0, 65, 33
2,197374, Note_on_c, 0, 77, 61
2,197400, Note_on_c, 0, 70, 0
2,197411, Note_on_c, 0, 82, 0
2,197433, Note_on_c, 0, 75, 0
2,197462, Control_c, 0, 64, 46
2,197472, Note_on_c, 0, 67, 0
2,197481, Control_c, 0, 64, 59
2,197500, Control_c, 0, 64, 63
2,197520, Control_c, 0, 64, 65
2,197538, Control_c, 0, 64, 67
2,197558, Control_c, 0, 64, 72
2,197577, Control_c, 0, 64, 78
2,197597, Control_c, 0, 64, 85
2,197615, Control_c, 0, 64, 92
2,197635, Control_c, 0, 64, 102
2,197654, Control_c, 0, 64, 116
2,197674, Control_c, 0, 64, 127
2,197738, Note_on_c, 0, 64, 52
2,197749, Note_on_c, 0, 79, 69
2,197779, Note_on_c, 0, 64, 0
2,197790, Note_on_c, 0, 65, 0
2,197810, Note_on_c, 0, 77, 0
2,198103, Note_on_c, 0, 61, 0
2,198132, Note_on_c, 0, 80, 65
2,198134, Control_c, 0, 64, 100
2,198138, Note_on_c, 0, 59, 51
2,198148, Note_on_c, 0, 63, 43
2,198154, Control_c, 0, 64, 74
2,198163, Note_on_c, 0, 79, 0
2,198172, Control_c, 0, 64, 57
2,198192, Control_c, 0, 64, 0
2,198269, Control_c, 0, 64, 20
2,198288, Control_c, 0, 64, 54
2,198307, Control_c, 0, 64, 63
2,198326, Control_c, 0, 64, 66
2,198345, Control_c, 0, 64, 70
2,198364, Control_c, 0, 64, 76
2,198383, Control_c, 0, 64, 86
2,198403, Control_c, 0, 64, 97
2,198422, Control_c, 0, 64, 114
2,198441, Control_c, 0, 64, 127
2,198498, Control_c, 0, 64, 99
2,198500, Note_on_c, 0, 71, 59
2,198518, Control_c, 0, 64, 77
2,198537, Control_c, 0, 64, 65
2,198557, Control_c, 0, 64, 52
2,198574, Control_c, 0, 64, 50
2,198594, Control_c, 0, 64, 57
2,198613, Control_c, 0, 64, 63
2,198633, Control_c, 0, 64, 66
2,198651, Control_c, 0, 64, 72
2,198671, Control_c, 0, 64, 82
2,198690, Control_c, 0, 64, 94
2,198709, Control_c, 0, 64, 112
2,198728, Control_c, 0, 64, 127
2,198901, Control_c, 0, 64, 89
2,198904, Note_on_c, 0, 70, 59
2,198907, Note_on_c, 0, 71, 0
2,198909, Note_on_c, 0, 61, 49
2,198920, Control_c, 0, 64, 70
2,198924, Note_on_c, 0, 59, 0
2,198941, Control_c, 0, 64, 54
2,198945, Note_on_c, 0, 63, 0
2,198961, Control_c, 0, 64, 0
2,199018, Control_c, 0, 64, 47
2,199038, Control_c, 0, 64, 60
2,199056, Control_c, 0, 64, 64
2,199076, Control_c, 0, 64, 66
2,199095, Control_c, 0, 64, 67
2,199114, Control_c, 0, 64, 70
2,199133, Control_c, 0, 64, 73
2,199153, Control_c, 0, 64, 77
2,199172, Control_c, 0, 64, 82
2,199191, Control_c, 0, 64, 87
2,199210, Control_c, 0, 64, 91
2,199230, Control_c, 0, 64, 92
2,199243, Note_on_c, 0, 70, 0
2,199248, Control_c, 0, 64, 90
2,199268, Control_c, 0, 64, 83
2,199275, Note_on_c, 0, 68, 62
2,199287, Control_c, 0, 64, 73
2,199307, Control_c, 0, 64, 65
2,199325, Control_c, 0, 64, 59
2,199344, Control_c, 0, 64, 58
2,199364, Control_c, 0, 64, 61
2,199383, Control_c, 0, 64, 63
2,199402, Control_c, 0, 64, 66
2,199421, Control_c, 0, 64, 68
2,199441, Control_c, 0, 64, 71
2,199459, Control_c, 0, 64, 75
2,199479, Control_c, 0, 64, 81
2,199498, Control_c, 0, 64, 86
2,199518, Control_c, 0, 64, 90
2,199536, Control_c, 0, 64, 93
2,199556, Control_c, 0, 64, 94
2,199575, Control_c, 0, 64, 96
2,199594, Control_c, 0, 64, 96
2,199652, Control_c, 0, 64, 92
2,199671, Control_c, 0, 64, 82
2,199690, Control_c, 0, 64, 68
2,199694, Note_on_c, 0, 82, 71
2,199702, Note_on_c, 0, 63, 47
2,199710, Control_c, 0, 64, 54
2,199712, Note_on_c, 0, 68, 0
2,199714, Note_on_c, 0, 80, 0
2,199716, Note_on_c, 0, 67, 37
2,199728, Control_c, 0, 64, 0
2,199737, Note_on_c, 0, 61, 0
2,199805, Control_c, 0, 64, 50
2,199824, Control_c, 0, 64, 62
2,199844, Control_c, 0, 64, 66
2,199863, Control_c, 0, 64, 70
2,199867, Note_on_c, 0, 67, 0
2,199882, Control_c, 0, 64, 76
2,199894, Note_on_c, 0, 63, 0
2,199901, Control_c, 0, 64, 84
2,199921, Control_c, 0, 64, 91
2,199939, Control_c, 0, 64, 96
2,199959, Control_c, 0, 64, 101
2,199978, Control_c, 0, 64, 105
2,199998, Control_c, 0, 64, 109
2,199999, Note_on_c, 0, 82, 0
2,200016, Control_c, 0, 64, 113
2,200036, Control_c, 0, 64, 118
2,200055, Control_c, 0, 64, 121
2,200064, Note_on_c, 0, 63, 55
2,200074, Control_c, 0, 64, 123
2,200093, Control_c, 0, 64, 127
2,200242, Note_on_c, 0, 65, 57
2,200458, Control_c, 0, 64, 117
2,200469, Note_on_c, 0, 75, 59
2,200473, Note_on_c, 0, 65, 0
2,200478, Control_c, 0, 64, 98
2,200492, Note_on_c, 0, 67, 46
2,200497, Control_c, 0, 64, 79
2,200517, Control_c, 0, 64, 65
2,200536, Control_c, 0, 64, 19
2,200555, Control_c, 0, 64, 0
2,200851, Note_on_c, 0, 68, 53
2,200995, Note_on_c, 0, 68, 0
2,201015, Note_on_c, 0, 70, 60
2,201205, Note_on_c, 0, 67, 0
2,201243, Note_on_c, 0, 56, 49
2,201250, Note_on_c, 0, 71, 43
2,201255, Note_on_c, 0, 70, 0
2,201284, Note_on_c, 0, 63, 0
2,201400, Control_c, 0, 64, 43
2,201419, Control_c, 0, 64, 61
2,201439, Control_c, 0, 64, 64
2,201454, Control_c, 0, 64, 66
2,201474, Control_c, 0, 64, 68
2,201487, Note_on_c, 0, 71, 0
2,201493, Control_c, 0, 64, 71
2,201513, Control_c, 0, 64, 76
2,201531, Control_c, 0, 64, 84
2,201551, Control_c, 0, 64, 95
2,201570, Control_c, 0, 64, 107
2,201589, Control_c, 0, 64, 127
2,201649, Note_on_c, 0, 71, 53
2,202020, Note_on_c, 0, 73, 64
2,202065, Note_on_c, 0, 75, 0
2,202088, Control_c, 0, 64, 102
2,202108, Control_c, 0, 64, 81
2,202127, Control_c, 0, 64, 66
2,202145, Control_c, 0, 64, 46
2,202165, Control_c, 0, 64, 0
2,202373, Note_on_c, 0, 71, 0
2,202383, Note_on_c, 0, 75, 69
2,202391, Note_on_c, 0, 70, 61
2,202451, Note_on_c, 0, 73, 0
2,202777, Note_on_c, 0, 61, 36
2,202783, Note_on_c, 0, 75, 0
2,202794, Note_on_c, 0, 68, 46
2,202795, Note_on_c, 0, 76, 51
2,202803, Note_on_c, 0, 70, 0
2,202851, Note_on_c, 0, 56, 0
2,202912, Control_c, 0, 64, 42
2,202931, Control_c, 0, 64, 58
2,202951, Control_c, 0, 64, 63
2,202969, Control_c, 0, 64, 64
2,202974, Note_on_c, 0, 68, 0
2,202989, Control_c, 0, 64, 66
2,203008, Control_c, 0, 64, 68
2,203028, Control_c, 0, 64, 71
2,203046, Control_c, 0, 64, 75
2,203065, Control_c, 0, 64, 81
2,203085, Control_c, 0, 64, 85
2,203103, Control_c, 0, 64, 88
2,203123, Control_c, 0, 64, 89
2,203162, Control_c, 0, 64, 89
2,203165, Note_on_c, 0, 75, 68
2,203177, Note_on_c, 0, 76, 0
2,203180, Control_c, 0, 64, 90
2,203194, Note_on_c, 0, 67, 44
2,203200, Control_c, 0, 64, 91
2,203239, Control_c, 0, 64, 87
2,203257, Control_c, 0, 64, 81
2,203277, Control_c, 0, 64, 72
2,203296, Control_c, 0, 64, 65
2,203315, Control_c, 0, 64, 57
2,203334, Control_c, 0, 64, 50
2,203354, Control_c, 0, 64, 56
2,203373, Control_c, 0, 64, 62
2,203392, Control_c, 0, 64, 65
2,203411, Control_c, 0, 64, 69
2,203431, Control_c, 0, 64, 76
2,203449, Control_c, 0, 64, 84
2,203469, Control_c, 0, 64, 94
2,203488, Control_c, 0, 64, 100
2,203508, Control_c, 0, 64, 101
2,203526, Control_c, 0, 64, 94
2,203541, Note_on_c, 0, 73, 71
2,203544, Note_on_c, 0, 67, 0
2,203545, Control_c, 0, 64, 80
2,203565, Control_c, 0, 64, 67
2,203567, Note_on_c, 0, 68, 51
2,203583, Control_c, 0, 64, 55
2,203603, Control_c, 0, 64, 15
2,203606, Note_on_c, 0, 75, 0
2,203622, Control_c, 0, 64, 0
2,203642, Control_c, 0, 64, 37
2,203660, Control_c, 0, 64, 55
2,203680, Control_c, 0, 64, 63
2,203699, Control_c, 0, 64, 66
2,203719, Control_c, 0, 64, 69
2,203741, Control_c, 0, 64, 74
2,203761, Control_c, 0, 64, 80
2,203779, Control_c, 0, 64, 86
2,203799, Control_c, 0, 64, 91
2,203818, Control_c, 0, 64, 95
2,203838, Control_c, 0, 64, 96
2,203856, Control_c, 0, 64, 96
2,203876, Control_c, 0, 64, 89
2,203895, Control_c, 0, 64, 78
2,203914, Control_c, 0, 64, 69
2,203933, Control_c, 0, 64, 65
2,203934, Note_on_c, 0, 70, 63
2,203953, Control_c, 0, 64, 65
2,203961, Note_on_c, 0, 68, 0
2,203972, Control_c, 0, 64, 67
2,203985, Note_on_c, 0, 70, 0
2,203989, Note_on_c, 0, 73, 0
2,203991, Control_c, 0, 64, 70
2,204010, Control_c, 0, 64, 75
2,204030, Control_c, 0, 64, 84
2,204048, Control_c, 0, 64, 91
2,204068, Control_c, 0, 64, 99
2,204087, Control_c, 0, 64, 107
2,204106, Control_c, 0, 64, 121
2,204125, Control_c, 0, 64, 127
2,204326, Note_on_c, 0, 80, 72
2,204333, Note_on_c, 0, 63, 47
2,204336, Control_c, 0, 64, 121
2,204356, Control_c, 0, 64, 84
2,204375, Control_c, 0, 64, 67
2,204394, Control_c, 0, 64, 48
2,204413, Control_c, 0, 64, 0
2,204471, Control_c, 0, 64, 51
2,204490, Control_c, 0, 64, 62
2,204510, Control_c, 0, 64, 66
2,204528, Control_c, 0, 64, 70
2,204548, Control_c, 0, 64, 76
2,204567, Control_c, 0, 64, 87
2,204580, Note_on_c, 0, 80, 0
2,204586, Control_c, 0, 64, 96
2,204605, Control_c, 0, 64, 107
2,204624, Control_c, 0, 64, 127
2,204716, Note_on_c, 0, 65, 52
2,205091, Note_on_c, 0, 59, 56
2,205091, Note_on_c, 0, 75, 62
2,205098, Note_on_c, 0, 67, 50
2,205124, Control_c, 0, 64, 107
2,205130, Note_on_c, 0, 65, 0
2,205143, Control_c, 0, 64, 79
2,205143, Note_on_c, 0, 61, 0
2,205162, Control_c, 0, 64, 64
2,205168, Note_on_c, 0, 63, 0
2,205181, Control_c, 0, 64, 0
2,205478, Note_on_c, 0, 68, 59
2,205494, Note_on_c, 0, 67, 0
2,205849, Note_on_c, 0, 58, 52
2,205849, Note_on_c, 0, 70, 64
2,205878, Note_on_c, 0, 68, 0
2,205899, Note_on_c, 0, 59, 0
2,205946, Note_on_c, 0, 75, 0
2,205967, Note_on_c, 0, 70, 0
2,205999, Note_on_c, 0, 71, 62
2,206223, Note_on_c, 0, 77, 68
2,206229, Note_on_c, 0, 71, 0
2,206250, Note_on_c, 0, 73, 49
2,206607, Note_on_c, 0, 79, 75
2,206621, Note_on_c, 0, 77, 0
2,206809, Control_c, 0, 64, 53
2,206829, Control_c, 0, 64, 62
2,206848, Control_c, 0, 64, 64
2,206868, Control_c, 0, 64, 67
2,206886, Control_c, 0, 64, 71
2,206903, Note_on_c, 0, 79, 0
2,206905, Control_c, 0, 64, 79
2,206917, Note_on_c, 0, 73, 0
2,206925, Control_c, 0, 64, 89
2,206943, Control_c, 0, 64, 102
2,206963, Control_c, 0, 64, 127
2,206970, Note_on_c, 0, 71, 43
2,207129, Note_on_c, 0, 71, 0
2,207140, Note_on_c, 0, 70, 40
2,207180, Note_on_c, 0, 70, 0
2,207439, Note_on_c, 0, 80, 53
2,207450, Note_on_c, 0, 56, 35
2,207469, Note_on_c, 0, 71, 27
2,207482, Control_c, 0, 64, 88
2,207500, Control_c, 0, 64, 70
2,207515, Note_on_c, 0, 58, 0
2,207520, Control_c, 0, 64, 51
2,207539, Control_c, 0, 64, 0
2,207674, Control_c, 0, 64, 34
2,207693, Control_c, 0, 64, 55
2,207712, Control_c, 0, 64, 61
2,207731, Control_c, 0, 64, 63
2,207789, Control_c, 0, 64, 63
2,207808, Control_c, 0, 64, 61
2,207828, Control_c, 0, 64, 56
2,207832, Note_on_c, 0, 82, 51
2,207844, Note_on_c, 0, 80, 0
2,207846, Control_c, 0, 64, 41
2,207865, Control_c, 0, 64, 0
2,208235, Note_on_c, 0, 80, 48
2,208243, Note_on_c, 0, 61, 33
2,208269, Note_on_c, 0, 82, 0
2,208356, Note_on_c, 0, 56, 0
2,208463, Note_on_c, 0, 71, 0
2,208619, Note_on_c, 0, 78, 51
2,208638, Note_on_c, 0, 80, 0
2,209001, Note_on_c, 0, 77, 50
2,209004, Note_on_c, 0, 78, 0
2,209019, Note_on_c, 0, 68, 51
2,209404, Note_on_c, 0, 78, 52
2,209425, Note_on_c, 0, 63, 35
2,209437, Note_on_c, 0, 77, 0
2,209463, Note_on_c, 0, 61, 0
2,209804, Note_on_c, 0, 61, 31
2,209816, Note_on_c, 0, 80, 54
2,209841, Note_on_c, 0, 78, 0
2,209913, Note_on_c, 0, 63, 0
2,210176, Note_on_c, 0, 59, 47
2,210254, Note_on_c, 0, 61, 0
2,210566, Note_on_c, 0, 73, 54
2,210582, Note_on_c, 0, 58, 31
2,210585, Note_on_c, 0, 59, 0
2,210962, Note_on_c, 0, 59, 40
2,210970, Note_on_c, 0, 78, 50
2,210990, Note_on_c, 0, 58, 0
2,211038, Note_on_c, 0, 80, 0
2,211323, Note_on_c, 0, 78, 0
2,211351, Note_on_c, 0, 77, 46
2,211353, Note_on_c, 0, 59, 0
2,211362, Note_on_c, 0, 61, 43
2,211457, Control_c, 0, 64, 51
2,211476, Control_c, 0, 64, 62
2,211495, Control_c, 0, 64, 65
2,211515, Control_c, 0, 64, 67
2,211533, Control_c, 0, 64, 71
2,211553, Control_c, 0, 64, 77
2,211572, Control_c, 0, 64, 84
2,211592, Control_c, 0, 64, 94
2,211610, Control_c, 0, 64, 106
2,211630, Control_c, 0, 64, 127
2,211731, Note_on_c, 0, 78, 52
2,211845, Note_on_c, 0, 77, 0
2,211895, Note_on_c, 0, 80, 66
2,211915, Note_on_c, 0, 78, 0
2,211946, Note_on_c, 0, 80, 0
2,212107, Note_on_c, 0, 54, 39
2,212109, Control_c, 0, 64, 112
2,212124, Note_on_c, 0, 82, 52
2,212128, Control_c, 0, 64, 77
2,212147, Control_c, 0, 64, 61
2,212162, Note_on_c, 0, 61, 0
2,212166, Control_c, 0, 64, 0
2,212280, Note_on_c, 0, 80, 50
2,212298, Note_on_c, 0, 82, 0
2,212483, Note_on_c, 0, 73, 0
2,212483, Note_on_c, 0, 82, 50
2,212494, Note_on_c, 0, 80, 0
2,212869, Note_on_c, 0, 75, 57
2,212883, Note_on_c, 0, 59, 31
2,212922, Note_on_c, 0, 82, 0
2,212926, Note_on_c, 0, 54, 0
2,212955, Control_c, 0, 64, 50
2,212973, Control_c, 0, 64, 61
2,212993, Control_c, 0, 64, 64
2,213012, Control_c, 0, 64, 66
2,213032, Control_c, 0, 64, 69
2,213050, Control_c, 0, 64, 74
2,213070, Control_c, 0, 64, 82
2,213089, Control_c, 0, 64, 93
2,213109, Control_c, 0, 64, 117
2,213127, Control_c, 0, 64, 127
2,213169, Note_on_c, 0, 68, 0
2,213251, Note_on_c, 0, 80, 55
2,213402, Note_on_c, 0, 78, 61
2,213605, Note_on_c, 0, 78, 0
2,213614, Note_on_c, 0, 73, 56
2,213614, Note_on_c, 0, 80, 0
2,213621, Note_on_c, 0, 77, 57
2,213646, Control_c, 0, 64, 104
2,213664, Control_c, 0, 64, 76
2,213676, Note_on_c, 0, 75, 0
2,213684, Control_c, 0, 64, 62
2,213703, Control_c, 0, 64, 0
2,213780, Control_c, 0, 64, 46
2,213799, Control_c, 0, 64, 62
2,213818, Control_c, 0, 64, 65
2,213838, Control_c, 0, 64, 68
2,213857, Control_c, 0, 64, 73
2,213876, Control_c, 0, 64, 79
2,213895, Control_c, 0, 64, 86
2,213915, Control_c, 0, 64, 94
2,213934, Control_c, 0, 64, 105
2,213954, Control_c, 0, 64, 127
2,214004, Note_on_c, 0, 78, 62
2,214022, Note_on_c, 0, 77, 0
2,214024, Note_on_c, 0, 58, 37
2,214092, Note_on_c, 0, 59, 0
2,214323, Note_on_c, 0, 58, 0
2,214361, Note_on_c, 0, 56, 50
2,214363, Note_on_c, 0, 71, 55
2,214400, Note_on_c, 0, 73, 0
2,214414, Control_c, 0, 64, 112
2,214434, Control_c, 0, 64, 87
2,214436, Note_on_c, 0, 56, 0
2,214453, Control_c, 0, 64, 70
2,214473, Control_c, 0, 64, 50
2,214487, Note_on_c, 0, 58, 46
2,214491, Control_c, 0, 64, 0
2,214528, Note_on_c, 0, 58, 0
2,214562, Note_on_c, 0, 56, 54
2,214610, Note_on_c, 0, 56, 0
2,214650, Note_on_c, 0, 58, 48
2,214681, Note_on_c, 0, 77, 59
2,214696, Note_on_c, 0, 58, 0
2,214743, Note_on_c, 0, 78, 0
2,214792, Note_on_c, 0, 58, 61
2,214847, Note_on_c, 0, 58, 0
2,214882, Note_on_c, 0, 56, 18
2,215084, Note_on_c, 0, 70, 55
2,215085, Note_on_c, 0, 78, 58
2,215110, Note_on_c, 0, 56, 0
2,215113, Note_on_c, 0, 54, 37
2,215118, Note_on_c, 0, 77, 0
2,215167, Note_on_c, 0, 71, 0
2,215424, Note_on_c, 0, 54, 0
2,215459, Note_on_c, 0, 52, 46
2,215460, Note_on_c, 0, 73, 52
2,215536, Note_on_c, 0, 78, 0
2,215675, Note_on_c, 0, 70, 0
2,215846, Note_on_c, 0, 78, 61
2,215852, Note_on_c, 0, 51, 40
2,215854, Note_on_c, 0, 71, 46
2,215868, Note_on_c, 0, 52, 0
2,215892, Note_on_c, 0, 73, 0
2,216032, Note_on_c, 0, 51, 0
2,216034, Note_on_c, 0, 49, 54
2,216247, Note_on_c, 0, 51, 46
2,216257, Note_on_c, 0, 49, 0
2,216379, Note_on_c, 0, 51, 0
2,216408, Note_on_c, 0, 52, 57
2,216631, Note_on_c, 0, 73, 60
2,216639, Note_on_c, 0, 46, 47
2,216662, Note_on_c, 0, 71, 0
2,216672, Note_on_c, 0, 52, 0
2,217018, Note_on_c, 0, 46, 0
2,217030, Note_on_c, 0, 80, 62
2,217033, Note_on_c, 0, 42, 38
2,217039, Note_on_c, 0, 78, 0
2,217393, Note_on_c, 0, 44, 45
2,217406, Note_on_c, 0, 78, 62
2,217422, Note_on_c, 0, 80, 0
2,217427, Note_on_c, 0, 42, 0
2,217794, Note_on_c, 0, 46, 46
2,217794, Note_on_c, 0, 76, 60
2,217825, Note_on_c, 0, 78, 0
2,217826, Note_on_c, 0, 44, 0
2,218173, Note_on_c, 0, 46, 0
2,218175, Note_on_c, 0, 75, 65
2,218178, Note_on_c, 0, 76, 0
2,218181, Note_on_c, 0, 66, 58
2,218181, Note_on_c, 0, 73, 0
2,218188, Note_on_c, 0, 47, 47
2,218542, Note_on_c, 0, 47, 0
2,218570, Note_on_c, 0, 49, 45
2,218579, Note_on_c, 0, 76, 63
2,218628, Note_on_c, 0, 75, 0
2,218956, Note_on_c, 0, 51, 43
2,218958, Note_on_c, 0, 78, 67
2,218962, Note_on_c, 0, 49, 0
2,219008, Note_on_c, 0, 76, 0
2,219280, Note_on_c, 0, 51, 0
2,219312, Note_on_c, 0, 52, 52
2,219484, Note_on_c, 0, 52, 0
2,219484, Note_on_c, 0, 54, 61
2,219745, Note_on_c, 0, 54, 0
2,219746, Note_on_c, 0, 56, 42
2,219747, Note_on_c, 0, 71, 65
2,219825, Note_on_c, 0, 66, 0
2,220114, Note_on_c, 0, 58, 44
2,220130, Note_on_c, 0, 78, 0
2,220132, Note_on_c, 0, 56, 0
2,220248, Note_on_c, 0, 58, 0
2,220295, Note_on_c, 0, 59, 54
2,220520, Note_on_c, 0, 59, 0
2,220520, Note_on_c, 0, 76, 59
2,220534, Note_on_c, 0, 49, 38
2,220861, Note_on_c, 0, 51, 45
2,220904, Note_on_c, 0, 49, 0
2,221004, Note_on_c, 0, 51, 0
2,221040, Note_on_c, 0, 52, 54
2,221284, Note_on_c, 0, 42, 51
2,221295, Note_on_c, 0, 52, 0
2,221672, Note_on_c, 0, 75, 70
2,221674, Note_on_c, 0, 54, 41
2,221688, Note_on_c, 0, 42, 0
2,221742, Note_on_c, 0, 76, 0
2,221751, Note_on_c, 0, 71, 0
2,222059, Note_on_c, 0, 73, 63
2,222063, Note_on_c, 0, 70, 60
2,222119, Note_on_c, 0, 75, 0
2,222425, Note_on_c, 0, 54, 0
2,222448, Note_on_c, 0, 55, 46
2,222831, Note_on_c, 0, 70, 0
2,222842, Note_on_c, 0, 68, 55
2,222848, Note_on_c, 0, 71, 58
2,222853, Note_on_c, 0, 56, 43
2,222887, Note_on_c, 0, 73, 0
2,222890, Note_on_c, 0, 55, 0
2,223226, Note_on_c, 0, 55, 44
2,223249, Note_on_c, 0, 56, 0
2,223628, Note_on_c, 0, 56, 44
2,223629, Note_on_c, 0, 76, 64
2,223639, Note_on_c, 0, 55, 0
2,224022, Note_on_c, 0, 58, 58
2,224056, Note_on_c, 0, 56, 0
2,224418, Note_on_c, 0, 71, 0
2,224424, Note_on_c, 0, 66, 66
2,224440, Note_on_c, 0, 58, 0
2,224445, Note_on_c, 0, 59, 49
2,224464, Note_on_c, 0, 68, 0
2,224805, Note_on_c, 0, 58, 44
2,224820, Note_on_c, 0, 74, 69
2,224859, Note_on_c, 0, 76, 0
2,224867, Note_on_c, 0, 59, 0
2,224997, Note_on_c, 0, 66, 0
2,225238, Note_on_c, 0, 75, 68
2,225240, Note_on_c, 0, 56, 43
2,225242, Note_on_c, 0, 71, 63
2,225259, Note_on_c, 0, 58, 0
2,225290, Note_on_c, 0, 74, 0
2,225608, Note_on_c, 0, 54, 49
2,225628, Note_on_c, 0, 56, 0
2,225998, Note_on_c, 0, 54, 0
2,226003, Note_on_c, 0, 53, 62
2,226055, Note_on_c, 0, 75, 0
2,226405, Note_on_c, 0, 75, 78
2,226413, Note_on_c, 0, 54, 54
2,226441, Note_on_c, 0, 53, 0
2,226524, Note_on_c, 0, 71, 0
2,226778, Note_on_c, 0, 53, 53
2,226801, Note_on_c, 0, 54, 0
2,226814, Note_on_c, 0, 80, 77
2,226829, Note_on_c, 0, 73, 62
2,226884, Note_on_c, 0, 75, 0
2,227198, Note_on_c, 0, 51, 40
2,227210, Note_on_c, 0, 53, 0
2,227213, Note_on_c, 0, 71, 53
2,227229, Note_on_c, 0, 73, 0
2,227566, Note_on_c, 0, 51, 0
2,227570, Note_on_c, 0, 70, 67
2,227572, Note_on_c, 0, 50, 53
2,227600, Note_on_c, 0, 71, 0
2,227756, Control_c, 0, 64, 49
2,227761, Note_on_c, 0, 80, 0
2,227775, Control_c, 0, 64, 57
2,227794, Control_c, 0, 64, 60
2,227813, Control_c, 0, 64, 62
2,227833, Control_c, 0, 64, 64
2,227852, Control_c, 0, 64, 67
2,227870, Control_c, 0, 64, 70
2,227890, Control_c, 0, 64, 76
2,227909, Control_c, 0, 64, 83
2,227909, Note_on_c, 0, 50, 0
2,227929, Control_c, 0, 64, 90
2,227946, Note_on_c, 0, 80, 77
2,227947, Control_c, 0, 64, 97
2,227953, Note_on_c, 0, 62, 53
2,227967, Control_c, 0, 64, 108
2,227968, Note_on_c, 0, 71, 59
2,227969, Note_on_c, 0, 70, 0
2,227986, Control_c, 0, 64, 127
2,228005, Control_c, 0, 64, 123
2,228024, Control_c, 0, 64, 95
2,228044, Control_c, 0, 64, 77
2,228063, Control_c, 0, 64, 64
2,228082, Control_c, 0, 64, 37
2,228101, Control_c, 0, 64, 0
2,228104, Note_on_c, 0, 63, 64
2,228108, Note_on_c, 0, 62, 0
2,228267, Note_on_c, 0, 80, 0
2,228364, Note_on_c, 0, 79, 78
2,228368, Note_on_c, 0, 64, 57
2,228379, Note_on_c, 0, 63, 0
2,228386, Note_on_c, 0, 73, 62
2,228423, Note_on_c, 0, 71, 0
2,228763, Note_on_c, 0, 58, 47
2,228775, Note_on_c, 0, 78, 80
2,228825, Note_on_c, 0, 64, 0
2,228838, Note_on_c, 0, 79, 0
2,229143, Note_on_c, 0, 59, 54
2,229159, Note_on_c, 0, 68, 75
2,229203, Note_on_c, 0, 58, 0
2,229205, Note_on_c, 0, 78, 0
2,229536, Note_on_c, 0, 78, 80
2,229544, Note_on_c, 0, 60, 59
2,229550, Note_on_c, 0, 59, 0
2,229576, Note_on_c, 0, 73, 0
2,229903, Note_on_c, 0, 61, 53
2,229973, Note_on_c, 0, 60, 0
2,229983, Note_on_c, 0, 77, 73
2,230002, Note_on_c, 0, 73, 58
2,230012, Note_on_c, 0, 68, 0
2,230080, Note_on_c, 0, 78, 0
2,230337, Note_on_c, 0, 58, 53
2,230365, Note_on_c, 0, 76, 80
2,230412, Note_on_c, 0, 77, 0
2,230455, Note_on_c, 0, 61, 0
2,230741, Note_on_c, 0, 55, 38
2,230754, Note_on_c, 0, 58, 0
2,230796, Note_on_c, 0, 75, 63
2,230906, Note_on_c, 0, 76, 0
2,231148, Note_on_c, 0, 56, 46
2,231172, Note_on_c, 0, 71, 59
2,231199, Note_on_c, 0, 55, 0
2,231213, Note_on_c, 0, 73, 0
2,231558, Note_on_c, 0, 73, 62
2,231574, Note_on_c, 0, 70, 55
2,231621, Note_on_c, 0, 75, 0
2,231639, Note_on_c, 0, 71, 0
2,231912, Note_on_c, 0, 55, 45
2,231921, Note_on_c, 0, 56, 0
2,232339, Note_on_c, 0, 56, 39
2,232348, Note_on_c, 0, 55, 0
2,232364, Note_on_c, 0, 71, 65
2,232421, Note_on_c, 0, 70, 0
2,232421, Note_on_c, 0, 73, 0
2,232751, Note_on_c, 0, 56, 0
2,232754, Note_on_c, 0, 54, 38
2,232792, Note_on_c, 0, 63, 45
2,233130, Note_on_c, 0, 54, 0
2,233145, Note_on_c, 0, 52, 35
2,233150, Note_on_c, 0, 68, 52
2,233186, Note_on_c, 0, 71, 0
2,233511, Note_on_c, 0, 51, 36
2,233522, Note_on_c, 0, 71, 64
2,233589, Note_on_c, 0, 52, 0
2,233593, Note_on_c, 0, 68, 0
2,233716, Note_on_c, 0, 63, 0
2,233937, Note_on_c, 0, 49, 41
2,233945, Note_on_c, 0, 70, 61
2,233962, Note_on_c, 0, 51, 0
2,233980, Note_on_c, 0, 71, 0
2,234313, Note_on_c, 0, 50, 37
2,234326, Note_on_c, 0, 68, 48
2,234356, Note_on_c, 0, 49, 0
2,234716, Note_on_c, 0, 70, 0
2,234720, Note_on_c, 0, 68, 0
2,234726, Note_on_c, 0, 50, 0
2,234735, Note_on_c, 0, 51, 32
2,234735, Note_on_c, 0, 66, 55
2,235108, Note_on_c, 0, 78, 68
2,235111, Note_on_c, 0, 46, 37
2,235130, Control_c, 0, 64, 11
2,235173, Note_on_c, 0, 51, 0
2,235329, Note_on_c, 0, 66, 0
2,235341, Control_c, 0, 64, 13
2,235417, Control_c, 0, 64, 15
2,235518, Note_on_c, 0, 68, 60
2,235521, Note_on_c, 0, 47, 41
2,235565, Note_on_c, 0, 46, 0
2,235571, Control_c, 0, 64, 17
2,235572, Note_on_c, 0, 78, 0
2,235648, Control_c, 0, 64, 18
2,235762, Control_c, 0, 64, 19
2,235912, Note_on_c, 0, 47, 0
2,235918, Note_on_c, 0, 48, 28
2,235926, Note_on_c, 0, 66, 40
2,236051, Control_c, 0, 64, 18
2,236070, Control_c, 0, 64, 17
2,236090, Control_c, 0, 64, 13
2,236108, Control_c, 0, 64, 11
2,236128, Control_c, 0, 64, 9
2,236167, Control_c, 0, 64, 0
2,236317, Note_on_c, 0, 49, 35
2,236325, Note_on_c, 0, 48, 0
2,236327, Note_on_c, 0, 66, 0
2,236354, Note_on_c, 0, 64, 37
2,236698, Note_on_c, 0, 44, 41
2,236714, Note_on_c, 0, 63, 40
2,236740, Note_on_c, 0, 49, 0
2,236750, Note_on_c, 0, 64, 0
2,237097, Note_on_c, 0, 63, 0
2,237099, Note_on_c, 0, 62, 45
2,237105, Note_on_c, 0, 46, 43
2,237157, Note_on_c, 0, 44, 0
2,237474, Note_on_c, 0, 66, 51
2,237487, Note_on_c, 0, 62, 0
2,237608, Note_on_c, 0, 68, 0
2,237632, Note_on_c, 0, 65, 56
2,237651, Note_on_c, 0, 66, 0
2,237895, Note_on_c, 0, 66, 59
2,237904, Note_on_c, 0, 65, 0
2,237906, Note_on_c, 0, 63, 51
2,237952, Control_c, 0, 64, 9
2,237991, Control_c, 0, 64, 11
2,238068, Control_c, 0, 64, 13
2,238106, Control_c, 0, 64, 15
2,238126, Control_c, 0, 64, 17
2,238145, Control_c, 0, 64, 18
2,238163, Control_c, 0, 64, 19
2,238183, Control_c, 0, 64, 20
2,238260, Control_c, 0, 64, 21
2,238279, Control_c, 0, 64, 22
2,238287, Note_on_c, 0, 68, 74
2,238298, Control_c, 0, 64, 23
2,238317, Control_c, 0, 64, 25
2,238337, Control_c, 0, 64, 26
2,238352, Note_on_c, 0, 66, 0
2,238375, Control_c, 0, 64, 27
2,238548, Control_c, 0, 64, 27
2,238586, Control_c, 0, 64, 28
2,238706, Note_on_c, 0, 70, 77
2,238738, Note_on_c, 0, 68, 0
2,238778, Control_c, 0, 64, 27
2,238797, Control_c, 0, 64, 26
2,238817, Control_c, 0, 64, 22
2,238836, Control_c, 0, 64, 15
2,238855, Control_c, 0, 64, 0
2,239076, Note_on_c, 0, 53, 65
2,239083, Note_on_c, 0, 63, 0
2,239107, Note_on_c, 0, 62, 69
2,239287, Note_on_c, 0, 60, 75
2,239323, Note_on_c, 0, 62, 0
2,239537, Note_on_c, 0, 58, 77
2,239554, Note_on_c, 0, 62, 77
2,239583, Note_on_c, 0, 60, 0
2,239622, Control_c, 0, 64, 51
2,239641, Control_c, 0, 64, 71
2,239661, Control_c, 0, 64, 93
2,239675, Note_on_c, 0, 62, 0
2,239679, Control_c, 0, 64, 127
2,239695, Note_on_c, 0, 70, 0
2,239976, Note_on_c, 0, 65, 81
2,240141, Control_c, 0, 64, 93
2,240159, Control_c, 0, 64, 73
2,240179, Control_c, 0, 64, 58
2,240198, Control_c, 0, 64, 0
2,240396, Note_on_c, 0, 77, 90
2,240404, Note_on_c, 0, 70, 77
2,240524, Control_c, 0, 64, 47
2,240544, Control_c, 0, 64, 60
2,240562, Control_c, 0, 64, 64
2,240582, Control_c, 0, 64, 67
2,240601, Control_c, 0, 64, 72
2,240621, Control_c, 0, 64, 83
2,240639, Control_c, 0, 64, 95
2,240659, Control_c, 0, 64, 123
2,240676, Note_on_c, 0, 58, 0
2,240678, Control_c, 0, 64, 127
2,240704, Note_on_c, 0, 46, 0
2,240767, Note_on_c, 0, 53, 0
2,240792, Note_on_c, 0, 59, 75
2,240813, Control_c, 0, 64, 112
2,240832, Control_c, 0, 64, 79
2,240851, Control_c, 0, 64, 64
2,240870, Control_c, 0, 64, 29
2,240890, Control_c, 0, 64, 0
2,240928, Control_c, 0, 64, 41
2,240947, Control_c, 0, 64, 61
2,240967, Control_c, 0, 64, 66
2,240985, Control_c, 0, 64, 70
2,241004, Control_c, 0, 64, 78
2,241024, Control_c, 0, 64, 89
2,241042, Control_c, 0, 64, 99
2,241062, Control_c, 0, 64, 115
2,241081, Control_c, 0, 64, 127
2,241158, Control_c, 0, 64, 112
2,241172, Note_on_c, 0, 58, 78
2,241178, Control_c, 0, 64, 80
2,241197, Control_c, 0, 64, 66
2,241211, Note_on_c, 0, 59, 0
2,241217, Control_c, 0, 64, 54
2,241236, Control_c, 0, 64, 46
2,241255, Control_c, 0, 64, 53
2,241274, Control_c, 0, 64, 61
2,241289, Note_on_c, 0, 70, 0
2,241294, Control_c, 0, 64, 65
2,241312, Control_c, 0, 64, 70
2,241332, Control_c, 0, 64, 77
2,241351, Control_c, 0, 64, 88
2,241371, Control_c, 0, 64, 105
2,241389, Control_c, 0, 64, 127
2,241543, Control_c, 0, 64, 113
2,241560, Control_c, 0, 64, 84
2,241579, Control_c, 0, 64, 67
2,241583, Note_on_c, 0, 56, 74
2,241585, Note_on_c, 0, 71, 83
2,241595, Note_on_c, 0, 58, 0
2,241598, Control_c, 0, 64, 59
2,241606, Note_on_c, 0, 65, 0
2,241617, Control_c, 0, 64, 53
2,241637, Control_c, 0, 64, 57
2,241655, Control_c, 0, 64, 62
2,241675, Control_c, 0, 64, 66
2,241678, Note_on_c, 0, 77, 0
2,241694, Control_c, 0, 64, 71
2,241713, Control_c, 0, 64, 82
2,241715, Note_on_c, 0, 71, 0
2,241732, Control_c, 0, 64, 94
2,241751, Control_c, 0, 64, 108
2,241772, Control_c, 0, 64, 127
2,241987, Note_on_c, 0, 54, 70
2,242022, Note_on_c, 0, 82, 90
2,242028, Note_on_c, 0, 70, 79
2,242045, Note_on_c, 0, 56, 0
2,242118, Control_c, 0, 64, 83
2,242136, Control_c, 0, 64, 62
2,242156, Control_c, 0, 64, 0
2,242404, Note_on_c, 0, 56, 73
2,242436, Note_on_c, 0, 54, 0
2,242776, Note_on_c, 0, 58, 75
2,242781, Note_on_c, 0, 56, 0
2,242847, Control_c, 0, 64, 63
2,242866, Control_c, 0, 64, 71
2,242885, Control_c, 0, 64, 84
2,242904, Control_c, 0, 64, 107
2,242919, Note_on_c, 0, 70, 0
2,242924, Control_c, 0, 64, 127
2,243115, Note_on_c, 0, 58, 0
2,243171, Note_on_c, 0, 68, 84
2,243365, Note_on_c, 0, 68, 0
2,243587, Note_on_c, 0, 51, 69
2,243596, Control_c, 0, 64, 84
2,243596, Note_on_c, 0, 66, 73
2,243615, Control_c, 0, 64, 58
2,243633, Control_c, 0, 64, 0
2,243729, Control_c, 0, 64, 50
2,243748, Control_c, 0, 64, 70
2,243768, Control_c, 0, 64, 86
2,243778, Note_on_c, 0, 51, 0
2,243786, Control_c, 0, 64, 127
2,243993, Note_on_c, 0, 53, 70
2,244020, Note_on_c, 0, 82, 0
2,244119, Note_on_c, 0, 54, 72
2,244145, Note_on_c, 0, 53, 0
2,244351, Note_on_c, 0, 56, 70
2,244358, Note_on_c, 0, 83, 88
2,244363, Control_c, 0, 64, 102
2,244364, Note_on_c, 0, 54, 0
2,244382, Control_c, 0, 64, 71
2,244401, Control_c, 0, 64, 26
2,244420, Control_c, 0, 64, 0
2,244517, Control_c, 0, 64, 55
2,244535, Control_c, 0, 64, 64
2,244555, Control_c, 0, 64, 68
2,244574, Control_c, 0, 64, 73
2,244593, Control_c, 0, 64, 80
2,244612, Control_c, 0, 64, 92
2,244631, Control_c, 0, 64, 108
2,244651, Control_c, 0, 64, 127
2,244749, Note_on_c, 0, 68, 81
2,244766, Control_c, 0, 64, 88
2,244785, Control_c, 0, 64, 69
2,244804, Control_c, 0, 64, 52
2,244823, Control_c, 0, 64, 0
2,244862, Control_c, 0, 64, 36
2,244881, Control_c, 0, 64, 60
2,244900, Control_c, 0, 64, 66
2,244920, Control_c, 0, 64, 73
2,244939, Control_c, 0, 64, 85
2,244953, Note_on_c, 0, 68, 0
2,244958, Control_c, 0, 64, 103
2,244977, Control_c, 0, 64, 127
2,245141, Note_on_c, 0, 82, 87
2,245149, Note_on_c, 0, 70, 77
2,245177, Note_on_c, 0, 83, 0
2,245188, Control_c, 0, 64, 82
2,245208, Control_c, 0, 64, 65
2,245226, Control_c, 0, 64, 38
2,245246, Control_c, 0, 64, 0
2,245284, Control_c, 0, 64, 21
2,245303, Control_c, 0, 64, 57
2,245323, Control_c, 0, 64, 65
2,245342, Control_c, 0, 64, 69
2,245361, Control_c, 0, 64, 76
2,245380, Control_c, 0, 64, 86
2,245400, Control_c, 0, 64, 96
2,245419, Control_c, 0, 64, 110
2,245438, Control_c, 0, 64, 127
2,245522, Note_on_c, 0, 54, 72
2,245560, Note_on_c, 0, 66, 0
2,245590, Note_on_c, 0, 56, 0
2,245907, Note_on_c, 0, 53, 64
2,245912, Note_on_c, 0, 80, 85
2,245926, Note_on_c, 0, 54, 0
2,245937, Control_c, 0, 64, 82
2,245957, Control_c, 0, 64, 64
2,245974, Control_c, 0, 64, 0
2,245983, Note_on_c, 0, 82, 0
2,246044, Note_on_c, 0, 70, 0
2,246051, Control_c, 0, 64, 18
2,246070, Control_c, 0, 64, 55
2,246090, Control_c, 0, 64, 64
2,246109, Control_c, 0, 64, 69
2,246128, Control_c, 0, 64, 76
2,246147, Control_c, 0, 64, 86
2,246167, Control_c, 0, 64, 98
2,246185, Control_c, 0, 64, 114
2,246205, Control_c, 0, 64, 127
2,246249, Note_on_c, 0, 53, 0
2,246262, Control_c, 0, 64, 100
2,246273, Note_on_c, 0, 62, 63
2,246282, Control_c, 0, 64, 79
2,246301, Control_c, 0, 64, 65
2,246320, Control_c, 0, 64, 42
2,246339, Control_c, 0, 64, 0
2,246685, Note_on_c, 0, 78, 80
2,246690, Note_on_c, 0, 63, 59
2,246702, Note_on_c, 0, 62, 0
2,246752, Note_on_c, 0, 80, 0
2,247069, Note_on_c, 0, 63, 0
2,247086, Note_on_c, 0, 65, 66
2,247247, Note_on_c, 0, 66, 65
2,247277, Note_on_c, 0, 65, 0
2,247460, Note_on_c, 0, 80, 87
2,247469, Note_on_c, 0, 66, 0
2,247472, Note_on_c, 0, 68, 73
2,247478, Note_on_c, 0, 65, 60
2,247524, Note_on_c, 0, 78, 0
2,247841, Note_on_c, 0, 63, 71
2,247878, Note_on_c, 0, 65, 0
2,248243, Note_on_c, 0, 82, 86
2,248250, Note_on_c, 0, 62, 56
2,248280, Note_on_c, 0, 63, 0
2,248280, Note_on_c, 0, 80, 0
2,248318, Control_c, 0, 64, 11
2,248337, Control_c, 0, 64, 55
2,248357, Control_c, 0, 64, 62
2,248375, Control_c, 0, 64, 64
2,248394, Control_c, 0, 64, 66
2,248414, Control_c, 0, 64, 68
2,248433, Control_c, 0, 64, 71
2,248452, Control_c, 0, 64, 76
2,248471, Control_c, 0, 64, 83
2,248491, Control_c, 0, 64, 92
2,248509, Control_c, 0, 64, 107
2,248529, Control_c, 0, 64, 127
2,248643, Note_on_c, 0, 66, 73
2,248644, Control_c, 0, 64, 91
2,248646, Note_on_c, 0, 63, 65
2,248647, Note_on_c, 0, 62, 0
2,248663, Control_c, 0, 64, 72
2,248683, Control_c, 0, 64, 61
2,248702, Control_c, 0, 64, 46
2,248721, Control_c, 0, 64, 50
2,248740, Control_c, 0, 64, 59
2,248760, Control_c, 0, 64, 64
2,248779, Control_c, 0, 64, 68
2,248798, Control_c, 0, 64, 76
2,248817, Control_c, 0, 64, 88
2,248837, Control_c, 0, 64, 106
2,248851, Control_c, 0, 64, 127
2,248901, Note_on_c, 0, 66, 0
2,249004, Control_c, 0, 64, 90
2,249023, Control_c, 0, 64, 71
2,249042, Note_on_c, 0, 65, 70
2,249043, Control_c, 0, 64, 59
2,249062, Control_c, 0, 64, 25
2,249081, Control_c, 0, 64, 0
2,249088, Note_on_c, 0, 68, 0
2,249100, Control_c, 0, 64, 34
2,249120, Control_c, 0, 64, 57
2,249139, Control_c, 0, 64, 66
2,249158, Control_c, 0, 64, 72
2,249177, Control_c, 0, 64, 83
2,249197, Control_c, 0, 64, 103
2,249215, Control_c, 0, 64, 127
2,249255, Note_on_c, 0, 82, 0
2,249432, Note_on_c, 0, 61, 73
2,249461, Note_on_c, 0, 65, 0
2,249485, Note_on_c, 0, 63, 0
2,249888, Note_on_c, 0, 75, 82
2,249893, Note_on_c, 0, 67, 67
2,250025, Control_c, 0, 64, 98
2,250045, Control_c, 0, 64, 74
2,250064, Control_c, 0, 64, 59
2,250084, Control_c, 0, 64, 0
2,250274, Note_on_c, 0, 63, 70
2,250286, Note_on_c, 0, 58, 55
2,250302, Note_on_c, 0, 61, 0
2,250440, Note_on_c, 0, 64, 73
2,250456, Note_on_c, 0, 63, 0
2,250651, Note_on_c, 0, 63, 74
2,250674, Note_on_c, 0, 64, 0
2,251036, Note_on_c, 0, 61, 74
2,251051, Note_on_c, 0, 58, 0
2,251441, Note_on_c, 0, 59, 59
2,251448, Note_on_c, 0, 61, 0
2,251504, Note_on_c, 0, 80, 87
2,251602, Control_c, 0, 64, 59
2,251622, Control_c, 0, 64, 66
2,251641, Control_c, 0, 64, 69
2,251661, Control_c, 0, 64, 73
2,251679, Control_c, 0, 64, 78
2,251699, Control_c, 0, 64, 85
2,251718, Control_c, 0, 64, 93
2,251737, Control_c, 0, 64, 110
2,251754, Note_on_c, 0, 67, 0
2,251756, Control_c, 0, 64, 127
2,251802, Note_on_c, 0, 75, 0
2,251817, Note_on_c, 0, 63, 0
2,251841, Note_on_c, 0, 59, 0
2,251876, Note_on_c, 0, 61, 62
2,251879, Note_on_c, 0, 64, 68
2,251987, Control_c, 0, 64, 91
2,252006, Control_c, 0, 64, 74
2,252025, Control_c, 0, 64, 65
2,252064, Control_c, 0, 64, 68
2,252082, Control_c, 0, 64, 73
2,252102, Control_c, 0, 64, 83
2,252121, Control_c, 0, 64, 99
2,252141, Control_c, 0, 64, 121
2,252159, Control_c, 0, 64, 113
2,252179, Control_c, 0, 64, 87
2,252198, Control_c, 0, 64, 70
2,252217, Control_c, 0, 64, 57
2,252236, Control_c, 0, 64, 0
2,252244, Note_on_c, 0, 61, 0
2,252251, Note_on_c, 0, 63, 70
2,252261, Note_on_c, 0, 59, 60
2,252261, Note_on_c, 0, 64, 0
2,252275, Control_c, 0, 64, 17
2,252294, Control_c, 0, 64, 52
2,252313, Control_c, 0, 64, 64
2,252331, Control_c, 0, 64, 67
2,252350, Control_c, 0, 64, 73
2,252369, Control_c, 0, 64, 81
2,252388, Control_c, 0, 64, 90
2,252408, Control_c, 0, 64, 100
2,252427, Control_c, 0, 64, 112
2,252445, Control_c, 0, 64, 127
2,252577, Note_on_c, 0, 59, 0
2,252599, Control_c, 0, 64, 87
2,252613, Note_on_c, 0, 61, 58
2,252619, Control_c, 0, 64, 69
2,252619, Note_on_c, 0, 58, 66
2,252637, Control_c, 0, 64, 56
2,252652, Note_on_c, 0, 63, 0
2,252657, Control_c, 0, 64, 42
2,252676, Control_c, 0, 64, 50
2,252697, Control_c, 0, 64, 60
2,252716, Control_c, 0, 64, 66
2,252736, Control_c, 0, 64, 71
2,252755, Control_c, 0, 64, 80
2,252774, Control_c, 0, 64, 92
2,252793, Control_c, 0, 64, 107
2,252813, Control_c, 0, 64, 127
2,253004, Control_c, 0, 64, 105
2,253014, Note_on_c, 0, 61, 0
2,253016, Note_on_c, 0, 56, 68
2,253018, Note_on_c, 0, 59, 73
2,253024, Control_c, 0, 64, 78
2,253039, Note_on_c, 0, 58, 0
2,253042, Control_c, 0, 64, 64
2,253062, Control_c, 0, 64, 35
2,253081, Control_c, 0, 64, 0
2,253119, Control_c, 0, 64, 46
2,253139, Control_c, 0, 64, 62
2,253158, Control_c, 0, 64, 66
2,253177, Control_c, 0, 64, 70
2,253196, Control_c, 0, 64, 76
2,253216, Control_c, 0, 64, 83
2,253235, Control_c, 0, 64, 89
2,253254, Control_c, 0, 64, 93
2,253273, Control_c, 0, 64, 99
2,253292, Control_c, 0, 64, 105
2,253311, Control_c, 0, 64, 113
2,253330, Control_c, 0, 64, 119
2,253349, Control_c, 0, 64, 121
2,253369, Control_c, 0, 64, 116
2,253387, Control_c, 0, 64, 97
2,253406, Control_c, 0, 64, 75
2,253417, Note_on_c, 0, 61, 68
2,253418, Note_on_c, 0, 54, 68
2,253426, Control_c, 0, 64, 63
2,253436, Note_on_c, 0, 59, 0
2,253445, Control_c, 0, 64, 32
2,253445, Note_on_c, 0, 56, 0
2,253464, Control_c, 0, 64, 0
2,253503, Control_c, 0, 64, 44
2,253517, Note_on_c, 0, 54, 0
2,253521, Control_c, 0, 64, 61
2,253541, Control_c, 0, 64, 67
2,253560, Control_c, 0, 64, 72
2,253580, Control_c, 0, 64, 81
2,253598, Control_c, 0, 64, 91
2,253618, Control_c, 0, 64, 101
2,253637, Control_c, 0, 64, 112
2,253658, Control_c, 0, 64, 127
2,253662, Note_on_c, 0, 54, 12
2,253722, Note_on_c, 0, 61, 0
2,253850, Note_on_c, 0, 78, 87
2,253854, Note_on_c, 0, 63, 59
2,253857, Note_on_c, 0, 52, 56
2,253869, Control_c, 0, 64, 83
2,253889, Control_c, 0, 64, 64
2,253899, Note_on_c, 0, 54, 0
2,253908, Control_c, 0, 64, 0
2,253912, Note_on_c, 0, 80, 0
2,253985, Control_c, 0, 64, 49
2,254003, Control_c, 0, 64, 63
2,254023, Control_c, 0, 64, 68
2,254042, Control_c, 0, 64, 74
2,254062, Control_c, 0, 64, 84
2,254080, Control_c, 0, 64, 96
2,254100, Control_c, 0, 64, 109
2,254119, Control_c, 0, 64, 108
2,254138, Control_c, 0, 64, 95
2,254157, Control_c, 0, 64, 78
2,254177, Control_c, 0, 64, 65
2,254186, Note_on_c, 0, 52, 0
2,254196, Control_c, 0, 64, 49
2,254214, Note_on_c, 0, 51, 60
2,254215, Control_c, 0, 64, 0
2,254252, Control_c, 0, 64, 18
2,254271, Control_c, 0, 64, 50
2,254290, Control_c, 0, 64, 61
2,254309, Control_c, 0, 64, 65
2,254329, Control_c, 0, 64, 68
2,254347, Control_c, 0, 64, 73
2,254366, Control_c, 0, 64, 81
2,254386, Control_c, 0, 64, 91
2,254405, Control_c, 0, 64, 102
2,254424, Control_c, 0, 64, 127
2,254636, Note_on_c, 0, 49, 61
2,254636, Note_on_c, 0, 56, 59
2,254667, Note_on_c, 0, 51, 0
2,254673, Note_on_c, 0, 76, 83
2,254675, Control_c, 0, 64, 88
2,254694, Control_c, 0, 64, 67
2,254697, Note_on_c, 0, 63, 0
2,254713, Control_c, 0, 64, 32
2,254723, Note_on_c, 0, 78, 0
2,254733, Control_c, 0, 64, 0
2,254810, Control_c, 0, 64, 52
2,254828, Control_c, 0, 64, 63
2,254847, Control_c, 0, 64, 68
2,254867, Control_c, 0, 64, 73
2,254886, Control_c, 0, 64, 83
2,254905, Control_c, 0, 64, 95
2,254924, Control_c, 0, 64, 112
2,254944, Control_c, 0, 64, 127
2,254975, Note_on_c, 0, 49, 0
2,255013, Note_on_c, 0, 56, 0
2,255041, Note_on_c, 0, 61, 67
2,255187, Note_on_c, 0, 59, 72
2,255212, Note_on_c, 0, 61, 0
2,255418, Note_on_c, 0, 61, 63
2,255422, Note_on_c, 0, 58, 62
2,255435, Note_on_c, 0, 59, 0
2,255442, Control_c, 0, 64, 107
2,255462, Control_c, 0, 64, 79
2,255481, Control_c, 0, 64, 61
2,255501, Control_c, 0, 64, 0
2,255799, Note_on_c, 0, 56, 67
2,255815, Note_on_c, 0, 58, 0
2,256218, Note_on_c, 0, 55, 59
2,256233, Note_on_c, 0, 75, 79
2,256235, Note_on_c, 0, 56, 0
2,256291, Note_on_c, 0, 76, 0
2,256323, Note_on_c, 0, 61, 0
2,256615, Note_on_c, 0, 55, 0
2,256627, Note_on_c, 0, 59, 65
2,256640, Note_on_c, 0, 56, 58
2,257011, Note_on_c, 0, 58, 64
2,257023, Note_on_c, 0, 59, 0
2,257401, Note_on_c, 0, 54, 62
2,257401, Note_on_c, 0, 56, 0
2,257555, Control_c, 0, 64, 39
2,257574, Control_c, 0, 64, 52
2,257593, Control_c, 0, 64, 56
2,257613, Control_c, 0, 64, 57
2,257651, Control_c, 0, 64, 56
2,257670, Control_c, 0, 64, 53
2,257690, Control_c, 0, 64, 50
2,257708, Control_c, 0, 64, 49
2,257747, Control_c, 0, 64, 51
2,257766, Control_c, 0, 64, 53
2,257785, Control_c, 0, 64, 54
2,257804, Control_c, 0, 64, 55
2,257824, Control_c, 0, 64, 55
2,257858, Note_on_c, 0, 53, 42
2,257861, Note_on_c, 0, 56, 50
2,257866, Note_on_c, 0, 54, 0
2,257901, Control_c, 0, 64, 55
2,257939, Control_c, 0, 64, 54
2,257947, Note_on_c, 0, 58, 0
2,257958, Control_c, 0, 64, 54
2,257996, Control_c, 0, 64, 53
2,258016, Control_c, 0, 64, 52
2,258035, Control_c, 0, 64, 50
2,258054, Control_c, 0, 64, 46
2,258073, Control_c, 0, 64, 38
2,258093, Control_c, 0, 64, 0
2,258238, Note_on_c, 0, 71, 58
2,258579, Note_on_c, 0, 75, 0
2,258630, Note_on_c, 0, 68, 60
2,258702, Note_on_c, 0, 71, 0
2,259008, Note_on_c, 0, 58, 61
2,259032, Note_on_c, 0, 56, 0
2,259399, Note_on_c, 0, 59, 73
2,259436, Note_on_c, 0, 58, 0
2,259513, Control_c, 0, 64, 42
2,259533, Control_c, 0, 64, 61
2,259552, Control_c, 0, 64, 64
2,259571, Control_c, 0, 64, 67
2,259590, Control_c, 0, 64, 70
2,259610, Control_c, 0, 64, 77
2,259628, Control_c, 0, 64, 85
2,259647, Control_c, 0, 64, 95
2,259667, Control_c, 0, 64, 114
2,259686, Control_c, 0, 64, 127
2,259701, Note_on_c, 0, 53, 0
2,259783, Note_on_c, 0, 70, 76
2,259789, Note_on_c, 0, 58, 57
2,259792, Note_on_c, 0, 54, 53
2,259801, Control_c, 0, 64, 91
2,259821, Control_c, 0, 64, 72
2,259839, Control_c, 0, 64, 61
2,259859, Control_c, 0, 64, 39
2,259878, Control_c, 0, 64, 38
2,259884, Note_on_c, 0, 68, 0
2,259897, Control_c, 0, 64, 54
2,259916, Control_c, 0, 64, 63
2,259935, Note_on_c, 0, 58, 0
2,259936, Control_c, 0, 64, 67
2,259955, Control_c, 0, 64, 72
2,259974, Control_c, 0, 64, 79
2,259983, Note_on_c, 0, 59, 0
2,259993, Control_c, 0, 64, 89
2,260014, Control_c, 0, 64, 101
2,260032, Control_c, 0, 64, 114
2,260052, Control_c, 0, 64, 127
2,260188, Note_on_c, 0, 53, 49
2,260190, Note_on_c, 0, 71, 66
2,260192, Note_on_c, 0, 56, 51
2,260204, Note_on_c, 0, 54, 0
2,260205, Control_c, 0, 64, 90
2,260225, Control_c, 0, 64, 69
2,260235, Note_on_c, 0, 70, 0
2,260243, Control_c, 0, 64, 48
2,260263, Control_c, 0, 64, 0
2,260378, Control_c, 0, 64, 47
2,260397, Control_c, 0, 64, 61
2,260417, Control_c, 0, 64, 65
2,260436, Control_c, 0, 64, 69
2,260455, Control_c, 0, 64, 73
2,260474, Control_c, 0, 64, 74
2,260494, Control_c, 0, 64, 70
2,260512, Control_c, 0, 64, 63
2,260532, Control_c, 0, 64, 41
2,260551, Control_c, 0, 64, 0
2,260565, Note_on_c, 0, 51, 44
2,260568, Note_on_c, 0, 54, 46
2,260603, Note_on_c, 0, 53, 0
2,260626, Note_on_c, 0, 56, 0
2,260628, Control_c, 0, 64, 20
2,260646, Control_c, 0, 64, 56
2,260666, Control_c, 0, 64, 64
2,260685, Control_c, 0, 64, 67
2,260705, Control_c, 0, 64, 74
2,260723, Control_c, 0, 64, 83
2,260743, Control_c, 0, 64, 94
2,260762, Control_c, 0, 64, 106
2,260782, Control_c, 0, 64, 127
2,260810, Note_on_c, 0, 51, 0
2,260993, Note_on_c, 0, 53, 51
2,260999, Note_on_c, 0, 50, 45
2,261012, Control_c, 0, 64, 107
2,261031, Control_c, 0, 64, 80
2,261051, Control_c, 0, 64, 63
2,261052, Note_on_c, 0, 54, 0
2,261069, Control_c, 0, 64, 0
2,261185, Control_c, 0, 64, 39
2,261203, Control_c, 0, 64, 57
2,261223, Control_c, 0, 64, 62
2,261242, Control_c, 0, 64, 65
2,261262, Control_c, 0, 64, 66
2,261280, Control_c, 0, 64, 67
2,261300, Control_c, 0, 64, 68
2,261339, Control_c, 0, 64, 67
2,261352, Note_on_c, 0, 68, 56
2,261358, Control_c, 0, 64, 66
2,261378, Control_c, 0, 64, 65
2,261393, Note_on_c, 0, 71, 0
2,261397, Control_c, 0, 64, 58
2,261416, Control_c, 0, 64, 32
2,261435, Control_c, 0, 64, 0
2,261736, Note_on_c, 0, 65, 48
2,261782, Note_on_c, 0, 68, 0
2,262112, Note_on_c, 0, 53, 0
2,262119, Note_on_c, 0, 54, 56
2,262336, Control_c, 0, 64, 47
2,262355, Control_c, 0, 64, 59
2,262374, Control_c, 0, 64, 63
2,262393, Control_c, 0, 64, 64
2,262413, Control_c, 0, 64, 66
2,262432, Control_c, 0, 64, 68
2,262451, Control_c, 0, 64, 70
2,262470, Control_c, 0, 64, 71
2,262490, Control_c, 0, 64, 69
2,262508, Control_c, 0, 64, 64
2,262513, Note_on_c, 0, 54, 0
2,262513, Note_on_c, 0, 56, 55
2,262527, Control_c, 0, 64, 53
2,262547, Control_c, 0, 64, 0
2,262642, Control_c, 0, 64, 35
2,262662, Control_c, 0, 64, 58
2,262681, Control_c, 0, 64, 64
2,262701, Control_c, 0, 64, 67
2,262719, Control_c, 0, 64, 71
2,262739, Control_c, 0, 64, 77
2,262758, Control_c, 0, 64, 84
2,262777, Control_c, 0, 64, 90
2,262796, Control_c, 0, 64, 95
2,262816, Control_c, 0, 64, 97
2,262854, Control_c, 0, 64, 95
2,262865, Note_on_c, 0, 50, 0
2,262873, Control_c, 0, 64, 88
2,262890, Control_c, 0, 64, 73
2,262893, Note_on_c, 0, 66, 63
2,262899, Note_on_c, 0, 51, 42
2,262909, Control_c, 0, 64, 62
2,262909, Note_on_c, 0, 54, 41
2,262927, Control_c, 0, 64, 42
2,262947, Control_c, 0, 64, 0
2,262966, Control_c, 0, 64, 11
2,262978, Note_on_c, 0, 56, 0
2,262986, Control_c, 0, 64, 44
2,262991, Note_on_c, 0, 65, 0
2,263004, Control_c, 0, 64, 59
2,263024, Control_c, 0, 64, 64
2,263043, Control_c, 0, 64, 68
2,263044, Note_on_c, 0, 51, 0
2,263062, Control_c, 0, 64, 71
2,263081, Control_c, 0, 64, 77
2,263101, Control_c, 0, 64, 82
2,263102, Note_on_c, 0, 54, 0
2,263120, Control_c, 0, 64, 87
2,263139, Control_c, 0, 64, 91
2,263158, Control_c, 0, 64, 95
2,263178, Control_c, 0, 64, 98
2,263197, Control_c, 0, 64, 100
2,263216, Control_c, 0, 64, 101
2,263275, Control_c, 0, 64, 100
2,263295, Control_c, 0, 64, 92
2,263301, Note_on_c, 0, 68, 57
2,263303, Note_on_c, 0, 53, 45
2,263306, Note_on_c, 0, 50, 41
2,263314, Control_c, 0, 64, 75
2,263333, Control_c, 0, 64, 63
2,263352, Control_c, 0, 64, 9
2,263362, Note_on_c, 0, 66, 0
2,263372, Control_c, 0, 64, 0
2,263467, Control_c, 0, 64, 36
2,263486, Control_c, 0, 64, 56
2,263506, Control_c, 0, 64, 62
2,263525, Control_c, 0, 64, 64
2,263563, Control_c, 0, 64, 63
2,263583, Control_c, 0, 64, 62
2,263602, Control_c, 0, 64, 55
2,263621, Control_c, 0, 64, 40
2,263640, Control_c, 0, 64, 0
2,263642, Note_on_c, 0, 50, 0
2,263667, Note_on_c, 0, 51, 45
2,263693, Note_on_c, 0, 53, 0
2,263694, Note_on_c, 0, 48, 38
2,264102, Note_on_c, 0, 50, 45
2,264103, Note_on_c, 0, 48, 0
2,264104, Note_on_c, 0, 51, 0
2,264124, Note_on_c, 0, 46, 40
2,264351, Control_c, 0, 64, 24
2,264369, Control_c, 0, 64, 45
2,264389, Control_c, 0, 64, 48
2,264408, Control_c, 0, 64, 50
2,264427, Control_c, 0, 64, 50
2,264466, Control_c, 0, 64, 47
2,264484, Note_on_c, 0, 65, 45
2,264485, Control_c, 0, 64, 38
2,264504, Control_c, 0, 64, 0
2,264539, Note_on_c, 0, 68, 0
2,264877, Note_on_c, 0, 62, 48
2,264920, Note_on_c, 0, 65, 0
2,265062, Control_c, 0, 64, 50
2,265081, Control_c, 0, 64, 59
2,265101, Control_c, 0, 64, 63
2,265119, Control_c, 0, 64, 64
2,265139, Control_c, 0, 64, 65
2,265158, Control_c, 0, 64, 66
2,265177, Control_c, 0, 64, 68
2,265196, Control_c, 0, 64, 71
2,265216, Control_c, 0, 64, 73
2,265235, Control_c, 0, 64, 72
2,265254, Control_c, 0, 64, 67
2,265256, Note_on_c, 0, 51, 44
2,265273, Control_c, 0, 64, 59
2,265293, Control_c, 0, 64, 35
2,265298, Note_on_c, 0, 50, 0
2,265312, Control_c, 0, 64, 0
2,265369, Control_c, 0, 64, 37
2,265388, Control_c, 0, 64, 60
2,265407, Control_c, 0, 64, 65
2,265427, Control_c, 0, 64, 67
2,265446, Control_c, 0, 64, 71
2,265465, Control_c, 0, 64, 76
2,265484, Control_c, 0, 64, 83
2,265504, Control_c, 0, 64, 91
2,265522, Control_c, 0, 64, 107
2,265542, Control_c, 0, 64, 127
2,265599, Control_c, 0, 64, 117
2,265619, Control_c, 0, 64, 87
2,265638, Control_c, 0, 64, 70
2,265651, Note_on_c, 0, 53, 45
2,265657, Control_c, 0, 64, 55
2,265676, Control_c, 0, 64, 41
2,265682, Note_on_c, 0, 51, 0
2,265696, Control_c, 0, 64, 49
2,265713, Note_on_c, 0, 46, 0
2,265715, Control_c, 0, 64, 59
2,265734, Control_c, 0, 64, 64
2,265738, Note_on_c, 0, 62, 0
2,265753, Control_c, 0, 64, 68
2,265773, Control_c, 0, 64, 73
2,265792, Control_c, 0, 64, 84
2,265811, Control_c, 0, 64, 96
2,265830, Control_c, 0, 64, 117
2,265849, Control_c, 0, 64, 127
2,266035, Note_on_c, 0, 62, 50
2,266041, Control_c, 0, 64, 90
2,266056, Note_on_c, 0, 44, 38
2,266061, Control_c, 0, 64, 67
2,266072, Note_on_c, 0, 53, 0
2,266079, Control_c, 0, 64, 47
2,266099, Control_c, 0, 64, 0
2,266137, Control_c, 0, 64, 39
2,266156, Control_c, 0, 64, 58
2,266176, Control_c, 0, 64, 64
2,266195, Control_c, 0, 64, 67
2,266214, Control_c, 0, 64, 73
2,266233, Control_c, 0, 64, 82
2,266253, Control_c, 0, 64, 92
2,266272, Control_c, 0, 64, 104
2,266291, Control_c, 0, 64, 119
2,266310, Control_c, 0, 64, 127
2,266387, Control_c, 0, 64, 106
2,266406, Control_c, 0, 64, 85
2,266425, Control_c, 0, 64, 69
2,266428, Note_on_c, 0, 63, 45
2,266436, Note_on_c, 0, 42, 38
2,266444, Control_c, 0, 64, 52
2,266453, Note_on_c, 0, 54, 34
2,266464, Control_c, 0, 64, 0
2,266489, Note_on_c, 0, 62, 0
2,266521, Control_c, 0, 64, 42
2,266538, Note_on_c, 0, 44, 0
2,266541, Control_c, 0, 64, 60
2,266559, Control_c, 0, 64, 65
2,266566, Note_on_c, 0, 42, 0
2,266579, Control_c, 0, 64, 68
2,266598, Control_c, 0, 64, 74
2,266601, Note_on_c, 0, 54, 0
2,266617, Control_c, 0, 64, 82
2,266636, Control_c, 0, 64, 91
2,266656, Control_c, 0, 64, 101
2,266675, Control_c, 0, 64, 110
2,266694, Control_c, 0, 64, 123
2,266713, Control_c, 0, 64, 127
2,266768, Control_c, 0, 64, 108
2,266788, Control_c, 0, 64, 87
2,266807, Control_c, 0, 64, 70
2,266820, Note_on_c, 0, 65, 50
2,266827, Control_c, 0, 64, 57
2,266840, Note_on_c, 0, 41, 39
2,266845, Control_c, 0, 64, 19
2,266848, Note_on_c, 0, 63, 0
2,266849, Note_on_c, 0, 56, 51
2,266865, Control_c, 0, 64, 9
2,266884, Control_c, 0, 64, 45
2,266903, Control_c, 0, 64, 60
2,266922, Control_c, 0, 64, 65
2,266923, Note_on_c, 0, 56, 0
2,266942, Control_c, 0, 64, 70
2,266943, Note_on_c, 0, 41, 0
2,266961, Control_c, 0, 64, 78
2,266980, Control_c, 0, 64, 90
2,266992, Note_on_c, 0, 65, 0
2,266999, Control_c, 0, 64, 107
2,267019, Control_c, 0, 64, 127
2,267245, Note_on_c, 0, 66, 61
2,267248, Control_c, 0, 64, 102
2,267249, Note_on_c, 0, 39, 48
2,267254, Note_on_c, 0, 58, 49
2,267268, Control_c, 0, 64, 77
2,267287, Control_c, 0, 64, 63
2,267307, Control_c, 0, 64, 27
2,267325, Control_c, 0, 64, 0
2,267345, Control_c, 0, 64, 29
2,267364, Control_c, 0, 64, 54
2,267383, Control_c, 0, 64, 63
2,267393, Note_on_c, 0, 58, 0
2,267402, Control_c, 0, 64, 67
2,267422, Control_c, 0, 64, 72
2,267441, Control_c, 0, 64, 84
2,267460, Control_c, 0, 64, 99
2,267479, Control_c, 0, 64, 127
2,267633, Control_c, 0, 64, 115
2,267634, Note_on_c, 0, 39, 0
2,267643, Note_on_c, 0, 49, 52
2,267645, Note_on_c, 0, 67, 67
2,267652, Control_c, 0, 64, 82
2,267667, Note_on_c, 0, 58, 54
2,267671, Control_c, 0, 64, 66
2,267691, Control_c, 0, 64, 47
2,267710, Control_c, 0, 64, 9
2,267712, Note_on_c, 0, 66, 0
2,267728, Control_c, 0, 64, 34
2,267748, Control_c, 0, 64, 56
2,267767, Control_c, 0, 64, 64
2,267787, Control_c, 0, 64, 68
2,267787, Note_on_c, 0, 58, 0
2,267789, Note_on_c, 0, 67, 0
2,267805, Control_c, 0, 64, 74
2,267825, Control_c, 0, 64, 84
2,267844, Control_c, 0, 64, 95
2,267863, Control_c, 0, 64, 110
2,267882, Control_c, 0, 64, 127
2,267962, Note_on_c, 0, 49, 0
2,268018, Note_on_c, 0, 68, 77
2,268030, Note_on_c, 0, 47, 58
2,268042, Note_on_c, 0, 59, 61
2,268057, Control_c, 0, 64, 90
2,268075, Control_c, 0, 64, 70
2,268095, Control_c, 0, 64, 57
2,268114, Control_c, 0, 64, 38
2,268133, Control_c, 0, 64, 44
2,268152, Control_c, 0, 64, 57
2,268172, Control_c, 0, 64, 64
2,268191, Control_c, 0, 64, 68
2,268209, Control_c, 0, 64, 76
2,268229, Control_c, 0, 64, 92
2,268248, Control_c, 0, 64, 127
2,268305, Note_on_c, 0, 59, 0
2,268363, Control_c, 0, 64, 88
2,268383, Control_c, 0, 64, 70
2,268387, Note_on_c, 0, 70, 79
2,268396, Note_on_c, 0, 46, 61
2,268399, Note_on_c, 0, 61, 65
2,268402, Control_c, 0, 64, 57
2,268408, Note_on_c, 0, 47, 0
2,268421, Control_c, 0, 64, 50
2,268440, Control_c, 0, 64, 57
2,268445, Note_on_c, 0, 68, 0
2,268460, Control_c, 0, 64, 63
2,268470, Note_on_c, 0, 61, 0
2,268478, Control_c, 0, 64, 67
2,268498, Control_c, 0, 64, 74
2,268504, Note_on_c, 0, 70, 0
2,268517, Control_c, 0, 64, 86
2,268537, Control_c, 0, 64, 108
2,268555, Control_c, 0, 64, 127
2,268741, Note_on_c, 0, 46, 0
2,268754, Note_on_c, 0, 44, 64
2,268762, Note_on_c, 0, 71, 77
2,268764, Control_c, 0, 64, 86
2,268778, Note_on_c, 0, 63, 64
2,268784, Control_c, 0, 64, 66
2,268803, Control_c, 0, 64, 36
2,268822, Control_c, 0, 64, 0
2,268880, Control_c, 0, 64, 53
2,268899, Control_c, 0, 64, 64
2,268918, Control_c, 0, 64, 68
2,268919, Note_on_c, 0, 63, 0
2,268938, Control_c, 0, 64, 75
2,268957, Control_c, 0, 64, 87
2,268976, Control_c, 0, 64, 101
2,268995, Control_c, 0, 64, 127
2,269151, Control_c, 0, 64, 103
2,269160, Note_on_c, 0, 72, 80
2,269162, Note_on_c, 0, 54, 70
2,269169, Control_c, 0, 64, 74
2,269177, Note_on_c, 0, 71, 0
2,269179, Note_on_c, 0, 63, 69
2,269183, Note_on_c, 0, 44, 0
2,269189, Control_c, 0, 64, 58
2,269208, Control_c, 0, 64, 0
2,269246, Control_c, 0, 64, 29
2,269266, Control_c, 0, 64, 58
2,269285, Control_c, 0, 64, 66
2,269304, Control_c, 0, 64, 72
2,269310, Note_on_c, 0, 63, 0
2,269323, Control_c, 0, 64, 84
2,269343, Control_c, 0, 64, 102
2,269355, Note_on_c, 0, 72, 0
2,269362, Control_c, 0, 64, 127
2,269395, Note_on_c, 0, 54, 0
2,269555, Note_on_c, 0, 74, 83
2,269557, Note_on_c, 0, 53, 72
2,269567, Note_on_c, 0, 65, 71
2,269573, Control_c, 0, 64, 82
2,269592, Control_c, 0, 64, 63
2,269612, Control_c, 0, 64, 0
2,269688, Control_c, 0, 64, 51
2,269707, Control_c, 0, 64, 64
2,269726, Control_c, 0, 64, 69
2,269746, Control_c, 0, 64, 76
2,269754, Note_on_c, 0, 65, 0
2,269757, Note_on_c, 0, 74, 0
2,269765, Control_c, 0, 64, 86
2,269784, Control_c, 0, 64, 98
2,269803, Control_c, 0, 64, 110
2,269823, Control_c, 0, 64, 127
2,269980, Note_on_c, 0, 75, 90
2,269988, Note_on_c, 0, 51, 72
2,269988, Note_on_c, 0, 66, 71
2,269995, Control_c, 0, 64, 106
2,270015, Control_c, 0, 64, 75
2,270018, Note_on_c, 0, 53, 0
2,270034, Control_c, 0, 64, 56
2,270053, Control_c, 0, 64, 0
2,270111, Control_c, 0, 64, 19
2,270129, Control_c, 0, 64, 57
2,270149, Control_c, 0, 64, 65
2,270168, Control_c, 0, 64, 70
2,270187, Control_c, 0, 64, 81
2,270206, Control_c, 0, 64, 93
2,270226, Control_c, 0, 64, 107
2,270245, Control_c, 0, 64, 119
2,270264, Control_c, 0, 64, 127
2,270280, Note_on_c, 0, 66, 0
2,270290, Note_on_c, 0, 75, 0
2,270476, Note_on_c, 0, 58, 65
2,270537, Note_on_c, 0, 75, 88
2,270555, Note_on_c, 0, 65, 66
2,270561, Note_on_c, 0, 51, 0
2,270590, Control_c, 0, 64, 94
2,270608, Control_c, 0, 64, 67
2,270628, Control_c, 0, 64, 0
2,271042, Note_on_c, 0, 71, 78
2,271597, Note_on_c, 0, 46, 50
2,271603, Note_on_c, 0, 74, 72
2,271616, Note_on_c, 0, 70, 64
2,271623, Note_on_c, 0, 65, 0
2,271654, Note_on_c, 0, 75, 0
2,271664, Note_on_c, 0, 71, 0
2,271687, Note_on_c, 0, 58, 0
2,271896, Control_c, 0, 64, 15
2,271914, Control_c, 0, 64, 59
2,271934, Control_c, 0, 64, 64
2,271953, Control_c, 0, 64, 65
2,271973, Control_c, 0, 64, 66
2,271991, Control_c, 0, 64, 68
2,272010, Control_c, 0, 64, 74
2,272030, Control_c, 0, 64, 85
2,272048, Control_c, 0, 64, 112
2,272068, Control_c, 0, 64, 127
2,272323, Note_on_c, 0, 68, 73
2,272342, Note_on_c, 0, 46, 0
2,272424, Note_on_c, 0, 70, 0
2,272757, Note_on_c, 0, 74, 0
2,273830, Note_on_c, 0, 75, 52
2,273831, Note_on_c, 0, 39, 40
2,273843, Note_on_c, 0, 51, 32
2,273843, Note_on_c, 0, 67, 39
2,273853, Control_c, 0, 64, 115
2,273872, Control_c, 0, 64, 76
2,273891, Control_c, 0, 64, 57
2,273891, Note_on_c, 0, 68, 0
2,273910, Control_c, 0, 64, 0
2,274424, Control_c, 0, 64, 32
2,274442, Control_c, 0, 64, 53
2,274462, Control_c, 0, 64, 58
2,274481, Control_c, 0, 64, 60
2,274500, Control_c, 0, 64, 62
2,274519, Control_c, 0, 64, 64
2,274539, Control_c, 0, 64, 66
2,274558, Control_c, 0, 64, 70
2,274576, Control_c, 0, 64, 77
2,274596, Control_c, 0, 64, 87
2,274614, Control_c, 0, 64, 97
2,274631, Control_c, 0, 64, 110
2,274651, Control_c, 0, 64, 127
2,276077, Note_on_c, 0, 51, 0
2,276522, Note_on_c, 0, 39, 0
2,276634, Note_on_c, 0, 67, 0
2,276723, Note_on_c, 0, 75, 0
2,277451, Control_c, 0, 64, 116
2,277470, Control_c, 0, 64, 112
2,277490, Control_c, 0, 64, 109
2,277508, Control_c, 0, 64, 106
2,277528, Control_c, 0, 64, 102
2,277547, Control_c, 0, 64, 97
2,277566, Control_c, 0, 64, 88
2,277585, Control_c, 0, 64, 78
2,277604, Control_c, 0, 64, 70
2,277625, Control_c, 0, 64, 64
2,277643, Control_c, 0, 64, 54
2,277663, Control_c, 0, 64, 29
2,277682, Control_c, 0, 64, 0
2,277683, End_track
0, 0, End_of_file
