0, 0, Header, 1, 2, 480
1, 0, Start_track
1, 0, Tempo, 500000
1, 0, Time_signature, 4, 2, 24, 8
1, 1, End_track
2, 0, Start_track
2, 0, Program_c, 0, 0
2, 0, Control_c, 0, 64, 76
2, 756, Control_c, 0, 64, 76
2, 833, Control_c, 0, 64, 75
2, 851, Control_c, 0, 64, 75
2, 890, Control_c, 0, 64, 74
2, 928, Control_c, 0, 64, 74
2, 946, Control_c, 0, 64, 73
2, 960, Note_on_c, 0, 70, 48
2, 965, Control_c, 0, 64, 73
2, 973, Note_on_c, 0, 66, 39
2, 984, Control_c, 0, 64, 72
2, 1003, Control_c, 0, 64, 71
2, 1004, Note_on_c, 0, 63, 31
2, 1023, Control_c, 0, 64, 69
2, 1042, Control_c, 0, 64, 67
2, 1061, Control_c, 0, 64, 65
2, 1080, Control_c, 0, 64, 64
2, 1099, Control_c, 0, 64, 62
2, 1118, Control_c, 0, 64, 60
2, 1137, Control_c, 0, 64, 58
2, 1157, Control_c, 0, 64, 57
2, 1176, Control_c, 0, 64, 56
2, 1195, Control_c, 0, 64, 57
2, 1214, Control_c, 0, 64, 58
2, 1234, Control_c, 0, 64, 60
2, 1253, Control_c, 0, 64, 62
2, 1272, Control_c, 0, 64, 63
2, 1291, Control_c, 0, 64, 64
2, 1311, Control_c, 0, 64, 65
2, 1329, Control_c, 0, 64, 66
2, 1348, Control_c, 0, 64, 67
2, 1367, Control_c, 0, 64, 68
2, 1387, Control_c, 0, 64, 70
2, 1405, Control_c, 0, 64, 72
2, 1425, Control_c, 0, 64, 73
2, 1444, Control_c, 0, 64, 74
2, 1482, Control_c, 0, 64, 75
2, 1521, Control_c, 0, 64, 75
2, 1539, Control_c, 0, 64, 76
2, 1559, Control_c, 0, 64, 76
2, 1578, Control_c, 0, 64, 77
2, 1583, Note_on_c, 0, 66, 0
2, 1598, Control_c, 0, 64, 77
2, 1612, Note_on_c, 0, 63, 0
2, 1905, Control_c, 0, 64, 77
2, 2039, Control_c, 0, 64, 76
2, 2154, Control_c, 0, 64, 76
2, 2193, Control_c, 0, 64, 75
2, 2250, Control_c, 0, 64, 75
2, 2288, Control_c, 0, 64, 74
2, 2308, Control_c, 0, 64, 73
2, 2327, Control_c, 0, 64, 72
2, 2335, Note_on_c, 0, 66, 26
2, 2347, Control_c, 0, 64, 71
2, 2352, Note_on_c, 0, 63, 27
2, 2365, Control_c, 0, 64, 70
2, 2368, Note_on_c, 0, 70, 0
2, 2385, Control_c, 0, 64, 68
2, 2404, Control_c, 0, 64, 66
2, 2423, Control_c, 0, 64, 64
2, 2442, Control_c, 0, 64, 62
2, 2462, Control_c, 0, 64, 59
2, 2481, Control_c, 0, 64, 56
2, 2499, Control_c, 0, 64, 53
2, 2519, Control_c, 0, 64, 51
2, 2538, Control_c, 0, 64, 50
2, 2558, Control_c, 0, 64, 50
2, 2576, Control_c, 0, 64, 51
2, 2596, Control_c, 0, 64, 54
2, 2615, Control_c, 0, 64, 57
2, 2634, Control_c, 0, 64, 60
2, 2653, Control_c, 0, 64, 62
2, 2673, Control_c, 0, 64, 63
2, 2692, Control_c, 0, 64, 64
2, 2711, Control_c, 0, 64, 65
2, 2730, Control_c, 0, 64, 65
2, 2750, Control_c, 0, 64, 66
2, 2768, Control_c, 0, 64, 67
2, 2788, Control_c, 0, 64, 67
2, 2807, Control_c, 0, 64, 68
2, 2827, Control_c, 0, 64, 69
2, 2845, Control_c, 0, 64, 69
2, 2865, Control_c, 0, 64, 70
2, 2884, Control_c, 0, 64, 71
2, 2903, Control_c, 0, 64, 72
2, 2915, Note_on_c, 0, 66, 0
2, 2921, Control_c, 0, 64, 72
2, 2940, Control_c, 0, 64, 73
2, 2963, Note_on_c, 0, 63, 0
2, 2978, Control_c, 0, 64, 73
2, 3055, Control_c, 0, 64, 74
2, 3094, Control_c, 0, 64, 74
2, 3113, Control_c, 0, 64, 75
2, 3289, Control_c, 0, 64, 74
2, 3478, Control_c, 0, 64, 74
2, 3540, Note_on_c, 0, 70, 43
2, 3593, Control_c, 0, 64, 73
2, 3670, Control_c, 0, 64, 73
2, 3709, Control_c, 0, 64, 72
2, 3747, Control_c, 0, 64, 72
2, 3786, Control_c, 0, 64, 71
2, 3804, Control_c, 0, 64, 71
2, 3824, Control_c, 0, 64, 70
2, 3843, Control_c, 0, 64, 69
2, 3862, Control_c, 0, 64, 67
2, 3865, Note_on_c, 0, 75, 56
2, 3881, Control_c, 0, 64, 66
2, 3892, Note_on_c, 0, 70, 0
2, 3897, Note_on_c, 0, 66, 29
2, 3900, Control_c, 0, 64, 64
2, 3912, Note_on_c, 0, 63, 26
2, 3920, Control_c, 0, 64, 62
2, 3938, Control_c, 0, 64, 59
2, 3958, Control_c, 0, 64, 55
2, 3977, Control_c, 0, 64, 51
2, 3997, Control_c, 0, 64, 47
2, 4015, Control_c, 0, 64, 46
2, 4035, Control_c, 0, 64, 47
2, 4054, Control_c, 0, 64, 48
2, 4073, Control_c, 0, 64, 51
2, 4092, Control_c, 0, 64, 55
2, 4112, Control_c, 0, 64, 59
2, 4131, Control_c, 0, 64, 61
2, 4150, Control_c, 0, 64, 63
2, 4169, Control_c, 0, 64, 64
2, 4189, Control_c, 0, 64, 64
2, 4207, Control_c, 0, 64, 65
2, 4227, Control_c, 0, 64, 66
2, 4246, Control_c, 0, 64, 67
2, 4266, Control_c, 0, 64, 68
2, 4284, Control_c, 0, 64, 69
2, 4294, Note_on_c, 0, 66, 0
2, 4303, Control_c, 0, 64, 70
2, 4322, Control_c, 0, 64, 71
2, 4342, Control_c, 0, 64, 71
2, 4345, Note_on_c, 0, 63, 0
2, 4360, Control_c, 0, 64, 72
2, 4379, Control_c, 0, 64, 72
2, 4417, Control_c, 0, 64, 73
2, 4456, Control_c, 0, 64, 73
2, 4476, Control_c, 0, 64, 74
2, 4514, Control_c, 0, 64, 74
2, 4822, Control_c, 0, 64, 74
2, 4917, Control_c, 0, 64, 73
2, 5003, Note_on_c, 0, 78, 53
2, 5013, Control_c, 0, 64, 73
2, 5051, Control_c, 0, 64, 72
2, 5062, Note_on_c, 0, 75, 0
2, 5148, Control_c, 0, 64, 72
2, 5167, Control_c, 0, 64, 71
2, 5205, Control_c, 0, 64, 71
2, 5243, Control_c, 0, 64, 70
2, 5282, Control_c, 0, 64, 70
2, 5339, Control_c, 0, 64, 69
2, 5359, Control_c, 0, 64, 68
2, 5363, Note_on_c, 0, 71, 49
2, 5370, Note_on_c, 0, 78, 0
2, 5377, Control_c, 0, 64, 67
2, 5397, Control_c, 0, 64, 66
2, 5406, Note_on_c, 0, 68, 29
2, 5412, Note_on_c, 0, 63, 25
2, 5416, Control_c, 0, 64, 63
2, 5436, Control_c, 0, 64, 60
2, 5454, Control_c, 0, 64, 56
2, 5474, Control_c, 0, 64, 50
2, 5493, Control_c, 0, 64, 43
2, 5512, Control_c, 0, 64, 36
2, 5531, Control_c, 0, 64, 32
2, 5570, Control_c, 0, 64, 36
2, 5589, Control_c, 0, 64, 45
2, 5608, Control_c, 0, 64, 52
2, 5628, Control_c, 0, 64, 58
2, 5647, Control_c, 0, 64, 61
2, 5666, Control_c, 0, 64, 63
2, 5685, Control_c, 0, 64, 64
2, 5705, Control_c, 0, 64, 64
2, 5723, Control_c, 0, 64, 65
2, 5737, Note_on_c, 0, 68, 0
2, 5743, Control_c, 0, 64, 66
2, 5762, Control_c, 0, 64, 67
2, 5782, Control_c, 0, 64, 67
2, 5800, Control_c, 0, 64, 68
2, 5819, Control_c, 0, 64, 69
2, 5820, Note_on_c, 0, 63, 0
2, 5839, Control_c, 0, 64, 70
2, 5857, Control_c, 0, 64, 71
2, 5875, Note_on_c, 0, 71, 0
2, 5877, Control_c, 0, 64, 71
2, 6203, Control_c, 0, 64, 71
2, 6318, Control_c, 0, 64, 70
2, 6413, Control_c, 0, 64, 70
2, 6529, Control_c, 0, 64, 69
2, 6587, Control_c, 0, 64, 69
2, 6644, Control_c, 0, 64, 68
2, 6682, Control_c, 0, 64, 68
2, 6740, Control_c, 0, 64, 67
2, 6759, Control_c, 0, 64, 67
2, 6778, Control_c, 0, 64, 66
2, 6798, Control_c, 0, 64, 66
2, 6801, Note_on_c, 0, 71, 19
2, 6804, Note_on_c, 0, 68, 7
2, 6817, Control_c, 0, 64, 64
2, 6818, Note_on_c, 0, 63, 19
2, 6836, Control_c, 0, 64, 63
2, 6855, Control_c, 0, 64, 61
2, 6875, Control_c, 0, 64, 58
2, 6893, Control_c, 0, 64, 54
2, 6913, Control_c, 0, 64, 46
2, 6932, Control_c, 0, 64, 38
2, 6952, Control_c, 0, 64, 25
2, 6970, Control_c, 0, 64, 13
2, 6990, Control_c, 0, 64, 11
2, 7009, Control_c, 0, 64, 18
2, 7028, Control_c, 0, 64, 31
2, 7047, Control_c, 0, 64, 44
2, 7067, Control_c, 0, 64, 52
2, 7086, Control_c, 0, 64, 57
2, 7105, Control_c, 0, 64, 59
2, 7124, Control_c, 0, 64, 61
2, 7144, Control_c, 0, 64, 62
2, 7162, Control_c, 0, 64, 63
2, 7182, Control_c, 0, 64, 64
2, 7220, Control_c, 0, 64, 64
2, 7240, Note_on_c, 0, 68, 0
2, 7278, Control_c, 0, 64, 65
2, 7297, Control_c, 0, 64, 65
2, 7299, Note_on_c, 0, 63, 0
2, 7316, Control_c, 0, 64, 66
2, 7335, Control_c, 0, 64, 66
2, 7373, Control_c, 0, 64, 67
2, 7470, Control_c, 0, 64, 67
2, 7681, Control_c, 0, 64, 68
2, 7719, Control_c, 0, 64, 68
2, 7758, Control_c, 0, 64, 69
2, 7835, Control_c, 0, 64, 69
2, 7873, Control_c, 0, 64, 70
2, 7892, Control_c, 0, 64, 70
2, 7930, Control_c, 0, 64, 71
2, 8008, Note_on_c, 0, 75, 54
2, 8069, Note_on_c, 0, 71, 0
2, 8257, Control_c, 0, 64, 70
2, 8296, Control_c, 0, 64, 69
2, 8316, Control_c, 0, 64, 68
2, 8324, Note_on_c, 0, 80, 68
2, 8334, Control_c, 0, 64, 64
2, 8337, Note_on_c, 0, 71, 45
2, 8354, Control_c, 0, 64, 58
2, 8354, Note_on_c, 0, 68, 32
2, 8360, Note_on_c, 0, 63, 37
2, 8369, Note_on_c, 0, 75, 0
2, 8373, Control_c, 0, 64, 44
2, 8392, Control_c, 0, 64, 24
2, 8411, Control_c, 0, 64, 0
2, 8469, Control_c, 0, 64, 30
2, 8488, Control_c, 0, 64, 49
2, 8508, Control_c, 0, 64, 59
2, 8527, Control_c, 0, 64, 62
2, 8546, Control_c, 0, 64, 64
2, 8565, Control_c, 0, 64, 65
2, 8585, Control_c, 0, 64, 66
2, 8603, Control_c, 0, 64, 66
2, 8623, Control_c, 0, 64, 67
2, 8642, Control_c, 0, 64, 69
2, 8661, Control_c, 0, 64, 70
2, 8680, Control_c, 0, 64, 71
2, 8699, Control_c, 0, 64, 72
2, 8719, Control_c, 0, 64, 73
2, 8737, Control_c, 0, 64, 74
2, 8752, Note_on_c, 0, 68, 0
2, 8757, Control_c, 0, 64, 75
2, 8776, Control_c, 0, 64, 76
2, 8853, Control_c, 0, 64, 75
2, 8876, Note_on_c, 0, 63, 0
2, 8949, Control_c, 0, 64, 76
2, 9046, Control_c, 0, 64, 75
2, 9429, Control_c, 0, 64, 75
2, 9477, Note_on_c, 0, 83, 61
2, 9662, Control_c, 0, 64, 74
2, 9780, Note_on_c, 0, 83, 0
2, 9797, Control_c, 0, 64, 74
2, 9826, Note_on_c, 0, 74, 54
2, 9835, Control_c, 0, 64, 73
2, 9854, Control_c, 0, 64, 71
2, 9870, Note_on_c, 0, 65, 27
2, 9874, Control_c, 0, 64, 68
2, 9890, Note_on_c, 0, 68, 28
2, 9893, Control_c, 0, 64, 65
2, 9900, Note_on_c, 0, 63, 25
2, 9900, Note_on_c, 0, 71, 0
2, 9911, Control_c, 0, 64, 61
2, 9931, Control_c, 0, 64, 56
2, 9947, Note_on_c, 0, 80, 0
2, 9950, Control_c, 0, 64, 47
2, 9970, Control_c, 0, 64, 30
2, 9988, Control_c, 0, 64, 0
2, 10142, Control_c, 0, 64, 35
2, 10162, Control_c, 0, 64, 54
2, 10180, Control_c, 0, 64, 59
2, 10200, Control_c, 0, 64, 62
2, 10219, Control_c, 0, 64, 63
2, 10239, Control_c, 0, 64, 64
2, 10257, Control_c, 0, 64, 65
2, 10277, Control_c, 0, 64, 66
2, 10296, Control_c, 0, 64, 67
2, 10315, Control_c, 0, 64, 68
2, 10334, Control_c, 0, 64, 69
2, 10354, Control_c, 0, 64, 70
2, 10373, Control_c, 0, 64, 71
2, 10391, Control_c, 0, 64, 71
2, 10411, Control_c, 0, 64, 72
2, 10412, Note_on_c, 0, 68, 0
2, 10430, Control_c, 0, 64, 73
2, 10450, Control_c, 0, 64, 73
2, 10462, Note_on_c, 0, 65, 0
2, 10468, Control_c, 0, 64, 74
2, 10488, Control_c, 0, 64, 75
2, 10506, Note_on_c, 0, 63, 0
2, 10507, Control_c, 0, 64, 76
2, 10526, Control_c, 0, 64, 76
2, 10584, Control_c, 0, 64, 77
2, 10622, Control_c, 0, 64, 77
2, 10776, Control_c, 0, 64, 77
2, 10891, Control_c, 0, 64, 76
2, 10970, Control_c, 0, 64, 76
2, 11045, Control_c, 0, 64, 75
2, 11102, Control_c, 0, 64, 75
2, 11160, Control_c, 0, 64, 74
2, 11217, Control_c, 0, 64, 74
2, 11218, Note_on_c, 0, 74, 0
2, 11237, Control_c, 0, 64, 73
2, 11256, Control_c, 0, 64, 72
2, 11263, Note_on_c, 0, 65, 21
2, 11270, Note_on_c, 0, 62, 26
2, 11274, Note_on_c, 0, 68, 30
2, 11275, Control_c, 0, 64, 71
2, 11294, Control_c, 0, 64, 69
2, 11314, Control_c, 0, 64, 67
2, 11333, Control_c, 0, 64, 65
2, 11351, Control_c, 0, 64, 62
2, 11371, Control_c, 0, 64, 58
2, 11390, Control_c, 0, 64, 54
2, 11410, Control_c, 0, 64, 46
2, 11428, Control_c, 0, 64, 40
2, 11448, Control_c, 0, 64, 32
2, 11467, Control_c, 0, 64, 22
2, 11486, Control_c, 0, 64, 11
2, 11505, Control_c, 0, 64, 0
2, 11602, Control_c, 0, 64, 20
2, 11620, Control_c, 0, 64, 36
2, 11640, Control_c, 0, 64, 47
2, 11659, Control_c, 0, 64, 55
2, 11679, Control_c, 0, 64, 59
2, 11697, Control_c, 0, 64, 61
2, 11717, Control_c, 0, 64, 62
2, 11736, Control_c, 0, 64, 63
2, 11755, Control_c, 0, 64, 64
2, 11774, Control_c, 0, 64, 64
2, 11793, Control_c, 0, 64, 65
2, 11813, Control_c, 0, 64, 65
2, 11831, Control_c, 0, 64, 66
2, 11870, Control_c, 0, 64, 66
2, 11890, Control_c, 0, 64, 67
2, 11909, Control_c, 0, 64, 67
2, 11929, Control_c, 0, 64, 68
2, 11948, Control_c, 0, 64, 70
2, 11967, Control_c, 0, 64, 71
2, 11985, Control_c, 0, 64, 72
2, 12005, Control_c, 0, 64, 72
2, 12082, Control_c, 0, 64, 73
2, 12121, Note_on_c, 0, 62, 0
2, 12265, Note_on_c, 0, 65, 0
2, 12426, Note_on_c, 0, 77, 46
2, 12465, Control_c, 0, 64, 72
2, 12525, Note_on_c, 0, 68, 0
2, 12600, Control_c, 0, 64, 72
2, 12639, Control_c, 0, 64, 71
2, 12648, Note_on_c, 0, 62, 22
2, 12677, Control_c, 0, 64, 71
2, 12715, Control_c, 0, 64, 70
2, 12723, Note_on_c, 0, 77, 0
2, 12734, Control_c, 0, 64, 70
2, 12753, Control_c, 0, 64, 69
2, 12773, Control_c, 0, 64, 67
2, 12773, Note_on_c, 0, 65, 25
2, 12791, Control_c, 0, 64, 66
2, 12792, Note_on_c, 0, 70, 48
2, 12811, Control_c, 0, 64, 65
2, 12830, Control_c, 0, 64, 64
2, 12847, Note_on_c, 0, 70, 0
2, 12850, Control_c, 0, 64, 63
2, 12868, Control_c, 0, 64, 61
2, 12876, Note_on_c, 0, 68, 52
2, 12888, Control_c, 0, 64, 58
2, 12907, Control_c, 0, 64, 53
2, 12926, Control_c, 0, 64, 48
2, 12934, Note_on_c, 0, 68, 0
2, 12946, Control_c, 0, 64, 43
2, 12965, Note_on_c, 0, 70, 58
2, 12966, Control_c, 0, 64, 39
2, 12985, Control_c, 0, 64, 35
2, 13004, Control_c, 0, 64, 31
2, 13023, Control_c, 0, 64, 24
2, 13043, Control_c, 0, 64, 11
2, 13056, Note_on_c, 0, 70, 0
2, 13061, Control_c, 0, 64, 0
2, 13070, Note_on_c, 0, 68, 46
2, 13235, Control_c, 0, 64, 15
2, 13254, Control_c, 0, 64, 25
2, 13272, Control_c, 0, 64, 34
2, 13292, Control_c, 0, 64, 43
2, 13311, Control_c, 0, 64, 51
2, 13330, Control_c, 0, 64, 57
2, 13349, Control_c, 0, 64, 59
2, 13369, Control_c, 0, 64, 60
2, 13388, Control_c, 0, 64, 61
2, 13407, Control_c, 0, 64, 62
2, 13426, Control_c, 0, 64, 63
2, 13446, Control_c, 0, 64, 64
2, 13465, Control_c, 0, 64, 64
2, 13503, Control_c, 0, 64, 65
2, 13561, Control_c, 0, 64, 65
2, 13580, Control_c, 0, 64, 66
2, 13618, Control_c, 0, 64, 66
2, 13695, Control_c, 0, 64, 67
2, 13710, Note_on_c, 0, 68, 0
2, 13772, Control_c, 0, 64, 67
2, 13778, Note_on_c, 0, 66, 39
2, 13810, Control_c, 0, 64, 68
2, 13897, Note_on_c, 0, 66, 0
2, 13950, Note_on_c, 0, 68, 50
2, 14060, Control_c, 0, 64, 67
2, 14060, Note_on_c, 0, 68, 0
2, 14106, Note_on_c, 0, 70, 53
2, 14137, Control_c, 0, 64, 67
2, 14175, Control_c, 0, 64, 66
2, 14214, Control_c, 0, 64, 66
2, 14232, Control_c, 0, 64, 65
2, 14252, Control_c, 0, 64, 64
2, 14260, Note_on_c, 0, 63, 30
2, 14269, Note_on_c, 0, 65, 0
2, 14271, Control_c, 0, 64, 63
2, 14290, Control_c, 0, 64, 63
2, 14309, Control_c, 0, 64, 62
2, 14329, Control_c, 0, 64, 61
2, 14340, Note_on_c, 0, 62, 0
2, 14348, Control_c, 0, 64, 60
2, 14366, Note_on_c, 0, 70, 0
2, 14367, Control_c, 0, 64, 58
2, 14379, Note_on_c, 0, 68, 50
2, 14386, Control_c, 0, 64, 57
2, 14406, Control_c, 0, 64, 56
2, 14425, Control_c, 0, 64, 55
2, 14444, Control_c, 0, 64, 54
2, 14463, Control_c, 0, 64, 52
2, 14483, Control_c, 0, 64, 50
2, 14501, Control_c, 0, 64, 49
2, 14512, Note_on_c, 0, 68, 0
2, 14521, Control_c, 0, 64, 47
2, 14540, Control_c, 0, 64, 46
2, 14556, Note_on_c, 0, 66, 51
2, 14560, Control_c, 0, 64, 44
2, 14578, Control_c, 0, 64, 43
2, 14598, Control_c, 0, 64, 42
2, 14611, Note_on_c, 0, 66, 0
2, 14617, Control_c, 0, 64, 40
2, 14636, Control_c, 0, 64, 39
2, 14655, Control_c, 0, 64, 36
2, 14664, Note_on_c, 0, 68, 54
2, 14675, Control_c, 0, 64, 35
2, 14694, Control_c, 0, 64, 34
2, 14708, Note_on_c, 0, 68, 0
2, 14712, Control_c, 0, 64, 32
2, 14726, Note_on_c, 0, 66, 59
2, 14732, Control_c, 0, 64, 29
2, 14751, Control_c, 0, 64, 26
2, 14770, Control_c, 0, 64, 21
2, 14782, Note_on_c, 0, 66, 0
2, 14787, Control_c, 0, 64, 13
2, 14807, Control_c, 0, 64, 0
2, 14814, Note_on_c, 0, 68, 52
2, 14856, Note_on_c, 0, 68, 0
2, 14904, Note_on_c, 0, 66, 27
2, 14935, Note_on_c, 0, 66, 0
2, 14971, Note_on_c, 0, 68, 47
2, 15024, Note_on_c, 0, 68, 0
2, 15069, Note_on_c, 0, 66, 38
2, 15113, Control_c, 0, 64, 26
2, 15132, Control_c, 0, 64, 39
2, 15151, Control_c, 0, 64, 48
2, 15171, Control_c, 0, 64, 55
2, 15190, Control_c, 0, 64, 58
2, 15209, Control_c, 0, 64, 60
2, 15228, Control_c, 0, 64, 62
2, 15248, Control_c, 0, 64, 63
2, 15266, Control_c, 0, 64, 64
2, 15286, Control_c, 0, 64, 64
2, 15305, Control_c, 0, 64, 65
2, 15331, Note_on_c, 0, 63, 0
2, 15343, Control_c, 0, 64, 65
2, 15382, Control_c, 0, 64, 66
2, 15401, Control_c, 0, 64, 66
2, 15420, Control_c, 0, 64, 67
2, 15440, Control_c, 0, 64, 68
2, 15459, Control_c, 0, 64, 68
2, 15478, Control_c, 0, 64, 69
2, 15670, Control_c, 0, 64, 68
2, 15735, Note_on_c, 0, 65, 33
2, 15827, Control_c, 0, 64, 68
2, 15900, Note_on_c, 0, 65, 0
2, 15933, Note_on_c, 0, 63, 33
2, 15981, Control_c, 0, 64, 67
2, 16058, Control_c, 0, 64, 67
2, 16065, Note_on_c, 0, 66, 0
2, 16077, Control_c, 0, 64, 66
2, 16096, Control_c, 0, 64, 66
2, 16116, Control_c, 0, 64, 64
2, 16135, Control_c, 0, 64, 63
2, 16136, Note_on_c, 0, 63, 0
2, 16153, Control_c, 0, 64, 62
2, 16153, Note_on_c, 0, 78, 48
2, 16173, Control_c, 0, 64, 59
2, 16192, Control_c, 0, 64, 55
2, 16211, Control_c, 0, 64, 47
2, 16230, Control_c, 0, 64, 41
2, 16250, Control_c, 0, 64, 32
2, 16269, Control_c, 0, 64, 20
2, 16288, Control_c, 0, 64, 0
2, 16480, Control_c, 0, 64, 24
2, 16499, Control_c, 0, 64, 40
2, 16519, Control_c, 0, 64, 50
2, 16538, Control_c, 0, 64, 55
2, 16557, Control_c, 0, 64, 58
2, 16576, Control_c, 0, 64, 60
2, 16596, Control_c, 0, 64, 61
2, 16615, Control_c, 0, 64, 62
2, 16633, Control_c, 0, 64, 63
2, 16653, Control_c, 0, 64, 63
2, 16691, Control_c, 0, 64, 64
2, 16728, Control_c, 0, 64, 64
2, 16733, Note_on_c, 0, 78, 0
2, 16766, Control_c, 0, 64, 65
2, 16785, Control_c, 0, 64, 65
2, 16805, Control_c, 0, 64, 66
2, 16824, Control_c, 0, 64, 66
2, 16862, Control_c, 0, 64, 67
2, 16939, Control_c, 0, 64, 67
2, 16959, Control_c, 0, 64, 68
2, 16977, Control_c, 0, 64, 68
2, 17016, Control_c, 0, 64, 69
2, 17188, Control_c, 0, 64, 69
2, 17208, Control_c, 0, 64, 70
2, 17227, Control_c, 0, 64, 70
2, 17261, Note_on_c, 0, 58, 36
2, 17323, Control_c, 0, 64, 71
2, 17362, Control_c, 0, 64, 71
2, 17380, Control_c, 0, 64, 72
2, 17383, Note_on_c, 0, 66, 37
2, 17445, Note_on_c, 0, 70, 50
2, 17553, Control_c, 0, 64, 71
2, 17559, Note_on_c, 0, 75, 40
2, 17573, Control_c, 0, 64, 70
2, 17591, Control_c, 0, 64, 69
2, 17611, Control_c, 0, 64, 67
2, 17615, Note_on_c, 0, 78, 56
2, 17630, Control_c, 0, 64, 65
2, 17637, Note_on_c, 0, 54, 41
2, 17650, Control_c, 0, 64, 62
2, 17668, Control_c, 0, 64, 57
2, 17688, Control_c, 0, 64, 50
2, 17701, Note_on_c, 0, 58, 0
2, 17707, Control_c, 0, 64, 40
2, 17726, Control_c, 0, 64, 27
2, 17745, Control_c, 0, 64, 19
2, 17765, Control_c, 0, 64, 18
2, 17784, Control_c, 0, 64, 21
2, 17803, Control_c, 0, 64, 34
2, 17822, Control_c, 0, 64, 47
2, 17842, Control_c, 0, 64, 56
2, 17860, Control_c, 0, 64, 61
2, 17880, Control_c, 0, 64, 63
2, 17899, Control_c, 0, 64, 64
2, 17919, Control_c, 0, 64, 65
2, 17937, Control_c, 0, 64, 66
2, 17957, Control_c, 0, 64, 68
2, 17976, Control_c, 0, 64, 70
2, 17994, Control_c, 0, 64, 73
2, 18014, Control_c, 0, 64, 76
2, 18033, Control_c, 0, 64, 80
2, 18053, Control_c, 0, 64, 83
2, 18071, Control_c, 0, 64, 86
2, 18091, Control_c, 0, 64, 89
2, 18110, Control_c, 0, 64, 90
2, 18130, Control_c, 0, 64, 91
2, 18148, Control_c, 0, 64, 91
2, 18206, Control_c, 0, 64, 92
2, 18245, Control_c, 0, 64, 92
2, 18260, Note_on_c, 0, 66, 0
2, 18264, Control_c, 0, 64, 93
2, 18283, Control_c, 0, 64, 93
2, 18364, Note_on_c, 0, 78, 0
2, 18415, Note_on_c, 0, 75, 0
2, 18417, Control_c, 0, 64, 94
2, 18423, Note_on_c, 0, 70, 0
2, 18808, Note_on_c, 0, 51, 34
2, 18936, Control_c, 0, 64, 93
2, 18954, Control_c, 0, 64, 93
2, 18958, Note_on_c, 0, 54, 0
2, 18974, Control_c, 0, 64, 92
2, 18993, Control_c, 0, 64, 92
2, 19031, Control_c, 0, 64, 91
2, 19051, Control_c, 0, 64, 91
2, 19090, Control_c, 0, 64, 90
2, 19108, Control_c, 0, 64, 89
2, 19109, Note_on_c, 0, 46, 32
2, 19128, Control_c, 0, 64, 88
2, 19131, Note_on_c, 0, 51, 0
2, 19147, Control_c, 0, 64, 87
2, 19166, Control_c, 0, 64, 86
2, 19185, Control_c, 0, 64, 84
2, 19200, Note_on_c, 0, 66, 35
2, 19205, Control_c, 0, 64, 83
2, 19224, Control_c, 0, 64, 81
2, 19243, Control_c, 0, 64, 79
2, 19262, Control_c, 0, 64, 77
2, 19264, Note_on_c, 0, 70, 47
2, 19282, Control_c, 0, 64, 72
2, 19300, Control_c, 0, 64, 65
2, 19316, Note_on_c, 0, 73, 40
2, 19320, Control_c, 0, 64, 59
2, 19339, Control_c, 0, 64, 50
2, 19359, Control_c, 0, 64, 38
2, 19377, Control_c, 0, 64, 23
2, 19397, Control_c, 0, 64, 18
2, 19429, Note_on_c, 0, 78, 48
2, 19434, Control_c, 0, 64, 27
2, 19454, Control_c, 0, 64, 41
2, 19473, Control_c, 0, 64, 52
2, 19493, Control_c, 0, 64, 59
2, 19511, Control_c, 0, 64, 63
2, 19531, Control_c, 0, 64, 65
2, 19550, Control_c, 0, 64, 66
2, 19570, Control_c, 0, 64, 68
2, 19589, Control_c, 0, 64, 69
2, 19609, Control_c, 0, 64, 72
2, 19628, Control_c, 0, 64, 74
2, 19647, Control_c, 0, 64, 78
2, 19665, Control_c, 0, 64, 80
2, 19685, Control_c, 0, 64, 82
2, 19704, Control_c, 0, 64, 83
2, 19723, Control_c, 0, 64, 83
2, 19742, Control_c, 0, 64, 84
2, 19762, Control_c, 0, 64, 85
2, 19776, Note_on_c, 0, 46, 0
2, 19780, Control_c, 0, 64, 85
2, 19800, Control_c, 0, 64, 86
2, 19819, Control_c, 0, 64, 87
2, 19914, Control_c, 0, 64, 87
2, 20184, Control_c, 0, 64, 87
2, 20217, Note_on_c, 0, 66, 0
2, 20222, Control_c, 0, 64, 86
2, 20376, Control_c, 0, 64, 86
2, 20414, Control_c, 0, 64, 85
2, 20507, Note_on_c, 0, 78, 0
2, 20510, Control_c, 0, 64, 85
2, 20587, Control_c, 0, 64, 84
2, 20590, Note_on_c, 0, 70, 0
2, 20606, Control_c, 0, 64, 84
2, 20643, Control_c, 0, 64, 83
2, 20672, Note_on_c, 0, 46, 24
2, 20681, Control_c, 0, 64, 83
2, 20685, Note_on_c, 0, 73, 0
2, 20725, Note_on_c, 0, 49, 34
2, 20739, Control_c, 0, 64, 82
2, 20758, Control_c, 0, 64, 80
2, 20771, Note_on_c, 0, 54, 34
2, 20777, Control_c, 0, 64, 76
2, 20797, Control_c, 0, 64, 70
2, 20815, Control_c, 0, 64, 64
2, 20834, Control_c, 0, 64, 59
2, 20854, Control_c, 0, 64, 51
2, 20873, Control_c, 0, 64, 41
2, 20892, Control_c, 0, 64, 30
2, 20901, Note_on_c, 0, 58, 36
2, 20911, Control_c, 0, 64, 28
2, 20931, Control_c, 0, 64, 29
2, 20950, Control_c, 0, 64, 39
2, 20969, Control_c, 0, 64, 51
2, 20988, Control_c, 0, 64, 59
2, 21008, Control_c, 0, 64, 63
2, 21026, Control_c, 0, 64, 65
2, 21046, Control_c, 0, 64, 67
2, 21065, Control_c, 0, 64, 70
2, 21085, Control_c, 0, 64, 73
2, 21103, Control_c, 0, 64, 78
2, 21123, Control_c, 0, 64, 83
2, 21142, Control_c, 0, 64, 86
2, 21161, Control_c, 0, 64, 89
2, 21180, Control_c, 0, 64, 90
2, 21200, Control_c, 0, 64, 90
2, 21212, Note_on_c, 0, 46, 0
2, 21219, Control_c, 0, 64, 91
2, 21238, Control_c, 0, 64, 92
2, 21257, Control_c, 0, 64, 93
2, 21277, Control_c, 0, 64, 95
2, 21295, Control_c, 0, 64, 96
2, 21383, Note_on_c, 0, 58, 0
2, 21391, Control_c, 0, 64, 96
2, 21429, Note_on_c, 0, 54, 0
2, 21460, Note_on_c, 0, 49, 0
2, 21738, Control_c, 0, 64, 96
2, 21834, Control_c, 0, 64, 95
2, 21844, Note_on_c, 0, 78, 52
2, 21872, Control_c, 0, 64, 95
2, 21910, Control_c, 0, 64, 94
2, 21949, Control_c, 0, 64, 94
2, 21987, Control_c, 0, 64, 93
2, 22005, Note_on_c, 0, 78, 0
2, 22015, Note_on_c, 0, 76, 60
2, 22026, Control_c, 0, 64, 93
2, 22064, Control_c, 0, 64, 92
2, 22084, Control_c, 0, 64, 91
2, 22103, Control_c, 0, 64, 91
2, 22122, Control_c, 0, 64, 90
2, 22141, Control_c, 0, 64, 90
2, 22161, Control_c, 0, 64, 89
2, 22173, Note_on_c, 0, 76, 0
2, 22180, Control_c, 0, 64, 88
2, 22180, Note_on_c, 0, 75, 65
2, 22199, Control_c, 0, 64, 88
2, 22218, Control_c, 0, 64, 86
2, 22223, Note_on_c, 0, 46, 31
2, 22238, Control_c, 0, 64, 85
2, 22256, Control_c, 0, 64, 84
2, 22275, Control_c, 0, 64, 82
2, 22295, Control_c, 0, 64, 80
2, 22298, Note_on_c, 0, 49, 23
2, 22314, Control_c, 0, 64, 78
2, 22330, Note_on_c, 0, 54, 30
2, 22333, Control_c, 0, 64, 75
2, 22352, Control_c, 0, 64, 71
2, 22372, Control_c, 0, 64, 68
2, 22390, Control_c, 0, 64, 64
2, 22397, Note_on_c, 0, 58, 40
2, 22400, Note_on_c, 0, 76, 59
2, 22407, Note_on_c, 0, 75, 0
2, 22410, Control_c, 0, 64, 62
2, 22429, Control_c, 0, 64, 58
2, 22449, Control_c, 0, 64, 52
2, 22468, Control_c, 0, 64, 44
2, 22488, Control_c, 0, 64, 33
2, 22507, Control_c, 0, 64, 17
2, 22526, Control_c, 0, 64, 0
2, 22621, Control_c, 0, 64, 37
2, 22641, Control_c, 0, 64, 53
2, 22660, Control_c, 0, 64, 61
2, 22679, Control_c, 0, 64, 64
2, 22698, Control_c, 0, 64, 66
2, 22718, Control_c, 0, 64, 67
2, 22736, Control_c, 0, 64, 70
2, 22755, Control_c, 0, 64, 73
2, 22775, Control_c, 0, 64, 77
2, 22794, Control_c, 0, 64, 80
2, 22797, Note_on_c, 0, 58, 0
2, 22813, Control_c, 0, 64, 83
2, 22820, Note_on_c, 0, 46, 0
2, 22832, Control_c, 0, 64, 85
2, 22832, Note_on_c, 0, 54, 0
2, 22852, Control_c, 0, 64, 86
2, 22870, Control_c, 0, 64, 86
2, 22890, Control_c, 0, 64, 87
2, 22909, Control_c, 0, 64, 88
2, 22922, Note_on_c, 0, 49, 0
2, 22929, Control_c, 0, 64, 90
2, 22947, Control_c, 0, 64, 90
2, 22967, Control_c, 0, 64, 91
2, 22981, Note_on_c, 0, 76, 0
2, 23293, Control_c, 0, 64, 90
2, 23409, Control_c, 0, 64, 90
2, 23469, Control_c, 0, 64, 89
2, 23497, Note_on_c, 0, 73, 47
2, 23504, Control_c, 0, 64, 89
2, 23562, Control_c, 0, 64, 88
2, 23581, Control_c, 0, 64, 88
2, 23633, Note_on_c, 0, 47, 34
2, 23639, Control_c, 0, 64, 87
2, 23658, Control_c, 0, 64, 87
2, 23678, Control_c, 0, 64, 86
2, 23696, Control_c, 0, 64, 86
2, 23714, Note_on_c, 0, 51, 17
2, 23715, Control_c, 0, 64, 85
2, 23735, Control_c, 0, 64, 84
2, 23754, Control_c, 0, 64, 83
2, 23773, Control_c, 0, 64, 82
2, 23790, Note_on_c, 0, 54, 24
2, 23792, Control_c, 0, 64, 81
2, 23797, Note_on_c, 0, 73, 0
2, 23812, Control_c, 0, 64, 79
2, 23829, Note_on_c, 0, 63, 36
2, 23830, Control_c, 0, 64, 78
2, 23850, Control_c, 0, 64, 75
2, 23861, Note_on_c, 0, 66, 32
2, 23869, Control_c, 0, 64, 72
2, 23884, Note_on_c, 0, 59, 9
2, 23889, Control_c, 0, 64, 68
2, 23907, Control_c, 0, 64, 66
2, 23914, Note_on_c, 0, 71, 28
2, 23927, Control_c, 0, 64, 63
2, 23946, Control_c, 0, 64, 59
2, 23965, Control_c, 0, 64, 54
2, 23984, Control_c, 0, 64, 46
2, 24002, Note_on_c, 0, 75, 46
2, 24004, Control_c, 0, 64, 35
2, 24023, Control_c, 0, 64, 17
2, 24042, Control_c, 0, 64, 0
2, 24292, Control_c, 0, 64, 17
2, 24310, Control_c, 0, 64, 38
2, 24330, Control_c, 0, 64, 52
2, 24349, Control_c, 0, 64, 58
2, 24369, Control_c, 0, 64, 61
2, 24387, Control_c, 0, 64, 62
2, 24407, Control_c, 0, 64, 63
2, 24426, Control_c, 0, 64, 64
2, 24445, Control_c, 0, 64, 65
2, 24464, Control_c, 0, 64, 66
2, 24483, Control_c, 0, 64, 68
2, 24502, Control_c, 0, 64, 69
2, 24521, Control_c, 0, 64, 70
2, 24540, Control_c, 0, 64, 71
2, 24551, Note_on_c, 0, 63, 0
2, 24560, Control_c, 0, 64, 72
2, 24579, Control_c, 0, 64, 73
2, 24598, Control_c, 0, 64, 75
2, 24609, Note_on_c, 0, 66, 0
2, 24617, Control_c, 0, 64, 76
2, 24637, Control_c, 0, 64, 78
2, 24655, Control_c, 0, 64, 78
2, 24670, Note_on_c, 0, 71, 0
2, 24674, Control_c, 0, 64, 79
2, 24685, Note_on_c, 0, 75, 0
2, 24714, Note_on_c, 0, 59, 0
2, 24721, Note_on_c, 0, 47, 0
2, 24751, Control_c, 0, 64, 79
2, 24790, Control_c, 0, 64, 80
2, 24882, Note_on_c, 0, 54, 0
2, 24949, Note_on_c, 0, 51, 0
2, 25059, Control_c, 0, 64, 79
2, 25193, Control_c, 0, 64, 79
2, 25244, Note_on_c, 0, 66, 34
2, 25270, Control_c, 0, 64, 78
2, 25289, Control_c, 0, 64, 78
2, 25328, Control_c, 0, 64, 77
2, 25332, Note_on_c, 0, 71, 43
2, 25346, Control_c, 0, 64, 76
2, 25366, Control_c, 0, 64, 75
2, 25385, Control_c, 0, 64, 73
2, 25405, Control_c, 0, 64, 70
2, 25423, Control_c, 0, 64, 66
2, 25443, Control_c, 0, 64, 63
2, 25449, Note_on_c, 0, 75, 44
2, 25462, Control_c, 0, 64, 59
2, 25481, Control_c, 0, 64, 55
2, 25500, Control_c, 0, 64, 50
2, 25520, Control_c, 0, 64, 43
2, 25539, Control_c, 0, 64, 35
2, 25558, Control_c, 0, 64, 27
2, 25577, Control_c, 0, 64, 18
2, 25597, Control_c, 0, 64, 13
2, 25615, Control_c, 0, 64, 11
2, 25634, Control_c, 0, 64, 9
2, 25692, Control_c, 0, 64, 15
2, 25711, Control_c, 0, 64, 27
2, 25731, Control_c, 0, 64, 36
2, 25750, Control_c, 0, 64, 44
2, 25769, Control_c, 0, 64, 51
2, 25788, Control_c, 0, 64, 57
2, 25808, Control_c, 0, 64, 60
2, 25826, Control_c, 0, 64, 62
2, 25846, Control_c, 0, 64, 63
2, 25865, Control_c, 0, 64, 64
2, 25885, Control_c, 0, 64, 65
2, 25900, Note_on_c, 0, 66, 0
2, 25903, Control_c, 0, 64, 66
2, 25923, Control_c, 0, 64, 67
2, 25942, Control_c, 0, 64, 68
2, 25961, Control_c, 0, 64, 69
2, 25980, Control_c, 0, 64, 70
2, 26000, Control_c, 0, 64, 71
2, 26019, Control_c, 0, 64, 72
2, 26038, Control_c, 0, 64, 74
2, 26057, Control_c, 0, 64, 75
2, 26077, Control_c, 0, 64, 77
2, 26079, Note_on_c, 0, 71, 0
2, 26095, Control_c, 0, 64, 77
2, 26114, Control_c, 0, 64, 78
2, 26120, Note_on_c, 0, 75, 0
2, 26153, Control_c, 0, 64, 78
2, 26172, Control_c, 0, 64, 79
2, 26191, Control_c, 0, 64, 80
2, 26211, Control_c, 0, 64, 81
2, 26230, Control_c, 0, 64, 82
2, 26249, Control_c, 0, 64, 83
2, 26424, Control_c, 0, 64, 83
2, 26567, Note_on_c, 0, 54, 43
2, 26765, Note_on_c, 0, 66, 37
2, 26837, Note_on_c, 0, 71, 40
2, 26865, Control_c, 0, 64, 83
2, 26904, Control_c, 0, 64, 82
2, 26905, Note_on_c, 0, 75, 57
2, 26920, Note_on_c, 0, 51, 53
2, 26923, Control_c, 0, 64, 81
2, 26942, Control_c, 0, 64, 75
2, 26951, Note_on_c, 0, 54, 0
2, 26962, Control_c, 0, 64, 68
2, 26980, Control_c, 0, 64, 62
2, 27000, Control_c, 0, 64, 55
2, 27019, Control_c, 0, 64, 50
2, 27039, Control_c, 0, 64, 47
2, 27076, Control_c, 0, 64, 50
2, 27096, Control_c, 0, 64, 54
2, 27115, Control_c, 0, 64, 58
2, 27134, Control_c, 0, 64, 62
2, 27153, Control_c, 0, 64, 63
2, 27173, Control_c, 0, 64, 65
2, 27191, Control_c, 0, 64, 66
2, 27211, Control_c, 0, 64, 68
2, 27230, Control_c, 0, 64, 70
2, 27250, Control_c, 0, 64, 72
2, 27268, Control_c, 0, 64, 74
2, 27288, Control_c, 0, 64, 76
2, 27307, Control_c, 0, 64, 77
2, 27326, Control_c, 0, 64, 79
2, 27345, Control_c, 0, 64, 81
2, 27365, Control_c, 0, 64, 83
2, 27384, Control_c, 0, 64, 84
2, 27403, Control_c, 0, 64, 86
2, 27422, Control_c, 0, 64, 86
2, 27442, Control_c, 0, 64, 87
2, 27480, Control_c, 0, 64, 87
2, 27499, Control_c, 0, 64, 88
2, 27508, Note_on_c, 0, 51, 0
2, 27519, Control_c, 0, 64, 88
2, 27537, Control_c, 0, 64, 90
2, 27550, Note_on_c, 0, 66, 0
2, 27556, Control_c, 0, 64, 92
2, 27576, Control_c, 0, 64, 94
2, 27595, Control_c, 0, 64, 95
2, 27614, Control_c, 0, 64, 95
2, 27633, Control_c, 0, 64, 96
2, 27671, Control_c, 0, 64, 96
2, 27748, Control_c, 0, 64, 97
2, 27768, Control_c, 0, 64, 97
2, 27864, Control_c, 0, 64, 98
2, 27965, Note_on_c, 0, 71, 0
2, 28045, Note_on_c, 0, 47, 56
2, 28063, Note_on_c, 0, 75, 0
2, 28190, Control_c, 0, 64, 97
2, 28228, Control_c, 0, 64, 97
2, 28248, Control_c, 0, 64, 96
2, 28267, Control_c, 0, 64, 95
2, 28286, Control_c, 0, 64, 95
2, 28304, Control_c, 0, 64, 94
2, 28324, Control_c, 0, 64, 93
2, 28343, Control_c, 0, 64, 92
2, 28362, Control_c, 0, 64, 91
2, 28381, Control_c, 0, 64, 90
2, 28401, Control_c, 0, 64, 89
2, 28420, Control_c, 0, 64, 87
2, 28420, Note_on_c, 0, 43, 54
2, 28439, Control_c, 0, 64, 86
2, 28458, Control_c, 0, 64, 84
2, 28478, Control_c, 0, 64, 82
2, 28490, Note_on_c, 0, 47, 0
2, 28496, Control_c, 0, 64, 80
2, 28515, Control_c, 0, 64, 78
2, 28535, Control_c, 0, 64, 76
2, 28547, Note_on_c, 0, 70, 55
2, 28554, Control_c, 0, 64, 73
2, 28573, Control_c, 0, 64, 71
2, 28592, Control_c, 0, 64, 69
2, 28612, Control_c, 0, 64, 66
2, 28630, Control_c, 0, 64, 64
2, 28644, Note_on_c, 0, 75, 61
2, 28650, Control_c, 0, 64, 62
2, 28669, Control_c, 0, 64, 59
2, 28689, Control_c, 0, 64, 56
2, 28707, Control_c, 0, 64, 52
2, 28727, Control_c, 0, 64, 45
2, 28746, Control_c, 0, 64, 39
2, 28754, Note_on_c, 0, 82, 73
2, 28765, Control_c, 0, 64, 32
2, 28784, Control_c, 0, 64, 26
2, 28804, Control_c, 0, 64, 20
2, 28823, Control_c, 0, 64, 15
2, 28842, Control_c, 0, 64, 11
2, 28881, Control_c, 0, 64, 13
2, 28900, Control_c, 0, 64, 22
2, 28919, Control_c, 0, 64, 36
2, 28938, Control_c, 0, 64, 50
2, 28958, Control_c, 0, 64, 58
2, 28976, Control_c, 0, 64, 62
2, 28995, Control_c, 0, 64, 64
2, 29015, Control_c, 0, 64, 66
2, 29034, Control_c, 0, 64, 68
2, 29053, Control_c, 0, 64, 70
2, 29072, Control_c, 0, 64, 74
2, 29092, Control_c, 0, 64, 78
2, 29110, Control_c, 0, 64, 81
2, 29130, Control_c, 0, 64, 84
2, 29149, Control_c, 0, 64, 86
2, 29169, Control_c, 0, 64, 86
2, 29186, Control_c, 0, 64, 87
2, 29206, Control_c, 0, 64, 88
2, 29225, Control_c, 0, 64, 91
2, 29245, Control_c, 0, 64, 93
2, 29262, Note_on_c, 0, 43, 0
2, 29263, Control_c, 0, 64, 94
2, 29283, Control_c, 0, 64, 95
2, 29494, Control_c, 0, 64, 95
2, 29532, Control_c, 0, 64, 94
2, 29571, Control_c, 0, 64, 94
2, 29628, Control_c, 0, 64, 93
2, 29686, Control_c, 0, 64, 93
2, 29725, Control_c, 0, 64, 92
2, 29743, Control_c, 0, 64, 92
2, 29801, Control_c, 0, 64, 91
2, 29859, Control_c, 0, 64, 91
2, 29916, Control_c, 0, 64, 90
2, 29935, Control_c, 0, 64, 90
2, 29974, Control_c, 0, 64, 89
2, 29993, Control_c, 0, 64, 89
2, 30012, Control_c, 0, 64, 88
2, 30040, Note_on_c, 0, 70, 0
2, 30051, Control_c, 0, 64, 88
2, 30069, Note_on_c, 0, 82, 0
2, 30089, Control_c, 0, 64, 87
2, 30108, Control_c, 0, 64, 86
2, 30115, Note_on_c, 0, 43, 27
2, 30128, Control_c, 0, 64, 85
2, 30148, Control_c, 0, 64, 83
2, 30167, Note_on_c, 0, 46, 26
2, 30168, Control_c, 0, 64, 81
2, 30187, Control_c, 0, 64, 79
2, 30190, Note_on_c, 0, 51, 38
2, 30195, Note_on_c, 0, 75, 0
2, 30206, Control_c, 0, 64, 77
2, 30225, Control_c, 0, 64, 74
2, 30244, Control_c, 0, 64, 70
2, 30263, Control_c, 0, 64, 66
2, 30282, Control_c, 0, 64, 63
2, 30301, Control_c, 0, 64, 61
2, 30320, Note_on_c, 0, 55, 31
2, 30321, Control_c, 0, 64, 58
2, 30340, Control_c, 0, 64, 54
2, 30359, Control_c, 0, 64, 50
2, 30378, Control_c, 0, 64, 44
2, 30398, Control_c, 0, 64, 38
2, 30416, Control_c, 0, 64, 35
2, 30435, Control_c, 0, 64, 34
2, 30455, Control_c, 0, 64, 35
2, 30474, Control_c, 0, 64, 40
2, 30493, Control_c, 0, 64, 48
2, 30512, Control_c, 0, 64, 56
2, 30532, Control_c, 0, 64, 61
2, 30550, Control_c, 0, 64, 64
2, 30570, Control_c, 0, 64, 65
2, 30589, Control_c, 0, 64, 67
2, 30609, Control_c, 0, 64, 70
2, 30627, Control_c, 0, 64, 73
2, 30647, Control_c, 0, 64, 77
2, 30666, Control_c, 0, 64, 81
2, 30685, Control_c, 0, 64, 82
2, 30704, Control_c, 0, 64, 83
2, 30724, Control_c, 0, 64, 84
2, 30743, Control_c, 0, 64, 84
2, 30762, Control_c, 0, 64, 85
2, 30781, Control_c, 0, 64, 87
2, 30801, Control_c, 0, 64, 89
2, 30820, Control_c, 0, 64, 89
2, 30878, Control_c, 0, 64, 90
2, 30882, Note_on_c, 0, 43, 0
2, 30903, Note_on_c, 0, 55, 0
2, 30956, Note_on_c, 0, 51, 0
2, 30973, Control_c, 0, 64, 90
2, 31012, Control_c, 0, 64, 91
2, 31030, Control_c, 0, 64, 92
2, 31031, Note_on_c, 0, 46, 0
2, 31050, Control_c, 0, 64, 93
2, 31069, Control_c, 0, 64, 95
2, 31089, Control_c, 0, 64, 96
2, 31108, Control_c, 0, 64, 96
2, 31128, Control_c, 0, 64, 97
2, 31147, Control_c, 0, 64, 97
2, 31205, Control_c, 0, 64, 98
2, 31339, Note_on_c, 0, 75, 41
2, 31435, Control_c, 0, 64, 97
2, 31473, Control_c, 0, 64, 97
2, 31493, Control_c, 0, 64, 96
2, 31511, Control_c, 0, 64, 96
2, 31513, Note_on_c, 0, 75, 0
2, 31521, Note_on_c, 0, 73, 52
2, 31550, Control_c, 0, 64, 95
2, 31570, Control_c, 0, 64, 95
2, 31588, Control_c, 0, 64, 94
2, 31608, Control_c, 0, 64, 94
2, 31627, Control_c, 0, 64, 93
2, 31645, Note_on_c, 0, 73, 0
2, 31646, Control_c, 0, 64, 93
2, 31663, Note_on_c, 0, 71, 55
2, 31665, Control_c, 0, 64, 92
2, 31685, Control_c, 0, 64, 91
2, 31704, Control_c, 0, 64, 90
2, 31723, Control_c, 0, 64, 88
2, 31742, Control_c, 0, 64, 86
2, 31747, Note_on_c, 0, 43, 22
2, 31762, Control_c, 0, 64, 84
2, 31780, Control_c, 0, 64, 82
2, 31800, Control_c, 0, 64, 79
2, 31803, Note_on_c, 0, 46, 18
2, 31819, Control_c, 0, 64, 77
2, 31825, Note_on_c, 0, 51, 31
2, 31839, Control_c, 0, 64, 74
2, 31857, Control_c, 0, 64, 71
2, 31875, Note_on_c, 0, 71, 0
2, 31876, Control_c, 0, 64, 67
2, 31896, Control_c, 0, 64, 63
2, 31901, Note_on_c, 0, 55, 26
2, 31901, Note_on_c, 0, 73, 58
2, 31915, Control_c, 0, 64, 60
2, 31934, Control_c, 0, 64, 55
2, 31953, Control_c, 0, 64, 49
2, 31973, Control_c, 0, 64, 40
2, 31991, Control_c, 0, 64, 27
2, 32011, Control_c, 0, 64, 9
2, 32030, Control_c, 0, 64, 0
2, 32086, Control_c, 0, 64, 18
2, 32105, Control_c, 0, 64, 32
2, 32125, Control_c, 0, 64, 45
2, 32142, Control_c, 0, 64, 53
2, 32162, Control_c, 0, 64, 59
2, 32181, Control_c, 0, 64, 61
2, 32201, Control_c, 0, 64, 62
2, 32219, Control_c, 0, 64, 64
2, 32239, Control_c, 0, 64, 65
2, 32258, Control_c, 0, 64, 66
2, 32276, Control_c, 0, 64, 67
2, 32296, Control_c, 0, 64, 68
2, 32315, Control_c, 0, 64, 69
2, 32335, Control_c, 0, 64, 70
2, 32353, Control_c, 0, 64, 72
2, 32367, Note_on_c, 0, 43, 0
2, 32373, Control_c, 0, 64, 73
2, 32392, Control_c, 0, 64, 75
2, 32411, Control_c, 0, 64, 77
2, 32430, Control_c, 0, 64, 78
2, 32450, Control_c, 0, 64, 79
2, 32455, Note_on_c, 0, 55, 0
2, 32469, Control_c, 0, 64, 80
2, 32507, Control_c, 0, 64, 80
2, 32527, Note_on_c, 0, 51, 0
2, 32584, Control_c, 0, 64, 81
2, 32686, Note_on_c, 0, 46, 0
2, 33043, Note_on_c, 0, 73, 0
2, 33066, Control_c, 0, 64, 80
2, 33067, Note_on_c, 0, 70, 44
2, 33124, Control_c, 0, 64, 80
2, 33162, Control_c, 0, 64, 79
2, 33167, Note_on_c, 0, 44, 35
2, 33201, Control_c, 0, 64, 79
2, 33239, Control_c, 0, 64, 78
2, 33258, Control_c, 0, 64, 77
2, 33277, Control_c, 0, 64, 76
2, 33286, Note_on_c, 0, 47, 28
2, 33296, Control_c, 0, 64, 75
2, 33315, Control_c, 0, 64, 75
2, 33335, Control_c, 0, 64, 74
2, 33354, Control_c, 0, 64, 73
2, 33373, Control_c, 0, 64, 72
2, 33380, Note_on_c, 0, 51, 34
2, 33392, Control_c, 0, 64, 71
2, 33403, Note_on_c, 0, 70, 0
2, 33412, Control_c, 0, 64, 70
2, 33430, Control_c, 0, 64, 69
2, 33450, Control_c, 0, 64, 68
2, 33456, Note_on_c, 0, 73, 39
2, 33469, Control_c, 0, 64, 67
2, 33489, Control_c, 0, 64, 66
2, 33491, Note_on_c, 0, 56, 15
2, 33507, Control_c, 0, 64, 65
2, 33527, Control_c, 0, 64, 64
2, 33546, Control_c, 0, 64, 63
2, 33565, Control_c, 0, 64, 62
2, 33584, Control_c, 0, 64, 62
2, 33594, Note_on_c, 0, 73, 0
2, 33604, Control_c, 0, 64, 60
2, 33623, Control_c, 0, 64, 58
2, 33640, Note_on_c, 0, 71, 51
2, 33642, Control_c, 0, 64, 56
2, 33661, Control_c, 0, 64, 55
2, 33681, Control_c, 0, 64, 52
2, 33700, Control_c, 0, 64, 50
2, 33700, Note_on_c, 0, 71, 0
2, 33719, Control_c, 0, 64, 47
2, 33738, Control_c, 0, 64, 44
2, 33747, Note_on_c, 0, 73, 59
2, 33757, Control_c, 0, 64, 40
2, 33776, Control_c, 0, 64, 37
2, 33794, Note_on_c, 0, 73, 0
2, 33795, Control_c, 0, 64, 35
2, 33815, Control_c, 0, 64, 32
2, 33834, Control_c, 0, 64, 29
2, 33843, Note_on_c, 0, 71, 54
2, 33853, Control_c, 0, 64, 27
2, 33872, Control_c, 0, 64, 25
2, 33883, Note_on_c, 0, 71, 0
2, 33892, Control_c, 0, 64, 23
2, 33910, Control_c, 0, 64, 20
2, 33917, Note_on_c, 0, 73, 53
2, 33930, Control_c, 0, 64, 18
2, 33949, Control_c, 0, 64, 15
2, 33960, Note_on_c, 0, 73, 0
2, 33969, Control_c, 0, 64, 11
2, 33990, Control_c, 0, 64, 9
2, 33994, Note_on_c, 0, 71, 55
2, 34010, Control_c, 0, 64, 0
2, 34042, Note_on_c, 0, 71, 0
2, 34062, Note_on_c, 0, 73, 56
2, 34122, Control_c, 0, 64, 11
2, 34141, Control_c, 0, 64, 23
2, 34150, Note_on_c, 0, 73, 0
2, 34161, Control_c, 0, 64, 36
2, 34180, Control_c, 0, 64, 48
2, 34180, Note_on_c, 0, 71, 40
2, 34199, Control_c, 0, 64, 57
2, 34218, Control_c, 0, 64, 61
2, 34237, Control_c, 0, 64, 63
2, 34237, Note_on_c, 0, 44, 0
2, 34256, Control_c, 0, 64, 64
2, 34272, Note_on_c, 0, 47, 0
2, 34275, Control_c, 0, 64, 65
2, 34295, Control_c, 0, 64, 66
2, 34311, Note_on_c, 0, 51, 0
2, 34314, Control_c, 0, 64, 68
2, 34324, Note_on_c, 0, 56, 0
2, 34333, Control_c, 0, 64, 69
2, 34352, Control_c, 0, 64, 70
2, 34372, Control_c, 0, 64, 72
2, 34390, Control_c, 0, 64, 73
2, 34410, Control_c, 0, 64, 75
2, 34429, Control_c, 0, 64, 76
2, 34449, Control_c, 0, 64, 78
2, 34467, Control_c, 0, 64, 78
2, 34487, Control_c, 0, 64, 79
2, 34506, Control_c, 0, 64, 79
2, 34525, Control_c, 0, 64, 80
2, 34544, Control_c, 0, 64, 81
2, 34564, Control_c, 0, 64, 81
2, 34583, Control_c, 0, 64, 82
2, 34621, Control_c, 0, 64, 82
2, 34641, Control_c, 0, 64, 83
2, 34660, Control_c, 0, 64, 84
2, 34679, Control_c, 0, 64, 86
2, 34698, Control_c, 0, 64, 88
2, 34717, Control_c, 0, 64, 89
2, 34790, Note_on_c, 0, 70, 45
2, 34794, Control_c, 0, 64, 89
2, 34813, Control_c, 0, 64, 90
2, 34832, Control_c, 0, 64, 91
2, 34870, Control_c, 0, 64, 91
2, 34901, Note_on_c, 0, 70, 0
2, 34967, Note_on_c, 0, 68, 41
2, 35063, Control_c, 0, 64, 91
2, 35079, Note_on_c, 0, 68, 0
2, 35081, Note_on_c, 0, 71, 0
2, 35107, Note_on_c, 0, 75, 35
2, 35121, Control_c, 0, 64, 90
2, 35140, Control_c, 0, 64, 90
2, 35157, Note_on_c, 0, 80, 43
2, 35159, Control_c, 0, 64, 89
2, 35178, Control_c, 0, 64, 88
2, 35197, Control_c, 0, 64, 87
2, 35216, Control_c, 0, 64, 86
2, 35235, Control_c, 0, 64, 84
2, 35255, Control_c, 0, 64, 81
2, 35266, Note_on_c, 0, 83, 47
2, 35274, Control_c, 0, 64, 78
2, 35293, Control_c, 0, 64, 73
2, 35312, Control_c, 0, 64, 68
2, 35332, Control_c, 0, 64, 64
2, 35350, Control_c, 0, 64, 62
2, 35370, Control_c, 0, 64, 58
2, 35389, Control_c, 0, 64, 53
2, 35409, Control_c, 0, 64, 46
2, 35427, Control_c, 0, 64, 39
2, 35447, Control_c, 0, 64, 31
2, 35466, Control_c, 0, 64, 25
2, 35485, Control_c, 0, 64, 23
2, 35504, Control_c, 0, 64, 22
2, 35581, Control_c, 0, 64, 25
2, 35601, Control_c, 0, 64, 33
2, 35620, Control_c, 0, 64, 44
2, 35639, Control_c, 0, 64, 52
2, 35658, Control_c, 0, 64, 57
2, 35677, Control_c, 0, 64, 60
2, 35696, Control_c, 0, 64, 61
2, 35715, Control_c, 0, 64, 63
2, 35735, Control_c, 0, 64, 64
2, 35754, Control_c, 0, 64, 65
2, 35773, Control_c, 0, 64, 65
2, 35792, Control_c, 0, 64, 66
2, 35812, Control_c, 0, 64, 67
2, 35830, Control_c, 0, 64, 67
2, 35850, Control_c, 0, 64, 68
2, 35869, Control_c, 0, 64, 69
2, 35889, Control_c, 0, 64, 71
2, 35889, Note_on_c, 0, 75, 0
2, 35908, Control_c, 0, 64, 72
2, 35928, Control_c, 0, 64, 74
2, 35947, Control_c, 0, 64, 75
2, 35966, Control_c, 0, 64, 76
2, 36022, Control_c, 0, 64, 77
2, 36041, Control_c, 0, 64, 77
2, 36042, Note_on_c, 0, 83, 0
2, 36060, Control_c, 0, 64, 78
2, 36066, Note_on_c, 0, 80, 0
2, 36080, Control_c, 0, 64, 78
2, 36099, Control_c, 0, 64, 79
2, 36117, Control_c, 0, 64, 79
2, 36406, Control_c, 0, 64, 79
2, 36445, Control_c, 0, 64, 78
2, 36546, Note_on_c, 0, 71, 45
2, 36560, Control_c, 0, 64, 78
2, 36597, Control_c, 0, 64, 77
2, 36617, Control_c, 0, 64, 77
2, 36636, Control_c, 0, 64, 76
2, 36674, Control_c, 0, 64, 76
2, 36740, Note_on_c, 0, 75, 39
2, 36751, Control_c, 0, 64, 75
2, 36771, Control_c, 0, 64, 75
2, 36790, Control_c, 0, 64, 74
2, 36792, Note_on_c, 0, 80, 46
2, 36809, Control_c, 0, 64, 73
2, 36828, Control_c, 0, 64, 72
2, 36848, Control_c, 0, 64, 71
2, 36868, Control_c, 0, 64, 69
2, 36888, Control_c, 0, 64, 66
2, 36890, Note_on_c, 0, 83, 46
2, 36907, Control_c, 0, 64, 62
2, 36915, Note_on_c, 0, 68, 41
2, 36922, Note_on_c, 0, 71, 0
2, 36926, Control_c, 0, 64, 57
2, 36943, Control_c, 0, 64, 51
2, 36963, Control_c, 0, 64, 46
2, 36982, Control_c, 0, 64, 41
2, 37001, Control_c, 0, 64, 39
2, 37059, Control_c, 0, 64, 43
2, 37077, Control_c, 0, 64, 49
2, 37097, Control_c, 0, 64, 55
2, 37116, Control_c, 0, 64, 59
2, 37135, Control_c, 0, 64, 61
2, 37154, Control_c, 0, 64, 62
2, 37174, Control_c, 0, 64, 63
2, 37193, Control_c, 0, 64, 64
2, 37212, Control_c, 0, 64, 65
2, 37231, Control_c, 0, 64, 66
2, 37251, Control_c, 0, 64, 68
2, 37270, Control_c, 0, 64, 69
2, 37289, Control_c, 0, 64, 71
2, 37308, Control_c, 0, 64, 72
2, 37328, Control_c, 0, 64, 73
2, 37346, Control_c, 0, 64, 74
2, 37366, Control_c, 0, 64, 75
2, 37385, Control_c, 0, 64, 76
2, 37405, Control_c, 0, 64, 77
2, 37423, Control_c, 0, 64, 77
2, 37462, Control_c, 0, 64, 78
2, 37481, Control_c, 0, 64, 78
2, 37500, Control_c, 0, 64, 79
2, 37520, Control_c, 0, 64, 80
2, 37539, Control_c, 0, 64, 81
2, 37557, Control_c, 0, 64, 81
2, 37565, Note_on_c, 0, 75, 0
2, 37612, Note_on_c, 0, 83, 0
2, 37854, Note_on_c, 0, 80, 0
2, 37998, Control_c, 0, 64, 81
2, 38152, Control_c, 0, 64, 80
2, 38206, Note_on_c, 0, 65, 36
2, 38248, Control_c, 0, 64, 80
2, 38278, Note_on_c, 0, 68, 0
2, 38421, Control_c, 0, 64, 79
2, 38478, Control_c, 0, 64, 79
2, 38516, Control_c, 0, 64, 78
2, 38533, Note_on_c, 0, 65, 0
2, 38540, Note_on_c, 0, 62, 30
2, 38555, Control_c, 0, 64, 78
2, 38560, Note_on_c, 0, 77, 33
2, 38593, Control_c, 0, 64, 77
2, 38613, Control_c, 0, 64, 76
2, 38632, Control_c, 0, 64, 75
2, 38645, Note_on_c, 0, 80, 41
2, 38651, Control_c, 0, 64, 73
2, 38670, Control_c, 0, 64, 69
2, 38690, Control_c, 0, 64, 65
2, 38709, Control_c, 0, 64, 59
2, 38728, Control_c, 0, 64, 53
2, 38732, Note_on_c, 0, 83, 45
2, 38747, Control_c, 0, 64, 46
2, 38767, Control_c, 0, 64, 36
2, 38785, Control_c, 0, 64, 29
2, 38805, Control_c, 0, 64, 28
2, 38844, Control_c, 0, 64, 32
2, 38862, Control_c, 0, 64, 41
2, 38882, Control_c, 0, 64, 49
2, 38901, Control_c, 0, 64, 56
2, 38921, Control_c, 0, 64, 60
2, 38939, Control_c, 0, 64, 62
2, 38958, Control_c, 0, 64, 63
2, 38978, Control_c, 0, 64, 64
2, 38996, Control_c, 0, 64, 65
2, 39016, Control_c, 0, 64, 66
2, 39035, Control_c, 0, 64, 67
2, 39055, Control_c, 0, 64, 69
2, 39073, Control_c, 0, 64, 70
2, 39093, Control_c, 0, 64, 71
2, 39112, Control_c, 0, 64, 72
2, 39131, Control_c, 0, 64, 74
2, 39150, Control_c, 0, 64, 75
2, 39170, Control_c, 0, 64, 75
2, 39189, Control_c, 0, 64, 76
2, 39195, Note_on_c, 0, 62, 0
2, 39247, Control_c, 0, 64, 76
2, 39324, Control_c, 0, 64, 77
2, 39438, Control_c, 0, 64, 77
2, 39458, Control_c, 0, 64, 78
2, 39476, Control_c, 0, 64, 78
2, 39496, Control_c, 0, 64, 79
2, 39515, Control_c, 0, 64, 79
2, 39535, Control_c, 0, 64, 80
2, 39573, Control_c, 0, 64, 80
2, 39804, Note_on_c, 0, 77, 0
2, 39806, Control_c, 0, 64, 80
2, 39881, Control_c, 0, 64, 79
2, 39982, Note_on_c, 0, 83, 0
2, 39996, Control_c, 0, 64, 79
2, 40000, Note_on_c, 0, 80, 0
2, 40034, Control_c, 0, 64, 78
2, 40054, Control_c, 0, 64, 78
2, 40092, Control_c, 0, 64, 77
2, 40111, Control_c, 0, 64, 77
2, 40116, Note_on_c, 0, 62, 18
2, 40131, Control_c, 0, 64, 76
2, 40150, Control_c, 0, 64, 76
2, 40169, Control_c, 0, 64, 75
2, 40188, Control_c, 0, 64, 75
2, 40195, Note_on_c, 0, 65, 26
2, 40208, Control_c, 0, 64, 74
2, 40226, Control_c, 0, 64, 72
2, 40246, Control_c, 0, 64, 70
2, 40265, Control_c, 0, 64, 68
2, 40285, Control_c, 0, 64, 65
2, 40286, Note_on_c, 0, 70, 41
2, 40303, Control_c, 0, 64, 63
2, 40323, Control_c, 0, 64, 61
2, 40342, Control_c, 0, 64, 58
2, 40361, Control_c, 0, 64, 54
2, 40380, Control_c, 0, 64, 49
2, 40400, Control_c, 0, 64, 44
2, 40419, Control_c, 0, 64, 39
2, 40437, Control_c, 0, 64, 37
2, 40457, Control_c, 0, 64, 36
2, 40495, Control_c, 0, 64, 37
2, 40514, Control_c, 0, 64, 41
2, 40534, Control_c, 0, 64, 46
2, 40553, Control_c, 0, 64, 53
2, 40572, Control_c, 0, 64, 57
2, 40591, Control_c, 0, 64, 60
2, 40611, Control_c, 0, 64, 62
2, 40630, Control_c, 0, 64, 64
2, 40649, Control_c, 0, 64, 65
2, 40668, Control_c, 0, 64, 66
2, 40688, Control_c, 0, 64, 67
2, 40706, Control_c, 0, 64, 68
2, 40726, Control_c, 0, 64, 70
2, 40745, Control_c, 0, 64, 71
2, 40765, Control_c, 0, 64, 72
2, 40783, Control_c, 0, 64, 73
2, 40803, Control_c, 0, 64, 74
2, 40822, Control_c, 0, 64, 75
2, 40841, Control_c, 0, 64, 76
2, 40860, Control_c, 0, 64, 76
2, 40880, Control_c, 0, 64, 77
2, 40891, Note_on_c, 0, 62, 0
2, 40899, Control_c, 0, 64, 78
2, 40955, Note_on_c, 0, 65, 0
2, 41014, Control_c, 0, 64, 78
2, 41052, Control_c, 0, 64, 79
2, 41148, Control_c, 0, 64, 79
2, 41182, Note_on_c, 0, 70, 0
2, 41397, Control_c, 0, 64, 79
2, 41401, Note_on_c, 0, 82, 42
2, 41455, Control_c, 0, 64, 78
2, 41513, Control_c, 0, 64, 78
2, 41532, Control_c, 0, 64, 77
2, 41551, Control_c, 0, 64, 77
2, 41571, Control_c, 0, 64, 76
2, 41590, Control_c, 0, 64, 76
2, 41609, Control_c, 0, 64, 75
2, 41619, Note_on_c, 0, 80, 51
2, 41625, Note_on_c, 0, 82, 0
2, 41628, Control_c, 0, 64, 75
2, 41666, Control_c, 0, 64, 74
2, 41686, Control_c, 0, 64, 74
2, 41705, Control_c, 0, 64, 73
2, 41725, Control_c, 0, 64, 73
2, 41743, Control_c, 0, 64, 72
2, 41763, Control_c, 0, 64, 71
2, 41778, Note_on_c, 0, 80, 0
2, 41782, Control_c, 0, 64, 71
2, 41785, Note_on_c, 0, 78, 53
2, 41801, Control_c, 0, 64, 70
2, 41820, Control_c, 0, 64, 69
2, 41826, Note_on_c, 0, 62, 19
2, 41840, Control_c, 0, 64, 68
2, 41859, Control_c, 0, 64, 66
2, 41877, Control_c, 0, 64, 65
2, 41897, Control_c, 0, 64, 64
2, 41900, Note_on_c, 0, 65, 16
2, 41916, Control_c, 0, 64, 64
2, 41933, Note_on_c, 0, 78, 0
2, 41935, Control_c, 0, 64, 63
2, 41954, Control_c, 0, 64, 62
2, 41973, Note_on_c, 0, 77, 49
2, 41974, Control_c, 0, 64, 60
2, 41993, Control_c, 0, 64, 59
2, 42008, Note_on_c, 0, 70, 37
2, 42012, Control_c, 0, 64, 58
2, 42031, Control_c, 0, 64, 57
2, 42051, Control_c, 0, 64, 56
2, 42070, Control_c, 0, 64, 54
2, 42089, Control_c, 0, 64, 53
2, 42108, Control_c, 0, 64, 52
2, 42111, Note_on_c, 0, 77, 0
2, 42128, Control_c, 0, 64, 50
2, 42146, Control_c, 0, 64, 48
2, 42155, Note_on_c, 0, 78, 55
2, 42166, Control_c, 0, 64, 47
2, 42185, Control_c, 0, 64, 46
2, 42205, Control_c, 0, 64, 45
2, 42223, Control_c, 0, 64, 44
2, 42243, Control_c, 0, 64, 43
2, 42262, Control_c, 0, 64, 42
2, 42281, Control_c, 0, 64, 42
2, 42282, Note_on_c, 0, 78, 0
2, 42317, Note_on_c, 0, 77, 56
2, 42320, Control_c, 0, 64, 41
2, 42449, Note_on_c, 0, 77, 0
2, 42490, Note_on_c, 0, 78, 56
2, 42531, Control_c, 0, 64, 42
2, 42643, Note_on_c, 0, 78, 0
2, 42667, Note_on_c, 0, 80, 59
2, 42668, Control_c, 0, 64, 42
2, 42687, Control_c, 0, 64, 43
2, 42724, Control_c, 0, 64, 44
2, 42743, Control_c, 0, 64, 46
2, 42762, Control_c, 0, 64, 48
2, 42781, Control_c, 0, 64, 51
2, 42801, Control_c, 0, 64, 55
2, 42815, Note_on_c, 0, 80, 0
2, 42820, Control_c, 0, 64, 57
2, 42838, Control_c, 0, 64, 59
2, 42838, Note_on_c, 0, 78, 60
2, 42858, Control_c, 0, 64, 60
2, 42877, Control_c, 0, 64, 62
2, 42896, Control_c, 0, 64, 63
2, 42915, Control_c, 0, 64, 64
2, 42935, Control_c, 0, 64, 65
2, 42939, Note_on_c, 0, 65, 0
2, 42954, Control_c, 0, 64, 66
2, 42961, Note_on_c, 0, 62, 0
2, 42973, Control_c, 0, 64, 66
2, 42992, Control_c, 0, 64, 67
2, 43012, Control_c, 0, 64, 68
2, 43012, Note_on_c, 0, 78, 0
2, 43018, Note_on_c, 0, 80, 61
2, 43030, Control_c, 0, 64, 69
2, 43050, Control_c, 0, 64, 70
2, 43069, Control_c, 0, 64, 71
2, 43089, Control_c, 0, 64, 72
2, 43107, Control_c, 0, 64, 73
2, 43127, Control_c, 0, 64, 73
2, 43146, Control_c, 0, 64, 74
2, 43166, Note_on_c, 0, 80, 0
2, 43201, Note_on_c, 0, 77, 60
2, 43204, Control_c, 0, 64, 74
2, 43262, Note_on_c, 0, 70, 0
2, 43331, Note_on_c, 0, 63, 31
2, 43338, Control_c, 0, 64, 74
2, 43357, Control_c, 0, 64, 73
2, 43376, Control_c, 0, 64, 73
2, 43395, Control_c, 0, 64, 72
2, 43410, Note_on_c, 0, 66, 34
2, 43415, Control_c, 0, 64, 72
2, 43434, Control_c, 0, 64, 71
2, 43453, Control_c, 0, 64, 70
2, 43465, Note_on_c, 0, 77, 0
2, 43472, Control_c, 0, 64, 69
2, 43492, Control_c, 0, 64, 67
2, 43492, Note_on_c, 0, 80, 59
2, 43510, Control_c, 0, 64, 66
2, 43526, Note_on_c, 0, 70, 37
2, 43530, Control_c, 0, 64, 66
2, 43549, Control_c, 0, 64, 65
2, 43588, Control_c, 0, 64, 64
2, 43608, Control_c, 0, 64, 63
2, 43627, Control_c, 0, 64, 62
2, 43646, Control_c, 0, 64, 62
2, 43664, Control_c, 0, 64, 61
2, 43665, Note_on_c, 0, 80, 0
2, 43683, Control_c, 0, 64, 60
2, 43702, Control_c, 0, 64, 60
2, 43702, Note_on_c, 0, 78, 59
2, 43721, Control_c, 0, 64, 59
2, 43740, Control_c, 0, 64, 58
2, 43759, Control_c, 0, 64, 57
2, 43765, Note_on_c, 0, 78, 0
2, 43779, Control_c, 0, 64, 56
2, 43797, Control_c, 0, 64, 55
2, 43808, Note_on_c, 0, 80, 58
2, 43817, Control_c, 0, 64, 53
2, 43836, Control_c, 0, 64, 52
2, 43849, Note_on_c, 0, 80, 0
2, 43855, Control_c, 0, 64, 51
2, 43874, Control_c, 0, 64, 50
2, 43894, Control_c, 0, 64, 50
2, 43894, Note_on_c, 0, 78, 54
2, 43913, Control_c, 0, 64, 49
2, 43925, Note_on_c, 0, 78, 0
2, 43932, Control_c, 0, 64, 49
2, 43946, Note_on_c, 0, 80, 65
2, 43951, Control_c, 0, 64, 48
2, 43971, Control_c, 0, 64, 47
2, 43990, Control_c, 0, 64, 46
2, 43990, Note_on_c, 0, 80, 0
2, 44009, Control_c, 0, 64, 46
2, 44017, Note_on_c, 0, 78, 67
2, 44048, Control_c, 0, 64, 45
2, 44059, Note_on_c, 0, 78, 0
2, 44086, Control_c, 0, 64, 45
2, 44092, Note_on_c, 0, 80, 59
2, 44105, Control_c, 0, 64, 44
2, 44176, Note_on_c, 0, 80, 0
2, 44198, Note_on_c, 0, 78, 59
2, 44297, Control_c, 0, 64, 45
2, 44316, Control_c, 0, 64, 47
2, 44335, Control_c, 0, 64, 49
2, 44354, Control_c, 0, 64, 53
2, 44374, Control_c, 0, 64, 57
2, 44393, Control_c, 0, 64, 60
2, 44412, Control_c, 0, 64, 62
2, 44431, Control_c, 0, 64, 64
2, 44451, Control_c, 0, 64, 65
2, 44470, Control_c, 0, 64, 66
2, 44489, Control_c, 0, 64, 67
2, 44508, Control_c, 0, 64, 69
2, 44528, Control_c, 0, 64, 71
2, 44547, Control_c, 0, 64, 74
2, 44567, Control_c, 0, 64, 76
2, 44586, Control_c, 0, 64, 78
2, 44606, Control_c, 0, 64, 79
2, 44623, Control_c, 0, 64, 80
2, 44631, Note_on_c, 0, 63, 0
2, 44644, Control_c, 0, 64, 81
2, 44653, Note_on_c, 0, 70, 0
2, 44663, Control_c, 0, 64, 81
2, 44682, Control_c, 0, 64, 82
2, 44701, Control_c, 0, 64, 83
2, 44721, Control_c, 0, 64, 84
2, 44778, Control_c, 0, 64, 84
2, 44782, Note_on_c, 0, 66, 0
2, 44790, Note_on_c, 0, 78, 0
2, 44807, Note_on_c, 0, 77, 60
2, 44816, Control_c, 0, 64, 85
2, 44901, Note_on_c, 0, 77, 0
2, 44912, Control_c, 0, 64, 84
2, 44932, Control_c, 0, 64, 84
2, 44950, Control_c, 0, 64, 83
2, 44962, Note_on_c, 0, 75, 62
2, 44970, Control_c, 0, 64, 83
2, 44989, Control_c, 0, 64, 82
2, 45026, Note_on_c, 0, 75, 0
2, 45027, Control_c, 0, 64, 82
2, 45047, Control_c, 0, 64, 81
2, 45086, Control_c, 0, 64, 81
2, 45087, Note_on_c, 0, 70, 65
2, 45104, Control_c, 0, 64, 80
2, 45143, Control_c, 0, 64, 79
2, 45162, Control_c, 0, 64, 79
2, 45171, Note_on_c, 0, 75, 69
2, 45181, Control_c, 0, 64, 78
2, 45201, Control_c, 0, 64, 77
2, 45220, Control_c, 0, 64, 76
2, 45238, Control_c, 0, 64, 75
2, 45248, Note_on_c, 0, 78, 67
2, 45258, Control_c, 0, 64, 74
2, 45277, Control_c, 0, 64, 73
2, 45296, Control_c, 0, 64, 71
2, 45315, Control_c, 0, 64, 69
2, 45335, Control_c, 0, 64, 66
2, 45339, Note_on_c, 0, 82, 77
2, 45354, Control_c, 0, 64, 64
2, 45373, Control_c, 0, 64, 59
2, 45392, Control_c, 0, 64, 55
2, 45412, Control_c, 0, 64, 48
2, 45430, Control_c, 0, 64, 40
2, 45450, Control_c, 0, 64, 32
2, 45469, Control_c, 0, 64, 25
2, 45489, Control_c, 0, 64, 21
2, 45508, Control_c, 0, 64, 20
2, 45547, Control_c, 0, 64, 23
2, 45566, Control_c, 0, 64, 31
2, 45584, Control_c, 0, 64, 40
2, 45604, Control_c, 0, 64, 49
2, 45623, Control_c, 0, 64, 55
2, 45642, Control_c, 0, 64, 59
2, 45661, Control_c, 0, 64, 62
2, 45681, Control_c, 0, 64, 63
2, 45700, Control_c, 0, 64, 64
2, 45718, Control_c, 0, 64, 65
2, 45738, Control_c, 0, 64, 66
2, 45757, Control_c, 0, 64, 68
2, 45776, Control_c, 0, 64, 70
2, 45795, Control_c, 0, 64, 72
2, 45815, Control_c, 0, 64, 74
2, 45834, Control_c, 0, 64, 76
2, 45853, Control_c, 0, 64, 76
2, 45872, Control_c, 0, 64, 77
2, 45892, Control_c, 0, 64, 78
2, 45910, Control_c, 0, 64, 79
2, 45930, Control_c, 0, 64, 80
2, 45949, Control_c, 0, 64, 81
2, 45987, Control_c, 0, 64, 81
2, 46016, Note_on_c, 0, 70, 0
2, 46063, Note_on_c, 0, 82, 0
2, 46084, Control_c, 0, 64, 82
2, 46152, Note_on_c, 0, 75, 0
2, 46201, Note_on_c, 0, 78, 0
2, 46410, Control_c, 0, 64, 81
2, 46500, Note_on_c, 0, 66, 53
2, 46506, Control_c, 0, 64, 81
2, 46601, Control_c, 0, 64, 80
2, 46606, Note_on_c, 0, 73, 53
2, 46639, Control_c, 0, 64, 80
2, 46677, Control_c, 0, 64, 79
2, 46685, Note_on_c, 0, 75, 59
2, 46697, Control_c, 0, 64, 79
2, 46716, Control_c, 0, 64, 78
2, 46731, Note_on_c, 0, 78, 59
2, 46735, Control_c, 0, 64, 78
2, 46774, Control_c, 0, 64, 77
2, 46793, Control_c, 0, 64, 76
2, 46812, Control_c, 0, 64, 73
2, 46831, Control_c, 0, 64, 68
2, 46835, Note_on_c, 0, 82, 72
2, 46845, Note_on_c, 0, 63, 65
2, 46851, Control_c, 0, 64, 63
2, 46870, Control_c, 0, 64, 58
2, 46889, Control_c, 0, 64, 53
2, 46889, Note_on_c, 0, 66, 0
2, 46908, Control_c, 0, 64, 49
2, 46928, Control_c, 0, 64, 46
2, 46946, Control_c, 0, 64, 43
2, 46966, Control_c, 0, 64, 42
2, 47023, Control_c, 0, 64, 44
2, 47043, Control_c, 0, 64, 47
2, 47062, Control_c, 0, 64, 51
2, 47081, Control_c, 0, 64, 56
2, 47100, Control_c, 0, 64, 59
2, 47119, Control_c, 0, 64, 62
2, 47139, Control_c, 0, 64, 63
2, 47157, Control_c, 0, 64, 64
2, 47177, Control_c, 0, 64, 66
2, 47196, Control_c, 0, 64, 67
2, 47215, Control_c, 0, 64, 70
2, 47234, Control_c, 0, 64, 73
2, 47254, Control_c, 0, 64, 77
2, 47273, Control_c, 0, 64, 80
2, 47292, Control_c, 0, 64, 83
2, 47311, Control_c, 0, 64, 86
2, 47331, Control_c, 0, 64, 88
2, 47350, Control_c, 0, 64, 90
2, 47369, Control_c, 0, 64, 91
2, 47388, Control_c, 0, 64, 93
2, 47408, Control_c, 0, 64, 95
2, 47426, Control_c, 0, 64, 96
2, 47446, Control_c, 0, 64, 97
2, 47455, Note_on_c, 0, 63, 0
2, 47465, Control_c, 0, 64, 98
2, 47485, Control_c, 0, 64, 100
2, 47503, Control_c, 0, 64, 102
2, 47523, Control_c, 0, 64, 104
2, 47542, Control_c, 0, 64, 105
2, 47561, Control_c, 0, 64, 108
2, 47580, Control_c, 0, 64, 114
2, 47599, Control_c, 0, 64, 127
2, 47649, Note_on_c, 0, 73, 0
2, 47738, Note_on_c, 0, 82, 0
2, 47878, Note_on_c, 0, 75, 0
2, 48056, Note_on_c, 0, 78, 0
2, 48115, Note_on_c, 0, 60, 57
2, 48425, Control_c, 0, 64, 116
2, 48445, Control_c, 0, 64, 110
2, 48446, Note_on_c, 0, 57, 54
2, 48463, Control_c, 0, 64, 107
2, 48482, Control_c, 0, 64, 104
2, 48501, Control_c, 0, 64, 101
2, 48505, Note_on_c, 0, 60, 0
2, 48520, Control_c, 0, 64, 98
2, 48520, Note_on_c, 0, 72, 58
2, 48539, Control_c, 0, 64, 93
2, 48558, Control_c, 0, 64, 90
2, 48578, Control_c, 0, 64, 86
2, 48596, Control_c, 0, 64, 82
2, 48608, Note_on_c, 0, 75, 61
2, 48616, Control_c, 0, 64, 78
2, 48635, Control_c, 0, 64, 75
2, 48655, Control_c, 0, 64, 72
2, 48673, Control_c, 0, 64, 69
2, 48691, Note_on_c, 0, 78, 68
2, 48693, Control_c, 0, 64, 66
2, 48712, Control_c, 0, 64, 64
2, 48731, Control_c, 0, 64, 62
2, 48750, Control_c, 0, 64, 60
2, 48770, Control_c, 0, 64, 58
2, 48787, Note_on_c, 0, 84, 75
2, 48789, Control_c, 0, 64, 55
2, 48808, Control_c, 0, 64, 50
2, 48827, Control_c, 0, 64, 46
2, 48847, Control_c, 0, 64, 40
2, 48865, Control_c, 0, 64, 33
2, 48885, Control_c, 0, 64, 27
2, 48904, Control_c, 0, 64, 20
2, 48924, Control_c, 0, 64, 19
2, 48942, Control_c, 0, 64, 18
2, 48981, Control_c, 0, 64, 21
2, 49000, Control_c, 0, 64, 31
2, 49019, Control_c, 0, 64, 43
2, 49038, Control_c, 0, 64, 54
2, 49058, Control_c, 0, 64, 60
2, 49076, Control_c, 0, 64, 63
2, 49096, Control_c, 0, 64, 65
2, 49115, Control_c, 0, 64, 66
2, 49135, Control_c, 0, 64, 69
2, 49153, Control_c, 0, 64, 72
2, 49173, Control_c, 0, 64, 77
2, 49192, Control_c, 0, 64, 83
2, 49211, Control_c, 0, 64, 89
2, 49230, Control_c, 0, 64, 93
2, 49240, Note_on_c, 0, 57, 0
2, 49250, Control_c, 0, 64, 95
2, 49269, Control_c, 0, 64, 96
2, 49288, Control_c, 0, 64, 97
2, 49307, Control_c, 0, 64, 98
2, 49327, Control_c, 0, 64, 98
2, 49347, Control_c, 0, 64, 99
2, 49367, Control_c, 0, 64, 100
2, 49406, Control_c, 0, 64, 100
2, 49422, Control_c, 0, 64, 101
2, 49462, Control_c, 0, 64, 101
2, 49480, Control_c, 0, 64, 102
2, 49500, Control_c, 0, 64, 102
2, 49596, Control_c, 0, 64, 103
2, 49673, Control_c, 0, 64, 103
2, 49890, Note_on_c, 0, 84, 0
2, 49923, Control_c, 0, 64, 103
2, 49942, Control_c, 0, 64, 102
2, 49959, Note_on_c, 0, 72, 0
2, 49980, Control_c, 0, 64, 102
2, 49999, Control_c, 0, 64, 101
2, 50019, Note_on_c, 0, 75, 0
2, 50037, Control_c, 0, 64, 100
2, 50057, Control_c, 0, 64, 99
2, 50076, Control_c, 0, 64, 99
2, 50095, Control_c, 0, 64, 98
2, 50114, Control_c, 0, 64, 97
2, 50134, Control_c, 0, 64, 96
2, 50153, Control_c, 0, 64, 95
2, 50172, Control_c, 0, 64, 95
2, 50191, Control_c, 0, 64, 93
2, 50211, Control_c, 0, 64, 92
2, 50230, Control_c, 0, 64, 91
2, 50239, Note_on_c, 0, 78, 0
2, 50249, Control_c, 0, 64, 90
2, 50268, Control_c, 0, 64, 89
2, 50283, Note_on_c, 0, 57, 22
2, 50288, Control_c, 0, 64, 88
2, 50306, Control_c, 0, 64, 87
2, 50306, Note_on_c, 0, 60, 28
2, 50326, Control_c, 0, 64, 85
2, 50345, Control_c, 0, 64, 83
2, 50365, Control_c, 0, 64, 81
2, 50383, Control_c, 0, 64, 78
2, 50403, Control_c, 0, 64, 75
2, 50422, Control_c, 0, 64, 72
2, 50436, Note_on_c, 0, 65, 35
2, 50440, Control_c, 0, 64, 68
2, 50460, Control_c, 0, 64, 65
2, 50479, Control_c, 0, 64, 64
2, 50499, Control_c, 0, 64, 62
2, 50517, Control_c, 0, 64, 60
2, 50537, Control_c, 0, 64, 58
2, 50556, Control_c, 0, 64, 55
2, 50575, Control_c, 0, 64, 53
2, 50594, Control_c, 0, 64, 50
2, 50614, Control_c, 0, 64, 49
2, 50633, Control_c, 0, 64, 48
2, 50652, Control_c, 0, 64, 47
2, 50671, Control_c, 0, 64, 47
2, 50729, Control_c, 0, 64, 48
2, 50748, Control_c, 0, 64, 52
2, 50768, Control_c, 0, 64, 55
2, 50786, Control_c, 0, 64, 58
2, 50806, Control_c, 0, 64, 60
2, 50825, Control_c, 0, 64, 61
2, 50845, Control_c, 0, 64, 63
2, 50863, Control_c, 0, 64, 64
2, 50883, Control_c, 0, 64, 66
2, 50902, Control_c, 0, 64, 67
2, 50920, Control_c, 0, 64, 69
2, 50940, Control_c, 0, 64, 70
2, 50959, Control_c, 0, 64, 72
2, 50979, Control_c, 0, 64, 74
2, 50997, Control_c, 0, 64, 75
2, 51017, Control_c, 0, 64, 76
2, 51036, Control_c, 0, 64, 77
2, 51055, Control_c, 0, 64, 77
2, 51074, Control_c, 0, 64, 78
2, 51094, Control_c, 0, 64, 78
2, 51095, Note_on_c, 0, 65, 0
2, 51113, Control_c, 0, 64, 79
2, 51132, Control_c, 0, 64, 79
2, 51151, Control_c, 0, 64, 80
2, 51174, Note_on_c, 0, 60, 0
2, 51175, Note_on_c, 0, 57, 0
2, 51190, Control_c, 0, 64, 81
2, 51209, Control_c, 0, 64, 81
2, 51228, Control_c, 0, 64, 82
2, 51248, Control_c, 0, 64, 83
2, 51267, Control_c, 0, 64, 84
2, 51287, Control_c, 0, 64, 84
2, 51382, Control_c, 0, 64, 85
2, 51537, Note_on_c, 0, 77, 34
2, 51631, Control_c, 0, 64, 84
2, 51708, Control_c, 0, 64, 84
2, 51718, Note_on_c, 0, 77, 0
2, 51746, Control_c, 0, 64, 83
2, 51760, Note_on_c, 0, 75, 44
2, 51766, Control_c, 0, 64, 83
2, 51805, Control_c, 0, 64, 82
2, 51823, Control_c, 0, 64, 82
2, 51843, Control_c, 0, 64, 81
2, 51880, Control_c, 0, 64, 81
2, 51887, Note_on_c, 0, 75, 0
2, 51900, Control_c, 0, 64, 80
2, 51914, Note_on_c, 0, 73, 44
2, 51919, Control_c, 0, 64, 80
2, 51939, Control_c, 0, 64, 79
2, 51957, Control_c, 0, 64, 78
2, 51977, Control_c, 0, 64, 76
2, 51993, Note_on_c, 0, 57, 24
2, 51996, Control_c, 0, 64, 75
2, 52015, Control_c, 0, 64, 74
2, 52031, Note_on_c, 0, 60, 20
2, 52034, Control_c, 0, 64, 73
2, 52054, Control_c, 0, 64, 72
2, 52064, Note_on_c, 0, 73, 0
2, 52073, Control_c, 0, 64, 71
2, 52092, Control_c, 0, 64, 70
2, 52111, Control_c, 0, 64, 68
2, 52123, Note_on_c, 0, 72, 44
2, 52131, Control_c, 0, 64, 67
2, 52150, Control_c, 0, 64, 66
2, 52150, Note_on_c, 0, 65, 27
2, 52169, Control_c, 0, 64, 65
2, 52188, Control_c, 0, 64, 65
2, 52208, Control_c, 0, 64, 64
2, 52226, Control_c, 0, 64, 63
2, 52246, Control_c, 0, 64, 63
2, 52252, Note_on_c, 0, 72, 0
2, 52265, Control_c, 0, 64, 62
2, 52285, Control_c, 0, 64, 61
2, 52303, Control_c, 0, 64, 60
2, 52305, Note_on_c, 0, 73, 48
2, 52320, Control_c, 0, 64, 60
2, 52340, Control_c, 0, 64, 59
2, 52359, Control_c, 0, 64, 58
2, 52378, Control_c, 0, 64, 58
2, 52397, Control_c, 0, 64, 57
2, 52417, Control_c, 0, 64, 57
2, 52435, Control_c, 0, 64, 56
2, 52446, Note_on_c, 0, 73, 0
2, 52474, Control_c, 0, 64, 56
2, 52480, Note_on_c, 0, 72, 50
2, 52512, Control_c, 0, 64, 55
2, 52532, Control_c, 0, 64, 54
2, 52551, Control_c, 0, 64, 54
2, 52571, Control_c, 0, 64, 53
2, 52589, Control_c, 0, 64, 53
2, 52605, Note_on_c, 0, 72, 0
2, 52609, Control_c, 0, 64, 52
2, 52628, Control_c, 0, 64, 52
2, 52647, Control_c, 0, 64, 51
2, 52652, Note_on_c, 0, 73, 49
2, 52666, Control_c, 0, 64, 50
2, 52705, Control_c, 0, 64, 49
2, 52724, Control_c, 0, 64, 49
2, 52743, Control_c, 0, 64, 48
2, 52763, Control_c, 0, 64, 47
2, 52793, Note_on_c, 0, 73, 0
2, 52825, Note_on_c, 0, 75, 52
2, 52877, Control_c, 0, 64, 48
2, 52897, Control_c, 0, 64, 50
2, 52915, Control_c, 0, 64, 52
2, 52935, Control_c, 0, 64, 56
2, 52940, Note_on_c, 0, 75, 0
2, 52954, Control_c, 0, 64, 60
2, 52974, Control_c, 0, 64, 62
2, 52992, Control_c, 0, 64, 63
2, 52999, Note_on_c, 0, 73, 44
2, 53012, Control_c, 0, 64, 64
2, 53031, Control_c, 0, 64, 65
2, 53051, Control_c, 0, 64, 65
2, 53069, Control_c, 0, 64, 66
2, 53087, Note_on_c, 0, 57, 0
2, 53089, Control_c, 0, 64, 67
2, 53102, Note_on_c, 0, 60, 0
2, 53108, Control_c, 0, 64, 67
2, 53127, Control_c, 0, 64, 68
2, 53131, Note_on_c, 0, 73, 0
2, 53166, Control_c, 0, 64, 69
2, 53184, Note_on_c, 0, 75, 45
2, 53186, Control_c, 0, 64, 70
2, 53192, Note_on_c, 0, 65, 0
2, 53206, Control_c, 0, 64, 70
2, 53225, Control_c, 0, 64, 71
2, 53245, Control_c, 0, 64, 72
2, 53261, Control_c, 0, 64, 72
2, 53271, Note_on_c, 0, 75, 0
2, 53339, Control_c, 0, 64, 73
2, 53341, Note_on_c, 0, 72, 45
2, 53450, Note_on_c, 0, 58, 27
2, 53493, Control_c, 0, 64, 72
2, 53514, Note_on_c, 0, 61, 24
2, 53531, Control_c, 0, 64, 72
2, 53547, Note_on_c, 0, 72, 0
2, 53550, Control_c, 0, 64, 71
2, 53570, Control_c, 0, 64, 70
2, 53589, Control_c, 0, 64, 69
2, 53608, Control_c, 0, 64, 68
2, 53612, Note_on_c, 0, 65, 27
2, 53614, Note_on_c, 0, 75, 44
2, 53627, Control_c, 0, 64, 67
2, 53647, Control_c, 0, 64, 66
2, 53665, Control_c, 0, 64, 65
2, 53685, Control_c, 0, 64, 64
2, 53704, Control_c, 0, 64, 64
2, 53724, Control_c, 0, 64, 63
2, 53742, Control_c, 0, 64, 62
2, 53761, Control_c, 0, 64, 61
2, 53761, Note_on_c, 0, 75, 0
2, 53781, Control_c, 0, 64, 60
2, 53797, Note_on_c, 0, 73, 53
2, 53800, Control_c, 0, 64, 59
2, 53819, Control_c, 0, 64, 58
2, 53838, Control_c, 0, 64, 57
2, 53858, Control_c, 0, 64, 57
2, 53859, Note_on_c, 0, 73, 0
2, 53876, Control_c, 0, 64, 56
2, 53896, Control_c, 0, 64, 55
2, 53915, Control_c, 0, 64, 54
2, 53918, Note_on_c, 0, 75, 46
2, 53935, Control_c, 0, 64, 53
2, 53953, Control_c, 0, 64, 52
2, 53953, Note_on_c, 0, 75, 0
2, 53992, Control_c, 0, 64, 52
2, 53993, Note_on_c, 0, 73, 54
2, 54011, Control_c, 0, 64, 51
2, 54030, Control_c, 0, 64, 51
2, 54031, Note_on_c, 0, 73, 0
2, 54050, Control_c, 0, 64, 50
2, 54055, Note_on_c, 0, 75, 64
2, 54069, Control_c, 0, 64, 49
2, 54088, Control_c, 0, 64, 49
2, 54100, Note_on_c, 0, 75, 0
2, 54127, Control_c, 0, 64, 48
2, 54131, Note_on_c, 0, 73, 56
2, 54146, Control_c, 0, 64, 47
2, 54178, Note_on_c, 0, 73, 0
2, 54185, Control_c, 0, 64, 47
2, 54220, Note_on_c, 0, 75, 53
2, 54270, Note_on_c, 0, 75, 0
2, 54293, Note_on_c, 0, 73, 49
2, 54299, Control_c, 0, 64, 47
2, 54318, Control_c, 0, 64, 48
2, 54338, Control_c, 0, 64, 50
2, 54356, Control_c, 0, 64, 52
2, 54376, Control_c, 0, 64, 55
2, 54395, Control_c, 0, 64, 58
2, 54415, Control_c, 0, 64, 60
2, 54433, Control_c, 0, 64, 62
2, 54453, Control_c, 0, 64, 64
2, 54472, Control_c, 0, 64, 65
2, 54491, Control_c, 0, 64, 66
2, 54510, Control_c, 0, 64, 67
2, 54530, Control_c, 0, 64, 68
2, 54549, Control_c, 0, 64, 70
2, 54554, Note_on_c, 0, 65, 0
2, 54568, Control_c, 0, 64, 71
2, 54587, Control_c, 0, 64, 73
2, 54607, Control_c, 0, 64, 75
2, 54625, Control_c, 0, 64, 76
2, 54626, Note_on_c, 0, 58, 0
2, 54645, Control_c, 0, 64, 77
2, 54649, Note_on_c, 0, 61, 0
2, 54664, Control_c, 0, 64, 78
2, 54684, Control_c, 0, 64, 78
2, 54702, Control_c, 0, 64, 79
2, 54741, Control_c, 0, 64, 79
2, 54798, Control_c, 0, 64, 80
2, 54833, Note_on_c, 0, 73, 0
2, 54870, Note_on_c, 0, 72, 43
2, 54971, Control_c, 0, 64, 79
2, 55020, Note_on_c, 0, 72, 0
2, 55057, Note_on_c, 0, 70, 53
2, 55094, Note_on_c, 0, 70, 0
2, 55105, Note_on_c, 0, 58, 31
2, 55144, Control_c, 0, 64, 79
2, 55155, Note_on_c, 0, 61, 38
2, 55182, Control_c, 0, 64, 78
2, 55240, Control_c, 0, 64, 78
2, 55243, Note_on_c, 0, 65, 37
2, 55244, Note_on_c, 0, 70, 39
2, 55278, Control_c, 0, 64, 76
2, 55297, Note_on_c, 0, 73, 47
2, 55298, Control_c, 0, 64, 73
2, 55316, Control_c, 0, 64, 69
2, 55336, Control_c, 0, 64, 65
2, 55355, Control_c, 0, 64, 62
2, 55366, Note_on_c, 0, 77, 56
2, 55375, Control_c, 0, 64, 58
2, 55393, Control_c, 0, 64, 55
2, 55413, Control_c, 0, 64, 52
2, 55432, Control_c, 0, 64, 52
2, 55451, Control_c, 0, 64, 52
2, 55470, Control_c, 0, 64, 53
2, 55490, Control_c, 0, 64, 56
2, 55509, Control_c, 0, 64, 59
2, 55528, Control_c, 0, 64, 61
2, 55547, Control_c, 0, 64, 63
2, 55567, Control_c, 0, 64, 65
2, 55585, Control_c, 0, 64, 67
2, 55605, Control_c, 0, 64, 69
2, 55624, Control_c, 0, 64, 71
2, 55644, Control_c, 0, 64, 74
2, 55662, Control_c, 0, 64, 77
2, 55681, Control_c, 0, 64, 80
2, 55701, Control_c, 0, 64, 83
2, 55720, Control_c, 0, 64, 84
2, 55739, Control_c, 0, 64, 85
2, 55758, Control_c, 0, 64, 86
2, 55849, Note_on_c, 0, 65, 0
2, 55963, Note_on_c, 0, 61, 0
2, 55968, Note_on_c, 0, 58, 0
2, 56410, Note_on_c, 0, 77, 0
2, 56449, Note_on_c, 0, 78, 42
2, 56464, Note_on_c, 0, 73, 0
2, 56565, Control_c, 0, 64, 85
2, 56579, Note_on_c, 0, 70, 0
2, 56641, Control_c, 0, 64, 85
2, 56644, Note_on_c, 0, 77, 48
2, 56699, Note_on_c, 0, 78, 0
2, 56718, Control_c, 0, 64, 84
2, 56738, Control_c, 0, 64, 84
2, 56756, Control_c, 0, 64, 83
2, 56776, Control_c, 0, 64, 83
2, 56795, Control_c, 0, 64, 82
2, 56800, Note_on_c, 0, 58, 30
2, 56815, Control_c, 0, 64, 82
2, 56818, Note_on_c, 0, 77, 0
2, 56833, Control_c, 0, 64, 81
2, 56833, Note_on_c, 0, 75, 52
2, 56853, Control_c, 0, 64, 80
2, 56872, Control_c, 0, 64, 79
2, 56881, Note_on_c, 0, 61, 18
2, 56891, Control_c, 0, 64, 78
2, 56910, Control_c, 0, 64, 77
2, 56930, Control_c, 0, 64, 75
2, 56949, Control_c, 0, 64, 73
2, 56949, Note_on_c, 0, 65, 29
2, 56968, Control_c, 0, 64, 71
2, 56984, Note_on_c, 0, 75, 0
2, 56987, Control_c, 0, 64, 69
2, 57007, Control_c, 0, 64, 67
2, 57008, Note_on_c, 0, 73, 53
2, 57025, Control_c, 0, 64, 66
2, 57041, Control_c, 0, 64, 66
2, 57061, Control_c, 0, 64, 65
2, 57080, Control_c, 0, 64, 64
2, 57099, Control_c, 0, 64, 64
2, 57116, Control_c, 0, 64, 63
2, 57136, Control_c, 0, 64, 62
2, 57144, Note_on_c, 0, 73, 0
2, 57155, Control_c, 0, 64, 61
2, 57175, Control_c, 0, 64, 60
2, 57175, Note_on_c, 0, 72, 49
2, 57193, Control_c, 0, 64, 59
2, 57213, Control_c, 0, 64, 58
2, 57232, Control_c, 0, 64, 56
2, 57251, Control_c, 0, 64, 55
2, 57270, Control_c, 0, 64, 53
2, 57290, Control_c, 0, 64, 51
2, 57309, Control_c, 0, 64, 51
2, 57328, Control_c, 0, 64, 50
2, 57346, Note_on_c, 0, 72, 0
2, 57347, Control_c, 0, 64, 50
2, 57363, Note_on_c, 0, 70, 54
2, 57367, Control_c, 0, 64, 49
2, 57385, Control_c, 0, 64, 49
2, 57405, Control_c, 0, 64, 48
2, 57424, Control_c, 0, 64, 47
2, 57444, Control_c, 0, 64, 47
2, 57462, Control_c, 0, 64, 46
2, 57481, Control_c, 0, 64, 46
2, 57501, Control_c, 0, 64, 45
2, 57520, Control_c, 0, 64, 44
2, 57527, Note_on_c, 0, 68, 59
2, 57539, Control_c, 0, 64, 43
2, 57542, Note_on_c, 0, 70, 0
2, 57558, Control_c, 0, 64, 42
2, 57578, Control_c, 0, 64, 41
2, 57596, Control_c, 0, 64, 41
2, 57616, Control_c, 0, 64, 40
2, 57635, Control_c, 0, 64, 39
2, 57757, Note_on_c, 0, 68, 0
2, 57759, Note_on_c, 0, 66, 54
2, 57789, Control_c, 0, 64, 40
2, 57801, Note_on_c, 0, 65, 0
2, 57808, Control_c, 0, 64, 41
2, 57827, Control_c, 0, 64, 43
2, 57847, Control_c, 0, 64, 47
2, 57865, Control_c, 0, 64, 52
2, 57885, Control_c, 0, 64, 56
2, 57904, Control_c, 0, 64, 60
2, 57924, Control_c, 0, 64, 61
2, 57942, Control_c, 0, 64, 62
2, 57961, Control_c, 0, 64, 63
2, 57985, Control_c, 0, 64, 64
2, 58005, Control_c, 0, 64, 65
2, 58021, Note_on_c, 0, 61, 0
2, 58024, Control_c, 0, 64, 67
2, 58044, Control_c, 0, 64, 68
2, 58058, Note_on_c, 0, 58, 0
2, 58062, Control_c, 0, 64, 70
2, 58083, Control_c, 0, 64, 71
2, 58102, Control_c, 0, 64, 72
2, 58120, Control_c, 0, 64, 73
2, 58140, Control_c, 0, 64, 74
2, 58159, Control_c, 0, 64, 75
2, 58175, Note_on_c, 0, 68, 61
2, 58179, Control_c, 0, 64, 77
2, 58197, Control_c, 0, 64, 78
2, 58250, Note_on_c, 0, 66, 0
2, 58332, Control_c, 0, 64, 77
2, 58355, Note_on_c, 0, 65, 57
2, 58358, Note_on_c, 0, 68, 0
2, 58390, Control_c, 0, 64, 77
2, 58428, Control_c, 0, 64, 76
2, 58466, Control_c, 0, 64, 76
2, 58471, Note_on_c, 0, 51, 34
2, 58505, Control_c, 0, 64, 75
2, 58543, Control_c, 0, 64, 75
2, 58562, Control_c, 0, 64, 74
2, 58575, Note_on_c, 0, 58, 28
2, 58582, Control_c, 0, 64, 74
2, 58600, Control_c, 0, 64, 73
2, 58620, Control_c, 0, 64, 71
2, 58627, Note_on_c, 0, 66, 57
2, 58632, Note_on_c, 0, 63, 46
2, 58635, Note_on_c, 0, 61, 30
2, 58639, Control_c, 0, 64, 70
2, 58646, Note_on_c, 0, 65, 0
2, 58659, Control_c, 0, 64, 67
2, 58677, Control_c, 0, 64, 64
2, 58697, Control_c, 0, 64, 61
2, 58716, Control_c, 0, 64, 56
2, 58736, Control_c, 0, 64, 50
2, 58754, Control_c, 0, 64, 43
2, 58774, Control_c, 0, 64, 35
2, 58793, Control_c, 0, 64, 21
2, 58812, Control_c, 0, 64, 9
2, 58831, Control_c, 0, 64, 0
2, 58870, Control_c, 0, 64, 9
2, 58889, Control_c, 0, 64, 21
2, 58908, Control_c, 0, 64, 35
2, 58928, Control_c, 0, 64, 46
2, 58948, Control_c, 0, 64, 54
2, 58968, Control_c, 0, 64, 58
2, 58987, Control_c, 0, 64, 61
2, 59006, Control_c, 0, 64, 62
2, 59023, Control_c, 0, 64, 63
2, 59042, Control_c, 0, 64, 64
2, 59062, Control_c, 0, 64, 65
2, 59080, Control_c, 0, 64, 65
2, 59100, Control_c, 0, 64, 66
2, 59119, Control_c, 0, 64, 67
2, 59139, Control_c, 0, 64, 67
2, 59157, Control_c, 0, 64, 68
2, 59177, Control_c, 0, 64, 69
2, 59196, Control_c, 0, 64, 70
2, 59216, Control_c, 0, 64, 71
2, 59221, Note_on_c, 0, 63, 0
2, 59234, Control_c, 0, 64, 72
2, 59254, Control_c, 0, 64, 73
2, 59273, Control_c, 0, 64, 74
2, 59291, Note_on_c, 0, 61, 0
2, 59320, Note_on_c, 0, 51, 0
2, 59388, Control_c, 0, 64, 74
2, 59401, Note_on_c, 0, 58, 0
2, 59426, Control_c, 0, 64, 75
2, 59446, Control_c, 0, 64, 76
2, 59465, Control_c, 0, 64, 76
2, 59753, Control_c, 0, 64, 76
2, 59770, Note_on_c, 0, 70, 61
2, 59830, Control_c, 0, 64, 75
2, 59831, Note_on_c, 0, 66, 0
2, 59945, Control_c, 0, 64, 75
2, 59947, Note_on_c, 0, 73, 63
2, 59965, Control_c, 0, 64, 74
2, 59983, Control_c, 0, 64, 74
2, 60025, Note_on_c, 0, 70, 0
2, 60060, Control_c, 0, 64, 73
2, 60073, Note_on_c, 0, 51, 34
2, 60079, Control_c, 0, 64, 73
2, 60099, Control_c, 0, 64, 72
2, 60099, Note_on_c, 0, 58, 29
2, 60117, Control_c, 0, 64, 71
2, 60137, Control_c, 0, 64, 69
2, 60156, Control_c, 0, 64, 68
2, 60174, Note_on_c, 0, 78, 68
2, 60176, Control_c, 0, 64, 66
2, 60194, Control_c, 0, 64, 64
2, 60206, Note_on_c, 0, 73, 0
2, 60214, Control_c, 0, 64, 61
2, 60215, Note_on_c, 0, 60, 36
2, 60233, Control_c, 0, 64, 59
2, 60252, Control_c, 0, 64, 56
2, 60271, Control_c, 0, 64, 51
2, 60291, Control_c, 0, 64, 44
2, 60310, Control_c, 0, 64, 36
2, 60329, Control_c, 0, 64, 24
2, 60348, Control_c, 0, 64, 11
2, 60368, Control_c, 0, 64, 0
2, 60445, Control_c, 0, 64, 9
2, 60463, Control_c, 0, 64, 23
2, 60482, Control_c, 0, 64, 36
2, 60502, Control_c, 0, 64, 47
2, 60520, Control_c, 0, 64, 54
2, 60540, Control_c, 0, 64, 58
2, 60559, Control_c, 0, 64, 61
2, 60579, Control_c, 0, 64, 62
2, 60597, Control_c, 0, 64, 64
2, 60617, Control_c, 0, 64, 65
2, 60636, Control_c, 0, 64, 66
2, 60656, Control_c, 0, 64, 67
2, 60674, Control_c, 0, 64, 68
2, 60694, Control_c, 0, 64, 69
2, 60713, Control_c, 0, 64, 69
2, 60732, Control_c, 0, 64, 70
2, 60751, Control_c, 0, 64, 71
2, 60771, Control_c, 0, 64, 71
2, 60790, Control_c, 0, 64, 73
2, 60809, Control_c, 0, 64, 74
2, 60811, Note_on_c, 0, 51, 0
2, 60828, Control_c, 0, 64, 74
2, 60848, Control_c, 0, 64, 75
2, 60887, Control_c, 0, 64, 75
2, 60902, Note_on_c, 0, 60, 0
2, 60906, Control_c, 0, 64, 76
2, 60943, Control_c, 0, 64, 76
2, 60959, Note_on_c, 0, 58, 0
2, 60982, Control_c, 0, 64, 77
2, 61000, Control_c, 0, 64, 77
2, 61039, Control_c, 0, 64, 78
2, 61204, Note_on_c, 0, 77, 52
2, 61212, Control_c, 0, 64, 78
2, 61286, Note_on_c, 0, 78, 0
2, 61328, Control_c, 0, 64, 78
2, 61393, Note_on_c, 0, 75, 62
2, 61405, Control_c, 0, 64, 77
2, 61417, Note_on_c, 0, 77, 0
2, 61442, Control_c, 0, 64, 77
2, 61480, Control_c, 0, 64, 76
2, 61519, Control_c, 0, 64, 76
2, 61557, Control_c, 0, 64, 75
2, 61558, Note_on_c, 0, 73, 60
2, 61572, Note_on_c, 0, 75, 0
2, 61596, Control_c, 0, 64, 75
2, 61616, Control_c, 0, 64, 74
2, 61630, Note_on_c, 0, 51, 18
2, 61654, Control_c, 0, 64, 74
2, 61673, Control_c, 0, 64, 73
2, 61692, Control_c, 0, 64, 73
2, 61695, Note_on_c, 0, 58, 21
2, 61711, Control_c, 0, 64, 72
2, 61731, Control_c, 0, 64, 71
2, 61750, Control_c, 0, 64, 69
2, 61769, Control_c, 0, 64, 68
2, 61787, Note_on_c, 0, 72, 57
2, 61788, Control_c, 0, 64, 66
2, 61808, Control_c, 0, 64, 65
2, 61816, Note_on_c, 0, 73, 0
2, 61830, Control_c, 0, 64, 64
2, 61837, Note_on_c, 0, 60, 31
2, 61850, Control_c, 0, 64, 63
2, 61869, Control_c, 0, 64, 61
2, 61888, Control_c, 0, 64, 60
2, 61906, Control_c, 0, 64, 58
2, 61925, Control_c, 0, 64, 57
2, 61944, Control_c, 0, 64, 56
2, 61962, Control_c, 0, 64, 55
2, 61982, Control_c, 0, 64, 54
2, 62001, Control_c, 0, 64, 53
2, 62020, Control_c, 0, 64, 53
2, 62039, Control_c, 0, 64, 52
2, 62059, Control_c, 0, 64, 51
2, 62078, Control_c, 0, 64, 51
2, 62347, Control_c, 0, 64, 50
2, 62350, Note_on_c, 0, 72, 0
2, 62365, Note_on_c, 0, 75, 50
2, 62405, Control_c, 0, 64, 50
2, 62460, Note_on_c, 0, 73, 47
2, 62460, Note_on_c, 0, 75, 0
2, 62462, Control_c, 0, 64, 49
2, 62500, Control_c, 0, 64, 49
2, 62519, Control_c, 0, 64, 48
2, 62540, Note_on_c, 0, 73, 0
2, 62557, Note_on_c, 0, 72, 52
2, 62558, Control_c, 0, 64, 48
2, 62577, Control_c, 0, 64, 47
2, 62654, Control_c, 0, 64, 47
2, 62693, Control_c, 0, 64, 46
2, 62713, Note_on_c, 0, 72, 0
2, 62731, Control_c, 0, 64, 46
2, 62736, Note_on_c, 0, 73, 49
2, 62824, Control_c, 0, 64, 47
2, 62844, Control_c, 0, 64, 50
2, 62861, Control_c, 0, 64, 54
2, 62881, Control_c, 0, 64, 58
2, 62895, Note_on_c, 0, 73, 0
2, 62901, Control_c, 0, 64, 60
2, 62920, Control_c, 0, 64, 62
2, 62922, Note_on_c, 0, 75, 53
2, 62939, Control_c, 0, 64, 63
2, 62942, Note_on_c, 0, 60, 0
2, 62958, Control_c, 0, 64, 64
2, 62973, Note_on_c, 0, 58, 0
2, 62976, Note_on_c, 0, 51, 0
2, 62978, Control_c, 0, 64, 65
2, 62996, Control_c, 0, 64, 66
2, 63016, Control_c, 0, 64, 67
2, 63035, Control_c, 0, 64, 67
2, 63055, Control_c, 0, 64, 68
2, 63131, Control_c, 0, 64, 68
2, 63150, Control_c, 0, 64, 69
2, 63189, Control_c, 0, 64, 69
2, 63208, Control_c, 0, 64, 70
2, 63333, Note_on_c, 0, 65, 41
2, 63377, Note_on_c, 0, 60, 33
2, 63385, Note_on_c, 0, 51, 27
2, 63385, Note_on_c, 0, 57, 27
2, 63400, Control_c, 0, 64, 69
2, 63401, Note_on_c, 0, 75, 0
2, 63419, Control_c, 0, 64, 67
2, 63438, Control_c, 0, 64, 62
2, 63458, Control_c, 0, 64, 51
2, 63476, Control_c, 0, 64, 39
2, 63496, Control_c, 0, 64, 31
2, 63515, Control_c, 0, 64, 30
2, 63535, Control_c, 0, 64, 37
2, 63553, Control_c, 0, 64, 50
2, 63573, Control_c, 0, 64, 59
2, 63592, Control_c, 0, 64, 63
2, 63611, Control_c, 0, 64, 65
2, 63630, Control_c, 0, 64, 66
2, 63650, Control_c, 0, 64, 68
2, 63669, Control_c, 0, 64, 70
2, 63688, Control_c, 0, 64, 72
2, 63707, Control_c, 0, 64, 74
2, 63727, Control_c, 0, 64, 76
2, 63746, Control_c, 0, 64, 77
2, 63766, Control_c, 0, 64, 77
2, 63799, Note_on_c, 0, 65, 0
2, 63805, Control_c, 0, 64, 78
2, 63821, Note_on_c, 0, 67, 59
2, 63822, Control_c, 0, 64, 79
2, 63841, Control_c, 0, 64, 80
2, 63861, Control_c, 0, 64, 80
2, 63899, Control_c, 0, 64, 80
2, 63910, Note_on_c, 0, 67, 0
2, 63918, Control_c, 0, 64, 79
2, 63948, Note_on_c, 0, 69, 63
2, 63956, Control_c, 0, 64, 79
2, 64033, Control_c, 0, 64, 78
2, 64072, Control_c, 0, 64, 78
2, 64089, Note_on_c, 0, 69, 0
2, 64091, Control_c, 0, 64, 75
2, 64110, Control_c, 0, 64, 69
2, 64130, Control_c, 0, 64, 63
2, 64137, Note_on_c, 0, 70, 51
2, 64149, Control_c, 0, 64, 56
2, 64168, Control_c, 0, 64, 52
2, 64207, Control_c, 0, 64, 54
2, 64225, Control_c, 0, 64, 57
2, 64245, Control_c, 0, 64, 61
2, 64264, Control_c, 0, 64, 63
2, 64283, Control_c, 0, 64, 66
2, 64287, Note_on_c, 0, 70, 0
2, 64302, Control_c, 0, 64, 68
2, 64321, Control_c, 0, 64, 70
2, 64341, Control_c, 0, 64, 73
2, 64341, Note_on_c, 0, 69, 53
2, 64360, Control_c, 0, 64, 75
2, 64379, Control_c, 0, 64, 76
2, 64390, Note_on_c, 0, 69, 0
2, 64398, Control_c, 0, 64, 77
2, 64421, Note_on_c, 0, 60, 0
2, 64436, Control_c, 0, 64, 77
2, 64439, Note_on_c, 0, 70, 52
2, 64456, Control_c, 0, 64, 78
2, 64474, Note_on_c, 0, 70, 0
2, 64475, Control_c, 0, 64, 79
2, 64487, Note_on_c, 0, 57, 0
2, 64495, Control_c, 0, 64, 81
2, 64497, Note_on_c, 0, 69, 64
2, 64513, Control_c, 0, 64, 82
2, 64520, Note_on_c, 0, 51, 0
2, 64533, Control_c, 0, 64, 82
2, 64536, Note_on_c, 0, 69, 0
2, 64569, Note_on_c, 0, 70, 65
2, 64613, Note_on_c, 0, 70, 0
2, 64625, Note_on_c, 0, 69, 71
2, 64629, Control_c, 0, 64, 83
2, 64686, Note_on_c, 0, 69, 0
2, 64687, Control_c, 0, 64, 83
2, 64718, Note_on_c, 0, 67, 67
2, 64801, Control_c, 0, 64, 83
2, 64805, Note_on_c, 0, 67, 0
2, 64824, Note_on_c, 0, 69, 74
2, 64857, Note_on_c, 0, 49, 42
2, 64916, Control_c, 0, 64, 82
2, 64922, Note_on_c, 0, 53, 41
2, 64975, Control_c, 0, 64, 82
2, 64993, Control_c, 0, 64, 81
2, 65013, Control_c, 0, 64, 80
2, 65032, Control_c, 0, 64, 79
2, 65051, Control_c, 0, 64, 78
2, 65070, Control_c, 0, 64, 77
2, 65080, Note_on_c, 0, 70, 71
2, 65090, Control_c, 0, 64, 74
2, 65109, Control_c, 0, 64, 70
2, 65115, Note_on_c, 0, 58, 40
2, 65123, Note_on_c, 0, 69, 0
2, 65128, Control_c, 0, 64, 65
2, 65147, Control_c, 0, 64, 61
2, 65167, Control_c, 0, 64, 57
2, 65185, Control_c, 0, 64, 51
2, 65205, Control_c, 0, 64, 44
2, 65224, Control_c, 0, 64, 37
2, 65243, Control_c, 0, 64, 32
2, 65262, Control_c, 0, 64, 31
2, 65301, Control_c, 0, 64, 34
2, 65320, Control_c, 0, 64, 40
2, 65339, Control_c, 0, 64, 45
2, 65358, Control_c, 0, 64, 50
2, 65378, Control_c, 0, 64, 56
2, 65396, Control_c, 0, 64, 59
2, 65416, Control_c, 0, 64, 62
2, 65435, Control_c, 0, 64, 63
2, 65455, Control_c, 0, 64, 65
2, 65473, Control_c, 0, 64, 66
2, 65493, Control_c, 0, 64, 68
2, 65512, Control_c, 0, 64, 71
2, 65531, Control_c, 0, 64, 75
2, 65550, Control_c, 0, 64, 79
2, 65570, Control_c, 0, 64, 81
2, 65589, Control_c, 0, 64, 82
2, 65608, Control_c, 0, 64, 83
2, 65647, Control_c, 0, 64, 83
2, 65666, Control_c, 0, 64, 84
2, 65686, Control_c, 0, 64, 85
2, 65705, Control_c, 0, 64, 86
2, 65713, Note_on_c, 0, 58, 0
2, 65725, Control_c, 0, 64, 86
2, 65752, Note_on_c, 0, 53, 0
2, 65767, Note_on_c, 0, 49, 0
2, 65973, Control_c, 0, 64, 86
2, 66011, Control_c, 0, 64, 85
2, 66050, Control_c, 0, 64, 85
2, 66107, Control_c, 0, 64, 84
2, 66165, Control_c, 0, 64, 84
2, 66184, Control_c, 0, 64, 83
2, 66203, Control_c, 0, 64, 83
2, 66222, Control_c, 0, 64, 82
2, 66241, Control_c, 0, 64, 82
2, 66261, Control_c, 0, 64, 81
2, 66299, Control_c, 0, 64, 81
2, 66356, Control_c, 0, 64, 80
2, 66376, Control_c, 0, 64, 80
2, 66395, Control_c, 0, 64, 79
2, 66415, Control_c, 0, 64, 79
2, 66428, Note_on_c, 0, 65, 39
2, 66433, Control_c, 0, 64, 78
2, 66453, Control_c, 0, 64, 77
2, 66472, Control_c, 0, 64, 77
2, 66491, Control_c, 0, 64, 76
2, 66510, Control_c, 0, 64, 76
2, 66530, Control_c, 0, 64, 75
2, 66549, Control_c, 0, 64, 74
2, 66568, Control_c, 0, 64, 72
2, 66587, Control_c, 0, 64, 71
2, 66607, Control_c, 0, 64, 71
2, 66625, Control_c, 0, 64, 70
2, 66664, Control_c, 0, 64, 70
2, 66683, Control_c, 0, 64, 69
2, 66702, Control_c, 0, 64, 69
2, 66721, Control_c, 0, 64, 68
2, 66760, Control_c, 0, 64, 68
2, 66798, Control_c, 0, 64, 66
2, 66818, Control_c, 0, 64, 65
2, 66821, Note_on_c, 0, 66, 39
2, 66830, Note_on_c, 0, 51, 24
2, 66836, Control_c, 0, 64, 62
2, 66837, Note_on_c, 0, 58, 27
2, 66845, Note_on_c, 0, 65, 0
2, 66856, Control_c, 0, 64, 58
2, 66875, Control_c, 0, 64, 53
2, 66895, Control_c, 0, 64, 49
2, 66913, Control_c, 0, 64, 46
2, 66933, Control_c, 0, 64, 45
2, 66971, Control_c, 0, 64, 47
2, 66990, Control_c, 0, 64, 50
2, 67010, Control_c, 0, 64, 53
2, 67029, Control_c, 0, 64, 57
2, 67048, Control_c, 0, 64, 59
2, 67067, Control_c, 0, 64, 62
2, 67087, Control_c, 0, 64, 63
2, 67105, Control_c, 0, 64, 64
2, 67125, Control_c, 0, 64, 65
2, 67144, Control_c, 0, 64, 66
2, 67163, Control_c, 0, 64, 67
2, 67182, Control_c, 0, 64, 68
2, 67201, Control_c, 0, 64, 69
2, 67221, Control_c, 0, 64, 70
2, 67240, Control_c, 0, 64, 71
2, 67259, Control_c, 0, 64, 73
2, 67278, Control_c, 0, 64, 74
2, 67298, Control_c, 0, 64, 76
2, 67316, Control_c, 0, 64, 78
2, 67336, Control_c, 0, 64, 80
2, 67355, Control_c, 0, 64, 80
2, 67393, Control_c, 0, 64, 81
2, 67662, Control_c, 0, 64, 80
2, 67702, Note_on_c, 0, 58, 0
2, 68080, Note_on_c, 0, 63, 35
2, 68085, Control_c, 0, 64, 80
2, 68123, Control_c, 0, 64, 79
2, 68161, Control_c, 0, 64, 79
2, 68181, Control_c, 0, 64, 78
2, 68200, Control_c, 0, 64, 78
2, 68219, Control_c, 0, 64, 77
2, 68238, Control_c, 0, 64, 77
2, 68258, Control_c, 0, 64, 76
2, 68296, Control_c, 0, 64, 76
2, 68315, Control_c, 0, 64, 75
2, 68335, Control_c, 0, 64, 75
2, 68373, Control_c, 0, 64, 74
2, 68411, Control_c, 0, 64, 73
2, 68430, Control_c, 0, 64, 72
2, 68450, Control_c, 0, 64, 72
2, 68469, Control_c, 0, 64, 71
2, 68473, Note_on_c, 0, 51, 0
2, 68488, Control_c, 0, 64, 70
2, 68499, Note_on_c, 0, 60, 34
2, 68507, Control_c, 0, 64, 69
2, 68527, Control_c, 0, 64, 67
2, 68530, Note_on_c, 0, 53, 20
2, 68536, Note_on_c, 0, 63, 0
2, 68545, Control_c, 0, 64, 65
2, 68565, Control_c, 0, 64, 62
2, 68575, Note_on_c, 0, 66, 0
2, 68584, Control_c, 0, 64, 59
2, 68603, Control_c, 0, 64, 55
2, 68622, Control_c, 0, 64, 51
2, 68640, Control_c, 0, 64, 50
2, 68660, Control_c, 0, 64, 49
2, 68698, Control_c, 0, 64, 50
2, 68717, Control_c, 0, 64, 52
2, 68737, Control_c, 0, 64, 55
2, 68755, Control_c, 0, 64, 58
2, 68775, Control_c, 0, 64, 61
2, 68794, Control_c, 0, 64, 62
2, 68814, Control_c, 0, 64, 63
2, 68832, Control_c, 0, 64, 64
2, 68852, Control_c, 0, 64, 64
2, 68871, Control_c, 0, 64, 65
2, 68891, Control_c, 0, 64, 65
2, 68909, Control_c, 0, 64, 66
2, 68929, Control_c, 0, 64, 67
2, 68948, Control_c, 0, 64, 68
2, 68967, Control_c, 0, 64, 69
2, 68986, Control_c, 0, 64, 69
2, 69006, Control_c, 0, 64, 70
2, 69025, Control_c, 0, 64, 70
2, 69043, Control_c, 0, 64, 71
2, 69063, Control_c, 0, 64, 71
2, 69082, Control_c, 0, 64, 72
2, 69101, Control_c, 0, 64, 73
2, 69120, Control_c, 0, 64, 74
2, 69140, Control_c, 0, 64, 75
2, 69159, Control_c, 0, 64, 75
2, 69178, Control_c, 0, 64, 76
2, 69235, Control_c, 0, 67, 13
2, 69255, Control_c, 0, 67, 24
2, 69274, Control_c, 0, 67, 33
2, 69294, Control_c, 0, 67, 44
2, 69312, Control_c, 0, 67, 57
2, 69332, Control_c, 0, 67, 72
2, 69351, Control_c, 0, 67, 86
2, 69371, Control_c, 0, 67, 100
2, 69389, Control_c, 0, 67, 115
2, 69409, Control_c, 0, 67, 127
2, 69476, Note_on_c, 0, 53, 0
2, 69619, Note_on_c, 0, 60, 0
2, 69650, Note_on_c, 0, 61, 26
2, 69835, Note_on_c, 0, 61, 0
2, 69860, Note_on_c, 0, 60, 33
2, 69966, Control_c, 0, 64, 75
2, 70004, Note_on_c, 0, 61, 37
2, 70011, Note_on_c, 0, 60, 0
2, 70023, Control_c, 0, 64, 75
2, 70061, Control_c, 0, 64, 74
2, 70080, Control_c, 0, 64, 74
2, 70100, Control_c, 0, 64, 73
2, 70119, Control_c, 0, 64, 72
2, 70138, Control_c, 0, 64, 71
2, 70157, Control_c, 0, 64, 70
2, 70163, Note_on_c, 0, 61, 0
2, 70177, Control_c, 0, 64, 69
2, 70187, Note_on_c, 0, 41, 29
2, 70195, Control_c, 0, 64, 67
2, 70214, Note_on_c, 0, 63, 39
2, 70215, Control_c, 0, 64, 64
2, 70218, Note_on_c, 0, 53, 14
2, 70234, Control_c, 0, 64, 62
2, 70254, Control_c, 0, 64, 60
2, 70272, Control_c, 0, 64, 55
2, 70292, Control_c, 0, 64, 51
2, 70311, Control_c, 0, 64, 46
2, 70331, Control_c, 0, 64, 40
2, 70349, Control_c, 0, 64, 36
2, 70369, Control_c, 0, 64, 36
2, 70376, Note_on_c, 0, 63, 0
2, 70407, Control_c, 0, 64, 40
2, 70411, Note_on_c, 0, 61, 33
2, 70426, Control_c, 0, 64, 45
2, 70446, Control_c, 0, 64, 51
2, 70465, Control_c, 0, 64, 57
2, 70483, Control_c, 0, 64, 60
2, 70503, Control_c, 0, 64, 62
2, 70515, Note_on_c, 0, 61, 0
2, 70522, Control_c, 0, 64, 63
2, 70541, Control_c, 0, 64, 64
2, 70559, Control_c, 0, 64, 64
2, 70569, Note_on_c, 0, 60, 40
2, 70579, Control_c, 0, 64, 65
2, 70598, Control_c, 0, 64, 66
2, 70617, Control_c, 0, 64, 67
2, 70636, Control_c, 0, 64, 67
2, 70656, Control_c, 0, 64, 68
2, 70675, Control_c, 0, 64, 68
2, 70694, Control_c, 0, 64, 69
2, 70706, Note_on_c, 0, 60, 0
2, 70713, Control_c, 0, 64, 70
2, 70733, Control_c, 0, 64, 70
2, 70751, Control_c, 0, 64, 71
2, 70752, Note_on_c, 0, 61, 33
2, 70771, Control_c, 0, 64, 71
2, 70790, Control_c, 0, 64, 72
2, 70810, Control_c, 0, 64, 72
2, 70828, Control_c, 0, 64, 73
2, 70844, Note_on_c, 0, 61, 0
2, 70848, Control_c, 0, 64, 73
2, 70886, Control_c, 0, 64, 74
2, 70905, Control_c, 0, 64, 74
2, 70915, Note_on_c, 0, 63, 33
2, 70924, Control_c, 0, 64, 75
2, 70944, Control_c, 0, 64, 75
2, 71027, Note_on_c, 0, 63, 0
2, 71090, Note_on_c, 0, 53, 0
2, 71113, Note_on_c, 0, 65, 24
2, 71174, Control_c, 0, 64, 76
2, 71200, Note_on_c, 0, 65, 0
2, 71230, Note_on_c, 0, 41, 0
2, 71251, Control_c, 0, 64, 75
2, 71275, Note_on_c, 0, 63, 30
2, 71308, Control_c, 0, 64, 75
2, 71308, Note_on_c, 0, 70, 0
2, 71347, Control_c, 0, 64, 74
2, 71366, Control_c, 0, 64, 74
2, 71385, Control_c, 0, 64, 73
2, 71404, Control_c, 0, 64, 73
2, 71426, Control_c, 0, 64, 72
2, 71444, Control_c, 0, 64, 72
2, 71446, Note_on_c, 0, 65, 39
2, 71464, Control_c, 0, 64, 71
2, 71472, Note_on_c, 0, 63, 0
2, 71483, Control_c, 0, 64, 71
2, 71501, Control_c, 0, 64, 70
2, 71519, Control_c, 0, 64, 69
2, 71539, Control_c, 0, 64, 69
2, 71558, Control_c, 0, 64, 68
2, 71577, Control_c, 0, 64, 67
2, 71596, Control_c, 0, 64, 67
2, 71616, Control_c, 0, 64, 66
2, 71635, Control_c, 0, 64, 65
2, 71654, Control_c, 0, 64, 63
2, 71673, Control_c, 0, 64, 63
2, 71693, Control_c, 0, 64, 61
2, 71711, Control_c, 0, 64, 60
2, 71718, Note_on_c, 0, 69, 47
2, 71724, Note_on_c, 0, 65, 0
2, 71731, Control_c, 0, 64, 58
2, 71741, Note_on_c, 0, 41, 23
2, 71741, Note_on_c, 0, 53, 26
2, 71741, Note_on_c, 0, 66, 36
2, 71750, Control_c, 0, 64, 55
2, 71755, Note_on_c, 0, 60, 29
2, 71770, Control_c, 0, 64, 52
2, 71788, Control_c, 0, 64, 46
2, 71808, Control_c, 0, 64, 38
2, 71827, Control_c, 0, 64, 26
2, 71846, Control_c, 0, 64, 0
2, 71961, Control_c, 0, 64, 35
2, 71981, Control_c, 0, 64, 52
2, 71999, Control_c, 0, 64, 59
2, 72019, Control_c, 0, 64, 61
2, 72038, Control_c, 0, 64, 62
2, 72053, Note_on_c, 0, 66, 0
2, 72057, Control_c, 0, 64, 63
2, 72076, Control_c, 0, 64, 64
2, 72096, Control_c, 0, 64, 64
2, 72134, Control_c, 0, 64, 65
2, 72299, Note_on_c, 0, 66, 36
2, 72307, Control_c, 0, 64, 64
2, 72326, Control_c, 0, 64, 64
2, 72338, Note_on_c, 0, 66, 0
2, 72345, Control_c, 0, 64, 63
2, 72364, Control_c, 0, 64, 61
2, 72376, Note_on_c, 0, 65, 39
2, 72386, Control_c, 0, 64, 59
2, 72404, Control_c, 0, 64, 56
2, 72417, Note_on_c, 0, 65, 0
2, 72424, Control_c, 0, 64, 51
2, 72443, Control_c, 0, 64, 45
2, 72452, Note_on_c, 0, 66, 52
2, 72462, Control_c, 0, 64, 36
2, 72482, Control_c, 0, 64, 19
2, 72501, Note_on_c, 0, 66, 0
2, 72502, Control_c, 0, 64, 0
2, 72547, Note_on_c, 0, 65, 40
2, 72694, Control_c, 0, 64, 36
2, 72713, Control_c, 0, 64, 52
2, 72732, Control_c, 0, 64, 59
2, 72751, Control_c, 0, 64, 61
2, 72771, Control_c, 0, 64, 63
2, 72790, Control_c, 0, 64, 64
2, 72809, Control_c, 0, 64, 64
2, 72828, Control_c, 0, 64, 65
2, 72848, Control_c, 0, 64, 66
2, 72866, Control_c, 0, 64, 68
2, 72886, Control_c, 0, 64, 70
2, 72894, Note_on_c, 0, 69, 0
2, 72905, Control_c, 0, 64, 71
2, 72909, Note_on_c, 0, 41, 0
2, 72922, Note_on_c, 0, 60, 0
2, 72924, Control_c, 0, 64, 71
2, 72943, Control_c, 0, 64, 72
2, 72962, Control_c, 0, 67, 125
2, 72982, Control_c, 0, 64, 72
2, 72982, Control_c, 0, 67, 121
2, 72990, Note_on_c, 0, 65, 0
2, 73000, Control_c, 0, 67, 116
2, 73020, Control_c, 0, 67, 109
2, 73039, Control_c, 0, 67, 102
2, 73042, Note_on_c, 0, 53, 0
2, 73059, Control_c, 0, 67, 93
2, 73077, Control_c, 0, 67, 86
2, 73097, Control_c, 0, 67, 81
2, 73116, Control_c, 0, 67, 77
2, 73136, Control_c, 0, 67, 73
2, 73154, Control_c, 0, 67, 71
2, 73174, Control_c, 0, 67, 69
2, 73193, Control_c, 0, 67, 66
2, 73212, Control_c, 0, 67, 63
2, 73231, Control_c, 0, 67, 60
2, 73251, Control_c, 0, 67, 56
2, 73270, Control_c, 0, 67, 51
2, 73289, Control_c, 0, 67, 46
2, 73308, Control_c, 0, 67, 41
2, 73320, Note_on_c, 0, 63, 42
2, 73328, Control_c, 0, 67, 35
2, 73346, Control_c, 0, 67, 29
2, 73364, Control_c, 0, 67, 22
2, 73384, Control_c, 0, 67, 14
2, 73389, Note_on_c, 0, 63, 0
2, 73403, Control_c, 0, 67, 0
2, 73498, Control_c, 0, 64, 72
2, 73537, Control_c, 0, 64, 71
2, 73555, Control_c, 0, 64, 71
2, 73575, Control_c, 0, 64, 69
2, 73593, Note_on_c, 0, 70, 50
2, 73594, Control_c, 0, 64, 68
2, 73614, Control_c, 0, 64, 67
2, 73616, Note_on_c, 0, 53, 22
2, 73622, Note_on_c, 0, 61, 36
2, 73624, Note_on_c, 0, 46, 20
2, 73630, Note_on_c, 0, 58, 22
2, 73632, Control_c, 0, 64, 64
2, 73652, Control_c, 0, 64, 61
2, 73671, Control_c, 0, 64, 57
2, 73691, Control_c, 0, 64, 52
2, 73709, Control_c, 0, 64, 45
2, 73729, Control_c, 0, 64, 39
2, 73748, Control_c, 0, 64, 31
2, 73767, Control_c, 0, 64, 26
2, 73786, Control_c, 0, 64, 19
2, 73806, Control_c, 0, 64, 11
2, 73825, Control_c, 0, 64, 0
2, 73959, Control_c, 0, 64, 13
2, 73978, Control_c, 0, 64, 21
2, 73997, Control_c, 0, 64, 31
2, 74017, Control_c, 0, 64, 38
2, 74035, Control_c, 0, 64, 45
2, 74055, Control_c, 0, 64, 50
2, 74074, Control_c, 0, 64, 55
2, 74094, Control_c, 0, 64, 58
2, 74112, Control_c, 0, 64, 60
2, 74132, Control_c, 0, 64, 62
2, 74151, Control_c, 0, 64, 63
2, 74171, Control_c, 0, 64, 64
2, 74189, Control_c, 0, 64, 65
2, 74209, Control_c, 0, 64, 66
2, 74228, Control_c, 0, 64, 67
2, 74247, Control_c, 0, 64, 68
2, 74266, Control_c, 0, 64, 70
2, 74285, Control_c, 0, 64, 71
2, 74306, Control_c, 0, 64, 72
2, 74324, Control_c, 0, 64, 72
2, 74344, Control_c, 0, 64, 73
2, 74363, Control_c, 0, 64, 73
2, 74382, Control_c, 0, 64, 74
2, 74396, Note_on_c, 0, 61, 0
2, 74401, Control_c, 0, 64, 74
2, 74421, Control_c, 0, 64, 75
2, 74709, Control_c, 0, 64, 74
2, 74843, Control_c, 0, 64, 74
2, 74881, Control_c, 0, 64, 73
2, 74915, Note_on_c, 0, 46, 0
2, 74939, Control_c, 0, 64, 73
2, 74942, Note_on_c, 0, 70, 0
2, 74947, Note_on_c, 0, 72, 41
2, 74970, Note_on_c, 0, 63, 27
2, 75016, Control_c, 0, 64, 72
2, 75049, Note_on_c, 0, 58, 0
2, 75055, Control_c, 0, 64, 72
2, 75073, Control_c, 0, 64, 71
2, 75076, Note_on_c, 0, 53, 0
2, 75090, Note_on_c, 0, 63, 0
2, 75112, Control_c, 0, 64, 71
2, 75131, Control_c, 0, 64, 70
2, 75150, Control_c, 0, 64, 70
2, 75189, Control_c, 0, 64, 69
2, 75227, Control_c, 0, 64, 69
2, 75247, Control_c, 0, 64, 68
2, 75266, Control_c, 0, 64, 67
2, 75278, Note_on_c, 0, 72, 0
2, 75284, Control_c, 0, 64, 67
2, 75304, Control_c, 0, 64, 66
2, 75307, Note_on_c, 0, 65, 7
2, 75323, Control_c, 0, 64, 66
2, 75342, Control_c, 0, 64, 65
2, 75347, Note_on_c, 0, 70, 25
2, 75360, Control_c, 0, 64, 63
2, 75380, Control_c, 0, 64, 62
2, 75386, Note_on_c, 0, 73, 46
2, 75399, Control_c, 0, 64, 61
2, 75418, Control_c, 0, 64, 59
2, 75437, Control_c, 0, 64, 57
2, 75457, Control_c, 0, 64, 54
2, 75475, Control_c, 0, 64, 50
2, 75495, Control_c, 0, 64, 46
2, 75514, Control_c, 0, 64, 44
2, 75534, Control_c, 0, 64, 43
2, 75552, Control_c, 0, 64, 42
2, 75629, Control_c, 0, 64, 43
2, 75649, Control_c, 0, 64, 46
2, 75668, Control_c, 0, 64, 50
2, 75687, Control_c, 0, 64, 54
2, 75706, Control_c, 0, 64, 58
2, 75725, Control_c, 0, 64, 60
2, 75745, Control_c, 0, 64, 61
2, 75763, Control_c, 0, 64, 62
2, 75783, Control_c, 0, 64, 63
2, 75802, Control_c, 0, 64, 63
2, 75821, Control_c, 0, 64, 64
2, 75840, Control_c, 0, 64, 64
2, 75860, Control_c, 0, 64, 65
2, 75898, Control_c, 0, 64, 65
2, 75978, Control_c, 0, 64, 66
2, 76026, Note_on_c, 0, 65, 0
2, 76035, Control_c, 0, 64, 66
2, 76054, Control_c, 0, 64, 67
2, 76074, Control_c, 0, 64, 67
2, 76093, Control_c, 0, 64, 68
2, 76112, Control_c, 0, 64, 68
2, 76131, Control_c, 0, 64, 69
2, 76151, Control_c, 0, 64, 70
2, 76169, Control_c, 0, 64, 70
2, 76189, Control_c, 0, 64, 71
2, 76208, Control_c, 0, 64, 71
2, 76229, Control_c, 0, 64, 72
2, 76248, Control_c, 0, 64, 73
2, 76268, Control_c, 0, 64, 73
2, 76287, Control_c, 0, 64, 74
2, 76304, Control_c, 0, 64, 74
2, 76324, Control_c, 0, 64, 75
2, 76344, Control_c, 0, 64, 75
2, 76363, Control_c, 0, 64, 76
2, 76382, Control_c, 0, 64, 76
2, 76421, Control_c, 0, 64, 77
2, 76439, Control_c, 0, 64, 77
2, 76453, Note_on_c, 0, 70, 0
2, 76478, Control_c, 0, 64, 78
2, 76498, Control_c, 0, 64, 78
2, 76512, Note_on_c, 0, 73, 0
2, 76535, Control_c, 0, 64, 79
2, 76579, Note_on_c, 0, 46, 35
2, 76593, Control_c, 0, 64, 79
2, 76727, Control_c, 0, 64, 79
2, 76862, Control_c, 0, 64, 78
2, 76876, Note_on_c, 0, 65, 36
2, 76881, Control_c, 0, 64, 78
2, 76901, Control_c, 0, 64, 77
2, 76919, Control_c, 0, 64, 75
2, 76919, Note_on_c, 0, 70, 41
2, 76939, Control_c, 0, 64, 72
2, 76953, Note_on_c, 0, 49, 47
2, 76958, Control_c, 0, 64, 66
2, 76972, Note_on_c, 0, 46, 0
2, 76978, Control_c, 0, 64, 62
2, 76989, Note_on_c, 0, 73, 41
2, 76996, Control_c, 0, 64, 56
2, 77015, Control_c, 0, 64, 49
2, 77035, Control_c, 0, 64, 43
2, 77053, Control_c, 0, 64, 37
2, 77073, Control_c, 0, 64, 35
2, 77092, Control_c, 0, 64, 35
2, 77130, Control_c, 0, 64, 36
2, 77150, Control_c, 0, 64, 38
2, 77169, Control_c, 0, 64, 42
2, 77189, Control_c, 0, 64, 47
2, 77207, Control_c, 0, 64, 52
2, 77227, Control_c, 0, 64, 56
2, 77246, Control_c, 0, 64, 59
2, 77265, Control_c, 0, 64, 60
2, 77284, Control_c, 0, 64, 62
2, 77304, Control_c, 0, 64, 63
2, 77323, Control_c, 0, 64, 64
2, 77342, Control_c, 0, 64, 65
2, 77361, Control_c, 0, 64, 66
2, 77381, Control_c, 0, 64, 67
2, 77399, Control_c, 0, 64, 69
2, 77419, Control_c, 0, 64, 70
2, 77438, Control_c, 0, 64, 72
2, 77458, Control_c, 0, 64, 73
2, 77476, Control_c, 0, 64, 75
2, 77495, Control_c, 0, 64, 76
2, 77515, Control_c, 0, 64, 77
2, 77533, Control_c, 0, 64, 78
2, 77553, Control_c, 0, 64, 79
2, 77572, Control_c, 0, 64, 79
2, 77878, Note_on_c, 0, 73, 0
2, 78073, Note_on_c, 0, 65, 0
2, 78104, Note_on_c, 0, 70, 0
2, 78220, Note_on_c, 0, 53, 38
2, 78262, Control_c, 0, 64, 79
2, 78268, Note_on_c, 0, 49, 0
2, 78339, Control_c, 0, 64, 78
2, 78415, Control_c, 0, 64, 78
2, 78453, Control_c, 0, 64, 77
2, 78473, Control_c, 0, 64, 77
2, 78480, Note_on_c, 0, 64, 32
2, 78492, Control_c, 0, 64, 76
2, 78530, Control_c, 0, 64, 75
2, 78545, Note_on_c, 0, 70, 34
2, 78550, Control_c, 0, 64, 75
2, 78568, Control_c, 0, 64, 74
2, 78588, Control_c, 0, 64, 73
2, 78604, Note_on_c, 0, 43, 38
2, 78607, Control_c, 0, 64, 72
2, 78617, Note_on_c, 0, 73, 41
2, 78627, Control_c, 0, 64, 70
2, 78645, Control_c, 0, 64, 68
2, 78655, Note_on_c, 0, 53, 0
2, 78665, Control_c, 0, 64, 64
2, 78684, Control_c, 0, 64, 60
2, 78704, Control_c, 0, 64, 56
2, 78722, Control_c, 0, 64, 51
2, 78742, Control_c, 0, 64, 46
2, 78761, Control_c, 0, 64, 38
2, 78780, Control_c, 0, 64, 29
2, 78799, Control_c, 0, 64, 20
2, 78819, Control_c, 0, 64, 19
2, 78856, Control_c, 0, 64, 26
2, 78876, Control_c, 0, 64, 36
2, 78895, Control_c, 0, 64, 46
2, 78914, Control_c, 0, 64, 54
2, 78933, Control_c, 0, 64, 58
2, 78953, Control_c, 0, 64, 60
2, 78972, Control_c, 0, 64, 62
2, 78991, Control_c, 0, 64, 63
2, 79010, Control_c, 0, 64, 64
2, 79030, Control_c, 0, 64, 65
2, 79048, Control_c, 0, 64, 66
2, 79068, Control_c, 0, 64, 66
2, 79087, Control_c, 0, 64, 67
2, 79108, Control_c, 0, 64, 68
2, 79126, Control_c, 0, 64, 68
2, 79146, Control_c, 0, 64, 69
2, 79165, Control_c, 0, 64, 70
2, 79184, Control_c, 0, 64, 71
2, 79202, Control_c, 0, 64, 71
2, 79222, Control_c, 0, 64, 72
2, 79241, Control_c, 0, 64, 73
2, 79541, Note_on_c, 0, 64, 0
2, 79679, Note_on_c, 0, 70, 0
2, 79713, Note_on_c, 0, 73, 0
2, 79721, Control_c, 0, 64, 73
2, 79808, Note_on_c, 0, 71, 32
2, 79816, Control_c, 0, 64, 74
2, 79836, Control_c, 0, 64, 74
2, 79855, Control_c, 0, 64, 75
2, 79874, Control_c, 0, 64, 75
2, 79893, Control_c, 0, 64, 76
2, 79932, Control_c, 0, 64, 76
2, 79959, Note_on_c, 0, 71, 0
2, 79972, Note_on_c, 0, 70, 49
2, 80008, Control_c, 0, 64, 77
2, 80030, Note_on_c, 0, 70, 0
2, 80106, Control_c, 0, 64, 76
2, 80163, Control_c, 0, 64, 76
2, 80169, Note_on_c, 0, 70, 50
2, 80183, Control_c, 0, 64, 75
2, 80202, Control_c, 0, 64, 75
2, 80219, Note_on_c, 0, 73, 45
2, 80221, Control_c, 0, 64, 73
2, 80240, Control_c, 0, 64, 71
2, 80260, Control_c, 0, 64, 69
2, 80276, Note_on_c, 0, 76, 50
2, 80278, Control_c, 0, 64, 66
2, 80297, Control_c, 0, 64, 63
2, 80317, Control_c, 0, 64, 59
2, 80336, Control_c, 0, 64, 55
2, 80355, Control_c, 0, 64, 48
2, 80374, Control_c, 0, 64, 37
2, 80394, Control_c, 0, 64, 24
2, 80413, Control_c, 0, 64, 0
2, 80489, Control_c, 0, 64, 11
2, 80509, Control_c, 0, 64, 34
2, 80528, Control_c, 0, 64, 49
2, 80548, Control_c, 0, 64, 58
2, 80566, Control_c, 0, 64, 61
2, 80586, Control_c, 0, 64, 63
2, 80605, Control_c, 0, 64, 64
2, 80624, Control_c, 0, 64, 65
2, 80643, Control_c, 0, 64, 66
2, 80663, Control_c, 0, 64, 67
2, 80682, Control_c, 0, 64, 69
2, 80701, Control_c, 0, 64, 70
2, 80720, Control_c, 0, 64, 71
2, 80740, Control_c, 0, 64, 72
2, 80758, Control_c, 0, 64, 73
2, 80777, Control_c, 0, 64, 75
2, 80797, Control_c, 0, 64, 76
2, 80816, Control_c, 0, 64, 78
2, 80835, Control_c, 0, 64, 79
2, 80836, Note_on_c, 0, 43, 0
2, 80854, Control_c, 0, 64, 81
2, 80874, Control_c, 0, 64, 81
2, 80893, Control_c, 0, 64, 82
2, 80931, Control_c, 0, 64, 82
2, 80951, Control_c, 0, 64, 83
2, 80989, Control_c, 0, 64, 83
2, 81047, Control_c, 0, 64, 84
2, 81143, Control_c, 0, 64, 83
2, 81200, Control_c, 0, 64, 83
2, 81262, Note_on_c, 0, 46, 38
2, 81277, Control_c, 0, 64, 82
2, 81334, Control_c, 0, 64, 82
2, 81373, Control_c, 0, 64, 81
2, 81392, Control_c, 0, 64, 81
2, 81431, Control_c, 0, 64, 80
2, 81442, Note_on_c, 0, 44, 47
2, 81449, Control_c, 0, 64, 79
2, 81469, Control_c, 0, 64, 79
2, 81488, Control_c, 0, 64, 78
2, 81495, Note_on_c, 0, 46, 0
2, 81508, Control_c, 0, 64, 78
2, 81526, Control_c, 0, 64, 77
2, 81546, Control_c, 0, 64, 76
2, 81565, Control_c, 0, 64, 75
2, 81584, Control_c, 0, 64, 75
2, 81588, Note_on_c, 0, 43, 50
2, 81590, Note_on_c, 0, 44, 0
2, 81603, Control_c, 0, 64, 74
2, 81623, Control_c, 0, 64, 74
2, 81642, Control_c, 0, 64, 73
2, 81661, Control_c, 0, 64, 72
2, 81680, Control_c, 0, 64, 71
2, 81700, Control_c, 0, 64, 70
2, 81718, Control_c, 0, 64, 69
2, 81737, Control_c, 0, 64, 68
2, 81757, Control_c, 0, 64, 67
2, 81776, Control_c, 0, 64, 65
2, 81795, Control_c, 0, 64, 64
2, 81808, Note_on_c, 0, 49, 59
2, 81814, Control_c, 0, 64, 61
2, 81834, Control_c, 0, 64, 58
2, 81853, Control_c, 0, 64, 53
2, 81869, Note_on_c, 0, 43, 0
2, 81872, Control_c, 0, 64, 48
2, 81891, Control_c, 0, 64, 42
2, 81911, Control_c, 0, 64, 32
2, 81929, Control_c, 0, 64, 11
2, 81949, Control_c, 0, 64, 0
2, 82083, Control_c, 0, 64, 37
2, 82103, Control_c, 0, 64, 54
2, 82122, Control_c, 0, 64, 61
2, 82141, Control_c, 0, 64, 63
2, 82160, Control_c, 0, 64, 64
2, 82180, Control_c, 0, 64, 65
2, 82198, Control_c, 0, 64, 66
2, 82217, Control_c, 0, 64, 67
2, 82237, Control_c, 0, 64, 68
2, 82256, Control_c, 0, 64, 70
2, 82275, Control_c, 0, 64, 72
2, 82294, Control_c, 0, 64, 74
2, 82314, Control_c, 0, 64, 75
2, 82333, Control_c, 0, 64, 76
2, 82366, Note_on_c, 0, 76, 0
2, 82371, Control_c, 0, 64, 76
2, 82377, Note_on_c, 0, 70, 0
2, 82381, Note_on_c, 0, 73, 0
2, 82391, Control_c, 0, 64, 77
2, 82409, Control_c, 0, 64, 77
2, 82906, Note_on_c, 0, 75, 63
2, 82928, Control_c, 0, 64, 78
2, 82966, Control_c, 0, 64, 78
2, 83062, Note_on_c, 0, 73, 67
2, 83120, Control_c, 0, 64, 78
2, 83132, Note_on_c, 0, 73, 0
2, 83254, Control_c, 0, 64, 77
2, 83274, Control_c, 0, 64, 76
2, 83293, Control_c, 0, 64, 74
2, 83297, Note_on_c, 0, 79, 74
2, 83312, Control_c, 0, 64, 71
2, 83316, Note_on_c, 0, 73, 51
2, 83325, Note_on_c, 0, 75, 0
2, 83331, Control_c, 0, 64, 67
2, 83334, Note_on_c, 0, 70, 45
2, 83351, Control_c, 0, 64, 62
2, 83369, Control_c, 0, 64, 58
2, 83389, Control_c, 0, 64, 53
2, 83408, Control_c, 0, 64, 47
2, 83428, Control_c, 0, 64, 41
2, 83446, Control_c, 0, 64, 37
2, 83466, Control_c, 0, 64, 36
2, 83504, Control_c, 0, 64, 37
2, 83523, Control_c, 0, 64, 39
2, 83543, Control_c, 0, 64, 43
2, 83562, Control_c, 0, 64, 48
2, 83581, Control_c, 0, 64, 53
2, 83600, Control_c, 0, 64, 57
2, 83620, Control_c, 0, 64, 60
2, 83638, Control_c, 0, 64, 62
2, 83657, Control_c, 0, 64, 64
2, 83677, Control_c, 0, 64, 65
2, 83696, Control_c, 0, 64, 66
2, 83715, Control_c, 0, 64, 68
2, 83734, Control_c, 0, 64, 71
2, 83754, Control_c, 0, 64, 73
2, 83773, Control_c, 0, 64, 76
2, 83792, Control_c, 0, 64, 77
2, 83811, Control_c, 0, 64, 78
2, 83831, Control_c, 0, 64, 79
2, 83849, Control_c, 0, 64, 79
2, 83856, Note_on_c, 0, 49, 0
2, 83869, Control_c, 0, 64, 80
2, 83888, Control_c, 0, 64, 81
2, 83909, Control_c, 0, 64, 83
2, 83927, Control_c, 0, 64, 84
2, 83947, Control_c, 0, 64, 85
2, 83966, Control_c, 0, 64, 86
2, 83985, Control_c, 0, 64, 87
2, 84003, Control_c, 0, 64, 88
2, 84023, Control_c, 0, 64, 88
2, 84042, Control_c, 0, 64, 89
2, 84061, Control_c, 0, 64, 89
2, 84118, Control_c, 0, 64, 90
2, 84381, Note_on_c, 0, 47, 53
2, 84522, Control_c, 0, 64, 89
2, 84560, Control_c, 0, 64, 89
2, 84561, Note_on_c, 0, 46, 64
2, 84576, Note_on_c, 0, 47, 0
2, 84580, Control_c, 0, 64, 88
2, 84598, Control_c, 0, 64, 88
2, 84637, Control_c, 0, 64, 87
2, 84675, Control_c, 0, 64, 86
2, 84694, Control_c, 0, 64, 85
2, 84714, Control_c, 0, 64, 84
2, 84733, Control_c, 0, 64, 82
2, 84752, Control_c, 0, 64, 80
2, 84771, Control_c, 0, 64, 78
2, 84791, Control_c, 0, 64, 75
2, 84809, Control_c, 0, 64, 72
2, 84811, Note_on_c, 0, 52, 66
2, 84823, Note_on_c, 0, 46, 0
2, 84829, Control_c, 0, 64, 70
2, 84848, Control_c, 0, 64, 68
2, 84868, Control_c, 0, 64, 66
2, 84886, Control_c, 0, 64, 64
2, 84906, Control_c, 0, 64, 62
2, 84925, Control_c, 0, 64, 60
2, 84944, Control_c, 0, 64, 58
2, 84961, Control_c, 0, 64, 55
2, 84981, Control_c, 0, 64, 51
2, 85000, Control_c, 0, 64, 46
2, 85018, Control_c, 0, 64, 37
2, 85038, Control_c, 0, 64, 21
2, 85057, Control_c, 0, 64, 0
2, 85233, Note_on_c, 0, 51, 63
2, 85270, Note_on_c, 0, 52, 0
2, 85590, Note_on_c, 0, 52, 65
2, 85617, Note_on_c, 0, 51, 0
2, 85922, Control_c, 0, 64, 28
2, 85942, Control_c, 0, 64, 48
2, 85943, Note_on_c, 0, 77, 75
2, 85951, Note_on_c, 0, 79, 0
2, 85954, Note_on_c, 0, 49, 57
2, 85961, Control_c, 0, 64, 57
2, 85980, Control_c, 0, 64, 60
2, 85981, Note_on_c, 0, 73, 0
2, 85999, Control_c, 0, 64, 61
2, 86018, Control_c, 0, 64, 62
2, 86022, Note_on_c, 0, 52, 0
2, 86037, Note_on_c, 0, 70, 0
2, 86038, Control_c, 0, 64, 63
2, 86056, Control_c, 0, 64, 64
2, 86076, Control_c, 0, 64, 64
2, 86114, Control_c, 0, 64, 65
2, 86134, Note_on_c, 0, 75, 78
2, 86153, Control_c, 0, 64, 65
2, 86172, Control_c, 0, 64, 66
2, 86229, Note_on_c, 0, 75, 0
2, 86230, Control_c, 0, 64, 66
2, 86307, Control_c, 0, 64, 66
2, 86348, Note_on_c, 0, 47, 61
2, 86361, Note_on_c, 0, 49, 0
2, 86397, Note_on_c, 0, 80, 80
2, 86403, Note_on_c, 0, 75, 59
2, 86416, Note_on_c, 0, 71, 55
2, 86422, Control_c, 0, 64, 65
2, 86441, Control_c, 0, 64, 64
2, 86454, Note_on_c, 0, 77, 0
2, 86460, Control_c, 0, 64, 62
2, 86479, Control_c, 0, 64, 57
2, 86498, Control_c, 0, 64, 48
2, 86518, Control_c, 0, 64, 31
2, 86536, Control_c, 0, 64, 0
2, 86652, Control_c, 0, 64, 31
2, 86655, Note_on_c, 0, 46, 63
2, 86670, Note_on_c, 0, 47, 0
2, 86671, Control_c, 0, 64, 43
2, 86690, Control_c, 0, 64, 51
2, 86710, Control_c, 0, 64, 55
2, 86728, Control_c, 0, 64, 56
2, 86767, Control_c, 0, 64, 57
2, 86787, Control_c, 0, 64, 57
2, 86825, Control_c, 0, 64, 58
2, 86845, Note_on_c, 0, 44, 70
2, 86856, Note_on_c, 0, 46, 0
2, 87012, Note_on_c, 0, 46, 70
2, 87016, Control_c, 0, 64, 57
2, 87034, Note_on_c, 0, 44, 0
2, 87093, Control_c, 0, 64, 57
2, 87113, Control_c, 0, 64, 56
2, 87132, Control_c, 0, 64, 55
2, 87151, Control_c, 0, 64, 53
2, 87170, Control_c, 0, 64, 51
2, 87190, Control_c, 0, 64, 49
2, 87193, Note_on_c, 0, 47, 75
2, 87199, Note_on_c, 0, 46, 0
2, 87208, Control_c, 0, 64, 47
2, 87228, Control_c, 0, 64, 45
2, 87247, Control_c, 0, 64, 41
2, 87267, Control_c, 0, 64, 35
2, 87285, Control_c, 0, 64, 26
2, 87305, Control_c, 0, 64, 0
2, 87358, Note_on_c, 0, 44, 69
2, 87374, Note_on_c, 0, 47, 0
2, 87496, Control_c, 0, 64, 33
2, 87516, Control_c, 0, 64, 47
2, 87534, Note_on_c, 0, 46, 71
2, 87535, Control_c, 0, 64, 53
2, 87554, Control_c, 0, 64, 56
2, 87573, Control_c, 0, 64, 57
2, 87585, Note_on_c, 0, 44, 0
2, 87593, Control_c, 0, 64, 59
2, 87612, Control_c, 0, 64, 60
2, 87631, Control_c, 0, 64, 61
2, 87650, Control_c, 0, 64, 62
2, 87670, Control_c, 0, 64, 63
2, 87688, Control_c, 0, 64, 63
2, 87726, Note_on_c, 0, 47, 72
2, 87727, Control_c, 0, 64, 64
2, 87765, Control_c, 0, 64, 64
2, 87774, Note_on_c, 0, 46, 0
2, 87881, Control_c, 0, 64, 65
2, 88034, Control_c, 0, 64, 64
2, 88038, Note_on_c, 0, 40, 74
2, 88053, Control_c, 0, 64, 60
2, 88073, Control_c, 0, 64, 43
2, 88089, Note_on_c, 0, 47, 0
2, 88092, Control_c, 0, 64, 0
2, 88111, Note_on_c, 0, 71, 0
2, 88188, Control_c, 0, 64, 23
2, 88190, Note_on_c, 0, 75, 0
2, 88207, Control_c, 0, 64, 54
2, 88227, Control_c, 0, 64, 61
2, 88245, Control_c, 0, 64, 63
2, 88265, Control_c, 0, 64, 64
2, 88284, Control_c, 0, 64, 65
2, 88304, Control_c, 0, 64, 66
2, 88322, Control_c, 0, 64, 67
2, 88342, Control_c, 0, 64, 68
2, 88361, Control_c, 0, 64, 69
2, 88379, Control_c, 0, 64, 69
2, 88418, Control_c, 0, 64, 70
2, 88438, Control_c, 0, 64, 70
2, 88456, Control_c, 0, 64, 72
2, 88476, Control_c, 0, 64, 73
2, 88495, Control_c, 0, 64, 75
2, 88514, Control_c, 0, 64, 75
2, 88533, Control_c, 0, 64, 76
2, 88541, Note_on_c, 0, 79, 73
2, 88610, Control_c, 0, 64, 76
2, 88634, Note_on_c, 0, 80, 0
2, 88648, Control_c, 0, 64, 77
2, 88668, Control_c, 0, 64, 77
2, 88707, Control_c, 0, 64, 78
2, 88745, Control_c, 0, 64, 77
2, 88944, Note_on_c, 0, 80, 81
2, 89058, Note_on_c, 0, 79, 0
2, 89070, Control_c, 0, 64, 78
2, 89075, Note_on_c, 0, 40, 0
2, 89121, Note_on_c, 0, 52, 67
2, 89186, Control_c, 0, 64, 77
2, 89298, Note_on_c, 0, 82, 85
2, 89311, Note_on_c, 0, 51, 62
2, 89318, Note_on_c, 0, 52, 0
2, 89338, Note_on_c, 0, 80, 0
2, 89472, Note_on_c, 0, 51, 0
2, 89480, Note_on_c, 0, 49, 70
2, 89512, Control_c, 0, 64, 77
2, 89531, Control_c, 0, 64, 76
2, 89550, Control_c, 0, 64, 76
2, 89645, Note_on_c, 0, 51, 62
2, 89667, Control_c, 0, 64, 75
2, 89668, Note_on_c, 0, 49, 0
2, 89685, Control_c, 0, 64, 75
2, 89705, Control_c, 0, 64, 73
2, 89719, Note_on_c, 0, 83, 88
2, 89724, Control_c, 0, 64, 66
2, 89739, Note_on_c, 0, 79, 67
2, 89744, Control_c, 0, 64, 56
2, 89744, Note_on_c, 0, 75, 61
2, 89762, Control_c, 0, 64, 22
2, 89782, Control_c, 0, 64, 0
2, 89813, Note_on_c, 0, 82, 0
2, 89896, Control_c, 0, 64, 39
2, 89916, Control_c, 0, 64, 54
2, 89935, Control_c, 0, 64, 59
2, 89954, Control_c, 0, 64, 61
2, 89973, Control_c, 0, 64, 62
2, 89993, Control_c, 0, 64, 63
2, 89998, Note_on_c, 0, 82, 79
2, 90012, Control_c, 0, 64, 63
2, 90016, Note_on_c, 0, 83, 0
2, 90031, Control_c, 0, 64, 64
2, 90078, Note_on_c, 0, 79, 0
2, 90088, Control_c, 0, 64, 64
2, 90108, Control_c, 0, 64, 65
2, 90127, Control_c, 0, 64, 65
2, 90147, Control_c, 0, 64, 66
2, 90149, Note_on_c, 0, 82, 0
2, 90151, Note_on_c, 0, 83, 79
2, 90165, Control_c, 0, 64, 67
2, 90185, Control_c, 0, 64, 67
2, 90262, Control_c, 0, 64, 68
2, 90291, Note_on_c, 0, 83, 0
2, 90292, Note_on_c, 0, 82, 79
2, 90299, Control_c, 0, 64, 68
2, 90338, Control_c, 0, 64, 69
2, 90393, Note_on_c, 0, 82, 0
2, 90411, Note_on_c, 0, 83, 79
2, 90453, Control_c, 0, 64, 68
2, 90508, Note_on_c, 0, 83, 0
2, 90518, Note_on_c, 0, 82, 81
2, 90550, Control_c, 0, 64, 69
2, 90590, Note_on_c, 0, 82, 0
2, 90612, Note_on_c, 0, 83, 75
2, 90682, Note_on_c, 0, 83, 0
2, 90692, Note_on_c, 0, 82, 84
2, 90720, Control_c, 0, 64, 69
2, 90759, Control_c, 0, 64, 70
2, 90762, Note_on_c, 0, 82, 0
2, 90778, Note_on_c, 0, 83, 75
2, 90796, Note_on_c, 0, 49, 49
2, 90797, Control_c, 0, 64, 70
2, 90799, Note_on_c, 0, 51, 0
2, 90848, Note_on_c, 0, 83, 0
2, 90853, Note_on_c, 0, 82, 79
2, 90855, Control_c, 0, 64, 71
2, 90919, Note_on_c, 0, 82, 0
2, 90932, Note_on_c, 0, 83, 69
2, 90989, Control_c, 0, 64, 71
2, 90998, Note_on_c, 0, 82, 75
2, 90998, Note_on_c, 0, 83, 0
2, 91045, Note_on_c, 0, 75, 0
2, 91076, Note_on_c, 0, 83, 66
2, 91176, Note_on_c, 0, 83, 0
2, 91212, Note_on_c, 0, 73, 81
2, 91220, Control_c, 0, 64, 70
2, 91238, Note_on_c, 0, 51, 60
2, 91239, Control_c, 0, 64, 68
2, 91243, Note_on_c, 0, 49, 0
2, 91258, Control_c, 0, 64, 64
2, 91277, Control_c, 0, 64, 57
2, 91297, Control_c, 0, 64, 44
2, 91316, Control_c, 0, 64, 9
2, 91335, Control_c, 0, 64, 0
2, 91451, Control_c, 0, 64, 39
2, 91469, Control_c, 0, 64, 53
2, 91488, Control_c, 0, 64, 59
2, 91508, Control_c, 0, 64, 61
2, 91526, Control_c, 0, 64, 62
2, 91546, Control_c, 0, 64, 63
2, 91565, Control_c, 0, 64, 64
2, 91589, Control_c, 0, 64, 65
2, 91608, Control_c, 0, 64, 66
2, 91628, Control_c, 0, 64, 66
2, 91646, Control_c, 0, 64, 67
2, 91661, Control_c, 0, 64, 69
2, 91680, Control_c, 0, 64, 71
2, 91700, Control_c, 0, 64, 73
2, 91719, Control_c, 0, 64, 76
2, 91738, Control_c, 0, 64, 78
2, 91757, Control_c, 0, 64, 79
2, 91777, Control_c, 0, 64, 80
2, 91796, Control_c, 0, 64, 80
2, 91834, Control_c, 0, 64, 81
2, 91854, Control_c, 0, 64, 81
2, 91863, Note_on_c, 0, 51, 0
2, 91872, Control_c, 0, 64, 82
2, 91892, Control_c, 0, 64, 82
2, 91911, Control_c, 0, 64, 83
2, 92045, Control_c, 0, 64, 82
2, 92143, Note_on_c, 0, 80, 83
2, 92264, Note_on_c, 0, 82, 0
2, 92370, Note_on_c, 0, 73, 0
2, 92464, Note_on_c, 0, 80, 0
2, 92486, Control_c, 0, 64, 83
2, 92553, Note_on_c, 0, 39, 69
2, 92660, Control_c, 0, 64, 82
2, 92698, Control_c, 0, 64, 82
2, 92960, Note_on_c, 0, 75, 63
2, 92966, Control_c, 0, 64, 80
2, 92967, Note_on_c, 0, 80, 77
2, 92976, Note_on_c, 0, 71, 63
2, 92982, Note_on_c, 0, 44, 56
2, 92986, Control_c, 0, 64, 75
2, 93005, Control_c, 0, 64, 68
2, 93025, Control_c, 0, 64, 60
2, 93043, Control_c, 0, 64, 39
2, 93050, Note_on_c, 0, 39, 0
2, 93063, Control_c, 0, 64, 0
2, 93217, Control_c, 0, 64, 34
2, 93236, Control_c, 0, 64, 49
2, 93255, Control_c, 0, 64, 57
2, 93274, Control_c, 0, 64, 59
2, 93294, Control_c, 0, 64, 61
2, 93312, Control_c, 0, 64, 62
2, 93332, Control_c, 0, 64, 63
2, 93351, Control_c, 0, 64, 64
2, 93371, Control_c, 0, 64, 65
2, 93389, Control_c, 0, 64, 67
2, 93408, Control_c, 0, 64, 68
2, 93428, Control_c, 0, 64, 70
2, 93446, Control_c, 0, 64, 72
2, 93466, Control_c, 0, 64, 74
2, 93485, Control_c, 0, 64, 76
2, 93505, Control_c, 0, 64, 76
2, 93521, Control_c, 0, 64, 78
2, 93541, Control_c, 0, 64, 79
2, 93560, Control_c, 0, 64, 80
2, 93578, Control_c, 0, 64, 81
2, 93596, Control_c, 0, 64, 82
2, 93616, Control_c, 0, 64, 83
2, 93635, Control_c, 0, 64, 84
2, 93693, Control_c, 0, 64, 85
2, 93807, Control_c, 0, 64, 84
2, 93815, Note_on_c, 0, 44, 0
2, 93923, Control_c, 0, 64, 84
2, 93981, Control_c, 0, 64, 83
2, 94058, Control_c, 0, 64, 83
2, 94096, Control_c, 0, 64, 82
2, 94115, Control_c, 0, 64, 82
2, 94135, Control_c, 0, 64, 81
2, 94153, Control_c, 0, 64, 80
2, 94173, Control_c, 0, 64, 79
2, 94192, Control_c, 0, 64, 78
2, 94211, Control_c, 0, 64, 77
2, 94230, Control_c, 0, 64, 77
2, 94250, Control_c, 0, 64, 76
2, 94269, Control_c, 0, 64, 76
2, 94287, Control_c, 0, 64, 75
2, 94307, Control_c, 0, 64, 74
2, 94326, Control_c, 0, 64, 73
2, 94346, Control_c, 0, 64, 72
2, 94364, Control_c, 0, 64, 71
2, 94384, Control_c, 0, 64, 71
2, 94403, Control_c, 0, 64, 70
2, 94416, Note_on_c, 0, 83, 79
2, 94422, Control_c, 0, 64, 69
2, 94441, Control_c, 0, 64, 67
2, 94465, Control_c, 0, 64, 66
2, 94467, Note_on_c, 0, 75, 0
2, 94483, Control_c, 0, 64, 65
2, 94503, Control_c, 0, 64, 64
2, 94517, Note_on_c, 0, 71, 0
2, 94522, Control_c, 0, 64, 63
2, 94541, Control_c, 0, 64, 63
2, 94559, Control_c, 0, 64, 62
2, 94571, Note_on_c, 0, 80, 0
2, 94579, Control_c, 0, 64, 61
2, 94598, Control_c, 0, 64, 59
2, 94617, Control_c, 0, 64, 58
2, 94636, Control_c, 0, 64, 58
2, 94656, Control_c, 0, 64, 57
2, 94675, Control_c, 0, 64, 57
2, 94694, Control_c, 0, 64, 55
2, 94713, Control_c, 0, 64, 53
2, 94733, Control_c, 0, 64, 50
2, 94751, Control_c, 0, 64, 48
2, 94771, Control_c, 0, 64, 46
2, 94790, Control_c, 0, 64, 46
2, 94810, Control_c, 0, 64, 44
2, 94828, Control_c, 0, 64, 39
2, 94847, Control_c, 0, 64, 34
2, 94848, Note_on_c, 0, 77, 74
2, 94867, Control_c, 0, 64, 27
2, 94885, Control_c, 0, 64, 22
2, 94905, Control_c, 0, 64, 19
2, 94912, Note_on_c, 0, 83, 0
2, 94924, Control_c, 0, 64, 18
2, 94944, Control_c, 0, 64, 17
2, 94982, Control_c, 0, 64, 15
2, 95155, Control_c, 0, 64, 19
2, 95174, Control_c, 0, 64, 23
2, 95193, Control_c, 0, 64, 25
2, 95213, Control_c, 0, 64, 27
2, 95231, Control_c, 0, 64, 28
2, 95251, Control_c, 0, 64, 31
2, 95270, Control_c, 0, 64, 36
2, 95289, Control_c, 0, 64, 41
2, 95308, Control_c, 0, 64, 47
2, 95327, Control_c, 0, 64, 51
2, 95347, Control_c, 0, 64, 53
2, 95365, Control_c, 0, 64, 55
2, 95385, Control_c, 0, 64, 57
2, 95404, Control_c, 0, 64, 58
2, 95425, Control_c, 0, 64, 60
2, 95443, Control_c, 0, 64, 61
2, 95463, Control_c, 0, 64, 62
2, 95482, Control_c, 0, 64, 63
2, 95501, Control_c, 0, 64, 63
2, 95519, Control_c, 0, 64, 64
2, 95539, Control_c, 0, 64, 64
2, 95558, Control_c, 0, 64, 65
2, 95577, Control_c, 0, 64, 66
2, 95596, Control_c, 0, 64, 66
2, 95616, Control_c, 0, 64, 67
2, 95635, Control_c, 0, 64, 67
2, 95654, Control_c, 0, 64, 68
2, 95693, Control_c, 0, 64, 68
2, 95769, Control_c, 0, 64, 69
2, 95807, Control_c, 0, 64, 69
2, 95827, Control_c, 0, 64, 70
2, 95999, Note_on_c, 0, 59, 55
2, 96000, Note_on_c, 0, 78, 66
2, 96038, Control_c, 0, 64, 69
2, 96154, Note_on_c, 0, 80, 78
2, 96191, Control_c, 0, 64, 69
2, 96214, Note_on_c, 0, 77, 0
2, 96249, Control_c, 0, 64, 68
2, 96287, Control_c, 0, 64, 68
2, 96325, Control_c, 0, 64, 67
2, 96345, Control_c, 0, 64, 66
2, 96364, Control_c, 0, 64, 64
2, 96365, Note_on_c, 0, 74, 69
2, 96374, Note_on_c, 0, 53, 55
2, 96385, Control_c, 0, 64, 61
2, 96403, Control_c, 0, 64, 56
2, 96406, Note_on_c, 0, 78, 0
2, 96408, Note_on_c, 0, 59, 0
2, 96423, Control_c, 0, 64, 46
2, 96426, Note_on_c, 0, 80, 0
2, 96442, Control_c, 0, 64, 29
2, 96461, Control_c, 0, 64, 0
2, 96805, Control_c, 0, 64, 19
2, 96825, Control_c, 0, 64, 23
2, 96844, Control_c, 0, 64, 26
2, 96921, Control_c, 0, 64, 27
2, 96941, Control_c, 0, 64, 28
2, 96959, Control_c, 0, 64, 32
2, 96979, Control_c, 0, 64, 35
2, 96998, Control_c, 0, 64, 37
2, 97017, Control_c, 0, 64, 38
2, 97036, Control_c, 0, 64, 39
2, 97056, Control_c, 0, 64, 40
2, 97075, Control_c, 0, 64, 42
2, 97094, Control_c, 0, 64, 46
2, 97113, Control_c, 0, 64, 50
2, 97133, Control_c, 0, 64, 53
2, 97151, Control_c, 0, 64, 55
2, 97171, Control_c, 0, 64, 56
2, 97190, Control_c, 0, 64, 57
2, 97209, Control_c, 0, 64, 58
2, 97228, Control_c, 0, 64, 59
2, 97247, Control_c, 0, 64, 60
2, 97267, Control_c, 0, 64, 61
2, 97285, Control_c, 0, 64, 61
2, 97305, Control_c, 0, 64, 62
2, 97324, Control_c, 0, 64, 62
2, 97345, Control_c, 0, 64, 63
2, 97363, Control_c, 0, 64, 63
2, 97383, Control_c, 0, 64, 64
2, 97402, Control_c, 0, 64, 64
2, 97421, Control_c, 0, 64, 65
2, 97439, Control_c, 0, 64, 65
2, 97478, Control_c, 0, 64, 66
2, 97595, Note_on_c, 0, 53, 0
2, 97617, Note_on_c, 0, 54, 50
2, 97620, Note_on_c, 0, 75, 58
2, 97670, Control_c, 0, 64, 65
2, 97689, Control_c, 0, 64, 65
2, 97754, Note_on_c, 0, 74, 0
2, 97757, Note_on_c, 0, 54, 0
2, 97776, Note_on_c, 0, 77, 63
2, 97777, Note_on_c, 0, 75, 0
2, 97785, Control_c, 0, 64, 64
2, 97785, Note_on_c, 0, 56, 48
2, 97842, Control_c, 0, 64, 64
2, 97901, Control_c, 0, 64, 63
2, 97919, Control_c, 0, 64, 63
2, 97939, Control_c, 0, 64, 62
2, 97958, Control_c, 0, 64, 62
2, 97977, Control_c, 0, 64, 61
2, 97996, Control_c, 0, 64, 60
2, 98008, Note_on_c, 0, 70, 58
2, 98016, Control_c, 0, 64, 58
2, 98021, Note_on_c, 0, 50, 42
2, 98029, Note_on_c, 0, 56, 0
2, 98035, Control_c, 0, 64, 55
2, 98045, Note_on_c, 0, 77, 0
2, 98054, Control_c, 0, 64, 49
2, 98073, Control_c, 0, 64, 42
2, 98093, Control_c, 0, 64, 35
2, 98111, Control_c, 0, 64, 28
2, 98131, Control_c, 0, 64, 24
2, 98150, Control_c, 0, 64, 22
2, 98188, Control_c, 0, 64, 23
2, 98207, Control_c, 0, 64, 31
2, 98227, Control_c, 0, 64, 40
2, 98245, Control_c, 0, 64, 49
2, 98265, Control_c, 0, 64, 55
2, 98284, Control_c, 0, 64, 59
2, 98307, Control_c, 0, 64, 60
2, 98326, Control_c, 0, 64, 61
2, 98346, Control_c, 0, 64, 62
2, 98365, Control_c, 0, 64, 63
2, 98380, Control_c, 0, 64, 63
2, 98398, Control_c, 0, 64, 64
2, 98418, Control_c, 0, 64, 64
2, 98437, Control_c, 0, 64, 65
2, 98475, Control_c, 0, 64, 65
2, 98514, Control_c, 0, 64, 66
2, 98533, Control_c, 0, 64, 66
2, 98552, Control_c, 0, 64, 67
2, 98572, Control_c, 0, 64, 68
2, 98591, Control_c, 0, 64, 68
2, 98609, Control_c, 0, 64, 70
2, 98629, Control_c, 0, 64, 70
2, 98648, Control_c, 0, 64, 71
2, 98667, Control_c, 0, 64, 72
2, 98679, Note_on_c, 0, 70, 0
2, 98706, Control_c, 0, 64, 72
2, 98744, Control_c, 0, 64, 73
2, 98763, Control_c, 0, 64, 73
2, 98801, Control_c, 0, 64, 74
2, 98840, Control_c, 0, 64, 74
2, 99161, Note_on_c, 0, 80, 73
2, 99166, Control_c, 0, 64, 74
2, 99174, Note_on_c, 0, 51, 48
2, 99180, Note_on_c, 0, 50, 0
2, 99243, Control_c, 0, 64, 73
2, 99303, Note_on_c, 0, 51, 0
2, 99321, Control_c, 0, 64, 73
2, 99324, Note_on_c, 0, 53, 45
2, 99379, Control_c, 0, 64, 72
2, 99417, Control_c, 0, 64, 72
2, 99436, Control_c, 0, 64, 71
2, 99475, Control_c, 0, 64, 71
2, 99494, Control_c, 0, 64, 70
2, 99513, Control_c, 0, 64, 69
2, 99533, Control_c, 0, 64, 66
2, 99551, Control_c, 0, 64, 62
2, 99551, Note_on_c, 0, 74, 67
2, 99554, Note_on_c, 0, 53, 0
2, 99569, Note_on_c, 0, 46, 43
2, 99571, Control_c, 0, 64, 48
2, 99590, Control_c, 0, 64, 17
2, 99609, Control_c, 0, 64, 0
2, 99665, Note_on_c, 0, 80, 0
2, 99782, Control_c, 0, 64, 36
2, 99801, Control_c, 0, 64, 50
2, 99821, Control_c, 0, 64, 57
2, 99839, Control_c, 0, 64, 59
2, 99859, Control_c, 0, 64, 61
2, 99878, Control_c, 0, 64, 62
2, 99897, Control_c, 0, 64, 62
2, 99916, Control_c, 0, 64, 63
2, 99936, Control_c, 0, 64, 64
2, 99955, Control_c, 0, 64, 65
2, 99974, Control_c, 0, 64, 65
2, 99993, Control_c, 0, 64, 66
2, 100031, Control_c, 0, 64, 66
2, 100051, Control_c, 0, 64, 67
2, 100070, Control_c, 0, 64, 67
2, 100089, Control_c, 0, 64, 68
2, 100108, Control_c, 0, 64, 68
2, 100127, Control_c, 0, 64, 69
2, 100147, Control_c, 0, 64, 70
2, 100185, Control_c, 0, 64, 70
2, 100243, Control_c, 0, 64, 71
2, 100301, Control_c, 0, 64, 71
2, 100319, Control_c, 0, 64, 72
2, 100339, Control_c, 0, 64, 72
2, 100358, Note_on_c, 0, 46, 0
2, 100530, Control_c, 0, 64, 73
2, 100749, Note_on_c, 0, 75, 65
2, 100776, Note_on_c, 0, 56, 43
2, 100924, Note_on_c, 0, 77, 64
2, 100946, Note_on_c, 0, 74, 0
2, 100979, Note_on_c, 0, 75, 0
2, 101068, Control_c, 0, 64, 72
2, 101087, Control_c, 0, 64, 72
2, 101107, Control_c, 0, 64, 71
2, 101125, Control_c, 0, 64, 70
2, 101145, Control_c, 0, 64, 69
2, 101146, Note_on_c, 0, 50, 45
2, 101148, Note_on_c, 0, 70, 64
2, 101164, Control_c, 0, 64, 66
2, 101184, Control_c, 0, 64, 60
2, 101184, Note_on_c, 0, 56, 0
2, 101202, Control_c, 0, 64, 49
2, 101222, Control_c, 0, 64, 18
2, 101241, Control_c, 0, 64, 0
2, 101245, Note_on_c, 0, 77, 0
2, 101352, Control_c, 0, 64, 31
2, 101372, Control_c, 0, 64, 51
2, 101391, Control_c, 0, 64, 57
2, 101410, Control_c, 0, 64, 60
2, 101429, Control_c, 0, 64, 61
2, 101449, Control_c, 0, 64, 62
2, 101468, Control_c, 0, 64, 63
2, 101487, Control_c, 0, 64, 64
2, 101506, Control_c, 0, 64, 64
2, 101526, Control_c, 0, 64, 65
2, 101544, Control_c, 0, 64, 66
2, 101564, Control_c, 0, 64, 66
2, 101583, Control_c, 0, 64, 67
2, 101603, Control_c, 0, 64, 68
2, 101621, Control_c, 0, 64, 68
2, 101641, Control_c, 0, 64, 69
2, 101678, Control_c, 0, 64, 69
2, 101698, Control_c, 0, 64, 70
2, 101717, Control_c, 0, 64, 70
2, 101737, Control_c, 0, 64, 71
2, 101755, Control_c, 0, 64, 71
2, 101794, Control_c, 0, 64, 72
2, 102083, Control_c, 0, 64, 71
2, 102331, Control_c, 0, 64, 71
2, 102368, Note_on_c, 0, 72, 63
2, 102388, Note_on_c, 0, 50, 0
2, 102398, Note_on_c, 0, 51, 33
2, 102446, Control_c, 0, 64, 70
2, 102452, Note_on_c, 0, 70, 0
2, 102485, Control_c, 0, 64, 70
2, 102530, Note_on_c, 0, 51, 0
2, 102542, Control_c, 0, 64, 69
2, 102546, Note_on_c, 0, 74, 63
2, 102566, Note_on_c, 0, 53, 39
2, 102608, Note_on_c, 0, 72, 0
2, 102638, Control_c, 0, 64, 69
2, 102696, Control_c, 0, 64, 68
2, 102714, Control_c, 0, 64, 68
2, 102734, Control_c, 0, 64, 67
2, 102753, Control_c, 0, 64, 67
2, 102773, Control_c, 0, 64, 66
2, 102777, Note_on_c, 0, 75, 62
2, 102791, Control_c, 0, 64, 65
2, 102811, Control_c, 0, 64, 63
2, 102811, Note_on_c, 0, 42, 36
2, 102822, Note_on_c, 0, 53, 0
2, 102830, Control_c, 0, 64, 62
2, 102838, Note_on_c, 0, 74, 0
2, 102849, Control_c, 0, 64, 58
2, 102868, Control_c, 0, 64, 51
2, 102888, Control_c, 0, 64, 37
2, 102907, Control_c, 0, 64, 0
2, 103137, Control_c, 0, 64, 33
2, 103156, Control_c, 0, 64, 48
2, 103176, Control_c, 0, 64, 55
2, 103194, Control_c, 0, 64, 57
2, 103214, Control_c, 0, 64, 59
2, 103233, Control_c, 0, 64, 60
2, 103253, Control_c, 0, 64, 61
2, 103271, Control_c, 0, 64, 62
2, 103291, Control_c, 0, 64, 63
2, 103329, Control_c, 0, 64, 64
2, 103348, Control_c, 0, 64, 64
2, 103387, Control_c, 0, 64, 65
2, 103406, Control_c, 0, 64, 65
2, 103425, Control_c, 0, 64, 66
2, 103445, Control_c, 0, 64, 67
2, 103463, Control_c, 0, 64, 67
2, 103483, Control_c, 0, 64, 68
2, 103540, Control_c, 0, 64, 68
2, 103598, Control_c, 0, 64, 69
2, 103617, Control_c, 0, 64, 70
2, 103636, Control_c, 0, 64, 70
2, 103656, Control_c, 0, 64, 71
2, 103674, Control_c, 0, 64, 71
2, 103694, Control_c, 0, 64, 72
2, 103713, Control_c, 0, 64, 72
2, 103751, Control_c, 0, 64, 73
2, 103771, Control_c, 0, 64, 73
2, 103790, Control_c, 0, 64, 74
2, 103809, Control_c, 0, 64, 75
2, 103828, Control_c, 0, 64, 76
2, 103848, Control_c, 0, 64, 77
2, 104002, Control_c, 0, 64, 77
2, 104076, Note_on_c, 0, 73, 38
2, 104099, Note_on_c, 0, 42, 0
2, 104106, Note_on_c, 0, 75, 0
2, 104155, Control_c, 0, 64, 77
2, 104198, Note_on_c, 0, 73, 0
2, 104268, Note_on_c, 0, 71, 38
2, 104271, Control_c, 0, 64, 76
2, 104309, Control_c, 0, 64, 76
2, 104348, Control_c, 0, 64, 75
2, 104367, Control_c, 0, 64, 74
2, 104386, Control_c, 0, 64, 74
2, 104406, Control_c, 0, 64, 73
2, 104424, Control_c, 0, 64, 73
2, 104444, Control_c, 0, 64, 72
2, 104463, Control_c, 0, 64, 71
2, 104483, Control_c, 0, 64, 70
2, 104495, Note_on_c, 0, 71, 0
2, 104498, Note_on_c, 0, 73, 45
2, 104501, Control_c, 0, 64, 68
2, 104517, Note_on_c, 0, 43, 24
2, 104521, Control_c, 0, 64, 66
2, 104540, Control_c, 0, 64, 64
2, 104558, Control_c, 0, 64, 62
2, 104578, Control_c, 0, 64, 60
2, 104597, Control_c, 0, 64, 57
2, 104617, Control_c, 0, 64, 52
2, 104635, Control_c, 0, 64, 45
2, 104655, Control_c, 0, 64, 34
2, 104674, Control_c, 0, 64, 13
2, 104693, Control_c, 0, 64, 0
2, 104809, Control_c, 0, 64, 25
2, 104828, Control_c, 0, 64, 42
2, 104847, Control_c, 0, 64, 53
2, 104866, Control_c, 0, 64, 58
2, 104886, Control_c, 0, 64, 60
2, 104904, Control_c, 0, 64, 61
2, 104924, Control_c, 0, 64, 63
2, 104943, Control_c, 0, 64, 64
2, 104963, Control_c, 0, 64, 64
2, 104981, Control_c, 0, 64, 65
2, 105001, Control_c, 0, 64, 66
2, 105023, Control_c, 0, 64, 66
2, 105043, Control_c, 0, 64, 67
2, 105062, Control_c, 0, 64, 68
2, 105074, Note_on_c, 0, 43, 0
2, 105082, Control_c, 0, 64, 69
2, 105100, Control_c, 0, 64, 70
2, 105119, Control_c, 0, 64, 72
2, 105139, Control_c, 0, 64, 72
2, 105158, Control_c, 0, 64, 73
2, 105196, Control_c, 0, 64, 74
2, 105216, Control_c, 0, 64, 74
2, 105254, Control_c, 0, 64, 75
2, 105270, Note_on_c, 0, 73, 0
2, 105311, Control_c, 0, 64, 76
2, 105331, Control_c, 0, 64, 77
2, 105350, Control_c, 0, 64, 78
2, 105369, Control_c, 0, 64, 79
2, 105388, Control_c, 0, 64, 79
2, 105408, Control_c, 0, 64, 80
2, 105427, Control_c, 0, 64, 81
2, 105446, Control_c, 0, 64, 82
2, 105465, Control_c, 0, 64, 84
2, 105485, Control_c, 0, 64, 86
2, 105503, Control_c, 0, 64, 89
2, 105523, Control_c, 0, 64, 92
2, 105542, Control_c, 0, 64, 95
2, 105562, Control_c, 0, 64, 97
2, 105580, Control_c, 0, 64, 100
2, 105599, Control_c, 0, 64, 103
2, 105619, Control_c, 0, 64, 107
2, 105638, Control_c, 0, 64, 115
2, 105657, Control_c, 0, 64, 127
2, 105813, Note_on_c, 0, 58, 46
2, 105888, Control_c, 0, 64, 118
2, 105907, Control_c, 0, 64, 110
2, 105926, Control_c, 0, 64, 106
2, 105945, Control_c, 0, 64, 101
2, 105965, Control_c, 0, 64, 95
2, 105984, Control_c, 0, 64, 89
2, 106004, Control_c, 0, 64, 83
2, 106023, Control_c, 0, 64, 79
2, 106043, Control_c, 0, 64, 75
2, 106054, Note_on_c, 0, 63, 35
2, 106061, Control_c, 0, 64, 72
2, 106081, Control_c, 0, 64, 70
2, 106100, Control_c, 0, 64, 69
2, 106108, Note_on_c, 0, 70, 45
2, 106118, Control_c, 0, 64, 67
2, 106138, Control_c, 0, 64, 65
2, 106157, Control_c, 0, 64, 63
2, 106177, Control_c, 0, 64, 61
2, 106185, Note_on_c, 0, 55, 48
2, 106191, Note_on_c, 0, 58, 0
2, 106195, Control_c, 0, 64, 59
2, 106196, Note_on_c, 0, 73, 44
2, 106215, Control_c, 0, 64, 56
2, 106234, Control_c, 0, 64, 51
2, 106253, Control_c, 0, 64, 44
2, 106272, Control_c, 0, 64, 29
2, 106292, Control_c, 0, 64, 0
2, 106388, Control_c, 0, 64, 33
2, 106407, Control_c, 0, 64, 49
2, 106426, Control_c, 0, 64, 58
2, 106446, Control_c, 0, 64, 62
2, 106464, Control_c, 0, 64, 65
2, 106484, Control_c, 0, 64, 66
2, 106503, Control_c, 0, 64, 68
2, 106523, Control_c, 0, 64, 71
2, 106541, Control_c, 0, 64, 74
2, 106561, Control_c, 0, 64, 78
2, 106580, Control_c, 0, 64, 81
2, 106598, Control_c, 0, 64, 83
2, 106618, Control_c, 0, 64, 85
2, 106637, Control_c, 0, 64, 87
2, 106657, Control_c, 0, 64, 89
2, 106675, Control_c, 0, 64, 91
2, 106695, Control_c, 0, 64, 94
2, 106714, Control_c, 0, 64, 97
2, 106733, Control_c, 0, 64, 102
2, 106752, Control_c, 0, 64, 105
2, 106775, Control_c, 0, 64, 107
2, 106794, Control_c, 0, 64, 108
2, 106813, Control_c, 0, 64, 108
2, 106832, Control_c, 0, 64, 109
2, 106851, Control_c, 0, 64, 110
2, 106889, Control_c, 0, 64, 110
2, 107008, Note_on_c, 0, 73, 0
2, 107138, Control_c, 0, 64, 111
2, 107165, Note_on_c, 0, 63, 0
2, 107176, Control_c, 0, 64, 112
2, 107215, Control_c, 0, 64, 112
2, 107234, Control_c, 0, 64, 113
2, 107250, Note_on_c, 0, 70, 0
2, 107292, Control_c, 0, 64, 114
2, 107447, Note_on_c, 0, 55, 0
2, 107452, Note_on_c, 0, 51, 33
2, 107561, Control_c, 0, 64, 113
2, 107599, Control_c, 0, 64, 112
2, 107638, Control_c, 0, 64, 112
2, 107656, Control_c, 0, 64, 111
2, 107676, Control_c, 0, 64, 110
2, 107695, Control_c, 0, 64, 110
2, 107714, Control_c, 0, 64, 108
2, 107726, Note_on_c, 0, 63, 32
2, 107733, Control_c, 0, 64, 107
2, 107753, Control_c, 0, 64, 105
2, 107772, Control_c, 0, 64, 102
2, 107791, Control_c, 0, 64, 99
2, 107800, Note_on_c, 0, 70, 43
2, 107810, Control_c, 0, 64, 96
2, 107830, Control_c, 0, 64, 91
2, 107849, Control_c, 0, 64, 86
2, 107868, Control_c, 0, 64, 80
2, 107876, Note_on_c, 0, 44, 33
2, 107887, Control_c, 0, 64, 74
2, 107888, Note_on_c, 0, 51, 0
2, 107889, Note_on_c, 0, 73, 39
2, 107907, Control_c, 0, 64, 69
2, 107925, Control_c, 0, 64, 65
2, 107945, Control_c, 0, 64, 62
2, 107964, Control_c, 0, 64, 59
2, 107984, Control_c, 0, 64, 55
2, 108001, Control_c, 0, 64, 50
2, 108020, Control_c, 0, 64, 44
2, 108040, Control_c, 0, 64, 37
2, 108058, Control_c, 0, 64, 34
2, 108097, Control_c, 0, 64, 37
2, 108117, Control_c, 0, 64, 44
2, 108135, Control_c, 0, 64, 52
2, 108155, Control_c, 0, 64, 57
2, 108174, Control_c, 0, 64, 60
2, 108194, Control_c, 0, 64, 62
2, 108212, Control_c, 0, 64, 63
2, 108232, Control_c, 0, 64, 64
2, 108251, Control_c, 0, 64, 66
2, 108270, Control_c, 0, 64, 67
2, 108289, Control_c, 0, 64, 69
2, 108309, Control_c, 0, 64, 70
2, 108328, Control_c, 0, 64, 72
2, 108347, Control_c, 0, 64, 74
2, 108366, Control_c, 0, 64, 75
2, 108386, Control_c, 0, 64, 76
2, 108404, Control_c, 0, 64, 78
2, 108424, Control_c, 0, 64, 78
2, 108443, Control_c, 0, 64, 79
2, 108462, Control_c, 0, 64, 80
2, 108481, Control_c, 0, 64, 81
2, 108500, Control_c, 0, 64, 82
2, 108520, Control_c, 0, 64, 83
2, 108590, Note_on_c, 0, 63, 0
2, 108880, Note_on_c, 0, 70, 0
2, 109132, Note_on_c, 0, 73, 0
2, 109167, Note_on_c, 0, 71, 27
2, 109171, Control_c, 0, 64, 82
2, 109248, Control_c, 0, 64, 82
2, 109325, Control_c, 0, 64, 81
2, 109333, Note_on_c, 0, 71, 0
2, 109345, Control_c, 0, 64, 81
2, 109382, Control_c, 0, 64, 80
2, 109388, Note_on_c, 0, 70, 34
2, 109402, Control_c, 0, 64, 80
2, 109421, Control_c, 0, 64, 79
2, 109459, Control_c, 0, 64, 79
2, 109471, Note_on_c, 0, 44, 0
2, 109479, Control_c, 0, 64, 78
2, 109498, Control_c, 0, 64, 78
2, 109517, Control_c, 0, 64, 77
2, 109536, Control_c, 0, 64, 76
2, 109556, Control_c, 0, 64, 75
2, 109574, Control_c, 0, 64, 75
2, 109589, Note_on_c, 0, 71, 34
2, 109594, Control_c, 0, 64, 73
2, 109597, Note_on_c, 0, 70, 0
2, 109613, Control_c, 0, 64, 72
2, 109633, Control_c, 0, 64, 69
2, 109651, Control_c, 0, 64, 66
2, 109671, Control_c, 0, 64, 64
2, 109690, Control_c, 0, 64, 62
2, 109709, Control_c, 0, 64, 58
2, 109728, Control_c, 0, 64, 55
2, 109748, Control_c, 0, 64, 49
2, 109767, Control_c, 0, 64, 42
2, 109786, Control_c, 0, 64, 36
2, 109805, Control_c, 0, 64, 33
2, 109825, Control_c, 0, 64, 31
2, 109844, Control_c, 0, 64, 30
2, 109862, Control_c, 0, 64, 29
2, 109882, Control_c, 0, 64, 28
2, 109959, Control_c, 0, 64, 29
2, 109978, Control_c, 0, 64, 31
2, 109997, Control_c, 0, 64, 36
2, 110016, Control_c, 0, 64, 43
2, 110036, Control_c, 0, 64, 51
2, 110054, Control_c, 0, 64, 56
2, 110074, Control_c, 0, 64, 60
2, 110093, Control_c, 0, 64, 62
2, 110113, Control_c, 0, 64, 63
2, 110131, Control_c, 0, 64, 64
2, 110151, Control_c, 0, 64, 65
2, 110170, Control_c, 0, 64, 66
2, 110189, Control_c, 0, 64, 67
2, 110208, Control_c, 0, 64, 67
2, 110228, Control_c, 0, 64, 69
2, 110247, Control_c, 0, 64, 70
2, 110266, Control_c, 0, 64, 71
2, 110285, Control_c, 0, 64, 73
2, 110305, Control_c, 0, 64, 75
2, 110324, Control_c, 0, 64, 76
2, 110342, Control_c, 0, 64, 76
2, 110358, Note_on_c, 0, 71, 0
2, 110381, Control_c, 0, 64, 77
2, 110419, Control_c, 0, 64, 77
2, 110477, Control_c, 0, 64, 78
2, 110573, Control_c, 0, 64, 78
2, 110910, Note_on_c, 0, 59, 30
2, 111131, Control_c, 0, 64, 78
2, 111148, Note_on_c, 0, 63, 29
2, 111169, Control_c, 0, 64, 77
2, 111182, Note_on_c, 0, 68, 43
2, 111189, Control_c, 0, 64, 77
2, 111208, Control_c, 0, 64, 76
2, 111227, Control_c, 0, 64, 75
2, 111246, Control_c, 0, 64, 74
2, 111266, Control_c, 0, 64, 72
2, 111277, Note_on_c, 0, 71, 37
2, 111284, Control_c, 0, 64, 68
2, 111299, Note_on_c, 0, 56, 34
2, 111303, Control_c, 0, 64, 64
2, 111323, Control_c, 0, 64, 59
2, 111342, Control_c, 0, 64, 54
2, 111361, Control_c, 0, 64, 48
2, 111380, Control_c, 0, 64, 45
2, 111400, Control_c, 0, 64, 44
2, 111418, Control_c, 0, 64, 45
2, 111438, Control_c, 0, 64, 49
2, 111457, Control_c, 0, 64, 54
2, 111477, Control_c, 0, 64, 58
2, 111495, Control_c, 0, 64, 61
2, 111515, Control_c, 0, 64, 63
2, 111534, Control_c, 0, 64, 64
2, 111554, Control_c, 0, 64, 65
2, 111572, Control_c, 0, 64, 66
2, 111592, Control_c, 0, 64, 67
2, 111611, Control_c, 0, 64, 68
2, 111630, Control_c, 0, 64, 70
2, 111649, Control_c, 0, 64, 71
2, 111669, Control_c, 0, 64, 73
2, 111688, Control_c, 0, 64, 75
2, 111707, Control_c, 0, 64, 77
2, 111726, Control_c, 0, 64, 78
2, 111749, Control_c, 0, 64, 79
2, 111768, Control_c, 0, 64, 81
2, 111788, Control_c, 0, 64, 81
2, 111822, Control_c, 0, 64, 82
2, 111841, Control_c, 0, 64, 82
2, 111860, Control_c, 0, 64, 83
2, 111880, Control_c, 0, 64, 84
2, 111897, Note_on_c, 0, 59, 0
2, 111898, Control_c, 0, 64, 85
2, 111918, Control_c, 0, 64, 86
2, 111957, Control_c, 0, 64, 87
2, 112145, Note_on_c, 0, 56, 0
2, 112149, Control_c, 0, 64, 87
2, 112230, Note_on_c, 0, 63, 0
2, 112244, Control_c, 0, 64, 87
2, 112370, Note_on_c, 0, 68, 0
2, 112455, Control_c, 0, 64, 86
2, 112498, Note_on_c, 0, 53, 33
2, 112536, Note_on_c, 0, 71, 0
2, 112567, Note_on_c, 0, 53, 0
2, 112763, Control_c, 0, 64, 86
2, 112769, Note_on_c, 0, 50, 28
2, 112801, Control_c, 0, 64, 85
2, 112840, Control_c, 0, 64, 84
2, 112858, Control_c, 0, 64, 84
2, 112878, Control_c, 0, 64, 82
2, 112897, Control_c, 0, 64, 81
2, 112910, Note_on_c, 0, 56, 31
2, 112913, Note_on_c, 0, 65, 22
2, 112917, Control_c, 0, 64, 78
2, 112923, Note_on_c, 0, 68, 33
2, 112935, Control_c, 0, 64, 75
2, 112955, Control_c, 0, 64, 70
2, 112974, Control_c, 0, 64, 65
2, 112987, Note_on_c, 0, 71, 47
2, 112994, Control_c, 0, 64, 62
2, 113012, Control_c, 0, 64, 59
2, 113032, Control_c, 0, 64, 55
2, 113051, Control_c, 0, 64, 50
2, 113070, Control_c, 0, 64, 43
2, 113089, Control_c, 0, 64, 36
2, 113109, Control_c, 0, 64, 31
2, 113128, Control_c, 0, 64, 31
2, 113166, Control_c, 0, 64, 35
2, 113186, Control_c, 0, 64, 43
2, 113204, Control_c, 0, 64, 52
2, 113223, Control_c, 0, 64, 58
2, 113243, Control_c, 0, 64, 61
2, 113262, Control_c, 0, 64, 63
2, 113281, Control_c, 0, 64, 64
2, 113300, Control_c, 0, 64, 65
2, 113320, Control_c, 0, 64, 67
2, 113338, Control_c, 0, 64, 69
2, 113358, Control_c, 0, 64, 70
2, 113377, Control_c, 0, 64, 72
2, 113397, Control_c, 0, 64, 74
2, 113415, Control_c, 0, 64, 75
2, 113435, Control_c, 0, 64, 76
2, 113454, Control_c, 0, 64, 76
2, 113474, Control_c, 0, 64, 77
2, 113492, Control_c, 0, 64, 77
2, 113512, Control_c, 0, 64, 78
2, 113531, Control_c, 0, 64, 79
2, 113550, Control_c, 0, 64, 79
2, 113569, Control_c, 0, 64, 80
2, 113622, Note_on_c, 0, 56, 0
2, 113771, Note_on_c, 0, 50, 0
2, 113900, Note_on_c, 0, 68, 0
2, 113972, Control_c, 0, 64, 80
2, 114049, Control_c, 0, 64, 80
2, 114147, Note_on_c, 0, 71, 0
2, 114164, Control_c, 0, 64, 79
2, 114190, Note_on_c, 0, 70, 47
2, 114222, Control_c, 0, 64, 79
2, 114232, Note_on_c, 0, 65, 0
2, 114298, Control_c, 0, 64, 78
2, 114337, Control_c, 0, 64, 78
2, 114340, Note_on_c, 0, 70, 0
2, 114357, Control_c, 0, 64, 77
2, 114357, Note_on_c, 0, 68, 56
2, 114395, Control_c, 0, 64, 77
2, 114414, Control_c, 0, 64, 76
2, 114434, Control_c, 0, 64, 76
2, 114468, Note_on_c, 0, 50, 19
2, 114472, Control_c, 0, 64, 75
2, 114510, Control_c, 0, 64, 75
2, 114529, Control_c, 0, 64, 74
2, 114549, Control_c, 0, 64, 73
2, 114550, Note_on_c, 0, 53, 32
2, 114568, Control_c, 0, 64, 72
2, 114587, Control_c, 0, 64, 70
2, 114604, Note_on_c, 0, 77, 61
2, 114606, Control_c, 0, 64, 67
2, 114607, Note_on_c, 0, 68, 0
2, 114615, Note_on_c, 0, 58, 35
2, 114626, Control_c, 0, 64, 65
2, 114644, Control_c, 0, 64, 63
2, 114663, Control_c, 0, 64, 59
2, 114683, Control_c, 0, 64, 55
2, 114702, Control_c, 0, 64, 50
2, 114721, Control_c, 0, 64, 46
2, 114740, Control_c, 0, 64, 43
2, 114760, Control_c, 0, 64, 40
2, 114778, Control_c, 0, 64, 37
2, 114798, Control_c, 0, 64, 36
2, 114855, Control_c, 0, 64, 37
2, 114875, Control_c, 0, 64, 41
2, 114894, Control_c, 0, 64, 44
2, 114914, Control_c, 0, 64, 48
2, 114932, Control_c, 0, 64, 51
2, 114952, Control_c, 0, 64, 54
2, 114971, Control_c, 0, 64, 56
2, 114987, Control_c, 0, 64, 58
2, 115006, Control_c, 0, 64, 60
2, 115026, Control_c, 0, 64, 62
2, 115045, Control_c, 0, 64, 63
2, 115064, Control_c, 0, 64, 64
2, 115083, Control_c, 0, 64, 65
2, 115103, Control_c, 0, 64, 66
2, 115121, Control_c, 0, 64, 67
2, 115141, Control_c, 0, 64, 69
2, 115160, Control_c, 0, 64, 71
2, 115180, Control_c, 0, 64, 74
2, 115198, Control_c, 0, 64, 77
2, 115218, Control_c, 0, 64, 80
2, 115237, Control_c, 0, 64, 82
2, 115256, Control_c, 0, 64, 84
2, 115275, Control_c, 0, 64, 86
2, 115295, Control_c, 0, 64, 87
2, 115314, Control_c, 0, 64, 88
2, 115332, Control_c, 0, 64, 90
2, 115352, Control_c, 0, 64, 92
2, 115371, Control_c, 0, 64, 94
2, 115391, Control_c, 0, 64, 95
2, 115403, Note_on_c, 0, 53, 0
2, 115409, Control_c, 0, 64, 96
2, 115429, Control_c, 0, 64, 96
2, 115448, Control_c, 0, 64, 97
2, 115467, Control_c, 0, 64, 97
2, 115486, Control_c, 0, 64, 98
2, 115506, Control_c, 0, 64, 98
2, 115534, Note_on_c, 0, 58, 0
2, 115544, Control_c, 0, 64, 99
2, 115544, Note_on_c, 0, 50, 0
2, 115610, Note_on_c, 0, 77, 0
2, 115812, Control_c, 0, 64, 98
2, 115837, Note_on_c, 0, 71, 37
2, 115851, Control_c, 0, 64, 98
2, 115871, Control_c, 0, 64, 97
2, 115909, Control_c, 0, 64, 96
2, 115928, Control_c, 0, 64, 96
2, 115947, Control_c, 0, 64, 95
2, 115966, Control_c, 0, 64, 94
2, 115986, Control_c, 0, 64, 93
2, 115995, Note_on_c, 0, 71, 0
2, 116005, Control_c, 0, 64, 91
2, 116024, Control_c, 0, 64, 90
2, 116033, Note_on_c, 0, 50, 28
2, 116043, Control_c, 0, 64, 88
2, 116063, Control_c, 0, 64, 86
2, 116081, Control_c, 0, 64, 85
2, 116101, Control_c, 0, 64, 83
2, 116109, Note_on_c, 0, 53, 26
2, 116120, Control_c, 0, 64, 82
2, 116140, Control_c, 0, 64, 80
2, 116158, Control_c, 0, 64, 78
2, 116178, Control_c, 0, 64, 76
2, 116188, Note_on_c, 0, 58, 34
2, 116197, Control_c, 0, 64, 75
2, 116216, Control_c, 0, 64, 74
2, 116235, Control_c, 0, 64, 73
2, 116237, Note_on_c, 0, 71, 39
2, 116255, Control_c, 0, 64, 72
2, 116274, Control_c, 0, 64, 71
2, 116292, Control_c, 0, 64, 70
2, 116312, Control_c, 0, 64, 69
2, 116331, Control_c, 0, 64, 68
2, 116351, Control_c, 0, 64, 67
2, 116369, Control_c, 0, 64, 67
2, 116383, Note_on_c, 0, 71, 0
2, 116389, Control_c, 0, 64, 66
2, 116408, Control_c, 0, 64, 66
2, 116427, Control_c, 0, 64, 65
2, 116446, Control_c, 0, 64, 64
2, 116446, Note_on_c, 0, 70, 40
2, 116466, Control_c, 0, 64, 64
2, 116485, Control_c, 0, 64, 63
2, 116516, Note_on_c, 0, 70, 0
2, 116523, Control_c, 0, 64, 62
2, 116544, Control_c, 0, 64, 62
2, 116552, Note_on_c, 0, 71, 48
2, 116562, Control_c, 0, 64, 61
2, 116582, Control_c, 0, 64, 60
2, 116601, Control_c, 0, 64, 60
2, 116609, Note_on_c, 0, 71, 0
2, 116620, Control_c, 0, 64, 59
2, 116651, Note_on_c, 0, 70, 51
2, 116656, Control_c, 0, 64, 59
2, 116675, Control_c, 0, 64, 58
2, 116695, Control_c, 0, 64, 57
2, 116699, Note_on_c, 0, 70, 0
2, 116713, Control_c, 0, 64, 57
2, 116725, Note_on_c, 0, 71, 55
2, 116732, Control_c, 0, 64, 56
2, 116771, Control_c, 0, 64, 56
2, 116788, Note_on_c, 0, 71, 0
2, 116790, Control_c, 0, 64, 55
2, 116809, Control_c, 0, 64, 55
2, 116813, Note_on_c, 0, 70, 61
2, 116847, Control_c, 0, 64, 54
2, 116867, Control_c, 0, 64, 54
2, 116867, Note_on_c, 0, 70, 0
2, 116886, Control_c, 0, 64, 53
2, 116906, Control_c, 0, 64, 52
2, 116920, Note_on_c, 0, 71, 5
2, 116924, Control_c, 0, 64, 52
2, 116944, Control_c, 0, 64, 51
2, 116963, Control_c, 0, 64, 50
2, 116968, Note_on_c, 0, 70, 43
2, 116982, Control_c, 0, 64, 49
2, 117001, Control_c, 0, 64, 48
2, 117003, Note_on_c, 0, 70, 0
2, 117021, Control_c, 0, 64, 47
2, 117040, Control_c, 0, 64, 46
2, 117059, Control_c, 0, 64, 46
2, 117083, Note_on_c, 0, 71, 0
2, 117098, Control_c, 0, 64, 45
2, 117100, Note_on_c, 0, 70, 63
2, 117136, Control_c, 0, 64, 45
2, 117152, Note_on_c, 0, 70, 0
2, 117155, Control_c, 0, 64, 44
2, 117191, Note_on_c, 0, 68, 43
2, 117251, Control_c, 0, 64, 45
2, 117256, Note_on_c, 0, 68, 0
2, 117270, Control_c, 0, 64, 45
2, 117281, Note_on_c, 0, 70, 51
2, 117289, Control_c, 0, 64, 46
2, 117309, Control_c, 0, 64, 47
2, 117327, Control_c, 0, 64, 48
2, 117347, Control_c, 0, 64, 49
2, 117356, Note_on_c, 0, 70, 0
2, 117363, Note_on_c, 0, 50, 0
2, 117366, Control_c, 0, 64, 50
2, 117386, Control_c, 0, 64, 53
2, 117397, Note_on_c, 0, 71, 48
2, 117404, Control_c, 0, 64, 57
2, 117423, Note_on_c, 0, 53, 0
2, 117424, Control_c, 0, 64, 59
2, 117443, Control_c, 0, 64, 60
2, 117462, Control_c, 0, 64, 61
2, 117481, Control_c, 0, 64, 61
2, 117501, Control_c, 0, 64, 62
2, 117520, Control_c, 0, 64, 62
2, 117553, Note_on_c, 0, 68, 54
2, 117558, Control_c, 0, 64, 63
2, 117591, Note_on_c, 0, 71, 0
2, 117641, Note_on_c, 0, 58, 0
2, 117685, Note_on_c, 0, 51, 31
2, 117693, Control_c, 0, 64, 62
2, 117751, Control_c, 0, 64, 62
2, 117770, Control_c, 0, 64, 61
2, 117789, Note_on_c, 0, 54, 22
2, 117790, Control_c, 0, 64, 61
2, 117808, Control_c, 0, 64, 60
2, 117825, Note_on_c, 0, 68, 0
2, 117828, Control_c, 0, 64, 60
2, 117847, Control_c, 0, 64, 58
2, 117851, Note_on_c, 0, 66, 43
2, 117866, Control_c, 0, 64, 57
2, 117883, Note_on_c, 0, 63, 29
2, 117885, Control_c, 0, 64, 55
2, 117893, Note_on_c, 0, 58, 14
2, 117905, Control_c, 0, 64, 53
2, 117924, Control_c, 0, 64, 51
2, 117943, Control_c, 0, 64, 50
2, 117962, Control_c, 0, 64, 48
2, 117982, Control_c, 0, 64, 47
2, 118001, Control_c, 0, 64, 46
2, 118020, Control_c, 0, 64, 45
2, 118136, Control_c, 0, 64, 46
2, 118154, Control_c, 0, 64, 48
2, 118173, Control_c, 0, 64, 49
2, 118193, Control_c, 0, 64, 52
2, 118211, Control_c, 0, 64, 54
2, 118231, Control_c, 0, 64, 57
2, 118250, Control_c, 0, 64, 59
2, 118270, Control_c, 0, 64, 61
2, 118288, Control_c, 0, 64, 62
2, 118308, Control_c, 0, 64, 63
2, 118327, Control_c, 0, 64, 64
2, 118346, Control_c, 0, 64, 64
2, 118365, Control_c, 0, 64, 65
2, 118385, Control_c, 0, 64, 65
2, 118404, Control_c, 0, 64, 66
2, 118423, Control_c, 0, 64, 67
2, 118442, Control_c, 0, 64, 68
2, 118462, Control_c, 0, 64, 68
2, 118481, Control_c, 0, 64, 69
2, 118500, Control_c, 0, 64, 70
2, 118519, Control_c, 0, 64, 71
2, 118539, Control_c, 0, 64, 72
2, 118557, Control_c, 0, 64, 73
2, 118596, Control_c, 0, 64, 74
2, 118634, Control_c, 0, 64, 74
2, 118653, Control_c, 0, 64, 76
2, 118667, Note_on_c, 0, 54, 0
2, 118673, Control_c, 0, 64, 77
2, 118676, Note_on_c, 0, 58, 0
2, 118691, Control_c, 0, 64, 78
2, 118711, Control_c, 0, 64, 80
2, 118716, Note_on_c, 0, 51, 0
2, 118730, Control_c, 0, 64, 80
2, 118750, Control_c, 0, 64, 81
2, 118768, Control_c, 0, 64, 81
2, 118788, Control_c, 0, 64, 82
2, 118807, Control_c, 0, 64, 84
2, 118826, Control_c, 0, 64, 85
2, 118845, Control_c, 0, 64, 86
2, 118903, Control_c, 0, 64, 87
2, 118922, Control_c, 0, 64, 88
2, 118942, Control_c, 0, 64, 89
2, 118961, Control_c, 0, 64, 90
2, 118980, Control_c, 0, 64, 90
2, 119207, Note_on_c, 0, 63, 0
2, 119210, Control_c, 0, 64, 90
2, 119268, Control_c, 0, 64, 89
2, 119287, Control_c, 0, 64, 89
2, 119325, Control_c, 0, 64, 88
2, 119345, Control_c, 0, 64, 88
2, 119361, Note_on_c, 0, 51, 25
2, 119364, Control_c, 0, 64, 87
2, 119369, Note_on_c, 0, 66, 0
2, 119383, Control_c, 0, 64, 86
2, 119402, Control_c, 0, 64, 86
2, 119422, Control_c, 0, 64, 85
2, 119441, Control_c, 0, 64, 83
2, 119456, Note_on_c, 0, 54, 20
2, 119460, Control_c, 0, 64, 82
2, 119479, Control_c, 0, 64, 80
2, 119499, Control_c, 0, 64, 78
2, 119516, Control_c, 0, 64, 76
2, 119536, Control_c, 0, 64, 73
2, 119555, Control_c, 0, 64, 70
2, 119559, Note_on_c, 0, 58, 29
2, 119575, Control_c, 0, 64, 67
2, 119593, Control_c, 0, 64, 64
2, 119612, Control_c, 0, 64, 63
2, 119632, Control_c, 0, 64, 61
2, 119651, Control_c, 0, 64, 58
2, 119670, Control_c, 0, 64, 55
2, 119689, Control_c, 0, 64, 52
2, 119709, Control_c, 0, 64, 50
2, 119727, Control_c, 0, 64, 50
2, 119747, Control_c, 0, 64, 50
2, 119766, Control_c, 0, 64, 51
2, 119786, Control_c, 0, 64, 54
2, 119804, Control_c, 0, 64, 57
2, 119824, Control_c, 0, 64, 60
2, 119832, Note_on_c, 0, 63, 23
2, 119843, Control_c, 0, 64, 61
2, 119862, Control_c, 0, 64, 63
2, 119881, Control_c, 0, 64, 64
2, 119901, Control_c, 0, 64, 65
2, 119920, Control_c, 0, 64, 66
2, 119939, Control_c, 0, 64, 68
2, 119951, Note_on_c, 0, 63, 0
2, 119958, Control_c, 0, 64, 69
2, 119978, Control_c, 0, 64, 70
2, 119996, Control_c, 0, 64, 71
2, 120016, Control_c, 0, 64, 71
2, 120019, Note_on_c, 0, 65, 32
2, 120055, Control_c, 0, 64, 72
2, 120073, Control_c, 0, 64, 72
2, 120092, Control_c, 0, 64, 73
2, 120131, Control_c, 0, 64, 74
2, 120189, Control_c, 0, 64, 74
2, 120211, Note_on_c, 0, 66, 36
2, 120212, Note_on_c, 0, 65, 0
2, 120227, Control_c, 0, 64, 75
2, 120246, Control_c, 0, 64, 75
2, 120266, Control_c, 0, 64, 76
2, 120304, Control_c, 0, 64, 76
2, 120342, Control_c, 0, 64, 77
2, 120361, Control_c, 0, 64, 78
2, 120363, Note_on_c, 0, 66, 0
2, 120394, Note_on_c, 0, 68, 51
2, 120401, Control_c, 0, 64, 78
2, 120421, Note_on_c, 0, 58, 0
2, 120460, Note_on_c, 0, 51, 0
2, 120479, Note_on_c, 0, 54, 0
2, 120497, Control_c, 0, 64, 79
2, 120554, Control_c, 0, 64, 79
2, 120564, Note_on_c, 0, 68, 0
2, 120569, Note_on_c, 0, 70, 59
2, 120650, Control_c, 0, 64, 79
2, 120685, Note_on_c, 0, 70, 0
2, 120708, Control_c, 0, 64, 78
2, 120746, Control_c, 0, 64, 78
2, 120746, Note_on_c, 0, 72, 62
2, 120765, Control_c, 0, 64, 77
2, 120785, Control_c, 0, 64, 76
2, 120804, Control_c, 0, 64, 76
2, 120823, Control_c, 0, 64, 75
2, 120842, Control_c, 0, 64, 75
2, 120862, Control_c, 0, 64, 74
2, 120881, Control_c, 0, 64, 73
2, 120900, Control_c, 0, 64, 73
2, 120909, Note_on_c, 0, 74, 62
2, 120919, Control_c, 0, 64, 72
2, 120936, Note_on_c, 0, 51, 31
2, 120937, Note_on_c, 0, 72, 0
2, 120939, Control_c, 0, 64, 71
2, 120957, Control_c, 0, 64, 70
2, 120977, Control_c, 0, 64, 68
2, 120996, Control_c, 0, 64, 67
2, 121013, Note_on_c, 0, 54, 31
2, 121016, Control_c, 0, 64, 65
2, 121034, Control_c, 0, 64, 64
2, 121053, Control_c, 0, 64, 63
2, 121073, Control_c, 0, 64, 62
2, 121091, Control_c, 0, 64, 60
2, 121111, Control_c, 0, 64, 57
2, 121114, Note_on_c, 0, 75, 74
2, 121123, Note_on_c, 0, 58, 36
2, 121130, Control_c, 0, 64, 55
2, 121142, Note_on_c, 0, 74, 0
2, 121150, Control_c, 0, 64, 52
2, 121168, Control_c, 0, 64, 50
2, 121188, Control_c, 0, 64, 48
2, 121207, Control_c, 0, 64, 47
2, 121226, Control_c, 0, 64, 47
2, 121245, Control_c, 0, 64, 46
2, 121265, Control_c, 0, 64, 45
2, 121284, Control_c, 0, 64, 43
2, 121288, Note_on_c, 0, 77, 71
2, 121303, Control_c, 0, 64, 41
2, 121308, Note_on_c, 0, 75, 0
2, 121322, Control_c, 0, 64, 40
2, 121347, Control_c, 0, 64, 39
2, 121405, Control_c, 0, 64, 38
2, 121437, Control_c, 0, 64, 38
2, 121457, Control_c, 0, 64, 37
2, 121468, Note_on_c, 0, 78, 75
2, 121476, Control_c, 0, 64, 36
2, 121496, Control_c, 0, 64, 36
2, 121514, Control_c, 0, 64, 35
2, 121524, Note_on_c, 0, 77, 0
2, 121533, Control_c, 0, 64, 34
2, 121571, Control_c, 0, 64, 34
2, 121591, Control_c, 0, 64, 32
2, 121610, Control_c, 0, 64, 29
2, 121630, Control_c, 0, 64, 24
2, 121648, Control_c, 0, 64, 19
2, 121650, Note_on_c, 0, 80, 81
2, 121668, Control_c, 0, 64, 15
2, 121704, Note_on_c, 0, 78, 0
2, 121764, Control_c, 0, 64, 13
2, 121783, Control_c, 0, 64, 11
2, 121802, Control_c, 0, 64, 9
2, 121841, Control_c, 0, 64, 0
2, 121869, Note_on_c, 0, 78, 77
2, 122006, Note_on_c, 0, 80, 0
2, 122053, Note_on_c, 0, 77, 73
2, 122107, Note_on_c, 0, 78, 0
2, 122263, Control_c, 0, 64, 22
2, 122282, Control_c, 0, 64, 49
2, 122282, Note_on_c, 0, 78, 78
2, 122302, Control_c, 0, 64, 59
2, 122321, Control_c, 0, 64, 62
2, 122340, Control_c, 0, 64, 64
2, 122359, Control_c, 0, 64, 65
2, 122368, Note_on_c, 0, 77, 0
2, 122379, Control_c, 0, 64, 66
2, 122398, Control_c, 0, 64, 68
2, 122418, Control_c, 0, 64, 72
2, 122426, Note_on_c, 0, 51, 0
2, 122429, Note_on_c, 0, 54, 0
2, 122437, Control_c, 0, 64, 76
2, 122457, Control_c, 0, 64, 79
2, 122475, Control_c, 0, 64, 81
2, 122494, Note_on_c, 0, 58, 0
2, 122523, Note_on_c, 0, 75, 73
2, 122591, Control_c, 0, 64, 81
2, 122609, Control_c, 0, 64, 80
2, 122614, Note_on_c, 0, 78, 0
2, 122629, Control_c, 0, 64, 79
2, 122638, Note_on_c, 0, 75, 0
2, 122648, Control_c, 0, 64, 79
2, 122667, Control_c, 0, 64, 78
2, 122706, Control_c, 0, 64, 78
2, 122708, Note_on_c, 0, 44, 46
2, 122729, Note_on_c, 0, 47, 54
2, 122783, Control_c, 0, 64, 77
2, 122801, Control_c, 0, 64, 76
2, 122808, Note_on_c, 0, 52, 44
2, 122821, Control_c, 0, 64, 76
2, 122840, Control_c, 0, 64, 75
2, 122870, Note_on_c, 0, 56, 50
2, 122890, Note_on_c, 0, 64, 57
2, 122917, Control_c, 0, 64, 75
2, 122931, Note_on_c, 0, 68, 64
2, 122955, Control_c, 0, 64, 74
2, 123007, Note_on_c, 0, 71, 65
2, 123089, Control_c, 0, 64, 73
2, 123093, Note_on_c, 0, 76, 82
2, 123109, Control_c, 0, 64, 70
2, 123128, Control_c, 0, 64, 66
2, 123147, Control_c, 0, 64, 62
2, 123166, Control_c, 0, 64, 55
2, 123186, Control_c, 0, 64, 44
2, 123205, Control_c, 0, 64, 20
2, 123224, Control_c, 0, 64, 0
2, 123320, Control_c, 0, 64, 15
2, 123340, Control_c, 0, 64, 41
2, 123358, Control_c, 0, 64, 52
2, 123378, Control_c, 0, 64, 58
2, 123397, Control_c, 0, 64, 60
2, 123417, Control_c, 0, 64, 61
2, 123435, Control_c, 0, 64, 62
2, 123454, Control_c, 0, 64, 62
2, 123474, Control_c, 0, 64, 63
2, 123492, Control_c, 0, 64, 63
2, 123512, Control_c, 0, 64, 64
2, 123531, Control_c, 0, 64, 65
2, 123551, Control_c, 0, 64, 65
2, 123569, Control_c, 0, 64, 66
2, 123589, Control_c, 0, 64, 67
2, 123608, Control_c, 0, 64, 68
2, 123627, Control_c, 0, 64, 70
2, 123646, Control_c, 0, 64, 71
2, 123666, Control_c, 0, 64, 72
2, 123685, Control_c, 0, 64, 74
2, 123704, Control_c, 0, 64, 75
2, 123723, Control_c, 0, 64, 75
2, 123781, Control_c, 0, 64, 76
2, 123800, Control_c, 0, 64, 76
2, 123820, Control_c, 0, 64, 77
2, 123838, Control_c, 0, 64, 77
2, 123858, Control_c, 0, 64, 78
2, 123877, Control_c, 0, 64, 78
2, 123897, Control_c, 0, 64, 79
2, 123929, Note_on_c, 0, 71, 0
2, 123964, Note_on_c, 0, 76, 0
2, 123992, Control_c, 0, 64, 79
2, 124069, Control_c, 0, 64, 80
2, 124088, Control_c, 0, 64, 81
2, 124107, Control_c, 0, 64, 81
2, 124126, Control_c, 0, 64, 82
2, 124146, Control_c, 0, 64, 83
2, 124184, Control_c, 0, 64, 83
2, 124223, Control_c, 0, 64, 84
2, 124259, Control_c, 0, 64, 85
2, 124298, Control_c, 0, 64, 85
2, 124306, Note_on_c, 0, 44, 0
2, 124381, Note_on_c, 0, 47, 0
2, 124425, Note_on_c, 0, 52, 0
2, 124439, Note_on_c, 0, 71, 72
2, 124446, Note_on_c, 0, 56, 0
2, 124529, Note_on_c, 0, 68, 0
2, 124601, Note_on_c, 0, 69, 78
2, 124694, Note_on_c, 0, 64, 0
2, 124758, Control_c, 0, 64, 85
2, 124777, Note_on_c, 0, 71, 0
2, 124778, Control_c, 0, 64, 84
2, 124796, Control_c, 0, 64, 82
2, 124802, Note_on_c, 0, 68, 79
2, 124816, Control_c, 0, 64, 78
2, 124835, Control_c, 0, 64, 72
2, 124854, Control_c, 0, 64, 66
2, 124868, Note_on_c, 0, 69, 0
2, 124873, Control_c, 0, 64, 60
2, 124892, Control_c, 0, 64, 55
2, 124912, Control_c, 0, 64, 51
2, 124931, Control_c, 0, 64, 48
2, 124950, Control_c, 0, 64, 46
2, 124969, Control_c, 0, 64, 45
2, 124989, Control_c, 0, 64, 45
2, 125219, Control_c, 0, 64, 45
2, 125392, Control_c, 0, 64, 46
2, 125430, Control_c, 0, 64, 46
2, 125718, Control_c, 0, 64, 46
2, 125756, Control_c, 0, 64, 45
2, 126031, Note_on_c, 0, 69, 66
2, 126121, Control_c, 0, 64, 44
2, 126161, Control_c, 0, 64, 44
2, 126212, Note_on_c, 0, 71, 70
2, 126235, Control_c, 0, 64, 43
2, 126250, Note_on_c, 0, 68, 0
2, 126273, Control_c, 0, 64, 43
2, 126311, Control_c, 0, 64, 42
2, 126350, Control_c, 0, 64, 41
2, 126369, Control_c, 0, 64, 40
2, 126385, Note_on_c, 0, 69, 0
2, 126388, Control_c, 0, 64, 39
2, 126422, Note_on_c, 0, 64, 72
2, 126427, Control_c, 0, 64, 37
2, 126446, Control_c, 0, 64, 36
2, 126456, Note_on_c, 0, 71, 0
2, 126465, Control_c, 0, 64, 34
2, 126484, Control_c, 0, 64, 30
2, 126504, Control_c, 0, 64, 27
2, 126522, Control_c, 0, 64, 25
2, 126542, Control_c, 0, 64, 23
2, 126561, Control_c, 0, 64, 20
2, 126581, Control_c, 0, 64, 13
2, 126599, Control_c, 0, 64, 0
2, 127061, Control_c, 0, 64, 21
2, 127079, Control_c, 0, 64, 32
2, 127099, Control_c, 0, 64, 41
2, 127120, Control_c, 0, 64, 49
2, 127139, Control_c, 0, 64, 55
2, 127158, Control_c, 0, 64, 59
2, 127178, Control_c, 0, 64, 61
2, 127197, Control_c, 0, 64, 63
2, 127217, Control_c, 0, 64, 64
2, 127236, Control_c, 0, 64, 65
2, 127255, Control_c, 0, 64, 66
2, 127274, Control_c, 0, 64, 67
2, 127293, Control_c, 0, 64, 69
2, 127313, Control_c, 0, 64, 70
2, 127331, Control_c, 0, 64, 72
2, 127351, Control_c, 0, 64, 73
2, 127370, Control_c, 0, 64, 74
2, 127390, Control_c, 0, 64, 75
2, 127408, Control_c, 0, 64, 76
2, 127428, Control_c, 0, 64, 77
2, 127447, Control_c, 0, 64, 78
2, 127466, Control_c, 0, 64, 80
2, 127485, Control_c, 0, 64, 80
2, 127505, Control_c, 0, 64, 81
2, 127524, Control_c, 0, 64, 81
2, 127543, Control_c, 0, 64, 82
2, 127562, Control_c, 0, 64, 83
2, 127582, Control_c, 0, 64, 84
2, 127735, Control_c, 0, 64, 83
2, 127770, Note_on_c, 0, 66, 57
2, 127773, Control_c, 0, 64, 83
2, 127831, Control_c, 0, 64, 82
2, 127854, Note_on_c, 0, 64, 0
2, 127870, Control_c, 0, 64, 82
2, 127888, Control_c, 0, 64, 81
2, 127908, Control_c, 0, 64, 81
2, 127927, Control_c, 0, 64, 80
2, 127946, Control_c, 0, 64, 79
2, 127960, Note_on_c, 0, 68, 60
2, 127965, Control_c, 0, 64, 78
2, 127985, Control_c, 0, 64, 78
2, 128004, Control_c, 0, 64, 77
2, 128019, Note_on_c, 0, 66, 0
2, 128023, Control_c, 0, 64, 76
2, 128042, Control_c, 0, 64, 75
2, 128062, Control_c, 0, 64, 74
2, 128081, Control_c, 0, 64, 73
2, 128100, Control_c, 0, 64, 72
2, 128119, Control_c, 0, 64, 71
2, 128139, Control_c, 0, 64, 69
2, 128157, Control_c, 0, 64, 67
2, 128177, Control_c, 0, 64, 65
2, 128185, Note_on_c, 0, 62, 49
2, 128196, Control_c, 0, 64, 63
2, 128198, Note_on_c, 0, 44, 32
2, 128198, Note_on_c, 0, 58, 34
2, 128202, Note_on_c, 0, 68, 0
2, 128215, Control_c, 0, 64, 61
2, 128218, Note_on_c, 0, 53, 21
2, 128234, Control_c, 0, 64, 58
2, 128253, Control_c, 0, 64, 54
2, 128273, Control_c, 0, 64, 48
2, 128291, Control_c, 0, 64, 39
2, 128311, Control_c, 0, 64, 27
2, 128330, Control_c, 0, 64, 11
2, 128350, Control_c, 0, 64, 0
2, 128465, Control_c, 0, 64, 18
2, 128484, Control_c, 0, 64, 31
2, 128503, Control_c, 0, 64, 44
2, 128522, Control_c, 0, 64, 53
2, 128542, Control_c, 0, 64, 58
2, 128561, Control_c, 0, 64, 60
2, 128580, Control_c, 0, 64, 61
2, 128599, Control_c, 0, 64, 62
2, 128619, Control_c, 0, 64, 63
2, 128637, Control_c, 0, 64, 64
2, 128657, Control_c, 0, 64, 65
2, 128676, Control_c, 0, 64, 66
2, 128695, Control_c, 0, 64, 66
2, 128714, Control_c, 0, 64, 67
2, 128733, Control_c, 0, 64, 67
2, 128753, Control_c, 0, 64, 68
2, 128771, Control_c, 0, 64, 69
2, 128791, Control_c, 0, 64, 70
2, 128810, Control_c, 0, 64, 70
2, 128830, Control_c, 0, 64, 71
2, 128848, Control_c, 0, 64, 72
2, 128868, Control_c, 0, 64, 73
2, 128906, Control_c, 0, 64, 74
2, 128925, Control_c, 0, 64, 74
2, 128945, Control_c, 0, 64, 75
2, 128964, Control_c, 0, 64, 76
2, 128983, Control_c, 0, 64, 78
2, 129002, Control_c, 0, 64, 79
2, 129022, Control_c, 0, 64, 79
2, 129060, Control_c, 0, 64, 80
2, 129079, Control_c, 0, 64, 80
2, 129099, Control_c, 0, 64, 81
2, 129117, Control_c, 0, 64, 82
2, 129137, Control_c, 0, 64, 83
2, 129156, Control_c, 0, 64, 84
2, 129175, Control_c, 0, 64, 84
2, 129213, Control_c, 0, 64, 85
2, 129233, Control_c, 0, 64, 86
2, 129251, Control_c, 0, 64, 86
2, 129271, Control_c, 0, 64, 87
2, 129290, Control_c, 0, 64, 87
2, 129310, Control_c, 0, 64, 88
2, 129405, Control_c, 0, 64, 88
2, 129485, Note_on_c, 0, 65, 44
2, 129502, Control_c, 0, 64, 88
2, 129521, Note_on_c, 0, 44, 0
2, 129533, Note_on_c, 0, 62, 0
2, 129540, Control_c, 0, 64, 87
2, 129559, Control_c, 0, 64, 87
2, 129579, Control_c, 0, 64, 86
2, 129597, Control_c, 0, 64, 86
2, 129617, Control_c, 0, 64, 85
2, 129636, Control_c, 0, 64, 84
2, 129644, Note_on_c, 0, 68, 57
2, 129654, Note_on_c, 0, 58, 0
2, 129655, Control_c, 0, 64, 83
2, 129657, Note_on_c, 0, 65, 0
2, 129674, Control_c, 0, 64, 82
2, 129693, Control_c, 0, 64, 81
2, 129713, Control_c, 0, 64, 79
2, 129716, Note_on_c, 0, 53, 0
2, 129731, Control_c, 0, 64, 78
2, 129751, Control_c, 0, 64, 77
2, 129770, Control_c, 0, 64, 76
2, 129790, Control_c, 0, 64, 75
2, 129808, Control_c, 0, 64, 73
2, 129828, Control_c, 0, 64, 72
2, 129847, Control_c, 0, 64, 68
2, 129861, Note_on_c, 0, 71, 57
2, 129866, Control_c, 0, 64, 65
2, 129871, Note_on_c, 0, 68, 0
2, 129885, Control_c, 0, 64, 63
2, 129905, Control_c, 0, 64, 61
2, 129924, Control_c, 0, 64, 59
2, 129943, Control_c, 0, 64, 58
2, 129962, Control_c, 0, 64, 56
2, 129982, Control_c, 0, 64, 53
2, 130001, Control_c, 0, 64, 51
2, 130020, Control_c, 0, 64, 50
2, 130059, Control_c, 0, 64, 50
2, 130077, Control_c, 0, 64, 49
2, 130097, Control_c, 0, 64, 49
2, 130116, Control_c, 0, 64, 48
2, 130193, Control_c, 0, 64, 48
2, 130231, Control_c, 0, 64, 48
2, 130250, Control_c, 0, 64, 49
2, 130288, Control_c, 0, 64, 49
2, 130596, Control_c, 0, 64, 50
2, 130788, Control_c, 0, 64, 50
2, 130884, Control_c, 0, 64, 51
2, 131020, Note_on_c, 0, 70, 66
2, 131090, Note_on_c, 0, 71, 0
2, 131172, Control_c, 0, 64, 50
2, 131205, Note_on_c, 0, 68, 73
2, 131211, Control_c, 0, 64, 50
2, 131225, Note_on_c, 0, 70, 0
2, 131231, Control_c, 0, 64, 49
2, 131249, Control_c, 0, 64, 49
2, 131288, Control_c, 0, 64, 48
2, 131326, Control_c, 0, 64, 48
2, 131365, Control_c, 0, 64, 47
2, 131384, Control_c, 0, 64, 46
2, 131403, Control_c, 0, 64, 45
2, 131413, Note_on_c, 0, 77, 74
2, 131423, Control_c, 0, 64, 44
2, 131426, Note_on_c, 0, 68, 0
2, 131441, Control_c, 0, 64, 43
2, 131461, Control_c, 0, 64, 42
2, 131480, Control_c, 0, 64, 41
2, 131500, Control_c, 0, 64, 40
2, 131614, Control_c, 0, 64, 41
2, 131652, Control_c, 0, 64, 42
2, 131711, Control_c, 0, 64, 42
2, 131729, Control_c, 0, 64, 43
2, 131749, Control_c, 0, 64, 43
2, 131768, Control_c, 0, 64, 44
2, 131806, Control_c, 0, 64, 44
2, 131826, Control_c, 0, 64, 45
2, 131845, Control_c, 0, 64, 46
2, 131864, Control_c, 0, 64, 46
2, 131883, Control_c, 0, 64, 47
2, 131921, Control_c, 0, 64, 47
2, 131960, Control_c, 0, 64, 48
2, 131980, Control_c, 0, 64, 48
2, 131998, Control_c, 0, 64, 49
2, 132037, Control_c, 0, 64, 49
2, 132056, Control_c, 0, 64, 50
2, 132132, Control_c, 0, 64, 50
2, 132421, Control_c, 0, 64, 51
2, 132478, Control_c, 0, 64, 51
2, 132587, Note_on_c, 0, 75, 77
2, 132671, Note_on_c, 0, 77, 0
2, 132775, Note_on_c, 0, 74, 76
2, 132838, Note_on_c, 0, 75, 0
2, 132995, Control_c, 0, 64, 51
2, 133014, Control_c, 0, 64, 50
2, 133032, Note_on_c, 0, 83, 85
2, 133033, Control_c, 0, 64, 50
2, 133052, Control_c, 0, 64, 49
2, 133072, Control_c, 0, 64, 48
2, 133091, Control_c, 0, 64, 47
2, 133094, Note_on_c, 0, 74, 0
2, 133110, Control_c, 0, 64, 46
2, 133129, Control_c, 0, 64, 46
2, 133552, Control_c, 0, 64, 45
2, 133571, Control_c, 0, 64, 44
2, 133590, Control_c, 0, 64, 43
2, 133609, Control_c, 0, 64, 42
2, 133629, Control_c, 0, 64, 41
2, 133636, Note_on_c, 0, 81, 77
2, 133647, Control_c, 0, 64, 40
2, 133667, Control_c, 0, 64, 38
2, 133686, Control_c, 0, 64, 34
2, 133706, Control_c, 0, 64, 27
2, 133724, Control_c, 0, 64, 19
2, 133742, Note_on_c, 0, 83, 0
2, 133744, Control_c, 0, 64, 0
2, 133955, Control_c, 0, 64, 17
2, 133974, Control_c, 0, 64, 29
2, 133993, Control_c, 0, 64, 41
2, 134012, Control_c, 0, 64, 52
2, 134032, Control_c, 0, 64, 58
2, 134051, Control_c, 0, 64, 60
2, 134070, Control_c, 0, 64, 62
2, 134089, Control_c, 0, 64, 64
2, 134109, Control_c, 0, 64, 65
2, 134127, Control_c, 0, 64, 68
2, 134147, Control_c, 0, 64, 71
2, 134166, Control_c, 0, 64, 75
2, 134186, Control_c, 0, 64, 80
2, 134204, Control_c, 0, 64, 85
2, 134224, Control_c, 0, 64, 90
2, 134243, Control_c, 0, 64, 94
2, 134262, Control_c, 0, 64, 97
2, 134281, Control_c, 0, 64, 100
2, 134301, Control_c, 0, 64, 104
2, 134320, Control_c, 0, 64, 109
2, 134339, Control_c, 0, 64, 116
2, 134358, Control_c, 0, 64, 127
2, 134572, Note_on_c, 0, 82, 79
2, 134680, Note_on_c, 0, 81, 0
2, 134719, Note_on_c, 0, 46, 63
2, 134760, Note_on_c, 0, 82, 0
2, 134832, Note_on_c, 0, 51, 63
2, 134905, Note_on_c, 0, 54, 69
2, 134969, Note_on_c, 0, 58, 56
2, 135043, Note_on_c, 0, 66, 69
2, 135091, Note_on_c, 0, 70, 74
2, 135174, Note_on_c, 0, 75, 89
2, 135183, Control_c, 0, 64, 106
2, 135202, Control_c, 0, 64, 72
2, 135222, Control_c, 0, 64, 58
2, 135240, Control_c, 0, 64, 0
2, 135336, Control_c, 0, 64, 15
2, 135356, Control_c, 0, 64, 50
2, 135374, Control_c, 0, 64, 61
2, 135394, Control_c, 0, 64, 64
2, 135413, Control_c, 0, 64, 67
2, 135432, Control_c, 0, 64, 70
2, 135451, Control_c, 0, 64, 74
2, 135471, Control_c, 0, 64, 78
2, 135490, Control_c, 0, 64, 81
2, 135509, Control_c, 0, 64, 82
2, 135528, Control_c, 0, 64, 82
2, 135548, Control_c, 0, 64, 83
2, 135566, Control_c, 0, 64, 86
2, 135581, Note_on_c, 0, 46, 0
2, 135586, Control_c, 0, 64, 90
2, 135605, Control_c, 0, 64, 95
2, 135624, Note_on_c, 0, 58, 0
2, 135625, Control_c, 0, 64, 102
2, 135643, Control_c, 0, 64, 107
2, 135663, Control_c, 0, 64, 113
2, 135682, Control_c, 0, 64, 121
2, 135702, Control_c, 0, 64, 127
2, 135747, Note_on_c, 0, 54, 0
2, 135784, Note_on_c, 0, 51, 0
2, 136543, Note_on_c, 0, 46, 52
2, 136628, Note_on_c, 0, 53, 62
2, 136636, Note_on_c, 0, 66, 0
2, 136686, Note_on_c, 0, 56, 65
2, 136721, Note_on_c, 0, 75, 0
2, 136736, Note_on_c, 0, 58, 58
2, 136739, Note_on_c, 0, 70, 0
2, 136766, Note_on_c, 0, 65, 63
2, 136871, Note_on_c, 0, 70, 85
2, 136886, Note_on_c, 0, 65, 0
2, 136893, Control_c, 0, 64, 91
2, 136913, Control_c, 0, 64, 69
2, 136931, Control_c, 0, 64, 50
2, 136951, Control_c, 0, 64, 0
2, 136979, Note_on_c, 0, 75, 83
2, 137067, Control_c, 0, 64, 41
2, 137071, Note_on_c, 0, 70, 0
2, 137085, Control_c, 0, 64, 57
2, 137105, Control_c, 0, 64, 62
2, 137124, Control_c, 0, 64, 63
2, 137143, Control_c, 0, 64, 64
2, 137162, Control_c, 0, 64, 65
2, 137182, Control_c, 0, 64, 66
2, 137201, Control_c, 0, 64, 67
2, 137220, Control_c, 0, 64, 69
2, 137225, Note_on_c, 0, 74, 78
2, 137225, Note_on_c, 0, 75, 0
2, 137239, Control_c, 0, 64, 71
2, 137259, Control_c, 0, 64, 73
2, 137277, Control_c, 0, 64, 76
2, 137296, Control_c, 0, 64, 77
2, 137316, Control_c, 0, 64, 78
2, 137321, Note_on_c, 0, 74, 0
2, 137357, Note_on_c, 0, 75, 75
2, 137393, Control_c, 0, 64, 77
2, 137411, Control_c, 0, 64, 77
2, 137427, Note_on_c, 0, 75, 0
2, 137431, Control_c, 0, 64, 76
2, 137443, Note_on_c, 0, 74, 78
2, 137450, Control_c, 0, 64, 76
2, 137488, Control_c, 0, 64, 75
2, 137502, Note_on_c, 0, 74, 0
2, 137508, Control_c, 0, 64, 75
2, 137537, Note_on_c, 0, 75, 60
2, 137547, Control_c, 0, 64, 74
2, 137561, Note_on_c, 0, 75, 0
2, 137565, Control_c, 0, 64, 74
2, 137585, Control_c, 0, 64, 73
2, 137594, Note_on_c, 0, 74, 69
2, 137604, Control_c, 0, 64, 73
2, 137623, Control_c, 0, 64, 72
2, 137639, Note_on_c, 0, 74, 0
2, 137642, Control_c, 0, 64, 72
2, 137651, Note_on_c, 0, 75, 74
2, 137681, Control_c, 0, 64, 71
2, 137683, Note_on_c, 0, 75, 0
2, 137700, Control_c, 0, 64, 71
2, 137709, Note_on_c, 0, 74, 70
2, 137719, Control_c, 0, 64, 70
2, 137739, Control_c, 0, 64, 69
2, 137752, Note_on_c, 0, 74, 0
2, 137757, Control_c, 0, 64, 68
2, 137776, Control_c, 0, 64, 66
2, 137782, Note_on_c, 0, 75, 79
2, 137796, Control_c, 0, 64, 65
2, 137815, Control_c, 0, 64, 63
2, 137834, Control_c, 0, 64, 61
2, 137853, Control_c, 0, 64, 57
2, 137855, Note_on_c, 0, 74, 82
2, 137855, Note_on_c, 0, 75, 0
2, 137873, Control_c, 0, 64, 51
2, 137891, Control_c, 0, 64, 39
2, 137911, Control_c, 0, 64, 20
2, 137930, Control_c, 0, 64, 0
2, 138122, Control_c, 0, 64, 20
2, 138142, Control_c, 0, 64, 49
2, 138161, Control_c, 0, 64, 59
2, 138180, Control_c, 0, 64, 62
2, 138199, Control_c, 0, 64, 63
2, 138219, Control_c, 0, 64, 64
2, 138237, Control_c, 0, 64, 66
2, 138240, Note_on_c, 0, 46, 0
2, 138256, Control_c, 0, 64, 69
2, 138276, Control_c, 0, 64, 72
2, 138292, Note_on_c, 0, 58, 0
2, 138295, Control_c, 0, 64, 76
2, 138314, Control_c, 0, 64, 81
2, 138333, Control_c, 0, 64, 86
2, 138353, Control_c, 0, 64, 88
2, 138371, Control_c, 0, 64, 90
2, 138389, Note_on_c, 0, 53, 0
2, 138391, Control_c, 0, 64, 90
2, 138393, Note_on_c, 0, 56, 0
2, 138410, Control_c, 0, 64, 91
2, 138430, Control_c, 0, 64, 93
2, 138448, Control_c, 0, 64, 94
2, 138468, Control_c, 0, 64, 95
2, 138487, Control_c, 0, 64, 96
2, 138507, Control_c, 0, 64, 97
2, 138525, Control_c, 0, 64, 98
2, 138545, Control_c, 0, 64, 101
2, 138564, Control_c, 0, 64, 104
2, 138583, Control_c, 0, 64, 110
2, 138602, Control_c, 0, 64, 117
2, 138622, Control_c, 0, 64, 127
2, 138761, Note_on_c, 0, 74, 0
2, 138877, Note_on_c, 0, 75, 78
2, 139197, Note_on_c, 0, 75, 0
2, 139573, Note_on_c, 0, 75, 78
2, 139587, Note_on_c, 0, 63, 60
2, 139591, Note_on_c, 0, 70, 70
2, 139599, Note_on_c, 0, 59, 59
2, 139605, Note_on_c, 0, 47, 56
2, 139637, Control_c, 0, 64, 91
2, 139656, Control_c, 0, 64, 68
2, 139675, Control_c, 0, 64, 53
2, 139693, Control_c, 0, 64, 36
2, 139713, Control_c, 0, 64, 28
2, 139732, Control_c, 0, 64, 30
2, 139751, Control_c, 0, 64, 46
2, 139770, Control_c, 0, 64, 57
2, 139790, Control_c, 0, 64, 62
2, 139809, Control_c, 0, 64, 65
2, 139828, Control_c, 0, 64, 67
2, 139847, Control_c, 0, 64, 69
2, 139867, Control_c, 0, 64, 71
2, 139886, Control_c, 0, 64, 73
2, 139905, Control_c, 0, 64, 75
2, 139924, Control_c, 0, 64, 76
2, 139944, Control_c, 0, 64, 77
2, 139962, Control_c, 0, 64, 78
2, 139982, Control_c, 0, 64, 80
2, 140001, Control_c, 0, 64, 84
2, 140021, Control_c, 0, 64, 89
2, 140039, Control_c, 0, 64, 95
2, 140059, Control_c, 0, 64, 101
2, 140078, Control_c, 0, 64, 108
2, 140096, Control_c, 0, 64, 113
2, 140116, Control_c, 0, 64, 116
2, 140135, Control_c, 0, 64, 118
2, 140155, Control_c, 0, 64, 127
2, 140356, Note_on_c, 0, 47, 0
2, 140360, Note_on_c, 0, 59, 0
2, 140612, Note_on_c, 0, 63, 0
2, 141287, Note_on_c, 0, 68, 41
2, 141358, Note_on_c, 0, 70, 0
2, 141454, Note_on_c, 0, 68, 0
2, 141528, Note_on_c, 0, 67, 39
2, 141674, Note_on_c, 0, 67, 0
2, 141751, Note_on_c, 0, 68, 31
2, 141807, Control_c, 0, 64, 98
2, 141827, Control_c, 0, 64, 85
2, 141846, Control_c, 0, 64, 76
2, 141846, Control_c, 0, 67, 17
2, 141866, Control_c, 0, 64, 70
2, 141866, Control_c, 0, 67, 33
2, 141875, Note_on_c, 0, 59, 24
2, 141878, Note_on_c, 0, 63, 16
2, 141884, Control_c, 0, 64, 66
2, 141884, Control_c, 0, 67, 56
2, 141904, Control_c, 0, 64, 64
2, 141904, Control_c, 0, 67, 97
2, 141923, Control_c, 0, 64, 62
2, 141923, Control_c, 0, 67, 127
2, 141942, Control_c, 0, 64, 60
2, 141961, Control_c, 0, 64, 56
2, 141964, Note_on_c, 0, 68, 0
2, 141981, Control_c, 0, 64, 54
2, 142000, Control_c, 0, 64, 52
2, 142021, Note_on_c, 0, 70, 30
2, 142038, Control_c, 0, 64, 53
2, 142057, Control_c, 0, 64, 55
2, 142076, Control_c, 0, 64, 58
2, 142095, Control_c, 0, 64, 60
2, 142115, Control_c, 0, 64, 61
2, 142134, Control_c, 0, 64, 63
2, 142153, Control_c, 0, 64, 64
2, 142172, Control_c, 0, 64, 65
2, 142186, Note_on_c, 0, 70, 0
2, 142192, Control_c, 0, 64, 66
2, 142211, Control_c, 0, 64, 68
2, 142230, Control_c, 0, 64, 70
2, 142249, Control_c, 0, 64, 72
2, 142261, Note_on_c, 0, 68, 36
2, 142269, Control_c, 0, 64, 74
2, 142287, Control_c, 0, 64, 77
2, 142307, Control_c, 0, 64, 79
2, 142323, Note_on_c, 0, 68, 0
2, 142326, Control_c, 0, 64, 80
2, 142346, Control_c, 0, 64, 82
2, 142364, Control_c, 0, 64, 83
2, 142382, Note_on_c, 0, 70, 41
2, 142403, Control_c, 0, 64, 84
2, 142441, Control_c, 0, 64, 84
2, 142457, Note_on_c, 0, 70, 0
2, 142503, Note_on_c, 0, 68, 36
2, 142552, Note_on_c, 0, 68, 0
2, 142602, Note_on_c, 0, 63, 0
2, 142613, Control_c, 0, 64, 85
2, 142613, Note_on_c, 0, 70, 44
2, 142650, Note_on_c, 0, 70, 0
2, 142686, Note_on_c, 0, 68, 51
2, 142727, Note_on_c, 0, 68, 0
2, 142780, Note_on_c, 0, 59, 0
2, 142790, Note_on_c, 0, 70, 33
2, 142841, Note_on_c, 0, 70, 0
2, 142856, Note_on_c, 0, 68, 49
2, 142890, Note_on_c, 0, 68, 0
2, 142902, Control_c, 0, 64, 84
2, 142928, Note_on_c, 0, 70, 41
2, 142940, Control_c, 0, 64, 84
2, 142977, Control_c, 0, 64, 83
2, 142977, Note_on_c, 0, 70, 0
2, 143007, Note_on_c, 0, 68, 46
2, 143050, Note_on_c, 0, 68, 0
2, 143083, Note_on_c, 0, 70, 48
2, 143093, Control_c, 0, 64, 83
2, 143123, Note_on_c, 0, 70, 0
2, 143131, Control_c, 0, 64, 82
2, 143151, Control_c, 0, 64, 82
2, 143165, Note_on_c, 0, 68, 54
2, 143208, Control_c, 0, 64, 81
2, 143209, Note_on_c, 0, 68, 0
2, 143246, Control_c, 0, 64, 81
2, 143250, Note_on_c, 0, 70, 50
2, 143285, Control_c, 0, 64, 80
2, 143305, Control_c, 0, 64, 80
2, 143306, Note_on_c, 0, 70, 0
2, 143323, Control_c, 0, 64, 79
2, 143336, Note_on_c, 0, 68, 46
2, 143343, Control_c, 0, 64, 78
2, 143362, Control_c, 0, 64, 78
2, 143376, Note_on_c, 0, 68, 0
2, 143382, Control_c, 0, 64, 77
2, 143400, Control_c, 0, 64, 77
2, 143413, Note_on_c, 0, 70, 27
2, 143420, Control_c, 0, 64, 76
2, 143441, Control_c, 0, 64, 75
2, 143461, Control_c, 0, 64, 74
2, 143471, Note_on_c, 0, 70, 0
2, 143480, Control_c, 0, 64, 74
2, 143500, Control_c, 0, 64, 72
2, 143508, Note_on_c, 0, 68, 38
2, 143518, Control_c, 0, 64, 70
2, 143522, Note_on_c, 0, 63, 26
2, 143537, Control_c, 0, 64, 68
2, 143546, Note_on_c, 0, 68, 0
2, 143550, Note_on_c, 0, 59, 37
2, 143557, Control_c, 0, 64, 65
2, 143576, Control_c, 0, 64, 63
2, 143577, Note_on_c, 0, 70, 40
2, 143595, Control_c, 0, 64, 60
2, 143614, Control_c, 0, 64, 57
2, 143626, Note_on_c, 0, 70, 0
2, 143634, Control_c, 0, 64, 51
2, 143652, Control_c, 0, 64, 43
2, 143671, Note_on_c, 0, 68, 37
2, 143672, Control_c, 0, 64, 32
2, 143691, Control_c, 0, 64, 19
2, 143711, Control_c, 0, 64, 15
2, 143712, Note_on_c, 0, 68, 0
2, 143749, Control_c, 0, 64, 22
2, 143750, Note_on_c, 0, 70, 28
2, 143768, Control_c, 0, 64, 31
2, 143787, Control_c, 0, 64, 40
2, 143802, Note_on_c, 0, 70, 0
2, 143806, Control_c, 0, 64, 49
2, 143823, Note_on_c, 0, 68, 37
2, 143826, Control_c, 0, 64, 55
2, 143845, Control_c, 0, 64, 59
2, 143864, Control_c, 0, 64, 61
2, 143866, Note_on_c, 0, 68, 0
2, 143883, Control_c, 0, 64, 62
2, 143902, Note_on_c, 0, 70, 22
2, 143903, Control_c, 0, 64, 63
2, 143921, Control_c, 0, 64, 64
2, 143941, Control_c, 0, 64, 65
2, 143960, Control_c, 0, 64, 65
2, 143962, Note_on_c, 0, 70, 0
2, 143980, Control_c, 0, 64, 66
2, 143998, Control_c, 0, 64, 66
2, 144002, Note_on_c, 0, 68, 25
2, 144017, Control_c, 0, 64, 67
2, 144037, Control_c, 0, 64, 68
2, 144055, Note_on_c, 0, 68, 0
2, 144056, Control_c, 0, 64, 69
2, 144064, Note_on_c, 0, 70, 27
2, 144075, Control_c, 0, 64, 70
2, 144094, Control_c, 0, 64, 72
2, 144114, Control_c, 0, 64, 73
2, 144123, Note_on_c, 0, 70, 0
2, 144147, Note_on_c, 0, 68, 25
2, 144171, Control_c, 0, 64, 73
2, 144194, Note_on_c, 0, 68, 0
2, 144214, Note_on_c, 0, 70, 38
2, 144229, Control_c, 0, 64, 74
2, 144267, Control_c, 0, 64, 74
2, 144278, Note_on_c, 0, 70, 0
2, 144328, Note_on_c, 0, 68, 34
2, 144346, Note_on_c, 0, 59, 0
2, 144346, Note_on_c, 0, 63, 0
2, 144373, Note_on_c, 0, 68, 0
2, 144388, Control_c, 0, 64, 75
2, 144476, Control_c, 0, 64, 75
2, 144686, Note_on_c, 0, 75, 0
2, 144726, Control_c, 0, 64, 75
2, 144750, Note_on_c, 0, 67, 40
2, 144822, Control_c, 0, 64, 74
2, 144847, Note_on_c, 0, 67, 0
2, 144883, Note_on_c, 0, 68, 35
2, 144918, Control_c, 0, 64, 74
2, 144975, Control_c, 0, 64, 73
2, 144995, Control_c, 0, 64, 73
2, 145014, Control_c, 0, 64, 72
2, 145040, Note_on_c, 0, 55, 15
2, 145052, Control_c, 0, 64, 71
2, 145072, Control_c, 0, 64, 71
2, 145091, Control_c, 0, 64, 70
2, 145109, Note_on_c, 0, 58, 8
2, 145110, Control_c, 0, 64, 68
2, 145129, Control_c, 0, 64, 67
2, 145145, Note_on_c, 0, 63, 30
2, 145149, Control_c, 0, 64, 65
2, 145162, Note_on_c, 0, 70, 38
2, 145167, Control_c, 0, 64, 63
2, 145176, Note_on_c, 0, 68, 0
2, 145187, Control_c, 0, 64, 61
2, 145206, Control_c, 0, 64, 58
2, 145226, Control_c, 0, 64, 52
2, 145244, Control_c, 0, 64, 43
2, 145264, Control_c, 0, 64, 32
2, 145283, Control_c, 0, 64, 21
2, 145302, Control_c, 0, 64, 17
2, 145378, Control_c, 0, 64, 21
2, 145398, Control_c, 0, 64, 30
2, 145417, Control_c, 0, 64, 38
2, 145436, Control_c, 0, 64, 46
2, 145436, Control_c, 0, 67, 127
2, 145455, Control_c, 0, 64, 52
2, 145455, Control_c, 0, 67, 125
2, 145475, Control_c, 0, 64, 55
2, 145475, Control_c, 0, 67, 124
2, 145494, Control_c, 0, 64, 58
2, 145494, Control_c, 0, 67, 123
2, 145513, Control_c, 0, 64, 60
2, 145513, Control_c, 0, 67, 123
2, 145532, Control_c, 0, 64, 61
2, 145552, Control_c, 0, 64, 63
2, 145552, Control_c, 0, 67, 122
2, 145571, Control_c, 0, 64, 63
2, 145571, Control_c, 0, 67, 122
2, 145590, Control_c, 0, 64, 64
2, 145590, Control_c, 0, 67, 121
2, 145609, Control_c, 0, 64, 65
2, 145609, Control_c, 0, 67, 120
2, 145629, Control_c, 0, 64, 66
2, 145629, Control_c, 0, 67, 118
2, 145647, Control_c, 0, 64, 66
2, 145647, Control_c, 0, 67, 117
2, 145667, Control_c, 0, 64, 67
2, 145667, Control_c, 0, 67, 116
2, 145686, Control_c, 0, 64, 68
2, 145686, Control_c, 0, 67, 115
2, 145706, Control_c, 0, 64, 69
2, 145706, Control_c, 0, 67, 114
2, 145724, Control_c, 0, 64, 70
2, 145724, Control_c, 0, 67, 113
2, 145744, Control_c, 0, 64, 71
2, 145744, Control_c, 0, 67, 113
2, 145763, Control_c, 0, 64, 73
2, 145763, Control_c, 0, 67, 111
2, 145782, Control_c, 0, 64, 74
2, 145782, Control_c, 0, 67, 108
2, 145801, Control_c, 0, 64, 75
2, 145801, Control_c, 0, 67, 104
2, 145821, Control_c, 0, 67, 101
2, 145840, Control_c, 0, 67, 96
2, 145858, Control_c, 0, 67, 91
2, 145878, Control_c, 0, 64, 75
2, 145878, Control_c, 0, 67, 85
2, 145897, Control_c, 0, 67, 78
2, 145916, Control_c, 0, 64, 76
2, 145916, Control_c, 0, 67, 71
2, 145927, Note_on_c, 0, 55, 0
2, 145935, Control_c, 0, 67, 64
2, 145955, Control_c, 0, 67, 58
2, 145974, Control_c, 0, 67, 53
2, 145993, Control_c, 0, 67, 49
2, 146007, Note_on_c, 0, 63, 0
2, 146012, Control_c, 0, 67, 46
2, 146028, Note_on_c, 0, 58, 0
2, 146032, Control_c, 0, 67, 44
2, 146051, Control_c, 0, 67, 41
2, 146070, Control_c, 0, 67, 38
2, 146089, Control_c, 0, 67, 34
2, 146109, Control_c, 0, 67, 29
2, 146127, Control_c, 0, 67, 25
2, 146147, Control_c, 0, 67, 22
2, 146166, Control_c, 0, 67, 18
2, 146186, Control_c, 0, 67, 15
2, 146204, Control_c, 0, 67, 12
2, 146224, Control_c, 0, 67, 8
2, 146243, Control_c, 0, 67, 0
2, 146454, Control_c, 0, 64, 75
2, 146569, Control_c, 0, 64, 75
2, 146607, Control_c, 0, 64, 74
2, 146627, Control_c, 0, 64, 74
2, 146646, Control_c, 0, 64, 73
2, 146666, Control_c, 0, 64, 73
2, 146684, Control_c, 0, 64, 72
2, 146704, Control_c, 0, 64, 70
2, 146709, Note_on_c, 0, 55, 10
2, 146723, Control_c, 0, 64, 68
2, 146742, Control_c, 0, 64, 65
2, 146753, Note_on_c, 0, 58, 25
2, 146761, Control_c, 0, 64, 62
2, 146781, Control_c, 0, 64, 58
2, 146800, Control_c, 0, 64, 54
2, 146810, Note_on_c, 0, 63, 31
2, 146818, Control_c, 0, 64, 51
2, 146838, Control_c, 0, 64, 48
2, 146857, Control_c, 0, 64, 47
2, 146895, Control_c, 0, 64, 47
2, 146915, Control_c, 0, 64, 50
2, 146934, Control_c, 0, 64, 53
2, 146953, Control_c, 0, 64, 55
2, 146972, Control_c, 0, 64, 57
2, 146992, Control_c, 0, 64, 59
2, 147011, Control_c, 0, 64, 60
2, 147030, Control_c, 0, 64, 62
2, 147049, Control_c, 0, 64, 63
2, 147069, Control_c, 0, 64, 63
2, 147087, Control_c, 0, 64, 64
2, 147107, Control_c, 0, 64, 65
2, 147126, Control_c, 0, 64, 66
2, 147146, Control_c, 0, 64, 67
2, 147164, Control_c, 0, 64, 68
2, 147184, Control_c, 0, 64, 70
2, 147203, Control_c, 0, 64, 71
2, 147222, Control_c, 0, 64, 72
2, 147241, Control_c, 0, 64, 73
2, 147261, Control_c, 0, 64, 73
2, 147281, Control_c, 0, 64, 74
2, 147300, Control_c, 0, 64, 75
2, 147319, Control_c, 0, 64, 76
2, 147338, Control_c, 0, 64, 77
2, 147356, Control_c, 0, 64, 77
2, 147375, Control_c, 0, 64, 78
2, 147415, Note_on_c, 0, 55, 0
2, 147452, Control_c, 0, 64, 78
2, 147514, Note_on_c, 0, 58, 0
2, 147836, Control_c, 0, 64, 78
2, 147851, Note_on_c, 0, 63, 0
2, 147891, Note_on_c, 0, 70, 0
2, 147912, Note_on_c, 0, 75, 46
2, 147932, Control_c, 0, 64, 77
2, 147990, Control_c, 0, 64, 77
2, 148009, Control_c, 0, 64, 76
2, 148029, Control_c, 0, 64, 76
2, 148047, Control_c, 0, 64, 75
2, 148067, Control_c, 0, 64, 75
2, 148086, Control_c, 0, 64, 74
2, 148093, Note_on_c, 0, 73, 51
2, 148106, Control_c, 0, 64, 74
2, 148122, Note_on_c, 0, 75, 0
2, 148124, Control_c, 0, 64, 73
2, 148182, Control_c, 0, 64, 73
2, 148201, Control_c, 0, 64, 72
2, 148221, Control_c, 0, 64, 72
2, 148237, Control_c, 0, 64, 71
2, 148237, Note_on_c, 0, 73, 0
2, 148256, Control_c, 0, 64, 70
2, 148261, Note_on_c, 0, 71, 56
2, 148275, Control_c, 0, 64, 69
2, 148311, Control_c, 0, 64, 69
2, 148330, Control_c, 0, 64, 68
2, 148346, Note_on_c, 0, 55, 18
2, 148349, Control_c, 0, 64, 67
2, 148368, Control_c, 0, 64, 66
2, 148388, Control_c, 0, 64, 65
2, 148406, Control_c, 0, 64, 64
2, 148426, Control_c, 0, 64, 64
2, 148436, Note_on_c, 0, 58, 17
2, 148445, Control_c, 0, 64, 63
2, 148465, Control_c, 0, 64, 60
2, 148469, Note_on_c, 0, 71, 0
2, 148476, Note_on_c, 0, 73, 56
2, 148483, Control_c, 0, 64, 57
2, 148503, Control_c, 0, 64, 52
2, 148506, Note_on_c, 0, 63, 34
2, 148522, Control_c, 0, 64, 47
2, 148542, Control_c, 0, 64, 43
2, 148560, Control_c, 0, 64, 40
2, 148579, Control_c, 0, 64, 36
2, 148599, Control_c, 0, 64, 32
2, 148617, Control_c, 0, 64, 29
2, 148637, Control_c, 0, 64, 27
2, 148676, Control_c, 0, 64, 28
2, 148694, Control_c, 0, 64, 35
2, 148714, Control_c, 0, 64, 42
2, 148733, Control_c, 0, 64, 51
2, 148752, Control_c, 0, 64, 57
2, 148771, Control_c, 0, 64, 61
2, 148791, Control_c, 0, 64, 62
2, 148810, Control_c, 0, 64, 63
2, 148829, Control_c, 0, 64, 64
2, 148848, Control_c, 0, 64, 65
2, 148868, Control_c, 0, 64, 66
2, 148886, Control_c, 0, 64, 67
2, 148906, Control_c, 0, 64, 67
2, 148925, Control_c, 0, 64, 68
2, 148945, Control_c, 0, 64, 69
2, 148963, Control_c, 0, 64, 70
2, 148983, Control_c, 0, 64, 72
2, 148985, Note_on_c, 0, 58, 0
2, 149002, Control_c, 0, 64, 73
2, 149022, Control_c, 0, 64, 75
2, 149031, Note_on_c, 0, 55, 0
2, 149034, Note_on_c, 0, 63, 0
2, 149040, Control_c, 0, 64, 76
2, 149059, Control_c, 0, 64, 78
2, 149079, Control_c, 0, 64, 78
2, 149117, Control_c, 0, 64, 79
2, 149156, Control_c, 0, 64, 79
2, 149174, Control_c, 0, 64, 80
2, 149200, Control_c, 0, 64, 81
2, 149218, Control_c, 0, 64, 81
2, 149257, Control_c, 0, 64, 82
2, 149293, Control_c, 0, 64, 82
2, 149332, Control_c, 0, 64, 83
2, 149352, Control_c, 0, 64, 84
2, 149370, Control_c, 0, 64, 85
2, 149390, Control_c, 0, 64, 85
2, 149447, Control_c, 0, 64, 86
2, 149486, Control_c, 0, 64, 86
2, 149696, Control_c, 0, 64, 86
2, 149716, Control_c, 0, 64, 85
2, 149755, Control_c, 0, 64, 85
2, 149789, Note_on_c, 0, 70, 39
2, 149793, Control_c, 0, 64, 84
2, 149850, Control_c, 0, 64, 84
2, 149870, Control_c, 0, 64, 83
2, 149889, Control_c, 0, 64, 83
2, 149908, Control_c, 0, 64, 82
2, 149927, Control_c, 0, 64, 81
2, 149931, Note_on_c, 0, 56, 28
2, 149947, Control_c, 0, 64, 80
2, 149966, Control_c, 0, 64, 79
2, 149985, Control_c, 0, 64, 78
2, 150004, Control_c, 0, 64, 78
2, 150024, Control_c, 0, 64, 77
2, 150042, Control_c, 0, 64, 76
2, 150062, Control_c, 0, 64, 76
2, 150081, Control_c, 0, 64, 75
2, 150084, Note_on_c, 0, 59, 27
2, 150101, Control_c, 0, 64, 74
2, 150112, Note_on_c, 0, 63, 22
2, 150119, Control_c, 0, 64, 73
2, 150138, Control_c, 0, 64, 73
2, 150160, Control_c, 0, 64, 71
2, 150174, Note_on_c, 0, 70, 0
2, 150178, Control_c, 0, 64, 70
2, 150188, Note_on_c, 0, 68, 30
2, 150198, Control_c, 0, 64, 68
2, 150217, Control_c, 0, 64, 66
2, 150236, Control_c, 0, 64, 64
2, 150246, Note_on_c, 0, 73, 0
2, 150254, Control_c, 0, 64, 63
2, 150274, Control_c, 0, 64, 61
2, 150288, Note_on_c, 0, 71, 42
2, 150293, Control_c, 0, 64, 59
2, 150312, Control_c, 0, 64, 54
2, 150331, Control_c, 0, 64, 49
2, 150351, Control_c, 0, 64, 42
2, 150370, Control_c, 0, 64, 38
2, 150389, Control_c, 0, 64, 36
2, 150408, Control_c, 0, 64, 34
2, 150428, Control_c, 0, 64, 32
2, 150485, Control_c, 0, 64, 34
2, 150505, Control_c, 0, 64, 38
2, 150523, Control_c, 0, 64, 44
2, 150543, Control_c, 0, 64, 51
2, 150562, Control_c, 0, 64, 55
2, 150582, Control_c, 0, 64, 58
2, 150600, Control_c, 0, 64, 60
2, 150619, Control_c, 0, 64, 61
2, 150639, Control_c, 0, 64, 62
2, 150657, Control_c, 0, 64, 63
2, 150677, Control_c, 0, 64, 63
2, 150696, Control_c, 0, 64, 64
2, 150734, Control_c, 0, 64, 64
2, 150773, Control_c, 0, 64, 65
2, 150792, Control_c, 0, 64, 65
2, 150811, Control_c, 0, 64, 66
2, 150831, Control_c, 0, 64, 66
2, 150850, Control_c, 0, 64, 67
2, 150869, Control_c, 0, 64, 68
2, 150888, Control_c, 0, 64, 69
2, 150908, Control_c, 0, 64, 70
2, 150926, Control_c, 0, 64, 71
2, 150946, Control_c, 0, 64, 71
2, 151023, Control_c, 0, 64, 72
2, 151042, Control_c, 0, 64, 72
2, 151062, Control_c, 0, 64, 73
2, 151099, Control_c, 0, 64, 74
2, 151137, Control_c, 0, 64, 74
2, 151196, Control_c, 0, 64, 75
2, 151234, Control_c, 0, 64, 75
2, 151253, Control_c, 0, 64, 76
2, 151272, Control_c, 0, 64, 76
2, 151483, Control_c, 0, 64, 76
2, 151560, Control_c, 0, 64, 75
2, 151579, Control_c, 0, 64, 75
2, 151656, Control_c, 0, 64, 74
2, 151694, Control_c, 0, 64, 74
2, 151733, Control_c, 0, 64, 73
2, 151752, Control_c, 0, 64, 73
2, 151791, Control_c, 0, 64, 72
2, 151810, Control_c, 0, 64, 72
2, 151829, Control_c, 0, 64, 71
2, 151848, Control_c, 0, 64, 71
2, 151866, Note_on_c, 0, 52, 31
2, 151868, Control_c, 0, 64, 70
2, 151886, Control_c, 0, 64, 69
2, 151906, Control_c, 0, 64, 67
2, 151925, Control_c, 0, 64, 65
2, 151945, Control_c, 0, 64, 63
2, 151963, Control_c, 0, 64, 60
2, 151972, Note_on_c, 0, 63, 0
2, 151983, Control_c, 0, 64, 55
2, 152002, Control_c, 0, 64, 47
2, 152022, Control_c, 0, 64, 40
2, 152040, Control_c, 0, 64, 34
2, 152059, Control_c, 0, 64, 31
2, 152098, Control_c, 0, 64, 34
2, 152118, Control_c, 0, 64, 42
2, 152137, Control_c, 0, 64, 51
2, 152156, Control_c, 0, 64, 58
2, 152174, Control_c, 0, 64, 61
2, 152194, Control_c, 0, 64, 63
2, 152213, Control_c, 0, 64, 64
2, 152232, Control_c, 0, 64, 65
2, 152251, Control_c, 0, 64, 66
2, 152271, Control_c, 0, 64, 68
2, 152290, Control_c, 0, 64, 70
2, 152309, Control_c, 0, 64, 71
2, 152328, Control_c, 0, 64, 73
2, 152348, Control_c, 0, 64, 74
2, 152366, Control_c, 0, 64, 75
2, 152386, Control_c, 0, 64, 76
2, 152405, Control_c, 0, 64, 78
2, 152425, Control_c, 0, 64, 79
2, 152443, Control_c, 0, 64, 80
2, 152463, Control_c, 0, 64, 81
2, 152482, Control_c, 0, 64, 81
2, 152502, Control_c, 0, 64, 82
2, 152520, Control_c, 0, 64, 82
2, 152539, Control_c, 0, 64, 83
2, 152559, Control_c, 0, 64, 84
2, 152577, Control_c, 0, 64, 84
2, 152636, Control_c, 0, 64, 85
2, 152649, Note_on_c, 0, 71, 0
2, 152816, Note_on_c, 0, 59, 0
2, 152875, Note_on_c, 0, 56, 0
2, 152884, Note_on_c, 0, 52, 0
2, 152943, Control_c, 0, 64, 84
2, 152975, Note_on_c, 0, 68, 0
2, 152982, Note_on_c, 0, 63, 36
2, 152984, Note_on_c, 0, 71, 47
2, 153097, Control_c, 0, 64, 84
2, 153114, Note_on_c, 0, 71, 0
2, 153134, Control_c, 0, 64, 83
2, 153150, Note_on_c, 0, 70, 55
2, 153154, Control_c, 0, 64, 83
2, 153211, Control_c, 0, 64, 82
2, 153212, Note_on_c, 0, 61, 37
2, 153231, Control_c, 0, 64, 82
2, 153250, Control_c, 0, 64, 81
2, 153251, Note_on_c, 0, 63, 0
2, 153269, Control_c, 0, 64, 81
2, 153288, Control_c, 0, 64, 80
2, 153291, Note_on_c, 0, 61, 0
2, 153308, Control_c, 0, 64, 80
2, 153322, Note_on_c, 0, 70, 0
2, 153326, Control_c, 0, 64, 79
2, 153337, Note_on_c, 0, 68, 58
2, 153346, Control_c, 0, 64, 78
2, 153359, Note_on_c, 0, 59, 42
2, 153365, Control_c, 0, 64, 78
2, 153385, Control_c, 0, 64, 77
2, 153403, Control_c, 0, 64, 77
2, 153423, Control_c, 0, 64, 76
2, 153442, Control_c, 0, 64, 76
2, 153462, Control_c, 0, 64, 74
2, 153480, Control_c, 0, 64, 73
2, 153499, Control_c, 0, 64, 72
2, 153519, Control_c, 0, 64, 70
2, 153537, Control_c, 0, 64, 68
2, 153545, Note_on_c, 0, 68, 0
2, 153557, Control_c, 0, 64, 66
2, 153570, Note_on_c, 0, 61, 37
2, 153576, Control_c, 0, 64, 64
2, 153576, Note_on_c, 0, 70, 53
2, 153580, Note_on_c, 0, 52, 35
2, 153587, Note_on_c, 0, 59, 0
2, 153596, Control_c, 0, 64, 62
2, 153614, Control_c, 0, 64, 59
2, 153634, Control_c, 0, 64, 56
2, 153653, Control_c, 0, 64, 51
2, 153672, Control_c, 0, 64, 48
2, 153691, Control_c, 0, 64, 46
2, 153711, Control_c, 0, 64, 44
2, 153730, Control_c, 0, 64, 44
2, 153788, Control_c, 0, 64, 45
2, 153806, Control_c, 0, 64, 47
2, 153826, Control_c, 0, 64, 51
2, 153845, Control_c, 0, 64, 54
2, 153865, Control_c, 0, 64, 58
2, 153883, Control_c, 0, 64, 60
2, 153903, Control_c, 0, 64, 62
2, 153922, Control_c, 0, 64, 63
2, 153942, Control_c, 0, 64, 64
2, 153960, Control_c, 0, 64, 65
2, 153979, Control_c, 0, 64, 67
2, 154001, Control_c, 0, 64, 68
2, 154019, Control_c, 0, 64, 70
2, 154039, Control_c, 0, 64, 72
2, 154058, Control_c, 0, 64, 75
2, 154077, Control_c, 0, 64, 76
2, 154095, Control_c, 0, 64, 77
2, 154115, Control_c, 0, 64, 79
2, 154134, Control_c, 0, 64, 81
2, 154153, Control_c, 0, 64, 82
2, 154172, Control_c, 0, 64, 84
2, 154192, Control_c, 0, 64, 86
2, 154211, Control_c, 0, 64, 86
2, 154230, Control_c, 0, 64, 87
2, 154280, Note_on_c, 0, 52, 0
2, 154307, Control_c, 0, 64, 87
2, 154326, Control_c, 0, 64, 88
2, 154652, Control_c, 0, 64, 87
2, 154728, Note_on_c, 0, 61, 0
2, 154729, Control_c, 0, 64, 87
2, 154824, Note_on_c, 0, 67, 34
2, 154831, Note_on_c, 0, 70, 0
2, 154844, Control_c, 0, 64, 86
2, 154856, Note_on_c, 0, 58, 19
2, 154921, Control_c, 0, 64, 86
2, 154958, Control_c, 0, 64, 85
2, 155015, Control_c, 0, 64, 85
2, 155035, Control_c, 0, 64, 84
2, 155073, Control_c, 0, 64, 84
2, 155092, Control_c, 0, 64, 83
2, 155098, Note_on_c, 0, 58, 0
2, 155112, Control_c, 0, 64, 83
2, 155120, Note_on_c, 0, 67, 0
2, 155130, Control_c, 0, 64, 82
2, 155150, Control_c, 0, 64, 81
2, 155169, Control_c, 0, 64, 81
2, 155188, Control_c, 0, 64, 80
2, 155207, Control_c, 0, 64, 79
2, 155219, Note_on_c, 0, 53, 29
2, 155227, Control_c, 0, 64, 79
2, 155246, Control_c, 0, 64, 78
2, 155265, Control_c, 0, 64, 78
2, 155284, Control_c, 0, 64, 77
2, 155304, Control_c, 0, 64, 76
2, 155307, Note_on_c, 0, 59, 18
2, 155322, Control_c, 0, 64, 76
2, 155342, Control_c, 0, 64, 75
2, 155361, Control_c, 0, 64, 73
2, 155380, Control_c, 0, 64, 71
2, 155382, Note_on_c, 0, 62, 11
2, 155397, Note_on_c, 0, 68, 38
2, 155399, Control_c, 0, 64, 68
2, 155418, Control_c, 0, 64, 65
2, 155438, Control_c, 0, 64, 62
2, 155456, Control_c, 0, 64, 59
2, 155476, Control_c, 0, 64, 55
2, 155495, Control_c, 0, 64, 50
2, 155515, Control_c, 0, 64, 46
2, 155533, Control_c, 0, 64, 44
2, 155572, Control_c, 0, 64, 45
2, 155592, Control_c, 0, 64, 46
2, 155610, Control_c, 0, 64, 50
2, 155630, Control_c, 0, 64, 53
2, 155649, Control_c, 0, 64, 57
2, 155668, Control_c, 0, 64, 59
2, 155687, Control_c, 0, 64, 61
2, 155707, Control_c, 0, 64, 62
2, 155726, Control_c, 0, 64, 63
2, 155745, Control_c, 0, 64, 64
2, 155764, Control_c, 0, 64, 65
2, 155784, Control_c, 0, 64, 67
2, 155802, Control_c, 0, 64, 69
2, 155822, Control_c, 0, 64, 70
2, 155841, Control_c, 0, 64, 73
2, 155860, Control_c, 0, 64, 74
2, 155879, Control_c, 0, 64, 75
2, 155898, Control_c, 0, 64, 76
2, 155921, Control_c, 0, 64, 77
2, 155937, Note_on_c, 0, 68, 0
2, 155939, Control_c, 0, 64, 78
2, 155940, Note_on_c, 0, 59, 0
2, 155959, Control_c, 0, 64, 79
2, 155978, Control_c, 0, 64, 80
2, 156013, Control_c, 0, 64, 80
2, 156055, Note_on_c, 0, 62, 0
2, 156072, Control_c, 0, 64, 81
2, 156090, Control_c, 0, 64, 81
2, 156244, Control_c, 0, 64, 82
2, 156378, Control_c, 0, 64, 81
2, 156455, Control_c, 0, 64, 81
2, 156532, Control_c, 0, 64, 80
2, 156628, Control_c, 0, 64, 80
2, 156667, Control_c, 0, 64, 79
2, 156686, Control_c, 0, 64, 79
2, 156705, Control_c, 0, 64, 78
2, 156744, Control_c, 0, 64, 78
2, 156782, Control_c, 0, 64, 77
2, 156801, Control_c, 0, 64, 77
2, 156819, Note_on_c, 0, 59, 28
2, 156839, Control_c, 0, 64, 76
2, 156858, Control_c, 0, 64, 76
2, 156878, Control_c, 0, 64, 75
2, 156896, Control_c, 0, 64, 74
2, 156916, Control_c, 0, 64, 74
2, 156917, Note_on_c, 0, 62, 25
2, 156935, Control_c, 0, 64, 72
2, 156955, Control_c, 0, 64, 70
2, 156973, Control_c, 0, 64, 66
2, 156993, Control_c, 0, 64, 63
2, 157012, Control_c, 0, 64, 59
2, 157017, Note_on_c, 0, 68, 34
2, 157032, Control_c, 0, 64, 55
2, 157050, Control_c, 0, 64, 53
2, 157070, Control_c, 0, 64, 52
2, 157127, Control_c, 0, 64, 53
2, 157147, Control_c, 0, 64, 55
2, 157166, Control_c, 0, 64, 58
2, 157185, Control_c, 0, 64, 61
2, 157204, Control_c, 0, 64, 63
2, 157224, Control_c, 0, 64, 64
2, 157242, Control_c, 0, 64, 65
2, 157262, Control_c, 0, 64, 66
2, 157281, Control_c, 0, 64, 68
2, 157300, Control_c, 0, 64, 69
2, 157319, Control_c, 0, 64, 71
2, 157338, Control_c, 0, 64, 73
2, 157358, Control_c, 0, 64, 74
2, 157376, Control_c, 0, 64, 76
2, 157396, Control_c, 0, 64, 77
2, 157415, Control_c, 0, 64, 78
2, 157420, Note_on_c, 0, 53, 0
2, 157435, Control_c, 0, 64, 78
2, 157453, Control_c, 0, 64, 79
2, 157492, Control_c, 0, 64, 80
2, 157512, Control_c, 0, 64, 81
2, 157519, Note_on_c, 0, 68, 0
2, 157530, Control_c, 0, 64, 82
2, 157627, Control_c, 0, 64, 82
2, 157665, Control_c, 0, 64, 83
2, 157799, Control_c, 0, 64, 82
2, 157838, Note_on_c, 0, 59, 0
2, 157897, Control_c, 0, 64, 82
2, 157949, Note_on_c, 0, 62, 0
2, 157973, Control_c, 0, 64, 81
2, 158031, Control_c, 0, 64, 81
2, 158050, Control_c, 0, 64, 80
2, 158069, Control_c, 0, 64, 79
2, 158088, Control_c, 0, 64, 79
2, 158108, Control_c, 0, 64, 78
2, 158126, Control_c, 0, 64, 78
2, 158157, Note_on_c, 0, 54, 29
2, 158165, Control_c, 0, 64, 77
2, 158185, Control_c, 0, 64, 77
2, 158203, Control_c, 0, 64, 76
2, 158223, Control_c, 0, 64, 75
2, 158242, Control_c, 0, 64, 75
2, 158261, Control_c, 0, 64, 74
2, 158280, Control_c, 0, 64, 74
2, 158299, Control_c, 0, 64, 73
2, 158319, Control_c, 0, 64, 72
2, 158337, Control_c, 0, 64, 72
2, 158339, Note_on_c, 0, 53, 38
2, 158357, Control_c, 0, 64, 71
2, 158358, Note_on_c, 0, 54, 0
2, 158376, Control_c, 0, 64, 70
2, 158396, Control_c, 0, 64, 70
2, 158414, Control_c, 0, 64, 69
2, 158434, Control_c, 0, 64, 69
2, 158451, Note_on_c, 0, 53, 0
2, 158453, Control_c, 0, 64, 68
2, 158472, Control_c, 0, 64, 67
2, 158491, Control_c, 0, 64, 67
2, 158496, Note_on_c, 0, 51, 40
2, 158511, Control_c, 0, 64, 66
2, 158549, Control_c, 0, 64, 66
2, 158568, Control_c, 0, 64, 65
2, 158588, Control_c, 0, 64, 65
2, 158606, Control_c, 0, 64, 64
2, 158645, Control_c, 0, 64, 64
2, 158658, Note_on_c, 0, 62, 22
2, 158665, Control_c, 0, 64, 63
2, 158683, Control_c, 0, 64, 63
2, 158703, Control_c, 0, 64, 62
2, 158712, Note_on_c, 0, 51, 0
2, 158722, Control_c, 0, 64, 61
2, 158731, Note_on_c, 0, 53, 43
2, 158736, Note_on_c, 0, 68, 38
2, 158741, Control_c, 0, 64, 60
2, 158760, Control_c, 0, 64, 59
2, 158779, Control_c, 0, 64, 57
2, 158799, Control_c, 0, 64, 56
2, 158817, Control_c, 0, 64, 55
2, 158837, Control_c, 0, 64, 55
2, 158856, Control_c, 0, 64, 54
2, 158876, Control_c, 0, 64, 54
2, 159125, Control_c, 0, 64, 54
2, 159221, Control_c, 0, 64, 55
2, 159279, Control_c, 0, 64, 55
2, 159308, Note_on_c, 0, 53, 0
2, 159317, Control_c, 0, 64, 56
2, 159321, Note_on_c, 0, 54, 45
2, 159451, Control_c, 0, 64, 55
2, 159490, Control_c, 0, 64, 55
2, 159528, Control_c, 0, 64, 54
2, 159548, Control_c, 0, 64, 54
2, 159559, Note_on_c, 0, 56, 42
2, 159566, Control_c, 0, 64, 53
2, 159568, Note_on_c, 0, 54, 0
2, 159586, Control_c, 0, 64, 53
2, 159625, Control_c, 0, 64, 52
2, 159731, Note_on_c, 0, 53, 41
2, 159731, Note_on_c, 0, 56, 0
2, 159759, Control_c, 0, 64, 53
2, 159777, Control_c, 0, 64, 55
2, 159788, Note_on_c, 0, 68, 0
2, 159797, Control_c, 0, 64, 57
2, 159816, Control_c, 0, 64, 60
2, 159836, Control_c, 0, 64, 62
2, 159851, Note_on_c, 0, 53, 0
2, 159854, Control_c, 0, 64, 63
2, 159874, Control_c, 0, 64, 63
2, 159893, Control_c, 0, 64, 64
2, 159900, Note_on_c, 0, 54, 41
2, 159912, Control_c, 0, 64, 65
2, 159931, Control_c, 0, 64, 66
2, 159949, Note_on_c, 0, 62, 0
2, 159951, Control_c, 0, 64, 66
2, 159970, Control_c, 0, 64, 67
2, 159989, Control_c, 0, 64, 67
2, 160008, Control_c, 0, 64, 68
2, 160009, Note_on_c, 0, 54, 0
2, 160028, Control_c, 0, 64, 68
2, 160070, Note_on_c, 0, 56, 39
2, 160085, Control_c, 0, 64, 69
2, 160105, Control_c, 0, 64, 69
2, 160123, Control_c, 0, 64, 70
2, 160143, Control_c, 0, 64, 70
2, 160220, Note_on_c, 0, 59, 22
2, 160239, Control_c, 0, 64, 70
2, 160277, Control_c, 0, 64, 69
2, 160277, Note_on_c, 0, 65, 30
2, 160296, Control_c, 0, 64, 66
2, 160301, Note_on_c, 0, 50, 35
2, 160312, Note_on_c, 0, 56, 0
2, 160316, Control_c, 0, 64, 63
2, 160334, Control_c, 0, 64, 60
2, 160349, Note_on_c, 0, 68, 38
2, 160354, Control_c, 0, 64, 57
2, 160373, Control_c, 0, 64, 54
2, 160392, Control_c, 0, 64, 51
2, 160411, Control_c, 0, 64, 50
2, 160450, Control_c, 0, 64, 51
2, 160469, Control_c, 0, 64, 54
2, 160488, Control_c, 0, 64, 58
2, 160508, Control_c, 0, 64, 61
2, 160526, Control_c, 0, 64, 63
2, 160546, Control_c, 0, 64, 64
2, 160565, Control_c, 0, 64, 65
2, 160585, Control_c, 0, 64, 66
2, 160603, Control_c, 0, 64, 68
2, 160623, Control_c, 0, 64, 69
2, 160642, Control_c, 0, 64, 70
2, 160661, Control_c, 0, 64, 72
2, 160680, Control_c, 0, 64, 73
2, 160699, Control_c, 0, 64, 74
2, 160719, Control_c, 0, 64, 76
2, 160737, Control_c, 0, 64, 77
2, 160757, Control_c, 0, 64, 78
2, 160776, Control_c, 0, 64, 79
2, 160796, Control_c, 0, 64, 79
2, 160814, Control_c, 0, 64, 80
2, 160853, Control_c, 0, 64, 80
2, 160872, Control_c, 0, 64, 81
2, 160891, Control_c, 0, 64, 81
2, 160911, Control_c, 0, 64, 82
2, 160919, Note_on_c, 0, 68, 0
2, 160930, Control_c, 0, 64, 82
2, 160949, Control_c, 0, 64, 83
2, 161031, Note_on_c, 0, 59, 0
2, 161045, Control_c, 0, 64, 83
2, 161052, Note_on_c, 0, 65, 0
2, 161065, Control_c, 0, 64, 84
2, 161103, Control_c, 0, 64, 85
2, 161122, Control_c, 0, 64, 86
2, 161141, Control_c, 0, 64, 86
2, 161160, Control_c, 0, 64, 87
2, 161217, Control_c, 0, 64, 87
2, 161391, Control_c, 0, 64, 87
2, 161448, Control_c, 0, 64, 86
2, 161486, Control_c, 0, 64, 86
2, 161506, Control_c, 0, 64, 85
2, 161525, Control_c, 0, 64, 85
2, 161545, Control_c, 0, 64, 84
2, 161563, Control_c, 0, 64, 84
2, 161583, Control_c, 0, 64, 83
2, 161602, Control_c, 0, 64, 83
2, 161621, Control_c, 0, 64, 82
2, 161640, Control_c, 0, 64, 81
2, 161659, Control_c, 0, 64, 81
2, 161679, Control_c, 0, 64, 80
2, 161697, Control_c, 0, 64, 79
2, 161717, Control_c, 0, 64, 78
2, 161736, Control_c, 0, 64, 77
2, 161747, Note_on_c, 0, 59, 23
2, 161756, Control_c, 0, 64, 77
2, 161774, Control_c, 0, 64, 76
2, 161794, Control_c, 0, 64, 75
2, 161813, Control_c, 0, 64, 74
2, 161821, Note_on_c, 0, 65, 25
2, 161832, Control_c, 0, 64, 73
2, 161851, Control_c, 0, 64, 71
2, 161871, Control_c, 0, 64, 68
2, 161890, Control_c, 0, 64, 65
2, 161909, Control_c, 0, 64, 63
2, 161922, Note_on_c, 0, 68, 34
2, 161928, Control_c, 0, 64, 59
2, 161948, Control_c, 0, 64, 54
2, 161966, Control_c, 0, 64, 51
2, 161986, Control_c, 0, 64, 48
2, 162005, Control_c, 0, 64, 48
2, 162043, Control_c, 0, 64, 49
2, 162063, Control_c, 0, 64, 53
2, 162082, Control_c, 0, 64, 57
2, 162101, Control_c, 0, 64, 61
2, 162120, Control_c, 0, 64, 63
2, 162139, Control_c, 0, 64, 65
2, 162159, Control_c, 0, 64, 66
2, 162177, Control_c, 0, 64, 67
2, 162197, Control_c, 0, 64, 68
2, 162216, Control_c, 0, 64, 70
2, 162236, Control_c, 0, 64, 72
2, 162254, Control_c, 0, 64, 73
2, 162274, Control_c, 0, 64, 75
2, 162293, Control_c, 0, 64, 77
2, 162312, Control_c, 0, 64, 78
2, 162331, Control_c, 0, 64, 79
2, 162351, Control_c, 0, 64, 80
2, 162370, Control_c, 0, 64, 80
2, 162389, Control_c, 0, 64, 81
2, 162408, Control_c, 0, 64, 82
2, 162409, Note_on_c, 0, 50, 0
2, 162428, Control_c, 0, 64, 83
2, 162446, Control_c, 0, 64, 83
2, 162485, Control_c, 0, 64, 84
2, 162523, Control_c, 0, 64, 85
2, 162543, Control_c, 0, 64, 86
2, 162562, Control_c, 0, 64, 86
2, 162599, Note_on_c, 0, 68, 0
2, 162831, Control_c, 0, 64, 86
2, 162834, Note_on_c, 0, 59, 0
2, 162836, Note_on_c, 0, 65, 0
2, 162869, Control_c, 0, 64, 85
2, 162908, Control_c, 0, 64, 85
2, 162929, Control_c, 0, 64, 84
2, 162987, Control_c, 0, 64, 84
2, 162995, Note_on_c, 0, 51, 30
2, 163006, Control_c, 0, 64, 83
2, 163025, Control_c, 0, 64, 83
2, 163045, Control_c, 0, 64, 82
2, 163064, Control_c, 0, 64, 81
2, 163083, Control_c, 0, 64, 81
2, 163102, Control_c, 0, 64, 80
2, 163122, Control_c, 0, 64, 79
2, 163140, Control_c, 0, 64, 78
2, 163143, Note_on_c, 0, 51, 0
2, 163160, Control_c, 0, 64, 77
2, 163179, Control_c, 0, 64, 77
2, 163184, Note_on_c, 0, 50, 40
2, 163199, Control_c, 0, 64, 76
2, 163217, Control_c, 0, 64, 75
2, 163237, Control_c, 0, 64, 75
2, 163256, Control_c, 0, 64, 74
2, 163275, Control_c, 0, 64, 73
2, 163294, Control_c, 0, 64, 73
2, 163306, Note_on_c, 0, 50, 0
2, 163313, Control_c, 0, 64, 72
2, 163333, Control_c, 0, 64, 71
2, 163349, Note_on_c, 0, 48, 36
2, 163351, Control_c, 0, 64, 70
2, 163371, Control_c, 0, 64, 69
2, 163390, Control_c, 0, 64, 68
2, 163409, Control_c, 0, 64, 67
2, 163428, Control_c, 0, 64, 66
2, 163448, Control_c, 0, 64, 66
2, 163467, Control_c, 0, 64, 65
2, 163469, Note_on_c, 0, 59, 26
2, 163486, Control_c, 0, 64, 64
2, 163525, Control_c, 0, 64, 64
2, 163531, Note_on_c, 0, 65, 21
2, 163544, Control_c, 0, 64, 63
2, 163563, Control_c, 0, 64, 62
2, 163582, Control_c, 0, 64, 60
2, 163590, Note_on_c, 0, 50, 37
2, 163592, Note_on_c, 0, 68, 45
2, 163600, Note_on_c, 0, 48, 0
2, 163603, Control_c, 0, 64, 58
2, 163621, Control_c, 0, 64, 56
2, 163641, Control_c, 0, 64, 54
2, 163660, Control_c, 0, 64, 51
2, 163679, Control_c, 0, 64, 48
2, 163697, Control_c, 0, 64, 45
2, 163717, Control_c, 0, 64, 42
2, 163736, Control_c, 0, 64, 39
2, 163755, Control_c, 0, 64, 38
2, 163774, Control_c, 0, 64, 37
2, 163793, Control_c, 0, 64, 37
2, 163870, Control_c, 0, 64, 37
2, 163889, Control_c, 0, 64, 38
2, 163908, Control_c, 0, 64, 38
2, 163947, Control_c, 0, 64, 39
2, 163985, Control_c, 0, 64, 39
2, 164120, Note_on_c, 0, 51, 38
2, 164143, Note_on_c, 0, 50, 0
2, 164235, Control_c, 0, 64, 39
2, 164273, Control_c, 0, 64, 38
2, 164293, Control_c, 0, 64, 37
2, 164311, Control_c, 0, 64, 37
2, 164331, Control_c, 0, 64, 36
2, 164369, Control_c, 0, 64, 35
2, 164388, Control_c, 0, 64, 35
2, 164396, Note_on_c, 0, 51, 0
2, 164397, Note_on_c, 0, 53, 40
2, 164485, Control_c, 0, 64, 36
2, 164504, Control_c, 0, 64, 40
2, 164523, Control_c, 0, 64, 47
2, 164542, Control_c, 0, 64, 54
2, 164563, Control_c, 0, 64, 58
2, 164581, Control_c, 0, 64, 61
2, 164599, Note_on_c, 0, 50, 43
2, 164601, Control_c, 0, 64, 63
2, 164620, Control_c, 0, 64, 64
2, 164623, Note_on_c, 0, 53, 0
2, 164630, Note_on_c, 0, 59, 0
2, 164639, Control_c, 0, 64, 65
2, 164644, Note_on_c, 0, 65, 0
2, 164657, Control_c, 0, 64, 66
2, 164677, Control_c, 0, 64, 67
2, 164695, Note_on_c, 0, 68, 0
2, 164696, Control_c, 0, 64, 68
2, 164715, Control_c, 0, 64, 69
2, 164734, Control_c, 0, 64, 70
2, 164750, Note_on_c, 0, 50, 0
2, 164753, Control_c, 0, 64, 71
2, 164773, Control_c, 0, 64, 71
2, 164774, Note_on_c, 0, 51, 44
2, 164791, Control_c, 0, 64, 72
2, 164939, Note_on_c, 0, 51, 0
2, 164945, Control_c, 0, 64, 71
2, 164965, Note_on_c, 0, 53, 41
2, 164984, Control_c, 0, 64, 71
2, 165003, Control_c, 0, 64, 70
2, 165022, Control_c, 0, 64, 70
2, 165042, Control_c, 0, 64, 69
2, 165060, Control_c, 0, 64, 69
2, 165080, Control_c, 0, 64, 68
2, 165091, Note_on_c, 0, 62, 33
2, 165099, Control_c, 0, 64, 66
2, 165119, Control_c, 0, 64, 65
2, 165137, Control_c, 0, 64, 63
2, 165148, Note_on_c, 0, 65, 26
2, 165157, Control_c, 0, 64, 62
2, 165176, Control_c, 0, 64, 60
2, 165190, Note_on_c, 0, 68, 41
2, 165195, Control_c, 0, 64, 58
2, 165195, Note_on_c, 0, 53, 0
2, 165214, Control_c, 0, 64, 54
2, 165215, Note_on_c, 0, 47, 35
2, 165233, Control_c, 0, 64, 50
2, 165253, Control_c, 0, 64, 46
2, 165271, Control_c, 0, 64, 42
2, 165291, Control_c, 0, 64, 40
2, 165310, Control_c, 0, 64, 38
2, 165329, Control_c, 0, 64, 36
2, 165387, Control_c, 0, 64, 37
2, 165406, Control_c, 0, 64, 40
2, 165425, Control_c, 0, 64, 46
2, 165445, Control_c, 0, 64, 51
2, 165464, Control_c, 0, 64, 56
2, 165483, Control_c, 0, 64, 59
2, 165502, Control_c, 0, 64, 61
2, 165522, Control_c, 0, 64, 62
2, 165540, Control_c, 0, 64, 63
2, 165560, Control_c, 0, 64, 64
2, 165579, Control_c, 0, 64, 65
2, 165598, Control_c, 0, 64, 66
2, 165616, Control_c, 0, 64, 67
2, 165636, Control_c, 0, 64, 67
2, 165655, Control_c, 0, 64, 68
2, 165675, Control_c, 0, 64, 69
2, 165693, Control_c, 0, 64, 70
2, 165712, Control_c, 0, 64, 72
2, 165732, Control_c, 0, 64, 73
2, 165750, Control_c, 0, 64, 74
2, 165770, Control_c, 0, 64, 74
2, 165789, Control_c, 0, 64, 75
2, 165809, Control_c, 0, 64, 76
2, 165827, Control_c, 0, 64, 76
2, 165847, Control_c, 0, 64, 77
2, 165866, Control_c, 0, 64, 78
2, 165879, Note_on_c, 0, 62, 0
2, 165885, Control_c, 0, 64, 78
2, 165904, Control_c, 0, 64, 79
2, 165924, Control_c, 0, 64, 80
2, 165943, Control_c, 0, 64, 81
2, 165962, Control_c, 0, 64, 81
2, 165981, Control_c, 0, 64, 82
2, 166001, Control_c, 0, 64, 82
2, 166019, Control_c, 0, 64, 83
2, 166039, Control_c, 0, 64, 84
2, 166058, Control_c, 0, 64, 85
2, 166096, Control_c, 0, 64, 85
2, 166153, Note_on_c, 0, 65, 0
2, 166155, Control_c, 0, 64, 86
2, 166173, Control_c, 0, 64, 87
2, 166192, Control_c, 0, 64, 87
2, 166212, Control_c, 0, 64, 88
2, 166223, Note_on_c, 0, 68, 0
2, 166539, Control_c, 0, 64, 87
2, 166614, Control_c, 0, 64, 87
2, 166623, Note_on_c, 0, 62, 26
2, 166652, Control_c, 0, 64, 86
2, 166671, Control_c, 0, 64, 86
2, 166682, Note_on_c, 0, 65, 31
2, 166691, Control_c, 0, 64, 85
2, 166709, Control_c, 0, 64, 84
2, 166729, Control_c, 0, 64, 82
2, 166748, Control_c, 0, 64, 80
2, 166768, Control_c, 0, 64, 78
2, 166782, Note_on_c, 0, 68, 40
2, 166786, Control_c, 0, 64, 74
2, 166806, Control_c, 0, 64, 71
2, 166825, Control_c, 0, 64, 67
2, 166845, Control_c, 0, 64, 64
2, 166863, Control_c, 0, 64, 63
2, 166883, Control_c, 0, 64, 61
2, 166902, Control_c, 0, 64, 59
2, 166921, Control_c, 0, 64, 57
2, 166940, Control_c, 0, 64, 55
2, 166960, Control_c, 0, 64, 54
2, 166979, Control_c, 0, 64, 53
2, 167017, Control_c, 0, 64, 54
2, 167037, Control_c, 0, 64, 57
2, 167055, Control_c, 0, 64, 60
2, 167074, Control_c, 0, 64, 62
2, 167094, Control_c, 0, 64, 63
2, 167113, Control_c, 0, 64, 64
2, 167132, Control_c, 0, 64, 66
2, 167151, Control_c, 0, 64, 67
2, 167171, Control_c, 0, 64, 69
2, 167189, Control_c, 0, 64, 71
2, 167209, Control_c, 0, 64, 73
2, 167228, Control_c, 0, 64, 74
2, 167248, Control_c, 0, 64, 75
2, 167266, Control_c, 0, 64, 77
2, 167286, Control_c, 0, 64, 78
2, 167305, Control_c, 0, 64, 79
2, 167325, Control_c, 0, 64, 81
2, 167343, Control_c, 0, 64, 82
2, 167363, Control_c, 0, 64, 82
2, 167370, Note_on_c, 0, 47, 0
2, 167382, Control_c, 0, 64, 83
2, 167401, Control_c, 0, 64, 83
2, 167420, Control_c, 0, 64, 85
2, 167440, Control_c, 0, 64, 86
2, 167459, Control_c, 0, 64, 86
2, 167535, Control_c, 0, 64, 87
2, 167574, Control_c, 0, 64, 87
2, 167764, Note_on_c, 0, 49, 46
2, 167843, Control_c, 0, 64, 87
2, 167851, Note_on_c, 0, 62, 0
2, 167920, Control_c, 0, 64, 86
2, 167958, Control_c, 0, 64, 86
2, 167997, Control_c, 0, 64, 85
2, 168004, Note_on_c, 0, 49, 0
2, 168034, Control_c, 0, 64, 85
2, 168037, Note_on_c, 0, 65, 0
2, 168041, Note_on_c, 0, 47, 49
2, 168073, Control_c, 0, 64, 84
2, 168080, Note_on_c, 0, 68, 0
2, 168092, Control_c, 0, 64, 83
2, 168111, Control_c, 0, 64, 83
2, 168131, Control_c, 0, 64, 82
2, 168149, Control_c, 0, 64, 81
2, 168169, Control_c, 0, 64, 80
2, 168188, Control_c, 0, 64, 79
2, 168208, Control_c, 0, 64, 78
2, 168212, Note_on_c, 0, 47, 0
2, 168226, Control_c, 0, 64, 77
2, 168234, Note_on_c, 0, 46, 52
2, 168246, Control_c, 0, 64, 76
2, 168265, Control_c, 0, 64, 76
2, 168285, Control_c, 0, 64, 75
2, 168303, Control_c, 0, 64, 74
2, 168323, Control_c, 0, 64, 73
2, 168342, Control_c, 0, 64, 72
2, 168361, Control_c, 0, 64, 71
2, 168380, Control_c, 0, 64, 70
2, 168402, Control_c, 0, 64, 69
2, 168409, Note_on_c, 0, 62, 40
2, 168420, Control_c, 0, 64, 68
2, 168421, Note_on_c, 0, 65, 46
2, 168422, Note_on_c, 0, 46, 0
2, 168428, Note_on_c, 0, 47, 52
2, 168440, Control_c, 0, 64, 67
2, 168459, Control_c, 0, 64, 67
2, 168479, Control_c, 0, 64, 66
2, 168497, Control_c, 0, 64, 65
2, 168504, Note_on_c, 0, 68, 48
2, 168517, Control_c, 0, 64, 65
2, 168536, Control_c, 0, 64, 64
2, 168554, Control_c, 0, 64, 64
2, 168574, Control_c, 0, 64, 63
2, 168593, Control_c, 0, 64, 63
2, 168613, Control_c, 0, 64, 62
2, 168623, Note_on_c, 0, 46, 59
2, 168631, Control_c, 0, 64, 61
2, 168651, Control_c, 0, 64, 61
2, 168657, Note_on_c, 0, 47, 0
2, 168670, Control_c, 0, 64, 60
2, 168689, Control_c, 0, 64, 59
2, 168728, Control_c, 0, 64, 59
2, 168747, Control_c, 0, 64, 58
2, 168805, Note_on_c, 0, 44, 62
2, 168822, Note_on_c, 0, 46, 0
2, 168824, Control_c, 0, 64, 58
2, 168920, Control_c, 0, 64, 57
2, 168993, Note_on_c, 0, 46, 67
2, 169008, Note_on_c, 0, 44, 0
2, 169016, Control_c, 0, 64, 57
2, 169073, Control_c, 0, 64, 56
2, 169176, Note_on_c, 0, 47, 75
2, 169208, Control_c, 0, 64, 56
2, 169209, Note_on_c, 0, 46, 0
2, 169227, Control_c, 0, 64, 55
2, 169246, Control_c, 0, 64, 55
2, 169285, Control_c, 0, 64, 54
2, 169304, Control_c, 0, 64, 53
2, 169323, Control_c, 0, 64, 52
2, 169342, Control_c, 0, 64, 51
2, 169362, Control_c, 0, 64, 51
2, 169380, Control_c, 0, 64, 50
2, 169392, Note_on_c, 0, 44, 68
2, 169400, Control_c, 0, 64, 50
2, 169419, Control_c, 0, 64, 49
2, 169438, Note_on_c, 0, 47, 0
2, 169439, Control_c, 0, 64, 48
2, 169457, Control_c, 0, 64, 48
2, 169477, Control_c, 0, 64, 47
2, 169496, Control_c, 0, 64, 47
2, 169514, Control_c, 0, 64, 46
2, 169611, Control_c, 0, 64, 47
2, 169628, Note_on_c, 0, 46, 75
2, 169650, Control_c, 0, 64, 47
2, 169668, Control_c, 0, 64, 48
2, 169674, Note_on_c, 0, 44, 0
2, 169688, Control_c, 0, 64, 49
2, 169707, Control_c, 0, 64, 50
2, 169726, Control_c, 0, 64, 52
2, 169745, Control_c, 0, 64, 54
2, 169765, Control_c, 0, 64, 57
2, 169784, Control_c, 0, 64, 59
2, 169787, Note_on_c, 0, 62, 0
2, 169803, Control_c, 0, 64, 61
2, 169822, Control_c, 0, 64, 63
2, 169842, Control_c, 0, 64, 64
2, 169860, Control_c, 0, 64, 65
2, 169880, Control_c, 0, 64, 67
2, 169899, Control_c, 0, 64, 69
2, 169914, Note_on_c, 0, 47, 75
2, 169919, Control_c, 0, 64, 72
2, 169921, Note_on_c, 0, 65, 0
2, 169937, Control_c, 0, 64, 74
2, 169953, Note_on_c, 0, 46, 0
2, 169957, Control_c, 0, 64, 75
2, 169976, Control_c, 0, 64, 75
2, 169989, Note_on_c, 0, 68, 0
2, 169994, Control_c, 0, 64, 76
2, 170014, Control_c, 0, 64, 76
2, 170033, Control_c, 0, 64, 78
2, 170053, Control_c, 0, 64, 79
2, 170071, Control_c, 0, 64, 80
2, 170091, Control_c, 0, 64, 81
2, 170110, Control_c, 0, 64, 81
2, 170187, Control_c, 0, 64, 82
2, 170245, Control_c, 0, 64, 81
2, 170283, Control_c, 0, 64, 81
2, 170302, Control_c, 0, 64, 80
2, 170322, Control_c, 0, 64, 79
2, 170328, Note_on_c, 0, 38, 77
2, 170340, Control_c, 0, 64, 77
2, 170360, Control_c, 0, 64, 75
2, 170378, Note_on_c, 0, 47, 0
2, 170379, Control_c, 0, 64, 73
2, 170399, Control_c, 0, 64, 71
2, 170417, Control_c, 0, 64, 68
2, 170430, Note_on_c, 0, 62, 53
2, 170437, Control_c, 0, 64, 65
2, 170456, Control_c, 0, 64, 63
2, 170474, Control_c, 0, 64, 62
2, 170494, Control_c, 0, 64, 60
2, 170507, Note_on_c, 0, 65, 59
2, 170513, Control_c, 0, 64, 59
2, 170533, Control_c, 0, 64, 58
2, 170551, Control_c, 0, 64, 56
2, 170571, Control_c, 0, 64, 54
2, 170572, Note_on_c, 0, 68, 71
2, 170590, Control_c, 0, 64, 52
2, 170610, Control_c, 0, 64, 49
2, 170628, Control_c, 0, 64, 45
2, 170648, Control_c, 0, 64, 40
2, 170667, Control_c, 0, 64, 32
2, 170680, Note_on_c, 0, 71, 79
2, 170686, Control_c, 0, 64, 18
2, 170705, Control_c, 0, 64, 0
2, 170840, Control_c, 0, 64, 30
2, 170859, Control_c, 0, 64, 43
2, 170879, Control_c, 0, 64, 52
2, 170897, Control_c, 0, 64, 56
2, 170917, Control_c, 0, 64, 59
2, 170936, Control_c, 0, 64, 60
2, 170954, Control_c, 0, 64, 62
2, 170974, Control_c, 0, 64, 63
2, 170993, Control_c, 0, 64, 64
2, 171013, Control_c, 0, 64, 66
2, 171031, Control_c, 0, 64, 67
2, 171051, Control_c, 0, 64, 68
2, 171070, Control_c, 0, 64, 70
2, 171090, Control_c, 0, 64, 71
2, 171108, Control_c, 0, 64, 72
2, 171128, Control_c, 0, 64, 73
2, 171147, Control_c, 0, 64, 75
2, 171166, Control_c, 0, 64, 76
2, 171185, Control_c, 0, 64, 78
2, 171205, Control_c, 0, 64, 79
2, 171224, Control_c, 0, 64, 79
2, 171262, Control_c, 0, 64, 80
2, 171282, Control_c, 0, 64, 81
2, 171300, Control_c, 0, 64, 82
2, 171320, Control_c, 0, 64, 83
2, 171339, Control_c, 0, 64, 84
2, 171359, Control_c, 0, 64, 84
2, 171377, Control_c, 0, 64, 85
2, 171397, Control_c, 0, 64, 85
2, 171416, Control_c, 0, 64, 86
2, 171434, Control_c, 0, 64, 86
2, 171454, Control_c, 0, 64, 87
2, 171511, Control_c, 0, 64, 87
2, 171550, Control_c, 0, 64, 88
2, 171570, Control_c, 0, 64, 88
2, 171608, Control_c, 0, 64, 89
2, 171665, Control_c, 0, 64, 89
2, 171685, Control_c, 0, 64, 90
2, 172222, Control_c, 0, 64, 90
2, 172240, Control_c, 0, 64, 91
2, 172259, Control_c, 0, 64, 93
2, 172278, Control_c, 0, 64, 95
2, 172280, Note_on_c, 0, 62, 0
2, 172294, Control_c, 0, 64, 96
2, 172314, Control_c, 0, 64, 94
2, 172332, Control_c, 0, 64, 83
2, 172333, Note_on_c, 0, 38, 0
2, 172352, Control_c, 0, 64, 65
2, 172371, Control_c, 0, 64, 22
2, 172391, Control_c, 0, 64, 0
2, 172392, Note_on_c, 0, 65, 0
2, 172392, Note_on_c, 0, 68, 0
2, 172776, Note_on_c, 0, 70, 68
2, 172859, Note_on_c, 0, 71, 0
2, 173073, Note_on_c, 0, 68, 67
2, 173175, Note_on_c, 0, 70, 0
2, 173303, Note_on_c, 0, 66, 70
2, 173361, Note_on_c, 0, 68, 0
2, 173500, Note_on_c, 0, 65, 61
2, 173523, Note_on_c, 0, 66, 0
2, 173707, Note_on_c, 0, 65, 0
2, 173712, Note_on_c, 0, 63, 66
2, 173896, Note_on_c, 0, 62, 70
2, 173902, Note_on_c, 0, 63, 0
2, 174077, Note_on_c, 0, 65, 69
2, 174098, Note_on_c, 0, 62, 0
2, 174266, Note_on_c, 0, 68, 74
2, 174307, Note_on_c, 0, 65, 0
2, 174441, Note_on_c, 0, 68, 0
2, 174446, Note_on_c, 0, 71, 80
2, 174642, Note_on_c, 0, 74, 75
2, 174646, Note_on_c, 0, 71, 0
2, 174834, Note_on_c, 0, 77, 78
2, 174883, Note_on_c, 0, 74, 0
2, 175037, Note_on_c, 0, 80, 83
2, 175070, Note_on_c, 0, 77, 0
2, 175270, Note_on_c, 0, 83, 83
2, 175338, Note_on_c, 0, 80, 0
2, 175499, Note_on_c, 0, 82, 82
2, 175581, Note_on_c, 0, 83, 0
2, 175752, Note_on_c, 0, 74, 75
2, 175780, Note_on_c, 0, 82, 0
2, 176156, Note_on_c, 0, 75, 76
2, 176239, Note_on_c, 0, 74, 0
2, 176461, Control_c, 0, 64, 9
2, 176481, Control_c, 0, 64, 13
2, 176500, Control_c, 0, 64, 18
2, 176519, Control_c, 0, 64, 22
2, 176538, Control_c, 0, 64, 27
2, 176558, Control_c, 0, 64, 32
2, 176576, Control_c, 0, 64, 37
2, 176596, Control_c, 0, 64, 41
2, 176615, Control_c, 0, 64, 44
2, 176635, Control_c, 0, 64, 47
2, 176653, Control_c, 0, 64, 51
2, 176673, Control_c, 0, 64, 54
2, 176692, Control_c, 0, 64, 57
2, 176712, Control_c, 0, 64, 59
2, 176730, Control_c, 0, 64, 61
2, 176750, Control_c, 0, 64, 63
2, 176769, Control_c, 0, 64, 64
2, 176788, Control_c, 0, 64, 65
2, 176807, Control_c, 0, 64, 66
2, 176827, Control_c, 0, 64, 67
2, 176846, Control_c, 0, 64, 68
2, 176864, Control_c, 0, 64, 71
2, 176884, Control_c, 0, 64, 74
2, 176903, Control_c, 0, 64, 78
2, 176922, Control_c, 0, 64, 82
2, 176941, Control_c, 0, 64, 85
2, 176961, Control_c, 0, 64, 87
2, 176980, Control_c, 0, 64, 89
2, 176999, Control_c, 0, 64, 90
2, 177018, Control_c, 0, 64, 91
2, 177039, Control_c, 0, 64, 92
2, 177057, Control_c, 0, 64, 93
2, 177077, Control_c, 0, 64, 94
2, 177096, Control_c, 0, 64, 95
2, 177115, Control_c, 0, 64, 96
2, 177153, Control_c, 0, 64, 96
2, 177364, Control_c, 0, 64, 97
2, 177536, Control_c, 0, 64, 95
2, 177556, Control_c, 0, 64, 82
2, 177570, Note_on_c, 0, 70, 78
2, 177575, Control_c, 0, 64, 64
2, 177587, Note_on_c, 0, 66, 63
2, 177595, Control_c, 0, 64, 38
2, 177613, Control_c, 0, 64, 0
2, 177619, Note_on_c, 0, 39, 53
2, 177623, Note_on_c, 0, 51, 45
2, 177656, Note_on_c, 0, 75, 0
2, 177672, Control_c, 0, 64, 39
2, 177690, Control_c, 0, 64, 60
2, 177710, Control_c, 0, 64, 66
2, 177729, Control_c, 0, 64, 73
2, 177746, Note_on_c, 0, 39, 0
2, 177748, Control_c, 0, 64, 81
2, 177767, Control_c, 0, 64, 89
2, 177787, Control_c, 0, 64, 94
2, 177795, Note_on_c, 0, 70, 0
2, 177805, Note_on_c, 0, 51, 0
2, 177806, Control_c, 0, 64, 96
2, 177824, Control_c, 0, 64, 96
2, 177882, Control_c, 0, 64, 97
2, 178050, Note_on_c, 0, 46, 35
2, 178095, Control_c, 0, 64, 96
2, 178172, Control_c, 0, 64, 97
2, 178204, Note_on_c, 0, 68, 73
2, 178219, Note_on_c, 0, 51, 46
2, 178224, Note_on_c, 0, 65, 63
2, 178224, Note_on_c, 0, 66, 0
2, 178229, Control_c, 0, 64, 96
2, 178238, Note_on_c, 0, 54, 49
2, 178249, Control_c, 0, 64, 86
2, 178268, Control_c, 0, 64, 69
2, 178288, Control_c, 0, 64, 58
2, 178306, Control_c, 0, 64, 43
2, 178326, Control_c, 0, 64, 31
2, 178345, Control_c, 0, 64, 18
2, 178365, Control_c, 0, 64, 0
2, 178413, Note_on_c, 0, 66, 65
2, 178415, Note_on_c, 0, 65, 0
2, 178421, Note_on_c, 0, 63, 58
2, 178427, Note_on_c, 0, 68, 0
2, 178652, Control_c, 0, 64, 19
2, 178671, Control_c, 0, 64, 24
2, 178691, Control_c, 0, 64, 26
2, 178709, Control_c, 0, 64, 27
2, 178729, Control_c, 0, 64, 28
2, 178748, Control_c, 0, 64, 31
2, 178768, Control_c, 0, 64, 34
2, 178786, Control_c, 0, 64, 37
2, 178806, Control_c, 0, 64, 41
2, 178825, Control_c, 0, 64, 46
2, 178845, Control_c, 0, 64, 49
2, 178863, Control_c, 0, 64, 50
2, 178883, Control_c, 0, 64, 52
2, 178902, Control_c, 0, 64, 54
2, 178921, Control_c, 0, 64, 56
2, 178940, Control_c, 0, 64, 59
2, 178963, Control_c, 0, 64, 61
2, 178981, Control_c, 0, 64, 63
2, 179001, Control_c, 0, 64, 64
2, 179020, Control_c, 0, 64, 65
2, 179040, Control_c, 0, 64, 66
2, 179058, Control_c, 0, 64, 67
2, 179078, Control_c, 0, 64, 69
2, 179097, Control_c, 0, 64, 71
2, 179115, Control_c, 0, 64, 73
2, 179129, Note_on_c, 0, 46, 0
2, 179131, Note_on_c, 0, 54, 0
2, 179135, Control_c, 0, 64, 75
2, 179137, Note_on_c, 0, 51, 0
2, 179154, Control_c, 0, 64, 76
2, 179174, Control_c, 0, 64, 78
2, 179192, Control_c, 0, 64, 79
2, 179212, Control_c, 0, 64, 80
2, 179231, Control_c, 0, 64, 82
2, 179250, Control_c, 0, 64, 84
2, 179269, Control_c, 0, 64, 86
2, 179289, Control_c, 0, 64, 86
2, 179308, Control_c, 0, 64, 87
2, 179327, Control_c, 0, 64, 87
2, 179346, Control_c, 0, 64, 88
2, 179366, Control_c, 0, 64, 88
2, 179384, Control_c, 0, 64, 89
2, 179404, Control_c, 0, 64, 90
2, 179410, Note_on_c, 0, 66, 0
2, 179423, Control_c, 0, 64, 91
2, 179443, Control_c, 0, 64, 92
2, 179461, Control_c, 0, 64, 92
2, 179506, Note_on_c, 0, 63, 0
2, 179577, Control_c, 0, 64, 93
2, 179749, Note_on_c, 0, 46, 35
2, 179808, Note_on_c, 0, 53, 38
2, 179864, Control_c, 0, 64, 92
2, 179884, Control_c, 0, 64, 92
2, 179890, Note_on_c, 0, 56, 39
2, 179903, Control_c, 0, 64, 90
2, 179925, Control_c, 0, 64, 83
2, 179929, Note_on_c, 0, 66, 28
2, 179938, Note_on_c, 0, 62, 29
2, 179943, Control_c, 0, 64, 76
2, 179963, Control_c, 0, 64, 68
2, 179976, Note_on_c, 0, 66, 0
2, 179982, Control_c, 0, 64, 63
2, 179995, Note_on_c, 0, 65, 42
2, 180001, Control_c, 0, 64, 58
2, 180020, Control_c, 0, 64, 54
2, 180035, Note_on_c, 0, 65, 0
2, 180040, Control_c, 0, 64, 47
2, 180059, Control_c, 0, 64, 39
2, 180059, Note_on_c, 0, 66, 67
2, 180078, Control_c, 0, 64, 33
2, 180097, Control_c, 0, 64, 30
2, 180109, Note_on_c, 0, 66, 0
2, 180116, Control_c, 0, 64, 29
2, 180134, Note_on_c, 0, 65, 58
2, 180212, Control_c, 0, 64, 29
2, 180251, Control_c, 0, 64, 28
2, 180269, Control_c, 0, 64, 27
2, 180289, Control_c, 0, 64, 27
2, 180385, Control_c, 0, 64, 26
2, 180539, Note_on_c, 0, 63, 55
2, 180549, Note_on_c, 0, 65, 0
2, 180993, Control_c, 0, 64, 27
2, 181058, Note_on_c, 0, 65, 39
2, 181062, Note_on_c, 0, 63, 0
2, 181185, Control_c, 0, 64, 27
2, 181205, Control_c, 0, 64, 31
2, 181224, Control_c, 0, 64, 36
2, 181244, Control_c, 0, 64, 42
2, 181262, Control_c, 0, 64, 48
2, 181282, Control_c, 0, 64, 52
2, 181301, Control_c, 0, 64, 56
2, 181320, Control_c, 0, 64, 59
2, 181339, Control_c, 0, 64, 61
2, 181359, Control_c, 0, 64, 62
2, 181378, Control_c, 0, 64, 63
2, 181396, Control_c, 0, 64, 64
2, 181416, Control_c, 0, 64, 64
2, 181435, Control_c, 0, 64, 65
2, 181455, Control_c, 0, 64, 66
2, 181464, Note_on_c, 0, 53, 0
2, 181473, Control_c, 0, 64, 68
2, 181483, Note_on_c, 0, 46, 0
2, 181493, Control_c, 0, 64, 69
2, 181512, Control_c, 0, 64, 71
2, 181531, Control_c, 0, 64, 73
2, 181550, Control_c, 0, 64, 76
2, 181570, Control_c, 0, 64, 78
2, 181589, Control_c, 0, 64, 79
2, 181608, Control_c, 0, 64, 81
2, 181621, Note_on_c, 0, 56, 0
2, 181627, Control_c, 0, 64, 82
2, 181647, Control_c, 0, 64, 84
2, 181665, Control_c, 0, 64, 85
2, 181685, Control_c, 0, 64, 86
2, 181704, Control_c, 0, 64, 86
2, 181724, Control_c, 0, 64, 87
2, 181742, Control_c, 0, 64, 87
2, 181762, Control_c, 0, 64, 88
2, 181781, Control_c, 0, 64, 89
2, 181800, Control_c, 0, 64, 89
2, 181819, Control_c, 0, 64, 90
2, 182108, Control_c, 0, 64, 89
2, 182147, Note_on_c, 0, 51, 20
2, 182166, Control_c, 0, 64, 89
2, 182223, Control_c, 0, 64, 88
2, 182243, Control_c, 0, 64, 88
2, 182262, Control_c, 0, 64, 87
2, 182281, Control_c, 0, 64, 86
2, 182286, Note_on_c, 0, 55, 16
2, 182300, Control_c, 0, 64, 85
2, 182310, Note_on_c, 0, 58, 31
2, 182320, Control_c, 0, 64, 84
2, 182339, Control_c, 0, 64, 83
2, 182357, Control_c, 0, 64, 82
2, 182377, Control_c, 0, 64, 80
2, 182396, Control_c, 0, 64, 78
2, 182415, Control_c, 0, 64, 75
2, 182431, Note_on_c, 0, 61, 18
2, 182434, Control_c, 0, 64, 72
2, 182454, Control_c, 0, 64, 69
2, 182455, Note_on_c, 0, 62, 0
2, 182469, Note_on_c, 0, 63, 30
2, 182473, Control_c, 0, 64, 66
2, 182492, Control_c, 0, 64, 63
2, 182511, Control_c, 0, 64, 60
2, 182529, Note_on_c, 0, 65, 0
2, 182531, Control_c, 0, 64, 56
2, 182549, Control_c, 0, 64, 51
2, 182569, Control_c, 0, 64, 47
2, 182588, Control_c, 0, 64, 42
2, 182608, Control_c, 0, 64, 37
2, 182626, Control_c, 0, 64, 33
2, 182665, Control_c, 0, 64, 35
2, 182685, Control_c, 0, 64, 40
2, 182703, Control_c, 0, 64, 47
2, 182723, Control_c, 0, 64, 55
2, 182742, Control_c, 0, 64, 59
2, 182761, Control_c, 0, 64, 62
2, 182780, Control_c, 0, 64, 63
2, 182801, Control_c, 0, 64, 64
2, 182819, Control_c, 0, 64, 66
2, 182839, Control_c, 0, 64, 67
2, 182858, Control_c, 0, 64, 69
2, 182876, Control_c, 0, 64, 71
2, 182895, Control_c, 0, 64, 73
2, 182914, Control_c, 0, 64, 74
2, 182934, Control_c, 0, 64, 75
2, 182951, Control_c, 0, 64, 76
2, 182969, Control_c, 0, 64, 77
2, 182989, Control_c, 0, 64, 77
2, 183008, Control_c, 0, 64, 78
2, 183027, Control_c, 0, 64, 79
2, 183046, Control_c, 0, 64, 80
2, 183065, Control_c, 0, 64, 81
2, 183085, Control_c, 0, 64, 81
2, 183103, Control_c, 0, 64, 82
2, 183119, Note_on_c, 0, 51, 0
2, 183123, Control_c, 0, 64, 82
2, 183126, Note_on_c, 0, 55, 0
2, 183162, Control_c, 0, 64, 83
2, 183176, Note_on_c, 0, 61, 0
2, 183219, Control_c, 0, 64, 83
2, 183227, Note_on_c, 0, 58, 0
2, 183507, Control_c, 0, 64, 83
2, 183660, Control_c, 0, 64, 82
2, 183758, Control_c, 0, 64, 82
2, 183853, Control_c, 0, 64, 81
2, 183892, Control_c, 0, 64, 81
2, 183930, Control_c, 0, 64, 80
2, 183969, Control_c, 0, 64, 80
2, 183978, Note_on_c, 0, 51, 22
2, 184007, Control_c, 0, 64, 79
2, 184027, Control_c, 0, 64, 79
2, 184046, Control_c, 0, 64, 78
2, 184064, Control_c, 0, 64, 76
2, 184072, Note_on_c, 0, 55, 17
2, 184084, Control_c, 0, 64, 73
2, 184093, Note_on_c, 0, 58, 25
2, 184103, Control_c, 0, 64, 68
2, 184122, Control_c, 0, 64, 64
2, 184141, Control_c, 0, 64, 59
2, 184161, Control_c, 0, 64, 53
2, 184175, Note_on_c, 0, 61, 30
2, 184180, Control_c, 0, 64, 49
2, 184218, Control_c, 0, 64, 50
2, 184238, Control_c, 0, 64, 53
2, 184256, Control_c, 0, 64, 57
2, 184276, Control_c, 0, 64, 60
2, 184295, Control_c, 0, 64, 63
2, 184315, Control_c, 0, 64, 64
2, 184333, Control_c, 0, 64, 65
2, 184353, Control_c, 0, 64, 67
2, 184372, Control_c, 0, 64, 68
2, 184392, Control_c, 0, 64, 69
2, 184410, Control_c, 0, 64, 71
2, 184430, Control_c, 0, 64, 72
2, 184449, Control_c, 0, 64, 74
2, 184468, Control_c, 0, 64, 75
2, 184487, Control_c, 0, 64, 76
2, 184506, Control_c, 0, 64, 76
2, 184526, Control_c, 0, 64, 77
2, 184544, Control_c, 0, 64, 78
2, 184564, Control_c, 0, 64, 78
2, 184583, Control_c, 0, 64, 79
2, 184602, Control_c, 0, 64, 79
2, 184608, Note_on_c, 0, 55, 0
2, 184619, Note_on_c, 0, 51, 0
2, 184660, Control_c, 0, 64, 80
2, 184679, Control_c, 0, 64, 80
2, 184738, Control_c, 0, 64, 81
2, 184835, Note_on_c, 0, 61, 0
2, 184960, Note_on_c, 0, 58, 0
2, 185201, Note_on_c, 0, 63, 0
2, 185228, Note_on_c, 0, 65, 36
2, 185432, Note_on_c, 0, 67, 55
2, 185453, Note_on_c, 0, 65, 0
2, 185466, Control_c, 0, 64, 80
2, 185562, Control_c, 0, 64, 80
2, 185601, Control_c, 0, 64, 79
2, 185604, Note_on_c, 0, 68, 62
2, 185613, Note_on_c, 0, 67, 0
2, 185620, Control_c, 0, 64, 79
2, 185639, Control_c, 0, 64, 78
2, 185658, Control_c, 0, 64, 78
2, 185658, Note_on_c, 0, 51, 24
2, 185679, Control_c, 0, 64, 77
2, 185697, Control_c, 0, 64, 77
2, 185717, Control_c, 0, 64, 76
2, 185736, Control_c, 0, 64, 74
2, 185736, Note_on_c, 0, 55, 17
2, 185755, Control_c, 0, 64, 73
2, 185773, Control_c, 0, 64, 72
2, 185793, Control_c, 0, 64, 70
2, 185802, Note_on_c, 0, 58, 18
2, 185812, Control_c, 0, 64, 68
2, 185832, Control_c, 0, 64, 65
2, 185837, Note_on_c, 0, 68, 0
2, 185844, Note_on_c, 0, 70, 55
2, 185850, Control_c, 0, 64, 63
2, 185870, Control_c, 0, 64, 59
2, 185877, Note_on_c, 0, 61, 27
2, 185889, Control_c, 0, 64, 55
2, 185908, Control_c, 0, 64, 50
2, 185927, Control_c, 0, 64, 46
2, 185946, Control_c, 0, 64, 42
2, 185966, Control_c, 0, 64, 38
2, 185984, Control_c, 0, 64, 36
2, 186004, Control_c, 0, 64, 35
2, 186023, Control_c, 0, 64, 35
2, 186061, Control_c, 0, 64, 36
2, 186081, Control_c, 0, 64, 40
2, 186100, Control_c, 0, 64, 46
2, 186119, Control_c, 0, 64, 51
2, 186138, Control_c, 0, 64, 56
2, 186158, Control_c, 0, 64, 60
2, 186177, Control_c, 0, 64, 62
2, 186196, Control_c, 0, 64, 63
2, 186215, Control_c, 0, 64, 64
2, 186235, Control_c, 0, 64, 66
2, 186253, Control_c, 0, 64, 67
2, 186273, Control_c, 0, 64, 69
2, 186292, Control_c, 0, 64, 71
2, 186312, Control_c, 0, 64, 73
2, 186330, Control_c, 0, 64, 74
2, 186350, Control_c, 0, 64, 75
2, 186369, Control_c, 0, 64, 76
2, 186380, Note_on_c, 0, 51, 0
2, 186388, Control_c, 0, 64, 76
2, 186407, Control_c, 0, 64, 77
2, 186426, Control_c, 0, 64, 78
2, 186442, Note_on_c, 0, 61, 0
2, 186446, Control_c, 0, 64, 79
2, 186484, Control_c, 0, 64, 79
2, 186519, Note_on_c, 0, 58, 0
2, 186561, Control_c, 0, 64, 80
2, 186580, Control_c, 0, 64, 80
2, 186618, Control_c, 0, 64, 81
2, 186638, Control_c, 0, 64, 82
2, 186656, Note_on_c, 0, 55, 0
2, 186715, Control_c, 0, 64, 82
2, 186753, Control_c, 0, 64, 83
2, 186792, Control_c, 0, 64, 83
2, 186821, Note_on_c, 0, 70, 0
2, 186894, Note_on_c, 0, 64, 35
2, 187037, Note_on_c, 0, 64, 0
2, 187089, Note_on_c, 0, 63, 36
2, 187098, Control_c, 0, 64, 83
2, 187175, Control_c, 0, 64, 82
2, 187213, Control_c, 0, 64, 82
2, 187252, Control_c, 0, 64, 81
2, 187268, Note_on_c, 0, 61, 45
2, 187272, Control_c, 0, 64, 81
2, 187275, Note_on_c, 0, 63, 0
2, 187290, Control_c, 0, 64, 80
2, 187310, Control_c, 0, 64, 79
2, 187316, Note_on_c, 0, 61, 0
2, 187329, Control_c, 0, 64, 78
2, 187348, Control_c, 0, 64, 78
2, 187367, Control_c, 0, 64, 77
2, 187386, Control_c, 0, 64, 76
2, 187406, Control_c, 0, 64, 75
2, 187424, Control_c, 0, 64, 75
2, 187444, Control_c, 0, 64, 73
2, 187463, Control_c, 0, 64, 72
2, 187482, Control_c, 0, 64, 70
2, 187501, Control_c, 0, 64, 69
2, 187521, Control_c, 0, 64, 68
2, 187532, Note_on_c, 0, 61, 39
2, 187540, Control_c, 0, 64, 67
2, 187555, Note_on_c, 0, 51, 24
2, 187559, Control_c, 0, 64, 66
2, 187564, Note_on_c, 0, 56, 22
2, 187578, Control_c, 0, 64, 64
2, 187598, Control_c, 0, 64, 63
2, 187617, Control_c, 0, 64, 62
2, 187636, Control_c, 0, 64, 61
2, 187655, Control_c, 0, 64, 60
2, 187675, Control_c, 0, 64, 59
2, 187693, Control_c, 0, 64, 58
2, 187713, Control_c, 0, 64, 56
2, 187732, Control_c, 0, 64, 55
2, 187752, Control_c, 0, 64, 54
2, 187770, Control_c, 0, 64, 53
2, 187790, Control_c, 0, 64, 52
2, 187809, Control_c, 0, 64, 52
2, 187828, Control_c, 0, 64, 51
2, 187866, Control_c, 0, 64, 51
2, 187904, Control_c, 0, 64, 50
2, 188173, Control_c, 0, 64, 51
2, 188308, Control_c, 0, 64, 51
2, 188434, Note_on_c, 0, 61, 0
2, 188437, Note_on_c, 0, 59, 31
2, 188461, Control_c, 0, 64, 51
2, 188538, Control_c, 0, 64, 51
2, 188558, Control_c, 0, 64, 52
2, 188577, Control_c, 0, 64, 55
2, 188596, Control_c, 0, 64, 57
2, 188615, Control_c, 0, 64, 59
2, 188635, Control_c, 0, 64, 61
2, 188653, Control_c, 0, 64, 62
2, 188673, Control_c, 0, 64, 64
2, 188692, Control_c, 0, 64, 65
2, 188712, Control_c, 0, 64, 66
2, 188730, Control_c, 0, 64, 67
2, 188750, Control_c, 0, 64, 69
2, 188769, Control_c, 0, 64, 70
2, 188788, Control_c, 0, 64, 72
2, 188807, Control_c, 0, 64, 73
2, 188826, Control_c, 0, 64, 75
2, 188835, Note_on_c, 0, 56, 0
2, 188846, Control_c, 0, 64, 76
2, 188860, Note_on_c, 0, 51, 0
2, 188864, Control_c, 0, 64, 78
2, 188884, Control_c, 0, 64, 78
2, 188922, Control_c, 0, 64, 79
2, 188999, Control_c, 0, 64, 79
2, 189076, Control_c, 0, 64, 79
2, 189153, Control_c, 0, 64, 78
2, 189230, Control_c, 0, 64, 78
2, 189306, Control_c, 0, 64, 77
2, 189326, Control_c, 0, 64, 77
2, 189344, Control_c, 0, 64, 76
2, 189364, Control_c, 0, 64, 75
2, 189381, Note_on_c, 0, 56, 27
2, 189383, Control_c, 0, 64, 73
2, 189386, Note_on_c, 0, 51, 24
2, 189402, Control_c, 0, 64, 67
2, 189421, Control_c, 0, 64, 60
2, 189441, Control_c, 0, 64, 51
2, 189460, Control_c, 0, 64, 46
2, 189479, Control_c, 0, 64, 45
2, 189498, Control_c, 0, 64, 48
2, 189517, Control_c, 0, 64, 53
2, 189536, Control_c, 0, 64, 59
2, 189555, Control_c, 0, 64, 63
2, 189574, Control_c, 0, 64, 65
2, 189594, Control_c, 0, 64, 66
2, 189612, Control_c, 0, 64, 68
2, 189632, Control_c, 0, 64, 70
2, 189651, Control_c, 0, 64, 71
2, 189671, Control_c, 0, 64, 74
2, 189689, Control_c, 0, 64, 76
2, 189709, Control_c, 0, 64, 77
2, 189728, Control_c, 0, 64, 77
2, 189742, Note_on_c, 0, 59, 0
2, 189766, Control_c, 0, 64, 78
2, 189785, Control_c, 0, 64, 78
2, 189805, Control_c, 0, 64, 79
2, 189823, Control_c, 0, 64, 80
2, 189843, Control_c, 0, 64, 81
2, 189939, Control_c, 0, 64, 80
2, 190035, Control_c, 0, 64, 81
2, 190055, Note_on_c, 0, 63, 25
2, 190112, Control_c, 0, 64, 80
2, 190219, Note_on_c, 0, 51, 0
2, 190219, Note_on_c, 0, 63, 0
2, 190256, Note_on_c, 0, 65, 32
2, 190259, Note_on_c, 0, 56, 0
2, 190285, Control_c, 0, 64, 80
2, 190303, Control_c, 0, 64, 79
2, 190362, Control_c, 0, 64, 79
2, 190401, Note_on_c, 0, 65, 0
2, 190419, Control_c, 0, 64, 78
2, 190449, Note_on_c, 0, 67, 43
2, 190457, Control_c, 0, 64, 78
2, 190517, Control_c, 0, 64, 77
2, 190554, Control_c, 0, 64, 77
2, 190602, Note_on_c, 0, 67, 0
2, 190611, Control_c, 0, 64, 76
2, 190615, Note_on_c, 0, 68, 59
2, 190631, Control_c, 0, 64, 76
2, 190669, Control_c, 0, 64, 75
2, 190688, Control_c, 0, 64, 75
2, 190706, Control_c, 0, 64, 74
2, 190726, Control_c, 0, 64, 73
2, 190745, Control_c, 0, 64, 73
2, 190765, Control_c, 0, 64, 72
2, 190783, Control_c, 0, 64, 71
2, 190786, Note_on_c, 0, 68, 0
2, 190798, Note_on_c, 0, 70, 64
2, 190803, Control_c, 0, 64, 69
2, 190822, Control_c, 0, 64, 69
2, 190842, Control_c, 0, 64, 68
2, 190860, Control_c, 0, 64, 67
2, 190880, Control_c, 0, 64, 67
2, 190899, Control_c, 0, 64, 66
2, 190918, Control_c, 0, 64, 64
2, 190937, Control_c, 0, 64, 64
2, 190957, Control_c, 0, 64, 63
2, 190995, Control_c, 0, 64, 63
2, 191014, Control_c, 0, 64, 62
2, 191034, Control_c, 0, 64, 62
2, 191051, Note_on_c, 0, 70, 0
2, 191052, Control_c, 0, 64, 61
2, 191064, Note_on_c, 0, 71, 49
2, 191071, Note_on_c, 0, 51, 31
2, 191072, Control_c, 0, 64, 61
2, 191078, Note_on_c, 0, 56, 21
2, 191111, Control_c, 0, 64, 60
2, 191129, Control_c, 0, 64, 60
2, 191149, Control_c, 0, 64, 59
2, 191186, Control_c, 0, 64, 59
2, 191609, Control_c, 0, 64, 59
2, 191626, Note_on_c, 0, 71, 0
2, 191652, Note_on_c, 0, 70, 43
2, 191721, Note_on_c, 0, 70, 0
2, 191735, Note_on_c, 0, 68, 46
2, 191810, Note_on_c, 0, 68, 0
2, 191829, Note_on_c, 0, 66, 45
2, 191840, Control_c, 0, 64, 59
2, 191884, Note_on_c, 0, 66, 0
2, 191921, Note_on_c, 0, 65, 44
2, 191936, Control_c, 0, 64, 58
2, 191994, Control_c, 0, 64, 58
2, 192085, Note_on_c, 0, 65, 0
2, 192125, Note_on_c, 0, 66, 47
2, 192282, Control_c, 0, 64, 58
2, 192289, Note_on_c, 0, 66, 0
2, 192300, Control_c, 0, 64, 59
2, 192320, Control_c, 0, 64, 60
2, 192339, Control_c, 0, 64, 62
2, 192351, Note_on_c, 0, 68, 41
2, 192358, Control_c, 0, 64, 63
2, 192377, Control_c, 0, 64, 64
2, 192398, Control_c, 0, 64, 65
2, 192417, Control_c, 0, 64, 66
2, 192436, Control_c, 0, 64, 67
2, 192455, Control_c, 0, 64, 68
2, 192466, Note_on_c, 0, 51, 0
2, 192475, Control_c, 0, 64, 70
2, 192493, Control_c, 0, 64, 71
2, 192513, Control_c, 0, 64, 72
2, 192532, Control_c, 0, 64, 73
2, 192547, Note_on_c, 0, 68, 0
2, 192552, Control_c, 0, 64, 74
2, 192561, Note_on_c, 0, 56, 0
2, 192566, Note_on_c, 0, 65, 41
2, 192570, Control_c, 0, 64, 75
2, 192590, Control_c, 0, 64, 75
2, 192609, Control_c, 0, 64, 76
2, 192647, Control_c, 0, 64, 77
2, 192724, Control_c, 0, 64, 76
2, 192781, Control_c, 0, 64, 76
2, 192801, Control_c, 0, 64, 75
2, 192820, Control_c, 0, 64, 75
2, 192839, Control_c, 0, 64, 74
2, 192858, Control_c, 0, 64, 73
2, 192866, Note_on_c, 0, 65, 0
2, 192878, Control_c, 0, 64, 72
2, 192880, Note_on_c, 0, 53, 25
2, 192887, Note_on_c, 0, 62, 38
2, 192897, Control_c, 0, 64, 70
2, 192916, Control_c, 0, 64, 66
2, 192916, Note_on_c, 0, 51, 24
2, 192935, Control_c, 0, 64, 62
2, 192952, Control_c, 0, 64, 56
2, 192970, Control_c, 0, 64, 52
2, 192990, Control_c, 0, 64, 50
2, 193047, Control_c, 0, 64, 51
2, 193067, Control_c, 0, 64, 53
2, 193086, Control_c, 0, 64, 55
2, 193105, Control_c, 0, 64, 59
2, 193124, Control_c, 0, 64, 62
2, 193144, Control_c, 0, 64, 63
2, 193163, Control_c, 0, 64, 64
2, 193182, Control_c, 0, 64, 66
2, 193201, Control_c, 0, 64, 67
2, 193221, Control_c, 0, 64, 68
2, 193239, Control_c, 0, 64, 70
2, 193259, Control_c, 0, 64, 72
2, 193278, Control_c, 0, 64, 74
2, 193298, Control_c, 0, 64, 76
2, 193316, Control_c, 0, 64, 77
2, 193335, Control_c, 0, 64, 78
2, 193374, Control_c, 0, 64, 78
2, 193393, Control_c, 0, 64, 79
2, 193412, Control_c, 0, 64, 79
2, 193432, Control_c, 0, 64, 80
2, 193450, Control_c, 0, 64, 81
2, 193489, Control_c, 0, 64, 81
2, 193509, Control_c, 0, 64, 82
2, 193527, Control_c, 0, 64, 82
2, 193547, Control_c, 0, 64, 83
2, 193566, Control_c, 0, 64, 83
2, 193585, Control_c, 0, 64, 84
2, 193604, Control_c, 0, 64, 84
2, 193612, Note_on_c, 0, 53, 0
2, 193624, Control_c, 0, 64, 85
2, 193666, Note_on_c, 0, 51, 0
2, 193701, Control_c, 0, 64, 85
2, 193739, Control_c, 0, 64, 86
2, 194046, Control_c, 0, 64, 85
2, 194161, Control_c, 0, 64, 85
2, 194238, Control_c, 0, 64, 84
2, 194245, Note_on_c, 0, 59, 33
2, 194295, Control_c, 0, 64, 84
2, 194334, Control_c, 0, 64, 83
2, 194392, Control_c, 0, 64, 83
2, 194405, Note_on_c, 0, 59, 0
2, 194422, Note_on_c, 0, 58, 38
2, 194430, Control_c, 0, 64, 82
2, 194449, Control_c, 0, 64, 82
2, 194487, Control_c, 0, 64, 81
2, 194507, Control_c, 0, 64, 81
2, 194542, Control_c, 0, 64, 80
2, 194561, Control_c, 0, 64, 79
2, 194581, Control_c, 0, 64, 78
2, 194600, Control_c, 0, 64, 77
2, 194619, Control_c, 0, 64, 76
2, 194638, Control_c, 0, 64, 75
2, 194647, Note_on_c, 0, 58, 0
2, 194658, Control_c, 0, 64, 72
2, 194663, Note_on_c, 0, 59, 40
2, 194676, Control_c, 0, 64, 69
2, 194679, Note_on_c, 0, 51, 25
2, 194683, Note_on_c, 0, 53, 21
2, 194696, Control_c, 0, 64, 65
2, 194715, Control_c, 0, 64, 61
2, 194735, Control_c, 0, 64, 56
2, 194753, Control_c, 0, 64, 51
2, 194773, Control_c, 0, 64, 44
2, 194792, Control_c, 0, 64, 40
2, 194812, Control_c, 0, 64, 39
2, 194850, Control_c, 0, 64, 42
2, 194869, Control_c, 0, 64, 47
2, 194888, Control_c, 0, 64, 54
2, 194907, Control_c, 0, 64, 59
2, 194927, Control_c, 0, 64, 61
2, 194946, Control_c, 0, 64, 63
2, 194964, Control_c, 0, 64, 64
2, 194984, Control_c, 0, 64, 65
2, 195003, Control_c, 0, 64, 67
2, 195022, Control_c, 0, 64, 68
2, 195041, Control_c, 0, 64, 70
2, 195061, Control_c, 0, 64, 71
2, 195080, Control_c, 0, 64, 72
2, 195099, Control_c, 0, 64, 74
2, 195118, Control_c, 0, 64, 75
2, 195138, Control_c, 0, 64, 76
2, 195156, Control_c, 0, 64, 77
2, 195176, Control_c, 0, 64, 77
2, 195195, Control_c, 0, 64, 78
2, 195233, Control_c, 0, 64, 78
2, 195256, Note_on_c, 0, 53, 0
2, 195291, Control_c, 0, 64, 79
2, 195335, Note_on_c, 0, 51, 0
2, 195349, Control_c, 0, 64, 79
2, 195636, Control_c, 0, 64, 79
2, 195810, Control_c, 0, 64, 78
2, 195963, Control_c, 0, 64, 78
2, 196040, Control_c, 0, 64, 77
2, 196064, Note_on_c, 0, 56, 30
2, 196136, Control_c, 0, 64, 77
2, 196193, Control_c, 0, 64, 76
2, 196403, Control_c, 0, 64, 76
2, 196461, Control_c, 0, 64, 75
2, 196500, Control_c, 0, 64, 75
2, 196506, Note_on_c, 0, 53, 33
2, 196513, Note_on_c, 0, 51, 27
2, 196519, Control_c, 0, 64, 74
2, 196519, Note_on_c, 0, 56, 0
2, 196557, Control_c, 0, 64, 73
2, 196577, Control_c, 0, 64, 70
2, 196596, Control_c, 0, 64, 67
2, 196615, Control_c, 0, 64, 64
2, 196634, Control_c, 0, 64, 61
2, 196654, Control_c, 0, 64, 57
2, 196672, Control_c, 0, 64, 55
2, 196692, Control_c, 0, 64, 52
2, 196711, Control_c, 0, 64, 50
2, 196731, Control_c, 0, 64, 49
2, 196769, Control_c, 0, 64, 50
2, 196788, Control_c, 0, 64, 51
2, 196807, Control_c, 0, 64, 53
2, 196826, Control_c, 0, 64, 55
2, 196845, Control_c, 0, 64, 57
2, 196865, Control_c, 0, 64, 59
2, 196883, Control_c, 0, 64, 61
2, 196903, Control_c, 0, 64, 62
2, 196922, Control_c, 0, 64, 63
2, 196941, Control_c, 0, 64, 64
2, 196960, Control_c, 0, 64, 66
2, 196980, Control_c, 0, 64, 67
2, 196999, Control_c, 0, 64, 68
2, 197018, Control_c, 0, 64, 70
2, 197028, Note_on_c, 0, 59, 0
2, 197037, Control_c, 0, 64, 72
2, 197057, Control_c, 0, 64, 73
2, 197076, Control_c, 0, 64, 75
2, 197095, Control_c, 0, 64, 76
2, 197114, Control_c, 0, 64, 77
2, 197134, Control_c, 0, 64, 78
2, 197152, Control_c, 0, 64, 78
2, 197172, Control_c, 0, 64, 79
2, 197193, Control_c, 0, 64, 80
2, 197212, Control_c, 0, 64, 81
2, 197231, Control_c, 0, 64, 81
2, 197251, Control_c, 0, 64, 82
2, 197307, Control_c, 0, 64, 82
2, 197364, Control_c, 0, 64, 83
2, 197403, Note_on_c, 0, 62, 0
2, 197692, Control_c, 0, 64, 82
2, 197864, Control_c, 0, 64, 83
2, 198095, Control_c, 0, 64, 83
2, 198133, Control_c, 0, 64, 84
2, 198172, Control_c, 0, 64, 84
2, 198186, Note_on_c, 0, 62, 35
2, 198306, Control_c, 0, 64, 84
2, 198440, Note_on_c, 0, 53, 0
2, 198728, Control_c, 0, 64, 83
2, 198766, Control_c, 0, 64, 83
2, 198824, Control_c, 0, 64, 82
2, 198843, Control_c, 0, 64, 82
2, 198862, Control_c, 0, 64, 81
2, 198901, Control_c, 0, 64, 81
2, 198920, Control_c, 0, 64, 80
2, 198939, Control_c, 0, 64, 79
2, 198958, Control_c, 0, 64, 78
2, 198978, Control_c, 0, 64, 78
2, 198996, Control_c, 0, 64, 77
2, 199016, Control_c, 0, 64, 76
2, 199035, Control_c, 0, 64, 74
2, 199055, Control_c, 0, 64, 72
2, 199073, Control_c, 0, 64, 70
2, 199088, Note_on_c, 0, 63, 45
2, 199093, Control_c, 0, 64, 68
2, 199105, Note_on_c, 0, 39, 24
2, 199113, Control_c, 0, 64, 67
2, 199132, Control_c, 0, 64, 66
2, 199151, Control_c, 0, 64, 65
2, 199171, Control_c, 0, 64, 64
2, 199174, Note_on_c, 0, 62, 0
2, 199188, Control_c, 0, 64, 63
2, 199206, Control_c, 0, 64, 61
2, 199209, Note_on_c, 0, 51, 0
2, 199226, Control_c, 0, 64, 60
2, 199245, Control_c, 0, 64, 59
2, 199265, Control_c, 0, 64, 58
2, 199283, Control_c, 0, 64, 58
2, 199303, Control_c, 0, 64, 57
2, 199322, Control_c, 0, 64, 56
2, 199399, Control_c, 0, 64, 57
2, 199418, Control_c, 0, 64, 59
2, 199418, Control_c, 0, 67, 11
2, 199437, Control_c, 0, 64, 60
2, 199437, Control_c, 0, 67, 20
2, 199457, Control_c, 0, 64, 61
2, 199457, Control_c, 0, 67, 32
2, 199476, Control_c, 0, 64, 62
2, 199476, Control_c, 0, 67, 46
2, 199495, Control_c, 0, 64, 62
2, 199495, Control_c, 0, 67, 63
2, 199514, Control_c, 0, 64, 63
2, 199514, Control_c, 0, 67, 87
2, 199534, Control_c, 0, 64, 64
2, 199534, Control_c, 0, 67, 111
2, 199552, Control_c, 0, 64, 64
2, 199552, Control_c, 0, 67, 127
2, 199572, Control_c, 0, 64, 65
2, 199591, Control_c, 0, 64, 65
2, 199611, Control_c, 0, 64, 66
2, 199629, Control_c, 0, 64, 67
2, 199649, Control_c, 0, 64, 69
2, 199668, Control_c, 0, 64, 71
2, 199686, Control_c, 0, 64, 73
2, 199706, Control_c, 0, 64, 75
2, 199725, Control_c, 0, 64, 76
2, 199745, Control_c, 0, 64, 77
2, 199763, Control_c, 0, 64, 78
2, 199783, Control_c, 0, 64, 79
2, 199802, Control_c, 0, 64, 80
2, 199821, Control_c, 0, 64, 81
2, 199840, Control_c, 0, 64, 82
2, 199860, Control_c, 0, 64, 82
2, 199994, Control_c, 0, 64, 83
2, 200052, Control_c, 0, 64, 83
2, 200073, Control_c, 0, 64, 84
2, 200092, Control_c, 0, 64, 85
2, 200149, Control_c, 0, 64, 85
2, 200168, Control_c, 0, 64, 86
2, 200180, Note_on_c, 0, 58, 28
2, 200187, Control_c, 0, 64, 87
2, 200206, Control_c, 0, 64, 88
2, 200226, Control_c, 0, 64, 89
2, 200264, Control_c, 0, 64, 89
2, 200283, Control_c, 0, 64, 90
2, 200321, Control_c, 0, 64, 90
2, 200341, Control_c, 0, 64, 91
2, 200360, Control_c, 0, 64, 91
2, 200379, Control_c, 0, 64, 92
2, 200418, Control_c, 0, 64, 93
2, 200456, Control_c, 0, 64, 93
2, 200495, Control_c, 0, 64, 94
2, 200590, Control_c, 0, 64, 94
2, 200667, Control_c, 0, 64, 95
2, 200676, Note_on_c, 0, 55, 25
2, 200681, Note_on_c, 0, 58, 0
2, 200702, Note_on_c, 0, 39, 0
2, 200763, Control_c, 0, 64, 95
2, 200906, Note_on_c, 0, 63, 0
2, 200955, Control_c, 0, 64, 96
2, 200979, Note_on_c, 0, 51, 30
2, 201043, Note_on_c, 0, 55, 0
2, 201086, Control_c, 0, 64, 96
2, 201197, Note_on_c, 0, 51, 0
2, 201240, Note_on_c, 0, 46, 28
2, 201452, Control_c, 0, 64, 96
2, 201462, Note_on_c, 0, 46, 0
2, 201511, Note_on_c, 0, 39, 28
2, 201778, Control_c, 0, 64, 95
2, 201785, Note_on_c, 0, 46, 22
2, 201912, Control_c, 0, 64, 95
2, 202027, Control_c, 0, 64, 94
2, 202123, Control_c, 0, 64, 94
2, 202145, Note_on_c, 0, 51, 30
2, 202297, Control_c, 0, 64, 93
2, 202545, Note_on_c, 0, 55, 18
2, 202952, Control_c, 0, 64, 93
2, 203065, Note_on_c, 0, 58, 25
2, 203954, Note_on_c, 0, 63, 34
2, 204833, Control_c, 0, 64, 92
2, 205084, Control_c, 0, 64, 92
2, 205142, Control_c, 0, 64, 91
2, 205238, Control_c, 0, 64, 91
2, 205353, Control_c, 0, 64, 90
2, 205391, Control_c, 0, 64, 90
2, 205430, Control_c, 0, 64, 89
2, 205468, Control_c, 0, 64, 89
2, 205507, Control_c, 0, 64, 88
2, 205545, Control_c, 0, 64, 88
2, 205584, Control_c, 0, 64, 87
2, 205602, Control_c, 0, 64, 87
2, 205660, Control_c, 0, 64, 86
2, 205736, Control_c, 0, 64, 86
2, 205794, Control_c, 0, 64, 85
2, 205871, Control_c, 0, 64, 85
2, 206005, Control_c, 0, 64, 84
2, 206159, Control_c, 0, 64, 84
2, 207753, Control_c, 0, 64, 83
2, 207925, Control_c, 0, 64, 83
2, 208252, Control_c, 0, 64, 82
2, 209231, Control_c, 0, 64, 83
2, 209365, Control_c, 0, 64, 83
2, 209499, Control_c, 0, 64, 84
2, 209596, Control_c, 0, 64, 84
2, 209711, Control_c, 0, 64, 85
2, 209788, Control_c, 0, 64, 85
2, 209827, Control_c, 0, 64, 86
2, 209961, Control_c, 0, 64, 85
2, 209999, Control_c, 0, 64, 85
2, 210038, Control_c, 0, 64, 84
2, 210076, Control_c, 0, 64, 84
2, 210230, Control_c, 0, 64, 84
2, 210287, Control_c, 0, 64, 85
2, 210345, Control_c, 0, 64, 85
2, 210364, Control_c, 0, 67, 127
2, 210384, Control_c, 0, 64, 86
2, 210384, Control_c, 0, 67, 125
2, 210402, Control_c, 0, 67, 124
2, 210422, Control_c, 0, 67, 123
2, 210441, Control_c, 0, 67, 122
2, 210459, Control_c, 0, 67, 121
2, 210479, Control_c, 0, 67, 119
2, 210498, Control_c, 0, 67, 117
2, 210518, Control_c, 0, 67, 115
2, 210536, Control_c, 0, 67, 113
2, 210554, Note_on_c, 0, 39, 0
2, 210556, Control_c, 0, 67, 111
2, 210575, Control_c, 0, 67, 108
2, 210594, Control_c, 0, 67, 104
2, 210613, Control_c, 0, 67, 101
2, 210633, Control_c, 0, 67, 96
2, 210645, Note_on_c, 0, 55, 0
2, 210652, Control_c, 0, 67, 91
2, 210671, Control_c, 0, 67, 86
2, 210690, Control_c, 0, 67, 81
2, 210710, Control_c, 0, 67, 75
2, 210729, Control_c, 0, 67, 70
2, 210748, Control_c, 0, 67, 65
2, 210767, Control_c, 0, 64, 86
2, 210767, Control_c, 0, 67, 60
2, 210787, Control_c, 0, 67, 56
2, 210805, Control_c, 0, 67, 52
2, 210825, Control_c, 0, 67, 48
2, 210832, Note_on_c, 0, 51, 0
2, 210844, Control_c, 0, 67, 45
2, 210864, Control_c, 0, 67, 42
2, 210882, Control_c, 0, 67, 39
2, 210902, Control_c, 0, 64, 86
2, 210902, Control_c, 0, 67, 37
2, 210921, Control_c, 0, 67, 36
2, 210938, Note_on_c, 0, 46, 0
2, 210939, Control_c, 0, 64, 85
2, 210939, Control_c, 0, 67, 35
2, 210959, Control_c, 0, 67, 34
2, 210976, Note_on_c, 0, 58, 0
2, 210978, Control_c, 0, 67, 32
2, 210998, Control_c, 0, 64, 85
2, 210998, Control_c, 0, 67, 30
2, 211016, Control_c, 0, 67, 27
2, 211036, Control_c, 0, 64, 84
2, 211036, Control_c, 0, 67, 24
2, 211045, Note_on_c, 0, 63, 0
2, 211055, Control_c, 0, 64, 83
2, 211055, Control_c, 0, 67, 22
2, 211074, Control_c, 0, 64, 83
2, 211074, Control_c, 0, 67, 20
2, 211093, Control_c, 0, 64, 82
2, 211093, Control_c, 0, 67, 18
2, 211113, Control_c, 0, 64, 81
2, 211113, Control_c, 0, 67, 16
2, 211132, Control_c, 0, 64, 80
2, 211132, Control_c, 0, 67, 13
2, 211151, Control_c, 0, 64, 79
2, 211151, Control_c, 0, 67, 10
2, 211170, Control_c, 0, 64, 78
2, 211170, Control_c, 0, 67, 0
2, 211190, Control_c, 0, 64, 77
2, 211209, Control_c, 0, 64, 76
2, 211228, Control_c, 0, 64, 75
2, 211247, Control_c, 0, 64, 74
2, 211267, Control_c, 0, 64, 73
2, 211285, Control_c, 0, 64, 72
2, 211324, Control_c, 0, 64, 72
2, 211344, Control_c, 0, 64, 71
2, 211362, Control_c, 0, 64, 71
2, 211382, Control_c, 0, 64, 70
2, 211401, Control_c, 0, 64, 69
2, 211419, Control_c, 0, 64, 69
2, 211458, Control_c, 0, 64, 68
2, 211478, Control_c, 0, 64, 67
2, 211496, Control_c, 0, 64, 66
2, 211516, Control_c, 0, 64, 66
2, 211535, Control_c, 0, 64, 65
2, 211554, Control_c, 0, 64, 64
2, 211573, Control_c, 0, 64, 64
2, 211597, Control_c, 0, 64, 63
2, 211615, Control_c, 0, 64, 63
2, 211635, Control_c, 0, 64, 62
2, 211654, Control_c, 0, 64, 62
2, 211670, Control_c, 0, 64, 61
2, 211689, Control_c, 0, 64, 60
2, 211708, Control_c, 0, 64, 59
2, 211727, Control_c, 0, 64, 58
2, 211747, Control_c, 0, 64, 58
2, 211765, Control_c, 0, 64, 57
2, 211785, Control_c, 0, 64, 57
2, 211804, Control_c, 0, 64, 56
2, 211824, Control_c, 0, 64, 55
2, 211842, Control_c, 0, 64, 54
2, 211938, Control_c, 0, 64, 55
2, 212018, Control_c, 0, 64, 55
2, 212056, Control_c, 0, 64, 56
2, 212076, Control_c, 0, 64, 56
2, 212095, Control_c, 0, 64, 57
2, 212190, Control_c, 0, 64, 57
2, 212229, Control_c, 0, 64, 58
2, 212248, Control_c, 0, 64, 58
2, 212306, Control_c, 0, 64, 59
2, 212421, Control_c, 0, 64, 59
2, 212498, Control_c, 0, 64, 60
2, 212594, Control_c, 0, 64, 60
2, 212670, Control_c, 0, 64, 61
2, 212882, Control_c, 0, 64, 61
2, 213016, Control_c, 0, 64, 62
2, 213285, Control_c, 0, 64, 62
2, 213522,End_track
0, 0, End_of_file
