0, 0, Header, 1, 2, 480
1, 0, Start_track
1, 0, Tempo, 500000
1, 0, Time_signature, 4, 2, 24, 8
1, 1, End_track
2,0,Start_track
2,0, Note_on_c, 0, 63, 39
2,51, Control_c, 0, 64, 63
2,876, Note_on_c, 0, 70, 50
2,937, Note_on_c, 0, 63, 0
2,2282, Note_on_c, 0, 71, 25
2,2298, Note_on_c, 0, 70, 0
2,2722, Note_on_c, 0, 70, 47
2,2817, Note_on_c, 0, 71, 0
2,3138, Note_on_c, 0, 68, 49
2,3190, Note_on_c, 0, 70, 0
2,3448, Control_c, 0, 64, 62
2,3548, Note_on_c, 0, 66, 37
2,3556, Note_on_c, 0, 68, 0
2,3961, Note_on_c, 0, 68, 44
2,3984, Control_c, 0, 64, 62
2,3986, Note_on_c, 0, 66, 0
2,4428, Note_on_c, 0, 70, 44
2,4490, Note_on_c, 0, 68, 0
2,5041, Control_c, 0, 64, 61
2,5340, Note_on_c, 0, 63, 39
2,5476, Note_on_c, 0, 70, 0
2,6265, Note_on_c, 0, 68, 50
2,6377, Note_on_c, 0, 63, 0
2,6750, Control_c, 0, 64, 62
2,7001, Control_c, 0, 64, 62
2,7673, Control_c, 0, 64, 62
2,7683, Note_on_c, 0, 66, 27
2,7725, Note_on_c, 0, 68, 0
2,8095, Control_c, 0, 64, 61
2,8132, Note_on_c, 0, 65, 30
2,8165, Note_on_c, 0, 66, 0
2,8325, Control_c, 0, 64, 61
2,9054, Note_on_c, 0, 70, 41
2,9086, Note_on_c, 0, 63, 23
2,9210, Note_on_c, 0, 65, 0
2,9945, Note_on_c, 0, 75, 55
2,10068, Note_on_c, 0, 70, 0
2,10361, Control_c, 0, 64, 61
2,10385, Note_on_c, 0, 65, 28
2,10386, Note_on_c, 0, 63, 0
2,10789, Note_on_c, 0, 66, 32
2,10809, Note_on_c, 0, 65, 0
2,11191, Note_on_c, 0, 78, 52
2,11195, Note_on_c, 0, 75, 0
2,11622, Note_on_c, 0, 77, 52
2,11630, Note_on_c, 0, 68, 38
2,11692, Note_on_c, 0, 78, 0
2,11743, Note_on_c, 0, 66, 0
2,12046, Note_on_c, 0, 75, 54
2,12084, Note_on_c, 0, 77, 0
2,12475, Note_on_c, 0, 73, 43
2,12488, Note_on_c, 0, 70, 31
2,12514, Note_on_c, 0, 75, 0
2,12540, Note_on_c, 0, 68, 0
2,12892, Note_on_c, 0, 75, 46
2,12899, Note_on_c, 0, 73, 0
2,13317, Note_on_c, 0, 77, 40
2,13382, Note_on_c, 0, 75, 0
2,13749, Note_on_c, 0, 68, 34
2,13829, Note_on_c, 0, 70, 0
2,14027, Control_c, 0, 64, 62
2,14169, Note_on_c, 0, 70, 53
2,14205, Note_on_c, 0, 66, 29
2,14217, Note_on_c, 0, 77, 0
2,14252, Note_on_c, 0, 68, 0
2,14355, Control_c, 0, 64, 62
2,14596, Note_on_c, 0, 65, 27
2,14645, Note_on_c, 0, 66, 0
2,15031, Note_on_c, 0, 75, 56
2,15075, Note_on_c, 0, 70, 0
2,15087, Note_on_c, 0, 66, 22
2,15091, Note_on_c, 0, 65, 0
2,15454, Note_on_c, 0, 66, 0
2,15482, Note_on_c, 0, 65, 30
2,15607, Note_on_c, 0, 65, 0
2,15681, Note_on_c, 0, 63, 30
2,15885, Note_on_c, 0, 65, 21
2,15918, Note_on_c, 0, 63, 0
2,16288, Note_on_c, 0, 73, 40
2,16308, Note_on_c, 0, 70, 25
2,16318, Note_on_c, 0, 65, 0
2,16324, Note_on_c, 0, 75, 0
2,16657, Control_c, 0, 64, 62
2,16697, Note_on_c, 0, 72, 41
2,16721, Note_on_c, 0, 73, 0
2,16849, Control_c, 0, 64, 61
2,17106, Note_on_c, 0, 69, 29
2,17145, Note_on_c, 0, 70, 0
2,17519, Note_on_c, 0, 72, 0
2,17531, Note_on_c, 0, 70, 47
2,17575, Note_on_c, 0, 69, 0
2,17950, Note_on_c, 0, 72, 44
2,18382, Note_on_c, 0, 72, 0
2,18390, Note_on_c, 0, 73, 39
2,18519, Control_c, 0, 64, 61
2,18802, Note_on_c, 0, 68, 30
2,18864, Control_c, 0, 64, 60
2,19037, Control_c, 0, 64, 60
2,19133, Control_c, 0, 64, 59
2,19210, Control_c, 0, 64, 59
2,19213, Note_on_c, 0, 70, 0
2,19232, Note_on_c, 0, 67, 29
2,19267, Control_c, 0, 64, 58
2,19268, Note_on_c, 0, 68, 0
2,19287, Control_c, 0, 64, 58
2,19305, Control_c, 0, 64, 57
2,19344, Control_c, 0, 64, 57
2,19382, Control_c, 0, 64, 56
2,19421, Control_c, 0, 64, 56
2,19479, Control_c, 0, 64, 55
2,19653, Note_on_c, 0, 63, 32
2,19660, Note_on_c, 0, 67, 0
2,20056, Note_on_c, 0, 68, 35
2,20086, Note_on_c, 0, 63, 0
2,20324, Control_c, 0, 64, 55
2,20439, Control_c, 0, 64, 54
2,20466, Note_on_c, 0, 71, 44
2,20496, Control_c, 0, 64, 54
2,20505, Note_on_c, 0, 73, 0
2,20573, Control_c, 0, 64, 53
2,20611, Control_c, 0, 64, 53
2,20650, Control_c, 0, 64, 52
2,20804, Control_c, 0, 64, 52
2,20890, Note_on_c, 0, 70, 52
2,20951, Note_on_c, 0, 71, 0
2,21168, Control_c, 0, 64, 51
2,21298, Note_on_c, 0, 66, 28
2,21331, Note_on_c, 0, 68, 0
2,21571, Control_c, 0, 64, 52
2,21648, Control_c, 0, 64, 52
2,21719, Note_on_c, 0, 75, 61
2,21750, Note_on_c, 0, 65, 22
2,21771, Note_on_c, 0, 66, 0
2,21859, Control_c, 0, 64, 53
2,21942, Note_on_c, 0, 70, 0
2,22109, Control_c, 0, 64, 53
2,22150, Note_on_c, 0, 63, 31
2,22156, Note_on_c, 0, 65, 0
2,22224, Control_c, 0, 64, 54
2,22416, Control_c, 0, 64, 54
2,22544, Note_on_c, 0, 63, 0
2,22568, Note_on_c, 0, 65, 31
2,22627, Control_c, 0, 64, 55
2,22988, Note_on_c, 0, 74, 41
2,23009, Note_on_c, 0, 75, 0
2,23205, Control_c, 0, 64, 54
2,23397, Control_c, 0, 64, 54
2,23398, Note_on_c, 0, 74, 0
2,23411, Note_on_c, 0, 75, 44
2,23427, Note_on_c, 0, 66, 25
2,23450, Note_on_c, 0, 65, 0
2,23492, Control_c, 0, 64, 53
2,23511, Control_c, 0, 64, 53
2,23531, Control_c, 0, 64, 52
2,23550, Control_c, 0, 64, 52
2,23569, Control_c, 0, 64, 51
2,23588, Control_c, 0, 64, 51
2,23608, Control_c, 0, 64, 50
2,23665, Control_c, 0, 64, 51
2,23685, Control_c, 0, 64, 53
2,23703, Control_c, 0, 64, 56
2,23723, Control_c, 0, 64, 60
2,23742, Control_c, 0, 64, 62
2,23761, Control_c, 0, 64, 64
2,23780, Control_c, 0, 64, 65
2,23800, Control_c, 0, 64, 66
2,23806, Note_on_c, 0, 75, 0
2,23819, Control_c, 0, 64, 66
2,23838, Control_c, 0, 64, 67
2,23840, Note_on_c, 0, 77, 41
2,23857, Control_c, 0, 64, 68
2,23873, Note_on_c, 0, 66, 0
2,23873, Note_on_c, 0, 68, 35
2,23877, Control_c, 0, 64, 69
2,23895, Control_c, 0, 64, 69
2,23914, Control_c, 0, 64, 70
2,23934, Control_c, 0, 64, 70
2,23972, Control_c, 0, 64, 71
2,24088, Control_c, 0, 64, 70
2,24098, Note_on_c, 0, 68, 0
2,24299, Control_c, 0, 64, 70
2,24318, Control_c, 0, 64, 69
2,24325, Note_on_c, 0, 78, 48
2,24335, Note_on_c, 0, 51, 45
2,24337, Control_c, 0, 64, 68
2,24339, Note_on_c, 0, 70, 39
2,24357, Control_c, 0, 64, 65
2,24375, Control_c, 0, 64, 61
2,24384, Note_on_c, 0, 77, 0
2,24394, Control_c, 0, 64, 57
2,24414, Control_c, 0, 64, 54
2,24433, Control_c, 0, 64, 50
2,24452, Control_c, 0, 64, 47
2,24471, Control_c, 0, 64, 45
2,24529, Control_c, 0, 64, 47
2,24548, Control_c, 0, 64, 48
2,24568, Control_c, 0, 64, 50
2,24586, Control_c, 0, 64, 52
2,24606, Control_c, 0, 64, 54
2,24625, Control_c, 0, 64, 56
2,24645, Control_c, 0, 64, 58
2,24663, Control_c, 0, 64, 60
2,24683, Control_c, 0, 64, 62
2,24702, Control_c, 0, 64, 62
2,24721, Control_c, 0, 64, 63
2,24740, Control_c, 0, 64, 64
2,24760, Control_c, 0, 64, 65
2,24779, Control_c, 0, 64, 65
2,24796, Note_on_c, 0, 72, 46
2,24798, Control_c, 0, 64, 66
2,24817, Control_c, 0, 64, 66
2,24919, Note_on_c, 0, 70, 0
2,24971, Control_c, 0, 64, 66
2,24990, Control_c, 0, 64, 65
2,25009, Control_c, 0, 64, 65
2,25028, Control_c, 0, 64, 64
2,25066, Control_c, 0, 64, 64
2,25086, Control_c, 0, 64, 63
2,25105, Control_c, 0, 64, 63
2,25125, Control_c, 0, 64, 62
2,25134, Note_on_c, 0, 72, 0
2,25143, Control_c, 0, 64, 61
2,25182, Control_c, 0, 64, 61
2,25201, Control_c, 0, 64, 60
2,25206, Note_on_c, 0, 58, 56
2,25213, Note_on_c, 0, 77, 46
2,25220, Control_c, 0, 64, 59
2,25237, Note_on_c, 0, 74, 42
2,25240, Control_c, 0, 64, 58
2,25259, Control_c, 0, 64, 57
2,25278, Control_c, 0, 64, 55
2,25296, Note_on_c, 0, 78, 0
2,25297, Control_c, 0, 64, 55
2,25317, Control_c, 0, 64, 54
2,25318, Note_on_c, 0, 51, 0
2,25335, Control_c, 0, 64, 54
2,25354, Control_c, 0, 64, 53
2,25374, Control_c, 0, 64, 53
2,25412, Control_c, 0, 64, 52
2,25431, Control_c, 0, 64, 52
2,25451, Control_c, 0, 64, 51
2,25613, Note_on_c, 0, 74, 0
2,25613, Note_on_c, 0, 77, 0
2,25627, Note_on_c, 0, 78, 45
2,25633, Note_on_c, 0, 75, 40
2,26003, Note_on_c, 0, 75, 0
2,26038, Note_on_c, 0, 80, 45
2,26065, Control_c, 0, 64, 52
2,26065, Note_on_c, 0, 77, 46
2,26085, Control_c, 0, 64, 54
2,26103, Control_c, 0, 64, 58
2,26123, Control_c, 0, 64, 61
2,26142, Control_c, 0, 64, 62
2,26161, Control_c, 0, 64, 63
2,26180, Control_c, 0, 64, 64
2,26200, Control_c, 0, 64, 64
2,26219, Control_c, 0, 64, 65
2,26257, Control_c, 0, 64, 66
2,26260, Note_on_c, 0, 77, 0
2,26310, Note_on_c, 0, 78, 0
2,26430, Control_c, 0, 64, 65
2,26449, Control_c, 0, 64, 65
2,26468, Control_c, 0, 64, 64
2,26478, Note_on_c, 0, 74, 47
2,26488, Control_c, 0, 64, 63
2,26488, Note_on_c, 0, 77, 52
2,26495, Note_on_c, 0, 59, 60
2,26506, Control_c, 0, 64, 62
2,26526, Control_c, 0, 64, 61
2,26531, Note_on_c, 0, 80, 0
2,26538, Note_on_c, 0, 58, 0
2,26545, Control_c, 0, 64, 61
2,26565, Control_c, 0, 64, 60
2,26583, Control_c, 0, 64, 60
2,26603, Control_c, 0, 64, 59
2,26622, Control_c, 0, 64, 59
2,26641, Control_c, 0, 64, 58
2,26651, Note_on_c, 0, 74, 0
2,26680, Control_c, 0, 64, 58
2,26900, Note_on_c, 0, 77, 0
2,26902, Note_on_c, 0, 58, 52
2,26908, Note_on_c, 0, 78, 60
2,26927, Note_on_c, 0, 75, 50
2,26971, Note_on_c, 0, 59, 0
2,27255, Control_c, 0, 64, 57
2,27316, Note_on_c, 0, 75, 0
2,27318, Note_on_c, 0, 56, 54
2,27326, Note_on_c, 0, 78, 0
2,27328, Note_on_c, 0, 77, 54
2,27332, Control_c, 0, 64, 57
2,27333, Note_on_c, 0, 80, 55
2,27383, Note_on_c, 0, 58, 0
2,27390, Control_c, 0, 64, 56
2,27486, Control_c, 0, 64, 56
2,27563, Control_c, 0, 64, 55
2,27735, Control_c, 0, 64, 55
2,27738, Note_on_c, 0, 77, 0
2,27743, Note_on_c, 0, 54, 49
2,27744, Note_on_c, 0, 82, 51
2,27749, Note_on_c, 0, 56, 0
2,27759, Note_on_c, 0, 78, 46
2,27788, Note_on_c, 0, 80, 0
2,27793, Control_c, 0, 64, 54
2,27851, Control_c, 0, 64, 54
2,27889, Control_c, 0, 64, 53
2,27928, Control_c, 0, 64, 52
2,28127, Note_on_c, 0, 78, 0
2,28152, Note_on_c, 0, 56, 50
2,28152, Note_on_c, 0, 80, 49
2,28165, Note_on_c, 0, 77, 44
2,28190, Note_on_c, 0, 82, 0
2,28211, Note_on_c, 0, 54, 0
2,28426, Control_c, 0, 64, 52
2,28523, Control_c, 0, 64, 51
2,28544, Note_on_c, 0, 77, 0
2,28561, Control_c, 0, 64, 51
2,28580, Control_c, 0, 64, 49
2,28589, Note_on_c, 0, 58, 40
2,28589, Note_on_c, 0, 78, 41
2,28590, Note_on_c, 0, 56, 0
2,28600, Control_c, 0, 64, 48
2,28616, Note_on_c, 0, 75, 33
2,28619, Control_c, 0, 64, 46
2,28638, Control_c, 0, 64, 45
2,28662, Note_on_c, 0, 80, 0
2,28695, Control_c, 0, 64, 46
2,28714, Control_c, 0, 64, 49
2,28734, Control_c, 0, 64, 53
2,28753, Control_c, 0, 64, 57
2,28772, Control_c, 0, 64, 60
2,28791, Control_c, 0, 64, 61
2,28811, Control_c, 0, 64, 63
2,28830, Control_c, 0, 64, 64
2,28849, Control_c, 0, 64, 65
2,28868, Control_c, 0, 64, 66
2,28888, Control_c, 0, 64, 67
2,28906, Control_c, 0, 64, 67
2,28926, Control_c, 0, 64, 68
2,28945, Control_c, 0, 64, 69
2,28965, Control_c, 0, 64, 70
2,28981, Note_on_c, 0, 78, 0
2,28983, Control_c, 0, 64, 70
2,29003, Control_c, 0, 64, 71
2,29022, Control_c, 0, 64, 71
2,29024, Note_on_c, 0, 77, 40
2,29045, Note_on_c, 0, 75, 0
2,29048, Note_on_c, 0, 74, 38
2,29137, Control_c, 0, 64, 71
2,29157, Control_c, 0, 64, 70
2,29175, Control_c, 0, 64, 70
2,29194, Control_c, 0, 64, 69
2,29214, Control_c, 0, 64, 69
2,29233, Control_c, 0, 64, 68
2,29271, Control_c, 0, 64, 67
2,29291, Control_c, 0, 64, 67
2,29294, Note_on_c, 0, 77, 0
2,29310, Control_c, 0, 64, 66
2,29329, Control_c, 0, 64, 66
2,29348, Control_c, 0, 64, 65
2,29386, Control_c, 0, 64, 65
2,29406, Control_c, 0, 64, 64
2,29425, Control_c, 0, 64, 63
2,29445, Control_c, 0, 64, 62
2,29452, Note_on_c, 0, 51, 47
2,29463, Control_c, 0, 64, 61
2,29474, Note_on_c, 0, 78, 50
2,29483, Control_c, 0, 64, 59
2,29502, Control_c, 0, 64, 58
2,29505, Note_on_c, 0, 75, 46
2,29521, Control_c, 0, 64, 56
2,29523, Note_on_c, 0, 58, 0
2,29540, Control_c, 0, 64, 55
2,29560, Control_c, 0, 64, 54
2,29562, Note_on_c, 0, 74, 0
2,29579, Control_c, 0, 64, 54
2,29655, Control_c, 0, 64, 54
2,29694, Control_c, 0, 64, 55
2,29828, Control_c, 0, 64, 55
2,29870, Note_on_c, 0, 73, 56
2,30270, Control_c, 0, 64, 55
2,30271, Note_on_c, 0, 73, 0
2,30287, Note_on_c, 0, 56, 57
2,30293, Note_on_c, 0, 75, 0
2,30312, Note_on_c, 0, 77, 45
2,30327, Note_on_c, 0, 71, 41
2,30370, Note_on_c, 0, 51, 0
2,30400, Note_on_c, 0, 78, 0
2,30423, Control_c, 0, 64, 54
2,30687, Note_on_c, 0, 71, 0
2,30703, Note_on_c, 0, 75, 55
2,30758, Note_on_c, 0, 77, 0
2,31038, Control_c, 0, 64, 54
2,31077, Control_c, 0, 64, 53
2,31095, Control_c, 0, 64, 52
2,31114, Control_c, 0, 64, 51
2,31115, Note_on_c, 0, 74, 40
2,31134, Control_c, 0, 64, 48
2,31148, Note_on_c, 0, 70, 31
2,31153, Control_c, 0, 64, 46
2,31171, Note_on_c, 0, 75, 0
2,31172, Control_c, 0, 64, 45
2,31191, Control_c, 0, 64, 46
2,31211, Control_c, 0, 64, 48
2,31230, Control_c, 0, 64, 52
2,31249, Control_c, 0, 64, 54
2,31268, Control_c, 0, 64, 55
2,31288, Control_c, 0, 64, 56
2,31306, Control_c, 0, 64, 58
2,31326, Control_c, 0, 64, 59
2,31345, Control_c, 0, 64, 60
2,31365, Control_c, 0, 64, 61
2,31383, Control_c, 0, 64, 62
2,31422, Control_c, 0, 64, 61
2,31441, Control_c, 0, 64, 59
2,31460, Control_c, 0, 64, 56
2,31480, Control_c, 0, 64, 56
2,31518, Control_c, 0, 64, 57
2,31527, Note_on_c, 0, 54, 39
2,31537, Control_c, 0, 64, 59
2,31539, Note_on_c, 0, 75, 49
2,31557, Control_c, 0, 64, 61
2,31575, Control_c, 0, 64, 61
2,31590, Note_on_c, 0, 56, 0
2,31594, Control_c, 0, 64, 62
2,31598, Note_on_c, 0, 74, 0
2,31633, Control_c, 0, 64, 62
2,31652, Control_c, 0, 64, 63
2,31656, Note_on_c, 0, 70, 0
2,31673, Control_c, 0, 64, 63
2,31731, Control_c, 0, 64, 64
2,31846, Control_c, 0, 64, 63
2,31885, Control_c, 0, 64, 62
2,31904, Control_c, 0, 64, 62
2,31923, Control_c, 0, 64, 60
2,31931, Note_on_c, 0, 68, 41
2,31937, Note_on_c, 0, 53, 34
2,31942, Control_c, 0, 64, 59
2,31942, Note_on_c, 0, 54, 0
2,31962, Control_c, 0, 64, 57
2,31980, Control_c, 0, 64, 55
2,32000, Control_c, 0, 64, 53
2,32019, Control_c, 0, 64, 50
2,32039, Control_c, 0, 64, 47
2,32057, Control_c, 0, 64, 42
2,32077, Control_c, 0, 64, 38
2,32096, Control_c, 0, 64, 35
2,32115, Control_c, 0, 64, 32
2,32134, Control_c, 0, 64, 30
2,32153, Control_c, 0, 64, 29
2,32211, Control_c, 0, 64, 30
2,32230, Control_c, 0, 64, 36
2,32250, Control_c, 0, 64, 43
2,32268, Control_c, 0, 64, 51
2,32288, Control_c, 0, 64, 58
2,32307, Control_c, 0, 64, 61
2,32326, Control_c, 0, 64, 63
2,32345, Control_c, 0, 64, 64
2,32365, Control_c, 0, 64, 64
2,32371, Note_on_c, 0, 74, 41
2,32384, Control_c, 0, 64, 65
2,32397, Note_on_c, 0, 75, 0
2,32403, Control_c, 0, 64, 66
2,32406, Note_on_c, 0, 68, 0
2,32422, Control_c, 0, 64, 67
2,32442, Control_c, 0, 64, 67
2,32480, Control_c, 0, 64, 68
2,32537, Control_c, 0, 64, 68
2,32690, Control_c, 0, 64, 68
2,32727, Control_c, 0, 64, 67
2,32765, Control_c, 0, 64, 66
2,32784, Control_c, 0, 64, 65
2,32804, Control_c, 0, 64, 64
2,32807, Note_on_c, 0, 51, 33
2,32813, Note_on_c, 0, 74, 0
2,32822, Control_c, 0, 64, 62
2,32823, Note_on_c, 0, 66, 24
2,32825, Note_on_c, 0, 75, 39
2,32842, Control_c, 0, 64, 59
2,32859, Note_on_c, 0, 53, 0
2,32861, Control_c, 0, 64, 53
2,32881, Control_c, 0, 64, 47
2,32899, Control_c, 0, 64, 40
2,32921, Control_c, 0, 64, 35
2,32941, Control_c, 0, 64, 34
2,32979, Control_c, 0, 64, 34
2,32998, Control_c, 0, 64, 37
2,33018, Control_c, 0, 64, 43
2,33036, Control_c, 0, 64, 50
2,33056, Control_c, 0, 64, 56
2,33075, Control_c, 0, 64, 60
2,33094, Control_c, 0, 64, 62
2,33113, Control_c, 0, 64, 63
2,33133, Control_c, 0, 64, 64
2,33152, Control_c, 0, 64, 65
2,33171, Control_c, 0, 64, 66
2,33190, Control_c, 0, 64, 67
2,33210, Control_c, 0, 64, 67
2,33228, Control_c, 0, 64, 68
2,33238, Note_on_c, 0, 73, 43
2,33242, Note_on_c, 0, 75, 0
2,33247, Control_c, 0, 64, 68
2,33297, Note_on_c, 0, 73, 0
2,33498, Control_c, 0, 64, 68
2,33536, Control_c, 0, 64, 67
2,33574, Control_c, 0, 64, 67
2,33587, Note_on_c, 0, 66, 0
2,33592, Control_c, 0, 64, 66
2,33612, Control_c, 0, 64, 65
2,33626, Note_on_c, 0, 71, 39
2,33631, Control_c, 0, 64, 65
2,33633, Note_on_c, 0, 68, 34
2,33650, Control_c, 0, 64, 64
2,33662, Note_on_c, 0, 63, 36
2,33669, Control_c, 0, 64, 63
2,33689, Control_c, 0, 64, 62
2,33706, Note_on_c, 0, 51, 0
2,33708, Control_c, 0, 64, 60
2,33726, Control_c, 0, 64, 59
2,33746, Control_c, 0, 64, 57
2,33765, Control_c, 0, 64, 56
2,33784, Control_c, 0, 64, 54
2,33803, Control_c, 0, 64, 53
2,33823, Control_c, 0, 64, 52
2,33842, Control_c, 0, 64, 52
2,33938, Control_c, 0, 64, 51
2,34058, Note_on_c, 0, 66, 35
2,34072, Control_c, 0, 64, 52
2,34149, Control_c, 0, 64, 52
2,34452, Note_on_c, 0, 68, 0
2,34453, Note_on_c, 0, 66, 0
2,34457, Control_c, 0, 64, 52
2,34478, Note_on_c, 0, 62, 28
2,34482, Note_on_c, 0, 63, 0
2,34483, Note_on_c, 0, 65, 36
2,34495, Control_c, 0, 64, 51
2,34556, Control_c, 0, 64, 51
2,34576, Control_c, 0, 64, 50
2,34594, Control_c, 0, 64, 50
2,34614, Control_c, 0, 64, 49
2,34629, Control_c, 0, 64, 49
2,34668, Control_c, 0, 64, 48
2,34686, Control_c, 0, 64, 48
2,34744, Control_c, 0, 64, 47
2,34802, Control_c, 0, 64, 47
2,34856, Note_on_c, 0, 71, 0
2,34858, Note_on_c, 0, 65, 0
2,34883, Note_on_c, 0, 70, 44
2,35025, Note_on_c, 0, 70, 0
2,35071, Control_c, 0, 64, 47
2,35075, Note_on_c, 0, 68, 37
2,35224, Control_c, 0, 64, 48
2,35282, Control_c, 0, 64, 48
2,35292, Note_on_c, 0, 68, 0
2,35297, Note_on_c, 0, 70, 47
2,35320, Control_c, 0, 64, 49
2,35325, Note_on_c, 0, 62, 0
2,35334, Note_on_c, 0, 61, 28
2,35340, Control_c, 0, 64, 50
2,35358, Control_c, 0, 64, 50
2,35378, Control_c, 0, 64, 51
2,35397, Control_c, 0, 64, 52
2,35417, Control_c, 0, 64, 53
2,35435, Control_c, 0, 64, 55
2,35455, Control_c, 0, 64, 57
2,35474, Control_c, 0, 64, 58
2,35494, Control_c, 0, 64, 58
2,35513, Control_c, 0, 64, 59
2,35533, Control_c, 0, 64, 60
2,35552, Control_c, 0, 64, 61
2,35571, Control_c, 0, 64, 62
2,35589, Control_c, 0, 64, 62
2,35628, Control_c, 0, 64, 63
2,35650, Note_on_c, 0, 70, 0
2,35668, Note_on_c, 0, 71, 48
2,35698, Note_on_c, 0, 63, 44
2,35723, Control_c, 0, 64, 62
2,35743, Control_c, 0, 64, 62
2,35764, Note_on_c, 0, 61, 0
2,35781, Control_c, 0, 64, 61
2,35800, Control_c, 0, 64, 60
2,35811, Note_on_c, 0, 63, 0
2,35838, Control_c, 0, 64, 60
2,35854, Note_on_c, 0, 73, 60
2,35867, Note_on_c, 0, 71, 0
2,35883, Note_on_c, 0, 65, 37
2,35915, Control_c, 0, 64, 59
2,35992, Control_c, 0, 64, 59
2,36012, Control_c, 0, 64, 57
2,36031, Control_c, 0, 64, 54
2,36050, Control_c, 0, 64, 49
2,36069, Control_c, 0, 64, 45
2,36086, Note_on_c, 0, 65, 0
2,36089, Control_c, 0, 64, 44
2,36090, Note_on_c, 0, 75, 63
2,36126, Control_c, 0, 64, 45
2,36131, Note_on_c, 0, 66, 36
2,36135, Note_on_c, 0, 60, 34
2,36138, Note_on_c, 0, 73, 0
2,36146, Control_c, 0, 64, 46
2,36165, Control_c, 0, 64, 47
2,36184, Control_c, 0, 64, 50
2,36203, Control_c, 0, 64, 51
2,36223, Control_c, 0, 64, 51
2,36242, Control_c, 0, 64, 52
2,36261, Control_c, 0, 64, 53
2,36280, Control_c, 0, 64, 54
2,36300, Control_c, 0, 64, 56
2,36318, Control_c, 0, 64, 57
2,36338, Control_c, 0, 64, 58
2,36357, Control_c, 0, 64, 59
2,36377, Control_c, 0, 64, 60
2,36395, Control_c, 0, 64, 61
2,36415, Control_c, 0, 64, 62
2,36434, Control_c, 0, 64, 62
2,36474, Control_c, 0, 64, 63
2,36508, Note_on_c, 0, 75, 0
2,36508, Note_on_c, 0, 77, 64
2,36514, Note_on_c, 0, 68, 44
2,36518, Note_on_c, 0, 66, 0
2,36624, Note_on_c, 0, 60, 0
2,36644, Control_c, 0, 64, 62
2,36661, Note_on_c, 0, 68, 0
2,36682, Control_c, 0, 64, 62
2,36693, Note_on_c, 0, 70, 47
2,36695, Note_on_c, 0, 78, 66
2,36720, Note_on_c, 0, 77, 0
2,36721, Control_c, 0, 64, 61
2,36740, Control_c, 0, 64, 61
2,36759, Control_c, 0, 64, 60
2,36817, Control_c, 0, 64, 60
2,36836, Control_c, 0, 64, 59
2,36856, Control_c, 0, 64, 59
2,36874, Control_c, 0, 64, 58
2,36894, Control_c, 0, 64, 57
2,36913, Control_c, 0, 64, 56
2,36927, Note_on_c, 0, 70, 0
2,36933, Control_c, 0, 64, 55
2,36951, Control_c, 0, 64, 53
2,36955, Note_on_c, 0, 77, 57
2,36970, Note_on_c, 0, 68, 41
2,36971, Control_c, 0, 64, 51
2,36971, Note_on_c, 0, 59, 38
2,36990, Control_c, 0, 64, 48
2,37008, Control_c, 0, 64, 42
2,37028, Control_c, 0, 64, 30
2,37028, Note_on_c, 0, 78, 0
2,37047, Control_c, 0, 64, 0
2,37124, Control_c, 0, 64, 20
2,37143, Control_c, 0, 64, 43
2,37162, Control_c, 0, 64, 55
2,37182, Control_c, 0, 64, 61
2,37201, Control_c, 0, 64, 62
2,37220, Control_c, 0, 64, 63
2,37239, Control_c, 0, 64, 64
2,37259, Control_c, 0, 64, 64
2,37278, Control_c, 0, 64, 65
2,37297, Control_c, 0, 64, 65
2,37336, Control_c, 0, 64, 66
2,37393, Control_c, 0, 64, 66
2,37413, Control_c, 0, 64, 67
2,37433, Control_c, 0, 64, 67
2,37453, Control_c, 0, 64, 68
2,37472, Control_c, 0, 64, 69
2,37491, Control_c, 0, 64, 70
2,37501, Note_on_c, 0, 68, 0
2,37528, Control_c, 0, 64, 70
2,37537, Note_on_c, 0, 59, 0
2,37566, Control_c, 0, 64, 71
2,37576, Note_on_c, 0, 75, 52
2,37586, Control_c, 0, 64, 71
2,37593, Note_on_c, 0, 66, 31
2,37598, Note_on_c, 0, 77, 0
2,37605, Control_c, 0, 64, 72
2,37624, Control_c, 0, 64, 73
2,37634, Note_on_c, 0, 66, 0
2,37640, Note_on_c, 0, 75, 0
2,37643, Control_c, 0, 64, 74
2,37663, Control_c, 0, 64, 74
2,37682, Control_c, 0, 64, 75
2,37682, Note_on_c, 0, 68, 50
2,37758, Control_c, 0, 64, 73
2,37775, Note_on_c, 0, 68, 0
2,37778, Control_c, 0, 64, 66
2,37797, Control_c, 0, 64, 52
2,37817, Control_c, 0, 64, 32
2,37822, Note_on_c, 0, 74, 51
2,37833, Note_on_c, 0, 70, 41
2,37835, Control_c, 0, 64, 9
2,37845, Note_on_c, 0, 58, 50
2,37855, Control_c, 0, 64, 0
2,37874, Control_c, 0, 64, 29
2,37894, Control_c, 0, 64, 49
2,37912, Control_c, 0, 64, 59
2,37932, Control_c, 0, 64, 63
2,37951, Control_c, 0, 64, 65
2,37970, Control_c, 0, 64, 66
2,37989, Control_c, 0, 64, 67
2,37989, Note_on_c, 0, 58, 0
2,38006, Note_on_c, 0, 74, 0
2,38008, Control_c, 0, 64, 67
2,38028, Control_c, 0, 64, 68
2,38046, Control_c, 0, 64, 68
2,38066, Control_c, 0, 64, 69
2,38143, Control_c, 0, 64, 70
2,38162, Control_c, 0, 64, 70
2,38181, Control_c, 0, 64, 70
2,38200, Control_c, 0, 64, 64
2,38220, Control_c, 0, 64, 52
2,38238, Control_c, 0, 64, 33
2,38238, Note_on_c, 0, 68, 56
2,38243, Note_on_c, 0, 46, 65
2,38258, Control_c, 0, 64, 25
2,38277, Control_c, 0, 64, 29
2,38277, Note_on_c, 0, 70, 0
2,38297, Control_c, 0, 64, 45
2,38315, Control_c, 0, 64, 58
2,38335, Control_c, 0, 64, 63
2,38354, Control_c, 0, 64, 66
2,38374, Control_c, 0, 64, 68
2,38396, Control_c, 0, 64, 71
2,38416, Control_c, 0, 64, 74
2,38434, Control_c, 0, 64, 76
2,38454, Control_c, 0, 64, 77
2,38480, Note_on_c, 0, 46, 0
2,38491, Control_c, 0, 64, 77
2,38567, Control_c, 0, 64, 77
2,38605, Control_c, 0, 64, 78
2,38663, Control_c, 0, 64, 77
2,38702, Control_c, 0, 64, 77
2,38734, Note_on_c, 0, 51, 65
2,38741, Note_on_c, 0, 75, 52
2,38759, Control_c, 0, 64, 76
2,38763, Note_on_c, 0, 66, 34
2,38779, Control_c, 0, 64, 71
2,38797, Control_c, 0, 64, 64
2,38817, Control_c, 0, 64, 51
2,38836, Control_c, 0, 64, 29
2,38855, Control_c, 0, 64, 0
2,38855, Note_on_c, 0, 68, 0
2,38951, Control_c, 0, 64, 17
2,38971, Control_c, 0, 64, 42
2,38989, Control_c, 0, 64, 53
2,39008, Control_c, 0, 64, 58
2,39028, Control_c, 0, 64, 60
2,39044, Note_on_c, 0, 66, 0
2,39047, Control_c, 0, 64, 61
2,39066, Control_c, 0, 64, 62
2,39085, Control_c, 0, 64, 63
2,39105, Control_c, 0, 64, 63
2,39143, Control_c, 0, 64, 64
2,39147, Note_on_c, 0, 75, 0
2,39162, Control_c, 0, 64, 65
2,39176, Note_on_c, 0, 73, 48
2,39182, Control_c, 0, 64, 66
2,39183, Note_on_c, 0, 65, 38
2,39200, Control_c, 0, 64, 67
2,39220, Control_c, 0, 64, 69
2,39239, Control_c, 0, 64, 70
2,39259, Control_c, 0, 64, 71
2,39264, Note_on_c, 0, 65, 0
2,39450, Control_c, 0, 64, 70
2,39468, Control_c, 0, 64, 70
2,39487, Control_c, 0, 64, 68
2,39507, Control_c, 0, 64, 64
2,39526, Control_c, 0, 64, 59
2,39545, Control_c, 0, 64, 55
2,39554, Note_on_c, 0, 73, 0
2,39564, Control_c, 0, 64, 51
2,39577, Note_on_c, 0, 71, 46
2,39584, Control_c, 0, 64, 50
2,39622, Control_c, 0, 64, 51
2,39622, Note_on_c, 0, 63, 39
2,39641, Control_c, 0, 64, 52
2,39661, Control_c, 0, 64, 55
2,39679, Control_c, 0, 64, 57
2,39699, Control_c, 0, 64, 59
2,39718, Control_c, 0, 64, 61
2,39738, Control_c, 0, 64, 61
2,39756, Control_c, 0, 64, 62
2,39795, Control_c, 0, 64, 62
2,39853, Control_c, 0, 64, 62
2,39910, Control_c, 0, 64, 61
2,39930, Control_c, 0, 64, 61
2,39967, Control_c, 0, 64, 60
2,39978, Note_on_c, 0, 71, 0
2,39996, Note_on_c, 0, 54, 60
2,40003, Note_on_c, 0, 70, 53
2,40061, Note_on_c, 0, 51, 0
2,40102, Control_c, 0, 64, 60
2,40141, Control_c, 0, 64, 59
2,40179, Control_c, 0, 64, 59
2,40313, Control_c, 0, 64, 58
2,40339, Note_on_c, 0, 63, 0
2,40352, Control_c, 0, 64, 57
2,40382, Note_on_c, 0, 53, 61
2,40400, Note_on_c, 0, 62, 43
2,40408, Note_on_c, 0, 68, 51
2,40410, Control_c, 0, 64, 57
2,40427, Note_on_c, 0, 54, 0
2,40428, Control_c, 0, 64, 56
2,40447, Control_c, 0, 64, 56
2,40465, Note_on_c, 0, 70, 0
2,40467, Control_c, 0, 64, 55
2,40486, Control_c, 0, 64, 55
2,40505, Control_c, 0, 64, 54
2,40524, Control_c, 0, 64, 53
2,40544, Control_c, 0, 64, 52
2,40563, Control_c, 0, 64, 51
2,40601, Control_c, 0, 64, 51
2,40792, Note_on_c, 0, 51, 53
2,40813, Note_on_c, 0, 66, 46
2,40816, Note_on_c, 0, 62, 0
2,40832, Note_on_c, 0, 63, 41
2,40838, Note_on_c, 0, 53, 0
2,40864, Note_on_c, 0, 68, 0
2,41197, Note_on_c, 0, 50, 55
2,41220, Note_on_c, 0, 65, 52
2,41220, Note_on_c, 0, 66, 0
2,41223, Note_on_c, 0, 63, 0
2,41240, Note_on_c, 0, 51, 0
2,41625, Note_on_c, 0, 51, 45
2,41628, Note_on_c, 0, 66, 43
2,41631, Note_on_c, 0, 65, 0
2,41650, Note_on_c, 0, 63, 43
2,41696, Note_on_c, 0, 50, 0
2,42003, Control_c, 0, 64, 50
2,42005, Note_on_c, 0, 63, 0
2,42036, Note_on_c, 0, 62, 42
2,42040, Note_on_c, 0, 53, 52
2,42040, Note_on_c, 0, 68, 45
2,42041, Control_c, 0, 64, 50
2,42053, Note_on_c, 0, 66, 0
2,42061, Control_c, 0, 64, 49
2,42079, Control_c, 0, 64, 49
2,42085, Note_on_c, 0, 51, 0
2,42099, Control_c, 0, 64, 48
2,42156, Control_c, 0, 64, 48
2,42234, Control_c, 0, 64, 48
2,42254, Control_c, 0, 64, 50
2,42273, Control_c, 0, 64, 51
2,42292, Control_c, 0, 64, 54
2,42310, Control_c, 0, 64, 56
2,42329, Control_c, 0, 64, 58
2,42348, Control_c, 0, 64, 59
2,42367, Control_c, 0, 64, 60
2,42387, Control_c, 0, 64, 61
2,42406, Control_c, 0, 64, 62
2,42425, Control_c, 0, 64, 62
2,42444, Control_c, 0, 64, 63
2,42464, Control_c, 0, 64, 63
2,42468, Note_on_c, 0, 62, 0
2,42483, Control_c, 0, 64, 64
2,42483, Note_on_c, 0, 60, 44
2,42502, Control_c, 0, 64, 65
2,42541, Control_c, 0, 64, 65
2,42598, Control_c, 0, 64, 66
2,42675, Control_c, 0, 64, 66
2,42773, Control_c, 0, 64, 66
2,42869, Note_on_c, 0, 60, 0
2,42870, Control_c, 0, 64, 65
2,42883, Note_on_c, 0, 62, 47
2,42888, Note_on_c, 0, 46, 62
2,42889, Control_c, 0, 64, 63
2,42908, Control_c, 0, 64, 59
2,42924, Note_on_c, 0, 53, 0
2,42927, Control_c, 0, 64, 54
2,42947, Control_c, 0, 64, 46
2,42966, Control_c, 0, 64, 33
2,42985, Control_c, 0, 64, 0
2,43062, Control_c, 0, 64, 19
2,43081, Control_c, 0, 64, 37
2,43100, Control_c, 0, 64, 48
2,43119, Control_c, 0, 64, 55
2,43138, Control_c, 0, 64, 59
2,43158, Control_c, 0, 64, 61
2,43176, Control_c, 0, 64, 62
2,43196, Control_c, 0, 64, 63
2,43215, Control_c, 0, 64, 63
2,43235, Control_c, 0, 64, 64
2,43253, Control_c, 0, 64, 64
2,43263, Note_on_c, 0, 68, 0
2,43273, Control_c, 0, 64, 65
2,43283, Note_on_c, 0, 66, 42
2,43292, Control_c, 0, 64, 65
2,43296, Note_on_c, 0, 62, 0
2,43311, Control_c, 0, 64, 66
2,43369, Control_c, 0, 64, 66
2,43435, Note_on_c, 0, 66, 0
2,43453, Note_on_c, 0, 65, 51
2,43618, Control_c, 0, 64, 66
2,43695, Control_c, 0, 64, 65
2,43700, Note_on_c, 0, 65, 0
2,43715, Control_c, 0, 64, 64
2,43733, Control_c, 0, 64, 64
2,43736, Note_on_c, 0, 51, 62
2,43743, Note_on_c, 0, 66, 49
2,43753, Control_c, 0, 64, 62
2,43754, Note_on_c, 0, 63, 46
2,43772, Control_c, 0, 64, 61
2,43791, Control_c, 0, 64, 57
2,43800, Note_on_c, 0, 46, 0
2,43810, Control_c, 0, 64, 51
2,43830, Control_c, 0, 64, 45
2,43849, Control_c, 0, 64, 38
2,43868, Control_c, 0, 64, 33
2,43887, Control_c, 0, 64, 30
2,43907, Control_c, 0, 64, 28
2,44041, Control_c, 0, 64, 29
2,44060, Control_c, 0, 64, 29
2,44079, Control_c, 0, 64, 30
2,44098, Control_c, 0, 64, 31
2,44118, Control_c, 0, 64, 33
2,44120, Note_on_c, 0, 63, 0
2,44123, Note_on_c, 0, 66, 0
2,44136, Control_c, 0, 64, 35
2,44138, Note_on_c, 0, 65, 44
2,44152, Note_on_c, 0, 68, 47
2,44158, Control_c, 0, 64, 36
2,44177, Control_c, 0, 64, 36
2,44215, Control_c, 0, 64, 37
2,44521, Control_c, 0, 64, 36
2,44534, Note_on_c, 0, 65, 0
2,44559, Control_c, 0, 64, 36
2,44574, Note_on_c, 0, 70, 52
2,44586, Note_on_c, 0, 66, 43
2,44593, Note_on_c, 0, 68, 0
2,44655, Control_c, 0, 64, 38
2,44675, Control_c, 0, 64, 44
2,44693, Control_c, 0, 64, 51
2,44713, Control_c, 0, 64, 56
2,44732, Control_c, 0, 64, 59
2,44751, Control_c, 0, 64, 59
2,44770, Control_c, 0, 64, 60
2,44790, Control_c, 0, 64, 60
2,44809, Control_c, 0, 64, 61
2,44828, Control_c, 0, 64, 62
2,44847, Control_c, 0, 64, 62
2,44867, Control_c, 0, 64, 63
2,44886, Control_c, 0, 64, 64
2,44905, Control_c, 0, 64, 64
2,44924, Control_c, 0, 64, 65
2,44944, Control_c, 0, 64, 65
2,44962, Control_c, 0, 64, 66
2,44976, Note_on_c, 0, 49, 58
2,44978, Note_on_c, 0, 66, 0
2,44982, Control_c, 0, 64, 67
2,45001, Control_c, 0, 64, 68
2,45014, Note_on_c, 0, 70, 0
2,45020, Control_c, 0, 64, 69
2,45032, Note_on_c, 0, 51, 0
2,45096, Control_c, 0, 64, 69
2,45270, Control_c, 0, 64, 69
2,45308, Control_c, 0, 64, 68
2,45327, Control_c, 0, 64, 68
2,45347, Control_c, 0, 64, 67
2,45366, Control_c, 0, 64, 66
2,45377, Note_on_c, 0, 68, 52
2,45379, Note_on_c, 0, 71, 59
2,45385, Control_c, 0, 64, 64
2,45404, Control_c, 0, 64, 63
2,45405, Note_on_c, 0, 49, 0
2,45409, Note_on_c, 0, 47, 49
2,45424, Control_c, 0, 64, 61
2,45442, Control_c, 0, 64, 59
2,45462, Control_c, 0, 64, 57
2,45481, Control_c, 0, 64, 54
2,45500, Control_c, 0, 64, 52
2,45519, Control_c, 0, 64, 51
2,45538, Control_c, 0, 64, 51
2,45558, Control_c, 0, 64, 50
2,45576, Control_c, 0, 64, 49
2,45596, Control_c, 0, 64, 48
2,45615, Control_c, 0, 64, 47
2,45653, Control_c, 0, 64, 46
2,45673, Control_c, 0, 64, 45
2,45692, Control_c, 0, 64, 45
2,45711, Control_c, 0, 64, 44
2,45791, Note_on_c, 0, 68, 0
2,45795, Note_on_c, 0, 71, 0
2,45807, Note_on_c, 0, 73, 54
2,45812, Note_on_c, 0, 66, 40
2,45865, Control_c, 0, 64, 45
2,45884, Control_c, 0, 64, 46
2,45904, Control_c, 0, 64, 46
2,45922, Control_c, 0, 64, 47
2,45961, Control_c, 0, 64, 47
2,45979, Note_on_c, 0, 75, 57
2,46042, Note_on_c, 0, 73, 0
2,46144, Note_on_c, 0, 75, 0
2,46154, Control_c, 0, 64, 48
2,46192, Control_c, 0, 64, 48
2,46211, Control_c, 0, 64, 49
2,46221, Note_on_c, 0, 68, 47
2,46269, Note_on_c, 0, 65, 32
2,46294, Note_on_c, 0, 66, 0
2,46423, Control_c, 0, 64, 49
2,46442, Control_c, 0, 64, 50
2,46461, Control_c, 0, 64, 51
2,46480, Control_c, 0, 64, 52
2,46499, Control_c, 0, 64, 53
2,46519, Control_c, 0, 64, 55
2,46537, Control_c, 0, 64, 56
2,46557, Control_c, 0, 64, 57
2,46576, Control_c, 0, 64, 59
2,46596, Control_c, 0, 64, 60
2,46606, Note_on_c, 0, 65, 0
2,46614, Control_c, 0, 64, 61
2,46634, Control_c, 0, 64, 62
2,46650, Note_on_c, 0, 61, 38
2,46653, Control_c, 0, 64, 62
2,46922, Control_c, 0, 64, 62
2,46979, Control_c, 0, 64, 61
2,46999, Control_c, 0, 64, 59
2,47001, Note_on_c, 0, 61, 0
2,47017, Control_c, 0, 64, 55
2,47037, Control_c, 0, 64, 47
2,47050, Note_on_c, 0, 66, 47
2,47056, Control_c, 0, 64, 37
2,47066, Note_on_c, 0, 46, 28
2,47075, Note_on_c, 0, 47, 0
2,47076, Control_c, 0, 64, 25
2,47089, Note_on_c, 0, 68, 0
2,47094, Control_c, 0, 64, 20
2,47132, Control_c, 0, 64, 28
2,47151, Control_c, 0, 64, 44
2,47170, Control_c, 0, 64, 54
2,47190, Control_c, 0, 64, 60
2,47209, Control_c, 0, 64, 62
2,47228, Control_c, 0, 64, 63
2,47247, Control_c, 0, 64, 64
2,47286, Control_c, 0, 64, 65
2,47324, Control_c, 0, 64, 65
2,47362, Control_c, 0, 64, 66
2,47379, Control_c, 0, 64, 67
2,47398, Control_c, 0, 64, 67
2,47418, Control_c, 0, 64, 68
2,47436, Control_c, 0, 64, 69
2,47456, Control_c, 0, 64, 70
2,47462, Note_on_c, 0, 70, 47
2,47475, Control_c, 0, 64, 70
2,47494, Control_c, 0, 64, 71
2,47513, Control_c, 0, 64, 71
2,47528, Note_on_c, 0, 70, 0
2,47590, Control_c, 0, 64, 72
2,47763, Control_c, 0, 64, 71
2,47859, Control_c, 0, 64, 71
2,47878, Control_c, 0, 64, 69
2,47898, Control_c, 0, 64, 67
2,47907, Note_on_c, 0, 71, 34
2,47916, Control_c, 0, 64, 65
2,47918, Note_on_c, 0, 46, 0
2,47936, Control_c, 0, 64, 62
2,47943, Note_on_c, 0, 44, 23
2,47955, Control_c, 0, 64, 61
2,47974, Control_c, 0, 64, 59
2,47993, Control_c, 0, 64, 58
2,48013, Control_c, 0, 64, 56
2,48032, Control_c, 0, 64, 54
2,48050, Control_c, 0, 64, 53
2,48069, Control_c, 0, 64, 52
2,48108, Control_c, 0, 64, 52
2,48146, Control_c, 0, 64, 51
2,48321, Note_on_c, 0, 71, 0
2,48327, Note_on_c, 0, 73, 36
2,48340, Note_on_c, 0, 46, 33
2,48395, Control_c, 0, 64, 51
2,48455, Note_on_c, 0, 44, 0
2,48492, Control_c, 0, 64, 50
2,48529, Control_c, 0, 64, 50
2,48549, Control_c, 0, 64, 49
2,48562, Note_on_c, 0, 66, 0
2,48568, Control_c, 0, 64, 48
2,48588, Control_c, 0, 64, 48
2,48683, Control_c, 0, 64, 47
2,48741, Control_c, 0, 64, 47
2,48749, Note_on_c, 0, 75, 42
2,48753, Note_on_c, 0, 47, 36
2,48768, Note_on_c, 0, 65, 22
2,48780, Control_c, 0, 64, 46
2,48794, Note_on_c, 0, 73, 0
2,48852, Note_on_c, 0, 46, 0
2,49028, Control_c, 0, 64, 47
2,49047, Control_c, 0, 64, 49
2,49067, Control_c, 0, 64, 52
2,49085, Control_c, 0, 64, 56
2,49105, Control_c, 0, 64, 59
2,49124, Control_c, 0, 64, 61
2,49130, Note_on_c, 0, 65, 0
2,49144, Control_c, 0, 64, 62
2,49162, Control_c, 0, 64, 63
2,49170, Note_on_c, 0, 77, 48
2,49175, Note_on_c, 0, 49, 27
2,49177, Note_on_c, 0, 47, 0
2,49182, Control_c, 0, 64, 63
2,49201, Control_c, 0, 64, 64
2,49220, Control_c, 0, 64, 65
2,49237, Note_on_c, 0, 75, 0
2,49239, Control_c, 0, 64, 66
2,49259, Control_c, 0, 64, 66
2,49278, Control_c, 0, 64, 67
2,49297, Control_c, 0, 64, 68
2,49316, Control_c, 0, 64, 68
2,49339, Note_on_c, 0, 49, 0
2,49470, Control_c, 0, 64, 68
2,49508, Control_c, 0, 64, 67
2,49547, Control_c, 0, 64, 66
2,49565, Control_c, 0, 64, 66
2,49581, Note_on_c, 0, 78, 48
2,49582, Note_on_c, 0, 77, 0
2,49585, Control_c, 0, 64, 65
2,49604, Control_c, 0, 64, 65
2,49610, Note_on_c, 0, 51, 36
2,49624, Control_c, 0, 64, 64
2,49642, Control_c, 0, 64, 64
2,49681, Control_c, 0, 64, 63
2,49719, Control_c, 0, 64, 63
2,49777, Control_c, 0, 64, 62
2,49873, Control_c, 0, 64, 62
2,49984, Note_on_c, 0, 53, 39
2,49991, Note_on_c, 0, 80, 63
2,50006, Control_c, 0, 64, 61
2,50044, Control_c, 0, 64, 61
2,50059, Note_on_c, 0, 51, 0
2,50064, Control_c, 0, 64, 60
2,50075, Note_on_c, 0, 78, 0
2,50083, Control_c, 0, 64, 60
2,50121, Control_c, 0, 64, 59
2,50179, Control_c, 0, 64, 59
2,50237, Control_c, 0, 64, 58
2,50295, Control_c, 0, 64, 58
2,50352, Control_c, 0, 64, 57
2,50403, Note_on_c, 0, 53, 0
2,50406, Note_on_c, 0, 82, 68
2,50429, Control_c, 0, 64, 57
2,50432, Note_on_c, 0, 54, 39
2,50432, Note_on_c, 0, 63, 47
2,50448, Control_c, 0, 64, 56
2,50464, Note_on_c, 0, 80, 0
2,50467, Control_c, 0, 64, 56
2,50524, Control_c, 0, 64, 56
2,50736, Control_c, 0, 64, 56
2,50755, Control_c, 0, 64, 54
2,50775, Control_c, 0, 64, 53
2,50793, Control_c, 0, 64, 51
2,50813, Control_c, 0, 64, 50
2,50835, Note_on_c, 0, 83, 60
2,50838, Note_on_c, 0, 56, 34
2,50852, Control_c, 0, 64, 51
2,50870, Control_c, 0, 64, 55
2,50876, Note_on_c, 0, 54, 0
2,50889, Control_c, 0, 64, 59
2,50897, Note_on_c, 0, 82, 0
2,50909, Control_c, 0, 64, 62
2,50928, Control_c, 0, 64, 63
2,50948, Control_c, 0, 64, 64
2,50967, Control_c, 0, 64, 65
2,50987, Control_c, 0, 64, 66
2,51005, Control_c, 0, 64, 67
2,51025, Control_c, 0, 64, 67
2,51034, Note_on_c, 0, 56, 0
2,51044, Control_c, 0, 64, 68
2,51064, Control_c, 0, 64, 68
2,51140, Control_c, 0, 64, 69
2,51175, Note_on_c, 0, 83, 0
2,51179, Control_c, 0, 64, 69
2,51231, Note_on_c, 0, 63, 0
2,51236, Control_c, 0, 64, 68
2,51242, Note_on_c, 0, 58, 48
2,51242, Note_on_c, 0, 61, 52
2,51256, Control_c, 0, 64, 68
2,51274, Control_c, 0, 64, 67
2,51294, Control_c, 0, 64, 66
2,51313, Control_c, 0, 64, 65
2,51333, Control_c, 0, 64, 64
2,51351, Control_c, 0, 64, 64
2,51428, Control_c, 0, 64, 63
2,51639, Control_c, 0, 64, 63
2,51641, Note_on_c, 0, 73, 66
2,51649, Note_on_c, 0, 61, 0
2,51659, Note_on_c, 0, 58, 0
2,51660, Note_on_c, 0, 56, 39
2,51666, Note_on_c, 0, 65, 38
2,51678, Control_c, 0, 64, 62
2,51697, Control_c, 0, 64, 62
2,51736, Control_c, 0, 64, 61
2,51774, Control_c, 0, 64, 61
2,51813, Control_c, 0, 64, 60
2,51908, Control_c, 0, 64, 60
2,52064, Note_on_c, 0, 58, 44
2,52068, Note_on_c, 0, 65, 0
2,52069, Note_on_c, 0, 78, 64
2,52077, Note_on_c, 0, 66, 40
2,52081, Control_c, 0, 64, 59
2,52134, Note_on_c, 0, 73, 0
2,52139, Control_c, 0, 64, 59
2,52200, Note_on_c, 0, 56, 0
2,52216, Control_c, 0, 64, 58
2,52293, Control_c, 0, 64, 58
2,52388, Control_c, 0, 64, 57
2,52407, Control_c, 0, 64, 57
2,52445, Control_c, 0, 64, 56
2,52465, Note_on_c, 0, 68, 60
2,52473, Note_on_c, 0, 59, 57
2,52504, Control_c, 0, 64, 56
2,52522, Control_c, 0, 64, 55
2,52526, Note_on_c, 0, 58, 0
2,52542, Control_c, 0, 64, 55
2,52549, Note_on_c, 0, 66, 0
2,52561, Control_c, 0, 64, 54
2,52580, Control_c, 0, 64, 54
2,52599, Control_c, 0, 64, 53
2,52619, Control_c, 0, 64, 53
2,52638, Control_c, 0, 64, 52
2,52657, Control_c, 0, 64, 51
2,52676, Control_c, 0, 64, 51
2,52696, Control_c, 0, 64, 50
2,52714, Control_c, 0, 64, 50
2,52734, Control_c, 0, 64, 49
2,52753, Control_c, 0, 64, 49
2,52773, Control_c, 0, 64, 48
2,52793, Control_c, 0, 64, 48
2,52813, Control_c, 0, 64, 47
2,52832, Control_c, 0, 64, 46
2,52850, Control_c, 0, 64, 45
2,52868, Control_c, 0, 64, 42
2,52887, Control_c, 0, 64, 38
2,52888, Note_on_c, 0, 70, 55
2,52906, Note_on_c, 0, 61, 59
2,52907, Control_c, 0, 64, 34
2,52917, Note_on_c, 0, 59, 0
2,52925, Control_c, 0, 64, 31
2,52936, Note_on_c, 0, 68, 0
2,52984, Control_c, 0, 64, 34
2,53002, Control_c, 0, 64, 39
2,53022, Control_c, 0, 64, 45
2,53041, Control_c, 0, 64, 51
2,53060, Control_c, 0, 64, 56
2,53079, Control_c, 0, 64, 58
2,53099, Control_c, 0, 64, 59
2,53118, Control_c, 0, 64, 60
2,53137, Control_c, 0, 64, 61
2,53156, Control_c, 0, 64, 62
2,53176, Control_c, 0, 64, 62
2,53194, Control_c, 0, 64, 63
2,53233, Control_c, 0, 64, 63
2,53253, Control_c, 0, 64, 64
2,53290, Control_c, 0, 64, 64
2,53294, Note_on_c, 0, 78, 0
2,53303, Note_on_c, 0, 71, 58
2,53312, Note_on_c, 0, 70, 0
2,53348, Control_c, 0, 64, 65
2,53482, Control_c, 0, 64, 64
2,53617, Control_c, 0, 64, 64
2,53694, Control_c, 0, 64, 63
2,53713, Control_c, 0, 64, 60
2,53721, Note_on_c, 0, 77, 49
2,53730, Note_on_c, 0, 49, 60
2,53731, Note_on_c, 0, 73, 52
2,53733, Control_c, 0, 64, 54
2,53747, Note_on_c, 0, 71, 0
2,53752, Control_c, 0, 64, 44
2,53771, Control_c, 0, 64, 31
2,53786, Note_on_c, 0, 61, 0
2,53791, Control_c, 0, 64, 9
2,53809, Control_c, 0, 64, 0
2,53885, Control_c, 0, 64, 31
2,53905, Control_c, 0, 64, 48
2,53924, Control_c, 0, 64, 56
2,53944, Control_c, 0, 64, 60
2,53962, Control_c, 0, 64, 61
2,53982, Control_c, 0, 64, 62
2,54001, Control_c, 0, 64, 62
2,54020, Control_c, 0, 64, 63
2,54039, Control_c, 0, 64, 63
2,54116, Control_c, 0, 64, 64
2,54154, Note_on_c, 0, 71, 59
2,54174, Control_c, 0, 64, 64
2,54194, Note_on_c, 0, 73, 0
2,54365, Control_c, 0, 64, 65
2,54539, Control_c, 0, 64, 64
2,54574, Note_on_c, 0, 70, 58
2,54577, Control_c, 0, 64, 62
2,54582, Note_on_c, 0, 42, 64
2,54584, Note_on_c, 0, 77, 0
2,54596, Control_c, 0, 64, 56
2,54616, Control_c, 0, 64, 38
2,54634, Control_c, 0, 64, 0
2,54667, Note_on_c, 0, 49, 0
2,54682, Note_on_c, 0, 71, 0
2,54751, Control_c, 0, 64, 24
2,54769, Control_c, 0, 64, 45
2,54788, Control_c, 0, 64, 55
2,54807, Control_c, 0, 64, 59
2,54827, Control_c, 0, 64, 60
2,54845, Control_c, 0, 64, 61
2,54865, Control_c, 0, 64, 62
2,54884, Control_c, 0, 64, 63
2,54922, Control_c, 0, 64, 64
2,54961, Control_c, 0, 64, 64
2,54974, Note_on_c, 0, 68, 64
2,54980, Control_c, 0, 64, 65
2,54999, Control_c, 0, 64, 65
2,55047, Note_on_c, 0, 70, 0
2,55364, Control_c, 0, 64, 65
2,55399, Note_on_c, 0, 54, 67
2,55401, Note_on_c, 0, 75, 58
2,55402, Control_c, 0, 64, 64
2,55409, Note_on_c, 0, 66, 51
2,55413, Note_on_c, 0, 68, 0
2,55422, Control_c, 0, 64, 59
2,55441, Control_c, 0, 64, 44
2,55460, Control_c, 0, 64, 0
2,55576, Control_c, 0, 64, 27
2,55594, Control_c, 0, 64, 50
2,55614, Control_c, 0, 64, 58
2,55633, Control_c, 0, 64, 61
2,55653, Control_c, 0, 64, 62
2,55671, Control_c, 0, 64, 63
2,55690, Control_c, 0, 64, 63
2,55710, Control_c, 0, 64, 64
2,55774, Note_on_c, 0, 66, 0
2,55777, Note_on_c, 0, 42, 0
2,55806, Control_c, 0, 64, 64
2,55830, Note_on_c, 0, 73, 54
2,55845, Control_c, 0, 64, 65
2,55845, Note_on_c, 0, 65, 41
2,55887, Note_on_c, 0, 75, 0
2,55960, Control_c, 0, 64, 64
2,55999, Note_on_c, 0, 65, 0
2,56018, Control_c, 0, 64, 65
2,56134, Control_c, 0, 64, 64
2,56152, Control_c, 0, 64, 64
2,56171, Control_c, 0, 64, 60
2,56191, Control_c, 0, 64, 50
2,56209, Control_c, 0, 64, 32
2,56222, Note_on_c, 0, 72, 55
2,56229, Control_c, 0, 64, 0
2,56238, Note_on_c, 0, 63, 43
2,56244, Note_on_c, 0, 73, 0
2,56268, Control_c, 0, 64, 19
2,56286, Control_c, 0, 64, 40
2,56306, Control_c, 0, 64, 54
2,56325, Control_c, 0, 64, 60
2,56344, Control_c, 0, 64, 62
2,56363, Control_c, 0, 64, 64
2,56383, Control_c, 0, 64, 65
2,56402, Control_c, 0, 64, 66
2,56421, Control_c, 0, 64, 67
2,56440, Control_c, 0, 64, 68
2,56460, Control_c, 0, 64, 70
2,56478, Control_c, 0, 64, 71
2,56497, Note_on_c, 0, 63, 0
2,56498, Control_c, 0, 64, 72
2,56517, Control_c, 0, 64, 73
2,56537, Control_c, 0, 64, 73
2,56594, Control_c, 0, 64, 70
2,56613, Note_on_c, 0, 54, 0
2,56614, Control_c, 0, 64, 65
2,56614, Note_on_c, 0, 72, 0
2,56636, Note_on_c, 0, 74, 54
2,56639, Control_c, 0, 64, 56
2,56653, Note_on_c, 0, 65, 48
2,56659, Control_c, 0, 64, 47
2,56688, Note_on_c, 0, 53, 47
2,56697, Control_c, 0, 64, 51
2,56713, Control_c, 0, 64, 57
2,56733, Control_c, 0, 64, 61
2,56751, Control_c, 0, 64, 64
2,56770, Control_c, 0, 64, 65
2,56790, Control_c, 0, 64, 68
2,56808, Control_c, 0, 64, 70
2,56828, Control_c, 0, 64, 72
2,56832, Note_on_c, 0, 65, 0
2,56847, Control_c, 0, 64, 73
2,56944, Control_c, 0, 64, 74
2,56982, Control_c, 0, 64, 73
2,57001, Control_c, 0, 64, 70
2,57020, Control_c, 0, 64, 64
2,57039, Control_c, 0, 64, 53
2,57044, Note_on_c, 0, 75, 69
2,57048, Note_on_c, 0, 74, 0
2,57053, Note_on_c, 0, 51, 49
2,57059, Control_c, 0, 64, 40
2,57061, Note_on_c, 0, 66, 52
2,57063, Note_on_c, 0, 53, 0
2,57078, Control_c, 0, 64, 37
2,57097, Control_c, 0, 64, 39
2,57116, Control_c, 0, 64, 48
2,57136, Control_c, 0, 64, 57
2,57154, Control_c, 0, 64, 62
2,57174, Control_c, 0, 64, 64
2,57193, Control_c, 0, 64, 66
2,57213, Control_c, 0, 64, 68
2,57231, Control_c, 0, 64, 69
2,57245, Note_on_c, 0, 66, 0
2,57250, Control_c, 0, 64, 70
2,57270, Control_c, 0, 64, 71
2,57288, Control_c, 0, 64, 70
2,57308, Control_c, 0, 64, 70
2,57347, Control_c, 0, 64, 69
2,57385, Control_c, 0, 64, 67
2,57404, Control_c, 0, 64, 63
2,57424, Control_c, 0, 64, 51
2,57425, Note_on_c, 0, 77, 69
2,57442, Control_c, 0, 64, 39
2,57443, Note_on_c, 0, 70, 56
2,57448, Note_on_c, 0, 49, 48
2,57462, Control_c, 0, 64, 33
2,57481, Control_c, 0, 64, 34
2,57482, Note_on_c, 0, 75, 0
2,57491, Note_on_c, 0, 51, 0
2,57500, Control_c, 0, 64, 43
2,57519, Control_c, 0, 64, 54
2,57539, Control_c, 0, 64, 60
2,57558, Control_c, 0, 64, 63
2,57577, Control_c, 0, 64, 64
2,57595, Control_c, 0, 64, 65
2,57615, Control_c, 0, 64, 66
2,57633, Control_c, 0, 64, 67
2,57653, Control_c, 0, 64, 68
2,57707, Control_c, 0, 64, 68
2,57822, Control_c, 0, 64, 67
2,57841, Control_c, 0, 64, 63
2,57843, Note_on_c, 0, 75, 63
2,57848, Note_on_c, 0, 78, 68
2,57850, Note_on_c, 0, 49, 0
2,57857, Note_on_c, 0, 48, 47
2,57860, Control_c, 0, 64, 50
2,57865, Note_on_c, 0, 70, 0
2,57879, Control_c, 0, 64, 25
2,57899, Control_c, 0, 64, 0
2,57899, Note_on_c, 0, 77, 0
2,57956, Control_c, 0, 64, 37
2,57976, Control_c, 0, 64, 53
2,57994, Control_c, 0, 64, 60
2,58014, Control_c, 0, 64, 63
2,58033, Control_c, 0, 64, 63
2,58052, Control_c, 0, 64, 64
2,58264, Note_on_c, 0, 73, 49
2,58280, Note_on_c, 0, 46, 40
2,58282, Control_c, 0, 64, 63
2,58311, Note_on_c, 0, 48, 0
2,58321, Control_c, 0, 64, 63
2,58340, Control_c, 0, 64, 62
2,58513, Control_c, 0, 64, 62
2,58532, Control_c, 0, 64, 61
2,58552, Control_c, 0, 64, 61
2,58571, Control_c, 0, 64, 60
2,58609, Control_c, 0, 64, 60
2,58648, Control_c, 0, 64, 59
2,58660, Note_on_c, 0, 72, 54
2,58666, Note_on_c, 0, 77, 64
2,58668, Control_c, 0, 64, 57
2,58669, Note_on_c, 0, 75, 0
2,58674, Note_on_c, 0, 45, 48
2,58674, Note_on_c, 0, 73, 0
2,58686, Control_c, 0, 64, 55
2,58706, Control_c, 0, 64, 52
2,58710, Note_on_c, 0, 46, 0
2,58725, Control_c, 0, 64, 49
2,58744, Control_c, 0, 64, 47
2,58763, Control_c, 0, 64, 45
2,58783, Control_c, 0, 64, 44
2,58801, Note_on_c, 0, 78, 0
2,58802, Control_c, 0, 64, 43
2,58955, Control_c, 0, 64, 43
2,59051, Control_c, 0, 64, 43
2,59071, Control_c, 0, 64, 44
2,59078, Note_on_c, 0, 41, 43
2,59078, Note_on_c, 0, 75, 56
2,59109, Note_on_c, 0, 45, 0
2,59128, Control_c, 0, 64, 43
2,59148, Control_c, 0, 64, 43
2,59149, Note_on_c, 0, 77, 0
2,59166, Control_c, 0, 64, 42
2,59186, Control_c, 0, 64, 41
2,59358, Control_c, 0, 64, 39
2,59378, Control_c, 0, 64, 39
2,59397, Control_c, 0, 64, 38
2,59478, Note_on_c, 0, 73, 57
2,59482, Note_on_c, 0, 46, 52
2,59522, Note_on_c, 0, 75, 0
2,59551, Control_c, 0, 64, 37
2,59569, Control_c, 0, 64, 36
2,59590, Control_c, 0, 64, 35
2,59605, Note_on_c, 0, 41, 0
2,59629, Control_c, 0, 64, 35
2,59859, Control_c, 0, 64, 35
2,59878, Control_c, 0, 64, 36
2,59886, Note_on_c, 0, 48, 49
2,59901, Note_on_c, 0, 75, 68
2,59926, Note_on_c, 0, 72, 0
2,59940, Note_on_c, 0, 46, 0
2,60062, Note_on_c, 0, 73, 0
2,60297, Note_on_c, 0, 77, 64
2,60300, Note_on_c, 0, 70, 61
2,60313, Note_on_c, 0, 49, 56
2,60346, Note_on_c, 0, 48, 0
2,60370, Note_on_c, 0, 75, 0
2,60378, Control_c, 0, 64, 35
2,60416, Control_c, 0, 64, 34
2,60549, Control_c, 0, 64, 34
2,60568, Control_c, 0, 64, 33
2,60588, Control_c, 0, 64, 32
2,60606, Control_c, 0, 64, 32
2,60645, Control_c, 0, 64, 31
2,60683, Control_c, 0, 64, 31
2,60687, Note_on_c, 0, 78, 69
2,60709, Note_on_c, 0, 51, 47
2,60757, Note_on_c, 0, 77, 0
2,60760, Control_c, 0, 64, 29
2,60780, Control_c, 0, 64, 29
2,60798, Control_c, 0, 64, 28
2,60801, Note_on_c, 0, 49, 0
2,61104, Note_on_c, 0, 73, 64
2,61135, Note_on_c, 0, 51, 0
2,61142, Note_on_c, 0, 53, 47
2,61278, Control_c, 0, 64, 29
2,61375, Control_c, 0, 64, 29
2,61414, Control_c, 0, 64, 30
2,61414, Note_on_c, 0, 78, 0
2,61489, Control_c, 0, 64, 31
2,61495, Note_on_c, 0, 70, 0
2,61509, Control_c, 0, 64, 31
2,61531, Note_on_c, 0, 53, 0
2,61546, Note_on_c, 0, 51, 39
2,61566, Control_c, 0, 64, 32
2,61643, Control_c, 0, 64, 32
2,61894, Control_c, 0, 64, 32
2,61924, Note_on_c, 0, 51, 0
2,61929, Note_on_c, 0, 73, 0
2,61931, Control_c, 0, 64, 31
2,61942, Note_on_c, 0, 69, 42
2,61952, Note_on_c, 0, 72, 42
2,61961, Note_on_c, 0, 53, 25
2,61969, Control_c, 0, 64, 31
2,61989, Control_c, 0, 64, 30
2,62008, Control_c, 0, 64, 29
2,62028, Control_c, 0, 64, 29
2,62104, Control_c, 0, 64, 33
2,62123, Control_c, 0, 64, 40
2,62143, Control_c, 0, 64, 48
2,62162, Control_c, 0, 64, 55
2,62181, Control_c, 0, 64, 58
2,62200, Control_c, 0, 64, 60
2,62220, Control_c, 0, 64, 61
2,62238, Control_c, 0, 64, 62
2,62258, Control_c, 0, 64, 63
2,62277, Control_c, 0, 64, 63
2,62297, Control_c, 0, 64, 64
2,62315, Control_c, 0, 64, 65
2,62321, Note_on_c, 0, 69, 0
2,62335, Control_c, 0, 64, 65
2,62354, Control_c, 0, 64, 66
2,62369, Note_on_c, 0, 72, 0
2,62374, Control_c, 0, 64, 67
2,62389, Note_on_c, 0, 41, 25
2,62393, Control_c, 0, 64, 68
2,62412, Control_c, 0, 64, 69
2,62432, Control_c, 0, 64, 71
2,62450, Control_c, 0, 64, 72
2,62454, Note_on_c, 0, 53, 0
2,62469, Control_c, 0, 64, 73
2,62488, Control_c, 0, 64, 74
2,62508, Control_c, 0, 64, 75
2,62526, Control_c, 0, 64, 75
2,62680, Control_c, 0, 64, 75
2,62831, Control_c, 0, 64, 74
2,62837, Note_on_c, 0, 58, 67
2,62843, Note_on_c, 0, 70, 71
2,62851, Control_c, 0, 64, 69
2,62858, Note_on_c, 0, 46, 43
2,62869, Control_c, 0, 64, 62
2,62889, Control_c, 0, 64, 48
2,62908, Control_c, 0, 64, 30
2,62927, Control_c, 0, 64, 13
2,62933, Note_on_c, 0, 41, 0
2,62966, Control_c, 0, 64, 34
2,62985, Control_c, 0, 64, 49
2,63004, Control_c, 0, 64, 58
2,63023, Control_c, 0, 64, 62
2,63043, Control_c, 0, 64, 64
2,63061, Control_c, 0, 64, 65
2,63080, Control_c, 0, 64, 67
2,63100, Control_c, 0, 64, 69
2,63119, Control_c, 0, 64, 71
2,63138, Control_c, 0, 64, 73
2,63157, Control_c, 0, 64, 74
2,63215, Control_c, 0, 64, 75
2,63273, Note_on_c, 0, 45, 39
2,63311, Control_c, 0, 64, 74
2,63331, Control_c, 0, 64, 74
2,63331, Note_on_c, 0, 46, 0
2,63369, Control_c, 0, 64, 73
2,63656, Note_on_c, 0, 65, 76
2,63657, Control_c, 0, 64, 71
2,63675, Control_c, 0, 64, 65
2,63691, Note_on_c, 0, 46, 40
2,63695, Control_c, 0, 64, 51
2,63714, Control_c, 0, 64, 15
2,63734, Control_c, 0, 64, 0
2,63772, Note_on_c, 0, 45, 0
2,63811, Control_c, 0, 64, 42
2,63829, Control_c, 0, 64, 57
2,63849, Control_c, 0, 64, 63
2,63868, Control_c, 0, 64, 64
2,63887, Control_c, 0, 64, 66
2,63906, Control_c, 0, 64, 67
2,63926, Control_c, 0, 64, 68
2,63945, Control_c, 0, 64, 70
2,63963, Note_on_c, 0, 58, 0
2,63964, Control_c, 0, 64, 70
2,63983, Control_c, 0, 64, 71
2,64003, Control_c, 0, 64, 71
2,64040, Control_c, 0, 64, 72
2,64060, Control_c, 0, 64, 73
2,64079, Control_c, 0, 64, 74
2,64087, Note_on_c, 0, 48, 42
2,64098, Control_c, 0, 64, 74
2,64117, Control_c, 0, 64, 75
2,64119, Note_on_c, 0, 70, 0
2,64120, Note_on_c, 0, 46, 0
2,64291, Control_c, 0, 64, 75
2,64347, Control_c, 0, 64, 75
2,64384, Control_c, 0, 64, 74
2,64461, Control_c, 0, 64, 74
2,64480, Control_c, 0, 64, 70
2,64497, Note_on_c, 0, 70, 77
2,64500, Control_c, 0, 64, 63
2,64509, Note_on_c, 0, 48, 0
2,64517, Note_on_c, 0, 49, 50
2,64518, Control_c, 0, 64, 50
2,64538, Control_c, 0, 64, 27
2,64557, Control_c, 0, 64, 0
2,64653, Control_c, 0, 64, 17
2,64672, Control_c, 0, 64, 46
2,64692, Control_c, 0, 64, 58
2,64711, Control_c, 0, 64, 61
2,64730, Control_c, 0, 64, 63
2,64749, Control_c, 0, 64, 64
2,64769, Control_c, 0, 64, 64
2,64787, Control_c, 0, 64, 65
2,64807, Control_c, 0, 64, 65
2,64826, Control_c, 0, 64, 66
2,64846, Control_c, 0, 64, 68
2,64864, Control_c, 0, 64, 69
2,64884, Control_c, 0, 64, 71
2,64897, Note_on_c, 0, 66, 69
2,64898, Note_on_c, 0, 49, 0
2,64903, Control_c, 0, 64, 73
2,64904, Note_on_c, 0, 65, 0
2,64909, Note_on_c, 0, 48, 44
2,64921, Control_c, 0, 64, 74
2,64941, Control_c, 0, 64, 74
2,64998, Control_c, 0, 64, 74
2,64999, Note_on_c, 0, 66, 0
2,65037, Control_c, 0, 64, 73
2,65191, Control_c, 0, 64, 73
2,65210, Control_c, 0, 64, 72
2,65288, Control_c, 0, 64, 72
2,65307, Control_c, 0, 64, 69
2,65318, Note_on_c, 0, 77, 84
2,65326, Control_c, 0, 64, 63
2,65326, Note_on_c, 0, 70, 0
2,65341, Note_on_c, 0, 65, 62
2,65344, Control_c, 0, 64, 44
2,65346, Note_on_c, 0, 49, 42
2,65364, Control_c, 0, 64, 0
2,65444, Note_on_c, 0, 48, 0
2,65498, Control_c, 0, 64, 33
2,65517, Control_c, 0, 64, 55
2,65536, Control_c, 0, 64, 61
2,65555, Control_c, 0, 64, 62
2,65575, Control_c, 0, 64, 63
2,65594, Control_c, 0, 64, 63
2,65613, Control_c, 0, 64, 64
2,65632, Control_c, 0, 64, 64
2,65652, Control_c, 0, 64, 65
2,65671, Control_c, 0, 64, 66
2,65690, Control_c, 0, 64, 66
2,65709, Control_c, 0, 64, 67
2,65729, Control_c, 0, 64, 68
2,65733, Note_on_c, 0, 63, 58
2,65737, Note_on_c, 0, 51, 38
2,65815, Note_on_c, 0, 63, 0
2,65824, Note_on_c, 0, 49, 0
2,65844, Control_c, 0, 64, 67
2,66055, Control_c, 0, 64, 67
2,66074, Control_c, 0, 64, 66
2,66078, Note_on_c, 0, 51, 0
2,66093, Control_c, 0, 64, 61
2,66112, Control_c, 0, 64, 44
2,66132, Control_c, 0, 64, 0
2,66140, Note_on_c, 0, 53, 38
2,66152, Note_on_c, 0, 61, 47
2,66224, Control_c, 0, 64, 39
2,66242, Control_c, 0, 64, 56
2,66262, Control_c, 0, 64, 62
2,66281, Control_c, 0, 64, 63
2,66301, Control_c, 0, 64, 64
2,66319, Control_c, 0, 64, 65
2,66327, Note_on_c, 0, 77, 0
2,66339, Control_c, 0, 64, 66
2,66358, Control_c, 0, 64, 67
2,66377, Control_c, 0, 64, 68
2,66417, Note_on_c, 0, 61, 0
2,66435, Control_c, 0, 64, 67
2,66446, Note_on_c, 0, 53, 0
2,66531, Control_c, 0, 64, 66
2,66550, Control_c, 0, 64, 64
2,66554, Note_on_c, 0, 78, 74
2,66568, Note_on_c, 0, 63, 53
2,66570, Control_c, 0, 64, 63
2,66585, Note_on_c, 0, 51, 49
2,66588, Control_c, 0, 64, 63
2,66627, Control_c, 0, 64, 63
2,66646, Control_c, 0, 64, 64
2,66685, Control_c, 0, 64, 64
2,66704, Control_c, 0, 64, 65
2,66722, Control_c, 0, 64, 65
2,66733, Note_on_c, 0, 63, 0
2,66742, Control_c, 0, 64, 66
2,66761, Control_c, 0, 64, 67
2,66781, Control_c, 0, 64, 67
2,66798, Note_on_c, 0, 78, 0
2,66812, Note_on_c, 0, 65, 0
2,66838, Control_c, 0, 64, 68
2,66876, Control_c, 0, 64, 67
2,66896, Control_c, 0, 64, 65
2,66915, Control_c, 0, 64, 64
2,66934, Control_c, 0, 64, 63
2,66935, Note_on_c, 0, 77, 74
2,66954, Note_on_c, 0, 65, 58
2,66966, Note_on_c, 0, 49, 54
2,66981, Note_on_c, 0, 51, 0
2,66991, Control_c, 0, 64, 63
2,67011, Control_c, 0, 64, 64
2,67030, Control_c, 0, 64, 65
2,67050, Control_c, 0, 64, 65
2,67068, Control_c, 0, 64, 66
2,67088, Control_c, 0, 64, 67
2,67107, Control_c, 0, 64, 67
2,67228, Control_c, 0, 64, 67
2,67264, Control_c, 0, 64, 66
2,67349, Note_on_c, 0, 75, 70
2,67357, Note_on_c, 0, 51, 49
2,67380, Control_c, 0, 64, 66
2,67418, Control_c, 0, 64, 65
2,67437, Control_c, 0, 64, 64
2,67448, Note_on_c, 0, 77, 0
2,67456, Control_c, 0, 64, 64
2,67460, Note_on_c, 0, 49, 0
2,67475, Control_c, 0, 64, 63
2,67496, Note_on_c, 0, 51, 0
2,67514, Control_c, 0, 64, 63
2,67528, Note_on_c, 0, 53, 62
2,67552, Control_c, 0, 64, 62
2,67565, Note_on_c, 0, 65, 0
2,67572, Control_c, 0, 64, 62
2,67591, Control_c, 0, 64, 61
2,67610, Control_c, 0, 64, 60
2,67629, Control_c, 0, 64, 60
2,67649, Control_c, 0, 64, 59
2,67687, Control_c, 0, 64, 59
2,67706, Control_c, 0, 64, 57
2,67726, Control_c, 0, 64, 55
2,67744, Control_c, 0, 64, 46
2,67760, Note_on_c, 0, 58, 66
2,67760, Note_on_c, 0, 73, 64
2,67764, Control_c, 0, 64, 21
2,67767, Note_on_c, 0, 54, 57
2,67775, Note_on_c, 0, 75, 0
2,67783, Control_c, 0, 64, 0
2,67802, Note_on_c, 0, 53, 0
2,67906, Note_on_c, 0, 54, 0
2,67934, Note_on_c, 0, 53, 56
2,67936, Control_c, 0, 64, 11
2,67955, Control_c, 0, 64, 41
2,67975, Control_c, 0, 64, 53
2,67994, Control_c, 0, 64, 58
2,68013, Control_c, 0, 64, 60
2,68032, Control_c, 0, 64, 61
2,68052, Control_c, 0, 64, 62
2,68071, Control_c, 0, 64, 63
2,68090, Control_c, 0, 64, 64
2,68109, Control_c, 0, 64, 65
2,68129, Control_c, 0, 64, 66
2,68138, Note_on_c, 0, 53, 0
2,68144, Note_on_c, 0, 75, 64
2,68147, Control_c, 0, 64, 67
2,68167, Control_c, 0, 64, 67
2,68168, Note_on_c, 0, 54, 53
2,68169, Note_on_c, 0, 73, 0
2,68182, Note_on_c, 0, 58, 0
2,68186, Control_c, 0, 64, 68
2,68207, Note_on_c, 0, 54, 0
2,68300, Control_c, 0, 64, 68
2,68476, Control_c, 0, 64, 69
2,68514, Control_c, 0, 64, 67
2,68533, Control_c, 0, 64, 63
2,68553, Control_c, 0, 64, 53
2,68554, Note_on_c, 0, 75, 0
2,68565, Note_on_c, 0, 77, 64
2,68567, Note_on_c, 0, 45, 48
2,68571, Control_c, 0, 64, 37
2,68591, Control_c, 0, 64, 29
2,68610, Control_c, 0, 64, 34
2,68629, Control_c, 0, 64, 48
2,68648, Control_c, 0, 64, 59
2,68668, Control_c, 0, 64, 63
2,68687, Control_c, 0, 64, 65
2,68689, Note_on_c, 0, 77, 0
2,68706, Control_c, 0, 64, 67
2,68725, Control_c, 0, 64, 69
2,68745, Control_c, 0, 64, 70
2,68763, Control_c, 0, 64, 71
2,68783, Control_c, 0, 64, 71
2,68953, Note_on_c, 0, 63, 73
2,69033, Control_c, 0, 64, 71
2,69345, Note_on_c, 0, 46, 39
2,69379, Control_c, 0, 64, 69
2,69398, Control_c, 0, 64, 65
2,69404, Note_on_c, 0, 70, 77
2,69416, Note_on_c, 0, 45, 0
2,69418, Control_c, 0, 64, 55
2,69437, Control_c, 0, 64, 25
2,69456, Control_c, 0, 64, 0
2,69532, Control_c, 0, 64, 32
2,69552, Control_c, 0, 64, 56
2,69571, Control_c, 0, 64, 63
2,69590, Control_c, 0, 64, 65
2,69609, Control_c, 0, 64, 66
2,69629, Control_c, 0, 64, 67
2,69648, Control_c, 0, 64, 68
2,69667, Control_c, 0, 64, 69
2,69686, Control_c, 0, 64, 70
2,69706, Control_c, 0, 64, 71
2,69763, Control_c, 0, 64, 71
2,69782, Note_on_c, 0, 46, 0
2,69783, Control_c, 0, 64, 72
2,69801, Control_c, 0, 64, 72
2,69807, Note_on_c, 0, 61, 54
2,69897, Note_on_c, 0, 63, 0
2,69994, Control_c, 0, 64, 73
2,70012, Control_c, 0, 64, 73
2,70051, Control_c, 0, 64, 74
2,70148, Control_c, 0, 64, 71
2,70167, Control_c, 0, 64, 63
2,70187, Control_c, 0, 64, 41
2,70205, Control_c, 0, 64, 0
2,70205, Note_on_c, 0, 60, 65
2,70216, Note_on_c, 0, 61, 0
2,70220, Note_on_c, 0, 48, 49
2,70282, Control_c, 0, 64, 44
2,70302, Control_c, 0, 64, 60
2,70308, Note_on_c, 0, 70, 0
2,70321, Control_c, 0, 64, 64
2,70340, Control_c, 0, 64, 66
2,70359, Control_c, 0, 64, 67
2,70379, Control_c, 0, 64, 69
2,70398, Control_c, 0, 64, 71
2,70417, Control_c, 0, 64, 74
2,70436, Control_c, 0, 64, 75
2,70456, Control_c, 0, 64, 76
2,70474, Control_c, 0, 64, 75
2,70513, Control_c, 0, 64, 75
2,70593, Note_on_c, 0, 60, 0
2,70625, Note_on_c, 0, 75, 88
2,70628, Control_c, 0, 64, 74
2,70647, Control_c, 0, 64, 74
2,70667, Control_c, 0, 64, 73
2,70685, Control_c, 0, 64, 72
2,70859, Control_c, 0, 64, 72
2,70878, Control_c, 0, 64, 71
2,70897, Control_c, 0, 64, 71
2,70973, Control_c, 0, 64, 69
2,70993, Control_c, 0, 64, 63
2,71012, Control_c, 0, 64, 42
2,71034, Control_c, 0, 64, 0
2,71037, Note_on_c, 0, 48, 0
2,71037, Note_on_c, 0, 58, 50
2,71044, Note_on_c, 0, 49, 48
2,71128, Control_c, 0, 64, 46
2,71148, Control_c, 0, 64, 59
2,71166, Control_c, 0, 64, 63
2,71186, Control_c, 0, 64, 64
2,71205, Control_c, 0, 64, 65
2,71224, Control_c, 0, 64, 65
2,71243, Control_c, 0, 64, 66
2,71263, Control_c, 0, 64, 66
2,71282, Control_c, 0, 64, 67
2,71378, Control_c, 0, 64, 67
2,71417, Control_c, 0, 64, 66
2,71435, Control_c, 0, 64, 61
2,71442, Note_on_c, 0, 73, 69
2,71443, Note_on_c, 0, 46, 41
2,71454, Control_c, 0, 64, 41
2,71474, Control_c, 0, 64, 0
2,71510, Note_on_c, 0, 75, 0
2,71525, Note_on_c, 0, 49, 0
2,71551, Control_c, 0, 64, 23
2,71569, Control_c, 0, 64, 53
2,71589, Control_c, 0, 64, 62
2,71608, Control_c, 0, 64, 64
2,71628, Control_c, 0, 64, 64
2,71646, Control_c, 0, 64, 65
2,71800, Control_c, 0, 64, 64
2,71820, Control_c, 0, 64, 61
2,71839, Control_c, 0, 64, 49
2,71841, Note_on_c, 0, 73, 0
2,71853, Note_on_c, 0, 72, 59
2,71858, Control_c, 0, 64, 11
2,71865, Note_on_c, 0, 53, 40
2,71877, Control_c, 0, 64, 0
2,71934, Control_c, 0, 64, 27
2,71954, Control_c, 0, 64, 51
2,71973, Control_c, 0, 64, 60
2,71992, Control_c, 0, 64, 63
2,72011, Control_c, 0, 64, 64
2,72031, Control_c, 0, 64, 64
2,72049, Control_c, 0, 64, 65
2,72087, Control_c, 0, 64, 66
2,72107, Control_c, 0, 64, 65
2,72164, Control_c, 0, 64, 65
2,72184, Control_c, 0, 64, 63
2,72202, Control_c, 0, 64, 55
2,72222, Control_c, 0, 64, 32
2,72238, Note_on_c, 0, 68, 69
2,72241, Control_c, 0, 64, 0
2,72249, Note_on_c, 0, 51, 36
2,72271, Note_on_c, 0, 46, 0
2,72296, Note_on_c, 0, 58, 0
2,72330, Note_on_c, 0, 72, 0
2,72356, Control_c, 0, 64, 13
2,72376, Control_c, 0, 64, 41
2,72394, Control_c, 0, 64, 53
2,72413, Control_c, 0, 64, 58
2,72424, Note_on_c, 0, 53, 0
2,72433, Control_c, 0, 64, 60
2,72452, Control_c, 0, 64, 60
2,72471, Control_c, 0, 64, 61
2,72528, Control_c, 0, 64, 60
2,72548, Control_c, 0, 64, 56
2,72567, Control_c, 0, 64, 44
2,72587, Control_c, 0, 64, 0
2,72640, Note_on_c, 0, 50, 35
2,72647, Note_on_c, 0, 70, 52
2,72667, Note_on_c, 0, 51, 0
2,72756, Control_c, 0, 64, 42
2,72776, Control_c, 0, 64, 54
2,72795, Control_c, 0, 64, 58
2,72814, Control_c, 0, 64, 60
2,72833, Control_c, 0, 64, 61
2,72853, Control_c, 0, 64, 62
2,72891, Control_c, 0, 64, 60
2,72899, Note_on_c, 0, 68, 0
2,72910, Control_c, 0, 64, 51
2,72930, Control_c, 0, 64, 27
2,72950, Control_c, 0, 64, 0
2,73008, Control_c, 0, 64, 40
2,73025, Control_c, 0, 64, 54
2,73035, Note_on_c, 0, 66, 58
2,73045, Control_c, 0, 64, 58
2,73063, Note_on_c, 0, 51, 30
2,73064, Control_c, 0, 64, 59
2,73117, Note_on_c, 0, 50, 0
2,73121, Control_c, 0, 64, 58
2,73141, Control_c, 0, 64, 57
2,73159, Control_c, 0, 64, 56
2,73179, Control_c, 0, 64, 55
2,73198, Control_c, 0, 64, 53
2,73217, Control_c, 0, 64, 51
2,73224, Note_on_c, 0, 70, 0
2,73236, Control_c, 0, 64, 49
2,73256, Control_c, 0, 64, 43
2,73275, Control_c, 0, 64, 33
2,73294, Control_c, 0, 64, 0
2,73398, Note_on_c, 0, 66, 0
2,73419, Note_on_c, 0, 65, 50
2,73467, Control_c, 0, 64, 24
2,73486, Control_c, 0, 64, 52
2,73505, Control_c, 0, 64, 61
2,73525, Control_c, 0, 64, 63
2,73544, Control_c, 0, 64, 64
2,73562, Control_c, 0, 64, 65
2,73601, Control_c, 0, 64, 66
2,73621, Control_c, 0, 64, 67
2,73639, Control_c, 0, 64, 68
2,73659, Control_c, 0, 64, 70
2,73677, Note_on_c, 0, 65, 0
2,73697, Control_c, 0, 64, 67
2,73716, Control_c, 0, 64, 63
2,73736, Control_c, 0, 64, 58
2,73755, Control_c, 0, 64, 55
2,73793, Control_c, 0, 64, 57
2,73805, Note_on_c, 0, 51, 0
2,73813, Control_c, 0, 64, 61
2,73815, Note_on_c, 0, 50, 37
2,73831, Control_c, 0, 64, 64
2,73842, Note_on_c, 0, 80, 68
2,73851, Control_c, 0, 64, 65
2,73870, Control_c, 0, 64, 66
2,73890, Control_c, 0, 64, 67
2,73908, Control_c, 0, 64, 68
2,74007, Note_on_c, 0, 50, 0
2,74062, Control_c, 0, 64, 68
2,74101, Control_c, 0, 64, 69
2,74119, Control_c, 0, 64, 70
2,74158, Control_c, 0, 64, 68
2,74177, Control_c, 0, 64, 64
2,74196, Control_c, 0, 64, 56
2,74216, Control_c, 0, 64, 47
2,74235, Control_c, 0, 64, 45
2,74243, Note_on_c, 0, 63, 45
2,74254, Control_c, 0, 64, 47
2,74257, Note_on_c, 0, 51, 31
2,74273, Control_c, 0, 64, 54
2,74293, Control_c, 0, 64, 60
2,74311, Control_c, 0, 64, 63
2,74331, Control_c, 0, 64, 65
2,74350, Control_c, 0, 64, 66
2,74370, Control_c, 0, 64, 66
2,74522, Control_c, 0, 64, 65
2,74542, Control_c, 0, 64, 64
2,74561, Control_c, 0, 64, 63
2,74581, Control_c, 0, 64, 61
2,74599, Control_c, 0, 64, 60
2,74619, Control_c, 0, 64, 59
2,74622, Note_on_c, 0, 63, 0
2,74638, Control_c, 0, 64, 58
2,74657, Control_c, 0, 64, 57
2,74657, Note_on_c, 0, 78, 56
2,74663, Note_on_c, 0, 60, 38
2,74676, Control_c, 0, 64, 56
2,74696, Control_c, 0, 64, 55
2,74715, Control_c, 0, 64, 55
2,74726, Note_on_c, 0, 80, 0
2,74753, Control_c, 0, 64, 54
2,74773, Control_c, 0, 64, 53
2,74791, Control_c, 0, 64, 52
2,74811, Control_c, 0, 64, 50
2,74830, Control_c, 0, 64, 48
2,74850, Control_c, 0, 64, 47
2,74869, Control_c, 0, 64, 46
2,74984, Control_c, 0, 64, 45
2,75002, Control_c, 0, 64, 44
2,75022, Control_c, 0, 64, 43
2,75041, Control_c, 0, 64, 40
2,75059, Note_on_c, 0, 77, 49
2,75061, Control_c, 0, 64, 39
2,75066, Note_on_c, 0, 78, 0
2,75087, Note_on_c, 0, 60, 0
2,75091, Note_on_c, 0, 57, 27
2,75118, Control_c, 0, 64, 41
2,75137, Control_c, 0, 64, 41
2,75156, Control_c, 0, 64, 42
2,75176, Control_c, 0, 64, 42
2,75214, Control_c, 0, 64, 42
2,75233, Control_c, 0, 64, 41
2,75253, Control_c, 0, 64, 39
2,75271, Control_c, 0, 64, 36
2,75291, Control_c, 0, 64, 34
2,75310, Control_c, 0, 64, 33
2,75330, Control_c, 0, 64, 32
2,75348, Control_c, 0, 64, 27
2,75368, Control_c, 0, 64, 11
2,75387, Control_c, 0, 64, 0
2,75461, Note_on_c, 0, 58, 41
2,75462, Note_on_c, 0, 57, 0
2,75465, Note_on_c, 0, 61, 42
2,75576, Note_on_c, 0, 51, 0
2,75828, Control_c, 0, 64, 28
2,75848, Control_c, 0, 64, 40
2,75867, Control_c, 0, 64, 47
2,75886, Control_c, 0, 64, 51
2,75887, Note_on_c, 0, 54, 33
2,75897, Note_on_c, 0, 70, 68
2,75905, Control_c, 0, 64, 54
2,75905, Note_on_c, 0, 61, 0
2,75924, Control_c, 0, 64, 56
2,75944, Control_c, 0, 64, 56
2,75962, Control_c, 0, 64, 51
2,75982, Control_c, 0, 64, 42
2,76001, Control_c, 0, 64, 29
2,76021, Control_c, 0, 64, 19
2,76059, Note_on_c, 0, 77, 0
2,76071, Note_on_c, 0, 75, 74
2,76078, Control_c, 0, 64, 21
2,76097, Control_c, 0, 64, 26
2,76116, Control_c, 0, 64, 33
2,76136, Control_c, 0, 64, 43
2,76155, Control_c, 0, 64, 51
2,76174, Control_c, 0, 64, 56
2,76184, Note_on_c, 0, 70, 0
2,76193, Control_c, 0, 64, 59
2,76213, Control_c, 0, 64, 60
2,76231, Control_c, 0, 64, 60
2,76242, Note_on_c, 0, 75, 0
2,76247, Note_on_c, 0, 77, 69
2,76251, Control_c, 0, 64, 61
2,76257, Note_on_c, 0, 58, 0
2,76260, Note_on_c, 0, 69, 68
2,76270, Control_c, 0, 64, 61
2,76271, Note_on_c, 0, 53, 44
2,76299, Note_on_c, 0, 54, 0
2,76328, Control_c, 0, 64, 62
2,76347, Control_c, 0, 64, 62
2,76366, Control_c, 0, 64, 63
2,76382, Note_on_c, 0, 69, 0
2,76432, Note_on_c, 0, 78, 80
2,76441, Note_on_c, 0, 77, 0
2,76462, Control_c, 0, 64, 62
2,76481, Control_c, 0, 64, 62
2,76501, Control_c, 0, 64, 61
2,76519, Control_c, 0, 64, 59
2,76539, Control_c, 0, 64, 58
2,76558, Control_c, 0, 64, 56
2,76577, Control_c, 0, 64, 55
2,76584, Note_on_c, 0, 54, 39
2,76596, Control_c, 0, 64, 52
2,76616, Control_c, 0, 64, 48
2,76635, Control_c, 0, 64, 42
2,76654, Control_c, 0, 64, 31
2,76654, Note_on_c, 0, 77, 72
2,76673, Control_c, 0, 64, 0
2,76680, Note_on_c, 0, 78, 0
2,76682, Note_on_c, 0, 70, 45
2,76696, Note_on_c, 0, 53, 0
2,76720, Note_on_c, 0, 77, 0
2,76738, Note_on_c, 0, 75, 68
2,76777, Note_on_c, 0, 75, 0
2,76787, Note_on_c, 0, 77, 68
2,76869, Note_on_c, 0, 77, 0
2,76886, Note_on_c, 0, 75, 73
2,76981, Control_c, 0, 64, 41
2,76999, Control_c, 0, 64, 58
2,77019, Control_c, 0, 64, 62
2,77038, Control_c, 0, 64, 64
2,77057, Control_c, 0, 64, 66
2,77076, Control_c, 0, 64, 67
2,77096, Control_c, 0, 64, 70
2,77115, Control_c, 0, 64, 73
2,77134, Control_c, 0, 64, 76
2,77153, Control_c, 0, 64, 78
2,77174, Note_on_c, 0, 70, 0
2,77175, Control_c, 0, 64, 78
2,77194, Control_c, 0, 64, 79
2,77213, Control_c, 0, 64, 79
2,77233, Control_c, 0, 64, 80
2,77252, Control_c, 0, 64, 81
2,77297, Note_on_c, 0, 77, 78
2,77306, Note_on_c, 0, 75, 0
2,77394, Note_on_c, 0, 77, 0
2,77405, Control_c, 0, 64, 81
2,77425, Control_c, 0, 64, 82
2,77444, Control_c, 0, 64, 82
2,77502, Control_c, 0, 64, 80
2,77521, Control_c, 0, 64, 71
2,77539, Note_on_c, 0, 54, 0
2,77540, Control_c, 0, 64, 57
2,77542, Note_on_c, 0, 77, 81
2,77558, Note_on_c, 0, 53, 55
2,77559, Control_c, 0, 64, 0
2,77561, Note_on_c, 0, 69, 73
2,77636, Control_c, 0, 64, 13
2,77655, Control_c, 0, 64, 54
2,77674, Control_c, 0, 64, 63
2,77693, Control_c, 0, 64, 66
2,77713, Control_c, 0, 64, 68
2,77732, Control_c, 0, 64, 70
2,77752, Control_c, 0, 64, 72
2,77771, Control_c, 0, 64, 74
2,77791, Control_c, 0, 64, 77
2,77809, Control_c, 0, 64, 80
2,77822, Note_on_c, 0, 69, 0
2,77828, Control_c, 0, 64, 81
2,77847, Control_c, 0, 64, 83
2,77867, Control_c, 0, 64, 84
2,77885, Control_c, 0, 64, 85
2,77905, Control_c, 0, 64, 86
2,77924, Control_c, 0, 64, 88
2,77944, Control_c, 0, 64, 89
2,77962, Control_c, 0, 64, 90
2,77998, Note_on_c, 0, 53, 0
2,78020, Control_c, 0, 64, 89
2,78039, Control_c, 0, 64, 89
2,78212, Control_c, 0, 64, 88
2,78270, Control_c, 0, 64, 89
2,78308, Control_c, 0, 64, 89
2,78327, Control_c, 0, 64, 90
2,78347, Control_c, 0, 64, 91
2,78365, Control_c, 0, 64, 92
2,78385, Control_c, 0, 64, 93
2,78404, Control_c, 0, 64, 94
2,78424, Control_c, 0, 64, 93
2,78432, Note_on_c, 0, 82, 89
2,78440, Note_on_c, 0, 70, 85
2,78442, Control_c, 0, 64, 85
2,78462, Control_c, 0, 64, 69
2,78481, Control_c, 0, 64, 50
2,78495, Note_on_c, 0, 77, 0
2,78500, Control_c, 0, 64, 0
2,78558, Control_c, 0, 64, 22
2,78577, Control_c, 0, 64, 54
2,78596, Control_c, 0, 64, 62
2,78615, Control_c, 0, 64, 64
2,78634, Control_c, 0, 64, 66
2,78653, Control_c, 0, 64, 68
2,78673, Control_c, 0, 64, 71
2,78692, Control_c, 0, 64, 75
2,78712, Control_c, 0, 64, 81
2,78731, Control_c, 0, 64, 86
2,78751, Control_c, 0, 64, 88
2,78769, Control_c, 0, 64, 89
2,78865, Control_c, 0, 64, 88
2,78922, Control_c, 0, 64, 88
2,78942, Control_c, 0, 64, 87
2,78961, Control_c, 0, 64, 87
2,79133, Control_c, 0, 64, 86
2,79210, Control_c, 0, 64, 87
2,79230, Control_c, 0, 64, 87
2,79287, Control_c, 0, 64, 86
2,79300, Note_on_c, 0, 75, 87
2,79307, Control_c, 0, 64, 78
2,79325, Control_c, 0, 64, 66
2,79331, Note_on_c, 0, 54, 52
2,79345, Control_c, 0, 64, 48
2,79364, Control_c, 0, 64, 21
2,79384, Control_c, 0, 64, 0
2,79402, Control_c, 0, 64, 27
2,79422, Control_c, 0, 64, 48
2,79441, Control_c, 0, 64, 59
2,79460, Control_c, 0, 64, 63
2,79468, Note_on_c, 0, 70, 0
2,79479, Control_c, 0, 64, 67
2,79499, Control_c, 0, 64, 71
2,79518, Control_c, 0, 64, 78
2,79536, Control_c, 0, 64, 83
2,79556, Control_c, 0, 64, 85
2,79593, Note_on_c, 0, 82, 0
2,79613, Control_c, 0, 64, 84
2,79652, Control_c, 0, 64, 84
2,79670, Control_c, 0, 64, 83
2,79708, Note_on_c, 0, 83, 76
2,79747, Control_c, 0, 64, 83
2,79786, Control_c, 0, 64, 82
2,79804, Control_c, 0, 64, 82
2,79824, Control_c, 0, 64, 81
2,79843, Control_c, 0, 64, 80
2,79863, Control_c, 0, 64, 80
2,79997, Control_c, 0, 64, 79
2,80015, Control_c, 0, 64, 79
2,80035, Control_c, 0, 64, 78
2,80054, Control_c, 0, 64, 76
2,80074, Control_c, 0, 64, 71
2,80092, Control_c, 0, 64, 61
2,80112, Control_c, 0, 64, 31
2,80131, Control_c, 0, 64, 0
2,80133, Note_on_c, 0, 59, 52
2,80147, Note_on_c, 0, 82, 74
2,80208, Control_c, 0, 64, 40
2,80227, Control_c, 0, 64, 58
2,80246, Control_c, 0, 64, 63
2,80266, Control_c, 0, 64, 64
2,80284, Control_c, 0, 64, 65
2,80304, Control_c, 0, 64, 66
2,80308, Note_on_c, 0, 54, 0
2,80327, Note_on_c, 0, 75, 0
2,80343, Control_c, 0, 64, 66
2,80419, Control_c, 0, 64, 66
2,80504, Note_on_c, 0, 83, 0
2,80528, Note_on_c, 0, 80, 76
2,80535, Note_on_c, 0, 77, 72
2,80572, Control_c, 0, 64, 65
2,80602, Note_on_c, 0, 82, 0
2,80611, Control_c, 0, 64, 65
2,80660, Note_on_c, 0, 80, 0
2,80822, Control_c, 0, 64, 65
2,80860, Control_c, 0, 64, 66
2,80899, Control_c, 0, 64, 63
2,80917, Control_c, 0, 64, 55
2,80926, Note_on_c, 0, 79, 79
2,80929, Note_on_c, 0, 75, 70
2,80936, Control_c, 0, 64, 38
2,80956, Control_c, 0, 64, 11
2,80974, Control_c, 0, 64, 0
2,80994, Control_c, 0, 64, 28
2,80999, Note_on_c, 0, 77, 0
2,81013, Control_c, 0, 64, 48
2,81033, Control_c, 0, 64, 59
2,81051, Control_c, 0, 64, 63
2,81071, Control_c, 0, 64, 64
2,81090, Control_c, 0, 64, 66
2,81109, Control_c, 0, 64, 67
2,81128, Control_c, 0, 64, 69
2,81148, Control_c, 0, 64, 70
2,81167, Control_c, 0, 64, 71
2,81186, Control_c, 0, 64, 72
2,81326, Note_on_c, 0, 61, 41
2,81331, Note_on_c, 0, 80, 81
2,81344, Note_on_c, 0, 59, 0
2,81392, Note_on_c, 0, 79, 0
2,81397, Control_c, 0, 64, 71
2,81416, Control_c, 0, 64, 71
2,81436, Control_c, 0, 64, 70
2,81609, Control_c, 0, 64, 70
2,81648, Control_c, 0, 64, 69
2,81704, Control_c, 0, 64, 68
2,81723, Control_c, 0, 64, 64
2,81742, Control_c, 0, 64, 55
2,81744, Note_on_c, 0, 82, 74
2,81751, Note_on_c, 0, 59, 48
2,81761, Control_c, 0, 64, 39
2,81772, Note_on_c, 0, 61, 0
2,81781, Control_c, 0, 64, 13
2,81785, Note_on_c, 0, 80, 0
2,81799, Control_c, 0, 64, 0
2,81838, Control_c, 0, 64, 18
2,81858, Control_c, 0, 64, 43
2,81876, Control_c, 0, 64, 57
2,81895, Control_c, 0, 64, 62
2,81915, Control_c, 0, 64, 64
2,81933, Control_c, 0, 64, 65
2,81953, Control_c, 0, 64, 66
2,81992, Control_c, 0, 64, 66
2,82069, Control_c, 0, 64, 67
2,82087, Control_c, 0, 64, 67
2,82107, Control_c, 0, 64, 68
2,82126, Control_c, 0, 64, 68
2,82126, Note_on_c, 0, 73, 69
2,82145, Control_c, 0, 64, 69
2,82150, Note_on_c, 0, 58, 41
2,82150, Note_on_c, 0, 59, 0
2,82162, Note_on_c, 0, 75, 0
2,82164, Control_c, 0, 64, 70
2,82338, Control_c, 0, 64, 70
2,82356, Control_c, 0, 64, 71
2,82490, Control_c, 0, 64, 70
2,82510, Control_c, 0, 64, 65
2,82518, Note_on_c, 0, 75, 79
2,82525, Note_on_c, 0, 72, 62
2,82529, Control_c, 0, 64, 51
2,82541, Note_on_c, 0, 82, 0
2,82544, Note_on_c, 0, 56, 50
2,82549, Control_c, 0, 64, 0
2,82562, Note_on_c, 0, 58, 0
2,82573, Note_on_c, 0, 73, 0
2,82626, Control_c, 0, 64, 11
2,82645, Control_c, 0, 64, 53
2,82665, Control_c, 0, 64, 62
2,82684, Control_c, 0, 64, 65
2,82703, Control_c, 0, 64, 67
2,82722, Control_c, 0, 64, 69
2,82742, Control_c, 0, 64, 71
2,82760, Control_c, 0, 64, 74
2,82780, Control_c, 0, 64, 76
2,82799, Control_c, 0, 64, 76
2,82856, Control_c, 0, 64, 76
2,82943, Note_on_c, 0, 55, 47
2,82946, Note_on_c, 0, 56, 0
2,82991, Control_c, 0, 64, 75
2,83010, Control_c, 0, 64, 74
2,83029, Control_c, 0, 64, 73
2,83048, Control_c, 0, 64, 73
2,83106, Control_c, 0, 64, 73
2,83164, Control_c, 0, 64, 74
2,83317, Control_c, 0, 64, 73
2,83334, Note_on_c, 0, 80, 81
2,83336, Control_c, 0, 64, 68
2,83345, Note_on_c, 0, 55, 0
2,83355, Note_on_c, 0, 56, 52
2,83356, Control_c, 0, 64, 59
2,83374, Control_c, 0, 64, 34
2,83394, Control_c, 0, 64, 0
2,83451, Control_c, 0, 64, 24
2,83471, Control_c, 0, 64, 53
2,83490, Control_c, 0, 64, 62
2,83509, Control_c, 0, 64, 65
2,83528, Control_c, 0, 64, 67
2,83548, Control_c, 0, 64, 69
2,83567, Control_c, 0, 64, 71
2,83586, Control_c, 0, 64, 73
2,83605, Control_c, 0, 64, 74
2,83625, Control_c, 0, 64, 73
2,83644, Control_c, 0, 64, 73
2,83682, Control_c, 0, 64, 72
2,83740, Control_c, 0, 64, 73
2,83747, Note_on_c, 0, 73, 67
2,83753, Note_on_c, 0, 58, 46
2,83759, Control_c, 0, 64, 73
2,83796, Note_on_c, 0, 75, 0
2,83800, Note_on_c, 0, 56, 0
2,83816, Control_c, 0, 64, 73
2,83831, Note_on_c, 0, 72, 0
2,83836, Control_c, 0, 64, 72
2,83854, Control_c, 0, 64, 72
2,83874, Control_c, 0, 64, 71
2,83931, Control_c, 0, 64, 72
2,83970, Control_c, 0, 64, 72
2,84066, Control_c, 0, 64, 72
2,84085, Control_c, 0, 64, 70
2,84105, Control_c, 0, 64, 65
2,84124, Control_c, 0, 64, 54
2,84143, Control_c, 0, 64, 28
2,84149, Note_on_c, 0, 75, 64
2,84161, Note_on_c, 0, 60, 43
2,84162, Control_c, 0, 64, 0
2,84184, Note_on_c, 0, 73, 0
2,84194, Note_on_c, 0, 58, 0
2,84220, Control_c, 0, 64, 34
2,84239, Control_c, 0, 64, 53
2,84259, Control_c, 0, 64, 61
2,84277, Control_c, 0, 64, 64
2,84296, Control_c, 0, 64, 65
2,84316, Control_c, 0, 64, 66
2,84334, Control_c, 0, 64, 68
2,84354, Control_c, 0, 64, 69
2,84373, Control_c, 0, 64, 71
2,84393, Control_c, 0, 64, 72
2,84411, Control_c, 0, 64, 72
2,84511, Note_on_c, 0, 75, 0
2,84544, Note_on_c, 0, 78, 63
2,84546, Control_c, 0, 64, 73
2,84604, Control_c, 0, 64, 72
2,84642, Control_c, 0, 64, 72
2,84694, Note_on_c, 0, 80, 0
2,84834, Control_c, 0, 64, 71
2,84891, Control_c, 0, 64, 71
2,84911, Control_c, 0, 64, 70
2,84930, Control_c, 0, 64, 66
2,84942, Note_on_c, 0, 68, 70
2,84949, Control_c, 0, 64, 57
2,84959, Note_on_c, 0, 61, 43
2,84965, Note_on_c, 0, 77, 67
2,84968, Control_c, 0, 64, 22
2,84980, Note_on_c, 0, 60, 0
2,84988, Control_c, 0, 64, 0
2,84993, Note_on_c, 0, 78, 0
2,85065, Control_c, 0, 64, 35
2,85084, Control_c, 0, 64, 57
2,85103, Control_c, 0, 64, 63
2,85122, Control_c, 0, 64, 65
2,85142, Control_c, 0, 64, 66
2,85160, Control_c, 0, 64, 66
2,85180, Control_c, 0, 64, 67
2,85199, Control_c, 0, 64, 68
2,85219, Control_c, 0, 64, 69
2,85276, Control_c, 0, 64, 68
2,85314, Control_c, 0, 64, 69
2,85348, Note_on_c, 0, 61, 0
2,85361, Note_on_c, 0, 59, 45
2,85371, Control_c, 0, 64, 69
2,85430, Control_c, 0, 64, 69
2,85546, Control_c, 0, 64, 69
2,85757, Control_c, 0, 64, 69
2,85771, Note_on_c, 0, 73, 79
2,85775, Control_c, 0, 64, 64
2,85795, Control_c, 0, 64, 51
2,85804, Note_on_c, 0, 58, 43
2,85814, Control_c, 0, 64, 0
2,85865, Note_on_c, 0, 59, 0
2,85910, Control_c, 0, 64, 38
2,85929, Control_c, 0, 64, 59
2,85949, Control_c, 0, 64, 64
2,85968, Control_c, 0, 64, 66
2,85987, Control_c, 0, 64, 67
2,86006, Control_c, 0, 64, 68
2,86026, Control_c, 0, 64, 69
2,86044, Control_c, 0, 64, 70
2,86064, Control_c, 0, 64, 71
2,86075, Note_on_c, 0, 68, 0
2,86126, Note_on_c, 0, 77, 0
2,86141, Control_c, 0, 64, 72
2,86160, Control_c, 0, 64, 73
2,86168, Note_on_c, 0, 56, 43
2,86179, Control_c, 0, 64, 75
2,86195, Note_on_c, 0, 58, 0
2,86198, Control_c, 0, 64, 76
2,86294, Control_c, 0, 64, 75
2,86332, Control_c, 0, 64, 76
2,86371, Control_c, 0, 64, 76
2,86409, Control_c, 0, 64, 77
2,86486, Control_c, 0, 64, 76
2,86544, Control_c, 0, 64, 75
2,86563, Control_c, 0, 64, 69
2,86568, Note_on_c, 0, 55, 43
2,86575, Note_on_c, 0, 75, 67
2,86583, Control_c, 0, 64, 59
2,86601, Control_c, 0, 64, 31
2,86612, Note_on_c, 0, 56, 0
2,86621, Control_c, 0, 64, 0
2,86678, Control_c, 0, 64, 26
2,86697, Control_c, 0, 64, 54
2,86717, Control_c, 0, 64, 63
2,86735, Control_c, 0, 64, 66
2,86755, Control_c, 0, 64, 67
2,86774, Control_c, 0, 64, 69
2,86794, Control_c, 0, 64, 70
2,86812, Control_c, 0, 64, 71
2,86832, Control_c, 0, 64, 72
2,86947, Control_c, 0, 64, 72
2,86956, Note_on_c, 0, 51, 41
2,86966, Control_c, 0, 64, 73
2,86973, Note_on_c, 0, 55, 0
2,86986, Control_c, 0, 64, 73
2,87004, Control_c, 0, 64, 74
2,87029, Note_on_c, 0, 73, 0
2,87063, Control_c, 0, 64, 73
2,87081, Control_c, 0, 64, 73
2,87120, Control_c, 0, 64, 72
2,87158, Control_c, 0, 64, 73
2,87215, Control_c, 0, 64, 73
2,87254, Control_c, 0, 64, 73
2,87292, Control_c, 0, 64, 72
2,87312, Control_c, 0, 64, 71
2,87331, Control_c, 0, 64, 67
2,87350, Control_c, 0, 64, 60
2,87358, Note_on_c, 0, 72, 63
2,87369, Control_c, 0, 64, 37
2,87384, Note_on_c, 0, 56, 45
2,87389, Control_c, 0, 64, 0
2,87406, Note_on_c, 0, 51, 0
2,87484, Control_c, 0, 64, 46
2,87504, Control_c, 0, 64, 60
2,87523, Control_c, 0, 64, 64
2,87543, Control_c, 0, 64, 65
2,87561, Control_c, 0, 64, 67
2,87581, Control_c, 0, 64, 68
2,87600, Control_c, 0, 64, 71
2,87619, Control_c, 0, 64, 72
2,87638, Control_c, 0, 64, 73
2,87677, Control_c, 0, 64, 73
2,87747, Note_on_c, 0, 58, 56
2,87769, Note_on_c, 0, 56, 0
2,87984, Control_c, 0, 64, 73
2,88118, Control_c, 0, 64, 74
2,88137, Control_c, 0, 64, 75
2,88157, Control_c, 0, 64, 74
2,88167, Note_on_c, 0, 80, 81
2,88175, Control_c, 0, 64, 67
2,88183, Note_on_c, 0, 56, 47
2,88195, Control_c, 0, 64, 53
2,88214, Control_c, 0, 64, 0
2,88310, Control_c, 0, 64, 42
2,88329, Control_c, 0, 64, 61
2,88349, Control_c, 0, 64, 65
2,88368, Control_c, 0, 64, 68
2,88387, Control_c, 0, 64, 71
2,88402, Note_on_c, 0, 72, 0
2,88406, Control_c, 0, 64, 74
2,88424, Note_on_c, 0, 75, 0
2,88426, Control_c, 0, 64, 78
2,88444, Control_c, 0, 64, 80
2,88464, Control_c, 0, 64, 80
2,88483, Control_c, 0, 64, 80
2,88503, Control_c, 0, 64, 79
2,88521, Control_c, 0, 64, 78
2,88567, Note_on_c, 0, 58, 0
2,88573, Note_on_c, 0, 54, 56
2,88588, Note_on_c, 0, 56, 0
2,88655, Control_c, 0, 64, 78
2,88675, Control_c, 0, 64, 77
2,88694, Control_c, 0, 64, 75
2,88714, Control_c, 0, 64, 75
2,88732, Control_c, 0, 64, 74
2,88809, Control_c, 0, 64, 74
2,88848, Control_c, 0, 64, 73
2,88867, Control_c, 0, 64, 73
2,88886, Control_c, 0, 64, 72
2,88906, Control_c, 0, 64, 71
2,88924, Control_c, 0, 64, 70
2,88944, Control_c, 0, 64, 67
2,88959, Note_on_c, 0, 68, 78
2,88963, Control_c, 0, 64, 59
2,88967, Note_on_c, 0, 54, 0
2,88983, Control_c, 0, 64, 0
2,88990, Note_on_c, 0, 53, 50
2,89097, Control_c, 0, 64, 18
2,89117, Control_c, 0, 64, 55
2,89135, Control_c, 0, 64, 61
2,89155, Control_c, 0, 64, 63
2,89174, Control_c, 0, 64, 64
2,89194, Control_c, 0, 64, 64
2,89212, Control_c, 0, 64, 65
2,89232, Control_c, 0, 64, 66
2,89251, Control_c, 0, 64, 67
2,89271, Control_c, 0, 64, 67
2,89347, Note_on_c, 0, 53, 0
2,89353, Note_on_c, 0, 54, 29
2,89371, Note_on_c, 0, 82, 68
2,89386, Control_c, 0, 64, 68
2,89386, Note_on_c, 0, 80, 0
2,89404, Control_c, 0, 64, 68
2,89424, Control_c, 0, 64, 69
2,89501, Control_c, 0, 64, 68
2,89750, Control_c, 0, 64, 68
2,89769, Control_c, 0, 64, 66
2,89778, Note_on_c, 0, 73, 81
2,89785, Note_on_c, 0, 80, 73
2,89789, Control_c, 0, 64, 61
2,89808, Control_c, 0, 64, 9
2,89810, Note_on_c, 0, 53, 49
2,89814, Note_on_c, 0, 54, 0
2,89827, Control_c, 0, 64, 0
2,89833, Note_on_c, 0, 82, 0
2,89923, Control_c, 0, 64, 40
2,89943, Control_c, 0, 64, 59
2,89961, Control_c, 0, 64, 62
2,89981, Control_c, 0, 64, 63
2,90000, Control_c, 0, 64, 64
2,90011, Note_on_c, 0, 68, 0
2,90018, Control_c, 0, 64, 65
2,90038, Control_c, 0, 64, 66
2,90057, Control_c, 0, 64, 68
2,90077, Control_c, 0, 64, 69
2,90095, Control_c, 0, 64, 69
2,90172, Control_c, 0, 64, 70
2,90181, Note_on_c, 0, 51, 51
2,90185, Note_on_c, 0, 53, 0
2,90185, Note_on_c, 0, 78, 63
2,90192, Control_c, 0, 64, 71
2,90211, Control_c, 0, 64, 72
2,90221, Note_on_c, 0, 80, 0
2,90230, Control_c, 0, 64, 73
2,90256, Note_on_c, 0, 73, 0
2,90518, Control_c, 0, 64, 72
2,90537, Control_c, 0, 64, 68
2,90557, Control_c, 0, 64, 61
2,90575, Control_c, 0, 64, 45
2,90575, Note_on_c, 0, 77, 65
2,90595, Control_c, 0, 64, 28
2,90601, Note_on_c, 0, 49, 49
2,90614, Control_c, 0, 64, 25
2,90627, Note_on_c, 0, 51, 0
2,90634, Control_c, 0, 64, 41
2,90652, Control_c, 0, 64, 55
2,90655, Note_on_c, 0, 78, 0
2,90672, Control_c, 0, 64, 62
2,90691, Control_c, 0, 64, 64
2,90710, Control_c, 0, 64, 65
2,90729, Control_c, 0, 64, 66
2,90749, Control_c, 0, 64, 66
2,90768, Control_c, 0, 64, 67
2,90787, Control_c, 0, 64, 67
2,90806, Control_c, 0, 64, 68
2,90826, Control_c, 0, 64, 68
2,90941, Control_c, 0, 64, 67
2,90960, Control_c, 0, 64, 63
2,90976, Note_on_c, 0, 75, 63
2,90976, Note_on_c, 0, 78, 72
2,90978, Control_c, 0, 64, 49
2,90996, Note_on_c, 0, 59, 57
2,90998, Control_c, 0, 64, 22
2,91000, Note_on_c, 0, 49, 0
2,91017, Control_c, 0, 64, 0
2,91034, Note_on_c, 0, 77, 0
2,91037, Control_c, 0, 64, 18
2,91055, Control_c, 0, 64, 43
2,91075, Control_c, 0, 64, 58
2,91094, Control_c, 0, 64, 63
2,91114, Control_c, 0, 64, 64
2,91132, Control_c, 0, 64, 66
2,91152, Control_c, 0, 64, 66
2,91171, Control_c, 0, 64, 67
2,91195, Control_c, 0, 64, 68
2,91214, Control_c, 0, 64, 68
2,91306, Control_c, 0, 64, 68
2,91324, Control_c, 0, 64, 65
2,91344, Control_c, 0, 64, 56
2,91358, Note_on_c, 0, 80, 76
2,91363, Control_c, 0, 64, 27
2,91380, Note_on_c, 0, 73, 61
2,91383, Control_c, 0, 64, 0
2,91385, Note_on_c, 0, 58, 50
2,91411, Note_on_c, 0, 59, 0
2,91411, Note_on_c, 0, 75, 0
2,91424, Note_on_c, 0, 78, 0
2,91458, Control_c, 0, 64, 51
2,91478, Control_c, 0, 64, 61
2,91497, Control_c, 0, 64, 64
2,91517, Control_c, 0, 64, 65
2,91535, Control_c, 0, 64, 65
2,91555, Control_c, 0, 64, 66
2,91574, Control_c, 0, 64, 66
2,91594, Control_c, 0, 64, 67
2,91632, Control_c, 0, 64, 66
2,91747, Control_c, 0, 64, 65
2,91766, Control_c, 0, 64, 58
2,91766, Note_on_c, 0, 71, 64
2,91767, Note_on_c, 0, 56, 46
2,91771, Note_on_c, 0, 73, 0
2,91786, Control_c, 0, 64, 32
2,91804, Control_c, 0, 64, 0
2,91805, Note_on_c, 0, 58, 0
2,91863, Control_c, 0, 64, 49
2,91881, Control_c, 0, 64, 61
2,91901, Control_c, 0, 64, 64
2,91920, Control_c, 0, 64, 65
2,91938, Control_c, 0, 64, 66
2,91958, Control_c, 0, 64, 67
2,91977, Control_c, 0, 64, 68
2,91997, Control_c, 0, 64, 68
2,92015, Control_c, 0, 64, 69
2,92112, Control_c, 0, 64, 68
2,92131, Control_c, 0, 64, 64
2,92151, Control_c, 0, 64, 52
2,92164, Note_on_c, 0, 73, 77
2,92170, Control_c, 0, 64, 0
2,92174, Note_on_c, 0, 70, 68
2,92195, Note_on_c, 0, 54, 49
2,92204, Note_on_c, 0, 71, 0
2,92216, Note_on_c, 0, 56, 0
2,92286, Note_on_c, 0, 80, 0
2,92304, Control_c, 0, 64, 31
2,92323, Control_c, 0, 64, 54
2,92343, Control_c, 0, 64, 61
2,92361, Control_c, 0, 64, 64
2,92381, Control_c, 0, 64, 64
2,92400, Control_c, 0, 64, 65
2,92418, Control_c, 0, 64, 66
2,92438, Control_c, 0, 64, 66
2,92457, Control_c, 0, 64, 67
2,92495, Control_c, 0, 64, 68
2,92515, Control_c, 0, 64, 68
2,92534, Control_c, 0, 64, 69
2,92554, Control_c, 0, 64, 70
2,92568, Note_on_c, 0, 71, 75
2,92572, Control_c, 0, 64, 71
2,92580, Note_on_c, 0, 56, 42
2,92592, Control_c, 0, 64, 71
2,92603, Note_on_c, 0, 70, 0
2,92627, Note_on_c, 0, 54, 0
2,92628, Note_on_c, 0, 73, 0
2,92649, Control_c, 0, 64, 71
2,92669, Control_c, 0, 64, 70
2,92688, Control_c, 0, 64, 70
2,92707, Control_c, 0, 64, 69
2,92841, Control_c, 0, 64, 69
2,92861, Control_c, 0, 64, 68
2,92880, Control_c, 0, 64, 67
2,92918, Control_c, 0, 64, 67
2,92957, Control_c, 0, 64, 66
2,92973, Note_on_c, 0, 78, 81
2,92975, Control_c, 0, 64, 63
2,92990, Note_on_c, 0, 73, 66
2,92995, Control_c, 0, 64, 46
2,93005, Note_on_c, 0, 54, 40
2,93010, Note_on_c, 0, 71, 0
2,93014, Control_c, 0, 64, 0
2,93042, Note_on_c, 0, 56, 0
2,93112, Control_c, 0, 64, 17
2,93131, Control_c, 0, 64, 51
2,93151, Control_c, 0, 64, 61
2,93169, Control_c, 0, 64, 64
2,93185, Control_c, 0, 64, 65
2,93204, Control_c, 0, 64, 65
2,93224, Control_c, 0, 64, 66
2,93243, Control_c, 0, 64, 67
2,93262, Control_c, 0, 64, 67
2,93281, Control_c, 0, 64, 68
2,93367, Note_on_c, 0, 54, 0
2,93377, Control_c, 0, 64, 69
2,93383, Note_on_c, 0, 52, 44
2,93415, Control_c, 0, 64, 69
2,93435, Control_c, 0, 64, 69
2,93453, Control_c, 0, 64, 68
2,93473, Control_c, 0, 64, 68
2,93492, Control_c, 0, 64, 67
2,93512, Control_c, 0, 64, 67
2,93530, Control_c, 0, 64, 66
2,93684, Control_c, 0, 64, 66
2,93704, Control_c, 0, 64, 65
2,93781, Control_c, 0, 64, 64
2,93795, Note_on_c, 0, 66, 70
2,93799, Control_c, 0, 64, 58
2,93817, Note_on_c, 0, 51, 44
2,93818, Control_c, 0, 64, 19
2,93825, Note_on_c, 0, 52, 0
2,93838, Control_c, 0, 64, 0
2,93933, Control_c, 0, 64, 34
2,93953, Control_c, 0, 64, 56
2,93972, Control_c, 0, 64, 62
2,93992, Control_c, 0, 64, 64
2,94010, Control_c, 0, 64, 64
2,94030, Control_c, 0, 64, 65
2,94049, Control_c, 0, 64, 65
2,94070, Control_c, 0, 64, 66
2,94089, Control_c, 0, 64, 67
2,94109, Control_c, 0, 64, 67
2,94182, Note_on_c, 0, 76, 60
2,94196, Note_on_c, 0, 49, 40
2,94203, Note_on_c, 0, 51, 0
2,94203, Note_on_c, 0, 66, 0
2,94204, Control_c, 0, 64, 68
2,94204, Note_on_c, 0, 73, 0
2,94224, Control_c, 0, 64, 69
2,94243, Control_c, 0, 64, 70
2,94263, Control_c, 0, 64, 71
2,94296, Note_on_c, 0, 78, 0
2,94301, Control_c, 0, 64, 70
2,94397, Control_c, 0, 64, 71
2,94454, Control_c, 0, 64, 71
2,94492, Control_c, 0, 64, 71
2,94531, Control_c, 0, 64, 70
2,94569, Control_c, 0, 64, 70
2,94589, Control_c, 0, 64, 67
2,94591, Note_on_c, 0, 75, 57
2,94593, Note_on_c, 0, 71, 66
2,94608, Control_c, 0, 64, 60
2,94612, Note_on_c, 0, 47, 40
2,94627, Control_c, 0, 64, 36
2,94632, Note_on_c, 0, 49, 0
2,94646, Control_c, 0, 64, 0
2,94665, Note_on_c, 0, 76, 0
2,94743, Control_c, 0, 64, 42
2,94761, Control_c, 0, 64, 55
2,94781, Control_c, 0, 64, 59
2,94800, Control_c, 0, 64, 61
2,94818, Control_c, 0, 64, 62
2,94838, Control_c, 0, 64, 63
2,94857, Control_c, 0, 64, 64
2,94877, Control_c, 0, 64, 64
2,94992, Control_c, 0, 64, 65
2,94999, Note_on_c, 0, 44, 41
2,95011, Control_c, 0, 64, 65
2,95014, Note_on_c, 0, 47, 0
2,95016, Note_on_c, 0, 80, 61
2,95021, Note_on_c, 0, 75, 0
2,95029, Control_c, 0, 64, 66
2,95106, Control_c, 0, 64, 65
2,95336, Control_c, 0, 64, 65
2,95394, Control_c, 0, 64, 63
2,95403, Note_on_c, 0, 73, 61
2,95411, Note_on_c, 0, 46, 44
2,95413, Control_c, 0, 64, 55
2,95432, Note_on_c, 0, 80, 0
2,95433, Control_c, 0, 64, 11
2,95451, Control_c, 0, 64, 0
2,95459, Note_on_c, 0, 44, 0
2,95528, Control_c, 0, 64, 13
2,95548, Control_c, 0, 64, 46
2,95567, Control_c, 0, 64, 58
2,95586, Control_c, 0, 64, 61
2,95605, Control_c, 0, 64, 62
2,95625, Control_c, 0, 64, 62
2,95644, Control_c, 0, 64, 63
2,95739, Control_c, 0, 64, 62
2,95806, Note_on_c, 0, 71, 0
2,95810, Note_on_c, 0, 78, 46
2,95817, Note_on_c, 0, 70, 54
2,95827, Note_on_c, 0, 42, 42
2,95883, Note_on_c, 0, 46, 0
2,95893, Control_c, 0, 64, 62
2,95896, Note_on_c, 0, 73, 0
2,95931, Control_c, 0, 64, 61
2,96124, Control_c, 0, 64, 61
2,96143, Control_c, 0, 64, 60
2,96162, Control_c, 0, 64, 59
2,96182, Control_c, 0, 64, 56
2,96200, Control_c, 0, 64, 50
2,96219, Control_c, 0, 64, 37
2,96234, Note_on_c, 0, 68, 45
2,96239, Control_c, 0, 64, 0
2,96242, Note_on_c, 0, 49, 39
2,96261, Note_on_c, 0, 70, 0
2,96284, Note_on_c, 0, 42, 0
2,96334, Control_c, 0, 64, 23
2,96354, Control_c, 0, 64, 46
2,96373, Control_c, 0, 64, 57
2,96393, Control_c, 0, 64, 60
2,96411, Control_c, 0, 64, 61
2,96431, Control_c, 0, 64, 62
2,96450, Control_c, 0, 64, 63
2,96469, Control_c, 0, 64, 63
2,96488, Control_c, 0, 64, 64
2,96662, Control_c, 0, 64, 63
2,96680, Control_c, 0, 64, 58
2,96687, Note_on_c, 0, 77, 42
2,96699, Control_c, 0, 64, 50
2,96709, Note_on_c, 0, 37, 33
2,96719, Control_c, 0, 64, 44
2,96741, Note_on_c, 0, 49, 0
2,96744, Note_on_c, 0, 78, 0
2,96757, Control_c, 0, 64, 48
2,96758, Note_on_c, 0, 68, 0
2,96776, Control_c, 0, 64, 54
2,96796, Control_c, 0, 64, 59
2,96814, Control_c, 0, 64, 62
2,96834, Control_c, 0, 64, 63
2,96853, Control_c, 0, 64, 64
2,96873, Control_c, 0, 64, 65
2,96891, Control_c, 0, 64, 65
2,97121, Control_c, 0, 64, 65
2,97159, Control_c, 0, 64, 64
2,97236, Control_c, 0, 64, 64
2,97255, Control_c, 0, 64, 63
2,97271, Note_on_c, 0, 78, 51
2,97275, Control_c, 0, 64, 59
2,97294, Control_c, 0, 64, 46
2,97299, Note_on_c, 0, 42, 30
2,97308, Note_on_c, 0, 77, 0
2,97313, Control_c, 0, 64, 19
2,97332, Control_c, 0, 64, 0
2,97336, Note_on_c, 0, 66, 22
2,97361, Note_on_c, 0, 37, 0
2,97409, Control_c, 0, 64, 35
2,97429, Control_c, 0, 64, 52
2,97447, Control_c, 0, 64, 59
2,97467, Control_c, 0, 64, 62
2,97486, Control_c, 0, 64, 63
2,97501, Note_on_c, 0, 78, 0
2,97505, Control_c, 0, 64, 63
2,97524, Control_c, 0, 64, 64
2,97563, Control_c, 0, 64, 64
2,97639, Control_c, 0, 64, 65
2,97658, Control_c, 0, 64, 65
2,97678, Control_c, 0, 64, 66
2,97697, Control_c, 0, 64, 67
2,97716, Control_c, 0, 64, 67
2,97725, Note_on_c, 0, 66, 0
2,97816, Note_on_c, 0, 65, 23
2,97850, Control_c, 0, 64, 68
2,97857, Note_on_c, 0, 44, 27
2,97870, Control_c, 0, 64, 68
2,97889, Control_c, 0, 64, 69
2,97895, Note_on_c, 0, 42, 0
2,97909, Control_c, 0, 64, 70
2,98042, Control_c, 0, 64, 70
2,98080, Control_c, 0, 64, 71
2,98099, Control_c, 0, 64, 72
2,98119, Control_c, 0, 64, 72
2,98176, Control_c, 0, 64, 72
2,98195, Control_c, 0, 64, 71
2,98214, Control_c, 0, 64, 70
2,98234, Control_c, 0, 64, 65
2,98243, Note_on_c, 0, 73, 44
2,98253, Control_c, 0, 64, 60
2,98255, Note_on_c, 0, 65, 0
2,98268, Note_on_c, 0, 46, 25
2,98272, Control_c, 0, 64, 55
2,98278, Note_on_c, 0, 66, 27
2,98291, Control_c, 0, 64, 54
2,98311, Control_c, 0, 64, 57
2,98313, Note_on_c, 0, 44, 0
2,98329, Control_c, 0, 64, 60
2,98349, Control_c, 0, 64, 62
2,98368, Control_c, 0, 64, 64
2,98388, Control_c, 0, 64, 65
2,98406, Control_c, 0, 64, 66
2,98426, Control_c, 0, 64, 67
2,98445, Control_c, 0, 64, 67
2,98464, Control_c, 0, 64, 68
2,98483, Control_c, 0, 64, 69
2,98503, Control_c, 0, 64, 70
2,98541, Control_c, 0, 64, 70
2,98600, Note_on_c, 0, 66, 0
2,98617, Control_c, 0, 64, 71
2,98637, Control_c, 0, 64, 71
2,98656, Control_c, 0, 64, 72
2,98664, Note_on_c, 0, 68, 39
2,98674, Note_on_c, 0, 44, 32
2,98694, Control_c, 0, 64, 73
2,98694, Note_on_c, 0, 46, 0
2,98771, Control_c, 0, 64, 73
2,98806, Note_on_c, 0, 68, 0
2,98926, Note_on_c, 0, 44, 0
2,99022, Control_c, 0, 64, 72
2,99041, Control_c, 0, 64, 68
2,99061, Control_c, 0, 64, 61
2,99079, Control_c, 0, 64, 51
2,99079, Note_on_c, 0, 70, 33
2,99082, Note_on_c, 0, 42, 33
2,99098, Control_c, 0, 64, 48
2,99118, Control_c, 0, 64, 51
2,99137, Control_c, 0, 64, 57
2,99156, Control_c, 0, 64, 61
2,99171, Note_on_c, 0, 70, 0
2,99175, Control_c, 0, 64, 64
2,99195, Control_c, 0, 64, 65
2,99214, Control_c, 0, 64, 67
2,99233, Control_c, 0, 64, 69
2,99252, Control_c, 0, 64, 71
2,99272, Control_c, 0, 64, 73
2,99290, Control_c, 0, 64, 74
2,99406, Control_c, 0, 64, 73
2,99425, Control_c, 0, 64, 69
2,99444, Control_c, 0, 64, 63
2,99464, Control_c, 0, 64, 56
2,99468, Note_on_c, 0, 73, 0
2,99481, Note_on_c, 0, 71, 37
2,99483, Control_c, 0, 64, 54
2,99493, Note_on_c, 0, 54, 31
2,99497, Note_on_c, 0, 42, 0
2,99497, Note_on_c, 0, 68, 28
2,99502, Control_c, 0, 64, 56
2,99521, Control_c, 0, 64, 59
2,99541, Control_c, 0, 64, 62
2,99559, Control_c, 0, 64, 65
2,99578, Control_c, 0, 64, 66
2,99598, Control_c, 0, 64, 68
2,99617, Control_c, 0, 64, 70
2,99632, Note_on_c, 0, 68, 0
2,99636, Control_c, 0, 64, 71
2,99655, Control_c, 0, 64, 72
2,99675, Control_c, 0, 64, 72
2,99790, Control_c, 0, 64, 72
2,99809, Control_c, 0, 64, 70
2,99829, Control_c, 0, 64, 66
2,99848, Control_c, 0, 64, 58
2,99868, Control_c, 0, 64, 51
2,99868, Note_on_c, 0, 71, 0
2,99887, Control_c, 0, 64, 50
2,99889, Note_on_c, 0, 54, 0
2,99897, Note_on_c, 0, 53, 35
2,99900, Note_on_c, 0, 73, 44
2,99905, Control_c, 0, 64, 53
2,99906, Note_on_c, 0, 70, 42
2,99924, Control_c, 0, 64, 57
2,99944, Control_c, 0, 64, 61
2,99963, Control_c, 0, 64, 63
2,99982, Control_c, 0, 64, 65
2,100001, Control_c, 0, 64, 66
2,100020, Control_c, 0, 64, 67
2,100039, Control_c, 0, 64, 69
2,100058, Control_c, 0, 64, 70
2,100078, Control_c, 0, 64, 71
2,100116, Control_c, 0, 64, 70
2,100155, Control_c, 0, 64, 69
2,100174, Control_c, 0, 64, 65
2,100193, Control_c, 0, 64, 59
2,100212, Control_c, 0, 64, 51
2,100232, Control_c, 0, 64, 50
2,100250, Control_c, 0, 64, 53
2,100270, Control_c, 0, 64, 57
2,100272, Note_on_c, 0, 73, 0
2,100281, Note_on_c, 0, 75, 55
2,100285, Note_on_c, 0, 72, 47
2,100289, Control_c, 0, 64, 61
2,100299, Note_on_c, 0, 51, 31
2,100309, Control_c, 0, 64, 63
2,100327, Control_c, 0, 64, 65
2,100339, Note_on_c, 0, 70, 0
2,100347, Control_c, 0, 64, 66
2,100365, Note_on_c, 0, 53, 0
2,100366, Control_c, 0, 64, 67
2,100385, Control_c, 0, 64, 69
2,100404, Control_c, 0, 64, 71
2,100424, Control_c, 0, 64, 72
2,100443, Control_c, 0, 64, 73
2,100577, Control_c, 0, 64, 72
2,100596, Control_c, 0, 64, 69
2,100615, Control_c, 0, 64, 61
2,100635, Control_c, 0, 64, 44
2,100654, Control_c, 0, 64, 23
2,100673, Control_c, 0, 64, 0
2,100673, Note_on_c, 0, 77, 52
2,100678, Note_on_c, 0, 72, 0
2,100697, Note_on_c, 0, 75, 0
2,100710, Note_on_c, 0, 73, 35
2,100712, Control_c, 0, 64, 25
2,100730, Control_c, 0, 64, 39
2,100730, Note_on_c, 0, 49, 32
2,100750, Control_c, 0, 64, 50
2,100769, Control_c, 0, 64, 57
2,100769, Note_on_c, 0, 51, 0
2,100789, Control_c, 0, 64, 61
2,100807, Control_c, 0, 64, 63
2,100827, Control_c, 0, 64, 63
2,100846, Control_c, 0, 64, 64
2,100904, Control_c, 0, 64, 63
2,100923, Control_c, 0, 64, 59
2,100942, Control_c, 0, 64, 48
2,100961, Control_c, 0, 64, 39
2,100980, Control_c, 0, 64, 36
2,101018, Control_c, 0, 64, 42
2,101038, Control_c, 0, 64, 48
2,101057, Control_c, 0, 64, 51
2,101076, Control_c, 0, 64, 53
2,101089, Note_on_c, 0, 73, 0
2,101095, Control_c, 0, 64, 54
2,101106, Note_on_c, 0, 75, 49
2,101109, Note_on_c, 0, 71, 39
2,101115, Control_c, 0, 64, 54
2,101134, Control_c, 0, 64, 55
2,101268, Note_on_c, 0, 77, 0
2,101326, Control_c, 0, 64, 54
2,101345, Control_c, 0, 64, 53
2,101364, Control_c, 0, 64, 52
2,101384, Control_c, 0, 64, 51
2,101403, Control_c, 0, 64, 49
2,101422, Control_c, 0, 64, 46
2,101441, Control_c, 0, 64, 40
2,101460, Control_c, 0, 64, 23
2,101479, Control_c, 0, 64, 0
2,101512, Note_on_c, 0, 73, 50
2,101514, Note_on_c, 0, 75, 0
2,101524, Note_on_c, 0, 54, 34
2,101563, Note_on_c, 0, 49, 0
2,101710, Control_c, 0, 64, 31
2,101729, Control_c, 0, 64, 46
2,101749, Control_c, 0, 64, 55
2,101768, Control_c, 0, 64, 59
2,101788, Control_c, 0, 64, 61
2,101807, Control_c, 0, 64, 62
2,101826, Control_c, 0, 64, 63
2,101845, Control_c, 0, 64, 64
2,101865, Control_c, 0, 64, 64
2,101884, Control_c, 0, 64, 65
2,101903, Control_c, 0, 64, 66
2,101918, Note_on_c, 0, 71, 0
2,101922, Control_c, 0, 64, 66
2,101935, Note_on_c, 0, 70, 32
2,101942, Control_c, 0, 64, 67
2,101960, Control_c, 0, 64, 67
2,101979, Control_c, 0, 64, 68
2,101999, Control_c, 0, 64, 69
2,102018, Control_c, 0, 64, 70
2,102037, Control_c, 0, 64, 71
2,102056, Control_c, 0, 64, 71
2,102076, Control_c, 0, 64, 72
2,102153, Control_c, 0, 64, 71
2,102191, Control_c, 0, 64, 71
2,102248, Control_c, 0, 64, 70
2,102287, Control_c, 0, 64, 70
2,102306, Control_c, 0, 64, 69
2,102322, Note_on_c, 0, 80, 63
2,102325, Control_c, 0, 64, 64
2,102329, Note_on_c, 0, 70, 0
2,102344, Note_on_c, 0, 73, 0
2,102345, Control_c, 0, 64, 53
2,102364, Control_c, 0, 64, 21
2,102373, Note_on_c, 0, 71, 34
2,102383, Control_c, 0, 64, 0
2,102459, Control_c, 0, 64, 28
2,102479, Control_c, 0, 64, 53
2,102498, Control_c, 0, 64, 62
2,102517, Control_c, 0, 64, 64
2,102536, Control_c, 0, 64, 65
2,102556, Control_c, 0, 64, 65
2,102574, Control_c, 0, 64, 66
2,102594, Control_c, 0, 64, 69
2,102613, Control_c, 0, 64, 72
2,102633, Control_c, 0, 64, 75
2,102651, Control_c, 0, 64, 76
2,102671, Control_c, 0, 64, 76
2,102700, Note_on_c, 0, 80, 0
2,102722, Note_on_c, 0, 71, 0
2,102728, Control_c, 0, 64, 77
2,102747, Note_on_c, 0, 70, 40
2,102748, Control_c, 0, 64, 78
2,102767, Control_c, 0, 64, 78
2,102844, Control_c, 0, 64, 78
2,102939, Control_c, 0, 64, 77
2,102978, Control_c, 0, 64, 77
2,102997, Control_c, 0, 64, 76
2,103036, Control_c, 0, 64, 76
2,103054, Control_c, 0, 64, 75
2,103085, Note_on_c, 0, 70, 0
2,103093, Control_c, 0, 64, 75
2,103113, Control_c, 0, 64, 74
2,103131, Control_c, 0, 64, 70
2,103132, Note_on_c, 0, 73, 45
2,103151, Control_c, 0, 64, 61
2,103155, Note_on_c, 0, 68, 33
2,103159, Note_on_c, 0, 54, 0
2,103167, Note_on_c, 0, 53, 28
2,103170, Control_c, 0, 64, 42
2,103189, Control_c, 0, 64, 0
2,103266, Control_c, 0, 64, 36
2,103285, Control_c, 0, 64, 55
2,103305, Control_c, 0, 64, 60
2,103324, Control_c, 0, 64, 62
2,103343, Control_c, 0, 64, 63
2,103362, Control_c, 0, 64, 63
2,103400, Control_c, 0, 64, 64
2,103532, Note_on_c, 0, 68, 0
2,103550, Note_on_c, 0, 71, 36
2,103573, Control_c, 0, 64, 64
2,103631, Control_c, 0, 64, 64
2,103899, Control_c, 0, 64, 63
2,103919, Control_c, 0, 64, 59
2,103938, Control_c, 0, 64, 53
2,103957, Control_c, 0, 64, 48
2,103976, Control_c, 0, 64, 47
2,103977, Note_on_c, 0, 70, 35
2,103995, Note_on_c, 0, 71, 0
2,103996, Control_c, 0, 64, 50
2,104003, Note_on_c, 0, 54, 22
2,104009, Note_on_c, 0, 53, 0
2,104014, Control_c, 0, 64, 55
2,104034, Control_c, 0, 64, 58
2,104049, Note_on_c, 0, 73, 0
2,104053, Control_c, 0, 64, 61
2,104073, Control_c, 0, 64, 63
2,104091, Control_c, 0, 64, 64
2,104111, Control_c, 0, 64, 64
2,104130, Control_c, 0, 64, 65
2,104149, Control_c, 0, 64, 65
2,104265, Control_c, 0, 64, 65
2,104303, Control_c, 0, 64, 64
2,104322, Control_c, 0, 64, 63
2,104342, Control_c, 0, 64, 62
2,104360, Control_c, 0, 64, 61
2,104379, Control_c, 0, 64, 59
2,104380, Note_on_c, 0, 54, 0
2,104394, Note_on_c, 0, 75, 43
2,104399, Control_c, 0, 64, 56
2,104404, Note_on_c, 0, 53, 27
2,104418, Control_c, 0, 64, 53
2,104437, Control_c, 0, 64, 52
2,104456, Control_c, 0, 64, 51
2,104476, Control_c, 0, 64, 52
2,104494, Control_c, 0, 64, 52
2,104514, Control_c, 0, 64, 53
2,104533, Control_c, 0, 64, 54
2,104553, Control_c, 0, 64, 55
2,104571, Control_c, 0, 64, 56
2,104668, Control_c, 0, 64, 55
2,104687, Control_c, 0, 64, 55
2,104706, Control_c, 0, 64, 54
2,104745, Control_c, 0, 64, 53
2,104764, Control_c, 0, 64, 53
2,104766, Note_on_c, 0, 77, 45
2,104783, Control_c, 0, 64, 52
2,104817, Note_on_c, 0, 51, 26
2,104822, Control_c, 0, 64, 52
2,104829, Note_on_c, 0, 75, 0
2,104858, Note_on_c, 0, 53, 0
2,104859, Control_c, 0, 64, 52
2,104879, Control_c, 0, 64, 53
2,104898, Control_c, 0, 64, 54
2,104917, Control_c, 0, 64, 54
2,104936, Control_c, 0, 64, 55
2,104956, Control_c, 0, 64, 56
2,104974, Control_c, 0, 64, 56
2,105090, Control_c, 0, 64, 56
2,105197, Note_on_c, 0, 50, 30
2,105236, Note_on_c, 0, 51, 0
2,105263, Control_c, 0, 64, 55
2,105531, Control_c, 0, 64, 55
2,105570, Control_c, 0, 64, 53
2,105589, Control_c, 0, 64, 50
2,105608, Control_c, 0, 64, 44
2,105614, Note_on_c, 0, 78, 48
2,105628, Control_c, 0, 64, 35
2,105632, Note_on_c, 0, 77, 0
2,105635, Note_on_c, 0, 51, 27
2,105638, Note_on_c, 0, 50, 0
2,105647, Control_c, 0, 64, 25
2,105666, Control_c, 0, 64, 15
2,105685, Control_c, 0, 64, 0
2,105698, Note_on_c, 0, 70, 0
2,105743, Control_c, 0, 64, 11
2,105762, Control_c, 0, 64, 26
2,105781, Control_c, 0, 64, 38
2,105800, Control_c, 0, 64, 48
2,105819, Control_c, 0, 64, 53
2,105839, Control_c, 0, 64, 56
2,105858, Control_c, 0, 64, 57
2,105877, Control_c, 0, 64, 59
2,105896, Control_c, 0, 64, 60
2,105916, Control_c, 0, 64, 61
2,105934, Control_c, 0, 64, 62
2,105954, Control_c, 0, 64, 63
2,105973, Control_c, 0, 64, 63
2,106011, Control_c, 0, 64, 64
2,106028, Note_on_c, 0, 72, 40
2,106242, Control_c, 0, 64, 63
2,106410, Note_on_c, 0, 72, 0
2,106414, Control_c, 0, 64, 63
2,106434, Control_c, 0, 64, 62
2,106434, Note_on_c, 0, 46, 30
2,106441, Note_on_c, 0, 73, 34
2,106453, Control_c, 0, 64, 59
2,106473, Control_c, 0, 64, 54
2,106491, Control_c, 0, 64, 47
2,106494, Note_on_c, 0, 51, 0
2,106511, Control_c, 0, 64, 41
2,106530, Control_c, 0, 64, 37
2,106549, Control_c, 0, 64, 37
2,106588, Control_c, 0, 64, 39
2,106607, Control_c, 0, 64, 42
2,106626, Control_c, 0, 64, 45
2,106645, Control_c, 0, 64, 48
2,106665, Control_c, 0, 64, 50
2,106684, Control_c, 0, 64, 51
2,106703, Control_c, 0, 64, 51
2,106722, Control_c, 0, 64, 52
2,106741, Control_c, 0, 64, 53
2,106760, Control_c, 0, 64, 53
2,106799, Control_c, 0, 64, 54
2,106823, Note_on_c, 0, 48, 39
2,106840, Note_on_c, 0, 75, 45
2,106856, Control_c, 0, 64, 53
2,106894, Control_c, 0, 64, 53
2,106894, Note_on_c, 0, 78, 0
2,106914, Control_c, 0, 64, 52
2,106926, Note_on_c, 0, 46, 0
2,106953, Control_c, 0, 64, 52
2,106971, Control_c, 0, 64, 51
2,107010, Control_c, 0, 64, 51
2,107029, Control_c, 0, 64, 50
2,107087, Control_c, 0, 64, 50
2,107125, Control_c, 0, 64, 49
2,107145, Control_c, 0, 64, 49
2,107164, Control_c, 0, 64, 48
2,107183, Control_c, 0, 64, 47
2,107202, Control_c, 0, 64, 45
2,107221, Control_c, 0, 64, 40
2,107240, Control_c, 0, 64, 28
2,107242, Note_on_c, 0, 48, 0
2,107247, Note_on_c, 0, 73, 0
2,107259, Control_c, 0, 64, 0
2,107265, Note_on_c, 0, 49, 49
2,107266, Note_on_c, 0, 68, 41
2,107356, Control_c, 0, 64, 25
2,107374, Control_c, 0, 64, 37
2,107394, Control_c, 0, 64, 48
2,107413, Control_c, 0, 64, 56
2,107433, Control_c, 0, 64, 60
2,107451, Control_c, 0, 64, 62
2,107471, Control_c, 0, 64, 63
2,107490, Control_c, 0, 64, 64
2,107507, Control_c, 0, 64, 65
2,107525, Control_c, 0, 64, 66
2,107545, Control_c, 0, 64, 66
2,107584, Control_c, 0, 64, 67
2,107621, Control_c, 0, 64, 68
2,107641, Control_c, 0, 64, 68
2,107659, Control_c, 0, 64, 69
2,107672, Note_on_c, 0, 77, 45
2,107674, Note_on_c, 0, 75, 0
2,107679, Control_c, 0, 64, 69
2,107736, Control_c, 0, 64, 69
2,107775, Control_c, 0, 64, 68
2,107786, Note_on_c, 0, 68, 0
2,107794, Control_c, 0, 64, 68
2,107813, Control_c, 0, 64, 67
2,107852, Control_c, 0, 64, 67
2,107890, Control_c, 0, 64, 66
2,107948, Control_c, 0, 64, 66
2,108025, Control_c, 0, 64, 65
2,108044, Control_c, 0, 64, 64
2,108064, Control_c, 0, 64, 61
2,108077, Note_on_c, 0, 75, 42
2,108079, Note_on_c, 0, 77, 0
2,108082, Control_c, 0, 64, 50
2,108089, Note_on_c, 0, 42, 42
2,108101, Control_c, 0, 64, 37
2,108105, Note_on_c, 0, 70, 33
2,108121, Control_c, 0, 64, 22
2,108122, Note_on_c, 0, 49, 0
2,108139, Control_c, 0, 64, 13
2,108178, Control_c, 0, 64, 17
2,108198, Control_c, 0, 64, 29
2,108216, Control_c, 0, 64, 41
2,108236, Control_c, 0, 64, 52
2,108255, Control_c, 0, 64, 58
2,108274, Control_c, 0, 64, 61
2,108293, Control_c, 0, 64, 62
2,108313, Control_c, 0, 64, 63
2,108370, Control_c, 0, 64, 60
2,108390, Control_c, 0, 64, 56
2,108409, Control_c, 0, 64, 52
2,108428, Control_c, 0, 64, 51
2,108447, Control_c, 0, 64, 52
2,108469, Control_c, 0, 64, 55
2,108488, Control_c, 0, 64, 59
2,108493, Note_on_c, 0, 73, 41
2,108508, Control_c, 0, 64, 61
2,108527, Control_c, 0, 64, 62
2,108544, Control_c, 0, 64, 63
2,108581, Control_c, 0, 64, 64
2,108619, Control_c, 0, 64, 64
2,108812, Control_c, 0, 64, 64
2,108831, Control_c, 0, 64, 63
2,108838, Note_on_c, 0, 70, 0
2,108850, Control_c, 0, 64, 58
2,108867, Note_on_c, 0, 75, 0
2,108870, Control_c, 0, 64, 48
2,108886, Note_on_c, 0, 44, 42
2,108889, Control_c, 0, 64, 33
2,108893, Note_on_c, 0, 72, 40
2,108908, Control_c, 0, 64, 19
2,108927, Control_c, 0, 64, 18
2,108947, Control_c, 0, 64, 25
2,108965, Control_c, 0, 64, 37
2,108985, Control_c, 0, 64, 47
2,108991, Note_on_c, 0, 42, 0
2,109004, Control_c, 0, 64, 54
2,109024, Control_c, 0, 64, 58
2,109042, Control_c, 0, 64, 61
2,109061, Control_c, 0, 64, 62
2,109081, Control_c, 0, 64, 63
2,109099, Control_c, 0, 64, 63
2,109119, Control_c, 0, 64, 64
2,109119, Note_on_c, 0, 73, 0
2,109158, Control_c, 0, 64, 64
2,109215, Control_c, 0, 64, 65
2,109234, Control_c, 0, 64, 64
2,109253, Control_c, 0, 64, 61
2,109273, Control_c, 0, 64, 59
2,109292, Control_c, 0, 64, 58
2,109296, Note_on_c, 0, 68, 41
2,109311, Control_c, 0, 64, 59
2,109323, Note_on_c, 0, 72, 0
2,109330, Control_c, 0, 64, 62
2,109350, Control_c, 0, 64, 63
2,109369, Control_c, 0, 64, 65
2,109388, Control_c, 0, 64, 66
2,109407, Control_c, 0, 64, 67
2,109430, Control_c, 0, 64, 68
2,109449, Control_c, 0, 64, 70
2,109469, Control_c, 0, 64, 71
2,109488, Control_c, 0, 64, 72
2,109564, Control_c, 0, 64, 72
2,109640, Control_c, 0, 64, 72
2,109659, Control_c, 0, 64, 70
2,109679, Control_c, 0, 64, 65
2,109684, Note_on_c, 0, 74, 51
2,109685, Note_on_c, 0, 68, 0
2,109698, Control_c, 0, 64, 58
2,109717, Control_c, 0, 64, 51
2,109721, Note_on_c, 0, 66, 32
2,109733, Note_on_c, 0, 46, 33
2,109736, Control_c, 0, 64, 50
2,109756, Control_c, 0, 64, 52
2,109774, Control_c, 0, 64, 56
2,109794, Control_c, 0, 64, 60
2,109811, Note_on_c, 0, 44, 0
2,109813, Control_c, 0, 64, 63
2,109833, Control_c, 0, 64, 65
2,109851, Control_c, 0, 64, 66
2,109871, Control_c, 0, 64, 67
2,109890, Control_c, 0, 64, 69
2,109909, Control_c, 0, 64, 69
2,109928, Control_c, 0, 64, 70
2,109948, Control_c, 0, 64, 71
2,109967, Control_c, 0, 64, 71
2,110029, Note_on_c, 0, 74, 0
2,110044, Control_c, 0, 64, 70
2,110063, Control_c, 0, 64, 66
2,110082, Control_c, 0, 64, 61
2,110101, Control_c, 0, 64, 56
2,110113, Note_on_c, 0, 65, 38
2,110120, Control_c, 0, 64, 55
2,110139, Control_c, 0, 64, 56
2,110142, Note_on_c, 0, 66, 0
2,110159, Control_c, 0, 64, 60
2,110178, Control_c, 0, 64, 63
2,110197, Control_c, 0, 64, 64
2,110216, Control_c, 0, 64, 66
2,110236, Control_c, 0, 64, 67
2,110254, Control_c, 0, 64, 69
2,110274, Control_c, 0, 64, 70
2,110293, Control_c, 0, 64, 72
2,110313, Control_c, 0, 64, 72
2,110333, Note_on_c, 0, 65, 0
2,110466, Control_c, 0, 64, 73
2,110505, Control_c, 0, 64, 72
2,110524, Control_c, 0, 64, 71
2,110527, Note_on_c, 0, 75, 50
2,110539, Note_on_c, 0, 63, 34
2,110542, Control_c, 0, 64, 68
2,110557, Note_on_c, 0, 47, 33
2,110562, Control_c, 0, 64, 65
2,110581, Control_c, 0, 64, 62
2,110600, Control_c, 0, 64, 61
2,110600, Note_on_c, 0, 46, 0
2,110619, Control_c, 0, 64, 59
2,110639, Control_c, 0, 64, 59
2,110658, Control_c, 0, 64, 58
2,110677, Control_c, 0, 64, 59
2,110696, Control_c, 0, 64, 59
2,110716, Control_c, 0, 64, 61
2,110734, Control_c, 0, 64, 62
2,110754, Control_c, 0, 64, 62
2,110773, Control_c, 0, 64, 63
2,110811, Control_c, 0, 64, 62
2,110888, Control_c, 0, 64, 62
2,110908, Control_c, 0, 64, 61
2,110915, Note_on_c, 0, 66, 49
2,110946, Control_c, 0, 64, 61
2,110965, Control_c, 0, 64, 60
2,110982, Note_on_c, 0, 46, 31
2,110985, Control_c, 0, 64, 60
2,111004, Control_c, 0, 64, 59
2,111006, Note_on_c, 0, 47, 0
2,111026, Note_on_c, 0, 63, 0
2,111042, Control_c, 0, 64, 59
2,111138, Control_c, 0, 64, 58
2,111157, Control_c, 0, 64, 58
2,111196, Control_c, 0, 64, 57
2,111214, Control_c, 0, 64, 57
2,111234, Control_c, 0, 64, 56
2,111253, Control_c, 0, 64, 55
2,111273, Control_c, 0, 64, 52
2,111291, Control_c, 0, 64, 49
2,111311, Control_c, 0, 64, 46
2,111330, Control_c, 0, 64, 44
2,111339, Note_on_c, 0, 71, 48
2,111350, Control_c, 0, 64, 41
2,111369, Control_c, 0, 64, 39
2,111374, Note_on_c, 0, 44, 31
2,111389, Control_c, 0, 64, 38
2,111390, Note_on_c, 0, 66, 0
2,111405, Note_on_c, 0, 46, 0
2,111408, Control_c, 0, 64, 36
2,111445, Control_c, 0, 64, 34
2,111465, Control_c, 0, 64, 32
2,111484, Control_c, 0, 64, 31
2,111541, Control_c, 0, 64, 30
2,111560, Control_c, 0, 64, 29
2,111579, Control_c, 0, 64, 27
2,111599, Control_c, 0, 64, 26
2,111618, Control_c, 0, 64, 25
2,111733, Control_c, 0, 64, 29
2,111753, Control_c, 0, 64, 37
2,111754, Note_on_c, 0, 42, 31
2,111771, Control_c, 0, 64, 45
2,111782, Note_on_c, 0, 44, 0
2,111791, Control_c, 0, 64, 50
2,111800, Note_on_c, 0, 75, 0
2,111810, Control_c, 0, 64, 53
2,111829, Control_c, 0, 64, 56
2,111848, Control_c, 0, 64, 58
2,111868, Control_c, 0, 64, 60
2,111887, Control_c, 0, 64, 62
2,111906, Control_c, 0, 64, 63
2,111925, Control_c, 0, 64, 63
2,111945, Control_c, 0, 64, 64
2,112169, Note_on_c, 0, 73, 39
2,112174, Control_c, 0, 64, 62
2,112194, Control_c, 0, 64, 56
2,112213, Control_c, 0, 64, 42
2,112233, Control_c, 0, 64, 20
2,112238, Note_on_c, 0, 40, 20
2,112251, Control_c, 0, 64, 9
2,112265, Note_on_c, 0, 42, 0
2,112290, Control_c, 0, 64, 13
2,112309, Control_c, 0, 64, 17
2,112327, Control_c, 0, 64, 20
2,112347, Control_c, 0, 64, 26
2,112366, Control_c, 0, 64, 31
2,112385, Control_c, 0, 64, 34
2,112404, Control_c, 0, 64, 35
2,112424, Control_c, 0, 64, 36
2,112443, Control_c, 0, 64, 36
2,112461, Control_c, 0, 64, 38
2,112481, Control_c, 0, 64, 39
2,112500, Control_c, 0, 64, 40
2,112519, Control_c, 0, 64, 40
2,112538, Control_c, 0, 64, 41
2,112558, Control_c, 0, 64, 41
2,112594, Note_on_c, 0, 70, 42
2,112596, Control_c, 0, 64, 42
2,112613, Note_on_c, 0, 71, 0
2,112827, Control_c, 0, 64, 41
2,112865, Control_c, 0, 64, 41
2,112904, Control_c, 0, 64, 40
2,112941, Control_c, 0, 64, 40
2,112961, Control_c, 0, 64, 39
2,112980, Control_c, 0, 64, 38
2,112999, Control_c, 0, 64, 37
2,113002, Note_on_c, 0, 70, 0
2,113011, Note_on_c, 0, 39, 32
2,113018, Control_c, 0, 64, 36
2,113019, Note_on_c, 0, 68, 38
2,113038, Control_c, 0, 64, 35
2,113056, Note_on_c, 0, 40, 0
2,113057, Control_c, 0, 64, 34
2,113115, Control_c, 0, 64, 37
2,113134, Control_c, 0, 64, 42
2,113153, Control_c, 0, 64, 48
2,113172, Control_c, 0, 64, 54
2,113192, Control_c, 0, 64, 59
2,113210, Control_c, 0, 64, 61
2,113230, Control_c, 0, 64, 62
2,113249, Control_c, 0, 64, 62
2,113269, Control_c, 0, 64, 63
2,113288, Control_c, 0, 64, 64
2,113308, Control_c, 0, 64, 64
2,113327, Control_c, 0, 64, 65
2,113345, Control_c, 0, 64, 66
2,113363, Control_c, 0, 64, 66
2,113382, Control_c, 0, 64, 67
2,113386, Note_on_c, 0, 68, 0
2,113402, Control_c, 0, 64, 68
2,113420, Control_c, 0, 64, 69
2,113427, Note_on_c, 0, 67, 34
2,113440, Control_c, 0, 64, 69
2,113459, Control_c, 0, 64, 70
2,113479, Control_c, 0, 64, 71
2,113497, Control_c, 0, 64, 73
2,113517, Control_c, 0, 64, 74
2,113536, Control_c, 0, 64, 75
2,113555, Control_c, 0, 64, 76
2,113559, Note_on_c, 0, 67, 0
2,113574, Control_c, 0, 64, 76
2,113748, Control_c, 0, 64, 76
2,113766, Control_c, 0, 64, 75
2,113786, Control_c, 0, 64, 75
2,113805, Control_c, 0, 64, 73
2,113825, Control_c, 0, 64, 71
2,113843, Control_c, 0, 64, 69
2,113845, Note_on_c, 0, 71, 30
2,113858, Note_on_c, 0, 44, 24
2,113862, Control_c, 0, 64, 66
2,113869, Note_on_c, 0, 73, 0
2,113873, Note_on_c, 0, 68, 34
2,113882, Control_c, 0, 64, 64
2,113900, Control_c, 0, 64, 63
2,113920, Control_c, 0, 64, 62
2,113929, Note_on_c, 0, 39, 0
2,113939, Control_c, 0, 64, 61
2,113959, Control_c, 0, 64, 60
2,113977, Control_c, 0, 64, 58
2,113997, Control_c, 0, 64, 57
2,114016, Control_c, 0, 64, 57
2,114035, Control_c, 0, 64, 56
2,114054, Control_c, 0, 64, 55
2,114074, Control_c, 0, 64, 54
2,114093, Control_c, 0, 64, 53
2,114112, Control_c, 0, 64, 52
2,114131, Control_c, 0, 64, 51
2,114151, Control_c, 0, 64, 51
2,114169, Control_c, 0, 64, 50
2,114208, Control_c, 0, 64, 50
2,114252, Note_on_c, 0, 73, 44
2,114255, Note_on_c, 0, 46, 35
2,114266, Control_c, 0, 64, 49
2,114285, Control_c, 0, 64, 49
2,114290, Note_on_c, 0, 71, 0
2,114315, Note_on_c, 0, 44, 0
2,114322, Control_c, 0, 64, 48
2,114634, Note_on_c, 0, 75, 53
2,114640, Note_on_c, 0, 46, 0
2,114642, Note_on_c, 0, 47, 37
2,114642, Note_on_c, 0, 73, 0
2,114707, Control_c, 0, 64, 48
2,114764, Control_c, 0, 64, 47
2,115031, Note_on_c, 0, 76, 50
2,115040, Note_on_c, 0, 75, 0
2,115043, Note_on_c, 0, 49, 42
2,115071, Note_on_c, 0, 47, 0
2,115283, Control_c, 0, 64, 47
2,115360, Control_c, 0, 64, 46
2,115466, Note_on_c, 0, 51, 33
2,115470, Note_on_c, 0, 70, 39
2,115475, Control_c, 0, 64, 46
2,115491, Note_on_c, 0, 76, 0
2,115498, Note_on_c, 0, 49, 0
2,115533, Control_c, 0, 64, 45
2,115552, Control_c, 0, 64, 45
2,115571, Control_c, 0, 64, 44
2,115609, Control_c, 0, 64, 44
2,115648, Control_c, 0, 64, 43
2,115668, Control_c, 0, 64, 42
2,115686, Control_c, 0, 64, 42
2,115706, Control_c, 0, 64, 41
2,115725, Control_c, 0, 64, 41
2,115782, Control_c, 0, 64, 40
2,115840, Control_c, 0, 64, 40
2,115852, Note_on_c, 0, 70, 0
2,115860, Note_on_c, 0, 71, 32
2,115897, Control_c, 0, 64, 39
2,115917, Control_c, 0, 64, 39
2,115933, Note_on_c, 0, 68, 0
2,115955, Control_c, 0, 64, 38
2,115974, Control_c, 0, 64, 38
2,116013, Control_c, 0, 64, 37
2,116071, Control_c, 0, 64, 37
2,116128, Control_c, 0, 64, 36
2,116149, Control_c, 0, 64, 36
2,116167, Control_c, 0, 64, 35
2,116187, Control_c, 0, 64, 33
2,116206, Control_c, 0, 64, 32
2,116243, Control_c, 0, 64, 33
2,116262, Control_c, 0, 64, 38
2,116269, Note_on_c, 0, 71, 0
2,116270, Note_on_c, 0, 73, 40
2,116282, Control_c, 0, 64, 48
2,116286, Note_on_c, 0, 67, 20
2,116300, Control_c, 0, 64, 57
2,116320, Control_c, 0, 64, 61
2,116339, Control_c, 0, 64, 63
2,116359, Control_c, 0, 64, 64
2,116377, Control_c, 0, 64, 65
2,116397, Control_c, 0, 64, 66
2,116416, Control_c, 0, 64, 68
2,116429, Note_on_c, 0, 51, 0
2,116435, Control_c, 0, 64, 70
2,116454, Control_c, 0, 64, 71
2,116474, Control_c, 0, 64, 72
2,116493, Control_c, 0, 64, 74
2,116512, Control_c, 0, 64, 76
2,116531, Control_c, 0, 64, 77
2,116551, Control_c, 0, 64, 79
2,116569, Control_c, 0, 64, 81
2,116589, Control_c, 0, 64, 82
2,116608, Control_c, 0, 64, 84
2,116628, Control_c, 0, 64, 84
2,116646, Control_c, 0, 64, 85
2,116669, Note_on_c, 0, 51, 30
2,116674, Note_on_c, 0, 75, 52
2,116725, Note_on_c, 0, 73, 0
2,116736, Note_on_c, 0, 75, 0
2,116808, Note_on_c, 0, 67, 0
2,116896, Control_c, 0, 64, 84
2,116992, Control_c, 0, 64, 84
2,117049, Control_c, 0, 64, 83
2,117069, Control_c, 0, 64, 83
2,117088, Control_c, 0, 64, 82
2,117109, Control_c, 0, 64, 80
2,117127, Control_c, 0, 64, 79
2,117139, Note_on_c, 0, 68, 66
2,117147, Control_c, 0, 64, 75
2,117161, Note_on_c, 0, 71, 56
2,117166, Control_c, 0, 64, 68
2,117181, Note_on_c, 0, 51, 0
2,117185, Control_c, 0, 64, 57
2,117197, Note_on_c, 0, 56, 34
2,117204, Control_c, 0, 64, 44
2,117223, Control_c, 0, 64, 36
2,117243, Control_c, 0, 64, 35
2,117261, Control_c, 0, 64, 40
2,117281, Control_c, 0, 64, 49
2,117300, Control_c, 0, 64, 59
2,117319, Control_c, 0, 64, 63
2,117338, Control_c, 0, 64, 64
2,117358, Control_c, 0, 64, 66
2,117377, Control_c, 0, 64, 68
2,117396, Control_c, 0, 64, 70
2,117415, Control_c, 0, 64, 72
2,117435, Control_c, 0, 64, 73
2,117454, Control_c, 0, 64, 74
2,117492, Note_on_c, 0, 71, 0
2,117512, Control_c, 0, 64, 74
2,117530, Control_c, 0, 64, 75
2,117550, Control_c, 0, 64, 76
2,117569, Control_c, 0, 64, 78
2,117589, Control_c, 0, 64, 79
2,117615, Note_on_c, 0, 68, 0
2,117645, Note_on_c, 0, 70, 47
2,117672, Note_on_c, 0, 56, 0
2,117674, Note_on_c, 0, 58, 26
2,117723, Control_c, 0, 64, 80
2,117780, Control_c, 0, 64, 80
2,117876, Control_c, 0, 64, 80
2,117992, Control_c, 0, 64, 79
2,118010, Control_c, 0, 64, 78
2,118030, Control_c, 0, 64, 75
2,118031, Note_on_c, 0, 63, 52
2,118046, Note_on_c, 0, 68, 45
2,118049, Control_c, 0, 64, 67
2,118066, Note_on_c, 0, 70, 0
2,118070, Control_c, 0, 64, 59
2,118070, Note_on_c, 0, 58, 0
2,118086, Note_on_c, 0, 59, 37
2,118089, Control_c, 0, 64, 48
2,118109, Control_c, 0, 64, 42
2,118128, Control_c, 0, 64, 42
2,118145, Control_c, 0, 64, 46
2,118164, Control_c, 0, 64, 52
2,118183, Control_c, 0, 64, 58
2,118203, Control_c, 0, 64, 62
2,118221, Control_c, 0, 64, 63
2,118241, Control_c, 0, 64, 65
2,118260, Control_c, 0, 64, 65
2,118279, Control_c, 0, 64, 66
2,118298, Control_c, 0, 64, 67
2,118318, Control_c, 0, 64, 68
2,118337, Control_c, 0, 64, 69
2,118356, Control_c, 0, 64, 70
2,118395, Control_c, 0, 64, 70
2,118414, Control_c, 0, 64, 71
2,118433, Control_c, 0, 64, 71
2,118452, Control_c, 0, 64, 72
2,118452, Note_on_c, 0, 56, 32
2,118454, Note_on_c, 0, 66, 30
2,118455, Note_on_c, 0, 68, 0
2,118471, Note_on_c, 0, 59, 0
2,118610, Note_on_c, 0, 63, 0
2,118663, Control_c, 0, 64, 72
2,118778, Control_c, 0, 64, 72
2,118798, Control_c, 0, 64, 70
2,118817, Control_c, 0, 64, 67
2,118836, Control_c, 0, 64, 61
2,118848, Note_on_c, 0, 65, 38
2,118849, Note_on_c, 0, 58, 35
2,118855, Control_c, 0, 64, 56
2,118870, Note_on_c, 0, 56, 0
2,118875, Control_c, 0, 64, 53
2,118894, Control_c, 0, 64, 54
2,118913, Control_c, 0, 64, 56
2,118932, Control_c, 0, 64, 58
2,118949, Note_on_c, 0, 66, 0
2,118952, Control_c, 0, 64, 61
2,118970, Control_c, 0, 64, 62
2,118990, Control_c, 0, 64, 63
2,119009, Control_c, 0, 64, 64
2,119033, Control_c, 0, 64, 65
2,119052, Control_c, 0, 64, 66
2,119163, Control_c, 0, 64, 65
2,119239, Control_c, 0, 64, 65
2,119262, Note_on_c, 0, 62, 39
2,119278, Note_on_c, 0, 56, 30
2,119297, Control_c, 0, 64, 64
2,119309, Note_on_c, 0, 58, 0
2,119316, Control_c, 0, 64, 64
2,119355, Control_c, 0, 64, 63
2,119374, Control_c, 0, 64, 63
2,119470, Control_c, 0, 64, 62
2,119489, Control_c, 0, 64, 62
2,119509, Control_c, 0, 64, 61
2,119527, Control_c, 0, 64, 61
2,119547, Control_c, 0, 64, 60
2,119585, Control_c, 0, 64, 60
2,119604, Control_c, 0, 64, 59
2,119623, Control_c, 0, 64, 59
2,119643, Control_c, 0, 64, 58
2,119661, Control_c, 0, 64, 57
2,119667, Note_on_c, 0, 63, 47
2,119668, Note_on_c, 0, 66, 45
2,119670, Note_on_c, 0, 62, 0
2,119676, Note_on_c, 0, 65, 0
2,119681, Control_c, 0, 64, 57
2,119688, Note_on_c, 0, 54, 33
2,119700, Control_c, 0, 64, 56
2,119719, Control_c, 0, 64, 55
2,119720, Note_on_c, 0, 56, 0
2,119738, Control_c, 0, 64, 54
2,119758, Control_c, 0, 64, 53
2,119777, Control_c, 0, 64, 52
2,119796, Control_c, 0, 64, 52
2,119912, Control_c, 0, 64, 51
2,119930, Control_c, 0, 64, 51
2,119950, Control_c, 0, 64, 50
2,119969, Control_c, 0, 64, 49
2,119990, Control_c, 0, 64, 49
2,120021, Note_on_c, 0, 63, 0
2,120053, Note_on_c, 0, 65, 49
2,120053, Note_on_c, 0, 66, 0
2,120065, Note_on_c, 0, 68, 50
2,120076, Note_on_c, 0, 54, 0
2,120100, Note_on_c, 0, 53, 33
2,120123, Control_c, 0, 64, 48
2,120161, Control_c, 0, 64, 48
2,120180, Control_c, 0, 64, 47
2,120450, Note_on_c, 0, 65, 0
2,120459, Note_on_c, 0, 68, 0
2,120486, Note_on_c, 0, 70, 46
2,120487, Control_c, 0, 64, 47
2,120494, Note_on_c, 0, 66, 38
2,120506, Note_on_c, 0, 51, 29
2,120507, Control_c, 0, 64, 45
2,120526, Control_c, 0, 64, 43
2,120543, Note_on_c, 0, 53, 0
2,120544, Control_c, 0, 64, 40
2,120564, Control_c, 0, 64, 38
2,120583, Control_c, 0, 64, 36
2,120603, Control_c, 0, 64, 35
2,120621, Control_c, 0, 64, 35
2,120641, Control_c, 0, 64, 34
2,120660, Control_c, 0, 64, 32
2,120679, Control_c, 0, 64, 31
2,120698, Control_c, 0, 64, 30
2,120756, Control_c, 0, 64, 31
2,120775, Control_c, 0, 64, 36
2,120795, Control_c, 0, 64, 44
2,120814, Control_c, 0, 64, 53
2,120833, Control_c, 0, 64, 59
2,120852, Control_c, 0, 64, 61
2,120858, Note_on_c, 0, 70, 0
2,120872, Control_c, 0, 64, 63
2,120887, Note_on_c, 0, 65, 39
2,120890, Control_c, 0, 64, 64
2,120910, Control_c, 0, 64, 66
2,120929, Control_c, 0, 64, 67
2,120930, Note_on_c, 0, 66, 0
2,120949, Control_c, 0, 64, 69
2,120967, Control_c, 0, 64, 71
2,120987, Control_c, 0, 64, 72
2,121006, Control_c, 0, 64, 73
2,121021, Note_on_c, 0, 65, 0
2,121024, Control_c, 0, 64, 73
2,121063, Control_c, 0, 64, 74
2,121083, Control_c, 0, 64, 74
2,121101, Control_c, 0, 64, 75
2,121121, Control_c, 0, 64, 75
2,121275, Control_c, 0, 64, 75
2,121291, Note_on_c, 0, 72, 47
2,121294, Control_c, 0, 64, 71
2,121297, Note_on_c, 0, 63, 44
2,121313, Control_c, 0, 64, 65
2,121320, Note_on_c, 0, 56, 41
2,121332, Control_c, 0, 64, 59
2,121352, Control_c, 0, 64, 54
2,121370, Control_c, 0, 64, 53
2,121384, Note_on_c, 0, 51, 0
2,121390, Control_c, 0, 64, 55
2,121409, Control_c, 0, 64, 58
2,121429, Control_c, 0, 64, 61
2,121447, Control_c, 0, 64, 64
2,121467, Control_c, 0, 64, 65
2,121486, Control_c, 0, 64, 67
2,121504, Control_c, 0, 64, 68
2,121524, Control_c, 0, 64, 70
2,121543, Control_c, 0, 64, 71
2,121563, Control_c, 0, 64, 72
2,121581, Control_c, 0, 64, 73
2,121658, Control_c, 0, 64, 74
2,121697, Control_c, 0, 64, 74
2,121697, Note_on_c, 0, 72, 0
2,121697, Note_on_c, 0, 74, 52
2,121774, Control_c, 0, 64, 74
2,121812, Control_c, 0, 64, 73
2,121949, Control_c, 0, 64, 73
2,121984, Control_c, 0, 64, 72
2,122023, Control_c, 0, 64, 72
2,122061, Control_c, 0, 64, 71
2,122100, Control_c, 0, 64, 71
2,122115, Note_on_c, 0, 70, 70
2,122119, Control_c, 0, 64, 66
2,122119, Note_on_c, 0, 74, 0
2,122138, Control_c, 0, 64, 57
2,122142, Note_on_c, 0, 75, 53
2,122158, Control_c, 0, 64, 41
2,122177, Control_c, 0, 64, 25
2,122196, Control_c, 0, 64, 15
2,122215, Control_c, 0, 64, 17
2,122235, Control_c, 0, 64, 31
2,122254, Control_c, 0, 64, 46
2,122273, Control_c, 0, 64, 58
2,122292, Control_c, 0, 64, 62
2,122312, Control_c, 0, 64, 63
2,122330, Control_c, 0, 64, 64
2,122350, Control_c, 0, 64, 64
2,122369, Control_c, 0, 64, 65
2,122389, Control_c, 0, 64, 66
2,122407, Control_c, 0, 64, 67
2,122427, Control_c, 0, 64, 67
2,122446, Control_c, 0, 64, 68
2,122484, Control_c, 0, 64, 69
2,122503, Control_c, 0, 64, 70
2,122512, Note_on_c, 0, 56, 0
2,122523, Control_c, 0, 64, 71
2,122528, Note_on_c, 0, 55, 33
2,122541, Control_c, 0, 64, 72
2,122556, Note_on_c, 0, 63, 0
2,122561, Control_c, 0, 64, 73
2,122631, Note_on_c, 0, 55, 0
2,122697, Note_on_c, 0, 53, 33
2,122753, Control_c, 0, 64, 73
2,122810, Control_c, 0, 64, 73
2,122849, Control_c, 0, 64, 72
2,122889, Control_c, 0, 64, 72
2,122909, Control_c, 0, 64, 69
2,122928, Control_c, 0, 64, 64
2,122934, Note_on_c, 0, 63, 50
2,122942, Note_on_c, 0, 53, 0
2,122944, Control_c, 0, 64, 52
2,122951, Note_on_c, 0, 55, 30
2,122964, Control_c, 0, 64, 37
2,122983, Control_c, 0, 64, 22
2,123003, Control_c, 0, 64, 18
2,123021, Control_c, 0, 64, 21
2,123041, Control_c, 0, 64, 36
2,123060, Control_c, 0, 64, 50
2,123079, Control_c, 0, 64, 58
2,123098, Control_c, 0, 64, 62
2,123118, Control_c, 0, 64, 63
2,123137, Control_c, 0, 64, 64
2,123156, Control_c, 0, 64, 64
2,123175, Control_c, 0, 64, 65
2,123310, Control_c, 0, 64, 66
2,123316, Note_on_c, 0, 75, 0
2,123325, Note_on_c, 0, 73, 45
2,123406, Note_on_c, 0, 70, 0
2,123424, Control_c, 0, 64, 65
2,123675, Control_c, 0, 64, 65
2,123694, Control_c, 0, 64, 64
2,123712, Note_on_c, 0, 73, 0
2,123713, Control_c, 0, 64, 60
2,123732, Control_c, 0, 64, 50
2,123735, Note_on_c, 0, 72, 41
2,123742, Note_on_c, 0, 56, 38
2,123752, Control_c, 0, 64, 39
2,123758, Note_on_c, 0, 55, 0
2,123770, Control_c, 0, 64, 31
2,123790, Control_c, 0, 64, 32
2,123809, Control_c, 0, 64, 39
2,123829, Control_c, 0, 64, 50
2,123847, Control_c, 0, 64, 58
2,123867, Control_c, 0, 64, 62
2,123886, Control_c, 0, 64, 64
2,123906, Control_c, 0, 64, 65
2,123925, Control_c, 0, 64, 66
2,123944, Control_c, 0, 64, 67
2,123948, Note_on_c, 0, 63, 0
2,123964, Control_c, 0, 64, 68
2,123982, Control_c, 0, 64, 70
2,124002, Control_c, 0, 64, 71
2,124059, Control_c, 0, 64, 70
2,124079, Control_c, 0, 64, 67
2,124098, Control_c, 0, 64, 62
2,124117, Control_c, 0, 64, 55
2,124127, Note_on_c, 0, 72, 0
2,124136, Control_c, 0, 64, 52
2,124153, Note_on_c, 0, 54, 34
2,124156, Control_c, 0, 64, 53
2,124159, Note_on_c, 0, 74, 35
2,124161, Note_on_c, 0, 65, 41
2,124170, Note_on_c, 0, 56, 0
2,124174, Control_c, 0, 64, 56
2,124194, Control_c, 0, 64, 60
2,124213, Control_c, 0, 64, 63
2,124233, Control_c, 0, 64, 64
2,124251, Control_c, 0, 64, 66
2,124271, Control_c, 0, 64, 67
2,124290, Control_c, 0, 64, 68
2,124293, Note_on_c, 0, 65, 0
2,124310, Control_c, 0, 64, 70
2,124328, Control_c, 0, 64, 71
2,124348, Control_c, 0, 64, 73
2,124367, Control_c, 0, 64, 73
2,124386, Control_c, 0, 64, 74
2,124501, Control_c, 0, 64, 72
2,124520, Control_c, 0, 64, 67
2,124539, Control_c, 0, 64, 61
2,124556, Note_on_c, 0, 66, 42
2,124559, Control_c, 0, 64, 55
2,124561, Note_on_c, 0, 53, 31
2,124562, Note_on_c, 0, 75, 43
2,124575, Note_on_c, 0, 54, 0
2,124578, Control_c, 0, 64, 54
2,124583, Note_on_c, 0, 74, 0
2,124597, Control_c, 0, 64, 56
2,124616, Control_c, 0, 64, 60
2,124636, Control_c, 0, 64, 62
2,124654, Control_c, 0, 64, 64
2,124674, Control_c, 0, 64, 65
2,124693, Control_c, 0, 64, 67
2,124713, Control_c, 0, 64, 69
2,124731, Control_c, 0, 64, 70
2,124751, Control_c, 0, 64, 72
2,124770, Control_c, 0, 64, 73
2,124864, Control_c, 0, 64, 72
2,124884, Control_c, 0, 64, 71
2,124903, Control_c, 0, 64, 70
2,124923, Control_c, 0, 64, 70
2,124932, Note_on_c, 0, 51, 37
2,124932, Note_on_c, 0, 53, 0
2,124941, Control_c, 0, 64, 69
2,124961, Control_c, 0, 64, 67
2,124980, Control_c, 0, 64, 66
2,124999, Control_c, 0, 64, 65
2,125018, Control_c, 0, 64, 65
2,125332, Note_on_c, 0, 51, 0
2,125344, Note_on_c, 0, 68, 50
2,125364, Note_on_c, 0, 53, 34
2,125383, Control_c, 0, 64, 64
2,125384, Note_on_c, 0, 66, 0
2,125403, Control_c, 0, 64, 64
2,125421, Control_c, 0, 64, 63
2,125460, Control_c, 0, 64, 63
2,125479, Control_c, 0, 64, 62
2,125556, Control_c, 0, 64, 62
2,125595, Control_c, 0, 64, 61
2,125614, Control_c, 0, 64, 61
2,125652, Control_c, 0, 64, 60
2,125754, Note_on_c, 0, 54, 37
2,125805, Control_c, 0, 64, 60
2,125809, Note_on_c, 0, 53, 0
2,125843, Control_c, 0, 64, 59
2,125882, Control_c, 0, 64, 59
2,126125, Note_on_c, 0, 75, 0
2,126143, Note_on_c, 0, 74, 42
2,126169, Control_c, 0, 64, 58
2,126171, Note_on_c, 0, 56, 39
2,126208, Control_c, 0, 64, 57
2,126225, Note_on_c, 0, 54, 0
2,126228, Control_c, 0, 64, 57
2,126246, Control_c, 0, 64, 56
2,126265, Control_c, 0, 64, 56
2,126304, Control_c, 0, 64, 55
2,126400, Control_c, 0, 64, 55
2,126439, Control_c, 0, 64, 54
2,126457, Control_c, 0, 64, 54
2,126477, Control_c, 0, 64, 53
2,126515, Control_c, 0, 64, 53
2,126569, Note_on_c, 0, 58, 43
2,126609, Note_on_c, 0, 56, 0
2,126708, Control_c, 0, 64, 53
2,126726, Control_c, 0, 64, 54
2,126745, Control_c, 0, 64, 54
2,126765, Control_c, 0, 64, 55
2,126784, Control_c, 0, 64, 55
2,126803, Control_c, 0, 64, 56
2,126822, Control_c, 0, 64, 57
2,126842, Control_c, 0, 64, 58
2,126880, Control_c, 0, 64, 57
2,126899, Control_c, 0, 64, 55
2,126913, Note_on_c, 0, 74, 0
2,126919, Control_c, 0, 64, 52
2,126921, Note_on_c, 0, 58, 0
2,126924, Note_on_c, 0, 51, 37
2,126928, Note_on_c, 0, 68, 0
2,126937, Control_c, 0, 64, 50
2,126951, Note_on_c, 0, 75, 44
2,126973, Note_on_c, 0, 66, 32
2,126976, Control_c, 0, 64, 53
2,126995, Control_c, 0, 64, 56
2,127014, Control_c, 0, 64, 58
2,127034, Control_c, 0, 64, 59
2,127053, Control_c, 0, 64, 59
2,127072, Control_c, 0, 64, 60
2,127091, Control_c, 0, 64, 61
2,127111, Control_c, 0, 64, 63
2,127129, Control_c, 0, 64, 64
2,127135, Note_on_c, 0, 63, 59
2,127149, Control_c, 0, 64, 65
2,127168, Control_c, 0, 64, 66
2,127174, Note_on_c, 0, 51, 0
2,127188, Control_c, 0, 64, 67
2,127206, Control_c, 0, 64, 68
2,127225, Control_c, 0, 64, 69
2,127245, Control_c, 0, 64, 69
2,127264, Control_c, 0, 64, 70
2,127283, Control_c, 0, 64, 70
2,127302, Control_c, 0, 64, 71
2,127321, Note_on_c, 0, 61, 64
2,127322, Control_c, 0, 64, 72
2,127334, Note_on_c, 0, 63, 0
2,127347, Note_on_c, 0, 68, 48
2,127387, Note_on_c, 0, 66, 0
2,127417, Control_c, 0, 64, 71
2,127456, Control_c, 0, 64, 71
2,127459, Note_on_c, 0, 68, 0
2,127475, Control_c, 0, 64, 70
2,127491, Note_on_c, 0, 61, 0
2,127494, Control_c, 0, 64, 70
2,127503, Note_on_c, 0, 59, 65
2,127514, Control_c, 0, 64, 69
2,127533, Control_c, 0, 64, 69
2,127552, Control_c, 0, 64, 68
2,127571, Control_c, 0, 64, 68
2,127591, Control_c, 0, 64, 67
2,127609, Control_c, 0, 64, 67
2,127629, Control_c, 0, 64, 66
2,127648, Control_c, 0, 64, 65
2,127672, Control_c, 0, 64, 65
2,127691, Control_c, 0, 64, 64
2,127711, Control_c, 0, 64, 63
2,127719, Note_on_c, 0, 74, 49
2,127729, Control_c, 0, 64, 62
2,127738, Note_on_c, 0, 58, 58
2,127739, Note_on_c, 0, 70, 45
2,127741, Note_on_c, 0, 75, 0
2,127744, Control_c, 0, 64, 60
2,127763, Control_c, 0, 64, 57
2,127782, Control_c, 0, 64, 53
2,127782, Note_on_c, 0, 59, 0
2,127802, Control_c, 0, 64, 48
2,127820, Control_c, 0, 64, 43
2,127840, Control_c, 0, 64, 39
2,127859, Control_c, 0, 64, 35
2,127879, Control_c, 0, 64, 33
2,127897, Control_c, 0, 64, 32
2,127936, Control_c, 0, 64, 36
2,127955, Control_c, 0, 64, 43
2,127974, Control_c, 0, 64, 50
2,127994, Control_c, 0, 64, 57
2,128013, Control_c, 0, 64, 61
2,128032, Control_c, 0, 64, 63
2,128051, Control_c, 0, 64, 64
2,128071, Control_c, 0, 64, 66
2,128089, Control_c, 0, 64, 67
2,128107, Note_on_c, 0, 72, 52
2,128109, Control_c, 0, 64, 69
2,128114, Note_on_c, 0, 75, 58
2,128128, Control_c, 0, 64, 71
2,128148, Control_c, 0, 64, 73
2,128154, Note_on_c, 0, 74, 0
2,128166, Control_c, 0, 64, 75
2,128185, Control_c, 0, 64, 76
2,128205, Control_c, 0, 64, 77
2,128216, Note_on_c, 0, 70, 0
2,128224, Control_c, 0, 64, 78
2,128241, Note_on_c, 0, 75, 0
2,128243, Control_c, 0, 64, 80
2,128262, Control_c, 0, 64, 81
2,128282, Control_c, 0, 64, 82
2,128286, Note_on_c, 0, 72, 0
2,128300, Control_c, 0, 64, 83
2,128339, Control_c, 0, 64, 83
2,128539, Note_on_c, 0, 74, 59
2,128549, Note_on_c, 0, 58, 0
2,128553, Note_on_c, 0, 77, 61
2,128589, Control_c, 0, 64, 83
2,128741, Control_c, 0, 64, 82
2,128799, Control_c, 0, 64, 82
2,128895, Control_c, 0, 64, 80
2,128915, Control_c, 0, 64, 73
2,128933, Control_c, 0, 64, 65
2,128936, Note_on_c, 0, 54, 51
2,128951, Note_on_c, 0, 80, 59
2,128953, Control_c, 0, 64, 57
2,128972, Control_c, 0, 64, 54
2,128991, Control_c, 0, 64, 55
2,129000, Note_on_c, 0, 74, 0
2,129010, Control_c, 0, 64, 57
2,129012, Note_on_c, 0, 77, 0
2,129030, Control_c, 0, 64, 60
2,129049, Control_c, 0, 64, 63
2,129068, Control_c, 0, 64, 65
2,129087, Control_c, 0, 64, 68
2,129107, Control_c, 0, 64, 71
2,129125, Control_c, 0, 64, 74
2,129144, Control_c, 0, 64, 77
2,129164, Control_c, 0, 64, 78
2,129183, Control_c, 0, 64, 79
2,129241, Control_c, 0, 64, 80
2,129279, Control_c, 0, 64, 77
2,129298, Control_c, 0, 64, 72
2,129318, Control_c, 0, 64, 65
2,129336, Control_c, 0, 64, 61
2,129350, Note_on_c, 0, 78, 64
2,129353, Note_on_c, 0, 60, 53
2,129356, Control_c, 0, 64, 60
2,129365, Note_on_c, 0, 56, 55
2,129375, Control_c, 0, 64, 61
2,129395, Control_c, 0, 64, 63
2,129413, Control_c, 0, 64, 64
2,129415, Note_on_c, 0, 54, 0
2,129433, Control_c, 0, 64, 66
2,129452, Control_c, 0, 64, 68
2,129471, Control_c, 0, 64, 70
2,129474, Note_on_c, 0, 80, 0
2,129490, Control_c, 0, 64, 72
2,129510, Control_c, 0, 64, 74
2,129529, Control_c, 0, 64, 74
2,129567, Control_c, 0, 64, 73
2,129587, Control_c, 0, 64, 71
2,129605, Control_c, 0, 64, 65
2,129624, Control_c, 0, 64, 59
2,129644, Control_c, 0, 64, 52
2,129663, Control_c, 0, 64, 49
2,129701, Control_c, 0, 64, 50
2,129721, Control_c, 0, 64, 52
2,129725, Note_on_c, 0, 77, 66
2,129726, Note_on_c, 0, 62, 54
2,129732, Note_on_c, 0, 56, 0
2,129739, Control_c, 0, 64, 56
2,129741, Note_on_c, 0, 60, 0
2,129755, Note_on_c, 0, 58, 59
2,129759, Control_c, 0, 64, 59
2,129775, Note_on_c, 0, 78, 0
2,129778, Control_c, 0, 64, 62
2,129798, Control_c, 0, 64, 64
2,129816, Control_c, 0, 64, 65
2,129836, Control_c, 0, 64, 66
2,129855, Control_c, 0, 64, 67
2,129893, Control_c, 0, 64, 66
2,129913, Control_c, 0, 64, 64
2,129932, Control_c, 0, 64, 61
2,129951, Control_c, 0, 64, 59
2,129970, Control_c, 0, 64, 59
2,129990, Control_c, 0, 64, 59
2,130009, Control_c, 0, 64, 60
2,130028, Control_c, 0, 64, 61
2,130047, Control_c, 0, 64, 62
2,130051, Note_on_c, 0, 58, 0
2,130067, Control_c, 0, 64, 62
2,130085, Control_c, 0, 64, 63
2,130104, Control_c, 0, 64, 63
2,130118, Note_on_c, 0, 75, 66
2,130130, Note_on_c, 0, 63, 61
2,130143, Control_c, 0, 64, 63
2,130149, Note_on_c, 0, 77, 0
2,130150, Note_on_c, 0, 59, 49
2,130181, Control_c, 0, 64, 62
2,130184, Note_on_c, 0, 62, 0
2,130201, Control_c, 0, 64, 62
2,130219, Control_c, 0, 64, 61
2,130296, Control_c, 0, 64, 62
2,130412, Control_c, 0, 64, 61
2,130508, Control_c, 0, 64, 61
2,130526, Note_on_c, 0, 73, 64
2,130528, Note_on_c, 0, 58, 55
2,130548, Control_c, 0, 64, 60
2,130585, Control_c, 0, 64, 60
2,130597, Note_on_c, 0, 59, 0
2,130605, Control_c, 0, 64, 59
2,130623, Control_c, 0, 64, 59
2,130642, Control_c, 0, 64, 58
2,130661, Control_c, 0, 64, 58
2,130677, Note_on_c, 0, 75, 0
2,130815, Control_c, 0, 64, 57
2,130853, Control_c, 0, 64, 57
2,130873, Control_c, 0, 64, 56
2,130937, Note_on_c, 0, 71, 56
2,130950, Control_c, 0, 64, 56
2,130953, Note_on_c, 0, 56, 55
2,130969, Control_c, 0, 64, 55
2,130979, Note_on_c, 0, 73, 0
2,130988, Control_c, 0, 64, 55
2,131011, Note_on_c, 0, 58, 0
2,131026, Control_c, 0, 64, 54
2,131045, Control_c, 0, 64, 54
2,131276, Control_c, 0, 64, 53
2,131315, Control_c, 0, 64, 53
2,131339, Note_on_c, 0, 65, 56
2,131362, Note_on_c, 0, 70, 55
2,131374, Note_on_c, 0, 71, 0
2,131393, Note_on_c, 0, 63, 0
2,131410, Control_c, 0, 64, 52
2,131430, Control_c, 0, 64, 52
2,131468, Control_c, 0, 64, 51
2,131504, Note_on_c, 0, 70, 0
2,131527, Note_on_c, 0, 71, 61
2,131641, Control_c, 0, 64, 51
2,131718, Control_c, 0, 64, 50
2,131724, Note_on_c, 0, 66, 66
2,131724, Note_on_c, 0, 71, 0
2,131726, Note_on_c, 0, 63, 66
2,131729, Note_on_c, 0, 65, 0
2,131731, Note_on_c, 0, 70, 65
2,131774, Note_on_c, 0, 56, 0
2,131833, Control_c, 0, 64, 50
2,131929, Control_c, 0, 64, 50
2,131986, Control_c, 0, 64, 51
2,132024, Control_c, 0, 64, 51
2,132101, Control_c, 0, 64, 52
2,132125, Note_on_c, 0, 72, 59
2,132139, Control_c, 0, 64, 52
2,132151, Note_on_c, 0, 70, 0
2,132178, Control_c, 0, 64, 53
2,132409, Control_c, 0, 64, 53
2,132538, Note_on_c, 0, 58, 56
2,132545, Note_on_c, 0, 74, 54
2,132546, Note_on_c, 0, 65, 50
2,132554, Note_on_c, 0, 63, 0
2,132581, Control_c, 0, 64, 54
2,132582, Note_on_c, 0, 66, 0
2,132607, Note_on_c, 0, 72, 0
2,132937, Note_on_c, 0, 75, 62
2,132939, Note_on_c, 0, 63, 54
2,132946, Control_c, 0, 64, 54
2,133004, Control_c, 0, 64, 55
2,133006, Note_on_c, 0, 65, 0
2,133031, Note_on_c, 0, 74, 0
2,133196, Control_c, 0, 64, 54
2,133253, Control_c, 0, 64, 54
2,133273, Control_c, 0, 64, 53
2,133292, Control_c, 0, 64, 48
2,133311, Control_c, 0, 64, 34
2,133329, Note_on_c, 0, 77, 72
2,133330, Control_c, 0, 64, 0
2,133357, Note_on_c, 0, 62, 48
2,133369, Note_on_c, 0, 63, 0
2,133379, Note_on_c, 0, 75, 0
2,133407, Control_c, 0, 64, 29
2,133426, Control_c, 0, 64, 46
2,133445, Control_c, 0, 64, 52
2,133464, Control_c, 0, 64, 55
2,133484, Control_c, 0, 64, 58
2,133503, Control_c, 0, 64, 60
2,133523, Control_c, 0, 64, 62
2,133542, Control_c, 0, 64, 64
2,133562, Control_c, 0, 64, 64
2,133580, Control_c, 0, 64, 65
2,133619, Control_c, 0, 64, 64
2,133639, Control_c, 0, 64, 63
2,133657, Control_c, 0, 64, 58
2,133677, Control_c, 0, 64, 49
2,133696, Control_c, 0, 64, 45
2,133715, Control_c, 0, 64, 45
2,133722, Note_on_c, 0, 70, 64
2,133724, Note_on_c, 0, 62, 0
2,133734, Control_c, 0, 64, 48
2,133744, Note_on_c, 0, 63, 49
2,133754, Control_c, 0, 64, 53
2,133754, Note_on_c, 0, 60, 50
2,133765, Note_on_c, 0, 77, 0
2,133773, Control_c, 0, 64, 57
2,133785, Note_on_c, 0, 58, 0
2,133792, Control_c, 0, 64, 58
2,133811, Control_c, 0, 64, 60
2,133831, Control_c, 0, 64, 61
2,133849, Control_c, 0, 64, 62
2,133869, Control_c, 0, 64, 63
2,133888, Control_c, 0, 64, 63
2,134060, Control_c, 0, 64, 63
2,134080, Control_c, 0, 64, 60
2,134099, Control_c, 0, 64, 52
2,134119, Control_c, 0, 64, 43
2,134119, Note_on_c, 0, 60, 0
2,134120, Note_on_c, 0, 82, 74
2,134137, Control_c, 0, 64, 37
2,134139, Note_on_c, 0, 63, 0
2,134157, Control_c, 0, 64, 37
2,134159, Note_on_c, 0, 70, 0
2,134160, Note_on_c, 0, 65, 42
2,134175, Note_on_c, 0, 62, 40
2,134176, Control_c, 0, 64, 39
2,134195, Control_c, 0, 64, 43
2,134214, Control_c, 0, 64, 49
2,134234, Control_c, 0, 64, 55
2,134253, Control_c, 0, 64, 59
2,134272, Control_c, 0, 64, 62
2,134291, Control_c, 0, 64, 63
2,134311, Control_c, 0, 64, 63
2,134349, Control_c, 0, 64, 64
2,134406, Control_c, 0, 64, 64
2,134502, Control_c, 0, 64, 63
2,134522, Control_c, 0, 64, 60
2,134540, Control_c, 0, 64, 54
2,134542, Note_on_c, 0, 80, 70
2,134560, Control_c, 0, 64, 48
2,134579, Control_c, 0, 64, 46
2,134599, Control_c, 0, 64, 47
2,134617, Control_c, 0, 64, 51
2,134617, Note_on_c, 0, 82, 0
2,134637, Control_c, 0, 64, 58
2,134656, Control_c, 0, 64, 60
2,134675, Control_c, 0, 64, 61
2,134694, Control_c, 0, 64, 62
2,134714, Control_c, 0, 64, 63
2,134733, Control_c, 0, 64, 63
2,134752, Control_c, 0, 64, 64
2,134771, Control_c, 0, 64, 64
2,134829, Control_c, 0, 64, 65
2,134886, Control_c, 0, 64, 63
2,134905, Control_c, 0, 64, 57
2,134925, Control_c, 0, 64, 47
2,134931, Note_on_c, 0, 78, 68
2,134944, Control_c, 0, 64, 41
2,134949, Note_on_c, 0, 62, 0
2,134960, Note_on_c, 0, 80, 0
2,134963, Control_c, 0, 64, 41
2,134970, Note_on_c, 0, 63, 48
2,134971, Note_on_c, 0, 65, 0
2,134982, Control_c, 0, 64, 44
2,135002, Control_c, 0, 64, 52
2,135020, Control_c, 0, 64, 59
2,135040, Control_c, 0, 64, 63
2,135059, Control_c, 0, 64, 64
2,135079, Control_c, 0, 64, 65
2,135097, Control_c, 0, 64, 65
2,135117, Control_c, 0, 64, 66
2,135212, Note_on_c, 0, 63, 0
2,135232, Control_c, 0, 64, 65
2,135271, Control_c, 0, 64, 65
2,135289, Control_c, 0, 64, 64
2,135309, Control_c, 0, 64, 63
2,135328, Control_c, 0, 64, 62
2,135338, Note_on_c, 0, 80, 76
2,135350, Control_c, 0, 64, 61
2,135357, Note_on_c, 0, 59, 61
2,135362, Note_on_c, 0, 63, 53
2,135368, Control_c, 0, 64, 59
2,135388, Control_c, 0, 64, 57
2,135407, Control_c, 0, 64, 55
2,135424, Control_c, 0, 64, 53
2,135444, Control_c, 0, 64, 52
2,135450, Note_on_c, 0, 78, 0
2,135463, Control_c, 0, 64, 52
2,135479, Note_on_c, 0, 63, 0
2,135497, Note_on_c, 0, 62, 59
2,135501, Control_c, 0, 64, 52
2,135521, Control_c, 0, 64, 53
2,135540, Control_c, 0, 64, 53
2,135559, Control_c, 0, 64, 54
2,135578, Control_c, 0, 64, 54
2,135636, Control_c, 0, 64, 55
2,135655, Control_c, 0, 64, 56
2,135675, Control_c, 0, 64, 57
2,135694, Control_c, 0, 64, 58
2,135741, Note_on_c, 0, 63, 56
2,135742, Note_on_c, 0, 54, 47
2,135748, Note_on_c, 0, 82, 79
2,135749, Note_on_c, 0, 62, 0
2,135786, Note_on_c, 0, 59, 0
2,135790, Control_c, 0, 64, 58
2,135809, Control_c, 0, 64, 59
2,135823, Note_on_c, 0, 80, 0
2,135829, Control_c, 0, 64, 59
2,135866, Control_c, 0, 64, 60
2,135886, Control_c, 0, 64, 60
2,135904, Control_c, 0, 64, 61
2,135943, Control_c, 0, 64, 61
2,136123, Note_on_c, 0, 83, 72
2,136130, Note_on_c, 0, 56, 50
2,136144, Note_on_c, 0, 54, 0
2,136174, Control_c, 0, 64, 61
2,136196, Note_on_c, 0, 82, 0
2,136212, Control_c, 0, 64, 60
2,136519, Control_c, 0, 64, 59
2,136537, Control_c, 0, 64, 55
2,136549, Note_on_c, 0, 77, 70
2,136557, Control_c, 0, 64, 45
2,136576, Control_c, 0, 64, 13
2,136576, Note_on_c, 0, 58, 40
2,136595, Control_c, 0, 64, 0
2,136643, Note_on_c, 0, 83, 0
2,136662, Note_on_c, 0, 56, 0
2,136691, Control_c, 0, 64, 45
2,136711, Control_c, 0, 64, 60
2,136729, Control_c, 0, 64, 63
2,136749, Control_c, 0, 64, 64
2,136768, Control_c, 0, 64, 65
2,136787, Control_c, 0, 64, 65
2,136806, Control_c, 0, 64, 66
2,136825, Control_c, 0, 64, 66
2,136845, Control_c, 0, 64, 67
2,136902, Control_c, 0, 64, 66
2,136955, Note_on_c, 0, 63, 0
2,136964, Note_on_c, 0, 61, 49
2,137017, Control_c, 0, 64, 66
2,137269, Control_c, 0, 64, 65
2,137331, Note_on_c, 0, 61, 0
2,137333, Note_on_c, 0, 79, 77
2,137344, Control_c, 0, 64, 64
2,137356, Note_on_c, 0, 59, 55
2,137360, Note_on_c, 0, 58, 0
2,137363, Control_c, 0, 64, 57
2,137382, Control_c, 0, 64, 36
2,137385, Note_on_c, 0, 51, 32
2,137402, Control_c, 0, 64, 0
2,137417, Note_on_c, 0, 77, 0
2,137479, Control_c, 0, 64, 15
2,137497, Control_c, 0, 64, 47
2,137517, Control_c, 0, 64, 59
2,137536, Control_c, 0, 64, 62
2,137555, Control_c, 0, 64, 63
2,137574, Control_c, 0, 64, 63
2,137594, Control_c, 0, 64, 64
2,137613, Control_c, 0, 64, 64
2,137731, Note_on_c, 0, 59, 0
2,137743, Note_on_c, 0, 58, 52
2,137805, Control_c, 0, 64, 65
2,137939, Control_c, 0, 64, 65
2,137959, Control_c, 0, 64, 66
2,137977, Control_c, 0, 64, 67
2,137997, Control_c, 0, 64, 67
2,138050, Note_on_c, 0, 51, 0
2,138094, Note_on_c, 0, 58, 0
2,138112, Control_c, 0, 64, 66
2,138131, Control_c, 0, 64, 62
2,138151, Control_c, 0, 64, 50
2,138151, Note_on_c, 0, 80, 66
2,138152, Note_on_c, 0, 59, 60
2,138169, Control_c, 0, 64, 32
2,138183, Note_on_c, 0, 56, 48
2,138189, Control_c, 0, 64, 15
2,138193, Note_on_c, 0, 79, 0
2,138227, Control_c, 0, 64, 35
2,138246, Control_c, 0, 64, 52
2,138265, Control_c, 0, 64, 61
2,138285, Control_c, 0, 64, 64
2,138304, Control_c, 0, 64, 66
2,138323, Control_c, 0, 64, 67
2,138342, Control_c, 0, 64, 68
2,138353, Note_on_c, 0, 56, 0
2,138362, Control_c, 0, 64, 70
2,138380, Control_c, 0, 64, 72
2,138400, Control_c, 0, 64, 74
2,138419, Control_c, 0, 64, 74
2,138457, Control_c, 0, 64, 74
2,138477, Control_c, 0, 64, 70
2,138496, Control_c, 0, 64, 62
2,138515, Control_c, 0, 64, 52
2,138534, Control_c, 0, 64, 50
2,138553, Note_on_c, 0, 78, 66
2,138554, Control_c, 0, 64, 52
2,138573, Control_c, 0, 64, 57
2,138589, Note_on_c, 0, 63, 58
2,138591, Note_on_c, 0, 59, 0
2,138592, Control_c, 0, 64, 62
2,138594, Note_on_c, 0, 58, 50
2,138611, Control_c, 0, 64, 65
2,138631, Control_c, 0, 64, 67
2,138633, Note_on_c, 0, 80, 0
2,138649, Control_c, 0, 64, 70
2,138669, Control_c, 0, 64, 72
2,138688, Control_c, 0, 64, 74
2,138707, Control_c, 0, 64, 75
2,138726, Control_c, 0, 64, 76
2,138729, Note_on_c, 0, 58, 0
2,138745, Note_on_c, 0, 63, 0
2,138919, Control_c, 0, 64, 74
2,138937, Control_c, 0, 64, 68
2,138957, Control_c, 0, 64, 59
2,138976, Control_c, 0, 64, 47
2,138979, Note_on_c, 0, 68, 69
2,138989, Note_on_c, 0, 77, 59
2,138995, Control_c, 0, 64, 41
2,139005, Note_on_c, 0, 59, 54
2,139014, Control_c, 0, 64, 31
2,139034, Control_c, 0, 64, 21
2,139035, Note_on_c, 0, 78, 0
2,139053, Control_c, 0, 64, 20
2,139072, Control_c, 0, 64, 21
2,139091, Control_c, 0, 64, 27
2,139111, Control_c, 0, 64, 31
2,139129, Control_c, 0, 64, 35
2,139149, Control_c, 0, 64, 39
2,139168, Control_c, 0, 64, 43
2,139187, Control_c, 0, 64, 45
2,139264, Control_c, 0, 64, 46
2,139283, Control_c, 0, 64, 47
2,139302, Control_c, 0, 64, 48
2,139322, Control_c, 0, 64, 49
2,139340, Control_c, 0, 64, 50
2,139360, Control_c, 0, 64, 50
2,139399, Control_c, 0, 64, 51
2,139404, Note_on_c, 0, 75, 62
2,139417, Control_c, 0, 64, 52
2,139437, Control_c, 0, 64, 52
2,139444, Note_on_c, 0, 77, 0
2,139456, Control_c, 0, 64, 53
2,139494, Control_c, 0, 64, 53
2,139514, Control_c, 0, 64, 54
2,139533, Control_c, 0, 64, 54
2,139591, Control_c, 0, 64, 54
2,139609, Control_c, 0, 64, 53
2,139667, Control_c, 0, 64, 53
2,139816, Note_on_c, 0, 74, 54
2,139820, Control_c, 0, 64, 52
2,139842, Note_on_c, 0, 58, 42
2,139859, Control_c, 0, 64, 52
2,139880, Note_on_c, 0, 75, 0
2,139902, Note_on_c, 0, 59, 0
2,140013, Control_c, 0, 64, 51
2,140032, Control_c, 0, 64, 51
2,140051, Control_c, 0, 64, 50
2,140224, Control_c, 0, 64, 50
2,140243, Control_c, 0, 64, 49
2,140243, Note_on_c, 0, 66, 41
2,140282, Control_c, 0, 64, 49
2,140297, Note_on_c, 0, 68, 0
2,140569, Control_c, 0, 64, 48
2,140607, Note_on_c, 0, 75, 56
2,140608, Control_c, 0, 64, 47
2,140627, Control_c, 0, 64, 47
2,140635, Note_on_c, 0, 65, 35
2,140646, Control_c, 0, 64, 46
2,140658, Note_on_c, 0, 66, 0
2,140665, Control_c, 0, 64, 45
2,140685, Control_c, 0, 64, 44
2,140688, Note_on_c, 0, 74, 0
2,140704, Control_c, 0, 64, 43
2,140723, Control_c, 0, 64, 43
2,140819, Control_c, 0, 64, 42
2,140839, Control_c, 0, 64, 42
2,140857, Control_c, 0, 64, 41
2,140877, Control_c, 0, 64, 41
2,141044, Note_on_c, 0, 65, 0
2,141080, Note_on_c, 0, 63, 19
2,141298, Control_c, 0, 64, 41
2,141318, Control_c, 0, 64, 42
2,141356, Control_c, 0, 64, 43
2,141433, Control_c, 0, 64, 44
2,141443, Note_on_c, 0, 65, 26
2,141452, Control_c, 0, 64, 44
2,141471, Control_c, 0, 64, 45
2,141490, Control_c, 0, 64, 46
2,141496, Note_on_c, 0, 63, 0
2,141510, Control_c, 0, 64, 46
2,141529, Control_c, 0, 64, 47
2,141567, Control_c, 0, 64, 47
2,141586, Control_c, 0, 64, 48
2,141605, Control_c, 0, 64, 48
2,141682, Control_c, 0, 64, 49
2,141721, Control_c, 0, 64, 49
2,141759, Control_c, 0, 64, 50
2,141798, Control_c, 0, 64, 50
2,141858, Note_on_c, 0, 73, 44
2,142012, Note_on_c, 0, 75, 0
2,142182, Control_c, 0, 64, 51
2,142257, Note_on_c, 0, 71, 40
2,142276, Note_on_c, 0, 73, 0
2,142312, Note_on_c, 0, 65, 0
2,142317, Note_on_c, 0, 67, 13
2,142489, Control_c, 0, 64, 50
2,142566, Control_c, 0, 64, 50
2,142657, Note_on_c, 0, 71, 0
2,142659, Note_on_c, 0, 70, 44
2,142700, Control_c, 0, 64, 50
2,142739, Control_c, 0, 64, 51
2,142759, Control_c, 0, 64, 52
2,142777, Control_c, 0, 64, 53
2,142797, Control_c, 0, 64, 55
2,142816, Control_c, 0, 64, 56
2,142835, Control_c, 0, 64, 57
2,142874, Control_c, 0, 64, 58
2,142912, Control_c, 0, 64, 58
2,143065, Control_c, 0, 64, 58
2,143066, Note_on_c, 0, 67, 0
2,143088, Note_on_c, 0, 68, 33
2,143089, Note_on_c, 0, 71, 46
2,143136, Note_on_c, 0, 70, 0
2,143156, Note_on_c, 0, 58, 0
2,143499, Note_on_c, 0, 71, 0
2,143502, Note_on_c, 0, 70, 46
2,143510, Note_on_c, 0, 66, 36
2,143513, Note_on_c, 0, 68, 0
2,143528, Control_c, 0, 64, 57
2,143873, Control_c, 0, 64, 57
2,143894, Note_on_c, 0, 68, 50
2,143900, Note_on_c, 0, 66, 0
2,143903, Note_on_c, 0, 70, 0
2,143906, Note_on_c, 0, 65, 40
2,144027, Control_c, 0, 64, 57
2,144047, Control_c, 0, 64, 58
2,144066, Control_c, 0, 64, 58
2,144085, Control_c, 0, 64, 59
2,144104, Control_c, 0, 64, 59
2,144124, Control_c, 0, 64, 60
2,144142, Control_c, 0, 64, 61
2,144162, Control_c, 0, 64, 61
2,144181, Control_c, 0, 64, 62
2,144201, Control_c, 0, 64, 62
2,144219, Control_c, 0, 64, 63
2,144258, Control_c, 0, 64, 63
2,144277, Control_c, 0, 64, 64
2,144315, Control_c, 0, 64, 64
2,144322, Note_on_c, 0, 63, 43
2,144361, Note_on_c, 0, 65, 0
2,144373, Control_c, 0, 64, 65
2,144430, Control_c, 0, 64, 65
2,144507, Control_c, 0, 64, 66
2,144546, Control_c, 0, 64, 66
2,144604, Control_c, 0, 64, 67
2,144699, Control_c, 0, 64, 67
2,144738, Control_c, 0, 64, 68
2,144757, Control_c, 0, 64, 68
2,144815, Control_c, 0, 64, 66
2,144832, Note_on_c, 0, 46, 68
2,144833, Control_c, 0, 64, 59
2,144843, Note_on_c, 0, 62, 45
2,144853, Control_c, 0, 64, 43
2,144872, Control_c, 0, 64, 15
2,144873, Note_on_c, 0, 63, 0
2,144892, Control_c, 0, 64, 0
2,144910, Control_c, 0, 64, 9
2,144930, Control_c, 0, 64, 37
2,144949, Control_c, 0, 64, 54
2,144968, Control_c, 0, 64, 62
2,144987, Control_c, 0, 64, 64
2,145007, Control_c, 0, 64, 65
2,145024, Control_c, 0, 64, 66
2,145043, Control_c, 0, 64, 67
2,145061, Control_c, 0, 64, 68
2,145080, Control_c, 0, 64, 68
2,145195, Control_c, 0, 64, 69
2,145234, Control_c, 0, 64, 69
2,145253, Control_c, 0, 64, 70
2,145282, Note_on_c, 0, 62, 0
2,145301, Note_on_c, 0, 66, 49
2,145331, Note_on_c, 0, 68, 0
2,145460, Note_on_c, 0, 66, 0
2,145464, Control_c, 0, 64, 70
2,145468, Note_on_c, 0, 65, 53
2,145598, Control_c, 0, 64, 71
2,145618, Control_c, 0, 64, 71
2,145657, Control_c, 0, 64, 70
2,145675, Control_c, 0, 64, 65
2,145695, Control_c, 0, 64, 54
2,145700, Note_on_c, 0, 39, 65
2,145701, Note_on_c, 0, 65, 0
2,145714, Control_c, 0, 64, 30
2,145719, Note_on_c, 0, 66, 55
2,145724, Note_on_c, 0, 63, 47
2,145733, Control_c, 0, 64, 0
2,145768, Note_on_c, 0, 46, 0
2,145810, Control_c, 0, 64, 35
2,145829, Control_c, 0, 64, 51
2,145849, Control_c, 0, 64, 58
2,145867, Control_c, 0, 64, 60
2,145887, Control_c, 0, 64, 61
2,145909, Control_c, 0, 64, 61
2,145928, Control_c, 0, 64, 62
2,145947, Control_c, 0, 64, 63
2,145985, Control_c, 0, 64, 63
2,146042, Control_c, 0, 64, 64
2,146061, Control_c, 0, 64, 64
2,146079, Control_c, 0, 64, 65
2,146107, Note_on_c, 0, 63, 0
2,146113, Note_on_c, 0, 66, 0
2,146118, Control_c, 0, 64, 65
2,146129, Note_on_c, 0, 65, 52
2,146129, Note_on_c, 0, 68, 60
2,146195, Control_c, 0, 64, 66
2,146233, Control_c, 0, 64, 66
2,146253, Control_c, 0, 64, 67
2,146272, Control_c, 0, 64, 67
2,146291, Control_c, 0, 64, 68
2,146445, Control_c, 0, 64, 68
2,146464, Control_c, 0, 64, 69
2,146483, Control_c, 0, 64, 70
2,146502, Control_c, 0, 64, 71
2,146522, Control_c, 0, 64, 72
2,146532, Note_on_c, 0, 70, 83
2,146541, Control_c, 0, 64, 68
2,146556, Note_on_c, 0, 66, 60
2,146559, Control_c, 0, 64, 60
2,146579, Control_c, 0, 64, 31
2,146598, Control_c, 0, 64, 0
2,146653, Note_on_c, 0, 68, 0
2,146675, Control_c, 0, 64, 13
2,146694, Control_c, 0, 64, 51
2,146713, Control_c, 0, 64, 60
2,146733, Control_c, 0, 64, 63
2,146752, Control_c, 0, 64, 64
2,146760, Note_on_c, 0, 65, 0
2,146771, Control_c, 0, 64, 65
2,146790, Control_c, 0, 64, 65
2,146810, Control_c, 0, 64, 66
2,146828, Control_c, 0, 64, 66
2,146905, Control_c, 0, 64, 67
2,146925, Control_c, 0, 64, 67
2,146929, Note_on_c, 0, 66, 0
2,146932, Note_on_c, 0, 38, 60
2,146944, Control_c, 0, 64, 68
2,146952, Note_on_c, 0, 65, 62
2,146966, Note_on_c, 0, 39, 0
2,147022, Control_c, 0, 64, 67
2,147309, Control_c, 0, 64, 67
2,147329, Control_c, 0, 64, 66
2,147348, Control_c, 0, 64, 62
2,147349, Note_on_c, 0, 39, 59
2,147350, Note_on_c, 0, 63, 74
2,147365, Note_on_c, 0, 66, 61
2,147368, Control_c, 0, 64, 47
2,147382, Note_on_c, 0, 70, 0
2,147386, Control_c, 0, 64, 0
2,147427, Note_on_c, 0, 38, 0
2,147467, Note_on_c, 0, 65, 0
2,147502, Control_c, 0, 64, 18
2,147520, Control_c, 0, 64, 42
2,147540, Control_c, 0, 64, 52
2,147559, Control_c, 0, 64, 55
2,147578, Control_c, 0, 64, 56
2,147597, Control_c, 0, 64, 57
2,147617, Control_c, 0, 64, 58
2,147636, Control_c, 0, 64, 59
2,147655, Control_c, 0, 64, 59
2,147694, Control_c, 0, 64, 60
2,147712, Control_c, 0, 64, 60
2,147732, Control_c, 0, 64, 61
2,147751, Control_c, 0, 64, 61
2,147762, Note_on_c, 0, 41, 51
2,147763, Note_on_c, 0, 68, 58
2,147771, Control_c, 0, 64, 62
2,147786, Note_on_c, 0, 66, 0
2,147789, Control_c, 0, 64, 62
2,147792, Note_on_c, 0, 39, 0
2,147963, Control_c, 0, 64, 63
2,147982, Control_c, 0, 64, 63
2,148135, Control_c, 0, 64, 62
2,148154, Control_c, 0, 64, 58
2,148164, Note_on_c, 0, 70, 63
2,148165, Note_on_c, 0, 42, 52
2,148174, Control_c, 0, 64, 49
2,148186, Note_on_c, 0, 41, 0
2,148192, Control_c, 0, 64, 37
2,148200, Note_on_c, 0, 68, 0
2,148212, Control_c, 0, 64, 27
2,148251, Control_c, 0, 64, 35
2,148269, Control_c, 0, 64, 48
2,148289, Control_c, 0, 64, 55
2,148308, Control_c, 0, 64, 59
2,148328, Control_c, 0, 64, 60
2,148346, Control_c, 0, 64, 62
2,148366, Control_c, 0, 64, 62
2,148404, Control_c, 0, 64, 63
2,148519, Control_c, 0, 64, 62
2,148547, Note_on_c, 0, 41, 54
2,148553, Note_on_c, 0, 62, 57
2,148575, Note_on_c, 0, 63, 0
2,148577, Control_c, 0, 64, 62
2,148580, Note_on_c, 0, 68, 62
2,148583, Note_on_c, 0, 42, 0
2,148596, Control_c, 0, 64, 61
2,148615, Control_c, 0, 64, 61
2,148634, Control_c, 0, 64, 60
2,148654, Control_c, 0, 64, 60
2,148657, Note_on_c, 0, 70, 0
2,148672, Control_c, 0, 64, 59
2,148692, Control_c, 0, 64, 57
2,148711, Control_c, 0, 64, 57
2,148769, Control_c, 0, 64, 57
2,148866, Control_c, 0, 64, 57
2,148885, Control_c, 0, 64, 55
2,148904, Control_c, 0, 64, 49
2,148924, Control_c, 0, 64, 43
2,148942, Control_c, 0, 64, 38
2,148955, Note_on_c, 0, 63, 65
2,148962, Note_on_c, 0, 39, 51
2,148968, Note_on_c, 0, 68, 0
2,148973, Note_on_c, 0, 41, 0
2,148973, Note_on_c, 0, 66, 54
2,148981, Control_c, 0, 64, 40
2,148990, Note_on_c, 0, 62, 0
2,149000, Control_c, 0, 64, 44
2,149019, Control_c, 0, 64, 48
2,149038, Control_c, 0, 64, 50
2,149058, Control_c, 0, 64, 52
2,149077, Control_c, 0, 64, 54
2,149096, Control_c, 0, 64, 56
2,149115, Control_c, 0, 64, 58
2,149135, Control_c, 0, 64, 59
2,149153, Control_c, 0, 64, 60
2,149173, Control_c, 0, 64, 60
2,149192, Control_c, 0, 64, 61
2,149212, Control_c, 0, 64, 61
2,149307, Control_c, 0, 64, 62
2,149320, Note_on_c, 0, 66, 0
2,149346, Control_c, 0, 64, 62
2,149362, Note_on_c, 0, 65, 63
2,149365, Control_c, 0, 64, 63
2,149372, Note_on_c, 0, 63, 0
2,149384, Control_c, 0, 64, 63
2,149461, Control_c, 0, 64, 64
2,149518, Note_on_c, 0, 65, 0
2,149530, Note_on_c, 0, 63, 56
2,149576, Control_c, 0, 64, 64
2,149730, Control_c, 0, 64, 63
2,149748, Note_on_c, 0, 66, 74
2,149749, Control_c, 0, 64, 58
2,149760, Note_on_c, 0, 46, 49
2,149762, Note_on_c, 0, 63, 0
2,149768, Control_c, 0, 64, 42
2,149775, Note_on_c, 0, 62, 45
2,149787, Control_c, 0, 64, 0
2,149830, Note_on_c, 0, 39, 0
2,149884, Control_c, 0, 64, 17
2,149902, Control_c, 0, 64, 40
2,149922, Control_c, 0, 64, 51
2,149941, Control_c, 0, 64, 55
2,149960, Control_c, 0, 64, 56
2,149979, Control_c, 0, 64, 58
2,149998, Control_c, 0, 64, 60
2,150018, Control_c, 0, 64, 61
2,150037, Control_c, 0, 64, 61
2,150113, Control_c, 0, 64, 61
2,150146, Note_on_c, 0, 62, 0
2,150150, Note_on_c, 0, 68, 65
2,150164, Note_on_c, 0, 65, 68
2,150172, Control_c, 0, 64, 60
2,150190, Control_c, 0, 64, 60
2,150215, Note_on_c, 0, 66, 0
2,150459, Control_c, 0, 64, 59
2,150478, Control_c, 0, 64, 59
2,150498, Control_c, 0, 64, 57
2,150517, Control_c, 0, 64, 51
2,150536, Control_c, 0, 64, 40
2,150546, Note_on_c, 0, 63, 66
2,150547, Note_on_c, 0, 39, 51
2,150555, Control_c, 0, 64, 0
2,150558, Note_on_c, 0, 46, 0
2,150559, Note_on_c, 0, 65, 0
2,150670, Control_c, 0, 64, 35
2,150690, Control_c, 0, 64, 51
2,150709, Control_c, 0, 64, 58
2,150728, Control_c, 0, 64, 60
2,150747, Control_c, 0, 64, 61
2,150767, Control_c, 0, 64, 63
2,150786, Control_c, 0, 64, 63
2,150805, Control_c, 0, 64, 64
2,150824, Control_c, 0, 64, 65
2,150862, Control_c, 0, 64, 65
2,150920, Control_c, 0, 64, 66
2,150921, Note_on_c, 0, 68, 0
2,150939, Control_c, 0, 64, 67
2,150952, Note_on_c, 0, 66, 38
2,150958, Control_c, 0, 64, 68
2,150978, Control_c, 0, 64, 69
2,150984, Note_on_c, 0, 63, 0
2,150997, Control_c, 0, 64, 70
2,151016, Control_c, 0, 64, 71
2,151035, Control_c, 0, 64, 72
2,151045, Note_on_c, 0, 66, 0
2,151079, Note_on_c, 0, 65, 48
2,151112, Control_c, 0, 64, 72
2,151132, Control_c, 0, 64, 73
2,151150, Control_c, 0, 64, 74
2,151170, Control_c, 0, 64, 75
2,151189, Control_c, 0, 64, 76
2,151266, Control_c, 0, 64, 74
2,151285, Control_c, 0, 64, 68
2,151304, Control_c, 0, 64, 56
2,151312, Note_on_c, 0, 70, 84
2,151324, Control_c, 0, 64, 34
2,151338, Note_on_c, 0, 65, 0
2,151342, Control_c, 0, 64, 0
2,151342, Note_on_c, 0, 67, 58
2,151400, Control_c, 0, 64, 31
2,151419, Control_c, 0, 64, 52
2,151438, Control_c, 0, 64, 62
2,151458, Control_c, 0, 64, 64
2,151477, Control_c, 0, 64, 65
2,151496, Control_c, 0, 64, 66
2,151515, Control_c, 0, 64, 67
2,151535, Control_c, 0, 64, 69
2,151553, Control_c, 0, 64, 71
2,151573, Control_c, 0, 64, 74
2,151592, Control_c, 0, 64, 75
2,151612, Control_c, 0, 64, 75
2,151672, Control_c, 0, 64, 76
2,151687, Note_on_c, 0, 67, 0
2,151702, Note_on_c, 0, 41, 41
2,151710, Control_c, 0, 64, 76
2,151711, Note_on_c, 0, 68, 54
2,151745, Note_on_c, 0, 70, 0
2,151755, Note_on_c, 0, 39, 0
2,151784, Control_c, 0, 64, 76
2,151822, Control_c, 0, 64, 75
2,151957, Control_c, 0, 64, 75
2,152033, Control_c, 0, 64, 74
2,152072, Control_c, 0, 64, 72
2,152080, Note_on_c, 0, 63, 80
2,152092, Control_c, 0, 64, 65
2,152096, Note_on_c, 0, 68, 0
2,152098, Note_on_c, 0, 70, 73
2,152110, Control_c, 0, 64, 48
2,152117, Note_on_c, 0, 43, 48
2,152130, Control_c, 0, 64, 0
2,152183, Note_on_c, 0, 41, 0
2,152226, Control_c, 0, 64, 42
2,152245, Control_c, 0, 64, 58
2,152264, Control_c, 0, 64, 62
2,152284, Control_c, 0, 64, 63
2,152302, Control_c, 0, 64, 64
2,152341, Control_c, 0, 64, 64
2,152360, Control_c, 0, 64, 65
2,152379, Control_c, 0, 64, 65
2,152398, Control_c, 0, 64, 66
2,152475, Control_c, 0, 64, 66
2,152486, Note_on_c, 0, 61, 58
2,152523, Note_on_c, 0, 70, 0
2,152859, Control_c, 0, 64, 66
2,152878, Control_c, 0, 64, 64
2,152885, Note_on_c, 0, 59, 56
2,152888, Note_on_c, 0, 44, 42
2,152898, Control_c, 0, 64, 56
2,152915, Note_on_c, 0, 61, 0
2,152917, Control_c, 0, 64, 27
2,152936, Control_c, 0, 64, 0
2,152974, Note_on_c, 0, 43, 0
2,153032, Control_c, 0, 64, 27
2,153052, Control_c, 0, 64, 47
2,153070, Control_c, 0, 64, 55
2,153090, Control_c, 0, 64, 58
2,153109, Control_c, 0, 64, 59
2,153167, Control_c, 0, 64, 59
2,153271, Note_on_c, 0, 65, 51
2,153279, Note_on_c, 0, 61, 48
2,153281, Control_c, 0, 64, 60
2,153307, Note_on_c, 0, 63, 0
2,153320, Control_c, 0, 64, 60
2,153371, Note_on_c, 0, 59, 0
2,153397, Control_c, 0, 64, 60
2,153550, Control_c, 0, 64, 60
2,153589, Control_c, 0, 64, 60
2,153608, Control_c, 0, 64, 59
2,153627, Control_c, 0, 64, 57
2,153647, Control_c, 0, 64, 52
2,153651, Note_on_c, 0, 61, 0
2,153666, Control_c, 0, 64, 40
2,153666, Note_on_c, 0, 67, 55
2,153685, Control_c, 0, 64, 0
2,153688, Note_on_c, 0, 63, 47
2,153693, Note_on_c, 0, 46, 44
2,153694, Note_on_c, 0, 65, 0
2,153723, Note_on_c, 0, 44, 0
2,153819, Control_c, 0, 64, 36
2,153838, Control_c, 0, 64, 54
2,153858, Control_c, 0, 64, 60
2,153877, Control_c, 0, 64, 62
2,153896, Control_c, 0, 64, 63
2,153915, Control_c, 0, 64, 64
2,153935, Control_c, 0, 64, 65
2,153953, Control_c, 0, 64, 67
2,153973, Control_c, 0, 64, 68
2,153992, Control_c, 0, 64, 69
2,154012, Control_c, 0, 64, 70
2,154045, Note_on_c, 0, 63, 0
2,154071, Note_on_c, 0, 64, 62
2,154127, Control_c, 0, 64, 70
2,154222, Control_c, 0, 64, 70
2,154299, Control_c, 0, 64, 70
2,154357, Control_c, 0, 64, 71
2,154453, Control_c, 0, 64, 71
2,154472, Control_c, 0, 64, 72
2,154492, Control_c, 0, 64, 72
2,154510, Control_c, 0, 64, 71
2,154517, Note_on_c, 0, 63, 74
2,154530, Control_c, 0, 64, 67
2,154536, Note_on_c, 0, 68, 73
2,154543, Note_on_c, 0, 47, 51
2,154550, Control_c, 0, 64, 56
2,154569, Control_c, 0, 64, 0
2,154624, Note_on_c, 0, 64, 0
2,154669, Note_on_c, 0, 46, 0
2,154684, Control_c, 0, 64, 44
2,154702, Control_c, 0, 64, 60
2,154702, Note_on_c, 0, 67, 0
2,154721, Control_c, 0, 64, 64
2,154741, Control_c, 0, 64, 66
2,154760, Control_c, 0, 64, 67
2,154779, Control_c, 0, 64, 68
2,154798, Control_c, 0, 64, 69
2,154818, Control_c, 0, 64, 70
2,154837, Control_c, 0, 64, 71
2,154856, Control_c, 0, 64, 72
2,154913, Control_c, 0, 64, 72
2,154923, Note_on_c, 0, 63, 0
2,154933, Control_c, 0, 64, 73
2,154952, Control_c, 0, 64, 74
2,154961, Note_on_c, 0, 68, 0
2,154972, Control_c, 0, 64, 75
2,154973, Note_on_c, 0, 49, 65
2,154990, Control_c, 0, 64, 76
2,155010, Control_c, 0, 64, 77
2,155011, Note_on_c, 0, 47, 0
2,155029, Control_c, 0, 64, 77
2,155048, Control_c, 0, 64, 78
2,155067, Control_c, 0, 64, 78
2,155087, Control_c, 0, 64, 79
2,155106, Control_c, 0, 64, 80
2,155125, Control_c, 0, 64, 81
2,155144, Control_c, 0, 64, 82
2,155164, Control_c, 0, 64, 82
2,155182, Control_c, 0, 64, 83
2,155201, Control_c, 0, 64, 83
2,155298, Control_c, 0, 64, 84
2,155352, Note_on_c, 0, 80, 87
2,155355, Control_c, 0, 64, 78
2,155368, Note_on_c, 0, 56, 55
2,155375, Control_c, 0, 64, 66
2,155377, Note_on_c, 0, 47, 52
2,155393, Control_c, 0, 64, 47
2,155413, Control_c, 0, 64, 0
2,155414, Note_on_c, 0, 49, 0
2,155470, Control_c, 0, 64, 31
2,155490, Control_c, 0, 64, 57
2,155510, Control_c, 0, 64, 65
2,155529, Control_c, 0, 64, 69
2,155548, Control_c, 0, 64, 74
2,155568, Control_c, 0, 64, 81
2,155586, Control_c, 0, 64, 86
2,155605, Control_c, 0, 64, 87
2,155701, Control_c, 0, 64, 87
2,155721, Note_on_c, 0, 46, 57
2,155805, Note_on_c, 0, 47, 0
2,155813, Control_c, 0, 64, 86
2,155833, Control_c, 0, 64, 85
2,155852, Control_c, 0, 64, 84
2,155870, Control_c, 0, 64, 83
2,155890, Control_c, 0, 64, 82
2,156044, Control_c, 0, 64, 81
2,156063, Control_c, 0, 64, 80
2,156082, Control_c, 0, 64, 76
2,156083, Note_on_c, 0, 46, 0
2,156088, Note_on_c, 0, 44, 44
2,156101, Control_c, 0, 64, 68
2,156121, Control_c, 0, 64, 59
2,156133, Note_on_c, 0, 75, 79
2,156139, Control_c, 0, 64, 37
2,156159, Control_c, 0, 64, 0
2,156255, Control_c, 0, 64, 38
2,156275, Control_c, 0, 64, 56
2,156275, Note_on_c, 0, 80, 0
2,156293, Control_c, 0, 64, 62
2,156313, Control_c, 0, 64, 64
2,156332, Control_c, 0, 64, 64
2,156350, Control_c, 0, 64, 65
2,156370, Control_c, 0, 64, 66
2,156389, Control_c, 0, 64, 67
2,156409, Control_c, 0, 64, 68
2,156424, Note_on_c, 0, 56, 0
2,156427, Control_c, 0, 64, 68
2,156486, Control_c, 0, 64, 68
2,156487, Note_on_c, 0, 44, 0
2,156541, Note_on_c, 0, 46, 43
2,156544, Note_on_c, 0, 55, 54
2,156737, Control_c, 0, 64, 68
2,156775, Control_c, 0, 64, 67
2,156794, Control_c, 0, 64, 64
2,156814, Control_c, 0, 64, 62
2,156826, Note_on_c, 0, 55, 0
2,156832, Control_c, 0, 64, 62
2,156852, Control_c, 0, 64, 65
2,156871, Control_c, 0, 64, 70
2,156891, Control_c, 0, 64, 79
2,156909, Control_c, 0, 64, 93
2,156921, Note_on_c, 0, 47, 45
2,156929, Control_c, 0, 64, 109
2,156944, Note_on_c, 0, 56, 71
2,156947, Note_on_c, 0, 46, 0
2,156948, Control_c, 0, 64, 118
2,156986, Control_c, 0, 64, 112
2,157006, Control_c, 0, 64, 103
2,157025, Control_c, 0, 64, 97
2,157044, Control_c, 0, 64, 94
2,157063, Control_c, 0, 64, 93
2,157082, Control_c, 0, 64, 91
2,157102, Control_c, 0, 64, 90
2,157120, Control_c, 0, 64, 89
2,157140, Control_c, 0, 64, 88
2,157162, Note_on_c, 0, 56, 0
2,157178, Control_c, 0, 64, 88
2,157217, Control_c, 0, 64, 87
2,157236, Control_c, 0, 64, 86
2,157255, Control_c, 0, 64, 85
2,157269, Note_on_c, 0, 47, 0
2,157274, Control_c, 0, 64, 84
2,157294, Control_c, 0, 64, 84
2,157305, Note_on_c, 0, 73, 78
2,157313, Note_on_c, 0, 52, 54
2,157336, Note_on_c, 0, 58, 49
2,157371, Control_c, 0, 64, 83
2,157382, Note_on_c, 0, 75, 0
2,157389, Control_c, 0, 64, 82
2,157409, Control_c, 0, 64, 79
2,157422, Note_on_c, 0, 52, 0
2,157429, Control_c, 0, 64, 76
2,157448, Control_c, 0, 64, 73
2,157467, Control_c, 0, 64, 71
2,157478, Note_on_c, 0, 49, 66
2,157482, Note_on_c, 0, 58, 0
2,157487, Control_c, 0, 64, 68
2,157505, Control_c, 0, 64, 66
2,157524, Control_c, 0, 64, 65
2,157543, Control_c, 0, 64, 64
2,157562, Control_c, 0, 64, 64
2,157582, Control_c, 0, 64, 63
2,157600, Control_c, 0, 64, 62
2,157620, Control_c, 0, 64, 60
2,157639, Control_c, 0, 64, 57
2,157658, Control_c, 0, 64, 49
2,157677, Control_c, 0, 64, 32
2,157691, Note_on_c, 0, 75, 80
2,157697, Control_c, 0, 64, 0
2,157713, Note_on_c, 0, 56, 56
2,157721, Note_on_c, 0, 59, 51
2,157755, Note_on_c, 0, 49, 0
2,157793, Note_on_c, 0, 73, 0
2,157869, Control_c, 0, 64, 31
2,157889, Control_c, 0, 64, 53
2,157908, Control_c, 0, 64, 61
2,157928, Control_c, 0, 64, 63
2,157946, Control_c, 0, 64, 64
2,157966, Control_c, 0, 64, 65
2,157985, Control_c, 0, 64, 66
2,158004, Control_c, 0, 64, 67
2,158023, Control_c, 0, 64, 68
2,158042, Control_c, 0, 64, 70
2,158062, Control_c, 0, 64, 71
2,158080, Control_c, 0, 64, 72
2,158100, Control_c, 0, 64, 73
2,158100, Note_on_c, 0, 59, 0
2,158102, Note_on_c, 0, 58, 57
2,158151, Note_on_c, 0, 56, 0
2,158157, Control_c, 0, 64, 73
2,158177, Control_c, 0, 64, 74
2,158196, Control_c, 0, 64, 75
2,158208, Note_on_c, 0, 58, 0
2,158215, Control_c, 0, 64, 76
2,158234, Control_c, 0, 64, 76
2,158428, Control_c, 0, 64, 75
2,158448, Control_c, 0, 64, 68
2,158465, Control_c, 0, 64, 54
2,158468, Note_on_c, 0, 56, 67
2,158478, Note_on_c, 0, 47, 56
2,158484, Control_c, 0, 64, 0
2,158580, Control_c, 0, 64, 51
2,158599, Control_c, 0, 64, 62
2,158618, Control_c, 0, 64, 65
2,158637, Control_c, 0, 64, 66
2,158657, Control_c, 0, 64, 66
2,158676, Control_c, 0, 64, 67
2,158695, Control_c, 0, 64, 69
2,158714, Control_c, 0, 64, 70
2,158734, Control_c, 0, 64, 71
2,158791, Control_c, 0, 64, 72
2,158811, Control_c, 0, 64, 72
2,158829, Control_c, 0, 64, 73
2,158849, Control_c, 0, 64, 74
2,158857, Note_on_c, 0, 77, 78
2,158868, Control_c, 0, 64, 75
2,158870, Note_on_c, 0, 49, 60
2,158885, Note_on_c, 0, 47, 0
2,158908, Note_on_c, 0, 56, 0
2,158926, Control_c, 0, 64, 75
2,158934, Note_on_c, 0, 49, 0
2,158945, Control_c, 0, 64, 74
2,158964, Control_c, 0, 64, 74
2,158992, Note_on_c, 0, 75, 0
2,159117, Control_c, 0, 64, 73
2,159232, Control_c, 0, 64, 73
2,159252, Control_c, 0, 64, 69
2,159271, Control_c, 0, 64, 56
2,159285, Note_on_c, 0, 78, 79
2,159291, Control_c, 0, 64, 0
2,159293, Note_on_c, 0, 63, 59
2,159303, Note_on_c, 0, 51, 48
2,159330, Note_on_c, 0, 77, 0
2,159386, Control_c, 0, 64, 35
2,159406, Control_c, 0, 64, 58
2,159425, Control_c, 0, 64, 63
2,159444, Control_c, 0, 64, 64
2,159463, Control_c, 0, 64, 64
2,159502, Control_c, 0, 64, 65
2,159540, Control_c, 0, 64, 64
2,159559, Control_c, 0, 64, 60
2,159578, Control_c, 0, 64, 51
2,159597, Control_c, 0, 64, 40
2,159617, Control_c, 0, 64, 41
2,159636, Control_c, 0, 64, 50
2,159646, Note_on_c, 0, 63, 0
2,159655, Control_c, 0, 64, 59
2,159667, Note_on_c, 0, 50, 54
2,159674, Control_c, 0, 64, 63
2,159694, Control_c, 0, 64, 65
2,159712, Control_c, 0, 64, 66
2,159713, Note_on_c, 0, 51, 0
2,159732, Control_c, 0, 64, 67
2,159751, Control_c, 0, 64, 68
2,159848, Control_c, 0, 64, 67
2,159905, Control_c, 0, 64, 67
2,159943, Control_c, 0, 64, 66
2,159962, Control_c, 0, 64, 64
2,159982, Control_c, 0, 64, 57
2,160000, Control_c, 0, 64, 36
2,160020, Control_c, 0, 64, 0
2,160048, Note_on_c, 0, 58, 64
2,160052, Note_on_c, 0, 51, 49
2,160094, Control_c, 0, 64, 35
2,160114, Control_c, 0, 64, 56
2,160116, Note_on_c, 0, 50, 0
2,160132, Control_c, 0, 64, 63
2,160151, Control_c, 0, 64, 64
2,160171, Control_c, 0, 64, 65
2,160189, Control_c, 0, 64, 65
2,160209, Control_c, 0, 64, 66
2,160228, Control_c, 0, 64, 67
2,160248, Control_c, 0, 64, 67
2,160266, Control_c, 0, 64, 68
2,160367, Control_c, 0, 64, 67
2,160382, Control_c, 0, 64, 59
2,160402, Control_c, 0, 64, 36
2,160418, Note_on_c, 0, 51, 0
2,160421, Control_c, 0, 64, 0
2,160426, Note_on_c, 0, 77, 73
2,160430, Note_on_c, 0, 53, 47
2,160479, Control_c, 0, 64, 35
2,160487, Note_on_c, 0, 78, 0
2,160498, Control_c, 0, 64, 57
2,160518, Control_c, 0, 64, 63
2,160536, Control_c, 0, 64, 65
2,160556, Control_c, 0, 64, 66
2,160575, Control_c, 0, 64, 67
2,160595, Control_c, 0, 64, 67
2,160613, Control_c, 0, 64, 68
2,160633, Control_c, 0, 64, 69
2,160767, Control_c, 0, 64, 66
2,160786, Control_c, 0, 64, 55
2,160795, Note_on_c, 0, 53, 0
2,160805, Control_c, 0, 64, 22
2,160809, Note_on_c, 0, 75, 82
2,160824, Control_c, 0, 64, 0
2,160842, Note_on_c, 0, 54, 54
2,160869, Note_on_c, 0, 77, 0
2,160882, Control_c, 0, 64, 22
2,160901, Control_c, 0, 64, 53
2,160921, Control_c, 0, 64, 63
2,160939, Control_c, 0, 64, 65
2,160959, Control_c, 0, 64, 66
2,160978, Control_c, 0, 64, 67
2,160991, Note_on_c, 0, 54, 0
2,160998, Control_c, 0, 64, 68
2,161016, Control_c, 0, 64, 69
2,161036, Control_c, 0, 64, 70
2,161055, Control_c, 0, 64, 71
2,161113, Control_c, 0, 64, 69
2,161132, Control_c, 0, 64, 65
2,161150, Control_c, 0, 64, 58
2,161170, Control_c, 0, 64, 50
2,161186, Note_on_c, 0, 59, 63
2,161189, Control_c, 0, 64, 51
2,161209, Control_c, 0, 64, 55
2,161216, Note_on_c, 0, 56, 52
2,161225, Note_on_c, 0, 58, 0
2,161227, Control_c, 0, 64, 60
2,161247, Control_c, 0, 64, 63
2,161269, Control_c, 0, 64, 64
2,161327, Control_c, 0, 64, 64
2,161379, Control_c, 0, 64, 65
2,161456, Control_c, 0, 64, 64
2,161533, Control_c, 0, 64, 63
2,161553, Control_c, 0, 64, 58
2,161571, Control_c, 0, 64, 41
2,161590, Control_c, 0, 64, 0
2,161610, Note_on_c, 0, 82, 84
2,161637, Note_on_c, 0, 53, 41
2,161645, Note_on_c, 0, 75, 0
2,161646, Note_on_c, 0, 61, 54
2,161649, Note_on_c, 0, 59, 0
2,161687, Control_c, 0, 64, 29
2,161705, Control_c, 0, 64, 45
2,161725, Control_c, 0, 64, 54
2,161740, Note_on_c, 0, 56, 0
2,161744, Control_c, 0, 64, 58
2,161764, Control_c, 0, 64, 60
2,161782, Control_c, 0, 64, 62
2,161802, Control_c, 0, 64, 63
2,161821, Control_c, 0, 64, 63
2,161840, Control_c, 0, 64, 64
2,161956, Control_c, 0, 64, 62
2,161975, Control_c, 0, 64, 57
2,161994, Control_c, 0, 64, 50
2,162013, Control_c, 0, 64, 42
2,162033, Control_c, 0, 64, 41
2,162043, Note_on_c, 0, 55, 45
2,162051, Control_c, 0, 64, 43
2,162070, Control_c, 0, 64, 47
2,162090, Control_c, 0, 64, 52
2,162093, Note_on_c, 0, 53, 0
2,162109, Control_c, 0, 64, 56
2,162128, Control_c, 0, 64, 58
2,162147, Control_c, 0, 64, 60
2,162167, Control_c, 0, 64, 62
2,162185, Control_c, 0, 64, 63
2,162205, Control_c, 0, 64, 63
2,162320, Control_c, 0, 64, 63
2,162359, Control_c, 0, 64, 62
2,162378, Control_c, 0, 64, 61
2,162397, Control_c, 0, 64, 57
2,162416, Control_c, 0, 64, 50
2,162430, Note_on_c, 0, 75, 65
2,162434, Note_on_c, 0, 55, 0
2,162436, Control_c, 0, 64, 43
2,162455, Control_c, 0, 64, 40
2,162459, Note_on_c, 0, 56, 46
2,162493, Control_c, 0, 64, 42
2,162512, Control_c, 0, 64, 45
2,162531, Control_c, 0, 64, 48
2,162550, Control_c, 0, 64, 52
2,162562, Note_on_c, 0, 82, 0
2,162570, Control_c, 0, 64, 55
2,162574, Note_on_c, 0, 61, 0
2,162589, Control_c, 0, 64, 57
2,162608, Control_c, 0, 64, 58
2,162627, Control_c, 0, 64, 59
2,162704, Control_c, 0, 64, 58
2,162866, Note_on_c, 0, 73, 37
2,162877, Control_c, 0, 64, 58
2,162888, Note_on_c, 0, 58, 35
2,162894, Note_on_c, 0, 56, 0
2,162896, Control_c, 0, 64, 57
2,162935, Control_c, 0, 64, 57
2,163050, Control_c, 0, 64, 56
2,163069, Control_c, 0, 64, 55
2,163088, Control_c, 0, 64, 53
2,163107, Control_c, 0, 64, 53
2,163127, Control_c, 0, 64, 52
2,163145, Control_c, 0, 64, 53
2,163165, Control_c, 0, 64, 55
2,163188, Control_c, 0, 64, 56
2,163207, Control_c, 0, 64, 58
2,163226, Control_c, 0, 64, 60
2,163246, Control_c, 0, 64, 61
2,163261, Control_c, 0, 64, 62
2,163270, Note_on_c, 0, 73, 0
2,163280, Control_c, 0, 64, 62
2,163280, Note_on_c, 0, 71, 45
2,163288, Note_on_c, 0, 56, 30
2,163299, Control_c, 0, 64, 63
2,163334, Note_on_c, 0, 58, 0
2,163338, Control_c, 0, 64, 63
2,163344, Note_on_c, 0, 75, 0
2,163357, Control_c, 0, 64, 64
2,163396, Control_c, 0, 64, 64
2,163453, Control_c, 0, 64, 65
2,163587, Control_c, 0, 64, 63
2,163607, Control_c, 0, 64, 61
2,163625, Control_c, 0, 64, 57
2,163645, Control_c, 0, 64, 54
2,163648, Note_on_c, 0, 75, 40
2,163650, Note_on_c, 0, 71, 0
2,163664, Control_c, 0, 64, 53
2,163665, Note_on_c, 0, 70, 36
2,163684, Control_c, 0, 64, 55
2,163690, Note_on_c, 0, 54, 35
2,163699, Note_on_c, 0, 56, 0
2,163702, Control_c, 0, 64, 57
2,163722, Control_c, 0, 64, 60
2,163741, Control_c, 0, 64, 62
2,163760, Control_c, 0, 64, 64
2,163779, Control_c, 0, 64, 65
2,163799, Control_c, 0, 64, 66
2,163818, Control_c, 0, 64, 67
2,163837, Control_c, 0, 64, 68
2,163856, Control_c, 0, 64, 69
2,163876, Control_c, 0, 64, 69
2,163895, Control_c, 0, 64, 69
2,163990, Control_c, 0, 64, 68
2,163990, Note_on_c, 0, 70, 0
2,164010, Control_c, 0, 64, 67
2,164029, Control_c, 0, 64, 63
2,164048, Control_c, 0, 64, 54
2,164051, Note_on_c, 0, 54, 0
2,164067, Control_c, 0, 64, 45
2,164075, Note_on_c, 0, 74, 43
2,164087, Control_c, 0, 64, 42
2,164099, Note_on_c, 0, 68, 39
2,164105, Control_c, 0, 64, 43
2,164112, Note_on_c, 0, 53, 33
2,164125, Control_c, 0, 64, 49
2,164135, Note_on_c, 0, 75, 0
2,164144, Control_c, 0, 64, 56
2,164164, Control_c, 0, 64, 61
2,164182, Control_c, 0, 64, 63
2,164202, Control_c, 0, 64, 64
2,164221, Control_c, 0, 64, 65
2,164240, Control_c, 0, 64, 66
2,164259, Control_c, 0, 64, 67
2,164268, Note_on_c, 0, 68, 0
2,164279, Control_c, 0, 64, 68
2,164413, Control_c, 0, 64, 68
2,164432, Control_c, 0, 64, 68
2,164451, Control_c, 0, 64, 66
2,164454, Note_on_c, 0, 74, 0
2,164470, Control_c, 0, 64, 61
2,164490, Control_c, 0, 64, 50
2,164507, Note_on_c, 0, 66, 38
2,164507, Note_on_c, 0, 75, 41
2,164509, Control_c, 0, 64, 44
2,164527, Note_on_c, 0, 51, 28
2,164528, Control_c, 0, 64, 45
2,164542, Note_on_c, 0, 53, 0
2,164547, Control_c, 0, 64, 49
2,164567, Control_c, 0, 64, 56
2,164585, Control_c, 0, 64, 61
2,164605, Control_c, 0, 64, 63
2,164624, Control_c, 0, 64, 65
2,164644, Control_c, 0, 64, 66
2,164662, Control_c, 0, 64, 67
2,164773, Note_on_c, 0, 66, 0
2,164836, Control_c, 0, 64, 65
2,164855, Control_c, 0, 64, 59
2,164874, Control_c, 0, 64, 46
2,164890, Note_on_c, 0, 77, 48
2,164893, Control_c, 0, 64, 31
2,164893, Note_on_c, 0, 68, 44
2,164901, Note_on_c, 0, 51, 0
2,164912, Control_c, 0, 64, 24
2,164920, Note_on_c, 0, 50, 36
2,164931, Control_c, 0, 64, 29
2,164950, Control_c, 0, 64, 44
2,164961, Note_on_c, 0, 75, 0
2,164970, Control_c, 0, 64, 57
2,164989, Control_c, 0, 64, 63
2,165008, Control_c, 0, 64, 65
2,165027, Control_c, 0, 64, 66
2,165047, Control_c, 0, 64, 68
2,165065, Control_c, 0, 64, 70
2,165085, Control_c, 0, 64, 72
2,165106, Control_c, 0, 64, 74
2,165125, Control_c, 0, 64, 75
2,165177, Note_on_c, 0, 68, 0
2,165259, Control_c, 0, 64, 74
2,165276, Note_on_c, 0, 50, 0
2,165278, Control_c, 0, 64, 68
2,165280, Note_on_c, 0, 77, 0
2,165297, Control_c, 0, 64, 60
2,165299, Note_on_c, 0, 74, 50
2,165311, Note_on_c, 0, 59, 43
2,165317, Control_c, 0, 64, 43
2,165317, Note_on_c, 0, 65, 24
2,165335, Control_c, 0, 64, 31
2,165355, Control_c, 0, 64, 30
2,165374, Control_c, 0, 64, 38
2,165394, Control_c, 0, 64, 52
2,165410, Note_on_c, 0, 65, 0
2,165412, Control_c, 0, 64, 60
2,165431, Control_c, 0, 64, 64
2,165451, Control_c, 0, 64, 66
2,165469, Control_c, 0, 64, 67
2,165489, Control_c, 0, 64, 69
2,165508, Control_c, 0, 64, 70
2,165662, Control_c, 0, 64, 68
2,165681, Control_c, 0, 64, 63
2,165700, Control_c, 0, 64, 51
2,165707, Note_on_c, 0, 74, 0
2,165715, Note_on_c, 0, 75, 62
2,165720, Control_c, 0, 64, 38
2,165726, Note_on_c, 0, 59, 0
2,165730, Note_on_c, 0, 66, 46
2,165739, Control_c, 0, 64, 32
2,165746, Note_on_c, 0, 58, 40
2,165758, Control_c, 0, 64, 35
2,165777, Control_c, 0, 64, 45
2,165797, Control_c, 0, 64, 56
2,165815, Control_c, 0, 64, 61
2,165835, Control_c, 0, 64, 64
2,165854, Control_c, 0, 64, 65
2,165874, Control_c, 0, 64, 67
2,165882, Note_on_c, 0, 66, 0
2,165892, Control_c, 0, 64, 68
2,165911, Control_c, 0, 64, 69
2,165931, Control_c, 0, 64, 70
2,165969, Control_c, 0, 64, 69
2,166026, Control_c, 0, 64, 69
2,166046, Control_c, 0, 64, 67
2,166066, Control_c, 0, 64, 61
2,166085, Control_c, 0, 64, 49
2,166104, Control_c, 0, 64, 36
2,166106, Note_on_c, 0, 77, 67
2,166124, Control_c, 0, 64, 30
2,166137, Note_on_c, 0, 68, 59
2,166140, Note_on_c, 0, 56, 48
2,166142, Control_c, 0, 64, 31
2,166161, Control_c, 0, 64, 42
2,166169, Note_on_c, 0, 75, 0
2,166180, Control_c, 0, 64, 53
2,166180, Note_on_c, 0, 58, 0
2,166200, Control_c, 0, 64, 60
2,166219, Control_c, 0, 64, 62
2,166238, Control_c, 0, 64, 63
2,166257, Control_c, 0, 64, 64
2,166277, Control_c, 0, 64, 65
2,166295, Control_c, 0, 64, 66
2,166315, Control_c, 0, 64, 66
2,166334, Control_c, 0, 64, 67
2,166340, Note_on_c, 0, 68, 0
2,166354, Control_c, 0, 64, 66
2,166411, Control_c, 0, 64, 66
2,166429, Control_c, 0, 64, 65
2,166449, Control_c, 0, 64, 62
2,166468, Control_c, 0, 64, 49
2,166488, Control_c, 0, 64, 23
2,166506, Control_c, 0, 64, 0
2,166518, Note_on_c, 0, 78, 77
2,166533, Note_on_c, 0, 70, 64
2,166554, Note_on_c, 0, 54, 54
2,166565, Control_c, 0, 64, 29
2,166579, Note_on_c, 0, 56, 0
2,166583, Control_c, 0, 64, 50
2,166595, Note_on_c, 0, 77, 0
2,166603, Control_c, 0, 64, 58
2,166622, Control_c, 0, 64, 61
2,166641, Control_c, 0, 64, 62
2,166660, Control_c, 0, 64, 63
2,166680, Control_c, 0, 64, 63
2,166699, Control_c, 0, 64, 64
2,166718, Control_c, 0, 64, 65
2,166737, Control_c, 0, 64, 65
2,166744, Note_on_c, 0, 70, 0
2,166775, Control_c, 0, 64, 65
2,166814, Control_c, 0, 64, 63
2,166834, Control_c, 0, 64, 52
2,166852, Control_c, 0, 64, 21
2,166871, Control_c, 0, 64, 0
2,166896, Note_on_c, 0, 80, 83
2,166909, Note_on_c, 0, 68, 69
2,166922, Note_on_c, 0, 54, 0
2,166926, Note_on_c, 0, 53, 59
2,166948, Control_c, 0, 64, 35
2,166968, Control_c, 0, 64, 52
2,166986, Control_c, 0, 64, 59
2,167006, Control_c, 0, 64, 59
2,167015, Note_on_c, 0, 78, 0
2,167045, Control_c, 0, 64, 60
2,167064, Control_c, 0, 64, 61
2,167084, Control_c, 0, 64, 61
2,167102, Control_c, 0, 64, 62
2,167179, Control_c, 0, 64, 61
2,167198, Control_c, 0, 64, 60
2,167217, Control_c, 0, 64, 56
2,167237, Control_c, 0, 64, 35
2,167255, Control_c, 0, 64, 0
2,167323, Note_on_c, 0, 82, 81
2,167335, Note_on_c, 0, 51, 63
2,167351, Control_c, 0, 64, 17
2,167362, Note_on_c, 0, 53, 0
2,167371, Control_c, 0, 64, 53
2,167384, Note_on_c, 0, 80, 0
2,167389, Control_c, 0, 64, 62
2,167409, Control_c, 0, 64, 64
2,167428, Control_c, 0, 64, 64
2,167436, Note_on_c, 0, 82, 0
2,167448, Control_c, 0, 64, 65
2,167466, Control_c, 0, 64, 66
2,167486, Control_c, 0, 64, 68
2,167505, Control_c, 0, 64, 69
2,167525, Control_c, 0, 64, 71
2,167620, Control_c, 0, 64, 71
2,167640, Control_c, 0, 64, 67
2,167659, Control_c, 0, 64, 56
2,167678, Control_c, 0, 64, 17
2,167697, Control_c, 0, 64, 0
2,167698, Note_on_c, 0, 70, 74
2,167702, Note_on_c, 0, 49, 70
2,167708, Note_on_c, 0, 66, 70
2,167751, Note_on_c, 0, 51, 0
2,167774, Control_c, 0, 64, 44
2,167782, Note_on_c, 0, 68, 0
2,167793, Control_c, 0, 64, 60
2,167812, Control_c, 0, 64, 64
2,167831, Control_c, 0, 64, 65
2,167850, Note_on_c, 0, 70, 0
2,167851, Control_c, 0, 64, 65
2,167865, Note_on_c, 0, 66, 0
2,167869, Control_c, 0, 64, 66
2,167886, Note_on_c, 0, 65, 70
2,167889, Control_c, 0, 64, 66
2,167908, Control_c, 0, 64, 67
2,167984, Note_on_c, 0, 65, 0
2,168043, Control_c, 0, 64, 66
2,168062, Control_c, 0, 64, 63
2,168081, Control_c, 0, 64, 38
2,168084, Note_on_c, 0, 75, 79
2,168095, Note_on_c, 0, 47, 74
2,168100, Control_c, 0, 64, 0
2,168100, Note_on_c, 0, 66, 77
2,168139, Note_on_c, 0, 49, 0
2,168215, Control_c, 0, 64, 46
2,168235, Control_c, 0, 64, 56
2,168254, Control_c, 0, 64, 60
2,168273, Control_c, 0, 64, 61
2,168292, Control_c, 0, 64, 61
2,168311, Control_c, 0, 64, 62
2,168331, Control_c, 0, 64, 63
2,168369, Control_c, 0, 64, 63
2,168446, Control_c, 0, 64, 64
2,168465, Control_c, 0, 64, 64
2,168471, Note_on_c, 0, 68, 81
2,168472, Note_on_c, 0, 77, 72
2,168473, Note_on_c, 0, 66, 0
2,168485, Control_c, 0, 64, 65
2,168503, Control_c, 0, 64, 65
2,168526, Note_on_c, 0, 75, 0
2,168695, Control_c, 0, 64, 66
2,168849, Control_c, 0, 64, 64
2,168868, Control_c, 0, 64, 56
2,168888, Control_c, 0, 64, 0
2,168890, Note_on_c, 0, 74, 78
2,168894, Note_on_c, 0, 70, 82
2,168897, Note_on_c, 0, 46, 84
2,168945, Note_on_c, 0, 77, 0
2,168948, Note_on_c, 0, 47, 0
2,168961, Note_on_c, 0, 68, 0
2,169004, Control_c, 0, 64, 28
2,169022, Control_c, 0, 64, 54
2,169041, Control_c, 0, 64, 60
2,169060, Control_c, 0, 64, 62
2,169080, Control_c, 0, 64, 63
2,169099, Control_c, 0, 64, 64
2,169118, Control_c, 0, 64, 65
2,169137, Control_c, 0, 64, 66
2,169157, Control_c, 0, 64, 67
2,169195, Control_c, 0, 64, 66
2,169271, Control_c, 0, 64, 67
2,169291, Control_c, 0, 64, 67
2,169309, Control_c, 0, 64, 68
2,169329, Control_c, 0, 64, 70
2,169348, Control_c, 0, 64, 71
2,169368, Control_c, 0, 64, 72
2,169386, Control_c, 0, 64, 72
2,169406, Control_c, 0, 64, 73
2,169445, Control_c, 0, 64, 73
2,169463, Control_c, 0, 64, 74
2,169483, Control_c, 0, 64, 75
2,169502, Control_c, 0, 64, 77
2,169521, Control_c, 0, 64, 78
2,169540, Control_c, 0, 64, 78
2,169579, Control_c, 0, 64, 79
2,169675, Control_c, 0, 64, 80
2,169694, Control_c, 0, 64, 81
2,169713, Control_c, 0, 64, 83
2,169732, Control_c, 0, 64, 84
2,169751, Control_c, 0, 64, 81
2,169771, Control_c, 0, 64, 70
2,169788, Note_on_c, 0, 58, 83
2,169789, Control_c, 0, 64, 52
2,169790, Note_on_c, 0, 51, 74
2,169809, Control_c, 0, 64, 0
2,169869, Note_on_c, 0, 74, 0
2,169905, Control_c, 0, 64, 44
2,169925, Control_c, 0, 64, 57
2,169925, Note_on_c, 0, 70, 0
2,169943, Control_c, 0, 64, 60
2,169963, Control_c, 0, 64, 62
2,169982, Control_c, 0, 64, 64
2,170001, Control_c, 0, 64, 65
2,170020, Control_c, 0, 64, 66
2,170040, Control_c, 0, 64, 68
2,170059, Control_c, 0, 64, 68
2,170251, Control_c, 0, 64, 68
2,170289, Control_c, 0, 64, 67
2,170366, Control_c, 0, 64, 67
2,170405, Control_c, 0, 64, 66
2,170462, Control_c, 0, 64, 66
2,170481, Control_c, 0, 64, 65
2,170520, Control_c, 0, 64, 65
2,170539, Control_c, 0, 64, 64
2,170558, Control_c, 0, 64, 64
2,170577, Control_c, 0, 64, 62
2,170597, Control_c, 0, 64, 57
2,170615, Control_c, 0, 64, 43
2,170635, Control_c, 0, 64, 0
2,170648, Note_on_c, 0, 63, 84
2,170648, Note_on_c, 0, 70, 85
2,170808, Control_c, 0, 64, 42
2,170826, Control_c, 0, 64, 58
2,170846, Control_c, 0, 64, 61
2,170865, Control_c, 0, 64, 63
2,170885, Control_c, 0, 64, 65
2,170903, Control_c, 0, 64, 66
2,170915, Note_on_c, 0, 58, 0
2,170923, Control_c, 0, 64, 68
2,170942, Control_c, 0, 64, 69
2,170961, Control_c, 0, 64, 70
2,170980, Control_c, 0, 64, 70
2,171000, Control_c, 0, 64, 71
2,171019, Control_c, 0, 64, 71
2,171038, Control_c, 0, 64, 72
2,171052, Note_on_c, 0, 51, 0
2,171064, Note_on_c, 0, 52, 68
2,171134, Control_c, 0, 64, 72
2,171172, Control_c, 0, 64, 73
2,171249, Control_c, 0, 64, 72
2,171268, Control_c, 0, 64, 72
2,171326, Control_c, 0, 64, 71
2,171403, Control_c, 0, 64, 71
2,171422, Control_c, 0, 64, 70
2,171441, Control_c, 0, 64, 70
2,171460, Control_c, 0, 64, 68
2,171480, Control_c, 0, 64, 63
2,171486, Note_on_c, 0, 75, 91
2,171499, Control_c, 0, 64, 40
2,171502, Note_on_c, 0, 51, 52
2,171515, Note_on_c, 0, 52, 0
2,171518, Control_c, 0, 64, 0
2,171633, Control_c, 0, 64, 37
2,171652, Control_c, 0, 64, 60
2,171671, Control_c, 0, 64, 64
2,171691, Control_c, 0, 64, 64
2,171729, Control_c, 0, 64, 65
2,171748, Control_c, 0, 64, 66
2,171768, Control_c, 0, 64, 66
2,171786, Control_c, 0, 64, 67
2,171790, Note_on_c, 0, 63, 0
2,171806, Control_c, 0, 64, 67
2,171844, Control_c, 0, 64, 68
2,171862, Control_c, 0, 64, 68
2,171863, Note_on_c, 0, 49, 47
2,171866, Note_on_c, 0, 64, 76
2,171877, Note_on_c, 0, 46, 0
2,171880, Note_on_c, 0, 51, 0
2,171882, Control_c, 0, 64, 69
2,171901, Control_c, 0, 64, 70
2,171920, Control_c, 0, 64, 71
2,171939, Control_c, 0, 64, 72
2,171959, Control_c, 0, 64, 73
2,171997, Control_c, 0, 64, 74
2,172068, Note_on_c, 0, 64, 0
2,172247, Control_c, 0, 64, 71
2,172252, Note_on_c, 0, 47, 49
2,172265, Control_c, 0, 64, 63
2,172265, Note_on_c, 0, 49, 0
2,172285, Control_c, 0, 64, 39
2,172304, Control_c, 0, 64, 0
2,172306, Note_on_c, 0, 63, 79
2,172381, Control_c, 0, 64, 27
2,172400, Control_c, 0, 64, 56
2,172419, Control_c, 0, 64, 63
2,172439, Control_c, 0, 64, 65
2,172458, Control_c, 0, 64, 66
2,172496, Control_c, 0, 64, 66
2,172516, Control_c, 0, 64, 67
2,172535, Control_c, 0, 64, 68
2,172551, Note_on_c, 0, 75, 0
2,172553, Control_c, 0, 64, 69
2,172592, Control_c, 0, 64, 70
2,172630, Control_c, 0, 64, 70
2,172650, Control_c, 0, 64, 69
2,172669, Control_c, 0, 64, 64
2,172680, Note_on_c, 0, 47, 0
2,172688, Control_c, 0, 64, 50
2,172688, Note_on_c, 0, 76, 78
2,172707, Control_c, 0, 64, 11
2,172715, Note_on_c, 0, 49, 51
2,172727, Control_c, 0, 64, 0
2,172748, Note_on_c, 0, 61, 43
2,172765, Control_c, 0, 64, 36
2,172784, Control_c, 0, 64, 56
2,172804, Control_c, 0, 64, 63
2,172822, Control_c, 0, 64, 65
2,172842, Control_c, 0, 64, 66
2,172861, Control_c, 0, 64, 68
2,172880, Control_c, 0, 64, 69
2,172899, Control_c, 0, 64, 70
2,172919, Control_c, 0, 64, 71
2,172929, Note_on_c, 0, 61, 0
2,172996, Control_c, 0, 64, 70
2,173015, Control_c, 0, 64, 67
2,173033, Control_c, 0, 64, 57
2,173053, Control_c, 0, 64, 0
2,173060, Note_on_c, 0, 49, 0
2,173080, Note_on_c, 0, 75, 79
2,173091, Note_on_c, 0, 51, 46
2,173104, Note_on_c, 0, 59, 56
2,173137, Note_on_c, 0, 76, 0
2,173187, Control_c, 0, 64, 43
2,173207, Control_c, 0, 64, 57
2,173225, Control_c, 0, 64, 61
2,173245, Control_c, 0, 64, 62
2,173264, Control_c, 0, 64, 63
2,173284, Control_c, 0, 64, 63
2,173301, Note_on_c, 0, 59, 0
2,173302, Control_c, 0, 64, 64
2,173322, Control_c, 0, 64, 65
2,173379, Control_c, 0, 64, 63
2,173399, Control_c, 0, 64, 55
2,173418, Control_c, 0, 64, 13
2,173437, Control_c, 0, 64, 0
2,173491, Note_on_c, 0, 61, 54
2,173492, Note_on_c, 0, 73, 71
2,173513, Control_c, 0, 64, 49
2,173531, Note_on_c, 0, 63, 0
2,173533, Control_c, 0, 64, 61
2,173552, Control_c, 0, 64, 63
2,173565, Note_on_c, 0, 70, 0
2,173571, Control_c, 0, 64, 64
2,173590, Control_c, 0, 64, 64
2,173615, Note_on_c, 0, 61, 0
2,173626, Note_on_c, 0, 75, 0
2,173629, Control_c, 0, 64, 65
2,173648, Control_c, 0, 64, 66
2,173687, Control_c, 0, 64, 66
2,173840, Control_c, 0, 64, 65
2,173859, Control_c, 0, 64, 60
2,173879, Control_c, 0, 64, 36
2,173898, Control_c, 0, 64, 0
2,173900, Note_on_c, 0, 71, 61
2,173903, Note_on_c, 0, 63, 55
2,173916, Note_on_c, 0, 44, 60
2,173928, Note_on_c, 0, 51, 0
2,173950, Note_on_c, 0, 73, 0
2,173993, Control_c, 0, 64, 47
2,174013, Control_c, 0, 64, 59
2,174032, Control_c, 0, 64, 62
2,174051, Control_c, 0, 64, 63
2,174070, Control_c, 0, 64, 64
2,174090, Control_c, 0, 64, 64
2,174109, Control_c, 0, 64, 65
2,174128, Control_c, 0, 64, 66
2,174147, Control_c, 0, 64, 66
2,174224, Control_c, 0, 64, 65
2,174244, Control_c, 0, 64, 60
2,174262, Control_c, 0, 64, 36
2,174282, Control_c, 0, 64, 0
2,174294, Note_on_c, 0, 73, 74
2,174298, Note_on_c, 0, 46, 59
2,174313, Note_on_c, 0, 71, 0
2,174356, Note_on_c, 0, 44, 0
2,174359, Control_c, 0, 64, 43
2,174375, Control_c, 0, 64, 58
2,174394, Control_c, 0, 64, 62
2,174413, Control_c, 0, 64, 63
2,174433, Control_c, 0, 64, 64
2,174452, Control_c, 0, 64, 64
2,174471, Control_c, 0, 64, 65
2,174490, Control_c, 0, 64, 65
2,174510, Control_c, 0, 64, 66
2,174662, Control_c, 0, 64, 62
2,174682, Control_c, 0, 64, 38
2,174696, Note_on_c, 0, 47, 53
2,174696, Note_on_c, 0, 56, 59
2,174702, Note_on_c, 0, 75, 69
2,174705, Control_c, 0, 64, 0
2,174720, Note_on_c, 0, 73, 0
2,174786, Note_on_c, 0, 46, 0
2,174798, Control_c, 0, 64, 46
2,174817, Control_c, 0, 64, 61
2,174837, Control_c, 0, 64, 64
2,174856, Control_c, 0, 64, 65
2,174875, Control_c, 0, 64, 65
2,174894, Control_c, 0, 64, 66
2,174914, Control_c, 0, 64, 67
2,174932, Control_c, 0, 64, 68
2,174952, Control_c, 0, 64, 66
2,174971, Control_c, 0, 64, 61
2,174991, Control_c, 0, 64, 50
2,175009, Control_c, 0, 64, 39
2,175023, Note_on_c, 0, 47, 0
2,175029, Control_c, 0, 64, 38
2,175048, Control_c, 0, 64, 46
2,175067, Control_c, 0, 64, 57
2,175086, Control_c, 0, 64, 63
2,175106, Control_c, 0, 64, 65
2,175106, Note_on_c, 0, 54, 60
2,175125, Control_c, 0, 64, 66
2,175171, Note_on_c, 0, 56, 0
2,175336, Control_c, 0, 64, 66
2,175451, Control_c, 0, 64, 67
2,175479, Note_on_c, 0, 53, 67
2,175489, Control_c, 0, 64, 63
2,175495, Note_on_c, 0, 49, 72
2,175496, Note_on_c, 0, 63, 0
2,175498, Note_on_c, 0, 68, 75
2,175509, Control_c, 0, 64, 48
2,175516, Note_on_c, 0, 75, 0
2,175525, Note_on_c, 0, 54, 0
2,175528, Control_c, 0, 64, 0
2,175643, Control_c, 0, 64, 52
2,175662, Control_c, 0, 64, 61
2,175682, Control_c, 0, 64, 63
2,175700, Control_c, 0, 64, 64
2,175720, Control_c, 0, 64, 64
2,175739, Control_c, 0, 64, 65
2,175757, Control_c, 0, 64, 66
2,175776, Control_c, 0, 64, 66
2,175873, Control_c, 0, 64, 67
2,175880, Note_on_c, 0, 68, 0
2,175892, Control_c, 0, 64, 67
2,175897, Note_on_c, 0, 70, 61
2,175911, Control_c, 0, 64, 68
2,175930, Control_c, 0, 64, 69
2,175950, Control_c, 0, 64, 69
2,176007, Control_c, 0, 64, 69
2,176054, Note_on_c, 0, 71, 68
2,176083, Note_on_c, 0, 70, 0
2,176105, Control_c, 0, 64, 69
2,176144, Control_c, 0, 64, 70
2,176164, Control_c, 0, 64, 70
2,176182, Control_c, 0, 64, 71
2,176240, Control_c, 0, 64, 70
2,176259, Control_c, 0, 64, 67
2,176272, Note_on_c, 0, 61, 83
2,176279, Control_c, 0, 64, 57
2,176289, Note_on_c, 0, 53, 0
2,176290, Note_on_c, 0, 42, 71
2,176298, Control_c, 0, 64, 0
2,176300, Note_on_c, 0, 70, 64
2,176338, Note_on_c, 0, 49, 0
2,176339, Note_on_c, 0, 71, 0
2,176413, Control_c, 0, 64, 36
2,176432, Control_c, 0, 64, 57
2,176451, Control_c, 0, 64, 62
2,176470, Control_c, 0, 64, 64
2,176490, Control_c, 0, 64, 65
2,176509, Control_c, 0, 64, 66
2,176528, Control_c, 0, 64, 67
2,176547, Control_c, 0, 64, 68
2,176567, Control_c, 0, 64, 69
2,176605, Control_c, 0, 64, 68
2,176662, Control_c, 0, 64, 68
2,176679, Note_on_c, 0, 71, 70
2,176682, Control_c, 0, 64, 68
2,176756, Note_on_c, 0, 70, 0
2,176778, Control_c, 0, 64, 68
2,176797, Control_c, 0, 64, 67
2,176816, Control_c, 0, 64, 67
2,176855, Control_c, 0, 64, 66
2,177047, Control_c, 0, 64, 67
2,177065, Control_c, 0, 64, 66
2,177085, Control_c, 0, 64, 66
2,177089, Note_on_c, 0, 73, 81
2,177104, Control_c, 0, 64, 63
2,177122, Note_on_c, 0, 54, 55
2,177124, Control_c, 0, 64, 47
2,177142, Control_c, 0, 64, 0
2,177201, Note_on_c, 0, 71, 0
2,177239, Control_c, 0, 64, 13
2,177258, Control_c, 0, 64, 51
2,177277, Control_c, 0, 64, 59
2,177296, Control_c, 0, 64, 62
2,177316, Control_c, 0, 64, 63
2,177335, Control_c, 0, 64, 63
2,177353, Control_c, 0, 64, 64
2,177373, Control_c, 0, 64, 64
2,177498, Note_on_c, 0, 41, 65
2,177527, Control_c, 0, 64, 65
2,177565, Note_on_c, 0, 42, 0
2,177832, Control_c, 0, 64, 64
2,177852, Control_c, 0, 64, 57
2,177871, Control_c, 0, 64, 24
2,177890, Control_c, 0, 64, 0
2,177903, Note_on_c, 0, 66, 79
2,177924, Note_on_c, 0, 42, 60
2,177953, Note_on_c, 0, 41, 0
2,177953, Note_on_c, 0, 73, 0
2,177986, Control_c, 0, 64, 22
2,178006, Control_c, 0, 64, 50
2,178025, Control_c, 0, 64, 59
2,178044, Control_c, 0, 64, 61
2,178063, Control_c, 0, 64, 62
2,178083, Control_c, 0, 64, 62
2,178101, Control_c, 0, 64, 63
2,178121, Control_c, 0, 64, 64
2,178140, Control_c, 0, 64, 65
2,178158, Note_on_c, 0, 54, 0
2,178160, Control_c, 0, 64, 66
2,178217, Control_c, 0, 64, 64
2,178235, Control_c, 0, 64, 57
2,178255, Control_c, 0, 64, 33
2,178274, Control_c, 0, 64, 0
2,178295, Note_on_c, 0, 44, 44
2,178303, Note_on_c, 0, 53, 55
2,178309, Note_on_c, 0, 42, 0
2,178312, Control_c, 0, 64, 9
2,178332, Control_c, 0, 64, 43
2,178351, Control_c, 0, 64, 58
2,178370, Control_c, 0, 64, 63
2,178389, Control_c, 0, 64, 64
2,178409, Control_c, 0, 64, 65
2,178428, Control_c, 0, 64, 66
2,178447, Control_c, 0, 64, 66
2,178466, Control_c, 0, 64, 67
2,178468, Note_on_c, 0, 53, 0
2,178486, Control_c, 0, 64, 68
2,178505, Control_c, 0, 64, 69
2,178581, Control_c, 0, 64, 69
2,178620, Control_c, 0, 64, 68
2,178635, Note_on_c, 0, 61, 0
2,178640, Control_c, 0, 64, 63
2,178658, Control_c, 0, 64, 50
2,178678, Control_c, 0, 64, 26
2,178697, Control_c, 0, 64, 0
2,178719, Note_on_c, 0, 54, 49
2,178725, Note_on_c, 0, 46, 44
2,178735, Control_c, 0, 64, 31
2,178754, Control_c, 0, 64, 51
2,178759, Note_on_c, 0, 44, 0
2,178774, Control_c, 0, 64, 60
2,178792, Control_c, 0, 64, 63
2,178812, Control_c, 0, 64, 64
2,178831, Control_c, 0, 64, 64
2,178850, Control_c, 0, 64, 65
2,178889, Control_c, 0, 64, 65
2,179043, Control_c, 0, 64, 65
2,179061, Control_c, 0, 64, 61
2,179075, Note_on_c, 0, 54, 0
2,179081, Control_c, 0, 64, 40
2,179100, Control_c, 0, 64, 0
2,179105, Note_on_c, 0, 65, 56
2,179122, Note_on_c, 0, 44, 30
2,179145, Note_on_c, 0, 56, 40
2,179164, Note_on_c, 0, 66, 0
2,179177, Control_c, 0, 64, 31
2,179195, Control_c, 0, 64, 55
2,179215, Control_c, 0, 64, 63
2,179224, Note_on_c, 0, 46, 0
2,179234, Control_c, 0, 64, 64
2,179254, Control_c, 0, 64, 65
2,179255, Note_on_c, 0, 56, 0
2,179272, Control_c, 0, 64, 65
2,179311, Control_c, 0, 64, 66
2,179446, Control_c, 0, 64, 64
2,179465, Control_c, 0, 64, 58
2,179484, Control_c, 0, 64, 29
2,179496, Note_on_c, 0, 66, 71
2,179505, Control_c, 0, 64, 0
2,179524, Note_on_c, 0, 42, 39
2,179537, Note_on_c, 0, 58, 38
2,179551, Note_on_c, 0, 44, 0
2,179582, Control_c, 0, 64, 39
2,179592, Note_on_c, 0, 65, 0
2,179601, Control_c, 0, 64, 58
2,179620, Control_c, 0, 64, 63
2,179640, Control_c, 0, 64, 65
2,179659, Control_c, 0, 64, 66
2,179678, Control_c, 0, 64, 67
2,179697, Control_c, 0, 64, 68
2,179704, Note_on_c, 0, 58, 0
2,179717, Control_c, 0, 64, 68
2,179735, Control_c, 0, 64, 69
2,179831, Control_c, 0, 64, 69
2,179851, Control_c, 0, 64, 70
2,179869, Control_c, 0, 64, 69
2,179889, Control_c, 0, 64, 64
2,179898, Note_on_c, 0, 68, 73
2,179903, Note_on_c, 0, 42, 0
2,179908, Control_c, 0, 64, 48
2,179928, Control_c, 0, 64, 15
2,179933, Note_on_c, 0, 52, 45
2,179933, Note_on_c, 0, 56, 46
2,179946, Control_c, 0, 64, 0
2,179958, Note_on_c, 0, 66, 0
2,179985, Control_c, 0, 64, 17
2,180005, Control_c, 0, 64, 47
2,180023, Control_c, 0, 64, 59
2,180043, Control_c, 0, 64, 64
2,180062, Control_c, 0, 64, 65
2,180081, Control_c, 0, 64, 66
2,180100, Control_c, 0, 64, 67
2,180120, Control_c, 0, 64, 67
2,180139, Control_c, 0, 64, 68
2,180177, Control_c, 0, 64, 67
2,180264, Note_on_c, 0, 56, 0
2,180273, Control_c, 0, 64, 66
2,180292, Control_c, 0, 64, 63
2,180311, Control_c, 0, 64, 45
2,180325, Note_on_c, 0, 52, 0
2,180331, Control_c, 0, 64, 0
2,180335, Note_on_c, 0, 70, 66
2,180345, Note_on_c, 0, 54, 35
2,180367, Note_on_c, 0, 51, 33
2,180412, Note_on_c, 0, 68, 0
2,180426, Control_c, 0, 64, 43
2,180446, Control_c, 0, 64, 57
2,180467, Control_c, 0, 64, 62
2,180486, Control_c, 0, 64, 64
2,180525, Control_c, 0, 64, 64
2,180598, Control_c, 0, 64, 64
2,180617, Control_c, 0, 64, 63
2,180635, Control_c, 0, 64, 63
2,180655, Control_c, 0, 64, 62
2,180674, Control_c, 0, 64, 62
2,180694, Control_c, 0, 64, 61
2,180712, Control_c, 0, 64, 61
2,180732, Control_c, 0, 64, 60
2,180748, Note_on_c, 0, 68, 60
2,180751, Control_c, 0, 64, 59
2,180770, Control_c, 0, 64, 58
2,180789, Control_c, 0, 64, 55
2,180809, Control_c, 0, 64, 52
2,180817, Note_on_c, 0, 70, 0
2,180828, Control_c, 0, 64, 50
2,180847, Control_c, 0, 64, 50
2,180905, Control_c, 0, 64, 50
2,180981, Control_c, 0, 64, 49
2,181001, Control_c, 0, 64, 45
2,181020, Control_c, 0, 64, 43
2,181040, Control_c, 0, 64, 41
2,181058, Control_c, 0, 64, 40
2,181115, Control_c, 0, 64, 39
2,181135, Control_c, 0, 64, 36
2,181140, Note_on_c, 0, 66, 56
2,181154, Control_c, 0, 64, 31
2,181163, Note_on_c, 0, 59, 37
2,181173, Note_on_c, 0, 68, 0
2,181174, Control_c, 0, 64, 20
2,181192, Control_c, 0, 64, 0
2,181193, Note_on_c, 0, 54, 0
2,181366, Control_c, 0, 64, 19
2,181385, Control_c, 0, 64, 34
2,181404, Control_c, 0, 64, 44
2,181424, Control_c, 0, 64, 53
2,181444, Control_c, 0, 64, 57
2,181462, Control_c, 0, 64, 60
2,181482, Control_c, 0, 64, 62
2,181501, Control_c, 0, 64, 63
2,181520, Control_c, 0, 64, 65
2,181525, Note_on_c, 0, 59, 0
2,181538, Note_on_c, 0, 58, 41
2,181539, Control_c, 0, 64, 66
2,181559, Control_c, 0, 64, 67
2,181655, Control_c, 0, 64, 66
2,181789, Control_c, 0, 64, 66
2,181827, Control_c, 0, 64, 65
2,181924, Control_c, 0, 64, 65
2,181942, Control_c, 0, 64, 64
2,181962, Control_c, 0, 64, 57
2,181962, Note_on_c, 0, 58, 0
2,181962, Note_on_c, 0, 76, 71
2,181972, Note_on_c, 0, 56, 44
2,181981, Control_c, 0, 64, 37
2,181987, Note_on_c, 0, 66, 0
2,182000, Control_c, 0, 64, 0
2,182026, Note_on_c, 0, 51, 0
2,182153, Control_c, 0, 64, 41
2,182173, Control_c, 0, 64, 55
2,182192, Control_c, 0, 64, 60
2,182211, Control_c, 0, 64, 61
2,182230, Control_c, 0, 64, 62
2,182250, Control_c, 0, 64, 62
2,182269, Control_c, 0, 64, 63
2,182288, Control_c, 0, 64, 64
2,182307, Control_c, 0, 64, 64
2,182327, Control_c, 0, 64, 65
2,182345, Control_c, 0, 64, 65
2,182367, Note_on_c, 0, 49, 41
2,182442, Control_c, 0, 64, 65
2,182749, Control_c, 0, 64, 64
2,182767, Note_on_c, 0, 73, 48
2,182768, Control_c, 0, 64, 62
2,182787, Control_c, 0, 64, 55
2,182807, Control_c, 0, 64, 41
2,182809, Note_on_c, 0, 47, 38
2,182825, Control_c, 0, 64, 32
2,182845, Control_c, 0, 64, 31
2,182864, Control_c, 0, 64, 36
2,182878, Note_on_c, 0, 49, 0
2,182884, Control_c, 0, 64, 46
2,182902, Control_c, 0, 64, 55
2,182922, Control_c, 0, 64, 60
2,182941, Control_c, 0, 64, 62
2,182960, Control_c, 0, 64, 63
2,182979, Control_c, 0, 64, 63
2,183075, Control_c, 0, 64, 63
2,183095, Control_c, 0, 64, 62
2,183113, Control_c, 0, 64, 62
2,183133, Control_c, 0, 64, 61
2,183152, Control_c, 0, 64, 60
2,183190, Control_c, 0, 64, 60
2,183207, Note_on_c, 0, 46, 29
2,183225, Note_on_c, 0, 47, 0
2,183229, Control_c, 0, 64, 59
2,183248, Control_c, 0, 64, 58
2,183267, Control_c, 0, 64, 58
2,183287, Control_c, 0, 64, 57
2,183305, Control_c, 0, 64, 57
2,183440, Control_c, 0, 64, 56
2,183459, Control_c, 0, 64, 53
2,183479, Control_c, 0, 64, 48
2,183498, Control_c, 0, 64, 42
2,183516, Control_c, 0, 64, 39
2,183555, Control_c, 0, 64, 43
2,183575, Control_c, 0, 64, 49
2,183593, Control_c, 0, 64, 55
2,183610, Note_on_c, 0, 66, 35
2,183613, Control_c, 0, 64, 58
2,183620, Note_on_c, 0, 47, 19
2,183632, Control_c, 0, 64, 59
2,183633, Note_on_c, 0, 56, 0
2,183651, Control_c, 0, 64, 60
2,183670, Control_c, 0, 64, 60
2,183690, Control_c, 0, 64, 61
2,183693, Note_on_c, 0, 73, 0
2,183709, Control_c, 0, 64, 61
2,183715, Note_on_c, 0, 46, 0
2,183728, Control_c, 0, 64, 62
2,183747, Control_c, 0, 64, 62
2,183785, Control_c, 0, 64, 63
2,183901, Control_c, 0, 64, 62
2,183939, Control_c, 0, 64, 62
2,183980, Note_on_c, 0, 76, 0
2,184007, Note_on_c, 0, 74, 40
2,184016, Control_c, 0, 64, 61
2,184055, Control_c, 0, 64, 61
2,184073, Control_c, 0, 64, 60
2,184093, Control_c, 0, 64, 59
2,184112, Control_c, 0, 64, 58
2,184131, Control_c, 0, 64, 57
2,184150, Control_c, 0, 64, 56
2,184170, Control_c, 0, 64, 56
2,184189, Control_c, 0, 64, 55
2,184208, Control_c, 0, 64, 54
2,184247, Control_c, 0, 64, 54
2,184265, Control_c, 0, 64, 53
2,184285, Control_c, 0, 64, 52
2,184304, Control_c, 0, 64, 50
2,184324, Control_c, 0, 64, 49
2,184362, Note_on_c, 0, 47, 0
2,184381, Control_c, 0, 64, 50
2,184400, Control_c, 0, 64, 51
2,184413, Note_on_c, 0, 59, 28
2,184419, Control_c, 0, 64, 53
2,184422, Note_on_c, 0, 75, 40
2,184431, Note_on_c, 0, 74, 0
2,184439, Control_c, 0, 64, 54
2,184458, Control_c, 0, 64, 55
2,184476, Control_c, 0, 64, 55
2,184515, Control_c, 0, 64, 56
2,184553, Control_c, 0, 64, 56
2,184611, Control_c, 0, 64, 57
2,184650, Control_c, 0, 64, 57
2,184765, Control_c, 0, 64, 58
2,184784, Control_c, 0, 64, 59
2,184804, Control_c, 0, 64, 60
2,184820, Note_on_c, 0, 58, 27
2,184822, Control_c, 0, 64, 60
2,184822, Note_on_c, 0, 66, 0
2,184842, Control_c, 0, 64, 61
2,184848, Note_on_c, 0, 59, 0
2,184861, Control_c, 0, 64, 61
2,184880, Control_c, 0, 64, 62
2,184919, Control_c, 0, 64, 62
2,184938, Control_c, 0, 64, 63
2,184976, Control_c, 0, 64, 63
2,185053, Control_c, 0, 64, 64
2,185187, Control_c, 0, 64, 63
2,185207, Control_c, 0, 64, 59
2,185207, Note_on_c, 0, 71, 36
2,185225, Control_c, 0, 64, 52
2,185245, Control_c, 0, 64, 45
2,185257, Note_on_c, 0, 56, 26
2,185267, Control_c, 0, 64, 41
2,185269, Note_on_c, 0, 58, 0
2,185286, Control_c, 0, 64, 42
2,185305, Control_c, 0, 64, 47
2,185325, Control_c, 0, 64, 53
2,185342, Control_c, 0, 64, 57
2,185361, Control_c, 0, 64, 60
2,185380, Control_c, 0, 64, 61
2,185400, Control_c, 0, 64, 62
2,185419, Control_c, 0, 64, 62
2,185438, Control_c, 0, 64, 63
2,185495, Control_c, 0, 64, 63
2,185572, Control_c, 0, 64, 63
2,185574, Note_on_c, 0, 71, 0
2,185591, Control_c, 0, 64, 60
2,185611, Control_c, 0, 64, 52
2,185612, Note_on_c, 0, 78, 53
2,185629, Control_c, 0, 64, 42
2,185645, Note_on_c, 0, 70, 31
2,185649, Control_c, 0, 64, 36
2,185652, Note_on_c, 0, 58, 29
2,185660, Note_on_c, 0, 56, 0
2,185663, Note_on_c, 0, 75, 0
2,185668, Control_c, 0, 64, 36
2,185688, Control_c, 0, 64, 44
2,185706, Control_c, 0, 64, 54
2,185726, Control_c, 0, 64, 60
2,185745, Control_c, 0, 64, 63
2,185765, Control_c, 0, 64, 64
2,185783, Control_c, 0, 64, 64
2,185822, Control_c, 0, 64, 65
2,185886, Note_on_c, 0, 70, 0
2,185918, Control_c, 0, 64, 66
2,185975, Control_c, 0, 64, 65
2,185994, Control_c, 0, 64, 61
2,186005, Note_on_c, 0, 77, 54
2,186014, Control_c, 0, 64, 54
2,186033, Control_c, 0, 64, 47
2,186038, Note_on_c, 0, 78, 0
2,186039, Note_on_c, 0, 68, 41
2,186052, Control_c, 0, 64, 45
2,186065, Note_on_c, 0, 59, 31
2,186070, Note_on_c, 0, 58, 0
2,186071, Control_c, 0, 64, 47
2,186091, Control_c, 0, 64, 53
2,186110, Control_c, 0, 64, 59
2,186129, Control_c, 0, 64, 62
2,186148, Control_c, 0, 64, 63
2,186168, Control_c, 0, 64, 64
2,186178, Note_on_c, 0, 68, 0
2,186186, Control_c, 0, 64, 64
2,186206, Control_c, 0, 64, 65
2,186226, Control_c, 0, 64, 65
2,186378, Control_c, 0, 64, 64
2,186396, Control_c, 0, 64, 59
2,186410, Note_on_c, 0, 75, 52
2,186411, Note_on_c, 0, 77, 0
2,186412, Note_on_c, 0, 59, 0
2,186416, Control_c, 0, 64, 49
2,186435, Control_c, 0, 64, 41
2,186455, Control_c, 0, 64, 39
2,186465, Note_on_c, 0, 56, 33
2,186473, Control_c, 0, 64, 44
2,186493, Control_c, 0, 64, 52
2,186512, Control_c, 0, 64, 60
2,186531, Control_c, 0, 64, 63
2,186550, Control_c, 0, 64, 64
2,186570, Control_c, 0, 64, 65
2,186585, Note_on_c, 0, 56, 0
2,186589, Control_c, 0, 64, 65
2,186608, Control_c, 0, 64, 66
2,186627, Control_c, 0, 64, 67
2,186647, Control_c, 0, 64, 67
2,186724, Control_c, 0, 64, 67
2,186781, Control_c, 0, 64, 67
2,186800, Control_c, 0, 64, 66
2,186819, Control_c, 0, 64, 63
2,186823, Note_on_c, 0, 75, 0
2,186824, Note_on_c, 0, 74, 50
2,186839, Control_c, 0, 64, 54
2,186857, Note_on_c, 0, 65, 31
2,186858, Control_c, 0, 64, 44
2,186876, Control_c, 0, 64, 41
2,186896, Control_c, 0, 64, 42
2,186915, Control_c, 0, 64, 49
2,186935, Control_c, 0, 64, 57
2,186935, Note_on_c, 0, 58, 8
2,186953, Control_c, 0, 64, 61
2,186973, Control_c, 0, 64, 63
2,186992, Control_c, 0, 64, 63
2,187011, Control_c, 0, 64, 64
2,187030, Control_c, 0, 64, 64
2,187107, Control_c, 0, 64, 64
2,187165, Control_c, 0, 64, 64
2,187223, Control_c, 0, 64, 65
2,187243, Control_c, 0, 64, 65
2,187253, Note_on_c, 0, 77, 67
2,187276, Note_on_c, 0, 63, 28
2,187276, Note_on_c, 0, 65, 0
2,187451, Note_on_c, 0, 74, 0
2,187509, Control_c, 0, 64, 65
2,187641, Note_on_c, 0, 58, 0
2,187646, Note_on_c, 0, 62, 28
2,187701, Control_c, 0, 64, 64
2,187721, Control_c, 0, 64, 61
2,187730, Note_on_c, 0, 63, 0
2,187740, Control_c, 0, 64, 51
2,187743, Note_on_c, 0, 82, 69
2,187760, Control_c, 0, 64, 32
2,187778, Control_c, 0, 64, 0
2,187804, Note_on_c, 0, 77, 0
2,187855, Control_c, 0, 64, 31
2,187874, Control_c, 0, 64, 48
2,187894, Control_c, 0, 64, 59
2,187912, Control_c, 0, 64, 61
2,187932, Control_c, 0, 64, 62
2,187951, Control_c, 0, 64, 62
2,187970, Control_c, 0, 64, 63
2,187989, Control_c, 0, 64, 64
2,188009, Control_c, 0, 64, 64
2,188028, Control_c, 0, 64, 65
2,188146, Note_on_c, 0, 62, 0
2,188182, Control_c, 0, 64, 65
2,188200, Note_on_c, 0, 56, 31
2,188205, Note_on_c, 0, 65, 31
2,188240, Control_c, 0, 64, 66
2,188287, Note_on_c, 0, 56, 0
2,188528, Control_c, 0, 64, 65
2,188547, Control_c, 0, 64, 61
2,188567, Control_c, 0, 64, 51
2,188585, Control_c, 0, 64, 40
2,188605, Control_c, 0, 64, 34
2,188617, Note_on_c, 0, 58, 25
2,188624, Control_c, 0, 64, 35
2,188627, Note_on_c, 0, 65, 0
2,188644, Control_c, 0, 64, 41
2,188648, Note_on_c, 0, 54, 30
2,188662, Control_c, 0, 64, 50
2,188682, Control_c, 0, 64, 58
2,188701, Control_c, 0, 64, 62
2,188720, Control_c, 0, 64, 64
2,188739, Control_c, 0, 64, 64
2,188759, Control_c, 0, 64, 65
2,188778, Control_c, 0, 64, 66
2,188796, Control_c, 0, 64, 66
2,188816, Control_c, 0, 64, 67
2,188912, Control_c, 0, 64, 67
2,188970, Control_c, 0, 64, 68
2,188989, Note_on_c, 0, 58, 0
2,188995, Note_on_c, 0, 54, 0
2,189019, Note_on_c, 0, 83, 64
2,189043, Note_on_c, 0, 68, 47
2,189052, Note_on_c, 0, 56, 37
2,189083, Note_on_c, 0, 82, 0
2,189125, Note_on_c, 0, 68, 0
2,189360, Note_on_c, 0, 56, 0
2,189391, Control_c, 0, 64, 67
2,189410, Control_c, 0, 64, 63
2,189429, Control_c, 0, 64, 55
2,189449, Control_c, 0, 64, 41
2,189449, Note_on_c, 0, 82, 66
2,189461, Note_on_c, 0, 58, 30
2,189467, Note_on_c, 0, 66, 40
2,189468, Control_c, 0, 64, 27
2,189487, Control_c, 0, 64, 24
2,189493, Note_on_c, 0, 83, 0
2,189506, Control_c, 0, 64, 29
2,189526, Control_c, 0, 64, 43
2,189545, Control_c, 0, 64, 57
2,189564, Control_c, 0, 64, 62
2,189583, Control_c, 0, 64, 63
2,189603, Control_c, 0, 64, 64
2,189621, Control_c, 0, 64, 65
2,189641, Control_c, 0, 64, 65
2,189660, Control_c, 0, 64, 66
2,189660, Note_on_c, 0, 66, 0
2,189680, Control_c, 0, 64, 67
2,189794, Control_c, 0, 64, 67
2,189836, Note_on_c, 0, 80, 63
2,189860, Note_on_c, 0, 65, 41
2,189908, Note_on_c, 0, 82, 0
2,189922, Note_on_c, 0, 65, 0
2,189929, Control_c, 0, 64, 67
2,189986, Control_c, 0, 64, 67
2,190197, Control_c, 0, 64, 67
2,190217, Control_c, 0, 64, 64
2,190235, Control_c, 0, 64, 59
2,190249, Note_on_c, 0, 58, 0
2,190250, Note_on_c, 0, 78, 58
2,190252, Note_on_c, 0, 51, 31
2,190255, Control_c, 0, 64, 46
2,190272, Note_on_c, 0, 63, 36
2,190274, Control_c, 0, 64, 34
2,190279, Note_on_c, 0, 80, 0
2,190294, Control_c, 0, 64, 28
2,190312, Control_c, 0, 64, 29
2,190332, Control_c, 0, 64, 38
2,190351, Control_c, 0, 64, 50
2,190370, Control_c, 0, 64, 58
2,190389, Control_c, 0, 64, 61
2,190409, Control_c, 0, 64, 63
2,190428, Control_c, 0, 64, 63
2,190447, Control_c, 0, 64, 64
2,190486, Control_c, 0, 64, 64
2,190601, Control_c, 0, 64, 65
2,190634, Note_on_c, 0, 80, 63
2,190640, Control_c, 0, 64, 65
2,190644, Note_on_c, 0, 53, 42
2,190652, Note_on_c, 0, 78, 0
2,190668, Note_on_c, 0, 51, 0
2,190754, Control_c, 0, 64, 65
2,190927, Control_c, 0, 64, 64
2,190997, Note_on_c, 0, 53, 0
2,191004, Control_c, 0, 64, 64
2,191025, Control_c, 0, 64, 62
2,191035, Note_on_c, 0, 82, 65
2,191041, Note_on_c, 0, 80, 0
2,191042, Note_on_c, 0, 55, 34
2,191045, Control_c, 0, 64, 55
2,191063, Control_c, 0, 64, 40
2,191069, Note_on_c, 0, 75, 46
2,191083, Control_c, 0, 64, 0
2,191234, Control_c, 0, 64, 18
2,191254, Control_c, 0, 64, 43
2,191272, Control_c, 0, 64, 55
2,191292, Control_c, 0, 64, 60
2,191311, Control_c, 0, 64, 62
2,191330, Control_c, 0, 64, 62
2,191349, Control_c, 0, 64, 63
2,191369, Control_c, 0, 64, 63
2,191388, Control_c, 0, 64, 64
2,191405, Note_on_c, 0, 75, 0
2,191407, Control_c, 0, 64, 64
2,191426, Control_c, 0, 64, 65
2,191446, Note_on_c, 0, 73, 36
2,191465, Control_c, 0, 64, 65
2,191520, Note_on_c, 0, 63, 0
2,191523, Control_c, 0, 64, 65
2,191675, Control_c, 0, 64, 64
2,191734, Control_c, 0, 64, 64
2,191810, Control_c, 0, 64, 62
2,191826, Note_on_c, 0, 55, 0
2,191829, Control_c, 0, 64, 54
2,191830, Note_on_c, 0, 73, 0
2,191835, Note_on_c, 0, 75, 60
2,191841, Note_on_c, 0, 56, 44
2,191849, Control_c, 0, 64, 29
2,191850, Note_on_c, 0, 82, 0
2,191861, Note_on_c, 0, 71, 38
2,191868, Control_c, 0, 64, 0
2,191964, Control_c, 0, 64, 45
2,191986, Control_c, 0, 64, 58
2,192005, Control_c, 0, 64, 62
2,192024, Control_c, 0, 64, 63
2,192044, Control_c, 0, 64, 64
2,192080, Control_c, 0, 64, 65
2,192098, Control_c, 0, 64, 65
2,192200, Note_on_c, 0, 71, 0
2,192230, Note_on_c, 0, 70, 46
2,192232, Control_c, 0, 64, 66
2,192235, Note_on_c, 0, 54, 27
2,192240, Note_on_c, 0, 56, 0
2,192271, Control_c, 0, 64, 66
2,192361, Note_on_c, 0, 70, 0
2,192367, Control_c, 0, 64, 66
2,192444, Control_c, 0, 64, 66
2,192540, Control_c, 0, 64, 66
2,192648, Note_on_c, 0, 80, 66
2,192670, Note_on_c, 0, 53, 30
2,192674, Control_c, 0, 64, 64
2,192675, Note_on_c, 0, 54, 0
2,192680, Note_on_c, 0, 68, 42
2,192684, Note_on_c, 0, 75, 0
2,192694, Control_c, 0, 64, 57
2,192712, Control_c, 0, 64, 39
2,192732, Control_c, 0, 64, 0
2,192809, Control_c, 0, 64, 20
2,192828, Control_c, 0, 64, 45
2,192847, Control_c, 0, 64, 58
2,192866, Control_c, 0, 64, 61
2,192886, Control_c, 0, 64, 62
2,192905, Control_c, 0, 64, 62
2,192924, Control_c, 0, 64, 63
2,192963, Control_c, 0, 64, 63
2,193020, Control_c, 0, 64, 64
2,193040, Control_c, 0, 64, 64
2,193059, Control_c, 0, 64, 65
2,193066, Note_on_c, 0, 68, 0
2,193079, Control_c, 0, 64, 65
2,193089, Note_on_c, 0, 71, 15
2,193092, Note_on_c, 0, 51, 27
2,193098, Control_c, 0, 64, 66
2,193099, Note_on_c, 0, 53, 0
2,193328, Control_c, 0, 64, 66
2,193367, Control_c, 0, 64, 66
2,193444, Control_c, 0, 64, 65
2,193462, Control_c, 0, 64, 64
2,193482, Control_c, 0, 64, 60
2,193493, Note_on_c, 0, 50, 33
2,193496, Note_on_c, 0, 70, 43
2,193500, Note_on_c, 0, 71, 0
2,193501, Control_c, 0, 64, 52
2,193520, Control_c, 0, 64, 44
2,193539, Control_c, 0, 64, 43
2,193539, Note_on_c, 0, 51, 0
2,193559, Control_c, 0, 64, 45
2,193578, Control_c, 0, 64, 51
2,193596, Control_c, 0, 64, 56
2,193616, Control_c, 0, 64, 60
2,193635, Control_c, 0, 64, 62
2,193655, Control_c, 0, 64, 63
2,193673, Control_c, 0, 64, 64
2,193693, Control_c, 0, 64, 65
2,193712, Control_c, 0, 64, 65
2,193731, Control_c, 0, 64, 66
2,193865, Control_c, 0, 64, 66
2,193885, Note_on_c, 0, 78, 60
2,193901, Note_on_c, 0, 51, 34
2,193905, Control_c, 0, 64, 67
2,193912, Note_on_c, 0, 75, 40
2,193924, Note_on_c, 0, 50, 0
2,193942, Note_on_c, 0, 70, 0
2,193998, Control_c, 0, 64, 66
2,194056, Note_on_c, 0, 80, 0
2,194210, Control_c, 0, 64, 66
2,194267, Control_c, 0, 64, 65
2,194281, Note_on_c, 0, 77, 59
2,194286, Control_c, 0, 64, 63
2,194297, Note_on_c, 0, 46, 32
2,194305, Control_c, 0, 64, 55
2,194306, Note_on_c, 0, 75, 0
2,194325, Control_c, 0, 64, 30
2,194330, Note_on_c, 0, 51, 0
2,194344, Control_c, 0, 64, 0
2,194404, Note_on_c, 0, 78, 0
2,194420, Control_c, 0, 64, 17
2,194440, Control_c, 0, 64, 48
2,194459, Control_c, 0, 64, 60
2,194478, Control_c, 0, 64, 63
2,194497, Control_c, 0, 64, 63
2,194516, Control_c, 0, 64, 64
2,194536, Control_c, 0, 64, 64
2,194555, Control_c, 0, 64, 65
2,194574, Control_c, 0, 64, 66
2,194631, Control_c, 0, 64, 66
2,194670, Control_c, 0, 64, 67
2,194690, Control_c, 0, 64, 68
2,194699, Note_on_c, 0, 73, 46
2,194708, Control_c, 0, 64, 69
2,194716, Note_on_c, 0, 58, 37
2,194747, Note_on_c, 0, 46, 0
2,194805, Control_c, 0, 64, 68
2,194996, Control_c, 0, 64, 68
2,195054, Control_c, 0, 64, 67
2,195093, Control_c, 0, 64, 66
2,195103, Note_on_c, 0, 58, 0
2,195109, Note_on_c, 0, 75, 62
2,195111, Control_c, 0, 64, 64
2,195131, Control_c, 0, 64, 56
2,195146, Note_on_c, 0, 59, 36
2,195150, Control_c, 0, 64, 40
2,195154, Note_on_c, 0, 77, 0
2,195170, Control_c, 0, 64, 0
2,195265, Control_c, 0, 64, 27
2,195268, Note_on_c, 0, 73, 0
2,195285, Control_c, 0, 64, 45
2,195304, Control_c, 0, 64, 56
2,195323, Control_c, 0, 64, 60
2,195342, Control_c, 0, 64, 62
2,195362, Control_c, 0, 64, 62
2,195380, Control_c, 0, 64, 63
2,195400, Control_c, 0, 64, 63
2,195419, Control_c, 0, 64, 64
2,195476, Control_c, 0, 64, 64
2,195496, Control_c, 0, 64, 65
2,195497, Note_on_c, 0, 71, 46
2,195515, Control_c, 0, 64, 65
2,195538, Note_on_c, 0, 51, 29
2,195553, Control_c, 0, 64, 66
2,195596, Note_on_c, 0, 59, 0
2,195630, Control_c, 0, 64, 65
2,195822, Control_c, 0, 64, 65
2,195880, Control_c, 0, 64, 64
2,195900, Control_c, 0, 64, 64
2,195912, Note_on_c, 0, 73, 56
2,195918, Control_c, 0, 64, 62
2,195937, Control_c, 0, 64, 55
2,195942, Note_on_c, 0, 53, 31
2,195956, Control_c, 0, 64, 41
2,195956, Note_on_c, 0, 75, 0
2,195976, Control_c, 0, 64, 9
2,195978, Note_on_c, 0, 51, 0
2,195995, Control_c, 0, 64, 0
2,196091, Control_c, 0, 64, 32
2,196110, Control_c, 0, 64, 47
2,196130, Control_c, 0, 64, 56
2,196148, Control_c, 0, 64, 59
2,196168, Control_c, 0, 64, 60
2,196187, Control_c, 0, 64, 61
2,196206, Control_c, 0, 64, 62
2,196225, Control_c, 0, 64, 62
2,196245, Control_c, 0, 64, 63
2,196283, Control_c, 0, 64, 63
2,196302, Note_on_c, 0, 71, 0
2,196320, Note_on_c, 0, 70, 42
2,196322, Control_c, 0, 64, 64
2,196323, Note_on_c, 0, 55, 26
2,196334, Note_on_c, 0, 53, 0
2,196340, Control_c, 0, 64, 64
2,196648, Control_c, 0, 64, 64
2,196684, Note_on_c, 0, 73, 0
2,196686, Control_c, 0, 64, 63
2,196705, Control_c, 0, 64, 61
2,196714, Note_on_c, 0, 71, 50
2,196725, Control_c, 0, 64, 57
2,196744, Control_c, 0, 64, 46
2,196763, Control_c, 0, 64, 26
2,196763, Note_on_c, 0, 55, 0
2,196763, Note_on_c, 0, 56, 35
2,196786, Control_c, 0, 64, 0
2,196937, Control_c, 0, 64, 24
2,196955, Control_c, 0, 64, 40
2,196975, Control_c, 0, 64, 52
2,196994, Control_c, 0, 64, 57
2,197014, Control_c, 0, 64, 59
2,197032, Control_c, 0, 64, 59
2,197071, Control_c, 0, 64, 60
2,197108, Note_on_c, 0, 70, 0
2,197110, Note_on_c, 0, 68, 41
2,197129, Note_on_c, 0, 53, 34
2,197162, Note_on_c, 0, 56, 0
2,197206, Control_c, 0, 64, 59
2,197244, Control_c, 0, 64, 59
2,197301, Control_c, 0, 64, 58
2,197397, Control_c, 0, 64, 58
2,197417, Control_c, 0, 64, 57
2,197435, Control_c, 0, 64, 56
2,197455, Control_c, 0, 64, 51
2,197474, Control_c, 0, 64, 43
2,197483, Note_on_c, 0, 71, 0
2,197494, Control_c, 0, 64, 22
2,197512, Control_c, 0, 64, 0
2,197514, Note_on_c, 0, 70, 39
2,197520, Note_on_c, 0, 50, 25
2,197543, Note_on_c, 0, 53, 0
2,197705, Control_c, 0, 64, 24
2,197724, Control_c, 0, 64, 37
2,197744, Control_c, 0, 64, 46
2,197764, Control_c, 0, 64, 52
2,197782, Control_c, 0, 64, 56
2,197802, Control_c, 0, 64, 58
2,197820, Control_c, 0, 64, 58
2,197840, Control_c, 0, 64, 59
2,197858, Control_c, 0, 64, 59
2,197870, Note_on_c, 0, 50, 0
2,197886, Note_on_c, 0, 66, 37
2,197901, Note_on_c, 0, 51, 30
2,197945, Note_on_c, 0, 68, 0
2,198012, Control_c, 0, 64, 60
2,198243, Control_c, 0, 64, 59
2,198261, Control_c, 0, 64, 59
2,198278, Note_on_c, 0, 68, 51
2,198281, Control_c, 0, 64, 58
2,198288, Note_on_c, 0, 48, 38
2,198297, Note_on_c, 0, 70, 0
2,198300, Control_c, 0, 64, 57
2,198313, Note_on_c, 0, 51, 0
2,198320, Control_c, 0, 64, 55
2,198338, Control_c, 0, 64, 54
2,198357, Control_c, 0, 64, 53
2,198377, Control_c, 0, 64, 51
2,198395, Control_c, 0, 64, 50
2,198415, Control_c, 0, 64, 49
2,198434, Control_c, 0, 64, 48
2,198454, Control_c, 0, 64, 47
2,198472, Control_c, 0, 64, 46
2,198492, Control_c, 0, 64, 45
2,198511, Control_c, 0, 64, 44
2,198684, Note_on_c, 0, 50, 38
2,198702, Note_on_c, 0, 65, 37
2,198725, Note_on_c, 0, 48, 0
2,198785, Note_on_c, 0, 66, 0
2,198857, Control_c, 0, 64, 45
2,199010, Control_c, 0, 64, 45
2,199108, Note_on_c, 0, 68, 0
2,199124, Note_on_c, 0, 66, 40
2,199147, Note_on_c, 0, 51, 29
2,199156, Note_on_c, 0, 50, 0
2,199279, Control_c, 0, 64, 45
2,199375, Control_c, 0, 64, 44
2,199510, Note_on_c, 0, 65, 0
2,199574, Note_on_c, 0, 39, 35
2,199601, Note_on_c, 0, 51, 0
2,199625, Control_c, 0, 64, 44
2,199663, Control_c, 0, 64, 43
2,199683, Control_c, 0, 64, 43
2,199701, Control_c, 0, 64, 42
2,199721, Control_c, 0, 64, 42
2,199740, Control_c, 0, 64, 41
2,199778, Control_c, 0, 64, 40
2,199835, Control_c, 0, 64, 40
2,199894, Control_c, 0, 64, 39
2,199932, Control_c, 0, 64, 38
2,199970, Control_c, 0, 64, 38
2,199989, Control_c, 0, 64, 37
2,200009, Control_c, 0, 64, 36
2,200028, Control_c, 0, 64, 34
2,200047, Control_c, 0, 64, 31
2,200058, Note_on_c, 0, 66, 0
2,200066, Control_c, 0, 64, 26
2,200077, Note_on_c, 0, 46, 33
2,200086, Control_c, 0, 64, 20
2,200088, Note_on_c, 0, 62, 24
2,200105, Control_c, 0, 64, 0
2,200106, Note_on_c, 0, 65, 24
2,200121, Note_on_c, 0, 39, 0
2,200239, Control_c, 0, 64, 36
2,200258, Control_c, 0, 64, 54
2,200277, Control_c, 0, 64, 59
2,200297, Control_c, 0, 64, 61
2,200315, Control_c, 0, 64, 62
2,200335, Control_c, 0, 64, 63
2,200339, Note_on_c, 0, 65, 0
2,200354, Control_c, 0, 64, 64
2,200374, Control_c, 0, 64, 65
2,200392, Control_c, 0, 64, 66
2,200431, Control_c, 0, 64, 66
2,200450, Control_c, 0, 64, 67
2,200469, Control_c, 0, 64, 67
2,200489, Control_c, 0, 64, 68
2,200508, Control_c, 0, 64, 68
2,200527, Control_c, 0, 64, 69
2,200546, Control_c, 0, 64, 69
2,200566, Control_c, 0, 64, 70
2,200585, Control_c, 0, 64, 70
2,200591, Note_on_c, 0, 62, 0
2,200655, Note_on_c, 0, 65, 34
2,200661, Control_c, 0, 64, 71
2,200681, Control_c, 0, 64, 71
2,200713, Note_on_c, 0, 65, 0
2,200757, Control_c, 0, 64, 72
2,200874, Note_on_c, 0, 46, 0
2,201007, Control_c, 0, 64, 71
2,201065, Control_c, 0, 64, 71
2,201067, Note_on_c, 0, 70, 60
2,201084, Control_c, 0, 64, 69
2,201103, Control_c, 0, 64, 67
2,201123, Control_c, 0, 64, 65
2,201141, Control_c, 0, 64, 63
2,201161, Control_c, 0, 64, 61
2,201180, Control_c, 0, 64, 60
2,201199, Control_c, 0, 64, 58
2,201218, Control_c, 0, 64, 56
2,201237, Control_c, 0, 64, 54
2,201257, Control_c, 0, 64, 52
2,201295, Control_c, 0, 64, 52
2,201334, Control_c, 0, 64, 51
2,201391, Control_c, 0, 64, 51
2,201467, Note_on_c, 0, 72, 50
2,201487, Control_c, 0, 64, 51
2,201545, Control_c, 0, 64, 52
2,201564, Control_c, 0, 64, 52
2,201604, Control_c, 0, 64, 53
2,201699, Control_c, 0, 64, 53
2,201718, Control_c, 0, 64, 54
2,201738, Control_c, 0, 64, 54
2,201776, Control_c, 0, 64, 55
2,201795, Control_c, 0, 64, 55
2,201833, Control_c, 0, 64, 56
2,201917, Note_on_c, 0, 58, 64
2,201919, Note_on_c, 0, 72, 0
2,201930, Control_c, 0, 64, 55
2,201942, Note_on_c, 0, 74, 36
2,201949, Control_c, 0, 64, 53
2,201968, Control_c, 0, 64, 50
2,201987, Control_c, 0, 64, 44
2,202007, Control_c, 0, 64, 34
2,202025, Control_c, 0, 64, 20
2,202026, Note_on_c, 0, 70, 0
2,202045, Control_c, 0, 64, 0
2,202198, Control_c, 0, 64, 13
2,202218, Control_c, 0, 64, 17
2,202236, Control_c, 0, 64, 18
2,202256, Control_c, 0, 64, 20
2,202275, Control_c, 0, 64, 22
2,202295, Control_c, 0, 64, 26
2,202313, Control_c, 0, 64, 29
2,202333, Control_c, 0, 64, 32
2,202352, Control_c, 0, 64, 34
2,202364, Note_on_c, 0, 74, 0
2,202371, Control_c, 0, 64, 35
2,202390, Control_c, 0, 64, 36
2,202401, Note_on_c, 0, 75, 38
2,202410, Control_c, 0, 64, 36
2,202415, Note_on_c, 0, 71, 39
2,202429, Control_c, 0, 64, 37
2,202448, Control_c, 0, 64, 38
2,202467, Control_c, 0, 64, 39
2,202487, Control_c, 0, 64, 41
2,202505, Control_c, 0, 64, 43
2,202525, Control_c, 0, 64, 46
2,202544, Control_c, 0, 64, 48
2,202559, Control_c, 0, 64, 50
2,202579, Control_c, 0, 64, 53
2,202597, Control_c, 0, 64, 55
2,202613, Control_c, 0, 64, 57
2,202631, Control_c, 0, 64, 59
2,202651, Control_c, 0, 64, 62
2,202670, Control_c, 0, 64, 63
2,202689, Control_c, 0, 64, 64
2,202708, Control_c, 0, 64, 65
2,202728, Control_c, 0, 64, 66
2,202735, Note_on_c, 0, 71, 0
2,202746, Control_c, 0, 64, 67
2,202766, Control_c, 0, 64, 69
2,202785, Control_c, 0, 64, 71
2,202789, Note_on_c, 0, 77, 44
2,202794, Note_on_c, 0, 70, 45
2,202805, Control_c, 0, 64, 74
2,202823, Control_c, 0, 64, 76
2,202843, Control_c, 0, 64, 77
2,202862, Control_c, 0, 64, 78
2,202881, Control_c, 0, 64, 79
2,202900, Control_c, 0, 64, 79
2,202919, Control_c, 0, 64, 81
2,202939, Control_c, 0, 64, 82
2,202957, Control_c, 0, 64, 84
2,202977, Control_c, 0, 64, 85
2,202996, Control_c, 0, 64, 85
2,203015, Control_c, 0, 64, 86
2,203034, Note_on_c, 0, 58, 0
2,203035, Note_on_c, 0, 75, 0
2,203131, Control_c, 0, 64, 85
2,203150, Control_c, 0, 64, 85
2,203202, Note_on_c, 0, 68, 52
2,203208, Control_c, 0, 64, 84
2,203224, Note_on_c, 0, 70, 0
2,203246, Control_c, 0, 64, 84
2,203265, Control_c, 0, 64, 83
2,203303, Control_c, 0, 64, 83
2,203595, Note_on_c, 0, 63, 68
2,203598, Control_c, 0, 64, 80
2,203617, Control_c, 0, 64, 73
2,203636, Control_c, 0, 64, 64
2,203645, Note_on_c, 0, 66, 50
2,203656, Control_c, 0, 64, 57
2,203660, Note_on_c, 0, 68, 0
2,203675, Control_c, 0, 64, 52
2,203694, Control_c, 0, 64, 48
2,203713, Control_c, 0, 64, 44
2,203733, Control_c, 0, 64, 43
2,203751, Control_c, 0, 64, 44
2,203771, Control_c, 0, 64, 45
2,203790, Control_c, 0, 64, 48
2,203810, Control_c, 0, 64, 49
2,203828, Control_c, 0, 64, 51
2,203848, Control_c, 0, 64, 53
2,203867, Control_c, 0, 64, 55
2,203886, Control_c, 0, 64, 55
2,203944, Control_c, 0, 64, 56
2,203982, Control_c, 0, 64, 56
2,203999, Note_on_c, 0, 68, 41
2,204002, Control_c, 0, 64, 57
2,204005, Note_on_c, 0, 77, 0
2,204035, Note_on_c, 0, 75, 41
2,204064, Note_on_c, 0, 66, 0
2,204155, Control_c, 0, 64, 56
2,204187, Note_on_c, 0, 75, 0
2,204237, Note_on_c, 0, 73, 40
2,204270, Control_c, 0, 64, 56
2,204289, Note_on_c, 0, 73, 0
2,204290, Control_c, 0, 64, 55
2,204308, Control_c, 0, 64, 54
2,204328, Control_c, 0, 64, 53
2,204347, Control_c, 0, 64, 50
2,204348, Note_on_c, 0, 75, 47
2,204366, Control_c, 0, 64, 48
2,204385, Control_c, 0, 64, 45
2,204405, Control_c, 0, 64, 43
2,204411, Note_on_c, 0, 75, 0
2,204414, Note_on_c, 0, 73, 51
2,204424, Control_c, 0, 64, 43
2,204425, Note_on_c, 0, 70, 49
2,204443, Control_c, 0, 64, 44
2,204459, Note_on_c, 0, 68, 0
2,204462, Control_c, 0, 64, 47
2,204482, Control_c, 0, 64, 52
2,204500, Control_c, 0, 64, 57
2,204519, Control_c, 0, 64, 60
2,204537, Control_c, 0, 64, 62
2,204556, Control_c, 0, 64, 63
2,204575, Control_c, 0, 64, 64
2,204575, Note_on_c, 0, 73, 0
2,204594, Control_c, 0, 64, 65
2,204614, Control_c, 0, 64, 66
2,204620, Note_on_c, 0, 71, 48
2,204633, Control_c, 0, 64, 68
2,204652, Control_c, 0, 64, 69
2,204671, Control_c, 0, 64, 70
2,204691, Control_c, 0, 64, 71
2,204710, Control_c, 0, 64, 72
2,204748, Control_c, 0, 64, 72
2,204757, Note_on_c, 0, 63, 0
2,204786, Control_c, 0, 64, 73
2,204796, Note_on_c, 0, 71, 0
2,204806, Control_c, 0, 64, 73
2,204827, Note_on_c, 0, 73, 49
2,204863, Control_c, 0, 64, 73
2,204920, Control_c, 0, 64, 72
2,204949, Note_on_c, 0, 73, 0
2,204959, Control_c, 0, 64, 72
2,204989, Note_on_c, 0, 79, 51
2,204997, Control_c, 0, 64, 71
2,205036, Control_c, 0, 64, 71
2,205074, Control_c, 0, 64, 70
2,205094, Control_c, 0, 64, 70
2,205113, Control_c, 0, 64, 69
2,205132, Control_c, 0, 64, 68
2,205146, Note_on_c, 0, 79, 0
2,205151, Control_c, 0, 64, 66
2,205171, Control_c, 0, 64, 64
2,205190, Control_c, 0, 64, 60
2,205199, Note_on_c, 0, 63, 53
2,205209, Control_c, 0, 64, 53
2,205217, Note_on_c, 0, 80, 46
2,205228, Control_c, 0, 64, 41
2,205248, Control_c, 0, 64, 23
2,205266, Control_c, 0, 64, 0
2,205333, Note_on_c, 0, 70, 0
2,205358, Note_on_c, 0, 80, 0
2,205363, Control_c, 0, 64, 34
2,205381, Note_on_c, 0, 82, 57
2,205382, Control_c, 0, 64, 51
2,205400, Control_c, 0, 64, 59
2,205423, Control_c, 0, 64, 62
2,205443, Control_c, 0, 64, 63
2,205461, Control_c, 0, 64, 64
2,205480, Control_c, 0, 64, 64
2,205499, Control_c, 0, 64, 65
2,205518, Control_c, 0, 64, 66
2,205537, Control_c, 0, 64, 67
2,205556, Control_c, 0, 64, 68
2,205576, Control_c, 0, 64, 68
2,205589, Note_on_c, 0, 82, 0
2,205595, Control_c, 0, 64, 69
2,205596, Note_on_c, 0, 83, 58
2,205614, Control_c, 0, 64, 69
2,205633, Control_c, 0, 64, 70
2,205959, Control_c, 0, 64, 69
2,206017, Control_c, 0, 64, 69
2,206030, Note_on_c, 0, 64, 66
2,206036, Control_c, 0, 64, 68
2,206056, Control_c, 0, 64, 64
2,206056, Note_on_c, 0, 68, 48
2,206068, Note_on_c, 0, 63, 0
2,206075, Control_c, 0, 64, 53
2,206094, Control_c, 0, 64, 28
2,206113, Control_c, 0, 64, 0
2,206210, Control_c, 0, 64, 34
2,206228, Control_c, 0, 64, 51
2,206248, Control_c, 0, 64, 59
2,206267, Control_c, 0, 64, 62
2,206286, Control_c, 0, 64, 62
2,206305, Control_c, 0, 64, 63
2,206325, Control_c, 0, 64, 64
2,206344, Control_c, 0, 64, 65
2,206363, Control_c, 0, 64, 66
2,206382, Control_c, 0, 64, 67
2,206402, Control_c, 0, 64, 67
2,206429, Note_on_c, 0, 82, 55
2,206436, Note_on_c, 0, 83, 0
2,206439, Control_c, 0, 64, 68
2,206459, Control_c, 0, 64, 68
2,206479, Control_c, 0, 64, 69
2,206581, Note_on_c, 0, 82, 0
2,206592, Note_on_c, 0, 80, 58
2,206614, Control_c, 0, 64, 68
2,206786, Control_c, 0, 64, 68
2,206806, Control_c, 0, 64, 67
2,206825, Control_c, 0, 64, 64
2,206838, Note_on_c, 0, 80, 0
2,206840, Note_on_c, 0, 82, 63
2,206844, Control_c, 0, 64, 56
2,206850, Note_on_c, 0, 63, 61
2,206856, Note_on_c, 0, 64, 0
2,206863, Control_c, 0, 64, 31
2,206883, Control_c, 0, 64, 0
2,206959, Control_c, 0, 64, 19
2,206978, Control_c, 0, 64, 45
2,206997, Control_c, 0, 64, 57
2,207017, Control_c, 0, 64, 62
2,207035, Control_c, 0, 64, 63
2,207055, Control_c, 0, 64, 64
2,207074, Control_c, 0, 64, 65
2,207094, Control_c, 0, 64, 66
2,207112, Control_c, 0, 64, 67
2,207132, Control_c, 0, 64, 68
2,207140, Note_on_c, 0, 68, 0
2,207151, Control_c, 0, 64, 69
2,207189, Control_c, 0, 64, 69
2,207209, Control_c, 0, 64, 70
2,207228, Control_c, 0, 64, 71
2,207230, Note_on_c, 0, 67, 37
2,207236, Note_on_c, 0, 75, 46
2,207247, Control_c, 0, 64, 72
2,207266, Control_c, 0, 64, 73
2,207286, Control_c, 0, 64, 73
2,207346, Control_c, 0, 64, 73
2,207365, Control_c, 0, 64, 72
2,207384, Control_c, 0, 64, 72
2,207404, Control_c, 0, 64, 71
2,207438, Control_c, 0, 64, 71
2,207496, Control_c, 0, 64, 70
2,207534, Control_c, 0, 64, 70
2,207553, Control_c, 0, 64, 69
2,207591, Control_c, 0, 64, 69
2,207610, Note_on_c, 0, 75, 0
2,207611, Control_c, 0, 64, 68
2,207618, Note_on_c, 0, 67, 0
2,207630, Control_c, 0, 64, 67
2,207635, Note_on_c, 0, 77, 50
2,207645, Note_on_c, 0, 65, 49
2,207650, Control_c, 0, 64, 64
2,207657, Note_on_c, 0, 61, 54
2,207668, Control_c, 0, 64, 60
2,207687, Note_on_c, 0, 63, 0
2,207688, Control_c, 0, 64, 49
2,207707, Control_c, 0, 64, 30
2,207726, Control_c, 0, 64, 0
2,207860, Control_c, 0, 64, 36
2,207879, Control_c, 0, 64, 53
2,207899, Control_c, 0, 64, 60
2,207918, Control_c, 0, 64, 62
2,207937, Control_c, 0, 64, 63
2,207956, Control_c, 0, 64, 64
2,207976, Control_c, 0, 64, 64
2,207995, Control_c, 0, 64, 65
2,208009, Note_on_c, 0, 65, 0
2,208014, Control_c, 0, 64, 66
2,208021, Note_on_c, 0, 77, 0
2,208033, Control_c, 0, 64, 67
2,208039, Note_on_c, 0, 64, 44
2,208048, Note_on_c, 0, 79, 47
2,208053, Control_c, 0, 64, 68
2,208071, Control_c, 0, 64, 70
2,208091, Control_c, 0, 64, 70
2,208104, Note_on_c, 0, 82, 0
2,208110, Control_c, 0, 64, 71
2,208156, Note_on_c, 0, 61, 0
2,208169, Note_on_c, 0, 64, 0
2,208245, Control_c, 0, 64, 70
2,208341, Control_c, 0, 64, 70
2,208379, Control_c, 0, 64, 69
2,208398, Control_c, 0, 64, 69
2,208430, Note_on_c, 0, 79, 0
2,208435, Note_on_c, 0, 59, 54
2,208436, Control_c, 0, 64, 67
2,208452, Note_on_c, 0, 80, 50
2,208453, Note_on_c, 0, 63, 48
2,208456, Control_c, 0, 64, 64
2,208475, Control_c, 0, 64, 51
2,208494, Control_c, 0, 64, 17
2,208513, Control_c, 0, 64, 0
2,208590, Control_c, 0, 64, 32
2,208610, Control_c, 0, 64, 54
2,208628, Control_c, 0, 64, 61
2,208648, Control_c, 0, 64, 63
2,208686, Control_c, 0, 64, 64
2,208705, Control_c, 0, 64, 64
2,208725, Control_c, 0, 64, 65
2,208744, Control_c, 0, 64, 66
2,208802, Control_c, 0, 64, 67
2,208835, Note_on_c, 0, 63, 0
2,208843, Note_on_c, 0, 59, 0
2,208859, Control_c, 0, 64, 67
2,208863, Note_on_c, 0, 71, 44
2,208897, Control_c, 0, 64, 68
2,208974, Control_c, 0, 64, 67
2,209202, Note_on_c, 0, 71, 0
2,209243, Note_on_c, 0, 61, 51
2,209255, Note_on_c, 0, 70, 51
2,209262, Control_c, 0, 64, 64
2,209282, Control_c, 0, 64, 56
2,209300, Control_c, 0, 64, 38
2,209319, Control_c, 0, 64, 11
2,209339, Control_c, 0, 64, 0
2,209376, Control_c, 0, 64, 36
2,209395, Control_c, 0, 64, 54
2,209415, Control_c, 0, 64, 62
2,209434, Control_c, 0, 64, 64
2,209453, Control_c, 0, 64, 65
2,209472, Control_c, 0, 64, 66
2,209492, Control_c, 0, 64, 66
2,209510, Control_c, 0, 64, 67
2,209530, Control_c, 0, 64, 68
2,209549, Control_c, 0, 64, 69
2,209569, Control_c, 0, 64, 69
2,209595, Note_on_c, 0, 70, 0
2,209626, Control_c, 0, 64, 70
2,209645, Control_c, 0, 64, 70
2,209656, Note_on_c, 0, 68, 48
2,209664, Control_c, 0, 64, 71
2,209684, Control_c, 0, 64, 72
2,209703, Control_c, 0, 64, 73
2,209721, Control_c, 0, 64, 73
2,209732, Note_on_c, 0, 68, 0
2,209757, Note_on_c, 0, 61, 0
2,209760, Control_c, 0, 64, 73
2,210049, Control_c, 0, 64, 71
2,210065, Note_on_c, 0, 82, 71
2,210067, Control_c, 0, 64, 66
2,210087, Control_c, 0, 64, 57
2,210088, Note_on_c, 0, 63, 45
2,210106, Control_c, 0, 64, 39
2,210123, Note_on_c, 0, 67, 21
2,210125, Control_c, 0, 64, 25
2,210144, Control_c, 0, 64, 20
2,210164, Control_c, 0, 64, 24
2,210179, Note_on_c, 0, 80, 0
2,210183, Control_c, 0, 64, 43
2,210201, Control_c, 0, 64, 56
2,210221, Control_c, 0, 64, 62
2,210231, Note_on_c, 0, 63, 0
2,210240, Control_c, 0, 64, 63
2,210260, Control_c, 0, 64, 64
2,210278, Control_c, 0, 64, 65
2,210298, Control_c, 0, 64, 65
2,210479, Note_on_c, 0, 63, 24
2,210499, Note_on_c, 0, 67, 0
2,210639, Note_on_c, 0, 65, 29
2,210662, Control_c, 0, 64, 66
2,210700, Control_c, 0, 64, 66
2,210719, Control_c, 0, 64, 67
2,210826, Note_on_c, 0, 65, 0
2,210834, Control_c, 0, 64, 66
2,210854, Control_c, 0, 64, 63
2,210860, Note_on_c, 0, 75, 55
2,210869, Note_on_c, 0, 82, 0
2,210873, Control_c, 0, 64, 54
2,210884, Note_on_c, 0, 67, 34
2,210892, Control_c, 0, 64, 36
2,210911, Control_c, 0, 64, 17
2,210931, Control_c, 0, 64, 15
2,210950, Control_c, 0, 64, 28
2,210969, Control_c, 0, 64, 47
2,210988, Control_c, 0, 64, 60
2,211008, Control_c, 0, 64, 64
2,211026, Control_c, 0, 64, 66
2,211046, Control_c, 0, 64, 67
2,211065, Control_c, 0, 64, 69
2,211085, Control_c, 0, 64, 71
2,211103, Control_c, 0, 64, 74
2,211123, Control_c, 0, 64, 76
2,211142, Control_c, 0, 64, 77
2,211259, Control_c, 0, 64, 77
2,211280, Note_on_c, 0, 68, 38
2,211315, Note_on_c, 0, 67, 0
2,211317, Control_c, 0, 64, 78
2,211368, Note_on_c, 0, 68, 0
2,211375, Control_c, 0, 64, 77
2,211428, Note_on_c, 0, 70, 50
2,211490, Control_c, 0, 64, 78
2,211586, Control_c, 0, 64, 77
2,211680, Note_on_c, 0, 70, 0
2,211695, Note_on_c, 0, 56, 61
2,211698, Control_c, 0, 64, 76
2,211701, Note_on_c, 0, 71, 43
2,211718, Control_c, 0, 64, 72
2,211737, Control_c, 0, 64, 64
2,211757, Control_c, 0, 64, 53
2,211775, Control_c, 0, 64, 37
2,211795, Control_c, 0, 64, 21
2,211814, Control_c, 0, 64, 0
2,211816, Note_on_c, 0, 63, 0
2,211907, Note_on_c, 0, 71, 0
2,211909, Control_c, 0, 64, 11
2,211929, Control_c, 0, 64, 13
2,211948, Control_c, 0, 64, 19
2,211967, Control_c, 0, 64, 26
2,211986, Control_c, 0, 64, 30
2,212006, Control_c, 0, 64, 33
2,212025, Control_c, 0, 64, 34
2,212044, Control_c, 0, 64, 34
2,212063, Control_c, 0, 64, 35
2,212083, Control_c, 0, 64, 36
2,212097, Note_on_c, 0, 71, 40
2,212102, Control_c, 0, 64, 40
2,212121, Control_c, 0, 64, 44
2,212141, Control_c, 0, 64, 46
2,212161, Control_c, 0, 64, 47
2,212179, Control_c, 0, 64, 48
2,212199, Control_c, 0, 64, 48
2,212218, Control_c, 0, 64, 49
2,212238, Control_c, 0, 64, 51
2,212256, Control_c, 0, 64, 53
2,212276, Control_c, 0, 64, 54
2,212295, Control_c, 0, 64, 56
2,212314, Control_c, 0, 64, 58
2,212333, Control_c, 0, 64, 59
2,212353, Control_c, 0, 64, 61
2,212372, Control_c, 0, 64, 62
2,212390, Control_c, 0, 64, 63
2,212410, Control_c, 0, 64, 63
2,212429, Control_c, 0, 64, 64
2,212448, Control_c, 0, 64, 64
2,212467, Control_c, 0, 64, 65
2,212487, Control_c, 0, 64, 66
2,212506, Control_c, 0, 64, 67
2,212509, Note_on_c, 0, 73, 42
2,212525, Control_c, 0, 64, 67
2,212544, Control_c, 0, 64, 68
2,212564, Control_c, 0, 64, 69
2,212570, Note_on_c, 0, 75, 0
2,212582, Control_c, 0, 64, 70
2,212659, Control_c, 0, 64, 70
2,212698, Control_c, 0, 64, 71
2,212718, Control_c, 0, 64, 71
2,212736, Control_c, 0, 64, 72
2,212756, Control_c, 0, 64, 73
2,212813, Control_c, 0, 64, 73
2,212850, Note_on_c, 0, 56, 0
2,212870, Control_c, 0, 64, 74
2,212890, Control_c, 0, 64, 74
2,212921, Note_on_c, 0, 75, 47
2,212927, Note_on_c, 0, 70, 38
2,212928, Control_c, 0, 64, 75
2,212934, Note_on_c, 0, 71, 0
2,212947, Control_c, 0, 64, 75
2,212984, Note_on_c, 0, 73, 0
2,213005, Control_c, 0, 64, 76
2,213140, Control_c, 0, 64, 76
2,213179, Control_c, 0, 64, 77
2,213256, Control_c, 0, 64, 76
2,213294, Control_c, 0, 64, 76
2,213306, Note_on_c, 0, 61, 61
2,213308, Note_on_c, 0, 76, 55
2,213314, Control_c, 0, 64, 75
2,213329, Note_on_c, 0, 70, 0
2,213332, Control_c, 0, 64, 71
2,213343, Note_on_c, 0, 68, 35
2,213352, Control_c, 0, 64, 66
2,213371, Control_c, 0, 64, 62
2,213388, Note_on_c, 0, 75, 0
2,213390, Control_c, 0, 64, 58
2,213409, Control_c, 0, 64, 52
2,213428, Control_c, 0, 64, 47
2,213448, Control_c, 0, 64, 42
2,213467, Control_c, 0, 64, 39
2,213486, Control_c, 0, 64, 37
2,213505, Control_c, 0, 64, 36
2,213525, Control_c, 0, 64, 36
2,213582, Control_c, 0, 64, 36
2,213602, Control_c, 0, 64, 37
2,213725, Note_on_c, 0, 75, 56
2,213755, Note_on_c, 0, 68, 0
2,213756, Note_on_c, 0, 67, 33
2,213774, Control_c, 0, 64, 37
2,213795, Note_on_c, 0, 76, 0
2,213928, Control_c, 0, 64, 38
2,213947, Control_c, 0, 64, 38
2,213966, Control_c, 0, 64, 39
2,213985, Control_c, 0, 64, 40
2,214005, Control_c, 0, 64, 40
2,214023, Control_c, 0, 64, 41
2,214043, Control_c, 0, 64, 42
2,214062, Control_c, 0, 64, 43
2,214082, Control_c, 0, 64, 45
2,214100, Control_c, 0, 64, 49
2,214120, Control_c, 0, 64, 54
2,214120, Note_on_c, 0, 67, 0
2,214132, Note_on_c, 0, 68, 47
2,214133, Note_on_c, 0, 73, 50
2,214136, Control_c, 0, 64, 58
2,214156, Control_c, 0, 64, 62
2,214174, Control_c, 0, 64, 63
2,214177, Note_on_c, 0, 75, 0
2,214194, Control_c, 0, 64, 65
2,214213, Control_c, 0, 64, 66
2,214233, Control_c, 0, 64, 67
2,214254, Control_c, 0, 64, 68
2,214273, Control_c, 0, 64, 69
2,214293, Control_c, 0, 64, 71
2,214311, Control_c, 0, 64, 73
2,214331, Control_c, 0, 64, 74
2,214350, Control_c, 0, 64, 75
2,214370, Control_c, 0, 64, 76
2,214388, Control_c, 0, 64, 77
2,214408, Control_c, 0, 64, 78
2,214427, Control_c, 0, 64, 78
2,214446, Control_c, 0, 64, 79
2,214508, Note_on_c, 0, 70, 56
2,214523, Note_on_c, 0, 68, 0
2,214567, Note_on_c, 0, 70, 0
2,214660, Control_c, 0, 64, 78
2,214679, Control_c, 0, 64, 78
2,214813, Control_c, 0, 64, 77
2,214833, Control_c, 0, 64, 77
2,214852, Control_c, 0, 64, 76
2,214871, Control_c, 0, 64, 76
2,214890, Control_c, 0, 64, 75
2,214910, Control_c, 0, 64, 75
2,214928, Control_c, 0, 64, 73
2,214946, Note_on_c, 0, 80, 63
2,214947, Note_on_c, 0, 73, 0
2,214948, Control_c, 0, 64, 68
2,214964, Note_on_c, 0, 63, 56
2,214967, Control_c, 0, 64, 60
2,214987, Control_c, 0, 64, 41
2,215005, Control_c, 0, 64, 22
2,215025, Control_c, 0, 64, 0
2,215050, Note_on_c, 0, 61, 0
2,215120, Control_c, 0, 64, 34
2,215139, Control_c, 0, 64, 53
2,215158, Control_c, 0, 64, 60
2,215178, Control_c, 0, 64, 63
2,215197, Control_c, 0, 64, 64
2,215216, Control_c, 0, 64, 65
2,215235, Control_c, 0, 64, 66
2,215255, Control_c, 0, 64, 68
2,215273, Control_c, 0, 64, 69
2,215292, Control_c, 0, 64, 70
2,215312, Control_c, 0, 64, 71
2,215331, Control_c, 0, 64, 72
2,215350, Control_c, 0, 64, 72
2,215369, Control_c, 0, 64, 73
2,215386, Note_on_c, 0, 65, 30
2,215389, Control_c, 0, 64, 73
2,215408, Control_c, 0, 64, 74
2,215427, Control_c, 0, 64, 74
2,215504, Control_c, 0, 64, 74
2,215638, Control_c, 0, 64, 73
2,215677, Control_c, 0, 64, 73
2,215691, Note_on_c, 0, 65, 0
2,215696, Control_c, 0, 64, 72
2,215735, Control_c, 0, 64, 72
2,215753, Control_c, 0, 64, 69
2,215760, Note_on_c, 0, 75, 52
2,215771, Note_on_c, 0, 67, 40
2,215772, Control_c, 0, 64, 64
2,215775, Note_on_c, 0, 59, 47
2,215792, Control_c, 0, 64, 50
2,215795, Note_on_c, 0, 63, 0
2,215811, Control_c, 0, 64, 17
2,215830, Control_c, 0, 64, 0
2,215888, Control_c, 0, 64, 17
2,215901, Note_on_c, 0, 80, 0
2,215907, Control_c, 0, 64, 46
2,215926, Control_c, 0, 64, 59
2,215946, Control_c, 0, 64, 63
2,215964, Control_c, 0, 64, 64
2,215984, Control_c, 0, 64, 65
2,216003, Control_c, 0, 64, 65
2,216023, Control_c, 0, 64, 66
2,216041, Control_c, 0, 64, 67
2,216061, Control_c, 0, 64, 68
2,216099, Control_c, 0, 64, 69
2,216138, Control_c, 0, 64, 69
2,216155, Note_on_c, 0, 68, 35
2,216157, Control_c, 0, 64, 70
2,216176, Control_c, 0, 64, 71
2,216195, Control_c, 0, 64, 71
2,216310, Control_c, 0, 64, 71
2,216464, Control_c, 0, 64, 70
2,216483, Control_c, 0, 64, 70
2,216503, Control_c, 0, 64, 68
2,216519, Note_on_c, 0, 68, 0
2,216521, Control_c, 0, 64, 64
2,216541, Control_c, 0, 64, 57
2,216555, Note_on_c, 0, 70, 44
2,216560, Control_c, 0, 64, 48
2,216572, Note_on_c, 0, 58, 30
2,216579, Control_c, 0, 64, 44
2,216598, Control_c, 0, 64, 44
2,216618, Control_c, 0, 64, 44
2,216637, Control_c, 0, 64, 45
2,216643, Note_on_c, 0, 59, 0
2,216656, Control_c, 0, 64, 46
2,216674, Note_on_c, 0, 70, 0
2,216675, Control_c, 0, 64, 47
2,216695, Control_c, 0, 64, 49
2,216713, Control_c, 0, 64, 50
2,216732, Control_c, 0, 64, 51
2,216733, Note_on_c, 0, 71, 45
2,216752, Control_c, 0, 64, 51
2,216771, Control_c, 0, 64, 52
2,216790, Control_c, 0, 64, 52
2,216887, Note_on_c, 0, 71, 0
2,216923, Note_on_c, 0, 75, 0
2,216936, Note_on_c, 0, 77, 42
2,216945, Note_on_c, 0, 73, 37
2,217059, Control_c, 0, 64, 52
2,217078, Control_c, 0, 64, 51
2,217117, Control_c, 0, 64, 51
2,217136, Control_c, 0, 64, 50
2,217232, Control_c, 0, 64, 50
2,217251, Control_c, 0, 64, 49
2,217270, Control_c, 0, 64, 48
2,217289, Control_c, 0, 64, 48
2,217309, Control_c, 0, 64, 47
2,217310, Note_on_c, 0, 77, 0
2,217328, Control_c, 0, 64, 46
2,217345, Note_on_c, 0, 79, 42
2,217424, Control_c, 0, 64, 47
2,217443, Control_c, 0, 64, 48
2,217463, Control_c, 0, 64, 52
2,217481, Control_c, 0, 64, 55
2,217501, Control_c, 0, 64, 59
2,217520, Control_c, 0, 64, 61
2,217539, Control_c, 0, 64, 63
2,217558, Control_c, 0, 64, 64
2,217578, Control_c, 0, 64, 65
2,217597, Control_c, 0, 64, 66
2,217616, Control_c, 0, 64, 67
2,217635, Control_c, 0, 64, 67
2,217655, Control_c, 0, 64, 68
2,217673, Control_c, 0, 64, 69
2,217692, Control_c, 0, 64, 70
2,217712, Control_c, 0, 64, 71
2,217725, Note_on_c, 0, 73, 0
2,217731, Control_c, 0, 64, 72
2,217750, Control_c, 0, 64, 72
2,217757, Note_on_c, 0, 67, 0
2,217764, Note_on_c, 0, 71, 27
2,217789, Control_c, 0, 64, 73
2,217849, Note_on_c, 0, 71, 0
2,217973, Note_on_c, 0, 79, 0
2,217988, Note_on_c, 0, 58, 0
2,218037, Control_c, 0, 64, 72
2,218114, Control_c, 0, 64, 72
2,218153, Control_c, 0, 64, 71
2,218171, Control_c, 0, 64, 70
2,218181, Note_on_c, 0, 80, 40
2,218191, Control_c, 0, 64, 67
2,218210, Control_c, 0, 64, 62
2,218212, Note_on_c, 0, 71, 21
2,218228, Note_on_c, 0, 56, 29
2,218229, Control_c, 0, 64, 51
2,218248, Control_c, 0, 64, 42
2,218268, Control_c, 0, 64, 37
2,218287, Control_c, 0, 64, 37
2,218306, Control_c, 0, 64, 44
2,218325, Control_c, 0, 64, 53
2,218345, Control_c, 0, 64, 60
2,218363, Control_c, 0, 64, 63
2,218383, Control_c, 0, 64, 64
2,218402, Control_c, 0, 64, 65
2,218422, Control_c, 0, 64, 66
2,218440, Control_c, 0, 64, 68
2,218460, Control_c, 0, 64, 69
2,218479, Control_c, 0, 64, 71
2,218498, Control_c, 0, 64, 71
2,218517, Control_c, 0, 64, 72
2,218547, Note_on_c, 0, 80, 0
2,218556, Control_c, 0, 64, 73
2,218594, Control_c, 0, 64, 73
2,218601, Note_on_c, 0, 82, 39
2,218633, Control_c, 0, 64, 74
2,218709, Control_c, 0, 64, 73
2,218920, Control_c, 0, 64, 73
2,218978, Control_c, 0, 64, 72
2,218997, Control_c, 0, 64, 70
2,219010, Note_on_c, 0, 80, 44
2,219013, Note_on_c, 0, 61, 32
2,219017, Control_c, 0, 64, 64
2,219036, Control_c, 0, 64, 55
2,219054, Control_c, 0, 64, 46
2,219059, Note_on_c, 0, 82, 0
2,219074, Control_c, 0, 64, 44
2,219093, Control_c, 0, 64, 45
2,219113, Control_c, 0, 64, 51
2,219131, Control_c, 0, 64, 58
2,219151, Control_c, 0, 64, 62
2,219170, Control_c, 0, 64, 64
2,219189, Control_c, 0, 64, 66
2,219208, Control_c, 0, 64, 67
2,219228, Control_c, 0, 64, 69
2,219247, Control_c, 0, 64, 71
2,219266, Control_c, 0, 64, 72
2,219285, Control_c, 0, 64, 72
2,219377, Note_on_c, 0, 56, 0
2,219382, Control_c, 0, 64, 73
2,219400, Control_c, 0, 64, 73
2,219413, Note_on_c, 0, 78, 39
2,219420, Control_c, 0, 64, 74
2,219439, Control_c, 0, 64, 74
2,219467, Note_on_c, 0, 80, 0
2,219497, Control_c, 0, 64, 74
2,219498, Note_on_c, 0, 71, 0
2,219708, Control_c, 0, 64, 73
2,219862, Control_c, 0, 64, 73
2,219874, Note_on_c, 0, 77, 38
2,219875, Note_on_c, 0, 68, 51
2,219880, Control_c, 0, 64, 69
2,219888, Note_on_c, 0, 78, 0
2,219900, Control_c, 0, 64, 63
2,219920, Control_c, 0, 64, 52
2,219939, Control_c, 0, 64, 35
2,219945, Note_on_c, 0, 61, 0
2,219958, Control_c, 0, 64, 20
2,219978, Control_c, 0, 64, 0
2,220016, Control_c, 0, 64, 17
2,220035, Control_c, 0, 64, 36
2,220054, Control_c, 0, 64, 51
2,220073, Control_c, 0, 64, 60
2,220092, Control_c, 0, 64, 62
2,220112, Control_c, 0, 64, 63
2,220131, Control_c, 0, 64, 64
2,220150, Control_c, 0, 64, 65
2,220169, Control_c, 0, 64, 66
2,220189, Control_c, 0, 64, 67
2,220208, Control_c, 0, 64, 69
2,220227, Control_c, 0, 64, 71
2,220246, Control_c, 0, 64, 72
2,220266, Control_c, 0, 64, 73
2,220284, Control_c, 0, 64, 73
2,220324, Note_on_c, 0, 78, 33
2,220343, Control_c, 0, 64, 74
2,220354, Note_on_c, 0, 63, 23
2,220361, Control_c, 0, 64, 74
2,220376, Note_on_c, 0, 77, 0
2,220381, Control_c, 0, 64, 75
2,220438, Control_c, 0, 64, 75
2,220458, Control_c, 0, 64, 76
2,220496, Control_c, 0, 64, 76
2,220711, Note_on_c, 0, 80, 48
2,220717, Note_on_c, 0, 68, 0
2,220748, Note_on_c, 0, 61, 24
2,220754, Note_on_c, 0, 78, 0
2,220812, Note_on_c, 0, 63, 0
2,220823, Control_c, 0, 64, 77
2,220861, Control_c, 0, 64, 77
2,220898, Control_c, 0, 64, 78
2,220917, Control_c, 0, 64, 78
2,221140, Note_on_c, 0, 59, 31
2,221176, Note_on_c, 0, 61, 0
2,221186, Control_c, 0, 64, 78
2,221378, Control_c, 0, 64, 77
2,221474, Control_c, 0, 64, 77
2,221513, Control_c, 0, 64, 76
2,221530, Note_on_c, 0, 73, 57
2,221531, Control_c, 0, 64, 74
2,221551, Control_c, 0, 64, 68
2,221570, Control_c, 0, 64, 61
2,221588, Note_on_c, 0, 59, 0
2,221589, Control_c, 0, 64, 49
2,221594, Note_on_c, 0, 80, 0
2,221601, Note_on_c, 0, 58, 35
2,221608, Control_c, 0, 64, 44
2,221628, Control_c, 0, 64, 40
2,221647, Control_c, 0, 64, 40
2,221666, Control_c, 0, 64, 42
2,221685, Control_c, 0, 64, 46
2,221705, Control_c, 0, 64, 52
2,221723, Control_c, 0, 64, 58
2,221743, Control_c, 0, 64, 61
2,221762, Control_c, 0, 64, 62
2,221782, Control_c, 0, 64, 63
2,221800, Control_c, 0, 64, 64
2,221820, Control_c, 0, 64, 65
2,221839, Control_c, 0, 64, 66
2,221858, Control_c, 0, 64, 66
2,221877, Control_c, 0, 64, 67
2,221897, Control_c, 0, 64, 67
2,221916, Control_c, 0, 64, 68
2,221934, Control_c, 0, 64, 69
2,221954, Control_c, 0, 64, 69
2,221961, Note_on_c, 0, 78, 38
2,221970, Note_on_c, 0, 58, 0
2,221973, Note_on_c, 0, 59, 31
2,222185, Control_c, 0, 64, 69
2,222242, Control_c, 0, 64, 68
2,222338, Control_c, 0, 64, 68
2,222376, Note_on_c, 0, 78, 0
2,222377, Control_c, 0, 64, 66
2,222377, Note_on_c, 0, 77, 34
2,222396, Control_c, 0, 64, 64
2,222396, Note_on_c, 0, 61, 32
2,222414, Control_c, 0, 64, 57
2,222425, Note_on_c, 0, 59, 0
2,222434, Control_c, 0, 64, 48
2,222453, Control_c, 0, 64, 41
2,222473, Control_c, 0, 64, 39
2,222491, Control_c, 0, 64, 40
2,222511, Control_c, 0, 64, 46
2,222530, Control_c, 0, 64, 55
2,222549, Control_c, 0, 64, 61
2,222568, Control_c, 0, 64, 63
2,222588, Control_c, 0, 64, 64
2,222607, Control_c, 0, 64, 65
2,222626, Control_c, 0, 64, 65
2,222645, Control_c, 0, 64, 66
2,222665, Control_c, 0, 64, 67
2,222683, Control_c, 0, 64, 68
2,222703, Control_c, 0, 64, 68
2,222721, Note_on_c, 0, 77, 0
2,222722, Control_c, 0, 64, 69
2,222742, Control_c, 0, 64, 69
2,222780, Control_c, 0, 64, 70
2,222786, Note_on_c, 0, 78, 39
2,222818, Control_c, 0, 64, 70
2,222894, Note_on_c, 0, 78, 0
2,222951, Note_on_c, 0, 80, 41
2,223048, Control_c, 0, 64, 70
2,223126, Note_on_c, 0, 80, 0
2,223163, Control_c, 0, 64, 69
2,223166, Note_on_c, 0, 54, 22
2,223167, Note_on_c, 0, 82, 44
2,223181, Note_on_c, 0, 61, 0
2,223183, Control_c, 0, 64, 66
2,223202, Control_c, 0, 64, 61
2,223222, Control_c, 0, 64, 54
2,223240, Control_c, 0, 64, 50
2,223279, Control_c, 0, 64, 52
2,223298, Control_c, 0, 64, 56
2,223306, Note_on_c, 0, 82, 0
2,223317, Control_c, 0, 64, 60
2,223337, Control_c, 0, 64, 62
2,223348, Note_on_c, 0, 80, 37
2,223356, Control_c, 0, 64, 64
2,223374, Control_c, 0, 64, 65
2,223394, Control_c, 0, 64, 66
2,223413, Control_c, 0, 64, 67
2,223433, Control_c, 0, 64, 68
2,223451, Control_c, 0, 64, 68
2,223471, Control_c, 0, 64, 69
2,223509, Control_c, 0, 64, 70
2,223517, Note_on_c, 0, 80, 0
2,223551, Note_on_c, 0, 82, 46
2,223567, Control_c, 0, 64, 71
2,223586, Control_c, 0, 64, 72
2,223605, Control_c, 0, 64, 73
2,223625, Control_c, 0, 64, 73
2,223643, Control_c, 0, 64, 74
2,223931, Control_c, 0, 64, 73
2,223938, Note_on_c, 0, 75, 55
2,223939, Note_on_c, 0, 59, 35
2,223951, Control_c, 0, 64, 70
2,223970, Control_c, 0, 64, 64
2,223978, Note_on_c, 0, 54, 0
2,223989, Control_c, 0, 64, 57
2,224008, Control_c, 0, 64, 53
2,224020, Note_on_c, 0, 73, 0
2,224028, Control_c, 0, 64, 53
2,224047, Control_c, 0, 64, 55
2,224061, Note_on_c, 0, 82, 0
2,224066, Control_c, 0, 64, 59
2,224085, Control_c, 0, 64, 62
2,224105, Control_c, 0, 64, 64
2,224123, Control_c, 0, 64, 66
2,224143, Control_c, 0, 64, 67
2,224162, Control_c, 0, 64, 69
2,224182, Control_c, 0, 64, 70
2,224200, Control_c, 0, 64, 72
2,224220, Control_c, 0, 64, 73
2,224239, Control_c, 0, 64, 73
2,224316, Control_c, 0, 64, 74
2,224330, Note_on_c, 0, 75, 0
2,224354, Control_c, 0, 64, 74
2,224358, Note_on_c, 0, 80, 37
2,224373, Control_c, 0, 64, 75
2,224393, Control_c, 0, 64, 75
2,224411, Control_c, 0, 64, 76
2,224498, Note_on_c, 0, 78, 41
2,224585, Control_c, 0, 64, 76
2,224623, Control_c, 0, 64, 77
2,224680, Control_c, 0, 64, 76
2,224700, Control_c, 0, 64, 74
2,224720, Control_c, 0, 64, 68
2,224727, Note_on_c, 0, 73, 60
2,224739, Control_c, 0, 64, 62
2,224739, Note_on_c, 0, 78, 0
2,224747, Note_on_c, 0, 80, 0
2,224756, Note_on_c, 0, 77, 54
2,224758, Control_c, 0, 64, 54
2,224778, Control_c, 0, 64, 53
2,224797, Control_c, 0, 64, 54
2,224815, Control_c, 0, 64, 58
2,224835, Control_c, 0, 64, 61
2,224854, Control_c, 0, 64, 63
2,224873, Control_c, 0, 64, 65
2,224892, Control_c, 0, 64, 67
2,224912, Control_c, 0, 64, 68
2,224923, Note_on_c, 0, 77, 0
2,224931, Control_c, 0, 64, 69
2,224950, Control_c, 0, 64, 70
2,224969, Control_c, 0, 64, 71
2,224989, Control_c, 0, 64, 72
2,225008, Control_c, 0, 64, 72
2,225066, Control_c, 0, 64, 73
2,225121, Note_on_c, 0, 78, 46
2,225123, Control_c, 0, 64, 73
2,225133, Note_on_c, 0, 58, 26
2,225143, Note_on_c, 0, 59, 0
2,225161, Control_c, 0, 64, 74
2,225392, Control_c, 0, 64, 73
2,225449, Control_c, 0, 64, 73
2,225488, Control_c, 0, 64, 72
2,225507, Control_c, 0, 64, 71
2,225526, Control_c, 0, 64, 66
2,225529, Note_on_c, 0, 71, 48
2,225546, Control_c, 0, 64, 59
2,225547, Note_on_c, 0, 73, 0
2,225564, Control_c, 0, 64, 46
2,225579, Note_on_c, 0, 56, 28
2,225584, Control_c, 0, 64, 34
2,225603, Control_c, 0, 64, 28
2,225608, Note_on_c, 0, 58, 0
2,225620, Note_on_c, 0, 78, 0
2,225641, Control_c, 0, 64, 32
2,225661, Control_c, 0, 64, 41
2,225678, Control_c, 0, 64, 51
2,225698, Control_c, 0, 64, 58
2,225716, Control_c, 0, 64, 62
2,225735, Control_c, 0, 64, 63
2,225755, Control_c, 0, 64, 64
2,225773, Control_c, 0, 64, 65
2,225793, Control_c, 0, 64, 66
2,225812, Control_c, 0, 64, 67
2,225832, Control_c, 0, 64, 68
2,225850, Control_c, 0, 64, 68
2,225870, Control_c, 0, 64, 69
2,225889, Control_c, 0, 64, 69
2,225908, Control_c, 0, 64, 70
2,225919, Note_on_c, 0, 77, 39
2,225927, Control_c, 0, 64, 71
2,225947, Control_c, 0, 64, 71
2,225966, Control_c, 0, 64, 72
2,226253, Control_c, 0, 64, 72
2,226292, Control_c, 0, 64, 71
2,226312, Control_c, 0, 64, 69
2,226312, Note_on_c, 0, 71, 0
2,226330, Control_c, 0, 64, 63
2,226341, Note_on_c, 0, 70, 50
2,226350, Control_c, 0, 64, 55
2,226350, Note_on_c, 0, 54, 25
2,226351, Note_on_c, 0, 77, 0
2,226360, Note_on_c, 0, 78, 38
2,226369, Control_c, 0, 64, 45
2,226388, Control_c, 0, 64, 40
2,226401, Note_on_c, 0, 56, 0
2,226407, Control_c, 0, 64, 39
2,226427, Control_c, 0, 64, 44
2,226446, Control_c, 0, 64, 53
2,226465, Control_c, 0, 64, 60
2,226484, Control_c, 0, 64, 63
2,226504, Control_c, 0, 64, 65
2,226523, Control_c, 0, 64, 66
2,226542, Control_c, 0, 64, 67
2,226561, Control_c, 0, 64, 69
2,226581, Control_c, 0, 64, 71
2,226599, Control_c, 0, 64, 72
2,226619, Control_c, 0, 64, 72
2,226668, Note_on_c, 0, 54, 0
2,226716, Control_c, 0, 64, 73
2,226725, Note_on_c, 0, 52, 33
2,226732, Note_on_c, 0, 73, 48
2,226734, Control_c, 0, 64, 74
2,226754, Control_c, 0, 64, 74
2,226759, Note_on_c, 0, 78, 0
2,226770, Note_on_c, 0, 70, 0
2,226811, Control_c, 0, 64, 74
2,226869, Control_c, 0, 64, 73
2,226985, Control_c, 0, 64, 73
2,227003, Control_c, 0, 64, 72
2,227042, Control_c, 0, 64, 72
2,227062, Control_c, 0, 64, 71
2,227080, Control_c, 0, 64, 71
2,227100, Control_c, 0, 64, 68
2,227119, Control_c, 0, 64, 64
2,227126, Note_on_c, 0, 52, 0
2,227127, Note_on_c, 0, 73, 0
2,227137, Note_on_c, 0, 71, 53
2,227139, Control_c, 0, 64, 55
2,227157, Control_c, 0, 64, 46
2,227162, Note_on_c, 0, 78, 40
2,227165, Note_on_c, 0, 51, 30
2,227177, Control_c, 0, 64, 39
2,227196, Control_c, 0, 64, 37
2,227214, Control_c, 0, 64, 37
2,227234, Control_c, 0, 64, 44
2,227253, Control_c, 0, 64, 53
2,227273, Control_c, 0, 64, 60
2,227274, Note_on_c, 0, 51, 0
2,227291, Control_c, 0, 64, 63
2,227311, Control_c, 0, 64, 64
2,227330, Control_c, 0, 64, 65
2,227335, Note_on_c, 0, 49, 44
2,227349, Control_c, 0, 64, 66
2,227368, Control_c, 0, 64, 67
2,227388, Control_c, 0, 64, 68
2,227407, Control_c, 0, 64, 69
2,227445, Control_c, 0, 64, 70
2,227453, Note_on_c, 0, 49, 0
2,227513, Note_on_c, 0, 51, 27
2,227524, Control_c, 0, 64, 70
2,227582, Control_c, 0, 64, 71
2,227600, Note_on_c, 0, 51, 0
2,227638, Control_c, 0, 64, 70
2,227675, Note_on_c, 0, 52, 36
2,227772, Control_c, 0, 64, 70
2,227811, Control_c, 0, 64, 69
2,227830, Control_c, 0, 64, 68
2,227849, Control_c, 0, 64, 67
2,227869, Control_c, 0, 64, 66
2,227888, Control_c, 0, 64, 65
2,227907, Control_c, 0, 64, 63
2,227912, Note_on_c, 0, 73, 59
2,227926, Control_c, 0, 64, 62
2,227930, Note_on_c, 0, 46, 36
2,227930, Note_on_c, 0, 52, 0
2,227946, Control_c, 0, 64, 61
2,227956, Note_on_c, 0, 71, 0
2,227964, Control_c, 0, 64, 60
2,227983, Note_on_c, 0, 78, 0
2,227984, Control_c, 0, 64, 59
2,228003, Control_c, 0, 64, 58
2,228023, Control_c, 0, 64, 56
2,228041, Control_c, 0, 64, 55
2,228061, Control_c, 0, 64, 54
2,228138, Control_c, 0, 64, 55
2,228195, Control_c, 0, 64, 55
2,228214, Control_c, 0, 64, 56
2,228326, Note_on_c, 0, 42, 28
2,228329, Control_c, 0, 64, 56
2,228339, Note_on_c, 0, 80, 49
2,228340, Note_on_c, 0, 46, 0
2,228467, Control_c, 0, 64, 56
2,228674, Control_c, 0, 64, 57
2,228693, Control_c, 0, 64, 58
2,228713, Control_c, 0, 64, 60
2,228727, Note_on_c, 0, 78, 44
2,228731, Control_c, 0, 64, 61
2,228740, Note_on_c, 0, 80, 0
2,228751, Control_c, 0, 64, 63
2,228751, Note_on_c, 0, 44, 35
2,228770, Control_c, 0, 64, 64
2,228789, Control_c, 0, 64, 64
2,228828, Control_c, 0, 64, 65
2,228865, Note_on_c, 0, 42, 0
2,228905, Control_c, 0, 64, 65
2,228962, Control_c, 0, 64, 66
2,229020, Control_c, 0, 64, 66
2,229059, Control_c, 0, 64, 67
2,229092, Note_on_c, 0, 76, 48
2,229098, Note_on_c, 0, 78, 0
2,229138, Note_on_c, 0, 46, 28
2,229148, Note_on_c, 0, 44, 0
2,229154, Control_c, 0, 64, 67
2,229288, Control_c, 0, 64, 67
2,229519, Control_c, 0, 64, 66
2,229522, Note_on_c, 0, 66, 54
2,229527, Note_on_c, 0, 46, 0
2,229527, Note_on_c, 0, 73, 0
2,229539, Control_c, 0, 64, 66
2,229553, Note_on_c, 0, 76, 0
2,229554, Note_on_c, 0, 47, 35
2,229557, Control_c, 0, 64, 64
2,229576, Control_c, 0, 64, 61
2,229596, Control_c, 0, 64, 55
2,229598, Note_on_c, 0, 75, 35
2,229614, Control_c, 0, 64, 47
2,229634, Control_c, 0, 64, 39
2,229653, Control_c, 0, 64, 34
2,229673, Control_c, 0, 64, 33
2,229711, Control_c, 0, 64, 37
2,229730, Control_c, 0, 64, 43
2,229749, Control_c, 0, 64, 48
2,229768, Control_c, 0, 64, 52
2,229788, Control_c, 0, 64, 55
2,229807, Control_c, 0, 64, 57
2,229826, Control_c, 0, 64, 59
2,229845, Control_c, 0, 64, 61
2,229865, Control_c, 0, 64, 61
2,229883, Control_c, 0, 64, 62
2,229902, Note_on_c, 0, 76, 47
2,229911, Note_on_c, 0, 49, 40
2,229922, Control_c, 0, 64, 62
2,229926, Note_on_c, 0, 47, 0
2,229942, Control_c, 0, 64, 63
2,229945, Note_on_c, 0, 75, 0
2,229960, Control_c, 0, 64, 63
2,229980, Control_c, 0, 64, 64
2,230019, Control_c, 0, 64, 64
2,230094, Control_c, 0, 64, 65
2,230171, Control_c, 0, 64, 65
2,230317, Note_on_c, 0, 78, 51
2,230321, Note_on_c, 0, 51, 34
2,230331, Note_on_c, 0, 49, 0
2,230334, Note_on_c, 0, 76, 0
2,230345, Control_c, 0, 64, 65
2,230363, Control_c, 0, 64, 62
2,230383, Control_c, 0, 64, 59
2,230402, Control_c, 0, 64, 54
2,230422, Control_c, 0, 64, 53
2,230440, Control_c, 0, 64, 54
2,230460, Control_c, 0, 64, 56
2,230479, Control_c, 0, 64, 58
2,230499, Control_c, 0, 64, 61
2,230517, Control_c, 0, 64, 62
2,230536, Control_c, 0, 64, 64
2,230556, Control_c, 0, 64, 64
2,230574, Control_c, 0, 64, 65
2,230594, Control_c, 0, 64, 66
2,230613, Control_c, 0, 64, 66
2,230670, Note_on_c, 0, 51, 0
2,230706, Note_on_c, 0, 52, 39
2,230728, Control_c, 0, 64, 67
2,230858, Note_on_c, 0, 52, 0
2,230875, Note_on_c, 0, 54, 49
2,230920, Control_c, 0, 64, 66
2,231074, Control_c, 0, 64, 66
2,231093, Control_c, 0, 64, 64
2,231098, Note_on_c, 0, 71, 60
2,231104, Note_on_c, 0, 54, 0
2,231113, Control_c, 0, 64, 62
2,231127, Note_on_c, 0, 56, 43
2,231131, Control_c, 0, 64, 56
2,231148, Note_on_c, 0, 66, 0
2,231148, Note_on_c, 0, 78, 0
2,231151, Control_c, 0, 64, 46
2,231170, Control_c, 0, 64, 32
2,231189, Control_c, 0, 64, 9
2,231208, Control_c, 0, 64, 0
2,231266, Control_c, 0, 64, 31
2,231285, Control_c, 0, 64, 49
2,231305, Control_c, 0, 64, 59
2,231323, Control_c, 0, 64, 62
2,231346, Control_c, 0, 64, 64
2,231365, Control_c, 0, 64, 64
2,231384, Control_c, 0, 64, 65
2,231403, Control_c, 0, 64, 66
2,231423, Control_c, 0, 64, 67
2,231437, Note_on_c, 0, 56, 0
2,231439, Control_c, 0, 64, 67
2,231477, Control_c, 0, 64, 68
2,231483, Note_on_c, 0, 58, 33
2,231554, Control_c, 0, 64, 68
2,231580, Note_on_c, 0, 58, 0
2,231651, Note_on_c, 0, 59, 37
2,231842, Control_c, 0, 64, 68
2,231862, Control_c, 0, 64, 67
2,231880, Control_c, 0, 64, 65
2,231885, Note_on_c, 0, 76, 45
2,231890, Note_on_c, 0, 59, 0
2,231900, Control_c, 0, 64, 60
2,231919, Control_c, 0, 64, 48
2,231930, Note_on_c, 0, 49, 38
2,231939, Control_c, 0, 64, 38
2,231957, Control_c, 0, 64, 30
2,231976, Control_c, 0, 64, 27
2,232034, Control_c, 0, 64, 30
2,232053, Control_c, 0, 64, 37
2,232073, Control_c, 0, 64, 44
2,232091, Control_c, 0, 64, 51
2,232111, Control_c, 0, 64, 56
2,232130, Control_c, 0, 64, 58
2,232168, Control_c, 0, 64, 57
2,232267, Note_on_c, 0, 49, 0
2,232287, Note_on_c, 0, 51, 31
2,232459, Note_on_c, 0, 51, 0
2,232506, Note_on_c, 0, 52, 28
2,232533, Control_c, 0, 64, 57
2,232718, Note_on_c, 0, 42, 34
2,232719, Note_on_c, 0, 52, 0
2,232725, Control_c, 0, 64, 57
2,232745, Control_c, 0, 64, 58
2,232763, Control_c, 0, 64, 59
2,232783, Control_c, 0, 64, 60
2,232802, Control_c, 0, 64, 61
2,232822, Control_c, 0, 64, 62
2,232840, Control_c, 0, 64, 62
2,232860, Control_c, 0, 64, 63
2,232879, Control_c, 0, 64, 64
2,232899, Control_c, 0, 64, 64
2,232917, Control_c, 0, 64, 65
2,232936, Control_c, 0, 64, 65
2,232956, Control_c, 0, 64, 66
2,232974, Control_c, 0, 64, 67
2,232994, Control_c, 0, 64, 68
2,233013, Control_c, 0, 64, 68
2,233051, Control_c, 0, 64, 69
2,233071, Control_c, 0, 64, 69
2,233109, Control_c, 0, 64, 70
2,233128, Control_c, 0, 64, 70
2,233190, Note_on_c, 0, 75, 38
2,233200, Note_on_c, 0, 54, 22
2,233205, Control_c, 0, 64, 71
2,233215, Note_on_c, 0, 42, 0
2,233238, Note_on_c, 0, 71, 0
2,233339, Control_c, 0, 64, 70
2,233396, Control_c, 0, 64, 70
2,233453, Control_c, 0, 64, 69
2,233473, Control_c, 0, 64, 69
2,233512, Control_c, 0, 64, 68
2,233530, Control_c, 0, 64, 68
2,233545, Note_on_c, 0, 76, 0
2,233550, Control_c, 0, 64, 66
2,233569, Control_c, 0, 64, 62
2,233588, Control_c, 0, 64, 56
2,233590, Note_on_c, 0, 73, 44
2,233593, Note_on_c, 0, 70, 38
2,233607, Control_c, 0, 64, 48
2,233627, Control_c, 0, 64, 42
2,233646, Control_c, 0, 64, 41
2,233669, Note_on_c, 0, 75, 0
2,233684, Control_c, 0, 64, 46
2,233704, Control_c, 0, 64, 55
2,233723, Control_c, 0, 64, 61
2,233742, Control_c, 0, 64, 63
2,233761, Control_c, 0, 64, 64
2,233781, Control_c, 0, 64, 65
2,233799, Control_c, 0, 64, 66
2,233819, Control_c, 0, 64, 67
2,233838, Control_c, 0, 64, 68
2,233876, Control_c, 0, 64, 69
2,233911, Note_on_c, 0, 70, 0
2,233934, Note_on_c, 0, 54, 0
2,234008, Note_on_c, 0, 55, 31
2,234010, Control_c, 0, 64, 68
2,234049, Control_c, 0, 64, 68
2,234087, Control_c, 0, 64, 67
2,234145, Control_c, 0, 64, 67
2,234203, Control_c, 0, 64, 66
2,234242, Control_c, 0, 64, 66
2,234280, Control_c, 0, 64, 65
2,234300, Control_c, 0, 64, 65
2,234319, Control_c, 0, 64, 64
2,234339, Control_c, 0, 64, 64
2,234357, Control_c, 0, 64, 62
2,234371, Note_on_c, 0, 71, 45
2,234376, Control_c, 0, 64, 60
2,234394, Note_on_c, 0, 56, 23
2,234395, Note_on_c, 0, 68, 33
2,234396, Control_c, 0, 64, 54
2,234414, Control_c, 0, 64, 49
2,234430, Note_on_c, 0, 55, 0
2,234434, Control_c, 0, 64, 44
2,234444, Note_on_c, 0, 73, 0
2,234453, Control_c, 0, 64, 42
2,234473, Control_c, 0, 64, 42
2,234530, Control_c, 0, 64, 45
2,234549, Control_c, 0, 64, 48
2,234568, Control_c, 0, 64, 50
2,234588, Control_c, 0, 64, 52
2,234607, Control_c, 0, 64, 52
2,234626, Control_c, 0, 64, 53
2,234645, Control_c, 0, 64, 53
2,234665, Control_c, 0, 64, 54
2,234703, Control_c, 0, 64, 54
2,234722, Control_c, 0, 64, 55
2,234799, Control_c, 0, 64, 55
2,234817, Note_on_c, 0, 55, 35
2,234837, Note_on_c, 0, 56, 0
2,234971, Control_c, 0, 64, 56
2,235125, Control_c, 0, 64, 55
2,235145, Control_c, 0, 64, 55
2,235163, Control_c, 0, 64, 53
2,235179, Note_on_c, 0, 76, 58
2,235183, Control_c, 0, 64, 51
2,235202, Control_c, 0, 64, 48
2,235213, Note_on_c, 0, 55, 0
2,235213, Note_on_c, 0, 56, 37
2,235222, Control_c, 0, 64, 46
2,235240, Control_c, 0, 64, 45
2,235260, Control_c, 0, 64, 44
2,235317, Control_c, 0, 64, 45
2,235336, Control_c, 0, 64, 47
2,235356, Control_c, 0, 64, 50
2,235374, Control_c, 0, 64, 52
2,235394, Control_c, 0, 64, 54
2,235413, Control_c, 0, 64, 56
2,235433, Control_c, 0, 64, 58
2,235451, Control_c, 0, 64, 60
2,235471, Control_c, 0, 64, 61
2,235490, Control_c, 0, 64, 62
2,235509, Control_c, 0, 64, 62
2,235528, Control_c, 0, 64, 63
2,235548, Control_c, 0, 64, 64
2,235567, Control_c, 0, 64, 65
2,235586, Control_c, 0, 64, 65
2,235605, Control_c, 0, 64, 66
2,235612, Note_on_c, 0, 58, 31
2,235644, Note_on_c, 0, 68, 0
2,235666, Note_on_c, 0, 56, 0
2,235931, Control_c, 0, 64, 65
2,235951, Control_c, 0, 64, 64
2,235970, Control_c, 0, 64, 61
2,235974, Note_on_c, 0, 66, 54
2,235988, Note_on_c, 0, 71, 0
2,235989, Control_c, 0, 64, 54
2,236008, Control_c, 0, 64, 46
2,236013, Note_on_c, 0, 59, 32
2,236028, Control_c, 0, 64, 43
2,236035, Note_on_c, 0, 58, 0
2,236047, Control_c, 0, 64, 43
2,236066, Control_c, 0, 64, 47
2,236085, Control_c, 0, 64, 53
2,236105, Control_c, 0, 64, 59
2,236123, Control_c, 0, 64, 61
2,236143, Control_c, 0, 64, 63
2,236159, Control_c, 0, 64, 64
2,236179, Control_c, 0, 64, 64
2,236198, Control_c, 0, 64, 65
2,236216, Control_c, 0, 64, 66
2,236236, Control_c, 0, 64, 66
2,236293, Control_c, 0, 64, 67
2,236313, Control_c, 0, 64, 67
2,236332, Control_c, 0, 64, 68
2,236351, Control_c, 0, 64, 68
2,236353, Note_on_c, 0, 76, 0
2,236363, Note_on_c, 0, 66, 0
2,236370, Control_c, 0, 64, 69
2,236385, Note_on_c, 0, 74, 50
2,236390, Control_c, 0, 64, 69
2,236396, Note_on_c, 0, 58, 38
2,236408, Control_c, 0, 64, 70
2,236420, Note_on_c, 0, 59, 0
2,236524, Control_c, 0, 64, 69
2,236620, Control_c, 0, 64, 69
2,236659, Control_c, 0, 64, 68
2,236696, Control_c, 0, 64, 68
2,236735, Control_c, 0, 64, 67
2,236754, Control_c, 0, 64, 64
2,236773, Control_c, 0, 64, 59
2,236793, Control_c, 0, 64, 49
2,236795, Note_on_c, 0, 71, 62
2,236799, Note_on_c, 0, 56, 37
2,236811, Note_on_c, 0, 75, 50
2,236812, Control_c, 0, 64, 39
2,236831, Control_c, 0, 64, 28
2,236844, Note_on_c, 0, 74, 0
2,236850, Control_c, 0, 64, 17
2,236866, Note_on_c, 0, 58, 0
2,236870, Control_c, 0, 64, 0
2,236947, Control_c, 0, 64, 13
2,236965, Control_c, 0, 64, 22
2,236985, Control_c, 0, 64, 32
2,237004, Control_c, 0, 64, 44
2,237024, Control_c, 0, 64, 51
2,237042, Control_c, 0, 64, 56
2,237062, Control_c, 0, 64, 58
2,237081, Control_c, 0, 64, 59
2,237107, Control_c, 0, 64, 61
2,237126, Control_c, 0, 64, 62
2,237145, Control_c, 0, 64, 63
2,237164, Control_c, 0, 64, 64
2,237184, Control_c, 0, 64, 64
2,237203, Control_c, 0, 64, 65
2,237217, Note_on_c, 0, 54, 39
2,237222, Control_c, 0, 64, 66
2,237225, Note_on_c, 0, 56, 0
2,237318, Control_c, 0, 64, 66
2,237413, Control_c, 0, 64, 67
2,237510, Control_c, 0, 64, 65
2,237529, Control_c, 0, 64, 61
2,237548, Control_c, 0, 64, 55
2,237567, Control_c, 0, 64, 51
2,237587, Control_c, 0, 64, 51
2,237590, Note_on_c, 0, 53, 52
2,237606, Control_c, 0, 64, 54
2,237614, Note_on_c, 0, 54, 0
2,237625, Control_c, 0, 64, 58
2,237644, Control_c, 0, 64, 61
2,237644, Note_on_c, 0, 75, 0
2,237664, Control_c, 0, 64, 63
2,237683, Control_c, 0, 64, 64
2,237721, Control_c, 0, 64, 64
2,237741, Control_c, 0, 64, 65
2,237779, Control_c, 0, 64, 65
2,237988, Note_on_c, 0, 54, 46
2,237990, Note_on_c, 0, 53, 0
2,237994, Note_on_c, 0, 75, 69
2,238009, Control_c, 0, 64, 66
2,238092, Note_on_c, 0, 71, 0
2,238351, Control_c, 0, 64, 65
2,238370, Control_c, 0, 64, 61
2,238382, Note_on_c, 0, 80, 68
2,238387, Note_on_c, 0, 73, 60
2,238389, Control_c, 0, 64, 51
2,238404, Note_on_c, 0, 53, 44
2,238405, Note_on_c, 0, 54, 0
2,238408, Control_c, 0, 64, 38
2,238428, Control_c, 0, 64, 28
2,238438, Note_on_c, 0, 75, 0
2,238447, Control_c, 0, 64, 27
2,238466, Control_c, 0, 64, 31
2,238485, Control_c, 0, 64, 44
2,238505, Control_c, 0, 64, 55
2,238523, Control_c, 0, 64, 60
2,238543, Control_c, 0, 64, 61
2,238562, Control_c, 0, 64, 62
2,238659, Control_c, 0, 64, 61
2,238754, Note_on_c, 0, 51, 42
2,238766, Note_on_c, 0, 53, 0
2,238772, Note_on_c, 0, 71, 64
2,238795, Note_on_c, 0, 73, 0
2,238811, Control_c, 0, 64, 61
2,238831, Control_c, 0, 64, 60
2,238850, Control_c, 0, 64, 60
2,238869, Control_c, 0, 64, 59
2,238888, Control_c, 0, 64, 58
2,238908, Control_c, 0, 64, 58
2,238927, Control_c, 0, 64, 57
2,238965, Control_c, 0, 64, 56
2,238985, Control_c, 0, 64, 56
2,239003, Control_c, 0, 64, 55
2,239023, Control_c, 0, 64, 55
2,239063, Control_c, 0, 64, 54
2,239081, Control_c, 0, 64, 53
2,239101, Control_c, 0, 64, 52
2,239120, Control_c, 0, 64, 48
2,239139, Control_c, 0, 64, 43
2,239158, Control_c, 0, 64, 39
2,239161, Note_on_c, 0, 70, 63
2,239171, Note_on_c, 0, 71, 0
2,239177, Control_c, 0, 64, 39
2,239197, Control_c, 0, 64, 43
2,239204, Note_on_c, 0, 50, 43
2,239206, Note_on_c, 0, 51, 0
2,239206, Note_on_c, 0, 80, 0
2,239215, Control_c, 0, 64, 51
2,239235, Control_c, 0, 64, 58
2,239254, Control_c, 0, 64, 62
2,239273, Control_c, 0, 64, 63
2,239292, Control_c, 0, 64, 63
2,239312, Control_c, 0, 64, 64
2,239331, Control_c, 0, 64, 65
2,239342, Note_on_c, 0, 50, 0
2,239350, Control_c, 0, 64, 67
2,239369, Control_c, 0, 64, 68
2,239389, Control_c, 0, 64, 68
2,239408, Control_c, 0, 64, 69
2,239542, Note_on_c, 0, 80, 62
2,239556, Note_on_c, 0, 70, 0
2,239563, Note_on_c, 0, 71, 63
2,239592, Note_on_c, 0, 62, 47
2,239600, Control_c, 0, 64, 68
2,239657, Control_c, 0, 64, 68
2,239683, Note_on_c, 0, 80, 0
2,239722, Note_on_c, 0, 62, 0
2,239736, Note_on_c, 0, 63, 61
2,239926, Control_c, 0, 64, 67
2,239946, Control_c, 0, 64, 64
2,239963, Note_on_c, 0, 73, 58
2,239963, Note_on_c, 0, 79, 64
2,239964, Control_c, 0, 64, 61
2,239986, Note_on_c, 0, 63, 0
2,239988, Control_c, 0, 64, 57
2,239995, Note_on_c, 0, 64, 57
2,240007, Control_c, 0, 64, 53
2,240026, Control_c, 0, 64, 50
2,240027, Note_on_c, 0, 71, 0
2,240118, Control_c, 0, 64, 51
2,240137, Control_c, 0, 64, 52
2,240157, Control_c, 0, 64, 52
2,240175, Control_c, 0, 64, 53
2,240195, Control_c, 0, 64, 53
2,240310, Control_c, 0, 64, 54
2,240354, Note_on_c, 0, 78, 61
2,240387, Control_c, 0, 64, 54
2,240393, Note_on_c, 0, 58, 51
2,240405, Note_on_c, 0, 79, 0
2,240407, Note_on_c, 0, 64, 0
2,240578, Control_c, 0, 64, 55
2,240754, Note_on_c, 0, 68, 67
2,240760, Note_on_c, 0, 59, 62
2,240793, Note_on_c, 0, 73, 0
2,240802, Note_on_c, 0, 58, 0
2,240810, Note_on_c, 0, 78, 0
2,240848, Control_c, 0, 64, 55
2,240906, Control_c, 0, 64, 56
2,240944, Control_c, 0, 64, 56
2,240982, Control_c, 0, 64, 57
2,241133, Note_on_c, 0, 78, 61
2,241141, Note_on_c, 0, 60, 59
2,241175, Note_on_c, 0, 59, 0
2,241287, Control_c, 0, 64, 56
2,241533, Note_on_c, 0, 77, 61
2,241543, Note_on_c, 0, 73, 54
2,241547, Note_on_c, 0, 60, 0
2,241550, Note_on_c, 0, 61, 61
2,241595, Control_c, 0, 64, 56
2,241623, Note_on_c, 0, 68, 0
2,241672, Control_c, 0, 64, 55
2,241703, Note_on_c, 0, 78, 0
2,241729, Control_c, 0, 64, 55
2,241883, Control_c, 0, 64, 54
2,241919, Note_on_c, 0, 76, 63
2,241921, Control_c, 0, 64, 54
2,241941, Control_c, 0, 64, 53
2,241944, Note_on_c, 0, 58, 62
2,241953, Note_on_c, 0, 77, 0
2,241978, Control_c, 0, 64, 53
2,242032, Note_on_c, 0, 61, 0
2,242037, Control_c, 0, 64, 52
2,242056, Control_c, 0, 64, 52
2,242094, Control_c, 0, 64, 51
2,242114, Control_c, 0, 64, 51
2,242171, Control_c, 0, 64, 50
2,242229, Control_c, 0, 64, 50
2,242248, Control_c, 0, 64, 49
2,242287, Control_c, 0, 64, 49
2,242342, Note_on_c, 0, 75, 58
2,242351, Note_on_c, 0, 55, 57
2,242357, Note_on_c, 0, 76, 0
2,242363, Control_c, 0, 64, 49
2,242422, Control_c, 0, 64, 50
2,242435, Note_on_c, 0, 58, 0
2,242440, Control_c, 0, 64, 50
2,242479, Control_c, 0, 64, 51
2,242498, Control_c, 0, 64, 51
2,242509, Note_on_c, 0, 73, 0
2,242617, Note_on_c, 0, 55, 0
2,242709, Control_c, 0, 64, 51
2,242748, Control_c, 0, 64, 50
2,242772, Note_on_c, 0, 71, 58
2,242776, Note_on_c, 0, 56, 66
2,242882, Control_c, 0, 64, 50
2,242995, Control_c, 0, 64, 50
2,243034, Control_c, 0, 64, 51
2,243053, Control_c, 0, 64, 52
2,243072, Control_c, 0, 64, 53
2,243091, Control_c, 0, 64, 54
2,243111, Control_c, 0, 64, 54
2,243129, Control_c, 0, 64, 55
2,243149, Control_c, 0, 64, 55
2,243168, Control_c, 0, 64, 56
2,243188, Control_c, 0, 64, 57
2,243206, Control_c, 0, 64, 58
2,243226, Control_c, 0, 64, 59
2,243245, Control_c, 0, 64, 59
2,243260, Note_on_c, 0, 73, 52
2,243264, Control_c, 0, 64, 60
2,243267, Note_on_c, 0, 70, 49
2,243283, Control_c, 0, 64, 61
2,243303, Control_c, 0, 64, 61
2,243322, Control_c, 0, 64, 62
2,243341, Control_c, 0, 64, 62
2,243351, Note_on_c, 0, 71, 0
2,243380, Note_on_c, 0, 75, 0
2,243417, Control_c, 0, 64, 63
2,243533, Control_c, 0, 64, 63
2,243591, Control_c, 0, 64, 64
2,243648, Control_c, 0, 64, 64
2,243686, Control_c, 0, 64, 65
2,243728, Note_on_c, 0, 55, 43
2,243744, Control_c, 0, 64, 65
2,243758, Note_on_c, 0, 56, 0
2,243956, Control_c, 0, 64, 65
2,244129, Control_c, 0, 64, 64
2,244167, Control_c, 0, 64, 64
2,244182, Note_on_c, 0, 71, 51
2,244187, Control_c, 0, 64, 62
2,244197, Note_on_c, 0, 56, 31
2,244204, Note_on_c, 0, 55, 0
2,244206, Control_c, 0, 64, 59
2,244225, Control_c, 0, 64, 56
2,244244, Control_c, 0, 64, 53
2,244257, Note_on_c, 0, 70, 0
2,244264, Control_c, 0, 64, 52
2,244283, Control_c, 0, 64, 51
2,244289, Note_on_c, 0, 73, 0
2,244359, Control_c, 0, 64, 52
2,244378, Control_c, 0, 64, 54
2,244398, Control_c, 0, 64, 55
2,244417, Control_c, 0, 64, 57
2,244436, Control_c, 0, 64, 60
2,244455, Control_c, 0, 64, 61
2,244475, Control_c, 0, 64, 61
2,244493, Control_c, 0, 64, 62
2,244513, Control_c, 0, 64, 62
2,244532, Control_c, 0, 64, 63
2,244552, Control_c, 0, 64, 63
2,244570, Control_c, 0, 64, 64
2,244590, Control_c, 0, 64, 64
2,244624, Note_on_c, 0, 63, 37
2,244629, Control_c, 0, 64, 65
2,244637, Note_on_c, 0, 54, 28
2,244667, Control_c, 0, 64, 65
2,244678, Note_on_c, 0, 56, 0
2,244686, Control_c, 0, 64, 66
2,244744, Control_c, 0, 64, 66
2,244782, Control_c, 0, 64, 67
2,244821, Control_c, 0, 64, 67
2,245002, Note_on_c, 0, 68, 61
2,245012, Control_c, 0, 64, 68
2,245013, Note_on_c, 0, 71, 0
2,245022, Note_on_c, 0, 52, 39
2,245024, Note_on_c, 0, 54, 0
2,245163, Note_on_c, 0, 63, 0
2,245386, Note_on_c, 0, 71, 68
2,245400, Note_on_c, 0, 51, 42
2,245408, Note_on_c, 0, 52, 0
2,245453, Control_c, 0, 64, 67
2,245478, Note_on_c, 0, 68, 0
2,245512, Control_c, 0, 64, 67
2,245589, Control_c, 0, 64, 66
2,245684, Control_c, 0, 64, 66
2,245761, Control_c, 0, 64, 65
2,245768, Note_on_c, 0, 49, 44
2,245776, Note_on_c, 0, 70, 67
2,245781, Control_c, 0, 64, 65
2,245785, Note_on_c, 0, 51, 0
2,245799, Control_c, 0, 64, 64
2,245818, Control_c, 0, 64, 63
2,245838, Control_c, 0, 64, 62
2,245857, Control_c, 0, 64, 61
2,245868, Note_on_c, 0, 71, 0
2,245876, Control_c, 0, 64, 60
2,245895, Control_c, 0, 64, 59
2,245915, Control_c, 0, 64, 57
2,245933, Control_c, 0, 64, 56
2,245972, Control_c, 0, 64, 56
2,246151, Note_on_c, 0, 68, 60
2,246158, Note_on_c, 0, 50, 48
2,246248, Note_on_c, 0, 49, 0
2,246395, Control_c, 0, 64, 55
2,246472, Control_c, 0, 64, 54
2,246490, Control_c, 0, 64, 53
2,246510, Control_c, 0, 64, 51
2,246551, Note_on_c, 0, 51, 59
2,246565, Note_on_c, 0, 66, 59
2,246567, Control_c, 0, 64, 52
2,246584, Note_on_c, 0, 50, 0
2,246587, Control_c, 0, 64, 55
2,246606, Control_c, 0, 64, 58
2,246625, Control_c, 0, 64, 60
2,246633, Note_on_c, 0, 70, 0
2,246636, Note_on_c, 0, 68, 0
2,246644, Control_c, 0, 64, 61
2,246664, Control_c, 0, 64, 62
2,246683, Control_c, 0, 64, 63
2,246702, Control_c, 0, 64, 64
2,246721, Control_c, 0, 64, 64
2,246741, Control_c, 0, 64, 65
2,246759, Control_c, 0, 64, 66
2,246778, Control_c, 0, 64, 66
2,246798, Control_c, 0, 64, 67
2,246817, Control_c, 0, 64, 68
2,246836, Control_c, 0, 64, 68
2,246855, Control_c, 0, 64, 69
2,246875, Control_c, 0, 64, 69
2,246893, Control_c, 0, 64, 70
2,246913, Control_c, 0, 64, 70
2,246932, Control_c, 0, 64, 71
2,246978, Note_on_c, 0, 78, 72
2,246996, Note_on_c, 0, 46, 49
2,247067, Control_c, 0, 64, 70
2,247075, Note_on_c, 0, 51, 0
2,247099, Note_on_c, 0, 78, 0
2,247105, Control_c, 0, 64, 70
2,247163, Control_c, 0, 64, 69
2,247221, Control_c, 0, 64, 69
2,247278, Control_c, 0, 64, 68
2,247316, Control_c, 0, 64, 68
2,247335, Control_c, 0, 64, 67
2,247355, Control_c, 0, 64, 65
2,247370, Note_on_c, 0, 68, 71
2,247373, Control_c, 0, 64, 64
2,247377, Note_on_c, 0, 47, 67
2,247393, Control_c, 0, 64, 62
2,247412, Control_c, 0, 64, 61
2,247432, Control_c, 0, 64, 60
2,247436, Note_on_c, 0, 46, 0
2,247450, Control_c, 0, 64, 59
2,247463, Note_on_c, 0, 66, 0
2,247470, Control_c, 0, 64, 58
2,247489, Control_c, 0, 64, 58
2,247768, Note_on_c, 0, 66, 69
2,247772, Note_on_c, 0, 48, 69
2,247822, Note_on_c, 0, 47, 0
2,247969, Control_c, 0, 64, 58
2,248177, Note_on_c, 0, 64, 63
2,248181, Control_c, 0, 64, 58
2,248185, Note_on_c, 0, 49, 70
2,248205, Note_on_c, 0, 66, 0
2,248217, Note_on_c, 0, 48, 0
2,248295, Control_c, 0, 64, 57
2,248589, Note_on_c, 0, 44, 69
2,248598, Note_on_c, 0, 63, 61
2,248654, Note_on_c, 0, 64, 0
2,248659, Control_c, 0, 64, 58
2,248662, Note_on_c, 0, 49, 0
2,248928, Control_c, 0, 64, 58
2,249049, Note_on_c, 0, 62, 52
2,249061, Note_on_c, 0, 46, 80
2,249063, Control_c, 0, 64, 58
2,249082, Control_c, 0, 64, 56
2,249084, Note_on_c, 0, 63, 0
2,249101, Control_c, 0, 64, 51
2,249120, Control_c, 0, 64, 47
2,249133, Note_on_c, 0, 44, 0
2,249139, Control_c, 0, 64, 42
2,249158, Control_c, 0, 64, 36
2,249177, Control_c, 0, 64, 30
2,249197, Control_c, 0, 64, 25
2,249216, Control_c, 0, 64, 24
2,249293, Control_c, 0, 64, 25
2,249312, Control_c, 0, 64, 28
2,249331, Control_c, 0, 64, 32
2,249351, Control_c, 0, 64, 37
2,249369, Control_c, 0, 64, 41
2,249389, Control_c, 0, 64, 44
2,249408, Control_c, 0, 64, 46
2,249428, Control_c, 0, 64, 48
2,249446, Control_c, 0, 64, 50
2,249466, Control_c, 0, 64, 51
2,249485, Control_c, 0, 64, 53
2,249494, Note_on_c, 0, 66, 56
2,249504, Control_c, 0, 64, 53
2,249523, Control_c, 0, 64, 54
2,249543, Control_c, 0, 64, 55
2,249564, Note_on_c, 0, 62, 0
2,249581, Control_c, 0, 64, 55
2,249601, Control_c, 0, 64, 56
2,249646, Note_on_c, 0, 68, 0
2,249660, Note_on_c, 0, 65, 63
2,249677, Control_c, 0, 64, 56
2,249682, Note_on_c, 0, 66, 0
2,249869, Control_c, 0, 64, 56
2,249875, Note_on_c, 0, 66, 68
2,249886, Note_on_c, 0, 63, 61
2,249908, Control_c, 0, 64, 55
2,249926, Control_c, 0, 64, 55
2,249933, Note_on_c, 0, 65, 0
2,249946, Control_c, 0, 64, 54
2,249965, Control_c, 0, 64, 53
2,249984, Control_c, 0, 64, 52
2,250003, Control_c, 0, 64, 52
2,250023, Control_c, 0, 64, 51
2,250042, Control_c, 0, 64, 50
2,250060, Control_c, 0, 64, 49
2,250080, Control_c, 0, 64, 48
2,250099, Control_c, 0, 64, 48
2,250118, Control_c, 0, 64, 47
2,250137, Control_c, 0, 64, 47
2,250157, Control_c, 0, 64, 46
2,250176, Control_c, 0, 64, 45
2,250195, Control_c, 0, 64, 44
2,250214, Control_c, 0, 64, 43
2,250234, Control_c, 0, 64, 42
2,250253, Control_c, 0, 64, 40
2,250259, Note_on_c, 0, 68, 76
2,250272, Control_c, 0, 64, 37
2,250291, Control_c, 0, 64, 35
2,250311, Control_c, 0, 64, 32
2,250328, Note_on_c, 0, 66, 0
2,250329, Control_c, 0, 64, 29
2,250349, Control_c, 0, 64, 27
2,250368, Control_c, 0, 64, 24
2,250388, Control_c, 0, 64, 19
2,250406, Control_c, 0, 64, 9
2,250426, Control_c, 0, 64, 0
2,250584, Control_c, 0, 64, 23
2,250602, Control_c, 0, 64, 45
2,250622, Control_c, 0, 64, 59
2,250637, Control_c, 0, 64, 63
2,250655, Note_on_c, 0, 70, 80
2,250656, Control_c, 0, 64, 64
2,250675, Control_c, 0, 64, 66
2,250694, Control_c, 0, 64, 68
2,250710, Note_on_c, 0, 68, 0
2,250714, Control_c, 0, 64, 70
2,250733, Control_c, 0, 64, 73
2,250752, Control_c, 0, 64, 76
2,250763, Note_on_c, 0, 46, 0
2,250771, Control_c, 0, 64, 78
2,250791, Control_c, 0, 64, 80
2,250809, Control_c, 0, 64, 81
2,250848, Control_c, 0, 64, 81
2,250886, Control_c, 0, 64, 82
2,251024, Note_on_c, 0, 63, 0
2,251063, Note_on_c, 0, 62, 70
2,251069, Note_on_c, 0, 53, 59
2,251088, Note_on_c, 0, 70, 0
2,251139, Control_c, 0, 64, 81
2,251158, Control_c, 0, 64, 80
2,251177, Control_c, 0, 64, 79
2,251197, Control_c, 0, 64, 78
2,251214, Note_on_c, 0, 60, 77
2,251214, Note_on_c, 0, 62, 0
2,251235, Control_c, 0, 64, 78
2,251331, Control_c, 0, 64, 77
2,251350, Control_c, 0, 64, 77
2,251369, Control_c, 0, 64, 75
2,251388, Control_c, 0, 64, 72
2,251408, Control_c, 0, 64, 66
2,251426, Control_c, 0, 64, 59
2,251434, Note_on_c, 0, 58, 69
2,251436, Note_on_c, 0, 62, 75
2,251446, Control_c, 0, 64, 39
2,251449, Note_on_c, 0, 60, 0
2,251465, Control_c, 0, 64, 0
2,251467, Note_on_c, 0, 53, 0
2,251562, Control_c, 0, 64, 37
2,251581, Control_c, 0, 64, 57
2,251600, Control_c, 0, 64, 62
2,251619, Control_c, 0, 64, 64
2,251638, Control_c, 0, 64, 64
2,251657, Control_c, 0, 64, 65
2,251677, Control_c, 0, 64, 66
2,251696, Control_c, 0, 64, 67
2,251715, Control_c, 0, 64, 68
2,251734, Control_c, 0, 64, 69
2,251754, Control_c, 0, 64, 70
2,251772, Control_c, 0, 64, 70
2,251811, Control_c, 0, 64, 71
2,251827, Note_on_c, 0, 65, 79
2,251830, Control_c, 0, 64, 73
2,251835, Note_on_c, 0, 62, 0
2,251849, Control_c, 0, 64, 74
2,251868, Control_c, 0, 64, 76
2,251983, Control_c, 0, 64, 77
2,252022, Control_c, 0, 64, 77
2,252234, Control_c, 0, 64, 78
2,252271, Control_c, 0, 64, 77
2,252285, Note_on_c, 0, 77, 88
2,252291, Control_c, 0, 64, 76
2,252291, Note_on_c, 0, 70, 78
2,252310, Control_c, 0, 64, 70
2,252329, Control_c, 0, 64, 60
2,252348, Control_c, 0, 64, 36
2,252368, Control_c, 0, 64, 0
2,252463, Control_c, 0, 64, 13
2,252483, Control_c, 0, 64, 36
2,252502, Control_c, 0, 64, 47
2,252521, Control_c, 0, 64, 54
2,252540, Control_c, 0, 64, 57
2,252561, Control_c, 0, 64, 59
2,252580, Control_c, 0, 64, 61
2,252599, Control_c, 0, 64, 62
2,252618, Control_c, 0, 64, 63
2,252638, Control_c, 0, 64, 64
2,252715, Control_c, 0, 64, 64
2,252740, Note_on_c, 0, 59, 60
2,252761, Note_on_c, 0, 58, 0
2,252772, Control_c, 0, 64, 64
2,252791, Control_c, 0, 64, 65
2,252810, Control_c, 0, 64, 65
2,252829, Control_c, 0, 64, 66
2,252849, Control_c, 0, 64, 67
2,252887, Control_c, 0, 64, 67
2,253041, Control_c, 0, 64, 68
2,253060, Control_c, 0, 64, 68
2,253079, Control_c, 0, 64, 69
2,253098, Control_c, 0, 64, 68
2,253108, Note_on_c, 0, 58, 70
2,253118, Control_c, 0, 64, 64
2,253121, Note_on_c, 0, 59, 0
2,253136, Control_c, 0, 64, 59
2,253156, Control_c, 0, 64, 54
2,253169, Note_on_c, 0, 65, 0
2,253175, Control_c, 0, 64, 53
2,253195, Control_c, 0, 64, 55
2,253213, Control_c, 0, 64, 58
2,253232, Control_c, 0, 64, 62
2,253252, Control_c, 0, 64, 64
2,253271, Control_c, 0, 64, 66
2,253290, Control_c, 0, 64, 68
2,253309, Control_c, 0, 64, 70
2,253329, Control_c, 0, 64, 73
2,253347, Control_c, 0, 64, 74
2,253367, Control_c, 0, 64, 75
2,253458, Note_on_c, 0, 77, 0
2,253482, Note_on_c, 0, 56, 51
2,253485, Note_on_c, 0, 71, 84
2,253501, Control_c, 0, 64, 76
2,253502, Note_on_c, 0, 70, 0
2,253514, Control_c, 0, 64, 77
2,253526, Note_on_c, 0, 58, 0
2,253533, Control_c, 0, 64, 77
2,253552, Control_c, 0, 64, 78
2,253639, Note_on_c, 0, 71, 0
2,253725, Control_c, 0, 64, 78
2,253782, Control_c, 0, 64, 78
2,253801, Note_on_c, 0, 54, 43
2,253821, Control_c, 0, 64, 77
2,253899, Note_on_c, 0, 56, 0
2,253901, Note_on_c, 0, 82, 94
2,253905, Note_on_c, 0, 80, 45
2,253906, Note_on_c, 0, 70, 88
2,253917, Control_c, 0, 64, 74
2,253936, Control_c, 0, 64, 68
2,253956, Control_c, 0, 64, 60
2,253956, Note_on_c, 0, 80, 0
2,253975, Control_c, 0, 64, 47
2,253994, Control_c, 0, 64, 31
2,254013, Control_c, 0, 64, 0
2,254070, Control_c, 0, 64, 17
2,254090, Control_c, 0, 64, 45
2,254109, Control_c, 0, 64, 58
2,254128, Control_c, 0, 64, 62
2,254147, Control_c, 0, 64, 64
2,254167, Control_c, 0, 64, 64
2,254186, Control_c, 0, 64, 65
2,254224, Control_c, 0, 64, 65
2,254244, Control_c, 0, 64, 66
2,254262, Control_c, 0, 64, 66
2,254301, Control_c, 0, 64, 67
2,254321, Control_c, 0, 64, 68
2,254321, Note_on_c, 0, 56, 56
2,254339, Control_c, 0, 64, 68
2,254359, Control_c, 0, 64, 69
2,254378, Control_c, 0, 64, 70
2,254401, Control_c, 0, 64, 70
2,254508, Note_on_c, 0, 54, 0
2,254515, Control_c, 0, 64, 71
2,254533, Control_c, 0, 64, 71
2,254552, Control_c, 0, 64, 72
2,254572, Control_c, 0, 64, 73
2,254610, Control_c, 0, 64, 72
2,254629, Control_c, 0, 64, 68
2,254649, Control_c, 0, 64, 61
2,254667, Control_c, 0, 64, 48
2,254687, Control_c, 0, 64, 44
2,254700, Note_on_c, 0, 58, 62
2,254706, Control_c, 0, 64, 48
2,254726, Control_c, 0, 64, 56
2,254744, Control_c, 0, 64, 62
2,254764, Control_c, 0, 64, 65
2,254783, Control_c, 0, 64, 69
2,254802, Control_c, 0, 64, 72
2,254821, Control_c, 0, 64, 76
2,254841, Control_c, 0, 64, 79
2,254853, Note_on_c, 0, 56, 0
2,254860, Control_c, 0, 64, 79
2,254910, Note_on_c, 0, 58, 0
2,254975, Control_c, 0, 64, 80
2,255012, Note_on_c, 0, 70, 0
2,255083, Note_on_c, 0, 68, 74
2,255185, Note_on_c, 0, 68, 0
2,255360, Control_c, 0, 64, 80
2,255398, Control_c, 0, 64, 81
2,255417, Control_c, 0, 64, 81
2,255437, Control_c, 0, 64, 80
2,255456, Control_c, 0, 64, 72
2,255468, Note_on_c, 0, 66, 80
2,255475, Control_c, 0, 64, 63
2,255489, Note_on_c, 0, 51, 53
2,255494, Control_c, 0, 64, 49
2,255514, Control_c, 0, 64, 43
2,255533, Control_c, 0, 64, 42
2,255552, Control_c, 0, 64, 46
2,255571, Control_c, 0, 64, 56
2,255591, Control_c, 0, 64, 62
2,255609, Control_c, 0, 64, 65
2,255629, Control_c, 0, 64, 67
2,255648, Control_c, 0, 64, 69
2,255668, Control_c, 0, 64, 71
2,255686, Control_c, 0, 64, 72
2,255706, Control_c, 0, 64, 73
2,255725, Control_c, 0, 64, 74
2,255745, Note_on_c, 0, 66, 0
2,255763, Control_c, 0, 64, 74
2,255766, Note_on_c, 0, 51, 0
2,255802, Control_c, 0, 64, 75
2,255820, Control_c, 0, 64, 75
2,255840, Control_c, 0, 64, 76
2,255851, Note_on_c, 0, 53, 54
2,255859, Control_c, 0, 64, 76
2,256007, Note_on_c, 0, 54, 68
2,256011, Note_on_c, 0, 53, 0
2,256051, Control_c, 0, 64, 77
2,256071, Control_c, 0, 64, 77
2,256089, Control_c, 0, 64, 78
2,256109, Control_c, 0, 64, 78
2,256166, Control_c, 0, 64, 79
2,256205, Control_c, 0, 64, 77
2,256215, Note_on_c, 0, 83, 86
2,256224, Control_c, 0, 64, 70
2,256240, Note_on_c, 0, 56, 63
2,256243, Control_c, 0, 64, 58
2,256245, Note_on_c, 0, 54, 0
2,256263, Control_c, 0, 64, 0
2,256296, Note_on_c, 0, 82, 0
2,256358, Control_c, 0, 64, 48
2,256377, Control_c, 0, 64, 61
2,256398, Control_c, 0, 64, 65
2,256417, Control_c, 0, 64, 66
2,256436, Control_c, 0, 64, 68
2,256455, Control_c, 0, 64, 71
2,256475, Control_c, 0, 64, 76
2,256493, Control_c, 0, 64, 80
2,256513, Control_c, 0, 64, 82
2,256538, Note_on_c, 0, 83, 0
2,256552, Control_c, 0, 64, 82
2,256572, Note_on_c, 0, 80, 40
2,256601, Note_on_c, 0, 68, 85
2,256609, Control_c, 0, 64, 82
2,256645, Note_on_c, 0, 68, 0
2,256647, Control_c, 0, 64, 83
2,256680, Note_on_c, 0, 80, 0
2,256686, Control_c, 0, 64, 83
2,256724, Control_c, 0, 64, 83
2,256763, Control_c, 0, 64, 82
2,256993, Control_c, 0, 64, 82
2,257012, Control_c, 0, 64, 81
2,257024, Note_on_c, 0, 82, 91
2,257032, Control_c, 0, 64, 77
2,257038, Note_on_c, 0, 70, 76
2,257050, Control_c, 0, 64, 67
2,257070, Control_c, 0, 64, 53
2,257089, Control_c, 0, 64, 20
2,257109, Control_c, 0, 64, 0
2,257147, Control_c, 0, 64, 29
2,257166, Control_c, 0, 64, 51
2,257185, Control_c, 0, 64, 61
2,257204, Control_c, 0, 64, 64
2,257224, Control_c, 0, 64, 66
2,257243, Control_c, 0, 64, 68
2,257261, Control_c, 0, 64, 70
2,257282, Control_c, 0, 64, 72
2,257301, Control_c, 0, 64, 74
2,257320, Control_c, 0, 64, 76
2,257339, Control_c, 0, 64, 77
2,257396, Control_c, 0, 64, 76
2,257408, Note_on_c, 0, 54, 52
2,257453, Control_c, 0, 64, 77
2,257463, Note_on_c, 0, 56, 0
2,257492, Control_c, 0, 64, 76
2,257530, Control_c, 0, 64, 76
2,257550, Control_c, 0, 64, 75
2,257723, Control_c, 0, 64, 75
2,257741, Control_c, 0, 64, 74
2,257761, Control_c, 0, 64, 72
2,257776, Note_on_c, 0, 80, 86
2,257780, Control_c, 0, 64, 65
2,257799, Control_c, 0, 64, 51
2,257805, Note_on_c, 0, 53, 51
2,257813, Note_on_c, 0, 54, 0
2,257818, Control_c, 0, 64, 0
2,257915, Control_c, 0, 64, 43
2,257923, Note_on_c, 0, 82, 0
2,257933, Control_c, 0, 64, 58
2,257953, Control_c, 0, 64, 63
2,257972, Control_c, 0, 64, 64
2,257992, Control_c, 0, 64, 64
2,258010, Control_c, 0, 64, 65
2,258030, Control_c, 0, 64, 67
2,258049, Control_c, 0, 64, 69
2,258069, Control_c, 0, 64, 71
2,258087, Control_c, 0, 64, 72
2,258133, Note_on_c, 0, 53, 0
2,258170, Note_on_c, 0, 62, 60
2,258279, Control_c, 0, 64, 72
2,258335, Control_c, 0, 64, 71
2,258508, Control_c, 0, 64, 71
2,258527, Control_c, 0, 64, 68
2,258547, Control_c, 0, 64, 61
2,258563, Note_on_c, 0, 78, 82
2,258565, Control_c, 0, 64, 30
2,258585, Control_c, 0, 64, 0
2,258589, Note_on_c, 0, 62, 0
2,258594, Note_on_c, 0, 63, 59
2,258681, Control_c, 0, 64, 51
2,258699, Control_c, 0, 64, 62
2,258708, Note_on_c, 0, 80, 0
2,258719, Control_c, 0, 64, 65
2,258738, Control_c, 0, 64, 66
2,258758, Control_c, 0, 64, 67
2,258776, Control_c, 0, 64, 68
2,258796, Control_c, 0, 64, 70
2,258815, Control_c, 0, 64, 73
2,258834, Control_c, 0, 64, 75
2,258853, Control_c, 0, 64, 76
2,258892, Control_c, 0, 64, 77
2,258921, Note_on_c, 0, 63, 0
2,258930, Control_c, 0, 64, 77
2,258954, Note_on_c, 0, 65, 61
2,259027, Control_c, 0, 64, 77
2,259065, Control_c, 0, 64, 76
2,259100, Note_on_c, 0, 66, 65
2,259135, Note_on_c, 0, 65, 0
2,259201, Control_c, 0, 64, 76
2,259239, Control_c, 0, 64, 75
2,259258, Control_c, 0, 64, 75
2,259276, Control_c, 0, 64, 74
2,259295, Control_c, 0, 64, 70
2,259314, Control_c, 0, 64, 63
2,259317, Note_on_c, 0, 80, 87
2,259331, Note_on_c, 0, 65, 48
2,259333, Control_c, 0, 64, 45
2,259340, Note_on_c, 0, 68, 60
2,259345, Note_on_c, 0, 66, 0
2,259353, Control_c, 0, 64, 0
2,259403, Note_on_c, 0, 78, 0
2,259468, Control_c, 0, 64, 51
2,259487, Control_c, 0, 64, 62
2,259507, Control_c, 0, 64, 64
2,259525, Control_c, 0, 64, 65
2,259545, Control_c, 0, 64, 66
2,259564, Control_c, 0, 64, 67
2,259584, Control_c, 0, 64, 69
2,259602, Control_c, 0, 64, 71
2,259621, Control_c, 0, 64, 73
2,259641, Control_c, 0, 64, 74
2,259679, Control_c, 0, 64, 74
2,259717, Note_on_c, 0, 63, 56
2,259718, Control_c, 0, 64, 75
2,259736, Control_c, 0, 64, 76
2,259756, Control_c, 0, 64, 76
2,259775, Control_c, 0, 64, 77
2,259795, Note_on_c, 0, 65, 0
2,259797, Note_on_c, 0, 68, 0
2,259813, Control_c, 0, 64, 76
2,259835, Note_on_c, 0, 63, 0
2,259928, Control_c, 0, 64, 76
2,259967, Control_c, 0, 64, 75
2,259987, Control_c, 0, 64, 75
2,260005, Control_c, 0, 64, 74
2,260025, Control_c, 0, 64, 73
2,260044, Control_c, 0, 64, 72
2,260052, Note_on_c, 0, 62, 45
2,260064, Control_c, 0, 64, 72
2,260082, Control_c, 0, 64, 70
2,260101, Control_c, 0, 64, 64
2,260109, Note_on_c, 0, 82, 81
2,260121, Control_c, 0, 64, 46
2,260139, Control_c, 0, 64, 0
2,260199, Note_on_c, 0, 80, 0
2,260256, Control_c, 0, 64, 23
2,260275, Control_c, 0, 64, 51
2,260294, Control_c, 0, 64, 60
2,260314, Control_c, 0, 64, 63
2,260333, Control_c, 0, 64, 63
2,260352, Control_c, 0, 64, 64
2,260371, Control_c, 0, 64, 65
2,260391, Control_c, 0, 64, 66
2,260409, Control_c, 0, 64, 67
2,260429, Control_c, 0, 64, 68
2,260468, Control_c, 0, 64, 69
2,260525, Control_c, 0, 64, 69
2,260530, Note_on_c, 0, 66, 38
2,260541, Note_on_c, 0, 62, 0
2,260544, Control_c, 0, 64, 70
2,260551, Note_on_c, 0, 63, 32
2,260640, Control_c, 0, 64, 69
2,260755, Control_c, 0, 64, 70
2,260832, Control_c, 0, 64, 68
2,260851, Control_c, 0, 64, 62
2,260871, Control_c, 0, 64, 48
2,260877, Note_on_c, 0, 63, 0
2,260889, Control_c, 0, 64, 27
2,260894, Note_on_c, 0, 65, 53
2,260901, Note_on_c, 0, 66, 0
2,260909, Control_c, 0, 64, 13
2,260928, Control_c, 0, 64, 17
2,260937, Note_on_c, 0, 70, 0
2,260948, Control_c, 0, 64, 37
2,260966, Control_c, 0, 64, 54
2,260986, Control_c, 0, 64, 61
2,261002, Control_c, 0, 64, 64
2,261021, Control_c, 0, 64, 64
2,261040, Control_c, 0, 64, 65
2,261079, Control_c, 0, 64, 66
2,261098, Control_c, 0, 64, 66
2,261117, Control_c, 0, 64, 67
2,261194, Control_c, 0, 64, 68
2,261252, Control_c, 0, 64, 68
2,261268, Note_on_c, 0, 61, 63
2,261305, Note_on_c, 0, 65, 0
2,261463, Control_c, 0, 64, 69
2,261597, Control_c, 0, 64, 69
2,261617, Control_c, 0, 64, 70
2,261636, Control_c, 0, 64, 68
2,261648, Note_on_c, 0, 75, 82
2,261655, Control_c, 0, 64, 63
2,261671, Note_on_c, 0, 67, 58
2,261674, Control_c, 0, 64, 46
2,261694, Control_c, 0, 64, 0
2,261770, Control_c, 0, 64, 41
2,261774, Note_on_c, 0, 82, 0
2,261789, Control_c, 0, 64, 59
2,261808, Control_c, 0, 64, 64
2,261828, Control_c, 0, 64, 66
2,261846, Control_c, 0, 64, 67
2,261866, Control_c, 0, 64, 68
2,261885, Control_c, 0, 64, 68
2,261905, Control_c, 0, 64, 69
2,261923, Control_c, 0, 64, 70
2,261943, Control_c, 0, 64, 70
2,261955, Note_on_c, 0, 67, 0
2,262016, Note_on_c, 0, 58, 73
2,262043, Note_on_c, 0, 63, 64
2,262065, Note_on_c, 0, 61, 0
2,262097, Control_c, 0, 64, 70
2,262135, Control_c, 0, 64, 69
2,262178, Note_on_c, 0, 63, 0
2,262211, Note_on_c, 0, 64, 71
2,262288, Control_c, 0, 64, 69
2,262423, Control_c, 0, 64, 69
2,262442, Control_c, 0, 64, 67
2,262459, Note_on_c, 0, 63, 78
2,262461, Control_c, 0, 64, 60
2,262480, Control_c, 0, 64, 23
2,262498, Note_on_c, 0, 64, 0
2,262500, Control_c, 0, 64, 0
2,262596, Control_c, 0, 64, 39
2,262615, Control_c, 0, 64, 55
2,262634, Control_c, 0, 64, 60
2,262654, Control_c, 0, 64, 62
2,262672, Control_c, 0, 64, 63
2,262691, Control_c, 0, 64, 64
2,262711, Control_c, 0, 64, 65
2,262730, Control_c, 0, 64, 66
2,262749, Control_c, 0, 64, 66
2,262883, Control_c, 0, 64, 67
2,262903, Control_c, 0, 64, 67
2,262912, Note_on_c, 0, 61, 60
2,263000, Note_on_c, 0, 58, 0
2,263057, Control_c, 0, 64, 68
2,263268, Control_c, 0, 64, 68
2,263286, Control_c, 0, 64, 69
2,263296, Note_on_c, 0, 80, 89
2,263325, Control_c, 0, 64, 66
2,263334, Note_on_c, 0, 59, 57
2,263342, Note_on_c, 0, 61, 0
2,263345, Control_c, 0, 64, 58
2,263363, Control_c, 0, 64, 22
2,263383, Control_c, 0, 64, 0
2,263460, Control_c, 0, 64, 46
2,263479, Control_c, 0, 64, 60
2,263498, Control_c, 0, 64, 64
2,263517, Control_c, 0, 64, 65
2,263537, Control_c, 0, 64, 66
2,263556, Control_c, 0, 64, 66
2,263651, Control_c, 0, 64, 66
2,263703, Note_on_c, 0, 59, 0
2,263728, Control_c, 0, 64, 66
2,263735, Note_on_c, 0, 63, 0
2,263758, Note_on_c, 0, 64, 68
2,263764, Note_on_c, 0, 61, 54
2,263780, Note_on_c, 0, 75, 0
2,263825, Control_c, 0, 64, 66
2,263882, Control_c, 0, 64, 66
2,263940, Control_c, 0, 64, 67
2,264036, Control_c, 0, 64, 66
2,264055, Control_c, 0, 64, 64
2,264073, Control_c, 0, 64, 56
2,264093, Control_c, 0, 64, 41
2,264111, Control_c, 0, 64, 23
2,264118, Note_on_c, 0, 61, 0
2,264130, Control_c, 0, 64, 20
2,264144, Note_on_c, 0, 63, 64
2,264150, Control_c, 0, 64, 29
2,264154, Note_on_c, 0, 59, 56
2,264160, Note_on_c, 0, 64, 0
2,264169, Control_c, 0, 64, 46
2,264188, Control_c, 0, 64, 58
2,264207, Control_c, 0, 64, 62
2,264227, Control_c, 0, 64, 64
2,264245, Control_c, 0, 64, 64
2,264265, Control_c, 0, 64, 65
2,264284, Control_c, 0, 64, 66
2,264304, Control_c, 0, 64, 67
2,264322, Control_c, 0, 64, 68
2,264342, Control_c, 0, 64, 68
2,264520, Note_on_c, 0, 63, 0
2,264538, Note_on_c, 0, 61, 64
2,264540, Note_on_c, 0, 58, 57
2,264585, Note_on_c, 0, 59, 0
2,264591, Control_c, 0, 64, 68
2,264611, Note_on_c, 0, 58, 0
2,264764, Control_c, 0, 64, 67
2,264879, Control_c, 0, 64, 66
2,264899, Control_c, 0, 64, 63
2,264918, Control_c, 0, 64, 49
2,264920, Note_on_c, 0, 59, 63
2,264935, Note_on_c, 0, 56, 56
2,264937, Control_c, 0, 64, 13
2,264957, Control_c, 0, 64, 0
2,264957, Note_on_c, 0, 61, 0
2,265015, Control_c, 0, 64, 26
2,265034, Control_c, 0, 64, 52
2,265054, Control_c, 0, 64, 62
2,265072, Control_c, 0, 64, 64
2,265091, Control_c, 0, 64, 65
2,265111, Control_c, 0, 64, 66
2,265130, Control_c, 0, 64, 67
2,265149, Control_c, 0, 64, 69
2,265168, Control_c, 0, 64, 70
2,265188, Control_c, 0, 64, 71
2,265299, Note_on_c, 0, 59, 0
2,265311, Note_on_c, 0, 61, 61
2,265323, Note_on_c, 0, 54, 58
2,265339, Note_on_c, 0, 56, 0
2,265380, Control_c, 0, 64, 71
2,265399, Control_c, 0, 64, 70
2,265418, Control_c, 0, 64, 70
2,265429, Note_on_c, 0, 61, 0
2,265457, Control_c, 0, 64, 69
2,265591, Control_c, 0, 64, 69
2,265610, Control_c, 0, 64, 68
2,265648, Control_c, 0, 64, 68
2,265686, Control_c, 0, 64, 65
2,265688, Note_on_c, 0, 54, 0
2,265699, Note_on_c, 0, 78, 77
2,265706, Control_c, 0, 64, 57
2,265711, Note_on_c, 0, 52, 50
2,265725, Control_c, 0, 64, 27
2,265726, Note_on_c, 0, 63, 48
2,265745, Control_c, 0, 64, 0
2,265809, Note_on_c, 0, 80, 0
2,265821, Control_c, 0, 64, 19
2,265840, Control_c, 0, 64, 50
2,265860, Control_c, 0, 64, 61
2,265879, Control_c, 0, 64, 64
2,265898, Control_c, 0, 64, 64
2,265917, Control_c, 0, 64, 65
2,265937, Control_c, 0, 64, 65
2,265956, Control_c, 0, 64, 66
2,265975, Control_c, 0, 64, 67
2,265995, Control_c, 0, 64, 67
2,266013, Note_on_c, 0, 52, 0
2,266090, Control_c, 0, 64, 68
2,266090, Note_on_c, 0, 51, 53
2,266110, Control_c, 0, 64, 68
2,266129, Control_c, 0, 64, 69
2,266149, Control_c, 0, 64, 69
2,266210, Note_on_c, 0, 63, 0
2,266379, Control_c, 0, 64, 69
2,266418, Control_c, 0, 64, 68
2,266513, Control_c, 0, 64, 67
2,266527, Note_on_c, 0, 76, 68
2,266531, Note_on_c, 0, 49, 40
2,266533, Control_c, 0, 64, 62
2,266536, Note_on_c, 0, 51, 0
2,266552, Control_c, 0, 64, 45
2,266566, Note_on_c, 0, 56, 36
2,266570, Control_c, 0, 64, 0
2,266634, Note_on_c, 0, 78, 0
2,266667, Control_c, 0, 64, 18
2,266686, Control_c, 0, 64, 43
2,266706, Control_c, 0, 64, 57
2,266724, Control_c, 0, 64, 61
2,266744, Control_c, 0, 64, 62
2,266763, Control_c, 0, 64, 63
2,266782, Control_c, 0, 64, 63
2,266801, Control_c, 0, 64, 64
2,266821, Control_c, 0, 64, 64
2,266900, Control_c, 0, 64, 65
2,266918, Control_c, 0, 64, 65
2,266935, Note_on_c, 0, 56, 0
2,266938, Control_c, 0, 64, 66
2,266945, Note_on_c, 0, 49, 0
2,266964, Note_on_c, 0, 61, 46
2,267103, Note_on_c, 0, 61, 0
2,267127, Note_on_c, 0, 59, 56
2,267241, Control_c, 0, 64, 65
2,267279, Control_c, 0, 64, 64
2,267299, Control_c, 0, 64, 61
2,267318, Control_c, 0, 64, 53
2,267334, Note_on_c, 0, 59, 0
2,267337, Control_c, 0, 64, 38
2,267356, Control_c, 0, 64, 0
2,267361, Note_on_c, 0, 61, 41
2,267379, Note_on_c, 0, 58, 40
2,267471, Control_c, 0, 64, 38
2,267490, Control_c, 0, 64, 56
2,267510, Control_c, 0, 64, 62
2,267529, Control_c, 0, 64, 64
2,267548, Control_c, 0, 64, 64
2,267567, Control_c, 0, 64, 65
2,267587, Control_c, 0, 64, 66
2,267605, Control_c, 0, 64, 66
2,267625, Control_c, 0, 64, 67
2,267682, Control_c, 0, 64, 67
2,267721, Control_c, 0, 64, 68
2,267741, Control_c, 0, 64, 69
2,267750, Note_on_c, 0, 56, 39
2,267759, Control_c, 0, 64, 70
2,267767, Note_on_c, 0, 58, 0
2,267779, Control_c, 0, 64, 70
2,267798, Control_c, 0, 64, 71
2,267837, Control_c, 0, 64, 70
2,267879, Note_on_c, 0, 61, 0
2,267990, Control_c, 0, 64, 70
2,268028, Control_c, 0, 64, 69
2,268047, Control_c, 0, 64, 69
2,268067, Control_c, 0, 64, 68
2,268085, Control_c, 0, 64, 68
2,268124, Control_c, 0, 64, 67
2,268144, Control_c, 0, 64, 66
2,268156, Note_on_c, 0, 75, 62
2,268162, Control_c, 0, 64, 65
2,268165, Note_on_c, 0, 55, 41
2,268182, Control_c, 0, 64, 63
2,268201, Control_c, 0, 64, 62
2,268207, Note_on_c, 0, 56, 0
2,268221, Control_c, 0, 64, 60
2,268239, Control_c, 0, 64, 58
2,268259, Control_c, 0, 64, 57
2,268278, Control_c, 0, 64, 56
2,268281, Note_on_c, 0, 76, 0
2,268297, Control_c, 0, 64, 55
2,268355, Control_c, 0, 64, 56
2,268374, Control_c, 0, 64, 56
2,268450, Control_c, 0, 64, 56
2,268470, Control_c, 0, 64, 55
2,268508, Control_c, 0, 64, 55
2,268542, Note_on_c, 0, 56, 34
2,268551, Note_on_c, 0, 59, 35
2,268589, Note_on_c, 0, 55, 0
2,268777, Control_c, 0, 64, 55
2,268818, Control_c, 0, 64, 56
2,268894, Control_c, 0, 64, 55
2,268956, Note_on_c, 0, 58, 36
2,268970, Note_on_c, 0, 59, 0
2,269036, Note_on_c, 0, 56, 0
2,269046, Control_c, 0, 64, 55
2,269123, Control_c, 0, 64, 54
2,269297, Control_c, 0, 64, 54
2,269364, Note_on_c, 0, 54, 27
2,269469, Control_c, 0, 64, 53
2,269508, Control_c, 0, 64, 53
2,269756, Control_c, 0, 64, 53
2,269792, Note_on_c, 0, 56, 31
2,269795, Control_c, 0, 64, 54
2,269810, Note_on_c, 0, 53, 18
2,269857, Note_on_c, 0, 54, 0
2,270082, Control_c, 0, 64, 53
2,270099, Note_on_c, 0, 58, 0
2,270249, Note_on_c, 0, 71, 47
2,270275, Control_c, 0, 64, 53
2,270332, Control_c, 0, 64, 52
2,270370, Control_c, 0, 64, 52
2,270409, Control_c, 0, 64, 51
2,270467, Control_c, 0, 64, 51
2,270505, Control_c, 0, 64, 50
2,270672, Note_on_c, 0, 68, 50
2,270678, Control_c, 0, 64, 50
2,270774, Control_c, 0, 64, 50
2,270789, Note_on_c, 0, 71, 0
2,270814, Control_c, 0, 64, 51
2,270832, Control_c, 0, 64, 51
2,270846, Note_on_c, 0, 75, 0
2,270851, Control_c, 0, 64, 52
2,270890, Control_c, 0, 64, 52
2,270966, Control_c, 0, 64, 53
2,271025, Control_c, 0, 64, 53
2,271062, Note_on_c, 0, 58, 37
2,271063, Control_c, 0, 64, 54
2,271135, Note_on_c, 0, 56, 0
2,271159, Control_c, 0, 64, 54
2,271460, Note_on_c, 0, 58, 0
2,271466, Control_c, 0, 64, 54
2,271476, Note_on_c, 0, 59, 37
2,271505, Control_c, 0, 64, 53
2,271562, Control_c, 0, 64, 53
2,271620, Control_c, 0, 64, 52
2,271698, Control_c, 0, 64, 52
2,271716, Control_c, 0, 64, 50
2,271736, Control_c, 0, 64, 47
2,271753, Control_c, 0, 64, 45
2,271772, Control_c, 0, 64, 44
2,271791, Control_c, 0, 64, 45
2,271810, Control_c, 0, 64, 47
2,271830, Control_c, 0, 64, 52
2,271849, Control_c, 0, 64, 57
2,271868, Control_c, 0, 64, 61
2,271875, Note_on_c, 0, 70, 62
2,271881, Note_on_c, 0, 59, 0
2,271887, Control_c, 0, 64, 63
2,271897, Note_on_c, 0, 54, 36
2,271897, Note_on_c, 0, 58, 31
2,271907, Control_c, 0, 64, 64
2,271925, Control_c, 0, 64, 64
2,271930, Note_on_c, 0, 53, 0
2,271945, Control_c, 0, 64, 66
2,271964, Control_c, 0, 64, 67
2,271970, Note_on_c, 0, 68, 0
2,271984, Control_c, 0, 64, 69
2,272002, Control_c, 0, 64, 70
2,272005, Note_on_c, 0, 58, 0
2,272022, Control_c, 0, 64, 72
2,272023, Note_on_c, 0, 54, 0
2,272041, Control_c, 0, 64, 73
2,272061, Control_c, 0, 64, 74
2,272156, Control_c, 0, 64, 73
2,272176, Control_c, 0, 64, 73
2,272195, Control_c, 0, 64, 71
2,272214, Control_c, 0, 64, 70
2,272233, Control_c, 0, 64, 68
2,272252, Control_c, 0, 64, 67
2,272271, Control_c, 0, 64, 65
2,272290, Control_c, 0, 64, 64
2,272294, Note_on_c, 0, 56, 42
2,272307, Note_on_c, 0, 71, 52
2,272310, Control_c, 0, 64, 63
2,272322, Note_on_c, 0, 53, 37
2,272329, Control_c, 0, 64, 61
2,272348, Control_c, 0, 64, 60
2,272363, Note_on_c, 0, 70, 0
2,272367, Control_c, 0, 64, 59
2,272387, Control_c, 0, 64, 58
2,272405, Control_c, 0, 64, 57
2,272425, Control_c, 0, 64, 56
2,272444, Control_c, 0, 64, 56
2,272502, Control_c, 0, 64, 55
2,272676, Control_c, 0, 64, 55
2,272687, Note_on_c, 0, 51, 30
2,272699, Note_on_c, 0, 54, 40
2,272699, Note_on_c, 0, 56, 0
2,272703, Note_on_c, 0, 53, 0
2,273059, Control_c, 0, 64, 54
2,273097, Note_on_c, 0, 53, 25
2,273153, Note_on_c, 0, 50, 19
2,273173, Control_c, 0, 64, 54
2,273186, Note_on_c, 0, 54, 0
2,273193, Control_c, 0, 64, 53
2,273197, Note_on_c, 0, 51, 0
2,273212, Control_c, 0, 64, 53
2,273231, Control_c, 0, 64, 52
2,273250, Control_c, 0, 64, 52
2,273529, Note_on_c, 0, 68, 44
2,273711, Control_c, 0, 64, 52
2,273772, Note_on_c, 0, 71, 0
2,273947, Note_on_c, 0, 65, 36
2,273966, Note_on_c, 0, 68, 0
2,274038, Control_c, 0, 64, 52
2,274210, Control_c, 0, 64, 51
2,274325, Control_c, 0, 64, 51
2,274370, Note_on_c, 0, 54, 32
2,274433, Note_on_c, 0, 53, 0
2,274461, Control_c, 0, 64, 50
2,274537, Control_c, 0, 64, 50
2,274613, Control_c, 0, 64, 49
2,274709, Control_c, 0, 64, 49
2,274751, Note_on_c, 0, 54, 0
2,274773, Note_on_c, 0, 56, 36
2,274978, Control_c, 0, 64, 50
2,274997, Control_c, 0, 64, 51
2,275016, Control_c, 0, 64, 53
2,275035, Control_c, 0, 64, 56
2,275055, Control_c, 0, 64, 59
2,275074, Control_c, 0, 64, 61
2,275092, Control_c, 0, 64, 62
2,275112, Control_c, 0, 64, 63
2,275131, Control_c, 0, 64, 64
2,275139, Note_on_c, 0, 50, 0
2,275151, Control_c, 0, 64, 64
2,275156, Note_on_c, 0, 66, 48
2,275165, Note_on_c, 0, 56, 0
2,275168, Note_on_c, 0, 51, 26
2,275169, Control_c, 0, 64, 66
2,275181, Note_on_c, 0, 54, 28
2,275189, Control_c, 0, 64, 67
2,275208, Control_c, 0, 64, 68
2,275223, Note_on_c, 0, 65, 0
2,275227, Control_c, 0, 64, 69
2,275246, Control_c, 0, 64, 70
2,275266, Control_c, 0, 64, 70
2,275324, Note_on_c, 0, 51, 0
2,275381, Control_c, 0, 64, 70
2,275420, Control_c, 0, 64, 69
2,275458, Control_c, 0, 64, 69
2,275477, Control_c, 0, 64, 68
2,275496, Control_c, 0, 64, 67
2,275516, Control_c, 0, 64, 65
2,275536, Control_c, 0, 64, 63
2,275555, Control_c, 0, 64, 62
2,275573, Control_c, 0, 64, 61
2,275580, Note_on_c, 0, 53, 31
2,275580, Note_on_c, 0, 68, 51
2,275593, Control_c, 0, 64, 60
2,275612, Control_c, 0, 64, 59
2,275619, Note_on_c, 0, 50, 23
2,275621, Note_on_c, 0, 54, 0
2,275621, Note_on_c, 0, 66, 0
2,275631, Control_c, 0, 64, 57
2,275650, Control_c, 0, 64, 56
2,275670, Control_c, 0, 64, 55
2,275689, Control_c, 0, 64, 54
2,275727, Control_c, 0, 64, 54
2,275747, Control_c, 0, 64, 53
2,275765, Control_c, 0, 64, 53
2,275862, Control_c, 0, 64, 52
2,275973, Note_on_c, 0, 51, 35
2,276005, Note_on_c, 0, 53, 0
2,276007, Note_on_c, 0, 48, 18
2,276025, Note_on_c, 0, 50, 0
2,276073, Control_c, 0, 64, 52
2,276436, Note_on_c, 0, 50, 25
2,276438, Note_on_c, 0, 46, 26
2,276496, Control_c, 0, 64, 52
2,276511, Note_on_c, 0, 51, 0
2,276556, Note_on_c, 0, 48, 0
2,276833, Note_on_c, 0, 65, 35
2,276955, Note_on_c, 0, 68, 0
2,276995, Control_c, 0, 64, 52
2,277250, Note_on_c, 0, 62, 29
2,277287, Note_on_c, 0, 65, 0
2,277379, Control_c, 0, 64, 51
2,277639, Note_on_c, 0, 51, 25
2,277724, Control_c, 0, 64, 51
2,277745, Note_on_c, 0, 50, 0
2,277782, Control_c, 0, 64, 50
2,277839, Control_c, 0, 64, 50
2,277878, Control_c, 0, 64, 49
2,277916, Control_c, 0, 64, 49
2,277936, Control_c, 0, 64, 48
2,277955, Control_c, 0, 64, 47
2,277973, Control_c, 0, 64, 46
2,278012, Control_c, 0, 64, 46
2,278031, Control_c, 0, 64, 48
2,278032, Note_on_c, 0, 51, 0
2,278050, Control_c, 0, 64, 51
2,278070, Control_c, 0, 64, 54
2,278089, Control_c, 0, 64, 57
2,278090, Note_on_c, 0, 53, 31
2,278108, Control_c, 0, 64, 59
2,278127, Control_c, 0, 64, 61
2,278147, Control_c, 0, 64, 62
2,278166, Control_c, 0, 64, 63
2,278185, Control_c, 0, 64, 64
2,278204, Control_c, 0, 64, 65
2,278210, Note_on_c, 0, 62, 0
2,278222, Note_on_c, 0, 46, 0
2,278224, Control_c, 0, 64, 66
2,278242, Control_c, 0, 64, 67
2,278262, Control_c, 0, 64, 67
2,278281, Control_c, 0, 64, 68
2,278301, Control_c, 0, 64, 69
2,278319, Control_c, 0, 64, 69
2,278377, Control_c, 0, 64, 70
2,278397, Control_c, 0, 64, 71
2,278417, Control_c, 0, 64, 72
2,278436, Control_c, 0, 64, 73
2,278512, Control_c, 0, 64, 72
2,278524, Note_on_c, 0, 62, 50
2,278551, Control_c, 0, 64, 71
2,278570, Control_c, 0, 64, 68
2,278589, Control_c, 0, 64, 62
2,278589, Note_on_c, 0, 44, 33
2,278601, Note_on_c, 0, 53, 0
2,278608, Control_c, 0, 64, 53
2,278628, Control_c, 0, 64, 47
2,278666, Control_c, 0, 64, 51
2,278685, Control_c, 0, 64, 58
2,278705, Control_c, 0, 64, 62
2,278723, Control_c, 0, 64, 64
2,278743, Control_c, 0, 64, 65
2,278762, Control_c, 0, 64, 67
2,278781, Control_c, 0, 64, 68
2,278800, Control_c, 0, 64, 70
2,278820, Control_c, 0, 64, 71
2,278839, Control_c, 0, 64, 73
2,278858, Control_c, 0, 64, 73
2,278960, Note_on_c, 0, 62, 0
2,278992, Control_c, 0, 64, 70
2,278998, Note_on_c, 0, 63, 48
2,279009, Note_on_c, 0, 42, 41
2,279011, Control_c, 0, 64, 64
2,279020, Note_on_c, 0, 54, 43
2,279031, Control_c, 0, 64, 55
2,279040, Note_on_c, 0, 44, 0
2,279050, Control_c, 0, 64, 48
2,279088, Control_c, 0, 64, 54
2,279108, Control_c, 0, 64, 59
2,279126, Control_c, 0, 64, 63
2,279146, Control_c, 0, 64, 64
2,279165, Control_c, 0, 64, 66
2,279165, Note_on_c, 0, 54, 0
2,279185, Control_c, 0, 64, 68
2,279203, Control_c, 0, 64, 70
2,279223, Control_c, 0, 64, 72
2,279242, Control_c, 0, 64, 74
2,279261, Control_c, 0, 64, 74
2,279374, Control_c, 0, 64, 72
2,279394, Control_c, 0, 64, 67
2,279404, Note_on_c, 0, 42, 0
2,279409, Note_on_c, 0, 65, 50
2,279412, Control_c, 0, 64, 59
2,279424, Note_on_c, 0, 41, 48
2,279432, Control_c, 0, 64, 47
2,279432, Note_on_c, 0, 56, 44
2,279451, Control_c, 0, 64, 43
2,279480, Note_on_c, 0, 63, 0
2,279489, Control_c, 0, 64, 49
2,279509, Control_c, 0, 64, 58
2,279528, Control_c, 0, 64, 62
2,279547, Control_c, 0, 64, 64
2,279566, Control_c, 0, 64, 67
2,279586, Control_c, 0, 64, 69
2,279605, Control_c, 0, 64, 73
2,279608, Note_on_c, 0, 56, 0
2,279624, Control_c, 0, 64, 76
2,279643, Control_c, 0, 64, 78
2,279663, Control_c, 0, 64, 79
2,279797, Control_c, 0, 64, 78
2,279816, Control_c, 0, 64, 72
2,279834, Note_on_c, 0, 66, 56
2,279835, Control_c, 0, 64, 64
2,279848, Note_on_c, 0, 65, 0
2,279854, Control_c, 0, 64, 53
2,279857, Note_on_c, 0, 39, 48
2,279874, Control_c, 0, 64, 46
2,279882, Note_on_c, 0, 41, 0
2,279882, Note_on_c, 0, 58, 41
2,279892, Control_c, 0, 64, 45
2,279912, Control_c, 0, 64, 49
2,279931, Control_c, 0, 64, 56
2,279951, Control_c, 0, 64, 61
2,279969, Control_c, 0, 64, 64
2,279989, Control_c, 0, 64, 66
2,280008, Control_c, 0, 64, 70
2,280027, Control_c, 0, 64, 73
2,280031, Note_on_c, 0, 58, 0
2,280046, Control_c, 0, 64, 76
2,280066, Control_c, 0, 64, 78
2,280181, Control_c, 0, 64, 78
2,280220, Control_c, 0, 64, 78
2,280238, Control_c, 0, 64, 72
2,280247, Note_on_c, 0, 67, 62
2,280258, Control_c, 0, 64, 64
2,280260, Note_on_c, 0, 49, 44
2,280266, Note_on_c, 0, 58, 49
2,280277, Control_c, 0, 64, 52
2,280289, Note_on_c, 0, 66, 0
2,280296, Control_c, 0, 64, 42
2,280323, Note_on_c, 0, 39, 0
2,280338, Control_c, 0, 64, 50
2,280356, Control_c, 0, 64, 58
2,280376, Control_c, 0, 64, 63
2,280394, Control_c, 0, 64, 65
2,280413, Control_c, 0, 64, 67
2,280432, Control_c, 0, 64, 70
2,280451, Control_c, 0, 64, 73
2,280471, Control_c, 0, 64, 77
2,280490, Control_c, 0, 64, 78
2,280506, Note_on_c, 0, 58, 0
2,280509, Control_c, 0, 64, 79
2,280625, Control_c, 0, 64, 78
2,280643, Control_c, 0, 64, 74
2,280650, Note_on_c, 0, 68, 71
2,280663, Control_c, 0, 64, 65
2,280671, Note_on_c, 0, 47, 53
2,280671, Note_on_c, 0, 67, 0
2,280682, Control_c, 0, 64, 50
2,280685, Note_on_c, 0, 59, 57
2,280701, Control_c, 0, 64, 32
2,280720, Control_c, 0, 64, 26
2,280721, Note_on_c, 0, 49, 0
2,280740, Control_c, 0, 64, 32
2,280759, Control_c, 0, 64, 49
2,280778, Control_c, 0, 64, 60
2,280797, Control_c, 0, 64, 64
2,280817, Control_c, 0, 64, 66
2,280836, Control_c, 0, 64, 68
2,280842, Note_on_c, 0, 59, 0
2,280854, Control_c, 0, 64, 70
2,280874, Control_c, 0, 64, 72
2,280893, Control_c, 0, 64, 74
2,280912, Control_c, 0, 64, 75
2,280931, Control_c, 0, 64, 75
2,281028, Control_c, 0, 64, 75
2,281046, Control_c, 0, 64, 70
2,281057, Note_on_c, 0, 46, 58
2,281059, Note_on_c, 0, 70, 72
2,281061, Note_on_c, 0, 61, 62
2,281066, Control_c, 0, 64, 62
2,281085, Control_c, 0, 64, 42
2,281096, Note_on_c, 0, 47, 0
2,281105, Control_c, 0, 64, 11
2,281123, Control_c, 0, 64, 0
2,281144, Note_on_c, 0, 68, 0
2,281162, Control_c, 0, 64, 34
2,281181, Control_c, 0, 64, 54
2,281200, Control_c, 0, 64, 62
2,281220, Control_c, 0, 64, 65
2,281239, Control_c, 0, 64, 67
2,281253, Note_on_c, 0, 61, 0
2,281258, Control_c, 0, 64, 69
2,281281, Control_c, 0, 64, 71
2,281301, Control_c, 0, 64, 73
2,281319, Control_c, 0, 64, 75
2,281339, Control_c, 0, 64, 76
2,281430, Control_c, 0, 64, 76
2,281466, Note_on_c, 0, 70, 0
2,281468, Control_c, 0, 64, 73
2,281470, Note_on_c, 0, 71, 74
2,281487, Control_c, 0, 64, 64
2,281490, Note_on_c, 0, 44, 56
2,281492, Note_on_c, 0, 46, 0
2,281501, Note_on_c, 0, 63, 56
2,281507, Control_c, 0, 64, 46
2,281526, Control_c, 0, 64, 0
2,281602, Control_c, 0, 64, 41
2,281622, Control_c, 0, 64, 58
2,281641, Control_c, 0, 64, 63
2,281661, Control_c, 0, 64, 66
2,281679, Control_c, 0, 64, 67
2,281699, Control_c, 0, 64, 68
2,281708, Note_on_c, 0, 63, 0
2,281718, Control_c, 0, 64, 69
2,281737, Control_c, 0, 64, 70
2,281756, Control_c, 0, 64, 71
2,281776, Control_c, 0, 64, 71
2,281795, Control_c, 0, 64, 72
2,281813, Control_c, 0, 64, 72
2,281852, Control_c, 0, 64, 71
2,281871, Control_c, 0, 64, 65
2,281872, Note_on_c, 0, 72, 76
2,281879, Note_on_c, 0, 63, 56
2,281890, Control_c, 0, 64, 54
2,281896, Note_on_c, 0, 54, 51
2,281910, Control_c, 0, 64, 36
2,281928, Note_on_c, 0, 71, 0
2,281929, Control_c, 0, 64, 26
2,281948, Control_c, 0, 64, 25
2,281965, Note_on_c, 0, 44, 0
2,281967, Control_c, 0, 64, 35
2,281987, Control_c, 0, 64, 53
2,282006, Control_c, 0, 64, 61
2,282025, Control_c, 0, 64, 64
2,282044, Control_c, 0, 64, 66
2,282050, Note_on_c, 0, 63, 0
2,282064, Control_c, 0, 64, 68
2,282082, Control_c, 0, 64, 70
2,282102, Control_c, 0, 64, 74
2,282121, Control_c, 0, 64, 77
2,282141, Control_c, 0, 64, 79
2,282159, Control_c, 0, 64, 78
2,282198, Control_c, 0, 64, 78
2,282235, Control_c, 0, 64, 78
2,282254, Control_c, 0, 64, 79
2,282274, Control_c, 0, 64, 78
2,282288, Note_on_c, 0, 74, 72
2,282292, Control_c, 0, 64, 70
2,282292, Note_on_c, 0, 53, 60
2,282303, Note_on_c, 0, 65, 52
2,282312, Control_c, 0, 64, 57
2,282325, Note_on_c, 0, 54, 0
2,282331, Control_c, 0, 64, 0
2,282348, Note_on_c, 0, 72, 0
2,282408, Control_c, 0, 64, 23
2,282427, Control_c, 0, 64, 55
2,282446, Control_c, 0, 64, 63
2,282466, Control_c, 0, 64, 65
2,282485, Control_c, 0, 64, 67
2,282504, Control_c, 0, 64, 69
2,282523, Control_c, 0, 64, 71
2,282543, Control_c, 0, 64, 73
2,282561, Control_c, 0, 64, 74
2,282600, Control_c, 0, 64, 74
2,282638, Control_c, 0, 64, 75
2,282658, Control_c, 0, 64, 75
2,282677, Control_c, 0, 64, 76
2,282715, Control_c, 0, 64, 72
2,282721, Note_on_c, 0, 75, 78
2,282726, Note_on_c, 0, 51, 57
2,282734, Control_c, 0, 64, 62
2,282738, Note_on_c, 0, 53, 0
2,282738, Note_on_c, 0, 65, 0
2,282742, Note_on_c, 0, 66, 67
2,282754, Control_c, 0, 64, 28
2,282762, Note_on_c, 0, 74, 0
2,282772, Control_c, 0, 64, 0
2,282831, Control_c, 0, 64, 34
2,282849, Control_c, 0, 64, 58
2,282869, Control_c, 0, 64, 64
2,282888, Control_c, 0, 64, 67
2,282907, Control_c, 0, 64, 70
2,282926, Control_c, 0, 64, 74
2,282939, Note_on_c, 0, 75, 0
2,282946, Control_c, 0, 64, 79
2,282965, Control_c, 0, 64, 81
2,283061, Control_c, 0, 64, 82
2,283080, Control_c, 0, 64, 83
2,283100, Control_c, 0, 64, 85
2,283118, Control_c, 0, 64, 89
2,283138, Control_c, 0, 64, 92
2,283157, Control_c, 0, 64, 93
2,283177, Note_on_c, 0, 51, 0
2,283197, Control_c, 0, 64, 90
2,283211, Note_on_c, 0, 75, 83
2,283217, Control_c, 0, 64, 77
2,283220, Note_on_c, 0, 65, 62
2,283236, Control_c, 0, 64, 62
2,283236, Note_on_c, 0, 58, 72
2,283254, Control_c, 0, 64, 0
2,283267, Note_on_c, 0, 66, 0
2,283350, Control_c, 0, 64, 41
2,283369, Control_c, 0, 64, 59
2,283388, Control_c, 0, 64, 62
2,283407, Control_c, 0, 64, 63
2,283465, Control_c, 0, 64, 63
2,283484, Control_c, 0, 64, 64
2,283504, Control_c, 0, 64, 67
2,283522, Control_c, 0, 64, 70
2,283542, Control_c, 0, 64, 73
2,283561, Control_c, 0, 64, 76
2,283581, Control_c, 0, 64, 78
2,283599, Control_c, 0, 64, 79
2,283619, Control_c, 0, 64, 80
2,283638, Control_c, 0, 64, 80
2,283657, Control_c, 0, 64, 81
2,283695, Control_c, 0, 64, 82
2,283713, Note_on_c, 0, 71, 78
2,283715, Control_c, 0, 64, 83
2,283718, Note_on_c, 0, 58, 0
2,283733, Control_c, 0, 64, 84
2,283753, Control_c, 0, 64, 86
2,283772, Control_c, 0, 64, 89
2,283791, Control_c, 0, 64, 89
2,283791, Note_on_c, 0, 75, 0
2,283868, Control_c, 0, 64, 89
2,283907, Control_c, 0, 64, 88
2,283984, Control_c, 0, 64, 89
2,284041, Control_c, 0, 64, 88
2,284061, Control_c, 0, 64, 88
2,284079, Control_c, 0, 64, 87
2,284195, Control_c, 0, 64, 88
2,284252, Control_c, 0, 64, 87
2,284253, Note_on_c, 0, 74, 76
2,284255, Note_on_c, 0, 70, 71
2,284266, Note_on_c, 0, 46, 56
2,284271, Control_c, 0, 64, 80
2,284290, Control_c, 0, 64, 68
2,284310, Control_c, 0, 64, 52
2,284319, Note_on_c, 0, 71, 0
2,284324, Note_on_c, 0, 65, 0
2,284329, Control_c, 0, 64, 0
2,284598, Control_c, 0, 64, 13
2,284636, Control_c, 0, 64, 15
2,284655, Control_c, 0, 64, 22
2,284675, Control_c, 0, 64, 29
2,284693, Control_c, 0, 64, 35
2,284713, Control_c, 0, 64, 37
2,284732, Control_c, 0, 64, 37
2,284751, Control_c, 0, 64, 38
2,284770, Control_c, 0, 64, 39
2,284790, Control_c, 0, 64, 40
2,284809, Control_c, 0, 64, 41
2,284828, Control_c, 0, 64, 42
2,284867, Control_c, 0, 64, 43
2,284882, Note_on_c, 0, 68, 75
2,284886, Control_c, 0, 64, 45
2,284905, Control_c, 0, 64, 50
2,284924, Control_c, 0, 64, 57
2,284944, Control_c, 0, 64, 62
2,284962, Control_c, 0, 64, 64
2,284982, Control_c, 0, 64, 67
2,285001, Control_c, 0, 64, 70
2,285021, Control_c, 0, 64, 74
2,285039, Control_c, 0, 64, 78
2,285057, Note_on_c, 0, 46, 0
2,285059, Control_c, 0, 64, 82
2,285078, Control_c, 0, 64, 84
2,285097, Control_c, 0, 64, 85
2,285117, Control_c, 0, 64, 86
2,285137, Control_c, 0, 64, 87
2,285156, Control_c, 0, 64, 87
2,285174, Control_c, 0, 64, 88
2,285193, Control_c, 0, 64, 88
2,285212, Control_c, 0, 64, 89
2,285221, Note_on_c, 0, 74, 0
2,285231, Control_c, 0, 64, 89
2,285250, Control_c, 0, 64, 90
2,285788, Control_c, 0, 64, 89
2,285807, Control_c, 0, 64, 89
2,285818, Note_on_c, 0, 75, 81
2,285827, Control_c, 0, 64, 87
2,285830, Note_on_c, 0, 67, 62
2,285840, Note_on_c, 0, 39, 60
2,285846, Control_c, 0, 64, 81
2,285865, Control_c, 0, 64, 72
2,285884, Control_c, 0, 64, 64
2,285890, Note_on_c, 0, 68, 0
2,285902, Note_on_c, 0, 70, 0
2,285904, Control_c, 0, 64, 54
2,285922, Control_c, 0, 64, 44
2,285942, Control_c, 0, 64, 35
2,285961, Control_c, 0, 64, 27
2,285981, Control_c, 0, 64, 23
2,285999, Control_c, 0, 64, 22
2,286038, Control_c, 0, 64, 23
2,286057, Control_c, 0, 64, 24
2,286099, Control_c, 0, 64, 25
2,286117, Control_c, 0, 64, 27
2,286137, Control_c, 0, 64, 28
2,286231, Control_c, 0, 64, 29
2,286250, Control_c, 0, 64, 32
2,286269, Control_c, 0, 64, 34
2,286288, Control_c, 0, 64, 36
2,286308, Control_c, 0, 64, 37
2,286385, Control_c, 0, 64, 38
2,286403, Control_c, 0, 64, 39
2,286423, Control_c, 0, 64, 41
2,286442, Control_c, 0, 64, 42
2,286461, Control_c, 0, 64, 43
2,286480, Control_c, 0, 64, 44
2,286532, Control_c, 0, 64, 45
2,286590, Control_c, 0, 64, 45
2,286609, Control_c, 0, 64, 46
2,286628, Control_c, 0, 64, 46
2,286648, Control_c, 0, 64, 47
2,286666, Control_c, 0, 64, 47
2,286686, Control_c, 0, 64, 48
2,286705, Control_c, 0, 64, 48
2,286801, Control_c, 0, 64, 49
2,286820, Control_c, 0, 64, 49
2,286840, Control_c, 0, 64, 50
2,286859, Control_c, 0, 64, 51
2,286878, Control_c, 0, 64, 51
2,286917, Control_c, 0, 64, 52
2,286974, Control_c, 0, 64, 52
2,287012, Control_c, 0, 64, 53
2,287030, Control_c, 0, 64, 53
2,287050, Control_c, 0, 64, 54
2,287069, Control_c, 0, 64, 55
2,287088, Control_c, 0, 64, 55
2,287126, Control_c, 0, 64, 56
2,287183, Control_c, 0, 64, 56
2,287203, Control_c, 0, 64, 57
2,287221, Control_c, 0, 64, 57
2,287260, Control_c, 0, 64, 58
2,287298, Control_c, 0, 64, 58
2,287318, Control_c, 0, 64, 59
2,287567, Control_c, 0, 64, 59
2,287644, Control_c, 0, 64, 60
2,287663, Control_c, 0, 64, 60
2,287683, Control_c, 0, 64, 61
2,287721, Control_c, 0, 64, 61
2,287798, Control_c, 0, 64, 62
2,287875, Control_c, 0, 64, 62
2,287970, Control_c, 0, 64, 63
2,288066, Control_c, 0, 64, 63
2,288240, Control_c, 0, 64, 64
2,288335, Control_c, 0, 64, 64
2,288450, Control_c, 0, 64, 65
2,288508, Control_c, 0, 64, 65
2,288700, Control_c, 0, 64, 66
2,288738, Control_c, 0, 64, 66
2,288758, Control_c, 0, 64, 67
2,288777, Control_c, 0, 64, 67
2,288796, Control_c, 0, 64, 68
2,288815, Control_c, 0, 64, 68
2,288835, Control_c, 0, 64, 69
2,288854, Control_c, 0, 64, 70
2,288872, Control_c, 0, 64, 70
2,288892, Control_c, 0, 64, 71
2,288911, Control_c, 0, 64, 71
2,288930, Control_c, 0, 64, 72
2,288951, Control_c, 0, 64, 72
2,288971, Control_c, 0, 64, 73
2,288990, Control_c, 0, 64, 74
2,289029, Control_c, 0, 64, 74
2,289049, Control_c, 0, 64, 75
2,289067, Control_c, 0, 64, 76
2,289087, Control_c, 0, 64, 76
2,289106, Control_c, 0, 64, 77
2,289126, Control_c, 0, 64, 78
2,289144, Control_c, 0, 64, 79
2,289164, Control_c, 0, 64, 80
2,289183, Control_c, 0, 64, 82
2,289202, Control_c, 0, 64, 83
2,289221, Control_c, 0, 64, 84
2,289241, Control_c, 0, 64, 84
2,289260, Control_c, 0, 64, 85
2,289279, Control_c, 0, 64, 86
2,289298, Control_c, 0, 64, 87
2,289318, Control_c, 0, 64, 88
2,289336, Control_c, 0, 64, 89
2,289375, Control_c, 0, 64, 89
2,289432, Control_c, 0, 64, 90
2,289624, Control_c, 0, 64, 89
2,289644, Control_c, 0, 64, 89
2,289663, Control_c, 0, 64, 88
2,289682, Control_c, 0, 64, 87
2,289701, Control_c, 0, 64, 85
2,289721, Control_c, 0, 64, 84
2,289740, Control_c, 0, 64, 82
2,289759, Control_c, 0, 64, 80
2,289778, Control_c, 0, 64, 78
2,289798, Control_c, 0, 64, 77
2,289816, Control_c, 0, 64, 76
2,289836, Control_c, 0, 64, 75
2,289855, Control_c, 0, 64, 75
2,289875, Control_c, 0, 64, 74
2,289893, Control_c, 0, 64, 74
2,289912, Control_c, 0, 64, 73
2,289932, Control_c, 0, 64, 73
2,289950, Control_c, 0, 64, 72
2,289970, Control_c, 0, 64, 71
2,289987, Control_c, 0, 64, 71
2,290007, Control_c, 0, 64, 70
2,290025, Control_c, 0, 64, 70
2,290045, Control_c, 0, 64, 69
2,290050, Note_on_c, 0, 67, 0
2,290060, Note_on_c, 0, 39, 0
2,290064, Control_c, 0, 64, 68
2,290084, Control_c, 0, 64, 67
2,290087, Note_on_c, 0, 75, 0
2,290102, Control_c, 0, 64, 67
2,290122, Control_c, 0, 64, 66
2,290141, Control_c, 0, 64, 66
2,290161, Control_c, 0, 64, 65
2,290179, Control_c, 0, 64, 64
2,290199, Control_c, 0, 64, 64
2,290218, Control_c, 0, 64, 63
2,290237, Control_c, 0, 64, 63
2,290276, Control_c, 0, 64, 62
2,290313, Control_c, 0, 64, 61
2,290333, Control_c, 0, 64, 61
2,290352, Control_c, 0, 64, 60
2,290371, Control_c, 0, 64, 60
2,290390, Control_c, 0, 64, 59
2,290410, Control_c, 0, 64, 59
2,290429, Control_c, 0, 64, 58
2,290448, Control_c, 0, 64, 58
2,290467, Control_c, 0, 64, 57
2,290505, Control_c, 0, 64, 57
2,290525, Control_c, 0, 64, 56
2,290602, Control_c, 0, 64, 56
2,290698, Control_c, 0, 64, 55
2,290890, Control_c, 0, 64, 56
2,290985, Control_c, 0, 64, 56
2,291061, Control_c, 0, 64, 57
2,291177, Control_c, 0, 64, 57
2,291178, End_track
0, 0, End_of_file
