0, 0, Header, 1, 2, 480
1, 0, Start_track
1, 0, Tempo, 500000
1, 0, Time_signature, 4, 2, 24, 8
1, 1, End_track
2, 0, Start_track
2, 0, Program_c, 0, 0
2, 0, Control_c, 0, 64, 76
2, 756, Control_c, 0, 64, 76
2, 833, Control_c, 0, 64, 75
2, 851, Control_c, 0, 64, 75
2, 890, Control_c, 0, 64, 74
2, 928, Control_c, 0, 64, 74
2, 946, Control_c, 0, 64, 73
2, 960, Note_on_c, 0, 70, 48
2, 965, Control_c, 0, 64, 73
2, 973, Note_on_c, 0, 66, 39
2, 984, Control_c, 0, 64, 72
2, 1003, Control_c, 0, 64, 71
2, 1004, Note_on_c, 0, 63, 31
2, 1023, Control_c, 0, 64, 69
2, 1042, Control_c, 0, 64, 67
2, 1061, Control_c, 0, 64, 65
2, 1080, Control_c, 0, 64, 64
2, 1099, Control_c, 0, 64, 62
2, 1118, Control_c, 0, 64, 60
2, 1137, Control_c, 0, 64, 58
2, 1157, Control_c, 0, 64, 57
2, 1176, Control_c, 0, 64, 56
2, 1195, Control_c, 0, 64, 57
2, 1214, Control_c, 0, 64, 58
2, 1234, Control_c, 0, 64, 60
2, 1253, Control_c, 0, 64, 62
2, 1272, Control_c, 0, 64, 63
2, 1291, Control_c, 0, 64, 64
2, 1311, Control_c, 0, 64, 65
2, 1329, Control_c, 0, 64, 66
2, 1348, Control_c, 0, 64, 67
2, 1367, Control_c, 0, 64, 68
2, 1387, Control_c, 0, 64, 70
2, 1405, Control_c, 0, 64, 72
2, 1425, Control_c, 0, 64, 73
2, 1444, Control_c, 0, 64, 74
2, 1482, Control_c, 0, 64, 75
2, 1521, Control_c, 0, 64, 75
2, 1539, Control_c, 0, 64, 76
2, 1559, Control_c, 0, 64, 76
2, 1578, Control_c, 0, 64, 77
2, 1583, Note_on_c, 0, 66, 0
2, 1598, Control_c, 0, 64, 77
2, 1612, Note_on_c, 0, 63, 0
2, 1905, Control_c, 0, 64, 77
2, 2039, Control_c, 0, 64, 76
2, 2154, Control_c, 0, 64, 76
2, 2193, Control_c, 0, 64, 75
2, 2250, Control_c, 0, 64, 75
2, 2288, Control_c, 0, 64, 74
2, 2308, Control_c, 0, 64, 73
2, 2327, Control_c, 0, 64, 72
2, 2335, Note_on_c, 0, 66, 26
2, 2347, Control_c, 0, 64, 71
2, 2352, Note_on_c, 0, 63, 27
2, 2365, Control_c, 0, 64, 70
2, 2368, Note_on_c, 0, 70, 0
2, 2385, Control_c, 0, 64, 68
2, 2404, Control_c, 0, 64, 66
2, 2423, Control_c, 0, 64, 64
2, 2442, Control_c, 0, 64, 62
2, 2462, Control_c, 0, 64, 59
2, 2481, Control_c, 0, 64, 56
2, 2499, Control_c, 0, 64, 53
2, 2519, Control_c, 0, 64, 51
2, 2538, Control_c, 0, 64, 50
2, 2558, Control_c, 0, 64, 50
2, 2576, Control_c, 0, 64, 51
2, 2596, Control_c, 0, 64, 54
2, 2615, Control_c, 0, 64, 57
2, 2634, Control_c, 0, 64, 60
2, 2653, Control_c, 0, 64, 62
2, 2673, Control_c, 0, 64, 63
2, 2692, Control_c, 0, 64, 64
2, 2711, Control_c, 0, 64, 65
2, 2730, Control_c, 0, 64, 65
2, 2750, Control_c, 0, 64, 66
2, 2768, Control_c, 0, 64, 67
2, 2788, Control_c, 0, 64, 67
2, 2807, Control_c, 0, 64, 68
2, 2827, Control_c, 0, 64, 69
2, 2845, Control_c, 0, 64, 69
2, 2865, Control_c, 0, 64, 70
2, 2884, Control_c, 0, 64, 71
2, 2903, Control_c, 0, 64, 72
2, 2915, Note_on_c, 0, 66, 0
2, 2921, Control_c, 0, 64, 72
2, 2940, Control_c, 0, 64, 73
2, 2963, Note_on_c, 0, 63, 0
2, 2978, Control_c, 0, 64, 73
2, 3055, Control_c, 0, 64, 74
2, 3094, Control_c, 0, 64, 74
2, 3113, Control_c, 0, 64, 75
2, 3289, Control_c, 0, 64, 74
2, 3478, Control_c, 0, 64, 74
2, 3540, Note_on_c, 0, 70, 43
2, 3593, Control_c, 0, 64, 73
2, 3670, Control_c, 0, 64, 73
2, 3709, Control_c, 0, 64, 72
2, 3747, Control_c, 0, 64, 72
2, 3786, Control_c, 0, 64, 71
2, 3804, Control_c, 0, 64, 71
2, 3824, Control_c, 0, 64, 70
2, 3843, Control_c, 0, 64, 69
2, 3862, Control_c, 0, 64, 67
2, 3865, Note_on_c, 0, 75, 56
2, 3881, Control_c, 0, 64, 66
2, 3892, Note_on_c, 0, 70, 0
2, 3897, Note_on_c, 0, 66, 29
2, 3900, Control_c, 0, 64, 64
2, 3912, Note_on_c, 0, 63, 26
2, 3920, Control_c, 0, 64, 62
2, 3938, Control_c, 0, 64, 59
2, 3958, Control_c, 0, 64, 55
2, 3977, Control_c, 0, 64, 51
2, 3997, Control_c, 0, 64, 47
2, 4015, Control_c, 0, 64, 46
2, 4035, Control_c, 0, 64, 47
2, 4054, Control_c, 0, 64, 48
2, 4073, Control_c, 0, 64, 51
2, 4092, Control_c, 0, 64, 55
2, 4112, Control_c, 0, 64, 59
2, 4131, Control_c, 0, 64, 61
2, 4150, Control_c, 0, 64, 63
2, 4169, Control_c, 0, 64, 64
2, 4189, Control_c, 0, 64, 64
2, 4207, Control_c, 0, 64, 65
2, 4227, Control_c, 0, 64, 66
2, 4246, Control_c, 0, 64, 67
2, 4266, Control_c, 0, 64, 68
2, 4284, Control_c, 0, 64, 69
2, 4294, Note_on_c, 0, 66, 0
2, 4303, Control_c, 0, 64, 70
2, 4322, Control_c, 0, 64, 71
2, 4342, Control_c, 0, 64, 71
2, 4345, Note_on_c, 0, 63, 0
2, 4360, Control_c, 0, 64, 72
2, 4379, Control_c, 0, 64, 72
2, 4417, Control_c, 0, 64, 73
2, 4456, Control_c, 0, 64, 73
2, 4476, Control_c, 0, 64, 74
2, 4514, Control_c, 0, 64, 74
2, 4822, Control_c, 0, 64, 74
2, 4917, Control_c, 0, 64, 73
2, 5003, Note_on_c, 0, 78, 53
2, 5013, Control_c, 0, 64, 73
2, 5051, Control_c, 0, 64, 72
2, 5062, Note_on_c, 0, 75, 0
2, 5148, Control_c, 0, 64, 72
2, 5167, Control_c, 0, 64, 71
2, 5205, Control_c, 0, 64, 71
2, 5243, Control_c, 0, 64, 70
2, 5282, Control_c, 0, 64, 70
2, 5339, Control_c, 0, 64, 69
2, 5359, Control_c, 0, 64, 68
2, 5363, Note_on_c, 0, 71, 49
2, 5370, Note_on_c, 0, 78, 0
2, 5377, Control_c, 0, 64, 67
2, 5397, Control_c, 0, 64, 66
2, 5406, Note_on_c, 0, 68, 29
2, 5412, Note_on_c, 0, 63, 25
2, 5416, Control_c, 0, 64, 63
2, 5436, Control_c, 0, 64, 60
2, 5454, Control_c, 0, 64, 56
2, 5474, Control_c, 0, 64, 50
2, 5493, Control_c, 0, 64, 43
2, 5512, Control_c, 0, 64, 36
2, 5531, Control_c, 0, 64, 32
2, 5570, Control_c, 0, 64, 36
2, 5589, Control_c, 0, 64, 45
2, 5608, Control_c, 0, 64, 52
2, 5628, Control_c, 0, 64, 58
2, 5647, Control_c, 0, 64, 61
2, 5666, Control_c, 0, 64, 63
2, 5685, Control_c, 0, 64, 64
2, 5705, Control_c, 0, 64, 64
2, 5723, Control_c, 0, 64, 65
2, 5737, Note_on_c, 0, 68, 0
2, 5743, Control_c, 0, 64, 66
2, 5762, Control_c, 0, 64, 67
2, 5782, Control_c, 0, 64, 67
2, 5800, Control_c, 0, 64, 68
2, 5819, Control_c, 0, 64, 69
2, 5820, Note_on_c, 0, 63, 0
2, 5839, Control_c, 0, 64, 70
2, 5857, Control_c, 0, 64, 71
2, 5875, Note_on_c, 0, 71, 0
2, 5877, Control_c, 0, 64, 71
2, 6203, Control_c, 0, 64, 71
2, 6318, Control_c, 0, 64, 70
2, 6413, Control_c, 0, 64, 70
2, 6529, Control_c, 0, 64, 69
2, 6587, Control_c, 0, 64, 69
2, 6644, Control_c, 0, 64, 68
2, 6682, Control_c, 0, 64, 68
2, 6740, Control_c, 0, 64, 67
2, 6759, Control_c, 0, 64, 67
2, 6778, Control_c, 0, 64, 66
2, 6798, Control_c, 0, 64, 66
2, 6801, Note_on_c, 0, 71, 19
2, 6804, Note_on_c, 0, 68, 7
2, 6817, Control_c, 0, 64, 64
2, 6818, Note_on_c, 0, 63, 19
2, 6836, Control_c, 0, 64, 63
2, 6855, Control_c, 0, 64, 61
2, 6875, Control_c, 0, 64, 58
2, 6893, Control_c, 0, 64, 54
2, 6913, Control_c, 0, 64, 46
2, 6932, Control_c, 0, 64, 38
2, 6952, Control_c, 0, 64, 25
2, 6970, Control_c, 0, 64, 13
2, 6990, Control_c, 0, 64, 11
2, 7009, Control_c, 0, 64, 18
2, 7028, Control_c, 0, 64, 31
2, 7047, Control_c, 0, 64, 44
2, 7067, Control_c, 0, 64, 52
2, 7086, Control_c, 0, 64, 57
2, 7105, Control_c, 0, 64, 59
2, 7124, Control_c, 0, 64, 61
2, 7144, Control_c, 0, 64, 62
2, 7162, Control_c, 0, 64, 63
2, 7182, Control_c, 0, 64, 64
2, 7220, Control_c, 0, 64, 64
2, 7240, Note_on_c, 0, 68, 0
2, 7278, Control_c, 0, 64, 65
2, 7297, Control_c, 0, 64, 65
2, 7299, Note_on_c, 0, 63, 0
2, 7316, Control_c, 0, 64, 66
2, 7335, Control_c, 0, 64, 66
2, 7373, Control_c, 0, 64, 67
2, 7470, Control_c, 0, 64, 67
2, 7681, Control_c, 0, 64, 68
2, 7719, Control_c, 0, 64, 68
2, 7758, Control_c, 0, 64, 69
2, 7835, Control_c, 0, 64, 69
2, 7873, Control_c, 0, 64, 70
2, 7892, Control_c, 0, 64, 70
2, 7930, Control_c, 0, 64, 71
2, 8008, Note_on_c, 0, 75, 54
2, 8069, Note_on_c, 0, 71, 0
2, 8257, Control_c, 0, 64, 70
2, 8296, Control_c, 0, 64, 69
2, 8316, Control_c, 0, 64, 68
2, 8324, Note_on_c, 0, 80, 68
2, 8334, Control_c, 0, 64, 64
2, 8337, Note_on_c, 0, 71, 45
2, 8354, Control_c, 0, 64, 58
2, 8354, Note_on_c, 0, 68, 32
2, 8360, Note_on_c, 0, 63, 37
2, 8369, Note_on_c, 0, 75, 0
2, 8373, Control_c, 0, 64, 44
2, 8392, Control_c, 0, 64, 24
2, 8411, Control_c, 0, 64, 0
2, 8469, Control_c, 0, 64, 30
2, 8488, Control_c, 0, 64, 49
2, 8508, Control_c, 0, 64, 59
2, 8527, Control_c, 0, 64, 62
2, 8546, Control_c, 0, 64, 64
2, 8565, Control_c, 0, 64, 65
2, 8585, Control_c, 0, 64, 66
2, 8603, Control_c, 0, 64, 66
2, 8623, Control_c, 0, 64, 67
2, 8642, Control_c, 0, 64, 69
2, 8661, Control_c, 0, 64, 70
2, 8680, Control_c, 0, 64, 71
2, 8699, Control_c, 0, 64, 72
2, 8719, Control_c, 0, 64, 73
2, 8737, Control_c, 0, 64, 74
2, 8752, Note_on_c, 0, 68, 0
2, 8757, Control_c, 0, 64, 75
2, 8776, Control_c, 0, 64, 76
2, 8853, Control_c, 0, 64, 75
2, 8876, Note_on_c, 0, 63, 0
2, 8949, Control_c, 0, 64, 76
2, 9046, Control_c, 0, 64, 75
2, 9429, Control_c, 0, 64, 75
2, 9477, Note_on_c, 0, 83, 61
2, 9662, Control_c, 0, 64, 74
2, 9780, Note_on_c, 0, 83, 0
2, 9797, Control_c, 0, 64, 74
2, 9826, Note_on_c, 0, 74, 54
2, 9835, Control_c, 0, 64, 73
2, 9854, Control_c, 0, 64, 71
2, 9870, Note_on_c, 0, 65, 27
2, 9874, Control_c, 0, 64, 68
2, 9890, Note_on_c, 0, 68, 28
2, 9893, Control_c, 0, 64, 65
2, 9900, Note_on_c, 0, 63, 25
2, 9900, Note_on_c, 0, 71, 0
2, 9911, Control_c, 0, 64, 61
2, 9931, Control_c, 0, 64, 56
2, 9947, Note_on_c, 0, 80, 0
2, 9950, Control_c, 0, 64, 47
2, 9970, Control_c, 0, 64, 30
2, 9988, Control_c, 0, 64, 0
2, 10142, Control_c, 0, 64, 35
2, 10162, Control_c, 0, 64, 54
2, 10180, Control_c, 0, 64, 59
2, 10200, Control_c, 0, 64, 62
2, 10219, Control_c, 0, 64, 63
2, 10239, Control_c, 0, 64, 64
2, 10257, Control_c, 0, 64, 65
2, 10277, Control_c, 0, 64, 66
2, 10296, Control_c, 0, 64, 67
2, 10315, Control_c, 0, 64, 68
2, 10334, Control_c, 0, 64, 69
2, 10354, Control_c, 0, 64, 70
2, 10373, Control_c, 0, 64, 71
2, 10391, Control_c, 0, 64, 71
2, 10411, Control_c, 0, 64, 72
2, 10412, Note_on_c, 0, 68, 0
2, 10430, Control_c, 0, 64, 73
2, 10450, Control_c, 0, 64, 73
2, 10462, Note_on_c, 0, 65, 0
2, 10468, Control_c, 0, 64, 74
2, 10488, Control_c, 0, 64, 75
2, 10506, Note_on_c, 0, 63, 0
2, 10507, Control_c, 0, 64, 76
2, 10526, Control_c, 0, 64, 76
2, 10584, Control_c, 0, 64, 77
2, 10622, Control_c, 0, 64, 77
2, 10776, Control_c, 0, 64, 77
2, 10891, Control_c, 0, 64, 76
2, 10970, Control_c, 0, 64, 76
2, 11045, Control_c, 0, 64, 75
2, 11102, Control_c, 0, 64, 75
2, 11160, Control_c, 0, 64, 74
2, 11217, Control_c, 0, 64, 74
2, 11218, Note_on_c, 0, 74, 0
2, 11237, Control_c, 0, 64, 73
2, 11256, Control_c, 0, 64, 72
2, 11263, Note_on_c, 0, 65, 21
2, 11270, Note_on_c, 0, 62, 26
2, 11274, Note_on_c, 0, 68, 30
2, 11275, Control_c, 0, 64, 71
2, 11294, Control_c, 0, 64, 69
2, 11314, Control_c, 0, 64, 67
2, 11333, Control_c, 0, 64, 65
2, 11351, Control_c, 0, 64, 62
2, 11371, Control_c, 0, 64, 58
2, 11390, Control_c, 0, 64, 54
2, 11410, Control_c, 0, 64, 46
2, 11428, Control_c, 0, 64, 40
2, 11448, Control_c, 0, 64, 32
2, 11467, Control_c, 0, 64, 22
2, 11486, Control_c, 0, 64, 11
2, 11505, Control_c, 0, 64, 0
2, 11602, Control_c, 0, 64, 20
2, 11620, Control_c, 0, 64, 36
2, 11640, Control_c, 0, 64, 47
2, 11659, Control_c, 0, 64, 55
2, 11679, Control_c, 0, 64, 59
2, 11697, Control_c, 0, 64, 61
2, 11717, Control_c, 0, 64, 62
2, 11736, Control_c, 0, 64, 63
2, 11755, Control_c, 0, 64, 64
2, 11774, Control_c, 0, 64, 64
2, 11793, Control_c, 0, 64, 65
2, 11813, Control_c, 0, 64, 65
2, 11831, Control_c, 0, 64, 66
2, 11870, Control_c, 0, 64, 66
2, 11890, Control_c, 0, 64, 67
2, 11909, Control_c, 0, 64, 67
2, 11929, Control_c, 0, 64, 68
2, 11948, Control_c, 0, 64, 70
2, 11967, Control_c, 0, 64, 71
2, 11985, Control_c, 0, 64, 72
2, 12005, Control_c, 0, 64, 72
2, 12082, Control_c, 0, 64, 73
2, 12121, Note_on_c, 0, 62, 0
2, 12265, Note_on_c, 0, 65, 0
2, 12426, Note_on_c, 0, 77, 46
2, 12465, Control_c, 0, 64, 72
2, 12525, Note_on_c, 0, 68, 0
2, 12600, Control_c, 0, 64, 72
2, 12639, Control_c, 0, 64, 71
2, 12648, Note_on_c, 0, 62, 22
2, 12677, Control_c, 0, 64, 71
2, 12715, Control_c, 0, 64, 70
2, 12723, Note_on_c, 0, 77, 0
2, 12734, Control_c, 0, 64, 70
2, 12753, Control_c, 0, 64, 69
2, 12773, Control_c, 0, 64, 67
2, 12773, Note_on_c, 0, 65, 25
2, 12791, Control_c, 0, 64, 66
2, 12792, Note_on_c, 0, 70, 48
2, 12811, Control_c, 0, 64, 65
2, 12830, Control_c, 0, 64, 64
2, 12847, Note_on_c, 0, 70, 0
2, 12850, Control_c, 0, 64, 63
2, 12868, Control_c, 0, 64, 61
2, 12876, Note_on_c, 0, 68, 52
2, 12888, Control_c, 0, 64, 58
2, 12907, Control_c, 0, 64, 53
2, 12926, Control_c, 0, 64, 48
2, 12934, Note_on_c, 0, 68, 0
2, 12946, Control_c, 0, 64, 43
2, 12965, Note_on_c, 0, 70, 58
2, 12966, Control_c, 0, 64, 39
2, 12985, Control_c, 0, 64, 35
2, 13004, Control_c, 0, 64, 31
2, 13023, Control_c, 0, 64, 24
2, 13043, Control_c, 0, 64, 11
2, 13056, Note_on_c, 0, 70, 0
2, 13061, Control_c, 0, 64, 0
2, 13070, Note_on_c, 0, 68, 46
2, 13235, Control_c, 0, 64, 15
2, 13254, Control_c, 0, 64, 25
2, 13272, Control_c, 0, 64, 34
2, 13292, Control_c, 0, 64, 43
2, 13311, Control_c, 0, 64, 51
2, 13330, Control_c, 0, 64, 57
2, 13349, Control_c, 0, 64, 59
2, 13369, Control_c, 0, 64, 60
2, 13388, Control_c, 0, 64, 61
2, 13407, Control_c, 0, 64, 62
2, 13426, Control_c, 0, 64, 63
2, 13446, Control_c, 0, 64, 64
2, 13465, Control_c, 0, 64, 64
2, 13503, Control_c, 0, 64, 65
2, 13561, Control_c, 0, 64, 65
2, 13580, Control_c, 0, 64, 66
2, 13618, Control_c, 0, 64, 66
2, 13695, Control_c, 0, 64, 67
2, 13710, Note_on_c, 0, 68, 0
2, 13772, Control_c, 0, 64, 67
2, 13778, Note_on_c, 0, 66, 39
2, 13810, Control_c, 0, 64, 68
2, 13897, Note_on_c, 0, 66, 0
2, 13950, Note_on_c, 0, 68, 50
2, 14060, Control_c, 0, 64, 67
2, 14060, Note_on_c, 0, 68, 0
2, 14106, Note_on_c, 0, 70, 53
2, 14137, Control_c, 0, 64, 67
2, 14175, Control_c, 0, 64, 66
2, 14214, Control_c, 0, 64, 66
2, 14232, Control_c, 0, 64, 65
2, 14252, Control_c, 0, 64, 64
2, 14260, Note_on_c, 0, 63, 30
2, 14269, Note_on_c, 0, 65, 0
2, 14271, Control_c, 0, 64, 63
2, 14290, Control_c, 0, 64, 63
2, 14309, Control_c, 0, 64, 62
2, 14329, Control_c, 0, 64, 61
2, 14340, Note_on_c, 0, 62, 0
2, 14348, Control_c, 0, 64, 60
2, 14366, Note_on_c, 0, 70, 0
2, 14367, Control_c, 0, 64, 58
2, 14379, Note_on_c, 0, 68, 50
2, 14386, Control_c, 0, 64, 57
2, 14406, Control_c, 0, 64, 56
2, 14425, Control_c, 0, 64, 55
2, 14444, Control_c, 0, 64, 54
2, 14463, Control_c, 0, 64, 52
2, 14483, Control_c, 0, 64, 50
2, 14501, Control_c, 0, 64, 49
2, 14512, Note_on_c, 0, 68, 0
2, 14521, Control_c, 0, 64, 47
2, 14540, Control_c, 0, 64, 46
2, 14556, Note_on_c, 0, 66, 51
2, 14560, Control_c, 0, 64, 44
2, 14578, Control_c, 0, 64, 43
2, 14598, Control_c, 0, 64, 42
2, 14611, Note_on_c, 0, 66, 0
2, 14617, Control_c, 0, 64, 40
2, 14636, Control_c, 0, 64, 39
2, 14655, Control_c, 0, 64, 36
2, 14664, Note_on_c, 0, 68, 54
2, 14675, Control_c, 0, 64, 35
2, 14694, Control_c, 0, 64, 34
2, 14708, Note_on_c, 0, 68, 0
2, 14712, Control_c, 0, 64, 32
2, 14726, Note_on_c, 0, 66, 59
2, 14732, Control_c, 0, 64, 29
2, 14751, Control_c, 0, 64, 26
2, 14770, Control_c, 0, 64, 21
2, 14782, Note_on_c, 0, 66, 0
2, 14787, Control_c, 0, 64, 13
2, 14807, Control_c, 0, 64, 0
2, 14814, Note_on_c, 0, 68, 52
2, 14856, Note_on_c, 0, 68, 0
2, 14904, Note_on_c, 0, 66, 27
2, 14935, Note_on_c, 0, 66, 0
2, 14971, Note_on_c, 0, 68, 47
2, 15024, Note_on_c, 0, 68, 0
2, 15069, Note_on_c, 0, 66, 38
2, 15113, Control_c, 0, 64, 26
2, 15132, Control_c, 0, 64, 39
2, 15151, Control_c, 0, 64, 48
2, 15171, Control_c, 0, 64, 55
2, 15190, Control_c, 0, 64, 58
2, 15209, Control_c, 0, 64, 60
2, 15228, Control_c, 0, 64, 62
2, 15248, Control_c, 0, 64, 63
2, 15266, Control_c, 0, 64, 64
2, 15286, Control_c, 0, 64, 64
2, 15305, Control_c, 0, 64, 65
2, 15331, Note_on_c, 0, 63, 0
2, 15343, Control_c, 0, 64, 65
2, 15382, Control_c, 0, 64, 66
2, 15401, Control_c, 0, 64, 66
2, 15420, Control_c, 0, 64, 67
2, 15440, Control_c, 0, 64, 68
2, 15459, Control_c, 0, 64, 68
2, 15478, Control_c, 0, 64, 69
2, 15670, Control_c, 0, 64, 68
2, 15735, Note_on_c, 0, 65, 33
2, 15827, Control_c, 0, 64, 68
2, 15900, Note_on_c, 0, 65, 0
2, 15933, Note_on_c, 0, 63, 33
2, 15981, Control_c, 0, 64, 67
2, 16058, Control_c, 0, 64, 67
2, 16065, Note_on_c, 0, 66, 0
2, 16077, Control_c, 0, 64, 66
2, 16096, Control_c, 0, 64, 66
2, 16116, Control_c, 0, 64, 64
2, 16135, Control_c, 0, 64, 63
2, 16136, Note_on_c, 0, 63, 0
2, 16153, Control_c, 0, 64, 62
2, 16153, Note_on_c, 0, 78, 48
2, 16173, Control_c, 0, 64, 59
2, 16192, Control_c, 0, 64, 55
2, 16211, Control_c, 0, 64, 47
2, 16230, Control_c, 0, 64, 41
2, 16250, Control_c, 0, 64, 32
2, 16269, Control_c, 0, 64, 20
2, 16288, Control_c, 0, 64, 0
2, 16480, Control_c, 0, 64, 24
2, 16499, Control_c, 0, 64, 40
2, 16519, Control_c, 0, 64, 50
2, 16538, Control_c, 0, 64, 55
2, 16557, Control_c, 0, 64, 58
2, 16576, Control_c, 0, 64, 60
2, 16596, Control_c, 0, 64, 61
2, 16615, Control_c, 0, 64, 62
2, 16633, Control_c, 0, 64, 63
2, 16653, Control_c, 0, 64, 63
2, 16691, Control_c, 0, 64, 64
2, 16728, Control_c, 0, 64, 64
2, 16733, Note_on_c, 0, 78, 0
2, 16766, Control_c, 0, 64, 65
2, 16785, Control_c, 0, 64, 65
2, 16805, Control_c, 0, 64, 66
2, 16824, Control_c, 0, 64, 66
2, 16862, Control_c, 0, 64, 67
2, 16939, Control_c, 0, 64, 67
2, 16959, Control_c, 0, 64, 68
2, 16977, Control_c, 0, 64, 68
2, 17016, Control_c, 0, 64, 69
2, 17188, Control_c, 0, 64, 69
2, 17208, Control_c, 0, 64, 70
2, 17227, Control_c, 0, 64, 70
2, 17261, Note_on_c, 0, 58, 36
2, 17323, Control_c, 0, 64, 71
2, 17362, Control_c, 0, 64, 71
2, 17380, Control_c, 0, 64, 72
2, 17383, Note_on_c, 0, 66, 37
2, 17445, Note_on_c, 0, 70, 50
2, 17553, Control_c, 0, 64, 71
2, 17559, Note_on_c, 0, 75, 40
2, 17573, Control_c, 0, 64, 70
2, 17591, Control_c, 0, 64, 69
2, 17611, Control_c, 0, 64, 67
2, 17615, Note_on_c, 0, 78, 56
2, 17630, Control_c, 0, 64, 65
2, 17637, Note_on_c, 0, 54, 41
2, 17650, Control_c, 0, 64, 62
2, 17668, Control_c, 0, 64, 57
2, 17688, Control_c, 0, 64, 50
2, 17701, Note_on_c, 0, 58, 0
2, 17707, Control_c, 0, 64, 40
2, 17726, Control_c, 0, 64, 27
2, 17745, Control_c, 0, 64, 19
2, 17765, Control_c, 0, 64, 18
2, 17784, Control_c, 0, 64, 21
2, 17803, Control_c, 0, 64, 34
2, 17822, Control_c, 0, 64, 47
2, 17842, Control_c, 0, 64, 56
2, 17860, Control_c, 0, 64, 61
2, 17880, Control_c, 0, 64, 63
2, 17899, Control_c, 0, 64, 64
2, 17919, Control_c, 0, 64, 65
2, 17937, Control_c, 0, 64, 66
2, 17957, Control_c, 0, 64, 68
2, 17976, Control_c, 0, 64, 70
2, 17994, Control_c, 0, 64, 73
2, 18014, Control_c, 0, 64, 76
2, 18033, Control_c, 0, 64, 80
2, 18053, Control_c, 0, 64, 83
2, 18071, Control_c, 0, 64, 86
2, 18091, Control_c, 0, 64, 89
2, 18110, Control_c, 0, 64, 90
2, 18130, Control_c, 0, 64, 91
2, 18148, Control_c, 0, 64, 91
2, 18206, Control_c, 0, 64, 92
2, 18245, Control_c, 0, 64, 92
2, 18260, Note_on_c, 0, 66, 0
2, 18264, Control_c, 0, 64, 93
2, 18283, Control_c, 0, 64, 93
2, 18364, Note_on_c, 0, 78, 0
2, 18415, Note_on_c, 0, 75, 0
2, 18417, Control_c, 0, 64, 94
2, 18423, Note_on_c, 0, 70, 0
2, 18808, Note_on_c, 0, 51, 34
2, 18936, Control_c, 0, 64, 93
2, 18954, Control_c, 0, 64, 93
2, 18958, Note_on_c, 0, 54, 0
2, 18974, Control_c, 0, 64, 92
2, 18993, Control_c, 0, 64, 92
2, 19031, Control_c, 0, 64, 91
2, 19051, Control_c, 0, 64, 91
2, 19090, Control_c, 0, 64, 90
2, 19108, Control_c, 0, 64, 89
2, 19109, Note_on_c, 0, 46, 32
2, 19128, Control_c, 0, 64, 88
2, 19131, Note_on_c, 0, 51, 0
2, 19147, Control_c, 0, 64, 87
2, 19166, Control_c, 0, 64, 86
2, 19185, Control_c, 0, 64, 84
2, 19200, Note_on_c, 0, 66, 35
2, 19205, Control_c, 0, 64, 83
2, 19224, Control_c, 0, 64, 81
2, 19243, Control_c, 0, 64, 79
2, 19262, Control_c, 0, 64, 77
2, 19264, Note_on_c, 0, 70, 47
2, 19282, Control_c, 0, 64, 72
2, 19300, Control_c, 0, 64, 65
2, 19316, Note_on_c, 0, 73, 40
2, 19320, Control_c, 0, 64, 59
2, 19339, Control_c, 0, 64, 50
2, 19359, Control_c, 0, 64, 38
2, 19377, Control_c, 0, 64, 23
2, 19397, Control_c, 0, 64, 18
2, 19429, Note_on_c, 0, 78, 48
2, 19434, Control_c, 0, 64, 27
2, 19454, Control_c, 0, 64, 41
2, 19473, Control_c, 0, 64, 52
2, 19493, Control_c, 0, 64, 59
2, 19511, Control_c, 0, 64, 63
2, 19531, Control_c, 0, 64, 65
2, 19550, Control_c, 0, 64, 66
2, 19570, Control_c, 0, 64, 68
2, 19589, Control_c, 0, 64, 69
2, 19609, Control_c, 0, 64, 72
2, 19628, Control_c, 0, 64, 74
2, 19647, Control_c, 0, 64, 78
2, 19665, Control_c, 0, 64, 80
2, 19685, Control_c, 0, 64, 82
2, 19704, Control_c, 0, 64, 83
2, 19723, Control_c, 0, 64, 83
2, 19742, Control_c, 0, 64, 84
2, 19762, Control_c, 0, 64, 85
2, 19776, Note_on_c, 0, 46, 0
2, 19780, Control_c, 0, 64, 85
2, 19800, Control_c, 0, 64, 86
2, 19819, Control_c, 0, 64, 87
2, 19914, Control_c, 0, 64, 87
2, 20184, Control_c, 0, 64, 87
2, 20217, Note_on_c, 0, 66, 0
2, 20222, Control_c, 0, 64, 86
2, 20376, Control_c, 0, 64, 86
2, 20414, Control_c, 0, 64, 85
2, 20507, Note_on_c, 0, 78, 0
2, 20510, Control_c, 0, 64, 85
2, 20587, Control_c, 0, 64, 84
2, 20590, Note_on_c, 0, 70, 0
2, 20606, Control_c, 0, 64, 84
2, 20643, Control_c, 0, 64, 83
2, 20672, Note_on_c, 0, 46, 24
2, 20681, Control_c, 0, 64, 83
2, 20685, Note_on_c, 0, 73, 0
2, 20725, Note_on_c, 0, 49, 34
2, 20739, Control_c, 0, 64, 82
2, 20758, Control_c, 0, 64, 80
2, 20771, Note_on_c, 0, 54, 34
2, 20777, Control_c, 0, 64, 76
2, 20797, Control_c, 0, 64, 70
2, 20815, Control_c, 0, 64, 64
2, 20834, Control_c, 0, 64, 59
2, 20854, Control_c, 0, 64, 51
2, 20873, Control_c, 0, 64, 41
2, 20892, Control_c, 0, 64, 30
2, 20901, Note_on_c, 0, 58, 36
2, 20911, Control_c, 0, 64, 28
2, 20931, Control_c, 0, 64, 29
2, 20950, Control_c, 0, 64, 39
2, 20969, Control_c, 0, 64, 51
2, 20988, Control_c, 0, 64, 59
2, 21008, Control_c, 0, 64, 63
2, 21026, Control_c, 0, 64, 65
2, 21046, Control_c, 0, 64, 67
2, 21065, Control_c, 0, 64, 70
2, 21085, Control_c, 0, 64, 73
2, 21103, Control_c, 0, 64, 78
2, 21123, Control_c, 0, 64, 83
2, 21142, Control_c, 0, 64, 86
2, 21161, Control_c, 0, 64, 89
2, 21180, Control_c, 0, 64, 90
2, 21200, Control_c, 0, 64, 90
2, 21212, Note_on_c, 0, 46, 0
2, 21219, Control_c, 0, 64, 91
2, 21238, Control_c, 0, 64, 92
2, 21257, Control_c, 0, 64, 93
2, 21277, Control_c, 0, 64, 95
2, 21295, Control_c, 0, 64, 96
2, 21383, Note_on_c, 0, 58, 0
2, 21391, Control_c, 0, 64, 96
2, 21429, Note_on_c, 0, 54, 0
2, 21460, Note_on_c, 0, 49, 0
2, 21738, Control_c, 0, 64, 96
2, 21834, Control_c, 0, 64, 95
2, 21844, Note_on_c, 0, 78, 52
2, 21872, Control_c, 0, 64, 95
2, 21910, Control_c, 0, 64, 94
2, 21949, Control_c, 0, 64, 94
2, 21987, Control_c, 0, 64, 93
2, 22005, Note_on_c, 0, 78, 0
2, 22015, Note_on_c, 0, 76, 60
2, 22026, Control_c, 0, 64, 93
2, 22064, Control_c, 0, 64, 92
2, 22084, Control_c, 0, 64, 91
2, 22103, Control_c, 0, 64, 91
2, 22122, Control_c, 0, 64, 90
2, 22141, Control_c, 0, 64, 90
2, 22161, Control_c, 0, 64, 89
2, 22173, Note_on_c, 0, 76, 0
2, 22180, Control_c, 0, 64, 88
2, 22180, Note_on_c, 0, 75, 65
2, 22199, Control_c, 0, 64, 88
2, 22218, Control_c, 0, 64, 86
2, 22223, Note_on_c, 0, 46, 31
2, 22238, Control_c, 0, 64, 85
2, 22256, Control_c, 0, 64, 84
2, 22275, Control_c, 0, 64, 82
2, 22295, Control_c, 0, 64, 80
2, 22298, Note_on_c, 0, 49, 23
2, 22314, Control_c, 0, 64, 78
2, 22330, Note_on_c, 0, 54, 30
2, 22333, Control_c, 0, 64, 75
2, 22352, Control_c, 0, 64, 71
2, 22372, Control_c, 0, 64, 68
2, 22390, Control_c, 0, 64, 64
2, 22397, Note_on_c, 0, 58, 40
2, 22400, Note_on_c, 0, 76, 59
2, 22407, Note_on_c, 0, 75, 0
2, 22410, Control_c, 0, 64, 62
2, 22429, Control_c, 0, 64, 58
2, 22449, Control_c, 0, 64, 52
2, 22468, Control_c, 0, 64, 44
2, 22488, Control_c, 0, 64, 33
2, 22507, Control_c, 0, 64, 17
2, 22526, Control_c, 0, 64, 0
2, 22621, Control_c, 0, 64, 37
2, 22641, Control_c, 0, 64, 53
2, 22660, Control_c, 0, 64, 61
2, 22679, Control_c, 0, 64, 64
2, 22698, Control_c, 0, 64, 66
2, 22718, Control_c, 0, 64, 67
2, 22736, Control_c, 0, 64, 70
2, 22755, Control_c, 0, 64, 73
2, 22775, Control_c, 0, 64, 77
2, 22794, Control_c, 0, 64, 80
2, 22797, Note_on_c, 0, 58, 0
2, 22813, Control_c, 0, 64, 83
2, 22820, Note_on_c, 0, 46, 0
2, 22832, Control_c, 0, 64, 85
2, 22832, Note_on_c, 0, 54, 0
2, 22852, Control_c, 0, 64, 86
2, 22870, Control_c, 0, 64, 86
2, 22890, Control_c, 0, 64, 87
2, 22909, Control_c, 0, 64, 88
2, 22922, Note_on_c, 0, 49, 0
2, 22929, Control_c, 0, 64, 90
2, 22947, Control_c, 0, 64, 90
2, 22967, Control_c, 0, 64, 91
2, 22981, Note_on_c, 0, 76, 0
2, 23293, Control_c, 0, 64, 90
2, 23409, Control_c, 0, 64, 90
2, 23469, Control_c, 0, 64, 89
2, 23497, Note_on_c, 0, 73, 47
2, 23504, Control_c, 0, 64, 89
2, 23562, Control_c, 0, 64, 88
2, 23581, Control_c, 0, 64, 88
2, 23633, Note_on_c, 0, 47, 34
2, 23639, Control_c, 0, 64, 87
2, 23658, Control_c, 0, 64, 87
2, 23678, Control_c, 0, 64, 86
2, 23696, Control_c, 0, 64, 86
2, 23714, Note_on_c, 0, 51, 17
2, 23715, Control_c, 0, 64, 85
2, 23735, Control_c, 0, 64, 84
2, 23754, Control_c, 0, 64, 83
2, 23773, Control_c, 0, 64, 82
2, 23790, Note_on_c, 0, 54, 24
2, 23792, Control_c, 0, 64, 81
2, 23797, Note_on_c, 0, 73, 0
2, 23812, Control_c, 0, 64, 79
2, 23829, Note_on_c, 0, 63, 36
2, 23830, Control_c, 0, 64, 78
2, 23850, Control_c, 0, 64, 75
2, 23861, Note_on_c, 0, 66, 32
2, 23869, Control_c, 0, 64, 72
2, 23884, Note_on_c, 0, 59, 9
2, 23889, Control_c, 0, 64, 68
2, 23907, Control_c, 0, 64, 66
2, 23914, Note_on_c, 0, 71, 28
2, 23927, Control_c, 0, 64, 63
2, 23946, Control_c, 0, 64, 59
2, 23965, Control_c, 0, 64, 54
2, 23984, Control_c, 0, 64, 46
2, 24002, Note_on_c, 0, 75, 46
2, 24004, Control_c, 0, 64, 35
2, 24023, Control_c, 0, 64, 17
2, 24042, Control_c, 0, 64, 0
2, 24292, Control_c, 0, 64, 17
2, 24310, Control_c, 0, 64, 38
2, 24330, Control_c, 0, 64, 52
2, 24349, Control_c, 0, 64, 58
2, 24369, Control_c, 0, 64, 61
2, 24387, Control_c, 0, 64, 62
2, 24407, Control_c, 0, 64, 63
2, 24426, Control_c, 0, 64, 64
2, 24445, Control_c, 0, 64, 65
2, 24464, Control_c, 0, 64, 66
2, 24483, Control_c, 0, 64, 68
2, 24502, Control_c, 0, 64, 69
2, 24521, Control_c, 0, 64, 70
2, 24540, Control_c, 0, 64, 71
2, 24551, Note_on_c, 0, 63, 0
2, 24560, Control_c, 0, 64, 72
2, 24579, Control_c, 0, 64, 73
2, 24598, Control_c, 0, 64, 75
2, 24609, Note_on_c, 0, 66, 0
2, 24617, Control_c, 0, 64, 76
2, 24637, Control_c, 0, 64, 78
2, 24655, Control_c, 0, 64, 78
2, 24670, Note_on_c, 0, 71, 0
2, 24674, Control_c, 0, 64, 79
2, 24685, Note_on_c, 0, 75, 0
2, 24714, Note_on_c, 0, 59, 0
2, 24721, Note_on_c, 0, 47, 0
2, 24751, Control_c, 0, 64, 79
2, 24790, Control_c, 0, 64, 80
2, 24882, Note_on_c, 0, 54, 0
2, 24949, Note_on_c, 0, 51, 0
2, 25059, Control_c, 0, 64, 79
2, 25193, Control_c, 0, 64, 79
2, 25244, Note_on_c, 0, 66, 34
2, 25270, Control_c, 0, 64, 78
2, 25289, Control_c, 0, 64, 78
2, 25328, Control_c, 0, 64, 77
2, 25332, Note_on_c, 0, 71, 43
2, 25346, Control_c, 0, 64, 76
2, 25366, Control_c, 0, 64, 75
2, 25385, Control_c, 0, 64, 73
2, 25405, Control_c, 0, 64, 70
2, 25423, Control_c, 0, 64, 66
2, 25443, Control_c, 0, 64, 63
2, 25449, Note_on_c, 0, 75, 44
2, 25462, Control_c, 0, 64, 59
2, 25481, Control_c, 0, 64, 55
2, 25500, Control_c, 0, 64, 50
2, 25520, Control_c, 0, 64, 43
2, 25539, Control_c, 0, 64, 35
2, 25558, Control_c, 0, 64, 27
2, 25577, Control_c, 0, 64, 18
2, 25597, Control_c, 0, 64, 13
2, 25615, Control_c, 0, 64, 11
2, 25634, Control_c, 0, 64, 9
2, 25692, Control_c, 0, 64, 15
2, 25711, Control_c, 0, 64, 27
2, 25731, Control_c, 0, 64, 36
2, 25750, Control_c, 0, 64, 44
2, 25769, Control_c, 0, 64, 51
2, 25788, Control_c, 0, 64, 57
2, 25808, Control_c, 0, 64, 60
2, 25826, Control_c, 0, 64, 62
2, 25846, Control_c, 0, 64, 63
2, 25865, Control_c, 0, 64, 64
2, 25885, Control_c, 0, 64, 65
2, 25900, Note_on_c, 0, 66, 0
2, 25903, Control_c, 0, 64, 66
2, 25923, Control_c, 0, 64, 67
2, 25942, Control_c, 0, 64, 68
2, 25961, Control_c, 0, 64, 69
2, 25980, Control_c, 0, 64, 70
2, 26000, Control_c, 0, 64, 71
2, 26019, Control_c, 0, 64, 72
2, 26038, Control_c, 0, 64, 74
2, 26057, Control_c, 0, 64, 75
2, 26077, Control_c, 0, 64, 77
2, 26079, Note_on_c, 0, 71, 0
2, 26095, Control_c, 0, 64, 77
2, 26114, Control_c, 0, 64, 78
2, 26120, Note_on_c, 0, 75, 0
2, 26153, Control_c, 0, 64, 78
2, 26172, Control_c, 0, 64, 79
2, 26191, Control_c, 0, 64, 80
2, 26211, Control_c, 0, 64, 81
2, 26230, Control_c, 0, 64, 82
2, 26249, Control_c, 0, 64, 83
2, 26424, Control_c, 0, 64, 83
2, 26567, Note_on_c, 0, 54, 43
2, 26765, Note_on_c, 0, 66, 37
2, 26837, Note_on_c, 0, 71, 40
2, 26865, Control_c, 0, 64, 83
2, 26904, Control_c, 0, 64, 82
2, 26905, Note_on_c, 0, 75, 57
2, 26920, Note_on_c, 0, 51, 53
2, 26923, Control_c, 0, 64, 81
2, 26942, Control_c, 0, 64, 75
2, 26951, Note_on_c, 0, 54, 0
2, 26962, Control_c, 0, 64, 68
2, 26980, Control_c, 0, 64, 62
2, 27000, Control_c, 0, 64, 55
2, 27019, Control_c, 0, 64, 50
2, 27039, Control_c, 0, 64, 47
2, 27076, Control_c, 0, 64, 50
2, 27096, Control_c, 0, 64, 54
2, 27115, Control_c, 0, 64, 58
2, 27134, Control_c, 0, 64, 62
2, 27153, Control_c, 0, 64, 63
2, 27173, Control_c, 0, 64, 65
2, 27191, Control_c, 0, 64, 66
2, 27211, Control_c, 0, 64, 68
2, 27230, Control_c, 0, 64, 70
2, 27250, Control_c, 0, 64, 72
2, 27268, Control_c, 0, 64, 74
2, 27288, Control_c, 0, 64, 76
2, 27307, Control_c, 0, 64, 77
2, 27326, Control_c, 0, 64, 79
2, 27345, Control_c, 0, 64, 81
2, 27365, Control_c, 0, 64, 83
2, 27384, Control_c, 0, 64, 84
2, 27403, Control_c, 0, 64, 86
2, 27422, Control_c, 0, 64, 86
2, 27442, Control_c, 0, 64, 87
2, 27480, Control_c, 0, 64, 87
2, 27499, Control_c, 0, 64, 88
2, 27508, Note_on_c, 0, 51, 0
2, 27519, Control_c, 0, 64, 88
2, 27537, Control_c, 0, 64, 90
2, 27550, Note_on_c, 0, 66, 0
2, 27556, Control_c, 0, 64, 92
2, 27576, Control_c, 0, 64, 94
2, 27595, Control_c, 0, 64, 95
2, 27614, Control_c, 0, 64, 95
2, 27633, Control_c, 0, 64, 96
2, 27671, Control_c, 0, 64, 96
2, 27748, Control_c, 0, 64, 97
2, 27768, Control_c, 0, 64, 97
2, 27864, Control_c, 0, 64, 98
2, 27965, Note_on_c, 0, 71, 0
2, 28045, Note_on_c, 0, 47, 56
2, 28063, Note_on_c, 0, 75, 0
2, 28190, Control_c, 0, 64, 97
2, 28228, Control_c, 0, 64, 97
2, 28248, Control_c, 0, 64, 96
2, 28267, Control_c, 0, 64, 95
2, 28286, Control_c, 0, 64, 95
2, 28304, Control_c, 0, 64, 94
2, 28324, Control_c, 0, 64, 93
2, 28343, Control_c, 0, 64, 92
2, 28362, Control_c, 0, 64, 91
2, 28381, Control_c, 0, 64, 90
2, 28401, Control_c, 0, 64, 89
2, 28420, Control_c, 0, 64, 87
2, 28420, Note_on_c, 0, 43, 54
2, 28439, Control_c, 0, 64, 86
2, 28458, Control_c, 0, 64, 84
2, 28478, Control_c, 0, 64, 82
2, 28490, Note_on_c, 0, 47, 0
2, 28496, Control_c, 0, 64, 80
2, 28515, Control_c, 0, 64, 78
2, 28535, Control_c, 0, 64, 76
2, 28547, Note_on_c, 0, 70, 55
2, 28554, Control_c, 0, 64, 73
2, 28573, Control_c, 0, 64, 71
2, 28592, Control_c, 0, 64, 69
2, 28612, Control_c, 0, 64, 66
2, 28630, Control_c, 0, 64, 64
2, 28644, Note_on_c, 0, 75, 61
2, 28650, Control_c, 0, 64, 62
2, 28669, Control_c, 0, 64, 59
2, 28689, Control_c, 0, 64, 56
2, 28707, Control_c, 0, 64, 52
2, 28727, Control_c, 0, 64, 45
2, 28746, Control_c, 0, 64, 39
2, 28754, Note_on_c, 0, 82, 73
2, 28765, Control_c, 0, 64, 32
2, 28784, Control_c, 0, 64, 26
2, 28804, Control_c, 0, 64, 20
2, 28823, Control_c, 0, 64, 15
2, 28842, Control_c, 0, 64, 11
2, 28881, Control_c, 0, 64, 13
2, 28900, Control_c, 0, 64, 22
2, 28919, Control_c, 0, 64, 36
2, 28938, Control_c, 0, 64, 50
2, 28958, Control_c, 0, 64, 58
2, 28976, Control_c, 0, 64, 62
2, 28995, Control_c, 0, 64, 64
2, 29015, Control_c, 0, 64, 66
2, 29034, Control_c, 0, 64, 68
2, 29053, Control_c, 0, 64, 70
2, 29072, Control_c, 0, 64, 74
2, 29092, Control_c, 0, 64, 78
2, 29110, Control_c, 0, 64, 81
2, 29130, Control_c, 0, 64, 84
2, 29149, Control_c, 0, 64, 86
2, 29169, Control_c, 0, 64, 86
2, 29186, Control_c, 0, 64, 87
2, 29206, Control_c, 0, 64, 88
2, 29225, Control_c, 0, 64, 91
2, 29245, Control_c, 0, 64, 93
2, 29262, Note_on_c, 0, 43, 0
2, 29263, Control_c, 0, 64, 94
2, 29283, Control_c, 0, 64, 95
2, 29494, Control_c, 0, 64, 95
2, 29532, Control_c, 0, 64, 94
2, 29571, Control_c, 0, 64, 94
2, 29628, Control_c, 0, 64, 93
2, 29686, Control_c, 0, 64, 93
2, 29725, Control_c, 0, 64, 92
2, 29743, Control_c, 0, 64, 92
2, 29801, Control_c, 0, 64, 91
2, 29859, Control_c, 0, 64, 91
2, 29916, Control_c, 0, 64, 90
2, 29935, Control_c, 0, 64, 90
2, 29974, Control_c, 0, 64, 89
2, 29993, Control_c, 0, 64, 89
2, 30012, Control_c, 0, 64, 88
2, 30040, Note_on_c, 0, 70, 0
2, 30051, Control_c, 0, 64, 88
2, 30069, Note_on_c, 0, 82, 0
2, 30089, Control_c, 0, 64, 87
2, 30108, Control_c, 0, 64, 86
2, 30115, Note_on_c, 0, 43, 27
2, 30128, Control_c, 0, 64, 85
2, 30148, Control_c, 0, 64, 83
2, 30167, Note_on_c, 0, 46, 26
2, 30168, Control_c, 0, 64, 81
2, 30187, Control_c, 0, 64, 79
2, 30190, Note_on_c, 0, 51, 38
2, 30195, Note_on_c, 0, 75, 0
2, 30206, Control_c, 0, 64, 77
2, 30225, Control_c, 0, 64, 74
2, 30244, Control_c, 0, 64, 70
2, 30263, Control_c, 0, 64, 66
2, 30282, Control_c, 0, 64, 63
2, 30301, Control_c, 0, 64, 61
2, 30320, Note_on_c, 0, 55, 31
2, 30321, Control_c, 0, 64, 58
2, 30340, Control_c, 0, 64, 54
2, 30359, Control_c, 0, 64, 50
2, 30378, Control_c, 0, 64, 44
2, 30398, Control_c, 0, 64, 38
2, 30416, Control_c, 0, 64, 35
2, 30435, Control_c, 0, 64, 34
2, 30455, Control_c, 0, 64, 35
2, 30474, Control_c, 0, 64, 40
2, 30493, Control_c, 0, 64, 48
2, 30512, Control_c, 0, 64, 56
2, 30532, Control_c, 0, 64, 61
2, 30550, Control_c, 0, 64, 64
2, 30570, Control_c, 0, 64, 65
2, 30589, Control_c, 0, 64, 67
2, 30609, Control_c, 0, 64, 70
2, 30627, Control_c, 0, 64, 73
2, 30647, Control_c, 0, 64, 77
2, 30666, Control_c, 0, 64, 81
2, 30685, Control_c, 0, 64, 82
2, 30704, Control_c, 0, 64, 83
2, 30724, Control_c, 0, 64, 84
2, 30743, Control_c, 0, 64, 84
2, 30762, Control_c, 0, 64, 85
2, 30781, Control_c, 0, 64, 87
2, 30801, Control_c, 0, 64, 89
2, 30820, Control_c, 0, 64, 89
2, 30878, Control_c, 0, 64, 90
2, 30882, Note_on_c, 0, 43, 0
2, 30903, Note_on_c, 0, 55, 0
2, 30956, Note_on_c, 0, 51, 0
2, 30973, Control_c, 0, 64, 90
2, 31012, Control_c, 0, 64, 91
2, 31030, Control_c, 0, 64, 92
2, 31031, Note_on_c, 0, 46, 0
2, 31050, Control_c, 0, 64, 93
2, 31069, Control_c, 0, 64, 95
2, 31089, Control_c, 0, 64, 96
2, 31108, Control_c, 0, 64, 96
2, 31128, Control_c, 0, 64, 97
2, 31147, Control_c, 0, 64, 97
2, 31205, Control_c, 0, 64, 98
2, 31339, Note_on_c, 0, 75, 41
2, 31435, Control_c, 0, 64, 97
2, 31473, Control_c, 0, 64, 97
2, 31493, Control_c, 0, 64, 96
2, 31511, Control_c, 0, 64, 96
2, 31513, Note_on_c, 0, 75, 0
2, 31521, Note_on_c, 0, 73, 52
2, 31550, Control_c, 0, 64, 95
2, 31570, Control_c, 0, 64, 95
2, 31588, Control_c, 0, 64, 94
2, 31608, Control_c, 0, 64, 94
2, 31627, Control_c, 0, 64, 93
2, 31645, Note_on_c, 0, 73, 0
2, 31646, Control_c, 0, 64, 93
2, 31663, Note_on_c, 0, 71, 55
2, 31665, Control_c, 0, 64, 92
2, 31685, Control_c, 0, 64, 91
2, 31704, Control_c, 0, 64, 90
2, 31723, Control_c, 0, 64, 88
2, 31742, Control_c, 0, 64, 86
2, 31747, Note_on_c, 0, 43, 22
2, 31762, Control_c, 0, 64, 84
2, 31780, Control_c, 0, 64, 82
2, 31800, Control_c, 0, 64, 79
2, 31803, Note_on_c, 0, 46, 18
2, 31819, Control_c, 0, 64, 77
2, 31825, Note_on_c, 0, 51, 31
2, 31839, Control_c, 0, 64, 74
2, 31857, Control_c, 0, 64, 71
2, 31875, Note_on_c, 0, 71, 0
2, 31876, Control_c, 0, 64, 67
2, 31896, Control_c, 0, 64, 63
2, 31901, Note_on_c, 0, 55, 26
2, 31901, Note_on_c, 0, 73, 58
2, 31915, Control_c, 0, 64, 60
2, 31934, Control_c, 0, 64, 55
2, 31953, Control_c, 0, 64, 49
2, 31973, Control_c, 0, 64, 40
2, 31991, Control_c, 0, 64, 27
2, 32011, Control_c, 0, 64, 9
2, 32030, Control_c, 0, 64, 0
2, 32086, Control_c, 0, 64, 18
2, 32105, Control_c, 0, 64, 32
2, 32125, Control_c, 0, 64, 45
2, 32142, Control_c, 0, 64, 53
2, 32162, Control_c, 0, 64, 59
2, 32181, Control_c, 0, 64, 61
2, 32201, Control_c, 0, 64, 62
2, 32219, Control_c, 0, 64, 64
2, 32239, Control_c, 0, 64, 65
2, 32258, Control_c, 0, 64, 66
2, 32276, Control_c, 0, 64, 67
2, 32296, Control_c, 0, 64, 68
2, 32315, Control_c, 0, 64, 69
2, 32335, Control_c, 0, 64, 70
2, 32353, Control_c, 0, 64, 72
2, 32367, Note_on_c, 0, 43, 0
2, 32373, Control_c, 0, 64, 73
2, 32392, Control_c, 0, 64, 75
2, 32411, Control_c, 0, 64, 77
2, 32430, Control_c, 0, 64, 78
2, 32450, Control_c, 0, 64, 79
2, 32455, Note_on_c, 0, 55, 0
2, 32469, Control_c, 0, 64, 80
2, 32507, Control_c, 0, 64, 80
2, 32527, Note_on_c, 0, 51, 0
2, 32584, Control_c, 0, 64, 81
2, 32686, Note_on_c, 0, 46, 0
2, 33043, Note_on_c, 0, 73, 0
2, 33066, Control_c, 0, 64, 80
2, 33067, Note_on_c, 0, 70, 44
2, 33124, Control_c, 0, 64, 80
2, 33162, Control_c, 0, 64, 79
2, 33167, Note_on_c, 0, 44, 35
2, 33201, Control_c, 0, 64, 79
2, 33239, Control_c, 0, 64, 78
2, 33258, Control_c, 0, 64, 77
2, 33277, Control_c, 0, 64, 76
2, 33286, Note_on_c, 0, 47, 28
2, 33296, Control_c, 0, 64, 75
2, 33315, Control_c, 0, 64, 75
2, 33335, Control_c, 0, 64, 74
2, 33354, Control_c, 0, 64, 73
2, 33373, Control_c, 0, 64, 72
2, 33380, Note_on_c, 0, 51, 34
2, 33392, Control_c, 0, 64, 71
2, 33403, Note_on_c, 0, 70, 0
2, 33412, Control_c, 0, 64, 70
2, 33430, Control_c, 0, 64, 69
2, 33450, Control_c, 0, 64, 68
2, 33456, Note_on_c, 0, 73, 39
2, 33469, Control_c, 0, 64, 67
2, 33489, Control_c, 0, 64, 66
2, 33491, Note_on_c, 0, 56, 15
2, 33507, Control_c, 0, 64, 65
2, 33527, Control_c, 0, 64, 64
2, 33546, Control_c, 0, 64, 63
2, 33565, Control_c, 0, 64, 62
2, 33584, Control_c, 0, 64, 62
2, 33594, Note_on_c, 0, 73, 0
2, 33604, Control_c, 0, 64, 60
2, 33623, Control_c, 0, 64, 58
2, 33640, Note_on_c, 0, 71, 51
2, 33642, Control_c, 0, 64, 56
2, 33661, Control_c, 0, 64, 55
2, 33681, Control_c, 0, 64, 52
2, 33700, Control_c, 0, 64, 50
2, 33700, Note_on_c, 0, 71, 0
2, 33719, Control_c, 0, 64, 47
2, 33738, Control_c, 0, 64, 44
2, 33747, Note_on_c, 0, 73, 59
2, 33757, Control_c, 0, 64, 40
2, 33776, Control_c, 0, 64, 37
2, 33794, Note_on_c, 0, 73, 0
2, 33795, Control_c, 0, 64, 35
2, 33815, Control_c, 0, 64, 32
2, 33834, Control_c, 0, 64, 29
2, 33843, Note_on_c, 0, 71, 54
2, 33853, Control_c, 0, 64, 27
2, 33872, Control_c, 0, 64, 25
2, 33883, Note_on_c, 0, 71, 0
2, 33892, Control_c, 0, 64, 23
2, 33910, Control_c, 0, 64, 20
2, 33917, Note_on_c, 0, 73, 53
2, 33930, Control_c, 0, 64, 18
2, 33949, Control_c, 0, 64, 15
2, 33960, Note_on_c, 0, 73, 0
2, 33969, Control_c, 0, 64, 11
2, 33990, Control_c, 0, 64, 9
2, 33994, Note_on_c, 0, 71, 55
2, 34010, Control_c, 0, 64, 0
2, 34042, Note_on_c, 0, 71, 0
2, 34062, Note_on_c, 0, 73, 56
2, 34122, Control_c, 0, 64, 11
2, 34141, Control_c, 0, 64, 23
2, 34150, Note_on_c, 0, 73, 0
2, 34161, Control_c, 0, 64, 36
2, 34180, Control_c, 0, 64, 48
2, 34180, Note_on_c, 0, 71, 40
2, 34199, Control_c, 0, 64, 57
2, 34218, Control_c, 0, 64, 61
2, 34237, Control_c, 0, 64, 63
2, 34237, Note_on_c, 0, 44, 0
2, 34256, Control_c, 0, 64, 64
2, 34272, Note_on_c, 0, 47, 0
2, 34275, Control_c, 0, 64, 65
2, 34295, Control_c, 0, 64, 66
2, 34311, Note_on_c, 0, 51, 0
2, 34314, Control_c, 0, 64, 68
2, 34324, Note_on_c, 0, 56, 0
2, 34333, Control_c, 0, 64, 69
2, 34352, Control_c, 0, 64, 70
2, 34372, Control_c, 0, 64, 72
2, 34390, Control_c, 0, 64, 73
2, 34410, Control_c, 0, 64, 75
2, 34429, Control_c, 0, 64, 76
2, 34449, Control_c, 0, 64, 78
2, 34467, Control_c, 0, 64, 78
2, 34487, Control_c, 0, 64, 79
2, 34506, Control_c, 0, 64, 79
2, 34525, Control_c, 0, 64, 80
2, 34544, Control_c, 0, 64, 81
2, 34564, Control_c, 0, 64, 81
2, 34583, Control_c, 0, 64, 82
2, 34621, Control_c, 0, 64, 82
2, 34641, Control_c, 0, 64, 83
2, 34660, Control_c, 0, 64, 84
2, 34679, Control_c, 0, 64, 86
2, 34698, Control_c, 0, 64, 88
2, 34717, Control_c, 0, 64, 89
2, 34790, Note_on_c, 0, 70, 45
2, 34794, Control_c, 0, 64, 89
2, 34813, Control_c, 0, 64, 90
2, 34832, Control_c, 0, 64, 91
2, 34870, Control_c, 0, 64, 91
2, 34901, Note_on_c, 0, 70, 0
2, 34967, Note_on_c, 0, 68, 41
2, 35063, Control_c, 0, 64, 91
2, 35079, Note_on_c, 0, 68, 0
2, 35081, Note_on_c, 0, 71, 0
2, 35107, Note_on_c, 0, 75, 35
2, 35121, Control_c, 0, 64, 90
2, 35140, Control_c, 0, 64, 90
2, 35157, Note_on_c, 0, 80, 43
2, 35159, Control_c, 0, 64, 89
2, 35178, Control_c, 0, 64, 88
2, 35197, Control_c, 0, 64, 87
2, 35216, Control_c, 0, 64, 86
2, 35235, Control_c, 0, 64, 84
2, 35255, Control_c, 0, 64, 81
2, 35266, Note_on_c, 0, 83, 47
2, 35274, Control_c, 0, 64, 78
2, 35293, Control_c, 0, 64, 73
2, 35312, Control_c, 0, 64, 68
2, 35332, Control_c, 0, 64, 64
2, 35350, Control_c, 0, 64, 62
2, 35370, Control_c, 0, 64, 58
2, 35389, Control_c, 0, 64, 53
2, 35409, Control_c, 0, 64, 46
2, 35427, Control_c, 0, 64, 39
2, 35447, Control_c, 0, 64, 31
2, 35466, Control_c, 0, 64, 25
2, 35485, Control_c, 0, 64, 23
2, 35504, Control_c, 0, 64, 22
2, 35581, Control_c, 0, 64, 25
2, 35601, Control_c, 0, 64, 33
2, 35620, Control_c, 0, 64, 44
2, 35639, Control_c, 0, 64, 52
2, 35658, Control_c, 0, 64, 57
2, 35677, Control_c, 0, 64, 60
2, 35696, Control_c, 0, 64, 61
2, 35715, Control_c, 0, 64, 63
2, 35735, Control_c, 0, 64, 64
2, 35754, Control_c, 0, 64, 65
2, 35773, Control_c, 0, 64, 65
2, 35792, Control_c, 0, 64, 66
2, 35812, Control_c, 0, 64, 67
2, 35830, Control_c, 0, 64, 67
2, 35850, Control_c, 0, 64, 68
2, 35869, Control_c, 0, 64, 69
2, 35889, Control_c, 0, 64, 71
2, 35889, Note_on_c, 0, 75, 0
2, 35908, Control_c, 0, 64, 72
2, 35928, Control_c, 0, 64, 74
2, 35947, Control_c, 0, 64, 75
2, 35966, Control_c, 0, 64, 76
2, 36022, Control_c, 0, 64, 77
2, 36041, Control_c, 0, 64, 77
2, 36042, Note_on_c, 0, 83, 0
2, 36060, Control_c, 0, 64, 78
2, 36066, Note_on_c, 0, 80, 0
2, 36080, Control_c, 0, 64, 78
2, 36099, Control_c, 0, 64, 79
2, 36117, Control_c, 0, 64, 79
2, 36406, Control_c, 0, 64, 79
2, 36445, Control_c, 0, 64, 78
2, 36546, Note_on_c, 0, 71, 45
2, 36560, Control_c, 0, 64, 78
2, 36597, Control_c, 0, 64, 77
2, 36617, Control_c, 0, 64, 77
2, 36636, Control_c, 0, 64, 76
2, 36674, Control_c, 0, 64, 76
2, 36740, Note_on_c, 0, 75, 39
2, 36751, Control_c, 0, 64, 75
2, 36771, Control_c, 0, 64, 75
2, 36790, Control_c, 0, 64, 74
2, 36792, Note_on_c, 0, 80, 46
2, 36809, Control_c, 0, 64, 73
2, 36828, Control_c, 0, 64, 72
2, 36848, Control_c, 0, 64, 71
2, 36868, Control_c, 0, 64, 69
2, 36888, Control_c, 0, 64, 66
2, 36890, Note_on_c, 0, 83, 46
2, 36907, Control_c, 0, 64, 62
2, 36915, Note_on_c, 0, 68, 41
2, 36922, Note_on_c, 0, 71, 0
2, 36926, Control_c, 0, 64, 57
2, 36943, Control_c, 0, 64, 51
2, 36963, Control_c, 0, 64, 46
2, 36982, Control_c, 0, 64, 41
2, 37001, Control_c, 0, 64, 39
2, 37059, Control_c, 0, 64, 43
2, 37077, Control_c, 0, 64, 49
2, 37097, Control_c, 0, 64, 55
2, 37116, Control_c, 0, 64, 59
2, 37135, Control_c, 0, 64, 61
2, 37154, Control_c, 0, 64, 62
2, 37174, Control_c, 0, 64, 63
2, 37193, Control_c, 0, 64, 64
2, 37212, Control_c, 0, 64, 65
2, 37231, Control_c, 0, 64, 66
2, 37251, Control_c, 0, 64, 68
2, 37270, Control_c, 0, 64, 69
2, 37289, Control_c, 0, 64, 71
2, 37308, Control_c, 0, 64, 72
2, 37328, Control_c, 0, 64, 73
2, 37346, Control_c, 0, 64, 74
2, 37366, Control_c, 0, 64, 75
2, 37385, Control_c, 0, 64, 76
2, 37405, Control_c, 0, 64, 77
2, 37423, Control_c, 0, 64, 77
2, 37462, Control_c, 0, 64, 78
2, 37481, Control_c, 0, 64, 78
2, 37500, Control_c, 0, 64, 79
2, 37520, Control_c, 0, 64, 80
2, 37539, Control_c, 0, 64, 81
2, 37557, Control_c, 0, 64, 81
2, 37565, Note_on_c, 0, 75, 0
2, 37612, Note_on_c, 0, 83, 0
2, 37854, Note_on_c, 0, 80, 0
2, 37998, Control_c, 0, 64, 81
2, 38152, Control_c, 0, 64, 80
2, 38206, Note_on_c, 0, 65, 36
2, 38248, Control_c, 0, 64, 80
2, 38278, Note_on_c, 0, 68, 0
2, 38421, Control_c, 0, 64, 79
2, 38478, Control_c, 0, 64, 79
2, 38516, Control_c, 0, 64, 78
2, 38533, Note_on_c, 0, 65, 0
2, 38540, Note_on_c, 0, 62, 30
2, 38555, Control_c, 0, 64, 78
2, 38560, Note_on_c, 0, 77, 33
2, 38593, Control_c, 0, 64, 77
2, 38613, Control_c, 0, 64, 76
2, 38632, Control_c, 0, 64, 75
2, 38645, Note_on_c, 0, 80, 41
2, 38651, Control_c, 0, 64, 73
2, 38670, Control_c, 0, 64, 69
2, 38690, Control_c, 0, 64, 65
2, 38709, Control_c, 0, 64, 59
2, 38728, Control_c, 0, 64, 53
2, 38732, Note_on_c, 0, 83, 45
2, 38747, Control_c, 0, 64, 46
2, 38767, Control_c, 0, 64, 36
2, 38785, Control_c, 0, 64, 29
2, 38805, Control_c, 0, 64, 28
2, 38844, Control_c, 0, 64, 32
2, 38862, Control_c, 0, 64, 41
2, 38882, Control_c, 0, 64, 49
2, 38901, Control_c, 0, 64, 56
2, 38921, Control_c, 0, 64, 60
2, 38939, Control_c, 0, 64, 62
2, 38958, Control_c, 0, 64, 63
2, 38978, Control_c, 0, 64, 64
2, 38996, Control_c, 0, 64, 65
2, 39016, Control_c, 0, 64, 66
2, 39035, Control_c, 0, 64, 67
2, 39055, Control_c, 0, 64, 69
2, 39073, Control_c, 0, 64, 70
2, 39093, Control_c, 0, 64, 71
2, 39112, Control_c, 0, 64, 72
2, 39131, Control_c, 0, 64, 74
2, 39150, Control_c, 0, 64, 75
2, 39170, Control_c, 0, 64, 75
2, 39189, Control_c, 0, 64, 76
2, 39195, Note_on_c, 0, 62, 0
2, 39247, Control_c, 0, 64, 76
2, 39324, Control_c, 0, 64, 77
2, 39438, Control_c, 0, 64, 77
2, 39458, Control_c, 0, 64, 78
2, 39476, Control_c, 0, 64, 78
2, 39496, Control_c, 0, 64, 79
2, 39515, Control_c, 0, 64, 79
2, 39535, Control_c, 0, 64, 80
2, 39573, Control_c, 0, 64, 80
2, 39804, Note_on_c, 0, 77, 0
2, 39806, Control_c, 0, 64, 80
2, 39881, Control_c, 0, 64, 79
2, 39982, Note_on_c, 0, 83, 0
2, 39996, Control_c, 0, 64, 79
2, 40000, Note_on_c, 0, 80, 0
2, 40034, Control_c, 0, 64, 78
2, 40054, Control_c, 0, 64, 78
2, 40092, Control_c, 0, 64, 77
2, 40111, Control_c, 0, 64, 77
2, 40116, Note_on_c, 0, 62, 18
2, 40131, Control_c, 0, 64, 76
2, 40150, Control_c, 0, 64, 76
2, 40169, Control_c, 0, 64, 75
2, 40188, Control_c, 0, 64, 75
2, 40195, Note_on_c, 0, 65, 26
2, 40208, Control_c, 0, 64, 74
2, 40226, Control_c, 0, 64, 72
2, 40246, Control_c, 0, 64, 70
2, 40265, Control_c, 0, 64, 68
2, 40285, Control_c, 0, 64, 65
2, 40286, Note_on_c, 0, 70, 41
2, 40303, Control_c, 0, 64, 63
2, 40323, Control_c, 0, 64, 61
2, 40342, Control_c, 0, 64, 58
2, 40361, Control_c, 0, 64, 54
2, 40380, Control_c, 0, 64, 49
2, 40400, Control_c, 0, 64, 44
2, 40419, Control_c, 0, 64, 39
2, 40437, Control_c, 0, 64, 37
2, 40457, Control_c, 0, 64, 36
2, 40495, Control_c, 0, 64, 37
2, 40514, Control_c, 0, 64, 41
2, 40534, Control_c, 0, 64, 46
2, 40553, Control_c, 0, 64, 53
2, 40572, Control_c, 0, 64, 57
2, 40591, Control_c, 0, 64, 60
2, 40611, Control_c, 0, 64, 62
2, 40630, Control_c, 0, 64, 64
2, 40649, Control_c, 0, 64, 65
2, 40668, Control_c, 0, 64, 66
2, 40688, Control_c, 0, 64, 67
2, 40706, Control_c, 0, 64, 68
2, 40726, Control_c, 0, 64, 70
2, 40745, Control_c, 0, 64, 71
2, 40765, Control_c, 0, 64, 72
2, 40783, Control_c, 0, 64, 73
2, 40803, Control_c, 0, 64, 74
2, 40822, Control_c, 0, 64, 75
2, 40841, Control_c, 0, 64, 76
2, 40860, Control_c, 0, 64, 76
2, 40880, Control_c, 0, 64, 77
2, 40891, Note_on_c, 0, 62, 0
2, 40899, Control_c, 0, 64, 78
2, 40955, Note_on_c, 0, 65, 0
2, 41014, Control_c, 0, 64, 78
2, 41052, Control_c, 0, 64, 79
2, 41148, Control_c, 0, 64, 79
2, 41182, Note_on_c, 0, 70, 0
2, 41397, Control_c, 0, 64, 79
2, 41401, Note_on_c, 0, 82, 42
2, 41455, Control_c, 0, 64, 78
2, 41513, Control_c, 0, 64, 78
2, 41532, Control_c, 0, 64, 77
2, 41551, Control_c, 0, 64, 77
2, 41571, Control_c, 0, 64, 76
2, 41590, Control_c, 0, 64, 76
2, 41609, Control_c, 0, 64, 75
2, 41619, Note_on_c, 0, 80, 51
2, 41625, Note_on_c, 0, 82, 0
2, 41628, Control_c, 0, 64, 75
2, 41666, Control_c, 0, 64, 74
2, 41686, Control_c, 0, 64, 74
2, 41705, Control_c, 0, 64, 73
2, 41725, Control_c, 0, 64, 73
2, 41743, Control_c, 0, 64, 72
2, 41763, Control_c, 0, 64, 71
2, 41778, Note_on_c, 0, 80, 0
2, 41782, Control_c, 0, 64, 71
2, 41785, Note_on_c, 0, 78, 53
2, 41801, Control_c, 0, 64, 70
2, 41820, Control_c, 0, 64, 69
2, 41826, Note_on_c, 0, 62, 19
2, 41840, Control_c, 0, 64, 68
2, 41859, Control_c, 0, 64, 66
2, 41877, Control_c, 0, 64, 65
2, 41897, Control_c, 0, 64, 64
2, 41900, Note_on_c, 0, 65, 16
2, 41916, Control_c, 0, 64, 64
2, 41933, Note_on_c, 0, 78, 0
2, 41935, Control_c, 0, 64, 63
2, 41954, Control_c, 0, 64, 62
2, 41973, Note_on_c, 0, 77, 49
2, 41974, Control_c, 0, 64, 60
2, 41993, Control_c, 0, 64, 59
2, 42008, Note_on_c, 0, 70, 37
2, 42012, Control_c, 0, 64, 58
2, 42031, Control_c, 0, 64, 57
2, 42051, Control_c, 0, 64, 56
2, 42070, Control_c, 0, 64, 54
2, 42089, Control_c, 0, 64, 53
2, 42108, Control_c, 0, 64, 52
2, 42111, Note_on_c, 0, 77, 0
2, 42128, Control_c, 0, 64, 50
2, 42146, Control_c, 0, 64, 48
2, 42155, Note_on_c, 0, 78, 55
2, 42166, Control_c, 0, 64, 47
2, 42185, Control_c, 0, 64, 46
2, 42205, Control_c, 0, 64, 45
2, 42223, Control_c, 0, 64, 44
2, 42243, Control_c, 0, 64, 43
2, 42262, Control_c, 0, 64, 42
2, 42281, Control_c, 0, 64, 42
2, 42282, Note_on_c, 0, 78, 0
2, 42317, Note_on_c, 0, 77, 56
2, 42320, Control_c, 0, 64, 41
2, 42449, Note_on_c, 0, 77, 0
2, 42490, Note_on_c, 0, 78, 56
2, 42531, Control_c, 0, 64, 42
2, 42643, Note_on_c, 0, 78, 0
2, 42667, Note_on_c, 0, 80, 59
2, 42668, Control_c, 0, 64, 42
2, 42687, Control_c, 0, 64, 43
2, 42724, Control_c, 0, 64, 44
2, 42743, Control_c, 0, 64, 46
2, 42762, Control_c, 0, 64, 48
2, 42781, Control_c, 0, 64, 51
2, 42801, Control_c, 0, 64, 55
2, 42815, Note_on_c, 0, 80, 0
2, 42820, Control_c, 0, 64, 57
2, 42838, Control_c, 0, 64, 59
2, 42838, Note_on_c, 0, 78, 60
2, 42858, Control_c, 0, 64, 60
2, 42877, Control_c, 0, 64, 62
2, 42896, Control_c, 0, 64, 63
2, 42915, Control_c, 0, 64, 64
2, 42935, Control_c, 0, 64, 65
2, 42939, Note_on_c, 0, 65, 0
2, 42954, Control_c, 0, 64, 66
2, 42961, Note_on_c, 0, 62, 0
2, 42973, Control_c, 0, 64, 66
2, 42992, Control_c, 0, 64, 67
2, 43012, Control_c, 0, 64, 68
2, 43012, Note_on_c, 0, 78, 0
2, 43018, Note_on_c, 0, 80, 61
2, 43030, Control_c, 0, 64, 69
2, 43050, Control_c, 0, 64, 70
2, 43069, Control_c, 0, 64, 71
2, 43089, Control_c, 0, 64, 72
2, 43107, Control_c, 0, 64, 73
2, 43127, Control_c, 0, 64, 73
2, 43146, Control_c, 0, 64, 74
2, 43166, Note_on_c, 0, 80, 0
2, 43201, Note_on_c, 0, 77, 60
2, 43204, Control_c, 0, 64, 74
2, 43262, Note_on_c, 0, 70, 0
2, 43331, Note_on_c, 0, 63, 31
2, 43338, Control_c, 0, 64, 74
2, 43357, Control_c, 0, 64, 73
2, 43376, Control_c, 0, 64, 73
2, 43395, Control_c, 0, 64, 72
2, 43410, Note_on_c, 0, 66, 34
2, 43415, Control_c, 0, 64, 72
2, 43434, Control_c, 0, 64, 71
2, 43453, Control_c, 0, 64, 70
2, 43465, Note_on_c, 0, 77, 0
2, 43472, Control_c, 0, 64, 69
2, 43492, Control_c, 0, 64, 67
2, 43492, Note_on_c, 0, 80, 59
2, 43510, Control_c, 0, 64, 66
2, 43526, Note_on_c, 0, 70, 37
2, 43530, Control_c, 0, 64, 66
2, 43549, Control_c, 0, 64, 65
2, 43588, Control_c, 0, 64, 64
2, 43608, Control_c, 0, 64, 63
2, 43627, Control_c, 0, 64, 62
2, 43646, Control_c, 0, 64, 62
2, 43664, Control_c, 0, 64, 61
2, 43665, Note_on_c, 0, 80, 0
2, 43683, Control_c, 0, 64, 60
2, 43702, Control_c, 0, 64, 60
2, 43702, Note_on_c, 0, 78, 59
2, 43721, Control_c, 0, 64, 59
2, 43740, Control_c, 0, 64, 58
2, 43759, Control_c, 0, 64, 57
2, 43765, Note_on_c, 0, 78, 0
2, 43779, Control_c, 0, 64, 56
2, 43797, Control_c, 0, 64, 55
2, 43808, Note_on_c, 0, 80, 58
2, 43817, Control_c, 0, 64, 53
2, 43836, Control_c, 0, 64, 52
2, 43849, Note_on_c, 0, 80, 0
2, 43855, Control_c, 0, 64, 51
2, 43874, Control_c, 0, 64, 50
2, 43894, Control_c, 0, 64, 50
2, 43894, Note_on_c, 0, 78, 54
2, 43913, Control_c, 0, 64, 49
2, 43925, Note_on_c, 0, 78, 0
2, 43932, Control_c, 0, 64, 49
2, 43946, Note_on_c, 0, 80, 65
2, 43951, Control_c, 0, 64, 48
2, 43971, Control_c, 0, 64, 47
2, 43990, Control_c, 0, 64, 46
2, 43990, Note_on_c, 0, 80, 0
2, 44009, Control_c, 0, 64, 46
2, 44017, Note_on_c, 0, 78, 67
2, 44048, Control_c, 0, 64, 45
2, 44059, Note_on_c, 0, 78, 0
2, 44086, Control_c, 0, 64, 45
2, 44092, Note_on_c, 0, 80, 59
2, 44105, Control_c, 0, 64, 44
2, 44176, Note_on_c, 0, 80, 0
2, 44198, Note_on_c, 0, 78, 59
2, 44297, Control_c, 0, 64, 45
2, 44316, Control_c, 0, 64, 47
2, 44335, Control_c, 0, 64, 49
2, 44354, Control_c, 0, 64, 53
2, 44374, Control_c, 0, 64, 57
2, 44393, Control_c, 0, 64, 60
2, 44412, Control_c, 0, 64, 62
2, 44431, Control_c, 0, 64, 64
2, 44451, Control_c, 0, 64, 65
2, 44470, Control_c, 0, 64, 66
2, 44489, Control_c, 0, 64, 67
2, 44508, Control_c, 0, 64, 69
2, 44528, Control_c, 0, 64, 71
2, 44547, Control_c, 0, 64, 74
2, 44567, Control_c, 0, 64, 76
2, 44586, Control_c, 0, 64, 78
2, 44606, Control_c, 0, 64, 79
2, 44623, Control_c, 0, 64, 80
2, 44631, Note_on_c, 0, 63, 0
2, 44644, Control_c, 0, 64, 81
2, 44653, Note_on_c, 0, 70, 0
2, 44663, Control_c, 0, 64, 81
2, 44682, Control_c, 0, 64, 82
2, 44701, Control_c, 0, 64, 83
2, 44721, Control_c, 0, 64, 84
2, 44778, Control_c, 0, 64, 84
2, 44782, Note_on_c, 0, 66, 0
2, 44790, Note_on_c, 0, 78, 0
2, 44807, Note_on_c, 0, 77, 60
2, 44816, Control_c, 0, 64, 85
2, 44901, Note_on_c, 0, 77, 0
2, 44912, Control_c, 0, 64, 84
2, 44932, Control_c, 0, 64, 84
2, 44950, Control_c, 0, 64, 83
2, 44962, Note_on_c, 0, 75, 62
2, 44970, Control_c, 0, 64, 83
2, 44989, Control_c, 0, 64, 82
2, 45026, Note_on_c, 0, 75, 0
2, 45027, Control_c, 0, 64, 82
2, 45047, Control_c, 0, 64, 81
2, 45086, Control_c, 0, 64, 81
2, 45087, Note_on_c, 0, 70, 65
2, 45104, Control_c, 0, 64, 80
2, 45143, Control_c, 0, 64, 79
2, 45162, Control_c, 0, 64, 79
2, 45171, Note_on_c, 0, 75, 69
2, 45181, Control_c, 0, 64, 78
2, 45201, Control_c, 0, 64, 77
2, 45220, Control_c, 0, 64, 76
2, 45238, Control_c, 0, 64, 75
2, 45248, Note_on_c, 0, 78, 67
2, 45258, Control_c, 0, 64, 74
2, 45277, Control_c, 0, 64, 73
2, 45296, Control_c, 0, 64, 71
2, 45315, Control_c, 0, 64, 69
2, 45335, Control_c, 0, 64, 66
2, 45339, Note_on_c, 0, 82, 77
2, 45354, Control_c, 0, 64, 64
2, 45373, Control_c, 0, 64, 59
2, 45392, Control_c, 0, 64, 55
2, 45412, Control_c, 0, 64, 48
2, 45430, Control_c, 0, 64, 40
2, 45450, Control_c, 0, 64, 32
2, 45469, Control_c, 0, 64, 25
2, 45489, Control_c, 0, 64, 21
2, 45508, Control_c, 0, 64, 20
2, 45547, Control_c, 0, 64, 23
2, 45566, Control_c, 0, 64, 31
2, 45584, Control_c, 0, 64, 40
2, 45604, Control_c, 0, 64, 49
2, 45623, Control_c, 0, 64, 55
2, 45642, Control_c, 0, 64, 59
2, 45661, Control_c, 0, 64, 62
2, 45681, Control_c, 0, 64, 63
2, 45700, Control_c, 0, 64, 64
2, 45718, Control_c, 0, 64, 65
2, 45738, Control_c, 0, 64, 66
2, 45757, Control_c, 0, 64, 68
2, 45776, Control_c, 0, 64, 70
2, 45795, Control_c, 0, 64, 72
2, 45815, Control_c, 0, 64, 74
2, 45834, Control_c, 0, 64, 76
2, 45853, Control_c, 0, 64, 76
2, 45872, Control_c, 0, 64, 77
2, 45892, Control_c, 0, 64, 78
2, 45910, Control_c, 0, 64, 79
2, 45930, Control_c, 0, 64, 80
2, 45949, Control_c, 0, 64, 81
2, 45987, Control_c, 0, 64, 81
2, 46016, Note_on_c, 0, 70, 0
2, 46063, Note_on_c, 0, 82, 0
2, 46084, Control_c, 0, 64, 82
2, 46152, Note_on_c, 0, 75, 0
2, 46201, Note_on_c, 0, 78, 0
2, 46410, Control_c, 0, 64, 81
2, 46500, Note_on_c, 0, 66, 53
2, 46506, Control_c, 0, 64, 81
2, 46601, Control_c, 0, 64, 80
2, 46606, Note_on_c, 0, 73, 53
2, 46639, Control_c, 0, 64, 80
2, 46677, Control_c, 0, 64, 79
2, 46685, Note_on_c, 0, 75, 59
2, 46697, Control_c, 0, 64, 79
2, 46716, Control_c, 0, 64, 78
2, 46731, Note_on_c, 0, 78, 59
2, 46735, Control_c, 0, 64, 78
2, 46774, Control_c, 0, 64, 77
2, 46793, Control_c, 0, 64, 76
2, 46812, Control_c, 0, 64, 73
2, 46831, Control_c, 0, 64, 68
2, 46835, Note_on_c, 0, 82, 72
2, 46845, Note_on_c, 0, 63, 65
2, 46851, Control_c, 0, 64, 63
2, 46870, Control_c, 0, 64, 58
2, 46889, Control_c, 0, 64, 53
2, 46889, Note_on_c, 0, 66, 0
2, 46908, Control_c, 0, 64, 49
2, 46928, Control_c, 0, 64, 46
2, 46946, Control_c, 0, 64, 43
2, 46966, Control_c, 0, 64, 42
2, 47023, Control_c, 0, 64, 44
2, 47043, Control_c, 0, 64, 47
2, 47062, Control_c, 0, 64, 51
2, 47081, Control_c, 0, 64, 56
2, 47100, Control_c, 0, 64, 59
2, 47119, Control_c, 0, 64, 62
2, 47139, Control_c, 0, 64, 63
2, 47157, Control_c, 0, 64, 64
2, 47177, Control_c, 0, 64, 66
2, 47196, Control_c, 0, 64, 67
2, 47215, Control_c, 0, 64, 70
2, 47234, Control_c, 0, 64, 73
2, 47254, Control_c, 0, 64, 77
2, 47273, Control_c, 0, 64, 80
2, 47292, Control_c, 0, 64, 83
2, 47311, Control_c, 0, 64, 86
2, 47331, Control_c, 0, 64, 88
2, 47350, Control_c, 0, 64, 90
2, 47369, Control_c, 0, 64, 91
2, 47388, Control_c, 0, 64, 93
2, 47408, Control_c, 0, 64, 95
2, 47426, Control_c, 0, 64, 96
2, 47446, Control_c, 0, 64, 97
2, 47455, Note_on_c, 0, 63, 0
2, 47465, Control_c, 0, 64, 98
2, 47485, Control_c, 0, 64, 100
2, 47503, Control_c, 0, 64, 102
2, 47523, Control_c, 0, 64, 104
2, 47542, Control_c, 0, 64, 105
2, 47561, Control_c, 0, 64, 108
2, 47580, Control_c, 0, 64, 114
2, 47599, Control_c, 0, 64, 127
2, 47649, Note_on_c, 0, 73, 0
2, 47738, Note_on_c, 0, 82, 0
2, 47878, Note_on_c, 0, 75, 0
2, 48056, Note_on_c, 0, 78, 0
2, 48115, Note_on_c, 0, 60, 57
2, 48425, Control_c, 0, 64, 116
2, 48445, Control_c, 0, 64, 110
2, 48446, Note_on_c, 0, 57, 54
2, 48463, Control_c, 0, 64, 107
2, 48482, Control_c, 0, 64, 104
2, 48501, Control_c, 0, 64, 101
2, 48505, Note_on_c, 0, 60, 0
2, 48520, Control_c, 0, 64, 98
2, 48520, Note_on_c, 0, 72, 58
2, 48539, Control_c, 0, 64, 93
2, 48558, Control_c, 0, 64, 90
2, 48578, Control_c, 0, 64, 86
2, 48596, Control_c, 0, 64, 82
2, 48608, Note_on_c, 0, 75, 61
2, 48616, Control_c, 0, 64, 78
2, 48635, Control_c, 0, 64, 75
2, 48655, Control_c, 0, 64, 72
2, 48673, Control_c, 0, 64, 69
2, 48691, Note_on_c, 0, 78, 68
2, 48693, Control_c, 0, 64, 66
2, 48712, Control_c, 0, 64, 64
2, 48731, Control_c, 0, 64, 62
2, 48750, Control_c, 0, 64, 60
2, 48770, Control_c, 0, 64, 58
2, 48787, Note_on_c, 0, 84, 75
2, 48789, Control_c, 0, 64, 55
2, 48808, Control_c, 0, 64, 50
2, 48827, Control_c, 0, 64, 46
2, 48847, Control_c, 0, 64, 40
2, 48865, Control_c, 0, 64, 33
2, 48885, Control_c, 0, 64, 27
2, 48904, Control_c, 0, 64, 20
2, 48924, Control_c, 0, 64, 19
2, 48942, Control_c, 0, 64, 18
2, 48981, Control_c, 0, 64, 21
2, 49000, Control_c, 0, 64, 31
2, 49019, Control_c, 0, 64, 43
2, 49038, Control_c, 0, 64, 54
2, 49058, Control_c, 0, 64, 60
2, 49076, Control_c, 0, 64, 63
2, 49096, Control_c, 0, 64, 65
2, 49115, Control_c, 0, 64, 66
2, 49135, Control_c, 0, 64, 69
2, 49153, Control_c, 0, 64, 72
2, 49173, Control_c, 0, 64, 77
2, 49192, Control_c, 0, 64, 83
2, 49211, Control_c, 0, 64, 89
2, 49230, Control_c, 0, 64, 93
2, 49240, Note_on_c, 0, 57, 0
2, 49250, Control_c, 0, 64, 95
2, 49269, Control_c, 0, 64, 96
2, 49288, Control_c, 0, 64, 97
2, 49307, Control_c, 0, 64, 98
2, 49327, Control_c, 0, 64, 98
2, 49347, Control_c, 0, 64, 99
2, 49367, Control_c, 0, 64, 100
2, 49406, Control_c, 0, 64, 100
2, 49422, Control_c, 0, 64, 101
2, 49462, Control_c, 0, 64, 101
2, 49480, Control_c, 0, 64, 102
2, 49500, Control_c, 0, 64, 102
2, 49596, Control_c, 0, 64, 103
2, 49673, Control_c, 0, 64, 103
2, 49890, Note_on_c, 0, 84, 0
2, 49923, Control_c, 0, 64, 103
2, 49942, Control_c, 0, 64, 102
2, 49959, Note_on_c, 0, 72, 0
2, 49980, Control_c, 0, 64, 102
2, 49999, Control_c, 0, 64, 101
2, 50019, Note_on_c, 0, 75, 0
2, 50037, Control_c, 0, 64, 100
2, 50057, Control_c, 0, 64, 99
2, 50076, Control_c, 0, 64, 99
2, 50095, Control_c, 0, 64, 98
2, 50114, Control_c, 0, 64, 97
2, 50134, Control_c, 0, 64, 96
2, 50153, Control_c, 0, 64, 95
2, 50172, Control_c, 0, 64, 95
2, 50191, Control_c, 0, 64, 93
2, 50211, Control_c, 0, 64, 92
2, 50230, Control_c, 0, 64, 91
2, 50239, Note_on_c, 0, 78, 0
2, 50249, Control_c, 0, 64, 90
2, 50268, Control_c, 0, 64, 89
2, 50283, Note_on_c, 0, 57, 22
2, 50288, Control_c, 0, 64, 88
2, 50306, Control_c, 0, 64, 87
2, 50306, Note_on_c, 0, 60, 28
2, 50326, Control_c, 0, 64, 85
2, 50345, Control_c, 0, 64, 83
2, 50365, Control_c, 0, 64, 81
2, 50383, Control_c, 0, 64, 78
2, 50403, Control_c, 0, 64, 75
2, 50422, Control_c, 0, 64, 72
2, 50436, Note_on_c, 0, 65, 35
2, 50440, Control_c, 0, 64, 68
2, 50460, Control_c, 0, 64, 65
2, 50479, Control_c, 0, 64, 64
2, 50499, Control_c, 0, 64, 62
2, 50517, Control_c, 0, 64, 60
2, 50537, Control_c, 0, 64, 58
2, 50556, Control_c, 0, 64, 55
2, 50575, Control_c, 0, 64, 53
2, 50594, Control_c, 0, 64, 50
2, 50614, Control_c, 0, 64, 49
2, 50633, Control_c, 0, 64, 48
2, 50652, Control_c, 0, 64, 47
2, 50671, Control_c, 0, 64, 47
2, 50729, Control_c, 0, 64, 48
2, 50748, Control_c, 0, 64, 52
2, 50768, Control_c, 0, 64, 55
2, 50786, Control_c, 0, 64, 58
2, 50806, Control_c, 0, 64, 60
2, 50825, Control_c, 0, 64, 61
2, 50845, Control_c, 0, 64, 63
2, 50863, Control_c, 0, 64, 64
2, 50883, Control_c, 0, 64, 66
2, 50902, Control_c, 0, 64, 67
2, 50920, Control_c, 0, 64, 69
2, 50940, Control_c, 0, 64, 70
2, 50959, Control_c, 0, 64, 72
2, 50979, Control_c, 0, 64, 74
2, 50997, Control_c, 0, 64, 75
2, 51017, Control_c, 0, 64, 76
2, 51036, Control_c, 0, 64, 77
2, 51055, Control_c, 0, 64, 77
2, 51074, Control_c, 0, 64, 78
2, 51094, Control_c, 0, 64, 78
2, 51095, Note_on_c, 0, 65, 0
2, 51113, Control_c, 0, 64, 79
2, 51132, Control_c, 0, 64, 79
2, 51151, Control_c, 0, 64, 80
2, 51174, Note_on_c, 0, 60, 0
2, 51175, Note_on_c, 0, 57, 0
2, 51190, Control_c, 0, 64, 81
2, 51209, Control_c, 0, 64, 81
2, 51228, Control_c, 0, 64, 82
2, 51248, Control_c, 0, 64, 83
2, 51267, Control_c, 0, 64, 84
2, 51287, Control_c, 0, 64, 84
2, 51382, Control_c, 0, 64, 85
2, 51537, Note_on_c, 0, 77, 34
2, 51631, Control_c, 0, 64, 84
2, 51708, Control_c, 0, 64, 84
2, 51718, Note_on_c, 0, 77, 0
2, 51746, Control_c, 0, 64, 83
2, 51760, Note_on_c, 0, 75, 44
2, 51766, Control_c, 0, 64, 83
2, 51805, Control_c, 0, 64, 82
2, 51823, Control_c, 0, 64, 82
2, 51843, Control_c, 0, 64, 81
2, 51880, Control_c, 0, 64, 81
2, 51887, Note_on_c, 0, 75, 0
2, 51900, Control_c, 0, 64, 80
2, 51914, Note_on_c, 0, 73, 44
2, 51919, Control_c, 0, 64, 80
2, 51939, Control_c, 0, 64, 79
2, 51957, Control_c, 0, 64, 78
2, 51977, Control_c, 0, 64, 76
2, 51993, Note_on_c, 0, 57, 24
2, 51996, Control_c, 0, 64, 75
2, 52015, Control_c, 0, 64, 74
2, 52031, Note_on_c, 0, 60, 20
2, 52034, Control_c, 0, 64, 73
2, 52054, Control_c, 0, 64, 72
2, 52064, Note_on_c, 0, 73, 0
2, 52073, Control_c, 0, 64, 71
2, 52092, Control_c, 0, 64, 70
2, 52111, Control_c, 0, 64, 68
2, 52123, Note_on_c, 0, 72, 44
2, 52131, Control_c, 0, 64, 67
2, 52150, Control_c, 0, 64, 66
2, 52150, Note_on_c, 0, 65, 27
2, 52169, Control_c, 0, 64, 65
2, 52188, Control_c, 0, 64, 65
2, 52208, Control_c, 0, 64, 64
2, 52226, Control_c, 0, 64, 63
2, 52246, Control_c, 0, 64, 63
2, 52252, Note_on_c, 0, 72, 0
2, 52265, Control_c, 0, 64, 62
2, 52285, Control_c, 0, 64, 61
2, 52303, Control_c, 0, 64, 60
2, 52305, Note_on_c, 0, 73, 48
2, 52320, Control_c, 0, 64, 60
2, 52340, Control_c, 0, 64, 59
2, 52359, Control_c, 0, 64, 58
2, 52378, Control_c, 0, 64, 58
2, 52397, Control_c, 0, 64, 57
2, 52417, Control_c, 0, 64, 57
2, 52435, Control_c, 0, 64, 56
2, 52446, Note_on_c, 0, 73, 0
2, 52474, Control_c, 0, 64, 56
2, 52480, Note_on_c, 0, 72, 50
2, 52512, Control_c, 0, 64, 55
2, 52532, Control_c, 0, 64, 54
2, 52551, Control_c, 0, 64, 54
2, 52571, Control_c, 0, 64, 53
2, 52589, Control_c, 0, 64, 53
2, 52605, Note_on_c, 0, 72, 0
2, 52609, Control_c, 0, 64, 52
2, 52628, Control_c, 0, 64, 52
2, 52647, Control_c, 0, 64, 51
2, 52652, Note_on_c, 0, 73, 49
2, 52666, Control_c, 0, 64, 50
2, 52705, Control_c, 0, 64, 49
2, 52724, Control_c, 0, 64, 49
2, 52743, Control_c, 0, 64, 48
2, 52763, Control_c, 0, 64, 47
2, 52793, Note_on_c, 0, 73, 0
2, 52825, Note_on_c, 0, 75, 52
2, 52877, Control_c, 0, 64, 48
2, 52897, Control_c, 0, 64, 50
2, 52915, Control_c, 0, 64, 52
2, 52935, Control_c, 0, 64, 56
2, 52940, Note_on_c, 0, 75, 0
2, 52954, Control_c, 0, 64, 60
2, 52974, Control_c, 0, 64, 62
2, 52992, Control_c, 0, 64, 63
2, 52999, Note_on_c, 0, 73, 44
2, 53012, Control_c, 0, 64, 64
2, 53031, Control_c, 0, 64, 65
2, 53051, Control_c, 0, 64, 65
2, 53069, Control_c, 0, 64, 66
2, 53087, Note_on_c, 0, 57, 0
2, 53089, Control_c, 0, 64, 67
2, 53102, Note_on_c, 0, 60, 0
2, 53108, Control_c, 0, 64, 67
2, 53127, Control_c, 0, 64, 68
2, 53131, Note_on_c, 0, 73, 0
2, 53166, Control_c, 0, 64, 69
2, 53184, Note_on_c, 0, 75, 45
2, 53186, Control_c, 0, 64, 70
2, 53192, Note_on_c, 0, 65, 0
2, 53206, Control_c, 0, 64, 70
2, 53225, Control_c, 0, 64, 71
2, 53245, Control_c, 0, 64, 72
2, 53261, Control_c, 0, 64, 72
2, 53271, Note_on_c, 0, 75, 0
2, 53339, Control_c, 0, 64, 73
2, 53341, Note_on_c, 0, 72, 45
2, 53450, Note_on_c, 0, 58, 27
2, 53493, Control_c, 0, 64, 72
2, 53514, Note_on_c, 0, 61, 24
2, 53531, Control_c, 0, 64, 72
2, 53547, Note_on_c, 0, 72, 0
2, 53550, Control_c, 0, 64, 71
2, 53570, Control_c, 0, 64, 70
2, 53589, Control_c, 0, 64, 69
2, 53608, Control_c, 0, 64, 68
2, 53612, Note_on_c, 0, 65, 27
2, 53614, Note_on_c, 0, 75, 44
2, 53627, Control_c, 0, 64, 67
2, 53647, Control_c, 0, 64, 66
2, 53665, Control_c, 0, 64, 65
2, 53685, Control_c, 0, 64, 64
2, 53704, Control_c, 0, 64, 64
2, 53724, Control_c, 0, 64, 63
2, 53742, Control_c, 0, 64, 62
2, 53761, Control_c, 0, 64, 61
2, 53761, Note_on_c, 0, 75, 0
2, 53781, Control_c, 0, 64, 60
2, 53797, Note_on_c, 0, 73, 53
2, 53800, Control_c, 0, 64, 59
2, 53819, Control_c, 0, 64, 58
2, 53838, Control_c, 0, 64, 57
2, 53858, Control_c, 0, 64, 57
2, 53859, Note_on_c, 0, 73, 0
2, 53876, Control_c, 0, 64, 56
2, 53896, Control_c, 0, 64, 55
2, 53915, Control_c, 0, 64, 54
2, 53918, Note_on_c, 0, 75, 46
2, 53935, Control_c, 0, 64, 53
2, 53953, Control_c, 0, 64, 52
2, 53953, Note_on_c, 0, 75, 0
2, 53992, Control_c, 0, 64, 52
2, 53993, Note_on_c, 0, 73, 54
2, 54011, Control_c, 0, 64, 51
2, 54030, Control_c, 0, 64, 51
2, 54031, Note_on_c, 0, 73, 0
2, 54050, Control_c, 0, 64, 50
2, 54055, Note_on_c, 0, 75, 64
2, 54069, Control_c, 0, 64, 49
2, 54088, Control_c, 0, 64, 49
2, 54100, Note_on_c, 0, 75, 0
2, 54127, Control_c, 0, 64, 48
2, 54131, Note_on_c, 0, 73, 56
2, 54146, Control_c, 0, 64, 47
2, 54178, Note_on_c, 0, 73, 0
2, 54185, Control_c, 0, 64, 47
2, 54220, Note_on_c, 0, 75, 53
2, 54270, Note_on_c, 0, 75, 0
2, 54293, Note_on_c, 0, 73, 49
2, 54299, Control_c, 0, 64, 47
2, 54318, Control_c, 0, 64, 48
2, 54338, Control_c, 0, 64, 50
2, 54356, Control_c, 0, 64, 52
2, 54376, Control_c, 0, 64, 55
2, 54395, Control_c, 0, 64, 58
2, 54415, Control_c, 0, 64, 60
2, 54433, Control_c, 0, 64, 62
2, 54453, Control_c, 0, 64, 64
2, 54472, Control_c, 0, 64, 65
2, 54491, Control_c, 0, 64, 66
2, 54510, Control_c, 0, 64, 67
2, 54530, Control_c, 0, 64, 68
2, 54549, Control_c, 0, 64, 70
2, 54554, Note_on_c, 0, 65, 0
2, 54568, Control_c, 0, 64, 71
2, 54587, Control_c, 0, 64, 73
2, 54607, Control_c, 0, 64, 75
2, 54625, Control_c, 0, 64, 76
2, 54626, Note_on_c, 0, 58, 0
2, 54645, Control_c, 0, 64, 77
2, 54649, Note_on_c, 0, 61, 0
2, 54664, Control_c, 0, 64, 78
2, 54684, Control_c, 0, 64, 78
2, 54702, Control_c, 0, 64, 79
2, 54741, Control_c, 0, 64, 79
2, 54798, Control_c, 0, 64, 80
2, 54833, Note_on_c, 0, 73, 0
2, 54870, Note_on_c, 0, 72, 43
2, 54971, Control_c, 0, 64, 79
2, 55020, Note_on_c, 0, 72, 0
2, 55057, Note_on_c, 0, 70, 53
2, 55094, Note_on_c, 0, 70, 0
2, 55105, Note_on_c, 0, 58, 31
2, 55144, Control_c, 0, 64, 79
2, 55155, Note_on_c, 0, 61, 38
2, 55182, Control_c, 0, 64, 78
2, 55240, Control_c, 0, 64, 78
2, 55243, Note_on_c, 0, 65, 37
2, 55244, Note_on_c, 0, 70, 39
2, 55278, Control_c, 0, 64, 76
2, 55297, Note_on_c, 0, 73, 47
2, 55298, Control_c, 0, 64, 73
2, 55316, Control_c, 0, 64, 69
2, 55336, Control_c, 0, 64, 65
2, 55355, Control_c, 0, 64, 62
2, 55366, Note_on_c, 0, 77, 56
2, 55375, Control_c, 0, 64, 58
2, 55393, Control_c, 0, 64, 55
2, 55413, Control_c, 0, 64, 52
2, 55432, Control_c, 0, 64, 52
2, 55451, Control_c, 0, 64, 52
2, 55470, Control_c, 0, 64, 53
2, 55490, Control_c, 0, 64, 56
2, 55509, Control_c, 0, 64, 59
2, 55528, Control_c, 0, 64, 61
2, 55547, Control_c, 0, 64, 63
2, 55567, Control_c, 0, 64, 65
2, 55585, Control_c, 0, 64, 67
2, 55605, Control_c, 0, 64, 69
2, 55624, Control_c, 0, 64, 71
2, 55644, Control_c, 0, 64, 74
2, 55662, Control_c, 0, 64, 77
2, 55681, Control_c, 0, 64, 80
2, 55701, Control_c, 0, 64, 83
2, 55720, Control_c, 0, 64, 84
2, 55739, Control_c, 0, 64, 85
2, 55758, Control_c, 0, 64, 86
2, 55849, Note_on_c, 0, 65, 0
2, 55963, Note_on_c, 0, 61, 0
2, 55968, Note_on_c, 0, 58, 0
2, 56410, Note_on_c, 0, 77, 0
2, 56449, Note_on_c, 0, 78, 42
2, 56464, Note_on_c, 0, 73, 0
2, 56565, Control_c, 0, 64, 85
2, 56579, Note_on_c, 0, 70, 0
2, 56641, Control_c, 0, 64, 85
2, 56644, Note_on_c, 0, 77, 48
2, 56699, Note_on_c, 0, 78, 0
2, 56718, Control_c, 0, 64, 84
2, 56738, Control_c, 0, 64, 84
2, 56756, Control_c, 0, 64, 83
2, 56776, Control_c, 0, 64, 83
2, 56795, Control_c, 0, 64, 82
2, 56800, Note_on_c, 0, 58, 30
2, 56815, Control_c, 0, 64, 82
2, 56818, Note_on_c, 0, 77, 0
2, 56833, Control_c, 0, 64, 81
2, 56833, Note_on_c, 0, 75, 52
2, 56853, Control_c, 0, 64, 80
2, 56872, Control_c, 0, 64, 79
2, 56881, Note_on_c, 0, 61, 18
2, 56891, Control_c, 0, 64, 78
2, 56910, Control_c, 0, 64, 77
2, 56930, Control_c, 0, 64, 75
2, 56949, Control_c, 0, 64, 73
2, 56949, Note_on_c, 0, 65, 29
2, 56968, Control_c, 0, 64, 71
2, 56984, Note_on_c, 0, 75, 0
2, 56987, Control_c, 0, 64, 69
2, 57007, Control_c, 0, 64, 67
2, 57008, Note_on_c, 0, 73, 53
2, 57025, Control_c, 0, 64, 66
2, 57041, Control_c, 0, 64, 66
2, 57061, Control_c, 0, 64, 65
2, 57080, Control_c, 0, 64, 64
2, 57099, Control_c, 0, 64, 64
2, 57116, Control_c, 0, 64, 63
2, 57136, Control_c, 0, 64, 62
2, 57144, Note_on_c, 0, 73, 0
2, 57155, Control_c, 0, 64, 61
2, 57175, Control_c, 0, 64, 60
2, 57175, Note_on_c, 0, 72, 49
2, 57193, Control_c, 0, 64, 59
2, 57213, Control_c, 0, 64, 58
2, 57232, Control_c, 0, 64, 56
2, 57251, Control_c, 0, 64, 55
2, 57270, Control_c, 0, 64, 53
2, 57290, Control_c, 0, 64, 51
2, 57309, Control_c, 0, 64, 51
2, 57328, Control_c, 0, 64, 50
2, 57346, Note_on_c, 0, 72, 0
2, 57347, Control_c, 0, 64, 50
2, 57363, Note_on_c, 0, 70, 54
2, 57367, Control_c, 0, 64, 49
2, 57385, Control_c, 0, 64, 49
2, 57405, Control_c, 0, 64, 48
2, 57424, Control_c, 0, 64, 47
2, 57444, Control_c, 0, 64, 47
2, 57462, Control_c, 0, 64, 46
2, 57481, Control_c, 0, 64, 46
2, 57501, Control_c, 0, 64, 45
2, 57520, Control_c, 0, 64, 44
2, 57527, Note_on_c, 0, 68, 59
2, 57539, Control_c, 0, 64, 43
2, 57542, Note_on_c, 0, 70, 0
2, 57558, Control_c, 0, 64, 42
2, 57578, Control_c, 0, 64, 41
2, 57596, Control_c, 0, 64, 41
2, 57616, Control_c, 0, 64, 40
2, 57635, Control_c, 0, 64, 39
2, 57757, Note_on_c, 0, 68, 0
2, 57759, Note_on_c, 0, 66, 54
2, 57789, Control_c, 0, 64, 40
2, 57801, Note_on_c, 0, 65, 0
2, 57808, Control_c, 0, 64, 41
2, 57827, Control_c, 0, 64, 43
2, 57847, Control_c, 0, 64, 47
2, 57865, Control_c, 0, 64, 52
2, 57885, Control_c, 0, 64, 56
2, 57904, Control_c, 0, 64, 60
2, 57924, Control_c, 0, 64, 61
2, 57942, Control_c, 0, 64, 62
2, 57961, Control_c, 0, 64, 63
2, 57985, Control_c, 0, 64, 64
2, 58005, Control_c, 0, 64, 65
2, 58021, Note_on_c, 0, 61, 0
2, 58024, Control_c, 0, 64, 67
2, 58044, Control_c, 0, 64, 68
2, 58058, Note_on_c, 0, 58, 0
2, 58062, Control_c, 0, 64, 70
2, 58083, Control_c, 0, 64, 71
2, 58102, Control_c, 0, 64, 72
2, 58120, Control_c, 0, 64, 73
2, 58140, Control_c, 0, 64, 74
2, 58159, Control_c, 0, 64, 75
2, 58175, Note_on_c, 0, 68, 61
2, 58179, Control_c, 0, 64, 77
2, 58197, Control_c, 0, 64, 78
2, 58250, Note_on_c, 0, 66, 0
2, 58332, Control_c, 0, 64, 77
2, 58355, Note_on_c, 0, 65, 57
2, 58358, Note_on_c, 0, 68, 0
2, 58390, Control_c, 0, 64, 77
2, 58428, Control_c, 0, 64, 76
2, 58466, Control_c, 0, 64, 76
2, 58471, Note_on_c, 0, 51, 34
2, 58505, Control_c, 0, 64, 75
2, 58543, Control_c, 0, 64, 75
2, 58562, Control_c, 0, 64, 74
2, 58575, Note_on_c, 0, 58, 28
2, 58582, Control_c, 0, 64, 74
2, 58600, Control_c, 0, 64, 73
2, 58620, Control_c, 0, 64, 71
2, 58627, Note_on_c, 0, 66, 57
2, 58632, Note_on_c, 0, 63, 46
2, 58635, Note_on_c, 0, 61, 30
2, 58639, Control_c, 0, 64, 70
2, 58646, Note_on_c, 0, 65, 0
2, 58659, Control_c, 0, 64, 67
2, 58677, Control_c, 0, 64, 64
2, 58697, Control_c, 0, 64, 61
2, 58716, Control_c, 0, 64, 56
2, 58736, Control_c, 0, 64, 50
2, 58754, Control_c, 0, 64, 43
2, 58774, Control_c, 0, 64, 35
2, 58793, Control_c, 0, 64, 21
2, 58812, Control_c, 0, 64, 9
2, 58831, Control_c, 0, 64, 0
2, 58870, Control_c, 0, 64, 9
2, 58889, Control_c, 0, 64, 21
2, 58908, Control_c, 0, 64, 35
2, 58928, Control_c, 0, 64, 46
2, 58948, Control_c, 0, 64, 54
2, 58968, Control_c, 0, 64, 58
2, 58987, Control_c, 0, 64, 61
2, 59006, Control_c, 0, 64, 62
2, 59023, Control_c, 0, 64, 63
2, 59042, Control_c, 0, 64, 64
2, 59062, Control_c, 0, 64, 65
2, 59080, Control_c, 0, 64, 65
2, 59100, Control_c, 0, 64, 66
2, 59119, Control_c, 0, 64, 67
2, 59139, Control_c, 0, 64, 67
2, 59157, Control_c, 0, 64, 68
2, 59177, Control_c, 0, 64, 69
2, 59196, Control_c, 0, 64, 70
2, 59216, Control_c, 0, 64, 71
2, 59221, Note_on_c, 0, 63, 0
2, 59234, Control_c, 0, 64, 72
2, 59254, Control_c, 0, 64, 73
2, 59273, Control_c, 0, 64, 74
2, 59291, Note_on_c, 0, 61, 0
2, 59320, Note_on_c, 0, 51, 0
2, 59388, Control_c, 0, 64, 74
2, 59401, Note_on_c, 0, 58, 0
2, 59426, Control_c, 0, 64, 75
2, 59446, Control_c, 0, 64, 76
2, 59465, Control_c, 0, 64, 76
2, 59753, Control_c, 0, 64, 76
2, 59770, Note_on_c, 0, 70, 61
2, 59830, Control_c, 0, 64, 75
2, 59831, Note_on_c, 0, 66, 0
2, 59945, Control_c, 0, 64, 75
2, 59947, Note_on_c, 0, 73, 63
2, 59965, Control_c, 0, 64, 74
2, 59983, Control_c, 0, 64, 74
2, 60025, Note_on_c, 0, 70, 0
2, 60060, Control_c, 0, 64, 73
2, 60073, Note_on_c, 0, 51, 34
2, 60079, Control_c, 0, 64, 73
2, 60099, Control_c, 0, 64, 72
2, 60099, Note_on_c, 0, 58, 29
2, 60117, Control_c, 0, 64, 71
2, 60137, Control_c, 0, 64, 69
2, 60156, Control_c, 0, 64, 68
2, 60174, Note_on_c, 0, 78, 68
2, 60176, Control_c, 0, 64, 66
2, 60194, Control_c, 0, 64, 64
2, 60206, Note_on_c, 0, 73, 0
2, 60214, Control_c, 0, 64, 61
2, 60215, Note_on_c, 0, 60, 36
2, 60233, Control_c, 0, 64, 59
2, 60252, Control_c, 0, 64, 56
2, 60271, Control_c, 0, 64, 51
2, 60291, Control_c, 0, 64, 44
2, 60310, Control_c, 0, 64, 36
2, 60329, Control_c, 0, 64, 24
2, 60348, Control_c, 0, 64, 11
2, 60368, Control_c, 0, 64, 0
2, 60445, Control_c, 0, 64, 9
2, 60463, Control_c, 0, 64, 23
2, 60482, Control_c, 0, 64, 36
2, 60502, Control_c, 0, 64, 47
2, 60520, Control_c, 0, 64, 54
2, 60540, Control_c, 0, 64, 58
2, 60559, Control_c, 0, 64, 61
2, 60579, Control_c, 0, 64, 62
2, 60597, Control_c, 0, 64, 64
2, 60617, Control_c, 0, 64, 65
2, 60636, Control_c, 0, 64, 66
2, 60656, Control_c, 0, 64, 67
2, 60674, Control_c, 0, 64, 68
2, 60694, Control_c, 0, 64, 69
2, 60713, Control_c, 0, 64, 69
2, 60732, Control_c, 0, 64, 70
2, 60751, Control_c, 0, 64, 71
2, 60771, Control_c, 0, 64, 71
2, 60790, Control_c, 0, 64, 73
2, 60809, Control_c, 0, 64, 74
2, 60811, Note_on_c, 0, 51, 0
2, 60828, Control_c, 0, 64, 74
2, 60848, Control_c, 0, 64, 75
2, 60887, Control_c, 0, 64, 75
2, 60902, Note_on_c, 0, 60, 0
2, 60906, Control_c, 0, 64, 76
2, 60943, Control_c, 0, 64, 76
2, 60959, Note_on_c, 0, 58, 0
2, 60982, Control_c, 0, 64, 77
2, 61000, Control_c, 0, 64, 77
2, 61039, Control_c, 0, 64, 78
2, 61204, Note_on_c, 0, 77, 52
2, 61212, Control_c, 0, 64, 78
2, 61286, Note_on_c, 0, 78, 0
2, 61328, Control_c, 0, 64, 78
2, 61393, Note_on_c, 0, 75, 62
2, 61405, Control_c, 0, 64, 77
2, 61417, Note_on_c, 0, 77, 0
2, 61442, Control_c, 0, 64, 77
2, 61480, Control_c, 0, 64, 76
2, 61519, Control_c, 0, 64, 76
2, 61557, Control_c, 0, 64, 75
2, 61558, Note_on_c, 0, 73, 60
2, 61572, Note_on_c, 0, 75, 0
2, 61596, Control_c, 0, 64, 75
2, 61616, Control_c, 0, 64, 74
2, 61630, Note_on_c, 0, 51, 18
2, 61654, Control_c, 0, 64, 74
2, 61673, Control_c, 0, 64, 73
2, 61692, Control_c, 0, 64, 73
2, 61695, Note_on_c, 0, 58, 21
2, 61711, Control_c, 0, 64, 72
2, 61731, Control_c, 0, 64, 71
2, 61750, Control_c, 0, 64, 69
2, 61769, Control_c, 0, 64, 68
2, 61787, Note_on_c, 0, 72, 57
2, 61788, Control_c, 0, 64, 66
2, 61808, Control_c, 0, 64, 65
2, 61816, Note_on_c, 0, 73, 0
2, 61830, Control_c, 0, 64, 64
2, 61837, Note_on_c, 0, 60, 31
2, 61850, Control_c, 0, 64, 63
2, 61869, Control_c, 0, 64, 61
2, 61888, Control_c, 0, 64, 60
2, 61906, Control_c, 0, 64, 58
2, 61925, Control_c, 0, 64, 57
2, 61944, Control_c, 0, 64, 56
2, 61962, Control_c, 0, 64, 55
2, 61982, Control_c, 0, 64, 54
2, 62001, Control_c, 0, 64, 53
2, 62020, Control_c, 0, 64, 53
2, 62039, Control_c, 0, 64, 52
2, 62059, Control_c, 0, 64, 51
2, 62078, Control_c, 0, 64, 51
2, 62347, Control_c, 0, 64, 50
2, 62350, Note_on_c, 0, 72, 0
2, 62365, Note_on_c, 0, 75, 50
2, 62405, Control_c, 0, 64, 50
2, 62460, Note_on_c, 0, 73, 47
2, 62460, Note_on_c, 0, 75, 0
2, 62462, Control_c, 0, 64, 49
2, 62500, Control_c, 0, 64, 49
2, 62519, Control_c, 0, 64, 48
2, 62540, Note_on_c, 0, 73, 0
2, 62557, Note_on_c, 0, 72, 52
2, 62558, Control_c, 0, 64, 48
2, 62577, Control_c, 0, 64, 47
2, 62654, Control_c, 0, 64, 47
2, 62693, Control_c, 0, 64, 46
2, 62713, Note_on_c, 0, 72, 0
2, 62731, Control_c, 0, 64, 46
2, 62736, Note_on_c, 0, 73, 49
2, 62824, Control_c, 0, 64, 47
2, 62844, Control_c, 0, 64, 50
2, 62861, Control_c, 0, 64, 54
2, 62881, Control_c, 0, 64, 58
2, 62895, Note_on_c, 0, 73, 0
2, 62901, Control_c, 0, 64, 60
2, 62920, Control_c, 0, 64, 62
2, 62922, Note_on_c, 0, 75, 53
2, 62939, Control_c, 0, 64, 63
2, 62942, Note_on_c, 0, 60, 0
2, 62958, Control_c, 0, 64, 64
2, 62973, Note_on_c, 0, 58, 0
2, 62976, Note_on_c, 0, 51, 0
2, 62978, Control_c, 0, 64, 65
2, 62996, Control_c, 0, 64, 66
2, 63016, Control_c, 0, 64, 67
2, 63035, Control_c, 0, 64, 67
2, 63055, Control_c, 0, 64, 68
2, 63131, Control_c, 0, 64, 68
2, 63150, Control_c, 0, 64, 69
2, 63189, Control_c, 0, 64, 69
2, 63208, Control_c, 0, 64, 70
2, 63333, Note_on_c, 0, 65, 41
2, 63377, Note_on_c, 0, 60, 33
2, 63385, Note_on_c, 0, 51, 27
2, 63385, Note_on_c, 0, 57, 27
2, 63400, Control_c, 0, 64, 69
2, 63401, Note_on_c, 0, 75, 0
2, 63419, Control_c, 0, 64, 67
2, 63438, Control_c, 0, 64, 62
2, 63458, Control_c, 0, 64, 51
2, 63476, Control_c, 0, 64, 39
2, 63496, Control_c, 0, 64, 31
2, 63515, Control_c, 0, 64, 30
2, 63535, Control_c, 0, 64, 37
2, 63553, Control_c, 0, 64, 50
2, 63573, Control_c, 0, 64, 59
2, 63592, Control_c, 0, 64, 63
2, 63611, Control_c, 0, 64, 65
2, 63630, Control_c, 0, 64, 66
2, 63650, Control_c, 0, 64, 68
2, 63669, Control_c, 0, 64, 70
2, 63688, Control_c, 0, 64, 72
2, 63707, Control_c, 0, 64, 74
2, 63727, Control_c, 0, 64, 76
2, 63746, Control_c, 0, 64, 77
2, 63766, Control_c, 0, 64, 77
2, 63799, Note_on_c, 0, 65, 0
2, 63805, Control_c, 0, 64, 78
2, 63821, Note_on_c, 0, 67, 59
2, 63822, Control_c, 0, 64, 79
2, 63841, Control_c, 0, 64, 80
2, 63861, Control_c, 0, 64, 80
2, 63899, Control_c, 0, 64, 80
2, 63910, Note_on_c, 0, 67, 0
2, 63918, Control_c, 0, 64, 79
2, 63948, Note_on_c, 0, 69, 63
2, 63956, Control_c, 0, 64, 79
2, 64033, Control_c, 0, 64, 78
2, 64072, Control_c, 0, 64, 78
2, 64089, Note_on_c, 0, 69, 0
2, 64091, Control_c, 0, 64, 75
2, 64110, Control_c, 0, 64, 69
2, 64130, Control_c, 0, 64, 63
2, 64137, Note_on_c, 0, 70, 51
2, 64149, Control_c, 0, 64, 56
2, 64168, Control_c, 0, 64, 52
2, 64207, Control_c, 0, 64, 54
2, 64225, Control_c, 0, 64, 57
2, 64245, Control_c, 0, 64, 61
2, 64264, Control_c, 0, 64, 63
2, 64283, Control_c, 0, 64, 66
2, 64287, Note_on_c, 0, 70, 0
2, 64302, Control_c, 0, 64, 68
2, 64321, Control_c, 0, 64, 70
2, 64341, Control_c, 0, 64, 73
2, 64341, Note_on_c, 0, 69, 53
2, 64360, Control_c, 0, 64, 75
2, 64379, Control_c, 0, 64, 76
2, 64390, Note_on_c, 0, 69, 0
2, 64398, Control_c, 0, 64, 77
2, 64421, Note_on_c, 0, 60, 0
2, 64436, Control_c, 0, 64, 77
2, 64439, Note_on_c, 0, 70, 52
2, 64456, Control_c, 0, 64, 78
2, 64474, Note_on_c, 0, 70, 0
2, 64475, Control_c, 0, 64, 79
2, 64487, Note_on_c, 0, 57, 0
2, 64495, Control_c, 0, 64, 81
2, 64497, Note_on_c, 0, 69, 64
2, 64513, Control_c, 0, 64, 82
2, 64520, Note_on_c, 0, 51, 0
2, 64533, Control_c, 0, 64, 82
2, 64536, Note_on_c, 0, 69, 0
2, 64569, Note_on_c, 0, 70, 65
2, 64613, Note_on_c, 0, 70, 0
2, 64625, Note_on_c, 0, 69, 71
2, 64629, Control_c, 0, 64, 83
2, 64686, Note_on_c, 0, 69, 0
2, 64687, Control_c, 0, 64, 83
2, 64718, Note_on_c, 0, 67, 67
2, 64801, Control_c, 0, 64, 83
2, 64805, Note_on_c, 0, 67, 0
2, 64824, Note_on_c, 0, 69, 74
2, 64857, Note_on_c, 0, 49, 42
2, 64916, Control_c, 0, 64, 82
2, 64922, Note_on_c, 0, 53, 41
2, 64975, Control_c, 0, 64, 82
2, 64993, Control_c, 0, 64, 81
2, 65013, Control_c, 0, 64, 80
2, 65032, Control_c, 0, 64, 79
2, 65051, Control_c, 0, 64, 78
2, 65070, Control_c, 0, 64, 77
2, 65080, Note_on_c, 0, 70, 71
2, 65090, Control_c, 0, 64, 74
2, 65109, Control_c, 0, 64, 70
2, 65115, Note_on_c, 0, 58, 40
2, 65123, Note_on_c, 0, 69, 0
2, 65128, Control_c, 0, 64, 65
2, 65147, Control_c, 0, 64, 61
2, 65167, Control_c, 0, 64, 57
2, 65185, Control_c, 0, 64, 51
2, 65205, Control_c, 0, 64, 44
2, 65224, Control_c, 0, 64, 37
2, 65243, Control_c, 0, 64, 32
2, 65262, Control_c, 0, 64, 31
2, 65301, Control_c, 0, 64, 34
2, 65320, Control_c, 0, 64, 40
2, 65339, Control_c, 0, 64, 45
2, 65358, Control_c, 0, 64, 50
2, 65378, Control_c, 0, 64, 56
2, 65396, Control_c, 0, 64, 59
2, 65416, Control_c, 0, 64, 62
2, 65435, Control_c, 0, 64, 63
2, 65455, Control_c, 0, 64, 65
2, 65473, Control_c, 0, 64, 66
2, 65493, Control_c, 0, 64, 68
2, 65512, Control_c, 0, 64, 71
2, 65531, Control_c, 0, 64, 75
2, 65550, Control_c, 0, 64, 79
2, 65570, Control_c, 0, 64, 81
2, 65589, Control_c, 0, 64, 82
2, 65608, Control_c, 0, 64, 83
2, 65647, Control_c, 0, 64, 83
2, 65666, Control_c, 0, 64, 84
2, 65686, Control_c, 0, 64, 85
2, 65705, Control_c, 0, 64, 86
2, 65713, Note_on_c, 0, 58, 0
2, 65725, Control_c, 0, 64, 86
2, 65752, Note_on_c, 0, 53, 0
2, 65767, Note_on_c, 0, 49, 0
2, 65973, Control_c, 0, 64, 86
2, 66011, Control_c, 0, 64, 85
2, 66050, Control_c, 0, 64, 85
2, 66107, Control_c, 0, 64, 84
2, 66165, Control_c, 0, 64, 84
2, 66184, Control_c, 0, 64, 83
2, 66203, Control_c, 0, 64, 83
2, 66222, Control_c, 0, 64, 82
2, 66241, Control_c, 0, 64, 82
2, 66261, Control_c, 0, 64, 81
2, 66299, Control_c, 0, 64, 81
2, 66356, Control_c, 0, 64, 80
2, 66376, Control_c, 0, 64, 80
2, 66395, Control_c, 0, 64, 79
2, 66415, Control_c, 0, 64, 79
2, 66428, Note_on_c, 0, 65, 39
2, 66433, Control_c, 0, 64, 78
2, 66453, Control_c, 0, 64, 77
2, 66472, Control_c, 0, 64, 77
2, 66491, Control_c, 0, 64, 76
2, 66510, Control_c, 0, 64, 76
2, 66530, Control_c, 0, 64, 75
2, 66549, Control_c, 0, 64, 74
2, 66568, Control_c, 0, 64, 72
2, 66587, Control_c, 0, 64, 71
2, 66607, Control_c, 0, 64, 71
2, 66625, Control_c, 0, 64, 70
2, 66664, Control_c, 0, 64, 70
2, 66683, Control_c, 0, 64, 69
2, 66702, Control_c, 0, 64, 69
2, 66721, Control_c, 0, 64, 68
2, 66760, Control_c, 0, 64, 68
2, 66798, Control_c, 0, 64, 66
2, 66818, Control_c, 0, 64, 65
2, 66821, Note_on_c, 0, 66, 39
2, 66830, Note_on_c, 0, 51, 24
2, 66836, Control_c, 0, 64, 62
2, 66837, Note_on_c, 0, 58, 27
2, 66845, Note_on_c, 0, 65, 0
2, 66856, Control_c, 0, 64, 58
2, 66875, Control_c, 0, 64, 53
2, 66895, Control_c, 0, 64, 49
2, 66913, Control_c, 0, 64, 46
2, 66933, Control_c, 0, 64, 45
2, 66971, Control_c, 0, 64, 47
2, 66990, Control_c, 0, 64, 50
2, 67010, Control_c, 0, 64, 53
2, 67029, Control_c, 0, 64, 57
2, 67048, Control_c, 0, 64, 59
2, 67067, Control_c, 0, 64, 62
2, 67087, Control_c, 0, 64, 63
2, 67105, Control_c, 0, 64, 64
2, 67125, Control_c, 0, 64, 65
2, 67144, Control_c, 0, 64, 66
2, 67163, Control_c, 0, 64, 67
2, 67182, Control_c, 0, 64, 68
2, 67201, Control_c, 0, 64, 69
2, 67221, Control_c, 0, 64, 70
2, 67240, Control_c, 0, 64, 71
2, 67259, Control_c, 0, 64, 73
2, 67278, Control_c, 0, 64, 74
2, 67298, Control_c, 0, 64, 76
2, 67316, Control_c, 0, 64, 78
2, 67336, Control_c, 0, 64, 80
2, 67355, Control_c, 0, 64, 80
2, 67393, Control_c, 0, 64, 81
2, 67662, Control_c, 0, 64, 80
2, 67702, Note_on_c, 0, 58, 0
2, 68080, Note_on_c, 0, 63, 35
2, 68085, Control_c, 0, 64, 80
2, 68123, Control_c, 0, 64, 79
2, 68161, Control_c, 0, 64, 79
2, 68181, Control_c, 0, 64, 78
2, 68200, Control_c, 0, 64, 78
2, 68219, Control_c, 0, 64, 77
2, 68238, Control_c, 0, 64, 77
2, 68258, Control_c, 0, 64, 76
2, 68296, Control_c, 0, 64, 76
2, 68315, Control_c, 0, 64, 75
2, 68335, Control_c, 0, 64, 75
2, 68373, Control_c, 0, 64, 74
2, 68411, Control_c, 0, 64, 73
2, 68430, Control_c, 0, 64, 72
2, 68450, Control_c, 0, 64, 72
2, 68469, Control_c, 0, 64, 71
2, 68473, Note_on_c, 0, 51, 0
2, 68488, Control_c, 0, 64, 70
2, 68499, Note_on_c, 0, 60, 34
2, 68507, Control_c, 0, 64, 69
2, 68527, Control_c, 0, 64, 67
2, 68530, Note_on_c, 0, 53, 20
2, 68536, Note_on_c, 0, 63, 0
2, 68545, Control_c, 0, 64, 65
2, 68565, Control_c, 0, 64, 62
2, 68575, Note_on_c, 0, 66, 0
2, 68584, Control_c, 0, 64, 59
2, 68603, Control_c, 0, 64, 55
2, 68622, Control_c, 0, 64, 51
2, 68640, Control_c, 0, 64, 50
2, 68660, Control_c, 0, 64, 49
2, 68698, Control_c, 0, 64, 50
2, 68717, Control_c, 0, 64, 52
2, 68737, Control_c, 0, 64, 55
2, 68755, Control_c, 0, 64, 58
2, 68775, Control_c, 0, 64, 61
2, 68794, Control_c, 0, 64, 62
2, 68814, Control_c, 0, 64, 63
2, 68832, Control_c, 0, 64, 64
2, 68852, Control_c, 0, 64, 64
2, 68871, Control_c, 0, 64, 65
2, 68891, Control_c, 0, 64, 65
2, 68909, Control_c, 0, 64, 66
2, 68929, Control_c, 0, 64, 67
2, 68948, Control_c, 0, 64, 68
2, 68967, Control_c, 0, 64, 69
2, 68986, Control_c, 0, 64, 69
2, 69006, Control_c, 0, 64, 70
2, 69025, Control_c, 0, 64, 70
2, 69043, Control_c, 0, 64, 71
2, 69063, Control_c, 0, 64, 71
2, 69082, Control_c, 0, 64, 72
2, 69101, Control_c, 0, 64, 73
2, 69120, Control_c, 0, 64, 74
2, 69140, Control_c, 0, 64, 75
2, 69159, Control_c, 0, 64, 75
2, 69178, Control_c, 0, 64, 76
2, 69235, Control_c, 0, 67, 13
2, 69255, Control_c, 0, 67, 24
2, 69274, Control_c, 0, 67, 33
2, 69294, Control_c, 0, 67, 44
2, 69312, Control_c, 0, 67, 57
2, 69332, Control_c, 0, 67, 72
2, 69351, Control_c, 0, 67, 86
2, 69371, Control_c, 0, 67, 100
2, 69389, Control_c, 0, 67, 115
2, 69409, Control_c, 0, 67, 127
2, 69476, Note_on_c, 0, 53, 0
2, 69619, Note_on_c, 0, 60, 0
2, 69650, Note_on_c, 0, 61, 26
2, 69835, Note_on_c, 0, 61, 0
2, 69860, Note_on_c, 0, 60, 33
2, 69966, Control_c, 0, 64, 75
2, 70004, Note_on_c, 0, 61, 37
2, 70011, Note_on_c, 0, 60, 0
2, 70023, Control_c, 0, 64, 75
2, 70061, Control_c, 0, 64, 74
2, 70080, Control_c, 0, 64, 74
2, 70100, Control_c, 0, 64, 73
2, 70119, Control_c, 0, 64, 72
2, 70138, Control_c, 0, 64, 71
2, 70157, Control_c, 0, 64, 70
2, 70163, Note_on_c, 0, 61, 0
2, 70177, Control_c, 0, 64, 69
2, 70187, Note_on_c, 0, 41, 29
2, 70195, Control_c, 0, 64, 67
2, 70214, Note_on_c, 0, 63, 39
2, 70215, Control_c, 0, 64, 64
2, 70218, Note_on_c, 0, 53, 14
2, 70234, Control_c, 0, 64, 62
2, 70254, Control_c, 0, 64, 60
2, 70272, Control_c, 0, 64, 55
2, 70292, Control_c, 0, 64, 51
2, 70311, Control_c, 0, 64, 46
2, 70331, Control_c, 0, 64, 40
2, 70349, Control_c, 0, 64, 36
2, 70369, Control_c, 0, 64, 36
2, 70376, Note_on_c, 0, 63, 0
2, 70407, Control_c, 0, 64, 40
2, 70411, Note_on_c, 0, 61, 33
2, 70426, Control_c, 0, 64, 45
2, 70446, Control_c, 0, 64, 51
2, 70465, Control_c, 0, 64, 57
2, 70483, Control_c, 0, 64, 60
2, 70503, Control_c, 0, 64, 62
2, 70515, Note_on_c, 0, 61, 0
2, 70522, Control_c, 0, 64, 63
2, 70541, Control_c, 0, 64, 64
2, 70559, Control_c, 0, 64, 64
2, 70569, Note_on_c, 0, 60, 40
2, 70579, Control_c, 0, 64, 65
2, 70598, Control_c, 0, 64, 66
2, 70617, Control_c, 0, 64, 67
2, 70636, Control_c, 0, 64, 67
2, 70656, Control_c, 0, 64, 68
2, 70675, Control_c, 0, 64, 68
2, 70694, Control_c, 0, 64, 69
2, 70706, Note_on_c, 0, 60, 0
2, 70713, Control_c, 0, 64, 70
2, 70733, Control_c, 0, 64, 70
2, 70751, Control_c, 0, 64, 71
2, 70752, Note_on_c, 0, 61, 33
2, 70771, Control_c, 0, 64, 71
2, 70790, Control_c, 0, 64, 72
2, 70810, Control_c, 0, 64, 72
2, 70828, Control_c, 0, 64, 73
2, 70844, Note_on_c, 0, 61, 0
2, 70848, Control_c, 0, 64, 73
2, 70886, Control_c, 0, 64, 74
2, 70905, Control_c, 0, 64, 74
2, 70915, Note_on_c, 0, 63, 33
2, 70924, Control_c, 0, 64, 75
2, 70944, Control_c, 0, 64, 75
2, 71027, Note_on_c, 0, 63, 0
2, 71090, Note_on_c, 0, 53, 0
2, 71113, Note_on_c, 0, 65, 24
2, 71174, Control_c, 0, 64, 76
2, 71200, Note_on_c, 0, 65, 0
2, 71230, Note_on_c, 0, 41, 0
2, 71251, Control_c, 0, 64, 75
2, 71275, Note_on_c, 0, 63, 30
2, 71308, Control_c, 0, 64, 75
2, 71308, Note_on_c, 0, 70, 0
2, 71347, Control_c, 0, 64, 74
2, 71366, Control_c, 0, 64, 74
2, 71385, Control_c, 0, 64, 73
2, 71404, Control_c, 0, 64, 73
2, 71426, Control_c, 0, 64, 72
2, 71444, Control_c, 0, 64, 72
2, 71446, Note_on_c, 0, 65, 39
2, 71464, Control_c, 0, 64, 71
2, 71472, Note_on_c, 0, 63, 0
2, 71483, Control_c, 0, 64, 71
2, 71501, Control_c, 0, 64, 70
2, 71519, Control_c, 0, 64, 69
2, 71539, Control_c, 0, 64, 69
2, 71558, Control_c, 0, 64, 68
2, 71577, Control_c, 0, 64, 67
2, 71596, Control_c, 0, 64, 67
2, 71616, Control_c, 0, 64, 66
2, 71635, Control_c, 0, 64, 65
2, 71654, Control_c, 0, 64, 63
2, 71673, Control_c, 0, 64, 63
2, 71693, Control_c, 0, 64, 61
2, 71711, Control_c, 0, 64, 60
2, 71718, Note_on_c, 0, 69, 47
2, 71724, Note_on_c, 0, 65, 0
2, 71731, Control_c, 0, 64, 58
2, 71741, Note_on_c, 0, 41, 23
2, 71741, Note_on_c, 0, 53, 26
2, 71741, Note_on_c, 0, 66, 36
2, 71750, Control_c, 0, 64, 55
2, 71755, Note_on_c, 0, 60, 29
2, 71770, Control_c, 0, 64, 52
2, 71788, Control_c, 0, 64, 46
2, 71808, Control_c, 0, 64, 38
2, 71827, Control_c, 0, 64, 26
2, 71846, Control_c, 0, 64, 0
2, 71961, Control_c, 0, 64, 35
2, 71981, Control_c, 0, 64, 52
2, 71999, Control_c, 0, 64, 59
2, 72019, Control_c, 0, 64, 61
2, 72038, Control_c, 0, 64, 62
2, 72053, Note_on_c, 0, 66, 0
2, 72057, Control_c, 0, 64, 63
2, 72076, Control_c, 0, 64, 64
2, 72096, Control_c, 0, 64, 64
2, 72134, Control_c, 0, 64, 65
2, 72299, Note_on_c, 0, 66, 36
2, 72307, Control_c, 0, 64, 64
2, 72326, Control_c, 0, 64, 64
2, 72338, Note_on_c, 0, 66, 0
2, 72345, Control_c, 0, 64, 63
2, 72364, Control_c, 0, 64, 61
2, 72376, Note_on_c, 0, 65, 39
2, 72386, Control_c, 0, 64, 59
2, 72404, Control_c, 0, 64, 56
2, 72417, Note_on_c, 0, 65, 0
2, 72424, Control_c, 0, 64, 51
2, 72443, Control_c, 0, 64, 45
2, 72452, Note_on_c, 0, 66, 52
2, 72462, Control_c, 0, 64, 36
2, 72482, Control_c, 0, 64, 19
2, 72501, Note_on_c, 0, 66, 0
2, 72502, Control_c, 0, 64, 0
2, 72547, Note_on_c, 0, 65, 40
2, 72694, Control_c, 0, 64, 36
2, 72713, Control_c, 0, 64, 52
2, 72732, Control_c, 0, 64, 59
2, 72751, Control_c, 0, 64, 61
2, 72771, Control_c, 0, 64, 63
2, 72790, Control_c, 0, 64, 64
2, 72809, Control_c, 0, 64, 64
2, 72828, Control_c, 0, 64, 65
2, 72848, Control_c, 0, 64, 66
2, 72866, Control_c, 0, 64, 68
2, 72886, Control_c, 0, 64, 70
2, 72894, Note_on_c, 0, 69, 0
2, 72905, Control_c, 0, 64, 71
2, 72909, Note_on_c, 0, 41, 0
2, 72922, Note_on_c, 0, 60, 0
2, 72924, Control_c, 0, 64, 71
2, 72943, Control_c, 0, 64, 72
2, 72962, Control_c, 0, 67, 125
2, 72982, Control_c, 0, 64, 72
2, 72982, Control_c, 0, 67, 121
2, 72990, Note_on_c, 0, 65, 0
2, 73000, Control_c, 0, 67, 116
2, 73020, Control_c, 0, 67, 109
2, 73039, Control_c, 0, 67, 102
2, 73042, Note_on_c, 0, 53, 0
2, 73059, Control_c, 0, 67, 93
2, 73077, Control_c, 0, 67, 86
2, 73097, Control_c, 0, 67, 81
2, 73116, Control_c, 0, 67, 77
2, 73136, Control_c, 0, 67, 73
2, 73154, Control_c, 0, 67, 71
2, 73174, Control_c, 0, 67, 69
2, 73193, Control_c, 0, 67, 66
2, 73212, Control_c, 0, 67, 63
2, 73231, Control_c, 0, 67, 60
2, 73251, Control_c, 0, 67, 56
2, 73270, Control_c, 0, 67, 51
2, 73289, Control_c, 0, 67, 46
2, 73308, Control_c, 0, 67, 41
2, 73320, Note_on_c, 0, 63, 42
2, 73328, Control_c, 0, 67, 35
2, 73346, Control_c, 0, 67, 29
2, 73364, Control_c, 0, 67, 22
2, 73384, Control_c, 0, 67, 14
2, 73389, Note_on_c, 0, 63, 0
2, 73403, Control_c, 0, 67, 0
2, 73498, Control_c, 0, 64, 72
2, 73537, Control_c, 0, 64, 71
2, 73555, Control_c, 0, 64, 71
2, 73575, Control_c, 0, 64, 69
2, 73593, Note_on_c, 0, 70, 50
2, 73594, Control_c, 0, 64, 68
2, 73614, Control_c, 0, 64, 67
2, 73616, Note_on_c, 0, 53, 22
2, 73622, Note_on_c, 0, 61, 36
2, 73624, Note_on_c, 0, 46, 20
2, 73630, Note_on_c, 0, 58, 22
2, 73632, Control_c, 0, 64, 64
2, 73652, Control_c, 0, 64, 61
2, 73671, Control_c, 0, 64, 57
2, 73691, Control_c, 0, 64, 52
2, 73709, Control_c, 0, 64, 45
2, 73729, Control_c, 0, 64, 39
2, 73748, Control_c, 0, 64, 31
2, 73767, Control_c, 0, 64, 26
2, 73786, Control_c, 0, 64, 19
2, 73806, Control_c, 0, 64, 11
2, 73825, Control_c, 0, 64, 0
2, 73959, Control_c, 0, 64, 13
2, 73978, Control_c, 0, 64, 21
2, 73997, Control_c, 0, 64, 31
2, 74017, Control_c, 0, 64, 38
2, 74035, Control_c, 0, 64, 45
2, 74055, Control_c, 0, 64, 50
2, 74074, Control_c, 0, 64, 55
2, 74094, Control_c, 0, 64, 58
2, 74112, Control_c, 0, 64, 60
2, 74132, Control_c, 0, 64, 62
2, 74151, Control_c, 0, 64, 63
2, 74171, Control_c, 0, 64, 64
2, 74189, Control_c, 0, 64, 65
2, 74209, Control_c, 0, 64, 66
2, 74228, Control_c, 0, 64, 67
2, 74247, Control_c, 0, 64, 68
2, 74266, Control_c, 0, 64, 70
2, 74285, Control_c, 0, 64, 71
2, 74306, Control_c, 0, 64, 72
2, 74324, Control_c, 0, 64, 72
2, 74344, Control_c, 0, 64, 73
2, 74363, Control_c, 0, 64, 73
2, 74382, Control_c, 0, 64, 74
2, 74396, Note_on_c, 0, 61, 0
2, 74401, Control_c, 0, 64, 74
2, 74421, Control_c, 0, 64, 75
2, 74709, Control_c, 0, 64, 74
2, 74843, Control_c, 0, 64, 74
2, 74881, Control_c, 0, 64, 73
2, 74915, Note_on_c, 0, 46, 0
2, 74939, Control_c, 0, 64, 73
2, 74942, Note_on_c, 0, 70, 0
2, 74947, Note_on_c, 0, 72, 41
2, 74970, Note_on_c, 0, 63, 27
2, 75016, Control_c, 0, 64, 72
2, 75049, Note_on_c, 0, 58, 0
2, 75055, Control_c, 0, 64, 72
2, 75073, Control_c, 0, 64, 71
2, 75076, Note_on_c, 0, 53, 0
2, 75090, Note_on_c, 0, 63, 0
2, 75112, Control_c, 0, 64, 71
2, 75131, Control_c, 0, 64, 70
2, 75150, Control_c, 0, 64, 70
2, 75189, Control_c, 0, 64, 69
2, 75227, Control_c, 0, 64, 69
2, 75247, Control_c, 0, 64, 68
2, 75266, Control_c, 0, 64, 67
2, 75278, Note_on_c, 0, 72, 0
2, 75284, Control_c, 0, 64, 67
2, 75304, Control_c, 0, 64, 66
2, 75307, Note_on_c, 0, 65, 7
2, 75323, Control_c, 0, 64, 66
2, 75342, Control_c, 0, 64, 65
2, 75347, Note_on_c, 0, 70, 25
2, 75360, Control_c, 0, 64, 63
2, 75380, Control_c, 0, 64, 62
2, 75386, Note_on_c, 0, 73, 46
2, 75399, Control_c, 0, 64, 61
2, 75418, Control_c, 0, 64, 59
2, 75437, Control_c, 0, 64, 57
2, 75457, Control_c, 0, 64, 54
2, 75475, Control_c, 0, 64, 50
2, 75495, Control_c, 0, 64, 46
2, 75514, Control_c, 0, 64, 44
2, 75534, Control_c, 0, 64, 43
2, 75552, Control_c, 0, 64, 42
2, 75629, Control_c, 0, 64, 43
2, 75649, Control_c, 0, 64, 46
2, 75668, Control_c, 0, 64, 50
2, 75687, Control_c, 0, 64, 54
2, 75706, Control_c, 0, 64, 58
2, 75725, Control_c, 0, 64, 60
2, 75745, Control_c, 0, 64, 61
2, 75763, Control_c, 0, 64, 62
2, 75783, Control_c, 0, 64, 63
2, 75802, Control_c, 0, 64, 63
2, 75821, Control_c, 0, 64, 64
2, 75840, Control_c, 0, 64, 64
2, 75860, Control_c, 0, 64, 65
2, 75898, Control_c, 0, 64, 65
2, 75978, Control_c, 0, 64, 66
2, 76026, Note_on_c, 0, 65, 0
2, 76035, Control_c, 0, 64, 66
2, 76054, Control_c, 0, 64, 67
2, 76074, Control_c, 0, 64, 67
2, 76093, Control_c, 0, 64, 68
2, 76112, Control_c, 0, 64, 68
2, 76131, Control_c, 0, 64, 69
2, 76151, Control_c, 0, 64, 70
2, 76169, Control_c, 0, 64, 70
2, 76189, Control_c, 0, 64, 71
2, 76208, Control_c, 0, 64, 71
2, 76229, Control_c, 0, 64, 72
2, 76248, Control_c, 0, 64, 73
2, 76268, Control_c, 0, 64, 73
2, 76287, Control_c, 0, 64, 74
2, 76304, Control_c, 0, 64, 74
2, 76324, Control_c, 0, 64, 75
2, 76344, Control_c, 0, 64, 75
2, 76363, Control_c, 0, 64, 76
2, 76382, Control_c, 0, 64, 76
2, 76421, Control_c, 0, 64, 77
2, 76439, Control_c, 0, 64, 77
2, 76453, Note_on_c, 0, 70, 0
2, 76478, Control_c, 0, 64, 78
2, 76498, Control_c, 0, 64, 78
2, 76512, Note_on_c, 0, 73, 0
2, 76535, Control_c, 0, 64, 79
2, 76579, Note_on_c, 0, 46, 35
2, 76593, Control_c, 0, 64, 79
2, 76727, Control_c, 0, 64, 79
2, 76862, Control_c, 0, 64, 78
2, 76876, Note_on_c, 0, 65, 36
2, 76881, Control_c, 0, 64, 78
2, 76901, Control_c, 0, 64, 77
2, 76919, Control_c, 0, 64, 75
2, 76919, Note_on_c, 0, 70, 41
2, 76939, Control_c, 0, 64, 72
2, 76953, Note_on_c, 0, 49, 47
2, 76958, Control_c, 0, 64, 66
2, 76972, Note_on_c, 0, 46, 0
2, 76978, Control_c, 0, 64, 62
2, 76989, Note_on_c, 0, 73, 41
2, 76996, Control_c, 0, 64, 56
2, 77015, Control_c, 0, 64, 49
2, 77035, Control_c, 0, 64, 43
2, 77053, Control_c, 0, 64, 37
2, 77073, Control_c, 0, 64, 35
2, 77092, Control_c, 0, 64, 35
2, 77130, Control_c, 0, 64, 36
2, 77150, Control_c, 0, 64, 38
2, 77169, Control_c, 0, 64, 42
2, 77189, Control_c, 0, 64, 47
2, 77207, Control_c, 0, 64, 52
2, 77227, Control_c, 0, 64, 56
2, 77246, Control_c, 0, 64, 59
2, 77265, Control_c, 0, 64, 60
2, 77284, Control_c, 0, 64, 62
2, 77304, Control_c, 0, 64, 63
2, 77323, Control_c, 0, 64, 64
2, 77342, Control_c, 0, 64, 65
2, 77361, Control_c, 0, 64, 66
2, 77381, Control_c, 0, 64, 67
2, 77399, Control_c, 0, 64, 69
2, 77419, Control_c, 0, 64, 70
2, 77438, Control_c, 0, 64, 72
2, 77458, Control_c, 0, 64, 73
2, 77476, Control_c, 0, 64, 75
2, 77495, Control_c, 0, 64, 76
2, 77515, Control_c, 0, 64, 77
2, 77533, Control_c, 0, 64, 78
2, 77553, Control_c, 0, 64, 79
2, 77572, Control_c, 0, 64, 79
2, 77878, Note_on_c, 0, 73, 0
2, 78073, Note_on_c, 0, 65, 0
2, 78104, Note_on_c, 0, 70, 0
2, 78220, Note_on_c, 0, 53, 38
2, 78262, Control_c, 0, 64, 79
2, 78268, Note_on_c, 0, 49, 0
2, 78339, Control_c, 0, 64, 78
2, 78415, Control_c, 0, 64, 78
2, 78453, Control_c, 0, 64, 77
2, 78473, Control_c, 0, 64, 77
2, 78480, Note_on_c, 0, 64, 32
2, 78492, Control_c, 0, 64, 76
2, 78530, Control_c, 0, 64, 75
2, 78545, Note_on_c, 0, 70, 34
2, 78550, Control_c, 0, 64, 75
2, 78568, Control_c, 0, 64, 74
2, 78588, Control_c, 0, 64, 73
2, 78604, Note_on_c, 0, 43, 38
2, 78607, Control_c, 0, 64, 72
2, 78617, Note_on_c, 0, 73, 41
2, 78627, Control_c, 0, 64, 70
2, 78645, Control_c, 0, 64, 68
2, 78655, Note_on_c, 0, 53, 0
2, 78665, Control_c, 0, 64, 64
2, 78684, Control_c, 0, 64, 60
2, 78704, Control_c, 0, 64, 56
2, 78722, Control_c, 0, 64, 51
2, 78742, Control_c, 0, 64, 46
2, 78761, Control_c, 0, 64, 38
2, 78780, Control_c, 0, 64, 29
2, 78799, Control_c, 0, 64, 20
2, 78819, Control_c, 0, 64, 19
2, 78856, Control_c, 0, 64, 26
2, 78876, Control_c, 0, 64, 36
2, 78895, Control_c, 0, 64, 46
2, 78914, Control_c, 0, 64, 54
2, 78933, Control_c, 0, 64, 58
2, 78953, Control_c, 0, 64, 60
2, 78972, Control_c, 0, 64, 62
2, 78991, Control_c, 0, 64, 63
2, 79010, Control_c, 0, 64, 64
2, 79030, Control_c, 0, 64, 65
2, 79048, Control_c, 0, 64, 66
2, 79068, Control_c, 0, 64, 66
2, 79087, Control_c, 0, 64, 67
2, 79108, Control_c, 0, 64, 68
2, 79126, Control_c, 0, 64, 68
2, 79146, Control_c, 0, 64, 69
2, 79165, Control_c, 0, 64, 70
2, 79184, Control_c, 0, 64, 71
2, 79202, Control_c, 0, 64, 71
2, 79222, Control_c, 0, 64, 72
2, 79241, Control_c, 0, 64, 73
2, 79541, Note_on_c, 0, 64, 0
2, 79679, Note_on_c, 0, 70, 0
2, 79713, Note_on_c, 0, 73, 0
2, 79721, Control_c, 0, 64, 73
2, 79808, Note_on_c, 0, 71, 32
2, 79816, Control_c, 0, 64, 74
2, 79836, Control_c, 0, 64, 74
2, 79855, Control_c, 0, 64, 75
2, 79874, Control_c, 0, 64, 75
2, 79893, Control_c, 0, 64, 76
2, 79932, Control_c, 0, 64, 76
2, 79959, Note_on_c, 0, 71, 0
2, 79972, Note_on_c, 0, 70, 49
2, 80008, Control_c, 0, 64, 77
2, 80030, Note_on_c, 0, 70, 0
2, 80106, Control_c, 0, 64, 76
2, 80163, Control_c, 0, 64, 76
2, 80169, Note_on_c, 0, 70, 50
2, 80183, Control_c, 0, 64, 75
2, 80202, Control_c, 0, 64, 75
2, 80219, Note_on_c, 0, 73, 45
2, 80221, Control_c, 0, 64, 73
2, 80240, Control_c, 0, 64, 71
2, 80260, Control_c, 0, 64, 69
2, 80276, Note_on_c, 0, 76, 50
2, 80278, Control_c, 0, 64, 66
2, 80297, Control_c, 0, 64, 63
2, 80317, Control_c, 0, 64, 59
2, 80336, Control_c, 0, 64, 55
2, 80355, Control_c, 0, 64, 48
2, 80374, Control_c, 0, 64, 37
2, 80394, Control_c, 0, 64, 24
2, 80413, Control_c, 0, 64, 0
2, 80489, Control_c, 0, 64, 11
2, 80509, Control_c, 0, 64, 34
2, 80528, Control_c, 0, 64, 49
2, 80548, Control_c, 0, 64, 58
2, 80566, Control_c, 0, 64, 61
2, 80586, Control_c, 0, 64, 63
2, 80605, Control_c, 0, 64, 64
2, 80624, Control_c, 0, 64, 65
2, 80643, Control_c, 0, 64, 66
2, 80663, Control_c, 0, 64, 67
2, 80682, Control_c, 0, 64, 69
2, 80701, Control_c, 0, 64, 70
2, 80720, Control_c, 0, 64, 71
2, 80740, Control_c, 0, 64, 72
2, 80758, Control_c, 0, 64, 73
2, 80777, Control_c, 0, 64, 75
2, 80797, Control_c, 0, 64, 76
2, 80816, Control_c, 0, 64, 78
2, 80835, Control_c, 0, 64, 79
2, 80836, Note_on_c, 0, 43, 0
2, 80854, Control_c, 0, 64, 81
2, 80874, Control_c, 0, 64, 81
2, 80893, Control_c, 0, 64, 82
2, 80931, Control_c, 0, 64, 82
2, 80951, Control_c, 0, 64, 83
2, 80989, Control_c, 0, 64, 83
2, 81047, Control_c, 0, 64, 84
2, 81143, Control_c, 0, 64, 83
2, 81200, Control_c, 0, 64, 83
2, 81262, Note_on_c, 0, 46, 38
2, 81277, Control_c, 0, 64, 82
2, 81334, Control_c, 0, 64, 82
2, 81373, Control_c, 0, 64, 81
2, 81392, Control_c, 0, 64, 81
2, 81431, Control_c, 0, 64, 80
2, 81442, Note_on_c, 0, 44, 47
2, 81449, Control_c, 0, 64, 79
2, 81469, Control_c, 0, 64, 79
2, 81488, Control_c, 0, 64, 78
2, 81495, Note_on_c, 0, 46, 0
2, 81508, Control_c, 0, 64, 78
2, 81526, Control_c, 0, 64, 77
2, 81546, Control_c, 0, 64, 76
2, 81565, Control_c, 0, 64, 75
2, 81584, Control_c, 0, 64, 75
2, 81588, Note_on_c, 0, 43, 50
2, 81590, Note_on_c, 0, 44, 0
2, 81603, Control_c, 0, 64, 74
2, 81623, Control_c, 0, 64, 74
2, 81642, Control_c, 0, 64, 73
2, 81661, Control_c, 0, 64, 72
2, 81680, Control_c, 0, 64, 71
2, 81700, Control_c, 0, 64, 70
2, 81718, Control_c, 0, 64, 69
2, 81737, Control_c, 0, 64, 68
2, 81757, Control_c, 0, 64, 67
2, 81776, Control_c, 0, 64, 65
2, 81795, Control_c, 0, 64, 64
2, 81808, Note_on_c, 0, 49, 59
2, 81814, Control_c, 0, 64, 61
2, 81834, Control_c, 0, 64, 58
2, 81853, Control_c, 0, 64, 53
2, 81869, Note_on_c, 0, 43, 0
2, 81872, Control_c, 0, 64, 48
2, 81891, Control_c, 0, 64, 42
2, 81911, Control_c, 0, 64, 32
2, 81929, Control_c, 0, 64, 11
2, 81949, Control_c, 0, 64, 0
2, 82083, Control_c, 0, 64, 37
2, 82103, Control_c, 0, 64, 54
2, 82122, Control_c, 0, 64, 61
2, 82141, Control_c, 0, 64, 63
2, 82160, Control_c, 0, 64, 64
2, 82180, Control_c, 0, 64, 65
2, 82198, Control_c, 0, 64, 66
2, 82217, Control_c, 0, 64, 67
2, 82237, Control_c, 0, 64, 68
2, 82256, Control_c, 0, 64, 70
2, 82275, Control_c, 0, 64, 72
2, 82294, Control_c, 0, 64, 74
2, 82314, Control_c, 0, 64, 75
2, 82333, Control_c, 0, 64, 76
2, 82366, Note_on_c, 0, 76, 0
2, 82371, Control_c, 0, 64, 76
2, 82377, Note_on_c, 0, 70, 0
2, 82381, Note_on_c, 0, 73, 0
2, 82391, Control_c, 0, 64, 77
2, 82409, Control_c, 0, 64, 77
2, 82906, Note_on_c, 0, 75, 63
2, 82928, Control_c, 0, 64, 78
2, 82966, Control_c, 0, 64, 78
2, 83062, Note_on_c, 0, 73, 67
2, 83120, Control_c, 0, 64, 78
2, 83132, Note_on_c, 0, 73, 0
2, 83254, Control_c, 0, 64, 77
2, 83274, Control_c, 0, 64, 76
2, 83293, Control_c, 0, 64, 74
2, 83297, Note_on_c, 0, 79, 74
2, 83312, Control_c, 0, 64, 71
2, 83316, Note_on_c, 0, 73, 51
2, 83325, Note_on_c, 0, 75, 0
2, 83331, Control_c, 0, 64, 67
2, 83334, Note_on_c, 0, 70, 45
2, 83351, Control_c, 0, 64, 62
2, 83369, Control_c, 0, 64, 58
2, 83389, Control_c, 0, 64, 53
2, 83408, Control_c, 0, 64, 47
2, 83428, Control_c, 0, 64, 41
2, 83446, Control_c, 0, 64, 37
2, 83466, Control_c, 0, 64, 36
2, 83504, Control_c, 0, 64, 37
2, 83523, Control_c, 0, 64, 39
2, 83543, Control_c, 0, 64, 43
2, 83562, Control_c, 0, 64, 48
2, 83581, Control_c, 0, 64, 53
2, 83600, Control_c, 0, 64, 57
2, 83620, Control_c, 0, 64, 60
2, 83638, Control_c, 0, 64, 62
2, 83657, Control_c, 0, 64, 64
2, 83677, Control_c, 0, 64, 65
2, 83696, Control_c, 0, 64, 66
2, 83715, Control_c, 0, 64, 68
2, 83734, Control_c, 0, 64, 71
2, 83754, Control_c, 0, 64, 73
2, 83773, Control_c, 0, 64, 76
2, 83792, Control_c, 0, 64, 77
2, 83811, Control_c, 0, 64, 78
2, 83831, Control_c, 0, 64, 79
2, 83849, Control_c, 0, 64, 79
2, 83856, Note_on_c, 0, 49, 0
2, 83869, Control_c, 0, 64, 80
2, 83888, Control_c, 0, 64, 81
2, 83909, Control_c, 0, 64, 83
2, 83927, Control_c, 0, 64, 84
2, 83947, Control_c, 0, 64, 85
2, 83966, Control_c, 0, 64, 86
2, 83985, Control_c, 0, 64, 87
2, 84003, Control_c, 0, 64, 88
2, 84023, Control_c, 0, 64, 88
2, 84042, Control_c, 0, 64, 89
2, 84061, Control_c, 0, 64, 89
2, 84118, Control_c, 0, 64, 90
2, 84381, Note_on_c, 0, 47, 53
2, 84522, Control_c, 0, 64, 89
2, 84560, Control_c, 0, 64, 89
2, 84561, Note_on_c, 0, 46, 64
2, 84576, Note_on_c, 0, 47, 0
2, 84580, Control_c, 0, 64, 88
2, 84598, Control_c, 0, 64, 88
2, 84637, Control_c, 0, 64, 87
2, 84675, Control_c, 0, 64, 86
2, 84694, Control_c, 0, 64, 85
2, 84714, Control_c, 0, 64, 84
2, 84733, Control_c, 0, 64, 82
2, 84752, Control_c, 0, 64, 80
2, 84771, Control_c, 0, 64, 78
2, 84791, Control_c, 0, 64, 75
2, 84809, Control_c, 0, 64, 72
2, 84811, Note_on_c, 0, 52, 66
2, 84823, Note_on_c, 0, 46, 0
2, 84829, Control_c, 0, 64, 70
2, 84848, Control_c, 0, 64, 68
2, 84868, Control_c, 0, 64, 66
2, 84886, Control_c, 0, 64, 64
2, 84906, Control_c, 0, 64, 62
2, 84925, Control_c, 0, 64, 60
2, 84944, Control_c, 0, 64, 58
2, 84961, Control_c, 0, 64, 55
2, 84981, Control_c, 0, 64, 51
2, 85000, Control_c, 0, 64, 46
2, 85018, Control_c, 0, 64, 37
2, 85038, Control_c, 0, 64, 21
2, 85057, Control_c, 0, 64, 0
2, 85233, Note_on_c, 0, 51, 63
2, 85270, Note_on_c, 0, 52, 0
2, 85590, Note_on_c, 0, 52, 65
2, 85617, Note_on_c, 0, 51, 0
2, 85922, Control_c, 0, 64, 28
2, 85942, Control_c, 0, 64, 48
2, 85943, Note_on_c, 0, 77, 75
2, 85951, Note_on_c, 0, 79, 0
2, 85954, Note_on_c, 0, 49, 57
2, 85961, Control_c, 0, 64, 57
2, 85980, Control_c, 0, 64, 60
2, 85981, Note_on_c, 0, 73, 0
2, 85999, Control_c, 0, 64, 61
2, 86018, Control_c, 0, 64, 62
2, 86022, Note_on_c, 0, 52, 0
2, 86037, Note_on_c, 0, 70, 0
2, 86038, Control_c, 0, 64, 63
2, 86056, Control_c, 0, 64, 64
2, 86076, Control_c, 0, 64, 64
2, 86114, Control_c, 0, 64, 65
2, 86134, Note_on_c, 0, 75, 78
2, 86153, Control_c, 0, 64, 65
2, 86172, Control_c, 0, 64, 66
2, 86229, Note_on_c, 0, 75, 0
2, 86230, Control_c, 0, 64, 66
2, 86307, Control_c, 0, 64, 66
2, 86348, Note_on_c, 0, 47, 61
2, 86361, Note_on_c, 0, 49, 0
2, 86397, Note_on_c, 0, 80, 80
2, 86403, Note_on_c, 0, 75, 59
2, 86416, Note_on_c, 0, 71, 55
2, 86422, Control_c, 0, 64, 65
2, 86441, Control_c, 0, 64, 64
2, 86454, Note_on_c, 0, 77, 0
2, 86460, Control_c, 0, 64, 62
2, 86479, Control_c, 0, 64, 57
2, 86498, Control_c, 0, 64, 48
2, 86518, Control_c, 0, 64, 31
2, 86536, Control_c, 0, 64, 0
2, 86652, Control_c, 0, 64, 31
2, 86655, Note_on_c, 0, 46, 63
2, 86670, Note_on_c, 0, 47, 0
2, 86671, Control_c, 0, 64, 43
2, 86690, Control_c, 0, 64, 51
2, 86710, Control_c, 0, 64, 55
2, 86728, Control_c, 0, 64, 56
2, 86767, Control_c, 0, 64, 57
2, 86787, Control_c, 0, 64, 57
2, 86825, Control_c, 0, 64, 58
2, 86845, Note_on_c, 0, 44, 70
2, 86856, Note_on_c, 0, 46, 0
2, 87012, Note_on_c, 0, 46, 70
2, 87016, Control_c, 0, 64, 57
2, 87034, Note_on_c, 0, 44, 0
2, 87093, Control_c, 0, 64, 57
2, 87113, Control_c, 0, 64, 56
2, 87132, Control_c, 0, 64, 55
2, 87151, Control_c, 0, 64, 53
2, 87170, Control_c, 0, 64, 51
2, 87190, Control_c, 0, 64, 49
2, 87193, Note_on_c, 0, 47, 75
2, 87199, Note_on_c, 0, 46, 0
2, 87208, Control_c, 0, 64, 47
2, 87228, Control_c, 0, 64, 45
2, 87247, Control_c, 0, 64, 41
2, 87267, Control_c, 0, 64, 35
2, 87285, Control_c, 0, 64, 26
2, 87305, Control_c, 0, 64, 0
2, 87358, Note_on_c, 0, 44, 69
2, 87374, Note_on_c, 0, 47, 0
2, 87496, Control_c, 0, 64, 33
2, 87516, Control_c, 0, 64, 47
2, 87534, Note_on_c, 0, 46, 71
2, 87535, Control_c, 0, 64, 53
2, 87554, Control_c, 0, 64, 56
2, 87573, Control_c, 0, 64, 57
2, 87585, Note_on_c, 0, 44, 0
2, 87593, Control_c, 0, 64, 59
2, 87612, Control_c, 0, 64, 60
2, 87631, Control_c, 0, 64, 61
2, 87650, Control_c, 0, 64, 62
2, 87670, Control_c, 0, 64, 63
2, 87688, Control_c, 0, 64, 63
2, 87726, Note_on_c, 0, 47, 72
2, 87727, Control_c, 0, 64, 64
2, 87765, Control_c, 0, 64, 64
2, 87774, Note_on_c, 0, 46, 0
2, 87881, Control_c, 0, 64, 65
2, 88034, Control_c, 0, 64, 64
2, 88038, Note_on_c, 0, 40, 74
2, 88053, Control_c, 0, 64, 60
2, 88073, Control_c, 0, 64, 43
2, 88089, Note_on_c, 0, 47, 0
2, 88092, Control_c, 0, 64, 0
2, 88111, Note_on_c, 0, 71, 0
2, 88188, Control_c, 0, 64, 23
2, 88190, Note_on_c, 0, 75, 0
2, 88207, Control_c, 0, 64, 54
2, 88227, Control_c, 0, 64, 61
2, 88245, Control_c, 0, 64, 63
2, 88265, Control_c, 0, 64, 64
2, 88284, Control_c, 0, 64, 65
2, 88304, Control_c, 0, 64, 66
2, 88322, Control_c, 0, 64, 67
2, 88342, Control_c, 0, 64, 68
2, 88361, Control_c, 0, 64, 69
2, 88379, Control_c, 0, 64, 69
2, 88418, Control_c, 0, 64, 70
2, 88438, Control_c, 0, 64, 70
2, 88456, Control_c, 0, 64, 72
2, 88476, Control_c, 0, 64, 73
2, 88495, Control_c, 0, 64, 75
2, 88514, Control_c, 0, 64, 75
2, 88533, Control_c, 0, 64, 76
2, 88541, Note_on_c, 0, 79, 73
2, 88610, Control_c, 0, 64, 76
2, 88634, Note_on_c, 0, 80, 0
2, 88648, Control_c, 0, 64, 77
2, 88668, Control_c, 0, 64, 77
2, 88707, Control_c, 0, 64, 78
2, 88745, Control_c, 0, 64, 77
2, 88944, Note_on_c, 0, 80, 81
2, 89058, Note_on_c, 0, 79, 0
2, 89070, Control_c, 0, 64, 78
2, 89075, Note_on_c, 0, 40, 0
2, 89121, Note_on_c, 0, 52, 67
2, 89186, Control_c, 0, 64, 77
2, 89298, Note_on_c, 0, 82, 85
2, 89311, Note_on_c, 0, 51, 62
2, 89318, Note_on_c, 0, 52, 0
2, 89338, Note_on_c, 0, 80, 0
2, 89472, Note_on_c, 0, 51, 0
2, 89480, Note_on_c, 0, 49, 70
2, 89512, Control_c, 0, 64, 77
2, 89531, Control_c, 0, 64, 76
2, 89550, Control_c, 0, 64, 76
2, 89645, Note_on_c, 0, 51, 62
2, 89667, Control_c, 0, 64, 75
2, 89668, Note_on_c, 0, 49, 0
2, 89685, Control_c, 0, 64, 75
2, 89705, Control_c, 0, 64, 73
2, 89719, Note_on_c, 0, 83, 88
2, 89724, Control_c, 0, 64, 66
2, 89739, Note_on_c, 0, 79, 67
2, 89744, Control_c, 0, 64, 56
2, 89744, Note_on_c, 0, 75, 61
2, 89762, Control_c, 0, 64, 22
2, 89782, Control_c, 0, 64, 0
2, 89813, Note_on_c, 0, 82, 0
2, 89896, Control_c, 0, 64, 39
2, 89916, Control_c, 0, 64, 54
2, 89935, Control_c, 0, 64, 59
2, 89954, Control_c, 0, 64, 61
2, 89973, Control_c, 0, 64, 62
2, 89993, Control_c, 0, 64, 63
2, 89998, Note_on_c, 0, 82, 79
2, 90012, Control_c, 0, 64, 63
2, 90016, Note_on_c, 0, 83, 0
2, 90031, Control_c, 0, 64, 64
2, 90078, Note_on_c, 0, 79, 0
2, 90088, Control_c, 0, 64, 64
2, 90108, Control_c, 0, 64, 65
2, 90127, Control_c, 0, 64, 65
2, 90147, Control_c, 0, 64, 66
2, 90149, Note_on_c, 0, 82, 0
2, 90151, Note_on_c, 0, 83, 79
2, 90165, Control_c, 0, 64, 67
2, 90185, Control_c, 0, 64, 67
2, 90262, Control_c, 0, 64, 68
2, 90291, Note_on_c, 0, 83, 0
2, 90292, Note_on_c, 0, 82, 79
2, 90299, Control_c, 0, 64, 68
2, 90338, Control_c, 0, 64, 69
2, 90393, Note_on_c, 0, 82, 0
2, 90411, Note_on_c, 0, 83, 79
2, 90453, Control_c, 0, 64, 68
2, 90508, Note_on_c, 0, 83, 0
2, 90518, Note_on_c, 0, 82, 81
2, 90550, Control_c, 0, 64, 69
2, 90590, Note_on_c, 0, 82, 0
2, 90612, Note_on_c, 0, 83, 75
2, 90682, Note_on_c, 0, 83, 0
2, 90692, Note_on_c, 0, 82, 84
2, 90720, Control_c, 0, 64, 69
2, 90759, Control_c, 0, 64, 70
2, 90762, Note_on_c, 0, 82, 0
2, 90778, Note_on_c, 0, 83, 75
2, 90796, Note_on_c, 0, 49, 49
2, 90797, Control_c, 0, 64, 70
2, 90799, Note_on_c, 0, 51, 0
2, 90848, Note_on_c, 0, 83, 0
2, 90853, Note_on_c, 0, 82, 79
2, 90855, Control_c, 0, 64, 71
2, 90919, Note_on_c, 0, 82, 0
2, 90932, Note_on_c, 0, 83, 69
2, 90989, Control_c, 0, 64, 71
2, 90998, Note_on_c, 0, 82, 75
2, 90998, Note_on_c, 0, 83, 0
2, 91045, Note_on_c, 0, 75, 0
2, 91076, Note_on_c, 0, 83, 66
2, 91176, Note_on_c, 0, 83, 0
2, 91212, Note_on_c, 0, 73, 81
2, 91220, Control_c, 0, 64, 70
2, 91238, Note_on_c, 0, 51, 60
2, 91239, Control_c, 0, 64, 68
2, 91243, Note_on_c, 0, 49, 0
2, 91258, Control_c, 0, 64, 64
2, 91277, Control_c, 0, 64, 57
2, 91297, Control_c, 0, 64, 44
2, 91316, Control_c, 0, 64, 9
2, 91335, Control_c, 0, 64, 0
2, 91451, Control_c, 0, 64, 39
2, 91469, Control_c, 0, 64, 53
2, 91488, Control_c, 0, 64, 59
2, 91508, Control_c, 0, 64, 61
2, 91526, Control_c, 0, 64, 62
2, 91546, Control_c, 0, 64, 63
2, 91565, Control_c, 0, 64, 64
2, 91589, Control_c, 0, 64, 65
2, 91608, Control_c, 0, 64, 66
2, 91628, Control_c, 0, 64, 66
2, 91646, Control_c, 0, 64, 67
2, 91661, Control_c, 0, 64, 69
2, 91680, Control_c, 0, 64, 71
2, 91700, Control_c, 0, 64, 73
2, 91719, Control_c, 0, 64, 76
2, 91738, Control_c, 0, 64, 78
2, 91757, Control_c, 0, 64, 79
2, 91777, Control_c, 0, 64, 80
2, 91796, Control_c, 0, 64, 80
2, 91834, Control_c, 0, 64, 81
2, 91854, Control_c, 0, 64, 81
2, 91863, Note_on_c, 0, 51, 0
2, 91872, Control_c, 0, 64, 82
2, 91892, Control_c, 0, 64, 82
2, 91911, Control_c, 0, 64, 83
2, 92045, Control_c, 0, 64, 82
2, 92143, Note_on_c, 0, 80, 83
2, 92264, Note_on_c, 0, 82, 0
2, 92370, Note_on_c, 0, 73, 0
2, 92464, Note_on_c, 0, 80, 0
2, 92486, Control_c, 0, 64, 83
2, 92553, Note_on_c, 0, 39, 69
2, 92660, Control_c, 0, 64, 82
2, 92698, Control_c, 0, 64, 82
2, 92960, Note_on_c, 0, 75, 63
2, 92966, Control_c, 0, 64, 80
2, 92967, Note_on_c, 0, 80, 77
2, 92976, Note_on_c, 0, 71, 63
2, 92982, Note_on_c, 0, 44, 56
2, 92986, Control_c, 0, 64, 75
2, 93005, Control_c, 0, 64, 68
2, 93025, Control_c, 0, 64, 60
2, 93043, Control_c, 0, 64, 39
2, 93050, Note_on_c, 0, 39, 0
2, 93063, Control_c, 0, 64, 0
2, 93217, Control_c, 0, 64, 34
2, 93236, Control_c, 0, 64, 49
2, 93255, Control_c, 0, 64, 57
2, 93274, Control_c, 0, 64, 59
2, 93294, Control_c, 0, 64, 61
2, 93312, Control_c, 0, 64, 62
2, 93332, Control_c, 0, 64, 63
2, 93351, Control_c, 0, 64, 64
2, 93371, Control_c, 0, 64, 65
2, 93389, Control_c, 0, 64, 67
2, 93408, Control_c, 0, 64, 68
2, 93428, Control_c, 0, 64, 70
2, 93446, Control_c, 0, 64, 72
2, 93466, Control_c, 0, 64, 74
2, 93485, Control_c, 0, 64, 76
2, 93505, Control_c, 0, 64, 76
2, 93521, Control_c, 0, 64, 78
2, 93541, Control_c, 0, 64, 79
2, 93560, Control_c, 0, 64, 80
2, 93578, Control_c, 0, 64, 81
2, 93596, Control_c, 0, 64, 82
2, 93616, Control_c, 0, 64, 83
2, 93635, Control_c, 0, 64, 84
2, 93693, Control_c, 0, 64, 85
2, 93807, Control_c, 0, 64, 84
2, 93815, Note_on_c, 0, 44, 0
2, 93923, Control_c, 0, 64, 84
2, 93981, Control_c, 0, 64, 83
2, 94058, Control_c, 0, 64, 83
2, 94096, Control_c, 0, 64, 82
2, 94115, Control_c, 0, 64, 82
2, 94135, Control_c, 0, 64, 81
2, 94153, Control_c, 0, 64, 80
2, 94173, Control_c, 0, 64, 79
2, 94192, Control_c, 0, 64, 78
2, 94211, Control_c, 0, 64, 77
2, 94230, Control_c, 0, 64, 77
2, 94250, Control_c, 0, 64, 76
2, 94269, Control_c, 0, 64, 76
2, 94287, Control_c, 0, 64, 75
2, 94307, Control_c, 0, 64, 74
2, 94326, Control_c, 0, 64, 73
2, 94346, Control_c, 0, 64, 72
2, 94364, Control_c, 0, 64, 71
2, 94384, Control_c, 0, 64, 71
2, 94403, Control_c, 0, 64, 70
2, 94416, Note_on_c, 0, 83, 79
2, 94422, Control_c, 0, 64, 69
2, 94441, Control_c, 0, 64, 67
2, 94465, Control_c, 0, 64, 66
2, 94467, Note_on_c, 0, 75, 0
2, 94483, Control_c, 0, 64, 65
2, 94503, Control_c, 0, 64, 64
2, 94517, Note_on_c, 0, 71, 0
2, 94522, Control_c, 0, 64, 63
2, 94541, Control_c, 0, 64, 63
2, 94559, Control_c, 0, 64, 62
2, 94571, Note_on_c, 0, 80, 0
2, 94579, Control_c, 0, 64, 61
2, 94598, Control_c, 0, 64, 59
2, 94617, Control_c, 0, 64, 58
2, 94636, Control_c, 0, 64, 58
2, 94656, Control_c, 0, 64, 57
2, 94675, Control_c, 0, 64, 57
2, 94694, Control_c, 0, 64, 55
2, 94713, Control_c, 0, 64, 53
2, 94733, Control_c, 0, 64, 50
2, 94751, Control_c, 0, 64, 48
2, 94771, Control_c, 0, 64, 46
2, 94790, Control_c, 0, 64, 46
2, 94810, Control_c, 0, 64, 44
2, 94828, Control_c, 0, 64, 39
2, 94847, Control_c, 0, 64, 34
2, 94848, Note_on_c, 0, 77, 74
2, 94867, Control_c, 0, 64, 27
2, 94885, Control_c, 0, 64, 22
2, 94905, Control_c, 0, 64, 19
2, 94912, Note_on_c, 0, 83, 0
2, 94924, Control_c, 0, 64, 18
2, 94944, Control_c, 0, 64, 17
2, 94982, Control_c, 0, 64, 15
2, 95155, Control_c, 0, 64, 19
2, 95174, Control_c, 0, 64, 23
2, 95193, Control_c, 0, 64, 25
2, 95213, Control_c, 0, 64, 27
2, 95231, Control_c, 0, 64, 28
2, 95251, Control_c, 0, 64, 31
2, 95270, Control_c, 0, 64, 36
2, 95289, Control_c, 0, 64, 41
2, 95308, Control_c, 0, 64, 47
2, 95327, Control_c, 0, 64, 51
2, 95347, Control_c, 0, 64, 53
2, 95365, Control_c, 0, 64, 55
2, 95385, Control_c, 0, 64, 57
2, 95404, Control_c, 0, 64, 58
2, 95425, Control_c, 0, 64, 60
2, 95443, Control_c, 0, 64, 61
2, 95463, Control_c, 0, 64, 62
2, 95482, Control_c, 0, 64, 63
2, 95501, Control_c, 0, 64, 63
2, 95519, Control_c, 0, 64, 64
2, 95539, Control_c, 0, 64, 64
2, 95558, Control_c, 0, 64, 65
2, 95577, Control_c, 0, 64, 66
2, 95596, Control_c, 0, 64, 66
2, 95616, Control_c, 0, 64, 67
2, 95635, Control_c, 0, 64, 67
2, 95654, Control_c, 0, 64, 68
2, 95693, Control_c, 0, 64, 68
2, 95769, Control_c, 0, 64, 69
2, 95807, Control_c, 0, 64, 69
2, 95827, Control_c, 0, 64, 70
2, 95999, Note_on_c, 0, 59, 55
2, 96000, Note_on_c, 0, 78, 66
2, 96038, Control_c, 0, 64, 69
2, 96154, Note_on_c, 0, 80, 78
2, 96191, Control_c, 0, 64, 69
2, 96214, Note_on_c, 0, 77, 0
2, 96249, Control_c, 0, 64, 68
2, 96287, Control_c, 0, 64, 68
2, 96325, Control_c, 0, 64, 67
2, 96345, Control_c, 0, 64, 66
2, 96364, Control_c, 0, 64, 64
2, 96365, Note_on_c, 0, 74, 69
2, 96374, Note_on_c, 0, 53, 55
2, 96385, Control_c, 0, 64, 61
2, 96403, Control_c, 0, 64, 56
2, 96406, Note_on_c, 0, 78, 0
2, 96408, Note_on_c, 0, 59, 0
2, 96423, Control_c, 0, 64, 46
2, 96426, Note_on_c, 0, 80, 0
2, 96442, Control_c, 0, 64, 29
2, 96461, Control_c, 0, 64, 0
2, 96805, Control_c, 0, 64, 19
2, 96825, Control_c, 0, 64, 23
2, 96844, Control_c, 0, 64, 26
2, 96921, Control_c, 0, 64, 27
2, 96941, Control_c, 0, 64, 28
2, 96959, Control_c, 0, 64, 32
2, 96979, Control_c, 0, 64, 35
2, 96998, Control_c, 0, 64, 37
2, 97017, Control_c, 0, 64, 38
2, 97036, Control_c, 0, 64, 39
2, 97056, Control_c, 0, 64, 40
2, 97075, Control_c, 0, 64, 42
2, 97094, Control_c, 0, 64, 46
2, 97113, Control_c, 0, 64, 50
2, 97133, Control_c, 0, 64, 53
2, 97151, Control_c, 0, 64, 55
2, 97171, Control_c, 0, 64, 56
2, 97190, Control_c, 0, 64, 57
2, 97209, Control_c, 0, 64, 58
2, 97228, Control_c, 0, 64, 59
2, 97247, Control_c, 0, 64, 60
2, 97267, Control_c, 0, 64, 61
2, 97285, Control_c, 0, 64, 61
2, 97305, Control_c, 0, 64, 62
2, 97324, Control_c, 0, 64, 62
2, 97345, Control_c, 0, 64, 63
2, 97363, Control_c, 0, 64, 63
2, 97383, Control_c, 0, 64, 64
2, 97402, Control_c, 0, 64, 64
2, 97421, Control_c, 0, 64, 65
2, 97439, Control_c, 0, 64, 65
2, 97478, Control_c, 0, 64, 66
2, 97595, Note_on_c, 0, 53, 0
2, 97617, Note_on_c, 0, 54, 50
2, 97620, Note_on_c, 0, 75, 58
2, 97670, Control_c, 0, 64, 65
2, 97689, Control_c, 0, 64, 65
2, 97754, Note_on_c, 0, 74, 0
2, 97757, Note_on_c, 0, 54, 0
2, 97776, Note_on_c, 0, 77, 63
2, 97777, Note_on_c, 0, 75, 0
2, 97785, Control_c, 0, 64, 64
2, 97785, Note_on_c, 0, 56, 48
2, 97842, Control_c, 0, 64, 64
2, 97901, Control_c, 0, 64, 63
2, 97919, Control_c, 0, 64, 63
2, 97939, Control_c, 0, 64, 62
2, 97958, Control_c, 0, 64, 62
2, 97977, Control_c, 0, 64, 61
2, 97996, Control_c, 0, 64, 60
2, 98008, Note_on_c, 0, 70, 58
2, 98016, Control_c, 0, 64, 58
2, 98021, Note_on_c, 0, 50, 42
2, 98029, Note_on_c, 0, 56, 0
2, 98035, Control_c, 0, 64, 55
2, 98045, Note_on_c, 0, 77, 0
2, 98054, Control_c, 0, 64, 49
2, 98073, Control_c, 0, 64, 42
2, 98093, Control_c, 0, 64, 35
2, 98111, Control_c, 0, 64, 28
2, 98131, Control_c, 0, 64, 24
2, 98150, Control_c, 0, 64, 22
2, 98188, Control_c, 0, 64, 23
2, 98207, Control_c, 0, 64, 31
2, 98227, Control_c, 0, 64, 40
2, 98245, Control_c, 0, 64, 49
2, 98265, Control_c, 0, 64, 55
2, 98284, Control_c, 0, 64, 59
2, 98307, Control_c, 0, 64, 60
2, 98326, Control_c, 0, 64, 61
2, 98346, Control_c, 0, 64, 62
2, 98365, Control_c, 0, 64, 63
2, 98380, Control_c, 0, 64, 63
2, 98398, Control_c, 0, 64, 64
2, 98418, Control_c, 0, 64, 64
2, 98437, Control_c, 0, 64, 65
2, 98475, Control_c, 0, 64, 65
2, 98514, Control_c, 0, 64, 66
2, 98533, Control_c, 0, 64, 66
2, 98552, Control_c, 0, 64, 67
2, 98572, Control_c, 0, 64, 68
2, 98591, Control_c, 0, 64, 68
2, 98609, Control_c, 0, 64, 70
2, 98629, Control_c, 0, 64, 70
2, 98648, Control_c, 0, 64, 71
2, 98667, Control_c, 0, 64, 72
2, 98679, Note_on_c, 0, 70, 0
2, 98706, Control_c, 0, 64, 72
2, 98744, Control_c, 0, 64, 73
2, 98763, Control_c, 0, 64, 73
2, 98801, Control_c, 0, 64, 74
2, 98840, Control_c, 0, 64, 74
2, 99161, Note_on_c, 0, 80, 73
2, 99166, Control_c, 0, 64, 74
2, 99174, Note_on_c, 0, 51, 48
2, 99180, Note_on_c, 0, 50, 0
2, 99243, Control_c, 0, 64, 73
2, 99303, Note_on_c, 0, 51, 0
2, 99321, Control_c, 0, 64, 73
2, 99324, Note_on_c, 0, 53, 45
2, 99379, Control_c, 0, 64, 72
2, 99417, Control_c, 0, 64, 72
2, 99436, Control_c, 0, 64, 71
2, 99475, Control_c, 0, 64, 71
2, 99494, Control_c, 0, 64, 70
2, 99513, Control_c, 0, 64, 69
2, 99533, Control_c, 0, 64, 66
2, 99551, Control_c, 0, 64, 62
2, 99551, Note_on_c, 0, 74, 67
2, 99554, Note_on_c, 0, 53, 0
2, 99569, Note_on_c, 0, 46, 43
2, 99571, Control_c, 0, 64, 48
2, 99590, Control_c, 0, 64, 17
2, 99609, Control_c, 0, 64, 0
2, 99665, Note_on_c, 0, 80, 0
2, 99782, Control_c, 0, 64, 36
2, 99801, Control_c, 0, 64, 50
2, 99821, Control_c, 0, 64, 57
2, 99839, Control_c, 0, 64, 59
2, 99859, Control_c, 0, 64, 61
2, 99878, Control_c, 0, 64, 62
2, 99897, Control_c, 0, 64, 62
2, 99916, Control_c, 0, 64, 63
2, 99936, Control_c, 0, 64, 64
2, 99955, Control_c, 0, 64, 65
2, 99974, Control_c, 0, 64, 65
2, 99993, Control_c, 0, 64, 66
2, 100031, Control_c, 0, 64, 66
2, 100051, Control_c, 0, 64, 67
2, 100070, Control_c, 0, 64, 67
2, 100089, Control_c, 0, 64, 68
2, 100108, Control_c, 0, 64, 68
2, 100127, Control_c, 0, 64, 69
2, 100147, Control_c, 0, 64, 70
2, 100185, Control_c, 0, 64, 70
2, 100243, Control_c, 0, 64, 71
2, 100301, Control_c, 0, 64, 71
2, 100319, Control_c, 0, 64, 72
2, 100339, Control_c, 0, 64, 72
2, 100358, Note_on_c, 0, 46, 0
2, 100530, Control_c, 0, 64, 73
2, 100749, Note_on_c, 0, 75, 65
2, 100776, Note_on_c, 0, 56, 43
2, 100924, Note_on_c, 0, 77, 64
2, 100946, Note_on_c, 0, 74, 0
2, 100979, Note_on_c, 0, 75, 0
2, 101068, Control_c, 0, 64, 72
2, 101087, Control_c, 0, 64, 72
2, 101107, Control_c, 0, 64, 71
2, 101125, Control_c, 0, 64, 70
2, 101145, Control_c, 0, 64, 69
2, 101146, Note_on_c, 0, 50, 45
2, 101148, Note_on_c, 0, 70, 64
2, 101164, Control_c, 0, 64, 66
2, 101184, Control_c, 0, 64, 60
2, 101184, Note_on_c, 0, 56, 0
2, 101202, Control_c, 0, 64, 49
2, 101222, Control_c, 0, 64, 18
2, 101241, Control_c, 0, 64, 0
2, 101245, Note_on_c, 0, 77, 0
2, 101352, Control_c, 0, 64, 31
2, 101372, Control_c, 0, 64, 51
2, 101391, Control_c, 0, 64, 57
2, 101410, Control_c, 0, 64, 60
2, 101429, Control_c, 0, 64, 61
2, 101449, Control_c, 0, 64, 62
2, 101468, Control_c, 0, 64, 63
2, 101487, Control_c, 0, 64, 64
2, 101506, Control_c, 0, 64, 64
2, 101526, Control_c, 0, 64, 65
2, 101544, Control_c, 0, 64, 66
2, 101564, Control_c, 0, 64, 66
2, 101583, Control_c, 0, 64, 67
2, 101603, Control_c, 0, 64, 68
2, 101621, Control_c, 0, 64, 68
2, 101641, Control_c, 0, 64, 69
2, 101678, Control_c, 0, 64, 69
2, 101698, Control_c, 0, 64, 70
2, 101717, Control_c, 0, 64, 70
2, 101737, Control_c, 0, 64, 71
2, 101755, Control_c, 0, 64, 71
2, 101794, Control_c, 0, 64, 72
2, 102083, Control_c, 0, 64, 71
2, 102331, Control_c, 0, 64, 71
2, 102368, Note_on_c, 0, 72, 63
2, 102388, Note_on_c, 0, 50, 0
2, 102398, Note_on_c, 0, 51, 33
2, 102446, Control_c, 0, 64, 70
2, 102452, Note_on_c, 0, 70, 0
2, 102485, Control_c, 0, 64, 70
2, 102530, Note_on_c, 0, 51, 0
2, 102542, Control_c, 0, 64, 69
2, 102546, Note_on_c, 0, 74, 63
2, 102566, Note_on_c, 0, 53, 39
2, 102608, Note_on_c, 0, 72, 0
2, 102638, Control_c, 0, 64, 69
2, 102696, Control_c, 0, 64, 68
2, 102714, Control_c, 0, 64, 68
2, 102734, Control_c, 0, 64, 67
2, 102753, Control_c, 0, 64, 67
2, 102773, Control_c, 0, 64, 66
2, 102777, Note_on_c, 0, 75, 62
2, 102791, Control_c, 0, 64, 65
2, 102811, Control_c, 0, 64, 63
2, 102811, Note_on_c, 0, 42, 36
2, 102822, Note_on_c, 0, 53, 0
2, 102830, Control_c, 0, 64, 62
2, 102838, Note_on_c, 0, 74, 0
2, 102849, Control_c, 0, 64, 58
2, 102868, Control_c, 0, 64, 51
2, 102888, Control_c, 0, 64, 37
2, 102907, Control_c, 0, 64, 0
2, 103137, Control_c, 0, 64, 33
2, 103156, Control_c, 0, 64, 48
2, 103176, Control_c, 0, 64, 55
2, 103194, Control_c, 0, 64, 57
2, 103214, Control_c, 0, 64, 59
2, 103233, Control_c, 0, 64, 60
2, 103253, Control_c, 0, 64, 61
2, 103271, Control_c, 0, 64, 62
2, 103291, Control_c, 0, 64, 63
2, 103329, Control_c, 0, 64, 64
2, 103348, Control_c, 0, 64, 64
2, 103387, Control_c, 0, 64, 65
2, 103406, Control_c, 0, 64, 65
2, 103425, Control_c, 0, 64, 66
2, 103445, Control_c, 0, 64, 67
2, 103463, Control_c, 0, 64, 67
2, 103483, Control_c, 0, 64, 68
2, 103540, Control_c, 0, 64, 68
2, 103598, Control_c, 0, 64, 69
2, 103617, Control_c, 0, 64, 70
2, 103636, Control_c, 0, 64, 70
2, 103656, Control_c, 0, 64, 71
2, 103674, Control_c, 0, 64, 71
2, 103694, Control_c, 0, 64, 72
2, 103713, Control_c, 0, 64, 72
2, 103751, Control_c, 0, 64, 73
2, 103771, Control_c, 0, 64, 73
2, 103790, Control_c, 0, 64, 74
2, 103809, Control_c, 0, 64, 75
2, 103828, Control_c, 0, 64, 76
2, 103848, Control_c, 0, 64, 77
2, 104002, Control_c, 0, 64, 77
2, 104076, Note_on_c, 0, 73, 38
2, 104099, Note_on_c, 0, 42, 0
2, 104106, Note_on_c, 0, 75, 0
2, 104155, Control_c, 0, 64, 77
2, 104198, Note_on_c, 0, 73, 0
2, 104268, Note_on_c, 0, 71, 38
2, 104271, Control_c, 0, 64, 76
2, 104309, Control_c, 0, 64, 76
2, 104348, Control_c, 0, 64, 75
2, 104367, Control_c, 0, 64, 74
2, 104386, Control_c, 0, 64, 74
2, 104406, Control_c, 0, 64, 73
2, 104424, Control_c, 0, 64, 73
2, 104444, Control_c, 0, 64, 72
2, 104463, Control_c, 0, 64, 71
2, 104483, Control_c, 0, 64, 70
2, 104495, Note_on_c, 0, 71, 0
2, 104498, Note_on_c, 0, 73, 45
2, 104501, Control_c, 0, 64, 68
2, 104517, Note_on_c, 0, 43, 24
2, 104521, Control_c, 0, 64, 66
2, 104540, Control_c, 0, 64, 64
2, 104558, Control_c, 0, 64, 62
2, 104578, Control_c, 0, 64, 60
2, 104597, Control_c, 0, 64, 57
2, 104617, Control_c, 0, 64, 52
2, 104635, Control_c, 0, 64, 45
2, 104655, Control_c, 0, 64, 34
2, 104674, Control_c, 0, 64, 13
2, 104693, Control_c, 0, 64, 0
2, 104809, Control_c, 0, 64, 25
2, 104828, Control_c, 0, 64, 42
2, 104847, Control_c, 0, 64, 53
2, 104866, Control_c, 0, 64, 58
2, 104886, Control_c, 0, 64, 60
2, 104904, Control_c, 0, 64, 61
2, 104924, Control_c, 0, 64, 63
2, 104943, Control_c, 0, 64, 64
2, 104963, Control_c, 0, 64, 64
2, 104981, Control_c, 0, 64, 65
2, 105001, Control_c, 0, 64, 66
2, 105023, Control_c, 0, 64, 66
2, 105043, Control_c, 0, 64, 67
2, 105062, Control_c, 0, 64, 68
2, 105074, Note_on_c, 0, 43, 0
2, 105082, Control_c, 0, 64, 69
2, 105100, Control_c, 0, 64, 70
2, 105119, Control_c, 0, 64, 72
2, 105139, Control_c, 0, 64, 72
2, 105158, Control_c, 0, 64, 73
2, 105196, Control_c, 0, 64, 74
2, 105216, Control_c, 0, 64, 74
2, 105254, Control_c, 0, 64, 75
2, 105270, Note_on_c, 0, 73, 0
2, 105311, Control_c, 0, 64, 76
2, 105331, Control_c, 0, 64, 77
2, 105350, Control_c, 0, 64, 78
2, 105369, Control_c, 0, 64, 79
2, 105388, Control_c, 0, 64, 79
2, 105408, Control_c, 0, 64, 80
2, 105427, Control_c, 0, 64, 81
2, 105446, Control_c, 0, 64, 82
2, 105465, Control_c, 0, 64, 84
2, 105485, Control_c, 0, 64, 86
2, 105503, Control_c, 0, 64, 89
2, 105523, Control_c, 0, 64, 92
2, 105542, Control_c, 0, 64, 95
2, 105562, Control_c, 0, 64, 97
2, 105580, Control_c, 0, 64, 100
2, 105599, Control_c, 0, 64, 103
2, 105619, Control_c, 0, 64, 107
2, 105638, Control_c, 0, 64, 115
2, 105657, Control_c, 0, 64, 127
2, 105813, Note_on_c, 0, 58, 46
2, 105888, Control_c, 0, 64, 118
2, 105907, Control_c, 0, 64, 110
2, 105926, Control_c, 0, 64, 106
2, 105945, Control_c, 0, 64, 101
2, 105965, Control_c, 0, 64, 95
2, 105984, Control_c, 0, 64, 89
2, 106004, Control_c, 0, 64, 83
2, 106023, Control_c, 0, 64, 79
2, 106043, Control_c, 0, 64, 75
2, 106054, Note_on_c, 0, 63, 35
2, 106061, Control_c, 0, 64, 72
2, 106081, Control_c, 0, 64, 70
2, 106100, Control_c, 0, 64, 69
2, 106108, Note_on_c, 0, 70, 45
2, 106118, Control_c, 0, 64, 67
2, 106138, Control_c, 0, 64, 65
2, 106157, Control_c, 0, 64, 63
2, 106177, Control_c, 0, 64, 61
2, 106185, Note_on_c, 0, 55, 48
2, 106191, Note_on_c, 0, 58, 0
2, 106195, Control_c, 0, 64, 59
2, 106196, Note_on_c, 0, 73, 44
2, 106215, Control_c, 0, 64, 56
2, 106234, Control_c, 0, 64, 51
2, 106253, Control_c, 0, 64, 44
2, 106272, Control_c, 0, 64, 29
2, 106292, Control_c, 0, 64, 0
2, 106388, Control_c, 0, 64, 33
2, 106407, Control_c, 0, 64, 49
2, 106426, Control_c, 0, 64, 58
2, 106446, Control_c, 0, 64, 62
2, 106464, Control_c, 0, 64, 65
2, 106484, Control_c, 0, 64, 66
2, 106503, Control_c, 0, 64, 68
2, 106523, Control_c, 0, 64, 71
2, 106541, Control_c, 0, 64, 74
2, 106561, Control_c, 0, 64, 78
2, 106580, Control_c, 0, 64, 81
2, 106598, Control_c, 0, 64, 83
2, 106618, Control_c, 0, 64, 85
2, 106637, Control_c, 0, 64, 87
2, 106657, Control_c, 0, 64, 89
2, 106675, Control_c, 0, 64, 91
2, 106695, Control_c, 0, 64, 94
2, 106714, Control_c, 0, 64, 97
2, 106733, Control_c, 0, 64, 102
2, 106752, Control_c, 0, 64, 105
2, 106775, Control_c, 0, 64, 107
2, 106794, Control_c, 0, 64, 108
2, 106813, Control_c, 0, 64, 108
2, 106832, Control_c, 0, 64, 109
2, 106851, Control_c, 0, 64, 110
2, 106889, Control_c, 0, 64, 110
2, 107008, Note_on_c, 0, 73, 0
2, 107138, Control_c, 0, 64, 111
2, 107165, Note_on_c, 0, 63, 0
2, 107176, Control_c, 0, 64, 112
2, 107215, Control_c, 0, 64, 112
2, 107234, Control_c, 0, 64, 113
2, 107250, Note_on_c, 0, 70, 0
2, 107292, Control_c, 0, 64, 114
2, 107447, Note_on_c, 0, 55, 0
2, 107452, Note_on_c, 0, 51, 33
2, 107561, Control_c, 0, 64, 113
2, 107599, Control_c, 0, 64, 112
2, 107638, Control_c, 0, 64, 112
2, 107656, Control_c, 0, 64, 111
2, 107676, Control_c, 0, 64, 110
2, 107695, Control_c, 0, 64, 110
2, 107714, Control_c, 0, 64, 108
2, 107726, Note_on_c, 0, 63, 32
2, 107733, Control_c, 0, 64, 107
2, 107753, Control_c, 0, 64, 105
2, 107772, Control_c, 0, 64, 102
2, 107791, Control_c, 0, 64, 99
2, 107800, Note_on_c, 0, 70, 43
2, 107810, Control_c, 0, 64, 96
2, 107830, Control_c, 0, 64, 91
2, 107849, Control_c, 0, 64, 86
2, 107868, Control_c, 0, 64, 80
2, 107876, Note_on_c, 0, 44, 33
2, 107887, Control_c, 0, 64, 74
2, 107888, Note_on_c, 0, 51, 0
2, 107889, Note_on_c, 0, 73, 39
2, 107907, Control_c, 0, 64, 69
2, 107925, Control_c, 0, 64, 65
2, 107945, Control_c, 0, 64, 62
2, 107964, Control_c, 0, 64, 59
2, 107984, Control_c, 0, 64, 55
2, 108001, Control_c, 0, 64, 50
2, 108020, Control_c, 0, 64, 44
2, 108040, Control_c, 0, 64, 37
2, 108058, Control_c, 0, 64, 34
2, 108097, Control_c, 0, 64, 37
2, 108117, Control_c, 0, 64, 44
2, 108135, Control_c, 0, 64, 52
2, 108155, Control_c, 0, 64, 57
2, 108174, Control_c, 0, 64, 60
2, 108194, Control_c, 0, 64, 62
2, 108212, Control_c, 0, 64, 63
2, 108232, Control_c, 0, 64, 64
2, 108251, Control_c, 0, 64, 66
2, 108270, Control_c, 0, 64, 67
2, 108289, Control_c, 0, 64, 69
2, 108309, Control_c, 0, 64, 70
2, 108328, Control_c, 0, 64, 72
2, 108347, Control_c, 0, 64, 74
2, 108366, Control_c, 0, 64, 75
2, 108386, Control_c, 0, 64, 76
2, 108404, Control_c, 0, 64, 78
2, 108424, Control_c, 0, 64, 78
2, 108443, Control_c, 0, 64, 79
2, 108462, Control_c, 0, 64, 80
2, 108481, Control_c, 0, 64, 81
2, 108500, Control_c, 0, 64, 82
2, 108520, Control_c, 0, 64, 83
2, 108590, Note_on_c, 0, 63, 0
2, 108880, Note_on_c, 0, 70, 0
2, 109132, Note_on_c, 0, 73, 0
2, 109167, Note_on_c, 0, 71, 27
2, 109171, Control_c, 0, 64, 82
2, 109248, Control_c, 0, 64, 82
2, 109325, Control_c, 0, 64, 81
2, 109333, Note_on_c, 0, 71, 0
2, 109345, Control_c, 0, 64, 81
2, 109382, Control_c, 0, 64, 80
2, 109388, Note_on_c, 0, 70, 34
2, 109402, Control_c, 0, 64, 80
2, 109421, Control_c, 0, 64, 79
2, 109459, Control_c, 0, 64, 79
2, 109471, Note_on_c, 0, 44, 0
2, 109479, Control_c, 0, 64, 78
2, 109498, Control_c, 0, 64, 78
2, 109517, Control_c, 0, 64, 77
2, 109536, Control_c, 0, 64, 76
2, 109556, Control_c, 0, 64, 75
2, 109574, Control_c, 0, 64, 75
2, 109589, Note_on_c, 0, 71, 34
2, 109594, Control_c, 0, 64, 73
2, 109597, Note_on_c, 0, 70, 0
2, 109613, Control_c, 0, 64, 72
2, 109633, Control_c, 0, 64, 69
2, 109651, Control_c, 0, 64, 66
2, 109671, Control_c, 0, 64, 64
2, 109690, Control_c, 0, 64, 62
2, 109709, Control_c, 0, 64, 58
2, 109728, Control_c, 0, 64, 55
2, 109748, Control_c, 0, 64, 49
2, 109767, Control_c, 0, 64, 42
2, 109786, Control_c, 0, 64, 36
2, 109805, Control_c, 0, 64, 33
2, 109825, Control_c, 0, 64, 31
2, 109844, Control_c, 0, 64, 30
2, 109862, Control_c, 0, 64, 29
2, 109882, Control_c, 0, 64, 28
2, 109959, Control_c, 0, 64, 29
2, 109978, Control_c, 0, 64, 31
2, 109997, Control_c, 0, 64, 36
2, 110016, Control_c, 0, 64, 43
2, 110036, Control_c, 0, 64, 51
2, 110054, Control_c, 0, 64, 56
2, 110074, Control_c, 0, 64, 60
2, 110093, Control_c, 0, 64, 62
2, 110113, Control_c, 0, 64, 63
2, 110131, Control_c, 0, 64, 64
2, 110151, Control_c, 0, 64, 65
2, 110170, Control_c, 0, 64, 66
2, 110189, Control_c, 0, 64, 67
2, 110208, Control_c, 0, 64, 67
2, 110228, Control_c, 0, 64, 69
2, 110247, Control_c, 0, 64, 70
2, 110266, Control_c, 0, 64, 71
2, 110285, Control_c, 0, 64, 73
2, 110305, Control_c, 0, 64, 75
2, 110324, Control_c, 0, 64, 76
2, 110342, Control_c, 0, 64, 76
2, 110358, Note_on_c, 0, 71, 0
2, 110381, Control_c, 0, 64, 77
2, 110419, Control_c, 0, 64, 77
2, 110477, Control_c, 0, 64, 78
2, 110573, Control_c, 0, 64, 78
2, 110910, Note_on_c, 0, 59, 30
2, 111131, Control_c, 0, 64, 78
2, 111148, Note_on_c, 0, 63, 29
2, 111169, Control_c, 0, 64, 77
2, 111182, Note_on_c, 0, 68, 43
2, 111189, Control_c, 0, 64, 77
2, 111208, Control_c, 0, 64, 76
2, 111227, Control_c, 0, 64, 75
2, 111246, Control_c, 0, 64, 74
2, 111266, Control_c, 0, 64, 72
2, 111277, Note_on_c, 0, 71, 37
2, 111284, Control_c, 0, 64, 68
2, 111299, Note_on_c, 0, 56, 34
2, 111303, Control_c, 0, 64, 64
2, 111323, Control_c, 0, 64, 59
2, 111342, Control_c, 0, 64, 54
2, 111361, Control_c, 0, 64, 48
2, 111380, Control_c, 0, 64, 45
2, 111400, Control_c, 0, 64, 44
2, 111418, Control_c, 0, 64, 45
2, 111438, Control_c, 0, 64, 49
2, 111457, Control_c, 0, 64, 54
2, 111477, Control_c, 0, 64, 58
2, 111495, Control_c, 0, 64, 61
2, 111515, Control_c, 0, 64, 63
2, 111534, Control_c, 0, 64, 64
2, 111554, Control_c, 0, 64, 65
2, 111572, Control_c, 0, 64, 66
2, 111592, Control_c, 0, 64, 67
2, 111611, Control_c, 0, 64, 68
2, 111630, Control_c, 0, 64, 70
2, 111649, Control_c, 0, 64, 71
2, 111669, Control_c, 0, 64, 73
2, 111688, Control_c, 0, 64, 75
2, 111707, Control_c, 0, 64, 77
2, 111726, Control_c, 0, 64, 78
2, 111749, Control_c, 0, 64, 79
2, 111768, Control_c, 0, 64, 81
2, 111788, Control_c, 0, 64, 81
2, 111822, Control_c, 0, 64, 82
2, 111841, Control_c, 0, 64, 82
2, 111860, Control_c, 0, 64, 83
2, 111880, Control_c, 0, 64, 84
2, 111897, Note_on_c, 0, 59, 0
2, 111898, Control_c, 0, 64, 85
2, 111918, Control_c, 0, 64, 86
2, 111957, Control_c, 0, 64, 87
2, 112145, Note_on_c, 0, 56, 0
2, 112149, Control_c, 0, 64, 87
2, 112230, Note_on_c, 0, 63, 0
2, 112244, Control_c, 0, 64, 87
2, 112370, Note_on_c, 0, 68, 0
2, 112455, Control_c, 0, 64, 86
2, 112498, Note_on_c, 0, 53, 33
2, 112536, Note_on_c, 0, 71, 0
2, 112567, Note_on_c, 0, 53, 0
2, 112763, Control_c, 0, 64, 86
2, 112769, Note_on_c, 0, 50, 28
2, 112801, Control_c, 0, 64, 85
2, 112840, Control_c, 0, 64, 84
2, 112858, Control_c, 0, 64, 84
2, 112878, Control_c, 0, 64, 82
2, 112897, Control_c, 0, 64, 81
2, 112910, Note_on_c, 0, 56, 31
2, 112913, Note_on_c, 0, 65, 22
2, 112917, Control_c, 0, 64, 78
2, 112923, Note_on_c, 0, 68, 33
2, 112935, Control_c, 0, 64, 75
2, 112955, Control_c, 0, 64, 70
2, 112974, Control_c, 0, 64, 65
2, 112987, Note_on_c, 0, 71, 47
2, 112994, Control_c, 0, 64, 62
2, 113012, Control_c, 0, 64, 59
2, 113032, Control_c, 0, 64, 55
2, 113051, Control_c, 0, 64, 50
2, 113070, Control_c, 0, 64, 43
2, 113089, Control_c, 0, 64, 36
2, 113109, Control_c, 0, 64, 31
2, 113128, Control_c, 0, 64, 31
2, 113166, Control_c, 0, 64, 35
2, 113186, Control_c, 0, 64, 43
2, 113204, Control_c, 0, 64, 52
2, 113223, Control_c, 0, 64, 58
2, 113243, Control_c, 0, 64, 61
2, 113262, Control_c, 0, 64, 63
2, 113281, Control_c, 0, 64, 64
2, 113300, Control_c, 0, 64, 65
2, 113320, Control_c, 0, 64, 67
2, 113338, Control_c, 0, 64, 69
2, 113358, Control_c, 0, 64, 70
2, 113377, Control_c, 0, 64, 72
2, 113397, Control_c, 0, 64, 74
2, 113415, Control_c, 0, 64, 75
2, 113435, Control_c, 0, 64, 76
2, 113454, Control_c, 0, 64, 76
2, 113474, Control_c, 0, 64, 77
2, 113492, Control_c, 0, 64, 77
2, 113512, Control_c, 0, 64, 78
2, 113531, Control_c, 0, 64, 79
2, 113550, Control_c, 0, 64, 79
2, 113569, Control_c, 0, 64, 80
2, 113622, Note_on_c, 0, 56, 0
2, 113771, Note_on_c, 0, 50, 0
2, 113900, Note_on_c, 0, 68, 0
2, 113972, Control_c, 0, 64, 80
2, 114049, Control_c, 0, 64, 80
2, 114147, Note_on_c, 0, 71, 0
2, 114164, Control_c, 0, 64, 79
2, 114190, Note_on_c, 0, 70, 47
2, 114222, Control_c, 0, 64, 79
2, 114232, Note_on_c, 0, 65, 0
2, 114298, Control_c, 0, 64, 78
2, 114337, Control_c, 0, 64, 78
2, 114340, Note_on_c, 0, 70, 0
2, 114357, Control_c, 0, 64, 77
2, 114357, Note_on_c, 0, 68, 56
2, 114395, Control_c, 0, 64, 77
2, 114414, Control_c, 0, 64, 76
2, 114434, Control_c, 0, 64, 76
2, 114468, Note_on_c, 0, 50, 19
2, 114472, Control_c, 0, 64, 75
2, 114510, Control_c, 0, 64, 75
2, 114529, Control_c, 0, 64, 74
2, 114549, Control_c, 0, 64, 73
2, 114550, Note_on_c, 0, 53, 32
2, 114568, Control_c, 0, 64, 72
2, 114587, Control_c, 0, 64, 70
2, 114604, Note_on_c, 0, 77, 61
2, 114606, Control_c, 0, 64, 67
2, 114607, Note_on_c, 0, 68, 0
2, 114615, Note_on_c, 0, 58, 35
2, 114626, Control_c, 0, 64, 65
2, 114644, Control_c, 0, 64, 63
2, 114663, Control_c, 0, 64, 59
2, 114683, Control_c, 0, 64, 55
2, 114702, Control_c, 0, 64, 50
2, 114721, Control_c, 0, 64, 46
2, 114740, Control_c, 0, 64, 43
2, 114760, Control_c, 0, 64, 40
2, 114778, Control_c, 0, 64, 37
2, 114798, Control_c, 0, 64, 36
2, 114855, Control_c, 0, 64, 37
2, 114875, Control_c, 0, 64, 41
2, 114894, Control_c, 0, 64, 44
2, 114914, Control_c, 0, 64, 48
2, 114932, Control_c, 0, 64, 51
2, 114952, Control_c, 0, 64, 54
2, 114971, Control_c, 0, 64, 56
2, 114987, Control_c, 0, 64, 58
2, 115006, Control_c, 0, 64, 60
2, 115026, Control_c, 0, 64, 62
2, 115045, Control_c, 0, 64, 63
2, 115064, Control_c, 0, 64, 64
2, 115083, Control_c, 0, 64, 65
2, 115103, Control_c, 0, 64, 66
2, 115121, Control_c, 0, 64, 67
2, 115141, Control_c, 0, 64, 69
2, 115160, Control_c, 0, 64, 71
2, 115180, Control_c, 0, 64, 74
2, 115198, Control_c, 0, 64, 77
2, 115218, Control_c, 0, 64, 80
2, 115237, Control_c, 0, 64, 82
2, 115256, Control_c, 0, 64, 84
2, 115275, Control_c, 0, 64, 86
2, 115295, Control_c, 0, 64, 87
2, 115314, Control_c, 0, 64, 88
2, 115332, Control_c, 0, 64, 90
2, 115352, Control_c, 0, 64, 92
2, 115371, Control_c, 0, 64, 94
2, 115391, Control_c, 0, 64, 95
2, 115403, Note_on_c, 0, 53, 0
2, 115409, Control_c, 0, 64, 96
2, 115429, Control_c, 0, 64, 96
2, 115448, Control_c, 0, 64, 97
2, 115467, Control_c, 0, 64, 97
2, 115486, Control_c, 0, 64, 98
2, 115506, Control_c, 0, 64, 98
2, 115534, Note_on_c, 0, 58, 0
2, 115544, Control_c, 0, 64, 99
2, 115544, Note_on_c, 0, 50, 0
2, 115610, Note_on_c, 0, 77, 0
2, 115812, Control_c, 0, 64, 98
2, 115837, Note_on_c, 0, 71, 37
2, 115851, Control_c, 0, 64, 98
2, 115871, Control_c, 0, 64, 97
2, 115909, Control_c, 0, 64, 96
2, 115928, Control_c, 0, 64, 96
2, 115947, Control_c, 0, 64, 95
2, 115966, Control_c, 0, 64, 94
2, 115986, Control_c, 0, 64, 93
2, 115995, Note_on_c, 0, 71, 0
2, 116005, Control_c, 0, 64, 91
2, 116024, Control_c, 0, 64, 90
2, 116033, Note_on_c, 0, 50, 28
2, 116043, Control_c, 0, 64, 88
2, 116063, Control_c, 0, 64, 86
2, 116081, Control_c, 0, 64, 85
2, 116101, Control_c, 0, 64, 83
2, 116109, Note_on_c, 0, 53, 26
2, 116120, Control_c, 0, 64, 82
2, 116140, Control_c, 0, 64, 80
2, 116158, Control_c, 0, 64, 78
2, 116178, Control_c, 0, 64, 76
2, 116188, Note_on_c, 0, 58, 34
2, 116197, Control_c, 0, 64, 75
2, 116216, Control_c, 0, 64, 74
2, 116235, Control_c, 0, 64, 73
2, 116237, Note_on_c, 0, 71, 39
2, 116255, Control_c, 0, 64, 72
2, 116274, Control_c, 0, 64, 71
2, 116292, Control_c, 0, 64, 70
2, 116312, Control_c, 0, 64, 69
2, 116331, Control_c, 0, 64, 68
2, 116351, Control_c, 0, 64, 67
2, 116369, Control_c, 0, 64, 67
2, 116383, Note_on_c, 0, 71, 0
2, 116389, Control_c, 0, 64, 66
2, 116408, Control_c, 0, 64, 66
2, 116427, Control_c, 0, 64, 65
2, 116446, Control_c, 0, 64, 64
2, 116446, Note_on_c, 0, 70, 40
2, 116466, Control_c, 0, 64, 64
2, 116485, Control_c, 0, 64, 63
2, 116516, Note_on_c, 0, 70, 0
2, 116523, Control_c, 0, 64, 62
2, 116544, Control_c, 0, 64, 62
2, 116552, Note_on_c, 0, 71, 48
2, 116562, Control_c, 0, 64, 61
2, 116582, Control_c, 0, 64, 60
2, 116601, Control_c, 0, 64, 60
2, 116609, Note_on_c, 0, 71, 0
2, 116620, Control_c, 0, 64, 59
2, 116651, Note_on_c, 0, 70, 51
2, 116656, Control_c, 0, 64, 59
2, 116675, Control_c, 0, 64, 58
2, 116695, Control_c, 0, 64, 57
2, 116699, Note_on_c, 0, 70, 0
2, 116713, Control_c, 0, 64, 57
2, 116725, Note_on_c, 0, 71, 55
2, 116732, Control_c, 0, 64, 56
2, 116771, Control_c, 0, 64, 56
2, 116788, Note_on_c, 0, 71, 0
2, 116790, Control_c, 0, 64, 55
2, 116809, Control_c, 0, 64, 55
2, 116813, Note_on_c, 0, 70, 61
2, 116847, Control_c, 0, 64, 54
2, 116867, Control_c, 0, 64, 54
2, 116867, Note_on_c, 0, 70, 0
2, 116886, Control_c, 0, 64, 53
2, 116906, Control_c, 0, 64, 52
2, 116920, Note_on_c, 0, 71, 5
2, 116924, Control_c, 0, 64, 52
2, 116944, Control_c, 0, 64, 51
2, 116963, Control_c, 0, 64, 50
2, 116968, Note_on_c, 0, 70, 43
2, 116982, Control_c, 0, 64, 49
2, 117001, Control_c, 0, 64, 48
2, 117003, Note_on_c, 0, 70, 0
2, 117021, Control_c, 0, 64, 47
2, 117040, Control_c, 0, 64, 46
2, 117059, Control_c, 0, 64, 46
2, 117083, Note_on_c, 0, 71, 0
2, 117098, Control_c, 0, 64, 45
2, 117100, Note_on_c, 0, 70, 63
2, 117136, Control_c, 0, 64, 45
2, 117152, Note_on_c, 0, 70, 0
2, 117155, Control_c, 0, 64, 44
2, 117191, Note_on_c, 0, 68, 43
2, 117251, Control_c, 0, 64, 45
2, 117256, Note_on_c, 0, 68, 0
2, 117270, Control_c, 0, 64, 45
2, 117281, Note_on_c, 0, 70, 51
2, 117289, Control_c, 0, 64, 46
2, 117309, Control_c, 0, 64, 47
2, 117327, Control_c, 0, 64, 48
2, 117347, Control_c, 0, 64, 49
2, 117356, Note_on_c, 0, 70, 0
2, 117363, Note_on_c, 0, 50, 0
2, 117366, Control_c, 0, 64, 50
2, 117386, Control_c, 0, 64, 53
2, 117397, Note_on_c, 0, 71, 48
2, 117404, Control_c, 0, 64, 57
2, 117423, Note_on_c, 0, 53, 0
2, 117424, Control_c, 0, 64, 59
2, 117443, Control_c, 0, 64, 60
2, 117462, Control_c, 0, 64, 61
2, 117481, Control_c, 0, 64, 61
2, 117501, Control_c, 0, 64, 62
2, 117520, Control_c, 0, 64, 62
2, 117553, Note_on_c, 0, 68, 54
2, 117558, Control_c, 0, 64, 63
2, 117591, Note_on_c, 0, 71, 0
2, 117641, Note_on_c, 0, 58, 0
2, 117685, Note_on_c, 0, 51, 31
2, 117693, Control_c, 0, 64, 62
2, 117751, Control_c, 0, 64, 62
2, 117770, Control_c, 0, 64, 61
2, 117789, Note_on_c, 0, 54, 22
2, 117790, Control_c, 0, 64, 61
2, 117808, Control_c, 0, 64, 60
2, 117825, Note_on_c, 0, 68, 0
2, 117828, Control_c, 0, 64, 60
2, 117847, Control_c, 0, 64, 58
2, 117851, Note_on_c, 0, 66, 43
2, 117866, Control_c, 0, 64, 57
2, 117883, Note_on_c, 0, 63, 29
2, 117885, Control_c, 0, 64, 55
2, 117893, Note_on_c, 0, 58, 14
2, 117905, Control_c, 0, 64, 53
2, 117924, Control_c, 0, 64, 51
2, 117943, Control_c, 0, 64, 50
2, 117962, Control_c, 0, 64, 48
2, 117982, Control_c, 0, 64, 47
2, 118001, Control_c, 0, 64, 46
2, 118020, Control_c, 0, 64, 45
2, 118136, Control_c, 0, 64, 46
2, 118154, Control_c, 0, 64, 48
2, 118173, Control_c, 0, 64, 49
2, 118193, Control_c, 0, 64, 52
2, 118211, Control_c, 0, 64, 54
2, 118231, Control_c, 0, 64, 57
2, 118250, Control_c, 0, 64, 59
2, 118270, Control_c, 0, 64, 61
2, 118288, Control_c, 0, 64, 62
2, 118308, Control_c, 0, 64, 63
2, 118327, Control_c, 0, 64, 64
2, 118346, Control_c, 0, 64, 64
2, 118365, Control_c, 0, 64, 65
2, 118385, Control_c, 0, 64, 65
2, 118404, Control_c, 0, 64, 66
2, 118423, Control_c, 0, 64, 67
2, 118442, Control_c, 0, 64, 68
2, 118462, Control_c, 0, 64, 68
2, 118481, Control_c, 0, 64, 69
2, 118500, Control_c, 0, 64, 70
2, 118519, Control_c, 0, 64, 71
2, 118539, Control_c, 0, 64, 72
2, 118557, Control_c, 0, 64, 73
2, 118596, Control_c, 0, 64, 74
2, 118634, Control_c, 0, 64, 74
2, 118653, Control_c, 0, 64, 76
2, 118667, Note_on_c, 0, 54, 0
2, 118673, Control_c, 0, 64, 77
2, 118676, Note_on_c, 0, 58, 0
2, 118691, Control_c, 0, 64, 78
2, 118711, Control_c, 0, 64, 80
2, 118716, Note_on_c, 0, 51, 0
2, 118730, Control_c, 0, 64, 80
2, 118750, Control_c, 0, 64, 81
2, 118768, Control_c, 0, 64, 81
2, 118788, Control_c, 0, 64, 82
2, 118807, Control_c, 0, 64, 84
2, 118826, Control_c, 0, 64, 85
2, 118845, Control_c, 0, 64, 86
2, 118903, Control_c, 0, 64, 87
2, 118922, Control_c, 0, 64, 88
2, 118942, Control_c, 0, 64, 89
2, 118961, Control_c, 0, 64, 90
2, 118980, Control_c, 0, 64, 90
2, 119207, Note_on_c, 0, 63, 0
2, 119210, Control_c, 0, 64, 90
2, 119268, Control_c, 0, 64, 89
2, 119287, Control_c, 0, 64, 89
2, 119325, Control_c, 0, 64, 88
2, 119345, Control_c, 0, 64, 88
2, 119361, Note_on_c, 0, 51, 25
2, 119364, Control_c, 0, 64, 87
2, 119369, Note_on_c, 0, 66, 0
2, 119383, Control_c, 0, 64, 86
2, 119402, Control_c, 0, 64, 86
2, 119422, Control_c, 0, 64, 85
2, 119441, Control_c, 0, 64, 83
2, 119456, Note_on_c, 0, 54, 20
2, 119460, Control_c, 0, 64, 82
2, 119479, Control_c, 0, 64, 80
2, 119499, Control_c, 0, 64, 78
2, 119516, Control_c, 0, 64, 76
2, 119536, Control_c, 0, 64, 73
2, 119555, Control_c, 0, 64, 70
2, 119559, Note_on_c, 0, 58, 29
2, 119575, Control_c, 0, 64, 67
2, 119593, Control_c, 0, 64, 64
2, 119612, Control_c, 0, 64, 63
2, 119632, Control_c, 0, 64, 61
2, 119651, Control_c, 0, 64, 58
2, 119670, Control_c, 0, 64, 55
2, 119689, Control_c, 0, 64, 52
2, 119709, Control_c, 0, 64, 50
2, 119727, Control_c, 0, 64, 50
2, 119747, Control_c, 0, 64, 50
2, 119766, Control_c, 0, 64, 51
2, 119786, Control_c, 0, 64, 54
2, 119804, Control_c, 0, 64, 57
2, 119824, Control_c, 0, 64, 60
2, 119832, Note_on_c, 0, 63, 23
2, 119843, Control_c, 0, 64, 61
2, 119862, Control_c, 0, 64, 63
2, 119881, Control_c, 0, 64, 64
2, 119901, Control_c, 0, 64, 65
2, 119920, Control_c, 0, 64, 66
2, 119939, Control_c, 0, 64, 68
2, 119951, Note_on_c, 0, 63, 0
2, 119958, Control_c, 0, 64, 69
2, 119978, Control_c, 0, 64, 70
2, 119996, Control_c, 0, 64, 71
2, 120016, Control_c, 0, 64, 71
2, 120019, Note_on_c, 0, 65, 32
2, 120055, Control_c, 0, 64, 72
2, 120073, Control_c, 0, 64, 72
2, 120092, Control_c, 0, 64, 73
2, 120131, Control_c, 0, 64, 74
2, 120189, Control_c, 0, 64, 74
2, 120211, Note_on_c, 0, 66, 36
2, 120212, Note_on_c, 0, 65, 0
2, 120227, Control_c, 0, 64, 75
2, 120246, Control_c, 0, 64, 75
2, 120266, Control_c, 0, 64, 76
2, 120304, Control_c, 0, 64, 76
2, 120342, Control_c, 0, 64, 77
2, 120361, Control_c, 0, 64, 78
2, 120363, Note_on_c, 0, 66, 0
2, 120394, Note_on_c, 0, 68, 51
2, 120401, Control_c, 0, 64, 78
2, 120421, Note_on_c, 0, 58, 0
2, 120460, Note_on_c, 0, 51, 0
2, 120479, Note_on_c, 0, 54, 0
2, 120497, Control_c, 0, 64, 79
2, 120554, Control_c, 0, 64, 79
2, 120564, Note_on_c, 0, 68, 0
2, 120569, Note_on_c, 0, 70, 59
2, 120650, Control_c, 0, 64, 79
2, 120685, Note_on_c, 0, 70, 0
2, 120708, Control_c, 0, 64, 78
2, 120746, Control_c, 0, 64, 78
2, 120746, Note_on_c, 0, 72, 62
2, 120765, Control_c, 0, 64, 77
2, 120785, Control_c, 0, 64, 76
2, 120804, Control_c, 0, 64, 76
2, 120823, Control_c, 0, 64, 75
2, 120842, Control_c, 0, 64, 75
2, 120862, Control_c, 0, 64, 74
2, 120881, Control_c, 0, 64, 73
2, 120900, Control_c, 0, 64, 73
2, 120909, Note_on_c, 0, 74, 62
2, 120919, Control_c, 0, 64, 72
2, 120936, Note_on_c, 0, 51, 31
2, 120937, Note_on_c, 0, 72, 0
2, 120939, Control_c, 0, 64, 71
2, 120957, Control_c, 0, 64, 70
2, 120977, Control_c, 0, 64, 68
2, 120996, Control_c, 0, 64, 67
2, 121013, Note_on_c, 0, 54, 31
2, 121016, Control_c, 0, 64, 65
2, 121034, Control_c, 0, 64, 64
2, 121053, Control_c, 0, 64, 63
2, 121073, Control_c, 0, 64, 62
2, 121091, Control_c, 0, 64, 60
2, 121111, Control_c, 0, 64, 57
2, 121114, Note_on_c, 0, 75, 74
2, 121123, Note_on_c, 0, 58, 36
2, 121130, Control_c, 0, 64, 55
2, 121142, Note_on_c, 0, 74, 0
2, 121150, Control_c, 0, 64, 52
2, 121168, Control_c, 0, 64, 50
2, 121188, Control_c, 0, 64, 48
2, 121207, Control_c, 0, 64, 47
2, 121226, Control_c, 0, 64, 47
2, 121245, Control_c, 0, 64, 46
2, 121265, Control_c, 0, 64, 45
2, 121284, Control_c, 0, 64, 43
2, 121288, Note_on_c, 0, 77, 71
2, 121303, Control_c, 0, 64, 41
2, 121308, Note_on_c, 0, 75, 0
2, 121322, Control_c, 0, 64, 40
2, 121347, Control_c, 0, 64, 39
2, 121405, Control_c, 0, 64, 38
2, 121437, Control_c, 0, 64, 38
2, 121457, Control_c, 0, 64, 37
2, 121468, Note_on_c, 0, 78, 75
2, 121476, Control_c, 0, 64, 36
2, 121496, Control_c, 0, 64, 36
2, 121514, Control_c, 0, 64, 35
2, 121524, Note_on_c, 0, 77, 0
2, 121533, Control_c, 0, 64, 34
2, 121571, Control_c, 0, 64, 34
2, 121591, Control_c, 0, 64, 32
2, 121610, Control_c, 0, 64, 29
2, 121630, Control_c, 0, 64, 24
2, 121648, Control_c, 0, 64, 19
2, 121650, Note_on_c, 0, 80, 81
2, 121668, Control_c, 0, 64, 15
2, 121704, Note_on_c, 0, 78, 0
2, 121764, Control_c, 0, 64, 13
2, 121783, Control_c, 0, 64, 11
2, 121802, Control_c, 0, 64, 9
2, 121841, Control_c, 0, 64, 0
2, 121869, Note_on_c, 0, 78, 77
2, 122006, Note_on_c, 0, 80, 0
2, 122053, Note_on_c, 0, 77, 73
2, 122107, Note_on_c, 0, 78, 0
2, 122263, Control_c, 0, 64, 22
2, 122282, Control_c, 0, 64, 49
2, 122282, Note_on_c, 0, 78, 78
2, 122302, Control_c, 0, 64, 59
2, 122321, Control_c, 0, 64, 62
2, 122340, Control_c, 0, 64, 64
2, 122359, Control_c, 0, 64, 65
2, 122368, Note_on_c, 0, 77, 0
2, 122379, Control_c, 0, 64, 66
2, 122398, Control_c, 0, 64, 68
2, 122418, Control_c, 0, 64, 72
2, 122426, Note_on_c, 0, 51, 0
2, 122429, Note_on_c, 0, 54, 0
2, 122437, Control_c, 0, 64, 76
2, 122457, Control_c, 0, 64, 79
2, 122475, Control_c, 0, 64, 81
2, 122494, Note_on_c, 0, 58, 0
2, 122523, Note_on_c, 0, 75, 73
2, 122591, Control_c, 0, 64, 81
2, 122609, Control_c, 0, 64, 80
2, 122614, Note_on_c, 0, 78, 0
2, 122629, Control_c, 0, 64, 79
2, 122638, Note_on_c, 0, 75, 0
2, 122648, Control_c, 0, 64, 79
2, 122667, Control_c, 0, 64, 78
2, 122706, Control_c, 0, 64, 78
2, 122708, Note_on_c, 0, 44, 46
2, 122729, Note_on_c, 0, 47, 54
2, 122783, Control_c, 0, 64, 77
2, 122801, Control_c, 0, 64, 76
2, 122808, Note_on_c, 0, 52, 44
2, 122821, Control_c, 0, 64, 76
2, 122840, Control_c, 0, 64, 75
2, 122870, Note_on_c, 0, 56, 50
2, 122890, Note_on_c, 0, 64, 57
2, 122917, Control_c, 0, 64, 75
2, 122931, Note_on_c, 0, 68, 64
2, 122955, Control_c, 0, 64, 74
2, 123007, Note_on_c, 0, 71, 65
2, 123089, Control_c, 0, 64, 73
2, 123093, Note_on_c, 0, 76, 82
2, 123109, Control_c, 0, 64, 70
2, 123128, Control_c, 0, 64, 66
2, 123147, Control_c, 0, 64, 62
2, 123166, Control_c, 0, 64, 55
2, 123186, Control_c, 0, 64, 44
2, 123205, Control_c, 0, 64, 20
2, 123224, Control_c, 0, 64, 0
2, 123320, Control_c, 0, 64, 15
2, 123340, Control_c, 0, 64, 41
2, 123358, Control_c, 0, 64, 52
2, 123378, Control_c, 0, 64, 58
2, 123397, Control_c, 0, 64, 60
2, 123417, Control_c, 0, 64, 61
2, 123435, Control_c, 0, 64, 62
2, 123454, Control_c, 0, 64, 62
2, 123474, Control_c, 0, 64, 63
2, 123492, Control_c, 0, 64, 63
2, 123512, Control_c, 0, 64, 64
2, 123531, Control_c, 0, 64, 65
2, 123551, Control_c, 0, 64, 65
2, 123569, Control_c, 0, 64, 66
2, 123589, Control_c, 0, 64, 67
2, 123608, Control_c, 0, 64, 68
2, 123627, Control_c, 0, 64, 70
2, 123646, Control_c, 0, 64, 71
2, 123666, Control_c, 0, 64, 72
2, 123685, Control_c, 0, 64, 74
2, 123704, Control_c, 0, 64, 75
2, 123723, Control_c, 0, 64, 75
2, 123781, Control_c, 0, 64, 76
2, 123800, Control_c, 0, 64, 76
2, 123820, Control_c, 0, 64, 77
2, 123838, Control_c, 0, 64, 77
2, 123858, Control_c, 0, 64, 78
2, 123877, Control_c, 0, 64, 78
2, 123897, Control_c, 0, 64, 79
2, 123929, Note_on_c, 0, 71, 0
2, 123964, Note_on_c, 0, 76, 0
2, 123992, Control_c, 0, 64, 79
2, 124069, Control_c, 0, 64, 80
2, 124088, Control_c, 0, 64, 81
2, 124107, Control_c, 0, 64, 81
2, 124126, Control_c, 0, 64, 82
2, 124146, Control_c, 0, 64, 83
2, 124184, Control_c, 0, 64, 83
2, 124223, Control_c, 0, 64, 84
2, 124259, Control_c, 0, 64, 85
2, 124298, Control_c, 0, 64, 85
2, 124306, Note_on_c, 0, 44, 0
2, 124381, Note_on_c, 0, 47, 0
2, 124425, Note_on_c, 0, 52, 0
2, 124439, Note_on_c, 0, 71, 72
2, 124446, Note_on_c, 0, 56, 0
2, 124529, Note_on_c, 0, 68, 0
2, 124601, Note_on_c, 0, 69, 78
2, 124694, Note_on_c, 0, 64, 0
2, 124758, Control_c, 0, 64, 85
2, 124777, Note_on_c, 0, 71, 0
2, 124778, Control_c, 0, 64, 84
2, 124796, Control_c, 0, 64, 82
2, 124802, Note_on_c, 0, 68, 79
2, 124816, Control_c, 0, 64, 78
2, 124835, Control_c, 0, 64, 72
2, 124854, Control_c, 0, 64, 66
2, 124868, Note_on_c, 0, 69, 0
2, 124873, Control_c, 0, 64, 60
2, 124892, Control_c, 0, 64, 55
2, 124912, Control_c, 0, 64, 51
2, 124931, Control_c, 0, 64, 48
2, 124950, Control_c, 0, 64, 46
2, 124969, Control_c, 0, 64, 45
2, 124989, Control_c, 0, 64, 45
2, 125219, Control_c, 0, 64, 45
2, 125392, Control_c, 0, 64, 46
2, 125430, Control_c, 0, 64, 46
2, 125718, Control_c, 0, 64, 46
2, 125756, Control_c, 0, 64, 45
2, 126031, Note_on_c, 0, 69, 66
2, 126121, Control_c, 0, 64, 44
2, 126161, Control_c, 0, 64, 44
2, 126212, Note_on_c, 0, 71, 70
2, 126235, Control_c, 0, 64, 43
2, 126250, Note_on_c, 0, 68, 0
2, 126273, Control_c, 0, 64, 43
2, 126311, Control_c, 0, 64, 42
2, 126350, Control_c, 0, 64, 41
2, 126369, Control_c, 0, 64, 40
2, 126385, Note_on_c, 0, 69, 0
2, 126388, Control_c, 0, 64, 39
2, 126422, Note_on_c, 0, 64, 72
2, 126427, Control_c, 0, 64, 37
2, 126446, Control_c, 0, 64, 36
2, 126456, Note_on_c, 0, 71, 0
2, 126465, Control_c, 0, 64, 34
2, 126484, Control_c, 0, 64, 30
2, 126504, Control_c, 0, 64, 27
2, 126522, Control_c, 0, 64, 25
2, 126542, Control_c, 0, 64, 23
2, 126561, Control_c, 0, 64, 20
2, 126581, Control_c, 0, 64, 13
2, 126599, Control_c, 0, 64, 0
2, 127061, Control_c, 0, 64, 21
2, 127079, Control_c, 0, 64, 32
2, 127099, Control_c, 0, 64, 41
2, 127120, Control_c, 0, 64, 49
2, 127139, Control_c, 0, 64, 55
2, 127158, Control_c, 0, 64, 59
2, 127178, Control_c, 0, 64, 61
2, 127197, Control_c, 0, 64, 63
2, 127217, Control_c, 0, 64, 64
2, 127236, Control_c, 0, 64, 65
2, 127255, Control_c, 0, 64, 66
2, 127274, Control_c, 0, 64, 67
2, 127293, Control_c, 0, 64, 69
2, 127313, Control_c, 0, 64, 70
2, 127331, Control_c, 0, 64, 72
2, 127351, Control_c, 0, 64, 73
2, 127370, Control_c, 0, 64, 74
2, 127390, Control_c, 0, 64, 75
2, 127408, Control_c, 0, 64, 76
2, 127428, Control_c, 0, 64, 77
2, 127447, Control_c, 0, 64, 78
2, 127466, Control_c, 0, 64, 80
2, 127485, Control_c, 0, 64, 80
2, 127505, Control_c, 0, 64, 81
2, 127524, Control_c, 0, 64, 81
2, 127543, Control_c, 0, 64, 82
2, 127562, Control_c, 0, 64, 83
2, 127582, Control_c, 0, 64, 84
2, 127735, Control_c, 0, 64, 83
2, 127770, Note_on_c, 0, 66, 57
2, 127773, Control_c, 0, 64, 83
2, 127831, Control_c, 0, 64, 82
2, 127854, Note_on_c, 0, 64, 0
2, 127870, Control_c, 0, 64, 82
2, 127888, Control_c, 0, 64, 81
2, 127908, Control_c, 0, 64, 81
2, 127927, Control_c, 0, 64, 80
2, 127946, Control_c, 0, 64, 79
2, 127960, Note_on_c, 0, 68, 60
2, 127965, Control_c, 0, 64, 78
2, 127985, Control_c, 0, 64, 78
2, 128004, Control_c, 0, 64, 77
2, 128019, Note_on_c, 0, 66, 0
2, 128023, Control_c, 0, 64, 76
2, 128042, Control_c, 0, 64, 75
2, 128062, Control_c, 0, 64, 74
2, 128081, Control_c, 0, 64, 73
2, 128100, Control_c, 0, 64, 72
2, 128119, Control_c, 0, 64, 71
2, 128139, Control_c, 0, 64, 69
2, 128157, Control_c, 0, 64, 67
2, 128177, Control_c, 0, 64, 65
2, 128185, Note_on_c, 0, 62, 49
2, 128196, Control_c, 0, 64, 63
2, 128198, Note_on_c, 0, 44, 32
2, 128198, Note_on_c, 0, 58, 34
2, 128202, Note_on_c, 0, 68, 0
2, 128215, Control_c, 0, 64, 61
2, 128218, Note_on_c, 0, 53, 21
2, 128234, Control_c, 0, 64, 58
2, 128253, Control_c, 0, 64, 54
2, 128273, Control_c, 0, 64, 48
2, 128291, Control_c, 0, 64, 39
2, 128311, Control_c, 0, 64, 27
2, 128330, Control_c, 0, 64, 11
2, 128350, Control_c, 0, 64, 0
2, 128465, Control_c, 0, 64, 18
2, 128484, Control_c, 0, 64, 31
2, 128503, Control_c, 0, 64, 44
2, 128522, Control_c, 0, 64, 53
2, 128542, Control_c, 0, 64, 58
2, 128561, Control_c, 0, 64, 60
2, 128580, Control_c, 0, 64, 61
2, 128599, Control_c, 0, 64, 62
2, 128619, Control_c, 0, 64, 63
2, 128637, Control_c, 0, 64, 64
2, 128657, Control_c, 0, 64, 65
2, 128676, Control_c, 0, 64, 66
2, 128695, Control_c, 0, 64, 66
2, 128714, Control_c, 0, 64, 67
2, 128733, Control_c, 0, 64, 67
2, 128753, Control_c, 0, 64, 68
2, 128771, Control_c, 0, 64, 69
2, 128791, Control_c, 0, 64, 70
2, 128810, Control_c, 0, 64, 70
2, 128830, Control_c, 0, 64, 71
2, 128848, Control_c, 0, 64, 72
2, 128868, Control_c, 0, 64, 73
2, 128906, Control_c, 0, 64, 74
2, 128925, Control_c, 0, 64, 74
2, 128945, Control_c, 0, 64, 75
2, 128964, Control_c, 0, 64, 76
2, 128983, Control_c, 0, 64, 78
2, 129002, Control_c, 0, 64, 79
2, 129022, Control_c, 0, 64, 79
2, 129060, Control_c, 0, 64, 80
2, 129079, Control_c, 0, 64, 80
2, 129099, Control_c, 0, 64, 81
2, 129117, Control_c, 0, 64, 82
2, 129137, Control_c, 0, 64, 83
2, 129156, Control_c, 0, 64, 84
2, 129175, Control_c, 0, 64, 84
2, 129213, Control_c, 0, 64, 85
2, 129233, Control_c, 0, 64, 86
2, 129251, Control_c, 0, 64, 86
2, 129271, Control_c, 0, 64, 87
2, 129290, Control_c, 0, 64, 87
2, 129310, Control_c, 0, 64, 88
2, 129405, Control_c, 0, 64, 88
2, 129485, Note_on_c, 0, 65, 44
2, 129502, Control_c, 0, 64, 88
2, 129521, Note_on_c, 0, 44, 0
2, 129533, Note_on_c, 0, 62, 0
2, 129540, Control_c, 0, 64, 87
2, 129559, Control_c, 0, 64, 87
2, 129579, Control_c, 0, 64, 86
2, 129597, Control_c, 0, 64, 86
2, 129617, Control_c, 0, 64, 85
2, 129636, Control_c, 0, 64, 84
2, 129644, Note_on_c, 0, 68, 57
2, 129654, Note_on_c, 0, 58, 0
2, 129655, Control_c, 0, 64, 83
2, 129657, Note_on_c, 0, 65, 0
2, 129674, Control_c, 0, 64, 82
2, 129693, Control_c, 0, 64, 81
2, 129713, Control_c, 0, 64, 79
2, 129716, Note_on_c, 0, 53, 0
2, 129731, Control_c, 0, 64, 78
2, 129751, Control_c, 0, 64, 77
2, 129770, Control_c, 0, 64, 76
2, 129790, Control_c, 0, 64, 75
2, 129808, Control_c, 0, 64, 73
2, 129828, Control_c, 0, 64, 72
2, 129847, Control_c, 0, 64, 68
2, 129861, Note_on_c, 0, 71, 57
2, 129866, Control_c, 0, 64, 65
2, 129871, Note_on_c, 0, 68, 0
2, 129885, Control_c, 0, 64, 63
2, 129905, Control_c, 0, 64, 61
2, 129924, Control_c, 0, 64, 59
2, 129943, Control_c, 0, 64, 58
2, 129962, Control_c, 0, 64, 56
2, 129982, Control_c, 0, 64, 53
2, 130001, Control_c, 0, 64, 51
2, 130020, Control_c, 0, 64, 50
2, 130059, Control_c, 0, 64, 50
2, 130077, Control_c, 0, 64, 49
2, 130097, Control_c, 0, 64, 49
2, 130116, Control_c, 0, 64, 48
2, 130193, Control_c, 0, 64, 48
2, 130231, Control_c, 0, 64, 48
2, 130250, Control_c, 0, 64, 49
2, 130288, Control_c, 0, 64, 49
2, 130596, Control_c, 0, 64, 50
2, 130788, Control_c, 0, 64, 50
2, 130884, Control_c, 0, 64, 51
2, 131020, Note_on_c, 0, 70, 66
2, 131090, Note_on_c, 0, 71, 0
2, 131172, Control_c, 0, 64, 50
2, 131205, Note_on_c, 0, 68, 73
2, 131211, Control_c, 0, 64, 50
2, 131225, Note_on_c, 0, 70, 0
2, 131231, Control_c, 0, 64, 49
2, 131249, Control_c, 0, 64, 49
2, 131288, Control_c, 0, 64, 48
2, 131326, Control_c, 0, 64, 48
2, 131365, Control_c, 0, 64, 47
2, 131384, Control_c, 0, 64, 46
2, 131403, Control_c, 0, 64, 45
2, 131413, Note_on_c, 0, 77, 74
2, 131423, Control_c, 0, 64, 44
2, 131426, Note_on_c, 0, 68, 0
2, 131441, Control_c, 0, 64, 43
2, 131461, Control_c, 0, 64, 42
2, 131480, Control_c, 0, 64, 41
2, 131500, Control_c, 0, 64, 40
2, 131614, Control_c, 0, 64, 41
2, 131652, Control_c, 0, 64, 42
2, 131711, Control_c, 0, 64, 42
2, 131729, Control_c, 0, 64, 43
2, 131749, Control_c, 0, 64, 43
2, 131768, Control_c, 0, 64, 44
2, 131806, Control_c, 0, 64, 44
2, 131826, Control_c, 0, 64, 45
2, 131845, Control_c, 0, 64, 46
2, 131864, Control_c, 0, 64, 46
2, 131883, Control_c, 0, 64, 47
2, 131921, Control_c, 0, 64, 47
2, 131960, Control_c, 0, 64, 48
2, 131980, Control_c, 0, 64, 48
2, 131998, Control_c, 0, 64, 49
2, 132037, Control_c, 0, 64, 49
2, 132056, Control_c, 0, 64, 50
2, 132132, Control_c, 0, 64, 50
2, 132421, Control_c, 0, 64, 51
2, 132478, Control_c, 0, 64, 51
2, 132587, Note_on_c, 0, 75, 77
2, 132671, Note_on_c, 0, 77, 0
2, 132775, Note_on_c, 0, 74, 76
2, 132838, Note_on_c, 0, 75, 0
2, 132995, Control_c, 0, 64, 51
2, 133014, Control_c, 0, 64, 50
2, 133032, Note_on_c, 0, 83, 85
2, 133033, Control_c, 0, 64, 50
2, 133052, Control_c, 0, 64, 49
2, 133072, Control_c, 0, 64, 48
2, 133091, Control_c, 0, 64, 47
2, 133094, Note_on_c, 0, 74, 0
2, 133110, Control_c, 0, 64, 46
2, 133129, Control_c, 0, 64, 46
2, 133552, Control_c, 0, 64, 45
2, 133571, Control_c, 0, 64, 44
2, 133590, Control_c, 0, 64, 43
2, 133609, Control_c, 0, 64, 42
2, 133629, Control_c, 0, 64, 41
2, 133636, Note_on_c, 0, 81, 77
2, 133647, Control_c, 0, 64, 40
2, 133667, Control_c, 0, 64, 38
2, 133686, Control_c, 0, 64, 34
2, 133706, Control_c, 0, 64, 27
2, 133724, Control_c, 0, 64, 19
2, 133742, Note_on_c, 0, 83, 0
2, 133744, Control_c, 0, 64, 0
2, 133955, Control_c, 0, 64, 17
2, 133974, Control_c, 0, 64, 29
2, 133993, Control_c, 0, 64, 41
2, 134012, Control_c, 0, 64, 52
2, 134032, Control_c, 0, 64, 58
2, 134051, Control_c, 0, 64, 60
2, 134070, Control_c, 0, 64, 62
2, 134089, Control_c, 0, 64, 64
2, 134109, Control_c, 0, 64, 65
2, 134127, Control_c, 0, 64, 68
2, 134147, Control_c, 0, 64, 71
2, 134166, Control_c, 0, 64, 75
2, 134186, Control_c, 0, 64, 80
2, 134204, Control_c, 0, 64, 85
2, 134224, Control_c, 0, 64, 90
2, 134243, Control_c, 0, 64, 94
2, 134262, Control_c, 0, 64, 97
2, 134281, Control_c, 0, 64, 100
2, 134301, Control_c, 0, 64, 104
2, 134320, Control_c, 0, 64, 109
2, 134339, Control_c, 0, 64, 116
2, 134358, Control_c, 0, 64, 127
2, 134572, Note_on_c, 0, 82, 79
2, 134680, Note_on_c, 0, 81, 0
2, 134719, Note_on_c, 0, 46, 63
2, 134760, Note_on_c, 0, 82, 0
2, 134832, Note_on_c, 0, 51, 63
2, 134905, Note_on_c, 0, 54, 69
2, 134969, Note_on_c, 0, 58, 56
2, 135043, Note_on_c, 0, 66, 69
2, 135091, Note_on_c, 0, 70, 74
2, 135174, Note_on_c, 0, 75, 89
2, 135183, Control_c, 0, 64, 106
2, 135202, Control_c, 0, 64, 72
2, 135222, Control_c, 0, 64, 58
2, 135240, Control_c, 0, 64, 0
2, 135336, Control_c, 0, 64, 15
2, 135356, Control_c, 0, 64, 50
2, 135374, Control_c, 0, 64, 61
2, 135394, Control_c, 0, 64, 64
2, 135413, Control_c, 0, 64, 67
2, 135432, Control_c, 0, 64, 70
2, 135451, Control_c, 0, 64, 74
2, 135471, Control_c, 0, 64, 78
2, 135490, Control_c, 0, 64, 81
2, 135509, Control_c, 0, 64, 82
2, 135528, Control_c, 0, 64, 82
2, 135548, Control_c, 0, 64, 83
2, 135566, Control_c, 0, 64, 86
2, 135581, Note_on_c, 0, 46, 0
2, 135586, Control_c, 0, 64, 90
2, 135605, Control_c, 0, 64, 95
2, 135624, Note_on_c, 0, 58, 0
2, 135625, Control_c, 0, 64, 102
2, 135643, Control_c, 0, 64, 107
2, 135663, Control_c, 0, 64, 113
2, 135682, Control_c, 0, 64, 121
2, 135702, Control_c, 0, 64, 127
2, 135747, Note_on_c, 0, 54, 0
2, 135784, Note_on_c, 0, 51, 0
2, 136543, Note_on_c, 0, 46, 52
2, 136628, Note_on_c, 0, 53, 62
2, 136636, Note_on_c, 0, 66, 0
2, 136686, Note_on_c, 0, 56, 65
2, 136721, Note_on_c, 0, 75, 0
2, 136736, Note_on_c, 0, 58, 58
2, 136739, Note_on_c, 0, 70, 0
2, 136766, Note_on_c, 0, 65, 63
2, 136871, Note_on_c, 0, 70, 85
2, 136886, Note_on_c, 0, 65, 0
2, 136893, Control_c, 0, 64, 91
2, 136913, Control_c, 0, 64, 69
2, 136931, Control_c, 0, 64, 50
2, 136951, Control_c, 0, 64, 0
2, 136979, Note_on_c, 0, 75, 83
2, 137067, Control_c, 0, 64, 41
2, 137071, Note_on_c, 0, 70, 0
2, 137085, Control_c, 0, 64, 57
2, 137105, Control_c, 0, 64, 62
2, 137124, Control_c, 0, 64, 63
2, 137143, Control_c, 0, 64, 64
2, 137162, Control_c, 0, 64, 65
2, 137182, Control_c, 0, 64, 66
2, 137201, Control_c, 0, 64, 67
2, 137220, Control_c, 0, 64, 69
2, 137225, Note_on_c, 0, 74, 78
2, 137225, Note_on_c, 0, 75, 0
2, 137239, Control_c, 0, 64, 71
2, 137259, Control_c, 0, 64, 73
2, 137277, Control_c, 0, 64, 76
2, 137296, Control_c, 0, 64, 77
2, 137316, Control_c, 0, 64, 78
2, 137321, Note_on_c, 0, 74, 0
2, 137357, Note_on_c, 0, 75, 75
2, 137393, Control_c, 0, 64, 77
2, 137411, Control_c, 0, 64, 77
2, 137427, Note_on_c, 0, 75, 0
2, 137431, Control_c, 0, 64, 76
2, 137443, Note_on_c, 0, 74, 78
2, 137450, Control_c, 0, 64, 76
2, 137488, Control_c, 0, 64, 75
2, 137502, Note_on_c, 0, 74, 0
2, 137508, Control_c, 0, 64, 75
2, 137537, Note_on_c, 0, 75, 60
2, 137547, Control_c, 0, 64, 74
2, 137561, Note_on_c, 0, 75, 0
2, 137565, Control_c, 0, 64, 74
2, 137585, Control_c, 0, 64, 73
2, 137594, Note_on_c, 0, 74, 69
2, 137604, Control_c, 0, 64, 73
2, 137623, Control_c, 0, 64, 72
2, 137639, Note_on_c, 0, 74, 0
2, 137642, Control_c, 0, 64, 72
2, 137651, Note_on_c, 0, 75, 74
2, 137681, Control_c, 0, 64, 71
2, 137683, Note_on_c, 0, 75, 0
2, 137700, Control_c, 0, 64, 71
2, 137709, Note_on_c, 0, 74, 70
2, 137719, Control_c, 0, 64, 70
2, 137739, Control_c, 0, 64, 69
2, 137752, Note_on_c, 0, 74, 0
2, 137757, Control_c, 0, 64, 68
2, 137776, Control_c, 0, 64, 66
2, 137782, Note_on_c, 0, 75, 79
2, 137796, Control_c, 0, 64, 65
2, 137815, Control_c, 0, 64, 63
2, 137834, Control_c, 0, 64, 61
2, 137853, Control_c, 0, 64, 57
2, 137855, Note_on_c, 0, 74, 82
2, 137855, Note_on_c, 0, 75, 0
2, 137873, Control_c, 0, 64, 51
2, 137891, Control_c, 0, 64, 39
2, 137911, Control_c, 0, 64, 20
2, 137930, Control_c, 0, 64, 0
2, 138122, Control_c, 0, 64, 20
2, 138142, Control_c, 0, 64, 49
2, 138161, Control_c, 0, 64, 59
2, 138180, Control_c, 0, 64, 62
2, 138199, Control_c, 0, 64, 63
2, 138219, Control_c, 0, 64, 64
2, 138237, Control_c, 0, 64, 66
2, 138240, Note_on_c, 0, 46, 0
2, 138256, Control_c, 0, 64, 69
2, 138276, Control_c, 0, 64, 72
2, 138292, Note_on_c, 0, 58, 0
2, 138295, Control_c, 0, 64, 76
2, 138314, Control_c, 0, 64, 81
2, 138333, Control_c, 0, 64, 86
2, 138353, Control_c, 0, 64, 88
2, 138371, Control_c, 0, 64, 90
2, 138389, Note_on_c, 0, 53, 0
2, 138391, Control_c, 0, 64, 90
2, 138393, Note_on_c, 0, 56, 0
2, 138410, Control_c, 0, 64, 91
2, 138430, Control_c, 0, 64, 93
2, 138448, Control_c, 0, 64, 94
2, 138468, Control_c, 0, 64, 95
2, 138487, Control_c, 0, 64, 96
2, 138507, Control_c, 0, 64, 97
2, 138525, Control_c, 0, 64, 98
2, 138545, Control_c, 0, 64, 101
2, 138564, Control_c, 0, 64, 104
2, 138583, Control_c, 0, 64, 110
2, 138602, Control_c, 0, 64, 117
2, 138622, Control_c, 0, 64, 127
2, 138761, Note_on_c, 0, 74, 0
2, 138877, Note_on_c, 0, 75, 78
2, 139197, Note_on_c, 0, 75, 0
2, 139573, Note_on_c, 0, 75, 78
2, 139587, Note_on_c, 0, 63, 60
2, 139591, Note_on_c, 0, 70, 70
2, 139599, Note_on_c, 0, 59, 59
2, 139605, Note_on_c, 0, 47, 56
2, 139637, Control_c, 0, 64, 91
2, 139656, Control_c, 0, 64, 68
2, 139675, Control_c, 0, 64, 53
2, 139693, Control_c, 0, 64, 36
2, 139713, Control_c, 0, 64, 28
2, 139732, Control_c, 0, 64, 30
2, 139751, Control_c, 0, 64, 46
2, 139770, Control_c, 0, 64, 57
2, 139790, Control_c, 0, 64, 62
2, 139809, Control_c, 0, 64, 65
2, 139828, Control_c, 0, 64, 67
2, 139847, Control_c, 0, 64, 69
2, 139867, Control_c, 0, 64, 71
2, 139886, Control_c, 0, 64, 73
2, 139905, Control_c, 0, 64, 75
2, 139924, Control_c, 0, 64, 76
2, 139944, Control_c, 0, 64, 77
2, 139962, Control_c, 0, 64, 78
2, 139982, Control_c, 0, 64, 80
2, 140001, Control_c, 0, 64, 84
2, 140021, Control_c, 0, 64, 89
2, 140039, Control_c, 0, 64, 95
2, 140059, Control_c, 0, 64, 101
2, 140078, Control_c, 0, 64, 108
2, 140096, Control_c, 0, 64, 113
2, 140116, Control_c, 0, 64, 116
2, 140135, Control_c, 0, 64, 118
2, 140155, Control_c, 0, 64, 127
2, 140356, Note_on_c, 0, 47, 0
2, 140360, Note_on_c, 0, 59, 0
2, 140612, Note_on_c, 0, 63, 0
2, 141287, Note_on_c, 0, 68, 41
2, 141358, Note_on_c, 0, 70, 0
2, 141454, Note_on_c, 0, 68, 0
2, 141528, Note_on_c, 0, 67, 39
2, 141674, Note_on_c, 0, 67, 0
2, 141751, Note_on_c, 0, 68, 31
2, 141807, Control_c, 0, 64, 98
2, 141827, Control_c, 0, 64, 85
2, 141846, Control_c, 0, 64, 76
2, 141846, Control_c, 0, 67, 17
2, 141866, Control_c, 0, 64, 70
2, 141866, Control_c, 0, 67, 33
2, 141875, Note_on_c, 0, 59, 24
2, 141878, Note_on_c, 0, 63, 16
2, 141884, Control_c, 0, 64, 66
2, 141884, Control_c, 0, 67, 56
2, 141904, Control_c, 0, 64, 64
2, 141904, Control_c, 0, 67, 97
2, 141923, Control_c, 0, 64, 62
2, 141923, Control_c, 0, 67, 127
2, 141942, Control_c, 0, 64, 60
2, 141961, Control_c, 0, 64, 56
2, 141964, Note_on_c, 0, 68, 0
2, 141981, Control_c, 0, 64, 54
2, 142000, Control_c, 0, 64, 52
2, 142021, Note_on_c, 0, 70, 30
2, 142038, Control_c, 0, 64, 53
2, 142057, Control_c, 0, 64, 55
2, 142076, Control_c, 0, 64, 58
2, 142095, Control_c, 0, 64, 60
2, 142115, Control_c, 0, 64, 61
2, 142134, Control_c, 0, 64, 63
2, 142153, Control_c, 0, 64, 64
2, 142172, Control_c, 0, 64, 65
2, 142186, Note_on_c, 0, 70, 0
2, 142192, Control_c, 0, 64, 66
2, 142211, Control_c, 0, 64, 68
2, 142230, Control_c, 0, 64, 70
2, 142249, Control_c, 0, 64, 72
2, 142261, Note_on_c, 0, 68, 36
2, 142269, Control_c, 0, 64, 74
2, 142287, Control_c, 0, 64, 77
2, 142307, Control_c, 0, 64, 79
2, 142323, Note_on_c, 0, 68, 0
2, 142326, Control_c, 0, 64, 80
2, 142346, Control_c, 0, 64, 82
2, 142364, Control_c, 0, 64, 83
2, 142382, Note_on_c, 0, 70, 41
2, 142403, Control_c, 0, 64, 84
2, 142441, Control_c, 0, 64, 84
2, 142457, Note_on_c, 0, 70, 0
2, 142503, Note_on_c, 0, 68, 36
2, 142552, Note_on_c, 0, 68, 0
2, 142602, Note_on_c, 0, 63, 0
2, 142613, Control_c, 0, 64, 85
2, 142613, Note_on_c, 0, 70, 44
2, 142650, Note_on_c, 0, 70, 0
2, 142686, Note_on_c, 0, 68, 51
2, 142727, Note_on_c, 0, 68, 0
2, 142780, Note_on_c, 0, 59, 0
2, 142790, Note_on_c, 0, 70, 33
2, 142841, Note_on_c, 0, 70, 0
2, 142856, Note_on_c, 0, 68, 49
2, 142890, Note_on_c, 0, 68, 0
2, 142902, Control_c, 0, 64, 84
2, 142928, Note_on_c, 0, 70, 41
2, 142940, Control_c, 0, 64, 84
2, 142977, Control_c, 0, 64, 83
2, 142977, Note_on_c, 0, 70, 0
2, 143007, Note_on_c, 0, 68, 46
2, 143050, Note_on_c, 0, 68, 0
2, 143083, Note_on_c, 0, 70, 48
2, 143093, Control_c, 0, 64, 83
2, 143123, Note_on_c, 0, 70, 0
2, 143131, Control_c, 0, 64, 82
2, 143151, Control_c, 0, 64, 82
2, 143165, Note_on_c, 0, 68, 54
2, 143208, Control_c, 0, 64, 81
2, 143209, Note_on_c, 0, 68, 0
2, 143246, Control_c, 0, 64, 81
2, 143250, Note_on_c, 0, 70, 50
2, 143285, Control_c, 0, 64, 80
2, 143305, Control_c, 0, 64, 80
2, 143306, Note_on_c, 0, 70, 0
2, 143323, Control_c, 0, 64, 79
2, 143336, Note_on_c, 0, 68, 46
2, 143343, Control_c, 0, 64, 78
2, 143362, Control_c, 0, 64, 78
2, 143376, Note_on_c, 0, 68, 0
2, 143382, Control_c, 0, 64, 77
2, 143400, Control_c, 0, 64, 77
2, 143413, Note_on_c, 0, 70, 27
2, 143420, Control_c, 0, 64, 76
2, 143441, Control_c, 0, 64, 75
2, 143461, Control_c, 0, 64, 74
2, 143471, Note_on_c, 0, 70, 0
2, 143480, Control_c, 0, 64, 74
2, 143500, Control_c, 0, 64, 72
2, 143508, Note_on_c, 0, 68, 38
2, 143518, Control_c, 0, 64, 70
2, 143522, Note_on_c, 0, 63, 26
2, 143537, Control_c, 0, 64, 68
2, 143546, Note_on_c, 0, 68, 0
2, 143550, Note_on_c, 0, 59, 37
2, 143557, Control_c, 0, 64, 65
2, 143576, Control_c, 0, 64, 63
2, 143577, Note_on_c, 0, 70, 40
2, 143595, Control_c, 0, 64, 60
2, 143614, Control_c, 0, 64, 57
2, 143626, Note_on_c, 0, 70, 0
2, 143634, Control_c, 0, 64, 51
2, 143652, Control_c, 0, 64, 43
2, 143671, Note_on_c, 0, 68, 37
2, 143672, Control_c, 0, 64, 32
2, 143691, Control_c, 0, 64, 19
2, 143711, Control_c, 0, 64, 15
2, 143712, Note_on_c, 0, 68, 0
2, 143749, Control_c, 0, 64, 22
2, 143750, Note_on_c, 0, 70, 28
2, 143768, Control_c, 0, 64, 31
2, 143787, Control_c, 0, 64, 40
2, 143802, Note_on_c, 0, 70, 0
2, 143806, Control_c, 0, 64, 49
2, 143823, Note_on_c, 0, 68, 37
2, 143826, Control_c, 0, 64, 55
2, 143845, Control_c, 0, 64, 59
2, 143864, Control_c, 0, 64, 61
2, 143866, Note_on_c, 0, 68, 0
2, 143883, Control_c, 0, 64, 62
2, 143902, Note_on_c, 0, 70, 22
2, 143903, Control_c, 0, 64, 63
2, 143921, Control_c, 0, 64, 64
2, 143941, Control_c, 0, 64, 65
2, 143960, Control_c, 0, 64, 65
2, 143962, Note_on_c, 0, 70, 0
2, 143980, Control_c, 0, 64, 66
2, 143998, Control_c, 0, 64, 66
2, 144002, Note_on_c, 0, 68, 25
2, 144017, Control_c, 0, 64, 67
2, 144037, Control_c, 0, 64, 68
2, 144055, Note_on_c, 0, 68, 0
2, 144056, Control_c, 0, 64, 69
2, 144064, Note_on_c, 0, 70, 27
2, 144075, Control_c, 0, 64, 70
2, 144094, Control_c, 0, 64, 72
2, 144114, Control_c, 0, 64, 73
2, 144123, Note_on_c, 0, 70, 0
2, 144147, Note_on_c, 0, 68, 25
2, 144171, Control_c, 0, 64, 73
2, 144194, Note_on_c, 0, 68, 0
2, 144214, Note_on_c, 0, 70, 38
2, 144229, Control_c, 0, 64, 74
2, 144267, Control_c, 0, 64, 74
2, 144278, Note_on_c, 0, 70, 0
2, 144328, Note_on_c, 0, 68, 34
2, 144346, Note_on_c, 0, 59, 0
2, 144346, Note_on_c, 0, 63, 0
2, 144373, Note_on_c, 0, 68, 0
2, 144388, Control_c, 0, 64, 75
2, 144476, Control_c, 0, 64, 75
2, 144686, Note_on_c, 0, 75, 0
2, 144726, Control_c, 0, 64, 75
2, 144750, Note_on_c, 0, 67, 40
2, 144822, Control_c, 0, 64, 74
2, 144847, Note_on_c, 0, 67, 0
2, 144883, Note_on_c, 0, 68, 35
2, 144918, Control_c, 0, 64, 74
2, 144975, Control_c, 0, 64, 73
2, 144995, Control_c, 0, 64, 73
2, 145014, Control_c, 0, 64, 72
2, 145040, Note_on_c, 0, 55, 15
2, 145052, Control_c, 0, 64, 71
2, 145072, Control_c, 0, 64, 71
2, 145091, Control_c, 0, 64, 70
2, 145109, Note_on_c, 0, 58, 8
2, 145110, Control_c, 0, 64, 68
2, 145129, Control_c, 0, 64, 67
2, 145145, Note_on_c, 0, 63, 30
2, 145149, Control_c, 0, 64, 65
2, 145162, Note_on_c, 0, 70, 38
2, 145167, Control_c, 0, 64, 63
2, 145176, Note_on_c, 0, 68, 0
2, 145187, Control_c, 0, 64, 61
2, 145206, Control_c, 0, 64, 58
2, 145226, Control_c, 0, 64, 52
2, 145244, Control_c, 0, 64, 43
2, 145264, Control_c, 0, 64, 32
2, 145283, Control_c, 0, 64, 21
2, 145302, Control_c, 0, 64, 17
2, 145378, Control_c, 0, 64, 21
2, 145398, Control_c, 0, 64, 30
2, 145417, Control_c, 0, 64, 38
2, 145436, Control_c, 0, 64, 46
2, 145436, Control_c, 0, 67, 127
2, 145455, Control_c, 0, 64, 52
2, 145455, Control_c, 0, 67, 125
2, 145475, Control_c, 0, 64, 55
2, 145475, Control_c, 0, 67, 124
2, 145494, Control_c, 0, 64, 58
2, 145494, Control_c, 0, 67, 123
2, 145513, Control_c, 0, 64, 60
2, 145513, Control_c, 0, 67, 123
2, 145532, Control_c, 0, 64, 61
2, 145552, Control_c, 0, 64, 63
2, 145552, Control_c, 0, 67, 122
2, 145571, Control_c, 0, 64, 63
2, 145571, Control_c, 0, 67, 122
2, 145590, Control_c, 0, 64, 64
2, 145590, Control_c, 0, 67, 121
2, 145609, Control_c, 0, 64, 65
2, 145609, Control_c, 0, 67, 120
2, 145629, Control_c, 0, 64, 66
2, 145629, Control_c, 0, 67, 118
2, 145647, Control_c, 0, 64, 66
2, 145647, Control_c, 0, 67, 117
2, 145667, Control_c, 0, 64, 67
2, 145667, Control_c, 0, 67, 116
2, 145686, Control_c, 0, 64, 68
2, 145686, Control_c, 0, 67, 115
2, 145706, Control_c, 0, 64, 69
2, 145706, Control_c, 0, 67, 114
2, 145724, Control_c, 0, 64, 70
2, 145724, Control_c, 0, 67, 113
2, 145744, Control_c, 0, 64, 71
2, 145744, Control_c, 0, 67, 113
2, 145763, Control_c, 0, 64, 73
2, 145763, Control_c, 0, 67, 111
2, 145782, Control_c, 0, 64, 74
2, 145782, Control_c, 0, 67, 108
2, 145801, Control_c, 0, 64, 75
2, 145801, Control_c, 0, 67, 104
2, 145821, Control_c, 0, 67, 101
2, 145840, Control_c, 0, 67, 96
2, 145858, Control_c, 0, 67, 91
2, 145878, Control_c, 0, 64, 75
2, 145878, Control_c, 0, 67, 85
2, 145897, Control_c, 0, 67, 78
2, 145916, Control_c, 0, 64, 76
2, 145916, Control_c, 0, 67, 71
2, 145927, Note_on_c, 0, 55, 0
2, 145935, Control_c, 0, 67, 64
2, 145955, Control_c, 0, 67, 58
2, 145974, Control_c, 0, 67, 53
2, 145993, Control_c, 0, 67, 49
2, 146007, Note_on_c, 0, 63, 0
2, 146012, Control_c, 0, 67, 46
2, 146028, Note_on_c, 0, 58, 0
2, 146032, Control_c, 0, 67, 44
2, 146051, Control_c, 0, 67, 41
2, 146070, Control_c, 0, 67, 38
2, 146089, Control_c, 0, 67, 34
2, 146109, Control_c, 0, 67, 29
2, 146127, Control_c, 0, 67, 25
2, 146147, Control_c, 0, 67, 22
2, 146166, Control_c, 0, 67, 18
2, 146186, Control_c, 0, 67, 15
2, 146204, Control_c, 0, 67, 12
2, 146224, Control_c, 0, 67, 8
2, 146243, Control_c, 0, 67, 0
2, 146454, Control_c, 0, 64, 75
2, 146569, Control_c, 0, 64, 75
2, 146607, Control_c, 0, 64, 74
2, 146627, Control_c, 0, 64, 74
2, 146646, Control_c, 0, 64, 73
2, 146666, Control_c, 0, 64, 73
2, 146684, Control_c, 0, 64, 72
2, 146704, Control_c, 0, 64, 70
2, 146709, Note_on_c, 0, 55, 10
2, 146723, Control_c, 0, 64, 68
2, 146742, Control_c, 0, 64, 65
2, 146753, Note_on_c, 0, 58, 25
2, 146761, Control_c, 0, 64, 62
2, 146781, Control_c, 0, 64, 58
2, 146800, Control_c, 0, 64, 54
2, 146810, Note_on_c, 0, 63, 31
2, 146818, Control_c, 0, 64, 51
2, 146838, Control_c, 0, 64, 48
2, 146857, Control_c, 0, 64, 47
2, 146895, Control_c, 0, 64, 47
2, 146915, Control_c, 0, 64, 50
2, 146934, Control_c, 0, 64, 53
2, 146953, Control_c, 0, 64, 55
2, 146972, Control_c, 0, 64, 57
2, 146992, Control_c, 0, 64, 59
2, 147011, Control_c, 0, 64, 60
2, 147030, Control_c, 0, 64, 62
2, 147049, Control_c, 0, 64, 63
2, 147069, Control_c, 0, 64, 63
2, 147087, Control_c, 0, 64, 64
2, 147107, Control_c, 0, 64, 65
2, 147126, Control_c, 0, 64, 66
2, 147146, Control_c, 0, 64, 67
2, 147164, Control_c, 0, 64, 68
2, 147184, Control_c, 0, 64, 70
2, 147203, Control_c, 0, 64, 71
2, 147222, Control_c, 0, 64, 72
2, 147241, Control_c, 0, 64, 73
2, 147261, Control_c, 0, 64, 73
2, 147281, Control_c, 0, 64, 74
2, 147300, Control_c, 0, 64, 75
2, 147319, Control_c, 0, 64, 76
2, 147338, Control_c, 0, 64, 77
2, 147356, Control_c, 0, 64, 77
2, 147375, Control_c, 0, 64, 78
2, 147415, Note_on_c, 0, 55, 0
2, 147452, Control_c, 0, 64, 78
2, 147514, Note_on_c, 0, 58, 0
2, 147836, Control_c, 0, 64, 78
2, 147851, Note_on_c, 0, 63, 0
2, 147891, Note_on_c, 0, 70, 0
2, 147912, Note_on_c, 0, 75, 46
2, 147932, Control_c, 0, 64, 77
2, 147990, Control_c, 0, 64, 77
2, 148009, Control_c, 0, 64, 76
2, 148029, Control_c, 0, 64, 76
2, 148047, Control_c, 0, 64, 75
2, 148067, Control_c, 0, 64, 75
2, 148086, Control_c, 0, 64, 74
2, 148093, Note_on_c, 0, 73, 51
2, 148106, Control_c, 0, 64, 74
2, 148122, Note_on_c, 0, 75, 0
2, 148124, Control_c, 0, 64, 73
2, 148182, Control_c, 0, 64, 73
2, 148201, Control_c, 0, 64, 72
2, 148221, Control_c, 0, 64, 72
2, 148237, Control_c, 0, 64, 71
2, 148237, Note_on_c, 0, 73, 0
2, 148256, Control_c, 0, 64, 70
2, 148261, Note_on_c, 0, 71, 56
2, 148275, Control_c, 0, 64, 69
2, 148311, Control_c, 0, 64, 69
2, 148330, Control_c, 0, 64, 68
2, 148346, Note_on_c, 0, 55, 18
2, 148349, Control_c, 0, 64, 67
2, 148368, Control_c, 0, 64, 66
2, 148388, Control_c, 0, 64, 65
2, 148406, Control_c, 0, 64, 64
2, 148426, Control_c, 0, 64, 64
2, 148436, Note_on_c, 0, 58, 17
2, 148445, Control_c, 0, 64, 63
2, 148465, Control_c, 0, 64, 60
2, 148469, Note_on_c, 0, 71, 0
2, 148476, Note_on_c, 0, 73, 56
2, 148483, Control_c, 0, 64, 57
2, 148503, Control_c, 0, 64, 52
2, 148506, Note_on_c, 0, 63, 34
2, 148522, Control_c, 0, 64, 47
2, 148542, Control_c, 0, 64, 43
2, 148560, Control_c, 0, 64, 40
2, 148579, Control_c, 0, 64, 36
2, 148599, Control_c, 0, 64, 32
2, 148617, Control_c, 0, 64, 29
2, 148637, Control_c, 0, 64, 27
2, 148676, Control_c, 0, 64, 28
2, 148694, Control_c, 0, 64, 35
2, 148714, Control_c, 0, 64, 42
2, 148733, Control_c, 0, 64, 51
2, 148752, Control_c, 0, 64, 57
2, 148771, Control_c, 0, 64, 61
2, 148791, Control_c, 0, 64, 62
2, 148810, Control_c, 0, 64, 63
2, 148829, Control_c, 0, 64, 64
2, 148848, Control_c, 0, 64, 65
2, 148868, Control_c, 0, 64, 66
2, 148886, Control_c, 0, 64, 67
2, 148906, Control_c, 0, 64, 67
2, 148925, Control_c, 0, 64, 68
2, 148945, Control_c, 0, 64, 69
2, 148963, Control_c, 0, 64, 70
2, 148983, Control_c, 0, 64, 72
2, 148985, Note_on_c, 0, 58, 0
2, 149002, Control_c, 0, 64, 73
2, 149022, Control_c, 0, 64, 75
2, 149031, Note_on_c, 0, 55, 0
2, 149034, Note_on_c, 0, 63, 0
2, 149040, Control_c, 0, 64, 76
2, 149059, Control_c, 0, 64, 78
2, 149079, Control_c, 0, 64, 78
2, 149117, Control_c, 0, 64, 79
2, 149156, Control_c, 0, 64, 79
2, 149174, Control_c, 0, 64, 80
2, 149200, Control_c, 0, 64, 81
2, 149218, Control_c, 0, 64, 81
2, 149257, Control_c, 0, 64, 82
2, 149293, Control_c, 0, 64, 82
2, 149332, Control_c, 0, 64, 83
2, 149352, Control_c, 0, 64, 84
2, 149370, Control_c, 0, 64, 85
2, 149390, Control_c, 0, 64, 85
2, 149447, Control_c, 0, 64, 86
2, 149486, Control_c, 0, 64, 86
2, 149696, Control_c, 0, 64, 86
2, 149716, Control_c, 0, 64, 85
2, 149755, Control_c, 0, 64, 85
2, 149789, Note_on_c, 0, 70, 39
2, 149793, Control_c, 0, 64, 84
2, 149850, Control_c, 0, 64, 84
2, 149870, Control_c, 0, 64, 83
2, 149889, Control_c, 0, 64, 83
2, 149908, Control_c, 0, 64, 82
2, 149927, Control_c, 0, 64, 81
2, 149931, Note_on_c, 0, 56, 28
2, 149947, Control_c, 0, 64, 80
2, 149966, Control_c, 0, 64, 79
2, 149985, Control_c, 0, 64, 78
2, 150004, Control_c, 0, 64, 78
2, 150024, Control_c, 0, 64, 77
2, 150042, Control_c, 0, 64, 76
2, 150062, Control_c, 0, 64, 76
2, 150081, Control_c, 0, 64, 75
2, 150084, Note_on_c, 0, 59, 27
2, 150101, Control_c, 0, 64, 74
2, 150112, Note_on_c, 0, 63, 22
2, 150119, Control_c, 0, 64, 73
2, 150138, Control_c, 0, 64, 73
2, 150160, Control_c, 0, 64, 71
2, 150174, Note_on_c, 0, 70, 0
2, 150178, Control_c, 0, 64, 70
2, 150188, Note_on_c, 0, 68, 30
2, 150198, Control_c, 0, 64, 68
2, 150217, Control_c, 0, 64, 66
2, 150236, Control_c, 0, 64, 64
2, 150246, Note_on_c, 0, 73, 0
2, 150254, Control_c, 0, 64, 63
2, 150274, Control_c, 0, 64, 61
2, 150288, Note_on_c, 0, 71, 42
2, 150293, Control_c, 0, 64, 59
2, 150312, Control_c, 0, 64, 54
2, 150331, Control_c, 0, 64, 49
2, 150351, Control_c, 0, 64, 42
2, 150370, Control_c, 0, 64, 38
2, 150389, Control_c, 0, 64, 36
2, 150408, Control_c, 0, 64, 34
2, 150428, Control_c, 0, 64, 32
2, 150485, Control_c, 0, 64, 34
2, 150505, Control_c, 0, 64, 38
2, 150523, Control_c, 0, 64, 44
2, 150543, Control_c, 0, 64, 51
2, 150562, Control_c, 0, 64, 55
2, 150582, Control_c, 0, 64, 58
2, 150600, Control_c, 0, 64, 60
2, 150619, Control_c, 0, 64, 61
2, 150639, Control_c, 0, 64, 62
2, 150657, Control_c, 0, 64, 63
2, 150677, Control_c, 0, 64, 63
2, 150696, Control_c, 0, 64, 64
2, 150734, Control_c, 0, 64, 64
2, 150773, Control_c, 0, 64, 65
2, 150792, Control_c, 0, 64, 65
2, 150811, Control_c, 0, 64, 66
2, 150831, Control_c, 0, 64, 66
2, 150850, Control_c, 0, 64, 67
2, 150869, Control_c, 0, 64, 68
2, 150888, Control_c, 0, 64, 69
2, 150908, Control_c, 0, 64, 70
2, 150926, Control_c, 0, 64, 71
2, 150946, Control_c, 0, 64, 71
2, 151023, Control_c, 0, 64, 72
2, 151042, Control_c, 0, 64, 72
2, 151062, Control_c, 0, 64, 73
2, 151099, Control_c, 0, 64, 74
2, 151137, Control_c, 0, 64, 74
2, 151196, Control_c, 0, 64, 75
2, 151234, Control_c, 0, 64, 75
2, 151253, Control_c, 0, 64, 76
2, 151272, Control_c, 0, 64, 76
2, 151483, Control_c, 0, 64, 76
2, 151560, Control_c, 0, 64, 75
2, 151579, Control_c, 0, 64, 75
2, 151656, Control_c, 0, 64, 74
2, 151694, Control_c, 0, 64, 74
2, 151733, Control_c, 0, 64, 73
2, 151752, Control_c, 0, 64, 73
2, 151791, Control_c, 0, 64, 72
2, 151810, Control_c, 0, 64, 72
2, 151829, Control_c, 0, 64, 71
2, 151848, Control_c, 0, 64, 71
2, 151866, Note_on_c, 0, 52, 31
2, 151868, Control_c, 0, 64, 70
2, 151886, Control_c, 0, 64, 69
2, 151906, Control_c, 0, 64, 67
2, 151925, Control_c, 0, 64, 65
2, 151945, Control_c, 0, 64, 63
2, 151963, Control_c, 0, 64, 60
2, 151972, Note_on_c, 0, 63, 0
2, 151983, Control_c, 0, 64, 55
2, 152002, Control_c, 0, 64, 47
2, 152022, Control_c, 0, 64, 40
2, 152040, Control_c, 0, 64, 34
2, 152059, Control_c, 0, 64, 31
2, 152098, Control_c, 0, 64, 34
2, 152118, Control_c, 0, 64, 42
2, 152137, Control_c, 0, 64, 51
2, 152156, Control_c, 0, 64, 58
2, 152174, Control_c, 0, 64, 61
2, 152194, Control_c, 0, 64, 63
2, 152213, Control_c, 0, 64, 64
2, 152232, Control_c, 0, 64, 65
2, 152251, Control_c, 0, 64, 66
2, 152271, Control_c, 0, 64, 68
2, 152290, Control_c, 0, 64, 70
2, 152309, Control_c, 0, 64, 71
2, 152328, Control_c, 0, 64, 73
2, 152348, Control_c, 0, 64, 74
2, 152366, Control_c, 0, 64, 75
2, 152386, Control_c, 0, 64, 76
2, 152405, Control_c, 0, 64, 78
2, 152425, Control_c, 0, 64, 79
2, 152443, Control_c, 0, 64, 80
2, 152463, Control_c, 0, 64, 81
2, 152482, Control_c, 0, 64, 81
2, 152502, Control_c, 0, 64, 82
2, 152520, Control_c, 0, 64, 82
2, 152539, Control_c, 0, 64, 83
2, 152559, Control_c, 0, 64, 84
2, 152577, Control_c, 0, 64, 84
2, 152636, Control_c, 0, 64, 85
2, 152649, Note_on_c, 0, 71, 0
2, 152816, Note_on_c, 0, 59, 0
2, 152875, Note_on_c, 0, 56, 0
2, 152884, Note_on_c, 0, 52, 0
2, 152943, Control_c, 0, 64, 84
2, 152975, Note_on_c, 0, 68, 0
2, 152982, Note_on_c, 0, 63, 36
2, 152984, Note_on_c, 0, 71, 47
2, 153097, Control_c, 0, 64, 84
2, 153114, Note_on_c, 0, 71, 0
2, 153134, Control_c, 0, 64, 83
2, 153150, Note_on_c, 0, 70, 55
2, 153154, Control_c, 0, 64, 83
2, 153211, Control_c, 0, 64, 82
2, 153212, Note_on_c, 0, 61, 37
2, 153231, Control_c, 0, 64, 82
2, 153250, Control_c, 0, 64, 81
2, 153251, Note_on_c, 0, 63, 0
2, 153269, Control_c, 0, 64, 81
2, 153288, Control_c, 0, 64, 80
2, 153291, Note_on_c, 0, 61, 0
2, 153308, Control_c, 0, 64, 80
2, 153322, Note_on_c, 0, 70, 0
2, 153326, Control_c, 0, 64, 79
2, 153337, Note_on_c, 0, 68, 58
2, 153346, Control_c, 0, 64, 78
2, 153359, Note_on_c, 0, 59, 42
2, 153365, Control_c, 0, 64, 78
2, 153385, Control_c, 0, 64, 77
2, 153403, Control_c, 0, 64, 77
2, 153423, Control_c, 0, 64, 76
2, 153442, Control_c, 0, 64, 76
2, 153462, Control_c, 0, 64, 74
2, 153480, Control_c, 0, 64, 73
2, 153499, Control_c, 0, 64, 72
2, 153519, Control_c, 0, 64, 70
2, 153537, Control_c, 0, 64, 68
2, 153545, Note_on_c, 0, 68, 0
2, 153557, Control_c, 0, 64, 66
2, 153570, Note_on_c, 0, 61, 37
2, 153576, Control_c, 0, 64, 64
2, 153576, Note_on_c, 0, 70, 53
2, 153580, Note_on_c, 0, 52, 35
2, 153587, Note_on_c, 0, 59, 0
2, 153596, Control_c, 0, 64, 62
2, 153614, Control_c, 0, 64, 59
2, 153634, Control_c, 0, 64, 56
2, 153653, Control_c, 0, 64, 51
2, 153672, Control_c, 0, 64, 48
2, 153691, Control_c, 0, 64, 46
2, 153711, Control_c, 0, 64, 44
2, 153730, Control_c, 0, 64, 44
2, 153788, Control_c, 0, 64, 45
2, 153806, Control_c, 0, 64, 47
2, 153826, Control_c, 0, 64, 51
2, 153845, Control_c, 0, 64, 54
2, 153865, Control_c, 0, 64, 58
2, 153883, Control_c, 0, 64, 60
2, 153903, Control_c, 0, 64, 62
2, 153922, Control_c, 0, 64, 63
2, 153942, Control_c, 0, 64, 64
2, 153960, Control_c, 0, 64, 65
2, 153979, Control_c, 0, 64, 67
2, 154001, Control_c, 0, 64, 68
2, 154019, Control_c, 0, 64, 70
2, 154039, Control_c, 0, 64, 72
2, 154058, Control_c, 0, 64, 75
2, 154077, Control_c, 0, 64, 76
2, 154095, Control_c, 0, 64, 77
2, 154115, Control_c, 0, 64, 79
2, 154134, Control_c, 0, 64, 81
2, 154153, Control_c, 0, 64, 82
2, 154172, Control_c, 0, 64, 84
2, 154192, Control_c, 0, 64, 86
2, 154211, Control_c, 0, 64, 86
2, 154230, Control_c, 0, 64, 87
2, 154280, Note_on_c, 0, 52, 0
2, 154307, Control_c, 0, 64, 87
2, 154326, Control_c, 0, 64, 88
2, 154652, Control_c, 0, 64, 87
2, 154728, Note_on_c, 0, 61, 0
2, 154729, Control_c, 0, 64, 87
2, 154824, Note_on_c, 0, 67, 34
2, 154831, Note_on_c, 0, 70, 0
2, 154844, Control_c, 0, 64, 86
2, 154856, Note_on_c, 0, 58, 19
2, 154921, Control_c, 0, 64, 86
2, 154958, Control_c, 0, 64, 85
2, 155015, Control_c, 0, 64, 85
2, 155035, Control_c, 0, 64, 84
2, 155073, Control_c, 0, 64, 84
2, 155092, Control_c, 0, 64, 83
2, 155098, Note_on_c, 0, 58, 0
2, 155112, Control_c, 0, 64, 83
2, 155120, Note_on_c, 0, 67, 0
2, 155130, Control_c, 0, 64, 82
2, 155150, Control_c, 0, 64, 81
2, 155169, Control_c, 0, 64, 81
2, 155188, Control_c, 0, 64, 80
2, 155207, Control_c, 0, 64, 79
2, 155219, Note_on_c, 0, 53, 29
2, 155227, Control_c, 0, 64, 79
2, 155246, Control_c, 0, 64, 78
2, 155265, Control_c, 0, 64, 78
2, 155284, Control_c, 0, 64, 77
2, 155304, Control_c, 0, 64, 76
2, 155307, Note_on_c, 0, 59, 18
2, 155322, Control_c, 0, 64, 76
2, 155342, Control_c, 0, 64, 75
2, 155361, Control_c, 0, 64, 73
2, 155380, Control_c, 0, 64, 71
2, 155382, Note_on_c, 0, 62, 11
2, 155397, Note_on_c, 0, 68, 38
2, 155399, Control_c, 0, 64, 68
2, 155418, Control_c, 0, 64, 65
2, 155438, Control_c, 0, 64, 62
2, 155456, Control_c, 0, 64, 59
2, 155476, Control_c, 0, 64, 55
2, 155495, Control_c, 0, 64, 50
2, 155515, Control_c, 0, 64, 46
2, 155533, Control_c, 0, 64, 44
2, 155572, Control_c, 0, 64, 45
2, 155592, Control_c, 0, 64, 46
2, 155610, Control_c, 0, 64, 50
2, 155630, Control_c, 0, 64, 53
2, 155649, Control_c, 0, 64, 57
2, 155668, Control_c, 0, 64, 59
2, 155687, Control_c, 0, 64, 61
2, 155707, Control_c, 0, 64, 62
2, 155726, Control_c, 0, 64, 63
2, 155745, Control_c, 0, 64, 64
2, 155764, Control_c, 0, 64, 65
2, 155784, Control_c, 0, 64, 67
2, 155802, Control_c, 0, 64, 69
2, 155822, Control_c, 0, 64, 70
2, 155841, Control_c, 0, 64, 73
2, 155860, Control_c, 0, 64, 74
2, 155879, Control_c, 0, 64, 75
2, 155898, Control_c, 0, 64, 76
2, 155921, Control_c, 0, 64, 77
2, 155937, Note_on_c, 0, 68, 0
2, 155939, Control_c, 0, 64, 78
2, 155940, Note_on_c, 0, 59, 0
2, 155959, Control_c, 0, 64, 79
2, 155978, Control_c, 0, 64, 80
2, 156013, Control_c, 0, 64, 80
2, 156055, Note_on_c, 0, 62, 0
2, 156072, Control_c, 0, 64, 81
2, 156090, Control_c, 0, 64, 81
2, 156244, Control_c, 0, 64, 82
2, 156378, Control_c, 0, 64, 81
2, 156455, Control_c, 0, 64, 81
2, 156532, Control_c, 0, 64, 80
2, 156628, Control_c, 0, 64, 80
2, 156667, Control_c, 0, 64, 79
2, 156686, Control_c, 0, 64, 79
2, 156705, Control_c, 0, 64, 78
2, 156744, Control_c, 0, 64, 78
2, 156782, Control_c, 0, 64, 77
2, 156801, Control_c, 0, 64, 77
2, 156819, Note_on_c, 0, 59, 28
2, 156839, Control_c, 0, 64, 76
2, 156858, Control_c, 0, 64, 76
2, 156878, Control_c, 0, 64, 75
2, 156896, Control_c, 0, 64, 74
2, 156916, Control_c, 0, 64, 74
2, 156917, Note_on_c, 0, 62, 25
2, 156935, Control_c, 0, 64, 72
2, 156955, Control_c, 0, 64, 70
2, 156973, Control_c, 0, 64, 66
2, 156993, Control_c, 0, 64, 63
2, 157012, Control_c, 0, 64, 59
2, 157017, Note_on_c, 0, 68, 34
2, 157032, Control_c, 0, 64, 55
2, 157050, Control_c, 0, 64, 53
2, 157070, Control_c, 0, 64, 52
2, 157127, Control_c, 0, 64, 53
2, 157147, Control_c, 0, 64, 55
2, 157166, Control_c, 0, 64, 58
2, 157185, Control_c, 0, 64, 61
2, 157204, Control_c, 0, 64, 63
2, 157224, Control_c, 0, 64, 64
2, 157242, Control_c, 0, 64, 65
2, 157262, Control_c, 0, 64, 66
2, 157281, Control_c, 0, 64, 68
2, 157300, Control_c, 0, 64, 69
2, 157319, Control_c, 0, 64, 71
2, 157338, Control_c, 0, 64, 73
2, 157358, Control_c, 0, 64, 74
2, 157376, Control_c, 0, 64, 76
2, 157396, Control_c, 0, 64, 77
2, 157415, Control_c, 0, 64, 78
2, 157420, Note_on_c, 0, 53, 0
2, 157435, Control_c, 0, 64, 78
2, 157453, Control_c, 0, 64, 79
2, 157492, Control_c, 0, 64, 80
2, 157512, Control_c, 0, 64, 81
2, 157519, Note_on_c, 0, 68, 0
2, 157530, Control_c, 0, 64, 82
2, 157627, Control_c, 0, 64, 82
2, 157665, Control_c, 0, 64, 83
2, 157799, Control_c, 0, 64, 82
2, 157838, Note_on_c, 0, 59, 0
2, 157897, Control_c, 0, 64, 82
2, 157949, Note_on_c, 0, 62, 0
2, 157973, Control_c, 0, 64, 81
2, 158031, Control_c, 0, 64, 81
2, 158050, Control_c, 0, 64, 80
2, 158069, Control_c, 0, 64, 79
2, 158088, Control_c, 0, 64, 79
2, 158108, Control_c, 0, 64, 78
2, 158126, Control_c, 0, 64, 78
2, 158157, Note_on_c, 0, 54, 29
2, 158165, Control_c, 0, 64, 77
2, 158185, Control_c, 0, 64, 77
2, 158203, Control_c, 0, 64, 76
2, 158223, Control_c, 0, 64, 75
2, 158242, Control_c, 0, 64, 75
2, 158261, Control_c, 0, 64, 74
2, 158280, Control_c, 0, 64, 74
2, 158299, Control_c, 0, 64, 73
2, 158319, Control_c, 0, 64, 72
2, 158337, Control_c, 0, 64, 72
2, 158339, Note_on_c, 0, 53, 38
2, 158357, Control_c, 0, 64, 71
2, 158358, Note_on_c, 0, 54, 0
2, 158376, Control_c, 0, 64, 70
2, 158396, Control_c, 0, 64, 70
2, 158414, Control_c, 0, 64, 69
2, 158434, Control_c, 0, 64, 69
2, 158451, Note_on_c, 0, 53, 0
2, 158453, Control_c, 0, 64, 68
2, 158472, Control_c, 0, 64, 67
2, 158491, Control_c, 0, 64, 67
2, 158496, Note_on_c, 0, 51, 40
2, 158511, Control_c, 0, 64, 66
2, 158549, Control_c, 0, 64, 66
2, 158568, Control_c, 0, 64, 65
2, 158588, Control_c, 0, 64, 65
2, 158606, Control_c, 0, 64, 64
2, 158645, Control_c, 0, 64, 64
2, 158658, Note_on_c, 0, 62, 22
2, 158665, Control_c, 0, 64, 63
2, 158683, Control_c, 0, 64, 63
2, 158703, Control_c, 0, 64, 62
2, 158712, Note_on_c, 0, 51, 0
2, 158722, Control_c, 0, 64, 61
2, 158731, Note_on_c, 0, 53, 43
2, 158736, Note_on_c, 0, 68, 38
2, 158741, Control_c, 0, 64, 60
2, 158760, Control_c, 0, 64, 59
2, 158779, Control_c, 0, 64, 57
2, 158799, Control_c, 0, 64, 56
2, 158817, Control_c, 0, 64, 55
2, 158837, Control_c, 0, 64, 55
2, 158856, Control_c, 0, 64, 54
2, 158876, Control_c, 0, 64, 54
2, 159125, Control_c, 0, 64, 54
2, 159221, Control_c, 0, 64, 55
2, 159279, Control_c, 0, 64, 55
2, 159308, Note_on_c, 0, 53, 0
2, 159317, Control_c, 0, 64, 56
2, 159321, Note_on_c, 0, 54, 45
2, 159451, Control_c, 0, 64, 55
2, 159490, Control_c, 0, 64, 55
2, 159528, Control_c, 0, 64, 54
2, 159548, Control_c, 0, 64, 54
2, 159559, Note_on_c, 0, 56, 42
2, 159566, Control_c, 0, 64, 53
2, 159568, Note_on_c, 0, 54, 0
2, 159586, Control_c, 0, 64, 53
2, 159625, Control_c, 0, 64, 52
2, 159731, Note_on_c, 0, 53, 41
2, 159731, Note_on_c, 0, 56, 0
2, 159759, Control_c, 0, 64, 53
2, 159777, Control_c, 0, 64, 55
2, 159788, Note_on_c, 0, 68, 0
2, 159797, Control_c, 0, 64, 57
2, 159816, Control_c, 0, 64, 60
2, 159836, Control_c, 0, 64, 62
2, 159851, Note_on_c, 0, 53, 0
2, 159854, Control_c, 0, 64, 63
2, 159874, Control_c, 0, 64, 63
2, 159893, Control_c, 0, 64, 64
2, 159900, Note_on_c, 0, 54, 41
2, 159912, Control_c, 0, 64, 65
2, 159931, Control_c, 0, 64, 66
2, 159949, Note_on_c, 0, 62, 0
2, 159951, Control_c, 0, 64, 66
2, 159970, Control_c, 0, 64, 67
2, 159989, Control_c, 0, 64, 67
2, 160008, Control_c, 0, 64, 68
2, 160009, Note_on_c, 0, 54, 0
2, 160028, Control_c, 0, 64, 68
2, 160070, Note_on_c, 0, 56, 39
2, 160085, Control_c, 0, 64, 69
2, 160105, Control_c, 0, 64, 69
2, 160123, Control_c, 0, 64, 70
2, 160143, Control_c, 0, 64, 70
2, 160220, Note_on_c, 0, 59, 22
2, 160239, Control_c, 0, 64, 70
2, 160277, Control_c, 0, 64, 69
2, 160277, Note_on_c, 0, 65, 30
2, 160296, Control_c, 0, 64, 66
2, 160301, Note_on_c, 0, 50, 35
2, 160312, Note_on_c, 0, 56, 0
2, 160316, Control_c, 0, 64, 63
2, 160334, Control_c, 0, 64, 60
2, 160349, Note_on_c, 0, 68, 38
2, 160354, Control_c, 0, 64, 57
2, 160373, Control_c, 0, 64, 54
2, 160392, Control_c, 0, 64, 51
2, 160411, Control_c, 0, 64, 50
2, 160450, Control_c, 0, 64, 51
2, 160469, Control_c, 0, 64, 54
2, 160488, Control_c, 0, 64, 58
2, 160508, Control_c, 0, 64, 61
2, 160526, Control_c, 0, 64, 63
2, 160546, Control_c, 0, 64, 64
2, 160565, Control_c, 0, 64, 65
2, 160585, Control_c, 0, 64, 66
2, 160603, Control_c, 0, 64, 68
2, 160623, Control_c, 0, 64, 69
2, 160642, Control_c, 0, 64, 70
2, 160661, Control_c, 0, 64, 72
2, 160680, Control_c, 0, 64, 73
2, 160699, Control_c, 0, 64, 74
2, 160719, Control_c, 0, 64, 76
2, 160737, Control_c, 0, 64, 77
2, 160757, Control_c, 0, 64, 78
2, 160776, Control_c, 0, 64, 79
2, 160796, Control_c, 0, 64, 79
2, 160814, Control_c, 0, 64, 80
2, 160853, Control_c, 0, 64, 80
2, 160872, Control_c, 0, 64, 81
2, 160891, Control_c, 0, 64, 81
2, 160911, Control_c, 0, 64, 82
2, 160919, Note_on_c, 0, 68, 0
2, 160930, Control_c, 0, 64, 82
2, 160949, Control_c, 0, 64, 83
2, 161031, Note_on_c, 0, 59, 0
2, 161045, Control_c, 0, 64, 83
2, 161052, Note_on_c, 0, 65, 0
2, 161065, Control_c, 0, 64, 84
2, 161103, Control_c, 0, 64, 85
2, 161122, Control_c, 0, 64, 86
2, 161141, Control_c, 0, 64, 86
2, 161160, Control_c, 0, 64, 87
2, 161217, Control_c, 0, 64, 87
2, 161391, Control_c, 0, 64, 87
2, 161448, Control_c, 0, 64, 86
2, 161486, Control_c, 0, 64, 86
2, 161506, Control_c, 0, 64, 85
2, 161525, Control_c, 0, 64, 85
2, 161545, Control_c, 0, 64, 84
2, 161563, Control_c, 0, 64, 84
2, 161583, Control_c, 0, 64, 83
2, 161602, Control_c, 0, 64, 83
2, 161621, Control_c, 0, 64, 82
2, 161640, Control_c, 0, 64, 81
2, 161659, Control_c, 0, 64, 81
2, 161679, Control_c, 0, 64, 80
2, 161697, Control_c, 0, 64, 79
2, 161717, Control_c, 0, 64, 78
2, 161736, Control_c, 0, 64, 77
2, 161747, Note_on_c, 0, 59, 23
2, 161756, Control_c, 0, 64, 77
2, 161774, Control_c, 0, 64, 76
2, 161794, Control_c, 0, 64, 75
2, 161813, Control_c, 0, 64, 74
2, 161821, Note_on_c, 0, 65, 25
2, 161832, Control_c, 0, 64, 73
2, 161851, Control_c, 0, 64, 71
2, 161871, Control_c, 0, 64, 68
2, 161890, Control_c, 0, 64, 65
2, 161909, Control_c, 0, 64, 63
2, 161922, Note_on_c, 0, 68, 34
2, 161928, Control_c, 0, 64, 59
2, 161948, Control_c, 0, 64, 54
2, 161966, Control_c, 0, 64, 51
2, 161986, Control_c, 0, 64, 48
2, 162005, Control_c, 0, 64, 48
2, 162043, Control_c, 0, 64, 49
2, 162063, Control_c, 0, 64, 53
2, 162082, Control_c, 0, 64, 57
2, 162101, Control_c, 0, 64, 61
2, 162120, Control_c, 0, 64, 63
2, 162139, Control_c, 0, 64, 65
2, 162159, Control_c, 0, 64, 66
2, 162177, Control_c, 0, 64, 67
2, 162197, Control_c, 0, 64, 68
2, 162216, Control_c, 0, 64, 70
2, 162236, Control_c, 0, 64, 72
2, 162254, Control_c, 0, 64, 73
2, 162274, Control_c, 0, 64, 75
2, 162293, Control_c, 0, 64, 77
2, 162312, Control_c, 0, 64, 78
2, 162331, Control_c, 0, 64, 79
2, 162351, Control_c, 0, 64, 80
2, 162370, Control_c, 0, 64, 80
2, 162389, Control_c, 0, 64, 81
2, 162408, Control_c, 0, 64, 82
2, 162409, Note_on_c, 0, 50, 0
2, 162428, Control_c, 0, 64, 83
2, 162446, Control_c, 0, 64, 83
2, 162485, Control_c, 0, 64, 84
2, 162523, Control_c, 0, 64, 85
2, 162543, Control_c, 0, 64, 86
2, 162562, Control_c, 0, 64, 86
2, 162599, Note_on_c, 0, 68, 0
2, 162831, Control_c, 0, 64, 86
2, 162834, Note_on_c, 0, 59, 0
2, 162836, Note_on_c, 0, 65, 0
2, 162869, Control_c, 0, 64, 85
2, 162908, Control_c, 0, 64, 85
2, 162929, Control_c, 0, 64, 84
2, 162987, Control_c, 0, 64, 84
2, 162995, Note_on_c, 0, 51, 30
2, 163006, Control_c, 0, 64, 83
2, 163025, Control_c, 0, 64, 83
2, 163045, Control_c, 0, 64, 82
2, 163064, Control_c, 0, 64, 81
2, 163083, Control_c, 0, 64, 81
2, 163102, Control_c, 0, 64, 80
2, 163122, Control_c, 0, 64, 79
2, 163140, Control_c, 0, 64, 78
2, 163143, Note_on_c, 0, 51, 0
2, 163160, Control_c, 0, 64, 77
2, 163179, Control_c, 0, 64, 77
2, 163184, Note_on_c, 0, 50, 40
2, 163199, Control_c, 0, 64, 76
2, 163217, Control_c, 0, 64, 75
2, 163237, Control_c, 0, 64, 75
2, 163256, Control_c, 0, 64, 74
2, 163275, Control_c, 0, 64, 73
2, 163294, Control_c, 0, 64, 73
2, 163306, Note_on_c, 0, 50, 0
2, 163313, Control_c, 0, 64, 72
2, 163333, Control_c, 0, 64, 71
2, 163349, Note_on_c, 0, 48, 36
2, 163351, Control_c, 0, 64, 70
2, 163371, Control_c, 0, 64, 69
2, 163390, Control_c, 0, 64, 68
2, 163409, Control_c, 0, 64, 67
2, 163428, Control_c, 0, 64, 66
2, 163448, Control_c, 0, 64, 66
2, 163467, Control_c, 0, 64, 65
2, 163469, Note_on_c, 0, 59, 26
2, 163486, Control_c, 0, 64, 64
2, 163525, Control_c, 0, 64, 64
2, 163531, Note_on_c, 0, 65, 21
2, 163544, Control_c, 0, 64, 63
2, 163563, Control_c, 0, 64, 62
2, 163582, Control_c, 0, 64, 60
2, 163590, Note_on_c, 0, 50, 37
2, 163592, Note_on_c, 0, 68, 45
2, 163600, Note_on_c, 0, 48, 0
2, 163603, Control_c, 0, 64, 58
2, 163621, Control_c, 0, 64, 56
2, 163641, Control_c, 0, 64, 54
2, 163660, Control_c, 0, 64, 51
2, 163679, Control_c, 0, 64, 48
2, 163697, Control_c, 0, 64, 45
2, 163717, Control_c, 0, 64, 42
2, 163736, Control_c, 0, 64, 39
2, 163755, Control_c, 0, 64, 38
2, 163774, Control_c, 0, 64, 37
2, 163793, Control_c, 0, 64, 37
2, 163870, Control_c, 0, 64, 37
2, 163889, Control_c, 0, 64, 38
2, 163908, Control_c, 0, 64, 38
2, 163947, Control_c, 0, 64, 39
2, 163985, Control_c, 0, 64, 39
2, 164120, Note_on_c, 0, 51, 38
2, 164143, Note_on_c, 0, 50, 0
2, 164235, Control_c, 0, 64, 39
2, 164273, Control_c, 0, 64, 38
2, 164293, Control_c, 0, 64, 37
2, 164311, Control_c, 0, 64, 37
2, 164331, Control_c, 0, 64, 36
2, 164369, Control_c, 0, 64, 35
2, 164388, Control_c, 0, 64, 35
2, 164396, Note_on_c, 0, 51, 0
2, 164397, Note_on_c, 0, 53, 40
2, 164485, Control_c, 0, 64, 36
2, 164504, Control_c, 0, 64, 40
2, 164523, Control_c, 0, 64, 47
2, 164542, Control_c, 0, 64, 54
2, 164563, Control_c, 0, 64, 58
2, 164581, Control_c, 0, 64, 61
2, 164599, Note_on_c, 0, 50, 43
2, 164601, Control_c, 0, 64, 63
2, 164620, Control_c, 0, 64, 64
2, 164623, Note_on_c, 0, 53, 0
2, 164630, Note_on_c, 0, 59, 0
2, 164639, Control_c, 0, 64, 65
2, 164644, Note_on_c, 0, 65, 0
2, 164657, Control_c, 0, 64, 66
2, 164677, Control_c, 0, 64, 67
2, 164695, Note_on_c, 0, 68, 0
2, 164696, Control_c, 0, 64, 68
2, 164715, Control_c, 0, 64, 69
2, 164734, Control_c, 0, 64, 70
2, 164750, Note_on_c, 0, 50, 0
2, 164753, Control_c, 0, 64, 71
2, 164773, Control_c, 0, 64, 71
2, 164774, Note_on_c, 0, 51, 44
2, 164791, Control_c, 0, 64, 72
2, 164939, Note_on_c, 0, 51, 0
2, 164945, Control_c, 0, 64, 71
2, 164965, Note_on_c, 0, 53, 41
2, 164984, Control_c, 0, 64, 71
2, 165003, Control_c, 0, 64, 70
2, 165022, Control_c, 0, 64, 70
2, 165042, Control_c, 0, 64, 69
2, 165060, Control_c, 0, 64, 69
2, 165080, Control_c, 0, 64, 68
2, 165091, Note_on_c, 0, 62, 33
2, 165099, Control_c, 0, 64, 66
2, 165119, Control_c, 0, 64, 65
2, 165137, Control_c, 0, 64, 63
2, 165148, Note_on_c, 0, 65, 26
2, 165157, Control_c, 0, 64, 62
2, 165176, Control_c, 0, 64, 60
2, 165190, Note_on_c, 0, 68, 41
2, 165195, Control_c, 0, 64, 58
2, 165195, Note_on_c, 0, 53, 0
2, 165214, Control_c, 0, 64, 54
2, 165215, Note_on_c, 0, 47, 35
2, 165233, Control_c, 0, 64, 50
2, 165253, Control_c, 0, 64, 46
2, 165271, Control_c, 0, 64, 42
2, 165291, Control_c, 0, 64, 40
2, 165310, Control_c, 0, 64, 38
2, 165329, Control_c, 0, 64, 36
2, 165387, Control_c, 0, 64, 37
2, 165406, Control_c, 0, 64, 40
2, 165425, Control_c, 0, 64, 46
2, 165445, Control_c, 0, 64, 51
2, 165464, Control_c, 0, 64, 56
2, 165483, Control_c, 0, 64, 59
2, 165502, Control_c, 0, 64, 61
2, 165522, Control_c, 0, 64, 62
2, 165540, Control_c, 0, 64, 63
2, 165560, Control_c, 0, 64, 64
2, 165579, Control_c, 0, 64, 65
2, 165598, Control_c, 0, 64, 66
2, 165616, Control_c, 0, 64, 67
2, 165636, Control_c, 0, 64, 67
2, 165655, Control_c, 0, 64, 68
2, 165675, Control_c, 0, 64, 69
2, 165693, Control_c, 0, 64, 70
2, 165712, Control_c, 0, 64, 72
2, 165732, Control_c, 0, 64, 73
2, 165750, Control_c, 0, 64, 74
2, 165770, Control_c, 0, 64, 74
2, 165789, Control_c, 0, 64, 75
2, 165809, Control_c, 0, 64, 76
2, 165827, Control_c, 0, 64, 76
2, 165847, Control_c, 0, 64, 77
2, 165866, Control_c, 0, 64, 78
2, 165879, Note_on_c, 0, 62, 0
2, 165885, Control_c, 0, 64, 78
2, 165904, Control_c, 0, 64, 79
2, 165924, Control_c, 0, 64, 80
2, 165943, Control_c, 0, 64, 81
2, 165962, Control_c, 0, 64, 81
2, 165981, Control_c, 0, 64, 82
2, 166001, Control_c, 0, 64, 82
2, 166019, Control_c, 0, 64, 83
2, 166039, Control_c, 0, 64, 84
2, 166058, Control_c, 0, 64, 85
2, 166096, Control_c, 0, 64, 85
2, 166153, Note_on_c, 0, 65, 0
2, 166155, Control_c, 0, 64, 86
2, 166173, Control_c, 0, 64, 87
2, 166192, Control_c, 0, 64, 87
2, 166212, Control_c, 0, 64, 88
2, 166223, Note_on_c, 0, 68, 0
2, 166539, Control_c, 0, 64, 87
2, 166614, Control_c, 0, 64, 87
2, 166623, Note_on_c, 0, 62, 26
2, 166652, Control_c, 0, 64, 86
2, 166671, Control_c, 0, 64, 86
2, 166682, Note_on_c, 0, 65, 31
2, 166691, Control_c, 0, 64, 85
2, 166709, Control_c, 0, 64, 84
2, 166729, Control_c, 0, 64, 82
2, 166748, Control_c, 0, 64, 80
2, 166768, Control_c, 0, 64, 78
2, 166782, Note_on_c, 0, 68, 40
2, 166786, Control_c, 0, 64, 74
2, 166806, Control_c, 0, 64, 71
2, 166825, Control_c, 0, 64, 67
2, 166845, Control_c, 0, 64, 64
2, 166863, Control_c, 0, 64, 63
2, 166883, Control_c, 0, 64, 61
2, 166902, Control_c, 0, 64, 59
2, 166921, Control_c, 0, 64, 57
2, 166940, Control_c, 0, 64, 55
2, 166960, Control_c, 0, 64, 54
2, 166979, Control_c, 0, 64, 53
2, 167017, Control_c, 0, 64, 54
2, 167037, Control_c, 0, 64, 57
2, 167055, Control_c, 0, 64, 60
2, 167074, Control_c, 0, 64, 62
2, 167094, Control_c, 0, 64, 63
2, 167113, Control_c, 0, 64, 64
2, 167132, Control_c, 0, 64, 66
2, 167151, Control_c, 0, 64, 67
2, 167171, Control_c, 0, 64, 69
2, 167189, Control_c, 0, 64, 71
2, 167209, Control_c, 0, 64, 73
2, 167228, Control_c, 0, 64, 74
2, 167248, Control_c, 0, 64, 75
2, 167266, Control_c, 0, 64, 77
2, 167286, Control_c, 0, 64, 78
2, 167305, Control_c, 0, 64, 79
2, 167325, Control_c, 0, 64, 81
2, 167343, Control_c, 0, 64, 82
2, 167363, Control_c, 0, 64, 82
2, 167370, Note_on_c, 0, 47, 0
2, 167382, Control_c, 0, 64, 83
2, 167401, Control_c, 0, 64, 83
2, 167420, Control_c, 0, 64, 85
2, 167440, Control_c, 0, 64, 86
2, 167459, Control_c, 0, 64, 86
2, 167535, Control_c, 0, 64, 87
2, 167574, Control_c, 0, 64, 87
2, 167764, Note_on_c, 0, 49, 46
2, 167843, Control_c, 0, 64, 87
2, 167851, Note_on_c, 0, 62, 0
2, 167920, Control_c, 0, 64, 86
2, 167958, Control_c, 0, 64, 86
2, 167997, Control_c, 0, 64, 85
2, 168004, Note_on_c, 0, 49, 0
2, 168034, Control_c, 0, 64, 85
2, 168037, Note_on_c, 0, 65, 0
2, 168041, Note_on_c, 0, 47, 49
2, 168073, Control_c, 0, 64, 84
2, 168080, Note_on_c, 0, 68, 0
2, 168092, Control_c, 0, 64, 83
2, 168111, Control_c, 0, 64, 83
2, 168131, Control_c, 0, 64, 82
2, 168149, Control_c, 0, 64, 81
2, 168169, Control_c, 0, 64, 80
2, 168188, Control_c, 0, 64, 79
2, 168208, Control_c, 0, 64, 78
2, 168212, Note_on_c, 0, 47, 0
2, 168226, Control_c, 0, 64, 77
2, 168234, Note_on_c, 0, 46, 52
2, 168246, Control_c, 0, 64, 76
2, 168265, Control_c, 0, 64, 76
2, 168285, Control_c, 0, 64, 75
2, 168303, Control_c, 0, 64, 74
2, 168323, Control_c, 0, 64, 73
2, 168342, Control_c, 0, 64, 72
2, 168361, Control_c, 0, 64, 71
2, 168380, Control_c, 0, 64, 70
2, 168402, Control_c, 0, 64, 69
2, 168409, Note_on_c, 0, 62, 40
2, 168420, Control_c, 0, 64, 68
2, 168421, Note_on_c, 0, 65, 46
2, 168422, Note_on_c, 0, 46, 0
2, 168428, Note_on_c, 0, 47, 52
2, 168440, Control_c, 0, 64, 67
2, 168459, Control_c, 0, 64, 67
2, 168479, Control_c, 0, 64, 66
2, 168497, Control_c, 0, 64, 65
2, 168504, Note_on_c, 0, 68, 48
2, 168517, Control_c, 0, 64, 65
2, 168536, Control_c, 0, 64, 64
2, 168554, Control_c, 0, 64, 64
2, 168574, Control_c, 0, 64, 63
2, 168593, Control_c, 0, 64, 63
2, 168613, Control_c, 0, 64, 62
2, 168623, Note_on_c, 0, 46, 59
2, 168631, Control_c, 0, 64, 61
2, 168651, Control_c, 0, 64, 61
2, 168657, Note_on_c, 0, 47, 0
2, 168670, Control_c, 0, 64, 60
2, 168689, Control_c, 0, 64, 59
2, 168728, Control_c, 0, 64, 59
2, 168747, Control_c, 0, 64, 58
2, 168805, Note_on_c, 0, 44, 62
2, 168822, Note_on_c, 0, 46, 0
2, 168824, Control_c, 0, 64, 58
2, 168920, Control_c, 0, 64, 57
2, 168993, Note_on_c, 0, 46, 67
2, 169008, Note_on_c, 0, 44, 0
2, 169016, Control_c, 0, 64, 57
2, 169073, Control_c, 0, 64, 56
2, 169176, Note_on_c, 0, 47, 75
2, 169208, Control_c, 0, 64, 56
2, 169209, Note_on_c, 0, 46, 0
2, 169227, Control_c, 0, 64, 55
2, 169246, Control_c, 0, 64, 55
2, 169285, Control_c, 0, 64, 54
2, 169304, Control_c, 0, 64, 53
2, 169323, Control_c, 0, 64, 52
2, 169342, Control_c, 0, 64, 51
2, 169362, Control_c, 0, 64, 51
2, 169380, Control_c, 0, 64, 50
2, 169392, Note_on_c, 0, 44, 68
2, 169400, Control_c, 0, 64, 50
2, 169419, Control_c, 0, 64, 49
2, 169438, Note_on_c, 0, 47, 0
2, 169439, Control_c, 0, 64, 48
2, 169457, Control_c, 0, 64, 48
2, 169477, Control_c, 0, 64, 47
2, 169496, Control_c, 0, 64, 47
2, 169514, Control_c, 0, 64, 46
2, 169611, Control_c, 0, 64, 47
2, 169628, Note_on_c, 0, 46, 75
2, 169650, Control_c, 0, 64, 47
2, 169668, Control_c, 0, 64, 48
2, 169674, Note_on_c, 0, 44, 0
2, 169688, Control_c, 0, 64, 49
2, 169707, Control_c, 0, 64, 50
2, 169726, Control_c, 0, 64, 52
2, 169745, Control_c, 0, 64, 54
2, 169765, Control_c, 0, 64, 57
2, 169784, Control_c, 0, 64, 59
2, 169787, Note_on_c, 0, 62, 0
2, 169803, Control_c, 0, 64, 61
2, 169822, Control_c, 0, 64, 63
2, 169842, Control_c, 0, 64, 64
2, 169860, Control_c, 0, 64, 65
2, 169880, Control_c, 0, 64, 67
2, 169899, Control_c, 0, 64, 69
2, 169914, Note_on_c, 0, 47, 75
2, 169919, Control_c, 0, 64, 72
2, 169921, Note_on_c, 0, 65, 0
2, 169937, Control_c, 0, 64, 74
2, 169953, Note_on_c, 0, 46, 0
2, 169957, Control_c, 0, 64, 75
2, 169976, Control_c, 0, 64, 75
2, 169989, Note_on_c, 0, 68, 0
2, 169994, Control_c, 0, 64, 76
2, 170014, Control_c, 0, 64, 76
2, 170033, Control_c, 0, 64, 78
2, 170053, Control_c, 0, 64, 79
2, 170071, Control_c, 0, 64, 80
2, 170091, Control_c, 0, 64, 81
2, 170110, Control_c, 0, 64, 81
2, 170187, Control_c, 0, 64, 82
2, 170245, Control_c, 0, 64, 81
2, 170283, Control_c, 0, 64, 81
2, 170302, Control_c, 0, 64, 80
2, 170322, Control_c, 0, 64, 79
2, 170328, Note_on_c, 0, 38, 77
2, 170340, Control_c, 0, 64, 77
2, 170360, Control_c, 0, 64, 75
2, 170378, Note_on_c, 0, 47, 0
2, 170379, Control_c, 0, 64, 73
2, 170399, Control_c, 0, 64, 71
2, 170417, Control_c, 0, 64, 68
2, 170430, Note_on_c, 0, 62, 53
2, 170437, Control_c, 0, 64, 65
2, 170456, Control_c, 0, 64, 63
2, 170474, Control_c, 0, 64, 62
2, 170494, Control_c, 0, 64, 60
2, 170507, Note_on_c, 0, 65, 59
2, 170513, Control_c, 0, 64, 59
2, 170533, Control_c, 0, 64, 58
2, 170551, Control_c, 0, 64, 56
2, 170571, Control_c, 0, 64, 54
2, 170572, Note_on_c, 0, 68, 71
2, 170590, Control_c, 0, 64, 52
2, 170610, Control_c, 0, 64, 49
2, 170628, Control_c, 0, 64, 45
2, 170648, Control_c, 0, 64, 40
2, 170667, Control_c, 0, 64, 32
2, 170680, Note_on_c, 0, 71, 79
2, 170686, Control_c, 0, 64, 18
2, 170705, Control_c, 0, 64, 0
2, 170840, Control_c, 0, 64, 30
2, 170859, Control_c, 0, 64, 43
2, 170879, Control_c, 0, 64, 52
2, 170897, Control_c, 0, 64, 56
2, 170917, Control_c, 0, 64, 59
2, 170936, Control_c, 0, 64, 60
2, 170954, Control_c, 0, 64, 62
2, 170974, Control_c, 0, 64, 63
2, 170993, Control_c, 0, 64, 64
2, 171013, Control_c, 0, 64, 66
2, 171031, Control_c, 0, 64, 67
2, 171051, Control_c, 0, 64, 68
2, 171070, Control_c, 0, 64, 70
2, 171090, Control_c, 0, 64, 71
2, 171108, Control_c, 0, 64, 72
2, 171128, Control_c, 0, 64, 73
2, 171147, Control_c, 0, 64, 75
2, 171166, Control_c, 0, 64, 76
2, 171185, Control_c, 0, 64, 78
2, 171205, Control_c, 0, 64, 79
2, 171224, Control_c, 0, 64, 79
2, 171262, Control_c, 0, 64, 80
2, 171282, Control_c, 0, 64, 81
2, 171300, Control_c, 0, 64, 82
2, 171320, Control_c, 0, 64, 83
2, 171339, Control_c, 0, 64, 84
2, 171359, Control_c, 0, 64, 84
2, 171377, Control_c, 0, 64, 85
2, 171397, Control_c, 0, 64, 85
2, 171416, Control_c, 0, 64, 86
2, 171434, Control_c, 0, 64, 86
2, 171454, Control_c, 0, 64, 87
2, 171511, Control_c, 0, 64, 87
2, 171550, Control_c, 0, 64, 88
2, 171570, Control_c, 0, 64, 88
2, 171608, Control_c, 0, 64, 89
2, 171665, Control_c, 0, 64, 89
2, 171685, Control_c, 0, 64, 90
2, 172222, Control_c, 0, 64, 90
2, 172240, Control_c, 0, 64, 91
2, 172259, Control_c, 0, 64, 93
2, 172278, Control_c, 0, 64, 95
2, 172280, Note_on_c, 0, 62, 0
2, 172294, Control_c, 0, 64, 96
2, 172314, Control_c, 0, 64, 94
2, 172332, Control_c, 0, 64, 83
2, 172333, Note_on_c, 0, 38, 0
2, 172352, Control_c, 0, 64, 65
2, 172371, Control_c, 0, 64, 22
2, 172391, Control_c, 0, 64, 0
2, 172392, Note_on_c, 0, 65, 0
2, 172392, Note_on_c, 0, 68, 0
2, 172776, Note_on_c, 0, 70, 68
2, 172859, Note_on_c, 0, 71, 0
2, 173073, Note_on_c, 0, 68, 67
2, 173175, Note_on_c, 0, 70, 0
2, 173303, Note_on_c, 0, 66, 70
2, 173361, Note_on_c, 0, 68, 0
2, 173500, Note_on_c, 0, 65, 61
2, 173523, Note_on_c, 0, 66, 0
2, 173707, Note_on_c, 0, 65, 0
2, 173712, Note_on_c, 0, 63, 66
2, 173896, Note_on_c, 0, 62, 70
2, 173902, Note_on_c, 0, 63, 0
2, 174077, Note_on_c, 0, 65, 69
2, 174098, Note_on_c, 0, 62, 0
2, 174266, Note_on_c, 0, 68, 74
2, 174307, Note_on_c, 0, 65, 0
2, 174441, Note_on_c, 0, 68, 0
2, 174446, Note_on_c, 0, 71, 80
2, 174642, Note_on_c, 0, 74, 75
2, 174646, Note_on_c, 0, 71, 0
2, 174834, Note_on_c, 0, 77, 78
2, 174883, Note_on_c, 0, 74, 0
2, 175037, Note_on_c, 0, 80, 83
2, 175070, Note_on_c, 0, 77, 0
2, 175270, Note_on_c, 0, 83, 83
2, 175338, Note_on_c, 0, 80, 0
2, 175499, Note_on_c, 0, 82, 82
2, 175581, Note_on_c, 0, 83, 0
2, 175752, Note_on_c, 0, 74, 75
2, 175780, Note_on_c, 0, 82, 0
2, 176156, Note_on_c, 0, 75, 76
2, 176239, Note_on_c, 0, 74, 0
2, 176461, Control_c, 0, 64, 9
2, 176481, Control_c, 0, 64, 13
2, 176500, Control_c, 0, 64, 18
2, 176519, Control_c, 0, 64, 22
2, 176538, Control_c, 0, 64, 27
2, 176558, Control_c, 0, 64, 32
2, 176576, Control_c, 0, 64, 37
2, 176596, Control_c, 0, 64, 41
2, 176615, Control_c, 0, 64, 44
2, 176635, Control_c, 0, 64, 47
2, 176653, Control_c, 0, 64, 51
2, 176673, Control_c, 0, 64, 54
2, 176692, Control_c, 0, 64, 57
2, 176712, Control_c, 0, 64, 59
2, 176730, Control_c, 0, 64, 61
2, 176750, Control_c, 0, 64, 63
2, 176769, Control_c, 0, 64, 64
2, 176788, Control_c, 0, 64, 65
2, 176807, Control_c, 0, 64, 66
2, 176827, Control_c, 0, 64, 67
2, 176846, Control_c, 0, 64, 68
2, 176864, Control_c, 0, 64, 71
2, 176884, Control_c, 0, 64, 74
2, 176903, Control_c, 0, 64, 78
2, 176922, Control_c, 0, 64, 82
2, 176941, Control_c, 0, 64, 85
2, 176961, Control_c, 0, 64, 87
2, 176980, Control_c, 0, 64, 89
2, 176999, Control_c, 0, 64, 90
2, 177018, Control_c, 0, 64, 91
2, 177039, Control_c, 0, 64, 92
2, 177057, Control_c, 0, 64, 93
2, 177077, Control_c, 0, 64, 94
2, 177096, Control_c, 0, 64, 95
2, 177115, Control_c, 0, 64, 96
2, 177153, Control_c, 0, 64, 96
2, 177364, Control_c, 0, 64, 97
2, 177536, Control_c, 0, 64, 95
2, 177556, Control_c, 0, 64, 82
2, 177570, Note_on_c, 0, 70, 78
2, 177575, Control_c, 0, 64, 64
2, 177587, Note_on_c, 0, 66, 63
2, 177595, Control_c, 0, 64, 38
2, 177613, Control_c, 0, 64, 0
2, 177619, Note_on_c, 0, 39, 53
2, 177623, Note_on_c, 0, 51, 45
2, 177656, Note_on_c, 0, 75, 0
2, 177672, Control_c, 0, 64, 39
2, 177690, Control_c, 0, 64, 60
2, 177710, Control_c, 0, 64, 66
2, 177729, Control_c, 0, 64, 73
2, 177746, Note_on_c, 0, 39, 0
2, 177748, Control_c, 0, 64, 81
2, 177767, Control_c, 0, 64, 89
2, 177787, Control_c, 0, 64, 94
2, 177795, Note_on_c, 0, 70, 0
2, 177805, Note_on_c, 0, 51, 0
2, 177806, Control_c, 0, 64, 96
2, 177824, Control_c, 0, 64, 96
2, 177882, Control_c, 0, 64, 97
2, 178050, Note_on_c, 0, 46, 35
2, 178095, Control_c, 0, 64, 96
2, 178172, Control_c, 0, 64, 97
2, 178204, Note_on_c, 0, 68, 73
2, 178219, Note_on_c, 0, 51, 46
2, 178224, Note_on_c, 0, 65, 63
2, 178224, Note_on_c, 0, 66, 0
2, 178229, Control_c, 0, 64, 96
2, 178238, Note_on_c, 0, 54, 49
2, 178249, Control_c, 0, 64, 86
2, 178268, Control_c, 0, 64, 69
2, 178288, Control_c, 0, 64, 58
2, 178306, Control_c, 0, 64, 43
2, 178326, Control_c, 0, 64, 31
2, 178345, Control_c, 0, 64, 18
2, 178365, Control_c, 0, 64, 0
2, 178413, Note_on_c, 0, 66, 65
2, 178415, Note_on_c, 0, 65, 0
2, 178421, Note_on_c, 0, 63, 58
2, 178427, Note_on_c, 0, 68, 0
2, 178652, Control_c, 0, 64, 19
2, 178671, Control_c, 0, 64, 24
2, 178691, Control_c, 0, 64, 26
2, 178709, Control_c, 0, 64, 27
2, 178729, Control_c, 0, 64, 28
2, 178748, Control_c, 0, 64, 31
2, 178768, Control_c, 0, 64, 34
2, 178786, Control_c, 0, 64, 37
2, 178806, Control_c, 0, 64, 41
2, 178825, Control_c, 0, 64, 46
2, 178845, Control_c, 0, 64, 49
2, 178863, Control_c, 0, 64, 50
2, 178883, Control_c, 0, 64, 52
2, 178902, Control_c, 0, 64, 54
2, 178921, Control_c, 0, 64, 56
2, 178940, Control_c, 0, 64, 59
2, 178963, Control_c, 0, 64, 61
2, 178981, Control_c, 0, 64, 63
2, 179001, Control_c, 0, 64, 64
2, 179020, Control_c, 0, 64, 65
2, 179040, Control_c, 0, 64, 66
2, 179058, Control_c, 0, 64, 67
2, 179078, Control_c, 0, 64, 69
2, 179097, Control_c, 0, 64, 71
2, 179115, Control_c, 0, 64, 73
2, 179129, Note_on_c, 0, 46, 0
2, 179131, Note_on_c, 0, 54, 0
2, 179135, Control_c, 0, 64, 75
2, 179137, Note_on_c, 0, 51, 0
2, 179154, Control_c, 0, 64, 76
2, 179174, Control_c, 0, 64, 78
2, 179192, Control_c, 0, 64, 79
2, 179212, Control_c, 0, 64, 80
2, 179231, Control_c, 0, 64, 82
2, 179250, Control_c, 0, 64, 84
2, 179269, Control_c, 0, 64, 86
2, 179289, Control_c, 0, 64, 86
2, 179308, Control_c, 0, 64, 87
2, 179327, Control_c, 0, 64, 87
2, 179346, Control_c, 0, 64, 88
2, 179366, Control_c, 0, 64, 88
2, 179384, Control_c, 0, 64, 89
2, 179404, Control_c, 0, 64, 90
2, 179410, Note_on_c, 0, 66, 0
2, 179423, Control_c, 0, 64, 91
2, 179443, Control_c, 0, 64, 92
2, 179461, Control_c, 0, 64, 92
2, 179506, Note_on_c, 0, 63, 0
2, 179577, Control_c, 0, 64, 93
2, 179749, Note_on_c, 0, 46, 35
2, 179808, Note_on_c, 0, 53, 38
2, 179864, Control_c, 0, 64, 92
2, 179884, Control_c, 0, 64, 92
2, 179890, Note_on_c, 0, 56, 39
2, 179903, Control_c, 0, 64, 90
2, 179925, Control_c, 0, 64, 83
2, 179929, Note_on_c, 0, 66, 28
2, 179938, Note_on_c, 0, 62, 29
2, 179943, Control_c, 0, 64, 76
2, 179963, Control_c, 0, 64, 68
2, 179976, Note_on_c, 0, 66, 0
2, 179982, Control_c, 0, 64, 63
2, 179995, Note_on_c, 0, 65, 42
2, 180001, Control_c, 0, 64, 58
2, 180020, Control_c, 0, 64, 54
2, 180035, Note_on_c, 0, 65, 0
2, 180040, Control_c, 0, 64, 47
2, 180059, Control_c, 0, 64, 39
2, 180059, Note_on_c, 0, 66, 67
2, 180078, Control_c, 0, 64, 33
2, 180097, Control_c, 0, 64, 30
2, 180109, Note_on_c, 0, 66, 0
2, 180116, Control_c, 0, 64, 29
2, 180134, Note_on_c, 0, 65, 58
2, 180212, Control_c, 0, 64, 29
2, 180251, Control_c, 0, 64, 28
2, 180269, Control_c, 0, 64, 27
2, 180289, Control_c, 0, 64, 27
2, 180385, Control_c, 0, 64, 26
2, 180539, Note_on_c, 0, 63, 55
2, 180549, Note_on_c, 0, 65, 0
2, 180993, Control_c, 0, 64, 27
2, 181058, Note_on_c, 0, 65, 39
2, 181062, Note_on_c, 0, 63, 0
2, 181185, Control_c, 0, 64, 27
2, 181205, Control_c, 0, 64, 31
2, 181224, Control_c, 0, 64, 36
2, 181244, Control_c, 0, 64, 42
2, 181262, Control_c, 0, 64, 48
2, 181282, Control_c, 0, 64, 52
2, 181301, Control_c, 0, 64, 56
2, 181320, Control_c, 0, 64, 59
2, 181339, Control_c, 0, 64, 61
2, 181359, Control_c, 0, 64, 62
2, 181378, Control_c, 0, 64, 63
2, 181396, Control_c, 0, 64, 64
2, 181416, Control_c, 0, 64, 64
2, 181435, Control_c, 0, 64, 65
2, 181455, Control_c, 0, 64, 66
2, 181464, Note_on_c, 0, 53, 0
2, 181473, Control_c, 0, 64, 68
2, 181483, Note_on_c, 0, 46, 0
2, 181493, Control_c, 0, 64, 69
2, 181512, Control_c, 0, 64, 71
2, 181531, Control_c, 0, 64, 73
2, 181550, Control_c, 0, 64, 76
2, 181570, Control_c, 0, 64, 78
2, 181589, Control_c, 0, 64, 79
2, 181608, Control_c, 0, 64, 81
2, 181621, Note_on_c, 0, 56, 0
2, 181627, Control_c, 0, 64, 82
2, 181647, Control_c, 0, 64, 84
2, 181665, Control_c, 0, 64, 85
2, 181685, Control_c, 0, 64, 86
2, 181704, Control_c, 0, 64, 86
2, 181724, Control_c, 0, 64, 87
2, 181742, Control_c, 0, 64, 87
2, 181762, Control_c, 0, 64, 88
2, 181781, Control_c, 0, 64, 89
2, 181800, Control_c, 0, 64, 89
2, 181819, Control_c, 0, 64, 90
2, 182108, Control_c, 0, 64, 89
2, 182147, Note_on_c, 0, 51, 20
2, 182166, Control_c, 0, 64, 89
2, 182223, Control_c, 0, 64, 88
2, 182243, Control_c, 0, 64, 88
2, 182262, Control_c, 0, 64, 87
2, 182281, Control_c, 0, 64, 86
2, 182286, Note_on_c, 0, 55, 16
2, 182300, Control_c, 0, 64, 85
2, 182310, Note_on_c, 0, 58, 31
2, 182320, Control_c, 0, 64, 84
2, 182339, Control_c, 0, 64, 83
2, 182357, Control_c, 0, 64, 82
2, 182377, Control_c, 0, 64, 80
2, 182396, Control_c, 0, 64, 78
2, 182415, Control_c, 0, 64, 75
2, 182431, Note_on_c, 0, 61, 18
2, 182434, Control_c, 0, 64, 72
2, 182454, Control_c, 0, 64, 69
2, 182455, Note_on_c, 0, 62, 0
2, 182469, Note_on_c, 0, 63, 30
2, 182473, Control_c, 0, 64, 66
2, 182492, Control_c, 0, 64, 63
2, 182511, Control_c, 0, 64, 60
2, 182529, Note_on_c, 0, 65, 0
2, 182531, Control_c, 0, 64, 56
2, 182549, Control_c, 0, 64, 51
2, 182569, Control_c, 0, 64, 47
2, 182588, Control_c, 0, 64, 42
2, 182608, Control_c, 0, 64, 37
2, 182626, Control_c, 0, 64, 33
2, 182665, Control_c, 0, 64, 35
2, 182685, Control_c, 0, 64, 40
2, 182703, Control_c, 0, 64, 47
2, 182723, Control_c, 0, 64, 55
2, 182742, Control_c, 0, 64, 59
2, 182761, Control_c, 0, 64, 62
2, 182780, Control_c, 0, 64, 63
2, 182801, Control_c, 0, 64, 64
2, 182819, Control_c, 0, 64, 66
2, 182839, Control_c, 0, 64, 67
2, 182858, Control_c, 0, 64, 69
2, 182876, Control_c, 0, 64, 71
2, 182895, Control_c, 0, 64, 73
2, 182914, Control_c, 0, 64, 74
2, 182934, Control_c, 0, 64, 75
2, 182951, Control_c, 0, 64, 76
2, 182969, Control_c, 0, 64, 77
2, 182989, Control_c, 0, 64, 77
2, 183008, Control_c, 0, 64, 78
2, 183027, Control_c, 0, 64, 79
2, 183046, Control_c, 0, 64, 80
2, 183065, Control_c, 0, 64, 81
2, 183085, Control_c, 0, 64, 81
2, 183103, Control_c, 0, 64, 82
2, 183119, Note_on_c, 0, 51, 0
2, 183123, Control_c, 0, 64, 82
2, 183126, Note_on_c, 0, 55, 0
2, 183162, Control_c, 0, 64, 83
2, 183176, Note_on_c, 0, 61, 0
2, 183219, Control_c, 0, 64, 83
2, 183227, Note_on_c, 0, 58, 0
2, 183507, Control_c, 0, 64, 83
2, 183660, Control_c, 0, 64, 82
2, 183758, Control_c, 0, 64, 82
2, 183853, Control_c, 0, 64, 81
2, 183892, Control_c, 0, 64, 81
2, 183930, Control_c, 0, 64, 80
2, 183969, Control_c, 0, 64, 80
2, 183978, Note_on_c, 0, 51, 22
2, 184007, Control_c, 0, 64, 79
2, 184027, Control_c, 0, 64, 79
2, 184046, Control_c, 0, 64, 78
2, 184064, Control_c, 0, 64, 76
2, 184072, Note_on_c, 0, 55, 17
2, 184084, Control_c, 0, 64, 73
2, 184093, Note_on_c, 0, 58, 25
2, 184103, Control_c, 0, 64, 68
2, 184122, Control_c, 0, 64, 64
2, 184141, Control_c, 0, 64, 59
2, 184161, Control_c, 0, 64, 53
2, 184175, Note_on_c, 0, 61, 30
2, 184180, Control_c, 0, 64, 49
2, 184218, Control_c, 0, 64, 50
2, 184238, Control_c, 0, 64, 53
2, 184256, Control_c, 0, 64, 57
2, 184276, Control_c, 0, 64, 60
2, 184295, Control_c, 0, 64, 63
2, 184315, Control_c, 0, 64, 64
2, 184333, Control_c, 0, 64, 65
2, 184353, Control_c, 0, 64, 67
2, 184372, Control_c, 0, 64, 68
2, 184392, Control_c, 0, 64, 69
2, 184410, Control_c, 0, 64, 71
2, 184430, Control_c, 0, 64, 72
2, 184449, Control_c, 0, 64, 74
2, 184468, Control_c, 0, 64, 75
2, 184487, Control_c, 0, 64, 76
2, 184506, Control_c, 0, 64, 76
2, 184526, Control_c, 0, 64, 77
2, 184544, Control_c, 0, 64, 78
2, 184564, Control_c, 0, 64, 78
2, 184583, Control_c, 0, 64, 79
2, 184602, Control_c, 0, 64, 79
2, 184608, Note_on_c, 0, 55, 0
2, 184619, Note_on_c, 0, 51, 0
2, 184660, Control_c, 0, 64, 80
2, 184679, Control_c, 0, 64, 80
2, 184738, Control_c, 0, 64, 81
2, 184835, Note_on_c, 0, 61, 0
2, 184960, Note_on_c, 0, 58, 0
2, 185201, Note_on_c, 0, 63, 0
2, 185228, Note_on_c, 0, 65, 36
2, 185432, Note_on_c, 0, 67, 55
2, 185453, Note_on_c, 0, 65, 0
2, 185466, Control_c, 0, 64, 80
2, 185562, Control_c, 0, 64, 80
2, 185601, Control_c, 0, 64, 79
2, 185604, Note_on_c, 0, 68, 62
2, 185613, Note_on_c, 0, 67, 0
2, 185620, Control_c, 0, 64, 79
2, 185639, Control_c, 0, 64, 78
2, 185658, Control_c, 0, 64, 78
2, 185658, Note_on_c, 0, 51, 24
2, 185679, Control_c, 0, 64, 77
2, 185697, Control_c, 0, 64, 77
2, 185717, Control_c, 0, 64, 76
2, 185736, Control_c, 0, 64, 74
2, 185736, Note_on_c, 0, 55, 17
2, 185755, Control_c, 0, 64, 73
2, 185773, Control_c, 0, 64, 72
2, 185793, Control_c, 0, 64, 70
2, 185802, Note_on_c, 0, 58, 18
2, 185812, Control_c, 0, 64, 68
2, 185832, Control_c, 0, 64, 65
2, 185837, Note_on_c, 0, 68, 0
2, 185844, Note_on_c, 0, 70, 55
2, 185850, Control_c, 0, 64, 63
2, 185870, Control_c, 0, 64, 59
2, 185877, Note_on_c, 0, 61, 27
2, 185889, Control_c, 0, 64, 55
2, 185908, Control_c, 0, 64, 50
2, 185927, Control_c, 0, 64, 46
2, 185946, Control_c, 0, 64, 42
2, 185966, Control_c, 0, 64, 38
2, 185984, Control_c, 0, 64, 36
2, 186004, Control_c, 0, 64, 35
2, 186023, Control_c, 0, 64, 35
2, 186061, Control_c, 0, 64, 36
2, 186081, Control_c, 0, 64, 40
2, 186100, Control_c, 0, 64, 46
2, 186119, Control_c, 0, 64, 51
2, 186138, Control_c, 0, 64, 56
2, 186158, Control_c, 0, 64, 60
2, 186177, Control_c, 0, 64, 62
2, 186196, Control_c, 0, 64, 63
2, 186215, Control_c, 0, 64, 64
2, 186235, Control_c, 0, 64, 66
2, 186253, Control_c, 0, 64, 67
2, 186273, Control_c, 0, 64, 69
2, 186292, Control_c, 0, 64, 71
2, 186312, Control_c, 0, 64, 73
2, 186330, Control_c, 0, 64, 74
2, 186350, Control_c, 0, 64, 75
2, 186369, Control_c, 0, 64, 76
2, 186380, Note_on_c, 0, 51, 0
2, 186388, Control_c, 0, 64, 76
2, 186407, Control_c, 0, 64, 77
2, 186426, Control_c, 0, 64, 78
2, 186442, Note_on_c, 0, 61, 0
2, 186446, Control_c, 0, 64, 79
2, 186484, Control_c, 0, 64, 79
2, 186519, Note_on_c, 0, 58, 0
2, 186561, Control_c, 0, 64, 80
2, 186580, Control_c, 0, 64, 80
2, 186618, Control_c, 0, 64, 81
2, 186638, Control_c, 0, 64, 82
2, 186656, Note_on_c, 0, 55, 0
2, 186715, Control_c, 0, 64, 82
2, 186753, Control_c, 0, 64, 83
2, 186792, Control_c, 0, 64, 83
2, 186821, Note_on_c, 0, 70, 0
2, 186894, Note_on_c, 0, 64, 35
2, 187037, Note_on_c, 0, 64, 0
2, 187089, Note_on_c, 0, 63, 36
2, 187098, Control_c, 0, 64, 83
2, 187175, Control_c, 0, 64, 82
2, 187213, Control_c, 0, 64, 82
2, 187252, Control_c, 0, 64, 81
2, 187268, Note_on_c, 0, 61, 45
2, 187272, Control_c, 0, 64, 81
2, 187275, Note_on_c, 0, 63, 0
2, 187290, Control_c, 0, 64, 80
2, 187310, Control_c, 0, 64, 79
2, 187316, Note_on_c, 0, 61, 0
2, 187329, Control_c, 0, 64, 78
2, 187348, Control_c, 0, 64, 78
2, 187367, Control_c, 0, 64, 77
2, 187386, Control_c, 0, 64, 76
2, 187406, Control_c, 0, 64, 75
2, 187424, Control_c, 0, 64, 75
2, 187444, Control_c, 0, 64, 73
2, 187463, Control_c, 0, 64, 72
2, 187482, Control_c, 0, 64, 70
2, 187501, Control_c, 0, 64, 69
2, 187521, Control_c, 0, 64, 68
2, 187532, Note_on_c, 0, 61, 39
2, 187540, Control_c, 0, 64, 67
2, 187555, Note_on_c, 0, 51, 24
2, 187559, Control_c, 0, 64, 66
2, 187564, Note_on_c, 0, 56, 22
2, 187578, Control_c, 0, 64, 64
2, 187598, Control_c, 0, 64, 63
2, 187617, Control_c, 0, 64, 62
2, 187636, Control_c, 0, 64, 61
2, 187655, Control_c, 0, 64, 60
2, 187675, Control_c, 0, 64, 59
2, 187693, Control_c, 0, 64, 58
2, 187713, Control_c, 0, 64, 56
2, 187732, Control_c, 0, 64, 55
2, 187752, Control_c, 0, 64, 54
2, 187770, Control_c, 0, 64, 53
2, 187790, Control_c, 0, 64, 52
2, 187809, Control_c, 0, 64, 52
2, 187828, Control_c, 0, 64, 51
2, 187866, Control_c, 0, 64, 51
2, 187904, Control_c, 0, 64, 50
2, 188173, Control_c, 0, 64, 51
2, 188308, Control_c, 0, 64, 51
2, 188434, Note_on_c, 0, 61, 0
2, 188437, Note_on_c, 0, 59, 31
2, 188461, Control_c, 0, 64, 51
2, 188538, Control_c, 0, 64, 51
2, 188558, Control_c, 0, 64, 52
2, 188577, Control_c, 0, 64, 55
2, 188596, Control_c, 0, 64, 57
2, 188615, Control_c, 0, 64, 59
2, 188635, Control_c, 0, 64, 61
2, 188653, Control_c, 0, 64, 62
2, 188673, Control_c, 0, 64, 64
2, 188692, Control_c, 0, 64, 65
2, 188712, Control_c, 0, 64, 66
2, 188730, Control_c, 0, 64, 67
2, 188750, Control_c, 0, 64, 69
2, 188769, Control_c, 0, 64, 70
2, 188788, Control_c, 0, 64, 72
2, 188807, Control_c, 0, 64, 73
2, 188826, Control_c, 0, 64, 75
2, 188835, Note_on_c, 0, 56, 0
2, 188846, Control_c, 0, 64, 76
2, 188860, Note_on_c, 0, 51, 0
2, 188864, Control_c, 0, 64, 78
2, 188884, Control_c, 0, 64, 78
2, 188922, Control_c, 0, 64, 79
2, 188999, Control_c, 0, 64, 79
2, 189076, Control_c, 0, 64, 79
2, 189153, Control_c, 0, 64, 78
2, 189230, Control_c, 0, 64, 78
2, 189306, Control_c, 0, 64, 77
2, 189326, Control_c, 0, 64, 77
2, 189344, Control_c, 0, 64, 76
2, 189364, Control_c, 0, 64, 75
2, 189381, Note_on_c, 0, 56, 27
2, 189383, Control_c, 0, 64, 73
2, 189386, Note_on_c, 0, 51, 24
2, 189402, Control_c, 0, 64, 67
2, 189421, Control_c, 0, 64, 60
2, 189441, Control_c, 0, 64, 51
2, 189460, Control_c, 0, 64, 46
2, 189479, Control_c, 0, 64, 45
2, 189498, Control_c, 0, 64, 48
2, 189517, Control_c, 0, 64, 53
2, 189536, Control_c, 0, 64, 59
2, 189555, Control_c, 0, 64, 63
2, 189574, Control_c, 0, 64, 65
2, 189594, Control_c, 0, 64, 66
2, 189612, Control_c, 0, 64, 68
2, 189632, Control_c, 0, 64, 70
2, 189651, Control_c, 0, 64, 71
2, 189671, Control_c, 0, 64, 74
2, 189689, Control_c, 0, 64, 76
2, 189709, Control_c, 0, 64, 77
2, 189728, Control_c, 0, 64, 77
2, 189742, Note_on_c, 0, 59, 0
2, 189766, Control_c, 0, 64, 78
2, 189785, Control_c, 0, 64, 78
2, 189805, Control_c, 0, 64, 79
2, 189823, Control_c, 0, 64, 80
2, 189843, Control_c, 0, 64, 81
2, 189939, Control_c, 0, 64, 80
2, 190035, Control_c, 0, 64, 81
2, 190055, Note_on_c, 0, 63, 25
2, 190112, Control_c, 0, 64, 80
2, 190219, Note_on_c, 0, 51, 0
2, 190219, Note_on_c, 0, 63, 0
2, 190256, Note_on_c, 0, 65, 32
2, 190259, Note_on_c, 0, 56, 0
2, 190285, Control_c, 0, 64, 80
2, 190303, Control_c, 0, 64, 79
2, 190362, Control_c, 0, 64, 79
2, 190401, Note_on_c, 0, 65, 0
2, 190419, Control_c, 0, 64, 78
2, 190449, Note_on_c, 0, 67, 43
2, 190457, Control_c, 0, 64, 78
2, 190517, Control_c, 0, 64, 77
2, 190554, Control_c, 0, 64, 77
2, 190602, Note_on_c, 0, 67, 0
2, 190611, Control_c, 0, 64, 76
2, 190615, Note_on_c, 0, 68, 59
2, 190631, Control_c, 0, 64, 76
2, 190669, Control_c, 0, 64, 75
2, 190688, Control_c, 0, 64, 75
2, 190706, Control_c, 0, 64, 74
2, 190726, Control_c, 0, 64, 73
2, 190745, Control_c, 0, 64, 73
2, 190765, Control_c, 0, 64, 72
2, 190783, Control_c, 0, 64, 71
2, 190786, Note_on_c, 0, 68, 0
2, 190798, Note_on_c, 0, 70, 64
2, 190803, Control_c, 0, 64, 69
2, 190822, Control_c, 0, 64, 69
2, 190842, Control_c, 0, 64, 68
2, 190860, Control_c, 0, 64, 67
2, 190880, Control_c, 0, 64, 67
2, 190899, Control_c, 0, 64, 66
2, 190918, Control_c, 0, 64, 64
2, 190937, Control_c, 0, 64, 64
2, 190957, Control_c, 0, 64, 63
2, 190995, Control_c, 0, 64, 63
2, 191014, Control_c, 0, 64, 62
2, 191034, Control_c, 0, 64, 62
2, 191051, Note_on_c, 0, 70, 0
2, 191052, Control_c, 0, 64, 61
2, 191064, Note_on_c, 0, 71, 49
2, 191071, Note_on_c, 0, 51, 31
2, 191072, Control_c, 0, 64, 61
2, 191078, Note_on_c, 0, 56, 21
2, 191111, Control_c, 0, 64, 60
2, 191129, Control_c, 0, 64, 60
2, 191149, Control_c, 0, 64, 59
2, 191186, Control_c, 0, 64, 59
2, 191609, Control_c, 0, 64, 59
2, 191626, Note_on_c, 0, 71, 0
2, 191652, Note_on_c, 0, 70, 43
2, 191721, Note_on_c, 0, 70, 0
2, 191735, Note_on_c, 0, 68, 46
2, 191810, Note_on_c, 0, 68, 0
2, 191829, Note_on_c, 0, 66, 45
2, 191840, Control_c, 0, 64, 59
2, 191884, Note_on_c, 0, 66, 0
2, 191921, Note_on_c, 0, 65, 44
2, 191936, Control_c, 0, 64, 58
2, 191994, Control_c, 0, 64, 58
2, 192085, Note_on_c, 0, 65, 0
2, 192125, Note_on_c, 0, 66, 47
2, 192282, Control_c, 0, 64, 58
2, 192289, Note_on_c, 0, 66, 0
2, 192300, Control_c, 0, 64, 59
2, 192320, Control_c, 0, 64, 60
2, 192339, Control_c, 0, 64, 62
2, 192351, Note_on_c, 0, 68, 41
2, 192358, Control_c, 0, 64, 63
2, 192377, Control_c, 0, 64, 64
2, 192398, Control_c, 0, 64, 65
2, 192417, Control_c, 0, 64, 66
2, 192436, Control_c, 0, 64, 67
2, 192455, Control_c, 0, 64, 68
2, 192466, Note_on_c, 0, 51, 0
2, 192475, Control_c, 0, 64, 70
2, 192493, Control_c, 0, 64, 71
2, 192513, Control_c, 0, 64, 72
2, 192532, Control_c, 0, 64, 73
2, 192547, Note_on_c, 0, 68, 0
2, 192552, Control_c, 0, 64, 74
2, 192561, Note_on_c, 0, 56, 0
2, 192566, Note_on_c, 0, 65, 41
2, 192570, Control_c, 0, 64, 75
2, 192590, Control_c, 0, 64, 75
2, 192609, Control_c, 0, 64, 76
2, 192647, Control_c, 0, 64, 77
2, 192724, Control_c, 0, 64, 76
2, 192781, Control_c, 0, 64, 76
2, 192801, Control_c, 0, 64, 75
2, 192820, Control_c, 0, 64, 75
2, 192839, Control_c, 0, 64, 74
2, 192858, Control_c, 0, 64, 73
2, 192866, Note_on_c, 0, 65, 0
2, 192878, Control_c, 0, 64, 72
2, 192880, Note_on_c, 0, 53, 25
2, 192887, Note_on_c, 0, 62, 38
2, 192897, Control_c, 0, 64, 70
2, 192916, Control_c, 0, 64, 66
2, 192916, Note_on_c, 0, 51, 24
2, 192935, Control_c, 0, 64, 62
2, 192952, Control_c, 0, 64, 56
2, 192970, Control_c, 0, 64, 52
2, 192990, Control_c, 0, 64, 50
2, 193047, Control_c, 0, 64, 51
2, 193067, Control_c, 0, 64, 53
2, 193086, Control_c, 0, 64, 55
2, 193105, Control_c, 0, 64, 59
2, 193124, Control_c, 0, 64, 62
2, 193144, Control_c, 0, 64, 63
2, 193163, Control_c, 0, 64, 64
2, 193182, Control_c, 0, 64, 66
2, 193201, Control_c, 0, 64, 67
2, 193221, Control_c, 0, 64, 68
2, 193239, Control_c, 0, 64, 70
2, 193259, Control_c, 0, 64, 72
2, 193278, Control_c, 0, 64, 74
2, 193298, Control_c, 0, 64, 76
2, 193316, Control_c, 0, 64, 77
2, 193335, Control_c, 0, 64, 78
2, 193374, Control_c, 0, 64, 78
2, 193393, Control_c, 0, 64, 79
2, 193412, Control_c, 0, 64, 79
2, 193432, Control_c, 0, 64, 80
2, 193450, Control_c, 0, 64, 81
2, 193489, Control_c, 0, 64, 81
2, 193509, Control_c, 0, 64, 82
2, 193527, Control_c, 0, 64, 82
2, 193547, Control_c, 0, 64, 83
2, 193566, Control_c, 0, 64, 83
2, 193585, Control_c, 0, 64, 84
2, 193604, Control_c, 0, 64, 84
2, 193612, Note_on_c, 0, 53, 0
2, 193624, Control_c, 0, 64, 85
2, 193666, Note_on_c, 0, 51, 0
2, 193701, Control_c, 0, 64, 85
2, 193739, Control_c, 0, 64, 86
2, 194046, Control_c, 0, 64, 85
2, 194161, Control_c, 0, 64, 85
2, 194238, Control_c, 0, 64, 84
2, 194245, Note_on_c, 0, 59, 33
2, 194295, Control_c, 0, 64, 84
2, 194334, Control_c, 0, 64, 83
2, 194392, Control_c, 0, 64, 83
2, 194405, Note_on_c, 0, 59, 0
2, 194422, Note_on_c, 0, 58, 38
2, 194430, Control_c, 0, 64, 82
2, 194449, Control_c, 0, 64, 82
2, 194487, Control_c, 0, 64, 81
2, 194507, Control_c, 0, 64, 81
2, 194542, Control_c, 0, 64, 80
2, 194561, Control_c, 0, 64, 79
2, 194581, Control_c, 0, 64, 78
2, 194600, Control_c, 0, 64, 77
2, 194619, Control_c, 0, 64, 76
2, 194638, Control_c, 0, 64, 75
2, 194647, Note_on_c, 0, 58, 0
2, 194658, Control_c, 0, 64, 72
2, 194663, Note_on_c, 0, 59, 40
2, 194676, Control_c, 0, 64, 69
2, 194679, Note_on_c, 0, 51, 25
2, 194683, Note_on_c, 0, 53, 21
2, 194696, Control_c, 0, 64, 65
2, 194715, Control_c, 0, 64, 61
2, 194735, Control_c, 0, 64, 56
2, 194753, Control_c, 0, 64, 51
2, 194773, Control_c, 0, 64, 44
2, 194792, Control_c, 0, 64, 40
2, 194812, Control_c, 0, 64, 39
2, 194850, Control_c, 0, 64, 42
2, 194869, Control_c, 0, 64, 47
2, 194888, Control_c, 0, 64, 54
2, 194907, Control_c, 0, 64, 59
2, 194927, Control_c, 0, 64, 61
2, 194946, Control_c, 0, 64, 63
2, 194964, Control_c, 0, 64, 64
2, 194984, Control_c, 0, 64, 65
2, 195003, Control_c, 0, 64, 67
2, 195022, Control_c, 0, 64, 68
2, 195041, Control_c, 0, 64, 70
2, 195061, Control_c, 0, 64, 71
2, 195080, Control_c, 0, 64, 72
2, 195099, Control_c, 0, 64, 74
2, 195118, Control_c, 0, 64, 75
2, 195138, Control_c, 0, 64, 76
2, 195156, Control_c, 0, 64, 77
2, 195176, Control_c, 0, 64, 77
2, 195195, Control_c, 0, 64, 78
2, 195233, Control_c, 0, 64, 78
2, 195256, Note_on_c, 0, 53, 0
2, 195291, Control_c, 0, 64, 79
2, 195335, Note_on_c, 0, 51, 0
2, 195349, Control_c, 0, 64, 79
2, 195636, Control_c, 0, 64, 79
2, 195810, Control_c, 0, 64, 78
2, 195963, Control_c, 0, 64, 78
2, 196040, Control_c, 0, 64, 77
2, 196064, Note_on_c, 0, 56, 30
2, 196136, Control_c, 0, 64, 77
2, 196193, Control_c, 0, 64, 76
2, 196403, Control_c, 0, 64, 76
2, 196461, Control_c, 0, 64, 75
2, 196500, Control_c, 0, 64, 75
2, 196506, Note_on_c, 0, 53, 33
2, 196513, Note_on_c, 0, 51, 27
2, 196519, Control_c, 0, 64, 74
2, 196519, Note_on_c, 0, 56, 0
2, 196557, Control_c, 0, 64, 73
2, 196577, Control_c, 0, 64, 70
2, 196596, Control_c, 0, 64, 67
2, 196615, Control_c, 0, 64, 64
2, 196634, Control_c, 0, 64, 61
2, 196654, Control_c, 0, 64, 57
2, 196672, Control_c, 0, 64, 55
2, 196692, Control_c, 0, 64, 52
2, 196711, Control_c, 0, 64, 50
2, 196731, Control_c, 0, 64, 49
2, 196769, Control_c, 0, 64, 50
2, 196788, Control_c, 0, 64, 51
2, 196807, Control_c, 0, 64, 53
2, 196826, Control_c, 0, 64, 55
2, 196845, Control_c, 0, 64, 57
2, 196865, Control_c, 0, 64, 59
2, 196883, Control_c, 0, 64, 61
2, 196903, Control_c, 0, 64, 62
2, 196922, Control_c, 0, 64, 63
2, 196941, Control_c, 0, 64, 64
2, 196960, Control_c, 0, 64, 66
2, 196980, Control_c, 0, 64, 67
2, 196999, Control_c, 0, 64, 68
2, 197018, Control_c, 0, 64, 70
2, 197028, Note_on_c, 0, 59, 0
2, 197037, Control_c, 0, 64, 72
2, 197057, Control_c, 0, 64, 73
2, 197076, Control_c, 0, 64, 75
2, 197095, Control_c, 0, 64, 76
2, 197114, Control_c, 0, 64, 77
2, 197134, Control_c, 0, 64, 78
2, 197152, Control_c, 0, 64, 78
2, 197172, Control_c, 0, 64, 79
2, 197193, Control_c, 0, 64, 80
2, 197212, Control_c, 0, 64, 81
2, 197231, Control_c, 0, 64, 81
2, 197251, Control_c, 0, 64, 82
2, 197307, Control_c, 0, 64, 82
2, 197364, Control_c, 0, 64, 83
2, 197403, Note_on_c, 0, 62, 0
2, 197692, Control_c, 0, 64, 82
2, 197864, Control_c, 0, 64, 83
2, 198095, Control_c, 0, 64, 83
2, 198133, Control_c, 0, 64, 84
2, 198172, Control_c, 0, 64, 84
2, 198186, Note_on_c, 0, 62, 35
2, 198306, Control_c, 0, 64, 84
2, 198440, Note_on_c, 0, 53, 0
2, 198728, Control_c, 0, 64, 83
2, 198766, Control_c, 0, 64, 83
2, 198824, Control_c, 0, 64, 82
2, 198843, Control_c, 0, 64, 82
2, 198862, Control_c, 0, 64, 81
2, 198901, Control_c, 0, 64, 81
2, 198920, Control_c, 0, 64, 80
2, 198939, Control_c, 0, 64, 79
2, 198958, Control_c, 0, 64, 78
2, 198978, Control_c, 0, 64, 78
2, 198996, Control_c, 0, 64, 77
2, 199016, Control_c, 0, 64, 76
2, 199035, Control_c, 0, 64, 74
2, 199055, Control_c, 0, 64, 72
2, 199073, Control_c, 0, 64, 70
2, 199088, Note_on_c, 0, 63, 45
2, 199093, Control_c, 0, 64, 68
2, 199105, Note_on_c, 0, 39, 24
2, 199113, Control_c, 0, 64, 67
2, 199132, Control_c, 0, 64, 66
2, 199151, Control_c, 0, 64, 65
2, 199171, Control_c, 0, 64, 64
2, 199174, Note_on_c, 0, 62, 0
2, 199188, Control_c, 0, 64, 63
2, 199206, Control_c, 0, 64, 61
2, 199209, Note_on_c, 0, 51, 0
2, 199226, Control_c, 0, 64, 60
2, 199245, Control_c, 0, 64, 59
2, 199265, Control_c, 0, 64, 58
2, 199283, Control_c, 0, 64, 58
2, 199303, Control_c, 0, 64, 57
2, 199322, Control_c, 0, 64, 56
2, 199399, Control_c, 0, 64, 57
2, 199418, Control_c, 0, 64, 59
2, 199418, Control_c, 0, 67, 11
2, 199437, Control_c, 0, 64, 60
2, 199437, Control_c, 0, 67, 20
2, 199457, Control_c, 0, 64, 61
2, 199457, Control_c, 0, 67, 32
2, 199476, Control_c, 0, 64, 62
2, 199476, Control_c, 0, 67, 46
2, 199495, Control_c, 0, 64, 62
2, 199495, Control_c, 0, 67, 63
2, 199514, Control_c, 0, 64, 63
2, 199514, Control_c, 0, 67, 87
2, 199534, Control_c, 0, 64, 64
2, 199534, Control_c, 0, 67, 111
2, 199552, Control_c, 0, 64, 64
2, 199552, Control_c, 0, 67, 127
2, 199572, Control_c, 0, 64, 65
2, 199591, Control_c, 0, 64, 65
2, 199611, Control_c, 0, 64, 66
2, 199629, Control_c, 0, 64, 67
2, 199649, Control_c, 0, 64, 69
2, 199668, Control_c, 0, 64, 71
2, 199686, Control_c, 0, 64, 73
2, 199706, Control_c, 0, 64, 75
2, 199725, Control_c, 0, 64, 76
2, 199745, Control_c, 0, 64, 77
2, 199763, Control_c, 0, 64, 78
2, 199783, Control_c, 0, 64, 79
2, 199802, Control_c, 0, 64, 80
2, 199821, Control_c, 0, 64, 81
2, 199840, Control_c, 0, 64, 82
2, 199860, Control_c, 0, 64, 82
2, 199994, Control_c, 0, 64, 83
2, 200052, Control_c, 0, 64, 83
2, 200073, Control_c, 0, 64, 84
2, 200092, Control_c, 0, 64, 85
2, 200149, Control_c, 0, 64, 85
2, 200168, Control_c, 0, 64, 86
2, 200180, Note_on_c, 0, 58, 28
2, 200187, Control_c, 0, 64, 87
2, 200206, Control_c, 0, 64, 88
2, 200226, Control_c, 0, 64, 89
2, 200264, Control_c, 0, 64, 89
2, 200283, Control_c, 0, 64, 90
2, 200321, Control_c, 0, 64, 90
2, 200341, Control_c, 0, 64, 91
2, 200360, Control_c, 0, 64, 91
2, 200379, Control_c, 0, 64, 92
2, 200418, Control_c, 0, 64, 93
2, 200456, Control_c, 0, 64, 93
2, 200495, Control_c, 0, 64, 94
2, 200590, Control_c, 0, 64, 94
2, 200667, Control_c, 0, 64, 95
2, 200676, Note_on_c, 0, 55, 25
2, 200681, Note_on_c, 0, 58, 0
2, 200702, Note_on_c, 0, 39, 0
2, 200763, Control_c, 0, 64, 95
2, 200906, Note_on_c, 0, 63, 0
2, 200955, Control_c, 0, 64, 96
2, 200979, Note_on_c, 0, 51, 30
2, 201043, Note_on_c, 0, 55, 0
2, 201086, Control_c, 0, 64, 96
2, 201197, Note_on_c, 0, 51, 0
2, 201240, Note_on_c, 0, 46, 28
2, 201452, Control_c, 0, 64, 96
2, 201462, Note_on_c, 0, 46, 0
2, 201511, Note_on_c, 0, 39, 28
2, 201778, Control_c, 0, 64, 95
2, 201785, Note_on_c, 0, 46, 22
2, 201912, Control_c, 0, 64, 95
2, 202027, Control_c, 0, 64, 94
2, 202123, Control_c, 0, 64, 94
2, 202145, Note_on_c, 0, 51, 30
2, 202297, Control_c, 0, 64, 93
2, 202545, Note_on_c, 0, 55, 18
2, 202952, Control_c, 0, 64, 93
2, 203065, Note_on_c, 0, 58, 25
2, 203954, Note_on_c, 0, 63, 34
2, 204833, Control_c, 0, 64, 92
2, 205084, Control_c, 0, 64, 92
2, 205142, Control_c, 0, 64, 91
2, 205238, Control_c, 0, 64, 91
2, 205353, Control_c, 0, 64, 90
2, 205391, Control_c, 0, 64, 90
2, 205430, Control_c, 0, 64, 89
2, 205468, Control_c, 0, 64, 89
2, 205507, Control_c, 0, 64, 88
2, 205545, Control_c, 0, 64, 88
2, 205584, Control_c, 0, 64, 87
2, 205602, Control_c, 0, 64, 87
2, 205660, Control_c, 0, 64, 86
2, 205736, Control_c, 0, 64, 86
2, 205794, Control_c, 0, 64, 85
2, 205871, Control_c, 0, 64, 85
2, 206005, Control_c, 0, 64, 84
2, 206159, Control_c, 0, 64, 84
2, 207753, Control_c, 0, 64, 83
2, 207925, Control_c, 0, 64, 83
2, 208252, Control_c, 0, 64, 82
2, 209231, Control_c, 0, 64, 83
2, 209365, Control_c, 0, 64, 83
2, 209499, Control_c, 0, 64, 84
2, 209596, Control_c, 0, 64, 84
2, 209711, Control_c, 0, 64, 85
2, 209788, Control_c, 0, 64, 85
2, 209827, Control_c, 0, 64, 86
2, 209961, Control_c, 0, 64, 85
2, 209999, Control_c, 0, 64, 85
2, 210038, Control_c, 0, 64, 84
2, 210076, Control_c, 0, 64, 84
2, 210230, Control_c, 0, 64, 84
2, 210287, Control_c, 0, 64, 85
2, 210345, Control_c, 0, 64, 85
2, 210364, Control_c, 0, 67, 127
2, 210384, Control_c, 0, 64, 86
2, 210384, Control_c, 0, 67, 125
2, 210402, Control_c, 0, 67, 124
2, 210422, Control_c, 0, 67, 123
2, 210441, Control_c, 0, 67, 122
2, 210459, Control_c, 0, 67, 121
2, 210479, Control_c, 0, 67, 119
2, 210498, Control_c, 0, 67, 117
2, 210518, Control_c, 0, 67, 115
2, 210536, Control_c, 0, 67, 113
2, 210554, Note_on_c, 0, 39, 0
2, 210556, Control_c, 0, 67, 111
2, 210575, Control_c, 0, 67, 108
2, 210594, Control_c, 0, 67, 104
2, 210613, Control_c, 0, 67, 101
2, 210633, Control_c, 0, 67, 96
2, 210645, Note_on_c, 0, 55, 0
2, 210652, Control_c, 0, 67, 91
2, 210671, Control_c, 0, 67, 86
2, 210690, Control_c, 0, 67, 81
2, 210710, Control_c, 0, 67, 75
2, 210729, Control_c, 0, 67, 70
2, 210748, Control_c, 0, 67, 65
2, 210767, Control_c, 0, 64, 86
2, 210767, Control_c, 0, 67, 60
2, 210787, Control_c, 0, 67, 56
2, 210805, Control_c, 0, 67, 52
2, 210825, Control_c, 0, 67, 48
2, 210832, Note_on_c, 0, 51, 0
2, 210844, Control_c, 0, 67, 45
2, 210864, Control_c, 0, 67, 42
2, 210882, Control_c, 0, 67, 39
2, 210902, Control_c, 0, 64, 86
2, 210902, Control_c, 0, 67, 37
2, 210921, Control_c, 0, 67, 36
2, 210938, Note_on_c, 0, 46, 0
2, 210939, Control_c, 0, 64, 85
2, 210939, Control_c, 0, 67, 35
2, 210959, Control_c, 0, 67, 34
2, 210976, Note_on_c, 0, 58, 0
2, 210978, Control_c, 0, 67, 32
2, 210998, Control_c, 0, 64, 85
2, 210998, Control_c, 0, 67, 30
2, 211016, Control_c, 0, 67, 27
2, 211036, Control_c, 0, 64, 84
2, 211036, Control_c, 0, 67, 24
2, 211045, Note_on_c, 0, 63, 0
2, 211055, Control_c, 0, 64, 83
2, 211055, Control_c, 0, 67, 22
2, 211074, Control_c, 0, 64, 83
2, 211074, Control_c, 0, 67, 20
2, 211093, Control_c, 0, 64, 82
2, 211093, Control_c, 0, 67, 18
2, 211113, Control_c, 0, 64, 81
2, 211113, Control_c, 0, 67, 16
2, 211132, Control_c, 0, 64, 80
2, 211132, Control_c, 0, 67, 13
2, 211151, Control_c, 0, 64, 79
2, 211151, Control_c, 0, 67, 10
2, 211170, Control_c, 0, 64, 78
2, 211170, Control_c, 0, 67, 0
2, 211190, Control_c, 0, 64, 77
2, 211209, Control_c, 0, 64, 76
2, 211228, Control_c, 0, 64, 75
2, 211247, Control_c, 0, 64, 74
2, 211267, Control_c, 0, 64, 73
2, 211285, Control_c, 0, 64, 72
2, 211324, Control_c, 0, 64, 72
2, 211344, Control_c, 0, 64, 71
2, 211362, Control_c, 0, 64, 71
2, 211382, Control_c, 0, 64, 70
2, 211401, Control_c, 0, 64, 69
2, 211419, Control_c, 0, 64, 69
2, 211458, Control_c, 0, 64, 68
2, 211478, Control_c, 0, 64, 67
2, 211496, Control_c, 0, 64, 66
2, 211516, Control_c, 0, 64, 66
2, 211535, Control_c, 0, 64, 65
2, 211554, Control_c, 0, 64, 64
2, 211573, Control_c, 0, 64, 64
2, 211597, Control_c, 0, 64, 63
2, 211615, Control_c, 0, 64, 63
2, 211635, Control_c, 0, 64, 62
2, 211654, Control_c, 0, 64, 62
2, 211670, Control_c, 0, 64, 61
2, 211689, Control_c, 0, 64, 60
2, 211708, Control_c, 0, 64, 59
2, 211727, Control_c, 0, 64, 58
2, 211747, Control_c, 0, 64, 58
2, 211765, Control_c, 0, 64, 57
2, 211785, Control_c, 0, 64, 57
2, 211804, Control_c, 0, 64, 56
2, 211824, Control_c, 0, 64, 55
2, 211842, Control_c, 0, 64, 54
2, 211938, Control_c, 0, 64, 55
2, 212018, Control_c, 0, 64, 55
2, 212056, Control_c, 0, 64, 56
2, 212076, Control_c, 0, 64, 56
2, 212095, Control_c, 0, 64, 57
2, 212190, Control_c, 0, 64, 57
2, 212229, Control_c, 0, 64, 58
2, 212248, Control_c, 0, 64, 58
2, 212306, Control_c, 0, 64, 59
2, 212421, Control_c, 0, 64, 59
2, 212498, Control_c, 0, 64, 60
2, 212594, Control_c, 0, 64, 60
2, 212670, Control_c, 0, 64, 61
2, 212882, Control_c, 0, 64, 61
2, 213016, Control_c, 0, 64, 62
2, 213285, Control_c, 0, 64, 62
2, 213522, Note_on_c, 0, 63, 39
2, 213573, Control_c, 0, 64, 63
2, 214398, Note_on_c, 0, 70, 50
2, 214459, Note_on_c, 0, 63, 0
2, 215804, Note_on_c, 0, 71, 25
2, 215820, Note_on_c, 0, 70, 0
2, 216244, Note_on_c, 0, 70, 47
2, 216339, Note_on_c, 0, 71, 0
2, 216660, Note_on_c, 0, 68, 49
2, 216712, Note_on_c, 0, 70, 0
2, 216970, Control_c, 0, 64, 62
2, 217070, Note_on_c, 0, 66, 37
2, 217078, Note_on_c, 0, 68, 0
2, 217483, Note_on_c, 0, 68, 44
2, 217506, Control_c, 0, 64, 62
2, 217508, Note_on_c, 0, 66, 0
2, 217950, Note_on_c, 0, 70, 44
2, 218012, Note_on_c, 0, 68, 0
2, 218563, Control_c, 0, 64, 61
2, 218862, Note_on_c, 0, 63, 39
2, 218998, Note_on_c, 0, 70, 0
2, 219787, Note_on_c, 0, 68, 50
2, 219899, Note_on_c, 0, 63, 0
2, 220272, Control_c, 0, 64, 62
2, 220523, Control_c, 0, 64, 62
2, 221195, Control_c, 0, 64, 62
2, 221205, Note_on_c, 0, 66, 27
2, 221247, Note_on_c, 0, 68, 0
2, 221617, Control_c, 0, 64, 61
2, 221654, Note_on_c, 0, 65, 30
2, 221687, Note_on_c, 0, 66, 0
2, 221847, Control_c, 0, 64, 61
2, 222576, Note_on_c, 0, 70, 41
2, 222608, Note_on_c, 0, 63, 23
2, 222732, Note_on_c, 0, 65, 0
2, 223467, Note_on_c, 0, 75, 55
2, 223590, Note_on_c, 0, 70, 0
2, 223883, Control_c, 0, 64, 61
2, 223907, Note_on_c, 0, 65, 28
2, 223908, Note_on_c, 0, 63, 0
2, 224311, Note_on_c, 0, 66, 32
2, 224331, Note_on_c, 0, 65, 0
2, 224713, Note_on_c, 0, 78, 52
2, 224717, Note_on_c, 0, 75, 0
2, 225144, Note_on_c, 0, 77, 52
2, 225152, Note_on_c, 0, 68, 38
2, 225214, Note_on_c, 0, 78, 0
2, 225265, Note_on_c, 0, 66, 0
2, 225568, Note_on_c, 0, 75, 54
2, 225606, Note_on_c, 0, 77, 0
2, 225997, Note_on_c, 0, 73, 43
2, 226010, Note_on_c, 0, 70, 31
2, 226036, Note_on_c, 0, 75, 0
2, 226062, Note_on_c, 0, 68, 0
2, 226414, Note_on_c, 0, 75, 46
2, 226421, Note_on_c, 0, 73, 0
2, 226839, Note_on_c, 0, 77, 40
2, 226904, Note_on_c, 0, 75, 0
2, 227271, Note_on_c, 0, 68, 34
2, 227351, Note_on_c, 0, 70, 0
2, 227549, Control_c, 0, 64, 62
2, 227691, Note_on_c, 0, 70, 53
2, 227727, Note_on_c, 0, 66, 29
2, 227739, Note_on_c, 0, 77, 0
2, 227774, Note_on_c, 0, 68, 0
2, 227877, Control_c, 0, 64, 62
2, 228118, Note_on_c, 0, 65, 27
2, 228167, Note_on_c, 0, 66, 0
2, 228553, Note_on_c, 0, 75, 56
2, 228597, Note_on_c, 0, 70, 0
2, 228609, Note_on_c, 0, 66, 22
2, 228613, Note_on_c, 0, 65, 0
2, 228976, Note_on_c, 0, 66, 0
2, 229004, Note_on_c, 0, 65, 30
2, 229129, Note_on_c, 0, 65, 0
2, 229203, Note_on_c, 0, 63, 30
2, 229407, Note_on_c, 0, 65, 21
2, 229440, Note_on_c, 0, 63, 0
2, 229810, Note_on_c, 0, 73, 40
2, 229830, Note_on_c, 0, 70, 25
2, 229840, Note_on_c, 0, 65, 0
2, 229846, Note_on_c, 0, 75, 0
2, 230179, Control_c, 0, 64, 62
2, 230219, Note_on_c, 0, 72, 41
2, 230243, Note_on_c, 0, 73, 0
2, 230371, Control_c, 0, 64, 61
2, 230628, Note_on_c, 0, 69, 29
2, 230667, Note_on_c, 0, 70, 0
2, 231041, Note_on_c, 0, 72, 0
2, 231053, Note_on_c, 0, 70, 47
2, 231097, Note_on_c, 0, 69, 0
2, 231472, Note_on_c, 0, 72, 44
2, 231904, Note_on_c, 0, 72, 0
2, 231912, Note_on_c, 0, 73, 39
2, 232041, Control_c, 0, 64, 61
2, 232324, Note_on_c, 0, 68, 30
2, 232386, Control_c, 0, 64, 60
2, 232559, Control_c, 0, 64, 60
2, 232655, Control_c, 0, 64, 59
2, 232732, Control_c, 0, 64, 59
2, 232735, Note_on_c, 0, 70, 0
2, 232754, Note_on_c, 0, 67, 29
2, 232789, Control_c, 0, 64, 58
2, 232790, Note_on_c, 0, 68, 0
2, 232809, Control_c, 0, 64, 58
2, 232827, Control_c, 0, 64, 57
2, 232866, Control_c, 0, 64, 57
2, 232904, Control_c, 0, 64, 56
2, 232943, Control_c, 0, 64, 56
2, 233001, Control_c, 0, 64, 55
2, 233175, Note_on_c, 0, 63, 32
2, 233182, Note_on_c, 0, 67, 0
2, 233578, Note_on_c, 0, 68, 35
2, 233608, Note_on_c, 0, 63, 0
2, 233846, Control_c, 0, 64, 55
2, 233961, Control_c, 0, 64, 54
2, 233988, Note_on_c, 0, 71, 44
2, 234018, Control_c, 0, 64, 54
2, 234027, Note_on_c, 0, 73, 0
2, 234095, Control_c, 0, 64, 53
2, 234133, Control_c, 0, 64, 53
2, 234172, Control_c, 0, 64, 52
2, 234326, Control_c, 0, 64, 52
2, 234412, Note_on_c, 0, 70, 52
2, 234473, Note_on_c, 0, 71, 0
2, 234690, Control_c, 0, 64, 51
2, 234820, Note_on_c, 0, 66, 28
2, 234853, Note_on_c, 0, 68, 0
2, 235093, Control_c, 0, 64, 52
2, 235170, Control_c, 0, 64, 52
2, 235241, Note_on_c, 0, 75, 61
2, 235272, Note_on_c, 0, 65, 22
2, 235293, Note_on_c, 0, 66, 0
2, 235381, Control_c, 0, 64, 53
2, 235464, Note_on_c, 0, 70, 0
2, 235631, Control_c, 0, 64, 53
2, 235672, Note_on_c, 0, 63, 31
2, 235678, Note_on_c, 0, 65, 0
2, 235746, Control_c, 0, 64, 54
2, 235938, Control_c, 0, 64, 54
2, 236066, Note_on_c, 0, 63, 0
2, 236090, Note_on_c, 0, 65, 31
2, 236149, Control_c, 0, 64, 55
2, 236510, Note_on_c, 0, 74, 41
2, 236531, Note_on_c, 0, 75, 0
2, 236727, Control_c, 0, 64, 54
2, 236919, Control_c, 0, 64, 54
2, 236920, Note_on_c, 0, 74, 0
2, 236933, Note_on_c, 0, 75, 44
2, 236949, Note_on_c, 0, 66, 25
2, 236972, Note_on_c, 0, 65, 0
2, 237014, Control_c, 0, 64, 53
2, 237033, Control_c, 0, 64, 53
2, 237053, Control_c, 0, 64, 52
2, 237072, Control_c, 0, 64, 52
2, 237091, Control_c, 0, 64, 51
2, 237110, Control_c, 0, 64, 51
2, 237130, Control_c, 0, 64, 50
2, 237187, Control_c, 0, 64, 51
2, 237207, Control_c, 0, 64, 53
2, 237225, Control_c, 0, 64, 56
2, 237245, Control_c, 0, 64, 60
2, 237264, Control_c, 0, 64, 62
2, 237283, Control_c, 0, 64, 64
2, 237302, Control_c, 0, 64, 65
2, 237322, Control_c, 0, 64, 66
2, 237328, Note_on_c, 0, 75, 0
2, 237341, Control_c, 0, 64, 66
2, 237360, Control_c, 0, 64, 67
2, 237362, Note_on_c, 0, 77, 41
2, 237379, Control_c, 0, 64, 68
2, 237395, Note_on_c, 0, 66, 0
2, 237395, Note_on_c, 0, 68, 35
2, 237399, Control_c, 0, 64, 69
2, 237417, Control_c, 0, 64, 69
2, 237436, Control_c, 0, 64, 70
2, 237456, Control_c, 0, 64, 70
2, 237494, Control_c, 0, 64, 71
2, 237610, Control_c, 0, 64, 70
2, 237620, Note_on_c, 0, 68, 0
2, 237821, Control_c, 0, 64, 70
2, 237840, Control_c, 0, 64, 69
2, 237847, Note_on_c, 0, 78, 48
2, 237857, Note_on_c, 0, 51, 45
2, 237859, Control_c, 0, 64, 68
2, 237861, Note_on_c, 0, 70, 39
2, 237879, Control_c, 0, 64, 65
2, 237897, Control_c, 0, 64, 61
2, 237906, Note_on_c, 0, 77, 0
2, 237916, Control_c, 0, 64, 57
2, 237936, Control_c, 0, 64, 54
2, 237955, Control_c, 0, 64, 50
2, 237974, Control_c, 0, 64, 47
2, 237993, Control_c, 0, 64, 45
2, 238051, Control_c, 0, 64, 47
2, 238070, Control_c, 0, 64, 48
2, 238090, Control_c, 0, 64, 50
2, 238108, Control_c, 0, 64, 52
2, 238128, Control_c, 0, 64, 54
2, 238147, Control_c, 0, 64, 56
2, 238167, Control_c, 0, 64, 58
2, 238185, Control_c, 0, 64, 60
2, 238205, Control_c, 0, 64, 62
2, 238224, Control_c, 0, 64, 62
2, 238243, Control_c, 0, 64, 63
2, 238262, Control_c, 0, 64, 64
2, 238282, Control_c, 0, 64, 65
2, 238301, Control_c, 0, 64, 65
2, 238318, Note_on_c, 0, 72, 46
2, 238320, Control_c, 0, 64, 66
2, 238339, Control_c, 0, 64, 66
2, 238441, Note_on_c, 0, 70, 0
2, 238493, Control_c, 0, 64, 66
2, 238512, Control_c, 0, 64, 65
2, 238531, Control_c, 0, 64, 65
2, 238550, Control_c, 0, 64, 64
2, 238588, Control_c, 0, 64, 64
2, 238608, Control_c, 0, 64, 63
2, 238627, Control_c, 0, 64, 63
2, 238647, Control_c, 0, 64, 62
2, 238656, Note_on_c, 0, 72, 0
2, 238665, Control_c, 0, 64, 61
2, 238704, Control_c, 0, 64, 61
2, 238723, Control_c, 0, 64, 60
2, 238728, Note_on_c, 0, 58, 56
2, 238735, Note_on_c, 0, 77, 46
2, 238742, Control_c, 0, 64, 59
2, 238759, Note_on_c, 0, 74, 42
2, 238762, Control_c, 0, 64, 58
2, 238781, Control_c, 0, 64, 57
2, 238800, Control_c, 0, 64, 55
2, 238818, Note_on_c, 0, 78, 0
2, 238819, Control_c, 0, 64, 55
2, 238839, Control_c, 0, 64, 54
2, 238840, Note_on_c, 0, 51, 0
2, 238857, Control_c, 0, 64, 54
2, 238876, Control_c, 0, 64, 53
2, 238896, Control_c, 0, 64, 53
2, 238934, Control_c, 0, 64, 52
2, 238953, Control_c, 0, 64, 52
2, 238973, Control_c, 0, 64, 51
2, 239135, Note_on_c, 0, 74, 0
2, 239135, Note_on_c, 0, 77, 0
2, 239149, Note_on_c, 0, 78, 45
2, 239155, Note_on_c, 0, 75, 40
2, 239525, Note_on_c, 0, 75, 0
2, 239560, Note_on_c, 0, 80, 45
2, 239587, Control_c, 0, 64, 52
2, 239587, Note_on_c, 0, 77, 46
2, 239607, Control_c, 0, 64, 54
2, 239625, Control_c, 0, 64, 58
2, 239645, Control_c, 0, 64, 61
2, 239664, Control_c, 0, 64, 62
2, 239683, Control_c, 0, 64, 63
2, 239702, Control_c, 0, 64, 64
2, 239722, Control_c, 0, 64, 64
2, 239741, Control_c, 0, 64, 65
2, 239779, Control_c, 0, 64, 66
2, 239782, Note_on_c, 0, 77, 0
2, 239832, Note_on_c, 0, 78, 0
2, 239952, Control_c, 0, 64, 65
2, 239971, Control_c, 0, 64, 65
2, 239990, Control_c, 0, 64, 64
2, 240000, Note_on_c, 0, 74, 47
2, 240010, Control_c, 0, 64, 63
2, 240010, Note_on_c, 0, 77, 52
2, 240017, Note_on_c, 0, 59, 60
2, 240028, Control_c, 0, 64, 62
2, 240048, Control_c, 0, 64, 61
2, 240053, Note_on_c, 0, 80, 0
2, 240060, Note_on_c, 0, 58, 0
2, 240067, Control_c, 0, 64, 61
2, 240087, Control_c, 0, 64, 60
2, 240105, Control_c, 0, 64, 60
2, 240125, Control_c, 0, 64, 59
2, 240144, Control_c, 0, 64, 59
2, 240163, Control_c, 0, 64, 58
2, 240173, Note_on_c, 0, 74, 0
2, 240202, Control_c, 0, 64, 58
2, 240422, Note_on_c, 0, 77, 0
2, 240424, Note_on_c, 0, 58, 52
2, 240430, Note_on_c, 0, 78, 60
2, 240449, Note_on_c, 0, 75, 50
2, 240493, Note_on_c, 0, 59, 0
2, 240777, Control_c, 0, 64, 57
2, 240838, Note_on_c, 0, 75, 0
2, 240840, Note_on_c, 0, 56, 54
2, 240848, Note_on_c, 0, 78, 0
2, 240850, Note_on_c, 0, 77, 54
2, 240854, Control_c, 0, 64, 57
2, 240855, Note_on_c, 0, 80, 55
2, 240905, Note_on_c, 0, 58, 0
2, 240912, Control_c, 0, 64, 56
2, 241008, Control_c, 0, 64, 56
2, 241085, Control_c, 0, 64, 55
2, 241257, Control_c, 0, 64, 55
2, 241260, Note_on_c, 0, 77, 0
2, 241265, Note_on_c, 0, 54, 49
2, 241266, Note_on_c, 0, 82, 51
2, 241271, Note_on_c, 0, 56, 0
2, 241281, Note_on_c, 0, 78, 46
2, 241310, Note_on_c, 0, 80, 0
2, 241315, Control_c, 0, 64, 54
2, 241373, Control_c, 0, 64, 54
2, 241411, Control_c, 0, 64, 53
2, 241450, Control_c, 0, 64, 52
2, 241649, Note_on_c, 0, 78, 0
2, 241674, Note_on_c, 0, 56, 50
2, 241674, Note_on_c, 0, 80, 49
2, 241687, Note_on_c, 0, 77, 44
2, 241712, Note_on_c, 0, 82, 0
2, 241733, Note_on_c, 0, 54, 0
2, 241948, Control_c, 0, 64, 52
2, 242045, Control_c, 0, 64, 51
2, 242066, Note_on_c, 0, 77, 0
2, 242083, Control_c, 0, 64, 51
2, 242102, Control_c, 0, 64, 49
2, 242111, Note_on_c, 0, 58, 40
2, 242111, Note_on_c, 0, 78, 41
2, 242112, Note_on_c, 0, 56, 0
2, 242122, Control_c, 0, 64, 48
2, 242138, Note_on_c, 0, 75, 33
2, 242141, Control_c, 0, 64, 46
2, 242160, Control_c, 0, 64, 45
2, 242184, Note_on_c, 0, 80, 0
2, 242217, Control_c, 0, 64, 46
2, 242236, Control_c, 0, 64, 49
2, 242256, Control_c, 0, 64, 53
2, 242275, Control_c, 0, 64, 57
2, 242294, Control_c, 0, 64, 60
2, 242313, Control_c, 0, 64, 61
2, 242333, Control_c, 0, 64, 63
2, 242352, Control_c, 0, 64, 64
2, 242371, Control_c, 0, 64, 65
2, 242390, Control_c, 0, 64, 66
2, 242410, Control_c, 0, 64, 67
2, 242428, Control_c, 0, 64, 67
2, 242448, Control_c, 0, 64, 68
2, 242467, Control_c, 0, 64, 69
2, 242487, Control_c, 0, 64, 70
2, 242503, Note_on_c, 0, 78, 0
2, 242505, Control_c, 0, 64, 70
2, 242525, Control_c, 0, 64, 71
2, 242544, Control_c, 0, 64, 71
2, 242546, Note_on_c, 0, 77, 40
2, 242567, Note_on_c, 0, 75, 0
2, 242570, Note_on_c, 0, 74, 38
2, 242659, Control_c, 0, 64, 71
2, 242679, Control_c, 0, 64, 70
2, 242697, Control_c, 0, 64, 70
2, 242716, Control_c, 0, 64, 69
2, 242736, Control_c, 0, 64, 69
2, 242755, Control_c, 0, 64, 68
2, 242793, Control_c, 0, 64, 67
2, 242813, Control_c, 0, 64, 67
2, 242816, Note_on_c, 0, 77, 0
2, 242832, Control_c, 0, 64, 66
2, 242851, Control_c, 0, 64, 66
2, 242870, Control_c, 0, 64, 65
2, 242908, Control_c, 0, 64, 65
2, 242928, Control_c, 0, 64, 64
2, 242947, Control_c, 0, 64, 63
2, 242967, Control_c, 0, 64, 62
2, 242974, Note_on_c, 0, 51, 47
2, 242985, Control_c, 0, 64, 61
2, 242996, Note_on_c, 0, 78, 50
2, 243005, Control_c, 0, 64, 59
2, 243024, Control_c, 0, 64, 58
2, 243027, Note_on_c, 0, 75, 46
2, 243043, Control_c, 0, 64, 56
2, 243045, Note_on_c, 0, 58, 0
2, 243062, Control_c, 0, 64, 55
2, 243082, Control_c, 0, 64, 54
2, 243084, Note_on_c, 0, 74, 0
2, 243101, Control_c, 0, 64, 54
2, 243177, Control_c, 0, 64, 54
2, 243216, Control_c, 0, 64, 55
2, 243350, Control_c, 0, 64, 55
2, 243392, Note_on_c, 0, 73, 56
2, 243792, Control_c, 0, 64, 55
2, 243793, Note_on_c, 0, 73, 0
2, 243809, Note_on_c, 0, 56, 57
2, 243815, Note_on_c, 0, 75, 0
2, 243834, Note_on_c, 0, 77, 45
2, 243849, Note_on_c, 0, 71, 41
2, 243892, Note_on_c, 0, 51, 0
2, 243922, Note_on_c, 0, 78, 0
2, 243945, Control_c, 0, 64, 54
2, 244209, Note_on_c, 0, 71, 0
2, 244225, Note_on_c, 0, 75, 55
2, 244280, Note_on_c, 0, 77, 0
2, 244560, Control_c, 0, 64, 54
2, 244599, Control_c, 0, 64, 53
2, 244617, Control_c, 0, 64, 52
2, 244636, Control_c, 0, 64, 51
2, 244637, Note_on_c, 0, 74, 40
2, 244656, Control_c, 0, 64, 48
2, 244670, Note_on_c, 0, 70, 31
2, 244675, Control_c, 0, 64, 46
2, 244693, Note_on_c, 0, 75, 0
2, 244694, Control_c, 0, 64, 45
2, 244713, Control_c, 0, 64, 46
2, 244733, Control_c, 0, 64, 48
2, 244752, Control_c, 0, 64, 52
2, 244771, Control_c, 0, 64, 54
2, 244790, Control_c, 0, 64, 55
2, 244810, Control_c, 0, 64, 56
2, 244828, Control_c, 0, 64, 58
2, 244848, Control_c, 0, 64, 59
2, 244867, Control_c, 0, 64, 60
2, 244887, Control_c, 0, 64, 61
2, 244905, Control_c, 0, 64, 62
2, 244944, Control_c, 0, 64, 61
2, 244963, Control_c, 0, 64, 59
2, 244982, Control_c, 0, 64, 56
2, 245002, Control_c, 0, 64, 56
2, 245040, Control_c, 0, 64, 57
2, 245049, Note_on_c, 0, 54, 39
2, 245059, Control_c, 0, 64, 59
2, 245061, Note_on_c, 0, 75, 49
2, 245079, Control_c, 0, 64, 61
2, 245097, Control_c, 0, 64, 61
2, 245112, Note_on_c, 0, 56, 0
2, 245116, Control_c, 0, 64, 62
2, 245120, Note_on_c, 0, 74, 0
2, 245155, Control_c, 0, 64, 62
2, 245174, Control_c, 0, 64, 63
2, 245178, Note_on_c, 0, 70, 0
2, 245195, Control_c, 0, 64, 63
2, 245253, Control_c, 0, 64, 64
2, 245368, Control_c, 0, 64, 63
2, 245407, Control_c, 0, 64, 62
2, 245426, Control_c, 0, 64, 62
2, 245445, Control_c, 0, 64, 60
2, 245453, Note_on_c, 0, 68, 41
2, 245459, Note_on_c, 0, 53, 34
2, 245464, Control_c, 0, 64, 59
2, 245464, Note_on_c, 0, 54, 0
2, 245484, Control_c, 0, 64, 57
2, 245502, Control_c, 0, 64, 55
2, 245522, Control_c, 0, 64, 53
2, 245541, Control_c, 0, 64, 50
2, 245561, Control_c, 0, 64, 47
2, 245579, Control_c, 0, 64, 42
2, 245599, Control_c, 0, 64, 38
2, 245618, Control_c, 0, 64, 35
2, 245637, Control_c, 0, 64, 32
2, 245656, Control_c, 0, 64, 30
2, 245675, Control_c, 0, 64, 29
2, 245733, Control_c, 0, 64, 30
2, 245752, Control_c, 0, 64, 36
2, 245772, Control_c, 0, 64, 43
2, 245790, Control_c, 0, 64, 51
2, 245810, Control_c, 0, 64, 58
2, 245829, Control_c, 0, 64, 61
2, 245848, Control_c, 0, 64, 63
2, 245867, Control_c, 0, 64, 64
2, 245887, Control_c, 0, 64, 64
2, 245893, Note_on_c, 0, 74, 41
2, 245906, Control_c, 0, 64, 65
2, 245919, Note_on_c, 0, 75, 0
2, 245925, Control_c, 0, 64, 66
2, 245928, Note_on_c, 0, 68, 0
2, 245944, Control_c, 0, 64, 67
2, 245964, Control_c, 0, 64, 67
2, 246002, Control_c, 0, 64, 68
2, 246059, Control_c, 0, 64, 68
2, 246212, Control_c, 0, 64, 68
2, 246249, Control_c, 0, 64, 67
2, 246287, Control_c, 0, 64, 66
2, 246306, Control_c, 0, 64, 65
2, 246326, Control_c, 0, 64, 64
2, 246329, Note_on_c, 0, 51, 33
2, 246335, Note_on_c, 0, 74, 0
2, 246344, Control_c, 0, 64, 62
2, 246345, Note_on_c, 0, 66, 24
2, 246347, Note_on_c, 0, 75, 39
2, 246364, Control_c, 0, 64, 59
2, 246381, Note_on_c, 0, 53, 0
2, 246383, Control_c, 0, 64, 53
2, 246403, Control_c, 0, 64, 47
2, 246421, Control_c, 0, 64, 40
2, 246443, Control_c, 0, 64, 35
2, 246463, Control_c, 0, 64, 34
2, 246501, Control_c, 0, 64, 34
2, 246520, Control_c, 0, 64, 37
2, 246540, Control_c, 0, 64, 43
2, 246558, Control_c, 0, 64, 50
2, 246578, Control_c, 0, 64, 56
2, 246597, Control_c, 0, 64, 60
2, 246616, Control_c, 0, 64, 62
2, 246635, Control_c, 0, 64, 63
2, 246655, Control_c, 0, 64, 64
2, 246674, Control_c, 0, 64, 65
2, 246693, Control_c, 0, 64, 66
2, 246712, Control_c, 0, 64, 67
2, 246732, Control_c, 0, 64, 67
2, 246750, Control_c, 0, 64, 68
2, 246760, Note_on_c, 0, 73, 43
2, 246764, Note_on_c, 0, 75, 0
2, 246769, Control_c, 0, 64, 68
2, 246819, Note_on_c, 0, 73, 0
2, 247020, Control_c, 0, 64, 68
2, 247058, Control_c, 0, 64, 67
2, 247096, Control_c, 0, 64, 67
2, 247109, Note_on_c, 0, 66, 0
2, 247114, Control_c, 0, 64, 66
2, 247134, Control_c, 0, 64, 65
2, 247148, Note_on_c, 0, 71, 39
2, 247153, Control_c, 0, 64, 65
2, 247155, Note_on_c, 0, 68, 34
2, 247172, Control_c, 0, 64, 64
2, 247184, Note_on_c, 0, 63, 36
2, 247191, Control_c, 0, 64, 63
2, 247211, Control_c, 0, 64, 62
2, 247228, Note_on_c, 0, 51, 0
2, 247230, Control_c, 0, 64, 60
2, 247248, Control_c, 0, 64, 59
2, 247268, Control_c, 0, 64, 57
2, 247287, Control_c, 0, 64, 56
2, 247306, Control_c, 0, 64, 54
2, 247325, Control_c, 0, 64, 53
2, 247345, Control_c, 0, 64, 52
2, 247364, Control_c, 0, 64, 52
2, 247460, Control_c, 0, 64, 51
2, 247580, Note_on_c, 0, 66, 35
2, 247594, Control_c, 0, 64, 52
2, 247671, Control_c, 0, 64, 52
2, 247974, Note_on_c, 0, 68, 0
2, 247975, Note_on_c, 0, 66, 0
2, 247979, Control_c, 0, 64, 52
2, 248000, Note_on_c, 0, 62, 28
2, 248004, Note_on_c, 0, 63, 0
2, 248005, Note_on_c, 0, 65, 36
2, 248017, Control_c, 0, 64, 51
2, 248078, Control_c, 0, 64, 51
2, 248098, Control_c, 0, 64, 50
2, 248116, Control_c, 0, 64, 50
2, 248136, Control_c, 0, 64, 49
2, 248151, Control_c, 0, 64, 49
2, 248190, Control_c, 0, 64, 48
2, 248208, Control_c, 0, 64, 48
2, 248266, Control_c, 0, 64, 47
2, 248324, Control_c, 0, 64, 47
2, 248378, Note_on_c, 0, 71, 0
2, 248380, Note_on_c, 0, 65, 0
2, 248405, Note_on_c, 0, 70, 44
2, 248547, Note_on_c, 0, 70, 0
2, 248593, Control_c, 0, 64, 47
2, 248597, Note_on_c, 0, 68, 37
2, 248746, Control_c, 0, 64, 48
2, 248804, Control_c, 0, 64, 48
2, 248814, Note_on_c, 0, 68, 0
2, 248819, Note_on_c, 0, 70, 47
2, 248842, Control_c, 0, 64, 49
2, 248847, Note_on_c, 0, 62, 0
2, 248856, Note_on_c, 0, 61, 28
2, 248862, Control_c, 0, 64, 50
2, 248880, Control_c, 0, 64, 50
2, 248900, Control_c, 0, 64, 51
2, 248919, Control_c, 0, 64, 52
2, 248939, Control_c, 0, 64, 53
2, 248957, Control_c, 0, 64, 55
2, 248977, Control_c, 0, 64, 57
2, 248996, Control_c, 0, 64, 58
2, 249016, Control_c, 0, 64, 58
2, 249035, Control_c, 0, 64, 59
2, 249055, Control_c, 0, 64, 60
2, 249074, Control_c, 0, 64, 61
2, 249093, Control_c, 0, 64, 62
2, 249111, Control_c, 0, 64, 62
2, 249150, Control_c, 0, 64, 63
2, 249172, Note_on_c, 0, 70, 0
2, 249190, Note_on_c, 0, 71, 48
2, 249220, Note_on_c, 0, 63, 44
2, 249245, Control_c, 0, 64, 62
2, 249265, Control_c, 0, 64, 62
2, 249286, Note_on_c, 0, 61, 0
2, 249303, Control_c, 0, 64, 61
2, 249322, Control_c, 0, 64, 60
2, 249333, Note_on_c, 0, 63, 0
2, 249360, Control_c, 0, 64, 60
2, 249376, Note_on_c, 0, 73, 60
2, 249389, Note_on_c, 0, 71, 0
2, 249405, Note_on_c, 0, 65, 37
2, 249437, Control_c, 0, 64, 59
2, 249514, Control_c, 0, 64, 59
2, 249534, Control_c, 0, 64, 57
2, 249553, Control_c, 0, 64, 54
2, 249572, Control_c, 0, 64, 49
2, 249591, Control_c, 0, 64, 45
2, 249608, Note_on_c, 0, 65, 0
2, 249611, Control_c, 0, 64, 44
2, 249612, Note_on_c, 0, 75, 63
2, 249648, Control_c, 0, 64, 45
2, 249653, Note_on_c, 0, 66, 36
2, 249657, Note_on_c, 0, 60, 34
2, 249660, Note_on_c, 0, 73, 0
2, 249668, Control_c, 0, 64, 46
2, 249687, Control_c, 0, 64, 47
2, 249706, Control_c, 0, 64, 50
2, 249725, Control_c, 0, 64, 51
2, 249745, Control_c, 0, 64, 51
2, 249764, Control_c, 0, 64, 52
2, 249783, Control_c, 0, 64, 53
2, 249802, Control_c, 0, 64, 54
2, 249822, Control_c, 0, 64, 56
2, 249840, Control_c, 0, 64, 57
2, 249860, Control_c, 0, 64, 58
2, 249879, Control_c, 0, 64, 59
2, 249899, Control_c, 0, 64, 60
2, 249917, Control_c, 0, 64, 61
2, 249937, Control_c, 0, 64, 62
2, 249956, Control_c, 0, 64, 62
2, 249996, Control_c, 0, 64, 63
2, 250030, Note_on_c, 0, 75, 0
2, 250030, Note_on_c, 0, 77, 64
2, 250036, Note_on_c, 0, 68, 44
2, 250040, Note_on_c, 0, 66, 0
2, 250146, Note_on_c, 0, 60, 0
2, 250166, Control_c, 0, 64, 62
2, 250183, Note_on_c, 0, 68, 0
2, 250204, Control_c, 0, 64, 62
2, 250215, Note_on_c, 0, 70, 47
2, 250217, Note_on_c, 0, 78, 66
2, 250242, Note_on_c, 0, 77, 0
2, 250243, Control_c, 0, 64, 61
2, 250262, Control_c, 0, 64, 61
2, 250281, Control_c, 0, 64, 60
2, 250339, Control_c, 0, 64, 60
2, 250358, Control_c, 0, 64, 59
2, 250378, Control_c, 0, 64, 59
2, 250396, Control_c, 0, 64, 58
2, 250416, Control_c, 0, 64, 57
2, 250435, Control_c, 0, 64, 56
2, 250449, Note_on_c, 0, 70, 0
2, 250455, Control_c, 0, 64, 55
2, 250473, Control_c, 0, 64, 53
2, 250477, Note_on_c, 0, 77, 57
2, 250492, Note_on_c, 0, 68, 41
2, 250493, Control_c, 0, 64, 51
2, 250493, Note_on_c, 0, 59, 38
2, 250512, Control_c, 0, 64, 48
2, 250530, Control_c, 0, 64, 42
2, 250550, Control_c, 0, 64, 30
2, 250550, Note_on_c, 0, 78, 0
2, 250569, Control_c, 0, 64, 0
2, 250646, Control_c, 0, 64, 20
2, 250665, Control_c, 0, 64, 43
2, 250684, Control_c, 0, 64, 55
2, 250704, Control_c, 0, 64, 61
2, 250723, Control_c, 0, 64, 62
2, 250742, Control_c, 0, 64, 63
2, 250761, Control_c, 0, 64, 64
2, 250781, Control_c, 0, 64, 64
2, 250800, Control_c, 0, 64, 65
2, 250819, Control_c, 0, 64, 65
2, 250858, Control_c, 0, 64, 66
2, 250915, Control_c, 0, 64, 66
2, 250935, Control_c, 0, 64, 67
2, 250955, Control_c, 0, 64, 67
2, 250975, Control_c, 0, 64, 68
2, 250994, Control_c, 0, 64, 69
2, 251013, Control_c, 0, 64, 70
2, 251023, Note_on_c, 0, 68, 0
2, 251050, Control_c, 0, 64, 70
2, 251059, Note_on_c, 0, 59, 0
2, 251088, Control_c, 0, 64, 71
2, 251098, Note_on_c, 0, 75, 52
2, 251108, Control_c, 0, 64, 71
2, 251115, Note_on_c, 0, 66, 31
2, 251120, Note_on_c, 0, 77, 0
2, 251127, Control_c, 0, 64, 72
2, 251146, Control_c, 0, 64, 73
2, 251156, Note_on_c, 0, 66, 0
2, 251162, Note_on_c, 0, 75, 0
2, 251165, Control_c, 0, 64, 74
2, 251185, Control_c, 0, 64, 74
2, 251204, Control_c, 0, 64, 75
2, 251204, Note_on_c, 0, 68, 50
2, 251280, Control_c, 0, 64, 73
2, 251297, Note_on_c, 0, 68, 0
2, 251300, Control_c, 0, 64, 66
2, 251319, Control_c, 0, 64, 52
2, 251339, Control_c, 0, 64, 32
2, 251344, Note_on_c, 0, 74, 51
2, 251355, Note_on_c, 0, 70, 41
2, 251357, Control_c, 0, 64, 9
2, 251367, Note_on_c, 0, 58, 50
2, 251377, Control_c, 0, 64, 0
2, 251396, Control_c, 0, 64, 29
2, 251416, Control_c, 0, 64, 49
2, 251434, Control_c, 0, 64, 59
2, 251454, Control_c, 0, 64, 63
2, 251473, Control_c, 0, 64, 65
2, 251492, Control_c, 0, 64, 66
2, 251511, Control_c, 0, 64, 67
2, 251511, Note_on_c, 0, 58, 0
2, 251528, Note_on_c, 0, 74, 0
2, 251530, Control_c, 0, 64, 67
2, 251550, Control_c, 0, 64, 68
2, 251568, Control_c, 0, 64, 68
2, 251588, Control_c, 0, 64, 69
2, 251665, Control_c, 0, 64, 70
2, 251684, Control_c, 0, 64, 70
2, 251703, Control_c, 0, 64, 70
2, 251722, Control_c, 0, 64, 64
2, 251742, Control_c, 0, 64, 52
2, 251760, Control_c, 0, 64, 33
2, 251760, Note_on_c, 0, 68, 56
2, 251765, Note_on_c, 0, 46, 65
2, 251780, Control_c, 0, 64, 25
2, 251799, Control_c, 0, 64, 29
2, 251799, Note_on_c, 0, 70, 0
2, 251819, Control_c, 0, 64, 45
2, 251837, Control_c, 0, 64, 58
2, 251857, Control_c, 0, 64, 63
2, 251876, Control_c, 0, 64, 66
2, 251896, Control_c, 0, 64, 68
2, 251918, Control_c, 0, 64, 71
2, 251938, Control_c, 0, 64, 74
2, 251956, Control_c, 0, 64, 76
2, 251976, Control_c, 0, 64, 77
2, 252002, Note_on_c, 0, 46, 0
2, 252013, Control_c, 0, 64, 77
2, 252089, Control_c, 0, 64, 77
2, 252127, Control_c, 0, 64, 78
2, 252185, Control_c, 0, 64, 77
2, 252224, Control_c, 0, 64, 77
2, 252256, Note_on_c, 0, 51, 65
2, 252263, Note_on_c, 0, 75, 52
2, 252281, Control_c, 0, 64, 76
2, 252285, Note_on_c, 0, 66, 34
2, 252301, Control_c, 0, 64, 71
2, 252319, Control_c, 0, 64, 64
2, 252339, Control_c, 0, 64, 51
2, 252358, Control_c, 0, 64, 29
2, 252377, Control_c, 0, 64, 0
2, 252377, Note_on_c, 0, 68, 0
2, 252473, Control_c, 0, 64, 17
2, 252493, Control_c, 0, 64, 42
2, 252511, Control_c, 0, 64, 53
2, 252530, Control_c, 0, 64, 58
2, 252550, Control_c, 0, 64, 60
2, 252566, Note_on_c, 0, 66, 0
2, 252569, Control_c, 0, 64, 61
2, 252588, Control_c, 0, 64, 62
2, 252607, Control_c, 0, 64, 63
2, 252627, Control_c, 0, 64, 63
2, 252665, Control_c, 0, 64, 64
2, 252669, Note_on_c, 0, 75, 0
2, 252684, Control_c, 0, 64, 65
2, 252698, Note_on_c, 0, 73, 48
2, 252704, Control_c, 0, 64, 66
2, 252705, Note_on_c, 0, 65, 38
2, 252722, Control_c, 0, 64, 67
2, 252742, Control_c, 0, 64, 69
2, 252761, Control_c, 0, 64, 70
2, 252781, Control_c, 0, 64, 71
2, 252786, Note_on_c, 0, 65, 0
2, 252972, Control_c, 0, 64, 70
2, 252990, Control_c, 0, 64, 70
2, 253009, Control_c, 0, 64, 68
2, 253029, Control_c, 0, 64, 64
2, 253048, Control_c, 0, 64, 59
2, 253067, Control_c, 0, 64, 55
2, 253076, Note_on_c, 0, 73, 0
2, 253086, Control_c, 0, 64, 51
2, 253099, Note_on_c, 0, 71, 46
2, 253106, Control_c, 0, 64, 50
2, 253144, Control_c, 0, 64, 51
2, 253144, Note_on_c, 0, 63, 39
2, 253163, Control_c, 0, 64, 52
2, 253183, Control_c, 0, 64, 55
2, 253201, Control_c, 0, 64, 57
2, 253221, Control_c, 0, 64, 59
2, 253240, Control_c, 0, 64, 61
2, 253260, Control_c, 0, 64, 61
2, 253278, Control_c, 0, 64, 62
2, 253317, Control_c, 0, 64, 62
2, 253375, Control_c, 0, 64, 62
2, 253432, Control_c, 0, 64, 61
2, 253452, Control_c, 0, 64, 61
2, 253489, Control_c, 0, 64, 60
2, 253500, Note_on_c, 0, 71, 0
2, 253518, Note_on_c, 0, 54, 60
2, 253525, Note_on_c, 0, 70, 53
2, 253583, Note_on_c, 0, 51, 0
2, 253624, Control_c, 0, 64, 60
2, 253663, Control_c, 0, 64, 59
2, 253701, Control_c, 0, 64, 59
2, 253835, Control_c, 0, 64, 58
2, 253861, Note_on_c, 0, 63, 0
2, 253874, Control_c, 0, 64, 57
2, 253904, Note_on_c, 0, 53, 61
2, 253922, Note_on_c, 0, 62, 43
2, 253930, Note_on_c, 0, 68, 51
2, 253932, Control_c, 0, 64, 57
2, 253949, Note_on_c, 0, 54, 0
2, 253950, Control_c, 0, 64, 56
2, 253969, Control_c, 0, 64, 56
2, 253987, Note_on_c, 0, 70, 0
2, 253989, Control_c, 0, 64, 55
2, 254008, Control_c, 0, 64, 55
2, 254027, Control_c, 0, 64, 54
2, 254046, Control_c, 0, 64, 53
2, 254066, Control_c, 0, 64, 52
2, 254085, Control_c, 0, 64, 51
2, 254123, Control_c, 0, 64, 51
2, 254314, Note_on_c, 0, 51, 53
2, 254335, Note_on_c, 0, 66, 46
2, 254338, Note_on_c, 0, 62, 0
2, 254354, Note_on_c, 0, 63, 41
2, 254360, Note_on_c, 0, 53, 0
2, 254386, Note_on_c, 0, 68, 0
2, 254719, Note_on_c, 0, 50, 55
2, 254742, Note_on_c, 0, 65, 52
2, 254742, Note_on_c, 0, 66, 0
2, 254745, Note_on_c, 0, 63, 0
2, 254762, Note_on_c, 0, 51, 0
2, 255147, Note_on_c, 0, 51, 45
2, 255150, Note_on_c, 0, 66, 43
2, 255153, Note_on_c, 0, 65, 0
2, 255172, Note_on_c, 0, 63, 43
2, 255218, Note_on_c, 0, 50, 0
2, 255525, Control_c, 0, 64, 50
2, 255527, Note_on_c, 0, 63, 0
2, 255558, Note_on_c, 0, 62, 42
2, 255562, Note_on_c, 0, 53, 52
2, 255562, Note_on_c, 0, 68, 45
2, 255563, Control_c, 0, 64, 50
2, 255575, Note_on_c, 0, 66, 0
2, 255583, Control_c, 0, 64, 49
2, 255601, Control_c, 0, 64, 49
2, 255607, Note_on_c, 0, 51, 0
2, 255621, Control_c, 0, 64, 48
2, 255678, Control_c, 0, 64, 48
2, 255756, Control_c, 0, 64, 48
2, 255776, Control_c, 0, 64, 50
2, 255795, Control_c, 0, 64, 51
2, 255814, Control_c, 0, 64, 54
2, 255832, Control_c, 0, 64, 56
2, 255851, Control_c, 0, 64, 58
2, 255870, Control_c, 0, 64, 59
2, 255889, Control_c, 0, 64, 60
2, 255909, Control_c, 0, 64, 61
2, 255928, Control_c, 0, 64, 62
2, 255947, Control_c, 0, 64, 62
2, 255966, Control_c, 0, 64, 63
2, 255986, Control_c, 0, 64, 63
2, 255990, Note_on_c, 0, 62, 0
2, 256005, Control_c, 0, 64, 64
2, 256005, Note_on_c, 0, 60, 44
2, 256024, Control_c, 0, 64, 65
2, 256063, Control_c, 0, 64, 65
2, 256120, Control_c, 0, 64, 66
2, 256197, Control_c, 0, 64, 66
2, 256295, Control_c, 0, 64, 66
2, 256391, Note_on_c, 0, 60, 0
2, 256392, Control_c, 0, 64, 65
2, 256405, Note_on_c, 0, 62, 47
2, 256410, Note_on_c, 0, 46, 62
2, 256411, Control_c, 0, 64, 63
2, 256430, Control_c, 0, 64, 59
2, 256446, Note_on_c, 0, 53, 0
2, 256449, Control_c, 0, 64, 54
2, 256469, Control_c, 0, 64, 46
2, 256488, Control_c, 0, 64, 33
2, 256507, Control_c, 0, 64, 0
2, 256584, Control_c, 0, 64, 19
2, 256603, Control_c, 0, 64, 37
2, 256622, Control_c, 0, 64, 48
2, 256641, Control_c, 0, 64, 55
2, 256660, Control_c, 0, 64, 59
2, 256680, Control_c, 0, 64, 61
2, 256698, Control_c, 0, 64, 62
2, 256718, Control_c, 0, 64, 63
2, 256737, Control_c, 0, 64, 63
2, 256757, Control_c, 0, 64, 64
2, 256775, Control_c, 0, 64, 64
2, 256785, Note_on_c, 0, 68, 0
2, 256795, Control_c, 0, 64, 65
2, 256805, Note_on_c, 0, 66, 42
2, 256814, Control_c, 0, 64, 65
2, 256818, Note_on_c, 0, 62, 0
2, 256833, Control_c, 0, 64, 66
2, 256891, Control_c, 0, 64, 66
2, 256957, Note_on_c, 0, 66, 0
2, 256975, Note_on_c, 0, 65, 51
2, 257140, Control_c, 0, 64, 66
2, 257217, Control_c, 0, 64, 65
2, 257222, Note_on_c, 0, 65, 0
2, 257237, Control_c, 0, 64, 64
2, 257255, Control_c, 0, 64, 64
2, 257258, Note_on_c, 0, 51, 62
2, 257265, Note_on_c, 0, 66, 49
2, 257275, Control_c, 0, 64, 62
2, 257276, Note_on_c, 0, 63, 46
2, 257294, Control_c, 0, 64, 61
2, 257313, Control_c, 0, 64, 57
2, 257322, Note_on_c, 0, 46, 0
2, 257332, Control_c, 0, 64, 51
2, 257352, Control_c, 0, 64, 45
2, 257371, Control_c, 0, 64, 38
2, 257390, Control_c, 0, 64, 33
2, 257409, Control_c, 0, 64, 30
2, 257429, Control_c, 0, 64, 28
2, 257563, Control_c, 0, 64, 29
2, 257582, Control_c, 0, 64, 29
2, 257601, Control_c, 0, 64, 30
2, 257620, Control_c, 0, 64, 31
2, 257640, Control_c, 0, 64, 33
2, 257642, Note_on_c, 0, 63, 0
2, 257645, Note_on_c, 0, 66, 0
2, 257658, Control_c, 0, 64, 35
2, 257660, Note_on_c, 0, 65, 44
2, 257674, Note_on_c, 0, 68, 47
2, 257680, Control_c, 0, 64, 36
2, 257699, Control_c, 0, 64, 36
2, 257737, Control_c, 0, 64, 37
2, 258043, Control_c, 0, 64, 36
2, 258056, Note_on_c, 0, 65, 0
2, 258081, Control_c, 0, 64, 36
2, 258096, Note_on_c, 0, 70, 52
2, 258108, Note_on_c, 0, 66, 43
2, 258115, Note_on_c, 0, 68, 0
2, 258177, Control_c, 0, 64, 38
2, 258197, Control_c, 0, 64, 44
2, 258215, Control_c, 0, 64, 51
2, 258235, Control_c, 0, 64, 56
2, 258254, Control_c, 0, 64, 59
2, 258273, Control_c, 0, 64, 59
2, 258292, Control_c, 0, 64, 60
2, 258312, Control_c, 0, 64, 60
2, 258331, Control_c, 0, 64, 61
2, 258350, Control_c, 0, 64, 62
2, 258369, Control_c, 0, 64, 62
2, 258389, Control_c, 0, 64, 63
2, 258408, Control_c, 0, 64, 64
2, 258427, Control_c, 0, 64, 64
2, 258446, Control_c, 0, 64, 65
2, 258466, Control_c, 0, 64, 65
2, 258484, Control_c, 0, 64, 66
2, 258498, Note_on_c, 0, 49, 58
2, 258500, Note_on_c, 0, 66, 0
2, 258504, Control_c, 0, 64, 67
2, 258523, Control_c, 0, 64, 68
2, 258536, Note_on_c, 0, 70, 0
2, 258542, Control_c, 0, 64, 69
2, 258554, Note_on_c, 0, 51, 0
2, 258618, Control_c, 0, 64, 69
2, 258792, Control_c, 0, 64, 69
2, 258830, Control_c, 0, 64, 68
2, 258849, Control_c, 0, 64, 68
2, 258869, Control_c, 0, 64, 67
2, 258888, Control_c, 0, 64, 66
2, 258899, Note_on_c, 0, 68, 52
2, 258901, Note_on_c, 0, 71, 59
2, 258907, Control_c, 0, 64, 64
2, 258926, Control_c, 0, 64, 63
2, 258927, Note_on_c, 0, 49, 0
2, 258931, Note_on_c, 0, 47, 49
2, 258946, Control_c, 0, 64, 61
2, 258964, Control_c, 0, 64, 59
2, 258984, Control_c, 0, 64, 57
2, 259003, Control_c, 0, 64, 54
2, 259022, Control_c, 0, 64, 52
2, 259041, Control_c, 0, 64, 51
2, 259060, Control_c, 0, 64, 51
2, 259080, Control_c, 0, 64, 50
2, 259098, Control_c, 0, 64, 49
2, 259118, Control_c, 0, 64, 48
2, 259137, Control_c, 0, 64, 47
2, 259175, Control_c, 0, 64, 46
2, 259195, Control_c, 0, 64, 45
2, 259214, Control_c, 0, 64, 45
2, 259233, Control_c, 0, 64, 44
2, 259313, Note_on_c, 0, 68, 0
2, 259317, Note_on_c, 0, 71, 0
2, 259329, Note_on_c, 0, 73, 54
2, 259334, Note_on_c, 0, 66, 40
2, 259387, Control_c, 0, 64, 45
2, 259406, Control_c, 0, 64, 46
2, 259426, Control_c, 0, 64, 46
2, 259444, Control_c, 0, 64, 47
2, 259483, Control_c, 0, 64, 47
2, 259501, Note_on_c, 0, 75, 57
2, 259564, Note_on_c, 0, 73, 0
2, 259666, Note_on_c, 0, 75, 0
2, 259676, Control_c, 0, 64, 48
2, 259714, Control_c, 0, 64, 48
2, 259733, Control_c, 0, 64, 49
2, 259743, Note_on_c, 0, 68, 47
2, 259791, Note_on_c, 0, 65, 32
2, 259816, Note_on_c, 0, 66, 0
2, 259945, Control_c, 0, 64, 49
2, 259964, Control_c, 0, 64, 50
2, 259983, Control_c, 0, 64, 51
2, 260002, Control_c, 0, 64, 52
2, 260021, Control_c, 0, 64, 53
2, 260041, Control_c, 0, 64, 55
2, 260059, Control_c, 0, 64, 56
2, 260079, Control_c, 0, 64, 57
2, 260098, Control_c, 0, 64, 59
2, 260118, Control_c, 0, 64, 60
2, 260128, Note_on_c, 0, 65, 0
2, 260136, Control_c, 0, 64, 61
2, 260156, Control_c, 0, 64, 62
2, 260172, Note_on_c, 0, 61, 38
2, 260175, Control_c, 0, 64, 62
2, 260444, Control_c, 0, 64, 62
2, 260501, Control_c, 0, 64, 61
2, 260521, Control_c, 0, 64, 59
2, 260523, Note_on_c, 0, 61, 0
2, 260539, Control_c, 0, 64, 55
2, 260559, Control_c, 0, 64, 47
2, 260572, Note_on_c, 0, 66, 47
2, 260578, Control_c, 0, 64, 37
2, 260588, Note_on_c, 0, 46, 28
2, 260597, Note_on_c, 0, 47, 0
2, 260598, Control_c, 0, 64, 25
2, 260611, Note_on_c, 0, 68, 0
2, 260616, Control_c, 0, 64, 20
2, 260654, Control_c, 0, 64, 28
2, 260673, Control_c, 0, 64, 44
2, 260692, Control_c, 0, 64, 54
2, 260712, Control_c, 0, 64, 60
2, 260731, Control_c, 0, 64, 62
2, 260750, Control_c, 0, 64, 63
2, 260769, Control_c, 0, 64, 64
2, 260808, Control_c, 0, 64, 65
2, 260846, Control_c, 0, 64, 65
2, 260884, Control_c, 0, 64, 66
2, 260901, Control_c, 0, 64, 67
2, 260920, Control_c, 0, 64, 67
2, 260940, Control_c, 0, 64, 68
2, 260958, Control_c, 0, 64, 69
2, 260978, Control_c, 0, 64, 70
2, 260984, Note_on_c, 0, 70, 47
2, 260997, Control_c, 0, 64, 70
2, 261016, Control_c, 0, 64, 71
2, 261035, Control_c, 0, 64, 71
2, 261050, Note_on_c, 0, 70, 0
2, 261112, Control_c, 0, 64, 72
2, 261285, Control_c, 0, 64, 71
2, 261381, Control_c, 0, 64, 71
2, 261400, Control_c, 0, 64, 69
2, 261420, Control_c, 0, 64, 67
2, 261429, Note_on_c, 0, 71, 34
2, 261438, Control_c, 0, 64, 65
2, 261440, Note_on_c, 0, 46, 0
2, 261458, Control_c, 0, 64, 62
2, 261465, Note_on_c, 0, 44, 23
2, 261477, Control_c, 0, 64, 61
2, 261496, Control_c, 0, 64, 59
2, 261515, Control_c, 0, 64, 58
2, 261535, Control_c, 0, 64, 56
2, 261554, Control_c, 0, 64, 54
2, 261572, Control_c, 0, 64, 53
2, 261591, Control_c, 0, 64, 52
2, 261630, Control_c, 0, 64, 52
2, 261668, Control_c, 0, 64, 51
2, 261843, Note_on_c, 0, 71, 0
2, 261849, Note_on_c, 0, 73, 36
2, 261862, Note_on_c, 0, 46, 33
2, 261917, Control_c, 0, 64, 51
2, 261977, Note_on_c, 0, 44, 0
2, 262014, Control_c, 0, 64, 50
2, 262051, Control_c, 0, 64, 50
2, 262071, Control_c, 0, 64, 49
2, 262084, Note_on_c, 0, 66, 0
2, 262090, Control_c, 0, 64, 48
2, 262110, Control_c, 0, 64, 48
2, 262205, Control_c, 0, 64, 47
2, 262263, Control_c, 0, 64, 47
2, 262271, Note_on_c, 0, 75, 42
2, 262275, Note_on_c, 0, 47, 36
2, 262290, Note_on_c, 0, 65, 22
2, 262302, Control_c, 0, 64, 46
2, 262316, Note_on_c, 0, 73, 0
2, 262374, Note_on_c, 0, 46, 0
2, 262550, Control_c, 0, 64, 47
2, 262569, Control_c, 0, 64, 49
2, 262589, Control_c, 0, 64, 52
2, 262607, Control_c, 0, 64, 56
2, 262627, Control_c, 0, 64, 59
2, 262646, Control_c, 0, 64, 61
2, 262652, Note_on_c, 0, 65, 0
2, 262666, Control_c, 0, 64, 62
2, 262684, Control_c, 0, 64, 63
2, 262692, Note_on_c, 0, 77, 48
2, 262697, Note_on_c, 0, 49, 27
2, 262699, Note_on_c, 0, 47, 0
2, 262704, Control_c, 0, 64, 63
2, 262723, Control_c, 0, 64, 64
2, 262742, Control_c, 0, 64, 65
2, 262759, Note_on_c, 0, 75, 0
2, 262761, Control_c, 0, 64, 66
2, 262781, Control_c, 0, 64, 66
2, 262800, Control_c, 0, 64, 67
2, 262819, Control_c, 0, 64, 68
2, 262838, Control_c, 0, 64, 68
2, 262861, Note_on_c, 0, 49, 0
2, 262992, Control_c, 0, 64, 68
2, 263030, Control_c, 0, 64, 67
2, 263069, Control_c, 0, 64, 66
2, 263087, Control_c, 0, 64, 66
2, 263103, Note_on_c, 0, 78, 48
2, 263104, Note_on_c, 0, 77, 0
2, 263107, Control_c, 0, 64, 65
2, 263126, Control_c, 0, 64, 65
2, 263132, Note_on_c, 0, 51, 36
2, 263146, Control_c, 0, 64, 64
2, 263164, Control_c, 0, 64, 64
2, 263203, Control_c, 0, 64, 63
2, 263241, Control_c, 0, 64, 63
2, 263299, Control_c, 0, 64, 62
2, 263395, Control_c, 0, 64, 62
2, 263506, Note_on_c, 0, 53, 39
2, 263513, Note_on_c, 0, 80, 63
2, 263528, Control_c, 0, 64, 61
2, 263566, Control_c, 0, 64, 61
2, 263581, Note_on_c, 0, 51, 0
2, 263586, Control_c, 0, 64, 60
2, 263597, Note_on_c, 0, 78, 0
2, 263605, Control_c, 0, 64, 60
2, 263643, Control_c, 0, 64, 59
2, 263701, Control_c, 0, 64, 59
2, 263759, Control_c, 0, 64, 58
2, 263817, Control_c, 0, 64, 58
2, 263874, Control_c, 0, 64, 57
2, 263925, Note_on_c, 0, 53, 0
2, 263928, Note_on_c, 0, 82, 68
2, 263951, Control_c, 0, 64, 57
2, 263954, Note_on_c, 0, 54, 39
2, 263954, Note_on_c, 0, 63, 47
2, 263970, Control_c, 0, 64, 56
2, 263986, Note_on_c, 0, 80, 0
2, 263989, Control_c, 0, 64, 56
2, 264046, Control_c, 0, 64, 56
2, 264258, Control_c, 0, 64, 56
2, 264277, Control_c, 0, 64, 54
2, 264297, Control_c, 0, 64, 53
2, 264315, Control_c, 0, 64, 51
2, 264335, Control_c, 0, 64, 50
2, 264357, Note_on_c, 0, 83, 60
2, 264360, Note_on_c, 0, 56, 34
2, 264374, Control_c, 0, 64, 51
2, 264392, Control_c, 0, 64, 55
2, 264398, Note_on_c, 0, 54, 0
2, 264411, Control_c, 0, 64, 59
2, 264419, Note_on_c, 0, 82, 0
2, 264431, Control_c, 0, 64, 62
2, 264450, Control_c, 0, 64, 63
2, 264470, Control_c, 0, 64, 64
2, 264489, Control_c, 0, 64, 65
2, 264509, Control_c, 0, 64, 66
2, 264527, Control_c, 0, 64, 67
2, 264547, Control_c, 0, 64, 67
2, 264556, Note_on_c, 0, 56, 0
2, 264566, Control_c, 0, 64, 68
2, 264586, Control_c, 0, 64, 68
2, 264662, Control_c, 0, 64, 69
2, 264697, Note_on_c, 0, 83, 0
2, 264701, Control_c, 0, 64, 69
2, 264753, Note_on_c, 0, 63, 0
2, 264758, Control_c, 0, 64, 68
2, 264764, Note_on_c, 0, 58, 48
2, 264764, Note_on_c, 0, 61, 52
2, 264778, Control_c, 0, 64, 68
2, 264796, Control_c, 0, 64, 67
2, 264816, Control_c, 0, 64, 66
2, 264835, Control_c, 0, 64, 65
2, 264855, Control_c, 0, 64, 64
2, 264873, Control_c, 0, 64, 64
2, 264950, Control_c, 0, 64, 63
2, 265161, Control_c, 0, 64, 63
2, 265163, Note_on_c, 0, 73, 66
2, 265171, Note_on_c, 0, 61, 0
2, 265181, Note_on_c, 0, 58, 0
2, 265182, Note_on_c, 0, 56, 39
2, 265188, Note_on_c, 0, 65, 38
2, 265200, Control_c, 0, 64, 62
2, 265219, Control_c, 0, 64, 62
2, 265258, Control_c, 0, 64, 61
2, 265296, Control_c, 0, 64, 61
2, 265335, Control_c, 0, 64, 60
2, 265430, Control_c, 0, 64, 60
2, 265586, Note_on_c, 0, 58, 44
2, 265590, Note_on_c, 0, 65, 0
2, 265591, Note_on_c, 0, 78, 64
2, 265599, Note_on_c, 0, 66, 40
2, 265603, Control_c, 0, 64, 59
2, 265656, Note_on_c, 0, 73, 0
2, 265661, Control_c, 0, 64, 59
2, 265722, Note_on_c, 0, 56, 0
2, 265738, Control_c, 0, 64, 58
2, 265815, Control_c, 0, 64, 58
2, 265910, Control_c, 0, 64, 57
2, 265929, Control_c, 0, 64, 57
2, 265967, Control_c, 0, 64, 56
2, 265987, Note_on_c, 0, 68, 60
2, 265995, Note_on_c, 0, 59, 57
2, 266026, Control_c, 0, 64, 56
2, 266044, Control_c, 0, 64, 55
2, 266048, Note_on_c, 0, 58, 0
2, 266064, Control_c, 0, 64, 55
2, 266071, Note_on_c, 0, 66, 0
2, 266083, Control_c, 0, 64, 54
2, 266102, Control_c, 0, 64, 54
2, 266121, Control_c, 0, 64, 53
2, 266141, Control_c, 0, 64, 53
2, 266160, Control_c, 0, 64, 52
2, 266179, Control_c, 0, 64, 51
2, 266198, Control_c, 0, 64, 51
2, 266218, Control_c, 0, 64, 50
2, 266236, Control_c, 0, 64, 50
2, 266256, Control_c, 0, 64, 49
2, 266275, Control_c, 0, 64, 49
2, 266295, Control_c, 0, 64, 48
2, 266315, Control_c, 0, 64, 48
2, 266335, Control_c, 0, 64, 47
2, 266354, Control_c, 0, 64, 46
2, 266372, Control_c, 0, 64, 45
2, 266390, Control_c, 0, 64, 42
2, 266409, Control_c, 0, 64, 38
2, 266410, Note_on_c, 0, 70, 55
2, 266428, Note_on_c, 0, 61, 59
2, 266429, Control_c, 0, 64, 34
2, 266439, Note_on_c, 0, 59, 0
2, 266447, Control_c, 0, 64, 31
2, 266458, Note_on_c, 0, 68, 0
2, 266506, Control_c, 0, 64, 34
2, 266524, Control_c, 0, 64, 39
2, 266544, Control_c, 0, 64, 45
2, 266563, Control_c, 0, 64, 51
2, 266582, Control_c, 0, 64, 56
2, 266601, Control_c, 0, 64, 58
2, 266621, Control_c, 0, 64, 59
2, 266640, Control_c, 0, 64, 60
2, 266659, Control_c, 0, 64, 61
2, 266678, Control_c, 0, 64, 62
2, 266698, Control_c, 0, 64, 62
2, 266716, Control_c, 0, 64, 63
2, 266755, Control_c, 0, 64, 63
2, 266775, Control_c, 0, 64, 64
2, 266812, Control_c, 0, 64, 64
2, 266816, Note_on_c, 0, 78, 0
2, 266825, Note_on_c, 0, 71, 58
2, 266834, Note_on_c, 0, 70, 0
2, 266870, Control_c, 0, 64, 65
2, 267004, Control_c, 0, 64, 64
2, 267139, Control_c, 0, 64, 64
2, 267216, Control_c, 0, 64, 63
2, 267235, Control_c, 0, 64, 60
2, 267243, Note_on_c, 0, 77, 49
2, 267252, Note_on_c, 0, 49, 60
2, 267253, Note_on_c, 0, 73, 52
2, 267255, Control_c, 0, 64, 54
2, 267269, Note_on_c, 0, 71, 0
2, 267274, Control_c, 0, 64, 44
2, 267293, Control_c, 0, 64, 31
2, 267308, Note_on_c, 0, 61, 0
2, 267313, Control_c, 0, 64, 9
2, 267331, Control_c, 0, 64, 0
2, 267407, Control_c, 0, 64, 31
2, 267427, Control_c, 0, 64, 48
2, 267446, Control_c, 0, 64, 56
2, 267466, Control_c, 0, 64, 60
2, 267484, Control_c, 0, 64, 61
2, 267504, Control_c, 0, 64, 62
2, 267523, Control_c, 0, 64, 62
2, 267542, Control_c, 0, 64, 63
2, 267561, Control_c, 0, 64, 63
2, 267638, Control_c, 0, 64, 64
2, 267676, Note_on_c, 0, 71, 59
2, 267696, Control_c, 0, 64, 64
2, 267716, Note_on_c, 0, 73, 0
2, 267887, Control_c, 0, 64, 65
2, 268061, Control_c, 0, 64, 64
2, 268096, Note_on_c, 0, 70, 58
2, 268099, Control_c, 0, 64, 62
2, 268104, Note_on_c, 0, 42, 64
2, 268106, Note_on_c, 0, 77, 0
2, 268118, Control_c, 0, 64, 56
2, 268138, Control_c, 0, 64, 38
2, 268156, Control_c, 0, 64, 0
2, 268189, Note_on_c, 0, 49, 0
2, 268204, Note_on_c, 0, 71, 0
2, 268273, Control_c, 0, 64, 24
2, 268291, Control_c, 0, 64, 45
2, 268310, Control_c, 0, 64, 55
2, 268329, Control_c, 0, 64, 59
2, 268349, Control_c, 0, 64, 60
2, 268367, Control_c, 0, 64, 61
2, 268387, Control_c, 0, 64, 62
2, 268406, Control_c, 0, 64, 63
2, 268444, Control_c, 0, 64, 64
2, 268483, Control_c, 0, 64, 64
2, 268496, Note_on_c, 0, 68, 64
2, 268502, Control_c, 0, 64, 65
2, 268521, Control_c, 0, 64, 65
2, 268569, Note_on_c, 0, 70, 0
2, 268886, Control_c, 0, 64, 65
2, 268921, Note_on_c, 0, 54, 67
2, 268923, Note_on_c, 0, 75, 58
2, 268924, Control_c, 0, 64, 64
2, 268931, Note_on_c, 0, 66, 51
2, 268935, Note_on_c, 0, 68, 0
2, 268944, Control_c, 0, 64, 59
2, 268963, Control_c, 0, 64, 44
2, 268982, Control_c, 0, 64, 0
2, 269098, Control_c, 0, 64, 27
2, 269116, Control_c, 0, 64, 50
2, 269136, Control_c, 0, 64, 58
2, 269155, Control_c, 0, 64, 61
2, 269175, Control_c, 0, 64, 62
2, 269193, Control_c, 0, 64, 63
2, 269212, Control_c, 0, 64, 63
2, 269232, Control_c, 0, 64, 64
2, 269296, Note_on_c, 0, 66, 0
2, 269299, Note_on_c, 0, 42, 0
2, 269328, Control_c, 0, 64, 64
2, 269352, Note_on_c, 0, 73, 54
2, 269367, Control_c, 0, 64, 65
2, 269367, Note_on_c, 0, 65, 41
2, 269409, Note_on_c, 0, 75, 0
2, 269482, Control_c, 0, 64, 64
2, 269521, Note_on_c, 0, 65, 0
2, 269540, Control_c, 0, 64, 65
2, 269656, Control_c, 0, 64, 64
2, 269674, Control_c, 0, 64, 64
2, 269693, Control_c, 0, 64, 60
2, 269713, Control_c, 0, 64, 50
2, 269731, Control_c, 0, 64, 32
2, 269744, Note_on_c, 0, 72, 55
2, 269751, Control_c, 0, 64, 0
2, 269760, Note_on_c, 0, 63, 43
2, 269766, Note_on_c, 0, 73, 0
2, 269790, Control_c, 0, 64, 19
2, 269808, Control_c, 0, 64, 40
2, 269828, Control_c, 0, 64, 54
2, 269847, Control_c, 0, 64, 60
2, 269866, Control_c, 0, 64, 62
2, 269885, Control_c, 0, 64, 64
2, 269905, Control_c, 0, 64, 65
2, 269924, Control_c, 0, 64, 66
2, 269943, Control_c, 0, 64, 67
2, 269962, Control_c, 0, 64, 68
2, 269982, Control_c, 0, 64, 70
2, 270000, Control_c, 0, 64, 71
2, 270019, Note_on_c, 0, 63, 0
2, 270020, Control_c, 0, 64, 72
2, 270039, Control_c, 0, 64, 73
2, 270059, Control_c, 0, 64, 73
2, 270116, Control_c, 0, 64, 70
2, 270135, Note_on_c, 0, 54, 0
2, 270136, Control_c, 0, 64, 65
2, 270136, Note_on_c, 0, 72, 0
2, 270158, Note_on_c, 0, 74, 54
2, 270161, Control_c, 0, 64, 56
2, 270175, Note_on_c, 0, 65, 48
2, 270181, Control_c, 0, 64, 47
2, 270210, Note_on_c, 0, 53, 47
2, 270219, Control_c, 0, 64, 51
2, 270235, Control_c, 0, 64, 57
2, 270255, Control_c, 0, 64, 61
2, 270273, Control_c, 0, 64, 64
2, 270292, Control_c, 0, 64, 65
2, 270312, Control_c, 0, 64, 68
2, 270330, Control_c, 0, 64, 70
2, 270350, Control_c, 0, 64, 72
2, 270354, Note_on_c, 0, 65, 0
2, 270369, Control_c, 0, 64, 73
2, 270466, Control_c, 0, 64, 74
2, 270504, Control_c, 0, 64, 73
2, 270523, Control_c, 0, 64, 70
2, 270542, Control_c, 0, 64, 64
2, 270561, Control_c, 0, 64, 53
2, 270566, Note_on_c, 0, 75, 69
2, 270570, Note_on_c, 0, 74, 0
2, 270575, Note_on_c, 0, 51, 49
2, 270581, Control_c, 0, 64, 40
2, 270583, Note_on_c, 0, 66, 52
2, 270585, Note_on_c, 0, 53, 0
2, 270600, Control_c, 0, 64, 37
2, 270619, Control_c, 0, 64, 39
2, 270638, Control_c, 0, 64, 48
2, 270658, Control_c, 0, 64, 57
2, 270676, Control_c, 0, 64, 62
2, 270696, Control_c, 0, 64, 64
2, 270715, Control_c, 0, 64, 66
2, 270735, Control_c, 0, 64, 68
2, 270753, Control_c, 0, 64, 69
2, 270767, Note_on_c, 0, 66, 0
2, 270772, Control_c, 0, 64, 70
2, 270792, Control_c, 0, 64, 71
2, 270810, Control_c, 0, 64, 70
2, 270830, Control_c, 0, 64, 70
2, 270869, Control_c, 0, 64, 69
2, 270907, Control_c, 0, 64, 67
2, 270926, Control_c, 0, 64, 63
2, 270946, Control_c, 0, 64, 51
2, 270947, Note_on_c, 0, 77, 69
2, 270964, Control_c, 0, 64, 39
2, 270965, Note_on_c, 0, 70, 56
2, 270970, Note_on_c, 0, 49, 48
2, 270984, Control_c, 0, 64, 33
2, 271003, Control_c, 0, 64, 34
2, 271004, Note_on_c, 0, 75, 0
2, 271013, Note_on_c, 0, 51, 0
2, 271022, Control_c, 0, 64, 43
2, 271041, Control_c, 0, 64, 54
2, 271061, Control_c, 0, 64, 60
2, 271080, Control_c, 0, 64, 63
2, 271099, Control_c, 0, 64, 64
2, 271117, Control_c, 0, 64, 65
2, 271137, Control_c, 0, 64, 66
2, 271155, Control_c, 0, 64, 67
2, 271175, Control_c, 0, 64, 68
2, 271229, Control_c, 0, 64, 68
2, 271344, Control_c, 0, 64, 67
2, 271363, Control_c, 0, 64, 63
2, 271365, Note_on_c, 0, 75, 63
2, 271370, Note_on_c, 0, 78, 68
2, 271372, Note_on_c, 0, 49, 0
2, 271379, Note_on_c, 0, 48, 47
2, 271382, Control_c, 0, 64, 50
2, 271387, Note_on_c, 0, 70, 0
2, 271401, Control_c, 0, 64, 25
2, 271421, Control_c, 0, 64, 0
2, 271421, Note_on_c, 0, 77, 0
2, 271478, Control_c, 0, 64, 37
2, 271498, Control_c, 0, 64, 53
2, 271516, Control_c, 0, 64, 60
2, 271536, Control_c, 0, 64, 63
2, 271555, Control_c, 0, 64, 63
2, 271574, Control_c, 0, 64, 64
2, 271786, Note_on_c, 0, 73, 49
2, 271802, Note_on_c, 0, 46, 40
2, 271804, Control_c, 0, 64, 63
2, 271833, Note_on_c, 0, 48, 0
2, 271843, Control_c, 0, 64, 63
2, 271862, Control_c, 0, 64, 62
2, 272035, Control_c, 0, 64, 62
2, 272054, Control_c, 0, 64, 61
2, 272074, Control_c, 0, 64, 61
2, 272093, Control_c, 0, 64, 60
2, 272131, Control_c, 0, 64, 60
2, 272170, Control_c, 0, 64, 59
2, 272182, Note_on_c, 0, 72, 54
2, 272188, Note_on_c, 0, 77, 64
2, 272190, Control_c, 0, 64, 57
2, 272191, Note_on_c, 0, 75, 0
2, 272196, Note_on_c, 0, 45, 48
2, 272196, Note_on_c, 0, 73, 0
2, 272208, Control_c, 0, 64, 55
2, 272228, Control_c, 0, 64, 52
2, 272232, Note_on_c, 0, 46, 0
2, 272247, Control_c, 0, 64, 49
2, 272266, Control_c, 0, 64, 47
2, 272285, Control_c, 0, 64, 45
2, 272305, Control_c, 0, 64, 44
2, 272323, Note_on_c, 0, 78, 0
2, 272324, Control_c, 0, 64, 43
2, 272477, Control_c, 0, 64, 43
2, 272573, Control_c, 0, 64, 43
2, 272593, Control_c, 0, 64, 44
2, 272600, Note_on_c, 0, 41, 43
2, 272600, Note_on_c, 0, 75, 56
2, 272631, Note_on_c, 0, 45, 0
2, 272650, Control_c, 0, 64, 43
2, 272670, Control_c, 0, 64, 43
2, 272671, Note_on_c, 0, 77, 0
2, 272688, Control_c, 0, 64, 42
2, 272708, Control_c, 0, 64, 41
2, 272880, Control_c, 0, 64, 39
2, 272900, Control_c, 0, 64, 39
2, 272919, Control_c, 0, 64, 38
2, 273000, Note_on_c, 0, 73, 57
2, 273004, Note_on_c, 0, 46, 52
2, 273044, Note_on_c, 0, 75, 0
2, 273073, Control_c, 0, 64, 37
2, 273091, Control_c, 0, 64, 36
2, 273112, Control_c, 0, 64, 35
2, 273127, Note_on_c, 0, 41, 0
2, 273151, Control_c, 0, 64, 35
2, 273381, Control_c, 0, 64, 35
2, 273400, Control_c, 0, 64, 36
2, 273408, Note_on_c, 0, 48, 49
2, 273423, Note_on_c, 0, 75, 68
2, 273448, Note_on_c, 0, 72, 0
2, 273462, Note_on_c, 0, 46, 0
2, 273584, Note_on_c, 0, 73, 0
2, 273819, Note_on_c, 0, 77, 64
2, 273822, Note_on_c, 0, 70, 61
2, 273835, Note_on_c, 0, 49, 56
2, 273868, Note_on_c, 0, 48, 0
2, 273892, Note_on_c, 0, 75, 0
2, 273900, Control_c, 0, 64, 35
2, 273938, Control_c, 0, 64, 34
2, 274071, Control_c, 0, 64, 34
2, 274090, Control_c, 0, 64, 33
2, 274110, Control_c, 0, 64, 32
2, 274128, Control_c, 0, 64, 32
2, 274167, Control_c, 0, 64, 31
2, 274205, Control_c, 0, 64, 31
2, 274209, Note_on_c, 0, 78, 69
2, 274231, Note_on_c, 0, 51, 47
2, 274279, Note_on_c, 0, 77, 0
2, 274282, Control_c, 0, 64, 29
2, 274302, Control_c, 0, 64, 29
2, 274320, Control_c, 0, 64, 28
2, 274323, Note_on_c, 0, 49, 0
2, 274626, Note_on_c, 0, 73, 64
2, 274657, Note_on_c, 0, 51, 0
2, 274664, Note_on_c, 0, 53, 47
2, 274800, Control_c, 0, 64, 29
2, 274897, Control_c, 0, 64, 29
2, 274936, Control_c, 0, 64, 30
2, 274936, Note_on_c, 0, 78, 0
2, 275011, Control_c, 0, 64, 31
2, 275017, Note_on_c, 0, 70, 0
2, 275031, Control_c, 0, 64, 31
2, 275053, Note_on_c, 0, 53, 0
2, 275068, Note_on_c, 0, 51, 39
2, 275088, Control_c, 0, 64, 32
2, 275165, Control_c, 0, 64, 32
2, 275416, Control_c, 0, 64, 32
2, 275446, Note_on_c, 0, 51, 0
2, 275451, Note_on_c, 0, 73, 0
2, 275453, Control_c, 0, 64, 31
2, 275464, Note_on_c, 0, 69, 42
2, 275474, Note_on_c, 0, 72, 42
2, 275483, Note_on_c, 0, 53, 25
2, 275491, Control_c, 0, 64, 31
2, 275511, Control_c, 0, 64, 30
2, 275530, Control_c, 0, 64, 29
2, 275550, Control_c, 0, 64, 29
2, 275626, Control_c, 0, 64, 33
2, 275645, Control_c, 0, 64, 40
2, 275665, Control_c, 0, 64, 48
2, 275684, Control_c, 0, 64, 55
2, 275703, Control_c, 0, 64, 58
2, 275722, Control_c, 0, 64, 60
2, 275742, Control_c, 0, 64, 61
2, 275760, Control_c, 0, 64, 62
2, 275780, Control_c, 0, 64, 63
2, 275799, Control_c, 0, 64, 63
2, 275819, Control_c, 0, 64, 64
2, 275837, Control_c, 0, 64, 65
2, 275843, Note_on_c, 0, 69, 0
2, 275857, Control_c, 0, 64, 65
2, 275876, Control_c, 0, 64, 66
2, 275891, Note_on_c, 0, 72, 0
2, 275896, Control_c, 0, 64, 67
2, 275911, Note_on_c, 0, 41, 25
2, 275915, Control_c, 0, 64, 68
2, 275934, Control_c, 0, 64, 69
2, 275954, Control_c, 0, 64, 71
2, 275972, Control_c, 0, 64, 72
2, 275976, Note_on_c, 0, 53, 0
2, 275991, Control_c, 0, 64, 73
2, 276010, Control_c, 0, 64, 74
2, 276030, Control_c, 0, 64, 75
2, 276048, Control_c, 0, 64, 75
2, 276202, Control_c, 0, 64, 75
2, 276353, Control_c, 0, 64, 74
2, 276359, Note_on_c, 0, 58, 67
2, 276365, Note_on_c, 0, 70, 71
2, 276373, Control_c, 0, 64, 69
2, 276380, Note_on_c, 0, 46, 43
2, 276391, Control_c, 0, 64, 62
2, 276411, Control_c, 0, 64, 48
2, 276430, Control_c, 0, 64, 30
2, 276449, Control_c, 0, 64, 13
2, 276455, Note_on_c, 0, 41, 0
2, 276488, Control_c, 0, 64, 34
2, 276507, Control_c, 0, 64, 49
2, 276526, Control_c, 0, 64, 58
2, 276545, Control_c, 0, 64, 62
2, 276565, Control_c, 0, 64, 64
2, 276583, Control_c, 0, 64, 65
2, 276602, Control_c, 0, 64, 67
2, 276622, Control_c, 0, 64, 69
2, 276641, Control_c, 0, 64, 71
2, 276660, Control_c, 0, 64, 73
2, 276679, Control_c, 0, 64, 74
2, 276737, Control_c, 0, 64, 75
2, 276795, Note_on_c, 0, 45, 39
2, 276833, Control_c, 0, 64, 74
2, 276853, Control_c, 0, 64, 74
2, 276853, Note_on_c, 0, 46, 0
2, 276891, Control_c, 0, 64, 73
2, 277178, Note_on_c, 0, 65, 76
2, 277179, Control_c, 0, 64, 71
2, 277197, Control_c, 0, 64, 65
2, 277213, Note_on_c, 0, 46, 40
2, 277217, Control_c, 0, 64, 51
2, 277236, Control_c, 0, 64, 15
2, 277256, Control_c, 0, 64, 0
2, 277294, Note_on_c, 0, 45, 0
2, 277333, Control_c, 0, 64, 42
2, 277351, Control_c, 0, 64, 57
2, 277371, Control_c, 0, 64, 63
2, 277390, Control_c, 0, 64, 64
2, 277409, Control_c, 0, 64, 66
2, 277428, Control_c, 0, 64, 67
2, 277448, Control_c, 0, 64, 68
2, 277467, Control_c, 0, 64, 70
2, 277485, Note_on_c, 0, 58, 0
2, 277486, Control_c, 0, 64, 70
2, 277505, Control_c, 0, 64, 71
2, 277525, Control_c, 0, 64, 71
2, 277562, Control_c, 0, 64, 72
2, 277582, Control_c, 0, 64, 73
2, 277601, Control_c, 0, 64, 74
2, 277609, Note_on_c, 0, 48, 42
2, 277620, Control_c, 0, 64, 74
2, 277639, Control_c, 0, 64, 75
2, 277641, Note_on_c, 0, 70, 0
2, 277642, Note_on_c, 0, 46, 0
2, 277813, Control_c, 0, 64, 75
2, 277869, Control_c, 0, 64, 75
2, 277906, Control_c, 0, 64, 74
2, 277983, Control_c, 0, 64, 74
2, 278002, Control_c, 0, 64, 70
2, 278019, Note_on_c, 0, 70, 77
2, 278022, Control_c, 0, 64, 63
2, 278031, Note_on_c, 0, 48, 0
2, 278039, Note_on_c, 0, 49, 50
2, 278040, Control_c, 0, 64, 50
2, 278060, Control_c, 0, 64, 27
2, 278079, Control_c, 0, 64, 0
2, 278175, Control_c, 0, 64, 17
2, 278194, Control_c, 0, 64, 46
2, 278214, Control_c, 0, 64, 58
2, 278233, Control_c, 0, 64, 61
2, 278252, Control_c, 0, 64, 63
2, 278271, Control_c, 0, 64, 64
2, 278291, Control_c, 0, 64, 64
2, 278309, Control_c, 0, 64, 65
2, 278329, Control_c, 0, 64, 65
2, 278348, Control_c, 0, 64, 66
2, 278368, Control_c, 0, 64, 68
2, 278386, Control_c, 0, 64, 69
2, 278406, Control_c, 0, 64, 71
2, 278419, Note_on_c, 0, 66, 69
2, 278420, Note_on_c, 0, 49, 0
2, 278425, Control_c, 0, 64, 73
2, 278426, Note_on_c, 0, 65, 0
2, 278431, Note_on_c, 0, 48, 44
2, 278443, Control_c, 0, 64, 74
2, 278463, Control_c, 0, 64, 74
2, 278520, Control_c, 0, 64, 74
2, 278521, Note_on_c, 0, 66, 0
2, 278559, Control_c, 0, 64, 73
2, 278713, Control_c, 0, 64, 73
2, 278732, Control_c, 0, 64, 72
2, 278810, Control_c, 0, 64, 72
2, 278829, Control_c, 0, 64, 69
2, 278840, Note_on_c, 0, 77, 84
2, 278848, Control_c, 0, 64, 63
2, 278848, Note_on_c, 0, 70, 0
2, 278863, Note_on_c, 0, 65, 62
2, 278866, Control_c, 0, 64, 44
2, 278868, Note_on_c, 0, 49, 42
2, 278886, Control_c, 0, 64, 0
2, 278966, Note_on_c, 0, 48, 0
2, 279020, Control_c, 0, 64, 33
2, 279039, Control_c, 0, 64, 55
2, 279058, Control_c, 0, 64, 61
2, 279077, Control_c, 0, 64, 62
2, 279097, Control_c, 0, 64, 63
2, 279116, Control_c, 0, 64, 63
2, 279135, Control_c, 0, 64, 64
2, 279154, Control_c, 0, 64, 64
2, 279174, Control_c, 0, 64, 65
2, 279193, Control_c, 0, 64, 66
2, 279212, Control_c, 0, 64, 66
2, 279231, Control_c, 0, 64, 67
2, 279251, Control_c, 0, 64, 68
2, 279255, Note_on_c, 0, 63, 58
2, 279259, Note_on_c, 0, 51, 38
2, 279337, Note_on_c, 0, 63, 0
2, 279346, Note_on_c, 0, 49, 0
2, 279366, Control_c, 0, 64, 67
2, 279577, Control_c, 0, 64, 67
2, 279596, Control_c, 0, 64, 66
2, 279600, Note_on_c, 0, 51, 0
2, 279615, Control_c, 0, 64, 61
2, 279634, Control_c, 0, 64, 44
2, 279654, Control_c, 0, 64, 0
2, 279662, Note_on_c, 0, 53, 38
2, 279674, Note_on_c, 0, 61, 47
2, 279746, Control_c, 0, 64, 39
2, 279764, Control_c, 0, 64, 56
2, 279784, Control_c, 0, 64, 62
2, 279803, Control_c, 0, 64, 63
2, 279823, Control_c, 0, 64, 64
2, 279841, Control_c, 0, 64, 65
2, 279849, Note_on_c, 0, 77, 0
2, 279861, Control_c, 0, 64, 66
2, 279880, Control_c, 0, 64, 67
2, 279899, Control_c, 0, 64, 68
2, 279939, Note_on_c, 0, 61, 0
2, 279957, Control_c, 0, 64, 67
2, 279968, Note_on_c, 0, 53, 0
2, 280053, Control_c, 0, 64, 66
2, 280072, Control_c, 0, 64, 64
2, 280076, Note_on_c, 0, 78, 74
2, 280090, Note_on_c, 0, 63, 53
2, 280092, Control_c, 0, 64, 63
2, 280107, Note_on_c, 0, 51, 49
2, 280110, Control_c, 0, 64, 63
2, 280149, Control_c, 0, 64, 63
2, 280168, Control_c, 0, 64, 64
2, 280207, Control_c, 0, 64, 64
2, 280226, Control_c, 0, 64, 65
2, 280244, Control_c, 0, 64, 65
2, 280255, Note_on_c, 0, 63, 0
2, 280264, Control_c, 0, 64, 66
2, 280283, Control_c, 0, 64, 67
2, 280303, Control_c, 0, 64, 67
2, 280320, Note_on_c, 0, 78, 0
2, 280334, Note_on_c, 0, 65, 0
2, 280360, Control_c, 0, 64, 68
2, 280398, Control_c, 0, 64, 67
2, 280418, Control_c, 0, 64, 65
2, 280437, Control_c, 0, 64, 64
2, 280456, Control_c, 0, 64, 63
2, 280457, Note_on_c, 0, 77, 74
2, 280476, Note_on_c, 0, 65, 58
2, 280488, Note_on_c, 0, 49, 54
2, 280503, Note_on_c, 0, 51, 0
2, 280513, Control_c, 0, 64, 63
2, 280533, Control_c, 0, 64, 64
2, 280552, Control_c, 0, 64, 65
2, 280572, Control_c, 0, 64, 65
2, 280590, Control_c, 0, 64, 66
2, 280610, Control_c, 0, 64, 67
2, 280629, Control_c, 0, 64, 67
2, 280750, Control_c, 0, 64, 67
2, 280786, Control_c, 0, 64, 66
2, 280871, Note_on_c, 0, 75, 70
2, 280879, Note_on_c, 0, 51, 49
2, 280902, Control_c, 0, 64, 66
2, 280940, Control_c, 0, 64, 65
2, 280959, Control_c, 0, 64, 64
2, 280970, Note_on_c, 0, 77, 0
2, 280978, Control_c, 0, 64, 64
2, 280982, Note_on_c, 0, 49, 0
2, 280997, Control_c, 0, 64, 63
2, 281018, Note_on_c, 0, 51, 0
2, 281036, Control_c, 0, 64, 63
2, 281050, Note_on_c, 0, 53, 62
2, 281074, Control_c, 0, 64, 62
2, 281087, Note_on_c, 0, 65, 0
2, 281094, Control_c, 0, 64, 62
2, 281113, Control_c, 0, 64, 61
2, 281132, Control_c, 0, 64, 60
2, 281151, Control_c, 0, 64, 60
2, 281171, Control_c, 0, 64, 59
2, 281209, Control_c, 0, 64, 59
2, 281228, Control_c, 0, 64, 57
2, 281248, Control_c, 0, 64, 55
2, 281266, Control_c, 0, 64, 46
2, 281282, Note_on_c, 0, 58, 66
2, 281282, Note_on_c, 0, 73, 64
2, 281286, Control_c, 0, 64, 21
2, 281289, Note_on_c, 0, 54, 57
2, 281297, Note_on_c, 0, 75, 0
2, 281305, Control_c, 0, 64, 0
2, 281324, Note_on_c, 0, 53, 0
2, 281428, Note_on_c, 0, 54, 0
2, 281456, Note_on_c, 0, 53, 56
2, 281458, Control_c, 0, 64, 11
2, 281477, Control_c, 0, 64, 41
2, 281497, Control_c, 0, 64, 53
2, 281516, Control_c, 0, 64, 58
2, 281535, Control_c, 0, 64, 60
2, 281554, Control_c, 0, 64, 61
2, 281574, Control_c, 0, 64, 62
2, 281593, Control_c, 0, 64, 63
2, 281612, Control_c, 0, 64, 64
2, 281631, Control_c, 0, 64, 65
2, 281651, Control_c, 0, 64, 66
2, 281660, Note_on_c, 0, 53, 0
2, 281666, Note_on_c, 0, 75, 64
2, 281669, Control_c, 0, 64, 67
2, 281689, Control_c, 0, 64, 67
2, 281690, Note_on_c, 0, 54, 53
2, 281691, Note_on_c, 0, 73, 0
2, 281704, Note_on_c, 0, 58, 0
2, 281708, Control_c, 0, 64, 68
2, 281729, Note_on_c, 0, 54, 0
2, 281822, Control_c, 0, 64, 68
2, 281998, Control_c, 0, 64, 69
2, 282036, Control_c, 0, 64, 67
2, 282055, Control_c, 0, 64, 63
2, 282075, Control_c, 0, 64, 53
2, 282076, Note_on_c, 0, 75, 0
2, 282087, Note_on_c, 0, 77, 64
2, 282089, Note_on_c, 0, 45, 48
2, 282093, Control_c, 0, 64, 37
2, 282113, Control_c, 0, 64, 29
2, 282132, Control_c, 0, 64, 34
2, 282151, Control_c, 0, 64, 48
2, 282170, Control_c, 0, 64, 59
2, 282190, Control_c, 0, 64, 63
2, 282209, Control_c, 0, 64, 65
2, 282211, Note_on_c, 0, 77, 0
2, 282228, Control_c, 0, 64, 67
2, 282247, Control_c, 0, 64, 69
2, 282267, Control_c, 0, 64, 70
2, 282285, Control_c, 0, 64, 71
2, 282305, Control_c, 0, 64, 71
2, 282475, Note_on_c, 0, 63, 73
2, 282555, Control_c, 0, 64, 71
2, 282867, Note_on_c, 0, 46, 39
2, 282901, Control_c, 0, 64, 69
2, 282920, Control_c, 0, 64, 65
2, 282926, Note_on_c, 0, 70, 77
2, 282938, Note_on_c, 0, 45, 0
2, 282940, Control_c, 0, 64, 55
2, 282959, Control_c, 0, 64, 25
2, 282978, Control_c, 0, 64, 0
2, 283054, Control_c, 0, 64, 32
2, 283074, Control_c, 0, 64, 56
2, 283093, Control_c, 0, 64, 63
2, 283112, Control_c, 0, 64, 65
2, 283131, Control_c, 0, 64, 66
2, 283151, Control_c, 0, 64, 67
2, 283170, Control_c, 0, 64, 68
2, 283189, Control_c, 0, 64, 69
2, 283208, Control_c, 0, 64, 70
2, 283228, Control_c, 0, 64, 71
2, 283285, Control_c, 0, 64, 71
2, 283304, Note_on_c, 0, 46, 0
2, 283305, Control_c, 0, 64, 72
2, 283323, Control_c, 0, 64, 72
2, 283329, Note_on_c, 0, 61, 54
2, 283419, Note_on_c, 0, 63, 0
2, 283516, Control_c, 0, 64, 73
2, 283534, Control_c, 0, 64, 73
2, 283573, Control_c, 0, 64, 74
2, 283670, Control_c, 0, 64, 71
2, 283689, Control_c, 0, 64, 63
2, 283709, Control_c, 0, 64, 41
2, 283727, Control_c, 0, 64, 0
2, 283727, Note_on_c, 0, 60, 65
2, 283738, Note_on_c, 0, 61, 0
2, 283742, Note_on_c, 0, 48, 49
2, 283804, Control_c, 0, 64, 44
2, 283824, Control_c, 0, 64, 60
2, 283830, Note_on_c, 0, 70, 0
2, 283843, Control_c, 0, 64, 64
2, 283862, Control_c, 0, 64, 66
2, 283881, Control_c, 0, 64, 67
2, 283901, Control_c, 0, 64, 69
2, 283920, Control_c, 0, 64, 71
2, 283939, Control_c, 0, 64, 74
2, 283958, Control_c, 0, 64, 75
2, 283978, Control_c, 0, 64, 76
2, 283996, Control_c, 0, 64, 75
2, 284035, Control_c, 0, 64, 75
2, 284115, Note_on_c, 0, 60, 0
2, 284147, Note_on_c, 0, 75, 88
2, 284150, Control_c, 0, 64, 74
2, 284169, Control_c, 0, 64, 74
2, 284189, Control_c, 0, 64, 73
2, 284207, Control_c, 0, 64, 72
2, 284381, Control_c, 0, 64, 72
2, 284400, Control_c, 0, 64, 71
2, 284419, Control_c, 0, 64, 71
2, 284495, Control_c, 0, 64, 69
2, 284515, Control_c, 0, 64, 63
2, 284534, Control_c, 0, 64, 42
2, 284556, Control_c, 0, 64, 0
2, 284559, Note_on_c, 0, 48, 0
2, 284559, Note_on_c, 0, 58, 50
2, 284566, Note_on_c, 0, 49, 48
2, 284650, Control_c, 0, 64, 46
2, 284670, Control_c, 0, 64, 59
2, 284688, Control_c, 0, 64, 63
2, 284708, Control_c, 0, 64, 64
2, 284727, Control_c, 0, 64, 65
2, 284746, Control_c, 0, 64, 65
2, 284765, Control_c, 0, 64, 66
2, 284785, Control_c, 0, 64, 66
2, 284804, Control_c, 0, 64, 67
2, 284900, Control_c, 0, 64, 67
2, 284939, Control_c, 0, 64, 66
2, 284957, Control_c, 0, 64, 61
2, 284964, Note_on_c, 0, 73, 69
2, 284965, Note_on_c, 0, 46, 41
2, 284976, Control_c, 0, 64, 41
2, 284996, Control_c, 0, 64, 0
2, 285032, Note_on_c, 0, 75, 0
2, 285047, Note_on_c, 0, 49, 0
2, 285073, Control_c, 0, 64, 23
2, 285091, Control_c, 0, 64, 53
2, 285111, Control_c, 0, 64, 62
2, 285130, Control_c, 0, 64, 64
2, 285150, Control_c, 0, 64, 64
2, 285168, Control_c, 0, 64, 65
2, 285322, Control_c, 0, 64, 64
2, 285342, Control_c, 0, 64, 61
2, 285361, Control_c, 0, 64, 49
2, 285363, Note_on_c, 0, 73, 0
2, 285375, Note_on_c, 0, 72, 59
2, 285380, Control_c, 0, 64, 11
2, 285387, Note_on_c, 0, 53, 40
2, 285399, Control_c, 0, 64, 0
2, 285456, Control_c, 0, 64, 27
2, 285476, Control_c, 0, 64, 51
2, 285495, Control_c, 0, 64, 60
2, 285514, Control_c, 0, 64, 63
2, 285533, Control_c, 0, 64, 64
2, 285553, Control_c, 0, 64, 64
2, 285571, Control_c, 0, 64, 65
2, 285609, Control_c, 0, 64, 66
2, 285629, Control_c, 0, 64, 65
2, 285686, Control_c, 0, 64, 65
2, 285706, Control_c, 0, 64, 63
2, 285724, Control_c, 0, 64, 55
2, 285744, Control_c, 0, 64, 32
2, 285760, Note_on_c, 0, 68, 69
2, 285763, Control_c, 0, 64, 0
2, 285771, Note_on_c, 0, 51, 36
2, 285793, Note_on_c, 0, 46, 0
2, 285818, Note_on_c, 0, 58, 0
2, 285852, Note_on_c, 0, 72, 0
2, 285878, Control_c, 0, 64, 13
2, 285898, Control_c, 0, 64, 41
2, 285916, Control_c, 0, 64, 53
2, 285935, Control_c, 0, 64, 58
2, 285946, Note_on_c, 0, 53, 0
2, 285955, Control_c, 0, 64, 60
2, 285974, Control_c, 0, 64, 60
2, 285993, Control_c, 0, 64, 61
2, 286050, Control_c, 0, 64, 60
2, 286070, Control_c, 0, 64, 56
2, 286089, Control_c, 0, 64, 44
2, 286109, Control_c, 0, 64, 0
2, 286162, Note_on_c, 0, 50, 35
2, 286169, Note_on_c, 0, 70, 52
2, 286189, Note_on_c, 0, 51, 0
2, 286278, Control_c, 0, 64, 42
2, 286298, Control_c, 0, 64, 54
2, 286317, Control_c, 0, 64, 58
2, 286336, Control_c, 0, 64, 60
2, 286355, Control_c, 0, 64, 61
2, 286375, Control_c, 0, 64, 62
2, 286413, Control_c, 0, 64, 60
2, 286421, Note_on_c, 0, 68, 0
2, 286432, Control_c, 0, 64, 51
2, 286452, Control_c, 0, 64, 27
2, 286472, Control_c, 0, 64, 0
2, 286530, Control_c, 0, 64, 40
2, 286547, Control_c, 0, 64, 54
2, 286557, Note_on_c, 0, 66, 58
2, 286567, Control_c, 0, 64, 58
2, 286585, Note_on_c, 0, 51, 30
2, 286586, Control_c, 0, 64, 59
2, 286639, Note_on_c, 0, 50, 0
2, 286643, Control_c, 0, 64, 58
2, 286663, Control_c, 0, 64, 57
2, 286681, Control_c, 0, 64, 56
2, 286701, Control_c, 0, 64, 55
2, 286720, Control_c, 0, 64, 53
2, 286739, Control_c, 0, 64, 51
2, 286746, Note_on_c, 0, 70, 0
2, 286758, Control_c, 0, 64, 49
2, 286778, Control_c, 0, 64, 43
2, 286797, Control_c, 0, 64, 33
2, 286816, Control_c, 0, 64, 0
2, 286920, Note_on_c, 0, 66, 0
2, 286941, Note_on_c, 0, 65, 50
2, 286989, Control_c, 0, 64, 24
2, 287008, Control_c, 0, 64, 52
2, 287027, Control_c, 0, 64, 61
2, 287047, Control_c, 0, 64, 63
2, 287066, Control_c, 0, 64, 64
2, 287084, Control_c, 0, 64, 65
2, 287123, Control_c, 0, 64, 66
2, 287143, Control_c, 0, 64, 67
2, 287161, Control_c, 0, 64, 68
2, 287181, Control_c, 0, 64, 70
2, 287199, Note_on_c, 0, 65, 0
2, 287219, Control_c, 0, 64, 67
2, 287238, Control_c, 0, 64, 63
2, 287258, Control_c, 0, 64, 58
2, 287277, Control_c, 0, 64, 55
2, 287315, Control_c, 0, 64, 57
2, 287327, Note_on_c, 0, 51, 0
2, 287335, Control_c, 0, 64, 61
2, 287337, Note_on_c, 0, 50, 37
2, 287353, Control_c, 0, 64, 64
2, 287364, Note_on_c, 0, 80, 68
2, 287373, Control_c, 0, 64, 65
2, 287392, Control_c, 0, 64, 66
2, 287412, Control_c, 0, 64, 67
2, 287430, Control_c, 0, 64, 68
2, 287529, Note_on_c, 0, 50, 0
2, 287584, Control_c, 0, 64, 68
2, 287623, Control_c, 0, 64, 69
2, 287641, Control_c, 0, 64, 70
2, 287680, Control_c, 0, 64, 68
2, 287699, Control_c, 0, 64, 64
2, 287718, Control_c, 0, 64, 56
2, 287738, Control_c, 0, 64, 47
2, 287757, Control_c, 0, 64, 45
2, 287765, Note_on_c, 0, 63, 45
2, 287776, Control_c, 0, 64, 47
2, 287779, Note_on_c, 0, 51, 31
2, 287795, Control_c, 0, 64, 54
2, 287815, Control_c, 0, 64, 60
2, 287833, Control_c, 0, 64, 63
2, 287853, Control_c, 0, 64, 65
2, 287872, Control_c, 0, 64, 66
2, 287892, Control_c, 0, 64, 66
2, 288044, Control_c, 0, 64, 65
2, 288064, Control_c, 0, 64, 64
2, 288083, Control_c, 0, 64, 63
2, 288103, Control_c, 0, 64, 61
2, 288121, Control_c, 0, 64, 60
2, 288141, Control_c, 0, 64, 59
2, 288144, Note_on_c, 0, 63, 0
2, 288160, Control_c, 0, 64, 58
2, 288179, Control_c, 0, 64, 57
2, 288179, Note_on_c, 0, 78, 56
2, 288185, Note_on_c, 0, 60, 38
2, 288198, Control_c, 0, 64, 56
2, 288218, Control_c, 0, 64, 55
2, 288237, Control_c, 0, 64, 55
2, 288248, Note_on_c, 0, 80, 0
2, 288275, Control_c, 0, 64, 54
2, 288295, Control_c, 0, 64, 53
2, 288313, Control_c, 0, 64, 52
2, 288333, Control_c, 0, 64, 50
2, 288352, Control_c, 0, 64, 48
2, 288372, Control_c, 0, 64, 47
2, 288391, Control_c, 0, 64, 46
2, 288506, Control_c, 0, 64, 45
2, 288524, Control_c, 0, 64, 44
2, 288544, Control_c, 0, 64, 43
2, 288563, Control_c, 0, 64, 40
2, 288581, Note_on_c, 0, 77, 49
2, 288583, Control_c, 0, 64, 39
2, 288588, Note_on_c, 0, 78, 0
2, 288609, Note_on_c, 0, 60, 0
2, 288613, Note_on_c, 0, 57, 27
2, 288640, Control_c, 0, 64, 41
2, 288659, Control_c, 0, 64, 41
2, 288678, Control_c, 0, 64, 42
2, 288698, Control_c, 0, 64, 42
2, 288736, Control_c, 0, 64, 42
2, 288755, Control_c, 0, 64, 41
2, 288775, Control_c, 0, 64, 39
2, 288793, Control_c, 0, 64, 36
2, 288813, Control_c, 0, 64, 34
2, 288832, Control_c, 0, 64, 33
2, 288852, Control_c, 0, 64, 32
2, 288870, Control_c, 0, 64, 27
2, 288890, Control_c, 0, 64, 11
2, 288909, Control_c, 0, 64, 0
2, 288983, Note_on_c, 0, 58, 41
2, 288984, Note_on_c, 0, 57, 0
2, 288987, Note_on_c, 0, 61, 42
2, 289098, Note_on_c, 0, 51, 0
2, 289350, Control_c, 0, 64, 28
2, 289370, Control_c, 0, 64, 40
2, 289389, Control_c, 0, 64, 47
2, 289408, Control_c, 0, 64, 51
2, 289409, Note_on_c, 0, 54, 33
2, 289419, Note_on_c, 0, 70, 68
2, 289427, Control_c, 0, 64, 54
2, 289427, Note_on_c, 0, 61, 0
2, 289446, Control_c, 0, 64, 56
2, 289466, Control_c, 0, 64, 56
2, 289484, Control_c, 0, 64, 51
2, 289504, Control_c, 0, 64, 42
2, 289523, Control_c, 0, 64, 29
2, 289543, Control_c, 0, 64, 19
2, 289581, Note_on_c, 0, 77, 0
2, 289593, Note_on_c, 0, 75, 74
2, 289600, Control_c, 0, 64, 21
2, 289619, Control_c, 0, 64, 26
2, 289638, Control_c, 0, 64, 33
2, 289658, Control_c, 0, 64, 43
2, 289677, Control_c, 0, 64, 51
2, 289696, Control_c, 0, 64, 56
2, 289706, Note_on_c, 0, 70, 0
2, 289715, Control_c, 0, 64, 59
2, 289735, Control_c, 0, 64, 60
2, 289753, Control_c, 0, 64, 60
2, 289764, Note_on_c, 0, 75, 0
2, 289769, Note_on_c, 0, 77, 69
2, 289773, Control_c, 0, 64, 61
2, 289779, Note_on_c, 0, 58, 0
2, 289782, Note_on_c, 0, 69, 68
2, 289792, Control_c, 0, 64, 61
2, 289793, Note_on_c, 0, 53, 44
2, 289821, Note_on_c, 0, 54, 0
2, 289850, Control_c, 0, 64, 62
2, 289869, Control_c, 0, 64, 62
2, 289888, Control_c, 0, 64, 63
2, 289904, Note_on_c, 0, 69, 0
2, 289954, Note_on_c, 0, 78, 80
2, 289963, Note_on_c, 0, 77, 0
2, 289984, Control_c, 0, 64, 62
2, 290003, Control_c, 0, 64, 62
2, 290023, Control_c, 0, 64, 61
2, 290041, Control_c, 0, 64, 59
2, 290061, Control_c, 0, 64, 58
2, 290080, Control_c, 0, 64, 56
2, 290099, Control_c, 0, 64, 55
2, 290106, Note_on_c, 0, 54, 39
2, 290118, Control_c, 0, 64, 52
2, 290138, Control_c, 0, 64, 48
2, 290157, Control_c, 0, 64, 42
2, 290176, Control_c, 0, 64, 31
2, 290176, Note_on_c, 0, 77, 72
2, 290195, Control_c, 0, 64, 0
2, 290202, Note_on_c, 0, 78, 0
2, 290204, Note_on_c, 0, 70, 45
2, 290218, Note_on_c, 0, 53, 0
2, 290242, Note_on_c, 0, 77, 0
2, 290260, Note_on_c, 0, 75, 68
2, 290299, Note_on_c, 0, 75, 0
2, 290309, Note_on_c, 0, 77, 68
2, 290391, Note_on_c, 0, 77, 0
2, 290408, Note_on_c, 0, 75, 73
2, 290503, Control_c, 0, 64, 41
2, 290521, Control_c, 0, 64, 58
2, 290541, Control_c, 0, 64, 62
2, 290560, Control_c, 0, 64, 64
2, 290579, Control_c, 0, 64, 66
2, 290598, Control_c, 0, 64, 67
2, 290618, Control_c, 0, 64, 70
2, 290637, Control_c, 0, 64, 73
2, 290656, Control_c, 0, 64, 76
2, 290675, Control_c, 0, 64, 78
2, 290696, Note_on_c, 0, 70, 0
2, 290697, Control_c, 0, 64, 78
2, 290716, Control_c, 0, 64, 79
2, 290735, Control_c, 0, 64, 79
2, 290755, Control_c, 0, 64, 80
2, 290774, Control_c, 0, 64, 81
2, 290819, Note_on_c, 0, 77, 78
2, 290828, Note_on_c, 0, 75, 0
2, 290916, Note_on_c, 0, 77, 0
2, 290927, Control_c, 0, 64, 81
2, 290947, Control_c, 0, 64, 82
2, 290966, Control_c, 0, 64, 82
2, 291024, Control_c, 0, 64, 80
2, 291043, Control_c, 0, 64, 71
2, 291061, Note_on_c, 0, 54, 0
2, 291062, Control_c, 0, 64, 57
2, 291064, Note_on_c, 0, 77, 81
2, 291080, Note_on_c, 0, 53, 55
2, 291081, Control_c, 0, 64, 0
2, 291083, Note_on_c, 0, 69, 73
2, 291158, Control_c, 0, 64, 13
2, 291177, Control_c, 0, 64, 54
2, 291196, Control_c, 0, 64, 63
2, 291215, Control_c, 0, 64, 66
2, 291235, Control_c, 0, 64, 68
2, 291254, Control_c, 0, 64, 70
2, 291274, Control_c, 0, 64, 72
2, 291293, Control_c, 0, 64, 74
2, 291313, Control_c, 0, 64, 77
2, 291331, Control_c, 0, 64, 80
2, 291344, Note_on_c, 0, 69, 0
2, 291350, Control_c, 0, 64, 81
2, 291369, Control_c, 0, 64, 83
2, 291389, Control_c, 0, 64, 84
2, 291407, Control_c, 0, 64, 85
2, 291427, Control_c, 0, 64, 86
2, 291446, Control_c, 0, 64, 88
2, 291466, Control_c, 0, 64, 89
2, 291484, Control_c, 0, 64, 90
2, 291520, Note_on_c, 0, 53, 0
2, 291542, Control_c, 0, 64, 89
2, 291561, Control_c, 0, 64, 89
2, 291734, Control_c, 0, 64, 88
2, 291792, Control_c, 0, 64, 89
2, 291830, Control_c, 0, 64, 89
2, 291849, Control_c, 0, 64, 90
2, 291869, Control_c, 0, 64, 91
2, 291887, Control_c, 0, 64, 92
2, 291907, Control_c, 0, 64, 93
2, 291926, Control_c, 0, 64, 94
2, 291946, Control_c, 0, 64, 93
2, 291954, Note_on_c, 0, 82, 89
2, 291962, Note_on_c, 0, 70, 85
2, 291964, Control_c, 0, 64, 85
2, 291984, Control_c, 0, 64, 69
2, 292003, Control_c, 0, 64, 50
2, 292017, Note_on_c, 0, 77, 0
2, 292022, Control_c, 0, 64, 0
2, 292080, Control_c, 0, 64, 22
2, 292099, Control_c, 0, 64, 54
2, 292118, Control_c, 0, 64, 62
2, 292137, Control_c, 0, 64, 64
2, 292156, Control_c, 0, 64, 66
2, 292175, Control_c, 0, 64, 68
2, 292195, Control_c, 0, 64, 71
2, 292214, Control_c, 0, 64, 75
2, 292234, Control_c, 0, 64, 81
2, 292253, Control_c, 0, 64, 86
2, 292273, Control_c, 0, 64, 88
2, 292291, Control_c, 0, 64, 89
2, 292387, Control_c, 0, 64, 88
2, 292444, Control_c, 0, 64, 88
2, 292464, Control_c, 0, 64, 87
2, 292483, Control_c, 0, 64, 87
2, 292655, Control_c, 0, 64, 86
2, 292732, Control_c, 0, 64, 87
2, 292752, Control_c, 0, 64, 87
2, 292809, Control_c, 0, 64, 86
2, 292822, Note_on_c, 0, 75, 87
2, 292829, Control_c, 0, 64, 78
2, 292847, Control_c, 0, 64, 66
2, 292853, Note_on_c, 0, 54, 52
2, 292867, Control_c, 0, 64, 48
2, 292886, Control_c, 0, 64, 21
2, 292906, Control_c, 0, 64, 0
2, 292924, Control_c, 0, 64, 27
2, 292944, Control_c, 0, 64, 48
2, 292963, Control_c, 0, 64, 59
2, 292982, Control_c, 0, 64, 63
2, 292990, Note_on_c, 0, 70, 0
2, 293001, Control_c, 0, 64, 67
2, 293021, Control_c, 0, 64, 71
2, 293040, Control_c, 0, 64, 78
2, 293058, Control_c, 0, 64, 83
2, 293078, Control_c, 0, 64, 85
2, 293115, Note_on_c, 0, 82, 0
2, 293135, Control_c, 0, 64, 84
2, 293174, Control_c, 0, 64, 84
2, 293192, Control_c, 0, 64, 83
2, 293230, Note_on_c, 0, 83, 76
2, 293269, Control_c, 0, 64, 83
2, 293308, Control_c, 0, 64, 82
2, 293326, Control_c, 0, 64, 82
2, 293346, Control_c, 0, 64, 81
2, 293365, Control_c, 0, 64, 80
2, 293385, Control_c, 0, 64, 80
2, 293519, Control_c, 0, 64, 79
2, 293537, Control_c, 0, 64, 79
2, 293557, Control_c, 0, 64, 78
2, 293576, Control_c, 0, 64, 76
2, 293596, Control_c, 0, 64, 71
2, 293614, Control_c, 0, 64, 61
2, 293634, Control_c, 0, 64, 31
2, 293653, Control_c, 0, 64, 0
2, 293655, Note_on_c, 0, 59, 52
2, 293669, Note_on_c, 0, 82, 74
2, 293730, Control_c, 0, 64, 40
2, 293749, Control_c, 0, 64, 58
2, 293768, Control_c, 0, 64, 63
2, 293788, Control_c, 0, 64, 64
2, 293806, Control_c, 0, 64, 65
2, 293826, Control_c, 0, 64, 66
2, 293830, Note_on_c, 0, 54, 0
2, 293849, Note_on_c, 0, 75, 0
2, 293865, Control_c, 0, 64, 66
2, 293941, Control_c, 0, 64, 66
2, 294026, Note_on_c, 0, 83, 0
2, 294050, Note_on_c, 0, 80, 76
2, 294057, Note_on_c, 0, 77, 72
2, 294094, Control_c, 0, 64, 65
2, 294124, Note_on_c, 0, 82, 0
2, 294133, Control_c, 0, 64, 65
2, 294182, Note_on_c, 0, 80, 0
2, 294344, Control_c, 0, 64, 65
2, 294382, Control_c, 0, 64, 66
2, 294421, Control_c, 0, 64, 63
2, 294439, Control_c, 0, 64, 55
2, 294448, Note_on_c, 0, 79, 79
2, 294451, Note_on_c, 0, 75, 70
2, 294458, Control_c, 0, 64, 38
2, 294478, Control_c, 0, 64, 11
2, 294496, Control_c, 0, 64, 0
2, 294516, Control_c, 0, 64, 28
2, 294521, Note_on_c, 0, 77, 0
2, 294535, Control_c, 0, 64, 48
2, 294555, Control_c, 0, 64, 59
2, 294573, Control_c, 0, 64, 63
2, 294593, Control_c, 0, 64, 64
2, 294612, Control_c, 0, 64, 66
2, 294631, Control_c, 0, 64, 67
2, 294650, Control_c, 0, 64, 69
2, 294670, Control_c, 0, 64, 70
2, 294689, Control_c, 0, 64, 71
2, 294708, Control_c, 0, 64, 72
2, 294848, Note_on_c, 0, 61, 41
2, 294853, Note_on_c, 0, 80, 81
2, 294866, Note_on_c, 0, 59, 0
2, 294914, Note_on_c, 0, 79, 0
2, 294919, Control_c, 0, 64, 71
2, 294938, Control_c, 0, 64, 71
2, 294958, Control_c, 0, 64, 70
2, 295131, Control_c, 0, 64, 70
2, 295170, Control_c, 0, 64, 69
2, 295226, Control_c, 0, 64, 68
2, 295245, Control_c, 0, 64, 64
2, 295264, Control_c, 0, 64, 55
2, 295266, Note_on_c, 0, 82, 74
2, 295273, Note_on_c, 0, 59, 48
2, 295283, Control_c, 0, 64, 39
2, 295294, Note_on_c, 0, 61, 0
2, 295303, Control_c, 0, 64, 13
2, 295307, Note_on_c, 0, 80, 0
2, 295321, Control_c, 0, 64, 0
2, 295360, Control_c, 0, 64, 18
2, 295380, Control_c, 0, 64, 43
2, 295398, Control_c, 0, 64, 57
2, 295417, Control_c, 0, 64, 62
2, 295437, Control_c, 0, 64, 64
2, 295455, Control_c, 0, 64, 65
2, 295475, Control_c, 0, 64, 66
2, 295514, Control_c, 0, 64, 66
2, 295591, Control_c, 0, 64, 67
2, 295609, Control_c, 0, 64, 67
2, 295629, Control_c, 0, 64, 68
2, 295648, Control_c, 0, 64, 68
2, 295648, Note_on_c, 0, 73, 69
2, 295667, Control_c, 0, 64, 69
2, 295672, Note_on_c, 0, 58, 41
2, 295672, Note_on_c, 0, 59, 0
2, 295684, Note_on_c, 0, 75, 0
2, 295686, Control_c, 0, 64, 70
2, 295860, Control_c, 0, 64, 70
2, 295878, Control_c, 0, 64, 71
2, 296012, Control_c, 0, 64, 70
2, 296032, Control_c, 0, 64, 65
2, 296040, Note_on_c, 0, 75, 79
2, 296047, Note_on_c, 0, 72, 62
2, 296051, Control_c, 0, 64, 51
2, 296063, Note_on_c, 0, 82, 0
2, 296066, Note_on_c, 0, 56, 50
2, 296071, Control_c, 0, 64, 0
2, 296084, Note_on_c, 0, 58, 0
2, 296095, Note_on_c, 0, 73, 0
2, 296148, Control_c, 0, 64, 11
2, 296167, Control_c, 0, 64, 53
2, 296187, Control_c, 0, 64, 62
2, 296206, Control_c, 0, 64, 65
2, 296225, Control_c, 0, 64, 67
2, 296244, Control_c, 0, 64, 69
2, 296264, Control_c, 0, 64, 71
2, 296282, Control_c, 0, 64, 74
2, 296302, Control_c, 0, 64, 76
2, 296321, Control_c, 0, 64, 76
2, 296378, Control_c, 0, 64, 76
2, 296465, Note_on_c, 0, 55, 47
2, 296468, Note_on_c, 0, 56, 0
2, 296513, Control_c, 0, 64, 75
2, 296532, Control_c, 0, 64, 74
2, 296551, Control_c, 0, 64, 73
2, 296570, Control_c, 0, 64, 73
2, 296628, Control_c, 0, 64, 73
2, 296686, Control_c, 0, 64, 74
2, 296839, Control_c, 0, 64, 73
2, 296856, Note_on_c, 0, 80, 81
2, 296858, Control_c, 0, 64, 68
2, 296867, Note_on_c, 0, 55, 0
2, 296877, Note_on_c, 0, 56, 52
2, 296878, Control_c, 0, 64, 59
2, 296896, Control_c, 0, 64, 34
2, 296916, Control_c, 0, 64, 0
2, 296973, Control_c, 0, 64, 24
2, 296993, Control_c, 0, 64, 53
2, 297012, Control_c, 0, 64, 62
2, 297031, Control_c, 0, 64, 65
2, 297050, Control_c, 0, 64, 67
2, 297070, Control_c, 0, 64, 69
2, 297089, Control_c, 0, 64, 71
2, 297108, Control_c, 0, 64, 73
2, 297127, Control_c, 0, 64, 74
2, 297147, Control_c, 0, 64, 73
2, 297166, Control_c, 0, 64, 73
2, 297204, Control_c, 0, 64, 72
2, 297262, Control_c, 0, 64, 73
2, 297269, Note_on_c, 0, 73, 67
2, 297275, Note_on_c, 0, 58, 46
2, 297281, Control_c, 0, 64, 73
2, 297318, Note_on_c, 0, 75, 0
2, 297322, Note_on_c, 0, 56, 0
2, 297338, Control_c, 0, 64, 73
2, 297353, Note_on_c, 0, 72, 0
2, 297358, Control_c, 0, 64, 72
2, 297376, Control_c, 0, 64, 72
2, 297396, Control_c, 0, 64, 71
2, 297453, Control_c, 0, 64, 72
2, 297492, Control_c, 0, 64, 72
2, 297588, Control_c, 0, 64, 72
2, 297607, Control_c, 0, 64, 70
2, 297627, Control_c, 0, 64, 65
2, 297646, Control_c, 0, 64, 54
2, 297665, Control_c, 0, 64, 28
2, 297671, Note_on_c, 0, 75, 64
2, 297683, Note_on_c, 0, 60, 43
2, 297684, Control_c, 0, 64, 0
2, 297706, Note_on_c, 0, 73, 0
2, 297716, Note_on_c, 0, 58, 0
2, 297742, Control_c, 0, 64, 34
2, 297761, Control_c, 0, 64, 53
2, 297781, Control_c, 0, 64, 61
2, 297799, Control_c, 0, 64, 64
2, 297818, Control_c, 0, 64, 65
2, 297838, Control_c, 0, 64, 66
2, 297856, Control_c, 0, 64, 68
2, 297876, Control_c, 0, 64, 69
2, 297895, Control_c, 0, 64, 71
2, 297915, Control_c, 0, 64, 72
2, 297933, Control_c, 0, 64, 72
2, 298033, Note_on_c, 0, 75, 0
2, 298066, Note_on_c, 0, 78, 63
2, 298068, Control_c, 0, 64, 73
2, 298126, Control_c, 0, 64, 72
2, 298164, Control_c, 0, 64, 72
2, 298216, Note_on_c, 0, 80, 0
2, 298356, Control_c, 0, 64, 71
2, 298413, Control_c, 0, 64, 71
2, 298433, Control_c, 0, 64, 70
2, 298452, Control_c, 0, 64, 66
2, 298464, Note_on_c, 0, 68, 70
2, 298471, Control_c, 0, 64, 57
2, 298481, Note_on_c, 0, 61, 43
2, 298487, Note_on_c, 0, 77, 67
2, 298490, Control_c, 0, 64, 22
2, 298502, Note_on_c, 0, 60, 0
2, 298510, Control_c, 0, 64, 0
2, 298515, Note_on_c, 0, 78, 0
2, 298587, Control_c, 0, 64, 35
2, 298606, Control_c, 0, 64, 57
2, 298625, Control_c, 0, 64, 63
2, 298644, Control_c, 0, 64, 65
2, 298664, Control_c, 0, 64, 66
2, 298682, Control_c, 0, 64, 66
2, 298702, Control_c, 0, 64, 67
2, 298721, Control_c, 0, 64, 68
2, 298741, Control_c, 0, 64, 69
2, 298798, Control_c, 0, 64, 68
2, 298836, Control_c, 0, 64, 69
2, 298870, Note_on_c, 0, 61, 0
2, 298883, Note_on_c, 0, 59, 45
2, 298893, Control_c, 0, 64, 69
2, 298952, Control_c, 0, 64, 69
2, 299068, Control_c, 0, 64, 69
2, 299279, Control_c, 0, 64, 69
2, 299293, Note_on_c, 0, 73, 79
2, 299297, Control_c, 0, 64, 64
2, 299317, Control_c, 0, 64, 51
2, 299326, Note_on_c, 0, 58, 43
2, 299336, Control_c, 0, 64, 0
2, 299387, Note_on_c, 0, 59, 0
2, 299432, Control_c, 0, 64, 38
2, 299451, Control_c, 0, 64, 59
2, 299471, Control_c, 0, 64, 64
2, 299490, Control_c, 0, 64, 66
2, 299509, Control_c, 0, 64, 67
2, 299528, Control_c, 0, 64, 68
2, 299548, Control_c, 0, 64, 69
2, 299566, Control_c, 0, 64, 70
2, 299586, Control_c, 0, 64, 71
2, 299597, Note_on_c, 0, 68, 0
2, 299648, Note_on_c, 0, 77, 0
2, 299663, Control_c, 0, 64, 72
2, 299682, Control_c, 0, 64, 73
2, 299690, Note_on_c, 0, 56, 43
2, 299701, Control_c, 0, 64, 75
2, 299717, Note_on_c, 0, 58, 0
2, 299720, Control_c, 0, 64, 76
2, 299816, Control_c, 0, 64, 75
2, 299854, Control_c, 0, 64, 76
2, 299893, Control_c, 0, 64, 76
2, 299931, Control_c, 0, 64, 77
2, 300008, Control_c, 0, 64, 76
2, 300066, Control_c, 0, 64, 75
2, 300085, Control_c, 0, 64, 69
2, 300090, Note_on_c, 0, 55, 43
2, 300097, Note_on_c, 0, 75, 67
2, 300105, Control_c, 0, 64, 59
2, 300123, Control_c, 0, 64, 31
2, 300134, Note_on_c, 0, 56, 0
2, 300143, Control_c, 0, 64, 0
2, 300200, Control_c, 0, 64, 26
2, 300219, Control_c, 0, 64, 54
2, 300239, Control_c, 0, 64, 63
2, 300257, Control_c, 0, 64, 66
2, 300277, Control_c, 0, 64, 67
2, 300296, Control_c, 0, 64, 69
2, 300316, Control_c, 0, 64, 70
2, 300334, Control_c, 0, 64, 71
2, 300354, Control_c, 0, 64, 72
2, 300469, Control_c, 0, 64, 72
2, 300478, Note_on_c, 0, 51, 41
2, 300488, Control_c, 0, 64, 73
2, 300495, Note_on_c, 0, 55, 0
2, 300508, Control_c, 0, 64, 73
2, 300526, Control_c, 0, 64, 74
2, 300551, Note_on_c, 0, 73, 0
2, 300585, Control_c, 0, 64, 73
2, 300603, Control_c, 0, 64, 73
2, 300642, Control_c, 0, 64, 72
2, 300680, Control_c, 0, 64, 73
2, 300737, Control_c, 0, 64, 73
2, 300776, Control_c, 0, 64, 73
2, 300814, Control_c, 0, 64, 72
2, 300834, Control_c, 0, 64, 71
2, 300853, Control_c, 0, 64, 67
2, 300872, Control_c, 0, 64, 60
2, 300880, Note_on_c, 0, 72, 63
2, 300891, Control_c, 0, 64, 37
2, 300906, Note_on_c, 0, 56, 45
2, 300911, Control_c, 0, 64, 0
2, 300928, Note_on_c, 0, 51, 0
2, 301006, Control_c, 0, 64, 46
2, 301026, Control_c, 0, 64, 60
2, 301045, Control_c, 0, 64, 64
2, 301065, Control_c, 0, 64, 65
2, 301083, Control_c, 0, 64, 67
2, 301103, Control_c, 0, 64, 68
2, 301122, Control_c, 0, 64, 71
2, 301141, Control_c, 0, 64, 72
2, 301160, Control_c, 0, 64, 73
2, 301199, Control_c, 0, 64, 73
2, 301269, Note_on_c, 0, 58, 56
2, 301291, Note_on_c, 0, 56, 0
2, 301506, Control_c, 0, 64, 73
2, 301640, Control_c, 0, 64, 74
2, 301659, Control_c, 0, 64, 75
2, 301679, Control_c, 0, 64, 74
2, 301689, Note_on_c, 0, 80, 81
2, 301697, Control_c, 0, 64, 67
2, 301705, Note_on_c, 0, 56, 47
2, 301717, Control_c, 0, 64, 53
2, 301736, Control_c, 0, 64, 0
2, 301832, Control_c, 0, 64, 42
2, 301851, Control_c, 0, 64, 61
2, 301871, Control_c, 0, 64, 65
2, 301890, Control_c, 0, 64, 68
2, 301909, Control_c, 0, 64, 71
2, 301924, Note_on_c, 0, 72, 0
2, 301928, Control_c, 0, 64, 74
2, 301946, Note_on_c, 0, 75, 0
2, 301948, Control_c, 0, 64, 78
2, 301966, Control_c, 0, 64, 80
2, 301986, Control_c, 0, 64, 80
2, 302005, Control_c, 0, 64, 80
2, 302025, Control_c, 0, 64, 79
2, 302043, Control_c, 0, 64, 78
2, 302089, Note_on_c, 0, 58, 0
2, 302095, Note_on_c, 0, 54, 56
2, 302110, Note_on_c, 0, 56, 0
2, 302177, Control_c, 0, 64, 78
2, 302197, Control_c, 0, 64, 77
2, 302216, Control_c, 0, 64, 75
2, 302236, Control_c, 0, 64, 75
2, 302254, Control_c, 0, 64, 74
2, 302331, Control_c, 0, 64, 74
2, 302370, Control_c, 0, 64, 73
2, 302389, Control_c, 0, 64, 73
2, 302408, Control_c, 0, 64, 72
2, 302428, Control_c, 0, 64, 71
2, 302446, Control_c, 0, 64, 70
2, 302466, Control_c, 0, 64, 67
2, 302481, Note_on_c, 0, 68, 78
2, 302485, Control_c, 0, 64, 59
2, 302489, Note_on_c, 0, 54, 0
2, 302505, Control_c, 0, 64, 0
2, 302512, Note_on_c, 0, 53, 50
2, 302619, Control_c, 0, 64, 18
2, 302639, Control_c, 0, 64, 55
2, 302657, Control_c, 0, 64, 61
2, 302677, Control_c, 0, 64, 63
2, 302696, Control_c, 0, 64, 64
2, 302716, Control_c, 0, 64, 64
2, 302734, Control_c, 0, 64, 65
2, 302754, Control_c, 0, 64, 66
2, 302773, Control_c, 0, 64, 67
2, 302793, Control_c, 0, 64, 67
2, 302869, Note_on_c, 0, 53, 0
2, 302875, Note_on_c, 0, 54, 29
2, 302893, Note_on_c, 0, 82, 68
2, 302908, Control_c, 0, 64, 68
2, 302908, Note_on_c, 0, 80, 0
2, 302926, Control_c, 0, 64, 68
2, 302946, Control_c, 0, 64, 69
2, 303023, Control_c, 0, 64, 68
2, 303272, Control_c, 0, 64, 68
2, 303291, Control_c, 0, 64, 66
2, 303300, Note_on_c, 0, 73, 81
2, 303307, Note_on_c, 0, 80, 73
2, 303311, Control_c, 0, 64, 61
2, 303330, Control_c, 0, 64, 9
2, 303332, Note_on_c, 0, 53, 49
2, 303336, Note_on_c, 0, 54, 0
2, 303349, Control_c, 0, 64, 0
2, 303355, Note_on_c, 0, 82, 0
2, 303445, Control_c, 0, 64, 40
2, 303465, Control_c, 0, 64, 59
2, 303483, Control_c, 0, 64, 62
2, 303503, Control_c, 0, 64, 63
2, 303522, Control_c, 0, 64, 64
2, 303533, Note_on_c, 0, 68, 0
2, 303540, Control_c, 0, 64, 65
2, 303560, Control_c, 0, 64, 66
2, 303579, Control_c, 0, 64, 68
2, 303599, Control_c, 0, 64, 69
2, 303617, Control_c, 0, 64, 69
2, 303694, Control_c, 0, 64, 70
2, 303703, Note_on_c, 0, 51, 51
2, 303707, Note_on_c, 0, 53, 0
2, 303707, Note_on_c, 0, 78, 63
2, 303714, Control_c, 0, 64, 71
2, 303733, Control_c, 0, 64, 72
2, 303743, Note_on_c, 0, 80, 0
2, 303752, Control_c, 0, 64, 73
2, 303778, Note_on_c, 0, 73, 0
2, 304040, Control_c, 0, 64, 72
2, 304059, Control_c, 0, 64, 68
2, 304079, Control_c, 0, 64, 61
2, 304097, Control_c, 0, 64, 45
2, 304097, Note_on_c, 0, 77, 65
2, 304117, Control_c, 0, 64, 28
2, 304123, Note_on_c, 0, 49, 49
2, 304136, Control_c, 0, 64, 25
2, 304149, Note_on_c, 0, 51, 0
2, 304156, Control_c, 0, 64, 41
2, 304174, Control_c, 0, 64, 55
2, 304177, Note_on_c, 0, 78, 0
2, 304194, Control_c, 0, 64, 62
2, 304213, Control_c, 0, 64, 64
2, 304232, Control_c, 0, 64, 65
2, 304251, Control_c, 0, 64, 66
2, 304271, Control_c, 0, 64, 66
2, 304290, Control_c, 0, 64, 67
2, 304309, Control_c, 0, 64, 67
2, 304328, Control_c, 0, 64, 68
2, 304348, Control_c, 0, 64, 68
2, 304463, Control_c, 0, 64, 67
2, 304482, Control_c, 0, 64, 63
2, 304498, Note_on_c, 0, 75, 63
2, 304498, Note_on_c, 0, 78, 72
2, 304500, Control_c, 0, 64, 49
2, 304518, Note_on_c, 0, 59, 57
2, 304520, Control_c, 0, 64, 22
2, 304522, Note_on_c, 0, 49, 0
2, 304539, Control_c, 0, 64, 0
2, 304556, Note_on_c, 0, 77, 0
2, 304559, Control_c, 0, 64, 18
2, 304577, Control_c, 0, 64, 43
2, 304597, Control_c, 0, 64, 58
2, 304616, Control_c, 0, 64, 63
2, 304636, Control_c, 0, 64, 64
2, 304654, Control_c, 0, 64, 66
2, 304674, Control_c, 0, 64, 66
2, 304693, Control_c, 0, 64, 67
2, 304717, Control_c, 0, 64, 68
2, 304736, Control_c, 0, 64, 68
2, 304828, Control_c, 0, 64, 68
2, 304846, Control_c, 0, 64, 65
2, 304866, Control_c, 0, 64, 56
2, 304880, Note_on_c, 0, 80, 76
2, 304885, Control_c, 0, 64, 27
2, 304902, Note_on_c, 0, 73, 61
2, 304905, Control_c, 0, 64, 0
2, 304907, Note_on_c, 0, 58, 50
2, 304933, Note_on_c, 0, 59, 0
2, 304933, Note_on_c, 0, 75, 0
2, 304946, Note_on_c, 0, 78, 0
2, 304980, Control_c, 0, 64, 51
2, 305000, Control_c, 0, 64, 61
2, 305019, Control_c, 0, 64, 64
2, 305039, Control_c, 0, 64, 65
2, 305057, Control_c, 0, 64, 65
2, 305077, Control_c, 0, 64, 66
2, 305096, Control_c, 0, 64, 66
2, 305116, Control_c, 0, 64, 67
2, 305154, Control_c, 0, 64, 66
2, 305269, Control_c, 0, 64, 65
2, 305288, Control_c, 0, 64, 58
2, 305288, Note_on_c, 0, 71, 64
2, 305289, Note_on_c, 0, 56, 46
2, 305293, Note_on_c, 0, 73, 0
2, 305308, Control_c, 0, 64, 32
2, 305326, Control_c, 0, 64, 0
2, 305327, Note_on_c, 0, 58, 0
2, 305385, Control_c, 0, 64, 49
2, 305403, Control_c, 0, 64, 61
2, 305423, Control_c, 0, 64, 64
2, 305442, Control_c, 0, 64, 65
2, 305460, Control_c, 0, 64, 66
2, 305480, Control_c, 0, 64, 67
2, 305499, Control_c, 0, 64, 68
2, 305519, Control_c, 0, 64, 68
2, 305537, Control_c, 0, 64, 69
2, 305634, Control_c, 0, 64, 68
2, 305653, Control_c, 0, 64, 64
2, 305673, Control_c, 0, 64, 52
2, 305686, Note_on_c, 0, 73, 77
2, 305692, Control_c, 0, 64, 0
2, 305696, Note_on_c, 0, 70, 68
2, 305717, Note_on_c, 0, 54, 49
2, 305726, Note_on_c, 0, 71, 0
2, 305738, Note_on_c, 0, 56, 0
2, 305808, Note_on_c, 0, 80, 0
2, 305826, Control_c, 0, 64, 31
2, 305845, Control_c, 0, 64, 54
2, 305865, Control_c, 0, 64, 61
2, 305883, Control_c, 0, 64, 64
2, 305903, Control_c, 0, 64, 64
2, 305922, Control_c, 0, 64, 65
2, 305940, Control_c, 0, 64, 66
2, 305960, Control_c, 0, 64, 66
2, 305979, Control_c, 0, 64, 67
2, 306017, Control_c, 0, 64, 68
2, 306037, Control_c, 0, 64, 68
2, 306056, Control_c, 0, 64, 69
2, 306076, Control_c, 0, 64, 70
2, 306090, Note_on_c, 0, 71, 75
2, 306094, Control_c, 0, 64, 71
2, 306102, Note_on_c, 0, 56, 42
2, 306114, Control_c, 0, 64, 71
2, 306125, Note_on_c, 0, 70, 0
2, 306149, Note_on_c, 0, 54, 0
2, 306150, Note_on_c, 0, 73, 0
2, 306171, Control_c, 0, 64, 71
2, 306191, Control_c, 0, 64, 70
2, 306210, Control_c, 0, 64, 70
2, 306229, Control_c, 0, 64, 69
2, 306363, Control_c, 0, 64, 69
2, 306383, Control_c, 0, 64, 68
2, 306402, Control_c, 0, 64, 67
2, 306440, Control_c, 0, 64, 67
2, 306479, Control_c, 0, 64, 66
2, 306495, Note_on_c, 0, 78, 81
2, 306497, Control_c, 0, 64, 63
2, 306512, Note_on_c, 0, 73, 66
2, 306517, Control_c, 0, 64, 46
2, 306527, Note_on_c, 0, 54, 40
2, 306532, Note_on_c, 0, 71, 0
2, 306536, Control_c, 0, 64, 0
2, 306564, Note_on_c, 0, 56, 0
2, 306634, Control_c, 0, 64, 17
2, 306653, Control_c, 0, 64, 51
2, 306673, Control_c, 0, 64, 61
2, 306691, Control_c, 0, 64, 64
2, 306707, Control_c, 0, 64, 65
2, 306726, Control_c, 0, 64, 65
2, 306746, Control_c, 0, 64, 66
2, 306765, Control_c, 0, 64, 67
2, 306784, Control_c, 0, 64, 67
2, 306803, Control_c, 0, 64, 68
2, 306889, Note_on_c, 0, 54, 0
2, 306899, Control_c, 0, 64, 69
2, 306905, Note_on_c, 0, 52, 44
2, 306937, Control_c, 0, 64, 69
2, 306957, Control_c, 0, 64, 69
2, 306975, Control_c, 0, 64, 68
2, 306995, Control_c, 0, 64, 68
2, 307014, Control_c, 0, 64, 67
2, 307034, Control_c, 0, 64, 67
2, 307052, Control_c, 0, 64, 66
2, 307206, Control_c, 0, 64, 66
2, 307226, Control_c, 0, 64, 65
2, 307303, Control_c, 0, 64, 64
2, 307317, Note_on_c, 0, 66, 70
2, 307321, Control_c, 0, 64, 58
2, 307339, Note_on_c, 0, 51, 44
2, 307340, Control_c, 0, 64, 19
2, 307347, Note_on_c, 0, 52, 0
2, 307360, Control_c, 0, 64, 0
2, 307455, Control_c, 0, 64, 34
2, 307475, Control_c, 0, 64, 56
2, 307494, Control_c, 0, 64, 62
2, 307514, Control_c, 0, 64, 64
2, 307532, Control_c, 0, 64, 64
2, 307552, Control_c, 0, 64, 65
2, 307571, Control_c, 0, 64, 65
2, 307592, Control_c, 0, 64, 66
2, 307611, Control_c, 0, 64, 67
2, 307631, Control_c, 0, 64, 67
2, 307704, Note_on_c, 0, 76, 60
2, 307718, Note_on_c, 0, 49, 40
2, 307725, Note_on_c, 0, 51, 0
2, 307725, Note_on_c, 0, 66, 0
2, 307726, Control_c, 0, 64, 68
2, 307726, Note_on_c, 0, 73, 0
2, 307746, Control_c, 0, 64, 69
2, 307765, Control_c, 0, 64, 70
2, 307785, Control_c, 0, 64, 71
2, 307818, Note_on_c, 0, 78, 0
2, 307823, Control_c, 0, 64, 70
2, 307919, Control_c, 0, 64, 71
2, 307976, Control_c, 0, 64, 71
2, 308014, Control_c, 0, 64, 71
2, 308053, Control_c, 0, 64, 70
2, 308091, Control_c, 0, 64, 70
2, 308111, Control_c, 0, 64, 67
2, 308113, Note_on_c, 0, 75, 57
2, 308115, Note_on_c, 0, 71, 66
2, 308130, Control_c, 0, 64, 60
2, 308134, Note_on_c, 0, 47, 40
2, 308149, Control_c, 0, 64, 36
2, 308154, Note_on_c, 0, 49, 0
2, 308168, Control_c, 0, 64, 0
2, 308187, Note_on_c, 0, 76, 0
2, 308265, Control_c, 0, 64, 42
2, 308283, Control_c, 0, 64, 55
2, 308303, Control_c, 0, 64, 59
2, 308322, Control_c, 0, 64, 61
2, 308340, Control_c, 0, 64, 62
2, 308360, Control_c, 0, 64, 63
2, 308379, Control_c, 0, 64, 64
2, 308399, Control_c, 0, 64, 64
2, 308514, Control_c, 0, 64, 65
2, 308521, Note_on_c, 0, 44, 41
2, 308533, Control_c, 0, 64, 65
2, 308536, Note_on_c, 0, 47, 0
2, 308538, Note_on_c, 0, 80, 61
2, 308543, Note_on_c, 0, 75, 0
2, 308551, Control_c, 0, 64, 66
2, 308628, Control_c, 0, 64, 65
2, 308858, Control_c, 0, 64, 65
2, 308916, Control_c, 0, 64, 63
2, 308925, Note_on_c, 0, 73, 61
2, 308933, Note_on_c, 0, 46, 44
2, 308935, Control_c, 0, 64, 55
2, 308954, Note_on_c, 0, 80, 0
2, 308955, Control_c, 0, 64, 11
2, 308973, Control_c, 0, 64, 0
2, 308981, Note_on_c, 0, 44, 0
2, 309050, Control_c, 0, 64, 13
2, 309070, Control_c, 0, 64, 46
2, 309089, Control_c, 0, 64, 58
2, 309108, Control_c, 0, 64, 61
2, 309127, Control_c, 0, 64, 62
2, 309147, Control_c, 0, 64, 62
2, 309166, Control_c, 0, 64, 63
2, 309261, Control_c, 0, 64, 62
2, 309328, Note_on_c, 0, 71, 0
2, 309332, Note_on_c, 0, 78, 46
2, 309339, Note_on_c, 0, 70, 54
2, 309349, Note_on_c, 0, 42, 42
2, 309405, Note_on_c, 0, 46, 0
2, 309415, Control_c, 0, 64, 62
2, 309418, Note_on_c, 0, 73, 0
2, 309453, Control_c, 0, 64, 61
2, 309646, Control_c, 0, 64, 61
2, 309665, Control_c, 0, 64, 60
2, 309684, Control_c, 0, 64, 59
2, 309704, Control_c, 0, 64, 56
2, 309722, Control_c, 0, 64, 50
2, 309741, Control_c, 0, 64, 37
2, 309756, Note_on_c, 0, 68, 45
2, 309761, Control_c, 0, 64, 0
2, 309764, Note_on_c, 0, 49, 39
2, 309783, Note_on_c, 0, 70, 0
2, 309806, Note_on_c, 0, 42, 0
2, 309856, Control_c, 0, 64, 23
2, 309876, Control_c, 0, 64, 46
2, 309895, Control_c, 0, 64, 57
2, 309915, Control_c, 0, 64, 60
2, 309933, Control_c, 0, 64, 61
2, 309953, Control_c, 0, 64, 62
2, 309972, Control_c, 0, 64, 63
2, 309991, Control_c, 0, 64, 63
2, 310010, Control_c, 0, 64, 64
2, 310184, Control_c, 0, 64, 63
2, 310202, Control_c, 0, 64, 58
2, 310209, Note_on_c, 0, 77, 42
2, 310221, Control_c, 0, 64, 50
2, 310231, Note_on_c, 0, 37, 33
2, 310241, Control_c, 0, 64, 44
2, 310263, Note_on_c, 0, 49, 0
2, 310266, Note_on_c, 0, 78, 0
2, 310279, Control_c, 0, 64, 48
2, 310280, Note_on_c, 0, 68, 0
2, 310298, Control_c, 0, 64, 54
2, 310318, Control_c, 0, 64, 59
2, 310336, Control_c, 0, 64, 62
2, 310356, Control_c, 0, 64, 63
2, 310375, Control_c, 0, 64, 64
2, 310395, Control_c, 0, 64, 65
2, 310413, Control_c, 0, 64, 65
2, 310643, Control_c, 0, 64, 65
2, 310681, Control_c, 0, 64, 64
2, 310758, Control_c, 0, 64, 64
2, 310777, Control_c, 0, 64, 63
2, 310793, Note_on_c, 0, 78, 51
2, 310797, Control_c, 0, 64, 59
2, 310816, Control_c, 0, 64, 46
2, 310821, Note_on_c, 0, 42, 30
2, 310830, Note_on_c, 0, 77, 0
2, 310835, Control_c, 0, 64, 19
2, 310854, Control_c, 0, 64, 0
2, 310858, Note_on_c, 0, 66, 22
2, 310883, Note_on_c, 0, 37, 0
2, 310931, Control_c, 0, 64, 35
2, 310951, Control_c, 0, 64, 52
2, 310969, Control_c, 0, 64, 59
2, 310989, Control_c, 0, 64, 62
2, 311008, Control_c, 0, 64, 63
2, 311023, Note_on_c, 0, 78, 0
2, 311027, Control_c, 0, 64, 63
2, 311046, Control_c, 0, 64, 64
2, 311085, Control_c, 0, 64, 64
2, 311161, Control_c, 0, 64, 65
2, 311180, Control_c, 0, 64, 65
2, 311200, Control_c, 0, 64, 66
2, 311219, Control_c, 0, 64, 67
2, 311238, Control_c, 0, 64, 67
2, 311247, Note_on_c, 0, 66, 0
2, 311338, Note_on_c, 0, 65, 23
2, 311372, Control_c, 0, 64, 68
2, 311379, Note_on_c, 0, 44, 27
2, 311392, Control_c, 0, 64, 68
2, 311411, Control_c, 0, 64, 69
2, 311417, Note_on_c, 0, 42, 0
2, 311431, Control_c, 0, 64, 70
2, 311564, Control_c, 0, 64, 70
2, 311602, Control_c, 0, 64, 71
2, 311621, Control_c, 0, 64, 72
2, 311641, Control_c, 0, 64, 72
2, 311698, Control_c, 0, 64, 72
2, 311717, Control_c, 0, 64, 71
2, 311736, Control_c, 0, 64, 70
2, 311756, Control_c, 0, 64, 65
2, 311765, Note_on_c, 0, 73, 44
2, 311775, Control_c, 0, 64, 60
2, 311777, Note_on_c, 0, 65, 0
2, 311790, Note_on_c, 0, 46, 25
2, 311794, Control_c, 0, 64, 55
2, 311800, Note_on_c, 0, 66, 27
2, 311813, Control_c, 0, 64, 54
2, 311833, Control_c, 0, 64, 57
2, 311835, Note_on_c, 0, 44, 0
2, 311851, Control_c, 0, 64, 60
2, 311871, Control_c, 0, 64, 62
2, 311890, Control_c, 0, 64, 64
2, 311910, Control_c, 0, 64, 65
2, 311928, Control_c, 0, 64, 66
2, 311948, Control_c, 0, 64, 67
2, 311967, Control_c, 0, 64, 67
2, 311986, Control_c, 0, 64, 68
2, 312005, Control_c, 0, 64, 69
2, 312025, Control_c, 0, 64, 70
2, 312063, Control_c, 0, 64, 70
2, 312122, Note_on_c, 0, 66, 0
2, 312139, Control_c, 0, 64, 71
2, 312159, Control_c, 0, 64, 71
2, 312178, Control_c, 0, 64, 72
2, 312186, Note_on_c, 0, 68, 39
2, 312196, Note_on_c, 0, 44, 32
2, 312216, Control_c, 0, 64, 73
2, 312216, Note_on_c, 0, 46, 0
2, 312293, Control_c, 0, 64, 73
2, 312328, Note_on_c, 0, 68, 0
2, 312448, Note_on_c, 0, 44, 0
2, 312544, Control_c, 0, 64, 72
2, 312563, Control_c, 0, 64, 68
2, 312583, Control_c, 0, 64, 61
2, 312601, Control_c, 0, 64, 51
2, 312601, Note_on_c, 0, 70, 33
2, 312604, Note_on_c, 0, 42, 33
2, 312620, Control_c, 0, 64, 48
2, 312640, Control_c, 0, 64, 51
2, 312659, Control_c, 0, 64, 57
2, 312678, Control_c, 0, 64, 61
2, 312693, Note_on_c, 0, 70, 0
2, 312697, Control_c, 0, 64, 64
2, 312717, Control_c, 0, 64, 65
2, 312736, Control_c, 0, 64, 67
2, 312755, Control_c, 0, 64, 69
2, 312774, Control_c, 0, 64, 71
2, 312794, Control_c, 0, 64, 73
2, 312812, Control_c, 0, 64, 74
2, 312928, Control_c, 0, 64, 73
2, 312947, Control_c, 0, 64, 69
2, 312966, Control_c, 0, 64, 63
2, 312986, Control_c, 0, 64, 56
2, 312990, Note_on_c, 0, 73, 0
2, 313003, Note_on_c, 0, 71, 37
2, 313005, Control_c, 0, 64, 54
2, 313015, Note_on_c, 0, 54, 31
2, 313019, Note_on_c, 0, 42, 0
2, 313019, Note_on_c, 0, 68, 28
2, 313024, Control_c, 0, 64, 56
2, 313043, Control_c, 0, 64, 59
2, 313063, Control_c, 0, 64, 62
2, 313081, Control_c, 0, 64, 65
2, 313100, Control_c, 0, 64, 66
2, 313120, Control_c, 0, 64, 68
2, 313139, Control_c, 0, 64, 70
2, 313154, Note_on_c, 0, 68, 0
2, 313158, Control_c, 0, 64, 71
2, 313177, Control_c, 0, 64, 72
2, 313197, Control_c, 0, 64, 72
2, 313312, Control_c, 0, 64, 72
2, 313331, Control_c, 0, 64, 70
2, 313351, Control_c, 0, 64, 66
2, 313370, Control_c, 0, 64, 58
2, 313390, Control_c, 0, 64, 51
2, 313390, Note_on_c, 0, 71, 0
2, 313409, Control_c, 0, 64, 50
2, 313411, Note_on_c, 0, 54, 0
2, 313419, Note_on_c, 0, 53, 35
2, 313422, Note_on_c, 0, 73, 44
2, 313427, Control_c, 0, 64, 53
2, 313428, Note_on_c, 0, 70, 42
2, 313446, Control_c, 0, 64, 57
2, 313466, Control_c, 0, 64, 61
2, 313485, Control_c, 0, 64, 63
2, 313504, Control_c, 0, 64, 65
2, 313523, Control_c, 0, 64, 66
2, 313542, Control_c, 0, 64, 67
2, 313561, Control_c, 0, 64, 69
2, 313580, Control_c, 0, 64, 70
2, 313600, Control_c, 0, 64, 71
2, 313638, Control_c, 0, 64, 70
2, 313677, Control_c, 0, 64, 69
2, 313696, Control_c, 0, 64, 65
2, 313715, Control_c, 0, 64, 59
2, 313734, Control_c, 0, 64, 51
2, 313754, Control_c, 0, 64, 50
2, 313772, Control_c, 0, 64, 53
2, 313792, Control_c, 0, 64, 57
2, 313794, Note_on_c, 0, 73, 0
2, 313803, Note_on_c, 0, 75, 55
2, 313807, Note_on_c, 0, 72, 47
2, 313811, Control_c, 0, 64, 61
2, 313821, Note_on_c, 0, 51, 31
2, 313831, Control_c, 0, 64, 63
2, 313849, Control_c, 0, 64, 65
2, 313861, Note_on_c, 0, 70, 0
2, 313869, Control_c, 0, 64, 66
2, 313887, Note_on_c, 0, 53, 0
2, 313888, Control_c, 0, 64, 67
2, 313907, Control_c, 0, 64, 69
2, 313926, Control_c, 0, 64, 71
2, 313946, Control_c, 0, 64, 72
2, 313965, Control_c, 0, 64, 73
2, 314099, Control_c, 0, 64, 72
2, 314118, Control_c, 0, 64, 69
2, 314137, Control_c, 0, 64, 61
2, 314157, Control_c, 0, 64, 44
2, 314176, Control_c, 0, 64, 23
2, 314195, Control_c, 0, 64, 0
2, 314195, Note_on_c, 0, 77, 52
2, 314200, Note_on_c, 0, 72, 0
2, 314219, Note_on_c, 0, 75, 0
2, 314232, Note_on_c, 0, 73, 35
2, 314234, Control_c, 0, 64, 25
2, 314252, Control_c, 0, 64, 39
2, 314252, Note_on_c, 0, 49, 32
2, 314272, Control_c, 0, 64, 50
2, 314291, Control_c, 0, 64, 57
2, 314291, Note_on_c, 0, 51, 0
2, 314311, Control_c, 0, 64, 61
2, 314329, Control_c, 0, 64, 63
2, 314349, Control_c, 0, 64, 63
2, 314368, Control_c, 0, 64, 64
2, 314426, Control_c, 0, 64, 63
2, 314445, Control_c, 0, 64, 59
2, 314464, Control_c, 0, 64, 48
2, 314483, Control_c, 0, 64, 39
2, 314502, Control_c, 0, 64, 36
2, 314540, Control_c, 0, 64, 42
2, 314560, Control_c, 0, 64, 48
2, 314579, Control_c, 0, 64, 51
2, 314598, Control_c, 0, 64, 53
2, 314611, Note_on_c, 0, 73, 0
2, 314617, Control_c, 0, 64, 54
2, 314628, Note_on_c, 0, 75, 49
2, 314631, Note_on_c, 0, 71, 39
2, 314637, Control_c, 0, 64, 54
2, 314656, Control_c, 0, 64, 55
2, 314790, Note_on_c, 0, 77, 0
2, 314848, Control_c, 0, 64, 54
2, 314867, Control_c, 0, 64, 53
2, 314886, Control_c, 0, 64, 52
2, 314906, Control_c, 0, 64, 51
2, 314925, Control_c, 0, 64, 49
2, 314944, Control_c, 0, 64, 46
2, 314963, Control_c, 0, 64, 40
2, 314982, Control_c, 0, 64, 23
2, 315001, Control_c, 0, 64, 0
2, 315034, Note_on_c, 0, 73, 50
2, 315036, Note_on_c, 0, 75, 0
2, 315046, Note_on_c, 0, 54, 34
2, 315085, Note_on_c, 0, 49, 0
2, 315232, Control_c, 0, 64, 31
2, 315251, Control_c, 0, 64, 46
2, 315271, Control_c, 0, 64, 55
2, 315290, Control_c, 0, 64, 59
2, 315310, Control_c, 0, 64, 61
2, 315329, Control_c, 0, 64, 62
2, 315348, Control_c, 0, 64, 63
2, 315367, Control_c, 0, 64, 64
2, 315387, Control_c, 0, 64, 64
2, 315406, Control_c, 0, 64, 65
2, 315425, Control_c, 0, 64, 66
2, 315440, Note_on_c, 0, 71, 0
2, 315444, Control_c, 0, 64, 66
2, 315457, Note_on_c, 0, 70, 32
2, 315464, Control_c, 0, 64, 67
2, 315482, Control_c, 0, 64, 67
2, 315501, Control_c, 0, 64, 68
2, 315521, Control_c, 0, 64, 69
2, 315540, Control_c, 0, 64, 70
2, 315559, Control_c, 0, 64, 71
2, 315578, Control_c, 0, 64, 71
2, 315598, Control_c, 0, 64, 72
2, 315675, Control_c, 0, 64, 71
2, 315713, Control_c, 0, 64, 71
2, 315770, Control_c, 0, 64, 70
2, 315809, Control_c, 0, 64, 70
2, 315828, Control_c, 0, 64, 69
2, 315844, Note_on_c, 0, 80, 63
2, 315847, Control_c, 0, 64, 64
2, 315851, Note_on_c, 0, 70, 0
2, 315866, Note_on_c, 0, 73, 0
2, 315867, Control_c, 0, 64, 53
2, 315886, Control_c, 0, 64, 21
2, 315895, Note_on_c, 0, 71, 34
2, 315905, Control_c, 0, 64, 0
2, 315981, Control_c, 0, 64, 28
2, 316001, Control_c, 0, 64, 53
2, 316020, Control_c, 0, 64, 62
2, 316039, Control_c, 0, 64, 64
2, 316058, Control_c, 0, 64, 65
2, 316078, Control_c, 0, 64, 65
2, 316096, Control_c, 0, 64, 66
2, 316116, Control_c, 0, 64, 69
2, 316135, Control_c, 0, 64, 72
2, 316155, Control_c, 0, 64, 75
2, 316173, Control_c, 0, 64, 76
2, 316193, Control_c, 0, 64, 76
2, 316222, Note_on_c, 0, 80, 0
2, 316244, Note_on_c, 0, 71, 0
2, 316250, Control_c, 0, 64, 77
2, 316269, Note_on_c, 0, 70, 40
2, 316270, Control_c, 0, 64, 78
2, 316289, Control_c, 0, 64, 78
2, 316366, Control_c, 0, 64, 78
2, 316461, Control_c, 0, 64, 77
2, 316500, Control_c, 0, 64, 77
2, 316519, Control_c, 0, 64, 76
2, 316558, Control_c, 0, 64, 76
2, 316576, Control_c, 0, 64, 75
2, 316607, Note_on_c, 0, 70, 0
2, 316615, Control_c, 0, 64, 75
2, 316635, Control_c, 0, 64, 74
2, 316653, Control_c, 0, 64, 70
2, 316654, Note_on_c, 0, 73, 45
2, 316673, Control_c, 0, 64, 61
2, 316677, Note_on_c, 0, 68, 33
2, 316681, Note_on_c, 0, 54, 0
2, 316689, Note_on_c, 0, 53, 28
2, 316692, Control_c, 0, 64, 42
2, 316711, Control_c, 0, 64, 0
2, 316788, Control_c, 0, 64, 36
2, 316807, Control_c, 0, 64, 55
2, 316827, Control_c, 0, 64, 60
2, 316846, Control_c, 0, 64, 62
2, 316865, Control_c, 0, 64, 63
2, 316884, Control_c, 0, 64, 63
2, 316922, Control_c, 0, 64, 64
2, 317054, Note_on_c, 0, 68, 0
2, 317072, Note_on_c, 0, 71, 36
2, 317095, Control_c, 0, 64, 64
2, 317153, Control_c, 0, 64, 64
2, 317421, Control_c, 0, 64, 63
2, 317441, Control_c, 0, 64, 59
2, 317460, Control_c, 0, 64, 53
2, 317479, Control_c, 0, 64, 48
2, 317498, Control_c, 0, 64, 47
2, 317499, Note_on_c, 0, 70, 35
2, 317517, Note_on_c, 0, 71, 0
2, 317518, Control_c, 0, 64, 50
2, 317525, Note_on_c, 0, 54, 22
2, 317531, Note_on_c, 0, 53, 0
2, 317536, Control_c, 0, 64, 55
2, 317556, Control_c, 0, 64, 58
2, 317571, Note_on_c, 0, 73, 0
2, 317575, Control_c, 0, 64, 61
2, 317595, Control_c, 0, 64, 63
2, 317613, Control_c, 0, 64, 64
2, 317633, Control_c, 0, 64, 64
2, 317652, Control_c, 0, 64, 65
2, 317671, Control_c, 0, 64, 65
2, 317787, Control_c, 0, 64, 65
2, 317825, Control_c, 0, 64, 64
2, 317844, Control_c, 0, 64, 63
2, 317864, Control_c, 0, 64, 62
2, 317882, Control_c, 0, 64, 61
2, 317901, Control_c, 0, 64, 59
2, 317902, Note_on_c, 0, 54, 0
2, 317916, Note_on_c, 0, 75, 43
2, 317921, Control_c, 0, 64, 56
2, 317926, Note_on_c, 0, 53, 27
2, 317940, Control_c, 0, 64, 53
2, 317959, Control_c, 0, 64, 52
2, 317978, Control_c, 0, 64, 51
2, 317998, Control_c, 0, 64, 52
2, 318016, Control_c, 0, 64, 52
2, 318036, Control_c, 0, 64, 53
2, 318055, Control_c, 0, 64, 54
2, 318075, Control_c, 0, 64, 55
2, 318093, Control_c, 0, 64, 56
2, 318190, Control_c, 0, 64, 55
2, 318209, Control_c, 0, 64, 55
2, 318228, Control_c, 0, 64, 54
2, 318267, Control_c, 0, 64, 53
2, 318286, Control_c, 0, 64, 53
2, 318288, Note_on_c, 0, 77, 45
2, 318305, Control_c, 0, 64, 52
2, 318339, Note_on_c, 0, 51, 26
2, 318344, Control_c, 0, 64, 52
2, 318351, Note_on_c, 0, 75, 0
2, 318380, Note_on_c, 0, 53, 0
2, 318381, Control_c, 0, 64, 52
2, 318401, Control_c, 0, 64, 53
2, 318420, Control_c, 0, 64, 54
2, 318439, Control_c, 0, 64, 54
2, 318458, Control_c, 0, 64, 55
2, 318478, Control_c, 0, 64, 56
2, 318496, Control_c, 0, 64, 56
2, 318612, Control_c, 0, 64, 56
2, 318719, Note_on_c, 0, 50, 30
2, 318758, Note_on_c, 0, 51, 0
2, 318785, Control_c, 0, 64, 55
2, 319053, Control_c, 0, 64, 55
2, 319092, Control_c, 0, 64, 53
2, 319111, Control_c, 0, 64, 50
2, 319130, Control_c, 0, 64, 44
2, 319136, Note_on_c, 0, 78, 48
2, 319150, Control_c, 0, 64, 35
2, 319154, Note_on_c, 0, 77, 0
2, 319157, Note_on_c, 0, 51, 27
2, 319160, Note_on_c, 0, 50, 0
2, 319169, Control_c, 0, 64, 25
2, 319188, Control_c, 0, 64, 15
2, 319207, Control_c, 0, 64, 0
2, 319220, Note_on_c, 0, 70, 0
2, 319265, Control_c, 0, 64, 11
2, 319284, Control_c, 0, 64, 26
2, 319303, Control_c, 0, 64, 38
2, 319322, Control_c, 0, 64, 48
2, 319341, Control_c, 0, 64, 53
2, 319361, Control_c, 0, 64, 56
2, 319380, Control_c, 0, 64, 57
2, 319399, Control_c, 0, 64, 59
2, 319418, Control_c, 0, 64, 60
2, 319438, Control_c, 0, 64, 61
2, 319456, Control_c, 0, 64, 62
2, 319476, Control_c, 0, 64, 63
2, 319495, Control_c, 0, 64, 63
2, 319533, Control_c, 0, 64, 64
2, 319550, Note_on_c, 0, 72, 40
2, 319764, Control_c, 0, 64, 63
2, 319932, Note_on_c, 0, 72, 0
2, 319936, Control_c, 0, 64, 63
2, 319956, Control_c, 0, 64, 62
2, 319956, Note_on_c, 0, 46, 30
2, 319963, Note_on_c, 0, 73, 34
2, 319975, Control_c, 0, 64, 59
2, 319995, Control_c, 0, 64, 54
2, 320013, Control_c, 0, 64, 47
2, 320016, Note_on_c, 0, 51, 0
2, 320033, Control_c, 0, 64, 41
2, 320052, Control_c, 0, 64, 37
2, 320071, Control_c, 0, 64, 37
2, 320110, Control_c, 0, 64, 39
2, 320129, Control_c, 0, 64, 42
2, 320148, Control_c, 0, 64, 45
2, 320167, Control_c, 0, 64, 48
2, 320187, Control_c, 0, 64, 50
2, 320206, Control_c, 0, 64, 51
2, 320225, Control_c, 0, 64, 51
2, 320244, Control_c, 0, 64, 52
2, 320263, Control_c, 0, 64, 53
2, 320282, Control_c, 0, 64, 53
2, 320321, Control_c, 0, 64, 54
2, 320345, Note_on_c, 0, 48, 39
2, 320362, Note_on_c, 0, 75, 45
2, 320378, Control_c, 0, 64, 53
2, 320416, Control_c, 0, 64, 53
2, 320416, Note_on_c, 0, 78, 0
2, 320436, Control_c, 0, 64, 52
2, 320448, Note_on_c, 0, 46, 0
2, 320475, Control_c, 0, 64, 52
2, 320493, Control_c, 0, 64, 51
2, 320532, Control_c, 0, 64, 51
2, 320551, Control_c, 0, 64, 50
2, 320609, Control_c, 0, 64, 50
2, 320647, Control_c, 0, 64, 49
2, 320667, Control_c, 0, 64, 49
2, 320686, Control_c, 0, 64, 48
2, 320705, Control_c, 0, 64, 47
2, 320724, Control_c, 0, 64, 45
2, 320743, Control_c, 0, 64, 40
2, 320762, Control_c, 0, 64, 28
2, 320764, Note_on_c, 0, 48, 0
2, 320769, Note_on_c, 0, 73, 0
2, 320781, Control_c, 0, 64, 0
2, 320787, Note_on_c, 0, 49, 49
2, 320788, Note_on_c, 0, 68, 41
2, 320878, Control_c, 0, 64, 25
2, 320896, Control_c, 0, 64, 37
2, 320916, Control_c, 0, 64, 48
2, 320935, Control_c, 0, 64, 56
2, 320955, Control_c, 0, 64, 60
2, 320973, Control_c, 0, 64, 62
2, 320993, Control_c, 0, 64, 63
2, 321012, Control_c, 0, 64, 64
2, 321029, Control_c, 0, 64, 65
2, 321047, Control_c, 0, 64, 66
2, 321067, Control_c, 0, 64, 66
2, 321106, Control_c, 0, 64, 67
2, 321143, Control_c, 0, 64, 68
2, 321163, Control_c, 0, 64, 68
2, 321181, Control_c, 0, 64, 69
2, 321194, Note_on_c, 0, 77, 45
2, 321196, Note_on_c, 0, 75, 0
2, 321201, Control_c, 0, 64, 69
2, 321258, Control_c, 0, 64, 69
2, 321297, Control_c, 0, 64, 68
2, 321308, Note_on_c, 0, 68, 0
2, 321316, Control_c, 0, 64, 68
2, 321335, Control_c, 0, 64, 67
2, 321374, Control_c, 0, 64, 67
2, 321412, Control_c, 0, 64, 66
2, 321470, Control_c, 0, 64, 66
2, 321547, Control_c, 0, 64, 65
2, 321566, Control_c, 0, 64, 64
2, 321586, Control_c, 0, 64, 61
2, 321599, Note_on_c, 0, 75, 42
2, 321601, Note_on_c, 0, 77, 0
2, 321604, Control_c, 0, 64, 50
2, 321611, Note_on_c, 0, 42, 42
2, 321623, Control_c, 0, 64, 37
2, 321627, Note_on_c, 0, 70, 33
2, 321643, Control_c, 0, 64, 22
2, 321644, Note_on_c, 0, 49, 0
2, 321661, Control_c, 0, 64, 13
2, 321700, Control_c, 0, 64, 17
2, 321720, Control_c, 0, 64, 29
2, 321738, Control_c, 0, 64, 41
2, 321758, Control_c, 0, 64, 52
2, 321777, Control_c, 0, 64, 58
2, 321796, Control_c, 0, 64, 61
2, 321815, Control_c, 0, 64, 62
2, 321835, Control_c, 0, 64, 63
2, 321892, Control_c, 0, 64, 60
2, 321912, Control_c, 0, 64, 56
2, 321931, Control_c, 0, 64, 52
2, 321950, Control_c, 0, 64, 51
2, 321969, Control_c, 0, 64, 52
2, 321991, Control_c, 0, 64, 55
2, 322010, Control_c, 0, 64, 59
2, 322015, Note_on_c, 0, 73, 41
2, 322030, Control_c, 0, 64, 61
2, 322049, Control_c, 0, 64, 62
2, 322066, Control_c, 0, 64, 63
2, 322103, Control_c, 0, 64, 64
2, 322141, Control_c, 0, 64, 64
2, 322334, Control_c, 0, 64, 64
2, 322353, Control_c, 0, 64, 63
2, 322360, Note_on_c, 0, 70, 0
2, 322372, Control_c, 0, 64, 58
2, 322389, Note_on_c, 0, 75, 0
2, 322392, Control_c, 0, 64, 48
2, 322408, Note_on_c, 0, 44, 42
2, 322411, Control_c, 0, 64, 33
2, 322415, Note_on_c, 0, 72, 40
2, 322430, Control_c, 0, 64, 19
2, 322449, Control_c, 0, 64, 18
2, 322469, Control_c, 0, 64, 25
2, 322487, Control_c, 0, 64, 37
2, 322507, Control_c, 0, 64, 47
2, 322513, Note_on_c, 0, 42, 0
2, 322526, Control_c, 0, 64, 54
2, 322546, Control_c, 0, 64, 58
2, 322564, Control_c, 0, 64, 61
2, 322583, Control_c, 0, 64, 62
2, 322603, Control_c, 0, 64, 63
2, 322621, Control_c, 0, 64, 63
2, 322641, Control_c, 0, 64, 64
2, 322641, Note_on_c, 0, 73, 0
2, 322680, Control_c, 0, 64, 64
2, 322737, Control_c, 0, 64, 65
2, 322756, Control_c, 0, 64, 64
2, 322775, Control_c, 0, 64, 61
2, 322795, Control_c, 0, 64, 59
2, 322814, Control_c, 0, 64, 58
2, 322818, Note_on_c, 0, 68, 41
2, 322833, Control_c, 0, 64, 59
2, 322845, Note_on_c, 0, 72, 0
2, 322852, Control_c, 0, 64, 62
2, 322872, Control_c, 0, 64, 63
2, 322891, Control_c, 0, 64, 65
2, 322910, Control_c, 0, 64, 66
2, 322929, Control_c, 0, 64, 67
2, 322952, Control_c, 0, 64, 68
2, 322971, Control_c, 0, 64, 70
2, 322991, Control_c, 0, 64, 71
2, 323010, Control_c, 0, 64, 72
2, 323086, Control_c, 0, 64, 72
2, 323162, Control_c, 0, 64, 72
2, 323181, Control_c, 0, 64, 70
2, 323201, Control_c, 0, 64, 65
2, 323206, Note_on_c, 0, 74, 51
2, 323207, Note_on_c, 0, 68, 0
2, 323220, Control_c, 0, 64, 58
2, 323239, Control_c, 0, 64, 51
2, 323243, Note_on_c, 0, 66, 32
2, 323255, Note_on_c, 0, 46, 33
2, 323258, Control_c, 0, 64, 50
2, 323278, Control_c, 0, 64, 52
2, 323296, Control_c, 0, 64, 56
2, 323316, Control_c, 0, 64, 60
2, 323333, Note_on_c, 0, 44, 0
2, 323335, Control_c, 0, 64, 63
2, 323355, Control_c, 0, 64, 65
2, 323373, Control_c, 0, 64, 66
2, 323393, Control_c, 0, 64, 67
2, 323412, Control_c, 0, 64, 69
2, 323431, Control_c, 0, 64, 69
2, 323450, Control_c, 0, 64, 70
2, 323470, Control_c, 0, 64, 71
2, 323489, Control_c, 0, 64, 71
2, 323551, Note_on_c, 0, 74, 0
2, 323566, Control_c, 0, 64, 70
2, 323585, Control_c, 0, 64, 66
2, 323604, Control_c, 0, 64, 61
2, 323623, Control_c, 0, 64, 56
2, 323635, Note_on_c, 0, 65, 38
2, 323642, Control_c, 0, 64, 55
2, 323661, Control_c, 0, 64, 56
2, 323664, Note_on_c, 0, 66, 0
2, 323681, Control_c, 0, 64, 60
2, 323700, Control_c, 0, 64, 63
2, 323719, Control_c, 0, 64, 64
2, 323738, Control_c, 0, 64, 66
2, 323758, Control_c, 0, 64, 67
2, 323776, Control_c, 0, 64, 69
2, 323796, Control_c, 0, 64, 70
2, 323815, Control_c, 0, 64, 72
2, 323835, Control_c, 0, 64, 72
2, 323855, Note_on_c, 0, 65, 0
2, 323988, Control_c, 0, 64, 73
2, 324027, Control_c, 0, 64, 72
2, 324046, Control_c, 0, 64, 71
2, 324049, Note_on_c, 0, 75, 50
2, 324061, Note_on_c, 0, 63, 34
2, 324064, Control_c, 0, 64, 68
2, 324079, Note_on_c, 0, 47, 33
2, 324084, Control_c, 0, 64, 65
2, 324103, Control_c, 0, 64, 62
2, 324122, Control_c, 0, 64, 61
2, 324122, Note_on_c, 0, 46, 0
2, 324141, Control_c, 0, 64, 59
2, 324161, Control_c, 0, 64, 59
2, 324180, Control_c, 0, 64, 58
2, 324199, Control_c, 0, 64, 59
2, 324218, Control_c, 0, 64, 59
2, 324238, Control_c, 0, 64, 61
2, 324256, Control_c, 0, 64, 62
2, 324276, Control_c, 0, 64, 62
2, 324295, Control_c, 0, 64, 63
2, 324333, Control_c, 0, 64, 62
2, 324410, Control_c, 0, 64, 62
2, 324430, Control_c, 0, 64, 61
2, 324437, Note_on_c, 0, 66, 49
2, 324468, Control_c, 0, 64, 61
2, 324487, Control_c, 0, 64, 60
2, 324504, Note_on_c, 0, 46, 31
2, 324507, Control_c, 0, 64, 60
2, 324526, Control_c, 0, 64, 59
2, 324528, Note_on_c, 0, 47, 0
2, 324548, Note_on_c, 0, 63, 0
2, 324564, Control_c, 0, 64, 59
2, 324660, Control_c, 0, 64, 58
2, 324679, Control_c, 0, 64, 58
2, 324718, Control_c, 0, 64, 57
2, 324736, Control_c, 0, 64, 57
2, 324756, Control_c, 0, 64, 56
2, 324775, Control_c, 0, 64, 55
2, 324795, Control_c, 0, 64, 52
2, 324813, Control_c, 0, 64, 49
2, 324833, Control_c, 0, 64, 46
2, 324852, Control_c, 0, 64, 44
2, 324861, Note_on_c, 0, 71, 48
2, 324872, Control_c, 0, 64, 41
2, 324891, Control_c, 0, 64, 39
2, 324896, Note_on_c, 0, 44, 31
2, 324911, Control_c, 0, 64, 38
2, 324912, Note_on_c, 0, 66, 0
2, 324927, Note_on_c, 0, 46, 0
2, 324930, Control_c, 0, 64, 36
2, 324967, Control_c, 0, 64, 34
2, 324987, Control_c, 0, 64, 32
2, 325006, Control_c, 0, 64, 31
2, 325063, Control_c, 0, 64, 30
2, 325082, Control_c, 0, 64, 29
2, 325101, Control_c, 0, 64, 27
2, 325121, Control_c, 0, 64, 26
2, 325140, Control_c, 0, 64, 25
2, 325255, Control_c, 0, 64, 29
2, 325275, Control_c, 0, 64, 37
2, 325276, Note_on_c, 0, 42, 31
2, 325293, Control_c, 0, 64, 45
2, 325304, Note_on_c, 0, 44, 0
2, 325313, Control_c, 0, 64, 50
2, 325322, Note_on_c, 0, 75, 0
2, 325332, Control_c, 0, 64, 53
2, 325351, Control_c, 0, 64, 56
2, 325370, Control_c, 0, 64, 58
2, 325390, Control_c, 0, 64, 60
2, 325409, Control_c, 0, 64, 62
2, 325428, Control_c, 0, 64, 63
2, 325447, Control_c, 0, 64, 63
2, 325467, Control_c, 0, 64, 64
2, 325691, Note_on_c, 0, 73, 39
2, 325696, Control_c, 0, 64, 62
2, 325716, Control_c, 0, 64, 56
2, 325735, Control_c, 0, 64, 42
2, 325755, Control_c, 0, 64, 20
2, 325760, Note_on_c, 0, 40, 20
2, 325773, Control_c, 0, 64, 9
2, 325787, Note_on_c, 0, 42, 0
2, 325812, Control_c, 0, 64, 13
2, 325831, Control_c, 0, 64, 17
2, 325849, Control_c, 0, 64, 20
2, 325869, Control_c, 0, 64, 26
2, 325888, Control_c, 0, 64, 31
2, 325907, Control_c, 0, 64, 34
2, 325926, Control_c, 0, 64, 35
2, 325946, Control_c, 0, 64, 36
2, 325965, Control_c, 0, 64, 36
2, 325983, Control_c, 0, 64, 38
2, 326003, Control_c, 0, 64, 39
2, 326022, Control_c, 0, 64, 40
2, 326041, Control_c, 0, 64, 40
2, 326060, Control_c, 0, 64, 41
2, 326080, Control_c, 0, 64, 41
2, 326116, Note_on_c, 0, 70, 42
2, 326118, Control_c, 0, 64, 42
2, 326135, Note_on_c, 0, 71, 0
2, 326349, Control_c, 0, 64, 41
2, 326387, Control_c, 0, 64, 41
2, 326426, Control_c, 0, 64, 40
2, 326463, Control_c, 0, 64, 40
2, 326483, Control_c, 0, 64, 39
2, 326502, Control_c, 0, 64, 38
2, 326521, Control_c, 0, 64, 37
2, 326524, Note_on_c, 0, 70, 0
2, 326533, Note_on_c, 0, 39, 32
2, 326540, Control_c, 0, 64, 36
2, 326541, Note_on_c, 0, 68, 38
2, 326560, Control_c, 0, 64, 35
2, 326578, Note_on_c, 0, 40, 0
2, 326579, Control_c, 0, 64, 34
2, 326637, Control_c, 0, 64, 37
2, 326656, Control_c, 0, 64, 42
2, 326675, Control_c, 0, 64, 48
2, 326694, Control_c, 0, 64, 54
2, 326714, Control_c, 0, 64, 59
2, 326732, Control_c, 0, 64, 61
2, 326752, Control_c, 0, 64, 62
2, 326771, Control_c, 0, 64, 62
2, 326791, Control_c, 0, 64, 63
2, 326810, Control_c, 0, 64, 64
2, 326830, Control_c, 0, 64, 64
2, 326849, Control_c, 0, 64, 65
2, 326867, Control_c, 0, 64, 66
2, 326885, Control_c, 0, 64, 66
2, 326904, Control_c, 0, 64, 67
2, 326908, Note_on_c, 0, 68, 0
2, 326924, Control_c, 0, 64, 68
2, 326942, Control_c, 0, 64, 69
2, 326949, Note_on_c, 0, 67, 34
2, 326962, Control_c, 0, 64, 69
2, 326981, Control_c, 0, 64, 70
2, 327001, Control_c, 0, 64, 71
2, 327019, Control_c, 0, 64, 73
2, 327039, Control_c, 0, 64, 74
2, 327058, Control_c, 0, 64, 75
2, 327077, Control_c, 0, 64, 76
2, 327081, Note_on_c, 0, 67, 0
2, 327096, Control_c, 0, 64, 76
2, 327270, Control_c, 0, 64, 76
2, 327288, Control_c, 0, 64, 75
2, 327308, Control_c, 0, 64, 75
2, 327327, Control_c, 0, 64, 73
2, 327347, Control_c, 0, 64, 71
2, 327365, Control_c, 0, 64, 69
2, 327367, Note_on_c, 0, 71, 30
2, 327380, Note_on_c, 0, 44, 24
2, 327384, Control_c, 0, 64, 66
2, 327391, Note_on_c, 0, 73, 0
2, 327395, Note_on_c, 0, 68, 34
2, 327404, Control_c, 0, 64, 64
2, 327422, Control_c, 0, 64, 63
2, 327442, Control_c, 0, 64, 62
2, 327451, Note_on_c, 0, 39, 0
2, 327461, Control_c, 0, 64, 61
2, 327481, Control_c, 0, 64, 60
2, 327499, Control_c, 0, 64, 58
2, 327519, Control_c, 0, 64, 57
2, 327538, Control_c, 0, 64, 57
2, 327557, Control_c, 0, 64, 56
2, 327576, Control_c, 0, 64, 55
2, 327596, Control_c, 0, 64, 54
2, 327615, Control_c, 0, 64, 53
2, 327634, Control_c, 0, 64, 52
2, 327653, Control_c, 0, 64, 51
2, 327673, Control_c, 0, 64, 51
2, 327691, Control_c, 0, 64, 50
2, 327730, Control_c, 0, 64, 50
2, 327774, Note_on_c, 0, 73, 44
2, 327777, Note_on_c, 0, 46, 35
2, 327788, Control_c, 0, 64, 49
2, 327807, Control_c, 0, 64, 49
2, 327812, Note_on_c, 0, 71, 0
2, 327837, Note_on_c, 0, 44, 0
2, 327844, Control_c, 0, 64, 48
2, 328156, Note_on_c, 0, 75, 53
2, 328162, Note_on_c, 0, 46, 0
2, 328164, Note_on_c, 0, 47, 37
2, 328164, Note_on_c, 0, 73, 0
2, 328229, Control_c, 0, 64, 48
2, 328286, Control_c, 0, 64, 47
2, 328553, Note_on_c, 0, 76, 50
2, 328562, Note_on_c, 0, 75, 0
2, 328565, Note_on_c, 0, 49, 42
2, 328593, Note_on_c, 0, 47, 0
2, 328805, Control_c, 0, 64, 47
2, 328882, Control_c, 0, 64, 46
2, 328988, Note_on_c, 0, 51, 33
2, 328992, Note_on_c, 0, 70, 39
2, 328997, Control_c, 0, 64, 46
2, 329013, Note_on_c, 0, 76, 0
2, 329020, Note_on_c, 0, 49, 0
2, 329055, Control_c, 0, 64, 45
2, 329074, Control_c, 0, 64, 45
2, 329093, Control_c, 0, 64, 44
2, 329131, Control_c, 0, 64, 44
2, 329170, Control_c, 0, 64, 43
2, 329190, Control_c, 0, 64, 42
2, 329208, Control_c, 0, 64, 42
2, 329228, Control_c, 0, 64, 41
2, 329247, Control_c, 0, 64, 41
2, 329304, Control_c, 0, 64, 40
2, 329362, Control_c, 0, 64, 40
2, 329374, Note_on_c, 0, 70, 0
2, 329382, Note_on_c, 0, 71, 32
2, 329419, Control_c, 0, 64, 39
2, 329439, Control_c, 0, 64, 39
2, 329455, Note_on_c, 0, 68, 0
2, 329477, Control_c, 0, 64, 38
2, 329496, Control_c, 0, 64, 38
2, 329535, Control_c, 0, 64, 37
2, 329593, Control_c, 0, 64, 37
2, 329650, Control_c, 0, 64, 36
2, 329671, Control_c, 0, 64, 36
2, 329689, Control_c, 0, 64, 35
2, 329709, Control_c, 0, 64, 33
2, 329728, Control_c, 0, 64, 32
2, 329765, Control_c, 0, 64, 33
2, 329784, Control_c, 0, 64, 38
2, 329791, Note_on_c, 0, 71, 0
2, 329792, Note_on_c, 0, 73, 40
2, 329804, Control_c, 0, 64, 48
2, 329808, Note_on_c, 0, 67, 20
2, 329822, Control_c, 0, 64, 57
2, 329842, Control_c, 0, 64, 61
2, 329861, Control_c, 0, 64, 63
2, 329881, Control_c, 0, 64, 64
2, 329899, Control_c, 0, 64, 65
2, 329919, Control_c, 0, 64, 66
2, 329938, Control_c, 0, 64, 68
2, 329951, Note_on_c, 0, 51, 0
2, 329957, Control_c, 0, 64, 70
2, 329976, Control_c, 0, 64, 71
2, 329996, Control_c, 0, 64, 72
2, 330015, Control_c, 0, 64, 74
2, 330034, Control_c, 0, 64, 76
2, 330053, Control_c, 0, 64, 77
2, 330073, Control_c, 0, 64, 79
2, 330091, Control_c, 0, 64, 81
2, 330111, Control_c, 0, 64, 82
2, 330130, Control_c, 0, 64, 84
2, 330150, Control_c, 0, 64, 84
2, 330168, Control_c, 0, 64, 85
2, 330191, Note_on_c, 0, 51, 30
2, 330196, Note_on_c, 0, 75, 52
2, 330247, Note_on_c, 0, 73, 0
2, 330258, Note_on_c, 0, 75, 0
2, 330330, Note_on_c, 0, 67, 0
2, 330418, Control_c, 0, 64, 84
2, 330514, Control_c, 0, 64, 84
2, 330571, Control_c, 0, 64, 83
2, 330591, Control_c, 0, 64, 83
2, 330610, Control_c, 0, 64, 82
2, 330631, Control_c, 0, 64, 80
2, 330649, Control_c, 0, 64, 79
2, 330661, Note_on_c, 0, 68, 66
2, 330669, Control_c, 0, 64, 75
2, 330683, Note_on_c, 0, 71, 56
2, 330688, Control_c, 0, 64, 68
2, 330703, Note_on_c, 0, 51, 0
2, 330707, Control_c, 0, 64, 57
2, 330719, Note_on_c, 0, 56, 34
2, 330726, Control_c, 0, 64, 44
2, 330745, Control_c, 0, 64, 36
2, 330765, Control_c, 0, 64, 35
2, 330783, Control_c, 0, 64, 40
2, 330803, Control_c, 0, 64, 49
2, 330822, Control_c, 0, 64, 59
2, 330841, Control_c, 0, 64, 63
2, 330860, Control_c, 0, 64, 64
2, 330880, Control_c, 0, 64, 66
2, 330899, Control_c, 0, 64, 68
2, 330918, Control_c, 0, 64, 70
2, 330937, Control_c, 0, 64, 72
2, 330957, Control_c, 0, 64, 73
2, 330976, Control_c, 0, 64, 74
2, 331014, Note_on_c, 0, 71, 0
2, 331034, Control_c, 0, 64, 74
2, 331052, Control_c, 0, 64, 75
2, 331072, Control_c, 0, 64, 76
2, 331091, Control_c, 0, 64, 78
2, 331111, Control_c, 0, 64, 79
2, 331137, Note_on_c, 0, 68, 0
2, 331167, Note_on_c, 0, 70, 47
2, 331194, Note_on_c, 0, 56, 0
2, 331196, Note_on_c, 0, 58, 26
2, 331245, Control_c, 0, 64, 80
2, 331302, Control_c, 0, 64, 80
2, 331398, Control_c, 0, 64, 80
2, 331514, Control_c, 0, 64, 79
2, 331532, Control_c, 0, 64, 78
2, 331552, Control_c, 0, 64, 75
2, 331553, Note_on_c, 0, 63, 52
2, 331568, Note_on_c, 0, 68, 45
2, 331571, Control_c, 0, 64, 67
2, 331588, Note_on_c, 0, 70, 0
2, 331592, Control_c, 0, 64, 59
2, 331592, Note_on_c, 0, 58, 0
2, 331608, Note_on_c, 0, 59, 37
2, 331611, Control_c, 0, 64, 48
2, 331631, Control_c, 0, 64, 42
2, 331650, Control_c, 0, 64, 42
2, 331667, Control_c, 0, 64, 46
2, 331686, Control_c, 0, 64, 52
2, 331705, Control_c, 0, 64, 58
2, 331725, Control_c, 0, 64, 62
2, 331743, Control_c, 0, 64, 63
2, 331763, Control_c, 0, 64, 65
2, 331782, Control_c, 0, 64, 65
2, 331801, Control_c, 0, 64, 66
2, 331820, Control_c, 0, 64, 67
2, 331840, Control_c, 0, 64, 68
2, 331859, Control_c, 0, 64, 69
2, 331878, Control_c, 0, 64, 70
2, 331917, Control_c, 0, 64, 70
2, 331936, Control_c, 0, 64, 71
2, 331955, Control_c, 0, 64, 71
2, 331974, Control_c, 0, 64, 72
2, 331974, Note_on_c, 0, 56, 32
2, 331976, Note_on_c, 0, 66, 30
2, 331977, Note_on_c, 0, 68, 0
2, 331993, Note_on_c, 0, 59, 0
2, 332132, Note_on_c, 0, 63, 0
2, 332185, Control_c, 0, 64, 72
2, 332300, Control_c, 0, 64, 72
2, 332320, Control_c, 0, 64, 70
2, 332339, Control_c, 0, 64, 67
2, 332358, Control_c, 0, 64, 61
2, 332370, Note_on_c, 0, 65, 38
2, 332371, Note_on_c, 0, 58, 35
2, 332377, Control_c, 0, 64, 56
2, 332392, Note_on_c, 0, 56, 0
2, 332397, Control_c, 0, 64, 53
2, 332416, Control_c, 0, 64, 54
2, 332435, Control_c, 0, 64, 56
2, 332454, Control_c, 0, 64, 58
2, 332471, Note_on_c, 0, 66, 0
2, 332474, Control_c, 0, 64, 61
2, 332492, Control_c, 0, 64, 62
2, 332512, Control_c, 0, 64, 63
2, 332531, Control_c, 0, 64, 64
2, 332555, Control_c, 0, 64, 65
2, 332574, Control_c, 0, 64, 66
2, 332685, Control_c, 0, 64, 65
2, 332761, Control_c, 0, 64, 65
2, 332784, Note_on_c, 0, 62, 39
2, 332800, Note_on_c, 0, 56, 30
2, 332819, Control_c, 0, 64, 64
2, 332831, Note_on_c, 0, 58, 0
2, 332838, Control_c, 0, 64, 64
2, 332877, Control_c, 0, 64, 63
2, 332896, Control_c, 0, 64, 63
2, 332992, Control_c, 0, 64, 62
2, 333011, Control_c, 0, 64, 62
2, 333031, Control_c, 0, 64, 61
2, 333049, Control_c, 0, 64, 61
2, 333069, Control_c, 0, 64, 60
2, 333107, Control_c, 0, 64, 60
2, 333126, Control_c, 0, 64, 59
2, 333145, Control_c, 0, 64, 59
2, 333165, Control_c, 0, 64, 58
2, 333183, Control_c, 0, 64, 57
2, 333189, Note_on_c, 0, 63, 47
2, 333190, Note_on_c, 0, 66, 45
2, 333192, Note_on_c, 0, 62, 0
2, 333198, Note_on_c, 0, 65, 0
2, 333203, Control_c, 0, 64, 57
2, 333210, Note_on_c, 0, 54, 33
2, 333222, Control_c, 0, 64, 56
2, 333241, Control_c, 0, 64, 55
2, 333242, Note_on_c, 0, 56, 0
2, 333260, Control_c, 0, 64, 54
2, 333280, Control_c, 0, 64, 53
2, 333299, Control_c, 0, 64, 52
2, 333318, Control_c, 0, 64, 52
2, 333434, Control_c, 0, 64, 51
2, 333452, Control_c, 0, 64, 51
2, 333472, Control_c, 0, 64, 50
2, 333491, Control_c, 0, 64, 49
2, 333512, Control_c, 0, 64, 49
2, 333543, Note_on_c, 0, 63, 0
2, 333575, Note_on_c, 0, 65, 49
2, 333575, Note_on_c, 0, 66, 0
2, 333587, Note_on_c, 0, 68, 50
2, 333598, Note_on_c, 0, 54, 0
2, 333622, Note_on_c, 0, 53, 33
2, 333645, Control_c, 0, 64, 48
2, 333683, Control_c, 0, 64, 48
2, 333702, Control_c, 0, 64, 47
2, 333972, Note_on_c, 0, 65, 0
2, 333981, Note_on_c, 0, 68, 0
2, 334008, Note_on_c, 0, 70, 46
2, 334009, Control_c, 0, 64, 47
2, 334016, Note_on_c, 0, 66, 38
2, 334028, Note_on_c, 0, 51, 29
2, 334029, Control_c, 0, 64, 45
2, 334048, Control_c, 0, 64, 43
2, 334065, Note_on_c, 0, 53, 0
2, 334066, Control_c, 0, 64, 40
2, 334086, Control_c, 0, 64, 38
2, 334105, Control_c, 0, 64, 36
2, 334125, Control_c, 0, 64, 35
2, 334143, Control_c, 0, 64, 35
2, 334163, Control_c, 0, 64, 34
2, 334182, Control_c, 0, 64, 32
2, 334201, Control_c, 0, 64, 31
2, 334220, Control_c, 0, 64, 30
2, 334278, Control_c, 0, 64, 31
2, 334297, Control_c, 0, 64, 36
2, 334317, Control_c, 0, 64, 44
2, 334336, Control_c, 0, 64, 53
2, 334355, Control_c, 0, 64, 59
2, 334374, Control_c, 0, 64, 61
2, 334380, Note_on_c, 0, 70, 0
2, 334394, Control_c, 0, 64, 63
2, 334409, Note_on_c, 0, 65, 39
2, 334412, Control_c, 0, 64, 64
2, 334432, Control_c, 0, 64, 66
2, 334451, Control_c, 0, 64, 67
2, 334452, Note_on_c, 0, 66, 0
2, 334471, Control_c, 0, 64, 69
2, 334489, Control_c, 0, 64, 71
2, 334509, Control_c, 0, 64, 72
2, 334528, Control_c, 0, 64, 73
2, 334543, Note_on_c, 0, 65, 0
2, 334546, Control_c, 0, 64, 73
2, 334585, Control_c, 0, 64, 74
2, 334605, Control_c, 0, 64, 74
2, 334623, Control_c, 0, 64, 75
2, 334643, Control_c, 0, 64, 75
2, 334797, Control_c, 0, 64, 75
2, 334813, Note_on_c, 0, 72, 47
2, 334816, Control_c, 0, 64, 71
2, 334819, Note_on_c, 0, 63, 44
2, 334835, Control_c, 0, 64, 65
2, 334842, Note_on_c, 0, 56, 41
2, 334854, Control_c, 0, 64, 59
2, 334874, Control_c, 0, 64, 54
2, 334892, Control_c, 0, 64, 53
2, 334906, Note_on_c, 0, 51, 0
2, 334912, Control_c, 0, 64, 55
2, 334931, Control_c, 0, 64, 58
2, 334951, Control_c, 0, 64, 61
2, 334969, Control_c, 0, 64, 64
2, 334989, Control_c, 0, 64, 65
2, 335008, Control_c, 0, 64, 67
2, 335026, Control_c, 0, 64, 68
2, 335046, Control_c, 0, 64, 70
2, 335065, Control_c, 0, 64, 71
2, 335085, Control_c, 0, 64, 72
2, 335103, Control_c, 0, 64, 73
2, 335180, Control_c, 0, 64, 74
2, 335219, Control_c, 0, 64, 74
2, 335219, Note_on_c, 0, 72, 0
2, 335219, Note_on_c, 0, 74, 52
2, 335296, Control_c, 0, 64, 74
2, 335334, Control_c, 0, 64, 73
2, 335471, Control_c, 0, 64, 73
2, 335506, Control_c, 0, 64, 72
2, 335545, Control_c, 0, 64, 72
2, 335583, Control_c, 0, 64, 71
2, 335622, Control_c, 0, 64, 71
2, 335637, Note_on_c, 0, 70, 70
2, 335641, Control_c, 0, 64, 66
2, 335641, Note_on_c, 0, 74, 0
2, 335660, Control_c, 0, 64, 57
2, 335664, Note_on_c, 0, 75, 53
2, 335680, Control_c, 0, 64, 41
2, 335699, Control_c, 0, 64, 25
2, 335718, Control_c, 0, 64, 15
2, 335737, Control_c, 0, 64, 17
2, 335757, Control_c, 0, 64, 31
2, 335776, Control_c, 0, 64, 46
2, 335795, Control_c, 0, 64, 58
2, 335814, Control_c, 0, 64, 62
2, 335834, Control_c, 0, 64, 63
2, 335852, Control_c, 0, 64, 64
2, 335872, Control_c, 0, 64, 64
2, 335891, Control_c, 0, 64, 65
2, 335911, Control_c, 0, 64, 66
2, 335929, Control_c, 0, 64, 67
2, 335949, Control_c, 0, 64, 67
2, 335968, Control_c, 0, 64, 68
2, 336006, Control_c, 0, 64, 69
2, 336025, Control_c, 0, 64, 70
2, 336034, Note_on_c, 0, 56, 0
2, 336045, Control_c, 0, 64, 71
2, 336050, Note_on_c, 0, 55, 33
2, 336063, Control_c, 0, 64, 72
2, 336078, Note_on_c, 0, 63, 0
2, 336083, Control_c, 0, 64, 73
2, 336153, Note_on_c, 0, 55, 0
2, 336219, Note_on_c, 0, 53, 33
2, 336275, Control_c, 0, 64, 73
2, 336332, Control_c, 0, 64, 73
2, 336371, Control_c, 0, 64, 72
2, 336411, Control_c, 0, 64, 72
2, 336431, Control_c, 0, 64, 69
2, 336450, Control_c, 0, 64, 64
2, 336456, Note_on_c, 0, 63, 50
2, 336464, Note_on_c, 0, 53, 0
2, 336466, Control_c, 0, 64, 52
2, 336473, Note_on_c, 0, 55, 30
2, 336486, Control_c, 0, 64, 37
2, 336505, Control_c, 0, 64, 22
2, 336525, Control_c, 0, 64, 18
2, 336543, Control_c, 0, 64, 21
2, 336563, Control_c, 0, 64, 36
2, 336582, Control_c, 0, 64, 50
2, 336601, Control_c, 0, 64, 58
2, 336620, Control_c, 0, 64, 62
2, 336640, Control_c, 0, 64, 63
2, 336659, Control_c, 0, 64, 64
2, 336678, Control_c, 0, 64, 64
2, 336697, Control_c, 0, 64, 65
2, 336832, Control_c, 0, 64, 66
2, 336838, Note_on_c, 0, 75, 0
2, 336847, Note_on_c, 0, 73, 45
2, 336928, Note_on_c, 0, 70, 0
2, 336946, Control_c, 0, 64, 65
2, 337197, Control_c, 0, 64, 65
2, 337216, Control_c, 0, 64, 64
2, 337234, Note_on_c, 0, 73, 0
2, 337235, Control_c, 0, 64, 60
2, 337254, Control_c, 0, 64, 50
2, 337257, Note_on_c, 0, 72, 41
2, 337264, Note_on_c, 0, 56, 38
2, 337274, Control_c, 0, 64, 39
2, 337280, Note_on_c, 0, 55, 0
2, 337292, Control_c, 0, 64, 31
2, 337312, Control_c, 0, 64, 32
2, 337331, Control_c, 0, 64, 39
2, 337351, Control_c, 0, 64, 50
2, 337369, Control_c, 0, 64, 58
2, 337389, Control_c, 0, 64, 62
2, 337408, Control_c, 0, 64, 64
2, 337428, Control_c, 0, 64, 65
2, 337447, Control_c, 0, 64, 66
2, 337466, Control_c, 0, 64, 67
2, 337470, Note_on_c, 0, 63, 0
2, 337486, Control_c, 0, 64, 68
2, 337504, Control_c, 0, 64, 70
2, 337524, Control_c, 0, 64, 71
2, 337581, Control_c, 0, 64, 70
2, 337601, Control_c, 0, 64, 67
2, 337620, Control_c, 0, 64, 62
2, 337639, Control_c, 0, 64, 55
2, 337649, Note_on_c, 0, 72, 0
2, 337658, Control_c, 0, 64, 52
2, 337675, Note_on_c, 0, 54, 34
2, 337678, Control_c, 0, 64, 53
2, 337681, Note_on_c, 0, 74, 35
2, 337683, Note_on_c, 0, 65, 41
2, 337692, Note_on_c, 0, 56, 0
2, 337696, Control_c, 0, 64, 56
2, 337716, Control_c, 0, 64, 60
2, 337735, Control_c, 0, 64, 63
2, 337755, Control_c, 0, 64, 64
2, 337773, Control_c, 0, 64, 66
2, 337793, Control_c, 0, 64, 67
2, 337812, Control_c, 0, 64, 68
2, 337815, Note_on_c, 0, 65, 0
2, 337832, Control_c, 0, 64, 70
2, 337850, Control_c, 0, 64, 71
2, 337870, Control_c, 0, 64, 73
2, 337889, Control_c, 0, 64, 73
2, 337908, Control_c, 0, 64, 74
2, 338023, Control_c, 0, 64, 72
2, 338042, Control_c, 0, 64, 67
2, 338061, Control_c, 0, 64, 61
2, 338078, Note_on_c, 0, 66, 42
2, 338081, Control_c, 0, 64, 55
2, 338083, Note_on_c, 0, 53, 31
2, 338084, Note_on_c, 0, 75, 43
2, 338097, Note_on_c, 0, 54, 0
2, 338100, Control_c, 0, 64, 54
2, 338105, Note_on_c, 0, 74, 0
2, 338119, Control_c, 0, 64, 56
2, 338138, Control_c, 0, 64, 60
2, 338158, Control_c, 0, 64, 62
2, 338176, Control_c, 0, 64, 64
2, 338196, Control_c, 0, 64, 65
2, 338215, Control_c, 0, 64, 67
2, 338235, Control_c, 0, 64, 69
2, 338253, Control_c, 0, 64, 70
2, 338273, Control_c, 0, 64, 72
2, 338292, Control_c, 0, 64, 73
2, 338386, Control_c, 0, 64, 72
2, 338406, Control_c, 0, 64, 71
2, 338425, Control_c, 0, 64, 70
2, 338445, Control_c, 0, 64, 70
2, 338454, Note_on_c, 0, 51, 37
2, 338454, Note_on_c, 0, 53, 0
2, 338463, Control_c, 0, 64, 69
2, 338483, Control_c, 0, 64, 67
2, 338502, Control_c, 0, 64, 66
2, 338521, Control_c, 0, 64, 65
2, 338540, Control_c, 0, 64, 65
2, 338854, Note_on_c, 0, 51, 0
2, 338866, Note_on_c, 0, 68, 50
2, 338886, Note_on_c, 0, 53, 34
2, 338905, Control_c, 0, 64, 64
2, 338906, Note_on_c, 0, 66, 0
2, 338925, Control_c, 0, 64, 64
2, 338943, Control_c, 0, 64, 63
2, 338982, Control_c, 0, 64, 63
2, 339001, Control_c, 0, 64, 62
2, 339078, Control_c, 0, 64, 62
2, 339117, Control_c, 0, 64, 61
2, 339136, Control_c, 0, 64, 61
2, 339174, Control_c, 0, 64, 60
2, 339276, Note_on_c, 0, 54, 37
2, 339327, Control_c, 0, 64, 60
2, 339331, Note_on_c, 0, 53, 0
2, 339365, Control_c, 0, 64, 59
2, 339404, Control_c, 0, 64, 59
2, 339647, Note_on_c, 0, 75, 0
2, 339665, Note_on_c, 0, 74, 42
2, 339691, Control_c, 0, 64, 58
2, 339693, Note_on_c, 0, 56, 39
2, 339730, Control_c, 0, 64, 57
2, 339747, Note_on_c, 0, 54, 0
2, 339750, Control_c, 0, 64, 57
2, 339768, Control_c, 0, 64, 56
2, 339787, Control_c, 0, 64, 56
2, 339826, Control_c, 0, 64, 55
2, 339922, Control_c, 0, 64, 55
2, 339961, Control_c, 0, 64, 54
2, 339979, Control_c, 0, 64, 54
2, 339999, Control_c, 0, 64, 53
2, 340037, Control_c, 0, 64, 53
2, 340091, Note_on_c, 0, 58, 43
2, 340131, Note_on_c, 0, 56, 0
2, 340230, Control_c, 0, 64, 53
2, 340248, Control_c, 0, 64, 54
2, 340267, Control_c, 0, 64, 54
2, 340287, Control_c, 0, 64, 55
2, 340306, Control_c, 0, 64, 55
2, 340325, Control_c, 0, 64, 56
2, 340344, Control_c, 0, 64, 57
2, 340364, Control_c, 0, 64, 58
2, 340402, Control_c, 0, 64, 57
2, 340421, Control_c, 0, 64, 55
2, 340435, Note_on_c, 0, 74, 0
2, 340441, Control_c, 0, 64, 52
2, 340443, Note_on_c, 0, 58, 0
2, 340446, Note_on_c, 0, 51, 37
2, 340450, Note_on_c, 0, 68, 0
2, 340459, Control_c, 0, 64, 50
2, 340473, Note_on_c, 0, 75, 44
2, 340495, Note_on_c, 0, 66, 32
2, 340498, Control_c, 0, 64, 53
2, 340517, Control_c, 0, 64, 56
2, 340536, Control_c, 0, 64, 58
2, 340556, Control_c, 0, 64, 59
2, 340575, Control_c, 0, 64, 59
2, 340594, Control_c, 0, 64, 60
2, 340613, Control_c, 0, 64, 61
2, 340633, Control_c, 0, 64, 63
2, 340651, Control_c, 0, 64, 64
2, 340657, Note_on_c, 0, 63, 59
2, 340671, Control_c, 0, 64, 65
2, 340690, Control_c, 0, 64, 66
2, 340696, Note_on_c, 0, 51, 0
2, 340710, Control_c, 0, 64, 67
2, 340728, Control_c, 0, 64, 68
2, 340747, Control_c, 0, 64, 69
2, 340767, Control_c, 0, 64, 69
2, 340786, Control_c, 0, 64, 70
2, 340805, Control_c, 0, 64, 70
2, 340824, Control_c, 0, 64, 71
2, 340843, Note_on_c, 0, 61, 64
2, 340844, Control_c, 0, 64, 72
2, 340856, Note_on_c, 0, 63, 0
2, 340869, Note_on_c, 0, 68, 48
2, 340909, Note_on_c, 0, 66, 0
2, 340939, Control_c, 0, 64, 71
2, 340978, Control_c, 0, 64, 71
2, 340981, Note_on_c, 0, 68, 0
2, 340997, Control_c, 0, 64, 70
2, 341013, Note_on_c, 0, 61, 0
2, 341016, Control_c, 0, 64, 70
2, 341025, Note_on_c, 0, 59, 65
2, 341036, Control_c, 0, 64, 69
2, 341055, Control_c, 0, 64, 69
2, 341074, Control_c, 0, 64, 68
2, 341093, Control_c, 0, 64, 68
2, 341113, Control_c, 0, 64, 67
2, 341131, Control_c, 0, 64, 67
2, 341151, Control_c, 0, 64, 66
2, 341170, Control_c, 0, 64, 65
2, 341194, Control_c, 0, 64, 65
2, 341213, Control_c, 0, 64, 64
2, 341233, Control_c, 0, 64, 63
2, 341241, Note_on_c, 0, 74, 49
2, 341251, Control_c, 0, 64, 62
2, 341260, Note_on_c, 0, 58, 58
2, 341261, Note_on_c, 0, 70, 45
2, 341263, Note_on_c, 0, 75, 0
2, 341266, Control_c, 0, 64, 60
2, 341285, Control_c, 0, 64, 57
2, 341304, Control_c, 0, 64, 53
2, 341304, Note_on_c, 0, 59, 0
2, 341324, Control_c, 0, 64, 48
2, 341342, Control_c, 0, 64, 43
2, 341362, Control_c, 0, 64, 39
2, 341381, Control_c, 0, 64, 35
2, 341401, Control_c, 0, 64, 33
2, 341419, Control_c, 0, 64, 32
2, 341458, Control_c, 0, 64, 36
2, 341477, Control_c, 0, 64, 43
2, 341496, Control_c, 0, 64, 50
2, 341516, Control_c, 0, 64, 57
2, 341535, Control_c, 0, 64, 61
2, 341554, Control_c, 0, 64, 63
2, 341573, Control_c, 0, 64, 64
2, 341593, Control_c, 0, 64, 66
2, 341611, Control_c, 0, 64, 67
2, 341629, Note_on_c, 0, 72, 52
2, 341631, Control_c, 0, 64, 69
2, 341636, Note_on_c, 0, 75, 58
2, 341650, Control_c, 0, 64, 71
2, 341670, Control_c, 0, 64, 73
2, 341676, Note_on_c, 0, 74, 0
2, 341688, Control_c, 0, 64, 75
2, 341707, Control_c, 0, 64, 76
2, 341727, Control_c, 0, 64, 77
2, 341738, Note_on_c, 0, 70, 0
2, 341746, Control_c, 0, 64, 78
2, 341763, Note_on_c, 0, 75, 0
2, 341765, Control_c, 0, 64, 80
2, 341784, Control_c, 0, 64, 81
2, 341804, Control_c, 0, 64, 82
2, 341808, Note_on_c, 0, 72, 0
2, 341822, Control_c, 0, 64, 83
2, 341861, Control_c, 0, 64, 83
2, 342061, Note_on_c, 0, 74, 59
2, 342071, Note_on_c, 0, 58, 0
2, 342075, Note_on_c, 0, 77, 61
2, 342111, Control_c, 0, 64, 83
2, 342263, Control_c, 0, 64, 82
2, 342321, Control_c, 0, 64, 82
2, 342417, Control_c, 0, 64, 80
2, 342437, Control_c, 0, 64, 73
2, 342455, Control_c, 0, 64, 65
2, 342458, Note_on_c, 0, 54, 51
2, 342473, Note_on_c, 0, 80, 59
2, 342475, Control_c, 0, 64, 57
2, 342494, Control_c, 0, 64, 54
2, 342513, Control_c, 0, 64, 55
2, 342522, Note_on_c, 0, 74, 0
2, 342532, Control_c, 0, 64, 57
2, 342534, Note_on_c, 0, 77, 0
2, 342552, Control_c, 0, 64, 60
2, 342571, Control_c, 0, 64, 63
2, 342590, Control_c, 0, 64, 65
2, 342609, Control_c, 0, 64, 68
2, 342629, Control_c, 0, 64, 71
2, 342647, Control_c, 0, 64, 74
2, 342666, Control_c, 0, 64, 77
2, 342686, Control_c, 0, 64, 78
2, 342705, Control_c, 0, 64, 79
2, 342763, Control_c, 0, 64, 80
2, 342801, Control_c, 0, 64, 77
2, 342820, Control_c, 0, 64, 72
2, 342840, Control_c, 0, 64, 65
2, 342858, Control_c, 0, 64, 61
2, 342872, Note_on_c, 0, 78, 64
2, 342875, Note_on_c, 0, 60, 53
2, 342878, Control_c, 0, 64, 60
2, 342887, Note_on_c, 0, 56, 55
2, 342897, Control_c, 0, 64, 61
2, 342917, Control_c, 0, 64, 63
2, 342935, Control_c, 0, 64, 64
2, 342937, Note_on_c, 0, 54, 0
2, 342955, Control_c, 0, 64, 66
2, 342974, Control_c, 0, 64, 68
2, 342993, Control_c, 0, 64, 70
2, 342996, Note_on_c, 0, 80, 0
2, 343012, Control_c, 0, 64, 72
2, 343032, Control_c, 0, 64, 74
2, 343051, Control_c, 0, 64, 74
2, 343089, Control_c, 0, 64, 73
2, 343109, Control_c, 0, 64, 71
2, 343127, Control_c, 0, 64, 65
2, 343146, Control_c, 0, 64, 59
2, 343166, Control_c, 0, 64, 52
2, 343185, Control_c, 0, 64, 49
2, 343223, Control_c, 0, 64, 50
2, 343243, Control_c, 0, 64, 52
2, 343247, Note_on_c, 0, 77, 66
2, 343248, Note_on_c, 0, 62, 54
2, 343254, Note_on_c, 0, 56, 0
2, 343261, Control_c, 0, 64, 56
2, 343263, Note_on_c, 0, 60, 0
2, 343277, Note_on_c, 0, 58, 59
2, 343281, Control_c, 0, 64, 59
2, 343297, Note_on_c, 0, 78, 0
2, 343300, Control_c, 0, 64, 62
2, 343320, Control_c, 0, 64, 64
2, 343338, Control_c, 0, 64, 65
2, 343358, Control_c, 0, 64, 66
2, 343377, Control_c, 0, 64, 67
2, 343415, Control_c, 0, 64, 66
2, 343435, Control_c, 0, 64, 64
2, 343454, Control_c, 0, 64, 61
2, 343473, Control_c, 0, 64, 59
2, 343492, Control_c, 0, 64, 59
2, 343512, Control_c, 0, 64, 59
2, 343531, Control_c, 0, 64, 60
2, 343550, Control_c, 0, 64, 61
2, 343569, Control_c, 0, 64, 62
2, 343573, Note_on_c, 0, 58, 0
2, 343589, Control_c, 0, 64, 62
2, 343607, Control_c, 0, 64, 63
2, 343626, Control_c, 0, 64, 63
2, 343640, Note_on_c, 0, 75, 66
2, 343652, Note_on_c, 0, 63, 61
2, 343665, Control_c, 0, 64, 63
2, 343671, Note_on_c, 0, 77, 0
2, 343672, Note_on_c, 0, 59, 49
2, 343703, Control_c, 0, 64, 62
2, 343706, Note_on_c, 0, 62, 0
2, 343723, Control_c, 0, 64, 62
2, 343741, Control_c, 0, 64, 61
2, 343818, Control_c, 0, 64, 62
2, 343934, Control_c, 0, 64, 61
2, 344030, Control_c, 0, 64, 61
2, 344048, Note_on_c, 0, 73, 64
2, 344050, Note_on_c, 0, 58, 55
2, 344070, Control_c, 0, 64, 60
2, 344107, Control_c, 0, 64, 60
2, 344119, Note_on_c, 0, 59, 0
2, 344127, Control_c, 0, 64, 59
2, 344145, Control_c, 0, 64, 59
2, 344164, Control_c, 0, 64, 58
2, 344183, Control_c, 0, 64, 58
2, 344199, Note_on_c, 0, 75, 0
2, 344337, Control_c, 0, 64, 57
2, 344375, Control_c, 0, 64, 57
2, 344395, Control_c, 0, 64, 56
2, 344459, Note_on_c, 0, 71, 56
2, 344472, Control_c, 0, 64, 56
2, 344475, Note_on_c, 0, 56, 55
2, 344491, Control_c, 0, 64, 55
2, 344501, Note_on_c, 0, 73, 0
2, 344510, Control_c, 0, 64, 55
2, 344533, Note_on_c, 0, 58, 0
2, 344548, Control_c, 0, 64, 54
2, 344567, Control_c, 0, 64, 54
2, 344798, Control_c, 0, 64, 53
2, 344837, Control_c, 0, 64, 53
2, 344861, Note_on_c, 0, 65, 56
2, 344884, Note_on_c, 0, 70, 55
2, 344896, Note_on_c, 0, 71, 0
2, 344915, Note_on_c, 0, 63, 0
2, 344932, Control_c, 0, 64, 52
2, 344952, Control_c, 0, 64, 52
2, 344990, Control_c, 0, 64, 51
2, 345026, Note_on_c, 0, 70, 0
2, 345049, Note_on_c, 0, 71, 61
2, 345163, Control_c, 0, 64, 51
2, 345240, Control_c, 0, 64, 50
2, 345246, Note_on_c, 0, 66, 66
2, 345246, Note_on_c, 0, 71, 0
2, 345248, Note_on_c, 0, 63, 66
2, 345251, Note_on_c, 0, 65, 0
2, 345253, Note_on_c, 0, 70, 65
2, 345296, Note_on_c, 0, 56, 0
2, 345355, Control_c, 0, 64, 50
2, 345451, Control_c, 0, 64, 50
2, 345508, Control_c, 0, 64, 51
2, 345546, Control_c, 0, 64, 51
2, 345623, Control_c, 0, 64, 52
2, 345647, Note_on_c, 0, 72, 59
2, 345661, Control_c, 0, 64, 52
2, 345673, Note_on_c, 0, 70, 0
2, 345700, Control_c, 0, 64, 53
2, 345931, Control_c, 0, 64, 53
2, 346060, Note_on_c, 0, 58, 56
2, 346067, Note_on_c, 0, 74, 54
2, 346068, Note_on_c, 0, 65, 50
2, 346076, Note_on_c, 0, 63, 0
2, 346103, Control_c, 0, 64, 54
2, 346104, Note_on_c, 0, 66, 0
2, 346129, Note_on_c, 0, 72, 0
2, 346459, Note_on_c, 0, 75, 62
2, 346461, Note_on_c, 0, 63, 54
2, 346468, Control_c, 0, 64, 54
2, 346526, Control_c, 0, 64, 55
2, 346528, Note_on_c, 0, 65, 0
2, 346553, Note_on_c, 0, 74, 0
2, 346718, Control_c, 0, 64, 54
2, 346775, Control_c, 0, 64, 54
2, 346795, Control_c, 0, 64, 53
2, 346814, Control_c, 0, 64, 48
2, 346833, Control_c, 0, 64, 34
2, 346851, Note_on_c, 0, 77, 72
2, 346852, Control_c, 0, 64, 0
2, 346879, Note_on_c, 0, 62, 48
2, 346891, Note_on_c, 0, 63, 0
2, 346901, Note_on_c, 0, 75, 0
2, 346929, Control_c, 0, 64, 29
2, 346948, Control_c, 0, 64, 46
2, 346967, Control_c, 0, 64, 52
2, 346986, Control_c, 0, 64, 55
2, 347006, Control_c, 0, 64, 58
2, 347025, Control_c, 0, 64, 60
2, 347045, Control_c, 0, 64, 62
2, 347064, Control_c, 0, 64, 64
2, 347084, Control_c, 0, 64, 64
2, 347102, Control_c, 0, 64, 65
2, 347141, Control_c, 0, 64, 64
2, 347161, Control_c, 0, 64, 63
2, 347179, Control_c, 0, 64, 58
2, 347199, Control_c, 0, 64, 49
2, 347218, Control_c, 0, 64, 45
2, 347237, Control_c, 0, 64, 45
2, 347244, Note_on_c, 0, 70, 64
2, 347246, Note_on_c, 0, 62, 0
2, 347256, Control_c, 0, 64, 48
2, 347266, Note_on_c, 0, 63, 49
2, 347276, Control_c, 0, 64, 53
2, 347276, Note_on_c, 0, 60, 50
2, 347287, Note_on_c, 0, 77, 0
2, 347295, Control_c, 0, 64, 57
2, 347307, Note_on_c, 0, 58, 0
2, 347314, Control_c, 0, 64, 58
2, 347333, Control_c, 0, 64, 60
2, 347353, Control_c, 0, 64, 61
2, 347371, Control_c, 0, 64, 62
2, 347391, Control_c, 0, 64, 63
2, 347410, Control_c, 0, 64, 63
2, 347582, Control_c, 0, 64, 63
2, 347602, Control_c, 0, 64, 60
2, 347621, Control_c, 0, 64, 52
2, 347641, Control_c, 0, 64, 43
2, 347641, Note_on_c, 0, 60, 0
2, 347642, Note_on_c, 0, 82, 74
2, 347659, Control_c, 0, 64, 37
2, 347661, Note_on_c, 0, 63, 0
2, 347679, Control_c, 0, 64, 37
2, 347681, Note_on_c, 0, 70, 0
2, 347682, Note_on_c, 0, 65, 42
2, 347697, Note_on_c, 0, 62, 40
2, 347698, Control_c, 0, 64, 39
2, 347717, Control_c, 0, 64, 43
2, 347736, Control_c, 0, 64, 49
2, 347756, Control_c, 0, 64, 55
2, 347775, Control_c, 0, 64, 59
2, 347794, Control_c, 0, 64, 62
2, 347813, Control_c, 0, 64, 63
2, 347833, Control_c, 0, 64, 63
2, 347871, Control_c, 0, 64, 64
2, 347928, Control_c, 0, 64, 64
2, 348024, Control_c, 0, 64, 63
2, 348044, Control_c, 0, 64, 60
2, 348062, Control_c, 0, 64, 54
2, 348064, Note_on_c, 0, 80, 70
2, 348082, Control_c, 0, 64, 48
2, 348101, Control_c, 0, 64, 46
2, 348121, Control_c, 0, 64, 47
2, 348139, Control_c, 0, 64, 51
2, 348139, Note_on_c, 0, 82, 0
2, 348159, Control_c, 0, 64, 58
2, 348178, Control_c, 0, 64, 60
2, 348197, Control_c, 0, 64, 61
2, 348216, Control_c, 0, 64, 62
2, 348236, Control_c, 0, 64, 63
2, 348255, Control_c, 0, 64, 63
2, 348274, Control_c, 0, 64, 64
2, 348293, Control_c, 0, 64, 64
2, 348351, Control_c, 0, 64, 65
2, 348408, Control_c, 0, 64, 63
2, 348427, Control_c, 0, 64, 57
2, 348447, Control_c, 0, 64, 47
2, 348453, Note_on_c, 0, 78, 68
2, 348466, Control_c, 0, 64, 41
2, 348471, Note_on_c, 0, 62, 0
2, 348482, Note_on_c, 0, 80, 0
2, 348485, Control_c, 0, 64, 41
2, 348492, Note_on_c, 0, 63, 48
2, 348493, Note_on_c, 0, 65, 0
2, 348504, Control_c, 0, 64, 44
2, 348524, Control_c, 0, 64, 52
2, 348542, Control_c, 0, 64, 59
2, 348562, Control_c, 0, 64, 63
2, 348581, Control_c, 0, 64, 64
2, 348601, Control_c, 0, 64, 65
2, 348619, Control_c, 0, 64, 65
2, 348639, Control_c, 0, 64, 66
2, 348734, Note_on_c, 0, 63, 0
2, 348754, Control_c, 0, 64, 65
2, 348793, Control_c, 0, 64, 65
2, 348811, Control_c, 0, 64, 64
2, 348831, Control_c, 0, 64, 63
2, 348850, Control_c, 0, 64, 62
2, 348860, Note_on_c, 0, 80, 76
2, 348872, Control_c, 0, 64, 61
2, 348879, Note_on_c, 0, 59, 61
2, 348884, Note_on_c, 0, 63, 53
2, 348890, Control_c, 0, 64, 59
2, 348910, Control_c, 0, 64, 57
2, 348929, Control_c, 0, 64, 55
2, 348946, Control_c, 0, 64, 53
2, 348966, Control_c, 0, 64, 52
2, 348972, Note_on_c, 0, 78, 0
2, 348985, Control_c, 0, 64, 52
2, 349001, Note_on_c, 0, 63, 0
2, 349019, Note_on_c, 0, 62, 59
2, 349023, Control_c, 0, 64, 52
2, 349043, Control_c, 0, 64, 53
2, 349062, Control_c, 0, 64, 53
2, 349081, Control_c, 0, 64, 54
2, 349100, Control_c, 0, 64, 54
2, 349158, Control_c, 0, 64, 55
2, 349177, Control_c, 0, 64, 56
2, 349197, Control_c, 0, 64, 57
2, 349216, Control_c, 0, 64, 58
2, 349263, Note_on_c, 0, 63, 56
2, 349264, Note_on_c, 0, 54, 47
2, 349270, Note_on_c, 0, 82, 79
2, 349271, Note_on_c, 0, 62, 0
2, 349308, Note_on_c, 0, 59, 0
2, 349312, Control_c, 0, 64, 58
2, 349331, Control_c, 0, 64, 59
2, 349345, Note_on_c, 0, 80, 0
2, 349351, Control_c, 0, 64, 59
2, 349388, Control_c, 0, 64, 60
2, 349408, Control_c, 0, 64, 60
2, 349426, Control_c, 0, 64, 61
2, 349465, Control_c, 0, 64, 61
2, 349645, Note_on_c, 0, 83, 72
2, 349652, Note_on_c, 0, 56, 50
2, 349666, Note_on_c, 0, 54, 0
2, 349696, Control_c, 0, 64, 61
2, 349718, Note_on_c, 0, 82, 0
2, 349734, Control_c, 0, 64, 60
2, 350041, Control_c, 0, 64, 59
2, 350059, Control_c, 0, 64, 55
2, 350071, Note_on_c, 0, 77, 70
2, 350079, Control_c, 0, 64, 45
2, 350098, Control_c, 0, 64, 13
2, 350098, Note_on_c, 0, 58, 40
2, 350117, Control_c, 0, 64, 0
2, 350165, Note_on_c, 0, 83, 0
2, 350184, Note_on_c, 0, 56, 0
2, 350213, Control_c, 0, 64, 45
2, 350233, Control_c, 0, 64, 60
2, 350251, Control_c, 0, 64, 63
2, 350271, Control_c, 0, 64, 64
2, 350290, Control_c, 0, 64, 65
2, 350309, Control_c, 0, 64, 65
2, 350328, Control_c, 0, 64, 66
2, 350347, Control_c, 0, 64, 66
2, 350367, Control_c, 0, 64, 67
2, 350424, Control_c, 0, 64, 66
2, 350477, Note_on_c, 0, 63, 0
2, 350486, Note_on_c, 0, 61, 49
2, 350539, Control_c, 0, 64, 66
2, 350791, Control_c, 0, 64, 65
2, 350853, Note_on_c, 0, 61, 0
2, 350855, Note_on_c, 0, 79, 77
2, 350866, Control_c, 0, 64, 64
2, 350878, Note_on_c, 0, 59, 55
2, 350882, Note_on_c, 0, 58, 0
2, 350885, Control_c, 0, 64, 57
2, 350904, Control_c, 0, 64, 36
2, 350907, Note_on_c, 0, 51, 32
2, 350924, Control_c, 0, 64, 0
2, 350939, Note_on_c, 0, 77, 0
2, 351001, Control_c, 0, 64, 15
2, 351019, Control_c, 0, 64, 47
2, 351039, Control_c, 0, 64, 59
2, 351058, Control_c, 0, 64, 62
2, 351077, Control_c, 0, 64, 63
2, 351096, Control_c, 0, 64, 63
2, 351116, Control_c, 0, 64, 64
2, 351135, Control_c, 0, 64, 64
2, 351253, Note_on_c, 0, 59, 0
2, 351265, Note_on_c, 0, 58, 52
2, 351327, Control_c, 0, 64, 65
2, 351461, Control_c, 0, 64, 65
2, 351481, Control_c, 0, 64, 66
2, 351499, Control_c, 0, 64, 67
2, 351519, Control_c, 0, 64, 67
2, 351572, Note_on_c, 0, 51, 0
2, 351616, Note_on_c, 0, 58, 0
2, 351634, Control_c, 0, 64, 66
2, 351653, Control_c, 0, 64, 62
2, 351673, Control_c, 0, 64, 50
2, 351673, Note_on_c, 0, 80, 66
2, 351674, Note_on_c, 0, 59, 60
2, 351691, Control_c, 0, 64, 32
2, 351705, Note_on_c, 0, 56, 48
2, 351711, Control_c, 0, 64, 15
2, 351715, Note_on_c, 0, 79, 0
2, 351749, Control_c, 0, 64, 35
2, 351768, Control_c, 0, 64, 52
2, 351787, Control_c, 0, 64, 61
2, 351807, Control_c, 0, 64, 64
2, 351826, Control_c, 0, 64, 66
2, 351845, Control_c, 0, 64, 67
2, 351864, Control_c, 0, 64, 68
2, 351875, Note_on_c, 0, 56, 0
2, 351884, Control_c, 0, 64, 70
2, 351902, Control_c, 0, 64, 72
2, 351922, Control_c, 0, 64, 74
2, 351941, Control_c, 0, 64, 74
2, 351979, Control_c, 0, 64, 74
2, 351999, Control_c, 0, 64, 70
2, 352018, Control_c, 0, 64, 62
2, 352037, Control_c, 0, 64, 52
2, 352056, Control_c, 0, 64, 50
2, 352075, Note_on_c, 0, 78, 66
2, 352076, Control_c, 0, 64, 52
2, 352095, Control_c, 0, 64, 57
2, 352111, Note_on_c, 0, 63, 58
2, 352113, Note_on_c, 0, 59, 0
2, 352114, Control_c, 0, 64, 62
2, 352116, Note_on_c, 0, 58, 50
2, 352133, Control_c, 0, 64, 65
2, 352153, Control_c, 0, 64, 67
2, 352155, Note_on_c, 0, 80, 0
2, 352171, Control_c, 0, 64, 70
2, 352191, Control_c, 0, 64, 72
2, 352210, Control_c, 0, 64, 74
2, 352229, Control_c, 0, 64, 75
2, 352248, Control_c, 0, 64, 76
2, 352251, Note_on_c, 0, 58, 0
2, 352267, Note_on_c, 0, 63, 0
2, 352441, Control_c, 0, 64, 74
2, 352459, Control_c, 0, 64, 68
2, 352479, Control_c, 0, 64, 59
2, 352498, Control_c, 0, 64, 47
2, 352501, Note_on_c, 0, 68, 69
2, 352511, Note_on_c, 0, 77, 59
2, 352517, Control_c, 0, 64, 41
2, 352527, Note_on_c, 0, 59, 54
2, 352536, Control_c, 0, 64, 31
2, 352556, Control_c, 0, 64, 21
2, 352557, Note_on_c, 0, 78, 0
2, 352575, Control_c, 0, 64, 20
2, 352594, Control_c, 0, 64, 21
2, 352613, Control_c, 0, 64, 27
2, 352633, Control_c, 0, 64, 31
2, 352651, Control_c, 0, 64, 35
2, 352671, Control_c, 0, 64, 39
2, 352690, Control_c, 0, 64, 43
2, 352709, Control_c, 0, 64, 45
2, 352786, Control_c, 0, 64, 46
2, 352805, Control_c, 0, 64, 47
2, 352824, Control_c, 0, 64, 48
2, 352844, Control_c, 0, 64, 49
2, 352862, Control_c, 0, 64, 50
2, 352882, Control_c, 0, 64, 50
2, 352921, Control_c, 0, 64, 51
2, 352926, Note_on_c, 0, 75, 62
2, 352939, Control_c, 0, 64, 52
2, 352959, Control_c, 0, 64, 52
2, 352966, Note_on_c, 0, 77, 0
2, 352978, Control_c, 0, 64, 53
2, 353016, Control_c, 0, 64, 53
2, 353036, Control_c, 0, 64, 54
2, 353055, Control_c, 0, 64, 54
2, 353113, Control_c, 0, 64, 54
2, 353131, Control_c, 0, 64, 53
2, 353189, Control_c, 0, 64, 53
2, 353338, Note_on_c, 0, 74, 54
2, 353342, Control_c, 0, 64, 52
2, 353364, Note_on_c, 0, 58, 42
2, 353381, Control_c, 0, 64, 52
2, 353402, Note_on_c, 0, 75, 0
2, 353424, Note_on_c, 0, 59, 0
2, 353535, Control_c, 0, 64, 51
2, 353554, Control_c, 0, 64, 51
2, 353573, Control_c, 0, 64, 50
2, 353746, Control_c, 0, 64, 50
2, 353765, Control_c, 0, 64, 49
2, 353765, Note_on_c, 0, 66, 41
2, 353804, Control_c, 0, 64, 49
2, 353819, Note_on_c, 0, 68, 0
2, 354091, Control_c, 0, 64, 48
2, 354129, Note_on_c, 0, 75, 56
2, 354130, Control_c, 0, 64, 47
2, 354149, Control_c, 0, 64, 47
2, 354157, Note_on_c, 0, 65, 35
2, 354168, Control_c, 0, 64, 46
2, 354180, Note_on_c, 0, 66, 0
2, 354187, Control_c, 0, 64, 45
2, 354207, Control_c, 0, 64, 44
2, 354210, Note_on_c, 0, 74, 0
2, 354226, Control_c, 0, 64, 43
2, 354245, Control_c, 0, 64, 43
2, 354341, Control_c, 0, 64, 42
2, 354361, Control_c, 0, 64, 42
2, 354379, Control_c, 0, 64, 41
2, 354399, Control_c, 0, 64, 41
2, 354566, Note_on_c, 0, 65, 0
2, 354602, Note_on_c, 0, 63, 19
2, 354820, Control_c, 0, 64, 41
2, 354840, Control_c, 0, 64, 42
2, 354878, Control_c, 0, 64, 43
2, 354955, Control_c, 0, 64, 44
2, 354965, Note_on_c, 0, 65, 26
2, 354974, Control_c, 0, 64, 44
2, 354993, Control_c, 0, 64, 45
2, 355012, Control_c, 0, 64, 46
2, 355018, Note_on_c, 0, 63, 0
2, 355032, Control_c, 0, 64, 46
2, 355051, Control_c, 0, 64, 47
2, 355089, Control_c, 0, 64, 47
2, 355108, Control_c, 0, 64, 48
2, 355127, Control_c, 0, 64, 48
2, 355204, Control_c, 0, 64, 49
2, 355243, Control_c, 0, 64, 49
2, 355281, Control_c, 0, 64, 50
2, 355320, Control_c, 0, 64, 50
2, 355380, Note_on_c, 0, 73, 44
2, 355534, Note_on_c, 0, 75, 0
2, 355704, Control_c, 0, 64, 51
2, 355779, Note_on_c, 0, 71, 40
2, 355798, Note_on_c, 0, 73, 0
2, 355834, Note_on_c, 0, 65, 0
2, 355839, Note_on_c, 0, 67, 13
2, 356011, Control_c, 0, 64, 50
2, 356088, Control_c, 0, 64, 50
2, 356179, Note_on_c, 0, 71, 0
2, 356181, Note_on_c, 0, 70, 44
2, 356222, Control_c, 0, 64, 50
2, 356261, Control_c, 0, 64, 51
2, 356281, Control_c, 0, 64, 52
2, 356299, Control_c, 0, 64, 53
2, 356319, Control_c, 0, 64, 55
2, 356338, Control_c, 0, 64, 56
2, 356357, Control_c, 0, 64, 57
2, 356396, Control_c, 0, 64, 58
2, 356434, Control_c, 0, 64, 58
2, 356587, Control_c, 0, 64, 58
2, 356588, Note_on_c, 0, 67, 0
2, 356610, Note_on_c, 0, 68, 33
2, 356611, Note_on_c, 0, 71, 46
2, 356658, Note_on_c, 0, 70, 0
2, 356678, Note_on_c, 0, 58, 0
2, 357021, Note_on_c, 0, 71, 0
2, 357024, Note_on_c, 0, 70, 46
2, 357032, Note_on_c, 0, 66, 36
2, 357035, Note_on_c, 0, 68, 0
2, 357050, Control_c, 0, 64, 57
2, 357395, Control_c, 0, 64, 57
2, 357416, Note_on_c, 0, 68, 50
2, 357422, Note_on_c, 0, 66, 0
2, 357425, Note_on_c, 0, 70, 0
2, 357428, Note_on_c, 0, 65, 40
2, 357549, Control_c, 0, 64, 57
2, 357569, Control_c, 0, 64, 58
2, 357588, Control_c, 0, 64, 58
2, 357607, Control_c, 0, 64, 59
2, 357626, Control_c, 0, 64, 59
2, 357646, Control_c, 0, 64, 60
2, 357664, Control_c, 0, 64, 61
2, 357684, Control_c, 0, 64, 61
2, 357703, Control_c, 0, 64, 62
2, 357723, Control_c, 0, 64, 62
2, 357741, Control_c, 0, 64, 63
2, 357780, Control_c, 0, 64, 63
2, 357799, Control_c, 0, 64, 64
2, 357837, Control_c, 0, 64, 64
2, 357844, Note_on_c, 0, 63, 43
2, 357883, Note_on_c, 0, 65, 0
2, 357895, Control_c, 0, 64, 65
2, 357952, Control_c, 0, 64, 65
2, 358029, Control_c, 0, 64, 66
2, 358068, Control_c, 0, 64, 66
2, 358126, Control_c, 0, 64, 67
2, 358221, Control_c, 0, 64, 67
2, 358260, Control_c, 0, 64, 68
2, 358279, Control_c, 0, 64, 68
2, 358337, Control_c, 0, 64, 66
2, 358354, Note_on_c, 0, 46, 68
2, 358355, Control_c, 0, 64, 59
2, 358365, Note_on_c, 0, 62, 45
2, 358375, Control_c, 0, 64, 43
2, 358394, Control_c, 0, 64, 15
2, 358395, Note_on_c, 0, 63, 0
2, 358414, Control_c, 0, 64, 0
2, 358432, Control_c, 0, 64, 9
2, 358452, Control_c, 0, 64, 37
2, 358471, Control_c, 0, 64, 54
2, 358490, Control_c, 0, 64, 62
2, 358509, Control_c, 0, 64, 64
2, 358529, Control_c, 0, 64, 65
2, 358546, Control_c, 0, 64, 66
2, 358565, Control_c, 0, 64, 67
2, 358583, Control_c, 0, 64, 68
2, 358602, Control_c, 0, 64, 68
2, 358717, Control_c, 0, 64, 69
2, 358756, Control_c, 0, 64, 69
2, 358775, Control_c, 0, 64, 70
2, 358804, Note_on_c, 0, 62, 0
2, 358823, Note_on_c, 0, 66, 49
2, 358853, Note_on_c, 0, 68, 0
2, 358982, Note_on_c, 0, 66, 0
2, 358986, Control_c, 0, 64, 70
2, 358990, Note_on_c, 0, 65, 53
2, 359120, Control_c, 0, 64, 71
2, 359140, Control_c, 0, 64, 71
2, 359179, Control_c, 0, 64, 70
2, 359197, Control_c, 0, 64, 65
2, 359217, Control_c, 0, 64, 54
2, 359222, Note_on_c, 0, 39, 65
2, 359223, Note_on_c, 0, 65, 0
2, 359236, Control_c, 0, 64, 30
2, 359241, Note_on_c, 0, 66, 55
2, 359246, Note_on_c, 0, 63, 47
2, 359255, Control_c, 0, 64, 0
2, 359290, Note_on_c, 0, 46, 0
2, 359332, Control_c, 0, 64, 35
2, 359351, Control_c, 0, 64, 51
2, 359371, Control_c, 0, 64, 58
2, 359389, Control_c, 0, 64, 60
2, 359409, Control_c, 0, 64, 61
2, 359431, Control_c, 0, 64, 61
2, 359450, Control_c, 0, 64, 62
2, 359469, Control_c, 0, 64, 63
2, 359507, Control_c, 0, 64, 63
2, 359564, Control_c, 0, 64, 64
2, 359583, Control_c, 0, 64, 64
2, 359601, Control_c, 0, 64, 65
2, 359629, Note_on_c, 0, 63, 0
2, 359635, Note_on_c, 0, 66, 0
2, 359640, Control_c, 0, 64, 65
2, 359651, Note_on_c, 0, 65, 52
2, 359651, Note_on_c, 0, 68, 60
2, 359717, Control_c, 0, 64, 66
2, 359755, Control_c, 0, 64, 66
2, 359775, Control_c, 0, 64, 67
2, 359794, Control_c, 0, 64, 67
2, 359813, Control_c, 0, 64, 68
2, 359967, Control_c, 0, 64, 68
2, 359986, Control_c, 0, 64, 69
2, 360005, Control_c, 0, 64, 70
2, 360024, Control_c, 0, 64, 71
2, 360044, Control_c, 0, 64, 72
2, 360054, Note_on_c, 0, 70, 83
2, 360063, Control_c, 0, 64, 68
2, 360078, Note_on_c, 0, 66, 60
2, 360081, Control_c, 0, 64, 60
2, 360101, Control_c, 0, 64, 31
2, 360120, Control_c, 0, 64, 0
2, 360175, Note_on_c, 0, 68, 0
2, 360197, Control_c, 0, 64, 13
2, 360216, Control_c, 0, 64, 51
2, 360235, Control_c, 0, 64, 60
2, 360255, Control_c, 0, 64, 63
2, 360274, Control_c, 0, 64, 64
2, 360282, Note_on_c, 0, 65, 0
2, 360293, Control_c, 0, 64, 65
2, 360312, Control_c, 0, 64, 65
2, 360332, Control_c, 0, 64, 66
2, 360350, Control_c, 0, 64, 66
2, 360427, Control_c, 0, 64, 67
2, 360447, Control_c, 0, 64, 67
2, 360451, Note_on_c, 0, 66, 0
2, 360454, Note_on_c, 0, 38, 60
2, 360466, Control_c, 0, 64, 68
2, 360474, Note_on_c, 0, 65, 62
2, 360488, Note_on_c, 0, 39, 0
2, 360544, Control_c, 0, 64, 67
2, 360831, Control_c, 0, 64, 67
2, 360851, Control_c, 0, 64, 66
2, 360870, Control_c, 0, 64, 62
2, 360871, Note_on_c, 0, 39, 59
2, 360872, Note_on_c, 0, 63, 74
2, 360887, Note_on_c, 0, 66, 61
2, 360890, Control_c, 0, 64, 47
2, 360904, Note_on_c, 0, 70, 0
2, 360908, Control_c, 0, 64, 0
2, 360949, Note_on_c, 0, 38, 0
2, 360989, Note_on_c, 0, 65, 0
2, 361024, Control_c, 0, 64, 18
2, 361042, Control_c, 0, 64, 42
2, 361062, Control_c, 0, 64, 52
2, 361081, Control_c, 0, 64, 55
2, 361100, Control_c, 0, 64, 56
2, 361119, Control_c, 0, 64, 57
2, 361139, Control_c, 0, 64, 58
2, 361158, Control_c, 0, 64, 59
2, 361177, Control_c, 0, 64, 59
2, 361216, Control_c, 0, 64, 60
2, 361234, Control_c, 0, 64, 60
2, 361254, Control_c, 0, 64, 61
2, 361273, Control_c, 0, 64, 61
2, 361284, Note_on_c, 0, 41, 51
2, 361285, Note_on_c, 0, 68, 58
2, 361293, Control_c, 0, 64, 62
2, 361308, Note_on_c, 0, 66, 0
2, 361311, Control_c, 0, 64, 62
2, 361314, Note_on_c, 0, 39, 0
2, 361485, Control_c, 0, 64, 63
2, 361504, Control_c, 0, 64, 63
2, 361657, Control_c, 0, 64, 62
2, 361676, Control_c, 0, 64, 58
2, 361686, Note_on_c, 0, 70, 63
2, 361687, Note_on_c, 0, 42, 52
2, 361696, Control_c, 0, 64, 49
2, 361708, Note_on_c, 0, 41, 0
2, 361714, Control_c, 0, 64, 37
2, 361722, Note_on_c, 0, 68, 0
2, 361734, Control_c, 0, 64, 27
2, 361773, Control_c, 0, 64, 35
2, 361791, Control_c, 0, 64, 48
2, 361811, Control_c, 0, 64, 55
2, 361830, Control_c, 0, 64, 59
2, 361850, Control_c, 0, 64, 60
2, 361868, Control_c, 0, 64, 62
2, 361888, Control_c, 0, 64, 62
2, 361926, Control_c, 0, 64, 63
2, 362041, Control_c, 0, 64, 62
2, 362069, Note_on_c, 0, 41, 54
2, 362075, Note_on_c, 0, 62, 57
2, 362097, Note_on_c, 0, 63, 0
2, 362099, Control_c, 0, 64, 62
2, 362102, Note_on_c, 0, 68, 62
2, 362105, Note_on_c, 0, 42, 0
2, 362118, Control_c, 0, 64, 61
2, 362137, Control_c, 0, 64, 61
2, 362156, Control_c, 0, 64, 60
2, 362176, Control_c, 0, 64, 60
2, 362179, Note_on_c, 0, 70, 0
2, 362194, Control_c, 0, 64, 59
2, 362214, Control_c, 0, 64, 57
2, 362233, Control_c, 0, 64, 57
2, 362291, Control_c, 0, 64, 57
2, 362388, Control_c, 0, 64, 57
2, 362407, Control_c, 0, 64, 55
2, 362426, Control_c, 0, 64, 49
2, 362446, Control_c, 0, 64, 43
2, 362464, Control_c, 0, 64, 38
2, 362477, Note_on_c, 0, 63, 65
2, 362484, Note_on_c, 0, 39, 51
2, 362490, Note_on_c, 0, 68, 0
2, 362495, Note_on_c, 0, 41, 0
2, 362495, Note_on_c, 0, 66, 54
2, 362503, Control_c, 0, 64, 40
2, 362512, Note_on_c, 0, 62, 0
2, 362522, Control_c, 0, 64, 44
2, 362541, Control_c, 0, 64, 48
2, 362560, Control_c, 0, 64, 50
2, 362580, Control_c, 0, 64, 52
2, 362599, Control_c, 0, 64, 54
2, 362618, Control_c, 0, 64, 56
2, 362637, Control_c, 0, 64, 58
2, 362657, Control_c, 0, 64, 59
2, 362675, Control_c, 0, 64, 60
2, 362695, Control_c, 0, 64, 60
2, 362714, Control_c, 0, 64, 61
2, 362734, Control_c, 0, 64, 61
2, 362829, Control_c, 0, 64, 62
2, 362842, Note_on_c, 0, 66, 0
2, 362868, Control_c, 0, 64, 62
2, 362884, Note_on_c, 0, 65, 63
2, 362887, Control_c, 0, 64, 63
2, 362894, Note_on_c, 0, 63, 0
2, 362906, Control_c, 0, 64, 63
2, 362983, Control_c, 0, 64, 64
2, 363040, Note_on_c, 0, 65, 0
2, 363052, Note_on_c, 0, 63, 56
2, 363098, Control_c, 0, 64, 64
2, 363252, Control_c, 0, 64, 63
2, 363270, Note_on_c, 0, 66, 74
2, 363271, Control_c, 0, 64, 58
2, 363282, Note_on_c, 0, 46, 49
2, 363284, Note_on_c, 0, 63, 0
2, 363290, Control_c, 0, 64, 42
2, 363297, Note_on_c, 0, 62, 45
2, 363309, Control_c, 0, 64, 0
2, 363352, Note_on_c, 0, 39, 0
2, 363406, Control_c, 0, 64, 17
2, 363424, Control_c, 0, 64, 40
2, 363444, Control_c, 0, 64, 51
2, 363463, Control_c, 0, 64, 55
2, 363482, Control_c, 0, 64, 56
2, 363501, Control_c, 0, 64, 58
2, 363520, Control_c, 0, 64, 60
2, 363540, Control_c, 0, 64, 61
2, 363559, Control_c, 0, 64, 61
2, 363635, Control_c, 0, 64, 61
2, 363668, Note_on_c, 0, 62, 0
2, 363672, Note_on_c, 0, 68, 65
2, 363686, Note_on_c, 0, 65, 68
2, 363694, Control_c, 0, 64, 60
2, 363712, Control_c, 0, 64, 60
2, 363737, Note_on_c, 0, 66, 0
2, 363981, Control_c, 0, 64, 59
2, 364000, Control_c, 0, 64, 59
2, 364020, Control_c, 0, 64, 57
2, 364039, Control_c, 0, 64, 51
2, 364058, Control_c, 0, 64, 40
2, 364068, Note_on_c, 0, 63, 66
2, 364069, Note_on_c, 0, 39, 51
2, 364077, Control_c, 0, 64, 0
2, 364080, Note_on_c, 0, 46, 0
2, 364081, Note_on_c, 0, 65, 0
2, 364192, Control_c, 0, 64, 35
2, 364212, Control_c, 0, 64, 51
2, 364231, Control_c, 0, 64, 58
2, 364250, Control_c, 0, 64, 60
2, 364269, Control_c, 0, 64, 61
2, 364289, Control_c, 0, 64, 63
2, 364308, Control_c, 0, 64, 63
2, 364327, Control_c, 0, 64, 64
2, 364346, Control_c, 0, 64, 65
2, 364384, Control_c, 0, 64, 65
2, 364442, Control_c, 0, 64, 66
2, 364443, Note_on_c, 0, 68, 0
2, 364461, Control_c, 0, 64, 67
2, 364474, Note_on_c, 0, 66, 38
2, 364480, Control_c, 0, 64, 68
2, 364500, Control_c, 0, 64, 69
2, 364506, Note_on_c, 0, 63, 0
2, 364519, Control_c, 0, 64, 70
2, 364538, Control_c, 0, 64, 71
2, 364557, Control_c, 0, 64, 72
2, 364567, Note_on_c, 0, 66, 0
2, 364601, Note_on_c, 0, 65, 48
2, 364634, Control_c, 0, 64, 72
2, 364654, Control_c, 0, 64, 73
2, 364672, Control_c, 0, 64, 74
2, 364692, Control_c, 0, 64, 75
2, 364711, Control_c, 0, 64, 76
2, 364788, Control_c, 0, 64, 74
2, 364807, Control_c, 0, 64, 68
2, 364826, Control_c, 0, 64, 56
2, 364834, Note_on_c, 0, 70, 84
2, 364846, Control_c, 0, 64, 34
2, 364860, Note_on_c, 0, 65, 0
2, 364864, Control_c, 0, 64, 0
2, 364864, Note_on_c, 0, 67, 58
2, 364922, Control_c, 0, 64, 31
2, 364941, Control_c, 0, 64, 52
2, 364960, Control_c, 0, 64, 62
2, 364980, Control_c, 0, 64, 64
2, 364999, Control_c, 0, 64, 65
2, 365018, Control_c, 0, 64, 66
2, 365037, Control_c, 0, 64, 67
2, 365057, Control_c, 0, 64, 69
2, 365075, Control_c, 0, 64, 71
2, 365095, Control_c, 0, 64, 74
2, 365114, Control_c, 0, 64, 75
2, 365134, Control_c, 0, 64, 75
2, 365194, Control_c, 0, 64, 76
2, 365209, Note_on_c, 0, 67, 0
2, 365224, Note_on_c, 0, 41, 41
2, 365232, Control_c, 0, 64, 76
2, 365233, Note_on_c, 0, 68, 54
2, 365267, Note_on_c, 0, 70, 0
2, 365277, Note_on_c, 0, 39, 0
2, 365306, Control_c, 0, 64, 76
2, 365344, Control_c, 0, 64, 75
2, 365479, Control_c, 0, 64, 75
2, 365555, Control_c, 0, 64, 74
2, 365594, Control_c, 0, 64, 72
2, 365602, Note_on_c, 0, 63, 80
2, 365614, Control_c, 0, 64, 65
2, 365618, Note_on_c, 0, 68, 0
2, 365620, Note_on_c, 0, 70, 73
2, 365632, Control_c, 0, 64, 48
2, 365639, Note_on_c, 0, 43, 48
2, 365652, Control_c, 0, 64, 0
2, 365705, Note_on_c, 0, 41, 0
2, 365748, Control_c, 0, 64, 42
2, 365767, Control_c, 0, 64, 58
2, 365786, Control_c, 0, 64, 62
2, 365806, Control_c, 0, 64, 63
2, 365824, Control_c, 0, 64, 64
2, 365863, Control_c, 0, 64, 64
2, 365882, Control_c, 0, 64, 65
2, 365901, Control_c, 0, 64, 65
2, 365920, Control_c, 0, 64, 66
2, 365997, Control_c, 0, 64, 66
2, 366008, Note_on_c, 0, 61, 58
2, 366045, Note_on_c, 0, 70, 0
2, 366381, Control_c, 0, 64, 66
2, 366400, Control_c, 0, 64, 64
2, 366407, Note_on_c, 0, 59, 56
2, 366410, Note_on_c, 0, 44, 42
2, 366420, Control_c, 0, 64, 56
2, 366437, Note_on_c, 0, 61, 0
2, 366439, Control_c, 0, 64, 27
2, 366458, Control_c, 0, 64, 0
2, 366496, Note_on_c, 0, 43, 0
2, 366554, Control_c, 0, 64, 27
2, 366574, Control_c, 0, 64, 47
2, 366592, Control_c, 0, 64, 55
2, 366612, Control_c, 0, 64, 58
2, 366631, Control_c, 0, 64, 59
2, 366689, Control_c, 0, 64, 59
2, 366793, Note_on_c, 0, 65, 51
2, 366801, Note_on_c, 0, 61, 48
2, 366803, Control_c, 0, 64, 60
2, 366829, Note_on_c, 0, 63, 0
2, 366842, Control_c, 0, 64, 60
2, 366893, Note_on_c, 0, 59, 0
2, 366919, Control_c, 0, 64, 60
2, 367072, Control_c, 0, 64, 60
2, 367111, Control_c, 0, 64, 60
2, 367130, Control_c, 0, 64, 59
2, 367149, Control_c, 0, 64, 57
2, 367169, Control_c, 0, 64, 52
2, 367173, Note_on_c, 0, 61, 0
2, 367188, Control_c, 0, 64, 40
2, 367188, Note_on_c, 0, 67, 55
2, 367207, Control_c, 0, 64, 0
2, 367210, Note_on_c, 0, 63, 47
2, 367215, Note_on_c, 0, 46, 44
2, 367216, Note_on_c, 0, 65, 0
2, 367245, Note_on_c, 0, 44, 0
2, 367341, Control_c, 0, 64, 36
2, 367360, Control_c, 0, 64, 54
2, 367380, Control_c, 0, 64, 60
2, 367399, Control_c, 0, 64, 62
2, 367418, Control_c, 0, 64, 63
2, 367437, Control_c, 0, 64, 64
2, 367457, Control_c, 0, 64, 65
2, 367475, Control_c, 0, 64, 67
2, 367495, Control_c, 0, 64, 68
2, 367514, Control_c, 0, 64, 69
2, 367534, Control_c, 0, 64, 70
2, 367567, Note_on_c, 0, 63, 0
2, 367593, Note_on_c, 0, 64, 62
2, 367649, Control_c, 0, 64, 70
2, 367744, Control_c, 0, 64, 70
2, 367821, Control_c, 0, 64, 70
2, 367879, Control_c, 0, 64, 71
2, 367975, Control_c, 0, 64, 71
2, 367994, Control_c, 0, 64, 72
2, 368014, Control_c, 0, 64, 72
2, 368032, Control_c, 0, 64, 71
2, 368039, Note_on_c, 0, 63, 74
2, 368052, Control_c, 0, 64, 67
2, 368058, Note_on_c, 0, 68, 73
2, 368065, Note_on_c, 0, 47, 51
2, 368072, Control_c, 0, 64, 56
2, 368091, Control_c, 0, 64, 0
2, 368146, Note_on_c, 0, 64, 0
2, 368191, Note_on_c, 0, 46, 0
2, 368206, Control_c, 0, 64, 44
2, 368224, Control_c, 0, 64, 60
2, 368224, Note_on_c, 0, 67, 0
2, 368243, Control_c, 0, 64, 64
2, 368263, Control_c, 0, 64, 66
2, 368282, Control_c, 0, 64, 67
2, 368301, Control_c, 0, 64, 68
2, 368320, Control_c, 0, 64, 69
2, 368340, Control_c, 0, 64, 70
2, 368359, Control_c, 0, 64, 71
2, 368378, Control_c, 0, 64, 72
2, 368435, Control_c, 0, 64, 72
2, 368445, Note_on_c, 0, 63, 0
2, 368455, Control_c, 0, 64, 73
2, 368474, Control_c, 0, 64, 74
2, 368483, Note_on_c, 0, 68, 0
2, 368494, Control_c, 0, 64, 75
2, 368495, Note_on_c, 0, 49, 65
2, 368512, Control_c, 0, 64, 76
2, 368532, Control_c, 0, 64, 77
2, 368533, Note_on_c, 0, 47, 0
2, 368551, Control_c, 0, 64, 77
2, 368570, Control_c, 0, 64, 78
2, 368589, Control_c, 0, 64, 78
2, 368609, Control_c, 0, 64, 79
2, 368628, Control_c, 0, 64, 80
2, 368647, Control_c, 0, 64, 81
2, 368666, Control_c, 0, 64, 82
2, 368686, Control_c, 0, 64, 82
2, 368704, Control_c, 0, 64, 83
2, 368723, Control_c, 0, 64, 83
2, 368820, Control_c, 0, 64, 84
2, 368874, Note_on_c, 0, 80, 87
2, 368877, Control_c, 0, 64, 78
2, 368890, Note_on_c, 0, 56, 55
2, 368897, Control_c, 0, 64, 66
2, 368899, Note_on_c, 0, 47, 52
2, 368915, Control_c, 0, 64, 47
2, 368935, Control_c, 0, 64, 0
2, 368936, Note_on_c, 0, 49, 0
2, 368992, Control_c, 0, 64, 31
2, 369012, Control_c, 0, 64, 57
2, 369032, Control_c, 0, 64, 65
2, 369051, Control_c, 0, 64, 69
2, 369070, Control_c, 0, 64, 74
2, 369090, Control_c, 0, 64, 81
2, 369108, Control_c, 0, 64, 86
2, 369127, Control_c, 0, 64, 87
2, 369223, Control_c, 0, 64, 87
2, 369243, Note_on_c, 0, 46, 57
2, 369327, Note_on_c, 0, 47, 0
2, 369335, Control_c, 0, 64, 86
2, 369355, Control_c, 0, 64, 85
2, 369374, Control_c, 0, 64, 84
2, 369392, Control_c, 0, 64, 83
2, 369412, Control_c, 0, 64, 82
2, 369566, Control_c, 0, 64, 81
2, 369585, Control_c, 0, 64, 80
2, 369604, Control_c, 0, 64, 76
2, 369605, Note_on_c, 0, 46, 0
2, 369610, Note_on_c, 0, 44, 44
2, 369623, Control_c, 0, 64, 68
2, 369643, Control_c, 0, 64, 59
2, 369655, Note_on_c, 0, 75, 79
2, 369661, Control_c, 0, 64, 37
2, 369681, Control_c, 0, 64, 0
2, 369777, Control_c, 0, 64, 38
2, 369797, Control_c, 0, 64, 56
2, 369797, Note_on_c, 0, 80, 0
2, 369815, Control_c, 0, 64, 62
2, 369835, Control_c, 0, 64, 64
2, 369854, Control_c, 0, 64, 64
2, 369872, Control_c, 0, 64, 65
2, 369892, Control_c, 0, 64, 66
2, 369911, Control_c, 0, 64, 67
2, 369931, Control_c, 0, 64, 68
2, 369946, Note_on_c, 0, 56, 0
2, 369949, Control_c, 0, 64, 68
2, 370008, Control_c, 0, 64, 68
2, 370009, Note_on_c, 0, 44, 0
2, 370063, Note_on_c, 0, 46, 43
2, 370066, Note_on_c, 0, 55, 54
2, 370259, Control_c, 0, 64, 68
2, 370297, Control_c, 0, 64, 67
2, 370316, Control_c, 0, 64, 64
2, 370336, Control_c, 0, 64, 62
2, 370348, Note_on_c, 0, 55, 0
2, 370354, Control_c, 0, 64, 62
2, 370374, Control_c, 0, 64, 65
2, 370393, Control_c, 0, 64, 70
2, 370413, Control_c, 0, 64, 79
2, 370431, Control_c, 0, 64, 93
2, 370443, Note_on_c, 0, 47, 45
2, 370451, Control_c, 0, 64, 109
2, 370466, Note_on_c, 0, 56, 71
2, 370469, Note_on_c, 0, 46, 0
2, 370470, Control_c, 0, 64, 118
2, 370508, Control_c, 0, 64, 112
2, 370528, Control_c, 0, 64, 103
2, 370547, Control_c, 0, 64, 97
2, 370566, Control_c, 0, 64, 94
2, 370585, Control_c, 0, 64, 93
2, 370604, Control_c, 0, 64, 91
2, 370624, Control_c, 0, 64, 90
2, 370642, Control_c, 0, 64, 89
2, 370662, Control_c, 0, 64, 88
2, 370684, Note_on_c, 0, 56, 0
2, 370700, Control_c, 0, 64, 88
2, 370739, Control_c, 0, 64, 87
2, 370758, Control_c, 0, 64, 86
2, 370777, Control_c, 0, 64, 85
2, 370791, Note_on_c, 0, 47, 0
2, 370796, Control_c, 0, 64, 84
2, 370816, Control_c, 0, 64, 84
2, 370827, Note_on_c, 0, 73, 78
2, 370835, Note_on_c, 0, 52, 54
2, 370858, Note_on_c, 0, 58, 49
2, 370893, Control_c, 0, 64, 83
2, 370904, Note_on_c, 0, 75, 0
2, 370911, Control_c, 0, 64, 82
2, 370931, Control_c, 0, 64, 79
2, 370944, Note_on_c, 0, 52, 0
2, 370951, Control_c, 0, 64, 76
2, 370970, Control_c, 0, 64, 73
2, 370989, Control_c, 0, 64, 71
2, 371000, Note_on_c, 0, 49, 66
2, 371004, Note_on_c, 0, 58, 0
2, 371009, Control_c, 0, 64, 68
2, 371027, Control_c, 0, 64, 66
2, 371046, Control_c, 0, 64, 65
2, 371065, Control_c, 0, 64, 64
2, 371084, Control_c, 0, 64, 64
2, 371104, Control_c, 0, 64, 63
2, 371122, Control_c, 0, 64, 62
2, 371142, Control_c, 0, 64, 60
2, 371161, Control_c, 0, 64, 57
2, 371180, Control_c, 0, 64, 49
2, 371199, Control_c, 0, 64, 32
2, 371213, Note_on_c, 0, 75, 80
2, 371219, Control_c, 0, 64, 0
2, 371235, Note_on_c, 0, 56, 56
2, 371243, Note_on_c, 0, 59, 51
2, 371277, Note_on_c, 0, 49, 0
2, 371315, Note_on_c, 0, 73, 0
2, 371391, Control_c, 0, 64, 31
2, 371411, Control_c, 0, 64, 53
2, 371430, Control_c, 0, 64, 61
2, 371450, Control_c, 0, 64, 63
2, 371468, Control_c, 0, 64, 64
2, 371488, Control_c, 0, 64, 65
2, 371507, Control_c, 0, 64, 66
2, 371526, Control_c, 0, 64, 67
2, 371545, Control_c, 0, 64, 68
2, 371564, Control_c, 0, 64, 70
2, 371584, Control_c, 0, 64, 71
2, 371602, Control_c, 0, 64, 72
2, 371622, Control_c, 0, 64, 73
2, 371622, Note_on_c, 0, 59, 0
2, 371624, Note_on_c, 0, 58, 57
2, 371673, Note_on_c, 0, 56, 0
2, 371679, Control_c, 0, 64, 73
2, 371699, Control_c, 0, 64, 74
2, 371718, Control_c, 0, 64, 75
2, 371730, Note_on_c, 0, 58, 0
2, 371737, Control_c, 0, 64, 76
2, 371756, Control_c, 0, 64, 76
2, 371950, Control_c, 0, 64, 75
2, 371970, Control_c, 0, 64, 68
2, 371987, Control_c, 0, 64, 54
2, 371990, Note_on_c, 0, 56, 67
2, 372000, Note_on_c, 0, 47, 56
2, 372006, Control_c, 0, 64, 0
2, 372102, Control_c, 0, 64, 51
2, 372121, Control_c, 0, 64, 62
2, 372140, Control_c, 0, 64, 65
2, 372159, Control_c, 0, 64, 66
2, 372179, Control_c, 0, 64, 66
2, 372198, Control_c, 0, 64, 67
2, 372217, Control_c, 0, 64, 69
2, 372236, Control_c, 0, 64, 70
2, 372256, Control_c, 0, 64, 71
2, 372313, Control_c, 0, 64, 72
2, 372333, Control_c, 0, 64, 72
2, 372351, Control_c, 0, 64, 73
2, 372371, Control_c, 0, 64, 74
2, 372379, Note_on_c, 0, 77, 78
2, 372390, Control_c, 0, 64, 75
2, 372392, Note_on_c, 0, 49, 60
2, 372407, Note_on_c, 0, 47, 0
2, 372430, Note_on_c, 0, 56, 0
2, 372448, Control_c, 0, 64, 75
2, 372456, Note_on_c, 0, 49, 0
2, 372467, Control_c, 0, 64, 74
2, 372486, Control_c, 0, 64, 74
2, 372514, Note_on_c, 0, 75, 0
2, 372639, Control_c, 0, 64, 73
2, 372754, Control_c, 0, 64, 73
2, 372774, Control_c, 0, 64, 69
2, 372793, Control_c, 0, 64, 56
2, 372807, Note_on_c, 0, 78, 79
2, 372813, Control_c, 0, 64, 0
2, 372815, Note_on_c, 0, 63, 59
2, 372825, Note_on_c, 0, 51, 48
2, 372852, Note_on_c, 0, 77, 0
2, 372908, Control_c, 0, 64, 35
2, 372928, Control_c, 0, 64, 58
2, 372947, Control_c, 0, 64, 63
2, 372966, Control_c, 0, 64, 64
2, 372985, Control_c, 0, 64, 64
2, 373024, Control_c, 0, 64, 65
2, 373062, Control_c, 0, 64, 64
2, 373081, Control_c, 0, 64, 60
2, 373100, Control_c, 0, 64, 51
2, 373119, Control_c, 0, 64, 40
2, 373139, Control_c, 0, 64, 41
2, 373158, Control_c, 0, 64, 50
2, 373168, Note_on_c, 0, 63, 0
2, 373177, Control_c, 0, 64, 59
2, 373189, Note_on_c, 0, 50, 54
2, 373196, Control_c, 0, 64, 63
2, 373216, Control_c, 0, 64, 65
2, 373234, Control_c, 0, 64, 66
2, 373235, Note_on_c, 0, 51, 0
2, 373254, Control_c, 0, 64, 67
2, 373273, Control_c, 0, 64, 68
2, 373370, Control_c, 0, 64, 67
2, 373427, Control_c, 0, 64, 67
2, 373465, Control_c, 0, 64, 66
2, 373484, Control_c, 0, 64, 64
2, 373504, Control_c, 0, 64, 57
2, 373522, Control_c, 0, 64, 36
2, 373542, Control_c, 0, 64, 0
2, 373570, Note_on_c, 0, 58, 64
2, 373574, Note_on_c, 0, 51, 49
2, 373616, Control_c, 0, 64, 35
2, 373636, Control_c, 0, 64, 56
2, 373638, Note_on_c, 0, 50, 0
2, 373654, Control_c, 0, 64, 63
2, 373673, Control_c, 0, 64, 64
2, 373693, Control_c, 0, 64, 65
2, 373711, Control_c, 0, 64, 65
2, 373731, Control_c, 0, 64, 66
2, 373750, Control_c, 0, 64, 67
2, 373770, Control_c, 0, 64, 67
2, 373788, Control_c, 0, 64, 68
2, 373889, Control_c, 0, 64, 67
2, 373904, Control_c, 0, 64, 59
2, 373924, Control_c, 0, 64, 36
2, 373940, Note_on_c, 0, 51, 0
2, 373943, Control_c, 0, 64, 0
2, 373948, Note_on_c, 0, 77, 73
2, 373952, Note_on_c, 0, 53, 47
2, 374001, Control_c, 0, 64, 35
2, 374009, Note_on_c, 0, 78, 0
2, 374020, Control_c, 0, 64, 57
2, 374040, Control_c, 0, 64, 63
2, 374058, Control_c, 0, 64, 65
2, 374078, Control_c, 0, 64, 66
2, 374097, Control_c, 0, 64, 67
2, 374117, Control_c, 0, 64, 67
2, 374135, Control_c, 0, 64, 68
2, 374155, Control_c, 0, 64, 69
2, 374289, Control_c, 0, 64, 66
2, 374308, Control_c, 0, 64, 55
2, 374317, Note_on_c, 0, 53, 0
2, 374327, Control_c, 0, 64, 22
2, 374331, Note_on_c, 0, 75, 82
2, 374346, Control_c, 0, 64, 0
2, 374364, Note_on_c, 0, 54, 54
2, 374391, Note_on_c, 0, 77, 0
2, 374404, Control_c, 0, 64, 22
2, 374423, Control_c, 0, 64, 53
2, 374443, Control_c, 0, 64, 63
2, 374461, Control_c, 0, 64, 65
2, 374481, Control_c, 0, 64, 66
2, 374500, Control_c, 0, 64, 67
2, 374513, Note_on_c, 0, 54, 0
2, 374520, Control_c, 0, 64, 68
2, 374538, Control_c, 0, 64, 69
2, 374558, Control_c, 0, 64, 70
2, 374577, Control_c, 0, 64, 71
2, 374635, Control_c, 0, 64, 69
2, 374654, Control_c, 0, 64, 65
2, 374672, Control_c, 0, 64, 58
2, 374692, Control_c, 0, 64, 50
2, 374708, Note_on_c, 0, 59, 63
2, 374711, Control_c, 0, 64, 51
2, 374731, Control_c, 0, 64, 55
2, 374738, Note_on_c, 0, 56, 52
2, 374747, Note_on_c, 0, 58, 0
2, 374749, Control_c, 0, 64, 60
2, 374769, Control_c, 0, 64, 63
2, 374791, Control_c, 0, 64, 64
2, 374849, Control_c, 0, 64, 64
2, 374901, Control_c, 0, 64, 65
2, 374978, Control_c, 0, 64, 64
2, 375055, Control_c, 0, 64, 63
2, 375075, Control_c, 0, 64, 58
2, 375093, Control_c, 0, 64, 41
2, 375112, Control_c, 0, 64, 0
2, 375132, Note_on_c, 0, 82, 84
2, 375159, Note_on_c, 0, 53, 41
2, 375167, Note_on_c, 0, 75, 0
2, 375168, Note_on_c, 0, 61, 54
2, 375171, Note_on_c, 0, 59, 0
2, 375209, Control_c, 0, 64, 29
2, 375227, Control_c, 0, 64, 45
2, 375247, Control_c, 0, 64, 54
2, 375262, Note_on_c, 0, 56, 0
2, 375266, Control_c, 0, 64, 58
2, 375286, Control_c, 0, 64, 60
2, 375304, Control_c, 0, 64, 62
2, 375324, Control_c, 0, 64, 63
2, 375343, Control_c, 0, 64, 63
2, 375362, Control_c, 0, 64, 64
2, 375478, Control_c, 0, 64, 62
2, 375497, Control_c, 0, 64, 57
2, 375516, Control_c, 0, 64, 50
2, 375535, Control_c, 0, 64, 42
2, 375555, Control_c, 0, 64, 41
2, 375565, Note_on_c, 0, 55, 45
2, 375573, Control_c, 0, 64, 43
2, 375592, Control_c, 0, 64, 47
2, 375612, Control_c, 0, 64, 52
2, 375615, Note_on_c, 0, 53, 0
2, 375631, Control_c, 0, 64, 56
2, 375650, Control_c, 0, 64, 58
2, 375669, Control_c, 0, 64, 60
2, 375689, Control_c, 0, 64, 62
2, 375707, Control_c, 0, 64, 63
2, 375727, Control_c, 0, 64, 63
2, 375842, Control_c, 0, 64, 63
2, 375881, Control_c, 0, 64, 62
2, 375900, Control_c, 0, 64, 61
2, 375919, Control_c, 0, 64, 57
2, 375938, Control_c, 0, 64, 50
2, 375952, Note_on_c, 0, 75, 65
2, 375956, Note_on_c, 0, 55, 0
2, 375958, Control_c, 0, 64, 43
2, 375977, Control_c, 0, 64, 40
2, 375981, Note_on_c, 0, 56, 46
2, 376015, Control_c, 0, 64, 42
2, 376034, Control_c, 0, 64, 45
2, 376053, Control_c, 0, 64, 48
2, 376072, Control_c, 0, 64, 52
2, 376084, Note_on_c, 0, 82, 0
2, 376092, Control_c, 0, 64, 55
2, 376096, Note_on_c, 0, 61, 0
2, 376111, Control_c, 0, 64, 57
2, 376130, Control_c, 0, 64, 58
2, 376149, Control_c, 0, 64, 59
2, 376226, Control_c, 0, 64, 58
2, 376388, Note_on_c, 0, 73, 37
2, 376399, Control_c, 0, 64, 58
2, 376410, Note_on_c, 0, 58, 35
2, 376416, Note_on_c, 0, 56, 0
2, 376418, Control_c, 0, 64, 57
2, 376457, Control_c, 0, 64, 57
2, 376572, Control_c, 0, 64, 56
2, 376591, Control_c, 0, 64, 55
2, 376610, Control_c, 0, 64, 53
2, 376629, Control_c, 0, 64, 53
2, 376649, Control_c, 0, 64, 52
2, 376667, Control_c, 0, 64, 53
2, 376687, Control_c, 0, 64, 55
2, 376710, Control_c, 0, 64, 56
2, 376729, Control_c, 0, 64, 58
2, 376748, Control_c, 0, 64, 60
2, 376768, Control_c, 0, 64, 61
2, 376783, Control_c, 0, 64, 62
2, 376792, Note_on_c, 0, 73, 0
2, 376802, Control_c, 0, 64, 62
2, 376802, Note_on_c, 0, 71, 45
2, 376810, Note_on_c, 0, 56, 30
2, 376821, Control_c, 0, 64, 63
2, 376856, Note_on_c, 0, 58, 0
2, 376860, Control_c, 0, 64, 63
2, 376866, Note_on_c, 0, 75, 0
2, 376879, Control_c, 0, 64, 64
2, 376918, Control_c, 0, 64, 64
2, 376975, Control_c, 0, 64, 65
2, 377109, Control_c, 0, 64, 63
2, 377129, Control_c, 0, 64, 61
2, 377147, Control_c, 0, 64, 57
2, 377167, Control_c, 0, 64, 54
2, 377170, Note_on_c, 0, 75, 40
2, 377172, Note_on_c, 0, 71, 0
2, 377186, Control_c, 0, 64, 53
2, 377187, Note_on_c, 0, 70, 36
2, 377206, Control_c, 0, 64, 55
2, 377212, Note_on_c, 0, 54, 35
2, 377221, Note_on_c, 0, 56, 0
2, 377224, Control_c, 0, 64, 57
2, 377244, Control_c, 0, 64, 60
2, 377263, Control_c, 0, 64, 62
2, 377282, Control_c, 0, 64, 64
2, 377301, Control_c, 0, 64, 65
2, 377321, Control_c, 0, 64, 66
2, 377340, Control_c, 0, 64, 67
2, 377359, Control_c, 0, 64, 68
2, 377378, Control_c, 0, 64, 69
2, 377398, Control_c, 0, 64, 69
2, 377417, Control_c, 0, 64, 69
2, 377512, Control_c, 0, 64, 68
2, 377512, Note_on_c, 0, 70, 0
2, 377532, Control_c, 0, 64, 67
2, 377551, Control_c, 0, 64, 63
2, 377570, Control_c, 0, 64, 54
2, 377573, Note_on_c, 0, 54, 0
2, 377589, Control_c, 0, 64, 45
2, 377597, Note_on_c, 0, 74, 43
2, 377609, Control_c, 0, 64, 42
2, 377621, Note_on_c, 0, 68, 39
2, 377627, Control_c, 0, 64, 43
2, 377634, Note_on_c, 0, 53, 33
2, 377647, Control_c, 0, 64, 49
2, 377657, Note_on_c, 0, 75, 0
2, 377666, Control_c, 0, 64, 56
2, 377686, Control_c, 0, 64, 61
2, 377704, Control_c, 0, 64, 63
2, 377724, Control_c, 0, 64, 64
2, 377743, Control_c, 0, 64, 65
2, 377762, Control_c, 0, 64, 66
2, 377781, Control_c, 0, 64, 67
2, 377790, Note_on_c, 0, 68, 0
2, 377801, Control_c, 0, 64, 68
2, 377935, Control_c, 0, 64, 68
2, 377954, Control_c, 0, 64, 68
2, 377973, Control_c, 0, 64, 66
2, 377976, Note_on_c, 0, 74, 0
2, 377992, Control_c, 0, 64, 61
2, 378012, Control_c, 0, 64, 50
2, 378029, Note_on_c, 0, 66, 38
2, 378029, Note_on_c, 0, 75, 41
2, 378031, Control_c, 0, 64, 44
2, 378049, Note_on_c, 0, 51, 28
2, 378050, Control_c, 0, 64, 45
2, 378064, Note_on_c, 0, 53, 0
2, 378069, Control_c, 0, 64, 49
2, 378089, Control_c, 0, 64, 56
2, 378107, Control_c, 0, 64, 61
2, 378127, Control_c, 0, 64, 63
2, 378146, Control_c, 0, 64, 65
2, 378166, Control_c, 0, 64, 66
2, 378184, Control_c, 0, 64, 67
2, 378295, Note_on_c, 0, 66, 0
2, 378358, Control_c, 0, 64, 65
2, 378377, Control_c, 0, 64, 59
2, 378396, Control_c, 0, 64, 46
2, 378412, Note_on_c, 0, 77, 48
2, 378415, Control_c, 0, 64, 31
2, 378415, Note_on_c, 0, 68, 44
2, 378423, Note_on_c, 0, 51, 0
2, 378434, Control_c, 0, 64, 24
2, 378442, Note_on_c, 0, 50, 36
2, 378453, Control_c, 0, 64, 29
2, 378472, Control_c, 0, 64, 44
2, 378483, Note_on_c, 0, 75, 0
2, 378492, Control_c, 0, 64, 57
2, 378511, Control_c, 0, 64, 63
2, 378530, Control_c, 0, 64, 65
2, 378549, Control_c, 0, 64, 66
2, 378569, Control_c, 0, 64, 68
2, 378587, Control_c, 0, 64, 70
2, 378607, Control_c, 0, 64, 72
2, 378628, Control_c, 0, 64, 74
2, 378647, Control_c, 0, 64, 75
2, 378699, Note_on_c, 0, 68, 0
2, 378781, Control_c, 0, 64, 74
2, 378798, Note_on_c, 0, 50, 0
2, 378800, Control_c, 0, 64, 68
2, 378802, Note_on_c, 0, 77, 0
2, 378819, Control_c, 0, 64, 60
2, 378821, Note_on_c, 0, 74, 50
2, 378833, Note_on_c, 0, 59, 43
2, 378839, Control_c, 0, 64, 43
2, 378839, Note_on_c, 0, 65, 24
2, 378857, Control_c, 0, 64, 31
2, 378877, Control_c, 0, 64, 30
2, 378896, Control_c, 0, 64, 38
2, 378916, Control_c, 0, 64, 52
2, 378932, Note_on_c, 0, 65, 0
2, 378934, Control_c, 0, 64, 60
2, 378953, Control_c, 0, 64, 64
2, 378973, Control_c, 0, 64, 66
2, 378991, Control_c, 0, 64, 67
2, 379011, Control_c, 0, 64, 69
2, 379030, Control_c, 0, 64, 70
2, 379184, Control_c, 0, 64, 68
2, 379203, Control_c, 0, 64, 63
2, 379222, Control_c, 0, 64, 51
2, 379229, Note_on_c, 0, 74, 0
2, 379237, Note_on_c, 0, 75, 62
2, 379242, Control_c, 0, 64, 38
2, 379248, Note_on_c, 0, 59, 0
2, 379252, Note_on_c, 0, 66, 46
2, 379261, Control_c, 0, 64, 32
2, 379268, Note_on_c, 0, 58, 40
2, 379280, Control_c, 0, 64, 35
2, 379299, Control_c, 0, 64, 45
2, 379319, Control_c, 0, 64, 56
2, 379337, Control_c, 0, 64, 61
2, 379357, Control_c, 0, 64, 64
2, 379376, Control_c, 0, 64, 65
2, 379396, Control_c, 0, 64, 67
2, 379404, Note_on_c, 0, 66, 0
2, 379414, Control_c, 0, 64, 68
2, 379433, Control_c, 0, 64, 69
2, 379453, Control_c, 0, 64, 70
2, 379491, Control_c, 0, 64, 69
2, 379548, Control_c, 0, 64, 69
2, 379568, Control_c, 0, 64, 67
2, 379588, Control_c, 0, 64, 61
2, 379607, Control_c, 0, 64, 49
2, 379626, Control_c, 0, 64, 36
2, 379628, Note_on_c, 0, 77, 67
2, 379646, Control_c, 0, 64, 30
2, 379659, Note_on_c, 0, 68, 59
2, 379662, Note_on_c, 0, 56, 48
2, 379664, Control_c, 0, 64, 31
2, 379683, Control_c, 0, 64, 42
2, 379691, Note_on_c, 0, 75, 0
2, 379702, Control_c, 0, 64, 53
2, 379702, Note_on_c, 0, 58, 0
2, 379722, Control_c, 0, 64, 60
2, 379741, Control_c, 0, 64, 62
2, 379760, Control_c, 0, 64, 63
2, 379779, Control_c, 0, 64, 64
2, 379799, Control_c, 0, 64, 65
2, 379817, Control_c, 0, 64, 66
2, 379837, Control_c, 0, 64, 66
2, 379856, Control_c, 0, 64, 67
2, 379862, Note_on_c, 0, 68, 0
2, 379876, Control_c, 0, 64, 66
2, 379933, Control_c, 0, 64, 66
2, 379951, Control_c, 0, 64, 65
2, 379971, Control_c, 0, 64, 62
2, 379990, Control_c, 0, 64, 49
2, 380010, Control_c, 0, 64, 23
2, 380028, Control_c, 0, 64, 0
2, 380040, Note_on_c, 0, 78, 77
2, 380055, Note_on_c, 0, 70, 64
2, 380076, Note_on_c, 0, 54, 54
2, 380087, Control_c, 0, 64, 29
2, 380101, Note_on_c, 0, 56, 0
2, 380105, Control_c, 0, 64, 50
2, 380117, Note_on_c, 0, 77, 0
2, 380125, Control_c, 0, 64, 58
2, 380144, Control_c, 0, 64, 61
2, 380163, Control_c, 0, 64, 62
2, 380182, Control_c, 0, 64, 63
2, 380202, Control_c, 0, 64, 63
2, 380221, Control_c, 0, 64, 64
2, 380240, Control_c, 0, 64, 65
2, 380259, Control_c, 0, 64, 65
2, 380266, Note_on_c, 0, 70, 0
2, 380297, Control_c, 0, 64, 65
2, 380336, Control_c, 0, 64, 63
2, 380356, Control_c, 0, 64, 52
2, 380374, Control_c, 0, 64, 21
2, 380393, Control_c, 0, 64, 0
2, 380418, Note_on_c, 0, 80, 83
2, 380431, Note_on_c, 0, 68, 69
2, 380444, Note_on_c, 0, 54, 0
2, 380448, Note_on_c, 0, 53, 59
2, 380470, Control_c, 0, 64, 35
2, 380490, Control_c, 0, 64, 52
2, 380508, Control_c, 0, 64, 59
2, 380528, Control_c, 0, 64, 59
2, 380537, Note_on_c, 0, 78, 0
2, 380567, Control_c, 0, 64, 60
2, 380586, Control_c, 0, 64, 61
2, 380606, Control_c, 0, 64, 61
2, 380624, Control_c, 0, 64, 62
2, 380701, Control_c, 0, 64, 61
2, 380720, Control_c, 0, 64, 60
2, 380739, Control_c, 0, 64, 56
2, 380759, Control_c, 0, 64, 35
2, 380777, Control_c, 0, 64, 0
2, 380845, Note_on_c, 0, 82, 81
2, 380857, Note_on_c, 0, 51, 63
2, 380873, Control_c, 0, 64, 17
2, 380884, Note_on_c, 0, 53, 0
2, 380893, Control_c, 0, 64, 53
2, 380906, Note_on_c, 0, 80, 0
2, 380911, Control_c, 0, 64, 62
2, 380931, Control_c, 0, 64, 64
2, 380950, Control_c, 0, 64, 64
2, 380958, Note_on_c, 0, 82, 0
2, 380970, Control_c, 0, 64, 65
2, 380988, Control_c, 0, 64, 66
2, 381008, Control_c, 0, 64, 68
2, 381027, Control_c, 0, 64, 69
2, 381047, Control_c, 0, 64, 71
2, 381142, Control_c, 0, 64, 71
2, 381162, Control_c, 0, 64, 67
2, 381181, Control_c, 0, 64, 56
2, 381200, Control_c, 0, 64, 17
2, 381219, Control_c, 0, 64, 0
2, 381220, Note_on_c, 0, 70, 74
2, 381224, Note_on_c, 0, 49, 70
2, 381230, Note_on_c, 0, 66, 70
2, 381273, Note_on_c, 0, 51, 0
2, 381296, Control_c, 0, 64, 44
2, 381304, Note_on_c, 0, 68, 0
2, 381315, Control_c, 0, 64, 60
2, 381334, Control_c, 0, 64, 64
2, 381353, Control_c, 0, 64, 65
2, 381372, Note_on_c, 0, 70, 0
2, 381373, Control_c, 0, 64, 65
2, 381387, Note_on_c, 0, 66, 0
2, 381391, Control_c, 0, 64, 66
2, 381408, Note_on_c, 0, 65, 70
2, 381411, Control_c, 0, 64, 66
2, 381430, Control_c, 0, 64, 67
2, 381506, Note_on_c, 0, 65, 0
2, 381565, Control_c, 0, 64, 66
2, 381584, Control_c, 0, 64, 63
2, 381603, Control_c, 0, 64, 38
2, 381606, Note_on_c, 0, 75, 79
2, 381617, Note_on_c, 0, 47, 74
2, 381622, Control_c, 0, 64, 0
2, 381622, Note_on_c, 0, 66, 77
2, 381661, Note_on_c, 0, 49, 0
2, 381737, Control_c, 0, 64, 46
2, 381757, Control_c, 0, 64, 56
2, 381776, Control_c, 0, 64, 60
2, 381795, Control_c, 0, 64, 61
2, 381814, Control_c, 0, 64, 61
2, 381833, Control_c, 0, 64, 62
2, 381853, Control_c, 0, 64, 63
2, 381891, Control_c, 0, 64, 63
2, 381968, Control_c, 0, 64, 64
2, 381987, Control_c, 0, 64, 64
2, 381993, Note_on_c, 0, 68, 81
2, 381994, Note_on_c, 0, 77, 72
2, 381995, Note_on_c, 0, 66, 0
2, 382007, Control_c, 0, 64, 65
2, 382025, Control_c, 0, 64, 65
2, 382048, Note_on_c, 0, 75, 0
2, 382217, Control_c, 0, 64, 66
2, 382371, Control_c, 0, 64, 64
2, 382390, Control_c, 0, 64, 56
2, 382410, Control_c, 0, 64, 0
2, 382412, Note_on_c, 0, 74, 78
2, 382416, Note_on_c, 0, 70, 82
2, 382419, Note_on_c, 0, 46, 84
2, 382467, Note_on_c, 0, 77, 0
2, 382470, Note_on_c, 0, 47, 0
2, 382483, Note_on_c, 0, 68, 0
2, 382526, Control_c, 0, 64, 28
2, 382544, Control_c, 0, 64, 54
2, 382563, Control_c, 0, 64, 60
2, 382582, Control_c, 0, 64, 62
2, 382602, Control_c, 0, 64, 63
2, 382621, Control_c, 0, 64, 64
2, 382640, Control_c, 0, 64, 65
2, 382659, Control_c, 0, 64, 66
2, 382679, Control_c, 0, 64, 67
2, 382717, Control_c, 0, 64, 66
2, 382793, Control_c, 0, 64, 67
2, 382813, Control_c, 0, 64, 67
2, 382831, Control_c, 0, 64, 68
2, 382851, Control_c, 0, 64, 70
2, 382870, Control_c, 0, 64, 71
2, 382890, Control_c, 0, 64, 72
2, 382908, Control_c, 0, 64, 72
2, 382928, Control_c, 0, 64, 73
2, 382967, Control_c, 0, 64, 73
2, 382985, Control_c, 0, 64, 74
2, 383005, Control_c, 0, 64, 75
2, 383024, Control_c, 0, 64, 77
2, 383043, Control_c, 0, 64, 78
2, 383062, Control_c, 0, 64, 78
2, 383101, Control_c, 0, 64, 79
2, 383197, Control_c, 0, 64, 80
2, 383216, Control_c, 0, 64, 81
2, 383235, Control_c, 0, 64, 83
2, 383254, Control_c, 0, 64, 84
2, 383273, Control_c, 0, 64, 81
2, 383293, Control_c, 0, 64, 70
2, 383310, Note_on_c, 0, 58, 83
2, 383311, Control_c, 0, 64, 52
2, 383312, Note_on_c, 0, 51, 74
2, 383331, Control_c, 0, 64, 0
2, 383391, Note_on_c, 0, 74, 0
2, 383427, Control_c, 0, 64, 44
2, 383447, Control_c, 0, 64, 57
2, 383447, Note_on_c, 0, 70, 0
2, 383465, Control_c, 0, 64, 60
2, 383485, Control_c, 0, 64, 62
2, 383504, Control_c, 0, 64, 64
2, 383523, Control_c, 0, 64, 65
2, 383542, Control_c, 0, 64, 66
2, 383562, Control_c, 0, 64, 68
2, 383581, Control_c, 0, 64, 68
2, 383773, Control_c, 0, 64, 68
2, 383811, Control_c, 0, 64, 67
2, 383888, Control_c, 0, 64, 67
2, 383927, Control_c, 0, 64, 66
2, 383984, Control_c, 0, 64, 66
2, 384003, Control_c, 0, 64, 65
2, 384042, Control_c, 0, 64, 65
2, 384061, Control_c, 0, 64, 64
2, 384080, Control_c, 0, 64, 64
2, 384099, Control_c, 0, 64, 62
2, 384119, Control_c, 0, 64, 57
2, 384137, Control_c, 0, 64, 43
2, 384157, Control_c, 0, 64, 0
2, 384170, Note_on_c, 0, 63, 84
2, 384170, Note_on_c, 0, 70, 85
2, 384330, Control_c, 0, 64, 42
2, 384348, Control_c, 0, 64, 58
2, 384368, Control_c, 0, 64, 61
2, 384387, Control_c, 0, 64, 63
2, 384407, Control_c, 0, 64, 65
2, 384425, Control_c, 0, 64, 66
2, 384437, Note_on_c, 0, 58, 0
2, 384445, Control_c, 0, 64, 68
2, 384464, Control_c, 0, 64, 69
2, 384483, Control_c, 0, 64, 70
2, 384502, Control_c, 0, 64, 70
2, 384522, Control_c, 0, 64, 71
2, 384541, Control_c, 0, 64, 71
2, 384560, Control_c, 0, 64, 72
2, 384574, Note_on_c, 0, 51, 0
2, 384586, Note_on_c, 0, 52, 68
2, 384656, Control_c, 0, 64, 72
2, 384694, Control_c, 0, 64, 73
2, 384771, Control_c, 0, 64, 72
2, 384790, Control_c, 0, 64, 72
2, 384848, Control_c, 0, 64, 71
2, 384925, Control_c, 0, 64, 71
2, 384944, Control_c, 0, 64, 70
2, 384963, Control_c, 0, 64, 70
2, 384982, Control_c, 0, 64, 68
2, 385002, Control_c, 0, 64, 63
2, 385008, Note_on_c, 0, 75, 91
2, 385021, Control_c, 0, 64, 40
2, 385024, Note_on_c, 0, 51, 52
2, 385037, Note_on_c, 0, 52, 0
2, 385040, Control_c, 0, 64, 0
2, 385155, Control_c, 0, 64, 37
2, 385174, Control_c, 0, 64, 60
2, 385193, Control_c, 0, 64, 64
2, 385213, Control_c, 0, 64, 64
2, 385251, Control_c, 0, 64, 65
2, 385270, Control_c, 0, 64, 66
2, 385290, Control_c, 0, 64, 66
2, 385308, Control_c, 0, 64, 67
2, 385312, Note_on_c, 0, 63, 0
2, 385328, Control_c, 0, 64, 67
2, 385366, Control_c, 0, 64, 68
2, 385384, Control_c, 0, 64, 68
2, 385385, Note_on_c, 0, 49, 47
2, 385388, Note_on_c, 0, 64, 76
2, 385399, Note_on_c, 0, 46, 0
2, 385402, Note_on_c, 0, 51, 0
2, 385404, Control_c, 0, 64, 69
2, 385423, Control_c, 0, 64, 70
2, 385442, Control_c, 0, 64, 71
2, 385461, Control_c, 0, 64, 72
2, 385481, Control_c, 0, 64, 73
2, 385519, Control_c, 0, 64, 74
2, 385590, Note_on_c, 0, 64, 0
2, 385769, Control_c, 0, 64, 71
2, 385774, Note_on_c, 0, 47, 49
2, 385787, Control_c, 0, 64, 63
2, 385787, Note_on_c, 0, 49, 0
2, 385807, Control_c, 0, 64, 39
2, 385826, Control_c, 0, 64, 0
2, 385828, Note_on_c, 0, 63, 79
2, 385903, Control_c, 0, 64, 27
2, 385922, Control_c, 0, 64, 56
2, 385941, Control_c, 0, 64, 63
2, 385961, Control_c, 0, 64, 65
2, 385980, Control_c, 0, 64, 66
2, 386018, Control_c, 0, 64, 66
2, 386038, Control_c, 0, 64, 67
2, 386057, Control_c, 0, 64, 68
2, 386073, Note_on_c, 0, 75, 0
2, 386075, Control_c, 0, 64, 69
2, 386114, Control_c, 0, 64, 70
2, 386152, Control_c, 0, 64, 70
2, 386172, Control_c, 0, 64, 69
2, 386191, Control_c, 0, 64, 64
2, 386202, Note_on_c, 0, 47, 0
2, 386210, Control_c, 0, 64, 50
2, 386210, Note_on_c, 0, 76, 78
2, 386229, Control_c, 0, 64, 11
2, 386237, Note_on_c, 0, 49, 51
2, 386249, Control_c, 0, 64, 0
2, 386270, Note_on_c, 0, 61, 43
2, 386287, Control_c, 0, 64, 36
2, 386306, Control_c, 0, 64, 56
2, 386326, Control_c, 0, 64, 63
2, 386344, Control_c, 0, 64, 65
2, 386364, Control_c, 0, 64, 66
2, 386383, Control_c, 0, 64, 68
2, 386402, Control_c, 0, 64, 69
2, 386421, Control_c, 0, 64, 70
2, 386441, Control_c, 0, 64, 71
2, 386451, Note_on_c, 0, 61, 0
2, 386518, Control_c, 0, 64, 70
2, 386537, Control_c, 0, 64, 67
2, 386555, Control_c, 0, 64, 57
2, 386575, Control_c, 0, 64, 0
2, 386582, Note_on_c, 0, 49, 0
2, 386602, Note_on_c, 0, 75, 79
2, 386613, Note_on_c, 0, 51, 46
2, 386626, Note_on_c, 0, 59, 56
2, 386659, Note_on_c, 0, 76, 0
2, 386709, Control_c, 0, 64, 43
2, 386729, Control_c, 0, 64, 57
2, 386747, Control_c, 0, 64, 61
2, 386767, Control_c, 0, 64, 62
2, 386786, Control_c, 0, 64, 63
2, 386806, Control_c, 0, 64, 63
2, 386823, Note_on_c, 0, 59, 0
2, 386824, Control_c, 0, 64, 64
2, 386844, Control_c, 0, 64, 65
2, 386901, Control_c, 0, 64, 63
2, 386921, Control_c, 0, 64, 55
2, 386940, Control_c, 0, 64, 13
2, 386959, Control_c, 0, 64, 0
2, 387013, Note_on_c, 0, 61, 54
2, 387014, Note_on_c, 0, 73, 71
2, 387035, Control_c, 0, 64, 49
2, 387053, Note_on_c, 0, 63, 0
2, 387055, Control_c, 0, 64, 61
2, 387074, Control_c, 0, 64, 63
2, 387087, Note_on_c, 0, 70, 0
2, 387093, Control_c, 0, 64, 64
2, 387112, Control_c, 0, 64, 64
2, 387137, Note_on_c, 0, 61, 0
2, 387148, Note_on_c, 0, 75, 0
2, 387151, Control_c, 0, 64, 65
2, 387170, Control_c, 0, 64, 66
2, 387209, Control_c, 0, 64, 66
2, 387362, Control_c, 0, 64, 65
2, 387381, Control_c, 0, 64, 60
2, 387401, Control_c, 0, 64, 36
2, 387420, Control_c, 0, 64, 0
2, 387422, Note_on_c, 0, 71, 61
2, 387425, Note_on_c, 0, 63, 55
2, 387438, Note_on_c, 0, 44, 60
2, 387450, Note_on_c, 0, 51, 0
2, 387472, Note_on_c, 0, 73, 0
2, 387515, Control_c, 0, 64, 47
2, 387535, Control_c, 0, 64, 59
2, 387554, Control_c, 0, 64, 62
2, 387573, Control_c, 0, 64, 63
2, 387592, Control_c, 0, 64, 64
2, 387612, Control_c, 0, 64, 64
2, 387631, Control_c, 0, 64, 65
2, 387650, Control_c, 0, 64, 66
2, 387669, Control_c, 0, 64, 66
2, 387746, Control_c, 0, 64, 65
2, 387766, Control_c, 0, 64, 60
2, 387784, Control_c, 0, 64, 36
2, 387804, Control_c, 0, 64, 0
2, 387816, Note_on_c, 0, 73, 74
2, 387820, Note_on_c, 0, 46, 59
2, 387835, Note_on_c, 0, 71, 0
2, 387878, Note_on_c, 0, 44, 0
2, 387881, Control_c, 0, 64, 43
2, 387897, Control_c, 0, 64, 58
2, 387916, Control_c, 0, 64, 62
2, 387935, Control_c, 0, 64, 63
2, 387955, Control_c, 0, 64, 64
2, 387974, Control_c, 0, 64, 64
2, 387993, Control_c, 0, 64, 65
2, 388012, Control_c, 0, 64, 65
2, 388032, Control_c, 0, 64, 66
2, 388184, Control_c, 0, 64, 62
2, 388204, Control_c, 0, 64, 38
2, 388218, Note_on_c, 0, 47, 53
2, 388218, Note_on_c, 0, 56, 59
2, 388224, Note_on_c, 0, 75, 69
2, 388227, Control_c, 0, 64, 0
2, 388242, Note_on_c, 0, 73, 0
2, 388308, Note_on_c, 0, 46, 0
2, 388320, Control_c, 0, 64, 46
2, 388339, Control_c, 0, 64, 61
2, 388359, Control_c, 0, 64, 64
2, 388378, Control_c, 0, 64, 65
2, 388397, Control_c, 0, 64, 65
2, 388416, Control_c, 0, 64, 66
2, 388436, Control_c, 0, 64, 67
2, 388454, Control_c, 0, 64, 68
2, 388474, Control_c, 0, 64, 66
2, 388493, Control_c, 0, 64, 61
2, 388513, Control_c, 0, 64, 50
2, 388531, Control_c, 0, 64, 39
2, 388545, Note_on_c, 0, 47, 0
2, 388551, Control_c, 0, 64, 38
2, 388570, Control_c, 0, 64, 46
2, 388589, Control_c, 0, 64, 57
2, 388608, Control_c, 0, 64, 63
2, 388628, Control_c, 0, 64, 65
2, 388628, Note_on_c, 0, 54, 60
2, 388647, Control_c, 0, 64, 66
2, 388693, Note_on_c, 0, 56, 0
2, 388858, Control_c, 0, 64, 66
2, 388973, Control_c, 0, 64, 67
2, 389001, Note_on_c, 0, 53, 67
2, 389011, Control_c, 0, 64, 63
2, 389017, Note_on_c, 0, 49, 72
2, 389018, Note_on_c, 0, 63, 0
2, 389020, Note_on_c, 0, 68, 75
2, 389031, Control_c, 0, 64, 48
2, 389038, Note_on_c, 0, 75, 0
2, 389047, Note_on_c, 0, 54, 0
2, 389050, Control_c, 0, 64, 0
2, 389165, Control_c, 0, 64, 52
2, 389184, Control_c, 0, 64, 61
2, 389204, Control_c, 0, 64, 63
2, 389222, Control_c, 0, 64, 64
2, 389242, Control_c, 0, 64, 64
2, 389261, Control_c, 0, 64, 65
2, 389279, Control_c, 0, 64, 66
2, 389298, Control_c, 0, 64, 66
2, 389395, Control_c, 0, 64, 67
2, 389402, Note_on_c, 0, 68, 0
2, 389414, Control_c, 0, 64, 67
2, 389419, Note_on_c, 0, 70, 61
2, 389433, Control_c, 0, 64, 68
2, 389452, Control_c, 0, 64, 69
2, 389472, Control_c, 0, 64, 69
2, 389529, Control_c, 0, 64, 69
2, 389576, Note_on_c, 0, 71, 68
2, 389605, Note_on_c, 0, 70, 0
2, 389627, Control_c, 0, 64, 69
2, 389666, Control_c, 0, 64, 70
2, 389686, Control_c, 0, 64, 70
2, 389704, Control_c, 0, 64, 71
2, 389762, Control_c, 0, 64, 70
2, 389781, Control_c, 0, 64, 67
2, 389794, Note_on_c, 0, 61, 83
2, 389801, Control_c, 0, 64, 57
2, 389811, Note_on_c, 0, 53, 0
2, 389812, Note_on_c, 0, 42, 71
2, 389820, Control_c, 0, 64, 0
2, 389822, Note_on_c, 0, 70, 64
2, 389860, Note_on_c, 0, 49, 0
2, 389861, Note_on_c, 0, 71, 0
2, 389935, Control_c, 0, 64, 36
2, 389954, Control_c, 0, 64, 57
2, 389973, Control_c, 0, 64, 62
2, 389992, Control_c, 0, 64, 64
2, 390012, Control_c, 0, 64, 65
2, 390031, Control_c, 0, 64, 66
2, 390050, Control_c, 0, 64, 67
2, 390069, Control_c, 0, 64, 68
2, 390089, Control_c, 0, 64, 69
2, 390127, Control_c, 0, 64, 68
2, 390184, Control_c, 0, 64, 68
2, 390201, Note_on_c, 0, 71, 70
2, 390204, Control_c, 0, 64, 68
2, 390278, Note_on_c, 0, 70, 0
2, 390300, Control_c, 0, 64, 68
2, 390319, Control_c, 0, 64, 67
2, 390338, Control_c, 0, 64, 67
2, 390377, Control_c, 0, 64, 66
2, 390569, Control_c, 0, 64, 67
2, 390587, Control_c, 0, 64, 66
2, 390607, Control_c, 0, 64, 66
2, 390611, Note_on_c, 0, 73, 81
2, 390626, Control_c, 0, 64, 63
2, 390644, Note_on_c, 0, 54, 55
2, 390646, Control_c, 0, 64, 47
2, 390664, Control_c, 0, 64, 0
2, 390723, Note_on_c, 0, 71, 0
2, 390761, Control_c, 0, 64, 13
2, 390780, Control_c, 0, 64, 51
2, 390799, Control_c, 0, 64, 59
2, 390818, Control_c, 0, 64, 62
2, 390838, Control_c, 0, 64, 63
2, 390857, Control_c, 0, 64, 63
2, 390875, Control_c, 0, 64, 64
2, 390895, Control_c, 0, 64, 64
2, 391020, Note_on_c, 0, 41, 65
2, 391049, Control_c, 0, 64, 65
2, 391087, Note_on_c, 0, 42, 0
2, 391354, Control_c, 0, 64, 64
2, 391374, Control_c, 0, 64, 57
2, 391393, Control_c, 0, 64, 24
2, 391412, Control_c, 0, 64, 0
2, 391425, Note_on_c, 0, 66, 79
2, 391446, Note_on_c, 0, 42, 60
2, 391475, Note_on_c, 0, 41, 0
2, 391475, Note_on_c, 0, 73, 0
2, 391508, Control_c, 0, 64, 22
2, 391528, Control_c, 0, 64, 50
2, 391547, Control_c, 0, 64, 59
2, 391566, Control_c, 0, 64, 61
2, 391585, Control_c, 0, 64, 62
2, 391605, Control_c, 0, 64, 62
2, 391623, Control_c, 0, 64, 63
2, 391643, Control_c, 0, 64, 64
2, 391662, Control_c, 0, 64, 65
2, 391680, Note_on_c, 0, 54, 0
2, 391682, Control_c, 0, 64, 66
2, 391739, Control_c, 0, 64, 64
2, 391757, Control_c, 0, 64, 57
2, 391777, Control_c, 0, 64, 33
2, 391796, Control_c, 0, 64, 0
2, 391817, Note_on_c, 0, 44, 44
2, 391825, Note_on_c, 0, 53, 55
2, 391831, Note_on_c, 0, 42, 0
2, 391834, Control_c, 0, 64, 9
2, 391854, Control_c, 0, 64, 43
2, 391873, Control_c, 0, 64, 58
2, 391892, Control_c, 0, 64, 63
2, 391911, Control_c, 0, 64, 64
2, 391931, Control_c, 0, 64, 65
2, 391950, Control_c, 0, 64, 66
2, 391969, Control_c, 0, 64, 66
2, 391988, Control_c, 0, 64, 67
2, 391990, Note_on_c, 0, 53, 0
2, 392008, Control_c, 0, 64, 68
2, 392027, Control_c, 0, 64, 69
2, 392103, Control_c, 0, 64, 69
2, 392142, Control_c, 0, 64, 68
2, 392157, Note_on_c, 0, 61, 0
2, 392162, Control_c, 0, 64, 63
2, 392180, Control_c, 0, 64, 50
2, 392200, Control_c, 0, 64, 26
2, 392219, Control_c, 0, 64, 0
2, 392241, Note_on_c, 0, 54, 49
2, 392247, Note_on_c, 0, 46, 44
2, 392257, Control_c, 0, 64, 31
2, 392276, Control_c, 0, 64, 51
2, 392281, Note_on_c, 0, 44, 0
2, 392296, Control_c, 0, 64, 60
2, 392314, Control_c, 0, 64, 63
2, 392334, Control_c, 0, 64, 64
2, 392353, Control_c, 0, 64, 64
2, 392372, Control_c, 0, 64, 65
2, 392411, Control_c, 0, 64, 65
2, 392565, Control_c, 0, 64, 65
2, 392583, Control_c, 0, 64, 61
2, 392597, Note_on_c, 0, 54, 0
2, 392603, Control_c, 0, 64, 40
2, 392622, Control_c, 0, 64, 0
2, 392627, Note_on_c, 0, 65, 56
2, 392644, Note_on_c, 0, 44, 30
2, 392667, Note_on_c, 0, 56, 40
2, 392686, Note_on_c, 0, 66, 0
2, 392699, Control_c, 0, 64, 31
2, 392717, Control_c, 0, 64, 55
2, 392737, Control_c, 0, 64, 63
2, 392746, Note_on_c, 0, 46, 0
2, 392756, Control_c, 0, 64, 64
2, 392776, Control_c, 0, 64, 65
2, 392777, Note_on_c, 0, 56, 0
2, 392794, Control_c, 0, 64, 65
2, 392833, Control_c, 0, 64, 66
2, 392968, Control_c, 0, 64, 64
2, 392987, Control_c, 0, 64, 58
2, 393006, Control_c, 0, 64, 29
2, 393018, Note_on_c, 0, 66, 71
2, 393027, Control_c, 0, 64, 0
2, 393046, Note_on_c, 0, 42, 39
2, 393059, Note_on_c, 0, 58, 38
2, 393073, Note_on_c, 0, 44, 0
2, 393104, Control_c, 0, 64, 39
2, 393114, Note_on_c, 0, 65, 0
2, 393123, Control_c, 0, 64, 58
2, 393142, Control_c, 0, 64, 63
2, 393162, Control_c, 0, 64, 65
2, 393181, Control_c, 0, 64, 66
2, 393200, Control_c, 0, 64, 67
2, 393219, Control_c, 0, 64, 68
2, 393226, Note_on_c, 0, 58, 0
2, 393239, Control_c, 0, 64, 68
2, 393257, Control_c, 0, 64, 69
2, 393353, Control_c, 0, 64, 69
2, 393373, Control_c, 0, 64, 70
2, 393391, Control_c, 0, 64, 69
2, 393411, Control_c, 0, 64, 64
2, 393420, Note_on_c, 0, 68, 73
2, 393425, Note_on_c, 0, 42, 0
2, 393430, Control_c, 0, 64, 48
2, 393450, Control_c, 0, 64, 15
2, 393455, Note_on_c, 0, 52, 45
2, 393455, Note_on_c, 0, 56, 46
2, 393468, Control_c, 0, 64, 0
2, 393480, Note_on_c, 0, 66, 0
2, 393507, Control_c, 0, 64, 17
2, 393527, Control_c, 0, 64, 47
2, 393545, Control_c, 0, 64, 59
2, 393565, Control_c, 0, 64, 64
2, 393584, Control_c, 0, 64, 65
2, 393603, Control_c, 0, 64, 66
2, 393622, Control_c, 0, 64, 67
2, 393642, Control_c, 0, 64, 67
2, 393661, Control_c, 0, 64, 68
2, 393699, Control_c, 0, 64, 67
2, 393786, Note_on_c, 0, 56, 0
2, 393795, Control_c, 0, 64, 66
2, 393814, Control_c, 0, 64, 63
2, 393833, Control_c, 0, 64, 45
2, 393847, Note_on_c, 0, 52, 0
2, 393853, Control_c, 0, 64, 0
2, 393857, Note_on_c, 0, 70, 66
2, 393867, Note_on_c, 0, 54, 35
2, 393889, Note_on_c, 0, 51, 33
2, 393934, Note_on_c, 0, 68, 0
2, 393948, Control_c, 0, 64, 43
2, 393968, Control_c, 0, 64, 57
2, 393989, Control_c, 0, 64, 62
2, 394008, Control_c, 0, 64, 64
2, 394047, Control_c, 0, 64, 64
2, 394120, Control_c, 0, 64, 64
2, 394139, Control_c, 0, 64, 63
2, 394157, Control_c, 0, 64, 63
2, 394177, Control_c, 0, 64, 62
2, 394196, Control_c, 0, 64, 62
2, 394216, Control_c, 0, 64, 61
2, 394234, Control_c, 0, 64, 61
2, 394254, Control_c, 0, 64, 60
2, 394270, Note_on_c, 0, 68, 60
2, 394273, Control_c, 0, 64, 59
2, 394292, Control_c, 0, 64, 58
2, 394311, Control_c, 0, 64, 55
2, 394331, Control_c, 0, 64, 52
2, 394339, Note_on_c, 0, 70, 0
2, 394350, Control_c, 0, 64, 50
2, 394369, Control_c, 0, 64, 50
2, 394427, Control_c, 0, 64, 50
2, 394503, Control_c, 0, 64, 49
2, 394523, Control_c, 0, 64, 45
2, 394542, Control_c, 0, 64, 43
2, 394562, Control_c, 0, 64, 41
2, 394580, Control_c, 0, 64, 40
2, 394637, Control_c, 0, 64, 39
2, 394657, Control_c, 0, 64, 36
2, 394662, Note_on_c, 0, 66, 56
2, 394676, Control_c, 0, 64, 31
2, 394685, Note_on_c, 0, 59, 37
2, 394695, Note_on_c, 0, 68, 0
2, 394696, Control_c, 0, 64, 20
2, 394714, Control_c, 0, 64, 0
2, 394715, Note_on_c, 0, 54, 0
2, 394888, Control_c, 0, 64, 19
2, 394907, Control_c, 0, 64, 34
2, 394926, Control_c, 0, 64, 44
2, 394946, Control_c, 0, 64, 53
2, 394966, Control_c, 0, 64, 57
2, 394984, Control_c, 0, 64, 60
2, 395004, Control_c, 0, 64, 62
2, 395023, Control_c, 0, 64, 63
2, 395042, Control_c, 0, 64, 65
2, 395047, Note_on_c, 0, 59, 0
2, 395060, Note_on_c, 0, 58, 41
2, 395061, Control_c, 0, 64, 66
2, 395081, Control_c, 0, 64, 67
2, 395177, Control_c, 0, 64, 66
2, 395311, Control_c, 0, 64, 66
2, 395349, Control_c, 0, 64, 65
2, 395446, Control_c, 0, 64, 65
2, 395464, Control_c, 0, 64, 64
2, 395484, Control_c, 0, 64, 57
2, 395484, Note_on_c, 0, 58, 0
2, 395484, Note_on_c, 0, 76, 71
2, 395494, Note_on_c, 0, 56, 44
2, 395503, Control_c, 0, 64, 37
2, 395509, Note_on_c, 0, 66, 0
2, 395522, Control_c, 0, 64, 0
2, 395548, Note_on_c, 0, 51, 0
2, 395675, Control_c, 0, 64, 41
2, 395695, Control_c, 0, 64, 55
2, 395714, Control_c, 0, 64, 60
2, 395733, Control_c, 0, 64, 61
2, 395752, Control_c, 0, 64, 62
2, 395772, Control_c, 0, 64, 62
2, 395791, Control_c, 0, 64, 63
2, 395810, Control_c, 0, 64, 64
2, 395829, Control_c, 0, 64, 64
2, 395849, Control_c, 0, 64, 65
2, 395867, Control_c, 0, 64, 65
2, 395889, Note_on_c, 0, 49, 41
2, 395964, Control_c, 0, 64, 65
2, 396271, Control_c, 0, 64, 64
2, 396289, Note_on_c, 0, 73, 48
2, 396290, Control_c, 0, 64, 62
2, 396309, Control_c, 0, 64, 55
2, 396329, Control_c, 0, 64, 41
2, 396331, Note_on_c, 0, 47, 38
2, 396347, Control_c, 0, 64, 32
2, 396367, Control_c, 0, 64, 31
2, 396386, Control_c, 0, 64, 36
2, 396400, Note_on_c, 0, 49, 0
2, 396406, Control_c, 0, 64, 46
2, 396424, Control_c, 0, 64, 55
2, 396444, Control_c, 0, 64, 60
2, 396463, Control_c, 0, 64, 62
2, 396482, Control_c, 0, 64, 63
2, 396501, Control_c, 0, 64, 63
2, 396597, Control_c, 0, 64, 63
2, 396617, Control_c, 0, 64, 62
2, 396635, Control_c, 0, 64, 62
2, 396655, Control_c, 0, 64, 61
2, 396674, Control_c, 0, 64, 60
2, 396712, Control_c, 0, 64, 60
2, 396729, Note_on_c, 0, 46, 29
2, 396747, Note_on_c, 0, 47, 0
2, 396751, Control_c, 0, 64, 59
2, 396770, Control_c, 0, 64, 58
2, 396789, Control_c, 0, 64, 58
2, 396809, Control_c, 0, 64, 57
2, 396827, Control_c, 0, 64, 57
2, 396962, Control_c, 0, 64, 56
2, 396981, Control_c, 0, 64, 53
2, 397001, Control_c, 0, 64, 48
2, 397020, Control_c, 0, 64, 42
2, 397038, Control_c, 0, 64, 39
2, 397077, Control_c, 0, 64, 43
2, 397097, Control_c, 0, 64, 49
2, 397115, Control_c, 0, 64, 55
2, 397132, Note_on_c, 0, 66, 35
2, 397135, Control_c, 0, 64, 58
2, 397142, Note_on_c, 0, 47, 19
2, 397154, Control_c, 0, 64, 59
2, 397155, Note_on_c, 0, 56, 0
2, 397173, Control_c, 0, 64, 60
2, 397192, Control_c, 0, 64, 60
2, 397212, Control_c, 0, 64, 61
2, 397215, Note_on_c, 0, 73, 0
2, 397231, Control_c, 0, 64, 61
2, 397237, Note_on_c, 0, 46, 0
2, 397250, Control_c, 0, 64, 62
2, 397269, Control_c, 0, 64, 62
2, 397307, Control_c, 0, 64, 63
2, 397423, Control_c, 0, 64, 62
2, 397461, Control_c, 0, 64, 62
2, 397502, Note_on_c, 0, 76, 0
2, 397529, Note_on_c, 0, 74, 40
2, 397538, Control_c, 0, 64, 61
2, 397577, Control_c, 0, 64, 61
2, 397595, Control_c, 0, 64, 60
2, 397615, Control_c, 0, 64, 59
2, 397634, Control_c, 0, 64, 58
2, 397653, Control_c, 0, 64, 57
2, 397672, Control_c, 0, 64, 56
2, 397692, Control_c, 0, 64, 56
2, 397711, Control_c, 0, 64, 55
2, 397730, Control_c, 0, 64, 54
2, 397769, Control_c, 0, 64, 54
2, 397787, Control_c, 0, 64, 53
2, 397807, Control_c, 0, 64, 52
2, 397826, Control_c, 0, 64, 50
2, 397846, Control_c, 0, 64, 49
2, 397884, Note_on_c, 0, 47, 0
2, 397903, Control_c, 0, 64, 50
2, 397922, Control_c, 0, 64, 51
2, 397935, Note_on_c, 0, 59, 28
2, 397941, Control_c, 0, 64, 53
2, 397944, Note_on_c, 0, 75, 40
2, 397953, Note_on_c, 0, 74, 0
2, 397961, Control_c, 0, 64, 54
2, 397980, Control_c, 0, 64, 55
2, 397998, Control_c, 0, 64, 55
2, 398037, Control_c, 0, 64, 56
2, 398075, Control_c, 0, 64, 56
2, 398133, Control_c, 0, 64, 57
2, 398172, Control_c, 0, 64, 57
2, 398287, Control_c, 0, 64, 58
2, 398306, Control_c, 0, 64, 59
2, 398326, Control_c, 0, 64, 60
2, 398342, Note_on_c, 0, 58, 27
2, 398344, Control_c, 0, 64, 60
2, 398344, Note_on_c, 0, 66, 0
2, 398364, Control_c, 0, 64, 61
2, 398370, Note_on_c, 0, 59, 0
2, 398383, Control_c, 0, 64, 61
2, 398402, Control_c, 0, 64, 62
2, 398441, Control_c, 0, 64, 62
2, 398460, Control_c, 0, 64, 63
2, 398498, Control_c, 0, 64, 63
2, 398575, Control_c, 0, 64, 64
2, 398709, Control_c, 0, 64, 63
2, 398729, Control_c, 0, 64, 59
2, 398729, Note_on_c, 0, 71, 36
2, 398747, Control_c, 0, 64, 52
2, 398767, Control_c, 0, 64, 45
2, 398779, Note_on_c, 0, 56, 26
2, 398789, Control_c, 0, 64, 41
2, 398791, Note_on_c, 0, 58, 0
2, 398808, Control_c, 0, 64, 42
2, 398827, Control_c, 0, 64, 47
2, 398847, Control_c, 0, 64, 53
2, 398864, Control_c, 0, 64, 57
2, 398883, Control_c, 0, 64, 60
2, 398902, Control_c, 0, 64, 61
2, 398922, Control_c, 0, 64, 62
2, 398941, Control_c, 0, 64, 62
2, 398960, Control_c, 0, 64, 63
2, 399017, Control_c, 0, 64, 63
2, 399094, Control_c, 0, 64, 63
2, 399096, Note_on_c, 0, 71, 0
2, 399113, Control_c, 0, 64, 60
2, 399133, Control_c, 0, 64, 52
2, 399134, Note_on_c, 0, 78, 53
2, 399151, Control_c, 0, 64, 42
2, 399167, Note_on_c, 0, 70, 31
2, 399171, Control_c, 0, 64, 36
2, 399174, Note_on_c, 0, 58, 29
2, 399182, Note_on_c, 0, 56, 0
2, 399185, Note_on_c, 0, 75, 0
2, 399190, Control_c, 0, 64, 36
2, 399210, Control_c, 0, 64, 44
2, 399228, Control_c, 0, 64, 54
2, 399248, Control_c, 0, 64, 60
2, 399267, Control_c, 0, 64, 63
2, 399287, Control_c, 0, 64, 64
2, 399305, Control_c, 0, 64, 64
2, 399344, Control_c, 0, 64, 65
2, 399408, Note_on_c, 0, 70, 0
2, 399440, Control_c, 0, 64, 66
2, 399497, Control_c, 0, 64, 65
2, 399516, Control_c, 0, 64, 61
2, 399527, Note_on_c, 0, 77, 54
2, 399536, Control_c, 0, 64, 54
2, 399555, Control_c, 0, 64, 47
2, 399560, Note_on_c, 0, 78, 0
2, 399561, Note_on_c, 0, 68, 41
2, 399574, Control_c, 0, 64, 45
2, 399587, Note_on_c, 0, 59, 31
2, 399592, Note_on_c, 0, 58, 0
2, 399593, Control_c, 0, 64, 47
2, 399613, Control_c, 0, 64, 53
2, 399632, Control_c, 0, 64, 59
2, 399651, Control_c, 0, 64, 62
2, 399670, Control_c, 0, 64, 63
2, 399690, Control_c, 0, 64, 64
2, 399700, Note_on_c, 0, 68, 0
2, 399708, Control_c, 0, 64, 64
2, 399728, Control_c, 0, 64, 65
2, 399748, Control_c, 0, 64, 65
2, 399900, Control_c, 0, 64, 64
2, 399918, Control_c, 0, 64, 59
2, 399932, Note_on_c, 0, 75, 52
2, 399933, Note_on_c, 0, 77, 0
2, 399934, Note_on_c, 0, 59, 0
2, 399938, Control_c, 0, 64, 49
2, 399957, Control_c, 0, 64, 41
2, 399977, Control_c, 0, 64, 39
2, 399987, Note_on_c, 0, 56, 33
2, 399995, Control_c, 0, 64, 44
2, 400015, Control_c, 0, 64, 52
2, 400034, Control_c, 0, 64, 60
2, 400053, Control_c, 0, 64, 63
2, 400072, Control_c, 0, 64, 64
2, 400092, Control_c, 0, 64, 65
2, 400107, Note_on_c, 0, 56, 0
2, 400111, Control_c, 0, 64, 65
2, 400130, Control_c, 0, 64, 66
2, 400149, Control_c, 0, 64, 67
2, 400169, Control_c, 0, 64, 67
2, 400246, Control_c, 0, 64, 67
2, 400303, Control_c, 0, 64, 67
2, 400322, Control_c, 0, 64, 66
2, 400341, Control_c, 0, 64, 63
2, 400345, Note_on_c, 0, 75, 0
2, 400346, Note_on_c, 0, 74, 50
2, 400361, Control_c, 0, 64, 54
2, 400379, Note_on_c, 0, 65, 31
2, 400380, Control_c, 0, 64, 44
2, 400398, Control_c, 0, 64, 41
2, 400418, Control_c, 0, 64, 42
2, 400437, Control_c, 0, 64, 49
2, 400457, Control_c, 0, 64, 57
2, 400457, Note_on_c, 0, 58, 8
2, 400475, Control_c, 0, 64, 61
2, 400495, Control_c, 0, 64, 63
2, 400514, Control_c, 0, 64, 63
2, 400533, Control_c, 0, 64, 64
2, 400552, Control_c, 0, 64, 64
2, 400629, Control_c, 0, 64, 64
2, 400687, Control_c, 0, 64, 64
2, 400745, Control_c, 0, 64, 65
2, 400765, Control_c, 0, 64, 65
2, 400775, Note_on_c, 0, 77, 67
2, 400798, Note_on_c, 0, 63, 28
2, 400798, Note_on_c, 0, 65, 0
2, 400973, Note_on_c, 0, 74, 0
2, 401031, Control_c, 0, 64, 65
2, 401163, Note_on_c, 0, 58, 0
2, 401168, Note_on_c, 0, 62, 28
2, 401223, Control_c, 0, 64, 64
2, 401243, Control_c, 0, 64, 61
2, 401252, Note_on_c, 0, 63, 0
2, 401262, Control_c, 0, 64, 51
2, 401265, Note_on_c, 0, 82, 69
2, 401282, Control_c, 0, 64, 32
2, 401300, Control_c, 0, 64, 0
2, 401326, Note_on_c, 0, 77, 0
2, 401377, Control_c, 0, 64, 31
2, 401396, Control_c, 0, 64, 48
2, 401416, Control_c, 0, 64, 59
2, 401434, Control_c, 0, 64, 61
2, 401454, Control_c, 0, 64, 62
2, 401473, Control_c, 0, 64, 62
2, 401492, Control_c, 0, 64, 63
2, 401511, Control_c, 0, 64, 64
2, 401531, Control_c, 0, 64, 64
2, 401550, Control_c, 0, 64, 65
2, 401668, Note_on_c, 0, 62, 0
2, 401704, Control_c, 0, 64, 65
2, 401722, Note_on_c, 0, 56, 31
2, 401727, Note_on_c, 0, 65, 31
2, 401762, Control_c, 0, 64, 66
2, 401809, Note_on_c, 0, 56, 0
2, 402050, Control_c, 0, 64, 65
2, 402069, Control_c, 0, 64, 61
2, 402089, Control_c, 0, 64, 51
2, 402107, Control_c, 0, 64, 40
2, 402127, Control_c, 0, 64, 34
2, 402139, Note_on_c, 0, 58, 25
2, 402146, Control_c, 0, 64, 35
2, 402149, Note_on_c, 0, 65, 0
2, 402166, Control_c, 0, 64, 41
2, 402170, Note_on_c, 0, 54, 30
2, 402184, Control_c, 0, 64, 50
2, 402204, Control_c, 0, 64, 58
2, 402223, Control_c, 0, 64, 62
2, 402242, Control_c, 0, 64, 64
2, 402261, Control_c, 0, 64, 64
2, 402281, Control_c, 0, 64, 65
2, 402300, Control_c, 0, 64, 66
2, 402318, Control_c, 0, 64, 66
2, 402338, Control_c, 0, 64, 67
2, 402434, Control_c, 0, 64, 67
2, 402492, Control_c, 0, 64, 68
2, 402511, Note_on_c, 0, 58, 0
2, 402517, Note_on_c, 0, 54, 0
2, 402541, Note_on_c, 0, 83, 64
2, 402565, Note_on_c, 0, 68, 47
2, 402574, Note_on_c, 0, 56, 37
2, 402605, Note_on_c, 0, 82, 0
2, 402647, Note_on_c, 0, 68, 0
2, 402882, Note_on_c, 0, 56, 0
2, 402913, Control_c, 0, 64, 67
2, 402932, Control_c, 0, 64, 63
2, 402951, Control_c, 0, 64, 55
2, 402971, Control_c, 0, 64, 41
2, 402971, Note_on_c, 0, 82, 66
2, 402983, Note_on_c, 0, 58, 30
2, 402989, Note_on_c, 0, 66, 40
2, 402990, Control_c, 0, 64, 27
2, 403009, Control_c, 0, 64, 24
2, 403015, Note_on_c, 0, 83, 0
2, 403028, Control_c, 0, 64, 29
2, 403048, Control_c, 0, 64, 43
2, 403067, Control_c, 0, 64, 57
2, 403086, Control_c, 0, 64, 62
2, 403105, Control_c, 0, 64, 63
2, 403125, Control_c, 0, 64, 64
2, 403143, Control_c, 0, 64, 65
2, 403163, Control_c, 0, 64, 65
2, 403182, Control_c, 0, 64, 66
2, 403182, Note_on_c, 0, 66, 0
2, 403202, Control_c, 0, 64, 67
2, 403316, Control_c, 0, 64, 67
2, 403358, Note_on_c, 0, 80, 63
2, 403382, Note_on_c, 0, 65, 41
2, 403430, Note_on_c, 0, 82, 0
2, 403444, Note_on_c, 0, 65, 0
2, 403451, Control_c, 0, 64, 67
2, 403508, Control_c, 0, 64, 67
2, 403719, Control_c, 0, 64, 67
2, 403739, Control_c, 0, 64, 64
2, 403757, Control_c, 0, 64, 59
2, 403771, Note_on_c, 0, 58, 0
2, 403772, Note_on_c, 0, 78, 58
2, 403774, Note_on_c, 0, 51, 31
2, 403777, Control_c, 0, 64, 46
2, 403794, Note_on_c, 0, 63, 36
2, 403796, Control_c, 0, 64, 34
2, 403801, Note_on_c, 0, 80, 0
2, 403816, Control_c, 0, 64, 28
2, 403834, Control_c, 0, 64, 29
2, 403854, Control_c, 0, 64, 38
2, 403873, Control_c, 0, 64, 50
2, 403892, Control_c, 0, 64, 58
2, 403911, Control_c, 0, 64, 61
2, 403931, Control_c, 0, 64, 63
2, 403950, Control_c, 0, 64, 63
2, 403969, Control_c, 0, 64, 64
2, 404008, Control_c, 0, 64, 64
2, 404123, Control_c, 0, 64, 65
2, 404156, Note_on_c, 0, 80, 63
2, 404162, Control_c, 0, 64, 65
2, 404166, Note_on_c, 0, 53, 42
2, 404174, Note_on_c, 0, 78, 0
2, 404190, Note_on_c, 0, 51, 0
2, 404276, Control_c, 0, 64, 65
2, 404449, Control_c, 0, 64, 64
2, 404519, Note_on_c, 0, 53, 0
2, 404526, Control_c, 0, 64, 64
2, 404547, Control_c, 0, 64, 62
2, 404557, Note_on_c, 0, 82, 65
2, 404563, Note_on_c, 0, 80, 0
2, 404564, Note_on_c, 0, 55, 34
2, 404567, Control_c, 0, 64, 55
2, 404585, Control_c, 0, 64, 40
2, 404591, Note_on_c, 0, 75, 46
2, 404605, Control_c, 0, 64, 0
2, 404756, Control_c, 0, 64, 18
2, 404776, Control_c, 0, 64, 43
2, 404794, Control_c, 0, 64, 55
2, 404814, Control_c, 0, 64, 60
2, 404833, Control_c, 0, 64, 62
2, 404852, Control_c, 0, 64, 62
2, 404871, Control_c, 0, 64, 63
2, 404891, Control_c, 0, 64, 63
2, 404910, Control_c, 0, 64, 64
2, 404927, Note_on_c, 0, 75, 0
2, 404929, Control_c, 0, 64, 64
2, 404948, Control_c, 0, 64, 65
2, 404968, Note_on_c, 0, 73, 36
2, 404987, Control_c, 0, 64, 65
2, 405042, Note_on_c, 0, 63, 0
2, 405045, Control_c, 0, 64, 65
2, 405197, Control_c, 0, 64, 64
2, 405256, Control_c, 0, 64, 64
2, 405332, Control_c, 0, 64, 62
2, 405348, Note_on_c, 0, 55, 0
2, 405351, Control_c, 0, 64, 54
2, 405352, Note_on_c, 0, 73, 0
2, 405357, Note_on_c, 0, 75, 60
2, 405363, Note_on_c, 0, 56, 44
2, 405371, Control_c, 0, 64, 29
2, 405372, Note_on_c, 0, 82, 0
2, 405383, Note_on_c, 0, 71, 38
2, 405390, Control_c, 0, 64, 0
2, 405486, Control_c, 0, 64, 45
2, 405508, Control_c, 0, 64, 58
2, 405527, Control_c, 0, 64, 62
2, 405546, Control_c, 0, 64, 63
2, 405566, Control_c, 0, 64, 64
2, 405602, Control_c, 0, 64, 65
2, 405620, Control_c, 0, 64, 65
2, 405722, Note_on_c, 0, 71, 0
2, 405752, Note_on_c, 0, 70, 46
2, 405754, Control_c, 0, 64, 66
2, 405757, Note_on_c, 0, 54, 27
2, 405762, Note_on_c, 0, 56, 0
2, 405793, Control_c, 0, 64, 66
2, 405883, Note_on_c, 0, 70, 0
2, 405889, Control_c, 0, 64, 66
2, 405966, Control_c, 0, 64, 66
2, 406062, Control_c, 0, 64, 66
2, 406170, Note_on_c, 0, 80, 66
2, 406192, Note_on_c, 0, 53, 30
2, 406196, Control_c, 0, 64, 64
2, 406197, Note_on_c, 0, 54, 0
2, 406202, Note_on_c, 0, 68, 42
2, 406206, Note_on_c, 0, 75, 0
2, 406216, Control_c, 0, 64, 57
2, 406234, Control_c, 0, 64, 39
2, 406254, Control_c, 0, 64, 0
2, 406331, Control_c, 0, 64, 20
2, 406350, Control_c, 0, 64, 45
2, 406369, Control_c, 0, 64, 58
2, 406388, Control_c, 0, 64, 61
2, 406408, Control_c, 0, 64, 62
2, 406427, Control_c, 0, 64, 62
2, 406446, Control_c, 0, 64, 63
2, 406485, Control_c, 0, 64, 63
2, 406542, Control_c, 0, 64, 64
2, 406562, Control_c, 0, 64, 64
2, 406581, Control_c, 0, 64, 65
2, 406588, Note_on_c, 0, 68, 0
2, 406601, Control_c, 0, 64, 65
2, 406611, Note_on_c, 0, 71, 15
2, 406614, Note_on_c, 0, 51, 27
2, 406620, Control_c, 0, 64, 66
2, 406621, Note_on_c, 0, 53, 0
2, 406850, Control_c, 0, 64, 66
2, 406889, Control_c, 0, 64, 66
2, 406966, Control_c, 0, 64, 65
2, 406984, Control_c, 0, 64, 64
2, 407004, Control_c, 0, 64, 60
2, 407015, Note_on_c, 0, 50, 33
2, 407018, Note_on_c, 0, 70, 43
2, 407022, Note_on_c, 0, 71, 0
2, 407023, Control_c, 0, 64, 52
2, 407042, Control_c, 0, 64, 44
2, 407061, Control_c, 0, 64, 43
2, 407061, Note_on_c, 0, 51, 0
2, 407081, Control_c, 0, 64, 45
2, 407100, Control_c, 0, 64, 51
2, 407118, Control_c, 0, 64, 56
2, 407138, Control_c, 0, 64, 60
2, 407157, Control_c, 0, 64, 62
2, 407177, Control_c, 0, 64, 63
2, 407195, Control_c, 0, 64, 64
2, 407215, Control_c, 0, 64, 65
2, 407234, Control_c, 0, 64, 65
2, 407253, Control_c, 0, 64, 66
2, 407387, Control_c, 0, 64, 66
2, 407407, Note_on_c, 0, 78, 60
2, 407423, Note_on_c, 0, 51, 34
2, 407427, Control_c, 0, 64, 67
2, 407434, Note_on_c, 0, 75, 40
2, 407446, Note_on_c, 0, 50, 0
2, 407464, Note_on_c, 0, 70, 0
2, 407520, Control_c, 0, 64, 66
2, 407578, Note_on_c, 0, 80, 0
2, 407732, Control_c, 0, 64, 66
2, 407789, Control_c, 0, 64, 65
2, 407803, Note_on_c, 0, 77, 59
2, 407808, Control_c, 0, 64, 63
2, 407819, Note_on_c, 0, 46, 32
2, 407827, Control_c, 0, 64, 55
2, 407828, Note_on_c, 0, 75, 0
2, 407847, Control_c, 0, 64, 30
2, 407852, Note_on_c, 0, 51, 0
2, 407866, Control_c, 0, 64, 0
2, 407926, Note_on_c, 0, 78, 0
2, 407942, Control_c, 0, 64, 17
2, 407962, Control_c, 0, 64, 48
2, 407981, Control_c, 0, 64, 60
2, 408000, Control_c, 0, 64, 63
2, 408019, Control_c, 0, 64, 63
2, 408038, Control_c, 0, 64, 64
2, 408058, Control_c, 0, 64, 64
2, 408077, Control_c, 0, 64, 65
2, 408096, Control_c, 0, 64, 66
2, 408153, Control_c, 0, 64, 66
2, 408192, Control_c, 0, 64, 67
2, 408212, Control_c, 0, 64, 68
2, 408221, Note_on_c, 0, 73, 46
2, 408230, Control_c, 0, 64, 69
2, 408238, Note_on_c, 0, 58, 37
2, 408269, Note_on_c, 0, 46, 0
2, 408327, Control_c, 0, 64, 68
2, 408518, Control_c, 0, 64, 68
2, 408576, Control_c, 0, 64, 67
2, 408615, Control_c, 0, 64, 66
2, 408625, Note_on_c, 0, 58, 0
2, 408631, Note_on_c, 0, 75, 62
2, 408633, Control_c, 0, 64, 64
2, 408653, Control_c, 0, 64, 56
2, 408668, Note_on_c, 0, 59, 36
2, 408672, Control_c, 0, 64, 40
2, 408676, Note_on_c, 0, 77, 0
2, 408692, Control_c, 0, 64, 0
2, 408787, Control_c, 0, 64, 27
2, 408790, Note_on_c, 0, 73, 0
2, 408807, Control_c, 0, 64, 45
2, 408826, Control_c, 0, 64, 56
2, 408845, Control_c, 0, 64, 60
2, 408864, Control_c, 0, 64, 62
2, 408884, Control_c, 0, 64, 62
2, 408902, Control_c, 0, 64, 63
2, 408922, Control_c, 0, 64, 63
2, 408941, Control_c, 0, 64, 64
2, 408998, Control_c, 0, 64, 64
2, 409018, Control_c, 0, 64, 65
2, 409019, Note_on_c, 0, 71, 46
2, 409037, Control_c, 0, 64, 65
2, 409060, Note_on_c, 0, 51, 29
2, 409075, Control_c, 0, 64, 66
2, 409118, Note_on_c, 0, 59, 0
2, 409152, Control_c, 0, 64, 65
2, 409344, Control_c, 0, 64, 65
2, 409402, Control_c, 0, 64, 64
2, 409422, Control_c, 0, 64, 64
2, 409434, Note_on_c, 0, 73, 56
2, 409440, Control_c, 0, 64, 62
2, 409459, Control_c, 0, 64, 55
2, 409464, Note_on_c, 0, 53, 31
2, 409478, Control_c, 0, 64, 41
2, 409478, Note_on_c, 0, 75, 0
2, 409498, Control_c, 0, 64, 9
2, 409500, Note_on_c, 0, 51, 0
2, 409517, Control_c, 0, 64, 0
2, 409613, Control_c, 0, 64, 32
2, 409632, Control_c, 0, 64, 47
2, 409652, Control_c, 0, 64, 56
2, 409670, Control_c, 0, 64, 59
2, 409690, Control_c, 0, 64, 60
2, 409709, Control_c, 0, 64, 61
2, 409728, Control_c, 0, 64, 62
2, 409747, Control_c, 0, 64, 62
2, 409767, Control_c, 0, 64, 63
2, 409805, Control_c, 0, 64, 63
2, 409824, Note_on_c, 0, 71, 0
2, 409842, Note_on_c, 0, 70, 42
2, 409844, Control_c, 0, 64, 64
2, 409845, Note_on_c, 0, 55, 26
2, 409856, Note_on_c, 0, 53, 0
2, 409862, Control_c, 0, 64, 64
2, 410170, Control_c, 0, 64, 64
2, 410206, Note_on_c, 0, 73, 0
2, 410208, Control_c, 0, 64, 63
2, 410227, Control_c, 0, 64, 61
2, 410236, Note_on_c, 0, 71, 50
2, 410247, Control_c, 0, 64, 57
2, 410266, Control_c, 0, 64, 46
2, 410285, Control_c, 0, 64, 26
2, 410285, Note_on_c, 0, 55, 0
2, 410285, Note_on_c, 0, 56, 35
2, 410308, Control_c, 0, 64, 0
2, 410459, Control_c, 0, 64, 24
2, 410477, Control_c, 0, 64, 40
2, 410497, Control_c, 0, 64, 52
2, 410516, Control_c, 0, 64, 57
2, 410536, Control_c, 0, 64, 59
2, 410554, Control_c, 0, 64, 59
2, 410593, Control_c, 0, 64, 60
2, 410630, Note_on_c, 0, 70, 0
2, 410632, Note_on_c, 0, 68, 41
2, 410651, Note_on_c, 0, 53, 34
2, 410684, Note_on_c, 0, 56, 0
2, 410728, Control_c, 0, 64, 59
2, 410766, Control_c, 0, 64, 59
2, 410823, Control_c, 0, 64, 58
2, 410919, Control_c, 0, 64, 58
2, 410939, Control_c, 0, 64, 57
2, 410957, Control_c, 0, 64, 56
2, 410977, Control_c, 0, 64, 51
2, 410996, Control_c, 0, 64, 43
2, 411005, Note_on_c, 0, 71, 0
2, 411016, Control_c, 0, 64, 22
2, 411034, Control_c, 0, 64, 0
2, 411036, Note_on_c, 0, 70, 39
2, 411042, Note_on_c, 0, 50, 25
2, 411065, Note_on_c, 0, 53, 0
2, 411227, Control_c, 0, 64, 24
2, 411246, Control_c, 0, 64, 37
2, 411266, Control_c, 0, 64, 46
2, 411286, Control_c, 0, 64, 52
2, 411304, Control_c, 0, 64, 56
2, 411324, Control_c, 0, 64, 58
2, 411342, Control_c, 0, 64, 58
2, 411362, Control_c, 0, 64, 59
2, 411380, Control_c, 0, 64, 59
2, 411392, Note_on_c, 0, 50, 0
2, 411408, Note_on_c, 0, 66, 37
2, 411423, Note_on_c, 0, 51, 30
2, 411467, Note_on_c, 0, 68, 0
2, 411534, Control_c, 0, 64, 60
2, 411765, Control_c, 0, 64, 59
2, 411783, Control_c, 0, 64, 59
2, 411800, Note_on_c, 0, 68, 51
2, 411803, Control_c, 0, 64, 58
2, 411810, Note_on_c, 0, 48, 38
2, 411819, Note_on_c, 0, 70, 0
2, 411822, Control_c, 0, 64, 57
2, 411835, Note_on_c, 0, 51, 0
2, 411842, Control_c, 0, 64, 55
2, 411860, Control_c, 0, 64, 54
2, 411879, Control_c, 0, 64, 53
2, 411899, Control_c, 0, 64, 51
2, 411917, Control_c, 0, 64, 50
2, 411937, Control_c, 0, 64, 49
2, 411956, Control_c, 0, 64, 48
2, 411976, Control_c, 0, 64, 47
2, 411994, Control_c, 0, 64, 46
2, 412014, Control_c, 0, 64, 45
2, 412033, Control_c, 0, 64, 44
2, 412206, Note_on_c, 0, 50, 38
2, 412224, Note_on_c, 0, 65, 37
2, 412247, Note_on_c, 0, 48, 0
2, 412307, Note_on_c, 0, 66, 0
2, 412379, Control_c, 0, 64, 45
2, 412532, Control_c, 0, 64, 45
2, 412630, Note_on_c, 0, 68, 0
2, 412646, Note_on_c, 0, 66, 40
2, 412669, Note_on_c, 0, 51, 29
2, 412678, Note_on_c, 0, 50, 0
2, 412801, Control_c, 0, 64, 45
2, 412897, Control_c, 0, 64, 44
2, 413032, Note_on_c, 0, 65, 0
2, 413096, Note_on_c, 0, 39, 35
2, 413123, Note_on_c, 0, 51, 0
2, 413147, Control_c, 0, 64, 44
2, 413185, Control_c, 0, 64, 43
2, 413205, Control_c, 0, 64, 43
2, 413223, Control_c, 0, 64, 42
2, 413243, Control_c, 0, 64, 42
2, 413262, Control_c, 0, 64, 41
2, 413300, Control_c, 0, 64, 40
2, 413357, Control_c, 0, 64, 40
2, 413416, Control_c, 0, 64, 39
2, 413454, Control_c, 0, 64, 38
2, 413492, Control_c, 0, 64, 38
2, 413511, Control_c, 0, 64, 37
2, 413531, Control_c, 0, 64, 36
2, 413550, Control_c, 0, 64, 34
2, 413569, Control_c, 0, 64, 31
2, 413580, Note_on_c, 0, 66, 0
2, 413588, Control_c, 0, 64, 26
2, 413599, Note_on_c, 0, 46, 33
2, 413608, Control_c, 0, 64, 20
2, 413610, Note_on_c, 0, 62, 24
2, 413627, Control_c, 0, 64, 0
2, 413628, Note_on_c, 0, 65, 24
2, 413643, Note_on_c, 0, 39, 0
2, 413761, Control_c, 0, 64, 36
2, 413780, Control_c, 0, 64, 54
2, 413799, Control_c, 0, 64, 59
2, 413819, Control_c, 0, 64, 61
2, 413837, Control_c, 0, 64, 62
2, 413857, Control_c, 0, 64, 63
2, 413861, Note_on_c, 0, 65, 0
2, 413876, Control_c, 0, 64, 64
2, 413896, Control_c, 0, 64, 65
2, 413914, Control_c, 0, 64, 66
2, 413953, Control_c, 0, 64, 66
2, 413972, Control_c, 0, 64, 67
2, 413991, Control_c, 0, 64, 67
2, 414011, Control_c, 0, 64, 68
2, 414030, Control_c, 0, 64, 68
2, 414049, Control_c, 0, 64, 69
2, 414068, Control_c, 0, 64, 69
2, 414088, Control_c, 0, 64, 70
2, 414107, Control_c, 0, 64, 70
2, 414113, Note_on_c, 0, 62, 0
2, 414177, Note_on_c, 0, 65, 34
2, 414183, Control_c, 0, 64, 71
2, 414203, Control_c, 0, 64, 71
2, 414235, Note_on_c, 0, 65, 0
2, 414279, Control_c, 0, 64, 72
2, 414396, Note_on_c, 0, 46, 0
2, 414529, Control_c, 0, 64, 71
2, 414587, Control_c, 0, 64, 71
2, 414589, Note_on_c, 0, 70, 60
2, 414606, Control_c, 0, 64, 69
2, 414625, Control_c, 0, 64, 67
2, 414645, Control_c, 0, 64, 65
2, 414663, Control_c, 0, 64, 63
2, 414683, Control_c, 0, 64, 61
2, 414702, Control_c, 0, 64, 60
2, 414721, Control_c, 0, 64, 58
2, 414740, Control_c, 0, 64, 56
2, 414759, Control_c, 0, 64, 54
2, 414779, Control_c, 0, 64, 52
2, 414817, Control_c, 0, 64, 52
2, 414856, Control_c, 0, 64, 51
2, 414913, Control_c, 0, 64, 51
2, 414989, Note_on_c, 0, 72, 50
2, 415009, Control_c, 0, 64, 51
2, 415067, Control_c, 0, 64, 52
2, 415086, Control_c, 0, 64, 52
2, 415126, Control_c, 0, 64, 53
2, 415221, Control_c, 0, 64, 53
2, 415240, Control_c, 0, 64, 54
2, 415260, Control_c, 0, 64, 54
2, 415298, Control_c, 0, 64, 55
2, 415317, Control_c, 0, 64, 55
2, 415355, Control_c, 0, 64, 56
2, 415439, Note_on_c, 0, 58, 64
2, 415441, Note_on_c, 0, 72, 0
2, 415452, Control_c, 0, 64, 55
2, 415464, Note_on_c, 0, 74, 36
2, 415471, Control_c, 0, 64, 53
2, 415490, Control_c, 0, 64, 50
2, 415509, Control_c, 0, 64, 44
2, 415529, Control_c, 0, 64, 34
2, 415547, Control_c, 0, 64, 20
2, 415548, Note_on_c, 0, 70, 0
2, 415567, Control_c, 0, 64, 0
2, 415720, Control_c, 0, 64, 13
2, 415740, Control_c, 0, 64, 17
2, 415758, Control_c, 0, 64, 18
2, 415778, Control_c, 0, 64, 20
2, 415797, Control_c, 0, 64, 22
2, 415817, Control_c, 0, 64, 26
2, 415835, Control_c, 0, 64, 29
2, 415855, Control_c, 0, 64, 32
2, 415874, Control_c, 0, 64, 34
2, 415886, Note_on_c, 0, 74, 0
2, 415893, Control_c, 0, 64, 35
2, 415912, Control_c, 0, 64, 36
2, 415923, Note_on_c, 0, 75, 38
2, 415932, Control_c, 0, 64, 36
2, 415937, Note_on_c, 0, 71, 39
2, 415951, Control_c, 0, 64, 37
2, 415970, Control_c, 0, 64, 38
2, 415989, Control_c, 0, 64, 39
2, 416009, Control_c, 0, 64, 41
2, 416027, Control_c, 0, 64, 43
2, 416047, Control_c, 0, 64, 46
2, 416066, Control_c, 0, 64, 48
2, 416081, Control_c, 0, 64, 50
2, 416101, Control_c, 0, 64, 53
2, 416119, Control_c, 0, 64, 55
2, 416135, Control_c, 0, 64, 57
2, 416153, Control_c, 0, 64, 59
2, 416173, Control_c, 0, 64, 62
2, 416192, Control_c, 0, 64, 63
2, 416211, Control_c, 0, 64, 64
2, 416230, Control_c, 0, 64, 65
2, 416250, Control_c, 0, 64, 66
2, 416257, Note_on_c, 0, 71, 0
2, 416268, Control_c, 0, 64, 67
2, 416288, Control_c, 0, 64, 69
2, 416307, Control_c, 0, 64, 71
2, 416311, Note_on_c, 0, 77, 44
2, 416316, Note_on_c, 0, 70, 45
2, 416327, Control_c, 0, 64, 74
2, 416345, Control_c, 0, 64, 76
2, 416365, Control_c, 0, 64, 77
2, 416384, Control_c, 0, 64, 78
2, 416403, Control_c, 0, 64, 79
2, 416422, Control_c, 0, 64, 79
2, 416441, Control_c, 0, 64, 81
2, 416461, Control_c, 0, 64, 82
2, 416479, Control_c, 0, 64, 84
2, 416499, Control_c, 0, 64, 85
2, 416518, Control_c, 0, 64, 85
2, 416537, Control_c, 0, 64, 86
2, 416556, Note_on_c, 0, 58, 0
2, 416557, Note_on_c, 0, 75, 0
2, 416653, Control_c, 0, 64, 85
2, 416672, Control_c, 0, 64, 85
2, 416724, Note_on_c, 0, 68, 52
2, 416730, Control_c, 0, 64, 84
2, 416746, Note_on_c, 0, 70, 0
2, 416768, Control_c, 0, 64, 84
2, 416787, Control_c, 0, 64, 83
2, 416825, Control_c, 0, 64, 83
2, 417117, Note_on_c, 0, 63, 68
2, 417120, Control_c, 0, 64, 80
2, 417139, Control_c, 0, 64, 73
2, 417158, Control_c, 0, 64, 64
2, 417167, Note_on_c, 0, 66, 50
2, 417178, Control_c, 0, 64, 57
2, 417182, Note_on_c, 0, 68, 0
2, 417197, Control_c, 0, 64, 52
2, 417216, Control_c, 0, 64, 48
2, 417235, Control_c, 0, 64, 44
2, 417255, Control_c, 0, 64, 43
2, 417273, Control_c, 0, 64, 44
2, 417293, Control_c, 0, 64, 45
2, 417312, Control_c, 0, 64, 48
2, 417332, Control_c, 0, 64, 49
2, 417350, Control_c, 0, 64, 51
2, 417370, Control_c, 0, 64, 53
2, 417389, Control_c, 0, 64, 55
2, 417408, Control_c, 0, 64, 55
2, 417466, Control_c, 0, 64, 56
2, 417504, Control_c, 0, 64, 56
2, 417521, Note_on_c, 0, 68, 41
2, 417524, Control_c, 0, 64, 57
2, 417527, Note_on_c, 0, 77, 0
2, 417557, Note_on_c, 0, 75, 41
2, 417586, Note_on_c, 0, 66, 0
2, 417677, Control_c, 0, 64, 56
2, 417709, Note_on_c, 0, 75, 0
2, 417759, Note_on_c, 0, 73, 40
2, 417792, Control_c, 0, 64, 56
2, 417811, Note_on_c, 0, 73, 0
2, 417812, Control_c, 0, 64, 55
2, 417830, Control_c, 0, 64, 54
2, 417850, Control_c, 0, 64, 53
2, 417869, Control_c, 0, 64, 50
2, 417870, Note_on_c, 0, 75, 47
2, 417888, Control_c, 0, 64, 48
2, 417907, Control_c, 0, 64, 45
2, 417927, Control_c, 0, 64, 43
2, 417933, Note_on_c, 0, 75, 0
2, 417936, Note_on_c, 0, 73, 51
2, 417946, Control_c, 0, 64, 43
2, 417947, Note_on_c, 0, 70, 49
2, 417965, Control_c, 0, 64, 44
2, 417981, Note_on_c, 0, 68, 0
2, 417984, Control_c, 0, 64, 47
2, 418004, Control_c, 0, 64, 52
2, 418022, Control_c, 0, 64, 57
2, 418041, Control_c, 0, 64, 60
2, 418059, Control_c, 0, 64, 62
2, 418078, Control_c, 0, 64, 63
2, 418097, Control_c, 0, 64, 64
2, 418097, Note_on_c, 0, 73, 0
2, 418116, Control_c, 0, 64, 65
2, 418136, Control_c, 0, 64, 66
2, 418142, Note_on_c, 0, 71, 48
2, 418155, Control_c, 0, 64, 68
2, 418174, Control_c, 0, 64, 69
2, 418193, Control_c, 0, 64, 70
2, 418213, Control_c, 0, 64, 71
2, 418232, Control_c, 0, 64, 72
2, 418270, Control_c, 0, 64, 72
2, 418279, Note_on_c, 0, 63, 0
2, 418308, Control_c, 0, 64, 73
2, 418318, Note_on_c, 0, 71, 0
2, 418328, Control_c, 0, 64, 73
2, 418349, Note_on_c, 0, 73, 49
2, 418385, Control_c, 0, 64, 73
2, 418442, Control_c, 0, 64, 72
2, 418471, Note_on_c, 0, 73, 0
2, 418481, Control_c, 0, 64, 72
2, 418511, Note_on_c, 0, 79, 51
2, 418519, Control_c, 0, 64, 71
2, 418558, Control_c, 0, 64, 71
2, 418596, Control_c, 0, 64, 70
2, 418616, Control_c, 0, 64, 70
2, 418635, Control_c, 0, 64, 69
2, 418654, Control_c, 0, 64, 68
2, 418668, Note_on_c, 0, 79, 0
2, 418673, Control_c, 0, 64, 66
2, 418693, Control_c, 0, 64, 64
2, 418712, Control_c, 0, 64, 60
2, 418721, Note_on_c, 0, 63, 53
2, 418731, Control_c, 0, 64, 53
2, 418739, Note_on_c, 0, 80, 46
2, 418750, Control_c, 0, 64, 41
2, 418770, Control_c, 0, 64, 23
2, 418788, Control_c, 0, 64, 0
2, 418855, Note_on_c, 0, 70, 0
2, 418880, Note_on_c, 0, 80, 0
2, 418885, Control_c, 0, 64, 34
2, 418903, Note_on_c, 0, 82, 57
2, 418904, Control_c, 0, 64, 51
2, 418922, Control_c, 0, 64, 59
2, 418945, Control_c, 0, 64, 62
2, 418965, Control_c, 0, 64, 63
2, 418983, Control_c, 0, 64, 64
2, 419002, Control_c, 0, 64, 64
2, 419021, Control_c, 0, 64, 65
2, 419040, Control_c, 0, 64, 66
2, 419059, Control_c, 0, 64, 67
2, 419078, Control_c, 0, 64, 68
2, 419098, Control_c, 0, 64, 68
2, 419111, Note_on_c, 0, 82, 0
2, 419117, Control_c, 0, 64, 69
2, 419118, Note_on_c, 0, 83, 58
2, 419136, Control_c, 0, 64, 69
2, 419155, Control_c, 0, 64, 70
2, 419481, Control_c, 0, 64, 69
2, 419539, Control_c, 0, 64, 69
2, 419552, Note_on_c, 0, 64, 66
2, 419558, Control_c, 0, 64, 68
2, 419578, Control_c, 0, 64, 64
2, 419578, Note_on_c, 0, 68, 48
2, 419590, Note_on_c, 0, 63, 0
2, 419597, Control_c, 0, 64, 53
2, 419616, Control_c, 0, 64, 28
2, 419635, Control_c, 0, 64, 0
2, 419732, Control_c, 0, 64, 34
2, 419750, Control_c, 0, 64, 51
2, 419770, Control_c, 0, 64, 59
2, 419789, Control_c, 0, 64, 62
2, 419808, Control_c, 0, 64, 62
2, 419827, Control_c, 0, 64, 63
2, 419847, Control_c, 0, 64, 64
2, 419866, Control_c, 0, 64, 65
2, 419885, Control_c, 0, 64, 66
2, 419904, Control_c, 0, 64, 67
2, 419924, Control_c, 0, 64, 67
2, 419951, Note_on_c, 0, 82, 55
2, 419958, Note_on_c, 0, 83, 0
2, 419961, Control_c, 0, 64, 68
2, 419981, Control_c, 0, 64, 68
2, 420001, Control_c, 0, 64, 69
2, 420103, Note_on_c, 0, 82, 0
2, 420114, Note_on_c, 0, 80, 58
2, 420136, Control_c, 0, 64, 68
2, 420308, Control_c, 0, 64, 68
2, 420328, Control_c, 0, 64, 67
2, 420347, Control_c, 0, 64, 64
2, 420360, Note_on_c, 0, 80, 0
2, 420362, Note_on_c, 0, 82, 63
2, 420366, Control_c, 0, 64, 56
2, 420372, Note_on_c, 0, 63, 61
2, 420378, Note_on_c, 0, 64, 0
2, 420385, Control_c, 0, 64, 31
2, 420405, Control_c, 0, 64, 0
2, 420481, Control_c, 0, 64, 19
2, 420500, Control_c, 0, 64, 45
2, 420519, Control_c, 0, 64, 57
2, 420539, Control_c, 0, 64, 62
2, 420557, Control_c, 0, 64, 63
2, 420577, Control_c, 0, 64, 64
2, 420596, Control_c, 0, 64, 65
2, 420616, Control_c, 0, 64, 66
2, 420634, Control_c, 0, 64, 67
2, 420654, Control_c, 0, 64, 68
2, 420662, Note_on_c, 0, 68, 0
2, 420673, Control_c, 0, 64, 69
2, 420711, Control_c, 0, 64, 69
2, 420731, Control_c, 0, 64, 70
2, 420750, Control_c, 0, 64, 71
2, 420752, Note_on_c, 0, 67, 37
2, 420758, Note_on_c, 0, 75, 46
2, 420769, Control_c, 0, 64, 72
2, 420788, Control_c, 0, 64, 73
2, 420808, Control_c, 0, 64, 73
2, 420868, Control_c, 0, 64, 73
2, 420887, Control_c, 0, 64, 72
2, 420906, Control_c, 0, 64, 72
2, 420926, Control_c, 0, 64, 71
2, 420960, Control_c, 0, 64, 71
2, 421018, Control_c, 0, 64, 70
2, 421056, Control_c, 0, 64, 70
2, 421075, Control_c, 0, 64, 69
2, 421113, Control_c, 0, 64, 69
2, 421132, Note_on_c, 0, 75, 0
2, 421133, Control_c, 0, 64, 68
2, 421140, Note_on_c, 0, 67, 0
2, 421152, Control_c, 0, 64, 67
2, 421157, Note_on_c, 0, 77, 50
2, 421167, Note_on_c, 0, 65, 49
2, 421172, Control_c, 0, 64, 64
2, 421179, Note_on_c, 0, 61, 54
2, 421190, Control_c, 0, 64, 60
2, 421209, Note_on_c, 0, 63, 0
2, 421210, Control_c, 0, 64, 49
2, 421229, Control_c, 0, 64, 30
2, 421248, Control_c, 0, 64, 0
2, 421382, Control_c, 0, 64, 36
2, 421401, Control_c, 0, 64, 53
2, 421421, Control_c, 0, 64, 60
2, 421440, Control_c, 0, 64, 62
2, 421459, Control_c, 0, 64, 63
2, 421478, Control_c, 0, 64, 64
2, 421498, Control_c, 0, 64, 64
2, 421517, Control_c, 0, 64, 65
2, 421531, Note_on_c, 0, 65, 0
2, 421536, Control_c, 0, 64, 66
2, 421543, Note_on_c, 0, 77, 0
2, 421555, Control_c, 0, 64, 67
2, 421561, Note_on_c, 0, 64, 44
2, 421570, Note_on_c, 0, 79, 47
2, 421575, Control_c, 0, 64, 68
2, 421593, Control_c, 0, 64, 70
2, 421613, Control_c, 0, 64, 70
2, 421626, Note_on_c, 0, 82, 0
2, 421632, Control_c, 0, 64, 71
2, 421678, Note_on_c, 0, 61, 0
2, 421691, Note_on_c, 0, 64, 0
2, 421767, Control_c, 0, 64, 70
2, 421863, Control_c, 0, 64, 70
2, 421901, Control_c, 0, 64, 69
2, 421920, Control_c, 0, 64, 69
2, 421952, Note_on_c, 0, 79, 0
2, 421957, Note_on_c, 0, 59, 54
2, 421958, Control_c, 0, 64, 67
2, 421974, Note_on_c, 0, 80, 50
2, 421975, Note_on_c, 0, 63, 48
2, 421978, Control_c, 0, 64, 64
2, 421997, Control_c, 0, 64, 51
2, 422016, Control_c, 0, 64, 17
2, 422035, Control_c, 0, 64, 0
2, 422112, Control_c, 0, 64, 32
2, 422132, Control_c, 0, 64, 54
2, 422150, Control_c, 0, 64, 61
2, 422170, Control_c, 0, 64, 63
2, 422208, Control_c, 0, 64, 64
2, 422227, Control_c, 0, 64, 64
2, 422247, Control_c, 0, 64, 65
2, 422266, Control_c, 0, 64, 66
2, 422324, Control_c, 0, 64, 67
2, 422357, Note_on_c, 0, 63, 0
2, 422365, Note_on_c, 0, 59, 0
2, 422381, Control_c, 0, 64, 67
2, 422385, Note_on_c, 0, 71, 44
2, 422419, Control_c, 0, 64, 68
2, 422496, Control_c, 0, 64, 67
2, 422724, Note_on_c, 0, 71, 0
2, 422765, Note_on_c, 0, 61, 51
2, 422777, Note_on_c, 0, 70, 51
2, 422784, Control_c, 0, 64, 64
2, 422804, Control_c, 0, 64, 56
2, 422822, Control_c, 0, 64, 38
2, 422841, Control_c, 0, 64, 11
2, 422861, Control_c, 0, 64, 0
2, 422898, Control_c, 0, 64, 36
2, 422917, Control_c, 0, 64, 54
2, 422937, Control_c, 0, 64, 62
2, 422956, Control_c, 0, 64, 64
2, 422975, Control_c, 0, 64, 65
2, 422994, Control_c, 0, 64, 66
2, 423014, Control_c, 0, 64, 66
2, 423032, Control_c, 0, 64, 67
2, 423052, Control_c, 0, 64, 68
2, 423071, Control_c, 0, 64, 69
2, 423091, Control_c, 0, 64, 69
2, 423117, Note_on_c, 0, 70, 0
2, 423148, Control_c, 0, 64, 70
2, 423167, Control_c, 0, 64, 70
2, 423178, Note_on_c, 0, 68, 48
2, 423186, Control_c, 0, 64, 71
2, 423206, Control_c, 0, 64, 72
2, 423225, Control_c, 0, 64, 73
2, 423243, Control_c, 0, 64, 73
2, 423254, Note_on_c, 0, 68, 0
2, 423279, Note_on_c, 0, 61, 0
2, 423282, Control_c, 0, 64, 73
2, 423571, Control_c, 0, 64, 71
2, 423587, Note_on_c, 0, 82, 71
2, 423589, Control_c, 0, 64, 66
2, 423609, Control_c, 0, 64, 57
2, 423610, Note_on_c, 0, 63, 45
2, 423628, Control_c, 0, 64, 39
2, 423645, Note_on_c, 0, 67, 21
2, 423647, Control_c, 0, 64, 25
2, 423666, Control_c, 0, 64, 20
2, 423686, Control_c, 0, 64, 24
2, 423701, Note_on_c, 0, 80, 0
2, 423705, Control_c, 0, 64, 43
2, 423723, Control_c, 0, 64, 56
2, 423743, Control_c, 0, 64, 62
2, 423753, Note_on_c, 0, 63, 0
2, 423762, Control_c, 0, 64, 63
2, 423782, Control_c, 0, 64, 64
2, 423800, Control_c, 0, 64, 65
2, 423820, Control_c, 0, 64, 65
2, 424001, Note_on_c, 0, 63, 24
2, 424021, Note_on_c, 0, 67, 0
2, 424161, Note_on_c, 0, 65, 29
2, 424184, Control_c, 0, 64, 66
2, 424222, Control_c, 0, 64, 66
2, 424241, Control_c, 0, 64, 67
2, 424348, Note_on_c, 0, 65, 0
2, 424356, Control_c, 0, 64, 66
2, 424376, Control_c, 0, 64, 63
2, 424382, Note_on_c, 0, 75, 55
2, 424391, Note_on_c, 0, 82, 0
2, 424395, Control_c, 0, 64, 54
2, 424406, Note_on_c, 0, 67, 34
2, 424414, Control_c, 0, 64, 36
2, 424433, Control_c, 0, 64, 17
2, 424453, Control_c, 0, 64, 15
2, 424472, Control_c, 0, 64, 28
2, 424491, Control_c, 0, 64, 47
2, 424510, Control_c, 0, 64, 60
2, 424530, Control_c, 0, 64, 64
2, 424548, Control_c, 0, 64, 66
2, 424568, Control_c, 0, 64, 67
2, 424587, Control_c, 0, 64, 69
2, 424607, Control_c, 0, 64, 71
2, 424625, Control_c, 0, 64, 74
2, 424645, Control_c, 0, 64, 76
2, 424664, Control_c, 0, 64, 77
2, 424781, Control_c, 0, 64, 77
2, 424802, Note_on_c, 0, 68, 38
2, 424837, Note_on_c, 0, 67, 0
2, 424839, Control_c, 0, 64, 78
2, 424890, Note_on_c, 0, 68, 0
2, 424897, Control_c, 0, 64, 77
2, 424950, Note_on_c, 0, 70, 50
2, 425012, Control_c, 0, 64, 78
2, 425108, Control_c, 0, 64, 77
2, 425202, Note_on_c, 0, 70, 0
2, 425217, Note_on_c, 0, 56, 61
2, 425220, Control_c, 0, 64, 76
2, 425223, Note_on_c, 0, 71, 43
2, 425240, Control_c, 0, 64, 72
2, 425259, Control_c, 0, 64, 64
2, 425279, Control_c, 0, 64, 53
2, 425297, Control_c, 0, 64, 37
2, 425317, Control_c, 0, 64, 21
2, 425336, Control_c, 0, 64, 0
2, 425338, Note_on_c, 0, 63, 0
2, 425429, Note_on_c, 0, 71, 0
2, 425431, Control_c, 0, 64, 11
2, 425451, Control_c, 0, 64, 13
2, 425470, Control_c, 0, 64, 19
2, 425489, Control_c, 0, 64, 26
2, 425508, Control_c, 0, 64, 30
2, 425528, Control_c, 0, 64, 33
2, 425547, Control_c, 0, 64, 34
2, 425566, Control_c, 0, 64, 34
2, 425585, Control_c, 0, 64, 35
2, 425605, Control_c, 0, 64, 36
2, 425619, Note_on_c, 0, 71, 40
2, 425624, Control_c, 0, 64, 40
2, 425643, Control_c, 0, 64, 44
2, 425663, Control_c, 0, 64, 46
2, 425683, Control_c, 0, 64, 47
2, 425701, Control_c, 0, 64, 48
2, 425721, Control_c, 0, 64, 48
2, 425740, Control_c, 0, 64, 49
2, 425760, Control_c, 0, 64, 51
2, 425778, Control_c, 0, 64, 53
2, 425798, Control_c, 0, 64, 54
2, 425817, Control_c, 0, 64, 56
2, 425836, Control_c, 0, 64, 58
2, 425855, Control_c, 0, 64, 59
2, 425875, Control_c, 0, 64, 61
2, 425894, Control_c, 0, 64, 62
2, 425912, Control_c, 0, 64, 63
2, 425932, Control_c, 0, 64, 63
2, 425951, Control_c, 0, 64, 64
2, 425970, Control_c, 0, 64, 64
2, 425989, Control_c, 0, 64, 65
2, 426009, Control_c, 0, 64, 66
2, 426028, Control_c, 0, 64, 67
2, 426031, Note_on_c, 0, 73, 42
2, 426047, Control_c, 0, 64, 67
2, 426066, Control_c, 0, 64, 68
2, 426086, Control_c, 0, 64, 69
2, 426092, Note_on_c, 0, 75, 0
2, 426104, Control_c, 0, 64, 70
2, 426181, Control_c, 0, 64, 70
2, 426220, Control_c, 0, 64, 71
2, 426240, Control_c, 0, 64, 71
2, 426258, Control_c, 0, 64, 72
2, 426278, Control_c, 0, 64, 73
2, 426335, Control_c, 0, 64, 73
2, 426372, Note_on_c, 0, 56, 0
2, 426392, Control_c, 0, 64, 74
2, 426412, Control_c, 0, 64, 74
2, 426443, Note_on_c, 0, 75, 47
2, 426449, Note_on_c, 0, 70, 38
2, 426450, Control_c, 0, 64, 75
2, 426456, Note_on_c, 0, 71, 0
2, 426469, Control_c, 0, 64, 75
2, 426506, Note_on_c, 0, 73, 0
2, 426527, Control_c, 0, 64, 76
2, 426662, Control_c, 0, 64, 76
2, 426701, Control_c, 0, 64, 77
2, 426778, Control_c, 0, 64, 76
2, 426816, Control_c, 0, 64, 76
2, 426828, Note_on_c, 0, 61, 61
2, 426830, Note_on_c, 0, 76, 55
2, 426836, Control_c, 0, 64, 75
2, 426851, Note_on_c, 0, 70, 0
2, 426854, Control_c, 0, 64, 71
2, 426865, Note_on_c, 0, 68, 35
2, 426874, Control_c, 0, 64, 66
2, 426893, Control_c, 0, 64, 62
2, 426910, Note_on_c, 0, 75, 0
2, 426912, Control_c, 0, 64, 58
2, 426931, Control_c, 0, 64, 52
2, 426950, Control_c, 0, 64, 47
2, 426970, Control_c, 0, 64, 42
2, 426989, Control_c, 0, 64, 39
2, 427008, Control_c, 0, 64, 37
2, 427027, Control_c, 0, 64, 36
2, 427047, Control_c, 0, 64, 36
2, 427104, Control_c, 0, 64, 36
2, 427124, Control_c, 0, 64, 37
2, 427247, Note_on_c, 0, 75, 56
2, 427277, Note_on_c, 0, 68, 0
2, 427278, Note_on_c, 0, 67, 33
2, 427296, Control_c, 0, 64, 37
2, 427317, Note_on_c, 0, 76, 0
2, 427450, Control_c, 0, 64, 38
2, 427469, Control_c, 0, 64, 38
2, 427488, Control_c, 0, 64, 39
2, 427507, Control_c, 0, 64, 40
2, 427527, Control_c, 0, 64, 40
2, 427545, Control_c, 0, 64, 41
2, 427565, Control_c, 0, 64, 42
2, 427584, Control_c, 0, 64, 43
2, 427604, Control_c, 0, 64, 45
2, 427622, Control_c, 0, 64, 49
2, 427642, Control_c, 0, 64, 54
2, 427642, Note_on_c, 0, 67, 0
2, 427654, Note_on_c, 0, 68, 47
2, 427655, Note_on_c, 0, 73, 50
2, 427658, Control_c, 0, 64, 58
2, 427678, Control_c, 0, 64, 62
2, 427696, Control_c, 0, 64, 63
2, 427699, Note_on_c, 0, 75, 0
2, 427716, Control_c, 0, 64, 65
2, 427735, Control_c, 0, 64, 66
2, 427755, Control_c, 0, 64, 67
2, 427776, Control_c, 0, 64, 68
2, 427795, Control_c, 0, 64, 69
2, 427815, Control_c, 0, 64, 71
2, 427833, Control_c, 0, 64, 73
2, 427853, Control_c, 0, 64, 74
2, 427872, Control_c, 0, 64, 75
2, 427892, Control_c, 0, 64, 76
2, 427910, Control_c, 0, 64, 77
2, 427930, Control_c, 0, 64, 78
2, 427949, Control_c, 0, 64, 78
2, 427968, Control_c, 0, 64, 79
2, 428030, Note_on_c, 0, 70, 56
2, 428045, Note_on_c, 0, 68, 0
2, 428089, Note_on_c, 0, 70, 0
2, 428182, Control_c, 0, 64, 78
2, 428201, Control_c, 0, 64, 78
2, 428335, Control_c, 0, 64, 77
2, 428355, Control_c, 0, 64, 77
2, 428374, Control_c, 0, 64, 76
2, 428393, Control_c, 0, 64, 76
2, 428412, Control_c, 0, 64, 75
2, 428432, Control_c, 0, 64, 75
2, 428450, Control_c, 0, 64, 73
2, 428468, Note_on_c, 0, 80, 63
2, 428469, Note_on_c, 0, 73, 0
2, 428470, Control_c, 0, 64, 68
2, 428486, Note_on_c, 0, 63, 56
2, 428489, Control_c, 0, 64, 60
2, 428509, Control_c, 0, 64, 41
2, 428527, Control_c, 0, 64, 22
2, 428547, Control_c, 0, 64, 0
2, 428572, Note_on_c, 0, 61, 0
2, 428642, Control_c, 0, 64, 34
2, 428661, Control_c, 0, 64, 53
2, 428680, Control_c, 0, 64, 60
2, 428700, Control_c, 0, 64, 63
2, 428719, Control_c, 0, 64, 64
2, 428738, Control_c, 0, 64, 65
2, 428757, Control_c, 0, 64, 66
2, 428777, Control_c, 0, 64, 68
2, 428795, Control_c, 0, 64, 69
2, 428814, Control_c, 0, 64, 70
2, 428834, Control_c, 0, 64, 71
2, 428853, Control_c, 0, 64, 72
2, 428872, Control_c, 0, 64, 72
2, 428891, Control_c, 0, 64, 73
2, 428908, Note_on_c, 0, 65, 30
2, 428911, Control_c, 0, 64, 73
2, 428930, Control_c, 0, 64, 74
2, 428949, Control_c, 0, 64, 74
2, 429026, Control_c, 0, 64, 74
2, 429160, Control_c, 0, 64, 73
2, 429199, Control_c, 0, 64, 73
2, 429213, Note_on_c, 0, 65, 0
2, 429218, Control_c, 0, 64, 72
2, 429257, Control_c, 0, 64, 72
2, 429275, Control_c, 0, 64, 69
2, 429282, Note_on_c, 0, 75, 52
2, 429293, Note_on_c, 0, 67, 40
2, 429294, Control_c, 0, 64, 64
2, 429297, Note_on_c, 0, 59, 47
2, 429314, Control_c, 0, 64, 50
2, 429317, Note_on_c, 0, 63, 0
2, 429333, Control_c, 0, 64, 17
2, 429352, Control_c, 0, 64, 0
2, 429410, Control_c, 0, 64, 17
2, 429423, Note_on_c, 0, 80, 0
2, 429429, Control_c, 0, 64, 46
2, 429448, Control_c, 0, 64, 59
2, 429468, Control_c, 0, 64, 63
2, 429486, Control_c, 0, 64, 64
2, 429506, Control_c, 0, 64, 65
2, 429525, Control_c, 0, 64, 65
2, 429545, Control_c, 0, 64, 66
2, 429563, Control_c, 0, 64, 67
2, 429583, Control_c, 0, 64, 68
2, 429621, Control_c, 0, 64, 69
2, 429660, Control_c, 0, 64, 69
2, 429677, Note_on_c, 0, 68, 35
2, 429679, Control_c, 0, 64, 70
2, 429698, Control_c, 0, 64, 71
2, 429717, Control_c, 0, 64, 71
2, 429832, Control_c, 0, 64, 71
2, 429986, Control_c, 0, 64, 70
2, 430005, Control_c, 0, 64, 70
2, 430025, Control_c, 0, 64, 68
2, 430041, Note_on_c, 0, 68, 0
2, 430043, Control_c, 0, 64, 64
2, 430063, Control_c, 0, 64, 57
2, 430077, Note_on_c, 0, 70, 44
2, 430082, Control_c, 0, 64, 48
2, 430094, Note_on_c, 0, 58, 30
2, 430101, Control_c, 0, 64, 44
2, 430120, Control_c, 0, 64, 44
2, 430140, Control_c, 0, 64, 44
2, 430159, Control_c, 0, 64, 45
2, 430165, Note_on_c, 0, 59, 0
2, 430178, Control_c, 0, 64, 46
2, 430196, Note_on_c, 0, 70, 0
2, 430197, Control_c, 0, 64, 47
2, 430217, Control_c, 0, 64, 49
2, 430235, Control_c, 0, 64, 50
2, 430254, Control_c, 0, 64, 51
2, 430255, Note_on_c, 0, 71, 45
2, 430274, Control_c, 0, 64, 51
2, 430293, Control_c, 0, 64, 52
2, 430312, Control_c, 0, 64, 52
2, 430409, Note_on_c, 0, 71, 0
2, 430445, Note_on_c, 0, 75, 0
2, 430458, Note_on_c, 0, 77, 42
2, 430467, Note_on_c, 0, 73, 37
2, 430581, Control_c, 0, 64, 52
2, 430600, Control_c, 0, 64, 51
2, 430639, Control_c, 0, 64, 51
2, 430658, Control_c, 0, 64, 50
2, 430754, Control_c, 0, 64, 50
2, 430773, Control_c, 0, 64, 49
2, 430792, Control_c, 0, 64, 48
2, 430811, Control_c, 0, 64, 48
2, 430831, Control_c, 0, 64, 47
2, 430832, Note_on_c, 0, 77, 0
2, 430850, Control_c, 0, 64, 46
2, 430867, Note_on_c, 0, 79, 42
2, 430946, Control_c, 0, 64, 47
2, 430965, Control_c, 0, 64, 48
2, 430985, Control_c, 0, 64, 52
2, 431003, Control_c, 0, 64, 55
2, 431023, Control_c, 0, 64, 59
2, 431042, Control_c, 0, 64, 61
2, 431061, Control_c, 0, 64, 63
2, 431080, Control_c, 0, 64, 64
2, 431100, Control_c, 0, 64, 65
2, 431119, Control_c, 0, 64, 66
2, 431138, Control_c, 0, 64, 67
2, 431157, Control_c, 0, 64, 67
2, 431177, Control_c, 0, 64, 68
2, 431195, Control_c, 0, 64, 69
2, 431214, Control_c, 0, 64, 70
2, 431234, Control_c, 0, 64, 71
2, 431247, Note_on_c, 0, 73, 0
2, 431253, Control_c, 0, 64, 72
2, 431272, Control_c, 0, 64, 72
2, 431279, Note_on_c, 0, 67, 0
2, 431286, Note_on_c, 0, 71, 27
2, 431311, Control_c, 0, 64, 73
2, 431371, Note_on_c, 0, 71, 0
2, 431495, Note_on_c, 0, 79, 0
2, 431510, Note_on_c, 0, 58, 0
2, 431559, Control_c, 0, 64, 72
2, 431636, Control_c, 0, 64, 72
2, 431675, Control_c, 0, 64, 71
2, 431693, Control_c, 0, 64, 70
2, 431703, Note_on_c, 0, 80, 40
2, 431713, Control_c, 0, 64, 67
2, 431732, Control_c, 0, 64, 62
2, 431734, Note_on_c, 0, 71, 21
2, 431750, Note_on_c, 0, 56, 29
2, 431751, Control_c, 0, 64, 51
2, 431770, Control_c, 0, 64, 42
2, 431790, Control_c, 0, 64, 37
2, 431809, Control_c, 0, 64, 37
2, 431828, Control_c, 0, 64, 44
2, 431847, Control_c, 0, 64, 53
2, 431867, Control_c, 0, 64, 60
2, 431885, Control_c, 0, 64, 63
2, 431905, Control_c, 0, 64, 64
2, 431924, Control_c, 0, 64, 65
2, 431944, Control_c, 0, 64, 66
2, 431962, Control_c, 0, 64, 68
2, 431982, Control_c, 0, 64, 69
2, 432001, Control_c, 0, 64, 71
2, 432020, Control_c, 0, 64, 71
2, 432039, Control_c, 0, 64, 72
2, 432069, Note_on_c, 0, 80, 0
2, 432078, Control_c, 0, 64, 73
2, 432116, Control_c, 0, 64, 73
2, 432123, Note_on_c, 0, 82, 39
2, 432155, Control_c, 0, 64, 74
2, 432231, Control_c, 0, 64, 73
2, 432442, Control_c, 0, 64, 73
2, 432500, Control_c, 0, 64, 72
2, 432519, Control_c, 0, 64, 70
2, 432532, Note_on_c, 0, 80, 44
2, 432535, Note_on_c, 0, 61, 32
2, 432539, Control_c, 0, 64, 64
2, 432558, Control_c, 0, 64, 55
2, 432576, Control_c, 0, 64, 46
2, 432581, Note_on_c, 0, 82, 0
2, 432596, Control_c, 0, 64, 44
2, 432615, Control_c, 0, 64, 45
2, 432635, Control_c, 0, 64, 51
2, 432653, Control_c, 0, 64, 58
2, 432673, Control_c, 0, 64, 62
2, 432692, Control_c, 0, 64, 64
2, 432711, Control_c, 0, 64, 66
2, 432730, Control_c, 0, 64, 67
2, 432750, Control_c, 0, 64, 69
2, 432769, Control_c, 0, 64, 71
2, 432788, Control_c, 0, 64, 72
2, 432807, Control_c, 0, 64, 72
2, 432899, Note_on_c, 0, 56, 0
2, 432904, Control_c, 0, 64, 73
2, 432922, Control_c, 0, 64, 73
2, 432935, Note_on_c, 0, 78, 39
2, 432942, Control_c, 0, 64, 74
2, 432961, Control_c, 0, 64, 74
2, 432989, Note_on_c, 0, 80, 0
2, 433019, Control_c, 0, 64, 74
2, 433020, Note_on_c, 0, 71, 0
2, 433230, Control_c, 0, 64, 73
2, 433384, Control_c, 0, 64, 73
2, 433396, Note_on_c, 0, 77, 38
2, 433397, Note_on_c, 0, 68, 51
2, 433402, Control_c, 0, 64, 69
2, 433410, Note_on_c, 0, 78, 0
2, 433422, Control_c, 0, 64, 63
2, 433442, Control_c, 0, 64, 52
2, 433461, Control_c, 0, 64, 35
2, 433467, Note_on_c, 0, 61, 0
2, 433480, Control_c, 0, 64, 20
2, 433500, Control_c, 0, 64, 0
2, 433538, Control_c, 0, 64, 17
2, 433557, Control_c, 0, 64, 36
2, 433576, Control_c, 0, 64, 51
2, 433595, Control_c, 0, 64, 60
2, 433614, Control_c, 0, 64, 62
2, 433634, Control_c, 0, 64, 63
2, 433653, Control_c, 0, 64, 64
2, 433672, Control_c, 0, 64, 65
2, 433691, Control_c, 0, 64, 66
2, 433711, Control_c, 0, 64, 67
2, 433730, Control_c, 0, 64, 69
2, 433749, Control_c, 0, 64, 71
2, 433768, Control_c, 0, 64, 72
2, 433788, Control_c, 0, 64, 73
2, 433806, Control_c, 0, 64, 73
2, 433846, Note_on_c, 0, 78, 33
2, 433865, Control_c, 0, 64, 74
2, 433876, Note_on_c, 0, 63, 23
2, 433883, Control_c, 0, 64, 74
2, 433898, Note_on_c, 0, 77, 0
2, 433903, Control_c, 0, 64, 75
2, 433960, Control_c, 0, 64, 75
2, 433980, Control_c, 0, 64, 76
2, 434018, Control_c, 0, 64, 76
2, 434233, Note_on_c, 0, 80, 48
2, 434239, Note_on_c, 0, 68, 0
2, 434270, Note_on_c, 0, 61, 24
2, 434276, Note_on_c, 0, 78, 0
2, 434334, Note_on_c, 0, 63, 0
2, 434345, Control_c, 0, 64, 77
2, 434383, Control_c, 0, 64, 77
2, 434420, Control_c, 0, 64, 78
2, 434439, Control_c, 0, 64, 78
2, 434662, Note_on_c, 0, 59, 31
2, 434698, Note_on_c, 0, 61, 0
2, 434708, Control_c, 0, 64, 78
2, 434900, Control_c, 0, 64, 77
2, 434996, Control_c, 0, 64, 77
2, 435035, Control_c, 0, 64, 76
2, 435052, Note_on_c, 0, 73, 57
2, 435053, Control_c, 0, 64, 74
2, 435073, Control_c, 0, 64, 68
2, 435092, Control_c, 0, 64, 61
2, 435110, Note_on_c, 0, 59, 0
2, 435111, Control_c, 0, 64, 49
2, 435116, Note_on_c, 0, 80, 0
2, 435123, Note_on_c, 0, 58, 35
2, 435130, Control_c, 0, 64, 44
2, 435150, Control_c, 0, 64, 40
2, 435169, Control_c, 0, 64, 40
2, 435188, Control_c, 0, 64, 42
2, 435207, Control_c, 0, 64, 46
2, 435227, Control_c, 0, 64, 52
2, 435245, Control_c, 0, 64, 58
2, 435265, Control_c, 0, 64, 61
2, 435284, Control_c, 0, 64, 62
2, 435304, Control_c, 0, 64, 63
2, 435322, Control_c, 0, 64, 64
2, 435342, Control_c, 0, 64, 65
2, 435361, Control_c, 0, 64, 66
2, 435380, Control_c, 0, 64, 66
2, 435399, Control_c, 0, 64, 67
2, 435419, Control_c, 0, 64, 67
2, 435438, Control_c, 0, 64, 68
2, 435456, Control_c, 0, 64, 69
2, 435476, Control_c, 0, 64, 69
2, 435483, Note_on_c, 0, 78, 38
2, 435492, Note_on_c, 0, 58, 0
2, 435495, Note_on_c, 0, 59, 31
2, 435707, Control_c, 0, 64, 69
2, 435764, Control_c, 0, 64, 68
2, 435860, Control_c, 0, 64, 68
2, 435898, Note_on_c, 0, 78, 0
2, 435899, Control_c, 0, 64, 66
2, 435899, Note_on_c, 0, 77, 34
2, 435918, Control_c, 0, 64, 64
2, 435918, Note_on_c, 0, 61, 32
2, 435936, Control_c, 0, 64, 57
2, 435947, Note_on_c, 0, 59, 0
2, 435956, Control_c, 0, 64, 48
2, 435975, Control_c, 0, 64, 41
2, 435995, Control_c, 0, 64, 39
2, 436013, Control_c, 0, 64, 40
2, 436033, Control_c, 0, 64, 46
2, 436052, Control_c, 0, 64, 55
2, 436071, Control_c, 0, 64, 61
2, 436090, Control_c, 0, 64, 63
2, 436110, Control_c, 0, 64, 64
2, 436129, Control_c, 0, 64, 65
2, 436148, Control_c, 0, 64, 65
2, 436167, Control_c, 0, 64, 66
2, 436187, Control_c, 0, 64, 67
2, 436205, Control_c, 0, 64, 68
2, 436225, Control_c, 0, 64, 68
2, 436243, Note_on_c, 0, 77, 0
2, 436244, Control_c, 0, 64, 69
2, 436264, Control_c, 0, 64, 69
2, 436302, Control_c, 0, 64, 70
2, 436308, Note_on_c, 0, 78, 39
2, 436340, Control_c, 0, 64, 70
2, 436416, Note_on_c, 0, 78, 0
2, 436473, Note_on_c, 0, 80, 41
2, 436570, Control_c, 0, 64, 70
2, 436648, Note_on_c, 0, 80, 0
2, 436685, Control_c, 0, 64, 69
2, 436688, Note_on_c, 0, 54, 22
2, 436689, Note_on_c, 0, 82, 44
2, 436703, Note_on_c, 0, 61, 0
2, 436705, Control_c, 0, 64, 66
2, 436724, Control_c, 0, 64, 61
2, 436744, Control_c, 0, 64, 54
2, 436762, Control_c, 0, 64, 50
2, 436801, Control_c, 0, 64, 52
2, 436820, Control_c, 0, 64, 56
2, 436828, Note_on_c, 0, 82, 0
2, 436839, Control_c, 0, 64, 60
2, 436859, Control_c, 0, 64, 62
2, 436870, Note_on_c, 0, 80, 37
2, 436878, Control_c, 0, 64, 64
2, 436896, Control_c, 0, 64, 65
2, 436916, Control_c, 0, 64, 66
2, 436935, Control_c, 0, 64, 67
2, 436955, Control_c, 0, 64, 68
2, 436973, Control_c, 0, 64, 68
2, 436993, Control_c, 0, 64, 69
2, 437031, Control_c, 0, 64, 70
2, 437039, Note_on_c, 0, 80, 0
2, 437073, Note_on_c, 0, 82, 46
2, 437089, Control_c, 0, 64, 71
2, 437108, Control_c, 0, 64, 72
2, 437127, Control_c, 0, 64, 73
2, 437147, Control_c, 0, 64, 73
2, 437165, Control_c, 0, 64, 74
2, 437453, Control_c, 0, 64, 73
2, 437460, Note_on_c, 0, 75, 55
2, 437461, Note_on_c, 0, 59, 35
2, 437473, Control_c, 0, 64, 70
2, 437492, Control_c, 0, 64, 64
2, 437500, Note_on_c, 0, 54, 0
2, 437511, Control_c, 0, 64, 57
2, 437530, Control_c, 0, 64, 53
2, 437542, Note_on_c, 0, 73, 0
2, 437550, Control_c, 0, 64, 53
2, 437569, Control_c, 0, 64, 55
2, 437583, Note_on_c, 0, 82, 0
2, 437588, Control_c, 0, 64, 59
2, 437607, Control_c, 0, 64, 62
2, 437627, Control_c, 0, 64, 64
2, 437645, Control_c, 0, 64, 66
2, 437665, Control_c, 0, 64, 67
2, 437684, Control_c, 0, 64, 69
2, 437704, Control_c, 0, 64, 70
2, 437722, Control_c, 0, 64, 72
2, 437742, Control_c, 0, 64, 73
2, 437761, Control_c, 0, 64, 73
2, 437838, Control_c, 0, 64, 74
2, 437852, Note_on_c, 0, 75, 0
2, 437876, Control_c, 0, 64, 74
2, 437880, Note_on_c, 0, 80, 37
2, 437895, Control_c, 0, 64, 75
2, 437915, Control_c, 0, 64, 75
2, 437933, Control_c, 0, 64, 76
2, 438020, Note_on_c, 0, 78, 41
2, 438107, Control_c, 0, 64, 76
2, 438145, Control_c, 0, 64, 77
2, 438202, Control_c, 0, 64, 76
2, 438222, Control_c, 0, 64, 74
2, 438242, Control_c, 0, 64, 68
2, 438249, Note_on_c, 0, 73, 60
2, 438261, Control_c, 0, 64, 62
2, 438261, Note_on_c, 0, 78, 0
2, 438269, Note_on_c, 0, 80, 0
2, 438278, Note_on_c, 0, 77, 54
2, 438280, Control_c, 0, 64, 54
2, 438300, Control_c, 0, 64, 53
2, 438319, Control_c, 0, 64, 54
2, 438337, Control_c, 0, 64, 58
2, 438357, Control_c, 0, 64, 61
2, 438376, Control_c, 0, 64, 63
2, 438395, Control_c, 0, 64, 65
2, 438414, Control_c, 0, 64, 67
2, 438434, Control_c, 0, 64, 68
2, 438445, Note_on_c, 0, 77, 0
2, 438453, Control_c, 0, 64, 69
2, 438472, Control_c, 0, 64, 70
2, 438491, Control_c, 0, 64, 71
2, 438511, Control_c, 0, 64, 72
2, 438530, Control_c, 0, 64, 72
2, 438588, Control_c, 0, 64, 73
2, 438643, Note_on_c, 0, 78, 46
2, 438645, Control_c, 0, 64, 73
2, 438655, Note_on_c, 0, 58, 26
2, 438665, Note_on_c, 0, 59, 0
2, 438683, Control_c, 0, 64, 74
2, 438914, Control_c, 0, 64, 73
2, 438971, Control_c, 0, 64, 73
2, 439010, Control_c, 0, 64, 72
2, 439029, Control_c, 0, 64, 71
2, 439048, Control_c, 0, 64, 66
2, 439051, Note_on_c, 0, 71, 48
2, 439068, Control_c, 0, 64, 59
2, 439069, Note_on_c, 0, 73, 0
2, 439086, Control_c, 0, 64, 46
2, 439101, Note_on_c, 0, 56, 28
2, 439106, Control_c, 0, 64, 34
2, 439125, Control_c, 0, 64, 28
2, 439130, Note_on_c, 0, 58, 0
2, 439142, Note_on_c, 0, 78, 0
2, 439163, Control_c, 0, 64, 32
2, 439183, Control_c, 0, 64, 41
2, 439200, Control_c, 0, 64, 51
2, 439220, Control_c, 0, 64, 58
2, 439238, Control_c, 0, 64, 62
2, 439257, Control_c, 0, 64, 63
2, 439277, Control_c, 0, 64, 64
2, 439295, Control_c, 0, 64, 65
2, 439315, Control_c, 0, 64, 66
2, 439334, Control_c, 0, 64, 67
2, 439354, Control_c, 0, 64, 68
2, 439372, Control_c, 0, 64, 68
2, 439392, Control_c, 0, 64, 69
2, 439411, Control_c, 0, 64, 69
2, 439430, Control_c, 0, 64, 70
2, 439441, Note_on_c, 0, 77, 39
2, 439449, Control_c, 0, 64, 71
2, 439469, Control_c, 0, 64, 71
2, 439488, Control_c, 0, 64, 72
2, 439775, Control_c, 0, 64, 72
2, 439814, Control_c, 0, 64, 71
2, 439834, Control_c, 0, 64, 69
2, 439834, Note_on_c, 0, 71, 0
2, 439852, Control_c, 0, 64, 63
2, 439863, Note_on_c, 0, 70, 50
2, 439872, Control_c, 0, 64, 55
2, 439872, Note_on_c, 0, 54, 25
2, 439873, Note_on_c, 0, 77, 0
2, 439882, Note_on_c, 0, 78, 38
2, 439891, Control_c, 0, 64, 45
2, 439910, Control_c, 0, 64, 40
2, 439923, Note_on_c, 0, 56, 0
2, 439929, Control_c, 0, 64, 39
2, 439949, Control_c, 0, 64, 44
2, 439968, Control_c, 0, 64, 53
2, 439987, Control_c, 0, 64, 60
2, 440006, Control_c, 0, 64, 63
2, 440026, Control_c, 0, 64, 65
2, 440045, Control_c, 0, 64, 66
2, 440064, Control_c, 0, 64, 67
2, 440083, Control_c, 0, 64, 69
2, 440103, Control_c, 0, 64, 71
2, 440121, Control_c, 0, 64, 72
2, 440141, Control_c, 0, 64, 72
2, 440190, Note_on_c, 0, 54, 0
2, 440238, Control_c, 0, 64, 73
2, 440247, Note_on_c, 0, 52, 33
2, 440254, Note_on_c, 0, 73, 48
2, 440256, Control_c, 0, 64, 74
2, 440276, Control_c, 0, 64, 74
2, 440281, Note_on_c, 0, 78, 0
2, 440292, Note_on_c, 0, 70, 0
2, 440333, Control_c, 0, 64, 74
2, 440391, Control_c, 0, 64, 73
2, 440507, Control_c, 0, 64, 73
2, 440525, Control_c, 0, 64, 72
2, 440564, Control_c, 0, 64, 72
2, 440584, Control_c, 0, 64, 71
2, 440602, Control_c, 0, 64, 71
2, 440622, Control_c, 0, 64, 68
2, 440641, Control_c, 0, 64, 64
2, 440648, Note_on_c, 0, 52, 0
2, 440649, Note_on_c, 0, 73, 0
2, 440659, Note_on_c, 0, 71, 53
2, 440661, Control_c, 0, 64, 55
2, 440679, Control_c, 0, 64, 46
2, 440684, Note_on_c, 0, 78, 40
2, 440687, Note_on_c, 0, 51, 30
2, 440699, Control_c, 0, 64, 39
2, 440718, Control_c, 0, 64, 37
2, 440736, Control_c, 0, 64, 37
2, 440756, Control_c, 0, 64, 44
2, 440775, Control_c, 0, 64, 53
2, 440795, Control_c, 0, 64, 60
2, 440796, Note_on_c, 0, 51, 0
2, 440813, Control_c, 0, 64, 63
2, 440833, Control_c, 0, 64, 64
2, 440852, Control_c, 0, 64, 65
2, 440857, Note_on_c, 0, 49, 44
2, 440871, Control_c, 0, 64, 66
2, 440890, Control_c, 0, 64, 67
2, 440910, Control_c, 0, 64, 68
2, 440929, Control_c, 0, 64, 69
2, 440967, Control_c, 0, 64, 70
2, 440975, Note_on_c, 0, 49, 0
2, 441035, Note_on_c, 0, 51, 27
2, 441046, Control_c, 0, 64, 70
2, 441104, Control_c, 0, 64, 71
2, 441122, Note_on_c, 0, 51, 0
2, 441160, Control_c, 0, 64, 70
2, 441197, Note_on_c, 0, 52, 36
2, 441294, Control_c, 0, 64, 70
2, 441333, Control_c, 0, 64, 69
2, 441352, Control_c, 0, 64, 68
2, 441371, Control_c, 0, 64, 67
2, 441391, Control_c, 0, 64, 66
2, 441410, Control_c, 0, 64, 65
2, 441429, Control_c, 0, 64, 63
2, 441434, Note_on_c, 0, 73, 59
2, 441448, Control_c, 0, 64, 62
2, 441452, Note_on_c, 0, 46, 36
2, 441452, Note_on_c, 0, 52, 0
2, 441468, Control_c, 0, 64, 61
2, 441478, Note_on_c, 0, 71, 0
2, 441486, Control_c, 0, 64, 60
2, 441505, Note_on_c, 0, 78, 0
2, 441506, Control_c, 0, 64, 59
2, 441525, Control_c, 0, 64, 58
2, 441545, Control_c, 0, 64, 56
2, 441563, Control_c, 0, 64, 55
2, 441583, Control_c, 0, 64, 54
2, 441660, Control_c, 0, 64, 55
2, 441717, Control_c, 0, 64, 55
2, 441736, Control_c, 0, 64, 56
2, 441848, Note_on_c, 0, 42, 28
2, 441851, Control_c, 0, 64, 56
2, 441861, Note_on_c, 0, 80, 49
2, 441862, Note_on_c, 0, 46, 0
2, 441989, Control_c, 0, 64, 56
2, 442196, Control_c, 0, 64, 57
2, 442215, Control_c, 0, 64, 58
2, 442235, Control_c, 0, 64, 60
2, 442249, Note_on_c, 0, 78, 44
2, 442253, Control_c, 0, 64, 61
2, 442262, Note_on_c, 0, 80, 0
2, 442273, Control_c, 0, 64, 63
2, 442273, Note_on_c, 0, 44, 35
2, 442292, Control_c, 0, 64, 64
2, 442311, Control_c, 0, 64, 64
2, 442350, Control_c, 0, 64, 65
2, 442387, Note_on_c, 0, 42, 0
2, 442427, Control_c, 0, 64, 65
2, 442484, Control_c, 0, 64, 66
2, 442542, Control_c, 0, 64, 66
2, 442581, Control_c, 0, 64, 67
2, 442614, Note_on_c, 0, 76, 48
2, 442620, Note_on_c, 0, 78, 0
2, 442660, Note_on_c, 0, 46, 28
2, 442670, Note_on_c, 0, 44, 0
2, 442676, Control_c, 0, 64, 67
2, 442810, Control_c, 0, 64, 67
2, 443041, Control_c, 0, 64, 66
2, 443044, Note_on_c, 0, 66, 54
2, 443049, Note_on_c, 0, 46, 0
2, 443049, Note_on_c, 0, 73, 0
2, 443061, Control_c, 0, 64, 66
2, 443075, Note_on_c, 0, 76, 0
2, 443076, Note_on_c, 0, 47, 35
2, 443079, Control_c, 0, 64, 64
2, 443098, Control_c, 0, 64, 61
2, 443118, Control_c, 0, 64, 55
2, 443120, Note_on_c, 0, 75, 35
2, 443136, Control_c, 0, 64, 47
2, 443156, Control_c, 0, 64, 39
2, 443175, Control_c, 0, 64, 34
2, 443195, Control_c, 0, 64, 33
2, 443233, Control_c, 0, 64, 37
2, 443252, Control_c, 0, 64, 43
2, 443271, Control_c, 0, 64, 48
2, 443290, Control_c, 0, 64, 52
2, 443310, Control_c, 0, 64, 55
2, 443329, Control_c, 0, 64, 57
2, 443348, Control_c, 0, 64, 59
2, 443367, Control_c, 0, 64, 61
2, 443387, Control_c, 0, 64, 61
2, 443405, Control_c, 0, 64, 62
2, 443424, Note_on_c, 0, 76, 47
2, 443433, Note_on_c, 0, 49, 40
2, 443444, Control_c, 0, 64, 62
2, 443448, Note_on_c, 0, 47, 0
2, 443464, Control_c, 0, 64, 63
2, 443467, Note_on_c, 0, 75, 0
2, 443482, Control_c, 0, 64, 63
2, 443502, Control_c, 0, 64, 64
2, 443541, Control_c, 0, 64, 64
2, 443616, Control_c, 0, 64, 65
2, 443693, Control_c, 0, 64, 65
2, 443839, Note_on_c, 0, 78, 51
2, 443843, Note_on_c, 0, 51, 34
2, 443853, Note_on_c, 0, 49, 0
2, 443856, Note_on_c, 0, 76, 0
2, 443867, Control_c, 0, 64, 65
2, 443885, Control_c, 0, 64, 62
2, 443905, Control_c, 0, 64, 59
2, 443924, Control_c, 0, 64, 54
2, 443944, Control_c, 0, 64, 53
2, 443962, Control_c, 0, 64, 54
2, 443982, Control_c, 0, 64, 56
2, 444001, Control_c, 0, 64, 58
2, 444021, Control_c, 0, 64, 61
2, 444039, Control_c, 0, 64, 62
2, 444058, Control_c, 0, 64, 64
2, 444078, Control_c, 0, 64, 64
2, 444096, Control_c, 0, 64, 65
2, 444116, Control_c, 0, 64, 66
2, 444135, Control_c, 0, 64, 66
2, 444192, Note_on_c, 0, 51, 0
2, 444228, Note_on_c, 0, 52, 39
2, 444250, Control_c, 0, 64, 67
2, 444380, Note_on_c, 0, 52, 0
2, 444397, Note_on_c, 0, 54, 49
2, 444442, Control_c, 0, 64, 66
2, 444596, Control_c, 0, 64, 66
2, 444615, Control_c, 0, 64, 64
2, 444620, Note_on_c, 0, 71, 60
2, 444626, Note_on_c, 0, 54, 0
2, 444635, Control_c, 0, 64, 62
2, 444649, Note_on_c, 0, 56, 43
2, 444653, Control_c, 0, 64, 56
2, 444670, Note_on_c, 0, 66, 0
2, 444670, Note_on_c, 0, 78, 0
2, 444673, Control_c, 0, 64, 46
2, 444692, Control_c, 0, 64, 32
2, 444711, Control_c, 0, 64, 9
2, 444730, Control_c, 0, 64, 0
2, 444788, Control_c, 0, 64, 31
2, 444807, Control_c, 0, 64, 49
2, 444827, Control_c, 0, 64, 59
2, 444845, Control_c, 0, 64, 62
2, 444868, Control_c, 0, 64, 64
2, 444887, Control_c, 0, 64, 64
2, 444906, Control_c, 0, 64, 65
2, 444925, Control_c, 0, 64, 66
2, 444945, Control_c, 0, 64, 67
2, 444959, Note_on_c, 0, 56, 0
2, 444961, Control_c, 0, 64, 67
2, 444999, Control_c, 0, 64, 68
2, 445005, Note_on_c, 0, 58, 33
2, 445076, Control_c, 0, 64, 68
2, 445102, Note_on_c, 0, 58, 0
2, 445173, Note_on_c, 0, 59, 37
2, 445364, Control_c, 0, 64, 68
2, 445384, Control_c, 0, 64, 67
2, 445402, Control_c, 0, 64, 65
2, 445407, Note_on_c, 0, 76, 45
2, 445412, Note_on_c, 0, 59, 0
2, 445422, Control_c, 0, 64, 60
2, 445441, Control_c, 0, 64, 48
2, 445452, Note_on_c, 0, 49, 38
2, 445461, Control_c, 0, 64, 38
2, 445479, Control_c, 0, 64, 30
2, 445498, Control_c, 0, 64, 27
2, 445556, Control_c, 0, 64, 30
2, 445575, Control_c, 0, 64, 37
2, 445595, Control_c, 0, 64, 44
2, 445613, Control_c, 0, 64, 51
2, 445633, Control_c, 0, 64, 56
2, 445652, Control_c, 0, 64, 58
2, 445690, Control_c, 0, 64, 57
2, 445789, Note_on_c, 0, 49, 0
2, 445809, Note_on_c, 0, 51, 31
2, 445981, Note_on_c, 0, 51, 0
2, 446028, Note_on_c, 0, 52, 28
2, 446055, Control_c, 0, 64, 57
2, 446240, Note_on_c, 0, 42, 34
2, 446241, Note_on_c, 0, 52, 0
2, 446247, Control_c, 0, 64, 57
2, 446267, Control_c, 0, 64, 58
2, 446285, Control_c, 0, 64, 59
2, 446305, Control_c, 0, 64, 60
2, 446324, Control_c, 0, 64, 61
2, 446344, Control_c, 0, 64, 62
2, 446362, Control_c, 0, 64, 62
2, 446382, Control_c, 0, 64, 63
2, 446401, Control_c, 0, 64, 64
2, 446421, Control_c, 0, 64, 64
2, 446439, Control_c, 0, 64, 65
2, 446458, Control_c, 0, 64, 65
2, 446478, Control_c, 0, 64, 66
2, 446496, Control_c, 0, 64, 67
2, 446516, Control_c, 0, 64, 68
2, 446535, Control_c, 0, 64, 68
2, 446573, Control_c, 0, 64, 69
2, 446593, Control_c, 0, 64, 69
2, 446631, Control_c, 0, 64, 70
2, 446650, Control_c, 0, 64, 70
2, 446712, Note_on_c, 0, 75, 38
2, 446722, Note_on_c, 0, 54, 22
2, 446727, Control_c, 0, 64, 71
2, 446737, Note_on_c, 0, 42, 0
2, 446760, Note_on_c, 0, 71, 0
2, 446861, Control_c, 0, 64, 70
2, 446918, Control_c, 0, 64, 70
2, 446975, Control_c, 0, 64, 69
2, 446995, Control_c, 0, 64, 69
2, 447034, Control_c, 0, 64, 68
2, 447052, Control_c, 0, 64, 68
2, 447067, Note_on_c, 0, 76, 0
2, 447072, Control_c, 0, 64, 66
2, 447091, Control_c, 0, 64, 62
2, 447110, Control_c, 0, 64, 56
2, 447112, Note_on_c, 0, 73, 44
2, 447115, Note_on_c, 0, 70, 38
2, 447129, Control_c, 0, 64, 48
2, 447149, Control_c, 0, 64, 42
2, 447168, Control_c, 0, 64, 41
2, 447191, Note_on_c, 0, 75, 0
2, 447206, Control_c, 0, 64, 46
2, 447226, Control_c, 0, 64, 55
2, 447245, Control_c, 0, 64, 61
2, 447264, Control_c, 0, 64, 63
2, 447283, Control_c, 0, 64, 64
2, 447303, Control_c, 0, 64, 65
2, 447321, Control_c, 0, 64, 66
2, 447341, Control_c, 0, 64, 67
2, 447360, Control_c, 0, 64, 68
2, 447398, Control_c, 0, 64, 69
2, 447433, Note_on_c, 0, 70, 0
2, 447456, Note_on_c, 0, 54, 0
2, 447530, Note_on_c, 0, 55, 31
2, 447532, Control_c, 0, 64, 68
2, 447571, Control_c, 0, 64, 68
2, 447609, Control_c, 0, 64, 67
2, 447667, Control_c, 0, 64, 67
2, 447725, Control_c, 0, 64, 66
2, 447764, Control_c, 0, 64, 66
2, 447802, Control_c, 0, 64, 65
2, 447822, Control_c, 0, 64, 65
2, 447841, Control_c, 0, 64, 64
2, 447861, Control_c, 0, 64, 64
2, 447879, Control_c, 0, 64, 62
2, 447893, Note_on_c, 0, 71, 45
2, 447898, Control_c, 0, 64, 60
2, 447916, Note_on_c, 0, 56, 23
2, 447917, Note_on_c, 0, 68, 33
2, 447918, Control_c, 0, 64, 54
2, 447936, Control_c, 0, 64, 49
2, 447952, Note_on_c, 0, 55, 0
2, 447956, Control_c, 0, 64, 44
2, 447966, Note_on_c, 0, 73, 0
2, 447975, Control_c, 0, 64, 42
2, 447995, Control_c, 0, 64, 42
2, 448052, Control_c, 0, 64, 45
2, 448071, Control_c, 0, 64, 48
2, 448090, Control_c, 0, 64, 50
2, 448110, Control_c, 0, 64, 52
2, 448129, Control_c, 0, 64, 52
2, 448148, Control_c, 0, 64, 53
2, 448167, Control_c, 0, 64, 53
2, 448187, Control_c, 0, 64, 54
2, 448225, Control_c, 0, 64, 54
2, 448244, Control_c, 0, 64, 55
2, 448321, Control_c, 0, 64, 55
2, 448339, Note_on_c, 0, 55, 35
2, 448359, Note_on_c, 0, 56, 0
2, 448493, Control_c, 0, 64, 56
2, 448647, Control_c, 0, 64, 55
2, 448667, Control_c, 0, 64, 55
2, 448685, Control_c, 0, 64, 53
2, 448701, Note_on_c, 0, 76, 58
2, 448705, Control_c, 0, 64, 51
2, 448724, Control_c, 0, 64, 48
2, 448735, Note_on_c, 0, 55, 0
2, 448735, Note_on_c, 0, 56, 37
2, 448744, Control_c, 0, 64, 46
2, 448762, Control_c, 0, 64, 45
2, 448782, Control_c, 0, 64, 44
2, 448839, Control_c, 0, 64, 45
2, 448858, Control_c, 0, 64, 47
2, 448878, Control_c, 0, 64, 50
2, 448896, Control_c, 0, 64, 52
2, 448916, Control_c, 0, 64, 54
2, 448935, Control_c, 0, 64, 56
2, 448955, Control_c, 0, 64, 58
2, 448973, Control_c, 0, 64, 60
2, 448993, Control_c, 0, 64, 61
2, 449012, Control_c, 0, 64, 62
2, 449031, Control_c, 0, 64, 62
2, 449050, Control_c, 0, 64, 63
2, 449070, Control_c, 0, 64, 64
2, 449089, Control_c, 0, 64, 65
2, 449108, Control_c, 0, 64, 65
2, 449127, Control_c, 0, 64, 66
2, 449134, Note_on_c, 0, 58, 31
2, 449166, Note_on_c, 0, 68, 0
2, 449188, Note_on_c, 0, 56, 0
2, 449453, Control_c, 0, 64, 65
2, 449473, Control_c, 0, 64, 64
2, 449492, Control_c, 0, 64, 61
2, 449496, Note_on_c, 0, 66, 54
2, 449510, Note_on_c, 0, 71, 0
2, 449511, Control_c, 0, 64, 54
2, 449530, Control_c, 0, 64, 46
2, 449535, Note_on_c, 0, 59, 32
2, 449550, Control_c, 0, 64, 43
2, 449557, Note_on_c, 0, 58, 0
2, 449569, Control_c, 0, 64, 43
2, 449588, Control_c, 0, 64, 47
2, 449607, Control_c, 0, 64, 53
2, 449627, Control_c, 0, 64, 59
2, 449645, Control_c, 0, 64, 61
2, 449665, Control_c, 0, 64, 63
2, 449681, Control_c, 0, 64, 64
2, 449701, Control_c, 0, 64, 64
2, 449720, Control_c, 0, 64, 65
2, 449738, Control_c, 0, 64, 66
2, 449758, Control_c, 0, 64, 66
2, 449815, Control_c, 0, 64, 67
2, 449835, Control_c, 0, 64, 67
2, 449854, Control_c, 0, 64, 68
2, 449873, Control_c, 0, 64, 68
2, 449875, Note_on_c, 0, 76, 0
2, 449885, Note_on_c, 0, 66, 0
2, 449892, Control_c, 0, 64, 69
2, 449907, Note_on_c, 0, 74, 50
2, 449912, Control_c, 0, 64, 69
2, 449918, Note_on_c, 0, 58, 38
2, 449930, Control_c, 0, 64, 70
2, 449942, Note_on_c, 0, 59, 0
2, 450046, Control_c, 0, 64, 69
2, 450142, Control_c, 0, 64, 69
2, 450181, Control_c, 0, 64, 68
2, 450218, Control_c, 0, 64, 68
2, 450257, Control_c, 0, 64, 67
2, 450276, Control_c, 0, 64, 64
2, 450295, Control_c, 0, 64, 59
2, 450315, Control_c, 0, 64, 49
2, 450317, Note_on_c, 0, 71, 62
2, 450321, Note_on_c, 0, 56, 37
2, 450333, Note_on_c, 0, 75, 50
2, 450334, Control_c, 0, 64, 39
2, 450353, Control_c, 0, 64, 28
2, 450366, Note_on_c, 0, 74, 0
2, 450372, Control_c, 0, 64, 17
2, 450388, Note_on_c, 0, 58, 0
2, 450392, Control_c, 0, 64, 0
2, 450469, Control_c, 0, 64, 13
2, 450487, Control_c, 0, 64, 22
2, 450507, Control_c, 0, 64, 32
2, 450526, Control_c, 0, 64, 44
2, 450546, Control_c, 0, 64, 51
2, 450564, Control_c, 0, 64, 56
2, 450584, Control_c, 0, 64, 58
2, 450603, Control_c, 0, 64, 59
2, 450629, Control_c, 0, 64, 61
2, 450648, Control_c, 0, 64, 62
2, 450667, Control_c, 0, 64, 63
2, 450686, Control_c, 0, 64, 64
2, 450706, Control_c, 0, 64, 64
2, 450725, Control_c, 0, 64, 65
2, 450739, Note_on_c, 0, 54, 39
2, 450744, Control_c, 0, 64, 66
2, 450747, Note_on_c, 0, 56, 0
2, 450840, Control_c, 0, 64, 66
2, 450935, Control_c, 0, 64, 67
2, 451032, Control_c, 0, 64, 65
2, 451051, Control_c, 0, 64, 61
2, 451070, Control_c, 0, 64, 55
2, 451089, Control_c, 0, 64, 51
2, 451109, Control_c, 0, 64, 51
2, 451112, Note_on_c, 0, 53, 52
2, 451128, Control_c, 0, 64, 54
2, 451136, Note_on_c, 0, 54, 0
2, 451147, Control_c, 0, 64, 58
2, 451166, Control_c, 0, 64, 61
2, 451166, Note_on_c, 0, 75, 0
2, 451186, Control_c, 0, 64, 63
2, 451205, Control_c, 0, 64, 64
2, 451243, Control_c, 0, 64, 64
2, 451263, Control_c, 0, 64, 65
2, 451301, Control_c, 0, 64, 65
2, 451510, Note_on_c, 0, 54, 46
2, 451512, Note_on_c, 0, 53, 0
2, 451516, Note_on_c, 0, 75, 69
2, 451531, Control_c, 0, 64, 66
2, 451614, Note_on_c, 0, 71, 0
2, 451873, Control_c, 0, 64, 65
2, 451892, Control_c, 0, 64, 61
2, 451904, Note_on_c, 0, 80, 68
2, 451909, Note_on_c, 0, 73, 60
2, 451911, Control_c, 0, 64, 51
2, 451926, Note_on_c, 0, 53, 44
2, 451927, Note_on_c, 0, 54, 0
2, 451930, Control_c, 0, 64, 38
2, 451950, Control_c, 0, 64, 28
2, 451960, Note_on_c, 0, 75, 0
2, 451969, Control_c, 0, 64, 27
2, 451988, Control_c, 0, 64, 31
2, 452007, Control_c, 0, 64, 44
2, 452027, Control_c, 0, 64, 55
2, 452045, Control_c, 0, 64, 60
2, 452065, Control_c, 0, 64, 61
2, 452084, Control_c, 0, 64, 62
2, 452181, Control_c, 0, 64, 61
2, 452276, Note_on_c, 0, 51, 42
2, 452288, Note_on_c, 0, 53, 0
2, 452294, Note_on_c, 0, 71, 64
2, 452317, Note_on_c, 0, 73, 0
2, 452333, Control_c, 0, 64, 61
2, 452353, Control_c, 0, 64, 60
2, 452372, Control_c, 0, 64, 60
2, 452391, Control_c, 0, 64, 59
2, 452410, Control_c, 0, 64, 58
2, 452430, Control_c, 0, 64, 58
2, 452449, Control_c, 0, 64, 57
2, 452487, Control_c, 0, 64, 56
2, 452507, Control_c, 0, 64, 56
2, 452525, Control_c, 0, 64, 55
2, 452545, Control_c, 0, 64, 55
2, 452585, Control_c, 0, 64, 54
2, 452603, Control_c, 0, 64, 53
2, 452623, Control_c, 0, 64, 52
2, 452642, Control_c, 0, 64, 48
2, 452661, Control_c, 0, 64, 43
2, 452680, Control_c, 0, 64, 39
2, 452683, Note_on_c, 0, 70, 63
2, 452693, Note_on_c, 0, 71, 0
2, 452699, Control_c, 0, 64, 39
2, 452719, Control_c, 0, 64, 43
2, 452726, Note_on_c, 0, 50, 43
2, 452728, Note_on_c, 0, 51, 0
2, 452728, Note_on_c, 0, 80, 0
2, 452737, Control_c, 0, 64, 51
2, 452757, Control_c, 0, 64, 58
2, 452776, Control_c, 0, 64, 62
2, 452795, Control_c, 0, 64, 63
2, 452814, Control_c, 0, 64, 63
2, 452834, Control_c, 0, 64, 64
2, 452853, Control_c, 0, 64, 65
2, 452864, Note_on_c, 0, 50, 0
2, 452872, Control_c, 0, 64, 67
2, 452891, Control_c, 0, 64, 68
2, 452911, Control_c, 0, 64, 68
2, 452930, Control_c, 0, 64, 69
2, 453064, Note_on_c, 0, 80, 62
2, 453078, Note_on_c, 0, 70, 0
2, 453085, Note_on_c, 0, 71, 63
2, 453114, Note_on_c, 0, 62, 47
2, 453122, Control_c, 0, 64, 68
2, 453179, Control_c, 0, 64, 68
2, 453205, Note_on_c, 0, 80, 0
2, 453244, Note_on_c, 0, 62, 0
2, 453258, Note_on_c, 0, 63, 61
2, 453448, Control_c, 0, 64, 67
2, 453468, Control_c, 0, 64, 64
2, 453485, Note_on_c, 0, 73, 58
2, 453485, Note_on_c, 0, 79, 64
2, 453486, Control_c, 0, 64, 61
2, 453508, Note_on_c, 0, 63, 0
2, 453510, Control_c, 0, 64, 57
2, 453517, Note_on_c, 0, 64, 57
2, 453529, Control_c, 0, 64, 53
2, 453548, Control_c, 0, 64, 50
2, 453549, Note_on_c, 0, 71, 0
2, 453640, Control_c, 0, 64, 51
2, 453659, Control_c, 0, 64, 52
2, 453679, Control_c, 0, 64, 52
2, 453697, Control_c, 0, 64, 53
2, 453717, Control_c, 0, 64, 53
2, 453832, Control_c, 0, 64, 54
2, 453876, Note_on_c, 0, 78, 61
2, 453909, Control_c, 0, 64, 54
2, 453915, Note_on_c, 0, 58, 51
2, 453927, Note_on_c, 0, 79, 0
2, 453929, Note_on_c, 0, 64, 0
2, 454100, Control_c, 0, 64, 55
2, 454276, Note_on_c, 0, 68, 67
2, 454282, Note_on_c, 0, 59, 62
2, 454315, Note_on_c, 0, 73, 0
2, 454324, Note_on_c, 0, 58, 0
2, 454332, Note_on_c, 0, 78, 0
2, 454370, Control_c, 0, 64, 55
2, 454428, Control_c, 0, 64, 56
2, 454466, Control_c, 0, 64, 56
2, 454504, Control_c, 0, 64, 57
2, 454655, Note_on_c, 0, 78, 61
2, 454663, Note_on_c, 0, 60, 59
2, 454697, Note_on_c, 0, 59, 0
2, 454809, Control_c, 0, 64, 56
2, 455055, Note_on_c, 0, 77, 61
2, 455065, Note_on_c, 0, 73, 54
2, 455069, Note_on_c, 0, 60, 0
2, 455072, Note_on_c, 0, 61, 61
2, 455117, Control_c, 0, 64, 56
2, 455145, Note_on_c, 0, 68, 0
2, 455194, Control_c, 0, 64, 55
2, 455225, Note_on_c, 0, 78, 0
2, 455251, Control_c, 0, 64, 55
2, 455405, Control_c, 0, 64, 54
2, 455441, Note_on_c, 0, 76, 63
2, 455443, Control_c, 0, 64, 54
2, 455463, Control_c, 0, 64, 53
2, 455466, Note_on_c, 0, 58, 62
2, 455475, Note_on_c, 0, 77, 0
2, 455500, Control_c, 0, 64, 53
2, 455554, Note_on_c, 0, 61, 0
2, 455559, Control_c, 0, 64, 52
2, 455578, Control_c, 0, 64, 52
2, 455616, Control_c, 0, 64, 51
2, 455636, Control_c, 0, 64, 51
2, 455693, Control_c, 0, 64, 50
2, 455751, Control_c, 0, 64, 50
2, 455770, Control_c, 0, 64, 49
2, 455809, Control_c, 0, 64, 49
2, 455864, Note_on_c, 0, 75, 58
2, 455873, Note_on_c, 0, 55, 57
2, 455879, Note_on_c, 0, 76, 0
2, 455885, Control_c, 0, 64, 49
2, 455944, Control_c, 0, 64, 50
2, 455957, Note_on_c, 0, 58, 0
2, 455962, Control_c, 0, 64, 50
2, 456001, Control_c, 0, 64, 51
2, 456020, Control_c, 0, 64, 51
2, 456031, Note_on_c, 0, 73, 0
2, 456139, Note_on_c, 0, 55, 0
2, 456231, Control_c, 0, 64, 51
2, 456270, Control_c, 0, 64, 50
2, 456294, Note_on_c, 0, 71, 58
2, 456298, Note_on_c, 0, 56, 66
2, 456404, Control_c, 0, 64, 50
2, 456517, Control_c, 0, 64, 50
2, 456556, Control_c, 0, 64, 51
2, 456575, Control_c, 0, 64, 52
2, 456594, Control_c, 0, 64, 53
2, 456613, Control_c, 0, 64, 54
2, 456633, Control_c, 0, 64, 54
2, 456651, Control_c, 0, 64, 55
2, 456671, Control_c, 0, 64, 55
2, 456690, Control_c, 0, 64, 56
2, 456710, Control_c, 0, 64, 57
2, 456728, Control_c, 0, 64, 58
2, 456748, Control_c, 0, 64, 59
2, 456767, Control_c, 0, 64, 59
2, 456782, Note_on_c, 0, 73, 52
2, 456786, Control_c, 0, 64, 60
2, 456789, Note_on_c, 0, 70, 49
2, 456805, Control_c, 0, 64, 61
2, 456825, Control_c, 0, 64, 61
2, 456844, Control_c, 0, 64, 62
2, 456863, Control_c, 0, 64, 62
2, 456873, Note_on_c, 0, 71, 0
2, 456902, Note_on_c, 0, 75, 0
2, 456939, Control_c, 0, 64, 63
2, 457055, Control_c, 0, 64, 63
2, 457113, Control_c, 0, 64, 64
2, 457170, Control_c, 0, 64, 64
2, 457208, Control_c, 0, 64, 65
2, 457250, Note_on_c, 0, 55, 43
2, 457266, Control_c, 0, 64, 65
2, 457280, Note_on_c, 0, 56, 0
2, 457478, Control_c, 0, 64, 65
2, 457651, Control_c, 0, 64, 64
2, 457689, Control_c, 0, 64, 64
2, 457704, Note_on_c, 0, 71, 51
2, 457709, Control_c, 0, 64, 62
2, 457719, Note_on_c, 0, 56, 31
2, 457726, Note_on_c, 0, 55, 0
2, 457728, Control_c, 0, 64, 59
2, 457747, Control_c, 0, 64, 56
2, 457766, Control_c, 0, 64, 53
2, 457779, Note_on_c, 0, 70, 0
2, 457786, Control_c, 0, 64, 52
2, 457805, Control_c, 0, 64, 51
2, 457811, Note_on_c, 0, 73, 0
2, 457881, Control_c, 0, 64, 52
2, 457900, Control_c, 0, 64, 54
2, 457920, Control_c, 0, 64, 55
2, 457939, Control_c, 0, 64, 57
2, 457958, Control_c, 0, 64, 60
2, 457977, Control_c, 0, 64, 61
2, 457997, Control_c, 0, 64, 61
2, 458015, Control_c, 0, 64, 62
2, 458035, Control_c, 0, 64, 62
2, 458054, Control_c, 0, 64, 63
2, 458074, Control_c, 0, 64, 63
2, 458092, Control_c, 0, 64, 64
2, 458112, Control_c, 0, 64, 64
2, 458146, Note_on_c, 0, 63, 37
2, 458151, Control_c, 0, 64, 65
2, 458159, Note_on_c, 0, 54, 28
2, 458189, Control_c, 0, 64, 65
2, 458200, Note_on_c, 0, 56, 0
2, 458208, Control_c, 0, 64, 66
2, 458266, Control_c, 0, 64, 66
2, 458304, Control_c, 0, 64, 67
2, 458343, Control_c, 0, 64, 67
2, 458524, Note_on_c, 0, 68, 61
2, 458534, Control_c, 0, 64, 68
2, 458535, Note_on_c, 0, 71, 0
2, 458544, Note_on_c, 0, 52, 39
2, 458546, Note_on_c, 0, 54, 0
2, 458685, Note_on_c, 0, 63, 0
2, 458908, Note_on_c, 0, 71, 68
2, 458922, Note_on_c, 0, 51, 42
2, 458930, Note_on_c, 0, 52, 0
2, 458975, Control_c, 0, 64, 67
2, 459000, Note_on_c, 0, 68, 0
2, 459034, Control_c, 0, 64, 67
2, 459111, Control_c, 0, 64, 66
2, 459206, Control_c, 0, 64, 66
2, 459283, Control_c, 0, 64, 65
2, 459290, Note_on_c, 0, 49, 44
2, 459298, Note_on_c, 0, 70, 67
2, 459303, Control_c, 0, 64, 65
2, 459307, Note_on_c, 0, 51, 0
2, 459321, Control_c, 0, 64, 64
2, 459340, Control_c, 0, 64, 63
2, 459360, Control_c, 0, 64, 62
2, 459379, Control_c, 0, 64, 61
2, 459390, Note_on_c, 0, 71, 0
2, 459398, Control_c, 0, 64, 60
2, 459417, Control_c, 0, 64, 59
2, 459437, Control_c, 0, 64, 57
2, 459455, Control_c, 0, 64, 56
2, 459494, Control_c, 0, 64, 56
2, 459673, Note_on_c, 0, 68, 60
2, 459680, Note_on_c, 0, 50, 48
2, 459770, Note_on_c, 0, 49, 0
2, 459917, Control_c, 0, 64, 55
2, 459994, Control_c, 0, 64, 54
2, 460012, Control_c, 0, 64, 53
2, 460032, Control_c, 0, 64, 51
2, 460073, Note_on_c, 0, 51, 59
2, 460087, Note_on_c, 0, 66, 59
2, 460089, Control_c, 0, 64, 52
2, 460106, Note_on_c, 0, 50, 0
2, 460109, Control_c, 0, 64, 55
2, 460128, Control_c, 0, 64, 58
2, 460147, Control_c, 0, 64, 60
2, 460155, Note_on_c, 0, 70, 0
2, 460158, Note_on_c, 0, 68, 0
2, 460166, Control_c, 0, 64, 61
2, 460186, Control_c, 0, 64, 62
2, 460205, Control_c, 0, 64, 63
2, 460224, Control_c, 0, 64, 64
2, 460243, Control_c, 0, 64, 64
2, 460263, Control_c, 0, 64, 65
2, 460281, Control_c, 0, 64, 66
2, 460300, Control_c, 0, 64, 66
2, 460320, Control_c, 0, 64, 67
2, 460339, Control_c, 0, 64, 68
2, 460358, Control_c, 0, 64, 68
2, 460377, Control_c, 0, 64, 69
2, 460397, Control_c, 0, 64, 69
2, 460415, Control_c, 0, 64, 70
2, 460435, Control_c, 0, 64, 70
2, 460454, Control_c, 0, 64, 71
2, 460500, Note_on_c, 0, 78, 72
2, 460518, Note_on_c, 0, 46, 49
2, 460589, Control_c, 0, 64, 70
2, 460597, Note_on_c, 0, 51, 0
2, 460621, Note_on_c, 0, 78, 0
2, 460627, Control_c, 0, 64, 70
2, 460685, Control_c, 0, 64, 69
2, 460743, Control_c, 0, 64, 69
2, 460800, Control_c, 0, 64, 68
2, 460838, Control_c, 0, 64, 68
2, 460857, Control_c, 0, 64, 67
2, 460877, Control_c, 0, 64, 65
2, 460892, Note_on_c, 0, 68, 71
2, 460895, Control_c, 0, 64, 64
2, 460899, Note_on_c, 0, 47, 67
2, 460915, Control_c, 0, 64, 62
2, 460934, Control_c, 0, 64, 61
2, 460954, Control_c, 0, 64, 60
2, 460958, Note_on_c, 0, 46, 0
2, 460972, Control_c, 0, 64, 59
2, 460985, Note_on_c, 0, 66, 0
2, 460992, Control_c, 0, 64, 58
2, 461011, Control_c, 0, 64, 58
2, 461290, Note_on_c, 0, 66, 69
2, 461294, Note_on_c, 0, 48, 69
2, 461344, Note_on_c, 0, 47, 0
2, 461491, Control_c, 0, 64, 58
2, 461699, Note_on_c, 0, 64, 63
2, 461703, Control_c, 0, 64, 58
2, 461707, Note_on_c, 0, 49, 70
2, 461727, Note_on_c, 0, 66, 0
2, 461739, Note_on_c, 0, 48, 0
2, 461817, Control_c, 0, 64, 57
2, 462111, Note_on_c, 0, 44, 69
2, 462120, Note_on_c, 0, 63, 61
2, 462176, Note_on_c, 0, 64, 0
2, 462181, Control_c, 0, 64, 58
2, 462184, Note_on_c, 0, 49, 0
2, 462450, Control_c, 0, 64, 58
2, 462571, Note_on_c, 0, 62, 52
2, 462583, Note_on_c, 0, 46, 80
2, 462585, Control_c, 0, 64, 58
2, 462604, Control_c, 0, 64, 56
2, 462606, Note_on_c, 0, 63, 0
2, 462623, Control_c, 0, 64, 51
2, 462642, Control_c, 0, 64, 47
2, 462655, Note_on_c, 0, 44, 0
2, 462661, Control_c, 0, 64, 42
2, 462680, Control_c, 0, 64, 36
2, 462699, Control_c, 0, 64, 30
2, 462719, Control_c, 0, 64, 25
2, 462738, Control_c, 0, 64, 24
2, 462815, Control_c, 0, 64, 25
2, 462834, Control_c, 0, 64, 28
2, 462853, Control_c, 0, 64, 32
2, 462873, Control_c, 0, 64, 37
2, 462891, Control_c, 0, 64, 41
2, 462911, Control_c, 0, 64, 44
2, 462930, Control_c, 0, 64, 46
2, 462950, Control_c, 0, 64, 48
2, 462968, Control_c, 0, 64, 50
2, 462988, Control_c, 0, 64, 51
2, 463007, Control_c, 0, 64, 53
2, 463016, Note_on_c, 0, 66, 56
2, 463026, Control_c, 0, 64, 53
2, 463045, Control_c, 0, 64, 54
2, 463065, Control_c, 0, 64, 55
2, 463086, Note_on_c, 0, 62, 0
2, 463103, Control_c, 0, 64, 55
2, 463123, Control_c, 0, 64, 56
2, 463168, Note_on_c, 0, 68, 0
2, 463182, Note_on_c, 0, 65, 63
2, 463199, Control_c, 0, 64, 56
2, 463204, Note_on_c, 0, 66, 0
2, 463391, Control_c, 0, 64, 56
2, 463397, Note_on_c, 0, 66, 68
2, 463408, Note_on_c, 0, 63, 61
2, 463430, Control_c, 0, 64, 55
2, 463448, Control_c, 0, 64, 55
2, 463455, Note_on_c, 0, 65, 0
2, 463468, Control_c, 0, 64, 54
2, 463487, Control_c, 0, 64, 53
2, 463506, Control_c, 0, 64, 52
2, 463525, Control_c, 0, 64, 52
2, 463545, Control_c, 0, 64, 51
2, 463564, Control_c, 0, 64, 50
2, 463582, Control_c, 0, 64, 49
2, 463602, Control_c, 0, 64, 48
2, 463621, Control_c, 0, 64, 48
2, 463640, Control_c, 0, 64, 47
2, 463659, Control_c, 0, 64, 47
2, 463679, Control_c, 0, 64, 46
2, 463698, Control_c, 0, 64, 45
2, 463717, Control_c, 0, 64, 44
2, 463736, Control_c, 0, 64, 43
2, 463756, Control_c, 0, 64, 42
2, 463775, Control_c, 0, 64, 40
2, 463781, Note_on_c, 0, 68, 76
2, 463794, Control_c, 0, 64, 37
2, 463813, Control_c, 0, 64, 35
2, 463833, Control_c, 0, 64, 32
2, 463850, Note_on_c, 0, 66, 0
2, 463851, Control_c, 0, 64, 29
2, 463871, Control_c, 0, 64, 27
2, 463890, Control_c, 0, 64, 24
2, 463910, Control_c, 0, 64, 19
2, 463928, Control_c, 0, 64, 9
2, 463948, Control_c, 0, 64, 0
2, 464106, Control_c, 0, 64, 23
2, 464124, Control_c, 0, 64, 45
2, 464144, Control_c, 0, 64, 59
2, 464159, Control_c, 0, 64, 63
2, 464177, Note_on_c, 0, 70, 80
2, 464178, Control_c, 0, 64, 64
2, 464197, Control_c, 0, 64, 66
2, 464216, Control_c, 0, 64, 68
2, 464232, Note_on_c, 0, 68, 0
2, 464236, Control_c, 0, 64, 70
2, 464255, Control_c, 0, 64, 73
2, 464274, Control_c, 0, 64, 76
2, 464285, Note_on_c, 0, 46, 0
2, 464293, Control_c, 0, 64, 78
2, 464313, Control_c, 0, 64, 80
2, 464331, Control_c, 0, 64, 81
2, 464370, Control_c, 0, 64, 81
2, 464408, Control_c, 0, 64, 82
2, 464546, Note_on_c, 0, 63, 0
2, 464585, Note_on_c, 0, 62, 70
2, 464591, Note_on_c, 0, 53, 59
2, 464610, Note_on_c, 0, 70, 0
2, 464661, Control_c, 0, 64, 81
2, 464680, Control_c, 0, 64, 80
2, 464699, Control_c, 0, 64, 79
2, 464719, Control_c, 0, 64, 78
2, 464736, Note_on_c, 0, 60, 77
2, 464736, Note_on_c, 0, 62, 0
2, 464757, Control_c, 0, 64, 78
2, 464853, Control_c, 0, 64, 77
2, 464872, Control_c, 0, 64, 77
2, 464891, Control_c, 0, 64, 75
2, 464910, Control_c, 0, 64, 72
2, 464930, Control_c, 0, 64, 66
2, 464948, Control_c, 0, 64, 59
2, 464956, Note_on_c, 0, 58, 69
2, 464958, Note_on_c, 0, 62, 75
2, 464968, Control_c, 0, 64, 39
2, 464971, Note_on_c, 0, 60, 0
2, 464987, Control_c, 0, 64, 0
2, 464989, Note_on_c, 0, 53, 0
2, 465084, Control_c, 0, 64, 37
2, 465103, Control_c, 0, 64, 57
2, 465122, Control_c, 0, 64, 62
2, 465141, Control_c, 0, 64, 64
2, 465160, Control_c, 0, 64, 64
2, 465179, Control_c, 0, 64, 65
2, 465199, Control_c, 0, 64, 66
2, 465218, Control_c, 0, 64, 67
2, 465237, Control_c, 0, 64, 68
2, 465256, Control_c, 0, 64, 69
2, 465276, Control_c, 0, 64, 70
2, 465294, Control_c, 0, 64, 70
2, 465333, Control_c, 0, 64, 71
2, 465349, Note_on_c, 0, 65, 79
2, 465352, Control_c, 0, 64, 73
2, 465357, Note_on_c, 0, 62, 0
2, 465371, Control_c, 0, 64, 74
2, 465390, Control_c, 0, 64, 76
2, 465505, Control_c, 0, 64, 77
2, 465544, Control_c, 0, 64, 77
2, 465756, Control_c, 0, 64, 78
2, 465793, Control_c, 0, 64, 77
2, 465807, Note_on_c, 0, 77, 88
2, 465813, Control_c, 0, 64, 76
2, 465813, Note_on_c, 0, 70, 78
2, 465832, Control_c, 0, 64, 70
2, 465851, Control_c, 0, 64, 60
2, 465870, Control_c, 0, 64, 36
2, 465890, Control_c, 0, 64, 0
2, 465985, Control_c, 0, 64, 13
2, 466005, Control_c, 0, 64, 36
2, 466024, Control_c, 0, 64, 47
2, 466043, Control_c, 0, 64, 54
2, 466062, Control_c, 0, 64, 57
2, 466083, Control_c, 0, 64, 59
2, 466102, Control_c, 0, 64, 61
2, 466121, Control_c, 0, 64, 62
2, 466140, Control_c, 0, 64, 63
2, 466160, Control_c, 0, 64, 64
2, 466237, Control_c, 0, 64, 64
2, 466262, Note_on_c, 0, 59, 60
2, 466283, Note_on_c, 0, 58, 0
2, 466294, Control_c, 0, 64, 64
2, 466313, Control_c, 0, 64, 65
2, 466332, Control_c, 0, 64, 65
2, 466351, Control_c, 0, 64, 66
2, 466371, Control_c, 0, 64, 67
2, 466409, Control_c, 0, 64, 67
2, 466563, Control_c, 0, 64, 68
2, 466582, Control_c, 0, 64, 68
2, 466601, Control_c, 0, 64, 69
2, 466620, Control_c, 0, 64, 68
2, 466630, Note_on_c, 0, 58, 70
2, 466640, Control_c, 0, 64, 64
2, 466643, Note_on_c, 0, 59, 0
2, 466658, Control_c, 0, 64, 59
2, 466678, Control_c, 0, 64, 54
2, 466691, Note_on_c, 0, 65, 0
2, 466697, Control_c, 0, 64, 53
2, 466717, Control_c, 0, 64, 55
2, 466735, Control_c, 0, 64, 58
2, 466754, Control_c, 0, 64, 62
2, 466774, Control_c, 0, 64, 64
2, 466793, Control_c, 0, 64, 66
2, 466812, Control_c, 0, 64, 68
2, 466831, Control_c, 0, 64, 70
2, 466851, Control_c, 0, 64, 73
2, 466869, Control_c, 0, 64, 74
2, 466889, Control_c, 0, 64, 75
2, 466980, Note_on_c, 0, 77, 0
2, 467004, Note_on_c, 0, 56, 51
2, 467007, Note_on_c, 0, 71, 84
2, 467023, Control_c, 0, 64, 76
2, 467024, Note_on_c, 0, 70, 0
2, 467036, Control_c, 0, 64, 77
2, 467048, Note_on_c, 0, 58, 0
2, 467055, Control_c, 0, 64, 77
2, 467074, Control_c, 0, 64, 78
2, 467161, Note_on_c, 0, 71, 0
2, 467247, Control_c, 0, 64, 78
2, 467304, Control_c, 0, 64, 78
2, 467323, Note_on_c, 0, 54, 43
2, 467343, Control_c, 0, 64, 77
2, 467421, Note_on_c, 0, 56, 0
2, 467423, Note_on_c, 0, 82, 94
2, 467427, Note_on_c, 0, 80, 45
2, 467428, Note_on_c, 0, 70, 88
2, 467439, Control_c, 0, 64, 74
2, 467458, Control_c, 0, 64, 68
2, 467478, Control_c, 0, 64, 60
2, 467478, Note_on_c, 0, 80, 0
2, 467497, Control_c, 0, 64, 47
2, 467516, Control_c, 0, 64, 31
2, 467535, Control_c, 0, 64, 0
2, 467592, Control_c, 0, 64, 17
2, 467612, Control_c, 0, 64, 45
2, 467631, Control_c, 0, 64, 58
2, 467650, Control_c, 0, 64, 62
2, 467669, Control_c, 0, 64, 64
2, 467689, Control_c, 0, 64, 64
2, 467708, Control_c, 0, 64, 65
2, 467746, Control_c, 0, 64, 65
2, 467766, Control_c, 0, 64, 66
2, 467784, Control_c, 0, 64, 66
2, 467823, Control_c, 0, 64, 67
2, 467843, Control_c, 0, 64, 68
2, 467843, Note_on_c, 0, 56, 56
2, 467861, Control_c, 0, 64, 68
2, 467881, Control_c, 0, 64, 69
2, 467900, Control_c, 0, 64, 70
2, 467923, Control_c, 0, 64, 70
2, 468030, Note_on_c, 0, 54, 0
2, 468037, Control_c, 0, 64, 71
2, 468055, Control_c, 0, 64, 71
2, 468074, Control_c, 0, 64, 72
2, 468094, Control_c, 0, 64, 73
2, 468132, Control_c, 0, 64, 72
2, 468151, Control_c, 0, 64, 68
2, 468171, Control_c, 0, 64, 61
2, 468189, Control_c, 0, 64, 48
2, 468209, Control_c, 0, 64, 44
2, 468222, Note_on_c, 0, 58, 62
2, 468228, Control_c, 0, 64, 48
2, 468248, Control_c, 0, 64, 56
2, 468266, Control_c, 0, 64, 62
2, 468286, Control_c, 0, 64, 65
2, 468305, Control_c, 0, 64, 69
2, 468324, Control_c, 0, 64, 72
2, 468343, Control_c, 0, 64, 76
2, 468363, Control_c, 0, 64, 79
2, 468375, Note_on_c, 0, 56, 0
2, 468382, Control_c, 0, 64, 79
2, 468432, Note_on_c, 0, 58, 0
2, 468497, Control_c, 0, 64, 80
2, 468534, Note_on_c, 0, 70, 0
2, 468605, Note_on_c, 0, 68, 74
2, 468707, Note_on_c, 0, 68, 0
2, 468882, Control_c, 0, 64, 80
2, 468920, Control_c, 0, 64, 81
2, 468939, Control_c, 0, 64, 81
2, 468959, Control_c, 0, 64, 80
2, 468978, Control_c, 0, 64, 72
2, 468990, Note_on_c, 0, 66, 80
2, 468997, Control_c, 0, 64, 63
2, 469011, Note_on_c, 0, 51, 53
2, 469016, Control_c, 0, 64, 49
2, 469036, Control_c, 0, 64, 43
2, 469055, Control_c, 0, 64, 42
2, 469074, Control_c, 0, 64, 46
2, 469093, Control_c, 0, 64, 56
2, 469113, Control_c, 0, 64, 62
2, 469131, Control_c, 0, 64, 65
2, 469151, Control_c, 0, 64, 67
2, 469170, Control_c, 0, 64, 69
2, 469190, Control_c, 0, 64, 71
2, 469208, Control_c, 0, 64, 72
2, 469228, Control_c, 0, 64, 73
2, 469247, Control_c, 0, 64, 74
2, 469267, Note_on_c, 0, 66, 0
2, 469285, Control_c, 0, 64, 74
2, 469288, Note_on_c, 0, 51, 0
2, 469324, Control_c, 0, 64, 75
2, 469342, Control_c, 0, 64, 75
2, 469362, Control_c, 0, 64, 76
2, 469373, Note_on_c, 0, 53, 54
2, 469381, Control_c, 0, 64, 76
2, 469529, Note_on_c, 0, 54, 68
2, 469533, Note_on_c, 0, 53, 0
2, 469573, Control_c, 0, 64, 77
2, 469593, Control_c, 0, 64, 77
2, 469611, Control_c, 0, 64, 78
2, 469631, Control_c, 0, 64, 78
2, 469688, Control_c, 0, 64, 79
2, 469727, Control_c, 0, 64, 77
2, 469737, Note_on_c, 0, 83, 86
2, 469746, Control_c, 0, 64, 70
2, 469762, Note_on_c, 0, 56, 63
2, 469765, Control_c, 0, 64, 58
2, 469767, Note_on_c, 0, 54, 0
2, 469785, Control_c, 0, 64, 0
2, 469818, Note_on_c, 0, 82, 0
2, 469880, Control_c, 0, 64, 48
2, 469899, Control_c, 0, 64, 61
2, 469920, Control_c, 0, 64, 65
2, 469939, Control_c, 0, 64, 66
2, 469958, Control_c, 0, 64, 68
2, 469977, Control_c, 0, 64, 71
2, 469997, Control_c, 0, 64, 76
2, 470015, Control_c, 0, 64, 80
2, 470035, Control_c, 0, 64, 82
2, 470060, Note_on_c, 0, 83, 0
2, 470074, Control_c, 0, 64, 82
2, 470094, Note_on_c, 0, 80, 40
2, 470123, Note_on_c, 0, 68, 85
2, 470131, Control_c, 0, 64, 82
2, 470167, Note_on_c, 0, 68, 0
2, 470169, Control_c, 0, 64, 83
2, 470202, Note_on_c, 0, 80, 0
2, 470208, Control_c, 0, 64, 83
2, 470246, Control_c, 0, 64, 83
2, 470285, Control_c, 0, 64, 82
2, 470515, Control_c, 0, 64, 82
2, 470534, Control_c, 0, 64, 81
2, 470546, Note_on_c, 0, 82, 91
2, 470554, Control_c, 0, 64, 77
2, 470560, Note_on_c, 0, 70, 76
2, 470572, Control_c, 0, 64, 67
2, 470592, Control_c, 0, 64, 53
2, 470611, Control_c, 0, 64, 20
2, 470631, Control_c, 0, 64, 0
2, 470669, Control_c, 0, 64, 29
2, 470688, Control_c, 0, 64, 51
2, 470707, Control_c, 0, 64, 61
2, 470726, Control_c, 0, 64, 64
2, 470746, Control_c, 0, 64, 66
2, 470765, Control_c, 0, 64, 68
2, 470783, Control_c, 0, 64, 70
2, 470804, Control_c, 0, 64, 72
2, 470823, Control_c, 0, 64, 74
2, 470842, Control_c, 0, 64, 76
2, 470861, Control_c, 0, 64, 77
2, 470918, Control_c, 0, 64, 76
2, 470930, Note_on_c, 0, 54, 52
2, 470975, Control_c, 0, 64, 77
2, 470985, Note_on_c, 0, 56, 0
2, 471014, Control_c, 0, 64, 76
2, 471052, Control_c, 0, 64, 76
2, 471072, Control_c, 0, 64, 75
2, 471245, Control_c, 0, 64, 75
2, 471263, Control_c, 0, 64, 74
2, 471283, Control_c, 0, 64, 72
2, 471298, Note_on_c, 0, 80, 86
2, 471302, Control_c, 0, 64, 65
2, 471321, Control_c, 0, 64, 51
2, 471327, Note_on_c, 0, 53, 51
2, 471335, Note_on_c, 0, 54, 0
2, 471340, Control_c, 0, 64, 0
2, 471437, Control_c, 0, 64, 43
2, 471445, Note_on_c, 0, 82, 0
2, 471455, Control_c, 0, 64, 58
2, 471475, Control_c, 0, 64, 63
2, 471494, Control_c, 0, 64, 64
2, 471514, Control_c, 0, 64, 64
2, 471532, Control_c, 0, 64, 65
2, 471552, Control_c, 0, 64, 67
2, 471571, Control_c, 0, 64, 69
2, 471591, Control_c, 0, 64, 71
2, 471609, Control_c, 0, 64, 72
2, 471655, Note_on_c, 0, 53, 0
2, 471692, Note_on_c, 0, 62, 60
2, 471801, Control_c, 0, 64, 72
2, 471857, Control_c, 0, 64, 71
2, 472030, Control_c, 0, 64, 71
2, 472049, Control_c, 0, 64, 68
2, 472069, Control_c, 0, 64, 61
2, 472085, Note_on_c, 0, 78, 82
2, 472087, Control_c, 0, 64, 30
2, 472107, Control_c, 0, 64, 0
2, 472111, Note_on_c, 0, 62, 0
2, 472116, Note_on_c, 0, 63, 59
2, 472203, Control_c, 0, 64, 51
2, 472221, Control_c, 0, 64, 62
2, 472230, Note_on_c, 0, 80, 0
2, 472241, Control_c, 0, 64, 65
2, 472260, Control_c, 0, 64, 66
2, 472280, Control_c, 0, 64, 67
2, 472298, Control_c, 0, 64, 68
2, 472318, Control_c, 0, 64, 70
2, 472337, Control_c, 0, 64, 73
2, 472356, Control_c, 0, 64, 75
2, 472375, Control_c, 0, 64, 76
2, 472414, Control_c, 0, 64, 77
2, 472443, Note_on_c, 0, 63, 0
2, 472452, Control_c, 0, 64, 77
2, 472476, Note_on_c, 0, 65, 61
2, 472549, Control_c, 0, 64, 77
2, 472587, Control_c, 0, 64, 76
2, 472622, Note_on_c, 0, 66, 65
2, 472657, Note_on_c, 0, 65, 0
2, 472723, Control_c, 0, 64, 76
2, 472761, Control_c, 0, 64, 75
2, 472780, Control_c, 0, 64, 75
2, 472798, Control_c, 0, 64, 74
2, 472817, Control_c, 0, 64, 70
2, 472836, Control_c, 0, 64, 63
2, 472839, Note_on_c, 0, 80, 87
2, 472853, Note_on_c, 0, 65, 48
2, 472855, Control_c, 0, 64, 45
2, 472862, Note_on_c, 0, 68, 60
2, 472867, Note_on_c, 0, 66, 0
2, 472875, Control_c, 0, 64, 0
2, 472925, Note_on_c, 0, 78, 0
2, 472990, Control_c, 0, 64, 51
2, 473009, Control_c, 0, 64, 62
2, 473029, Control_c, 0, 64, 64
2, 473047, Control_c, 0, 64, 65
2, 473067, Control_c, 0, 64, 66
2, 473086, Control_c, 0, 64, 67
2, 473106, Control_c, 0, 64, 69
2, 473124, Control_c, 0, 64, 71
2, 473143, Control_c, 0, 64, 73
2, 473163, Control_c, 0, 64, 74
2, 473201, Control_c, 0, 64, 74
2, 473239, Note_on_c, 0, 63, 56
2, 473240, Control_c, 0, 64, 75
2, 473258, Control_c, 0, 64, 76
2, 473278, Control_c, 0, 64, 76
2, 473297, Control_c, 0, 64, 77
2, 473317, Note_on_c, 0, 65, 0
2, 473319, Note_on_c, 0, 68, 0
2, 473335, Control_c, 0, 64, 76
2, 473357, Note_on_c, 0, 63, 0
2, 473450, Control_c, 0, 64, 76
2, 473489, Control_c, 0, 64, 75
2, 473509, Control_c, 0, 64, 75
2, 473527, Control_c, 0, 64, 74
2, 473547, Control_c, 0, 64, 73
2, 473566, Control_c, 0, 64, 72
2, 473574, Note_on_c, 0, 62, 45
2, 473586, Control_c, 0, 64, 72
2, 473604, Control_c, 0, 64, 70
2, 473623, Control_c, 0, 64, 64
2, 473631, Note_on_c, 0, 82, 81
2, 473643, Control_c, 0, 64, 46
2, 473661, Control_c, 0, 64, 0
2, 473721, Note_on_c, 0, 80, 0
2, 473778, Control_c, 0, 64, 23
2, 473797, Control_c, 0, 64, 51
2, 473816, Control_c, 0, 64, 60
2, 473836, Control_c, 0, 64, 63
2, 473855, Control_c, 0, 64, 63
2, 473874, Control_c, 0, 64, 64
2, 473893, Control_c, 0, 64, 65
2, 473913, Control_c, 0, 64, 66
2, 473931, Control_c, 0, 64, 67
2, 473951, Control_c, 0, 64, 68
2, 473990, Control_c, 0, 64, 69
2, 474047, Control_c, 0, 64, 69
2, 474052, Note_on_c, 0, 66, 38
2, 474063, Note_on_c, 0, 62, 0
2, 474066, Control_c, 0, 64, 70
2, 474073, Note_on_c, 0, 63, 32
2, 474162, Control_c, 0, 64, 69
2, 474277, Control_c, 0, 64, 70
2, 474354, Control_c, 0, 64, 68
2, 474373, Control_c, 0, 64, 62
2, 474393, Control_c, 0, 64, 48
2, 474399, Note_on_c, 0, 63, 0
2, 474411, Control_c, 0, 64, 27
2, 474416, Note_on_c, 0, 65, 53
2, 474423, Note_on_c, 0, 66, 0
2, 474431, Control_c, 0, 64, 13
2, 474450, Control_c, 0, 64, 17
2, 474459, Note_on_c, 0, 70, 0
2, 474470, Control_c, 0, 64, 37
2, 474488, Control_c, 0, 64, 54
2, 474508, Control_c, 0, 64, 61
2, 474524, Control_c, 0, 64, 64
2, 474543, Control_c, 0, 64, 64
2, 474562, Control_c, 0, 64, 65
2, 474601, Control_c, 0, 64, 66
2, 474620, Control_c, 0, 64, 66
2, 474639, Control_c, 0, 64, 67
2, 474716, Control_c, 0, 64, 68
2, 474774, Control_c, 0, 64, 68
2, 474790, Note_on_c, 0, 61, 63
2, 474827, Note_on_c, 0, 65, 0
2, 474985, Control_c, 0, 64, 69
2, 475119, Control_c, 0, 64, 69
2, 475139, Control_c, 0, 64, 70
2, 475158, Control_c, 0, 64, 68
2, 475170, Note_on_c, 0, 75, 82
2, 475177, Control_c, 0, 64, 63
2, 475193, Note_on_c, 0, 67, 58
2, 475196, Control_c, 0, 64, 46
2, 475216, Control_c, 0, 64, 0
2, 475292, Control_c, 0, 64, 41
2, 475296, Note_on_c, 0, 82, 0
2, 475311, Control_c, 0, 64, 59
2, 475330, Control_c, 0, 64, 64
2, 475350, Control_c, 0, 64, 66
2, 475368, Control_c, 0, 64, 67
2, 475388, Control_c, 0, 64, 68
2, 475407, Control_c, 0, 64, 68
2, 475427, Control_c, 0, 64, 69
2, 475445, Control_c, 0, 64, 70
2, 475465, Control_c, 0, 64, 70
2, 475477, Note_on_c, 0, 67, 0
2, 475538, Note_on_c, 0, 58, 73
2, 475565, Note_on_c, 0, 63, 64
2, 475587, Note_on_c, 0, 61, 0
2, 475619, Control_c, 0, 64, 70
2, 475657, Control_c, 0, 64, 69
2, 475700, Note_on_c, 0, 63, 0
2, 475733, Note_on_c, 0, 64, 71
2, 475810, Control_c, 0, 64, 69
2, 475945, Control_c, 0, 64, 69
2, 475964, Control_c, 0, 64, 67
2, 475981, Note_on_c, 0, 63, 78
2, 475983, Control_c, 0, 64, 60
2, 476002, Control_c, 0, 64, 23
2, 476020, Note_on_c, 0, 64, 0
2, 476022, Control_c, 0, 64, 0
2, 476118, Control_c, 0, 64, 39
2, 476137, Control_c, 0, 64, 55
2, 476156, Control_c, 0, 64, 60
2, 476176, Control_c, 0, 64, 62
2, 476194, Control_c, 0, 64, 63
2, 476213, Control_c, 0, 64, 64
2, 476233, Control_c, 0, 64, 65
2, 476252, Control_c, 0, 64, 66
2, 476271, Control_c, 0, 64, 66
2, 476405, Control_c, 0, 64, 67
2, 476425, Control_c, 0, 64, 67
2, 476434, Note_on_c, 0, 61, 60
2, 476522, Note_on_c, 0, 58, 0
2, 476579, Control_c, 0, 64, 68
2, 476790, Control_c, 0, 64, 68
2, 476808, Control_c, 0, 64, 69
2, 476818, Note_on_c, 0, 80, 89
2, 476847, Control_c, 0, 64, 66
2, 476856, Note_on_c, 0, 59, 57
2, 476864, Note_on_c, 0, 61, 0
2, 476867, Control_c, 0, 64, 58
2, 476885, Control_c, 0, 64, 22
2, 476905, Control_c, 0, 64, 0
2, 476982, Control_c, 0, 64, 46
2, 477001, Control_c, 0, 64, 60
2, 477020, Control_c, 0, 64, 64
2, 477039, Control_c, 0, 64, 65
2, 477059, Control_c, 0, 64, 66
2, 477078, Control_c, 0, 64, 66
2, 477173, Control_c, 0, 64, 66
2, 477225, Note_on_c, 0, 59, 0
2, 477250, Control_c, 0, 64, 66
2, 477257, Note_on_c, 0, 63, 0
2, 477280, Note_on_c, 0, 64, 68
2, 477286, Note_on_c, 0, 61, 54
2, 477302, Note_on_c, 0, 75, 0
2, 477347, Control_c, 0, 64, 66
2, 477404, Control_c, 0, 64, 66
2, 477462, Control_c, 0, 64, 67
2, 477558, Control_c, 0, 64, 66
2, 477577, Control_c, 0, 64, 64
2, 477595, Control_c, 0, 64, 56
2, 477615, Control_c, 0, 64, 41
2, 477633, Control_c, 0, 64, 23
2, 477640, Note_on_c, 0, 61, 0
2, 477652, Control_c, 0, 64, 20
2, 477666, Note_on_c, 0, 63, 64
2, 477672, Control_c, 0, 64, 29
2, 477676, Note_on_c, 0, 59, 56
2, 477682, Note_on_c, 0, 64, 0
2, 477691, Control_c, 0, 64, 46
2, 477710, Control_c, 0, 64, 58
2, 477729, Control_c, 0, 64, 62
2, 477749, Control_c, 0, 64, 64
2, 477767, Control_c, 0, 64, 64
2, 477787, Control_c, 0, 64, 65
2, 477806, Control_c, 0, 64, 66
2, 477826, Control_c, 0, 64, 67
2, 477844, Control_c, 0, 64, 68
2, 477864, Control_c, 0, 64, 68
2, 478042, Note_on_c, 0, 63, 0
2, 478060, Note_on_c, 0, 61, 64
2, 478062, Note_on_c, 0, 58, 57
2, 478107, Note_on_c, 0, 59, 0
2, 478113, Control_c, 0, 64, 68
2, 478133, Note_on_c, 0, 58, 0
2, 478286, Control_c, 0, 64, 67
2, 478401, Control_c, 0, 64, 66
2, 478421, Control_c, 0, 64, 63
2, 478440, Control_c, 0, 64, 49
2, 478442, Note_on_c, 0, 59, 63
2, 478457, Note_on_c, 0, 56, 56
2, 478459, Control_c, 0, 64, 13
2, 478479, Control_c, 0, 64, 0
2, 478479, Note_on_c, 0, 61, 0
2, 478537, Control_c, 0, 64, 26
2, 478556, Control_c, 0, 64, 52
2, 478576, Control_c, 0, 64, 62
2, 478594, Control_c, 0, 64, 64
2, 478613, Control_c, 0, 64, 65
2, 478633, Control_c, 0, 64, 66
2, 478652, Control_c, 0, 64, 67
2, 478671, Control_c, 0, 64, 69
2, 478690, Control_c, 0, 64, 70
2, 478710, Control_c, 0, 64, 71
2, 478821, Note_on_c, 0, 59, 0
2, 478833, Note_on_c, 0, 61, 61
2, 478845, Note_on_c, 0, 54, 58
2, 478861, Note_on_c, 0, 56, 0
2, 478902, Control_c, 0, 64, 71
2, 478921, Control_c, 0, 64, 70
2, 478940, Control_c, 0, 64, 70
2, 478951, Note_on_c, 0, 61, 0
2, 478979, Control_c, 0, 64, 69
2, 479113, Control_c, 0, 64, 69
2, 479132, Control_c, 0, 64, 68
2, 479170, Control_c, 0, 64, 68
2, 479208, Control_c, 0, 64, 65
2, 479210, Note_on_c, 0, 54, 0
2, 479221, Note_on_c, 0, 78, 77
2, 479228, Control_c, 0, 64, 57
2, 479233, Note_on_c, 0, 52, 50
2, 479247, Control_c, 0, 64, 27
2, 479248, Note_on_c, 0, 63, 48
2, 479267, Control_c, 0, 64, 0
2, 479331, Note_on_c, 0, 80, 0
2, 479343, Control_c, 0, 64, 19
2, 479362, Control_c, 0, 64, 50
2, 479382, Control_c, 0, 64, 61
2, 479401, Control_c, 0, 64, 64
2, 479420, Control_c, 0, 64, 64
2, 479439, Control_c, 0, 64, 65
2, 479459, Control_c, 0, 64, 65
2, 479478, Control_c, 0, 64, 66
2, 479497, Control_c, 0, 64, 67
2, 479517, Control_c, 0, 64, 67
2, 479535, Note_on_c, 0, 52, 0
2, 479612, Control_c, 0, 64, 68
2, 479612, Note_on_c, 0, 51, 53
2, 479632, Control_c, 0, 64, 68
2, 479651, Control_c, 0, 64, 69
2, 479671, Control_c, 0, 64, 69
2, 479732, Note_on_c, 0, 63, 0
2, 479901, Control_c, 0, 64, 69
2, 479940, Control_c, 0, 64, 68
2, 480035, Control_c, 0, 64, 67
2, 480049, Note_on_c, 0, 76, 68
2, 480053, Note_on_c, 0, 49, 40
2, 480055, Control_c, 0, 64, 62
2, 480058, Note_on_c, 0, 51, 0
2, 480074, Control_c, 0, 64, 45
2, 480088, Note_on_c, 0, 56, 36
2, 480092, Control_c, 0, 64, 0
2, 480156, Note_on_c, 0, 78, 0
2, 480189, Control_c, 0, 64, 18
2, 480208, Control_c, 0, 64, 43
2, 480228, Control_c, 0, 64, 57
2, 480246, Control_c, 0, 64, 61
2, 480266, Control_c, 0, 64, 62
2, 480285, Control_c, 0, 64, 63
2, 480304, Control_c, 0, 64, 63
2, 480323, Control_c, 0, 64, 64
2, 480343, Control_c, 0, 64, 64
2, 480422, Control_c, 0, 64, 65
2, 480440, Control_c, 0, 64, 65
2, 480457, Note_on_c, 0, 56, 0
2, 480460, Control_c, 0, 64, 66
2, 480467, Note_on_c, 0, 49, 0
2, 480486, Note_on_c, 0, 61, 46
2, 480625, Note_on_c, 0, 61, 0
2, 480649, Note_on_c, 0, 59, 56
2, 480763, Control_c, 0, 64, 65
2, 480801, Control_c, 0, 64, 64
2, 480821, Control_c, 0, 64, 61
2, 480840, Control_c, 0, 64, 53
2, 480856, Note_on_c, 0, 59, 0
2, 480859, Control_c, 0, 64, 38
2, 480878, Control_c, 0, 64, 0
2, 480883, Note_on_c, 0, 61, 41
2, 480901, Note_on_c, 0, 58, 40
2, 480993, Control_c, 0, 64, 38
2, 481012, Control_c, 0, 64, 56
2, 481032, Control_c, 0, 64, 62
2, 481051, Control_c, 0, 64, 64
2, 481070, Control_c, 0, 64, 64
2, 481089, Control_c, 0, 64, 65
2, 481109, Control_c, 0, 64, 66
2, 481127, Control_c, 0, 64, 66
2, 481147, Control_c, 0, 64, 67
2, 481204, Control_c, 0, 64, 67
2, 481243, Control_c, 0, 64, 68
2, 481263, Control_c, 0, 64, 69
2, 481272, Note_on_c, 0, 56, 39
2, 481281, Control_c, 0, 64, 70
2, 481289, Note_on_c, 0, 58, 0
2, 481301, Control_c, 0, 64, 70
2, 481320, Control_c, 0, 64, 71
2, 481359, Control_c, 0, 64, 70
2, 481401, Note_on_c, 0, 61, 0
2, 481512, Control_c, 0, 64, 70
2, 481550, Control_c, 0, 64, 69
2, 481569, Control_c, 0, 64, 69
2, 481589, Control_c, 0, 64, 68
2, 481607, Control_c, 0, 64, 68
2, 481646, Control_c, 0, 64, 67
2, 481666, Control_c, 0, 64, 66
2, 481678, Note_on_c, 0, 75, 62
2, 481684, Control_c, 0, 64, 65
2, 481687, Note_on_c, 0, 55, 41
2, 481704, Control_c, 0, 64, 63
2, 481723, Control_c, 0, 64, 62
2, 481729, Note_on_c, 0, 56, 0
2, 481743, Control_c, 0, 64, 60
2, 481761, Control_c, 0, 64, 58
2, 481781, Control_c, 0, 64, 57
2, 481800, Control_c, 0, 64, 56
2, 481803, Note_on_c, 0, 76, 0
2, 481819, Control_c, 0, 64, 55
2, 481877, Control_c, 0, 64, 56
2, 481896, Control_c, 0, 64, 56
2, 481972, Control_c, 0, 64, 56
2, 481992, Control_c, 0, 64, 55
2, 482030, Control_c, 0, 64, 55
2, 482064, Note_on_c, 0, 56, 34
2, 482073, Note_on_c, 0, 59, 35
2, 482111, Note_on_c, 0, 55, 0
2, 482299, Control_c, 0, 64, 55
2, 482340, Control_c, 0, 64, 56
2, 482416, Control_c, 0, 64, 55
2, 482478, Note_on_c, 0, 58, 36
2, 482492, Note_on_c, 0, 59, 0
2, 482558, Note_on_c, 0, 56, 0
2, 482568, Control_c, 0, 64, 55
2, 482645, Control_c, 0, 64, 54
2, 482819, Control_c, 0, 64, 54
2, 482886, Note_on_c, 0, 54, 27
2, 482991, Control_c, 0, 64, 53
2, 483030, Control_c, 0, 64, 53
2, 483278, Control_c, 0, 64, 53
2, 483314, Note_on_c, 0, 56, 31
2, 483317, Control_c, 0, 64, 54
2, 483332, Note_on_c, 0, 53, 18
2, 483379, Note_on_c, 0, 54, 0
2, 483604, Control_c, 0, 64, 53
2, 483621, Note_on_c, 0, 58, 0
2, 483771, Note_on_c, 0, 71, 47
2, 483797, Control_c, 0, 64, 53
2, 483854, Control_c, 0, 64, 52
2, 483892, Control_c, 0, 64, 52
2, 483931, Control_c, 0, 64, 51
2, 483989, Control_c, 0, 64, 51
2, 484027, Control_c, 0, 64, 50
2, 484194, Note_on_c, 0, 68, 50
2, 484200, Control_c, 0, 64, 50
2, 484296, Control_c, 0, 64, 50
2, 484311, Note_on_c, 0, 71, 0
2, 484336, Control_c, 0, 64, 51
2, 484354, Control_c, 0, 64, 51
2, 484368, Note_on_c, 0, 75, 0
2, 484373, Control_c, 0, 64, 52
2, 484412, Control_c, 0, 64, 52
2, 484488, Control_c, 0, 64, 53
2, 484547, Control_c, 0, 64, 53
2, 484584, Note_on_c, 0, 58, 37
2, 484585, Control_c, 0, 64, 54
2, 484657, Note_on_c, 0, 56, 0
2, 484681, Control_c, 0, 64, 54
2, 484982, Note_on_c, 0, 58, 0
2, 484988, Control_c, 0, 64, 54
2, 484998, Note_on_c, 0, 59, 37
2, 485027, Control_c, 0, 64, 53
2, 485084, Control_c, 0, 64, 53
2, 485142, Control_c, 0, 64, 52
2, 485220, Control_c, 0, 64, 52
2, 485238, Control_c, 0, 64, 50
2, 485258, Control_c, 0, 64, 47
2, 485275, Control_c, 0, 64, 45
2, 485294, Control_c, 0, 64, 44
2, 485313, Control_c, 0, 64, 45
2, 485332, Control_c, 0, 64, 47
2, 485352, Control_c, 0, 64, 52
2, 485371, Control_c, 0, 64, 57
2, 485390, Control_c, 0, 64, 61
2, 485397, Note_on_c, 0, 70, 62
2, 485403, Note_on_c, 0, 59, 0
2, 485409, Control_c, 0, 64, 63
2, 485419, Note_on_c, 0, 54, 36
2, 485419, Note_on_c, 0, 58, 31
2, 485429, Control_c, 0, 64, 64
2, 485447, Control_c, 0, 64, 64
2, 485452, Note_on_c, 0, 53, 0
2, 485467, Control_c, 0, 64, 66
2, 485486, Control_c, 0, 64, 67
2, 485492, Note_on_c, 0, 68, 0
2, 485506, Control_c, 0, 64, 69
2, 485524, Control_c, 0, 64, 70
2, 485527, Note_on_c, 0, 58, 0
2, 485544, Control_c, 0, 64, 72
2, 485545, Note_on_c, 0, 54, 0
2, 485563, Control_c, 0, 64, 73
2, 485583, Control_c, 0, 64, 74
2, 485678, Control_c, 0, 64, 73
2, 485698, Control_c, 0, 64, 73
2, 485717, Control_c, 0, 64, 71
2, 485736, Control_c, 0, 64, 70
2, 485755, Control_c, 0, 64, 68
2, 485774, Control_c, 0, 64, 67
2, 485793, Control_c, 0, 64, 65
2, 485812, Control_c, 0, 64, 64
2, 485816, Note_on_c, 0, 56, 42
2, 485829, Note_on_c, 0, 71, 52
2, 485832, Control_c, 0, 64, 63
2, 485844, Note_on_c, 0, 53, 37
2, 485851, Control_c, 0, 64, 61
2, 485870, Control_c, 0, 64, 60
2, 485885, Note_on_c, 0, 70, 0
2, 485889, Control_c, 0, 64, 59
2, 485909, Control_c, 0, 64, 58
2, 485927, Control_c, 0, 64, 57
2, 485947, Control_c, 0, 64, 56
2, 485966, Control_c, 0, 64, 56
2, 486024, Control_c, 0, 64, 55
2, 486198, Control_c, 0, 64, 55
2, 486209, Note_on_c, 0, 51, 30
2, 486221, Note_on_c, 0, 54, 40
2, 486221, Note_on_c, 0, 56, 0
2, 486225, Note_on_c, 0, 53, 0
2, 486581, Control_c, 0, 64, 54
2, 486619, Note_on_c, 0, 53, 25
2, 486675, Note_on_c, 0, 50, 19
2, 486695, Control_c, 0, 64, 54
2, 486708, Note_on_c, 0, 54, 0
2, 486715, Control_c, 0, 64, 53
2, 486719, Note_on_c, 0, 51, 0
2, 486734, Control_c, 0, 64, 53
2, 486753, Control_c, 0, 64, 52
2, 486772, Control_c, 0, 64, 52
2, 487051, Note_on_c, 0, 68, 44
2, 487233, Control_c, 0, 64, 52
2, 487294, Note_on_c, 0, 71, 0
2, 487469, Note_on_c, 0, 65, 36
2, 487488, Note_on_c, 0, 68, 0
2, 487560, Control_c, 0, 64, 52
2, 487732, Control_c, 0, 64, 51
2, 487847, Control_c, 0, 64, 51
2, 487892, Note_on_c, 0, 54, 32
2, 487955, Note_on_c, 0, 53, 0
2, 487983, Control_c, 0, 64, 50
2, 488059, Control_c, 0, 64, 50
2, 488135, Control_c, 0, 64, 49
2, 488231, Control_c, 0, 64, 49
2, 488273, Note_on_c, 0, 54, 0
2, 488295, Note_on_c, 0, 56, 36
2, 488500, Control_c, 0, 64, 50
2, 488519, Control_c, 0, 64, 51
2, 488538, Control_c, 0, 64, 53
2, 488557, Control_c, 0, 64, 56
2, 488577, Control_c, 0, 64, 59
2, 488596, Control_c, 0, 64, 61
2, 488614, Control_c, 0, 64, 62
2, 488634, Control_c, 0, 64, 63
2, 488653, Control_c, 0, 64, 64
2, 488661, Note_on_c, 0, 50, 0
2, 488673, Control_c, 0, 64, 64
2, 488678, Note_on_c, 0, 66, 48
2, 488687, Note_on_c, 0, 56, 0
2, 488690, Note_on_c, 0, 51, 26
2, 488691, Control_c, 0, 64, 66
2, 488703, Note_on_c, 0, 54, 28
2, 488711, Control_c, 0, 64, 67
2, 488730, Control_c, 0, 64, 68
2, 488745, Note_on_c, 0, 65, 0
2, 488749, Control_c, 0, 64, 69
2, 488768, Control_c, 0, 64, 70
2, 488788, Control_c, 0, 64, 70
2, 488846, Note_on_c, 0, 51, 0
2, 488903, Control_c, 0, 64, 70
2, 488942, Control_c, 0, 64, 69
2, 488980, Control_c, 0, 64, 69
2, 488999, Control_c, 0, 64, 68
2, 489018, Control_c, 0, 64, 67
2, 489038, Control_c, 0, 64, 65
2, 489058, Control_c, 0, 64, 63
2, 489077, Control_c, 0, 64, 62
2, 489095, Control_c, 0, 64, 61
2, 489102, Note_on_c, 0, 53, 31
2, 489102, Note_on_c, 0, 68, 51
2, 489115, Control_c, 0, 64, 60
2, 489134, Control_c, 0, 64, 59
2, 489141, Note_on_c, 0, 50, 23
2, 489143, Note_on_c, 0, 54, 0
2, 489143, Note_on_c, 0, 66, 0
2, 489153, Control_c, 0, 64, 57
2, 489172, Control_c, 0, 64, 56
2, 489192, Control_c, 0, 64, 55
2, 489211, Control_c, 0, 64, 54
2, 489249, Control_c, 0, 64, 54
2, 489269, Control_c, 0, 64, 53
2, 489287, Control_c, 0, 64, 53
2, 489384, Control_c, 0, 64, 52
2, 489495, Note_on_c, 0, 51, 35
2, 489527, Note_on_c, 0, 53, 0
2, 489529, Note_on_c, 0, 48, 18
2, 489547, Note_on_c, 0, 50, 0
2, 489595, Control_c, 0, 64, 52
2, 489958, Note_on_c, 0, 50, 25
2, 489960, Note_on_c, 0, 46, 26
2, 490018, Control_c, 0, 64, 52
2, 490033, Note_on_c, 0, 51, 0
2, 490078, Note_on_c, 0, 48, 0
2, 490355, Note_on_c, 0, 65, 35
2, 490477, Note_on_c, 0, 68, 0
2, 490517, Control_c, 0, 64, 52
2, 490772, Note_on_c, 0, 62, 29
2, 490809, Note_on_c, 0, 65, 0
2, 490901, Control_c, 0, 64, 51
2, 491161, Note_on_c, 0, 51, 25
2, 491246, Control_c, 0, 64, 51
2, 491267, Note_on_c, 0, 50, 0
2, 491304, Control_c, 0, 64, 50
2, 491361, Control_c, 0, 64, 50
2, 491400, Control_c, 0, 64, 49
2, 491438, Control_c, 0, 64, 49
2, 491458, Control_c, 0, 64, 48
2, 491477, Control_c, 0, 64, 47
2, 491495, Control_c, 0, 64, 46
2, 491534, Control_c, 0, 64, 46
2, 491553, Control_c, 0, 64, 48
2, 491554, Note_on_c, 0, 51, 0
2, 491572, Control_c, 0, 64, 51
2, 491592, Control_c, 0, 64, 54
2, 491611, Control_c, 0, 64, 57
2, 491612, Note_on_c, 0, 53, 31
2, 491630, Control_c, 0, 64, 59
2, 491649, Control_c, 0, 64, 61
2, 491669, Control_c, 0, 64, 62
2, 491688, Control_c, 0, 64, 63
2, 491707, Control_c, 0, 64, 64
2, 491726, Control_c, 0, 64, 65
2, 491732, Note_on_c, 0, 62, 0
2, 491744, Note_on_c, 0, 46, 0
2, 491746, Control_c, 0, 64, 66
2, 491764, Control_c, 0, 64, 67
2, 491784, Control_c, 0, 64, 67
2, 491803, Control_c, 0, 64, 68
2, 491823, Control_c, 0, 64, 69
2, 491841, Control_c, 0, 64, 69
2, 491899, Control_c, 0, 64, 70
2, 491919, Control_c, 0, 64, 71
2, 491939, Control_c, 0, 64, 72
2, 491958, Control_c, 0, 64, 73
2, 492034, Control_c, 0, 64, 72
2, 492046, Note_on_c, 0, 62, 50
2, 492073, Control_c, 0, 64, 71
2, 492092, Control_c, 0, 64, 68
2, 492111, Control_c, 0, 64, 62
2, 492111, Note_on_c, 0, 44, 33
2, 492123, Note_on_c, 0, 53, 0
2, 492130, Control_c, 0, 64, 53
2, 492150, Control_c, 0, 64, 47
2, 492188, Control_c, 0, 64, 51
2, 492207, Control_c, 0, 64, 58
2, 492227, Control_c, 0, 64, 62
2, 492245, Control_c, 0, 64, 64
2, 492265, Control_c, 0, 64, 65
2, 492284, Control_c, 0, 64, 67
2, 492303, Control_c, 0, 64, 68
2, 492322, Control_c, 0, 64, 70
2, 492342, Control_c, 0, 64, 71
2, 492361, Control_c, 0, 64, 73
2, 492380, Control_c, 0, 64, 73
2, 492482, Note_on_c, 0, 62, 0
2, 492514, Control_c, 0, 64, 70
2, 492520, Note_on_c, 0, 63, 48
2, 492531, Note_on_c, 0, 42, 41
2, 492533, Control_c, 0, 64, 64
2, 492542, Note_on_c, 0, 54, 43
2, 492553, Control_c, 0, 64, 55
2, 492562, Note_on_c, 0, 44, 0
2, 492572, Control_c, 0, 64, 48
2, 492610, Control_c, 0, 64, 54
2, 492630, Control_c, 0, 64, 59
2, 492648, Control_c, 0, 64, 63
2, 492668, Control_c, 0, 64, 64
2, 492687, Control_c, 0, 64, 66
2, 492687, Note_on_c, 0, 54, 0
2, 492707, Control_c, 0, 64, 68
2, 492725, Control_c, 0, 64, 70
2, 492745, Control_c, 0, 64, 72
2, 492764, Control_c, 0, 64, 74
2, 492783, Control_c, 0, 64, 74
2, 492896, Control_c, 0, 64, 72
2, 492916, Control_c, 0, 64, 67
2, 492926, Note_on_c, 0, 42, 0
2, 492931, Note_on_c, 0, 65, 50
2, 492934, Control_c, 0, 64, 59
2, 492946, Note_on_c, 0, 41, 48
2, 492954, Control_c, 0, 64, 47
2, 492954, Note_on_c, 0, 56, 44
2, 492973, Control_c, 0, 64, 43
2, 493002, Note_on_c, 0, 63, 0
2, 493011, Control_c, 0, 64, 49
2, 493031, Control_c, 0, 64, 58
2, 493050, Control_c, 0, 64, 62
2, 493069, Control_c, 0, 64, 64
2, 493088, Control_c, 0, 64, 67
2, 493108, Control_c, 0, 64, 69
2, 493127, Control_c, 0, 64, 73
2, 493130, Note_on_c, 0, 56, 0
2, 493146, Control_c, 0, 64, 76
2, 493165, Control_c, 0, 64, 78
2, 493185, Control_c, 0, 64, 79
2, 493319, Control_c, 0, 64, 78
2, 493338, Control_c, 0, 64, 72
2, 493356, Note_on_c, 0, 66, 56
2, 493357, Control_c, 0, 64, 64
2, 493370, Note_on_c, 0, 65, 0
2, 493376, Control_c, 0, 64, 53
2, 493379, Note_on_c, 0, 39, 48
2, 493396, Control_c, 0, 64, 46
2, 493404, Note_on_c, 0, 41, 0
2, 493404, Note_on_c, 0, 58, 41
2, 493414, Control_c, 0, 64, 45
2, 493434, Control_c, 0, 64, 49
2, 493453, Control_c, 0, 64, 56
2, 493473, Control_c, 0, 64, 61
2, 493491, Control_c, 0, 64, 64
2, 493511, Control_c, 0, 64, 66
2, 493530, Control_c, 0, 64, 70
2, 493549, Control_c, 0, 64, 73
2, 493553, Note_on_c, 0, 58, 0
2, 493568, Control_c, 0, 64, 76
2, 493588, Control_c, 0, 64, 78
2, 493703, Control_c, 0, 64, 78
2, 493742, Control_c, 0, 64, 78
2, 493760, Control_c, 0, 64, 72
2, 493769, Note_on_c, 0, 67, 62
2, 493780, Control_c, 0, 64, 64
2, 493782, Note_on_c, 0, 49, 44
2, 493788, Note_on_c, 0, 58, 49
2, 493799, Control_c, 0, 64, 52
2, 493811, Note_on_c, 0, 66, 0
2, 493818, Control_c, 0, 64, 42
2, 493845, Note_on_c, 0, 39, 0
2, 493860, Control_c, 0, 64, 50
2, 493878, Control_c, 0, 64, 58
2, 493898, Control_c, 0, 64, 63
2, 493916, Control_c, 0, 64, 65
2, 493935, Control_c, 0, 64, 67
2, 493954, Control_c, 0, 64, 70
2, 493973, Control_c, 0, 64, 73
2, 493993, Control_c, 0, 64, 77
2, 494012, Control_c, 0, 64, 78
2, 494028, Note_on_c, 0, 58, 0
2, 494031, Control_c, 0, 64, 79
2, 494147, Control_c, 0, 64, 78
2, 494165, Control_c, 0, 64, 74
2, 494172, Note_on_c, 0, 68, 71
2, 494185, Control_c, 0, 64, 65
2, 494193, Note_on_c, 0, 47, 53
2, 494193, Note_on_c, 0, 67, 0
2, 494204, Control_c, 0, 64, 50
2, 494207, Note_on_c, 0, 59, 57
2, 494223, Control_c, 0, 64, 32
2, 494242, Control_c, 0, 64, 26
2, 494243, Note_on_c, 0, 49, 0
2, 494262, Control_c, 0, 64, 32
2, 494281, Control_c, 0, 64, 49
2, 494300, Control_c, 0, 64, 60
2, 494319, Control_c, 0, 64, 64
2, 494339, Control_c, 0, 64, 66
2, 494358, Control_c, 0, 64, 68
2, 494364, Note_on_c, 0, 59, 0
2, 494376, Control_c, 0, 64, 70
2, 494396, Control_c, 0, 64, 72
2, 494415, Control_c, 0, 64, 74
2, 494434, Control_c, 0, 64, 75
2, 494453, Control_c, 0, 64, 75
2, 494550, Control_c, 0, 64, 75
2, 494568, Control_c, 0, 64, 70
2, 494579, Note_on_c, 0, 46, 58
2, 494581, Note_on_c, 0, 70, 72
2, 494583, Note_on_c, 0, 61, 62
2, 494588, Control_c, 0, 64, 62
2, 494607, Control_c, 0, 64, 42
2, 494618, Note_on_c, 0, 47, 0
2, 494627, Control_c, 0, 64, 11
2, 494645, Control_c, 0, 64, 0
2, 494666, Note_on_c, 0, 68, 0
2, 494684, Control_c, 0, 64, 34
2, 494703, Control_c, 0, 64, 54
2, 494722, Control_c, 0, 64, 62
2, 494742, Control_c, 0, 64, 65
2, 494761, Control_c, 0, 64, 67
2, 494775, Note_on_c, 0, 61, 0
2, 494780, Control_c, 0, 64, 69
2, 494803, Control_c, 0, 64, 71
2, 494823, Control_c, 0, 64, 73
2, 494841, Control_c, 0, 64, 75
2, 494861, Control_c, 0, 64, 76
2, 494952, Control_c, 0, 64, 76
2, 494988, Note_on_c, 0, 70, 0
2, 494990, Control_c, 0, 64, 73
2, 494992, Note_on_c, 0, 71, 74
2, 495009, Control_c, 0, 64, 64
2, 495012, Note_on_c, 0, 44, 56
2, 495014, Note_on_c, 0, 46, 0
2, 495023, Note_on_c, 0, 63, 56
2, 495029, Control_c, 0, 64, 46
2, 495048, Control_c, 0, 64, 0
2, 495124, Control_c, 0, 64, 41
2, 495144, Control_c, 0, 64, 58
2, 495163, Control_c, 0, 64, 63
2, 495183, Control_c, 0, 64, 66
2, 495201, Control_c, 0, 64, 67
2, 495221, Control_c, 0, 64, 68
2, 495230, Note_on_c, 0, 63, 0
2, 495240, Control_c, 0, 64, 69
2, 495259, Control_c, 0, 64, 70
2, 495278, Control_c, 0, 64, 71
2, 495298, Control_c, 0, 64, 71
2, 495317, Control_c, 0, 64, 72
2, 495335, Control_c, 0, 64, 72
2, 495374, Control_c, 0, 64, 71
2, 495393, Control_c, 0, 64, 65
2, 495394, Note_on_c, 0, 72, 76
2, 495401, Note_on_c, 0, 63, 56
2, 495412, Control_c, 0, 64, 54
2, 495418, Note_on_c, 0, 54, 51
2, 495432, Control_c, 0, 64, 36
2, 495450, Note_on_c, 0, 71, 0
2, 495451, Control_c, 0, 64, 26
2, 495470, Control_c, 0, 64, 25
2, 495487, Note_on_c, 0, 44, 0
2, 495489, Control_c, 0, 64, 35
2, 495509, Control_c, 0, 64, 53
2, 495528, Control_c, 0, 64, 61
2, 495547, Control_c, 0, 64, 64
2, 495566, Control_c, 0, 64, 66
2, 495572, Note_on_c, 0, 63, 0
2, 495586, Control_c, 0, 64, 68
2, 495604, Control_c, 0, 64, 70
2, 495624, Control_c, 0, 64, 74
2, 495643, Control_c, 0, 64, 77
2, 495663, Control_c, 0, 64, 79
2, 495681, Control_c, 0, 64, 78
2, 495720, Control_c, 0, 64, 78
2, 495757, Control_c, 0, 64, 78
2, 495776, Control_c, 0, 64, 79
2, 495796, Control_c, 0, 64, 78
2, 495810, Note_on_c, 0, 74, 72
2, 495814, Control_c, 0, 64, 70
2, 495814, Note_on_c, 0, 53, 60
2, 495825, Note_on_c, 0, 65, 52
2, 495834, Control_c, 0, 64, 57
2, 495847, Note_on_c, 0, 54, 0
2, 495853, Control_c, 0, 64, 0
2, 495870, Note_on_c, 0, 72, 0
2, 495930, Control_c, 0, 64, 23
2, 495949, Control_c, 0, 64, 55
2, 495968, Control_c, 0, 64, 63
2, 495988, Control_c, 0, 64, 65
2, 496007, Control_c, 0, 64, 67
2, 496026, Control_c, 0, 64, 69
2, 496045, Control_c, 0, 64, 71
2, 496065, Control_c, 0, 64, 73
2, 496083, Control_c, 0, 64, 74
2, 496122, Control_c, 0, 64, 74
2, 496160, Control_c, 0, 64, 75
2, 496180, Control_c, 0, 64, 75
2, 496199, Control_c, 0, 64, 76
2, 496237, Control_c, 0, 64, 72
2, 496243, Note_on_c, 0, 75, 78
2, 496248, Note_on_c, 0, 51, 57
2, 496256, Control_c, 0, 64, 62
2, 496260, Note_on_c, 0, 53, 0
2, 496260, Note_on_c, 0, 65, 0
2, 496264, Note_on_c, 0, 66, 67
2, 496276, Control_c, 0, 64, 28
2, 496284, Note_on_c, 0, 74, 0
2, 496294, Control_c, 0, 64, 0
2, 496353, Control_c, 0, 64, 34
2, 496371, Control_c, 0, 64, 58
2, 496391, Control_c, 0, 64, 64
2, 496410, Control_c, 0, 64, 67
2, 496429, Control_c, 0, 64, 70
2, 496448, Control_c, 0, 64, 74
2, 496461, Note_on_c, 0, 75, 0
2, 496468, Control_c, 0, 64, 79
2, 496487, Control_c, 0, 64, 81
2, 496583, Control_c, 0, 64, 82
2, 496602, Control_c, 0, 64, 83
2, 496622, Control_c, 0, 64, 85
2, 496640, Control_c, 0, 64, 89
2, 496660, Control_c, 0, 64, 92
2, 496679, Control_c, 0, 64, 93
2, 496699, Note_on_c, 0, 51, 0
2, 496719, Control_c, 0, 64, 90
2, 496733, Note_on_c, 0, 75, 83
2, 496739, Control_c, 0, 64, 77
2, 496742, Note_on_c, 0, 65, 62
2, 496758, Control_c, 0, 64, 62
2, 496758, Note_on_c, 0, 58, 72
2, 496776, Control_c, 0, 64, 0
2, 496789, Note_on_c, 0, 66, 0
2, 496872, Control_c, 0, 64, 41
2, 496891, Control_c, 0, 64, 59
2, 496910, Control_c, 0, 64, 62
2, 496929, Control_c, 0, 64, 63
2, 496987, Control_c, 0, 64, 63
2, 497006, Control_c, 0, 64, 64
2, 497026, Control_c, 0, 64, 67
2, 497044, Control_c, 0, 64, 70
2, 497064, Control_c, 0, 64, 73
2, 497083, Control_c, 0, 64, 76
2, 497103, Control_c, 0, 64, 78
2, 497121, Control_c, 0, 64, 79
2, 497141, Control_c, 0, 64, 80
2, 497160, Control_c, 0, 64, 80
2, 497179, Control_c, 0, 64, 81
2, 497217, Control_c, 0, 64, 82
2, 497235, Note_on_c, 0, 71, 78
2, 497237, Control_c, 0, 64, 83
2, 497240, Note_on_c, 0, 58, 0
2, 497255, Control_c, 0, 64, 84
2, 497275, Control_c, 0, 64, 86
2, 497294, Control_c, 0, 64, 89
2, 497313, Control_c, 0, 64, 89
2, 497313, Note_on_c, 0, 75, 0
2, 497390, Control_c, 0, 64, 89
2, 497429, Control_c, 0, 64, 88
2, 497506, Control_c, 0, 64, 89
2, 497563, Control_c, 0, 64, 88
2, 497583, Control_c, 0, 64, 88
2, 497601, Control_c, 0, 64, 87
2, 497717, Control_c, 0, 64, 88
2, 497774, Control_c, 0, 64, 87
2, 497775, Note_on_c, 0, 74, 76
2, 497777, Note_on_c, 0, 70, 71
2, 497788, Note_on_c, 0, 46, 56
2, 497793, Control_c, 0, 64, 80
2, 497812, Control_c, 0, 64, 68
2, 497832, Control_c, 0, 64, 52
2, 497841, Note_on_c, 0, 71, 0
2, 497846, Note_on_c, 0, 65, 0
2, 497851, Control_c, 0, 64, 0
2, 498120, Control_c, 0, 64, 13
2, 498158, Control_c, 0, 64, 15
2, 498177, Control_c, 0, 64, 22
2, 498197, Control_c, 0, 64, 29
2, 498215, Control_c, 0, 64, 35
2, 498235, Control_c, 0, 64, 37
2, 498254, Control_c, 0, 64, 37
2, 498273, Control_c, 0, 64, 38
2, 498292, Control_c, 0, 64, 39
2, 498312, Control_c, 0, 64, 40
2, 498331, Control_c, 0, 64, 41
2, 498350, Control_c, 0, 64, 42
2, 498389, Control_c, 0, 64, 43
2, 498404, Note_on_c, 0, 68, 75
2, 498408, Control_c, 0, 64, 45
2, 498427, Control_c, 0, 64, 50
2, 498446, Control_c, 0, 64, 57
2, 498466, Control_c, 0, 64, 62
2, 498484, Control_c, 0, 64, 64
2, 498504, Control_c, 0, 64, 67
2, 498523, Control_c, 0, 64, 70
2, 498543, Control_c, 0, 64, 74
2, 498561, Control_c, 0, 64, 78
2, 498579, Note_on_c, 0, 46, 0
2, 498581, Control_c, 0, 64, 82
2, 498600, Control_c, 0, 64, 84
2, 498619, Control_c, 0, 64, 85
2, 498639, Control_c, 0, 64, 86
2, 498659, Control_c, 0, 64, 87
2, 498678, Control_c, 0, 64, 87
2, 498696, Control_c, 0, 64, 88
2, 498715, Control_c, 0, 64, 88
2, 498734, Control_c, 0, 64, 89
2, 498743, Note_on_c, 0, 74, 0
2, 498753, Control_c, 0, 64, 89
2, 498772, Control_c, 0, 64, 90
2, 499310, Control_c, 0, 64, 89
2, 499329, Control_c, 0, 64, 89
2, 499340, Note_on_c, 0, 75, 81
2, 499349, Control_c, 0, 64, 87
2, 499352, Note_on_c, 0, 67, 62
2, 499362, Note_on_c, 0, 39, 60
2, 499368, Control_c, 0, 64, 81
2, 499387, Control_c, 0, 64, 72
2, 499406, Control_c, 0, 64, 64
2, 499412, Note_on_c, 0, 68, 0
2, 499424, Note_on_c, 0, 70, 0
2, 499426, Control_c, 0, 64, 54
2, 499444, Control_c, 0, 64, 44
2, 499464, Control_c, 0, 64, 35
2, 499483, Control_c, 0, 64, 27
2, 499503, Control_c, 0, 64, 23
2, 499521, Control_c, 0, 64, 22
2, 499560, Control_c, 0, 64, 23
2, 499579, Control_c, 0, 64, 24
2, 499621, Control_c, 0, 64, 25
2, 499639, Control_c, 0, 64, 27
2, 499659, Control_c, 0, 64, 28
2, 499753, Control_c, 0, 64, 29
2, 499772, Control_c, 0, 64, 32
2, 499791, Control_c, 0, 64, 34
2, 499810, Control_c, 0, 64, 36
2, 499830, Control_c, 0, 64, 37
2, 499907, Control_c, 0, 64, 38
2, 499925, Control_c, 0, 64, 39
2, 499945, Control_c, 0, 64, 41
2, 499964, Control_c, 0, 64, 42
2, 499983, Control_c, 0, 64, 43
2, 500002, Control_c, 0, 64, 44
2, 500054, Control_c, 0, 64, 45
2, 500112, Control_c, 0, 64, 45
2, 500131, Control_c, 0, 64, 46
2, 500150, Control_c, 0, 64, 46
2, 500170, Control_c, 0, 64, 47
2, 500188, Control_c, 0, 64, 47
2, 500208, Control_c, 0, 64, 48
2, 500227, Control_c, 0, 64, 48
2, 500323, Control_c, 0, 64, 49
2, 500342, Control_c, 0, 64, 49
2, 500362, Control_c, 0, 64, 50
2, 500381, Control_c, 0, 64, 51
2, 500400, Control_c, 0, 64, 51
2, 500439, Control_c, 0, 64, 52
2, 500496, Control_c, 0, 64, 52
2, 500534, Control_c, 0, 64, 53
2, 500552, Control_c, 0, 64, 53
2, 500572, Control_c, 0, 64, 54
2, 500591, Control_c, 0, 64, 55
2, 500610, Control_c, 0, 64, 55
2, 500648, Control_c, 0, 64, 56
2, 500705, Control_c, 0, 64, 56
2, 500725, Control_c, 0, 64, 57
2, 500743, Control_c, 0, 64, 57
2, 500782, Control_c, 0, 64, 58
2, 500820, Control_c, 0, 64, 58
2, 500840, Control_c, 0, 64, 59
2, 501089, Control_c, 0, 64, 59
2, 501166, Control_c, 0, 64, 60
2, 501185, Control_c, 0, 64, 60
2, 501205, Control_c, 0, 64, 61
2, 501243, Control_c, 0, 64, 61
2, 501320, Control_c, 0, 64, 62
2, 501397, Control_c, 0, 64, 62
2, 501492, Control_c, 0, 64, 63
2, 501588, Control_c, 0, 64, 63
2, 501762, Control_c, 0, 64, 64
2, 501857, Control_c, 0, 64, 64
2, 501972, Control_c, 0, 64, 65
2, 502030, Control_c, 0, 64, 65
2, 502222, Control_c, 0, 64, 66
2, 502260, Control_c, 0, 64, 66
2, 502280, Control_c, 0, 64, 67
2, 502299, Control_c, 0, 64, 67
2, 502318, Control_c, 0, 64, 68
2, 502337, Control_c, 0, 64, 68
2, 502357, Control_c, 0, 64, 69
2, 502376, Control_c, 0, 64, 70
2, 502394, Control_c, 0, 64, 70
2, 502414, Control_c, 0, 64, 71
2, 502433, Control_c, 0, 64, 71
2, 502452, Control_c, 0, 64, 72
2, 502473, Control_c, 0, 64, 72
2, 502493, Control_c, 0, 64, 73
2, 502512, Control_c, 0, 64, 74
2, 502551, Control_c, 0, 64, 74
2, 502571, Control_c, 0, 64, 75
2, 502589, Control_c, 0, 64, 76
2, 502609, Control_c, 0, 64, 76
2, 502628, Control_c, 0, 64, 77
2, 502648, Control_c, 0, 64, 78
2, 502666, Control_c, 0, 64, 79
2, 502686, Control_c, 0, 64, 80
2, 502705, Control_c, 0, 64, 82
2, 502724, Control_c, 0, 64, 83
2, 502743, Control_c, 0, 64, 84
2, 502763, Control_c, 0, 64, 84
2, 502782, Control_c, 0, 64, 85
2, 502801, Control_c, 0, 64, 86
2, 502820, Control_c, 0, 64, 87
2, 502840, Control_c, 0, 64, 88
2, 502858, Control_c, 0, 64, 89
2, 502897, Control_c, 0, 64, 89
2, 502954, Control_c, 0, 64, 90
2, 503146, Control_c, 0, 64, 89
2, 503166, Control_c, 0, 64, 89
2, 503185, Control_c, 0, 64, 88
2, 503204, Control_c, 0, 64, 87
2, 503223, Control_c, 0, 64, 85
2, 503243, Control_c, 0, 64, 84
2, 503262, Control_c, 0, 64, 82
2, 503281, Control_c, 0, 64, 80
2, 503300, Control_c, 0, 64, 78
2, 503320, Control_c, 0, 64, 77
2, 503338, Control_c, 0, 64, 76
2, 503358, Control_c, 0, 64, 75
2, 503377, Control_c, 0, 64, 75
2, 503397, Control_c, 0, 64, 74
2, 503415, Control_c, 0, 64, 74
2, 503434, Control_c, 0, 64, 73
2, 503454, Control_c, 0, 64, 73
2, 503472, Control_c, 0, 64, 72
2, 503492, Control_c, 0, 64, 71
2, 503509, Control_c, 0, 64, 71
2, 503529, Control_c, 0, 64, 70
2, 503547, Control_c, 0, 64, 70
2, 503567, Control_c, 0, 64, 69
2, 503572, Note_on_c, 0, 67, 0
2, 503582, Note_on_c, 0, 39, 0
2, 503586, Control_c, 0, 64, 68
2, 503606, Control_c, 0, 64, 67
2, 503609, Note_on_c, 0, 75, 0
2, 503624, Control_c, 0, 64, 67
2, 503644, Control_c, 0, 64, 66
2, 503663, Control_c, 0, 64, 66
2, 503683, Control_c, 0, 64, 65
2, 503701, Control_c, 0, 64, 64
2, 503721, Control_c, 0, 64, 64
2, 503740, Control_c, 0, 64, 63
2, 503759, Control_c, 0, 64, 63
2, 503798, Control_c, 0, 64, 62
2, 503835, Control_c, 0, 64, 61
2, 503855, Control_c, 0, 64, 61
2, 503874, Control_c, 0, 64, 60
2, 503893, Control_c, 0, 64, 60
2, 503912, Control_c, 0, 64, 59
2, 503932, Control_c, 0, 64, 59
2, 503951, Control_c, 0, 64, 58
2, 503970, Control_c, 0, 64, 58
2, 503989, Control_c, 0, 64, 57
2, 504027, Control_c, 0, 64, 57
2, 504047, Control_c, 0, 64, 56
2, 504124, Control_c, 0, 64, 56
2, 504220, Control_c, 0, 64, 55
2, 504412, Control_c, 0, 64, 56
2, 504507, Control_c, 0, 64, 56
2, 504583, Control_c, 0, 64, 57
2, 504699, Control_c, 0, 64, 57
2, 504700, End_track
0, 0, End_of_file
