0, 0, Header, 1, 2, 480
1, 0, Start_track
1, 0, Tempo, 500000
1, 0, Time_signature, 4, 2, 24, 8
1, 1, End_track
2,0,Start_track
2,0, Note_on_c, 0, 63, 40
2,124, Control_c, 0, 67, 126
2,181, Control_c, 0, 67, 125
2,200, Control_c, 0, 67, 125
2,238, Control_c, 0, 67, 124
2,276, Control_c, 0, 67, 124
2,372, Control_c, 0, 67, 124
2,468, Control_c, 0, 67, 125
2,544, Control_c, 0, 64, 56
2,564, Control_c, 0, 64, 56
2,603, Control_c, 0, 64, 57
2,621, Control_c, 0, 64, 58
2,641, Control_c, 0, 64, 59
2,660, Control_c, 0, 64, 60
2,680, Control_c, 0, 64, 61
2,698, Control_c, 0, 64, 62
2,717, Control_c, 0, 64, 63
2,737, Control_c, 0, 64, 64
2,791, Note_on_c, 0, 70, 57
2,832, Control_c, 0, 64, 63
2,832, Control_c, 0, 67, 125
2,871, Control_c, 0, 64, 63
2,911, Control_c, 0, 64, 62
2,931, Control_c, 0, 64, 62
2,931, Control_c, 0, 67, 126
2,949, Control_c, 0, 64, 61
2,969, Control_c, 0, 64, 61
2,988, Control_c, 0, 64, 60
2,1008, Control_c, 0, 64, 60
2,1008, Control_c, 0, 67, 126
2,1046, Control_c, 0, 64, 59
2,1065, Control_c, 0, 64, 59
2,1103, Control_c, 0, 67, 127
2,1130, Note_on_c, 0, 63, 0
2,1257, Control_c, 0, 67, 127
2,1314, Control_c, 0, 64, 59
2,1372, Control_c, 0, 64, 60
2,1488, Control_c, 0, 64, 60
2,2110, Note_on_c, 0, 70, 0
2,2149, Note_on_c, 0, 71, 43
2,2544, Note_on_c, 0, 70, 45
2,2612, Note_on_c, 0, 71, 0
2,2868, Control_c, 0, 64, 60
2,2908, Note_on_c, 0, 68, 52
2,2929, Note_on_c, 0, 70, 0
2,3060, Control_c, 0, 64, 59
2,3175, Control_c, 0, 64, 59
2,3252, Control_c, 0, 64, 58
2,3298, Note_on_c, 0, 66, 47
2,3305, Note_on_c, 0, 68, 0
2,3309, Control_c, 0, 64, 58
2,3329, Control_c, 0, 64, 57
2,3329, Control_c, 0, 67, 127
2,3348, Control_c, 0, 64, 57
2,3386, Control_c, 0, 64, 56
2,3386, Control_c, 0, 67, 126
2,3424, Control_c, 0, 64, 56
2,3424, Control_c, 0, 67, 126
2,3444, Control_c, 0, 67, 125
2,3483, Control_c, 0, 67, 125
2,3501, Control_c, 0, 67, 124
2,3521, Control_c, 0, 67, 124
2,3540, Control_c, 0, 67, 123
2,3559, Control_c, 0, 67, 123
2,3578, Control_c, 0, 67, 122
2,3597, Control_c, 0, 64, 56
2,3597, Control_c, 0, 67, 121
2,3617, Control_c, 0, 67, 116
2,3635, Control_c, 0, 67, 111
2,3638, Note_on_c, 0, 68, 50
2,3655, Control_c, 0, 64, 57
2,3655, Control_c, 0, 67, 107
2,3674, Control_c, 0, 64, 57
2,3674, Control_c, 0, 67, 106
2,3709, Note_on_c, 0, 66, 0
2,3712, Control_c, 0, 67, 106
2,3732, Control_c, 0, 64, 58
2,3732, Control_c, 0, 67, 107
2,3751, Control_c, 0, 67, 107
2,3770, Control_c, 0, 64, 58
2,3809, Control_c, 0, 67, 108
2,3828, Control_c, 0, 64, 59
2,3924, Control_c, 0, 67, 108
2,4039, Control_c, 0, 67, 109
2,4069, Note_on_c, 0, 70, 56
2,4107, Note_on_c, 0, 68, 0
2,4135, Control_c, 0, 67, 109
2,4327, Control_c, 0, 67, 110
2,4577, Control_c, 0, 64, 59
2,4692, Control_c, 0, 67, 109
2,4750, Control_c, 0, 67, 109
2,4770, Control_c, 0, 67, 108
2,4789, Control_c, 0, 64, 59
2,4789, Control_c, 0, 67, 108
2,4827, Control_c, 0, 64, 58
2,4827, Control_c, 0, 67, 107
2,4865, Control_c, 0, 64, 58
2,4874, Note_on_c, 0, 63, 39
2,4885, Control_c, 0, 64, 57
2,4885, Control_c, 0, 67, 107
2,4904, Control_c, 0, 64, 57
2,4924, Control_c, 0, 64, 55
2,4942, Control_c, 0, 64, 54
2,4962, Control_c, 0, 64, 54
2,4981, Control_c, 0, 64, 53
2,5038, Control_c, 0, 67, 107
2,5058, Control_c, 0, 64, 53
2,5076, Control_c, 0, 64, 54
2,5096, Control_c, 0, 64, 56
2,5115, Control_c, 0, 64, 59
2,5115, Control_c, 0, 67, 108
2,5128, Note_on_c, 0, 70, 0
2,5134, Control_c, 0, 64, 61
2,5153, Control_c, 0, 64, 63
2,5173, Control_c, 0, 64, 65
2,5192, Control_c, 0, 64, 67
2,5211, Control_c, 0, 64, 70
2,5230, Control_c, 0, 64, 76
2,5250, Control_c, 0, 64, 83
2,5269, Control_c, 0, 64, 90
2,5288, Control_c, 0, 64, 92
2,5365, Control_c, 0, 64, 91
2,5384, Control_c, 0, 64, 90
2,5384, Control_c, 0, 67, 108
2,5404, Control_c, 0, 64, 88
2,5422, Control_c, 0, 64, 86
2,5422, Control_c, 0, 67, 109
2,5442, Control_c, 0, 64, 83
2,5461, Control_c, 0, 64, 80
2,5461, Control_c, 0, 67, 109
2,5479, Control_c, 0, 64, 78
2,5499, Control_c, 0, 64, 75
2,5518, Control_c, 0, 64, 73
2,5538, Control_c, 0, 64, 72
2,5556, Control_c, 0, 64, 72
2,5576, Control_c, 0, 64, 71
2,5595, Control_c, 0, 64, 70
2,5614, Control_c, 0, 64, 68
2,5614, Control_c, 0, 67, 110
2,5633, Control_c, 0, 64, 67
2,5653, Control_c, 0, 64, 65
2,5672, Control_c, 0, 64, 64
2,5692, Control_c, 0, 64, 64
2,5692, Control_c, 0, 67, 110
2,5699, Note_on_c, 0, 68, 44
2,5711, Control_c, 0, 64, 63
2,5731, Control_c, 0, 64, 62
2,5749, Control_c, 0, 64, 61
2,5761, Note_on_c, 0, 63, 0
2,5769, Control_c, 0, 64, 60
2,5769, Control_c, 0, 67, 111
2,5788, Control_c, 0, 64, 59
2,5788, Control_c, 0, 67, 111
2,5808, Control_c, 0, 64, 59
2,5826, Control_c, 0, 64, 58
2,5846, Control_c, 0, 64, 58
2,5865, Control_c, 0, 64, 57
2,6037, Control_c, 0, 64, 58
2,6037, Control_c, 0, 67, 112
2,6076, Control_c, 0, 64, 58
2,6095, Control_c, 0, 64, 59
2,6114, Control_c, 0, 64, 59
2,6134, Control_c, 0, 64, 60
2,6134, Control_c, 0, 67, 111
2,6153, Control_c, 0, 64, 61
2,6172, Control_c, 0, 64, 62
2,6191, Control_c, 0, 64, 62
2,6211, Control_c, 0, 64, 63
2,6229, Control_c, 0, 64, 63
2,6249, Control_c, 0, 64, 64
2,6249, Control_c, 0, 67, 111
2,6268, Control_c, 0, 64, 64
2,6288, Control_c, 0, 67, 110
2,6326, Control_c, 0, 67, 110
2,6365, Control_c, 0, 67, 109
2,6460, Control_c, 0, 64, 64
2,6517, Control_c, 0, 67, 109
2,6537, Control_c, 0, 64, 63
2,6594, Control_c, 0, 64, 63
2,6614, Control_c, 0, 67, 108
2,6670, Control_c, 0, 64, 62
2,6690, Control_c, 0, 64, 62
2,6709, Control_c, 0, 64, 61
2,6709, Control_c, 0, 67, 108
2,6728, Control_c, 0, 64, 60
2,6747, Control_c, 0, 64, 59
2,6785, Control_c, 0, 64, 59
2,6785, Control_c, 0, 67, 107
2,6797, Note_on_c, 0, 66, 44
2,6805, Control_c, 0, 64, 60
2,6824, Control_c, 0, 64, 60
2,6844, Control_c, 0, 64, 61
2,6882, Control_c, 0, 67, 107
2,6937, Note_on_c, 0, 68, 0
2,6939, Control_c, 0, 67, 106
2,6996, Control_c, 0, 67, 106
2,7112, Control_c, 0, 67, 105
2,7150, Control_c, 0, 64, 60
2,7150, Control_c, 0, 67, 105
2,7208, Control_c, 0, 64, 60
2,7228, Note_on_c, 0, 65, 41
2,7259, Note_on_c, 0, 66, 0
2,7265, Control_c, 0, 64, 59
2,7285, Control_c, 0, 64, 59
2,7304, Control_c, 0, 64, 58
2,7324, Control_c, 0, 64, 57
2,7342, Control_c, 0, 64, 55
2,7362, Control_c, 0, 64, 53
2,7381, Control_c, 0, 64, 52
2,7419, Control_c, 0, 67, 104
2,7438, Control_c, 0, 64, 53
2,7458, Control_c, 0, 64, 54
2,7458, Control_c, 0, 67, 104
2,7476, Control_c, 0, 64, 55
2,7476, Control_c, 0, 67, 103
2,7496, Control_c, 0, 64, 57
2,7496, Control_c, 0, 67, 103
2,7515, Control_c, 0, 64, 59
2,7515, Control_c, 0, 67, 102
2,7534, Control_c, 0, 64, 61
2,7534, Control_c, 0, 67, 98
2,7553, Control_c, 0, 64, 62
2,7553, Control_c, 0, 67, 90
2,7573, Control_c, 0, 64, 63
2,7573, Control_c, 0, 67, 80
2,7592, Control_c, 0, 64, 65
2,7592, Control_c, 0, 67, 68
2,7612, Control_c, 0, 64, 66
2,7612, Control_c, 0, 67, 60
2,7631, Control_c, 0, 64, 68
2,7631, Control_c, 0, 67, 55
2,7651, Control_c, 0, 64, 70
2,7651, Control_c, 0, 67, 51
2,7669, Control_c, 0, 64, 72
2,7669, Control_c, 0, 67, 48
2,7689, Control_c, 0, 64, 75
2,7689, Control_c, 0, 67, 46
2,7708, Control_c, 0, 64, 78
2,7708, Control_c, 0, 67, 42
2,7728, Control_c, 0, 64, 81
2,7728, Control_c, 0, 67, 37
2,7746, Control_c, 0, 64, 82
2,7746, Control_c, 0, 67, 31
2,7766, Control_c, 0, 67, 26
2,7785, Control_c, 0, 67, 20
2,7805, Control_c, 0, 64, 81
2,7805, Control_c, 0, 67, 14
2,7823, Control_c, 0, 67, 8
2,7843, Control_c, 0, 64, 81
2,7843, Control_c, 0, 67, 0
2,7880, Control_c, 0, 64, 80
2,7900, Control_c, 0, 64, 80
2,7919, Control_c, 0, 64, 79
2,7939, Control_c, 0, 64, 79
2,7957, Control_c, 0, 64, 78
2,7977, Control_c, 0, 64, 77
2,7996, Control_c, 0, 64, 76
2,8015, Control_c, 0, 64, 75
2,8023, Note_on_c, 0, 70, 54
2,8029, Note_on_c, 0, 63, 37
2,8034, Control_c, 0, 64, 74
2,8054, Control_c, 0, 64, 73
2,8064, Note_on_c, 0, 65, 0
2,8073, Control_c, 0, 64, 72
2,8092, Control_c, 0, 64, 69
2,8111, Control_c, 0, 64, 65
2,8131, Control_c, 0, 64, 62
2,8149, Control_c, 0, 64, 58
2,8169, Control_c, 0, 64, 55
2,8188, Control_c, 0, 64, 54
2,8226, Control_c, 0, 64, 55
2,8246, Control_c, 0, 64, 57
2,8265, Control_c, 0, 64, 59
2,8285, Control_c, 0, 64, 61
2,8303, Control_c, 0, 64, 63
2,8323, Control_c, 0, 64, 64
2,8342, Control_c, 0, 64, 65
2,8360, Control_c, 0, 64, 66
2,8380, Control_c, 0, 64, 67
2,8399, Control_c, 0, 64, 68
2,8419, Control_c, 0, 64, 69
2,8437, Control_c, 0, 64, 70
2,8457, Control_c, 0, 64, 72
2,8476, Control_c, 0, 64, 73
2,8495, Control_c, 0, 64, 74
2,8553, Control_c, 0, 64, 75
2,8629, Control_c, 0, 64, 74
2,8706, Control_c, 0, 64, 74
2,8745, Control_c, 0, 64, 73
2,8765, Control_c, 0, 64, 72
2,8783, Control_c, 0, 64, 72
2,8795, Note_on_c, 0, 75, 67
2,8840, Control_c, 0, 64, 71
2,8860, Control_c, 0, 64, 69
2,8879, Control_c, 0, 64, 66
2,8899, Control_c, 0, 64, 62
2,8917, Control_c, 0, 64, 60
2,8937, Control_c, 0, 64, 59
2,8943, Note_on_c, 0, 70, 0
2,9033, Control_c, 0, 64, 60
2,9052, Control_c, 0, 64, 61
2,9071, Control_c, 0, 64, 62
2,9091, Control_c, 0, 64, 63
2,9109, Control_c, 0, 64, 64
2,9129, Control_c, 0, 64, 64
2,9148, Control_c, 0, 64, 65
2,9163, Note_on_c, 0, 65, 45
2,9168, Control_c, 0, 64, 67
2,9172, Note_on_c, 0, 63, 0
2,9186, Control_c, 0, 64, 68
2,9206, Control_c, 0, 64, 70
2,9225, Control_c, 0, 64, 72
2,9245, Control_c, 0, 64, 74
2,9263, Control_c, 0, 64, 75
2,9283, Control_c, 0, 64, 75
2,9397, Control_c, 0, 64, 75
2,9417, Control_c, 0, 64, 74
2,9436, Control_c, 0, 64, 74
2,9455, Control_c, 0, 64, 72
2,9474, Control_c, 0, 64, 69
2,9494, Control_c, 0, 64, 65
2,9513, Control_c, 0, 64, 62
2,9532, Control_c, 0, 64, 59
2,9551, Control_c, 0, 64, 58
2,9589, Control_c, 0, 64, 58
2,9590, Note_on_c, 0, 65, 0
2,9590, Note_on_c, 0, 66, 49
2,9609, Control_c, 0, 64, 59
2,9628, Control_c, 0, 64, 60
2,9648, Control_c, 0, 64, 61
2,9666, Control_c, 0, 64, 62
2,9686, Control_c, 0, 64, 62
2,9705, Control_c, 0, 64, 63
2,9725, Control_c, 0, 64, 63
2,9743, Control_c, 0, 64, 64
2,9763, Control_c, 0, 64, 64
2,9782, Control_c, 0, 64, 65
2,9800, Control_c, 0, 64, 65
2,9820, Control_c, 0, 64, 66
2,9839, Control_c, 0, 64, 67
2,9859, Control_c, 0, 64, 69
2,9877, Control_c, 0, 64, 70
2,9897, Control_c, 0, 64, 71
2,9916, Control_c, 0, 64, 72
2,9976, Note_on_c, 0, 78, 66
2,10027, Note_on_c, 0, 75, 0
2,10204, Control_c, 0, 64, 72
2,10222, Control_c, 0, 64, 71
2,10261, Control_c, 0, 64, 71
2,10279, Control_c, 0, 64, 70
2,10299, Control_c, 0, 64, 69
2,10318, Control_c, 0, 64, 67
2,10338, Control_c, 0, 64, 64
2,10356, Control_c, 0, 64, 62
2,10363, Note_on_c, 0, 77, 60
2,10374, Note_on_c, 0, 68, 43
2,10376, Control_c, 0, 64, 61
2,10385, Note_on_c, 0, 66, 0
2,10472, Control_c, 0, 64, 62
2,10512, Control_c, 0, 64, 62
2,10627, Control_c, 0, 64, 63
2,10666, Control_c, 0, 64, 63
2,10685, Control_c, 0, 64, 64
2,10704, Control_c, 0, 64, 64
2,10724, Control_c, 0, 64, 65
2,10738, Note_on_c, 0, 75, 65
2,10743, Control_c, 0, 64, 66
2,10762, Control_c, 0, 64, 66
2,10787, Note_on_c, 0, 78, 0
2,10831, Note_on_c, 0, 77, 0
2,10974, Control_c, 0, 64, 66
2,11070, Control_c, 0, 64, 65
2,11090, Control_c, 0, 64, 65
2,11107, Note_on_c, 0, 70, 48
2,11108, Control_c, 0, 64, 64
2,11118, Note_on_c, 0, 73, 54
2,11128, Control_c, 0, 64, 63
2,11147, Control_c, 0, 64, 60
2,11148, Note_on_c, 0, 68, 0
2,11166, Control_c, 0, 64, 57
2,11175, Note_on_c, 0, 75, 0
2,11185, Control_c, 0, 64, 55
2,11205, Control_c, 0, 64, 55
2,11224, Control_c, 0, 64, 55
2,11243, Control_c, 0, 64, 56
2,11262, Control_c, 0, 64, 57
2,11282, Control_c, 0, 64, 58
2,11300, Control_c, 0, 64, 59
2,11319, Control_c, 0, 64, 59
2,11339, Control_c, 0, 64, 60
2,11358, Control_c, 0, 64, 61
2,11377, Control_c, 0, 64, 61
2,11396, Control_c, 0, 64, 62
2,11416, Control_c, 0, 64, 62
2,11434, Control_c, 0, 64, 63
2,11455, Control_c, 0, 64, 64
2,11474, Control_c, 0, 64, 64
2,11484, Note_on_c, 0, 75, 61
2,11494, Control_c, 0, 64, 65
2,11512, Control_c, 0, 64, 65
2,11532, Control_c, 0, 64, 66
2,11567, Note_on_c, 0, 73, 0
2,11570, Control_c, 0, 64, 66
2,11724, Control_c, 0, 64, 66
2,11763, Control_c, 0, 64, 65
2,11800, Control_c, 0, 64, 65
2,11820, Control_c, 0, 64, 64
2,11839, Control_c, 0, 64, 64
2,11858, Control_c, 0, 64, 63
2,11875, Control_c, 0, 64, 62
2,11888, Note_on_c, 0, 77, 52
2,11895, Control_c, 0, 64, 61
2,11905, Note_on_c, 0, 75, 0
2,11914, Control_c, 0, 64, 59
2,11933, Control_c, 0, 64, 58
2,11952, Control_c, 0, 64, 57
2,11972, Control_c, 0, 64, 56
2,12067, Control_c, 0, 64, 57
2,12087, Control_c, 0, 64, 58
2,12106, Control_c, 0, 64, 60
2,12125, Control_c, 0, 64, 61
2,12144, Control_c, 0, 64, 62
2,12164, Control_c, 0, 64, 63
2,12183, Control_c, 0, 64, 64
2,12201, Control_c, 0, 64, 65
2,12221, Control_c, 0, 64, 66
2,12229, Note_on_c, 0, 70, 0
2,12240, Control_c, 0, 64, 67
2,12249, Note_on_c, 0, 68, 43
2,12259, Control_c, 0, 64, 68
2,12278, Control_c, 0, 64, 70
2,12298, Control_c, 0, 64, 71
2,12317, Control_c, 0, 64, 72
2,12432, Control_c, 0, 64, 72
2,12490, Control_c, 0, 64, 71
2,12529, Control_c, 0, 64, 71
2,12547, Control_c, 0, 64, 70
2,12567, Control_c, 0, 64, 69
2,12586, Control_c, 0, 64, 69
2,12605, Control_c, 0, 64, 68
2,12619, Note_on_c, 0, 68, 0
2,12624, Control_c, 0, 64, 67
2,12630, Note_on_c, 0, 66, 39
2,12644, Control_c, 0, 64, 65
2,12650, Note_on_c, 0, 70, 49
2,12663, Control_c, 0, 64, 63
2,12681, Control_c, 0, 64, 61
2,12701, Control_c, 0, 64, 58
2,12720, Control_c, 0, 64, 57
2,12739, Control_c, 0, 64, 56
2,12757, Note_on_c, 0, 77, 0
2,12758, Control_c, 0, 64, 55
2,12853, Control_c, 0, 64, 56
2,12872, Control_c, 0, 64, 57
2,12891, Control_c, 0, 64, 58
2,12910, Control_c, 0, 64, 60
2,12930, Control_c, 0, 64, 61
2,12949, Control_c, 0, 64, 62
2,12968, Control_c, 0, 64, 63
2,12987, Control_c, 0, 64, 63
2,13007, Control_c, 0, 64, 64
2,13012, Note_on_c, 0, 66, 0
2,13016, Note_on_c, 0, 65, 47
2,13045, Control_c, 0, 64, 64
2,13102, Control_c, 0, 64, 64
2,13159, Control_c, 0, 64, 63
2,13179, Control_c, 0, 64, 62
2,13198, Control_c, 0, 64, 61
2,13218, Control_c, 0, 64, 59
2,13236, Control_c, 0, 64, 53
2,13256, Control_c, 0, 64, 32
2,13275, Control_c, 0, 64, 0
2,13384, Note_on_c, 0, 65, 0
2,13386, Note_on_c, 0, 66, 40
2,13407, Note_on_c, 0, 75, 68
2,13679, Control_c, 0, 64, 13
2,13699, Control_c, 0, 64, 39
2,13717, Control_c, 0, 64, 56
2,13737, Control_c, 0, 64, 61
2,13744, Note_on_c, 0, 65, 40
2,13756, Control_c, 0, 64, 62
2,13775, Control_c, 0, 64, 63
2,13784, Note_on_c, 0, 66, 0
2,13793, Control_c, 0, 64, 65
2,13813, Control_c, 0, 64, 67
2,13832, Control_c, 0, 64, 70
2,13851, Control_c, 0, 64, 72
2,13870, Control_c, 0, 64, 74
2,13890, Control_c, 0, 64, 75
2,13928, Note_on_c, 0, 63, 38
2,13941, Note_on_c, 0, 65, 0
2,13960, Note_on_c, 0, 70, 0
2,13967, Control_c, 0, 64, 74
2,13985, Control_c, 0, 64, 73
2,14005, Control_c, 0, 64, 71
2,14024, Control_c, 0, 64, 68
2,14044, Control_c, 0, 64, 66
2,14062, Control_c, 0, 64, 63
2,14081, Control_c, 0, 64, 60
2,14098, Note_on_c, 0, 63, 0
2,14101, Control_c, 0, 64, 57
2,14119, Control_c, 0, 64, 55
2,14135, Note_on_c, 0, 65, 47
2,14139, Control_c, 0, 64, 54
2,14158, Control_c, 0, 64, 55
2,14196, Control_c, 0, 64, 56
2,14216, Control_c, 0, 64, 57
2,14235, Control_c, 0, 64, 59
2,14254, Control_c, 0, 64, 61
2,14273, Control_c, 0, 64, 63
2,14293, Control_c, 0, 64, 64
2,14312, Control_c, 0, 64, 65
2,14334, Control_c, 0, 64, 66
2,14353, Control_c, 0, 64, 66
2,14373, Control_c, 0, 64, 67
2,14391, Control_c, 0, 64, 67
2,14468, Control_c, 0, 64, 67
2,14483, Note_on_c, 0, 70, 45
2,14487, Note_on_c, 0, 73, 59
2,14488, Control_c, 0, 64, 66
2,14507, Control_c, 0, 64, 65
2,14526, Control_c, 0, 64, 64
2,14545, Control_c, 0, 64, 62
2,14565, Control_c, 0, 64, 61
2,14584, Control_c, 0, 64, 60
2,14598, Note_on_c, 0, 65, 0
2,14603, Control_c, 0, 64, 58
2,14622, Control_c, 0, 64, 57
2,14624, Note_on_c, 0, 75, 0
2,14641, Control_c, 0, 64, 57
2,14737, Control_c, 0, 64, 57
2,14775, Control_c, 0, 64, 58
2,14852, Control_c, 0, 64, 58
2,14852, Note_on_c, 0, 72, 52
2,14919, Note_on_c, 0, 73, 0
2,14929, Control_c, 0, 64, 59
2,15063, Control_c, 0, 64, 59
2,15101, Control_c, 0, 64, 60
2,15120, Control_c, 0, 64, 61
2,15139, Control_c, 0, 64, 62
2,15158, Control_c, 0, 64, 63
2,15178, Control_c, 0, 64, 64
2,15197, Control_c, 0, 64, 66
2,15207, Note_on_c, 0, 70, 0
2,15208, Note_on_c, 0, 69, 44
2,15219, Control_c, 0, 64, 67
2,15238, Control_c, 0, 64, 70
2,15258, Control_c, 0, 64, 74
2,15277, Control_c, 0, 64, 77
2,15292, Control_c, 0, 64, 78
2,15331, Control_c, 0, 67, 8
2,15351, Control_c, 0, 64, 77
2,15351, Control_c, 0, 67, 20
2,15369, Control_c, 0, 64, 77
2,15369, Control_c, 0, 67, 34
2,15389, Control_c, 0, 64, 76
2,15389, Control_c, 0, 67, 49
2,15408, Control_c, 0, 64, 74
2,15408, Control_c, 0, 67, 65
2,15427, Control_c, 0, 64, 72
2,15427, Control_c, 0, 67, 78
2,15446, Control_c, 0, 64, 70
2,15446, Control_c, 0, 67, 87
2,15466, Control_c, 0, 64, 66
2,15466, Control_c, 0, 67, 92
2,15485, Control_c, 0, 64, 63
2,15485, Control_c, 0, 67, 93
2,15504, Control_c, 0, 64, 58
2,15523, Control_c, 0, 64, 55
2,15543, Control_c, 0, 64, 55
2,15562, Control_c, 0, 64, 55
2,15580, Note_on_c, 0, 70, 51
2,15594, Note_on_c, 0, 72, 0
2,15600, Control_c, 0, 67, 93
2,15620, Control_c, 0, 67, 92
2,15644, Note_on_c, 0, 69, 0
2,15677, Control_c, 0, 67, 92
2,15755, Control_c, 0, 67, 92
2,15793, Control_c, 0, 67, 93
2,15832, Control_c, 0, 67, 93
2,15967, Note_on_c, 0, 72, 33
2,16062, Control_c, 0, 64, 56
2,16101, Control_c, 0, 64, 56
2,16119, Control_c, 0, 64, 57
2,16119, Control_c, 0, 67, 94
2,16139, Control_c, 0, 64, 57
2,16139, Control_c, 0, 67, 94
2,16158, Control_c, 0, 64, 58
2,16158, Control_c, 0, 67, 96
2,16177, Control_c, 0, 64, 58
2,16177, Control_c, 0, 67, 97
2,16196, Control_c, 0, 67, 102
2,16216, Control_c, 0, 67, 109
2,16235, Control_c, 0, 67, 116
2,16253, Control_c, 0, 67, 125
2,16273, Control_c, 0, 67, 127
2,16292, Control_c, 0, 64, 58
2,16299, Note_on_c, 0, 73, 32
2,16318, Note_on_c, 0, 72, 0
2,16504, Control_c, 0, 64, 57
2,16542, Control_c, 0, 64, 57
2,16581, Control_c, 0, 64, 57
2,16599, Control_c, 0, 64, 58
2,16619, Control_c, 0, 64, 60
2,16638, Control_c, 0, 64, 62
2,16657, Control_c, 0, 64, 63
2,16674, Control_c, 0, 64, 64
2,16678, Note_on_c, 0, 68, 41
2,16693, Control_c, 0, 64, 66
2,16713, Control_c, 0, 64, 68
2,16732, Control_c, 0, 64, 70
2,16751, Control_c, 0, 64, 73
2,16770, Control_c, 0, 64, 75
2,16790, Control_c, 0, 64, 76
2,16867, Control_c, 0, 64, 75
2,16885, Control_c, 0, 64, 75
2,16890, Note_on_c, 0, 70, 0
2,16905, Control_c, 0, 64, 73
2,16924, Control_c, 0, 64, 70
2,16943, Control_c, 0, 64, 66
2,16962, Control_c, 0, 64, 63
2,16982, Control_c, 0, 64, 60
2,17001, Control_c, 0, 64, 59
2,17020, Control_c, 0, 64, 59
2,17039, Control_c, 0, 64, 60
2,17058, Note_on_c, 0, 67, 40
2,17059, Control_c, 0, 64, 62
2,17077, Control_c, 0, 64, 63
2,17097, Control_c, 0, 64, 64
2,17098, Note_on_c, 0, 68, 0
2,17116, Control_c, 0, 64, 65
2,17136, Control_c, 0, 64, 67
2,17154, Control_c, 0, 64, 68
2,17173, Control_c, 0, 64, 70
2,17193, Control_c, 0, 64, 71
2,17212, Control_c, 0, 64, 72
2,17250, Control_c, 0, 64, 72
2,17270, Control_c, 0, 64, 71
2,17288, Control_c, 0, 64, 68
2,17308, Control_c, 0, 64, 64
2,17327, Control_c, 0, 64, 61
2,17347, Control_c, 0, 64, 60
2,17365, Control_c, 0, 64, 61
2,17385, Control_c, 0, 64, 62
2,17404, Control_c, 0, 64, 64
2,17412, Note_on_c, 0, 63, 53
2,17423, Control_c, 0, 64, 65
2,17442, Control_c, 0, 64, 66
2,17442, Control_c, 0, 67, 127
2,17462, Control_c, 0, 64, 68
2,17462, Control_c, 0, 67, 126
2,17481, Control_c, 0, 64, 69
2,17481, Control_c, 0, 67, 126
2,17500, Control_c, 0, 64, 71
2,17500, Control_c, 0, 67, 125
2,17500, Note_on_c, 0, 67, 0
2,17519, Control_c, 0, 64, 72
2,17519, Control_c, 0, 67, 125
2,17539, Control_c, 0, 64, 73
2,17539, Control_c, 0, 67, 124
2,17557, Control_c, 0, 64, 73
2,17557, Control_c, 0, 67, 124
2,17577, Control_c, 0, 64, 73
2,17577, Control_c, 0, 67, 123
2,17596, Control_c, 0, 67, 122
2,17616, Control_c, 0, 64, 72
2,17616, Control_c, 0, 67, 121
2,17634, Control_c, 0, 67, 121
2,17692, Control_c, 0, 64, 72
2,17711, Control_c, 0, 64, 71
2,17711, Control_c, 0, 67, 120
2,17730, Control_c, 0, 64, 68
2,17750, Control_c, 0, 64, 64
2,17750, Control_c, 0, 67, 120
2,17768, Control_c, 0, 64, 57
2,17788, Control_c, 0, 64, 46
2,17788, Control_c, 0, 67, 119
2,17801, Note_on_c, 0, 68, 59
2,17807, Control_c, 0, 64, 40
2,17807, Control_c, 0, 67, 118
2,17827, Control_c, 0, 64, 42
2,17827, Control_c, 0, 67, 116
2,17845, Control_c, 0, 64, 51
2,17845, Control_c, 0, 67, 113
2,17865, Control_c, 0, 64, 59
2,17865, Control_c, 0, 67, 111
2,17884, Control_c, 0, 64, 62
2,17884, Control_c, 0, 67, 110
2,17903, Control_c, 0, 64, 64
2,17903, Control_c, 0, 67, 109
2,17922, Control_c, 0, 64, 65
2,17922, Control_c, 0, 67, 109
2,17942, Control_c, 0, 64, 66
2,17942, Control_c, 0, 67, 108
2,17961, Control_c, 0, 64, 67
2,17961, Control_c, 0, 67, 107
2,17980, Control_c, 0, 64, 68
2,17980, Control_c, 0, 67, 104
2,17999, Control_c, 0, 67, 101
2,18019, Control_c, 0, 64, 68
2,18019, Control_c, 0, 67, 97
2,18037, Control_c, 0, 64, 67
2,18037, Control_c, 0, 67, 94
2,18057, Control_c, 0, 64, 65
2,18057, Control_c, 0, 67, 92
2,18076, Control_c, 0, 64, 63
2,18076, Control_c, 0, 67, 91
2,18096, Control_c, 0, 64, 60
2,18114, Control_c, 0, 64, 60
2,18114, Control_c, 0, 67, 90
2,18133, Control_c, 0, 67, 90
2,18153, Control_c, 0, 64, 60
2,18172, Control_c, 0, 64, 61
2,18172, Control_c, 0, 67, 89
2,18179, Note_on_c, 0, 71, 54
2,18192, Control_c, 0, 64, 62
2,18192, Control_c, 0, 67, 88
2,18211, Control_c, 0, 64, 63
2,18211, Control_c, 0, 67, 85
2,18231, Control_c, 0, 64, 64
2,18231, Control_c, 0, 67, 82
2,18249, Control_c, 0, 64, 65
2,18249, Control_c, 0, 67, 78
2,18269, Control_c, 0, 64, 66
2,18269, Control_c, 0, 67, 72
2,18286, Note_on_c, 0, 73, 0
2,18288, Control_c, 0, 64, 66
2,18288, Control_c, 0, 67, 67
2,18307, Control_c, 0, 64, 67
2,18307, Control_c, 0, 67, 60
2,18326, Control_c, 0, 67, 55
2,18346, Control_c, 0, 64, 67
2,18346, Control_c, 0, 67, 50
2,18365, Control_c, 0, 67, 47
2,18384, Control_c, 0, 67, 43
2,18403, Control_c, 0, 67, 40
2,18423, Control_c, 0, 67, 36
2,18442, Control_c, 0, 67, 32
2,18461, Control_c, 0, 67, 27
2,18480, Control_c, 0, 67, 22
2,18500, Control_c, 0, 67, 16
2,18518, Control_c, 0, 67, 10
2,18532, Note_on_c, 0, 63, 0
2,18538, Control_c, 0, 64, 67
2,18538, Control_c, 0, 67, 0
2,18541, Note_on_c, 0, 70, 66
2,18548, Note_on_c, 0, 71, 0
2,18557, Control_c, 0, 64, 66
2,18577, Control_c, 0, 64, 65
2,18592, Control_c, 0, 64, 63
2,18611, Control_c, 0, 64, 61
2,18631, Control_c, 0, 64, 58
2,18650, Control_c, 0, 64, 55
2,18669, Control_c, 0, 64, 51
2,18688, Control_c, 0, 64, 50
2,18727, Control_c, 0, 64, 51
2,18746, Control_c, 0, 64, 53
2,18765, Control_c, 0, 64, 54
2,18785, Control_c, 0, 64, 56
2,18803, Control_c, 0, 64, 57
2,18823, Control_c, 0, 64, 59
2,18842, Control_c, 0, 64, 60
2,18862, Control_c, 0, 64, 61
2,18880, Control_c, 0, 64, 62
2,18897, Note_on_c, 0, 66, 53
2,18900, Control_c, 0, 64, 63
2,18919, Control_c, 0, 64, 64
2,18938, Control_c, 0, 64, 65
2,18957, Control_c, 0, 64, 65
2,18996, Control_c, 0, 64, 66
2,19022, Note_on_c, 0, 68, 0
2,19091, Control_c, 0, 64, 66
2,19111, Control_c, 0, 64, 67
2,19132, Control_c, 0, 64, 67
2,19191, Control_c, 0, 64, 66
2,19209, Control_c, 0, 64, 63
2,19229, Control_c, 0, 64, 58
2,19248, Control_c, 0, 64, 51
2,19266, Note_on_c, 0, 65, 42
2,19267, Control_c, 0, 64, 44
2,19285, Note_on_c, 0, 75, 73
2,19286, Control_c, 0, 64, 36
2,19306, Control_c, 0, 64, 31
2,19325, Control_c, 0, 64, 28
2,19338, Note_on_c, 0, 66, 0
2,19344, Control_c, 0, 64, 27
2,19440, Control_c, 0, 64, 28
2,19460, Control_c, 0, 64, 29
2,19478, Control_c, 0, 64, 31
2,19498, Control_c, 0, 64, 32
2,19517, Control_c, 0, 64, 34
2,19537, Control_c, 0, 64, 37
2,19554, Control_c, 0, 64, 41
2,19573, Control_c, 0, 64, 46
2,19593, Control_c, 0, 64, 50
2,19612, Control_c, 0, 64, 54
2,19622, Note_on_c, 0, 63, 57
2,19631, Control_c, 0, 64, 57
2,19643, Note_on_c, 0, 65, 0
2,19650, Control_c, 0, 64, 60
2,19670, Control_c, 0, 64, 62
2,19688, Control_c, 0, 64, 64
2,19708, Control_c, 0, 64, 66
2,19727, Control_c, 0, 64, 69
2,19747, Control_c, 0, 64, 73
2,19765, Control_c, 0, 64, 79
2,19785, Control_c, 0, 64, 88
2,19804, Control_c, 0, 64, 93
2,19823, Control_c, 0, 64, 96
2,19919, Control_c, 0, 64, 95
2,19939, Control_c, 0, 64, 95
2,19957, Control_c, 0, 64, 93
2,19977, Control_c, 0, 64, 90
2,19996, Control_c, 0, 64, 84
2,20016, Control_c, 0, 64, 76
2,20026, Note_on_c, 0, 65, 63
2,20034, Control_c, 0, 64, 68
2,20053, Control_c, 0, 64, 62
2,20073, Control_c, 0, 64, 59
2,20074, Note_on_c, 0, 63, 0
2,20096, Control_c, 0, 64, 58
2,20115, Control_c, 0, 64, 59
2,20153, Control_c, 0, 64, 58
2,20172, Control_c, 0, 64, 58
2,20192, Control_c, 0, 64, 57
2,20230, Control_c, 0, 64, 58
2,20249, Control_c, 0, 64, 58
2,20269, Control_c, 0, 64, 59
2,20307, Control_c, 0, 64, 59
2,20322, Note_on_c, 0, 70, 0
2,20326, Control_c, 0, 64, 60
2,20346, Control_c, 0, 64, 61
2,20364, Control_c, 0, 64, 62
2,20384, Control_c, 0, 64, 63
2,20403, Control_c, 0, 64, 64
2,20422, Control_c, 0, 64, 65
2,20425, Note_on_c, 0, 74, 70
2,20441, Control_c, 0, 64, 67
2,20461, Control_c, 0, 64, 68
2,20468, Note_on_c, 0, 75, 0
2,20480, Control_c, 0, 64, 69
2,20499, Control_c, 0, 64, 70
2,20517, Control_c, 0, 64, 71
2,20537, Control_c, 0, 64, 72
2,20556, Control_c, 0, 64, 73
2,20574, Control_c, 0, 64, 74
2,20690, Control_c, 0, 64, 74
2,20709, Control_c, 0, 64, 73
2,20728, Control_c, 0, 64, 72
2,20748, Control_c, 0, 64, 71
2,20767, Control_c, 0, 64, 69
2,20786, Control_c, 0, 64, 67
2,20805, Control_c, 0, 64, 65
2,20817, Note_on_c, 0, 65, 0
2,20825, Control_c, 0, 64, 63
2,20825, Note_on_c, 0, 66, 67
2,20830, Note_on_c, 0, 75, 66
2,20843, Control_c, 0, 64, 59
2,20863, Control_c, 0, 64, 52
2,20882, Control_c, 0, 64, 42
2,20902, Control_c, 0, 64, 40
2,20940, Control_c, 0, 64, 44
2,20959, Control_c, 0, 64, 49
2,20978, Control_c, 0, 64, 54
2,20997, Control_c, 0, 64, 57
2,21017, Control_c, 0, 64, 60
2,21036, Control_c, 0, 64, 62
2,21052, Control_c, 0, 64, 63
2,21072, Control_c, 0, 64, 64
2,21091, Control_c, 0, 64, 66
2,21111, Control_c, 0, 64, 69
2,21129, Control_c, 0, 64, 73
2,21149, Control_c, 0, 64, 84
2,21168, Control_c, 0, 64, 99
2,21172, Note_on_c, 0, 77, 71
2,21176, Note_on_c, 0, 66, 0
2,21178, Note_on_c, 0, 68, 67
2,21187, Control_c, 0, 64, 127
2,21217, Note_on_c, 0, 74, 0
2,21280, Note_on_c, 0, 75, 0
2,21290, Note_on_c, 0, 68, 0
2,21299, Note_on_c, 0, 77, 0
2,21595, Note_on_c, 0, 51, 71
2,21629, Control_c, 0, 64, 108
2,21634, Note_on_c, 0, 78, 56
2,21637, Note_on_c, 0, 70, 53
2,21648, Control_c, 0, 64, 96
2,21667, Control_c, 0, 64, 85
2,21686, Control_c, 0, 64, 77
2,21706, Control_c, 0, 64, 69
2,21725, Control_c, 0, 64, 64
2,21744, Control_c, 0, 64, 60
2,21763, Control_c, 0, 64, 57
2,21783, Control_c, 0, 64, 57
2,21802, Control_c, 0, 64, 56
2,21821, Control_c, 0, 64, 55
2,21840, Control_c, 0, 64, 54
2,21974, Control_c, 0, 64, 55
2,21994, Control_c, 0, 64, 55
2,22012, Control_c, 0, 64, 57
2,22032, Control_c, 0, 64, 57
2,22051, Control_c, 0, 64, 59
2,22063, Note_on_c, 0, 72, 52
2,22071, Control_c, 0, 64, 61
2,22073, Note_on_c, 0, 70, 0
2,22089, Control_c, 0, 64, 63
2,22109, Control_c, 0, 64, 65
2,22128, Control_c, 0, 64, 67
2,22144, Note_on_c, 0, 72, 0
2,22147, Control_c, 0, 64, 69
2,22166, Control_c, 0, 64, 73
2,22186, Control_c, 0, 64, 77
2,22205, Control_c, 0, 64, 81
2,22224, Control_c, 0, 64, 84
2,22243, Control_c, 0, 64, 85
2,22265, Note_on_c, 0, 78, 0
2,22320, Control_c, 0, 64, 85
2,22340, Control_c, 0, 64, 84
2,22358, Control_c, 0, 64, 84
2,22378, Control_c, 0, 64, 83
2,22397, Control_c, 0, 64, 83
2,22435, Control_c, 0, 64, 82
2,22454, Control_c, 0, 64, 82
2,22474, Control_c, 0, 64, 81
2,22492, Control_c, 0, 64, 80
2,22506, Note_on_c, 0, 58, 75
2,22512, Control_c, 0, 64, 78
2,22530, Note_on_c, 0, 77, 52
2,22531, Control_c, 0, 64, 76
2,22551, Control_c, 0, 64, 75
2,22556, Note_on_c, 0, 74, 37
2,22569, Control_c, 0, 64, 72
2,22589, Control_c, 0, 64, 68
2,22608, Control_c, 0, 64, 65
2,22627, Control_c, 0, 64, 61
2,22646, Control_c, 0, 64, 57
2,22666, Control_c, 0, 64, 54
2,22685, Control_c, 0, 64, 53
2,22704, Control_c, 0, 64, 53
2,22781, Control_c, 0, 64, 53
2,22800, Control_c, 0, 64, 54
2,22820, Control_c, 0, 64, 55
2,22838, Control_c, 0, 64, 56
2,22858, Control_c, 0, 64, 57
2,22877, Control_c, 0, 64, 59
2,22897, Control_c, 0, 64, 62
2,22915, Control_c, 0, 64, 64
2,22934, Control_c, 0, 64, 66
2,22954, Control_c, 0, 64, 67
2,22962, Note_on_c, 0, 78, 58
2,22963, Note_on_c, 0, 75, 54
2,22968, Note_on_c, 0, 74, 0
2,22978, Control_c, 0, 64, 69
2,22997, Control_c, 0, 64, 71
2,22998, Note_on_c, 0, 77, 0
2,23017, Control_c, 0, 64, 73
2,23035, Control_c, 0, 64, 73
2,23074, Control_c, 0, 64, 73
2,23131, Control_c, 0, 64, 72
2,23189, Control_c, 0, 64, 72
2,23227, Control_c, 0, 64, 71
2,23246, Control_c, 0, 64, 71
2,23266, Control_c, 0, 64, 67
2,23274, Note_on_c, 0, 51, 0
2,23285, Control_c, 0, 64, 63
2,23304, Control_c, 0, 64, 60
2,23310, Note_on_c, 0, 78, 0
2,23319, Note_on_c, 0, 77, 45
2,23321, Note_on_c, 0, 80, 58
2,23323, Control_c, 0, 64, 59
2,23343, Control_c, 0, 64, 61
2,23362, Control_c, 0, 64, 64
2,23381, Control_c, 0, 64, 66
2,23395, Control_c, 0, 64, 69
2,23414, Control_c, 0, 64, 73
2,23428, Note_on_c, 0, 75, 0
2,23434, Control_c, 0, 64, 77
2,23452, Control_c, 0, 64, 81
2,23472, Control_c, 0, 64, 83
2,23549, Control_c, 0, 64, 82
2,23551, Note_on_c, 0, 77, 0
2,23568, Control_c, 0, 64, 81
2,23587, Control_c, 0, 64, 80
2,23606, Control_c, 0, 64, 78
2,23626, Control_c, 0, 64, 74
2,23645, Control_c, 0, 64, 67
2,23664, Control_c, 0, 64, 61
2,23683, Control_c, 0, 64, 49
2,23692, Note_on_c, 0, 59, 64
2,23703, Control_c, 0, 64, 45
2,23715, Note_on_c, 0, 77, 50
2,23717, Note_on_c, 0, 74, 41
2,23722, Control_c, 0, 64, 48
2,23732, Note_on_c, 0, 58, 0
2,23741, Control_c, 0, 64, 55
2,23760, Control_c, 0, 64, 62
2,23780, Control_c, 0, 64, 64
2,23798, Control_c, 0, 64, 66
2,23818, Control_c, 0, 64, 67
2,23837, Control_c, 0, 64, 68
2,23857, Control_c, 0, 64, 69
2,23875, Control_c, 0, 64, 70
2,23907, Note_on_c, 0, 80, 0
2,23953, Control_c, 0, 64, 69
2,23972, Control_c, 0, 64, 66
2,23992, Control_c, 0, 64, 63
2,24010, Control_c, 0, 64, 59
2,24030, Control_c, 0, 64, 57
2,24049, Control_c, 0, 64, 58
2,24052, Note_on_c, 0, 58, 61
2,24068, Control_c, 0, 64, 62
2,24082, Note_on_c, 0, 78, 55
2,24087, Control_c, 0, 64, 64
2,24087, Note_on_c, 0, 74, 0
2,24098, Note_on_c, 0, 75, 46
2,24107, Control_c, 0, 64, 67
2,24122, Note_on_c, 0, 59, 0
2,24126, Control_c, 0, 64, 69
2,24145, Control_c, 0, 64, 71
2,24164, Control_c, 0, 64, 74
2,24166, Note_on_c, 0, 77, 0
2,24184, Control_c, 0, 64, 76
2,24202, Control_c, 0, 64, 77
2,24279, Control_c, 0, 64, 76
2,24299, Control_c, 0, 64, 75
2,24318, Control_c, 0, 64, 72
2,24338, Control_c, 0, 64, 66
2,24353, Control_c, 0, 64, 57
2,24372, Control_c, 0, 64, 36
2,24392, Control_c, 0, 64, 0
2,24394, Note_on_c, 0, 56, 69
2,24406, Note_on_c, 0, 77, 49
2,24408, Note_on_c, 0, 80, 51
2,24449, Control_c, 0, 64, 35
2,24469, Control_c, 0, 64, 58
2,24470, Note_on_c, 0, 58, 0
2,24472, Note_on_c, 0, 75, 0
2,24487, Control_c, 0, 64, 64
2,24507, Control_c, 0, 64, 67
2,24519, Note_on_c, 0, 77, 0
2,24520, Note_on_c, 0, 78, 0
2,24526, Control_c, 0, 64, 70
2,24529, Note_on_c, 0, 80, 0
2,24546, Control_c, 0, 64, 73
2,24564, Control_c, 0, 64, 76
2,24584, Control_c, 0, 64, 78
2,24603, Control_c, 0, 64, 78
2,24641, Control_c, 0, 64, 78
2,24680, Control_c, 0, 64, 77
2,24699, Control_c, 0, 64, 76
2,24718, Control_c, 0, 64, 72
2,24738, Control_c, 0, 64, 66
2,24757, Control_c, 0, 64, 58
2,24757, Note_on_c, 0, 54, 61
2,24773, Note_on_c, 0, 56, 0
2,24776, Control_c, 0, 64, 39
2,24781, Note_on_c, 0, 82, 51
2,24789, Note_on_c, 0, 78, 43
2,24795, Control_c, 0, 64, 20
2,24814, Control_c, 0, 64, 22
2,24833, Control_c, 0, 64, 38
2,24852, Control_c, 0, 64, 54
2,24872, Control_c, 0, 64, 61
2,24893, Control_c, 0, 64, 63
2,24913, Control_c, 0, 64, 63
2,25009, Control_c, 0, 64, 63
2,25028, Control_c, 0, 64, 61
2,25047, Control_c, 0, 64, 58
2,25067, Control_c, 0, 64, 52
2,25086, Control_c, 0, 64, 47
2,25123, Note_on_c, 0, 56, 61
2,25124, Control_c, 0, 64, 52
2,25131, Note_on_c, 0, 80, 58
2,25144, Control_c, 0, 64, 59
2,25147, Note_on_c, 0, 77, 45
2,25162, Control_c, 0, 64, 63
2,25182, Control_c, 0, 64, 65
2,25191, Note_on_c, 0, 54, 0
2,25201, Control_c, 0, 64, 67
2,25202, Note_on_c, 0, 78, 0
2,25221, Control_c, 0, 64, 68
2,25239, Control_c, 0, 64, 69
2,25315, Control_c, 0, 64, 68
2,25334, Control_c, 0, 64, 68
2,25354, Control_c, 0, 64, 67
2,25372, Control_c, 0, 64, 67
2,25397, Note_on_c, 0, 82, 0
2,25411, Control_c, 0, 64, 66
2,25431, Control_c, 0, 64, 66
2,25449, Control_c, 0, 64, 65
2,25469, Control_c, 0, 64, 64
2,25488, Control_c, 0, 64, 63
2,25507, Control_c, 0, 64, 61
2,25526, Control_c, 0, 64, 60
2,25541, Note_on_c, 0, 58, 56
2,25546, Control_c, 0, 64, 57
2,25565, Control_c, 0, 64, 55
2,25575, Note_on_c, 0, 78, 42
2,25580, Note_on_c, 0, 77, 0
2,25581, Note_on_c, 0, 75, 32
2,25584, Control_c, 0, 64, 52
2,25599, Note_on_c, 0, 56, 0
2,25603, Control_c, 0, 64, 50
2,25623, Control_c, 0, 64, 49
2,25680, Control_c, 0, 64, 49
2,25700, Control_c, 0, 64, 50
2,25718, Control_c, 0, 64, 52
2,25738, Control_c, 0, 64, 55
2,25757, Control_c, 0, 64, 57
2,25777, Control_c, 0, 64, 60
2,25795, Control_c, 0, 64, 61
2,25814, Control_c, 0, 64, 63
2,25841, Control_c, 0, 64, 64
2,25852, Note_on_c, 0, 75, 0
2,25861, Control_c, 0, 64, 66
2,25880, Control_c, 0, 64, 67
2,25899, Control_c, 0, 64, 68
2,25918, Control_c, 0, 64, 71
2,25938, Control_c, 0, 64, 75
2,25943, Note_on_c, 0, 74, 29
2,25944, Note_on_c, 0, 77, 46
2,25957, Control_c, 0, 64, 80
2,25975, Control_c, 0, 64, 85
2,25995, Control_c, 0, 64, 87
2,26036, Note_on_c, 0, 80, 0
2,26046, Note_on_c, 0, 77, 0
2,26065, Note_on_c, 0, 78, 0
2,26091, Control_c, 0, 64, 86
2,26129, Control_c, 0, 64, 86
2,26167, Control_c, 0, 64, 85
2,26187, Control_c, 0, 64, 84
2,26206, Control_c, 0, 64, 82
2,26226, Control_c, 0, 64, 82
2,26264, Control_c, 0, 64, 81
2,26274, Control_c, 0, 64, 80
2,26293, Control_c, 0, 64, 79
2,26313, Control_c, 0, 64, 78
2,26332, Control_c, 0, 64, 78
2,26350, Note_on_c, 0, 74, 0
2,26351, Control_c, 0, 64, 77
2,26370, Control_c, 0, 64, 74
2,26375, Note_on_c, 0, 78, 37
2,26378, Note_on_c, 0, 51, 36
2,26390, Control_c, 0, 64, 71
2,26399, Note_on_c, 0, 75, 32
2,26408, Control_c, 0, 64, 66
2,26428, Control_c, 0, 64, 63
2,26447, Control_c, 0, 64, 59
2,26467, Control_c, 0, 64, 57
2,26524, Control_c, 0, 64, 59
2,26543, Control_c, 0, 64, 61
2,26562, Control_c, 0, 64, 63
2,26571, Note_on_c, 0, 58, 0
2,26582, Control_c, 0, 64, 64
2,26601, Control_c, 0, 64, 66
2,26620, Control_c, 0, 64, 67
2,26639, Control_c, 0, 64, 69
2,26659, Control_c, 0, 64, 73
2,26677, Control_c, 0, 64, 77
2,26697, Control_c, 0, 64, 83
2,26716, Control_c, 0, 64, 89
2,26735, Control_c, 0, 64, 94
2,26752, Note_on_c, 0, 73, 53
2,26754, Control_c, 0, 64, 96
2,26782, Note_on_c, 0, 78, 0
2,26802, Note_on_c, 0, 75, 0
2,26854, Note_on_c, 0, 73, 0
2,26889, Control_c, 0, 64, 95
2,26909, Control_c, 0, 64, 94
2,26928, Control_c, 0, 64, 93
2,26947, Control_c, 0, 64, 92
2,26966, Control_c, 0, 64, 91
2,26986, Control_c, 0, 64, 90
2,27005, Control_c, 0, 64, 90
2,27024, Control_c, 0, 64, 89
2,27043, Control_c, 0, 64, 87
2,27063, Control_c, 0, 64, 86
2,27082, Control_c, 0, 64, 85
2,27101, Control_c, 0, 64, 84
2,27120, Control_c, 0, 64, 84
2,27140, Control_c, 0, 64, 82
2,27158, Control_c, 0, 64, 79
2,27166, Note_on_c, 0, 56, 53
2,27178, Control_c, 0, 64, 76
2,27191, Note_on_c, 0, 77, 46
2,27197, Control_c, 0, 64, 72
2,27211, Note_on_c, 0, 51, 0
2,27217, Control_c, 0, 64, 68
2,27233, Note_on_c, 0, 71, 29
2,27235, Control_c, 0, 64, 66
2,27254, Control_c, 0, 64, 63
2,27274, Control_c, 0, 64, 60
2,27292, Control_c, 0, 64, 57
2,27312, Control_c, 0, 64, 56
2,27331, Control_c, 0, 64, 55
2,27389, Control_c, 0, 64, 56
2,27427, Control_c, 0, 64, 56
2,27446, Control_c, 0, 64, 57
2,27466, Control_c, 0, 64, 57
2,27485, Control_c, 0, 64, 59
2,27504, Control_c, 0, 64, 61
2,27523, Control_c, 0, 64, 62
2,27543, Control_c, 0, 64, 64
2,27562, Control_c, 0, 64, 65
2,27581, Control_c, 0, 64, 66
2,27585, Note_on_c, 0, 75, 50
2,27600, Control_c, 0, 64, 68
2,27620, Control_c, 0, 64, 71
2,27638, Control_c, 0, 64, 73
2,27651, Note_on_c, 0, 77, 0
2,27658, Control_c, 0, 64, 76
2,27677, Control_c, 0, 64, 78
2,27697, Control_c, 0, 64, 78
2,27810, Note_on_c, 0, 71, 0
2,27889, Control_c, 0, 64, 77
2,27908, Control_c, 0, 64, 74
2,27927, Control_c, 0, 64, 70
2,27947, Control_c, 0, 64, 66
2,27948, Note_on_c, 0, 74, 44
2,27961, Note_on_c, 0, 70, 37
2,27966, Control_c, 0, 64, 63
2,27995, Note_on_c, 0, 75, 0
2,28004, Control_c, 0, 64, 64
2,28024, Control_c, 0, 64, 65
2,28042, Control_c, 0, 64, 66
2,28062, Control_c, 0, 64, 68
2,28081, Control_c, 0, 64, 70
2,28101, Control_c, 0, 64, 73
2,28119, Control_c, 0, 64, 75
2,28139, Control_c, 0, 64, 76
2,28158, Control_c, 0, 64, 75
2,28178, Control_c, 0, 64, 72
2,28195, Control_c, 0, 64, 68
2,28214, Control_c, 0, 64, 65
2,28234, Control_c, 0, 64, 66
2,28252, Control_c, 0, 64, 67
2,28272, Control_c, 0, 64, 68
2,28291, Control_c, 0, 64, 70
2,28311, Control_c, 0, 64, 72
2,28315, Note_on_c, 0, 54, 47
2,28329, Control_c, 0, 64, 74
2,28330, Note_on_c, 0, 75, 48
2,28349, Control_c, 0, 64, 75
2,28387, Control_c, 0, 64, 74
2,28390, Note_on_c, 0, 74, 0
2,28406, Control_c, 0, 64, 74
2,28409, Note_on_c, 0, 70, 0
2,28445, Control_c, 0, 64, 73
2,28464, Control_c, 0, 64, 73
2,28483, Control_c, 0, 64, 72
2,28503, Control_c, 0, 64, 72
2,28541, Control_c, 0, 64, 71
2,28560, Control_c, 0, 64, 71
2,28580, Control_c, 0, 64, 70
2,28598, Control_c, 0, 64, 69
2,28645, Note_on_c, 0, 56, 0
2,28657, Control_c, 0, 64, 68
2,28675, Control_c, 0, 64, 68
2,28694, Control_c, 0, 64, 66
2,28712, Note_on_c, 0, 53, 52
2,28714, Control_c, 0, 64, 65
2,28717, Note_on_c, 0, 68, 48
2,28732, Control_c, 0, 64, 63
2,28751, Note_on_c, 0, 54, 0
2,28752, Control_c, 0, 64, 61
2,28771, Control_c, 0, 64, 56
2,28791, Control_c, 0, 64, 51
2,28809, Control_c, 0, 64, 48
2,28848, Control_c, 0, 64, 49
2,28867, Control_c, 0, 64, 50
2,28886, Control_c, 0, 64, 52
2,28906, Control_c, 0, 64, 54
2,28925, Control_c, 0, 64, 56
2,28944, Control_c, 0, 64, 58
2,28963, Control_c, 0, 64, 60
2,28983, Control_c, 0, 64, 62
2,29002, Control_c, 0, 64, 63
2,29021, Control_c, 0, 64, 64
2,29040, Control_c, 0, 64, 64
2,29060, Control_c, 0, 64, 65
2,29078, Control_c, 0, 64, 66
2,29098, Control_c, 0, 64, 67
2,29107, Note_on_c, 0, 74, 50
2,29117, Control_c, 0, 64, 69
2,29130, Note_on_c, 0, 75, 0
2,29137, Control_c, 0, 64, 71
2,29156, Control_c, 0, 64, 73
2,29175, Control_c, 0, 64, 73
2,29272, Control_c, 0, 64, 73
2,29287, Note_on_c, 0, 68, 0
2,29367, Control_c, 0, 64, 72
2,29395, Note_on_c, 0, 74, 0
2,29406, Control_c, 0, 64, 72
2,29425, Control_c, 0, 64, 71
2,29444, Control_c, 0, 64, 71
2,29464, Control_c, 0, 64, 70
2,29477, Note_on_c, 0, 53, 0
2,29482, Control_c, 0, 64, 68
2,29492, Note_on_c, 0, 51, 44
2,29502, Control_c, 0, 64, 65
2,29506, Note_on_c, 0, 75, 45
2,29521, Control_c, 0, 64, 61
2,29528, Note_on_c, 0, 66, 40
2,29541, Control_c, 0, 64, 56
2,29559, Control_c, 0, 64, 52
2,29579, Control_c, 0, 64, 51
2,29598, Control_c, 0, 64, 53
2,29618, Control_c, 0, 64, 56
2,29636, Control_c, 0, 64, 60
2,29655, Control_c, 0, 64, 62
2,29675, Control_c, 0, 64, 64
2,29695, Control_c, 0, 64, 66
2,29715, Control_c, 0, 64, 67
2,29734, Control_c, 0, 64, 68
2,29753, Control_c, 0, 64, 70
2,29772, Control_c, 0, 64, 72
2,29792, Control_c, 0, 64, 72
2,29811, Control_c, 0, 64, 73
2,29902, Note_on_c, 0, 73, 60
2,29907, Control_c, 0, 64, 73
2,29926, Control_c, 0, 64, 74
2,29946, Control_c, 0, 64, 75
2,29964, Control_c, 0, 64, 76
2,30115, Control_c, 0, 64, 76
2,30154, Control_c, 0, 64, 75
2,30156, Note_on_c, 0, 66, 0
2,30172, Control_c, 0, 64, 75
2,30192, Control_c, 0, 64, 74
2,30211, Control_c, 0, 64, 73
2,30231, Control_c, 0, 64, 71
2,30249, Control_c, 0, 64, 69
2,30269, Control_c, 0, 64, 66
2,30279, Note_on_c, 0, 63, 63
2,30285, Note_on_c, 0, 71, 48
2,30288, Control_c, 0, 64, 62
2,30298, Note_on_c, 0, 68, 47
2,30307, Control_c, 0, 64, 56
2,30326, Control_c, 0, 64, 49
2,30346, Control_c, 0, 64, 45
2,30365, Control_c, 0, 64, 45
2,30384, Control_c, 0, 64, 50
2,30390, Note_on_c, 0, 73, 0
2,30403, Control_c, 0, 64, 57
2,30422, Note_on_c, 0, 75, 0
2,30423, Control_c, 0, 64, 62
2,30442, Control_c, 0, 64, 64
2,30461, Control_c, 0, 64, 65
2,30465, Note_on_c, 0, 51, 0
2,30480, Control_c, 0, 64, 66
2,30500, Control_c, 0, 64, 68
2,30518, Control_c, 0, 64, 69
2,30538, Control_c, 0, 64, 70
2,30557, Control_c, 0, 64, 72
2,30577, Control_c, 0, 64, 74
2,30595, Control_c, 0, 64, 75
2,30614, Control_c, 0, 64, 77
2,30634, Control_c, 0, 64, 78
2,30652, Control_c, 0, 64, 80
2,30666, Note_on_c, 0, 66, 59
2,30671, Control_c, 0, 64, 81
2,30690, Control_c, 0, 64, 82
2,30710, Control_c, 0, 64, 83
2,30717, Note_on_c, 0, 68, 0
2,30755, Note_on_c, 0, 63, 0
2,30787, Control_c, 0, 64, 84
2,30824, Note_on_c, 0, 71, 0
2,30863, Control_c, 0, 64, 84
2,30878, Note_on_c, 0, 66, 0
2,30921, Control_c, 0, 64, 84
2,30959, Control_c, 0, 64, 83
2,30979, Control_c, 0, 64, 83
2,30997, Control_c, 0, 64, 82
2,31016, Control_c, 0, 64, 82
2,31036, Control_c, 0, 64, 81
2,31055, Control_c, 0, 64, 81
2,31074, Control_c, 0, 64, 80
2,31093, Control_c, 0, 64, 79
2,31106, Note_on_c, 0, 65, 39
2,31107, Note_on_c, 0, 62, 54
2,31113, Control_c, 0, 64, 79
2,31132, Control_c, 0, 64, 77
2,31151, Control_c, 0, 64, 73
2,31170, Control_c, 0, 64, 67
2,31190, Control_c, 0, 64, 61
2,31208, Control_c, 0, 64, 55
2,31228, Control_c, 0, 64, 53
2,31247, Control_c, 0, 64, 54
2,31267, Control_c, 0, 64, 55
2,31285, Control_c, 0, 64, 58
2,31305, Control_c, 0, 64, 60
2,31324, Control_c, 0, 64, 62
2,31343, Control_c, 0, 64, 63
2,31362, Control_c, 0, 64, 64
2,31382, Control_c, 0, 64, 65
2,31401, Control_c, 0, 64, 66
2,31420, Control_c, 0, 64, 67
2,31439, Control_c, 0, 64, 68
2,31459, Control_c, 0, 64, 70
2,31477, Control_c, 0, 64, 72
2,31496, Control_c, 0, 64, 75
2,31514, Note_on_c, 0, 70, 44
2,31516, Control_c, 0, 64, 78
2,31535, Control_c, 0, 64, 82
2,31554, Control_c, 0, 64, 84
2,31595, Note_on_c, 0, 62, 0
2,31635, Note_on_c, 0, 65, 0
2,31661, Note_on_c, 0, 70, 0
2,31671, Control_c, 0, 64, 83
2,31680, Note_on_c, 0, 68, 49
2,31709, Control_c, 0, 64, 83
2,31786, Control_c, 0, 64, 82
2,31805, Control_c, 0, 64, 82
2,31824, Control_c, 0, 64, 80
2,31843, Control_c, 0, 64, 77
2,31863, Control_c, 0, 64, 71
2,31879, Note_on_c, 0, 70, 41
2,31882, Control_c, 0, 64, 65
2,31887, Note_on_c, 0, 61, 43
2,31901, Control_c, 0, 64, 61
2,31902, Note_on_c, 0, 68, 0
2,31920, Control_c, 0, 64, 60
2,31940, Control_c, 0, 64, 61
2,31958, Control_c, 0, 64, 63
2,31978, Control_c, 0, 64, 64
2,31997, Control_c, 0, 64, 65
2,32016, Control_c, 0, 64, 67
2,32034, Control_c, 0, 64, 69
2,32053, Control_c, 0, 64, 72
2,32073, Control_c, 0, 64, 74
2,32092, Control_c, 0, 64, 75
2,32150, Control_c, 0, 64, 76
2,32203, Note_on_c, 0, 70, 0
2,32242, Note_on_c, 0, 63, 34
2,32249, Note_on_c, 0, 71, 55
2,32326, Note_on_c, 0, 63, 0
2,32342, Control_c, 0, 64, 75
2,32399, Control_c, 0, 64, 75
2,32411, Note_on_c, 0, 73, 53
2,32424, Note_on_c, 0, 65, 21
2,32437, Control_c, 0, 64, 74
2,32463, Note_on_c, 0, 61, 0
2,32485, Note_on_c, 0, 71, 0
2,32486, Note_on_c, 0, 65, 0
2,32514, Control_c, 0, 64, 74
2,32533, Control_c, 0, 64, 73
2,32553, Control_c, 0, 64, 68
2,32572, Control_c, 0, 64, 62
2,32587, Note_on_c, 0, 60, 49
2,32587, Note_on_c, 0, 75, 68
2,32591, Control_c, 0, 64, 56
2,32609, Note_on_c, 0, 66, 47
2,32610, Control_c, 0, 64, 53
2,32630, Control_c, 0, 64, 54
2,32648, Control_c, 0, 64, 58
2,32668, Control_c, 0, 64, 61
2,32687, Control_c, 0, 64, 64
2,32707, Control_c, 0, 64, 66
2,32725, Control_c, 0, 64, 68
2,32745, Control_c, 0, 64, 71
2,32764, Control_c, 0, 64, 73
2,32783, Control_c, 0, 64, 76
2,32802, Control_c, 0, 64, 77
2,32822, Control_c, 0, 64, 78
2,32841, Control_c, 0, 64, 78
2,32842, Note_on_c, 0, 73, 0
2,32879, Control_c, 0, 64, 79
2,32917, Control_c, 0, 64, 79
2,32936, Control_c, 0, 64, 80
2,32941, Note_on_c, 0, 77, 66
2,32956, Control_c, 0, 64, 80
2,32957, Note_on_c, 0, 68, 44
2,32975, Note_on_c, 0, 60, 0
2,32979, Note_on_c, 0, 75, 0
2,32992, Note_on_c, 0, 68, 0
2,33094, Note_on_c, 0, 77, 0
2,33100, Note_on_c, 0, 78, 70
2,33101, Note_on_c, 0, 70, 53
2,33127, Control_c, 0, 64, 81
2,33146, Control_c, 0, 64, 81
2,33154, Note_on_c, 0, 66, 0
2,33160, Note_on_c, 0, 70, 0
2,33165, Control_c, 0, 64, 83
2,33220, Note_on_c, 0, 78, 0
2,33262, Control_c, 0, 64, 82
2,33280, Control_c, 0, 64, 82
2,33300, Control_c, 0, 64, 81
2,33319, Control_c, 0, 64, 80
2,33338, Control_c, 0, 64, 78
2,33342, Note_on_c, 0, 59, 41
2,33355, Note_on_c, 0, 77, 68
2,33357, Control_c, 0, 64, 75
2,33376, Control_c, 0, 64, 69
2,33376, Note_on_c, 0, 68, 53
2,33396, Control_c, 0, 64, 61
2,33414, Control_c, 0, 64, 49
2,33434, Control_c, 0, 64, 41
2,33453, Control_c, 0, 64, 42
2,33472, Control_c, 0, 64, 51
2,33491, Control_c, 0, 64, 59
2,33511, Control_c, 0, 64, 63
2,33531, Control_c, 0, 64, 66
2,33550, Control_c, 0, 64, 69
2,33569, Control_c, 0, 64, 72
2,33589, Control_c, 0, 64, 75
2,33607, Control_c, 0, 64, 78
2,33627, Control_c, 0, 64, 79
2,33649, Note_on_c, 0, 68, 0
2,33653, Note_on_c, 0, 77, 0
2,33712, Note_on_c, 0, 59, 0
2,33781, Control_c, 0, 64, 79
2,33827, Note_on_c, 0, 75, 54
2,33835, Note_on_c, 0, 66, 51
2,33858, Control_c, 0, 64, 79
2,33892, Note_on_c, 0, 75, 0
2,33925, Note_on_c, 0, 68, 51
2,33953, Control_c, 0, 64, 77
2,33972, Control_c, 0, 64, 73
2,33992, Control_c, 0, 64, 66
2,34011, Control_c, 0, 64, 58
2,34013, Note_on_c, 0, 66, 0
2,34030, Control_c, 0, 64, 44
2,34033, Note_on_c, 0, 58, 54
2,34034, Note_on_c, 0, 68, 0
2,34049, Control_c, 0, 64, 43
2,34052, Note_on_c, 0, 74, 54
2,34058, Note_on_c, 0, 70, 51
2,34069, Control_c, 0, 64, 49
2,34087, Control_c, 0, 64, 58
2,34107, Control_c, 0, 64, 63
2,34117, Note_on_c, 0, 58, 0
2,34126, Control_c, 0, 64, 65
2,34146, Control_c, 0, 64, 67
2,34164, Control_c, 0, 64, 71
2,34184, Control_c, 0, 64, 75
2,34203, Control_c, 0, 64, 78
2,34223, Control_c, 0, 64, 80
2,34375, Control_c, 0, 64, 79
2,34395, Control_c, 0, 64, 75
2,34397, Note_on_c, 0, 46, 71
2,34414, Control_c, 0, 64, 67
2,34433, Control_c, 0, 64, 57
2,34449, Note_on_c, 0, 68, 56
2,34452, Control_c, 0, 64, 43
2,34472, Control_c, 0, 64, 42
2,34492, Control_c, 0, 64, 46
2,34511, Control_c, 0, 64, 55
2,34530, Control_c, 0, 64, 61
2,34550, Control_c, 0, 64, 64
2,34568, Control_c, 0, 64, 65
2,34588, Control_c, 0, 64, 68
2,34607, Control_c, 0, 64, 70
2,34627, Control_c, 0, 64, 73
2,34633, Note_on_c, 0, 74, 0
2,34645, Control_c, 0, 64, 73
2,34679, Note_on_c, 0, 70, 0
2,34799, Control_c, 0, 64, 74
2,34845, Note_on_c, 0, 68, 0
2,34876, Control_c, 0, 64, 73
2,34895, Control_c, 0, 64, 70
2,34913, Control_c, 0, 64, 65
2,34932, Control_c, 0, 64, 60
2,34934, Note_on_c, 0, 51, 72
2,34952, Control_c, 0, 64, 53
2,34962, Note_on_c, 0, 75, 56
2,34971, Control_c, 0, 64, 50
2,34981, Note_on_c, 0, 66, 43
2,34990, Control_c, 0, 64, 49
2,35009, Control_c, 0, 64, 49
2,35029, Control_c, 0, 64, 51
2,35047, Control_c, 0, 64, 56
2,35067, Control_c, 0, 64, 60
2,35086, Control_c, 0, 64, 61
2,35106, Control_c, 0, 64, 62
2,35130, Note_on_c, 0, 46, 0
2,35183, Control_c, 0, 64, 60
2,35201, Control_c, 0, 64, 57
2,35221, Control_c, 0, 64, 52
2,35240, Control_c, 0, 64, 48
2,35243, Note_on_c, 0, 66, 0
2,35259, Control_c, 0, 64, 42
2,35278, Control_c, 0, 64, 34
2,35298, Control_c, 0, 64, 32
2,35317, Control_c, 0, 64, 42
2,35335, Control_c, 0, 64, 55
2,35355, Control_c, 0, 64, 62
2,35374, Control_c, 0, 64, 65
2,35393, Control_c, 0, 64, 67
2,35400, Note_on_c, 0, 73, 59
2,35404, Note_on_c, 0, 65, 47
2,35412, Control_c, 0, 64, 70
2,35432, Control_c, 0, 64, 74
2,35452, Control_c, 0, 64, 79
2,35472, Control_c, 0, 64, 83
2,35491, Control_c, 0, 64, 84
2,35504, Note_on_c, 0, 65, 0
2,35529, Control_c, 0, 64, 84
2,35588, Control_c, 0, 64, 84
2,35606, Control_c, 0, 64, 85
2,35683, Control_c, 0, 64, 84
2,35703, Control_c, 0, 64, 80
2,35722, Control_c, 0, 64, 71
2,35741, Control_c, 0, 64, 61
2,35753, Note_on_c, 0, 71, 65
2,35760, Control_c, 0, 64, 50
2,35764, Note_on_c, 0, 63, 56
2,35780, Control_c, 0, 64, 54
2,35798, Control_c, 0, 64, 60
2,35818, Control_c, 0, 64, 64
2,35837, Control_c, 0, 64, 67
2,35856, Control_c, 0, 64, 71
2,35873, Control_c, 0, 64, 78
2,35875, Note_on_c, 0, 73, 0
2,35881, Note_on_c, 0, 75, 0
2,35892, Control_c, 0, 64, 84
2,35905, Note_on_c, 0, 71, 0
2,35912, Control_c, 0, 64, 87
2,35950, Control_c, 0, 64, 87
2,36084, Control_c, 0, 64, 83
2,36104, Control_c, 0, 64, 74
2,36123, Control_c, 0, 64, 65
2,36126, Note_on_c, 0, 54, 72
2,36140, Note_on_c, 0, 70, 59
2,36143, Control_c, 0, 64, 56
2,36161, Control_c, 0, 64, 56
2,36181, Control_c, 0, 64, 60
2,36200, Control_c, 0, 64, 63
2,36219, Control_c, 0, 64, 66
2,36238, Control_c, 0, 64, 69
2,36257, Control_c, 0, 64, 73
2,36277, Control_c, 0, 64, 78
2,36295, Control_c, 0, 64, 79
2,36334, Control_c, 0, 64, 78
2,36341, Note_on_c, 0, 63, 0
2,36343, Note_on_c, 0, 70, 0
2,36372, Control_c, 0, 64, 78
2,36412, Control_c, 0, 64, 77
2,36431, Control_c, 0, 64, 76
2,36450, Control_c, 0, 64, 72
2,36470, Control_c, 0, 64, 66
2,36488, Control_c, 0, 64, 55
2,36495, Note_on_c, 0, 53, 67
2,36495, Note_on_c, 0, 68, 66
2,36499, Note_on_c, 0, 51, 0
2,36503, Note_on_c, 0, 62, 58
2,36508, Control_c, 0, 64, 0
2,36562, Note_on_c, 0, 54, 0
2,36604, Control_c, 0, 64, 13
2,36623, Control_c, 0, 64, 51
2,36642, Control_c, 0, 64, 61
2,36662, Control_c, 0, 64, 62
2,36681, Control_c, 0, 64, 63
2,36719, Control_c, 0, 64, 63
2,36776, Control_c, 0, 64, 63
2,36796, Control_c, 0, 64, 62
2,36815, Control_c, 0, 64, 59
2,36834, Control_c, 0, 64, 46
2,36853, Control_c, 0, 64, 19
2,36870, Note_on_c, 0, 66, 51
2,36873, Control_c, 0, 64, 0
2,36877, Note_on_c, 0, 51, 59
2,36889, Note_on_c, 0, 63, 49
2,36892, Note_on_c, 0, 53, 0
2,36911, Control_c, 0, 64, 18
2,36930, Control_c, 0, 64, 51
2,36950, Control_c, 0, 64, 62
2,36968, Control_c, 0, 64, 65
2,36988, Control_c, 0, 64, 67
2,37007, Control_c, 0, 64, 69
2,37027, Control_c, 0, 64, 71
2,37045, Control_c, 0, 64, 73
2,37057, Note_on_c, 0, 63, 0
2,37084, Control_c, 0, 64, 72
2,37103, Control_c, 0, 64, 71
2,37122, Control_c, 0, 64, 69
2,37142, Control_c, 0, 64, 66
2,37161, Control_c, 0, 64, 61
2,37180, Control_c, 0, 64, 55
2,37199, Control_c, 0, 64, 52
2,37219, Control_c, 0, 64, 52
2,37225, Note_on_c, 0, 51, 0
2,37229, Note_on_c, 0, 62, 0
2,37237, Control_c, 0, 64, 53
2,37238, Note_on_c, 0, 50, 49
2,37254, Note_on_c, 0, 65, 50
2,37256, Control_c, 0, 64, 56
2,37266, Note_on_c, 0, 68, 0
2,37276, Control_c, 0, 64, 60
2,37295, Control_c, 0, 64, 61
2,37314, Control_c, 0, 64, 62
2,37328, Note_on_c, 0, 66, 0
2,37333, Control_c, 0, 64, 62
2,37448, Control_c, 0, 64, 63
2,37487, Control_c, 0, 64, 63
2,37507, Control_c, 0, 64, 64
2,37525, Control_c, 0, 64, 64
2,37545, Control_c, 0, 64, 65
2,37602, Note_on_c, 0, 51, 57
2,37626, Note_on_c, 0, 66, 47
2,37628, Note_on_c, 0, 50, 0
2,37634, Note_on_c, 0, 63, 41
2,37634, Note_on_c, 0, 65, 0
2,37660, Control_c, 0, 64, 65
2,37699, Control_c, 0, 64, 66
2,37736, Control_c, 0, 64, 66
2,37794, Control_c, 0, 64, 67
2,37833, Control_c, 0, 64, 67
2,37852, Control_c, 0, 64, 68
2,37874, Note_on_c, 0, 63, 0
2,37890, Control_c, 0, 64, 68
2,37928, Control_c, 0, 64, 69
2,37951, Note_on_c, 0, 66, 0
2,37967, Control_c, 0, 64, 68
2,37987, Control_c, 0, 64, 67
2,38005, Control_c, 0, 64, 64
2,38007, Note_on_c, 0, 53, 68
2,38025, Control_c, 0, 64, 63
2,38063, Control_c, 0, 64, 64
2,38082, Control_c, 0, 64, 64
2,38102, Control_c, 0, 64, 65
2,38116, Note_on_c, 0, 51, 0
2,38121, Control_c, 0, 64, 66
2,38140, Control_c, 0, 64, 67
2,38159, Control_c, 0, 64, 68
2,38179, Control_c, 0, 64, 68
2,38197, Control_c, 0, 64, 69
2,38216, Control_c, 0, 64, 70
2,38236, Control_c, 0, 64, 71
2,38274, Control_c, 0, 64, 71
2,38293, Control_c, 0, 64, 72
2,38313, Control_c, 0, 64, 73
2,38332, Control_c, 0, 64, 75
2,38351, Control_c, 0, 64, 76
2,38408, Control_c, 0, 64, 76
2,38413, Note_on_c, 0, 62, 24
2,38447, Control_c, 0, 64, 77
2,38467, Control_c, 0, 64, 78
2,38468, Note_on_c, 0, 62, 0
2,38793, Control_c, 0, 64, 77
2,38800, Note_on_c, 0, 46, 65
2,38812, Control_c, 0, 64, 74
2,38831, Control_c, 0, 64, 69
2,38850, Control_c, 0, 64, 62
2,38860, Note_on_c, 0, 53, 0
2,38870, Control_c, 0, 64, 54
2,38883, Note_on_c, 0, 60, 33
2,38888, Control_c, 0, 64, 50
2,38908, Control_c, 0, 64, 52
2,38926, Note_on_c, 0, 60, 0
2,38927, Control_c, 0, 64, 55
2,38947, Control_c, 0, 64, 58
2,38965, Control_c, 0, 64, 61
2,38985, Control_c, 0, 64, 63
2,39004, Control_c, 0, 64, 64
2,39023, Control_c, 0, 64, 65
2,39042, Control_c, 0, 64, 66
2,39062, Control_c, 0, 64, 67
2,39081, Control_c, 0, 64, 67
2,39100, Control_c, 0, 64, 68
2,39119, Control_c, 0, 64, 69
2,39139, Control_c, 0, 64, 69
2,39157, Control_c, 0, 64, 70
2,39176, Control_c, 0, 64, 71
2,39196, Control_c, 0, 64, 72
2,39215, Control_c, 0, 64, 73
2,39232, Note_on_c, 0, 66, 43
2,39234, Control_c, 0, 64, 74
2,39253, Control_c, 0, 64, 74
2,39275, Note_on_c, 0, 66, 0
2,39326, Note_on_c, 0, 65, 36
2,39365, Note_on_c, 0, 65, 0
2,39486, Control_c, 0, 64, 74
2,39505, Control_c, 0, 64, 73
2,39524, Control_c, 0, 64, 71
2,39544, Control_c, 0, 64, 67
2,39557, Note_on_c, 0, 51, 56
2,39562, Control_c, 0, 64, 63
2,39562, Note_on_c, 0, 66, 42
2,39566, Note_on_c, 0, 63, 43
2,39582, Control_c, 0, 64, 59
2,39601, Control_c, 0, 64, 55
2,39621, Control_c, 0, 64, 52
2,39639, Control_c, 0, 64, 48
2,39659, Control_c, 0, 64, 44
2,39678, Control_c, 0, 64, 43
2,39733, Control_c, 0, 64, 44
2,39753, Control_c, 0, 64, 44
2,39772, Control_c, 0, 64, 45
2,39791, Control_c, 0, 64, 46
2,39810, Control_c, 0, 64, 48
2,39830, Control_c, 0, 64, 51
2,39848, Control_c, 0, 64, 53
2,39854, Note_on_c, 0, 46, 0
2,39868, Control_c, 0, 64, 55
2,39887, Control_c, 0, 64, 56
2,39907, Control_c, 0, 64, 58
2,39925, Control_c, 0, 64, 60
2,39945, Control_c, 0, 64, 62
2,39964, Control_c, 0, 64, 63
2,39983, Control_c, 0, 64, 65
2,39989, Note_on_c, 0, 68, 58
2,39996, Note_on_c, 0, 65, 43
2,39998, Note_on_c, 0, 66, 0
2,40002, Control_c, 0, 64, 66
2,40022, Control_c, 0, 64, 68
2,40041, Control_c, 0, 64, 71
2,40050, Note_on_c, 0, 63, 0
2,40060, Control_c, 0, 64, 75
2,40079, Control_c, 0, 64, 79
2,40099, Control_c, 0, 64, 82
2,40117, Control_c, 0, 64, 83
2,40269, Note_on_c, 0, 68, 0
2,40271, Control_c, 0, 64, 82
2,40290, Control_c, 0, 64, 80
2,40310, Control_c, 0, 64, 76
2,40328, Control_c, 0, 64, 70
2,40348, Control_c, 0, 64, 64
2,40357, Note_on_c, 0, 70, 65
2,40367, Control_c, 0, 64, 57
2,40387, Control_c, 0, 64, 51
2,40388, Note_on_c, 0, 66, 49
2,40405, Control_c, 0, 64, 50
2,40425, Control_c, 0, 64, 49
2,40482, Control_c, 0, 64, 50
2,40502, Control_c, 0, 64, 50
2,40519, Note_on_c, 0, 65, 0
2,40521, Control_c, 0, 64, 51
2,40540, Control_c, 0, 64, 53
2,40559, Control_c, 0, 64, 55
2,40579, Control_c, 0, 64, 57
2,40597, Control_c, 0, 64, 59
2,40616, Control_c, 0, 64, 61
2,40636, Control_c, 0, 64, 62
2,40655, Control_c, 0, 64, 64
2,40674, Control_c, 0, 64, 66
2,40693, Control_c, 0, 64, 69
2,40713, Control_c, 0, 64, 73
2,40732, Control_c, 0, 64, 78
2,40732, Note_on_c, 0, 49, 55
2,40751, Control_c, 0, 64, 86
2,40754, Note_on_c, 0, 66, 0
2,40770, Control_c, 0, 64, 94
2,40785, Note_on_c, 0, 51, 0
2,40790, Control_c, 0, 64, 99
2,40791, Note_on_c, 0, 70, 0
2,40808, Control_c, 0, 64, 100
2,40847, Control_c, 0, 64, 101
2,41001, Control_c, 0, 64, 100
2,41002, Note_on_c, 0, 49, 0
2,41020, Control_c, 0, 64, 99
2,41039, Control_c, 0, 64, 98
2,41059, Control_c, 0, 64, 97
2,41077, Control_c, 0, 64, 93
2,41092, Note_on_c, 0, 47, 51
2,41096, Control_c, 0, 64, 82
2,41116, Control_c, 0, 64, 69
2,41135, Control_c, 0, 64, 56
2,41139, Note_on_c, 0, 71, 53
2,41147, Note_on_c, 0, 68, 40
2,41154, Control_c, 0, 64, 0
2,41214, Control_c, 0, 64, 31
2,41234, Control_c, 0, 64, 54
2,41253, Control_c, 0, 64, 61
2,41272, Control_c, 0, 64, 64
2,41291, Control_c, 0, 64, 66
2,41311, Control_c, 0, 64, 68
2,41330, Control_c, 0, 64, 71
2,41349, Control_c, 0, 64, 76
2,41368, Control_c, 0, 64, 82
2,41388, Control_c, 0, 64, 87
2,41407, Control_c, 0, 64, 87
2,41426, Control_c, 0, 64, 88
2,41465, Control_c, 0, 64, 89
2,41483, Control_c, 0, 64, 90
2,41483, Note_on_c, 0, 73, 51
2,41484, Note_on_c, 0, 71, 0
2,41503, Control_c, 0, 64, 91
2,41509, Note_on_c, 0, 66, 48
2,41522, Control_c, 0, 64, 92
2,41542, Control_c, 0, 64, 93
2,41550, Note_on_c, 0, 73, 0
2,41558, Note_on_c, 0, 68, 0
2,41667, Note_on_c, 0, 75, 65
2,41705, Note_on_c, 0, 66, 0
2,41711, Note_on_c, 0, 75, 0
2,41787, Control_c, 0, 64, 92
2,41806, Control_c, 0, 64, 90
2,41826, Control_c, 0, 64, 85
2,41844, Control_c, 0, 64, 76
2,41849, Note_on_c, 0, 68, 54
2,41863, Note_on_c, 0, 65, 46
2,41864, Control_c, 0, 64, 67
2,41883, Control_c, 0, 64, 60
2,41903, Control_c, 0, 64, 56
2,41921, Control_c, 0, 64, 57
2,41941, Control_c, 0, 64, 60
2,41960, Control_c, 0, 64, 62
2,41978, Control_c, 0, 64, 64
2,41998, Control_c, 0, 64, 66
2,42017, Control_c, 0, 64, 67
2,42037, Control_c, 0, 64, 69
2,42055, Control_c, 0, 64, 70
2,42075, Control_c, 0, 64, 71
2,42113, Control_c, 0, 64, 71
2,42152, Control_c, 0, 64, 72
2,42172, Control_c, 0, 64, 73
2,42192, Control_c, 0, 64, 74
2,42211, Control_c, 0, 64, 75
2,42231, Control_c, 0, 64, 76
2,42242, Note_on_c, 0, 61, 45
2,42249, Control_c, 0, 64, 76
2,42269, Control_c, 0, 67, 13
2,42288, Control_c, 0, 67, 22
2,42308, Control_c, 0, 67, 34
2,42326, Control_c, 0, 64, 76
2,42326, Control_c, 0, 67, 41
2,42346, Control_c, 0, 67, 45
2,42353, Note_on_c, 0, 65, 0
2,42365, Control_c, 0, 67, 48
2,42384, Control_c, 0, 64, 75
2,42384, Control_c, 0, 67, 49
2,42403, Control_c, 0, 64, 75
2,42403, Control_c, 0, 67, 50
2,42423, Control_c, 0, 64, 74
2,42480, Control_c, 0, 67, 49
2,42500, Control_c, 0, 64, 74
2,42537, Control_c, 0, 64, 73
2,42543, Note_on_c, 0, 47, 0
2,42557, Control_c, 0, 67, 49
2,42576, Control_c, 0, 64, 72
2,42576, Control_c, 0, 67, 48
2,42587, Note_on_c, 0, 46, 40
2,42594, Control_c, 0, 64, 71
2,42611, Note_on_c, 0, 66, 58
2,42613, Control_c, 0, 64, 70
2,42668, Note_on_c, 0, 61, 0
2,42671, Control_c, 0, 64, 68
2,42671, Control_c, 0, 67, 48
2,42689, Note_on_c, 0, 68, 0
2,42690, Control_c, 0, 64, 66
2,42710, Control_c, 0, 64, 64
2,42728, Control_c, 0, 64, 62
2,42748, Control_c, 0, 64, 61
2,42748, Control_c, 0, 67, 47
2,42767, Control_c, 0, 64, 59
2,42767, Control_c, 0, 67, 47
2,42787, Control_c, 0, 64, 59
2,42787, Control_c, 0, 67, 46
2,42805, Control_c, 0, 67, 46
2,42825, Control_c, 0, 64, 60
2,42825, Control_c, 0, 67, 45
2,42844, Control_c, 0, 64, 61
2,42844, Control_c, 0, 67, 45
2,42863, Control_c, 0, 64, 63
2,42863, Control_c, 0, 67, 44
2,42882, Control_c, 0, 64, 64
2,42882, Control_c, 0, 67, 43
2,42902, Control_c, 0, 64, 66
2,42902, Control_c, 0, 67, 43
2,42921, Control_c, 0, 64, 68
2,42921, Control_c, 0, 67, 42
2,42940, Control_c, 0, 64, 70
2,42940, Control_c, 0, 67, 41
2,42959, Control_c, 0, 64, 72
2,42959, Control_c, 0, 67, 40
2,42978, Control_c, 0, 64, 74
2,42978, Control_c, 0, 67, 40
2,42988, Note_on_c, 0, 70, 49
2,42997, Control_c, 0, 64, 77
2,42997, Control_c, 0, 67, 39
2,43016, Control_c, 0, 64, 80
2,43036, Control_c, 0, 64, 82
2,43036, Control_c, 0, 67, 39
2,43042, Note_on_c, 0, 70, 0
2,43055, Control_c, 0, 64, 83
2,43074, Control_c, 0, 67, 38
2,43113, Control_c, 0, 67, 38
2,43152, Control_c, 0, 64, 83
2,43152, Control_c, 0, 67, 37
2,43168, Note_on_c, 0, 46, 0
2,43229, Control_c, 0, 64, 82
2,43286, Control_c, 0, 64, 82
2,43306, Control_c, 0, 64, 81
2,43325, Control_c, 0, 64, 79
2,43344, Control_c, 0, 64, 76
2,43363, Control_c, 0, 64, 71
2,43373, Note_on_c, 0, 44, 42
2,43376, Note_on_c, 0, 71, 54
2,43383, Control_c, 0, 64, 65
2,43402, Control_c, 0, 64, 59
2,43402, Control_c, 0, 67, 36
2,43421, Control_c, 0, 64, 55
2,43421, Control_c, 0, 67, 36
2,43440, Control_c, 0, 64, 56
2,43460, Control_c, 0, 64, 59
2,43461, Note_on_c, 0, 66, 0
2,43478, Control_c, 0, 64, 61
2,43497, Control_c, 0, 64, 63
2,43517, Control_c, 0, 64, 64
2,43536, Control_c, 0, 64, 66
2,43551, Control_c, 0, 64, 67
2,43569, Control_c, 0, 64, 68
2,43569, Control_c, 0, 67, 35
2,43589, Control_c, 0, 64, 69
2,43589, Control_c, 0, 67, 35
2,43608, Control_c, 0, 64, 69
2,43608, Control_c, 0, 67, 34
2,43628, Control_c, 0, 67, 34
2,43646, Control_c, 0, 67, 33
2,43666, Control_c, 0, 67, 30
2,43685, Control_c, 0, 67, 27
2,43704, Control_c, 0, 67, 25
2,43716, Note_on_c, 0, 46, 46
2,43723, Control_c, 0, 64, 70
2,43723, Control_c, 0, 67, 22
2,43743, Control_c, 0, 67, 18
2,43746, Note_on_c, 0, 73, 57
2,43762, Control_c, 0, 67, 15
2,43781, Control_c, 0, 64, 70
2,43781, Control_c, 0, 67, 12
2,43800, Control_c, 0, 67, 10
2,43820, Control_c, 0, 67, 8
2,43833, Note_on_c, 0, 44, 0
2,43838, Control_c, 0, 67, 0
2,43882, Note_on_c, 0, 71, 0
2,43896, Control_c, 0, 64, 71
2,43915, Control_c, 0, 64, 71
2,43934, Control_c, 0, 64, 72
2,43954, Control_c, 0, 64, 72
2,43972, Control_c, 0, 64, 73
2,44049, Control_c, 0, 64, 71
2,44069, Control_c, 0, 64, 67
2,44092, Control_c, 0, 64, 62
2,44097, Note_on_c, 0, 65, 60
2,44100, Note_on_c, 0, 47, 46
2,44102, Note_on_c, 0, 75, 60
2,44111, Control_c, 0, 64, 55
2,44130, Control_c, 0, 64, 54
2,44136, Note_on_c, 0, 46, 0
2,44138, Note_on_c, 0, 73, 0
2,44150, Control_c, 0, 64, 56
2,44168, Control_c, 0, 64, 59
2,44188, Control_c, 0, 64, 62
2,44207, Control_c, 0, 64, 64
2,44227, Control_c, 0, 64, 66
2,44245, Control_c, 0, 64, 69
2,44260, Note_on_c, 0, 75, 0
2,44265, Control_c, 0, 64, 72
2,44284, Control_c, 0, 64, 76
2,44303, Control_c, 0, 64, 79
2,44303, Note_on_c, 0, 75, 14
2,44322, Control_c, 0, 64, 80
2,44342, Control_c, 0, 64, 81
2,44361, Control_c, 0, 64, 81
2,44380, Control_c, 0, 64, 82
2,44399, Control_c, 0, 64, 82
2,44443, Note_on_c, 0, 47, 0
2,44456, Control_c, 0, 64, 83
2,44461, Note_on_c, 0, 75, 0
2,44485, Note_on_c, 0, 49, 55
2,44485, Note_on_c, 0, 65, 0
2,44491, Note_on_c, 0, 77, 62
2,44513, Control_c, 0, 64, 83
2,44532, Note_on_c, 0, 77, 0
2,44554, Note_on_c, 0, 49, 0
2,44571, Control_c, 0, 64, 83
2,44667, Control_c, 0, 64, 83
2,44686, Control_c, 0, 64, 84
2,44706, Control_c, 0, 64, 85
2,44724, Control_c, 0, 64, 86
2,44744, Control_c, 0, 64, 87
2,44821, Control_c, 0, 64, 86
2,44840, Control_c, 0, 64, 82
2,44858, Control_c, 0, 64, 73
2,44858, Note_on_c, 0, 51, 54
2,44870, Note_on_c, 0, 78, 76
2,44878, Control_c, 0, 64, 64
2,44897, Control_c, 0, 64, 53
2,44917, Control_c, 0, 64, 45
2,44935, Control_c, 0, 64, 49
2,44955, Control_c, 0, 64, 59
2,44974, Control_c, 0, 64, 63
2,44993, Control_c, 0, 64, 66
2,45012, Control_c, 0, 64, 70
2,45032, Control_c, 0, 64, 75
2,45052, Control_c, 0, 64, 83
2,45071, Control_c, 0, 64, 90
2,45090, Control_c, 0, 64, 94
2,45110, Control_c, 0, 64, 95
2,45208, Note_on_c, 0, 53, 61
2,45225, Note_on_c, 0, 80, 80
2,45244, Control_c, 0, 64, 95
2,45250, Note_on_c, 0, 51, 0
2,45257, Note_on_c, 0, 53, 0
2,45321, Control_c, 0, 64, 95
2,45340, Control_c, 0, 64, 94
2,45359, Control_c, 0, 64, 94
2,45378, Control_c, 0, 64, 93
2,45551, Control_c, 0, 64, 92
2,45570, Control_c, 0, 64, 89
2,45590, Control_c, 0, 64, 78
2,45593, Note_on_c, 0, 63, 50
2,45599, Note_on_c, 0, 54, 51
2,45608, Control_c, 0, 64, 65
2,45613, Note_on_c, 0, 82, 83
2,45628, Control_c, 0, 64, 31
2,45647, Control_c, 0, 64, 0
2,45705, Control_c, 0, 64, 23
2,45724, Control_c, 0, 64, 58
2,45743, Control_c, 0, 64, 65
2,45750, Note_on_c, 0, 80, 0
2,45762, Control_c, 0, 64, 69
2,45781, Note_on_c, 0, 78, 0
2,45782, Control_c, 0, 64, 75
2,45801, Control_c, 0, 64, 82
2,45820, Control_c, 0, 64, 93
2,45839, Control_c, 0, 64, 100
2,45858, Control_c, 0, 64, 102
2,45916, Control_c, 0, 64, 103
2,45917, Note_on_c, 0, 82, 0
2,45935, Control_c, 0, 64, 103
2,45938, Note_on_c, 0, 56, 56
2,45954, Control_c, 0, 64, 104
2,45991, Note_on_c, 0, 83, 82
2,45992, Note_on_c, 0, 63, 0
2,45993, Control_c, 0, 64, 101
2,46013, Control_c, 0, 64, 95
2,46033, Control_c, 0, 64, 88
2,46052, Control_c, 0, 64, 86
2,46072, Control_c, 0, 64, 87
2,46090, Control_c, 0, 64, 89
2,46109, Note_on_c, 0, 54, 0
2,46110, Control_c, 0, 64, 91
2,46129, Control_c, 0, 64, 91
2,46148, Control_c, 0, 64, 92
2,46264, Control_c, 0, 64, 91
2,46282, Control_c, 0, 64, 87
2,46302, Control_c, 0, 64, 78
2,46321, Control_c, 0, 64, 64
2,46341, Control_c, 0, 64, 43
2,46357, Note_on_c, 0, 56, 0
2,46359, Control_c, 0, 64, 0
2,46361, Note_on_c, 0, 61, 63
2,46367, Note_on_c, 0, 58, 54
2,46378, Control_c, 0, 64, 9
2,46398, Control_c, 0, 64, 35
2,46417, Control_c, 0, 64, 55
2,46433, Control_c, 0, 64, 64
2,46451, Control_c, 0, 64, 67
2,46471, Control_c, 0, 64, 73
2,46478, Note_on_c, 0, 83, 0
2,46490, Control_c, 0, 64, 82
2,46509, Control_c, 0, 64, 93
2,46524, Note_on_c, 0, 58, 0
2,46525, Note_on_c, 0, 61, 0
2,46528, Control_c, 0, 64, 102
2,46548, Control_c, 0, 64, 104
2,46567, Control_c, 0, 64, 104
2,46702, Control_c, 0, 64, 101
2,46720, Control_c, 0, 64, 88
2,46729, Note_on_c, 0, 73, 71
2,46732, Note_on_c, 0, 65, 62
2,46733, Note_on_c, 0, 56, 58
2,46739, Control_c, 0, 64, 69
2,46759, Control_c, 0, 64, 55
2,46777, Control_c, 0, 64, 39
2,46797, Control_c, 0, 64, 50
2,46816, Control_c, 0, 64, 60
2,46836, Control_c, 0, 64, 64
2,46854, Control_c, 0, 64, 68
2,46874, Control_c, 0, 64, 74
2,46893, Control_c, 0, 64, 82
2,46913, Control_c, 0, 64, 89
2,46931, Control_c, 0, 64, 90
2,46972, Control_c, 0, 64, 89
2,46991, Control_c, 0, 64, 88
2,47010, Control_c, 0, 64, 87
2,47029, Note_on_c, 0, 65, 0
2,47030, Control_c, 0, 64, 86
2,47048, Control_c, 0, 64, 85
2,47070, Note_on_c, 0, 73, 0
2,47087, Control_c, 0, 64, 84
2,47107, Control_c, 0, 64, 82
2,47122, Note_on_c, 0, 58, 46
2,47125, Control_c, 0, 64, 75
2,47131, Note_on_c, 0, 78, 81
2,47145, Control_c, 0, 64, 62
2,47164, Control_c, 0, 64, 36
2,47165, Note_on_c, 0, 66, 53
2,47183, Control_c, 0, 64, 15
2,47202, Control_c, 0, 64, 36
2,47222, Control_c, 0, 64, 54
2,47227, Note_on_c, 0, 56, 0
2,47241, Control_c, 0, 64, 62
2,47259, Control_c, 0, 64, 65
2,47279, Control_c, 0, 64, 66
2,47317, Control_c, 0, 64, 66
2,47356, Control_c, 0, 64, 65
2,47375, Control_c, 0, 64, 64
2,47393, Control_c, 0, 64, 58
2,47411, Control_c, 0, 64, 41
2,47431, Control_c, 0, 64, 0
2,47488, Control_c, 0, 64, 15
2,47508, Control_c, 0, 64, 47
2,47523, Note_on_c, 0, 68, 61
2,47527, Control_c, 0, 64, 61
2,47527, Note_on_c, 0, 59, 52
2,47546, Control_c, 0, 64, 65
2,47565, Control_c, 0, 64, 66
2,47575, Note_on_c, 0, 66, 0
2,47582, Note_on_c, 0, 58, 0
2,47585, Control_c, 0, 64, 68
2,47603, Control_c, 0, 64, 70
2,47623, Control_c, 0, 64, 74
2,47642, Control_c, 0, 64, 79
2,47662, Control_c, 0, 64, 83
2,47662, Note_on_c, 0, 68, 0
2,47680, Control_c, 0, 64, 83
2,47699, Control_c, 0, 64, 83
2,47757, Control_c, 0, 64, 82
2,47776, Control_c, 0, 64, 81
2,47796, Control_c, 0, 64, 79
2,47814, Control_c, 0, 64, 78
2,47834, Control_c, 0, 64, 75
2,47853, Control_c, 0, 64, 72
2,47873, Control_c, 0, 64, 66
2,47891, Control_c, 0, 64, 61
2,47905, Note_on_c, 0, 70, 51
2,47911, Control_c, 0, 64, 56
2,47911, Control_c, 0, 67, 8
2,47911, Note_on_c, 0, 61, 36
2,47935, Control_c, 0, 64, 53
2,47935, Control_c, 0, 67, 12
2,47955, Control_c, 0, 64, 51
2,47955, Control_c, 0, 67, 15
2,47969, Note_on_c, 0, 59, 0
2,47974, Control_c, 0, 64, 50
2,47974, Control_c, 0, 67, 18
2,47993, Control_c, 0, 64, 48
2,47993, Control_c, 0, 67, 22
2,48012, Control_c, 0, 64, 47
2,48012, Control_c, 0, 67, 26
2,48032, Control_c, 0, 64, 46
2,48032, Control_c, 0, 67, 32
2,48051, Control_c, 0, 64, 46
2,48051, Control_c, 0, 67, 39
2,48070, Control_c, 0, 67, 45
2,48089, Control_c, 0, 67, 50
2,48109, Control_c, 0, 67, 54
2,48127, Control_c, 0, 67, 56
2,48166, Control_c, 0, 67, 57
2,48186, Control_c, 0, 67, 56
2,48224, Control_c, 0, 64, 46
2,48243, Control_c, 0, 64, 48
2,48243, Control_c, 0, 67, 56
2,48263, Control_c, 0, 64, 51
2,48263, Control_c, 0, 67, 55
2,48281, Control_c, 0, 64, 54
2,48301, Control_c, 0, 64, 58
2,48301, Note_on_c, 0, 71, 51
2,48320, Control_c, 0, 64, 61
2,48338, Control_c, 0, 64, 63
2,48357, Control_c, 0, 64, 65
2,48376, Control_c, 0, 64, 67
2,48396, Control_c, 0, 64, 70
2,48414, Control_c, 0, 64, 74
2,48414, Control_c, 0, 67, 54
2,48434, Control_c, 0, 64, 78
2,48453, Control_c, 0, 64, 81
2,48457, Note_on_c, 0, 78, 0
2,48473, Control_c, 0, 64, 82
2,48473, Control_c, 0, 67, 54
2,48511, Control_c, 0, 64, 82
2,48530, Control_c, 0, 64, 81
2,48530, Control_c, 0, 67, 54
2,48568, Control_c, 0, 64, 81
2,48568, Control_c, 0, 67, 55
2,48588, Control_c, 0, 64, 80
2,48607, Control_c, 0, 64, 78
2,48626, Control_c, 0, 64, 77
2,48645, Control_c, 0, 64, 76
2,48661, Note_on_c, 0, 71, 0
2,48665, Control_c, 0, 64, 75
2,48682, Note_on_c, 0, 49, 31
2,48683, Control_c, 0, 64, 74
2,48683, Control_c, 0, 67, 55
2,48687, Note_on_c, 0, 70, 0
2,48691, Note_on_c, 0, 77, 48
2,48703, Control_c, 0, 64, 71
2,48703, Control_c, 0, 67, 56
2,48710, Note_on_c, 0, 73, 39
2,48713, Note_on_c, 0, 61, 0
2,48722, Control_c, 0, 64, 67
2,48722, Control_c, 0, 67, 56
2,48742, Control_c, 0, 64, 63
2,48760, Control_c, 0, 64, 57
2,48760, Control_c, 0, 67, 57
2,48779, Control_c, 0, 64, 49
2,48799, Control_c, 0, 64, 43
2,48817, Control_c, 0, 64, 40
2,48837, Control_c, 0, 64, 41
2,48856, Control_c, 0, 64, 46
2,48856, Control_c, 0, 67, 56
2,48876, Control_c, 0, 64, 56
2,48876, Control_c, 0, 67, 56
2,48897, Control_c, 0, 64, 61
2,48897, Control_c, 0, 67, 55
2,48917, Control_c, 0, 64, 64
2,48917, Control_c, 0, 67, 54
2,48936, Control_c, 0, 64, 66
2,48936, Control_c, 0, 67, 53
2,48955, Control_c, 0, 64, 68
2,48955, Control_c, 0, 67, 52
2,48974, Control_c, 0, 64, 72
2,48974, Control_c, 0, 67, 51
2,48994, Control_c, 0, 64, 76
2,48994, Control_c, 0, 67, 49
2,49012, Control_c, 0, 64, 80
2,49012, Control_c, 0, 67, 48
2,49032, Control_c, 0, 64, 84
2,49032, Control_c, 0, 67, 48
2,49051, Control_c, 0, 64, 86
2,49051, Control_c, 0, 67, 47
2,49071, Control_c, 0, 64, 86
2,49071, Control_c, 0, 67, 46
2,49091, Note_on_c, 0, 71, 45
2,49109, Control_c, 0, 67, 45
2,49119, Note_on_c, 0, 49, 0
2,49166, Control_c, 0, 64, 86
2,49205, Control_c, 0, 64, 85
2,49224, Control_c, 0, 64, 84
2,49228, Note_on_c, 0, 73, 0
2,49243, Control_c, 0, 64, 83
2,49263, Control_c, 0, 64, 82
2,49282, Control_c, 0, 64, 82
2,49301, Control_c, 0, 67, 45
2,49330, Control_c, 0, 64, 81
2,49350, Control_c, 0, 64, 81
2,49407, Control_c, 0, 64, 80
2,49407, Control_c, 0, 67, 44
2,49419, Note_on_c, 0, 42, 50
2,49427, Control_c, 0, 64, 77
2,49446, Control_c, 0, 64, 72
2,49446, Control_c, 0, 67, 44
2,49464, Note_on_c, 0, 71, 0
2,49465, Control_c, 0, 64, 67
2,49465, Control_c, 0, 67, 43
2,49484, Control_c, 0, 64, 62
2,49484, Control_c, 0, 67, 43
2,49504, Control_c, 0, 64, 58
2,49506, Note_on_c, 0, 70, 45
2,49522, Control_c, 0, 64, 56
2,49522, Control_c, 0, 67, 42
2,49542, Control_c, 0, 64, 54
2,49542, Control_c, 0, 67, 42
2,49561, Control_c, 0, 64, 53
2,49561, Control_c, 0, 67, 41
2,49599, Control_c, 0, 64, 55
2,49599, Control_c, 0, 67, 41
2,49618, Control_c, 0, 64, 57
2,49618, Control_c, 0, 67, 40
2,49638, Control_c, 0, 64, 59
2,49638, Control_c, 0, 67, 38
2,49657, Control_c, 0, 64, 61
2,49657, Control_c, 0, 67, 34
2,49676, Control_c, 0, 64, 62
2,49676, Control_c, 0, 67, 29
2,49695, Control_c, 0, 64, 63
2,49695, Control_c, 0, 67, 23
2,49715, Control_c, 0, 64, 63
2,49715, Control_c, 0, 67, 15
2,49733, Control_c, 0, 64, 64
2,49733, Control_c, 0, 67, 0
2,49753, Control_c, 0, 64, 64
2,49772, Control_c, 0, 64, 65
2,49792, Control_c, 0, 64, 65
2,49810, Control_c, 0, 64, 66
2,49830, Control_c, 0, 64, 67
2,49843, Note_on_c, 0, 68, 55
2,49850, Control_c, 0, 64, 68
2,49869, Control_c, 0, 64, 69
2,49875, Note_on_c, 0, 77, 0
2,49888, Control_c, 0, 64, 71
2,49908, Control_c, 0, 64, 72
2,49927, Control_c, 0, 64, 73
2,49946, Control_c, 0, 64, 73
2,49949, Note_on_c, 0, 70, 0
2,49985, Control_c, 0, 64, 74
2,50003, Control_c, 0, 64, 75
2,50023, Control_c, 0, 64, 75
2,50042, Control_c, 0, 64, 76
2,50157, Control_c, 0, 64, 75
2,50196, Control_c, 0, 64, 75
2,50214, Control_c, 0, 64, 74
2,50234, Control_c, 0, 64, 74
2,50243, Note_on_c, 0, 54, 66
2,50253, Control_c, 0, 64, 73
2,50273, Control_c, 0, 64, 70
2,50287, Note_on_c, 0, 75, 52
2,50291, Control_c, 0, 64, 66
2,50311, Control_c, 0, 64, 59
2,50316, Note_on_c, 0, 66, 41
2,50323, Note_on_c, 0, 68, 0
2,50330, Control_c, 0, 64, 52
2,50349, Control_c, 0, 64, 49
2,50368, Control_c, 0, 64, 48
2,50388, Control_c, 0, 64, 50
2,50407, Control_c, 0, 64, 53
2,50426, Control_c, 0, 64, 58
2,50445, Control_c, 0, 64, 61
2,50465, Control_c, 0, 64, 62
2,50483, Control_c, 0, 64, 62
2,50503, Control_c, 0, 64, 63
2,50522, Control_c, 0, 64, 64
2,50542, Control_c, 0, 64, 65
2,50558, Note_on_c, 0, 66, 0
2,50560, Control_c, 0, 64, 66
2,50579, Control_c, 0, 64, 68
2,50599, Control_c, 0, 64, 70
2,50617, Control_c, 0, 64, 73
2,50637, Control_c, 0, 64, 76
2,50656, Control_c, 0, 64, 77
2,50675, Note_on_c, 0, 73, 51
2,50676, Control_c, 0, 64, 78
2,50692, Note_on_c, 0, 65, 42
2,50714, Control_c, 0, 64, 79
2,50733, Control_c, 0, 64, 79
2,50765, Note_on_c, 0, 65, 0
2,50774, Note_on_c, 0, 42, 0
2,50952, Note_on_c, 0, 73, 0
2,50964, Control_c, 0, 64, 79
2,50984, Control_c, 0, 64, 78
2,51003, Control_c, 0, 64, 74
2,51023, Control_c, 0, 64, 67
2,51041, Control_c, 0, 64, 60
2,51045, Note_on_c, 0, 72, 55
2,51052, Note_on_c, 0, 63, 50
2,51061, Control_c, 0, 64, 51
2,51080, Control_c, 0, 64, 47
2,51098, Control_c, 0, 64, 48
2,51118, Control_c, 0, 64, 51
2,51137, Control_c, 0, 64, 58
2,51157, Control_c, 0, 64, 62
2,51175, Control_c, 0, 64, 64
2,51195, Control_c, 0, 64, 66
2,51214, Control_c, 0, 64, 69
2,51233, Control_c, 0, 64, 72
2,51250, Note_on_c, 0, 63, 0
2,51251, Control_c, 0, 64, 75
2,51271, Control_c, 0, 64, 78
2,51290, Control_c, 0, 64, 78
2,51309, Control_c, 0, 64, 79
2,51325, Note_on_c, 0, 75, 0
2,51348, Control_c, 0, 64, 79
2,51386, Control_c, 0, 64, 78
2,51402, Note_on_c, 0, 54, 0
2,51405, Control_c, 0, 64, 75
2,51408, Note_on_c, 0, 53, 69
2,51425, Control_c, 0, 64, 66
2,51427, Note_on_c, 0, 74, 64
2,51430, Note_on_c, 0, 65, 51
2,51443, Control_c, 0, 64, 56
2,51463, Control_c, 0, 64, 39
2,51482, Control_c, 0, 64, 37
2,51482, Note_on_c, 0, 72, 0
2,51502, Control_c, 0, 64, 43
2,51520, Control_c, 0, 64, 54
2,51539, Control_c, 0, 64, 61
2,51559, Control_c, 0, 64, 64
2,51577, Control_c, 0, 64, 65
2,51597, Control_c, 0, 64, 67
2,51601, Note_on_c, 0, 65, 0
2,51616, Control_c, 0, 64, 67
2,51636, Control_c, 0, 64, 68
2,51773, Control_c, 0, 64, 67
2,51791, Note_on_c, 0, 51, 66
2,51793, Control_c, 0, 64, 65
2,51812, Control_c, 0, 64, 58
2,51815, Note_on_c, 0, 75, 68
2,51822, Note_on_c, 0, 66, 53
2,51832, Control_c, 0, 64, 38
2,51850, Control_c, 0, 64, 25
2,51870, Control_c, 0, 64, 28
2,51870, Note_on_c, 0, 53, 0
2,51873, Note_on_c, 0, 74, 0
2,51889, Control_c, 0, 64, 46
2,51908, Control_c, 0, 64, 60
2,51927, Control_c, 0, 64, 65
2,51938, Note_on_c, 0, 75, 0
2,51947, Control_c, 0, 64, 68
2,51966, Control_c, 0, 64, 73
2,51985, Control_c, 0, 64, 78
2,52002, Note_on_c, 0, 66, 0
2,52004, Control_c, 0, 64, 83
2,52024, Control_c, 0, 64, 85
2,52100, Control_c, 0, 64, 84
2,52119, Control_c, 0, 64, 83
2,52138, Control_c, 0, 64, 79
2,52158, Control_c, 0, 64, 70
2,52163, Note_on_c, 0, 49, 74
2,52173, Note_on_c, 0, 77, 65
2,52177, Control_c, 0, 64, 58
2,52182, Note_on_c, 0, 70, 62
2,52196, Control_c, 0, 64, 11
2,52215, Control_c, 0, 64, 0
2,52227, Note_on_c, 0, 51, 0
2,52253, Control_c, 0, 64, 35
2,52273, Control_c, 0, 64, 56
2,52292, Control_c, 0, 64, 63
2,52312, Control_c, 0, 64, 66
2,52312, Note_on_c, 0, 77, 0
2,52330, Control_c, 0, 64, 67
2,52350, Control_c, 0, 64, 70
2,52369, Control_c, 0, 64, 72
2,52388, Control_c, 0, 64, 74
2,52472, Note_on_c, 0, 49, 0
2,52504, Control_c, 0, 64, 74
2,52522, Control_c, 0, 64, 73
2,52530, Note_on_c, 0, 70, 0
2,52542, Control_c, 0, 64, 72
2,52561, Control_c, 0, 64, 71
2,52567, Note_on_c, 0, 48, 50
2,52575, Note_on_c, 0, 78, 80
2,52580, Control_c, 0, 64, 66
2,52598, Note_on_c, 0, 75, 53
2,52599, Control_c, 0, 64, 58
2,52618, Control_c, 0, 64, 41
2,52638, Control_c, 0, 64, 32
2,52676, Control_c, 0, 64, 43
2,52695, Control_c, 0, 64, 56
2,52715, Control_c, 0, 64, 62
2,52734, Control_c, 0, 64, 64
2,52754, Control_c, 0, 64, 65
2,52773, Control_c, 0, 64, 66
2,52793, Control_c, 0, 64, 67
2,52811, Control_c, 0, 64, 68
2,52888, Control_c, 0, 64, 67
2,52908, Control_c, 0, 64, 65
2,52927, Control_c, 0, 64, 60
2,52946, Control_c, 0, 64, 46
2,52960, Note_on_c, 0, 48, 0
2,52962, Note_on_c, 0, 73, 58
2,52965, Control_c, 0, 64, 22
2,52976, Note_on_c, 0, 46, 43
2,52985, Control_c, 0, 64, 0
2,53023, Control_c, 0, 64, 24
2,53042, Control_c, 0, 64, 51
2,53062, Control_c, 0, 64, 63
2,53080, Control_c, 0, 64, 69
2,53099, Control_c, 0, 64, 74
2,53119, Control_c, 0, 64, 81
2,53137, Control_c, 0, 64, 87
2,53153, Control_c, 0, 64, 90
2,53162, Note_on_c, 0, 46, 0
2,53177, Note_on_c, 0, 75, 0
2,53196, Note_on_c, 0, 78, 0
2,53230, Control_c, 0, 64, 89
2,53249, Control_c, 0, 64, 88
2,53269, Control_c, 0, 64, 86
2,53287, Control_c, 0, 64, 82
2,53307, Control_c, 0, 64, 76
2,53326, Control_c, 0, 64, 66
2,53338, Note_on_c, 0, 45, 44
2,53339, Note_on_c, 0, 72, 69
2,53346, Control_c, 0, 64, 52
2,53348, Note_on_c, 0, 77, 65
2,53364, Control_c, 0, 64, 39
2,53384, Control_c, 0, 64, 38
2,53384, Note_on_c, 0, 73, 0
2,53403, Control_c, 0, 64, 43
2,53423, Control_c, 0, 64, 52
2,53441, Control_c, 0, 64, 59
2,53460, Control_c, 0, 64, 62
2,53480, Control_c, 0, 64, 63
2,53498, Control_c, 0, 64, 63
2,53518, Control_c, 0, 64, 64
2,53537, Control_c, 0, 64, 64
2,53595, Control_c, 0, 64, 64
2,53612, Control_c, 0, 64, 63
2,53630, Control_c, 0, 64, 59
2,53649, Control_c, 0, 64, 48
2,53669, Control_c, 0, 64, 29
2,53689, Control_c, 0, 64, 15
2,53722, Note_on_c, 0, 41, 43
2,53727, Control_c, 0, 64, 28
2,53727, Note_on_c, 0, 45, 0
2,53727, Note_on_c, 0, 75, 55
2,53747, Control_c, 0, 64, 51
2,53765, Control_c, 0, 64, 61
2,53785, Control_c, 0, 64, 64
2,53919, Control_c, 0, 64, 63
2,53939, Control_c, 0, 64, 63
2,53958, Control_c, 0, 64, 61
2,53977, Control_c, 0, 64, 59
2,53996, Control_c, 0, 64, 54
2,54016, Control_c, 0, 64, 46
2,54035, Control_c, 0, 64, 38
2,54054, Control_c, 0, 64, 35
2,54073, Control_c, 0, 64, 34
2,54110, Note_on_c, 0, 46, 40
2,54111, Control_c, 0, 64, 41
2,54116, Note_on_c, 0, 73, 55
2,54131, Control_c, 0, 64, 54
2,54150, Control_c, 0, 64, 61
2,54167, Note_on_c, 0, 75, 0
2,54169, Control_c, 0, 64, 63
2,54188, Control_c, 0, 64, 64
2,54203, Note_on_c, 0, 77, 0
2,54207, Control_c, 0, 64, 64
2,54227, Control_c, 0, 64, 65
2,54304, Control_c, 0, 64, 65
2,54342, Control_c, 0, 64, 64
2,54361, Control_c, 0, 64, 63
2,54380, Control_c, 0, 64, 59
2,54399, Control_c, 0, 64, 48
2,54419, Control_c, 0, 64, 17
2,54438, Control_c, 0, 64, 0
2,54495, Note_on_c, 0, 46, 0
2,54505, Note_on_c, 0, 75, 64
2,54509, Note_on_c, 0, 48, 39
2,54515, Control_c, 0, 64, 48
2,54534, Control_c, 0, 64, 62
2,54553, Control_c, 0, 64, 66
2,54573, Control_c, 0, 64, 69
2,54591, Control_c, 0, 64, 73
2,54595, Note_on_c, 0, 72, 0
2,54611, Control_c, 0, 64, 78
2,54630, Control_c, 0, 64, 82
2,54649, Control_c, 0, 64, 85
2,54708, Control_c, 0, 64, 84
2,54746, Control_c, 0, 64, 84
2,54765, Control_c, 0, 64, 83
2,54785, Control_c, 0, 64, 82
2,54803, Control_c, 0, 64, 82
2,54823, Control_c, 0, 64, 81
2,54842, Control_c, 0, 64, 79
2,54843, Note_on_c, 0, 73, 0
2,54844, Note_on_c, 0, 48, 0
2,54861, Control_c, 0, 64, 74
2,54880, Control_c, 0, 64, 68
2,54881, Note_on_c, 0, 49, 35
2,54900, Control_c, 0, 64, 63
2,54909, Note_on_c, 0, 70, 58
2,54909, Note_on_c, 0, 77, 55
2,54919, Control_c, 0, 64, 56
2,54938, Control_c, 0, 64, 49
2,54957, Control_c, 0, 64, 42
2,54977, Control_c, 0, 64, 33
2,54995, Control_c, 0, 64, 24
2,55015, Control_c, 0, 64, 23
2,55025, Note_on_c, 0, 75, 0
2,55054, Control_c, 0, 64, 24
2,55070, Control_c, 0, 64, 29
2,55088, Control_c, 0, 64, 34
2,55108, Control_c, 0, 64, 40
2,55127, Control_c, 0, 64, 48
2,55146, Control_c, 0, 64, 55
2,55165, Control_c, 0, 64, 59
2,55185, Control_c, 0, 64, 61
2,55204, Control_c, 0, 64, 63
2,55223, Control_c, 0, 64, 64
2,55242, Control_c, 0, 64, 65
2,55262, Control_c, 0, 64, 67
2,55280, Control_c, 0, 64, 68
2,55281, Note_on_c, 0, 51, 44
2,55300, Control_c, 0, 64, 70
2,55312, Note_on_c, 0, 77, 0
2,55319, Control_c, 0, 64, 73
2,55320, Note_on_c, 0, 78, 52
2,55326, Note_on_c, 0, 49, 0
2,55339, Control_c, 0, 64, 74
2,55357, Control_c, 0, 64, 75
2,55454, Control_c, 0, 64, 74
2,55473, Control_c, 0, 64, 74
2,55511, Control_c, 0, 64, 73
2,55531, Control_c, 0, 64, 73
2,55550, Control_c, 0, 64, 72
2,55568, Control_c, 0, 64, 70
2,55588, Control_c, 0, 64, 67
2,55609, Control_c, 0, 64, 64
2,55628, Control_c, 0, 64, 61
2,55647, Control_c, 0, 64, 55
2,55667, Control_c, 0, 64, 48
2,55672, Note_on_c, 0, 53, 37
2,55676, Note_on_c, 0, 51, 0
2,55685, Control_c, 0, 64, 37
2,55696, Note_on_c, 0, 73, 52
2,55705, Control_c, 0, 64, 30
2,55724, Control_c, 0, 64, 28
2,55738, Note_on_c, 0, 78, 0
2,55782, Control_c, 0, 64, 29
2,55801, Control_c, 0, 64, 31
2,55820, Control_c, 0, 64, 33
2,55839, Control_c, 0, 64, 37
2,55859, Control_c, 0, 64, 43
2,55878, Control_c, 0, 64, 50
2,55897, Control_c, 0, 64, 55
2,55916, Control_c, 0, 64, 57
2,55936, Control_c, 0, 64, 59
2,55955, Control_c, 0, 64, 62
2,55974, Control_c, 0, 64, 63
2,55993, Control_c, 0, 64, 65
2,55999, Note_on_c, 0, 41, 0
2,56013, Control_c, 0, 64, 66
2,56030, Control_c, 0, 64, 68
2,56043, Note_on_c, 0, 51, 42
2,56049, Control_c, 0, 64, 70
2,56053, Note_on_c, 0, 53, 0
2,56069, Control_c, 0, 64, 72
2,56088, Control_c, 0, 64, 73
2,56107, Note_on_c, 0, 70, 0
2,56261, Control_c, 0, 64, 72
2,56300, Control_c, 0, 64, 72
2,56338, Control_c, 0, 64, 71
2,56357, Control_c, 0, 64, 70
2,56392, Note_on_c, 0, 53, 39
2,56395, Control_c, 0, 64, 70
2,56413, Note_on_c, 0, 51, 0
2,56421, Note_on_c, 0, 72, 44
2,56428, Note_on_c, 0, 69, 44
2,56434, Control_c, 0, 64, 69
2,56453, Control_c, 0, 64, 68
2,56472, Control_c, 0, 64, 65
2,56492, Control_c, 0, 64, 61
2,56510, Control_c, 0, 64, 50
2,56529, Control_c, 0, 64, 41
2,56549, Control_c, 0, 64, 36
2,56568, Control_c, 0, 64, 35
2,56587, Control_c, 0, 64, 38
2,56606, Control_c, 0, 64, 47
2,56624, Note_on_c, 0, 73, 0
2,56626, Control_c, 0, 64, 57
2,56644, Control_c, 0, 64, 62
2,56664, Control_c, 0, 64, 63
2,56683, Control_c, 0, 64, 64
2,56703, Control_c, 0, 64, 65
2,56721, Control_c, 0, 64, 66
2,56741, Control_c, 0, 64, 67
2,56783, Note_on_c, 0, 41, 37
2,56838, Note_on_c, 0, 72, 0
2,56856, Note_on_c, 0, 69, 0
2,57180, Note_on_c, 0, 53, 0
2,57219, Control_c, 0, 64, 66
2,57269, Note_on_c, 0, 46, 28
2,57296, Control_c, 0, 64, 66
2,57308, Note_on_c, 0, 58, 68
2,57315, Control_c, 0, 64, 65
2,57335, Control_c, 0, 64, 64
2,57336, Note_on_c, 0, 41, 0
2,57344, Note_on_c, 0, 70, 60
2,57353, Control_c, 0, 64, 62
2,57373, Control_c, 0, 64, 52
2,57392, Control_c, 0, 64, 0
2,57663, Control_c, 0, 64, 47
2,57681, Control_c, 0, 64, 62
2,57701, Control_c, 0, 64, 64
2,57720, Control_c, 0, 64, 65
2,57740, Control_c, 0, 64, 68
2,57744, Note_on_c, 0, 45, 43
2,57757, Note_on_c, 0, 46, 0
2,57758, Control_c, 0, 64, 73
2,57778, Control_c, 0, 64, 83
2,57797, Control_c, 0, 64, 96
2,57816, Control_c, 0, 64, 106
2,57835, Control_c, 0, 64, 114
2,57843, Note_on_c, 0, 58, 0
2,57855, Control_c, 0, 64, 127
2,58145, Note_on_c, 0, 65, 74
2,58149, Note_on_c, 0, 46, 50
2,58159, Note_on_c, 0, 70, 0
2,58258, Control_c, 0, 64, 113
2,58277, Control_c, 0, 64, 87
2,58296, Control_c, 0, 64, 70
2,58313, Note_on_c, 0, 45, 0
2,58315, Control_c, 0, 64, 61
2,58335, Control_c, 0, 64, 50
2,58354, Control_c, 0, 64, 47
2,58373, Control_c, 0, 64, 48
2,58392, Control_c, 0, 64, 52
2,58412, Control_c, 0, 64, 56
2,58430, Control_c, 0, 64, 60
2,58449, Control_c, 0, 64, 63
2,58469, Control_c, 0, 64, 66
2,58488, Control_c, 0, 64, 69
2,58507, Control_c, 0, 64, 75
2,58526, Control_c, 0, 64, 86
2,58546, Control_c, 0, 64, 96
2,58564, Control_c, 0, 64, 103
2,58564, Note_on_c, 0, 48, 49
2,58582, Note_on_c, 0, 46, 0
2,58603, Control_c, 0, 64, 103
2,58623, Control_c, 0, 64, 101
2,58641, Control_c, 0, 64, 98
2,58661, Control_c, 0, 64, 88
2,58680, Control_c, 0, 64, 75
2,58700, Control_c, 0, 64, 64
2,58718, Control_c, 0, 64, 57
2,58738, Control_c, 0, 64, 56
2,58757, Control_c, 0, 64, 60
2,58776, Control_c, 0, 64, 64
2,58795, Control_c, 0, 64, 67
2,58815, Control_c, 0, 64, 71
2,58834, Control_c, 0, 64, 78
2,58853, Control_c, 0, 64, 88
2,58872, Control_c, 0, 64, 95
2,58892, Control_c, 0, 64, 100
2,58910, Control_c, 0, 64, 100
2,58924, Note_on_c, 0, 49, 48
2,58929, Control_c, 0, 64, 101
2,58935, Note_on_c, 0, 70, 69
2,58949, Control_c, 0, 64, 101
2,58962, Note_on_c, 0, 48, 0
2,58968, Control_c, 0, 64, 104
2,58987, Control_c, 0, 64, 107
2,59006, Control_c, 0, 64, 110
2,59026, Control_c, 0, 64, 111
2,59044, Control_c, 0, 64, 114
2,59064, Control_c, 0, 64, 127
2,59198, Control_c, 0, 64, 108
2,59218, Control_c, 0, 64, 88
2,59237, Control_c, 0, 64, 75
2,59256, Control_c, 0, 64, 67
2,59275, Control_c, 0, 64, 66
2,59295, Control_c, 0, 64, 69
2,59306, Note_on_c, 0, 48, 42
2,59314, Control_c, 0, 64, 76
2,59333, Control_c, 0, 64, 90
2,59341, Note_on_c, 0, 66, 67
2,59352, Control_c, 0, 64, 127
2,59353, Note_on_c, 0, 49, 0
2,59389, Note_on_c, 0, 65, 0
2,59404, Note_on_c, 0, 70, 0
2,59406, Note_on_c, 0, 66, 0
2,59660, Control_c, 0, 64, 94
2,59679, Control_c, 0, 64, 69
2,59688, Note_on_c, 0, 49, 51
2,59699, Control_c, 0, 64, 53
2,59718, Control_c, 0, 64, 25
2,59722, Note_on_c, 0, 77, 85
2,59737, Control_c, 0, 64, 36
2,59751, Note_on_c, 0, 65, 51
2,59756, Control_c, 0, 64, 54
2,59776, Control_c, 0, 64, 63
2,59795, Control_c, 0, 64, 68
2,59814, Control_c, 0, 64, 80
2,59832, Note_on_c, 0, 48, 0
2,59833, Control_c, 0, 64, 98
2,59848, Note_on_c, 0, 49, 0
2,59853, Control_c, 0, 64, 127
2,60081, Control_c, 0, 64, 99
2,60101, Control_c, 0, 64, 75
2,60101, Note_on_c, 0, 63, 63
2,60115, Note_on_c, 0, 51, 50
2,60120, Control_c, 0, 64, 59
2,60140, Control_c, 0, 64, 0
2,60235, Control_c, 0, 64, 55
2,60255, Control_c, 0, 64, 65
2,60274, Control_c, 0, 64, 71
2,60293, Control_c, 0, 64, 81
2,60312, Control_c, 0, 64, 98
2,60332, Control_c, 0, 64, 121
2,60335, Note_on_c, 0, 63, 0
2,60350, Control_c, 0, 64, 127
2,60484, Control_c, 0, 64, 121
2,60498, Note_on_c, 0, 51, 0
2,60504, Control_c, 0, 64, 87
2,60513, Note_on_c, 0, 61, 78
2,60523, Control_c, 0, 64, 68
2,60528, Note_on_c, 0, 53, 58
2,60543, Control_c, 0, 64, 48
2,60561, Control_c, 0, 64, 18
2,60581, Control_c, 0, 64, 29
2,60600, Control_c, 0, 64, 50
2,60620, Control_c, 0, 64, 63
2,60638, Control_c, 0, 64, 71
2,60652, Note_on_c, 0, 77, 0
2,60658, Control_c, 0, 64, 82
2,60677, Control_c, 0, 64, 100
2,60696, Control_c, 0, 64, 123
2,60715, Control_c, 0, 64, 127
2,60776, Note_on_c, 0, 61, 0
2,60870, Control_c, 0, 64, 110
2,60889, Control_c, 0, 64, 88
2,60905, Note_on_c, 0, 63, 58
2,60908, Control_c, 0, 64, 68
2,60908, Note_on_c, 0, 78, 86
2,60927, Control_c, 0, 64, 55
2,60938, Note_on_c, 0, 51, 36
2,60947, Control_c, 0, 64, 44
2,60965, Control_c, 0, 64, 54
2,60985, Control_c, 0, 64, 62
2,61004, Control_c, 0, 64, 67
2,61015, Note_on_c, 0, 63, 0
2,61024, Control_c, 0, 64, 75
2,61042, Control_c, 0, 64, 99
2,61044, Note_on_c, 0, 53, 0
2,61062, Control_c, 0, 64, 127
2,61098, Note_on_c, 0, 51, 0
2,61143, Note_on_c, 0, 78, 0
2,61160, Note_on_c, 0, 65, 0
2,61311, Control_c, 0, 64, 100
2,61330, Control_c, 0, 64, 79
2,61330, Note_on_c, 0, 49, 56
2,61350, Control_c, 0, 64, 65
2,61357, Note_on_c, 0, 77, 79
2,61368, Control_c, 0, 64, 36
2,61373, Note_on_c, 0, 65, 52
2,61387, Control_c, 0, 64, 0
2,61464, Control_c, 0, 64, 42
2,61483, Control_c, 0, 64, 59
2,61503, Control_c, 0, 64, 64
2,61521, Control_c, 0, 64, 65
2,61541, Control_c, 0, 64, 66
2,61560, Control_c, 0, 64, 67
2,61580, Control_c, 0, 64, 68
2,61598, Control_c, 0, 64, 66
2,61618, Control_c, 0, 64, 63
2,61637, Control_c, 0, 64, 57
2,61656, Control_c, 0, 64, 49
2,61675, Control_c, 0, 64, 48
2,61695, Control_c, 0, 64, 54
2,61703, Note_on_c, 0, 51, 52
2,61705, Note_on_c, 0, 75, 71
2,61714, Control_c, 0, 64, 61
2,61733, Control_c, 0, 64, 65
2,61752, Control_c, 0, 64, 68
2,61772, Control_c, 0, 64, 73
2,61790, Control_c, 0, 64, 80
2,61809, Control_c, 0, 64, 86
2,61829, Control_c, 0, 64, 88
2,61861, Note_on_c, 0, 53, 63
2,61896, Note_on_c, 0, 51, 0
2,61917, Note_on_c, 0, 53, 0
2,61940, Note_on_c, 0, 49, 0
2,61944, Control_c, 0, 64, 88
2,61963, Control_c, 0, 64, 89
2,62001, Control_c, 0, 64, 88
2,62021, Control_c, 0, 64, 82
2,62040, Control_c, 0, 64, 69
2,62060, Control_c, 0, 64, 54
2,62070, Note_on_c, 0, 73, 73
2,62075, Note_on_c, 0, 58, 47
2,62076, Note_on_c, 0, 54, 57
2,62078, Control_c, 0, 64, 0
2,62136, Control_c, 0, 64, 18
2,62155, Control_c, 0, 64, 59
2,62175, Control_c, 0, 64, 66
2,62181, Note_on_c, 0, 75, 0
2,62194, Control_c, 0, 64, 71
2,62206, Note_on_c, 0, 54, 0
2,62209, Note_on_c, 0, 53, 56
2,62213, Control_c, 0, 64, 80
2,62218, Note_on_c, 0, 77, 0
2,62232, Control_c, 0, 64, 88
2,62252, Control_c, 0, 64, 88
2,62270, Control_c, 0, 64, 77
2,62289, Control_c, 0, 64, 64
2,62309, Control_c, 0, 64, 51
2,62328, Control_c, 0, 64, 55
2,62347, Control_c, 0, 64, 61
2,62366, Control_c, 0, 64, 65
2,62386, Control_c, 0, 64, 71
2,62404, Control_c, 0, 64, 82
2,62420, Note_on_c, 0, 54, 60
2,62424, Control_c, 0, 64, 102
2,62426, Note_on_c, 0, 75, 81
2,62443, Control_c, 0, 64, 118
2,62454, Note_on_c, 0, 53, 0
2,62463, Control_c, 0, 64, 119
2,62504, Note_on_c, 0, 58, 0
2,62517, Note_on_c, 0, 54, 0
2,62540, Control_c, 0, 64, 118
2,62558, Control_c, 0, 64, 113
2,62578, Control_c, 0, 64, 111
2,62655, Control_c, 0, 64, 110
2,62674, Control_c, 0, 64, 110
2,62693, Control_c, 0, 64, 109
2,62712, Control_c, 0, 64, 108
2,62732, Control_c, 0, 64, 107
2,62750, Control_c, 0, 64, 104
2,62768, Control_c, 0, 64, 94
2,62788, Control_c, 0, 64, 79
2,62797, Note_on_c, 0, 45, 54
2,62807, Control_c, 0, 64, 66
2,62826, Control_c, 0, 64, 49
2,62842, Note_on_c, 0, 77, 69
2,62845, Control_c, 0, 64, 46
2,62865, Control_c, 0, 64, 55
2,62884, Control_c, 0, 64, 61
2,62903, Control_c, 0, 64, 64
2,62922, Control_c, 0, 64, 67
2,62942, Control_c, 0, 64, 70
2,62959, Note_on_c, 0, 73, 0
2,62960, Control_c, 0, 64, 78
2,62963, Note_on_c, 0, 75, 0
2,62980, Control_c, 0, 64, 86
2,62980, Note_on_c, 0, 65, 0
2,62989, Note_on_c, 0, 77, 0
2,62999, Control_c, 0, 64, 92
2,63019, Control_c, 0, 64, 93
2,63114, Control_c, 0, 64, 93
2,63153, Control_c, 0, 64, 92
2,63191, Control_c, 0, 64, 92
2,63210, Control_c, 0, 64, 91
2,63230, Control_c, 0, 64, 90
2,63246, Note_on_c, 0, 63, 65
2,63248, Control_c, 0, 64, 89
2,63268, Control_c, 0, 64, 85
2,63287, Control_c, 0, 64, 76
2,63306, Control_c, 0, 64, 67
2,63325, Control_c, 0, 64, 59
2,63345, Control_c, 0, 64, 51
2,63364, Control_c, 0, 64, 54
2,63383, Control_c, 0, 64, 60
2,63402, Control_c, 0, 64, 64
2,63422, Control_c, 0, 64, 67
2,63440, Control_c, 0, 64, 72
2,63460, Control_c, 0, 64, 79
2,63479, Control_c, 0, 64, 85
2,63499, Control_c, 0, 64, 87
2,63517, Control_c, 0, 64, 86
2,63537, Control_c, 0, 64, 86
2,63614, Control_c, 0, 64, 85
2,63690, Control_c, 0, 64, 84
2,63709, Control_c, 0, 64, 78
2,63719, Note_on_c, 0, 45, 0
2,63727, Control_c, 0, 64, 71
2,63739, Note_on_c, 0, 46, 45
2,63747, Control_c, 0, 64, 64
2,63760, Note_on_c, 0, 70, 49
2,63766, Control_c, 0, 64, 62
2,63785, Control_c, 0, 64, 64
2,63804, Control_c, 0, 64, 65
2,63824, Control_c, 0, 64, 67
2,63843, Control_c, 0, 64, 71
2,63862, Control_c, 0, 64, 77
2,63881, Control_c, 0, 64, 82
2,63901, Control_c, 0, 64, 84
2,63920, Control_c, 0, 64, 83
2,63924, Note_on_c, 0, 63, 0
2,63939, Control_c, 0, 64, 82
2,63958, Control_c, 0, 64, 81
2,63978, Control_c, 0, 64, 80
2,63996, Control_c, 0, 64, 79
2,64016, Control_c, 0, 64, 79
2,64093, Control_c, 0, 64, 78
2,64127, Note_on_c, 0, 61, 55
2,64130, Control_c, 0, 64, 78
2,64150, Control_c, 0, 64, 77
2,64169, Control_c, 0, 64, 77
2,64189, Control_c, 0, 64, 76
2,64207, Control_c, 0, 64, 76
2,64247, Control_c, 0, 64, 75
2,64274, Note_on_c, 0, 61, 0
2,64305, Control_c, 0, 64, 76
2,64362, Control_c, 0, 64, 75
2,64382, Control_c, 0, 64, 75
2,64400, Control_c, 0, 64, 72
2,64420, Control_c, 0, 64, 65
2,64439, Control_c, 0, 64, 55
2,64459, Control_c, 0, 64, 40
2,64497, Control_c, 0, 64, 50
2,64505, Note_on_c, 0, 60, 55
2,64513, Note_on_c, 0, 48, 49
2,64516, Control_c, 0, 64, 61
2,64535, Control_c, 0, 64, 65
2,64554, Control_c, 0, 64, 69
2,64574, Control_c, 0, 64, 76
2,64593, Control_c, 0, 64, 87
2,64604, Note_on_c, 0, 60, 0
2,64611, Control_c, 0, 64, 96
2,64618, Note_on_c, 0, 70, 0
2,64785, Control_c, 0, 64, 94
2,64804, Control_c, 0, 64, 87
2,64823, Control_c, 0, 64, 77
2,64842, Control_c, 0, 64, 67
2,64862, Control_c, 0, 64, 62
2,64880, Control_c, 0, 64, 60
2,64897, Note_on_c, 0, 75, 82
2,64900, Control_c, 0, 64, 63
2,64914, Note_on_c, 0, 46, 0
2,64919, Control_c, 0, 64, 65
2,64939, Control_c, 0, 64, 68
2,64957, Control_c, 0, 64, 71
2,64971, Note_on_c, 0, 48, 0
2,64977, Control_c, 0, 64, 74
2,64996, Control_c, 0, 64, 78
2,65015, Control_c, 0, 64, 80
2,65207, Control_c, 0, 64, 79
2,65226, Control_c, 0, 64, 77
2,65248, Control_c, 0, 64, 73
2,65268, Control_c, 0, 64, 67
2,65275, Note_on_c, 0, 58, 51
2,65287, Control_c, 0, 64, 62
2,65292, Note_on_c, 0, 49, 49
2,65306, Control_c, 0, 64, 55
2,65325, Control_c, 0, 64, 53
2,65363, Control_c, 0, 64, 56
2,65382, Control_c, 0, 64, 60
2,65402, Control_c, 0, 64, 63
2,65421, Control_c, 0, 64, 66
2,65440, Control_c, 0, 64, 68
2,65459, Control_c, 0, 64, 70
2,65479, Control_c, 0, 64, 71
2,65497, Control_c, 0, 64, 72
2,65536, Control_c, 0, 64, 71
2,65556, Control_c, 0, 64, 68
2,65574, Control_c, 0, 64, 63
2,65594, Control_c, 0, 64, 59
2,65613, Control_c, 0, 64, 59
2,65631, Control_c, 0, 64, 60
2,65637, Note_on_c, 0, 46, 49
2,65637, Note_on_c, 0, 49, 0
2,65649, Control_c, 0, 64, 62
2,65668, Note_on_c, 0, 73, 66
2,65669, Control_c, 0, 64, 64
2,65688, Control_c, 0, 64, 65
2,65708, Control_c, 0, 64, 67
2,65726, Control_c, 0, 64, 68
2,65746, Control_c, 0, 64, 69
2,65765, Control_c, 0, 64, 69
2,65918, Control_c, 0, 64, 69
2,65937, Control_c, 0, 64, 67
2,65957, Control_c, 0, 64, 64
2,65976, Control_c, 0, 64, 58
2,65995, Control_c, 0, 64, 47
2,66006, Note_on_c, 0, 53, 55
2,66014, Control_c, 0, 64, 39
2,66026, Note_on_c, 0, 72, 70
2,66034, Control_c, 0, 64, 43
2,66052, Control_c, 0, 64, 53
2,66058, Note_on_c, 0, 46, 0
2,66072, Control_c, 0, 64, 61
2,66091, Control_c, 0, 64, 64
2,66102, Note_on_c, 0, 58, 0
2,66108, Note_on_c, 0, 75, 0
2,66111, Control_c, 0, 64, 66
2,66129, Control_c, 0, 64, 68
2,66149, Control_c, 0, 64, 71
2,66169, Control_c, 0, 64, 74
2,66188, Control_c, 0, 64, 78
2,66207, Control_c, 0, 64, 81
2,66283, Note_on_c, 0, 73, 0
2,66361, Control_c, 0, 64, 80
2,66374, Note_on_c, 0, 51, 49
2,66380, Control_c, 0, 64, 76
2,66399, Control_c, 0, 64, 67
2,66405, Note_on_c, 0, 68, 74
2,66412, Note_on_c, 0, 53, 0
2,66418, Control_c, 0, 64, 58
2,66438, Control_c, 0, 64, 36
2,66457, Control_c, 0, 64, 22
2,66476, Control_c, 0, 64, 28
2,66495, Control_c, 0, 64, 46
2,66501, Note_on_c, 0, 72, 0
2,66515, Control_c, 0, 64, 59
2,66533, Control_c, 0, 64, 63
2,66553, Control_c, 0, 64, 65
2,66572, Control_c, 0, 64, 67
2,66592, Control_c, 0, 64, 69
2,66610, Control_c, 0, 64, 70
2,66630, Control_c, 0, 64, 73
2,66649, Control_c, 0, 64, 75
2,66668, Control_c, 0, 64, 75
2,66687, Control_c, 0, 64, 75
2,66707, Control_c, 0, 64, 73
2,66726, Control_c, 0, 64, 68
2,66745, Control_c, 0, 64, 62
2,66761, Note_on_c, 0, 51, 0
2,66764, Control_c, 0, 64, 52
2,66784, Control_c, 0, 64, 46
2,66788, Note_on_c, 0, 50, 43
2,66793, Note_on_c, 0, 70, 58
2,66821, Control_c, 0, 64, 52
2,66841, Control_c, 0, 64, 59
2,66860, Control_c, 0, 64, 63
2,66879, Control_c, 0, 64, 65
2,66898, Control_c, 0, 64, 67
2,66910, Note_on_c, 0, 68, 0
2,66918, Control_c, 0, 64, 70
2,66937, Control_c, 0, 64, 72
2,66956, Control_c, 0, 64, 76
2,66975, Control_c, 0, 64, 79
2,66995, Control_c, 0, 64, 79
2,67033, Control_c, 0, 64, 79
2,67052, Control_c, 0, 64, 76
2,67072, Control_c, 0, 64, 71
2,67090, Control_c, 0, 64, 66
2,67110, Control_c, 0, 64, 64
2,67130, Control_c, 0, 64, 65
2,67149, Control_c, 0, 64, 68
2,67155, Note_on_c, 0, 50, 0
2,67164, Note_on_c, 0, 51, 50
2,67168, Control_c, 0, 64, 70
2,67179, Note_on_c, 0, 66, 59
2,67188, Control_c, 0, 64, 74
2,67207, Control_c, 0, 64, 79
2,67226, Control_c, 0, 64, 82
2,67245, Control_c, 0, 64, 84
2,67265, Control_c, 0, 64, 86
2,67322, Control_c, 0, 64, 84
2,67341, Control_c, 0, 64, 78
2,67360, Control_c, 0, 64, 69
2,67379, Control_c, 0, 64, 58
2,67399, Control_c, 0, 64, 49
2,67417, Control_c, 0, 64, 55
2,67437, Control_c, 0, 64, 61
2,67456, Control_c, 0, 64, 64
2,67476, Control_c, 0, 64, 67
2,67494, Control_c, 0, 64, 71
2,67514, Control_c, 0, 64, 77
2,67533, Control_c, 0, 64, 81
2,67552, Control_c, 0, 64, 82
2,67555, Note_on_c, 0, 65, 66
2,67570, Control_c, 0, 64, 81
2,67622, Note_on_c, 0, 66, 0
2,67643, Note_on_c, 0, 70, 0
2,67647, Control_c, 0, 64, 81
2,67651, Note_on_c, 0, 65, 0
2,67839, Control_c, 0, 64, 81
2,67935, Control_c, 0, 64, 80
2,67955, Control_c, 0, 64, 77
2,67973, Control_c, 0, 64, 71
2,67986, Note_on_c, 0, 50, 29
2,67993, Control_c, 0, 64, 65
2,68012, Control_c, 0, 64, 61
2,68020, Note_on_c, 0, 51, 0
2,68032, Control_c, 0, 64, 59
2,68050, Control_c, 0, 64, 60
2,68061, Note_on_c, 0, 80, 82
2,68070, Control_c, 0, 64, 63
2,68090, Control_c, 0, 64, 65
2,68109, Control_c, 0, 64, 68
2,68128, Control_c, 0, 64, 72
2,68148, Control_c, 0, 64, 77
2,68167, Control_c, 0, 64, 83
2,68175, Note_on_c, 0, 50, 0
2,68186, Control_c, 0, 64, 87
2,68205, Control_c, 0, 64, 88
2,68282, Control_c, 0, 64, 89
2,68301, Control_c, 0, 64, 89
2,68320, Control_c, 0, 64, 90
2,68359, Control_c, 0, 64, 89
2,68377, Control_c, 0, 64, 84
2,68397, Control_c, 0, 64, 75
2,68416, Control_c, 0, 64, 65
2,68436, Control_c, 0, 64, 56
2,68439, Note_on_c, 0, 63, 51
2,68454, Control_c, 0, 64, 49
2,68460, Note_on_c, 0, 51, 48
2,68474, Control_c, 0, 64, 57
2,68493, Control_c, 0, 64, 62
2,68513, Control_c, 0, 64, 65
2,68531, Control_c, 0, 64, 68
2,68551, Control_c, 0, 64, 73
2,68570, Control_c, 0, 64, 81
2,68589, Control_c, 0, 64, 88
2,68608, Control_c, 0, 64, 90
2,68647, Control_c, 0, 64, 90
2,68666, Control_c, 0, 64, 89
2,68685, Control_c, 0, 64, 86
2,68705, Control_c, 0, 64, 77
2,68723, Control_c, 0, 64, 67
2,68742, Control_c, 0, 64, 54
2,68762, Control_c, 0, 64, 43
2,68781, Control_c, 0, 64, 46
2,68800, Control_c, 0, 64, 56
2,68813, Note_on_c, 0, 60, 54
2,68819, Control_c, 0, 64, 62
2,68820, Note_on_c, 0, 78, 68
2,68839, Control_c, 0, 64, 65
2,68857, Control_c, 0, 64, 67
2,68860, Note_on_c, 0, 63, 0
2,68877, Control_c, 0, 64, 70
2,68896, Control_c, 0, 64, 74
2,68916, Control_c, 0, 64, 78
2,68934, Control_c, 0, 64, 78
2,69011, Control_c, 0, 64, 78
2,69031, Control_c, 0, 64, 77
2,69052, Control_c, 0, 64, 76
2,69128, Control_c, 0, 64, 74
2,69148, Control_c, 0, 64, 69
2,69167, Control_c, 0, 64, 61
2,69187, Control_c, 0, 64, 48
2,69187, Note_on_c, 0, 57, 42
2,69188, Note_on_c, 0, 60, 0
2,69205, Control_c, 0, 64, 38
2,69223, Note_on_c, 0, 77, 57
2,69225, Control_c, 0, 64, 38
2,69237, Note_on_c, 0, 51, 0
2,69244, Control_c, 0, 64, 47
2,69262, Control_c, 0, 64, 59
2,69270, Note_on_c, 0, 80, 0
2,69282, Control_c, 0, 64, 64
2,69301, Control_c, 0, 64, 67
2,69321, Control_c, 0, 64, 70
2,69339, Control_c, 0, 64, 74
2,69359, Control_c, 0, 64, 77
2,69378, Control_c, 0, 64, 78
2,69416, Control_c, 0, 64, 77
2,69421, Note_on_c, 0, 78, 0
2,69436, Control_c, 0, 64, 77
2,69436, Control_c, 0, 67, 8
2,69455, Control_c, 0, 64, 76
2,69455, Control_c, 0, 67, 15
2,69472, Control_c, 0, 64, 75
2,69472, Control_c, 0, 67, 24
2,69490, Control_c, 0, 64, 74
2,69490, Control_c, 0, 67, 34
2,69510, Control_c, 0, 67, 45
2,69529, Control_c, 0, 64, 74
2,69529, Control_c, 0, 67, 56
2,69548, Control_c, 0, 64, 71
2,69548, Control_c, 0, 67, 66
2,69567, Control_c, 0, 64, 64
2,69567, Control_c, 0, 67, 76
2,69587, Control_c, 0, 64, 51
2,69587, Control_c, 0, 67, 85
2,69606, Control_c, 0, 64, 20
2,69606, Control_c, 0, 67, 92
2,69625, Control_c, 0, 64, 0
2,69625, Control_c, 0, 67, 96
2,69631, Note_on_c, 0, 61, 47
2,69638, Note_on_c, 0, 57, 0
2,69644, Control_c, 0, 64, 19
2,69644, Control_c, 0, 67, 97
2,69663, Control_c, 0, 64, 43
2,69681, Note_on_c, 0, 58, 34
2,69683, Control_c, 0, 64, 58
2,69701, Control_c, 0, 64, 63
2,69721, Control_c, 0, 64, 65
2,69721, Control_c, 0, 67, 97
2,69740, Control_c, 0, 64, 65
2,69740, Control_c, 0, 67, 96
2,69759, Control_c, 0, 64, 66
2,69759, Control_c, 0, 67, 96
2,69778, Control_c, 0, 67, 95
2,69798, Control_c, 0, 64, 66
2,69798, Control_c, 0, 67, 95
2,69817, Control_c, 0, 67, 94
2,69836, Control_c, 0, 67, 94
2,69855, Control_c, 0, 67, 93
2,69893, Control_c, 0, 67, 93
2,69952, Control_c, 0, 64, 66
2,69970, Control_c, 0, 64, 65
2,69990, Control_c, 0, 64, 63
2,70011, Control_c, 0, 64, 57
2,70030, Control_c, 0, 64, 48
2,70030, Control_c, 0, 67, 92
2,70049, Control_c, 0, 64, 41
2,70049, Control_c, 0, 67, 92
2,70052, Note_on_c, 0, 54, 35
2,70056, Note_on_c, 0, 70, 45
2,70069, Control_c, 0, 64, 41
2,70069, Control_c, 0, 67, 91
2,70088, Control_c, 0, 64, 46
2,70088, Control_c, 0, 67, 91
2,70107, Control_c, 0, 64, 55
2,70126, Control_c, 0, 64, 62
2,70130, Note_on_c, 0, 58, 0
2,70146, Control_c, 0, 64, 64
2,70164, Control_c, 0, 64, 66
2,70183, Control_c, 0, 64, 68
2,70197, Note_on_c, 0, 75, 54
2,70203, Control_c, 0, 64, 69
2,70222, Control_c, 0, 64, 71
2,70226, Note_on_c, 0, 77, 0
2,70241, Control_c, 0, 64, 73
2,70260, Control_c, 0, 64, 73
2,70260, Control_c, 0, 67, 90
2,70280, Control_c, 0, 64, 74
2,70316, Note_on_c, 0, 70, 0
2,70337, Control_c, 0, 64, 73
2,70339, Note_on_c, 0, 54, 0
2,70342, Note_on_c, 0, 75, 0
2,70357, Control_c, 0, 64, 70
2,70369, Note_on_c, 0, 53, 42
2,70375, Control_c, 0, 64, 65
2,70381, Note_on_c, 0, 77, 51
2,70386, Note_on_c, 0, 69, 57
2,70395, Control_c, 0, 64, 57
2,70414, Control_c, 0, 64, 49
2,70414, Control_c, 0, 67, 90
2,70433, Control_c, 0, 64, 47
2,70433, Control_c, 0, 67, 89
2,70451, Control_c, 0, 64, 50
2,70451, Control_c, 0, 67, 88
2,70471, Control_c, 0, 64, 56
2,70471, Control_c, 0, 67, 88
2,70490, Control_c, 0, 64, 62
2,70490, Control_c, 0, 67, 87
2,70509, Control_c, 0, 64, 64
2,70525, Note_on_c, 0, 77, 0
2,70528, Control_c, 0, 64, 66
2,70528, Control_c, 0, 67, 87
2,70548, Control_c, 0, 64, 67
2,70551, Note_on_c, 0, 78, 62
2,70567, Control_c, 0, 64, 68
2,70567, Control_c, 0, 67, 87
2,70572, Note_on_c, 0, 69, 0
2,70586, Control_c, 0, 64, 69
2,70603, Note_on_c, 0, 61, 0
2,70643, Control_c, 0, 67, 87
2,70658, Note_on_c, 0, 78, 0
2,70682, Control_c, 0, 64, 68
2,70703, Note_on_c, 0, 53, 0
2,70720, Control_c, 0, 67, 87
2,70739, Control_c, 0, 67, 88
2,70759, Control_c, 0, 67, 89
2,70764, Note_on_c, 0, 54, 41
2,70777, Control_c, 0, 64, 68
2,70777, Control_c, 0, 67, 90
2,70797, Control_c, 0, 64, 66
2,70797, Control_c, 0, 67, 90
2,70815, Note_on_c, 0, 70, 53
2,70816, Control_c, 0, 64, 63
2,70836, Control_c, 0, 64, 55
2,70838, Note_on_c, 0, 75, 57
2,70854, Control_c, 0, 64, 41
2,70874, Control_c, 0, 64, 0
2,70874, Control_c, 0, 67, 90
2,70951, Control_c, 0, 64, 49
2,70958, Note_on_c, 0, 75, 0
2,70970, Control_c, 0, 64, 61
2,70989, Control_c, 0, 64, 63
2,70989, Control_c, 0, 67, 89
2,70998, Note_on_c, 0, 77, 55
2,71008, Control_c, 0, 64, 64
2,71028, Control_c, 0, 64, 65
2,71028, Control_c, 0, 67, 89
2,71044, Note_on_c, 0, 77, 0
2,71047, Control_c, 0, 67, 88
2,71066, Control_c, 0, 67, 87
2,71072, Note_on_c, 0, 75, 48
2,71085, Control_c, 0, 67, 87
2,71117, Note_on_c, 0, 75, 0
2,71134, Note_on_c, 0, 77, 64
2,71142, Control_c, 0, 64, 65
2,71172, Note_on_c, 0, 77, 0
2,71181, Control_c, 0, 67, 87
2,71187, Note_on_c, 0, 75, 62
2,71200, Control_c, 0, 64, 66
2,71219, Control_c, 0, 64, 67
2,71239, Control_c, 0, 64, 67
2,71334, Control_c, 0, 64, 68
2,71359, Note_on_c, 0, 77, 61
2,71373, Control_c, 0, 64, 69
2,71389, Control_c, 0, 64, 70
2,71389, Control_c, 0, 67, 88
2,71401, Note_on_c, 0, 75, 0
2,71408, Control_c, 0, 64, 70
2,71416, Note_on_c, 0, 54, 0
2,71427, Control_c, 0, 67, 88
2,71450, Note_on_c, 0, 70, 0
2,71463, Note_on_c, 0, 77, 0
2,71503, Control_c, 0, 64, 70
2,71542, Control_c, 0, 64, 69
2,71580, Control_c, 0, 64, 68
2,71600, Control_c, 0, 64, 67
2,71612, Note_on_c, 0, 53, 47
2,71618, Control_c, 0, 64, 64
2,71618, Note_on_c, 0, 77, 56
2,71638, Control_c, 0, 64, 60
2,71638, Control_c, 0, 67, 88
2,71656, Note_on_c, 0, 69, 37
2,71657, Control_c, 0, 64, 51
2,71657, Control_c, 0, 67, 87
2,71677, Control_c, 0, 64, 34
2,71695, Control_c, 0, 64, 0
2,71695, Control_c, 0, 67, 87
2,71715, Control_c, 0, 67, 86
2,71753, Control_c, 0, 67, 86
2,71772, Control_c, 0, 64, 41
2,71772, Control_c, 0, 67, 85
2,71792, Control_c, 0, 64, 58
2,71811, Control_c, 0, 64, 63
2,71811, Control_c, 0, 67, 84
2,71830, Control_c, 0, 64, 64
2,71830, Control_c, 0, 67, 83
2,71849, Control_c, 0, 64, 66
2,71849, Control_c, 0, 67, 81
2,71869, Control_c, 0, 64, 68
2,71869, Control_c, 0, 67, 78
2,71888, Control_c, 0, 64, 71
2,71888, Control_c, 0, 67, 72
2,71907, Control_c, 0, 64, 77
2,71907, Control_c, 0, 67, 63
2,71932, Control_c, 0, 64, 82
2,71932, Control_c, 0, 67, 54
2,71936, Note_on_c, 0, 69, 0
2,71951, Control_c, 0, 64, 84
2,71951, Control_c, 0, 67, 42
2,71970, Control_c, 0, 67, 30
2,71974, Note_on_c, 0, 77, 0
2,71990, Control_c, 0, 67, 14
2,72008, Control_c, 0, 64, 85
2,72008, Control_c, 0, 67, 0
2,72028, Control_c, 0, 64, 86
2,72047, Control_c, 0, 64, 87
2,72142, Control_c, 0, 64, 86
2,72162, Control_c, 0, 64, 85
2,72201, Control_c, 0, 64, 85
2,72258, Control_c, 0, 64, 84
2,72278, Control_c, 0, 64, 83
2,72296, Control_c, 0, 64, 82
2,72316, Control_c, 0, 64, 80
2,72335, Control_c, 0, 64, 78
2,72353, Control_c, 0, 64, 77
2,72371, Control_c, 0, 64, 76
2,72390, Note_on_c, 0, 82, 86
2,72391, Control_c, 0, 64, 75
2,72410, Control_c, 0, 64, 74
2,72418, Note_on_c, 0, 70, 63
2,72429, Control_c, 0, 64, 73
2,72439, Note_on_c, 0, 53, 0
2,72448, Control_c, 0, 64, 71
2,72468, Control_c, 0, 64, 70
2,72487, Control_c, 0, 64, 68
2,72506, Control_c, 0, 64, 67
2,72525, Control_c, 0, 64, 65
2,72544, Control_c, 0, 64, 64
2,72563, Control_c, 0, 64, 63
2,72582, Control_c, 0, 64, 62
2,72602, Control_c, 0, 64, 59
2,72621, Control_c, 0, 64, 54
2,72640, Control_c, 0, 64, 45
2,72659, Control_c, 0, 64, 36
2,72679, Control_c, 0, 64, 30
2,72697, Control_c, 0, 64, 28
2,72756, Control_c, 0, 64, 29
2,72774, Control_c, 0, 64, 31
2,72794, Control_c, 0, 64, 35
2,72813, Control_c, 0, 64, 39
2,72833, Control_c, 0, 64, 45
2,72851, Control_c, 0, 64, 51
2,72871, Control_c, 0, 64, 58
2,72892, Control_c, 0, 64, 61
2,72912, Control_c, 0, 64, 63
2,72931, Control_c, 0, 64, 64
2,72951, Control_c, 0, 64, 65
2,72969, Control_c, 0, 64, 66
2,72989, Control_c, 0, 64, 68
2,73008, Control_c, 0, 64, 70
2,73028, Control_c, 0, 64, 72
2,73046, Control_c, 0, 64, 74
2,73066, Control_c, 0, 64, 75
2,73085, Control_c, 0, 64, 76
2,73103, Control_c, 0, 64, 75
2,73162, Control_c, 0, 64, 75
2,73180, Control_c, 0, 64, 74
2,73200, Control_c, 0, 64, 72
2,73219, Control_c, 0, 64, 68
2,73229, Note_on_c, 0, 54, 78
2,73238, Control_c, 0, 64, 63
2,73250, Note_on_c, 0, 75, 61
2,73257, Control_c, 0, 64, 55
2,73277, Control_c, 0, 64, 47
2,73296, Control_c, 0, 64, 44
2,73311, Control_c, 0, 64, 44
2,73319, Note_on_c, 0, 82, 0
2,73329, Control_c, 0, 64, 47
2,73349, Control_c, 0, 64, 54
2,73368, Control_c, 0, 64, 60
2,73388, Control_c, 0, 64, 62
2,73406, Control_c, 0, 64, 63
2,73426, Control_c, 0, 64, 64
2,73445, Control_c, 0, 64, 65
2,73463, Control_c, 0, 64, 66
2,73475, Note_on_c, 0, 70, 0
2,73483, Control_c, 0, 64, 66
2,73522, Control_c, 0, 64, 67
2,73560, Control_c, 0, 64, 67
2,73579, Control_c, 0, 64, 68
2,73598, Control_c, 0, 64, 69
2,73617, Control_c, 0, 64, 70
2,73637, Control_c, 0, 64, 71
2,73656, Control_c, 0, 64, 71
2,73668, Note_on_c, 0, 83, 75
2,73768, Note_on_c, 0, 75, 0
2,73791, Control_c, 0, 64, 72
2,73872, Note_on_c, 0, 54, 0
2,74003, Control_c, 0, 64, 71
2,74022, Control_c, 0, 64, 71
2,74042, Control_c, 0, 64, 70
2,74046, Note_on_c, 0, 59, 88
2,74061, Control_c, 0, 64, 66
2,74080, Control_c, 0, 64, 60
2,74088, Note_on_c, 0, 82, 68
2,74099, Control_c, 0, 64, 50
2,74119, Control_c, 0, 64, 42
2,74137, Control_c, 0, 64, 41
2,74157, Control_c, 0, 64, 41
2,74176, Control_c, 0, 64, 44
2,74196, Control_c, 0, 64, 49
2,74214, Control_c, 0, 64, 53
2,74234, Control_c, 0, 64, 55
2,74253, Control_c, 0, 64, 55
2,74291, Control_c, 0, 64, 55
2,74388, Control_c, 0, 64, 57
2,74407, Control_c, 0, 64, 59
2,74426, Control_c, 0, 64, 61
2,74437, Note_on_c, 0, 80, 66
2,74445, Control_c, 0, 64, 63
2,74461, Note_on_c, 0, 77, 63
2,74464, Control_c, 0, 64, 65
2,74483, Control_c, 0, 64, 67
2,74499, Note_on_c, 0, 83, 0
2,74502, Control_c, 0, 64, 69
2,74506, Note_on_c, 0, 82, 0
2,74522, Control_c, 0, 64, 71
2,74541, Control_c, 0, 64, 72
2,74548, Note_on_c, 0, 80, 0
2,74560, Control_c, 0, 64, 73
2,74596, Note_on_c, 0, 77, 0
2,74617, Control_c, 0, 64, 73
2,74656, Control_c, 0, 64, 74
2,74676, Control_c, 0, 64, 74
2,74771, Control_c, 0, 64, 74
2,74791, Control_c, 0, 64, 72
2,74810, Control_c, 0, 64, 68
2,74813, Note_on_c, 0, 79, 78
2,74829, Control_c, 0, 64, 63
2,74831, Note_on_c, 0, 75, 58
2,74848, Control_c, 0, 64, 60
2,74887, Control_c, 0, 64, 62
2,74906, Control_c, 0, 64, 63
2,74925, Control_c, 0, 64, 65
2,74944, Control_c, 0, 64, 67
2,74963, Control_c, 0, 64, 68
2,74982, Control_c, 0, 64, 69
2,75097, Control_c, 0, 64, 69
2,75117, Control_c, 0, 64, 68
2,75136, Control_c, 0, 64, 65
2,75156, Control_c, 0, 64, 60
2,75174, Control_c, 0, 64, 53
2,75194, Control_c, 0, 64, 49
2,75197, Note_on_c, 0, 61, 52
2,75197, Note_on_c, 0, 80, 78
2,75213, Control_c, 0, 64, 48
2,75233, Control_c, 0, 64, 52
2,75245, Note_on_c, 0, 59, 0
2,75252, Control_c, 0, 64, 59
2,75272, Control_c, 0, 64, 63
2,75291, Control_c, 0, 64, 64
2,75310, Control_c, 0, 64, 65
2,75329, Control_c, 0, 64, 66
2,75368, Control_c, 0, 64, 65
2,75444, Control_c, 0, 64, 65
2,75483, Control_c, 0, 64, 64
2,75502, Control_c, 0, 64, 61
2,75521, Control_c, 0, 64, 52
2,75540, Control_c, 0, 64, 37
2,75560, Control_c, 0, 64, 0
2,75566, Note_on_c, 0, 82, 79
2,75572, Note_on_c, 0, 59, 54
2,75617, Control_c, 0, 64, 36
2,75637, Control_c, 0, 64, 57
2,75646, Note_on_c, 0, 61, 0
2,75655, Control_c, 0, 64, 63
2,75668, Note_on_c, 0, 75, 0
2,75675, Control_c, 0, 64, 64
2,75680, Note_on_c, 0, 80, 0
2,75694, Control_c, 0, 64, 65
2,75848, Control_c, 0, 64, 64
2,75867, Control_c, 0, 64, 63
2,75886, Control_c, 0, 64, 58
2,75906, Control_c, 0, 64, 45
2,75924, Control_c, 0, 64, 39
2,75943, Control_c, 0, 64, 39
2,75947, Note_on_c, 0, 59, 0
2,75949, Note_on_c, 0, 73, 47
2,75951, Note_on_c, 0, 58, 44
2,75963, Control_c, 0, 64, 48
2,75982, Control_c, 0, 64, 58
2,76001, Control_c, 0, 64, 63
2,76020, Control_c, 0, 64, 66
2,76040, Control_c, 0, 64, 70
2,76058, Control_c, 0, 64, 76
2,76078, Control_c, 0, 64, 83
2,76097, Control_c, 0, 64, 88
2,76135, Control_c, 0, 64, 87
2,76162, Note_on_c, 0, 73, 0
2,76192, Control_c, 0, 64, 87
2,76195, Note_on_c, 0, 79, 0
2,76268, Control_c, 0, 64, 86
2,76287, Control_c, 0, 64, 85
2,76307, Control_c, 0, 64, 80
2,76313, Note_on_c, 0, 82, 0
2,76314, Note_on_c, 0, 75, 72
2,76326, Control_c, 0, 64, 70
2,76328, Note_on_c, 0, 56, 47
2,76333, Note_on_c, 0, 72, 54
2,76344, Control_c, 0, 64, 61
2,76361, Note_on_c, 0, 58, 0
2,76364, Control_c, 0, 64, 43
2,76383, Control_c, 0, 64, 21
2,76403, Control_c, 0, 64, 18
2,76460, Control_c, 0, 64, 19
2,76479, Control_c, 0, 64, 23
2,76498, Control_c, 0, 64, 25
2,76518, Control_c, 0, 64, 27
2,76537, Control_c, 0, 64, 28
2,76556, Control_c, 0, 64, 30
2,76575, Control_c, 0, 64, 34
2,76595, Control_c, 0, 64, 39
2,76613, Control_c, 0, 64, 42
2,76633, Control_c, 0, 64, 45
2,76652, Control_c, 0, 64, 50
2,76669, Note_on_c, 0, 56, 0
2,76672, Control_c, 0, 64, 55
2,76690, Control_c, 0, 64, 59
2,76702, Note_on_c, 0, 55, 50
2,76710, Control_c, 0, 64, 62
2,76732, Control_c, 0, 64, 63
2,76751, Control_c, 0, 64, 63
2,76790, Control_c, 0, 64, 64
2,76808, Control_c, 0, 64, 64
2,76867, Control_c, 0, 64, 65
2,76924, Control_c, 0, 64, 65
2,77001, Control_c, 0, 64, 65
2,77019, Control_c, 0, 64, 64
2,77039, Control_c, 0, 64, 62
2,77055, Note_on_c, 0, 55, 0
2,77058, Control_c, 0, 64, 56
2,77078, Control_c, 0, 64, 43
2,77093, Note_on_c, 0, 80, 82
2,77096, Control_c, 0, 64, 22
2,77102, Note_on_c, 0, 56, 52
2,77116, Control_c, 0, 64, 0
2,77132, Note_on_c, 0, 72, 0
2,77267, Control_c, 0, 64, 18
2,77286, Control_c, 0, 64, 26
2,77293, Note_on_c, 0, 75, 0
2,77304, Control_c, 0, 64, 34
2,77324, Control_c, 0, 64, 41
2,77343, Control_c, 0, 64, 46
2,77363, Control_c, 0, 64, 50
2,77381, Control_c, 0, 64, 53
2,77401, Control_c, 0, 64, 56
2,77420, Control_c, 0, 64, 59
2,77439, Control_c, 0, 64, 61
2,77458, Control_c, 0, 64, 63
2,77478, Control_c, 0, 64, 64
2,77490, Note_on_c, 0, 58, 46
2,77492, Note_on_c, 0, 73, 52
2,77497, Control_c, 0, 64, 66
2,77516, Control_c, 0, 64, 67
2,77535, Control_c, 0, 64, 70
2,77552, Note_on_c, 0, 56, 0
2,77555, Control_c, 0, 64, 76
2,77573, Control_c, 0, 64, 80
2,77593, Control_c, 0, 64, 83
2,77612, Control_c, 0, 64, 83
2,77689, Control_c, 0, 64, 84
2,77727, Control_c, 0, 64, 83
2,77747, Control_c, 0, 64, 83
2,77766, Control_c, 0, 64, 82
2,77784, Control_c, 0, 64, 80
2,77804, Control_c, 0, 64, 77
2,77823, Control_c, 0, 64, 71
2,77843, Control_c, 0, 64, 65
2,77861, Control_c, 0, 64, 59
2,77880, Note_on_c, 0, 60, 41
2,77880, Note_on_c, 0, 75, 70
2,77881, Control_c, 0, 64, 51
2,77900, Control_c, 0, 64, 48
2,77919, Control_c, 0, 64, 47
2,77938, Note_on_c, 0, 58, 0
2,78053, Control_c, 0, 64, 47
2,78092, Control_c, 0, 64, 48
2,78130, Control_c, 0, 64, 49
2,78150, Control_c, 0, 64, 50
2,78169, Control_c, 0, 64, 53
2,78188, Control_c, 0, 64, 56
2,78207, Control_c, 0, 64, 59
2,78227, Control_c, 0, 64, 61
2,78246, Control_c, 0, 64, 63
2,78255, Note_on_c, 0, 78, 61
2,78264, Control_c, 0, 64, 64
2,78284, Control_c, 0, 64, 66
2,78303, Control_c, 0, 64, 67
2,78322, Note_on_c, 0, 73, 0
2,78323, Control_c, 0, 64, 68
2,78341, Control_c, 0, 64, 70
2,78361, Control_c, 0, 64, 71
2,78380, Control_c, 0, 64, 73
2,78399, Control_c, 0, 64, 73
2,78495, Control_c, 0, 64, 73
2,78533, Control_c, 0, 64, 72
2,78553, Control_c, 0, 64, 71
2,78572, Control_c, 0, 64, 70
2,78592, Control_c, 0, 64, 69
2,78610, Control_c, 0, 64, 67
2,78630, Control_c, 0, 64, 64
2,78633, Note_on_c, 0, 60, 0
2,78650, Note_on_c, 0, 61, 40
2,78651, Control_c, 0, 64, 60
2,78655, Note_on_c, 0, 77, 68
2,78670, Control_c, 0, 64, 56
2,78689, Control_c, 0, 64, 51
2,78709, Control_c, 0, 64, 48
2,78728, Control_c, 0, 64, 47
2,78747, Control_c, 0, 64, 46
2,78770, Note_on_c, 0, 75, 0
2,78803, Note_on_c, 0, 80, 0
2,78920, Control_c, 0, 64, 45
2,78958, Control_c, 0, 64, 45
2,78997, Control_c, 0, 64, 47
2,79015, Control_c, 0, 64, 56
2,79035, Control_c, 0, 64, 61
2,79035, Control_c, 0, 67, 14
2,79054, Control_c, 0, 64, 64
2,79054, Control_c, 0, 67, 23
2,79074, Control_c, 0, 64, 66
2,79074, Control_c, 0, 67, 34
2,79076, Note_on_c, 0, 59, 42
2,79093, Control_c, 0, 64, 68
2,79093, Control_c, 0, 67, 43
2,79113, Control_c, 0, 64, 71
2,79113, Control_c, 0, 67, 51
2,79115, Note_on_c, 0, 61, 0
2,79132, Control_c, 0, 64, 75
2,79132, Control_c, 0, 67, 57
2,79151, Control_c, 0, 64, 77
2,79151, Control_c, 0, 67, 62
2,79170, Control_c, 0, 67, 65
2,79190, Control_c, 0, 64, 77
2,79190, Control_c, 0, 67, 65
2,79267, Control_c, 0, 64, 76
2,79285, Control_c, 0, 64, 76
2,79285, Control_c, 0, 67, 65
2,79304, Control_c, 0, 64, 75
2,79324, Control_c, 0, 64, 74
2,79342, Control_c, 0, 64, 72
2,79342, Control_c, 0, 67, 64
2,79362, Control_c, 0, 64, 68
2,79362, Control_c, 0, 67, 64
2,79381, Control_c, 0, 64, 62
2,79381, Control_c, 0, 67, 63
2,79401, Control_c, 0, 64, 51
2,79401, Control_c, 0, 67, 63
2,79419, Control_c, 0, 64, 50
2,79419, Control_c, 0, 67, 62
2,79427, Note_on_c, 0, 78, 0
2,79439, Control_c, 0, 64, 57
2,79448, Note_on_c, 0, 59, 0
2,79448, Note_on_c, 0, 73, 41
2,79458, Control_c, 0, 64, 61
2,79478, Control_c, 0, 64, 63
2,79496, Control_c, 0, 64, 64
2,79497, Note_on_c, 0, 58, 24
2,79516, Control_c, 0, 64, 64
2,79535, Control_c, 0, 64, 65
2,79593, Control_c, 0, 64, 65
2,79613, Control_c, 0, 64, 64
2,79632, Control_c, 0, 64, 63
2,79651, Control_c, 0, 64, 59
2,79671, Control_c, 0, 64, 50
2,79689, Control_c, 0, 64, 36
2,79709, Control_c, 0, 64, 19
2,79728, Control_c, 0, 64, 17
2,79728, Control_c, 0, 67, 62
2,79748, Control_c, 0, 64, 30
2,79748, Control_c, 0, 67, 61
2,79766, Control_c, 0, 64, 54
2,79766, Control_c, 0, 67, 60
2,79785, Control_c, 0, 64, 64
2,79785, Control_c, 0, 67, 60
2,79805, Control_c, 0, 64, 67
2,79805, Control_c, 0, 67, 59
2,79823, Control_c, 0, 64, 74
2,79838, Note_on_c, 0, 56, 46
2,79843, Control_c, 0, 64, 87
2,79843, Control_c, 0, 67, 59
2,79862, Control_c, 0, 64, 115
2,79882, Control_c, 0, 64, 127
2,79882, Control_c, 0, 67, 58
2,79900, Control_c, 0, 67, 58
2,79908, Note_on_c, 0, 77, 0
2,79934, Note_on_c, 0, 58, 0
2,79958, Control_c, 0, 67, 57
2,79997, Control_c, 0, 67, 57
2,80004, Note_on_c, 0, 56, 0
2,80016, Control_c, 0, 64, 119
2,80032, Control_c, 0, 64, 112
2,80050, Control_c, 0, 64, 108
2,80070, Control_c, 0, 64, 107
2,80089, Control_c, 0, 64, 105
2,80108, Control_c, 0, 64, 103
2,80127, Control_c, 0, 64, 98
2,80147, Control_c, 0, 64, 88
2,80166, Control_c, 0, 64, 72
2,80166, Control_c, 0, 67, 56
2,80167, Note_on_c, 0, 55, 40
2,80184, Control_c, 0, 64, 60
2,80204, Control_c, 0, 64, 29
2,80204, Control_c, 0, 67, 56
2,80206, Note_on_c, 0, 75, 67
2,80223, Control_c, 0, 64, 15
2,80243, Control_c, 0, 64, 24
2,80243, Control_c, 0, 67, 55
2,80261, Control_c, 0, 64, 41
2,80281, Control_c, 0, 64, 54
2,80281, Control_c, 0, 67, 54
2,80300, Control_c, 0, 64, 61
2,80300, Control_c, 0, 67, 54
2,80319, Control_c, 0, 64, 63
2,80338, Control_c, 0, 64, 63
2,80338, Control_c, 0, 67, 53
2,80358, Control_c, 0, 64, 64
2,80358, Control_c, 0, 67, 53
2,80396, Control_c, 0, 67, 52
2,80415, Control_c, 0, 67, 51
2,80435, Control_c, 0, 64, 64
2,80490, Note_on_c, 0, 55, 0
2,80512, Control_c, 0, 64, 63
2,80530, Control_c, 0, 64, 61
2,80550, Control_c, 0, 64, 55
2,80553, Note_on_c, 0, 51, 46
2,80570, Control_c, 0, 64, 49
2,80608, Control_c, 0, 64, 52
2,80628, Control_c, 0, 64, 56
2,80647, Control_c, 0, 64, 61
2,80665, Control_c, 0, 64, 64
2,80685, Control_c, 0, 64, 67
2,80704, Control_c, 0, 64, 70
2,80704, Control_c, 0, 67, 52
2,80723, Control_c, 0, 64, 76
2,80742, Control_c, 0, 64, 82
2,80762, Control_c, 0, 64, 83
2,80781, Control_c, 0, 64, 83
2,80798, Note_on_c, 0, 73, 0
2,80800, Control_c, 0, 64, 82
2,80819, Control_c, 0, 64, 81
2,80819, Control_c, 0, 67, 51
2,80839, Control_c, 0, 64, 81
2,80857, Control_c, 0, 64, 80
2,80877, Control_c, 0, 64, 79
2,80896, Control_c, 0, 64, 78
2,80896, Control_c, 0, 67, 52
2,80916, Control_c, 0, 64, 78
2,80916, Control_c, 0, 67, 53
2,80931, Note_on_c, 0, 56, 45
2,80954, Control_c, 0, 64, 77
2,80968, Note_on_c, 0, 72, 56
2,80973, Control_c, 0, 64, 76
2,80990, Control_c, 0, 64, 72
2,81008, Control_c, 0, 64, 68
2,81014, Note_on_c, 0, 51, 0
2,81028, Control_c, 0, 64, 65
2,81047, Control_c, 0, 64, 61
2,81067, Control_c, 0, 64, 55
2,81085, Control_c, 0, 64, 46
2,81104, Control_c, 0, 64, 39
2,81124, Control_c, 0, 64, 36
2,81181, Control_c, 0, 64, 37
2,81181, Control_c, 0, 67, 52
2,81201, Control_c, 0, 64, 40
2,81201, Control_c, 0, 67, 51
2,81219, Control_c, 0, 64, 43
2,81219, Control_c, 0, 67, 51
2,81239, Control_c, 0, 64, 46
2,81239, Control_c, 0, 67, 50
2,81258, Control_c, 0, 64, 50
2,81258, Control_c, 0, 67, 49
2,81278, Control_c, 0, 64, 55
2,81278, Control_c, 0, 67, 48
2,81296, Control_c, 0, 64, 59
2,81296, Control_c, 0, 67, 44
2,81304, Note_on_c, 0, 75, 0
2,81316, Control_c, 0, 64, 62
2,81316, Control_c, 0, 67, 39
2,81327, Note_on_c, 0, 58, 46
2,81335, Control_c, 0, 64, 64
2,81335, Control_c, 0, 67, 34
2,81354, Control_c, 0, 64, 65
2,81354, Control_c, 0, 67, 31
2,81373, Control_c, 0, 64, 66
2,81373, Control_c, 0, 67, 28
2,81393, Control_c, 0, 64, 67
2,81393, Control_c, 0, 67, 24
2,81412, Control_c, 0, 64, 69
2,81412, Control_c, 0, 67, 21
2,81431, Control_c, 0, 64, 71
2,81431, Control_c, 0, 67, 18
2,81435, Note_on_c, 0, 56, 0
2,81450, Control_c, 0, 64, 73
2,81450, Control_c, 0, 67, 16
2,81470, Control_c, 0, 64, 74
2,81470, Control_c, 0, 67, 14
2,81488, Control_c, 0, 67, 12
2,81508, Control_c, 0, 67, 12
2,81531, Control_c, 0, 67, 11
2,81550, Control_c, 0, 67, 11
2,81608, Control_c, 0, 67, 10
2,81646, Control_c, 0, 64, 73
2,81646, Control_c, 0, 67, 10
2,81684, Control_c, 0, 64, 73
2,81703, Control_c, 0, 64, 72
2,81723, Control_c, 0, 64, 70
2,81723, Control_c, 0, 67, 9
2,81742, Control_c, 0, 64, 67
2,81742, Note_on_c, 0, 80, 70
2,81745, Note_on_c, 0, 56, 43
2,81761, Control_c, 0, 64, 63
2,81761, Control_c, 0, 67, 8
2,81780, Control_c, 0, 64, 58
2,81780, Control_c, 0, 67, 0
2,81800, Control_c, 0, 64, 54
2,81818, Control_c, 0, 64, 53
2,81829, Note_on_c, 0, 58, 0
2,81838, Control_c, 0, 64, 53
2,81857, Control_c, 0, 64, 55
2,81877, Control_c, 0, 64, 57
2,81895, Control_c, 0, 64, 60
2,81915, Control_c, 0, 64, 62
2,81934, Control_c, 0, 64, 63
2,81948, Control_c, 0, 64, 64
2,81967, Control_c, 0, 64, 66
2,81985, Control_c, 0, 64, 67
2,82005, Control_c, 0, 64, 69
2,82024, Control_c, 0, 64, 72
2,82043, Control_c, 0, 64, 75
2,82062, Control_c, 0, 64, 78
2,82082, Control_c, 0, 64, 81
2,82101, Control_c, 0, 64, 83
2,82103, Note_on_c, 0, 54, 49
2,82120, Control_c, 0, 64, 85
2,82139, Control_c, 0, 64, 86
2,82159, Control_c, 0, 64, 88
2,82165, Note_on_c, 0, 72, 0
2,82173, Note_on_c, 0, 56, 0
2,82177, Control_c, 0, 64, 89
2,82197, Control_c, 0, 64, 89
2,82216, Control_c, 0, 64, 90
2,82389, Control_c, 0, 64, 89
2,82408, Control_c, 0, 64, 89
2,82447, Control_c, 0, 64, 88
2,82465, Control_c, 0, 64, 88
2,82488, Control_c, 0, 64, 87
2,82508, Control_c, 0, 64, 86
2,82523, Note_on_c, 0, 53, 44
2,82526, Control_c, 0, 64, 84
2,82545, Control_c, 0, 64, 79
2,82556, Note_on_c, 0, 68, 74
2,82565, Control_c, 0, 64, 70
2,82566, Note_on_c, 0, 54, 0
2,82583, Control_c, 0, 64, 61
2,82603, Control_c, 0, 64, 45
2,82622, Control_c, 0, 64, 39
2,82642, Control_c, 0, 64, 39
2,82660, Control_c, 0, 64, 44
2,82680, Control_c, 0, 64, 51
2,82699, Control_c, 0, 64, 57
2,82704, Note_on_c, 0, 80, 0
2,82718, Control_c, 0, 64, 61
2,82737, Control_c, 0, 64, 62
2,82757, Control_c, 0, 64, 63
2,82776, Control_c, 0, 64, 64
2,82795, Control_c, 0, 64, 64
2,82814, Control_c, 0, 64, 65
2,82834, Control_c, 0, 64, 66
2,82872, Control_c, 0, 64, 66
2,82910, Control_c, 0, 64, 67
2,82928, Control_c, 0, 64, 67
2,82948, Control_c, 0, 64, 69
2,82964, Note_on_c, 0, 82, 52
2,82967, Control_c, 0, 64, 71
2,82968, Note_on_c, 0, 53, 0
2,82987, Control_c, 0, 64, 73
2,82995, Note_on_c, 0, 54, 40
2,83005, Control_c, 0, 64, 76
2,83024, Control_c, 0, 64, 78
2,83044, Control_c, 0, 64, 79
2,83062, Control_c, 0, 64, 79
2,83101, Control_c, 0, 64, 80
2,83144, Note_on_c, 0, 82, 0
2,83158, Note_on_c, 0, 54, 0
2,83236, Control_c, 0, 64, 79
2,83255, Control_c, 0, 64, 78
2,83274, Control_c, 0, 64, 74
2,83293, Control_c, 0, 64, 67
2,83310, Note_on_c, 0, 53, 39
2,83313, Control_c, 0, 64, 61
2,83330, Note_on_c, 0, 73, 69
2,83332, Control_c, 0, 64, 55
2,83349, Note_on_c, 0, 80, 57
2,83370, Control_c, 0, 64, 58
2,83390, Control_c, 0, 64, 60
2,83408, Control_c, 0, 64, 62
2,83428, Control_c, 0, 64, 64
2,83449, Control_c, 0, 64, 65
2,83468, Control_c, 0, 64, 66
2,83506, Control_c, 0, 64, 66
2,83564, Control_c, 0, 64, 66
2,83583, Control_c, 0, 64, 65
2,83603, Control_c, 0, 64, 62
2,83621, Control_c, 0, 64, 57
2,83641, Control_c, 0, 64, 51
2,83660, Control_c, 0, 64, 49
2,83662, Note_on_c, 0, 53, 0
2,83679, Control_c, 0, 64, 50
2,83698, Control_c, 0, 64, 55
2,83718, Control_c, 0, 64, 60
2,83719, Note_on_c, 0, 78, 55
2,83729, Note_on_c, 0, 51, 37
2,83737, Control_c, 0, 64, 63
2,83756, Control_c, 0, 64, 66
2,83775, Control_c, 0, 64, 69
2,83795, Control_c, 0, 64, 72
2,83800, Note_on_c, 0, 80, 0
2,83813, Control_c, 0, 64, 77
2,83833, Control_c, 0, 64, 82
2,83852, Control_c, 0, 64, 86
2,83872, Control_c, 0, 64, 88
2,83881, Note_on_c, 0, 78, 0
2,83890, Control_c, 0, 64, 89
2,84063, Control_c, 0, 64, 86
2,84083, Control_c, 0, 64, 80
2,84101, Control_c, 0, 64, 70
2,84121, Control_c, 0, 64, 61
2,84126, Note_on_c, 0, 49, 43
2,84133, Note_on_c, 0, 51, 0
2,84140, Control_c, 0, 64, 52
2,84142, Note_on_c, 0, 77, 52
2,84159, Control_c, 0, 64, 51
2,84178, Control_c, 0, 64, 53
2,84198, Control_c, 0, 64, 59
2,84217, Control_c, 0, 64, 63
2,84219, Note_on_c, 0, 73, 0
2,84236, Control_c, 0, 64, 66
2,84255, Control_c, 0, 64, 69
2,84275, Control_c, 0, 64, 74
2,84293, Control_c, 0, 64, 81
2,84313, Control_c, 0, 64, 84
2,84397, Note_on_c, 0, 68, 0
2,84410, Control_c, 0, 64, 84
2,84429, Control_c, 0, 64, 82
2,84448, Control_c, 0, 64, 76
2,84468, Control_c, 0, 64, 67
2,84487, Control_c, 0, 64, 57
2,84502, Note_on_c, 0, 75, 62
2,84505, Control_c, 0, 64, 42
2,84521, Note_on_c, 0, 59, 53
2,84525, Control_c, 0, 64, 43
2,84540, Note_on_c, 0, 78, 51
2,84544, Control_c, 0, 64, 52
2,84561, Note_on_c, 0, 49, 0
2,84563, Control_c, 0, 64, 60
2,84582, Control_c, 0, 64, 64
2,84582, Note_on_c, 0, 77, 0
2,84602, Control_c, 0, 64, 66
2,84621, Control_c, 0, 64, 68
2,84640, Control_c, 0, 64, 71
2,84659, Control_c, 0, 64, 74
2,84679, Control_c, 0, 64, 77
2,84698, Control_c, 0, 64, 78
2,84717, Control_c, 0, 64, 78
2,84756, Control_c, 0, 64, 79
2,84792, Note_on_c, 0, 78, 0
2,84850, Control_c, 0, 64, 78
2,84870, Control_c, 0, 64, 75
2,84889, Control_c, 0, 64, 68
2,84901, Note_on_c, 0, 73, 59
2,84905, Note_on_c, 0, 58, 53
2,84908, Control_c, 0, 64, 60
2,84927, Control_c, 0, 64, 54
2,84930, Note_on_c, 0, 80, 58
2,84946, Control_c, 0, 64, 58
2,84963, Note_on_c, 0, 75, 0
2,84966, Control_c, 0, 64, 62
2,84984, Control_c, 0, 64, 66
2,84989, Note_on_c, 0, 59, 0
2,85004, Control_c, 0, 64, 70
2,85023, Control_c, 0, 64, 78
2,85043, Control_c, 0, 64, 91
2,85061, Control_c, 0, 64, 105
2,85081, Control_c, 0, 64, 110
2,85133, Note_on_c, 0, 73, 0
2,85177, Control_c, 0, 64, 108
2,85196, Control_c, 0, 64, 100
2,85215, Control_c, 0, 64, 84
2,85235, Control_c, 0, 64, 70
2,85253, Control_c, 0, 64, 59
2,85273, Control_c, 0, 64, 55
2,85274, Note_on_c, 0, 71, 59
2,85286, Note_on_c, 0, 56, 49
2,85292, Control_c, 0, 64, 59
2,85312, Control_c, 0, 64, 62
2,85313, Note_on_c, 0, 58, 0
2,85330, Control_c, 0, 64, 65
2,85350, Control_c, 0, 64, 68
2,85369, Control_c, 0, 64, 72
2,85388, Control_c, 0, 64, 77
2,85407, Control_c, 0, 64, 80
2,85426, Control_c, 0, 64, 80
2,85580, Control_c, 0, 64, 80
2,85599, Control_c, 0, 64, 78
2,85618, Control_c, 0, 64, 73
2,85638, Control_c, 0, 64, 64
2,85643, Note_on_c, 0, 56, 0
2,85655, Note_on_c, 0, 54, 43
2,85657, Control_c, 0, 64, 47
2,85658, Note_on_c, 0, 70, 65
2,85658, Note_on_c, 0, 73, 56
2,85670, Note_on_c, 0, 71, 0
2,85676, Control_c, 0, 64, 0
2,85695, Control_c, 0, 64, 27
2,85715, Control_c, 0, 64, 50
2,85733, Control_c, 0, 64, 61
2,85750, Note_on_c, 0, 80, 0
2,85753, Control_c, 0, 64, 64
2,85772, Control_c, 0, 64, 66
2,85791, Control_c, 0, 64, 69
2,85809, Control_c, 0, 64, 73
2,85829, Control_c, 0, 64, 77
2,85848, Control_c, 0, 64, 81
2,85868, Control_c, 0, 64, 81
2,85905, Control_c, 0, 64, 80
2,85925, Control_c, 0, 64, 76
2,85943, Control_c, 0, 64, 66
2,85963, Control_c, 0, 64, 55
2,85982, Control_c, 0, 64, 48
2,86002, Control_c, 0, 64, 54
2,86020, Control_c, 0, 64, 60
2,86030, Note_on_c, 0, 56, 56
2,86037, Note_on_c, 0, 71, 69
2,86040, Control_c, 0, 64, 64
2,86059, Control_c, 0, 64, 66
2,86068, Note_on_c, 0, 54, 0
2,86078, Control_c, 0, 64, 71
2,86097, Control_c, 0, 64, 77
2,86106, Note_on_c, 0, 73, 0
2,86117, Control_c, 0, 64, 81
2,86136, Control_c, 0, 64, 83
2,86213, Control_c, 0, 64, 84
2,86232, Control_c, 0, 64, 85
2,86251, Control_c, 0, 64, 86
2,86271, Control_c, 0, 64, 87
2,86309, Control_c, 0, 64, 87
2,86330, Control_c, 0, 64, 87
2,86349, Control_c, 0, 64, 84
2,86368, Control_c, 0, 64, 80
2,86388, Control_c, 0, 64, 74
2,86407, Control_c, 0, 64, 66
2,86425, Control_c, 0, 64, 51
2,86429, Note_on_c, 0, 54, 43
2,86434, Note_on_c, 0, 73, 68
2,86438, Note_on_c, 0, 56, 0
2,86445, Control_c, 0, 64, 0
2,86453, Note_on_c, 0, 78, 55
2,86468, Note_on_c, 0, 70, 0
2,86676, Control_c, 0, 64, 26
2,86694, Control_c, 0, 64, 53
2,86714, Control_c, 0, 64, 63
2,86733, Control_c, 0, 64, 64
2,86752, Control_c, 0, 64, 65
2,86778, Note_on_c, 0, 54, 0
2,86790, Control_c, 0, 64, 65
2,86809, Control_c, 0, 64, 68
2,86828, Control_c, 0, 64, 74
2,86846, Note_on_c, 0, 52, 55
2,86847, Control_c, 0, 64, 86
2,86866, Control_c, 0, 64, 99
2,86886, Control_c, 0, 64, 106
2,86904, Control_c, 0, 64, 119
2,86924, Control_c, 0, 64, 127
2,87001, Control_c, 0, 64, 106
2,87020, Control_c, 0, 64, 106
2,87039, Control_c, 0, 64, 106
2,87078, Control_c, 0, 64, 106
2,87097, Control_c, 0, 64, 104
2,87116, Control_c, 0, 64, 102
2,87155, Control_c, 0, 64, 102
2,87173, Control_c, 0, 64, 99
2,87193, Control_c, 0, 64, 89
2,87212, Control_c, 0, 64, 77
2,87229, Note_on_c, 0, 52, 0
2,87232, Control_c, 0, 64, 66
2,87233, Note_on_c, 0, 51, 42
2,87250, Control_c, 0, 64, 58
2,87251, Note_on_c, 0, 66, 65
2,87253, Note_on_c, 0, 78, 0
2,87270, Control_c, 0, 64, 47
2,87283, Note_on_c, 0, 71, 0
2,87289, Control_c, 0, 64, 36
2,87308, Control_c, 0, 64, 31
2,87327, Control_c, 0, 64, 31
2,87423, Control_c, 0, 64, 32
2,87443, Control_c, 0, 64, 36
2,87461, Control_c, 0, 64, 39
2,87481, Control_c, 0, 64, 40
2,87500, Control_c, 0, 64, 42
2,87519, Control_c, 0, 64, 43
2,87538, Control_c, 0, 64, 45
2,87558, Control_c, 0, 64, 48
2,87577, Control_c, 0, 64, 52
2,87596, Control_c, 0, 64, 57
2,87615, Control_c, 0, 64, 61
2,87630, Note_on_c, 0, 49, 44
2,87635, Control_c, 0, 64, 63
2,87638, Note_on_c, 0, 51, 0
2,87653, Control_c, 0, 64, 66
2,87654, Note_on_c, 0, 76, 49
2,87673, Control_c, 0, 64, 70
2,87692, Control_c, 0, 64, 77
2,87711, Control_c, 0, 64, 90
2,87729, Control_c, 0, 64, 121
2,87749, Control_c, 0, 64, 127
2,87913, Note_on_c, 0, 49, 0
2,87976, Note_on_c, 0, 76, 0
2,87979, Control_c, 0, 64, 90
2,87998, Control_c, 0, 64, 72
2,88015, Note_on_c, 0, 66, 0
2,88017, Control_c, 0, 64, 61
2,88037, Control_c, 0, 64, 58
2,88040, Note_on_c, 0, 47, 44
2,88040, Note_on_c, 0, 71, 67
2,88056, Control_c, 0, 64, 62
2,88060, Note_on_c, 0, 75, 56
2,88075, Control_c, 0, 64, 64
2,88094, Control_c, 0, 64, 68
2,88114, Control_c, 0, 64, 75
2,88130, Note_on_c, 0, 73, 0
2,88133, Control_c, 0, 64, 90
2,88152, Control_c, 0, 64, 109
2,88171, Control_c, 0, 64, 127
2,88383, Control_c, 0, 64, 106
2,88387, Note_on_c, 0, 47, 0
2,88403, Control_c, 0, 64, 83
2,88421, Control_c, 0, 64, 69
2,88421, Note_on_c, 0, 44, 40
2,88434, Note_on_c, 0, 80, 51
2,88441, Control_c, 0, 64, 63
2,88479, Control_c, 0, 64, 66
2,88498, Control_c, 0, 64, 70
2,88518, Control_c, 0, 64, 79
2,88537, Control_c, 0, 64, 94
2,88556, Control_c, 0, 64, 127
2,88643, Note_on_c, 0, 71, 0
2,88807, Control_c, 0, 64, 112
2,88815, Note_on_c, 0, 46, 46
2,88825, Control_c, 0, 64, 84
2,88826, Note_on_c, 0, 44, 0
2,88831, Note_on_c, 0, 73, 56
2,88842, Control_c, 0, 64, 70
2,88846, Note_on_c, 0, 80, 0
2,88862, Control_c, 0, 64, 66
2,88880, Control_c, 0, 64, 67
2,88900, Control_c, 0, 64, 69
2,88919, Control_c, 0, 64, 73
2,88939, Control_c, 0, 64, 81
2,88957, Control_c, 0, 64, 92
2,88977, Control_c, 0, 64, 99
2,88996, Control_c, 0, 64, 102
2,89015, Control_c, 0, 64, 103
2,89073, Control_c, 0, 64, 104
2,89091, Control_c, 0, 64, 107
2,89111, Control_c, 0, 64, 111
2,89130, Control_c, 0, 64, 113
2,89150, Control_c, 0, 64, 112
2,89168, Control_c, 0, 64, 105
2,89188, Control_c, 0, 64, 91
2,89207, Control_c, 0, 64, 77
2,89210, Note_on_c, 0, 75, 0
2,89212, Note_on_c, 0, 70, 58
2,89226, Control_c, 0, 64, 67
2,89228, Note_on_c, 0, 42, 36
2,89240, Note_on_c, 0, 46, 0
2,89245, Control_c, 0, 64, 63
2,89257, Note_on_c, 0, 78, 48
2,89265, Control_c, 0, 64, 64
2,89284, Control_c, 0, 64, 66
2,89303, Control_c, 0, 64, 69
2,89322, Control_c, 0, 64, 76
2,89342, Control_c, 0, 64, 89
2,89360, Control_c, 0, 64, 103
2,89380, Control_c, 0, 64, 114
2,89439, Note_on_c, 0, 70, 0
2,89533, Control_c, 0, 64, 112
2,89553, Control_c, 0, 64, 103
2,89571, Control_c, 0, 64, 90
2,89591, Control_c, 0, 64, 79
2,89610, Control_c, 0, 64, 71
2,89620, Note_on_c, 0, 42, 0
2,89629, Control_c, 0, 64, 68
2,89630, Note_on_c, 0, 49, 44
2,89632, Note_on_c, 0, 68, 54
2,89647, Control_c, 0, 64, 68
2,89667, Control_c, 0, 64, 71
2,89686, Control_c, 0, 64, 74
2,89705, Control_c, 0, 64, 80
2,89724, Control_c, 0, 64, 86
2,89744, Control_c, 0, 64, 90
2,89763, Control_c, 0, 64, 90
2,89801, Control_c, 0, 64, 91
2,89840, Control_c, 0, 64, 90
2,89859, Control_c, 0, 64, 86
2,89878, Control_c, 0, 64, 78
2,89898, Control_c, 0, 64, 70
2,89916, Control_c, 0, 64, 64
2,89935, Control_c, 0, 64, 60
2,89955, Control_c, 0, 64, 59
2,89974, Control_c, 0, 64, 61
2,89993, Control_c, 0, 64, 62
2,90012, Control_c, 0, 64, 64
2,90022, Note_on_c, 0, 77, 48
2,90024, Note_on_c, 0, 37, 40
2,90032, Control_c, 0, 64, 65
2,90050, Control_c, 0, 64, 66
2,90070, Control_c, 0, 64, 67
2,90086, Note_on_c, 0, 49, 0
2,90089, Control_c, 0, 64, 68
2,90103, Note_on_c, 0, 78, 0
2,90109, Control_c, 0, 64, 69
2,90127, Control_c, 0, 64, 70
2,90147, Control_c, 0, 64, 73
2,90155, Note_on_c, 0, 68, 0
2,90162, Control_c, 0, 64, 77
2,90182, Control_c, 0, 64, 81
2,90200, Control_c, 0, 64, 86
2,90216, Note_on_c, 0, 73, 0
2,90220, Control_c, 0, 64, 90
2,90239, Control_c, 0, 64, 92
2,90259, Control_c, 0, 64, 93
2,90277, Control_c, 0, 64, 94
2,90296, Control_c, 0, 64, 95
2,90298, Note_on_c, 0, 77, 0
2,90316, Control_c, 0, 64, 97
2,90335, Control_c, 0, 64, 100
2,90354, Control_c, 0, 64, 102
2,90373, Control_c, 0, 64, 103
2,90411, Control_c, 0, 64, 104
2,90431, Control_c, 0, 64, 104
2,90482, Note_on_c, 0, 42, 44
2,90565, Control_c, 0, 64, 101
2,90567, Note_on_c, 0, 78, 71
2,90582, Control_c, 0, 64, 94
2,90601, Control_c, 0, 64, 83
2,90608, Note_on_c, 0, 66, 41
2,90620, Control_c, 0, 64, 71
2,90639, Control_c, 0, 64, 64
2,90659, Control_c, 0, 64, 58
2,90659, Note_on_c, 0, 37, 0
2,90696, Control_c, 0, 64, 61
2,90716, Control_c, 0, 64, 63
2,90735, Control_c, 0, 64, 66
2,90755, Control_c, 0, 64, 70
2,90773, Control_c, 0, 64, 78
2,90793, Control_c, 0, 64, 91
2,90812, Control_c, 0, 64, 112
2,90831, Control_c, 0, 64, 127
2,90865, Note_on_c, 0, 66, 0
2,90978, Note_on_c, 0, 42, 0
2,90988, Note_on_c, 0, 44, 42
2,90995, Note_on_c, 0, 78, 0
2,91015, Note_on_c, 0, 65, 48
2,91338, Control_c, 0, 64, 101
2,91341, Note_on_c, 0, 65, 0
2,91356, Control_c, 0, 64, 79
2,91375, Control_c, 0, 64, 65
2,91381, Note_on_c, 0, 73, 56
2,91393, Note_on_c, 0, 44, 0
2,91393, Note_on_c, 0, 46, 28
2,91395, Control_c, 0, 64, 53
2,91405, Note_on_c, 0, 66, 39
2,91414, Control_c, 0, 64, 47
2,91433, Control_c, 0, 64, 55
2,91452, Control_c, 0, 64, 62
2,91472, Control_c, 0, 64, 65
2,91490, Control_c, 0, 64, 69
2,91510, Control_c, 0, 64, 75
2,91529, Control_c, 0, 64, 84
2,91549, Control_c, 0, 64, 92
2,91567, Control_c, 0, 64, 95
2,91606, Control_c, 0, 64, 92
2,91625, Control_c, 0, 64, 83
2,91644, Control_c, 0, 64, 72
2,91664, Control_c, 0, 64, 65
2,91683, Control_c, 0, 64, 62
2,91702, Control_c, 0, 64, 64
2,91721, Control_c, 0, 64, 66
2,91743, Control_c, 0, 64, 70
2,91761, Note_on_c, 0, 44, 33
2,91763, Control_c, 0, 64, 78
2,91763, Note_on_c, 0, 46, 0
2,91771, Note_on_c, 0, 68, 50
2,91781, Control_c, 0, 64, 88
2,91801, Control_c, 0, 64, 96
2,91820, Control_c, 0, 64, 100
2,91937, Note_on_c, 0, 66, 0
2,92050, Control_c, 0, 64, 99
2,92070, Control_c, 0, 64, 95
2,92088, Control_c, 0, 64, 85
2,92107, Control_c, 0, 64, 72
2,92126, Control_c, 0, 64, 62
2,92145, Control_c, 0, 64, 52
2,92149, Note_on_c, 0, 44, 0
2,92154, Note_on_c, 0, 70, 49
2,92165, Control_c, 0, 64, 49
2,92171, Note_on_c, 0, 42, 37
2,92183, Control_c, 0, 64, 51
2,92203, Control_c, 0, 64, 58
2,92222, Control_c, 0, 64, 63
2,92242, Control_c, 0, 64, 67
2,92260, Control_c, 0, 64, 72
2,92280, Control_c, 0, 64, 82
2,92295, Note_on_c, 0, 68, 0
2,92299, Control_c, 0, 64, 95
2,92318, Control_c, 0, 64, 104
2,92337, Control_c, 0, 64, 105
2,92339, Note_on_c, 0, 70, 0
2,92376, Control_c, 0, 64, 106
2,92395, Control_c, 0, 64, 107
2,92414, Control_c, 0, 64, 108
2,92453, Control_c, 0, 64, 108
2,92472, Control_c, 0, 64, 101
2,92491, Control_c, 0, 64, 87
2,92507, Control_c, 0, 64, 73
2,92527, Control_c, 0, 64, 64
2,92528, Note_on_c, 0, 42, 0
2,92528, Note_on_c, 0, 73, 0
2,92538, Note_on_c, 0, 54, 38
2,92543, Note_on_c, 0, 71, 53
2,92545, Control_c, 0, 64, 59
2,92565, Control_c, 0, 64, 61
2,92570, Note_on_c, 0, 68, 34
2,92584, Control_c, 0, 64, 64
2,92603, Control_c, 0, 64, 67
2,92622, Control_c, 0, 64, 73
2,92642, Control_c, 0, 64, 82
2,92661, Control_c, 0, 64, 96
2,92680, Control_c, 0, 64, 110
2,92699, Control_c, 0, 64, 111
2,92757, Control_c, 0, 64, 112
2,92814, Control_c, 0, 64, 107
2,92834, Control_c, 0, 64, 107
2,92873, Control_c, 0, 64, 107
2,92888, Note_on_c, 0, 70, 57
2,92891, Control_c, 0, 64, 108
2,92893, Note_on_c, 0, 53, 53
2,92894, Note_on_c, 0, 73, 48
2,92903, Note_on_c, 0, 54, 0
2,92911, Control_c, 0, 64, 108
2,92933, Note_on_c, 0, 71, 0
2,92963, Note_on_c, 0, 73, 0
2,92964, Note_on_c, 0, 68, 0
2,92964, Note_on_c, 0, 70, 0
2,93007, Control_c, 0, 64, 107
2,93025, Control_c, 0, 64, 107
2,93239, Control_c, 0, 64, 105
2,93258, Control_c, 0, 64, 97
2,93277, Note_on_c, 0, 53, 0
2,93278, Control_c, 0, 64, 84
2,93287, Note_on_c, 0, 51, 56
2,93293, Note_on_c, 0, 75, 60
2,93294, Note_on_c, 0, 72, 57
2,93296, Control_c, 0, 64, 72
2,93316, Control_c, 0, 64, 65
2,93335, Control_c, 0, 64, 63
2,93354, Control_c, 0, 64, 64
2,93373, Control_c, 0, 64, 66
2,93393, Control_c, 0, 64, 69
2,93412, Control_c, 0, 64, 74
2,93431, Control_c, 0, 64, 81
2,93450, Control_c, 0, 64, 88
2,93471, Control_c, 0, 64, 91
2,93489, Control_c, 0, 64, 91
2,93508, Control_c, 0, 64, 90
2,93528, Control_c, 0, 64, 89
2,93547, Control_c, 0, 64, 89
2,93566, Control_c, 0, 64, 88
2,93585, Control_c, 0, 64, 87
2,93605, Control_c, 0, 64, 85
2,93623, Control_c, 0, 64, 84
2,93643, Control_c, 0, 64, 84
2,93662, Control_c, 0, 64, 83
2,93682, Control_c, 0, 64, 80
2,93700, Control_c, 0, 64, 74
2,93703, Note_on_c, 0, 49, 64
2,93711, Note_on_c, 0, 77, 58
2,93720, Control_c, 0, 64, 67
2,93724, Note_on_c, 0, 73, 52
2,93738, Note_on_c, 0, 72, 0
2,93739, Control_c, 0, 64, 61
2,93746, Note_on_c, 0, 51, 0
2,93758, Control_c, 0, 64, 52
2,93777, Control_c, 0, 64, 46
2,93797, Note_on_c, 0, 75, 0
2,93835, Control_c, 0, 64, 47
2,93854, Control_c, 0, 64, 49
2,93874, Control_c, 0, 64, 50
2,93893, Control_c, 0, 64, 52
2,93912, Control_c, 0, 64, 53
2,93931, Control_c, 0, 64, 55
2,93951, Control_c, 0, 64, 56
2,93969, Control_c, 0, 64, 57
2,93988, Control_c, 0, 64, 58
2,94009, Control_c, 0, 64, 59
2,94027, Control_c, 0, 64, 61
2,94047, Control_c, 0, 64, 62
2,94066, Control_c, 0, 64, 63
2,94086, Control_c, 0, 64, 64
2,94104, Control_c, 0, 64, 65
2,94113, Note_on_c, 0, 75, 56
2,94120, Note_on_c, 0, 71, 47
2,94124, Control_c, 0, 64, 67
2,94143, Control_c, 0, 64, 69
2,94151, Note_on_c, 0, 73, 0
2,94163, Control_c, 0, 64, 73
2,94181, Control_c, 0, 64, 78
2,94201, Control_c, 0, 64, 84
2,94220, Control_c, 0, 64, 87
2,94355, Control_c, 0, 64, 86
2,94393, Control_c, 0, 64, 86
2,94412, Control_c, 0, 64, 85
2,94430, Control_c, 0, 64, 83
2,94448, Control_c, 0, 64, 82
2,94467, Control_c, 0, 64, 80
2,94487, Control_c, 0, 64, 78
2,94498, Note_on_c, 0, 54, 65
2,94506, Control_c, 0, 64, 75
2,94525, Control_c, 0, 64, 71
2,94544, Control_c, 0, 64, 66
2,94559, Note_on_c, 0, 77, 0
2,94564, Control_c, 0, 64, 62
2,94583, Control_c, 0, 64, 56
2,94586, Note_on_c, 0, 73, 48
2,94602, Control_c, 0, 64, 53
2,94610, Note_on_c, 0, 71, 0
2,94621, Control_c, 0, 64, 52
2,94641, Control_c, 0, 64, 53
2,94659, Control_c, 0, 64, 54
2,94679, Control_c, 0, 64, 55
2,94698, Control_c, 0, 64, 57
2,94717, Note_on_c, 0, 75, 0
2,94718, Control_c, 0, 64, 58
2,94736, Control_c, 0, 64, 60
2,94756, Control_c, 0, 64, 61
2,94775, Control_c, 0, 64, 62
2,94794, Control_c, 0, 64, 63
2,94813, Control_c, 0, 64, 65
2,94833, Control_c, 0, 64, 66
2,94852, Control_c, 0, 64, 68
2,94871, Control_c, 0, 64, 70
2,94890, Control_c, 0, 64, 75
2,94910, Control_c, 0, 64, 80
2,94912, Note_on_c, 0, 70, 58
2,94928, Control_c, 0, 64, 85
2,94944, Note_on_c, 0, 73, 0
2,94947, Control_c, 0, 64, 88
2,94968, Control_c, 0, 64, 89
2,95038, Note_on_c, 0, 70, 0
2,95045, Control_c, 0, 64, 89
2,95099, Note_on_c, 0, 49, 0
2,95122, Control_c, 0, 64, 90
2,95198, Control_c, 0, 64, 89
2,95275, Control_c, 0, 64, 89
2,95294, Control_c, 0, 64, 87
2,95295, Note_on_c, 0, 80, 69
2,95314, Control_c, 0, 64, 82
2,95330, Note_on_c, 0, 71, 54
2,95333, Control_c, 0, 64, 74
2,95352, Control_c, 0, 64, 67
2,95371, Control_c, 0, 64, 60
2,95387, Control_c, 0, 64, 54
2,95425, Control_c, 0, 64, 57
2,95445, Control_c, 0, 64, 62
2,95464, Control_c, 0, 64, 64
2,95483, Control_c, 0, 64, 66
2,95502, Control_c, 0, 64, 68
2,95522, Control_c, 0, 64, 72
2,95541, Control_c, 0, 64, 78
2,95560, Control_c, 0, 64, 86
2,95579, Control_c, 0, 64, 94
2,95599, Control_c, 0, 64, 97
2,95618, Control_c, 0, 64, 98
2,95656, Control_c, 0, 64, 98
2,95662, Note_on_c, 0, 80, 0
2,95676, Control_c, 0, 64, 100
2,95688, Note_on_c, 0, 71, 0
2,95694, Control_c, 0, 64, 102
2,95714, Control_c, 0, 64, 107
2,95716, Note_on_c, 0, 70, 52
2,95733, Control_c, 0, 64, 112
2,95753, Control_c, 0, 64, 114
2,95797, Note_on_c, 0, 70, 0
2,95887, Control_c, 0, 64, 113
2,95947, Control_c, 0, 64, 112
2,95966, Control_c, 0, 64, 110
2,95985, Control_c, 0, 64, 109
2,96005, Control_c, 0, 64, 107
2,96023, Control_c, 0, 64, 106
2,96043, Control_c, 0, 64, 104
2,96062, Control_c, 0, 64, 102
2,96082, Control_c, 0, 64, 101
2,96084, Note_on_c, 0, 54, 0
2,96094, Note_on_c, 0, 53, 55
2,96100, Control_c, 0, 64, 100
2,96101, Note_on_c, 0, 73, 45
2,96120, Control_c, 0, 64, 99
2,96126, Note_on_c, 0, 68, 30
2,96139, Control_c, 0, 64, 97
2,96158, Control_c, 0, 64, 92
2,96177, Control_c, 0, 64, 83
2,96197, Control_c, 0, 64, 73
2,96216, Control_c, 0, 64, 64
2,96235, Control_c, 0, 64, 55
2,96254, Control_c, 0, 64, 45
2,96274, Control_c, 0, 64, 44
2,96293, Control_c, 0, 64, 45
2,96312, Control_c, 0, 64, 49
2,96323, Note_on_c, 0, 68, 0
2,96331, Control_c, 0, 64, 54
2,96348, Control_c, 0, 64, 58
2,96368, Control_c, 0, 64, 61
2,96386, Control_c, 0, 64, 63
2,96406, Control_c, 0, 64, 64
2,96425, Control_c, 0, 64, 65
2,96444, Control_c, 0, 64, 66
2,96463, Control_c, 0, 64, 69
2,96483, Control_c, 0, 64, 72
2,96484, Note_on_c, 0, 71, 46
2,96502, Control_c, 0, 64, 77
2,96521, Control_c, 0, 64, 82
2,96540, Control_c, 0, 64, 85
2,96560, Control_c, 0, 64, 86
2,96626, Note_on_c, 0, 71, 0
2,96655, Control_c, 0, 64, 86
2,96713, Control_c, 0, 64, 86
2,96732, Control_c, 0, 64, 85
2,96752, Control_c, 0, 64, 84
2,96771, Control_c, 0, 64, 83
2,96790, Control_c, 0, 64, 79
2,96809, Control_c, 0, 64, 71
2,96828, Control_c, 0, 64, 65
2,96833, Note_on_c, 0, 53, 0
2,96848, Control_c, 0, 64, 61
2,96854, Note_on_c, 0, 73, 0
2,96859, Note_on_c, 0, 54, 53
2,96866, Control_c, 0, 64, 59
2,96887, Control_c, 0, 64, 61
2,96895, Note_on_c, 0, 70, 52
2,96906, Control_c, 0, 64, 63
2,96925, Control_c, 0, 64, 64
2,96944, Control_c, 0, 64, 65
2,96964, Control_c, 0, 64, 66
2,96983, Control_c, 0, 64, 67
2,97098, Control_c, 0, 64, 66
2,97118, Control_c, 0, 64, 65
2,97136, Control_c, 0, 64, 63
2,97156, Control_c, 0, 64, 63
2,97194, Control_c, 0, 64, 64
2,97213, Control_c, 0, 64, 65
2,97231, Note_on_c, 0, 53, 56
2,97233, Control_c, 0, 64, 67
2,97238, Note_on_c, 0, 54, 0
2,97247, Note_on_c, 0, 75, 64
2,97252, Control_c, 0, 64, 68
2,97271, Control_c, 0, 64, 70
2,97290, Control_c, 0, 64, 71
2,97308, Control_c, 0, 64, 71
2,97423, Control_c, 0, 64, 71
2,97538, Control_c, 0, 64, 70
2,97558, Control_c, 0, 64, 69
2,97580, Control_c, 0, 64, 67
2,97599, Control_c, 0, 64, 65
2,97618, Control_c, 0, 64, 61
2,97625, Note_on_c, 0, 51, 47
2,97630, Note_on_c, 0, 53, 0
2,97637, Control_c, 0, 64, 55
2,97646, Note_on_c, 0, 77, 68
2,97657, Control_c, 0, 64, 46
2,97675, Control_c, 0, 64, 41
2,97695, Control_c, 0, 64, 40
2,97731, Note_on_c, 0, 75, 0
2,97906, Control_c, 0, 64, 40
2,97926, Control_c, 0, 64, 41
2,97945, Control_c, 0, 64, 42
2,97964, Control_c, 0, 64, 44
2,97983, Control_c, 0, 64, 47
2,98003, Control_c, 0, 64, 50
2,98011, Note_on_c, 0, 51, 0
2,98015, Note_on_c, 0, 50, 61
2,98021, Control_c, 0, 64, 54
2,98040, Control_c, 0, 64, 58
2,98060, Control_c, 0, 64, 61
2,98079, Control_c, 0, 64, 62
2,98098, Control_c, 0, 64, 63
2,98117, Control_c, 0, 64, 64
2,98137, Control_c, 0, 64, 66
2,98155, Control_c, 0, 64, 67
2,98175, Control_c, 0, 64, 70
2,98194, Control_c, 0, 64, 72
2,98214, Control_c, 0, 64, 73
2,98232, Control_c, 0, 64, 73
2,98367, Control_c, 0, 64, 72
2,98386, Control_c, 0, 64, 71
2,98406, Control_c, 0, 64, 67
2,98406, Note_on_c, 0, 50, 0
2,98416, Note_on_c, 0, 51, 51
2,98425, Control_c, 0, 64, 63
2,98436, Note_on_c, 0, 78, 74
2,98444, Control_c, 0, 64, 59
2,98463, Control_c, 0, 64, 54
2,98483, Control_c, 0, 64, 50
2,98501, Control_c, 0, 64, 50
2,98509, Note_on_c, 0, 77, 0
2,98617, Control_c, 0, 64, 50
2,98635, Control_c, 0, 64, 51
2,98655, Control_c, 0, 64, 52
2,98674, Control_c, 0, 64, 53
2,98694, Control_c, 0, 64, 54
2,98712, Control_c, 0, 64, 56
2,98732, Control_c, 0, 64, 58
2,98751, Control_c, 0, 64, 59
2,98771, Control_c, 0, 64, 61
2,98789, Control_c, 0, 64, 62
2,98810, Control_c, 0, 64, 63
2,98829, Control_c, 0, 64, 64
2,98830, Note_on_c, 0, 72, 60
2,98848, Control_c, 0, 64, 65
2,98867, Control_c, 0, 64, 67
2,98880, Note_on_c, 0, 70, 0
2,98887, Control_c, 0, 64, 69
2,98906, Control_c, 0, 64, 73
2,98925, Control_c, 0, 64, 76
2,98944, Control_c, 0, 64, 78
2,98964, Control_c, 0, 64, 79
2,99098, Control_c, 0, 64, 79
2,99116, Control_c, 0, 64, 78
2,99136, Control_c, 0, 64, 76
2,99155, Control_c, 0, 64, 71
2,99175, Control_c, 0, 64, 65
2,99193, Control_c, 0, 64, 60
2,99196, Note_on_c, 0, 46, 52
2,99198, Note_on_c, 0, 51, 0
2,99213, Control_c, 0, 64, 56
2,99213, Note_on_c, 0, 73, 53
2,99232, Control_c, 0, 64, 55
2,99251, Control_c, 0, 64, 58
2,99270, Control_c, 0, 64, 61
2,99290, Control_c, 0, 64, 63
2,99309, Control_c, 0, 64, 64
2,99328, Control_c, 0, 64, 65
2,99405, Control_c, 0, 64, 65
2,99424, Control_c, 0, 64, 63
2,99444, Control_c, 0, 64, 61
2,99462, Control_c, 0, 64, 59
2,99468, Note_on_c, 0, 72, 0
2,99482, Control_c, 0, 64, 56
2,99501, Control_c, 0, 64, 55
2,99520, Control_c, 0, 64, 56
2,99539, Control_c, 0, 64, 59
2,99558, Control_c, 0, 64, 63
2,99576, Note_on_c, 0, 48, 58
2,99578, Control_c, 0, 64, 64
2,99596, Control_c, 0, 64, 66
2,99602, Note_on_c, 0, 78, 0
2,99616, Control_c, 0, 64, 68
2,99621, Note_on_c, 0, 75, 56
2,99635, Control_c, 0, 64, 69
2,99655, Control_c, 0, 64, 71
2,99673, Control_c, 0, 64, 72
2,99693, Control_c, 0, 64, 74
2,99694, Note_on_c, 0, 46, 0
2,99712, Control_c, 0, 64, 74
2,99824, Control_c, 0, 64, 74
2,99844, Control_c, 0, 64, 73
2,99863, Control_c, 0, 64, 72
2,99882, Control_c, 0, 64, 69
2,99901, Control_c, 0, 64, 65
2,99920, Control_c, 0, 64, 61
2,99940, Control_c, 0, 64, 56
2,99958, Control_c, 0, 64, 52
2,99965, Note_on_c, 0, 48, 0
2,99978, Control_c, 0, 64, 50
2,99980, Note_on_c, 0, 49, 58
2,100005, Note_on_c, 0, 68, 59
2,100112, Control_c, 0, 64, 51
2,100118, Note_on_c, 0, 75, 0
2,100132, Control_c, 0, 64, 51
2,100170, Control_c, 0, 64, 52
2,100189, Control_c, 0, 64, 54
2,100209, Control_c, 0, 64, 55
2,100227, Control_c, 0, 64, 57
2,100247, Control_c, 0, 64, 58
2,100266, Control_c, 0, 64, 59
2,100286, Control_c, 0, 64, 59
2,100304, Control_c, 0, 64, 60
2,100324, Control_c, 0, 64, 62
2,100343, Control_c, 0, 64, 63
2,100362, Control_c, 0, 64, 64
2,100381, Control_c, 0, 64, 66
2,100400, Control_c, 0, 64, 67
2,100409, Note_on_c, 0, 77, 36
2,100420, Control_c, 0, 64, 68
2,100438, Control_c, 0, 64, 70
2,100458, Control_c, 0, 64, 73
2,100477, Control_c, 0, 64, 77
2,100496, Control_c, 0, 64, 80
2,100515, Control_c, 0, 64, 83
2,100523, Note_on_c, 0, 73, 0
2,100612, Control_c, 0, 64, 82
2,100631, Control_c, 0, 64, 82
2,100650, Control_c, 0, 64, 81
2,100669, Control_c, 0, 64, 81
2,100689, Control_c, 0, 64, 80
2,100707, Control_c, 0, 64, 78
2,100730, Control_c, 0, 64, 77
2,100749, Control_c, 0, 64, 75
2,100751, Note_on_c, 0, 42, 46
2,100765, Control_c, 0, 64, 73
2,100769, Note_on_c, 0, 70, 58
2,100784, Control_c, 0, 64, 71
2,100792, Note_on_c, 0, 75, 52
2,100804, Control_c, 0, 64, 69
2,100823, Control_c, 0, 64, 67
2,100842, Control_c, 0, 64, 65
2,100861, Control_c, 0, 64, 62
2,100866, Note_on_c, 0, 49, 0
2,100881, Control_c, 0, 64, 59
2,100899, Control_c, 0, 64, 58
2,100919, Control_c, 0, 64, 57
2,100958, Control_c, 0, 64, 58
2,100976, Control_c, 0, 64, 59
2,100996, Control_c, 0, 64, 60
2,101001, Note_on_c, 0, 77, 0
2,101015, Control_c, 0, 64, 61
2,101034, Control_c, 0, 64, 62
2,101053, Control_c, 0, 64, 63
2,101073, Control_c, 0, 64, 64
2,101092, Control_c, 0, 64, 65
2,101111, Control_c, 0, 64, 67
2,101130, Control_c, 0, 64, 70
2,101148, Control_c, 0, 64, 74
2,101153, Note_on_c, 0, 73, 49
2,101168, Control_c, 0, 64, 80
2,101186, Control_c, 0, 64, 88
2,101206, Control_c, 0, 64, 96
2,101225, Control_c, 0, 64, 98
2,101243, Note_on_c, 0, 73, 0
2,101243, Note_on_c, 0, 75, 0
2,101244, Control_c, 0, 64, 99
2,101298, Note_on_c, 0, 68, 0
2,101302, Control_c, 0, 64, 98
2,101321, Control_c, 0, 64, 98
2,101340, Control_c, 0, 64, 97
2,101360, Control_c, 0, 64, 97
2,101378, Control_c, 0, 64, 96
2,101398, Control_c, 0, 64, 94
2,101417, Control_c, 0, 64, 92
2,101437, Control_c, 0, 64, 91
2,101455, Control_c, 0, 64, 90
2,101475, Control_c, 0, 64, 88
2,101494, Control_c, 0, 64, 85
2,101513, Control_c, 0, 64, 81
2,101532, Control_c, 0, 64, 76
2,101548, Note_on_c, 0, 44, 51
2,101552, Control_c, 0, 64, 71
2,101558, Note_on_c, 0, 72, 55
2,101571, Control_c, 0, 64, 66
2,101573, Note_on_c, 0, 42, 0
2,101589, Control_c, 0, 64, 62
2,101609, Control_c, 0, 64, 58
2,101628, Control_c, 0, 64, 55
2,101648, Control_c, 0, 64, 55
2,101726, Control_c, 0, 64, 56
2,101745, Control_c, 0, 64, 56
2,101765, Control_c, 0, 64, 58
2,101783, Control_c, 0, 64, 59
2,101803, Control_c, 0, 64, 61
2,101822, Control_c, 0, 64, 62
2,101842, Control_c, 0, 64, 63
2,101860, Control_c, 0, 64, 65
2,101880, Control_c, 0, 64, 66
2,101899, Control_c, 0, 64, 70
2,101918, Control_c, 0, 64, 74
2,101936, Note_on_c, 0, 70, 0
2,101937, Control_c, 0, 64, 83
2,101957, Control_c, 0, 64, 93
2,101958, Note_on_c, 0, 68, 58
2,101969, Note_on_c, 0, 72, 0
2,101976, Control_c, 0, 64, 102
2,101995, Control_c, 0, 64, 105
2,102050, Note_on_c, 0, 68, 0
2,102148, Control_c, 0, 64, 104
2,102168, Control_c, 0, 64, 103
2,102187, Control_c, 0, 64, 101
2,102206, Control_c, 0, 64, 100
2,102225, Control_c, 0, 64, 99
2,102245, Control_c, 0, 64, 98
2,102263, Control_c, 0, 64, 96
2,102283, Control_c, 0, 64, 94
2,102302, Control_c, 0, 64, 90
2,102322, Control_c, 0, 64, 87
2,102340, Control_c, 0, 64, 84
2,102360, Control_c, 0, 64, 80
2,102365, Note_on_c, 0, 46, 55
2,102367, Note_on_c, 0, 74, 59
2,102379, Control_c, 0, 64, 74
2,102385, Note_on_c, 0, 66, 40
2,102398, Control_c, 0, 64, 68
2,102417, Control_c, 0, 64, 62
2,102437, Control_c, 0, 64, 54
2,102456, Control_c, 0, 64, 49
2,102458, Note_on_c, 0, 44, 0
2,102494, Control_c, 0, 64, 51
2,102514, Control_c, 0, 64, 55
2,102533, Control_c, 0, 64, 59
2,102552, Control_c, 0, 64, 62
2,102571, Control_c, 0, 64, 64
2,102591, Control_c, 0, 64, 65
2,102609, Control_c, 0, 64, 67
2,102628, Control_c, 0, 64, 69
2,102650, Control_c, 0, 64, 72
2,102668, Control_c, 0, 64, 77
2,102688, Control_c, 0, 64, 81
2,102707, Control_c, 0, 64, 84
2,102727, Control_c, 0, 64, 85
2,102758, Note_on_c, 0, 65, 52
2,102775, Note_on_c, 0, 66, 0
2,102807, Note_on_c, 0, 65, 0
2,102811, Note_on_c, 0, 74, 0
2,102822, Control_c, 0, 64, 85
2,102880, Control_c, 0, 64, 84
2,102919, Control_c, 0, 64, 84
2,102938, Control_c, 0, 64, 83
2,102976, Control_c, 0, 64, 84
2,103034, Control_c, 0, 64, 83
2,103053, Control_c, 0, 64, 83
2,103069, Control_c, 0, 64, 82
2,103088, Control_c, 0, 64, 81
2,103107, Control_c, 0, 64, 78
2,103120, Note_on_c, 0, 46, 0
2,103127, Control_c, 0, 64, 73
2,103139, Note_on_c, 0, 75, 73
2,103146, Control_c, 0, 64, 66
2,103151, Note_on_c, 0, 47, 43
2,103165, Control_c, 0, 64, 59
2,103183, Note_on_c, 0, 63, 37
2,103184, Control_c, 0, 64, 51
2,103204, Control_c, 0, 64, 46
2,103223, Control_c, 0, 64, 45
2,103261, Control_c, 0, 64, 47
2,103281, Control_c, 0, 64, 50
2,103299, Control_c, 0, 64, 54
2,103319, Control_c, 0, 64, 56
2,103338, Control_c, 0, 64, 57
2,103453, Control_c, 0, 64, 58
2,103473, Control_c, 0, 64, 58
2,103492, Control_c, 0, 64, 60
2,103511, Control_c, 0, 64, 61
2,103530, Control_c, 0, 64, 62
2,103530, Note_on_c, 0, 66, 47
2,103538, Note_on_c, 0, 47, 0
2,103549, Control_c, 0, 64, 63
2,103556, Note_on_c, 0, 46, 34
2,103568, Control_c, 0, 64, 63
2,103587, Control_c, 0, 64, 64
2,103607, Control_c, 0, 64, 64
2,103624, Note_on_c, 0, 63, 0
2,103626, Control_c, 0, 64, 65
2,103684, Control_c, 0, 64, 65
2,103838, Control_c, 0, 64, 65
2,103876, Control_c, 0, 64, 64
2,103895, Control_c, 0, 64, 64
2,103914, Control_c, 0, 64, 63
2,103919, Note_on_c, 0, 44, 41
2,103926, Note_on_c, 0, 46, 0
2,103933, Control_c, 0, 64, 61
2,103946, Note_on_c, 0, 71, 47
2,103953, Control_c, 0, 64, 59
2,103972, Control_c, 0, 64, 56
2,103990, Control_c, 0, 64, 55
2,104010, Control_c, 0, 64, 53
2,104029, Control_c, 0, 64, 53
2,104048, Control_c, 0, 64, 52
2,104087, Control_c, 0, 64, 52
2,104125, Control_c, 0, 64, 51
2,104183, Control_c, 0, 64, 53
2,104202, Control_c, 0, 64, 56
2,104221, Control_c, 0, 64, 60
2,104241, Control_c, 0, 64, 63
2,104241, Control_c, 0, 67, 10
2,104259, Control_c, 0, 64, 66
2,104259, Control_c, 0, 67, 21
2,104279, Control_c, 0, 64, 72
2,104279, Control_c, 0, 67, 34
2,104298, Control_c, 0, 64, 86
2,104298, Control_c, 0, 67, 49
2,104310, Note_on_c, 0, 42, 52
2,104318, Control_c, 0, 64, 127
2,104318, Control_c, 0, 67, 65
2,104336, Control_c, 0, 67, 84
2,104349, Note_on_c, 0, 75, 0
2,104356, Control_c, 0, 67, 102
2,104375, Control_c, 0, 67, 122
2,104382, Note_on_c, 0, 44, 0
2,104394, Control_c, 0, 67, 127
2,104498, Note_on_c, 0, 66, 0
2,104605, Control_c, 0, 64, 108
2,104624, Control_c, 0, 64, 93
2,104644, Control_c, 0, 64, 78
2,104663, Control_c, 0, 64, 66
2,104682, Control_c, 0, 64, 57
2,104697, Note_on_c, 0, 42, 0
2,104701, Control_c, 0, 64, 47
2,104721, Control_c, 0, 64, 46
2,104723, Note_on_c, 0, 40, 40
2,104729, Note_on_c, 0, 73, 57
2,104823, Note_on_c, 0, 71, 0
2,104893, Control_c, 0, 64, 47
2,104913, Control_c, 0, 64, 48
2,104932, Control_c, 0, 64, 49
2,104950, Control_c, 0, 64, 52
2,104970, Control_c, 0, 64, 54
2,104989, Control_c, 0, 64, 57
2,105008, Control_c, 0, 64, 59
2,105027, Control_c, 0, 64, 62
2,105047, Control_c, 0, 64, 63
2,105066, Control_c, 0, 64, 65
2,105085, Control_c, 0, 64, 67
2,105104, Control_c, 0, 64, 71
2,105124, Control_c, 0, 64, 76
2,105126, Note_on_c, 0, 70, 56
2,105143, Control_c, 0, 64, 84
2,105162, Control_c, 0, 64, 90
2,105181, Control_c, 0, 64, 92
2,105296, Control_c, 0, 64, 91
2,105316, Control_c, 0, 64, 90
2,105335, Control_c, 0, 64, 89
2,105354, Control_c, 0, 64, 88
2,105373, Control_c, 0, 64, 85
2,105393, Control_c, 0, 64, 83
2,105412, Control_c, 0, 64, 80
2,105430, Control_c, 0, 64, 78
2,105433, Note_on_c, 0, 40, 0
2,105450, Control_c, 0, 64, 76
2,105469, Control_c, 0, 64, 71
2,105488, Control_c, 0, 64, 66
2,105498, Note_on_c, 0, 68, 48
2,105507, Control_c, 0, 64, 62
2,105513, Note_on_c, 0, 39, 35
2,105527, Control_c, 0, 64, 58
2,105546, Control_c, 0, 64, 54
2,105565, Control_c, 0, 64, 51
2,105572, Note_on_c, 0, 70, 0
2,105584, Control_c, 0, 64, 50
2,105604, Control_c, 0, 64, 48
2,105681, Control_c, 0, 64, 49
2,105699, Control_c, 0, 64, 51
2,105719, Control_c, 0, 64, 53
2,105738, Control_c, 0, 64, 56
2,105758, Control_c, 0, 64, 59
2,105776, Control_c, 0, 64, 61
2,105796, Control_c, 0, 64, 63
2,105815, Control_c, 0, 64, 65
2,105834, Control_c, 0, 64, 67
2,105853, Control_c, 0, 64, 71
2,105873, Control_c, 0, 64, 78
2,105892, Control_c, 0, 64, 94
2,105910, Control_c, 0, 64, 123
2,105918, Note_on_c, 0, 67, 41
2,105930, Control_c, 0, 64, 127
2,105937, Note_on_c, 0, 68, 0
2,105978, Note_on_c, 0, 39, 0
2,106018, Note_on_c, 0, 73, 0
2,106054, Note_on_c, 0, 67, 0
2,106256, Control_c, 0, 64, 117
2,106276, Control_c, 0, 64, 100
2,106295, Control_c, 0, 64, 85
2,106301, Note_on_c, 0, 44, 43
2,106302, Note_on_c, 0, 68, 51
2,106306, Note_on_c, 0, 71, 53
2,106314, Control_c, 0, 64, 70
2,106333, Control_c, 0, 64, 62
2,106353, Control_c, 0, 64, 55
2,106372, Control_c, 0, 64, 56
2,106390, Control_c, 0, 64, 60
2,106410, Control_c, 0, 64, 62
2,106429, Control_c, 0, 64, 64
2,106448, Control_c, 0, 64, 66
2,106467, Control_c, 0, 64, 67
2,106487, Control_c, 0, 64, 67
2,106506, Control_c, 0, 64, 68
2,106544, Control_c, 0, 64, 67
2,106583, Control_c, 0, 64, 66
2,106602, Control_c, 0, 64, 64
2,106621, Control_c, 0, 64, 62
2,106641, Control_c, 0, 64, 59
2,106659, Control_c, 0, 64, 56
2,106673, Note_on_c, 0, 46, 48
2,106676, Note_on_c, 0, 73, 53
2,106698, Control_c, 0, 64, 59
2,106718, Control_c, 0, 64, 63
2,106718, Control_c, 0, 67, 123
2,106736, Control_c, 0, 64, 65
2,106736, Control_c, 0, 67, 120
2,106756, Control_c, 0, 64, 68
2,106756, Control_c, 0, 67, 117
2,106775, Control_c, 0, 64, 71
2,106775, Control_c, 0, 67, 115
2,106794, Control_c, 0, 64, 75
2,106794, Control_c, 0, 67, 113
2,106813, Control_c, 0, 64, 79
2,106813, Control_c, 0, 67, 111
2,106833, Control_c, 0, 64, 81
2,106833, Control_c, 0, 67, 110
2,106852, Control_c, 0, 67, 110
2,106870, Control_c, 0, 67, 109
2,106890, Control_c, 0, 64, 80
2,106948, Control_c, 0, 64, 79
2,106968, Control_c, 0, 64, 78
2,106987, Control_c, 0, 64, 72
2,107004, Note_on_c, 0, 46, 0
2,107006, Control_c, 0, 64, 65
2,107025, Control_c, 0, 64, 54
2,107045, Control_c, 0, 64, 23
2,107055, Note_on_c, 0, 47, 47
2,107063, Control_c, 0, 64, 0
2,107069, Note_on_c, 0, 75, 57
2,107084, Note_on_c, 0, 44, 0
2,107102, Control_c, 0, 64, 34
2,107102, Control_c, 0, 67, 109
2,107122, Control_c, 0, 64, 57
2,107140, Control_c, 0, 64, 65
2,107160, Control_c, 0, 64, 68
2,107179, Control_c, 0, 64, 73
2,107198, Control_c, 0, 64, 79
2,107217, Control_c, 0, 64, 84
2,107217, Control_c, 0, 67, 108
2,107237, Control_c, 0, 64, 85
2,107256, Control_c, 0, 64, 85
2,107275, Control_c, 0, 64, 82
2,107275, Control_c, 0, 67, 107
2,107294, Control_c, 0, 64, 78
2,107294, Control_c, 0, 67, 106
2,107314, Control_c, 0, 64, 76
2,107314, Control_c, 0, 67, 102
2,107318, Note_on_c, 0, 75, 0
2,107333, Control_c, 0, 64, 77
2,107333, Control_c, 0, 67, 99
2,107352, Control_c, 0, 64, 78
2,107352, Control_c, 0, 67, 95
2,107371, Control_c, 0, 64, 79
2,107371, Control_c, 0, 67, 92
2,107390, Control_c, 0, 64, 80
2,107390, Control_c, 0, 67, 90
2,107408, Note_on_c, 0, 49, 45
2,107409, Control_c, 0, 64, 81
2,107409, Control_c, 0, 67, 89
2,107423, Note_on_c, 0, 47, 0
2,107428, Control_c, 0, 67, 88
2,107430, Note_on_c, 0, 76, 56
2,107447, Control_c, 0, 67, 87
2,107485, Control_c, 0, 64, 80
2,107485, Control_c, 0, 67, 87
2,107499, Note_on_c, 0, 73, 0
2,107504, Control_c, 0, 64, 80
2,107504, Control_c, 0, 67, 86
2,107507, Note_on_c, 0, 68, 0
2,107510, Note_on_c, 0, 71, 0
2,107524, Control_c, 0, 67, 86
2,107562, Control_c, 0, 64, 79
2,107601, Control_c, 0, 64, 79
2,107601, Control_c, 0, 67, 86
2,107619, Control_c, 0, 67, 87
2,107639, Control_c, 0, 67, 87
2,107678, Control_c, 0, 64, 78
2,107696, Control_c, 0, 64, 76
2,107696, Control_c, 0, 67, 88
2,107716, Control_c, 0, 64, 74
2,107716, Control_c, 0, 67, 90
2,107735, Control_c, 0, 64, 72
2,107735, Control_c, 0, 67, 91
2,107754, Control_c, 0, 64, 70
2,107754, Control_c, 0, 67, 92
2,107773, Control_c, 0, 64, 69
2,107773, Control_c, 0, 67, 93
2,107793, Control_c, 0, 64, 68
2,107793, Control_c, 0, 67, 94
2,107803, Note_on_c, 0, 51, 41
2,107812, Control_c, 0, 64, 66
2,107812, Control_c, 0, 67, 95
2,107816, Note_on_c, 0, 70, 55
2,107825, Note_on_c, 0, 49, 0
2,107830, Control_c, 0, 64, 65
2,107830, Control_c, 0, 67, 95
2,107888, Control_c, 0, 64, 66
2,107906, Control_c, 0, 64, 65
2,107952, Note_on_c, 0, 76, 0
2,107964, Control_c, 0, 64, 66
2,107964, Control_c, 0, 67, 96
2,108003, Control_c, 0, 64, 65
2,108022, Control_c, 0, 64, 64
2,108041, Control_c, 0, 64, 61
2,108060, Control_c, 0, 64, 51
2,108060, Control_c, 0, 67, 95
2,108080, Control_c, 0, 64, 24
2,108080, Control_c, 0, 67, 95
2,108098, Control_c, 0, 64, 0
2,108098, Control_c, 0, 67, 94
2,108118, Control_c, 0, 67, 93
2,108137, Control_c, 0, 67, 92
2,108157, Control_c, 0, 67, 91
2,108195, Control_c, 0, 67, 90
2,108214, Control_c, 0, 67, 89
2,108215, Note_on_c, 0, 71, 47
2,108234, Control_c, 0, 64, 47
2,108234, Control_c, 0, 67, 89
2,108252, Control_c, 0, 64, 60
2,108252, Control_c, 0, 67, 87
2,108272, Control_c, 0, 64, 63
2,108272, Control_c, 0, 67, 87
2,108291, Control_c, 0, 64, 65
2,108291, Control_c, 0, 67, 85
2,108300, Note_on_c, 0, 70, 0
2,108309, Control_c, 0, 64, 66
2,108329, Control_c, 0, 64, 68
2,108329, Control_c, 0, 67, 85
2,108348, Control_c, 0, 64, 69
2,108368, Control_c, 0, 64, 69
2,108425, Control_c, 0, 64, 69
2,108444, Control_c, 0, 64, 68
2,108444, Control_c, 0, 67, 85
2,108483, Control_c, 0, 64, 67
2,108502, Control_c, 0, 64, 67
2,108521, Control_c, 0, 64, 66
2,108532, Note_on_c, 0, 51, 0
2,108540, Control_c, 0, 64, 65
2,108560, Control_c, 0, 64, 64
2,108578, Control_c, 0, 64, 63
2,108586, Note_on_c, 0, 67, 40
2,108598, Control_c, 0, 64, 62
2,108612, Note_on_c, 0, 73, 41
2,108617, Control_c, 0, 64, 62
2,108637, Control_c, 0, 64, 61
2,108655, Control_c, 0, 64, 60
2,108655, Control_c, 0, 67, 86
2,108675, Control_c, 0, 64, 59
2,108694, Control_c, 0, 64, 57
2,108714, Control_c, 0, 64, 56
2,108732, Control_c, 0, 64, 55
2,108758, Note_on_c, 0, 71, 0
2,108771, Control_c, 0, 64, 56
2,108771, Control_c, 0, 67, 85
2,108789, Control_c, 0, 64, 57
2,108809, Control_c, 0, 64, 59
2,108809, Control_c, 0, 67, 84
2,108828, Control_c, 0, 64, 61
2,108828, Control_c, 0, 67, 84
2,108848, Control_c, 0, 64, 63
2,108848, Control_c, 0, 67, 82
2,108866, Control_c, 0, 64, 64
2,108866, Control_c, 0, 67, 77
2,108886, Control_c, 0, 64, 65
2,108886, Control_c, 0, 67, 64
2,108905, Control_c, 0, 64, 66
2,108905, Control_c, 0, 67, 51
2,108924, Control_c, 0, 64, 68
2,108924, Control_c, 0, 67, 39
2,108943, Control_c, 0, 64, 70
2,108943, Control_c, 0, 67, 30
2,108963, Control_c, 0, 64, 74
2,108963, Control_c, 0, 67, 24
2,108974, Note_on_c, 0, 51, 36
2,108982, Control_c, 0, 64, 80
2,108982, Control_c, 0, 67, 20
2,108985, Note_on_c, 0, 75, 47
2,109001, Control_c, 0, 64, 88
2,109001, Control_c, 0, 67, 20
2,109020, Control_c, 0, 64, 94
2,109029, Note_on_c, 0, 51, 0
2,109040, Control_c, 0, 64, 96
2,109064, Note_on_c, 0, 75, 0
2,109088, Note_on_c, 0, 73, 0
2,109174, Control_c, 0, 64, 95
2,109194, Control_c, 0, 64, 95
2,109212, Control_c, 0, 64, 94
2,109231, Control_c, 0, 64, 93
2,109251, Control_c, 0, 64, 93
2,109269, Control_c, 0, 64, 92
2,109289, Control_c, 0, 64, 91
2,109308, Control_c, 0, 64, 90
2,109328, Control_c, 0, 64, 89
2,109346, Control_c, 0, 64, 87
2,109366, Control_c, 0, 64, 86
2,109385, Control_c, 0, 64, 84
2,109388, Note_on_c, 0, 67, 0
2,109402, Note_on_c, 0, 56, 43
2,109404, Control_c, 0, 64, 82
2,109423, Control_c, 0, 64, 78
2,109443, Control_c, 0, 64, 72
2,109455, Note_on_c, 0, 68, 61
2,109462, Control_c, 0, 64, 64
2,109481, Control_c, 0, 64, 54
2,109500, Control_c, 0, 64, 45
2,109508, Note_on_c, 0, 71, 45
2,109520, Control_c, 0, 64, 45
2,109538, Control_c, 0, 64, 47
2,109558, Control_c, 0, 64, 51
2,109577, Control_c, 0, 64, 55
2,109577, Control_c, 0, 67, 19
2,109597, Control_c, 0, 64, 59
2,109597, Control_c, 0, 67, 19
2,109615, Control_c, 0, 64, 61
2,109635, Control_c, 0, 64, 63
2,109635, Control_c, 0, 67, 18
2,109654, Control_c, 0, 64, 63
2,109674, Control_c, 0, 64, 64
2,109692, Control_c, 0, 64, 65
2,109692, Control_c, 0, 67, 18
2,109711, Control_c, 0, 64, 66
2,109731, Control_c, 0, 64, 68
2,109731, Control_c, 0, 67, 17
2,109749, Control_c, 0, 64, 70
2,109769, Control_c, 0, 64, 73
2,109788, Control_c, 0, 64, 77
2,109788, Control_c, 0, 67, 17
2,109808, Control_c, 0, 64, 81
2,109826, Control_c, 0, 64, 83
2,109831, Note_on_c, 0, 58, 46
2,109846, Control_c, 0, 64, 85
2,109865, Control_c, 0, 64, 85
2,109871, Note_on_c, 0, 70, 52
2,109884, Control_c, 0, 64, 86
2,109942, Control_c, 0, 67, 16
2,109961, Control_c, 0, 67, 15
2,109980, Control_c, 0, 67, 15
2,109990, Note_on_c, 0, 58, 0
2,110000, Control_c, 0, 67, 14
2,110029, Note_on_c, 0, 56, 0
2,110031, Note_on_c, 0, 68, 0
2,110057, Control_c, 0, 64, 85
2,110095, Control_c, 0, 67, 13
2,110134, Control_c, 0, 64, 85
2,110154, Control_c, 0, 64, 83
2,110172, Control_c, 0, 64, 80
2,110187, Note_on_c, 0, 71, 0
2,110191, Control_c, 0, 64, 73
2,110211, Control_c, 0, 64, 67
2,110229, Control_c, 0, 64, 61
2,110243, Note_on_c, 0, 63, 61
2,110249, Control_c, 0, 64, 58
2,110249, Control_c, 0, 67, 13
2,110268, Control_c, 0, 64, 59
2,110270, Note_on_c, 0, 68, 45
2,110285, Note_on_c, 0, 59, 47
2,110288, Control_c, 0, 64, 62
2,110288, Control_c, 0, 67, 12
2,110306, Control_c, 0, 64, 63
2,110326, Control_c, 0, 64, 64
2,110326, Control_c, 0, 67, 11
2,110345, Control_c, 0, 64, 66
2,110345, Control_c, 0, 67, 8
2,110364, Control_c, 0, 64, 67
2,110364, Control_c, 0, 67, 0
2,110383, Control_c, 0, 64, 69
2,110403, Control_c, 0, 64, 70
2,110422, Control_c, 0, 64, 70
2,110498, Control_c, 0, 64, 70
2,110523, Note_on_c, 0, 70, 0
2,110624, Note_on_c, 0, 66, 53
2,110630, Note_on_c, 0, 56, 35
2,110664, Note_on_c, 0, 59, 0
2,110754, Note_on_c, 0, 68, 0
2,110860, Control_c, 0, 64, 69
2,110937, Control_c, 0, 64, 69
2,110957, Control_c, 0, 64, 67
2,110976, Control_c, 0, 64, 63
2,110982, Note_on_c, 0, 63, 0
2,110991, Note_on_c, 0, 56, 0
2,110995, Control_c, 0, 64, 58
2,111000, Note_on_c, 0, 58, 46
2,111011, Note_on_c, 0, 65, 49
2,111014, Control_c, 0, 64, 53
2,111031, Control_c, 0, 64, 50
2,111050, Control_c, 0, 64, 51
2,111069, Control_c, 0, 64, 55
2,111088, Control_c, 0, 64, 59
2,111108, Control_c, 0, 64, 62
2,111126, Control_c, 0, 64, 63
2,111146, Control_c, 0, 64, 64
2,111203, Control_c, 0, 64, 64
2,111242, Control_c, 0, 64, 65
2,111340, Control_c, 0, 64, 64
2,111360, Control_c, 0, 64, 63
2,111379, Control_c, 0, 64, 57
2,111382, Note_on_c, 0, 66, 0
2,111391, Note_on_c, 0, 62, 54
2,111398, Control_c, 0, 64, 32
2,111398, Note_on_c, 0, 58, 0
2,111417, Control_c, 0, 64, 0
2,111424, Note_on_c, 0, 56, 48
2,111494, Control_c, 0, 64, 23
2,111514, Control_c, 0, 64, 55
2,111532, Control_c, 0, 64, 63
2,111552, Control_c, 0, 64, 65
2,111571, Control_c, 0, 64, 66
2,111591, Control_c, 0, 64, 68
2,111609, Control_c, 0, 64, 71
2,111629, Control_c, 0, 64, 74
2,111648, Control_c, 0, 64, 78
2,111667, Control_c, 0, 64, 80
2,111686, Control_c, 0, 64, 80
2,111707, Control_c, 0, 64, 81
2,111745, Control_c, 0, 64, 80
2,111764, Control_c, 0, 64, 78
2,111775, Note_on_c, 0, 63, 66
2,111776, Note_on_c, 0, 66, 61
2,111778, Note_on_c, 0, 54, 50
2,111784, Control_c, 0, 64, 71
2,111802, Control_c, 0, 64, 63
2,111802, Note_on_c, 0, 62, 0
2,111819, Note_on_c, 0, 65, 0
2,111822, Control_c, 0, 64, 48
2,111841, Control_c, 0, 64, 42
2,111850, Note_on_c, 0, 56, 0
2,111860, Control_c, 0, 64, 50
2,111879, Control_c, 0, 64, 60
2,111898, Control_c, 0, 64, 64
2,111918, Control_c, 0, 64, 67
2,111936, Control_c, 0, 64, 71
2,111956, Control_c, 0, 64, 77
2,111975, Control_c, 0, 64, 83
2,111995, Control_c, 0, 64, 88
2,112013, Control_c, 0, 64, 89
2,112071, Control_c, 0, 64, 88
2,112090, Control_c, 0, 64, 85
2,112100, Note_on_c, 0, 54, 0
2,112110, Control_c, 0, 64, 78
2,112129, Control_c, 0, 64, 70
2,112148, Control_c, 0, 64, 63
2,112154, Note_on_c, 0, 68, 64
2,112160, Note_on_c, 0, 65, 65
2,112163, Note_on_c, 0, 53, 56
2,112167, Control_c, 0, 64, 54
2,112187, Control_c, 0, 64, 50
2,112205, Control_c, 0, 64, 54
2,112225, Control_c, 0, 64, 61
2,112232, Note_on_c, 0, 63, 0
2,112246, Control_c, 0, 64, 64
2,112252, Note_on_c, 0, 66, 0
2,112266, Control_c, 0, 64, 66
2,112284, Control_c, 0, 64, 68
2,112304, Control_c, 0, 64, 71
2,112323, Control_c, 0, 64, 73
2,112342, Control_c, 0, 64, 74
2,112400, Control_c, 0, 64, 74
2,112438, Note_on_c, 0, 68, 0
2,112516, Note_on_c, 0, 53, 0
2,112534, Control_c, 0, 64, 74
2,112553, Control_c, 0, 64, 73
2,112570, Note_on_c, 0, 51, 42
2,112572, Control_c, 0, 64, 72
2,112591, Note_on_c, 0, 66, 66
2,112592, Control_c, 0, 64, 70
2,112610, Control_c, 0, 64, 66
2,112611, Note_on_c, 0, 70, 62
2,112630, Control_c, 0, 64, 59
2,112649, Control_c, 0, 64, 44
2,112656, Note_on_c, 0, 65, 0
2,112669, Control_c, 0, 64, 27
2,112687, Control_c, 0, 64, 19
2,112746, Control_c, 0, 64, 27
2,112764, Control_c, 0, 64, 42
2,112784, Control_c, 0, 64, 51
2,112803, Control_c, 0, 64, 56
2,112822, Control_c, 0, 64, 58
2,112841, Control_c, 0, 64, 60
2,112860, Control_c, 0, 64, 61
2,112880, Control_c, 0, 64, 62
2,112898, Control_c, 0, 64, 64
2,112918, Control_c, 0, 64, 65
2,112937, Control_c, 0, 64, 66
2,112956, Control_c, 0, 64, 69
2,112975, Control_c, 0, 64, 73
2,112995, Control_c, 0, 64, 78
2,113012, Note_on_c, 0, 65, 52
2,113014, Control_c, 0, 64, 85
2,113022, Note_on_c, 0, 70, 0
2,113032, Note_on_c, 0, 66, 0
2,113033, Control_c, 0, 64, 90
2,113052, Control_c, 0, 64, 92
2,113264, Control_c, 0, 64, 91
2,113283, Control_c, 0, 64, 91
2,113302, Control_c, 0, 64, 90
2,113321, Control_c, 0, 64, 88
2,113340, Control_c, 0, 64, 87
2,113360, Control_c, 0, 64, 87
2,113395, Note_on_c, 0, 63, 72
2,113398, Control_c, 0, 64, 86
2,113412, Note_on_c, 0, 56, 57
2,113417, Control_c, 0, 64, 84
2,113433, Note_on_c, 0, 72, 52
2,113436, Control_c, 0, 64, 79
2,113455, Control_c, 0, 64, 74
2,113475, Control_c, 0, 64, 66
2,113494, Control_c, 0, 64, 60
2,113513, Control_c, 0, 64, 54
2,113532, Control_c, 0, 64, 51
2,113570, Control_c, 0, 64, 52
2,113590, Control_c, 0, 64, 53
2,113609, Control_c, 0, 64, 55
2,113625, Control_c, 0, 64, 57
2,113635, Note_on_c, 0, 51, 0
2,113644, Control_c, 0, 64, 58
2,113663, Control_c, 0, 64, 59
2,113682, Control_c, 0, 64, 60
2,113702, Control_c, 0, 64, 61
2,113720, Control_c, 0, 64, 63
2,113739, Control_c, 0, 64, 64
2,113759, Control_c, 0, 64, 65
2,113778, Control_c, 0, 64, 66
2,113786, Note_on_c, 0, 74, 58
2,113797, Control_c, 0, 64, 68
2,113816, Control_c, 0, 64, 70
2,113836, Control_c, 0, 64, 72
2,113855, Control_c, 0, 64, 73
2,113874, Control_c, 0, 64, 74
2,113893, Control_c, 0, 64, 74
2,113918, Note_on_c, 0, 72, 0
2,113931, Control_c, 0, 64, 75
2,113990, Control_c, 0, 64, 75
2,114066, Control_c, 0, 64, 74
2,114085, Control_c, 0, 64, 71
2,114105, Control_c, 0, 64, 67
2,114122, Note_on_c, 0, 56, 0
2,114124, Control_c, 0, 64, 63
2,114143, Control_c, 0, 64, 62
2,114179, Note_on_c, 0, 70, 76
2,114184, Control_c, 0, 64, 62
2,114198, Note_on_c, 0, 75, 60
2,114202, Control_c, 0, 64, 63
2,114219, Note_on_c, 0, 74, 0
2,114222, Control_c, 0, 64, 64
2,114241, Control_c, 0, 64, 65
2,114253, Note_on_c, 0, 63, 0
2,114260, Control_c, 0, 64, 65
2,114279, Control_c, 0, 64, 66
2,114298, Control_c, 0, 64, 66
2,114318, Control_c, 0, 64, 67
2,114356, Control_c, 0, 64, 67
2,114413, Control_c, 0, 64, 67
2,114433, Control_c, 0, 64, 66
2,114452, Control_c, 0, 64, 65
2,114471, Control_c, 0, 64, 63
2,114490, Control_c, 0, 64, 59
2,114510, Control_c, 0, 64, 53
2,114529, Control_c, 0, 64, 50
2,114530, Note_on_c, 0, 55, 53
2,114567, Control_c, 0, 64, 53
2,114587, Control_c, 0, 64, 58
2,114605, Control_c, 0, 64, 62
2,114625, Control_c, 0, 64, 64
2,114644, Control_c, 0, 64, 66
2,114664, Control_c, 0, 64, 67
2,114682, Control_c, 0, 64, 69
2,114699, Note_on_c, 0, 55, 0
2,114702, Control_c, 0, 64, 70
2,114715, Note_on_c, 0, 53, 53
2,114816, Control_c, 0, 64, 69
2,114855, Control_c, 0, 64, 69
2,114875, Control_c, 0, 64, 68
2,114893, Control_c, 0, 64, 67
2,114909, Note_on_c, 0, 53, 0
2,114913, Control_c, 0, 64, 66
2,114932, Control_c, 0, 64, 63
2,114951, Control_c, 0, 64, 59
2,114953, Note_on_c, 0, 63, 72
2,114970, Control_c, 0, 64, 51
2,114990, Control_c, 0, 64, 44
2,114990, Note_on_c, 0, 55, 47
2,115009, Control_c, 0, 64, 38
2,115028, Control_c, 0, 64, 34
2,115126, Control_c, 0, 64, 35
2,115146, Control_c, 0, 64, 37
2,115164, Control_c, 0, 64, 39
2,115184, Control_c, 0, 64, 41
2,115203, Control_c, 0, 64, 43
2,115222, Control_c, 0, 64, 45
2,115241, Control_c, 0, 64, 47
2,115260, Control_c, 0, 64, 49
2,115280, Control_c, 0, 64, 52
2,115298, Control_c, 0, 64, 54
2,115318, Control_c, 0, 64, 56
2,115331, Note_on_c, 0, 70, 0
2,115337, Control_c, 0, 64, 58
2,115356, Control_c, 0, 64, 60
2,115370, Note_on_c, 0, 73, 56
2,115375, Control_c, 0, 64, 62
2,115395, Control_c, 0, 64, 63
2,115414, Control_c, 0, 64, 65
2,115415, Note_on_c, 0, 75, 0
2,115433, Control_c, 0, 64, 67
2,115452, Control_c, 0, 64, 69
2,115472, Control_c, 0, 64, 71
2,115490, Control_c, 0, 64, 73
2,115510, Control_c, 0, 64, 76
2,115529, Control_c, 0, 64, 79
2,115545, Control_c, 0, 64, 81
2,115564, Control_c, 0, 64, 81
2,115615, Note_on_c, 0, 55, 0
2,115640, Control_c, 0, 64, 80
2,115659, Control_c, 0, 64, 75
2,115679, Control_c, 0, 64, 68
2,115695, Note_on_c, 0, 56, 47
2,115698, Control_c, 0, 64, 61
2,115717, Control_c, 0, 64, 58
2,115718, Note_on_c, 0, 72, 60
2,115736, Control_c, 0, 64, 60
2,115756, Control_c, 0, 64, 62
2,115775, Control_c, 0, 64, 64
2,115794, Control_c, 0, 64, 66
2,115813, Control_c, 0, 64, 69
2,115833, Control_c, 0, 64, 72
2,115851, Control_c, 0, 64, 76
2,115871, Control_c, 0, 64, 78
2,115890, Control_c, 0, 64, 78
2,115919, Note_on_c, 0, 63, 0
2,115928, Control_c, 0, 64, 79
2,115948, Control_c, 0, 64, 80
2,115954, Note_on_c, 0, 73, 0
2,115963, Note_on_c, 0, 65, 0
2,115967, Control_c, 0, 64, 82
2,115986, Control_c, 0, 64, 82
2,116005, Control_c, 0, 64, 83
2,116063, Control_c, 0, 64, 82
2,116083, Control_c, 0, 64, 77
2,116091, Note_on_c, 0, 54, 49
2,116093, Note_on_c, 0, 65, 62
2,116103, Control_c, 0, 64, 69
2,116121, Control_c, 0, 64, 61
2,116136, Note_on_c, 0, 74, 53
2,116140, Control_c, 0, 64, 55
2,116140, Note_on_c, 0, 56, 0
2,116160, Control_c, 0, 64, 56
2,116179, Control_c, 0, 64, 60
2,116198, Control_c, 0, 64, 63
2,116217, Control_c, 0, 64, 65
2,116237, Control_c, 0, 64, 67
2,116255, Control_c, 0, 64, 71
2,116255, Note_on_c, 0, 72, 0
2,116275, Control_c, 0, 64, 74
2,116294, Control_c, 0, 64, 76
2,116309, Note_on_c, 0, 65, 0
2,116314, Control_c, 0, 64, 77
2,116448, Note_on_c, 0, 53, 46
2,116467, Control_c, 0, 64, 76
2,116468, Note_on_c, 0, 54, 0
2,116471, Note_on_c, 0, 66, 63
2,116482, Note_on_c, 0, 75, 64
2,116486, Control_c, 0, 64, 71
2,116504, Control_c, 0, 64, 64
2,116513, Note_on_c, 0, 74, 0
2,116523, Control_c, 0, 64, 56
2,116541, Control_c, 0, 64, 48
2,116561, Control_c, 0, 64, 48
2,116580, Control_c, 0, 64, 49
2,116600, Control_c, 0, 64, 54
2,116618, Control_c, 0, 64, 60
2,116638, Control_c, 0, 64, 63
2,116657, Control_c, 0, 64, 65
2,116676, Control_c, 0, 64, 67
2,116695, Control_c, 0, 64, 68
2,116715, Control_c, 0, 64, 69
2,116734, Control_c, 0, 64, 69
2,116750, Note_on_c, 0, 53, 0
2,116772, Control_c, 0, 64, 70
2,116792, Control_c, 0, 64, 71
2,116810, Control_c, 0, 64, 72
2,116830, Control_c, 0, 64, 73
2,116833, Note_on_c, 0, 51, 46
2,116849, Control_c, 0, 64, 74
2,116869, Control_c, 0, 64, 75
2,116887, Control_c, 0, 64, 76
2,116907, Control_c, 0, 64, 76
2,116917, Note_on_c, 0, 66, 0
2,116946, Control_c, 0, 64, 76
2,116984, Control_c, 0, 64, 75
2,117003, Control_c, 0, 64, 75
2,117021, Control_c, 0, 64, 74
2,117043, Control_c, 0, 64, 73
2,117139, Control_c, 0, 64, 72
2,117158, Control_c, 0, 64, 71
2,117177, Control_c, 0, 64, 69
2,117197, Control_c, 0, 64, 67
2,117215, Control_c, 0, 64, 64
2,117228, Note_on_c, 0, 68, 63
2,117230, Note_on_c, 0, 53, 33
2,117235, Control_c, 0, 64, 59
2,117238, Note_on_c, 0, 51, 0
2,117254, Control_c, 0, 64, 54
2,117274, Control_c, 0, 64, 49
2,117292, Control_c, 0, 64, 46
2,117312, Control_c, 0, 64, 44
2,117331, Control_c, 0, 64, 44
2,117349, Note_on_c, 0, 75, 0
2,117389, Control_c, 0, 64, 44
2,117427, Control_c, 0, 64, 45
2,117446, Control_c, 0, 64, 46
2,117466, Control_c, 0, 64, 47
2,117485, Control_c, 0, 64, 49
2,117504, Control_c, 0, 64, 51
2,117523, Control_c, 0, 64, 53
2,117543, Control_c, 0, 64, 56
2,117561, Control_c, 0, 64, 59
2,117580, Control_c, 0, 64, 62
2,117600, Control_c, 0, 64, 64
2,117606, Note_on_c, 0, 53, 0
2,117610, Note_on_c, 0, 54, 47
2,117619, Control_c, 0, 64, 65
2,117638, Control_c, 0, 64, 66
2,117657, Control_c, 0, 64, 68
2,117677, Control_c, 0, 64, 70
2,117695, Control_c, 0, 64, 73
2,117715, Control_c, 0, 64, 76
2,117734, Control_c, 0, 64, 77
2,117831, Control_c, 0, 64, 77
2,117849, Control_c, 0, 64, 76
2,117869, Control_c, 0, 64, 74
2,117888, Control_c, 0, 64, 70
2,117888, Control_c, 0, 67, 16
2,117907, Control_c, 0, 64, 66
2,117907, Control_c, 0, 67, 32
2,117926, Control_c, 0, 64, 59
2,117926, Control_c, 0, 67, 54
2,117946, Control_c, 0, 64, 44
2,117946, Control_c, 0, 67, 72
2,117946, Note_on_c, 0, 54, 0
2,117965, Control_c, 0, 64, 27
2,117965, Control_c, 0, 67, 88
2,117984, Control_c, 0, 67, 102
2,118001, Note_on_c, 0, 56, 38
2,118006, Control_c, 0, 64, 42
2,118006, Control_c, 0, 67, 113
2,118008, Note_on_c, 0, 74, 45
2,118026, Control_c, 0, 64, 56
2,118026, Control_c, 0, 67, 122
2,118044, Control_c, 0, 64, 62
2,118044, Control_c, 0, 67, 127
2,118064, Control_c, 0, 64, 64
2,118083, Control_c, 0, 64, 66
2,118101, Control_c, 0, 64, 67
2,118121, Control_c, 0, 64, 68
2,118217, Control_c, 0, 64, 67
2,118236, Control_c, 0, 64, 66
2,118255, Control_c, 0, 64, 64
2,118275, Control_c, 0, 64, 59
2,118294, Control_c, 0, 64, 54
2,118313, Control_c, 0, 64, 55
2,118332, Control_c, 0, 64, 58
2,118352, Control_c, 0, 64, 62
2,118370, Control_c, 0, 64, 64
2,118388, Note_on_c, 0, 58, 33
2,118390, Control_c, 0, 64, 66
2,118409, Control_c, 0, 64, 70
2,118413, Note_on_c, 0, 56, 0
2,118427, Control_c, 0, 64, 75
2,118445, Control_c, 0, 64, 80
2,118465, Control_c, 0, 64, 81
2,118497, Note_on_c, 0, 68, 0
2,118599, Control_c, 0, 64, 82
2,118638, Control_c, 0, 64, 81
2,118656, Control_c, 0, 64, 79
2,118676, Control_c, 0, 64, 72
2,118690, Note_on_c, 0, 58, 0
2,118695, Control_c, 0, 64, 65
2,118715, Control_c, 0, 64, 58
2,118733, Control_c, 0, 64, 49
2,118749, Note_on_c, 0, 51, 35
2,118751, Note_on_c, 0, 75, 58
2,118753, Control_c, 0, 64, 47
2,118772, Control_c, 0, 64, 51
2,118783, Note_on_c, 0, 74, 0
2,118791, Control_c, 0, 64, 57
2,118797, Note_on_c, 0, 66, 41
2,118810, Control_c, 0, 64, 62
2,118810, Control_c, 0, 67, 127
2,118830, Control_c, 0, 64, 65
2,118830, Control_c, 0, 67, 126
2,118849, Control_c, 0, 64, 67
2,118867, Note_on_c, 0, 51, 0
2,118868, Control_c, 0, 64, 69
2,118868, Control_c, 0, 67, 126
2,118887, Control_c, 0, 64, 72
2,118887, Control_c, 0, 67, 125
2,118907, Control_c, 0, 64, 74
2,118907, Control_c, 0, 67, 125
2,118925, Control_c, 0, 64, 74
2,118945, Control_c, 0, 67, 124
2,118956, Note_on_c, 0, 63, 46
2,118963, Control_c, 0, 67, 123
2,118983, Control_c, 0, 67, 123
2,119001, Control_c, 0, 67, 122
2,119020, Control_c, 0, 67, 121
2,119031, Note_on_c, 0, 63, 0
2,119060, Note_on_c, 0, 66, 0
2,119097, Note_on_c, 0, 61, 42
2,119110, Note_on_c, 0, 68, 56
2,119155, Control_c, 0, 64, 74
2,119174, Control_c, 0, 64, 73
2,119194, Control_c, 0, 64, 73
2,119212, Control_c, 0, 64, 72
2,119218, Note_on_c, 0, 61, 0
2,119221, Note_on_c, 0, 68, 0
2,119257, Note_on_c, 0, 59, 41
2,119285, Note_on_c, 0, 75, 0
2,119328, Control_c, 0, 64, 73
2,119442, Control_c, 0, 64, 72
2,119444, Note_on_c, 0, 59, 0
2,119461, Control_c, 0, 64, 71
2,119480, Control_c, 0, 64, 67
2,119480, Control_c, 0, 67, 122
2,119492, Note_on_c, 0, 58, 44
2,119499, Control_c, 0, 64, 57
2,119503, Note_on_c, 0, 74, 55
2,119511, Note_on_c, 0, 70, 58
2,119519, Control_c, 0, 64, 27
2,119538, Control_c, 0, 64, 0
2,119576, Control_c, 0, 64, 24
2,119593, Note_on_c, 0, 70, 0
2,119596, Control_c, 0, 64, 50
2,119615, Control_c, 0, 64, 62
2,119634, Control_c, 0, 64, 65
2,119634, Control_c, 0, 67, 122
2,119653, Control_c, 0, 64, 67
2,119673, Control_c, 0, 64, 69
2,119691, Control_c, 0, 64, 73
2,119711, Control_c, 0, 64, 78
2,119730, Control_c, 0, 64, 82
2,119750, Control_c, 0, 64, 83
2,119750, Control_c, 0, 67, 122
2,119768, Control_c, 0, 64, 82
2,119768, Control_c, 0, 67, 121
2,119788, Control_c, 0, 64, 81
2,119807, Control_c, 0, 67, 120
2,119826, Control_c, 0, 64, 82
2,119826, Control_c, 0, 67, 119
2,119845, Control_c, 0, 67, 118
2,119865, Control_c, 0, 67, 117
2,119884, Control_c, 0, 64, 82
2,119884, Control_c, 0, 67, 112
2,119889, Note_on_c, 0, 75, 55
2,119903, Control_c, 0, 67, 107
2,119913, Note_on_c, 0, 72, 36
2,119926, Control_c, 0, 67, 101
2,119935, Note_on_c, 0, 74, 0
2,119946, Control_c, 0, 67, 96
2,119953, Note_on_c, 0, 75, 0
2,119957, Note_on_c, 0, 72, 0
2,119964, Control_c, 0, 64, 82
2,119964, Control_c, 0, 67, 91
2,119984, Control_c, 0, 67, 88
2,120003, Control_c, 0, 64, 81
2,120003, Control_c, 0, 67, 87
2,120021, Control_c, 0, 64, 81
2,120041, Control_c, 0, 64, 80
2,120175, Control_c, 0, 67, 87
2,120195, Control_c, 0, 67, 86
2,120214, Control_c, 0, 64, 78
2,120214, Control_c, 0, 67, 85
2,120233, Control_c, 0, 64, 73
2,120252, Control_c, 0, 64, 66
2,120252, Control_c, 0, 67, 83
2,120272, Control_c, 0, 64, 59
2,120272, Control_c, 0, 67, 78
2,120290, Control_c, 0, 64, 55
2,120290, Control_c, 0, 67, 71
2,120300, Note_on_c, 0, 77, 66
2,120310, Control_c, 0, 64, 56
2,120310, Control_c, 0, 67, 61
2,120311, Note_on_c, 0, 74, 35
2,120329, Control_c, 0, 64, 60
2,120329, Control_c, 0, 67, 49
2,120346, Control_c, 0, 64, 62
2,120346, Control_c, 0, 67, 35
2,120346, Note_on_c, 0, 58, 0
2,120365, Control_c, 0, 64, 64
2,120365, Control_c, 0, 67, 18
2,120384, Control_c, 0, 64, 66
2,120384, Control_c, 0, 67, 0
2,120403, Control_c, 0, 64, 67
2,120423, Control_c, 0, 64, 70
2,120441, Control_c, 0, 64, 72
2,120460, Control_c, 0, 64, 74
2,120480, Control_c, 0, 64, 76
2,120499, Control_c, 0, 64, 77
2,120614, Control_c, 0, 64, 77
2,120634, Control_c, 0, 64, 77
2,120652, Control_c, 0, 64, 74
2,120659, Note_on_c, 0, 58, 44
2,120672, Control_c, 0, 64, 69
2,120691, Control_c, 0, 64, 62
2,120696, Note_on_c, 0, 54, 37
2,120696, Note_on_c, 0, 80, 65
2,120711, Control_c, 0, 64, 53
2,120729, Control_c, 0, 64, 49
2,120749, Control_c, 0, 64, 50
2,120768, Control_c, 0, 64, 54
2,120785, Note_on_c, 0, 77, 0
2,120787, Control_c, 0, 64, 59
2,120806, Control_c, 0, 64, 63
2,120826, Control_c, 0, 64, 65
2,120845, Control_c, 0, 64, 67
2,120864, Control_c, 0, 64, 70
2,120884, Control_c, 0, 64, 74
2,120904, Control_c, 0, 64, 77
2,120922, Control_c, 0, 64, 79
2,120999, Control_c, 0, 64, 78
2,121009, Note_on_c, 0, 58, 0
2,121018, Control_c, 0, 64, 76
2,121038, Control_c, 0, 64, 71
2,121056, Control_c, 0, 64, 63
2,121076, Control_c, 0, 64, 45
2,121085, Note_on_c, 0, 56, 41
2,121085, Note_on_c, 0, 60, 42
2,121087, Note_on_c, 0, 78, 68
2,121091, Note_on_c, 0, 54, 0
2,121095, Control_c, 0, 64, 0
2,121153, Control_c, 0, 64, 31
2,121172, Control_c, 0, 64, 55
2,121191, Control_c, 0, 64, 64
2,121210, Control_c, 0, 64, 67
2,121230, Control_c, 0, 64, 70
2,121249, Control_c, 0, 64, 76
2,121268, Control_c, 0, 64, 85
2,121287, Control_c, 0, 64, 94
2,121306, Control_c, 0, 64, 96
2,121344, Control_c, 0, 64, 92
2,121363, Control_c, 0, 64, 82
2,121382, Control_c, 0, 64, 69
2,121401, Control_c, 0, 64, 57
2,121420, Control_c, 0, 64, 45
2,121440, Control_c, 0, 64, 52
2,121456, Note_on_c, 0, 60, 0
2,121457, Note_on_c, 0, 62, 62
2,121459, Control_c, 0, 64, 60
2,121462, Note_on_c, 0, 58, 43
2,121471, Note_on_c, 0, 77, 61
2,121478, Control_c, 0, 64, 63
2,121481, Note_on_c, 0, 74, 0
2,121497, Control_c, 0, 64, 66
2,121517, Control_c, 0, 64, 69
2,121535, Control_c, 0, 64, 74
2,121555, Control_c, 0, 64, 78
2,121574, Control_c, 0, 64, 82
2,121580, Note_on_c, 0, 56, 0
2,121592, Note_on_c, 0, 62, 0
2,121594, Control_c, 0, 64, 82
2,121627, Note_on_c, 0, 58, 0
2,121640, Note_on_c, 0, 80, 0
2,121763, Note_on_c, 0, 78, 0
2,121766, Control_c, 0, 64, 82
2,121786, Control_c, 0, 64, 81
2,121805, Control_c, 0, 64, 79
2,121824, Control_c, 0, 64, 75
2,121840, Note_on_c, 0, 63, 62
2,121843, Control_c, 0, 64, 68
2,121862, Control_c, 0, 64, 61
2,121875, Note_on_c, 0, 59, 53
2,121881, Control_c, 0, 64, 50
2,121900, Control_c, 0, 64, 45
2,121908, Note_on_c, 0, 75, 52
2,121939, Control_c, 0, 64, 48
2,121946, Note_on_c, 0, 77, 0
2,121958, Control_c, 0, 64, 55
2,121977, Control_c, 0, 64, 61
2,121997, Control_c, 0, 64, 64
2,122015, Control_c, 0, 64, 66
2,122035, Control_c, 0, 64, 67
2,122054, Control_c, 0, 64, 68
2,122074, Control_c, 0, 64, 70
2,122092, Control_c, 0, 64, 71
2,122169, Control_c, 0, 64, 71
2,122224, Note_on_c, 0, 59, 0
2,122241, Note_on_c, 0, 58, 40
2,122247, Note_on_c, 0, 75, 0
2,122264, Control_c, 0, 64, 72
2,122268, Note_on_c, 0, 73, 52
2,122283, Control_c, 0, 64, 73
2,122301, Control_c, 0, 64, 72
2,122321, Control_c, 0, 64, 72
2,122340, Control_c, 0, 64, 71
2,122360, Control_c, 0, 64, 70
2,122371, Note_on_c, 0, 58, 0
2,122494, Control_c, 0, 64, 69
2,122516, Control_c, 0, 64, 66
2,122535, Control_c, 0, 64, 63
2,122555, Control_c, 0, 64, 60
2,122573, Control_c, 0, 64, 58
2,122592, Control_c, 0, 64, 59
2,122608, Note_on_c, 0, 56, 46
2,122612, Control_c, 0, 64, 62
2,122631, Control_c, 0, 64, 63
2,122647, Note_on_c, 0, 73, 0
2,122648, Note_on_c, 0, 71, 49
2,122650, Control_c, 0, 64, 65
2,122669, Control_c, 0, 64, 67
2,122689, Control_c, 0, 64, 69
2,122708, Control_c, 0, 64, 71
2,122727, Control_c, 0, 64, 72
2,122746, Control_c, 0, 64, 73
2,122816, Note_on_c, 0, 63, 0
2,122824, Control_c, 0, 64, 74
2,122843, Control_c, 0, 64, 74
2,122920, Control_c, 0, 64, 73
2,122939, Control_c, 0, 64, 70
2,122959, Control_c, 0, 64, 65
2,122978, Control_c, 0, 64, 63
2,122996, Note_on_c, 0, 71, 0
2,122997, Control_c, 0, 64, 64
2,123004, Note_on_c, 0, 65, 67
2,123016, Control_c, 0, 64, 66
2,123021, Note_on_c, 0, 70, 52
2,123036, Control_c, 0, 64, 67
2,123054, Control_c, 0, 64, 68
2,123073, Control_c, 0, 64, 70
2,123093, Control_c, 0, 64, 73
2,123112, Control_c, 0, 64, 75
2,123131, Control_c, 0, 64, 76
2,123144, Note_on_c, 0, 65, 0
2,123150, Control_c, 0, 64, 76
2,123170, Control_c, 0, 64, 76
2,123189, Note_on_c, 0, 71, 51
2,123203, Note_on_c, 0, 70, 0
2,123255, Note_on_c, 0, 56, 0
2,123264, Control_c, 0, 64, 75
2,123303, Control_c, 0, 64, 75
2,123361, Control_c, 0, 64, 73
2,123380, Control_c, 0, 64, 71
2,123399, Control_c, 0, 64, 66
2,123407, Note_on_c, 0, 66, 67
2,123417, Note_on_c, 0, 71, 0
2,123418, Control_c, 0, 64, 61
2,123438, Control_c, 0, 64, 59
2,123445, Note_on_c, 0, 63, 50
2,123457, Control_c, 0, 64, 60
2,123458, Note_on_c, 0, 70, 60
2,123476, Control_c, 0, 64, 62
2,123495, Control_c, 0, 64, 64
2,123515, Control_c, 0, 64, 65
2,123533, Control_c, 0, 64, 67
2,123552, Control_c, 0, 64, 68
2,123572, Control_c, 0, 64, 69
2,123591, Control_c, 0, 64, 69
2,123629, Control_c, 0, 64, 69
2,123687, Control_c, 0, 64, 67
2,123706, Control_c, 0, 64, 63
2,123726, Control_c, 0, 64, 56
2,123744, Control_c, 0, 64, 44
2,123765, Control_c, 0, 64, 32
2,123784, Control_c, 0, 64, 27
2,123803, Control_c, 0, 64, 29
2,123819, Note_on_c, 0, 70, 0
2,123822, Control_c, 0, 64, 46
2,123827, Note_on_c, 0, 72, 66
2,123842, Control_c, 0, 64, 60
2,123861, Control_c, 0, 64, 65
2,123880, Control_c, 0, 64, 67
2,123899, Control_c, 0, 64, 70
2,123919, Control_c, 0, 64, 75
2,123938, Control_c, 0, 64, 79
2,123953, Note_on_c, 0, 63, 0
2,123957, Control_c, 0, 64, 82
2,123976, Control_c, 0, 64, 83
2,124000, Note_on_c, 0, 66, 0
2,124014, Control_c, 0, 64, 82
2,124053, Control_c, 0, 64, 82
2,124130, Control_c, 0, 64, 80
2,124148, Control_c, 0, 64, 75
2,124168, Control_c, 0, 64, 66
2,124187, Control_c, 0, 64, 55
2,124198, Note_on_c, 0, 65, 67
2,124207, Control_c, 0, 64, 41
2,124223, Note_on_c, 0, 74, 57
2,124225, Control_c, 0, 64, 40
2,124245, Control_c, 0, 64, 43
2,124253, Note_on_c, 0, 58, 43
2,124264, Control_c, 0, 64, 51
2,124284, Control_c, 0, 64, 59
2,124302, Control_c, 0, 64, 63
2,124322, Control_c, 0, 64, 65
2,124341, Control_c, 0, 64, 66
2,124360, Control_c, 0, 64, 67
2,124379, Control_c, 0, 64, 69
2,124399, Control_c, 0, 64, 70
2,124418, Control_c, 0, 64, 70
2,124437, Control_c, 0, 64, 71
2,124456, Control_c, 0, 64, 71
2,124513, Control_c, 0, 64, 72
2,124552, Control_c, 0, 64, 71
2,124571, Control_c, 0, 64, 67
2,124584, Note_on_c, 0, 75, 64
2,124585, Note_on_c, 0, 63, 67
2,124590, Control_c, 0, 64, 58
2,124610, Control_c, 0, 64, 32
2,124628, Control_c, 0, 64, 9
2,124648, Control_c, 0, 64, 20
2,124649, Note_on_c, 0, 72, 0
2,124667, Control_c, 0, 64, 43
2,124687, Control_c, 0, 64, 58
2,124705, Control_c, 0, 64, 64
2,124726, Control_c, 0, 64, 66
2,124745, Control_c, 0, 64, 70
2,124764, Control_c, 0, 64, 73
2,124774, Note_on_c, 0, 65, 0
2,124783, Control_c, 0, 64, 74
2,124803, Control_c, 0, 64, 75
2,124841, Control_c, 0, 64, 75
2,124898, Control_c, 0, 64, 75
2,124937, Control_c, 0, 64, 75
2,124957, Control_c, 0, 64, 73
2,124975, Control_c, 0, 64, 68
2,124994, Control_c, 0, 64, 59
2,125009, Note_on_c, 0, 62, 68
2,125014, Control_c, 0, 64, 9
2,125023, Note_on_c, 0, 77, 61
2,125033, Control_c, 0, 64, 0
2,125055, Note_on_c, 0, 63, 0
2,125068, Note_on_c, 0, 74, 0
2,125109, Control_c, 0, 64, 45
2,125129, Control_c, 0, 64, 61
2,125148, Control_c, 0, 64, 65
2,125167, Note_on_c, 0, 75, 0
2,125168, Control_c, 0, 64, 66
2,125186, Control_c, 0, 64, 68
2,125206, Control_c, 0, 64, 71
2,125225, Control_c, 0, 64, 73
2,125244, Control_c, 0, 64, 74
2,125321, Control_c, 0, 64, 74
2,125340, Control_c, 0, 64, 70
2,125360, Control_c, 0, 64, 64
2,125376, Note_on_c, 0, 77, 0
2,125378, Control_c, 0, 64, 46
2,125397, Note_on_c, 0, 63, 76
2,125398, Control_c, 0, 64, 0
2,125411, Note_on_c, 0, 60, 56
2,125414, Note_on_c, 0, 70, 71
2,125422, Note_on_c, 0, 62, 0
2,125474, Control_c, 0, 64, 38
2,125494, Control_c, 0, 64, 58
2,125513, Control_c, 0, 64, 63
2,125532, Control_c, 0, 64, 65
2,125551, Control_c, 0, 64, 66
2,125571, Control_c, 0, 64, 68
2,125577, Note_on_c, 0, 58, 0
2,125589, Control_c, 0, 64, 70
2,125609, Control_c, 0, 64, 72
2,125628, Control_c, 0, 64, 73
2,125666, Control_c, 0, 64, 72
2,125705, Control_c, 0, 64, 73
2,125778, Note_on_c, 0, 65, 66
2,125788, Note_on_c, 0, 62, 63
2,125794, Note_on_c, 0, 63, 0
2,125801, Control_c, 0, 64, 71
2,125815, Note_on_c, 0, 82, 74
2,125820, Control_c, 0, 64, 65
2,125840, Control_c, 0, 64, 50
2,125844, Note_on_c, 0, 60, 0
2,125858, Control_c, 0, 64, 21
2,125878, Control_c, 0, 64, 0
2,125935, Control_c, 0, 64, 27
2,125954, Control_c, 0, 64, 47
2,125974, Control_c, 0, 64, 58
2,125993, Control_c, 0, 64, 60
2,126012, Control_c, 0, 64, 61
2,126031, Control_c, 0, 64, 62
2,126051, Control_c, 0, 64, 63
2,126069, Control_c, 0, 64, 63
2,126089, Control_c, 0, 64, 64
2,126090, Note_on_c, 0, 70, 0
2,126127, Control_c, 0, 64, 65
2,126145, Control_c, 0, 64, 66
2,126165, Control_c, 0, 64, 68
2,126178, Note_on_c, 0, 80, 78
2,126184, Control_c, 0, 64, 69
2,126204, Control_c, 0, 64, 71
2,126222, Control_c, 0, 64, 72
2,126414, Control_c, 0, 64, 72
2,126433, Control_c, 0, 64, 71
2,126453, Control_c, 0, 64, 70
2,126472, Control_c, 0, 64, 67
2,126491, Control_c, 0, 64, 63
2,126510, Control_c, 0, 64, 50
2,126530, Control_c, 0, 64, 0
2,126548, Note_on_c, 0, 63, 59
2,126567, Note_on_c, 0, 65, 0
2,126600, Note_on_c, 0, 62, 0
2,126600, Note_on_c, 0, 78, 77
2,126610, Control_c, 0, 64, 34
2,126628, Control_c, 0, 64, 57
2,126645, Note_on_c, 0, 82, 0
2,126649, Control_c, 0, 64, 64
2,126664, Note_on_c, 0, 80, 0
2,126668, Control_c, 0, 64, 66
2,126687, Control_c, 0, 64, 68
2,126706, Control_c, 0, 64, 70
2,126725, Control_c, 0, 64, 71
2,126745, Control_c, 0, 64, 73
2,126763, Control_c, 0, 64, 75
2,126783, Control_c, 0, 64, 76
2,126800, Note_on_c, 0, 63, 0
2,126802, Control_c, 0, 64, 76
2,126840, Control_c, 0, 64, 76
2,126860, Control_c, 0, 64, 75
2,126879, Control_c, 0, 64, 72
2,126898, Control_c, 0, 64, 65
2,126917, Control_c, 0, 64, 51
2,126937, Control_c, 0, 64, 35
2,126948, Note_on_c, 0, 63, 49
2,126949, Note_on_c, 0, 59, 54
2,126950, Note_on_c, 0, 80, 82
2,126956, Control_c, 0, 64, 38
2,126975, Control_c, 0, 64, 48
2,126994, Control_c, 0, 64, 59
2,127014, Control_c, 0, 64, 63
2,127032, Control_c, 0, 64, 66
2,127052, Control_c, 0, 64, 68
2,127070, Control_c, 0, 64, 71
2,127090, Control_c, 0, 64, 73
2,127098, Note_on_c, 0, 62, 58
2,127103, Note_on_c, 0, 59, 0
2,127105, Note_on_c, 0, 63, 0
2,127108, Control_c, 0, 64, 73
2,127145, Note_on_c, 0, 62, 0
2,127147, Control_c, 0, 64, 73
2,127242, Control_c, 0, 64, 72
2,127301, Control_c, 0, 64, 72
2,127302, Note_on_c, 0, 63, 54
2,127319, Control_c, 0, 64, 70
2,127320, Note_on_c, 0, 54, 49
2,127320, Note_on_c, 0, 82, 83
2,127339, Control_c, 0, 64, 65
2,127358, Control_c, 0, 64, 56
2,127377, Control_c, 0, 64, 39
2,127396, Control_c, 0, 64, 23
2,127416, Control_c, 0, 64, 9
2,127435, Control_c, 0, 64, 0
2,127442, Note_on_c, 0, 78, 0
2,127443, Note_on_c, 0, 80, 0
2,127473, Control_c, 0, 64, 11
2,127493, Control_c, 0, 64, 22
2,127511, Control_c, 0, 64, 29
2,127531, Control_c, 0, 64, 35
2,127550, Control_c, 0, 64, 40
2,127570, Control_c, 0, 64, 46
2,127588, Control_c, 0, 64, 52
2,127608, Control_c, 0, 64, 55
2,127627, Control_c, 0, 64, 57
2,127647, Control_c, 0, 64, 59
2,127665, Control_c, 0, 64, 61
2,127684, Control_c, 0, 64, 62
2,127704, Control_c, 0, 64, 64
2,127721, Note_on_c, 0, 56, 54
2,127722, Control_c, 0, 64, 65
2,127736, Note_on_c, 0, 83, 82
2,127742, Control_c, 0, 64, 66
2,127761, Control_c, 0, 64, 68
2,127781, Control_c, 0, 64, 70
2,127799, Control_c, 0, 64, 73
2,127811, Note_on_c, 0, 82, 0
2,127818, Note_on_c, 0, 63, 0
2,127819, Control_c, 0, 64, 77
2,127838, Control_c, 0, 64, 80
2,127857, Control_c, 0, 64, 81
2,127896, Control_c, 0, 64, 81
2,127925, Note_on_c, 0, 54, 0
2,127991, Control_c, 0, 64, 80
2,128011, Control_c, 0, 64, 80
2,128029, Control_c, 0, 64, 79
2,128049, Control_c, 0, 64, 76
2,128067, Control_c, 0, 64, 70
2,128087, Control_c, 0, 64, 62
2,128106, Control_c, 0, 64, 45
2,128125, Control_c, 0, 64, 31
2,128128, Note_on_c, 0, 58, 58
2,128131, Note_on_c, 0, 56, 0
2,128137, Note_on_c, 0, 77, 73
2,128160, Note_on_c, 0, 83, 0
2,128163, Control_c, 0, 64, 38
2,128183, Control_c, 0, 64, 56
2,128201, Control_c, 0, 64, 63
2,128221, Control_c, 0, 64, 65
2,128240, Control_c, 0, 64, 66
2,128260, Control_c, 0, 64, 68
2,128278, Control_c, 0, 64, 68
2,128298, Control_c, 0, 64, 69
2,128355, Control_c, 0, 64, 68
2,128375, Control_c, 0, 64, 68
2,128394, Control_c, 0, 64, 65
2,128413, Control_c, 0, 64, 58
2,128432, Control_c, 0, 64, 43
2,128452, Control_c, 0, 64, 31
2,128471, Control_c, 0, 64, 34
2,128490, Control_c, 0, 64, 49
2,128509, Control_c, 0, 64, 62
2,128529, Control_c, 0, 64, 68
2,128547, Control_c, 0, 64, 75
2,128551, Note_on_c, 0, 61, 51
2,128568, Control_c, 0, 64, 93
2,128587, Control_c, 0, 64, 127
2,128660, Note_on_c, 0, 61, 0
2,128718, Note_on_c, 0, 58, 0
2,128817, Control_c, 0, 64, 123
2,128836, Control_c, 0, 64, 108
2,128856, Control_c, 0, 64, 101
2,128875, Control_c, 0, 64, 96
2,128894, Control_c, 0, 64, 94
2,128910, Note_on_c, 0, 51, 46
2,128913, Control_c, 0, 64, 89
2,128933, Control_c, 0, 64, 79
2,128938, Note_on_c, 0, 79, 54
2,128943, Note_on_c, 0, 59, 29
2,128951, Control_c, 0, 64, 67
2,128971, Control_c, 0, 64, 48
2,128990, Control_c, 0, 64, 0
2,129259, Control_c, 0, 64, 47
2,129278, Control_c, 0, 64, 63
2,129297, Control_c, 0, 64, 65
2,129316, Control_c, 0, 64, 68
2,129326, Note_on_c, 0, 58, 46
2,129336, Control_c, 0, 64, 73
2,129339, Note_on_c, 0, 59, 0
2,129355, Control_c, 0, 64, 84
2,129370, Note_on_c, 0, 51, 0
2,129374, Control_c, 0, 64, 102
2,129393, Control_c, 0, 64, 127
2,129398, Note_on_c, 0, 58, 0
2,129662, Control_c, 0, 64, 95
2,129663, Note_on_c, 0, 77, 0
2,129681, Control_c, 0, 64, 74
2,129701, Control_c, 0, 64, 58
2,129719, Control_c, 0, 64, 17
2,129726, Note_on_c, 0, 56, 49
2,129739, Control_c, 0, 64, 0
2,129745, Note_on_c, 0, 80, 68
2,129754, Note_on_c, 0, 59, 32
2,129777, Control_c, 0, 64, 37
2,129796, Control_c, 0, 64, 60
2,129803, Note_on_c, 0, 79, 0
2,129816, Control_c, 0, 64, 68
2,129835, Control_c, 0, 64, 79
2,129854, Control_c, 0, 64, 99
2,129873, Control_c, 0, 64, 127
2,129969, Control_c, 0, 64, 114
2,129987, Control_c, 0, 64, 99
2,130006, Control_c, 0, 64, 96
2,130026, Control_c, 0, 64, 98
2,130045, Control_c, 0, 64, 101
2,130064, Control_c, 0, 64, 103
2,130083, Control_c, 0, 64, 104
2,130085, Note_on_c, 0, 59, 0
2,130103, Control_c, 0, 64, 104
2,130106, Note_on_c, 0, 58, 55
2,130121, Control_c, 0, 64, 106
2,130129, Note_on_c, 0, 78, 65
2,130141, Control_c, 0, 64, 107
2,130141, Note_on_c, 0, 56, 0
2,130151, Note_on_c, 0, 63, 40
2,130160, Control_c, 0, 64, 108
2,130170, Note_on_c, 0, 58, 0
2,130197, Note_on_c, 0, 63, 0
2,130405, Note_on_c, 0, 80, 0
2,130410, Control_c, 0, 64, 107
2,130429, Control_c, 0, 64, 106
2,130449, Control_c, 0, 64, 106
2,130467, Control_c, 0, 64, 104
2,130488, Control_c, 0, 64, 99
2,130507, Control_c, 0, 64, 92
2,130515, Note_on_c, 0, 59, 58
2,130526, Control_c, 0, 64, 77
2,130539, Note_on_c, 0, 68, 43
2,130545, Control_c, 0, 64, 66
2,130547, Note_on_c, 0, 77, 55
2,130556, Note_on_c, 0, 78, 0
2,130564, Control_c, 0, 64, 54
2,130584, Control_c, 0, 64, 37
2,130602, Control_c, 0, 64, 34
2,130622, Control_c, 0, 64, 36
2,130641, Control_c, 0, 64, 42
2,130661, Control_c, 0, 64, 45
2,130679, Control_c, 0, 64, 46
2,130699, Control_c, 0, 64, 46
2,130718, Control_c, 0, 64, 47
2,130737, Control_c, 0, 64, 49
2,130756, Control_c, 0, 64, 50
2,130776, Control_c, 0, 64, 51
2,130795, Control_c, 0, 64, 52
2,130814, Control_c, 0, 64, 54
2,130833, Control_c, 0, 64, 56
2,130853, Control_c, 0, 64, 58
2,130871, Control_c, 0, 64, 61
2,130891, Control_c, 0, 64, 63
2,130910, Control_c, 0, 64, 65
2,130930, Control_c, 0, 64, 67
2,130934, Note_on_c, 0, 75, 54
2,130948, Control_c, 0, 64, 71
2,130968, Control_c, 0, 64, 77
2,130973, Note_on_c, 0, 77, 0
2,130987, Control_c, 0, 64, 85
2,131006, Control_c, 0, 64, 92
2,131025, Control_c, 0, 64, 95
2,131044, Control_c, 0, 64, 96
2,131064, Control_c, 0, 64, 96
2,131082, Control_c, 0, 64, 97
2,131102, Control_c, 0, 64, 98
2,131121, Control_c, 0, 64, 99
2,131236, Control_c, 0, 64, 98
2,131236, Note_on_c, 0, 68, 0
2,131256, Control_c, 0, 64, 96
2,131275, Control_c, 0, 64, 93
2,131294, Control_c, 0, 64, 89
2,131313, Control_c, 0, 64, 84
2,131333, Control_c, 0, 64, 79
2,131342, Note_on_c, 0, 58, 52
2,131351, Control_c, 0, 64, 73
2,131364, Note_on_c, 0, 74, 54
2,131371, Control_c, 0, 64, 67
2,131390, Control_c, 0, 64, 63
2,131392, Note_on_c, 0, 59, 0
2,131410, Control_c, 0, 64, 60
2,131428, Control_c, 0, 64, 59
2,131470, Control_c, 0, 64, 58
2,131479, Note_on_c, 0, 75, 0
2,131565, Control_c, 0, 64, 58
2,131623, Control_c, 0, 64, 58
2,131662, Control_c, 0, 64, 59
2,131681, Control_c, 0, 64, 60
2,131700, Control_c, 0, 64, 62
2,131719, Control_c, 0, 64, 64
2,131739, Control_c, 0, 64, 65
2,131755, Note_on_c, 0, 66, 39
2,131757, Control_c, 0, 64, 67
2,131777, Control_c, 0, 64, 70
2,131796, Control_c, 0, 64, 75
2,131816, Control_c, 0, 64, 81
2,131834, Control_c, 0, 64, 86
2,131854, Control_c, 0, 64, 88
2,131985, Control_c, 0, 64, 87
2,132004, Control_c, 0, 64, 87
2,132024, Control_c, 0, 64, 84
2,132042, Control_c, 0, 64, 79
2,132062, Control_c, 0, 64, 72
2,132081, Control_c, 0, 64, 66
2,132100, Note_on_c, 0, 66, 0
2,132101, Control_c, 0, 64, 63
2,132119, Control_c, 0, 64, 62
2,132139, Control_c, 0, 64, 63
2,132141, Note_on_c, 0, 65, 47
2,132158, Control_c, 0, 64, 64
2,132164, Note_on_c, 0, 75, 50
2,132177, Control_c, 0, 64, 67
2,132196, Control_c, 0, 64, 69
2,132216, Control_c, 0, 64, 72
2,132235, Control_c, 0, 64, 74
2,132254, Control_c, 0, 64, 74
2,132273, Control_c, 0, 64, 74
2,132310, Note_on_c, 0, 74, 0
2,132311, Control_c, 0, 64, 73
2,132350, Control_c, 0, 64, 73
2,132388, Control_c, 0, 64, 72
2,132409, Control_c, 0, 64, 72
2,132428, Control_c, 0, 64, 69
2,132446, Control_c, 0, 64, 65
2,132466, Control_c, 0, 64, 62
2,132485, Control_c, 0, 64, 60
2,132505, Control_c, 0, 64, 60
2,132523, Control_c, 0, 64, 62
2,132532, Note_on_c, 0, 63, 51
2,132534, Note_on_c, 0, 65, 0
2,132543, Control_c, 0, 64, 64
2,132562, Control_c, 0, 64, 66
2,132581, Control_c, 0, 64, 68
2,132600, Control_c, 0, 64, 71
2,132620, Control_c, 0, 64, 73
2,132639, Control_c, 0, 64, 75
2,132677, Control_c, 0, 64, 74
2,132754, Control_c, 0, 64, 74
2,132774, Control_c, 0, 64, 73
2,132850, Control_c, 0, 64, 73
2,132868, Control_c, 0, 64, 72
2,132888, Control_c, 0, 64, 71
2,132907, Control_c, 0, 64, 70
2,132926, Control_c, 0, 64, 69
2,132934, Note_on_c, 0, 63, 0
2,132942, Note_on_c, 0, 65, 52
2,132945, Control_c, 0, 64, 67
2,132964, Control_c, 0, 64, 66
2,132984, Control_c, 0, 64, 65
2,133002, Control_c, 0, 64, 64
2,133022, Control_c, 0, 64, 63
2,133041, Control_c, 0, 64, 61
2,133061, Control_c, 0, 64, 59
2,133079, Control_c, 0, 64, 58
2,133099, Control_c, 0, 64, 56
2,133118, Control_c, 0, 64, 55
2,133137, Control_c, 0, 64, 54
2,133156, Control_c, 0, 64, 52
2,133176, Control_c, 0, 64, 51
2,133214, Control_c, 0, 64, 51
2,133253, Control_c, 0, 64, 51
2,133271, Control_c, 0, 64, 52
2,133291, Control_c, 0, 64, 54
2,133310, Control_c, 0, 64, 57
2,133321, Note_on_c, 0, 73, 46
2,133330, Control_c, 0, 64, 59
2,133348, Control_c, 0, 64, 60
2,133370, Control_c, 0, 64, 60
2,133389, Control_c, 0, 64, 61
2,133427, Control_c, 0, 64, 61
2,133542, Control_c, 0, 64, 61
2,133561, Control_c, 0, 64, 60
2,133581, Control_c, 0, 64, 59
2,133600, Control_c, 0, 64, 58
2,133611, Note_on_c, 0, 75, 0
2,133619, Control_c, 0, 64, 56
2,133638, Control_c, 0, 64, 55
2,133658, Control_c, 0, 64, 55
2,133676, Control_c, 0, 64, 56
2,133696, Control_c, 0, 64, 59
2,133715, Control_c, 0, 64, 62
2,133723, Note_on_c, 0, 73, 0
2,133724, Note_on_c, 0, 67, 40
2,133735, Control_c, 0, 64, 63
2,133750, Note_on_c, 0, 71, 48
2,133753, Control_c, 0, 64, 64
2,133767, Note_on_c, 0, 65, 0
2,133773, Control_c, 0, 64, 64
2,133790, Control_c, 0, 64, 65
2,133810, Control_c, 0, 64, 66
2,133828, Control_c, 0, 64, 66
2,133944, Control_c, 0, 64, 66
2,133982, Control_c, 0, 64, 65
2,134001, Control_c, 0, 64, 64
2,134021, Control_c, 0, 64, 62
2,134039, Control_c, 0, 64, 58
2,134059, Control_c, 0, 64, 49
2,134078, Control_c, 0, 64, 31
2,134096, Note_on_c, 0, 70, 53
2,134097, Control_c, 0, 64, 0
2,134136, Control_c, 0, 64, 9
2,134136, Control_c, 0, 67, 9
2,134152, Note_on_c, 0, 71, 0
2,134155, Control_c, 0, 64, 44
2,134155, Control_c, 0, 67, 15
2,134174, Control_c, 0, 64, 60
2,134174, Control_c, 0, 67, 20
2,134193, Control_c, 0, 64, 66
2,134193, Control_c, 0, 67, 24
2,134213, Control_c, 0, 64, 70
2,134213, Control_c, 0, 67, 26
2,134231, Control_c, 0, 64, 80
2,134231, Control_c, 0, 67, 26
2,134251, Control_c, 0, 64, 89
2,134270, Control_c, 0, 64, 92
2,134290, Control_c, 0, 67, 26
2,134327, Control_c, 0, 67, 25
2,134366, Control_c, 0, 64, 91
2,134385, Control_c, 0, 64, 91
2,134409, Note_on_c, 0, 70, 0
2,134462, Control_c, 0, 64, 90
2,134481, Control_c, 0, 64, 87
2,134501, Control_c, 0, 64, 78
2,134501, Note_on_c, 0, 71, 53
2,134511, Note_on_c, 0, 68, 50
2,134519, Control_c, 0, 64, 69
2,134519, Control_c, 0, 67, 25
2,134539, Control_c, 0, 64, 61
2,134541, Note_on_c, 0, 67, 0
2,134558, Control_c, 0, 64, 51
2,134558, Control_c, 0, 67, 24
2,134577, Control_c, 0, 64, 46
2,134596, Control_c, 0, 64, 47
2,134596, Control_c, 0, 67, 24
2,134616, Control_c, 0, 64, 50
2,134616, Control_c, 0, 67, 23
2,134635, Control_c, 0, 64, 57
2,134635, Control_c, 0, 67, 23
2,134654, Control_c, 0, 64, 61
2,134654, Control_c, 0, 67, 22
2,134673, Control_c, 0, 64, 63
2,134673, Control_c, 0, 67, 22
2,134693, Control_c, 0, 64, 64
2,134693, Control_c, 0, 67, 21
2,134711, Control_c, 0, 64, 65
2,134711, Control_c, 0, 67, 20
2,134731, Control_c, 0, 64, 66
2,134731, Control_c, 0, 67, 19
2,134750, Control_c, 0, 67, 18
2,134788, Control_c, 0, 67, 18
2,134846, Control_c, 0, 64, 65
2,134865, Control_c, 0, 64, 65
2,134884, Control_c, 0, 64, 64
2,134885, Note_on_c, 0, 58, 0
2,134899, Note_on_c, 0, 70, 51
2,134904, Control_c, 0, 67, 17
2,134908, Note_on_c, 0, 68, 0
2,134939, Note_on_c, 0, 66, 16
2,134942, Control_c, 0, 64, 64
2,134942, Control_c, 0, 67, 17
2,134961, Control_c, 0, 64, 65
2,134981, Control_c, 0, 64, 65
2,134981, Control_c, 0, 67, 16
2,134999, Control_c, 0, 64, 66
2,134999, Control_c, 0, 67, 16
2,135019, Control_c, 0, 64, 66
2,135038, Control_c, 0, 67, 15
2,135076, Control_c, 0, 64, 66
2,135096, Control_c, 0, 67, 14
2,135115, Control_c, 0, 67, 14
2,135134, Control_c, 0, 67, 13
2,135149, Note_on_c, 0, 71, 0
2,135153, Control_c, 0, 64, 66
2,135153, Control_c, 0, 67, 13
2,135173, Control_c, 0, 64, 67
2,135173, Control_c, 0, 67, 12
2,135191, Control_c, 0, 64, 68
2,135191, Control_c, 0, 67, 12
2,135211, Control_c, 0, 64, 72
2,135211, Control_c, 0, 67, 11
2,135230, Control_c, 0, 64, 77
2,135230, Control_c, 0, 67, 10
2,135250, Control_c, 0, 64, 84
2,135250, Control_c, 0, 67, 0
2,135268, Control_c, 0, 64, 90
2,135289, Control_c, 0, 64, 93
2,135324, Note_on_c, 0, 68, 55
2,135349, Note_on_c, 0, 66, 0
2,135354, Note_on_c, 0, 65, 31
2,135385, Control_c, 0, 64, 93
2,135386, Note_on_c, 0, 70, 0
2,135480, Control_c, 0, 64, 93
2,135519, Control_c, 0, 64, 92
2,135538, Control_c, 0, 64, 92
2,135548, Note_on_c, 0, 68, 0
2,135557, Control_c, 0, 64, 91
2,135576, Note_on_c, 0, 68, 30
2,135577, Control_c, 0, 64, 91
2,135634, Control_c, 0, 64, 90
2,135705, Note_on_c, 0, 65, 0
2,135732, Note_on_c, 0, 63, 56
2,135745, Control_c, 0, 64, 90
2,135763, Control_c, 0, 64, 89
2,135783, Control_c, 0, 64, 89
2,135898, Control_c, 0, 64, 88
2,135937, Control_c, 0, 64, 88
2,135975, Control_c, 0, 64, 87
2,135994, Control_c, 0, 64, 86
2,136014, Control_c, 0, 64, 86
2,136091, Control_c, 0, 64, 84
2,136109, Control_c, 0, 64, 80
2,136129, Control_c, 0, 64, 73
2,136139, Note_on_c, 0, 46, 79
2,136148, Control_c, 0, 64, 64
2,136149, Note_on_c, 0, 62, 47
2,136166, Control_c, 0, 64, 53
2,136175, Note_on_c, 0, 63, 0
2,136186, Control_c, 0, 64, 40
2,136205, Control_c, 0, 64, 35
2,136247, Control_c, 0, 64, 38
2,136267, Control_c, 0, 64, 41
2,136286, Control_c, 0, 64, 43
2,136305, Control_c, 0, 64, 46
2,136324, Control_c, 0, 64, 48
2,136344, Control_c, 0, 64, 50
2,136362, Control_c, 0, 64, 52
2,136382, Control_c, 0, 64, 54
2,136401, Control_c, 0, 64, 54
2,136459, Control_c, 0, 64, 55
2,136497, Control_c, 0, 64, 56
2,136516, Control_c, 0, 64, 57
2,136536, Control_c, 0, 64, 59
2,136555, Control_c, 0, 64, 62
2,136574, Control_c, 0, 64, 64
2,136592, Note_on_c, 0, 66, 53
2,136593, Control_c, 0, 64, 65
2,136613, Control_c, 0, 64, 68
2,136631, Control_c, 0, 64, 72
2,136635, Note_on_c, 0, 46, 0
2,136651, Control_c, 0, 64, 79
2,136669, Control_c, 0, 64, 86
2,136689, Control_c, 0, 64, 90
2,136707, Control_c, 0, 64, 90
2,136716, Note_on_c, 0, 62, 0
2,136723, Note_on_c, 0, 65, 64
2,136778, Note_on_c, 0, 68, 0
2,136796, Note_on_c, 0, 66, 0
2,136938, Control_c, 0, 64, 90
2,136957, Control_c, 0, 64, 89
2,136976, Control_c, 0, 64, 87
2,136978, Note_on_c, 0, 39, 86
2,136981, Note_on_c, 0, 65, 0
2,136995, Control_c, 0, 64, 85
2,137015, Control_c, 0, 64, 81
2,137021, Note_on_c, 0, 66, 52
2,137023, Note_on_c, 0, 63, 54
2,137034, Control_c, 0, 64, 75
2,137053, Control_c, 0, 64, 68
2,137072, Control_c, 0, 64, 63
2,137092, Control_c, 0, 64, 56
2,137111, Control_c, 0, 64, 53
2,137149, Control_c, 0, 64, 54
2,137169, Control_c, 0, 64, 54
2,137187, Control_c, 0, 64, 55
2,137207, Control_c, 0, 64, 56
2,137227, Control_c, 0, 64, 56
2,137246, Control_c, 0, 64, 57
2,137284, Control_c, 0, 64, 57
2,137399, Control_c, 0, 64, 58
2,137419, Control_c, 0, 64, 59
2,137438, Control_c, 0, 64, 61
2,137457, Control_c, 0, 64, 63
2,137471, Note_on_c, 0, 65, 52
2,137471, Note_on_c, 0, 68, 65
2,137476, Control_c, 0, 64, 64
2,137496, Control_c, 0, 64, 65
2,137515, Control_c, 0, 64, 66
2,137526, Note_on_c, 0, 66, 0
2,137534, Control_c, 0, 64, 66
2,137553, Control_c, 0, 64, 67
2,137573, Control_c, 0, 64, 68
2,137591, Control_c, 0, 64, 68
2,137611, Note_on_c, 0, 63, 0
2,137630, Control_c, 0, 64, 69
2,137668, Control_c, 0, 64, 68
2,137764, Control_c, 0, 64, 68
2,137784, Control_c, 0, 64, 66
2,137802, Control_c, 0, 64, 63
2,137822, Control_c, 0, 64, 59
2,137841, Control_c, 0, 64, 56
2,137841, Note_on_c, 0, 70, 83
2,137851, Note_on_c, 0, 68, 0
2,137862, Note_on_c, 0, 66, 64
2,137879, Control_c, 0, 64, 58
2,137899, Control_c, 0, 64, 61
2,137909, Note_on_c, 0, 65, 0
2,137918, Control_c, 0, 64, 63
2,137937, Control_c, 0, 64, 65
2,137956, Control_c, 0, 64, 67
2,137976, Control_c, 0, 64, 69
2,137995, Control_c, 0, 64, 70
2,138014, Control_c, 0, 64, 71
2,138033, Control_c, 0, 64, 72
2,138091, Control_c, 0, 64, 71
2,138110, Control_c, 0, 64, 69
2,138130, Control_c, 0, 64, 65
2,138148, Control_c, 0, 64, 62
2,138166, Control_c, 0, 64, 59
2,138169, Note_on_c, 0, 39, 0
2,138186, Control_c, 0, 64, 59
2,138205, Control_c, 0, 64, 61
2,138224, Control_c, 0, 64, 64
2,138227, Note_on_c, 0, 38, 79
2,138232, Note_on_c, 0, 65, 58
2,138243, Control_c, 0, 64, 66
2,138263, Control_c, 0, 64, 69
2,138281, Control_c, 0, 64, 73
2,138301, Control_c, 0, 64, 78
2,138320, Control_c, 0, 64, 83
2,138340, Control_c, 0, 64, 86
2,138342, Note_on_c, 0, 66, 0
2,138358, Control_c, 0, 64, 87
2,138397, Control_c, 0, 64, 87
2,138474, Control_c, 0, 64, 86
2,138493, Control_c, 0, 64, 86
2,138532, Control_c, 0, 64, 85
2,138551, Control_c, 0, 64, 82
2,138570, Control_c, 0, 64, 75
2,138585, Note_on_c, 0, 38, 0
2,138589, Control_c, 0, 64, 66
2,138604, Note_on_c, 0, 39, 68
2,138609, Control_c, 0, 64, 57
2,138622, Note_on_c, 0, 63, 81
2,138627, Control_c, 0, 64, 31
2,138627, Note_on_c, 0, 66, 52
2,138638, Note_on_c, 0, 65, 0
2,138646, Control_c, 0, 64, 0
2,138651, Note_on_c, 0, 70, 0
2,138973, Control_c, 0, 64, 25
2,138985, Note_on_c, 0, 41, 68
2,138992, Control_c, 0, 64, 45
2,139010, Note_on_c, 0, 68, 58
2,139012, Control_c, 0, 64, 56
2,139031, Control_c, 0, 64, 60
2,139050, Control_c, 0, 64, 62
2,139069, Control_c, 0, 64, 63
2,139082, Note_on_c, 0, 39, 0
2,139088, Control_c, 0, 64, 64
2,139130, Control_c, 0, 64, 65
2,139157, Note_on_c, 0, 66, 0
2,139226, Control_c, 0, 64, 64
2,139302, Control_c, 0, 64, 64
2,139321, Control_c, 0, 64, 63
2,139341, Control_c, 0, 64, 62
2,139360, Control_c, 0, 64, 59
2,139379, Control_c, 0, 64, 52
2,139398, Control_c, 0, 64, 33
2,139398, Note_on_c, 0, 70, 61
2,139407, Note_on_c, 0, 42, 69
2,139412, Note_on_c, 0, 68, 0
2,139418, Control_c, 0, 64, 0
2,139433, Note_on_c, 0, 41, 0
2,139513, Control_c, 0, 64, 48
2,139533, Control_c, 0, 64, 59
2,139550, Control_c, 0, 64, 61
2,139570, Control_c, 0, 64, 62
2,139588, Control_c, 0, 64, 63
2,139607, Control_c, 0, 64, 64
2,139646, Control_c, 0, 64, 64
2,139684, Control_c, 0, 64, 64
2,139684, Note_on_c, 0, 63, 0
2,139704, Control_c, 0, 64, 63
2,139722, Control_c, 0, 64, 62
2,139742, Control_c, 0, 64, 57
2,139761, Control_c, 0, 64, 49
2,139768, Note_on_c, 0, 41, 65
2,139781, Control_c, 0, 64, 38
2,139781, Note_on_c, 0, 62, 58
2,139799, Control_c, 0, 64, 29
2,139811, Note_on_c, 0, 68, 60
2,139819, Control_c, 0, 64, 30
2,139830, Note_on_c, 0, 42, 0
2,139838, Control_c, 0, 64, 44
2,139857, Control_c, 0, 64, 56
2,139876, Control_c, 0, 64, 62
2,139896, Control_c, 0, 64, 64
2,139915, Control_c, 0, 64, 66
2,139934, Control_c, 0, 64, 68
2,139953, Control_c, 0, 64, 70
2,139973, Control_c, 0, 64, 71
2,139991, Control_c, 0, 64, 71
2,140088, Control_c, 0, 64, 71
2,140126, Control_c, 0, 64, 70
2,140146, Control_c, 0, 64, 68
2,140159, Note_on_c, 0, 41, 0
2,140162, Note_on_c, 0, 66, 56
2,140165, Control_c, 0, 64, 64
2,140174, Note_on_c, 0, 39, 54
2,140185, Control_c, 0, 64, 51
2,140190, Note_on_c, 0, 63, 54
2,140203, Control_c, 0, 64, 0
2,140301, Note_on_c, 0, 70, 0
2,140319, Control_c, 0, 64, 20
2,140338, Control_c, 0, 64, 59
2,140357, Control_c, 0, 64, 66
2,140377, Control_c, 0, 64, 71
2,140396, Control_c, 0, 64, 77
2,140399, Note_on_c, 0, 63, 0
2,140415, Control_c, 0, 64, 81
2,140434, Control_c, 0, 64, 76
2,140454, Control_c, 0, 64, 67
2,140472, Control_c, 0, 64, 58
2,140492, Control_c, 0, 64, 47
2,140509, Control_c, 0, 64, 50
2,140517, Note_on_c, 0, 62, 0
2,140525, Note_on_c, 0, 68, 0
2,140528, Control_c, 0, 64, 56
2,140547, Control_c, 0, 64, 61
2,140565, Note_on_c, 0, 65, 58
2,140566, Control_c, 0, 64, 65
2,140586, Control_c, 0, 64, 67
2,140605, Control_c, 0, 64, 69
2,140624, Control_c, 0, 64, 71
2,140633, Note_on_c, 0, 66, 0
2,140643, Control_c, 0, 64, 72
2,140720, Note_on_c, 0, 63, 63
2,140781, Control_c, 0, 64, 73
2,140800, Control_c, 0, 64, 73
2,140804, Note_on_c, 0, 65, 0
2,140822, Note_on_c, 0, 63, 0
2,140857, Control_c, 0, 64, 73
2,140877, Control_c, 0, 64, 72
2,140895, Control_c, 0, 64, 72
2,140915, Control_c, 0, 64, 70
2,140919, Note_on_c, 0, 46, 50
2,140928, Note_on_c, 0, 66, 56
2,140934, Control_c, 0, 64, 69
2,140950, Note_on_c, 0, 62, 48
2,140954, Control_c, 0, 64, 66
2,140972, Control_c, 0, 64, 62
2,140992, Control_c, 0, 64, 55
2,141011, Control_c, 0, 64, 41
2,141026, Note_on_c, 0, 39, 0
2,141030, Control_c, 0, 64, 15
2,141049, Control_c, 0, 64, 0
2,141049, Control_c, 0, 67, 8
2,141069, Control_c, 0, 67, 18
2,141088, Control_c, 0, 67, 34
2,141107, Control_c, 0, 67, 54
2,141126, Control_c, 0, 67, 72
2,141146, Control_c, 0, 67, 90
2,141164, Control_c, 0, 67, 105
2,141184, Control_c, 0, 67, 117
2,141203, Control_c, 0, 67, 125
2,141223, Control_c, 0, 67, 127
2,141241, Control_c, 0, 64, 35
2,141261, Control_c, 0, 64, 56
2,141261, Control_c, 0, 67, 127
2,141280, Control_c, 0, 64, 63
2,141280, Control_c, 0, 67, 126
2,141299, Control_c, 0, 64, 65
2,141299, Control_c, 0, 67, 125
2,141310, Note_on_c, 0, 62, 0
2,141318, Control_c, 0, 64, 67
2,141318, Control_c, 0, 67, 125
2,141329, Note_on_c, 0, 68, 58
2,141337, Control_c, 0, 64, 70
2,141337, Control_c, 0, 67, 124
2,141338, Note_on_c, 0, 65, 42
2,141357, Control_c, 0, 64, 75
2,141357, Control_c, 0, 67, 123
2,141375, Control_c, 0, 64, 79
2,141375, Control_c, 0, 67, 123
2,141395, Control_c, 0, 64, 81
2,141395, Control_c, 0, 67, 122
2,141414, Control_c, 0, 64, 81
2,141414, Control_c, 0, 67, 121
2,141434, Control_c, 0, 67, 121
2,141435, Note_on_c, 0, 66, 0
2,141452, Control_c, 0, 67, 120
2,141472, Control_c, 0, 67, 120
2,141491, Control_c, 0, 64, 81
2,141491, Control_c, 0, 67, 119
2,141510, Control_c, 0, 67, 119
2,141529, Control_c, 0, 64, 80
2,141529, Control_c, 0, 67, 118
2,141587, Control_c, 0, 64, 79
2,141606, Control_c, 0, 64, 78
2,141606, Control_c, 0, 67, 118
2,141626, Control_c, 0, 64, 76
2,141644, Control_c, 0, 64, 73
2,141644, Control_c, 0, 67, 117
2,141664, Control_c, 0, 64, 67
2,141664, Control_c, 0, 67, 116
2,141683, Control_c, 0, 64, 61
2,141683, Control_c, 0, 67, 116
2,141703, Control_c, 0, 64, 45
2,141703, Control_c, 0, 67, 115
2,141720, Note_on_c, 0, 39, 53
2,141721, Control_c, 0, 64, 11
2,141721, Control_c, 0, 67, 115
2,141741, Control_c, 0, 64, 0
2,141758, Note_on_c, 0, 63, 51
2,141760, Control_c, 0, 67, 114
2,141769, Note_on_c, 0, 65, 0
2,141798, Control_c, 0, 67, 114
2,141817, Control_c, 0, 64, 15
2,141837, Control_c, 0, 64, 29
2,141843, Note_on_c, 0, 46, 0
2,141855, Control_c, 0, 64, 39
2,141855, Control_c, 0, 67, 113
2,141875, Control_c, 0, 64, 46
2,141875, Control_c, 0, 67, 113
2,141894, Control_c, 0, 64, 50
2,141914, Control_c, 0, 64, 53
2,141914, Control_c, 0, 67, 112
2,141932, Control_c, 0, 64, 55
2,141932, Control_c, 0, 67, 110
2,141952, Control_c, 0, 64, 57
2,141952, Control_c, 0, 67, 108
2,141971, Control_c, 0, 64, 59
2,141971, Control_c, 0, 67, 106
2,141990, Control_c, 0, 64, 60
2,141990, Control_c, 0, 67, 105
2,142010, Control_c, 0, 64, 62
2,142010, Control_c, 0, 67, 104
2,142030, Control_c, 0, 64, 63
2,142030, Control_c, 0, 67, 103
2,142049, Control_c, 0, 64, 63
2,142049, Control_c, 0, 67, 103
2,142068, Control_c, 0, 64, 65
2,142068, Control_c, 0, 67, 101
2,142087, Control_c, 0, 64, 66
2,142087, Control_c, 0, 67, 100
2,142107, Control_c, 0, 64, 66
2,142107, Control_c, 0, 67, 99
2,142125, Control_c, 0, 64, 67
2,142125, Control_c, 0, 67, 97
2,142130, Note_on_c, 0, 66, 34
2,142135, Note_on_c, 0, 68, 0
2,142145, Control_c, 0, 64, 68
2,142145, Control_c, 0, 67, 96
2,142164, Control_c, 0, 64, 69
2,142164, Control_c, 0, 67, 95
2,142184, Control_c, 0, 64, 70
2,142184, Control_c, 0, 67, 94
2,142199, Note_on_c, 0, 63, 0
2,142241, Control_c, 0, 64, 70
2,142287, Note_on_c, 0, 65, 34
2,142298, Control_c, 0, 67, 94
2,142304, Note_on_c, 0, 66, 0
2,142369, Note_on_c, 0, 65, 0
2,142449, Control_c, 0, 64, 69
2,142469, Control_c, 0, 64, 66
2,142487, Control_c, 0, 64, 60
2,142493, Note_on_c, 0, 70, 65
2,142507, Control_c, 0, 64, 53
2,142507, Control_c, 0, 67, 93
2,142511, Note_on_c, 0, 67, 52
2,142526, Control_c, 0, 64, 44
2,142526, Control_c, 0, 67, 92
2,142545, Control_c, 0, 64, 41
2,142545, Control_c, 0, 67, 87
2,142564, Control_c, 0, 64, 46
2,142564, Control_c, 0, 67, 80
2,142584, Control_c, 0, 64, 54
2,142584, Control_c, 0, 67, 72
2,142603, Control_c, 0, 64, 59
2,142603, Control_c, 0, 67, 59
2,142622, Control_c, 0, 64, 62
2,142622, Control_c, 0, 67, 44
2,142641, Control_c, 0, 64, 64
2,142641, Control_c, 0, 67, 28
2,142660, Control_c, 0, 64, 65
2,142660, Control_c, 0, 67, 14
2,142679, Control_c, 0, 64, 65
2,142679, Control_c, 0, 67, 0
2,142698, Control_c, 0, 64, 66
2,142737, Control_c, 0, 64, 66
2,142775, Control_c, 0, 64, 67
2,142833, Control_c, 0, 64, 67
2,142851, Note_on_c, 0, 41, 63
2,142852, Control_c, 0, 64, 68
2,142865, Note_on_c, 0, 39, 0
2,142872, Control_c, 0, 64, 69
2,142890, Control_c, 0, 64, 70
2,142892, Note_on_c, 0, 68, 60
2,142902, Note_on_c, 0, 70, 0
2,142989, Control_c, 0, 64, 70
2,143008, Control_c, 0, 64, 71
2,143087, Note_on_c, 0, 41, 0
2,143123, Control_c, 0, 64, 70
2,143143, Control_c, 0, 64, 70
2,143180, Control_c, 0, 64, 69
2,143271, Note_on_c, 0, 43, 68
2,143315, Control_c, 0, 64, 69
2,143328, Note_on_c, 0, 70, 56
2,143334, Control_c, 0, 64, 68
2,143354, Control_c, 0, 64, 67
2,143354, Note_on_c, 0, 67, 0
2,143355, Note_on_c, 0, 63, 39
2,143372, Control_c, 0, 64, 64
2,143383, Note_on_c, 0, 68, 0
2,143392, Control_c, 0, 64, 61
2,143411, Control_c, 0, 64, 57
2,143430, Control_c, 0, 64, 55
2,143469, Control_c, 0, 64, 56
2,143488, Control_c, 0, 64, 59
2,143507, Control_c, 0, 64, 62
2,143526, Control_c, 0, 64, 64
2,143546, Control_c, 0, 64, 65
2,143564, Control_c, 0, 64, 67
2,143584, Control_c, 0, 64, 69
2,143603, Control_c, 0, 64, 71
2,143623, Control_c, 0, 64, 75
2,143641, Control_c, 0, 64, 79
2,143660, Control_c, 0, 64, 84
2,143680, Control_c, 0, 64, 89
2,143684, Note_on_c, 0, 61, 57
2,143699, Control_c, 0, 64, 94
2,143718, Control_c, 0, 64, 98
2,143737, Control_c, 0, 64, 100
2,143759, Note_on_c, 0, 43, 0
2,143759, Note_on_c, 0, 70, 0
2,143790, Note_on_c, 0, 63, 0
2,143827, Note_on_c, 0, 61, 0
2,143910, Control_c, 0, 64, 99
2,143930, Control_c, 0, 64, 99
2,143969, Control_c, 0, 64, 98
2,143988, Control_c, 0, 64, 97
2,144007, Control_c, 0, 64, 96
2,144027, Control_c, 0, 64, 94
2,144045, Control_c, 0, 64, 93
2,144065, Control_c, 0, 64, 90
2,144072, Note_on_c, 0, 44, 67
2,144084, Control_c, 0, 64, 86
2,144096, Note_on_c, 0, 63, 48
2,144104, Control_c, 0, 64, 79
2,144111, Note_on_c, 0, 59, 47
2,144122, Control_c, 0, 64, 71
2,144142, Control_c, 0, 64, 64
2,144161, Control_c, 0, 64, 59
2,144179, Control_c, 0, 64, 57
2,144256, Control_c, 0, 64, 57
2,144276, Control_c, 0, 64, 58
2,144314, Control_c, 0, 64, 58
2,144333, Control_c, 0, 64, 59
2,144351, Control_c, 0, 64, 60
2,144370, Control_c, 0, 64, 60
2,144389, Control_c, 0, 64, 61
2,144408, Control_c, 0, 64, 62
2,144428, Control_c, 0, 64, 64
2,144447, Control_c, 0, 64, 65
2,144466, Control_c, 0, 64, 66
2,144485, Control_c, 0, 64, 68
2,144499, Note_on_c, 0, 61, 50
2,144505, Control_c, 0, 64, 71
2,144510, Note_on_c, 0, 64, 51
2,144524, Control_c, 0, 64, 74
2,144543, Control_c, 0, 64, 76
2,144562, Control_c, 0, 64, 78
2,144571, Note_on_c, 0, 63, 0
2,144584, Note_on_c, 0, 59, 0
2,144716, Control_c, 0, 64, 77
2,144734, Control_c, 0, 64, 77
2,144754, Control_c, 0, 64, 76
2,144773, Control_c, 0, 64, 76
2,144787, Note_on_c, 0, 61, 0
2,144793, Control_c, 0, 64, 75
2,144811, Control_c, 0, 64, 74
2,144831, Control_c, 0, 64, 72
2,144850, Control_c, 0, 64, 69
2,144860, Note_on_c, 0, 44, 0
2,144868, Note_on_c, 0, 46, 53
2,144869, Control_c, 0, 64, 64
2,144870, Note_on_c, 0, 63, 62
2,144870, Note_on_c, 0, 67, 53
2,144890, Control_c, 0, 64, 59
2,144892, Note_on_c, 0, 64, 0
2,144910, Control_c, 0, 64, 50
2,144929, Control_c, 0, 64, 42
2,144948, Control_c, 0, 64, 37
2,144987, Control_c, 0, 64, 44
2,145005, Control_c, 0, 64, 55
2,145025, Control_c, 0, 64, 61
2,145044, Control_c, 0, 64, 64
2,145064, Control_c, 0, 64, 65
2,145082, Control_c, 0, 64, 68
2,145102, Control_c, 0, 64, 72
2,145121, Control_c, 0, 64, 77
2,145139, Control_c, 0, 64, 84
2,145159, Control_c, 0, 64, 90
2,145178, Control_c, 0, 64, 93
2,145198, Control_c, 0, 64, 94
2,145216, Control_c, 0, 64, 95
2,145255, Control_c, 0, 64, 95
2,145267, Note_on_c, 0, 64, 61
2,145292, Note_on_c, 0, 67, 0
2,145307, Note_on_c, 0, 63, 0
2,145311, Note_on_c, 0, 64, 0
2,145313, Note_on_c, 0, 46, 0
2,145350, Control_c, 0, 64, 95
2,145389, Control_c, 0, 64, 94
2,145446, Control_c, 0, 64, 93
2,145504, Control_c, 0, 64, 93
2,145543, Control_c, 0, 64, 92
2,145561, Control_c, 0, 64, 91
2,145580, Control_c, 0, 64, 90
2,145600, Control_c, 0, 64, 88
2,145619, Control_c, 0, 64, 85
2,145638, Control_c, 0, 64, 79
2,145638, Note_on_c, 0, 47, 55
2,145657, Control_c, 0, 64, 69
2,145675, Note_on_c, 0, 63, 79
2,145677, Control_c, 0, 64, 60
2,145695, Control_c, 0, 64, 36
2,145709, Note_on_c, 0, 68, 58
2,145715, Control_c, 0, 64, 0
2,145792, Control_c, 0, 64, 27
2,145811, Control_c, 0, 64, 49
2,145830, Control_c, 0, 64, 59
2,145849, Control_c, 0, 64, 62
2,145869, Control_c, 0, 64, 64
2,145888, Control_c, 0, 64, 65
2,145907, Control_c, 0, 64, 67
2,145926, Control_c, 0, 64, 71
2,145946, Control_c, 0, 64, 77
2,145964, Control_c, 0, 64, 84
2,145984, Control_c, 0, 64, 91
2,146003, Control_c, 0, 64, 95
2,146023, Control_c, 0, 64, 97
2,146041, Control_c, 0, 64, 99
2,146060, Control_c, 0, 64, 102
2,146062, Note_on_c, 0, 63, 0
2,146066, Note_on_c, 0, 68, 0
2,146080, Control_c, 0, 64, 106
2,146087, Note_on_c, 0, 49, 67
2,146099, Control_c, 0, 64, 113
2,146118, Control_c, 0, 64, 127
2,146185, Note_on_c, 0, 47, 0
2,146405, Control_c, 0, 64, 118
2,146425, Control_c, 0, 64, 113
2,146444, Control_c, 0, 64, 112
2,146482, Control_c, 0, 64, 110
2,146484, Note_on_c, 0, 49, 0
2,146498, Note_on_c, 0, 56, 55
2,146502, Control_c, 0, 64, 107
2,146508, Note_on_c, 0, 47, 45
2,146520, Control_c, 0, 64, 102
2,146539, Control_c, 0, 64, 97
2,146559, Control_c, 0, 64, 88
2,146563, Note_on_c, 0, 80, 90
2,146578, Control_c, 0, 64, 76
2,146597, Control_c, 0, 64, 65
2,146616, Control_c, 0, 64, 45
2,146636, Control_c, 0, 64, 18
2,146654, Control_c, 0, 64, 21
2,146674, Control_c, 0, 64, 37
2,146693, Control_c, 0, 64, 52
2,146713, Control_c, 0, 64, 60
2,146731, Control_c, 0, 64, 63
2,146751, Control_c, 0, 64, 64
2,146770, Control_c, 0, 64, 66
2,146789, Control_c, 0, 64, 67
2,146810, Control_c, 0, 64, 68
2,146827, Control_c, 0, 64, 69
2,146846, Control_c, 0, 64, 71
2,146865, Control_c, 0, 64, 74
2,146884, Control_c, 0, 64, 79
2,146904, Control_c, 0, 64, 82
2,146922, Control_c, 0, 64, 85
2,146922, Note_on_c, 0, 46, 52
2,146935, Note_on_c, 0, 47, 0
2,146942, Control_c, 0, 64, 88
2,146961, Control_c, 0, 64, 91
2,146981, Control_c, 0, 64, 93
2,146999, Control_c, 0, 64, 95
2,147019, Control_c, 0, 64, 95
2,147052, Note_on_c, 0, 46, 0
2,147057, Control_c, 0, 64, 96
2,147134, Control_c, 0, 64, 95
2,147153, Control_c, 0, 64, 93
2,147170, Control_c, 0, 64, 91
2,147188, Control_c, 0, 64, 90
2,147208, Control_c, 0, 64, 89
2,147226, Control_c, 0, 64, 88
2,147246, Control_c, 0, 64, 88
2,147254, Note_on_c, 0, 56, 0
2,147264, Control_c, 0, 64, 86
2,147284, Control_c, 0, 64, 85
2,147303, Control_c, 0, 64, 84
2,147323, Control_c, 0, 64, 83
2,147337, Note_on_c, 0, 44, 45
2,147341, Control_c, 0, 64, 82
2,147361, Control_c, 0, 64, 80
2,147380, Control_c, 0, 64, 74
2,147396, Note_on_c, 0, 75, 82
2,147398, Control_c, 0, 64, 65
2,147418, Control_c, 0, 64, 49
2,147437, Control_c, 0, 64, 0
2,147485, Note_on_c, 0, 80, 0
2,147744, Control_c, 0, 64, 27
2,147765, Control_c, 0, 64, 49
2,147784, Control_c, 0, 64, 59
2,147804, Control_c, 0, 64, 62
2,147818, Note_on_c, 0, 55, 52
2,147822, Control_c, 0, 64, 64
2,147842, Control_c, 0, 64, 66
2,147858, Note_on_c, 0, 46, 39
2,147861, Control_c, 0, 64, 68
2,147880, Control_c, 0, 64, 72
2,147899, Control_c, 0, 64, 75
2,147918, Control_c, 0, 64, 78
2,147964, Note_on_c, 0, 55, 0
2,148091, Control_c, 0, 64, 77
2,148106, Note_on_c, 0, 44, 0
2,148109, Note_on_c, 0, 46, 0
2,148130, Control_c, 0, 64, 75
2,148148, Control_c, 0, 64, 68
2,148168, Control_c, 0, 64, 45
2,148174, Note_on_c, 0, 56, 70
2,148177, Note_on_c, 0, 47, 57
2,148185, Control_c, 0, 64, 0
2,148262, Control_c, 0, 64, 9
2,148270, Note_on_c, 0, 47, 0
2,148282, Control_c, 0, 64, 65
2,148300, Control_c, 0, 64, 72
2,148320, Control_c, 0, 64, 78
2,148339, Control_c, 0, 64, 79
2,148355, Note_on_c, 0, 56, 0
2,148358, Control_c, 0, 64, 79
2,148377, Control_c, 0, 64, 80
2,148396, Control_c, 0, 64, 79
2,148416, Control_c, 0, 64, 77
2,148434, Control_c, 0, 64, 76
2,148493, Control_c, 0, 64, 74
2,148511, Control_c, 0, 64, 67
2,148530, Note_on_c, 0, 58, 65
2,148531, Control_c, 0, 64, 22
2,148550, Control_c, 0, 64, 0
2,148553, Note_on_c, 0, 73, 81
2,148560, Note_on_c, 0, 52, 52
2,148641, Note_on_c, 0, 75, 0
2,148646, Control_c, 0, 64, 61
2,148665, Control_c, 0, 64, 67
2,148673, Note_on_c, 0, 52, 0
2,148685, Control_c, 0, 64, 69
2,148701, Note_on_c, 0, 49, 64
2,148703, Control_c, 0, 64, 70
2,148725, Control_c, 0, 64, 71
2,148764, Control_c, 0, 64, 71
2,148782, Control_c, 0, 64, 72
2,148802, Control_c, 0, 64, 73
2,148810, Note_on_c, 0, 58, 0
2,148821, Control_c, 0, 64, 74
2,148840, Control_c, 0, 64, 75
2,148859, Control_c, 0, 64, 76
2,148878, Control_c, 0, 64, 78
2,148898, Control_c, 0, 64, 79
2,148916, Control_c, 0, 64, 79
2,148927, Note_on_c, 0, 49, 0
2,148935, Note_on_c, 0, 59, 70
2,148936, Control_c, 0, 64, 77
2,148936, Note_on_c, 0, 56, 59
2,148946, Note_on_c, 0, 75, 82
2,148955, Control_c, 0, 64, 70
2,148974, Control_c, 0, 64, 58
2,148993, Control_c, 0, 64, 0
2,149090, Control_c, 0, 64, 52
2,149108, Control_c, 0, 64, 66
2,149109, Note_on_c, 0, 73, 0
2,149128, Control_c, 0, 64, 71
2,149130, Note_on_c, 0, 59, 0
2,149146, Control_c, 0, 64, 79
2,149166, Control_c, 0, 64, 89
2,149184, Control_c, 0, 64, 99
2,149204, Control_c, 0, 64, 105
2,149223, Control_c, 0, 64, 110
2,149243, Control_c, 0, 64, 113
2,149261, Control_c, 0, 64, 114
2,149300, Control_c, 0, 64, 106
2,149318, Control_c, 0, 64, 88
2,149330, Note_on_c, 0, 58, 74
2,149338, Control_c, 0, 64, 72
2,149357, Control_c, 0, 64, 63
2,149377, Control_c, 0, 64, 63
2,149395, Control_c, 0, 64, 65
2,149415, Control_c, 0, 64, 67
2,149434, Control_c, 0, 64, 70
2,149451, Note_on_c, 0, 56, 0
2,149454, Control_c, 0, 64, 73
2,149472, Control_c, 0, 64, 77
2,149484, Note_on_c, 0, 58, 0
2,149492, Control_c, 0, 64, 80
2,149511, Control_c, 0, 64, 82
2,149530, Control_c, 0, 64, 83
2,149549, Control_c, 0, 64, 84
2,149569, Control_c, 0, 64, 85
2,149588, Control_c, 0, 64, 85
2,149626, Control_c, 0, 64, 85
2,149646, Control_c, 0, 64, 84
2,149664, Control_c, 0, 64, 84
2,149685, Control_c, 0, 64, 82
2,149704, Control_c, 0, 64, 75
2,149715, Note_on_c, 0, 56, 71
2,149724, Control_c, 0, 64, 64
2,149742, Control_c, 0, 64, 0
2,149756, Note_on_c, 0, 47, 49
2,149858, Control_c, 0, 64, 60
2,149876, Control_c, 0, 64, 66
2,149896, Control_c, 0, 64, 69
2,149915, Control_c, 0, 64, 71
2,149934, Control_c, 0, 64, 74
2,149953, Control_c, 0, 64, 76
2,149973, Control_c, 0, 64, 77
2,149992, Control_c, 0, 64, 77
2,150011, Control_c, 0, 64, 79
2,150030, Control_c, 0, 64, 82
2,150049, Note_on_c, 0, 47, 0
2,150050, Control_c, 0, 64, 85
2,150068, Control_c, 0, 64, 86
2,150081, Note_on_c, 0, 49, 66
2,150084, Note_on_c, 0, 77, 72
2,150088, Control_c, 0, 64, 88
2,150106, Control_c, 0, 64, 93
2,150126, Control_c, 0, 64, 101
2,150144, Control_c, 0, 64, 127
2,150155, Note_on_c, 0, 56, 0
2,150158, Note_on_c, 0, 49, 0
2,150187, Note_on_c, 0, 75, 0
2,150452, Control_c, 0, 64, 104
2,150468, Note_on_c, 0, 63, 61
2,150471, Control_c, 0, 64, 78
2,150489, Note_on_c, 0, 51, 46
2,150490, Control_c, 0, 64, 64
2,150509, Control_c, 0, 64, 0
2,150556, Note_on_c, 0, 78, 83
2,150606, Control_c, 0, 64, 15
2,150610, Note_on_c, 0, 77, 0
2,150624, Control_c, 0, 64, 59
2,150646, Control_c, 0, 64, 66
2,150665, Control_c, 0, 64, 71
2,150684, Control_c, 0, 64, 77
2,150703, Control_c, 0, 64, 86
2,150723, Control_c, 0, 64, 94
2,150742, Control_c, 0, 64, 98
2,150780, Control_c, 0, 64, 96
2,150800, Control_c, 0, 64, 85
2,150819, Control_c, 0, 64, 67
2,150837, Control_c, 0, 64, 11
2,150857, Control_c, 0, 64, 0
2,150906, Note_on_c, 0, 50, 56
2,150914, Control_c, 0, 64, 44
2,150934, Control_c, 0, 64, 63
2,150953, Control_c, 0, 64, 67
2,150972, Control_c, 0, 64, 69
2,150991, Control_c, 0, 64, 73
2,150998, Note_on_c, 0, 63, 0
2,151009, Note_on_c, 0, 51, 0
2,151011, Control_c, 0, 64, 77
2,151029, Control_c, 0, 64, 79
2,151049, Control_c, 0, 64, 79
2,151052, Note_on_c, 0, 50, 0
2,151066, Control_c, 0, 64, 79
2,151104, Control_c, 0, 64, 78
2,151220, Control_c, 0, 64, 78
2,151238, Control_c, 0, 64, 75
2,151258, Control_c, 0, 64, 67
2,151273, Note_on_c, 0, 58, 63
2,151277, Control_c, 0, 64, 53
2,151294, Note_on_c, 0, 51, 54
2,151297, Control_c, 0, 64, 0
2,151354, Control_c, 0, 64, 22
2,151374, Control_c, 0, 64, 57
2,151392, Control_c, 0, 64, 65
2,151412, Control_c, 0, 64, 67
2,151431, Control_c, 0, 64, 71
2,151450, Control_c, 0, 64, 75
2,151469, Control_c, 0, 64, 79
2,151489, Control_c, 0, 64, 83
2,151604, Control_c, 0, 64, 82
2,151623, Control_c, 0, 64, 78
2,151643, Control_c, 0, 64, 70
2,151659, Note_on_c, 0, 51, 0
2,151661, Control_c, 0, 64, 60
2,151663, Note_on_c, 0, 53, 44
2,151675, Note_on_c, 0, 77, 54
2,151681, Control_c, 0, 64, 36
2,151700, Control_c, 0, 64, 24
2,151718, Control_c, 0, 64, 44
2,151738, Control_c, 0, 64, 59
2,151757, Control_c, 0, 64, 64
2,151777, Control_c, 0, 64, 67
2,151795, Control_c, 0, 64, 69
2,151811, Note_on_c, 0, 78, 0
2,151815, Control_c, 0, 64, 70
2,151834, Control_c, 0, 64, 71
2,151892, Control_c, 0, 64, 70
2,151911, Control_c, 0, 64, 70
2,151930, Control_c, 0, 64, 69
2,151949, Control_c, 0, 64, 65
2,151969, Control_c, 0, 64, 55
2,151988, Control_c, 0, 64, 40
2,151998, Note_on_c, 0, 53, 0
2,152007, Control_c, 0, 64, 30
2,152024, Control_c, 0, 64, 31
2,152024, Note_on_c, 0, 54, 45
2,152044, Control_c, 0, 64, 43
2,152059, Note_on_c, 0, 75, 56
2,152063, Control_c, 0, 64, 58
2,152082, Control_c, 0, 64, 63
2,152101, Control_c, 0, 64, 66
2,152108, Note_on_c, 0, 77, 0
2,152121, Control_c, 0, 64, 67
2,152139, Control_c, 0, 64, 69
2,152158, Control_c, 0, 64, 70
2,152178, Control_c, 0, 64, 72
2,152197, Control_c, 0, 64, 73
2,152204, Note_on_c, 0, 58, 0
2,152332, Control_c, 0, 64, 71
2,152350, Control_c, 0, 64, 67
2,152370, Control_c, 0, 64, 62
2,152389, Control_c, 0, 64, 58
2,152409, Control_c, 0, 64, 60
2,152427, Control_c, 0, 64, 62
2,152438, Note_on_c, 0, 59, 63
2,152447, Control_c, 0, 64, 64
2,152454, Note_on_c, 0, 56, 45
2,152456, Note_on_c, 0, 54, 0
2,152466, Control_c, 0, 64, 67
2,152485, Control_c, 0, 64, 70
2,152504, Control_c, 0, 64, 73
2,152524, Control_c, 0, 64, 77
2,152543, Control_c, 0, 64, 77
2,152552, Note_on_c, 0, 56, 0
2,152573, Note_on_c, 0, 59, 0
2,152660, Control_c, 0, 64, 77
2,152775, Control_c, 0, 64, 76
2,152814, Control_c, 0, 64, 76
2,152828, Note_on_c, 0, 61, 47
2,152832, Control_c, 0, 64, 74
2,152842, Note_on_c, 0, 53, 40
2,152852, Control_c, 0, 64, 69
2,152871, Control_c, 0, 64, 62
2,152871, Note_on_c, 0, 82, 82
2,152890, Control_c, 0, 64, 45
2,152909, Control_c, 0, 64, 0
2,152941, Note_on_c, 0, 75, 0
2,153006, Control_c, 0, 64, 40
2,153024, Control_c, 0, 64, 55
2,153044, Control_c, 0, 64, 59
2,153063, Control_c, 0, 64, 60
2,153101, Control_c, 0, 64, 60
2,153178, Control_c, 0, 64, 61
2,153197, Control_c, 0, 64, 62
2,153217, Control_c, 0, 64, 63
2,153235, Control_c, 0, 64, 64
2,153251, Note_on_c, 0, 55, 51
2,153255, Control_c, 0, 64, 65
2,153274, Control_c, 0, 64, 66
2,153294, Control_c, 0, 64, 67
2,153312, Control_c, 0, 64, 69
2,153332, Control_c, 0, 64, 72
2,153343, Note_on_c, 0, 82, 0
2,153351, Control_c, 0, 64, 74
2,153370, Control_c, 0, 64, 76
2,153447, Control_c, 0, 64, 75
2,153486, Control_c, 0, 64, 75
2,153504, Control_c, 0, 64, 74
2,153524, Control_c, 0, 64, 74
2,153543, Control_c, 0, 64, 73
2,153563, Control_c, 0, 64, 72
2,153581, Control_c, 0, 64, 71
2,153601, Control_c, 0, 64, 70
2,153620, Control_c, 0, 64, 67
2,153638, Control_c, 0, 64, 64
2,153639, Note_on_c, 0, 55, 0
2,153641, Note_on_c, 0, 61, 0
2,153649, Note_on_c, 0, 56, 41
2,153658, Control_c, 0, 64, 58
2,153677, Control_c, 0, 64, 46
2,153682, Note_on_c, 0, 75, 67
2,153697, Control_c, 0, 64, 0
2,153706, Note_on_c, 0, 53, 0
2,153754, Control_c, 0, 64, 22
2,153774, Control_c, 0, 64, 50
2,153792, Control_c, 0, 64, 61
2,153812, Control_c, 0, 64, 63
2,153831, Control_c, 0, 64, 64
2,153908, Control_c, 0, 64, 63
2,153944, Control_c, 0, 64, 62
2,153964, Control_c, 0, 64, 59
2,153983, Control_c, 0, 64, 48
2,154002, Control_c, 0, 64, 26
2,154021, Control_c, 0, 64, 0
2,154059, Control_c, 0, 64, 13
2,154078, Control_c, 0, 64, 46
2,154083, Note_on_c, 0, 73, 52
2,154098, Control_c, 0, 64, 59
2,154117, Control_c, 0, 64, 62
2,154121, Note_on_c, 0, 58, 28
2,154122, Note_on_c, 0, 56, 0
2,154136, Control_c, 0, 64, 63
2,154155, Control_c, 0, 64, 64
2,154175, Control_c, 0, 64, 64
2,154193, Control_c, 0, 64, 65
2,154290, Control_c, 0, 67, 8
2,154309, Control_c, 0, 64, 64
2,154309, Control_c, 0, 67, 17
2,154329, Control_c, 0, 67, 28
2,154347, Control_c, 0, 64, 63
2,154347, Control_c, 0, 67, 38
2,154367, Control_c, 0, 64, 62
2,154367, Control_c, 0, 67, 48
2,154386, Control_c, 0, 64, 57
2,154386, Control_c, 0, 67, 58
2,154405, Control_c, 0, 64, 38
2,154405, Control_c, 0, 67, 65
2,154424, Control_c, 0, 64, 0
2,154424, Control_c, 0, 67, 71
2,154444, Control_c, 0, 67, 75
2,154463, Control_c, 0, 67, 77
2,154477, Note_on_c, 0, 71, 47
2,154488, Note_on_c, 0, 56, 43
2,154499, Note_on_c, 0, 73, 0
2,154502, Control_c, 0, 64, 30
2,154502, Control_c, 0, 67, 77
2,154508, Note_on_c, 0, 58, 0
2,154522, Control_c, 0, 64, 58
2,154522, Control_c, 0, 67, 76
2,154540, Control_c, 0, 64, 65
2,154540, Control_c, 0, 67, 75
2,154559, Control_c, 0, 64, 69
2,154559, Control_c, 0, 67, 74
2,154579, Control_c, 0, 64, 72
2,154579, Control_c, 0, 67, 73
2,154598, Control_c, 0, 64, 74
2,154598, Control_c, 0, 67, 72
2,154606, Note_on_c, 0, 75, 0
2,154617, Control_c, 0, 67, 70
2,154636, Control_c, 0, 67, 69
2,154656, Control_c, 0, 67, 68
2,154674, Control_c, 0, 67, 67
2,154694, Control_c, 0, 67, 67
2,154790, Control_c, 0, 67, 66
2,154809, Control_c, 0, 64, 73
2,154809, Control_c, 0, 67, 66
2,154828, Control_c, 0, 64, 69
2,154828, Control_c, 0, 67, 65
2,154842, Note_on_c, 0, 56, 0
2,154848, Control_c, 0, 64, 62
2,154848, Control_c, 0, 67, 65
2,154852, Note_on_c, 0, 71, 0
2,154862, Note_on_c, 0, 54, 40
2,154867, Control_c, 0, 64, 43
2,154878, Note_on_c, 0, 75, 58
2,154886, Control_c, 0, 64, 35
2,154886, Control_c, 0, 67, 64
2,154888, Note_on_c, 0, 70, 49
2,154903, Control_c, 0, 64, 43
2,154903, Control_c, 0, 67, 63
2,154923, Control_c, 0, 64, 55
2,154942, Control_c, 0, 64, 62
2,154961, Control_c, 0, 64, 64
2,154980, Control_c, 0, 64, 66
2,154999, Control_c, 0, 64, 69
2,155019, Control_c, 0, 64, 71
2,155037, Control_c, 0, 64, 73
2,155057, Control_c, 0, 64, 74
2,155057, Control_c, 0, 67, 63
2,155076, Control_c, 0, 64, 74
2,155076, Control_c, 0, 67, 62
2,155108, Note_on_c, 0, 70, 0
2,155114, Control_c, 0, 67, 61
2,155134, Control_c, 0, 64, 74
2,155153, Control_c, 0, 64, 72
2,155172, Control_c, 0, 64, 68
2,155191, Control_c, 0, 64, 62
2,155211, Control_c, 0, 64, 48
2,155229, Control_c, 0, 64, 31
2,155229, Control_c, 0, 67, 61
2,155231, Note_on_c, 0, 74, 50
2,155238, Note_on_c, 0, 68, 46
2,155244, Note_on_c, 0, 54, 0
2,155249, Control_c, 0, 67, 60
2,155258, Note_on_c, 0, 53, 48
2,155268, Control_c, 0, 64, 44
2,155268, Control_c, 0, 67, 59
2,155288, Control_c, 0, 64, 57
2,155288, Control_c, 0, 67, 56
2,155306, Control_c, 0, 64, 62
2,155306, Control_c, 0, 67, 54
2,155325, Note_on_c, 0, 75, 0
2,155326, Control_c, 0, 64, 64
2,155326, Control_c, 0, 67, 53
2,155345, Control_c, 0, 64, 66
2,155345, Control_c, 0, 67, 51
2,155364, Control_c, 0, 64, 67
2,155364, Control_c, 0, 67, 50
2,155383, Control_c, 0, 64, 69
2,155383, Control_c, 0, 67, 48
2,155386, Note_on_c, 0, 68, 0
2,155403, Control_c, 0, 64, 70
2,155403, Control_c, 0, 67, 44
2,155422, Control_c, 0, 64, 71
2,155422, Control_c, 0, 67, 41
2,155445, Control_c, 0, 64, 71
2,155445, Control_c, 0, 67, 39
2,155464, Control_c, 0, 64, 72
2,155464, Control_c, 0, 67, 36
2,155484, Control_c, 0, 64, 72
2,155484, Control_c, 0, 67, 34
2,155502, Control_c, 0, 67, 31
2,155522, Control_c, 0, 67, 29
2,155541, Control_c, 0, 67, 28
2,155557, Note_on_c, 0, 53, 0
2,155559, Control_c, 0, 64, 72
2,155559, Control_c, 0, 67, 26
2,155579, Control_c, 0, 64, 69
2,155579, Control_c, 0, 67, 25
2,155598, Control_c, 0, 64, 62
2,155598, Control_c, 0, 67, 23
2,155618, Control_c, 0, 64, 46
2,155618, Control_c, 0, 67, 19
2,155631, Note_on_c, 0, 51, 47
2,155636, Control_c, 0, 64, 11
2,155636, Control_c, 0, 67, 15
2,155641, Note_on_c, 0, 66, 50
2,155642, Note_on_c, 0, 75, 60
2,155656, Control_c, 0, 64, 0
2,155656, Control_c, 0, 67, 8
2,155675, Control_c, 0, 64, 30
2,155675, Control_c, 0, 67, 0
2,155694, Control_c, 0, 64, 57
2,155708, Note_on_c, 0, 74, 0
2,155713, Control_c, 0, 64, 65
2,155733, Control_c, 0, 64, 69
2,155752, Control_c, 0, 64, 75
2,155771, Control_c, 0, 64, 83
2,155790, Control_c, 0, 64, 90
2,155791, Note_on_c, 0, 66, 0
2,155810, Control_c, 0, 64, 91
2,155999, Control_c, 0, 64, 90
2,156017, Note_on_c, 0, 51, 0
2,156019, Control_c, 0, 64, 86
2,156023, Note_on_c, 0, 77, 54
2,156035, Note_on_c, 0, 50, 47
2,156037, Note_on_c, 0, 68, 58
2,156038, Control_c, 0, 64, 76
2,156057, Control_c, 0, 64, 64
2,156076, Control_c, 0, 64, 39
2,156096, Control_c, 0, 64, 0
2,156117, Note_on_c, 0, 75, 0
2,156153, Control_c, 0, 64, 47
2,156173, Control_c, 0, 64, 62
2,156191, Control_c, 0, 64, 66
2,156211, Control_c, 0, 64, 69
2,156230, Control_c, 0, 64, 73
2,156249, Control_c, 0, 64, 78
2,156268, Control_c, 0, 64, 83
2,156288, Control_c, 0, 64, 85
2,156307, Control_c, 0, 64, 86
2,156326, Control_c, 0, 64, 85
2,156345, Control_c, 0, 64, 82
2,156365, Control_c, 0, 64, 74
2,156383, Control_c, 0, 64, 61
2,156403, Control_c, 0, 64, 32
2,156422, Control_c, 0, 64, 0
2,156430, Note_on_c, 0, 74, 54
2,156442, Control_c, 0, 64, 21
2,156446, Note_on_c, 0, 59, 57
2,156448, Note_on_c, 0, 65, 48
2,156460, Control_c, 0, 64, 46
2,156479, Control_c, 0, 64, 60
2,156499, Control_c, 0, 64, 64
2,156518, Control_c, 0, 64, 66
2,156537, Control_c, 0, 64, 68
2,156539, Note_on_c, 0, 68, 0
2,156556, Control_c, 0, 64, 70
2,156569, Note_on_c, 0, 65, 0
2,156576, Control_c, 0, 64, 73
2,156580, Note_on_c, 0, 74, 0
2,156594, Control_c, 0, 64, 75
2,156614, Control_c, 0, 64, 76
2,156729, Control_c, 0, 64, 77
2,156748, Control_c, 0, 64, 77
2,156787, Control_c, 0, 64, 76
2,156806, Control_c, 0, 64, 72
2,156808, Note_on_c, 0, 77, 0
2,156826, Control_c, 0, 64, 64
2,156832, Note_on_c, 0, 75, 58
2,156838, Note_on_c, 0, 58, 58
2,156846, Control_c, 0, 64, 49
2,156850, Note_on_c, 0, 66, 47
2,156864, Control_c, 0, 64, 0
2,156884, Control_c, 0, 64, 9
2,156903, Control_c, 0, 64, 38
2,156905, Note_on_c, 0, 59, 0
2,156923, Control_c, 0, 64, 59
2,156941, Control_c, 0, 64, 64
2,156960, Control_c, 0, 64, 67
2,156980, Control_c, 0, 64, 70
2,156989, Note_on_c, 0, 50, 0
2,156998, Control_c, 0, 64, 76
2,157018, Control_c, 0, 64, 81
2,157037, Control_c, 0, 64, 83
2,157047, Note_on_c, 0, 66, 0
2,157114, Control_c, 0, 64, 81
2,157134, Control_c, 0, 64, 74
2,157152, Control_c, 0, 64, 65
2,157172, Control_c, 0, 64, 50
2,157191, Control_c, 0, 64, 46
2,157198, Note_on_c, 0, 77, 55
2,157203, Note_on_c, 0, 68, 63
2,157210, Control_c, 0, 64, 54
2,157216, Note_on_c, 0, 56, 69
2,157229, Control_c, 0, 64, 60
2,157249, Control_c, 0, 64, 63
2,157264, Note_on_c, 0, 75, 0
2,157268, Control_c, 0, 64, 66
2,157284, Note_on_c, 0, 68, 0
2,157287, Control_c, 0, 64, 69
2,157306, Control_c, 0, 64, 73
2,157309, Note_on_c, 0, 58, 0
2,157318, Note_on_c, 0, 77, 0
2,157326, Control_c, 0, 64, 78
2,157344, Control_c, 0, 64, 81
2,157365, Control_c, 0, 64, 82
2,157422, Control_c, 0, 64, 82
2,157442, Control_c, 0, 64, 83
2,157461, Control_c, 0, 64, 84
2,157479, Control_c, 0, 64, 84
2,157499, Control_c, 0, 64, 85
2,157576, Control_c, 0, 64, 83
2,157595, Control_c, 0, 64, 79
2,157598, Note_on_c, 0, 78, 76
2,157604, Note_on_c, 0, 54, 69
2,157614, Control_c, 0, 64, 69
2,157616, Note_on_c, 0, 70, 61
2,157633, Control_c, 0, 64, 57
2,157653, Control_c, 0, 64, 0
2,157674, Note_on_c, 0, 56, 0
2,157710, Control_c, 0, 64, 13
2,157730, Control_c, 0, 64, 50
2,157748, Control_c, 0, 64, 63
2,157755, Note_on_c, 0, 70, 0
2,157768, Control_c, 0, 64, 65
2,157785, Control_c, 0, 64, 67
2,157805, Control_c, 0, 64, 70
2,157824, Control_c, 0, 64, 73
2,157843, Control_c, 0, 64, 77
2,157862, Control_c, 0, 64, 81
2,157882, Control_c, 0, 64, 82
2,157900, Control_c, 0, 64, 83
2,157939, Control_c, 0, 64, 81
2,157958, Control_c, 0, 64, 76
2,157977, Control_c, 0, 64, 66
2,157988, Note_on_c, 0, 53, 65
2,157996, Control_c, 0, 64, 45
2,158000, Note_on_c, 0, 80, 79
2,158003, Note_on_c, 0, 68, 69
2,158008, Note_on_c, 0, 54, 0
2,158016, Control_c, 0, 64, 0
2,158046, Note_on_c, 0, 78, 0
2,158054, Control_c, 0, 64, 42
2,158073, Control_c, 0, 64, 60
2,158093, Control_c, 0, 64, 65
2,158111, Control_c, 0, 64, 68
2,158131, Control_c, 0, 64, 73
2,158150, Control_c, 0, 64, 81
2,158169, Control_c, 0, 64, 89
2,158188, Control_c, 0, 64, 91
2,158324, Control_c, 0, 64, 88
2,158343, Control_c, 0, 64, 77
2,158343, Note_on_c, 0, 53, 0
2,158363, Control_c, 0, 64, 65
2,158372, Note_on_c, 0, 51, 66
2,158381, Control_c, 0, 64, 50
2,158392, Note_on_c, 0, 82, 73
2,158400, Control_c, 0, 64, 52
2,158420, Control_c, 0, 64, 61
2,158423, Note_on_c, 0, 80, 0
2,158438, Control_c, 0, 64, 65
2,158458, Control_c, 0, 64, 69
2,158463, Note_on_c, 0, 82, 0
2,158477, Control_c, 0, 64, 75
2,158497, Control_c, 0, 64, 82
2,158515, Control_c, 0, 64, 88
2,158535, Control_c, 0, 64, 90
2,158594, Note_on_c, 0, 68, 0
2,158708, Control_c, 0, 64, 88
2,158727, Control_c, 0, 64, 82
2,158745, Control_c, 0, 64, 70
2,158755, Note_on_c, 0, 49, 82
2,158765, Control_c, 0, 64, 59
2,158784, Control_c, 0, 64, 45
2,158800, Note_on_c, 0, 51, 0
2,158800, Note_on_c, 0, 66, 51
2,158803, Control_c, 0, 64, 52
2,158812, Note_on_c, 0, 70, 43
2,158822, Control_c, 0, 64, 60
2,158842, Control_c, 0, 64, 64
2,158860, Control_c, 0, 64, 68
2,158879, Control_c, 0, 64, 72
2,158880, Note_on_c, 0, 70, 0
2,158899, Control_c, 0, 64, 78
2,158918, Control_c, 0, 64, 83
2,158936, Note_on_c, 0, 66, 0
2,158937, Control_c, 0, 64, 86
2,158956, Control_c, 0, 64, 85
2,158968, Note_on_c, 0, 65, 49
2,158976, Control_c, 0, 64, 85
2,158994, Control_c, 0, 64, 84
2,159007, Note_on_c, 0, 65, 0
2,159053, Control_c, 0, 64, 85
2,159071, Control_c, 0, 64, 85
2,159129, Control_c, 0, 64, 84
2,159148, Control_c, 0, 64, 76
2,159149, Note_on_c, 0, 47, 70
2,159162, Note_on_c, 0, 49, 0
2,159164, Note_on_c, 0, 75, 72
2,159168, Control_c, 0, 64, 64
2,159174, Note_on_c, 0, 66, 64
2,159187, Control_c, 0, 64, 35
2,159206, Control_c, 0, 64, 0
2,159264, Control_c, 0, 64, 49
2,159285, Control_c, 0, 64, 63
2,159304, Control_c, 0, 64, 66
2,159324, Control_c, 0, 64, 69
2,159342, Control_c, 0, 64, 74
2,159362, Control_c, 0, 64, 80
2,159381, Control_c, 0, 64, 86
2,159399, Control_c, 0, 64, 88
2,159438, Control_c, 0, 64, 88
2,159446, Note_on_c, 0, 66, 0
2,159458, Control_c, 0, 64, 88
2,159476, Control_c, 0, 64, 89
2,159534, Control_c, 0, 64, 89
2,159553, Control_c, 0, 64, 90
2,159553, Note_on_c, 0, 77, 82
2,159562, Note_on_c, 0, 68, 71
2,159573, Control_c, 0, 64, 90
2,159585, Note_on_c, 0, 47, 0
2,159616, Note_on_c, 0, 75, 0
2,159630, Control_c, 0, 64, 89
2,159650, Control_c, 0, 64, 88
2,159668, Control_c, 0, 64, 87
2,159684, Note_on_c, 0, 68, 0
2,159688, Control_c, 0, 64, 87
2,159691, Note_on_c, 0, 77, 0
2,159763, Control_c, 0, 64, 87
2,159782, Control_c, 0, 64, 88
2,159820, Control_c, 0, 64, 87
2,159839, Control_c, 0, 64, 87
2,159974, Control_c, 0, 64, 86
2,159986, Note_on_c, 0, 46, 77
2,159993, Control_c, 0, 64, 84
2,160002, Note_on_c, 0, 74, 85
2,160013, Control_c, 0, 64, 76
2,160014, Note_on_c, 0, 70, 75
2,160031, Control_c, 0, 64, 64
2,160051, Control_c, 0, 64, 33
2,160070, Control_c, 0, 64, 0
2,160147, Control_c, 0, 64, 27
2,160166, Control_c, 0, 64, 54
2,160185, Control_c, 0, 64, 62
2,160205, Control_c, 0, 64, 63
2,160224, Control_c, 0, 64, 64
2,160243, Control_c, 0, 64, 65
2,160262, Control_c, 0, 64, 66
2,160282, Control_c, 0, 64, 66
2,160300, Control_c, 0, 64, 67
2,160319, Control_c, 0, 64, 68
2,160330, Note_on_c, 0, 46, 0
2,160339, Control_c, 0, 64, 69
2,160358, Control_c, 0, 64, 70
2,160377, Control_c, 0, 64, 72
2,160396, Control_c, 0, 64, 74
2,160416, Control_c, 0, 64, 75
2,160665, Control_c, 0, 64, 74
2,160685, Control_c, 0, 64, 74
2,160704, Control_c, 0, 64, 73
2,160723, Control_c, 0, 64, 72
2,160742, Control_c, 0, 64, 71
2,160762, Control_c, 0, 64, 70
2,160780, Control_c, 0, 64, 69
2,160799, Control_c, 0, 64, 66
2,160819, Control_c, 0, 64, 63
2,160834, Note_on_c, 0, 58, 80
2,160838, Control_c, 0, 64, 59
2,160851, Note_on_c, 0, 51, 67
2,160857, Control_c, 0, 64, 55
2,160876, Control_c, 0, 64, 47
2,160896, Control_c, 0, 64, 27
2,160914, Control_c, 0, 64, 0
2,160914, Note_on_c, 0, 74, 0
2,160917, Note_on_c, 0, 70, 0
2,161279, Control_c, 0, 64, 42
2,161299, Control_c, 0, 64, 56
2,161318, Control_c, 0, 64, 61
2,161337, Control_c, 0, 64, 62
2,161356, Control_c, 0, 64, 63
2,161376, Control_c, 0, 64, 64
2,161394, Control_c, 0, 64, 65
2,161414, Control_c, 0, 64, 66
2,161433, Control_c, 0, 64, 67
2,161453, Control_c, 0, 64, 67
2,161471, Control_c, 0, 64, 68
2,161587, Control_c, 0, 64, 66
2,161606, Control_c, 0, 64, 62
2,161624, Control_c, 0, 64, 49
2,161627, Note_on_c, 0, 70, 90
2,161644, Control_c, 0, 64, 0
2,161649, Note_on_c, 0, 63, 67
2,161758, Control_c, 0, 64, 36
2,161778, Control_c, 0, 64, 42
2,161797, Control_c, 0, 64, 42
2,161873, Control_c, 0, 64, 43
2,161884, Note_on_c, 0, 58, 0
2,161904, Note_on_c, 0, 51, 0
2,161912, Control_c, 0, 64, 41
2,161932, Control_c, 0, 64, 40
2,161950, Control_c, 0, 64, 38
2,161970, Control_c, 0, 64, 29
2,161989, Control_c, 0, 64, 0
2,162020, Note_on_c, 0, 52, 72
2,162066, Control_c, 0, 64, 29
2,162085, Control_c, 0, 64, 49
2,162104, Control_c, 0, 64, 59
2,162124, Control_c, 0, 64, 62
2,162143, Control_c, 0, 64, 63
2,162163, Control_c, 0, 64, 64
2,162182, Control_c, 0, 64, 65
2,162201, Control_c, 0, 64, 65
2,162239, Control_c, 0, 64, 66
2,162316, Control_c, 0, 64, 65
2,162354, Control_c, 0, 64, 65
2,162374, Control_c, 0, 64, 63
2,162393, Control_c, 0, 64, 58
2,162401, Note_on_c, 0, 51, 57
2,162413, Control_c, 0, 64, 24
2,162414, Note_on_c, 0, 75, 91
2,162431, Control_c, 0, 64, 0
2,162449, Note_on_c, 0, 52, 0
2,162494, Note_on_c, 0, 70, 0
2,162566, Control_c, 0, 64, 37
2,162583, Control_c, 0, 64, 61
2,162603, Control_c, 0, 64, 65
2,162622, Control_c, 0, 64, 67
2,162640, Control_c, 0, 64, 69
2,162660, Control_c, 0, 64, 71
2,162679, Control_c, 0, 64, 73
2,162683, Note_on_c, 0, 63, 0
2,162699, Control_c, 0, 64, 74
2,162737, Control_c, 0, 64, 73
2,162756, Control_c, 0, 64, 71
2,162775, Control_c, 0, 64, 68
2,162794, Control_c, 0, 64, 65
2,162801, Note_on_c, 0, 49, 61
2,162804, Note_on_c, 0, 64, 60
2,162814, Control_c, 0, 64, 65
2,162833, Control_c, 0, 64, 67
2,162839, Note_on_c, 0, 51, 0
2,162852, Control_c, 0, 64, 67
2,162871, Control_c, 0, 64, 68
2,162889, Note_on_c, 0, 64, 0
2,162909, Control_c, 0, 64, 67
2,163006, Control_c, 0, 64, 68
2,163083, Control_c, 0, 64, 67
2,163102, Control_c, 0, 64, 67
2,163123, Control_c, 0, 64, 63
2,163142, Control_c, 0, 64, 37
2,163143, Note_on_c, 0, 49, 0
2,163161, Control_c, 0, 64, 0
2,163185, Note_on_c, 0, 47, 59
2,163203, Note_on_c, 0, 63, 77
2,163276, Control_c, 0, 64, 59
2,163296, Control_c, 0, 64, 66
2,163314, Control_c, 0, 64, 71
2,163334, Control_c, 0, 64, 77
2,163343, Note_on_c, 0, 75, 0
2,163353, Control_c, 0, 64, 84
2,163373, Control_c, 0, 64, 91
2,163390, Note_on_c, 0, 47, 0
2,163391, Control_c, 0, 64, 94
2,163411, Control_c, 0, 64, 95
2,163416, Note_on_c, 0, 63, 0
2,163507, Control_c, 0, 64, 95
2,163526, Control_c, 0, 64, 97
2,163545, Control_c, 0, 64, 100
2,163565, Control_c, 0, 64, 104
2,163584, Control_c, 0, 64, 108
2,163603, Control_c, 0, 64, 109
2,163618, Note_on_c, 0, 76, 86
2,163621, Note_on_c, 0, 61, 66
2,163622, Control_c, 0, 64, 104
2,163625, Note_on_c, 0, 49, 61
2,163641, Control_c, 0, 64, 85
2,163660, Control_c, 0, 64, 66
2,163679, Control_c, 0, 64, 0
2,163756, Control_c, 0, 64, 53
2,163776, Control_c, 0, 64, 64
2,163794, Control_c, 0, 64, 67
2,163814, Control_c, 0, 64, 69
2,163833, Control_c, 0, 64, 71
2,163853, Control_c, 0, 64, 72
2,163871, Control_c, 0, 64, 73
2,163873, Note_on_c, 0, 61, 0
2,163891, Control_c, 0, 64, 73
2,163948, Control_c, 0, 64, 72
2,163968, Control_c, 0, 64, 68
2,163987, Control_c, 0, 64, 59
2,164006, Control_c, 0, 64, 0
2,164008, Note_on_c, 0, 75, 79
2,164016, Note_on_c, 0, 59, 72
2,164019, Note_on_c, 0, 51, 55
2,164064, Note_on_c, 0, 49, 0
2,164102, Control_c, 0, 64, 28
2,164121, Control_c, 0, 64, 63
2,164140, Control_c, 0, 64, 67
2,164159, Control_c, 0, 64, 70
2,164179, Control_c, 0, 64, 71
2,164198, Control_c, 0, 64, 73
2,164207, Note_on_c, 0, 59, 0
2,164217, Control_c, 0, 64, 75
2,164236, Control_c, 0, 64, 77
2,164256, Control_c, 0, 64, 79
2,164274, Control_c, 0, 64, 81
2,164294, Control_c, 0, 64, 82
2,164313, Control_c, 0, 64, 82
2,164333, Control_c, 0, 64, 81
2,164351, Control_c, 0, 64, 70
2,164371, Control_c, 0, 64, 46
2,164390, Control_c, 0, 64, 0
2,164391, Note_on_c, 0, 61, 64
2,164411, Note_on_c, 0, 73, 80
2,164467, Control_c, 0, 64, 60
2,164477, Note_on_c, 0, 61, 0
2,164486, Control_c, 0, 64, 68
2,164498, Note_on_c, 0, 76, 0
2,164504, Control_c, 0, 64, 73
2,164524, Control_c, 0, 64, 76
2,164543, Control_c, 0, 64, 77
2,164561, Note_on_c, 0, 51, 0
2,164581, Control_c, 0, 64, 78
2,164587, Note_on_c, 0, 75, 0
2,164600, Control_c, 0, 64, 80
2,164622, Note_on_c, 0, 73, 0
2,164638, Control_c, 0, 64, 80
2,164658, Control_c, 0, 64, 79
2,164677, Control_c, 0, 64, 78
2,164696, Control_c, 0, 64, 77
2,164715, Control_c, 0, 64, 74
2,164735, Control_c, 0, 64, 68
2,164753, Control_c, 0, 64, 58
2,164773, Control_c, 0, 64, 0
2,164784, Note_on_c, 0, 44, 61
2,164812, Note_on_c, 0, 71, 76
2,164829, Note_on_c, 0, 63, 58
2,165203, Note_on_c, 0, 73, 70
2,165234, Control_c, 0, 64, 44
2,165254, Control_c, 0, 64, 65
2,165273, Control_c, 0, 64, 66
2,165308, Note_on_c, 0, 44, 0
2,165331, Control_c, 0, 64, 67
2,165350, Control_c, 0, 64, 68
2,165369, Control_c, 0, 64, 67
2,165388, Control_c, 0, 64, 67
2,165408, Control_c, 0, 64, 66
2,165427, Control_c, 0, 64, 65
2,165465, Control_c, 0, 64, 65
2,165485, Control_c, 0, 64, 64
2,165561, Control_c, 0, 64, 64
2,165599, Control_c, 0, 64, 63
2,165619, Control_c, 0, 64, 63
2,165634, Note_on_c, 0, 56, 65
2,165638, Control_c, 0, 64, 62
2,165638, Note_on_c, 0, 75, 89
2,165644, Note_on_c, 0, 47, 51
2,165657, Control_c, 0, 64, 62
2,165676, Control_c, 0, 64, 61
2,165678, Note_on_c, 0, 71, 0
2,165696, Control_c, 0, 64, 60
2,165714, Control_c, 0, 64, 59
2,165734, Control_c, 0, 64, 58
2,165753, Control_c, 0, 64, 58
2,165776, Note_on_c, 0, 73, 0
2,165791, Control_c, 0, 64, 57
2,165811, Control_c, 0, 64, 57
2,165830, Control_c, 0, 64, 56
2,165868, Control_c, 0, 64, 56
2,165907, Control_c, 0, 64, 55
2,165926, Control_c, 0, 64, 54
2,165945, Control_c, 0, 64, 53
2,165965, Control_c, 0, 64, 52
2,166022, Control_c, 0, 64, 54
2,166037, Note_on_c, 0, 54, 75
2,166041, Control_c, 0, 64, 56
2,166060, Control_c, 0, 64, 60
2,166079, Control_c, 0, 64, 62
2,166099, Control_c, 0, 64, 64
2,166118, Control_c, 0, 64, 65
2,166137, Control_c, 0, 64, 66
2,166156, Control_c, 0, 64, 68
2,166176, Control_c, 0, 64, 70
2,166189, Note_on_c, 0, 56, 0
2,166194, Control_c, 0, 64, 72
2,166214, Control_c, 0, 64, 73
2,166253, Control_c, 0, 64, 72
2,166271, Control_c, 0, 64, 72
2,166275, Note_on_c, 0, 54, 0
2,166291, Control_c, 0, 64, 71
2,166310, Control_c, 0, 64, 71
2,166329, Control_c, 0, 64, 70
2,166348, Control_c, 0, 64, 69
2,166368, Control_c, 0, 64, 68
2,166387, Control_c, 0, 64, 66
2,166406, Control_c, 0, 64, 62
2,166426, Control_c, 0, 64, 54
2,166428, Note_on_c, 0, 47, 0
2,166446, Control_c, 0, 64, 38
2,166464, Control_c, 0, 64, 0
2,166466, Note_on_c, 0, 53, 74
2,166481, Note_on_c, 0, 49, 58
2,166486, Note_on_c, 0, 68, 65
2,166514, Note_on_c, 0, 75, 0
2,166849, Control_c, 0, 64, 42
2,166868, Control_c, 0, 64, 58
2,166887, Control_c, 0, 64, 62
2,166892, Note_on_c, 0, 70, 65
2,166906, Control_c, 0, 64, 63
2,166926, Control_c, 0, 64, 64
2,166944, Control_c, 0, 64, 65
2,166964, Control_c, 0, 64, 66
2,166979, Note_on_c, 0, 53, 0
2,166983, Control_c, 0, 64, 67
2,166998, Note_on_c, 0, 49, 0
2,167039, Note_on_c, 0, 71, 65
2,167050, Note_on_c, 0, 63, 0
2,167067, Note_on_c, 0, 70, 0
2,167154, Note_on_c, 0, 68, 0
2,167194, Control_c, 0, 64, 66
2,167214, Control_c, 0, 64, 65
2,167216, Note_on_c, 0, 42, 66
2,167232, Control_c, 0, 64, 63
2,167240, Note_on_c, 0, 70, 71
2,167252, Control_c, 0, 64, 56
2,167264, Note_on_c, 0, 61, 59
2,167271, Control_c, 0, 64, 41
2,167279, Note_on_c, 0, 71, 0
2,167290, Control_c, 0, 64, 0
2,167654, Control_c, 0, 64, 29
2,167658, Note_on_c, 0, 71, 73
2,167673, Control_c, 0, 64, 47
2,167693, Control_c, 0, 64, 56
2,167711, Control_c, 0, 64, 58
2,167731, Control_c, 0, 64, 60
2,167750, Control_c, 0, 64, 61
2,167769, Control_c, 0, 64, 62
2,167788, Control_c, 0, 64, 63
2,167827, Control_c, 0, 64, 64
2,167885, Control_c, 0, 64, 64
2,167947, Note_on_c, 0, 70, 0
2,167999, Control_c, 0, 64, 64
2,168019, Control_c, 0, 64, 62
2,168038, Control_c, 0, 64, 54
2,168055, Note_on_c, 0, 54, 73
2,168057, Control_c, 0, 64, 22
2,168066, Note_on_c, 0, 73, 85
2,168076, Control_c, 0, 64, 0
2,168153, Control_c, 0, 64, 34
2,168173, Control_c, 0, 64, 56
2,168190, Note_on_c, 0, 71, 0
2,168191, Control_c, 0, 64, 61
2,168197, Note_on_c, 0, 42, 0
2,168211, Control_c, 0, 64, 62
2,168384, Control_c, 0, 64, 62
2,168402, Control_c, 0, 64, 61
2,168422, Control_c, 0, 64, 59
2,168441, Control_c, 0, 64, 46
2,168460, Control_c, 0, 64, 0
2,168465, Note_on_c, 0, 41, 60
2,168576, Control_c, 0, 64, 53
2,168594, Control_c, 0, 64, 63
2,168614, Control_c, 0, 64, 64
2,168653, Control_c, 0, 64, 65
2,168747, Note_on_c, 0, 41, 0
2,168787, Control_c, 0, 64, 64
2,168825, Control_c, 0, 64, 63
2,168845, Control_c, 0, 64, 59
2,168860, Note_on_c, 0, 42, 65
2,168864, Control_c, 0, 64, 40
2,168873, Note_on_c, 0, 66, 69
2,168881, Control_c, 0, 64, 0
2,168978, Control_c, 0, 64, 54
2,168997, Control_c, 0, 64, 64
2,169016, Control_c, 0, 64, 65
2,169035, Control_c, 0, 64, 66
2,169049, Note_on_c, 0, 54, 0
2,169073, Control_c, 0, 64, 67
2,169170, Control_c, 0, 64, 66
2,169183, Note_on_c, 0, 42, 0
2,169189, Control_c, 0, 64, 65
2,169209, Control_c, 0, 64, 62
2,169227, Control_c, 0, 64, 48
2,169247, Control_c, 0, 64, 0
2,169254, Note_on_c, 0, 44, 53
2,169255, Note_on_c, 0, 53, 67
2,169343, Control_c, 0, 64, 53
2,169361, Control_c, 0, 64, 62
2,169381, Control_c, 0, 64, 64
2,169400, Control_c, 0, 64, 65
2,169419, Control_c, 0, 64, 66
2,169438, Control_c, 0, 64, 67
2,169448, Note_on_c, 0, 53, 0
2,169458, Control_c, 0, 64, 68
2,169477, Control_c, 0, 64, 69
2,169612, Control_c, 0, 64, 68
2,169620, Note_on_c, 0, 73, 0
2,169630, Control_c, 0, 64, 66
2,169650, Control_c, 0, 64, 59
2,169669, Control_c, 0, 64, 48
2,169669, Note_on_c, 0, 54, 65
2,169672, Note_on_c, 0, 66, 0
2,169689, Control_c, 0, 64, 51
2,169693, Note_on_c, 0, 46, 55
2,169699, Note_on_c, 0, 61, 0
2,169707, Control_c, 0, 64, 58
2,169727, Control_c, 0, 64, 62
2,169746, Control_c, 0, 64, 65
2,169765, Control_c, 0, 64, 67
2,169784, Control_c, 0, 64, 70
2,169787, Note_on_c, 0, 44, 0
2,169804, Control_c, 0, 64, 73
2,169823, Control_c, 0, 64, 74
2,169938, Control_c, 0, 64, 74
2,169974, Note_on_c, 0, 54, 0
2,169995, Control_c, 0, 64, 70
2,170015, Control_c, 0, 64, 64
2,170033, Control_c, 0, 64, 51
2,170051, Note_on_c, 0, 56, 57
2,170053, Control_c, 0, 64, 34
2,170062, Note_on_c, 0, 65, 57
2,170064, Note_on_c, 0, 44, 53
2,170072, Control_c, 0, 64, 34
2,170092, Control_c, 0, 64, 46
2,170110, Control_c, 0, 64, 59
2,170130, Control_c, 0, 64, 64
2,170146, Note_on_c, 0, 46, 0
2,170149, Control_c, 0, 64, 67
2,170169, Control_c, 0, 64, 70
2,170187, Control_c, 0, 64, 75
2,170188, Note_on_c, 0, 56, 0
2,170207, Control_c, 0, 64, 79
2,170226, Control_c, 0, 64, 82
2,170341, Control_c, 0, 64, 82
2,170379, Control_c, 0, 64, 81
2,170398, Control_c, 0, 64, 77
2,170418, Control_c, 0, 64, 68
2,170437, Control_c, 0, 64, 53
2,170454, Note_on_c, 0, 42, 56
2,170456, Control_c, 0, 64, 0
2,170469, Note_on_c, 0, 44, 0
2,170476, Note_on_c, 0, 58, 46
2,170482, Note_on_c, 0, 66, 62
2,170533, Control_c, 0, 64, 43
2,170552, Control_c, 0, 64, 62
2,170572, Control_c, 0, 64, 64
2,170590, Control_c, 0, 64, 64
2,170610, Control_c, 0, 64, 65
2,170611, Note_on_c, 0, 58, 0
2,170629, Control_c, 0, 64, 65
2,170667, Control_c, 0, 64, 66
2,170687, Control_c, 0, 64, 66
2,170764, Control_c, 0, 64, 64
2,170783, Control_c, 0, 64, 61
2,170802, Control_c, 0, 64, 60
2,170822, Control_c, 0, 64, 62
2,170841, Control_c, 0, 64, 64
2,170859, Note_on_c, 0, 68, 65
2,170860, Control_c, 0, 64, 66
2,170865, Note_on_c, 0, 56, 53
2,170879, Control_c, 0, 64, 68
2,170889, Note_on_c, 0, 52, 48
2,170899, Control_c, 0, 64, 72
2,170905, Note_on_c, 0, 42, 0
2,170918, Control_c, 0, 64, 79
2,170935, Note_on_c, 0, 66, 0
2,170937, Control_c, 0, 64, 88
2,170944, Note_on_c, 0, 56, 0
2,170949, Note_on_c, 0, 52, 0
2,170954, Note_on_c, 0, 65, 0
2,170956, Control_c, 0, 64, 94
2,170976, Control_c, 0, 64, 96
2,170991, Note_on_c, 0, 68, 0
2,170994, Control_c, 0, 64, 97
2,171014, Control_c, 0, 64, 98
2,171033, Control_c, 0, 64, 99
2,171053, Control_c, 0, 64, 99
2,171091, Control_c, 0, 64, 99
2,171110, Control_c, 0, 64, 98
2,171129, Control_c, 0, 64, 97
2,171148, Control_c, 0, 64, 96
2,171168, Control_c, 0, 64, 95
2,171187, Control_c, 0, 64, 93
2,171206, Control_c, 0, 64, 92
2,171224, Control_c, 0, 64, 90
2,171244, Control_c, 0, 64, 89
2,171263, Control_c, 0, 64, 86
2,171281, Control_c, 0, 64, 84
2,171301, Control_c, 0, 64, 81
2,171320, Control_c, 0, 64, 79
2,171339, Control_c, 0, 64, 76
2,171343, Note_on_c, 0, 54, 43
2,171352, Note_on_c, 0, 51, 35
2,171358, Control_c, 0, 64, 74
2,171367, Note_on_c, 0, 70, 64
2,171378, Control_c, 0, 64, 70
2,171397, Control_c, 0, 64, 67
2,171416, Control_c, 0, 64, 65
2,171435, Control_c, 0, 64, 63
2,171455, Control_c, 0, 64, 61
2,171473, Control_c, 0, 64, 57
2,171493, Control_c, 0, 64, 52
2,171512, Control_c, 0, 64, 44
2,171532, Control_c, 0, 64, 36
2,171550, Control_c, 0, 64, 32
2,171570, Control_c, 0, 64, 31
2,171647, Control_c, 0, 64, 31
2,171666, Control_c, 0, 64, 33
2,171685, Control_c, 0, 64, 36
2,171704, Control_c, 0, 64, 42
2,171724, Control_c, 0, 64, 49
2,171743, Control_c, 0, 64, 56
2,171762, Control_c, 0, 64, 60
2,171782, Control_c, 0, 64, 62
2,171786, Note_on_c, 0, 68, 55
2,171801, Control_c, 0, 64, 63
2,171820, Control_c, 0, 64, 64
2,171839, Control_c, 0, 64, 65
2,171859, Control_c, 0, 64, 66
2,171878, Control_c, 0, 64, 66
2,171898, Note_on_c, 0, 70, 0
2,172128, Control_c, 0, 64, 66
2,172166, Control_c, 0, 64, 65
2,172170, Note_on_c, 0, 66, 50
2,172184, Control_c, 0, 64, 65
2,172189, Note_on_c, 0, 59, 42
2,172203, Control_c, 0, 64, 64
2,172223, Control_c, 0, 64, 62
2,172241, Control_c, 0, 64, 59
2,172261, Control_c, 0, 64, 54
2,172280, Control_c, 0, 64, 47
2,172299, Control_c, 0, 64, 38
2,172299, Note_on_c, 0, 68, 0
2,172317, Note_on_c, 0, 54, 0
2,172318, Control_c, 0, 64, 27
2,172338, Control_c, 0, 64, 18
2,172376, Control_c, 0, 64, 22
2,172395, Control_c, 0, 64, 35
2,172415, Control_c, 0, 64, 50
2,172433, Control_c, 0, 64, 60
2,172453, Control_c, 0, 64, 63
2,172472, Control_c, 0, 64, 65
2,172492, Control_c, 0, 64, 67
2,172510, Control_c, 0, 64, 71
2,172510, Note_on_c, 0, 68, 13
2,172530, Control_c, 0, 64, 77
2,172549, Control_c, 0, 64, 87
2,172569, Control_c, 0, 64, 96
2,172579, Note_on_c, 0, 58, 58
2,172587, Control_c, 0, 64, 100
2,172587, Note_on_c, 0, 68, 0
2,172591, Note_on_c, 0, 59, 0
2,172599, Note_on_c, 0, 66, 0
2,172607, Control_c, 0, 64, 100
2,172700, Note_on_c, 0, 58, 0
2,172721, Control_c, 0, 64, 100
2,172741, Control_c, 0, 64, 98
2,172742, Note_on_c, 0, 51, 0
2,172760, Control_c, 0, 64, 96
2,172779, Control_c, 0, 64, 95
2,172798, Control_c, 0, 64, 94
2,172818, Control_c, 0, 64, 92
2,172837, Control_c, 0, 64, 91
2,172856, Control_c, 0, 64, 90
2,173010, Control_c, 0, 64, 89
2,173017, Note_on_c, 0, 56, 44
2,173029, Control_c, 0, 64, 88
2,173049, Control_c, 0, 64, 83
2,173064, Note_on_c, 0, 76, 69
2,173067, Control_c, 0, 64, 74
2,173087, Control_c, 0, 64, 64
2,173106, Control_c, 0, 64, 52
2,173125, Control_c, 0, 64, 38
2,173144, Control_c, 0, 64, 37
2,173183, Control_c, 0, 64, 37
2,173201, Control_c, 0, 64, 41
2,173221, Control_c, 0, 64, 46
2,173240, Control_c, 0, 64, 50
2,173259, Control_c, 0, 64, 53
2,173278, Control_c, 0, 64, 55
2,173298, Control_c, 0, 64, 57
2,173317, Control_c, 0, 64, 58
2,173336, Control_c, 0, 64, 60
2,173355, Control_c, 0, 64, 61
2,173375, Control_c, 0, 64, 62
2,173394, Control_c, 0, 64, 63
2,173413, Control_c, 0, 64, 64
2,173432, Control_c, 0, 64, 65
2,173452, Control_c, 0, 64, 66
2,173454, Note_on_c, 0, 49, 45
2,173470, Control_c, 0, 64, 67
2,173490, Control_c, 0, 64, 68
2,173509, Control_c, 0, 64, 70
2,173529, Control_c, 0, 64, 71
2,173547, Control_c, 0, 64, 73
2,173567, Control_c, 0, 64, 74
2,173681, Control_c, 0, 64, 73
2,173758, Control_c, 0, 64, 73
2,173778, Control_c, 0, 64, 72
2,173797, Control_c, 0, 64, 70
2,173816, Control_c, 0, 64, 67
2,173835, Control_c, 0, 64, 62
2,173855, Control_c, 0, 64, 55
2,173855, Note_on_c, 0, 73, 50
2,173866, Note_on_c, 0, 47, 40
2,173874, Control_c, 0, 64, 54
2,173893, Control_c, 0, 64, 57
2,173908, Note_on_c, 0, 49, 0
2,173912, Control_c, 0, 64, 59
2,173932, Control_c, 0, 64, 61
2,173932, Control_c, 0, 67, 10
2,173950, Control_c, 0, 64, 62
2,173950, Control_c, 0, 67, 18
2,173970, Control_c, 0, 64, 64
2,173970, Control_c, 0, 67, 29
2,173989, Control_c, 0, 64, 65
2,173989, Control_c, 0, 67, 39
2,174009, Control_c, 0, 64, 66
2,174009, Control_c, 0, 67, 47
2,174027, Control_c, 0, 67, 56
2,174047, Control_c, 0, 67, 61
2,174066, Control_c, 0, 67, 64
2,174085, Control_c, 0, 64, 67
2,174085, Control_c, 0, 67, 65
2,174104, Control_c, 0, 64, 66
2,174123, Control_c, 0, 64, 66
2,174143, Control_c, 0, 64, 64
2,174143, Control_c, 0, 67, 64
2,174161, Control_c, 0, 64, 60
2,174161, Control_c, 0, 67, 63
2,174181, Control_c, 0, 64, 55
2,174181, Control_c, 0, 67, 62
2,174200, Control_c, 0, 64, 54
2,174200, Control_c, 0, 67, 61
2,174219, Control_c, 0, 64, 56
2,174219, Control_c, 0, 67, 60
2,174238, Control_c, 0, 64, 59
2,174238, Control_c, 0, 67, 59
2,174243, Note_on_c, 0, 47, 0
2,174251, Note_on_c, 0, 46, 43
2,174258, Control_c, 0, 64, 62
2,174258, Control_c, 0, 67, 58
2,174277, Control_c, 0, 64, 64
2,174277, Control_c, 0, 67, 58
2,174296, Control_c, 0, 64, 66
2,174296, Control_c, 0, 67, 57
2,174315, Control_c, 0, 64, 68
2,174315, Control_c, 0, 67, 56
2,174335, Control_c, 0, 64, 68
2,174335, Control_c, 0, 67, 55
2,174354, Control_c, 0, 64, 68
2,174354, Control_c, 0, 67, 55
2,174373, Control_c, 0, 67, 54
2,174392, Control_c, 0, 67, 54
2,174412, Control_c, 0, 67, 53
2,174430, Control_c, 0, 67, 53
2,174450, Control_c, 0, 64, 67
2,174546, Control_c, 0, 64, 67
2,174565, Control_c, 0, 64, 65
2,174584, Control_c, 0, 64, 63
2,174584, Control_c, 0, 67, 52
2,174603, Control_c, 0, 64, 59
2,174623, Control_c, 0, 64, 56
2,174623, Control_c, 0, 67, 52
2,174627, Note_on_c, 0, 46, 0
2,174641, Control_c, 0, 64, 55
2,174651, Note_on_c, 0, 47, 41
2,174661, Control_c, 0, 64, 56
2,174661, Control_c, 0, 67, 51
2,174669, Note_on_c, 0, 66, 38
2,174680, Control_c, 0, 64, 59
2,174680, Control_c, 0, 67, 50
2,174699, Control_c, 0, 64, 62
2,174699, Control_c, 0, 67, 49
2,174718, Control_c, 0, 64, 64
2,174718, Control_c, 0, 67, 48
2,174726, Note_on_c, 0, 56, 0
2,174738, Control_c, 0, 64, 65
2,174738, Control_c, 0, 67, 45
2,174757, Control_c, 0, 64, 66
2,174757, Control_c, 0, 67, 42
2,174776, Control_c, 0, 64, 66
2,174776, Control_c, 0, 67, 39
2,174795, Control_c, 0, 64, 67
2,174795, Control_c, 0, 67, 36
2,174815, Control_c, 0, 64, 67
2,174815, Control_c, 0, 67, 33
2,174834, Control_c, 0, 64, 68
2,174834, Control_c, 0, 67, 30
2,174853, Control_c, 0, 67, 25
2,174872, Control_c, 0, 67, 22
2,174892, Control_c, 0, 67, 17
2,174910, Control_c, 0, 64, 68
2,174910, Control_c, 0, 67, 12
2,174930, Control_c, 0, 64, 69
2,174930, Control_c, 0, 67, 0
2,174949, Control_c, 0, 64, 70
2,174969, Control_c, 0, 64, 71
2,175007, Control_c, 0, 64, 71
2,175035, Note_on_c, 0, 76, 0
2,175061, Control_c, 0, 64, 72
2,175080, Control_c, 0, 64, 73
2,175086, Note_on_c, 0, 74, 52
2,175100, Control_c, 0, 64, 73
2,175118, Control_c, 0, 64, 74
2,175138, Control_c, 0, 64, 75
2,175156, Note_on_c, 0, 73, 0
2,175157, Control_c, 0, 64, 75
2,175177, Control_c, 0, 64, 76
2,175272, Control_c, 0, 64, 75
2,175311, Control_c, 0, 64, 75
2,175330, Control_c, 0, 64, 74
2,175349, Control_c, 0, 64, 71
2,175369, Control_c, 0, 64, 65
2,175388, Control_c, 0, 64, 60
2,175396, Note_on_c, 0, 47, 0
2,175407, Control_c, 0, 64, 57
2,175426, Control_c, 0, 64, 58
2,175446, Control_c, 0, 64, 59
2,175464, Control_c, 0, 64, 61
2,175469, Note_on_c, 0, 75, 55
2,175478, Note_on_c, 0, 71, 48
2,175483, Control_c, 0, 64, 63
2,175503, Control_c, 0, 64, 65
2,175516, Note_on_c, 0, 59, 34
2,175521, Note_on_c, 0, 74, 0
2,175522, Control_c, 0, 64, 66
2,175541, Control_c, 0, 64, 67
2,175560, Control_c, 0, 64, 69
2,175580, Control_c, 0, 64, 70
2,175605, Control_c, 0, 64, 71
2,175624, Control_c, 0, 64, 72
2,175701, Control_c, 0, 64, 72
2,175719, Control_c, 0, 64, 73
2,175739, Control_c, 0, 64, 72
2,175758, Control_c, 0, 64, 70
2,175778, Control_c, 0, 64, 64
2,175796, Control_c, 0, 64, 57
2,175816, Control_c, 0, 64, 53
2,175835, Control_c, 0, 64, 55
2,175854, Control_c, 0, 64, 58
2,175873, Control_c, 0, 64, 61
2,175883, Note_on_c, 0, 58, 48
2,175893, Control_c, 0, 64, 63
2,175912, Control_c, 0, 64, 66
2,175931, Control_c, 0, 64, 68
2,175934, Note_on_c, 0, 59, 0
2,175950, Control_c, 0, 64, 70
2,175970, Control_c, 0, 64, 73
2,175989, Control_c, 0, 64, 74
2,176008, Control_c, 0, 64, 75
2,176022, Note_on_c, 0, 66, 0
2,176086, Note_on_c, 0, 71, 0
2,176217, Control_c, 0, 64, 74
2,176236, Control_c, 0, 64, 70
2,176256, Control_c, 0, 64, 63
2,176264, Note_on_c, 0, 58, 0
2,176269, Note_on_c, 0, 56, 52
2,176274, Control_c, 0, 64, 49
2,176275, Note_on_c, 0, 71, 53
2,176294, Control_c, 0, 64, 36
2,176313, Control_c, 0, 64, 37
2,176333, Control_c, 0, 64, 45
2,176351, Control_c, 0, 64, 56
2,176363, Note_on_c, 0, 75, 0
2,176371, Control_c, 0, 64, 63
2,176390, Control_c, 0, 64, 66
2,176409, Control_c, 0, 64, 68
2,176428, Control_c, 0, 64, 72
2,176448, Control_c, 0, 64, 75
2,176467, Control_c, 0, 64, 77
2,176525, Control_c, 0, 64, 77
2,176602, Control_c, 0, 64, 78
2,176640, Control_c, 0, 64, 76
2,176660, Control_c, 0, 64, 70
2,176678, Control_c, 0, 64, 62
2,176680, Note_on_c, 0, 56, 0
2,176694, Note_on_c, 0, 58, 51
2,176694, Note_on_c, 0, 78, 58
2,176698, Control_c, 0, 64, 45
2,176717, Control_c, 0, 64, 39
2,176733, Note_on_c, 0, 70, 45
2,176737, Control_c, 0, 64, 46
2,176755, Control_c, 0, 64, 57
2,176775, Control_c, 0, 64, 63
2,176794, Control_c, 0, 64, 66
2,176814, Control_c, 0, 64, 70
2,176832, Control_c, 0, 64, 75
2,176852, Control_c, 0, 64, 80
2,176871, Control_c, 0, 64, 82
2,176930, Note_on_c, 0, 70, 0
2,176947, Note_on_c, 0, 78, 0
2,176967, Control_c, 0, 64, 81
2,176985, Control_c, 0, 64, 80
2,177005, Control_c, 0, 64, 74
2,177024, Control_c, 0, 64, 65
2,177042, Control_c, 0, 64, 53
2,177062, Control_c, 0, 64, 49
2,177081, Control_c, 0, 64, 56
2,177085, Note_on_c, 0, 59, 62
2,177098, Note_on_c, 0, 77, 62
2,177100, Control_c, 0, 64, 61
2,177110, Note_on_c, 0, 68, 55
2,177119, Control_c, 0, 64, 64
2,177139, Control_c, 0, 64, 68
2,177148, Note_on_c, 0, 58, 0
2,177158, Control_c, 0, 64, 72
2,177177, Control_c, 0, 64, 76
2,177196, Control_c, 0, 64, 80
2,177216, Control_c, 0, 64, 81
2,177234, Control_c, 0, 64, 82
2,177293, Control_c, 0, 64, 82
2,177312, Note_on_c, 0, 68, 0
2,177369, Control_c, 0, 64, 82
2,177388, Control_c, 0, 64, 78
2,177408, Control_c, 0, 64, 71
2,177427, Control_c, 0, 64, 60
2,177446, Control_c, 0, 64, 51
2,177465, Control_c, 0, 64, 52
2,177478, Note_on_c, 0, 56, 62
2,177484, Control_c, 0, 64, 56
2,177488, Note_on_c, 0, 75, 66
2,177496, Note_on_c, 0, 59, 0
2,177503, Note_on_c, 0, 66, 52
2,177504, Control_c, 0, 64, 59
2,177526, Control_c, 0, 64, 63
2,177545, Control_c, 0, 64, 66
2,177563, Control_c, 0, 64, 70
2,177583, Control_c, 0, 64, 76
2,177602, Control_c, 0, 64, 81
2,177622, Control_c, 0, 64, 83
2,177629, Note_on_c, 0, 66, 0
2,177634, Note_on_c, 0, 56, 0
2,177652, Note_on_c, 0, 71, 0
2,177694, Note_on_c, 0, 75, 0
2,177697, Note_on_c, 0, 77, 0
2,177891, Control_c, 0, 64, 82
2,177909, Control_c, 0, 64, 81
2,177917, Note_on_c, 0, 65, 52
2,177929, Control_c, 0, 64, 77
2,177943, Note_on_c, 0, 74, 81
2,177944, Control_c, 0, 64, 68
2,177963, Control_c, 0, 64, 59
2,177983, Control_c, 0, 64, 49
2,178001, Control_c, 0, 64, 53
2,178021, Control_c, 0, 64, 59
2,178040, Control_c, 0, 64, 62
2,178059, Control_c, 0, 64, 64
2,178078, Control_c, 0, 64, 67
2,178098, Control_c, 0, 64, 70
2,178117, Control_c, 0, 64, 74
2,178136, Control_c, 0, 64, 77
2,178155, Control_c, 0, 64, 78
2,178213, Control_c, 0, 64, 79
2,178270, Control_c, 0, 64, 76
2,178290, Control_c, 0, 64, 70
2,178309, Control_c, 0, 64, 63
2,178329, Control_c, 0, 64, 53
2,178336, Note_on_c, 0, 63, 64
2,178347, Control_c, 0, 64, 53
2,178362, Note_on_c, 0, 77, 75
2,178367, Control_c, 0, 64, 57
2,178386, Control_c, 0, 64, 62
2,178404, Control_c, 0, 64, 65
2,178424, Control_c, 0, 64, 68
2,178443, Control_c, 0, 64, 72
2,178463, Control_c, 0, 64, 77
2,178483, Control_c, 0, 64, 79
2,178509, Note_on_c, 0, 65, 0
2,178522, Control_c, 0, 64, 78
2,178618, Control_c, 0, 64, 78
2,178675, Control_c, 0, 64, 76
2,178695, Control_c, 0, 64, 70
2,178703, Note_on_c, 0, 62, 57
2,178714, Control_c, 0, 64, 61
2,178734, Control_c, 0, 64, 41
2,178751, Note_on_c, 0, 82, 78
2,178752, Control_c, 0, 64, 24
2,178791, Control_c, 0, 64, 34
2,178810, Control_c, 0, 64, 51
2,178812, Note_on_c, 0, 63, 0
2,178829, Control_c, 0, 64, 61
2,178849, Control_c, 0, 64, 64
2,178868, Control_c, 0, 64, 66
2,178887, Control_c, 0, 64, 68
2,178904, Control_c, 0, 64, 70
2,178923, Control_c, 0, 64, 72
2,178943, Control_c, 0, 64, 72
2,179038, Control_c, 0, 64, 72
2,179077, Control_c, 0, 64, 71
2,179077, Control_c, 0, 67, 10
2,179096, Control_c, 0, 64, 69
2,179096, Control_c, 0, 67, 17
2,179115, Control_c, 0, 64, 64
2,179115, Control_c, 0, 67, 25
2,179135, Control_c, 0, 64, 54
2,179135, Control_c, 0, 67, 35
2,179154, Control_c, 0, 64, 34
2,179154, Control_c, 0, 67, 46
2,179173, Control_c, 0, 64, 0
2,179173, Control_c, 0, 67, 58
2,179181, Note_on_c, 0, 65, 44
2,179186, Note_on_c, 0, 56, 37
2,179192, Control_c, 0, 67, 67
2,179209, Note_on_c, 0, 62, 0
2,179212, Control_c, 0, 67, 74
2,179230, Control_c, 0, 64, 34
2,179230, Control_c, 0, 67, 80
2,179250, Control_c, 0, 64, 56
2,179250, Control_c, 0, 67, 86
2,179269, Control_c, 0, 64, 64
2,179269, Control_c, 0, 67, 91
2,179289, Control_c, 0, 64, 67
2,179289, Control_c, 0, 67, 94
2,179307, Control_c, 0, 64, 71
2,179307, Control_c, 0, 67, 97
2,179327, Control_c, 0, 64, 78
2,179327, Control_c, 0, 67, 99
2,179346, Control_c, 0, 64, 86
2,179346, Control_c, 0, 67, 100
2,179364, Control_c, 0, 64, 89
2,179364, Control_c, 0, 67, 101
2,179384, Control_c, 0, 64, 90
2,179397, Note_on_c, 0, 65, 0
2,179414, Note_on_c, 0, 56, 0
2,179577, Control_c, 0, 64, 89
2,179596, Control_c, 0, 64, 88
2,179616, Control_c, 0, 64, 88
2,179634, Control_c, 0, 64, 87
2,179654, Control_c, 0, 64, 85
2,179654, Control_c, 0, 67, 101
2,179673, Control_c, 0, 64, 80
2,179673, Control_c, 0, 67, 102
2,179691, Note_on_c, 0, 58, 39
2,179693, Control_c, 0, 64, 70
2,179693, Control_c, 0, 67, 103
2,179711, Control_c, 0, 64, 60
2,179711, Control_c, 0, 67, 107
2,179718, Note_on_c, 0, 54, 30
2,179731, Control_c, 0, 64, 29
2,179731, Control_c, 0, 67, 115
2,179750, Control_c, 0, 64, 0
2,179750, Control_c, 0, 67, 124
2,179769, Control_c, 0, 67, 127
2,179788, Control_c, 0, 64, 23
2,179808, Control_c, 0, 64, 49
2,179827, Control_c, 0, 64, 62
2,179846, Control_c, 0, 64, 66
2,179864, Control_c, 0, 64, 70
2,179883, Control_c, 0, 64, 76
2,179903, Control_c, 0, 64, 87
2,179921, Control_c, 0, 64, 95
2,179934, Note_on_c, 0, 58, 0
2,179941, Control_c, 0, 64, 98
2,179961, Note_on_c, 0, 54, 0
2,180075, Control_c, 0, 64, 97
2,180114, Control_c, 0, 64, 97
2,180152, Control_c, 0, 64, 96
2,180172, Control_c, 0, 64, 95
2,180190, Control_c, 0, 64, 89
2,180202, Note_on_c, 0, 68, 48
2,180208, Note_on_c, 0, 56, 39
2,180210, Control_c, 0, 64, 78
2,180215, Note_on_c, 0, 83, 52
2,180226, Note_on_c, 0, 82, 0
2,180229, Control_c, 0, 64, 67
2,180249, Control_c, 0, 64, 56
2,180258, Note_on_c, 0, 74, 0
2,180267, Control_c, 0, 64, 50
2,180287, Control_c, 0, 64, 56
2,180306, Control_c, 0, 64, 62
2,180324, Control_c, 0, 64, 64
2,180344, Control_c, 0, 64, 67
2,180363, Control_c, 0, 64, 70
2,180371, Note_on_c, 0, 68, 0
2,180383, Control_c, 0, 64, 73
2,180403, Control_c, 0, 64, 76
2,180423, Control_c, 0, 64, 77
2,180461, Control_c, 0, 64, 76
2,180518, Control_c, 0, 64, 75
2,180538, Control_c, 0, 64, 70
2,180557, Control_c, 0, 64, 61
2,180577, Control_c, 0, 64, 37
2,180595, Control_c, 0, 64, 0
2,180624, Note_on_c, 0, 66, 45
2,180627, Note_on_c, 0, 56, 0
2,180629, Note_on_c, 0, 82, 62
2,180634, Control_c, 0, 64, 37
2,180638, Note_on_c, 0, 58, 41
2,180654, Control_c, 0, 64, 58
2,180672, Control_c, 0, 64, 65
2,180692, Control_c, 0, 64, 69
2,180711, Control_c, 0, 64, 74
2,180730, Control_c, 0, 64, 82
2,180749, Control_c, 0, 64, 87
2,180763, Note_on_c, 0, 83, 0
2,180769, Control_c, 0, 64, 88
2,180880, Control_c, 0, 64, 88
2,180900, Control_c, 0, 64, 87
2,180919, Control_c, 0, 64, 83
2,180921, Note_on_c, 0, 66, 0
2,180939, Control_c, 0, 64, 72
2,180953, Note_on_c, 0, 77, 0
2,180957, Control_c, 0, 64, 61
2,180977, Control_c, 0, 64, 41
2,180996, Control_c, 0, 64, 44
2,181013, Note_on_c, 0, 80, 66
2,181015, Control_c, 0, 64, 56
2,181030, Note_on_c, 0, 65, 48
2,181034, Control_c, 0, 64, 62
2,181054, Control_c, 0, 64, 66
2,181073, Control_c, 0, 64, 69
2,181092, Control_c, 0, 64, 75
2,181099, Note_on_c, 0, 65, 0
2,181111, Control_c, 0, 64, 81
2,181120, Note_on_c, 0, 58, 0
2,181131, Control_c, 0, 64, 84
2,181169, Control_c, 0, 64, 83
2,181246, Control_c, 0, 64, 83
2,181322, Control_c, 0, 64, 82
2,181342, Control_c, 0, 64, 79
2,181362, Control_c, 0, 64, 72
2,181382, Control_c, 0, 64, 62
2,181401, Control_c, 0, 64, 27
2,181420, Control_c, 0, 64, 0
2,181425, Note_on_c, 0, 78, 63
2,181440, Note_on_c, 0, 82, 0
2,181442, Note_on_c, 0, 63, 42
2,181446, Note_on_c, 0, 51, 39
2,181459, Control_c, 0, 64, 15
2,181478, Control_c, 0, 64, 53
2,181497, Control_c, 0, 64, 64
2,181516, Control_c, 0, 64, 67
2,181534, Note_on_c, 0, 80, 0
2,181536, Control_c, 0, 64, 71
2,181554, Control_c, 0, 64, 75
2,181574, Control_c, 0, 64, 78
2,181593, Control_c, 0, 64, 79
2,181613, Control_c, 0, 64, 79
2,181651, Control_c, 0, 64, 79
2,181708, Control_c, 0, 64, 78
2,181728, Control_c, 0, 64, 77
2,181747, Control_c, 0, 64, 71
2,181766, Control_c, 0, 64, 62
2,181784, Control_c, 0, 64, 37
2,181789, Note_on_c, 0, 51, 0
2,181803, Control_c, 0, 64, 9
2,181823, Control_c, 0, 64, 17
2,181825, Note_on_c, 0, 53, 49
2,181841, Control_c, 0, 64, 36
2,181841, Note_on_c, 0, 80, 65
2,181861, Control_c, 0, 64, 54
2,181880, Control_c, 0, 64, 62
2,181893, Note_on_c, 0, 78, 0
2,181899, Control_c, 0, 64, 64
2,181918, Control_c, 0, 64, 66
2,181938, Control_c, 0, 64, 67
2,181957, Control_c, 0, 64, 68
2,181976, Control_c, 0, 64, 68
2,182015, Control_c, 0, 64, 68
2,182092, Control_c, 0, 64, 67
2,182161, Note_on_c, 0, 63, 0
2,182187, Control_c, 0, 64, 67
2,182200, Note_on_c, 0, 55, 41
2,182207, Control_c, 0, 64, 65
2,182219, Note_on_c, 0, 53, 0
2,182225, Note_on_c, 0, 82, 62
2,182226, Control_c, 0, 64, 63
2,182230, Note_on_c, 0, 80, 0
2,182244, Control_c, 0, 64, 59
2,182255, Note_on_c, 0, 75, 38
2,182264, Control_c, 0, 64, 52
2,182283, Control_c, 0, 64, 36
2,182303, Control_c, 0, 64, 11
2,182322, Control_c, 0, 64, 0
2,182419, Control_c, 0, 64, 26
2,182438, Control_c, 0, 64, 38
2,182457, Control_c, 0, 64, 49
2,182476, Control_c, 0, 64, 56
2,182496, Control_c, 0, 64, 60
2,182514, Control_c, 0, 64, 63
2,182534, Control_c, 0, 64, 65
2,182553, Control_c, 0, 64, 67
2,182573, Control_c, 0, 64, 71
2,182591, Control_c, 0, 64, 76
2,182611, Control_c, 0, 64, 81
2,182621, Note_on_c, 0, 73, 46
2,182630, Control_c, 0, 64, 83
2,182668, Control_c, 0, 64, 82
2,182680, Note_on_c, 0, 75, 0
2,182688, Control_c, 0, 64, 80
2,182722, Note_on_c, 0, 73, 0
2,182738, Note_on_c, 0, 82, 0
2,182744, Control_c, 0, 64, 81
2,182750, Note_on_c, 0, 55, 0
2,182859, Control_c, 0, 64, 80
2,182975, Control_c, 0, 64, 79
2,182994, Control_c, 0, 64, 75
2,183013, Control_c, 0, 64, 67
2,183021, Note_on_c, 0, 56, 42
2,183021, Note_on_c, 0, 75, 63
2,183032, Control_c, 0, 64, 57
2,183052, Control_c, 0, 64, 38
2,183059, Note_on_c, 0, 71, 43
2,183070, Control_c, 0, 64, 32
2,183090, Control_c, 0, 64, 34
2,183109, Control_c, 0, 64, 44
2,183129, Control_c, 0, 64, 55
2,183147, Control_c, 0, 64, 61
2,183167, Control_c, 0, 64, 63
2,183186, Control_c, 0, 64, 64
2,183204, Control_c, 0, 64, 64
2,183281, Control_c, 0, 64, 63
2,183301, Control_c, 0, 64, 61
2,183320, Control_c, 0, 64, 54
2,183339, Control_c, 0, 64, 39
2,183358, Control_c, 0, 64, 31
2,183397, Control_c, 0, 64, 42
2,183416, Control_c, 0, 64, 57
2,183433, Note_on_c, 0, 54, 44
2,183435, Control_c, 0, 64, 64
2,183442, Note_on_c, 0, 56, 0
2,183453, Note_on_c, 0, 70, 45
2,183455, Control_c, 0, 64, 66
2,183474, Control_c, 0, 64, 70
2,183493, Control_c, 0, 64, 73
2,183506, Note_on_c, 0, 71, 0
2,183512, Control_c, 0, 64, 76
2,183532, Control_c, 0, 64, 78
2,183545, Note_on_c, 0, 70, 0
2,183550, Control_c, 0, 64, 78
2,183570, Control_c, 0, 64, 78
2,183627, Control_c, 0, 64, 77
2,183647, Control_c, 0, 64, 77
2,183723, Control_c, 0, 64, 76
2,183729, Note_on_c, 0, 54, 0
2,183743, Control_c, 0, 64, 76
2,183761, Control_c, 0, 64, 75
2,183781, Control_c, 0, 64, 75
2,183800, Control_c, 0, 64, 73
2,183819, Control_c, 0, 64, 70
2,183838, Control_c, 0, 64, 64
2,183844, Note_on_c, 0, 53, 39
2,183845, Note_on_c, 0, 80, 71
2,183858, Control_c, 0, 64, 55
2,183877, Control_c, 0, 64, 41
2,183892, Note_on_c, 0, 68, 44
2,183896, Control_c, 0, 64, 31
2,183915, Control_c, 0, 64, 28
2,183943, Note_on_c, 0, 75, 0
2,184030, Control_c, 0, 64, 30
2,184050, Control_c, 0, 64, 33
2,184069, Control_c, 0, 64, 38
2,184089, Control_c, 0, 64, 43
2,184107, Control_c, 0, 64, 48
2,184127, Control_c, 0, 64, 52
2,184146, Control_c, 0, 64, 56
2,184164, Control_c, 0, 64, 60
2,184176, Note_on_c, 0, 53, 0
2,184184, Control_c, 0, 64, 62
2,184203, Control_c, 0, 64, 63
2,184223, Control_c, 0, 64, 65
2,184242, Control_c, 0, 64, 66
2,184247, Note_on_c, 0, 68, 0
2,184249, Note_on_c, 0, 51, 42
2,184258, Note_on_c, 0, 71, 51
2,184262, Control_c, 0, 64, 68
2,184281, Control_c, 0, 64, 71
2,184300, Control_c, 0, 64, 73
2,184319, Control_c, 0, 64, 75
2,184396, Control_c, 0, 64, 75
2,184493, Control_c, 0, 64, 75
2,184531, Control_c, 0, 64, 74
2,184569, Control_c, 0, 64, 73
2,184588, Control_c, 0, 64, 72
2,184608, Control_c, 0, 64, 70
2,184627, Control_c, 0, 64, 64
2,184645, Control_c, 0, 64, 50
2,184658, Note_on_c, 0, 51, 0
2,184666, Control_c, 0, 64, 25
2,184675, Note_on_c, 0, 70, 54
2,184680, Note_on_c, 0, 50, 40
2,184685, Control_c, 0, 64, 13
2,184723, Control_c, 0, 64, 32
2,184743, Control_c, 0, 64, 52
2,184762, Control_c, 0, 64, 62
2,184781, Control_c, 0, 64, 65
2,184800, Control_c, 0, 64, 66
2,184820, Control_c, 0, 64, 68
2,184839, Control_c, 0, 64, 70
2,184858, Control_c, 0, 64, 73
2,184877, Control_c, 0, 64, 75
2,184897, Control_c, 0, 64, 77
2,184903, Note_on_c, 0, 80, 0
2,184915, Control_c, 0, 64, 77
2,184954, Control_c, 0, 64, 78
2,184974, Control_c, 0, 64, 78
2,184992, Control_c, 0, 64, 79
2,185012, Control_c, 0, 64, 78
2,185019, Note_on_c, 0, 50, 0
2,185031, Control_c, 0, 64, 75
2,185050, Control_c, 0, 64, 67
2,185069, Control_c, 0, 64, 57
2,185070, Note_on_c, 0, 78, 68
2,185079, Note_on_c, 0, 51, 43
2,185089, Control_c, 0, 64, 38
2,185104, Note_on_c, 0, 75, 48
2,185108, Control_c, 0, 64, 36
2,185127, Control_c, 0, 64, 45
2,185127, Note_on_c, 0, 71, 0
2,185146, Control_c, 0, 64, 55
2,185165, Control_c, 0, 64, 62
2,185184, Control_c, 0, 64, 64
2,185203, Control_c, 0, 64, 66
2,185223, Control_c, 0, 64, 68
2,185242, Control_c, 0, 64, 71
2,185261, Control_c, 0, 64, 73
2,185280, Control_c, 0, 64, 74
2,185395, Control_c, 0, 64, 73
2,185415, Control_c, 0, 64, 72
2,185434, Control_c, 0, 64, 69
2,185454, Control_c, 0, 64, 63
2,185465, Note_on_c, 0, 51, 0
2,185472, Control_c, 0, 64, 47
2,185480, Note_on_c, 0, 46, 41
2,185482, Note_on_c, 0, 77, 68
2,185492, Control_c, 0, 64, 9
2,185511, Control_c, 0, 64, 0
2,185514, Note_on_c, 0, 75, 0
2,185739, Control_c, 0, 64, 17
2,185757, Control_c, 0, 64, 35
2,185777, Control_c, 0, 64, 49
2,185796, Control_c, 0, 64, 58
2,185815, Control_c, 0, 64, 62
2,185834, Control_c, 0, 64, 64
2,185854, Control_c, 0, 64, 66
2,185873, Control_c, 0, 64, 68
2,185885, Note_on_c, 0, 73, 53
2,185892, Control_c, 0, 64, 72
2,185895, Note_on_c, 0, 58, 41
2,185911, Control_c, 0, 64, 78
2,185931, Control_c, 0, 64, 85
2,185949, Control_c, 0, 64, 91
2,185949, Note_on_c, 0, 46, 0
2,185961, Note_on_c, 0, 78, 0
2,185969, Control_c, 0, 64, 94
2,185969, Note_on_c, 0, 77, 0
2,185988, Control_c, 0, 64, 96
2,186008, Control_c, 0, 64, 99
2,186026, Control_c, 0, 64, 102
2,186041, Note_on_c, 0, 58, 0
2,186045, Control_c, 0, 64, 103
2,186065, Control_c, 0, 64, 104
2,186142, Control_c, 0, 64, 103
2,186160, Control_c, 0, 64, 103
2,186180, Control_c, 0, 64, 102
2,186199, Control_c, 0, 64, 102
2,186219, Control_c, 0, 64, 101
2,186237, Control_c, 0, 64, 100
2,186257, Control_c, 0, 64, 99
2,186276, Control_c, 0, 64, 96
2,186295, Control_c, 0, 64, 94
2,186306, Note_on_c, 0, 59, 46
2,186314, Control_c, 0, 64, 91
2,186334, Control_c, 0, 64, 87
2,186353, Control_c, 0, 64, 83
2,186353, Note_on_c, 0, 75, 73
2,186372, Control_c, 0, 64, 77
2,186391, Control_c, 0, 64, 69
2,186407, Note_on_c, 0, 70, 0
2,186411, Control_c, 0, 64, 62
2,186429, Control_c, 0, 64, 51
2,186449, Control_c, 0, 64, 43
2,186468, Control_c, 0, 64, 40
2,186488, Control_c, 0, 64, 37
2,186506, Control_c, 0, 64, 36
2,186536, Note_on_c, 0, 73, 0
2,186563, Control_c, 0, 64, 36
2,186583, Control_c, 0, 64, 37
2,186602, Control_c, 0, 64, 39
2,186622, Control_c, 0, 64, 42
2,186640, Control_c, 0, 64, 46
2,186660, Control_c, 0, 64, 50
2,186679, Control_c, 0, 64, 54
2,186699, Control_c, 0, 64, 57
2,186717, Control_c, 0, 64, 60
2,186737, Control_c, 0, 64, 62
2,186752, Note_on_c, 0, 71, 51
2,186756, Control_c, 0, 64, 64
2,186767, Note_on_c, 0, 51, 34
2,186775, Control_c, 0, 64, 65
2,186794, Control_c, 0, 64, 67
2,186814, Control_c, 0, 64, 70
2,186826, Note_on_c, 0, 59, 0
2,186833, Control_c, 0, 64, 74
2,186852, Control_c, 0, 64, 78
2,186871, Control_c, 0, 64, 80
2,186891, Control_c, 0, 64, 81
2,186979, Note_on_c, 0, 75, 0
2,187063, Control_c, 0, 64, 81
2,187082, Control_c, 0, 64, 80
2,187102, Control_c, 0, 64, 79
2,187120, Control_c, 0, 64, 79
2,187139, Note_on_c, 0, 53, 41
2,187140, Control_c, 0, 64, 78
2,187159, Control_c, 0, 64, 76
2,187179, Control_c, 0, 64, 72
2,187183, Note_on_c, 0, 73, 64
2,187191, Note_on_c, 0, 51, 0
2,187197, Control_c, 0, 64, 68
2,187217, Control_c, 0, 64, 65
2,187236, Control_c, 0, 64, 62
2,187255, Control_c, 0, 64, 60
2,187274, Control_c, 0, 64, 58
2,187294, Control_c, 0, 64, 56
2,187294, Note_on_c, 0, 71, 0
2,187313, Control_c, 0, 64, 54
2,187332, Control_c, 0, 64, 51
2,187351, Control_c, 0, 64, 50
2,187371, Control_c, 0, 64, 50
2,187389, Control_c, 0, 64, 49
2,187409, Control_c, 0, 64, 49
2,187448, Control_c, 0, 64, 49
2,187466, Control_c, 0, 64, 51
2,187485, Control_c, 0, 64, 53
2,187505, Control_c, 0, 64, 56
2,187523, Control_c, 0, 64, 59
2,187543, Control_c, 0, 64, 62
2,187562, Control_c, 0, 64, 63
2,187574, Note_on_c, 0, 70, 49
2,187582, Control_c, 0, 64, 65
2,187595, Note_on_c, 0, 55, 10
2,187600, Control_c, 0, 64, 68
2,187620, Control_c, 0, 64, 70
2,187639, Control_c, 0, 64, 73
2,187659, Control_c, 0, 64, 75
2,187677, Control_c, 0, 64, 76
2,187696, Note_on_c, 0, 70, 0
2,187696, Note_on_c, 0, 73, 0
2,187697, Control_c, 0, 64, 78
2,187712, Note_on_c, 0, 53, 0
2,187716, Control_c, 0, 64, 79
2,187735, Control_c, 0, 64, 80
2,187793, Control_c, 0, 64, 79
2,187851, Control_c, 0, 64, 79
2,187889, Control_c, 0, 64, 78
2,187908, Control_c, 0, 64, 77
2,187928, Control_c, 0, 64, 76
2,187946, Control_c, 0, 64, 74
2,187958, Note_on_c, 0, 71, 58
2,187960, Note_on_c, 0, 56, 41
2,187965, Control_c, 0, 64, 70
2,187985, Control_c, 0, 64, 65
2,187985, Note_on_c, 0, 55, 0
2,188003, Control_c, 0, 64, 58
2,188023, Control_c, 0, 64, 53
2,188042, Control_c, 0, 64, 51
2,188062, Control_c, 0, 64, 48
2,188080, Control_c, 0, 64, 45
2,188100, Control_c, 0, 64, 43
2,188119, Control_c, 0, 64, 42
2,188254, Control_c, 0, 64, 43
2,188273, Control_c, 0, 64, 45
2,188292, Control_c, 0, 64, 50
2,188311, Control_c, 0, 64, 55
2,188331, Control_c, 0, 64, 60
2,188349, Control_c, 0, 64, 62
2,188356, Note_on_c, 0, 53, 40
2,188369, Control_c, 0, 64, 64
2,188376, Note_on_c, 0, 68, 40
2,188388, Control_c, 0, 64, 66
2,188408, Control_c, 0, 64, 67
2,188412, Note_on_c, 0, 56, 0
2,188426, Control_c, 0, 64, 70
2,188445, Control_c, 0, 64, 73
2,188465, Control_c, 0, 64, 75
2,188483, Control_c, 0, 64, 77
2,188493, Note_on_c, 0, 71, 0
2,188503, Control_c, 0, 64, 78
2,188619, Control_c, 0, 64, 77
2,188637, Control_c, 0, 64, 77
2,188657, Control_c, 0, 64, 76
2,188676, Control_c, 0, 64, 75
2,188695, Control_c, 0, 64, 73
2,188714, Control_c, 0, 64, 69
2,188734, Control_c, 0, 64, 64
2,188742, Note_on_c, 0, 53, 0
2,188753, Control_c, 0, 64, 57
2,188772, Control_c, 0, 64, 51
2,188777, Note_on_c, 0, 70, 58
2,188791, Control_c, 0, 64, 49
2,188792, Note_on_c, 0, 50, 34
2,188811, Control_c, 0, 64, 48
2,188822, Note_on_c, 0, 68, 0
2,188829, Control_c, 0, 64, 47
2,188868, Control_c, 0, 64, 47
2,189041, Control_c, 0, 64, 47
2,189080, Control_c, 0, 64, 48
2,189099, Control_c, 0, 64, 50
2,189118, Control_c, 0, 64, 54
2,189138, Control_c, 0, 64, 58
2,189157, Control_c, 0, 64, 61
2,189169, Note_on_c, 0, 66, 40
2,189176, Control_c, 0, 64, 63
2,189188, Note_on_c, 0, 51, 34
2,189195, Control_c, 0, 64, 65
2,189196, Note_on_c, 0, 50, 0
2,189215, Control_c, 0, 64, 66
2,189234, Control_c, 0, 64, 67
2,189253, Control_c, 0, 64, 69
2,189264, Note_on_c, 0, 51, 0
2,189272, Control_c, 0, 64, 70
2,189292, Control_c, 0, 64, 70
2,189330, Control_c, 0, 64, 71
2,189369, Control_c, 0, 64, 71
2,189503, Control_c, 0, 64, 71
2,189521, Control_c, 0, 64, 70
2,189541, Control_c, 0, 64, 65
2,189560, Control_c, 0, 64, 59
2,189579, Control_c, 0, 64, 45
2,189593, Note_on_c, 0, 48, 39
2,189598, Control_c, 0, 64, 38
2,189617, Note_on_c, 0, 68, 53
2,189637, Control_c, 0, 64, 42
2,189656, Control_c, 0, 64, 51
2,189675, Control_c, 0, 64, 60
2,189689, Note_on_c, 0, 66, 0
2,189695, Control_c, 0, 64, 63
2,189714, Control_c, 0, 64, 64
2,189716, Note_on_c, 0, 70, 0
2,189733, Control_c, 0, 64, 66
2,189752, Control_c, 0, 64, 67
2,189772, Control_c, 0, 64, 69
2,189790, Control_c, 0, 64, 69
2,189810, Control_c, 0, 64, 70
2,189886, Control_c, 0, 64, 70
2,189944, Control_c, 0, 64, 70
2,189963, Control_c, 0, 64, 67
2,189983, Control_c, 0, 64, 63
2,189998, Note_on_c, 0, 48, 0
2,190002, Control_c, 0, 64, 54
2,190022, Control_c, 0, 64, 49
2,190041, Control_c, 0, 64, 52
2,190059, Note_on_c, 0, 50, 31
2,190060, Control_c, 0, 64, 57
2,190065, Note_on_c, 0, 65, 41
2,190079, Control_c, 0, 64, 62
2,190099, Control_c, 0, 64, 65
2,190118, Control_c, 0, 64, 67
2,190137, Control_c, 0, 64, 71
2,190156, Control_c, 0, 64, 76
2,190176, Control_c, 0, 64, 81
2,190194, Control_c, 0, 64, 85
2,190214, Control_c, 0, 64, 85
2,190329, Control_c, 0, 64, 83
2,190348, Control_c, 0, 64, 74
2,190368, Control_c, 0, 64, 64
2,190387, Control_c, 0, 64, 43
2,190405, Control_c, 0, 64, 31
2,190421, Note_on_c, 0, 50, 0
2,190424, Control_c, 0, 64, 41
2,190437, Note_on_c, 0, 51, 44
2,190443, Control_c, 0, 64, 55
2,190450, Note_on_c, 0, 66, 49
2,190463, Control_c, 0, 64, 62
2,190481, Control_c, 0, 64, 65
2,190501, Control_c, 0, 64, 68
2,190520, Control_c, 0, 64, 71
2,190539, Control_c, 0, 64, 74
2,190558, Control_c, 0, 64, 75
2,190615, Note_on_c, 0, 65, 0
2,190809, Control_c, 0, 64, 75
2,190827, Control_c, 0, 64, 74
2,190846, Control_c, 0, 64, 71
2,190848, Note_on_c, 0, 39, 51
2,190866, Control_c, 0, 64, 64
2,190884, Control_c, 0, 64, 53
2,190884, Note_on_c, 0, 63, 47
2,190904, Control_c, 0, 64, 39
2,190943, Control_c, 0, 64, 46
2,190962, Control_c, 0, 64, 54
2,190963, Note_on_c, 0, 68, 0
2,190982, Control_c, 0, 64, 60
2,191001, Control_c, 0, 64, 63
2,191020, Control_c, 0, 64, 65
2,191032, Note_on_c, 0, 51, 0
2,191039, Control_c, 0, 64, 68
2,191059, Control_c, 0, 64, 69
2,191078, Control_c, 0, 64, 71
2,191096, Note_on_c, 0, 63, 0
2,191213, Control_c, 0, 64, 70
2,191231, Note_on_c, 0, 66, 0
2,191308, Control_c, 0, 64, 70
2,191378, Note_on_c, 0, 46, 49
2,191384, Control_c, 0, 64, 70
2,191386, Note_on_c, 0, 65, 48
2,191400, Note_on_c, 0, 62, 42
2,191403, Control_c, 0, 64, 70
2,191423, Control_c, 0, 64, 68
2,191441, Control_c, 0, 64, 63
2,191453, Note_on_c, 0, 39, 0
2,191461, Control_c, 0, 64, 0
2,191595, Control_c, 0, 64, 26
2,191615, Control_c, 0, 64, 62
2,191634, Control_c, 0, 64, 69
2,191640, Note_on_c, 0, 62, 0
2,191653, Control_c, 0, 64, 76
2,191672, Control_c, 0, 64, 83
2,191684, Note_on_c, 0, 65, 0
2,191692, Control_c, 0, 64, 88
2,191710, Control_c, 0, 64, 93
2,191730, Control_c, 0, 64, 98
2,191749, Control_c, 0, 64, 102
2,191769, Control_c, 0, 64, 105
2,191787, Control_c, 0, 64, 107
2,191806, Control_c, 0, 64, 108
2,191826, Control_c, 0, 64, 115
2,191844, Control_c, 0, 64, 127
2,191848, Note_on_c, 0, 65, 68
2,191941, Control_c, 0, 64, 114
2,191960, Control_c, 0, 64, 95
2,191979, Control_c, 0, 64, 78
2,191998, Control_c, 0, 64, 65
2,192018, Control_c, 0, 64, 59
2,192037, Control_c, 0, 64, 59
2,192056, Control_c, 0, 64, 62
2,192075, Control_c, 0, 64, 64
2,192095, Control_c, 0, 64, 66
2,192114, Control_c, 0, 64, 67
2,192133, Control_c, 0, 64, 69
2,192152, Control_c, 0, 64, 72
2,192172, Control_c, 0, 64, 73
2,192190, Control_c, 0, 64, 75
2,192210, Control_c, 0, 64, 76
2,192229, Control_c, 0, 64, 78
2,192249, Control_c, 0, 64, 79
2,192267, Control_c, 0, 64, 80
2,192286, Control_c, 0, 64, 80
2,192306, Control_c, 0, 64, 81
2,192312, Note_on_c, 0, 70, 80
2,192324, Control_c, 0, 64, 83
2,192343, Control_c, 0, 64, 84
2,192343, Control_c, 0, 67, 125
2,192362, Control_c, 0, 64, 85
2,192362, Control_c, 0, 67, 124
2,192382, Control_c, 0, 64, 86
2,192382, Control_c, 0, 67, 123
2,192400, Control_c, 0, 67, 121
2,192420, Control_c, 0, 64, 86
2,192420, Control_c, 0, 67, 120
2,192439, Control_c, 0, 64, 87
2,192439, Control_c, 0, 67, 118
2,192459, Control_c, 0, 64, 87
2,192459, Control_c, 0, 67, 115
2,192477, Control_c, 0, 64, 88
2,192477, Control_c, 0, 67, 113
2,192497, Control_c, 0, 67, 110
2,192516, Control_c, 0, 64, 89
2,192516, Control_c, 0, 67, 103
2,192535, Control_c, 0, 67, 93
2,192554, Control_c, 0, 64, 90
2,192554, Control_c, 0, 67, 80
2,192574, Control_c, 0, 64, 90
2,192574, Control_c, 0, 67, 66
2,192593, Control_c, 0, 64, 91
2,192593, Control_c, 0, 67, 52
2,192612, Control_c, 0, 64, 93
2,192612, Control_c, 0, 67, 38
2,192631, Control_c, 0, 64, 95
2,192631, Control_c, 0, 67, 26
2,192651, Control_c, 0, 64, 98
2,192651, Control_c, 0, 67, 12
2,192669, Control_c, 0, 64, 100
2,192669, Control_c, 0, 67, 0
2,192689, Control_c, 0, 64, 103
2,192708, Control_c, 0, 64, 106
2,192728, Control_c, 0, 64, 113
2,192729, Note_on_c, 0, 72, 63
2,192746, Control_c, 0, 64, 127
2,193119, Note_on_c, 0, 58, 76
2,193174, Note_on_c, 0, 74, 54
2,193188, Control_c, 0, 64, 118
2,193207, Control_c, 0, 64, 90
2,193212, Note_on_c, 0, 72, 0
2,193216, Note_on_c, 0, 70, 0
2,193226, Control_c, 0, 64, 74
2,193245, Control_c, 0, 64, 63
2,193265, Control_c, 0, 64, 56
2,193284, Control_c, 0, 64, 59
2,193302, Control_c, 0, 64, 62
2,193321, Control_c, 0, 64, 65
2,193341, Control_c, 0, 64, 67
2,193359, Control_c, 0, 64, 69
2,193379, Control_c, 0, 64, 72
2,193398, Control_c, 0, 64, 74
2,193418, Control_c, 0, 64, 75
2,193436, Control_c, 0, 64, 74
2,193456, Control_c, 0, 64, 72
2,193475, Control_c, 0, 64, 68
2,193494, Control_c, 0, 64, 64
2,193513, Control_c, 0, 64, 63
2,193533, Control_c, 0, 64, 63
2,193536, Note_on_c, 0, 71, 73
2,193552, Control_c, 0, 64, 64
2,193553, Note_on_c, 0, 75, 65
2,193571, Control_c, 0, 64, 66
2,193590, Control_c, 0, 64, 69
2,193610, Control_c, 0, 64, 73
2,193622, Note_on_c, 0, 74, 0
2,193629, Control_c, 0, 64, 78
2,193647, Control_c, 0, 64, 83
2,193667, Control_c, 0, 64, 89
2,193686, Control_c, 0, 64, 92
2,193700, Note_on_c, 0, 65, 0
2,193705, Control_c, 0, 64, 92
2,193724, Control_c, 0, 64, 93
2,193731, Note_on_c, 0, 75, 0
2,193743, Note_on_c, 0, 71, 0
2,193744, Control_c, 0, 64, 94
2,193763, Control_c, 0, 64, 95
2,193782, Control_c, 0, 64, 96
2,193801, Control_c, 0, 64, 97
2,193821, Control_c, 0, 64, 99
2,193842, Control_c, 0, 64, 100
2,193881, Control_c, 0, 64, 96
2,193900, Control_c, 0, 64, 85
2,193919, Control_c, 0, 64, 73
2,193939, Control_c, 0, 64, 64
2,193957, Note_on_c, 0, 77, 77
2,193958, Control_c, 0, 64, 63
2,193976, Note_on_c, 0, 70, 70
2,193977, Control_c, 0, 64, 64
2,193996, Control_c, 0, 64, 67
2,194016, Control_c, 0, 64, 71
2,194034, Control_c, 0, 64, 79
2,194054, Control_c, 0, 64, 89
2,194073, Control_c, 0, 64, 101
2,194093, Control_c, 0, 64, 107
2,194111, Control_c, 0, 64, 111
2,194131, Control_c, 0, 64, 113
2,194144, Note_on_c, 0, 46, 0
2,194150, Control_c, 0, 64, 114
2,194169, Control_c, 0, 64, 116
2,194188, Control_c, 0, 64, 118
2,194207, Control_c, 0, 64, 121
2,194227, Control_c, 0, 64, 123
2,194245, Control_c, 0, 64, 127
2,194268, Note_on_c, 0, 58, 0
2,194369, Note_on_c, 0, 68, 80
2,194417, Note_on_c, 0, 70, 0
2,194543, Note_on_c, 0, 68, 0
2,194762, Control_c, 0, 64, 123
2,194782, Control_c, 0, 64, 87
2,194797, Note_on_c, 0, 66, 76
2,194799, Note_on_c, 0, 63, 70
2,194800, Control_c, 0, 64, 69
2,194820, Control_c, 0, 64, 58
2,194839, Control_c, 0, 64, 46
2,194859, Control_c, 0, 64, 53
2,194877, Control_c, 0, 64, 60
2,194897, Control_c, 0, 64, 65
2,194916, Control_c, 0, 64, 69
2,194935, Control_c, 0, 64, 75
2,194954, Control_c, 0, 64, 88
2,194974, Control_c, 0, 64, 106
2,194993, Control_c, 0, 64, 127
2,195165, Control_c, 0, 64, 89
2,195185, Control_c, 0, 64, 71
2,195204, Control_c, 0, 64, 59
2,195223, Control_c, 0, 64, 45
2,195233, Note_on_c, 0, 68, 74
2,195242, Control_c, 0, 64, 51
2,195261, Note_on_c, 0, 75, 66
2,195262, Control_c, 0, 64, 59
2,195280, Control_c, 0, 64, 63
2,195300, Control_c, 0, 64, 66
2,195317, Note_on_c, 0, 66, 0
2,195319, Control_c, 0, 64, 70
2,195339, Control_c, 0, 64, 76
2,195341, Note_on_c, 0, 77, 0
2,195357, Control_c, 0, 64, 84
2,195377, Control_c, 0, 64, 92
2,195396, Control_c, 0, 64, 95
2,195473, Control_c, 0, 64, 95
2,195492, Control_c, 0, 64, 96
2,195511, Control_c, 0, 64, 96
2,195531, Control_c, 0, 64, 97
2,195549, Control_c, 0, 64, 97
2,195588, Control_c, 0, 64, 97
2,195607, Control_c, 0, 64, 91
2,195626, Control_c, 0, 64, 78
2,195645, Control_c, 0, 64, 65
2,195665, Control_c, 0, 64, 40
2,195679, Note_on_c, 0, 70, 83
2,195684, Control_c, 0, 64, 0
2,195729, Note_on_c, 0, 73, 53
2,195742, Control_c, 0, 64, 41
2,195759, Note_on_c, 0, 75, 0
2,195761, Control_c, 0, 64, 59
2,195781, Control_c, 0, 64, 63
2,195800, Control_c, 0, 64, 64
2,195819, Control_c, 0, 64, 65
2,195820, Note_on_c, 0, 68, 0
2,195838, Control_c, 0, 64, 67
2,195858, Control_c, 0, 64, 69
2,195862, Note_on_c, 0, 73, 0
2,195877, Control_c, 0, 64, 72
2,195883, Note_on_c, 0, 71, 57
2,195896, Control_c, 0, 64, 75
2,195915, Control_c, 0, 64, 79
2,195935, Control_c, 0, 64, 80
2,195954, Control_c, 0, 64, 81
2,195973, Control_c, 0, 64, 81
2,195992, Control_c, 0, 64, 82
2,196026, Note_on_c, 0, 73, 54
2,196030, Control_c, 0, 64, 78
2,196050, Control_c, 0, 64, 73
2,196069, Control_c, 0, 64, 69
2,196089, Control_c, 0, 64, 69
2,196107, Control_c, 0, 64, 71
2,196126, Control_c, 0, 64, 75
2,196146, Control_c, 0, 64, 79
2,196164, Control_c, 0, 64, 84
2,196182, Control_c, 0, 64, 90
2,196194, Note_on_c, 0, 73, 0
2,196195, Note_on_c, 0, 79, 57
2,196201, Control_c, 0, 64, 93
2,196214, Note_on_c, 0, 71, 0
2,196221, Control_c, 0, 64, 94
2,196246, Note_on_c, 0, 79, 0
2,196259, Control_c, 0, 64, 93
2,196278, Control_c, 0, 64, 92
2,196298, Control_c, 0, 64, 91
2,196316, Control_c, 0, 64, 86
2,196336, Control_c, 0, 64, 77
2,196355, Control_c, 0, 64, 67
2,196374, Control_c, 0, 64, 58
2,196393, Control_c, 0, 64, 44
2,196405, Note_on_c, 0, 80, 70
2,196413, Control_c, 0, 64, 43
2,196432, Control_c, 0, 64, 52
2,196451, Control_c, 0, 64, 60
2,196470, Control_c, 0, 64, 64
2,196490, Control_c, 0, 64, 67
2,196509, Control_c, 0, 64, 70
2,196527, Control_c, 0, 64, 76
2,196547, Control_c, 0, 64, 84
2,196566, Control_c, 0, 64, 89
2,196585, Control_c, 0, 64, 90
2,196588, Note_on_c, 0, 82, 77
2,196604, Control_c, 0, 64, 90
2,196662, Control_c, 0, 64, 91
2,196701, Control_c, 0, 64, 89
2,196719, Control_c, 0, 64, 82
2,196735, Control_c, 0, 64, 71
2,196754, Control_c, 0, 64, 61
2,196763, Note_on_c, 0, 83, 78
2,196774, Control_c, 0, 64, 48
2,196793, Control_c, 0, 64, 49
2,196812, Control_c, 0, 64, 58
2,196825, Note_on_c, 0, 82, 0
2,196831, Control_c, 0, 64, 63
2,196850, Note_on_c, 0, 80, 0
2,196851, Control_c, 0, 64, 66
2,196869, Control_c, 0, 64, 69
2,196889, Control_c, 0, 64, 73
2,196908, Control_c, 0, 64, 79
2,196927, Control_c, 0, 64, 83
2,196946, Control_c, 0, 64, 85
2,196950, Note_on_c, 0, 63, 0
2,196990, Note_on_c, 0, 70, 0
2,197023, Control_c, 0, 64, 85
2,197042, Control_c, 0, 64, 86
2,197062, Control_c, 0, 64, 86
2,197080, Control_c, 0, 64, 87
2,197100, Control_c, 0, 64, 90
2,197119, Control_c, 0, 64, 91
2,197177, Control_c, 0, 64, 90
2,197188, Note_on_c, 0, 64, 79
2,197196, Control_c, 0, 64, 85
2,197199, Note_on_c, 0, 68, 69
2,197215, Control_c, 0, 64, 73
2,197234, Control_c, 0, 64, 61
2,197254, Control_c, 0, 64, 35
2,197273, Control_c, 0, 64, 15
2,197292, Control_c, 0, 64, 22
2,197311, Control_c, 0, 64, 41
2,197331, Control_c, 0, 64, 55
2,197349, Control_c, 0, 64, 61
2,197369, Control_c, 0, 64, 63
2,197388, Control_c, 0, 64, 64
2,197407, Control_c, 0, 64, 64
2,197426, Control_c, 0, 64, 65
2,197445, Control_c, 0, 64, 66
2,197465, Control_c, 0, 64, 66
2,197484, Control_c, 0, 64, 67
2,197503, Control_c, 0, 64, 67
2,197535, Note_on_c, 0, 83, 0
2,197542, Control_c, 0, 64, 68
2,197560, Control_c, 0, 64, 68
2,197580, Control_c, 0, 64, 69
2,197599, Control_c, 0, 64, 70
2,197610, Note_on_c, 0, 82, 76
2,197619, Control_c, 0, 64, 70
2,197637, Control_c, 0, 64, 71
2,197681, Control_c, 0, 64, 71
2,197701, Control_c, 0, 64, 72
2,197720, Control_c, 0, 64, 73
2,197739, Control_c, 0, 64, 74
2,197758, Control_c, 0, 64, 75
2,197778, Control_c, 0, 64, 75
2,197786, Note_on_c, 0, 80, 71
2,197797, Control_c, 0, 64, 76
2,197816, Control_c, 0, 64, 76
2,197844, Note_on_c, 0, 82, 0
2,197935, Note_on_c, 0, 68, 0
2,197970, Control_c, 0, 64, 77
2,197989, Control_c, 0, 64, 77
2,198002, Note_on_c, 0, 64, 0
2,198009, Control_c, 0, 64, 78
2,198046, Control_c, 0, 64, 77
2,198046, Note_on_c, 0, 63, 78
2,198066, Control_c, 0, 64, 74
2,198084, Control_c, 0, 64, 68
2,198087, Note_on_c, 0, 82, 82
2,198101, Note_on_c, 0, 80, 0
2,198104, Control_c, 0, 64, 61
2,198123, Control_c, 0, 64, 47
2,198143, Control_c, 0, 64, 27
2,198161, Control_c, 0, 64, 19
2,198200, Control_c, 0, 64, 29
2,198219, Control_c, 0, 64, 44
2,198238, Control_c, 0, 64, 54
2,198258, Control_c, 0, 64, 58
2,198277, Control_c, 0, 64, 59
2,198315, Control_c, 0, 64, 60
2,198335, Control_c, 0, 64, 60
2,198354, Control_c, 0, 64, 61
2,198373, Control_c, 0, 64, 61
2,198392, Control_c, 0, 64, 62
2,198430, Control_c, 0, 64, 63
2,198450, Control_c, 0, 64, 63
2,198469, Control_c, 0, 64, 64
2,198488, Control_c, 0, 64, 65
2,198507, Control_c, 0, 64, 67
2,198524, Note_on_c, 0, 75, 64
2,198526, Control_c, 0, 64, 70
2,198526, Note_on_c, 0, 67, 51
2,198546, Control_c, 0, 64, 75
2,198564, Control_c, 0, 64, 84
2,198584, Control_c, 0, 64, 96
2,198603, Control_c, 0, 64, 108
2,198623, Control_c, 0, 64, 109
2,198634, Note_on_c, 0, 63, 0
2,198681, Control_c, 0, 64, 108
2,198684, Note_on_c, 0, 67, 0
2,198739, Control_c, 0, 64, 108
2,198758, Control_c, 0, 64, 107
2,198777, Control_c, 0, 64, 106
2,198796, Control_c, 0, 64, 105
2,198816, Control_c, 0, 64, 104
2,198834, Control_c, 0, 64, 102
2,198854, Control_c, 0, 64, 100
2,198873, Control_c, 0, 64, 93
2,198893, Control_c, 0, 64, 81
2,198899, Note_on_c, 0, 61, 72
2,198911, Control_c, 0, 64, 68
2,198931, Control_c, 0, 64, 56
2,198931, Note_on_c, 0, 77, 66
2,198934, Note_on_c, 0, 65, 43
2,198950, Control_c, 0, 64, 29
2,198970, Control_c, 0, 64, 20
2,198988, Control_c, 0, 64, 21
2,199007, Control_c, 0, 64, 30
2,199027, Control_c, 0, 64, 43
2,199045, Control_c, 0, 64, 52
2,199047, Note_on_c, 0, 82, 0
2,199064, Control_c, 0, 64, 57
2,199083, Control_c, 0, 64, 58
2,199103, Control_c, 0, 64, 59
2,199121, Control_c, 0, 64, 60
2,199141, Control_c, 0, 64, 61
2,199160, Control_c, 0, 64, 63
2,199179, Control_c, 0, 64, 64
2,199198, Control_c, 0, 64, 64
2,199218, Control_c, 0, 64, 66
2,199237, Control_c, 0, 64, 68
2,199256, Control_c, 0, 64, 72
2,199275, Control_c, 0, 64, 78
2,199277, Note_on_c, 0, 64, 56
2,199295, Control_c, 0, 64, 86
2,199295, Note_on_c, 0, 79, 69
2,199314, Control_c, 0, 64, 92
2,199320, Note_on_c, 0, 75, 0
2,199333, Control_c, 0, 64, 94
2,199358, Note_on_c, 0, 77, 0
2,199362, Note_on_c, 0, 64, 0
2,199368, Note_on_c, 0, 61, 0
2,199370, Note_on_c, 0, 65, 0
2,199421, Note_on_c, 0, 79, 0
2,199524, Control_c, 0, 64, 94
2,199544, Control_c, 0, 64, 93
2,199563, Control_c, 0, 64, 93
2,199583, Control_c, 0, 64, 92
2,199599, Control_c, 0, 64, 92
2,199638, Control_c, 0, 64, 91
2,199658, Control_c, 0, 64, 90
2,199676, Control_c, 0, 64, 86
2,199696, Control_c, 0, 64, 78
2,199701, Note_on_c, 0, 59, 74
2,199715, Control_c, 0, 64, 65
2,199733, Note_on_c, 0, 80, 73
2,199734, Control_c, 0, 64, 46
2,199753, Control_c, 0, 64, 0
2,199757, Note_on_c, 0, 63, 35
2,199850, Control_c, 0, 64, 13
2,199869, Control_c, 0, 64, 32
2,199887, Control_c, 0, 64, 41
2,199907, Control_c, 0, 64, 45
2,199926, Control_c, 0, 64, 46
2,199945, Control_c, 0, 64, 47
2,199964, Control_c, 0, 64, 48
2,199984, Control_c, 0, 64, 50
2,200003, Control_c, 0, 64, 51
2,200021, Control_c, 0, 64, 52
2,200040, Control_c, 0, 64, 53
2,200060, Control_c, 0, 64, 55
2,200079, Control_c, 0, 64, 56
2,200098, Control_c, 0, 64, 58
2,200117, Control_c, 0, 64, 59
2,200137, Control_c, 0, 64, 61
2,200155, Control_c, 0, 64, 62
2,200158, Note_on_c, 0, 71, 54
2,200175, Control_c, 0, 64, 64
2,200194, Control_c, 0, 64, 65
2,200214, Control_c, 0, 64, 66
2,200232, Control_c, 0, 64, 67
2,200252, Control_c, 0, 64, 67
2,200271, Control_c, 0, 64, 67
2,200290, Control_c, 0, 64, 66
2,200309, Control_c, 0, 64, 66
2,200328, Control_c, 0, 64, 65
2,200348, Control_c, 0, 64, 66
2,200501, Control_c, 0, 64, 65
2,200520, Control_c, 0, 64, 64
2,200540, Control_c, 0, 64, 58
2,200546, Note_on_c, 0, 61, 62
2,200558, Note_on_c, 0, 63, 0
2,200559, Control_c, 0, 64, 44
2,200566, Note_on_c, 0, 70, 67
2,200579, Control_c, 0, 64, 0
2,200592, Note_on_c, 0, 71, 0
2,200675, Control_c, 0, 64, 39
2,200694, Control_c, 0, 64, 55
2,200713, Control_c, 0, 64, 60
2,200733, Control_c, 0, 64, 61
2,200752, Control_c, 0, 64, 62
2,200771, Control_c, 0, 64, 63
2,200790, Control_c, 0, 64, 64
2,200810, Control_c, 0, 64, 65
2,200829, Control_c, 0, 64, 66
2,200847, Control_c, 0, 64, 68
2,200854, Note_on_c, 0, 70, 0
2,200867, Control_c, 0, 64, 71
2,200886, Control_c, 0, 64, 74
2,200905, Control_c, 0, 64, 78
2,200924, Control_c, 0, 64, 81
2,200937, Note_on_c, 0, 68, 72
2,200944, Control_c, 0, 64, 79
2,200963, Control_c, 0, 64, 76
2,200982, Control_c, 0, 64, 72
2,201001, Control_c, 0, 64, 68
2,201021, Control_c, 0, 64, 68
2,201039, Control_c, 0, 64, 69
2,201054, Note_on_c, 0, 80, 0
2,201059, Control_c, 0, 64, 71
2,201078, Control_c, 0, 64, 73
2,201090, Note_on_c, 0, 68, 0
2,201098, Control_c, 0, 64, 76
2,201116, Control_c, 0, 64, 79
2,201136, Control_c, 0, 64, 81
2,201155, Control_c, 0, 64, 82
2,201193, Control_c, 0, 64, 82
2,201232, Control_c, 0, 64, 83
2,201270, Control_c, 0, 64, 82
2,201327, Control_c, 0, 64, 82
2,201347, Control_c, 0, 64, 81
2,201366, Control_c, 0, 64, 80
2,201385, Control_c, 0, 64, 79
2,201404, Control_c, 0, 64, 78
2,201424, Control_c, 0, 64, 75
2,201443, Control_c, 0, 64, 70
2,201445, Note_on_c, 0, 63, 71
2,201458, Note_on_c, 0, 67, 34
2,201462, Control_c, 0, 64, 64
2,201475, Note_on_c, 0, 82, 80
2,201481, Control_c, 0, 64, 55
2,201501, Control_c, 0, 64, 26
2,201519, Control_c, 0, 64, 0
2,201770, Control_c, 0, 64, 29
2,201789, Control_c, 0, 64, 43
2,201807, Control_c, 0, 64, 52
2,201827, Control_c, 0, 64, 58
2,201829, Note_on_c, 0, 63, 0
2,201846, Control_c, 0, 64, 61
2,201865, Control_c, 0, 64, 63
2,201884, Control_c, 0, 64, 64
2,201904, Control_c, 0, 64, 64
2,201923, Control_c, 0, 64, 65
2,201930, Note_on_c, 0, 63, 53
2,201941, Control_c, 0, 64, 66
2,201959, Note_on_c, 0, 59, 0
2,201960, Control_c, 0, 64, 66
2,201980, Control_c, 0, 64, 67
2,201989, Note_on_c, 0, 67, 0
2,202018, Control_c, 0, 64, 68
2,202057, Control_c, 0, 64, 67
2,202094, Note_on_c, 0, 61, 0
2,202105, Note_on_c, 0, 65, 48
2,202114, Control_c, 0, 64, 67
2,202152, Control_c, 0, 64, 66
2,202172, Control_c, 0, 64, 66
2,202191, Control_c, 0, 64, 63
2,202210, Control_c, 0, 64, 58
2,202210, Note_on_c, 0, 65, 0
2,202229, Control_c, 0, 64, 47
2,202248, Control_c, 0, 64, 41
2,202268, Control_c, 0, 64, 42
2,202286, Control_c, 0, 64, 51
2,202294, Note_on_c, 0, 82, 0
2,202306, Control_c, 0, 64, 60
2,202314, Note_on_c, 0, 67, 43
2,202314, Note_on_c, 0, 75, 64
2,202325, Control_c, 0, 64, 64
2,202344, Control_c, 0, 64, 66
2,202363, Control_c, 0, 64, 68
2,202383, Control_c, 0, 64, 70
2,202402, Control_c, 0, 64, 71
2,202421, Control_c, 0, 64, 72
2,202460, Control_c, 0, 64, 73
2,202499, Control_c, 0, 64, 72
2,202538, Control_c, 0, 64, 72
2,202556, Control_c, 0, 64, 70
2,202576, Control_c, 0, 64, 66
2,202595, Control_c, 0, 64, 57
2,202614, Control_c, 0, 64, 35
2,202633, Control_c, 0, 64, 18
2,202653, Control_c, 0, 64, 29
2,202672, Control_c, 0, 64, 48
2,202691, Control_c, 0, 64, 60
2,202704, Note_on_c, 0, 68, 53
2,202710, Control_c, 0, 64, 65
2,202730, Control_c, 0, 64, 69
2,202749, Control_c, 0, 64, 74
2,202752, Note_on_c, 0, 67, 0
2,202767, Control_c, 0, 64, 81
2,202787, Control_c, 0, 64, 88
2,202806, Control_c, 0, 64, 89
2,202810, Note_on_c, 0, 63, 0
2,202851, Note_on_c, 0, 68, 0
2,202864, Control_c, 0, 64, 89
2,202892, Note_on_c, 0, 70, 60
2,202922, Control_c, 0, 64, 88
2,202999, Control_c, 0, 64, 88
2,203019, Control_c, 0, 64, 86
2,203037, Control_c, 0, 64, 86
2,203057, Control_c, 0, 64, 85
2,203076, Control_c, 0, 64, 83
2,203095, Control_c, 0, 64, 79
2,203103, Note_on_c, 0, 56, 60
2,203114, Control_c, 0, 64, 71
2,203134, Control_c, 0, 64, 63
2,203135, Note_on_c, 0, 71, 51
2,203153, Control_c, 0, 64, 32
2,203172, Control_c, 0, 64, 0
2,203211, Control_c, 0, 64, 17
2,203218, Note_on_c, 0, 70, 0
2,203229, Control_c, 0, 64, 48
2,203248, Control_c, 0, 64, 61
2,203268, Control_c, 0, 64, 64
2,203287, Control_c, 0, 64, 65
2,203306, Control_c, 0, 64, 66
2,203325, Control_c, 0, 64, 67
2,203345, Control_c, 0, 64, 68
2,203361, Note_on_c, 0, 71, 0
2,203364, Control_c, 0, 64, 68
2,203389, Note_on_c, 0, 75, 0
2,203402, Control_c, 0, 64, 69
2,203479, Control_c, 0, 64, 68
2,203499, Control_c, 0, 64, 67
2,203517, Control_c, 0, 64, 62
2,203537, Control_c, 0, 64, 51
2,203555, Note_on_c, 0, 71, 44
2,203556, Control_c, 0, 64, 19
2,203575, Control_c, 0, 64, 0
2,203594, Control_c, 0, 64, 15
2,203614, Control_c, 0, 64, 44
2,203633, Control_c, 0, 64, 60
2,203652, Control_c, 0, 64, 64
2,203671, Control_c, 0, 64, 66
2,203691, Control_c, 0, 64, 68
2,203709, Control_c, 0, 64, 68
2,203728, Control_c, 0, 64, 69
2,203748, Control_c, 0, 64, 68
2,203786, Control_c, 0, 64, 69
2,203920, Control_c, 0, 64, 68
2,203940, Control_c, 0, 64, 65
2,203956, Note_on_c, 0, 73, 46
2,203959, Control_c, 0, 64, 60
2,203979, Control_c, 0, 64, 49
2,203997, Control_c, 0, 64, 42
2,204017, Control_c, 0, 64, 39
2,204036, Control_c, 0, 64, 40
2,204055, Control_c, 0, 64, 48
2,204074, Control_c, 0, 64, 57
2,204094, Control_c, 0, 64, 62
2,204113, Control_c, 0, 64, 64
2,204132, Control_c, 0, 64, 65
2,204151, Control_c, 0, 64, 65
2,204171, Control_c, 0, 64, 66
2,204285, Control_c, 0, 64, 66
2,204305, Control_c, 0, 64, 67
2,204324, Control_c, 0, 64, 67
2,204343, Control_c, 0, 64, 68
2,204350, Note_on_c, 0, 75, 49
2,204362, Control_c, 0, 64, 69
2,204382, Control_c, 0, 64, 69
2,204382, Note_on_c, 0, 70, 42
2,204395, Note_on_c, 0, 71, 0
2,204404, Control_c, 0, 64, 70
2,204424, Control_c, 0, 64, 71
2,204443, Control_c, 0, 64, 73
2,204462, Control_c, 0, 64, 74
2,204481, Control_c, 0, 64, 75
2,204573, Note_on_c, 0, 73, 0
2,204654, Control_c, 0, 64, 74
2,204693, Control_c, 0, 64, 73
2,204712, Control_c, 0, 64, 71
2,204731, Control_c, 0, 64, 65
2,204742, Note_on_c, 0, 70, 0
2,204750, Control_c, 0, 64, 58
2,204764, Note_on_c, 0, 61, 46
2,204769, Control_c, 0, 64, 46
2,204774, Note_on_c, 0, 76, 46
2,204789, Control_c, 0, 64, 43
2,204793, Note_on_c, 0, 68, 46
2,204805, Note_on_c, 0, 75, 0
2,204822, Control_c, 0, 64, 47
2,204841, Control_c, 0, 64, 54
2,204861, Control_c, 0, 64, 59
2,204879, Control_c, 0, 64, 62
2,204899, Control_c, 0, 64, 64
2,204913, Note_on_c, 0, 56, 0
2,204918, Control_c, 0, 64, 65
2,204938, Control_c, 0, 64, 66
2,204956, Control_c, 0, 64, 67
2,204976, Control_c, 0, 64, 67
2,205053, Control_c, 0, 64, 66
2,205068, Note_on_c, 0, 68, 0
2,205072, Control_c, 0, 64, 63
2,205091, Control_c, 0, 64, 56
2,205110, Control_c, 0, 64, 53
2,205129, Control_c, 0, 64, 54
2,205149, Control_c, 0, 64, 58
2,205167, Control_c, 0, 64, 61
2,205187, Control_c, 0, 64, 64
2,205206, Control_c, 0, 64, 66
2,205215, Note_on_c, 0, 67, 39
2,205216, Note_on_c, 0, 75, 48
2,205225, Control_c, 0, 64, 69
2,205244, Control_c, 0, 64, 74
2,205264, Control_c, 0, 64, 79
2,205283, Control_c, 0, 64, 85
2,205302, Control_c, 0, 64, 89
2,205321, Control_c, 0, 64, 90
2,205361, Control_c, 0, 64, 90
2,205381, Control_c, 0, 64, 91
2,205419, Control_c, 0, 64, 91
2,205515, Control_c, 0, 64, 90
2,205535, Control_c, 0, 64, 83
2,205554, Control_c, 0, 64, 71
2,205573, Control_c, 0, 64, 58
2,205592, Control_c, 0, 64, 0
2,205593, Note_on_c, 0, 73, 48
2,205606, Note_on_c, 0, 68, 48
2,205648, Note_on_c, 0, 76, 0
2,205649, Control_c, 0, 64, 23
2,205666, Note_on_c, 0, 67, 0
2,205669, Control_c, 0, 64, 52
2,205688, Control_c, 0, 64, 62
2,205707, Control_c, 0, 64, 65
2,205726, Control_c, 0, 64, 66
2,205746, Control_c, 0, 64, 69
2,205764, Control_c, 0, 64, 74
2,205782, Control_c, 0, 64, 80
2,205801, Control_c, 0, 64, 86
2,205809, Note_on_c, 0, 68, 0
2,205821, Control_c, 0, 64, 88
2,205878, Control_c, 0, 64, 88
2,205916, Control_c, 0, 64, 89
2,205955, Control_c, 0, 64, 89
2,205974, Control_c, 0, 64, 90
2,206021, Note_on_c, 0, 70, 55
2,206089, Control_c, 0, 64, 89
2,206091, Note_on_c, 0, 73, 0
2,206093, Note_on_c, 0, 75, 0
2,206108, Note_on_c, 0, 70, 0
2,206127, Control_c, 0, 64, 90
2,206166, Control_c, 0, 64, 90
2,206358, Control_c, 0, 64, 90
2,206378, Control_c, 0, 64, 89
2,206396, Control_c, 0, 64, 86
2,206416, Control_c, 0, 64, 81
2,206424, Note_on_c, 0, 63, 55
2,206435, Control_c, 0, 64, 73
2,206455, Control_c, 0, 64, 64
2,206456, Note_on_c, 0, 80, 66
2,206473, Control_c, 0, 64, 50
2,206493, Control_c, 0, 64, 34
2,206512, Control_c, 0, 64, 33
2,206550, Control_c, 0, 64, 36
2,206569, Control_c, 0, 64, 41
2,206589, Control_c, 0, 64, 50
2,206607, Control_c, 0, 64, 55
2,206627, Control_c, 0, 64, 57
2,206646, Control_c, 0, 64, 57
2,206665, Control_c, 0, 64, 58
2,206684, Control_c, 0, 64, 59
2,206704, Control_c, 0, 64, 61
2,206723, Control_c, 0, 64, 63
2,206742, Control_c, 0, 64, 64
2,206761, Control_c, 0, 64, 65
2,206781, Control_c, 0, 64, 66
2,206799, Control_c, 0, 64, 67
2,206819, Control_c, 0, 64, 69
2,206838, Control_c, 0, 64, 71
2,206840, Note_on_c, 0, 65, 48
2,206858, Control_c, 0, 64, 74
2,206876, Control_c, 0, 64, 78
2,206896, Control_c, 0, 64, 81
2,206915, Control_c, 0, 64, 83
2,206935, Control_c, 0, 64, 83
2,206937, Note_on_c, 0, 65, 0
2,206953, Control_c, 0, 64, 84
2,206973, Control_c, 0, 64, 84
2,207099, Note_on_c, 0, 61, 0
2,207164, Control_c, 0, 64, 84
2,207184, Control_c, 0, 64, 83
2,207203, Control_c, 0, 64, 81
2,207222, Control_c, 0, 64, 75
2,207232, Note_on_c, 0, 59, 64
2,207241, Control_c, 0, 64, 66
2,207248, Note_on_c, 0, 67, 46
2,207261, Control_c, 0, 64, 53
2,207280, Control_c, 0, 64, 0
2,207283, Note_on_c, 0, 75, 57
2,207285, Note_on_c, 0, 63, 0
2,207300, Note_on_c, 0, 80, 0
2,207339, Control_c, 0, 64, 31
2,207357, Control_c, 0, 64, 54
2,207377, Control_c, 0, 64, 63
2,207396, Control_c, 0, 64, 65
2,207415, Control_c, 0, 64, 67
2,207434, Control_c, 0, 64, 70
2,207454, Control_c, 0, 64, 73
2,207473, Control_c, 0, 64, 76
2,207492, Control_c, 0, 64, 78
2,207511, Control_c, 0, 64, 79
2,207531, Control_c, 0, 64, 77
2,207549, Control_c, 0, 64, 72
2,207568, Control_c, 0, 64, 67
2,207588, Control_c, 0, 64, 65
2,207607, Control_c, 0, 64, 66
2,207626, Control_c, 0, 64, 68
2,207645, Control_c, 0, 64, 70
2,207652, Note_on_c, 0, 68, 57
2,207665, Control_c, 0, 64, 73
2,207684, Control_c, 0, 64, 77
2,207698, Note_on_c, 0, 67, 0
2,207703, Control_c, 0, 64, 79
2,207722, Control_c, 0, 64, 81
2,207742, Control_c, 0, 64, 82
2,207778, Note_on_c, 0, 68, 0
2,207819, Note_on_c, 0, 59, 0
2,207876, Control_c, 0, 67, 9
2,207895, Control_c, 0, 67, 21
2,207914, Control_c, 0, 64, 81
2,207914, Control_c, 0, 67, 41
2,207934, Control_c, 0, 64, 80
2,207934, Control_c, 0, 67, 59
2,207953, Control_c, 0, 64, 80
2,207953, Control_c, 0, 67, 75
2,207972, Control_c, 0, 64, 79
2,207972, Control_c, 0, 67, 90
2,207991, Control_c, 0, 67, 104
2,208011, Control_c, 0, 64, 79
2,208011, Control_c, 0, 67, 116
2,208029, Control_c, 0, 64, 78
2,208029, Control_c, 0, 67, 127
2,208048, Control_c, 0, 64, 77
2,208048, Control_c, 0, 67, 127
2,208068, Control_c, 0, 64, 75
2,208087, Control_c, 0, 64, 70
2,208106, Control_c, 0, 64, 62
2,208111, Note_on_c, 0, 70, 46
2,208116, Note_on_c, 0, 58, 47
2,208125, Control_c, 0, 64, 49
2,208145, Control_c, 0, 64, 37
2,208182, Note_on_c, 0, 75, 0
2,208183, Control_c, 0, 64, 44
2,208202, Control_c, 0, 64, 54
2,208222, Control_c, 0, 64, 60
2,208240, Control_c, 0, 64, 64
2,208258, Note_on_c, 0, 71, 49
2,208260, Control_c, 0, 64, 65
2,208279, Control_c, 0, 64, 67
2,208299, Control_c, 0, 64, 68
2,208317, Control_c, 0, 64, 68
2,208356, Control_c, 0, 64, 67
2,208375, Control_c, 0, 64, 64
2,208394, Control_c, 0, 64, 58
2,208414, Control_c, 0, 64, 51
2,208417, Note_on_c, 0, 70, 0
2,208433, Control_c, 0, 64, 52
2,208452, Control_c, 0, 64, 57
2,208471, Control_c, 0, 64, 61
2,208478, Note_on_c, 0, 73, 48
2,208479, Note_on_c, 0, 71, 0
2,208481, Note_on_c, 0, 77, 54
2,208491, Control_c, 0, 64, 64
2,208509, Control_c, 0, 64, 67
2,208528, Control_c, 0, 64, 71
2,208548, Control_c, 0, 64, 76
2,208567, Control_c, 0, 64, 84
2,208586, Control_c, 0, 64, 90
2,208605, Control_c, 0, 64, 92
2,208663, Note_on_c, 0, 73, 0
2,208715, Note_on_c, 0, 77, 0
2,208740, Control_c, 0, 64, 91
2,208759, Control_c, 0, 64, 91
2,208779, Control_c, 0, 64, 90
2,208797, Control_c, 0, 64, 90
2,208817, Control_c, 0, 64, 89
2,208836, Control_c, 0, 64, 87
2,208855, Control_c, 0, 64, 85
2,208874, Control_c, 0, 64, 83
2,208894, Control_c, 0, 64, 78
2,208905, Note_on_c, 0, 79, 53
2,208913, Control_c, 0, 64, 69
2,208932, Control_c, 0, 64, 60
2,208951, Control_c, 0, 64, 47
2,208970, Control_c, 0, 64, 44
2,208989, Control_c, 0, 64, 48
2,209008, Control_c, 0, 64, 54
2,209028, Control_c, 0, 64, 61
2,209047, Control_c, 0, 64, 64
2,209066, Control_c, 0, 64, 67
2,209085, Control_c, 0, 64, 70
2,209105, Control_c, 0, 64, 74
2,209124, Control_c, 0, 64, 79
2,209124, Control_c, 0, 67, 127
2,209143, Control_c, 0, 64, 83
2,209162, Control_c, 0, 64, 84
2,209162, Control_c, 0, 67, 126
2,209182, Control_c, 0, 67, 125
2,209201, Control_c, 0, 67, 124
2,209221, Control_c, 0, 67, 123
2,209240, Control_c, 0, 64, 85
2,209240, Control_c, 0, 67, 121
2,209259, Control_c, 0, 67, 120
2,209278, Control_c, 0, 67, 120
2,209286, Note_on_c, 0, 71, 36
2,209363, Note_on_c, 0, 58, 0
2,209375, Control_c, 0, 67, 119
2,209394, Control_c, 0, 64, 84
2,209394, Control_c, 0, 67, 119
2,209413, Control_c, 0, 67, 118
2,209436, Note_on_c, 0, 71, 0
2,209452, Control_c, 0, 64, 84
2,209452, Control_c, 0, 67, 117
2,209470, Control_c, 0, 67, 116
2,209489, Note_on_c, 0, 70, 51
2,209509, Control_c, 0, 64, 83
2,209528, Control_c, 0, 67, 116
2,209536, Note_on_c, 0, 70, 0
2,209566, Control_c, 0, 64, 83
2,209585, Note_on_c, 0, 79, 0
2,209586, Control_c, 0, 64, 82
2,209604, Control_c, 0, 64, 81
2,209604, Control_c, 0, 67, 115
2,209620, Control_c, 0, 64, 81
2,209639, Control_c, 0, 64, 80
2,209659, Control_c, 0, 64, 79
2,209659, Control_c, 0, 67, 115
2,209678, Control_c, 0, 64, 77
2,209697, Control_c, 0, 64, 75
2,209707, Note_on_c, 0, 56, 48
2,209716, Control_c, 0, 64, 73
2,209736, Control_c, 0, 64, 69
2,209754, Control_c, 0, 64, 63
2,209774, Control_c, 0, 64, 56
2,209779, Note_on_c, 0, 80, 35
2,209793, Control_c, 0, 64, 47
2,209813, Control_c, 0, 64, 42
2,209813, Control_c, 0, 67, 114
2,209831, Control_c, 0, 64, 40
2,209831, Control_c, 0, 67, 114
2,209848, Note_on_c, 0, 71, 23
2,209889, Control_c, 0, 64, 43
2,209908, Control_c, 0, 64, 48
2,209908, Control_c, 0, 67, 113
2,209927, Control_c, 0, 64, 53
2,209927, Control_c, 0, 67, 113
2,209947, Control_c, 0, 64, 57
2,209947, Control_c, 0, 67, 111
2,209965, Control_c, 0, 64, 59
2,209965, Control_c, 0, 67, 107
2,209985, Control_c, 0, 64, 61
2,209985, Control_c, 0, 67, 101
2,210004, Control_c, 0, 64, 62
2,210004, Control_c, 0, 67, 93
2,210024, Control_c, 0, 64, 63
2,210024, Control_c, 0, 67, 86
2,210042, Control_c, 0, 64, 64
2,210042, Control_c, 0, 67, 79
2,210062, Control_c, 0, 64, 65
2,210062, Control_c, 0, 67, 72
2,210081, Control_c, 0, 64, 66
2,210081, Control_c, 0, 67, 65
2,210100, Control_c, 0, 64, 68
2,210100, Control_c, 0, 67, 60
2,210119, Control_c, 0, 64, 69
2,210119, Control_c, 0, 67, 54
2,210139, Control_c, 0, 64, 71
2,210139, Control_c, 0, 67, 49
2,210163, Control_c, 0, 64, 72
2,210163, Control_c, 0, 67, 45
2,210163, Note_on_c, 0, 82, 57
2,210183, Control_c, 0, 64, 74
2,210183, Control_c, 0, 67, 42
2,210202, Control_c, 0, 64, 75
2,210202, Control_c, 0, 67, 39
2,210221, Control_c, 0, 64, 76
2,210221, Control_c, 0, 67, 37
2,210225, Note_on_c, 0, 80, 0
2,210240, Control_c, 0, 64, 77
2,210240, Control_c, 0, 67, 35
2,210260, Control_c, 0, 67, 34
2,210279, Control_c, 0, 64, 76
2,210279, Control_c, 0, 67, 33
2,210298, Control_c, 0, 67, 33
2,210375, Control_c, 0, 64, 76
2,210471, Control_c, 0, 64, 75
2,210471, Control_c, 0, 67, 32
2,210509, Control_c, 0, 64, 74
2,210528, Control_c, 0, 64, 73
2,210548, Control_c, 0, 64, 68
2,210566, Control_c, 0, 64, 63
2,210574, Note_on_c, 0, 61, 62
2,210585, Control_c, 0, 64, 59
2,210609, Note_on_c, 0, 80, 44
2,210624, Control_c, 0, 64, 60
2,210624, Control_c, 0, 67, 31
2,210642, Control_c, 0, 64, 61
2,210642, Control_c, 0, 67, 31
2,210662, Control_c, 0, 64, 62
2,210662, Control_c, 0, 67, 29
2,210681, Control_c, 0, 64, 64
2,210681, Control_c, 0, 67, 27
2,210700, Control_c, 0, 64, 65
2,210700, Control_c, 0, 67, 24
2,210719, Control_c, 0, 64, 67
2,210719, Control_c, 0, 67, 20
2,210739, Control_c, 0, 64, 69
2,210739, Control_c, 0, 67, 15
2,210758, Control_c, 0, 64, 71
2,210758, Control_c, 0, 67, 8
2,210777, Control_c, 0, 64, 74
2,210777, Control_c, 0, 67, 0
2,210796, Control_c, 0, 64, 75
2,210807, Note_on_c, 0, 56, 0
2,210816, Control_c, 0, 64, 76
2,210834, Control_c, 0, 64, 77
2,210854, Control_c, 0, 64, 77
2,210873, Control_c, 0, 64, 78
2,210893, Control_c, 0, 64, 80
2,210911, Control_c, 0, 64, 83
2,210930, Control_c, 0, 64, 86
2,210950, Control_c, 0, 64, 88
2,210969, Control_c, 0, 64, 89
2,210988, Control_c, 0, 64, 90
2,210999, Note_on_c, 0, 71, 0
2,211001, Note_on_c, 0, 78, 52
2,211027, Control_c, 0, 64, 90
2,211042, Note_on_c, 0, 82, 0
2,211239, Control_c, 0, 64, 90
2,211259, Control_c, 0, 64, 89
2,211278, Control_c, 0, 64, 89
2,211336, Control_c, 0, 64, 88
2,211355, Control_c, 0, 64, 87
2,211375, Control_c, 0, 64, 87
2,211393, Control_c, 0, 64, 86
2,211413, Control_c, 0, 64, 86
2,211432, Control_c, 0, 64, 85
2,211450, Control_c, 0, 64, 84
2,211470, Control_c, 0, 64, 82
2,211489, Control_c, 0, 64, 80
2,211501, Note_on_c, 0, 68, 73
2,211509, Control_c, 0, 64, 75
2,211527, Control_c, 0, 64, 68
2,211539, Note_on_c, 0, 77, 51
2,211540, Note_on_c, 0, 80, 0
2,211541, Control_c, 0, 64, 60
2,211560, Control_c, 0, 64, 50
2,211580, Control_c, 0, 64, 47
2,211615, Note_on_c, 0, 78, 0
2,211618, Control_c, 0, 64, 47
2,211637, Control_c, 0, 64, 50
2,211657, Control_c, 0, 64, 55
2,211675, Control_c, 0, 64, 59
2,211695, Control_c, 0, 64, 61
2,211714, Control_c, 0, 64, 62
2,211734, Control_c, 0, 64, 62
2,211752, Control_c, 0, 64, 63
2,211772, Control_c, 0, 64, 64
2,211791, Control_c, 0, 64, 64
2,211809, Control_c, 0, 64, 65
2,211829, Control_c, 0, 64, 65
2,211848, Control_c, 0, 64, 66
2,211868, Control_c, 0, 64, 67
2,211886, Control_c, 0, 64, 68
2,211906, Control_c, 0, 64, 70
2,211925, Control_c, 0, 64, 70
2,211933, Note_on_c, 0, 61, 0
2,211944, Control_c, 0, 64, 71
2,211963, Control_c, 0, 64, 71
2,211964, Note_on_c, 0, 78, 49
2,211970, Note_on_c, 0, 63, 40
2,212002, Control_c, 0, 64, 72
2,212021, Control_c, 0, 64, 72
2,212060, Control_c, 0, 64, 73
2,212215, Control_c, 0, 64, 72
2,212311, Control_c, 0, 64, 72
2,212330, Control_c, 0, 64, 70
2,212344, Note_on_c, 0, 61, 51
2,212349, Control_c, 0, 64, 66
2,212358, Note_on_c, 0, 80, 59
2,212368, Control_c, 0, 64, 56
2,212388, Control_c, 0, 64, 44
2,212399, Note_on_c, 0, 63, 0
2,212407, Control_c, 0, 64, 46
2,212426, Control_c, 0, 64, 55
2,212445, Control_c, 0, 64, 63
2,212465, Control_c, 0, 64, 69
2,212484, Control_c, 0, 64, 81
2,212502, Control_c, 0, 64, 127
2,212733, Control_c, 0, 64, 85
2,212752, Control_c, 0, 64, 65
2,212770, Control_c, 0, 64, 24
2,212770, Note_on_c, 0, 59, 56
2,212789, Note_on_c, 0, 61, 0
2,212790, Control_c, 0, 64, 31
2,212809, Control_c, 0, 64, 53
2,212829, Control_c, 0, 64, 64
2,212847, Control_c, 0, 64, 70
2,212867, Control_c, 0, 64, 83
2,212868, Note_on_c, 0, 77, 0
2,212886, Control_c, 0, 64, 127
2,213175, Control_c, 0, 64, 121
2,213193, Control_c, 0, 64, 74
2,213196, Note_on_c, 0, 58, 50
2,213207, Note_on_c, 0, 73, 73
2,213210, Note_on_c, 0, 59, 0
2,213213, Control_c, 0, 64, 57
2,213232, Control_c, 0, 64, 36
2,213250, Control_c, 0, 64, 49
2,213270, Control_c, 0, 64, 61
2,213289, Control_c, 0, 64, 65
2,213309, Control_c, 0, 64, 71
2,213327, Control_c, 0, 64, 84
2,213347, Control_c, 0, 64, 103
2,213366, Control_c, 0, 64, 127
2,213378, Note_on_c, 0, 78, 0
2,213462, Control_c, 0, 64, 112
2,213481, Control_c, 0, 64, 86
2,213501, Control_c, 0, 64, 69
2,213519, Control_c, 0, 64, 58
2,213538, Note_on_c, 0, 80, 0
2,213539, Control_c, 0, 64, 57
2,213558, Control_c, 0, 64, 63
2,213578, Control_c, 0, 64, 65
2,213589, Note_on_c, 0, 58, 0
2,213596, Control_c, 0, 64, 70
2,213616, Control_c, 0, 64, 77
2,213625, Note_on_c, 0, 59, 54
2,213632, Note_on_c, 0, 78, 57
2,213635, Control_c, 0, 64, 88
2,213655, Control_c, 0, 64, 96
2,213673, Control_c, 0, 64, 98
2,213730, Control_c, 0, 64, 99
2,213865, Control_c, 0, 64, 97
2,213884, Control_c, 0, 64, 90
2,213895, Note_on_c, 0, 68, 0
2,213904, Control_c, 0, 64, 76
2,213923, Control_c, 0, 64, 64
2,213942, Control_c, 0, 64, 44
2,213961, Control_c, 0, 64, 36
2,213981, Control_c, 0, 64, 40
2,214001, Control_c, 0, 64, 50
2,214019, Note_on_c, 0, 61, 48
2,214021, Control_c, 0, 64, 60
2,214040, Control_c, 0, 64, 64
2,214059, Control_c, 0, 64, 67
2,214060, Note_on_c, 0, 77, 60
2,214069, Note_on_c, 0, 59, 0
2,214078, Control_c, 0, 64, 70
2,214098, Control_c, 0, 64, 75
2,214117, Control_c, 0, 64, 81
2,214136, Control_c, 0, 64, 87
2,214153, Note_on_c, 0, 78, 0
2,214155, Control_c, 0, 64, 91
2,214175, Control_c, 0, 64, 92
2,214213, Control_c, 0, 64, 93
2,214232, Control_c, 0, 64, 93
2,214251, Control_c, 0, 64, 95
2,214270, Control_c, 0, 64, 96
2,214289, Control_c, 0, 64, 97
2,214309, Control_c, 0, 64, 97
2,214328, Control_c, 0, 64, 99
2,214347, Control_c, 0, 64, 101
2,214366, Control_c, 0, 64, 102
2,214404, Control_c, 0, 64, 103
2,214435, Note_on_c, 0, 61, 0
2,214435, Note_on_c, 0, 78, 59
2,214438, Control_c, 0, 64, 103
2,214458, Control_c, 0, 64, 104
2,214477, Control_c, 0, 64, 104
2,214515, Control_c, 0, 64, 105
2,214535, Control_c, 0, 64, 105
2,214611, Note_on_c, 0, 80, 64
2,214660, Note_on_c, 0, 77, 0
2,214764, Control_c, 0, 64, 104
2,214784, Control_c, 0, 64, 102
2,214803, Control_c, 0, 64, 95
2,214823, Control_c, 0, 64, 82
2,214829, Note_on_c, 0, 82, 65
2,214830, Note_on_c, 0, 54, 58
2,214841, Control_c, 0, 64, 68
2,214861, Control_c, 0, 64, 61
2,214866, Note_on_c, 0, 80, 0
2,214880, Control_c, 0, 64, 58
2,214900, Control_c, 0, 64, 59
2,214918, Control_c, 0, 64, 61
2,214928, Note_on_c, 0, 78, 0
2,214938, Control_c, 0, 64, 62
2,214957, Control_c, 0, 64, 64
2,214978, Control_c, 0, 64, 66
2,214997, Control_c, 0, 64, 68
2,215017, Control_c, 0, 64, 71
2,215035, Control_c, 0, 64, 75
2,215048, Note_on_c, 0, 80, 53
2,215055, Control_c, 0, 64, 78
2,215074, Control_c, 0, 64, 79
2,215079, Note_on_c, 0, 82, 0
2,215112, Control_c, 0, 64, 80
2,215131, Control_c, 0, 64, 81
2,215151, Control_c, 0, 64, 83
2,215169, Control_c, 0, 64, 83
2,215228, Control_c, 0, 64, 84
2,215237, Note_on_c, 0, 82, 69
2,215246, Control_c, 0, 64, 87
2,215266, Control_c, 0, 64, 89
2,215285, Control_c, 0, 64, 89
2,215304, Note_on_c, 0, 80, 0
2,215343, Control_c, 0, 64, 90
2,215457, Control_c, 0, 64, 89
2,215476, Control_c, 0, 64, 89
2,215514, Control_c, 0, 64, 88
2,215534, Control_c, 0, 64, 88
2,215553, Control_c, 0, 64, 87
2,215573, Control_c, 0, 64, 85
2,215591, Control_c, 0, 64, 82
2,215610, Control_c, 0, 64, 78
2,215627, Note_on_c, 0, 59, 67
2,215630, Control_c, 0, 64, 70
2,215645, Note_on_c, 0, 75, 77
2,215649, Control_c, 0, 64, 61
2,215668, Control_c, 0, 64, 42
2,215687, Control_c, 0, 64, 33
2,215725, Control_c, 0, 64, 37
2,215744, Note_on_c, 0, 82, 0
2,215745, Control_c, 0, 64, 50
2,215764, Control_c, 0, 64, 61
2,215784, Control_c, 0, 64, 65
2,215802, Control_c, 0, 64, 68
2,215822, Control_c, 0, 64, 72
2,215841, Control_c, 0, 64, 78
2,215860, Control_c, 0, 64, 83
2,215879, Control_c, 0, 64, 86
2,215899, Control_c, 0, 64, 89
2,215918, Control_c, 0, 64, 91
2,215938, Control_c, 0, 64, 92
2,216064, Note_on_c, 0, 80, 60
2,216122, Note_on_c, 0, 54, 0
2,216206, Control_c, 0, 64, 91
2,216226, Control_c, 0, 64, 91
2,216236, Note_on_c, 0, 78, 64
2,216277, Note_on_c, 0, 80, 0
2,216283, Control_c, 0, 64, 90
2,216288, Note_on_c, 0, 73, 0
2,216303, Control_c, 0, 64, 90
2,216340, Note_on_c, 0, 78, 0
2,216342, Control_c, 0, 64, 89
2,216361, Control_c, 0, 64, 89
2,216381, Control_c, 0, 64, 88
2,216399, Control_c, 0, 64, 87
2,216419, Control_c, 0, 64, 84
2,216438, Control_c, 0, 64, 79
2,216449, Note_on_c, 0, 75, 0
2,216449, Note_on_c, 0, 75, 12
2,216458, Control_c, 0, 64, 69
2,216462, Note_on_c, 0, 73, 72
2,216476, Control_c, 0, 64, 59
2,216478, Note_on_c, 0, 77, 60
2,216496, Control_c, 0, 64, 27
2,216515, Control_c, 0, 64, 13
2,216550, Note_on_c, 0, 75, 0
2,216553, Control_c, 0, 64, 29
2,216573, Control_c, 0, 64, 49
2,216592, Control_c, 0, 64, 61
2,216610, Control_c, 0, 64, 65
2,216630, Control_c, 0, 64, 68
2,216649, Control_c, 0, 64, 71
2,216669, Control_c, 0, 64, 74
2,216687, Control_c, 0, 64, 77
2,216707, Control_c, 0, 64, 79
2,216726, Control_c, 0, 64, 80
2,216784, Control_c, 0, 64, 80
2,216803, Control_c, 0, 64, 77
2,216822, Control_c, 0, 64, 69
2,216838, Note_on_c, 0, 58, 50
2,216840, Note_on_c, 0, 78, 61
2,216841, Control_c, 0, 64, 60
2,216861, Control_c, 0, 64, 43
2,216879, Control_c, 0, 64, 42
2,216899, Control_c, 0, 64, 52
2,216900, Note_on_c, 0, 59, 0
2,216918, Control_c, 0, 64, 60
2,216938, Control_c, 0, 64, 64
2,216956, Control_c, 0, 64, 68
2,216976, Control_c, 0, 64, 73
2,216976, Note_on_c, 0, 77, 0
2,216995, Control_c, 0, 64, 81
2,217015, Control_c, 0, 64, 89
2,217024, Note_on_c, 0, 73, 0
2,217033, Control_c, 0, 64, 92
2,217072, Control_c, 0, 64, 91
2,217129, Control_c, 0, 64, 91
2,217206, Control_c, 0, 64, 90
2,217225, Control_c, 0, 64, 86
2,217244, Control_c, 0, 64, 76
2,217264, Control_c, 0, 64, 65
2,217281, Note_on_c, 0, 71, 75
2,217283, Control_c, 0, 64, 47
2,217284, Note_on_c, 0, 56, 51
2,217287, Note_on_c, 0, 58, 0
2,217300, Control_c, 0, 64, 0
2,217376, Control_c, 0, 64, 41
2,217395, Control_c, 0, 64, 59
2,217415, Control_c, 0, 64, 64
2,217434, Control_c, 0, 64, 66
2,217453, Control_c, 0, 64, 69
2,217472, Control_c, 0, 64, 72
2,217491, Control_c, 0, 64, 76
2,217510, Control_c, 0, 64, 82
2,217529, Control_c, 0, 64, 86
2,217546, Note_on_c, 0, 78, 0
2,217549, Control_c, 0, 64, 89
2,217587, Control_c, 0, 64, 89
2,217606, Control_c, 0, 64, 90
2,217626, Control_c, 0, 64, 93
2,217644, Control_c, 0, 64, 96
2,217664, Control_c, 0, 64, 98
2,217679, Note_on_c, 0, 77, 61
2,217683, Control_c, 0, 64, 100
2,217709, Note_on_c, 0, 56, 0
2,217780, Control_c, 0, 64, 100
2,217798, Control_c, 0, 64, 101
2,217818, Control_c, 0, 64, 102
2,217819, Note_on_c, 0, 71, 0
2,217839, Control_c, 0, 64, 104
2,217859, Control_c, 0, 64, 107
2,217878, Control_c, 0, 64, 109
2,217898, Control_c, 0, 64, 110
2,218013, Control_c, 0, 64, 106
2,218032, Control_c, 0, 64, 95
2,218050, Control_c, 0, 64, 77
2,218070, Control_c, 0, 64, 62
2,218086, Note_on_c, 0, 70, 77
2,218089, Control_c, 0, 64, 0
2,218093, Note_on_c, 0, 54, 51
2,218121, Note_on_c, 0, 78, 55
2,218140, Note_on_c, 0, 77, 0
2,218147, Control_c, 0, 64, 40
2,218166, Control_c, 0, 64, 58
2,218185, Control_c, 0, 64, 64
2,218204, Control_c, 0, 64, 68
2,218224, Control_c, 0, 64, 73
2,218243, Control_c, 0, 64, 82
2,218261, Control_c, 0, 64, 93
2,218279, Control_c, 0, 64, 100
2,218394, Control_c, 0, 64, 97
2,218414, Control_c, 0, 64, 84
2,218433, Control_c, 0, 64, 70
2,218453, Control_c, 0, 64, 61
2,218471, Control_c, 0, 64, 59
2,218481, Note_on_c, 0, 52, 51
2,218490, Control_c, 0, 64, 63
2,218490, Note_on_c, 0, 73, 72
2,218510, Control_c, 0, 64, 65
2,218529, Control_c, 0, 64, 69
2,218539, Note_on_c, 0, 54, 0
2,218548, Control_c, 0, 64, 78
2,218567, Control_c, 0, 64, 91
2,218586, Note_on_c, 0, 52, 0
2,218587, Control_c, 0, 64, 101
2,218605, Control_c, 0, 64, 102
2,218644, Control_c, 0, 64, 103
2,218679, Note_on_c, 0, 78, 0
2,218693, Note_on_c, 0, 70, 0
2,218857, Control_c, 0, 64, 98
2,218875, Control_c, 0, 64, 84
2,218875, Note_on_c, 0, 51, 49
2,218895, Control_c, 0, 64, 69
2,218905, Note_on_c, 0, 71, 80
2,218914, Control_c, 0, 64, 58
2,218934, Control_c, 0, 64, 48
2,218935, Note_on_c, 0, 78, 64
2,218952, Control_c, 0, 64, 54
2,218971, Control_c, 0, 64, 61
2,218991, Control_c, 0, 64, 65
2,219009, Control_c, 0, 64, 69
2,219029, Control_c, 0, 64, 76
2,219048, Control_c, 0, 64, 85
2,219060, Note_on_c, 0, 73, 0
2,219068, Control_c, 0, 64, 93
2,219086, Control_c, 0, 64, 95
2,219102, Note_on_c, 0, 49, 53
2,219105, Note_on_c, 0, 51, 0
2,219260, Control_c, 0, 64, 95
2,219270, Note_on_c, 0, 51, 57
2,219355, Control_c, 0, 64, 95
2,219382, Note_on_c, 0, 49, 0
2,219394, Control_c, 0, 64, 94
2,219424, Note_on_c, 0, 51, 0
2,219442, Note_on_c, 0, 52, 58
2,219448, Note_on_c, 0, 71, 0
2,219509, Control_c, 0, 64, 94
2,219548, Control_c, 0, 64, 92
2,219566, Control_c, 0, 64, 91
2,219586, Control_c, 0, 64, 91
2,219605, Control_c, 0, 64, 90
2,219624, Control_c, 0, 64, 90
2,219631, Note_on_c, 0, 52, 0
2,219643, Control_c, 0, 64, 87
2,219663, Control_c, 0, 64, 76
2,219671, Note_on_c, 0, 46, 51
2,219682, Control_c, 0, 64, 64
2,219700, Note_on_c, 0, 73, 82
2,219701, Control_c, 0, 64, 45
2,219720, Control_c, 0, 64, 34
2,219740, Control_c, 0, 64, 42
2,219745, Note_on_c, 0, 78, 0
2,219759, Control_c, 0, 64, 53
2,219779, Control_c, 0, 64, 61
2,219798, Control_c, 0, 64, 65
2,219818, Control_c, 0, 64, 67
2,219836, Control_c, 0, 64, 68
2,219856, Control_c, 0, 64, 69
2,220009, Control_c, 0, 64, 68
2,220029, Control_c, 0, 64, 67
2,220047, Control_c, 0, 64, 64
2,220067, Control_c, 0, 64, 58
2,220086, Control_c, 0, 64, 53
2,220099, Note_on_c, 0, 42, 43
2,220124, Control_c, 0, 64, 55
2,220127, Note_on_c, 0, 80, 60
2,220135, Note_on_c, 0, 46, 0
2,220144, Control_c, 0, 64, 58
2,220163, Control_c, 0, 64, 60
2,220180, Control_c, 0, 64, 62
2,220199, Control_c, 0, 64, 63
2,220219, Control_c, 0, 64, 63
2,220238, Control_c, 0, 64, 64
2,220314, Control_c, 0, 64, 63
2,220334, Control_c, 0, 64, 61
2,220353, Control_c, 0, 64, 55
2,220372, Control_c, 0, 64, 42
2,220391, Control_c, 0, 64, 25
2,220410, Control_c, 0, 64, 19
2,220430, Control_c, 0, 64, 25
2,220449, Control_c, 0, 64, 46
2,220468, Control_c, 0, 64, 61
2,220487, Control_c, 0, 64, 65
2,220495, Note_on_c, 0, 44, 50
2,220501, Note_on_c, 0, 78, 57
2,220507, Control_c, 0, 64, 67
2,220525, Control_c, 0, 64, 68
2,220551, Note_on_c, 0, 42, 0
2,220584, Control_c, 0, 64, 68
2,220622, Control_c, 0, 64, 69
2,220641, Control_c, 0, 64, 69
2,220660, Control_c, 0, 64, 70
2,220720, Control_c, 0, 64, 69
2,220759, Control_c, 0, 64, 68
2,220779, Control_c, 0, 64, 67
2,220797, Control_c, 0, 64, 65
2,220817, Control_c, 0, 64, 63
2,220836, Control_c, 0, 64, 59
2,220855, Control_c, 0, 64, 48
2,220874, Control_c, 0, 64, 37
2,220875, Note_on_c, 0, 46, 48
2,220882, Note_on_c, 0, 76, 57
2,220913, Control_c, 0, 64, 49
2,220914, Note_on_c, 0, 44, 0
2,220931, Control_c, 0, 64, 62
2,220945, Note_on_c, 0, 80, 0
2,220951, Control_c, 0, 64, 67
2,220970, Control_c, 0, 64, 74
2,220989, Control_c, 0, 64, 90
2,220994, Note_on_c, 0, 73, 0
2,221008, Control_c, 0, 64, 127
2,221039, Note_on_c, 0, 78, 0
2,221051, Note_on_c, 0, 76, 0
2,221258, Control_c, 0, 64, 113
2,221276, Control_c, 0, 64, 93
2,221296, Control_c, 0, 64, 75
2,221315, Control_c, 0, 64, 59
2,221315, Note_on_c, 0, 75, 53
2,221318, Note_on_c, 0, 47, 43
2,221319, Note_on_c, 0, 66, 56
2,221335, Control_c, 0, 64, 22
2,221336, Note_on_c, 0, 46, 0
2,221353, Control_c, 0, 64, 9
2,221372, Control_c, 0, 64, 28
2,221392, Control_c, 0, 64, 48
2,221410, Control_c, 0, 64, 61
2,221430, Control_c, 0, 64, 65
2,221449, Control_c, 0, 64, 67
2,221469, Control_c, 0, 64, 70
2,221487, Control_c, 0, 64, 73
2,221507, Control_c, 0, 64, 74
2,221526, Control_c, 0, 64, 75
2,221545, Control_c, 0, 64, 74
2,221564, Control_c, 0, 64, 73
2,221584, Control_c, 0, 64, 67
2,221603, Control_c, 0, 64, 59
2,221622, Control_c, 0, 64, 47
2,221641, Control_c, 0, 64, 45
2,221661, Control_c, 0, 64, 46
2,221680, Control_c, 0, 64, 52
2,221695, Note_on_c, 0, 47, 0
2,221700, Control_c, 0, 64, 60
2,221719, Control_c, 0, 64, 66
2,221736, Note_on_c, 0, 49, 49
2,221739, Control_c, 0, 64, 70
2,221753, Note_on_c, 0, 76, 52
2,221757, Control_c, 0, 64, 77
2,221777, Control_c, 0, 64, 84
2,221796, Control_c, 0, 64, 87
2,221834, Control_c, 0, 64, 87
2,221930, Control_c, 0, 64, 86
2,222007, Control_c, 0, 64, 86
2,222026, Control_c, 0, 64, 83
2,222045, Control_c, 0, 64, 78
2,222065, Control_c, 0, 64, 70
2,222084, Control_c, 0, 64, 61
2,222102, Control_c, 0, 64, 0
2,222123, Note_on_c, 0, 51, 44
2,222152, Note_on_c, 0, 78, 62
2,222166, Note_on_c, 0, 49, 0
2,222224, Note_on_c, 0, 76, 0
2,222250, Note_on_c, 0, 75, 0
2,222409, Control_c, 0, 64, 22
2,222429, Control_c, 0, 64, 55
2,222447, Control_c, 0, 64, 63
2,222467, Control_c, 0, 64, 64
2,222486, Control_c, 0, 64, 65
2,222505, Control_c, 0, 64, 67
2,222524, Control_c, 0, 64, 70
2,222528, Note_on_c, 0, 52, 43
2,222544, Control_c, 0, 64, 78
2,222563, Control_c, 0, 64, 88
2,222582, Control_c, 0, 64, 102
2,222598, Note_on_c, 0, 51, 0
2,222601, Control_c, 0, 64, 127
2,222664, Note_on_c, 0, 52, 0
2,222692, Note_on_c, 0, 54, 48
2,222782, Note_on_c, 0, 54, 0
2,222930, Control_c, 0, 64, 121
2,222937, Note_on_c, 0, 71, 72
2,222946, Note_on_c, 0, 56, 53
2,222950, Control_c, 0, 64, 91
2,222969, Control_c, 0, 64, 72
2,222988, Control_c, 0, 64, 62
2,223007, Control_c, 0, 64, 49
2,223009, Note_on_c, 0, 66, 0
2,223027, Control_c, 0, 64, 45
2,223062, Control_c, 0, 64, 46
2,223080, Control_c, 0, 64, 47
2,223100, Control_c, 0, 64, 48
2,223119, Control_c, 0, 64, 49
2,223135, Note_on_c, 0, 78, 0
2,223138, Control_c, 0, 64, 50
2,223157, Control_c, 0, 64, 51
2,223177, Control_c, 0, 64, 51
2,223234, Control_c, 0, 64, 52
2,223254, Control_c, 0, 64, 53
2,223272, Control_c, 0, 64, 55
2,223291, Control_c, 0, 64, 58
2,223311, Control_c, 0, 64, 61
2,223329, Control_c, 0, 64, 63
2,223348, Note_on_c, 0, 58, 39
2,223349, Control_c, 0, 64, 65
2,223368, Control_c, 0, 64, 69
2,223388, Control_c, 0, 64, 79
2,223406, Control_c, 0, 64, 95
2,223411, Note_on_c, 0, 56, 0
2,223426, Control_c, 0, 64, 127
2,223445, Control_c, 0, 67, 24
2,223465, Control_c, 0, 67, 47
2,223483, Control_c, 0, 67, 70
2,223503, Control_c, 0, 67, 92
2,223522, Control_c, 0, 67, 105
2,223523, Note_on_c, 0, 58, 0
2,223541, Control_c, 0, 67, 115
2,223560, Control_c, 0, 67, 123
2,223580, Control_c, 0, 67, 127
2,223580, Note_on_c, 0, 59, 31
2,223633, Note_on_c, 0, 59, 0
2,223714, Control_c, 0, 67, 127
2,223752, Control_c, 0, 64, 115
2,223752, Control_c, 0, 67, 126
2,223753, Note_on_c, 0, 49, 51
2,223771, Control_c, 0, 64, 92
2,223771, Control_c, 0, 67, 125
2,223782, Note_on_c, 0, 76, 52
2,223791, Control_c, 0, 64, 75
2,223791, Control_c, 0, 67, 125
2,223809, Control_c, 0, 64, 66
2,223829, Control_c, 0, 64, 58
2,223848, Control_c, 0, 64, 51
2,223868, Control_c, 0, 64, 48
2,223868, Control_c, 0, 67, 125
2,223886, Control_c, 0, 64, 47
2,223886, Control_c, 0, 67, 126
2,223906, Control_c, 0, 64, 46
2,223906, Control_c, 0, 67, 127
2,223925, Control_c, 0, 64, 46
2,223925, Control_c, 0, 67, 127
2,223983, Control_c, 0, 64, 46
2,224002, Control_c, 0, 64, 47
2,224021, Control_c, 0, 64, 49
2,224040, Control_c, 0, 64, 51
2,224060, Control_c, 0, 64, 54
2,224079, Control_c, 0, 64, 58
2,224098, Control_c, 0, 64, 61
2,224117, Control_c, 0, 64, 63
2,224137, Control_c, 0, 64, 66
2,224152, Note_on_c, 0, 51, 49
2,224155, Control_c, 0, 64, 71
2,224175, Control_c, 0, 64, 80
2,224194, Control_c, 0, 64, 100
2,224194, Control_c, 0, 67, 127
2,224212, Note_on_c, 0, 49, 0
2,224214, Control_c, 0, 64, 127
2,224251, Control_c, 0, 67, 126
2,224271, Control_c, 0, 67, 126
2,224297, Note_on_c, 0, 51, 0
2,224316, Note_on_c, 0, 52, 57
2,224358, Note_on_c, 0, 52, 0
2,224366, Control_c, 0, 67, 125
2,224501, Control_c, 0, 64, 95
2,224520, Control_c, 0, 64, 75
2,224533, Note_on_c, 0, 42, 56
2,224540, Control_c, 0, 64, 63
2,224559, Control_c, 0, 64, 47
2,224579, Control_c, 0, 64, 45
2,224598, Control_c, 0, 64, 55
2,224618, Control_c, 0, 64, 62
2,224636, Control_c, 0, 64, 66
2,224656, Control_c, 0, 64, 70
2,224675, Control_c, 0, 64, 77
2,224695, Control_c, 0, 64, 85
2,224713, Control_c, 0, 64, 91
2,224713, Control_c, 0, 67, 125
2,224732, Control_c, 0, 64, 91
2,224752, Control_c, 0, 64, 92
2,224770, Control_c, 0, 67, 124
2,224809, Control_c, 0, 64, 91
2,224829, Control_c, 0, 64, 89
2,224847, Control_c, 0, 64, 84
2,224867, Control_c, 0, 64, 74
2,224886, Control_c, 0, 64, 64
2,224905, Control_c, 0, 64, 52
2,224924, Control_c, 0, 64, 47
2,224932, Note_on_c, 0, 54, 51
2,224944, Control_c, 0, 64, 53
2,224961, Note_on_c, 0, 75, 49
2,224963, Control_c, 0, 64, 60
2,224963, Note_on_c, 0, 71, 0
2,224981, Control_c, 0, 64, 64
2,225000, Control_c, 0, 64, 69
2,225020, Control_c, 0, 64, 79
2,225039, Control_c, 0, 64, 94
2,225058, Control_c, 0, 64, 108
2,225077, Control_c, 0, 64, 112
2,225115, Control_c, 0, 64, 111
2,225115, Control_c, 0, 67, 124
2,225135, Control_c, 0, 64, 110
2,225154, Control_c, 0, 64, 108
2,225154, Control_c, 0, 67, 123
2,225156, Note_on_c, 0, 42, 0
2,225173, Control_c, 0, 64, 107
2,225192, Control_c, 0, 64, 105
2,225211, Control_c, 0, 64, 103
2,225231, Control_c, 0, 64, 100
2,225249, Control_c, 0, 64, 93
2,225269, Control_c, 0, 64, 82
2,225271, Note_on_c, 0, 75, 0
2,225288, Control_c, 0, 64, 69
2,225292, Note_on_c, 0, 76, 0
2,225308, Control_c, 0, 64, 62
2,225308, Control_c, 0, 67, 123
2,225326, Control_c, 0, 64, 57
2,225326, Control_c, 0, 67, 122
2,225346, Control_c, 0, 64, 57
2,225346, Control_c, 0, 67, 121
2,225365, Control_c, 0, 64, 59
2,225365, Control_c, 0, 67, 121
2,225371, Note_on_c, 0, 70, 55
2,225376, Note_on_c, 0, 73, 46
2,225385, Control_c, 0, 64, 61
2,225385, Control_c, 0, 67, 120
2,225403, Control_c, 0, 64, 63
2,225423, Control_c, 0, 64, 64
2,225423, Control_c, 0, 67, 119
2,225461, Control_c, 0, 67, 119
2,225480, Control_c, 0, 64, 63
2,225480, Control_c, 0, 67, 118
2,225500, Control_c, 0, 64, 61
2,225500, Control_c, 0, 67, 118
2,225520, Control_c, 0, 64, 58
2,225520, Control_c, 0, 67, 116
2,225540, Control_c, 0, 64, 56
2,225540, Control_c, 0, 67, 115
2,225559, Control_c, 0, 67, 114
2,225579, Control_c, 0, 64, 58
2,225579, Control_c, 0, 67, 113
2,225597, Control_c, 0, 64, 61
2,225597, Control_c, 0, 67, 111
2,225617, Control_c, 0, 64, 64
2,225617, Control_c, 0, 67, 109
2,225636, Control_c, 0, 64, 67
2,225636, Control_c, 0, 67, 109
2,225655, Control_c, 0, 64, 70
2,225655, Control_c, 0, 67, 108
2,225661, Note_on_c, 0, 54, 0
2,225674, Control_c, 0, 64, 74
2,225674, Control_c, 0, 67, 106
2,225693, Control_c, 0, 64, 80
2,225693, Control_c, 0, 67, 104
2,225713, Control_c, 0, 64, 86
2,225713, Control_c, 0, 67, 103
2,225731, Control_c, 0, 64, 91
2,225731, Control_c, 0, 67, 102
2,225751, Control_c, 0, 64, 92
2,225751, Control_c, 0, 67, 100
2,225770, Control_c, 0, 67, 98
2,225775, Note_on_c, 0, 55, 41
2,225789, Control_c, 0, 67, 96
2,225808, Control_c, 0, 67, 94
2,225928, Note_on_c, 0, 70, 0
2,225960, Control_c, 0, 64, 91
2,225980, Control_c, 0, 64, 91
2,226018, Control_c, 0, 64, 90
2,226037, Control_c, 0, 64, 90
2,226057, Control_c, 0, 67, 94
2,226075, Control_c, 0, 64, 89
2,226095, Control_c, 0, 64, 87
2,226095, Control_c, 0, 67, 95
2,226113, Note_on_c, 0, 73, 0
2,226114, Control_c, 0, 64, 82
2,226133, Control_c, 0, 64, 76
2,226141, Note_on_c, 0, 55, 0
2,226152, Control_c, 0, 64, 70
2,226152, Control_c, 0, 67, 94
2,226170, Note_on_c, 0, 56, 42
2,226171, Control_c, 0, 64, 65
2,226172, Note_on_c, 0, 71, 57
2,226175, Note_on_c, 0, 68, 39
2,226191, Control_c, 0, 64, 61
2,226209, Control_c, 0, 64, 56
2,226229, Control_c, 0, 64, 52
2,226248, Control_c, 0, 64, 50
2,226268, Control_c, 0, 64, 49
2,226268, Control_c, 0, 67, 95
2,226286, Control_c, 0, 64, 48
2,226306, Control_c, 0, 64, 48
2,226363, Control_c, 0, 67, 94
2,226383, Control_c, 0, 67, 94
2,226421, Control_c, 0, 64, 48
2,226421, Control_c, 0, 67, 93
2,226440, Control_c, 0, 64, 50
2,226460, Control_c, 0, 64, 53
2,226480, Control_c, 0, 64, 56
2,226500, Control_c, 0, 64, 58
2,226519, Control_c, 0, 64, 60
2,226539, Control_c, 0, 64, 62
2,226539, Control_c, 0, 67, 94
2,226557, Control_c, 0, 64, 63
2,226577, Control_c, 0, 64, 64
2,226596, Control_c, 0, 64, 66
2,226603, Note_on_c, 0, 55, 36
2,226615, Control_c, 0, 64, 68
2,226629, Note_on_c, 0, 56, 0
2,226634, Control_c, 0, 64, 71
2,226653, Control_c, 0, 64, 74
2,226673, Control_c, 0, 64, 77
2,226673, Control_c, 0, 67, 94
2,226691, Control_c, 0, 64, 78
2,226691, Control_c, 0, 67, 95
2,226711, Control_c, 0, 67, 95
2,226749, Control_c, 0, 64, 77
2,226749, Control_c, 0, 67, 96
2,226788, Control_c, 0, 64, 77
2,226807, Control_c, 0, 64, 76
2,226845, Control_c, 0, 64, 76
2,226865, Control_c, 0, 64, 75
2,226884, Control_c, 0, 64, 74
2,226903, Control_c, 0, 64, 73
2,226920, Control_c, 0, 64, 70
2,226920, Control_c, 0, 67, 96
2,226940, Control_c, 0, 64, 66
2,226959, Control_c, 0, 64, 63
2,226978, Control_c, 0, 64, 59
2,226995, Note_on_c, 0, 56, 41
2,226997, Control_c, 0, 64, 56
2,227004, Note_on_c, 0, 55, 0
2,227011, Note_on_c, 0, 76, 44
2,227017, Control_c, 0, 64, 53
2,227035, Control_c, 0, 64, 51
2,227055, Control_c, 0, 64, 50
2,227151, Control_c, 0, 64, 51
2,227169, Control_c, 0, 67, 96
2,227189, Control_c, 0, 64, 51
2,227208, Control_c, 0, 64, 52
2,227208, Control_c, 0, 67, 95
2,227228, Control_c, 0, 64, 53
2,227228, Control_c, 0, 67, 95
2,227246, Control_c, 0, 64, 54
2,227246, Control_c, 0, 67, 94
2,227266, Control_c, 0, 64, 54
2,227266, Control_c, 0, 67, 94
2,227285, Control_c, 0, 64, 55
2,227305, Control_c, 0, 64, 57
2,227323, Control_c, 0, 64, 59
2,227323, Control_c, 0, 67, 93
2,227343, Control_c, 0, 64, 61
2,227362, Control_c, 0, 64, 63
2,227362, Control_c, 0, 67, 93
2,227381, Control_c, 0, 64, 64
2,227381, Control_c, 0, 67, 92
2,227400, Control_c, 0, 64, 65
2,227408, Note_on_c, 0, 58, 39
2,227420, Control_c, 0, 64, 67
2,227439, Control_c, 0, 64, 70
2,227455, Note_on_c, 0, 68, 0
2,227458, Control_c, 0, 64, 74
2,227477, Control_c, 0, 64, 79
2,227497, Control_c, 0, 64, 83
2,227515, Control_c, 0, 64, 84
2,227529, Note_on_c, 0, 56, 0
2,227554, Control_c, 0, 64, 84
2,227631, Control_c, 0, 64, 83
2,227669, Control_c, 0, 64, 83
2,227688, Control_c, 0, 64, 82
2,227708, Control_c, 0, 64, 81
2,227726, Control_c, 0, 64, 80
2,227746, Control_c, 0, 64, 78
2,227765, Control_c, 0, 64, 75
2,227785, Control_c, 0, 64, 71
2,227794, Note_on_c, 0, 59, 42
2,227797, Note_on_c, 0, 58, 0
2,227803, Control_c, 0, 64, 66
2,227813, Note_on_c, 0, 66, 56
2,227823, Control_c, 0, 64, 60
2,227842, Control_c, 0, 64, 53
2,227860, Control_c, 0, 64, 47
2,227879, Control_c, 0, 64, 43
2,227879, Control_c, 0, 67, 93
2,227899, Control_c, 0, 64, 43
2,227918, Control_c, 0, 64, 43
2,227937, Control_c, 0, 64, 44
2,227956, Control_c, 0, 64, 45
2,227976, Control_c, 0, 64, 45
2,227994, Control_c, 0, 64, 46
2,227994, Control_c, 0, 67, 92
2,228013, Control_c, 0, 64, 46
2,228013, Control_c, 0, 67, 92
2,228026, Note_on_c, 0, 71, 0
2,228033, Control_c, 0, 64, 47
2,228033, Control_c, 0, 67, 91
2,228052, Control_c, 0, 64, 49
2,228052, Control_c, 0, 67, 91
2,228071, Control_c, 0, 64, 51
2,228071, Control_c, 0, 67, 89
2,228090, Control_c, 0, 64, 54
2,228090, Control_c, 0, 67, 80
2,228110, Control_c, 0, 64, 57
2,228110, Control_c, 0, 67, 60
2,228129, Control_c, 0, 64, 60
2,228129, Control_c, 0, 67, 41
2,228148, Control_c, 0, 64, 61
2,228148, Control_c, 0, 67, 24
2,228167, Control_c, 0, 64, 63
2,228167, Control_c, 0, 67, 8
2,228187, Control_c, 0, 64, 64
2,228187, Control_c, 0, 67, 0
2,228205, Control_c, 0, 64, 65
2,228225, Control_c, 0, 64, 67
2,228234, Note_on_c, 0, 76, 0
2,228244, Control_c, 0, 64, 69
2,228249, Note_on_c, 0, 58, 39
2,228264, Control_c, 0, 64, 73
2,228266, Note_on_c, 0, 74, 32
2,228282, Control_c, 0, 64, 78
2,228292, Note_on_c, 0, 59, 0
2,228302, Control_c, 0, 64, 82
2,228321, Control_c, 0, 64, 85
2,228457, Control_c, 0, 64, 85
2,228514, Control_c, 0, 64, 84
2,228533, Control_c, 0, 64, 84
2,228552, Control_c, 0, 64, 83
2,228571, Control_c, 0, 64, 82
2,228591, Control_c, 0, 64, 80
2,228593, Note_on_c, 0, 66, 0
2,228609, Control_c, 0, 64, 76
2,228629, Control_c, 0, 64, 71
2,228640, Note_on_c, 0, 56, 36
2,228640, Note_on_c, 0, 71, 51
2,228648, Control_c, 0, 64, 67
2,228659, Note_on_c, 0, 75, 48
2,228665, Note_on_c, 0, 58, 0
2,228668, Control_c, 0, 64, 64
2,228679, Note_on_c, 0, 74, 0
2,228686, Control_c, 0, 64, 62
2,228706, Control_c, 0, 64, 61
2,228725, Control_c, 0, 64, 60
2,228745, Control_c, 0, 64, 59
2,228763, Control_c, 0, 64, 58
2,228783, Control_c, 0, 64, 57
2,228802, Control_c, 0, 64, 56
2,228821, Control_c, 0, 64, 55
2,228860, Control_c, 0, 64, 55
2,228937, Control_c, 0, 64, 55
2,228975, Control_c, 0, 64, 56
2,228994, Control_c, 0, 64, 57
2,229013, Control_c, 0, 64, 58
2,229032, Control_c, 0, 64, 59
2,229051, Control_c, 0, 64, 60
2,229061, Note_on_c, 0, 54, 44
2,229071, Control_c, 0, 64, 61
2,229089, Control_c, 0, 64, 62
2,229109, Control_c, 0, 64, 62
2,229122, Note_on_c, 0, 56, 0
2,229128, Control_c, 0, 64, 63
2,229186, Control_c, 0, 64, 62
2,229205, Control_c, 0, 64, 61
2,229225, Control_c, 0, 64, 59
2,229243, Control_c, 0, 64, 58
2,229263, Control_c, 0, 64, 57
2,229282, Control_c, 0, 64, 58
2,229301, Control_c, 0, 64, 61
2,229320, Control_c, 0, 64, 63
2,229340, Control_c, 0, 64, 65
2,229359, Control_c, 0, 64, 66
2,229378, Control_c, 0, 64, 68
2,229397, Control_c, 0, 64, 70
2,229417, Control_c, 0, 64, 73
2,229435, Control_c, 0, 64, 75
2,229450, Note_on_c, 0, 53, 50
2,229455, Control_c, 0, 64, 76
2,229467, Note_on_c, 0, 54, 0
2,229467, Note_on_c, 0, 71, 0
2,229479, Note_on_c, 0, 75, 0
2,229743, Control_c, 0, 64, 75
2,229762, Control_c, 0, 64, 74
2,229781, Control_c, 0, 64, 69
2,229800, Control_c, 0, 64, 64
2,229812, Note_on_c, 0, 54, 45
2,229820, Control_c, 0, 64, 58
2,229823, Note_on_c, 0, 75, 65
2,229834, Note_on_c, 0, 53, 0
2,229839, Control_c, 0, 64, 52
2,229858, Control_c, 0, 64, 51
2,229877, Control_c, 0, 64, 53
2,229897, Control_c, 0, 64, 58
2,229915, Control_c, 0, 64, 62
2,229934, Control_c, 0, 64, 64
2,229954, Control_c, 0, 64, 66
2,229973, Control_c, 0, 64, 69
2,229992, Control_c, 0, 64, 73
2,230011, Control_c, 0, 64, 78
2,230031, Control_c, 0, 64, 82
2,230049, Control_c, 0, 64, 83
2,230069, Control_c, 0, 64, 84
2,230203, Control_c, 0, 64, 83
2,230221, Note_on_c, 0, 54, 0
2,230223, Control_c, 0, 64, 81
2,230231, Note_on_c, 0, 73, 72
2,230235, Note_on_c, 0, 53, 45
2,230242, Control_c, 0, 64, 72
2,230261, Control_c, 0, 64, 64
2,230267, Note_on_c, 0, 80, 50
2,230280, Control_c, 0, 64, 50
2,230300, Control_c, 0, 64, 31
2,230338, Control_c, 0, 64, 43
2,230357, Control_c, 0, 64, 56
2,230377, Control_c, 0, 64, 62
2,230395, Control_c, 0, 64, 64
2,230414, Control_c, 0, 64, 66
2,230425, Note_on_c, 0, 75, 0
2,230434, Control_c, 0, 64, 68
2,230453, Control_c, 0, 64, 70
2,230472, Control_c, 0, 64, 73
2,230491, Control_c, 0, 64, 77
2,230511, Control_c, 0, 64, 80
2,230529, Control_c, 0, 64, 83
2,230560, Note_on_c, 0, 53, 0
2,230568, Control_c, 0, 64, 81
2,230588, Control_c, 0, 64, 75
2,230606, Control_c, 0, 64, 67
2,230612, Note_on_c, 0, 51, 51
2,230618, Note_on_c, 0, 71, 67
2,230626, Control_c, 0, 64, 60
2,230645, Control_c, 0, 64, 50
2,230665, Control_c, 0, 64, 50
2,230683, Control_c, 0, 64, 56
2,230703, Control_c, 0, 64, 61
2,230722, Control_c, 0, 64, 64
2,230732, Note_on_c, 0, 73, 0
2,230740, Control_c, 0, 64, 66
2,230740, Note_on_c, 0, 80, 0
2,230759, Control_c, 0, 64, 70
2,230779, Control_c, 0, 64, 75
2,230798, Control_c, 0, 64, 81
2,230817, Control_c, 0, 64, 83
2,230951, Control_c, 0, 64, 83
2,230990, Control_c, 0, 64, 81
2,231009, Control_c, 0, 64, 77
2,231028, Control_c, 0, 64, 69
2,231029, Note_on_c, 0, 70, 75
2,231036, Note_on_c, 0, 50, 43
2,231046, Note_on_c, 0, 51, 0
2,231047, Control_c, 0, 64, 61
2,231067, Control_c, 0, 64, 37
2,231068, Note_on_c, 0, 71, 0
2,231085, Control_c, 0, 64, 17
2,231105, Control_c, 0, 64, 18
2,231124, Control_c, 0, 64, 35
2,231144, Control_c, 0, 64, 54
2,231162, Control_c, 0, 64, 62
2,231182, Control_c, 0, 64, 65
2,231201, Control_c, 0, 64, 68
2,231220, Control_c, 0, 64, 72
2,231239, Control_c, 0, 64, 77
2,231259, Control_c, 0, 64, 82
2,231275, Note_on_c, 0, 50, 0
2,231279, Control_c, 0, 64, 86
2,231299, Control_c, 0, 64, 87
2,231338, Control_c, 0, 64, 86
2,231356, Control_c, 0, 64, 85
2,231376, Control_c, 0, 64, 81
2,231395, Control_c, 0, 64, 74
2,231414, Control_c, 0, 64, 66
2,231424, Note_on_c, 0, 71, 65
2,231428, Note_on_c, 0, 62, 33
2,231433, Control_c, 0, 64, 59
2,231438, Note_on_c, 0, 80, 59
2,231452, Control_c, 0, 64, 59
2,231472, Control_c, 0, 64, 62
2,231490, Control_c, 0, 64, 65
2,231501, Note_on_c, 0, 70, 0
2,231510, Control_c, 0, 64, 68
2,231529, Control_c, 0, 64, 72
2,231549, Control_c, 0, 64, 79
2,231565, Note_on_c, 0, 62, 0
2,231567, Control_c, 0, 64, 87
2,231587, Control_c, 0, 64, 93
2,231594, Note_on_c, 0, 63, 50
2,231606, Control_c, 0, 64, 94
2,231635, Note_on_c, 0, 80, 0
2,231700, Control_c, 0, 64, 93
2,231717, Control_c, 0, 64, 92
2,231737, Control_c, 0, 64, 91
2,231756, Control_c, 0, 64, 90
2,231774, Control_c, 0, 64, 89
2,231783, Note_on_c, 0, 63, 0
2,231794, Control_c, 0, 64, 86
2,231797, Note_on_c, 0, 73, 57
2,231808, Note_on_c, 0, 64, 50
2,231813, Control_c, 0, 64, 82
2,231833, Control_c, 0, 64, 76
2,231850, Note_on_c, 0, 79, 55
2,231851, Control_c, 0, 64, 69
2,231871, Control_c, 0, 64, 62
2,231890, Control_c, 0, 64, 48
2,231910, Control_c, 0, 64, 41
2,231928, Control_c, 0, 64, 40
2,232044, Control_c, 0, 64, 41
2,232063, Control_c, 0, 64, 42
2,232082, Control_c, 0, 64, 44
2,232102, Control_c, 0, 64, 46
2,232104, Note_on_c, 0, 64, 0
2,232120, Control_c, 0, 64, 49
2,232140, Control_c, 0, 64, 55
2,232159, Control_c, 0, 64, 60
2,232179, Control_c, 0, 64, 63
2,232192, Note_on_c, 0, 58, 35
2,232197, Control_c, 0, 64, 65
2,232217, Control_c, 0, 64, 66
2,232236, Control_c, 0, 64, 68
2,232241, Note_on_c, 0, 78, 50
2,232256, Note_on_c, 0, 79, 0
2,232258, Control_c, 0, 64, 70
2,232277, Control_c, 0, 64, 75
2,232297, Control_c, 0, 64, 82
2,232297, Note_on_c, 0, 71, 0
2,232315, Control_c, 0, 64, 88
2,232334, Control_c, 0, 64, 93
2,232354, Control_c, 0, 64, 96
2,232373, Control_c, 0, 64, 99
2,232392, Control_c, 0, 64, 101
2,232411, Control_c, 0, 64, 104
2,232431, Control_c, 0, 64, 106
2,232469, Control_c, 0, 67, 14
2,232488, Control_c, 0, 67, 25
2,232508, Control_c, 0, 67, 38
2,232526, Control_c, 0, 67, 53
2,232546, Control_c, 0, 64, 105
2,232546, Control_c, 0, 67, 68
2,232565, Control_c, 0, 64, 104
2,232565, Control_c, 0, 67, 82
2,232579, Note_on_c, 0, 59, 45
2,232585, Control_c, 0, 64, 103
2,232585, Control_c, 0, 67, 94
2,232603, Control_c, 0, 64, 101
2,232603, Control_c, 0, 67, 105
2,232623, Control_c, 0, 64, 95
2,232623, Control_c, 0, 67, 112
2,232642, Control_c, 0, 64, 85
2,232642, Control_c, 0, 67, 117
2,232656, Note_on_c, 0, 58, 0
2,232658, Control_c, 0, 64, 72
2,232658, Control_c, 0, 67, 120
2,232668, Note_on_c, 0, 68, 62
2,232676, Control_c, 0, 64, 62
2,232676, Control_c, 0, 67, 121
2,232696, Control_c, 0, 64, 48
2,232701, Note_on_c, 0, 73, 0
2,232705, Note_on_c, 0, 78, 0
2,232715, Control_c, 0, 64, 45
2,232734, Control_c, 0, 64, 51
2,232753, Control_c, 0, 64, 57
2,232772, Control_c, 0, 64, 62
2,232772, Control_c, 0, 67, 120
2,232792, Control_c, 0, 64, 64
2,232792, Control_c, 0, 67, 120
2,232810, Control_c, 0, 64, 67
2,232830, Control_c, 0, 64, 70
2,232830, Control_c, 0, 67, 119
2,232849, Control_c, 0, 64, 76
2,232849, Control_c, 0, 67, 119
2,232869, Control_c, 0, 64, 85
2,232869, Control_c, 0, 67, 118
2,232887, Control_c, 0, 64, 91
2,232907, Control_c, 0, 64, 93
2,232907, Control_c, 0, 67, 118
2,232926, Control_c, 0, 67, 117
2,232945, Control_c, 0, 67, 116
2,232951, Note_on_c, 0, 59, 0
2,232964, Control_c, 0, 67, 116
2,232984, Control_c, 0, 67, 115
2,232984, Note_on_c, 0, 60, 51
2,233019, Note_on_c, 0, 78, 59
2,233079, Control_c, 0, 67, 115
2,233085, Note_on_c, 0, 61, 34
2,233088, Note_on_c, 0, 60, 0
2,233138, Control_c, 0, 64, 92
2,233144, Note_on_c, 0, 59, 43
2,233154, Note_on_c, 0, 61, 0
2,233199, Control_c, 0, 64, 91
2,233214, Note_on_c, 0, 59, 0
2,233258, Control_c, 0, 64, 91
2,233260, Note_on_c, 0, 60, 39
2,233296, Control_c, 0, 64, 90
2,233315, Control_c, 0, 64, 89
2,233315, Control_c, 0, 67, 114
2,233334, Control_c, 0, 64, 87
2,233342, Note_on_c, 0, 60, 0
2,233347, Note_on_c, 0, 61, 43
2,233353, Control_c, 0, 64, 84
2,233353, Control_c, 0, 67, 114
2,233372, Control_c, 0, 64, 78
2,233378, Note_on_c, 0, 73, 61
2,233392, Control_c, 0, 64, 69
2,233392, Control_c, 0, 67, 113
2,233406, Note_on_c, 0, 77, 48
2,233410, Control_c, 0, 64, 60
2,233430, Control_c, 0, 64, 48
2,233449, Control_c, 0, 64, 44
2,233449, Control_c, 0, 67, 113
2,233487, Control_c, 0, 64, 44
2,233487, Control_c, 0, 67, 112
2,233507, Control_c, 0, 64, 47
2,233507, Control_c, 0, 67, 111
2,233526, Control_c, 0, 64, 50
2,233526, Control_c, 0, 67, 111
2,233545, Control_c, 0, 64, 52
2,233545, Control_c, 0, 67, 110
2,233564, Control_c, 0, 64, 53
2,233564, Control_c, 0, 67, 109
2,233584, Control_c, 0, 64, 54
2,233584, Control_c, 0, 67, 109
2,233603, Control_c, 0, 64, 55
2,233619, Control_c, 0, 64, 56
2,233619, Control_c, 0, 67, 108
2,233637, Control_c, 0, 64, 57
2,233637, Control_c, 0, 67, 108
2,233657, Control_c, 0, 64, 57
2,233676, Control_c, 0, 64, 58
2,233694, Control_c, 0, 64, 60
2,233714, Control_c, 0, 64, 62
2,233733, Control_c, 0, 64, 63
2,233753, Control_c, 0, 64, 65
2,233763, Note_on_c, 0, 76, 50
2,233771, Control_c, 0, 64, 67
2,233773, Note_on_c, 0, 58, 39
2,233791, Control_c, 0, 64, 72
2,233805, Note_on_c, 0, 61, 0
2,233810, Control_c, 0, 64, 80
2,233810, Control_c, 0, 67, 108
2,233820, Note_on_c, 0, 77, 0
2,233830, Control_c, 0, 64, 93
2,233830, Control_c, 0, 67, 109
2,233848, Control_c, 0, 64, 104
2,233848, Control_c, 0, 67, 109
2,233862, Note_on_c, 0, 78, 0
2,233868, Control_c, 0, 64, 109
2,233887, Control_c, 0, 64, 110
2,233889, Note_on_c, 0, 76, 0
2,233973, Note_on_c, 0, 73, 0
2,234060, Control_c, 0, 64, 108
2,234079, Control_c, 0, 64, 106
2,234099, Control_c, 0, 64, 98
2,234117, Control_c, 0, 64, 86
2,234137, Control_c, 0, 64, 75
2,234140, Note_on_c, 0, 55, 38
2,234156, Control_c, 0, 64, 68
2,234177, Control_c, 0, 64, 64
2,234182, Note_on_c, 0, 58, 0
2,234184, Note_on_c, 0, 75, 54
2,234196, Control_c, 0, 64, 63
2,234216, Control_c, 0, 64, 64
2,234234, Control_c, 0, 64, 65
2,234253, Control_c, 0, 64, 66
2,234273, Control_c, 0, 64, 66
2,234350, Control_c, 0, 64, 66
2,234369, Control_c, 0, 64, 64
2,234388, Control_c, 0, 64, 62
2,234407, Control_c, 0, 64, 58
2,234427, Control_c, 0, 64, 51
2,234445, Control_c, 0, 64, 42
2,234445, Control_c, 0, 67, 110
2,234465, Control_c, 0, 64, 41
2,234484, Control_c, 0, 64, 44
2,234504, Control_c, 0, 64, 53
2,234522, Control_c, 0, 64, 60
2,234542, Control_c, 0, 64, 63
2,234554, Note_on_c, 0, 55, 0
2,234560, Note_on_c, 0, 56, 42
2,234561, Control_c, 0, 64, 65
2,234563, Note_on_c, 0, 71, 44
2,234580, Control_c, 0, 64, 67
2,234597, Note_on_c, 0, 68, 0
2,234599, Control_c, 0, 64, 68
2,234619, Control_c, 0, 64, 70
2,234638, Control_c, 0, 64, 72
2,234657, Control_c, 0, 64, 74
2,234676, Control_c, 0, 64, 74
2,234676, Control_c, 0, 67, 109
2,234810, Control_c, 0, 67, 110
2,234868, Control_c, 0, 64, 74
2,234887, Control_c, 0, 64, 73
2,234907, Control_c, 0, 64, 71
2,234907, Control_c, 0, 67, 109
2,234925, Control_c, 0, 64, 69
2,234945, Control_c, 0, 64, 67
2,234964, Control_c, 0, 64, 64
2,234977, Note_on_c, 0, 73, 44
2,234984, Control_c, 0, 64, 62
2,234990, Note_on_c, 0, 71, 0
2,235001, Note_on_c, 0, 70, 40
2,235002, Control_c, 0, 64, 59
2,235011, Note_on_c, 0, 75, 0
2,235022, Control_c, 0, 64, 56
2,235041, Control_c, 0, 64, 52
2,235060, Control_c, 0, 64, 50
2,235194, Control_c, 0, 67, 109
2,235213, Control_c, 0, 64, 51
2,235233, Control_c, 0, 64, 52
2,235233, Control_c, 0, 67, 108
2,235252, Control_c, 0, 64, 54
2,235271, Control_c, 0, 64, 57
2,235271, Control_c, 0, 67, 108
2,235290, Control_c, 0, 64, 59
2,235310, Control_c, 0, 64, 62
2,235329, Control_c, 0, 64, 64
2,235329, Note_on_c, 0, 56, 0
2,235348, Control_c, 0, 64, 65
2,235356, Note_on_c, 0, 55, 30
2,235367, Control_c, 0, 64, 67
2,235387, Control_c, 0, 64, 68
2,235405, Control_c, 0, 64, 71
2,235425, Control_c, 0, 64, 74
2,235444, Control_c, 0, 64, 78
2,235464, Control_c, 0, 64, 83
2,235482, Control_c, 0, 64, 86
2,235502, Control_c, 0, 64, 86
2,235540, Control_c, 0, 64, 86
2,235614, Note_on_c, 0, 70, 0
2,235637, Control_c, 0, 64, 85
2,235657, Control_c, 0, 64, 85
2,235675, Control_c, 0, 64, 83
2,235694, Control_c, 0, 64, 80
2,235714, Control_c, 0, 64, 74
2,235733, Control_c, 0, 64, 67
2,235735, Note_on_c, 0, 55, 0
2,235752, Control_c, 0, 64, 61
2,235755, Note_on_c, 0, 56, 45
2,235760, Note_on_c, 0, 71, 59
2,235771, Control_c, 0, 64, 57
2,235809, Control_c, 0, 64, 59
2,235829, Control_c, 0, 64, 61
2,235848, Control_c, 0, 64, 63
2,235868, Control_c, 0, 64, 64
2,235886, Control_c, 0, 64, 64
2,235945, Control_c, 0, 67, 108
2,235963, Control_c, 0, 64, 64
2,235963, Control_c, 0, 67, 109
2,235983, Control_c, 0, 67, 110
2,236002, Control_c, 0, 64, 63
2,236002, Control_c, 0, 67, 111
2,236021, Control_c, 0, 64, 63
2,236021, Control_c, 0, 67, 113
2,236040, Control_c, 0, 64, 62
2,236040, Control_c, 0, 67, 113
2,236060, Control_c, 0, 64, 61
2,236060, Control_c, 0, 67, 114
2,236079, Control_c, 0, 64, 58
2,236079, Control_c, 0, 67, 115
2,236098, Control_c, 0, 64, 51
2,236098, Control_c, 0, 67, 116
2,236117, Control_c, 0, 64, 35
2,236117, Control_c, 0, 67, 117
2,236137, Control_c, 0, 64, 0
2,236137, Control_c, 0, 67, 117
2,236178, Note_on_c, 0, 54, 40
2,236189, Note_on_c, 0, 63, 42
2,236194, Control_c, 0, 64, 27
2,236199, Note_on_c, 0, 56, 0
2,236213, Control_c, 0, 64, 51
2,236232, Control_c, 0, 64, 61
2,236232, Control_c, 0, 67, 117
2,236251, Control_c, 0, 64, 64
2,236271, Control_c, 0, 64, 64
2,236271, Control_c, 0, 67, 116
2,236289, Control_c, 0, 64, 65
2,236348, Control_c, 0, 67, 116
2,236366, Control_c, 0, 67, 115
2,236386, Control_c, 0, 67, 115
2,236405, Control_c, 0, 67, 114
2,236425, Control_c, 0, 64, 64
2,236425, Control_c, 0, 67, 114
2,236463, Control_c, 0, 64, 64
2,236482, Control_c, 0, 64, 63
2,236501, Control_c, 0, 64, 62
2,236519, Control_c, 0, 64, 60
2,236519, Control_c, 0, 67, 113
2,236558, Control_c, 0, 67, 113
2,236572, Note_on_c, 0, 68, 54
2,236577, Control_c, 0, 64, 61
2,236584, Note_on_c, 0, 54, 0
2,236590, Note_on_c, 0, 52, 24
2,236596, Control_c, 0, 64, 62
2,236599, Note_on_c, 0, 73, 0
2,236615, Control_c, 0, 64, 63
2,236634, Control_c, 0, 64, 64
2,236653, Control_c, 0, 64, 65
2,236667, Note_on_c, 0, 71, 0
2,236692, Control_c, 0, 64, 65
2,236769, Control_c, 0, 64, 65
2,236769, Control_c, 0, 67, 112
2,236788, Control_c, 0, 67, 112
2,236827, Control_c, 0, 64, 64
2,236827, Control_c, 0, 67, 111
2,236845, Control_c, 0, 64, 63
2,236865, Control_c, 0, 64, 60
2,236884, Control_c, 0, 64, 56
2,236884, Control_c, 0, 67, 111
2,236904, Control_c, 0, 64, 50
2,236904, Control_c, 0, 67, 110
2,236913, Note_on_c, 0, 52, 0
2,236922, Control_c, 0, 64, 45
2,236922, Control_c, 0, 67, 109
2,236942, Control_c, 0, 64, 44
2,236942, Control_c, 0, 67, 108
2,236953, Note_on_c, 0, 51, 39
2,236957, Note_on_c, 0, 71, 53
2,236961, Control_c, 0, 64, 47
2,236961, Control_c, 0, 67, 107
2,236971, Note_on_c, 0, 63, 0
2,236980, Control_c, 0, 64, 55
2,236980, Control_c, 0, 67, 106
2,236999, Control_c, 0, 64, 61
2,236999, Control_c, 0, 67, 106
2,237019, Control_c, 0, 64, 64
2,237038, Control_c, 0, 64, 66
2,237038, Control_c, 0, 67, 105
2,237057, Control_c, 0, 64, 68
2,237076, Control_c, 0, 64, 70
2,237095, Control_c, 0, 64, 72
2,237114, Control_c, 0, 64, 76
2,237114, Control_c, 0, 67, 105
2,237133, Control_c, 0, 64, 77
2,237172, Control_c, 0, 67, 104
2,237287, Control_c, 0, 64, 76
2,237307, Control_c, 0, 64, 75
2,237324, Note_on_c, 0, 51, 0
2,237325, Control_c, 0, 64, 70
2,237345, Control_c, 0, 64, 64
2,237356, Note_on_c, 0, 49, 44
2,237364, Control_c, 0, 64, 53
2,237364, Control_c, 0, 67, 104
2,237364, Note_on_c, 0, 70, 66
2,237384, Control_c, 0, 64, 32
2,237384, Control_c, 0, 67, 103
2,237402, Control_c, 0, 64, 11
2,237402, Control_c, 0, 67, 99
2,237402, Note_on_c, 0, 68, 0
2,237422, Control_c, 0, 64, 9
2,237422, Control_c, 0, 67, 96
2,237441, Control_c, 0, 64, 15
2,237441, Control_c, 0, 67, 94
2,237460, Control_c, 0, 64, 34
2,237479, Control_c, 0, 64, 50
2,237479, Control_c, 0, 67, 93
2,237499, Control_c, 0, 64, 58
2,237499, Control_c, 0, 67, 93
2,237518, Control_c, 0, 64, 60
2,237518, Control_c, 0, 67, 92
2,237537, Control_c, 0, 67, 91
2,237556, Control_c, 0, 64, 59
2,237556, Control_c, 0, 67, 90
2,237575, Control_c, 0, 64, 59
2,237575, Control_c, 0, 67, 87
2,237594, Control_c, 0, 67, 84
2,237613, Control_c, 0, 64, 57
2,237613, Control_c, 0, 67, 82
2,237633, Control_c, 0, 64, 53
2,237633, Control_c, 0, 67, 80
2,237652, Control_c, 0, 64, 46
2,237652, Control_c, 0, 67, 80
2,237671, Control_c, 0, 64, 41
2,237690, Control_c, 0, 64, 40
2,237710, Control_c, 0, 64, 39
2,237729, Control_c, 0, 67, 79
2,237758, Note_on_c, 0, 50, 43
2,237767, Control_c, 0, 64, 42
2,237767, Control_c, 0, 67, 79
2,237772, Note_on_c, 0, 49, 0
2,237777, Note_on_c, 0, 68, 51
2,237787, Control_c, 0, 64, 48
2,237805, Control_c, 0, 64, 56
2,237805, Control_c, 0, 67, 78
2,237812, Note_on_c, 0, 71, 0
2,237825, Control_c, 0, 64, 60
2,237825, Control_c, 0, 67, 75
2,237844, Control_c, 0, 64, 62
2,237844, Control_c, 0, 67, 65
2,237864, Control_c, 0, 64, 62
2,237864, Control_c, 0, 67, 49
2,237882, Control_c, 0, 64, 63
2,237882, Control_c, 0, 67, 27
2,237902, Control_c, 0, 64, 63
2,237902, Control_c, 0, 67, 0
2,237959, Control_c, 0, 64, 63
2,237979, Control_c, 0, 64, 61
2,237999, Control_c, 0, 64, 60
2,238019, Control_c, 0, 64, 61
2,238038, Control_c, 0, 64, 62
2,238058, Control_c, 0, 64, 63
2,238076, Control_c, 0, 64, 65
2,238095, Control_c, 0, 64, 67
2,238115, Control_c, 0, 64, 70
2,238134, Control_c, 0, 64, 74
2,238153, Control_c, 0, 64, 80
2,238169, Note_on_c, 0, 50, 0
2,238172, Control_c, 0, 64, 86
2,238192, Control_c, 0, 64, 89
2,238194, Note_on_c, 0, 51, 49
2,238206, Note_on_c, 0, 66, 60
2,238210, Control_c, 0, 64, 89
2,238227, Note_on_c, 0, 70, 0
2,238238, Note_on_c, 0, 68, 0
2,238249, Control_c, 0, 64, 89
2,238287, Control_c, 0, 64, 88
2,238403, Control_c, 0, 64, 88
2,238459, Control_c, 0, 64, 87
2,238516, Control_c, 0, 64, 87
2,238535, Control_c, 0, 64, 85
2,238554, Control_c, 0, 64, 77
2,238573, Control_c, 0, 64, 68
2,238593, Control_c, 0, 64, 62
2,238602, Note_on_c, 0, 51, 0
2,238611, Note_on_c, 0, 78, 72
2,238612, Control_c, 0, 64, 58
2,238618, Note_on_c, 0, 46, 43
2,238631, Control_c, 0, 64, 59
2,238650, Control_c, 0, 64, 61
2,238670, Control_c, 0, 64, 63
2,238689, Control_c, 0, 64, 65
2,238708, Control_c, 0, 64, 68
2,238727, Control_c, 0, 64, 72
2,238747, Control_c, 0, 64, 78
2,238765, Control_c, 0, 64, 83
2,238785, Control_c, 0, 64, 85
2,238790, Note_on_c, 0, 78, 0
2,238979, Note_on_c, 0, 66, 0
2,238997, Control_c, 0, 64, 84
2,239017, Control_c, 0, 64, 82
2,239021, Note_on_c, 0, 46, 0
2,239035, Control_c, 0, 64, 77
2,239051, Note_on_c, 0, 47, 41
2,239054, Control_c, 0, 64, 69
2,239065, Note_on_c, 0, 68, 66
2,239074, Control_c, 0, 64, 63
2,239093, Control_c, 0, 64, 61
2,239112, Control_c, 0, 64, 61
2,239131, Control_c, 0, 64, 63
2,239151, Control_c, 0, 64, 64
2,239169, Control_c, 0, 64, 64
2,239189, Control_c, 0, 64, 64
2,239228, Control_c, 0, 64, 63
2,239246, Control_c, 0, 64, 61
2,239266, Control_c, 0, 64, 58
2,239285, Control_c, 0, 64, 53
2,239305, Control_c, 0, 64, 47
2,239323, Control_c, 0, 64, 45
2,239343, Control_c, 0, 64, 46
2,239362, Control_c, 0, 64, 50
2,239380, Control_c, 0, 64, 56
2,239400, Control_c, 0, 64, 61
2,239420, Control_c, 0, 64, 63
2,239439, Control_c, 0, 64, 65
2,239447, Note_on_c, 0, 48, 43
2,239458, Control_c, 0, 64, 66
2,239464, Note_on_c, 0, 66, 59
2,239477, Control_c, 0, 64, 67
2,239481, Note_on_c, 0, 47, 0
2,239497, Control_c, 0, 64, 69
2,239515, Control_c, 0, 64, 69
2,239611, Control_c, 0, 64, 70
2,239708, Control_c, 0, 64, 69
2,239746, Control_c, 0, 64, 69
2,239765, Control_c, 0, 64, 67
2,239785, Control_c, 0, 64, 64
2,239803, Control_c, 0, 64, 58
2,239823, Control_c, 0, 64, 51
2,239838, Note_on_c, 0, 48, 0
2,239842, Control_c, 0, 64, 48
2,239858, Note_on_c, 0, 66, 0
2,239859, Note_on_c, 0, 49, 52
2,239860, Note_on_c, 0, 64, 58
2,239861, Control_c, 0, 64, 51
2,239880, Control_c, 0, 64, 58
2,239900, Control_c, 0, 64, 63
2,239919, Control_c, 0, 64, 65
2,239938, Control_c, 0, 64, 68
2,239957, Control_c, 0, 64, 70
2,239977, Control_c, 0, 64, 73
2,239995, Control_c, 0, 64, 74
2,240034, Control_c, 0, 64, 73
2,240091, Control_c, 0, 64, 73
2,240111, Control_c, 0, 64, 72
2,240129, Control_c, 0, 64, 71
2,240149, Control_c, 0, 64, 71
2,240188, Control_c, 0, 64, 70
2,240206, Control_c, 0, 64, 68
2,240226, Control_c, 0, 64, 64
2,240245, Control_c, 0, 64, 57
2,240265, Control_c, 0, 64, 44
2,240283, Control_c, 0, 64, 26
2,240288, Note_on_c, 0, 44, 42
2,240303, Control_c, 0, 64, 21
2,240322, Control_c, 0, 64, 23
2,240328, Note_on_c, 0, 63, 53
2,240334, Note_on_c, 0, 49, 0
2,240341, Control_c, 0, 64, 40
2,240360, Control_c, 0, 64, 55
2,240380, Control_c, 0, 64, 62
2,240399, Control_c, 0, 64, 64
2,240418, Control_c, 0, 64, 65
2,240426, Note_on_c, 0, 64, 0
2,240437, Control_c, 0, 64, 65
2,240668, Control_c, 0, 64, 65
2,240686, Control_c, 0, 64, 64
2,240706, Control_c, 0, 64, 63
2,240716, Note_on_c, 0, 46, 38
2,240717, Note_on_c, 0, 44, 0
2,240725, Control_c, 0, 64, 60
2,240745, Control_c, 0, 64, 53
2,240758, Note_on_c, 0, 62, 51
2,240763, Control_c, 0, 64, 36
2,240783, Control_c, 0, 64, 0
2,240832, Note_on_c, 0, 63, 0
2,240879, Control_c, 0, 64, 29
2,240899, Control_c, 0, 64, 51
2,240918, Control_c, 0, 64, 60
2,240938, Control_c, 0, 64, 63
2,240956, Control_c, 0, 64, 64
2,240975, Control_c, 0, 64, 65
2,240995, Control_c, 0, 64, 67
2,241014, Control_c, 0, 64, 68
2,241033, Control_c, 0, 64, 70
2,241052, Control_c, 0, 64, 72
2,241072, Control_c, 0, 64, 75
2,241090, Control_c, 0, 64, 78
2,241110, Control_c, 0, 64, 81
2,241129, Control_c, 0, 64, 83
2,241149, Control_c, 0, 64, 83
2,241187, Control_c, 0, 64, 84
2,241187, Note_on_c, 0, 66, 54
2,241225, Control_c, 0, 64, 84
2,241245, Note_on_c, 0, 68, 0
2,241264, Note_on_c, 0, 62, 0
2,241302, Control_c, 0, 64, 84
2,241325, Note_on_c, 0, 65, 56
2,241341, Control_c, 0, 64, 83
2,241359, Note_on_c, 0, 66, 0
2,241379, Control_c, 0, 64, 83
2,241418, Control_c, 0, 64, 82
2,241436, Control_c, 0, 64, 82
2,241437, Note_on_c, 0, 65, 0
2,241455, Control_c, 0, 64, 81
2,241475, Control_c, 0, 64, 79
2,241494, Control_c, 0, 64, 77
2,241513, Control_c, 0, 64, 74
2,241532, Control_c, 0, 64, 69
2,241552, Control_c, 0, 64, 65
2,241555, Note_on_c, 0, 63, 70
2,241570, Control_c, 0, 64, 61
2,241573, Note_on_c, 0, 66, 49
2,241590, Control_c, 0, 64, 57
2,241609, Control_c, 0, 64, 52
2,241629, Control_c, 0, 64, 49
2,241647, Control_c, 0, 64, 47
2,241744, Control_c, 0, 64, 47
2,241763, Control_c, 0, 64, 48
2,241782, Control_c, 0, 64, 50
2,241801, Control_c, 0, 64, 50
2,241821, Control_c, 0, 64, 51
2,241839, Control_c, 0, 64, 52
2,241859, Control_c, 0, 64, 52
2,241878, Control_c, 0, 64, 53
2,241898, Control_c, 0, 64, 54
2,241916, Control_c, 0, 64, 55
2,241935, Control_c, 0, 64, 58
2,241955, Control_c, 0, 64, 61
2,241974, Control_c, 0, 64, 62
2,241993, Control_c, 0, 64, 63
2,241994, Note_on_c, 0, 68, 63
2,242012, Control_c, 0, 64, 64
2,242032, Control_c, 0, 64, 65
2,242050, Control_c, 0, 64, 66
2,242070, Control_c, 0, 64, 66
2,242089, Control_c, 0, 64, 67
2,242109, Control_c, 0, 64, 67
2,242147, Control_c, 0, 64, 68
2,242166, Control_c, 0, 64, 68
2,242185, Control_c, 0, 64, 69
2,242204, Control_c, 0, 64, 69
2,242319, Control_c, 0, 64, 69
2,242338, Control_c, 0, 64, 67
2,242357, Control_c, 0, 64, 63
2,242376, Control_c, 0, 64, 59
2,242395, Control_c, 0, 64, 57
2,242414, Control_c, 0, 64, 55
2,242434, Control_c, 0, 64, 56
2,242453, Control_c, 0, 64, 58
2,242472, Control_c, 0, 64, 63
2,242486, Note_on_c, 0, 70, 64
2,242490, Note_on_c, 0, 66, 0
2,242491, Control_c, 0, 64, 66
2,242511, Control_c, 0, 64, 71
2,242529, Control_c, 0, 64, 77
2,242545, Note_on_c, 0, 68, 0
2,242549, Control_c, 0, 64, 85
2,242568, Control_c, 0, 64, 95
2,242588, Control_c, 0, 64, 102
2,242606, Control_c, 0, 64, 107
2,242626, Control_c, 0, 64, 112
2,242645, Control_c, 0, 64, 115
2,242665, Control_c, 0, 64, 119
2,242683, Control_c, 0, 64, 127
2,242728, Note_on_c, 0, 63, 0
2,242878, Control_c, 0, 64, 119
2,242898, Control_c, 0, 64, 114
2,242917, Control_c, 0, 64, 112
2,242932, Note_on_c, 0, 53, 77
2,242957, Note_on_c, 0, 70, 0
2,242974, Control_c, 0, 64, 112
2,243012, Control_c, 0, 64, 111
2,243012, Note_on_c, 0, 62, 56
2,243032, Control_c, 0, 64, 110
2,243051, Control_c, 0, 64, 108
2,243070, Control_c, 0, 64, 108
2,243089, Control_c, 0, 64, 107
2,243147, Control_c, 0, 64, 107
2,243186, Control_c, 0, 64, 106
2,243204, Control_c, 0, 64, 106
2,243211, Note_on_c, 0, 60, 54
2,243229, Note_on_c, 0, 62, 0
2,243239, Control_c, 0, 64, 105
2,243259, Control_c, 0, 64, 105
2,243278, Control_c, 0, 64, 104
2,243296, Control_c, 0, 64, 104
2,243316, Control_c, 0, 64, 103
2,243335, Control_c, 0, 64, 102
2,243343, Note_on_c, 0, 60, 0
2,243355, Control_c, 0, 64, 102
2,243373, Control_c, 0, 64, 101
2,243393, Control_c, 0, 64, 100
2,243412, Control_c, 0, 64, 99
2,243431, Control_c, 0, 64, 97
2,243450, Control_c, 0, 64, 94
2,243450, Note_on_c, 0, 58, 82
2,243470, Control_c, 0, 64, 91
2,243489, Control_c, 0, 64, 88
2,243505, Note_on_c, 0, 53, 0
2,243508, Control_c, 0, 64, 85
2,243511, Note_on_c, 0, 62, 57
2,243527, Control_c, 0, 64, 79
2,243547, Control_c, 0, 64, 71
2,243565, Control_c, 0, 64, 63
2,243585, Control_c, 0, 64, 45
2,243604, Control_c, 0, 64, 32
2,243624, Control_c, 0, 64, 32
2,243642, Control_c, 0, 64, 33
2,243662, Control_c, 0, 64, 40
2,243681, Control_c, 0, 64, 50
2,243700, Control_c, 0, 64, 58
2,243719, Control_c, 0, 64, 62
2,243739, Control_c, 0, 64, 64
2,243758, Control_c, 0, 64, 66
2,243776, Control_c, 0, 64, 68
2,243796, Control_c, 0, 64, 70
2,243815, Control_c, 0, 64, 75
2,243835, Control_c, 0, 64, 79
2,243853, Control_c, 0, 64, 84
2,243873, Control_c, 0, 64, 86
2,243921, Note_on_c, 0, 65, 51
2,243928, Note_on_c, 0, 62, 0
2,243930, Control_c, 0, 64, 87
2,243950, Control_c, 0, 64, 87
2,243968, Note_on_c, 0, 65, 0
2,243969, Control_c, 0, 64, 88
2,244007, Control_c, 0, 64, 88
2,244027, Control_c, 0, 64, 89
2,244045, Control_c, 0, 64, 91
2,244065, Control_c, 0, 64, 94
2,244084, Control_c, 0, 64, 97
2,244104, Control_c, 0, 64, 101
2,244122, Control_c, 0, 64, 104
2,244142, Control_c, 0, 64, 108
2,244161, Control_c, 0, 64, 110
2,244180, Control_c, 0, 64, 110
2,244200, Control_c, 0, 64, 111
2,244258, Control_c, 0, 64, 110
2,244277, Control_c, 0, 64, 108
2,244296, Control_c, 0, 64, 106
2,244315, Control_c, 0, 64, 105
2,244334, Control_c, 0, 64, 103
2,244354, Control_c, 0, 64, 96
2,244357, Note_on_c, 0, 77, 89
2,244373, Control_c, 0, 64, 83
2,244381, Note_on_c, 0, 70, 72
2,244392, Control_c, 0, 64, 70
2,244411, Control_c, 0, 64, 57
2,244431, Control_c, 0, 64, 39
2,244449, Control_c, 0, 64, 35
2,244469, Control_c, 0, 64, 36
2,244488, Control_c, 0, 64, 43
2,244508, Control_c, 0, 64, 53
2,244526, Control_c, 0, 64, 60
2,244546, Control_c, 0, 64, 63
2,244565, Control_c, 0, 64, 64
2,244585, Control_c, 0, 64, 65
2,244603, Control_c, 0, 64, 66
2,244623, Control_c, 0, 64, 66
2,244661, Control_c, 0, 64, 66
2,244680, Control_c, 0, 64, 65
2,244719, Control_c, 0, 64, 66
2,244738, Control_c, 0, 64, 67
2,244750, Note_on_c, 0, 46, 0
2,244754, Note_on_c, 0, 58, 0
2,244757, Control_c, 0, 64, 70
2,244776, Control_c, 0, 64, 75
2,244779, Note_on_c, 0, 59, 76
2,244795, Control_c, 0, 64, 82
2,244814, Control_c, 0, 64, 87
2,244834, Control_c, 0, 64, 90
2,244853, Control_c, 0, 64, 89
2,244929, Control_c, 0, 64, 89
2,244949, Control_c, 0, 64, 88
2,245006, Control_c, 0, 64, 86
2,245026, Control_c, 0, 64, 79
2,245045, Control_c, 0, 64, 69
2,245065, Control_c, 0, 64, 60
2,245083, Control_c, 0, 64, 46
2,245103, Control_c, 0, 64, 48
2,245122, Control_c, 0, 64, 54
2,245141, Control_c, 0, 64, 59
2,245159, Control_c, 0, 64, 63
2,245171, Note_on_c, 0, 58, 71
2,245179, Control_c, 0, 64, 65
2,245198, Control_c, 0, 64, 66
2,245216, Control_c, 0, 64, 69
2,245236, Control_c, 0, 64, 72
2,245255, Control_c, 0, 64, 76
2,245275, Control_c, 0, 64, 80
2,245293, Control_c, 0, 64, 84
2,245313, Control_c, 0, 64, 88
2,245330, Note_on_c, 0, 59, 0
2,245332, Control_c, 0, 64, 92
2,245351, Control_c, 0, 64, 100
2,245370, Control_c, 0, 64, 127
2,245579, Note_on_c, 0, 56, 74
2,245585, Note_on_c, 0, 71, 80
2,245615, Note_on_c, 0, 58, 0
2,245621, Note_on_c, 0, 77, 0
2,245646, Note_on_c, 0, 70, 0
2,245686, Note_on_c, 0, 71, 0
2,246047, Note_on_c, 0, 56, 0
2,246062, Note_on_c, 0, 54, 52
2,246080, Control_c, 0, 64, 108
2,246100, Control_c, 0, 64, 83
2,246100, Note_on_c, 0, 82, 94
2,246115, Note_on_c, 0, 70, 63
2,246118, Control_c, 0, 64, 66
2,246137, Control_c, 0, 64, 44
2,246157, Control_c, 0, 64, 0
2,246175, Control_c, 0, 64, 11
2,246195, Control_c, 0, 64, 29
2,246214, Control_c, 0, 64, 47
2,246234, Control_c, 0, 64, 58
2,246252, Control_c, 0, 64, 62
2,246272, Control_c, 0, 64, 65
2,246291, Control_c, 0, 64, 66
2,246310, Control_c, 0, 64, 68
2,246329, Control_c, 0, 64, 70
2,246349, Control_c, 0, 64, 70
2,246368, Control_c, 0, 64, 69
2,246387, Control_c, 0, 64, 67
2,246406, Control_c, 0, 64, 63
2,246426, Control_c, 0, 64, 59
2,246444, Control_c, 0, 64, 57
2,246464, Control_c, 0, 64, 59
2,246483, Control_c, 0, 64, 62
2,246503, Control_c, 0, 64, 64
2,246505, Note_on_c, 0, 56, 70
2,246521, Control_c, 0, 64, 67
2,246541, Control_c, 0, 64, 71
2,246560, Control_c, 0, 64, 76
2,246580, Control_c, 0, 64, 83
2,246598, Control_c, 0, 64, 89
2,246617, Control_c, 0, 64, 91
2,246637, Control_c, 0, 64, 91
2,246657, Control_c, 0, 64, 91
2,246707, Note_on_c, 0, 54, 0
2,246811, Control_c, 0, 64, 90
2,246831, Control_c, 0, 64, 89
2,246849, Control_c, 0, 64, 83
2,246869, Control_c, 0, 64, 74
2,246888, Control_c, 0, 64, 66
2,246926, Control_c, 0, 64, 68
2,246928, Note_on_c, 0, 58, 71
2,246946, Control_c, 0, 64, 71
2,246965, Control_c, 0, 64, 76
2,246974, Note_on_c, 0, 82, 0
2,246985, Control_c, 0, 64, 82
2,247003, Control_c, 0, 64, 88
2,247023, Control_c, 0, 64, 92
2,247042, Control_c, 0, 64, 94
2,247097, Control_c, 0, 64, 95
2,247117, Control_c, 0, 64, 96
2,247126, Note_on_c, 0, 56, 0
2,247135, Control_c, 0, 64, 97
2,247155, Control_c, 0, 64, 98
2,247174, Control_c, 0, 64, 99
2,247251, Control_c, 0, 64, 96
2,247269, Note_on_c, 0, 70, 0
2,247270, Control_c, 0, 64, 91
2,247289, Control_c, 0, 64, 88
2,247305, Note_on_c, 0, 68, 84
2,247328, Control_c, 0, 64, 89
2,247347, Control_c, 0, 64, 90
2,247366, Control_c, 0, 64, 91
2,247386, Control_c, 0, 64, 91
2,247390, Note_on_c, 0, 58, 0
2,247404, Control_c, 0, 64, 92
2,247443, Control_c, 0, 64, 92
2,247463, Control_c, 0, 64, 93
2,247654, Control_c, 0, 64, 93
2,247674, Control_c, 0, 64, 92
2,247692, Control_c, 0, 64, 92
2,247712, Control_c, 0, 64, 90
2,247731, Control_c, 0, 64, 86
2,247750, Control_c, 0, 64, 78
2,247769, Control_c, 0, 64, 67
2,247779, Note_on_c, 0, 51, 44
2,247789, Control_c, 0, 64, 54
2,247808, Control_c, 0, 64, 9
2,247813, Note_on_c, 0, 66, 66
2,247827, Control_c, 0, 64, 0
2,247884, Control_c, 0, 64, 17
2,247904, Control_c, 0, 64, 26
2,247914, Note_on_c, 0, 68, 0
2,247943, Control_c, 0, 64, 19
2,247961, Control_c, 0, 64, 0
2,248038, Control_c, 0, 64, 11
2,248057, Control_c, 0, 64, 50
2,248077, Control_c, 0, 64, 64
2,248095, Control_c, 0, 64, 70
2,248115, Control_c, 0, 64, 83
2,248134, Control_c, 0, 64, 127
2,248198, Note_on_c, 0, 53, 55
2,248200, Note_on_c, 0, 66, 0
2,248354, Note_on_c, 0, 54, 70
2,248401, Note_on_c, 0, 53, 0
2,248422, Note_on_c, 0, 51, 0
2,248518, Control_c, 0, 64, 92
2,248530, Note_on_c, 0, 56, 56
2,248537, Control_c, 0, 64, 69
2,248554, Note_on_c, 0, 54, 0
2,248557, Control_c, 0, 64, 61
2,248576, Control_c, 0, 64, 62
2,248596, Control_c, 0, 64, 66
2,248600, Note_on_c, 0, 83, 94
2,248615, Control_c, 0, 64, 70
2,248635, Control_c, 0, 64, 77
2,248653, Control_c, 0, 64, 89
2,248673, Control_c, 0, 64, 104
2,248692, Control_c, 0, 64, 127
2,249000, Control_c, 0, 64, 113
2,249020, Control_c, 0, 64, 92
2,249031, Note_on_c, 0, 68, 69
2,249039, Control_c, 0, 64, 75
2,249057, Control_c, 0, 64, 66
2,249077, Control_c, 0, 64, 64
2,249096, Control_c, 0, 64, 66
2,249115, Control_c, 0, 64, 69
2,249129, Note_on_c, 0, 83, 0
2,249134, Control_c, 0, 64, 73
2,249153, Note_on_c, 0, 68, 0
2,249154, Control_c, 0, 64, 79
2,249173, Control_c, 0, 64, 85
2,249192, Control_c, 0, 64, 91
2,249211, Control_c, 0, 64, 95
2,249231, Control_c, 0, 64, 98
2,249249, Control_c, 0, 64, 98
2,249269, Control_c, 0, 64, 99
2,249288, Control_c, 0, 64, 100
2,249326, Control_c, 0, 64, 100
2,249403, Control_c, 0, 64, 96
2,249423, Control_c, 0, 64, 84
2,249433, Note_on_c, 0, 82, 93
2,249442, Control_c, 0, 64, 69
2,249460, Note_on_c, 0, 70, 63
2,249461, Control_c, 0, 64, 59
2,249480, Control_c, 0, 64, 55
2,249500, Control_c, 0, 64, 60
2,249519, Control_c, 0, 64, 64
2,249536, Control_c, 0, 64, 67
2,249556, Control_c, 0, 64, 72
2,249575, Control_c, 0, 64, 80
2,249595, Control_c, 0, 64, 90
2,249595, Note_on_c, 0, 56, 0
2,249613, Control_c, 0, 64, 97
2,249633, Control_c, 0, 64, 97
2,249748, Control_c, 0, 64, 96
2,249767, Control_c, 0, 64, 95
2,249787, Control_c, 0, 64, 89
2,249805, Control_c, 0, 64, 77
2,249825, Control_c, 0, 64, 65
2,249844, Control_c, 0, 64, 50
2,249850, Note_on_c, 0, 54, 72
2,249864, Control_c, 0, 64, 43
2,249882, Control_c, 0, 64, 53
2,249902, Control_c, 0, 64, 61
2,249921, Control_c, 0, 64, 65
2,249940, Control_c, 0, 64, 69
2,249958, Control_c, 0, 64, 76
2,249977, Control_c, 0, 64, 86
2,249997, Control_c, 0, 64, 97
2,250015, Control_c, 0, 64, 101
2,250155, Note_on_c, 0, 54, 0
2,250208, Control_c, 0, 64, 99
2,250227, Control_c, 0, 64, 91
2,250246, Control_c, 0, 64, 77
2,250246, Note_on_c, 0, 53, 55
2,250266, Control_c, 0, 64, 64
2,250267, Note_on_c, 0, 80, 81
2,250284, Control_c, 0, 64, 40
2,250304, Control_c, 0, 64, 0
2,250572, Control_c, 0, 64, 24
2,250592, Control_c, 0, 64, 52
2,250611, Control_c, 0, 64, 63
2,250630, Control_c, 0, 64, 67
2,250649, Control_c, 0, 64, 73
2,250661, Note_on_c, 0, 62, 64
2,250669, Control_c, 0, 64, 89
2,250677, Note_on_c, 0, 53, 0
2,250688, Control_c, 0, 64, 127
2,250721, Note_on_c, 0, 70, 0
2,250788, Note_on_c, 0, 62, 0
2,251037, Control_c, 0, 64, 100
2,251055, Control_c, 0, 64, 73
2,251065, Note_on_c, 0, 63, 55
2,251075, Control_c, 0, 64, 55
2,251090, Note_on_c, 0, 78, 80
2,251094, Control_c, 0, 64, 0
2,251148, Note_on_c, 0, 80, 0
2,251152, Control_c, 0, 64, 43
2,251166, Note_on_c, 0, 82, 0
2,251171, Control_c, 0, 64, 63
2,251189, Control_c, 0, 64, 68
2,251209, Control_c, 0, 64, 74
2,251228, Control_c, 0, 64, 86
2,251247, Control_c, 0, 64, 102
2,251266, Control_c, 0, 64, 121
2,251286, Control_c, 0, 64, 127
2,251305, Control_c, 0, 64, 103
2,251324, Control_c, 0, 64, 83
2,251343, Control_c, 0, 64, 68
2,251363, Control_c, 0, 64, 60
2,251401, Control_c, 0, 64, 63
2,251420, Control_c, 0, 64, 67
2,251440, Control_c, 0, 64, 74
2,251458, Control_c, 0, 64, 86
2,251462, Note_on_c, 0, 65, 54
2,251478, Control_c, 0, 64, 103
2,251497, Control_c, 0, 64, 127
2,251512, Note_on_c, 0, 63, 0
2,251574, Control_c, 0, 64, 123
2,251581, Note_on_c, 0, 65, 0
2,251593, Control_c, 0, 64, 121
2,251627, Note_on_c, 0, 66, 65
2,251632, Control_c, 0, 64, 119
2,251651, Control_c, 0, 64, 118
2,251689, Control_c, 0, 64, 117
2,251707, Note_on_c, 0, 66, 0
2,251708, Control_c, 0, 64, 115
2,251727, Control_c, 0, 64, 110
2,251746, Control_c, 0, 64, 104
2,251766, Control_c, 0, 64, 100
2,251785, Control_c, 0, 64, 96
2,251804, Control_c, 0, 64, 92
2,251823, Control_c, 0, 64, 88
2,251843, Control_c, 0, 64, 79
2,251848, Note_on_c, 0, 68, 58
2,251859, Note_on_c, 0, 80, 79
2,251861, Control_c, 0, 64, 70
2,251875, Note_on_c, 0, 65, 42
2,251880, Control_c, 0, 64, 62
2,251899, Control_c, 0, 64, 45
2,251919, Control_c, 0, 64, 27
2,251937, Control_c, 0, 64, 26
2,251957, Control_c, 0, 64, 25
2,252034, Control_c, 0, 64, 26
2,252053, Control_c, 0, 64, 27
2,252073, Control_c, 0, 64, 27
2,252073, Note_on_c, 0, 78, 0
2,252091, Control_c, 0, 64, 28
2,252130, Control_c, 0, 64, 30
2,252148, Control_c, 0, 64, 33
2,252168, Control_c, 0, 64, 36
2,252187, Control_c, 0, 64, 38
2,252207, Control_c, 0, 64, 41
2,252225, Control_c, 0, 64, 44
2,252245, Control_c, 0, 64, 50
2,252256, Note_on_c, 0, 63, 50
2,252264, Control_c, 0, 64, 57
2,252264, Note_on_c, 0, 65, 0
2,252283, Control_c, 0, 64, 61
2,252302, Control_c, 0, 64, 63
2,252322, Control_c, 0, 64, 64
2,252341, Control_c, 0, 64, 66
2,252360, Control_c, 0, 64, 69
2,252379, Control_c, 0, 64, 73
2,252399, Control_c, 0, 64, 80
2,252418, Control_c, 0, 64, 84
2,252438, Control_c, 0, 64, 85
2,252496, Note_on_c, 0, 68, 0
2,252534, Control_c, 0, 64, 84
2,252544, Note_on_c, 0, 63, 0
2,252553, Control_c, 0, 64, 84
2,252572, Control_c, 0, 64, 83
2,252592, Control_c, 0, 64, 82
2,252611, Control_c, 0, 64, 80
2,252629, Control_c, 0, 64, 78
2,252649, Control_c, 0, 64, 76
2,252668, Control_c, 0, 64, 75
2,252679, Note_on_c, 0, 62, 44
2,252687, Control_c, 0, 64, 73
2,252691, Note_on_c, 0, 82, 70
2,252706, Control_c, 0, 64, 71
2,252726, Control_c, 0, 64, 69
2,252745, Control_c, 0, 64, 67
2,252764, Control_c, 0, 64, 66
2,252783, Control_c, 0, 64, 66
2,252803, Control_c, 0, 64, 65
2,252822, Control_c, 0, 64, 64
2,252841, Control_c, 0, 64, 61
2,252860, Control_c, 0, 64, 58
2,252880, Control_c, 0, 64, 55
2,252883, Note_on_c, 0, 80, 0
2,252898, Control_c, 0, 64, 51
2,252918, Control_c, 0, 64, 47
2,252937, Control_c, 0, 64, 43
2,252957, Control_c, 0, 64, 39
2,252975, Control_c, 0, 64, 35
2,252995, Control_c, 0, 64, 34
2,253014, Control_c, 0, 64, 33
2,253080, Note_on_c, 0, 66, 43
2,253091, Control_c, 0, 64, 38
2,253094, Note_on_c, 0, 62, 0
2,253106, Note_on_c, 0, 63, 38
2,253109, Control_c, 0, 64, 50
2,253129, Control_c, 0, 64, 59
2,253148, Control_c, 0, 64, 62
2,253167, Control_c, 0, 64, 63
2,253186, Control_c, 0, 64, 64
2,253206, Control_c, 0, 64, 66
2,253225, Control_c, 0, 64, 67
2,253244, Control_c, 0, 64, 69
2,253263, Control_c, 0, 64, 71
2,253283, Control_c, 0, 64, 73
2,253302, Control_c, 0, 64, 73
2,253437, Control_c, 0, 64, 73
2,253475, Control_c, 0, 64, 72
2,253491, Note_on_c, 0, 63, 0
2,253494, Control_c, 0, 64, 71
2,253518, Note_on_c, 0, 66, 0
2,253532, Control_c, 0, 64, 71
2,253541, Note_on_c, 0, 65, 45
2,253552, Control_c, 0, 64, 70
2,253802, Control_c, 0, 67, 8
2,253821, Control_c, 0, 64, 70
2,253841, Control_c, 0, 64, 67
2,253841, Control_c, 0, 67, 8
2,253859, Control_c, 0, 64, 60
2,253859, Control_c, 0, 67, 10
2,253879, Control_c, 0, 64, 35
2,253879, Control_c, 0, 67, 14
2,253898, Control_c, 0, 64, 0
2,253898, Control_c, 0, 67, 23
2,253918, Control_c, 0, 67, 34
2,253936, Control_c, 0, 67, 46
2,253943, Note_on_c, 0, 61, 33
2,253956, Control_c, 0, 64, 43
2,253956, Control_c, 0, 67, 57
2,253975, Control_c, 0, 64, 61
2,253975, Control_c, 0, 67, 67
2,253994, Control_c, 0, 64, 65
2,253994, Control_c, 0, 67, 75
2,254013, Control_c, 0, 64, 68
2,254013, Control_c, 0, 67, 83
2,254033, Control_c, 0, 64, 72
2,254033, Control_c, 0, 67, 88
2,254052, Control_c, 0, 64, 79
2,254052, Control_c, 0, 67, 91
2,254070, Control_c, 0, 64, 85
2,254070, Control_c, 0, 67, 93
2,254084, Note_on_c, 0, 65, 0
2,254090, Control_c, 0, 64, 87
2,254090, Control_c, 0, 67, 93
2,254109, Control_c, 0, 64, 87
2,254128, Control_c, 0, 64, 86
2,254147, Control_c, 0, 64, 86
2,254147, Control_c, 0, 67, 94
2,254167, Control_c, 0, 64, 85
2,254186, Control_c, 0, 64, 84
2,254205, Control_c, 0, 64, 84
2,254232, Note_on_c, 0, 61, 0
2,254282, Control_c, 0, 64, 83
2,254301, Control_c, 0, 64, 81
2,254323, Control_c, 0, 64, 76
2,254342, Control_c, 0, 64, 70
2,254352, Note_on_c, 0, 75, 50
2,254353, Note_on_c, 0, 67, 45
2,254362, Control_c, 0, 64, 64
2,254381, Control_c, 0, 64, 59
2,254400, Control_c, 0, 64, 57
2,254419, Control_c, 0, 64, 60
2,254439, Control_c, 0, 64, 62
2,254439, Control_c, 0, 67, 93
2,254457, Control_c, 0, 64, 64
2,254477, Control_c, 0, 64, 65
2,254477, Control_c, 0, 67, 93
2,254496, Control_c, 0, 64, 66
2,254516, Control_c, 0, 64, 67
2,254534, Control_c, 0, 64, 68
2,254554, Control_c, 0, 64, 67
2,254554, Control_c, 0, 67, 92
2,254593, Control_c, 0, 67, 92
2,254650, Control_c, 0, 64, 66
2,254668, Control_c, 0, 64, 63
2,254673, Note_on_c, 0, 67, 0
2,254688, Control_c, 0, 64, 59
2,254707, Control_c, 0, 64, 59
2,254727, Control_c, 0, 64, 60
2,254727, Control_c, 0, 67, 91
2,254734, Note_on_c, 0, 63, 43
2,254742, Control_c, 0, 64, 62
2,254742, Control_c, 0, 67, 91
2,254749, Note_on_c, 0, 58, 43
2,254762, Control_c, 0, 64, 63
2,254781, Control_c, 0, 64, 64
2,254801, Control_c, 0, 64, 66
2,254819, Control_c, 0, 64, 67
2,254819, Control_c, 0, 67, 90
2,254839, Control_c, 0, 64, 68
2,254858, Control_c, 0, 64, 69
2,254935, Control_c, 0, 64, 68
2,254941, Note_on_c, 0, 63, 0
2,254944, Note_on_c, 0, 64, 37
2,254954, Control_c, 0, 64, 68
2,254993, Control_c, 0, 64, 67
2,255012, Control_c, 0, 64, 66
2,255027, Note_on_c, 0, 64, 0
2,255030, Control_c, 0, 64, 66
2,255030, Control_c, 0, 67, 91
2,255050, Control_c, 0, 64, 65
2,255050, Control_c, 0, 67, 91
2,255069, Control_c, 0, 64, 64
2,255069, Control_c, 0, 67, 92
2,255088, Control_c, 0, 64, 63
2,255088, Control_c, 0, 67, 92
2,255107, Control_c, 0, 64, 62
2,255107, Control_c, 0, 67, 93
2,255127, Control_c, 0, 64, 60
2,255146, Control_c, 0, 64, 55
2,255146, Control_c, 0, 67, 93
2,255150, Note_on_c, 0, 63, 38
2,255165, Control_c, 0, 64, 48
2,255165, Control_c, 0, 67, 94
2,255184, Control_c, 0, 64, 38
2,255184, Control_c, 0, 67, 94
2,255204, Control_c, 0, 64, 29
2,255204, Control_c, 0, 67, 96
2,255222, Control_c, 0, 64, 22
2,255222, Control_c, 0, 67, 97
2,255242, Control_c, 0, 64, 13
2,255242, Control_c, 0, 67, 106
2,255261, Control_c, 0, 64, 0
2,255261, Control_c, 0, 67, 117
2,255283, Control_c, 0, 67, 127
2,255417, Control_c, 0, 64, 27
2,255437, Control_c, 0, 64, 46
2,255456, Control_c, 0, 64, 57
2,255476, Control_c, 0, 64, 61
2,255494, Control_c, 0, 64, 63
2,255514, Control_c, 0, 64, 64
2,255533, Control_c, 0, 64, 65
2,255548, Note_on_c, 0, 61, 41
2,255553, Control_c, 0, 64, 66
2,255571, Control_c, 0, 64, 68
2,255590, Control_c, 0, 64, 71
2,255610, Control_c, 0, 64, 77
2,255628, Control_c, 0, 64, 85
2,255629, Note_on_c, 0, 63, 0
2,255643, Note_on_c, 0, 82, 0
2,255648, Control_c, 0, 64, 93
2,255667, Control_c, 0, 64, 95
2,255687, Control_c, 0, 64, 96
2,255693, Note_on_c, 0, 75, 0
2,255760, Control_c, 0, 64, 95
2,255773, Note_on_c, 0, 58, 0
2,255778, Control_c, 0, 64, 94
2,255798, Control_c, 0, 64, 93
2,255817, Control_c, 0, 64, 92
2,255837, Control_c, 0, 64, 90
2,255855, Control_c, 0, 64, 88
2,255867, Note_on_c, 0, 61, 0
2,255875, Control_c, 0, 64, 86
2,255894, Control_c, 0, 64, 84
2,255913, Control_c, 0, 64, 83
2,255932, Control_c, 0, 64, 81
2,255939, Note_on_c, 0, 63, 36
2,255946, Note_on_c, 0, 59, 40
2,255952, Control_c, 0, 64, 78
2,255957, Note_on_c, 0, 80, 67
2,255971, Control_c, 0, 64, 73
2,255989, Control_c, 0, 64, 68
2,256009, Control_c, 0, 64, 64
2,256028, Control_c, 0, 64, 60
2,256048, Control_c, 0, 64, 55
2,256066, Control_c, 0, 64, 48
2,256086, Control_c, 0, 64, 42
2,256105, Control_c, 0, 64, 36
2,256124, Control_c, 0, 64, 35
2,256143, Control_c, 0, 64, 35
2,256182, Control_c, 0, 64, 34
2,256201, Control_c, 0, 64, 33
2,256260, Control_c, 0, 67, 126
2,256280, Control_c, 0, 64, 34
2,256280, Control_c, 0, 67, 125
2,256299, Control_c, 0, 64, 41
2,256299, Control_c, 0, 67, 122
2,256318, Control_c, 0, 64, 51
2,256318, Control_c, 0, 67, 119
2,256337, Control_c, 0, 64, 59
2,256337, Control_c, 0, 67, 116
2,256354, Note_on_c, 0, 59, 0
2,256357, Control_c, 0, 64, 62
2,256357, Control_c, 0, 67, 113
2,256367, Note_on_c, 0, 64, 48
2,256376, Control_c, 0, 64, 64
2,256376, Control_c, 0, 67, 108
2,256382, Note_on_c, 0, 61, 28
2,256388, Note_on_c, 0, 63, 0
2,256395, Control_c, 0, 64, 65
2,256395, Control_c, 0, 67, 105
2,256414, Control_c, 0, 64, 66
2,256414, Control_c, 0, 67, 103
2,256434, Control_c, 0, 64, 66
2,256434, Control_c, 0, 67, 103
2,256452, Control_c, 0, 64, 67
2,256510, Control_c, 0, 67, 103
2,256548, Control_c, 0, 64, 66
2,256548, Control_c, 0, 67, 104
2,256568, Control_c, 0, 67, 104
2,256606, Control_c, 0, 67, 105
2,256625, Control_c, 0, 67, 105
2,256645, Control_c, 0, 64, 66
2,256645, Control_c, 0, 67, 106
2,256662, Control_c, 0, 64, 65
2,256682, Control_c, 0, 64, 63
2,256701, Control_c, 0, 64, 57
2,256721, Control_c, 0, 64, 47
2,256730, Note_on_c, 0, 61, 0
2,256739, Control_c, 0, 64, 40
2,256759, Control_c, 0, 64, 38
2,256768, Note_on_c, 0, 63, 37
2,256778, Control_c, 0, 64, 42
2,256782, Note_on_c, 0, 59, 42
2,256794, Note_on_c, 0, 64, 0
2,256798, Control_c, 0, 64, 54
2,256816, Control_c, 0, 64, 60
2,256836, Control_c, 0, 64, 63
2,256855, Control_c, 0, 64, 65
2,256874, Control_c, 0, 64, 66
2,256893, Control_c, 0, 64, 67
2,256913, Control_c, 0, 64, 67
2,256932, Control_c, 0, 64, 68
2,256950, Control_c, 0, 64, 68
2,256950, Control_c, 0, 67, 105
2,256970, Control_c, 0, 64, 69
2,256989, Control_c, 0, 64, 69
2,257008, Control_c, 0, 64, 70
2,257008, Control_c, 0, 67, 105
2,257027, Control_c, 0, 64, 70
2,257047, Control_c, 0, 64, 71
2,257085, Control_c, 0, 64, 68
2,257104, Control_c, 0, 64, 62
2,257124, Control_c, 0, 64, 35
2,257124, Control_c, 0, 67, 104
2,257142, Control_c, 0, 64, 0
2,257158, Note_on_c, 0, 61, 48
2,257159, Note_on_c, 0, 63, 0
2,257198, Note_on_c, 0, 58, 37
2,257203, Control_c, 0, 64, 39
2,257221, Control_c, 0, 64, 63
2,257241, Control_c, 0, 64, 67
2,257241, Control_c, 0, 67, 105
2,257260, Control_c, 0, 64, 71
2,257260, Control_c, 0, 67, 105
2,257279, Control_c, 0, 64, 76
2,257279, Control_c, 0, 67, 106
2,257298, Control_c, 0, 64, 80
2,257307, Note_on_c, 0, 61, 0
2,257318, Control_c, 0, 64, 83
2,257318, Note_on_c, 0, 59, 0
2,257337, Control_c, 0, 64, 84
2,257345, Note_on_c, 0, 58, 0
2,257356, Control_c, 0, 67, 105
2,257395, Control_c, 0, 64, 85
2,257413, Control_c, 0, 64, 85
2,257433, Control_c, 0, 64, 86
2,257452, Control_c, 0, 64, 87
2,257472, Control_c, 0, 67, 106
2,257509, Control_c, 0, 67, 106
2,257529, Control_c, 0, 64, 86
2,257541, Note_on_c, 0, 59, 46
2,257547, Control_c, 0, 64, 82
2,257554, Note_on_c, 0, 56, 50
2,257567, Control_c, 0, 64, 72
2,257567, Control_c, 0, 67, 106
2,257586, Control_c, 0, 64, 61
2,257606, Control_c, 0, 64, 26
2,257622, Control_c, 0, 64, 0
2,257642, Control_c, 0, 67, 105
2,257681, Control_c, 0, 64, 44
2,257699, Control_c, 0, 64, 61
2,257699, Control_c, 0, 67, 104
2,257719, Control_c, 0, 64, 64
2,257719, Control_c, 0, 67, 104
2,257738, Control_c, 0, 64, 66
2,257738, Control_c, 0, 67, 103
2,257758, Control_c, 0, 64, 68
2,257758, Control_c, 0, 67, 102
2,257776, Control_c, 0, 64, 69
2,257776, Control_c, 0, 67, 101
2,257796, Control_c, 0, 67, 100
2,257815, Control_c, 0, 67, 96
2,257834, Control_c, 0, 67, 87
2,257853, Control_c, 0, 67, 77
2,257873, Control_c, 0, 67, 67
2,257892, Control_c, 0, 64, 69
2,257892, Control_c, 0, 67, 58
2,257910, Control_c, 0, 64, 71
2,257910, Control_c, 0, 67, 53
2,257930, Control_c, 0, 64, 72
2,257930, Control_c, 0, 67, 52
2,257949, Control_c, 0, 64, 74
2,257953, Note_on_c, 0, 61, 57
2,257968, Control_c, 0, 64, 75
2,257982, Note_on_c, 0, 54, 44
2,257987, Control_c, 0, 64, 76
2,257987, Control_c, 0, 67, 52
2,258007, Control_c, 0, 64, 78
2,258026, Control_c, 0, 64, 81
2,258026, Control_c, 0, 67, 53
2,258038, Note_on_c, 0, 59, 0
2,258045, Control_c, 0, 64, 83
2,258060, Note_on_c, 0, 56, 0
2,258064, Control_c, 0, 64, 85
2,258064, Control_c, 0, 67, 53
2,258084, Control_c, 0, 64, 85
2,258084, Control_c, 0, 67, 54
2,258092, Note_on_c, 0, 54, 0
2,258102, Control_c, 0, 67, 54
2,258122, Control_c, 0, 67, 55
2,258153, Note_on_c, 0, 61, 0
2,258163, Control_c, 0, 67, 55
2,258182, Control_c, 0, 67, 56
2,258240, Control_c, 0, 64, 85
2,258259, Control_c, 0, 64, 84
2,258259, Control_c, 0, 67, 56
2,258297, Control_c, 0, 64, 84
2,258297, Control_c, 0, 67, 57
2,258317, Control_c, 0, 64, 83
2,258317, Control_c, 0, 67, 57
2,258336, Control_c, 0, 64, 80
2,258336, Control_c, 0, 67, 58
2,258353, Note_on_c, 0, 78, 68
2,258356, Control_c, 0, 64, 77
2,258362, Note_on_c, 0, 63, 47
2,258366, Note_on_c, 0, 52, 43
2,258374, Control_c, 0, 64, 71
2,258394, Control_c, 0, 64, 64
2,258413, Control_c, 0, 64, 55
2,258433, Control_c, 0, 64, 43
2,258451, Control_c, 0, 64, 32
2,258470, Control_c, 0, 64, 27
2,258490, Control_c, 0, 64, 25
2,258514, Note_on_c, 0, 80, 0
2,258528, Control_c, 0, 64, 26
2,258547, Control_c, 0, 64, 29
2,258567, Control_c, 0, 64, 36
2,258583, Control_c, 0, 64, 42
2,258601, Control_c, 0, 64, 50
2,258601, Control_c, 0, 67, 57
2,258620, Control_c, 0, 64, 55
2,258640, Control_c, 0, 64, 58
2,258658, Control_c, 0, 64, 61
2,258678, Control_c, 0, 64, 63
2,258678, Control_c, 0, 67, 58
2,258697, Control_c, 0, 64, 64
2,258697, Control_c, 0, 67, 59
2,258717, Control_c, 0, 64, 67
2,258717, Control_c, 0, 67, 62
2,258735, Control_c, 0, 64, 71
2,258735, Control_c, 0, 67, 67
2,258755, Control_c, 0, 64, 77
2,258755, Control_c, 0, 67, 72
2,258774, Control_c, 0, 64, 85
2,258774, Control_c, 0, 67, 85
2,258781, Note_on_c, 0, 51, 41
2,258793, Control_c, 0, 64, 94
2,258793, Control_c, 0, 67, 105
2,258812, Control_c, 0, 64, 101
2,258812, Control_c, 0, 67, 127
2,258832, Control_c, 0, 64, 105
2,258851, Control_c, 0, 64, 108
2,258865, Note_on_c, 0, 63, 0
2,258869, Control_c, 0, 64, 109
2,258925, Note_on_c, 0, 51, 0
2,258925, Note_on_c, 0, 52, 0
2,258966, Control_c, 0, 64, 108
2,258985, Control_c, 0, 64, 108
2,259004, Control_c, 0, 64, 106
2,259023, Control_c, 0, 64, 105
2,259043, Control_c, 0, 64, 103
2,259062, Control_c, 0, 64, 101
2,259081, Control_c, 0, 64, 98
2,259100, Control_c, 0, 64, 96
2,259120, Control_c, 0, 64, 95
2,259139, Control_c, 0, 64, 93
2,259159, Control_c, 0, 64, 91
2,259178, Control_c, 0, 64, 88
2,259198, Control_c, 0, 64, 83
2,259216, Control_c, 0, 64, 77
2,259228, Note_on_c, 0, 56, 44
2,259236, Control_c, 0, 64, 70
2,259243, Note_on_c, 0, 49, 36
2,259249, Note_on_c, 0, 76, 50
2,259255, Control_c, 0, 64, 63
2,259274, Control_c, 0, 64, 41
2,259293, Control_c, 0, 64, 0
2,259408, Control_c, 0, 64, 17
2,259409, Note_on_c, 0, 78, 0
2,259427, Control_c, 0, 64, 43
2,259447, Control_c, 0, 64, 56
2,259466, Control_c, 0, 64, 60
2,259485, Control_c, 0, 64, 61
2,259504, Control_c, 0, 64, 63
2,259524, Control_c, 0, 64, 64
2,259542, Control_c, 0, 64, 65
2,259561, Control_c, 0, 64, 68
2,259580, Control_c, 0, 64, 71
2,259600, Control_c, 0, 64, 77
2,259618, Control_c, 0, 64, 83
2,259638, Control_c, 0, 64, 87
2,259657, Control_c, 0, 64, 88
2,259661, Note_on_c, 0, 49, 0
2,259677, Control_c, 0, 64, 89
2,259679, Note_on_c, 0, 61, 55
2,259697, Note_on_c, 0, 56, 0
2,259861, Note_on_c, 0, 59, 52
2,259868, Control_c, 0, 64, 88
2,259870, Note_on_c, 0, 61, 0
2,259888, Control_c, 0, 64, 88
2,259926, Control_c, 0, 64, 87
2,259945, Control_c, 0, 64, 86
2,259964, Control_c, 0, 64, 85
2,259972, Note_on_c, 0, 59, 0
2,259983, Control_c, 0, 64, 84
2,260003, Control_c, 0, 64, 83
2,260022, Control_c, 0, 64, 81
2,260041, Control_c, 0, 64, 79
2,260060, Control_c, 0, 64, 75
2,260071, Note_on_c, 0, 61, 50
2,260080, Control_c, 0, 64, 69
2,260091, Note_on_c, 0, 58, 39
2,260099, Control_c, 0, 64, 63
2,260119, Control_c, 0, 64, 57
2,260138, Control_c, 0, 64, 53
2,260158, Control_c, 0, 64, 52
2,260176, Control_c, 0, 64, 51
2,260196, Control_c, 0, 64, 50
2,260253, Control_c, 0, 64, 51
2,260407, Control_c, 0, 64, 51
2,260426, Control_c, 0, 64, 52
2,260445, Control_c, 0, 64, 54
2,260464, Control_c, 0, 64, 56
2,260479, Note_on_c, 0, 56, 51
2,260484, Control_c, 0, 64, 59
2,260502, Control_c, 0, 64, 61
2,260504, Note_on_c, 0, 58, 0
2,260521, Control_c, 0, 64, 63
2,260540, Control_c, 0, 64, 65
2,260560, Control_c, 0, 64, 66
2,260578, Control_c, 0, 64, 67
2,260598, Control_c, 0, 64, 69
2,260617, Control_c, 0, 64, 70
2,260637, Control_c, 0, 64, 70
2,260751, Control_c, 0, 64, 70
2,260809, Control_c, 0, 64, 69
2,260828, Control_c, 0, 64, 69
2,260848, Control_c, 0, 64, 68
2,260866, Control_c, 0, 64, 67
2,260884, Note_on_c, 0, 56, 0
2,260886, Control_c, 0, 64, 65
2,260888, Note_on_c, 0, 75, 53
2,260901, Note_on_c, 0, 55, 46
2,260905, Control_c, 0, 64, 63
2,260924, Control_c, 0, 64, 59
2,260942, Note_on_c, 0, 61, 0
2,260943, Control_c, 0, 64, 56
2,260962, Note_on_c, 0, 76, 0
2,260963, Control_c, 0, 64, 53
2,260982, Control_c, 0, 64, 52
2,261001, Control_c, 0, 64, 51
2,261211, Control_c, 0, 64, 52
2,261230, Control_c, 0, 64, 55
2,261250, Control_c, 0, 64, 59
2,261252, Note_on_c, 0, 55, 0
2,261268, Control_c, 0, 64, 62
2,261288, Control_c, 0, 64, 63
2,261299, Note_on_c, 0, 59, 53
2,261307, Control_c, 0, 64, 65
2,261309, Note_on_c, 0, 56, 45
2,261327, Control_c, 0, 64, 66
2,261345, Control_c, 0, 64, 67
2,261365, Control_c, 0, 64, 68
2,261384, Control_c, 0, 64, 69
2,261403, Control_c, 0, 64, 70
2,261422, Control_c, 0, 64, 71
2,261595, Control_c, 0, 64, 70
2,261652, Control_c, 0, 64, 70
2,261671, Control_c, 0, 64, 69
2,261690, Control_c, 0, 64, 69
2,261709, Control_c, 0, 64, 68
2,261724, Note_on_c, 0, 58, 48
2,261729, Control_c, 0, 64, 67
2,261747, Control_c, 0, 64, 66
2,261761, Note_on_c, 0, 56, 0
2,261767, Control_c, 0, 64, 64
2,261786, Control_c, 0, 64, 62
2,261793, Note_on_c, 0, 59, 0
2,261806, Control_c, 0, 64, 59
2,261824, Control_c, 0, 64, 55
2,261844, Control_c, 0, 64, 52
2,261863, Control_c, 0, 64, 50
2,261883, Control_c, 0, 64, 47
2,261901, Control_c, 0, 64, 45
2,261921, Control_c, 0, 64, 45
2,261959, Control_c, 0, 64, 45
2,261978, Control_c, 0, 64, 47
2,261998, Control_c, 0, 64, 52
2,262018, Control_c, 0, 64, 58
2,262038, Control_c, 0, 64, 61
2,262057, Control_c, 0, 64, 64
2,262077, Control_c, 0, 64, 66
2,262095, Control_c, 0, 64, 68
2,262115, Control_c, 0, 64, 72
2,262131, Note_on_c, 0, 54, 48
2,262134, Control_c, 0, 64, 78
2,262153, Control_c, 0, 64, 86
2,262172, Control_c, 0, 64, 93
2,262191, Control_c, 0, 64, 95
2,262211, Control_c, 0, 64, 96
2,262257, Note_on_c, 0, 58, 0
2,262324, Note_on_c, 0, 54, 0
2,262345, Control_c, 0, 64, 95
2,262364, Control_c, 0, 64, 94
2,262383, Control_c, 0, 64, 93
2,262403, Control_c, 0, 64, 91
2,262421, Control_c, 0, 64, 90
2,262441, Control_c, 0, 64, 88
2,262460, Control_c, 0, 64, 87
2,262480, Control_c, 0, 64, 86
2,262498, Control_c, 0, 64, 85
2,262518, Control_c, 0, 64, 84
2,262537, Control_c, 0, 64, 82
2,262557, Control_c, 0, 64, 81
2,262575, Control_c, 0, 64, 80
2,262595, Control_c, 0, 64, 79
2,262614, Control_c, 0, 64, 78
2,262630, Note_on_c, 0, 56, 59
2,262633, Control_c, 0, 64, 76
2,262652, Control_c, 0, 64, 72
2,262664, Note_on_c, 0, 53, 44
2,262671, Control_c, 0, 64, 68
2,262691, Control_c, 0, 64, 64
2,262709, Control_c, 0, 64, 59
2,262729, Control_c, 0, 64, 55
2,262748, Control_c, 0, 64, 53
2,262768, Control_c, 0, 64, 51
2,262786, Control_c, 0, 64, 50
2,262806, Control_c, 0, 64, 50
2,262902, Control_c, 0, 64, 50
2,262921, Control_c, 0, 64, 51
2,262940, Control_c, 0, 64, 51
2,262960, Control_c, 0, 64, 52
2,262978, Control_c, 0, 64, 53
2,262998, Control_c, 0, 64, 54
2,263017, Control_c, 0, 64, 54
2,263037, Control_c, 0, 64, 55
2,263055, Control_c, 0, 64, 56
2,263075, Control_c, 0, 64, 57
2,263075, Control_c, 0, 67, 127
2,263094, Control_c, 0, 64, 58
2,263113, Control_c, 0, 64, 59
2,263128, Note_on_c, 0, 71, 59
2,263132, Control_c, 0, 64, 60
2,263151, Control_c, 0, 64, 61
2,263171, Control_c, 0, 64, 62
2,263189, Control_c, 0, 64, 62
2,263209, Control_c, 0, 64, 63
2,263228, Control_c, 0, 64, 63
2,263248, Control_c, 0, 64, 64
2,263266, Control_c, 0, 67, 126
2,263363, Control_c, 0, 67, 126
2,263400, Control_c, 0, 67, 125
2,263457, Control_c, 0, 64, 63
2,263457, Control_c, 0, 67, 125
2,263516, Control_c, 0, 64, 63
2,263534, Control_c, 0, 64, 62
2,263554, Control_c, 0, 64, 61
2,263556, Note_on_c, 0, 68, 64
2,263573, Control_c, 0, 64, 60
2,263593, Control_c, 0, 64, 59
2,263611, Control_c, 0, 64, 58
2,263619, Note_on_c, 0, 71, 0
2,263630, Control_c, 0, 64, 56
2,263650, Control_c, 0, 64, 55
2,263668, Control_c, 0, 64, 54
2,263688, Control_c, 0, 64, 53
2,263706, Note_on_c, 0, 75, 0
2,263707, Control_c, 0, 64, 52
2,263727, Control_c, 0, 67, 124
2,263745, Control_c, 0, 64, 52
2,263765, Control_c, 0, 64, 51
2,263765, Control_c, 0, 67, 124
2,263784, Control_c, 0, 67, 123
2,263803, Control_c, 0, 67, 122
2,263822, Control_c, 0, 64, 51
2,263822, Control_c, 0, 67, 120
2,263842, Control_c, 0, 67, 115
2,263861, Control_c, 0, 64, 50
2,263861, Control_c, 0, 67, 110
2,263880, Control_c, 0, 67, 104
2,263899, Control_c, 0, 67, 97
2,263919, Control_c, 0, 67, 92
2,263938, Control_c, 0, 64, 51
2,263938, Control_c, 0, 67, 89
2,263958, Control_c, 0, 64, 52
2,263958, Control_c, 0, 67, 87
2,263974, Note_on_c, 0, 58, 58
2,263977, Control_c, 0, 64, 54
2,263977, Control_c, 0, 67, 85
2,263997, Control_c, 0, 64, 55
2,263997, Control_c, 0, 67, 84
2,264015, Control_c, 0, 64, 57
2,264015, Control_c, 0, 67, 83
2,264035, Control_c, 0, 64, 59
2,264035, Control_c, 0, 67, 83
2,264054, Control_c, 0, 64, 60
2,264073, Control_c, 0, 64, 61
2,264092, Control_c, 0, 64, 62
2,264111, Control_c, 0, 64, 62
2,264111, Control_c, 0, 67, 83
2,264131, Control_c, 0, 64, 63
2,264169, Control_c, 0, 64, 62
2,264188, Control_c, 0, 64, 60
2,264208, Control_c, 0, 64, 57
2,264226, Control_c, 0, 64, 50
2,264246, Control_c, 0, 64, 46
2,264265, Control_c, 0, 64, 46
2,264284, Control_c, 0, 64, 48
2,264303, Control_c, 0, 64, 53
2,264323, Control_c, 0, 64, 59
2,264323, Control_c, 0, 67, 83
2,264340, Control_c, 0, 64, 63
2,264359, Control_c, 0, 64, 65
2,264359, Control_c, 0, 67, 82
2,264373, Note_on_c, 0, 58, 0
2,264378, Control_c, 0, 64, 67
2,264380, Note_on_c, 0, 59, 68
2,264398, Control_c, 0, 64, 68
2,264398, Control_c, 0, 67, 82
2,264417, Control_c, 0, 64, 71
2,264436, Control_c, 0, 64, 72
2,264436, Control_c, 0, 67, 81
2,264455, Control_c, 0, 64, 74
2,264455, Control_c, 0, 67, 80
2,264475, Control_c, 0, 64, 74
2,264475, Control_c, 0, 67, 79
2,264493, Control_c, 0, 67, 77
2,264512, Control_c, 0, 64, 75
2,264532, Control_c, 0, 64, 77
2,264551, Control_c, 0, 64, 78
2,264570, Control_c, 0, 64, 79
2,264570, Control_c, 0, 67, 78
2,264589, Control_c, 0, 67, 79
2,264595, Note_on_c, 0, 53, 0
2,264627, Control_c, 0, 67, 79
2,264627, Note_on_c, 0, 68, 0
2,264647, Control_c, 0, 67, 80
2,264676, Note_on_c, 0, 56, 0
2,264686, Control_c, 0, 64, 79
2,264686, Control_c, 0, 67, 81
2,264704, Control_c, 0, 67, 82
2,264741, Note_on_c, 0, 59, 0
2,264743, Control_c, 0, 64, 78
2,264781, Control_c, 0, 64, 78
2,264781, Control_c, 0, 67, 82
2,264801, Control_c, 0, 64, 77
2,264820, Control_c, 0, 64, 75
2,264839, Control_c, 0, 64, 70
2,264841, Note_on_c, 0, 58, 38
2,264854, Note_on_c, 0, 54, 39
2,264858, Control_c, 0, 64, 63
2,264866, Note_on_c, 0, 70, 74
2,264878, Control_c, 0, 64, 53
2,264897, Control_c, 0, 64, 47
2,264936, Control_c, 0, 64, 50
2,264956, Control_c, 0, 64, 55
2,264956, Control_c, 0, 67, 82
2,264974, Control_c, 0, 64, 61
2,264994, Control_c, 0, 64, 63
2,265013, Control_c, 0, 64, 65
2,265032, Control_c, 0, 64, 67
2,265051, Control_c, 0, 64, 69
2,265070, Control_c, 0, 64, 71
2,265090, Control_c, 0, 64, 72
2,265090, Control_c, 0, 67, 81
2,265128, Control_c, 0, 67, 81
2,265205, Control_c, 0, 64, 72
2,265205, Control_c, 0, 67, 81
2,265264, Note_on_c, 0, 58, 0
2,265282, Control_c, 0, 64, 72
2,265282, Control_c, 0, 67, 81
2,265297, Control_c, 0, 64, 70
2,265302, Note_on_c, 0, 56, 46
2,265310, Note_on_c, 0, 54, 0
2,265317, Control_c, 0, 64, 63
2,265317, Control_c, 0, 67, 80
2,265322, Note_on_c, 0, 53, 40
2,265335, Control_c, 0, 64, 48
2,265335, Control_c, 0, 67, 80
2,265355, Control_c, 0, 64, 24
2,265355, Control_c, 0, 67, 79
2,265356, Note_on_c, 0, 71, 66
2,265374, Control_c, 0, 64, 21
2,265374, Control_c, 0, 67, 79
2,265392, Control_c, 0, 64, 32
2,265392, Control_c, 0, 67, 78
2,265412, Control_c, 0, 64, 52
2,265431, Control_c, 0, 64, 63
2,265451, Control_c, 0, 64, 67
2,265469, Control_c, 0, 64, 73
2,265470, Note_on_c, 0, 70, 0
2,265489, Control_c, 0, 64, 81
2,265508, Control_c, 0, 64, 88
2,265528, Control_c, 0, 64, 91
2,265536, Note_on_c, 0, 56, 0
2,265566, Control_c, 0, 64, 90
2,265569, Note_on_c, 0, 53, 0
2,265585, Control_c, 0, 64, 89
2,265604, Control_c, 0, 64, 89
2,265604, Control_c, 0, 67, 79
2,265623, Control_c, 0, 64, 88
2,265643, Control_c, 0, 64, 88
2,265662, Control_c, 0, 64, 87
2,265662, Control_c, 0, 67, 79
2,265681, Control_c, 0, 64, 86
2,265700, Control_c, 0, 64, 84
2,265700, Control_c, 0, 67, 80
2,265720, Control_c, 0, 64, 81
2,265738, Control_c, 0, 64, 75
2,265738, Control_c, 0, 67, 80
2,265749, Note_on_c, 0, 54, 49
2,265757, Note_on_c, 0, 51, 40
2,265758, Control_c, 0, 64, 67
2,265777, Control_c, 0, 64, 58
2,265797, Control_c, 0, 64, 34
2,265815, Control_c, 0, 64, 0
2,265877, Control_c, 0, 64, 24
2,265896, Control_c, 0, 64, 49
2,265916, Control_c, 0, 64, 62
2,265916, Control_c, 0, 67, 81
2,265934, Control_c, 0, 64, 65
2,265934, Control_c, 0, 67, 82
2,265954, Control_c, 0, 64, 67
2,265973, Control_c, 0, 64, 69
2,265992, Control_c, 0, 64, 70
2,266011, Control_c, 0, 64, 72
2,266050, Control_c, 0, 67, 82
2,266068, Control_c, 0, 64, 71
2,266068, Control_c, 0, 67, 84
2,266069, Note_on_c, 0, 51, 0
2,266088, Control_c, 0, 67, 85
2,266091, Note_on_c, 0, 54, 0
2,266107, Control_c, 0, 64, 71
2,266107, Control_c, 0, 67, 87
2,266127, Control_c, 0, 67, 88
2,266145, Control_c, 0, 64, 70
2,266145, Control_c, 0, 67, 90
2,266165, Control_c, 0, 64, 70
2,266165, Control_c, 0, 67, 91
2,266184, Control_c, 0, 64, 69
2,266184, Control_c, 0, 67, 92
2,266185, Note_on_c, 0, 53, 48
2,266203, Control_c, 0, 64, 68
2,266203, Control_c, 0, 67, 94
2,266221, Note_on_c, 0, 50, 34
2,266222, Control_c, 0, 64, 66
2,266222, Control_c, 0, 67, 97
2,266242, Control_c, 0, 64, 63
2,266242, Control_c, 0, 67, 101
2,266262, Control_c, 0, 64, 60
2,266262, Control_c, 0, 67, 104
2,266280, Control_c, 0, 64, 57
2,266280, Control_c, 0, 67, 105
2,266299, Control_c, 0, 64, 52
2,266299, Control_c, 0, 67, 106
2,266319, Control_c, 0, 64, 49
2,266337, Control_c, 0, 64, 48
2,266376, Control_c, 0, 64, 48
2,266396, Control_c, 0, 64, 51
2,266414, Control_c, 0, 64, 56
2,266434, Control_c, 0, 64, 59
2,266434, Control_c, 0, 67, 105
2,266453, Control_c, 0, 64, 61
2,266453, Control_c, 0, 67, 105
2,266472, Control_c, 0, 64, 62
2,266472, Control_c, 0, 67, 104
2,266491, Control_c, 0, 64, 63
2,266510, Control_c, 0, 64, 63
2,266510, Control_c, 0, 67, 104
2,266530, Control_c, 0, 67, 103
2,266548, Control_c, 0, 67, 103
2,266607, Control_c, 0, 67, 102
2,266611, Note_on_c, 0, 68, 46
2,266645, Control_c, 0, 67, 102
2,266702, Control_c, 0, 67, 101
2,266779, Control_c, 0, 64, 63
2,266849, Note_on_c, 0, 71, 0
2,266915, Control_c, 0, 64, 62
2,266934, Control_c, 0, 64, 58
2,266952, Control_c, 0, 64, 50
2,266972, Control_c, 0, 64, 43
2,266991, Control_c, 0, 64, 42
2,266991, Control_c, 0, 67, 101
2,267011, Control_c, 0, 64, 45
2,267021, Note_on_c, 0, 65, 40
2,267029, Control_c, 0, 64, 52
2,267049, Control_c, 0, 64, 58
2,267068, Control_c, 0, 64, 62
2,267088, Control_c, 0, 64, 63
2,267106, Control_c, 0, 64, 64
2,267260, Control_c, 0, 64, 63
2,267280, Control_c, 0, 64, 63
2,267298, Control_c, 0, 64, 62
2,267318, Control_c, 0, 64, 61
2,267337, Control_c, 0, 64, 58
2,267357, Control_c, 0, 64, 52
2,267358, Note_on_c, 0, 68, 0
2,267375, Control_c, 0, 64, 47
2,267395, Control_c, 0, 64, 46
2,267411, Note_on_c, 0, 53, 0
2,267414, Control_c, 0, 64, 47
2,267432, Control_c, 0, 64, 51
2,267441, Note_on_c, 0, 54, 43
2,267452, Control_c, 0, 64, 55
2,267471, Control_c, 0, 64, 59
2,267491, Control_c, 0, 64, 61
2,267509, Control_c, 0, 64, 62
2,267509, Control_c, 0, 67, 102
2,267529, Control_c, 0, 67, 102
2,267548, Control_c, 0, 67, 103
2,267568, Control_c, 0, 67, 104
2,267586, Control_c, 0, 67, 105
2,267606, Control_c, 0, 64, 61
2,267606, Control_c, 0, 67, 107
2,267625, Control_c, 0, 64, 60
2,267625, Control_c, 0, 67, 108
2,267644, Control_c, 0, 64, 58
2,267644, Control_c, 0, 67, 111
2,267663, Control_c, 0, 64, 52
2,267663, Control_c, 0, 67, 120
2,267683, Control_c, 0, 64, 27
2,267683, Control_c, 0, 67, 127
2,267702, Control_c, 0, 64, 0
2,267880, Note_on_c, 0, 56, 54
2,267932, Control_c, 0, 67, 126
2,267951, Control_c, 0, 64, 34
2,267951, Control_c, 0, 67, 123
2,267971, Control_c, 0, 64, 58
2,267971, Control_c, 0, 67, 120
2,267989, Control_c, 0, 64, 64
2,267989, Control_c, 0, 67, 114
2,267994, Note_on_c, 0, 54, 0
2,268009, Control_c, 0, 64, 66
2,268009, Control_c, 0, 67, 108
2,268028, Control_c, 0, 64, 70
2,268028, Control_c, 0, 67, 100
2,268048, Control_c, 0, 64, 76
2,268048, Control_c, 0, 67, 91
2,268066, Control_c, 0, 64, 85
2,268066, Control_c, 0, 67, 82
2,268086, Control_c, 0, 64, 96
2,268086, Control_c, 0, 67, 76
2,268105, Control_c, 0, 64, 103
2,268105, Control_c, 0, 67, 72
2,268124, Control_c, 0, 64, 111
2,268131, Note_on_c, 0, 50, 0
2,268143, Control_c, 0, 64, 127
2,268216, Note_on_c, 0, 56, 0
2,268278, Control_c, 0, 64, 103
2,268278, Control_c, 0, 67, 72
2,268296, Note_on_c, 0, 51, 44
2,268296, Note_on_c, 0, 54, 51
2,268297, Control_c, 0, 64, 84
2,268317, Control_c, 0, 64, 70
2,268319, Note_on_c, 0, 66, 67
2,268335, Control_c, 0, 64, 61
2,268339, Note_on_c, 0, 65, 0
2,268355, Control_c, 0, 64, 50
2,268374, Control_c, 0, 64, 50
2,268392, Control_c, 0, 64, 55
2,268412, Control_c, 0, 64, 61
2,268431, Control_c, 0, 64, 63
2,268451, Control_c, 0, 64, 65
2,268469, Control_c, 0, 64, 67
2,268489, Control_c, 0, 64, 71
2,268508, Control_c, 0, 64, 76
2,268508, Control_c, 0, 67, 73
2,268528, Control_c, 0, 64, 81
2,268546, Control_c, 0, 64, 85
2,268546, Control_c, 0, 67, 73
2,268562, Note_on_c, 0, 51, 0
2,268566, Control_c, 0, 64, 87
2,268566, Control_c, 0, 67, 74
2,268585, Control_c, 0, 67, 75
2,268590, Note_on_c, 0, 54, 0
2,268604, Control_c, 0, 67, 75
2,268623, Control_c, 0, 67, 76
2,268643, Control_c, 0, 67, 77
2,268662, Control_c, 0, 64, 86
2,268681, Control_c, 0, 67, 77
2,268700, Control_c, 0, 64, 86
2,268700, Control_c, 0, 67, 78
2,268723, Control_c, 0, 67, 78
2,268734, Note_on_c, 0, 53, 45
2,268741, Control_c, 0, 64, 84
2,268741, Control_c, 0, 67, 79
2,268752, Note_on_c, 0, 50, 42
2,268752, Note_on_c, 0, 68, 69
2,268761, Control_c, 0, 64, 82
2,268780, Control_c, 0, 64, 76
2,268799, Control_c, 0, 64, 69
2,268818, Control_c, 0, 64, 63
2,268838, Control_c, 0, 64, 56
2,268857, Control_c, 0, 64, 51
2,268857, Control_c, 0, 67, 79
2,268876, Control_c, 0, 64, 52
2,268884, Note_on_c, 0, 66, 0
2,268895, Control_c, 0, 64, 56
2,268895, Control_c, 0, 67, 80
2,268915, Control_c, 0, 64, 60
2,268933, Control_c, 0, 64, 62
2,268933, Control_c, 0, 67, 80
2,268952, Control_c, 0, 64, 62
2,268972, Control_c, 0, 67, 81
2,268991, Control_c, 0, 64, 62
2,268991, Control_c, 0, 67, 81
2,269010, Control_c, 0, 64, 60
2,269029, Control_c, 0, 64, 57
2,269029, Control_c, 0, 67, 82
2,269049, Control_c, 0, 64, 49
2,269067, Control_c, 0, 64, 32
2,269087, Control_c, 0, 64, 0
2,269106, Control_c, 0, 67, 82
2,269122, Note_on_c, 0, 50, 0
2,269126, Control_c, 0, 67, 83
2,269137, Note_on_c, 0, 51, 49
2,269152, Note_on_c, 0, 48, 48
2,269159, Control_c, 0, 67, 83
2,269178, Control_c, 0, 64, 26
2,269181, Note_on_c, 0, 53, 0
2,269198, Control_c, 0, 64, 44
2,269217, Control_c, 0, 64, 55
2,269217, Control_c, 0, 67, 83
2,269236, Control_c, 0, 64, 59
2,269236, Control_c, 0, 67, 82
2,269255, Control_c, 0, 64, 62
2,269275, Control_c, 0, 64, 64
2,269275, Control_c, 0, 67, 81
2,269293, Control_c, 0, 64, 66
2,269293, Control_c, 0, 67, 80
2,269312, Control_c, 0, 64, 69
2,269312, Control_c, 0, 67, 79
2,269332, Control_c, 0, 64, 72
2,269332, Control_c, 0, 67, 79
2,269351, Control_c, 0, 64, 77
2,269370, Control_c, 0, 64, 81
2,269370, Control_c, 0, 67, 78
2,269389, Control_c, 0, 64, 83
2,269409, Control_c, 0, 64, 84
2,269409, Control_c, 0, 67, 79
2,269427, Control_c, 0, 64, 85
2,269447, Control_c, 0, 64, 86
2,269466, Control_c, 0, 64, 88
2,269486, Control_c, 0, 64, 88
2,269543, Control_c, 0, 67, 79
2,269601, Control_c, 0, 64, 88
2,269630, Note_on_c, 0, 48, 0
2,269639, Control_c, 0, 64, 87
2,269658, Control_c, 0, 64, 86
2,269670, Note_on_c, 0, 50, 55
2,269678, Control_c, 0, 64, 85
2,269678, Control_c, 0, 67, 80
2,269687, Note_on_c, 0, 51, 0
2,269688, Note_on_c, 0, 46, 44
2,269697, Control_c, 0, 64, 82
2,269717, Control_c, 0, 64, 77
2,269736, Control_c, 0, 64, 70
2,269756, Control_c, 0, 64, 64
2,269774, Control_c, 0, 64, 58
2,269793, Control_c, 0, 64, 55
2,269813, Control_c, 0, 64, 54
2,269832, Control_c, 0, 64, 52
2,269851, Control_c, 0, 64, 51
2,269851, Control_c, 0, 67, 79
2,269870, Control_c, 0, 64, 50
2,269890, Control_c, 0, 64, 49
2,269908, Control_c, 0, 67, 79
2,269967, Control_c, 0, 64, 49
2,269985, Control_c, 0, 64, 50
2,269985, Control_c, 0, 67, 79
2,270005, Control_c, 0, 64, 50
2,270024, Control_c, 0, 64, 51
2,270024, Control_c, 0, 67, 80
2,270043, Control_c, 0, 64, 51
2,270062, Control_c, 0, 67, 82
2,270082, Control_c, 0, 64, 52
2,270082, Control_c, 0, 67, 82
2,270101, Control_c, 0, 64, 52
2,270101, Control_c, 0, 67, 84
2,270120, Control_c, 0, 64, 53
2,270120, Control_c, 0, 67, 85
2,270139, Control_c, 0, 64, 55
2,270139, Control_c, 0, 67, 87
2,270159, Control_c, 0, 64, 56
2,270159, Control_c, 0, 67, 88
2,270177, Control_c, 0, 64, 57
2,270177, Control_c, 0, 67, 92
2,270197, Control_c, 0, 67, 99
2,270216, Control_c, 0, 67, 106
2,270222, Note_on_c, 0, 65, 40
2,270236, Control_c, 0, 67, 115
2,270254, Control_c, 0, 67, 127
2,270273, Control_c, 0, 64, 56
2,270273, Control_c, 0, 67, 127
2,270350, Control_c, 0, 64, 56
2,270387, Note_on_c, 0, 68, 0
2,270523, Control_c, 0, 64, 55
2,270619, Note_on_c, 0, 62, 33
2,270717, Control_c, 0, 64, 55
2,270722, Note_on_c, 0, 65, 0
2,270831, Control_c, 0, 64, 54
2,270889, Control_c, 0, 64, 54
2,270928, Control_c, 0, 64, 53
2,270946, Control_c, 0, 64, 53
2,270966, Control_c, 0, 64, 52
2,270985, Control_c, 0, 64, 52
2,271004, Control_c, 0, 64, 51
2,271023, Control_c, 0, 64, 50
2,271043, Control_c, 0, 64, 50
2,271048, Note_on_c, 0, 51, 40
2,271061, Control_c, 0, 64, 49
2,271098, Note_on_c, 0, 50, 0
2,271119, Control_c, 0, 64, 51
2,271137, Control_c, 0, 64, 55
2,271157, Control_c, 0, 64, 58
2,271176, Control_c, 0, 64, 60
2,271196, Control_c, 0, 64, 61
2,271214, Control_c, 0, 64, 61
2,271253, Control_c, 0, 64, 60
2,271272, Control_c, 0, 64, 58
2,271291, Control_c, 0, 64, 53
2,271310, Control_c, 0, 64, 44
2,271330, Control_c, 0, 64, 22
2,271348, Control_c, 0, 64, 0
2,271387, Control_c, 0, 64, 19
2,271407, Control_c, 0, 64, 54
2,271425, Control_c, 0, 64, 66
2,271445, Control_c, 0, 64, 76
2,271464, Control_c, 0, 64, 106
2,271483, Control_c, 0, 64, 127
2,271483, Note_on_c, 0, 53, 46
2,271542, Note_on_c, 0, 62, 0
2,271565, Note_on_c, 0, 51, 0
2,271611, Note_on_c, 0, 46, 0
2,271812, Control_c, 0, 64, 112
2,271830, Control_c, 0, 64, 94
2,271850, Control_c, 0, 64, 78
2,271869, Control_c, 0, 64, 66
2,271888, Control_c, 0, 64, 55
2,271891, Note_on_c, 0, 53, 0
2,271907, Control_c, 0, 64, 44
2,271917, Note_on_c, 0, 44, 37
2,271923, Note_on_c, 0, 62, 39
2,271927, Control_c, 0, 64, 46
2,271946, Control_c, 0, 64, 54
2,271965, Control_c, 0, 64, 60
2,271984, Control_c, 0, 64, 63
2,272004, Control_c, 0, 64, 65
2,272021, Control_c, 0, 64, 66
2,272041, Control_c, 0, 64, 68
2,272060, Control_c, 0, 64, 70
2,272080, Control_c, 0, 64, 71
2,272098, Control_c, 0, 64, 72
2,272118, Control_c, 0, 64, 72
2,272137, Control_c, 0, 64, 73
2,272157, Control_c, 0, 64, 73
2,272214, Control_c, 0, 64, 74
2,272232, Control_c, 0, 64, 73
2,272252, Control_c, 0, 64, 73
2,272271, Control_c, 0, 64, 70
2,272291, Control_c, 0, 64, 65
2,272309, Control_c, 0, 64, 61
2,272318, Note_on_c, 0, 44, 0
2,272329, Control_c, 0, 64, 56
2,272338, Note_on_c, 0, 42, 42
2,272338, Note_on_c, 0, 63, 49
2,272348, Note_on_c, 0, 54, 39
2,272368, Control_c, 0, 64, 59
2,272386, Control_c, 0, 64, 62
2,272406, Control_c, 0, 64, 64
2,272410, Note_on_c, 0, 62, 0
2,272425, Control_c, 0, 64, 66
2,272444, Control_c, 0, 64, 69
2,272463, Control_c, 0, 64, 72
2,272483, Control_c, 0, 64, 77
2,272502, Control_c, 0, 64, 79
2,272540, Control_c, 0, 64, 78
2,272578, Note_on_c, 0, 54, 0
2,272600, Control_c, 0, 64, 78
2,272696, Control_c, 0, 64, 76
2,272715, Control_c, 0, 64, 72
2,272734, Control_c, 0, 64, 66
2,272740, Note_on_c, 0, 42, 0
2,272753, Control_c, 0, 64, 60
2,272759, Note_on_c, 0, 65, 47
2,272765, Note_on_c, 0, 56, 55
2,272765, Note_on_c, 0, 63, 0
2,272773, Control_c, 0, 64, 55
2,272776, Note_on_c, 0, 41, 33
2,272811, Control_c, 0, 64, 59
2,272830, Control_c, 0, 64, 62
2,272849, Control_c, 0, 64, 64
2,272868, Control_c, 0, 64, 67
2,272881, Note_on_c, 0, 56, 0
2,272888, Control_c, 0, 64, 70
2,272907, Control_c, 0, 64, 72
2,272926, Control_c, 0, 64, 75
2,272945, Control_c, 0, 64, 76
2,272956, Note_on_c, 0, 65, 0
2,273155, Note_on_c, 0, 41, 0
2,273156, Control_c, 0, 64, 76
2,273175, Control_c, 0, 64, 73
2,273183, Note_on_c, 0, 39, 44
2,273193, Control_c, 0, 64, 69
2,273209, Note_on_c, 0, 66, 53
2,273213, Control_c, 0, 64, 63
2,273232, Control_c, 0, 64, 55
2,273252, Control_c, 0, 64, 41
2,273262, Note_on_c, 0, 58, 20
2,273270, Control_c, 0, 64, 34
2,273290, Control_c, 0, 64, 36
2,273309, Control_c, 0, 64, 50
2,273328, Control_c, 0, 64, 59
2,273347, Control_c, 0, 64, 63
2,273367, Control_c, 0, 64, 64
2,273386, Control_c, 0, 64, 66
2,273405, Control_c, 0, 64, 67
2,273424, Control_c, 0, 64, 69
2,273444, Control_c, 0, 64, 72
2,273462, Control_c, 0, 64, 73
2,273482, Control_c, 0, 64, 75
2,273491, Note_on_c, 0, 58, 0
2,273501, Control_c, 0, 64, 75
2,273599, Control_c, 0, 64, 76
2,273620, Note_on_c, 0, 58, 48
2,273636, Note_on_c, 0, 49, 47
2,273642, Note_on_c, 0, 67, 54
2,273657, Control_c, 0, 64, 77
2,273676, Control_c, 0, 64, 78
2,273688, Note_on_c, 0, 39, 0
2,273695, Control_c, 0, 64, 81
2,273715, Control_c, 0, 64, 84
2,273733, Control_c, 0, 64, 88
2,273745, Note_on_c, 0, 66, 0
2,273752, Control_c, 0, 64, 91
2,273772, Control_c, 0, 64, 93
2,273777, Note_on_c, 0, 67, 0
2,273789, Note_on_c, 0, 58, 0
2,273791, Control_c, 0, 64, 94
2,273867, Control_c, 0, 64, 94
2,273906, Control_c, 0, 64, 95
2,273942, Control_c, 0, 64, 96
2,274000, Control_c, 0, 64, 93
2,274000, Control_c, 0, 67, 127
2,274018, Control_c, 0, 64, 83
2,274038, Control_c, 0, 64, 72
2,274038, Control_c, 0, 67, 126
2,274052, Note_on_c, 0, 68, 71
2,274057, Control_c, 0, 64, 64
2,274057, Control_c, 0, 67, 125
2,274063, Note_on_c, 0, 47, 57
2,274077, Control_c, 0, 64, 56
2,274077, Control_c, 0, 67, 123
2,274078, Note_on_c, 0, 59, 55
2,274095, Control_c, 0, 64, 53
2,274095, Control_c, 0, 67, 119
2,274115, Control_c, 0, 64, 56
2,274115, Control_c, 0, 67, 117
2,274134, Control_c, 0, 64, 61
2,274134, Control_c, 0, 67, 115
2,274136, Note_on_c, 0, 49, 0
2,274152, Control_c, 0, 64, 64
2,274152, Control_c, 0, 67, 115
2,274172, Control_c, 0, 64, 66
2,274172, Control_c, 0, 67, 114
2,274191, Control_c, 0, 64, 68
2,274191, Control_c, 0, 67, 113
2,274211, Control_c, 0, 64, 71
2,274229, Control_c, 0, 64, 73
2,274249, Control_c, 0, 64, 75
2,274249, Control_c, 0, 67, 113
2,274268, Control_c, 0, 64, 75
2,274306, Control_c, 0, 64, 76
2,274306, Control_c, 0, 67, 112
2,274345, Control_c, 0, 64, 76
2,274364, Control_c, 0, 64, 77
2,274403, Control_c, 0, 64, 76
2,274403, Control_c, 0, 67, 113
2,274420, Note_on_c, 0, 59, 0
2,274422, Control_c, 0, 64, 71
2,274441, Control_c, 0, 64, 65
2,274460, Control_c, 0, 64, 61
2,274464, Note_on_c, 0, 46, 61
2,274476, Note_on_c, 0, 70, 70
2,274477, Control_c, 0, 64, 58
2,274477, Control_c, 0, 67, 112
2,274490, Note_on_c, 0, 61, 62
2,274496, Control_c, 0, 64, 59
2,274514, Note_on_c, 0, 47, 0
2,274516, Control_c, 0, 64, 63
2,274535, Control_c, 0, 64, 66
2,274555, Control_c, 0, 64, 71
2,274555, Control_c, 0, 67, 113
2,274573, Control_c, 0, 64, 80
2,274593, Control_c, 0, 64, 92
2,274595, Note_on_c, 0, 68, 0
2,274612, Control_c, 0, 64, 100
2,274612, Control_c, 0, 67, 113
2,274613, Note_on_c, 0, 61, 0
2,274631, Control_c, 0, 64, 100
2,274650, Control_c, 0, 64, 100
2,274653, Note_on_c, 0, 70, 0
2,274670, Control_c, 0, 64, 98
2,274689, Control_c, 0, 64, 97
2,274708, Control_c, 0, 64, 96
2,274727, Control_c, 0, 64, 94
2,274765, Control_c, 0, 67, 114
2,274785, Control_c, 0, 64, 95
2,274785, Control_c, 0, 67, 115
2,274804, Control_c, 0, 64, 96
2,274824, Control_c, 0, 64, 96
2,274842, Control_c, 0, 64, 97
2,274861, Control_c, 0, 64, 98
2,274898, Control_c, 0, 64, 97
2,274916, Control_c, 0, 64, 93
2,274928, Note_on_c, 0, 71, 80
2,274929, Note_on_c, 0, 44, 66
2,274935, Control_c, 0, 64, 84
2,274955, Control_c, 0, 64, 71
2,274960, Note_on_c, 0, 63, 56
2,274967, Note_on_c, 0, 46, 0
2,274974, Control_c, 0, 64, 61
2,274993, Control_c, 0, 64, 36
2,275012, Control_c, 0, 64, 0
2,275070, Control_c, 0, 67, 114
2,275089, Control_c, 0, 67, 114
2,275109, Control_c, 0, 64, 45
2,275109, Control_c, 0, 67, 113
2,275127, Control_c, 0, 64, 58
2,275127, Control_c, 0, 67, 113
2,275147, Control_c, 0, 64, 62
2,275166, Control_c, 0, 64, 64
2,275185, Control_c, 0, 64, 66
2,275204, Control_c, 0, 64, 68
2,275204, Control_c, 0, 67, 113
2,275224, Control_c, 0, 64, 71
2,275243, Control_c, 0, 64, 76
2,275243, Control_c, 0, 67, 113
2,275261, Control_c, 0, 64, 79
2,275261, Note_on_c, 0, 63, 0
2,275281, Control_c, 0, 64, 80
2,275281, Control_c, 0, 67, 111
2,275300, Control_c, 0, 64, 76
2,275300, Control_c, 0, 67, 109
2,275320, Control_c, 0, 64, 69
2,275320, Control_c, 0, 67, 104
2,275338, Control_c, 0, 64, 64
2,275338, Control_c, 0, 67, 93
2,275358, Control_c, 0, 64, 62
2,275358, Control_c, 0, 67, 75
2,275370, Note_on_c, 0, 72, 79
2,275377, Control_c, 0, 64, 63
2,275377, Control_c, 0, 67, 56
2,275378, Note_on_c, 0, 63, 67
2,275379, Note_on_c, 0, 54, 76
2,275396, Control_c, 0, 64, 65
2,275396, Control_c, 0, 67, 43
2,275415, Control_c, 0, 64, 67
2,275415, Control_c, 0, 67, 34
2,275435, Control_c, 0, 64, 70
2,275435, Control_c, 0, 67, 31
2,275440, Note_on_c, 0, 71, 0
2,275455, Control_c, 0, 64, 72
2,275455, Control_c, 0, 67, 29
2,275474, Control_c, 0, 64, 73
2,275474, Control_c, 0, 67, 24
2,275493, Control_c, 0, 67, 17
2,275513, Control_c, 0, 67, 9
2,275524, Note_on_c, 0, 63, 0
2,275531, Control_c, 0, 64, 74
2,275531, Control_c, 0, 67, 0
2,275547, Note_on_c, 0, 72, 0
2,275685, Control_c, 0, 64, 74
2,275724, Control_c, 0, 64, 74
2,275762, Control_c, 0, 64, 74
2,275781, Control_c, 0, 64, 75
2,275800, Control_c, 0, 64, 77
2,275834, Note_on_c, 0, 53, 79
2,275839, Control_c, 0, 64, 73
2,275839, Note_on_c, 0, 54, 0
2,275841, Note_on_c, 0, 74, 83
2,275858, Control_c, 0, 64, 66
2,275860, Note_on_c, 0, 65, 62
2,275877, Control_c, 0, 64, 53
2,275896, Control_c, 0, 64, 0
2,275935, Control_c, 0, 64, 24
2,275954, Control_c, 0, 64, 48
2,275973, Control_c, 0, 64, 59
2,275993, Control_c, 0, 64, 62
2,276011, Control_c, 0, 64, 63
2,276031, Control_c, 0, 64, 64
2,276050, Control_c, 0, 64, 64
2,276070, Control_c, 0, 64, 65
2,276088, Control_c, 0, 64, 66
2,276108, Control_c, 0, 64, 66
2,276121, Note_on_c, 0, 65, 0
2,276127, Control_c, 0, 64, 67
2,276204, Control_c, 0, 64, 67
2,276221, Note_on_c, 0, 44, 0
2,276222, Control_c, 0, 64, 68
2,276242, Control_c, 0, 64, 69
2,276261, Control_c, 0, 64, 70
2,276319, Control_c, 0, 64, 70
2,276357, Control_c, 0, 64, 71
2,276367, Note_on_c, 0, 51, 74
2,276372, Note_on_c, 0, 75, 89
2,276376, Control_c, 0, 64, 70
2,276378, Note_on_c, 0, 66, 76
2,276396, Control_c, 0, 64, 68
2,276408, Note_on_c, 0, 74, 0
2,276409, Note_on_c, 0, 53, 0
2,276413, Control_c, 0, 64, 64
2,276432, Control_c, 0, 64, 56
2,276451, Control_c, 0, 64, 41
2,276471, Control_c, 0, 64, 26
2,276509, Control_c, 0, 64, 36
2,276528, Control_c, 0, 64, 50
2,276548, Control_c, 0, 64, 58
2,276566, Control_c, 0, 64, 61
2,276586, Control_c, 0, 64, 62
2,276605, Control_c, 0, 64, 63
2,276625, Control_c, 0, 64, 64
2,276643, Control_c, 0, 64, 65
2,276662, Control_c, 0, 64, 66
2,276682, Control_c, 0, 64, 67
2,276700, Control_c, 0, 64, 67
2,276720, Control_c, 0, 64, 68
2,276759, Control_c, 0, 64, 68
2,276777, Control_c, 0, 64, 69
2,276797, Control_c, 0, 64, 70
2,276815, Control_c, 0, 64, 71
2,276830, Note_on_c, 0, 66, 0
2,276835, Control_c, 0, 64, 72
2,276850, Note_on_c, 0, 75, 0
2,276892, Control_c, 0, 64, 71
2,276930, Control_c, 0, 64, 71
2,276950, Control_c, 0, 64, 70
2,276951, Note_on_c, 0, 58, 74
2,276954, Note_on_c, 0, 75, 92
2,276969, Control_c, 0, 64, 69
2,276970, Note_on_c, 0, 65, 67
2,276988, Control_c, 0, 64, 67
2,277007, Control_c, 0, 64, 63
2,277027, Control_c, 0, 64, 57
2,277045, Control_c, 0, 64, 51
2,277065, Control_c, 0, 64, 46
2,277084, Control_c, 0, 64, 41
2,277103, Control_c, 0, 64, 40
2,277125, Note_on_c, 0, 51, 0
2,277161, Control_c, 0, 64, 40
2,277179, Control_c, 0, 64, 41
2,277199, Control_c, 0, 64, 42
2,277218, Control_c, 0, 64, 44
2,277238, Control_c, 0, 64, 46
2,277256, Control_c, 0, 64, 47
2,277276, Control_c, 0, 64, 47
2,277333, Control_c, 0, 64, 48
2,277353, Control_c, 0, 64, 48
2,277373, Control_c, 0, 64, 49
2,277392, Control_c, 0, 64, 49
2,277411, Control_c, 0, 64, 51
2,277431, Control_c, 0, 64, 53
2,277434, Note_on_c, 0, 71, 77
2,277450, Control_c, 0, 64, 57
2,277469, Control_c, 0, 64, 60
2,277488, Control_c, 0, 64, 62
2,277508, Control_c, 0, 64, 63
2,277526, Control_c, 0, 64, 64
2,277546, Control_c, 0, 64, 65
2,277565, Control_c, 0, 64, 67
2,277585, Control_c, 0, 64, 68
2,277603, Control_c, 0, 64, 70
2,277612, Note_on_c, 0, 75, 0
2,277622, Control_c, 0, 64, 72
2,277642, Control_c, 0, 64, 74
2,277660, Control_c, 0, 64, 75
2,277680, Control_c, 0, 64, 76
2,277683, Note_on_c, 0, 71, 0
2,277811, Control_c, 0, 64, 75
2,277870, Control_c, 0, 64, 75
2,277946, Control_c, 0, 64, 74
2,277960, Note_on_c, 0, 46, 65
2,277965, Control_c, 0, 64, 70
2,277966, Note_on_c, 0, 74, 79
2,277985, Control_c, 0, 64, 65
2,277990, Note_on_c, 0, 70, 65
2,278004, Control_c, 0, 64, 58
2,278022, Control_c, 0, 64, 46
2,278042, Control_c, 0, 64, 35
2,278061, Control_c, 0, 64, 32
2,278070, Note_on_c, 0, 58, 0
2,278080, Control_c, 0, 64, 36
2,278099, Control_c, 0, 64, 48
2,278119, Control_c, 0, 64, 59
2,278138, Control_c, 0, 64, 62
2,278157, Control_c, 0, 64, 64
2,278176, Control_c, 0, 64, 65
2,278196, Control_c, 0, 64, 65
2,278273, Control_c, 0, 64, 66
2,278392, Control_c, 0, 64, 66
2,278487, Control_c, 0, 64, 66
2,278603, Control_c, 0, 64, 65
2,278621, Control_c, 0, 64, 64
2,278638, Control_c, 0, 64, 62
2,278638, Note_on_c, 0, 68, 74
2,278658, Control_c, 0, 64, 57
2,278677, Control_c, 0, 64, 51
2,278691, Note_on_c, 0, 65, 0
2,278696, Control_c, 0, 64, 48
2,278704, Note_on_c, 0, 70, 0
2,278715, Control_c, 0, 64, 49
2,278735, Control_c, 0, 64, 54
2,278753, Control_c, 0, 64, 59
2,278772, Control_c, 0, 64, 63
2,278792, Control_c, 0, 64, 66
2,278811, Control_c, 0, 64, 69
2,278830, Control_c, 0, 64, 75
2,278849, Control_c, 0, 64, 82
2,278869, Control_c, 0, 64, 91
2,278887, Control_c, 0, 64, 100
2,278907, Control_c, 0, 64, 104
2,278926, Control_c, 0, 64, 106
2,278946, Control_c, 0, 64, 107
2,278959, Note_on_c, 0, 46, 0
2,278964, Control_c, 0, 64, 109
2,278984, Control_c, 0, 64, 111
2,279003, Control_c, 0, 64, 115
2,279022, Control_c, 0, 64, 121
2,279041, Control_c, 0, 64, 127
2,279056, Note_on_c, 0, 68, 0
2,279108, Note_on_c, 0, 74, 0
2,279521, Control_c, 0, 64, 123
2,279560, Control_c, 0, 64, 121
2,279695, Control_c, 0, 64, 119
2,279732, Control_c, 0, 64, 118
2,279752, Control_c, 0, 64, 117
2,279771, Control_c, 0, 64, 116
2,279809, Control_c, 0, 64, 115
2,279829, Control_c, 0, 64, 114
2,279847, Control_c, 0, 64, 113
2,279867, Control_c, 0, 64, 110
2,279875, Note_on_c, 0, 75, 79
2,279886, Control_c, 0, 64, 105
2,279890, Note_on_c, 0, 39, 43
2,279906, Control_c, 0, 64, 99
2,279910, Note_on_c, 0, 67, 49
2,279924, Control_c, 0, 64, 92
2,279944, Control_c, 0, 64, 84
2,279963, Control_c, 0, 64, 74
2,279982, Control_c, 0, 64, 67
2,280001, Control_c, 0, 64, 61
2,280021, Control_c, 0, 64, 56
2,280039, Control_c, 0, 64, 53
2,280056, Control_c, 0, 64, 52
2,280075, Control_c, 0, 64, 50
2,280095, Control_c, 0, 64, 48
2,280114, Control_c, 0, 64, 44
2,280133, Control_c, 0, 64, 40
2,280152, Control_c, 0, 64, 37
2,280172, Control_c, 0, 64, 36
2,280345, Control_c, 0, 64, 35
2,280439, Control_c, 0, 64, 36
2,280477, Control_c, 0, 64, 37
2,280496, Control_c, 0, 64, 38
2,280516, Control_c, 0, 64, 41
2,280534, Control_c, 0, 64, 43
2,280548, Control_c, 0, 64, 45
2,280567, Control_c, 0, 64, 47
2,280586, Control_c, 0, 64, 48
2,280605, Control_c, 0, 64, 50
2,280625, Control_c, 0, 64, 51
2,280643, Control_c, 0, 64, 52
2,280663, Control_c, 0, 64, 52
2,280932, Control_c, 0, 64, 52
2,281028, Control_c, 0, 64, 52
2,281085, Control_c, 0, 64, 53
2,281563, Control_c, 0, 64, 52
2,281717, Control_c, 0, 64, 52
2,281889, Control_c, 0, 64, 51
2,281966, Control_c, 0, 64, 51
2,282005, Control_c, 0, 64, 50
2,282254, Control_c, 0, 64, 50
2,282350, Control_c, 0, 64, 49
2,282478, Note_on_c, 0, 67, 0
2,282503, Control_c, 0, 64, 49
2,282675, Control_c, 0, 64, 48
2,282694, Note_on_c, 0, 39, 0
2,282752, Control_c, 0, 64, 48
2,282798, Note_on_c, 0, 75, 0
2,282810, Control_c, 0, 64, 47
2,282887, Control_c, 0, 64, 47
2,282964, Control_c, 0, 64, 46
2,283021, Control_c, 0, 64, 46
2,283022, End_track
0, 0, End_of_file
