0, 0, Header, 1, 2, 480
1, 0, Start_track
1, 0, Tempo, 500000
1, 0, Time_signature, 4, 2, 24, 8
1, 1, End_track
2, 0, Start_track
2, 0, Program_c, 0, 0
2, 0, Control_c, 0, 64, 79
2, 0, Control_c, 0, 67, 0
2, 17, Control_c, 0, 64, 79
2, 47, Control_c, 0, 64, 78
2, 86, Control_c, 0, 64, 78
2, 163, Control_c, 0, 64, 77
2, 181, Control_c, 0, 64, 77
2, 201, Control_c, 0, 64, 76
2, 220, Control_c, 0, 64, 75
2, 240, Control_c, 0, 64, 75
2, 256, Control_c, 0, 64, 74
2, 275, Control_c, 0, 64, 73
2, 294, Control_c, 0, 64, 72
2, 314, Control_c, 0, 64, 71
2, 332, Control_c, 0, 64, 70
2, 352, Control_c, 0, 64, 69
2, 371, Control_c, 0, 64, 68
2, 391, Control_c, 0, 64, 66
2, 409, Control_c, 0, 64, 65
2, 429, Control_c, 0, 64, 64
2, 448, Control_c, 0, 64, 64
2, 486, Control_c, 0, 64, 63
2, 643, Control_c, 0, 64, 64
2, 662, Control_c, 0, 64, 64
2, 681, Control_c, 0, 64, 65
2, 700, Control_c, 0, 64, 65
2, 720, Control_c, 0, 64, 66
2, 739, Control_c, 0, 64, 67
2, 758, Control_c, 0, 64, 68
2, 777, Control_c, 0, 64, 69
2, 796, Control_c, 0, 64, 71
2, 815, Control_c, 0, 64, 73
2, 834, Control_c, 0, 64, 77
2, 854, Control_c, 0, 64, 80
2, 873, Control_c, 0, 64, 81
2, 931, Control_c, 0, 64, 81
2, 949, Control_c, 0, 64, 80
2, 964, Note_on_c, 0, 70, 66
2, 969, Control_c, 0, 64, 80
2, 974, Note_on_c, 0, 66, 33
2, 988, Control_c, 0, 64, 79
2, 1008, Control_c, 0, 64, 79
2, 1010, Note_on_c, 0, 63, 20
2, 1026, Control_c, 0, 64, 78
2, 1046, Control_c, 0, 64, 76
2, 1065, Control_c, 0, 64, 74
2, 1084, Control_c, 0, 64, 71
2, 1103, Control_c, 0, 64, 70
2, 1123, Control_c, 0, 64, 68
2, 1161, Control_c, 0, 64, 68
2, 1219, Control_c, 0, 64, 68
2, 1238, Control_c, 0, 64, 69
2, 1257, Control_c, 0, 64, 69
2, 1276, Control_c, 0, 64, 70
2, 1295, Control_c, 0, 64, 70
2, 1314, Control_c, 0, 64, 71
2, 1334, Control_c, 0, 64, 72
2, 1353, Control_c, 0, 64, 74
2, 1372, Control_c, 0, 64, 77
2, 1391, Control_c, 0, 64, 80
2, 1411, Control_c, 0, 64, 82
2, 1429, Control_c, 0, 64, 85
2, 1449, Control_c, 0, 64, 89
2, 1468, Control_c, 0, 64, 95
2, 1488, Control_c, 0, 64, 102
2, 1506, Control_c, 0, 64, 118
2, 1526, Control_c, 0, 64, 127
2, 1547, Note_on_c, 0, 63, 0
2, 1554, Note_on_c, 0, 66, 0
2, 1776, Control_c, 0, 67, 8
2, 1795, Control_c, 0, 67, 11
2, 1815, Control_c, 0, 67, 12
2, 1872, Control_c, 0, 67, 12
2, 1987, Control_c, 0, 67, 12
2, 2026, Control_c, 0, 67, 11
2, 2045, Control_c, 0, 67, 11
2, 2064, Control_c, 0, 67, 10
2, 2103, Control_c, 0, 67, 9
2, 2122, Control_c, 0, 67, 8
2, 2141, Control_c, 0, 67, 8
2, 2161, Control_c, 0, 67, 0
2, 2315, Note_on_c, 0, 63, 39
2, 2325, Note_on_c, 0, 66, 36
2, 2445, Note_on_c, 0, 66, 0
2, 2461, Note_on_c, 0, 63, 0
2, 2942, Note_on_c, 0, 70, 0
2, 2985, Control_c, 0, 67, 8
2, 3005, Control_c, 0, 67, 10
2, 3023, Control_c, 0, 67, 11
2, 3043, Control_c, 0, 67, 13
2, 3062, Control_c, 0, 67, 15
2, 3081, Control_c, 0, 67, 20
2, 3100, Control_c, 0, 67, 35
2, 3120, Control_c, 0, 67, 54
2, 3139, Control_c, 0, 67, 78
2, 3158, Control_c, 0, 67, 101
2, 3177, Control_c, 0, 67, 123
2, 3196, Control_c, 0, 67, 127
2, 3486, Note_on_c, 0, 70, 30
2, 3580, Control_c, 0, 64, 119
2, 3600, Control_c, 0, 64, 98
2, 3619, Control_c, 0, 64, 90
2, 3619, Note_on_c, 0, 75, 39
2, 3630, Note_on_c, 0, 63, 33
2, 3634, Note_on_c, 0, 66, 26
2, 3638, Control_c, 0, 64, 87
2, 3657, Control_c, 0, 64, 84
2, 3673, Control_c, 0, 64, 82
2, 3693, Control_c, 0, 64, 81
2, 3711, Control_c, 0, 64, 82
2, 3731, Control_c, 0, 64, 84
2, 3750, Control_c, 0, 64, 86
2, 3769, Control_c, 0, 64, 88
2, 3788, Control_c, 0, 64, 91
2, 3788, Control_c, 0, 67, 126
2, 3808, Control_c, 0, 64, 94
2, 3808, Control_c, 0, 67, 123
2, 3827, Control_c, 0, 64, 96
2, 3827, Control_c, 0, 67, 120
2, 3846, Control_c, 0, 64, 98
2, 3846, Control_c, 0, 67, 117
2, 3865, Control_c, 0, 64, 102
2, 3865, Control_c, 0, 67, 114
2, 3885, Control_c, 0, 64, 106
2, 3885, Control_c, 0, 67, 111
2, 3904, Control_c, 0, 64, 114
2, 3904, Control_c, 0, 67, 107
2, 3923, Control_c, 0, 64, 127
2, 3923, Control_c, 0, 67, 101
2, 3942, Control_c, 0, 67, 91
2, 3962, Control_c, 0, 67, 80
2, 3980, Control_c, 0, 67, 70
2, 4000, Control_c, 0, 67, 61
2, 4019, Control_c, 0, 67, 56
2, 4039, Control_c, 0, 67, 53
2, 4054, Note_on_c, 0, 75, 0
2, 4057, Control_c, 0, 67, 51
2, 4202, Note_on_c, 0, 63, 0
2, 4217, Note_on_c, 0, 66, 0
2, 4423, Control_c, 0, 67, 51
2, 4442, Note_on_c, 0, 70, 0
2, 4512, Note_on_c, 0, 78, 43
2, 4695, Control_c, 0, 67, 51
2, 4713, Note_on_c, 0, 78, 0
2, 4853, Note_on_c, 0, 68, 38
2, 4875, Note_on_c, 0, 63, 34
2, 4942, Note_on_c, 0, 71, 70
2, 4944, Control_c, 0, 64, 104
2, 4964, Control_c, 0, 64, 84
2, 4983, Control_c, 0, 64, 72
2, 5002, Control_c, 0, 64, 64
2, 5021, Control_c, 0, 64, 56
2, 5041, Control_c, 0, 64, 50
2, 5058, Control_c, 0, 64, 49
2, 5076, Control_c, 0, 64, 50
2, 5096, Control_c, 0, 64, 52
2, 5096, Control_c, 0, 67, 52
2, 5115, Control_c, 0, 64, 54
2, 5134, Control_c, 0, 64, 55
2, 5153, Control_c, 0, 64, 57
2, 5173, Control_c, 0, 64, 59
2, 5192, Control_c, 0, 64, 60
2, 5211, Control_c, 0, 64, 61
2, 5230, Control_c, 0, 64, 62
2, 5250, Control_c, 0, 64, 63
2, 5269, Control_c, 0, 64, 64
2, 5269, Control_c, 0, 67, 51
2, 5288, Control_c, 0, 64, 65
2, 5307, Control_c, 0, 64, 66
2, 5327, Control_c, 0, 64, 68
2, 5345, Control_c, 0, 64, 71
2, 5365, Control_c, 0, 64, 76
2, 5384, Control_c, 0, 64, 82
2, 5404, Control_c, 0, 64, 87
2, 5422, Control_c, 0, 64, 89
2, 5499, Control_c, 0, 67, 52
2, 5538, Control_c, 0, 64, 89
2, 5556, Control_c, 0, 64, 90
2, 5576, Control_c, 0, 64, 91
2, 5595, Control_c, 0, 64, 94
2, 5614, Control_c, 0, 64, 96
2, 5633, Control_c, 0, 64, 98
2, 5633, Control_c, 0, 67, 51
2, 5653, Control_c, 0, 64, 100
2, 5672, Control_c, 0, 64, 100
2, 5691, Control_c, 0, 64, 101
2, 5710, Control_c, 0, 64, 102
2, 5710, Control_c, 0, 67, 51
2, 5730, Control_c, 0, 67, 50
2, 5768, Control_c, 0, 67, 50
2, 5773, Note_on_c, 0, 68, 0
2, 5787, Control_c, 0, 64, 103
2, 5787, Control_c, 0, 67, 49
2, 5807, Control_c, 0, 67, 48
2, 5825, Control_c, 0, 64, 103
2, 5825, Control_c, 0, 67, 47
2, 5834, Note_on_c, 0, 63, 0
2, 5845, Control_c, 0, 67, 40
2, 5852, Note_on_c, 0, 71, 0
2, 5864, Control_c, 0, 67, 33
2, 5884, Control_c, 0, 67, 28
2, 5902, Control_c, 0, 67, 26
2, 5922, Control_c, 0, 67, 26
2, 5979, Control_c, 0, 64, 103
2, 6031, Control_c, 0, 64, 102
2, 6069, Control_c, 0, 67, 26
2, 6108, Control_c, 0, 64, 102
2, 6146, Control_c, 0, 64, 101
2, 6166, Control_c, 0, 64, 101
2, 6166, Control_c, 0, 67, 27
2, 6184, Control_c, 0, 64, 100
2, 6204, Control_c, 0, 64, 99
2, 6223, Control_c, 0, 64, 97
2, 6223, Control_c, 0, 67, 27
2, 6243, Control_c, 0, 64, 96
2, 6275, Note_on_c, 0, 71, 38
2, 6281, Control_c, 0, 64, 96
2, 6281, Note_on_c, 0, 68, 35
2, 6285, Note_on_c, 0, 63, 34
2, 6300, Control_c, 0, 64, 95
2, 6320, Control_c, 0, 64, 95
2, 6338, Control_c, 0, 64, 94
2, 6338, Control_c, 0, 67, 28
2, 6377, Control_c, 0, 67, 28
2, 6415, Control_c, 0, 64, 94
2, 6555, Control_c, 0, 64, 94
2, 6574, Control_c, 0, 64, 95
2, 6613, Control_c, 0, 64, 95
2, 6651, Control_c, 0, 64, 96
2, 6673, Note_on_c, 0, 71, 0
2, 6723, Note_on_c, 0, 63, 0
2, 6724, Note_on_c, 0, 68, 0
2, 6805, Control_c, 0, 64, 96
2, 6882, Control_c, 0, 64, 97
2, 6901, Control_c, 0, 67, 30
2, 6920, Control_c, 0, 67, 32
2, 6939, Control_c, 0, 64, 97
2, 6939, Control_c, 0, 67, 35
2, 6959, Control_c, 0, 67, 37
2, 6978, Control_c, 0, 67, 40
2, 6996, Control_c, 0, 67, 43
2, 7016, Control_c, 0, 67, 48
2, 7035, Control_c, 0, 67, 54
2, 7054, Control_c, 0, 67, 58
2, 7073, Control_c, 0, 67, 64
2, 7093, Control_c, 0, 67, 68
2, 7112, Control_c, 0, 67, 72
2, 7131, Control_c, 0, 67, 75
2, 7150, Control_c, 0, 67, 76
2, 7227, Control_c, 0, 67, 75
2, 7265, Control_c, 0, 67, 75
2, 7285, Control_c, 0, 67, 74
2, 7342, Control_c, 0, 67, 74
2, 7362, Control_c, 0, 67, 73
2, 7370, Note_on_c, 0, 75, 34
2, 7400, Control_c, 0, 67, 73
2, 7419, Control_c, 0, 67, 72
2, 7439, Control_c, 0, 67, 72
2, 7496, Control_c, 0, 67, 71
2, 7516, Control_c, 0, 67, 71
2, 7535, Control_c, 0, 67, 70
2, 7554, Control_c, 0, 67, 70
2, 7579, Note_on_c, 0, 80, 59
2, 7620, Note_on_c, 0, 63, 34
2, 7631, Control_c, 0, 67, 69
2, 7632, Note_on_c, 0, 68, 35
2, 7634, Note_on_c, 0, 71, 31
2, 7689, Control_c, 0, 67, 69
2, 7708, Control_c, 0, 67, 68
2, 7728, Control_c, 0, 64, 98
2, 7785, Control_c, 0, 64, 98
2, 7810, Note_on_c, 0, 71, 0
2, 7822, Note_on_c, 0, 68, 0
2, 7834, Note_on_c, 0, 80, 0
2, 7843, Control_c, 0, 64, 99
2, 7843, Note_on_c, 0, 75, 0
2, 7866, Note_on_c, 0, 63, 0
2, 7920, Control_c, 0, 64, 99
2, 7976, Control_c, 0, 64, 100
2, 8149, Control_c, 0, 67, 69
2, 8225, Control_c, 0, 67, 69
2, 8629, Note_on_c, 0, 83, 51
2, 8725, Note_on_c, 0, 83, 0
2, 8744, Control_c, 0, 64, 99
2, 8764, Control_c, 0, 64, 99
2, 8782, Control_c, 0, 67, 70
2, 8802, Control_c, 0, 64, 98
2, 8821, Control_c, 0, 64, 98
2, 8840, Control_c, 0, 64, 97
2, 8879, Control_c, 0, 64, 96
2, 8917, Control_c, 0, 67, 70
2, 8937, Control_c, 0, 64, 96
2, 8956, Control_c, 0, 64, 95
2, 8975, Control_c, 0, 64, 95
2, 8975, Control_c, 0, 67, 71
2, 9014, Control_c, 0, 64, 94
2, 9052, Control_c, 0, 64, 94
2, 9067, Note_on_c, 0, 68, 41
2, 9071, Control_c, 0, 64, 93
2, 9076, Note_on_c, 0, 63, 41
2, 9089, Note_on_c, 0, 65, 33
2, 9091, Control_c, 0, 64, 91
2, 9100, Note_on_c, 0, 74, 66
2, 9109, Control_c, 0, 64, 91
2, 9129, Control_c, 0, 64, 90
2, 9148, Control_c, 0, 64, 88
2, 9168, Control_c, 0, 64, 84
2, 9168, Control_c, 0, 67, 71
2, 9186, Control_c, 0, 64, 79
2, 9206, Control_c, 0, 64, 74
2, 9225, Control_c, 0, 64, 67
2, 9245, Control_c, 0, 64, 63
2, 9263, Control_c, 0, 64, 61
2, 9283, Control_c, 0, 64, 60
2, 9302, Control_c, 0, 64, 60
2, 9321, Control_c, 0, 64, 59
2, 9340, Control_c, 0, 64, 58
2, 9360, Control_c, 0, 64, 56
2, 9379, Control_c, 0, 64, 55
2, 9397, Control_c, 0, 64, 54
2, 9498, Control_c, 0, 67, 71
2, 9516, Control_c, 0, 67, 70
2, 9536, Control_c, 0, 64, 55
2, 9536, Control_c, 0, 67, 70
2, 9555, Control_c, 0, 64, 56
2, 9574, Control_c, 0, 64, 57
2, 9574, Control_c, 0, 67, 69
2, 9593, Control_c, 0, 64, 59
2, 9593, Control_c, 0, 67, 68
2, 9613, Control_c, 0, 64, 59
2, 9613, Control_c, 0, 67, 67
2, 9632, Control_c, 0, 64, 60
2, 9632, Control_c, 0, 67, 66
2, 9651, Control_c, 0, 64, 61
2, 9651, Control_c, 0, 67, 65
2, 9670, Control_c, 0, 64, 62
2, 9690, Control_c, 0, 64, 63
2, 9690, Control_c, 0, 67, 63
2, 9709, Control_c, 0, 64, 64
2, 9728, Control_c, 0, 64, 65
2, 9728, Control_c, 0, 67, 63
2, 9747, Control_c, 0, 64, 66
2, 9767, Control_c, 0, 64, 68
2, 9767, Control_c, 0, 67, 62
2, 9785, Control_c, 0, 64, 71
2, 9805, Control_c, 0, 64, 75
2, 9824, Control_c, 0, 64, 80
2, 9844, Control_c, 0, 64, 86
2, 9862, Control_c, 0, 64, 91
2, 9882, Control_c, 0, 64, 95
2, 9901, Control_c, 0, 64, 97
2, 9920, Control_c, 0, 64, 98
2, 9920, Control_c, 0, 67, 63
2, 9939, Control_c, 0, 64, 99
2, 9939, Control_c, 0, 67, 63
2, 9958, Control_c, 0, 64, 100
2, 9958, Control_c, 0, 67, 64
2, 9978, Control_c, 0, 67, 65
2, 9983, Note_on_c, 0, 68, 0
2, 9996, Control_c, 0, 67, 65
2, 10016, Control_c, 0, 64, 100
2, 10016, Control_c, 0, 67, 66
2, 10035, Control_c, 0, 64, 101
2, 10035, Control_c, 0, 67, 67
2, 10054, Control_c, 0, 67, 68
2, 10073, Control_c, 0, 67, 70
2, 10081, Note_on_c, 0, 65, 0
2, 10093, Control_c, 0, 67, 71
2, 10112, Control_c, 0, 67, 73
2, 10131, Control_c, 0, 67, 74
2, 10139, Note_on_c, 0, 63, 0
2, 10150, Control_c, 0, 67, 76
2, 10170, Control_c, 0, 67, 78
2, 10189, Control_c, 0, 67, 82
2, 10208, Control_c, 0, 64, 100
2, 10208, Control_c, 0, 67, 92
2, 10227, Control_c, 0, 64, 100
2, 10227, Control_c, 0, 67, 106
2, 10247, Control_c, 0, 67, 123
2, 10265, Control_c, 0, 67, 127
2, 10342, Control_c, 0, 64, 99
2, 10362, Control_c, 0, 64, 99
2, 10420, Control_c, 0, 64, 98
2, 10440, Control_c, 0, 64, 98
2, 10459, Control_c, 0, 64, 97
2, 10477, Control_c, 0, 64, 97
2, 10497, Control_c, 0, 64, 96
2, 10535, Control_c, 0, 64, 96
2, 10554, Control_c, 0, 64, 95
2, 10593, Control_c, 0, 64, 94
2, 10612, Control_c, 0, 64, 94
2, 10631, Control_c, 0, 64, 92
2, 10643, Note_on_c, 0, 62, 31
2, 10646, Note_on_c, 0, 68, 34
2, 10651, Control_c, 0, 64, 91
2, 10654, Note_on_c, 0, 65, 26
2, 10669, Control_c, 0, 64, 90
2, 10689, Control_c, 0, 64, 89
2, 10708, Control_c, 0, 64, 86
2, 10728, Control_c, 0, 64, 83
2, 10746, Control_c, 0, 64, 78
2, 10766, Control_c, 0, 64, 74
2, 10785, Control_c, 0, 64, 71
2, 10805, Control_c, 0, 64, 68
2, 10819, Control_c, 0, 64, 66
2, 10837, Control_c, 0, 64, 65
2, 10857, Control_c, 0, 64, 64
2, 10876, Control_c, 0, 64, 63
2, 10895, Control_c, 0, 64, 63
2, 10953, Control_c, 0, 64, 62
2, 11011, Control_c, 0, 64, 63
2, 11088, Control_c, 0, 64, 62
2, 11106, Control_c, 0, 64, 61
2, 11126, Control_c, 0, 64, 58
2, 11145, Control_c, 0, 64, 51
2, 11165, Control_c, 0, 64, 35
2, 11183, Control_c, 0, 64, 0
2, 11337, Control_c, 0, 64, 44
2, 11357, Control_c, 0, 64, 59
2, 11376, Control_c, 0, 64, 64
2, 11395, Control_c, 0, 64, 67
2, 11415, Control_c, 0, 64, 72
2, 11434, Control_c, 0, 64, 81
2, 11453, Control_c, 0, 64, 91
2, 11472, Control_c, 0, 64, 99
2, 11492, Control_c, 0, 64, 103
2, 11510, Control_c, 0, 64, 107
2, 11530, Control_c, 0, 64, 109
2, 11548, Note_on_c, 0, 68, 0
2, 11549, Control_c, 0, 64, 110
2, 11550, Note_on_c, 0, 65, 0
2, 11569, Control_c, 0, 64, 110
2, 11607, Control_c, 0, 64, 111
2, 11626, Control_c, 0, 64, 112
2, 11645, Control_c, 0, 64, 112
2, 11666, Note_on_c, 0, 77, 45
2, 11684, Note_on_c, 0, 62, 0
2, 11685, Note_on_c, 0, 74, 0
2, 11731, Note_on_c, 0, 77, 0
2, 11778, Control_c, 0, 64, 112
2, 11835, Control_c, 0, 64, 111
2, 11854, Control_c, 0, 64, 110
2, 11873, Control_c, 0, 64, 108
2, 11893, Control_c, 0, 64, 108
2, 11931, Control_c, 0, 64, 106
2, 11950, Control_c, 0, 64, 104
2, 11970, Control_c, 0, 64, 101
2, 11989, Control_c, 0, 64, 99
2, 12008, Control_c, 0, 64, 98
2, 12027, Control_c, 0, 64, 97
2, 12047, Control_c, 0, 64, 95
2, 12065, Control_c, 0, 64, 93
2, 12075, Note_on_c, 0, 65, 28
2, 12077, Note_on_c, 0, 62, 34
2, 12085, Control_c, 0, 64, 91
2, 12104, Control_c, 0, 64, 89
2, 12124, Control_c, 0, 64, 84
2, 12138, Note_on_c, 0, 68, 47
2, 12142, Control_c, 0, 64, 76
2, 12162, Control_c, 0, 64, 67
2, 12181, Control_c, 0, 64, 61
2, 12200, Control_c, 0, 64, 58
2, 12219, Control_c, 0, 64, 59
2, 12238, Control_c, 0, 64, 62
2, 12258, Control_c, 0, 64, 64
2, 12276, Control_c, 0, 64, 66
2, 12296, Control_c, 0, 64, 69
2, 12314, Control_c, 0, 64, 73
2, 12332, Note_on_c, 0, 68, 0
2, 12334, Control_c, 0, 64, 79
2, 12352, Control_c, 0, 64, 85
2, 12372, Control_c, 0, 64, 89
2, 12382, Note_on_c, 0, 70, 53
2, 12391, Control_c, 0, 64, 91
2, 12410, Control_c, 0, 64, 92
2, 12447, Note_on_c, 0, 70, 0
2, 12496, Note_on_c, 0, 68, 49
2, 12535, Note_on_c, 0, 68, 0
2, 12564, Control_c, 0, 64, 91
2, 12574, Note_on_c, 0, 70, 43
2, 12621, Control_c, 0, 64, 91
2, 12652, Note_on_c, 0, 70, 0
2, 12652, Note_on_c, 0, 70, 30
2, 12660, Control_c, 0, 64, 90
2, 12698, Control_c, 0, 64, 90
2, 12717, Control_c, 0, 64, 89
2, 12736, Note_on_c, 0, 68, 44
2, 12737, Control_c, 0, 64, 89
2, 12754, Note_on_c, 0, 70, 0
2, 12794, Control_c, 0, 64, 87
2, 12814, Control_c, 0, 64, 86
2, 12832, Control_c, 0, 64, 85
2, 12845, Note_on_c, 0, 68, 0
2, 12852, Control_c, 0, 64, 84
2, 12871, Control_c, 0, 64, 81
2, 12890, Control_c, 0, 64, 74
2, 12903, Note_on_c, 0, 66, 50
2, 12909, Control_c, 0, 64, 66
2, 12929, Control_c, 0, 64, 59
2, 12967, Control_c, 0, 64, 61
2, 12986, Control_c, 0, 64, 63
2, 12996, Note_on_c, 0, 68, 57
2, 13006, Control_c, 0, 64, 64
2, 13024, Control_c, 0, 64, 67
2, 13044, Control_c, 0, 64, 69
2, 13063, Control_c, 0, 64, 71
2, 13071, Note_on_c, 0, 68, 0
2, 13072, Note_on_c, 0, 65, 0
2, 13083, Control_c, 0, 64, 74
2, 13101, Control_c, 0, 64, 75
2, 13101, Note_on_c, 0, 70, 59
2, 13121, Control_c, 0, 64, 76
2, 13157, Note_on_c, 0, 70, 0
2, 13160, Control_c, 0, 64, 75
2, 13192, Note_on_c, 0, 66, 0
2, 13197, Control_c, 0, 64, 75
2, 13235, Control_c, 0, 64, 74
2, 13241, Note_on_c, 0, 63, 39
2, 13248, Note_on_c, 0, 62, 0
2, 13255, Control_c, 0, 64, 73
2, 13275, Control_c, 0, 64, 72
2, 13294, Control_c, 0, 64, 69
2, 13313, Control_c, 0, 64, 66
2, 13329, Note_on_c, 0, 66, 51
2, 13333, Control_c, 0, 64, 60
2, 13352, Control_c, 0, 64, 44
2, 13371, Control_c, 0, 64, 0
2, 13467, Control_c, 0, 64, 43
2, 13487, Control_c, 0, 64, 59
2, 13505, Control_c, 0, 64, 63
2, 13508, Note_on_c, 0, 66, 0
2, 13525, Control_c, 0, 64, 65
2, 13544, Control_c, 0, 64, 67
2, 13557, Note_on_c, 0, 68, 45
2, 13564, Control_c, 0, 64, 70
2, 13582, Control_c, 0, 64, 73
2, 13602, Control_c, 0, 64, 78
2, 13621, Control_c, 0, 64, 84
2, 13625, Note_on_c, 0, 68, 0
2, 13640, Control_c, 0, 64, 87
2, 13657, Note_on_c, 0, 66, 54
2, 13659, Control_c, 0, 64, 87
2, 13703, Note_on_c, 0, 66, 0
2, 13741, Note_on_c, 0, 68, 62
2, 13779, Note_on_c, 0, 68, 0
2, 13797, Note_on_c, 0, 66, 66
2, 13838, Note_on_c, 0, 66, 0
2, 13865, Note_on_c, 0, 68, 68
2, 13889, Control_c, 0, 64, 88
2, 13977, Note_on_c, 0, 66, 39
2, 13980, Note_on_c, 0, 68, 0
2, 14004, Control_c, 0, 64, 87
2, 14023, Control_c, 0, 64, 84
2, 14043, Control_c, 0, 64, 75
2, 14061, Control_c, 0, 64, 65
2, 14070, Note_on_c, 0, 66, 0
2, 14081, Control_c, 0, 64, 57
2, 14100, Control_c, 0, 64, 54
2, 14120, Control_c, 0, 64, 56
2, 14128, Note_on_c, 0, 65, 49
2, 14138, Control_c, 0, 64, 60
2, 14157, Control_c, 0, 64, 63
2, 14177, Control_c, 0, 64, 66
2, 14188, Note_on_c, 0, 63, 0
2, 14195, Control_c, 0, 64, 67
2, 14215, Control_c, 0, 64, 69
2, 14235, Control_c, 0, 64, 72
2, 14254, Control_c, 0, 64, 75
2, 14273, Control_c, 0, 64, 78
2, 14293, Control_c, 0, 64, 80
2, 14312, Control_c, 0, 64, 82
2, 14313, Note_on_c, 0, 65, 0
2, 14316, Note_on_c, 0, 63, 49
2, 14331, Control_c, 0, 64, 83
2, 14350, Control_c, 0, 64, 85
2, 14358, Note_on_c, 0, 63, 0
2, 14370, Control_c, 0, 64, 85
2, 14389, Control_c, 0, 64, 86
2, 14465, Control_c, 0, 64, 85
2, 14485, Control_c, 0, 64, 85
2, 14504, Control_c, 0, 64, 84
2, 14524, Control_c, 0, 64, 84
2, 14542, Control_c, 0, 64, 83
2, 14561, Note_on_c, 0, 78, 61
2, 14562, Control_c, 0, 64, 82
2, 14581, Control_c, 0, 64, 80
2, 14600, Control_c, 0, 64, 78
2, 14619, Control_c, 0, 64, 76
2, 14638, Control_c, 0, 64, 74
2, 14658, Control_c, 0, 64, 72
2, 14676, Control_c, 0, 64, 69
2, 14696, Control_c, 0, 64, 65
2, 14715, Control_c, 0, 64, 62
2, 14734, Control_c, 0, 64, 58
2, 14753, Control_c, 0, 64, 56
2, 14773, Control_c, 0, 64, 53
2, 14792, Control_c, 0, 64, 51
2, 14811, Control_c, 0, 64, 50
2, 14830, Control_c, 0, 64, 49
2, 14965, Control_c, 0, 64, 50
2, 14984, Control_c, 0, 64, 50
2, 15004, Control_c, 0, 64, 51
2, 15022, Control_c, 0, 64, 52
2, 15042, Control_c, 0, 64, 52
2, 15061, Control_c, 0, 64, 53
2, 15079, Control_c, 0, 64, 53
2, 15099, Control_c, 0, 64, 54
2, 15118, Control_c, 0, 64, 54
2, 15138, Control_c, 0, 64, 55
2, 15156, Control_c, 0, 64, 55
2, 15176, Control_c, 0, 64, 56
2, 15196, Control_c, 0, 64, 57
2, 15215, Control_c, 0, 64, 58
2, 15234, Control_c, 0, 64, 59
2, 15254, Control_c, 0, 64, 60
2, 15254, Control_c, 0, 67, 127
2, 15273, Control_c, 0, 64, 61
2, 15273, Control_c, 0, 67, 125
2, 15292, Control_c, 0, 64, 62
2, 15292, Control_c, 0, 67, 125
2, 15311, Control_c, 0, 64, 62
2, 15331, Control_c, 0, 64, 63
2, 15331, Control_c, 0, 67, 124
2, 15349, Control_c, 0, 64, 64
2, 15349, Control_c, 0, 67, 124
2, 15369, Control_c, 0, 64, 65
2, 15388, Control_c, 0, 64, 66
2, 15388, Control_c, 0, 67, 123
2, 15408, Control_c, 0, 64, 68
2, 15408, Control_c, 0, 67, 123
2, 15426, Control_c, 0, 64, 71
2, 15426, Control_c, 0, 67, 121
2, 15446, Control_c, 0, 64, 77
2, 15446, Control_c, 0, 67, 120
2, 15465, Control_c, 0, 64, 84
2, 15465, Control_c, 0, 67, 119
2, 15485, Control_c, 0, 64, 92
2, 15485, Control_c, 0, 67, 119
2, 15503, Control_c, 0, 64, 98
2, 15523, Control_c, 0, 64, 103
2, 15542, Control_c, 0, 64, 106
2, 15552, Note_on_c, 0, 78, 0
2, 15561, Control_c, 0, 64, 107
2, 15588, Note_on_c, 0, 58, 51
2, 15637, Control_c, 0, 67, 119
2, 15695, Control_c, 0, 64, 107
2, 15714, Control_c, 0, 64, 105
2, 15734, Control_c, 0, 64, 104
2, 15734, Control_c, 0, 67, 120
2, 15753, Control_c, 0, 64, 102
2, 15772, Control_c, 0, 64, 101
2, 15791, Control_c, 0, 64, 100
2, 15811, Control_c, 0, 64, 99
2, 15815, Note_on_c, 0, 66, 37
2, 15829, Control_c, 0, 64, 97
2, 15849, Control_c, 0, 64, 95
2, 15858, Note_on_c, 0, 70, 56
2, 15868, Control_c, 0, 64, 93
2, 15872, Note_on_c, 0, 54, 63
2, 15888, Control_c, 0, 64, 92
2, 15900, Note_on_c, 0, 58, 0
2, 15906, Control_c, 0, 64, 90
2, 15924, Note_on_c, 0, 75, 55
2, 15926, Control_c, 0, 64, 88
2, 15926, Control_c, 0, 67, 119
2, 15945, Control_c, 0, 64, 85
2, 15958, Note_on_c, 0, 78, 62
2, 15965, Control_c, 0, 64, 78
2, 15983, Control_c, 0, 64, 71
2, 16003, Control_c, 0, 64, 65
2, 16003, Control_c, 0, 67, 119
2, 16022, Control_c, 0, 64, 59
2, 16041, Control_c, 0, 64, 53
2, 16041, Control_c, 0, 67, 118
2, 16060, Control_c, 0, 64, 49
2, 16079, Control_c, 0, 64, 49
2, 16117, Control_c, 0, 64, 50
2, 16117, Control_c, 0, 67, 118
2, 16137, Control_c, 0, 64, 51
2, 16137, Control_c, 0, 67, 117
2, 16158, Control_c, 0, 64, 52
2, 16158, Control_c, 0, 67, 117
2, 16177, Control_c, 0, 64, 54
2, 16177, Control_c, 0, 67, 116
2, 16196, Control_c, 0, 64, 55
2, 16196, Control_c, 0, 67, 116
2, 16216, Control_c, 0, 64, 56
2, 16216, Control_c, 0, 67, 113
2, 16234, Control_c, 0, 64, 57
2, 16234, Control_c, 0, 67, 107
2, 16254, Control_c, 0, 64, 58
2, 16254, Control_c, 0, 67, 99
2, 16273, Control_c, 0, 64, 59
2, 16273, Control_c, 0, 67, 89
2, 16293, Control_c, 0, 64, 60
2, 16293, Control_c, 0, 67, 75
2, 16311, Control_c, 0, 64, 61
2, 16311, Control_c, 0, 67, 61
2, 16331, Control_c, 0, 64, 61
2, 16331, Control_c, 0, 67, 49
2, 16350, Control_c, 0, 64, 62
2, 16350, Control_c, 0, 67, 39
2, 16370, Control_c, 0, 64, 63
2, 16370, Control_c, 0, 67, 32
2, 16388, Control_c, 0, 64, 63
2, 16388, Control_c, 0, 67, 27
2, 16408, Control_c, 0, 64, 64
2, 16408, Control_c, 0, 67, 22
2, 16427, Control_c, 0, 64, 65
2, 16427, Control_c, 0, 67, 15
2, 16446, Control_c, 0, 64, 65
2, 16446, Control_c, 0, 67, 9
2, 16465, Control_c, 0, 64, 66
2, 16465, Control_c, 0, 67, 0
2, 16485, Control_c, 0, 64, 67
2, 16504, Control_c, 0, 64, 67
2, 16523, Control_c, 0, 64, 68
2, 16542, Control_c, 0, 64, 69
2, 16562, Control_c, 0, 64, 70
2, 16578, Control_c, 0, 64, 72
2, 16596, Control_c, 0, 64, 75
2, 16616, Control_c, 0, 64, 78
2, 16635, Control_c, 0, 64, 81
2, 16636, Note_on_c, 0, 75, 0
2, 16654, Control_c, 0, 64, 86
2, 16673, Control_c, 0, 64, 89
2, 16693, Control_c, 0, 64, 92
2, 16712, Control_c, 0, 64, 95
2, 16731, Control_c, 0, 64, 97
2, 16744, Note_on_c, 0, 51, 61
2, 16750, Control_c, 0, 64, 99
2, 16770, Control_c, 0, 64, 101
2, 16781, Note_on_c, 0, 78, 0
2, 16789, Control_c, 0, 64, 102
2, 16803, Note_on_c, 0, 66, 0
2, 16808, Control_c, 0, 64, 104
2, 16827, Control_c, 0, 64, 105
2, 16844, Note_on_c, 0, 54, 0
2, 16847, Control_c, 0, 64, 106
2, 16865, Control_c, 0, 64, 108
2, 16885, Control_c, 0, 64, 110
2, 16904, Control_c, 0, 64, 112
2, 16922, Note_on_c, 0, 70, 0
2, 16924, Control_c, 0, 64, 113
2, 16981, Control_c, 0, 64, 114
2, 17076, Control_c, 0, 64, 113
2, 17092, Note_on_c, 0, 51, 0
2, 17118, Note_on_c, 0, 66, 42
2, 17137, Control_c, 0, 64, 112
2, 17156, Control_c, 0, 64, 111
2, 17172, Note_on_c, 0, 70, 43
2, 17176, Control_c, 0, 64, 109
2, 17194, Control_c, 0, 64, 107
2, 17213, Note_on_c, 0, 73, 43
2, 17214, Control_c, 0, 64, 104
2, 17233, Control_c, 0, 64, 101
2, 17253, Control_c, 0, 64, 98
2, 17267, Note_on_c, 0, 46, 50
2, 17271, Control_c, 0, 64, 95
2, 17291, Control_c, 0, 64, 91
2, 17294, Note_on_c, 0, 78, 47
2, 17310, Control_c, 0, 64, 87
2, 17330, Control_c, 0, 64, 82
2, 17348, Control_c, 0, 64, 76
2, 17368, Control_c, 0, 64, 71
2, 17387, Control_c, 0, 64, 66
2, 17406, Control_c, 0, 64, 62
2, 17425, Control_c, 0, 64, 58
2, 17445, Control_c, 0, 64, 56
2, 17464, Control_c, 0, 64, 55
2, 17483, Control_c, 0, 64, 54
2, 17522, Control_c, 0, 64, 54
2, 17555, Control_c, 0, 64, 53
2, 17575, Control_c, 0, 64, 53
2, 17594, Control_c, 0, 64, 52
2, 17614, Control_c, 0, 64, 51
2, 17632, Control_c, 0, 64, 51
2, 17709, Control_c, 0, 64, 51
2, 17729, Control_c, 0, 64, 52
2, 17748, Control_c, 0, 64, 53
2, 17767, Control_c, 0, 64, 54
2, 17786, Control_c, 0, 64, 55
2, 17814, Control_c, 0, 64, 57
2, 17832, Control_c, 0, 64, 58
2, 17852, Control_c, 0, 64, 59
2, 17871, Control_c, 0, 64, 60
2, 17909, Control_c, 0, 64, 60
2, 17968, Control_c, 0, 64, 62
2, 17986, Control_c, 0, 64, 63
2, 18006, Control_c, 0, 64, 64
2, 18025, Control_c, 0, 64, 66
2, 18044, Control_c, 0, 64, 71
2, 18063, Control_c, 0, 64, 81
2, 18063, Control_c, 0, 67, 18
2, 18084, Control_c, 0, 64, 102
2, 18084, Control_c, 0, 67, 40
2, 18102, Control_c, 0, 64, 127
2, 18102, Control_c, 0, 67, 70
2, 18122, Control_c, 0, 67, 106
2, 18141, Control_c, 0, 67, 127
2, 18249, Note_on_c, 0, 46, 0
2, 18520, Note_on_c, 0, 46, 27
2, 18607, Note_on_c, 0, 49, 36
2, 18656, Note_on_c, 0, 54, 31
2, 18679, Control_c, 0, 64, 117
2, 18698, Control_c, 0, 64, 102
2, 18712, Note_on_c, 0, 58, 36
2, 18718, Control_c, 0, 64, 87
2, 18736, Control_c, 0, 64, 76
2, 18756, Control_c, 0, 64, 67
2, 18775, Control_c, 0, 64, 62
2, 18793, Control_c, 0, 64, 59
2, 18813, Control_c, 0, 64, 59
2, 18928, Control_c, 0, 64, 59
2, 18967, Control_c, 0, 64, 60
2, 18986, Control_c, 0, 64, 60
2, 19005, Control_c, 0, 64, 61
2, 19024, Control_c, 0, 64, 62
2, 19045, Control_c, 0, 64, 62
2, 19063, Control_c, 0, 64, 63
2, 19083, Control_c, 0, 64, 64
2, 19102, Control_c, 0, 64, 64
2, 19122, Control_c, 0, 64, 65
2, 19133, Note_on_c, 0, 73, 0
2, 19140, Control_c, 0, 64, 67
2, 19160, Control_c, 0, 64, 68
2, 19179, Control_c, 0, 64, 69
2, 19198, Control_c, 0, 64, 71
2, 19203, Note_on_c, 0, 66, 0
2, 19217, Control_c, 0, 64, 74
2, 19237, Control_c, 0, 64, 76
2, 19256, Control_c, 0, 64, 78
2, 19275, Control_c, 0, 64, 79
2, 19282, Note_on_c, 0, 70, 0
2, 19448, Control_c, 0, 64, 79
2, 19491, Note_on_c, 0, 78, 0
2, 19504, Control_c, 0, 64, 80
2, 19524, Control_c, 0, 64, 81
2, 19543, Control_c, 0, 64, 82
2, 19562, Control_c, 0, 64, 83
2, 19581, Control_c, 0, 64, 83
2, 19639, Control_c, 0, 64, 84
2, 19676, Note_on_c, 0, 78, 49
2, 19766, Note_on_c, 0, 49, 0
2, 19773, Note_on_c, 0, 46, 0
2, 19788, Note_on_c, 0, 54, 0
2, 19838, Note_on_c, 0, 58, 0
2, 19840, Note_on_c, 0, 76, 62
2, 19888, Control_c, 0, 64, 83
2, 19907, Control_c, 0, 64, 83
2, 19946, Control_c, 0, 64, 82
2, 19965, Control_c, 0, 64, 81
2, 19971, Note_on_c, 0, 75, 65
2, 19984, Control_c, 0, 64, 81
2, 20004, Control_c, 0, 64, 80
2, 20012, Note_on_c, 0, 76, 0
2, 20023, Control_c, 0, 64, 79
2, 20042, Control_c, 0, 64, 78
2, 20049, Note_on_c, 0, 46, 41
2, 20061, Control_c, 0, 64, 77
2, 20062, Note_on_c, 0, 78, 0
2, 20081, Control_c, 0, 64, 76
2, 20099, Control_c, 0, 64, 73
2, 20108, Note_on_c, 0, 49, 39
2, 20119, Control_c, 0, 64, 71
2, 20138, Control_c, 0, 64, 68
2, 20157, Note_on_c, 0, 76, 69
2, 20158, Control_c, 0, 64, 64
2, 20168, Note_on_c, 0, 54, 41
2, 20176, Control_c, 0, 64, 60
2, 20196, Control_c, 0, 64, 55
2, 20214, Note_on_c, 0, 58, 39
2, 20215, Control_c, 0, 64, 50
2, 20215, Note_on_c, 0, 75, 0
2, 20233, Control_c, 0, 64, 47
2, 20253, Control_c, 0, 64, 44
2, 20272, Control_c, 0, 64, 42
2, 20292, Control_c, 0, 64, 40
2, 20310, Control_c, 0, 64, 40
2, 20349, Control_c, 0, 64, 39
2, 20483, Control_c, 0, 64, 40
2, 20502, Control_c, 0, 64, 40
2, 20521, Control_c, 0, 64, 41
2, 20540, Control_c, 0, 64, 41
2, 20560, Control_c, 0, 64, 42
2, 20578, Control_c, 0, 64, 43
2, 20598, Control_c, 0, 64, 43
2, 20617, Control_c, 0, 64, 44
2, 20637, Control_c, 0, 64, 45
2, 20655, Control_c, 0, 64, 47
2, 20674, Control_c, 0, 64, 48
2, 20694, Control_c, 0, 64, 50
2, 20712, Control_c, 0, 64, 51
2, 20732, Control_c, 0, 64, 53
2, 20751, Control_c, 0, 64, 55
2, 20771, Control_c, 0, 64, 58
2, 20789, Control_c, 0, 64, 61
2, 20809, Control_c, 0, 64, 63
2, 20828, Control_c, 0, 64, 66
2, 20848, Control_c, 0, 64, 71
2, 20866, Control_c, 0, 64, 82
2, 20886, Control_c, 0, 64, 101
2, 20905, Control_c, 0, 64, 127
2, 21006, Note_on_c, 0, 46, 0
2, 21014, Note_on_c, 0, 49, 0
2, 21057, Note_on_c, 0, 58, 0
2, 21106, Note_on_c, 0, 73, 61
2, 21113, Note_on_c, 0, 54, 0
2, 21122, Note_on_c, 0, 76, 0
2, 21166, Note_on_c, 0, 73, 0
2, 21342, Note_on_c, 0, 47, 43
2, 21433, Control_c, 0, 64, 116
2, 21439, Note_on_c, 0, 51, 30
2, 21453, Control_c, 0, 64, 109
2, 21471, Control_c, 0, 64, 104
2, 21488, Note_on_c, 0, 54, 31
2, 21491, Control_c, 0, 64, 98
2, 21503, Note_on_c, 0, 63, 39
2, 21510, Control_c, 0, 64, 92
2, 21512, Note_on_c, 0, 59, 40
2, 21530, Control_c, 0, 64, 86
2, 21548, Control_c, 0, 64, 81
2, 21559, Note_on_c, 0, 66, 49
2, 21568, Control_c, 0, 64, 76
2, 21587, Control_c, 0, 64, 71
2, 21606, Control_c, 0, 64, 64
2, 21613, Note_on_c, 0, 75, 63
2, 21619, Note_on_c, 0, 71, 40
2, 21625, Control_c, 0, 64, 57
2, 21645, Control_c, 0, 64, 47
2, 21664, Control_c, 0, 64, 36
2, 21683, Control_c, 0, 64, 29
2, 21702, Control_c, 0, 64, 22
2, 21722, Control_c, 0, 64, 19
2, 21740, Control_c, 0, 64, 17
2, 21817, Control_c, 0, 64, 15
2, 21991, Control_c, 0, 64, 18
2, 22010, Control_c, 0, 64, 29
2, 22029, Control_c, 0, 64, 39
2, 22049, Control_c, 0, 64, 47
2, 22068, Control_c, 0, 64, 53
2, 22087, Control_c, 0, 64, 57
2, 22106, Control_c, 0, 64, 60
2, 22126, Control_c, 0, 64, 62
2, 22144, Control_c, 0, 64, 63
2, 22164, Control_c, 0, 64, 65
2, 22183, Control_c, 0, 64, 67
2, 22203, Control_c, 0, 64, 71
2, 22221, Control_c, 0, 64, 78
2, 22239, Note_on_c, 0, 63, 0
2, 22240, Control_c, 0, 64, 89
2, 22260, Control_c, 0, 64, 102
2, 22279, Control_c, 0, 64, 127
2, 22325, Note_on_c, 0, 66, 0
2, 22330, Note_on_c, 0, 71, 0
2, 22351, Note_on_c, 0, 75, 0
2, 22740, Control_c, 0, 64, 118
2, 22759, Control_c, 0, 64, 113
2, 22778, Control_c, 0, 64, 110
2, 22797, Control_c, 0, 64, 108
2, 22817, Control_c, 0, 64, 106
2, 22827, Note_on_c, 0, 66, 41
2, 22835, Control_c, 0, 64, 103
2, 22855, Control_c, 0, 64, 100
2, 22866, Note_on_c, 0, 71, 38
2, 22874, Control_c, 0, 64, 96
2, 22894, Control_c, 0, 64, 92
2, 22902, Note_on_c, 0, 75, 47
2, 22912, Control_c, 0, 64, 87
2, 22932, Control_c, 0, 64, 79
2, 22951, Control_c, 0, 64, 73
2, 22970, Control_c, 0, 64, 68
2, 22989, Control_c, 0, 64, 66
2, 23009, Control_c, 0, 64, 66
2, 23047, Control_c, 0, 64, 66
2, 23086, Control_c, 0, 64, 67
2, 23104, Control_c, 0, 64, 67
2, 23124, Control_c, 0, 64, 67
2, 23200, Control_c, 0, 64, 67
2, 23239, Control_c, 0, 64, 68
2, 23258, Control_c, 0, 64, 70
2, 23277, Control_c, 0, 64, 72
2, 23288, Note_on_c, 0, 59, 0
2, 23297, Control_c, 0, 64, 74
2, 23315, Control_c, 0, 64, 76
2, 23335, Control_c, 0, 64, 78
2, 23354, Control_c, 0, 64, 80
2, 23374, Control_c, 0, 64, 81
2, 23389, Note_on_c, 0, 54, 0
2, 23392, Control_c, 0, 64, 82
2, 23431, Control_c, 0, 64, 83
2, 23469, Control_c, 0, 64, 83
2, 23508, Control_c, 0, 64, 84
2, 23527, Control_c, 0, 64, 84
2, 23575, Note_on_c, 0, 51, 0
2, 23579, Note_on_c, 0, 47, 0
2, 23836, Control_c, 0, 64, 84
2, 23836, Note_on_c, 0, 66, 0
2, 23840, Note_on_c, 0, 75, 0
2, 23955, Note_on_c, 0, 54, 56
2, 23968, Note_on_c, 0, 71, 0
2, 23971, Control_c, 0, 64, 83
2, 24009, Control_c, 0, 64, 83
2, 24048, Note_on_c, 0, 54, 0
2, 24105, Control_c, 0, 64, 82
2, 24170, Note_on_c, 0, 66, 40
2, 24200, Control_c, 0, 64, 82
2, 24203, Note_on_c, 0, 51, 67
2, 24214, Note_on_c, 0, 71, 50
2, 24220, Control_c, 0, 64, 81
2, 24239, Control_c, 0, 64, 81
2, 24258, Control_c, 0, 64, 80
2, 24272, Note_on_c, 0, 75, 57
2, 24276, Control_c, 0, 64, 78
2, 24296, Control_c, 0, 64, 73
2, 24315, Control_c, 0, 64, 69
2, 24335, Control_c, 0, 64, 64
2, 24353, Control_c, 0, 64, 61
2, 24373, Control_c, 0, 64, 59
2, 24392, Control_c, 0, 64, 60
2, 24411, Control_c, 0, 64, 62
2, 24430, Control_c, 0, 64, 63
2, 24430, Control_c, 0, 67, 124
2, 24450, Control_c, 0, 64, 65
2, 24450, Control_c, 0, 67, 122
2, 24469, Control_c, 0, 64, 66
2, 24469, Control_c, 0, 67, 120
2, 24488, Control_c, 0, 64, 68
2, 24488, Control_c, 0, 67, 118
2, 24507, Control_c, 0, 64, 70
2, 24507, Control_c, 0, 67, 116
2, 24527, Control_c, 0, 64, 71
2, 24527, Control_c, 0, 67, 111
2, 24545, Control_c, 0, 64, 72
2, 24545, Control_c, 0, 67, 102
2, 24565, Control_c, 0, 64, 73
2, 24565, Control_c, 0, 67, 92
2, 24584, Control_c, 0, 64, 74
2, 24584, Control_c, 0, 67, 80
2, 24604, Control_c, 0, 64, 75
2, 24604, Control_c, 0, 67, 65
2, 24622, Control_c, 0, 64, 77
2, 24622, Control_c, 0, 67, 48
2, 24642, Control_c, 0, 64, 78
2, 24642, Control_c, 0, 67, 30
2, 24661, Control_c, 0, 64, 79
2, 24661, Control_c, 0, 67, 14
2, 24679, Control_c, 0, 64, 80
2, 24679, Control_c, 0, 67, 0
2, 24684, Note_on_c, 0, 66, 0
2, 24699, Control_c, 0, 64, 81
2, 24718, Control_c, 0, 64, 82
2, 24738, Control_c, 0, 64, 84
2, 24756, Control_c, 0, 64, 86
2, 24776, Control_c, 0, 64, 89
2, 24796, Control_c, 0, 64, 90
2, 24815, Control_c, 0, 64, 91
2, 24834, Control_c, 0, 64, 92
2, 24854, Control_c, 0, 64, 93
2, 24873, Control_c, 0, 64, 95
2, 24892, Control_c, 0, 64, 97
2, 24894, Note_on_c, 0, 71, 0
2, 24911, Control_c, 0, 64, 98
2, 24931, Control_c, 0, 64, 100
2, 24949, Control_c, 0, 64, 101
2, 24967, Note_on_c, 0, 75, 0
2, 24969, Control_c, 0, 64, 103
2, 24988, Control_c, 0, 64, 104
2, 25026, Control_c, 0, 64, 105
2, 25046, Control_c, 0, 64, 106
2, 25065, Control_c, 0, 64, 108
2, 25085, Control_c, 0, 64, 110
2, 25103, Control_c, 0, 64, 112
2, 25117, Note_on_c, 0, 47, 63
2, 25123, Control_c, 0, 64, 114
2, 25142, Control_c, 0, 64, 116
2, 25153, Note_on_c, 0, 51, 0
2, 25160, Control_c, 0, 64, 117
2, 25180, Control_c, 0, 64, 118
2, 25199, Control_c, 0, 64, 119
2, 25235, Control_c, 0, 64, 121
2, 25274, Control_c, 0, 64, 123
2, 25294, Control_c, 0, 64, 127
2, 25429, Note_on_c, 0, 70, 65
2, 25504, Note_on_c, 0, 47, 0
2, 25519, Note_on_c, 0, 75, 62
2, 25563, Control_c, 0, 64, 121
2, 25581, Control_c, 0, 64, 117
2, 25600, Control_c, 0, 64, 114
2, 25620, Control_c, 0, 64, 110
2, 25632, Note_on_c, 0, 43, 64
2, 25639, Control_c, 0, 64, 106
2, 25658, Control_c, 0, 64, 102
2, 25677, Control_c, 0, 64, 98
2, 25697, Control_c, 0, 64, 95
2, 25715, Control_c, 0, 64, 91
2, 25735, Control_c, 0, 64, 84
2, 25744, Note_on_c, 0, 82, 61
2, 25757, Control_c, 0, 64, 77
2, 25776, Control_c, 0, 64, 71
2, 25795, Control_c, 0, 64, 66
2, 25815, Control_c, 0, 64, 62
2, 25834, Control_c, 0, 64, 59
2, 25853, Control_c, 0, 64, 58
2, 25872, Control_c, 0, 64, 56
2, 25892, Control_c, 0, 64, 55
2, 25910, Control_c, 0, 64, 54
2, 25930, Control_c, 0, 64, 53
2, 26179, Control_c, 0, 64, 54
2, 26197, Control_c, 0, 64, 54
2, 26217, Control_c, 0, 64, 55
2, 26255, Control_c, 0, 64, 55
2, 26274, Control_c, 0, 64, 56
2, 26294, Control_c, 0, 64, 58
2, 26313, Control_c, 0, 64, 59
2, 26332, Control_c, 0, 64, 61
2, 26351, Control_c, 0, 64, 63
2, 26371, Control_c, 0, 64, 64
2, 26389, Control_c, 0, 64, 65
2, 26409, Control_c, 0, 64, 67
2, 26428, Control_c, 0, 64, 70
2, 26448, Control_c, 0, 64, 75
2, 26448, Control_c, 0, 67, 16
2, 26466, Control_c, 0, 64, 83
2, 26466, Control_c, 0, 67, 29
2, 26486, Control_c, 0, 64, 96
2, 26486, Control_c, 0, 67, 42
2, 26505, Control_c, 0, 64, 112
2, 26505, Control_c, 0, 67, 56
2, 26525, Control_c, 0, 64, 127
2, 26525, Control_c, 0, 67, 71
2, 26543, Control_c, 0, 67, 87
2, 26563, Control_c, 0, 67, 104
2, 26582, Control_c, 0, 67, 126
2, 26600, Control_c, 0, 67, 127
2, 26665, Note_on_c, 0, 43, 0
2, 26984, Note_on_c, 0, 43, 31
2, 27075, Note_on_c, 0, 46, 33
2, 27095, Note_on_c, 0, 51, 30
2, 27133, Note_on_c, 0, 55, 42
2, 27138, Control_c, 0, 64, 118
2, 27156, Control_c, 0, 64, 103
2, 27176, Control_c, 0, 64, 94
2, 27195, Control_c, 0, 64, 85
2, 27215, Control_c, 0, 64, 75
2, 27233, Control_c, 0, 64, 67
2, 27253, Control_c, 0, 64, 59
2, 27272, Control_c, 0, 64, 55
2, 27291, Control_c, 0, 64, 55
2, 27310, Control_c, 0, 64, 55
2, 27387, Control_c, 0, 64, 56
2, 27407, Control_c, 0, 64, 56
2, 27425, Control_c, 0, 64, 57
2, 27445, Control_c, 0, 64, 57
2, 27464, Control_c, 0, 64, 58
2, 27484, Control_c, 0, 64, 59
2, 27502, Control_c, 0, 64, 59
2, 27541, Control_c, 0, 64, 60
2, 27559, Control_c, 0, 64, 61
2, 27579, Control_c, 0, 64, 62
2, 27598, Control_c, 0, 64, 63
2, 27618, Control_c, 0, 64, 64
2, 27636, Control_c, 0, 64, 65
2, 27656, Control_c, 0, 64, 67
2, 27664, Note_on_c, 0, 82, 0
2, 27673, Control_c, 0, 64, 69
2, 27689, Note_on_c, 0, 75, 0
2, 27693, Control_c, 0, 64, 72
2, 27711, Control_c, 0, 64, 77
2, 27731, Control_c, 0, 64, 83
2, 27750, Control_c, 0, 64, 90
2, 27770, Control_c, 0, 64, 94
2, 27788, Control_c, 0, 64, 96
2, 27846, Control_c, 0, 64, 96
2, 27952, Note_on_c, 0, 70, 0
2, 27999, Control_c, 0, 64, 96
2, 28038, Control_c, 0, 64, 95
2, 28076, Control_c, 0, 64, 95
2, 28188, Note_on_c, 0, 75, 57
2, 28201, Note_on_c, 0, 51, 0
2, 28211, Control_c, 0, 64, 94
2, 28230, Control_c, 0, 64, 94
2, 28237, Note_on_c, 0, 55, 0
2, 28243, Note_on_c, 0, 43, 0
2, 28326, Control_c, 0, 64, 93
2, 28331, Note_on_c, 0, 46, 0
2, 28345, Control_c, 0, 64, 93
2, 28355, Note_on_c, 0, 73, 63
2, 28384, Control_c, 0, 64, 92
2, 28403, Control_c, 0, 64, 91
2, 28422, Control_c, 0, 64, 90
2, 28441, Control_c, 0, 64, 90
2, 28448, Note_on_c, 0, 75, 0
2, 28460, Control_c, 0, 64, 89
2, 28479, Control_c, 0, 64, 88
2, 28493, Note_on_c, 0, 71, 65
2, 28498, Note_on_c, 0, 73, 0
2, 28499, Control_c, 0, 64, 88
2, 28514, Note_on_c, 0, 43, 19
2, 28518, Control_c, 0, 64, 87
2, 28537, Control_c, 0, 64, 86
2, 28556, Control_c, 0, 64, 84
2, 28576, Control_c, 0, 64, 83
2, 28579, Note_on_c, 0, 46, 21
2, 28594, Control_c, 0, 64, 82
2, 28614, Control_c, 0, 64, 81
2, 28633, Control_c, 0, 64, 79
2, 28653, Control_c, 0, 64, 77
2, 28671, Control_c, 0, 64, 76
2, 28674, Note_on_c, 0, 51, 34
2, 28691, Control_c, 0, 64, 74
2, 28694, Note_on_c, 0, 73, 60
2, 28710, Control_c, 0, 64, 71
2, 28712, Note_on_c, 0, 55, 34
2, 28718, Note_on_c, 0, 71, 0
2, 28730, Control_c, 0, 64, 68
2, 28748, Control_c, 0, 64, 64
2, 28768, Control_c, 0, 64, 61
2, 28787, Control_c, 0, 64, 58
2, 28806, Control_c, 0, 64, 56
2, 28825, Control_c, 0, 64, 55
2, 28845, Control_c, 0, 64, 54
2, 28864, Control_c, 0, 64, 53
2, 28883, Control_c, 0, 64, 51
2, 28902, Control_c, 0, 64, 50
2, 28921, Control_c, 0, 64, 49
2, 28940, Control_c, 0, 64, 49
2, 28959, Control_c, 0, 64, 48
2, 28979, Control_c, 0, 64, 47
2, 28998, Control_c, 0, 64, 46
2, 29017, Control_c, 0, 64, 45
2, 29170, Control_c, 0, 64, 46
2, 29189, Control_c, 0, 64, 48
2, 29209, Control_c, 0, 64, 51
2, 29227, Control_c, 0, 64, 54
2, 29247, Control_c, 0, 64, 57
2, 29266, Control_c, 0, 64, 59
2, 29285, Control_c, 0, 64, 61
2, 29304, Control_c, 0, 64, 63
2, 29324, Control_c, 0, 64, 65
2, 29343, Control_c, 0, 64, 66
2, 29361, Control_c, 0, 64, 68
2, 29381, Control_c, 0, 64, 70
2, 29400, Control_c, 0, 64, 74
2, 29420, Control_c, 0, 64, 78
2, 29429, Note_on_c, 0, 55, 0
2, 29438, Control_c, 0, 64, 82
2, 29440, Note_on_c, 0, 43, 0
2, 29458, Control_c, 0, 64, 85
2, 29477, Control_c, 0, 64, 88
2, 29496, Control_c, 0, 64, 89
2, 29515, Control_c, 0, 64, 89
2, 29518, Note_on_c, 0, 51, 0
2, 29554, Control_c, 0, 64, 90
2, 29554, Note_on_c, 0, 46, 0
2, 29574, Note_on_c, 0, 70, 61
2, 29709, Control_c, 0, 64, 89
2, 29767, Control_c, 0, 64, 89
2, 29782, Note_on_c, 0, 70, 0
2, 29786, Control_c, 0, 64, 88
2, 29795, Note_on_c, 0, 44, 32
2, 29806, Control_c, 0, 64, 87
2, 29824, Control_c, 0, 64, 86
2, 29844, Control_c, 0, 64, 85
2, 29863, Control_c, 0, 64, 83
2, 29883, Control_c, 0, 64, 80
2, 29901, Control_c, 0, 64, 77
2, 29913, Note_on_c, 0, 73, 0
2, 29914, Note_on_c, 0, 71, 59
2, 29920, Control_c, 0, 64, 71
2, 29940, Control_c, 0, 64, 64
2, 29959, Control_c, 0, 64, 56
2, 29978, Control_c, 0, 64, 48
2, 29997, Control_c, 0, 64, 45
2, 30015, Note_on_c, 0, 47, 25
2, 30034, Control_c, 0, 64, 48
2, 30054, Control_c, 0, 64, 55
2, 30073, Control_c, 0, 64, 60
2, 30093, Control_c, 0, 64, 63
2, 30111, Control_c, 0, 64, 64
2, 30131, Control_c, 0, 64, 65
2, 30150, Control_c, 0, 64, 66
2, 30159, Note_on_c, 0, 51, 29
2, 30170, Control_c, 0, 64, 67
2, 30188, Control_c, 0, 64, 69
2, 30206, Note_on_c, 0, 71, 0
2, 30208, Control_c, 0, 64, 71
2, 30227, Control_c, 0, 64, 74
2, 30246, Control_c, 0, 64, 77
2, 30248, Note_on_c, 0, 56, 34
2, 30261, Note_on_c, 0, 73, 42
2, 30265, Control_c, 0, 64, 81
2, 30285, Control_c, 0, 64, 82
2, 30348, Note_on_c, 0, 73, 0
2, 30398, Note_on_c, 0, 71, 45
2, 30464, Note_on_c, 0, 71, 0
2, 30521, Note_on_c, 0, 73, 39
2, 30569, Note_on_c, 0, 73, 0
2, 30597, Note_on_c, 0, 71, 49
2, 30660, Note_on_c, 0, 71, 0
2, 30765, Note_on_c, 0, 73, 29
2, 30870, Note_on_c, 0, 71, 53
2, 30935, Note_on_c, 0, 73, 0
2, 30940, Control_c, 0, 64, 81
2, 30959, Control_c, 0, 64, 81
2, 30975, Control_c, 0, 64, 78
2, 30994, Control_c, 0, 64, 74
2, 31013, Control_c, 0, 64, 68
2, 31015, Note_on_c, 0, 71, 0
2, 31032, Control_c, 0, 64, 66
2, 31070, Control_c, 0, 64, 67
2, 31078, Note_on_c, 0, 70, 57
2, 31090, Control_c, 0, 64, 68
2, 31109, Control_c, 0, 64, 71
2, 31129, Control_c, 0, 64, 74
2, 31147, Control_c, 0, 64, 78
2, 31153, Note_on_c, 0, 70, 0
2, 31167, Control_c, 0, 64, 81
2, 31186, Control_c, 0, 64, 83
2, 31214, Note_on_c, 0, 68, 51
2, 31245, Note_on_c, 0, 68, 0
2, 31397, Control_c, 0, 64, 82
2, 31474, Control_c, 0, 64, 82
2, 31493, Control_c, 0, 64, 81
2, 31500, Note_on_c, 0, 75, 28
2, 31514, Control_c, 0, 64, 80
2, 31534, Control_c, 0, 64, 80
2, 31549, Note_on_c, 0, 80, 48
2, 31552, Control_c, 0, 64, 78
2, 31572, Control_c, 0, 64, 76
2, 31575, Note_on_c, 0, 83, 55
2, 31591, Control_c, 0, 64, 73
2, 31610, Control_c, 0, 64, 68
2, 31629, Control_c, 0, 64, 64
2, 31649, Control_c, 0, 64, 59
2, 31668, Control_c, 0, 64, 55
2, 31687, Control_c, 0, 64, 52
2, 31706, Control_c, 0, 64, 52
2, 31726, Control_c, 0, 64, 51
2, 31764, Control_c, 0, 64, 51
2, 31783, Control_c, 0, 64, 50
2, 31801, Note_on_c, 0, 56, 0
2, 31821, Control_c, 0, 64, 50
2, 31872, Note_on_c, 0, 44, 0
2, 31898, Control_c, 0, 64, 50
2, 31917, Control_c, 0, 64, 51
2, 31928, Note_on_c, 0, 51, 0
2, 31937, Control_c, 0, 64, 52
2, 31940, Note_on_c, 0, 47, 0
2, 31955, Control_c, 0, 64, 54
2, 31975, Control_c, 0, 64, 56
2, 31994, Control_c, 0, 64, 59
2, 32014, Control_c, 0, 64, 60
2, 32032, Control_c, 0, 64, 61
2, 32052, Control_c, 0, 64, 62
2, 32071, Control_c, 0, 64, 62
2, 32090, Control_c, 0, 64, 63
2, 32109, Control_c, 0, 64, 63
2, 32129, Control_c, 0, 64, 64
2, 32148, Control_c, 0, 64, 64
2, 32167, Control_c, 0, 64, 65
2, 32186, Control_c, 0, 64, 66
2, 32186, Control_c, 0, 67, 127
2, 32206, Control_c, 0, 64, 67
2, 32206, Control_c, 0, 67, 125
2, 32224, Control_c, 0, 64, 69
2, 32224, Control_c, 0, 67, 122
2, 32244, Control_c, 0, 64, 71
2, 32244, Control_c, 0, 67, 121
2, 32263, Control_c, 0, 64, 74
2, 32263, Control_c, 0, 67, 119
2, 32282, Control_c, 0, 64, 77
2, 32282, Control_c, 0, 67, 118
2, 32301, Control_c, 0, 64, 81
2, 32301, Control_c, 0, 67, 116
2, 32320, Control_c, 0, 64, 84
2, 32320, Control_c, 0, 67, 115
2, 32340, Control_c, 0, 64, 88
2, 32340, Control_c, 0, 67, 115
2, 32359, Control_c, 0, 64, 91
2, 32359, Control_c, 0, 67, 113
2, 32378, Control_c, 0, 64, 93
2, 32378, Control_c, 0, 67, 112
2, 32397, Control_c, 0, 64, 93
2, 32397, Control_c, 0, 67, 111
2, 32417, Control_c, 0, 67, 109
2, 32435, Control_c, 0, 67, 108
2, 32455, Control_c, 0, 67, 107
2, 32477, Control_c, 0, 67, 106
2, 32496, Control_c, 0, 67, 106
2, 32689, Control_c, 0, 67, 105
2, 32727, Control_c, 0, 64, 93
2, 32727, Control_c, 0, 67, 105
2, 32736, Note_on_c, 0, 75, 0
2, 32746, Control_c, 0, 67, 104
2, 32766, Note_on_c, 0, 83, 0
2, 32816, Note_on_c, 0, 71, 82
2, 32817, Note_on_c, 0, 80, 0
2, 32823, Control_c, 0, 67, 103
2, 32841, Control_c, 0, 64, 92
2, 32841, Control_c, 0, 67, 99
2, 32861, Control_c, 0, 64, 92
2, 32861, Control_c, 0, 67, 91
2, 32880, Control_c, 0, 64, 91
2, 32880, Control_c, 0, 67, 80
2, 32897, Control_c, 0, 67, 71
2, 32915, Control_c, 0, 64, 91
2, 32915, Control_c, 0, 67, 63
2, 32935, Control_c, 0, 64, 90
2, 32935, Control_c, 0, 67, 58
2, 32954, Control_c, 0, 64, 90
2, 32954, Control_c, 0, 67, 55
2, 32964, Note_on_c, 0, 75, 56
2, 32974, Control_c, 0, 64, 89
2, 32974, Control_c, 0, 67, 54
2, 32992, Control_c, 0, 64, 89
2, 33012, Control_c, 0, 64, 88
2, 33031, Control_c, 0, 64, 87
2, 33031, Control_c, 0, 67, 54
2, 33035, Note_on_c, 0, 68, 74
2, 33042, Note_on_c, 0, 80, 50
2, 33050, Control_c, 0, 64, 86
2, 33050, Control_c, 0, 67, 55
2, 33069, Control_c, 0, 64, 85
2, 33081, Note_on_c, 0, 71, 0
2, 33089, Control_c, 0, 64, 84
2, 33089, Control_c, 0, 67, 56
2, 33108, Control_c, 0, 64, 83
2, 33108, Control_c, 0, 67, 56
2, 33125, Note_on_c, 0, 83, 56
2, 33127, Control_c, 0, 64, 81
2, 33146, Control_c, 0, 64, 79
2, 33146, Control_c, 0, 67, 57
2, 33166, Control_c, 0, 64, 77
2, 33184, Control_c, 0, 64, 74
2, 33184, Control_c, 0, 67, 57
2, 33204, Control_c, 0, 64, 71
2, 33223, Control_c, 0, 64, 67
2, 33242, Control_c, 0, 64, 64
2, 33242, Control_c, 0, 67, 58
2, 33261, Control_c, 0, 64, 63
2, 33280, Control_c, 0, 64, 62
2, 33338, Control_c, 0, 64, 61
2, 33357, Control_c, 0, 64, 61
2, 33377, Control_c, 0, 64, 60
2, 33377, Control_c, 0, 67, 58
2, 33395, Control_c, 0, 67, 59
2, 33415, Control_c, 0, 64, 60
2, 33434, Control_c, 0, 67, 60
2, 33472, Control_c, 0, 67, 61
2, 33492, Control_c, 0, 67, 61
2, 33511, Control_c, 0, 67, 62
2, 33530, Control_c, 0, 67, 63
2, 33549, Control_c, 0, 67, 63
2, 33569, Control_c, 0, 67, 65
2, 33588, Control_c, 0, 67, 65
2, 33607, Control_c, 0, 67, 67
2, 33626, Control_c, 0, 67, 68
2, 33646, Control_c, 0, 67, 70
2, 33664, Control_c, 0, 67, 70
2, 33684, Control_c, 0, 67, 73
2, 33703, Control_c, 0, 64, 60
2, 33703, Control_c, 0, 67, 75
2, 33722, Control_c, 0, 64, 61
2, 33722, Control_c, 0, 67, 77
2, 33741, Control_c, 0, 64, 62
2, 33741, Control_c, 0, 67, 80
2, 33760, Control_c, 0, 64, 62
2, 33760, Control_c, 0, 67, 82
2, 33780, Control_c, 0, 64, 63
2, 33780, Control_c, 0, 67, 84
2, 33799, Control_c, 0, 64, 64
2, 33799, Control_c, 0, 67, 85
2, 33818, Control_c, 0, 64, 65
2, 33818, Control_c, 0, 67, 85
2, 33837, Control_c, 0, 64, 66
2, 33837, Control_c, 0, 67, 86
2, 33857, Control_c, 0, 64, 67
2, 33875, Control_c, 0, 64, 69
2, 33875, Control_c, 0, 67, 86
2, 33895, Control_c, 0, 64, 72
2, 33895, Control_c, 0, 67, 87
2, 33914, Control_c, 0, 64, 77
2, 33934, Control_c, 0, 64, 84
2, 33934, Control_c, 0, 67, 87
2, 33952, Control_c, 0, 64, 91
2, 33972, Control_c, 0, 64, 98
2, 33972, Control_c, 0, 67, 89
2, 33991, Control_c, 0, 64, 101
2, 33991, Control_c, 0, 67, 91
2, 34010, Control_c, 0, 64, 103
2, 34010, Control_c, 0, 67, 93
2, 34029, Control_c, 0, 64, 104
2, 34029, Control_c, 0, 67, 96
2, 34049, Control_c, 0, 67, 99
2, 34068, Control_c, 0, 67, 102
2, 34069, Note_on_c, 0, 65, 54
2, 34087, Control_c, 0, 64, 104
2, 34087, Control_c, 0, 67, 104
2, 34095, Note_on_c, 0, 83, 0
2, 34106, Control_c, 0, 67, 107
2, 34126, Control_c, 0, 67, 112
2, 34144, Control_c, 0, 67, 119
2, 34159, Note_on_c, 0, 68, 0
2, 34161, Note_on_c, 0, 80, 0
2, 34164, Control_c, 0, 64, 104
2, 34164, Control_c, 0, 67, 127
2, 34175, Note_on_c, 0, 75, 0
2, 34183, Control_c, 0, 64, 103
2, 34183, Control_c, 0, 67, 127
2, 34202, Control_c, 0, 64, 103
2, 34221, Control_c, 0, 64, 102
2, 34240, Control_c, 0, 64, 101
2, 34260, Control_c, 0, 64, 99
2, 34279, Control_c, 0, 64, 97
2, 34298, Control_c, 0, 64, 96
2, 34317, Control_c, 0, 64, 95
2, 34337, Control_c, 0, 64, 93
2, 34355, Control_c, 0, 64, 92
2, 34375, Control_c, 0, 64, 90
2, 34398, Control_c, 0, 64, 89
2, 34414, Note_on_c, 0, 77, 39
2, 34417, Control_c, 0, 64, 88
2, 34436, Control_c, 0, 64, 87
2, 34442, Note_on_c, 0, 80, 42
2, 34456, Control_c, 0, 64, 86
2, 34474, Control_c, 0, 64, 84
2, 34494, Control_c, 0, 64, 83
2, 34494, Note_on_c, 0, 83, 48
2, 34504, Note_on_c, 0, 62, 39
2, 34513, Control_c, 0, 64, 81
2, 34533, Control_c, 0, 64, 78
2, 34551, Control_c, 0, 64, 75
2, 34558, Note_on_c, 0, 65, 0
2, 34571, Control_c, 0, 64, 71
2, 34590, Control_c, 0, 64, 67
2, 34610, Control_c, 0, 64, 64
2, 34628, Control_c, 0, 64, 60
2, 34648, Control_c, 0, 64, 57
2, 34667, Control_c, 0, 64, 53
2, 34686, Control_c, 0, 64, 49
2, 34705, Control_c, 0, 64, 47
2, 34725, Control_c, 0, 64, 46
2, 34835, Control_c, 0, 64, 46
2, 34855, Control_c, 0, 64, 47
2, 34874, Control_c, 0, 64, 48
2, 34894, Control_c, 0, 64, 49
2, 34912, Control_c, 0, 64, 50
2, 34932, Control_c, 0, 64, 50
2, 35105, Control_c, 0, 64, 50
2, 35124, Control_c, 0, 64, 49
2, 35143, Control_c, 0, 64, 48
2, 35200, Control_c, 0, 64, 49
2, 35220, Control_c, 0, 64, 54
2, 35239, Control_c, 0, 64, 60
2, 35258, Control_c, 0, 64, 64
2, 35277, Control_c, 0, 64, 67
2, 35297, Control_c, 0, 64, 73
2, 35315, Control_c, 0, 64, 83
2, 35335, Control_c, 0, 64, 98
2, 35354, Control_c, 0, 64, 117
2, 35374, Control_c, 0, 64, 127
2, 35456, Note_on_c, 0, 62, 0
2, 35757, Control_c, 0, 64, 121
2, 35777, Control_c, 0, 64, 113
2, 35784, Note_on_c, 0, 62, 25
2, 35795, Control_c, 0, 64, 108
2, 35815, Control_c, 0, 64, 103
2, 35834, Control_c, 0, 64, 97
2, 35839, Note_on_c, 0, 65, 27
2, 35854, Control_c, 0, 64, 93
2, 35872, Control_c, 0, 64, 89
2, 35892, Control_c, 0, 64, 85
2, 35898, Note_on_c, 0, 70, 45
2, 35911, Control_c, 0, 64, 79
2, 35930, Control_c, 0, 64, 73
2, 35949, Control_c, 0, 64, 68
2, 35969, Control_c, 0, 64, 65
2, 35988, Control_c, 0, 64, 64
2, 36007, Control_c, 0, 64, 63
2, 36026, Control_c, 0, 64, 62
2, 36046, Control_c, 0, 64, 60
2, 36065, Control_c, 0, 64, 58
2, 36083, Control_c, 0, 64, 57
2, 36103, Control_c, 0, 64, 56
2, 36141, Control_c, 0, 64, 56
2, 36160, Control_c, 0, 64, 57
2, 36180, Control_c, 0, 64, 58
2, 36199, Control_c, 0, 64, 59
2, 36218, Control_c, 0, 64, 60
2, 36237, Control_c, 0, 64, 60
2, 36257, Control_c, 0, 64, 61
2, 36275, Control_c, 0, 64, 62
2, 36295, Control_c, 0, 64, 63
2, 36315, Control_c, 0, 64, 64
2, 36335, Control_c, 0, 64, 65
2, 36349, Note_on_c, 0, 77, 0
2, 36353, Control_c, 0, 64, 66
2, 36373, Control_c, 0, 64, 68
2, 36392, Control_c, 0, 64, 71
2, 36411, Control_c, 0, 64, 74
2, 36430, Control_c, 0, 64, 77
2, 36450, Control_c, 0, 64, 80
2, 36469, Control_c, 0, 64, 80
2, 36491, Note_on_c, 0, 80, 0
2, 36506, Note_on_c, 0, 83, 0
2, 36735, Control_c, 0, 64, 80
2, 36783, Note_on_c, 0, 82, 64
2, 36850, Control_c, 0, 64, 79
2, 36965, Note_on_c, 0, 65, 0
2, 37003, Control_c, 0, 64, 79
2, 37061, Control_c, 0, 64, 78
2, 37083, Note_on_c, 0, 62, 0
2, 37099, Note_on_c, 0, 80, 70
2, 37138, Control_c, 0, 64, 78
2, 37195, Control_c, 0, 64, 77
2, 37234, Control_c, 0, 64, 77
2, 37253, Control_c, 0, 64, 76
2, 37273, Control_c, 0, 64, 76
2, 37293, Control_c, 0, 64, 75
2, 37300, Note_on_c, 0, 70, 0
2, 37301, Note_on_c, 0, 78, 67
2, 37311, Control_c, 0, 64, 75
2, 37331, Control_c, 0, 64, 74
2, 37350, Control_c, 0, 64, 71
2, 37351, Note_on_c, 0, 62, 38
2, 37370, Control_c, 0, 64, 67
2, 37385, Note_on_c, 0, 82, 0
2, 37388, Control_c, 0, 64, 63
2, 37392, Note_on_c, 0, 80, 0
2, 37408, Control_c, 0, 64, 59
2, 37427, Control_c, 0, 64, 57
2, 37445, Note_on_c, 0, 65, 32
2, 37446, Control_c, 0, 64, 57
2, 37465, Control_c, 0, 64, 59
2, 37485, Control_c, 0, 64, 62
2, 37504, Control_c, 0, 64, 63
2, 37522, Control_c, 0, 64, 64
2, 37532, Note_on_c, 0, 78, 0
2, 37533, Note_on_c, 0, 77, 58
2, 37542, Control_c, 0, 64, 65
2, 37550, Note_on_c, 0, 70, 36
2, 37561, Control_c, 0, 64, 66
2, 37580, Control_c, 0, 64, 67
2, 37619, Control_c, 0, 64, 66
2, 37657, Control_c, 0, 64, 65
2, 37670, Note_on_c, 0, 77, 0
2, 37676, Control_c, 0, 64, 63
2, 37679, Note_on_c, 0, 78, 63
2, 37696, Control_c, 0, 64, 59
2, 37714, Control_c, 0, 64, 53
2, 37734, Control_c, 0, 64, 51
2, 37753, Control_c, 0, 64, 51
2, 37773, Control_c, 0, 64, 55
2, 37791, Control_c, 0, 64, 59
2, 37807, Note_on_c, 0, 78, 0
2, 37811, Control_c, 0, 64, 62
2, 37819, Note_on_c, 0, 77, 60
2, 37830, Control_c, 0, 64, 64
2, 37850, Control_c, 0, 64, 65
2, 37868, Control_c, 0, 64, 65
2, 37948, Note_on_c, 0, 77, 0
2, 37950, Note_on_c, 0, 78, 68
2, 38002, Control_c, 0, 64, 65
2, 38060, Control_c, 0, 64, 64
2, 38079, Control_c, 0, 64, 61
2, 38096, Note_on_c, 0, 78, 0
2, 38099, Control_c, 0, 64, 57
2, 38118, Control_c, 0, 64, 50
2, 38119, Note_on_c, 0, 80, 59
2, 38137, Control_c, 0, 64, 50
2, 38156, Control_c, 0, 64, 53
2, 38176, Control_c, 0, 64, 58
2, 38194, Control_c, 0, 64, 62
2, 38214, Control_c, 0, 64, 64
2, 38225, Note_on_c, 0, 65, 0
2, 38232, Control_c, 0, 64, 66
2, 38252, Control_c, 0, 64, 68
2, 38265, Note_on_c, 0, 80, 0
2, 38268, Note_on_c, 0, 78, 53
2, 38270, Control_c, 0, 64, 71
2, 38290, Control_c, 0, 64, 75
2, 38309, Control_c, 0, 64, 79
2, 38329, Control_c, 0, 64, 82
2, 38347, Control_c, 0, 64, 82
2, 38386, Control_c, 0, 64, 82
2, 38424, Control_c, 0, 64, 81
2, 38428, Note_on_c, 0, 62, 0
2, 38428, Note_on_c, 0, 80, 55
2, 38430, Note_on_c, 0, 78, 0
2, 38520, Control_c, 0, 64, 81
2, 38540, Control_c, 0, 64, 80
2, 38558, Control_c, 0, 64, 79
2, 38578, Control_c, 0, 64, 78
2, 38583, Note_on_c, 0, 70, 0
2, 38597, Control_c, 0, 64, 78
2, 38606, Note_on_c, 0, 77, 49
2, 38618, Note_on_c, 0, 80, 0
2, 38670, Control_c, 0, 64, 77
2, 38685, Note_on_c, 0, 63, 37
2, 38690, Control_c, 0, 64, 77
2, 38708, Control_c, 0, 64, 76
2, 38728, Control_c, 0, 64, 76
2, 38747, Control_c, 0, 64, 74
2, 38766, Control_c, 0, 64, 72
2, 38766, Note_on_c, 0, 66, 34
2, 38785, Control_c, 0, 64, 68
2, 38805, Control_c, 0, 64, 64
2, 38824, Control_c, 0, 64, 60
2, 38836, Note_on_c, 0, 77, 0
2, 38842, Control_c, 0, 64, 53
2, 38862, Control_c, 0, 64, 49
2, 38863, Note_on_c, 0, 78, 52
2, 38881, Control_c, 0, 64, 48
2, 38900, Control_c, 0, 64, 49
2, 38909, Note_on_c, 0, 70, 30
2, 38919, Control_c, 0, 64, 51
2, 38939, Control_c, 0, 64, 56
2, 38958, Control_c, 0, 64, 59
2, 38977, Control_c, 0, 64, 62
2, 38996, Control_c, 0, 64, 63
2, 39016, Control_c, 0, 64, 64
2, 39034, Control_c, 0, 64, 65
2, 39054, Control_c, 0, 64, 66
2, 39073, Control_c, 0, 64, 67
2, 39114, Note_on_c, 0, 78, 0
2, 39131, Control_c, 0, 64, 68
2, 39150, Control_c, 0, 64, 69
2, 39150, Note_on_c, 0, 80, 44
2, 39170, Control_c, 0, 64, 71
2, 39195, Control_c, 0, 64, 73
2, 39215, Control_c, 0, 64, 73
2, 39233, Control_c, 0, 64, 74
2, 39252, Note_on_c, 0, 80, 0
2, 39287, Note_on_c, 0, 78, 47
2, 39344, Note_on_c, 0, 78, 0
2, 39409, Note_on_c, 0, 80, 48
2, 39457, Note_on_c, 0, 80, 0
2, 39470, Note_on_c, 0, 78, 48
2, 39520, Note_on_c, 0, 78, 0
2, 39556, Note_on_c, 0, 80, 48
2, 39591, Note_on_c, 0, 80, 0
2, 39634, Note_on_c, 0, 78, 46
2, 39672, Note_on_c, 0, 78, 0
2, 39697, Note_on_c, 0, 80, 53
2, 39784, Note_on_c, 0, 78, 53
2, 39809, Control_c, 0, 64, 73
2, 39809, Note_on_c, 0, 80, 0
2, 39828, Control_c, 0, 64, 72
2, 39847, Control_c, 0, 64, 70
2, 39850, Note_on_c, 0, 78, 0
2, 39856, Note_on_c, 0, 70, 0
2, 39866, Control_c, 0, 64, 68
2, 39889, Note_on_c, 0, 77, 54
2, 39905, Control_c, 0, 64, 69
2, 39943, Control_c, 0, 64, 69
2, 39948, Note_on_c, 0, 77, 0
2, 39962, Control_c, 0, 64, 70
2, 39981, Control_c, 0, 64, 70
2, 40000, Control_c, 0, 64, 71
2, 40005, Note_on_c, 0, 75, 50
2, 40090, Note_on_c, 0, 75, 0
2, 40189, Note_on_c, 0, 70, 50
2, 40194, Control_c, 0, 64, 70
2, 40214, Control_c, 0, 64, 70
2, 40233, Control_c, 0, 64, 69
2, 40243, Note_on_c, 0, 75, 45
2, 40252, Control_c, 0, 64, 69
2, 40271, Control_c, 0, 64, 68
2, 40291, Control_c, 0, 64, 67
2, 40309, Control_c, 0, 64, 66
2, 40317, Note_on_c, 0, 78, 41
2, 40329, Control_c, 0, 64, 64
2, 40339, Note_on_c, 0, 82, 60
2, 40348, Control_c, 0, 64, 62
2, 40368, Control_c, 0, 64, 59
2, 40386, Control_c, 0, 64, 54
2, 40406, Control_c, 0, 64, 49
2, 40413, Note_on_c, 0, 66, 0
2, 40425, Control_c, 0, 64, 46
2, 40445, Control_c, 0, 64, 45
2, 40463, Control_c, 0, 64, 44
2, 40548, Note_on_c, 0, 63, 0
2, 40615, Control_c, 0, 64, 45
2, 40634, Control_c, 0, 64, 45
2, 40672, Control_c, 0, 64, 46
2, 40692, Control_c, 0, 64, 47
2, 40711, Control_c, 0, 64, 47
2, 40730, Control_c, 0, 64, 48
2, 40749, Control_c, 0, 64, 49
2, 40769, Control_c, 0, 64, 50
2, 40788, Control_c, 0, 64, 51
2, 40807, Control_c, 0, 64, 53
2, 40826, Control_c, 0, 64, 55
2, 40846, Control_c, 0, 64, 56
2, 40865, Control_c, 0, 64, 58
2, 40883, Control_c, 0, 64, 59
2, 40903, Control_c, 0, 64, 60
2, 40922, Control_c, 0, 64, 61
2, 40941, Control_c, 0, 64, 62
2, 40960, Control_c, 0, 64, 63
2, 40980, Control_c, 0, 64, 63
2, 40999, Control_c, 0, 64, 64
2, 41018, Control_c, 0, 64, 64
2, 41037, Control_c, 0, 64, 65
2, 41057, Control_c, 0, 64, 65
2, 41075, Control_c, 0, 64, 66
2, 41095, Control_c, 0, 64, 66
2, 41114, Control_c, 0, 64, 67
2, 41134, Control_c, 0, 64, 68
2, 41152, Control_c, 0, 64, 69
2, 41172, Control_c, 0, 64, 70
2, 41191, Control_c, 0, 64, 71
2, 41210, Control_c, 0, 64, 72
2, 41229, Control_c, 0, 64, 73
2, 41268, Note_on_c, 0, 70, 0
2, 41386, Note_on_c, 0, 66, 48
2, 41389, Note_on_c, 0, 82, 0
2, 41402, Control_c, 0, 64, 73
2, 41424, Note_on_c, 0, 78, 0
2, 41456, Note_on_c, 0, 75, 0
2, 41498, Control_c, 0, 64, 72
2, 41587, Note_on_c, 0, 73, 42
2, 41613, Control_c, 0, 64, 72
2, 41619, Note_on_c, 0, 63, 58
2, 41624, Note_on_c, 0, 75, 46
2, 41676, Note_on_c, 0, 78, 45
2, 41708, Control_c, 0, 64, 71
2, 41719, Note_on_c, 0, 66, 0
2, 41724, Note_on_c, 0, 82, 58
2, 41728, Control_c, 0, 64, 70
2, 41747, Control_c, 0, 64, 67
2, 41766, Control_c, 0, 64, 63
2, 41785, Control_c, 0, 64, 58
2, 41804, Control_c, 0, 64, 53
2, 41824, Control_c, 0, 64, 52
2, 41842, Control_c, 0, 64, 55
2, 41862, Control_c, 0, 64, 58
2, 41881, Control_c, 0, 64, 62
2, 41900, Control_c, 0, 64, 63
2, 41919, Control_c, 0, 64, 65
2, 41939, Control_c, 0, 64, 66
2, 41958, Control_c, 0, 64, 68
2, 41977, Control_c, 0, 64, 70
2, 41996, Control_c, 0, 64, 72
2, 42016, Control_c, 0, 64, 73
2, 42034, Control_c, 0, 64, 75
2, 42034, Control_c, 0, 67, 122
2, 42054, Control_c, 0, 64, 77
2, 42054, Control_c, 0, 67, 117
2, 42075, Control_c, 0, 64, 78
2, 42075, Control_c, 0, 67, 110
2, 42095, Control_c, 0, 64, 78
2, 42095, Control_c, 0, 67, 101
2, 42113, Control_c, 0, 64, 79
2, 42113, Control_c, 0, 67, 89
2, 42133, Control_c, 0, 64, 79
2, 42133, Control_c, 0, 67, 77
2, 42152, Control_c, 0, 64, 80
2, 42152, Control_c, 0, 67, 65
2, 42171, Control_c, 0, 64, 81
2, 42171, Control_c, 0, 67, 50
2, 42190, Control_c, 0, 64, 82
2, 42190, Control_c, 0, 67, 38
2, 42210, Control_c, 0, 67, 27
2, 42229, Control_c, 0, 67, 16
2, 42248, Control_c, 0, 64, 83
2, 42248, Control_c, 0, 67, 0
2, 42267, Control_c, 0, 64, 84
2, 42287, Control_c, 0, 64, 86
2, 42305, Control_c, 0, 64, 86
2, 42324, Control_c, 0, 64, 87
2, 42344, Control_c, 0, 64, 88
2, 42363, Control_c, 0, 64, 89
2, 42382, Control_c, 0, 64, 90
2, 42401, Control_c, 0, 64, 91
2, 42421, Control_c, 0, 64, 91
2, 42439, Control_c, 0, 64, 92
2, 42478, Control_c, 0, 64, 92
2, 42497, Control_c, 0, 64, 93
2, 42515, Control_c, 0, 64, 95
2, 42535, Control_c, 0, 64, 97
2, 42554, Control_c, 0, 64, 99
2, 42574, Control_c, 0, 64, 100
2, 42578, Note_on_c, 0, 60, 65
2, 42592, Control_c, 0, 64, 101
2, 42612, Control_c, 0, 64, 102
2, 42631, Control_c, 0, 64, 103
2, 42650, Control_c, 0, 64, 104
2, 42651, Note_on_c, 0, 63, 0
2, 42669, Control_c, 0, 64, 105
2, 42676, Note_on_c, 0, 73, 0
2, 42689, Control_c, 0, 64, 105
2, 42708, Control_c, 0, 64, 106
2, 42727, Control_c, 0, 64, 106
2, 42729, Note_on_c, 0, 82, 0
2, 42746, Control_c, 0, 64, 107
2, 42766, Control_c, 0, 64, 108
2, 42785, Control_c, 0, 64, 108
2, 42803, Control_c, 0, 64, 109
2, 42815, Note_on_c, 0, 78, 0
2, 42816, Note_on_c, 0, 75, 0
2, 42857, Note_on_c, 0, 72, 62
2, 42934, Note_on_c, 0, 75, 64
2, 42977, Control_c, 0, 64, 108
2, 42987, Note_on_c, 0, 78, 52
2, 42995, Control_c, 0, 64, 108
2, 43015, Control_c, 0, 64, 107
2, 43032, Control_c, 0, 64, 106
2, 43052, Control_c, 0, 64, 104
2, 43070, Control_c, 0, 64, 102
2, 43086, Note_on_c, 0, 57, 65
2, 43090, Control_c, 0, 64, 101
2, 43109, Control_c, 0, 64, 99
2, 43129, Control_c, 0, 64, 96
2, 43136, Note_on_c, 0, 84, 69
2, 43146, Note_on_c, 0, 60, 0
2, 43147, Control_c, 0, 64, 94
2, 43167, Control_c, 0, 64, 91
2, 43186, Control_c, 0, 64, 88
2, 43204, Control_c, 0, 64, 82
2, 43224, Control_c, 0, 64, 76
2, 43243, Control_c, 0, 64, 71
2, 43263, Control_c, 0, 64, 66
2, 43281, Control_c, 0, 64, 63
2, 43301, Control_c, 0, 64, 61
2, 43320, Control_c, 0, 64, 60
2, 43340, Control_c, 0, 64, 59
2, 43358, Control_c, 0, 64, 59
2, 43378, Control_c, 0, 64, 58
2, 43397, Control_c, 0, 64, 58
2, 43435, Control_c, 0, 64, 57
2, 43760, Control_c, 0, 64, 58
2, 43819, Control_c, 0, 64, 58
2, 43837, Control_c, 0, 64, 59
2, 43857, Control_c, 0, 64, 59
2, 43876, Control_c, 0, 64, 60
2, 43895, Control_c, 0, 64, 61
2, 43914, Control_c, 0, 64, 61
2, 43934, Control_c, 0, 64, 62
2, 43953, Control_c, 0, 64, 63
2, 43972, Control_c, 0, 64, 64
2, 43992, Control_c, 0, 64, 65
2, 44012, Control_c, 0, 64, 67
2, 44030, Control_c, 0, 64, 70
2, 44050, Control_c, 0, 64, 74
2, 44050, Control_c, 0, 67, 9
2, 44069, Control_c, 0, 64, 82
2, 44069, Control_c, 0, 67, 19
2, 44089, Control_c, 0, 64, 93
2, 44089, Control_c, 0, 67, 29
2, 44107, Control_c, 0, 64, 104
2, 44107, Control_c, 0, 67, 37
2, 44127, Control_c, 0, 64, 108
2, 44127, Control_c, 0, 67, 46
2, 44146, Control_c, 0, 67, 53
2, 44164, Control_c, 0, 64, 107
2, 44164, Control_c, 0, 67, 60
2, 44184, Control_c, 0, 64, 104
2, 44184, Control_c, 0, 67, 67
2, 44203, Control_c, 0, 64, 99
2, 44203, Control_c, 0, 67, 76
2, 44223, Control_c, 0, 64, 93
2, 44223, Control_c, 0, 67, 85
2, 44241, Control_c, 0, 64, 89
2, 44241, Control_c, 0, 67, 96
2, 44261, Control_c, 0, 64, 88
2, 44261, Control_c, 0, 67, 108
2, 44280, Control_c, 0, 64, 88
2, 44280, Control_c, 0, 67, 120
2, 44300, Control_c, 0, 64, 89
2, 44300, Control_c, 0, 67, 127
2, 44318, Control_c, 0, 64, 91
2, 44338, Control_c, 0, 64, 93
2, 44357, Control_c, 0, 64, 95
2, 44376, Control_c, 0, 64, 96
2, 44395, Control_c, 0, 64, 97
2, 44414, Control_c, 0, 64, 98
2, 44433, Control_c, 0, 64, 99
2, 44452, Control_c, 0, 64, 101
2, 44471, Control_c, 0, 64, 102
2, 44491, Control_c, 0, 64, 103
2, 44504, Note_on_c, 0, 57, 0
2, 44510, Control_c, 0, 64, 105
2, 44529, Control_c, 0, 64, 106
2, 44548, Control_c, 0, 64, 108
2, 44568, Control_c, 0, 64, 109
2, 44586, Control_c, 0, 64, 110
2, 44644, Control_c, 0, 64, 109
2, 44663, Control_c, 0, 64, 108
2, 44682, Control_c, 0, 64, 106
2, 44702, Control_c, 0, 64, 104
2, 44720, Control_c, 0, 64, 101
2, 44721, Note_on_c, 0, 57, 20
2, 44740, Control_c, 0, 64, 99
2, 44759, Control_c, 0, 64, 96
2, 44779, Control_c, 0, 64, 94
2, 44780, Note_on_c, 0, 60, 35
2, 44797, Control_c, 0, 64, 90
2, 44814, Note_on_c, 0, 65, 35
2, 44817, Control_c, 0, 64, 87
2, 44836, Control_c, 0, 64, 83
2, 44855, Control_c, 0, 64, 78
2, 44874, Control_c, 0, 64, 74
2, 44894, Control_c, 0, 64, 69
2, 44913, Control_c, 0, 64, 64
2, 44932, Control_c, 0, 64, 61
2, 44954, Control_c, 0, 64, 60
2, 44974, Control_c, 0, 64, 60
2, 45069, Control_c, 0, 64, 60
2, 45089, Control_c, 0, 64, 61
2, 45108, Control_c, 0, 64, 61
2, 45127, Control_c, 0, 64, 63
2, 45146, Control_c, 0, 64, 64
2, 45166, Control_c, 0, 64, 65
2, 45185, Control_c, 0, 64, 66
2, 45185, Note_on_c, 0, 84, 0
2, 45203, Control_c, 0, 64, 67
2, 45223, Control_c, 0, 64, 69
2, 45242, Control_c, 0, 64, 72
2, 45261, Control_c, 0, 64, 76
2, 45263, Note_on_c, 0, 78, 0
2, 45280, Control_c, 0, 64, 81
2, 45296, Note_on_c, 0, 75, 0
2, 45300, Control_c, 0, 64, 86
2, 45319, Control_c, 0, 64, 89
2, 45338, Control_c, 0, 64, 91
2, 45415, Note_on_c, 0, 72, 0
2, 45510, Control_c, 0, 64, 90
2, 45530, Control_c, 0, 64, 90
2, 45548, Control_c, 0, 64, 89
2, 45568, Control_c, 0, 64, 88
2, 45587, Control_c, 0, 64, 86
2, 45606, Control_c, 0, 64, 83
2, 45625, Control_c, 0, 64, 79
2, 45644, Control_c, 0, 64, 75
2, 45664, Control_c, 0, 64, 70
2, 45682, Control_c, 0, 64, 65
2, 45702, Control_c, 0, 64, 64
2, 45721, Control_c, 0, 64, 65
2, 45736, Note_on_c, 0, 77, 50
2, 45740, Control_c, 0, 64, 66
2, 45759, Control_c, 0, 64, 67
2, 45779, Control_c, 0, 64, 68
2, 45798, Control_c, 0, 64, 70
2, 45817, Control_c, 0, 64, 73
2, 45836, Control_c, 0, 64, 75
2, 45856, Control_c, 0, 64, 77
2, 45874, Control_c, 0, 64, 77
2, 45894, Control_c, 0, 64, 78
2, 45951, Control_c, 0, 64, 77
2, 45963, Note_on_c, 0, 60, 0
2, 45990, Control_c, 0, 64, 77
2, 45993, Note_on_c, 0, 75, 64
2, 46009, Note_on_c, 0, 57, 0
2, 46048, Control_c, 0, 64, 76
2, 46067, Control_c, 0, 64, 76
2, 46086, Control_c, 0, 64, 75
2, 46124, Control_c, 0, 64, 75
2, 46144, Control_c, 0, 64, 74
2, 46145, Note_on_c, 0, 65, 0
2, 46158, Note_on_c, 0, 77, 0
2, 46162, Control_c, 0, 64, 74
2, 46172, Note_on_c, 0, 57, 34
2, 46178, Note_on_c, 0, 73, 66
2, 46182, Control_c, 0, 64, 73
2, 46201, Control_c, 0, 64, 73
2, 46220, Control_c, 0, 64, 71
2, 46239, Control_c, 0, 64, 68
2, 46259, Control_c, 0, 64, 64
2, 46278, Control_c, 0, 64, 55
2, 46279, Note_on_c, 0, 75, 0
2, 46297, Control_c, 0, 64, 44
2, 46309, Note_on_c, 0, 60, 22
2, 46316, Control_c, 0, 64, 42
2, 46336, Control_c, 0, 64, 45
2, 46352, Note_on_c, 0, 73, 0
2, 46354, Control_c, 0, 64, 52
2, 46355, Note_on_c, 0, 72, 62
2, 46374, Control_c, 0, 64, 59
2, 46386, Note_on_c, 0, 65, 24
2, 46393, Control_c, 0, 64, 62
2, 46413, Control_c, 0, 64, 63
2, 46431, Control_c, 0, 64, 64
2, 46451, Control_c, 0, 64, 65
2, 46490, Control_c, 0, 64, 65
2, 46495, Note_on_c, 0, 72, 0
2, 46506, Note_on_c, 0, 73, 65
2, 46604, Control_c, 0, 64, 65
2, 46617, Note_on_c, 0, 73, 0
2, 46642, Control_c, 0, 64, 64
2, 46647, Note_on_c, 0, 72, 57
2, 46662, Control_c, 0, 64, 62
2, 46681, Control_c, 0, 64, 58
2, 46700, Control_c, 0, 64, 54
2, 46719, Control_c, 0, 64, 52
2, 46739, Control_c, 0, 64, 54
2, 46746, Note_on_c, 0, 72, 0
2, 46758, Control_c, 0, 64, 57
2, 46774, Note_on_c, 0, 73, 56
2, 46777, Control_c, 0, 64, 61
2, 46796, Control_c, 0, 64, 62
2, 46816, Control_c, 0, 64, 63
2, 46834, Control_c, 0, 64, 64
2, 46883, Note_on_c, 0, 73, 0
2, 46894, Control_c, 0, 64, 64
2, 46913, Note_on_c, 0, 75, 54
2, 46951, Control_c, 0, 64, 63
2, 46970, Control_c, 0, 64, 61
2, 46989, Control_c, 0, 64, 58
2, 47009, Control_c, 0, 64, 55
2, 47028, Control_c, 0, 64, 54
2, 47047, Control_c, 0, 64, 56
2, 47048, Note_on_c, 0, 75, 0
2, 47057, Note_on_c, 0, 73, 51
2, 47066, Control_c, 0, 64, 60
2, 47083, Note_on_c, 0, 60, 0
2, 47085, Control_c, 0, 64, 63
2, 47105, Control_c, 0, 64, 66
2, 47123, Control_c, 0, 64, 69
2, 47143, Control_c, 0, 64, 75
2, 47162, Control_c, 0, 64, 81
2, 47163, Note_on_c, 0, 57, 0
2, 47181, Control_c, 0, 64, 86
2, 47187, Note_on_c, 0, 73, 0
2, 47197, Note_on_c, 0, 75, 62
2, 47200, Control_c, 0, 64, 88
2, 47220, Control_c, 0, 64, 87
2, 47239, Control_c, 0, 64, 85
2, 47258, Control_c, 0, 64, 84
2, 47275, Note_on_c, 0, 75, 0
2, 47277, Control_c, 0, 64, 84
2, 47296, Control_c, 0, 64, 83
2, 47302, Note_on_c, 0, 72, 53
2, 47311, Note_on_c, 0, 65, 0
2, 47314, Control_c, 0, 64, 83
2, 47334, Control_c, 0, 64, 81
2, 47353, Control_c, 0, 64, 80
2, 47371, Note_on_c, 0, 58, 33
2, 47373, Control_c, 0, 64, 78
2, 47391, Control_c, 0, 64, 74
2, 47411, Control_c, 0, 64, 69
2, 47430, Control_c, 0, 64, 62
2, 47435, Note_on_c, 0, 72, 0
2, 47450, Control_c, 0, 64, 47
2, 47468, Control_c, 0, 64, 22
2, 47469, Note_on_c, 0, 61, 28
2, 47469, Note_on_c, 0, 73, 50
2, 47488, Control_c, 0, 64, 13
2, 47507, Control_c, 0, 64, 11
2, 47525, Control_c, 0, 64, 18
2, 47540, Note_on_c, 0, 65, 28
2, 47545, Control_c, 0, 64, 35
2, 47564, Control_c, 0, 64, 50
2, 47584, Control_c, 0, 64, 59
2, 47602, Control_c, 0, 64, 63
2, 47607, Note_on_c, 0, 73, 0
2, 47622, Control_c, 0, 64, 63
2, 47641, Control_c, 0, 64, 64
2, 47660, Control_c, 0, 64, 65
2, 47660, Note_on_c, 0, 75, 46
2, 47679, Control_c, 0, 64, 67
2, 47699, Control_c, 0, 64, 68
2, 47718, Control_c, 0, 64, 70
2, 47720, Note_on_c, 0, 75, 0
2, 47737, Control_c, 0, 64, 73
2, 47756, Control_c, 0, 64, 74
2, 47770, Note_on_c, 0, 73, 46
2, 47776, Control_c, 0, 64, 74
2, 47810, Note_on_c, 0, 73, 0
2, 47859, Note_on_c, 0, 75, 48
2, 47898, Note_on_c, 0, 75, 0
2, 47921, Note_on_c, 0, 73, 52
2, 47960, Note_on_c, 0, 73, 0
2, 47971, Control_c, 0, 64, 74
2, 48004, Note_on_c, 0, 75, 42
2, 48042, Note_on_c, 0, 75, 0
2, 48054, Note_on_c, 0, 73, 61
2, 48093, Note_on_c, 0, 73, 0
2, 48124, Note_on_c, 0, 75, 58
2, 48190, Note_on_c, 0, 73, 55
2, 48216, Note_on_c, 0, 75, 0
2, 48251, Note_on_c, 0, 73, 0
2, 48274, Note_on_c, 0, 61, 0
2, 48288, Note_on_c, 0, 72, 61
2, 48298, Note_on_c, 0, 58, 0
2, 48318, Note_on_c, 0, 65, 0
2, 48368, Note_on_c, 0, 72, 0
2, 48398, Note_on_c, 0, 70, 60
2, 48428, Control_c, 0, 64, 73
2, 48450, Note_on_c, 0, 58, 35
2, 48453, Note_on_c, 0, 70, 0
2, 48467, Control_c, 0, 64, 73
2, 48485, Control_c, 0, 64, 72
2, 48505, Control_c, 0, 64, 72
2, 48524, Control_c, 0, 64, 71
2, 48544, Control_c, 0, 64, 70
2, 48562, Control_c, 0, 64, 68
2, 48565, Note_on_c, 0, 61, 39
2, 48582, Control_c, 0, 64, 67
2, 48601, Control_c, 0, 64, 66
2, 48620, Control_c, 0, 64, 65
2, 48630, Note_on_c, 0, 65, 33
2, 48639, Control_c, 0, 64, 64
2, 48650, Note_on_c, 0, 70, 33
2, 48659, Control_c, 0, 64, 61
2, 48678, Control_c, 0, 64, 56
2, 48697, Control_c, 0, 64, 47
2, 48701, Note_on_c, 0, 77, 66
2, 48704, Note_on_c, 0, 73, 38
2, 48716, Control_c, 0, 64, 43
2, 48736, Control_c, 0, 64, 40
2, 48754, Control_c, 0, 64, 38
2, 48774, Control_c, 0, 64, 36
2, 48794, Control_c, 0, 64, 35
2, 48814, Control_c, 0, 64, 34
2, 49005, Control_c, 0, 64, 36
2, 49025, Control_c, 0, 64, 43
2, 49043, Control_c, 0, 64, 50
2, 49063, Control_c, 0, 64, 56
2, 49085, Control_c, 0, 64, 59
2, 49104, Control_c, 0, 64, 61
2, 49123, Control_c, 0, 64, 61
2, 49143, Control_c, 0, 64, 62
2, 49162, Control_c, 0, 64, 63
2, 49181, Control_c, 0, 64, 64
2, 49200, Control_c, 0, 64, 64
2, 49219, Control_c, 0, 64, 66
2, 49237, Control_c, 0, 64, 67
2, 49256, Control_c, 0, 64, 69
2, 49276, Control_c, 0, 64, 72
2, 49295, Control_c, 0, 64, 77
2, 49314, Control_c, 0, 64, 82
2, 49320, Note_on_c, 0, 73, 0
2, 49333, Control_c, 0, 64, 88
2, 49344, Note_on_c, 0, 77, 0
2, 49353, Control_c, 0, 64, 91
2, 49372, Control_c, 0, 64, 93
2, 49410, Control_c, 0, 64, 93
2, 49448, Control_c, 0, 64, 94
2, 49485, Note_on_c, 0, 65, 0
2, 49525, Control_c, 0, 64, 93
2, 49545, Control_c, 0, 64, 93
2, 49564, Control_c, 0, 64, 92
2, 49583, Control_c, 0, 64, 91
2, 49599, Note_on_c, 0, 78, 67
2, 49602, Control_c, 0, 64, 90
2, 49621, Note_on_c, 0, 58, 0
2, 49622, Control_c, 0, 64, 88
2, 49624, Note_on_c, 0, 61, 0
2, 49641, Control_c, 0, 64, 84
2, 49660, Control_c, 0, 64, 75
2, 49679, Control_c, 0, 64, 67
2, 49699, Control_c, 0, 64, 61
2, 49736, Control_c, 0, 64, 63
2, 49756, Control_c, 0, 64, 63
2, 49775, Control_c, 0, 64, 64
2, 49794, Control_c, 0, 64, 65
2, 49802, Note_on_c, 0, 77, 58
2, 49809, Note_on_c, 0, 70, 0
2, 49813, Control_c, 0, 64, 67
2, 49833, Control_c, 0, 64, 68
2, 49852, Control_c, 0, 64, 68
2, 49871, Control_c, 0, 64, 69
2, 49934, Note_on_c, 0, 58, 38
2, 49936, Note_on_c, 0, 78, 0
2, 49957, Note_on_c, 0, 75, 62
2, 49967, Control_c, 0, 64, 68
2, 49987, Control_c, 0, 64, 67
2, 50005, Control_c, 0, 64, 65
2, 50024, Note_on_c, 0, 61, 31
2, 50025, Control_c, 0, 64, 61
2, 50044, Control_c, 0, 64, 56
2, 50048, Note_on_c, 0, 77, 0
2, 50063, Control_c, 0, 64, 57
2, 50070, Note_on_c, 0, 73, 60
2, 50082, Control_c, 0, 64, 61
2, 50102, Control_c, 0, 64, 63
2, 50115, Note_on_c, 0, 65, 31
2, 50120, Note_on_c, 0, 75, 0
2, 50121, Control_c, 0, 64, 65
2, 50140, Control_c, 0, 64, 68
2, 50159, Control_c, 0, 64, 72
2, 50168, Note_on_c, 0, 73, 0
2, 50180, Control_c, 0, 64, 79
2, 50183, Note_on_c, 0, 72, 64
2, 50198, Control_c, 0, 64, 86
2, 50217, Control_c, 0, 64, 90
2, 50256, Control_c, 0, 64, 90
2, 50284, Note_on_c, 0, 72, 0
2, 50294, Control_c, 0, 64, 89
2, 50314, Control_c, 0, 64, 89
2, 50326, Note_on_c, 0, 70, 59
2, 50332, Control_c, 0, 64, 88
2, 50391, Control_c, 0, 64, 88
2, 50409, Control_c, 0, 64, 86
2, 50429, Control_c, 0, 64, 83
2, 50436, Note_on_c, 0, 68, 61
2, 50448, Control_c, 0, 64, 81
2, 50468, Control_c, 0, 64, 78
2, 50484, Note_on_c, 0, 70, 0
2, 50486, Control_c, 0, 64, 73
2, 50506, Control_c, 0, 64, 68
2, 50525, Control_c, 0, 64, 63
2, 50544, Control_c, 0, 64, 57
2, 50563, Control_c, 0, 64, 52
2, 50582, Note_on_c, 0, 66, 64
2, 50583, Control_c, 0, 64, 44
2, 50591, Note_on_c, 0, 68, 0
2, 50602, Control_c, 0, 64, 31
2, 50621, Control_c, 0, 64, 19
2, 50640, Control_c, 0, 64, 15
2, 50678, Control_c, 0, 64, 23
2, 50697, Control_c, 0, 64, 40
2, 50717, Control_c, 0, 64, 53
2, 50718, Note_on_c, 0, 65, 0
2, 50736, Control_c, 0, 64, 60
2, 50755, Control_c, 0, 64, 62
2, 50774, Control_c, 0, 64, 64
2, 50794, Control_c, 0, 64, 65
2, 50812, Control_c, 0, 64, 66
2, 50832, Control_c, 0, 64, 68
2, 50850, Note_on_c, 0, 58, 0
2, 50851, Control_c, 0, 64, 70
2, 50860, Note_on_c, 0, 61, 0
2, 50871, Control_c, 0, 64, 74
2, 50889, Control_c, 0, 64, 78
2, 50909, Control_c, 0, 64, 81
2, 50928, Control_c, 0, 64, 83
2, 50945, Note_on_c, 0, 68, 63
2, 50948, Control_c, 0, 64, 83
2, 50961, Note_on_c, 0, 66, 0
2, 50986, Control_c, 0, 64, 84
2, 51050, Note_on_c, 0, 65, 58
2, 51063, Control_c, 0, 64, 83
2, 51073, Note_on_c, 0, 68, 0
2, 51082, Control_c, 0, 64, 82
2, 51101, Control_c, 0, 64, 82
2, 51102, Note_on_c, 0, 65, 0
2, 51120, Control_c, 0, 64, 80
2, 51135, Control_c, 0, 64, 78
2, 51135, Note_on_c, 0, 51, 37
2, 51155, Control_c, 0, 64, 78
2, 51173, Control_c, 0, 64, 77
2, 51193, Control_c, 0, 64, 77
2, 51204, Note_on_c, 0, 58, 41
2, 51212, Control_c, 0, 64, 76
2, 51232, Control_c, 0, 64, 74
2, 51241, Note_on_c, 0, 61, 32
2, 51250, Control_c, 0, 64, 73
2, 51270, Control_c, 0, 64, 70
2, 51289, Control_c, 0, 64, 67
2, 51289, Note_on_c, 0, 63, 50
2, 51300, Note_on_c, 0, 66, 52
2, 51308, Control_c, 0, 64, 63
2, 51327, Control_c, 0, 64, 58
2, 51347, Control_c, 0, 64, 47
2, 51366, Control_c, 0, 64, 36
2, 51385, Control_c, 0, 64, 26
2, 51404, Control_c, 0, 64, 17
2, 51424, Control_c, 0, 64, 0
2, 51653, Control_c, 0, 64, 18
2, 51676, Control_c, 0, 64, 36
2, 51695, Control_c, 0, 64, 48
2, 51714, Control_c, 0, 64, 55
2, 51733, Control_c, 0, 64, 58
2, 51753, Control_c, 0, 64, 60
2, 51772, Control_c, 0, 64, 61
2, 51791, Control_c, 0, 64, 62
2, 51810, Control_c, 0, 64, 63
2, 51830, Control_c, 0, 64, 64
2, 51848, Control_c, 0, 64, 65
2, 51868, Control_c, 0, 64, 67
2, 51887, Control_c, 0, 64, 68
2, 51907, Control_c, 0, 64, 70
2, 51925, Control_c, 0, 64, 73
2, 51939, Note_on_c, 0, 63, 0
2, 51945, Control_c, 0, 64, 76
2, 51964, Control_c, 0, 64, 79
2, 51967, Note_on_c, 0, 66, 0
2, 51983, Control_c, 0, 64, 82
2, 52002, Control_c, 0, 64, 84
2, 52022, Control_c, 0, 64, 85
2, 52136, Control_c, 0, 64, 84
2, 52175, Control_c, 0, 64, 84
2, 52213, Control_c, 0, 64, 83
2, 52233, Control_c, 0, 64, 82
2, 52252, Control_c, 0, 64, 82
2, 52271, Control_c, 0, 64, 81
2, 52272, Note_on_c, 0, 51, 0
2, 52274, Note_on_c, 0, 58, 0
2, 52290, Control_c, 0, 64, 81
2, 52310, Control_c, 0, 64, 80
2, 52310, Note_on_c, 0, 61, 0
2, 52318, Note_on_c, 0, 70, 59
2, 52328, Control_c, 0, 64, 79
2, 52348, Control_c, 0, 64, 78
2, 52367, Control_c, 0, 64, 78
2, 52387, Control_c, 0, 64, 77
2, 52405, Control_c, 0, 64, 77
2, 52425, Control_c, 0, 64, 76
2, 52444, Control_c, 0, 64, 75
2, 52450, Note_on_c, 0, 73, 55
2, 52457, Note_on_c, 0, 51, 31
2, 52463, Control_c, 0, 64, 74
2, 52482, Control_c, 0, 64, 73
2, 52492, Note_on_c, 0, 70, 0
2, 52502, Control_c, 0, 64, 72
2, 52521, Control_c, 0, 64, 72
2, 52540, Control_c, 0, 64, 70
2, 52559, Control_c, 0, 64, 69
2, 52562, Note_on_c, 0, 58, 32
2, 52579, Control_c, 0, 64, 68
2, 52597, Note_on_c, 0, 60, 32
2, 52598, Control_c, 0, 64, 67
2, 52616, Control_c, 0, 64, 66
2, 52636, Control_c, 0, 64, 64
2, 52655, Control_c, 0, 64, 61
2, 52674, Control_c, 0, 64, 55
2, 52681, Note_on_c, 0, 78, 61
2, 52693, Control_c, 0, 64, 48
2, 52713, Control_c, 0, 64, 45
2, 52732, Control_c, 0, 64, 41
2, 52732, Note_on_c, 0, 73, 0
2, 52751, Control_c, 0, 64, 36
2, 52770, Control_c, 0, 64, 32
2, 52790, Control_c, 0, 64, 28
2, 52808, Control_c, 0, 64, 26
2, 52828, Control_c, 0, 64, 25
2, 52867, Control_c, 0, 64, 24
2, 53077, Control_c, 0, 64, 27
2, 53095, Control_c, 0, 64, 31
2, 53115, Control_c, 0, 64, 40
2, 53134, Control_c, 0, 64, 48
2, 53153, Control_c, 0, 64, 55
2, 53172, Control_c, 0, 64, 59
2, 53192, Control_c, 0, 64, 61
2, 53211, Control_c, 0, 64, 62
2, 53230, Control_c, 0, 64, 64
2, 53249, Control_c, 0, 64, 66
2, 53269, Control_c, 0, 64, 68
2, 53287, Control_c, 0, 64, 72
2, 53307, Control_c, 0, 64, 77
2, 53326, Control_c, 0, 64, 83
2, 53346, Control_c, 0, 64, 89
2, 53353, Note_on_c, 0, 78, 0
2, 53364, Control_c, 0, 64, 93
2, 53384, Control_c, 0, 64, 94
2, 53427, Note_on_c, 0, 51, 0
2, 53433, Note_on_c, 0, 60, 0
2, 53438, Note_on_c, 0, 77, 55
2, 53465, Note_on_c, 0, 58, 0
2, 53499, Control_c, 0, 64, 94
2, 53518, Control_c, 0, 64, 93
2, 53537, Control_c, 0, 64, 92
2, 53557, Control_c, 0, 64, 91
2, 53575, Control_c, 0, 64, 90
2, 53581, Note_on_c, 0, 75, 71
2, 53596, Control_c, 0, 64, 89
2, 53615, Control_c, 0, 64, 87
2, 53634, Control_c, 0, 64, 86
2, 53646, Note_on_c, 0, 77, 0
2, 53653, Control_c, 0, 64, 84
2, 53673, Control_c, 0, 64, 82
2, 53692, Control_c, 0, 64, 80
2, 53707, Note_on_c, 0, 51, 37
2, 53711, Control_c, 0, 64, 78
2, 53718, Note_on_c, 0, 73, 66
2, 53730, Control_c, 0, 64, 76
2, 53750, Control_c, 0, 64, 74
2, 53768, Control_c, 0, 64, 71
2, 53788, Control_c, 0, 64, 69
2, 53791, Note_on_c, 0, 75, 0
2, 53799, Note_on_c, 0, 58, 33
2, 53807, Control_c, 0, 64, 66
2, 53827, Control_c, 0, 64, 63
2, 53845, Control_c, 0, 64, 59
2, 53865, Control_c, 0, 64, 55
2, 53872, Note_on_c, 0, 60, 31
2, 53884, Control_c, 0, 64, 51
2, 53896, Note_on_c, 0, 72, 62
2, 53903, Control_c, 0, 64, 48
2, 53906, Note_on_c, 0, 73, 0
2, 53922, Control_c, 0, 64, 45
2, 53942, Control_c, 0, 64, 42
2, 53961, Control_c, 0, 64, 41
2, 53980, Control_c, 0, 64, 40
2, 54016, Control_c, 0, 64, 39
2, 54189, Control_c, 0, 64, 40
2, 54208, Control_c, 0, 64, 41
2, 54216, Note_on_c, 0, 72, 0
2, 54228, Control_c, 0, 64, 43
2, 54247, Control_c, 0, 64, 46
2, 54266, Control_c, 0, 64, 49
2, 54275, Note_on_c, 0, 75, 42
2, 54285, Control_c, 0, 64, 51
2, 54305, Control_c, 0, 64, 53
2, 54323, Control_c, 0, 64, 54
2, 54330, Note_on_c, 0, 73, 51
2, 54360, Note_on_c, 0, 75, 0
2, 54400, Control_c, 0, 64, 54
2, 54419, Note_on_c, 0, 72, 51
2, 54420, Control_c, 0, 64, 55
2, 54428, Note_on_c, 0, 73, 0
2, 54439, Control_c, 0, 64, 55
2, 54457, Control_c, 0, 64, 57
2, 54477, Control_c, 0, 64, 59
2, 54496, Control_c, 0, 64, 59
2, 54516, Control_c, 0, 64, 60
2, 54534, Control_c, 0, 64, 61
2, 54543, Note_on_c, 0, 72, 0
2, 54555, Control_c, 0, 64, 62
2, 54563, Note_on_c, 0, 73, 56
2, 54574, Control_c, 0, 64, 63
2, 54593, Control_c, 0, 64, 64
2, 54612, Control_c, 0, 64, 65
2, 54632, Control_c, 0, 64, 66
2, 54651, Control_c, 0, 64, 67
2, 54670, Control_c, 0, 64, 68
2, 54679, Note_on_c, 0, 51, 0
2, 54689, Control_c, 0, 64, 69
2, 54690, Note_on_c, 0, 75, 56
2, 54696, Note_on_c, 0, 73, 0
2, 54709, Control_c, 0, 64, 71
2, 54727, Control_c, 0, 64, 73
2, 54747, Control_c, 0, 64, 74
2, 54755, Note_on_c, 0, 58, 0
2, 54756, Note_on_c, 0, 75, 0
2, 54774, Note_on_c, 0, 60, 0
2, 54804, Control_c, 0, 64, 74
2, 54879, Note_on_c, 0, 51, 36
2, 54939, Control_c, 0, 64, 74
2, 54958, Control_c, 0, 64, 73
2, 54979, Control_c, 0, 64, 73
2, 54983, Note_on_c, 0, 57, 41
2, 54998, Control_c, 0, 64, 72
2, 55003, Note_on_c, 0, 65, 57
2, 55016, Control_c, 0, 64, 71
2, 55034, Note_on_c, 0, 60, 34
2, 55036, Control_c, 0, 64, 69
2, 55055, Control_c, 0, 64, 64
2, 55074, Control_c, 0, 64, 55
2, 55093, Control_c, 0, 64, 36
2, 55113, Control_c, 0, 64, 29
2, 55132, Control_c, 0, 64, 31
2, 55151, Control_c, 0, 64, 40
2, 55170, Control_c, 0, 64, 54
2, 55190, Control_c, 0, 64, 61
2, 55208, Control_c, 0, 64, 63
2, 55228, Control_c, 0, 64, 64
2, 55247, Control_c, 0, 64, 65
2, 55267, Control_c, 0, 64, 65
2, 55328, Note_on_c, 0, 67, 48
2, 55439, Control_c, 0, 64, 66
2, 55461, Note_on_c, 0, 69, 53
2, 55463, Note_on_c, 0, 67, 0
2, 55464, Note_on_c, 0, 65, 0
2, 55496, Control_c, 0, 64, 66
2, 55501, Note_on_c, 0, 69, 0
2, 55630, Note_on_c, 0, 69, 39
2, 55631, Control_c, 0, 64, 66
2, 55650, Control_c, 0, 64, 65
2, 55670, Control_c, 0, 64, 62
2, 55688, Control_c, 0, 64, 55
2, 55708, Control_c, 0, 64, 44
2, 55727, Control_c, 0, 64, 42
2, 55747, Control_c, 0, 64, 49
2, 55765, Control_c, 0, 64, 58
2, 55778, Note_on_c, 0, 69, 0
2, 55785, Control_c, 0, 64, 63
2, 55804, Control_c, 0, 64, 65
2, 55821, Note_on_c, 0, 70, 53
2, 55823, Control_c, 0, 64, 68
2, 55842, Control_c, 0, 64, 72
2, 55862, Control_c, 0, 64, 78
2, 55881, Control_c, 0, 64, 83
2, 55885, Note_on_c, 0, 70, 0
2, 55900, Control_c, 0, 64, 86
2, 55935, Control_c, 0, 64, 85
2, 55935, Note_on_c, 0, 69, 49
2, 55968, Note_on_c, 0, 69, 0
2, 55997, Note_on_c, 0, 57, 0
2, 55998, Note_on_c, 0, 70, 57
2, 56012, Control_c, 0, 64, 85
2, 56017, Note_on_c, 0, 60, 0
2, 56041, Note_on_c, 0, 70, 0
2, 56050, Control_c, 0, 64, 84
2, 56063, Note_on_c, 0, 51, 0
2, 56089, Control_c, 0, 64, 83
2, 56090, Note_on_c, 0, 69, 49
2, 56108, Control_c, 0, 64, 83
2, 56125, Note_on_c, 0, 69, 0
2, 56126, Note_on_c, 0, 70, 69
2, 56127, Control_c, 0, 64, 82
2, 56147, Control_c, 0, 64, 81
2, 56166, Control_c, 0, 64, 80
2, 56185, Control_c, 0, 64, 80
2, 56193, Note_on_c, 0, 70, 0
2, 56197, Note_on_c, 0, 69, 40
2, 56204, Control_c, 0, 64, 79
2, 56232, Note_on_c, 0, 69, 0
2, 56242, Control_c, 0, 64, 79
2, 56257, Note_on_c, 0, 67, 55
2, 56281, Control_c, 0, 64, 78
2, 56301, Control_c, 0, 64, 78
2, 56311, Note_on_c, 0, 67, 0
2, 56319, Control_c, 0, 64, 76
2, 56333, Note_on_c, 0, 69, 63
2, 56338, Control_c, 0, 64, 75
2, 56358, Control_c, 0, 64, 73
2, 56377, Control_c, 0, 64, 72
2, 56386, Note_on_c, 0, 49, 45
2, 56396, Control_c, 0, 64, 72
2, 56415, Control_c, 0, 64, 71
2, 56421, Note_on_c, 0, 53, 42
2, 56435, Control_c, 0, 64, 70
2, 56453, Control_c, 0, 64, 68
2, 56478, Control_c, 0, 64, 66
2, 56490, Note_on_c, 0, 69, 0
2, 56497, Control_c, 0, 64, 63
2, 56500, Note_on_c, 0, 70, 74
2, 56503, Note_on_c, 0, 58, 37
2, 56516, Control_c, 0, 64, 60
2, 56535, Control_c, 0, 64, 54
2, 56555, Control_c, 0, 64, 46
2, 56573, Control_c, 0, 64, 39
2, 56593, Control_c, 0, 64, 35
2, 56612, Control_c, 0, 64, 34
2, 56632, Control_c, 0, 64, 33
2, 56650, Control_c, 0, 64, 32
2, 56842, Control_c, 0, 64, 31
2, 56862, Control_c, 0, 64, 22
2, 56881, Control_c, 0, 64, 0
2, 57205, Control_c, 0, 64, 17
2, 57225, Control_c, 0, 64, 36
2, 57244, Control_c, 0, 64, 44
2, 57263, Control_c, 0, 64, 50
2, 57282, Control_c, 0, 64, 57
2, 57302, Control_c, 0, 64, 61
2, 57321, Control_c, 0, 64, 63
2, 57340, Control_c, 0, 64, 65
2, 57359, Control_c, 0, 64, 67
2, 57373, Note_on_c, 0, 58, 0
2, 57378, Control_c, 0, 64, 71
2, 57398, Control_c, 0, 64, 77
2, 57416, Control_c, 0, 64, 85
2, 57436, Control_c, 0, 64, 93
2, 57455, Control_c, 0, 64, 102
2, 57469, Note_on_c, 0, 53, 0
2, 57474, Control_c, 0, 64, 116
2, 57475, Note_on_c, 0, 49, 0
2, 57493, Control_c, 0, 64, 127
2, 57566, Note_on_c, 0, 65, 38
2, 57705, Control_c, 0, 64, 121
2, 57724, Control_c, 0, 64, 110
2, 57743, Control_c, 0, 64, 104
2, 57762, Control_c, 0, 64, 99
2, 57782, Control_c, 0, 64, 95
2, 57801, Control_c, 0, 64, 92
2, 57811, Note_on_c, 0, 51, 35
2, 57817, Control_c, 0, 64, 89
2, 57830, Note_on_c, 0, 66, 50
2, 57836, Control_c, 0, 64, 86
2, 57839, Note_on_c, 0, 58, 30
2, 57856, Control_c, 0, 64, 82
2, 57858, Note_on_c, 0, 65, 0
2, 57875, Control_c, 0, 64, 78
2, 57894, Control_c, 0, 64, 73
2, 57913, Control_c, 0, 64, 68
2, 57933, Control_c, 0, 64, 64
2, 57951, Control_c, 0, 64, 62
2, 57971, Control_c, 0, 64, 60
2, 57990, Control_c, 0, 64, 59
2, 58010, Control_c, 0, 64, 59
2, 58028, Control_c, 0, 64, 58
2, 58047, Control_c, 0, 64, 57
2, 58067, Control_c, 0, 64, 56
2, 58085, Control_c, 0, 64, 55
2, 58105, Control_c, 0, 64, 54
2, 58124, Control_c, 0, 64, 53
2, 58144, Control_c, 0, 64, 53
2, 58162, Control_c, 0, 64, 52
2, 58182, Control_c, 0, 64, 51
2, 58201, Control_c, 0, 64, 50
2, 58220, Control_c, 0, 64, 48
2, 58239, Control_c, 0, 64, 47
2, 58259, Control_c, 0, 64, 44
2, 58278, Control_c, 0, 64, 42
2, 58297, Control_c, 0, 64, 39
2, 58316, Control_c, 0, 64, 36
2, 58336, Control_c, 0, 64, 33
2, 58355, Control_c, 0, 64, 31
2, 58374, Control_c, 0, 64, 31
2, 58431, Control_c, 0, 64, 34
2, 58451, Control_c, 0, 64, 41
2, 58470, Control_c, 0, 64, 50
2, 58490, Control_c, 0, 64, 56
2, 58508, Control_c, 0, 64, 58
2, 58527, Control_c, 0, 64, 59
2, 58547, Control_c, 0, 64, 59
2, 58565, Control_c, 0, 64, 61
2, 58585, Control_c, 0, 64, 62
2, 58604, Control_c, 0, 64, 63
2, 58624, Control_c, 0, 64, 64
2, 58642, Control_c, 0, 64, 66
2, 58662, Control_c, 0, 64, 68
2, 58681, Control_c, 0, 64, 71
2, 58700, Control_c, 0, 64, 77
2, 58719, Control_c, 0, 64, 85
2, 58739, Control_c, 0, 64, 96
2, 58758, Control_c, 0, 64, 112
2, 58777, Control_c, 0, 64, 127
2, 58823, Note_on_c, 0, 58, 0
2, 58858, Note_on_c, 0, 63, 40
2, 58954, Note_on_c, 0, 63, 0
2, 59045, Note_on_c, 0, 66, 0
2, 59195, Note_on_c, 0, 53, 35
2, 59200, Note_on_c, 0, 51, 0
2, 59202, Note_on_c, 0, 60, 38
2, 59217, Control_c, 0, 64, 110
2, 59236, Control_c, 0, 64, 99
2, 59255, Control_c, 0, 64, 89
2, 59274, Control_c, 0, 64, 80
2, 59294, Control_c, 0, 64, 71
2, 59313, Control_c, 0, 64, 65
2, 59332, Control_c, 0, 64, 61
2, 59352, Control_c, 0, 64, 57
2, 59372, Control_c, 0, 64, 56
2, 59390, Control_c, 0, 64, 56
2, 59449, Control_c, 0, 64, 55
2, 59486, Control_c, 0, 64, 55
2, 59678, Control_c, 0, 64, 55
2, 59717, Control_c, 0, 64, 56
2, 59736, Control_c, 0, 64, 56
2, 59775, Control_c, 0, 64, 57
2, 59794, Control_c, 0, 64, 58
2, 59813, Control_c, 0, 64, 59
2, 59832, Control_c, 0, 64, 59
2, 59852, Control_c, 0, 64, 60
2, 59870, Control_c, 0, 64, 61
2, 59890, Control_c, 0, 64, 61
2, 59909, Control_c, 0, 64, 62
2, 59929, Control_c, 0, 64, 63
2, 59947, Control_c, 0, 64, 63
2, 59966, Control_c, 0, 64, 64
2, 59986, Control_c, 0, 64, 65
2, 60004, Control_c, 0, 64, 66
2, 60024, Control_c, 0, 64, 67
2, 60043, Control_c, 0, 64, 70
2, 60063, Control_c, 0, 64, 74
2, 60081, Control_c, 0, 64, 80
2, 60101, Control_c, 0, 64, 85
2, 60115, Note_on_c, 0, 61, 45
2, 60120, Control_c, 0, 64, 90
2, 60140, Control_c, 0, 64, 91
2, 60158, Control_c, 0, 64, 92
2, 60169, Note_on_c, 0, 60, 0
2, 60197, Control_c, 0, 64, 92
2, 60216, Control_c, 0, 64, 93
2, 60396, Note_on_c, 0, 61, 0
2, 60436, Note_on_c, 0, 60, 51
2, 60523, Control_c, 0, 64, 92
2, 60561, Control_c, 0, 64, 92
2, 60581, Control_c, 0, 64, 91
2, 60600, Control_c, 0, 64, 91
2, 60613, Note_on_c, 0, 53, 0
2, 60620, Control_c, 0, 64, 90
2, 60638, Control_c, 0, 64, 89
2, 60643, Note_on_c, 0, 61, 54
2, 60658, Control_c, 0, 64, 88
2, 60677, Control_c, 0, 64, 88
2, 60696, Control_c, 0, 64, 87
2, 60715, Control_c, 0, 64, 86
2, 60735, Control_c, 0, 64, 85
2, 60754, Control_c, 0, 64, 84
2, 60773, Control_c, 0, 64, 84
2, 60792, Control_c, 0, 64, 83
2, 60812, Control_c, 0, 64, 81
2, 60823, Note_on_c, 0, 53, 31
2, 60830, Control_c, 0, 64, 78
2, 60830, Note_on_c, 0, 41, 41
2, 60842, Note_on_c, 0, 61, 0
2, 60850, Control_c, 0, 64, 74
2, 60869, Control_c, 0, 64, 68
2, 60877, Note_on_c, 0, 63, 53
2, 60889, Control_c, 0, 64, 63
2, 60900, Note_on_c, 0, 60, 0
2, 60907, Control_c, 0, 64, 57
2, 60926, Control_c, 0, 64, 55
2, 60946, Control_c, 0, 64, 56
2, 60964, Control_c, 0, 64, 56
2, 60984, Control_c, 0, 64, 58
2, 61003, Control_c, 0, 64, 59
2, 61023, Control_c, 0, 64, 61
2, 61029, Note_on_c, 0, 61, 46
2, 61041, Control_c, 0, 64, 62
2, 61061, Control_c, 0, 64, 63
2, 61080, Control_c, 0, 64, 64
2, 61100, Control_c, 0, 64, 65
2, 61118, Control_c, 0, 64, 66
2, 61126, Note_on_c, 0, 63, 0
2, 61137, Note_on_c, 0, 61, 0
2, 61157, Control_c, 0, 64, 66
2, 61170, Note_on_c, 0, 60, 51
2, 61176, Control_c, 0, 64, 67
2, 61195, Control_c, 0, 64, 68
2, 61215, Control_c, 0, 64, 68
2, 61234, Control_c, 0, 64, 69
2, 61300, Note_on_c, 0, 61, 58
2, 61302, Note_on_c, 0, 60, 0
2, 61370, Control_c, 0, 64, 68
2, 61388, Control_c, 0, 64, 67
2, 61407, Control_c, 0, 64, 65
2, 61427, Control_c, 0, 64, 63
2, 61442, Note_on_c, 0, 63, 58
2, 61445, Control_c, 0, 64, 63
2, 61461, Note_on_c, 0, 61, 0
2, 61484, Control_c, 0, 64, 63
2, 61504, Control_c, 0, 64, 65
2, 61522, Control_c, 0, 64, 66
2, 61542, Control_c, 0, 64, 67
2, 61561, Control_c, 0, 64, 69
2, 61571, Note_on_c, 0, 63, 0
2, 61580, Control_c, 0, 64, 70
2, 61596, Note_on_c, 0, 65, 62
2, 61599, Control_c, 0, 64, 72
2, 61619, Control_c, 0, 64, 75
2, 61638, Control_c, 0, 64, 77
2, 61657, Control_c, 0, 64, 78
2, 61676, Control_c, 0, 64, 79
2, 61741, Note_on_c, 0, 65, 0
2, 61745, Note_on_c, 0, 63, 66
2, 61751, Control_c, 0, 64, 80
2, 61771, Control_c, 0, 64, 81
2, 61790, Control_c, 0, 64, 81
2, 61809, Control_c, 0, 64, 82
2, 61828, Control_c, 0, 64, 82
2, 61860, Note_on_c, 0, 53, 0
2, 61866, Note_on_c, 0, 41, 0
2, 61883, Note_on_c, 0, 65, 69
2, 61920, Note_on_c, 0, 63, 0
2, 61952, Note_on_c, 0, 70, 0
2, 61981, Note_on_c, 0, 65, 0
2, 62059, Control_c, 0, 64, 82
2, 62097, Control_c, 0, 64, 81
2, 62127, Note_on_c, 0, 41, 27
2, 62173, Note_on_c, 0, 53, 39
2, 62174, Control_c, 0, 64, 81
2, 62212, Control_c, 0, 64, 80
2, 62227, Note_on_c, 0, 66, 59
2, 62233, Note_on_c, 0, 69, 57
2, 62240, Note_on_c, 0, 60, 49
2, 62252, Control_c, 0, 64, 80
2, 62270, Control_c, 0, 64, 79
2, 62290, Control_c, 0, 64, 78
2, 62309, Control_c, 0, 64, 76
2, 62328, Control_c, 0, 64, 73
2, 62347, Control_c, 0, 64, 70
2, 62366, Control_c, 0, 64, 65
2, 62386, Control_c, 0, 64, 58
2, 62404, Control_c, 0, 64, 36
2, 62424, Control_c, 0, 64, 0
2, 62501, Control_c, 0, 64, 37
2, 62520, Control_c, 0, 64, 58
2, 62540, Control_c, 0, 64, 64
2, 62558, Control_c, 0, 64, 68
2, 62577, Note_on_c, 0, 66, 0
2, 62578, Control_c, 0, 64, 73
2, 62597, Control_c, 0, 64, 84
2, 62616, Control_c, 0, 64, 92
2, 62635, Control_c, 0, 64, 96
2, 62655, Control_c, 0, 64, 97
2, 62674, Control_c, 0, 64, 98
2, 62693, Control_c, 0, 64, 99
2, 62712, Control_c, 0, 64, 100
2, 62732, Control_c, 0, 64, 100
2, 62817, Note_on_c, 0, 65, 48
2, 62857, Note_on_c, 0, 65, 0
2, 62866, Control_c, 0, 64, 100
2, 62868, Note_on_c, 0, 66, 59
2, 62884, Control_c, 0, 64, 99
2, 62904, Control_c, 0, 64, 97
2, 62923, Control_c, 0, 64, 94
2, 62936, Note_on_c, 0, 66, 0
2, 62943, Control_c, 0, 64, 91
2, 62958, Note_on_c, 0, 65, 60
2, 62961, Control_c, 0, 64, 87
2, 62981, Control_c, 0, 64, 81
2, 63000, Control_c, 0, 64, 73
2, 63020, Control_c, 0, 64, 65
2, 63038, Control_c, 0, 64, 59
2, 63058, Control_c, 0, 64, 53
2, 63077, Control_c, 0, 64, 50
2, 63096, Control_c, 0, 64, 49
2, 63135, Control_c, 0, 64, 50
2, 63154, Control_c, 0, 64, 52
2, 63173, Control_c, 0, 64, 56
2, 63192, Control_c, 0, 64, 59
2, 63212, Control_c, 0, 64, 61
2, 63230, Control_c, 0, 64, 63
2, 63250, Control_c, 0, 64, 65
2, 63269, Control_c, 0, 64, 67
2, 63288, Control_c, 0, 64, 73
2, 63307, Control_c, 0, 64, 84
2, 63326, Control_c, 0, 64, 100
2, 63346, Control_c, 0, 64, 127
2, 63374, Note_on_c, 0, 41, 0
2, 63460, Note_on_c, 0, 53, 0
2, 63697, Note_on_c, 0, 63, 40
2, 63697, Note_on_c, 0, 65, 0
2, 63708, Note_on_c, 0, 69, 0
2, 63711, Note_on_c, 0, 60, 0
2, 63743, Note_on_c, 0, 63, 0
2, 63998, Control_c, 0, 64, 123
2, 64018, Control_c, 0, 64, 112
2, 64022, Note_on_c, 0, 70, 52
2, 64023, Note_on_c, 0, 53, 38
2, 64025, Note_on_c, 0, 61, 45
2, 64027, Note_on_c, 0, 58, 37
2, 64030, Note_on_c, 0, 46, 34
2, 64037, Control_c, 0, 64, 101
2, 64056, Control_c, 0, 64, 90
2, 64075, Control_c, 0, 64, 78
2, 64095, Control_c, 0, 64, 67
2, 64114, Control_c, 0, 64, 56
2, 64133, Control_c, 0, 64, 44
2, 64153, Control_c, 0, 64, 41
2, 64173, Control_c, 0, 64, 40
2, 64441, Control_c, 0, 64, 41
2, 64460, Control_c, 0, 64, 41
2, 64479, Control_c, 0, 64, 42
2, 64499, Control_c, 0, 64, 44
2, 64518, Control_c, 0, 64, 47
2, 64537, Control_c, 0, 64, 51
2, 64556, Control_c, 0, 64, 55
2, 64575, Control_c, 0, 64, 58
2, 64594, Control_c, 0, 64, 60
2, 64606, Note_on_c, 0, 61, 0
2, 64613, Control_c, 0, 64, 62
2, 64632, Control_c, 0, 64, 63
2, 64652, Control_c, 0, 64, 65
2, 64670, Control_c, 0, 64, 67
2, 64690, Control_c, 0, 64, 71
2, 64709, Control_c, 0, 64, 77
2, 64728, Control_c, 0, 64, 85
2, 64747, Control_c, 0, 64, 94
2, 64766, Control_c, 0, 64, 101
2, 64786, Control_c, 0, 64, 107
2, 64804, Control_c, 0, 64, 113
2, 64824, Control_c, 0, 64, 116
2, 64843, Control_c, 0, 64, 117
2, 64863, Control_c, 0, 64, 119
2, 64881, Control_c, 0, 64, 127
2, 64937, Note_on_c, 0, 72, 54
2, 64949, Note_on_c, 0, 63, 45
2, 64992, Note_on_c, 0, 70, 0
2, 65000, Note_on_c, 0, 63, 0
2, 65000, Note_on_c, 0, 72, 0
2, 65074, Control_c, 0, 64, 123
2, 65093, Control_c, 0, 64, 119
2, 65114, Control_c, 0, 64, 116
2, 65134, Control_c, 0, 64, 112
2, 65152, Control_c, 0, 64, 109
2, 65172, Control_c, 0, 64, 106
2, 65191, Control_c, 0, 64, 102
2, 65210, Control_c, 0, 64, 100
2, 65229, Control_c, 0, 64, 99
2, 65248, Control_c, 0, 64, 97
2, 65268, Control_c, 0, 64, 96
2, 65283, Note_on_c, 0, 65, 37
2, 65286, Control_c, 0, 64, 93
2, 65291, Note_on_c, 0, 70, 46
2, 65306, Control_c, 0, 64, 89
2, 65325, Control_c, 0, 64, 86
2, 65333, Note_on_c, 0, 73, 49
2, 65345, Control_c, 0, 64, 82
2, 65363, Control_c, 0, 64, 76
2, 65383, Control_c, 0, 64, 69
2, 65402, Control_c, 0, 64, 64
2, 65421, Control_c, 0, 64, 57
2, 65440, Control_c, 0, 64, 54
2, 65460, Control_c, 0, 64, 52
2, 65630, Control_c, 0, 64, 53
2, 65650, Control_c, 0, 64, 54
2, 65669, Control_c, 0, 64, 54
2, 65688, Control_c, 0, 64, 55
2, 65726, Control_c, 0, 64, 55
2, 65746, Control_c, 0, 64, 56
2, 65778, Note_on_c, 0, 53, 0
2, 65803, Control_c, 0, 64, 56
2, 65880, Control_c, 0, 64, 57
2, 65918, Control_c, 0, 64, 57
2, 65938, Control_c, 0, 64, 58
2, 65957, Control_c, 0, 64, 59
2, 65957, Control_c, 0, 67, 127
2, 65976, Control_c, 0, 64, 61
2, 65976, Control_c, 0, 67, 123
2, 65995, Control_c, 0, 64, 62
2, 65995, Control_c, 0, 67, 119
2, 66015, Control_c, 0, 64, 63
2, 66015, Control_c, 0, 67, 115
2, 66034, Control_c, 0, 64, 64
2, 66034, Control_c, 0, 67, 111
2, 66053, Control_c, 0, 64, 65
2, 66053, Control_c, 0, 67, 109
2, 66072, Control_c, 0, 64, 66
2, 66072, Control_c, 0, 67, 107
2, 66092, Control_c, 0, 64, 67
2, 66092, Control_c, 0, 67, 106
2, 66110, Control_c, 0, 64, 69
2, 66110, Control_c, 0, 67, 105
2, 66110, Note_on_c, 0, 58, 0
2, 66128, Note_on_c, 0, 46, 0
2, 66130, Control_c, 0, 64, 72
2, 66130, Control_c, 0, 67, 104
2, 66149, Control_c, 0, 64, 76
2, 66168, Control_c, 0, 64, 81
2, 66168, Control_c, 0, 67, 104
2, 66187, Control_c, 0, 64, 85
2, 66206, Control_c, 0, 64, 86
2, 66226, Control_c, 0, 64, 87
2, 66321, Control_c, 0, 64, 86
2, 66342, Note_on_c, 0, 65, 0
2, 66360, Control_c, 0, 64, 86
2, 66363, Note_on_c, 0, 70, 0
2, 66380, Control_c, 0, 64, 85
2, 66384, Note_on_c, 0, 73, 0
2, 66398, Control_c, 0, 64, 85
2, 66401, Note_on_c, 0, 46, 57
2, 66418, Control_c, 0, 64, 84
2, 66437, Control_c, 0, 64, 83
2, 66437, Control_c, 0, 67, 104
2, 66456, Control_c, 0, 64, 83
2, 66475, Control_c, 0, 64, 82
2, 66495, Control_c, 0, 64, 82
2, 66514, Control_c, 0, 64, 81
2, 66533, Control_c, 0, 64, 81
2, 66552, Control_c, 0, 64, 80
2, 66610, Control_c, 0, 64, 80
2, 66629, Control_c, 0, 64, 79
2, 66653, Note_on_c, 0, 65, 17
2, 66688, Note_on_c, 0, 49, 68
2, 66697, Note_on_c, 0, 70, 49
2, 66706, Control_c, 0, 64, 78
2, 66711, Note_on_c, 0, 73, 56
2, 66712, Note_on_c, 0, 46, 0
2, 66724, Control_c, 0, 64, 76
2, 66744, Control_c, 0, 64, 73
2, 66763, Control_c, 0, 64, 69
2, 66783, Control_c, 0, 64, 64
2, 66801, Control_c, 0, 64, 61
2, 66821, Control_c, 0, 64, 55
2, 66840, Control_c, 0, 64, 49
2, 66860, Control_c, 0, 64, 45
2, 66878, Control_c, 0, 64, 45
2, 66917, Control_c, 0, 64, 45
2, 66936, Control_c, 0, 64, 46
2, 66955, Control_c, 0, 64, 48
2, 66975, Control_c, 0, 64, 49
2, 66994, Control_c, 0, 64, 51
2, 66994, Control_c, 0, 67, 104
2, 67013, Control_c, 0, 64, 53
2, 67013, Control_c, 0, 67, 103
2, 67032, Control_c, 0, 64, 54
2, 67052, Control_c, 0, 64, 56
2, 67070, Control_c, 0, 64, 57
2, 67070, Control_c, 0, 67, 102
2, 67090, Control_c, 0, 64, 58
2, 67090, Control_c, 0, 67, 101
2, 67109, Control_c, 0, 64, 59
2, 67109, Control_c, 0, 67, 101
2, 67128, Control_c, 0, 64, 60
2, 67128, Control_c, 0, 67, 97
2, 67147, Control_c, 0, 64, 61
2, 67147, Control_c, 0, 67, 92
2, 67166, Control_c, 0, 64, 61
2, 67166, Control_c, 0, 67, 88
2, 67186, Control_c, 0, 64, 62
2, 67186, Control_c, 0, 67, 84
2, 67204, Control_c, 0, 64, 63
2, 67204, Control_c, 0, 67, 82
2, 67224, Control_c, 0, 64, 64
2, 67243, Control_c, 0, 64, 65
2, 67263, Control_c, 0, 64, 66
2, 67281, Control_c, 0, 64, 67
2, 67281, Control_c, 0, 67, 82
2, 67301, Control_c, 0, 64, 68
2, 67301, Control_c, 0, 67, 83
2, 67320, Control_c, 0, 64, 69
2, 67320, Control_c, 0, 67, 83
2, 67340, Control_c, 0, 64, 70
2, 67340, Control_c, 0, 67, 84
2, 67358, Control_c, 0, 64, 70
2, 67378, Control_c, 0, 64, 71
2, 67416, Control_c, 0, 64, 72
2, 67435, Control_c, 0, 64, 72
2, 67455, Control_c, 0, 64, 73
2, 67455, Control_c, 0, 67, 84
2, 67474, Control_c, 0, 64, 75
2, 67493, Control_c, 0, 64, 79
2, 67512, Control_c, 0, 64, 83
2, 67512, Control_c, 0, 67, 85
2, 67532, Control_c, 0, 64, 87
2, 67550, Control_c, 0, 64, 90
2, 67569, Control_c, 0, 64, 91
2, 67608, Control_c, 0, 64, 91
2, 67627, Control_c, 0, 64, 93
2, 67627, Control_c, 0, 67, 85
2, 67627, Note_on_c, 0, 53, 68
2, 67646, Control_c, 0, 64, 95
2, 67666, Control_c, 0, 64, 96
2, 67704, Control_c, 0, 67, 86
2, 67710, Note_on_c, 0, 49, 0
2, 67723, Control_c, 0, 64, 96
2, 67743, Control_c, 0, 67, 86
2, 67771, Note_on_c, 0, 53, 0
2, 67791, Note_on_c, 0, 65, 0
2, 67820, Control_c, 0, 64, 96
2, 67841, Note_on_c, 0, 70, 0
2, 67877, Control_c, 0, 64, 95
2, 67886, Note_on_c, 0, 73, 0
2, 67896, Control_c, 0, 64, 95
2, 67935, Control_c, 0, 64, 94
2, 67973, Control_c, 0, 64, 93
2, 67993, Control_c, 0, 64, 92
2, 68013, Control_c, 0, 64, 91
2, 68031, Control_c, 0, 64, 90
2, 68051, Control_c, 0, 64, 89
2, 68070, Control_c, 0, 64, 89
2, 68089, Control_c, 0, 64, 88
2, 68106, Note_on_c, 0, 43, 66
2, 68108, Control_c, 0, 64, 86
2, 68127, Control_c, 0, 64, 85
2, 68147, Control_c, 0, 64, 84
2, 68150, Note_on_c, 0, 73, 54
2, 68161, Note_on_c, 0, 70, 52
2, 68165, Control_c, 0, 64, 82
2, 68171, Note_on_c, 0, 64, 44
2, 68185, Control_c, 0, 64, 80
2, 68204, Control_c, 0, 64, 76
2, 68224, Control_c, 0, 64, 69
2, 68242, Control_c, 0, 64, 61
2, 68262, Control_c, 0, 64, 50
2, 68281, Control_c, 0, 64, 46
2, 68300, Control_c, 0, 64, 46
2, 68319, Control_c, 0, 64, 46
2, 68339, Control_c, 0, 67, 87
2, 68377, Control_c, 0, 67, 87
2, 68531, Control_c, 0, 67, 88
2, 68550, Control_c, 0, 67, 89
2, 68569, Control_c, 0, 64, 47
2, 68588, Control_c, 0, 64, 48
2, 68588, Control_c, 0, 67, 90
2, 68607, Control_c, 0, 64, 49
2, 68607, Control_c, 0, 67, 91
2, 68627, Control_c, 0, 64, 51
2, 68627, Control_c, 0, 67, 93
2, 68645, Control_c, 0, 64, 54
2, 68645, Control_c, 0, 67, 95
2, 68665, Control_c, 0, 64, 57
2, 68665, Control_c, 0, 67, 96
2, 68684, Control_c, 0, 64, 59
2, 68684, Control_c, 0, 67, 97
2, 68704, Control_c, 0, 64, 61
2, 68704, Control_c, 0, 67, 99
2, 68722, Control_c, 0, 64, 63
2, 68722, Control_c, 0, 67, 101
2, 68742, Control_c, 0, 64, 64
2, 68742, Control_c, 0, 67, 104
2, 68761, Control_c, 0, 64, 66
2, 68761, Control_c, 0, 67, 106
2, 68780, Control_c, 0, 64, 71
2, 68780, Control_c, 0, 67, 111
2, 68799, Control_c, 0, 64, 78
2, 68799, Control_c, 0, 67, 116
2, 68819, Control_c, 0, 64, 90
2, 68819, Control_c, 0, 67, 120
2, 68838, Control_c, 0, 64, 104
2, 68838, Control_c, 0, 67, 124
2, 68857, Control_c, 0, 64, 119
2, 68857, Control_c, 0, 67, 127
2, 68876, Control_c, 0, 64, 127
2, 68886, Note_on_c, 0, 73, 0
2, 68975, Note_on_c, 0, 70, 0
2, 69115, Note_on_c, 0, 71, 53
2, 69223, Note_on_c, 0, 70, 63
2, 69227, Note_on_c, 0, 71, 0
2, 69248, Note_on_c, 0, 64, 0
2, 69266, Note_on_c, 0, 70, 0
2, 69356, Control_c, 0, 64, 123
2, 69376, Control_c, 0, 64, 114
2, 69393, Control_c, 0, 64, 110
2, 69412, Control_c, 0, 64, 107
2, 69418, Note_on_c, 0, 76, 56
2, 69431, Control_c, 0, 64, 103
2, 69441, Note_on_c, 0, 73, 43
2, 69442, Note_on_c, 0, 70, 44
2, 69451, Control_c, 0, 64, 98
2, 69470, Control_c, 0, 64, 88
2, 69488, Control_c, 0, 64, 78
2, 69508, Control_c, 0, 64, 68
2, 69527, Control_c, 0, 64, 62
2, 69546, Control_c, 0, 64, 56
2, 69565, Control_c, 0, 64, 56
2, 69585, Control_c, 0, 64, 56
2, 69604, Control_c, 0, 64, 57
2, 69642, Control_c, 0, 64, 58
2, 69662, Control_c, 0, 64, 58
2, 69680, Control_c, 0, 64, 59
2, 69700, Control_c, 0, 64, 59
2, 69719, Control_c, 0, 64, 60
2, 69739, Control_c, 0, 64, 60
2, 69757, Control_c, 0, 64, 61
2, 69777, Control_c, 0, 64, 62
2, 69796, Control_c, 0, 64, 62
2, 69815, Control_c, 0, 64, 63
2, 69834, Control_c, 0, 64, 64
2, 69854, Control_c, 0, 64, 64
2, 69873, Control_c, 0, 64, 65
2, 69892, Control_c, 0, 64, 66
2, 69912, Control_c, 0, 64, 68
2, 69932, Control_c, 0, 64, 70
2, 69950, Control_c, 0, 64, 72
2, 69969, Control_c, 0, 64, 76
2, 69989, Control_c, 0, 64, 79
2, 70008, Control_c, 0, 64, 81
2, 70027, Control_c, 0, 64, 81
2, 70141, Note_on_c, 0, 43, 0
2, 70154, Note_on_c, 0, 46, 55
2, 70258, Control_c, 0, 64, 81
2, 70292, Note_on_c, 0, 44, 44
2, 70298, Control_c, 0, 64, 80
2, 70336, Control_c, 0, 64, 79
2, 70343, Note_on_c, 0, 46, 0
2, 70356, Control_c, 0, 64, 79
2, 70371, Note_on_c, 0, 44, 0
2, 70374, Control_c, 0, 64, 78
2, 70378, Note_on_c, 0, 43, 55
2, 70394, Control_c, 0, 64, 78
2, 70433, Control_c, 0, 64, 77
2, 70451, Control_c, 0, 64, 76
2, 70490, Control_c, 0, 64, 76
2, 70528, Control_c, 0, 64, 75
2, 70548, Control_c, 0, 64, 73
2, 70567, Control_c, 0, 64, 71
2, 70583, Note_on_c, 0, 49, 77
2, 70586, Control_c, 0, 64, 68
2, 70605, Control_c, 0, 64, 66
2, 70625, Control_c, 0, 64, 63
2, 70643, Control_c, 0, 64, 58
2, 70646, Note_on_c, 0, 43, 0
2, 70663, Control_c, 0, 64, 50
2, 70682, Control_c, 0, 64, 43
2, 70702, Control_c, 0, 64, 39
2, 70720, Control_c, 0, 64, 38
2, 70797, Control_c, 0, 64, 39
2, 70816, Control_c, 0, 64, 42
2, 70836, Control_c, 0, 64, 44
2, 70854, Control_c, 0, 64, 49
2, 70854, Control_c, 0, 67, 127
2, 70875, Control_c, 0, 64, 52
2, 70875, Control_c, 0, 67, 124
2, 70894, Control_c, 0, 64, 55
2, 70894, Control_c, 0, 67, 121
2, 70913, Control_c, 0, 64, 58
2, 70913, Control_c, 0, 67, 120
2, 70932, Control_c, 0, 64, 60
2, 70932, Control_c, 0, 67, 119
2, 70947, Note_on_c, 0, 70, 0
2, 70952, Control_c, 0, 64, 61
2, 70952, Control_c, 0, 67, 118
2, 70971, Control_c, 0, 64, 63
2, 70971, Control_c, 0, 67, 114
2, 70990, Control_c, 0, 64, 64
2, 70990, Control_c, 0, 67, 106
2, 71009, Control_c, 0, 64, 65
2, 71009, Control_c, 0, 67, 95
2, 71029, Control_c, 0, 64, 68
2, 71029, Control_c, 0, 67, 85
2, 71032, Note_on_c, 0, 76, 0
2, 71048, Control_c, 0, 64, 71
2, 71048, Control_c, 0, 67, 73
2, 71067, Control_c, 0, 64, 78
2, 71067, Control_c, 0, 67, 63
2, 71086, Control_c, 0, 64, 86
2, 71086, Control_c, 0, 67, 53
2, 71097, Note_on_c, 0, 73, 0
2, 71106, Control_c, 0, 64, 94
2, 71106, Control_c, 0, 67, 45
2, 71124, Control_c, 0, 64, 99
2, 71124, Control_c, 0, 67, 37
2, 71144, Control_c, 0, 64, 102
2, 71144, Control_c, 0, 67, 28
2, 71163, Control_c, 0, 64, 106
2, 71163, Control_c, 0, 67, 17
2, 71183, Control_c, 0, 64, 112
2, 71183, Control_c, 0, 67, 0
2, 71201, Control_c, 0, 64, 127
2, 71345, Note_on_c, 0, 75, 73
2, 71468, Note_on_c, 0, 73, 70
2, 71470, Note_on_c, 0, 75, 0
2, 71505, Note_on_c, 0, 73, 0
2, 71753, Note_on_c, 0, 79, 84
2, 71781, Note_on_c, 0, 73, 66
2, 71783, Note_on_c, 0, 70, 68
2, 71795, Control_c, 0, 64, 104
2, 71813, Control_c, 0, 64, 81
2, 71835, Control_c, 0, 64, 67
2, 71854, Control_c, 0, 64, 57
2, 71873, Control_c, 0, 64, 52
2, 71892, Control_c, 0, 64, 53
2, 71912, Control_c, 0, 64, 55
2, 71931, Control_c, 0, 64, 56
2, 71950, Control_c, 0, 64, 58
2, 71969, Control_c, 0, 64, 60
2, 71989, Control_c, 0, 64, 61
2, 72008, Control_c, 0, 64, 61
2, 72066, Control_c, 0, 64, 62
2, 72084, Control_c, 0, 64, 62
2, 72104, Control_c, 0, 64, 63
2, 72123, Control_c, 0, 64, 63
2, 72143, Control_c, 0, 64, 64
2, 72161, Control_c, 0, 64, 64
2, 72180, Control_c, 0, 64, 65
2, 72200, Control_c, 0, 64, 66
2, 72218, Control_c, 0, 64, 67
2, 72238, Control_c, 0, 64, 69
2, 72256, Control_c, 0, 64, 71
2, 72275, Control_c, 0, 64, 75
2, 72293, Control_c, 0, 64, 80
2, 72313, Control_c, 0, 64, 85
2, 72332, Control_c, 0, 64, 89
2, 72352, Control_c, 0, 64, 90
2, 72389, Note_on_c, 0, 49, 0
2, 72443, Note_on_c, 0, 47, 61
2, 72447, Control_c, 0, 64, 89
2, 72467, Control_c, 0, 64, 86
2, 72486, Control_c, 0, 64, 80
2, 72505, Control_c, 0, 64, 70
2, 72524, Control_c, 0, 64, 65
2, 72544, Control_c, 0, 64, 65
2, 72546, Note_on_c, 0, 46, 67
2, 72563, Control_c, 0, 64, 67
2, 72578, Note_on_c, 0, 47, 0
2, 72581, Control_c, 0, 64, 70
2, 72601, Control_c, 0, 64, 75
2, 72620, Control_c, 0, 64, 81
2, 72639, Control_c, 0, 64, 85
2, 72658, Control_c, 0, 64, 86
2, 72697, Control_c, 0, 64, 85
2, 72716, Control_c, 0, 64, 84
2, 72719, Note_on_c, 0, 52, 80
2, 72735, Control_c, 0, 64, 82
2, 72755, Control_c, 0, 64, 78
2, 72773, Control_c, 0, 64, 68
2, 72794, Control_c, 0, 64, 60
2, 72813, Control_c, 0, 64, 41
2, 72833, Control_c, 0, 64, 15
2, 72851, Control_c, 0, 64, 11
2, 72871, Control_c, 0, 64, 17
2, 72890, Control_c, 0, 64, 35
2, 72909, Control_c, 0, 64, 51
2, 72928, Control_c, 0, 64, 60
2, 72948, Control_c, 0, 64, 62
2, 72967, Control_c, 0, 64, 63
2, 73005, Control_c, 0, 64, 63
2, 73043, Control_c, 0, 64, 62
2, 73063, Control_c, 0, 64, 58
2, 73082, Control_c, 0, 64, 49
2, 73101, Control_c, 0, 64, 39
2, 73120, Control_c, 0, 64, 34
2, 73137, Note_on_c, 0, 51, 74
2, 73159, Control_c, 0, 64, 37
2, 73177, Control_c, 0, 64, 49
2, 73184, Note_on_c, 0, 46, 0
2, 73197, Control_c, 0, 64, 59
2, 73215, Control_c, 0, 64, 62
2, 73223, Note_on_c, 0, 52, 0
2, 73236, Control_c, 0, 64, 63
2, 73254, Control_c, 0, 64, 63
2, 73293, Control_c, 0, 64, 64
2, 73313, Control_c, 0, 64, 65
2, 73331, Control_c, 0, 64, 67
2, 73351, Control_c, 0, 64, 69
2, 73370, Control_c, 0, 64, 70
2, 73389, Control_c, 0, 64, 73
2, 73408, Control_c, 0, 64, 76
2, 73410, Note_on_c, 0, 52, 76
2, 73428, Control_c, 0, 64, 80
2, 73447, Control_c, 0, 64, 86
2, 73466, Control_c, 0, 64, 91
2, 73485, Control_c, 0, 64, 92
2, 73491, Note_on_c, 0, 70, 0
2, 73543, Control_c, 0, 64, 93
2, 73600, Control_c, 0, 64, 92
2, 73604, Note_on_c, 0, 73, 0
2, 73619, Control_c, 0, 64, 92
2, 73639, Control_c, 0, 64, 91
2, 73666, Note_on_c, 0, 49, 72
2, 73694, Note_on_c, 0, 77, 77
2, 73716, Control_c, 0, 64, 91
2, 73716, Note_on_c, 0, 51, 0
2, 73734, Control_c, 0, 64, 90
2, 73753, Control_c, 0, 64, 90
2, 73758, Note_on_c, 0, 79, 0
2, 73763, Note_on_c, 0, 52, 0
2, 73772, Control_c, 0, 64, 89
2, 73792, Control_c, 0, 64, 89
2, 73806, Note_on_c, 0, 49, 0
2, 73810, Control_c, 0, 64, 88
2, 73866, Note_on_c, 0, 77, 0
2, 73876, Note_on_c, 0, 75, 67
2, 73907, Control_c, 0, 64, 87
2, 73924, Note_on_c, 0, 75, 0
2, 73945, Control_c, 0, 64, 87
2, 74098, Control_c, 0, 64, 86
2, 74110, Note_on_c, 0, 47, 56
2, 74118, Control_c, 0, 64, 86
2, 74156, Control_c, 0, 64, 85
2, 74164, Note_on_c, 0, 80, 87
2, 74175, Control_c, 0, 64, 83
2, 74186, Note_on_c, 0, 75, 61
2, 74195, Control_c, 0, 64, 81
2, 74199, Note_on_c, 0, 71, 55
2, 74213, Control_c, 0, 64, 76
2, 74233, Control_c, 0, 64, 69
2, 74252, Control_c, 0, 64, 62
2, 74272, Control_c, 0, 64, 50
2, 74290, Control_c, 0, 64, 36
2, 74310, Control_c, 0, 64, 34
2, 74348, Control_c, 0, 64, 36
2, 74367, Control_c, 0, 64, 43
2, 74387, Control_c, 0, 64, 51
2, 74406, Control_c, 0, 64, 57
2, 74425, Control_c, 0, 64, 59
2, 74444, Control_c, 0, 64, 60
2, 74445, Note_on_c, 0, 46, 52
2, 74456, Note_on_c, 0, 47, 0
2, 74464, Control_c, 0, 64, 61
2, 74483, Control_c, 0, 64, 62
2, 74501, Control_c, 0, 64, 63
2, 74521, Control_c, 0, 64, 63
2, 74540, Control_c, 0, 64, 64
2, 74559, Control_c, 0, 64, 64
2, 74578, Control_c, 0, 64, 65
2, 74587, Note_on_c, 0, 44, 56
2, 74593, Note_on_c, 0, 46, 0
2, 74598, Control_c, 0, 64, 66
2, 74617, Control_c, 0, 64, 66
2, 74747, Note_on_c, 0, 46, 60
2, 74845, Control_c, 0, 64, 69
2, 74865, Control_c, 0, 64, 76
2, 74883, Note_on_c, 0, 47, 65
2, 74884, Control_c, 0, 64, 100
2, 74889, Note_on_c, 0, 44, 0
2, 74903, Control_c, 0, 64, 127
2, 74960, Control_c, 0, 64, 95
2, 74980, Control_c, 0, 64, 69
2, 74999, Control_c, 0, 64, 23
2, 75019, Control_c, 0, 64, 0
2, 75029, Note_on_c, 0, 46, 0
2, 75039, Note_on_c, 0, 44, 69
2, 75120, Note_on_c, 0, 47, 0
2, 75170, Control_c, 0, 64, 34
2, 75190, Control_c, 0, 64, 51
2, 75204, Note_on_c, 0, 46, 70
2, 75209, Control_c, 0, 64, 59
2, 75229, Control_c, 0, 64, 62
2, 75247, Control_c, 0, 64, 63
2, 75267, Control_c, 0, 64, 65
2, 75286, Control_c, 0, 64, 68
2, 75305, Control_c, 0, 64, 75
2, 75324, Control_c, 0, 64, 89
2, 75327, Note_on_c, 0, 44, 0
2, 75344, Control_c, 0, 64, 112
2, 75363, Control_c, 0, 64, 127
2, 75365, Note_on_c, 0, 47, 76
2, 75396, Note_on_c, 0, 46, 0
2, 75514, Note_on_c, 0, 71, 0
2, 75536, Note_on_c, 0, 75, 0
2, 75664, Note_on_c, 0, 40, 76
2, 75687, Note_on_c, 0, 47, 0
2, 75728, Control_c, 0, 64, 86
2, 75748, Control_c, 0, 64, 67
2, 75767, Control_c, 0, 64, 44
2, 75777, Note_on_c, 0, 80, 0
2, 75786, Control_c, 0, 64, 0
2, 75825, Control_c, 0, 64, 22
2, 75844, Control_c, 0, 64, 51
2, 75863, Control_c, 0, 64, 61
2, 75882, Control_c, 0, 64, 64
2, 75902, Control_c, 0, 64, 67
2, 75920, Control_c, 0, 64, 71
2, 75940, Control_c, 0, 64, 80
2, 75959, Control_c, 0, 64, 88
2, 75979, Control_c, 0, 64, 93
2, 75997, Control_c, 0, 64, 94
2, 76017, Control_c, 0, 64, 92
2, 76036, Control_c, 0, 64, 85
2, 76055, Control_c, 0, 64, 74
2, 76074, Control_c, 0, 64, 64
2, 76094, Control_c, 0, 64, 57
2, 76113, Control_c, 0, 64, 57
2, 76132, Control_c, 0, 64, 60
2, 76136, Note_on_c, 0, 79, 89
2, 76151, Control_c, 0, 64, 63
2, 76170, Control_c, 0, 64, 66
2, 76190, Control_c, 0, 64, 68
2, 76208, Control_c, 0, 64, 71
2, 76228, Control_c, 0, 64, 76
2, 76247, Control_c, 0, 64, 83
2, 76266, Control_c, 0, 64, 89
2, 76285, Control_c, 0, 64, 92
2, 76439, Control_c, 0, 64, 93
2, 76567, Note_on_c, 0, 80, 94
2, 76691, Control_c, 0, 64, 93
2, 76702, Note_on_c, 0, 40, 0
2, 76729, Note_on_c, 0, 52, 64
2, 76730, Control_c, 0, 64, 94
2, 76865, Control_c, 0, 64, 90
2, 76866, Note_on_c, 0, 51, 65
2, 76883, Control_c, 0, 64, 81
2, 76883, Note_on_c, 0, 82, 87
2, 76887, Note_on_c, 0, 52, 0
2, 76902, Control_c, 0, 64, 69
2, 76922, Control_c, 0, 64, 63
2, 76941, Control_c, 0, 64, 63
2, 76960, Control_c, 0, 64, 64
2, 76965, Note_on_c, 0, 79, 0
2, 76978, Note_on_c, 0, 80, 0
2, 76979, Control_c, 0, 64, 67
2, 76999, Control_c, 0, 64, 71
2, 77017, Control_c, 0, 64, 78
2, 77017, Note_on_c, 0, 49, 67
2, 77033, Note_on_c, 0, 51, 0
2, 77037, Control_c, 0, 64, 91
2, 77053, Control_c, 0, 64, 103
2, 77073, Control_c, 0, 64, 112
2, 77092, Control_c, 0, 64, 113
2, 77188, Control_c, 0, 64, 112
2, 77199, Note_on_c, 0, 82, 0
2, 77207, Control_c, 0, 64, 112
2, 77227, Control_c, 0, 64, 111
2, 77245, Control_c, 0, 64, 110
2, 77265, Control_c, 0, 64, 108
2, 77265, Note_on_c, 0, 49, 0
2, 77284, Control_c, 0, 64, 105
2, 77286, Note_on_c, 0, 51, 53
2, 77302, Control_c, 0, 64, 97
2, 77302, Note_on_c, 0, 82, 71
2, 77322, Control_c, 0, 64, 84
2, 77323, Note_on_c, 0, 79, 44
2, 77329, Note_on_c, 0, 75, 47
2, 77341, Control_c, 0, 64, 72
2, 77361, Control_c, 0, 64, 63
2, 77379, Control_c, 0, 64, 47
2, 77399, Control_c, 0, 64, 29
2, 77418, Control_c, 0, 64, 25
2, 77438, Control_c, 0, 64, 27
2, 77456, Control_c, 0, 64, 38
2, 77456, Control_c, 0, 67, 11
2, 77476, Control_c, 0, 64, 49
2, 77476, Control_c, 0, 67, 16
2, 77495, Control_c, 0, 64, 57
2, 77495, Control_c, 0, 67, 21
2, 77514, Control_c, 0, 64, 60
2, 77514, Control_c, 0, 67, 26
2, 77533, Control_c, 0, 64, 62
2, 77533, Control_c, 0, 67, 31
2, 77553, Control_c, 0, 64, 63
2, 77553, Control_c, 0, 67, 36
2, 77572, Control_c, 0, 64, 64
2, 77572, Control_c, 0, 67, 38
2, 77591, Control_c, 0, 64, 65
2, 77591, Control_c, 0, 67, 39
2, 77611, Control_c, 0, 64, 67
2, 77611, Control_c, 0, 67, 41
2, 77631, Control_c, 0, 64, 71
2, 77635, Note_on_c, 0, 83, 60
2, 77649, Control_c, 0, 64, 76
2, 77649, Control_c, 0, 67, 41
2, 77658, Note_on_c, 0, 82, 0
2, 77669, Control_c, 0, 64, 83
2, 77669, Control_c, 0, 67, 42
2, 77688, Control_c, 0, 64, 90
2, 77688, Control_c, 0, 67, 42
2, 77708, Control_c, 0, 64, 94
2, 77726, Control_c, 0, 64, 98
2, 77746, Control_c, 0, 64, 102
2, 77765, Control_c, 0, 64, 107
2, 77784, Control_c, 0, 64, 119
2, 77784, Control_c, 0, 67, 42
2, 77803, Control_c, 0, 64, 127
2, 77820, Note_on_c, 0, 83, 0
2, 77822, Control_c, 0, 67, 41
2, 77842, Control_c, 0, 67, 41
2, 77845, Note_on_c, 0, 82, 58
2, 77937, Control_c, 0, 67, 41
2, 77957, Control_c, 0, 67, 42
2, 77968, Note_on_c, 0, 82, 0
2, 77972, Note_on_c, 0, 83, 58
2, 77976, Control_c, 0, 67, 44
2, 77995, Control_c, 0, 67, 48
2, 78012, Control_c, 0, 67, 61
2, 78032, Control_c, 0, 67, 82
2, 78051, Control_c, 0, 67, 104
2, 78060, Note_on_c, 0, 83, 0
2, 78070, Control_c, 0, 67, 127
2, 78089, Control_c, 0, 67, 127
2, 78112, Note_on_c, 0, 82, 63
2, 78182, Note_on_c, 0, 82, 0
2, 78220, Note_on_c, 0, 83, 46
2, 78246, Note_on_c, 0, 82, 47
2, 78255, Note_on_c, 0, 83, 0
2, 78276, Note_on_c, 0, 51, 0
2, 78280, Note_on_c, 0, 49, 51
2, 78298, Note_on_c, 0, 82, 0
2, 78349, Note_on_c, 0, 83, 48
2, 78415, Note_on_c, 0, 82, 50
2, 78461, Note_on_c, 0, 75, 0
2, 78608, Control_c, 0, 64, 121
2, 78628, Control_c, 0, 64, 107
2, 78647, Control_c, 0, 64, 100
2, 78665, Note_on_c, 0, 51, 45
2, 78666, Control_c, 0, 64, 94
2, 78681, Note_on_c, 0, 73, 56
2, 78685, Control_c, 0, 64, 88
2, 78690, Note_on_c, 0, 49, 0
2, 78705, Control_c, 0, 64, 82
2, 78724, Control_c, 0, 64, 75
2, 78743, Control_c, 0, 64, 68
2, 78762, Control_c, 0, 64, 63
2, 78782, Control_c, 0, 64, 58
2, 78800, Control_c, 0, 64, 54
2, 78820, Control_c, 0, 64, 52
2, 78839, Control_c, 0, 64, 52
2, 78845, Note_on_c, 0, 83, 0
2, 78859, Control_c, 0, 64, 52
2, 78877, Control_c, 0, 64, 54
2, 78897, Control_c, 0, 64, 58
2, 78916, Control_c, 0, 64, 61
2, 78935, Control_c, 0, 64, 63
2, 78954, Control_c, 0, 64, 64
2, 78974, Control_c, 0, 64, 67
2, 78993, Control_c, 0, 64, 70
2, 79011, Control_c, 0, 64, 75
2, 79031, Control_c, 0, 64, 82
2, 79050, Control_c, 0, 64, 88
2, 79070, Control_c, 0, 64, 91
2, 79146, Control_c, 0, 64, 90
2, 79165, Control_c, 0, 64, 90
2, 79185, Control_c, 0, 64, 89
2, 79204, Control_c, 0, 64, 89
2, 79223, Control_c, 0, 64, 88
2, 79238, Note_on_c, 0, 79, 0
2, 79242, Control_c, 0, 64, 88
2, 79262, Control_c, 0, 64, 87
2, 79280, Control_c, 0, 64, 87
2, 79300, Control_c, 0, 64, 86
2, 79319, Control_c, 0, 64, 86
2, 79339, Control_c, 0, 64, 85
2, 79357, Control_c, 0, 64, 84
2, 79377, Control_c, 0, 64, 82
2, 79396, Control_c, 0, 64, 80
2, 79415, Control_c, 0, 64, 79
2, 79423, Note_on_c, 0, 80, 51
2, 79434, Control_c, 0, 64, 78
2, 79454, Control_c, 0, 64, 77
2, 79473, Control_c, 0, 64, 75
2, 79491, Control_c, 0, 64, 72
2, 79513, Control_c, 0, 64, 68
2, 79533, Control_c, 0, 64, 65
2, 79551, Control_c, 0, 64, 63
2, 79553, Note_on_c, 0, 82, 0
2, 79570, Control_c, 0, 64, 62
2, 79590, Control_c, 0, 64, 61
2, 79609, Control_c, 0, 64, 61
2, 79628, Control_c, 0, 64, 60
2, 79647, Control_c, 0, 64, 59
2, 79667, Control_c, 0, 64, 58
2, 79685, Control_c, 0, 64, 57
2, 79705, Control_c, 0, 64, 56
2, 79762, Control_c, 0, 64, 57
2, 79782, Control_c, 0, 64, 58
2, 79782, Note_on_c, 0, 39, 45
2, 79801, Control_c, 0, 64, 60
2, 79820, Control_c, 0, 64, 62
2, 79839, Control_c, 0, 64, 63
2, 79859, Control_c, 0, 64, 65
2, 79878, Control_c, 0, 64, 66
2, 79897, Control_c, 0, 64, 69
2, 79916, Control_c, 0, 64, 74
2, 79931, Control_c, 0, 64, 84
2, 79951, Control_c, 0, 64, 92
2, 79964, Note_on_c, 0, 80, 0
2, 79970, Control_c, 0, 64, 95
2, 79976, Note_on_c, 0, 73, 0
2, 79989, Control_c, 0, 64, 96
2, 80066, Control_c, 0, 64, 95
2, 80072, Note_on_c, 0, 51, 0
2, 80085, Control_c, 0, 64, 95
2, 80105, Control_c, 0, 64, 94
2, 80123, Control_c, 0, 64, 94
2, 80143, Control_c, 0, 64, 93
2, 80162, Control_c, 0, 64, 91
2, 80181, Control_c, 0, 64, 89
2, 80200, Control_c, 0, 64, 87
2, 80220, Control_c, 0, 64, 86
2, 80239, Control_c, 0, 64, 85
2, 80258, Control_c, 0, 64, 83
2, 80258, Note_on_c, 0, 39, 0
2, 80277, Control_c, 0, 64, 79
2, 80287, Note_on_c, 0, 80, 46
2, 80297, Control_c, 0, 64, 75
2, 80300, Note_on_c, 0, 44, 36
2, 80300, Note_on_c, 0, 75, 39
2, 80309, Note_on_c, 0, 71, 32
2, 80315, Control_c, 0, 64, 70
2, 80335, Control_c, 0, 64, 66
2, 80354, Control_c, 0, 64, 61
2, 80374, Control_c, 0, 64, 59
2, 80392, Control_c, 0, 64, 57
2, 80411, Control_c, 0, 64, 55
2, 80431, Control_c, 0, 64, 55
2, 80450, Control_c, 0, 64, 54
2, 80472, Control_c, 0, 64, 54
2, 80491, Control_c, 0, 64, 53
2, 80549, Control_c, 0, 64, 53
2, 80683, Control_c, 0, 64, 53
2, 80760, Control_c, 0, 64, 54
2, 80837, Control_c, 0, 64, 54
2, 80856, Control_c, 0, 64, 55
2, 80894, Control_c, 0, 64, 55
2, 80913, Control_c, 0, 64, 56
2, 80931, Control_c, 0, 64, 56
2, 80970, Control_c, 0, 64, 57
2, 80987, Note_on_c, 0, 71, 0
2, 80990, Control_c, 0, 64, 57
2, 81019, Note_on_c, 0, 75, 0
2, 81028, Control_c, 0, 64, 58
2, 81047, Control_c, 0, 64, 58
2, 81066, Control_c, 0, 64, 59
2, 81124, Control_c, 0, 64, 59
2, 81162, Control_c, 0, 64, 60
2, 81169, Note_on_c, 0, 80, 0
2, 81182, Control_c, 0, 64, 60
2, 81200, Control_c, 0, 64, 61
2, 81239, Control_c, 0, 64, 61
2, 81259, Control_c, 0, 64, 62
2, 81297, Control_c, 0, 64, 62
2, 81335, Control_c, 0, 64, 63
2, 81348, Note_on_c, 0, 44, 0
2, 81393, Control_c, 0, 64, 63
2, 81411, Control_c, 0, 64, 64
2, 81431, Control_c, 0, 64, 64
2, 81450, Control_c, 0, 67, 126
2, 81470, Control_c, 0, 64, 65
2, 81470, Control_c, 0, 67, 124
2, 81488, Control_c, 0, 67, 122
2, 81508, Control_c, 0, 64, 65
2, 81508, Control_c, 0, 67, 120
2, 81525, Note_on_c, 0, 83, 85
2, 81527, Control_c, 0, 64, 66
2, 81527, Control_c, 0, 67, 119
2, 81546, Control_c, 0, 67, 119
2, 81565, Control_c, 0, 67, 118
2, 81757, Control_c, 0, 67, 119
2, 81874, Control_c, 0, 67, 119
2, 81907, Note_on_c, 0, 77, 74
2, 81912, Control_c, 0, 64, 65
2, 81931, Control_c, 0, 64, 64
2, 81931, Control_c, 0, 67, 120
2, 81950, Control_c, 0, 64, 64
2, 81969, Control_c, 0, 64, 63
2, 81986, Note_on_c, 0, 83, 0
2, 81989, Control_c, 0, 64, 62
2, 82008, Control_c, 0, 64, 61
2, 82027, Control_c, 0, 64, 61
2, 82046, Control_c, 0, 64, 60
2, 82066, Control_c, 0, 64, 60
2, 82085, Control_c, 0, 64, 59
2, 82104, Control_c, 0, 64, 59
2, 82123, Control_c, 0, 64, 58
2, 82143, Control_c, 0, 64, 58
2, 82277, Control_c, 0, 64, 58
2, 82277, Control_c, 0, 67, 120
2, 82296, Control_c, 0, 64, 59
2, 82335, Control_c, 0, 64, 59
2, 82354, Control_c, 0, 64, 60
2, 82373, Control_c, 0, 64, 60
2, 82392, Control_c, 0, 64, 61
2, 82411, Control_c, 0, 64, 62
2, 82430, Control_c, 0, 64, 63
2, 82449, Control_c, 0, 64, 63
2, 82469, Control_c, 0, 64, 64
2, 82488, Control_c, 0, 64, 65
2, 82507, Control_c, 0, 64, 66
2, 82526, Control_c, 0, 64, 67
2, 82546, Control_c, 0, 64, 68
2, 82565, Control_c, 0, 64, 70
2, 82565, Control_c, 0, 67, 120
2, 82584, Control_c, 0, 64, 73
2, 82603, Control_c, 0, 64, 77
2, 82623, Control_c, 0, 64, 82
2, 82623, Control_c, 0, 67, 119
2, 82641, Control_c, 0, 64, 86
2, 82641, Control_c, 0, 67, 118
2, 82661, Control_c, 0, 64, 91
2, 82661, Control_c, 0, 67, 116
2, 82680, Control_c, 0, 64, 95
2, 82680, Control_c, 0, 67, 115
2, 82700, Control_c, 0, 64, 98
2, 82700, Control_c, 0, 67, 108
2, 82718, Control_c, 0, 64, 100
2, 82718, Control_c, 0, 67, 96
2, 82738, Control_c, 0, 64, 101
2, 82738, Control_c, 0, 67, 85
2, 82757, Control_c, 0, 64, 103
2, 82757, Control_c, 0, 67, 78
2, 82776, Control_c, 0, 64, 104
2, 82776, Control_c, 0, 67, 75
2, 82795, Control_c, 0, 64, 104
2, 82815, Control_c, 0, 67, 76
2, 82851, Control_c, 0, 67, 76
2, 82890, Control_c, 0, 67, 77
2, 82928, Control_c, 0, 64, 103
2, 82948, Control_c, 0, 64, 103
2, 82960, Note_on_c, 0, 78, 58
2, 82961, Note_on_c, 0, 59, 78
2, 82967, Control_c, 0, 64, 102
2, 82967, Control_c, 0, 67, 77
2, 82986, Control_c, 0, 64, 101
2, 83005, Control_c, 0, 64, 100
2, 83025, Control_c, 0, 64, 99
2, 83025, Control_c, 0, 67, 78
2, 83044, Control_c, 0, 64, 97
2, 83063, Control_c, 0, 64, 95
2, 83082, Control_c, 0, 64, 93
2, 83082, Control_c, 0, 67, 78
2, 83102, Control_c, 0, 64, 90
2, 83120, Control_c, 0, 64, 87
2, 83121, Note_on_c, 0, 80, 64
2, 83140, Control_c, 0, 64, 85
2, 83159, Control_c, 0, 64, 82
2, 83171, Note_on_c, 0, 78, 0
2, 83179, Control_c, 0, 64, 80
2, 83180, Note_on_c, 0, 77, 0
2, 83197, Control_c, 0, 64, 78
2, 83217, Control_c, 0, 64, 75
2, 83236, Control_c, 0, 64, 72
2, 83236, Control_c, 0, 67, 78
2, 83255, Control_c, 0, 64, 70
2, 83274, Control_c, 0, 64, 68
2, 83294, Control_c, 0, 64, 66
2, 83304, Note_on_c, 0, 80, 0
2, 83313, Control_c, 0, 64, 65
2, 83313, Control_c, 0, 67, 78
2, 83315, Note_on_c, 0, 53, 60
2, 83331, Control_c, 0, 64, 64
2, 83348, Note_on_c, 0, 74, 51
2, 83351, Control_c, 0, 64, 63
2, 83370, Control_c, 0, 64, 62
2, 83390, Control_c, 0, 64, 61
2, 83408, Control_c, 0, 64, 60
2, 83428, Control_c, 0, 64, 59
2, 83432, Note_on_c, 0, 59, 0
2, 83447, Control_c, 0, 64, 58
2, 83466, Control_c, 0, 64, 58
2, 83485, Control_c, 0, 64, 57
2, 83543, Control_c, 0, 67, 79
2, 83677, Control_c, 0, 64, 58
2, 83697, Control_c, 0, 67, 78
2, 83754, Control_c, 0, 64, 58
2, 83774, Control_c, 0, 64, 59
2, 83811, Control_c, 0, 64, 59
2, 83831, Control_c, 0, 64, 60
2, 83850, Control_c, 0, 67, 78
2, 83870, Control_c, 0, 64, 60
2, 83888, Control_c, 0, 64, 61
2, 83908, Control_c, 0, 64, 61
2, 83946, Control_c, 0, 64, 62
2, 83946, Control_c, 0, 67, 77
2, 83965, Control_c, 0, 64, 62
2, 84004, Control_c, 0, 64, 63
2, 84023, Control_c, 0, 67, 77
2, 84100, Control_c, 0, 67, 76
2, 84119, Control_c, 0, 67, 76
2, 84139, Control_c, 0, 64, 63
2, 84157, Control_c, 0, 67, 75
2, 84177, Control_c, 0, 64, 64
2, 84196, Control_c, 0, 64, 65
2, 84196, Control_c, 0, 67, 75
2, 84216, Control_c, 0, 64, 66
2, 84216, Control_c, 0, 67, 74
2, 84234, Control_c, 0, 64, 69
2, 84234, Control_c, 0, 67, 74
2, 84254, Control_c, 0, 64, 72
2, 84254, Control_c, 0, 67, 73
2, 84273, Control_c, 0, 64, 77
2, 84273, Control_c, 0, 67, 72
2, 84291, Control_c, 0, 64, 83
2, 84291, Control_c, 0, 67, 67
2, 84312, Control_c, 0, 64, 90
2, 84312, Control_c, 0, 67, 63
2, 84316, Note_on_c, 0, 54, 64
2, 84331, Control_c, 0, 64, 96
2, 84331, Control_c, 0, 67, 60
2, 84337, Note_on_c, 0, 75, 62
2, 84350, Control_c, 0, 64, 98
2, 84350, Control_c, 0, 67, 59
2, 84369, Control_c, 0, 67, 58
2, 84389, Note_on_c, 0, 74, 0
2, 84400, Note_on_c, 0, 53, 0
2, 84427, Control_c, 0, 67, 57
2, 84452, Note_on_c, 0, 56, 74
2, 84480, Note_on_c, 0, 54, 0
2, 84481, Note_on_c, 0, 77, 62
2, 84504, Control_c, 0, 64, 97
2, 84504, Control_c, 0, 67, 58
2, 84523, Control_c, 0, 64, 95
2, 84540, Note_on_c, 0, 75, 0
2, 84543, Control_c, 0, 64, 93
2, 84561, Control_c, 0, 64, 90
2, 84581, Control_c, 0, 64, 87
2, 84600, Control_c, 0, 64, 85
2, 84620, Control_c, 0, 64, 80
2, 84638, Control_c, 0, 64, 76
2, 84658, Control_c, 0, 64, 71
2, 84677, Control_c, 0, 64, 66
2, 84677, Note_on_c, 0, 56, 0
2, 84696, Control_c, 0, 64, 63
2, 84697, Note_on_c, 0, 77, 0
2, 84703, Note_on_c, 0, 50, 59
2, 84709, Note_on_c, 0, 70, 55
2, 84715, Control_c, 0, 64, 61
2, 84734, Control_c, 0, 64, 60
2, 84753, Control_c, 0, 64, 59
2, 84771, Control_c, 0, 64, 59
2, 84791, Control_c, 0, 64, 58
2, 84810, Control_c, 0, 64, 57
2, 84848, Control_c, 0, 64, 57
2, 85060, Control_c, 0, 64, 57
2, 85079, Control_c, 0, 67, 57
2, 85099, Control_c, 0, 64, 58
2, 85117, Control_c, 0, 64, 59
2, 85117, Control_c, 0, 67, 57
2, 85137, Control_c, 0, 64, 59
2, 85137, Control_c, 0, 67, 56
2, 85156, Control_c, 0, 64, 60
2, 85156, Control_c, 0, 67, 56
2, 85176, Control_c, 0, 64, 61
2, 85176, Control_c, 0, 67, 55
2, 85194, Control_c, 0, 64, 62
2, 85194, Control_c, 0, 67, 55
2, 85214, Control_c, 0, 64, 63
2, 85214, Control_c, 0, 67, 52
2, 85233, Control_c, 0, 64, 64
2, 85233, Control_c, 0, 67, 46
2, 85251, Control_c, 0, 64, 66
2, 85251, Control_c, 0, 67, 40
2, 85272, Control_c, 0, 64, 68
2, 85272, Control_c, 0, 67, 36
2, 85291, Control_c, 0, 64, 71
2, 85291, Control_c, 0, 67, 35
2, 85310, Control_c, 0, 64, 76
2, 85310, Control_c, 0, 67, 34
2, 85329, Control_c, 0, 64, 83
2, 85349, Control_c, 0, 64, 91
2, 85368, Control_c, 0, 64, 97
2, 85368, Control_c, 0, 67, 34
2, 85387, Control_c, 0, 64, 98
2, 85521, Control_c, 0, 64, 97
2, 85541, Control_c, 0, 64, 96
2, 85560, Control_c, 0, 64, 95
2, 85580, Control_c, 0, 64, 93
2, 85598, Control_c, 0, 64, 91
2, 85618, Control_c, 0, 64, 85
2, 85637, Control_c, 0, 64, 78
2, 85656, Control_c, 0, 64, 71
2, 85675, Control_c, 0, 64, 66
2, 85694, Control_c, 0, 64, 65
2, 85704, Note_on_c, 0, 50, 0
2, 85711, Control_c, 0, 64, 66
2, 85722, Note_on_c, 0, 51, 42
2, 85730, Control_c, 0, 64, 67
2, 85749, Control_c, 0, 64, 69
2, 85749, Control_c, 0, 67, 33
2, 85768, Control_c, 0, 64, 71
2, 85768, Control_c, 0, 67, 33
2, 85769, Note_on_c, 0, 80, 80
2, 85788, Control_c, 0, 64, 73
2, 85806, Control_c, 0, 64, 75
2, 85806, Control_c, 0, 67, 32
2, 85826, Control_c, 0, 64, 76
2, 85845, Control_c, 0, 67, 31
2, 85865, Control_c, 0, 64, 77
2, 85865, Control_c, 0, 67, 30
2, 85883, Control_c, 0, 67, 29
2, 85891, Note_on_c, 0, 51, 0
2, 85902, Note_on_c, 0, 53, 56
2, 85903, Control_c, 0, 67, 28
2, 85922, Control_c, 0, 64, 76
2, 85922, Control_c, 0, 67, 27
2, 85960, Control_c, 0, 67, 27
2, 85999, Control_c, 0, 64, 76
2, 86037, Control_c, 0, 64, 75
2, 86057, Control_c, 0, 64, 75
2, 86066, Note_on_c, 0, 70, 0
2, 86075, Control_c, 0, 64, 74
2, 86089, Note_on_c, 0, 53, 0
2, 86095, Control_c, 0, 64, 73
2, 86114, Control_c, 0, 64, 71
2, 86116, Note_on_c, 0, 46, 38
2, 86134, Control_c, 0, 64, 68
2, 86136, Note_on_c, 0, 74, 60
2, 86152, Control_c, 0, 64, 65
2, 86171, Control_c, 0, 64, 62
2, 86191, Control_c, 0, 64, 56
2, 86210, Control_c, 0, 64, 50
2, 86230, Control_c, 0, 64, 46
2, 86249, Control_c, 0, 64, 44
2, 86269, Control_c, 0, 64, 43
2, 86431, Note_on_c, 0, 80, 0
2, 86441, Control_c, 0, 64, 43
2, 86461, Control_c, 0, 64, 44
2, 86461, Control_c, 0, 67, 26
2, 86480, Control_c, 0, 64, 44
2, 86499, Control_c, 0, 64, 45
2, 86499, Control_c, 0, 67, 25
2, 86518, Control_c, 0, 64, 46
2, 86538, Control_c, 0, 64, 48
2, 86538, Control_c, 0, 67, 25
2, 86556, Control_c, 0, 64, 49
2, 86556, Control_c, 0, 67, 24
2, 86576, Control_c, 0, 64, 50
2, 86576, Control_c, 0, 67, 20
2, 86595, Control_c, 0, 64, 51
2, 86595, Control_c, 0, 67, 13
2, 86615, Control_c, 0, 64, 52
2, 86615, Control_c, 0, 67, 0
2, 86633, Control_c, 0, 64, 54
2, 86652, Control_c, 0, 64, 55
2, 86673, Control_c, 0, 64, 55
2, 86691, Control_c, 0, 64, 56
2, 86807, Control_c, 0, 64, 56
2, 86826, Control_c, 0, 64, 57
2, 86845, Control_c, 0, 64, 57
2, 86865, Control_c, 0, 64, 58
2, 86884, Control_c, 0, 64, 59
2, 86903, Control_c, 0, 64, 60
2, 86922, Control_c, 0, 64, 62
2, 86942, Control_c, 0, 64, 63
2, 86960, Control_c, 0, 64, 64
2, 86980, Control_c, 0, 64, 64
2, 86999, Control_c, 0, 64, 65
2, 87019, Control_c, 0, 64, 67
2, 87037, Control_c, 0, 64, 68
2, 87049, Note_on_c, 0, 75, 52
2, 87057, Control_c, 0, 64, 71
2, 87071, Note_on_c, 0, 56, 60
2, 87076, Control_c, 0, 64, 73
2, 87096, Control_c, 0, 64, 76
2, 87114, Control_c, 0, 64, 77
2, 87134, Control_c, 0, 64, 77
2, 87153, Control_c, 0, 64, 77
2, 87198, Control_c, 0, 64, 76
2, 87227, Note_on_c, 0, 75, 0
2, 87230, Note_on_c, 0, 77, 55
2, 87236, Control_c, 0, 64, 76
2, 87256, Control_c, 0, 64, 75
2, 87270, Note_on_c, 0, 74, 0
2, 87275, Control_c, 0, 64, 74
2, 87294, Control_c, 0, 64, 73
2, 87313, Control_c, 0, 64, 73
2, 87332, Control_c, 0, 64, 72
2, 87351, Control_c, 0, 64, 71
2, 87370, Control_c, 0, 64, 70
2, 87390, Control_c, 0, 64, 68
2, 87409, Control_c, 0, 64, 66
2, 87410, Note_on_c, 0, 50, 51
2, 87428, Control_c, 0, 64, 65
2, 87447, Control_c, 0, 64, 64
2, 87456, Note_on_c, 0, 46, 0
2, 87456, Note_on_c, 0, 70, 45
2, 87467, Control_c, 0, 64, 63
2, 87485, Control_c, 0, 64, 62
2, 87497, Note_on_c, 0, 77, 0
2, 87505, Control_c, 0, 64, 60
2, 87524, Control_c, 0, 64, 58
2, 87544, Control_c, 0, 64, 57
2, 87558, Note_on_c, 0, 56, 0
2, 87562, Control_c, 0, 64, 56
2, 87582, Control_c, 0, 64, 56
2, 87614, Control_c, 0, 64, 55
2, 87651, Control_c, 0, 64, 55
2, 87805, Control_c, 0, 64, 55
2, 87863, Control_c, 0, 64, 56
2, 87920, Control_c, 0, 64, 56
2, 87940, Control_c, 0, 64, 57
2, 87959, Control_c, 0, 64, 58
2, 87979, Control_c, 0, 64, 60
2, 87997, Control_c, 0, 64, 61
2, 88017, Control_c, 0, 64, 62
2, 88036, Control_c, 0, 64, 62
2, 88056, Control_c, 0, 64, 63
2, 88094, Control_c, 0, 64, 62
2, 88113, Control_c, 0, 64, 62
2, 88170, Control_c, 0, 64, 62
2, 88190, Control_c, 0, 64, 63
2, 88208, Control_c, 0, 64, 63
2, 88228, Control_c, 0, 64, 64
2, 88247, Control_c, 0, 64, 65
2, 88266, Control_c, 0, 64, 66
2, 88285, Control_c, 0, 64, 67
2, 88305, Control_c, 0, 64, 70
2, 88324, Control_c, 0, 64, 74
2, 88337, Note_on_c, 0, 50, 0
2, 88343, Control_c, 0, 64, 79
2, 88354, Note_on_c, 0, 51, 47
2, 88362, Control_c, 0, 64, 84
2, 88367, Note_on_c, 0, 72, 56
2, 88382, Control_c, 0, 64, 87
2, 88400, Control_c, 0, 64, 88
2, 88445, Note_on_c, 0, 70, 0
2, 88528, Note_on_c, 0, 53, 56
2, 88537, Note_on_c, 0, 74, 58
2, 88540, Note_on_c, 0, 51, 0
2, 88573, Control_c, 0, 64, 87
2, 88582, Note_on_c, 0, 53, 0
2, 88590, Note_on_c, 0, 72, 0
2, 88593, Control_c, 0, 64, 87
2, 88650, Control_c, 0, 64, 86
2, 88842, Control_c, 0, 64, 86
2, 88862, Control_c, 0, 64, 85
2, 88880, Control_c, 0, 64, 85
2, 88889, Note_on_c, 0, 42, 61
2, 88900, Control_c, 0, 64, 84
2, 88919, Control_c, 0, 64, 83
2, 88939, Control_c, 0, 64, 81
2, 88957, Control_c, 0, 64, 78
2, 88972, Note_on_c, 0, 75, 53
2, 88977, Control_c, 0, 64, 74
2, 88996, Control_c, 0, 64, 69
2, 89016, Control_c, 0, 64, 63
2, 89034, Control_c, 0, 64, 58
2, 89053, Control_c, 0, 64, 55
2, 89073, Control_c, 0, 64, 55
2, 89091, Control_c, 0, 64, 54
2, 89110, Control_c, 0, 64, 53
2, 89129, Control_c, 0, 64, 53
2, 89129, Note_on_c, 0, 74, 0
2, 89149, Control_c, 0, 64, 52
2, 89187, Control_c, 0, 64, 51
2, 89283, Control_c, 0, 64, 52
2, 89302, Control_c, 0, 64, 52
2, 89341, Control_c, 0, 64, 53
2, 89360, Control_c, 0, 64, 53
2, 89379, Control_c, 0, 64, 54
2, 89398, Control_c, 0, 64, 54
2, 89418, Control_c, 0, 64, 55
2, 89436, Control_c, 0, 64, 55
2, 89456, Control_c, 0, 64, 56
2, 89475, Control_c, 0, 64, 57
2, 89495, Control_c, 0, 64, 57
2, 89513, Control_c, 0, 64, 58
2, 89534, Control_c, 0, 64, 59
2, 89554, Control_c, 0, 64, 60
2, 89573, Control_c, 0, 64, 61
2, 89592, Control_c, 0, 64, 62
2, 89611, Control_c, 0, 64, 63
2, 89631, Control_c, 0, 64, 64
2, 89649, Control_c, 0, 64, 65
2, 89669, Control_c, 0, 64, 67
2, 89688, Control_c, 0, 64, 70
2, 89688, Control_c, 0, 67, 9
2, 89708, Control_c, 0, 64, 79
2, 89708, Control_c, 0, 67, 23
2, 89726, Control_c, 0, 64, 90
2, 89726, Control_c, 0, 67, 42
2, 89746, Control_c, 0, 64, 104
2, 89746, Control_c, 0, 67, 68
2, 89765, Control_c, 0, 64, 119
2, 89765, Control_c, 0, 67, 94
2, 89783, Control_c, 0, 64, 127
2, 89783, Control_c, 0, 67, 123
2, 89803, Control_c, 0, 67, 127
2, 90022, Note_on_c, 0, 73, 36
2, 90053, Control_c, 0, 64, 121
2, 90072, Control_c, 0, 64, 116
2, 90084, Note_on_c, 0, 42, 0
2, 90091, Control_c, 0, 64, 112
2, 90111, Control_c, 0, 64, 107
2, 90129, Control_c, 0, 64, 104
2, 90149, Control_c, 0, 64, 101
2, 90166, Note_on_c, 0, 71, 53
2, 90168, Control_c, 0, 64, 99
2, 90188, Control_c, 0, 64, 97
2, 90197, Note_on_c, 0, 73, 0
2, 90206, Control_c, 0, 64, 96
2, 90226, Control_c, 0, 64, 94
2, 90245, Control_c, 0, 64, 92
2, 90263, Control_c, 0, 64, 90
2, 90283, Control_c, 0, 64, 89
2, 90302, Control_c, 0, 64, 87
2, 90322, Control_c, 0, 64, 84
2, 90340, Control_c, 0, 64, 80
2, 90360, Control_c, 0, 64, 74
2, 90365, Note_on_c, 0, 43, 38
2, 90376, Note_on_c, 0, 73, 44
2, 90379, Control_c, 0, 64, 67
2, 90398, Control_c, 0, 64, 59
2, 90403, Note_on_c, 0, 71, 0
2, 90417, Control_c, 0, 64, 54
2, 90437, Control_c, 0, 64, 51
2, 90456, Control_c, 0, 64, 51
2, 90475, Control_c, 0, 64, 50
2, 90514, Control_c, 0, 64, 50
2, 90609, Control_c, 0, 64, 50
2, 90629, Control_c, 0, 64, 51
2, 90631, Note_on_c, 0, 75, 0
2, 90648, Control_c, 0, 64, 52
2, 90668, Control_c, 0, 64, 55
2, 90686, Control_c, 0, 64, 57
2, 90706, Control_c, 0, 64, 60
2, 90725, Control_c, 0, 64, 62
2, 90743, Control_c, 0, 64, 63
2, 90763, Control_c, 0, 64, 65
2, 90782, Control_c, 0, 64, 66
2, 90802, Control_c, 0, 64, 71
2, 90820, Control_c, 0, 64, 78
2, 90840, Control_c, 0, 64, 89
2, 90859, Control_c, 0, 64, 100
2, 90878, Control_c, 0, 64, 106
2, 90897, Control_c, 0, 64, 107
2, 90953, Note_on_c, 0, 43, 0
2, 91184, Note_on_c, 0, 73, 0
2, 91208, Control_c, 0, 64, 107
2, 91246, Control_c, 0, 64, 106
2, 91266, Control_c, 0, 64, 106
2, 91303, Control_c, 0, 64, 105
2, 91342, Control_c, 0, 64, 104
2, 91361, Control_c, 0, 64, 104
2, 91380, Control_c, 0, 64, 103
2, 91389, Note_on_c, 0, 58, 41
2, 91400, Control_c, 0, 64, 103
2, 91418, Control_c, 0, 64, 102
2, 91455, Control_c, 0, 64, 102
2, 91475, Control_c, 0, 64, 100
2, 91493, Control_c, 0, 64, 99
2, 91513, Control_c, 0, 64, 98
2, 91570, Control_c, 0, 64, 97
2, 91590, Control_c, 0, 64, 95
2, 91609, Control_c, 0, 64, 93
2, 91628, Control_c, 0, 64, 92
2, 91647, Control_c, 0, 64, 91
2, 91667, Control_c, 0, 64, 90
2, 91686, Control_c, 0, 64, 89
2, 91702, Note_on_c, 0, 55, 47
2, 91704, Control_c, 0, 64, 86
2, 91708, Note_on_c, 0, 63, 42
2, 91711, Note_on_c, 0, 58, 0
2, 91724, Control_c, 0, 64, 84
2, 91741, Note_on_c, 0, 70, 43
2, 91743, Control_c, 0, 64, 81
2, 91763, Control_c, 0, 64, 78
2, 91772, Note_on_c, 0, 73, 42
2, 91781, Control_c, 0, 64, 74
2, 91801, Control_c, 0, 64, 69
2, 91820, Control_c, 0, 64, 64
2, 91839, Control_c, 0, 64, 60
2, 91858, Control_c, 0, 64, 56
2, 91878, Control_c, 0, 64, 53
2, 91897, Control_c, 0, 64, 52
2, 91916, Control_c, 0, 64, 52
2, 91935, Control_c, 0, 64, 51
2, 91955, Control_c, 0, 64, 50
2, 91973, Control_c, 0, 64, 50
2, 91993, Control_c, 0, 64, 49
2, 92127, Control_c, 0, 64, 50
2, 92147, Control_c, 0, 64, 50
2, 92166, Control_c, 0, 64, 51
2, 92184, Control_c, 0, 64, 53
2, 92204, Control_c, 0, 64, 54
2, 92223, Control_c, 0, 64, 55
2, 92243, Control_c, 0, 64, 56
2, 92261, Control_c, 0, 64, 57
2, 92281, Control_c, 0, 64, 58
2, 92300, Control_c, 0, 64, 60
2, 92319, Control_c, 0, 64, 62
2, 92338, Control_c, 0, 64, 63
2, 92358, Control_c, 0, 64, 64
2, 92377, Control_c, 0, 64, 64
2, 92396, Control_c, 0, 64, 65
2, 92415, Control_c, 0, 64, 67
2, 92435, Control_c, 0, 64, 70
2, 92453, Control_c, 0, 64, 75
2, 92473, Control_c, 0, 64, 82
2, 92492, Control_c, 0, 64, 88
2, 92492, Control_c, 0, 67, 125
2, 92512, Control_c, 0, 64, 93
2, 92512, Control_c, 0, 67, 123
2, 92530, Control_c, 0, 64, 96
2, 92530, Control_c, 0, 67, 123
2, 92550, Control_c, 0, 64, 97
2, 92550, Control_c, 0, 67, 122
2, 92569, Control_c, 0, 64, 97
2, 92607, Note_on_c, 0, 51, 49
2, 92619, Note_on_c, 0, 55, 0
2, 92627, Control_c, 0, 64, 98
2, 92664, Control_c, 0, 64, 98
2, 92684, Control_c, 0, 67, 122
2, 92783, Note_on_c, 0, 51, 0
2, 92818, Control_c, 0, 64, 98
2, 92835, Note_on_c, 0, 63, 0
2, 92838, Control_c, 0, 64, 97
2, 92876, Control_c, 0, 64, 97
2, 92895, Control_c, 0, 64, 96
2, 92915, Control_c, 0, 64, 96
2, 92933, Control_c, 0, 64, 95
2, 92937, Note_on_c, 0, 73, 0
2, 92953, Control_c, 0, 64, 95
2, 92953, Control_c, 0, 67, 122
2, 92953, Note_on_c, 0, 70, 0
2, 92972, Control_c, 0, 64, 94
2, 92992, Control_c, 0, 64, 93
2, 93010, Control_c, 0, 64, 92
2, 93030, Control_c, 0, 64, 90
2, 93034, Note_on_c, 0, 44, 60
2, 93049, Control_c, 0, 64, 89
2, 93068, Control_c, 0, 64, 88
2, 93087, Control_c, 0, 64, 87
2, 93095, Note_on_c, 0, 63, 34
2, 93107, Control_c, 0, 64, 86
2, 93126, Control_c, 0, 64, 85
2, 93144, Control_c, 0, 64, 82
2, 93164, Control_c, 0, 64, 79
2, 93183, Control_c, 0, 64, 76
2, 93194, Note_on_c, 0, 70, 45
2, 93203, Control_c, 0, 64, 70
2, 93221, Control_c, 0, 64, 65
2, 93241, Control_c, 0, 64, 58
2, 93260, Control_c, 0, 64, 51
2, 93275, Note_on_c, 0, 73, 56
2, 93279, Control_c, 0, 64, 46
2, 93298, Control_c, 0, 64, 45
2, 93318, Control_c, 0, 67, 123
2, 93337, Control_c, 0, 64, 45
2, 93487, Control_c, 0, 64, 45
2, 93526, Control_c, 0, 64, 46
2, 93545, Control_c, 0, 64, 46
2, 93564, Control_c, 0, 64, 47
2, 93584, Control_c, 0, 64, 47
2, 93603, Control_c, 0, 64, 48
2, 93622, Control_c, 0, 64, 48
2, 93641, Control_c, 0, 64, 49
2, 93661, Control_c, 0, 64, 50
2, 93680, Control_c, 0, 64, 51
2, 93699, Control_c, 0, 64, 53
2, 93718, Control_c, 0, 64, 54
2, 93738, Control_c, 0, 64, 56
2, 93738, Control_c, 0, 67, 123
2, 93756, Control_c, 0, 64, 57
2, 93776, Control_c, 0, 64, 59
2, 93795, Control_c, 0, 64, 61
2, 93814, Control_c, 0, 64, 63
2, 93833, Control_c, 0, 64, 65
2, 93852, Control_c, 0, 64, 67
2, 93872, Control_c, 0, 64, 70
2, 93890, Control_c, 0, 64, 77
2, 93901, Note_on_c, 0, 63, 0
2, 93910, Control_c, 0, 64, 86
2, 93929, Control_c, 0, 64, 96
2, 93949, Control_c, 0, 64, 102
2, 93967, Control_c, 0, 64, 103
2, 93991, Note_on_c, 0, 70, 0
2, 94028, Note_on_c, 0, 73, 0
2, 94083, Control_c, 0, 67, 124
2, 94102, Control_c, 0, 67, 124
2, 94121, Control_c, 0, 64, 102
2, 94121, Control_c, 0, 67, 125
2, 94141, Control_c, 0, 64, 102
2, 94141, Control_c, 0, 67, 126
2, 94160, Control_c, 0, 64, 100
2, 94160, Control_c, 0, 67, 127
2, 94167, Note_on_c, 0, 71, 51
2, 94179, Control_c, 0, 64, 99
2, 94179, Control_c, 0, 67, 127
2, 94198, Control_c, 0, 64, 98
2, 94218, Control_c, 0, 64, 95
2, 94236, Control_c, 0, 64, 91
2, 94256, Control_c, 0, 64, 88
2, 94275, Control_c, 0, 64, 85
2, 94294, Control_c, 0, 64, 83
2, 94313, Control_c, 0, 64, 82
2, 94332, Control_c, 0, 64, 80
2, 94336, Note_on_c, 0, 70, 44
2, 94341, Note_on_c, 0, 71, 0
2, 94352, Control_c, 0, 64, 79
2, 94370, Control_c, 0, 64, 76
2, 94390, Control_c, 0, 64, 75
2, 94409, Control_c, 0, 64, 73
2, 94429, Control_c, 0, 64, 71
2, 94447, Control_c, 0, 64, 68
2, 94467, Control_c, 0, 64, 65
2, 94486, Control_c, 0, 64, 62
2, 94505, Control_c, 0, 64, 60
2, 94511, Note_on_c, 0, 71, 44
2, 94524, Control_c, 0, 64, 59
2, 94525, Note_on_c, 0, 70, 0
2, 94544, Control_c, 0, 64, 57
2, 94563, Control_c, 0, 64, 56
2, 94582, Control_c, 0, 64, 55
2, 94601, Control_c, 0, 64, 54
2, 94621, Control_c, 0, 64, 53
2, 94640, Control_c, 0, 64, 52
2, 94678, Control_c, 0, 64, 52
2, 94793, Control_c, 0, 64, 52
2, 94812, Control_c, 0, 64, 53
2, 94850, Control_c, 0, 64, 54
2, 94871, Control_c, 0, 64, 54
2, 94871, Control_c, 0, 67, 127
2, 94890, Control_c, 0, 64, 55
2, 94910, Control_c, 0, 64, 55
2, 94910, Control_c, 0, 67, 126
2, 94928, Control_c, 0, 64, 57
2, 94928, Control_c, 0, 67, 126
2, 94948, Control_c, 0, 64, 58
2, 94948, Control_c, 0, 67, 125
2, 94967, Control_c, 0, 64, 59
2, 94967, Control_c, 0, 67, 125
2, 94986, Control_c, 0, 64, 60
2, 94986, Control_c, 0, 67, 124
2, 95005, Control_c, 0, 64, 61
2, 95005, Control_c, 0, 67, 124
2, 95025, Control_c, 0, 64, 61
2, 95025, Control_c, 0, 67, 123
2, 95044, Control_c, 0, 64, 62
2, 95063, Control_c, 0, 64, 63
2, 95063, Control_c, 0, 67, 123
2, 95082, Control_c, 0, 64, 63
2, 95082, Control_c, 0, 67, 122
2, 95102, Control_c, 0, 67, 122
2, 95120, Control_c, 0, 64, 64
2, 95120, Control_c, 0, 67, 121
2, 95120, Note_on_c, 0, 44, 0
2, 95140, Control_c, 0, 64, 65
2, 95140, Control_c, 0, 67, 121
2, 95159, Control_c, 0, 64, 65
2, 95179, Control_c, 0, 64, 66
2, 95179, Control_c, 0, 67, 120
2, 95197, Control_c, 0, 64, 67
2, 95217, Control_c, 0, 64, 68
2, 95236, Control_c, 0, 64, 70
2, 95236, Control_c, 0, 67, 120
2, 95256, Control_c, 0, 64, 73
2, 95274, Control_c, 0, 64, 76
2, 95286, Control_c, 0, 64, 80
2, 95306, Control_c, 0, 64, 86
2, 95325, Control_c, 0, 64, 93
2, 95325, Control_c, 0, 67, 120
2, 95345, Control_c, 0, 64, 99
2, 95345, Control_c, 0, 67, 121
2, 95363, Control_c, 0, 64, 102
2, 95363, Control_c, 0, 67, 121
2, 95383, Control_c, 0, 64, 104
2, 95402, Control_c, 0, 67, 122
2, 95421, Control_c, 0, 64, 106
2, 95421, Control_c, 0, 67, 122
2, 95440, Control_c, 0, 64, 108
2, 95440, Control_c, 0, 67, 123
2, 95460, Control_c, 0, 64, 110
2, 95460, Control_c, 0, 67, 124
2, 95479, Control_c, 0, 67, 125
2, 95498, Control_c, 0, 67, 125
2, 95517, Control_c, 0, 67, 126
2, 95519, Note_on_c, 0, 71, 0
2, 95537, Control_c, 0, 67, 127
2, 95555, Control_c, 0, 67, 127
2, 95574, Control_c, 0, 64, 109
2, 95594, Control_c, 0, 64, 107
2, 95609, Note_on_c, 0, 59, 48
2, 95613, Control_c, 0, 64, 107
2, 95632, Control_c, 0, 64, 106
2, 95651, Control_c, 0, 64, 106
2, 95671, Control_c, 0, 64, 105
2, 95690, Control_c, 0, 64, 103
2, 95709, Control_c, 0, 64, 102
2, 95728, Control_c, 0, 64, 101
2, 95748, Control_c, 0, 64, 99
2, 95766, Control_c, 0, 64, 97
2, 95786, Control_c, 0, 64, 95
2, 95805, Control_c, 0, 64, 94
2, 95835, Control_c, 0, 64, 92
2, 95854, Control_c, 0, 64, 90
2, 95870, Note_on_c, 0, 56, 47
2, 95873, Control_c, 0, 64, 87
2, 95885, Note_on_c, 0, 63, 33
2, 95889, Note_on_c, 0, 59, 0
2, 95892, Control_c, 0, 64, 83
2, 95912, Control_c, 0, 64, 80
2, 95913, Note_on_c, 0, 68, 47
2, 95930, Control_c, 0, 64, 78
2, 95950, Control_c, 0, 64, 75
2, 95969, Control_c, 0, 64, 72
2, 95970, Note_on_c, 0, 71, 46
2, 95989, Control_c, 0, 64, 68
2, 96007, Control_c, 0, 64, 64
2, 96027, Control_c, 0, 64, 62
2, 96046, Control_c, 0, 64, 61
2, 96104, Control_c, 0, 64, 61
2, 96142, Control_c, 0, 64, 60
2, 96161, Control_c, 0, 64, 60
2, 96290, Control_c, 0, 64, 60
2, 96310, Control_c, 0, 64, 61
2, 96329, Control_c, 0, 64, 61
2, 96349, Control_c, 0, 64, 62
2, 96367, Control_c, 0, 64, 63
2, 96387, Control_c, 0, 64, 63
2, 96406, Control_c, 0, 64, 64
2, 96425, Control_c, 0, 64, 64
2, 96444, Control_c, 0, 64, 65
2, 96464, Control_c, 0, 64, 66
2, 96483, Control_c, 0, 64, 68
2, 96502, Control_c, 0, 64, 69
2, 96521, Control_c, 0, 64, 71
2, 96541, Control_c, 0, 64, 74
2, 96560, Control_c, 0, 64, 79
2, 96579, Control_c, 0, 64, 86
2, 96598, Control_c, 0, 64, 92
2, 96618, Control_c, 0, 64, 97
2, 96636, Control_c, 0, 64, 101
2, 96656, Control_c, 0, 64, 108
2, 96675, Control_c, 0, 64, 127
2, 96783, Note_on_c, 0, 53, 61
2, 96797, Note_on_c, 0, 63, 0
2, 96818, Note_on_c, 0, 56, 0
2, 97049, Note_on_c, 0, 68, 0
2, 97075, Note_on_c, 0, 53, 0
2, 97105, Note_on_c, 0, 50, 47
2, 97121, Note_on_c, 0, 71, 0
2, 97221, Note_on_c, 0, 53, 40
2, 97250, Control_c, 0, 64, 113
2, 97270, Control_c, 0, 64, 107
2, 97289, Control_c, 0, 64, 105
2, 97304, Note_on_c, 0, 56, 50
2, 97305, Note_on_c, 0, 65, 41
2, 97309, Control_c, 0, 64, 103
2, 97327, Control_c, 0, 64, 101
2, 97345, Note_on_c, 0, 68, 59
2, 97347, Control_c, 0, 64, 96
2, 97366, Control_c, 0, 64, 92
2, 97385, Control_c, 0, 64, 89
2, 97404, Control_c, 0, 64, 82
2, 97418, Note_on_c, 0, 71, 65
2, 97424, Control_c, 0, 64, 74
2, 97443, Control_c, 0, 64, 66
2, 97462, Control_c, 0, 64, 59
2, 97481, Control_c, 0, 64, 50
2, 97501, Control_c, 0, 64, 49
2, 97673, Control_c, 0, 67, 127
2, 97730, Control_c, 0, 67, 126
2, 97750, Control_c, 0, 64, 49
2, 97810, Control_c, 0, 67, 127
2, 97868, Control_c, 0, 67, 127
2, 97964, Control_c, 0, 64, 51
2, 97983, Control_c, 0, 64, 53
2, 98003, Control_c, 0, 64, 56
2, 98021, Control_c, 0, 64, 59
2, 98041, Control_c, 0, 64, 62
2, 98060, Control_c, 0, 64, 64
2, 98073, Note_on_c, 0, 68, 0
2, 98079, Control_c, 0, 64, 65
2, 98098, Control_c, 0, 64, 68
2, 98118, Control_c, 0, 64, 73
2, 98137, Control_c, 0, 64, 80
2, 98156, Control_c, 0, 64, 90
2, 98175, Control_c, 0, 64, 100
2, 98195, Control_c, 0, 64, 107
2, 98213, Control_c, 0, 64, 112
2, 98233, Control_c, 0, 64, 115
2, 98272, Control_c, 0, 64, 116
2, 98290, Control_c, 0, 64, 117
2, 98295, Note_on_c, 0, 53, 0
2, 98310, Control_c, 0, 64, 119
2, 98310, Note_on_c, 0, 70, 70
2, 98329, Control_c, 0, 64, 123
2, 98397, Note_on_c, 0, 71, 0
2, 98428, Note_on_c, 0, 50, 0
2, 98468, Note_on_c, 0, 68, 79
2, 98493, Note_on_c, 0, 70, 0
2, 98516, Note_on_c, 0, 56, 0
2, 98521, Control_c, 0, 64, 121
2, 98540, Control_c, 0, 64, 119
2, 98559, Control_c, 0, 64, 117
2, 98570, Note_on_c, 0, 68, 0
2, 98578, Control_c, 0, 64, 115
2, 98598, Control_c, 0, 64, 114
2, 98617, Control_c, 0, 64, 113
2, 98619, Note_on_c, 0, 50, 44
2, 98620, Note_on_c, 0, 65, 0
2, 98636, Control_c, 0, 64, 112
2, 98655, Control_c, 0, 64, 110
2, 98675, Control_c, 0, 64, 107
2, 98693, Control_c, 0, 64, 104
2, 98713, Control_c, 0, 64, 102
2, 98732, Control_c, 0, 64, 100
2, 98736, Note_on_c, 0, 53, 46
2, 98752, Control_c, 0, 64, 98
2, 98770, Control_c, 0, 64, 94
2, 98790, Control_c, 0, 64, 90
2, 98809, Control_c, 0, 64, 86
2, 98825, Note_on_c, 0, 58, 44
2, 98828, Control_c, 0, 64, 83
2, 98847, Control_c, 0, 64, 79
2, 98850, Note_on_c, 0, 77, 75
2, 98866, Control_c, 0, 64, 73
2, 98886, Control_c, 0, 64, 67
2, 98904, Control_c, 0, 64, 61
2, 98924, Control_c, 0, 64, 54
2, 98943, Control_c, 0, 64, 53
2, 98963, Control_c, 0, 64, 52
2, 99020, Control_c, 0, 64, 52
2, 99039, Control_c, 0, 64, 51
2, 99270, Control_c, 0, 64, 52
2, 99289, Control_c, 0, 64, 52
2, 99308, Control_c, 0, 64, 53
2, 99327, Control_c, 0, 64, 54
2, 99346, Control_c, 0, 64, 55
2, 99366, Control_c, 0, 64, 55
2, 99384, Control_c, 0, 64, 57
2, 99404, Control_c, 0, 64, 58
2, 99423, Control_c, 0, 64, 60
2, 99443, Control_c, 0, 64, 61
2, 99461, Control_c, 0, 64, 62
2, 99481, Control_c, 0, 64, 64
2, 99500, Control_c, 0, 64, 65
2, 99519, Control_c, 0, 64, 68
2, 99538, Control_c, 0, 64, 73
2, 99558, Control_c, 0, 64, 82
2, 99577, Control_c, 0, 64, 94
2, 99596, Control_c, 0, 64, 110
2, 99615, Control_c, 0, 64, 127
2, 99791, Note_on_c, 0, 77, 0
2, 99793, Note_on_c, 0, 71, 57
2, 99874, Note_on_c, 0, 53, 0
2, 99901, Note_on_c, 0, 50, 0
2, 99961, Note_on_c, 0, 58, 0
2, 100018, Control_c, 0, 64, 117
2, 100038, Control_c, 0, 64, 112
2, 100054, Note_on_c, 0, 50, 53
2, 100057, Control_c, 0, 64, 109
2, 100076, Control_c, 0, 64, 106
2, 100095, Control_c, 0, 64, 102
2, 100115, Control_c, 0, 64, 99
2, 100133, Control_c, 0, 64, 94
2, 100133, Note_on_c, 0, 53, 41
2, 100153, Control_c, 0, 64, 88
2, 100172, Control_c, 0, 64, 82
2, 100192, Control_c, 0, 64, 74
2, 100210, Control_c, 0, 64, 66
2, 100230, Control_c, 0, 64, 56
2, 100249, Control_c, 0, 64, 39
2, 100259, Note_on_c, 0, 58, 38
2, 100261, Note_on_c, 0, 70, 61
2, 100268, Control_c, 0, 64, 25
2, 100268, Note_on_c, 0, 71, 0
2, 100287, Control_c, 0, 64, 20
2, 100326, Control_c, 0, 64, 24
2, 100344, Control_c, 0, 64, 40
2, 100364, Control_c, 0, 64, 55
2, 100383, Control_c, 0, 64, 63
2, 100403, Control_c, 0, 64, 66
2, 100421, Control_c, 0, 64, 71
2, 100441, Control_c, 0, 64, 79
2, 100460, Control_c, 0, 64, 88
2, 100479, Control_c, 0, 64, 94
2, 100498, Control_c, 0, 64, 95
2, 100523, Note_on_c, 0, 70, 0
2, 100545, Note_on_c, 0, 71, 50
2, 100645, Note_on_c, 0, 71, 0
2, 100691, Control_c, 0, 64, 94
2, 100701, Note_on_c, 0, 70, 47
2, 100749, Control_c, 0, 64, 94
2, 100755, Note_on_c, 0, 70, 0
2, 100807, Note_on_c, 0, 71, 43
2, 100842, Note_on_c, 0, 71, 0
2, 100864, Control_c, 0, 64, 93
2, 100869, Note_on_c, 0, 70, 62
2, 100924, Note_on_c, 0, 70, 0
2, 100954, Note_on_c, 0, 71, 46
2, 101018, Note_on_c, 0, 71, 0
2, 101054, Note_on_c, 0, 70, 45
2, 101112, Control_c, 0, 64, 93
2, 101131, Control_c, 0, 64, 92
2, 101151, Control_c, 0, 64, 88
2, 101169, Control_c, 0, 64, 80
2, 101189, Control_c, 0, 64, 71
2, 101208, Control_c, 0, 64, 63
2, 101228, Control_c, 0, 64, 57
2, 101246, Control_c, 0, 64, 56
2, 101265, Control_c, 0, 64, 58
2, 101285, Control_c, 0, 64, 60
2, 101303, Control_c, 0, 64, 62
2, 101323, Control_c, 0, 64, 64
2, 101342, Control_c, 0, 64, 66
2, 101362, Control_c, 0, 64, 68
2, 101364, Note_on_c, 0, 70, 0
2, 101378, Note_on_c, 0, 71, 42
2, 101380, Control_c, 0, 64, 70
2, 101400, Control_c, 0, 64, 74
2, 101400, Note_on_c, 0, 53, 0
2, 101419, Control_c, 0, 64, 78
2, 101438, Control_c, 0, 64, 83
2, 101457, Control_c, 0, 64, 85
2, 101476, Note_on_c, 0, 71, 0
2, 101477, Control_c, 0, 64, 86
2, 101485, Note_on_c, 0, 50, 0
2, 101521, Note_on_c, 0, 68, 56
2, 101534, Control_c, 0, 64, 87
2, 101554, Control_c, 0, 64, 88
2, 101571, Note_on_c, 0, 68, 0
2, 101573, Control_c, 0, 64, 88
2, 101578, Note_on_c, 0, 58, 0
2, 101653, Control_c, 0, 64, 88
2, 101673, Control_c, 0, 64, 86
2, 101692, Control_c, 0, 64, 86
2, 101711, Control_c, 0, 64, 85
2, 101728, Note_on_c, 0, 51, 28
2, 101730, Control_c, 0, 64, 84
2, 101750, Control_c, 0, 64, 83
2, 101768, Control_c, 0, 64, 82
2, 101775, Note_on_c, 0, 54, 37
2, 101788, Control_c, 0, 64, 81
2, 101807, Control_c, 0, 64, 80
2, 101826, Control_c, 0, 64, 78
2, 101845, Control_c, 0, 64, 76
2, 101864, Control_c, 0, 64, 73
2, 101871, Note_on_c, 0, 58, 23
2, 101884, Control_c, 0, 64, 70
2, 101885, Note_on_c, 0, 66, 50
2, 101888, Note_on_c, 0, 63, 21
2, 101903, Control_c, 0, 64, 67
2, 101922, Control_c, 0, 64, 65
2, 101941, Control_c, 0, 64, 63
2, 101961, Control_c, 0, 64, 59
2, 101979, Control_c, 0, 64, 54
2, 101999, Control_c, 0, 64, 48
2, 102015, Control_c, 0, 64, 43
2, 102035, Control_c, 0, 64, 38
2, 102053, Control_c, 0, 64, 35
2, 102073, Control_c, 0, 64, 32
2, 102092, Control_c, 0, 64, 31
2, 102112, Control_c, 0, 64, 31
2, 102130, Control_c, 0, 64, 30
2, 102150, Control_c, 0, 64, 29
2, 102169, Control_c, 0, 64, 29
2, 102189, Control_c, 0, 64, 28
2, 102284, Control_c, 0, 64, 30
2, 102303, Control_c, 0, 64, 36
2, 102323, Control_c, 0, 64, 43
2, 102341, Control_c, 0, 64, 50
2, 102361, Control_c, 0, 64, 55
2, 102380, Control_c, 0, 64, 59
2, 102399, Control_c, 0, 64, 61
2, 102418, Control_c, 0, 64, 62
2, 102438, Control_c, 0, 64, 64
2, 102457, Control_c, 0, 64, 65
2, 102476, Control_c, 0, 64, 68
2, 102495, Control_c, 0, 64, 72
2, 102515, Control_c, 0, 64, 77
2, 102533, Control_c, 0, 64, 83
2, 102554, Control_c, 0, 64, 89
2, 102567, Note_on_c, 0, 54, 0
2, 102573, Control_c, 0, 64, 91
2, 102650, Control_c, 0, 64, 90
2, 102688, Control_c, 0, 64, 90
2, 102740, Note_on_c, 0, 58, 0
2, 102753, Note_on_c, 0, 51, 0
2, 102919, Control_c, 0, 64, 89
2, 102938, Control_c, 0, 64, 88
2, 102957, Control_c, 0, 64, 87
2, 102975, Control_c, 0, 64, 86
2, 102995, Control_c, 0, 64, 85
2, 103013, Control_c, 0, 64, 84
2, 103033, Control_c, 0, 64, 84
2, 103052, Control_c, 0, 64, 83
2, 103072, Control_c, 0, 64, 82
2, 103090, Control_c, 0, 64, 82
2, 103110, Control_c, 0, 64, 81
2, 103129, Control_c, 0, 64, 80
2, 103149, Control_c, 0, 64, 79
2, 103167, Control_c, 0, 64, 79
2, 103186, Control_c, 0, 64, 78
2, 103206, Control_c, 0, 64, 78
2, 103224, Control_c, 0, 64, 77
2, 103239, Note_on_c, 0, 63, 0
2, 103244, Control_c, 0, 64, 77
2, 103254, Note_on_c, 0, 51, 27
2, 103283, Control_c, 0, 64, 76
2, 103301, Control_c, 0, 64, 76
2, 103316, Note_on_c, 0, 54, 22
2, 103321, Control_c, 0, 64, 74
2, 103340, Control_c, 0, 64, 71
2, 103359, Control_c, 0, 64, 67
2, 103374, Note_on_c, 0, 58, 29
2, 103378, Control_c, 0, 64, 63
2, 103398, Control_c, 0, 64, 59
2, 103417, Control_c, 0, 64, 55
2, 103436, Control_c, 0, 64, 53
2, 103475, Control_c, 0, 64, 54
2, 103493, Control_c, 0, 64, 55
2, 103514, Control_c, 0, 64, 58
2, 103533, Control_c, 0, 64, 60
2, 103553, Control_c, 0, 64, 62
2, 103571, Control_c, 0, 64, 63
2, 103591, Control_c, 0, 64, 64
2, 103610, Control_c, 0, 64, 65
2, 103629, Control_c, 0, 64, 66
2, 103648, Control_c, 0, 64, 66
2, 103667, Control_c, 0, 64, 67
2, 103687, Control_c, 0, 64, 68
2, 103705, Control_c, 0, 64, 69
2, 103725, Control_c, 0, 64, 70
2, 103744, Control_c, 0, 64, 71
2, 103745, Note_on_c, 0, 63, 17
2, 103763, Control_c, 0, 64, 73
2, 103782, Control_c, 0, 64, 74
2, 103802, Control_c, 0, 64, 77
2, 103821, Control_c, 0, 64, 79
2, 103840, Control_c, 0, 64, 80
2, 103843, Note_on_c, 0, 66, 0
2, 103859, Control_c, 0, 64, 81
2, 103942, Note_on_c, 0, 63, 0
2, 103957, Note_on_c, 0, 65, 32
2, 104087, Note_on_c, 0, 65, 0
2, 104131, Note_on_c, 0, 66, 51
2, 104184, Control_c, 0, 64, 81
2, 104243, Control_c, 0, 64, 82
2, 104275, Note_on_c, 0, 66, 0
2, 104283, Note_on_c, 0, 68, 60
2, 104319, Control_c, 0, 64, 82
2, 104377, Control_c, 0, 64, 83
2, 104427, Note_on_c, 0, 70, 61
2, 104435, Control_c, 0, 64, 83
2, 104450, Note_on_c, 0, 68, 0
2, 104490, Control_c, 0, 64, 84
2, 104514, Note_on_c, 0, 70, 0
2, 104547, Control_c, 0, 64, 83
2, 104553, Note_on_c, 0, 72, 68
2, 104554, Note_on_c, 0, 54, 0
2, 104566, Note_on_c, 0, 51, 0
2, 104605, Control_c, 0, 64, 83
2, 104624, Control_c, 0, 64, 82
2, 104641, Note_on_c, 0, 58, 0
2, 104644, Control_c, 0, 64, 82
2, 104663, Control_c, 0, 64, 81
2, 104678, Note_on_c, 0, 72, 0
2, 104682, Control_c, 0, 64, 80
2, 104701, Control_c, 0, 64, 80
2, 104702, Note_on_c, 0, 74, 62
2, 104721, Control_c, 0, 64, 79
2, 104725, Note_on_c, 0, 51, 32
2, 104739, Control_c, 0, 64, 78
2, 104759, Control_c, 0, 64, 76
2, 104778, Control_c, 0, 64, 73
2, 104798, Control_c, 0, 64, 69
2, 104816, Control_c, 0, 64, 64
2, 104827, Note_on_c, 0, 54, 34
2, 104836, Control_c, 0, 64, 56
2, 104847, Note_on_c, 0, 75, 76
2, 104855, Control_c, 0, 64, 47
2, 104873, Note_on_c, 0, 74, 0
2, 104874, Control_c, 0, 64, 47
2, 104892, Note_on_c, 0, 58, 37
2, 104893, Control_c, 0, 64, 51
2, 104913, Control_c, 0, 64, 56
2, 104932, Control_c, 0, 64, 60
2, 104951, Control_c, 0, 64, 62
2, 104970, Control_c, 0, 64, 64
2, 104990, Control_c, 0, 64, 65
2, 105008, Control_c, 0, 64, 67
2, 105027, Control_c, 0, 64, 69
2, 105039, Note_on_c, 0, 77, 73
2, 105047, Control_c, 0, 64, 72
2, 105055, Note_on_c, 0, 75, 0
2, 105066, Control_c, 0, 64, 75
2, 105085, Control_c, 0, 64, 77
2, 105104, Control_c, 0, 64, 77
2, 105124, Control_c, 0, 64, 77
2, 105143, Control_c, 0, 64, 76
2, 105181, Control_c, 0, 64, 76
2, 105191, Note_on_c, 0, 78, 77
2, 105201, Control_c, 0, 64, 75
2, 105219, Control_c, 0, 64, 72
2, 105239, Control_c, 0, 64, 66
2, 105242, Note_on_c, 0, 77, 0
2, 105258, Control_c, 0, 64, 61
2, 105278, Control_c, 0, 64, 59
2, 105296, Control_c, 0, 64, 60
2, 105316, Control_c, 0, 64, 61
2, 105335, Control_c, 0, 64, 63
2, 105351, Note_on_c, 0, 80, 77
2, 105354, Control_c, 0, 64, 64
2, 105373, Control_c, 0, 64, 65
2, 105393, Control_c, 0, 64, 66
2, 105399, Note_on_c, 0, 78, 0
2, 105471, Control_c, 0, 64, 67
2, 105489, Control_c, 0, 64, 68
2, 105489, Control_c, 0, 67, 124
2, 105509, Control_c, 0, 64, 69
2, 105509, Control_c, 0, 67, 120
2, 105518, Note_on_c, 0, 78, 82
2, 105528, Control_c, 0, 64, 71
2, 105528, Control_c, 0, 67, 115
2, 105547, Control_c, 0, 64, 73
2, 105547, Control_c, 0, 67, 111
2, 105566, Control_c, 0, 64, 75
2, 105566, Control_c, 0, 67, 106
2, 105585, Control_c, 0, 64, 77
2, 105585, Control_c, 0, 67, 103
2, 105600, Note_on_c, 0, 80, 0
2, 105605, Control_c, 0, 64, 78
2, 105605, Control_c, 0, 67, 102
2, 105619, Note_on_c, 0, 58, 0
2, 105643, Control_c, 0, 64, 79
2, 105662, Control_c, 0, 64, 79
2, 105670, Note_on_c, 0, 51, 0
2, 105675, Note_on_c, 0, 77, 82
2, 105682, Control_c, 0, 64, 80
2, 105700, Control_c, 0, 64, 82
2, 105700, Control_c, 0, 67, 102
2, 105702, Note_on_c, 0, 78, 0
2, 105713, Note_on_c, 0, 54, 0
2, 105720, Control_c, 0, 64, 82
2, 105720, Control_c, 0, 67, 101
2, 105777, Control_c, 0, 64, 83
2, 105777, Control_c, 0, 67, 100
2, 105816, Control_c, 0, 64, 83
2, 105816, Control_c, 0, 67, 100
2, 105835, Control_c, 0, 64, 85
2, 105835, Control_c, 0, 67, 99
2, 105845, Control_c, 0, 64, 87
2, 105845, Control_c, 0, 67, 98
2, 105858, Note_on_c, 0, 78, 60
2, 105863, Control_c, 0, 64, 89
2, 105863, Control_c, 0, 67, 92
2, 105883, Control_c, 0, 64, 90
2, 105883, Control_c, 0, 67, 83
2, 105902, Control_c, 0, 64, 91
2, 105902, Control_c, 0, 67, 70
2, 105922, Control_c, 0, 64, 92
2, 105922, Control_c, 0, 67, 56
2, 105940, Control_c, 0, 64, 94
2, 105940, Control_c, 0, 67, 39
2, 105946, Note_on_c, 0, 77, 0
2, 105960, Control_c, 0, 64, 95
2, 105960, Control_c, 0, 67, 20
2, 105979, Control_c, 0, 64, 96
2, 105979, Control_c, 0, 67, 0
2, 106076, Note_on_c, 0, 75, 82
2, 106114, Control_c, 0, 64, 97
2, 106133, Control_c, 0, 64, 97
2, 106152, Control_c, 0, 64, 98
2, 106171, Control_c, 0, 64, 99
2, 106191, Control_c, 0, 64, 99
2, 106199, Note_on_c, 0, 78, 0
2, 106229, Control_c, 0, 64, 100
2, 106261, Note_on_c, 0, 75, 0
2, 106343, Note_on_c, 0, 44, 78
2, 106363, Control_c, 0, 64, 99
2, 106382, Control_c, 0, 64, 99
2, 106411, Control_c, 0, 64, 96
2, 106431, Control_c, 0, 64, 89
2, 106449, Control_c, 0, 64, 78
2, 106469, Control_c, 0, 64, 69
2, 106488, Control_c, 0, 64, 63
2, 106507, Control_c, 0, 64, 61
2, 106565, Control_c, 0, 64, 62
2, 106583, Control_c, 0, 64, 63
2, 106603, Control_c, 0, 64, 65
2, 106622, Control_c, 0, 64, 66
2, 106642, Control_c, 0, 64, 68
2, 106642, Note_on_c, 0, 47, 59
2, 106660, Control_c, 0, 64, 70
2, 106680, Control_c, 0, 64, 71
2, 106699, Control_c, 0, 64, 73
2, 106703, Note_on_c, 0, 52, 60
2, 106718, Control_c, 0, 64, 74
2, 106753, Note_on_c, 0, 56, 59
2, 106776, Control_c, 0, 64, 74
2, 106799, Note_on_c, 0, 64, 56
2, 106813, Control_c, 0, 64, 75
2, 106813, Note_on_c, 0, 68, 65
2, 106833, Control_c, 0, 64, 75
2, 106852, Control_c, 0, 64, 76
2, 106865, Note_on_c, 0, 71, 61
2, 106902, Note_on_c, 0, 76, 86
2, 106928, Control_c, 0, 64, 75
2, 106947, Control_c, 0, 64, 73
2, 106967, Control_c, 0, 64, 69
2, 106986, Control_c, 0, 64, 64
2, 107005, Control_c, 0, 64, 57
2, 107024, Control_c, 0, 64, 44
2, 107044, Control_c, 0, 64, 34
2, 107063, Control_c, 0, 64, 30
2, 107082, Control_c, 0, 64, 29
2, 107274, Control_c, 0, 64, 29
2, 107293, Control_c, 0, 64, 30
2, 107313, Control_c, 0, 64, 31
2, 107332, Control_c, 0, 64, 33
2, 107351, Control_c, 0, 64, 35
2, 107371, Control_c, 0, 64, 36
2, 107391, Control_c, 0, 64, 39
2, 107409, Control_c, 0, 64, 40
2, 107428, Control_c, 0, 64, 41
2, 107448, Control_c, 0, 64, 42
2, 107467, Control_c, 0, 64, 42
2, 107486, Control_c, 0, 64, 43
2, 107505, Control_c, 0, 64, 44
2, 107525, Control_c, 0, 64, 46
2, 107543, Control_c, 0, 64, 48
2, 107563, Control_c, 0, 64, 49
2, 107582, Control_c, 0, 64, 51
2, 107602, Control_c, 0, 64, 52
2, 107620, Control_c, 0, 64, 54
2, 107640, Control_c, 0, 64, 55
2, 107659, Control_c, 0, 64, 56
2, 107678, Control_c, 0, 64, 57
2, 107697, Control_c, 0, 64, 58
2, 107717, Control_c, 0, 64, 59
2, 107736, Control_c, 0, 64, 60
2, 107755, Control_c, 0, 64, 61
2, 107774, Control_c, 0, 64, 62
2, 107794, Control_c, 0, 64, 63
2, 107813, Control_c, 0, 64, 63
2, 107832, Control_c, 0, 64, 64
2, 107851, Control_c, 0, 64, 66
2, 107871, Control_c, 0, 64, 69
2, 107889, Control_c, 0, 64, 72
2, 107908, Control_c, 0, 64, 75
2, 107928, Control_c, 0, 64, 79
2, 107947, Control_c, 0, 64, 81
2, 107966, Control_c, 0, 64, 82
2, 107985, Control_c, 0, 64, 83
2, 108066, Note_on_c, 0, 76, 0
2, 108094, Note_on_c, 0, 71, 0
2, 108113, Note_on_c, 0, 64, 0
2, 108114, Note_on_c, 0, 68, 0
2, 108351, Control_c, 0, 64, 82
2, 108463, Control_c, 0, 64, 82
2, 108470, Note_on_c, 0, 71, 70
2, 108501, Control_c, 0, 64, 81
2, 108520, Control_c, 0, 64, 81
2, 108540, Control_c, 0, 64, 80
2, 108559, Control_c, 0, 64, 79
2, 108578, Control_c, 0, 64, 78
2, 108595, Note_on_c, 0, 69, 82
2, 108597, Control_c, 0, 64, 77
2, 108616, Control_c, 0, 64, 76
2, 108635, Control_c, 0, 64, 75
2, 108654, Control_c, 0, 64, 74
2, 108674, Control_c, 0, 64, 73
2, 108693, Control_c, 0, 64, 71
2, 108712, Control_c, 0, 64, 71
2, 108731, Control_c, 0, 64, 69
2, 108751, Control_c, 0, 64, 67
2, 108767, Note_on_c, 0, 68, 78
2, 108770, Control_c, 0, 64, 65
2, 108789, Control_c, 0, 64, 62
2, 108807, Note_on_c, 0, 71, 0
2, 108808, Control_c, 0, 64, 60
2, 108828, Control_c, 0, 64, 58
2, 108835, Note_on_c, 0, 69, 0
2, 108843, Note_on_c, 0, 44, 0
2, 108845, Note_on_c, 0, 52, 0
2, 108846, Control_c, 0, 64, 55
2, 108856, Note_on_c, 0, 47, 0
2, 108856, Note_on_c, 0, 56, 0
2, 108866, Control_c, 0, 64, 51
2, 108885, Control_c, 0, 64, 47
2, 108905, Control_c, 0, 64, 44
2, 108923, Control_c, 0, 64, 42
2, 108943, Control_c, 0, 64, 40
2, 108962, Control_c, 0, 64, 36
2, 108981, Control_c, 0, 64, 32
2, 109000, Control_c, 0, 64, 28
2, 109020, Control_c, 0, 64, 23
2, 109039, Control_c, 0, 64, 19
2, 109058, Control_c, 0, 64, 15
2, 109077, Control_c, 0, 64, 11
2, 109096, Control_c, 0, 64, 9
2, 109596, Control_c, 0, 64, 11
2, 109673, Control_c, 0, 64, 13
2, 109730, Control_c, 0, 64, 15
2, 109768, Control_c, 0, 64, 17
2, 109806, Control_c, 0, 64, 18
2, 109845, Control_c, 0, 64, 19
2, 109883, Control_c, 0, 64, 20
2, 109981, Note_on_c, 0, 69, 72
2, 110123, Note_on_c, 0, 71, 76
2, 110181, Note_on_c, 0, 68, 0
2, 110212, Note_on_c, 0, 69, 0
2, 110306, Control_c, 0, 64, 19
2, 110317, Note_on_c, 0, 64, 76
2, 110325, Control_c, 0, 64, 18
2, 110335, Note_on_c, 0, 71, 0
2, 110345, Control_c, 0, 64, 17
2, 110363, Control_c, 0, 64, 15
2, 110383, Control_c, 0, 64, 13
2, 110402, Control_c, 0, 64, 11
2, 110421, Control_c, 0, 64, 9
2, 110440, Control_c, 0, 64, 0
2, 110882, Control_c, 0, 64, 9
2, 110901, Control_c, 0, 64, 15
2, 110920, Control_c, 0, 64, 21
2, 110940, Control_c, 0, 64, 29
2, 110959, Control_c, 0, 64, 37
2, 110977, Control_c, 0, 64, 45
2, 110997, Control_c, 0, 64, 51
2, 111016, Control_c, 0, 64, 55
2, 111035, Control_c, 0, 64, 56
2, 111054, Control_c, 0, 64, 57
2, 111074, Control_c, 0, 64, 58
2, 111093, Control_c, 0, 64, 60
2, 111112, Control_c, 0, 64, 61
2, 111131, Control_c, 0, 64, 61
2, 111151, Control_c, 0, 64, 62
2, 111189, Control_c, 0, 64, 62
2, 111208, Control_c, 0, 64, 63
2, 111228, Control_c, 0, 64, 63
2, 111246, Control_c, 0, 64, 64
2, 111266, Control_c, 0, 64, 64
2, 111285, Control_c, 0, 64, 65
2, 111305, Control_c, 0, 64, 65
2, 111323, Control_c, 0, 64, 66
2, 111343, Control_c, 0, 64, 66
2, 111362, Control_c, 0, 64, 67
2, 111372, Note_on_c, 0, 66, 73
2, 111381, Control_c, 0, 64, 69
2, 111400, Control_c, 0, 64, 71
2, 111420, Control_c, 0, 64, 75
2, 111434, Note_on_c, 0, 64, 0
2, 111439, Control_c, 0, 64, 79
2, 111457, Control_c, 0, 64, 83
2, 111477, Control_c, 0, 64, 85
2, 111496, Control_c, 0, 64, 86
2, 111515, Control_c, 0, 64, 87
2, 111534, Control_c, 0, 64, 87
2, 111629, Note_on_c, 0, 68, 83
2, 111682, Note_on_c, 0, 66, 0
2, 111711, Note_on_c, 0, 68, 0
2, 111726, Control_c, 0, 64, 87
2, 111785, Control_c, 0, 64, 86
2, 111900, Control_c, 0, 64, 86
2, 111937, Control_c, 0, 64, 85
2, 111957, Control_c, 0, 64, 85
2, 111976, Control_c, 0, 64, 84
2, 111995, Control_c, 0, 64, 83
2, 112014, Control_c, 0, 64, 82
2, 112034, Control_c, 0, 64, 82
2, 112053, Control_c, 0, 64, 81
2, 112072, Control_c, 0, 64, 80
2, 112084, Note_on_c, 0, 44, 57
2, 112091, Control_c, 0, 64, 79
2, 112111, Control_c, 0, 64, 78
2, 112115, Note_on_c, 0, 58, 69
2, 112124, Note_on_c, 0, 53, 64
2, 112126, Note_on_c, 0, 62, 67
2, 112130, Control_c, 0, 64, 76
2, 112149, Control_c, 0, 64, 74
2, 112168, Control_c, 0, 64, 70
2, 112188, Control_c, 0, 64, 65
2, 112206, Control_c, 0, 64, 60
2, 112226, Control_c, 0, 64, 52
2, 112245, Control_c, 0, 64, 46
2, 112265, Control_c, 0, 64, 44
2, 112283, Control_c, 0, 64, 42
2, 112303, Control_c, 0, 64, 42
2, 112475, Control_c, 0, 64, 41
2, 112721, Control_c, 0, 64, 42
2, 112779, Control_c, 0, 64, 43
2, 112798, Control_c, 0, 64, 43
2, 112817, Control_c, 0, 64, 45
2, 112836, Control_c, 0, 64, 48
2, 112855, Control_c, 0, 64, 51
2, 112875, Control_c, 0, 64, 56
2, 112894, Control_c, 0, 64, 60
2, 112913, Control_c, 0, 64, 62
2, 112932, Control_c, 0, 64, 64
2, 112952, Control_c, 0, 64, 67
2, 112970, Control_c, 0, 64, 71
2, 112990, Control_c, 0, 64, 77
2, 113009, Control_c, 0, 64, 86
2, 113029, Control_c, 0, 64, 93
2, 113030, Note_on_c, 0, 53, 0
2, 113047, Control_c, 0, 64, 96
2, 113067, Control_c, 0, 64, 97
2, 113086, Control_c, 0, 64, 98
2, 113086, Note_on_c, 0, 58, 0
2, 113106, Control_c, 0, 64, 98
2, 113112, Note_on_c, 0, 62, 0
2, 113225, Control_c, 0, 64, 98
2, 113263, Control_c, 0, 64, 97
2, 113301, Control_c, 0, 64, 97
2, 113320, Control_c, 0, 64, 96
2, 113340, Control_c, 0, 64, 96
2, 113359, Control_c, 0, 64, 95
2, 113377, Control_c, 0, 64, 95
2, 113397, Control_c, 0, 64, 94
2, 113416, Control_c, 0, 64, 93
2, 113435, Control_c, 0, 64, 92
2, 113454, Control_c, 0, 64, 91
2, 113474, Control_c, 0, 64, 90
2, 113493, Control_c, 0, 64, 88
2, 113512, Control_c, 0, 64, 86
2, 113516, Note_on_c, 0, 65, 51
2, 113531, Control_c, 0, 64, 83
2, 113551, Control_c, 0, 64, 81
2, 113570, Control_c, 0, 64, 79
2, 113589, Control_c, 0, 64, 77
2, 113608, Control_c, 0, 64, 75
2, 113628, Control_c, 0, 64, 73
2, 113646, Control_c, 0, 64, 70
2, 113650, Note_on_c, 0, 65, 0
2, 113661, Note_on_c, 0, 68, 52
2, 113666, Control_c, 0, 64, 68
2, 113685, Control_c, 0, 64, 66
2, 113705, Control_c, 0, 64, 65
2, 113723, Control_c, 0, 64, 65
2, 113743, Control_c, 0, 64, 64
2, 113762, Control_c, 0, 64, 63
2, 113781, Control_c, 0, 64, 62
2, 113800, Control_c, 0, 64, 61
2, 113814, Note_on_c, 0, 44, 0
2, 113820, Control_c, 0, 64, 61
2, 113824, Note_on_c, 0, 71, 46
2, 113839, Control_c, 0, 64, 60
2, 113852, Note_on_c, 0, 68, 0
2, 113857, Control_c, 0, 64, 59
2, 113877, Control_c, 0, 64, 57
2, 113896, Control_c, 0, 64, 55
2, 113915, Control_c, 0, 64, 53
2, 113934, Control_c, 0, 64, 53
2, 113954, Control_c, 0, 64, 52
2, 113973, Control_c, 0, 64, 51
2, 113992, Control_c, 0, 64, 51
2, 114011, Control_c, 0, 64, 50
2, 114031, Control_c, 0, 64, 49
2, 114050, Control_c, 0, 64, 48
2, 114089, Control_c, 0, 64, 48
2, 114109, Control_c, 0, 64, 47
2, 114127, Control_c, 0, 64, 47
2, 114204, Control_c, 0, 64, 46
2, 114320, Control_c, 0, 64, 47
2, 114338, Control_c, 0, 64, 47
2, 114435, Control_c, 0, 64, 48
2, 114490, Control_c, 0, 64, 48
2, 114511, Control_c, 0, 64, 50
2, 114530, Control_c, 0, 64, 51
2, 114549, Control_c, 0, 64, 53
2, 114568, Control_c, 0, 64, 56
2, 114588, Control_c, 0, 64, 58
2, 114606, Control_c, 0, 64, 60
2, 114626, Control_c, 0, 64, 61
2, 114645, Control_c, 0, 64, 62
2, 114665, Control_c, 0, 64, 63
2, 114683, Control_c, 0, 64, 63
2, 114703, Control_c, 0, 64, 64
2, 114722, Control_c, 0, 64, 65
2, 114741, Control_c, 0, 64, 65
2, 114753, Note_on_c, 0, 71, 0
2, 114755, Note_on_c, 0, 70, 61
2, 114760, Control_c, 0, 64, 66
2, 114780, Control_c, 0, 64, 67
2, 114799, Control_c, 0, 64, 68
2, 114817, Control_c, 0, 64, 70
2, 114837, Control_c, 0, 64, 73
2, 114849, Note_on_c, 0, 70, 0
2, 114856, Control_c, 0, 64, 76
2, 114875, Control_c, 0, 64, 79
2, 114894, Control_c, 0, 64, 81
2, 114902, Note_on_c, 0, 68, 73
2, 115010, Control_c, 0, 64, 80
2, 115049, Control_c, 0, 64, 79
2, 115069, Control_c, 0, 64, 79
2, 115087, Control_c, 0, 64, 77
2, 115102, Note_on_c, 0, 77, 86
2, 115107, Control_c, 0, 64, 75
2, 115125, Note_on_c, 0, 68, 0
2, 115126, Control_c, 0, 64, 71
2, 115146, Control_c, 0, 64, 65
2, 115164, Control_c, 0, 64, 58
2, 115184, Control_c, 0, 64, 41
2, 115203, Control_c, 0, 64, 0
2, 115395, Control_c, 0, 64, 13
2, 115414, Control_c, 0, 64, 25
2, 115433, Control_c, 0, 64, 32
2, 115451, Control_c, 0, 64, 37
2, 115470, Control_c, 0, 64, 41
2, 115489, Control_c, 0, 64, 44
2, 115508, Control_c, 0, 64, 45
2, 115527, Control_c, 0, 64, 46
2, 115604, Control_c, 0, 64, 44
2, 115624, Control_c, 0, 64, 44
2, 115681, Control_c, 0, 64, 45
2, 115701, Control_c, 0, 64, 51
2, 115719, Control_c, 0, 64, 57
2, 115738, Control_c, 0, 64, 59
2, 115758, Control_c, 0, 64, 61
2, 115776, Control_c, 0, 64, 62
2, 115796, Control_c, 0, 64, 63
2, 115815, Control_c, 0, 64, 64
2, 115835, Control_c, 0, 64, 65
2, 115853, Control_c, 0, 64, 66
2, 115873, Control_c, 0, 64, 67
2, 115892, Control_c, 0, 64, 68
2, 115908, Note_on_c, 0, 75, 84
2, 115911, Control_c, 0, 64, 69
2, 115930, Control_c, 0, 64, 71
2, 115950, Control_c, 0, 64, 73
2, 115957, Note_on_c, 0, 77, 0
2, 115969, Control_c, 0, 64, 73
2, 115988, Control_c, 0, 64, 74
2, 116028, Control_c, 0, 64, 74
2, 116046, Control_c, 0, 64, 75
2, 116066, Control_c, 0, 64, 76
2, 116074, Note_on_c, 0, 74, 81
2, 116086, Note_on_c, 0, 75, 0
2, 116200, Control_c, 0, 64, 75
2, 116239, Control_c, 0, 64, 75
2, 116257, Control_c, 0, 64, 74
2, 116277, Control_c, 0, 64, 74
2, 116287, Note_on_c, 0, 74, 0
2, 116296, Control_c, 0, 64, 73
2, 116354, Control_c, 0, 64, 73
2, 116373, Control_c, 0, 64, 72
2, 116392, Control_c, 0, 64, 70
2, 116404, Note_on_c, 0, 83, 93
2, 116411, Control_c, 0, 64, 66
2, 116431, Control_c, 0, 64, 59
2, 116450, Control_c, 0, 64, 44
2, 116469, Control_c, 0, 64, 21
2, 116488, Control_c, 0, 64, 0
2, 116526, Control_c, 0, 64, 11
2, 116546, Control_c, 0, 64, 38
2, 116565, Control_c, 0, 64, 56
2, 116585, Control_c, 0, 64, 62
2, 116603, Control_c, 0, 64, 63
2, 116623, Control_c, 0, 64, 64
2, 116700, Control_c, 0, 64, 63
2, 116737, Control_c, 0, 64, 64
2, 116834, Control_c, 0, 64, 63
2, 116853, Control_c, 0, 64, 59
2, 116872, Control_c, 0, 64, 48
2, 116883, Note_on_c, 0, 81, 92
2, 116891, Control_c, 0, 64, 31
2, 116911, Control_c, 0, 64, 17
2, 116930, Control_c, 0, 64, 13
2, 116951, Control_c, 0, 64, 15
2, 116970, Control_c, 0, 64, 29
2, 116990, Control_c, 0, 64, 44
2, 117008, Control_c, 0, 64, 51
2, 117028, Control_c, 0, 64, 52
2, 117066, Control_c, 0, 64, 53
2, 117105, Control_c, 0, 64, 53
2, 117162, Control_c, 0, 64, 53
2, 117194, Note_on_c, 0, 83, 0
2, 117239, Control_c, 0, 64, 51
2, 117258, Control_c, 0, 64, 48
2, 117277, Control_c, 0, 64, 45
2, 117296, Control_c, 0, 64, 44
2, 117316, Control_c, 0, 64, 43
2, 117335, Control_c, 0, 64, 42
2, 117409, Control_c, 0, 64, 43
2, 117428, Control_c, 0, 64, 45
2, 117447, Control_c, 0, 64, 48
2, 117467, Control_c, 0, 64, 51
2, 117485, Control_c, 0, 64, 53
2, 117505, Control_c, 0, 64, 54
2, 117524, Control_c, 0, 64, 56
2, 117544, Control_c, 0, 64, 57
2, 117562, Control_c, 0, 64, 58
2, 117582, Control_c, 0, 64, 59
2, 117601, Control_c, 0, 64, 59
2, 117621, Control_c, 0, 64, 60
2, 117639, Control_c, 0, 64, 60
2, 117658, Control_c, 0, 64, 61
2, 117716, Control_c, 0, 64, 60
2, 117735, Control_c, 0, 64, 59
2, 117755, Control_c, 0, 64, 58
2, 117773, Control_c, 0, 64, 57
2, 117793, Control_c, 0, 64, 54
2, 117812, Control_c, 0, 64, 50
2, 117831, Control_c, 0, 64, 48
2, 117832, Note_on_c, 0, 81, 0
2, 117850, Control_c, 0, 64, 46
2, 117870, Control_c, 0, 64, 45
2, 117987, Control_c, 0, 64, 46
2, 117996, Note_on_c, 0, 82, 92
2, 118006, Control_c, 0, 64, 46
2, 118026, Control_c, 0, 64, 48
2, 118044, Control_c, 0, 64, 49
2, 118064, Control_c, 0, 64, 51
2, 118083, Control_c, 0, 64, 53
2, 118102, Control_c, 0, 64, 55
2, 118121, Control_c, 0, 64, 57
2, 118141, Control_c, 0, 64, 59
2, 118160, Control_c, 0, 64, 61
2, 118178, Control_c, 0, 64, 62
2, 118198, Control_c, 0, 64, 63
2, 118217, Control_c, 0, 64, 63
2, 118236, Control_c, 0, 64, 64
2, 118255, Control_c, 0, 64, 65
2, 118275, Control_c, 0, 64, 66
2, 118294, Control_c, 0, 64, 67
2, 118313, Control_c, 0, 64, 67
2, 118331, Control_c, 0, 64, 68
2, 118370, Control_c, 0, 64, 68
2, 118408, Control_c, 0, 64, 69
2, 118446, Control_c, 0, 64, 68
2, 118466, Control_c, 0, 64, 67
2, 118485, Control_c, 0, 64, 64
2, 118487, Note_on_c, 0, 46, 75
2, 118505, Control_c, 0, 64, 56
2, 118523, Control_c, 0, 64, 39
2, 118543, Control_c, 0, 64, 32
2, 118562, Control_c, 0, 64, 34
2, 118581, Control_c, 0, 64, 47
2, 118600, Control_c, 0, 64, 59
2, 118620, Control_c, 0, 64, 63
2, 118632, Note_on_c, 0, 82, 0
2, 118639, Control_c, 0, 64, 65
2, 118657, Control_c, 0, 64, 68
2, 118677, Control_c, 0, 64, 70
2, 118696, Control_c, 0, 64, 74
2, 118716, Control_c, 0, 64, 79
2, 118734, Control_c, 0, 64, 82
2, 118850, Control_c, 0, 64, 82
2, 118907, Note_on_c, 0, 51, 58
2, 118994, Note_on_c, 0, 54, 65
2, 119031, Note_on_c, 0, 58, 68
2, 119080, Control_c, 0, 64, 82
2, 119095, Note_on_c, 0, 66, 63
2, 119119, Control_c, 0, 64, 81
2, 119122, Note_on_c, 0, 70, 76
2, 119137, Control_c, 0, 64, 81
2, 119157, Control_c, 0, 64, 80
2, 119176, Control_c, 0, 64, 79
2, 119181, Note_on_c, 0, 75, 93
2, 119196, Control_c, 0, 64, 78
2, 119214, Control_c, 0, 64, 77
2, 119234, Control_c, 0, 64, 77
2, 119253, Control_c, 0, 64, 76
2, 119272, Control_c, 0, 64, 74
2, 119291, Control_c, 0, 64, 70
2, 119311, Control_c, 0, 64, 66
2, 119330, Control_c, 0, 64, 62
2, 119349, Control_c, 0, 64, 59
2, 119368, Control_c, 0, 64, 57
2, 119388, Control_c, 0, 64, 56
2, 119406, Control_c, 0, 64, 54
2, 119426, Control_c, 0, 64, 53
2, 119445, Control_c, 0, 64, 52
2, 119522, Control_c, 0, 64, 52
2, 119656, Control_c, 0, 64, 52
2, 119676, Control_c, 0, 64, 53
2, 119694, Control_c, 0, 64, 55
2, 119714, Control_c, 0, 64, 56
2, 119733, Control_c, 0, 64, 57
2, 119752, Control_c, 0, 64, 59
2, 119771, Control_c, 0, 64, 60
2, 119791, Control_c, 0, 64, 61
2, 119810, Control_c, 0, 64, 62
2, 119829, Control_c, 0, 64, 63
2, 119846, Control_c, 0, 64, 64
2, 119866, Control_c, 0, 64, 66
2, 119885, Control_c, 0, 64, 68
2, 119904, Control_c, 0, 64, 71
2, 119923, Control_c, 0, 64, 77
2, 119943, Control_c, 0, 64, 84
2, 119961, Control_c, 0, 64, 96
2, 119981, Control_c, 0, 64, 104
2, 120000, Control_c, 0, 64, 112
2, 120009, Note_on_c, 0, 51, 0
2, 120019, Control_c, 0, 64, 127
2, 120031, Note_on_c, 0, 54, 0
2, 120104, Note_on_c, 0, 46, 0
2, 120141, Note_on_c, 0, 58, 0
2, 120249, Note_on_c, 0, 46, 61
2, 120275, Note_on_c, 0, 66, 0
2, 120291, Control_c, 0, 64, 121
2, 120300, Note_on_c, 0, 70, 0
2, 120309, Control_c, 0, 64, 118
2, 120323, Note_on_c, 0, 75, 0
2, 120329, Control_c, 0, 64, 116
2, 120342, Note_on_c, 0, 53, 69
2, 120348, Control_c, 0, 64, 112
2, 120368, Control_c, 0, 64, 108
2, 120384, Note_on_c, 0, 56, 74
2, 120386, Control_c, 0, 64, 103
2, 120406, Control_c, 0, 64, 98
2, 120409, Note_on_c, 0, 74, 88
2, 120424, Note_on_c, 0, 58, 72
2, 120424, Note_on_c, 0, 65, 70
2, 120425, Control_c, 0, 64, 92
2, 120428, Note_on_c, 0, 70, 81
2, 120444, Control_c, 0, 64, 86
2, 120463, Control_c, 0, 64, 79
2, 120483, Control_c, 0, 64, 72
2, 120502, Control_c, 0, 64, 66
2, 120521, Control_c, 0, 64, 60
2, 120540, Control_c, 0, 64, 57
2, 120560, Control_c, 0, 64, 56
2, 120598, Control_c, 0, 64, 57
2, 120617, Control_c, 0, 64, 59
2, 120637, Control_c, 0, 64, 61
2, 120655, Control_c, 0, 64, 62
2, 120675, Control_c, 0, 64, 63
2, 120714, Control_c, 0, 64, 63
2, 120769, Note_on_c, 0, 75, 89
2, 120771, Control_c, 0, 64, 63
2, 120789, Control_c, 0, 64, 62
2, 120805, Note_on_c, 0, 74, 0
2, 120809, Control_c, 0, 64, 58
2, 120828, Control_c, 0, 64, 52
2, 120848, Control_c, 0, 64, 48
2, 120866, Control_c, 0, 64, 48
2, 120886, Control_c, 0, 64, 52
2, 120905, Control_c, 0, 64, 58
2, 120924, Control_c, 0, 64, 62
2, 120938, Note_on_c, 0, 74, 81
2, 120943, Control_c, 0, 64, 64
2, 120963, Control_c, 0, 64, 67
2, 120967, Note_on_c, 0, 75, 0
2, 120982, Control_c, 0, 64, 69
2, 121001, Control_c, 0, 64, 73
2, 121020, Control_c, 0, 64, 77
2, 121040, Control_c, 0, 64, 79
2, 121050, Note_on_c, 0, 75, 71
2, 121058, Control_c, 0, 64, 80
2, 121063, Note_on_c, 0, 74, 0
2, 121134, Note_on_c, 0, 74, 60
2, 121144, Note_on_c, 0, 75, 0
2, 121174, Control_c, 0, 64, 80
2, 121201, Note_on_c, 0, 75, 56
2, 121209, Note_on_c, 0, 74, 0
2, 121212, Control_c, 0, 64, 79
2, 121251, Control_c, 0, 64, 79
2, 121273, Note_on_c, 0, 74, 68
2, 121288, Note_on_c, 0, 75, 0
2, 121328, Control_c, 0, 64, 78
2, 121346, Control_c, 0, 64, 79
2, 121462, Control_c, 0, 64, 78
2, 121481, Control_c, 0, 64, 78
2, 121500, Control_c, 0, 64, 77
2, 121520, Control_c, 0, 64, 76
2, 121538, Control_c, 0, 64, 75
2, 121558, Control_c, 0, 64, 71
2, 121577, Control_c, 0, 64, 65
2, 121594, Control_c, 0, 64, 58
2, 121612, Control_c, 0, 64, 52
2, 121632, Control_c, 0, 64, 53
2, 121639, Note_on_c, 0, 75, 89
2, 121651, Control_c, 0, 64, 57
2, 121671, Control_c, 0, 64, 62
2, 121689, Control_c, 0, 64, 65
2, 121709, Control_c, 0, 64, 69
2, 121719, Note_on_c, 0, 70, 0
2, 121728, Control_c, 0, 64, 76
2, 121742, Note_on_c, 0, 74, 0
2, 121747, Control_c, 0, 64, 87
2, 121766, Control_c, 0, 64, 96
2, 121786, Control_c, 0, 64, 99
2, 121813, Note_on_c, 0, 65, 0
2, 121819, Note_on_c, 0, 46, 0
2, 121838, Note_on_c, 0, 53, 0
2, 121881, Control_c, 0, 64, 99
2, 121901, Note_on_c, 0, 56, 0
2, 121939, Control_c, 0, 64, 100
2, 121952, Note_on_c, 0, 58, 0
2, 122039, Note_on_c, 0, 75, 0
2, 122290, Note_on_c, 0, 75, 90
2, 122293, Note_on_c, 0, 47, 58
2, 122299, Note_on_c, 0, 59, 63
2, 122304, Control_c, 0, 64, 98
2, 122315, Note_on_c, 0, 70, 77
2, 122317, Note_on_c, 0, 63, 70
2, 122323, Control_c, 0, 64, 95
2, 122343, Control_c, 0, 64, 89
2, 122361, Control_c, 0, 64, 78
2, 122381, Control_c, 0, 64, 66
2, 122400, Control_c, 0, 64, 50
2, 122419, Control_c, 0, 64, 15
2, 122438, Control_c, 0, 64, 9
2, 122554, Control_c, 0, 64, 11
2, 122572, Control_c, 0, 64, 17
2, 122592, Control_c, 0, 64, 19
2, 122611, Control_c, 0, 64, 20
2, 122707, Control_c, 0, 64, 21
2, 122727, Control_c, 0, 64, 23
2, 122747, Control_c, 0, 64, 25
2, 122765, Control_c, 0, 64, 27
2, 122785, Control_c, 0, 64, 29
2, 122804, Control_c, 0, 64, 30
2, 122824, Control_c, 0, 64, 31
2, 122842, Control_c, 0, 64, 32
2, 122862, Control_c, 0, 64, 34
2, 122881, Control_c, 0, 64, 35
2, 122901, Control_c, 0, 64, 36
2, 122919, Control_c, 0, 64, 37
2, 122938, Control_c, 0, 64, 39
2, 122958, Control_c, 0, 64, 40
2, 122976, Control_c, 0, 64, 42
2, 122996, Control_c, 0, 64, 42
2, 123015, Control_c, 0, 64, 43
2, 123035, Control_c, 0, 64, 44
2, 123053, Control_c, 0, 64, 45
2, 123073, Control_c, 0, 64, 46
2, 123092, Control_c, 0, 64, 47
2, 123111, Control_c, 0, 64, 49
2, 123130, Control_c, 0, 64, 50
2, 123150, Control_c, 0, 64, 51
2, 123169, Control_c, 0, 64, 52
2, 123188, Control_c, 0, 64, 53
2, 123207, Control_c, 0, 64, 54
2, 123227, Control_c, 0, 64, 55
2, 123265, Control_c, 0, 64, 55
2, 123284, Control_c, 0, 64, 56
2, 123304, Control_c, 0, 64, 56
2, 123322, Control_c, 0, 64, 57
2, 123342, Control_c, 0, 64, 57
2, 123361, Control_c, 0, 64, 58
2, 123381, Control_c, 0, 64, 59
2, 123399, Control_c, 0, 64, 60
2, 123418, Control_c, 0, 64, 61
2, 123438, Control_c, 0, 64, 62
2, 123456, Control_c, 0, 64, 64
2, 123476, Control_c, 0, 64, 65
2, 123495, Control_c, 0, 64, 68
2, 123495, Note_on_c, 0, 68, 77
2, 123496, Note_on_c, 0, 63, 0
2, 123515, Control_c, 0, 64, 75
2, 123533, Control_c, 0, 64, 91
2, 123553, Control_c, 0, 64, 121
2, 123572, Control_c, 0, 64, 127
2, 123591, Note_on_c, 0, 70, 0
2, 123680, Note_on_c, 0, 47, 0
2, 123752, Note_on_c, 0, 59, 0
2, 123756, Note_on_c, 0, 67, 78
2, 123795, Note_on_c, 0, 68, 0
2, 123935, Note_on_c, 0, 68, 90
2, 123971, Note_on_c, 0, 67, 0
2, 124080, Note_on_c, 0, 68, 0
2, 124114, Note_on_c, 0, 63, 64
2, 124121, Note_on_c, 0, 59, 63
2, 124129, Control_c, 0, 64, 113
2, 124148, Control_c, 0, 64, 103
2, 124153, Note_on_c, 0, 68, 78
2, 124167, Control_c, 0, 64, 89
2, 124187, Control_c, 0, 64, 73
2, 124205, Control_c, 0, 64, 60
2, 124225, Control_c, 0, 64, 0
2, 124282, Control_c, 0, 64, 22
2, 124302, Control_c, 0, 64, 45
2, 124321, Control_c, 0, 64, 58
2, 124341, Control_c, 0, 64, 63
2, 124359, Control_c, 0, 64, 65
2, 124378, Control_c, 0, 64, 67
2, 124384, Note_on_c, 0, 68, 0
2, 124394, Note_on_c, 0, 70, 65
2, 124398, Control_c, 0, 64, 69
2, 124416, Control_c, 0, 64, 73
2, 124436, Control_c, 0, 64, 79
2, 124455, Control_c, 0, 64, 87
2, 124475, Control_c, 0, 64, 93
2, 124493, Control_c, 0, 64, 94
2, 124511, Note_on_c, 0, 70, 0
2, 124519, Note_on_c, 0, 68, 71
2, 124594, Note_on_c, 0, 68, 0
2, 124610, Note_on_c, 0, 70, 59
2, 124671, Control_c, 0, 64, 94
2, 124674, Note_on_c, 0, 68, 56
2, 124677, Note_on_c, 0, 70, 0
2, 124690, Control_c, 0, 64, 93
2, 124729, Control_c, 0, 64, 93
2, 124754, Note_on_c, 0, 68, 0
2, 124766, Note_on_c, 0, 70, 58
2, 124824, Note_on_c, 0, 68, 62
2, 124826, Note_on_c, 0, 70, 0
2, 124896, Note_on_c, 0, 68, 0
2, 124910, Note_on_c, 0, 70, 69
2, 124970, Note_on_c, 0, 70, 0
2, 124977, Note_on_c, 0, 68, 60
2, 124978, Control_c, 0, 64, 93
2, 125016, Control_c, 0, 64, 94
2, 125045, Note_on_c, 0, 68, 0
2, 125050, Control_c, 0, 64, 94
2, 125052, Note_on_c, 0, 70, 68
2, 125108, Control_c, 0, 64, 95
2, 125116, Note_on_c, 0, 70, 0
2, 125119, Note_on_c, 0, 68, 63
2, 125127, Control_c, 0, 64, 95
2, 125147, Control_c, 0, 64, 96
2, 125185, Control_c, 0, 64, 96
2, 125194, Note_on_c, 0, 68, 0
2, 125204, Control_c, 0, 64, 97
2, 125206, Note_on_c, 0, 70, 66
2, 125240, Note_on_c, 0, 59, 0
2, 125242, Control_c, 0, 64, 98
2, 125262, Note_on_c, 0, 70, 0
2, 125271, Note_on_c, 0, 68, 60
2, 125273, Note_on_c, 0, 63, 0
2, 125333, Note_on_c, 0, 68, 0
2, 125351, Note_on_c, 0, 70, 60
2, 125358, Control_c, 0, 64, 98
2, 125391, Note_on_c, 0, 70, 0
2, 125395, Note_on_c, 0, 68, 60
2, 125466, Note_on_c, 0, 68, 0
2, 125497, Note_on_c, 0, 70, 66
2, 125572, Note_on_c, 0, 70, 0
2, 125592, Control_c, 0, 64, 98
2, 125611, Control_c, 0, 64, 97
2, 125631, Control_c, 0, 64, 96
2, 125637, Note_on_c, 0, 68, 23
2, 125647, Note_on_c, 0, 59, 46
2, 125649, Control_c, 0, 64, 94
2, 125656, Note_on_c, 0, 63, 45
2, 125669, Control_c, 0, 64, 89
2, 125688, Control_c, 0, 64, 81
2, 125707, Control_c, 0, 64, 71
2, 125726, Control_c, 0, 64, 63
2, 125746, Control_c, 0, 64, 53
2, 125765, Control_c, 0, 64, 49
2, 125784, Control_c, 0, 64, 49
2, 125803, Control_c, 0, 64, 48
2, 125823, Control_c, 0, 64, 48
2, 125841, Control_c, 0, 64, 47
2, 126030, Control_c, 0, 64, 48
2, 126049, Control_c, 0, 64, 48
2, 126068, Control_c, 0, 64, 49
2, 126087, Control_c, 0, 64, 49
2, 126107, Control_c, 0, 64, 50
2, 126125, Control_c, 0, 64, 50
2, 126145, Control_c, 0, 64, 51
2, 126164, Control_c, 0, 64, 51
2, 126184, Control_c, 0, 64, 52
2, 126202, Control_c, 0, 64, 54
2, 126222, Control_c, 0, 64, 55
2, 126241, Control_c, 0, 64, 57
2, 126260, Control_c, 0, 64, 58
2, 126279, Control_c, 0, 64, 59
2, 126298, Control_c, 0, 64, 60
2, 126318, Control_c, 0, 64, 61
2, 126336, Control_c, 0, 64, 63
2, 126356, Control_c, 0, 64, 64
2, 126375, Control_c, 0, 64, 65
2, 126395, Control_c, 0, 64, 66
2, 126413, Control_c, 0, 64, 69
2, 126433, Control_c, 0, 64, 74
2, 126452, Control_c, 0, 64, 82
2, 126471, Control_c, 0, 64, 94
2, 126490, Control_c, 0, 64, 111
2, 126510, Control_c, 0, 64, 127
2, 126606, Control_c, 0, 67, 9
2, 126626, Control_c, 0, 67, 13
2, 126645, Control_c, 0, 67, 18
2, 126665, Control_c, 0, 67, 28
2, 126683, Control_c, 0, 67, 45
2, 126703, Control_c, 0, 67, 65
2, 126722, Control_c, 0, 67, 85
2, 126740, Control_c, 0, 67, 106
2, 126756, Note_on_c, 0, 59, 0
2, 126760, Control_c, 0, 67, 121
2, 126779, Control_c, 0, 67, 127
2, 126851, Note_on_c, 0, 68, 0
2, 126880, Note_on_c, 0, 67, 42
2, 126890, Note_on_c, 0, 63, 0
2, 127010, Note_on_c, 0, 68, 46
2, 127028, Control_c, 0, 64, 115
2, 127047, Control_c, 0, 64, 110
2, 127055, Note_on_c, 0, 67, 0
2, 127067, Control_c, 0, 64, 105
2, 127085, Control_c, 0, 64, 101
2, 127105, Control_c, 0, 64, 96
2, 127124, Control_c, 0, 64, 90
2, 127132, Note_on_c, 0, 55, 34
2, 127144, Control_c, 0, 64, 87
2, 127162, Control_c, 0, 64, 84
2, 127182, Control_c, 0, 64, 82
2, 127188, Note_on_c, 0, 58, 29
2, 127201, Control_c, 0, 64, 80
2, 127220, Control_c, 0, 64, 76
2, 127239, Control_c, 0, 64, 71
2, 127248, Note_on_c, 0, 70, 51
2, 127258, Control_c, 0, 64, 67
2, 127266, Note_on_c, 0, 68, 0
2, 127278, Control_c, 0, 64, 64
2, 127296, Control_c, 0, 64, 62
2, 127299, Note_on_c, 0, 63, 16
2, 127316, Control_c, 0, 64, 58
2, 127335, Control_c, 0, 64, 52
2, 127355, Control_c, 0, 64, 46
2, 127373, Control_c, 0, 64, 42
2, 127393, Control_c, 0, 64, 40
2, 127450, Control_c, 0, 64, 39
2, 127565, Control_c, 0, 67, 127
2, 127604, Control_c, 0, 64, 40
2, 127604, Control_c, 0, 67, 126
2, 127624, Control_c, 0, 64, 41
2, 127624, Control_c, 0, 67, 125
2, 127642, Control_c, 0, 64, 44
2, 127642, Control_c, 0, 67, 125
2, 127662, Control_c, 0, 64, 46
2, 127662, Control_c, 0, 67, 124
2, 127681, Control_c, 0, 64, 48
2, 127681, Control_c, 0, 67, 124
2, 127700, Control_c, 0, 64, 50
2, 127700, Control_c, 0, 67, 122
2, 127719, Control_c, 0, 64, 52
2, 127719, Control_c, 0, 67, 121
2, 127738, Control_c, 0, 64, 54
2, 127738, Control_c, 0, 67, 120
2, 127758, Control_c, 0, 64, 56
2, 127758, Control_c, 0, 67, 119
2, 127776, Control_c, 0, 64, 58
2, 127776, Control_c, 0, 67, 119
2, 127796, Control_c, 0, 67, 118
2, 127815, Control_c, 0, 64, 56
2, 127815, Control_c, 0, 67, 116
2, 127835, Control_c, 0, 64, 54
2, 127835, Control_c, 0, 67, 115
2, 127853, Control_c, 0, 64, 48
2, 127853, Control_c, 0, 67, 115
2, 127873, Control_c, 0, 64, 11
2, 127892, Control_c, 0, 64, 0
2, 128065, Control_c, 0, 64, 42
2, 128084, Control_c, 0, 64, 63
2, 128104, Control_c, 0, 64, 67
2, 128122, Control_c, 0, 64, 71
2, 128142, Control_c, 0, 64, 79
2, 128161, Control_c, 0, 64, 90
2, 128180, Control_c, 0, 64, 102
2, 128199, Control_c, 0, 64, 111
2, 128199, Control_c, 0, 67, 116
2, 128218, Control_c, 0, 64, 121
2, 128218, Control_c, 0, 67, 118
2, 128238, Control_c, 0, 64, 127
2, 128238, Control_c, 0, 67, 120
2, 128248, Note_on_c, 0, 58, 0
2, 128256, Control_c, 0, 67, 123
2, 128276, Control_c, 0, 67, 126
2, 128283, Note_on_c, 0, 55, 0
2, 128285, Note_on_c, 0, 63, 0
2, 128295, Control_c, 0, 67, 127
2, 128546, Control_c, 0, 64, 119
2, 128565, Control_c, 0, 64, 115
2, 128585, Control_c, 0, 64, 113
2, 128603, Control_c, 0, 64, 110
2, 128623, Control_c, 0, 64, 106
2, 128642, Control_c, 0, 64, 102
2, 128645, Note_on_c, 0, 55, 28
2, 128660, Control_c, 0, 64, 98
2, 128680, Control_c, 0, 64, 96
2, 128699, Control_c, 0, 64, 93
2, 128702, Note_on_c, 0, 58, 30
2, 128719, Control_c, 0, 64, 90
2, 128737, Control_c, 0, 64, 86
2, 128756, Note_on_c, 0, 63, 33
2, 128757, Control_c, 0, 64, 81
2, 128776, Control_c, 0, 64, 76
2, 128796, Control_c, 0, 64, 72
2, 128814, Control_c, 0, 64, 68
2, 128834, Control_c, 0, 64, 64
2, 128853, Control_c, 0, 64, 57
2, 128872, Control_c, 0, 64, 48
2, 128890, Control_c, 0, 64, 43
2, 128909, Control_c, 0, 64, 41
2, 128986, Control_c, 0, 64, 41
2, 129063, Control_c, 0, 64, 42
2, 129081, Control_c, 0, 64, 44
2, 129100, Control_c, 0, 64, 45
2, 129120, Control_c, 0, 64, 47
2, 129139, Control_c, 0, 64, 50
2, 129158, Control_c, 0, 64, 52
2, 129177, Control_c, 0, 64, 55
2, 129197, Control_c, 0, 64, 57
2, 129199, Note_on_c, 0, 75, 0
2, 129215, Control_c, 0, 64, 58
2, 129235, Control_c, 0, 64, 59
2, 129254, Control_c, 0, 64, 61
2, 129274, Control_c, 0, 64, 62
2, 129292, Control_c, 0, 64, 63
2, 129312, Control_c, 0, 64, 65
2, 129331, Control_c, 0, 64, 66
2, 129351, Control_c, 0, 64, 67
2, 129369, Control_c, 0, 64, 69
2, 129389, Control_c, 0, 64, 71
2, 129408, Control_c, 0, 64, 75
2, 129427, Control_c, 0, 64, 79
2, 129448, Control_c, 0, 64, 83
2, 129468, Control_c, 0, 64, 87
2, 129486, Control_c, 0, 64, 87
2, 129506, Control_c, 0, 64, 88
2, 129525, Control_c, 0, 64, 88
2, 129545, Control_c, 0, 64, 89
2, 129563, Control_c, 0, 64, 92
2, 129583, Control_c, 0, 64, 94
2, 129587, Note_on_c, 0, 70, 0
2, 129602, Control_c, 0, 64, 95
2, 129620, Control_c, 0, 64, 96
2, 129745, Note_on_c, 0, 75, 55
2, 129794, Control_c, 0, 64, 95
2, 129801, Note_on_c, 0, 58, 0
2, 129832, Control_c, 0, 64, 94
2, 129845, Note_on_c, 0, 55, 0
2, 129850, Control_c, 0, 64, 94
2, 129870, Control_c, 0, 64, 92
2, 129889, Control_c, 0, 64, 91
2, 129889, Note_on_c, 0, 73, 52
2, 129908, Control_c, 0, 64, 90
2, 129927, Control_c, 0, 64, 90
2, 129932, Note_on_c, 0, 75, 0
2, 129947, Control_c, 0, 64, 89
2, 129949, Note_on_c, 0, 63, 0
2, 129965, Control_c, 0, 64, 88
2, 129985, Control_c, 0, 64, 87
2, 130000, Note_on_c, 0, 73, 0
2, 130002, Note_on_c, 0, 71, 51
2, 130004, Control_c, 0, 64, 86
2, 130024, Control_c, 0, 64, 85
2, 130042, Control_c, 0, 64, 84
2, 130061, Control_c, 0, 64, 83
2, 130081, Control_c, 0, 64, 82
2, 130100, Control_c, 0, 64, 81
2, 130119, Control_c, 0, 64, 80
2, 130136, Note_on_c, 0, 55, 19
2, 130138, Control_c, 0, 64, 78
2, 130158, Control_c, 0, 64, 77
2, 130161, Note_on_c, 0, 58, 37
2, 130176, Control_c, 0, 64, 76
2, 130190, Note_on_c, 0, 73, 49
2, 130196, Control_c, 0, 64, 75
2, 130215, Control_c, 0, 64, 72
2, 130226, Note_on_c, 0, 71, 0
2, 130235, Control_c, 0, 64, 69
2, 130238, Note_on_c, 0, 63, 33
2, 130253, Control_c, 0, 64, 65
2, 130273, Control_c, 0, 64, 60
2, 130292, Control_c, 0, 64, 55
2, 130311, Control_c, 0, 64, 50
2, 130330, Control_c, 0, 64, 45
2, 130350, Control_c, 0, 64, 41
2, 130369, Control_c, 0, 64, 37
2, 130388, Control_c, 0, 64, 35
2, 130407, Control_c, 0, 64, 34
2, 130427, Control_c, 0, 64, 34
2, 130445, Control_c, 0, 64, 33
2, 130465, Control_c, 0, 64, 32
2, 130484, Control_c, 0, 64, 31
2, 130504, Control_c, 0, 64, 31
2, 130522, Control_c, 0, 64, 30
2, 130828, Control_c, 0, 64, 36
2, 130847, Control_c, 0, 64, 44
2, 130866, Control_c, 0, 64, 53
2, 130885, Control_c, 0, 64, 60
2, 130905, Control_c, 0, 64, 63
2, 130924, Control_c, 0, 64, 64
2, 130943, Control_c, 0, 64, 66
2, 130962, Control_c, 0, 64, 69
2, 130981, Control_c, 0, 64, 73
2, 131001, Control_c, 0, 64, 79
2, 131019, Control_c, 0, 64, 87
2, 131039, Control_c, 0, 64, 91
2, 131058, Control_c, 0, 64, 93
2, 131077, Control_c, 0, 64, 93
2, 131096, Control_c, 0, 64, 94
2, 131116, Control_c, 0, 64, 94
2, 131116, Note_on_c, 0, 58, 0
2, 131135, Control_c, 0, 64, 95
2, 131154, Control_c, 0, 64, 96
2, 131169, Note_on_c, 0, 70, 56
2, 131173, Control_c, 0, 64, 97
2, 131181, Note_on_c, 0, 55, 0
2, 131193, Control_c, 0, 64, 97
2, 131211, Control_c, 0, 64, 98
2, 131224, Note_on_c, 0, 63, 0
2, 131283, Note_on_c, 0, 70, 0
2, 131288, Control_c, 0, 64, 97
2, 131304, Note_on_c, 0, 73, 0
2, 131308, Control_c, 0, 64, 96
2, 131327, Control_c, 0, 64, 96
2, 131346, Control_c, 0, 64, 95
2, 131367, Control_c, 0, 64, 93
2, 131387, Control_c, 0, 64, 90
2, 131405, Control_c, 0, 64, 88
2, 131420, Note_on_c, 0, 56, 41
2, 131425, Control_c, 0, 64, 87
2, 131444, Control_c, 0, 64, 85
2, 131464, Control_c, 0, 64, 83
2, 131482, Control_c, 0, 64, 81
2, 131501, Control_c, 0, 64, 79
2, 131521, Control_c, 0, 64, 77
2, 131531, Note_on_c, 0, 59, 33
2, 131540, Control_c, 0, 64, 75
2, 131559, Control_c, 0, 64, 73
2, 131566, Note_on_c, 0, 63, 18
2, 131578, Control_c, 0, 64, 70
2, 131598, Control_c, 0, 64, 67
2, 131616, Control_c, 0, 64, 64
2, 131623, Note_on_c, 0, 71, 43
2, 131630, Note_on_c, 0, 68, 39
2, 131636, Control_c, 0, 64, 61
2, 131655, Control_c, 0, 64, 58
2, 131675, Control_c, 0, 64, 54
2, 131693, Control_c, 0, 64, 48
2, 131713, Control_c, 0, 64, 40
2, 131732, Control_c, 0, 64, 32
2, 131751, Control_c, 0, 64, 27
2, 131769, Control_c, 0, 64, 26
2, 131789, Control_c, 0, 64, 25
2, 131808, Control_c, 0, 64, 24
2, 131827, Control_c, 0, 64, 23
2, 131866, Control_c, 0, 64, 22
2, 131980, Control_c, 0, 64, 0
2, 132365, Control_c, 0, 64, 44
2, 132385, Control_c, 0, 64, 61
2, 132404, Control_c, 0, 64, 65
2, 132424, Control_c, 0, 64, 67
2, 132442, Control_c, 0, 64, 70
2, 132461, Control_c, 0, 64, 76
2, 132481, Control_c, 0, 64, 90
2, 132500, Control_c, 0, 64, 102
2, 132519, Control_c, 0, 64, 127
2, 132519, Control_c, 0, 67, 127
2, 132538, Control_c, 0, 67, 126
2, 132576, Control_c, 0, 67, 126
2, 132581, Note_on_c, 0, 63, 0
2, 132644, Note_on_c, 0, 56, 0
2, 132672, Note_on_c, 0, 59, 0
2, 132807, Control_c, 0, 67, 126
2, 132845, Control_c, 0, 67, 127
2, 132976, Note_on_c, 0, 52, 49
2, 133018, Control_c, 0, 64, 110
2, 133038, Control_c, 0, 64, 101
2, 133056, Control_c, 0, 64, 94
2, 133076, Control_c, 0, 64, 85
2, 133095, Control_c, 0, 64, 75
2, 133115, Control_c, 0, 64, 67
2, 133133, Control_c, 0, 64, 61
2, 133153, Control_c, 0, 64, 55
2, 133172, Control_c, 0, 64, 53
2, 133210, Control_c, 0, 64, 53
2, 133230, Control_c, 0, 64, 54
2, 133270, Control_c, 0, 64, 54
2, 133270, Control_c, 0, 67, 126
2, 133289, Control_c, 0, 64, 55
2, 133289, Control_c, 0, 67, 126
2, 133309, Control_c, 0, 64, 56
2, 133309, Control_c, 0, 67, 125
2, 133327, Control_c, 0, 64, 57
2, 133347, Control_c, 0, 64, 58
2, 133347, Control_c, 0, 67, 125
2, 133366, Control_c, 0, 64, 59
2, 133386, Control_c, 0, 64, 60
2, 133404, Control_c, 0, 64, 60
2, 133424, Control_c, 0, 64, 62
2, 133443, Control_c, 0, 64, 63
2, 133461, Control_c, 0, 64, 64
2, 133481, Control_c, 0, 64, 65
2, 133500, Control_c, 0, 64, 66
2, 133520, Control_c, 0, 64, 69
2, 133538, Control_c, 0, 64, 73
2, 133558, Control_c, 0, 64, 79
2, 133577, Control_c, 0, 64, 88
2, 133577, Control_c, 0, 67, 125
2, 133596, Control_c, 0, 64, 94
2, 133615, Control_c, 0, 64, 99
2, 133615, Control_c, 0, 67, 126
2, 133635, Control_c, 0, 64, 105
2, 133651, Note_on_c, 0, 71, 0
2, 133654, Control_c, 0, 64, 110
2, 133664, Note_on_c, 0, 68, 0
2, 133673, Control_c, 0, 64, 114
2, 133692, Control_c, 0, 64, 115
2, 133710, Control_c, 0, 64, 117
2, 133729, Control_c, 0, 64, 121
2, 133748, Control_c, 0, 64, 127
2, 133748, Control_c, 0, 67, 126
2, 133825, Control_c, 0, 67, 127
2, 133840, Note_on_c, 0, 63, 56
2, 133874, Note_on_c, 0, 71, 44
2, 133969, Note_on_c, 0, 63, 0
2, 134026, Note_on_c, 0, 61, 62
2, 134044, Note_on_c, 0, 71, 0
2, 134058, Note_on_c, 0, 70, 58
2, 134093, Control_c, 0, 67, 127
2, 134180, Note_on_c, 0, 61, 0
2, 134201, Note_on_c, 0, 59, 61
2, 134216, Note_on_c, 0, 68, 62
2, 134219, Note_on_c, 0, 70, 0
2, 134238, Note_on_c, 0, 52, 0
2, 134258, Note_on_c, 0, 59, 0
2, 134384, Note_on_c, 0, 68, 0
2, 134401, Control_c, 0, 64, 111
2, 134420, Control_c, 0, 64, 101
2, 134438, Note_on_c, 0, 61, 54
2, 134439, Control_c, 0, 64, 93
2, 134450, Note_on_c, 0, 52, 38
2, 134458, Control_c, 0, 64, 85
2, 134459, Note_on_c, 0, 70, 58
2, 134478, Control_c, 0, 64, 77
2, 134496, Control_c, 0, 64, 68
2, 134516, Control_c, 0, 64, 62
2, 134535, Control_c, 0, 64, 51
2, 134555, Control_c, 0, 64, 42
2, 134573, Control_c, 0, 64, 40
2, 134689, Control_c, 0, 64, 40
2, 134727, Control_c, 0, 64, 41
2, 134804, Control_c, 0, 64, 41
2, 134938, Control_c, 0, 64, 41
2, 134976, Control_c, 0, 64, 40
2, 134996, Control_c, 0, 64, 39
2, 135015, Control_c, 0, 64, 38
2, 135035, Control_c, 0, 64, 36
2, 135053, Control_c, 0, 64, 36
2, 135111, Control_c, 0, 64, 39
2, 135130, Control_c, 0, 64, 45
2, 135150, Control_c, 0, 64, 50
2, 135169, Control_c, 0, 64, 55
2, 135188, Control_c, 0, 64, 59
2, 135205, Control_c, 0, 64, 61
2, 135225, Control_c, 0, 64, 64
2, 135244, Control_c, 0, 64, 66
2, 135263, Control_c, 0, 64, 69
2, 135282, Control_c, 0, 64, 76
2, 135301, Control_c, 0, 64, 91
2, 135321, Control_c, 0, 64, 127
2, 135382, Note_on_c, 0, 58, 50
2, 135415, Note_on_c, 0, 67, 39
2, 135431, Note_on_c, 0, 61, 0
2, 135471, Note_on_c, 0, 67, 0
2, 135475, Note_on_c, 0, 52, 0
2, 135500, Note_on_c, 0, 70, 0
2, 135513, Note_on_c, 0, 58, 0
2, 135805, Note_on_c, 0, 53, 42
2, 135808, Note_on_c, 0, 59, 43
2, 135831, Note_on_c, 0, 62, 47
2, 135837, Note_on_c, 0, 68, 53
2, 135839, Control_c, 0, 64, 107
2, 135858, Control_c, 0, 64, 92
2, 135877, Control_c, 0, 64, 80
2, 135896, Control_c, 0, 64, 69
2, 135916, Control_c, 0, 64, 60
2, 135935, Control_c, 0, 64, 51
2, 135954, Control_c, 0, 64, 46
2, 135973, Control_c, 0, 64, 44
2, 136050, Control_c, 0, 64, 43
2, 136165, Control_c, 0, 64, 44
2, 136185, Control_c, 0, 64, 44
2, 136204, Control_c, 0, 64, 45
2, 136242, Control_c, 0, 64, 46
2, 136261, Control_c, 0, 64, 46
2, 136281, Control_c, 0, 64, 47
2, 136299, Control_c, 0, 64, 47
2, 136319, Control_c, 0, 64, 48
2, 136338, Control_c, 0, 64, 48
2, 136357, Control_c, 0, 64, 49
2, 136376, Control_c, 0, 64, 50
2, 136396, Control_c, 0, 64, 50
2, 136415, Control_c, 0, 64, 51
2, 136434, Control_c, 0, 64, 52
2, 136453, Control_c, 0, 64, 54
2, 136473, Control_c, 0, 64, 55
2, 136491, Control_c, 0, 64, 57
2, 136511, Control_c, 0, 64, 59
2, 136530, Control_c, 0, 64, 60
2, 136550, Control_c, 0, 64, 62
2, 136567, Control_c, 0, 64, 64
2, 136586, Control_c, 0, 64, 66
2, 136605, Control_c, 0, 64, 70
2, 136625, Control_c, 0, 64, 77
2, 136643, Control_c, 0, 64, 87
2, 136662, Control_c, 0, 64, 99
2, 136682, Control_c, 0, 64, 114
2, 136700, Control_c, 0, 64, 127
2, 136788, Note_on_c, 0, 68, 0
2, 136818, Note_on_c, 0, 59, 0
2, 136836, Note_on_c, 0, 62, 0
2, 137153, Note_on_c, 0, 59, 34
2, 137163, Control_c, 0, 64, 115
2, 137181, Control_c, 0, 64, 104
2, 137188, Note_on_c, 0, 68, 45
2, 137192, Note_on_c, 0, 62, 33
2, 137201, Control_c, 0, 64, 94
2, 137220, Control_c, 0, 64, 86
2, 137240, Control_c, 0, 64, 78
2, 137258, Control_c, 0, 64, 71
2, 137278, Control_c, 0, 64, 65
2, 137297, Control_c, 0, 64, 60
2, 137316, Control_c, 0, 64, 58
2, 137432, Control_c, 0, 64, 59
2, 137470, Control_c, 0, 64, 59
2, 137509, Control_c, 0, 64, 60
2, 137527, Control_c, 0, 64, 60
2, 137567, Control_c, 0, 64, 61
2, 137605, Control_c, 0, 64, 61
2, 137627, Control_c, 0, 64, 62
2, 137647, Control_c, 0, 64, 63
2, 137665, Control_c, 0, 64, 63
2, 137685, Control_c, 0, 64, 64
2, 137704, Control_c, 0, 64, 64
2, 137724, Control_c, 0, 64, 65
2, 137742, Control_c, 0, 64, 66
2, 137762, Control_c, 0, 64, 67
2, 137781, Control_c, 0, 64, 68
2, 137800, Control_c, 0, 64, 70
2, 137819, Control_c, 0, 64, 73
2, 137841, Control_c, 0, 64, 77
2, 137861, Control_c, 0, 64, 81
2, 137879, Control_c, 0, 64, 84
2, 137879, Control_c, 0, 67, 127
2, 137899, Control_c, 0, 64, 87
2, 137899, Control_c, 0, 67, 126
2, 137918, Control_c, 0, 64, 89
2, 137918, Control_c, 0, 67, 125
2, 137937, Control_c, 0, 64, 90
2, 137956, Control_c, 0, 64, 93
2, 137976, Control_c, 0, 64, 95
2, 137995, Control_c, 0, 64, 97
2, 138014, Control_c, 0, 64, 99
2, 138033, Control_c, 0, 64, 99
2, 138053, Control_c, 0, 64, 100
2, 138071, Note_on_c, 0, 53, 0
2, 138087, Note_on_c, 0, 54, 47
2, 138092, Control_c, 0, 64, 100
2, 138111, Control_c, 0, 64, 101
2, 138131, Control_c, 0, 64, 101
2, 138149, Control_c, 0, 64, 102
2, 138188, Control_c, 0, 67, 126
2, 138221, Note_on_c, 0, 53, 46
2, 138226, Control_c, 0, 64, 103
2, 138226, Control_c, 0, 67, 126
2, 138252, Note_on_c, 0, 59, 0
2, 138299, Note_on_c, 0, 54, 0
2, 138333, Note_on_c, 0, 68, 0
2, 138384, Note_on_c, 0, 51, 54
2, 138399, Control_c, 0, 64, 102
2, 138405, Note_on_c, 0, 62, 0
2, 138418, Control_c, 0, 64, 102
2, 138419, Note_on_c, 0, 53, 0
2, 138437, Control_c, 0, 64, 101
2, 138457, Control_c, 0, 64, 100
2, 138476, Control_c, 0, 64, 98
2, 138495, Control_c, 0, 64, 96
2, 138514, Control_c, 0, 64, 93
2, 138534, Control_c, 0, 64, 91
2, 138552, Control_c, 0, 64, 89
2, 138572, Control_c, 0, 64, 87
2, 138581, Note_on_c, 0, 53, 63
2, 138591, Control_c, 0, 64, 84
2, 138611, Control_c, 0, 64, 79
2, 138611, Control_c, 0, 67, 126
2, 138618, Note_on_c, 0, 59, 39
2, 138629, Control_c, 0, 64, 73
2, 138634, Note_on_c, 0, 68, 48
2, 138637, Note_on_c, 0, 62, 30
2, 138649, Control_c, 0, 64, 67
2, 138668, Control_c, 0, 64, 61
2, 138687, Control_c, 0, 64, 56
2, 138687, Control_c, 0, 67, 125
2, 138704, Note_on_c, 0, 51, 0
2, 138706, Control_c, 0, 64, 54
2, 138725, Control_c, 0, 64, 53
2, 138745, Control_c, 0, 67, 125
2, 138763, Control_c, 0, 64, 54
2, 138783, Control_c, 0, 64, 55
2, 138802, Control_c, 0, 64, 56
2, 138821, Control_c, 0, 64, 57
2, 138840, Control_c, 0, 64, 58
2, 138840, Control_c, 0, 67, 124
2, 138860, Control_c, 0, 64, 59
2, 138879, Control_c, 0, 64, 60
2, 138898, Control_c, 0, 64, 61
2, 138917, Control_c, 0, 64, 61
2, 138917, Control_c, 0, 67, 124
2, 138937, Control_c, 0, 64, 62
2, 138956, Control_c, 0, 64, 62
2, 138994, Control_c, 0, 64, 63
2, 139014, Control_c, 0, 64, 63
2, 139032, Control_c, 0, 64, 64
2, 139052, Control_c, 0, 64, 64
2, 139109, Control_c, 0, 64, 65
2, 139109, Control_c, 0, 67, 123
2, 139148, Control_c, 0, 67, 123
2, 139167, Control_c, 0, 67, 122
2, 139186, Control_c, 0, 67, 121
2, 139205, Control_c, 0, 67, 114
2, 139207, Note_on_c, 0, 54, 63
2, 139211, Note_on_c, 0, 53, 0
2, 139225, Control_c, 0, 64, 64
2, 139225, Control_c, 0, 67, 102
2, 139243, Control_c, 0, 67, 92
2, 139263, Control_c, 0, 64, 65
2, 139263, Control_c, 0, 67, 84
2, 139282, Control_c, 0, 67, 79
2, 139301, Control_c, 0, 64, 65
2, 139301, Control_c, 0, 67, 77
2, 139320, Control_c, 0, 64, 66
2, 139320, Control_c, 0, 67, 76
2, 139340, Control_c, 0, 64, 66
2, 139359, Control_c, 0, 64, 67
2, 139378, Control_c, 0, 64, 67
2, 139397, Control_c, 0, 67, 76
2, 139420, Note_on_c, 0, 56, 63
2, 139436, Control_c, 0, 67, 77
2, 139474, Control_c, 0, 67, 77
2, 139512, Control_c, 0, 64, 67
2, 139512, Control_c, 0, 67, 78
2, 139532, Control_c, 0, 64, 65
2, 139532, Control_c, 0, 67, 78
2, 139551, Control_c, 0, 64, 63
2, 139571, Control_c, 0, 64, 61
2, 139571, Control_c, 0, 67, 79
2, 139589, Control_c, 0, 64, 57
2, 139593, Note_on_c, 0, 53, 65
2, 139609, Control_c, 0, 64, 54
2, 139612, Note_on_c, 0, 54, 0
2, 139628, Control_c, 0, 64, 52
2, 139647, Control_c, 0, 64, 55
2, 139665, Note_on_c, 0, 56, 0
2, 139666, Control_c, 0, 64, 60
2, 139685, Control_c, 0, 64, 63
2, 139705, Control_c, 0, 64, 65
2, 139723, Control_c, 0, 64, 67
2, 139743, Control_c, 0, 64, 69
2, 139743, Control_c, 0, 67, 79
2, 139751, Note_on_c, 0, 54, 61
2, 139762, Control_c, 0, 64, 72
2, 139781, Control_c, 0, 64, 76
2, 139784, Note_on_c, 0, 53, 0
2, 139800, Control_c, 0, 64, 78
2, 139820, Control_c, 0, 64, 78
2, 139839, Control_c, 0, 67, 79
2, 139841, Note_on_c, 0, 59, 0
2, 139862, Note_on_c, 0, 68, 0
2, 139896, Note_on_c, 0, 56, 65
2, 139916, Control_c, 0, 64, 78
2, 139935, Control_c, 0, 67, 79
2, 139954, Control_c, 0, 64, 77
2, 139974, Control_c, 0, 64, 77
2, 139979, Note_on_c, 0, 62, 0
2, 139992, Control_c, 0, 64, 76
2, 139996, Note_on_c, 0, 54, 0
2, 140013, Control_c, 0, 64, 75
2, 140032, Control_c, 0, 64, 74
2, 140052, Control_c, 0, 64, 73
2, 140064, Note_on_c, 0, 59, 37
2, 140070, Control_c, 0, 64, 71
2, 140070, Note_on_c, 0, 50, 68
2, 140090, Control_c, 0, 64, 70
2, 140108, Note_on_c, 0, 56, 0
2, 140109, Control_c, 0, 64, 67
2, 140111, Note_on_c, 0, 65, 42
2, 140128, Control_c, 0, 64, 65
2, 140141, Note_on_c, 0, 68, 54
2, 140147, Control_c, 0, 64, 62
2, 140167, Control_c, 0, 64, 57
2, 140186, Control_c, 0, 64, 51
2, 140204, Control_c, 0, 64, 47
2, 140224, Control_c, 0, 64, 45
2, 140243, Control_c, 0, 64, 43
2, 140262, Control_c, 0, 64, 42
2, 140281, Control_c, 0, 64, 42
2, 140378, Control_c, 0, 64, 43
2, 140413, Control_c, 0, 64, 44
2, 140432, Control_c, 0, 64, 44
2, 140452, Control_c, 0, 64, 46
2, 140471, Control_c, 0, 64, 47
2, 140490, Control_c, 0, 64, 48
2, 140509, Control_c, 0, 64, 49
2, 140509, Control_c, 0, 67, 79
2, 140529, Control_c, 0, 64, 51
2, 140547, Control_c, 0, 64, 53
2, 140567, Control_c, 0, 64, 55
2, 140586, Control_c, 0, 64, 56
2, 140605, Control_c, 0, 64, 58
2, 140624, Control_c, 0, 64, 59
2, 140624, Control_c, 0, 67, 78
2, 140643, Control_c, 0, 64, 61
2, 140643, Control_c, 0, 67, 78
2, 140663, Control_c, 0, 64, 62
2, 140681, Control_c, 0, 64, 64
2, 140681, Control_c, 0, 67, 77
2, 140701, Control_c, 0, 64, 65
2, 140720, Control_c, 0, 64, 66
2, 140720, Control_c, 0, 67, 77
2, 140740, Control_c, 0, 64, 69
2, 140758, Control_c, 0, 64, 73
2, 140778, Control_c, 0, 64, 79
2, 140797, Control_c, 0, 64, 88
2, 140816, Control_c, 0, 64, 98
2, 140835, Control_c, 0, 64, 110
2, 140835, Control_c, 0, 67, 76
2, 140855, Control_c, 0, 64, 127
2, 140893, Control_c, 0, 67, 76
2, 140991, Control_c, 0, 67, 75
2, 141011, Control_c, 0, 67, 75
2, 141020, Note_on_c, 0, 65, 0
2, 141049, Control_c, 0, 67, 74
2, 141063, Note_on_c, 0, 59, 0
2, 141068, Control_c, 0, 67, 74
2, 141075, Note_on_c, 0, 68, 0
2, 141125, Control_c, 0, 67, 73
2, 141279, Control_c, 0, 67, 72
2, 141295, Note_on_c, 0, 59, 45
2, 141298, Control_c, 0, 64, 123
2, 141298, Control_c, 0, 67, 68
2, 141317, Control_c, 0, 64, 112
2, 141317, Control_c, 0, 67, 67
2, 141335, Note_on_c, 0, 65, 46
2, 141337, Control_c, 0, 64, 106
2, 141356, Control_c, 0, 64, 100
2, 141356, Control_c, 0, 67, 66
2, 141357, Note_on_c, 0, 68, 59
2, 141375, Control_c, 0, 64, 93
2, 141375, Control_c, 0, 67, 65
2, 141395, Control_c, 0, 64, 85
2, 141415, Control_c, 0, 64, 76
2, 141415, Control_c, 0, 67, 64
2, 141433, Control_c, 0, 64, 67
2, 141433, Control_c, 0, 67, 64
2, 141453, Control_c, 0, 64, 62
2, 141453, Control_c, 0, 67, 63
2, 141472, Control_c, 0, 64, 56
2, 141472, Control_c, 0, 67, 62
2, 141492, Control_c, 0, 64, 55
2, 141492, Control_c, 0, 67, 62
2, 141510, Control_c, 0, 64, 55
2, 141510, Control_c, 0, 67, 61
2, 141530, Control_c, 0, 64, 56
2, 141530, Control_c, 0, 67, 61
2, 141549, Control_c, 0, 64, 57
2, 141568, Control_c, 0, 64, 58
2, 141587, Control_c, 0, 64, 59
2, 141587, Control_c, 0, 67, 60
2, 141607, Control_c, 0, 64, 60
2, 141607, Control_c, 0, 67, 60
2, 141626, Control_c, 0, 64, 60
2, 141626, Control_c, 0, 67, 59
2, 141644, Control_c, 0, 64, 61
2, 141644, Control_c, 0, 67, 58
2, 141664, Control_c, 0, 64, 61
2, 141664, Control_c, 0, 67, 56
2, 141683, Control_c, 0, 64, 62
2, 141683, Control_c, 0, 67, 52
2, 141702, Control_c, 0, 64, 63
2, 141702, Control_c, 0, 67, 46
2, 141721, Control_c, 0, 64, 63
2, 141721, Control_c, 0, 67, 39
2, 141741, Control_c, 0, 64, 64
2, 141741, Control_c, 0, 67, 29
2, 141760, Control_c, 0, 64, 65
2, 141760, Control_c, 0, 67, 21
2, 141779, Control_c, 0, 64, 66
2, 141779, Control_c, 0, 67, 12
2, 141798, Control_c, 0, 64, 67
2, 141798, Control_c, 0, 67, 0
2, 141818, Control_c, 0, 64, 69
2, 141836, Control_c, 0, 64, 71
2, 141856, Control_c, 0, 64, 73
2, 141875, Control_c, 0, 64, 76
2, 141895, Control_c, 0, 64, 80
2, 141913, Control_c, 0, 64, 84
2, 141933, Control_c, 0, 64, 89
2, 141952, Control_c, 0, 64, 92
2, 141972, Control_c, 0, 64, 94
2, 142010, Control_c, 0, 64, 95
2, 142029, Control_c, 0, 64, 95
2, 142048, Control_c, 0, 64, 96
2, 142067, Control_c, 0, 64, 96
2, 142102, Note_on_c, 0, 50, 0
2, 142103, Note_on_c, 0, 51, 61
2, 142106, Control_c, 0, 64, 97
2, 142124, Control_c, 0, 64, 98
2, 142144, Control_c, 0, 64, 99
2, 142163, Control_c, 0, 64, 101
2, 142182, Control_c, 0, 64, 101
2, 142201, Control_c, 0, 64, 102
2, 142221, Control_c, 0, 64, 102
2, 142240, Control_c, 0, 64, 103
2, 142259, Control_c, 0, 64, 104
2, 142278, Control_c, 0, 64, 105
2, 142298, Control_c, 0, 64, 108
2, 142316, Control_c, 0, 64, 112
2, 142336, Control_c, 0, 64, 118
2, 142354, Control_c, 0, 64, 127
2, 142432, Note_on_c, 0, 50, 69
2, 142491, Note_on_c, 0, 51, 0
2, 142593, Note_on_c, 0, 59, 0
2, 142602, Note_on_c, 0, 65, 0
2, 142613, Note_on_c, 0, 48, 65
2, 142617, Note_on_c, 0, 68, 0
2, 142667, Note_on_c, 0, 50, 0
2, 142757, Control_c, 0, 64, 121
2, 142777, Control_c, 0, 64, 115
2, 142796, Control_c, 0, 64, 109
2, 142804, Note_on_c, 0, 59, 54
2, 142806, Note_on_c, 0, 50, 78
2, 142815, Control_c, 0, 64, 103
2, 142834, Control_c, 0, 64, 98
2, 142854, Control_c, 0, 64, 90
2, 142855, Note_on_c, 0, 65, 54
2, 142872, Control_c, 0, 64, 79
2, 142874, Note_on_c, 0, 68, 68
2, 142883, Note_on_c, 0, 48, 0
2, 142892, Control_c, 0, 64, 68
2, 142911, Control_c, 0, 64, 59
2, 142931, Control_c, 0, 64, 41
2, 142949, Control_c, 0, 64, 31
2, 142969, Control_c, 0, 64, 32
2, 142988, Control_c, 0, 64, 40
2, 143006, Control_c, 0, 64, 51
2, 143026, Control_c, 0, 64, 59
2, 143045, Control_c, 0, 64, 63
2, 143065, Control_c, 0, 64, 64
2, 143083, Control_c, 0, 64, 65
2, 143103, Control_c, 0, 64, 65
2, 143122, Control_c, 0, 64, 63
2, 143141, Control_c, 0, 64, 57
2, 143160, Control_c, 0, 64, 41
2, 143180, Control_c, 0, 64, 0
2, 143257, Control_c, 0, 64, 46
2, 143276, Control_c, 0, 64, 60
2, 143292, Note_on_c, 0, 51, 73
2, 143295, Control_c, 0, 64, 63
2, 143314, Control_c, 0, 64, 64
2, 143334, Control_c, 0, 64, 65
2, 143341, Note_on_c, 0, 50, 0
2, 143352, Control_c, 0, 64, 66
2, 143372, Control_c, 0, 64, 66
2, 143391, Control_c, 0, 64, 67
2, 143411, Control_c, 0, 64, 68
2, 143429, Control_c, 0, 64, 69
2, 143449, Control_c, 0, 64, 69
2, 143468, Control_c, 0, 64, 70
2, 143486, Note_on_c, 0, 53, 73
2, 143506, Control_c, 0, 64, 70
2, 143545, Control_c, 0, 64, 70
2, 143583, Control_c, 0, 64, 69
2, 143602, Control_c, 0, 64, 68
2, 143621, Control_c, 0, 64, 67
2, 143640, Control_c, 0, 64, 65
2, 143660, Control_c, 0, 64, 64
2, 143679, Control_c, 0, 64, 63
2, 143682, Note_on_c, 0, 50, 71
2, 143685, Note_on_c, 0, 51, 0
2, 143698, Control_c, 0, 64, 61
2, 143717, Control_c, 0, 64, 56
2, 143737, Control_c, 0, 64, 50
2, 143756, Control_c, 0, 64, 42
2, 143775, Control_c, 0, 64, 36
2, 143794, Control_c, 0, 64, 35
2, 143832, Control_c, 0, 64, 36
2, 143853, Control_c, 0, 64, 40
2, 143857, Note_on_c, 0, 53, 0
2, 143866, Note_on_c, 0, 51, 68
2, 143872, Control_c, 0, 64, 46
2, 143892, Control_c, 0, 64, 52
2, 143910, Control_c, 0, 64, 59
2, 143930, Control_c, 0, 64, 62
2, 143931, Note_on_c, 0, 50, 0
2, 143949, Control_c, 0, 64, 63
2, 143968, Control_c, 0, 64, 64
2, 143987, Control_c, 0, 64, 66
2, 144006, Control_c, 0, 64, 67
2, 144026, Control_c, 0, 64, 69
2, 144044, Control_c, 0, 64, 72
2, 144052, Note_on_c, 0, 59, 0
2, 144054, Note_on_c, 0, 53, 73
2, 144064, Control_c, 0, 64, 77
2, 144083, Control_c, 0, 64, 83
2, 144102, Control_c, 0, 64, 88
2, 144121, Control_c, 0, 64, 89
2, 144135, Note_on_c, 0, 65, 0
2, 144179, Control_c, 0, 64, 90
2, 144191, Note_on_c, 0, 68, 0
2, 144196, Note_on_c, 0, 51, 0
2, 144218, Control_c, 0, 64, 90
2, 144332, Control_c, 0, 64, 90
2, 144339, Note_on_c, 0, 47, 79
2, 144346, Control_c, 0, 64, 89
2, 144357, Note_on_c, 0, 53, 0
2, 144365, Control_c, 0, 64, 86
2, 144383, Control_c, 0, 64, 82
2, 144403, Control_c, 0, 64, 75
2, 144422, Control_c, 0, 64, 68
2, 144441, Control_c, 0, 64, 61
2, 144460, Control_c, 0, 64, 55
2, 144483, Note_on_c, 0, 62, 65
2, 144499, Control_c, 0, 64, 58
2, 144518, Control_c, 0, 64, 60
2, 144537, Control_c, 0, 64, 62
2, 144557, Control_c, 0, 64, 64
2, 144575, Control_c, 0, 64, 65
2, 144595, Control_c, 0, 64, 66
2, 144614, Control_c, 0, 64, 67
2, 144620, Note_on_c, 0, 65, 66
2, 144634, Control_c, 0, 64, 67
2, 144710, Note_on_c, 0, 68, 75
2, 144711, Control_c, 0, 64, 67
2, 144729, Control_c, 0, 64, 66
2, 144749, Control_c, 0, 64, 65
2, 144768, Control_c, 0, 64, 62
2, 144787, Control_c, 0, 64, 59
2, 144806, Control_c, 0, 64, 55
2, 144826, Control_c, 0, 64, 52
2, 144845, Control_c, 0, 64, 49
2, 144863, Control_c, 0, 64, 48
2, 144902, Control_c, 0, 64, 48
2, 144940, Control_c, 0, 64, 48
2, 144998, Control_c, 0, 64, 49
2, 145017, Control_c, 0, 64, 49
2, 145055, Control_c, 0, 64, 50
2, 145075, Control_c, 0, 64, 50
2, 145094, Control_c, 0, 64, 52
2, 145114, Control_c, 0, 64, 55
2, 145132, Control_c, 0, 64, 57
2, 145152, Control_c, 0, 64, 58
2, 145171, Control_c, 0, 64, 59
2, 145191, Control_c, 0, 64, 60
2, 145209, Control_c, 0, 64, 60
2, 145229, Control_c, 0, 64, 61
2, 145248, Control_c, 0, 64, 62
2, 145267, Control_c, 0, 64, 63
2, 145286, Control_c, 0, 64, 64
2, 145306, Control_c, 0, 64, 66
2, 145325, Control_c, 0, 64, 67
2, 145343, Control_c, 0, 64, 70
2, 145363, Control_c, 0, 64, 74
2, 145382, Control_c, 0, 64, 81
2, 145401, Control_c, 0, 64, 89
2, 145420, Control_c, 0, 64, 96
2, 145440, Control_c, 0, 64, 99
2, 145459, Control_c, 0, 64, 101
2, 145478, Control_c, 0, 64, 102
2, 145497, Control_c, 0, 64, 102
2, 145517, Control_c, 0, 64, 103
2, 145535, Note_on_c, 0, 65, 0
2, 145537, Note_on_c, 0, 68, 0
2, 145546, Note_on_c, 0, 62, 0
2, 145671, Control_c, 0, 64, 102
2, 145709, Control_c, 0, 64, 101
2, 145728, Control_c, 0, 64, 101
2, 145766, Control_c, 0, 64, 100
2, 145775, Note_on_c, 0, 62, 35
2, 145805, Control_c, 0, 64, 99
2, 145816, Note_on_c, 0, 65, 54
2, 145822, Note_on_c, 0, 68, 70
2, 145823, Control_c, 0, 64, 98
2, 145843, Control_c, 0, 64, 97
2, 145862, Control_c, 0, 64, 92
2, 145881, Control_c, 0, 64, 83
2, 145900, Control_c, 0, 64, 72
2, 145920, Control_c, 0, 64, 64
2, 145939, Control_c, 0, 64, 61
2, 145958, Control_c, 0, 64, 63
2, 145977, Control_c, 0, 64, 64
2, 145997, Control_c, 0, 64, 65
2, 146015, Control_c, 0, 64, 67
2, 146035, Control_c, 0, 64, 70
2, 146054, Control_c, 0, 64, 74
2, 146074, Control_c, 0, 64, 78
2, 146092, Control_c, 0, 64, 81
2, 146112, Control_c, 0, 64, 82
2, 146361, Control_c, 0, 64, 82
2, 146419, Control_c, 0, 64, 81
2, 146428, Note_on_c, 0, 49, 75
2, 146438, Control_c, 0, 64, 80
2, 146457, Control_c, 0, 64, 77
2, 146477, Control_c, 0, 64, 71
2, 146489, Note_on_c, 0, 47, 0
2, 146495, Control_c, 0, 64, 65
2, 146515, Control_c, 0, 64, 59
2, 146534, Control_c, 0, 64, 59
2, 146554, Control_c, 0, 64, 61
2, 146572, Control_c, 0, 64, 62
2, 146592, Control_c, 0, 64, 64
2, 146611, Control_c, 0, 64, 65
2, 146631, Control_c, 0, 64, 66
2, 146649, Control_c, 0, 64, 66
2, 146669, Control_c, 0, 64, 67
2, 146707, Control_c, 0, 64, 66
2, 146727, Control_c, 0, 64, 64
2, 146747, Control_c, 0, 64, 63
2, 146780, Note_on_c, 0, 47, 68
2, 146784, Control_c, 0, 64, 64
2, 146804, Control_c, 0, 64, 65
2, 146823, Control_c, 0, 64, 66
2, 146842, Control_c, 0, 64, 69
2, 146858, Note_on_c, 0, 49, 0
2, 146861, Control_c, 0, 64, 73
2, 146881, Control_c, 0, 64, 79
2, 146900, Control_c, 0, 64, 86
2, 146919, Control_c, 0, 64, 91
2, 146938, Control_c, 0, 64, 94
2, 146973, Note_on_c, 0, 46, 74
2, 147010, Note_on_c, 0, 47, 0
2, 147015, Control_c, 0, 64, 94
2, 147043, Note_on_c, 0, 62, 0
2, 147074, Note_on_c, 0, 65, 0
2, 147078, Note_on_c, 0, 46, 0
2, 147093, Note_on_c, 0, 68, 0
2, 147148, Control_c, 0, 64, 94
2, 147167, Control_c, 0, 64, 93
2, 147175, Note_on_c, 0, 47, 75
2, 147186, Control_c, 0, 64, 92
2, 147201, Note_on_c, 0, 62, 60
2, 147205, Control_c, 0, 64, 91
2, 147224, Control_c, 0, 64, 90
2, 147224, Note_on_c, 0, 65, 66
2, 147244, Control_c, 0, 64, 87
2, 147245, Note_on_c, 0, 68, 71
2, 147262, Control_c, 0, 64, 79
2, 147282, Control_c, 0, 64, 68
2, 147301, Control_c, 0, 64, 58
2, 147321, Control_c, 0, 64, 35
2, 147339, Control_c, 0, 64, 29
2, 147359, Control_c, 0, 64, 37
2, 147368, Note_on_c, 0, 46, 73
2, 147378, Control_c, 0, 64, 50
2, 147397, Control_c, 0, 64, 59
2, 147416, Control_c, 0, 64, 63
2, 147436, Control_c, 0, 64, 64
2, 147450, Note_on_c, 0, 47, 0
2, 147455, Control_c, 0, 64, 65
2, 147474, Control_c, 0, 64, 66
2, 147493, Control_c, 0, 64, 67
2, 147513, Control_c, 0, 64, 67
2, 147518, Note_on_c, 0, 44, 75
2, 147550, Note_on_c, 0, 46, 0
2, 147685, Note_on_c, 0, 46, 71
2, 147873, Note_on_c, 0, 47, 74
2, 147875, Control_c, 0, 64, 67
2, 147895, Control_c, 0, 64, 64
2, 147914, Control_c, 0, 64, 60
2, 147932, Control_c, 0, 64, 50
2, 147936, Note_on_c, 0, 44, 0
2, 147952, Control_c, 0, 64, 42
2, 147971, Control_c, 0, 64, 43
2, 147991, Control_c, 0, 64, 50
2, 148000, Note_on_c, 0, 46, 0
2, 148009, Control_c, 0, 64, 57
2, 148029, Control_c, 0, 64, 63
2, 148048, Control_c, 0, 64, 65
2, 148062, Note_on_c, 0, 44, 77
2, 148068, Control_c, 0, 64, 68
2, 148086, Control_c, 0, 64, 72
2, 148106, Control_c, 0, 64, 78
2, 148125, Control_c, 0, 64, 84
2, 148137, Note_on_c, 0, 47, 0
2, 148144, Control_c, 0, 64, 90
2, 148163, Control_c, 0, 64, 95
2, 148183, Control_c, 0, 64, 96
2, 148202, Control_c, 0, 64, 96
2, 148221, Control_c, 0, 64, 97
2, 148240, Control_c, 0, 64, 99
2, 148241, Note_on_c, 0, 46, 76
2, 148260, Control_c, 0, 64, 102
2, 148278, Control_c, 0, 64, 108
2, 148298, Control_c, 0, 64, 115
2, 148317, Control_c, 0, 64, 121
2, 148337, Control_c, 0, 64, 127
2, 148404, Note_on_c, 0, 44, 0
2, 148459, Note_on_c, 0, 47, 80
2, 148466, Note_on_c, 0, 46, 0
2, 148634, Note_on_c, 0, 47, 0
2, 148872, Note_on_c, 0, 38, 87
2, 148874, Control_c, 0, 64, 121
2, 148892, Control_c, 0, 64, 104
2, 148912, Control_c, 0, 64, 92
2, 148931, Control_c, 0, 64, 81
2, 148951, Control_c, 0, 64, 71
2, 148969, Control_c, 0, 64, 64
2, 148989, Control_c, 0, 64, 52
2, 148992, Note_on_c, 0, 62, 0
2, 149011, Control_c, 0, 64, 45
2, 149013, Note_on_c, 0, 65, 0
2, 149018, Note_on_c, 0, 68, 0
2, 149031, Control_c, 0, 64, 44
2, 149046, Control_c, 0, 64, 45
2, 149064, Control_c, 0, 64, 48
2, 149084, Control_c, 0, 64, 50
2, 149103, Control_c, 0, 64, 53
2, 149122, Control_c, 0, 64, 56
2, 149141, Control_c, 0, 64, 59
2, 149161, Control_c, 0, 64, 61
2, 149180, Control_c, 0, 64, 62
2, 149199, Control_c, 0, 64, 63
2, 149221, Control_c, 0, 64, 64
2, 149241, Control_c, 0, 64, 65
2, 149242, Note_on_c, 0, 62, 76
2, 149259, Control_c, 0, 64, 66
2, 149279, Control_c, 0, 64, 68
2, 149298, Control_c, 0, 64, 70
2, 149318, Control_c, 0, 64, 73
2, 149336, Control_c, 0, 64, 76
2, 149355, Control_c, 0, 64, 78
2, 149375, Control_c, 0, 64, 80
2, 149393, Control_c, 0, 64, 81
2, 149393, Note_on_c, 0, 65, 75
2, 149518, Note_on_c, 0, 68, 84
2, 149649, Control_c, 0, 64, 80
2, 149663, Note_on_c, 0, 71, 81
2, 149667, Control_c, 0, 64, 80
2, 149687, Control_c, 0, 64, 79
2, 149706, Control_c, 0, 64, 77
2, 149725, Control_c, 0, 64, 74
2, 149744, Control_c, 0, 64, 71
2, 149764, Control_c, 0, 64, 67
2, 149783, Control_c, 0, 64, 64
2, 149802, Control_c, 0, 64, 63
2, 149821, Control_c, 0, 64, 61
2, 149841, Control_c, 0, 64, 61
2, 150107, Control_c, 0, 64, 61
2, 150127, Control_c, 0, 64, 62
2, 150145, Control_c, 0, 64, 62
2, 150165, Control_c, 0, 64, 63
2, 150204, Control_c, 0, 64, 63
2, 150222, Control_c, 0, 64, 64
2, 150242, Control_c, 0, 64, 64
2, 150261, Control_c, 0, 64, 65
2, 150280, Control_c, 0, 64, 65
2, 150299, Control_c, 0, 64, 66
2, 150319, Control_c, 0, 64, 66
2, 150338, Control_c, 0, 64, 67
2, 150510, Control_c, 0, 64, 67
2, 150548, Control_c, 0, 64, 68
2, 150566, Control_c, 0, 64, 68
2, 150605, Control_c, 0, 64, 69
2, 150662, Control_c, 0, 64, 69
2, 150682, Control_c, 0, 64, 70
2, 150700, Control_c, 0, 64, 71
2, 150720, Control_c, 0, 64, 72
2, 150739, Control_c, 0, 64, 73
2, 150759, Control_c, 0, 64, 73
2, 150796, Control_c, 0, 64, 74
2, 150816, Control_c, 0, 64, 74
2, 150834, Control_c, 0, 64, 75
2, 150854, Control_c, 0, 64, 76
2, 150873, Control_c, 0, 64, 77
2, 150893, Control_c, 0, 64, 78
2, 150911, Control_c, 0, 64, 79
2, 150931, Control_c, 0, 64, 80
2, 151239, Control_c, 0, 64, 79
2, 151988, Control_c, 0, 64, 79
2, 152064, Control_c, 0, 64, 78
2, 152123, Control_c, 0, 64, 78
2, 152180, Control_c, 0, 64, 77
2, 152199, Control_c, 0, 64, 77
2, 152468, Control_c, 0, 64, 76
2, 152564, Control_c, 0, 64, 76
2, 152621, Control_c, 0, 64, 75
2, 152679, Control_c, 0, 64, 75
2, 152718, Control_c, 0, 64, 74
2, 152775, Control_c, 0, 64, 74
2, 152814, Control_c, 0, 64, 73
2, 152832, Control_c, 0, 64, 73
2, 152852, Control_c, 0, 64, 72
2, 152890, Control_c, 0, 64, 72
2, 152909, Control_c, 0, 64, 71
2, 152929, Control_c, 0, 64, 70
2, 152948, Control_c, 0, 64, 70
2, 152967, Control_c, 0, 64, 69
2, 152986, Control_c, 0, 64, 68
2, 153006, Control_c, 0, 64, 67
2, 153024, Control_c, 0, 64, 66
2, 153044, Control_c, 0, 64, 66
2, 153052, Note_on_c, 0, 71, 0
2, 153063, Control_c, 0, 64, 65
2, 153083, Control_c, 0, 64, 65
2, 153118, Control_c, 0, 64, 64
2, 153143, Note_on_c, 0, 70, 20
2, 153155, Note_on_c, 0, 62, 0
2, 153156, Control_c, 0, 64, 64
2, 153157, Note_on_c, 0, 38, 0
2, 153175, Control_c, 0, 64, 63
2, 153195, Control_c, 0, 64, 62
2, 153214, Control_c, 0, 64, 61
2, 153233, Control_c, 0, 64, 59
2, 153252, Control_c, 0, 64, 54
2, 153265, Note_on_c, 0, 65, 0
2, 153272, Control_c, 0, 64, 51
2, 153291, Control_c, 0, 64, 49
2, 153310, Control_c, 0, 64, 47
2, 153317, Note_on_c, 0, 68, 0
2, 153329, Control_c, 0, 64, 46
2, 153349, Control_c, 0, 64, 44
2, 153367, Control_c, 0, 64, 43
2, 153387, Control_c, 0, 64, 42
2, 153406, Control_c, 0, 64, 41
2, 153425, Control_c, 0, 64, 40
2, 153444, Control_c, 0, 64, 40
2, 153463, Control_c, 0, 64, 39
2, 153595, Note_on_c, 0, 68, 48
2, 153713, Control_c, 0, 64, 40
2, 153752, Control_c, 0, 64, 40
2, 153790, Control_c, 0, 64, 41
2, 153821, Note_on_c, 0, 70, 0
2, 153847, Control_c, 0, 64, 42
2, 153860, Note_on_c, 0, 66, 57
2, 153867, Control_c, 0, 64, 43
2, 153886, Control_c, 0, 64, 44
2, 153905, Control_c, 0, 64, 46
2, 153924, Control_c, 0, 64, 48
2, 153931, Note_on_c, 0, 68, 0
2, 153943, Control_c, 0, 64, 51
2, 153963, Control_c, 0, 64, 53
2, 153981, Control_c, 0, 64, 55
2, 154001, Control_c, 0, 64, 57
2, 154020, Control_c, 0, 64, 58
2, 154101, Note_on_c, 0, 65, 59
2, 154125, Note_on_c, 0, 66, 0
2, 154155, Control_c, 0, 64, 57
2, 154212, Control_c, 0, 64, 57
2, 154232, Control_c, 0, 64, 56
2, 154290, Note_on_c, 0, 63, 69
2, 154293, Note_on_c, 0, 65, 0
2, 154366, Control_c, 0, 64, 56
2, 154463, Control_c, 0, 64, 55
2, 154478, Note_on_c, 0, 62, 64
2, 154495, Note_on_c, 0, 63, 0
2, 154502, Control_c, 0, 64, 55
2, 154579, Control_c, 0, 64, 54
2, 154617, Control_c, 0, 64, 54
2, 154636, Note_on_c, 0, 65, 71
2, 154641, Note_on_c, 0, 62, 0
2, 154675, Control_c, 0, 64, 53
2, 154714, Control_c, 0, 64, 53
2, 154791, Control_c, 0, 64, 53
2, 154804, Note_on_c, 0, 68, 81
2, 154808, Control_c, 0, 64, 54
2, 154828, Control_c, 0, 64, 56
2, 154829, Note_on_c, 0, 65, 0
2, 154847, Control_c, 0, 64, 57
2, 154865, Control_c, 0, 64, 59
2, 154885, Control_c, 0, 64, 60
2, 154904, Control_c, 0, 64, 62
2, 154924, Control_c, 0, 64, 62
2, 154942, Control_c, 0, 64, 63
2, 154951, Note_on_c, 0, 68, 0
2, 154965, Note_on_c, 0, 71, 84
2, 155116, Control_c, 0, 64, 62
2, 155128, Note_on_c, 0, 74, 81
2, 155135, Control_c, 0, 64, 59
2, 155154, Control_c, 0, 64, 53
2, 155173, Control_c, 0, 64, 43
2, 155173, Note_on_c, 0, 71, 0
2, 155193, Control_c, 0, 64, 37
2, 155211, Control_c, 0, 64, 37
2, 155231, Control_c, 0, 64, 39
2, 155250, Control_c, 0, 64, 47
2, 155270, Control_c, 0, 64, 55
2, 155288, Control_c, 0, 64, 59
2, 155308, Control_c, 0, 64, 61
2, 155314, Note_on_c, 0, 77, 86
2, 155327, Control_c, 0, 64, 62
2, 155345, Control_c, 0, 64, 63
2, 155384, Control_c, 0, 64, 63
2, 155392, Note_on_c, 0, 74, 0
2, 155481, Control_c, 0, 64, 61
2, 155499, Control_c, 0, 64, 56
2, 155519, Control_c, 0, 64, 46
2, 155538, Control_c, 0, 64, 33
2, 155544, Note_on_c, 0, 80, 89
2, 155557, Control_c, 0, 64, 27
2, 155576, Control_c, 0, 64, 28
2, 155596, Control_c, 0, 64, 41
2, 155601, Note_on_c, 0, 77, 0
2, 155615, Control_c, 0, 64, 53
2, 155634, Control_c, 0, 64, 58
2, 155653, Control_c, 0, 64, 60
2, 155673, Control_c, 0, 64, 61
2, 155711, Control_c, 0, 64, 61
2, 155750, Control_c, 0, 64, 62
2, 155768, Control_c, 0, 64, 63
2, 155788, Control_c, 0, 64, 63
2, 155812, Note_on_c, 0, 83, 89
2, 155825, Control_c, 0, 64, 64
2, 155841, Note_on_c, 0, 80, 0
2, 155845, Control_c, 0, 64, 64
2, 155884, Control_c, 0, 64, 65
2, 155961, Control_c, 0, 64, 64
2, 155979, Control_c, 0, 64, 64
2, 155999, Control_c, 0, 64, 63
2, 156018, Control_c, 0, 64, 60
2, 156020, Note_on_c, 0, 82, 87
2, 156037, Control_c, 0, 64, 58
2, 156039, Note_on_c, 0, 83, 0
2, 156076, Control_c, 0, 64, 59
2, 156095, Control_c, 0, 64, 61
2, 156114, Control_c, 0, 64, 62
2, 156133, Control_c, 0, 64, 64
2, 156153, Control_c, 0, 64, 64
2, 156171, Control_c, 0, 64, 65
2, 156179, Note_on_c, 0, 74, 83
2, 156203, Note_on_c, 0, 82, 0
2, 156248, Control_c, 0, 64, 64
2, 156364, Control_c, 0, 64, 64
2, 156382, Control_c, 0, 64, 63
2, 156389, Note_on_c, 0, 75, 91
2, 156402, Control_c, 0, 64, 60
2, 156421, Control_c, 0, 64, 49
2, 156434, Note_on_c, 0, 74, 0
2, 156441, Control_c, 0, 64, 27
2, 156459, Control_c, 0, 64, 0
2, 156556, Control_c, 0, 64, 36
2, 156575, Control_c, 0, 64, 52
2, 156594, Control_c, 0, 64, 60
2, 156613, Control_c, 0, 64, 62
2, 156633, Control_c, 0, 64, 63
2, 156651, Control_c, 0, 64, 64
2, 156671, Control_c, 0, 64, 66
2, 156690, Control_c, 0, 64, 68
2, 156710, Control_c, 0, 64, 71
2, 156728, Control_c, 0, 64, 76
2, 156748, Control_c, 0, 64, 81
2, 156767, Control_c, 0, 64, 86
2, 156785, Control_c, 0, 64, 89
2, 156805, Control_c, 0, 64, 91
2, 156824, Control_c, 0, 64, 93
2, 156844, Control_c, 0, 64, 94
2, 156862, Control_c, 0, 64, 95
2, 156875, Note_on_c, 0, 75, 0
2, 156882, Control_c, 0, 64, 95
2, 156901, Control_c, 0, 64, 96
2, 157016, Control_c, 0, 64, 96
2, 157131, Control_c, 0, 64, 97
2, 157151, Control_c, 0, 64, 97
2, 157170, Control_c, 0, 64, 98
2, 157190, Control_c, 0, 64, 98
2, 157208, Control_c, 0, 64, 99
2, 157247, Control_c, 0, 64, 96
2, 157265, Control_c, 0, 64, 84
2, 157286, Control_c, 0, 64, 71
2, 157295, Note_on_c, 0, 70, 88
2, 157308, Control_c, 0, 64, 62
2, 157312, Note_on_c, 0, 66, 69
2, 157328, Control_c, 0, 64, 59
2, 157329, Note_on_c, 0, 51, 69
2, 157346, Control_c, 0, 64, 62
2, 157346, Note_on_c, 0, 39, 62
2, 157366, Control_c, 0, 64, 65
2, 157385, Control_c, 0, 64, 70
2, 157404, Control_c, 0, 64, 79
2, 157423, Control_c, 0, 64, 95
2, 157443, Control_c, 0, 64, 116
2, 157457, Note_on_c, 0, 51, 0
2, 157462, Control_c, 0, 64, 127
2, 157463, Note_on_c, 0, 39, 0
2, 157591, Note_on_c, 0, 66, 0
2, 157591, Note_on_c, 0, 70, 0
2, 157800, Note_on_c, 0, 46, 54
2, 157802, Note_on_c, 0, 51, 59
2, 157804, Note_on_c, 0, 54, 58
2, 157807, Control_c, 0, 64, 110
2, 157811, Note_on_c, 0, 68, 92
2, 157825, Control_c, 0, 64, 98
2, 157830, Note_on_c, 0, 63, 74
2, 157845, Control_c, 0, 64, 83
2, 157864, Control_c, 0, 64, 70
2, 157884, Control_c, 0, 64, 61
2, 157902, Control_c, 0, 64, 50
2, 157922, Control_c, 0, 64, 48
2, 157960, Control_c, 0, 64, 50
2, 157979, Control_c, 0, 64, 51
2, 157999, Control_c, 0, 64, 51
2, 158018, Control_c, 0, 64, 52
2, 158036, Control_c, 0, 64, 53
2, 158056, Control_c, 0, 64, 53
2, 158075, Control_c, 0, 64, 54
2, 158094, Control_c, 0, 64, 55
2, 158133, Control_c, 0, 64, 55
2, 158171, Control_c, 0, 64, 56
2, 158190, Control_c, 0, 64, 57
2, 158210, Control_c, 0, 64, 58
2, 158228, Control_c, 0, 64, 58
2, 158248, Control_c, 0, 64, 59
2, 158259, Note_on_c, 0, 66, 87
2, 158287, Control_c, 0, 64, 60
2, 158373, Note_on_c, 0, 68, 0
2, 158632, Control_c, 0, 64, 60
2, 158670, Control_c, 0, 64, 61
2, 158824, Control_c, 0, 64, 61
2, 158844, Control_c, 0, 64, 62
2, 158862, Control_c, 0, 64, 63
2, 158882, Control_c, 0, 64, 63
2, 158901, Control_c, 0, 64, 65
2, 158920, Control_c, 0, 64, 66
2, 158939, Control_c, 0, 64, 69
2, 158959, Control_c, 0, 64, 74
2, 158978, Control_c, 0, 64, 83
2, 158996, Control_c, 0, 64, 97
2, 159016, Control_c, 0, 64, 127
2, 159073, Control_c, 0, 67, 8
2, 159093, Control_c, 0, 67, 13
2, 159101, Note_on_c, 0, 66, 0
2, 159112, Control_c, 0, 67, 18
2, 159130, Note_on_c, 0, 51, 0
2, 159131, Control_c, 0, 67, 27
2, 159150, Control_c, 0, 67, 34
2, 159170, Control_c, 0, 67, 39
2, 159188, Control_c, 0, 67, 43
2, 159191, Note_on_c, 0, 63, 0
2, 159207, Note_on_c, 0, 46, 0
2, 159208, Control_c, 0, 67, 46
2, 159227, Control_c, 0, 67, 47
2, 159235, Note_on_c, 0, 54, 0
2, 159247, Control_c, 0, 67, 48
2, 159285, Control_c, 0, 67, 48
2, 159342, Control_c, 0, 67, 49
2, 159362, Control_c, 0, 67, 49
2, 159419, Control_c, 0, 67, 50
2, 159439, Control_c, 0, 67, 50
2, 159458, Control_c, 0, 67, 51
2, 159564, Note_on_c, 0, 65, 64
2, 159571, Note_on_c, 0, 46, 48
2, 159571, Note_on_c, 0, 56, 51
2, 159575, Note_on_c, 0, 62, 53
2, 159589, Note_on_c, 0, 53, 49
2, 159592, Control_c, 0, 67, 51
2, 159609, Note_on_c, 0, 65, 0
2, 159615, Note_on_c, 0, 66, 65
2, 159648, Control_c, 0, 64, 118
2, 159667, Control_c, 0, 64, 104
2, 159686, Control_c, 0, 64, 93
2, 159686, Control_c, 0, 67, 50
2, 159699, Note_on_c, 0, 65, 53
2, 159705, Control_c, 0, 64, 85
2, 159725, Control_c, 0, 64, 76
2, 159725, Control_c, 0, 67, 50
2, 159744, Control_c, 0, 64, 69
2, 159763, Control_c, 0, 64, 63
2, 159782, Control_c, 0, 64, 57
2, 159789, Note_on_c, 0, 66, 0
2, 159802, Control_c, 0, 64, 54
2, 159802, Control_c, 0, 67, 51
2, 159820, Control_c, 0, 67, 51
2, 159840, Control_c, 0, 67, 53
2, 159859, Control_c, 0, 64, 55
2, 159859, Control_c, 0, 67, 53
2, 159878, Control_c, 0, 67, 56
2, 159897, Control_c, 0, 67, 60
2, 159916, Control_c, 0, 67, 65
2, 159936, Control_c, 0, 64, 56
2, 159936, Control_c, 0, 67, 70
2, 159954, Control_c, 0, 64, 57
2, 159954, Control_c, 0, 67, 72
2, 159974, Control_c, 0, 64, 58
2, 159974, Control_c, 0, 67, 73
2, 159992, Note_on_c, 0, 63, 63
2, 159993, Control_c, 0, 64, 60
2, 160013, Control_c, 0, 64, 62
2, 160015, Note_on_c, 0, 65, 0
2, 160031, Control_c, 0, 64, 62
2, 160051, Control_c, 0, 67, 73
2, 160128, Control_c, 0, 67, 73
2, 160147, Control_c, 0, 67, 72
2, 160169, Control_c, 0, 64, 62
2, 160169, Control_c, 0, 67, 72
2, 160208, Control_c, 0, 64, 61
2, 160208, Control_c, 0, 67, 71
2, 160246, Control_c, 0, 64, 61
2, 160265, Control_c, 0, 64, 60
2, 160265, Control_c, 0, 67, 71
2, 160284, Control_c, 0, 64, 59
2, 160284, Control_c, 0, 67, 70
2, 160303, Control_c, 0, 64, 57
2, 160323, Control_c, 0, 64, 55
2, 160323, Control_c, 0, 67, 70
2, 160342, Control_c, 0, 64, 53
2, 160361, Control_c, 0, 64, 53
2, 160377, Note_on_c, 0, 63, 0
2, 160380, Control_c, 0, 64, 52
2, 160400, Control_c, 0, 64, 51
2, 160407, Note_on_c, 0, 65, 44
2, 160419, Control_c, 0, 64, 50
2, 160437, Control_c, 0, 64, 50
2, 160534, Control_c, 0, 64, 49
2, 160534, Control_c, 0, 67, 69
2, 160553, Control_c, 0, 67, 69
2, 160572, Control_c, 0, 67, 68
2, 160610, Control_c, 0, 64, 50
2, 160628, Control_c, 0, 64, 52
2, 160628, Control_c, 0, 67, 68
2, 160648, Control_c, 0, 64, 54
2, 160667, Control_c, 0, 64, 57
2, 160687, Control_c, 0, 64, 60
2, 160705, Control_c, 0, 64, 62
2, 160705, Control_c, 0, 67, 68
2, 160725, Control_c, 0, 64, 64
2, 160744, Control_c, 0, 64, 67
2, 160744, Control_c, 0, 67, 69
2, 160764, Control_c, 0, 64, 74
2, 160764, Control_c, 0, 67, 70
2, 160782, Control_c, 0, 64, 88
2, 160782, Control_c, 0, 67, 70
2, 160802, Control_c, 0, 64, 127
2, 160802, Control_c, 0, 67, 71
2, 160821, Control_c, 0, 67, 72
2, 160824, Note_on_c, 0, 53, 0
2, 160835, Note_on_c, 0, 46, 0
2, 160840, Control_c, 0, 67, 73
2, 160859, Control_c, 0, 67, 74
2, 160878, Control_c, 0, 67, 75
2, 160898, Control_c, 0, 67, 79
2, 160916, Control_c, 0, 67, 87
2, 160936, Control_c, 0, 67, 98
2, 160955, Control_c, 0, 67, 108
2, 160957, Note_on_c, 0, 56, 0
2, 160974, Control_c, 0, 67, 117
2, 160993, Control_c, 0, 67, 126
2, 161013, Control_c, 0, 67, 127
2, 161270, Note_on_c, 0, 51, 36
2, 161380, Control_c, 0, 64, 108
2, 161400, Control_c, 0, 64, 101
2, 161403, Note_on_c, 0, 55, 21
2, 161419, Control_c, 0, 64, 94
2, 161438, Control_c, 0, 64, 85
2, 161447, Note_on_c, 0, 58, 27
2, 161457, Control_c, 0, 64, 75
2, 161476, Control_c, 0, 64, 66
2, 161485, Note_on_c, 0, 63, 42
2, 161496, Control_c, 0, 64, 59
2, 161496, Note_on_c, 0, 61, 24
2, 161514, Control_c, 0, 64, 52
2, 161528, Note_on_c, 0, 62, 0
2, 161534, Control_c, 0, 64, 50
2, 161553, Control_c, 0, 64, 48
2, 161573, Control_c, 0, 64, 46
2, 161591, Control_c, 0, 64, 45
2, 161605, Note_on_c, 0, 65, 0
2, 161611, Control_c, 0, 64, 44
2, 161630, Control_c, 0, 64, 43
2, 161803, Control_c, 0, 64, 43
2, 161822, Control_c, 0, 64, 44
2, 161842, Control_c, 0, 64, 45
2, 161860, Control_c, 0, 64, 46
2, 161880, Control_c, 0, 64, 47
2, 161899, Control_c, 0, 64, 48
2, 161918, Control_c, 0, 64, 50
2, 161937, Control_c, 0, 64, 51
2, 161956, Control_c, 0, 64, 52
2, 161956, Control_c, 0, 67, 127
2, 161976, Control_c, 0, 64, 53
2, 161976, Control_c, 0, 67, 126
2, 161994, Control_c, 0, 64, 54
2, 161994, Control_c, 0, 67, 125
2, 162014, Control_c, 0, 64, 55
2, 162014, Control_c, 0, 67, 125
2, 162033, Control_c, 0, 64, 56
2, 162033, Control_c, 0, 67, 124
2, 162053, Control_c, 0, 64, 57
2, 162053, Control_c, 0, 67, 124
2, 162072, Control_c, 0, 64, 58
2, 162072, Control_c, 0, 67, 123
2, 162092, Control_c, 0, 64, 59
2, 162092, Control_c, 0, 67, 123
2, 162111, Control_c, 0, 64, 60
2, 162130, Control_c, 0, 64, 62
2, 162130, Control_c, 0, 67, 122
2, 162149, Control_c, 0, 64, 63
2, 162169, Control_c, 0, 64, 64
2, 162188, Control_c, 0, 64, 66
2, 162188, Control_c, 0, 67, 123
2, 162207, Control_c, 0, 64, 69
2, 162207, Control_c, 0, 67, 123
2, 162226, Control_c, 0, 64, 75
2, 162226, Control_c, 0, 67, 124
2, 162246, Control_c, 0, 64, 84
2, 162246, Control_c, 0, 67, 126
2, 162264, Control_c, 0, 64, 94
2, 162264, Control_c, 0, 67, 127
2, 162284, Control_c, 0, 64, 100
2, 162284, Control_c, 0, 67, 127
2, 162303, Control_c, 0, 64, 102
2, 162323, Control_c, 0, 64, 104
2, 162341, Control_c, 0, 64, 106
2, 162377, Note_on_c, 0, 55, 0
2, 162414, Note_on_c, 0, 51, 0
2, 162430, Note_on_c, 0, 61, 0
2, 162454, Note_on_c, 0, 58, 0
2, 162475, Control_c, 0, 64, 106
2, 162495, Control_c, 0, 64, 105
2, 162514, Control_c, 0, 64, 104
2, 162534, Control_c, 0, 64, 103
2, 162552, Control_c, 0, 64, 103
2, 162572, Control_c, 0, 64, 102
2, 162591, Control_c, 0, 64, 102
2, 162610, Control_c, 0, 64, 99
2, 162629, Control_c, 0, 64, 96
2, 162649, Control_c, 0, 64, 94
2, 162668, Control_c, 0, 64, 93
2, 162676, Note_on_c, 0, 51, 29
2, 162687, Control_c, 0, 64, 91
2, 162706, Control_c, 0, 64, 90
2, 162726, Control_c, 0, 64, 87
2, 162744, Control_c, 0, 64, 83
2, 162764, Control_c, 0, 64, 80
2, 162776, Note_on_c, 0, 55, 32
2, 162783, Control_c, 0, 64, 77
2, 162803, Control_c, 0, 64, 73
2, 162821, Control_c, 0, 64, 69
2, 162824, Note_on_c, 0, 58, 21
2, 162841, Control_c, 0, 64, 64
2, 162860, Control_c, 0, 64, 60
2, 162878, Control_c, 0, 64, 57
2, 162894, Note_on_c, 0, 61, 32
2, 162898, Control_c, 0, 64, 56
2, 162917, Control_c, 0, 64, 56
2, 162937, Control_c, 0, 64, 55
2, 162955, Control_c, 0, 64, 54
2, 162975, Control_c, 0, 64, 53
2, 162994, Control_c, 0, 64, 52
2, 163014, Control_c, 0, 64, 52
2, 163035, Control_c, 0, 64, 51
2, 163055, Control_c, 0, 64, 50
2, 163073, Control_c, 0, 64, 50
2, 163093, Control_c, 0, 64, 49
2, 163227, Control_c, 0, 64, 50
2, 163266, Control_c, 0, 64, 50
2, 163362, Control_c, 0, 64, 51
2, 163381, Control_c, 0, 64, 52
2, 163401, Control_c, 0, 64, 54
2, 163419, Control_c, 0, 64, 55
2, 163438, Control_c, 0, 64, 57
2, 163451, Control_c, 0, 64, 58
2, 163470, Control_c, 0, 64, 59
2, 163490, Control_c, 0, 64, 61
2, 163508, Control_c, 0, 64, 62
2, 163528, Control_c, 0, 64, 63
2, 163547, Control_c, 0, 64, 64
2, 163567, Control_c, 0, 64, 66
2, 163585, Control_c, 0, 64, 68
2, 163605, Control_c, 0, 64, 70
2, 163624, Control_c, 0, 64, 74
2, 163644, Control_c, 0, 64, 78
2, 163656, Note_on_c, 0, 63, 0
2, 163662, Control_c, 0, 64, 82
2, 163682, Control_c, 0, 64, 85
2, 163701, Control_c, 0, 64, 87
2, 163822, Note_on_c, 0, 65, 51
2, 163875, Note_on_c, 0, 55, 0
2, 163893, Control_c, 0, 64, 86
2, 163916, Note_on_c, 0, 51, 0
2, 163922, Note_on_c, 0, 58, 0
2, 163931, Note_on_c, 0, 61, 0
2, 163988, Control_c, 0, 64, 86
2, 163991, Note_on_c, 0, 67, 59
2, 164027, Control_c, 0, 64, 85
2, 164065, Control_c, 0, 64, 85
2, 164082, Note_on_c, 0, 65, 0
2, 164104, Control_c, 0, 64, 84
2, 164124, Control_c, 0, 64, 84
2, 164142, Control_c, 0, 64, 83
2, 164151, Note_on_c, 0, 68, 64
2, 164162, Control_c, 0, 64, 82
2, 164181, Control_c, 0, 64, 81
2, 164190, Note_on_c, 0, 51, 36
2, 164200, Control_c, 0, 64, 80
2, 164219, Control_c, 0, 64, 78
2, 164238, Control_c, 0, 64, 77
2, 164258, Control_c, 0, 64, 74
2, 164276, Control_c, 0, 64, 72
2, 164296, Control_c, 0, 64, 70
2, 164313, Note_on_c, 0, 55, 29
2, 164315, Control_c, 0, 64, 68
2, 164334, Control_c, 0, 64, 65
2, 164353, Control_c, 0, 64, 63
2, 164370, Note_on_c, 0, 58, 30
2, 164373, Control_c, 0, 64, 61
2, 164392, Control_c, 0, 64, 59
2, 164410, Note_on_c, 0, 67, 0
2, 164411, Control_c, 0, 64, 57
2, 164431, Control_c, 0, 64, 54
2, 164438, Note_on_c, 0, 70, 62
2, 164451, Control_c, 0, 64, 51
2, 164452, Note_on_c, 0, 61, 17
2, 164469, Control_c, 0, 64, 48
2, 164478, Note_on_c, 0, 68, 0
2, 164489, Control_c, 0, 64, 46
2, 164508, Control_c, 0, 64, 45
2, 164528, Control_c, 0, 64, 43
2, 164546, Control_c, 0, 64, 41
2, 164566, Control_c, 0, 64, 40
2, 164585, Control_c, 0, 64, 39
2, 164623, Control_c, 0, 64, 38
2, 164643, Control_c, 0, 64, 37
2, 164662, Control_c, 0, 64, 37
2, 164681, Control_c, 0, 64, 36
2, 164700, Control_c, 0, 64, 35
2, 164720, Control_c, 0, 64, 35
2, 164739, Control_c, 0, 64, 34
2, 164757, Control_c, 0, 64, 32
2, 164777, Control_c, 0, 64, 31
2, 164796, Control_c, 0, 64, 28
2, 164815, Control_c, 0, 64, 24
2, 164834, Control_c, 0, 64, 21
2, 164854, Control_c, 0, 64, 20
2, 164873, Control_c, 0, 64, 19
2, 165012, Control_c, 0, 64, 23
2, 165031, Control_c, 0, 64, 33
2, 165051, Control_c, 0, 64, 43
2, 165069, Control_c, 0, 64, 50
2, 165089, Control_c, 0, 64, 57
2, 165108, Control_c, 0, 64, 61
2, 165128, Control_c, 0, 64, 64
2, 165146, Control_c, 0, 64, 67
2, 165166, Control_c, 0, 64, 71
2, 165185, Control_c, 0, 64, 79
2, 165204, Control_c, 0, 64, 89
2, 165223, Control_c, 0, 64, 100
2, 165243, Control_c, 0, 64, 108
2, 165262, Control_c, 0, 64, 127
2, 165289, Note_on_c, 0, 61, 0
2, 165301, Note_on_c, 0, 64, 42
2, 165343, Note_on_c, 0, 70, 0
2, 165345, Note_on_c, 0, 58, 0
2, 165430, Note_on_c, 0, 55, 0
2, 165458, Note_on_c, 0, 51, 0
2, 165463, Note_on_c, 0, 64, 0
2, 165492, Note_on_c, 0, 63, 45
2, 165636, Note_on_c, 0, 63, 0
2, 165650, Note_on_c, 0, 61, 52
2, 165729, Note_on_c, 0, 61, 0
2, 165815, Control_c, 0, 64, 110
2, 165833, Control_c, 0, 64, 102
2, 165853, Control_c, 0, 64, 96
2, 165872, Control_c, 0, 64, 92
2, 165892, Control_c, 0, 64, 90
2, 165901, Note_on_c, 0, 56, 31
2, 165904, Note_on_c, 0, 51, 29
2, 165910, Control_c, 0, 64, 85
2, 165913, Note_on_c, 0, 59, 43
2, 165930, Control_c, 0, 64, 79
2, 165949, Control_c, 0, 64, 71
2, 165969, Control_c, 0, 64, 63
2, 165987, Control_c, 0, 64, 52
2, 166007, Control_c, 0, 64, 45
2, 166026, Control_c, 0, 64, 44
2, 166045, Control_c, 0, 64, 41
2, 166064, Control_c, 0, 64, 38
2, 166084, Control_c, 0, 64, 34
2, 166103, Control_c, 0, 64, 30
2, 166122, Control_c, 0, 64, 29
2, 166141, Control_c, 0, 64, 28
2, 166275, Control_c, 0, 64, 29
2, 166295, Control_c, 0, 64, 32
2, 166313, Control_c, 0, 64, 36
2, 166333, Control_c, 0, 64, 41
2, 166351, Control_c, 0, 64, 45
2, 166371, Control_c, 0, 64, 48
2, 166389, Control_c, 0, 64, 50
2, 166428, Control_c, 0, 64, 46
2, 166448, Control_c, 0, 64, 38
2, 166466, Control_c, 0, 64, 25
2, 166486, Control_c, 0, 64, 0
2, 166620, Control_c, 0, 64, 15
2, 166639, Control_c, 0, 64, 50
2, 166659, Control_c, 0, 64, 62
2, 166677, Control_c, 0, 64, 66
2, 166697, Control_c, 0, 64, 69
2, 166716, Control_c, 0, 64, 75
2, 166735, Control_c, 0, 64, 87
2, 166754, Control_c, 0, 64, 96
2, 166774, Control_c, 0, 64, 101
2, 166793, Control_c, 0, 64, 101
2, 166887, Control_c, 0, 64, 102
2, 166921, Note_on_c, 0, 56, 0
2, 166936, Note_on_c, 0, 51, 0
2, 167003, Control_c, 0, 64, 101
2, 167021, Control_c, 0, 64, 101
2, 167060, Control_c, 0, 64, 100
2, 167078, Control_c, 0, 64, 99
2, 167098, Control_c, 0, 64, 99
2, 167117, Control_c, 0, 64, 98
2, 167155, Control_c, 0, 64, 97
2, 167175, Control_c, 0, 64, 95
2, 167194, Control_c, 0, 64, 94
2, 167214, Control_c, 0, 64, 92
2, 167232, Control_c, 0, 64, 90
2, 167252, Control_c, 0, 64, 90
2, 167264, Note_on_c, 0, 56, 36
2, 167271, Control_c, 0, 64, 89
2, 167272, Note_on_c, 0, 51, 29
2, 167290, Control_c, 0, 64, 87
2, 167308, Control_c, 0, 64, 83
2, 167328, Control_c, 0, 64, 79
2, 167347, Control_c, 0, 64, 73
2, 167366, Control_c, 0, 64, 66
2, 167385, Control_c, 0, 64, 60
2, 167405, Control_c, 0, 64, 56
2, 167424, Control_c, 0, 64, 59
2, 167443, Control_c, 0, 64, 61
2, 167462, Control_c, 0, 64, 63
2, 167482, Control_c, 0, 64, 64
2, 167500, Control_c, 0, 64, 65
2, 167519, Control_c, 0, 64, 66
2, 167521, Note_on_c, 0, 59, 0
2, 167539, Control_c, 0, 64, 67
2, 167558, Control_c, 0, 64, 68
2, 167711, Control_c, 0, 64, 68
2, 167827, Control_c, 0, 64, 69
2, 167865, Control_c, 0, 64, 70
2, 167885, Control_c, 0, 64, 71
2, 167904, Control_c, 0, 64, 73
2, 167921, Note_on_c, 0, 63, 25
2, 167923, Control_c, 0, 64, 76
2, 167942, Control_c, 0, 64, 78
2, 167962, Control_c, 0, 64, 79
2, 168085, Note_on_c, 0, 63, 0
2, 168189, Note_on_c, 0, 65, 43
2, 168259, Note_on_c, 0, 65, 0
2, 168288, Control_c, 0, 64, 79
2, 168328, Note_on_c, 0, 56, 0
2, 168333, Note_on_c, 0, 51, 0
2, 168347, Note_on_c, 0, 67, 46
2, 168403, Control_c, 0, 64, 78
2, 168460, Control_c, 0, 64, 78
2, 168503, Note_on_c, 0, 68, 68
2, 168537, Control_c, 0, 64, 77
2, 168556, Control_c, 0, 64, 77
2, 168580, Note_on_c, 0, 67, 0
2, 168614, Control_c, 0, 64, 76
2, 168633, Control_c, 0, 64, 76
2, 168648, Note_on_c, 0, 70, 69
2, 168653, Control_c, 0, 64, 75
2, 168671, Control_c, 0, 64, 75
2, 168691, Control_c, 0, 64, 74
2, 168702, Note_on_c, 0, 68, 0
2, 168710, Control_c, 0, 64, 74
2, 168729, Control_c, 0, 64, 73
2, 168748, Control_c, 0, 64, 72
2, 168768, Control_c, 0, 64, 71
2, 168787, Control_c, 0, 64, 70
2, 168806, Control_c, 0, 64, 68
2, 168825, Control_c, 0, 64, 67
2, 168845, Control_c, 0, 64, 65
2, 168848, Note_on_c, 0, 51, 29
2, 168856, Note_on_c, 0, 56, 31
2, 168864, Control_c, 0, 64, 62
2, 168883, Control_c, 0, 64, 59
2, 168886, Note_on_c, 0, 71, 61
2, 168902, Control_c, 0, 64, 56
2, 168922, Control_c, 0, 64, 53
2, 168938, Note_on_c, 0, 70, 0
2, 168940, Control_c, 0, 64, 48
2, 168959, Control_c, 0, 64, 39
2, 168979, Control_c, 0, 64, 25
2, 168998, Control_c, 0, 64, 0
2, 169267, Control_c, 0, 64, 21
2, 169286, Control_c, 0, 64, 45
2, 169305, Control_c, 0, 64, 58
2, 169325, Control_c, 0, 64, 63
2, 169344, Control_c, 0, 64, 65
2, 169363, Control_c, 0, 64, 66
2, 169382, Control_c, 0, 64, 68
2, 169402, Control_c, 0, 64, 71
2, 169420, Control_c, 0, 64, 74
2, 169431, Note_on_c, 0, 70, 50
2, 169439, Control_c, 0, 64, 77
2, 169459, Control_c, 0, 64, 78
2, 169500, Note_on_c, 0, 68, 47
2, 169500, Note_on_c, 0, 71, 0
2, 169536, Control_c, 0, 64, 77
2, 169540, Note_on_c, 0, 70, 0
2, 169554, Control_c, 0, 64, 76
2, 169567, Note_on_c, 0, 66, 48
2, 169568, Note_on_c, 0, 68, 0
2, 169574, Control_c, 0, 64, 73
2, 169593, Control_c, 0, 64, 69
2, 169613, Control_c, 0, 64, 64
2, 169622, Note_on_c, 0, 66, 0
2, 169631, Control_c, 0, 64, 60
2, 169637, Note_on_c, 0, 65, 53
2, 169651, Control_c, 0, 64, 61
2, 169670, Control_c, 0, 64, 61
2, 169689, Control_c, 0, 64, 62
2, 169708, Control_c, 0, 64, 62
2, 169728, Control_c, 0, 64, 63
2, 169767, Control_c, 0, 64, 62
2, 169786, Control_c, 0, 64, 61
2, 169805, Note_on_c, 0, 65, 0
2, 169806, Control_c, 0, 64, 60
2, 169824, Control_c, 0, 64, 59
2, 169828, Note_on_c, 0, 66, 46
2, 169844, Control_c, 0, 64, 57
2, 169863, Control_c, 0, 64, 54
2, 169883, Control_c, 0, 64, 53
2, 169901, Control_c, 0, 64, 56
2, 169921, Control_c, 0, 64, 59
2, 169940, Control_c, 0, 64, 61
2, 169958, Control_c, 0, 64, 63
2, 169974, Note_on_c, 0, 68, 50
2, 169978, Control_c, 0, 64, 65
2, 169997, Control_c, 0, 64, 67
2, 170017, Control_c, 0, 64, 71
2, 170035, Control_c, 0, 64, 79
2, 170039, Note_on_c, 0, 66, 0
2, 170055, Control_c, 0, 64, 88
2, 170074, Control_c, 0, 64, 94
2, 170094, Control_c, 0, 64, 94
2, 170122, Note_on_c, 0, 51, 0
2, 170135, Note_on_c, 0, 68, 0
2, 170141, Note_on_c, 0, 56, 0
2, 170177, Note_on_c, 0, 65, 51
2, 170189, Control_c, 0, 64, 94
2, 170226, Note_on_c, 0, 65, 0
2, 170228, Control_c, 0, 64, 93
2, 170247, Control_c, 0, 64, 92
2, 170266, Control_c, 0, 64, 91
2, 170286, Control_c, 0, 64, 90
2, 170304, Control_c, 0, 64, 89
2, 170324, Control_c, 0, 64, 88
2, 170343, Control_c, 0, 64, 87
2, 170363, Control_c, 0, 64, 86
2, 170381, Control_c, 0, 64, 85
2, 170400, Control_c, 0, 64, 84
2, 170420, Control_c, 0, 64, 82
2, 170438, Control_c, 0, 64, 80
2, 170447, Note_on_c, 0, 51, 24
2, 170458, Control_c, 0, 64, 78
2, 170466, Note_on_c, 0, 53, 27
2, 170477, Control_c, 0, 64, 77
2, 170497, Control_c, 0, 64, 76
2, 170515, Control_c, 0, 64, 75
2, 170518, Note_on_c, 0, 62, 61
2, 170535, Control_c, 0, 64, 72
2, 170554, Control_c, 0, 64, 70
2, 170574, Control_c, 0, 64, 66
2, 170592, Control_c, 0, 64, 64
2, 170612, Control_c, 0, 64, 61
2, 170631, Control_c, 0, 64, 57
2, 170650, Control_c, 0, 64, 51
2, 170669, Control_c, 0, 64, 43
2, 170689, Control_c, 0, 64, 33
2, 170708, Control_c, 0, 64, 23
2, 170728, Control_c, 0, 64, 9
2, 170747, Control_c, 0, 64, 0
2, 171016, Control_c, 0, 64, 19
2, 171035, Control_c, 0, 64, 28
2, 171054, Control_c, 0, 64, 36
2, 171073, Control_c, 0, 64, 43
2, 171093, Control_c, 0, 64, 51
2, 171112, Control_c, 0, 64, 57
2, 171131, Control_c, 0, 64, 60
2, 171150, Control_c, 0, 64, 63
2, 171170, Control_c, 0, 64, 65
2, 171189, Control_c, 0, 64, 68
2, 171208, Control_c, 0, 64, 73
2, 171227, Control_c, 0, 64, 82
2, 171247, Control_c, 0, 64, 96
2, 171265, Control_c, 0, 64, 116
2, 171285, Control_c, 0, 64, 127
2, 171347, Note_on_c, 0, 53, 0
2, 171464, Note_on_c, 0, 51, 0
2, 171706, Note_on_c, 0, 59, 38
2, 171782, Note_on_c, 0, 59, 0
2, 171840, Control_c, 0, 64, 123
2, 171846, Note_on_c, 0, 58, 34
2, 171860, Control_c, 0, 64, 112
2, 171878, Control_c, 0, 64, 107
2, 171898, Control_c, 0, 64, 104
2, 171917, Control_c, 0, 64, 100
2, 171937, Control_c, 0, 64, 97
2, 171955, Control_c, 0, 64, 93
2, 171975, Control_c, 0, 64, 88
2, 171994, Control_c, 0, 64, 83
2, 172014, Control_c, 0, 64, 79
2, 172032, Control_c, 0, 64, 76
2, 172034, Note_on_c, 0, 58, 0
2, 172043, Note_on_c, 0, 59, 39
2, 172047, Note_on_c, 0, 51, 20
2, 172052, Control_c, 0, 64, 73
2, 172071, Control_c, 0, 64, 71
2, 172087, Note_on_c, 0, 53, 3
2, 172090, Control_c, 0, 64, 68
2, 172109, Control_c, 0, 64, 67
2, 172129, Control_c, 0, 64, 66
2, 172148, Control_c, 0, 64, 65
2, 172167, Control_c, 0, 64, 64
2, 172186, Control_c, 0, 64, 64
2, 172206, Control_c, 0, 64, 63
2, 172261, Note_on_c, 0, 53, 0
2, 172263, Control_c, 0, 64, 63
2, 172283, Control_c, 0, 64, 62
2, 172301, Control_c, 0, 64, 61
2, 172320, Control_c, 0, 64, 60
2, 172340, Control_c, 0, 64, 59
2, 172358, Control_c, 0, 64, 58
2, 172378, Control_c, 0, 64, 55
2, 172397, Control_c, 0, 64, 50
2, 172417, Control_c, 0, 64, 42
2, 172435, Control_c, 0, 64, 35
2, 172455, Control_c, 0, 64, 33
2, 172512, Control_c, 0, 64, 35
2, 172532, Control_c, 0, 64, 39
2, 172551, Control_c, 0, 64, 43
2, 172570, Control_c, 0, 64, 48
2, 172589, Control_c, 0, 64, 53
2, 172609, Control_c, 0, 64, 57
2, 172628, Control_c, 0, 64, 60
2, 172648, Control_c, 0, 64, 62
2, 172667, Control_c, 0, 64, 64
2, 172687, Control_c, 0, 64, 65
2, 172705, Control_c, 0, 64, 68
2, 172725, Control_c, 0, 64, 72
2, 172744, Control_c, 0, 64, 79
2, 172764, Control_c, 0, 64, 90
2, 172782, Control_c, 0, 64, 103
2, 172802, Control_c, 0, 64, 127
2, 172929, Note_on_c, 0, 51, 0
2, 173052, Note_on_c, 0, 56, 34
2, 173208, Note_on_c, 0, 56, 0
2, 173434, Control_c, 0, 64, 121
2, 173454, Control_c, 0, 64, 109
2, 173472, Control_c, 0, 64, 100
2, 173492, Control_c, 0, 64, 94
2, 173495, Note_on_c, 0, 53, 15
2, 173507, Note_on_c, 0, 51, 22
2, 173511, Control_c, 0, 64, 89
2, 173530, Control_c, 0, 64, 85
2, 173549, Control_c, 0, 64, 81
2, 173569, Control_c, 0, 64, 77
2, 173588, Control_c, 0, 64, 73
2, 173608, Control_c, 0, 64, 69
2, 173627, Control_c, 0, 64, 66
2, 173647, Control_c, 0, 64, 65
2, 173665, Control_c, 0, 64, 64
2, 173685, Control_c, 0, 64, 63
2, 173704, Control_c, 0, 64, 62
2, 173724, Control_c, 0, 64, 59
2, 173742, Control_c, 0, 64, 57
2, 173762, Control_c, 0, 64, 56
2, 173781, Control_c, 0, 64, 55
2, 173819, Control_c, 0, 64, 55
2, 173934, Control_c, 0, 64, 55
2, 173946, Note_on_c, 0, 62, 0
2, 173973, Control_c, 0, 64, 54
2, 173992, Control_c, 0, 64, 51
2, 174011, Control_c, 0, 64, 48
2, 174030, Control_c, 0, 64, 42
2, 174050, Control_c, 0, 64, 0
2, 174414, Control_c, 0, 64, 27
2, 174433, Control_c, 0, 64, 42
2, 174453, Control_c, 0, 64, 51
2, 174472, Control_c, 0, 64, 54
2, 174491, Control_c, 0, 64, 56
2, 174504, Note_on_c, 0, 59, 0
2, 174510, Control_c, 0, 64, 58
2, 174530, Control_c, 0, 64, 59
2, 174549, Control_c, 0, 64, 61
2, 174571, Control_c, 0, 64, 62
2, 174590, Control_c, 0, 64, 63
2, 174609, Control_c, 0, 64, 64
2, 174628, Control_c, 0, 64, 65
2, 174648, Control_c, 0, 64, 66
2, 174667, Control_c, 0, 64, 68
2, 174686, Control_c, 0, 64, 70
2, 174705, Control_c, 0, 64, 74
2, 174725, Control_c, 0, 64, 80
2, 174732, Note_on_c, 0, 51, 0
2, 174744, Control_c, 0, 64, 85
2, 174763, Control_c, 0, 64, 90
2, 174782, Control_c, 0, 64, 93
2, 174802, Control_c, 0, 64, 95
2, 174820, Control_c, 0, 64, 96
2, 174839, Control_c, 0, 64, 98
2, 174859, Control_c, 0, 64, 99
2, 174878, Control_c, 0, 64, 101
2, 174882, Note_on_c, 0, 62, 45
2, 174897, Control_c, 0, 64, 103
2, 174903, Note_on_c, 0, 53, 0
2, 174916, Control_c, 0, 64, 104
2, 175124, Control_c, 0, 64, 104
2, 175224, Note_on_c, 0, 62, 0
2, 175238, Control_c, 0, 64, 103
2, 175354, Control_c, 0, 64, 103
2, 175374, Control_c, 0, 64, 102
2, 175392, Control_c, 0, 64, 101
2, 175412, Control_c, 0, 64, 101
2, 175431, Control_c, 0, 64, 100
2, 175450, Control_c, 0, 64, 99
2, 175469, Control_c, 0, 64, 98
2, 175489, Control_c, 0, 64, 96
2, 175508, Control_c, 0, 64, 95
2, 175529, Control_c, 0, 64, 94
2, 175548, Control_c, 0, 64, 92
2, 175564, Note_on_c, 0, 39, 36
2, 175564, Note_on_c, 0, 63, 48
2, 175568, Control_c, 0, 64, 90
2, 175569, Note_on_c, 0, 55, 37
2, 175586, Control_c, 0, 64, 88
2, 175587, Note_on_c, 0, 51, 30
2, 175599, Note_on_c, 0, 46, 22
2, 175600, Note_on_c, 0, 58, 29
2, 175606, Control_c, 0, 64, 86
2, 175625, Control_c, 0, 64, 84
2, 175644, Control_c, 0, 64, 80
2, 175663, Control_c, 0, 64, 74
2, 175683, Control_c, 0, 64, 67
2, 175702, Control_c, 0, 64, 62
2, 175720, Control_c, 0, 64, 57
2, 175740, Control_c, 0, 64, 53
2, 175759, Control_c, 0, 64, 50
2, 175779, Control_c, 0, 64, 44
2, 175797, Control_c, 0, 64, 33
2, 175817, Control_c, 0, 64, 15
2, 175836, Control_c, 0, 64, 0
2, 176026, Control_c, 0, 67, 126
2, 176046, Control_c, 0, 67, 125
2, 176180, Control_c, 0, 67, 125
2, 176198, Control_c, 0, 67, 126
2, 176218, Control_c, 0, 67, 127
2, 176257, Control_c, 0, 67, 127
2, 176506, Control_c, 0, 64, 15
2, 176526, Control_c, 0, 64, 24
2, 176544, Control_c, 0, 64, 32
2, 176564, Control_c, 0, 64, 42
2, 176583, Control_c, 0, 64, 50
2, 176603, Control_c, 0, 64, 55
2, 176621, Control_c, 0, 64, 57
2, 176640, Control_c, 0, 64, 59
2, 176660, Control_c, 0, 64, 61
2, 176678, Control_c, 0, 64, 62
2, 176698, Control_c, 0, 64, 63
2, 176717, Control_c, 0, 64, 64
2, 176737, Control_c, 0, 64, 64
2, 176755, Control_c, 0, 64, 65
2, 176775, Control_c, 0, 64, 66
2, 176794, Control_c, 0, 64, 67
2, 176814, Control_c, 0, 64, 67
2, 176832, Control_c, 0, 64, 68
2, 176852, Control_c, 0, 64, 68
2, 177083, Control_c, 0, 64, 68
2, 177140, Control_c, 0, 64, 67
2, 177235, Control_c, 0, 64, 67
2, 177274, Control_c, 0, 64, 66
2, 177351, Control_c, 0, 64, 66
2, 177370, Control_c, 0, 64, 65
2, 177447, Control_c, 0, 64, 65
2, 177486, Control_c, 0, 64, 64
2, 177524, Control_c, 0, 64, 64
2, 177563, Control_c, 0, 64, 63
2, 177965, Control_c, 0, 64, 63
2, 178116, Control_c, 0, 64, 62
2, 178500, Control_c, 0, 64, 62
2, 178500, Control_c, 0, 67, 127
2, 178577, Control_c, 0, 67, 126
2, 178615, Control_c, 0, 67, 126
2, 178635, Control_c, 0, 64, 61
2, 178712, Control_c, 0, 64, 61
2, 178731, Control_c, 0, 67, 125
2, 178749, Control_c, 0, 64, 60
2, 178807, Control_c, 0, 64, 60
2, 178827, Control_c, 0, 67, 125
2, 178866, Control_c, 0, 64, 59
2, 178924, Control_c, 0, 64, 59
2, 178981, Control_c, 0, 64, 58
2, 179019, Control_c, 0, 64, 58
2, 179044, Note_on_c, 0, 51, 0
2, 179193, Control_c, 0, 64, 57
2, 179214, Note_on_c, 0, 55, 0
2, 179250, Control_c, 0, 64, 57
2, 179250, Control_c, 0, 67, 125
2, 179288, Control_c, 0, 64, 56
2, 179384, Control_c, 0, 64, 56
2, 179402, Note_on_c, 0, 39, 0
2, 179499, Control_c, 0, 64, 55
2, 179584, Note_on_c, 0, 46, 0
2, 179596, Control_c, 0, 64, 55
2, 179616, Note_on_c, 0, 58, 0
2, 179673, Control_c, 0, 64, 54
2, 179861, Note_on_c, 0, 63, 0
2, 180266, Control_c, 0, 67, 126
2, 180305, Control_c, 0, 64, 55
2, 180480, Control_c, 0, 67, 126
2, 180672, Control_c, 0, 67, 127
2, 180710, Control_c, 0, 64, 55
2, 181341, Control_c, 0, 67, 126
2, 181352,End_track
0, 0, End_of_file
