0, 0, Header, 1, 2, 480
1, 0, Start_track
1, 0, Tempo, 500000
1, 0, Time_signature, 4, 2, 24, 8
1, 1, End_track
2, 0, Start_track
2, 0, Program_c, 0, 0
2, 0, Control_c, 0, 64, 79
2, 0, Control_c, 0, 67, 0
2, 17, Control_c, 0, 64, 79
2, 47, Control_c, 0, 64, 78
2, 86, Control_c, 0, 64, 78
2, 163, Control_c, 0, 64, 77
2, 181, Control_c, 0, 64, 77
2, 201, Control_c, 0, 64, 76
2, 220, Control_c, 0, 64, 75
2, 240, Control_c, 0, 64, 75
2, 256, Control_c, 0, 64, 74
2, 275, Control_c, 0, 64, 73
2, 294, Control_c, 0, 64, 72
2, 314, Control_c, 0, 64, 71
2, 332, Control_c, 0, 64, 70
2, 352, Control_c, 0, 64, 69
2, 371, Control_c, 0, 64, 68
2, 391, Control_c, 0, 64, 66
2, 409, Control_c, 0, 64, 65
2, 429, Control_c, 0, 64, 64
2, 448, Control_c, 0, 64, 64
2, 486, Control_c, 0, 64, 63
2, 643, Control_c, 0, 64, 64
2, 662, Control_c, 0, 64, 64
2, 681, Control_c, 0, 64, 65
2, 700, Control_c, 0, 64, 65
2, 720, Control_c, 0, 64, 66
2, 739, Control_c, 0, 64, 67
2, 758, Control_c, 0, 64, 68
2, 777, Control_c, 0, 64, 69
2, 796, Control_c, 0, 64, 71
2, 815, Control_c, 0, 64, 73
2, 834, Control_c, 0, 64, 77
2, 854, Control_c, 0, 64, 80
2, 873, Control_c, 0, 64, 81
2, 931, Control_c, 0, 64, 81
2, 949, Control_c, 0, 64, 80
2, 964, Note_on_c, 0, 70, 66
2, 969, Control_c, 0, 64, 80
2, 974, Note_on_c, 0, 66, 33
2, 988, Control_c, 0, 64, 79
2, 1008, Control_c, 0, 64, 79
2, 1010, Note_on_c, 0, 63, 20
2, 1026, Control_c, 0, 64, 78
2, 1046, Control_c, 0, 64, 76
2, 1065, Control_c, 0, 64, 74
2, 1084, Control_c, 0, 64, 71
2, 1103, Control_c, 0, 64, 70
2, 1123, Control_c, 0, 64, 68
2, 1161, Control_c, 0, 64, 68
2, 1219, Control_c, 0, 64, 68
2, 1238, Control_c, 0, 64, 69
2, 1257, Control_c, 0, 64, 69
2, 1276, Control_c, 0, 64, 70
2, 1295, Control_c, 0, 64, 70
2, 1314, Control_c, 0, 64, 71
2, 1334, Control_c, 0, 64, 72
2, 1353, Control_c, 0, 64, 74
2, 1372, Control_c, 0, 64, 77
2, 1391, Control_c, 0, 64, 80
2, 1411, Control_c, 0, 64, 82
2, 1429, Control_c, 0, 64, 85
2, 1449, Control_c, 0, 64, 89
2, 1468, Control_c, 0, 64, 95
2, 1488, Control_c, 0, 64, 102
2, 1506, Control_c, 0, 64, 118
2, 1526, Control_c, 0, 64, 127
2, 1547, Note_on_c, 0, 63, 0
2, 1554, Note_on_c, 0, 66, 0
2, 1776, Control_c, 0, 67, 8
2, 1795, Control_c, 0, 67, 11
2, 1815, Control_c, 0, 67, 12
2, 1872, Control_c, 0, 67, 12
2, 1987, Control_c, 0, 67, 12
2, 2026, Control_c, 0, 67, 11
2, 2045, Control_c, 0, 67, 11
2, 2064, Control_c, 0, 67, 10
2, 2103, Control_c, 0, 67, 9
2, 2122, Control_c, 0, 67, 8
2, 2141, Control_c, 0, 67, 8
2, 2161, Control_c, 0, 67, 0
2, 2315, Note_on_c, 0, 63, 39
2, 2325, Note_on_c, 0, 66, 36
2, 2445, Note_on_c, 0, 66, 0
2, 2461, Note_on_c, 0, 63, 0
2, 2942, Note_on_c, 0, 70, 0
2, 2985, Control_c, 0, 67, 8
2, 3005, Control_c, 0, 67, 10
2, 3023, Control_c, 0, 67, 11
2, 3043, Control_c, 0, 67, 13
2, 3062, Control_c, 0, 67, 15
2, 3081, Control_c, 0, 67, 20
2, 3100, Control_c, 0, 67, 35
2, 3120, Control_c, 0, 67, 54
2, 3139, Control_c, 0, 67, 78
2, 3158, Control_c, 0, 67, 101
2, 3177, Control_c, 0, 67, 123
2, 3196, Control_c, 0, 67, 127
2, 3486, Note_on_c, 0, 70, 30
2, 3580, Control_c, 0, 64, 119
2, 3600, Control_c, 0, 64, 98
2, 3619, Control_c, 0, 64, 90
2, 3619, Note_on_c, 0, 75, 39
2, 3630, Note_on_c, 0, 63, 33
2, 3634, Note_on_c, 0, 66, 26
2, 3638, Control_c, 0, 64, 87
2, 3657, Control_c, 0, 64, 84
2, 3673, Control_c, 0, 64, 82
2, 3693, Control_c, 0, 64, 81
2, 3711, Control_c, 0, 64, 82
2, 3731, Control_c, 0, 64, 84
2, 3750, Control_c, 0, 64, 86
2, 3769, Control_c, 0, 64, 88
2, 3788, Control_c, 0, 64, 91
2, 3788, Control_c, 0, 67, 126
2, 3808, Control_c, 0, 64, 94
2, 3808, Control_c, 0, 67, 123
2, 3827, Control_c, 0, 64, 96
2, 3827, Control_c, 0, 67, 120
2, 3846, Control_c, 0, 64, 98
2, 3846, Control_c, 0, 67, 117
2, 3865, Control_c, 0, 64, 102
2, 3865, Control_c, 0, 67, 114
2, 3885, Control_c, 0, 64, 106
2, 3885, Control_c, 0, 67, 111
2, 3904, Control_c, 0, 64, 114
2, 3904, Control_c, 0, 67, 107
2, 3923, Control_c, 0, 64, 127
2, 3923, Control_c, 0, 67, 101
2, 3942, Control_c, 0, 67, 91
2, 3962, Control_c, 0, 67, 80
2, 3980, Control_c, 0, 67, 70
2, 4000, Control_c, 0, 67, 61
2, 4019, Control_c, 0, 67, 56
2, 4039, Control_c, 0, 67, 53
2, 4054, Note_on_c, 0, 75, 0
2, 4057, Control_c, 0, 67, 51
2, 4202, Note_on_c, 0, 63, 0
2, 4217, Note_on_c, 0, 66, 0
2, 4423, Control_c, 0, 67, 51
2, 4442, Note_on_c, 0, 70, 0
2, 4512, Note_on_c, 0, 78, 43
2, 4695, Control_c, 0, 67, 51
2, 4713, Note_on_c, 0, 78, 0
2, 4853, Note_on_c, 0, 68, 38
2, 4875, Note_on_c, 0, 63, 34
2, 4942, Note_on_c, 0, 71, 70
2, 4944, Control_c, 0, 64, 104
2, 4964, Control_c, 0, 64, 84
2, 4983, Control_c, 0, 64, 72
2, 5002, Control_c, 0, 64, 64
2, 5021, Control_c, 0, 64, 56
2, 5041, Control_c, 0, 64, 50
2, 5058, Control_c, 0, 64, 49
2, 5076, Control_c, 0, 64, 50
2, 5096, Control_c, 0, 64, 52
2, 5096, Control_c, 0, 67, 52
2, 5115, Control_c, 0, 64, 54
2, 5134, Control_c, 0, 64, 55
2, 5153, Control_c, 0, 64, 57
2, 5173, Control_c, 0, 64, 59
2, 5192, Control_c, 0, 64, 60
2, 5211, Control_c, 0, 64, 61
2, 5230, Control_c, 0, 64, 62
2, 5250, Control_c, 0, 64, 63
2, 5269, Control_c, 0, 64, 64
2, 5269, Control_c, 0, 67, 51
2, 5288, Control_c, 0, 64, 65
2, 5307, Control_c, 0, 64, 66
2, 5327, Control_c, 0, 64, 68
2, 5345, Control_c, 0, 64, 71
2, 5365, Control_c, 0, 64, 76
2, 5384, Control_c, 0, 64, 82
2, 5404, Control_c, 0, 64, 87
2, 5422, Control_c, 0, 64, 89
2, 5499, Control_c, 0, 67, 52
2, 5538, Control_c, 0, 64, 89
2, 5556, Control_c, 0, 64, 90
2, 5576, Control_c, 0, 64, 91
2, 5595, Control_c, 0, 64, 94
2, 5614, Control_c, 0, 64, 96
2, 5633, Control_c, 0, 64, 98
2, 5633, Control_c, 0, 67, 51
2, 5653, Control_c, 0, 64, 100
2, 5672, Control_c, 0, 64, 100
2, 5691, Control_c, 0, 64, 101
2, 5710, Control_c, 0, 64, 102
2, 5710, Control_c, 0, 67, 51
2, 5730, Control_c, 0, 67, 50
2, 5768, Control_c, 0, 67, 50
2, 5773, Note_on_c, 0, 68, 0
2, 5787, Control_c, 0, 64, 103
2, 5787, Control_c, 0, 67, 49
2, 5807, Control_c, 0, 67, 48
2, 5825, Control_c, 0, 64, 103
2, 5825, Control_c, 0, 67, 47
2, 5834, Note_on_c, 0, 63, 0
2, 5845, Control_c, 0, 67, 40
2, 5852, Note_on_c, 0, 71, 0
2, 5864, Control_c, 0, 67, 33
2, 5884, Control_c, 0, 67, 28
2, 5902, Control_c, 0, 67, 26
2, 5922, Control_c, 0, 67, 26
2, 5979, Control_c, 0, 64, 103
2, 6031, Control_c, 0, 64, 102
2, 6069, Control_c, 0, 67, 26
2, 6108, Control_c, 0, 64, 102
2, 6146, Control_c, 0, 64, 101
2, 6166, Control_c, 0, 64, 101
2, 6166, Control_c, 0, 67, 27
2, 6184, Control_c, 0, 64, 100
2, 6204, Control_c, 0, 64, 99
2, 6223, Control_c, 0, 64, 97
2, 6223, Control_c, 0, 67, 27
2, 6243, Control_c, 0, 64, 96
2, 6275, Note_on_c, 0, 71, 38
2, 6281, Control_c, 0, 64, 96
2, 6281, Note_on_c, 0, 68, 35
2, 6285, Note_on_c, 0, 63, 34
2, 6300, Control_c, 0, 64, 95
2, 6320, Control_c, 0, 64, 95
2, 6338, Control_c, 0, 64, 94
2, 6338, Control_c, 0, 67, 28
2, 6377, Control_c, 0, 67, 28
2, 6415, Control_c, 0, 64, 94
2, 6555, Control_c, 0, 64, 94
2, 6574, Control_c, 0, 64, 95
2, 6613, Control_c, 0, 64, 95
2, 6651, Control_c, 0, 64, 96
2, 6673, Note_on_c, 0, 71, 0
2, 6723, Note_on_c, 0, 63, 0
2, 6724, Note_on_c, 0, 68, 0
2, 6805, Control_c, 0, 64, 96
2, 6882, Control_c, 0, 64, 97
2, 6901, Control_c, 0, 67, 30
2, 6920, Control_c, 0, 67, 32
2, 6939, Control_c, 0, 64, 97
2, 6939, Control_c, 0, 67, 35
2, 6959, Control_c, 0, 67, 37
2, 6978, Control_c, 0, 67, 40
2, 6996, Control_c, 0, 67, 43
2, 7016, Control_c, 0, 67, 48
2, 7035, Control_c, 0, 67, 54
2, 7054, Control_c, 0, 67, 58
2, 7073, Control_c, 0, 67, 64
2, 7093, Control_c, 0, 67, 68
2, 7112, Control_c, 0, 67, 72
2, 7131, Control_c, 0, 67, 75
2, 7150, Control_c, 0, 67, 76
2, 7227, Control_c, 0, 67, 75
2, 7265, Control_c, 0, 67, 75
2, 7285, Control_c, 0, 67, 74
2, 7342, Control_c, 0, 67, 74
2, 7362, Control_c, 0, 67, 73
2, 7370, Note_on_c, 0, 75, 34
2, 7400, Control_c, 0, 67, 73
2, 7419, Control_c, 0, 67, 72
2, 7439, Control_c, 0, 67, 72
2, 7496, Control_c, 0, 67, 71
2, 7516, Control_c, 0, 67, 71
2, 7535, Control_c, 0, 67, 70
2, 7554, Control_c, 0, 67, 70
2, 7579, Note_on_c, 0, 80, 59
2, 7620, Note_on_c, 0, 63, 34
2, 7631, Control_c, 0, 67, 69
2, 7632, Note_on_c, 0, 68, 35
2, 7634, Note_on_c, 0, 71, 31
2, 7689, Control_c, 0, 67, 69
2, 7708, Control_c, 0, 67, 68
2, 7728, Control_c, 0, 64, 98
2, 7785, Control_c, 0, 64, 98
2, 7810, Note_on_c, 0, 71, 0
2, 7822, Note_on_c, 0, 68, 0
2, 7834, Note_on_c, 0, 80, 0
2, 7843, Control_c, 0, 64, 99
2, 7843, Note_on_c, 0, 75, 0
2, 7866, Note_on_c, 0, 63, 0
2, 7920, Control_c, 0, 64, 99
2, 7976, Control_c, 0, 64, 100
2, 8149, Control_c, 0, 67, 69
2, 8225, Control_c, 0, 67, 69
2, 8629, Note_on_c, 0, 83, 51
2, 8725, Note_on_c, 0, 83, 0
2, 8744, Control_c, 0, 64, 99
2, 8764, Control_c, 0, 64, 99
2, 8782, Control_c, 0, 67, 70
2, 8802, Control_c, 0, 64, 98
2, 8821, Control_c, 0, 64, 98
2, 8840, Control_c, 0, 64, 97
2, 8879, Control_c, 0, 64, 96
2, 8917, Control_c, 0, 67, 70
2, 8937, Control_c, 0, 64, 96
2, 8956, Control_c, 0, 64, 95
2, 8975, Control_c, 0, 64, 95
2, 8975, Control_c, 0, 67, 71
2, 9014, Control_c, 0, 64, 94
2, 9052, Control_c, 0, 64, 94
2, 9067, Note_on_c, 0, 68, 41
2, 9071, Control_c, 0, 64, 93
2, 9076, Note_on_c, 0, 63, 41
2, 9089, Note_on_c, 0, 65, 33
2, 9091, Control_c, 0, 64, 91
2, 9100, Note_on_c, 0, 74, 66
2, 9109, Control_c, 0, 64, 91
2, 9129, Control_c, 0, 64, 90
2, 9148, Control_c, 0, 64, 88
2, 9168, Control_c, 0, 64, 84
2, 9168, Control_c, 0, 67, 71
2, 9186, Control_c, 0, 64, 79
2, 9206, Control_c, 0, 64, 74
2, 9225, Control_c, 0, 64, 67
2, 9245, Control_c, 0, 64, 63
2, 9263, Control_c, 0, 64, 61
2, 9283, Control_c, 0, 64, 60
2, 9302, Control_c, 0, 64, 60
2, 9321, Control_c, 0, 64, 59
2, 9340, Control_c, 0, 64, 58
2, 9360, Control_c, 0, 64, 56
2, 9379, Control_c, 0, 64, 55
2, 9397, Control_c, 0, 64, 54
2, 9498, Control_c, 0, 67, 71
2, 9516, Control_c, 0, 67, 70
2, 9536, Control_c, 0, 64, 55
2, 9536, Control_c, 0, 67, 70
2, 9555, Control_c, 0, 64, 56
2, 9574, Control_c, 0, 64, 57
2, 9574, Control_c, 0, 67, 69
2, 9593, Control_c, 0, 64, 59
2, 9593, Control_c, 0, 67, 68
2, 9613, Control_c, 0, 64, 59
2, 9613, Control_c, 0, 67, 67
2, 9632, Control_c, 0, 64, 60
2, 9632, Control_c, 0, 67, 66
2, 9651, Control_c, 0, 64, 61
2, 9651, Control_c, 0, 67, 65
2, 9670, Control_c, 0, 64, 62
2, 9690, Control_c, 0, 64, 63
2, 9690, Control_c, 0, 67, 63
2, 9709, Control_c, 0, 64, 64
2, 9728, Control_c, 0, 64, 65
2, 9728, Control_c, 0, 67, 63
2, 9747, Control_c, 0, 64, 66
2, 9767, Control_c, 0, 64, 68
2, 9767, Control_c, 0, 67, 62
2, 9785, Control_c, 0, 64, 71
2, 9805, Control_c, 0, 64, 75
2, 9824, Control_c, 0, 64, 80
2, 9844, Control_c, 0, 64, 86
2, 9862, Control_c, 0, 64, 91
2, 9882, Control_c, 0, 64, 95
2, 9901, Control_c, 0, 64, 97
2, 9920, Control_c, 0, 64, 98
2, 9920, Control_c, 0, 67, 63
2, 9939, Control_c, 0, 64, 99
2, 9939, Control_c, 0, 67, 63
2, 9958, Control_c, 0, 64, 100
2, 9958, Control_c, 0, 67, 64
2, 9978, Control_c, 0, 67, 65
2, 9983, Note_on_c, 0, 68, 0
2, 9996, Control_c, 0, 67, 65
2, 10016, Control_c, 0, 64, 100
2, 10016, Control_c, 0, 67, 66
2, 10035, Control_c, 0, 64, 101
2, 10035, Control_c, 0, 67, 67
2, 10054, Control_c, 0, 67, 68
2, 10073, Control_c, 0, 67, 70
2, 10081, Note_on_c, 0, 65, 0
2, 10093, Control_c, 0, 67, 71
2, 10112, Control_c, 0, 67, 73
2, 10131, Control_c, 0, 67, 74
2, 10139, Note_on_c, 0, 63, 0
2, 10150, Control_c, 0, 67, 76
2, 10170, Control_c, 0, 67, 78
2, 10189, Control_c, 0, 67, 82
2, 10208, Control_c, 0, 64, 100
2, 10208, Control_c, 0, 67, 92
2, 10227, Control_c, 0, 64, 100
2, 10227, Control_c, 0, 67, 106
2, 10247, Control_c, 0, 67, 123
2, 10265, Control_c, 0, 67, 127
2, 10342, Control_c, 0, 64, 99
2, 10362, Control_c, 0, 64, 99
2, 10420, Control_c, 0, 64, 98
2, 10440, Control_c, 0, 64, 98
2, 10459, Control_c, 0, 64, 97
2, 10477, Control_c, 0, 64, 97
2, 10497, Control_c, 0, 64, 96
2, 10535, Control_c, 0, 64, 96
2, 10554, Control_c, 0, 64, 95
2, 10593, Control_c, 0, 64, 94
2, 10612, Control_c, 0, 64, 94
2, 10631, Control_c, 0, 64, 92
2, 10643, Note_on_c, 0, 62, 31
2, 10646, Note_on_c, 0, 68, 34
2, 10651, Control_c, 0, 64, 91
2, 10654, Note_on_c, 0, 65, 26
2, 10669, Control_c, 0, 64, 90
2, 10689, Control_c, 0, 64, 89
2, 10708, Control_c, 0, 64, 86
2, 10728, Control_c, 0, 64, 83
2, 10746, Control_c, 0, 64, 78
2, 10766, Control_c, 0, 64, 74
2, 10785, Control_c, 0, 64, 71
2, 10805, Control_c, 0, 64, 68
2, 10819, Control_c, 0, 64, 66
2, 10837, Control_c, 0, 64, 65
2, 10857, Control_c, 0, 64, 64
2, 10876, Control_c, 0, 64, 63
2, 10895, Control_c, 0, 64, 63
2, 10953, Control_c, 0, 64, 62
2, 11011, Control_c, 0, 64, 63
2, 11088, Control_c, 0, 64, 62
2, 11106, Control_c, 0, 64, 61
2, 11126, Control_c, 0, 64, 58
2, 11145, Control_c, 0, 64, 51
2, 11165, Control_c, 0, 64, 35
2, 11183, Control_c, 0, 64, 0
2, 11337, Control_c, 0, 64, 44
2, 11357, Control_c, 0, 64, 59
2, 11376, Control_c, 0, 64, 64
2, 11395, Control_c, 0, 64, 67
2, 11415, Control_c, 0, 64, 72
2, 11434, Control_c, 0, 64, 81
2, 11453, Control_c, 0, 64, 91
2, 11472, Control_c, 0, 64, 99
2, 11492, Control_c, 0, 64, 103
2, 11510, Control_c, 0, 64, 107
2, 11530, Control_c, 0, 64, 109
2, 11548, Note_on_c, 0, 68, 0
2, 11549, Control_c, 0, 64, 110
2, 11550, Note_on_c, 0, 65, 0
2, 11569, Control_c, 0, 64, 110
2, 11607, Control_c, 0, 64, 111
2, 11626, Control_c, 0, 64, 112
2, 11645, Control_c, 0, 64, 112
2, 11666, Note_on_c, 0, 77, 45
2, 11684, Note_on_c, 0, 62, 0
2, 11685, Note_on_c, 0, 74, 0
2, 11731, Note_on_c, 0, 77, 0
2, 11778, Control_c, 0, 64, 112
2, 11835, Control_c, 0, 64, 111
2, 11854, Control_c, 0, 64, 110
2, 11873, Control_c, 0, 64, 108
2, 11893, Control_c, 0, 64, 108
2, 11931, Control_c, 0, 64, 106
2, 11950, Control_c, 0, 64, 104
2, 11970, Control_c, 0, 64, 101
2, 11989, Control_c, 0, 64, 99
2, 12008, Control_c, 0, 64, 98
2, 12027, Control_c, 0, 64, 97
2, 12047, Control_c, 0, 64, 95
2, 12065, Control_c, 0, 64, 93
2, 12075, Note_on_c, 0, 65, 28
2, 12077, Note_on_c, 0, 62, 34
2, 12085, Control_c, 0, 64, 91
2, 12104, Control_c, 0, 64, 89
2, 12124, Control_c, 0, 64, 84
2, 12138, Note_on_c, 0, 68, 47
2, 12142, Control_c, 0, 64, 76
2, 12162, Control_c, 0, 64, 67
2, 12181, Control_c, 0, 64, 61
2, 12200, Control_c, 0, 64, 58
2, 12219, Control_c, 0, 64, 59
2, 12238, Control_c, 0, 64, 62
2, 12258, Control_c, 0, 64, 64
2, 12276, Control_c, 0, 64, 66
2, 12296, Control_c, 0, 64, 69
2, 12314, Control_c, 0, 64, 73
2, 12332, Note_on_c, 0, 68, 0
2, 12334, Control_c, 0, 64, 79
2, 12352, Control_c, 0, 64, 85
2, 12372, Control_c, 0, 64, 89
2, 12382, Note_on_c, 0, 70, 53
2, 12391, Control_c, 0, 64, 91
2, 12410, Control_c, 0, 64, 92
2, 12447, Note_on_c, 0, 70, 0
2, 12496, Note_on_c, 0, 68, 49
2, 12535, Note_on_c, 0, 68, 0
2, 12564, Control_c, 0, 64, 91
2, 12574, Note_on_c, 0, 70, 43
2, 12621, Control_c, 0, 64, 91
2, 12652, Note_on_c, 0, 70, 0
2, 12652, Note_on_c, 0, 70, 30
2, 12660, Control_c, 0, 64, 90
2, 12698, Control_c, 0, 64, 90
2, 12717, Control_c, 0, 64, 89
2, 12736, Note_on_c, 0, 68, 44
2, 12737, Control_c, 0, 64, 89
2, 12754, Note_on_c, 0, 70, 0
2, 12794, Control_c, 0, 64, 87
2, 12814, Control_c, 0, 64, 86
2, 12832, Control_c, 0, 64, 85
2, 12845, Note_on_c, 0, 68, 0
2, 12852, Control_c, 0, 64, 84
2, 12871, Control_c, 0, 64, 81
2, 12890, Control_c, 0, 64, 74
2, 12903, Note_on_c, 0, 66, 50
2, 12909, Control_c, 0, 64, 66
2, 12929, Control_c, 0, 64, 59
2, 12967, Control_c, 0, 64, 61
2, 12986, Control_c, 0, 64, 63
2, 12996, Note_on_c, 0, 68, 57
2, 13006, Control_c, 0, 64, 64
2, 13024, Control_c, 0, 64, 67
2, 13044, Control_c, 0, 64, 69
2, 13063, Control_c, 0, 64, 71
2, 13071, Note_on_c, 0, 68, 0
2, 13072, Note_on_c, 0, 65, 0
2, 13083, Control_c, 0, 64, 74
2, 13101, Control_c, 0, 64, 75
2, 13101, Note_on_c, 0, 70, 59
2, 13121, Control_c, 0, 64, 76
2, 13157, Note_on_c, 0, 70, 0
2, 13160, Control_c, 0, 64, 75
2, 13192, Note_on_c, 0, 66, 0
2, 13197, Control_c, 0, 64, 75
2, 13235, Control_c, 0, 64, 74
2, 13241, Note_on_c, 0, 63, 39
2, 13248, Note_on_c, 0, 62, 0
2, 13255, Control_c, 0, 64, 73
2, 13275, Control_c, 0, 64, 72
2, 13294, Control_c, 0, 64, 69
2, 13313, Control_c, 0, 64, 66
2, 13329, Note_on_c, 0, 66, 51
2, 13333, Control_c, 0, 64, 60
2, 13352, Control_c, 0, 64, 44
2, 13371, Control_c, 0, 64, 0
2, 13467, Control_c, 0, 64, 43
2, 13487, Control_c, 0, 64, 59
2, 13505, Control_c, 0, 64, 63
2, 13508, Note_on_c, 0, 66, 0
2, 13525, Control_c, 0, 64, 65
2, 13544, Control_c, 0, 64, 67
2, 13557, Note_on_c, 0, 68, 45
2, 13564, Control_c, 0, 64, 70
2, 13582, Control_c, 0, 64, 73
2, 13602, Control_c, 0, 64, 78
2, 13621, Control_c, 0, 64, 84
2, 13625, Note_on_c, 0, 68, 0
2, 13640, Control_c, 0, 64, 87
2, 13657, Note_on_c, 0, 66, 54
2, 13659, Control_c, 0, 64, 87
2, 13703, Note_on_c, 0, 66, 0
2, 13741, Note_on_c, 0, 68, 62
2, 13779, Note_on_c, 0, 68, 0
2, 13797, Note_on_c, 0, 66, 66
2, 13838, Note_on_c, 0, 66, 0
2, 13865, Note_on_c, 0, 68, 68
2, 13889, Control_c, 0, 64, 88
2, 13977, Note_on_c, 0, 66, 39
2, 13980, Note_on_c, 0, 68, 0
2, 14004, Control_c, 0, 64, 87
2, 14023, Control_c, 0, 64, 84
2, 14043, Control_c, 0, 64, 75
2, 14061, Control_c, 0, 64, 65
2, 14070, Note_on_c, 0, 66, 0
2, 14081, Control_c, 0, 64, 57
2, 14100, Control_c, 0, 64, 54
2, 14120, Control_c, 0, 64, 56
2, 14128, Note_on_c, 0, 65, 49
2, 14138, Control_c, 0, 64, 60
2, 14157, Control_c, 0, 64, 63
2, 14177, Control_c, 0, 64, 66
2, 14188, Note_on_c, 0, 63, 0
2, 14195, Control_c, 0, 64, 67
2, 14215, Control_c, 0, 64, 69
2, 14235, Control_c, 0, 64, 72
2, 14254, Control_c, 0, 64, 75
2, 14273, Control_c, 0, 64, 78
2, 14293, Control_c, 0, 64, 80
2, 14312, Control_c, 0, 64, 82
2, 14313, Note_on_c, 0, 65, 0
2, 14316, Note_on_c, 0, 63, 49
2, 14331, Control_c, 0, 64, 83
2, 14350, Control_c, 0, 64, 85
2, 14358, Note_on_c, 0, 63, 0
2, 14370, Control_c, 0, 64, 85
2, 14389, Control_c, 0, 64, 86
2, 14465, Control_c, 0, 64, 85
2, 14485, Control_c, 0, 64, 85
2, 14504, Control_c, 0, 64, 84
2, 14524, Control_c, 0, 64, 84
2, 14542, Control_c, 0, 64, 83
2, 14561, Note_on_c, 0, 78, 61
2, 14562, Control_c, 0, 64, 82
2, 14581, Control_c, 0, 64, 80
2, 14600, Control_c, 0, 64, 78
2, 14619, Control_c, 0, 64, 76
2, 14638, Control_c, 0, 64, 74
2, 14658, Control_c, 0, 64, 72
2, 14676, Control_c, 0, 64, 69
2, 14696, Control_c, 0, 64, 65
2, 14715, Control_c, 0, 64, 62
2, 14734, Control_c, 0, 64, 58
2, 14753, Control_c, 0, 64, 56
2, 14773, Control_c, 0, 64, 53
2, 14792, Control_c, 0, 64, 51
2, 14811, Control_c, 0, 64, 50
2, 14830, Control_c, 0, 64, 49
2, 14965, Control_c, 0, 64, 50
2, 14984, Control_c, 0, 64, 50
2, 15004, Control_c, 0, 64, 51
2, 15022, Control_c, 0, 64, 52
2, 15042, Control_c, 0, 64, 52
2, 15061, Control_c, 0, 64, 53
2, 15079, Control_c, 0, 64, 53
2, 15099, Control_c, 0, 64, 54
2, 15118, Control_c, 0, 64, 54
2, 15138, Control_c, 0, 64, 55
2, 15156, Control_c, 0, 64, 55
2, 15176, Control_c, 0, 64, 56
2, 15196, Control_c, 0, 64, 57
2, 15215, Control_c, 0, 64, 58
2, 15234, Control_c, 0, 64, 59
2, 15254, Control_c, 0, 64, 60
2, 15254, Control_c, 0, 67, 127
2, 15273, Control_c, 0, 64, 61
2, 15273, Control_c, 0, 67, 125
2, 15292, Control_c, 0, 64, 62
2, 15292, Control_c, 0, 67, 125
2, 15311, Control_c, 0, 64, 62
2, 15331, Control_c, 0, 64, 63
2, 15331, Control_c, 0, 67, 124
2, 15349, Control_c, 0, 64, 64
2, 15349, Control_c, 0, 67, 124
2, 15369, Control_c, 0, 64, 65
2, 15388, Control_c, 0, 64, 66
2, 15388, Control_c, 0, 67, 123
2, 15408, Control_c, 0, 64, 68
2, 15408, Control_c, 0, 67, 123
2, 15426, Control_c, 0, 64, 71
2, 15426, Control_c, 0, 67, 121
2, 15446, Control_c, 0, 64, 77
2, 15446, Control_c, 0, 67, 120
2, 15465, Control_c, 0, 64, 84
2, 15465, Control_c, 0, 67, 119
2, 15485, Control_c, 0, 64, 92
2, 15485, Control_c, 0, 67, 119
2, 15503, Control_c, 0, 64, 98
2, 15523, Control_c, 0, 64, 103
2, 15542, Control_c, 0, 64, 106
2, 15552, Note_on_c, 0, 78, 0
2, 15561, Control_c, 0, 64, 107
2, 15588, Note_on_c, 0, 58, 51
2, 15637, Control_c, 0, 67, 119
2, 15695, Control_c, 0, 64, 107
2, 15714, Control_c, 0, 64, 105
2, 15734, Control_c, 0, 64, 104
2, 15734, Control_c, 0, 67, 120
2, 15753, Control_c, 0, 64, 102
2, 15772, Control_c, 0, 64, 101
2, 15791, Control_c, 0, 64, 100
2, 15811, Control_c, 0, 64, 99
2, 15815, Note_on_c, 0, 66, 37
2, 15829, Control_c, 0, 64, 97
2, 15849, Control_c, 0, 64, 95
2, 15858, Note_on_c, 0, 70, 56
2, 15868, Control_c, 0, 64, 93
2, 15872, Note_on_c, 0, 54, 63
2, 15888, Control_c, 0, 64, 92
2, 15900, Note_on_c, 0, 58, 0
2, 15906, Control_c, 0, 64, 90
2, 15924, Note_on_c, 0, 75, 55
2, 15926, Control_c, 0, 64, 88
2, 15926, Control_c, 0, 67, 119
2, 15945, Control_c, 0, 64, 85
2, 15958, Note_on_c, 0, 78, 62
2, 15965, Control_c, 0, 64, 78
2, 15983, Control_c, 0, 64, 71
2, 16003, Control_c, 0, 64, 65
2, 16003, Control_c, 0, 67, 119
2, 16022, Control_c, 0, 64, 59
2, 16041, Control_c, 0, 64, 53
2, 16041, Control_c, 0, 67, 118
2, 16060, Control_c, 0, 64, 49
2, 16079, Control_c, 0, 64, 49
2, 16117, Control_c, 0, 64, 50
2, 16117, Control_c, 0, 67, 118
2, 16137, Control_c, 0, 64, 51
2, 16137, Control_c, 0, 67, 117
2, 16158, Control_c, 0, 64, 52
2, 16158, Control_c, 0, 67, 117
2, 16177, Control_c, 0, 64, 54
2, 16177, Control_c, 0, 67, 116
2, 16196, Control_c, 0, 64, 55
2, 16196, Control_c, 0, 67, 116
2, 16216, Control_c, 0, 64, 56
2, 16216, Control_c, 0, 67, 113
2, 16234, Control_c, 0, 64, 57
2, 16234, Control_c, 0, 67, 107
2, 16254, Control_c, 0, 64, 58
2, 16254, Control_c, 0, 67, 99
2, 16273, Control_c, 0, 64, 59
2, 16273, Control_c, 0, 67, 89
2, 16293, Control_c, 0, 64, 60
2, 16293, Control_c, 0, 67, 75
2, 16311, Control_c, 0, 64, 61
2, 16311, Control_c, 0, 67, 61
2, 16331, Control_c, 0, 64, 61
2, 16331, Control_c, 0, 67, 49
2, 16350, Control_c, 0, 64, 62
2, 16350, Control_c, 0, 67, 39
2, 16370, Control_c, 0, 64, 63
2, 16370, Control_c, 0, 67, 32
2, 16388, Control_c, 0, 64, 63
2, 16388, Control_c, 0, 67, 27
2, 16408, Control_c, 0, 64, 64
2, 16408, Control_c, 0, 67, 22
2, 16427, Control_c, 0, 64, 65
2, 16427, Control_c, 0, 67, 15
2, 16446, Control_c, 0, 64, 65
2, 16446, Control_c, 0, 67, 9
2, 16465, Control_c, 0, 64, 66
2, 16465, Control_c, 0, 67, 0
2, 16485, Control_c, 0, 64, 67
2, 16504, Control_c, 0, 64, 67
2, 16523, Control_c, 0, 64, 68
2, 16542, Control_c, 0, 64, 69
2, 16562, Control_c, 0, 64, 70
2, 16578, Control_c, 0, 64, 72
2, 16596, Control_c, 0, 64, 75
2, 16616, Control_c, 0, 64, 78
2, 16635, Control_c, 0, 64, 81
2, 16636, Note_on_c, 0, 75, 0
2, 16654, Control_c, 0, 64, 86
2, 16673, Control_c, 0, 64, 89
2, 16693, Control_c, 0, 64, 92
2, 16712, Control_c, 0, 64, 95
2, 16731, Control_c, 0, 64, 97
2, 16744, Note_on_c, 0, 51, 61
2, 16750, Control_c, 0, 64, 99
2, 16770, Control_c, 0, 64, 101
2, 16781, Note_on_c, 0, 78, 0
2, 16789, Control_c, 0, 64, 102
2, 16803, Note_on_c, 0, 66, 0
2, 16808, Control_c, 0, 64, 104
2, 16827, Control_c, 0, 64, 105
2, 16844, Note_on_c, 0, 54, 0
2, 16847, Control_c, 0, 64, 106
2, 16865, Control_c, 0, 64, 108
2, 16885, Control_c, 0, 64, 110
2, 16904, Control_c, 0, 64, 112
2, 16922, Note_on_c, 0, 70, 0
2, 16924, Control_c, 0, 64, 113
2, 16981, Control_c, 0, 64, 114
2, 17076, Control_c, 0, 64, 113
2, 17092, Note_on_c, 0, 51, 0
2, 17118, Note_on_c, 0, 66, 42
2, 17137, Control_c, 0, 64, 112
2, 17156, Control_c, 0, 64, 111
2, 17172, Note_on_c, 0, 70, 43
2, 17176, Control_c, 0, 64, 109
2, 17194, Control_c, 0, 64, 107
2, 17213, Note_on_c, 0, 73, 43
2, 17214, Control_c, 0, 64, 104
2, 17233, Control_c, 0, 64, 101
2, 17253, Control_c, 0, 64, 98
2, 17267, Note_on_c, 0, 46, 50
2, 17271, Control_c, 0, 64, 95
2, 17291, Control_c, 0, 64, 91
2, 17294, Note_on_c, 0, 78, 47
2, 17310, Control_c, 0, 64, 87
2, 17330, Control_c, 0, 64, 82
2, 17348, Control_c, 0, 64, 76
2, 17368, Control_c, 0, 64, 71
2, 17387, Control_c, 0, 64, 66
2, 17406, Control_c, 0, 64, 62
2, 17425, Control_c, 0, 64, 58
2, 17445, Control_c, 0, 64, 56
2, 17464, Control_c, 0, 64, 55
2, 17483, Control_c, 0, 64, 54
2, 17522, Control_c, 0, 64, 54
2, 17555, Control_c, 0, 64, 53
2, 17575, Control_c, 0, 64, 53
2, 17594, Control_c, 0, 64, 52
2, 17614, Control_c, 0, 64, 51
2, 17632, Control_c, 0, 64, 51
2, 17709, Control_c, 0, 64, 51
2, 17729, Control_c, 0, 64, 52
2, 17748, Control_c, 0, 64, 53
2, 17767, Control_c, 0, 64, 54
2, 17786, Control_c, 0, 64, 55
2, 17814, Control_c, 0, 64, 57
2, 17832, Control_c, 0, 64, 58
2, 17852, Control_c, 0, 64, 59
2, 17871, Control_c, 0, 64, 60
2, 17909, Control_c, 0, 64, 60
2, 17968, Control_c, 0, 64, 62
2, 17986, Control_c, 0, 64, 63
2, 18006, Control_c, 0, 64, 64
2, 18025, Control_c, 0, 64, 66
2, 18044, Control_c, 0, 64, 71
2, 18063, Control_c, 0, 64, 81
2, 18063, Control_c, 0, 67, 18
2, 18084, Control_c, 0, 64, 102
2, 18084, Control_c, 0, 67, 40
2, 18102, Control_c, 0, 64, 127
2, 18102, Control_c, 0, 67, 70
2, 18122, Control_c, 0, 67, 106
2, 18141, Control_c, 0, 67, 127
2, 18249, Note_on_c, 0, 46, 0
2, 18520, Note_on_c, 0, 46, 27
2, 18607, Note_on_c, 0, 49, 36
2, 18656, Note_on_c, 0, 54, 31
2, 18679, Control_c, 0, 64, 117
2, 18698, Control_c, 0, 64, 102
2, 18712, Note_on_c, 0, 58, 36
2, 18718, Control_c, 0, 64, 87
2, 18736, Control_c, 0, 64, 76
2, 18756, Control_c, 0, 64, 67
2, 18775, Control_c, 0, 64, 62
2, 18793, Control_c, 0, 64, 59
2, 18813, Control_c, 0, 64, 59
2, 18928, Control_c, 0, 64, 59
2, 18967, Control_c, 0, 64, 60
2, 18986, Control_c, 0, 64, 60
2, 19005, Control_c, 0, 64, 61
2, 19024, Control_c, 0, 64, 62
2, 19045, Control_c, 0, 64, 62
2, 19063, Control_c, 0, 64, 63
2, 19083, Control_c, 0, 64, 64
2, 19102, Control_c, 0, 64, 64
2, 19122, Control_c, 0, 64, 65
2, 19133, Note_on_c, 0, 73, 0
2, 19140, Control_c, 0, 64, 67
2, 19160, Control_c, 0, 64, 68
2, 19179, Control_c, 0, 64, 69
2, 19198, Control_c, 0, 64, 71
2, 19203, Note_on_c, 0, 66, 0
2, 19217, Control_c, 0, 64, 74
2, 19237, Control_c, 0, 64, 76
2, 19256, Control_c, 0, 64, 78
2, 19275, Control_c, 0, 64, 79
2, 19282, Note_on_c, 0, 70, 0
2, 19448, Control_c, 0, 64, 79
2, 19491, Note_on_c, 0, 78, 0
2, 19504, Control_c, 0, 64, 80
2, 19524, Control_c, 0, 64, 81
2, 19543, Control_c, 0, 64, 82
2, 19562, Control_c, 0, 64, 83
2, 19581, Control_c, 0, 64, 83
2, 19639, Control_c, 0, 64, 84
2, 19676, Note_on_c, 0, 78, 49
2, 19766, Note_on_c, 0, 49, 0
2, 19773, Note_on_c, 0, 46, 0
2, 19788, Note_on_c, 0, 54, 0
2, 19838, Note_on_c, 0, 58, 0
2, 19840, Note_on_c, 0, 76, 62
2, 19888, Control_c, 0, 64, 83
2, 19907, Control_c, 0, 64, 83
2, 19946, Control_c, 0, 64, 82
2, 19965, Control_c, 0, 64, 81
2, 19971, Note_on_c, 0, 75, 65
2, 19984, Control_c, 0, 64, 81
2, 20004, Control_c, 0, 64, 80
2, 20012, Note_on_c, 0, 76, 0
2, 20023, Control_c, 0, 64, 79
2, 20042, Control_c, 0, 64, 78
2, 20049, Note_on_c, 0, 46, 41
2, 20061, Control_c, 0, 64, 77
2, 20062, Note_on_c, 0, 78, 0
2, 20081, Control_c, 0, 64, 76
2, 20099, Control_c, 0, 64, 73
2, 20108, Note_on_c, 0, 49, 39
2, 20119, Control_c, 0, 64, 71
2, 20138, Control_c, 0, 64, 68
2, 20157, Note_on_c, 0, 76, 69
2, 20158, Control_c, 0, 64, 64
2, 20168, Note_on_c, 0, 54, 41
2, 20176, Control_c, 0, 64, 60
2, 20196, Control_c, 0, 64, 55
2, 20214, Note_on_c, 0, 58, 39
2, 20215, Control_c, 0, 64, 50
2, 20215, Note_on_c, 0, 75, 0
2, 20233, Control_c, 0, 64, 47
2, 20253, Control_c, 0, 64, 44
2, 20272, Control_c, 0, 64, 42
2, 20292, Control_c, 0, 64, 40
2, 20310, Control_c, 0, 64, 40
2, 20349, Control_c, 0, 64, 39
2, 20483, Control_c, 0, 64, 40
2, 20502, Control_c, 0, 64, 40
2, 20521, Control_c, 0, 64, 41
2, 20540, Control_c, 0, 64, 41
2, 20560, Control_c, 0, 64, 42
2, 20578, Control_c, 0, 64, 43
2, 20598, Control_c, 0, 64, 43
2, 20617, Control_c, 0, 64, 44
2, 20637, Control_c, 0, 64, 45
2, 20655, Control_c, 0, 64, 47
2, 20674, Control_c, 0, 64, 48
2, 20694, Control_c, 0, 64, 50
2, 20712, Control_c, 0, 64, 51
2, 20732, Control_c, 0, 64, 53
2, 20751, Control_c, 0, 64, 55
2, 20771, Control_c, 0, 64, 58
2, 20789, Control_c, 0, 64, 61
2, 20809, Control_c, 0, 64, 63
2, 20828, Control_c, 0, 64, 66
2, 20848, Control_c, 0, 64, 71
2, 20866, Control_c, 0, 64, 82
2, 20886, Control_c, 0, 64, 101
2, 20905, Control_c, 0, 64, 127
2, 21006, Note_on_c, 0, 46, 0
2, 21014, Note_on_c, 0, 49, 0
2, 21057, Note_on_c, 0, 58, 0
2, 21106, Note_on_c, 0, 73, 61
2, 21113, Note_on_c, 0, 54, 0
2, 21122, Note_on_c, 0, 76, 0
2, 21166, Note_on_c, 0, 73, 0
2, 21342, Note_on_c, 0, 47, 43
2, 21433, Control_c, 0, 64, 116
2, 21439, Note_on_c, 0, 51, 30
2, 21453, Control_c, 0, 64, 109
2, 21471, Control_c, 0, 64, 104
2, 21488, Note_on_c, 0, 54, 31
2, 21491, Control_c, 0, 64, 98
2, 21503, Note_on_c, 0, 63, 39
2, 21510, Control_c, 0, 64, 92
2, 21512, Note_on_c, 0, 59, 40
2, 21530, Control_c, 0, 64, 86
2, 21548, Control_c, 0, 64, 81
2, 21559, Note_on_c, 0, 66, 49
2, 21568, Control_c, 0, 64, 76
2, 21587, Control_c, 0, 64, 71
2, 21606, Control_c, 0, 64, 64
2, 21613, Note_on_c, 0, 75, 63
2, 21619, Note_on_c, 0, 71, 40
2, 21625, Control_c, 0, 64, 57
2, 21645, Control_c, 0, 64, 47
2, 21664, Control_c, 0, 64, 36
2, 21683, Control_c, 0, 64, 29
2, 21702, Control_c, 0, 64, 22
2, 21722, Control_c, 0, 64, 19
2, 21740, Control_c, 0, 64, 17
2, 21817, Control_c, 0, 64, 15
2, 21991, Control_c, 0, 64, 18
2, 22010, Control_c, 0, 64, 29
2, 22029, Control_c, 0, 64, 39
2, 22049, Control_c, 0, 64, 47
2, 22068, Control_c, 0, 64, 53
2, 22087, Control_c, 0, 64, 57
2, 22106, Control_c, 0, 64, 60
2, 22126, Control_c, 0, 64, 62
2, 22144, Control_c, 0, 64, 63
2, 22164, Control_c, 0, 64, 65
2, 22183, Control_c, 0, 64, 67
2, 22203, Control_c, 0, 64, 71
2, 22221, Control_c, 0, 64, 78
2, 22239, Note_on_c, 0, 63, 0
2, 22240, Control_c, 0, 64, 89
2, 22260, Control_c, 0, 64, 102
2, 22279, Control_c, 0, 64, 127
2, 22325, Note_on_c, 0, 66, 0
2, 22330, Note_on_c, 0, 71, 0
2, 22351, Note_on_c, 0, 75, 0
2, 22740, Control_c, 0, 64, 118
2, 22759, Control_c, 0, 64, 113
2, 22778, Control_c, 0, 64, 110
2, 22797, Control_c, 0, 64, 108
2, 22817, Control_c, 0, 64, 106
2, 22827, Note_on_c, 0, 66, 41
2, 22835, Control_c, 0, 64, 103
2, 22855, Control_c, 0, 64, 100
2, 22866, Note_on_c, 0, 71, 38
2, 22874, Control_c, 0, 64, 96
2, 22894, Control_c, 0, 64, 92
2, 22902, Note_on_c, 0, 75, 47
2, 22912, Control_c, 0, 64, 87
2, 22932, Control_c, 0, 64, 79
2, 22951, Control_c, 0, 64, 73
2, 22970, Control_c, 0, 64, 68
2, 22989, Control_c, 0, 64, 66
2, 23009, Control_c, 0, 64, 66
2, 23047, Control_c, 0, 64, 66
2, 23086, Control_c, 0, 64, 67
2, 23104, Control_c, 0, 64, 67
2, 23124, Control_c, 0, 64, 67
2, 23200, Control_c, 0, 64, 67
2, 23239, Control_c, 0, 64, 68
2, 23258, Control_c, 0, 64, 70
2, 23277, Control_c, 0, 64, 72
2, 23288, Note_on_c, 0, 59, 0
2, 23297, Control_c, 0, 64, 74
2, 23315, Control_c, 0, 64, 76
2, 23335, Control_c, 0, 64, 78
2, 23354, Control_c, 0, 64, 80
2, 23374, Control_c, 0, 64, 81
2, 23389, Note_on_c, 0, 54, 0
2, 23392, Control_c, 0, 64, 82
2, 23431, Control_c, 0, 64, 83
2, 23469, Control_c, 0, 64, 83
2, 23508, Control_c, 0, 64, 84
2, 23527, Control_c, 0, 64, 84
2, 23575, Note_on_c, 0, 51, 0
2, 23579, Note_on_c, 0, 47, 0
2, 23836, Control_c, 0, 64, 84
2, 23836, Note_on_c, 0, 66, 0
2, 23840, Note_on_c, 0, 75, 0
2, 23955, Note_on_c, 0, 54, 56
2, 23968, Note_on_c, 0, 71, 0
2, 23971, Control_c, 0, 64, 83
2, 24009, Control_c, 0, 64, 83
2, 24048, Note_on_c, 0, 54, 0
2, 24105, Control_c, 0, 64, 82
2, 24170, Note_on_c, 0, 66, 40
2, 24200, Control_c, 0, 64, 82
2, 24203, Note_on_c, 0, 51, 67
2, 24214, Note_on_c, 0, 71, 50
2, 24220, Control_c, 0, 64, 81
2, 24239, Control_c, 0, 64, 81
2, 24258, Control_c, 0, 64, 80
2, 24272, Note_on_c, 0, 75, 57
2, 24276, Control_c, 0, 64, 78
2, 24296, Control_c, 0, 64, 73
2, 24315, Control_c, 0, 64, 69
2, 24335, Control_c, 0, 64, 64
2, 24353, Control_c, 0, 64, 61
2, 24373, Control_c, 0, 64, 59
2, 24392, Control_c, 0, 64, 60
2, 24411, Control_c, 0, 64, 62
2, 24430, Control_c, 0, 64, 63
2, 24430, Control_c, 0, 67, 124
2, 24450, Control_c, 0, 64, 65
2, 24450, Control_c, 0, 67, 122
2, 24469, Control_c, 0, 64, 66
2, 24469, Control_c, 0, 67, 120
2, 24488, Control_c, 0, 64, 68
2, 24488, Control_c, 0, 67, 118
2, 24507, Control_c, 0, 64, 70
2, 24507, Control_c, 0, 67, 116
2, 24527, Control_c, 0, 64, 71
2, 24527, Control_c, 0, 67, 111
2, 24545, Control_c, 0, 64, 72
2, 24545, Control_c, 0, 67, 102
2, 24565, Control_c, 0, 64, 73
2, 24565, Control_c, 0, 67, 92
2, 24584, Control_c, 0, 64, 74
2, 24584, Control_c, 0, 67, 80
2, 24604, Control_c, 0, 64, 75
2, 24604, Control_c, 0, 67, 65
2, 24622, Control_c, 0, 64, 77
2, 24622, Control_c, 0, 67, 48
2, 24642, Control_c, 0, 64, 78
2, 24642, Control_c, 0, 67, 30
2, 24661, Control_c, 0, 64, 79
2, 24661, Control_c, 0, 67, 14
2, 24679, Control_c, 0, 64, 80
2, 24679, Control_c, 0, 67, 0
2, 24684, Note_on_c, 0, 66, 0
2, 24699, Control_c, 0, 64, 81
2, 24718, Control_c, 0, 64, 82
2, 24738, Control_c, 0, 64, 84
2, 24756, Control_c, 0, 64, 86
2, 24776, Control_c, 0, 64, 89
2, 24796, Control_c, 0, 64, 90
2, 24815, Control_c, 0, 64, 91
2, 24834, Control_c, 0, 64, 92
2, 24854, Control_c, 0, 64, 93
2, 24873, Control_c, 0, 64, 95
2, 24892, Control_c, 0, 64, 97
2, 24894, Note_on_c, 0, 71, 0
2, 24911, Control_c, 0, 64, 98
2, 24931, Control_c, 0, 64, 100
2, 24949, Control_c, 0, 64, 101
2, 24967, Note_on_c, 0, 75, 0
2, 24969, Control_c, 0, 64, 103
2, 24988, Control_c, 0, 64, 104
2, 25026, Control_c, 0, 64, 105
2, 25046, Control_c, 0, 64, 106
2, 25065, Control_c, 0, 64, 108
2, 25085, Control_c, 0, 64, 110
2, 25103, Control_c, 0, 64, 112
2, 25117, Note_on_c, 0, 47, 63
2, 25123, Control_c, 0, 64, 114
2, 25142, Control_c, 0, 64, 116
2, 25153, Note_on_c, 0, 51, 0
2, 25160, Control_c, 0, 64, 117
2, 25180, Control_c, 0, 64, 118
2, 25199, Control_c, 0, 64, 119
2, 25235, Control_c, 0, 64, 121
2, 25274, Control_c, 0, 64, 123
2, 25294, Control_c, 0, 64, 127
2, 25429, Note_on_c, 0, 70, 65
2, 25504, Note_on_c, 0, 47, 0
2, 25519, Note_on_c, 0, 75, 62
2, 25563, Control_c, 0, 64, 121
2, 25581, Control_c, 0, 64, 117
2, 25600, Control_c, 0, 64, 114
2, 25620, Control_c, 0, 64, 110
2, 25632, Note_on_c, 0, 43, 64
2, 25639, Control_c, 0, 64, 106
2, 25658, Control_c, 0, 64, 102
2, 25677, Control_c, 0, 64, 98
2, 25697, Control_c, 0, 64, 95
2, 25715, Control_c, 0, 64, 91
2, 25735, Control_c, 0, 64, 84
2, 25744, Note_on_c, 0, 82, 61
2, 25757, Control_c, 0, 64, 77
2, 25776, Control_c, 0, 64, 71
2, 25795, Control_c, 0, 64, 66
2, 25815, Control_c, 0, 64, 62
2, 25834, Control_c, 0, 64, 59
2, 25853, Control_c, 0, 64, 58
2, 25872, Control_c, 0, 64, 56
2, 25892, Control_c, 0, 64, 55
2, 25910, Control_c, 0, 64, 54
2, 25930, Control_c, 0, 64, 53
2, 26179, Control_c, 0, 64, 54
2, 26197, Control_c, 0, 64, 54
2, 26217, Control_c, 0, 64, 55
2, 26255, Control_c, 0, 64, 55
2, 26274, Control_c, 0, 64, 56
2, 26294, Control_c, 0, 64, 58
2, 26313, Control_c, 0, 64, 59
2, 26332, Control_c, 0, 64, 61
2, 26351, Control_c, 0, 64, 63
2, 26371, Control_c, 0, 64, 64
2, 26389, Control_c, 0, 64, 65
2, 26409, Control_c, 0, 64, 67
2, 26428, Control_c, 0, 64, 70
2, 26448, Control_c, 0, 64, 75
2, 26448, Control_c, 0, 67, 16
2, 26466, Control_c, 0, 64, 83
2, 26466, Control_c, 0, 67, 29
2, 26486, Control_c, 0, 64, 96
2, 26486, Control_c, 0, 67, 42
2, 26505, Control_c, 0, 64, 112
2, 26505, Control_c, 0, 67, 56
2, 26525, Control_c, 0, 64, 127
2, 26525, Control_c, 0, 67, 71
2, 26543, Control_c, 0, 67, 87
2, 26563, Control_c, 0, 67, 104
2, 26582, Control_c, 0, 67, 126
2, 26600, Control_c, 0, 67, 127
2, 26665, Note_on_c, 0, 43, 0
2, 26984, Note_on_c, 0, 43, 31
2, 27075, Note_on_c, 0, 46, 33
2, 27095, Note_on_c, 0, 51, 30
2, 27133, Note_on_c, 0, 55, 42
2, 27138, Control_c, 0, 64, 118
2, 27156, Control_c, 0, 64, 103
2, 27176, Control_c, 0, 64, 94
2, 27195, Control_c, 0, 64, 85
2, 27215, Control_c, 0, 64, 75
2, 27233, Control_c, 0, 64, 67
2, 27253, Control_c, 0, 64, 59
2, 27272, Control_c, 0, 64, 55
2, 27291, Control_c, 0, 64, 55
2, 27310, Control_c, 0, 64, 55
2, 27387, Control_c, 0, 64, 56
2, 27407, Control_c, 0, 64, 56
2, 27425, Control_c, 0, 64, 57
2, 27445, Control_c, 0, 64, 57
2, 27464, Control_c, 0, 64, 58
2, 27484, Control_c, 0, 64, 59
2, 27502, Control_c, 0, 64, 59
2, 27541, Control_c, 0, 64, 60
2, 27559, Control_c, 0, 64, 61
2, 27579, Control_c, 0, 64, 62
2, 27598, Control_c, 0, 64, 63
2, 27618, Control_c, 0, 64, 64
2, 27636, Control_c, 0, 64, 65
2, 27656, Control_c, 0, 64, 67
2, 27664, Note_on_c, 0, 82, 0
2, 27673, Control_c, 0, 64, 69
2, 27689, Note_on_c, 0, 75, 0
2, 27693, Control_c, 0, 64, 72
2, 27711, Control_c, 0, 64, 77
2, 27731, Control_c, 0, 64, 83
2, 27750, Control_c, 0, 64, 90
2, 27770, Control_c, 0, 64, 94
2, 27788, Control_c, 0, 64, 96
2, 27846, Control_c, 0, 64, 96
2, 27952, Note_on_c, 0, 70, 0
2, 27999, Control_c, 0, 64, 96
2, 28038, Control_c, 0, 64, 95
2, 28076, Control_c, 0, 64, 95
2, 28188, Note_on_c, 0, 75, 57
2, 28201, Note_on_c, 0, 51, 0
2, 28211, Control_c, 0, 64, 94
2, 28230, Control_c, 0, 64, 94
2, 28237, Note_on_c, 0, 55, 0
2, 28243, Note_on_c, 0, 43, 0
2, 28326, Control_c, 0, 64, 93
2, 28331, Note_on_c, 0, 46, 0
2, 28345, Control_c, 0, 64, 93
2, 28355, Note_on_c, 0, 73, 63
2, 28384, Control_c, 0, 64, 92
2, 28403, Control_c, 0, 64, 91
2, 28422, Control_c, 0, 64, 90
2, 28441, Control_c, 0, 64, 90
2, 28448, Note_on_c, 0, 75, 0
2, 28460, Control_c, 0, 64, 89
2, 28479, Control_c, 0, 64, 88
2, 28493, Note_on_c, 0, 71, 65
2, 28498, Note_on_c, 0, 73, 0
2, 28499, Control_c, 0, 64, 88
2, 28514, Note_on_c, 0, 43, 19
2, 28518, Control_c, 0, 64, 87
2, 28537, Control_c, 0, 64, 86
2, 28556, Control_c, 0, 64, 84
2, 28576, Control_c, 0, 64, 83
2, 28579, Note_on_c, 0, 46, 21
2, 28594, Control_c, 0, 64, 82
2, 28614, Control_c, 0, 64, 81
2, 28633, Control_c, 0, 64, 79
2, 28653, Control_c, 0, 64, 77
2, 28671, Control_c, 0, 64, 76
2, 28674, Note_on_c, 0, 51, 34
2, 28691, Control_c, 0, 64, 74
2, 28694, Note_on_c, 0, 73, 60
2, 28710, Control_c, 0, 64, 71
2, 28712, Note_on_c, 0, 55, 34
2, 28718, Note_on_c, 0, 71, 0
2, 28730, Control_c, 0, 64, 68
2, 28748, Control_c, 0, 64, 64
2, 28768, Control_c, 0, 64, 61
2, 28787, Control_c, 0, 64, 58
2, 28806, Control_c, 0, 64, 56
2, 28825, Control_c, 0, 64, 55
2, 28845, Control_c, 0, 64, 54
2, 28864, Control_c, 0, 64, 53
2, 28883, Control_c, 0, 64, 51
2, 28902, Control_c, 0, 64, 50
2, 28921, Control_c, 0, 64, 49
2, 28940, Control_c, 0, 64, 49
2, 28959, Control_c, 0, 64, 48
2, 28979, Control_c, 0, 64, 47
2, 28998, Control_c, 0, 64, 46
2, 29017, Control_c, 0, 64, 45
2, 29170, Control_c, 0, 64, 46
2, 29189, Control_c, 0, 64, 48
2, 29209, Control_c, 0, 64, 51
2, 29227, Control_c, 0, 64, 54
2, 29247, Control_c, 0, 64, 57
2, 29266, Control_c, 0, 64, 59
2, 29285, Control_c, 0, 64, 61
2, 29304, Control_c, 0, 64, 63
2, 29324, Control_c, 0, 64, 65
2, 29343, Control_c, 0, 64, 66
2, 29361, Control_c, 0, 64, 68
2, 29381, Control_c, 0, 64, 70
2, 29400, Control_c, 0, 64, 74
2, 29420, Control_c, 0, 64, 78
2, 29429, Note_on_c, 0, 55, 0
2, 29438, Control_c, 0, 64, 82
2, 29440, Note_on_c, 0, 43, 0
2, 29458, Control_c, 0, 64, 85
2, 29477, Control_c, 0, 64, 88
2, 29496, Control_c, 0, 64, 89
2, 29515, Control_c, 0, 64, 89
2, 29518, Note_on_c, 0, 51, 0
2, 29554, Control_c, 0, 64, 90
2, 29554, Note_on_c, 0, 46, 0
2, 29574, Note_on_c, 0, 70, 61
2, 29709, Control_c, 0, 64, 89
2, 29767, Control_c, 0, 64, 89
2, 29782, Note_on_c, 0, 70, 0
2, 29786, Control_c, 0, 64, 88
2, 29795, Note_on_c, 0, 44, 32
2, 29806, Control_c, 0, 64, 87
2, 29824, Control_c, 0, 64, 86
2, 29844, Control_c, 0, 64, 85
2, 29863, Control_c, 0, 64, 83
2, 29883, Control_c, 0, 64, 80
2, 29901, Control_c, 0, 64, 77
2, 29913, Note_on_c, 0, 73, 0
2, 29914, Note_on_c, 0, 71, 59
2, 29920, Control_c, 0, 64, 71
2, 29940, Control_c, 0, 64, 64
2, 29959, Control_c, 0, 64, 56
2, 29978, Control_c, 0, 64, 48
2, 29997, Control_c, 0, 64, 45
2, 30015, Note_on_c, 0, 47, 25
2, 30034, Control_c, 0, 64, 48
2, 30054, Control_c, 0, 64, 55
2, 30073, Control_c, 0, 64, 60
2, 30093, Control_c, 0, 64, 63
2, 30111, Control_c, 0, 64, 64
2, 30131, Control_c, 0, 64, 65
2, 30150, Control_c, 0, 64, 66
2, 30159, Note_on_c, 0, 51, 29
2, 30170, Control_c, 0, 64, 67
2, 30188, Control_c, 0, 64, 69
2, 30206, Note_on_c, 0, 71, 0
2, 30208, Control_c, 0, 64, 71
2, 30227, Control_c, 0, 64, 74
2, 30246, Control_c, 0, 64, 77
2, 30248, Note_on_c, 0, 56, 34
2, 30261, Note_on_c, 0, 73, 42
2, 30265, Control_c, 0, 64, 81
2, 30285, Control_c, 0, 64, 82
2, 30348, Note_on_c, 0, 73, 0
2, 30398, Note_on_c, 0, 71, 45
2, 30464, Note_on_c, 0, 71, 0
2, 30521, Note_on_c, 0, 73, 39
2, 30569, Note_on_c, 0, 73, 0
2, 30597, Note_on_c, 0, 71, 49
2, 30660, Note_on_c, 0, 71, 0
2, 30765, Note_on_c, 0, 73, 29
2, 30870, Note_on_c, 0, 71, 53
2, 30935, Note_on_c, 0, 73, 0
2, 30940, Control_c, 0, 64, 81
2, 30959, Control_c, 0, 64, 81
2, 30975, Control_c, 0, 64, 78
2, 30994, Control_c, 0, 64, 74
2, 31013, Control_c, 0, 64, 68
2, 31015, Note_on_c, 0, 71, 0
2, 31032, Control_c, 0, 64, 66
2, 31070, Control_c, 0, 64, 67
2, 31078, Note_on_c, 0, 70, 57
2, 31090, Control_c, 0, 64, 68
2, 31109, Control_c, 0, 64, 71
2, 31129, Control_c, 0, 64, 74
2, 31147, Control_c, 0, 64, 78
2, 31153, Note_on_c, 0, 70, 0
2, 31167, Control_c, 0, 64, 81
2, 31186, Control_c, 0, 64, 83
2, 31214, Note_on_c, 0, 68, 51
2, 31245, Note_on_c, 0, 68, 0
2, 31397, Control_c, 0, 64, 82
2, 31474, Control_c, 0, 64, 82
2, 31493, Control_c, 0, 64, 81
2, 31500, Note_on_c, 0, 75, 28
2, 31514, Control_c, 0, 64, 80
2, 31534, Control_c, 0, 64, 80
2, 31549, Note_on_c, 0, 80, 48
2, 31552, Control_c, 0, 64, 78
2, 31572, Control_c, 0, 64, 76
2, 31575, Note_on_c, 0, 83, 55
2, 31591, Control_c, 0, 64, 73
2, 31610, Control_c, 0, 64, 68
2, 31629, Control_c, 0, 64, 64
2, 31649, Control_c, 0, 64, 59
2, 31668, Control_c, 0, 64, 55
2, 31687, Control_c, 0, 64, 52
2, 31706, Control_c, 0, 64, 52
2, 31726, Control_c, 0, 64, 51
2, 31764, Control_c, 0, 64, 51
2, 31783, Control_c, 0, 64, 50
2, 31801, Note_on_c, 0, 56, 0
2, 31821, Control_c, 0, 64, 50
2, 31872, Note_on_c, 0, 44, 0
2, 31898, Control_c, 0, 64, 50
2, 31917, Control_c, 0, 64, 51
2, 31928, Note_on_c, 0, 51, 0
2, 31937, Control_c, 0, 64, 52
2, 31940, Note_on_c, 0, 47, 0
2, 31955, Control_c, 0, 64, 54
2, 31975, Control_c, 0, 64, 56
2, 31994, Control_c, 0, 64, 59
2, 32014, Control_c, 0, 64, 60
2, 32032, Control_c, 0, 64, 61
2, 32052, Control_c, 0, 64, 62
2, 32071, Control_c, 0, 64, 62
2, 32090, Control_c, 0, 64, 63
2, 32109, Control_c, 0, 64, 63
2, 32129, Control_c, 0, 64, 64
2, 32148, Control_c, 0, 64, 64
2, 32167, Control_c, 0, 64, 65
2, 32186, Control_c, 0, 64, 66
2, 32186, Control_c, 0, 67, 127
2, 32206, Control_c, 0, 64, 67
2, 32206, Control_c, 0, 67, 125
2, 32224, Control_c, 0, 64, 69
2, 32224, Control_c, 0, 67, 122
2, 32244, Control_c, 0, 64, 71
2, 32244, Control_c, 0, 67, 121
2, 32263, Control_c, 0, 64, 74
2, 32263, Control_c, 0, 67, 119
2, 32282, Control_c, 0, 64, 77
2, 32282, Control_c, 0, 67, 118
2, 32301, Control_c, 0, 64, 81
2, 32301, Control_c, 0, 67, 116
2, 32320, Control_c, 0, 64, 84
2, 32320, Control_c, 0, 67, 115
2, 32340, Control_c, 0, 64, 88
2, 32340, Control_c, 0, 67, 115
2, 32359, Control_c, 0, 64, 91
2, 32359, Control_c, 0, 67, 113
2, 32378, Control_c, 0, 64, 93
2, 32378, Control_c, 0, 67, 112
2, 32397, Control_c, 0, 64, 93
2, 32397, Control_c, 0, 67, 111
2, 32417, Control_c, 0, 67, 109
2, 32435, Control_c, 0, 67, 108
2, 32455, Control_c, 0, 67, 107
2, 32477, Control_c, 0, 67, 106
2, 32496, Control_c, 0, 67, 106
2, 32689, Control_c, 0, 67, 105
2, 32727, Control_c, 0, 64, 93
2, 32727, Control_c, 0, 67, 105
2, 32736, Note_on_c, 0, 75, 0
2, 32746, Control_c, 0, 67, 104
2, 32766, Note_on_c, 0, 83, 0
2, 32816, Note_on_c, 0, 71, 82
2, 32817, Note_on_c, 0, 80, 0
2, 32823, Control_c, 0, 67, 103
2, 32841, Control_c, 0, 64, 92
2, 32841, Control_c, 0, 67, 99
2, 32861, Control_c, 0, 64, 92
2, 32861, Control_c, 0, 67, 91
2, 32880, Control_c, 0, 64, 91
2, 32880, Control_c, 0, 67, 80
2, 32897, Control_c, 0, 67, 71
2, 32915, Control_c, 0, 64, 91
2, 32915, Control_c, 0, 67, 63
2, 32935, Control_c, 0, 64, 90
2, 32935, Control_c, 0, 67, 58
2, 32954, Control_c, 0, 64, 90
2, 32954, Control_c, 0, 67, 55
2, 32964, Note_on_c, 0, 75, 56
2, 32974, Control_c, 0, 64, 89
2, 32974, Control_c, 0, 67, 54
2, 32992, Control_c, 0, 64, 89
2, 33012, Control_c, 0, 64, 88
2, 33031, Control_c, 0, 64, 87
2, 33031, Control_c, 0, 67, 54
2, 33035, Note_on_c, 0, 68, 74
2, 33042, Note_on_c, 0, 80, 50
2, 33050, Control_c, 0, 64, 86
2, 33050, Control_c, 0, 67, 55
2, 33069, Control_c, 0, 64, 85
2, 33081, Note_on_c, 0, 71, 0
2, 33089, Control_c, 0, 64, 84
2, 33089, Control_c, 0, 67, 56
2, 33108, Control_c, 0, 64, 83
2, 33108, Control_c, 0, 67, 56
2, 33125, Note_on_c, 0, 83, 56
2, 33127, Control_c, 0, 64, 81
2, 33146, Control_c, 0, 64, 79
2, 33146, Control_c, 0, 67, 57
2, 33166, Control_c, 0, 64, 77
2, 33184, Control_c, 0, 64, 74
2, 33184, Control_c, 0, 67, 57
2, 33204, Control_c, 0, 64, 71
2, 33223, Control_c, 0, 64, 67
2, 33242, Control_c, 0, 64, 64
2, 33242, Control_c, 0, 67, 58
2, 33261, Control_c, 0, 64, 63
2, 33280, Control_c, 0, 64, 62
2, 33338, Control_c, 0, 64, 61
2, 33357, Control_c, 0, 64, 61
2, 33377, Control_c, 0, 64, 60
2, 33377, Control_c, 0, 67, 58
2, 33395, Control_c, 0, 67, 59
2, 33415, Control_c, 0, 64, 60
2, 33434, Control_c, 0, 67, 60
2, 33472, Control_c, 0, 67, 61
2, 33492, Control_c, 0, 67, 61
2, 33511, Control_c, 0, 67, 62
2, 33530, Control_c, 0, 67, 63
2, 33549, Control_c, 0, 67, 63
2, 33569, Control_c, 0, 67, 65
2, 33588, Control_c, 0, 67, 65
2, 33607, Control_c, 0, 67, 67
2, 33626, Control_c, 0, 67, 68
2, 33646, Control_c, 0, 67, 70
2, 33664, Control_c, 0, 67, 70
2, 33684, Control_c, 0, 67, 73
2, 33703, Control_c, 0, 64, 60
2, 33703, Control_c, 0, 67, 75
2, 33722, Control_c, 0, 64, 61
2, 33722, Control_c, 0, 67, 77
2, 33741, Control_c, 0, 64, 62
2, 33741, Control_c, 0, 67, 80
2, 33760, Control_c, 0, 64, 62
2, 33760, Control_c, 0, 67, 82
2, 33780, Control_c, 0, 64, 63
2, 33780, Control_c, 0, 67, 84
2, 33799, Control_c, 0, 64, 64
2, 33799, Control_c, 0, 67, 85
2, 33818, Control_c, 0, 64, 65
2, 33818, Control_c, 0, 67, 85
2, 33837, Control_c, 0, 64, 66
2, 33837, Control_c, 0, 67, 86
2, 33857, Control_c, 0, 64, 67
2, 33875, Control_c, 0, 64, 69
2, 33875, Control_c, 0, 67, 86
2, 33895, Control_c, 0, 64, 72
2, 33895, Control_c, 0, 67, 87
2, 33914, Control_c, 0, 64, 77
2, 33934, Control_c, 0, 64, 84
2, 33934, Control_c, 0, 67, 87
2, 33952, Control_c, 0, 64, 91
2, 33972, Control_c, 0, 64, 98
2, 33972, Control_c, 0, 67, 89
2, 33991, Control_c, 0, 64, 101
2, 33991, Control_c, 0, 67, 91
2, 34010, Control_c, 0, 64, 103
2, 34010, Control_c, 0, 67, 93
2, 34029, Control_c, 0, 64, 104
2, 34029, Control_c, 0, 67, 96
2, 34049, Control_c, 0, 67, 99
2, 34068, Control_c, 0, 67, 102
2, 34069, Note_on_c, 0, 65, 54
2, 34087, Control_c, 0, 64, 104
2, 34087, Control_c, 0, 67, 104
2, 34095, Note_on_c, 0, 83, 0
2, 34106, Control_c, 0, 67, 107
2, 34126, Control_c, 0, 67, 112
2, 34144, Control_c, 0, 67, 119
2, 34159, Note_on_c, 0, 68, 0
2, 34161, Note_on_c, 0, 80, 0
2, 34164, Control_c, 0, 64, 104
2, 34164, Control_c, 0, 67, 127
2, 34175, Note_on_c, 0, 75, 0
2, 34183, Control_c, 0, 64, 103
2, 34183, Control_c, 0, 67, 127
2, 34202, Control_c, 0, 64, 103
2, 34221, Control_c, 0, 64, 102
2, 34240, Control_c, 0, 64, 101
2, 34260, Control_c, 0, 64, 99
2, 34279, Control_c, 0, 64, 97
2, 34298, Control_c, 0, 64, 96
2, 34317, Control_c, 0, 64, 95
2, 34337, Control_c, 0, 64, 93
2, 34355, Control_c, 0, 64, 92
2, 34375, Control_c, 0, 64, 90
2, 34398, Control_c, 0, 64, 89
2, 34414, Note_on_c, 0, 77, 39
2, 34417, Control_c, 0, 64, 88
2, 34436, Control_c, 0, 64, 87
2, 34442, Note_on_c, 0, 80, 42
2, 34456, Control_c, 0, 64, 86
2, 34474, Control_c, 0, 64, 84
2, 34494, Control_c, 0, 64, 83
2, 34494, Note_on_c, 0, 83, 48
2, 34504, Note_on_c, 0, 62, 39
2, 34513, Control_c, 0, 64, 81
2, 34533, Control_c, 0, 64, 78
2, 34551, Control_c, 0, 64, 75
2, 34558, Note_on_c, 0, 65, 0
2, 34571, Control_c, 0, 64, 71
2, 34590, Control_c, 0, 64, 67
2, 34610, Control_c, 0, 64, 64
2, 34628, Control_c, 0, 64, 60
2, 34648, Control_c, 0, 64, 57
2, 34667, Control_c, 0, 64, 53
2, 34686, Control_c, 0, 64, 49
2, 34705, Control_c, 0, 64, 47
2, 34725, Control_c, 0, 64, 46
2, 34835, Control_c, 0, 64, 46
2, 34855, Control_c, 0, 64, 47
2, 34874, Control_c, 0, 64, 48
2, 34894, Control_c, 0, 64, 49
2, 34912, Control_c, 0, 64, 50
2, 34932, Control_c, 0, 64, 50
2, 35105, Control_c, 0, 64, 50
2, 35124, Control_c, 0, 64, 49
2, 35143, Control_c, 0, 64, 48
2, 35200, Control_c, 0, 64, 49
2, 35220, Control_c, 0, 64, 54
2, 35239, Control_c, 0, 64, 60
2, 35258, Control_c, 0, 64, 64
2, 35277, Control_c, 0, 64, 67
2, 35297, Control_c, 0, 64, 73
2, 35315, Control_c, 0, 64, 83
2, 35335, Control_c, 0, 64, 98
2, 35354, Control_c, 0, 64, 117
2, 35374, Control_c, 0, 64, 127
2, 35456, Note_on_c, 0, 62, 0
2, 35757, Control_c, 0, 64, 121
2, 35777, Control_c, 0, 64, 113
2, 35784, Note_on_c, 0, 62, 25
2, 35795, Control_c, 0, 64, 108
2, 35815, Control_c, 0, 64, 103
2, 35834, Control_c, 0, 64, 97
2, 35839, Note_on_c, 0, 65, 27
2, 35854, Control_c, 0, 64, 93
2, 35872, Control_c, 0, 64, 89
2, 35892, Control_c, 0, 64, 85
2, 35898, Note_on_c, 0, 70, 45
2, 35911, Control_c, 0, 64, 79
2, 35930, Control_c, 0, 64, 73
2, 35949, Control_c, 0, 64, 68
2, 35969, Control_c, 0, 64, 65
2, 35988, Control_c, 0, 64, 64
2, 36007, Control_c, 0, 64, 63
2, 36026, Control_c, 0, 64, 62
2, 36046, Control_c, 0, 64, 60
2, 36065, Control_c, 0, 64, 58
2, 36083, Control_c, 0, 64, 57
2, 36103, Control_c, 0, 64, 56
2, 36141, Control_c, 0, 64, 56
2, 36160, Control_c, 0, 64, 57
2, 36180, Control_c, 0, 64, 58
2, 36199, Control_c, 0, 64, 59
2, 36218, Control_c, 0, 64, 60
2, 36237, Control_c, 0, 64, 60
2, 36257, Control_c, 0, 64, 61
2, 36275, Control_c, 0, 64, 62
2, 36295, Control_c, 0, 64, 63
2, 36315, Control_c, 0, 64, 64
2, 36335, Control_c, 0, 64, 65
2, 36349, Note_on_c, 0, 77, 0
2, 36353, Control_c, 0, 64, 66
2, 36373, Control_c, 0, 64, 68
2, 36392, Control_c, 0, 64, 71
2, 36411, Control_c, 0, 64, 74
2, 36430, Control_c, 0, 64, 77
2, 36450, Control_c, 0, 64, 80
2, 36469, Control_c, 0, 64, 80
2, 36491, Note_on_c, 0, 80, 0
2, 36506, Note_on_c, 0, 83, 0
2, 36735, Control_c, 0, 64, 80
2, 36783, Note_on_c, 0, 82, 64
2, 36850, Control_c, 0, 64, 79
2, 36965, Note_on_c, 0, 65, 0
2, 37003, Control_c, 0, 64, 79
2, 37061, Control_c, 0, 64, 78
2, 37083, Note_on_c, 0, 62, 0
2, 37099, Note_on_c, 0, 80, 70
2, 37138, Control_c, 0, 64, 78
2, 37195, Control_c, 0, 64, 77
2, 37234, Control_c, 0, 64, 77
2, 37253, Control_c, 0, 64, 76
2, 37273, Control_c, 0, 64, 76
2, 37293, Control_c, 0, 64, 75
2, 37300, Note_on_c, 0, 70, 0
2, 37301, Note_on_c, 0, 78, 67
2, 37311, Control_c, 0, 64, 75
2, 37331, Control_c, 0, 64, 74
2, 37350, Control_c, 0, 64, 71
2, 37351, Note_on_c, 0, 62, 38
2, 37370, Control_c, 0, 64, 67
2, 37385, Note_on_c, 0, 82, 0
2, 37388, Control_c, 0, 64, 63
2, 37392, Note_on_c, 0, 80, 0
2, 37408, Control_c, 0, 64, 59
2, 37427, Control_c, 0, 64, 57
2, 37445, Note_on_c, 0, 65, 32
2, 37446, Control_c, 0, 64, 57
2, 37465, Control_c, 0, 64, 59
2, 37485, Control_c, 0, 64, 62
2, 37504, Control_c, 0, 64, 63
2, 37522, Control_c, 0, 64, 64
2, 37532, Note_on_c, 0, 78, 0
2, 37533, Note_on_c, 0, 77, 58
2, 37542, Control_c, 0, 64, 65
2, 37550, Note_on_c, 0, 70, 36
2, 37561, Control_c, 0, 64, 66
2, 37580, Control_c, 0, 64, 67
2, 37619, Control_c, 0, 64, 66
2, 37657, Control_c, 0, 64, 65
2, 37670, Note_on_c, 0, 77, 0
2, 37676, Control_c, 0, 64, 63
2, 37679, Note_on_c, 0, 78, 63
2, 37696, Control_c, 0, 64, 59
2, 37714, Control_c, 0, 64, 53
2, 37734, Control_c, 0, 64, 51
2, 37753, Control_c, 0, 64, 51
2, 37773, Control_c, 0, 64, 55
2, 37791, Control_c, 0, 64, 59
2, 37807, Note_on_c, 0, 78, 0
2, 37811, Control_c, 0, 64, 62
2, 37819, Note_on_c, 0, 77, 60
2, 37830, Control_c, 0, 64, 64
2, 37850, Control_c, 0, 64, 65
2, 37868, Control_c, 0, 64, 65
2, 37948, Note_on_c, 0, 77, 0
2, 37950, Note_on_c, 0, 78, 68
2, 38002, Control_c, 0, 64, 65
2, 38060, Control_c, 0, 64, 64
2, 38079, Control_c, 0, 64, 61
2, 38096, Note_on_c, 0, 78, 0
2, 38099, Control_c, 0, 64, 57
2, 38118, Control_c, 0, 64, 50
2, 38119, Note_on_c, 0, 80, 59
2, 38137, Control_c, 0, 64, 50
2, 38156, Control_c, 0, 64, 53
2, 38176, Control_c, 0, 64, 58
2, 38194, Control_c, 0, 64, 62
2, 38214, Control_c, 0, 64, 64
2, 38225, Note_on_c, 0, 65, 0
2, 38232, Control_c, 0, 64, 66
2, 38252, Control_c, 0, 64, 68
2, 38265, Note_on_c, 0, 80, 0
2, 38268, Note_on_c, 0, 78, 53
2, 38270, Control_c, 0, 64, 71
2, 38290, Control_c, 0, 64, 75
2, 38309, Control_c, 0, 64, 79
2, 38329, Control_c, 0, 64, 82
2, 38347, Control_c, 0, 64, 82
2, 38386, Control_c, 0, 64, 82
2, 38424, Control_c, 0, 64, 81
2, 38428, Note_on_c, 0, 62, 0
2, 38428, Note_on_c, 0, 80, 55
2, 38430, Note_on_c, 0, 78, 0
2, 38520, Control_c, 0, 64, 81
2, 38540, Control_c, 0, 64, 80
2, 38558, Control_c, 0, 64, 79
2, 38578, Control_c, 0, 64, 78
2, 38583, Note_on_c, 0, 70, 0
2, 38597, Control_c, 0, 64, 78
2, 38606, Note_on_c, 0, 77, 49
2, 38618, Note_on_c, 0, 80, 0
2, 38670, Control_c, 0, 64, 77
2, 38685, Note_on_c, 0, 63, 37
2, 38690, Control_c, 0, 64, 77
2, 38708, Control_c, 0, 64, 76
2, 38728, Control_c, 0, 64, 76
2, 38747, Control_c, 0, 64, 74
2, 38766, Control_c, 0, 64, 72
2, 38766, Note_on_c, 0, 66, 34
2, 38785, Control_c, 0, 64, 68
2, 38805, Control_c, 0, 64, 64
2, 38824, Control_c, 0, 64, 60
2, 38836, Note_on_c, 0, 77, 0
2, 38842, Control_c, 0, 64, 53
2, 38862, Control_c, 0, 64, 49
2, 38863, Note_on_c, 0, 78, 52
2, 38881, Control_c, 0, 64, 48
2, 38900, Control_c, 0, 64, 49
2, 38909, Note_on_c, 0, 70, 30
2, 38919, Control_c, 0, 64, 51
2, 38939, Control_c, 0, 64, 56
2, 38958, Control_c, 0, 64, 59
2, 38977, Control_c, 0, 64, 62
2, 38996, Control_c, 0, 64, 63
2, 39016, Control_c, 0, 64, 64
2, 39034, Control_c, 0, 64, 65
2, 39054, Control_c, 0, 64, 66
2, 39073, Control_c, 0, 64, 67
2, 39114, Note_on_c, 0, 78, 0
2, 39131, Control_c, 0, 64, 68
2, 39150, Control_c, 0, 64, 69
2, 39150, Note_on_c, 0, 80, 44
2, 39170, Control_c, 0, 64, 71
2, 39195, Control_c, 0, 64, 73
2, 39215, Control_c, 0, 64, 73
2, 39233, Control_c, 0, 64, 74
2, 39252, Note_on_c, 0, 80, 0
2, 39287, Note_on_c, 0, 78, 47
2, 39344, Note_on_c, 0, 78, 0
2, 39409, Note_on_c, 0, 80, 48
2, 39457, Note_on_c, 0, 80, 0
2, 39470, Note_on_c, 0, 78, 48
2, 39520, Note_on_c, 0, 78, 0
2, 39556, Note_on_c, 0, 80, 48
2, 39591, Note_on_c, 0, 80, 0
2, 39634, Note_on_c, 0, 78, 46
2, 39672, Note_on_c, 0, 78, 0
2, 39697, Note_on_c, 0, 80, 53
2, 39784, Note_on_c, 0, 78, 53
2, 39809, Control_c, 0, 64, 73
2, 39809, Note_on_c, 0, 80, 0
2, 39828, Control_c, 0, 64, 72
2, 39847, Control_c, 0, 64, 70
2, 39850, Note_on_c, 0, 78, 0
2, 39856, Note_on_c, 0, 70, 0
2, 39866, Control_c, 0, 64, 68
2, 39889, Note_on_c, 0, 77, 54
2, 39905, Control_c, 0, 64, 69
2, 39943, Control_c, 0, 64, 69
2, 39948, Note_on_c, 0, 77, 0
2, 39962, Control_c, 0, 64, 70
2, 39981, Control_c, 0, 64, 70
2, 40000, Control_c, 0, 64, 71
2, 40005, Note_on_c, 0, 75, 50
2, 40090, Note_on_c, 0, 75, 0
2, 40189, Note_on_c, 0, 70, 50
2, 40194, Control_c, 0, 64, 70
2, 40214, Control_c, 0, 64, 70
2, 40233, Control_c, 0, 64, 69
2, 40243, Note_on_c, 0, 75, 45
2, 40252, Control_c, 0, 64, 69
2, 40271, Control_c, 0, 64, 68
2, 40291, Control_c, 0, 64, 67
2, 40309, Control_c, 0, 64, 66
2, 40317, Note_on_c, 0, 78, 41
2, 40329, Control_c, 0, 64, 64
2, 40339, Note_on_c, 0, 82, 60
2, 40348, Control_c, 0, 64, 62
2, 40368, Control_c, 0, 64, 59
2, 40386, Control_c, 0, 64, 54
2, 40406, Control_c, 0, 64, 49
2, 40413, Note_on_c, 0, 66, 0
2, 40425, Control_c, 0, 64, 46
2, 40445, Control_c, 0, 64, 45
2, 40463, Control_c, 0, 64, 44
2, 40548, Note_on_c, 0, 63, 0
2, 40615, Control_c, 0, 64, 45
2, 40634, Control_c, 0, 64, 45
2, 40672, Control_c, 0, 64, 46
2, 40692, Control_c, 0, 64, 47
2, 40711, Control_c, 0, 64, 47
2, 40730, Control_c, 0, 64, 48
2, 40749, Control_c, 0, 64, 49
2, 40769, Control_c, 0, 64, 50
2, 40788, Control_c, 0, 64, 51
2, 40807, Control_c, 0, 64, 53
2, 40826, Control_c, 0, 64, 55
2, 40846, Control_c, 0, 64, 56
2, 40865, Control_c, 0, 64, 58
2, 40883, Control_c, 0, 64, 59
2, 40903, Control_c, 0, 64, 60
2, 40922, Control_c, 0, 64, 61
2, 40941, Control_c, 0, 64, 62
2, 40960, Control_c, 0, 64, 63
2, 40980, Control_c, 0, 64, 63
2, 40999, Control_c, 0, 64, 64
2, 41018, Control_c, 0, 64, 64
2, 41037, Control_c, 0, 64, 65
2, 41057, Control_c, 0, 64, 65
2, 41075, Control_c, 0, 64, 66
2, 41095, Control_c, 0, 64, 66
2, 41114, Control_c, 0, 64, 67
2, 41134, Control_c, 0, 64, 68
2, 41152, Control_c, 0, 64, 69
2, 41172, Control_c, 0, 64, 70
2, 41191, Control_c, 0, 64, 71
2, 41210, Control_c, 0, 64, 72
2, 41229, Control_c, 0, 64, 73
2, 41268, Note_on_c, 0, 70, 0
2, 41386, Note_on_c, 0, 66, 48
2, 41389, Note_on_c, 0, 82, 0
2, 41402, Control_c, 0, 64, 73
2, 41424, Note_on_c, 0, 78, 0
2, 41456, Note_on_c, 0, 75, 0
2, 41498, Control_c, 0, 64, 72
2, 41587, Note_on_c, 0, 73, 42
2, 41613, Control_c, 0, 64, 72
2, 41619, Note_on_c, 0, 63, 58
2, 41624, Note_on_c, 0, 75, 46
2, 41676, Note_on_c, 0, 78, 45
2, 41708, Control_c, 0, 64, 71
2, 41719, Note_on_c, 0, 66, 0
2, 41724, Note_on_c, 0, 82, 58
2, 41728, Control_c, 0, 64, 70
2, 41747, Control_c, 0, 64, 67
2, 41766, Control_c, 0, 64, 63
2, 41785, Control_c, 0, 64, 58
2, 41804, Control_c, 0, 64, 53
2, 41824, Control_c, 0, 64, 52
2, 41842, Control_c, 0, 64, 55
2, 41862, Control_c, 0, 64, 58
2, 41881, Control_c, 0, 64, 62
2, 41900, Control_c, 0, 64, 63
2, 41919, Control_c, 0, 64, 65
2, 41939, Control_c, 0, 64, 66
2, 41958, Control_c, 0, 64, 68
2, 41977, Control_c, 0, 64, 70
2, 41996, Control_c, 0, 64, 72
2, 42016, Control_c, 0, 64, 73
2, 42034, Control_c, 0, 64, 75
2, 42034, Control_c, 0, 67, 122
2, 42054, Control_c, 0, 64, 77
2, 42054, Control_c, 0, 67, 117
2, 42075, Control_c, 0, 64, 78
2, 42075, Control_c, 0, 67, 110
2, 42095, Control_c, 0, 64, 78
2, 42095, Control_c, 0, 67, 101
2, 42113, Control_c, 0, 64, 79
2, 42113, Control_c, 0, 67, 89
2, 42133, Control_c, 0, 64, 79
2, 42133, Control_c, 0, 67, 77
2, 42152, Control_c, 0, 64, 80
2, 42152, Control_c, 0, 67, 65
2, 42171, Control_c, 0, 64, 81
2, 42171, Control_c, 0, 67, 50
2, 42190, Control_c, 0, 64, 82
2, 42190, Control_c, 0, 67, 38
2, 42210, Control_c, 0, 67, 27
2, 42229, Control_c, 0, 67, 16
2, 42248, Control_c, 0, 64, 83
2, 42248, Control_c, 0, 67, 0
2, 42267, Control_c, 0, 64, 84
2, 42287, Control_c, 0, 64, 86
2, 42305, Control_c, 0, 64, 86
2, 42324, Control_c, 0, 64, 87
2, 42344, Control_c, 0, 64, 88
2, 42363, Control_c, 0, 64, 89
2, 42382, Control_c, 0, 64, 90
2, 42401, Control_c, 0, 64, 91
2, 42421, Control_c, 0, 64, 91
2, 42439, Control_c, 0, 64, 92
2, 42478, Control_c, 0, 64, 92
2, 42497, Control_c, 0, 64, 93
2, 42515, Control_c, 0, 64, 95
2, 42535, Control_c, 0, 64, 97
2, 42554, Control_c, 0, 64, 99
2, 42574, Control_c, 0, 64, 100
2, 42578, Note_on_c, 0, 60, 65
2, 42592, Control_c, 0, 64, 101
2, 42612, Control_c, 0, 64, 102
2, 42631, Control_c, 0, 64, 103
2, 42650, Control_c, 0, 64, 104
2, 42651, Note_on_c, 0, 63, 0
2, 42669, Control_c, 0, 64, 105
2, 42676, Note_on_c, 0, 73, 0
2, 42689, Control_c, 0, 64, 105
2, 42708, Control_c, 0, 64, 106
2, 42727, Control_c, 0, 64, 106
2, 42729, Note_on_c, 0, 82, 0
2, 42746, Control_c, 0, 64, 107
2, 42766, Control_c, 0, 64, 108
2, 42785, Control_c, 0, 64, 108
2, 42803, Control_c, 0, 64, 109
2, 42815, Note_on_c, 0, 78, 0
2, 42816, Note_on_c, 0, 75, 0
2, 42857, Note_on_c, 0, 72, 62
2, 42934, Note_on_c, 0, 75, 64
2, 42977, Control_c, 0, 64, 108
2, 42987, Note_on_c, 0, 78, 52
2, 42995, Control_c, 0, 64, 108
2, 43015, Control_c, 0, 64, 107
2, 43032, Control_c, 0, 64, 106
2, 43052, Control_c, 0, 64, 104
2, 43070, Control_c, 0, 64, 102
2, 43086, Note_on_c, 0, 57, 65
2, 43090, Control_c, 0, 64, 101
2, 43109, Control_c, 0, 64, 99
2, 43129, Control_c, 0, 64, 96
2, 43136, Note_on_c, 0, 84, 69
2, 43146, Note_on_c, 0, 60, 0
2, 43147, Control_c, 0, 64, 94
2, 43167, Control_c, 0, 64, 91
2, 43186, Control_c, 0, 64, 88
2, 43204, Control_c, 0, 64, 82
2, 43224, Control_c, 0, 64, 76
2, 43243, Control_c, 0, 64, 71
2, 43263, Control_c, 0, 64, 66
2, 43281, Control_c, 0, 64, 63
2, 43301, Control_c, 0, 64, 61
2, 43320, Control_c, 0, 64, 60
2, 43340, Control_c, 0, 64, 59
2, 43358, Control_c, 0, 64, 59
2, 43378, Control_c, 0, 64, 58
2, 43397, Control_c, 0, 64, 58
2, 43435, Control_c, 0, 64, 57
2, 43760, Control_c, 0, 64, 58
2, 43819, Control_c, 0, 64, 58
2, 43837, Control_c, 0, 64, 59
2, 43857, Control_c, 0, 64, 59
2, 43876, Control_c, 0, 64, 60
2, 43895, Control_c, 0, 64, 61
2, 43914, Control_c, 0, 64, 61
2, 43934, Control_c, 0, 64, 62
2, 43953, Control_c, 0, 64, 63
2, 43972, Control_c, 0, 64, 64
2, 43992, Control_c, 0, 64, 65
2, 44012, Control_c, 0, 64, 67
2, 44030, Control_c, 0, 64, 70
2, 44050, Control_c, 0, 64, 74
2, 44050, Control_c, 0, 67, 9
2, 44069, Control_c, 0, 64, 82
2, 44069, Control_c, 0, 67, 19
2, 44089, Control_c, 0, 64, 93
2, 44089, Control_c, 0, 67, 29
2, 44107, Control_c, 0, 64, 104
2, 44107, Control_c, 0, 67, 37
2, 44127, Control_c, 0, 64, 108
2, 44127, Control_c, 0, 67, 46
2, 44146, Control_c, 0, 67, 53
2, 44164, Control_c, 0, 64, 107
2, 44164, Control_c, 0, 67, 60
2, 44184, Control_c, 0, 64, 104
2, 44184, Control_c, 0, 67, 67
2, 44203, Control_c, 0, 64, 99
2, 44203, Control_c, 0, 67, 76
2, 44223, Control_c, 0, 64, 93
2, 44223, Control_c, 0, 67, 85
2, 44241, Control_c, 0, 64, 89
2, 44241, Control_c, 0, 67, 96
2, 44261, Control_c, 0, 64, 88
2, 44261, Control_c, 0, 67, 108
2, 44280, Control_c, 0, 64, 88
2, 44280, Control_c, 0, 67, 120
2, 44300, Control_c, 0, 64, 89
2, 44300, Control_c, 0, 67, 127
2, 44318, Control_c, 0, 64, 91
2, 44338, Control_c, 0, 64, 93
2, 44357, Control_c, 0, 64, 95
2, 44376, Control_c, 0, 64, 96
2, 44395, Control_c, 0, 64, 97
2, 44414, Control_c, 0, 64, 98
2, 44433, Control_c, 0, 64, 99
2, 44452, Control_c, 0, 64, 101
2, 44471, Control_c, 0, 64, 102
2, 44491, Control_c, 0, 64, 103
2, 44504, Note_on_c, 0, 57, 0
2, 44510, Control_c, 0, 64, 105
2, 44529, Control_c, 0, 64, 106
2, 44548, Control_c, 0, 64, 108
2, 44568, Control_c, 0, 64, 109
2, 44586, Control_c, 0, 64, 110
2, 44644, Control_c, 0, 64, 109
2, 44663, Control_c, 0, 64, 108
2, 44682, Control_c, 0, 64, 106
2, 44702, Control_c, 0, 64, 104
2, 44720, Control_c, 0, 64, 101
2, 44721, Note_on_c, 0, 57, 20
2, 44740, Control_c, 0, 64, 99
2, 44759, Control_c, 0, 64, 96
2, 44779, Control_c, 0, 64, 94
2, 44780, Note_on_c, 0, 60, 35
2, 44797, Control_c, 0, 64, 90
2, 44814, Note_on_c, 0, 65, 35
2, 44817, Control_c, 0, 64, 87
2, 44836, Control_c, 0, 64, 83
2, 44855, Control_c, 0, 64, 78
2, 44874, Control_c, 0, 64, 74
2, 44894, Control_c, 0, 64, 69
2, 44913, Control_c, 0, 64, 64
2, 44932, Control_c, 0, 64, 61
2, 44954, Control_c, 0, 64, 60
2, 44974, Control_c, 0, 64, 60
2, 45069, Control_c, 0, 64, 60
2, 45089, Control_c, 0, 64, 61
2, 45108, Control_c, 0, 64, 61
2, 45127, Control_c, 0, 64, 63
2, 45146, Control_c, 0, 64, 64
2, 45166, Control_c, 0, 64, 65
2, 45185, Control_c, 0, 64, 66
2, 45185, Note_on_c, 0, 84, 0
2, 45203, Control_c, 0, 64, 67
2, 45223, Control_c, 0, 64, 69
2, 45242, Control_c, 0, 64, 72
2, 45261, Control_c, 0, 64, 76
2, 45263, Note_on_c, 0, 78, 0
2, 45280, Control_c, 0, 64, 81
2, 45296, Note_on_c, 0, 75, 0
2, 45300, Control_c, 0, 64, 86
2, 45319, Control_c, 0, 64, 89
2, 45338, Control_c, 0, 64, 91
2, 45415, Note_on_c, 0, 72, 0
2, 45510, Control_c, 0, 64, 90
2, 45530, Control_c, 0, 64, 90
2, 45548, Control_c, 0, 64, 89
2, 45568, Control_c, 0, 64, 88
2, 45587, Control_c, 0, 64, 86
2, 45606, Control_c, 0, 64, 83
2, 45625, Control_c, 0, 64, 79
2, 45644, Control_c, 0, 64, 75
2, 45664, Control_c, 0, 64, 70
2, 45682, Control_c, 0, 64, 65
2, 45702, Control_c, 0, 64, 64
2, 45721, Control_c, 0, 64, 65
2, 45736, Note_on_c, 0, 77, 50
2, 45740, Control_c, 0, 64, 66
2, 45759, Control_c, 0, 64, 67
2, 45779, Control_c, 0, 64, 68
2, 45798, Control_c, 0, 64, 70
2, 45817, Control_c, 0, 64, 73
2, 45836, Control_c, 0, 64, 75
2, 45856, Control_c, 0, 64, 77
2, 45874, Control_c, 0, 64, 77
2, 45894, Control_c, 0, 64, 78
2, 45951, Control_c, 0, 64, 77
2, 45963, Note_on_c, 0, 60, 0
2, 45990, Control_c, 0, 64, 77
2, 45993, Note_on_c, 0, 75, 64
2, 46009, Note_on_c, 0, 57, 0
2, 46048, Control_c, 0, 64, 76
2, 46067, Control_c, 0, 64, 76
2, 46086, Control_c, 0, 64, 75
2, 46124, Control_c, 0, 64, 75
2, 46144, Control_c, 0, 64, 74
2, 46145, Note_on_c, 0, 65, 0
2, 46158, Note_on_c, 0, 77, 0
2, 46162, Control_c, 0, 64, 74
2, 46172, Note_on_c, 0, 57, 34
2, 46178, Note_on_c, 0, 73, 66
2, 46182, Control_c, 0, 64, 73
2, 46201, Control_c, 0, 64, 73
2, 46220, Control_c, 0, 64, 71
2, 46239, Control_c, 0, 64, 68
2, 46259, Control_c, 0, 64, 64
2, 46278, Control_c, 0, 64, 55
2, 46279, Note_on_c, 0, 75, 0
2, 46297, Control_c, 0, 64, 44
2, 46309, Note_on_c, 0, 60, 22
2, 46316, Control_c, 0, 64, 42
2, 46336, Control_c, 0, 64, 45
2, 46352, Note_on_c, 0, 73, 0
2, 46354, Control_c, 0, 64, 52
2, 46355, Note_on_c, 0, 72, 62
2, 46374, Control_c, 0, 64, 59
2, 46386, Note_on_c, 0, 65, 24
2, 46393, Control_c, 0, 64, 62
2, 46413, Control_c, 0, 64, 63
2, 46431, Control_c, 0, 64, 64
2, 46451, Control_c, 0, 64, 65
2, 46490, Control_c, 0, 64, 65
2, 46495, Note_on_c, 0, 72, 0
2, 46506, Note_on_c, 0, 73, 65
2, 46604, Control_c, 0, 64, 65
2, 46617, Note_on_c, 0, 73, 0
2, 46642, Control_c, 0, 64, 64
2, 46647, Note_on_c, 0, 72, 57
2, 46662, Control_c, 0, 64, 62
2, 46681, Control_c, 0, 64, 58
2, 46700, Control_c, 0, 64, 54
2, 46719, Control_c, 0, 64, 52
2, 46739, Control_c, 0, 64, 54
2, 46746, Note_on_c, 0, 72, 0
2, 46758, Control_c, 0, 64, 57
2, 46774, Note_on_c, 0, 73, 56
2, 46777, Control_c, 0, 64, 61
2, 46796, Control_c, 0, 64, 62
2, 46816, Control_c, 0, 64, 63
2, 46834, Control_c, 0, 64, 64
2, 46883, Note_on_c, 0, 73, 0
2, 46894, Control_c, 0, 64, 64
2, 46913, Note_on_c, 0, 75, 54
2, 46951, Control_c, 0, 64, 63
2, 46970, Control_c, 0, 64, 61
2, 46989, Control_c, 0, 64, 58
2, 47009, Control_c, 0, 64, 55
2, 47028, Control_c, 0, 64, 54
2, 47047, Control_c, 0, 64, 56
2, 47048, Note_on_c, 0, 75, 0
2, 47057, Note_on_c, 0, 73, 51
2, 47066, Control_c, 0, 64, 60
2, 47083, Note_on_c, 0, 60, 0
2, 47085, Control_c, 0, 64, 63
2, 47105, Control_c, 0, 64, 66
2, 47123, Control_c, 0, 64, 69
2, 47143, Control_c, 0, 64, 75
2, 47162, Control_c, 0, 64, 81
2, 47163, Note_on_c, 0, 57, 0
2, 47181, Control_c, 0, 64, 86
2, 47187, Note_on_c, 0, 73, 0
2, 47197, Note_on_c, 0, 75, 62
2, 47200, Control_c, 0, 64, 88
2, 47220, Control_c, 0, 64, 87
2, 47239, Control_c, 0, 64, 85
2, 47258, Control_c, 0, 64, 84
2, 47275, Note_on_c, 0, 75, 0
2, 47277, Control_c, 0, 64, 84
2, 47296, Control_c, 0, 64, 83
2, 47302, Note_on_c, 0, 72, 53
2, 47311, Note_on_c, 0, 65, 0
2, 47314, Control_c, 0, 64, 83
2, 47334, Control_c, 0, 64, 81
2, 47353, Control_c, 0, 64, 80
2, 47371, Note_on_c, 0, 58, 33
2, 47373, Control_c, 0, 64, 78
2, 47391, Control_c, 0, 64, 74
2, 47411, Control_c, 0, 64, 69
2, 47430, Control_c, 0, 64, 62
2, 47435, Note_on_c, 0, 72, 0
2, 47450, Control_c, 0, 64, 47
2, 47468, Control_c, 0, 64, 22
2, 47469, Note_on_c, 0, 61, 28
2, 47469, Note_on_c, 0, 73, 50
2, 47488, Control_c, 0, 64, 13
2, 47507, Control_c, 0, 64, 11
2, 47525, Control_c, 0, 64, 18
2, 47540, Note_on_c, 0, 65, 28
2, 47545, Control_c, 0, 64, 35
2, 47564, Control_c, 0, 64, 50
2, 47584, Control_c, 0, 64, 59
2, 47602, Control_c, 0, 64, 63
2, 47607, Note_on_c, 0, 73, 0
2, 47622, Control_c, 0, 64, 63
2, 47641, Control_c, 0, 64, 64
2, 47660, Control_c, 0, 64, 65
2, 47660, Note_on_c, 0, 75, 46
2, 47679, Control_c, 0, 64, 67
2, 47699, Control_c, 0, 64, 68
2, 47718, Control_c, 0, 64, 70
2, 47720, Note_on_c, 0, 75, 0
2, 47737, Control_c, 0, 64, 73
2, 47756, Control_c, 0, 64, 74
2, 47770, Note_on_c, 0, 73, 46
2, 47776, Control_c, 0, 64, 74
2, 47810, Note_on_c, 0, 73, 0
2, 47859, Note_on_c, 0, 75, 48
2, 47898, Note_on_c, 0, 75, 0
2, 47921, Note_on_c, 0, 73, 52
2, 47960, Note_on_c, 0, 73, 0
2, 47971, Control_c, 0, 64, 74
2, 48004, Note_on_c, 0, 75, 42
2, 48042, Note_on_c, 0, 75, 0
2, 48054, Note_on_c, 0, 73, 61
2, 48093, Note_on_c, 0, 73, 0
2, 48124, Note_on_c, 0, 75, 58
2, 48190, Note_on_c, 0, 73, 55
2, 48216, Note_on_c, 0, 75, 0
2, 48251, Note_on_c, 0, 73, 0
2, 48274, Note_on_c, 0, 61, 0
2, 48288, Note_on_c, 0, 72, 61
2, 48298, Note_on_c, 0, 58, 0
2, 48318, Note_on_c, 0, 65, 0
2, 48368, Note_on_c, 0, 72, 0
2, 48398, Note_on_c, 0, 70, 60
2, 48428, Control_c, 0, 64, 73
2, 48450, Note_on_c, 0, 58, 35
2, 48453, Note_on_c, 0, 70, 0
2, 48467, Control_c, 0, 64, 73
2, 48485, Control_c, 0, 64, 72
2, 48505, Control_c, 0, 64, 72
2, 48524, Control_c, 0, 64, 71
2, 48544, Control_c, 0, 64, 70
2, 48562, Control_c, 0, 64, 68
2, 48565, Note_on_c, 0, 61, 39
2, 48582, Control_c, 0, 64, 67
2, 48601, Control_c, 0, 64, 66
2, 48620, Control_c, 0, 64, 65
2, 48630, Note_on_c, 0, 65, 33
2, 48639, Control_c, 0, 64, 64
2, 48650, Note_on_c, 0, 70, 33
2, 48659, Control_c, 0, 64, 61
2, 48678, Control_c, 0, 64, 56
2, 48697, Control_c, 0, 64, 47
2, 48701, Note_on_c, 0, 77, 66
2, 48704, Note_on_c, 0, 73, 38
2, 48716, Control_c, 0, 64, 43
2, 48736, Control_c, 0, 64, 40
2, 48754, Control_c, 0, 64, 38
2, 48774, Control_c, 0, 64, 36
2, 48794, Control_c, 0, 64, 35
2, 48814, Control_c, 0, 64, 34
2, 49005, Control_c, 0, 64, 36
2, 49025, Control_c, 0, 64, 43
2, 49043, Control_c, 0, 64, 50
2, 49063, Control_c, 0, 64, 56
2, 49085, Control_c, 0, 64, 59
2, 49104, Control_c, 0, 64, 61
2, 49123, Control_c, 0, 64, 61
2, 49143, Control_c, 0, 64, 62
2, 49162, Control_c, 0, 64, 63
2, 49181, Control_c, 0, 64, 64
2, 49200, Control_c, 0, 64, 64
2, 49219, Control_c, 0, 64, 66
2, 49237, Control_c, 0, 64, 67
2, 49256, Control_c, 0, 64, 69
2, 49276, Control_c, 0, 64, 72
2, 49295, Control_c, 0, 64, 77
2, 49314, Control_c, 0, 64, 82
2, 49320, Note_on_c, 0, 73, 0
2, 49333, Control_c, 0, 64, 88
2, 49344, Note_on_c, 0, 77, 0
2, 49353, Control_c, 0, 64, 91
2, 49372, Control_c, 0, 64, 93
2, 49410, Control_c, 0, 64, 93
2, 49448, Control_c, 0, 64, 94
2, 49485, Note_on_c, 0, 65, 0
2, 49525, Control_c, 0, 64, 93
2, 49545, Control_c, 0, 64, 93
2, 49564, Control_c, 0, 64, 92
2, 49583, Control_c, 0, 64, 91
2, 49599, Note_on_c, 0, 78, 67
2, 49602, Control_c, 0, 64, 90
2, 49621, Note_on_c, 0, 58, 0
2, 49622, Control_c, 0, 64, 88
2, 49624, Note_on_c, 0, 61, 0
2, 49641, Control_c, 0, 64, 84
2, 49660, Control_c, 0, 64, 75
2, 49679, Control_c, 0, 64, 67
2, 49699, Control_c, 0, 64, 61
2, 49736, Control_c, 0, 64, 63
2, 49756, Control_c, 0, 64, 63
2, 49775, Control_c, 0, 64, 64
2, 49794, Control_c, 0, 64, 65
2, 49802, Note_on_c, 0, 77, 58
2, 49809, Note_on_c, 0, 70, 0
2, 49813, Control_c, 0, 64, 67
2, 49833, Control_c, 0, 64, 68
2, 49852, Control_c, 0, 64, 68
2, 49871, Control_c, 0, 64, 69
2, 49934, Note_on_c, 0, 58, 38
2, 49936, Note_on_c, 0, 78, 0
2, 49957, Note_on_c, 0, 75, 62
2, 49967, Control_c, 0, 64, 68
2, 49987, Control_c, 0, 64, 67
2, 50005, Control_c, 0, 64, 65
2, 50024, Note_on_c, 0, 61, 31
2, 50025, Control_c, 0, 64, 61
2, 50044, Control_c, 0, 64, 56
2, 50048, Note_on_c, 0, 77, 0
2, 50063, Control_c, 0, 64, 57
2, 50070, Note_on_c, 0, 73, 60
2, 50082, Control_c, 0, 64, 61
2, 50102, Control_c, 0, 64, 63
2, 50115, Note_on_c, 0, 65, 31
2, 50120, Note_on_c, 0, 75, 0
2, 50121, Control_c, 0, 64, 65
2, 50140, Control_c, 0, 64, 68
2, 50159, Control_c, 0, 64, 72
2, 50168, Note_on_c, 0, 73, 0
2, 50180, Control_c, 0, 64, 79
2, 50183, Note_on_c, 0, 72, 64
2, 50198, Control_c, 0, 64, 86
2, 50217, Control_c, 0, 64, 90
2, 50256, Control_c, 0, 64, 90
2, 50284, Note_on_c, 0, 72, 0
2, 50294, Control_c, 0, 64, 89
2, 50314, Control_c, 0, 64, 89
2, 50326, Note_on_c, 0, 70, 59
2, 50332, Control_c, 0, 64, 88
2, 50391, Control_c, 0, 64, 88
2, 50409, Control_c, 0, 64, 86
2, 50429, Control_c, 0, 64, 83
2, 50436, Note_on_c, 0, 68, 61
2, 50448, Control_c, 0, 64, 81
2, 50468, Control_c, 0, 64, 78
2, 50484, Note_on_c, 0, 70, 0
2, 50486, Control_c, 0, 64, 73
2, 50506, Control_c, 0, 64, 68
2, 50525, Control_c, 0, 64, 63
2, 50544, Control_c, 0, 64, 57
2, 50563, Control_c, 0, 64, 52
2, 50582, Note_on_c, 0, 66, 64
2, 50583, Control_c, 0, 64, 44
2, 50591, Note_on_c, 0, 68, 0
2, 50602, Control_c, 0, 64, 31
2, 50621, Control_c, 0, 64, 19
2, 50640, Control_c, 0, 64, 15
2, 50678, Control_c, 0, 64, 23
2, 50697, Control_c, 0, 64, 40
2, 50717, Control_c, 0, 64, 53
2, 50718, Note_on_c, 0, 65, 0
2, 50736, Control_c, 0, 64, 60
2, 50755, Control_c, 0, 64, 62
2, 50774, Control_c, 0, 64, 64
2, 50794, Control_c, 0, 64, 65
2, 50812, Control_c, 0, 64, 66
2, 50832, Control_c, 0, 64, 68
2, 50850, Note_on_c, 0, 58, 0
2, 50851, Control_c, 0, 64, 70
2, 50860, Note_on_c, 0, 61, 0
2, 50871, Control_c, 0, 64, 74
2, 50889, Control_c, 0, 64, 78
2, 50909, Control_c, 0, 64, 81
2, 50928, Control_c, 0, 64, 83
2, 50945, Note_on_c, 0, 68, 63
2, 50948, Control_c, 0, 64, 83
2, 50961, Note_on_c, 0, 66, 0
2, 50986, Control_c, 0, 64, 84
2, 51050, Note_on_c, 0, 65, 58
2, 51063, Control_c, 0, 64, 83
2, 51073, Note_on_c, 0, 68, 0
2, 51082, Control_c, 0, 64, 82
2, 51101, Control_c, 0, 64, 82
2, 51102, Note_on_c, 0, 65, 0
2, 51120, Control_c, 0, 64, 80
2, 51135, Control_c, 0, 64, 78
2, 51135, Note_on_c, 0, 51, 37
2, 51155, Control_c, 0, 64, 78
2, 51173, Control_c, 0, 64, 77
2, 51193, Control_c, 0, 64, 77
2, 51204, Note_on_c, 0, 58, 41
2, 51212, Control_c, 0, 64, 76
2, 51232, Control_c, 0, 64, 74
2, 51241, Note_on_c, 0, 61, 32
2, 51250, Control_c, 0, 64, 73
2, 51270, Control_c, 0, 64, 70
2, 51289, Control_c, 0, 64, 67
2, 51289, Note_on_c, 0, 63, 50
2, 51300, Note_on_c, 0, 66, 52
2, 51308, Control_c, 0, 64, 63
2, 51327, Control_c, 0, 64, 58
2, 51347, Control_c, 0, 64, 47
2, 51366, Control_c, 0, 64, 36
2, 51385, Control_c, 0, 64, 26
2, 51404, Control_c, 0, 64, 17
2, 51424, Control_c, 0, 64, 0
2, 51653, Control_c, 0, 64, 18
2, 51676, Control_c, 0, 64, 36
2, 51695, Control_c, 0, 64, 48
2, 51714, Control_c, 0, 64, 55
2, 51733, Control_c, 0, 64, 58
2, 51753, Control_c, 0, 64, 60
2, 51772, Control_c, 0, 64, 61
2, 51791, Control_c, 0, 64, 62
2, 51810, Control_c, 0, 64, 63
2, 51830, Control_c, 0, 64, 64
2, 51848, Control_c, 0, 64, 65
2, 51868, Control_c, 0, 64, 67
2, 51887, Control_c, 0, 64, 68
2, 51907, Control_c, 0, 64, 70
2, 51925, Control_c, 0, 64, 73
2, 51939, Note_on_c, 0, 63, 0
2, 51945, Control_c, 0, 64, 76
2, 51964, Control_c, 0, 64, 79
2, 51967, Note_on_c, 0, 66, 0
2, 51983, Control_c, 0, 64, 82
2, 52002, Control_c, 0, 64, 84
2, 52022, Control_c, 0, 64, 85
2, 52136, Control_c, 0, 64, 84
2, 52175, Control_c, 0, 64, 84
2, 52213, Control_c, 0, 64, 83
2, 52233, Control_c, 0, 64, 82
2, 52252, Control_c, 0, 64, 82
2, 52271, Control_c, 0, 64, 81
2, 52272, Note_on_c, 0, 51, 0
2, 52274, Note_on_c, 0, 58, 0
2, 52290, Control_c, 0, 64, 81
2, 52310, Control_c, 0, 64, 80
2, 52310, Note_on_c, 0, 61, 0
2, 52318, Note_on_c, 0, 70, 59
2, 52328, Control_c, 0, 64, 79
2, 52348, Control_c, 0, 64, 78
2, 52367, Control_c, 0, 64, 78
2, 52387, Control_c, 0, 64, 77
2, 52405, Control_c, 0, 64, 77
2, 52425, Control_c, 0, 64, 76
2, 52444, Control_c, 0, 64, 75
2, 52450, Note_on_c, 0, 73, 55
2, 52457, Note_on_c, 0, 51, 31
2, 52463, Control_c, 0, 64, 74
2, 52482, Control_c, 0, 64, 73
2, 52492, Note_on_c, 0, 70, 0
2, 52502, Control_c, 0, 64, 72
2, 52521, Control_c, 0, 64, 72
2, 52540, Control_c, 0, 64, 70
2, 52559, Control_c, 0, 64, 69
2, 52562, Note_on_c, 0, 58, 32
2, 52579, Control_c, 0, 64, 68
2, 52597, Note_on_c, 0, 60, 32
2, 52598, Control_c, 0, 64, 67
2, 52616, Control_c, 0, 64, 66
2, 52636, Control_c, 0, 64, 64
2, 52655, Control_c, 0, 64, 61
2, 52674, Control_c, 0, 64, 55
2, 52681, Note_on_c, 0, 78, 61
2, 52693, Control_c, 0, 64, 48
2, 52713, Control_c, 0, 64, 45
2, 52732, Control_c, 0, 64, 41
2, 52732, Note_on_c, 0, 73, 0
2, 52751, Control_c, 0, 64, 36
2, 52770, Control_c, 0, 64, 32
2, 52790, Control_c, 0, 64, 28
2, 52808, Control_c, 0, 64, 26
2, 52828, Control_c, 0, 64, 25
2, 52867, Control_c, 0, 64, 24
2, 53077, Control_c, 0, 64, 27
2, 53095, Control_c, 0, 64, 31
2, 53115, Control_c, 0, 64, 40
2, 53134, Control_c, 0, 64, 48
2, 53153, Control_c, 0, 64, 55
2, 53172, Control_c, 0, 64, 59
2, 53192, Control_c, 0, 64, 61
2, 53211, Control_c, 0, 64, 62
2, 53230, Control_c, 0, 64, 64
2, 53249, Control_c, 0, 64, 66
2, 53269, Control_c, 0, 64, 68
2, 53287, Control_c, 0, 64, 72
2, 53307, Control_c, 0, 64, 77
2, 53326, Control_c, 0, 64, 83
2, 53346, Control_c, 0, 64, 89
2, 53353, Note_on_c, 0, 78, 0
2, 53364, Control_c, 0, 64, 93
2, 53384, Control_c, 0, 64, 94
2, 53427, Note_on_c, 0, 51, 0
2, 53433, Note_on_c, 0, 60, 0
2, 53438, Note_on_c, 0, 77, 55
2, 53465, Note_on_c, 0, 58, 0
2, 53499, Control_c, 0, 64, 94
2, 53518, Control_c, 0, 64, 93
2, 53537, Control_c, 0, 64, 92
2, 53557, Control_c, 0, 64, 91
2, 53575, Control_c, 0, 64, 90
2, 53581, Note_on_c, 0, 75, 71
2, 53596, Control_c, 0, 64, 89
2, 53615, Control_c, 0, 64, 87
2, 53634, Control_c, 0, 64, 86
2, 53646, Note_on_c, 0, 77, 0
2, 53653, Control_c, 0, 64, 84
2, 53673, Control_c, 0, 64, 82
2, 53692, Control_c, 0, 64, 80
2, 53707, Note_on_c, 0, 51, 37
2, 53711, Control_c, 0, 64, 78
2, 53718, Note_on_c, 0, 73, 66
2, 53730, Control_c, 0, 64, 76
2, 53750, Control_c, 0, 64, 74
2, 53768, Control_c, 0, 64, 71
2, 53788, Control_c, 0, 64, 69
2, 53791, Note_on_c, 0, 75, 0
2, 53799, Note_on_c, 0, 58, 33
2, 53807, Control_c, 0, 64, 66
2, 53827, Control_c, 0, 64, 63
2, 53845, Control_c, 0, 64, 59
2, 53865, Control_c, 0, 64, 55
2, 53872, Note_on_c, 0, 60, 31
2, 53884, Control_c, 0, 64, 51
2, 53896, Note_on_c, 0, 72, 62
2, 53903, Control_c, 0, 64, 48
2, 53906, Note_on_c, 0, 73, 0
2, 53922, Control_c, 0, 64, 45
2, 53942, Control_c, 0, 64, 42
2, 53961, Control_c, 0, 64, 41
2, 53980, Control_c, 0, 64, 40
2, 54016, Control_c, 0, 64, 39
2, 54189, Control_c, 0, 64, 40
2, 54208, Control_c, 0, 64, 41
2, 54216, Note_on_c, 0, 72, 0
2, 54228, Control_c, 0, 64, 43
2, 54247, Control_c, 0, 64, 46
2, 54266, Control_c, 0, 64, 49
2, 54275, Note_on_c, 0, 75, 42
2, 54285, Control_c, 0, 64, 51
2, 54305, Control_c, 0, 64, 53
2, 54323, Control_c, 0, 64, 54
2, 54330, Note_on_c, 0, 73, 51
2, 54360, Note_on_c, 0, 75, 0
2, 54400, Control_c, 0, 64, 54
2, 54419, Note_on_c, 0, 72, 51
2, 54420, Control_c, 0, 64, 55
2, 54428, Note_on_c, 0, 73, 0
2, 54439, Control_c, 0, 64, 55
2, 54457, Control_c, 0, 64, 57
2, 54477, Control_c, 0, 64, 59
2, 54496, Control_c, 0, 64, 59
2, 54516, Control_c, 0, 64, 60
2, 54534, Control_c, 0, 64, 61
2, 54543, Note_on_c, 0, 72, 0
2, 54555, Control_c, 0, 64, 62
2, 54563, Note_on_c, 0, 73, 56
2, 54574, Control_c, 0, 64, 63
2, 54593, Control_c, 0, 64, 64
2, 54612, Control_c, 0, 64, 65
2, 54632, Control_c, 0, 64, 66
2, 54651, Control_c, 0, 64, 67
2, 54670, Control_c, 0, 64, 68
2, 54679, Note_on_c, 0, 51, 0
2, 54689, Control_c, 0, 64, 69
2, 54690, Note_on_c, 0, 75, 56
2, 54696, Note_on_c, 0, 73, 0
2, 54709, Control_c, 0, 64, 71
2, 54727, Control_c, 0, 64, 73
2, 54747, Control_c, 0, 64, 74
2, 54755, Note_on_c, 0, 58, 0
2, 54756, Note_on_c, 0, 75, 0
2, 54774, Note_on_c, 0, 60, 0
2, 54804, Control_c, 0, 64, 74
2, 54879, Note_on_c, 0, 51, 36
2, 54939, Control_c, 0, 64, 74
2, 54958, Control_c, 0, 64, 73
2, 54979, Control_c, 0, 64, 73
2, 54983, Note_on_c, 0, 57, 41
2, 54998, Control_c, 0, 64, 72
2, 55003, Note_on_c, 0, 65, 57
2, 55016, Control_c, 0, 64, 71
2, 55034, Note_on_c, 0, 60, 34
2, 55036, Control_c, 0, 64, 69
2, 55055, Control_c, 0, 64, 64
2, 55074, Control_c, 0, 64, 55
2, 55093, Control_c, 0, 64, 36
2, 55113, Control_c, 0, 64, 29
2, 55132, Control_c, 0, 64, 31
2, 55151, Control_c, 0, 64, 40
2, 55170, Control_c, 0, 64, 54
2, 55190, Control_c, 0, 64, 61
2, 55208, Control_c, 0, 64, 63
2, 55228, Control_c, 0, 64, 64
2, 55247, Control_c, 0, 64, 65
2, 55267, Control_c, 0, 64, 65
2, 55328, Note_on_c, 0, 67, 48
2, 55439, Control_c, 0, 64, 66
2, 55461, Note_on_c, 0, 69, 53
2, 55463, Note_on_c, 0, 67, 0
2, 55464, Note_on_c, 0, 65, 0
2, 55496, Control_c, 0, 64, 66
2, 55501, Note_on_c, 0, 69, 0
2, 55630, Note_on_c, 0, 69, 39
2, 55631, Control_c, 0, 64, 66
2, 55650, Control_c, 0, 64, 65
2, 55670, Control_c, 0, 64, 62
2, 55688, Control_c, 0, 64, 55
2, 55708, Control_c, 0, 64, 44
2, 55727, Control_c, 0, 64, 42
2, 55747, Control_c, 0, 64, 49
2, 55765, Control_c, 0, 64, 58
2, 55778, Note_on_c, 0, 69, 0
2, 55785, Control_c, 0, 64, 63
2, 55804, Control_c, 0, 64, 65
2, 55821, Note_on_c, 0, 70, 53
2, 55823, Control_c, 0, 64, 68
2, 55842, Control_c, 0, 64, 72
2, 55862, Control_c, 0, 64, 78
2, 55881, Control_c, 0, 64, 83
2, 55885, Note_on_c, 0, 70, 0
2, 55900, Control_c, 0, 64, 86
2, 55935, Control_c, 0, 64, 85
2, 55935, Note_on_c, 0, 69, 49
2, 55968, Note_on_c, 0, 69, 0
2, 55997, Note_on_c, 0, 57, 0
2, 55998, Note_on_c, 0, 70, 57
2, 56012, Control_c, 0, 64, 85
2, 56017, Note_on_c, 0, 60, 0
2, 56041, Note_on_c, 0, 70, 0
2, 56050, Control_c, 0, 64, 84
2, 56063, Note_on_c, 0, 51, 0
2, 56089, Control_c, 0, 64, 83
2, 56090, Note_on_c, 0, 69, 49
2, 56108, Control_c, 0, 64, 83
2, 56125, Note_on_c, 0, 69, 0
2, 56126, Note_on_c, 0, 70, 69
2, 56127, Control_c, 0, 64, 82
2, 56147, Control_c, 0, 64, 81
2, 56166, Control_c, 0, 64, 80
2, 56185, Control_c, 0, 64, 80
2, 56193, Note_on_c, 0, 70, 0
2, 56197, Note_on_c, 0, 69, 40
2, 56204, Control_c, 0, 64, 79
2, 56232, Note_on_c, 0, 69, 0
2, 56242, Control_c, 0, 64, 79
2, 56257, Note_on_c, 0, 67, 55
2, 56281, Control_c, 0, 64, 78
2, 56301, Control_c, 0, 64, 78
2, 56311, Note_on_c, 0, 67, 0
2, 56319, Control_c, 0, 64, 76
2, 56333, Note_on_c, 0, 69, 63
2, 56338, Control_c, 0, 64, 75
2, 56358, Control_c, 0, 64, 73
2, 56377, Control_c, 0, 64, 72
2, 56386, Note_on_c, 0, 49, 45
2, 56396, Control_c, 0, 64, 72
2, 56415, Control_c, 0, 64, 71
2, 56421, Note_on_c, 0, 53, 42
2, 56435, Control_c, 0, 64, 70
2, 56453, Control_c, 0, 64, 68
2, 56478, Control_c, 0, 64, 66
2, 56490, Note_on_c, 0, 69, 0
2, 56497, Control_c, 0, 64, 63
2, 56500, Note_on_c, 0, 70, 74
2, 56503, Note_on_c, 0, 58, 37
2, 56516, Control_c, 0, 64, 60
2, 56535, Control_c, 0, 64, 54
2, 56555, Control_c, 0, 64, 46
2, 56573, Control_c, 0, 64, 39
2, 56593, Control_c, 0, 64, 35
2, 56612, Control_c, 0, 64, 34
2, 56632, Control_c, 0, 64, 33
2, 56650, Control_c, 0, 64, 32
2, 56842, Control_c, 0, 64, 31
2, 56862, Control_c, 0, 64, 22
2, 56881, Control_c, 0, 64, 0
2, 57205, Control_c, 0, 64, 17
2, 57225, Control_c, 0, 64, 36
2, 57244, Control_c, 0, 64, 44
2, 57263, Control_c, 0, 64, 50
2, 57282, Control_c, 0, 64, 57
2, 57302, Control_c, 0, 64, 61
2, 57321, Control_c, 0, 64, 63
2, 57340, Control_c, 0, 64, 65
2, 57359, Control_c, 0, 64, 67
2, 57373, Note_on_c, 0, 58, 0
2, 57378, Control_c, 0, 64, 71
2, 57398, Control_c, 0, 64, 77
2, 57416, Control_c, 0, 64, 85
2, 57436, Control_c, 0, 64, 93
2, 57455, Control_c, 0, 64, 102
2, 57469, Note_on_c, 0, 53, 0
2, 57474, Control_c, 0, 64, 116
2, 57475, Note_on_c, 0, 49, 0
2, 57493, Control_c, 0, 64, 127
2, 57566, Note_on_c, 0, 65, 38
2, 57705, Control_c, 0, 64, 121
2, 57724, Control_c, 0, 64, 110
2, 57743, Control_c, 0, 64, 104
2, 57762, Control_c, 0, 64, 99
2, 57782, Control_c, 0, 64, 95
2, 57801, Control_c, 0, 64, 92
2, 57811, Note_on_c, 0, 51, 35
2, 57817, Control_c, 0, 64, 89
2, 57830, Note_on_c, 0, 66, 50
2, 57836, Control_c, 0, 64, 86
2, 57839, Note_on_c, 0, 58, 30
2, 57856, Control_c, 0, 64, 82
2, 57858, Note_on_c, 0, 65, 0
2, 57875, Control_c, 0, 64, 78
2, 57894, Control_c, 0, 64, 73
2, 57913, Control_c, 0, 64, 68
2, 57933, Control_c, 0, 64, 64
2, 57951, Control_c, 0, 64, 62
2, 57971, Control_c, 0, 64, 60
2, 57990, Control_c, 0, 64, 59
2, 58010, Control_c, 0, 64, 59
2, 58028, Control_c, 0, 64, 58
2, 58047, Control_c, 0, 64, 57
2, 58067, Control_c, 0, 64, 56
2, 58085, Control_c, 0, 64, 55
2, 58105, Control_c, 0, 64, 54
2, 58124, Control_c, 0, 64, 53
2, 58144, Control_c, 0, 64, 53
2, 58162, Control_c, 0, 64, 52
2, 58182, Control_c, 0, 64, 51
2, 58201, Control_c, 0, 64, 50
2, 58220, Control_c, 0, 64, 48
2, 58239, Control_c, 0, 64, 47
2, 58259, Control_c, 0, 64, 44
2, 58278, Control_c, 0, 64, 42
2, 58297, Control_c, 0, 64, 39
2, 58316, Control_c, 0, 64, 36
2, 58336, Control_c, 0, 64, 33
2, 58355, Control_c, 0, 64, 31
2, 58374, Control_c, 0, 64, 31
2, 58431, Control_c, 0, 64, 34
2, 58451, Control_c, 0, 64, 41
2, 58470, Control_c, 0, 64, 50
2, 58490, Control_c, 0, 64, 56
2, 58508, Control_c, 0, 64, 58
2, 58527, Control_c, 0, 64, 59
2, 58547, Control_c, 0, 64, 59
2, 58565, Control_c, 0, 64, 61
2, 58585, Control_c, 0, 64, 62
2, 58604, Control_c, 0, 64, 63
2, 58624, Control_c, 0, 64, 64
2, 58642, Control_c, 0, 64, 66
2, 58662, Control_c, 0, 64, 68
2, 58681, Control_c, 0, 64, 71
2, 58700, Control_c, 0, 64, 77
2, 58719, Control_c, 0, 64, 85
2, 58739, Control_c, 0, 64, 96
2, 58758, Control_c, 0, 64, 112
2, 58777, Control_c, 0, 64, 127
2, 58823, Note_on_c, 0, 58, 0
2, 58858, Note_on_c, 0, 63, 40
2, 58954, Note_on_c, 0, 63, 0
2, 59045, Note_on_c, 0, 66, 0
2, 59195, Note_on_c, 0, 53, 35
2, 59200, Note_on_c, 0, 51, 0
2, 59202, Note_on_c, 0, 60, 38
2, 59217, Control_c, 0, 64, 110
2, 59236, Control_c, 0, 64, 99
2, 59255, Control_c, 0, 64, 89
2, 59274, Control_c, 0, 64, 80
2, 59294, Control_c, 0, 64, 71
2, 59313, Control_c, 0, 64, 65
2, 59332, Control_c, 0, 64, 61
2, 59352, Control_c, 0, 64, 57
2, 59372, Control_c, 0, 64, 56
2, 59390, Control_c, 0, 64, 56
2, 59449, Control_c, 0, 64, 55
2, 59486, Control_c, 0, 64, 55
2, 59678, Control_c, 0, 64, 55
2, 59717, Control_c, 0, 64, 56
2, 59736, Control_c, 0, 64, 56
2, 59775, Control_c, 0, 64, 57
2, 59794, Control_c, 0, 64, 58
2, 59813, Control_c, 0, 64, 59
2, 59832, Control_c, 0, 64, 59
2, 59852, Control_c, 0, 64, 60
2, 59870, Control_c, 0, 64, 61
2, 59890, Control_c, 0, 64, 61
2, 59909, Control_c, 0, 64, 62
2, 59929, Control_c, 0, 64, 63
2, 59947, Control_c, 0, 64, 63
2, 59966, Control_c, 0, 64, 64
2, 59986, Control_c, 0, 64, 65
2, 60004, Control_c, 0, 64, 66
2, 60024, Control_c, 0, 64, 67
2, 60043, Control_c, 0, 64, 70
2, 60063, Control_c, 0, 64, 74
2, 60081, Control_c, 0, 64, 80
2, 60101, Control_c, 0, 64, 85
2, 60115, Note_on_c, 0, 61, 45
2, 60120, Control_c, 0, 64, 90
2, 60140, Control_c, 0, 64, 91
2, 60158, Control_c, 0, 64, 92
2, 60169, Note_on_c, 0, 60, 0
2, 60197, Control_c, 0, 64, 92
2, 60216, Control_c, 0, 64, 93
2, 60396, Note_on_c, 0, 61, 0
2, 60436, Note_on_c, 0, 60, 51
2, 60523, Control_c, 0, 64, 92
2, 60561, Control_c, 0, 64, 92
2, 60581, Control_c, 0, 64, 91
2, 60600, Control_c, 0, 64, 91
2, 60613, Note_on_c, 0, 53, 0
2, 60620, Control_c, 0, 64, 90
2, 60638, Control_c, 0, 64, 89
2, 60643, Note_on_c, 0, 61, 54
2, 60658, Control_c, 0, 64, 88
2, 60677, Control_c, 0, 64, 88
2, 60696, Control_c, 0, 64, 87
2, 60715, Control_c, 0, 64, 86
2, 60735, Control_c, 0, 64, 85
2, 60754, Control_c, 0, 64, 84
2, 60773, Control_c, 0, 64, 84
2, 60792, Control_c, 0, 64, 83
2, 60812, Control_c, 0, 64, 81
2, 60823, Note_on_c, 0, 53, 31
2, 60830, Control_c, 0, 64, 78
2, 60830, Note_on_c, 0, 41, 41
2, 60842, Note_on_c, 0, 61, 0
2, 60850, Control_c, 0, 64, 74
2, 60869, Control_c, 0, 64, 68
2, 60877, Note_on_c, 0, 63, 53
2, 60889, Control_c, 0, 64, 63
2, 60900, Note_on_c, 0, 60, 0
2, 60907, Control_c, 0, 64, 57
2, 60926, Control_c, 0, 64, 55
2, 60946, Control_c, 0, 64, 56
2, 60964, Control_c, 0, 64, 56
2, 60984, Control_c, 0, 64, 58
2, 61003, Control_c, 0, 64, 59
2, 61023, Control_c, 0, 64, 61
2, 61029, Note_on_c, 0, 61, 46
2, 61041, Control_c, 0, 64, 62
2, 61061, Control_c, 0, 64, 63
2, 61080, Control_c, 0, 64, 64
2, 61100, Control_c, 0, 64, 65
2, 61118, Control_c, 0, 64, 66
2, 61126, Note_on_c, 0, 63, 0
2, 61137, Note_on_c, 0, 61, 0
2, 61157, Control_c, 0, 64, 66
2, 61170, Note_on_c, 0, 60, 51
2, 61176, Control_c, 0, 64, 67
2, 61195, Control_c, 0, 64, 68
2, 61215, Control_c, 0, 64, 68
2, 61234, Control_c, 0, 64, 69
2, 61300, Note_on_c, 0, 61, 58
2, 61302, Note_on_c, 0, 60, 0
2, 61370, Control_c, 0, 64, 68
2, 61388, Control_c, 0, 64, 67
2, 61407, Control_c, 0, 64, 65
2, 61427, Control_c, 0, 64, 63
2, 61442, Note_on_c, 0, 63, 58
2, 61445, Control_c, 0, 64, 63
2, 61461, Note_on_c, 0, 61, 0
2, 61484, Control_c, 0, 64, 63
2, 61504, Control_c, 0, 64, 65
2, 61522, Control_c, 0, 64, 66
2, 61542, Control_c, 0, 64, 67
2, 61561, Control_c, 0, 64, 69
2, 61571, Note_on_c, 0, 63, 0
2, 61580, Control_c, 0, 64, 70
2, 61596, Note_on_c, 0, 65, 62
2, 61599, Control_c, 0, 64, 72
2, 61619, Control_c, 0, 64, 75
2, 61638, Control_c, 0, 64, 77
2, 61657, Control_c, 0, 64, 78
2, 61676, Control_c, 0, 64, 79
2, 61741, Note_on_c, 0, 65, 0
2, 61745, Note_on_c, 0, 63, 66
2, 61751, Control_c, 0, 64, 80
2, 61771, Control_c, 0, 64, 81
2, 61790, Control_c, 0, 64, 81
2, 61809, Control_c, 0, 64, 82
2, 61828, Control_c, 0, 64, 82
2, 61860, Note_on_c, 0, 53, 0
2, 61866, Note_on_c, 0, 41, 0
2, 61883, Note_on_c, 0, 65, 69
2, 61920, Note_on_c, 0, 63, 0
2, 61952, Note_on_c, 0, 70, 0
2, 61981, Note_on_c, 0, 65, 0
2, 62059, Control_c, 0, 64, 82
2, 62097, Control_c, 0, 64, 81
2, 62127, Note_on_c, 0, 41, 27
2, 62173, Note_on_c, 0, 53, 39
2, 62174, Control_c, 0, 64, 81
2, 62212, Control_c, 0, 64, 80
2, 62227, Note_on_c, 0, 66, 59
2, 62233, Note_on_c, 0, 69, 57
2, 62240, Note_on_c, 0, 60, 49
2, 62252, Control_c, 0, 64, 80
2, 62270, Control_c, 0, 64, 79
2, 62290, Control_c, 0, 64, 78
2, 62309, Control_c, 0, 64, 76
2, 62328, Control_c, 0, 64, 73
2, 62347, Control_c, 0, 64, 70
2, 62366, Control_c, 0, 64, 65
2, 62386, Control_c, 0, 64, 58
2, 62404, Control_c, 0, 64, 36
2, 62424, Control_c, 0, 64, 0
2, 62501, Control_c, 0, 64, 37
2, 62520, Control_c, 0, 64, 58
2, 62540, Control_c, 0, 64, 64
2, 62558, Control_c, 0, 64, 68
2, 62577, Note_on_c, 0, 66, 0
2, 62578, Control_c, 0, 64, 73
2, 62597, Control_c, 0, 64, 84
2, 62616, Control_c, 0, 64, 92
2, 62635, Control_c, 0, 64, 96
2, 62655, Control_c, 0, 64, 97
2, 62674, Control_c, 0, 64, 98
2, 62693, Control_c, 0, 64, 99
2, 62712, Control_c, 0, 64, 100
2, 62732, Control_c, 0, 64, 100
2, 62817, Note_on_c, 0, 65, 48
2, 62857, Note_on_c, 0, 65, 0
2, 62866, Control_c, 0, 64, 100
2, 62868, Note_on_c, 0, 66, 59
2, 62884, Control_c, 0, 64, 99
2, 62904, Control_c, 0, 64, 97
2, 62923, Control_c, 0, 64, 94
2, 62936, Note_on_c, 0, 66, 0
2, 62943, Control_c, 0, 64, 91
2, 62958, Note_on_c, 0, 65, 60
2, 62961, Control_c, 0, 64, 87
2, 62981, Control_c, 0, 64, 81
2, 63000, Control_c, 0, 64, 73
2, 63020, Control_c, 0, 64, 65
2, 63038, Control_c, 0, 64, 59
2, 63058, Control_c, 0, 64, 53
2, 63077, Control_c, 0, 64, 50
2, 63096, Control_c, 0, 64, 49
2, 63135, Control_c, 0, 64, 50
2, 63154, Control_c, 0, 64, 52
2, 63173, Control_c, 0, 64, 56
2, 63192, Control_c, 0, 64, 59
2, 63212, Control_c, 0, 64, 61
2, 63230, Control_c, 0, 64, 63
2, 63250, Control_c, 0, 64, 65
2, 63269, Control_c, 0, 64, 67
2, 63288, Control_c, 0, 64, 73
2, 63307, Control_c, 0, 64, 84
2, 63326, Control_c, 0, 64, 100
2, 63346, Control_c, 0, 64, 127
2, 63374, Note_on_c, 0, 41, 0
2, 63460, Note_on_c, 0, 53, 0
2, 63697, Note_on_c, 0, 63, 40
2, 63697, Note_on_c, 0, 65, 0
2, 63708, Note_on_c, 0, 69, 0
2, 63711, Note_on_c, 0, 60, 0
2, 63743, Note_on_c, 0, 63, 0
2, 63998, Control_c, 0, 64, 123
2, 64018, Control_c, 0, 64, 112
2, 64022, Note_on_c, 0, 70, 52
2, 64023, Note_on_c, 0, 53, 38
2, 64025, Note_on_c, 0, 61, 45
2, 64027, Note_on_c, 0, 58, 37
2, 64030, Note_on_c, 0, 46, 34
2, 64037, Control_c, 0, 64, 101
2, 64056, Control_c, 0, 64, 90
2, 64075, Control_c, 0, 64, 78
2, 64095, Control_c, 0, 64, 67
2, 64114, Control_c, 0, 64, 56
2, 64133, Control_c, 0, 64, 44
2, 64153, Control_c, 0, 64, 41
2, 64173, Control_c, 0, 64, 40
2, 64441, Control_c, 0, 64, 41
2, 64460, Control_c, 0, 64, 41
2, 64479, Control_c, 0, 64, 42
2, 64499, Control_c, 0, 64, 44
2, 64518, Control_c, 0, 64, 47
2, 64537, Control_c, 0, 64, 51
2, 64556, Control_c, 0, 64, 55
2, 64575, Control_c, 0, 64, 58
2, 64594, Control_c, 0, 64, 60
2, 64606, Note_on_c, 0, 61, 0
2, 64613, Control_c, 0, 64, 62
2, 64632, Control_c, 0, 64, 63
2, 64652, Control_c, 0, 64, 65
2, 64670, Control_c, 0, 64, 67
2, 64690, Control_c, 0, 64, 71
2, 64709, Control_c, 0, 64, 77
2, 64728, Control_c, 0, 64, 85
2, 64747, Control_c, 0, 64, 94
2, 64766, Control_c, 0, 64, 101
2, 64786, Control_c, 0, 64, 107
2, 64804, Control_c, 0, 64, 113
2, 64824, Control_c, 0, 64, 116
2, 64843, Control_c, 0, 64, 117
2, 64863, Control_c, 0, 64, 119
2, 64881, Control_c, 0, 64, 127
2, 64937, Note_on_c, 0, 72, 54
2, 64949, Note_on_c, 0, 63, 45
2, 64992, Note_on_c, 0, 70, 0
2, 65000, Note_on_c, 0, 63, 0
2, 65000, Note_on_c, 0, 72, 0
2, 65074, Control_c, 0, 64, 123
2, 65093, Control_c, 0, 64, 119
2, 65114, Control_c, 0, 64, 116
2, 65134, Control_c, 0, 64, 112
2, 65152, Control_c, 0, 64, 109
2, 65172, Control_c, 0, 64, 106
2, 65191, Control_c, 0, 64, 102
2, 65210, Control_c, 0, 64, 100
2, 65229, Control_c, 0, 64, 99
2, 65248, Control_c, 0, 64, 97
2, 65268, Control_c, 0, 64, 96
2, 65283, Note_on_c, 0, 65, 37
2, 65286, Control_c, 0, 64, 93
2, 65291, Note_on_c, 0, 70, 46
2, 65306, Control_c, 0, 64, 89
2, 65325, Control_c, 0, 64, 86
2, 65333, Note_on_c, 0, 73, 49
2, 65345, Control_c, 0, 64, 82
2, 65363, Control_c, 0, 64, 76
2, 65383, Control_c, 0, 64, 69
2, 65402, Control_c, 0, 64, 64
2, 65421, Control_c, 0, 64, 57
2, 65440, Control_c, 0, 64, 54
2, 65460, Control_c, 0, 64, 52
2, 65630, Control_c, 0, 64, 53
2, 65650, Control_c, 0, 64, 54
2, 65669, Control_c, 0, 64, 54
2, 65688, Control_c, 0, 64, 55
2, 65726, Control_c, 0, 64, 55
2, 65746, Control_c, 0, 64, 56
2, 65778, Note_on_c, 0, 53, 0
2, 65803, Control_c, 0, 64, 56
2, 65880, Control_c, 0, 64, 57
2, 65918, Control_c, 0, 64, 57
2, 65938, Control_c, 0, 64, 58
2, 65957, Control_c, 0, 64, 59
2, 65957, Control_c, 0, 67, 127
2, 65976, Control_c, 0, 64, 61
2, 65976, Control_c, 0, 67, 123
2, 65995, Control_c, 0, 64, 62
2, 65995, Control_c, 0, 67, 119
2, 66015, Control_c, 0, 64, 63
2, 66015, Control_c, 0, 67, 115
2, 66034, Control_c, 0, 64, 64
2, 66034, Control_c, 0, 67, 111
2, 66053, Control_c, 0, 64, 65
2, 66053, Control_c, 0, 67, 109
2, 66072, Control_c, 0, 64, 66
2, 66072, Control_c, 0, 67, 107
2, 66092, Control_c, 0, 64, 67
2, 66092, Control_c, 0, 67, 106
2, 66110, Control_c, 0, 64, 69
2, 66110, Control_c, 0, 67, 105
2, 66110, Note_on_c, 0, 58, 0
2, 66128, Note_on_c, 0, 46, 0
2, 66130, Control_c, 0, 64, 72
2, 66130, Control_c, 0, 67, 104
2, 66149, Control_c, 0, 64, 76
2, 66168, Control_c, 0, 64, 81
2, 66168, Control_c, 0, 67, 104
2, 66187, Control_c, 0, 64, 85
2, 66206, Control_c, 0, 64, 86
2, 66226, Control_c, 0, 64, 87
2, 66321, Control_c, 0, 64, 86
2, 66342, Note_on_c, 0, 65, 0
2, 66360, Control_c, 0, 64, 86
2, 66363, Note_on_c, 0, 70, 0
2, 66380, Control_c, 0, 64, 85
2, 66384, Note_on_c, 0, 73, 0
2, 66398, Control_c, 0, 64, 85
2, 66401, Note_on_c, 0, 46, 57
2, 66418, Control_c, 0, 64, 84
2, 66437, Control_c, 0, 64, 83
2, 66437, Control_c, 0, 67, 104
2, 66456, Control_c, 0, 64, 83
2, 66475, Control_c, 0, 64, 82
2, 66495, Control_c, 0, 64, 82
2, 66514, Control_c, 0, 64, 81
2, 66533, Control_c, 0, 64, 81
2, 66552, Control_c, 0, 64, 80
2, 66610, Control_c, 0, 64, 80
2, 66629, Control_c, 0, 64, 79
2, 66653, Note_on_c, 0, 65, 17
2, 66688, Note_on_c, 0, 49, 68
2, 66697, Note_on_c, 0, 70, 49
2, 66706, Control_c, 0, 64, 78
2, 66711, Note_on_c, 0, 73, 56
2, 66712, Note_on_c, 0, 46, 0
2, 66724, Control_c, 0, 64, 76
2, 66744, Control_c, 0, 64, 73
2, 66763, Control_c, 0, 64, 69
2, 66783, Control_c, 0, 64, 64
2, 66801, Control_c, 0, 64, 61
2, 66821, Control_c, 0, 64, 55
2, 66840, Control_c, 0, 64, 49
2, 66860, Control_c, 0, 64, 45
2, 66878, Control_c, 0, 64, 45
2, 66917, Control_c, 0, 64, 45
2, 66936, Control_c, 0, 64, 46
2, 66955, Control_c, 0, 64, 48
2, 66975, Control_c, 0, 64, 49
2, 66994, Control_c, 0, 64, 51
2, 66994, Control_c, 0, 67, 104
2, 67013, Control_c, 0, 64, 53
2, 67013, Control_c, 0, 67, 103
2, 67032, Control_c, 0, 64, 54
2, 67052, Control_c, 0, 64, 56
2, 67070, Control_c, 0, 64, 57
2, 67070, Control_c, 0, 67, 102
2, 67090, Control_c, 0, 64, 58
2, 67090, Control_c, 0, 67, 101
2, 67109, Control_c, 0, 64, 59
2, 67109, Control_c, 0, 67, 101
2, 67128, Control_c, 0, 64, 60
2, 67128, Control_c, 0, 67, 97
2, 67147, Control_c, 0, 64, 61
2, 67147, Control_c, 0, 67, 92
2, 67166, Control_c, 0, 64, 61
2, 67166, Control_c, 0, 67, 88
2, 67186, Control_c, 0, 64, 62
2, 67186, Control_c, 0, 67, 84
2, 67204, Control_c, 0, 64, 63
2, 67204, Control_c, 0, 67, 82
2, 67224, Control_c, 0, 64, 64
2, 67243, Control_c, 0, 64, 65
2, 67263, Control_c, 0, 64, 66
2, 67281, Control_c, 0, 64, 67
2, 67281, Control_c, 0, 67, 82
2, 67301, Control_c, 0, 64, 68
2, 67301, Control_c, 0, 67, 83
2, 67320, Control_c, 0, 64, 69
2, 67320, Control_c, 0, 67, 83
2, 67340, Control_c, 0, 64, 70
2, 67340, Control_c, 0, 67, 84
2, 67358, Control_c, 0, 64, 70
2, 67378, Control_c, 0, 64, 71
2, 67416, Control_c, 0, 64, 72
2, 67435, Control_c, 0, 64, 72
2, 67455, Control_c, 0, 64, 73
2, 67455, Control_c, 0, 67, 84
2, 67474, Control_c, 0, 64, 75
2, 67493, Control_c, 0, 64, 79
2, 67512, Control_c, 0, 64, 83
2, 67512, Control_c, 0, 67, 85
2, 67532, Control_c, 0, 64, 87
2, 67550, Control_c, 0, 64, 90
2, 67569, Control_c, 0, 64, 91
2, 67608, Control_c, 0, 64, 91
2, 67627, Control_c, 0, 64, 93
2, 67627, Control_c, 0, 67, 85
2, 67627, Note_on_c, 0, 53, 68
2, 67646, Control_c, 0, 64, 95
2, 67666, Control_c, 0, 64, 96
2, 67704, Control_c, 0, 67, 86
2, 67710, Note_on_c, 0, 49, 0
2, 67723, Control_c, 0, 64, 96
2, 67743, Control_c, 0, 67, 86
2, 67771, Note_on_c, 0, 53, 0
2, 67791, Note_on_c, 0, 65, 0
2, 67820, Control_c, 0, 64, 96
2, 67841, Note_on_c, 0, 70, 0
2, 67877, Control_c, 0, 64, 95
2, 67886, Note_on_c, 0, 73, 0
2, 67896, Control_c, 0, 64, 95
2, 67935, Control_c, 0, 64, 94
2, 67973, Control_c, 0, 64, 93
2, 67993, Control_c, 0, 64, 92
2, 68013, Control_c, 0, 64, 91
2, 68031, Control_c, 0, 64, 90
2, 68051, Control_c, 0, 64, 89
2, 68070, Control_c, 0, 64, 89
2, 68089, Control_c, 0, 64, 88
2, 68106, Note_on_c, 0, 43, 66
2, 68108, Control_c, 0, 64, 86
2, 68127, Control_c, 0, 64, 85
2, 68147, Control_c, 0, 64, 84
2, 68150, Note_on_c, 0, 73, 54
2, 68161, Note_on_c, 0, 70, 52
2, 68165, Control_c, 0, 64, 82
2, 68171, Note_on_c, 0, 64, 44
2, 68185, Control_c, 0, 64, 80
2, 68204, Control_c, 0, 64, 76
2, 68224, Control_c, 0, 64, 69
2, 68242, Control_c, 0, 64, 61
2, 68262, Control_c, 0, 64, 50
2, 68281, Control_c, 0, 64, 46
2, 68300, Control_c, 0, 64, 46
2, 68319, Control_c, 0, 64, 46
2, 68339, Control_c, 0, 67, 87
2, 68377, Control_c, 0, 67, 87
2, 68531, Control_c, 0, 67, 88
2, 68550, Control_c, 0, 67, 89
2, 68569, Control_c, 0, 64, 47
2, 68588, Control_c, 0, 64, 48
2, 68588, Control_c, 0, 67, 90
2, 68607, Control_c, 0, 64, 49
2, 68607, Control_c, 0, 67, 91
2, 68627, Control_c, 0, 64, 51
2, 68627, Control_c, 0, 67, 93
2, 68645, Control_c, 0, 64, 54
2, 68645, Control_c, 0, 67, 95
2, 68665, Control_c, 0, 64, 57
2, 68665, Control_c, 0, 67, 96
2, 68684, Control_c, 0, 64, 59
2, 68684, Control_c, 0, 67, 97
2, 68704, Control_c, 0, 64, 61
2, 68704, Control_c, 0, 67, 99
2, 68722, Control_c, 0, 64, 63
2, 68722, Control_c, 0, 67, 101
2, 68742, Control_c, 0, 64, 64
2, 68742, Control_c, 0, 67, 104
2, 68761, Control_c, 0, 64, 66
2, 68761, Control_c, 0, 67, 106
2, 68780, Control_c, 0, 64, 71
2, 68780, Control_c, 0, 67, 111
2, 68799, Control_c, 0, 64, 78
2, 68799, Control_c, 0, 67, 116
2, 68819, Control_c, 0, 64, 90
2, 68819, Control_c, 0, 67, 120
2, 68838, Control_c, 0, 64, 104
2, 68838, Control_c, 0, 67, 124
2, 68857, Control_c, 0, 64, 119
2, 68857, Control_c, 0, 67, 127
2, 68876, Control_c, 0, 64, 127
2, 68886, Note_on_c, 0, 73, 0
2, 68975, Note_on_c, 0, 70, 0
2, 69115, Note_on_c, 0, 71, 53
2, 69223, Note_on_c, 0, 70, 63
2, 69227, Note_on_c, 0, 71, 0
2, 69248, Note_on_c, 0, 64, 0
2, 69266, Note_on_c, 0, 70, 0
2, 69356, Control_c, 0, 64, 123
2, 69376, Control_c, 0, 64, 114
2, 69393, Control_c, 0, 64, 110
2, 69412, Control_c, 0, 64, 107
2, 69418, Note_on_c, 0, 76, 56
2, 69431, Control_c, 0, 64, 103
2, 69441, Note_on_c, 0, 73, 43
2, 69442, Note_on_c, 0, 70, 44
2, 69451, Control_c, 0, 64, 98
2, 69470, Control_c, 0, 64, 88
2, 69488, Control_c, 0, 64, 78
2, 69508, Control_c, 0, 64, 68
2, 69527, Control_c, 0, 64, 62
2, 69546, Control_c, 0, 64, 56
2, 69565, Control_c, 0, 64, 56
2, 69585, Control_c, 0, 64, 56
2, 69604, Control_c, 0, 64, 57
2, 69642, Control_c, 0, 64, 58
2, 69662, Control_c, 0, 64, 58
2, 69680, Control_c, 0, 64, 59
2, 69700, Control_c, 0, 64, 59
2, 69719, Control_c, 0, 64, 60
2, 69739, Control_c, 0, 64, 60
2, 69757, Control_c, 0, 64, 61
2, 69777, Control_c, 0, 64, 62
2, 69796, Control_c, 0, 64, 62
2, 69815, Control_c, 0, 64, 63
2, 69834, Control_c, 0, 64, 64
2, 69854, Control_c, 0, 64, 64
2, 69873, Control_c, 0, 64, 65
2, 69892, Control_c, 0, 64, 66
2, 69912, Control_c, 0, 64, 68
2, 69932, Control_c, 0, 64, 70
2, 69950, Control_c, 0, 64, 72
2, 69969, Control_c, 0, 64, 76
2, 69989, Control_c, 0, 64, 79
2, 70008, Control_c, 0, 64, 81
2, 70027, Control_c, 0, 64, 81
2, 70141, Note_on_c, 0, 43, 0
2, 70154, Note_on_c, 0, 46, 55
2, 70258, Control_c, 0, 64, 81
2, 70292, Note_on_c, 0, 44, 44
2, 70298, Control_c, 0, 64, 80
2, 70336, Control_c, 0, 64, 79
2, 70343, Note_on_c, 0, 46, 0
2, 70356, Control_c, 0, 64, 79
2, 70371, Note_on_c, 0, 44, 0
2, 70374, Control_c, 0, 64, 78
2, 70378, Note_on_c, 0, 43, 55
2, 70394, Control_c, 0, 64, 78
2, 70433, Control_c, 0, 64, 77
2, 70451, Control_c, 0, 64, 76
2, 70490, Control_c, 0, 64, 76
2, 70528, Control_c, 0, 64, 75
2, 70548, Control_c, 0, 64, 73
2, 70567, Control_c, 0, 64, 71
2, 70583, Note_on_c, 0, 49, 77
2, 70586, Control_c, 0, 64, 68
2, 70605, Control_c, 0, 64, 66
2, 70625, Control_c, 0, 64, 63
2, 70643, Control_c, 0, 64, 58
2, 70646, Note_on_c, 0, 43, 0
2, 70663, Control_c, 0, 64, 50
2, 70682, Control_c, 0, 64, 43
2, 70702, Control_c, 0, 64, 39
2, 70720, Control_c, 0, 64, 38
2, 70797, Control_c, 0, 64, 39
2, 70816, Control_c, 0, 64, 42
2, 70836, Control_c, 0, 64, 44
2, 70854, Control_c, 0, 64, 49
2, 70854, Control_c, 0, 67, 127
2, 70875, Control_c, 0, 64, 52
2, 70875, Control_c, 0, 67, 124
2, 70894, Control_c, 0, 64, 55
2, 70894, Control_c, 0, 67, 121
2, 70913, Control_c, 0, 64, 58
2, 70913, Control_c, 0, 67, 120
2, 70932, Control_c, 0, 64, 60
2, 70932, Control_c, 0, 67, 119
2, 70947, Note_on_c, 0, 70, 0
2, 70952, Control_c, 0, 64, 61
2, 70952, Control_c, 0, 67, 118
2, 70971, Control_c, 0, 64, 63
2, 70971, Control_c, 0, 67, 114
2, 70990, Control_c, 0, 64, 64
2, 70990, Control_c, 0, 67, 106
2, 71009, Control_c, 0, 64, 65
2, 71009, Control_c, 0, 67, 95
2, 71029, Control_c, 0, 64, 68
2, 71029, Control_c, 0, 67, 85
2, 71032, Note_on_c, 0, 76, 0
2, 71048, Control_c, 0, 64, 71
2, 71048, Control_c, 0, 67, 73
2, 71067, Control_c, 0, 64, 78
2, 71067, Control_c, 0, 67, 63
2, 71086, Control_c, 0, 64, 86
2, 71086, Control_c, 0, 67, 53
2, 71097, Note_on_c, 0, 73, 0
2, 71106, Control_c, 0, 64, 94
2, 71106, Control_c, 0, 67, 45
2, 71124, Control_c, 0, 64, 99
2, 71124, Control_c, 0, 67, 37
2, 71144, Control_c, 0, 64, 102
2, 71144, Control_c, 0, 67, 28
2, 71163, Control_c, 0, 64, 106
2, 71163, Control_c, 0, 67, 17
2, 71183, Control_c, 0, 64, 112
2, 71183, Control_c, 0, 67, 0
2, 71201, Control_c, 0, 64, 127
2, 71345, Note_on_c, 0, 75, 73
2, 71468, Note_on_c, 0, 73, 70
2, 71470, Note_on_c, 0, 75, 0
2, 71505, Note_on_c, 0, 73, 0
2, 71753, Note_on_c, 0, 79, 84
2, 71781, Note_on_c, 0, 73, 66
2, 71783, Note_on_c, 0, 70, 68
2, 71795, Control_c, 0, 64, 104
2, 71813, Control_c, 0, 64, 81
2, 71835, Control_c, 0, 64, 67
2, 71854, Control_c, 0, 64, 57
2, 71873, Control_c, 0, 64, 52
2, 71892, Control_c, 0, 64, 53
2, 71912, Control_c, 0, 64, 55
2, 71931, Control_c, 0, 64, 56
2, 71950, Control_c, 0, 64, 58
2, 71969, Control_c, 0, 64, 60
2, 71989, Control_c, 0, 64, 61
2, 72008, Control_c, 0, 64, 61
2, 72066, Control_c, 0, 64, 62
2, 72084, Control_c, 0, 64, 62
2, 72104, Control_c, 0, 64, 63
2, 72123, Control_c, 0, 64, 63
2, 72143, Control_c, 0, 64, 64
2, 72161, Control_c, 0, 64, 64
2, 72180, Control_c, 0, 64, 65
2, 72200, Control_c, 0, 64, 66
2, 72218, Control_c, 0, 64, 67
2, 72238, Control_c, 0, 64, 69
2, 72256, Control_c, 0, 64, 71
2, 72275, Control_c, 0, 64, 75
2, 72293, Control_c, 0, 64, 80
2, 72313, Control_c, 0, 64, 85
2, 72332, Control_c, 0, 64, 89
2, 72352, Control_c, 0, 64, 90
2, 72389, Note_on_c, 0, 49, 0
2, 72443, Note_on_c, 0, 47, 61
2, 72447, Control_c, 0, 64, 89
2, 72467, Control_c, 0, 64, 86
2, 72486, Control_c, 0, 64, 80
2, 72505, Control_c, 0, 64, 70
2, 72524, Control_c, 0, 64, 65
2, 72544, Control_c, 0, 64, 65
2, 72546, Note_on_c, 0, 46, 67
2, 72563, Control_c, 0, 64, 67
2, 72578, Note_on_c, 0, 47, 0
2, 72581, Control_c, 0, 64, 70
2, 72601, Control_c, 0, 64, 75
2, 72620, Control_c, 0, 64, 81
2, 72639, Control_c, 0, 64, 85
2, 72658, Control_c, 0, 64, 86
2, 72697, Control_c, 0, 64, 85
2, 72716, Control_c, 0, 64, 84
2, 72719, Note_on_c, 0, 52, 80
2, 72735, Control_c, 0, 64, 82
2, 72755, Control_c, 0, 64, 78
2, 72773, Control_c, 0, 64, 68
2, 72794, Control_c, 0, 64, 60
2, 72813, Control_c, 0, 64, 41
2, 72833, Control_c, 0, 64, 15
2, 72851, Control_c, 0, 64, 11
2, 72871, Control_c, 0, 64, 17
2, 72890, Control_c, 0, 64, 35
2, 72909, Control_c, 0, 64, 51
2, 72928, Control_c, 0, 64, 60
2, 72948, Control_c, 0, 64, 62
2, 72967, Control_c, 0, 64, 63
2, 73005, Control_c, 0, 64, 63
2, 73043, Control_c, 0, 64, 62
2, 73063, Control_c, 0, 64, 58
2, 73082, Control_c, 0, 64, 49
2, 73101, Control_c, 0, 64, 39
2, 73120, Control_c, 0, 64, 34
2, 73137, Note_on_c, 0, 51, 74
2, 73159, Control_c, 0, 64, 37
2, 73177, Control_c, 0, 64, 49
2, 73184, Note_on_c, 0, 46, 0
2, 73197, Control_c, 0, 64, 59
2, 73215, Control_c, 0, 64, 62
2, 73223, Note_on_c, 0, 52, 0
2, 73236, Control_c, 0, 64, 63
2, 73254, Control_c, 0, 64, 63
2, 73293, Control_c, 0, 64, 64
2, 73313, Control_c, 0, 64, 65
2, 73331, Control_c, 0, 64, 67
2, 73351, Control_c, 0, 64, 69
2, 73370, Control_c, 0, 64, 70
2, 73389, Control_c, 0, 64, 73
2, 73408, Control_c, 0, 64, 76
2, 73410, Note_on_c, 0, 52, 76
2, 73428, Control_c, 0, 64, 80
2, 73447, Control_c, 0, 64, 86
2, 73466, Control_c, 0, 64, 91
2, 73485, Control_c, 0, 64, 92
2, 73491, Note_on_c, 0, 70, 0
2, 73543, Control_c, 0, 64, 93
2, 73600, Control_c, 0, 64, 92
2, 73604, Note_on_c, 0, 73, 0
2, 73619, Control_c, 0, 64, 92
2, 73639, Control_c, 0, 64, 91
2, 73666, Note_on_c, 0, 49, 72
2, 73694, Note_on_c, 0, 77, 77
2, 73716, Control_c, 0, 64, 91
2, 73716, Note_on_c, 0, 51, 0
2, 73734, Control_c, 0, 64, 90
2, 73753, Control_c, 0, 64, 90
2, 73758, Note_on_c, 0, 79, 0
2, 73763, Note_on_c, 0, 52, 0
2, 73772, Control_c, 0, 64, 89
2, 73792, Control_c, 0, 64, 89
2, 73806, Note_on_c, 0, 49, 0
2, 73810, Control_c, 0, 64, 88
2, 73866, Note_on_c, 0, 77, 0
2, 73876, Note_on_c, 0, 75, 67
2, 73907, Control_c, 0, 64, 87
2, 73924, Note_on_c, 0, 75, 0
2, 73945, Control_c, 0, 64, 87
2, 74098, Control_c, 0, 64, 86
2, 74110, Note_on_c, 0, 47, 56
2, 74118, Control_c, 0, 64, 86
2, 74156, Control_c, 0, 64, 85
2, 74164, Note_on_c, 0, 80, 87
2, 74175, Control_c, 0, 64, 83
2, 74186, Note_on_c, 0, 75, 61
2, 74195, Control_c, 0, 64, 81
2, 74199, Note_on_c, 0, 71, 55
2, 74213, Control_c, 0, 64, 76
2, 74233, Control_c, 0, 64, 69
2, 74252, Control_c, 0, 64, 62
2, 74272, Control_c, 0, 64, 50
2, 74290, Control_c, 0, 64, 36
2, 74310, Control_c, 0, 64, 34
2, 74348, Control_c, 0, 64, 36
2, 74367, Control_c, 0, 64, 43
2, 74387, Control_c, 0, 64, 51
2, 74406, Control_c, 0, 64, 57
2, 74425, Control_c, 0, 64, 59
2, 74444, Control_c, 0, 64, 60
2, 74445, Note_on_c, 0, 46, 52
2, 74456, Note_on_c, 0, 47, 0
2, 74464, Control_c, 0, 64, 61
2, 74483, Control_c, 0, 64, 62
2, 74501, Control_c, 0, 64, 63
2, 74521, Control_c, 0, 64, 63
2, 74540, Control_c, 0, 64, 64
2, 74559, Control_c, 0, 64, 64
2, 74578, Control_c, 0, 64, 65
2, 74587, Note_on_c, 0, 44, 56
2, 74593, Note_on_c, 0, 46, 0
2, 74598, Control_c, 0, 64, 66
2, 74617, Control_c, 0, 64, 66
2, 74747, Note_on_c, 0, 46, 60
2, 74845, Control_c, 0, 64, 69
2, 74865, Control_c, 0, 64, 76
2, 74883, Note_on_c, 0, 47, 65
2, 74884, Control_c, 0, 64, 100
2, 74889, Note_on_c, 0, 44, 0
2, 74903, Control_c, 0, 64, 127
2, 74960, Control_c, 0, 64, 95
2, 74980, Control_c, 0, 64, 69
2, 74999, Control_c, 0, 64, 23
2, 75019, Control_c, 0, 64, 0
2, 75029, Note_on_c, 0, 46, 0
2, 75039, Note_on_c, 0, 44, 69
2, 75120, Note_on_c, 0, 47, 0
2, 75170, Control_c, 0, 64, 34
2, 75190, Control_c, 0, 64, 51
2, 75204, Note_on_c, 0, 46, 70
2, 75209, Control_c, 0, 64, 59
2, 75229, Control_c, 0, 64, 62
2, 75247, Control_c, 0, 64, 63
2, 75267, Control_c, 0, 64, 65
2, 75286, Control_c, 0, 64, 68
2, 75305, Control_c, 0, 64, 75
2, 75324, Control_c, 0, 64, 89
2, 75327, Note_on_c, 0, 44, 0
2, 75344, Control_c, 0, 64, 112
2, 75363, Control_c, 0, 64, 127
2, 75365, Note_on_c, 0, 47, 76
2, 75396, Note_on_c, 0, 46, 0
2, 75514, Note_on_c, 0, 71, 0
2, 75536, Note_on_c, 0, 75, 0
2, 75664, Note_on_c, 0, 40, 76
2, 75687, Note_on_c, 0, 47, 0
2, 75728, Control_c, 0, 64, 86
2, 75748, Control_c, 0, 64, 67
2, 75767, Control_c, 0, 64, 44
2, 75777, Note_on_c, 0, 80, 0
2, 75786, Control_c, 0, 64, 0
2, 75825, Control_c, 0, 64, 22
2, 75844, Control_c, 0, 64, 51
2, 75863, Control_c, 0, 64, 61
2, 75882, Control_c, 0, 64, 64
2, 75902, Control_c, 0, 64, 67
2, 75920, Control_c, 0, 64, 71
2, 75940, Control_c, 0, 64, 80
2, 75959, Control_c, 0, 64, 88
2, 75979, Control_c, 0, 64, 93
2, 75997, Control_c, 0, 64, 94
2, 76017, Control_c, 0, 64, 92
2, 76036, Control_c, 0, 64, 85
2, 76055, Control_c, 0, 64, 74
2, 76074, Control_c, 0, 64, 64
2, 76094, Control_c, 0, 64, 57
2, 76113, Control_c, 0, 64, 57
2, 76132, Control_c, 0, 64, 60
2, 76136, Note_on_c, 0, 79, 89
2, 76151, Control_c, 0, 64, 63
2, 76170, Control_c, 0, 64, 66
2, 76190, Control_c, 0, 64, 68
2, 76208, Control_c, 0, 64, 71
2, 76228, Control_c, 0, 64, 76
2, 76247, Control_c, 0, 64, 83
2, 76266, Control_c, 0, 64, 89
2, 76285, Control_c, 0, 64, 92
2, 76439, Control_c, 0, 64, 93
2, 76567, Note_on_c, 0, 80, 94
2, 76691, Control_c, 0, 64, 93
2, 76702, Note_on_c, 0, 40, 0
2, 76729, Note_on_c, 0, 52, 64
2, 76730, Control_c, 0, 64, 94
2, 76865, Control_c, 0, 64, 90
2, 76866, Note_on_c, 0, 51, 65
2, 76883, Control_c, 0, 64, 81
2, 76883, Note_on_c, 0, 82, 87
2, 76887, Note_on_c, 0, 52, 0
2, 76902, Control_c, 0, 64, 69
2, 76922, Control_c, 0, 64, 63
2, 76941, Control_c, 0, 64, 63
2, 76960, Control_c, 0, 64, 64
2, 76965, Note_on_c, 0, 79, 0
2, 76978, Note_on_c, 0, 80, 0
2, 76979, Control_c, 0, 64, 67
2, 76999, Control_c, 0, 64, 71
2, 77017, Control_c, 0, 64, 78
2, 77017, Note_on_c, 0, 49, 67
2, 77033, Note_on_c, 0, 51, 0
2, 77037, Control_c, 0, 64, 91
2, 77053, Control_c, 0, 64, 103
2, 77073, Control_c, 0, 64, 112
2, 77092, Control_c, 0, 64, 113
2, 77188, Control_c, 0, 64, 112
2, 77199, Note_on_c, 0, 82, 0
2, 77207, Control_c, 0, 64, 112
2, 77227, Control_c, 0, 64, 111
2, 77245, Control_c, 0, 64, 110
2, 77265, Control_c, 0, 64, 108
2, 77265, Note_on_c, 0, 49, 0
2, 77284, Control_c, 0, 64, 105
2, 77286, Note_on_c, 0, 51, 53
2, 77302, Control_c, 0, 64, 97
2, 77302, Note_on_c, 0, 82, 71
2, 77322, Control_c, 0, 64, 84
2, 77323, Note_on_c, 0, 79, 44
2, 77329, Note_on_c, 0, 75, 47
2, 77341, Control_c, 0, 64, 72
2, 77361, Control_c, 0, 64, 63
2, 77379, Control_c, 0, 64, 47
2, 77399, Control_c, 0, 64, 29
2, 77418, Control_c, 0, 64, 25
2, 77438, Control_c, 0, 64, 27
2, 77456, Control_c, 0, 64, 38
2, 77456, Control_c, 0, 67, 11
2, 77476, Control_c, 0, 64, 49
2, 77476, Control_c, 0, 67, 16
2, 77495, Control_c, 0, 64, 57
2, 77495, Control_c, 0, 67, 21
2, 77514, Control_c, 0, 64, 60
2, 77514, Control_c, 0, 67, 26
2, 77533, Control_c, 0, 64, 62
2, 77533, Control_c, 0, 67, 31
2, 77553, Control_c, 0, 64, 63
2, 77553, Control_c, 0, 67, 36
2, 77572, Control_c, 0, 64, 64
2, 77572, Control_c, 0, 67, 38
2, 77591, Control_c, 0, 64, 65
2, 77591, Control_c, 0, 67, 39
2, 77611, Control_c, 0, 64, 67
2, 77611, Control_c, 0, 67, 41
2, 77631, Control_c, 0, 64, 71
2, 77635, Note_on_c, 0, 83, 60
2, 77649, Control_c, 0, 64, 76
2, 77649, Control_c, 0, 67, 41
2, 77658, Note_on_c, 0, 82, 0
2, 77669, Control_c, 0, 64, 83
2, 77669, Control_c, 0, 67, 42
2, 77688, Control_c, 0, 64, 90
2, 77688, Control_c, 0, 67, 42
2, 77708, Control_c, 0, 64, 94
2, 77726, Control_c, 0, 64, 98
2, 77746, Control_c, 0, 64, 102
2, 77765, Control_c, 0, 64, 107
2, 77784, Control_c, 0, 64, 119
2, 77784, Control_c, 0, 67, 42
2, 77803, Control_c, 0, 64, 127
2, 77820, Note_on_c, 0, 83, 0
2, 77822, Control_c, 0, 67, 41
2, 77842, Control_c, 0, 67, 41
2, 77845, Note_on_c, 0, 82, 58
2, 77937, Control_c, 0, 67, 41
2, 77957, Control_c, 0, 67, 42
2, 77968, Note_on_c, 0, 82, 0
2, 77972, Note_on_c, 0, 83, 58
2, 77976, Control_c, 0, 67, 44
2, 77995, Control_c, 0, 67, 48
2, 78012, Control_c, 0, 67, 61
2, 78032, Control_c, 0, 67, 82
2, 78051, Control_c, 0, 67, 104
2, 78060, Note_on_c, 0, 83, 0
2, 78070, Control_c, 0, 67, 127
2, 78089, Control_c, 0, 67, 127
2, 78112, Note_on_c, 0, 82, 63
2, 78182, Note_on_c, 0, 82, 0
2, 78220, Note_on_c, 0, 83, 46
2, 78246, Note_on_c, 0, 82, 47
2, 78255, Note_on_c, 0, 83, 0
2, 78276, Note_on_c, 0, 51, 0
2, 78280, Note_on_c, 0, 49, 51
2, 78298, Note_on_c, 0, 82, 0
2, 78349, Note_on_c, 0, 83, 48
2, 78415, Note_on_c, 0, 82, 50
2, 78461, Note_on_c, 0, 75, 0
2, 78608, Control_c, 0, 64, 121
2, 78628, Control_c, 0, 64, 107
2, 78647, Control_c, 0, 64, 100
2, 78665, Note_on_c, 0, 51, 45
2, 78666, Control_c, 0, 64, 94
2, 78681, Note_on_c, 0, 73, 56
2, 78685, Control_c, 0, 64, 88
2, 78690, Note_on_c, 0, 49, 0
2, 78705, Control_c, 0, 64, 82
2, 78724, Control_c, 0, 64, 75
2, 78743, Control_c, 0, 64, 68
2, 78762, Control_c, 0, 64, 63
2, 78782, Control_c, 0, 64, 58
2, 78800, Control_c, 0, 64, 54
2, 78820, Control_c, 0, 64, 52
2, 78839, Control_c, 0, 64, 52
2, 78845, Note_on_c, 0, 83, 0
2, 78859, Control_c, 0, 64, 52
2, 78877, Control_c, 0, 64, 54
2, 78897, Control_c, 0, 64, 58
2, 78916, Control_c, 0, 64, 61
2, 78935, Control_c, 0, 64, 63
2, 78954, Control_c, 0, 64, 64
2, 78974, Control_c, 0, 64, 67
2, 78993, Control_c, 0, 64, 70
2, 79011, Control_c, 0, 64, 75
2, 79031, Control_c, 0, 64, 82
2, 79050, Control_c, 0, 64, 88
2, 79070, Control_c, 0, 64, 91
2, 79146, Control_c, 0, 64, 90
2, 79165, Control_c, 0, 64, 90
2, 79185, Control_c, 0, 64, 89
2, 79204, Control_c, 0, 64, 89
2, 79223, Control_c, 0, 64, 88
2, 79238, Note_on_c, 0, 79, 0
2, 79242, Control_c, 0, 64, 88
2, 79262, Control_c, 0, 64, 87
2, 79280, Control_c, 0, 64, 87
2, 79300, Control_c, 0, 64, 86
2, 79319, Control_c, 0, 64, 86
2, 79339, Control_c, 0, 64, 85
2, 79357, Control_c, 0, 64, 84
2, 79377, Control_c, 0, 64, 82
2, 79396, Control_c, 0, 64, 80
2, 79415, Control_c, 0, 64, 79
2, 79423, Note_on_c, 0, 80, 51
2, 79434, Control_c, 0, 64, 78
2, 79454, Control_c, 0, 64, 77
2, 79473, Control_c, 0, 64, 75
2, 79491, Control_c, 0, 64, 72
2, 79513, Control_c, 0, 64, 68
2, 79533, Control_c, 0, 64, 65
2, 79551, Control_c, 0, 64, 63
2, 79553, Note_on_c, 0, 82, 0
2, 79570, Control_c, 0, 64, 62
2, 79590, Control_c, 0, 64, 61
2, 79609, Control_c, 0, 64, 61
2, 79628, Control_c, 0, 64, 60
2, 79647, Control_c, 0, 64, 59
2, 79667, Control_c, 0, 64, 58
2, 79685, Control_c, 0, 64, 57
2, 79705, Control_c, 0, 64, 56
2, 79762, Control_c, 0, 64, 57
2, 79782, Control_c, 0, 64, 58
2, 79782, Note_on_c, 0, 39, 45
2, 79801, Control_c, 0, 64, 60
2, 79820, Control_c, 0, 64, 62
2, 79839, Control_c, 0, 64, 63
2, 79859, Control_c, 0, 64, 65
2, 79878, Control_c, 0, 64, 66
2, 79897, Control_c, 0, 64, 69
2, 79916, Control_c, 0, 64, 74
2, 79931, Control_c, 0, 64, 84
2, 79951, Control_c, 0, 64, 92
2, 79964, Note_on_c, 0, 80, 0
2, 79970, Control_c, 0, 64, 95
2, 79976, Note_on_c, 0, 73, 0
2, 79989, Control_c, 0, 64, 96
2, 80066, Control_c, 0, 64, 95
2, 80072, Note_on_c, 0, 51, 0
2, 80085, Control_c, 0, 64, 95
2, 80105, Control_c, 0, 64, 94
2, 80123, Control_c, 0, 64, 94
2, 80143, Control_c, 0, 64, 93
2, 80162, Control_c, 0, 64, 91
2, 80181, Control_c, 0, 64, 89
2, 80200, Control_c, 0, 64, 87
2, 80220, Control_c, 0, 64, 86
2, 80239, Control_c, 0, 64, 85
2, 80258, Control_c, 0, 64, 83
2, 80258, Note_on_c, 0, 39, 0
2, 80277, Control_c, 0, 64, 79
2, 80287, Note_on_c, 0, 80, 46
2, 80297, Control_c, 0, 64, 75
2, 80300, Note_on_c, 0, 44, 36
2, 80300, Note_on_c, 0, 75, 39
2, 80309, Note_on_c, 0, 71, 32
2, 80315, Control_c, 0, 64, 70
2, 80335, Control_c, 0, 64, 66
2, 80354, Control_c, 0, 64, 61
2, 80374, Control_c, 0, 64, 59
2, 80392, Control_c, 0, 64, 57
2, 80411, Control_c, 0, 64, 55
2, 80431, Control_c, 0, 64, 55
2, 80450, Control_c, 0, 64, 54
2, 80472, Control_c, 0, 64, 54
2, 80491, Control_c, 0, 64, 53
2, 80549, Control_c, 0, 64, 53
2, 80683, Control_c, 0, 64, 53
2, 80760, Control_c, 0, 64, 54
2, 80837, Control_c, 0, 64, 54
2, 80856, Control_c, 0, 64, 55
2, 80894, Control_c, 0, 64, 55
2, 80913, Control_c, 0, 64, 56
2, 80931, Control_c, 0, 64, 56
2, 80970, Control_c, 0, 64, 57
2, 80987, Note_on_c, 0, 71, 0
2, 80990, Control_c, 0, 64, 57
2, 81019, Note_on_c, 0, 75, 0
2, 81028, Control_c, 0, 64, 58
2, 81047, Control_c, 0, 64, 58
2, 81066, Control_c, 0, 64, 59
2, 81124, Control_c, 0, 64, 59
2, 81162, Control_c, 0, 64, 60
2, 81169, Note_on_c, 0, 80, 0
2, 81182, Control_c, 0, 64, 60
2, 81200, Control_c, 0, 64, 61
2, 81239, Control_c, 0, 64, 61
2, 81259, Control_c, 0, 64, 62
2, 81297, Control_c, 0, 64, 62
2, 81335, Control_c, 0, 64, 63
2, 81348, Note_on_c, 0, 44, 0
2, 81393, Control_c, 0, 64, 63
2, 81411, Control_c, 0, 64, 64
2, 81431, Control_c, 0, 64, 64
2, 81450, Control_c, 0, 67, 126
2, 81470, Control_c, 0, 64, 65
2, 81470, Control_c, 0, 67, 124
2, 81488, Control_c, 0, 67, 122
2, 81508, Control_c, 0, 64, 65
2, 81508, Control_c, 0, 67, 120
2, 81525, Note_on_c, 0, 83, 85
2, 81527, Control_c, 0, 64, 66
2, 81527, Control_c, 0, 67, 119
2, 81546, Control_c, 0, 67, 119
2, 81565, Control_c, 0, 67, 118
2, 81757, Control_c, 0, 67, 119
2, 81874, Control_c, 0, 67, 119
2, 81907, Note_on_c, 0, 77, 74
2, 81912, Control_c, 0, 64, 65
2, 81931, Control_c, 0, 64, 64
2, 81931, Control_c, 0, 67, 120
2, 81950, Control_c, 0, 64, 64
2, 81969, Control_c, 0, 64, 63
2, 81986, Note_on_c, 0, 83, 0
2, 81989, Control_c, 0, 64, 62
2, 82008, Control_c, 0, 64, 61
2, 82027, Control_c, 0, 64, 61
2, 82046, Control_c, 0, 64, 60
2, 82066, Control_c, 0, 64, 60
2, 82085, Control_c, 0, 64, 59
2, 82104, Control_c, 0, 64, 59
2, 82123, Control_c, 0, 64, 58
2, 82143, Control_c, 0, 64, 58
2, 82277, Control_c, 0, 64, 58
2, 82277, Control_c, 0, 67, 120
2, 82296, Control_c, 0, 64, 59
2, 82335, Control_c, 0, 64, 59
2, 82354, Control_c, 0, 64, 60
2, 82373, Control_c, 0, 64, 60
2, 82392, Control_c, 0, 64, 61
2, 82411, Control_c, 0, 64, 62
2, 82430, Control_c, 0, 64, 63
2, 82449, Control_c, 0, 64, 63
2, 82469, Control_c, 0, 64, 64
2, 82488, Control_c, 0, 64, 65
2, 82507, Control_c, 0, 64, 66
2, 82526, Control_c, 0, 64, 67
2, 82546, Control_c, 0, 64, 68
2, 82565, Control_c, 0, 64, 70
2, 82565, Control_c, 0, 67, 120
2, 82584, Control_c, 0, 64, 73
2, 82603, Control_c, 0, 64, 77
2, 82623, Control_c, 0, 64, 82
2, 82623, Control_c, 0, 67, 119
2, 82641, Control_c, 0, 64, 86
2, 82641, Control_c, 0, 67, 118
2, 82661, Control_c, 0, 64, 91
2, 82661, Control_c, 0, 67, 116
2, 82680, Control_c, 0, 64, 95
2, 82680, Control_c, 0, 67, 115
2, 82700, Control_c, 0, 64, 98
2, 82700, Control_c, 0, 67, 108
2, 82718, Control_c, 0, 64, 100
2, 82718, Control_c, 0, 67, 96
2, 82738, Control_c, 0, 64, 101
2, 82738, Control_c, 0, 67, 85
2, 82757, Control_c, 0, 64, 103
2, 82757, Control_c, 0, 67, 78
2, 82776, Control_c, 0, 64, 104
2, 82776, Control_c, 0, 67, 75
2, 82795, Control_c, 0, 64, 104
2, 82815, Control_c, 0, 67, 76
2, 82851, Control_c, 0, 67, 76
2, 82890, Control_c, 0, 67, 77
2, 82928, Control_c, 0, 64, 103
2, 82948, Control_c, 0, 64, 103
2, 82960, Note_on_c, 0, 78, 58
2, 82961, Note_on_c, 0, 59, 78
2, 82967, Control_c, 0, 64, 102
2, 82967, Control_c, 0, 67, 77
2, 82986, Control_c, 0, 64, 101
2, 83005, Control_c, 0, 64, 100
2, 83025, Control_c, 0, 64, 99
2, 83025, Control_c, 0, 67, 78
2, 83044, Control_c, 0, 64, 97
2, 83063, Control_c, 0, 64, 95
2, 83082, Control_c, 0, 64, 93
2, 83082, Control_c, 0, 67, 78
2, 83102, Control_c, 0, 64, 90
2, 83120, Control_c, 0, 64, 87
2, 83121, Note_on_c, 0, 80, 64
2, 83140, Control_c, 0, 64, 85
2, 83159, Control_c, 0, 64, 82
2, 83171, Note_on_c, 0, 78, 0
2, 83179, Control_c, 0, 64, 80
2, 83180, Note_on_c, 0, 77, 0
2, 83197, Control_c, 0, 64, 78
2, 83217, Control_c, 0, 64, 75
2, 83236, Control_c, 0, 64, 72
2, 83236, Control_c, 0, 67, 78
2, 83255, Control_c, 0, 64, 70
2, 83274, Control_c, 0, 64, 68
2, 83294, Control_c, 0, 64, 66
2, 83304, Note_on_c, 0, 80, 0
2, 83313, Control_c, 0, 64, 65
2, 83313, Control_c, 0, 67, 78
2, 83315, Note_on_c, 0, 53, 60
2, 83331, Control_c, 0, 64, 64
2, 83348, Note_on_c, 0, 74, 51
2, 83351, Control_c, 0, 64, 63
2, 83370, Control_c, 0, 64, 62
2, 83390, Control_c, 0, 64, 61
2, 83408, Control_c, 0, 64, 60
2, 83428, Control_c, 0, 64, 59
2, 83432, Note_on_c, 0, 59, 0
2, 83447, Control_c, 0, 64, 58
2, 83466, Control_c, 0, 64, 58
2, 83485, Control_c, 0, 64, 57
2, 83543, Control_c, 0, 67, 79
2, 83677, Control_c, 0, 64, 58
2, 83697, Control_c, 0, 67, 78
2, 83754, Control_c, 0, 64, 58
2, 83774, Control_c, 0, 64, 59
2, 83811, Control_c, 0, 64, 59
2, 83831, Control_c, 0, 64, 60
2, 83850, Control_c, 0, 67, 78
2, 83870, Control_c, 0, 64, 60
2, 83888, Control_c, 0, 64, 61
2, 83908, Control_c, 0, 64, 61
2, 83946, Control_c, 0, 64, 62
2, 83946, Control_c, 0, 67, 77
2, 83965, Control_c, 0, 64, 62
2, 84004, Control_c, 0, 64, 63
2, 84023, Control_c, 0, 67, 77
2, 84100, Control_c, 0, 67, 76
2, 84119, Control_c, 0, 67, 76
2, 84139, Control_c, 0, 64, 63
2, 84157, Control_c, 0, 67, 75
2, 84177, Control_c, 0, 64, 64
2, 84196, Control_c, 0, 64, 65
2, 84196, Control_c, 0, 67, 75
2, 84216, Control_c, 0, 64, 66
2, 84216, Control_c, 0, 67, 74
2, 84234, Control_c, 0, 64, 69
2, 84234, Control_c, 0, 67, 74
2, 84254, Control_c, 0, 64, 72
2, 84254, Control_c, 0, 67, 73
2, 84273, Control_c, 0, 64, 77
2, 84273, Control_c, 0, 67, 72
2, 84291, Control_c, 0, 64, 83
2, 84291, Control_c, 0, 67, 67
2, 84312, Control_c, 0, 64, 90
2, 84312, Control_c, 0, 67, 63
2, 84316, Note_on_c, 0, 54, 64
2, 84331, Control_c, 0, 64, 96
2, 84331, Control_c, 0, 67, 60
2, 84337, Note_on_c, 0, 75, 62
2, 84350, Control_c, 0, 64, 98
2, 84350, Control_c, 0, 67, 59
2, 84369, Control_c, 0, 67, 58
2, 84389, Note_on_c, 0, 74, 0
2, 84400, Note_on_c, 0, 53, 0
2, 84427, Control_c, 0, 67, 57
2, 84452, Note_on_c, 0, 56, 74
2, 84480, Note_on_c, 0, 54, 0
2, 84481, Note_on_c, 0, 77, 62
2, 84504, Control_c, 0, 64, 97
2, 84504, Control_c, 0, 67, 58
2, 84523, Control_c, 0, 64, 95
2, 84540, Note_on_c, 0, 75, 0
2, 84543, Control_c, 0, 64, 93
2, 84561, Control_c, 0, 64, 90
2, 84581, Control_c, 0, 64, 87
2, 84600, Control_c, 0, 64, 85
2, 84620, Control_c, 0, 64, 80
2, 84638, Control_c, 0, 64, 76
2, 84658, Control_c, 0, 64, 71
2, 84677, Control_c, 0, 64, 66
2, 84677, Note_on_c, 0, 56, 0
2, 84696, Control_c, 0, 64, 63
2, 84697, Note_on_c, 0, 77, 0
2, 84703, Note_on_c, 0, 50, 59
2, 84709, Note_on_c, 0, 70, 55
2, 84715, Control_c, 0, 64, 61
2, 84734, Control_c, 0, 64, 60
2, 84753, Control_c, 0, 64, 59
2, 84771, Control_c, 0, 64, 59
2, 84791, Control_c, 0, 64, 58
2, 84810, Control_c, 0, 64, 57
2, 84848, Control_c, 0, 64, 57
2, 85060, Control_c, 0, 64, 57
2, 85079, Control_c, 0, 67, 57
2, 85099, Control_c, 0, 64, 58
2, 85117, Control_c, 0, 64, 59
2, 85117, Control_c, 0, 67, 57
2, 85137, Control_c, 0, 64, 59
2, 85137, Control_c, 0, 67, 56
2, 85156, Control_c, 0, 64, 60
2, 85156, Control_c, 0, 67, 56
2, 85176, Control_c, 0, 64, 61
2, 85176, Control_c, 0, 67, 55
2, 85194, Control_c, 0, 64, 62
2, 85194, Control_c, 0, 67, 55
2, 85214, Control_c, 0, 64, 63
2, 85214, Control_c, 0, 67, 52
2, 85233, Control_c, 0, 64, 64
2, 85233, Control_c, 0, 67, 46
2, 85251, Control_c, 0, 64, 66
2, 85251, Control_c, 0, 67, 40
2, 85272, Control_c, 0, 64, 68
2, 85272, Control_c, 0, 67, 36
2, 85291, Control_c, 0, 64, 71
2, 85291, Control_c, 0, 67, 35
2, 85310, Control_c, 0, 64, 76
2, 85310, Control_c, 0, 67, 34
2, 85329, Control_c, 0, 64, 83
2, 85349, Control_c, 0, 64, 91
2, 85368, Control_c, 0, 64, 97
2, 85368, Control_c, 0, 67, 34
2, 85387, Control_c, 0, 64, 98
2, 85521, Control_c, 0, 64, 97
2, 85541, Control_c, 0, 64, 96
2, 85560, Control_c, 0, 64, 95
2, 85580, Control_c, 0, 64, 93
2, 85598, Control_c, 0, 64, 91
2, 85618, Control_c, 0, 64, 85
2, 85637, Control_c, 0, 64, 78
2, 85656, Control_c, 0, 64, 71
2, 85675, Control_c, 0, 64, 66
2, 85694, Control_c, 0, 64, 65
2, 85704, Note_on_c, 0, 50, 0
2, 85711, Control_c, 0, 64, 66
2, 85722, Note_on_c, 0, 51, 42
2, 85730, Control_c, 0, 64, 67
2, 85749, Control_c, 0, 64, 69
2, 85749, Control_c, 0, 67, 33
2, 85768, Control_c, 0, 64, 71
2, 85768, Control_c, 0, 67, 33
2, 85769, Note_on_c, 0, 80, 80
2, 85788, Control_c, 0, 64, 73
2, 85806, Control_c, 0, 64, 75
2, 85806, Control_c, 0, 67, 32
2, 85826, Control_c, 0, 64, 76
2, 85845, Control_c, 0, 67, 31
2, 85865, Control_c, 0, 64, 77
2, 85865, Control_c, 0, 67, 30
2, 85883, Control_c, 0, 67, 29
2, 85891, Note_on_c, 0, 51, 0
2, 85902, Note_on_c, 0, 53, 56
2, 85903, Control_c, 0, 67, 28
2, 85922, Control_c, 0, 64, 76
2, 85922, Control_c, 0, 67, 27
2, 85960, Control_c, 0, 67, 27
2, 85999, Control_c, 0, 64, 76
2, 86037, Control_c, 0, 64, 75
2, 86057, Control_c, 0, 64, 75
2, 86066, Note_on_c, 0, 70, 0
2, 86075, Control_c, 0, 64, 74
2, 86089, Note_on_c, 0, 53, 0
2, 86095, Control_c, 0, 64, 73
2, 86114, Control_c, 0, 64, 71
2, 86116, Note_on_c, 0, 46, 38
2, 86134, Control_c, 0, 64, 68
2, 86136, Note_on_c, 0, 74, 60
2, 86152, Control_c, 0, 64, 65
2, 86171, Control_c, 0, 64, 62
2, 86191, Control_c, 0, 64, 56
2, 86210, Control_c, 0, 64, 50
2, 86230, Control_c, 0, 64, 46
2, 86249, Control_c, 0, 64, 44
2, 86269, Control_c, 0, 64, 43
2, 86431, Note_on_c, 0, 80, 0
2, 86441, Control_c, 0, 64, 43
2, 86461, Control_c, 0, 64, 44
2, 86461, Control_c, 0, 67, 26
2, 86480, Control_c, 0, 64, 44
2, 86499, Control_c, 0, 64, 45
2, 86499, Control_c, 0, 67, 25
2, 86518, Control_c, 0, 64, 46
2, 86538, Control_c, 0, 64, 48
2, 86538, Control_c, 0, 67, 25
2, 86556, Control_c, 0, 64, 49
2, 86556, Control_c, 0, 67, 24
2, 86576, Control_c, 0, 64, 50
2, 86576, Control_c, 0, 67, 20
2, 86595, Control_c, 0, 64, 51
2, 86595, Control_c, 0, 67, 13
2, 86615, Control_c, 0, 64, 52
2, 86615, Control_c, 0, 67, 0
2, 86633, Control_c, 0, 64, 54
2, 86652, Control_c, 0, 64, 55
2, 86673, Control_c, 0, 64, 55
2, 86691, Control_c, 0, 64, 56
2, 86807, Control_c, 0, 64, 56
2, 86826, Control_c, 0, 64, 57
2, 86845, Control_c, 0, 64, 57
2, 86865, Control_c, 0, 64, 58
2, 86884, Control_c, 0, 64, 59
2, 86903, Control_c, 0, 64, 60
2, 86922, Control_c, 0, 64, 62
2, 86942, Control_c, 0, 64, 63
2, 86960, Control_c, 0, 64, 64
2, 86980, Control_c, 0, 64, 64
2, 86999, Control_c, 0, 64, 65
2, 87019, Control_c, 0, 64, 67
2, 87037, Control_c, 0, 64, 68
2, 87049, Note_on_c, 0, 75, 52
2, 87057, Control_c, 0, 64, 71
2, 87071, Note_on_c, 0, 56, 60
2, 87076, Control_c, 0, 64, 73
2, 87096, Control_c, 0, 64, 76
2, 87114, Control_c, 0, 64, 77
2, 87134, Control_c, 0, 64, 77
2, 87153, Control_c, 0, 64, 77
2, 87198, Control_c, 0, 64, 76
2, 87227, Note_on_c, 0, 75, 0
2, 87230, Note_on_c, 0, 77, 55
2, 87236, Control_c, 0, 64, 76
2, 87256, Control_c, 0, 64, 75
2, 87270, Note_on_c, 0, 74, 0
2, 87275, Control_c, 0, 64, 74
2, 87294, Control_c, 0, 64, 73
2, 87313, Control_c, 0, 64, 73
2, 87332, Control_c, 0, 64, 72
2, 87351, Control_c, 0, 64, 71
2, 87370, Control_c, 0, 64, 70
2, 87390, Control_c, 0, 64, 68
2, 87409, Control_c, 0, 64, 66
2, 87410, Note_on_c, 0, 50, 51
2, 87428, Control_c, 0, 64, 65
2, 87447, Control_c, 0, 64, 64
2, 87456, Note_on_c, 0, 46, 0
2, 87456, Note_on_c, 0, 70, 45
2, 87467, Control_c, 0, 64, 63
2, 87485, Control_c, 0, 64, 62
2, 87497, Note_on_c, 0, 77, 0
2, 87505, Control_c, 0, 64, 60
2, 87524, Control_c, 0, 64, 58
2, 87544, Control_c, 0, 64, 57
2, 87558, Note_on_c, 0, 56, 0
2, 87562, Control_c, 0, 64, 56
2, 87582, Control_c, 0, 64, 56
2, 87614, Control_c, 0, 64, 55
2, 87651, Control_c, 0, 64, 55
2, 87805, Control_c, 0, 64, 55
2, 87863, Control_c, 0, 64, 56
2, 87920, Control_c, 0, 64, 56
2, 87940, Control_c, 0, 64, 57
2, 87959, Control_c, 0, 64, 58
2, 87979, Control_c, 0, 64, 60
2, 87997, Control_c, 0, 64, 61
2, 88017, Control_c, 0, 64, 62
2, 88036, Control_c, 0, 64, 62
2, 88056, Control_c, 0, 64, 63
2, 88094, Control_c, 0, 64, 62
2, 88113, Control_c, 0, 64, 62
2, 88170, Control_c, 0, 64, 62
2, 88190, Control_c, 0, 64, 63
2, 88208, Control_c, 0, 64, 63
2, 88228, Control_c, 0, 64, 64
2, 88247, Control_c, 0, 64, 65
2, 88266, Control_c, 0, 64, 66
2, 88285, Control_c, 0, 64, 67
2, 88305, Control_c, 0, 64, 70
2, 88324, Control_c, 0, 64, 74
2, 88337, Note_on_c, 0, 50, 0
2, 88343, Control_c, 0, 64, 79
2, 88354, Note_on_c, 0, 51, 47
2, 88362, Control_c, 0, 64, 84
2, 88367, Note_on_c, 0, 72, 56
2, 88382, Control_c, 0, 64, 87
2, 88400, Control_c, 0, 64, 88
2, 88445, Note_on_c, 0, 70, 0
2, 88528, Note_on_c, 0, 53, 56
2, 88537, Note_on_c, 0, 74, 58
2, 88540, Note_on_c, 0, 51, 0
2, 88573, Control_c, 0, 64, 87
2, 88582, Note_on_c, 0, 53, 0
2, 88590, Note_on_c, 0, 72, 0
2, 88593, Control_c, 0, 64, 87
2, 88650, Control_c, 0, 64, 86
2, 88842, Control_c, 0, 64, 86
2, 88862, Control_c, 0, 64, 85
2, 88880, Control_c, 0, 64, 85
2, 88889, Note_on_c, 0, 42, 61
2, 88900, Control_c, 0, 64, 84
2, 88919, Control_c, 0, 64, 83
2, 88939, Control_c, 0, 64, 81
2, 88957, Control_c, 0, 64, 78
2, 88972, Note_on_c, 0, 75, 53
2, 88977, Control_c, 0, 64, 74
2, 88996, Control_c, 0, 64, 69
2, 89016, Control_c, 0, 64, 63
2, 89034, Control_c, 0, 64, 58
2, 89053, Control_c, 0, 64, 55
2, 89073, Control_c, 0, 64, 55
2, 89091, Control_c, 0, 64, 54
2, 89110, Control_c, 0, 64, 53
2, 89129, Control_c, 0, 64, 53
2, 89129, Note_on_c, 0, 74, 0
2, 89149, Control_c, 0, 64, 52
2, 89187, Control_c, 0, 64, 51
2, 89283, Control_c, 0, 64, 52
2, 89302, Control_c, 0, 64, 52
2, 89341, Control_c, 0, 64, 53
2, 89360, Control_c, 0, 64, 53
2, 89379, Control_c, 0, 64, 54
2, 89398, Control_c, 0, 64, 54
2, 89418, Control_c, 0, 64, 55
2, 89436, Control_c, 0, 64, 55
2, 89456, Control_c, 0, 64, 56
2, 89475, Control_c, 0, 64, 57
2, 89495, Control_c, 0, 64, 57
2, 89513, Control_c, 0, 64, 58
2, 89534, Control_c, 0, 64, 59
2, 89554, Control_c, 0, 64, 60
2, 89573, Control_c, 0, 64, 61
2, 89592, Control_c, 0, 64, 62
2, 89611, Control_c, 0, 64, 63
2, 89631, Control_c, 0, 64, 64
2, 89649, Control_c, 0, 64, 65
2, 89669, Control_c, 0, 64, 67
2, 89688, Control_c, 0, 64, 70
2, 89688, Control_c, 0, 67, 9
2, 89708, Control_c, 0, 64, 79
2, 89708, Control_c, 0, 67, 23
2, 89726, Control_c, 0, 64, 90
2, 89726, Control_c, 0, 67, 42
2, 89746, Control_c, 0, 64, 104
2, 89746, Control_c, 0, 67, 68
2, 89765, Control_c, 0, 64, 119
2, 89765, Control_c, 0, 67, 94
2, 89783, Control_c, 0, 64, 127
2, 89783, Control_c, 0, 67, 123
2, 89803, Control_c, 0, 67, 127
2, 90022, Note_on_c, 0, 73, 36
2, 90053, Control_c, 0, 64, 121
2, 90072, Control_c, 0, 64, 116
2, 90084, Note_on_c, 0, 42, 0
2, 90091, Control_c, 0, 64, 112
2, 90111, Control_c, 0, 64, 107
2, 90129, Control_c, 0, 64, 104
2, 90149, Control_c, 0, 64, 101
2, 90166, Note_on_c, 0, 71, 53
2, 90168, Control_c, 0, 64, 99
2, 90188, Control_c, 0, 64, 97
2, 90197, Note_on_c, 0, 73, 0
2, 90206, Control_c, 0, 64, 96
2, 90226, Control_c, 0, 64, 94
2, 90245, Control_c, 0, 64, 92
2, 90263, Control_c, 0, 64, 90
2, 90283, Control_c, 0, 64, 89
2, 90302, Control_c, 0, 64, 87
2, 90322, Control_c, 0, 64, 84
2, 90340, Control_c, 0, 64, 80
2, 90360, Control_c, 0, 64, 74
2, 90365, Note_on_c, 0, 43, 38
2, 90376, Note_on_c, 0, 73, 44
2, 90379, Control_c, 0, 64, 67
2, 90398, Control_c, 0, 64, 59
2, 90403, Note_on_c, 0, 71, 0
2, 90417, Control_c, 0, 64, 54
2, 90437, Control_c, 0, 64, 51
2, 90456, Control_c, 0, 64, 51
2, 90475, Control_c, 0, 64, 50
2, 90514, Control_c, 0, 64, 50
2, 90609, Control_c, 0, 64, 50
2, 90629, Control_c, 0, 64, 51
2, 90631, Note_on_c, 0, 75, 0
2, 90648, Control_c, 0, 64, 52
2, 90668, Control_c, 0, 64, 55
2, 90686, Control_c, 0, 64, 57
2, 90706, Control_c, 0, 64, 60
2, 90725, Control_c, 0, 64, 62
2, 90743, Control_c, 0, 64, 63
2, 90763, Control_c, 0, 64, 65
2, 90782, Control_c, 0, 64, 66
2, 90802, Control_c, 0, 64, 71
2, 90820, Control_c, 0, 64, 78
2, 90840, Control_c, 0, 64, 89
2, 90859, Control_c, 0, 64, 100
2, 90878, Control_c, 0, 64, 106
2, 90897, Control_c, 0, 64, 107
2, 90953, Note_on_c, 0, 43, 0
2, 91184, Note_on_c, 0, 73, 0
2, 91208, Control_c, 0, 64, 107
2, 91246, Control_c, 0, 64, 106
2, 91266, Control_c, 0, 64, 106
2, 91303, Control_c, 0, 64, 105
2, 91342, Control_c, 0, 64, 104
2, 91361, Control_c, 0, 64, 104
2, 91380, Control_c, 0, 64, 103
2, 91389, Note_on_c, 0, 58, 41
2, 91400, Control_c, 0, 64, 103
2, 91418, Control_c, 0, 64, 102
2, 91455, Control_c, 0, 64, 102
2, 91475, Control_c, 0, 64, 100
2, 91493, Control_c, 0, 64, 99
2, 91513, Control_c, 0, 64, 98
2, 91570, Control_c, 0, 64, 97
2, 91590, Control_c, 0, 64, 95
2, 91609, Control_c, 0, 64, 93
2, 91628, Control_c, 0, 64, 92
2, 91647, Control_c, 0, 64, 91
2, 91667, Control_c, 0, 64, 90
2, 91686, Control_c, 0, 64, 89
2, 91702, Note_on_c, 0, 55, 47
2, 91704, Control_c, 0, 64, 86
2, 91708, Note_on_c, 0, 63, 42
2, 91711, Note_on_c, 0, 58, 0
2, 91724, Control_c, 0, 64, 84
2, 91741, Note_on_c, 0, 70, 43
2, 91743, Control_c, 0, 64, 81
2, 91763, Control_c, 0, 64, 78
2, 91772, Note_on_c, 0, 73, 42
2, 91781, Control_c, 0, 64, 74
2, 91801, Control_c, 0, 64, 69
2, 91820, Control_c, 0, 64, 64
2, 91839, Control_c, 0, 64, 60
2, 91858, Control_c, 0, 64, 56
2, 91878, Control_c, 0, 64, 53
2, 91897, Control_c, 0, 64, 52
2, 91916, Control_c, 0, 64, 52
2, 91935, Control_c, 0, 64, 51
2, 91955, Control_c, 0, 64, 50
2, 91973, Control_c, 0, 64, 50
2, 91993, Control_c, 0, 64, 49
2, 92127, Control_c, 0, 64, 50
2, 92147, Control_c, 0, 64, 50
2, 92166, Control_c, 0, 64, 51
2, 92184, Control_c, 0, 64, 53
2, 92204, Control_c, 0, 64, 54
2, 92223, Control_c, 0, 64, 55
2, 92243, Control_c, 0, 64, 56
2, 92261, Control_c, 0, 64, 57
2, 92281, Control_c, 0, 64, 58
2, 92300, Control_c, 0, 64, 60
2, 92319, Control_c, 0, 64, 62
2, 92338, Control_c, 0, 64, 63
2, 92358, Control_c, 0, 64, 64
2, 92377, Control_c, 0, 64, 64
2, 92396, Control_c, 0, 64, 65
2, 92415, Control_c, 0, 64, 67
2, 92435, Control_c, 0, 64, 70
2, 92453, Control_c, 0, 64, 75
2, 92473, Control_c, 0, 64, 82
2, 92492, Control_c, 0, 64, 88
2, 92492, Control_c, 0, 67, 125
2, 92512, Control_c, 0, 64, 93
2, 92512, Control_c, 0, 67, 123
2, 92530, Control_c, 0, 64, 96
2, 92530, Control_c, 0, 67, 123
2, 92550, Control_c, 0, 64, 97
2, 92550, Control_c, 0, 67, 122
2, 92569, Control_c, 0, 64, 97
2, 92607, Note_on_c, 0, 51, 49
2, 92619, Note_on_c, 0, 55, 0
2, 92627, Control_c, 0, 64, 98
2, 92664, Control_c, 0, 64, 98
2, 92684, Control_c, 0, 67, 122
2, 92783, Note_on_c, 0, 51, 0
2, 92818, Control_c, 0, 64, 98
2, 92835, Note_on_c, 0, 63, 0
2, 92838, Control_c, 0, 64, 97
2, 92876, Control_c, 0, 64, 97
2, 92895, Control_c, 0, 64, 96
2, 92915, Control_c, 0, 64, 96
2, 92933, Control_c, 0, 64, 95
2, 92937, Note_on_c, 0, 73, 0
2, 92953, Control_c, 0, 64, 95
2, 92953, Control_c, 0, 67, 122
2, 92953, Note_on_c, 0, 70, 0
2, 92972, Control_c, 0, 64, 94
2, 92992, Control_c, 0, 64, 93
2, 93010, Control_c, 0, 64, 92
2, 93030, Control_c, 0, 64, 90
2, 93034, Note_on_c, 0, 44, 60
2, 93049, Control_c, 0, 64, 89
2, 93068, Control_c, 0, 64, 88
2, 93087, Control_c, 0, 64, 87
2, 93095, Note_on_c, 0, 63, 34
2, 93107, Control_c, 0, 64, 86
2, 93126, Control_c, 0, 64, 85
2, 93144, Control_c, 0, 64, 82
2, 93164, Control_c, 0, 64, 79
2, 93183, Control_c, 0, 64, 76
2, 93194, Note_on_c, 0, 70, 45
2, 93203, Control_c, 0, 64, 70
2, 93221, Control_c, 0, 64, 65
2, 93241, Control_c, 0, 64, 58
2, 93260, Control_c, 0, 64, 51
2, 93275, Note_on_c, 0, 73, 56
2, 93279, Control_c, 0, 64, 46
2, 93298, Control_c, 0, 64, 45
2, 93318, Control_c, 0, 67, 123
2, 93337, Control_c, 0, 64, 45
2, 93487, Control_c, 0, 64, 45
2, 93526, Control_c, 0, 64, 46
2, 93545, Control_c, 0, 64, 46
2, 93564, Control_c, 0, 64, 47
2, 93584, Control_c, 0, 64, 47
2, 93603, Control_c, 0, 64, 48
2, 93622, Control_c, 0, 64, 48
2, 93641, Control_c, 0, 64, 49
2, 93661, Control_c, 0, 64, 50
2, 93680, Control_c, 0, 64, 51
2, 93699, Control_c, 0, 64, 53
2, 93718, Control_c, 0, 64, 54
2, 93738, Control_c, 0, 64, 56
2, 93738, Control_c, 0, 67, 123
2, 93756, Control_c, 0, 64, 57
2, 93776, Control_c, 0, 64, 59
2, 93795, Control_c, 0, 64, 61
2, 93814, Control_c, 0, 64, 63
2, 93833, Control_c, 0, 64, 65
2, 93852, Control_c, 0, 64, 67
2, 93872, Control_c, 0, 64, 70
2, 93890, Control_c, 0, 64, 77
2, 93901, Note_on_c, 0, 63, 0
2, 93910, Control_c, 0, 64, 86
2, 93929, Control_c, 0, 64, 96
2, 93949, Control_c, 0, 64, 102
2, 93967, Control_c, 0, 64, 103
2, 93991, Note_on_c, 0, 70, 0
2, 94028, Note_on_c, 0, 73, 0
2, 94083, Control_c, 0, 67, 124
2, 94102, Control_c, 0, 67, 124
2, 94121, Control_c, 0, 64, 102
2, 94121, Control_c, 0, 67, 125
2, 94141, Control_c, 0, 64, 102
2, 94141, Control_c, 0, 67, 126
2, 94160, Control_c, 0, 64, 100
2, 94160, Control_c, 0, 67, 127
2, 94167, Note_on_c, 0, 71, 51
2, 94179, Control_c, 0, 64, 99
2, 94179, Control_c, 0, 67, 127
2, 94198, Control_c, 0, 64, 98
2, 94218, Control_c, 0, 64, 95
2, 94236, Control_c, 0, 64, 91
2, 94256, Control_c, 0, 64, 88
2, 94275, Control_c, 0, 64, 85
2, 94294, Control_c, 0, 64, 83
2, 94313, Control_c, 0, 64, 82
2, 94332, Control_c, 0, 64, 80
2, 94336, Note_on_c, 0, 70, 44
2, 94341, Note_on_c, 0, 71, 0
2, 94352, Control_c, 0, 64, 79
2, 94370, Control_c, 0, 64, 76
2, 94390, Control_c, 0, 64, 75
2, 94409, Control_c, 0, 64, 73
2, 94429, Control_c, 0, 64, 71
2, 94447, Control_c, 0, 64, 68
2, 94467, Control_c, 0, 64, 65
2, 94486, Control_c, 0, 64, 62
2, 94505, Control_c, 0, 64, 60
2, 94511, Note_on_c, 0, 71, 44
2, 94524, Control_c, 0, 64, 59
2, 94525, Note_on_c, 0, 70, 0
2, 94544, Control_c, 0, 64, 57
2, 94563, Control_c, 0, 64, 56
2, 94582, Control_c, 0, 64, 55
2, 94601, Control_c, 0, 64, 54
2, 94621, Control_c, 0, 64, 53
2, 94640, Control_c, 0, 64, 52
2, 94678, Control_c, 0, 64, 52
2, 94793, Control_c, 0, 64, 52
2, 94812, Control_c, 0, 64, 53
2, 94850, Control_c, 0, 64, 54
2, 94871, Control_c, 0, 64, 54
2, 94871, Control_c, 0, 67, 127
2, 94890, Control_c, 0, 64, 55
2, 94910, Control_c, 0, 64, 55
2, 94910, Control_c, 0, 67, 126
2, 94928, Control_c, 0, 64, 57
2, 94928, Control_c, 0, 67, 126
2, 94948, Control_c, 0, 64, 58
2, 94948, Control_c, 0, 67, 125
2, 94967, Control_c, 0, 64, 59
2, 94967, Control_c, 0, 67, 125
2, 94986, Control_c, 0, 64, 60
2, 94986, Control_c, 0, 67, 124
2, 95005, Control_c, 0, 64, 61
2, 95005, Control_c, 0, 67, 124
2, 95025, Control_c, 0, 64, 61
2, 95025, Control_c, 0, 67, 123
2, 95044, Control_c, 0, 64, 62
2, 95063, Control_c, 0, 64, 63
2, 95063, Control_c, 0, 67, 123
2, 95082, Control_c, 0, 64, 63
2, 95082, Control_c, 0, 67, 122
2, 95102, Control_c, 0, 67, 122
2, 95120, Control_c, 0, 64, 64
2, 95120, Control_c, 0, 67, 121
2, 95120, Note_on_c, 0, 44, 0
2, 95140, Control_c, 0, 64, 65
2, 95140, Control_c, 0, 67, 121
2, 95159, Control_c, 0, 64, 65
2, 95179, Control_c, 0, 64, 66
2, 95179, Control_c, 0, 67, 120
2, 95197, Control_c, 0, 64, 67
2, 95217, Control_c, 0, 64, 68
2, 95236, Control_c, 0, 64, 70
2, 95236, Control_c, 0, 67, 120
2, 95256, Control_c, 0, 64, 73
2, 95274, Control_c, 0, 64, 76
2, 95286, Control_c, 0, 64, 80
2, 95306, Control_c, 0, 64, 86
2, 95325, Control_c, 0, 64, 93
2, 95325, Control_c, 0, 67, 120
2, 95345, Control_c, 0, 64, 99
2, 95345, Control_c, 0, 67, 121
2, 95363, Control_c, 0, 64, 102
2, 95363, Control_c, 0, 67, 121
2, 95383, Control_c, 0, 64, 104
2, 95402, Control_c, 0, 67, 122
2, 95421, Control_c, 0, 64, 106
2, 95421, Control_c, 0, 67, 122
2, 95440, Control_c, 0, 64, 108
2, 95440, Control_c, 0, 67, 123
2, 95460, Control_c, 0, 64, 110
2, 95460, Control_c, 0, 67, 124
2, 95479, Control_c, 0, 67, 125
2, 95498, Control_c, 0, 67, 125
2, 95517, Control_c, 0, 67, 126
2, 95519, Note_on_c, 0, 71, 0
2, 95537, Control_c, 0, 67, 127
2, 95555, Control_c, 0, 67, 127
2, 95574, Control_c, 0, 64, 109
2, 95594, Control_c, 0, 64, 107
2, 95609, Note_on_c, 0, 59, 48
2, 95613, Control_c, 0, 64, 107
2, 95632, Control_c, 0, 64, 106
2, 95651, Control_c, 0, 64, 106
2, 95671, Control_c, 0, 64, 105
2, 95690, Control_c, 0, 64, 103
2, 95709, Control_c, 0, 64, 102
2, 95728, Control_c, 0, 64, 101
2, 95748, Control_c, 0, 64, 99
2, 95766, Control_c, 0, 64, 97
2, 95786, Control_c, 0, 64, 95
2, 95805, Control_c, 0, 64, 94
2, 95835, Control_c, 0, 64, 92
2, 95854, Control_c, 0, 64, 90
2, 95870, Note_on_c, 0, 56, 47
2, 95873, Control_c, 0, 64, 87
2, 95885, Note_on_c, 0, 63, 33
2, 95889, Note_on_c, 0, 59, 0
2, 95892, Control_c, 0, 64, 83
2, 95912, Control_c, 0, 64, 80
2, 95913, Note_on_c, 0, 68, 47
2, 95930, Control_c, 0, 64, 78
2, 95950, Control_c, 0, 64, 75
2, 95969, Control_c, 0, 64, 72
2, 95970, Note_on_c, 0, 71, 46
2, 95989, Control_c, 0, 64, 68
2, 96007, Control_c, 0, 64, 64
2, 96027, Control_c, 0, 64, 62
2, 96046, Control_c, 0, 64, 61
2, 96104, Control_c, 0, 64, 61
2, 96142, Control_c, 0, 64, 60
2, 96161, Control_c, 0, 64, 60
2, 96290, Control_c, 0, 64, 60
2, 96310, Control_c, 0, 64, 61
2, 96329, Control_c, 0, 64, 61
2, 96349, Control_c, 0, 64, 62
2, 96367, Control_c, 0, 64, 63
2, 96387, Control_c, 0, 64, 63
2, 96406, Control_c, 0, 64, 64
2, 96425, Control_c, 0, 64, 64
2, 96444, Control_c, 0, 64, 65
2, 96464, Control_c, 0, 64, 66
2, 96483, Control_c, 0, 64, 68
2, 96502, Control_c, 0, 64, 69
2, 96521, Control_c, 0, 64, 71
2, 96541, Control_c, 0, 64, 74
2, 96560, Control_c, 0, 64, 79
2, 96579, Control_c, 0, 64, 86
2, 96598, Control_c, 0, 64, 92
2, 96618, Control_c, 0, 64, 97
2, 96636, Control_c, 0, 64, 101
2, 96656, Control_c, 0, 64, 108
2, 96675, Control_c, 0, 64, 127
2, 96783, Note_on_c, 0, 53, 61
2, 96797, Note_on_c, 0, 63, 0
2, 96818, Note_on_c, 0, 56, 0
2, 97049, Note_on_c, 0, 68, 0
2, 97075, Note_on_c, 0, 53, 0
2, 97105, Note_on_c, 0, 50, 47
2, 97121, Note_on_c, 0, 71, 0
2, 97221, Note_on_c, 0, 53, 40
2, 97250, Control_c, 0, 64, 113
2, 97270, Control_c, 0, 64, 107
2, 97289, Control_c, 0, 64, 105
2, 97304, Note_on_c, 0, 56, 50
2, 97305, Note_on_c, 0, 65, 41
2, 97309, Control_c, 0, 64, 103
2, 97327, Control_c, 0, 64, 101
2, 97345, Note_on_c, 0, 68, 59
2, 97347, Control_c, 0, 64, 96
2, 97366, Control_c, 0, 64, 92
2, 97385, Control_c, 0, 64, 89
2, 97404, Control_c, 0, 64, 82
2, 97418, Note_on_c, 0, 71, 65
2, 97424, Control_c, 0, 64, 74
2, 97443, Control_c, 0, 64, 66
2, 97462, Control_c, 0, 64, 59
2, 97481, Control_c, 0, 64, 50
2, 97501, Control_c, 0, 64, 49
2, 97673, Control_c, 0, 67, 127
2, 97730, Control_c, 0, 67, 126
2, 97750, Control_c, 0, 64, 49
2, 97810, Control_c, 0, 67, 127
2, 97868, Control_c, 0, 67, 127
2, 97964, Control_c, 0, 64, 51
2, 97983, Control_c, 0, 64, 53
2, 98003, Control_c, 0, 64, 56
2, 98021, Control_c, 0, 64, 59
2, 98041, Control_c, 0, 64, 62
2, 98060, Control_c, 0, 64, 64
2, 98073, Note_on_c, 0, 68, 0
2, 98079, Control_c, 0, 64, 65
2, 98098, Control_c, 0, 64, 68
2, 98118, Control_c, 0, 64, 73
2, 98137, Control_c, 0, 64, 80
2, 98156, Control_c, 0, 64, 90
2, 98175, Control_c, 0, 64, 100
2, 98195, Control_c, 0, 64, 107
2, 98213, Control_c, 0, 64, 112
2, 98233, Control_c, 0, 64, 115
2, 98272, Control_c, 0, 64, 116
2, 98290, Control_c, 0, 64, 117
2, 98295, Note_on_c, 0, 53, 0
2, 98310, Control_c, 0, 64, 119
2, 98310, Note_on_c, 0, 70, 70
2, 98329, Control_c, 0, 64, 123
2, 98397, Note_on_c, 0, 71, 0
2, 98428, Note_on_c, 0, 50, 0
2, 98468, Note_on_c, 0, 68, 79
2, 98493, Note_on_c, 0, 70, 0
2, 98516, Note_on_c, 0, 56, 0
2, 98521, Control_c, 0, 64, 121
2, 98540, Control_c, 0, 64, 119
2, 98559, Control_c, 0, 64, 117
2, 98570, Note_on_c, 0, 68, 0
2, 98578, Control_c, 0, 64, 115
2, 98598, Control_c, 0, 64, 114
2, 98617, Control_c, 0, 64, 113
2, 98619, Note_on_c, 0, 50, 44
2, 98620, Note_on_c, 0, 65, 0
2, 98636, Control_c, 0, 64, 112
2, 98655, Control_c, 0, 64, 110
2, 98675, Control_c, 0, 64, 107
2, 98693, Control_c, 0, 64, 104
2, 98713, Control_c, 0, 64, 102
2, 98732, Control_c, 0, 64, 100
2, 98736, Note_on_c, 0, 53, 46
2, 98752, Control_c, 0, 64, 98
2, 98770, Control_c, 0, 64, 94
2, 98790, Control_c, 0, 64, 90
2, 98809, Control_c, 0, 64, 86
2, 98825, Note_on_c, 0, 58, 44
2, 98828, Control_c, 0, 64, 83
2, 98847, Control_c, 0, 64, 79
2, 98850, Note_on_c, 0, 77, 75
2, 98866, Control_c, 0, 64, 73
2, 98886, Control_c, 0, 64, 67
2, 98904, Control_c, 0, 64, 61
2, 98924, Control_c, 0, 64, 54
2, 98943, Control_c, 0, 64, 53
2, 98963, Control_c, 0, 64, 52
2, 99020, Control_c, 0, 64, 52
2, 99039, Control_c, 0, 64, 51
2, 99270, Control_c, 0, 64, 52
2, 99289, Control_c, 0, 64, 52
2, 99308, Control_c, 0, 64, 53
2, 99327, Control_c, 0, 64, 54
2, 99346, Control_c, 0, 64, 55
2, 99366, Control_c, 0, 64, 55
2, 99384, Control_c, 0, 64, 57
2, 99404, Control_c, 0, 64, 58
2, 99423, Control_c, 0, 64, 60
2, 99443, Control_c, 0, 64, 61
2, 99461, Control_c, 0, 64, 62
2, 99481, Control_c, 0, 64, 64
2, 99500, Control_c, 0, 64, 65
2, 99519, Control_c, 0, 64, 68
2, 99538, Control_c, 0, 64, 73
2, 99558, Control_c, 0, 64, 82
2, 99577, Control_c, 0, 64, 94
2, 99596, Control_c, 0, 64, 110
2, 99615, Control_c, 0, 64, 127
2, 99791, Note_on_c, 0, 77, 0
2, 99793, Note_on_c, 0, 71, 57
2, 99874, Note_on_c, 0, 53, 0
2, 99901, Note_on_c, 0, 50, 0
2, 99961, Note_on_c, 0, 58, 0
2, 100018, Control_c, 0, 64, 117
2, 100038, Control_c, 0, 64, 112
2, 100054, Note_on_c, 0, 50, 53
2, 100057, Control_c, 0, 64, 109
2, 100076, Control_c, 0, 64, 106
2, 100095, Control_c, 0, 64, 102
2, 100115, Control_c, 0, 64, 99
2, 100133, Control_c, 0, 64, 94
2, 100133, Note_on_c, 0, 53, 41
2, 100153, Control_c, 0, 64, 88
2, 100172, Control_c, 0, 64, 82
2, 100192, Control_c, 0, 64, 74
2, 100210, Control_c, 0, 64, 66
2, 100230, Control_c, 0, 64, 56
2, 100249, Control_c, 0, 64, 39
2, 100259, Note_on_c, 0, 58, 38
2, 100261, Note_on_c, 0, 70, 61
2, 100268, Control_c, 0, 64, 25
2, 100268, Note_on_c, 0, 71, 0
2, 100287, Control_c, 0, 64, 20
2, 100326, Control_c, 0, 64, 24
2, 100344, Control_c, 0, 64, 40
2, 100364, Control_c, 0, 64, 55
2, 100383, Control_c, 0, 64, 63
2, 100403, Control_c, 0, 64, 66
2, 100421, Control_c, 0, 64, 71
2, 100441, Control_c, 0, 64, 79
2, 100460, Control_c, 0, 64, 88
2, 100479, Control_c, 0, 64, 94
2, 100498, Control_c, 0, 64, 95
2, 100523, Note_on_c, 0, 70, 0
2, 100545, Note_on_c, 0, 71, 50
2, 100645, Note_on_c, 0, 71, 0
2, 100691, Control_c, 0, 64, 94
2, 100701, Note_on_c, 0, 70, 47
2, 100749, Control_c, 0, 64, 94
2, 100755, Note_on_c, 0, 70, 0
2, 100807, Note_on_c, 0, 71, 43
2, 100842, Note_on_c, 0, 71, 0
2, 100864, Control_c, 0, 64, 93
2, 100869, Note_on_c, 0, 70, 62
2, 100924, Note_on_c, 0, 70, 0
2, 100954, Note_on_c, 0, 71, 46
2, 101018, Note_on_c, 0, 71, 0
2, 101054, Note_on_c, 0, 70, 45
2, 101112, Control_c, 0, 64, 93
2, 101131, Control_c, 0, 64, 92
2, 101151, Control_c, 0, 64, 88
2, 101169, Control_c, 0, 64, 80
2, 101189, Control_c, 0, 64, 71
2, 101208, Control_c, 0, 64, 63
2, 101228, Control_c, 0, 64, 57
2, 101246, Control_c, 0, 64, 56
2, 101265, Control_c, 0, 64, 58
2, 101285, Control_c, 0, 64, 60
2, 101303, Control_c, 0, 64, 62
2, 101323, Control_c, 0, 64, 64
2, 101342, Control_c, 0, 64, 66
2, 101362, Control_c, 0, 64, 68
2, 101364, Note_on_c, 0, 70, 0
2, 101378, Note_on_c, 0, 71, 42
2, 101380, Control_c, 0, 64, 70
2, 101400, Control_c, 0, 64, 74
2, 101400, Note_on_c, 0, 53, 0
2, 101419, Control_c, 0, 64, 78
2, 101438, Control_c, 0, 64, 83
2, 101457, Control_c, 0, 64, 85
2, 101476, Note_on_c, 0, 71, 0
2, 101477, Control_c, 0, 64, 86
2, 101485, Note_on_c, 0, 50, 0
2, 101521, Note_on_c, 0, 68, 56
2, 101534, Control_c, 0, 64, 87
2, 101554, Control_c, 0, 64, 88
2, 101571, Note_on_c, 0, 68, 0
2, 101573, Control_c, 0, 64, 88
2, 101578, Note_on_c, 0, 58, 0
2, 101653, Control_c, 0, 64, 88
2, 101673, Control_c, 0, 64, 86
2, 101692, Control_c, 0, 64, 86
2, 101711, Control_c, 0, 64, 85
2, 101728, Note_on_c, 0, 51, 28
2, 101730, Control_c, 0, 64, 84
2, 101750, Control_c, 0, 64, 83
2, 101768, Control_c, 0, 64, 82
2, 101775, Note_on_c, 0, 54, 37
2, 101788, Control_c, 0, 64, 81
2, 101807, Control_c, 0, 64, 80
2, 101826, Control_c, 0, 64, 78
2, 101845, Control_c, 0, 64, 76
2, 101864, Control_c, 0, 64, 73
2, 101871, Note_on_c, 0, 58, 23
2, 101884, Control_c, 0, 64, 70
2, 101885, Note_on_c, 0, 66, 50
2, 101888, Note_on_c, 0, 63, 21
2, 101903, Control_c, 0, 64, 67
2, 101922, Control_c, 0, 64, 65
2, 101941, Control_c, 0, 64, 63
2, 101961, Control_c, 0, 64, 59
2, 101979, Control_c, 0, 64, 54
2, 101999, Control_c, 0, 64, 48
2, 102015, Control_c, 0, 64, 43
2, 102035, Control_c, 0, 64, 38
2, 102053, Control_c, 0, 64, 35
2, 102073, Control_c, 0, 64, 32
2, 102092, Control_c, 0, 64, 31
2, 102112, Control_c, 0, 64, 31
2, 102130, Control_c, 0, 64, 30
2, 102150, Control_c, 0, 64, 29
2, 102169, Control_c, 0, 64, 29
2, 102189, Control_c, 0, 64, 28
2, 102284, Control_c, 0, 64, 30
2, 102303, Control_c, 0, 64, 36
2, 102323, Control_c, 0, 64, 43
2, 102341, Control_c, 0, 64, 50
2, 102361, Control_c, 0, 64, 55
2, 102380, Control_c, 0, 64, 59
2, 102399, Control_c, 0, 64, 61
2, 102418, Control_c, 0, 64, 62
2, 102438, Control_c, 0, 64, 64
2, 102457, Control_c, 0, 64, 65
2, 102476, Control_c, 0, 64, 68
2, 102495, Control_c, 0, 64, 72
2, 102515, Control_c, 0, 64, 77
2, 102533, Control_c, 0, 64, 83
2, 102554, Control_c, 0, 64, 89
2, 102567, Note_on_c, 0, 54, 0
2, 102573, Control_c, 0, 64, 91
2, 102650, Control_c, 0, 64, 90
2, 102688, Control_c, 0, 64, 90
2, 102740, Note_on_c, 0, 58, 0
2, 102753, Note_on_c, 0, 51, 0
2, 102919, Control_c, 0, 64, 89
2, 102938, Control_c, 0, 64, 88
2, 102957, Control_c, 0, 64, 87
2, 102975, Control_c, 0, 64, 86
2, 102995, Control_c, 0, 64, 85
2, 103013, Control_c, 0, 64, 84
2, 103033, Control_c, 0, 64, 84
2, 103052, Control_c, 0, 64, 83
2, 103072, Control_c, 0, 64, 82
2, 103090, Control_c, 0, 64, 82
2, 103110, Control_c, 0, 64, 81
2, 103129, Control_c, 0, 64, 80
2, 103149, Control_c, 0, 64, 79
2, 103167, Control_c, 0, 64, 79
2, 103186, Control_c, 0, 64, 78
2, 103206, Control_c, 0, 64, 78
2, 103224, Control_c, 0, 64, 77
2, 103239, Note_on_c, 0, 63, 0
2, 103244, Control_c, 0, 64, 77
2, 103254, Note_on_c, 0, 51, 27
2, 103283, Control_c, 0, 64, 76
2, 103301, Control_c, 0, 64, 76
2, 103316, Note_on_c, 0, 54, 22
2, 103321, Control_c, 0, 64, 74
2, 103340, Control_c, 0, 64, 71
2, 103359, Control_c, 0, 64, 67
2, 103374, Note_on_c, 0, 58, 29
2, 103378, Control_c, 0, 64, 63
2, 103398, Control_c, 0, 64, 59
2, 103417, Control_c, 0, 64, 55
2, 103436, Control_c, 0, 64, 53
2, 103475, Control_c, 0, 64, 54
2, 103493, Control_c, 0, 64, 55
2, 103514, Control_c, 0, 64, 58
2, 103533, Control_c, 0, 64, 60
2, 103553, Control_c, 0, 64, 62
2, 103571, Control_c, 0, 64, 63
2, 103591, Control_c, 0, 64, 64
2, 103610, Control_c, 0, 64, 65
2, 103629, Control_c, 0, 64, 66
2, 103648, Control_c, 0, 64, 66
2, 103667, Control_c, 0, 64, 67
2, 103687, Control_c, 0, 64, 68
2, 103705, Control_c, 0, 64, 69
2, 103725, Control_c, 0, 64, 70
2, 103744, Control_c, 0, 64, 71
2, 103745, Note_on_c, 0, 63, 17
2, 103763, Control_c, 0, 64, 73
2, 103782, Control_c, 0, 64, 74
2, 103802, Control_c, 0, 64, 77
2, 103821, Control_c, 0, 64, 79
2, 103840, Control_c, 0, 64, 80
2, 103843, Note_on_c, 0, 66, 0
2, 103859, Control_c, 0, 64, 81
2, 103942, Note_on_c, 0, 63, 0
2, 103957, Note_on_c, 0, 65, 32
2, 104087, Note_on_c, 0, 65, 0
2, 104131, Note_on_c, 0, 66, 51
2, 104184, Control_c, 0, 64, 81
2, 104243, Control_c, 0, 64, 82
2, 104275, Note_on_c, 0, 66, 0
2, 104283, Note_on_c, 0, 68, 60
2, 104319, Control_c, 0, 64, 82
2, 104377, Control_c, 0, 64, 83
2, 104427, Note_on_c, 0, 70, 61
2, 104435, Control_c, 0, 64, 83
2, 104450, Note_on_c, 0, 68, 0
2, 104490, Control_c, 0, 64, 84
2, 104514, Note_on_c, 0, 70, 0
2, 104547, Control_c, 0, 64, 83
2, 104553, Note_on_c, 0, 72, 68
2, 104554, Note_on_c, 0, 54, 0
2, 104566, Note_on_c, 0, 51, 0
2, 104605, Control_c, 0, 64, 83
2, 104624, Control_c, 0, 64, 82
2, 104641, Note_on_c, 0, 58, 0
2, 104644, Control_c, 0, 64, 82
2, 104663, Control_c, 0, 64, 81
2, 104678, Note_on_c, 0, 72, 0
2, 104682, Control_c, 0, 64, 80
2, 104701, Control_c, 0, 64, 80
2, 104702, Note_on_c, 0, 74, 62
2, 104721, Control_c, 0, 64, 79
2, 104725, Note_on_c, 0, 51, 32
2, 104739, Control_c, 0, 64, 78
2, 104759, Control_c, 0, 64, 76
2, 104778, Control_c, 0, 64, 73
2, 104798, Control_c, 0, 64, 69
2, 104816, Control_c, 0, 64, 64
2, 104827, Note_on_c, 0, 54, 34
2, 104836, Control_c, 0, 64, 56
2, 104847, Note_on_c, 0, 75, 76
2, 104855, Control_c, 0, 64, 47
2, 104873, Note_on_c, 0, 74, 0
2, 104874, Control_c, 0, 64, 47
2, 104892, Note_on_c, 0, 58, 37
2, 104893, Control_c, 0, 64, 51
2, 104913, Control_c, 0, 64, 56
2, 104932, Control_c, 0, 64, 60
2, 104951, Control_c, 0, 64, 62
2, 104970, Control_c, 0, 64, 64
2, 104990, Control_c, 0, 64, 65
2, 105008, Control_c, 0, 64, 67
2, 105027, Control_c, 0, 64, 69
2, 105039, Note_on_c, 0, 77, 73
2, 105047, Control_c, 0, 64, 72
2, 105055, Note_on_c, 0, 75, 0
2, 105066, Control_c, 0, 64, 75
2, 105085, Control_c, 0, 64, 77
2, 105104, Control_c, 0, 64, 77
2, 105124, Control_c, 0, 64, 77
2, 105143, Control_c, 0, 64, 76
2, 105181, Control_c, 0, 64, 76
2, 105191, Note_on_c, 0, 78, 77
2, 105201, Control_c, 0, 64, 75
2, 105219, Control_c, 0, 64, 72
2, 105239, Control_c, 0, 64, 66
2, 105242, Note_on_c, 0, 77, 0
2, 105258, Control_c, 0, 64, 61
2, 105278, Control_c, 0, 64, 59
2, 105296, Control_c, 0, 64, 60
2, 105316, Control_c, 0, 64, 61
2, 105335, Control_c, 0, 64, 63
2, 105351, Note_on_c, 0, 80, 77
2, 105354, Control_c, 0, 64, 64
2, 105373, Control_c, 0, 64, 65
2, 105393, Control_c, 0, 64, 66
2, 105399, Note_on_c, 0, 78, 0
2, 105471, Control_c, 0, 64, 67
2, 105489, Control_c, 0, 64, 68
2, 105489, Control_c, 0, 67, 124
2, 105509, Control_c, 0, 64, 69
2, 105509, Control_c, 0, 67, 120
2, 105518, Note_on_c, 0, 78, 82
2, 105528, Control_c, 0, 64, 71
2, 105528, Control_c, 0, 67, 115
2, 105547, Control_c, 0, 64, 73
2, 105547, Control_c, 0, 67, 111
2, 105566, Control_c, 0, 64, 75
2, 105566, Control_c, 0, 67, 106
2, 105585, Control_c, 0, 64, 77
2, 105585, Control_c, 0, 67, 103
2, 105600, Note_on_c, 0, 80, 0
2, 105605, Control_c, 0, 64, 78
2, 105605, Control_c, 0, 67, 102
2, 105619, Note_on_c, 0, 58, 0
2, 105643, Control_c, 0, 64, 79
2, 105662, Control_c, 0, 64, 79
2, 105670, Note_on_c, 0, 51, 0
2, 105675, Note_on_c, 0, 77, 82
2, 105682, Control_c, 0, 64, 80
2, 105700, Control_c, 0, 64, 82
2, 105700, Control_c, 0, 67, 102
2, 105702, Note_on_c, 0, 78, 0
2, 105713, Note_on_c, 0, 54, 0
2, 105720, Control_c, 0, 64, 82
2, 105720, Control_c, 0, 67, 101
2, 105777, Control_c, 0, 64, 83
2, 105777, Control_c, 0, 67, 100
2, 105816, Control_c, 0, 64, 83
2, 105816, Control_c, 0, 67, 100
2, 105835, Control_c, 0, 64, 85
2, 105835, Control_c, 0, 67, 99
2, 105845, Control_c, 0, 64, 87
2, 105845, Control_c, 0, 67, 98
2, 105858, Note_on_c, 0, 78, 60
2, 105863, Control_c, 0, 64, 89
2, 105863, Control_c, 0, 67, 92
2, 105883, Control_c, 0, 64, 90
2, 105883, Control_c, 0, 67, 83
2, 105902, Control_c, 0, 64, 91
2, 105902, Control_c, 0, 67, 70
2, 105922, Control_c, 0, 64, 92
2, 105922, Control_c, 0, 67, 56
2, 105940, Control_c, 0, 64, 94
2, 105940, Control_c, 0, 67, 39
2, 105946, Note_on_c, 0, 77, 0
2, 105960, Control_c, 0, 64, 95
2, 105960, Control_c, 0, 67, 20
2, 105979, Control_c, 0, 64, 96
2, 105979, Control_c, 0, 67, 0
2, 106076, Note_on_c, 0, 75, 82
2, 106114, Control_c, 0, 64, 97
2, 106133, Control_c, 0, 64, 97
2, 106152, Control_c, 0, 64, 98
2, 106171, Control_c, 0, 64, 99
2, 106191, Control_c, 0, 64, 99
2, 106199, Note_on_c, 0, 78, 0
2, 106229, Control_c, 0, 64, 100
2, 106261, Note_on_c, 0, 75, 0
2, 106343, Note_on_c, 0, 44, 78
2, 106363, Control_c, 0, 64, 99
2, 106382, Control_c, 0, 64, 99
2, 106411, Control_c, 0, 64, 96
2, 106431, Control_c, 0, 64, 89
2, 106449, Control_c, 0, 64, 78
2, 106469, Control_c, 0, 64, 69
2, 106488, Control_c, 0, 64, 63
2, 106507, Control_c, 0, 64, 61
2, 106565, Control_c, 0, 64, 62
2, 106583, Control_c, 0, 64, 63
2, 106603, Control_c, 0, 64, 65
2, 106622, Control_c, 0, 64, 66
2, 106642, Control_c, 0, 64, 68
2, 106642, Note_on_c, 0, 47, 59
2, 106660, Control_c, 0, 64, 70
2, 106680, Control_c, 0, 64, 71
2, 106699, Control_c, 0, 64, 73
2, 106703, Note_on_c, 0, 52, 60
2, 106718, Control_c, 0, 64, 74
2, 106753, Note_on_c, 0, 56, 59
2, 106776, Control_c, 0, 64, 74
2, 106799, Note_on_c, 0, 64, 56
2, 106813, Control_c, 0, 64, 75
2, 106813, Note_on_c, 0, 68, 65
2, 106833, Control_c, 0, 64, 75
2, 106852, Control_c, 0, 64, 76
2, 106865, Note_on_c, 0, 71, 61
2, 106902, Note_on_c, 0, 76, 86
2, 106928, Control_c, 0, 64, 75
2, 106947, Control_c, 0, 64, 73
2, 106967, Control_c, 0, 64, 69
2, 106986, Control_c, 0, 64, 64
2, 107005, Control_c, 0, 64, 57
2, 107024, Control_c, 0, 64, 44
2, 107044, Control_c, 0, 64, 34
2, 107063, Control_c, 0, 64, 30
2, 107082, Control_c, 0, 64, 29
2, 107274, Control_c, 0, 64, 29
2, 107293, Control_c, 0, 64, 30
2, 107313, Control_c, 0, 64, 31
2, 107332, Control_c, 0, 64, 33
2, 107351, Control_c, 0, 64, 35
2, 107371, Control_c, 0, 64, 36
2, 107391, Control_c, 0, 64, 39
2, 107409, Control_c, 0, 64, 40
2, 107428, Control_c, 0, 64, 41
2, 107448, Control_c, 0, 64, 42
2, 107467, Control_c, 0, 64, 42
2, 107486, Control_c, 0, 64, 43
2, 107505, Control_c, 0, 64, 44
2, 107525, Control_c, 0, 64, 46
2, 107543, Control_c, 0, 64, 48
2, 107563, Control_c, 0, 64, 49
2, 107582, Control_c, 0, 64, 51
2, 107602, Control_c, 0, 64, 52
2, 107620, Control_c, 0, 64, 54
2, 107640, Control_c, 0, 64, 55
2, 107659, Control_c, 0, 64, 56
2, 107678, Control_c, 0, 64, 57
2, 107697, Control_c, 0, 64, 58
2, 107717, Control_c, 0, 64, 59
2, 107736, Control_c, 0, 64, 60
2, 107755, Control_c, 0, 64, 61
2, 107774, Control_c, 0, 64, 62
2, 107794, Control_c, 0, 64, 63
2, 107813, Control_c, 0, 64, 63
2, 107832, Control_c, 0, 64, 64
2, 107851, Control_c, 0, 64, 66
2, 107871, Control_c, 0, 64, 69
2, 107889, Control_c, 0, 64, 72
2, 107908, Control_c, 0, 64, 75
2, 107928, Control_c, 0, 64, 79
2, 107947, Control_c, 0, 64, 81
2, 107966, Control_c, 0, 64, 82
2, 107985, Control_c, 0, 64, 83
2, 108066, Note_on_c, 0, 76, 0
2, 108094, Note_on_c, 0, 71, 0
2, 108113, Note_on_c, 0, 64, 0
2, 108114, Note_on_c, 0, 68, 0
2, 108351, Control_c, 0, 64, 82
2, 108463, Control_c, 0, 64, 82
2, 108470, Note_on_c, 0, 71, 70
2, 108501, Control_c, 0, 64, 81
2, 108520, Control_c, 0, 64, 81
2, 108540, Control_c, 0, 64, 80
2, 108559, Control_c, 0, 64, 79
2, 108578, Control_c, 0, 64, 78
2, 108595, Note_on_c, 0, 69, 82
2, 108597, Control_c, 0, 64, 77
2, 108616, Control_c, 0, 64, 76
2, 108635, Control_c, 0, 64, 75
2, 108654, Control_c, 0, 64, 74
2, 108674, Control_c, 0, 64, 73
2, 108693, Control_c, 0, 64, 71
2, 108712, Control_c, 0, 64, 71
2, 108731, Control_c, 0, 64, 69
2, 108751, Control_c, 0, 64, 67
2, 108767, Note_on_c, 0, 68, 78
2, 108770, Control_c, 0, 64, 65
2, 108789, Control_c, 0, 64, 62
2, 108807, Note_on_c, 0, 71, 0
2, 108808, Control_c, 0, 64, 60
2, 108828, Control_c, 0, 64, 58
2, 108835, Note_on_c, 0, 69, 0
2, 108843, Note_on_c, 0, 44, 0
2, 108845, Note_on_c, 0, 52, 0
2, 108846, Control_c, 0, 64, 55
2, 108856, Note_on_c, 0, 47, 0
2, 108856, Note_on_c, 0, 56, 0
2, 108866, Control_c, 0, 64, 51
2, 108885, Control_c, 0, 64, 47
2, 108905, Control_c, 0, 64, 44
2, 108923, Control_c, 0, 64, 42
2, 108943, Control_c, 0, 64, 40
2, 108962, Control_c, 0, 64, 36
2, 108981, Control_c, 0, 64, 32
2, 109000, Control_c, 0, 64, 28
2, 109020, Control_c, 0, 64, 23
2, 109039, Control_c, 0, 64, 19
2, 109058, Control_c, 0, 64, 15
2, 109077, Control_c, 0, 64, 11
2, 109096, Control_c, 0, 64, 9
2, 109596, Control_c, 0, 64, 11
2, 109673, Control_c, 0, 64, 13
2, 109730, Control_c, 0, 64, 15
2, 109768, Control_c, 0, 64, 17
2, 109806, Control_c, 0, 64, 18
2, 109845, Control_c, 0, 64, 19
2, 109883, Control_c, 0, 64, 20
2, 109981, Note_on_c, 0, 69, 72
2, 110123, Note_on_c, 0, 71, 76
2, 110181, Note_on_c, 0, 68, 0
2, 110212, Note_on_c, 0, 69, 0
2, 110306, Control_c, 0, 64, 19
2, 110317, Note_on_c, 0, 64, 76
2, 110325, Control_c, 0, 64, 18
2, 110335, Note_on_c, 0, 71, 0
2, 110345, Control_c, 0, 64, 17
2, 110363, Control_c, 0, 64, 15
2, 110383, Control_c, 0, 64, 13
2, 110402, Control_c, 0, 64, 11
2, 110421, Control_c, 0, 64, 9
2, 110440, Control_c, 0, 64, 0
2, 110882, Control_c, 0, 64, 9
2, 110901, Control_c, 0, 64, 15
2, 110920, Control_c, 0, 64, 21
2, 110940, Control_c, 0, 64, 29
2, 110959, Control_c, 0, 64, 37
2, 110977, Control_c, 0, 64, 45
2, 110997, Control_c, 0, 64, 51
2, 111016, Control_c, 0, 64, 55
2, 111035, Control_c, 0, 64, 56
2, 111054, Control_c, 0, 64, 57
2, 111074, Control_c, 0, 64, 58
2, 111093, Control_c, 0, 64, 60
2, 111112, Control_c, 0, 64, 61
2, 111131, Control_c, 0, 64, 61
2, 111151, Control_c, 0, 64, 62
2, 111189, Control_c, 0, 64, 62
2, 111208, Control_c, 0, 64, 63
2, 111228, Control_c, 0, 64, 63
2, 111246, Control_c, 0, 64, 64
2, 111266, Control_c, 0, 64, 64
2, 111285, Control_c, 0, 64, 65
2, 111305, Control_c, 0, 64, 65
2, 111323, Control_c, 0, 64, 66
2, 111343, Control_c, 0, 64, 66
2, 111362, Control_c, 0, 64, 67
2, 111372, Note_on_c, 0, 66, 73
2, 111381, Control_c, 0, 64, 69
2, 111400, Control_c, 0, 64, 71
2, 111420, Control_c, 0, 64, 75
2, 111434, Note_on_c, 0, 64, 0
2, 111439, Control_c, 0, 64, 79
2, 111457, Control_c, 0, 64, 83
2, 111477, Control_c, 0, 64, 85
2, 111496, Control_c, 0, 64, 86
2, 111515, Control_c, 0, 64, 87
2, 111534, Control_c, 0, 64, 87
2, 111629, Note_on_c, 0, 68, 83
2, 111682, Note_on_c, 0, 66, 0
2, 111711, Note_on_c, 0, 68, 0
2, 111726, Control_c, 0, 64, 87
2, 111785, Control_c, 0, 64, 86
2, 111900, Control_c, 0, 64, 86
2, 111937, Control_c, 0, 64, 85
2, 111957, Control_c, 0, 64, 85
2, 111976, Control_c, 0, 64, 84
2, 111995, Control_c, 0, 64, 83
2, 112014, Control_c, 0, 64, 82
2, 112034, Control_c, 0, 64, 82
2, 112053, Control_c, 0, 64, 81
2, 112072, Control_c, 0, 64, 80
2, 112084, Note_on_c, 0, 44, 57
2, 112091, Control_c, 0, 64, 79
2, 112111, Control_c, 0, 64, 78
2, 112115, Note_on_c, 0, 58, 69
2, 112124, Note_on_c, 0, 53, 64
2, 112126, Note_on_c, 0, 62, 67
2, 112130, Control_c, 0, 64, 76
2, 112149, Control_c, 0, 64, 74
2, 112168, Control_c, 0, 64, 70
2, 112188, Control_c, 0, 64, 65
2, 112206, Control_c, 0, 64, 60
2, 112226, Control_c, 0, 64, 52
2, 112245, Control_c, 0, 64, 46
2, 112265, Control_c, 0, 64, 44
2, 112283, Control_c, 0, 64, 42
2, 112303, Control_c, 0, 64, 42
2, 112475, Control_c, 0, 64, 41
2, 112721, Control_c, 0, 64, 42
2, 112779, Control_c, 0, 64, 43
2, 112798, Control_c, 0, 64, 43
2, 112817, Control_c, 0, 64, 45
2, 112836, Control_c, 0, 64, 48
2, 112855, Control_c, 0, 64, 51
2, 112875, Control_c, 0, 64, 56
2, 112894, Control_c, 0, 64, 60
2, 112913, Control_c, 0, 64, 62
2, 112932, Control_c, 0, 64, 64
2, 112952, Control_c, 0, 64, 67
2, 112970, Control_c, 0, 64, 71
2, 112990, Control_c, 0, 64, 77
2, 113009, Control_c, 0, 64, 86
2, 113029, Control_c, 0, 64, 93
2, 113030, Note_on_c, 0, 53, 0
2, 113047, Control_c, 0, 64, 96
2, 113067, Control_c, 0, 64, 97
2, 113086, Control_c, 0, 64, 98
2, 113086, Note_on_c, 0, 58, 0
2, 113106, Control_c, 0, 64, 98
2, 113112, Note_on_c, 0, 62, 0
2, 113225, Control_c, 0, 64, 98
2, 113263, Control_c, 0, 64, 97
2, 113301, Control_c, 0, 64, 97
2, 113320, Control_c, 0, 64, 96
2, 113340, Control_c, 0, 64, 96
2, 113359, Control_c, 0, 64, 95
2, 113377, Control_c, 0, 64, 95
2, 113397, Control_c, 0, 64, 94
2, 113416, Control_c, 0, 64, 93
2, 113435, Control_c, 0, 64, 92
2, 113454, Control_c, 0, 64, 91
2, 113474, Control_c, 0, 64, 90
2, 113493, Control_c, 0, 64, 88
2, 113512, Control_c, 0, 64, 86
2, 113516, Note_on_c, 0, 65, 51
2, 113531, Control_c, 0, 64, 83
2, 113551, Control_c, 0, 64, 81
2, 113570, Control_c, 0, 64, 79
2, 113589, Control_c, 0, 64, 77
2, 113608, Control_c, 0, 64, 75
2, 113628, Control_c, 0, 64, 73
2, 113646, Control_c, 0, 64, 70
2, 113650, Note_on_c, 0, 65, 0
2, 113661, Note_on_c, 0, 68, 52
2, 113666, Control_c, 0, 64, 68
2, 113685, Control_c, 0, 64, 66
2, 113705, Control_c, 0, 64, 65
2, 113723, Control_c, 0, 64, 65
2, 113743, Control_c, 0, 64, 64
2, 113762, Control_c, 0, 64, 63
2, 113781, Control_c, 0, 64, 62
2, 113800, Control_c, 0, 64, 61
2, 113814, Note_on_c, 0, 44, 0
2, 113820, Control_c, 0, 64, 61
2, 113824, Note_on_c, 0, 71, 46
2, 113839, Control_c, 0, 64, 60
2, 113852, Note_on_c, 0, 68, 0
2, 113857, Control_c, 0, 64, 59
2, 113877, Control_c, 0, 64, 57
2, 113896, Control_c, 0, 64, 55
2, 113915, Control_c, 0, 64, 53
2, 113934, Control_c, 0, 64, 53
2, 113954, Control_c, 0, 64, 52
2, 113973, Control_c, 0, 64, 51
2, 113992, Control_c, 0, 64, 51
2, 114011, Control_c, 0, 64, 50
2, 114031, Control_c, 0, 64, 49
2, 114050, Control_c, 0, 64, 48
2, 114089, Control_c, 0, 64, 48
2, 114109, Control_c, 0, 64, 47
2, 114127, Control_c, 0, 64, 47
2, 114204, Control_c, 0, 64, 46
2, 114320, Control_c, 0, 64, 47
2, 114338, Control_c, 0, 64, 47
2, 114435, Control_c, 0, 64, 48
2, 114490, Control_c, 0, 64, 48
2, 114511, Control_c, 0, 64, 50
2, 114530, Control_c, 0, 64, 51
2, 114549, Control_c, 0, 64, 53
2, 114568, Control_c, 0, 64, 56
2, 114588, Control_c, 0, 64, 58
2, 114606, Control_c, 0, 64, 60
2, 114626, Control_c, 0, 64, 61
2, 114645, Control_c, 0, 64, 62
2, 114665, Control_c, 0, 64, 63
2, 114683, Control_c, 0, 64, 63
2, 114703, Control_c, 0, 64, 64
2, 114722, Control_c, 0, 64, 65
2, 114741, Control_c, 0, 64, 65
2, 114753, Note_on_c, 0, 71, 0
2, 114755, Note_on_c, 0, 70, 61
2, 114760, Control_c, 0, 64, 66
2, 114780, Control_c, 0, 64, 67
2, 114799, Control_c, 0, 64, 68
2, 114817, Control_c, 0, 64, 70
2, 114837, Control_c, 0, 64, 73
2, 114849, Note_on_c, 0, 70, 0
2, 114856, Control_c, 0, 64, 76
2, 114875, Control_c, 0, 64, 79
2, 114894, Control_c, 0, 64, 81
2, 114902, Note_on_c, 0, 68, 73
2, 115010, Control_c, 0, 64, 80
2, 115049, Control_c, 0, 64, 79
2, 115069, Control_c, 0, 64, 79
2, 115087, Control_c, 0, 64, 77
2, 115102, Note_on_c, 0, 77, 86
2, 115107, Control_c, 0, 64, 75
2, 115125, Note_on_c, 0, 68, 0
2, 115126, Control_c, 0, 64, 71
2, 115146, Control_c, 0, 64, 65
2, 115164, Control_c, 0, 64, 58
2, 115184, Control_c, 0, 64, 41
2, 115203, Control_c, 0, 64, 0
2, 115395, Control_c, 0, 64, 13
2, 115414, Control_c, 0, 64, 25
2, 115433, Control_c, 0, 64, 32
2, 115451, Control_c, 0, 64, 37
2, 115470, Control_c, 0, 64, 41
2, 115489, Control_c, 0, 64, 44
2, 115508, Control_c, 0, 64, 45
2, 115527, Control_c, 0, 64, 46
2, 115604, Control_c, 0, 64, 44
2, 115624, Control_c, 0, 64, 44
2, 115681, Control_c, 0, 64, 45
2, 115701, Control_c, 0, 64, 51
2, 115719, Control_c, 0, 64, 57
2, 115738, Control_c, 0, 64, 59
2, 115758, Control_c, 0, 64, 61
2, 115776, Control_c, 0, 64, 62
2, 115796, Control_c, 0, 64, 63
2, 115815, Control_c, 0, 64, 64
2, 115835, Control_c, 0, 64, 65
2, 115853, Control_c, 0, 64, 66
2, 115873, Control_c, 0, 64, 67
2, 115892, Control_c, 0, 64, 68
2, 115908, Note_on_c, 0, 75, 84
2, 115911, Control_c, 0, 64, 69
2, 115930, Control_c, 0, 64, 71
2, 115950, Control_c, 0, 64, 73
2, 115957, Note_on_c, 0, 77, 0
2, 115969, Control_c, 0, 64, 73
2, 115988, Control_c, 0, 64, 74
2, 116028, Control_c, 0, 64, 74
2, 116046, Control_c, 0, 64, 75
2, 116066, Control_c, 0, 64, 76
2, 116074, Note_on_c, 0, 74, 81
2, 116086, Note_on_c, 0, 75, 0
2, 116200, Control_c, 0, 64, 75
2, 116239, Control_c, 0, 64, 75
2, 116257, Control_c, 0, 64, 74
2, 116277, Control_c, 0, 64, 74
2, 116287, Note_on_c, 0, 74, 0
2, 116296, Control_c, 0, 64, 73
2, 116354, Control_c, 0, 64, 73
2, 116373, Control_c, 0, 64, 72
2, 116392, Control_c, 0, 64, 70
2, 116404, Note_on_c, 0, 83, 93
2, 116411, Control_c, 0, 64, 66
2, 116431, Control_c, 0, 64, 59
2, 116450, Control_c, 0, 64, 44
2, 116469, Control_c, 0, 64, 21
2, 116488, Control_c, 0, 64, 0
2, 116526, Control_c, 0, 64, 11
2, 116546, Control_c, 0, 64, 38
2, 116565, Control_c, 0, 64, 56
2, 116585, Control_c, 0, 64, 62
2, 116603, Control_c, 0, 64, 63
2, 116623, Control_c, 0, 64, 64
2, 116700, Control_c, 0, 64, 63
2, 116737, Control_c, 0, 64, 64
2, 116834, Control_c, 0, 64, 63
2, 116853, Control_c, 0, 64, 59
2, 116872, Control_c, 0, 64, 48
2, 116883, Note_on_c, 0, 81, 92
2, 116891, Control_c, 0, 64, 31
2, 116911, Control_c, 0, 64, 17
2, 116930, Control_c, 0, 64, 13
2, 116951, Control_c, 0, 64, 15
2, 116970, Control_c, 0, 64, 29
2, 116990, Control_c, 0, 64, 44
2, 117008, Control_c, 0, 64, 51
2, 117028, Control_c, 0, 64, 52
2, 117066, Control_c, 0, 64, 53
2, 117105, Control_c, 0, 64, 53
2, 117162, Control_c, 0, 64, 53
2, 117194, Note_on_c, 0, 83, 0
2, 117239, Control_c, 0, 64, 51
2, 117258, Control_c, 0, 64, 48
2, 117277, Control_c, 0, 64, 45
2, 117296, Control_c, 0, 64, 44
2, 117316, Control_c, 0, 64, 43
2, 117335, Control_c, 0, 64, 42
2, 117409, Control_c, 0, 64, 43
2, 117428, Control_c, 0, 64, 45
2, 117447, Control_c, 0, 64, 48
2, 117467, Control_c, 0, 64, 51
2, 117485, Control_c, 0, 64, 53
2, 117505, Control_c, 0, 64, 54
2, 117524, Control_c, 0, 64, 56
2, 117544, Control_c, 0, 64, 57
2, 117562, Control_c, 0, 64, 58
2, 117582, Control_c, 0, 64, 59
2, 117601, Control_c, 0, 64, 59
2, 117621, Control_c, 0, 64, 60
2, 117639, Control_c, 0, 64, 60
2, 117658, Control_c, 0, 64, 61
2, 117716, Control_c, 0, 64, 60
2, 117735, Control_c, 0, 64, 59
2, 117755, Control_c, 0, 64, 58
2, 117773, Control_c, 0, 64, 57
2, 117793, Control_c, 0, 64, 54
2, 117812, Control_c, 0, 64, 50
2, 117831, Control_c, 0, 64, 48
2, 117832, Note_on_c, 0, 81, 0
2, 117850, Control_c, 0, 64, 46
2, 117870, Control_c, 0, 64, 45
2, 117987, Control_c, 0, 64, 46
2, 117996, Note_on_c, 0, 82, 92
2, 118006, Control_c, 0, 64, 46
2, 118026, Control_c, 0, 64, 48
2, 118044, Control_c, 0, 64, 49
2, 118064, Control_c, 0, 64, 51
2, 118083, Control_c, 0, 64, 53
2, 118102, Control_c, 0, 64, 55
2, 118121, Control_c, 0, 64, 57
2, 118141, Control_c, 0, 64, 59
2, 118160, Control_c, 0, 64, 61
2, 118178, Control_c, 0, 64, 62
2, 118198, Control_c, 0, 64, 63
2, 118217, Control_c, 0, 64, 63
2, 118236, Control_c, 0, 64, 64
2, 118255, Control_c, 0, 64, 65
2, 118275, Control_c, 0, 64, 66
2, 118294, Control_c, 0, 64, 67
2, 118313, Control_c, 0, 64, 67
2, 118331, Control_c, 0, 64, 68
2, 118370, Control_c, 0, 64, 68
2, 118408, Control_c, 0, 64, 69
2, 118446, Control_c, 0, 64, 68
2, 118466, Control_c, 0, 64, 67
2, 118485, Control_c, 0, 64, 64
2, 118487, Note_on_c, 0, 46, 75
2, 118505, Control_c, 0, 64, 56
2, 118523, Control_c, 0, 64, 39
2, 118543, Control_c, 0, 64, 32
2, 118562, Control_c, 0, 64, 34
2, 118581, Control_c, 0, 64, 47
2, 118600, Control_c, 0, 64, 59
2, 118620, Control_c, 0, 64, 63
2, 118632, Note_on_c, 0, 82, 0
2, 118639, Control_c, 0, 64, 65
2, 118657, Control_c, 0, 64, 68
2, 118677, Control_c, 0, 64, 70
2, 118696, Control_c, 0, 64, 74
2, 118716, Control_c, 0, 64, 79
2, 118734, Control_c, 0, 64, 82
2, 118850, Control_c, 0, 64, 82
2, 118907, Note_on_c, 0, 51, 58
2, 118994, Note_on_c, 0, 54, 65
2, 119031, Note_on_c, 0, 58, 68
2, 119080, Control_c, 0, 64, 82
2, 119095, Note_on_c, 0, 66, 63
2, 119119, Control_c, 0, 64, 81
2, 119122, Note_on_c, 0, 70, 76
2, 119137, Control_c, 0, 64, 81
2, 119157, Control_c, 0, 64, 80
2, 119176, Control_c, 0, 64, 79
2, 119181, Note_on_c, 0, 75, 93
2, 119196, Control_c, 0, 64, 78
2, 119214, Control_c, 0, 64, 77
2, 119234, Control_c, 0, 64, 77
2, 119253, Control_c, 0, 64, 76
2, 119272, Control_c, 0, 64, 74
2, 119291, Control_c, 0, 64, 70
2, 119311, Control_c, 0, 64, 66
2, 119330, Control_c, 0, 64, 62
2, 119349, Control_c, 0, 64, 59
2, 119368, Control_c, 0, 64, 57
2, 119388, Control_c, 0, 64, 56
2, 119406, Control_c, 0, 64, 54
2, 119426, Control_c, 0, 64, 53
2, 119445, Control_c, 0, 64, 52
2, 119522, Control_c, 0, 64, 52
2, 119656, Control_c, 0, 64, 52
2, 119676, Control_c, 0, 64, 53
2, 119694, Control_c, 0, 64, 55
2, 119714, Control_c, 0, 64, 56
2, 119733, Control_c, 0, 64, 57
2, 119752, Control_c, 0, 64, 59
2, 119771, Control_c, 0, 64, 60
2, 119791, Control_c, 0, 64, 61
2, 119810, Control_c, 0, 64, 62
2, 119829, Control_c, 0, 64, 63
2, 119846, Control_c, 0, 64, 64
2, 119866, Control_c, 0, 64, 66
2, 119885, Control_c, 0, 64, 68
2, 119904, Control_c, 0, 64, 71
2, 119923, Control_c, 0, 64, 77
2, 119943, Control_c, 0, 64, 84
2, 119961, Control_c, 0, 64, 96
2, 119981, Control_c, 0, 64, 104
2, 120000, Control_c, 0, 64, 112
2, 120009, Note_on_c, 0, 51, 0
2, 120019, Control_c, 0, 64, 127
2, 120031, Note_on_c, 0, 54, 0
2, 120104, Note_on_c, 0, 46, 0
2, 120141, Note_on_c, 0, 58, 0
2, 120249, Note_on_c, 0, 46, 61
2, 120275, Note_on_c, 0, 66, 0
2, 120291, Control_c, 0, 64, 121
2, 120300, Note_on_c, 0, 70, 0
2, 120309, Control_c, 0, 64, 118
2, 120323, Note_on_c, 0, 75, 0
2, 120329, Control_c, 0, 64, 116
2, 120342, Note_on_c, 0, 53, 69
2, 120348, Control_c, 0, 64, 112
2, 120368, Control_c, 0, 64, 108
2, 120384, Note_on_c, 0, 56, 74
2, 120386, Control_c, 0, 64, 103
2, 120406, Control_c, 0, 64, 98
2, 120409, Note_on_c, 0, 74, 88
2, 120424, Note_on_c, 0, 58, 72
2, 120424, Note_on_c, 0, 65, 70
2, 120425, Control_c, 0, 64, 92
2, 120428, Note_on_c, 0, 70, 81
2, 120444, Control_c, 0, 64, 86
2, 120463, Control_c, 0, 64, 79
2, 120483, Control_c, 0, 64, 72
2, 120502, Control_c, 0, 64, 66
2, 120521, Control_c, 0, 64, 60
2, 120540, Control_c, 0, 64, 57
2, 120560, Control_c, 0, 64, 56
2, 120598, Control_c, 0, 64, 57
2, 120617, Control_c, 0, 64, 59
2, 120637, Control_c, 0, 64, 61
2, 120655, Control_c, 0, 64, 62
2, 120675, Control_c, 0, 64, 63
2, 120714, Control_c, 0, 64, 63
2, 120769, Note_on_c, 0, 75, 89
2, 120771, Control_c, 0, 64, 63
2, 120789, Control_c, 0, 64, 62
2, 120805, Note_on_c, 0, 74, 0
2, 120809, Control_c, 0, 64, 58
2, 120828, Control_c, 0, 64, 52
2, 120848, Control_c, 0, 64, 48
2, 120866, Control_c, 0, 64, 48
2, 120886, Control_c, 0, 64, 52
2, 120905, Control_c, 0, 64, 58
2, 120924, Control_c, 0, 64, 62
2, 120938, Note_on_c, 0, 74, 81
2, 120943, Control_c, 0, 64, 64
2, 120963, Control_c, 0, 64, 67
2, 120967, Note_on_c, 0, 75, 0
2, 120982, Control_c, 0, 64, 69
2, 121001, Control_c, 0, 64, 73
2, 121020, Control_c, 0, 64, 77
2, 121040, Control_c, 0, 64, 79
2, 121050, Note_on_c, 0, 75, 71
2, 121058, Control_c, 0, 64, 80
2, 121063, Note_on_c, 0, 74, 0
2, 121134, Note_on_c, 0, 74, 60
2, 121144, Note_on_c, 0, 75, 0
2, 121174, Control_c, 0, 64, 80
2, 121201, Note_on_c, 0, 75, 56
2, 121209, Note_on_c, 0, 74, 0
2, 121212, Control_c, 0, 64, 79
2, 121251, Control_c, 0, 64, 79
2, 121273, Note_on_c, 0, 74, 68
2, 121288, Note_on_c, 0, 75, 0
2, 121328, Control_c, 0, 64, 78
2, 121346, Control_c, 0, 64, 79
2, 121462, Control_c, 0, 64, 78
2, 121481, Control_c, 0, 64, 78
2, 121500, Control_c, 0, 64, 77
2, 121520, Control_c, 0, 64, 76
2, 121538, Control_c, 0, 64, 75
2, 121558, Control_c, 0, 64, 71
2, 121577, Control_c, 0, 64, 65
2, 121594, Control_c, 0, 64, 58
2, 121612, Control_c, 0, 64, 52
2, 121632, Control_c, 0, 64, 53
2, 121639, Note_on_c, 0, 75, 89
2, 121651, Control_c, 0, 64, 57
2, 121671, Control_c, 0, 64, 62
2, 121689, Control_c, 0, 64, 65
2, 121709, Control_c, 0, 64, 69
2, 121719, Note_on_c, 0, 70, 0
2, 121728, Control_c, 0, 64, 76
2, 121742, Note_on_c, 0, 74, 0
2, 121747, Control_c, 0, 64, 87
2, 121766, Control_c, 0, 64, 96
2, 121786, Control_c, 0, 64, 99
2, 121813, Note_on_c, 0, 65, 0
2, 121819, Note_on_c, 0, 46, 0
2, 121838, Note_on_c, 0, 53, 0
2, 121881, Control_c, 0, 64, 99
2, 121901, Note_on_c, 0, 56, 0
2, 121939, Control_c, 0, 64, 100
2, 121952, Note_on_c, 0, 58, 0
2, 122039, Note_on_c, 0, 75, 0
2, 122290, Note_on_c, 0, 75, 90
2, 122293, Note_on_c, 0, 47, 58
2, 122299, Note_on_c, 0, 59, 63
2, 122304, Control_c, 0, 64, 98
2, 122315, Note_on_c, 0, 70, 77
2, 122317, Note_on_c, 0, 63, 70
2, 122323, Control_c, 0, 64, 95
2, 122343, Control_c, 0, 64, 89
2, 122361, Control_c, 0, 64, 78
2, 122381, Control_c, 0, 64, 66
2, 122400, Control_c, 0, 64, 50
2, 122419, Control_c, 0, 64, 15
2, 122438, Control_c, 0, 64, 9
2, 122554, Control_c, 0, 64, 11
2, 122572, Control_c, 0, 64, 17
2, 122592, Control_c, 0, 64, 19
2, 122611, Control_c, 0, 64, 20
2, 122707, Control_c, 0, 64, 21
2, 122727, Control_c, 0, 64, 23
2, 122747, Control_c, 0, 64, 25
2, 122765, Control_c, 0, 64, 27
2, 122785, Control_c, 0, 64, 29
2, 122804, Control_c, 0, 64, 30
2, 122824, Control_c, 0, 64, 31
2, 122842, Control_c, 0, 64, 32
2, 122862, Control_c, 0, 64, 34
2, 122881, Control_c, 0, 64, 35
2, 122901, Control_c, 0, 64, 36
2, 122919, Control_c, 0, 64, 37
2, 122938, Control_c, 0, 64, 39
2, 122958, Control_c, 0, 64, 40
2, 122976, Control_c, 0, 64, 42
2, 122996, Control_c, 0, 64, 42
2, 123015, Control_c, 0, 64, 43
2, 123035, Control_c, 0, 64, 44
2, 123053, Control_c, 0, 64, 45
2, 123073, Control_c, 0, 64, 46
2, 123092, Control_c, 0, 64, 47
2, 123111, Control_c, 0, 64, 49
2, 123130, Control_c, 0, 64, 50
2, 123150, Control_c, 0, 64, 51
2, 123169, Control_c, 0, 64, 52
2, 123188, Control_c, 0, 64, 53
2, 123207, Control_c, 0, 64, 54
2, 123227, Control_c, 0, 64, 55
2, 123265, Control_c, 0, 64, 55
2, 123284, Control_c, 0, 64, 56
2, 123304, Control_c, 0, 64, 56
2, 123322, Control_c, 0, 64, 57
2, 123342, Control_c, 0, 64, 57
2, 123361, Control_c, 0, 64, 58
2, 123381, Control_c, 0, 64, 59
2, 123399, Control_c, 0, 64, 60
2, 123418, Control_c, 0, 64, 61
2, 123438, Control_c, 0, 64, 62
2, 123456, Control_c, 0, 64, 64
2, 123476, Control_c, 0, 64, 65
2, 123495, Control_c, 0, 64, 68
2, 123495, Note_on_c, 0, 68, 77
2, 123496, Note_on_c, 0, 63, 0
2, 123515, Control_c, 0, 64, 75
2, 123533, Control_c, 0, 64, 91
2, 123553, Control_c, 0, 64, 121
2, 123572, Control_c, 0, 64, 127
2, 123591, Note_on_c, 0, 70, 0
2, 123680, Note_on_c, 0, 47, 0
2, 123752, Note_on_c, 0, 59, 0
2, 123756, Note_on_c, 0, 67, 78
2, 123795, Note_on_c, 0, 68, 0
2, 123935, Note_on_c, 0, 68, 90
2, 123971, Note_on_c, 0, 67, 0
2, 124080, Note_on_c, 0, 68, 0
2, 124114, Note_on_c, 0, 63, 64
2, 124121, Note_on_c, 0, 59, 63
2, 124129, Control_c, 0, 64, 113
2, 124148, Control_c, 0, 64, 103
2, 124153, Note_on_c, 0, 68, 78
2, 124167, Control_c, 0, 64, 89
2, 124187, Control_c, 0, 64, 73
2, 124205, Control_c, 0, 64, 60
2, 124225, Control_c, 0, 64, 0
2, 124282, Control_c, 0, 64, 22
2, 124302, Control_c, 0, 64, 45
2, 124321, Control_c, 0, 64, 58
2, 124341, Control_c, 0, 64, 63
2, 124359, Control_c, 0, 64, 65
2, 124378, Control_c, 0, 64, 67
2, 124384, Note_on_c, 0, 68, 0
2, 124394, Note_on_c, 0, 70, 65
2, 124398, Control_c, 0, 64, 69
2, 124416, Control_c, 0, 64, 73
2, 124436, Control_c, 0, 64, 79
2, 124455, Control_c, 0, 64, 87
2, 124475, Control_c, 0, 64, 93
2, 124493, Control_c, 0, 64, 94
2, 124511, Note_on_c, 0, 70, 0
2, 124519, Note_on_c, 0, 68, 71
2, 124594, Note_on_c, 0, 68, 0
2, 124610, Note_on_c, 0, 70, 59
2, 124671, Control_c, 0, 64, 94
2, 124674, Note_on_c, 0, 68, 56
2, 124677, Note_on_c, 0, 70, 0
2, 124690, Control_c, 0, 64, 93
2, 124729, Control_c, 0, 64, 93
2, 124754, Note_on_c, 0, 68, 0
2, 124766, Note_on_c, 0, 70, 58
2, 124824, Note_on_c, 0, 68, 62
2, 124826, Note_on_c, 0, 70, 0
2, 124896, Note_on_c, 0, 68, 0
2, 124910, Note_on_c, 0, 70, 69
2, 124970, Note_on_c, 0, 70, 0
2, 124977, Note_on_c, 0, 68, 60
2, 124978, Control_c, 0, 64, 93
2, 125016, Control_c, 0, 64, 94
2, 125045, Note_on_c, 0, 68, 0
2, 125050, Control_c, 0, 64, 94
2, 125052, Note_on_c, 0, 70, 68
2, 125108, Control_c, 0, 64, 95
2, 125116, Note_on_c, 0, 70, 0
2, 125119, Note_on_c, 0, 68, 63
2, 125127, Control_c, 0, 64, 95
2, 125147, Control_c, 0, 64, 96
2, 125185, Control_c, 0, 64, 96
2, 125194, Note_on_c, 0, 68, 0
2, 125204, Control_c, 0, 64, 97
2, 125206, Note_on_c, 0, 70, 66
2, 125240, Note_on_c, 0, 59, 0
2, 125242, Control_c, 0, 64, 98
2, 125262, Note_on_c, 0, 70, 0
2, 125271, Note_on_c, 0, 68, 60
2, 125273, Note_on_c, 0, 63, 0
2, 125333, Note_on_c, 0, 68, 0
2, 125351, Note_on_c, 0, 70, 60
2, 125358, Control_c, 0, 64, 98
2, 125391, Note_on_c, 0, 70, 0
2, 125395, Note_on_c, 0, 68, 60
2, 125466, Note_on_c, 0, 68, 0
2, 125497, Note_on_c, 0, 70, 66
2, 125572, Note_on_c, 0, 70, 0
2, 125592, Control_c, 0, 64, 98
2, 125611, Control_c, 0, 64, 97
2, 125631, Control_c, 0, 64, 96
2, 125637, Note_on_c, 0, 68, 23
2, 125647, Note_on_c, 0, 59, 46
2, 125649, Control_c, 0, 64, 94
2, 125656, Note_on_c, 0, 63, 45
2, 125669, Control_c, 0, 64, 89
2, 125688, Control_c, 0, 64, 81
2, 125707, Control_c, 0, 64, 71
2, 125726, Control_c, 0, 64, 63
2, 125746, Control_c, 0, 64, 53
2, 125765, Control_c, 0, 64, 49
2, 125784, Control_c, 0, 64, 49
2, 125803, Control_c, 0, 64, 48
2, 125823, Control_c, 0, 64, 48
2, 125841, Control_c, 0, 64, 47
2, 126030, Control_c, 0, 64, 48
2, 126049, Control_c, 0, 64, 48
2, 126068, Control_c, 0, 64, 49
2, 126087, Control_c, 0, 64, 49
2, 126107, Control_c, 0, 64, 50
2, 126125, Control_c, 0, 64, 50
2, 126145, Control_c, 0, 64, 51
2, 126164, Control_c, 0, 64, 51
2, 126184, Control_c, 0, 64, 52
2, 126202, Control_c, 0, 64, 54
2, 126222, Control_c, 0, 64, 55
2, 126241, Control_c, 0, 64, 57
2, 126260, Control_c, 0, 64, 58
2, 126279, Control_c, 0, 64, 59
2, 126298, Control_c, 0, 64, 60
2, 126318, Control_c, 0, 64, 61
2, 126336, Control_c, 0, 64, 63
2, 126356, Control_c, 0, 64, 64
2, 126375, Control_c, 0, 64, 65
2, 126395, Control_c, 0, 64, 66
2, 126413, Control_c, 0, 64, 69
2, 126433, Control_c, 0, 64, 74
2, 126452, Control_c, 0, 64, 82
2, 126471, Control_c, 0, 64, 94
2, 126490, Control_c, 0, 64, 111
2, 126510, Control_c, 0, 64, 127
2, 126606, Control_c, 0, 67, 9
2, 126626, Control_c, 0, 67, 13
2, 126645, Control_c, 0, 67, 18
2, 126665, Control_c, 0, 67, 28
2, 126683, Control_c, 0, 67, 45
2, 126703, Control_c, 0, 67, 65
2, 126722, Control_c, 0, 67, 85
2, 126740, Control_c, 0, 67, 106
2, 126756, Note_on_c, 0, 59, 0
2, 126760, Control_c, 0, 67, 121
2, 126779, Control_c, 0, 67, 127
2, 126851, Note_on_c, 0, 68, 0
2, 126880, Note_on_c, 0, 67, 42
2, 126890, Note_on_c, 0, 63, 0
2, 127010, Note_on_c, 0, 68, 46
2, 127028, Control_c, 0, 64, 115
2, 127047, Control_c, 0, 64, 110
2, 127055, Note_on_c, 0, 67, 0
2, 127067, Control_c, 0, 64, 105
2, 127085, Control_c, 0, 64, 101
2, 127105, Control_c, 0, 64, 96
2, 127124, Control_c, 0, 64, 90
2, 127132, Note_on_c, 0, 55, 34
2, 127144, Control_c, 0, 64, 87
2, 127162, Control_c, 0, 64, 84
2, 127182, Control_c, 0, 64, 82
2, 127188, Note_on_c, 0, 58, 29
2, 127201, Control_c, 0, 64, 80
2, 127220, Control_c, 0, 64, 76
2, 127239, Control_c, 0, 64, 71
2, 127248, Note_on_c, 0, 70, 51
2, 127258, Control_c, 0, 64, 67
2, 127266, Note_on_c, 0, 68, 0
2, 127278, Control_c, 0, 64, 64
2, 127296, Control_c, 0, 64, 62
2, 127299, Note_on_c, 0, 63, 16
2, 127316, Control_c, 0, 64, 58
2, 127335, Control_c, 0, 64, 52
2, 127355, Control_c, 0, 64, 46
2, 127373, Control_c, 0, 64, 42
2, 127393, Control_c, 0, 64, 40
2, 127450, Control_c, 0, 64, 39
2, 127565, Control_c, 0, 67, 127
2, 127604, Control_c, 0, 64, 40
2, 127604, Control_c, 0, 67, 126
2, 127624, Control_c, 0, 64, 41
2, 127624, Control_c, 0, 67, 125
2, 127642, Control_c, 0, 64, 44
2, 127642, Control_c, 0, 67, 125
2, 127662, Control_c, 0, 64, 46
2, 127662, Control_c, 0, 67, 124
2, 127681, Control_c, 0, 64, 48
2, 127681, Control_c, 0, 67, 124
2, 127700, Control_c, 0, 64, 50
2, 127700, Control_c, 0, 67, 122
2, 127719, Control_c, 0, 64, 52
2, 127719, Control_c, 0, 67, 121
2, 127738, Control_c, 0, 64, 54
2, 127738, Control_c, 0, 67, 120
2, 127758, Control_c, 0, 64, 56
2, 127758, Control_c, 0, 67, 119
2, 127776, Control_c, 0, 64, 58
2, 127776, Control_c, 0, 67, 119
2, 127796, Control_c, 0, 67, 118
2, 127815, Control_c, 0, 64, 56
2, 127815, Control_c, 0, 67, 116
2, 127835, Control_c, 0, 64, 54
2, 127835, Control_c, 0, 67, 115
2, 127853, Control_c, 0, 64, 48
2, 127853, Control_c, 0, 67, 115
2, 127873, Control_c, 0, 64, 11
2, 127892, Control_c, 0, 64, 0
2, 128065, Control_c, 0, 64, 42
2, 128084, Control_c, 0, 64, 63
2, 128104, Control_c, 0, 64, 67
2, 128122, Control_c, 0, 64, 71
2, 128142, Control_c, 0, 64, 79
2, 128161, Control_c, 0, 64, 90
2, 128180, Control_c, 0, 64, 102
2, 128199, Control_c, 0, 64, 111
2, 128199, Control_c, 0, 67, 116
2, 128218, Control_c, 0, 64, 121
2, 128218, Control_c, 0, 67, 118
2, 128238, Control_c, 0, 64, 127
2, 128238, Control_c, 0, 67, 120
2, 128248, Note_on_c, 0, 58, 0
2, 128256, Control_c, 0, 67, 123
2, 128276, Control_c, 0, 67, 126
2, 128283, Note_on_c, 0, 55, 0
2, 128285, Note_on_c, 0, 63, 0
2, 128295, Control_c, 0, 67, 127
2, 128546, Control_c, 0, 64, 119
2, 128565, Control_c, 0, 64, 115
2, 128585, Control_c, 0, 64, 113
2, 128603, Control_c, 0, 64, 110
2, 128623, Control_c, 0, 64, 106
2, 128642, Control_c, 0, 64, 102
2, 128645, Note_on_c, 0, 55, 28
2, 128660, Control_c, 0, 64, 98
2, 128680, Control_c, 0, 64, 96
2, 128699, Control_c, 0, 64, 93
2, 128702, Note_on_c, 0, 58, 30
2, 128719, Control_c, 0, 64, 90
2, 128737, Control_c, 0, 64, 86
2, 128756, Note_on_c, 0, 63, 33
2, 128757, Control_c, 0, 64, 81
2, 128776, Control_c, 0, 64, 76
2, 128796, Control_c, 0, 64, 72
2, 128814, Control_c, 0, 64, 68
2, 128834, Control_c, 0, 64, 64
2, 128853, Control_c, 0, 64, 57
2, 128872, Control_c, 0, 64, 48
2, 128890, Control_c, 0, 64, 43
2, 128909, Control_c, 0, 64, 41
2, 128986, Control_c, 0, 64, 41
2, 129063, Control_c, 0, 64, 42
2, 129081, Control_c, 0, 64, 44
2, 129100, Control_c, 0, 64, 45
2, 129120, Control_c, 0, 64, 47
2, 129139, Control_c, 0, 64, 50
2, 129158, Control_c, 0, 64, 52
2, 129177, Control_c, 0, 64, 55
2, 129197, Control_c, 0, 64, 57
2, 129199, Note_on_c, 0, 75, 0
2, 129215, Control_c, 0, 64, 58
2, 129235, Control_c, 0, 64, 59
2, 129254, Control_c, 0, 64, 61
2, 129274, Control_c, 0, 64, 62
2, 129292, Control_c, 0, 64, 63
2, 129312, Control_c, 0, 64, 65
2, 129331, Control_c, 0, 64, 66
2, 129351, Control_c, 0, 64, 67
2, 129369, Control_c, 0, 64, 69
2, 129389, Control_c, 0, 64, 71
2, 129408, Control_c, 0, 64, 75
2, 129427, Control_c, 0, 64, 79
2, 129448, Control_c, 0, 64, 83
2, 129468, Control_c, 0, 64, 87
2, 129486, Control_c, 0, 64, 87
2, 129506, Control_c, 0, 64, 88
2, 129525, Control_c, 0, 64, 88
2, 129545, Control_c, 0, 64, 89
2, 129563, Control_c, 0, 64, 92
2, 129583, Control_c, 0, 64, 94
2, 129587, Note_on_c, 0, 70, 0
2, 129602, Control_c, 0, 64, 95
2, 129620, Control_c, 0, 64, 96
2, 129745, Note_on_c, 0, 75, 55
2, 129794, Control_c, 0, 64, 95
2, 129801, Note_on_c, 0, 58, 0
2, 129832, Control_c, 0, 64, 94
2, 129845, Note_on_c, 0, 55, 0
2, 129850, Control_c, 0, 64, 94
2, 129870, Control_c, 0, 64, 92
2, 129889, Control_c, 0, 64, 91
2, 129889, Note_on_c, 0, 73, 52
2, 129908, Control_c, 0, 64, 90
2, 129927, Control_c, 0, 64, 90
2, 129932, Note_on_c, 0, 75, 0
2, 129947, Control_c, 0, 64, 89
2, 129949, Note_on_c, 0, 63, 0
2, 129965, Control_c, 0, 64, 88
2, 129985, Control_c, 0, 64, 87
2, 130000, Note_on_c, 0, 73, 0
2, 130002, Note_on_c, 0, 71, 51
2, 130004, Control_c, 0, 64, 86
2, 130024, Control_c, 0, 64, 85
2, 130042, Control_c, 0, 64, 84
2, 130061, Control_c, 0, 64, 83
2, 130081, Control_c, 0, 64, 82
2, 130100, Control_c, 0, 64, 81
2, 130119, Control_c, 0, 64, 80
2, 130136, Note_on_c, 0, 55, 19
2, 130138, Control_c, 0, 64, 78
2, 130158, Control_c, 0, 64, 77
2, 130161, Note_on_c, 0, 58, 37
2, 130176, Control_c, 0, 64, 76
2, 130190, Note_on_c, 0, 73, 49
2, 130196, Control_c, 0, 64, 75
2, 130215, Control_c, 0, 64, 72
2, 130226, Note_on_c, 0, 71, 0
2, 130235, Control_c, 0, 64, 69
2, 130238, Note_on_c, 0, 63, 33
2, 130253, Control_c, 0, 64, 65
2, 130273, Control_c, 0, 64, 60
2, 130292, Control_c, 0, 64, 55
2, 130311, Control_c, 0, 64, 50
2, 130330, Control_c, 0, 64, 45
2, 130350, Control_c, 0, 64, 41
2, 130369, Control_c, 0, 64, 37
2, 130388, Control_c, 0, 64, 35
2, 130407, Control_c, 0, 64, 34
2, 130427, Control_c, 0, 64, 34
2, 130445, Control_c, 0, 64, 33
2, 130465, Control_c, 0, 64, 32
2, 130484, Control_c, 0, 64, 31
2, 130504, Control_c, 0, 64, 31
2, 130522, Control_c, 0, 64, 30
2, 130828, Control_c, 0, 64, 36
2, 130847, Control_c, 0, 64, 44
2, 130866, Control_c, 0, 64, 53
2, 130885, Control_c, 0, 64, 60
2, 130905, Control_c, 0, 64, 63
2, 130924, Control_c, 0, 64, 64
2, 130943, Control_c, 0, 64, 66
2, 130962, Control_c, 0, 64, 69
2, 130981, Control_c, 0, 64, 73
2, 131001, Control_c, 0, 64, 79
2, 131019, Control_c, 0, 64, 87
2, 131039, Control_c, 0, 64, 91
2, 131058, Control_c, 0, 64, 93
2, 131077, Control_c, 0, 64, 93
2, 131096, Control_c, 0, 64, 94
2, 131116, Control_c, 0, 64, 94
2, 131116, Note_on_c, 0, 58, 0
2, 131135, Control_c, 0, 64, 95
2, 131154, Control_c, 0, 64, 96
2, 131169, Note_on_c, 0, 70, 56
2, 131173, Control_c, 0, 64, 97
2, 131181, Note_on_c, 0, 55, 0
2, 131193, Control_c, 0, 64, 97
2, 131211, Control_c, 0, 64, 98
2, 131224, Note_on_c, 0, 63, 0
2, 131283, Note_on_c, 0, 70, 0
2, 131288, Control_c, 0, 64, 97
2, 131304, Note_on_c, 0, 73, 0
2, 131308, Control_c, 0, 64, 96
2, 131327, Control_c, 0, 64, 96
2, 131346, Control_c, 0, 64, 95
2, 131367, Control_c, 0, 64, 93
2, 131387, Control_c, 0, 64, 90
2, 131405, Control_c, 0, 64, 88
2, 131420, Note_on_c, 0, 56, 41
2, 131425, Control_c, 0, 64, 87
2, 131444, Control_c, 0, 64, 85
2, 131464, Control_c, 0, 64, 83
2, 131482, Control_c, 0, 64, 81
2, 131501, Control_c, 0, 64, 79
2, 131521, Control_c, 0, 64, 77
2, 131531, Note_on_c, 0, 59, 33
2, 131540, Control_c, 0, 64, 75
2, 131559, Control_c, 0, 64, 73
2, 131566, Note_on_c, 0, 63, 18
2, 131578, Control_c, 0, 64, 70
2, 131598, Control_c, 0, 64, 67
2, 131616, Control_c, 0, 64, 64
2, 131623, Note_on_c, 0, 71, 43
2, 131630, Note_on_c, 0, 68, 39
2, 131636, Control_c, 0, 64, 61
2, 131655, Control_c, 0, 64, 58
2, 131675, Control_c, 0, 64, 54
2, 131693, Control_c, 0, 64, 48
2, 131713, Control_c, 0, 64, 40
2, 131732, Control_c, 0, 64, 32
2, 131751, Control_c, 0, 64, 27
2, 131769, Control_c, 0, 64, 26
2, 131789, Control_c, 0, 64, 25
2, 131808, Control_c, 0, 64, 24
2, 131827, Control_c, 0, 64, 23
2, 131866, Control_c, 0, 64, 22
2, 131980, Control_c, 0, 64, 0
2, 132365, Control_c, 0, 64, 44
2, 132385, Control_c, 0, 64, 61
2, 132404, Control_c, 0, 64, 65
2, 132424, Control_c, 0, 64, 67
2, 132442, Control_c, 0, 64, 70
2, 132461, Control_c, 0, 64, 76
2, 132481, Control_c, 0, 64, 90
2, 132500, Control_c, 0, 64, 102
2, 132519, Control_c, 0, 64, 127
2, 132519, Control_c, 0, 67, 127
2, 132538, Control_c, 0, 67, 126
2, 132576, Control_c, 0, 67, 126
2, 132581, Note_on_c, 0, 63, 0
2, 132644, Note_on_c, 0, 56, 0
2, 132672, Note_on_c, 0, 59, 0
2, 132807, Control_c, 0, 67, 126
2, 132845, Control_c, 0, 67, 127
2, 132976, Note_on_c, 0, 52, 49
2, 133018, Control_c, 0, 64, 110
2, 133038, Control_c, 0, 64, 101
2, 133056, Control_c, 0, 64, 94
2, 133076, Control_c, 0, 64, 85
2, 133095, Control_c, 0, 64, 75
2, 133115, Control_c, 0, 64, 67
2, 133133, Control_c, 0, 64, 61
2, 133153, Control_c, 0, 64, 55
2, 133172, Control_c, 0, 64, 53
2, 133210, Control_c, 0, 64, 53
2, 133230, Control_c, 0, 64, 54
2, 133270, Control_c, 0, 64, 54
2, 133270, Control_c, 0, 67, 126
2, 133289, Control_c, 0, 64, 55
2, 133289, Control_c, 0, 67, 126
2, 133309, Control_c, 0, 64, 56
2, 133309, Control_c, 0, 67, 125
2, 133327, Control_c, 0, 64, 57
2, 133347, Control_c, 0, 64, 58
2, 133347, Control_c, 0, 67, 125
2, 133366, Control_c, 0, 64, 59
2, 133386, Control_c, 0, 64, 60
2, 133404, Control_c, 0, 64, 60
2, 133424, Control_c, 0, 64, 62
2, 133443, Control_c, 0, 64, 63
2, 133461, Control_c, 0, 64, 64
2, 133481, Control_c, 0, 64, 65
2, 133500, Control_c, 0, 64, 66
2, 133520, Control_c, 0, 64, 69
2, 133538, Control_c, 0, 64, 73
2, 133558, Control_c, 0, 64, 79
2, 133577, Control_c, 0, 64, 88
2, 133577, Control_c, 0, 67, 125
2, 133596, Control_c, 0, 64, 94
2, 133615, Control_c, 0, 64, 99
2, 133615, Control_c, 0, 67, 126
2, 133635, Control_c, 0, 64, 105
2, 133651, Note_on_c, 0, 71, 0
2, 133654, Control_c, 0, 64, 110
2, 133664, Note_on_c, 0, 68, 0
2, 133673, Control_c, 0, 64, 114
2, 133692, Control_c, 0, 64, 115
2, 133710, Control_c, 0, 64, 117
2, 133729, Control_c, 0, 64, 121
2, 133748, Control_c, 0, 64, 127
2, 133748, Control_c, 0, 67, 126
2, 133825, Control_c, 0, 67, 127
2, 133840, Note_on_c, 0, 63, 56
2, 133874, Note_on_c, 0, 71, 44
2, 133969, Note_on_c, 0, 63, 0
2, 134026, Note_on_c, 0, 61, 62
2, 134044, Note_on_c, 0, 71, 0
2, 134058, Note_on_c, 0, 70, 58
2, 134093, Control_c, 0, 67, 127
2, 134180, Note_on_c, 0, 61, 0
2, 134201, Note_on_c, 0, 59, 61
2, 134216, Note_on_c, 0, 68, 62
2, 134219, Note_on_c, 0, 70, 0
2, 134238, Note_on_c, 0, 52, 0
2, 134258, Note_on_c, 0, 59, 0
2, 134384, Note_on_c, 0, 68, 0
2, 134401, Control_c, 0, 64, 111
2, 134420, Control_c, 0, 64, 101
2, 134438, Note_on_c, 0, 61, 54
2, 134439, Control_c, 0, 64, 93
2, 134450, Note_on_c, 0, 52, 38
2, 134458, Control_c, 0, 64, 85
2, 134459, Note_on_c, 0, 70, 58
2, 134478, Control_c, 0, 64, 77
2, 134496, Control_c, 0, 64, 68
2, 134516, Control_c, 0, 64, 62
2, 134535, Control_c, 0, 64, 51
2, 134555, Control_c, 0, 64, 42
2, 134573, Control_c, 0, 64, 40
2, 134689, Control_c, 0, 64, 40
2, 134727, Control_c, 0, 64, 41
2, 134804, Control_c, 0, 64, 41
2, 134938, Control_c, 0, 64, 41
2, 134976, Control_c, 0, 64, 40
2, 134996, Control_c, 0, 64, 39
2, 135015, Control_c, 0, 64, 38
2, 135035, Control_c, 0, 64, 36
2, 135053, Control_c, 0, 64, 36
2, 135111, Control_c, 0, 64, 39
2, 135130, Control_c, 0, 64, 45
2, 135150, Control_c, 0, 64, 50
2, 135169, Control_c, 0, 64, 55
2, 135188, Control_c, 0, 64, 59
2, 135205, Control_c, 0, 64, 61
2, 135225, Control_c, 0, 64, 64
2, 135244, Control_c, 0, 64, 66
2, 135263, Control_c, 0, 64, 69
2, 135282, Control_c, 0, 64, 76
2, 135301, Control_c, 0, 64, 91
2, 135321, Control_c, 0, 64, 127
2, 135382, Note_on_c, 0, 58, 50
2, 135415, Note_on_c, 0, 67, 39
2, 135431, Note_on_c, 0, 61, 0
2, 135471, Note_on_c, 0, 67, 0
2, 135475, Note_on_c, 0, 52, 0
2, 135500, Note_on_c, 0, 70, 0
2, 135513, Note_on_c, 0, 58, 0
2, 135805, Note_on_c, 0, 53, 42
2, 135808, Note_on_c, 0, 59, 43
2, 135831, Note_on_c, 0, 62, 47
2, 135837, Note_on_c, 0, 68, 53
2, 135839, Control_c, 0, 64, 107
2, 135858, Control_c, 0, 64, 92
2, 135877, Control_c, 0, 64, 80
2, 135896, Control_c, 0, 64, 69
2, 135916, Control_c, 0, 64, 60
2, 135935, Control_c, 0, 64, 51
2, 135954, Control_c, 0, 64, 46
2, 135973, Control_c, 0, 64, 44
2, 136050, Control_c, 0, 64, 43
2, 136165, Control_c, 0, 64, 44
2, 136185, Control_c, 0, 64, 44
2, 136204, Control_c, 0, 64, 45
2, 136242, Control_c, 0, 64, 46
2, 136261, Control_c, 0, 64, 46
2, 136281, Control_c, 0, 64, 47
2, 136299, Control_c, 0, 64, 47
2, 136319, Control_c, 0, 64, 48
2, 136338, Control_c, 0, 64, 48
2, 136357, Control_c, 0, 64, 49
2, 136376, Control_c, 0, 64, 50
2, 136396, Control_c, 0, 64, 50
2, 136415, Control_c, 0, 64, 51
2, 136434, Control_c, 0, 64, 52
2, 136453, Control_c, 0, 64, 54
2, 136473, Control_c, 0, 64, 55
2, 136491, Control_c, 0, 64, 57
2, 136511, Control_c, 0, 64, 59
2, 136530, Control_c, 0, 64, 60
2, 136550, Control_c, 0, 64, 62
2, 136567, Control_c, 0, 64, 64
2, 136586, Control_c, 0, 64, 66
2, 136605, Control_c, 0, 64, 70
2, 136625, Control_c, 0, 64, 77
2, 136643, Control_c, 0, 64, 87
2, 136662, Control_c, 0, 64, 99
2, 136682, Control_c, 0, 64, 114
2, 136700, Control_c, 0, 64, 127
2, 136788, Note_on_c, 0, 68, 0
2, 136818, Note_on_c, 0, 59, 0
2, 136836, Note_on_c, 0, 62, 0
2, 137153, Note_on_c, 0, 59, 34
2, 137163, Control_c, 0, 64, 115
2, 137181, Control_c, 0, 64, 104
2, 137188, Note_on_c, 0, 68, 45
2, 137192, Note_on_c, 0, 62, 33
2, 137201, Control_c, 0, 64, 94
2, 137220, Control_c, 0, 64, 86
2, 137240, Control_c, 0, 64, 78
2, 137258, Control_c, 0, 64, 71
2, 137278, Control_c, 0, 64, 65
2, 137297, Control_c, 0, 64, 60
2, 137316, Control_c, 0, 64, 58
2, 137432, Control_c, 0, 64, 59
2, 137470, Control_c, 0, 64, 59
2, 137509, Control_c, 0, 64, 60
2, 137527, Control_c, 0, 64, 60
2, 137567, Control_c, 0, 64, 61
2, 137605, Control_c, 0, 64, 61
2, 137627, Control_c, 0, 64, 62
2, 137647, Control_c, 0, 64, 63
2, 137665, Control_c, 0, 64, 63
2, 137685, Control_c, 0, 64, 64
2, 137704, Control_c, 0, 64, 64
2, 137724, Control_c, 0, 64, 65
2, 137742, Control_c, 0, 64, 66
2, 137762, Control_c, 0, 64, 67
2, 137781, Control_c, 0, 64, 68
2, 137800, Control_c, 0, 64, 70
2, 137819, Control_c, 0, 64, 73
2, 137841, Control_c, 0, 64, 77
2, 137861, Control_c, 0, 64, 81
2, 137879, Control_c, 0, 64, 84
2, 137879, Control_c, 0, 67, 127
2, 137899, Control_c, 0, 64, 87
2, 137899, Control_c, 0, 67, 126
2, 137918, Control_c, 0, 64, 89
2, 137918, Control_c, 0, 67, 125
2, 137937, Control_c, 0, 64, 90
2, 137956, Control_c, 0, 64, 93
2, 137976, Control_c, 0, 64, 95
2, 137995, Control_c, 0, 64, 97
2, 138014, Control_c, 0, 64, 99
2, 138033, Control_c, 0, 64, 99
2, 138053, Control_c, 0, 64, 100
2, 138071, Note_on_c, 0, 53, 0
2, 138087, Note_on_c, 0, 54, 47
2, 138092, Control_c, 0, 64, 100
2, 138111, Control_c, 0, 64, 101
2, 138131, Control_c, 0, 64, 101
2, 138149, Control_c, 0, 64, 102
2, 138188, Control_c, 0, 67, 126
2, 138221, Note_on_c, 0, 53, 46
2, 138226, Control_c, 0, 64, 103
2, 138226, Control_c, 0, 67, 126
2, 138252, Note_on_c, 0, 59, 0
2, 138299, Note_on_c, 0, 54, 0
2, 138333, Note_on_c, 0, 68, 0
2, 138384, Note_on_c, 0, 51, 54
2, 138399, Control_c, 0, 64, 102
2, 138405, Note_on_c, 0, 62, 0
2, 138418, Control_c, 0, 64, 102
2, 138419, Note_on_c, 0, 53, 0
2, 138437, Control_c, 0, 64, 101
2, 138457, Control_c, 0, 64, 100
2, 138476, Control_c, 0, 64, 98
2, 138495, Control_c, 0, 64, 96
2, 138514, Control_c, 0, 64, 93
2, 138534, Control_c, 0, 64, 91
2, 138552, Control_c, 0, 64, 89
2, 138572, Control_c, 0, 64, 87
2, 138581, Note_on_c, 0, 53, 63
2, 138591, Control_c, 0, 64, 84
2, 138611, Control_c, 0, 64, 79
2, 138611, Control_c, 0, 67, 126
2, 138618, Note_on_c, 0, 59, 39
2, 138629, Control_c, 0, 64, 73
2, 138634, Note_on_c, 0, 68, 48
2, 138637, Note_on_c, 0, 62, 30
2, 138649, Control_c, 0, 64, 67
2, 138668, Control_c, 0, 64, 61
2, 138687, Control_c, 0, 64, 56
2, 138687, Control_c, 0, 67, 125
2, 138704, Note_on_c, 0, 51, 0
2, 138706, Control_c, 0, 64, 54
2, 138725, Control_c, 0, 64, 53
2, 138745, Control_c, 0, 67, 125
2, 138763, Control_c, 0, 64, 54
2, 138783, Control_c, 0, 64, 55
2, 138802, Control_c, 0, 64, 56
2, 138821, Control_c, 0, 64, 57
2, 138840, Control_c, 0, 64, 58
2, 138840, Control_c, 0, 67, 124
2, 138860, Control_c, 0, 64, 59
2, 138879, Control_c, 0, 64, 60
2, 138898, Control_c, 0, 64, 61
2, 138917, Control_c, 0, 64, 61
2, 138917, Control_c, 0, 67, 124
2, 138937, Control_c, 0, 64, 62
2, 138956, Control_c, 0, 64, 62
2, 138994, Control_c, 0, 64, 63
2, 139014, Control_c, 0, 64, 63
2, 139032, Control_c, 0, 64, 64
2, 139052, Control_c, 0, 64, 64
2, 139109, Control_c, 0, 64, 65
2, 139109, Control_c, 0, 67, 123
2, 139148, Control_c, 0, 67, 123
2, 139167, Control_c, 0, 67, 122
2, 139186, Control_c, 0, 67, 121
2, 139205, Control_c, 0, 67, 114
2, 139207, Note_on_c, 0, 54, 63
2, 139211, Note_on_c, 0, 53, 0
2, 139225, Control_c, 0, 64, 64
2, 139225, Control_c, 0, 67, 102
2, 139243, Control_c, 0, 67, 92
2, 139263, Control_c, 0, 64, 65
2, 139263, Control_c, 0, 67, 84
2, 139282, Control_c, 0, 67, 79
2, 139301, Control_c, 0, 64, 65
2, 139301, Control_c, 0, 67, 77
2, 139320, Control_c, 0, 64, 66
2, 139320, Control_c, 0, 67, 76
2, 139340, Control_c, 0, 64, 66
2, 139359, Control_c, 0, 64, 67
2, 139378, Control_c, 0, 64, 67
2, 139397, Control_c, 0, 67, 76
2, 139420, Note_on_c, 0, 56, 63
2, 139436, Control_c, 0, 67, 77
2, 139474, Control_c, 0, 67, 77
2, 139512, Control_c, 0, 64, 67
2, 139512, Control_c, 0, 67, 78
2, 139532, Control_c, 0, 64, 65
2, 139532, Control_c, 0, 67, 78
2, 139551, Control_c, 0, 64, 63
2, 139571, Control_c, 0, 64, 61
2, 139571, Control_c, 0, 67, 79
2, 139589, Control_c, 0, 64, 57
2, 139593, Note_on_c, 0, 53, 65
2, 139609, Control_c, 0, 64, 54
2, 139612, Note_on_c, 0, 54, 0
2, 139628, Control_c, 0, 64, 52
2, 139647, Control_c, 0, 64, 55
2, 139665, Note_on_c, 0, 56, 0
2, 139666, Control_c, 0, 64, 60
2, 139685, Control_c, 0, 64, 63
2, 139705, Control_c, 0, 64, 65
2, 139723, Control_c, 0, 64, 67
2, 139743, Control_c, 0, 64, 69
2, 139743, Control_c, 0, 67, 79
2, 139751, Note_on_c, 0, 54, 61
2, 139762, Control_c, 0, 64, 72
2, 139781, Control_c, 0, 64, 76
2, 139784, Note_on_c, 0, 53, 0
2, 139800, Control_c, 0, 64, 78
2, 139820, Control_c, 0, 64, 78
2, 139839, Control_c, 0, 67, 79
2, 139841, Note_on_c, 0, 59, 0
2, 139862, Note_on_c, 0, 68, 0
2, 139896, Note_on_c, 0, 56, 65
2, 139916, Control_c, 0, 64, 78
2, 139935, Control_c, 0, 67, 79
2, 139954, Control_c, 0, 64, 77
2, 139974, Control_c, 0, 64, 77
2, 139979, Note_on_c, 0, 62, 0
2, 139992, Control_c, 0, 64, 76
2, 139996, Note_on_c, 0, 54, 0
2, 140013, Control_c, 0, 64, 75
2, 140032, Control_c, 0, 64, 74
2, 140052, Control_c, 0, 64, 73
2, 140064, Note_on_c, 0, 59, 37
2, 140070, Control_c, 0, 64, 71
2, 140070, Note_on_c, 0, 50, 68
2, 140090, Control_c, 0, 64, 70
2, 140108, Note_on_c, 0, 56, 0
2, 140109, Control_c, 0, 64, 67
2, 140111, Note_on_c, 0, 65, 42
2, 140128, Control_c, 0, 64, 65
2, 140141, Note_on_c, 0, 68, 54
2, 140147, Control_c, 0, 64, 62
2, 140167, Control_c, 0, 64, 57
2, 140186, Control_c, 0, 64, 51
2, 140204, Control_c, 0, 64, 47
2, 140224, Control_c, 0, 64, 45
2, 140243, Control_c, 0, 64, 43
2, 140262, Control_c, 0, 64, 42
2, 140281, Control_c, 0, 64, 42
2, 140378, Control_c, 0, 64, 43
2, 140413, Control_c, 0, 64, 44
2, 140432, Control_c, 0, 64, 44
2, 140452, Control_c, 0, 64, 46
2, 140471, Control_c, 0, 64, 47
2, 140490, Control_c, 0, 64, 48
2, 140509, Control_c, 0, 64, 49
2, 140509, Control_c, 0, 67, 79
2, 140529, Control_c, 0, 64, 51
2, 140547, Control_c, 0, 64, 53
2, 140567, Control_c, 0, 64, 55
2, 140586, Control_c, 0, 64, 56
2, 140605, Control_c, 0, 64, 58
2, 140624, Control_c, 0, 64, 59
2, 140624, Control_c, 0, 67, 78
2, 140643, Control_c, 0, 64, 61
2, 140643, Control_c, 0, 67, 78
2, 140663, Control_c, 0, 64, 62
2, 140681, Control_c, 0, 64, 64
2, 140681, Control_c, 0, 67, 77
2, 140701, Control_c, 0, 64, 65
2, 140720, Control_c, 0, 64, 66
2, 140720, Control_c, 0, 67, 77
2, 140740, Control_c, 0, 64, 69
2, 140758, Control_c, 0, 64, 73
2, 140778, Control_c, 0, 64, 79
2, 140797, Control_c, 0, 64, 88
2, 140816, Control_c, 0, 64, 98
2, 140835, Control_c, 0, 64, 110
2, 140835, Control_c, 0, 67, 76
2, 140855, Control_c, 0, 64, 127
2, 140893, Control_c, 0, 67, 76
2, 140991, Control_c, 0, 67, 75
2, 141011, Control_c, 0, 67, 75
2, 141020, Note_on_c, 0, 65, 0
2, 141049, Control_c, 0, 67, 74
2, 141063, Note_on_c, 0, 59, 0
2, 141068, Control_c, 0, 67, 74
2, 141075, Note_on_c, 0, 68, 0
2, 141125, Control_c, 0, 67, 73
2, 141279, Control_c, 0, 67, 72
2, 141295, Note_on_c, 0, 59, 45
2, 141298, Control_c, 0, 64, 123
2, 141298, Control_c, 0, 67, 68
2, 141317, Control_c, 0, 64, 112
2, 141317, Control_c, 0, 67, 67
2, 141335, Note_on_c, 0, 65, 46
2, 141337, Control_c, 0, 64, 106
2, 141356, Control_c, 0, 64, 100
2, 141356, Control_c, 0, 67, 66
2, 141357, Note_on_c, 0, 68, 59
2, 141375, Control_c, 0, 64, 93
2, 141375, Control_c, 0, 67, 65
2, 141395, Control_c, 0, 64, 85
2, 141415, Control_c, 0, 64, 76
2, 141415, Control_c, 0, 67, 64
2, 141433, Control_c, 0, 64, 67
2, 141433, Control_c, 0, 67, 64
2, 141453, Control_c, 0, 64, 62
2, 141453, Control_c, 0, 67, 63
2, 141472, Control_c, 0, 64, 56
2, 141472, Control_c, 0, 67, 62
2, 141492, Control_c, 0, 64, 55
2, 141492, Control_c, 0, 67, 62
2, 141510, Control_c, 0, 64, 55
2, 141510, Control_c, 0, 67, 61
2, 141530, Control_c, 0, 64, 56
2, 141530, Control_c, 0, 67, 61
2, 141549, Control_c, 0, 64, 57
2, 141568, Control_c, 0, 64, 58
2, 141587, Control_c, 0, 64, 59
2, 141587, Control_c, 0, 67, 60
2, 141607, Control_c, 0, 64, 60
2, 141607, Control_c, 0, 67, 60
2, 141626, Control_c, 0, 64, 60
2, 141626, Control_c, 0, 67, 59
2, 141644, Control_c, 0, 64, 61
2, 141644, Control_c, 0, 67, 58
2, 141664, Control_c, 0, 64, 61
2, 141664, Control_c, 0, 67, 56
2, 141683, Control_c, 0, 64, 62
2, 141683, Control_c, 0, 67, 52
2, 141702, Control_c, 0, 64, 63
2, 141702, Control_c, 0, 67, 46
2, 141721, Control_c, 0, 64, 63
2, 141721, Control_c, 0, 67, 39
2, 141741, Control_c, 0, 64, 64
2, 141741, Control_c, 0, 67, 29
2, 141760, Control_c, 0, 64, 65
2, 141760, Control_c, 0, 67, 21
2, 141779, Control_c, 0, 64, 66
2, 141779, Control_c, 0, 67, 12
2, 141798, Control_c, 0, 64, 67
2, 141798, Control_c, 0, 67, 0
2, 141818, Control_c, 0, 64, 69
2, 141836, Control_c, 0, 64, 71
2, 141856, Control_c, 0, 64, 73
2, 141875, Control_c, 0, 64, 76
2, 141895, Control_c, 0, 64, 80
2, 141913, Control_c, 0, 64, 84
2, 141933, Control_c, 0, 64, 89
2, 141952, Control_c, 0, 64, 92
2, 141972, Control_c, 0, 64, 94
2, 142010, Control_c, 0, 64, 95
2, 142029, Control_c, 0, 64, 95
2, 142048, Control_c, 0, 64, 96
2, 142067, Control_c, 0, 64, 96
2, 142102, Note_on_c, 0, 50, 0
2, 142103, Note_on_c, 0, 51, 61
2, 142106, Control_c, 0, 64, 97
2, 142124, Control_c, 0, 64, 98
2, 142144, Control_c, 0, 64, 99
2, 142163, Control_c, 0, 64, 101
2, 142182, Control_c, 0, 64, 101
2, 142201, Control_c, 0, 64, 102
2, 142221, Control_c, 0, 64, 102
2, 142240, Control_c, 0, 64, 103
2, 142259, Control_c, 0, 64, 104
2, 142278, Control_c, 0, 64, 105
2, 142298, Control_c, 0, 64, 108
2, 142316, Control_c, 0, 64, 112
2, 142336, Control_c, 0, 64, 118
2, 142354, Control_c, 0, 64, 127
2, 142432, Note_on_c, 0, 50, 69
2, 142491, Note_on_c, 0, 51, 0
2, 142593, Note_on_c, 0, 59, 0
2, 142602, Note_on_c, 0, 65, 0
2, 142613, Note_on_c, 0, 48, 65
2, 142617, Note_on_c, 0, 68, 0
2, 142667, Note_on_c, 0, 50, 0
2, 142757, Control_c, 0, 64, 121
2, 142777, Control_c, 0, 64, 115
2, 142796, Control_c, 0, 64, 109
2, 142804, Note_on_c, 0, 59, 54
2, 142806, Note_on_c, 0, 50, 78
2, 142815, Control_c, 0, 64, 103
2, 142834, Control_c, 0, 64, 98
2, 142854, Control_c, 0, 64, 90
2, 142855, Note_on_c, 0, 65, 54
2, 142872, Control_c, 0, 64, 79
2, 142874, Note_on_c, 0, 68, 68
2, 142883, Note_on_c, 0, 48, 0
2, 142892, Control_c, 0, 64, 68
2, 142911, Control_c, 0, 64, 59
2, 142931, Control_c, 0, 64, 41
2, 142949, Control_c, 0, 64, 31
2, 142969, Control_c, 0, 64, 32
2, 142988, Control_c, 0, 64, 40
2, 143006, Control_c, 0, 64, 51
2, 143026, Control_c, 0, 64, 59
2, 143045, Control_c, 0, 64, 63
2, 143065, Control_c, 0, 64, 64
2, 143083, Control_c, 0, 64, 65
2, 143103, Control_c, 0, 64, 65
2, 143122, Control_c, 0, 64, 63
2, 143141, Control_c, 0, 64, 57
2, 143160, Control_c, 0, 64, 41
2, 143180, Control_c, 0, 64, 0
2, 143257, Control_c, 0, 64, 46
2, 143276, Control_c, 0, 64, 60
2, 143292, Note_on_c, 0, 51, 73
2, 143295, Control_c, 0, 64, 63
2, 143314, Control_c, 0, 64, 64
2, 143334, Control_c, 0, 64, 65
2, 143341, Note_on_c, 0, 50, 0
2, 143352, Control_c, 0, 64, 66
2, 143372, Control_c, 0, 64, 66
2, 143391, Control_c, 0, 64, 67
2, 143411, Control_c, 0, 64, 68
2, 143429, Control_c, 0, 64, 69
2, 143449, Control_c, 0, 64, 69
2, 143468, Control_c, 0, 64, 70
2, 143486, Note_on_c, 0, 53, 73
2, 143506, Control_c, 0, 64, 70
2, 143545, Control_c, 0, 64, 70
2, 143583, Control_c, 0, 64, 69
2, 143602, Control_c, 0, 64, 68
2, 143621, Control_c, 0, 64, 67
2, 143640, Control_c, 0, 64, 65
2, 143660, Control_c, 0, 64, 64
2, 143679, Control_c, 0, 64, 63
2, 143682, Note_on_c, 0, 50, 71
2, 143685, Note_on_c, 0, 51, 0
2, 143698, Control_c, 0, 64, 61
2, 143717, Control_c, 0, 64, 56
2, 143737, Control_c, 0, 64, 50
2, 143756, Control_c, 0, 64, 42
2, 143775, Control_c, 0, 64, 36
2, 143794, Control_c, 0, 64, 35
2, 143832, Control_c, 0, 64, 36
2, 143853, Control_c, 0, 64, 40
2, 143857, Note_on_c, 0, 53, 0
2, 143866, Note_on_c, 0, 51, 68
2, 143872, Control_c, 0, 64, 46
2, 143892, Control_c, 0, 64, 52
2, 143910, Control_c, 0, 64, 59
2, 143930, Control_c, 0, 64, 62
2, 143931, Note_on_c, 0, 50, 0
2, 143949, Control_c, 0, 64, 63
2, 143968, Control_c, 0, 64, 64
2, 143987, Control_c, 0, 64, 66
2, 144006, Control_c, 0, 64, 67
2, 144026, Control_c, 0, 64, 69
2, 144044, Control_c, 0, 64, 72
2, 144052, Note_on_c, 0, 59, 0
2, 144054, Note_on_c, 0, 53, 73
2, 144064, Control_c, 0, 64, 77
2, 144083, Control_c, 0, 64, 83
2, 144102, Control_c, 0, 64, 88
2, 144121, Control_c, 0, 64, 89
2, 144135, Note_on_c, 0, 65, 0
2, 144179, Control_c, 0, 64, 90
2, 144191, Note_on_c, 0, 68, 0
2, 144196, Note_on_c, 0, 51, 0
2, 144218, Control_c, 0, 64, 90
2, 144332, Control_c, 0, 64, 90
2, 144339, Note_on_c, 0, 47, 79
2, 144346, Control_c, 0, 64, 89
2, 144357, Note_on_c, 0, 53, 0
2, 144365, Control_c, 0, 64, 86
2, 144383, Control_c, 0, 64, 82
2, 144403, Control_c, 0, 64, 75
2, 144422, Control_c, 0, 64, 68
2, 144441, Control_c, 0, 64, 61
2, 144460, Control_c, 0, 64, 55
2, 144483, Note_on_c, 0, 62, 65
2, 144499, Control_c, 0, 64, 58
2, 144518, Control_c, 0, 64, 60
2, 144537, Control_c, 0, 64, 62
2, 144557, Control_c, 0, 64, 64
2, 144575, Control_c, 0, 64, 65
2, 144595, Control_c, 0, 64, 66
2, 144614, Control_c, 0, 64, 67
2, 144620, Note_on_c, 0, 65, 66
2, 144634, Control_c, 0, 64, 67
2, 144710, Note_on_c, 0, 68, 75
2, 144711, Control_c, 0, 64, 67
2, 144729, Control_c, 0, 64, 66
2, 144749, Control_c, 0, 64, 65
2, 144768, Control_c, 0, 64, 62
2, 144787, Control_c, 0, 64, 59
2, 144806, Control_c, 0, 64, 55
2, 144826, Control_c, 0, 64, 52
2, 144845, Control_c, 0, 64, 49
2, 144863, Control_c, 0, 64, 48
2, 144902, Control_c, 0, 64, 48
2, 144940, Control_c, 0, 64, 48
2, 144998, Control_c, 0, 64, 49
2, 145017, Control_c, 0, 64, 49
2, 145055, Control_c, 0, 64, 50
2, 145075, Control_c, 0, 64, 50
2, 145094, Control_c, 0, 64, 52
2, 145114, Control_c, 0, 64, 55
2, 145132, Control_c, 0, 64, 57
2, 145152, Control_c, 0, 64, 58
2, 145171, Control_c, 0, 64, 59
2, 145191, Control_c, 0, 64, 60
2, 145209, Control_c, 0, 64, 60
2, 145229, Control_c, 0, 64, 61
2, 145248, Control_c, 0, 64, 62
2, 145267, Control_c, 0, 64, 63
2, 145286, Control_c, 0, 64, 64
2, 145306, Control_c, 0, 64, 66
2, 145325, Control_c, 0, 64, 67
2, 145343, Control_c, 0, 64, 70
2, 145363, Control_c, 0, 64, 74
2, 145382, Control_c, 0, 64, 81
2, 145401, Control_c, 0, 64, 89
2, 145420, Control_c, 0, 64, 96
2, 145440, Control_c, 0, 64, 99
2, 145459, Control_c, 0, 64, 101
2, 145478, Control_c, 0, 64, 102
2, 145497, Control_c, 0, 64, 102
2, 145517, Control_c, 0, 64, 103
2, 145535, Note_on_c, 0, 65, 0
2, 145537, Note_on_c, 0, 68, 0
2, 145546, Note_on_c, 0, 62, 0
2, 145671, Control_c, 0, 64, 102
2, 145709, Control_c, 0, 64, 101
2, 145728, Control_c, 0, 64, 101
2, 145766, Control_c, 0, 64, 100
2, 145775, Note_on_c, 0, 62, 35
2, 145805, Control_c, 0, 64, 99
2, 145816, Note_on_c, 0, 65, 54
2, 145822, Note_on_c, 0, 68, 70
2, 145823, Control_c, 0, 64, 98
2, 145843, Control_c, 0, 64, 97
2, 145862, Control_c, 0, 64, 92
2, 145881, Control_c, 0, 64, 83
2, 145900, Control_c, 0, 64, 72
2, 145920, Control_c, 0, 64, 64
2, 145939, Control_c, 0, 64, 61
2, 145958, Control_c, 0, 64, 63
2, 145977, Control_c, 0, 64, 64
2, 145997, Control_c, 0, 64, 65
2, 146015, Control_c, 0, 64, 67
2, 146035, Control_c, 0, 64, 70
2, 146054, Control_c, 0, 64, 74
2, 146074, Control_c, 0, 64, 78
2, 146092, Control_c, 0, 64, 81
2, 146112, Control_c, 0, 64, 82
2, 146361, Control_c, 0, 64, 82
2, 146419, Control_c, 0, 64, 81
2, 146428, Note_on_c, 0, 49, 75
2, 146438, Control_c, 0, 64, 80
2, 146457, Control_c, 0, 64, 77
2, 146477, Control_c, 0, 64, 71
2, 146489, Note_on_c, 0, 47, 0
2, 146495, Control_c, 0, 64, 65
2, 146515, Control_c, 0, 64, 59
2, 146534, Control_c, 0, 64, 59
2, 146554, Control_c, 0, 64, 61
2, 146572, Control_c, 0, 64, 62
2, 146592, Control_c, 0, 64, 64
2, 146611, Control_c, 0, 64, 65
2, 146631, Control_c, 0, 64, 66
2, 146649, Control_c, 0, 64, 66
2, 146669, Control_c, 0, 64, 67
2, 146707, Control_c, 0, 64, 66
2, 146727, Control_c, 0, 64, 64
2, 146747, Control_c, 0, 64, 63
2, 146780, Note_on_c, 0, 47, 68
2, 146784, Control_c, 0, 64, 64
2, 146804, Control_c, 0, 64, 65
2, 146823, Control_c, 0, 64, 66
2, 146842, Control_c, 0, 64, 69
2, 146858, Note_on_c, 0, 49, 0
2, 146861, Control_c, 0, 64, 73
2, 146881, Control_c, 0, 64, 79
2, 146900, Control_c, 0, 64, 86
2, 146919, Control_c, 0, 64, 91
2, 146938, Control_c, 0, 64, 94
2, 146973, Note_on_c, 0, 46, 74
2, 147010, Note_on_c, 0, 47, 0
2, 147015, Control_c, 0, 64, 94
2, 147043, Note_on_c, 0, 62, 0
2, 147074, Note_on_c, 0, 65, 0
2, 147078, Note_on_c, 0, 46, 0
2, 147093, Note_on_c, 0, 68, 0
2, 147148, Control_c, 0, 64, 94
2, 147167, Control_c, 0, 64, 93
2, 147175, Note_on_c, 0, 47, 75
2, 147186, Control_c, 0, 64, 92
2, 147201, Note_on_c, 0, 62, 60
2, 147205, Control_c, 0, 64, 91
2, 147224, Control_c, 0, 64, 90
2, 147224, Note_on_c, 0, 65, 66
2, 147244, Control_c, 0, 64, 87
2, 147245, Note_on_c, 0, 68, 71
2, 147262, Control_c, 0, 64, 79
2, 147282, Control_c, 0, 64, 68
2, 147301, Control_c, 0, 64, 58
2, 147321, Control_c, 0, 64, 35
2, 147339, Control_c, 0, 64, 29
2, 147359, Control_c, 0, 64, 37
2, 147368, Note_on_c, 0, 46, 73
2, 147378, Control_c, 0, 64, 50
2, 147397, Control_c, 0, 64, 59
2, 147416, Control_c, 0, 64, 63
2, 147436, Control_c, 0, 64, 64
2, 147450, Note_on_c, 0, 47, 0
2, 147455, Control_c, 0, 64, 65
2, 147474, Control_c, 0, 64, 66
2, 147493, Control_c, 0, 64, 67
2, 147513, Control_c, 0, 64, 67
2, 147518, Note_on_c, 0, 44, 75
2, 147550, Note_on_c, 0, 46, 0
2, 147685, Note_on_c, 0, 46, 71
2, 147873, Note_on_c, 0, 47, 74
2, 147875, Control_c, 0, 64, 67
2, 147895, Control_c, 0, 64, 64
2, 147914, Control_c, 0, 64, 60
2, 147932, Control_c, 0, 64, 50
2, 147936, Note_on_c, 0, 44, 0
2, 147952, Control_c, 0, 64, 42
2, 147971, Control_c, 0, 64, 43
2, 147991, Control_c, 0, 64, 50
2, 148000, Note_on_c, 0, 46, 0
2, 148009, Control_c, 0, 64, 57
2, 148029, Control_c, 0, 64, 63
2, 148048, Control_c, 0, 64, 65
2, 148062, Note_on_c, 0, 44, 77
2, 148068, Control_c, 0, 64, 68
2, 148086, Control_c, 0, 64, 72
2, 148106, Control_c, 0, 64, 78
2, 148125, Control_c, 0, 64, 84
2, 148137, Note_on_c, 0, 47, 0
2, 148144, Control_c, 0, 64, 90
2, 148163, Control_c, 0, 64, 95
2, 148183, Control_c, 0, 64, 96
2, 148202, Control_c, 0, 64, 96
2, 148221, Control_c, 0, 64, 97
2, 148240, Control_c, 0, 64, 99
2, 148241, Note_on_c, 0, 46, 76
2, 148260, Control_c, 0, 64, 102
2, 148278, Control_c, 0, 64, 108
2, 148298, Control_c, 0, 64, 115
2, 148317, Control_c, 0, 64, 121
2, 148337, Control_c, 0, 64, 127
2, 148404, Note_on_c, 0, 44, 0
2, 148459, Note_on_c, 0, 47, 80
2, 148466, Note_on_c, 0, 46, 0
2, 148634, Note_on_c, 0, 47, 0
2, 148872, Note_on_c, 0, 38, 87
2, 148874, Control_c, 0, 64, 121
2, 148892, Control_c, 0, 64, 104
2, 148912, Control_c, 0, 64, 92
2, 148931, Control_c, 0, 64, 81
2, 148951, Control_c, 0, 64, 71
2, 148969, Control_c, 0, 64, 64
2, 148989, Control_c, 0, 64, 52
2, 148992, Note_on_c, 0, 62, 0
2, 149011, Control_c, 0, 64, 45
2, 149013, Note_on_c, 0, 65, 0
2, 149018, Note_on_c, 0, 68, 0
2, 149031, Control_c, 0, 64, 44
2, 149046, Control_c, 0, 64, 45
2, 149064, Control_c, 0, 64, 48
2, 149084, Control_c, 0, 64, 50
2, 149103, Control_c, 0, 64, 53
2, 149122, Control_c, 0, 64, 56
2, 149141, Control_c, 0, 64, 59
2, 149161, Control_c, 0, 64, 61
2, 149180, Control_c, 0, 64, 62
2, 149199, Control_c, 0, 64, 63
2, 149221, Control_c, 0, 64, 64
2, 149241, Control_c, 0, 64, 65
2, 149242, Note_on_c, 0, 62, 76
2, 149259, Control_c, 0, 64, 66
2, 149279, Control_c, 0, 64, 68
2, 149298, Control_c, 0, 64, 70
2, 149318, Control_c, 0, 64, 73
2, 149336, Control_c, 0, 64, 76
2, 149355, Control_c, 0, 64, 78
2, 149375, Control_c, 0, 64, 80
2, 149393, Control_c, 0, 64, 81
2, 149393, Note_on_c, 0, 65, 75
2, 149518, Note_on_c, 0, 68, 84
2, 149649, Control_c, 0, 64, 80
2, 149663, Note_on_c, 0, 71, 81
2, 149667, Control_c, 0, 64, 80
2, 149687, Control_c, 0, 64, 79
2, 149706, Control_c, 0, 64, 77
2, 149725, Control_c, 0, 64, 74
2, 149744, Control_c, 0, 64, 71
2, 149764, Control_c, 0, 64, 67
2, 149783, Control_c, 0, 64, 64
2, 149802, Control_c, 0, 64, 63
2, 149821, Control_c, 0, 64, 61
2, 149841, Control_c, 0, 64, 61
2, 150107, Control_c, 0, 64, 61
2, 150127, Control_c, 0, 64, 62
2, 150145, Control_c, 0, 64, 62
2, 150165, Control_c, 0, 64, 63
2, 150204, Control_c, 0, 64, 63
2, 150222, Control_c, 0, 64, 64
2, 150242, Control_c, 0, 64, 64
2, 150261, Control_c, 0, 64, 65
2, 150280, Control_c, 0, 64, 65
2, 150299, Control_c, 0, 64, 66
2, 150319, Control_c, 0, 64, 66
2, 150338, Control_c, 0, 64, 67
2, 150510, Control_c, 0, 64, 67
2, 150548, Control_c, 0, 64, 68
2, 150566, Control_c, 0, 64, 68
2, 150605, Control_c, 0, 64, 69
2, 150662, Control_c, 0, 64, 69
2, 150682, Control_c, 0, 64, 70
2, 150700, Control_c, 0, 64, 71
2, 150720, Control_c, 0, 64, 72
2, 150739, Control_c, 0, 64, 73
2, 150759, Control_c, 0, 64, 73
2, 150796, Control_c, 0, 64, 74
2, 150816, Control_c, 0, 64, 74
2, 150834, Control_c, 0, 64, 75
2, 150854, Control_c, 0, 64, 76
2, 150873, Control_c, 0, 64, 77
2, 150893, Control_c, 0, 64, 78
2, 150911, Control_c, 0, 64, 79
2, 150931, Control_c, 0, 64, 80
2, 151239, Control_c, 0, 64, 79
2, 151988, Control_c, 0, 64, 79
2, 152064, Control_c, 0, 64, 78
2, 152123, Control_c, 0, 64, 78
2, 152180, Control_c, 0, 64, 77
2, 152199, Control_c, 0, 64, 77
2, 152468, Control_c, 0, 64, 76
2, 152564, Control_c, 0, 64, 76
2, 152621, Control_c, 0, 64, 75
2, 152679, Control_c, 0, 64, 75
2, 152718, Control_c, 0, 64, 74
2, 152775, Control_c, 0, 64, 74
2, 152814, Control_c, 0, 64, 73
2, 152832, Control_c, 0, 64, 73
2, 152852, Control_c, 0, 64, 72
2, 152890, Control_c, 0, 64, 72
2, 152909, Control_c, 0, 64, 71
2, 152929, Control_c, 0, 64, 70
2, 152948, Control_c, 0, 64, 70
2, 152967, Control_c, 0, 64, 69
2, 152986, Control_c, 0, 64, 68
2, 153006, Control_c, 0, 64, 67
2, 153024, Control_c, 0, 64, 66
2, 153044, Control_c, 0, 64, 66
2, 153052, Note_on_c, 0, 71, 0
2, 153063, Control_c, 0, 64, 65
2, 153083, Control_c, 0, 64, 65
2, 153118, Control_c, 0, 64, 64
2, 153143, Note_on_c, 0, 70, 20
2, 153155, Note_on_c, 0, 62, 0
2, 153156, Control_c, 0, 64, 64
2, 153157, Note_on_c, 0, 38, 0
2, 153175, Control_c, 0, 64, 63
2, 153195, Control_c, 0, 64, 62
2, 153214, Control_c, 0, 64, 61
2, 153233, Control_c, 0, 64, 59
2, 153252, Control_c, 0, 64, 54
2, 153265, Note_on_c, 0, 65, 0
2, 153272, Control_c, 0, 64, 51
2, 153291, Control_c, 0, 64, 49
2, 153310, Control_c, 0, 64, 47
2, 153317, Note_on_c, 0, 68, 0
2, 153329, Control_c, 0, 64, 46
2, 153349, Control_c, 0, 64, 44
2, 153367, Control_c, 0, 64, 43
2, 153387, Control_c, 0, 64, 42
2, 153406, Control_c, 0, 64, 41
2, 153425, Control_c, 0, 64, 40
2, 153444, Control_c, 0, 64, 40
2, 153463, Control_c, 0, 64, 39
2, 153595, Note_on_c, 0, 68, 48
2, 153713, Control_c, 0, 64, 40
2, 153752, Control_c, 0, 64, 40
2, 153790, Control_c, 0, 64, 41
2, 153821, Note_on_c, 0, 70, 0
2, 153847, Control_c, 0, 64, 42
2, 153860, Note_on_c, 0, 66, 57
2, 153867, Control_c, 0, 64, 43
2, 153886, Control_c, 0, 64, 44
2, 153905, Control_c, 0, 64, 46
2, 153924, Control_c, 0, 64, 48
2, 153931, Note_on_c, 0, 68, 0
2, 153943, Control_c, 0, 64, 51
2, 153963, Control_c, 0, 64, 53
2, 153981, Control_c, 0, 64, 55
2, 154001, Control_c, 0, 64, 57
2, 154020, Control_c, 0, 64, 58
2, 154101, Note_on_c, 0, 65, 59
2, 154125, Note_on_c, 0, 66, 0
2, 154155, Control_c, 0, 64, 57
2, 154212, Control_c, 0, 64, 57
2, 154232, Control_c, 0, 64, 56
2, 154290, Note_on_c, 0, 63, 69
2, 154293, Note_on_c, 0, 65, 0
2, 154366, Control_c, 0, 64, 56
2, 154463, Control_c, 0, 64, 55
2, 154478, Note_on_c, 0, 62, 64
2, 154495, Note_on_c, 0, 63, 0
2, 154502, Control_c, 0, 64, 55
2, 154579, Control_c, 0, 64, 54
2, 154617, Control_c, 0, 64, 54
2, 154636, Note_on_c, 0, 65, 71
2, 154641, Note_on_c, 0, 62, 0
2, 154675, Control_c, 0, 64, 53
2, 154714, Control_c, 0, 64, 53
2, 154791, Control_c, 0, 64, 53
2, 154804, Note_on_c, 0, 68, 81
2, 154808, Control_c, 0, 64, 54
2, 154828, Control_c, 0, 64, 56
2, 154829, Note_on_c, 0, 65, 0
2, 154847, Control_c, 0, 64, 57
2, 154865, Control_c, 0, 64, 59
2, 154885, Control_c, 0, 64, 60
2, 154904, Control_c, 0, 64, 62
2, 154924, Control_c, 0, 64, 62
2, 154942, Control_c, 0, 64, 63
2, 154951, Note_on_c, 0, 68, 0
2, 154965, Note_on_c, 0, 71, 84
2, 155116, Control_c, 0, 64, 62
2, 155128, Note_on_c, 0, 74, 81
2, 155135, Control_c, 0, 64, 59
2, 155154, Control_c, 0, 64, 53
2, 155173, Control_c, 0, 64, 43
2, 155173, Note_on_c, 0, 71, 0
2, 155193, Control_c, 0, 64, 37
2, 155211, Control_c, 0, 64, 37
2, 155231, Control_c, 0, 64, 39
2, 155250, Control_c, 0, 64, 47
2, 155270, Control_c, 0, 64, 55
2, 155288, Control_c, 0, 64, 59
2, 155308, Control_c, 0, 64, 61
2, 155314, Note_on_c, 0, 77, 86
2, 155327, Control_c, 0, 64, 62
2, 155345, Control_c, 0, 64, 63
2, 155384, Control_c, 0, 64, 63
2, 155392, Note_on_c, 0, 74, 0
2, 155481, Control_c, 0, 64, 61
2, 155499, Control_c, 0, 64, 56
2, 155519, Control_c, 0, 64, 46
2, 155538, Control_c, 0, 64, 33
2, 155544, Note_on_c, 0, 80, 89
2, 155557, Control_c, 0, 64, 27
2, 155576, Control_c, 0, 64, 28
2, 155596, Control_c, 0, 64, 41
2, 155601, Note_on_c, 0, 77, 0
2, 155615, Control_c, 0, 64, 53
2, 155634, Control_c, 0, 64, 58
2, 155653, Control_c, 0, 64, 60
2, 155673, Control_c, 0, 64, 61
2, 155711, Control_c, 0, 64, 61
2, 155750, Control_c, 0, 64, 62
2, 155768, Control_c, 0, 64, 63
2, 155788, Control_c, 0, 64, 63
2, 155812, Note_on_c, 0, 83, 89
2, 155825, Control_c, 0, 64, 64
2, 155841, Note_on_c, 0, 80, 0
2, 155845, Control_c, 0, 64, 64
2, 155884, Control_c, 0, 64, 65
2, 155961, Control_c, 0, 64, 64
2, 155979, Control_c, 0, 64, 64
2, 155999, Control_c, 0, 64, 63
2, 156018, Control_c, 0, 64, 60
2, 156020, Note_on_c, 0, 82, 87
2, 156037, Control_c, 0, 64, 58
2, 156039, Note_on_c, 0, 83, 0
2, 156076, Control_c, 0, 64, 59
2, 156095, Control_c, 0, 64, 61
2, 156114, Control_c, 0, 64, 62
2, 156133, Control_c, 0, 64, 64
2, 156153, Control_c, 0, 64, 64
2, 156171, Control_c, 0, 64, 65
2, 156179, Note_on_c, 0, 74, 83
2, 156203, Note_on_c, 0, 82, 0
2, 156248, Control_c, 0, 64, 64
2, 156364, Control_c, 0, 64, 64
2, 156382, Control_c, 0, 64, 63
2, 156389, Note_on_c, 0, 75, 91
2, 156402, Control_c, 0, 64, 60
2, 156421, Control_c, 0, 64, 49
2, 156434, Note_on_c, 0, 74, 0
2, 156441, Control_c, 0, 64, 27
2, 156459, Control_c, 0, 64, 0
2, 156556, Control_c, 0, 64, 36
2, 156575, Control_c, 0, 64, 52
2, 156594, Control_c, 0, 64, 60
2, 156613, Control_c, 0, 64, 62
2, 156633, Control_c, 0, 64, 63
2, 156651, Control_c, 0, 64, 64
2, 156671, Control_c, 0, 64, 66
2, 156690, Control_c, 0, 64, 68
2, 156710, Control_c, 0, 64, 71
2, 156728, Control_c, 0, 64, 76
2, 156748, Control_c, 0, 64, 81
2, 156767, Control_c, 0, 64, 86
2, 156785, Control_c, 0, 64, 89
2, 156805, Control_c, 0, 64, 91
2, 156824, Control_c, 0, 64, 93
2, 156844, Control_c, 0, 64, 94
2, 156862, Control_c, 0, 64, 95
2, 156875, Note_on_c, 0, 75, 0
2, 156882, Control_c, 0, 64, 95
2, 156901, Control_c, 0, 64, 96
2, 157016, Control_c, 0, 64, 96
2, 157131, Control_c, 0, 64, 97
2, 157151, Control_c, 0, 64, 97
2, 157170, Control_c, 0, 64, 98
2, 157190, Control_c, 0, 64, 98
2, 157208, Control_c, 0, 64, 99
2, 157247, Control_c, 0, 64, 96
2, 157265, Control_c, 0, 64, 84
2, 157286, Control_c, 0, 64, 71
2, 157295, Note_on_c, 0, 70, 88
2, 157308, Control_c, 0, 64, 62
2, 157312, Note_on_c, 0, 66, 69
2, 157328, Control_c, 0, 64, 59
2, 157329, Note_on_c, 0, 51, 69
2, 157346, Control_c, 0, 64, 62
2, 157346, Note_on_c, 0, 39, 62
2, 157366, Control_c, 0, 64, 65
2, 157385, Control_c, 0, 64, 70
2, 157404, Control_c, 0, 64, 79
2, 157423, Control_c, 0, 64, 95
2, 157443, Control_c, 0, 64, 116
2, 157457, Note_on_c, 0, 51, 0
2, 157462, Control_c, 0, 64, 127
2, 157463, Note_on_c, 0, 39, 0
2, 157591, Note_on_c, 0, 66, 0
2, 157591, Note_on_c, 0, 70, 0
2, 157800, Note_on_c, 0, 46, 54
2, 157802, Note_on_c, 0, 51, 59
2, 157804, Note_on_c, 0, 54, 58
2, 157807, Control_c, 0, 64, 110
2, 157811, Note_on_c, 0, 68, 92
2, 157825, Control_c, 0, 64, 98
2, 157830, Note_on_c, 0, 63, 74
2, 157845, Control_c, 0, 64, 83
2, 157864, Control_c, 0, 64, 70
2, 157884, Control_c, 0, 64, 61
2, 157902, Control_c, 0, 64, 50
2, 157922, Control_c, 0, 64, 48
2, 157960, Control_c, 0, 64, 50
2, 157979, Control_c, 0, 64, 51
2, 157999, Control_c, 0, 64, 51
2, 158018, Control_c, 0, 64, 52
2, 158036, Control_c, 0, 64, 53
2, 158056, Control_c, 0, 64, 53
2, 158075, Control_c, 0, 64, 54
2, 158094, Control_c, 0, 64, 55
2, 158133, Control_c, 0, 64, 55
2, 158171, Control_c, 0, 64, 56
2, 158190, Control_c, 0, 64, 57
2, 158210, Control_c, 0, 64, 58
2, 158228, Control_c, 0, 64, 58
2, 158248, Control_c, 0, 64, 59
2, 158259, Note_on_c, 0, 66, 87
2, 158287, Control_c, 0, 64, 60
2, 158373, Note_on_c, 0, 68, 0
2, 158632, Control_c, 0, 64, 60
2, 158670, Control_c, 0, 64, 61
2, 158824, Control_c, 0, 64, 61
2, 158844, Control_c, 0, 64, 62
2, 158862, Control_c, 0, 64, 63
2, 158882, Control_c, 0, 64, 63
2, 158901, Control_c, 0, 64, 65
2, 158920, Control_c, 0, 64, 66
2, 158939, Control_c, 0, 64, 69
2, 158959, Control_c, 0, 64, 74
2, 158978, Control_c, 0, 64, 83
2, 158996, Control_c, 0, 64, 97
2, 159016, Control_c, 0, 64, 127
2, 159073, Control_c, 0, 67, 8
2, 159093, Control_c, 0, 67, 13
2, 159101, Note_on_c, 0, 66, 0
2, 159112, Control_c, 0, 67, 18
2, 159130, Note_on_c, 0, 51, 0
2, 159131, Control_c, 0, 67, 27
2, 159150, Control_c, 0, 67, 34
2, 159170, Control_c, 0, 67, 39
2, 159188, Control_c, 0, 67, 43
2, 159191, Note_on_c, 0, 63, 0
2, 159207, Note_on_c, 0, 46, 0
2, 159208, Control_c, 0, 67, 46
2, 159227, Control_c, 0, 67, 47
2, 159235, Note_on_c, 0, 54, 0
2, 159247, Control_c, 0, 67, 48
2, 159285, Control_c, 0, 67, 48
2, 159342, Control_c, 0, 67, 49
2, 159362, Control_c, 0, 67, 49
2, 159419, Control_c, 0, 67, 50
2, 159439, Control_c, 0, 67, 50
2, 159458, Control_c, 0, 67, 51
2, 159564, Note_on_c, 0, 65, 64
2, 159571, Note_on_c, 0, 46, 48
2, 159571, Note_on_c, 0, 56, 51
2, 159575, Note_on_c, 0, 62, 53
2, 159589, Note_on_c, 0, 53, 49
2, 159592, Control_c, 0, 67, 51
2, 159609, Note_on_c, 0, 65, 0
2, 159615, Note_on_c, 0, 66, 65
2, 159648, Control_c, 0, 64, 118
2, 159667, Control_c, 0, 64, 104
2, 159686, Control_c, 0, 64, 93
2, 159686, Control_c, 0, 67, 50
2, 159699, Note_on_c, 0, 65, 53
2, 159705, Control_c, 0, 64, 85
2, 159725, Control_c, 0, 64, 76
2, 159725, Control_c, 0, 67, 50
2, 159744, Control_c, 0, 64, 69
2, 159763, Control_c, 0, 64, 63
2, 159782, Control_c, 0, 64, 57
2, 159789, Note_on_c, 0, 66, 0
2, 159802, Control_c, 0, 64, 54
2, 159802, Control_c, 0, 67, 51
2, 159820, Control_c, 0, 67, 51
2, 159840, Control_c, 0, 67, 53
2, 159859, Control_c, 0, 64, 55
2, 159859, Control_c, 0, 67, 53
2, 159878, Control_c, 0, 67, 56
2, 159897, Control_c, 0, 67, 60
2, 159916, Control_c, 0, 67, 65
2, 159936, Control_c, 0, 64, 56
2, 159936, Control_c, 0, 67, 70
2, 159954, Control_c, 0, 64, 57
2, 159954, Control_c, 0, 67, 72
2, 159974, Control_c, 0, 64, 58
2, 159974, Control_c, 0, 67, 73
2, 159992, Note_on_c, 0, 63, 63
2, 159993, Control_c, 0, 64, 60
2, 160013, Control_c, 0, 64, 62
2, 160015, Note_on_c, 0, 65, 0
2, 160031, Control_c, 0, 64, 62
2, 160051, Control_c, 0, 67, 73
2, 160128, Control_c, 0, 67, 73
2, 160147, Control_c, 0, 67, 72
2, 160169, Control_c, 0, 64, 62
2, 160169, Control_c, 0, 67, 72
2, 160208, Control_c, 0, 64, 61
2, 160208, Control_c, 0, 67, 71
2, 160246, Control_c, 0, 64, 61
2, 160265, Control_c, 0, 64, 60
2, 160265, Control_c, 0, 67, 71
2, 160284, Control_c, 0, 64, 59
2, 160284, Control_c, 0, 67, 70
2, 160303, Control_c, 0, 64, 57
2, 160323, Control_c, 0, 64, 55
2, 160323, Control_c, 0, 67, 70
2, 160342, Control_c, 0, 64, 53
2, 160361, Control_c, 0, 64, 53
2, 160377, Note_on_c, 0, 63, 0
2, 160380, Control_c, 0, 64, 52
2, 160400, Control_c, 0, 64, 51
2, 160407, Note_on_c, 0, 65, 44
2, 160419, Control_c, 0, 64, 50
2, 160437, Control_c, 0, 64, 50
2, 160534, Control_c, 0, 64, 49
2, 160534, Control_c, 0, 67, 69
2, 160553, Control_c, 0, 67, 69
2, 160572, Control_c, 0, 67, 68
2, 160610, Control_c, 0, 64, 50
2, 160628, Control_c, 0, 64, 52
2, 160628, Control_c, 0, 67, 68
2, 160648, Control_c, 0, 64, 54
2, 160667, Control_c, 0, 64, 57
2, 160687, Control_c, 0, 64, 60
2, 160705, Control_c, 0, 64, 62
2, 160705, Control_c, 0, 67, 68
2, 160725, Control_c, 0, 64, 64
2, 160744, Control_c, 0, 64, 67
2, 160744, Control_c, 0, 67, 69
2, 160764, Control_c, 0, 64, 74
2, 160764, Control_c, 0, 67, 70
2, 160782, Control_c, 0, 64, 88
2, 160782, Control_c, 0, 67, 70
2, 160802, Control_c, 0, 64, 127
2, 160802, Control_c, 0, 67, 71
2, 160821, Control_c, 0, 67, 72
2, 160824, Note_on_c, 0, 53, 0
2, 160835, Note_on_c, 0, 46, 0
2, 160840, Control_c, 0, 67, 73
2, 160859, Control_c, 0, 67, 74
2, 160878, Control_c, 0, 67, 75
2, 160898, Control_c, 0, 67, 79
2, 160916, Control_c, 0, 67, 87
2, 160936, Control_c, 0, 67, 98
2, 160955, Control_c, 0, 67, 108
2, 160957, Note_on_c, 0, 56, 0
2, 160974, Control_c, 0, 67, 117
2, 160993, Control_c, 0, 67, 126
2, 161013, Control_c, 0, 67, 127
2, 161270, Note_on_c, 0, 51, 36
2, 161380, Control_c, 0, 64, 108
2, 161400, Control_c, 0, 64, 101
2, 161403, Note_on_c, 0, 55, 21
2, 161419, Control_c, 0, 64, 94
2, 161438, Control_c, 0, 64, 85
2, 161447, Note_on_c, 0, 58, 27
2, 161457, Control_c, 0, 64, 75
2, 161476, Control_c, 0, 64, 66
2, 161485, Note_on_c, 0, 63, 42
2, 161496, Control_c, 0, 64, 59
2, 161496, Note_on_c, 0, 61, 24
2, 161514, Control_c, 0, 64, 52
2, 161528, Note_on_c, 0, 62, 0
2, 161534, Control_c, 0, 64, 50
2, 161553, Control_c, 0, 64, 48
2, 161573, Control_c, 0, 64, 46
2, 161591, Control_c, 0, 64, 45
2, 161605, Note_on_c, 0, 65, 0
2, 161611, Control_c, 0, 64, 44
2, 161630, Control_c, 0, 64, 43
2, 161803, Control_c, 0, 64, 43
2, 161822, Control_c, 0, 64, 44
2, 161842, Control_c, 0, 64, 45
2, 161860, Control_c, 0, 64, 46
2, 161880, Control_c, 0, 64, 47
2, 161899, Control_c, 0, 64, 48
2, 161918, Control_c, 0, 64, 50
2, 161937, Control_c, 0, 64, 51
2, 161956, Control_c, 0, 64, 52
2, 161956, Control_c, 0, 67, 127
2, 161976, Control_c, 0, 64, 53
2, 161976, Control_c, 0, 67, 126
2, 161994, Control_c, 0, 64, 54
2, 161994, Control_c, 0, 67, 125
2, 162014, Control_c, 0, 64, 55
2, 162014, Control_c, 0, 67, 125
2, 162033, Control_c, 0, 64, 56
2, 162033, Control_c, 0, 67, 124
2, 162053, Control_c, 0, 64, 57
2, 162053, Control_c, 0, 67, 124
2, 162072, Control_c, 0, 64, 58
2, 162072, Control_c, 0, 67, 123
2, 162092, Control_c, 0, 64, 59
2, 162092, Control_c, 0, 67, 123
2, 162111, Control_c, 0, 64, 60
2, 162130, Control_c, 0, 64, 62
2, 162130, Control_c, 0, 67, 122
2, 162149, Control_c, 0, 64, 63
2, 162169, Control_c, 0, 64, 64
2, 162188, Control_c, 0, 64, 66
2, 162188, Control_c, 0, 67, 123
2, 162207, Control_c, 0, 64, 69
2, 162207, Control_c, 0, 67, 123
2, 162226, Control_c, 0, 64, 75
2, 162226, Control_c, 0, 67, 124
2, 162246, Control_c, 0, 64, 84
2, 162246, Control_c, 0, 67, 126
2, 162264, Control_c, 0, 64, 94
2, 162264, Control_c, 0, 67, 127
2, 162284, Control_c, 0, 64, 100
2, 162284, Control_c, 0, 67, 127
2, 162303, Control_c, 0, 64, 102
2, 162323, Control_c, 0, 64, 104
2, 162341, Control_c, 0, 64, 106
2, 162377, Note_on_c, 0, 55, 0
2, 162414, Note_on_c, 0, 51, 0
2, 162430, Note_on_c, 0, 61, 0
2, 162454, Note_on_c, 0, 58, 0
2, 162475, Control_c, 0, 64, 106
2, 162495, Control_c, 0, 64, 105
2, 162514, Control_c, 0, 64, 104
2, 162534, Control_c, 0, 64, 103
2, 162552, Control_c, 0, 64, 103
2, 162572, Control_c, 0, 64, 102
2, 162591, Control_c, 0, 64, 102
2, 162610, Control_c, 0, 64, 99
2, 162629, Control_c, 0, 64, 96
2, 162649, Control_c, 0, 64, 94
2, 162668, Control_c, 0, 64, 93
2, 162676, Note_on_c, 0, 51, 29
2, 162687, Control_c, 0, 64, 91
2, 162706, Control_c, 0, 64, 90
2, 162726, Control_c, 0, 64, 87
2, 162744, Control_c, 0, 64, 83
2, 162764, Control_c, 0, 64, 80
2, 162776, Note_on_c, 0, 55, 32
2, 162783, Control_c, 0, 64, 77
2, 162803, Control_c, 0, 64, 73
2, 162821, Control_c, 0, 64, 69
2, 162824, Note_on_c, 0, 58, 21
2, 162841, Control_c, 0, 64, 64
2, 162860, Control_c, 0, 64, 60
2, 162878, Control_c, 0, 64, 57
2, 162894, Note_on_c, 0, 61, 32
2, 162898, Control_c, 0, 64, 56
2, 162917, Control_c, 0, 64, 56
2, 162937, Control_c, 0, 64, 55
2, 162955, Control_c, 0, 64, 54
2, 162975, Control_c, 0, 64, 53
2, 162994, Control_c, 0, 64, 52
2, 163014, Control_c, 0, 64, 52
2, 163035, Control_c, 0, 64, 51
2, 163055, Control_c, 0, 64, 50
2, 163073, Control_c, 0, 64, 50
2, 163093, Control_c, 0, 64, 49
2, 163227, Control_c, 0, 64, 50
2, 163266, Control_c, 0, 64, 50
2, 163362, Control_c, 0, 64, 51
2, 163381, Control_c, 0, 64, 52
2, 163401, Control_c, 0, 64, 54
2, 163419, Control_c, 0, 64, 55
2, 163438, Control_c, 0, 64, 57
2, 163451, Control_c, 0, 64, 58
2, 163470, Control_c, 0, 64, 59
2, 163490, Control_c, 0, 64, 61
2, 163508, Control_c, 0, 64, 62
2, 163528, Control_c, 0, 64, 63
2, 163547, Control_c, 0, 64, 64
2, 163567, Control_c, 0, 64, 66
2, 163585, Control_c, 0, 64, 68
2, 163605, Control_c, 0, 64, 70
2, 163624, Control_c, 0, 64, 74
2, 163644, Control_c, 0, 64, 78
2, 163656, Note_on_c, 0, 63, 0
2, 163662, Control_c, 0, 64, 82
2, 163682, Control_c, 0, 64, 85
2, 163701, Control_c, 0, 64, 87
2, 163822, Note_on_c, 0, 65, 51
2, 163875, Note_on_c, 0, 55, 0
2, 163893, Control_c, 0, 64, 86
2, 163916, Note_on_c, 0, 51, 0
2, 163922, Note_on_c, 0, 58, 0
2, 163931, Note_on_c, 0, 61, 0
2, 163988, Control_c, 0, 64, 86
2, 163991, Note_on_c, 0, 67, 59
2, 164027, Control_c, 0, 64, 85
2, 164065, Control_c, 0, 64, 85
2, 164082, Note_on_c, 0, 65, 0
2, 164104, Control_c, 0, 64, 84
2, 164124, Control_c, 0, 64, 84
2, 164142, Control_c, 0, 64, 83
2, 164151, Note_on_c, 0, 68, 64
2, 164162, Control_c, 0, 64, 82
2, 164181, Control_c, 0, 64, 81
2, 164190, Note_on_c, 0, 51, 36
2, 164200, Control_c, 0, 64, 80
2, 164219, Control_c, 0, 64, 78
2, 164238, Control_c, 0, 64, 77
2, 164258, Control_c, 0, 64, 74
2, 164276, Control_c, 0, 64, 72
2, 164296, Control_c, 0, 64, 70
2, 164313, Note_on_c, 0, 55, 29
2, 164315, Control_c, 0, 64, 68
2, 164334, Control_c, 0, 64, 65
2, 164353, Control_c, 0, 64, 63
2, 164370, Note_on_c, 0, 58, 30
2, 164373, Control_c, 0, 64, 61
2, 164392, Control_c, 0, 64, 59
2, 164410, Note_on_c, 0, 67, 0
2, 164411, Control_c, 0, 64, 57
2, 164431, Control_c, 0, 64, 54
2, 164438, Note_on_c, 0, 70, 62
2, 164451, Control_c, 0, 64, 51
2, 164452, Note_on_c, 0, 61, 17
2, 164469, Control_c, 0, 64, 48
2, 164478, Note_on_c, 0, 68, 0
2, 164489, Control_c, 0, 64, 46
2, 164508, Control_c, 0, 64, 45
2, 164528, Control_c, 0, 64, 43
2, 164546, Control_c, 0, 64, 41
2, 164566, Control_c, 0, 64, 40
2, 164585, Control_c, 0, 64, 39
2, 164623, Control_c, 0, 64, 38
2, 164643, Control_c, 0, 64, 37
2, 164662, Control_c, 0, 64, 37
2, 164681, Control_c, 0, 64, 36
2, 164700, Control_c, 0, 64, 35
2, 164720, Control_c, 0, 64, 35
2, 164739, Control_c, 0, 64, 34
2, 164757, Control_c, 0, 64, 32
2, 164777, Control_c, 0, 64, 31
2, 164796, Control_c, 0, 64, 28
2, 164815, Control_c, 0, 64, 24
2, 164834, Control_c, 0, 64, 21
2, 164854, Control_c, 0, 64, 20
2, 164873, Control_c, 0, 64, 19
2, 165012, Control_c, 0, 64, 23
2, 165031, Control_c, 0, 64, 33
2, 165051, Control_c, 0, 64, 43
2, 165069, Control_c, 0, 64, 50
2, 165089, Control_c, 0, 64, 57
2, 165108, Control_c, 0, 64, 61
2, 165128, Control_c, 0, 64, 64
2, 165146, Control_c, 0, 64, 67
2, 165166, Control_c, 0, 64, 71
2, 165185, Control_c, 0, 64, 79
2, 165204, Control_c, 0, 64, 89
2, 165223, Control_c, 0, 64, 100
2, 165243, Control_c, 0, 64, 108
2, 165262, Control_c, 0, 64, 127
2, 165289, Note_on_c, 0, 61, 0
2, 165301, Note_on_c, 0, 64, 42
2, 165343, Note_on_c, 0, 70, 0
2, 165345, Note_on_c, 0, 58, 0
2, 165430, Note_on_c, 0, 55, 0
2, 165458, Note_on_c, 0, 51, 0
2, 165463, Note_on_c, 0, 64, 0
2, 165492, Note_on_c, 0, 63, 45
2, 165636, Note_on_c, 0, 63, 0
2, 165650, Note_on_c, 0, 61, 52
2, 165729, Note_on_c, 0, 61, 0
2, 165815, Control_c, 0, 64, 110
2, 165833, Control_c, 0, 64, 102
2, 165853, Control_c, 0, 64, 96
2, 165872, Control_c, 0, 64, 92
2, 165892, Control_c, 0, 64, 90
2, 165901, Note_on_c, 0, 56, 31
2, 165904, Note_on_c, 0, 51, 29
2, 165910, Control_c, 0, 64, 85
2, 165913, Note_on_c, 0, 59, 43
2, 165930, Control_c, 0, 64, 79
2, 165949, Control_c, 0, 64, 71
2, 165969, Control_c, 0, 64, 63
2, 165987, Control_c, 0, 64, 52
2, 166007, Control_c, 0, 64, 45
2, 166026, Control_c, 0, 64, 44
2, 166045, Control_c, 0, 64, 41
2, 166064, Control_c, 0, 64, 38
2, 166084, Control_c, 0, 64, 34
2, 166103, Control_c, 0, 64, 30
2, 166122, Control_c, 0, 64, 29
2, 166141, Control_c, 0, 64, 28
2, 166275, Control_c, 0, 64, 29
2, 166295, Control_c, 0, 64, 32
2, 166313, Control_c, 0, 64, 36
2, 166333, Control_c, 0, 64, 41
2, 166351, Control_c, 0, 64, 45
2, 166371, Control_c, 0, 64, 48
2, 166389, Control_c, 0, 64, 50
2, 166428, Control_c, 0, 64, 46
2, 166448, Control_c, 0, 64, 38
2, 166466, Control_c, 0, 64, 25
2, 166486, Control_c, 0, 64, 0
2, 166620, Control_c, 0, 64, 15
2, 166639, Control_c, 0, 64, 50
2, 166659, Control_c, 0, 64, 62
2, 166677, Control_c, 0, 64, 66
2, 166697, Control_c, 0, 64, 69
2, 166716, Control_c, 0, 64, 75
2, 166735, Control_c, 0, 64, 87
2, 166754, Control_c, 0, 64, 96
2, 166774, Control_c, 0, 64, 101
2, 166793, Control_c, 0, 64, 101
2, 166887, Control_c, 0, 64, 102
2, 166921, Note_on_c, 0, 56, 0
2, 166936, Note_on_c, 0, 51, 0
2, 167003, Control_c, 0, 64, 101
2, 167021, Control_c, 0, 64, 101
2, 167060, Control_c, 0, 64, 100
2, 167078, Control_c, 0, 64, 99
2, 167098, Control_c, 0, 64, 99
2, 167117, Control_c, 0, 64, 98
2, 167155, Control_c, 0, 64, 97
2, 167175, Control_c, 0, 64, 95
2, 167194, Control_c, 0, 64, 94
2, 167214, Control_c, 0, 64, 92
2, 167232, Control_c, 0, 64, 90
2, 167252, Control_c, 0, 64, 90
2, 167264, Note_on_c, 0, 56, 36
2, 167271, Control_c, 0, 64, 89
2, 167272, Note_on_c, 0, 51, 29
2, 167290, Control_c, 0, 64, 87
2, 167308, Control_c, 0, 64, 83
2, 167328, Control_c, 0, 64, 79
2, 167347, Control_c, 0, 64, 73
2, 167366, Control_c, 0, 64, 66
2, 167385, Control_c, 0, 64, 60
2, 167405, Control_c, 0, 64, 56
2, 167424, Control_c, 0, 64, 59
2, 167443, Control_c, 0, 64, 61
2, 167462, Control_c, 0, 64, 63
2, 167482, Control_c, 0, 64, 64
2, 167500, Control_c, 0, 64, 65
2, 167519, Control_c, 0, 64, 66
2, 167521, Note_on_c, 0, 59, 0
2, 167539, Control_c, 0, 64, 67
2, 167558, Control_c, 0, 64, 68
2, 167711, Control_c, 0, 64, 68
2, 167827, Control_c, 0, 64, 69
2, 167865, Control_c, 0, 64, 70
2, 167885, Control_c, 0, 64, 71
2, 167904, Control_c, 0, 64, 73
2, 167921, Note_on_c, 0, 63, 25
2, 167923, Control_c, 0, 64, 76
2, 167942, Control_c, 0, 64, 78
2, 167962, Control_c, 0, 64, 79
2, 168085, Note_on_c, 0, 63, 0
2, 168189, Note_on_c, 0, 65, 43
2, 168259, Note_on_c, 0, 65, 0
2, 168288, Control_c, 0, 64, 79
2, 168328, Note_on_c, 0, 56, 0
2, 168333, Note_on_c, 0, 51, 0
2, 168347, Note_on_c, 0, 67, 46
2, 168403, Control_c, 0, 64, 78
2, 168460, Control_c, 0, 64, 78
2, 168503, Note_on_c, 0, 68, 68
2, 168537, Control_c, 0, 64, 77
2, 168556, Control_c, 0, 64, 77
2, 168580, Note_on_c, 0, 67, 0
2, 168614, Control_c, 0, 64, 76
2, 168633, Control_c, 0, 64, 76
2, 168648, Note_on_c, 0, 70, 69
2, 168653, Control_c, 0, 64, 75
2, 168671, Control_c, 0, 64, 75
2, 168691, Control_c, 0, 64, 74
2, 168702, Note_on_c, 0, 68, 0
2, 168710, Control_c, 0, 64, 74
2, 168729, Control_c, 0, 64, 73
2, 168748, Control_c, 0, 64, 72
2, 168768, Control_c, 0, 64, 71
2, 168787, Control_c, 0, 64, 70
2, 168806, Control_c, 0, 64, 68
2, 168825, Control_c, 0, 64, 67
2, 168845, Control_c, 0, 64, 65
2, 168848, Note_on_c, 0, 51, 29
2, 168856, Note_on_c, 0, 56, 31
2, 168864, Control_c, 0, 64, 62
2, 168883, Control_c, 0, 64, 59
2, 168886, Note_on_c, 0, 71, 61
2, 168902, Control_c, 0, 64, 56
2, 168922, Control_c, 0, 64, 53
2, 168938, Note_on_c, 0, 70, 0
2, 168940, Control_c, 0, 64, 48
2, 168959, Control_c, 0, 64, 39
2, 168979, Control_c, 0, 64, 25
2, 168998, Control_c, 0, 64, 0
2, 169267, Control_c, 0, 64, 21
2, 169286, Control_c, 0, 64, 45
2, 169305, Control_c, 0, 64, 58
2, 169325, Control_c, 0, 64, 63
2, 169344, Control_c, 0, 64, 65
2, 169363, Control_c, 0, 64, 66
2, 169382, Control_c, 0, 64, 68
2, 169402, Control_c, 0, 64, 71
2, 169420, Control_c, 0, 64, 74
2, 169431, Note_on_c, 0, 70, 50
2, 169439, Control_c, 0, 64, 77
2, 169459, Control_c, 0, 64, 78
2, 169500, Note_on_c, 0, 68, 47
2, 169500, Note_on_c, 0, 71, 0
2, 169536, Control_c, 0, 64, 77
2, 169540, Note_on_c, 0, 70, 0
2, 169554, Control_c, 0, 64, 76
2, 169567, Note_on_c, 0, 66, 48
2, 169568, Note_on_c, 0, 68, 0
2, 169574, Control_c, 0, 64, 73
2, 169593, Control_c, 0, 64, 69
2, 169613, Control_c, 0, 64, 64
2, 169622, Note_on_c, 0, 66, 0
2, 169631, Control_c, 0, 64, 60
2, 169637, Note_on_c, 0, 65, 53
2, 169651, Control_c, 0, 64, 61
2, 169670, Control_c, 0, 64, 61
2, 169689, Control_c, 0, 64, 62
2, 169708, Control_c, 0, 64, 62
2, 169728, Control_c, 0, 64, 63
2, 169767, Control_c, 0, 64, 62
2, 169786, Control_c, 0, 64, 61
2, 169805, Note_on_c, 0, 65, 0
2, 169806, Control_c, 0, 64, 60
2, 169824, Control_c, 0, 64, 59
2, 169828, Note_on_c, 0, 66, 46
2, 169844, Control_c, 0, 64, 57
2, 169863, Control_c, 0, 64, 54
2, 169883, Control_c, 0, 64, 53
2, 169901, Control_c, 0, 64, 56
2, 169921, Control_c, 0, 64, 59
2, 169940, Control_c, 0, 64, 61
2, 169958, Control_c, 0, 64, 63
2, 169974, Note_on_c, 0, 68, 50
2, 169978, Control_c, 0, 64, 65
2, 169997, Control_c, 0, 64, 67
2, 170017, Control_c, 0, 64, 71
2, 170035, Control_c, 0, 64, 79
2, 170039, Note_on_c, 0, 66, 0
2, 170055, Control_c, 0, 64, 88
2, 170074, Control_c, 0, 64, 94
2, 170094, Control_c, 0, 64, 94
2, 170122, Note_on_c, 0, 51, 0
2, 170135, Note_on_c, 0, 68, 0
2, 170141, Note_on_c, 0, 56, 0
2, 170177, Note_on_c, 0, 65, 51
2, 170189, Control_c, 0, 64, 94
2, 170226, Note_on_c, 0, 65, 0
2, 170228, Control_c, 0, 64, 93
2, 170247, Control_c, 0, 64, 92
2, 170266, Control_c, 0, 64, 91
2, 170286, Control_c, 0, 64, 90
2, 170304, Control_c, 0, 64, 89
2, 170324, Control_c, 0, 64, 88
2, 170343, Control_c, 0, 64, 87
2, 170363, Control_c, 0, 64, 86
2, 170381, Control_c, 0, 64, 85
2, 170400, Control_c, 0, 64, 84
2, 170420, Control_c, 0, 64, 82
2, 170438, Control_c, 0, 64, 80
2, 170447, Note_on_c, 0, 51, 24
2, 170458, Control_c, 0, 64, 78
2, 170466, Note_on_c, 0, 53, 27
2, 170477, Control_c, 0, 64, 77
2, 170497, Control_c, 0, 64, 76
2, 170515, Control_c, 0, 64, 75
2, 170518, Note_on_c, 0, 62, 61
2, 170535, Control_c, 0, 64, 72
2, 170554, Control_c, 0, 64, 70
2, 170574, Control_c, 0, 64, 66
2, 170592, Control_c, 0, 64, 64
2, 170612, Control_c, 0, 64, 61
2, 170631, Control_c, 0, 64, 57
2, 170650, Control_c, 0, 64, 51
2, 170669, Control_c, 0, 64, 43
2, 170689, Control_c, 0, 64, 33
2, 170708, Control_c, 0, 64, 23
2, 170728, Control_c, 0, 64, 9
2, 170747, Control_c, 0, 64, 0
2, 171016, Control_c, 0, 64, 19
2, 171035, Control_c, 0, 64, 28
2, 171054, Control_c, 0, 64, 36
2, 171073, Control_c, 0, 64, 43
2, 171093, Control_c, 0, 64, 51
2, 171112, Control_c, 0, 64, 57
2, 171131, Control_c, 0, 64, 60
2, 171150, Control_c, 0, 64, 63
2, 171170, Control_c, 0, 64, 65
2, 171189, Control_c, 0, 64, 68
2, 171208, Control_c, 0, 64, 73
2, 171227, Control_c, 0, 64, 82
2, 171247, Control_c, 0, 64, 96
2, 171265, Control_c, 0, 64, 116
2, 171285, Control_c, 0, 64, 127
2, 171347, Note_on_c, 0, 53, 0
2, 171464, Note_on_c, 0, 51, 0
2, 171706, Note_on_c, 0, 59, 38
2, 171782, Note_on_c, 0, 59, 0
2, 171840, Control_c, 0, 64, 123
2, 171846, Note_on_c, 0, 58, 34
2, 171860, Control_c, 0, 64, 112
2, 171878, Control_c, 0, 64, 107
2, 171898, Control_c, 0, 64, 104
2, 171917, Control_c, 0, 64, 100
2, 171937, Control_c, 0, 64, 97
2, 171955, Control_c, 0, 64, 93
2, 171975, Control_c, 0, 64, 88
2, 171994, Control_c, 0, 64, 83
2, 172014, Control_c, 0, 64, 79
2, 172032, Control_c, 0, 64, 76
2, 172034, Note_on_c, 0, 58, 0
2, 172043, Note_on_c, 0, 59, 39
2, 172047, Note_on_c, 0, 51, 20
2, 172052, Control_c, 0, 64, 73
2, 172071, Control_c, 0, 64, 71
2, 172087, Note_on_c, 0, 53, 3
2, 172090, Control_c, 0, 64, 68
2, 172109, Control_c, 0, 64, 67
2, 172129, Control_c, 0, 64, 66
2, 172148, Control_c, 0, 64, 65
2, 172167, Control_c, 0, 64, 64
2, 172186, Control_c, 0, 64, 64
2, 172206, Control_c, 0, 64, 63
2, 172261, Note_on_c, 0, 53, 0
2, 172263, Control_c, 0, 64, 63
2, 172283, Control_c, 0, 64, 62
2, 172301, Control_c, 0, 64, 61
2, 172320, Control_c, 0, 64, 60
2, 172340, Control_c, 0, 64, 59
2, 172358, Control_c, 0, 64, 58
2, 172378, Control_c, 0, 64, 55
2, 172397, Control_c, 0, 64, 50
2, 172417, Control_c, 0, 64, 42
2, 172435, Control_c, 0, 64, 35
2, 172455, Control_c, 0, 64, 33
2, 172512, Control_c, 0, 64, 35
2, 172532, Control_c, 0, 64, 39
2, 172551, Control_c, 0, 64, 43
2, 172570, Control_c, 0, 64, 48
2, 172589, Control_c, 0, 64, 53
2, 172609, Control_c, 0, 64, 57
2, 172628, Control_c, 0, 64, 60
2, 172648, Control_c, 0, 64, 62
2, 172667, Control_c, 0, 64, 64
2, 172687, Control_c, 0, 64, 65
2, 172705, Control_c, 0, 64, 68
2, 172725, Control_c, 0, 64, 72
2, 172744, Control_c, 0, 64, 79
2, 172764, Control_c, 0, 64, 90
2, 172782, Control_c, 0, 64, 103
2, 172802, Control_c, 0, 64, 127
2, 172929, Note_on_c, 0, 51, 0
2, 173052, Note_on_c, 0, 56, 34
2, 173208, Note_on_c, 0, 56, 0
2, 173434, Control_c, 0, 64, 121
2, 173454, Control_c, 0, 64, 109
2, 173472, Control_c, 0, 64, 100
2, 173492, Control_c, 0, 64, 94
2, 173495, Note_on_c, 0, 53, 15
2, 173507, Note_on_c, 0, 51, 22
2, 173511, Control_c, 0, 64, 89
2, 173530, Control_c, 0, 64, 85
2, 173549, Control_c, 0, 64, 81
2, 173569, Control_c, 0, 64, 77
2, 173588, Control_c, 0, 64, 73
2, 173608, Control_c, 0, 64, 69
2, 173627, Control_c, 0, 64, 66
2, 173647, Control_c, 0, 64, 65
2, 173665, Control_c, 0, 64, 64
2, 173685, Control_c, 0, 64, 63
2, 173704, Control_c, 0, 64, 62
2, 173724, Control_c, 0, 64, 59
2, 173742, Control_c, 0, 64, 57
2, 173762, Control_c, 0, 64, 56
2, 173781, Control_c, 0, 64, 55
2, 173819, Control_c, 0, 64, 55
2, 173934, Control_c, 0, 64, 55
2, 173946, Note_on_c, 0, 62, 0
2, 173973, Control_c, 0, 64, 54
2, 173992, Control_c, 0, 64, 51
2, 174011, Control_c, 0, 64, 48
2, 174030, Control_c, 0, 64, 42
2, 174050, Control_c, 0, 64, 0
2, 174414, Control_c, 0, 64, 27
2, 174433, Control_c, 0, 64, 42
2, 174453, Control_c, 0, 64, 51
2, 174472, Control_c, 0, 64, 54
2, 174491, Control_c, 0, 64, 56
2, 174504, Note_on_c, 0, 59, 0
2, 174510, Control_c, 0, 64, 58
2, 174530, Control_c, 0, 64, 59
2, 174549, Control_c, 0, 64, 61
2, 174571, Control_c, 0, 64, 62
2, 174590, Control_c, 0, 64, 63
2, 174609, Control_c, 0, 64, 64
2, 174628, Control_c, 0, 64, 65
2, 174648, Control_c, 0, 64, 66
2, 174667, Control_c, 0, 64, 68
2, 174686, Control_c, 0, 64, 70
2, 174705, Control_c, 0, 64, 74
2, 174725, Control_c, 0, 64, 80
2, 174732, Note_on_c, 0, 51, 0
2, 174744, Control_c, 0, 64, 85
2, 174763, Control_c, 0, 64, 90
2, 174782, Control_c, 0, 64, 93
2, 174802, Control_c, 0, 64, 95
2, 174820, Control_c, 0, 64, 96
2, 174839, Control_c, 0, 64, 98
2, 174859, Control_c, 0, 64, 99
2, 174878, Control_c, 0, 64, 101
2, 174882, Note_on_c, 0, 62, 45
2, 174897, Control_c, 0, 64, 103
2, 174903, Note_on_c, 0, 53, 0
2, 174916, Control_c, 0, 64, 104
2, 175124, Control_c, 0, 64, 104
2, 175224, Note_on_c, 0, 62, 0
2, 175238, Control_c, 0, 64, 103
2, 175354, Control_c, 0, 64, 103
2, 175374, Control_c, 0, 64, 102
2, 175392, Control_c, 0, 64, 101
2, 175412, Control_c, 0, 64, 101
2, 175431, Control_c, 0, 64, 100
2, 175450, Control_c, 0, 64, 99
2, 175469, Control_c, 0, 64, 98
2, 175489, Control_c, 0, 64, 96
2, 175508, Control_c, 0, 64, 95
2, 175529, Control_c, 0, 64, 94
2, 175548, Control_c, 0, 64, 92
2, 175564, Note_on_c, 0, 39, 36
2, 175564, Note_on_c, 0, 63, 48
2, 175568, Control_c, 0, 64, 90
2, 175569, Note_on_c, 0, 55, 37
2, 175586, Control_c, 0, 64, 88
2, 175587, Note_on_c, 0, 51, 30
2, 175599, Note_on_c, 0, 46, 22
2, 175600, Note_on_c, 0, 58, 29
2, 175606, Control_c, 0, 64, 86
2, 175625, Control_c, 0, 64, 84
2, 175644, Control_c, 0, 64, 80
2, 175663, Control_c, 0, 64, 74
2, 175683, Control_c, 0, 64, 67
2, 175702, Control_c, 0, 64, 62
2, 175720, Control_c, 0, 64, 57
2, 175740, Control_c, 0, 64, 53
2, 175759, Control_c, 0, 64, 50
2, 175779, Control_c, 0, 64, 44
2, 175797, Control_c, 0, 64, 33
2, 175817, Control_c, 0, 64, 15
2, 175836, Control_c, 0, 64, 0
2, 176026, Control_c, 0, 67, 126
2, 176046, Control_c, 0, 67, 125
2, 176180, Control_c, 0, 67, 125
2, 176198, Control_c, 0, 67, 126
2, 176218, Control_c, 0, 67, 127
2, 176257, Control_c, 0, 67, 127
2, 176506, Control_c, 0, 64, 15
2, 176526, Control_c, 0, 64, 24
2, 176544, Control_c, 0, 64, 32
2, 176564, Control_c, 0, 64, 42
2, 176583, Control_c, 0, 64, 50
2, 176603, Control_c, 0, 64, 55
2, 176621, Control_c, 0, 64, 57
2, 176640, Control_c, 0, 64, 59
2, 176660, Control_c, 0, 64, 61
2, 176678, Control_c, 0, 64, 62
2, 176698, Control_c, 0, 64, 63
2, 176717, Control_c, 0, 64, 64
2, 176737, Control_c, 0, 64, 64
2, 176755, Control_c, 0, 64, 65
2, 176775, Control_c, 0, 64, 66
2, 176794, Control_c, 0, 64, 67
2, 176814, Control_c, 0, 64, 67
2, 176832, Control_c, 0, 64, 68
2, 176852, Control_c, 0, 64, 68
2, 177083, Control_c, 0, 64, 68
2, 177140, Control_c, 0, 64, 67
2, 177235, Control_c, 0, 64, 67
2, 177274, Control_c, 0, 64, 66
2, 177351, Control_c, 0, 64, 66
2, 177370, Control_c, 0, 64, 65
2, 177447, Control_c, 0, 64, 65
2, 177486, Control_c, 0, 64, 64
2, 177524, Control_c, 0, 64, 64
2, 177563, Control_c, 0, 64, 63
2, 177965, Control_c, 0, 64, 63
2, 178116, Control_c, 0, 64, 62
2, 178500, Control_c, 0, 64, 62
2, 178500, Control_c, 0, 67, 127
2, 178577, Control_c, 0, 67, 126
2, 178615, Control_c, 0, 67, 126
2, 178635, Control_c, 0, 64, 61
2, 178712, Control_c, 0, 64, 61
2, 178731, Control_c, 0, 67, 125
2, 178749, Control_c, 0, 64, 60
2, 178807, Control_c, 0, 64, 60
2, 178827, Control_c, 0, 67, 125
2, 178866, Control_c, 0, 64, 59
2, 178924, Control_c, 0, 64, 59
2, 178981, Control_c, 0, 64, 58
2, 179019, Control_c, 0, 64, 58
2, 179044, Note_on_c, 0, 51, 0
2, 179193, Control_c, 0, 64, 57
2, 179214, Note_on_c, 0, 55, 0
2, 179250, Control_c, 0, 64, 57
2, 179250, Control_c, 0, 67, 125
2, 179288, Control_c, 0, 64, 56
2, 179384, Control_c, 0, 64, 56
2, 179402, Note_on_c, 0, 39, 0
2, 179499, Control_c, 0, 64, 55
2, 179584, Note_on_c, 0, 46, 0
2, 179596, Control_c, 0, 64, 55
2, 179616, Note_on_c, 0, 58, 0
2, 179673, Control_c, 0, 64, 54
2, 179861, Note_on_c, 0, 63, 0
2, 180266, Control_c, 0, 67, 126
2, 180305, Control_c, 0, 64, 55
2, 180480, Control_c, 0, 67, 126
2, 180672, Control_c, 0, 67, 127
2, 180710, Control_c, 0, 64, 55
2, 181341, Control_c, 0, 67, 126
2, 181352, Note_on_c, 0, 63, 40
2, 181476, Control_c, 0, 67, 126
2, 181533, Control_c, 0, 67, 125
2, 181552, Control_c, 0, 67, 125
2, 181590, Control_c, 0, 67, 124
2, 181628, Control_c, 0, 67, 124
2, 181724, Control_c, 0, 67, 124
2, 181820, Control_c, 0, 67, 125
2, 181896, Control_c, 0, 64, 56
2, 181916, Control_c, 0, 64, 56
2, 181955, Control_c, 0, 64, 57
2, 181973, Control_c, 0, 64, 58
2, 181993, Control_c, 0, 64, 59
2, 182012, Control_c, 0, 64, 60
2, 182032, Control_c, 0, 64, 61
2, 182050, Control_c, 0, 64, 62
2, 182069, Control_c, 0, 64, 63
2, 182089, Control_c, 0, 64, 64
2, 182143, Note_on_c, 0, 70, 57
2, 182184, Control_c, 0, 64, 63
2, 182184, Control_c, 0, 67, 125
2, 182223, Control_c, 0, 64, 63
2, 182263, Control_c, 0, 64, 62
2, 182283, Control_c, 0, 64, 62
2, 182283, Control_c, 0, 67, 126
2, 182301, Control_c, 0, 64, 61
2, 182321, Control_c, 0, 64, 61
2, 182340, Control_c, 0, 64, 60
2, 182360, Control_c, 0, 64, 60
2, 182360, Control_c, 0, 67, 126
2, 182398, Control_c, 0, 64, 59
2, 182417, Control_c, 0, 64, 59
2, 182455, Control_c, 0, 67, 127
2, 182482, Note_on_c, 0, 63, 0
2, 182609, Control_c, 0, 67, 127
2, 182666, Control_c, 0, 64, 59
2, 182724, Control_c, 0, 64, 60
2, 182840, Control_c, 0, 64, 60
2, 183462, Note_on_c, 0, 70, 0
2, 183501, Note_on_c, 0, 71, 43
2, 183896, Note_on_c, 0, 70, 45
2, 183964, Note_on_c, 0, 71, 0
2, 184220, Control_c, 0, 64, 60
2, 184260, Note_on_c, 0, 68, 52
2, 184281, Note_on_c, 0, 70, 0
2, 184412, Control_c, 0, 64, 59
2, 184527, Control_c, 0, 64, 59
2, 184604, Control_c, 0, 64, 58
2, 184650, Note_on_c, 0, 66, 47
2, 184657, Note_on_c, 0, 68, 0
2, 184661, Control_c, 0, 64, 58
2, 184681, Control_c, 0, 64, 57
2, 184681, Control_c, 0, 67, 127
2, 184700, Control_c, 0, 64, 57
2, 184738, Control_c, 0, 64, 56
2, 184738, Control_c, 0, 67, 126
2, 184776, Control_c, 0, 64, 56
2, 184776, Control_c, 0, 67, 126
2, 184796, Control_c, 0, 67, 125
2, 184835, Control_c, 0, 67, 125
2, 184853, Control_c, 0, 67, 124
2, 184873, Control_c, 0, 67, 124
2, 184892, Control_c, 0, 67, 123
2, 184911, Control_c, 0, 67, 123
2, 184930, Control_c, 0, 67, 122
2, 184949, Control_c, 0, 64, 56
2, 184949, Control_c, 0, 67, 121
2, 184969, Control_c, 0, 67, 116
2, 184987, Control_c, 0, 67, 111
2, 184990, Note_on_c, 0, 68, 50
2, 185007, Control_c, 0, 64, 57
2, 185007, Control_c, 0, 67, 107
2, 185026, Control_c, 0, 64, 57
2, 185026, Control_c, 0, 67, 106
2, 185061, Note_on_c, 0, 66, 0
2, 185064, Control_c, 0, 67, 106
2, 185084, Control_c, 0, 64, 58
2, 185084, Control_c, 0, 67, 107
2, 185103, Control_c, 0, 67, 107
2, 185122, Control_c, 0, 64, 58
2, 185161, Control_c, 0, 67, 108
2, 185180, Control_c, 0, 64, 59
2, 185276, Control_c, 0, 67, 108
2, 185391, Control_c, 0, 67, 109
2, 185421, Note_on_c, 0, 70, 56
2, 185459, Note_on_c, 0, 68, 0
2, 185487, Control_c, 0, 67, 109
2, 185679, Control_c, 0, 67, 110
2, 185929, Control_c, 0, 64, 59
2, 186044, Control_c, 0, 67, 109
2, 186102, Control_c, 0, 67, 109
2, 186122, Control_c, 0, 67, 108
2, 186141, Control_c, 0, 64, 59
2, 186141, Control_c, 0, 67, 108
2, 186179, Control_c, 0, 64, 58
2, 186179, Control_c, 0, 67, 107
2, 186217, Control_c, 0, 64, 58
2, 186226, Note_on_c, 0, 63, 39
2, 186237, Control_c, 0, 64, 57
2, 186237, Control_c, 0, 67, 107
2, 186256, Control_c, 0, 64, 57
2, 186276, Control_c, 0, 64, 55
2, 186294, Control_c, 0, 64, 54
2, 186314, Control_c, 0, 64, 54
2, 186333, Control_c, 0, 64, 53
2, 186390, Control_c, 0, 67, 107
2, 186410, Control_c, 0, 64, 53
2, 186428, Control_c, 0, 64, 54
2, 186448, Control_c, 0, 64, 56
2, 186467, Control_c, 0, 64, 59
2, 186467, Control_c, 0, 67, 108
2, 186480, Note_on_c, 0, 70, 0
2, 186486, Control_c, 0, 64, 61
2, 186505, Control_c, 0, 64, 63
2, 186525, Control_c, 0, 64, 65
2, 186544, Control_c, 0, 64, 67
2, 186563, Control_c, 0, 64, 70
2, 186582, Control_c, 0, 64, 76
2, 186602, Control_c, 0, 64, 83
2, 186621, Control_c, 0, 64, 90
2, 186640, Control_c, 0, 64, 92
2, 186717, Control_c, 0, 64, 91
2, 186736, Control_c, 0, 64, 90
2, 186736, Control_c, 0, 67, 108
2, 186756, Control_c, 0, 64, 88
2, 186774, Control_c, 0, 64, 86
2, 186774, Control_c, 0, 67, 109
2, 186794, Control_c, 0, 64, 83
2, 186813, Control_c, 0, 64, 80
2, 186813, Control_c, 0, 67, 109
2, 186831, Control_c, 0, 64, 78
2, 186851, Control_c, 0, 64, 75
2, 186870, Control_c, 0, 64, 73
2, 186890, Control_c, 0, 64, 72
2, 186908, Control_c, 0, 64, 72
2, 186928, Control_c, 0, 64, 71
2, 186947, Control_c, 0, 64, 70
2, 186966, Control_c, 0, 64, 68
2, 186966, Control_c, 0, 67, 110
2, 186985, Control_c, 0, 64, 67
2, 187005, Control_c, 0, 64, 65
2, 187024, Control_c, 0, 64, 64
2, 187044, Control_c, 0, 64, 64
2, 187044, Control_c, 0, 67, 110
2, 187051, Note_on_c, 0, 68, 44
2, 187063, Control_c, 0, 64, 63
2, 187083, Control_c, 0, 64, 62
2, 187101, Control_c, 0, 64, 61
2, 187113, Note_on_c, 0, 63, 0
2, 187121, Control_c, 0, 64, 60
2, 187121, Control_c, 0, 67, 111
2, 187140, Control_c, 0, 64, 59
2, 187140, Control_c, 0, 67, 111
2, 187160, Control_c, 0, 64, 59
2, 187178, Control_c, 0, 64, 58
2, 187198, Control_c, 0, 64, 58
2, 187217, Control_c, 0, 64, 57
2, 187389, Control_c, 0, 64, 58
2, 187389, Control_c, 0, 67, 112
2, 187428, Control_c, 0, 64, 58
2, 187447, Control_c, 0, 64, 59
2, 187466, Control_c, 0, 64, 59
2, 187486, Control_c, 0, 64, 60
2, 187486, Control_c, 0, 67, 111
2, 187505, Control_c, 0, 64, 61
2, 187524, Control_c, 0, 64, 62
2, 187543, Control_c, 0, 64, 62
2, 187563, Control_c, 0, 64, 63
2, 187581, Control_c, 0, 64, 63
2, 187601, Control_c, 0, 64, 64
2, 187601, Control_c, 0, 67, 111
2, 187620, Control_c, 0, 64, 64
2, 187640, Control_c, 0, 67, 110
2, 187678, Control_c, 0, 67, 110
2, 187717, Control_c, 0, 67, 109
2, 187812, Control_c, 0, 64, 64
2, 187869, Control_c, 0, 67, 109
2, 187889, Control_c, 0, 64, 63
2, 187946, Control_c, 0, 64, 63
2, 187966, Control_c, 0, 67, 108
2, 188022, Control_c, 0, 64, 62
2, 188042, Control_c, 0, 64, 62
2, 188061, Control_c, 0, 64, 61
2, 188061, Control_c, 0, 67, 108
2, 188080, Control_c, 0, 64, 60
2, 188099, Control_c, 0, 64, 59
2, 188137, Control_c, 0, 64, 59
2, 188137, Control_c, 0, 67, 107
2, 188149, Note_on_c, 0, 66, 44
2, 188157, Control_c, 0, 64, 60
2, 188176, Control_c, 0, 64, 60
2, 188196, Control_c, 0, 64, 61
2, 188234, Control_c, 0, 67, 107
2, 188289, Note_on_c, 0, 68, 0
2, 188291, Control_c, 0, 67, 106
2, 188348, Control_c, 0, 67, 106
2, 188464, Control_c, 0, 67, 105
2, 188502, Control_c, 0, 64, 60
2, 188502, Control_c, 0, 67, 105
2, 188560, Control_c, 0, 64, 60
2, 188580, Note_on_c, 0, 65, 41
2, 188611, Note_on_c, 0, 66, 0
2, 188617, Control_c, 0, 64, 59
2, 188637, Control_c, 0, 64, 59
2, 188656, Control_c, 0, 64, 58
2, 188676, Control_c, 0, 64, 57
2, 188694, Control_c, 0, 64, 55
2, 188714, Control_c, 0, 64, 53
2, 188733, Control_c, 0, 64, 52
2, 188771, Control_c, 0, 67, 104
2, 188790, Control_c, 0, 64, 53
2, 188810, Control_c, 0, 64, 54
2, 188810, Control_c, 0, 67, 104
2, 188828, Control_c, 0, 64, 55
2, 188828, Control_c, 0, 67, 103
2, 188848, Control_c, 0, 64, 57
2, 188848, Control_c, 0, 67, 103
2, 188867, Control_c, 0, 64, 59
2, 188867, Control_c, 0, 67, 102
2, 188886, Control_c, 0, 64, 61
2, 188886, Control_c, 0, 67, 98
2, 188905, Control_c, 0, 64, 62
2, 188905, Control_c, 0, 67, 90
2, 188925, Control_c, 0, 64, 63
2, 188925, Control_c, 0, 67, 80
2, 188944, Control_c, 0, 64, 65
2, 188944, Control_c, 0, 67, 68
2, 188964, Control_c, 0, 64, 66
2, 188964, Control_c, 0, 67, 60
2, 188983, Control_c, 0, 64, 68
2, 188983, Control_c, 0, 67, 55
2, 189003, Control_c, 0, 64, 70
2, 189003, Control_c, 0, 67, 51
2, 189021, Control_c, 0, 64, 72
2, 189021, Control_c, 0, 67, 48
2, 189041, Control_c, 0, 64, 75
2, 189041, Control_c, 0, 67, 46
2, 189060, Control_c, 0, 64, 78
2, 189060, Control_c, 0, 67, 42
2, 189080, Control_c, 0, 64, 81
2, 189080, Control_c, 0, 67, 37
2, 189098, Control_c, 0, 64, 82
2, 189098, Control_c, 0, 67, 31
2, 189118, Control_c, 0, 67, 26
2, 189137, Control_c, 0, 67, 20
2, 189157, Control_c, 0, 64, 81
2, 189157, Control_c, 0, 67, 14
2, 189175, Control_c, 0, 67, 8
2, 189195, Control_c, 0, 64, 81
2, 189195, Control_c, 0, 67, 0
2, 189232, Control_c, 0, 64, 80
2, 189252, Control_c, 0, 64, 80
2, 189271, Control_c, 0, 64, 79
2, 189291, Control_c, 0, 64, 79
2, 189309, Control_c, 0, 64, 78
2, 189329, Control_c, 0, 64, 77
2, 189348, Control_c, 0, 64, 76
2, 189367, Control_c, 0, 64, 75
2, 189375, Note_on_c, 0, 70, 54
2, 189381, Note_on_c, 0, 63, 37
2, 189386, Control_c, 0, 64, 74
2, 189406, Control_c, 0, 64, 73
2, 189416, Note_on_c, 0, 65, 0
2, 189425, Control_c, 0, 64, 72
2, 189444, Control_c, 0, 64, 69
2, 189463, Control_c, 0, 64, 65
2, 189483, Control_c, 0, 64, 62
2, 189501, Control_c, 0, 64, 58
2, 189521, Control_c, 0, 64, 55
2, 189540, Control_c, 0, 64, 54
2, 189578, Control_c, 0, 64, 55
2, 189598, Control_c, 0, 64, 57
2, 189617, Control_c, 0, 64, 59
2, 189637, Control_c, 0, 64, 61
2, 189655, Control_c, 0, 64, 63
2, 189675, Control_c, 0, 64, 64
2, 189694, Control_c, 0, 64, 65
2, 189712, Control_c, 0, 64, 66
2, 189732, Control_c, 0, 64, 67
2, 189751, Control_c, 0, 64, 68
2, 189771, Control_c, 0, 64, 69
2, 189789, Control_c, 0, 64, 70
2, 189809, Control_c, 0, 64, 72
2, 189828, Control_c, 0, 64, 73
2, 189847, Control_c, 0, 64, 74
2, 189905, Control_c, 0, 64, 75
2, 189981, Control_c, 0, 64, 74
2, 190058, Control_c, 0, 64, 74
2, 190097, Control_c, 0, 64, 73
2, 190117, Control_c, 0, 64, 72
2, 190135, Control_c, 0, 64, 72
2, 190147, Note_on_c, 0, 75, 67
2, 190192, Control_c, 0, 64, 71
2, 190212, Control_c, 0, 64, 69
2, 190231, Control_c, 0, 64, 66
2, 190251, Control_c, 0, 64, 62
2, 190269, Control_c, 0, 64, 60
2, 190289, Control_c, 0, 64, 59
2, 190295, Note_on_c, 0, 70, 0
2, 190385, Control_c, 0, 64, 60
2, 190404, Control_c, 0, 64, 61
2, 190423, Control_c, 0, 64, 62
2, 190443, Control_c, 0, 64, 63
2, 190461, Control_c, 0, 64, 64
2, 190481, Control_c, 0, 64, 64
2, 190500, Control_c, 0, 64, 65
2, 190515, Note_on_c, 0, 65, 45
2, 190520, Control_c, 0, 64, 67
2, 190524, Note_on_c, 0, 63, 0
2, 190538, Control_c, 0, 64, 68
2, 190558, Control_c, 0, 64, 70
2, 190577, Control_c, 0, 64, 72
2, 190597, Control_c, 0, 64, 74
2, 190615, Control_c, 0, 64, 75
2, 190635, Control_c, 0, 64, 75
2, 190749, Control_c, 0, 64, 75
2, 190769, Control_c, 0, 64, 74
2, 190788, Control_c, 0, 64, 74
2, 190807, Control_c, 0, 64, 72
2, 190826, Control_c, 0, 64, 69
2, 190846, Control_c, 0, 64, 65
2, 190865, Control_c, 0, 64, 62
2, 190884, Control_c, 0, 64, 59
2, 190903, Control_c, 0, 64, 58
2, 190941, Control_c, 0, 64, 58
2, 190942, Note_on_c, 0, 65, 0
2, 190942, Note_on_c, 0, 66, 49
2, 190961, Control_c, 0, 64, 59
2, 190980, Control_c, 0, 64, 60
2, 191000, Control_c, 0, 64, 61
2, 191018, Control_c, 0, 64, 62
2, 191038, Control_c, 0, 64, 62
2, 191057, Control_c, 0, 64, 63
2, 191077, Control_c, 0, 64, 63
2, 191095, Control_c, 0, 64, 64
2, 191115, Control_c, 0, 64, 64
2, 191134, Control_c, 0, 64, 65
2, 191152, Control_c, 0, 64, 65
2, 191172, Control_c, 0, 64, 66
2, 191191, Control_c, 0, 64, 67
2, 191211, Control_c, 0, 64, 69
2, 191229, Control_c, 0, 64, 70
2, 191249, Control_c, 0, 64, 71
2, 191268, Control_c, 0, 64, 72
2, 191328, Note_on_c, 0, 78, 66
2, 191379, Note_on_c, 0, 75, 0
2, 191556, Control_c, 0, 64, 72
2, 191574, Control_c, 0, 64, 71
2, 191613, Control_c, 0, 64, 71
2, 191631, Control_c, 0, 64, 70
2, 191651, Control_c, 0, 64, 69
2, 191670, Control_c, 0, 64, 67
2, 191690, Control_c, 0, 64, 64
2, 191708, Control_c, 0, 64, 62
2, 191715, Note_on_c, 0, 77, 60
2, 191726, Note_on_c, 0, 68, 43
2, 191728, Control_c, 0, 64, 61
2, 191737, Note_on_c, 0, 66, 0
2, 191824, Control_c, 0, 64, 62
2, 191864, Control_c, 0, 64, 62
2, 191979, Control_c, 0, 64, 63
2, 192018, Control_c, 0, 64, 63
2, 192037, Control_c, 0, 64, 64
2, 192056, Control_c, 0, 64, 64
2, 192076, Control_c, 0, 64, 65
2, 192090, Note_on_c, 0, 75, 65
2, 192095, Control_c, 0, 64, 66
2, 192114, Control_c, 0, 64, 66
2, 192139, Note_on_c, 0, 78, 0
2, 192183, Note_on_c, 0, 77, 0
2, 192326, Control_c, 0, 64, 66
2, 192422, Control_c, 0, 64, 65
2, 192442, Control_c, 0, 64, 65
2, 192459, Note_on_c, 0, 70, 48
2, 192460, Control_c, 0, 64, 64
2, 192470, Note_on_c, 0, 73, 54
2, 192480, Control_c, 0, 64, 63
2, 192499, Control_c, 0, 64, 60
2, 192500, Note_on_c, 0, 68, 0
2, 192518, Control_c, 0, 64, 57
2, 192527, Note_on_c, 0, 75, 0
2, 192537, Control_c, 0, 64, 55
2, 192557, Control_c, 0, 64, 55
2, 192576, Control_c, 0, 64, 55
2, 192595, Control_c, 0, 64, 56
2, 192614, Control_c, 0, 64, 57
2, 192634, Control_c, 0, 64, 58
2, 192652, Control_c, 0, 64, 59
2, 192671, Control_c, 0, 64, 59
2, 192691, Control_c, 0, 64, 60
2, 192710, Control_c, 0, 64, 61
2, 192729, Control_c, 0, 64, 61
2, 192748, Control_c, 0, 64, 62
2, 192768, Control_c, 0, 64, 62
2, 192786, Control_c, 0, 64, 63
2, 192807, Control_c, 0, 64, 64
2, 192826, Control_c, 0, 64, 64
2, 192836, Note_on_c, 0, 75, 61
2, 192846, Control_c, 0, 64, 65
2, 192864, Control_c, 0, 64, 65
2, 192884, Control_c, 0, 64, 66
2, 192919, Note_on_c, 0, 73, 0
2, 192922, Control_c, 0, 64, 66
2, 193076, Control_c, 0, 64, 66
2, 193115, Control_c, 0, 64, 65
2, 193152, Control_c, 0, 64, 65
2, 193172, Control_c, 0, 64, 64
2, 193191, Control_c, 0, 64, 64
2, 193210, Control_c, 0, 64, 63
2, 193227, Control_c, 0, 64, 62
2, 193240, Note_on_c, 0, 77, 52
2, 193247, Control_c, 0, 64, 61
2, 193257, Note_on_c, 0, 75, 0
2, 193266, Control_c, 0, 64, 59
2, 193285, Control_c, 0, 64, 58
2, 193304, Control_c, 0, 64, 57
2, 193324, Control_c, 0, 64, 56
2, 193419, Control_c, 0, 64, 57
2, 193439, Control_c, 0, 64, 58
2, 193458, Control_c, 0, 64, 60
2, 193477, Control_c, 0, 64, 61
2, 193496, Control_c, 0, 64, 62
2, 193516, Control_c, 0, 64, 63
2, 193535, Control_c, 0, 64, 64
2, 193553, Control_c, 0, 64, 65
2, 193573, Control_c, 0, 64, 66
2, 193581, Note_on_c, 0, 70, 0
2, 193592, Control_c, 0, 64, 67
2, 193601, Note_on_c, 0, 68, 43
2, 193611, Control_c, 0, 64, 68
2, 193630, Control_c, 0, 64, 70
2, 193650, Control_c, 0, 64, 71
2, 193669, Control_c, 0, 64, 72
2, 193784, Control_c, 0, 64, 72
2, 193842, Control_c, 0, 64, 71
2, 193881, Control_c, 0, 64, 71
2, 193899, Control_c, 0, 64, 70
2, 193919, Control_c, 0, 64, 69
2, 193938, Control_c, 0, 64, 69
2, 193957, Control_c, 0, 64, 68
2, 193971, Note_on_c, 0, 68, 0
2, 193976, Control_c, 0, 64, 67
2, 193982, Note_on_c, 0, 66, 39
2, 193996, Control_c, 0, 64, 65
2, 194002, Note_on_c, 0, 70, 49
2, 194015, Control_c, 0, 64, 63
2, 194033, Control_c, 0, 64, 61
2, 194053, Control_c, 0, 64, 58
2, 194072, Control_c, 0, 64, 57
2, 194091, Control_c, 0, 64, 56
2, 194109, Note_on_c, 0, 77, 0
2, 194110, Control_c, 0, 64, 55
2, 194205, Control_c, 0, 64, 56
2, 194224, Control_c, 0, 64, 57
2, 194243, Control_c, 0, 64, 58
2, 194262, Control_c, 0, 64, 60
2, 194282, Control_c, 0, 64, 61
2, 194301, Control_c, 0, 64, 62
2, 194320, Control_c, 0, 64, 63
2, 194339, Control_c, 0, 64, 63
2, 194359, Control_c, 0, 64, 64
2, 194364, Note_on_c, 0, 66, 0
2, 194368, Note_on_c, 0, 65, 47
2, 194397, Control_c, 0, 64, 64
2, 194454, Control_c, 0, 64, 64
2, 194511, Control_c, 0, 64, 63
2, 194531, Control_c, 0, 64, 62
2, 194550, Control_c, 0, 64, 61
2, 194570, Control_c, 0, 64, 59
2, 194588, Control_c, 0, 64, 53
2, 194608, Control_c, 0, 64, 32
2, 194627, Control_c, 0, 64, 0
2, 194736, Note_on_c, 0, 65, 0
2, 194738, Note_on_c, 0, 66, 40
2, 194759, Note_on_c, 0, 75, 68
2, 195031, Control_c, 0, 64, 13
2, 195051, Control_c, 0, 64, 39
2, 195069, Control_c, 0, 64, 56
2, 195089, Control_c, 0, 64, 61
2, 195096, Note_on_c, 0, 65, 40
2, 195108, Control_c, 0, 64, 62
2, 195127, Control_c, 0, 64, 63
2, 195136, Note_on_c, 0, 66, 0
2, 195145, Control_c, 0, 64, 65
2, 195165, Control_c, 0, 64, 67
2, 195184, Control_c, 0, 64, 70
2, 195203, Control_c, 0, 64, 72
2, 195222, Control_c, 0, 64, 74
2, 195242, Control_c, 0, 64, 75
2, 195280, Note_on_c, 0, 63, 38
2, 195293, Note_on_c, 0, 65, 0
2, 195312, Note_on_c, 0, 70, 0
2, 195319, Control_c, 0, 64, 74
2, 195337, Control_c, 0, 64, 73
2, 195357, Control_c, 0, 64, 71
2, 195376, Control_c, 0, 64, 68
2, 195396, Control_c, 0, 64, 66
2, 195414, Control_c, 0, 64, 63
2, 195433, Control_c, 0, 64, 60
2, 195450, Note_on_c, 0, 63, 0
2, 195453, Control_c, 0, 64, 57
2, 195471, Control_c, 0, 64, 55
2, 195487, Note_on_c, 0, 65, 47
2, 195491, Control_c, 0, 64, 54
2, 195510, Control_c, 0, 64, 55
2, 195548, Control_c, 0, 64, 56
2, 195568, Control_c, 0, 64, 57
2, 195587, Control_c, 0, 64, 59
2, 195606, Control_c, 0, 64, 61
2, 195625, Control_c, 0, 64, 63
2, 195645, Control_c, 0, 64, 64
2, 195664, Control_c, 0, 64, 65
2, 195686, Control_c, 0, 64, 66
2, 195705, Control_c, 0, 64, 66
2, 195725, Control_c, 0, 64, 67
2, 195743, Control_c, 0, 64, 67
2, 195820, Control_c, 0, 64, 67
2, 195835, Note_on_c, 0, 70, 45
2, 195839, Note_on_c, 0, 73, 59
2, 195840, Control_c, 0, 64, 66
2, 195859, Control_c, 0, 64, 65
2, 195878, Control_c, 0, 64, 64
2, 195897, Control_c, 0, 64, 62
2, 195917, Control_c, 0, 64, 61
2, 195936, Control_c, 0, 64, 60
2, 195950, Note_on_c, 0, 65, 0
2, 195955, Control_c, 0, 64, 58
2, 195974, Control_c, 0, 64, 57
2, 195976, Note_on_c, 0, 75, 0
2, 195993, Control_c, 0, 64, 57
2, 196089, Control_c, 0, 64, 57
2, 196127, Control_c, 0, 64, 58
2, 196204, Control_c, 0, 64, 58
2, 196204, Note_on_c, 0, 72, 52
2, 196271, Note_on_c, 0, 73, 0
2, 196281, Control_c, 0, 64, 59
2, 196415, Control_c, 0, 64, 59
2, 196453, Control_c, 0, 64, 60
2, 196472, Control_c, 0, 64, 61
2, 196491, Control_c, 0, 64, 62
2, 196510, Control_c, 0, 64, 63
2, 196530, Control_c, 0, 64, 64
2, 196549, Control_c, 0, 64, 66
2, 196559, Note_on_c, 0, 70, 0
2, 196560, Note_on_c, 0, 69, 44
2, 196571, Control_c, 0, 64, 67
2, 196590, Control_c, 0, 64, 70
2, 196610, Control_c, 0, 64, 74
2, 196629, Control_c, 0, 64, 77
2, 196644, Control_c, 0, 64, 78
2, 196683, Control_c, 0, 67, 8
2, 196703, Control_c, 0, 64, 77
2, 196703, Control_c, 0, 67, 20
2, 196721, Control_c, 0, 64, 77
2, 196721, Control_c, 0, 67, 34
2, 196741, Control_c, 0, 64, 76
2, 196741, Control_c, 0, 67, 49
2, 196760, Control_c, 0, 64, 74
2, 196760, Control_c, 0, 67, 65
2, 196779, Control_c, 0, 64, 72
2, 196779, Control_c, 0, 67, 78
2, 196798, Control_c, 0, 64, 70
2, 196798, Control_c, 0, 67, 87
2, 196818, Control_c, 0, 64, 66
2, 196818, Control_c, 0, 67, 92
2, 196837, Control_c, 0, 64, 63
2, 196837, Control_c, 0, 67, 93
2, 196856, Control_c, 0, 64, 58
2, 196875, Control_c, 0, 64, 55
2, 196895, Control_c, 0, 64, 55
2, 196914, Control_c, 0, 64, 55
2, 196932, Note_on_c, 0, 70, 51
2, 196946, Note_on_c, 0, 72, 0
2, 196952, Control_c, 0, 67, 93
2, 196972, Control_c, 0, 67, 92
2, 196996, Note_on_c, 0, 69, 0
2, 197029, Control_c, 0, 67, 92
2, 197107, Control_c, 0, 67, 92
2, 197145, Control_c, 0, 67, 93
2, 197184, Control_c, 0, 67, 93
2, 197319, Note_on_c, 0, 72, 33
2, 197414, Control_c, 0, 64, 56
2, 197453, Control_c, 0, 64, 56
2, 197471, Control_c, 0, 64, 57
2, 197471, Control_c, 0, 67, 94
2, 197491, Control_c, 0, 64, 57
2, 197491, Control_c, 0, 67, 94
2, 197510, Control_c, 0, 64, 58
2, 197510, Control_c, 0, 67, 96
2, 197529, Control_c, 0, 64, 58
2, 197529, Control_c, 0, 67, 97
2, 197548, Control_c, 0, 67, 102
2, 197568, Control_c, 0, 67, 109
2, 197587, Control_c, 0, 67, 116
2, 197605, Control_c, 0, 67, 125
2, 197625, Control_c, 0, 67, 127
2, 197644, Control_c, 0, 64, 58
2, 197651, Note_on_c, 0, 73, 32
2, 197670, Note_on_c, 0, 72, 0
2, 197856, Control_c, 0, 64, 57
2, 197894, Control_c, 0, 64, 57
2, 197933, Control_c, 0, 64, 57
2, 197951, Control_c, 0, 64, 58
2, 197971, Control_c, 0, 64, 60
2, 197990, Control_c, 0, 64, 62
2, 198009, Control_c, 0, 64, 63
2, 198026, Control_c, 0, 64, 64
2, 198030, Note_on_c, 0, 68, 41
2, 198045, Control_c, 0, 64, 66
2, 198065, Control_c, 0, 64, 68
2, 198084, Control_c, 0, 64, 70
2, 198103, Control_c, 0, 64, 73
2, 198122, Control_c, 0, 64, 75
2, 198142, Control_c, 0, 64, 76
2, 198219, Control_c, 0, 64, 75
2, 198237, Control_c, 0, 64, 75
2, 198242, Note_on_c, 0, 70, 0
2, 198257, Control_c, 0, 64, 73
2, 198276, Control_c, 0, 64, 70
2, 198295, Control_c, 0, 64, 66
2, 198314, Control_c, 0, 64, 63
2, 198334, Control_c, 0, 64, 60
2, 198353, Control_c, 0, 64, 59
2, 198372, Control_c, 0, 64, 59
2, 198391, Control_c, 0, 64, 60
2, 198410, Note_on_c, 0, 67, 40
2, 198411, Control_c, 0, 64, 62
2, 198429, Control_c, 0, 64, 63
2, 198449, Control_c, 0, 64, 64
2, 198450, Note_on_c, 0, 68, 0
2, 198468, Control_c, 0, 64, 65
2, 198488, Control_c, 0, 64, 67
2, 198506, Control_c, 0, 64, 68
2, 198525, Control_c, 0, 64, 70
2, 198545, Control_c, 0, 64, 71
2, 198564, Control_c, 0, 64, 72
2, 198602, Control_c, 0, 64, 72
2, 198622, Control_c, 0, 64, 71
2, 198640, Control_c, 0, 64, 68
2, 198660, Control_c, 0, 64, 64
2, 198679, Control_c, 0, 64, 61
2, 198699, Control_c, 0, 64, 60
2, 198717, Control_c, 0, 64, 61
2, 198737, Control_c, 0, 64, 62
2, 198756, Control_c, 0, 64, 64
2, 198764, Note_on_c, 0, 63, 53
2, 198775, Control_c, 0, 64, 65
2, 198794, Control_c, 0, 64, 66
2, 198794, Control_c, 0, 67, 127
2, 198814, Control_c, 0, 64, 68
2, 198814, Control_c, 0, 67, 126
2, 198833, Control_c, 0, 64, 69
2, 198833, Control_c, 0, 67, 126
2, 198852, Control_c, 0, 64, 71
2, 198852, Control_c, 0, 67, 125
2, 198852, Note_on_c, 0, 67, 0
2, 198871, Control_c, 0, 64, 72
2, 198871, Control_c, 0, 67, 125
2, 198891, Control_c, 0, 64, 73
2, 198891, Control_c, 0, 67, 124
2, 198909, Control_c, 0, 64, 73
2, 198909, Control_c, 0, 67, 124
2, 198929, Control_c, 0, 64, 73
2, 198929, Control_c, 0, 67, 123
2, 198948, Control_c, 0, 67, 122
2, 198968, Control_c, 0, 64, 72
2, 198968, Control_c, 0, 67, 121
2, 198986, Control_c, 0, 67, 121
2, 199044, Control_c, 0, 64, 72
2, 199063, Control_c, 0, 64, 71
2, 199063, Control_c, 0, 67, 120
2, 199082, Control_c, 0, 64, 68
2, 199102, Control_c, 0, 64, 64
2, 199102, Control_c, 0, 67, 120
2, 199120, Control_c, 0, 64, 57
2, 199140, Control_c, 0, 64, 46
2, 199140, Control_c, 0, 67, 119
2, 199153, Note_on_c, 0, 68, 59
2, 199159, Control_c, 0, 64, 40
2, 199159, Control_c, 0, 67, 118
2, 199179, Control_c, 0, 64, 42
2, 199179, Control_c, 0, 67, 116
2, 199197, Control_c, 0, 64, 51
2, 199197, Control_c, 0, 67, 113
2, 199217, Control_c, 0, 64, 59
2, 199217, Control_c, 0, 67, 111
2, 199236, Control_c, 0, 64, 62
2, 199236, Control_c, 0, 67, 110
2, 199255, Control_c, 0, 64, 64
2, 199255, Control_c, 0, 67, 109
2, 199274, Control_c, 0, 64, 65
2, 199274, Control_c, 0, 67, 109
2, 199294, Control_c, 0, 64, 66
2, 199294, Control_c, 0, 67, 108
2, 199313, Control_c, 0, 64, 67
2, 199313, Control_c, 0, 67, 107
2, 199332, Control_c, 0, 64, 68
2, 199332, Control_c, 0, 67, 104
2, 199351, Control_c, 0, 67, 101
2, 199371, Control_c, 0, 64, 68
2, 199371, Control_c, 0, 67, 97
2, 199389, Control_c, 0, 64, 67
2, 199389, Control_c, 0, 67, 94
2, 199409, Control_c, 0, 64, 65
2, 199409, Control_c, 0, 67, 92
2, 199428, Control_c, 0, 64, 63
2, 199428, Control_c, 0, 67, 91
2, 199448, Control_c, 0, 64, 60
2, 199466, Control_c, 0, 64, 60
2, 199466, Control_c, 0, 67, 90
2, 199485, Control_c, 0, 67, 90
2, 199505, Control_c, 0, 64, 60
2, 199524, Control_c, 0, 64, 61
2, 199524, Control_c, 0, 67, 89
2, 199531, Note_on_c, 0, 71, 54
2, 199544, Control_c, 0, 64, 62
2, 199544, Control_c, 0, 67, 88
2, 199563, Control_c, 0, 64, 63
2, 199563, Control_c, 0, 67, 85
2, 199583, Control_c, 0, 64, 64
2, 199583, Control_c, 0, 67, 82
2, 199601, Control_c, 0, 64, 65
2, 199601, Control_c, 0, 67, 78
2, 199621, Control_c, 0, 64, 66
2, 199621, Control_c, 0, 67, 72
2, 199638, Note_on_c, 0, 73, 0
2, 199640, Control_c, 0, 64, 66
2, 199640, Control_c, 0, 67, 67
2, 199659, Control_c, 0, 64, 67
2, 199659, Control_c, 0, 67, 60
2, 199678, Control_c, 0, 67, 55
2, 199698, Control_c, 0, 64, 67
2, 199698, Control_c, 0, 67, 50
2, 199717, Control_c, 0, 67, 47
2, 199736, Control_c, 0, 67, 43
2, 199755, Control_c, 0, 67, 40
2, 199775, Control_c, 0, 67, 36
2, 199794, Control_c, 0, 67, 32
2, 199813, Control_c, 0, 67, 27
2, 199832, Control_c, 0, 67, 22
2, 199852, Control_c, 0, 67, 16
2, 199870, Control_c, 0, 67, 10
2, 199884, Note_on_c, 0, 63, 0
2, 199890, Control_c, 0, 64, 67
2, 199890, Control_c, 0, 67, 0
2, 199893, Note_on_c, 0, 70, 66
2, 199900, Note_on_c, 0, 71, 0
2, 199909, Control_c, 0, 64, 66
2, 199929, Control_c, 0, 64, 65
2, 199944, Control_c, 0, 64, 63
2, 199963, Control_c, 0, 64, 61
2, 199983, Control_c, 0, 64, 58
2, 200002, Control_c, 0, 64, 55
2, 200021, Control_c, 0, 64, 51
2, 200040, Control_c, 0, 64, 50
2, 200079, Control_c, 0, 64, 51
2, 200098, Control_c, 0, 64, 53
2, 200117, Control_c, 0, 64, 54
2, 200137, Control_c, 0, 64, 56
2, 200155, Control_c, 0, 64, 57
2, 200175, Control_c, 0, 64, 59
2, 200194, Control_c, 0, 64, 60
2, 200214, Control_c, 0, 64, 61
2, 200232, Control_c, 0, 64, 62
2, 200249, Note_on_c, 0, 66, 53
2, 200252, Control_c, 0, 64, 63
2, 200271, Control_c, 0, 64, 64
2, 200290, Control_c, 0, 64, 65
2, 200309, Control_c, 0, 64, 65
2, 200348, Control_c, 0, 64, 66
2, 200374, Note_on_c, 0, 68, 0
2, 200443, Control_c, 0, 64, 66
2, 200463, Control_c, 0, 64, 67
2, 200484, Control_c, 0, 64, 67
2, 200543, Control_c, 0, 64, 66
2, 200561, Control_c, 0, 64, 63
2, 200581, Control_c, 0, 64, 58
2, 200600, Control_c, 0, 64, 51
2, 200618, Note_on_c, 0, 65, 42
2, 200619, Control_c, 0, 64, 44
2, 200637, Note_on_c, 0, 75, 73
2, 200638, Control_c, 0, 64, 36
2, 200658, Control_c, 0, 64, 31
2, 200677, Control_c, 0, 64, 28
2, 200690, Note_on_c, 0, 66, 0
2, 200696, Control_c, 0, 64, 27
2, 200792, Control_c, 0, 64, 28
2, 200812, Control_c, 0, 64, 29
2, 200830, Control_c, 0, 64, 31
2, 200850, Control_c, 0, 64, 32
2, 200869, Control_c, 0, 64, 34
2, 200889, Control_c, 0, 64, 37
2, 200906, Control_c, 0, 64, 41
2, 200925, Control_c, 0, 64, 46
2, 200945, Control_c, 0, 64, 50
2, 200964, Control_c, 0, 64, 54
2, 200974, Note_on_c, 0, 63, 57
2, 200983, Control_c, 0, 64, 57
2, 200995, Note_on_c, 0, 65, 0
2, 201002, Control_c, 0, 64, 60
2, 201022, Control_c, 0, 64, 62
2, 201040, Control_c, 0, 64, 64
2, 201060, Control_c, 0, 64, 66
2, 201079, Control_c, 0, 64, 69
2, 201099, Control_c, 0, 64, 73
2, 201117, Control_c, 0, 64, 79
2, 201137, Control_c, 0, 64, 88
2, 201156, Control_c, 0, 64, 93
2, 201175, Control_c, 0, 64, 96
2, 201271, Control_c, 0, 64, 95
2, 201291, Control_c, 0, 64, 95
2, 201309, Control_c, 0, 64, 93
2, 201329, Control_c, 0, 64, 90
2, 201348, Control_c, 0, 64, 84
2, 201368, Control_c, 0, 64, 76
2, 201378, Note_on_c, 0, 65, 63
2, 201386, Control_c, 0, 64, 68
2, 201405, Control_c, 0, 64, 62
2, 201425, Control_c, 0, 64, 59
2, 201426, Note_on_c, 0, 63, 0
2, 201448, Control_c, 0, 64, 58
2, 201467, Control_c, 0, 64, 59
2, 201505, Control_c, 0, 64, 58
2, 201524, Control_c, 0, 64, 58
2, 201544, Control_c, 0, 64, 57
2, 201582, Control_c, 0, 64, 58
2, 201601, Control_c, 0, 64, 58
2, 201621, Control_c, 0, 64, 59
2, 201659, Control_c, 0, 64, 59
2, 201674, Note_on_c, 0, 70, 0
2, 201678, Control_c, 0, 64, 60
2, 201698, Control_c, 0, 64, 61
2, 201716, Control_c, 0, 64, 62
2, 201736, Control_c, 0, 64, 63
2, 201755, Control_c, 0, 64, 64
2, 201774, Control_c, 0, 64, 65
2, 201777, Note_on_c, 0, 74, 70
2, 201793, Control_c, 0, 64, 67
2, 201813, Control_c, 0, 64, 68
2, 201820, Note_on_c, 0, 75, 0
2, 201832, Control_c, 0, 64, 69
2, 201851, Control_c, 0, 64, 70
2, 201869, Control_c, 0, 64, 71
2, 201889, Control_c, 0, 64, 72
2, 201908, Control_c, 0, 64, 73
2, 201926, Control_c, 0, 64, 74
2, 202042, Control_c, 0, 64, 74
2, 202061, Control_c, 0, 64, 73
2, 202080, Control_c, 0, 64, 72
2, 202100, Control_c, 0, 64, 71
2, 202119, Control_c, 0, 64, 69
2, 202138, Control_c, 0, 64, 67
2, 202157, Control_c, 0, 64, 65
2, 202169, Note_on_c, 0, 65, 0
2, 202177, Control_c, 0, 64, 63
2, 202177, Note_on_c, 0, 66, 67
2, 202182, Note_on_c, 0, 75, 66
2, 202195, Control_c, 0, 64, 59
2, 202215, Control_c, 0, 64, 52
2, 202234, Control_c, 0, 64, 42
2, 202254, Control_c, 0, 64, 40
2, 202292, Control_c, 0, 64, 44
2, 202311, Control_c, 0, 64, 49
2, 202330, Control_c, 0, 64, 54
2, 202349, Control_c, 0, 64, 57
2, 202369, Control_c, 0, 64, 60
2, 202388, Control_c, 0, 64, 62
2, 202404, Control_c, 0, 64, 63
2, 202424, Control_c, 0, 64, 64
2, 202443, Control_c, 0, 64, 66
2, 202463, Control_c, 0, 64, 69
2, 202481, Control_c, 0, 64, 73
2, 202501, Control_c, 0, 64, 84
2, 202520, Control_c, 0, 64, 99
2, 202524, Note_on_c, 0, 77, 71
2, 202528, Note_on_c, 0, 66, 0
2, 202530, Note_on_c, 0, 68, 67
2, 202539, Control_c, 0, 64, 127
2, 202569, Note_on_c, 0, 74, 0
2, 202632, Note_on_c, 0, 75, 0
2, 202642, Note_on_c, 0, 68, 0
2, 202651, Note_on_c, 0, 77, 0
2, 202947, Note_on_c, 0, 51, 71
2, 202981, Control_c, 0, 64, 108
2, 202986, Note_on_c, 0, 78, 56
2, 202989, Note_on_c, 0, 70, 53
2, 203000, Control_c, 0, 64, 96
2, 203019, Control_c, 0, 64, 85
2, 203038, Control_c, 0, 64, 77
2, 203058, Control_c, 0, 64, 69
2, 203077, Control_c, 0, 64, 64
2, 203096, Control_c, 0, 64, 60
2, 203115, Control_c, 0, 64, 57
2, 203135, Control_c, 0, 64, 57
2, 203154, Control_c, 0, 64, 56
2, 203173, Control_c, 0, 64, 55
2, 203192, Control_c, 0, 64, 54
2, 203326, Control_c, 0, 64, 55
2, 203346, Control_c, 0, 64, 55
2, 203364, Control_c, 0, 64, 57
2, 203384, Control_c, 0, 64, 57
2, 203403, Control_c, 0, 64, 59
2, 203415, Note_on_c, 0, 72, 52
2, 203423, Control_c, 0, 64, 61
2, 203425, Note_on_c, 0, 70, 0
2, 203441, Control_c, 0, 64, 63
2, 203461, Control_c, 0, 64, 65
2, 203480, Control_c, 0, 64, 67
2, 203496, Note_on_c, 0, 72, 0
2, 203499, Control_c, 0, 64, 69
2, 203518, Control_c, 0, 64, 73
2, 203538, Control_c, 0, 64, 77
2, 203557, Control_c, 0, 64, 81
2, 203576, Control_c, 0, 64, 84
2, 203595, Control_c, 0, 64, 85
2, 203617, Note_on_c, 0, 78, 0
2, 203672, Control_c, 0, 64, 85
2, 203692, Control_c, 0, 64, 84
2, 203710, Control_c, 0, 64, 84
2, 203730, Control_c, 0, 64, 83
2, 203749, Control_c, 0, 64, 83
2, 203787, Control_c, 0, 64, 82
2, 203806, Control_c, 0, 64, 82
2, 203826, Control_c, 0, 64, 81
2, 203844, Control_c, 0, 64, 80
2, 203858, Note_on_c, 0, 58, 75
2, 203864, Control_c, 0, 64, 78
2, 203882, Note_on_c, 0, 77, 52
2, 203883, Control_c, 0, 64, 76
2, 203903, Control_c, 0, 64, 75
2, 203908, Note_on_c, 0, 74, 37
2, 203921, Control_c, 0, 64, 72
2, 203941, Control_c, 0, 64, 68
2, 203960, Control_c, 0, 64, 65
2, 203979, Control_c, 0, 64, 61
2, 203998, Control_c, 0, 64, 57
2, 204018, Control_c, 0, 64, 54
2, 204037, Control_c, 0, 64, 53
2, 204056, Control_c, 0, 64, 53
2, 204133, Control_c, 0, 64, 53
2, 204152, Control_c, 0, 64, 54
2, 204172, Control_c, 0, 64, 55
2, 204190, Control_c, 0, 64, 56
2, 204210, Control_c, 0, 64, 57
2, 204229, Control_c, 0, 64, 59
2, 204249, Control_c, 0, 64, 62
2, 204267, Control_c, 0, 64, 64
2, 204286, Control_c, 0, 64, 66
2, 204306, Control_c, 0, 64, 67
2, 204314, Note_on_c, 0, 78, 58
2, 204315, Note_on_c, 0, 75, 54
2, 204320, Note_on_c, 0, 74, 0
2, 204330, Control_c, 0, 64, 69
2, 204349, Control_c, 0, 64, 71
2, 204350, Note_on_c, 0, 77, 0
2, 204369, Control_c, 0, 64, 73
2, 204387, Control_c, 0, 64, 73
2, 204426, Control_c, 0, 64, 73
2, 204483, Control_c, 0, 64, 72
2, 204541, Control_c, 0, 64, 72
2, 204579, Control_c, 0, 64, 71
2, 204598, Control_c, 0, 64, 71
2, 204618, Control_c, 0, 64, 67
2, 204626, Note_on_c, 0, 51, 0
2, 204637, Control_c, 0, 64, 63
2, 204656, Control_c, 0, 64, 60
2, 204662, Note_on_c, 0, 78, 0
2, 204671, Note_on_c, 0, 77, 45
2, 204673, Note_on_c, 0, 80, 58
2, 204675, Control_c, 0, 64, 59
2, 204695, Control_c, 0, 64, 61
2, 204714, Control_c, 0, 64, 64
2, 204733, Control_c, 0, 64, 66
2, 204747, Control_c, 0, 64, 69
2, 204766, Control_c, 0, 64, 73
2, 204780, Note_on_c, 0, 75, 0
2, 204786, Control_c, 0, 64, 77
2, 204804, Control_c, 0, 64, 81
2, 204824, Control_c, 0, 64, 83
2, 204901, Control_c, 0, 64, 82
2, 204903, Note_on_c, 0, 77, 0
2, 204920, Control_c, 0, 64, 81
2, 204939, Control_c, 0, 64, 80
2, 204958, Control_c, 0, 64, 78
2, 204978, Control_c, 0, 64, 74
2, 204997, Control_c, 0, 64, 67
2, 205016, Control_c, 0, 64, 61
2, 205035, Control_c, 0, 64, 49
2, 205044, Note_on_c, 0, 59, 64
2, 205055, Control_c, 0, 64, 45
2, 205067, Note_on_c, 0, 77, 50
2, 205069, Note_on_c, 0, 74, 41
2, 205074, Control_c, 0, 64, 48
2, 205084, Note_on_c, 0, 58, 0
2, 205093, Control_c, 0, 64, 55
2, 205112, Control_c, 0, 64, 62
2, 205132, Control_c, 0, 64, 64
2, 205150, Control_c, 0, 64, 66
2, 205170, Control_c, 0, 64, 67
2, 205189, Control_c, 0, 64, 68
2, 205209, Control_c, 0, 64, 69
2, 205227, Control_c, 0, 64, 70
2, 205259, Note_on_c, 0, 80, 0
2, 205305, Control_c, 0, 64, 69
2, 205324, Control_c, 0, 64, 66
2, 205344, Control_c, 0, 64, 63
2, 205362, Control_c, 0, 64, 59
2, 205382, Control_c, 0, 64, 57
2, 205401, Control_c, 0, 64, 58
2, 205404, Note_on_c, 0, 58, 61
2, 205420, Control_c, 0, 64, 62
2, 205434, Note_on_c, 0, 78, 55
2, 205439, Control_c, 0, 64, 64
2, 205439, Note_on_c, 0, 74, 0
2, 205450, Note_on_c, 0, 75, 46
2, 205459, Control_c, 0, 64, 67
2, 205474, Note_on_c, 0, 59, 0
2, 205478, Control_c, 0, 64, 69
2, 205497, Control_c, 0, 64, 71
2, 205516, Control_c, 0, 64, 74
2, 205518, Note_on_c, 0, 77, 0
2, 205536, Control_c, 0, 64, 76
2, 205554, Control_c, 0, 64, 77
2, 205631, Control_c, 0, 64, 76
2, 205651, Control_c, 0, 64, 75
2, 205670, Control_c, 0, 64, 72
2, 205690, Control_c, 0, 64, 66
2, 205705, Control_c, 0, 64, 57
2, 205724, Control_c, 0, 64, 36
2, 205744, Control_c, 0, 64, 0
2, 205746, Note_on_c, 0, 56, 69
2, 205758, Note_on_c, 0, 77, 49
2, 205760, Note_on_c, 0, 80, 51
2, 205801, Control_c, 0, 64, 35
2, 205821, Control_c, 0, 64, 58
2, 205822, Note_on_c, 0, 58, 0
2, 205824, Note_on_c, 0, 75, 0
2, 205839, Control_c, 0, 64, 64
2, 205859, Control_c, 0, 64, 67
2, 205871, Note_on_c, 0, 77, 0
2, 205872, Note_on_c, 0, 78, 0
2, 205878, Control_c, 0, 64, 70
2, 205881, Note_on_c, 0, 80, 0
2, 205898, Control_c, 0, 64, 73
2, 205916, Control_c, 0, 64, 76
2, 205936, Control_c, 0, 64, 78
2, 205955, Control_c, 0, 64, 78
2, 205993, Control_c, 0, 64, 78
2, 206032, Control_c, 0, 64, 77
2, 206051, Control_c, 0, 64, 76
2, 206070, Control_c, 0, 64, 72
2, 206090, Control_c, 0, 64, 66
2, 206109, Control_c, 0, 64, 58
2, 206109, Note_on_c, 0, 54, 61
2, 206125, Note_on_c, 0, 56, 0
2, 206128, Control_c, 0, 64, 39
2, 206133, Note_on_c, 0, 82, 51
2, 206141, Note_on_c, 0, 78, 43
2, 206147, Control_c, 0, 64, 20
2, 206166, Control_c, 0, 64, 22
2, 206185, Control_c, 0, 64, 38
2, 206204, Control_c, 0, 64, 54
2, 206224, Control_c, 0, 64, 61
2, 206245, Control_c, 0, 64, 63
2, 206265, Control_c, 0, 64, 63
2, 206361, Control_c, 0, 64, 63
2, 206380, Control_c, 0, 64, 61
2, 206399, Control_c, 0, 64, 58
2, 206419, Control_c, 0, 64, 52
2, 206438, Control_c, 0, 64, 47
2, 206475, Note_on_c, 0, 56, 61
2, 206476, Control_c, 0, 64, 52
2, 206483, Note_on_c, 0, 80, 58
2, 206496, Control_c, 0, 64, 59
2, 206499, Note_on_c, 0, 77, 45
2, 206514, Control_c, 0, 64, 63
2, 206534, Control_c, 0, 64, 65
2, 206543, Note_on_c, 0, 54, 0
2, 206553, Control_c, 0, 64, 67
2, 206554, Note_on_c, 0, 78, 0
2, 206573, Control_c, 0, 64, 68
2, 206591, Control_c, 0, 64, 69
2, 206667, Control_c, 0, 64, 68
2, 206686, Control_c, 0, 64, 68
2, 206706, Control_c, 0, 64, 67
2, 206724, Control_c, 0, 64, 67
2, 206749, Note_on_c, 0, 82, 0
2, 206763, Control_c, 0, 64, 66
2, 206783, Control_c, 0, 64, 66
2, 206801, Control_c, 0, 64, 65
2, 206821, Control_c, 0, 64, 64
2, 206840, Control_c, 0, 64, 63
2, 206859, Control_c, 0, 64, 61
2, 206878, Control_c, 0, 64, 60
2, 206893, Note_on_c, 0, 58, 56
2, 206898, Control_c, 0, 64, 57
2, 206917, Control_c, 0, 64, 55
2, 206927, Note_on_c, 0, 78, 42
2, 206932, Note_on_c, 0, 77, 0
2, 206933, Note_on_c, 0, 75, 32
2, 206936, Control_c, 0, 64, 52
2, 206951, Note_on_c, 0, 56, 0
2, 206955, Control_c, 0, 64, 50
2, 206975, Control_c, 0, 64, 49
2, 207032, Control_c, 0, 64, 49
2, 207052, Control_c, 0, 64, 50
2, 207070, Control_c, 0, 64, 52
2, 207090, Control_c, 0, 64, 55
2, 207109, Control_c, 0, 64, 57
2, 207129, Control_c, 0, 64, 60
2, 207147, Control_c, 0, 64, 61
2, 207166, Control_c, 0, 64, 63
2, 207193, Control_c, 0, 64, 64
2, 207204, Note_on_c, 0, 75, 0
2, 207213, Control_c, 0, 64, 66
2, 207232, Control_c, 0, 64, 67
2, 207251, Control_c, 0, 64, 68
2, 207270, Control_c, 0, 64, 71
2, 207290, Control_c, 0, 64, 75
2, 207295, Note_on_c, 0, 74, 29
2, 207296, Note_on_c, 0, 77, 46
2, 207309, Control_c, 0, 64, 80
2, 207327, Control_c, 0, 64, 85
2, 207347, Control_c, 0, 64, 87
2, 207388, Note_on_c, 0, 80, 0
2, 207398, Note_on_c, 0, 77, 0
2, 207417, Note_on_c, 0, 78, 0
2, 207443, Control_c, 0, 64, 86
2, 207481, Control_c, 0, 64, 86
2, 207519, Control_c, 0, 64, 85
2, 207539, Control_c, 0, 64, 84
2, 207558, Control_c, 0, 64, 82
2, 207578, Control_c, 0, 64, 82
2, 207616, Control_c, 0, 64, 81
2, 207626, Control_c, 0, 64, 80
2, 207645, Control_c, 0, 64, 79
2, 207665, Control_c, 0, 64, 78
2, 207684, Control_c, 0, 64, 78
2, 207702, Note_on_c, 0, 74, 0
2, 207703, Control_c, 0, 64, 77
2, 207722, Control_c, 0, 64, 74
2, 207727, Note_on_c, 0, 78, 37
2, 207730, Note_on_c, 0, 51, 36
2, 207742, Control_c, 0, 64, 71
2, 207751, Note_on_c, 0, 75, 32
2, 207760, Control_c, 0, 64, 66
2, 207780, Control_c, 0, 64, 63
2, 207799, Control_c, 0, 64, 59
2, 207819, Control_c, 0, 64, 57
2, 207876, Control_c, 0, 64, 59
2, 207895, Control_c, 0, 64, 61
2, 207914, Control_c, 0, 64, 63
2, 207923, Note_on_c, 0, 58, 0
2, 207934, Control_c, 0, 64, 64
2, 207953, Control_c, 0, 64, 66
2, 207972, Control_c, 0, 64, 67
2, 207991, Control_c, 0, 64, 69
2, 208011, Control_c, 0, 64, 73
2, 208029, Control_c, 0, 64, 77
2, 208049, Control_c, 0, 64, 83
2, 208068, Control_c, 0, 64, 89
2, 208087, Control_c, 0, 64, 94
2, 208104, Note_on_c, 0, 73, 53
2, 208106, Control_c, 0, 64, 96
2, 208134, Note_on_c, 0, 78, 0
2, 208154, Note_on_c, 0, 75, 0
2, 208206, Note_on_c, 0, 73, 0
2, 208241, Control_c, 0, 64, 95
2, 208261, Control_c, 0, 64, 94
2, 208280, Control_c, 0, 64, 93
2, 208299, Control_c, 0, 64, 92
2, 208318, Control_c, 0, 64, 91
2, 208338, Control_c, 0, 64, 90
2, 208357, Control_c, 0, 64, 90
2, 208376, Control_c, 0, 64, 89
2, 208395, Control_c, 0, 64, 87
2, 208415, Control_c, 0, 64, 86
2, 208434, Control_c, 0, 64, 85
2, 208453, Control_c, 0, 64, 84
2, 208472, Control_c, 0, 64, 84
2, 208492, Control_c, 0, 64, 82
2, 208510, Control_c, 0, 64, 79
2, 208518, Note_on_c, 0, 56, 53
2, 208530, Control_c, 0, 64, 76
2, 208543, Note_on_c, 0, 77, 46
2, 208549, Control_c, 0, 64, 72
2, 208563, Note_on_c, 0, 51, 0
2, 208569, Control_c, 0, 64, 68
2, 208585, Note_on_c, 0, 71, 29
2, 208587, Control_c, 0, 64, 66
2, 208606, Control_c, 0, 64, 63
2, 208626, Control_c, 0, 64, 60
2, 208644, Control_c, 0, 64, 57
2, 208664, Control_c, 0, 64, 56
2, 208683, Control_c, 0, 64, 55
2, 208741, Control_c, 0, 64, 56
2, 208779, Control_c, 0, 64, 56
2, 208798, Control_c, 0, 64, 57
2, 208818, Control_c, 0, 64, 57
2, 208837, Control_c, 0, 64, 59
2, 208856, Control_c, 0, 64, 61
2, 208875, Control_c, 0, 64, 62
2, 208895, Control_c, 0, 64, 64
2, 208914, Control_c, 0, 64, 65
2, 208933, Control_c, 0, 64, 66
2, 208937, Note_on_c, 0, 75, 50
2, 208952, Control_c, 0, 64, 68
2, 208972, Control_c, 0, 64, 71
2, 208990, Control_c, 0, 64, 73
2, 209003, Note_on_c, 0, 77, 0
2, 209010, Control_c, 0, 64, 76
2, 209029, Control_c, 0, 64, 78
2, 209049, Control_c, 0, 64, 78
2, 209162, Note_on_c, 0, 71, 0
2, 209241, Control_c, 0, 64, 77
2, 209260, Control_c, 0, 64, 74
2, 209279, Control_c, 0, 64, 70
2, 209299, Control_c, 0, 64, 66
2, 209300, Note_on_c, 0, 74, 44
2, 209313, Note_on_c, 0, 70, 37
2, 209318, Control_c, 0, 64, 63
2, 209347, Note_on_c, 0, 75, 0
2, 209356, Control_c, 0, 64, 64
2, 209376, Control_c, 0, 64, 65
2, 209394, Control_c, 0, 64, 66
2, 209414, Control_c, 0, 64, 68
2, 209433, Control_c, 0, 64, 70
2, 209453, Control_c, 0, 64, 73
2, 209471, Control_c, 0, 64, 75
2, 209491, Control_c, 0, 64, 76
2, 209510, Control_c, 0, 64, 75
2, 209530, Control_c, 0, 64, 72
2, 209547, Control_c, 0, 64, 68
2, 209566, Control_c, 0, 64, 65
2, 209586, Control_c, 0, 64, 66
2, 209604, Control_c, 0, 64, 67
2, 209624, Control_c, 0, 64, 68
2, 209643, Control_c, 0, 64, 70
2, 209663, Control_c, 0, 64, 72
2, 209667, Note_on_c, 0, 54, 47
2, 209681, Control_c, 0, 64, 74
2, 209682, Note_on_c, 0, 75, 48
2, 209701, Control_c, 0, 64, 75
2, 209739, Control_c, 0, 64, 74
2, 209742, Note_on_c, 0, 74, 0
2, 209758, Control_c, 0, 64, 74
2, 209761, Note_on_c, 0, 70, 0
2, 209797, Control_c, 0, 64, 73
2, 209816, Control_c, 0, 64, 73
2, 209835, Control_c, 0, 64, 72
2, 209855, Control_c, 0, 64, 72
2, 209893, Control_c, 0, 64, 71
2, 209912, Control_c, 0, 64, 71
2, 209932, Control_c, 0, 64, 70
2, 209950, Control_c, 0, 64, 69
2, 209997, Note_on_c, 0, 56, 0
2, 210009, Control_c, 0, 64, 68
2, 210027, Control_c, 0, 64, 68
2, 210046, Control_c, 0, 64, 66
2, 210064, Note_on_c, 0, 53, 52
2, 210066, Control_c, 0, 64, 65
2, 210069, Note_on_c, 0, 68, 48
2, 210084, Control_c, 0, 64, 63
2, 210103, Note_on_c, 0, 54, 0
2, 210104, Control_c, 0, 64, 61
2, 210123, Control_c, 0, 64, 56
2, 210143, Control_c, 0, 64, 51
2, 210161, Control_c, 0, 64, 48
2, 210200, Control_c, 0, 64, 49
2, 210219, Control_c, 0, 64, 50
2, 210238, Control_c, 0, 64, 52
2, 210258, Control_c, 0, 64, 54
2, 210277, Control_c, 0, 64, 56
2, 210296, Control_c, 0, 64, 58
2, 210315, Control_c, 0, 64, 60
2, 210335, Control_c, 0, 64, 62
2, 210354, Control_c, 0, 64, 63
2, 210373, Control_c, 0, 64, 64
2, 210392, Control_c, 0, 64, 64
2, 210412, Control_c, 0, 64, 65
2, 210430, Control_c, 0, 64, 66
2, 210450, Control_c, 0, 64, 67
2, 210459, Note_on_c, 0, 74, 50
2, 210469, Control_c, 0, 64, 69
2, 210482, Note_on_c, 0, 75, 0
2, 210489, Control_c, 0, 64, 71
2, 210508, Control_c, 0, 64, 73
2, 210527, Control_c, 0, 64, 73
2, 210624, Control_c, 0, 64, 73
2, 210639, Note_on_c, 0, 68, 0
2, 210719, Control_c, 0, 64, 72
2, 210747, Note_on_c, 0, 74, 0
2, 210758, Control_c, 0, 64, 72
2, 210777, Control_c, 0, 64, 71
2, 210796, Control_c, 0, 64, 71
2, 210816, Control_c, 0, 64, 70
2, 210829, Note_on_c, 0, 53, 0
2, 210834, Control_c, 0, 64, 68
2, 210844, Note_on_c, 0, 51, 44
2, 210854, Control_c, 0, 64, 65
2, 210858, Note_on_c, 0, 75, 45
2, 210873, Control_c, 0, 64, 61
2, 210880, Note_on_c, 0, 66, 40
2, 210893, Control_c, 0, 64, 56
2, 210911, Control_c, 0, 64, 52
2, 210931, Control_c, 0, 64, 51
2, 210950, Control_c, 0, 64, 53
2, 210970, Control_c, 0, 64, 56
2, 210988, Control_c, 0, 64, 60
2, 211007, Control_c, 0, 64, 62
2, 211027, Control_c, 0, 64, 64
2, 211047, Control_c, 0, 64, 66
2, 211067, Control_c, 0, 64, 67
2, 211086, Control_c, 0, 64, 68
2, 211105, Control_c, 0, 64, 70
2, 211124, Control_c, 0, 64, 72
2, 211144, Control_c, 0, 64, 72
2, 211163, Control_c, 0, 64, 73
2, 211254, Note_on_c, 0, 73, 60
2, 211259, Control_c, 0, 64, 73
2, 211278, Control_c, 0, 64, 74
2, 211298, Control_c, 0, 64, 75
2, 211316, Control_c, 0, 64, 76
2, 211467, Control_c, 0, 64, 76
2, 211506, Control_c, 0, 64, 75
2, 211508, Note_on_c, 0, 66, 0
2, 211524, Control_c, 0, 64, 75
2, 211544, Control_c, 0, 64, 74
2, 211563, Control_c, 0, 64, 73
2, 211583, Control_c, 0, 64, 71
2, 211601, Control_c, 0, 64, 69
2, 211621, Control_c, 0, 64, 66
2, 211631, Note_on_c, 0, 63, 63
2, 211637, Note_on_c, 0, 71, 48
2, 211640, Control_c, 0, 64, 62
2, 211650, Note_on_c, 0, 68, 47
2, 211659, Control_c, 0, 64, 56
2, 211678, Control_c, 0, 64, 49
2, 211698, Control_c, 0, 64, 45
2, 211717, Control_c, 0, 64, 45
2, 211736, Control_c, 0, 64, 50
2, 211742, Note_on_c, 0, 73, 0
2, 211755, Control_c, 0, 64, 57
2, 211774, Note_on_c, 0, 75, 0
2, 211775, Control_c, 0, 64, 62
2, 211794, Control_c, 0, 64, 64
2, 211813, Control_c, 0, 64, 65
2, 211817, Note_on_c, 0, 51, 0
2, 211832, Control_c, 0, 64, 66
2, 211852, Control_c, 0, 64, 68
2, 211870, Control_c, 0, 64, 69
2, 211890, Control_c, 0, 64, 70
2, 211909, Control_c, 0, 64, 72
2, 211929, Control_c, 0, 64, 74
2, 211947, Control_c, 0, 64, 75
2, 211966, Control_c, 0, 64, 77
2, 211986, Control_c, 0, 64, 78
2, 212004, Control_c, 0, 64, 80
2, 212018, Note_on_c, 0, 66, 59
2, 212023, Control_c, 0, 64, 81
2, 212042, Control_c, 0, 64, 82
2, 212062, Control_c, 0, 64, 83
2, 212069, Note_on_c, 0, 68, 0
2, 212107, Note_on_c, 0, 63, 0
2, 212139, Control_c, 0, 64, 84
2, 212176, Note_on_c, 0, 71, 0
2, 212215, Control_c, 0, 64, 84
2, 212230, Note_on_c, 0, 66, 0
2, 212273, Control_c, 0, 64, 84
2, 212311, Control_c, 0, 64, 83
2, 212331, Control_c, 0, 64, 83
2, 212349, Control_c, 0, 64, 82
2, 212368, Control_c, 0, 64, 82
2, 212388, Control_c, 0, 64, 81
2, 212407, Control_c, 0, 64, 81
2, 212426, Control_c, 0, 64, 80
2, 212445, Control_c, 0, 64, 79
2, 212458, Note_on_c, 0, 65, 39
2, 212459, Note_on_c, 0, 62, 54
2, 212465, Control_c, 0, 64, 79
2, 212484, Control_c, 0, 64, 77
2, 212503, Control_c, 0, 64, 73
2, 212522, Control_c, 0, 64, 67
2, 212542, Control_c, 0, 64, 61
2, 212560, Control_c, 0, 64, 55
2, 212580, Control_c, 0, 64, 53
2, 212599, Control_c, 0, 64, 54
2, 212619, Control_c, 0, 64, 55
2, 212637, Control_c, 0, 64, 58
2, 212657, Control_c, 0, 64, 60
2, 212676, Control_c, 0, 64, 62
2, 212695, Control_c, 0, 64, 63
2, 212714, Control_c, 0, 64, 64
2, 212734, Control_c, 0, 64, 65
2, 212753, Control_c, 0, 64, 66
2, 212772, Control_c, 0, 64, 67
2, 212791, Control_c, 0, 64, 68
2, 212811, Control_c, 0, 64, 70
2, 212829, Control_c, 0, 64, 72
2, 212848, Control_c, 0, 64, 75
2, 212866, Note_on_c, 0, 70, 44
2, 212868, Control_c, 0, 64, 78
2, 212887, Control_c, 0, 64, 82
2, 212906, Control_c, 0, 64, 84
2, 212947, Note_on_c, 0, 62, 0
2, 212987, Note_on_c, 0, 65, 0
2, 213013, Note_on_c, 0, 70, 0
2, 213023, Control_c, 0, 64, 83
2, 213032, Note_on_c, 0, 68, 49
2, 213061, Control_c, 0, 64, 83
2, 213138, Control_c, 0, 64, 82
2, 213157, Control_c, 0, 64, 82
2, 213176, Control_c, 0, 64, 80
2, 213195, Control_c, 0, 64, 77
2, 213215, Control_c, 0, 64, 71
2, 213231, Note_on_c, 0, 70, 41
2, 213234, Control_c, 0, 64, 65
2, 213239, Note_on_c, 0, 61, 43
2, 213253, Control_c, 0, 64, 61
2, 213254, Note_on_c, 0, 68, 0
2, 213272, Control_c, 0, 64, 60
2, 213292, Control_c, 0, 64, 61
2, 213310, Control_c, 0, 64, 63
2, 213330, Control_c, 0, 64, 64
2, 213349, Control_c, 0, 64, 65
2, 213368, Control_c, 0, 64, 67
2, 213386, Control_c, 0, 64, 69
2, 213405, Control_c, 0, 64, 72
2, 213425, Control_c, 0, 64, 74
2, 213444, Control_c, 0, 64, 75
2, 213502, Control_c, 0, 64, 76
2, 213555, Note_on_c, 0, 70, 0
2, 213594, Note_on_c, 0, 63, 34
2, 213601, Note_on_c, 0, 71, 55
2, 213678, Note_on_c, 0, 63, 0
2, 213694, Control_c, 0, 64, 75
2, 213751, Control_c, 0, 64, 75
2, 213763, Note_on_c, 0, 73, 53
2, 213776, Note_on_c, 0, 65, 21
2, 213789, Control_c, 0, 64, 74
2, 213815, Note_on_c, 0, 61, 0
2, 213837, Note_on_c, 0, 71, 0
2, 213838, Note_on_c, 0, 65, 0
2, 213866, Control_c, 0, 64, 74
2, 213885, Control_c, 0, 64, 73
2, 213905, Control_c, 0, 64, 68
2, 213924, Control_c, 0, 64, 62
2, 213939, Note_on_c, 0, 60, 49
2, 213939, Note_on_c, 0, 75, 68
2, 213943, Control_c, 0, 64, 56
2, 213961, Note_on_c, 0, 66, 47
2, 213962, Control_c, 0, 64, 53
2, 213982, Control_c, 0, 64, 54
2, 214000, Control_c, 0, 64, 58
2, 214020, Control_c, 0, 64, 61
2, 214039, Control_c, 0, 64, 64
2, 214059, Control_c, 0, 64, 66
2, 214077, Control_c, 0, 64, 68
2, 214097, Control_c, 0, 64, 71
2, 214116, Control_c, 0, 64, 73
2, 214135, Control_c, 0, 64, 76
2, 214154, Control_c, 0, 64, 77
2, 214174, Control_c, 0, 64, 78
2, 214193, Control_c, 0, 64, 78
2, 214194, Note_on_c, 0, 73, 0
2, 214231, Control_c, 0, 64, 79
2, 214269, Control_c, 0, 64, 79
2, 214288, Control_c, 0, 64, 80
2, 214293, Note_on_c, 0, 77, 66
2, 214308, Control_c, 0, 64, 80
2, 214309, Note_on_c, 0, 68, 44
2, 214327, Note_on_c, 0, 60, 0
2, 214331, Note_on_c, 0, 75, 0
2, 214344, Note_on_c, 0, 68, 0
2, 214446, Note_on_c, 0, 77, 0
2, 214452, Note_on_c, 0, 78, 70
2, 214453, Note_on_c, 0, 70, 53
2, 214479, Control_c, 0, 64, 81
2, 214498, Control_c, 0, 64, 81
2, 214506, Note_on_c, 0, 66, 0
2, 214512, Note_on_c, 0, 70, 0
2, 214517, Control_c, 0, 64, 83
2, 214572, Note_on_c, 0, 78, 0
2, 214614, Control_c, 0, 64, 82
2, 214632, Control_c, 0, 64, 82
2, 214652, Control_c, 0, 64, 81
2, 214671, Control_c, 0, 64, 80
2, 214690, Control_c, 0, 64, 78
2, 214694, Note_on_c, 0, 59, 41
2, 214707, Note_on_c, 0, 77, 68
2, 214709, Control_c, 0, 64, 75
2, 214728, Control_c, 0, 64, 69
2, 214728, Note_on_c, 0, 68, 53
2, 214748, Control_c, 0, 64, 61
2, 214766, Control_c, 0, 64, 49
2, 214786, Control_c, 0, 64, 41
2, 214805, Control_c, 0, 64, 42
2, 214824, Control_c, 0, 64, 51
2, 214843, Control_c, 0, 64, 59
2, 214863, Control_c, 0, 64, 63
2, 214883, Control_c, 0, 64, 66
2, 214902, Control_c, 0, 64, 69
2, 214921, Control_c, 0, 64, 72
2, 214941, Control_c, 0, 64, 75
2, 214959, Control_c, 0, 64, 78
2, 214979, Control_c, 0, 64, 79
2, 215001, Note_on_c, 0, 68, 0
2, 215005, Note_on_c, 0, 77, 0
2, 215064, Note_on_c, 0, 59, 0
2, 215133, Control_c, 0, 64, 79
2, 215179, Note_on_c, 0, 75, 54
2, 215187, Note_on_c, 0, 66, 51
2, 215210, Control_c, 0, 64, 79
2, 215244, Note_on_c, 0, 75, 0
2, 215277, Note_on_c, 0, 68, 51
2, 215305, Control_c, 0, 64, 77
2, 215324, Control_c, 0, 64, 73
2, 215344, Control_c, 0, 64, 66
2, 215363, Control_c, 0, 64, 58
2, 215365, Note_on_c, 0, 66, 0
2, 215382, Control_c, 0, 64, 44
2, 215385, Note_on_c, 0, 58, 54
2, 215386, Note_on_c, 0, 68, 0
2, 215401, Control_c, 0, 64, 43
2, 215404, Note_on_c, 0, 74, 54
2, 215410, Note_on_c, 0, 70, 51
2, 215421, Control_c, 0, 64, 49
2, 215439, Control_c, 0, 64, 58
2, 215459, Control_c, 0, 64, 63
2, 215469, Note_on_c, 0, 58, 0
2, 215478, Control_c, 0, 64, 65
2, 215498, Control_c, 0, 64, 67
2, 215516, Control_c, 0, 64, 71
2, 215536, Control_c, 0, 64, 75
2, 215555, Control_c, 0, 64, 78
2, 215575, Control_c, 0, 64, 80
2, 215727, Control_c, 0, 64, 79
2, 215747, Control_c, 0, 64, 75
2, 215749, Note_on_c, 0, 46, 71
2, 215766, Control_c, 0, 64, 67
2, 215785, Control_c, 0, 64, 57
2, 215801, Note_on_c, 0, 68, 56
2, 215804, Control_c, 0, 64, 43
2, 215824, Control_c, 0, 64, 42
2, 215844, Control_c, 0, 64, 46
2, 215863, Control_c, 0, 64, 55
2, 215882, Control_c, 0, 64, 61
2, 215902, Control_c, 0, 64, 64
2, 215920, Control_c, 0, 64, 65
2, 215940, Control_c, 0, 64, 68
2, 215959, Control_c, 0, 64, 70
2, 215979, Control_c, 0, 64, 73
2, 215985, Note_on_c, 0, 74, 0
2, 215997, Control_c, 0, 64, 73
2, 216031, Note_on_c, 0, 70, 0
2, 216151, Control_c, 0, 64, 74
2, 216197, Note_on_c, 0, 68, 0
2, 216228, Control_c, 0, 64, 73
2, 216247, Control_c, 0, 64, 70
2, 216265, Control_c, 0, 64, 65
2, 216284, Control_c, 0, 64, 60
2, 216286, Note_on_c, 0, 51, 72
2, 216304, Control_c, 0, 64, 53
2, 216314, Note_on_c, 0, 75, 56
2, 216323, Control_c, 0, 64, 50
2, 216333, Note_on_c, 0, 66, 43
2, 216342, Control_c, 0, 64, 49
2, 216361, Control_c, 0, 64, 49
2, 216381, Control_c, 0, 64, 51
2, 216399, Control_c, 0, 64, 56
2, 216419, Control_c, 0, 64, 60
2, 216438, Control_c, 0, 64, 61
2, 216458, Control_c, 0, 64, 62
2, 216482, Note_on_c, 0, 46, 0
2, 216535, Control_c, 0, 64, 60
2, 216553, Control_c, 0, 64, 57
2, 216573, Control_c, 0, 64, 52
2, 216592, Control_c, 0, 64, 48
2, 216595, Note_on_c, 0, 66, 0
2, 216611, Control_c, 0, 64, 42
2, 216630, Control_c, 0, 64, 34
2, 216650, Control_c, 0, 64, 32
2, 216669, Control_c, 0, 64, 42
2, 216687, Control_c, 0, 64, 55
2, 216707, Control_c, 0, 64, 62
2, 216726, Control_c, 0, 64, 65
2, 216745, Control_c, 0, 64, 67
2, 216752, Note_on_c, 0, 73, 59
2, 216756, Note_on_c, 0, 65, 47
2, 216764, Control_c, 0, 64, 70
2, 216784, Control_c, 0, 64, 74
2, 216804, Control_c, 0, 64, 79
2, 216824, Control_c, 0, 64, 83
2, 216843, Control_c, 0, 64, 84
2, 216856, Note_on_c, 0, 65, 0
2, 216881, Control_c, 0, 64, 84
2, 216940, Control_c, 0, 64, 84
2, 216958, Control_c, 0, 64, 85
2, 217035, Control_c, 0, 64, 84
2, 217055, Control_c, 0, 64, 80
2, 217074, Control_c, 0, 64, 71
2, 217093, Control_c, 0, 64, 61
2, 217105, Note_on_c, 0, 71, 65
2, 217112, Control_c, 0, 64, 50
2, 217116, Note_on_c, 0, 63, 56
2, 217132, Control_c, 0, 64, 54
2, 217150, Control_c, 0, 64, 60
2, 217170, Control_c, 0, 64, 64
2, 217189, Control_c, 0, 64, 67
2, 217208, Control_c, 0, 64, 71
2, 217225, Control_c, 0, 64, 78
2, 217227, Note_on_c, 0, 73, 0
2, 217233, Note_on_c, 0, 75, 0
2, 217244, Control_c, 0, 64, 84
2, 217257, Note_on_c, 0, 71, 0
2, 217264, Control_c, 0, 64, 87
2, 217302, Control_c, 0, 64, 87
2, 217436, Control_c, 0, 64, 83
2, 217456, Control_c, 0, 64, 74
2, 217475, Control_c, 0, 64, 65
2, 217478, Note_on_c, 0, 54, 72
2, 217492, Note_on_c, 0, 70, 59
2, 217495, Control_c, 0, 64, 56
2, 217513, Control_c, 0, 64, 56
2, 217533, Control_c, 0, 64, 60
2, 217552, Control_c, 0, 64, 63
2, 217571, Control_c, 0, 64, 66
2, 217590, Control_c, 0, 64, 69
2, 217609, Control_c, 0, 64, 73
2, 217629, Control_c, 0, 64, 78
2, 217647, Control_c, 0, 64, 79
2, 217686, Control_c, 0, 64, 78
2, 217693, Note_on_c, 0, 63, 0
2, 217695, Note_on_c, 0, 70, 0
2, 217724, Control_c, 0, 64, 78
2, 217764, Control_c, 0, 64, 77
2, 217783, Control_c, 0, 64, 76
2, 217802, Control_c, 0, 64, 72
2, 217822, Control_c, 0, 64, 66
2, 217840, Control_c, 0, 64, 55
2, 217847, Note_on_c, 0, 53, 67
2, 217847, Note_on_c, 0, 68, 66
2, 217851, Note_on_c, 0, 51, 0
2, 217855, Note_on_c, 0, 62, 58
2, 217860, Control_c, 0, 64, 0
2, 217914, Note_on_c, 0, 54, 0
2, 217956, Control_c, 0, 64, 13
2, 217975, Control_c, 0, 64, 51
2, 217994, Control_c, 0, 64, 61
2, 218014, Control_c, 0, 64, 62
2, 218033, Control_c, 0, 64, 63
2, 218071, Control_c, 0, 64, 63
2, 218128, Control_c, 0, 64, 63
2, 218148, Control_c, 0, 64, 62
2, 218167, Control_c, 0, 64, 59
2, 218186, Control_c, 0, 64, 46
2, 218205, Control_c, 0, 64, 19
2, 218222, Note_on_c, 0, 66, 51
2, 218225, Control_c, 0, 64, 0
2, 218229, Note_on_c, 0, 51, 59
2, 218241, Note_on_c, 0, 63, 49
2, 218244, Note_on_c, 0, 53, 0
2, 218263, Control_c, 0, 64, 18
2, 218282, Control_c, 0, 64, 51
2, 218302, Control_c, 0, 64, 62
2, 218320, Control_c, 0, 64, 65
2, 218340, Control_c, 0, 64, 67
2, 218359, Control_c, 0, 64, 69
2, 218379, Control_c, 0, 64, 71
2, 218397, Control_c, 0, 64, 73
2, 218409, Note_on_c, 0, 63, 0
2, 218436, Control_c, 0, 64, 72
2, 218455, Control_c, 0, 64, 71
2, 218474, Control_c, 0, 64, 69
2, 218494, Control_c, 0, 64, 66
2, 218513, Control_c, 0, 64, 61
2, 218532, Control_c, 0, 64, 55
2, 218551, Control_c, 0, 64, 52
2, 218571, Control_c, 0, 64, 52
2, 218577, Note_on_c, 0, 51, 0
2, 218581, Note_on_c, 0, 62, 0
2, 218589, Control_c, 0, 64, 53
2, 218590, Note_on_c, 0, 50, 49
2, 218606, Note_on_c, 0, 65, 50
2, 218608, Control_c, 0, 64, 56
2, 218618, Note_on_c, 0, 68, 0
2, 218628, Control_c, 0, 64, 60
2, 218647, Control_c, 0, 64, 61
2, 218666, Control_c, 0, 64, 62
2, 218680, Note_on_c, 0, 66, 0
2, 218685, Control_c, 0, 64, 62
2, 218800, Control_c, 0, 64, 63
2, 218839, Control_c, 0, 64, 63
2, 218859, Control_c, 0, 64, 64
2, 218877, Control_c, 0, 64, 64
2, 218897, Control_c, 0, 64, 65
2, 218954, Note_on_c, 0, 51, 57
2, 218978, Note_on_c, 0, 66, 47
2, 218980, Note_on_c, 0, 50, 0
2, 218986, Note_on_c, 0, 63, 41
2, 218986, Note_on_c, 0, 65, 0
2, 219012, Control_c, 0, 64, 65
2, 219051, Control_c, 0, 64, 66
2, 219088, Control_c, 0, 64, 66
2, 219146, Control_c, 0, 64, 67
2, 219185, Control_c, 0, 64, 67
2, 219204, Control_c, 0, 64, 68
2, 219226, Note_on_c, 0, 63, 0
2, 219242, Control_c, 0, 64, 68
2, 219280, Control_c, 0, 64, 69
2, 219303, Note_on_c, 0, 66, 0
2, 219319, Control_c, 0, 64, 68
2, 219339, Control_c, 0, 64, 67
2, 219357, Control_c, 0, 64, 64
2, 219359, Note_on_c, 0, 53, 68
2, 219377, Control_c, 0, 64, 63
2, 219415, Control_c, 0, 64, 64
2, 219434, Control_c, 0, 64, 64
2, 219454, Control_c, 0, 64, 65
2, 219468, Note_on_c, 0, 51, 0
2, 219473, Control_c, 0, 64, 66
2, 219492, Control_c, 0, 64, 67
2, 219511, Control_c, 0, 64, 68
2, 219531, Control_c, 0, 64, 68
2, 219549, Control_c, 0, 64, 69
2, 219568, Control_c, 0, 64, 70
2, 219588, Control_c, 0, 64, 71
2, 219626, Control_c, 0, 64, 71
2, 219645, Control_c, 0, 64, 72
2, 219665, Control_c, 0, 64, 73
2, 219684, Control_c, 0, 64, 75
2, 219703, Control_c, 0, 64, 76
2, 219760, Control_c, 0, 64, 76
2, 219765, Note_on_c, 0, 62, 24
2, 219799, Control_c, 0, 64, 77
2, 219819, Control_c, 0, 64, 78
2, 219820, Note_on_c, 0, 62, 0
2, 220145, Control_c, 0, 64, 77
2, 220152, Note_on_c, 0, 46, 65
2, 220164, Control_c, 0, 64, 74
2, 220183, Control_c, 0, 64, 69
2, 220202, Control_c, 0, 64, 62
2, 220212, Note_on_c, 0, 53, 0
2, 220222, Control_c, 0, 64, 54
2, 220235, Note_on_c, 0, 60, 33
2, 220240, Control_c, 0, 64, 50
2, 220260, Control_c, 0, 64, 52
2, 220278, Note_on_c, 0, 60, 0
2, 220279, Control_c, 0, 64, 55
2, 220299, Control_c, 0, 64, 58
2, 220317, Control_c, 0, 64, 61
2, 220337, Control_c, 0, 64, 63
2, 220356, Control_c, 0, 64, 64
2, 220375, Control_c, 0, 64, 65
2, 220394, Control_c, 0, 64, 66
2, 220414, Control_c, 0, 64, 67
2, 220433, Control_c, 0, 64, 67
2, 220452, Control_c, 0, 64, 68
2, 220471, Control_c, 0, 64, 69
2, 220491, Control_c, 0, 64, 69
2, 220509, Control_c, 0, 64, 70
2, 220528, Control_c, 0, 64, 71
2, 220548, Control_c, 0, 64, 72
2, 220567, Control_c, 0, 64, 73
2, 220584, Note_on_c, 0, 66, 43
2, 220586, Control_c, 0, 64, 74
2, 220605, Control_c, 0, 64, 74
2, 220627, Note_on_c, 0, 66, 0
2, 220678, Note_on_c, 0, 65, 36
2, 220717, Note_on_c, 0, 65, 0
2, 220838, Control_c, 0, 64, 74
2, 220857, Control_c, 0, 64, 73
2, 220876, Control_c, 0, 64, 71
2, 220896, Control_c, 0, 64, 67
2, 220909, Note_on_c, 0, 51, 56
2, 220914, Control_c, 0, 64, 63
2, 220914, Note_on_c, 0, 66, 42
2, 220918, Note_on_c, 0, 63, 43
2, 220934, Control_c, 0, 64, 59
2, 220953, Control_c, 0, 64, 55
2, 220973, Control_c, 0, 64, 52
2, 220991, Control_c, 0, 64, 48
2, 221011, Control_c, 0, 64, 44
2, 221030, Control_c, 0, 64, 43
2, 221085, Control_c, 0, 64, 44
2, 221105, Control_c, 0, 64, 44
2, 221124, Control_c, 0, 64, 45
2, 221143, Control_c, 0, 64, 46
2, 221162, Control_c, 0, 64, 48
2, 221182, Control_c, 0, 64, 51
2, 221200, Control_c, 0, 64, 53
2, 221206, Note_on_c, 0, 46, 0
2, 221220, Control_c, 0, 64, 55
2, 221239, Control_c, 0, 64, 56
2, 221259, Control_c, 0, 64, 58
2, 221277, Control_c, 0, 64, 60
2, 221297, Control_c, 0, 64, 62
2, 221316, Control_c, 0, 64, 63
2, 221335, Control_c, 0, 64, 65
2, 221341, Note_on_c, 0, 68, 58
2, 221348, Note_on_c, 0, 65, 43
2, 221350, Note_on_c, 0, 66, 0
2, 221354, Control_c, 0, 64, 66
2, 221374, Control_c, 0, 64, 68
2, 221393, Control_c, 0, 64, 71
2, 221402, Note_on_c, 0, 63, 0
2, 221412, Control_c, 0, 64, 75
2, 221431, Control_c, 0, 64, 79
2, 221451, Control_c, 0, 64, 82
2, 221469, Control_c, 0, 64, 83
2, 221621, Note_on_c, 0, 68, 0
2, 221623, Control_c, 0, 64, 82
2, 221642, Control_c, 0, 64, 80
2, 221662, Control_c, 0, 64, 76
2, 221680, Control_c, 0, 64, 70
2, 221700, Control_c, 0, 64, 64
2, 221709, Note_on_c, 0, 70, 65
2, 221719, Control_c, 0, 64, 57
2, 221739, Control_c, 0, 64, 51
2, 221740, Note_on_c, 0, 66, 49
2, 221757, Control_c, 0, 64, 50
2, 221777, Control_c, 0, 64, 49
2, 221834, Control_c, 0, 64, 50
2, 221854, Control_c, 0, 64, 50
2, 221871, Note_on_c, 0, 65, 0
2, 221873, Control_c, 0, 64, 51
2, 221892, Control_c, 0, 64, 53
2, 221911, Control_c, 0, 64, 55
2, 221931, Control_c, 0, 64, 57
2, 221949, Control_c, 0, 64, 59
2, 221968, Control_c, 0, 64, 61
2, 221988, Control_c, 0, 64, 62
2, 222007, Control_c, 0, 64, 64
2, 222026, Control_c, 0, 64, 66
2, 222045, Control_c, 0, 64, 69
2, 222065, Control_c, 0, 64, 73
2, 222084, Control_c, 0, 64, 78
2, 222084, Note_on_c, 0, 49, 55
2, 222103, Control_c, 0, 64, 86
2, 222106, Note_on_c, 0, 66, 0
2, 222122, Control_c, 0, 64, 94
2, 222137, Note_on_c, 0, 51, 0
2, 222142, Control_c, 0, 64, 99
2, 222143, Note_on_c, 0, 70, 0
2, 222160, Control_c, 0, 64, 100
2, 222199, Control_c, 0, 64, 101
2, 222353, Control_c, 0, 64, 100
2, 222354, Note_on_c, 0, 49, 0
2, 222372, Control_c, 0, 64, 99
2, 222391, Control_c, 0, 64, 98
2, 222411, Control_c, 0, 64, 97
2, 222429, Control_c, 0, 64, 93
2, 222444, Note_on_c, 0, 47, 51
2, 222448, Control_c, 0, 64, 82
2, 222468, Control_c, 0, 64, 69
2, 222487, Control_c, 0, 64, 56
2, 222491, Note_on_c, 0, 71, 53
2, 222499, Note_on_c, 0, 68, 40
2, 222506, Control_c, 0, 64, 0
2, 222566, Control_c, 0, 64, 31
2, 222586, Control_c, 0, 64, 54
2, 222605, Control_c, 0, 64, 61
2, 222624, Control_c, 0, 64, 64
2, 222643, Control_c, 0, 64, 66
2, 222663, Control_c, 0, 64, 68
2, 222682, Control_c, 0, 64, 71
2, 222701, Control_c, 0, 64, 76
2, 222720, Control_c, 0, 64, 82
2, 222740, Control_c, 0, 64, 87
2, 222759, Control_c, 0, 64, 87
2, 222778, Control_c, 0, 64, 88
2, 222817, Control_c, 0, 64, 89
2, 222835, Control_c, 0, 64, 90
2, 222835, Note_on_c, 0, 73, 51
2, 222836, Note_on_c, 0, 71, 0
2, 222855, Control_c, 0, 64, 91
2, 222861, Note_on_c, 0, 66, 48
2, 222874, Control_c, 0, 64, 92
2, 222894, Control_c, 0, 64, 93
2, 222902, Note_on_c, 0, 73, 0
2, 222910, Note_on_c, 0, 68, 0
2, 223019, Note_on_c, 0, 75, 65
2, 223057, Note_on_c, 0, 66, 0
2, 223063, Note_on_c, 0, 75, 0
2, 223139, Control_c, 0, 64, 92
2, 223158, Control_c, 0, 64, 90
2, 223178, Control_c, 0, 64, 85
2, 223196, Control_c, 0, 64, 76
2, 223201, Note_on_c, 0, 68, 54
2, 223215, Note_on_c, 0, 65, 46
2, 223216, Control_c, 0, 64, 67
2, 223235, Control_c, 0, 64, 60
2, 223255, Control_c, 0, 64, 56
2, 223273, Control_c, 0, 64, 57
2, 223293, Control_c, 0, 64, 60
2, 223312, Control_c, 0, 64, 62
2, 223330, Control_c, 0, 64, 64
2, 223350, Control_c, 0, 64, 66
2, 223369, Control_c, 0, 64, 67
2, 223389, Control_c, 0, 64, 69
2, 223407, Control_c, 0, 64, 70
2, 223427, Control_c, 0, 64, 71
2, 223465, Control_c, 0, 64, 71
2, 223504, Control_c, 0, 64, 72
2, 223524, Control_c, 0, 64, 73
2, 223544, Control_c, 0, 64, 74
2, 223563, Control_c, 0, 64, 75
2, 223583, Control_c, 0, 64, 76
2, 223594, Note_on_c, 0, 61, 45
2, 223601, Control_c, 0, 64, 76
2, 223621, Control_c, 0, 67, 13
2, 223640, Control_c, 0, 67, 22
2, 223660, Control_c, 0, 67, 34
2, 223678, Control_c, 0, 64, 76
2, 223678, Control_c, 0, 67, 41
2, 223698, Control_c, 0, 67, 45
2, 223705, Note_on_c, 0, 65, 0
2, 223717, Control_c, 0, 67, 48
2, 223736, Control_c, 0, 64, 75
2, 223736, Control_c, 0, 67, 49
2, 223755, Control_c, 0, 64, 75
2, 223755, Control_c, 0, 67, 50
2, 223775, Control_c, 0, 64, 74
2, 223832, Control_c, 0, 67, 49
2, 223852, Control_c, 0, 64, 74
2, 223889, Control_c, 0, 64, 73
2, 223895, Note_on_c, 0, 47, 0
2, 223909, Control_c, 0, 67, 49
2, 223928, Control_c, 0, 64, 72
2, 223928, Control_c, 0, 67, 48
2, 223939, Note_on_c, 0, 46, 40
2, 223946, Control_c, 0, 64, 71
2, 223963, Note_on_c, 0, 66, 58
2, 223965, Control_c, 0, 64, 70
2, 224020, Note_on_c, 0, 61, 0
2, 224023, Control_c, 0, 64, 68
2, 224023, Control_c, 0, 67, 48
2, 224041, Note_on_c, 0, 68, 0
2, 224042, Control_c, 0, 64, 66
2, 224062, Control_c, 0, 64, 64
2, 224080, Control_c, 0, 64, 62
2, 224100, Control_c, 0, 64, 61
2, 224100, Control_c, 0, 67, 47
2, 224119, Control_c, 0, 64, 59
2, 224119, Control_c, 0, 67, 47
2, 224139, Control_c, 0, 64, 59
2, 224139, Control_c, 0, 67, 46
2, 224157, Control_c, 0, 67, 46
2, 224177, Control_c, 0, 64, 60
2, 224177, Control_c, 0, 67, 45
2, 224196, Control_c, 0, 64, 61
2, 224196, Control_c, 0, 67, 45
2, 224215, Control_c, 0, 64, 63
2, 224215, Control_c, 0, 67, 44
2, 224234, Control_c, 0, 64, 64
2, 224234, Control_c, 0, 67, 43
2, 224254, Control_c, 0, 64, 66
2, 224254, Control_c, 0, 67, 43
2, 224273, Control_c, 0, 64, 68
2, 224273, Control_c, 0, 67, 42
2, 224292, Control_c, 0, 64, 70
2, 224292, Control_c, 0, 67, 41
2, 224311, Control_c, 0, 64, 72
2, 224311, Control_c, 0, 67, 40
2, 224330, Control_c, 0, 64, 74
2, 224330, Control_c, 0, 67, 40
2, 224340, Note_on_c, 0, 70, 49
2, 224349, Control_c, 0, 64, 77
2, 224349, Control_c, 0, 67, 39
2, 224368, Control_c, 0, 64, 80
2, 224388, Control_c, 0, 64, 82
2, 224388, Control_c, 0, 67, 39
2, 224394, Note_on_c, 0, 70, 0
2, 224407, Control_c, 0, 64, 83
2, 224426, Control_c, 0, 67, 38
2, 224465, Control_c, 0, 67, 38
2, 224504, Control_c, 0, 64, 83
2, 224504, Control_c, 0, 67, 37
2, 224520, Note_on_c, 0, 46, 0
2, 224581, Control_c, 0, 64, 82
2, 224638, Control_c, 0, 64, 82
2, 224658, Control_c, 0, 64, 81
2, 224677, Control_c, 0, 64, 79
2, 224696, Control_c, 0, 64, 76
2, 224715, Control_c, 0, 64, 71
2, 224725, Note_on_c, 0, 44, 42
2, 224728, Note_on_c, 0, 71, 54
2, 224735, Control_c, 0, 64, 65
2, 224754, Control_c, 0, 64, 59
2, 224754, Control_c, 0, 67, 36
2, 224773, Control_c, 0, 64, 55
2, 224773, Control_c, 0, 67, 36
2, 224792, Control_c, 0, 64, 56
2, 224812, Control_c, 0, 64, 59
2, 224813, Note_on_c, 0, 66, 0
2, 224830, Control_c, 0, 64, 61
2, 224849, Control_c, 0, 64, 63
2, 224869, Control_c, 0, 64, 64
2, 224888, Control_c, 0, 64, 66
2, 224903, Control_c, 0, 64, 67
2, 224921, Control_c, 0, 64, 68
2, 224921, Control_c, 0, 67, 35
2, 224941, Control_c, 0, 64, 69
2, 224941, Control_c, 0, 67, 35
2, 224960, Control_c, 0, 64, 69
2, 224960, Control_c, 0, 67, 34
2, 224980, Control_c, 0, 67, 34
2, 224998, Control_c, 0, 67, 33
2, 225018, Control_c, 0, 67, 30
2, 225037, Control_c, 0, 67, 27
2, 225056, Control_c, 0, 67, 25
2, 225068, Note_on_c, 0, 46, 46
2, 225075, Control_c, 0, 64, 70
2, 225075, Control_c, 0, 67, 22
2, 225095, Control_c, 0, 67, 18
2, 225098, Note_on_c, 0, 73, 57
2, 225114, Control_c, 0, 67, 15
2, 225133, Control_c, 0, 64, 70
2, 225133, Control_c, 0, 67, 12
2, 225152, Control_c, 0, 67, 10
2, 225172, Control_c, 0, 67, 8
2, 225185, Note_on_c, 0, 44, 0
2, 225190, Control_c, 0, 67, 0
2, 225234, Note_on_c, 0, 71, 0
2, 225248, Control_c, 0, 64, 71
2, 225267, Control_c, 0, 64, 71
2, 225286, Control_c, 0, 64, 72
2, 225306, Control_c, 0, 64, 72
2, 225324, Control_c, 0, 64, 73
2, 225401, Control_c, 0, 64, 71
2, 225421, Control_c, 0, 64, 67
2, 225444, Control_c, 0, 64, 62
2, 225449, Note_on_c, 0, 65, 60
2, 225452, Note_on_c, 0, 47, 46
2, 225454, Note_on_c, 0, 75, 60
2, 225463, Control_c, 0, 64, 55
2, 225482, Control_c, 0, 64, 54
2, 225488, Note_on_c, 0, 46, 0
2, 225490, Note_on_c, 0, 73, 0
2, 225502, Control_c, 0, 64, 56
2, 225520, Control_c, 0, 64, 59
2, 225540, Control_c, 0, 64, 62
2, 225559, Control_c, 0, 64, 64
2, 225579, Control_c, 0, 64, 66
2, 225597, Control_c, 0, 64, 69
2, 225612, Note_on_c, 0, 75, 0
2, 225617, Control_c, 0, 64, 72
2, 225636, Control_c, 0, 64, 76
2, 225655, Control_c, 0, 64, 79
2, 225655, Note_on_c, 0, 75, 14
2, 225674, Control_c, 0, 64, 80
2, 225694, Control_c, 0, 64, 81
2, 225713, Control_c, 0, 64, 81
2, 225732, Control_c, 0, 64, 82
2, 225751, Control_c, 0, 64, 82
2, 225795, Note_on_c, 0, 47, 0
2, 225808, Control_c, 0, 64, 83
2, 225813, Note_on_c, 0, 75, 0
2, 225837, Note_on_c, 0, 49, 55
2, 225837, Note_on_c, 0, 65, 0
2, 225843, Note_on_c, 0, 77, 62
2, 225865, Control_c, 0, 64, 83
2, 225884, Note_on_c, 0, 77, 0
2, 225906, Note_on_c, 0, 49, 0
2, 225923, Control_c, 0, 64, 83
2, 226019, Control_c, 0, 64, 83
2, 226038, Control_c, 0, 64, 84
2, 226058, Control_c, 0, 64, 85
2, 226076, Control_c, 0, 64, 86
2, 226096, Control_c, 0, 64, 87
2, 226173, Control_c, 0, 64, 86
2, 226192, Control_c, 0, 64, 82
2, 226210, Control_c, 0, 64, 73
2, 226210, Note_on_c, 0, 51, 54
2, 226222, Note_on_c, 0, 78, 76
2, 226230, Control_c, 0, 64, 64
2, 226249, Control_c, 0, 64, 53
2, 226269, Control_c, 0, 64, 45
2, 226287, Control_c, 0, 64, 49
2, 226307, Control_c, 0, 64, 59
2, 226326, Control_c, 0, 64, 63
2, 226345, Control_c, 0, 64, 66
2, 226364, Control_c, 0, 64, 70
2, 226384, Control_c, 0, 64, 75
2, 226404, Control_c, 0, 64, 83
2, 226423, Control_c, 0, 64, 90
2, 226442, Control_c, 0, 64, 94
2, 226462, Control_c, 0, 64, 95
2, 226560, Note_on_c, 0, 53, 61
2, 226577, Note_on_c, 0, 80, 80
2, 226596, Control_c, 0, 64, 95
2, 226602, Note_on_c, 0, 51, 0
2, 226609, Note_on_c, 0, 53, 0
2, 226673, Control_c, 0, 64, 95
2, 226692, Control_c, 0, 64, 94
2, 226711, Control_c, 0, 64, 94
2, 226730, Control_c, 0, 64, 93
2, 226903, Control_c, 0, 64, 92
2, 226922, Control_c, 0, 64, 89
2, 226942, Control_c, 0, 64, 78
2, 226945, Note_on_c, 0, 63, 50
2, 226951, Note_on_c, 0, 54, 51
2, 226960, Control_c, 0, 64, 65
2, 226965, Note_on_c, 0, 82, 83
2, 226980, Control_c, 0, 64, 31
2, 226999, Control_c, 0, 64, 0
2, 227057, Control_c, 0, 64, 23
2, 227076, Control_c, 0, 64, 58
2, 227095, Control_c, 0, 64, 65
2, 227102, Note_on_c, 0, 80, 0
2, 227114, Control_c, 0, 64, 69
2, 227133, Note_on_c, 0, 78, 0
2, 227134, Control_c, 0, 64, 75
2, 227153, Control_c, 0, 64, 82
2, 227172, Control_c, 0, 64, 93
2, 227191, Control_c, 0, 64, 100
2, 227210, Control_c, 0, 64, 102
2, 227268, Control_c, 0, 64, 103
2, 227269, Note_on_c, 0, 82, 0
2, 227287, Control_c, 0, 64, 103
2, 227290, Note_on_c, 0, 56, 56
2, 227306, Control_c, 0, 64, 104
2, 227343, Note_on_c, 0, 83, 82
2, 227344, Note_on_c, 0, 63, 0
2, 227345, Control_c, 0, 64, 101
2, 227365, Control_c, 0, 64, 95
2, 227385, Control_c, 0, 64, 88
2, 227404, Control_c, 0, 64, 86
2, 227424, Control_c, 0, 64, 87
2, 227442, Control_c, 0, 64, 89
2, 227461, Note_on_c, 0, 54, 0
2, 227462, Control_c, 0, 64, 91
2, 227481, Control_c, 0, 64, 91
2, 227500, Control_c, 0, 64, 92
2, 227616, Control_c, 0, 64, 91
2, 227634, Control_c, 0, 64, 87
2, 227654, Control_c, 0, 64, 78
2, 227673, Control_c, 0, 64, 64
2, 227693, Control_c, 0, 64, 43
2, 227709, Note_on_c, 0, 56, 0
2, 227711, Control_c, 0, 64, 0
2, 227713, Note_on_c, 0, 61, 63
2, 227719, Note_on_c, 0, 58, 54
2, 227730, Control_c, 0, 64, 9
2, 227750, Control_c, 0, 64, 35
2, 227769, Control_c, 0, 64, 55
2, 227785, Control_c, 0, 64, 64
2, 227803, Control_c, 0, 64, 67
2, 227823, Control_c, 0, 64, 73
2, 227830, Note_on_c, 0, 83, 0
2, 227842, Control_c, 0, 64, 82
2, 227861, Control_c, 0, 64, 93
2, 227876, Note_on_c, 0, 58, 0
2, 227877, Note_on_c, 0, 61, 0
2, 227880, Control_c, 0, 64, 102
2, 227900, Control_c, 0, 64, 104
2, 227919, Control_c, 0, 64, 104
2, 228054, Control_c, 0, 64, 101
2, 228072, Control_c, 0, 64, 88
2, 228081, Note_on_c, 0, 73, 71
2, 228084, Note_on_c, 0, 65, 62
2, 228085, Note_on_c, 0, 56, 58
2, 228091, Control_c, 0, 64, 69
2, 228111, Control_c, 0, 64, 55
2, 228129, Control_c, 0, 64, 39
2, 228149, Control_c, 0, 64, 50
2, 228168, Control_c, 0, 64, 60
2, 228188, Control_c, 0, 64, 64
2, 228206, Control_c, 0, 64, 68
2, 228226, Control_c, 0, 64, 74
2, 228245, Control_c, 0, 64, 82
2, 228265, Control_c, 0, 64, 89
2, 228283, Control_c, 0, 64, 90
2, 228324, Control_c, 0, 64, 89
2, 228343, Control_c, 0, 64, 88
2, 228362, Control_c, 0, 64, 87
2, 228381, Note_on_c, 0, 65, 0
2, 228382, Control_c, 0, 64, 86
2, 228400, Control_c, 0, 64, 85
2, 228422, Note_on_c, 0, 73, 0
2, 228439, Control_c, 0, 64, 84
2, 228459, Control_c, 0, 64, 82
2, 228474, Note_on_c, 0, 58, 46
2, 228477, Control_c, 0, 64, 75
2, 228483, Note_on_c, 0, 78, 81
2, 228497, Control_c, 0, 64, 62
2, 228516, Control_c, 0, 64, 36
2, 228517, Note_on_c, 0, 66, 53
2, 228535, Control_c, 0, 64, 15
2, 228554, Control_c, 0, 64, 36
2, 228574, Control_c, 0, 64, 54
2, 228579, Note_on_c, 0, 56, 0
2, 228593, Control_c, 0, 64, 62
2, 228611, Control_c, 0, 64, 65
2, 228631, Control_c, 0, 64, 66
2, 228669, Control_c, 0, 64, 66
2, 228708, Control_c, 0, 64, 65
2, 228727, Control_c, 0, 64, 64
2, 228745, Control_c, 0, 64, 58
2, 228763, Control_c, 0, 64, 41
2, 228783, Control_c, 0, 64, 0
2, 228840, Control_c, 0, 64, 15
2, 228860, Control_c, 0, 64, 47
2, 228875, Note_on_c, 0, 68, 61
2, 228879, Control_c, 0, 64, 61
2, 228879, Note_on_c, 0, 59, 52
2, 228898, Control_c, 0, 64, 65
2, 228917, Control_c, 0, 64, 66
2, 228927, Note_on_c, 0, 66, 0
2, 228934, Note_on_c, 0, 58, 0
2, 228937, Control_c, 0, 64, 68
2, 228955, Control_c, 0, 64, 70
2, 228975, Control_c, 0, 64, 74
2, 228994, Control_c, 0, 64, 79
2, 229014, Control_c, 0, 64, 83
2, 229014, Note_on_c, 0, 68, 0
2, 229032, Control_c, 0, 64, 83
2, 229051, Control_c, 0, 64, 83
2, 229109, Control_c, 0, 64, 82
2, 229128, Control_c, 0, 64, 81
2, 229148, Control_c, 0, 64, 79
2, 229166, Control_c, 0, 64, 78
2, 229186, Control_c, 0, 64, 75
2, 229205, Control_c, 0, 64, 72
2, 229225, Control_c, 0, 64, 66
2, 229243, Control_c, 0, 64, 61
2, 229257, Note_on_c, 0, 70, 51
2, 229263, Control_c, 0, 64, 56
2, 229263, Control_c, 0, 67, 8
2, 229263, Note_on_c, 0, 61, 36
2, 229287, Control_c, 0, 64, 53
2, 229287, Control_c, 0, 67, 12
2, 229307, Control_c, 0, 64, 51
2, 229307, Control_c, 0, 67, 15
2, 229321, Note_on_c, 0, 59, 0
2, 229326, Control_c, 0, 64, 50
2, 229326, Control_c, 0, 67, 18
2, 229345, Control_c, 0, 64, 48
2, 229345, Control_c, 0, 67, 22
2, 229364, Control_c, 0, 64, 47
2, 229364, Control_c, 0, 67, 26
2, 229384, Control_c, 0, 64, 46
2, 229384, Control_c, 0, 67, 32
2, 229403, Control_c, 0, 64, 46
2, 229403, Control_c, 0, 67, 39
2, 229422, Control_c, 0, 67, 45
2, 229441, Control_c, 0, 67, 50
2, 229461, Control_c, 0, 67, 54
2, 229479, Control_c, 0, 67, 56
2, 229518, Control_c, 0, 67, 57
2, 229538, Control_c, 0, 67, 56
2, 229576, Control_c, 0, 64, 46
2, 229595, Control_c, 0, 64, 48
2, 229595, Control_c, 0, 67, 56
2, 229615, Control_c, 0, 64, 51
2, 229615, Control_c, 0, 67, 55
2, 229633, Control_c, 0, 64, 54
2, 229653, Control_c, 0, 64, 58
2, 229653, Note_on_c, 0, 71, 51
2, 229672, Control_c, 0, 64, 61
2, 229690, Control_c, 0, 64, 63
2, 229709, Control_c, 0, 64, 65
2, 229728, Control_c, 0, 64, 67
2, 229748, Control_c, 0, 64, 70
2, 229766, Control_c, 0, 64, 74
2, 229766, Control_c, 0, 67, 54
2, 229786, Control_c, 0, 64, 78
2, 229805, Control_c, 0, 64, 81
2, 229809, Note_on_c, 0, 78, 0
2, 229825, Control_c, 0, 64, 82
2, 229825, Control_c, 0, 67, 54
2, 229863, Control_c, 0, 64, 82
2, 229882, Control_c, 0, 64, 81
2, 229882, Control_c, 0, 67, 54
2, 229920, Control_c, 0, 64, 81
2, 229920, Control_c, 0, 67, 55
2, 229940, Control_c, 0, 64, 80
2, 229959, Control_c, 0, 64, 78
2, 229978, Control_c, 0, 64, 77
2, 229997, Control_c, 0, 64, 76
2, 230013, Note_on_c, 0, 71, 0
2, 230017, Control_c, 0, 64, 75
2, 230034, Note_on_c, 0, 49, 31
2, 230035, Control_c, 0, 64, 74
2, 230035, Control_c, 0, 67, 55
2, 230039, Note_on_c, 0, 70, 0
2, 230043, Note_on_c, 0, 77, 48
2, 230055, Control_c, 0, 64, 71
2, 230055, Control_c, 0, 67, 56
2, 230062, Note_on_c, 0, 73, 39
2, 230065, Note_on_c, 0, 61, 0
2, 230074, Control_c, 0, 64, 67
2, 230074, Control_c, 0, 67, 56
2, 230094, Control_c, 0, 64, 63
2, 230112, Control_c, 0, 64, 57
2, 230112, Control_c, 0, 67, 57
2, 230131, Control_c, 0, 64, 49
2, 230151, Control_c, 0, 64, 43
2, 230169, Control_c, 0, 64, 40
2, 230189, Control_c, 0, 64, 41
2, 230208, Control_c, 0, 64, 46
2, 230208, Control_c, 0, 67, 56
2, 230228, Control_c, 0, 64, 56
2, 230228, Control_c, 0, 67, 56
2, 230249, Control_c, 0, 64, 61
2, 230249, Control_c, 0, 67, 55
2, 230269, Control_c, 0, 64, 64
2, 230269, Control_c, 0, 67, 54
2, 230288, Control_c, 0, 64, 66
2, 230288, Control_c, 0, 67, 53
2, 230307, Control_c, 0, 64, 68
2, 230307, Control_c, 0, 67, 52
2, 230326, Control_c, 0, 64, 72
2, 230326, Control_c, 0, 67, 51
2, 230346, Control_c, 0, 64, 76
2, 230346, Control_c, 0, 67, 49
2, 230364, Control_c, 0, 64, 80
2, 230364, Control_c, 0, 67, 48
2, 230384, Control_c, 0, 64, 84
2, 230384, Control_c, 0, 67, 48
2, 230403, Control_c, 0, 64, 86
2, 230403, Control_c, 0, 67, 47
2, 230423, Control_c, 0, 64, 86
2, 230423, Control_c, 0, 67, 46
2, 230443, Note_on_c, 0, 71, 45
2, 230461, Control_c, 0, 67, 45
2, 230471, Note_on_c, 0, 49, 0
2, 230518, Control_c, 0, 64, 86
2, 230557, Control_c, 0, 64, 85
2, 230576, Control_c, 0, 64, 84
2, 230580, Note_on_c, 0, 73, 0
2, 230595, Control_c, 0, 64, 83
2, 230615, Control_c, 0, 64, 82
2, 230634, Control_c, 0, 64, 82
2, 230653, Control_c, 0, 67, 45
2, 230682, Control_c, 0, 64, 81
2, 230702, Control_c, 0, 64, 81
2, 230759, Control_c, 0, 64, 80
2, 230759, Control_c, 0, 67, 44
2, 230771, Note_on_c, 0, 42, 50
2, 230779, Control_c, 0, 64, 77
2, 230798, Control_c, 0, 64, 72
2, 230798, Control_c, 0, 67, 44
2, 230816, Note_on_c, 0, 71, 0
2, 230817, Control_c, 0, 64, 67
2, 230817, Control_c, 0, 67, 43
2, 230836, Control_c, 0, 64, 62
2, 230836, Control_c, 0, 67, 43
2, 230856, Control_c, 0, 64, 58
2, 230858, Note_on_c, 0, 70, 45
2, 230874, Control_c, 0, 64, 56
2, 230874, Control_c, 0, 67, 42
2, 230894, Control_c, 0, 64, 54
2, 230894, Control_c, 0, 67, 42
2, 230913, Control_c, 0, 64, 53
2, 230913, Control_c, 0, 67, 41
2, 230951, Control_c, 0, 64, 55
2, 230951, Control_c, 0, 67, 41
2, 230970, Control_c, 0, 64, 57
2, 230970, Control_c, 0, 67, 40
2, 230990, Control_c, 0, 64, 59
2, 230990, Control_c, 0, 67, 38
2, 231009, Control_c, 0, 64, 61
2, 231009, Control_c, 0, 67, 34
2, 231028, Control_c, 0, 64, 62
2, 231028, Control_c, 0, 67, 29
2, 231047, Control_c, 0, 64, 63
2, 231047, Control_c, 0, 67, 23
2, 231067, Control_c, 0, 64, 63
2, 231067, Control_c, 0, 67, 15
2, 231085, Control_c, 0, 64, 64
2, 231085, Control_c, 0, 67, 0
2, 231105, Control_c, 0, 64, 64
2, 231124, Control_c, 0, 64, 65
2, 231144, Control_c, 0, 64, 65
2, 231162, Control_c, 0, 64, 66
2, 231182, Control_c, 0, 64, 67
2, 231195, Note_on_c, 0, 68, 55
2, 231202, Control_c, 0, 64, 68
2, 231221, Control_c, 0, 64, 69
2, 231227, Note_on_c, 0, 77, 0
2, 231240, Control_c, 0, 64, 71
2, 231260, Control_c, 0, 64, 72
2, 231279, Control_c, 0, 64, 73
2, 231298, Control_c, 0, 64, 73
2, 231301, Note_on_c, 0, 70, 0
2, 231337, Control_c, 0, 64, 74
2, 231355, Control_c, 0, 64, 75
2, 231375, Control_c, 0, 64, 75
2, 231394, Control_c, 0, 64, 76
2, 231509, Control_c, 0, 64, 75
2, 231548, Control_c, 0, 64, 75
2, 231566, Control_c, 0, 64, 74
2, 231586, Control_c, 0, 64, 74
2, 231595, Note_on_c, 0, 54, 66
2, 231605, Control_c, 0, 64, 73
2, 231625, Control_c, 0, 64, 70
2, 231639, Note_on_c, 0, 75, 52
2, 231643, Control_c, 0, 64, 66
2, 231663, Control_c, 0, 64, 59
2, 231668, Note_on_c, 0, 66, 41
2, 231675, Note_on_c, 0, 68, 0
2, 231682, Control_c, 0, 64, 52
2, 231701, Control_c, 0, 64, 49
2, 231720, Control_c, 0, 64, 48
2, 231740, Control_c, 0, 64, 50
2, 231759, Control_c, 0, 64, 53
2, 231778, Control_c, 0, 64, 58
2, 231797, Control_c, 0, 64, 61
2, 231817, Control_c, 0, 64, 62
2, 231835, Control_c, 0, 64, 62
2, 231855, Control_c, 0, 64, 63
2, 231874, Control_c, 0, 64, 64
2, 231894, Control_c, 0, 64, 65
2, 231910, Note_on_c, 0, 66, 0
2, 231912, Control_c, 0, 64, 66
2, 231931, Control_c, 0, 64, 68
2, 231951, Control_c, 0, 64, 70
2, 231969, Control_c, 0, 64, 73
2, 231989, Control_c, 0, 64, 76
2, 232008, Control_c, 0, 64, 77
2, 232027, Note_on_c, 0, 73, 51
2, 232028, Control_c, 0, 64, 78
2, 232044, Note_on_c, 0, 65, 42
2, 232066, Control_c, 0, 64, 79
2, 232085, Control_c, 0, 64, 79
2, 232117, Note_on_c, 0, 65, 0
2, 232126, Note_on_c, 0, 42, 0
2, 232304, Note_on_c, 0, 73, 0
2, 232316, Control_c, 0, 64, 79
2, 232336, Control_c, 0, 64, 78
2, 232355, Control_c, 0, 64, 74
2, 232375, Control_c, 0, 64, 67
2, 232393, Control_c, 0, 64, 60
2, 232397, Note_on_c, 0, 72, 55
2, 232404, Note_on_c, 0, 63, 50
2, 232413, Control_c, 0, 64, 51
2, 232432, Control_c, 0, 64, 47
2, 232450, Control_c, 0, 64, 48
2, 232470, Control_c, 0, 64, 51
2, 232489, Control_c, 0, 64, 58
2, 232509, Control_c, 0, 64, 62
2, 232527, Control_c, 0, 64, 64
2, 232547, Control_c, 0, 64, 66
2, 232566, Control_c, 0, 64, 69
2, 232585, Control_c, 0, 64, 72
2, 232602, Note_on_c, 0, 63, 0
2, 232603, Control_c, 0, 64, 75
2, 232623, Control_c, 0, 64, 78
2, 232642, Control_c, 0, 64, 78
2, 232661, Control_c, 0, 64, 79
2, 232677, Note_on_c, 0, 75, 0
2, 232700, Control_c, 0, 64, 79
2, 232738, Control_c, 0, 64, 78
2, 232754, Note_on_c, 0, 54, 0
2, 232757, Control_c, 0, 64, 75
2, 232760, Note_on_c, 0, 53, 69
2, 232777, Control_c, 0, 64, 66
2, 232779, Note_on_c, 0, 74, 64
2, 232782, Note_on_c, 0, 65, 51
2, 232795, Control_c, 0, 64, 56
2, 232815, Control_c, 0, 64, 39
2, 232834, Control_c, 0, 64, 37
2, 232834, Note_on_c, 0, 72, 0
2, 232854, Control_c, 0, 64, 43
2, 232872, Control_c, 0, 64, 54
2, 232891, Control_c, 0, 64, 61
2, 232911, Control_c, 0, 64, 64
2, 232929, Control_c, 0, 64, 65
2, 232949, Control_c, 0, 64, 67
2, 232953, Note_on_c, 0, 65, 0
2, 232968, Control_c, 0, 64, 67
2, 232988, Control_c, 0, 64, 68
2, 233125, Control_c, 0, 64, 67
2, 233143, Note_on_c, 0, 51, 66
2, 233145, Control_c, 0, 64, 65
2, 233164, Control_c, 0, 64, 58
2, 233167, Note_on_c, 0, 75, 68
2, 233174, Note_on_c, 0, 66, 53
2, 233184, Control_c, 0, 64, 38
2, 233202, Control_c, 0, 64, 25
2, 233222, Control_c, 0, 64, 28
2, 233222, Note_on_c, 0, 53, 0
2, 233225, Note_on_c, 0, 74, 0
2, 233241, Control_c, 0, 64, 46
2, 233260, Control_c, 0, 64, 60
2, 233279, Control_c, 0, 64, 65
2, 233290, Note_on_c, 0, 75, 0
2, 233299, Control_c, 0, 64, 68
2, 233318, Control_c, 0, 64, 73
2, 233337, Control_c, 0, 64, 78
2, 233354, Note_on_c, 0, 66, 0
2, 233356, Control_c, 0, 64, 83
2, 233376, Control_c, 0, 64, 85
2, 233452, Control_c, 0, 64, 84
2, 233471, Control_c, 0, 64, 83
2, 233490, Control_c, 0, 64, 79
2, 233510, Control_c, 0, 64, 70
2, 233515, Note_on_c, 0, 49, 74
2, 233525, Note_on_c, 0, 77, 65
2, 233529, Control_c, 0, 64, 58
2, 233534, Note_on_c, 0, 70, 62
2, 233548, Control_c, 0, 64, 11
2, 233567, Control_c, 0, 64, 0
2, 233579, Note_on_c, 0, 51, 0
2, 233605, Control_c, 0, 64, 35
2, 233625, Control_c, 0, 64, 56
2, 233644, Control_c, 0, 64, 63
2, 233664, Control_c, 0, 64, 66
2, 233664, Note_on_c, 0, 77, 0
2, 233682, Control_c, 0, 64, 67
2, 233702, Control_c, 0, 64, 70
2, 233721, Control_c, 0, 64, 72
2, 233740, Control_c, 0, 64, 74
2, 233824, Note_on_c, 0, 49, 0
2, 233856, Control_c, 0, 64, 74
2, 233874, Control_c, 0, 64, 73
2, 233882, Note_on_c, 0, 70, 0
2, 233894, Control_c, 0, 64, 72
2, 233913, Control_c, 0, 64, 71
2, 233919, Note_on_c, 0, 48, 50
2, 233927, Note_on_c, 0, 78, 80
2, 233932, Control_c, 0, 64, 66
2, 233950, Note_on_c, 0, 75, 53
2, 233951, Control_c, 0, 64, 58
2, 233970, Control_c, 0, 64, 41
2, 233990, Control_c, 0, 64, 32
2, 234028, Control_c, 0, 64, 43
2, 234047, Control_c, 0, 64, 56
2, 234067, Control_c, 0, 64, 62
2, 234086, Control_c, 0, 64, 64
2, 234106, Control_c, 0, 64, 65
2, 234125, Control_c, 0, 64, 66
2, 234145, Control_c, 0, 64, 67
2, 234163, Control_c, 0, 64, 68
2, 234240, Control_c, 0, 64, 67
2, 234260, Control_c, 0, 64, 65
2, 234279, Control_c, 0, 64, 60
2, 234298, Control_c, 0, 64, 46
2, 234312, Note_on_c, 0, 48, 0
2, 234314, Note_on_c, 0, 73, 58
2, 234317, Control_c, 0, 64, 22
2, 234328, Note_on_c, 0, 46, 43
2, 234337, Control_c, 0, 64, 0
2, 234375, Control_c, 0, 64, 24
2, 234394, Control_c, 0, 64, 51
2, 234414, Control_c, 0, 64, 63
2, 234432, Control_c, 0, 64, 69
2, 234451, Control_c, 0, 64, 74
2, 234471, Control_c, 0, 64, 81
2, 234489, Control_c, 0, 64, 87
2, 234505, Control_c, 0, 64, 90
2, 234514, Note_on_c, 0, 46, 0
2, 234529, Note_on_c, 0, 75, 0
2, 234548, Note_on_c, 0, 78, 0
2, 234582, Control_c, 0, 64, 89
2, 234601, Control_c, 0, 64, 88
2, 234621, Control_c, 0, 64, 86
2, 234639, Control_c, 0, 64, 82
2, 234659, Control_c, 0, 64, 76
2, 234678, Control_c, 0, 64, 66
2, 234690, Note_on_c, 0, 45, 44
2, 234691, Note_on_c, 0, 72, 69
2, 234698, Control_c, 0, 64, 52
2, 234700, Note_on_c, 0, 77, 65
2, 234716, Control_c, 0, 64, 39
2, 234736, Control_c, 0, 64, 38
2, 234736, Note_on_c, 0, 73, 0
2, 234755, Control_c, 0, 64, 43
2, 234775, Control_c, 0, 64, 52
2, 234793, Control_c, 0, 64, 59
2, 234812, Control_c, 0, 64, 62
2, 234832, Control_c, 0, 64, 63
2, 234850, Control_c, 0, 64, 63
2, 234870, Control_c, 0, 64, 64
2, 234889, Control_c, 0, 64, 64
2, 234947, Control_c, 0, 64, 64
2, 234964, Control_c, 0, 64, 63
2, 234982, Control_c, 0, 64, 59
2, 235001, Control_c, 0, 64, 48
2, 235021, Control_c, 0, 64, 29
2, 235041, Control_c, 0, 64, 15
2, 235074, Note_on_c, 0, 41, 43
2, 235079, Control_c, 0, 64, 28
2, 235079, Note_on_c, 0, 45, 0
2, 235079, Note_on_c, 0, 75, 55
2, 235099, Control_c, 0, 64, 51
2, 235117, Control_c, 0, 64, 61
2, 235137, Control_c, 0, 64, 64
2, 235271, Control_c, 0, 64, 63
2, 235291, Control_c, 0, 64, 63
2, 235310, Control_c, 0, 64, 61
2, 235329, Control_c, 0, 64, 59
2, 235348, Control_c, 0, 64, 54
2, 235368, Control_c, 0, 64, 46
2, 235387, Control_c, 0, 64, 38
2, 235406, Control_c, 0, 64, 35
2, 235425, Control_c, 0, 64, 34
2, 235462, Note_on_c, 0, 46, 40
2, 235463, Control_c, 0, 64, 41
2, 235468, Note_on_c, 0, 73, 55
2, 235483, Control_c, 0, 64, 54
2, 235502, Control_c, 0, 64, 61
2, 235519, Note_on_c, 0, 75, 0
2, 235521, Control_c, 0, 64, 63
2, 235540, Control_c, 0, 64, 64
2, 235555, Note_on_c, 0, 77, 0
2, 235559, Control_c, 0, 64, 64
2, 235579, Control_c, 0, 64, 65
2, 235656, Control_c, 0, 64, 65
2, 235694, Control_c, 0, 64, 64
2, 235713, Control_c, 0, 64, 63
2, 235732, Control_c, 0, 64, 59
2, 235751, Control_c, 0, 64, 48
2, 235771, Control_c, 0, 64, 17
2, 235790, Control_c, 0, 64, 0
2, 235847, Note_on_c, 0, 46, 0
2, 235857, Note_on_c, 0, 75, 64
2, 235861, Note_on_c, 0, 48, 39
2, 235867, Control_c, 0, 64, 48
2, 235886, Control_c, 0, 64, 62
2, 235905, Control_c, 0, 64, 66
2, 235925, Control_c, 0, 64, 69
2, 235943, Control_c, 0, 64, 73
2, 235947, Note_on_c, 0, 72, 0
2, 235963, Control_c, 0, 64, 78
2, 235982, Control_c, 0, 64, 82
2, 236001, Control_c, 0, 64, 85
2, 236060, Control_c, 0, 64, 84
2, 236098, Control_c, 0, 64, 84
2, 236117, Control_c, 0, 64, 83
2, 236137, Control_c, 0, 64, 82
2, 236155, Control_c, 0, 64, 82
2, 236175, Control_c, 0, 64, 81
2, 236194, Control_c, 0, 64, 79
2, 236195, Note_on_c, 0, 73, 0
2, 236196, Note_on_c, 0, 48, 0
2, 236213, Control_c, 0, 64, 74
2, 236232, Control_c, 0, 64, 68
2, 236233, Note_on_c, 0, 49, 35
2, 236252, Control_c, 0, 64, 63
2, 236261, Note_on_c, 0, 70, 58
2, 236261, Note_on_c, 0, 77, 55
2, 236271, Control_c, 0, 64, 56
2, 236290, Control_c, 0, 64, 49
2, 236309, Control_c, 0, 64, 42
2, 236329, Control_c, 0, 64, 33
2, 236347, Control_c, 0, 64, 24
2, 236367, Control_c, 0, 64, 23
2, 236377, Note_on_c, 0, 75, 0
2, 236406, Control_c, 0, 64, 24
2, 236422, Control_c, 0, 64, 29
2, 236440, Control_c, 0, 64, 34
2, 236460, Control_c, 0, 64, 40
2, 236479, Control_c, 0, 64, 48
2, 236498, Control_c, 0, 64, 55
2, 236517, Control_c, 0, 64, 59
2, 236537, Control_c, 0, 64, 61
2, 236556, Control_c, 0, 64, 63
2, 236575, Control_c, 0, 64, 64
2, 236594, Control_c, 0, 64, 65
2, 236614, Control_c, 0, 64, 67
2, 236632, Control_c, 0, 64, 68
2, 236633, Note_on_c, 0, 51, 44
2, 236652, Control_c, 0, 64, 70
2, 236664, Note_on_c, 0, 77, 0
2, 236671, Control_c, 0, 64, 73
2, 236672, Note_on_c, 0, 78, 52
2, 236678, Note_on_c, 0, 49, 0
2, 236691, Control_c, 0, 64, 74
2, 236709, Control_c, 0, 64, 75
2, 236806, Control_c, 0, 64, 74
2, 236825, Control_c, 0, 64, 74
2, 236863, Control_c, 0, 64, 73
2, 236883, Control_c, 0, 64, 73
2, 236902, Control_c, 0, 64, 72
2, 236920, Control_c, 0, 64, 70
2, 236940, Control_c, 0, 64, 67
2, 236961, Control_c, 0, 64, 64
2, 236980, Control_c, 0, 64, 61
2, 236999, Control_c, 0, 64, 55
2, 237019, Control_c, 0, 64, 48
2, 237024, Note_on_c, 0, 53, 37
2, 237028, Note_on_c, 0, 51, 0
2, 237037, Control_c, 0, 64, 37
2, 237048, Note_on_c, 0, 73, 52
2, 237057, Control_c, 0, 64, 30
2, 237076, Control_c, 0, 64, 28
2, 237090, Note_on_c, 0, 78, 0
2, 237134, Control_c, 0, 64, 29
2, 237153, Control_c, 0, 64, 31
2, 237172, Control_c, 0, 64, 33
2, 237191, Control_c, 0, 64, 37
2, 237211, Control_c, 0, 64, 43
2, 237230, Control_c, 0, 64, 50
2, 237249, Control_c, 0, 64, 55
2, 237268, Control_c, 0, 64, 57
2, 237288, Control_c, 0, 64, 59
2, 237307, Control_c, 0, 64, 62
2, 237326, Control_c, 0, 64, 63
2, 237345, Control_c, 0, 64, 65
2, 237351, Note_on_c, 0, 41, 0
2, 237365, Control_c, 0, 64, 66
2, 237382, Control_c, 0, 64, 68
2, 237395, Note_on_c, 0, 51, 42
2, 237401, Control_c, 0, 64, 70
2, 237405, Note_on_c, 0, 53, 0
2, 237421, Control_c, 0, 64, 72
2, 237440, Control_c, 0, 64, 73
2, 237459, Note_on_c, 0, 70, 0
2, 237613, Control_c, 0, 64, 72
2, 237652, Control_c, 0, 64, 72
2, 237690, Control_c, 0, 64, 71
2, 237709, Control_c, 0, 64, 70
2, 237744, Note_on_c, 0, 53, 39
2, 237747, Control_c, 0, 64, 70
2, 237765, Note_on_c, 0, 51, 0
2, 237773, Note_on_c, 0, 72, 44
2, 237780, Note_on_c, 0, 69, 44
2, 237786, Control_c, 0, 64, 69
2, 237805, Control_c, 0, 64, 68
2, 237824, Control_c, 0, 64, 65
2, 237844, Control_c, 0, 64, 61
2, 237862, Control_c, 0, 64, 50
2, 237881, Control_c, 0, 64, 41
2, 237901, Control_c, 0, 64, 36
2, 237920, Control_c, 0, 64, 35
2, 237939, Control_c, 0, 64, 38
2, 237958, Control_c, 0, 64, 47
2, 237976, Note_on_c, 0, 73, 0
2, 237978, Control_c, 0, 64, 57
2, 237996, Control_c, 0, 64, 62
2, 238016, Control_c, 0, 64, 63
2, 238035, Control_c, 0, 64, 64
2, 238055, Control_c, 0, 64, 65
2, 238073, Control_c, 0, 64, 66
2, 238093, Control_c, 0, 64, 67
2, 238135, Note_on_c, 0, 41, 37
2, 238190, Note_on_c, 0, 72, 0
2, 238208, Note_on_c, 0, 69, 0
2, 238532, Note_on_c, 0, 53, 0
2, 238571, Control_c, 0, 64, 66
2, 238621, Note_on_c, 0, 46, 28
2, 238648, Control_c, 0, 64, 66
2, 238660, Note_on_c, 0, 58, 68
2, 238667, Control_c, 0, 64, 65
2, 238687, Control_c, 0, 64, 64
2, 238688, Note_on_c, 0, 41, 0
2, 238696, Note_on_c, 0, 70, 60
2, 238705, Control_c, 0, 64, 62
2, 238725, Control_c, 0, 64, 52
2, 238744, Control_c, 0, 64, 0
2, 239015, Control_c, 0, 64, 47
2, 239033, Control_c, 0, 64, 62
2, 239053, Control_c, 0, 64, 64
2, 239072, Control_c, 0, 64, 65
2, 239092, Control_c, 0, 64, 68
2, 239096, Note_on_c, 0, 45, 43
2, 239109, Note_on_c, 0, 46, 0
2, 239110, Control_c, 0, 64, 73
2, 239130, Control_c, 0, 64, 83
2, 239149, Control_c, 0, 64, 96
2, 239168, Control_c, 0, 64, 106
2, 239187, Control_c, 0, 64, 114
2, 239195, Note_on_c, 0, 58, 0
2, 239207, Control_c, 0, 64, 127
2, 239497, Note_on_c, 0, 65, 74
2, 239501, Note_on_c, 0, 46, 50
2, 239511, Note_on_c, 0, 70, 0
2, 239610, Control_c, 0, 64, 113
2, 239629, Control_c, 0, 64, 87
2, 239648, Control_c, 0, 64, 70
2, 239665, Note_on_c, 0, 45, 0
2, 239667, Control_c, 0, 64, 61
2, 239687, Control_c, 0, 64, 50
2, 239706, Control_c, 0, 64, 47
2, 239725, Control_c, 0, 64, 48
2, 239744, Control_c, 0, 64, 52
2, 239764, Control_c, 0, 64, 56
2, 239782, Control_c, 0, 64, 60
2, 239801, Control_c, 0, 64, 63
2, 239821, Control_c, 0, 64, 66
2, 239840, Control_c, 0, 64, 69
2, 239859, Control_c, 0, 64, 75
2, 239878, Control_c, 0, 64, 86
2, 239898, Control_c, 0, 64, 96
2, 239916, Control_c, 0, 64, 103
2, 239916, Note_on_c, 0, 48, 49
2, 239934, Note_on_c, 0, 46, 0
2, 239955, Control_c, 0, 64, 103
2, 239975, Control_c, 0, 64, 101
2, 239993, Control_c, 0, 64, 98
2, 240013, Control_c, 0, 64, 88
2, 240032, Control_c, 0, 64, 75
2, 240052, Control_c, 0, 64, 64
2, 240070, Control_c, 0, 64, 57
2, 240090, Control_c, 0, 64, 56
2, 240109, Control_c, 0, 64, 60
2, 240128, Control_c, 0, 64, 64
2, 240147, Control_c, 0, 64, 67
2, 240167, Control_c, 0, 64, 71
2, 240186, Control_c, 0, 64, 78
2, 240205, Control_c, 0, 64, 88
2, 240224, Control_c, 0, 64, 95
2, 240244, Control_c, 0, 64, 100
2, 240262, Control_c, 0, 64, 100
2, 240276, Note_on_c, 0, 49, 48
2, 240281, Control_c, 0, 64, 101
2, 240287, Note_on_c, 0, 70, 69
2, 240301, Control_c, 0, 64, 101
2, 240314, Note_on_c, 0, 48, 0
2, 240320, Control_c, 0, 64, 104
2, 240339, Control_c, 0, 64, 107
2, 240358, Control_c, 0, 64, 110
2, 240378, Control_c, 0, 64, 111
2, 240396, Control_c, 0, 64, 114
2, 240416, Control_c, 0, 64, 127
2, 240550, Control_c, 0, 64, 108
2, 240570, Control_c, 0, 64, 88
2, 240589, Control_c, 0, 64, 75
2, 240608, Control_c, 0, 64, 67
2, 240627, Control_c, 0, 64, 66
2, 240647, Control_c, 0, 64, 69
2, 240658, Note_on_c, 0, 48, 42
2, 240666, Control_c, 0, 64, 76
2, 240685, Control_c, 0, 64, 90
2, 240693, Note_on_c, 0, 66, 67
2, 240704, Control_c, 0, 64, 127
2, 240705, Note_on_c, 0, 49, 0
2, 240741, Note_on_c, 0, 65, 0
2, 240756, Note_on_c, 0, 70, 0
2, 240758, Note_on_c, 0, 66, 0
2, 241012, Control_c, 0, 64, 94
2, 241031, Control_c, 0, 64, 69
2, 241040, Note_on_c, 0, 49, 51
2, 241051, Control_c, 0, 64, 53
2, 241070, Control_c, 0, 64, 25
2, 241074, Note_on_c, 0, 77, 85
2, 241089, Control_c, 0, 64, 36
2, 241103, Note_on_c, 0, 65, 51
2, 241108, Control_c, 0, 64, 54
2, 241128, Control_c, 0, 64, 63
2, 241147, Control_c, 0, 64, 68
2, 241166, Control_c, 0, 64, 80
2, 241184, Note_on_c, 0, 48, 0
2, 241185, Control_c, 0, 64, 98
2, 241200, Note_on_c, 0, 49, 0
2, 241205, Control_c, 0, 64, 127
2, 241433, Control_c, 0, 64, 99
2, 241453, Control_c, 0, 64, 75
2, 241453, Note_on_c, 0, 63, 63
2, 241467, Note_on_c, 0, 51, 50
2, 241472, Control_c, 0, 64, 59
2, 241492, Control_c, 0, 64, 0
2, 241587, Control_c, 0, 64, 55
2, 241607, Control_c, 0, 64, 65
2, 241626, Control_c, 0, 64, 71
2, 241645, Control_c, 0, 64, 81
2, 241664, Control_c, 0, 64, 98
2, 241684, Control_c, 0, 64, 121
2, 241687, Note_on_c, 0, 63, 0
2, 241702, Control_c, 0, 64, 127
2, 241836, Control_c, 0, 64, 121
2, 241850, Note_on_c, 0, 51, 0
2, 241856, Control_c, 0, 64, 87
2, 241865, Note_on_c, 0, 61, 78
2, 241875, Control_c, 0, 64, 68
2, 241880, Note_on_c, 0, 53, 58
2, 241895, Control_c, 0, 64, 48
2, 241913, Control_c, 0, 64, 18
2, 241933, Control_c, 0, 64, 29
2, 241952, Control_c, 0, 64, 50
2, 241972, Control_c, 0, 64, 63
2, 241990, Control_c, 0, 64, 71
2, 242004, Note_on_c, 0, 77, 0
2, 242010, Control_c, 0, 64, 82
2, 242029, Control_c, 0, 64, 100
2, 242048, Control_c, 0, 64, 123
2, 242067, Control_c, 0, 64, 127
2, 242128, Note_on_c, 0, 61, 0
2, 242222, Control_c, 0, 64, 110
2, 242241, Control_c, 0, 64, 88
2, 242257, Note_on_c, 0, 63, 58
2, 242260, Control_c, 0, 64, 68
2, 242260, Note_on_c, 0, 78, 86
2, 242279, Control_c, 0, 64, 55
2, 242290, Note_on_c, 0, 51, 36
2, 242299, Control_c, 0, 64, 44
2, 242317, Control_c, 0, 64, 54
2, 242337, Control_c, 0, 64, 62
2, 242356, Control_c, 0, 64, 67
2, 242367, Note_on_c, 0, 63, 0
2, 242376, Control_c, 0, 64, 75
2, 242394, Control_c, 0, 64, 99
2, 242396, Note_on_c, 0, 53, 0
2, 242414, Control_c, 0, 64, 127
2, 242450, Note_on_c, 0, 51, 0
2, 242495, Note_on_c, 0, 78, 0
2, 242512, Note_on_c, 0, 65, 0
2, 242663, Control_c, 0, 64, 100
2, 242682, Control_c, 0, 64, 79
2, 242682, Note_on_c, 0, 49, 56
2, 242702, Control_c, 0, 64, 65
2, 242709, Note_on_c, 0, 77, 79
2, 242720, Control_c, 0, 64, 36
2, 242725, Note_on_c, 0, 65, 52
2, 242739, Control_c, 0, 64, 0
2, 242816, Control_c, 0, 64, 42
2, 242835, Control_c, 0, 64, 59
2, 242855, Control_c, 0, 64, 64
2, 242873, Control_c, 0, 64, 65
2, 242893, Control_c, 0, 64, 66
2, 242912, Control_c, 0, 64, 67
2, 242932, Control_c, 0, 64, 68
2, 242950, Control_c, 0, 64, 66
2, 242970, Control_c, 0, 64, 63
2, 242989, Control_c, 0, 64, 57
2, 243008, Control_c, 0, 64, 49
2, 243027, Control_c, 0, 64, 48
2, 243047, Control_c, 0, 64, 54
2, 243055, Note_on_c, 0, 51, 52
2, 243057, Note_on_c, 0, 75, 71
2, 243066, Control_c, 0, 64, 61
2, 243085, Control_c, 0, 64, 65
2, 243104, Control_c, 0, 64, 68
2, 243124, Control_c, 0, 64, 73
2, 243142, Control_c, 0, 64, 80
2, 243161, Control_c, 0, 64, 86
2, 243181, Control_c, 0, 64, 88
2, 243213, Note_on_c, 0, 53, 63
2, 243248, Note_on_c, 0, 51, 0
2, 243269, Note_on_c, 0, 53, 0
2, 243292, Note_on_c, 0, 49, 0
2, 243296, Control_c, 0, 64, 88
2, 243315, Control_c, 0, 64, 89
2, 243353, Control_c, 0, 64, 88
2, 243373, Control_c, 0, 64, 82
2, 243392, Control_c, 0, 64, 69
2, 243412, Control_c, 0, 64, 54
2, 243422, Note_on_c, 0, 73, 73
2, 243427, Note_on_c, 0, 58, 47
2, 243428, Note_on_c, 0, 54, 57
2, 243430, Control_c, 0, 64, 0
2, 243488, Control_c, 0, 64, 18
2, 243507, Control_c, 0, 64, 59
2, 243527, Control_c, 0, 64, 66
2, 243533, Note_on_c, 0, 75, 0
2, 243546, Control_c, 0, 64, 71
2, 243558, Note_on_c, 0, 54, 0
2, 243561, Note_on_c, 0, 53, 56
2, 243565, Control_c, 0, 64, 80
2, 243570, Note_on_c, 0, 77, 0
2, 243584, Control_c, 0, 64, 88
2, 243604, Control_c, 0, 64, 88
2, 243622, Control_c, 0, 64, 77
2, 243641, Control_c, 0, 64, 64
2, 243661, Control_c, 0, 64, 51
2, 243680, Control_c, 0, 64, 55
2, 243699, Control_c, 0, 64, 61
2, 243718, Control_c, 0, 64, 65
2, 243738, Control_c, 0, 64, 71
2, 243756, Control_c, 0, 64, 82
2, 243772, Note_on_c, 0, 54, 60
2, 243776, Control_c, 0, 64, 102
2, 243778, Note_on_c, 0, 75, 81
2, 243795, Control_c, 0, 64, 118
2, 243806, Note_on_c, 0, 53, 0
2, 243815, Control_c, 0, 64, 119
2, 243856, Note_on_c, 0, 58, 0
2, 243869, Note_on_c, 0, 54, 0
2, 243892, Control_c, 0, 64, 118
2, 243910, Control_c, 0, 64, 113
2, 243930, Control_c, 0, 64, 111
2, 244007, Control_c, 0, 64, 110
2, 244026, Control_c, 0, 64, 110
2, 244045, Control_c, 0, 64, 109
2, 244064, Control_c, 0, 64, 108
2, 244084, Control_c, 0, 64, 107
2, 244102, Control_c, 0, 64, 104
2, 244120, Control_c, 0, 64, 94
2, 244140, Control_c, 0, 64, 79
2, 244149, Note_on_c, 0, 45, 54
2, 244159, Control_c, 0, 64, 66
2, 244178, Control_c, 0, 64, 49
2, 244194, Note_on_c, 0, 77, 69
2, 244197, Control_c, 0, 64, 46
2, 244217, Control_c, 0, 64, 55
2, 244236, Control_c, 0, 64, 61
2, 244255, Control_c, 0, 64, 64
2, 244274, Control_c, 0, 64, 67
2, 244294, Control_c, 0, 64, 70
2, 244311, Note_on_c, 0, 73, 0
2, 244312, Control_c, 0, 64, 78
2, 244315, Note_on_c, 0, 75, 0
2, 244332, Control_c, 0, 64, 86
2, 244332, Note_on_c, 0, 65, 0
2, 244341, Note_on_c, 0, 77, 0
2, 244351, Control_c, 0, 64, 92
2, 244371, Control_c, 0, 64, 93
2, 244466, Control_c, 0, 64, 93
2, 244505, Control_c, 0, 64, 92
2, 244543, Control_c, 0, 64, 92
2, 244562, Control_c, 0, 64, 91
2, 244582, Control_c, 0, 64, 90
2, 244598, Note_on_c, 0, 63, 65
2, 244600, Control_c, 0, 64, 89
2, 244620, Control_c, 0, 64, 85
2, 244639, Control_c, 0, 64, 76
2, 244658, Control_c, 0, 64, 67
2, 244677, Control_c, 0, 64, 59
2, 244697, Control_c, 0, 64, 51
2, 244716, Control_c, 0, 64, 54
2, 244735, Control_c, 0, 64, 60
2, 244754, Control_c, 0, 64, 64
2, 244774, Control_c, 0, 64, 67
2, 244792, Control_c, 0, 64, 72
2, 244812, Control_c, 0, 64, 79
2, 244831, Control_c, 0, 64, 85
2, 244851, Control_c, 0, 64, 87
2, 244869, Control_c, 0, 64, 86
2, 244889, Control_c, 0, 64, 86
2, 244966, Control_c, 0, 64, 85
2, 245042, Control_c, 0, 64, 84
2, 245061, Control_c, 0, 64, 78
2, 245071, Note_on_c, 0, 45, 0
2, 245079, Control_c, 0, 64, 71
2, 245091, Note_on_c, 0, 46, 45
2, 245099, Control_c, 0, 64, 64
2, 245112, Note_on_c, 0, 70, 49
2, 245118, Control_c, 0, 64, 62
2, 245137, Control_c, 0, 64, 64
2, 245156, Control_c, 0, 64, 65
2, 245176, Control_c, 0, 64, 67
2, 245195, Control_c, 0, 64, 71
2, 245214, Control_c, 0, 64, 77
2, 245233, Control_c, 0, 64, 82
2, 245253, Control_c, 0, 64, 84
2, 245272, Control_c, 0, 64, 83
2, 245276, Note_on_c, 0, 63, 0
2, 245291, Control_c, 0, 64, 82
2, 245310, Control_c, 0, 64, 81
2, 245330, Control_c, 0, 64, 80
2, 245348, Control_c, 0, 64, 79
2, 245368, Control_c, 0, 64, 79
2, 245445, Control_c, 0, 64, 78
2, 245479, Note_on_c, 0, 61, 55
2, 245482, Control_c, 0, 64, 78
2, 245502, Control_c, 0, 64, 77
2, 245521, Control_c, 0, 64, 77
2, 245541, Control_c, 0, 64, 76
2, 245559, Control_c, 0, 64, 76
2, 245599, Control_c, 0, 64, 75
2, 245626, Note_on_c, 0, 61, 0
2, 245657, Control_c, 0, 64, 76
2, 245714, Control_c, 0, 64, 75
2, 245734, Control_c, 0, 64, 75
2, 245752, Control_c, 0, 64, 72
2, 245772, Control_c, 0, 64, 65
2, 245791, Control_c, 0, 64, 55
2, 245811, Control_c, 0, 64, 40
2, 245849, Control_c, 0, 64, 50
2, 245857, Note_on_c, 0, 60, 55
2, 245865, Note_on_c, 0, 48, 49
2, 245868, Control_c, 0, 64, 61
2, 245887, Control_c, 0, 64, 65
2, 245906, Control_c, 0, 64, 69
2, 245926, Control_c, 0, 64, 76
2, 245945, Control_c, 0, 64, 87
2, 245956, Note_on_c, 0, 60, 0
2, 245963, Control_c, 0, 64, 96
2, 245970, Note_on_c, 0, 70, 0
2, 246137, Control_c, 0, 64, 94
2, 246156, Control_c, 0, 64, 87
2, 246175, Control_c, 0, 64, 77
2, 246194, Control_c, 0, 64, 67
2, 246214, Control_c, 0, 64, 62
2, 246232, Control_c, 0, 64, 60
2, 246249, Note_on_c, 0, 75, 82
2, 246252, Control_c, 0, 64, 63
2, 246266, Note_on_c, 0, 46, 0
2, 246271, Control_c, 0, 64, 65
2, 246291, Control_c, 0, 64, 68
2, 246309, Control_c, 0, 64, 71
2, 246323, Note_on_c, 0, 48, 0
2, 246329, Control_c, 0, 64, 74
2, 246348, Control_c, 0, 64, 78
2, 246367, Control_c, 0, 64, 80
2, 246559, Control_c, 0, 64, 79
2, 246578, Control_c, 0, 64, 77
2, 246600, Control_c, 0, 64, 73
2, 246620, Control_c, 0, 64, 67
2, 246627, Note_on_c, 0, 58, 51
2, 246639, Control_c, 0, 64, 62
2, 246644, Note_on_c, 0, 49, 49
2, 246658, Control_c, 0, 64, 55
2, 246677, Control_c, 0, 64, 53
2, 246715, Control_c, 0, 64, 56
2, 246734, Control_c, 0, 64, 60
2, 246754, Control_c, 0, 64, 63
2, 246773, Control_c, 0, 64, 66
2, 246792, Control_c, 0, 64, 68
2, 246811, Control_c, 0, 64, 70
2, 246831, Control_c, 0, 64, 71
2, 246849, Control_c, 0, 64, 72
2, 246888, Control_c, 0, 64, 71
2, 246908, Control_c, 0, 64, 68
2, 246926, Control_c, 0, 64, 63
2, 246946, Control_c, 0, 64, 59
2, 246965, Control_c, 0, 64, 59
2, 246983, Control_c, 0, 64, 60
2, 246989, Note_on_c, 0, 46, 49
2, 246989, Note_on_c, 0, 49, 0
2, 247001, Control_c, 0, 64, 62
2, 247020, Note_on_c, 0, 73, 66
2, 247021, Control_c, 0, 64, 64
2, 247040, Control_c, 0, 64, 65
2, 247060, Control_c, 0, 64, 67
2, 247078, Control_c, 0, 64, 68
2, 247098, Control_c, 0, 64, 69
2, 247117, Control_c, 0, 64, 69
2, 247270, Control_c, 0, 64, 69
2, 247289, Control_c, 0, 64, 67
2, 247309, Control_c, 0, 64, 64
2, 247328, Control_c, 0, 64, 58
2, 247347, Control_c, 0, 64, 47
2, 247358, Note_on_c, 0, 53, 55
2, 247366, Control_c, 0, 64, 39
2, 247378, Note_on_c, 0, 72, 70
2, 247386, Control_c, 0, 64, 43
2, 247404, Control_c, 0, 64, 53
2, 247410, Note_on_c, 0, 46, 0
2, 247424, Control_c, 0, 64, 61
2, 247443, Control_c, 0, 64, 64
2, 247454, Note_on_c, 0, 58, 0
2, 247460, Note_on_c, 0, 75, 0
2, 247463, Control_c, 0, 64, 66
2, 247481, Control_c, 0, 64, 68
2, 247501, Control_c, 0, 64, 71
2, 247521, Control_c, 0, 64, 74
2, 247540, Control_c, 0, 64, 78
2, 247559, Control_c, 0, 64, 81
2, 247635, Note_on_c, 0, 73, 0
2, 247713, Control_c, 0, 64, 80
2, 247726, Note_on_c, 0, 51, 49
2, 247732, Control_c, 0, 64, 76
2, 247751, Control_c, 0, 64, 67
2, 247757, Note_on_c, 0, 68, 74
2, 247764, Note_on_c, 0, 53, 0
2, 247770, Control_c, 0, 64, 58
2, 247790, Control_c, 0, 64, 36
2, 247809, Control_c, 0, 64, 22
2, 247828, Control_c, 0, 64, 28
2, 247847, Control_c, 0, 64, 46
2, 247853, Note_on_c, 0, 72, 0
2, 247867, Control_c, 0, 64, 59
2, 247885, Control_c, 0, 64, 63
2, 247905, Control_c, 0, 64, 65
2, 247924, Control_c, 0, 64, 67
2, 247944, Control_c, 0, 64, 69
2, 247962, Control_c, 0, 64, 70
2, 247982, Control_c, 0, 64, 73
2, 248001, Control_c, 0, 64, 75
2, 248020, Control_c, 0, 64, 75
2, 248039, Control_c, 0, 64, 75
2, 248059, Control_c, 0, 64, 73
2, 248078, Control_c, 0, 64, 68
2, 248097, Control_c, 0, 64, 62
2, 248113, Note_on_c, 0, 51, 0
2, 248116, Control_c, 0, 64, 52
2, 248136, Control_c, 0, 64, 46
2, 248140, Note_on_c, 0, 50, 43
2, 248145, Note_on_c, 0, 70, 58
2, 248173, Control_c, 0, 64, 52
2, 248193, Control_c, 0, 64, 59
2, 248212, Control_c, 0, 64, 63
2, 248231, Control_c, 0, 64, 65
2, 248250, Control_c, 0, 64, 67
2, 248262, Note_on_c, 0, 68, 0
2, 248270, Control_c, 0, 64, 70
2, 248289, Control_c, 0, 64, 72
2, 248308, Control_c, 0, 64, 76
2, 248327, Control_c, 0, 64, 79
2, 248347, Control_c, 0, 64, 79
2, 248385, Control_c, 0, 64, 79
2, 248404, Control_c, 0, 64, 76
2, 248424, Control_c, 0, 64, 71
2, 248442, Control_c, 0, 64, 66
2, 248462, Control_c, 0, 64, 64
2, 248482, Control_c, 0, 64, 65
2, 248501, Control_c, 0, 64, 68
2, 248507, Note_on_c, 0, 50, 0
2, 248516, Note_on_c, 0, 51, 50
2, 248520, Control_c, 0, 64, 70
2, 248531, Note_on_c, 0, 66, 59
2, 248540, Control_c, 0, 64, 74
2, 248559, Control_c, 0, 64, 79
2, 248578, Control_c, 0, 64, 82
2, 248597, Control_c, 0, 64, 84
2, 248617, Control_c, 0, 64, 86
2, 248674, Control_c, 0, 64, 84
2, 248693, Control_c, 0, 64, 78
2, 248712, Control_c, 0, 64, 69
2, 248731, Control_c, 0, 64, 58
2, 248751, Control_c, 0, 64, 49
2, 248769, Control_c, 0, 64, 55
2, 248789, Control_c, 0, 64, 61
2, 248808, Control_c, 0, 64, 64
2, 248828, Control_c, 0, 64, 67
2, 248846, Control_c, 0, 64, 71
2, 248866, Control_c, 0, 64, 77
2, 248885, Control_c, 0, 64, 81
2, 248904, Control_c, 0, 64, 82
2, 248907, Note_on_c, 0, 65, 66
2, 248922, Control_c, 0, 64, 81
2, 248974, Note_on_c, 0, 66, 0
2, 248995, Note_on_c, 0, 70, 0
2, 248999, Control_c, 0, 64, 81
2, 249003, Note_on_c, 0, 65, 0
2, 249191, Control_c, 0, 64, 81
2, 249287, Control_c, 0, 64, 80
2, 249307, Control_c, 0, 64, 77
2, 249325, Control_c, 0, 64, 71
2, 249338, Note_on_c, 0, 50, 29
2, 249345, Control_c, 0, 64, 65
2, 249364, Control_c, 0, 64, 61
2, 249372, Note_on_c, 0, 51, 0
2, 249384, Control_c, 0, 64, 59
2, 249402, Control_c, 0, 64, 60
2, 249413, Note_on_c, 0, 80, 82
2, 249422, Control_c, 0, 64, 63
2, 249442, Control_c, 0, 64, 65
2, 249461, Control_c, 0, 64, 68
2, 249480, Control_c, 0, 64, 72
2, 249500, Control_c, 0, 64, 77
2, 249519, Control_c, 0, 64, 83
2, 249527, Note_on_c, 0, 50, 0
2, 249538, Control_c, 0, 64, 87
2, 249557, Control_c, 0, 64, 88
2, 249634, Control_c, 0, 64, 89
2, 249653, Control_c, 0, 64, 89
2, 249672, Control_c, 0, 64, 90
2, 249711, Control_c, 0, 64, 89
2, 249729, Control_c, 0, 64, 84
2, 249749, Control_c, 0, 64, 75
2, 249768, Control_c, 0, 64, 65
2, 249788, Control_c, 0, 64, 56
2, 249791, Note_on_c, 0, 63, 51
2, 249806, Control_c, 0, 64, 49
2, 249812, Note_on_c, 0, 51, 48
2, 249826, Control_c, 0, 64, 57
2, 249845, Control_c, 0, 64, 62
2, 249865, Control_c, 0, 64, 65
2, 249883, Control_c, 0, 64, 68
2, 249903, Control_c, 0, 64, 73
2, 249922, Control_c, 0, 64, 81
2, 249941, Control_c, 0, 64, 88
2, 249960, Control_c, 0, 64, 90
2, 249999, Control_c, 0, 64, 90
2, 250018, Control_c, 0, 64, 89
2, 250037, Control_c, 0, 64, 86
2, 250057, Control_c, 0, 64, 77
2, 250075, Control_c, 0, 64, 67
2, 250094, Control_c, 0, 64, 54
2, 250114, Control_c, 0, 64, 43
2, 250133, Control_c, 0, 64, 46
2, 250152, Control_c, 0, 64, 56
2, 250165, Note_on_c, 0, 60, 54
2, 250171, Control_c, 0, 64, 62
2, 250172, Note_on_c, 0, 78, 68
2, 250191, Control_c, 0, 64, 65
2, 250209, Control_c, 0, 64, 67
2, 250212, Note_on_c, 0, 63, 0
2, 250229, Control_c, 0, 64, 70
2, 250248, Control_c, 0, 64, 74
2, 250268, Control_c, 0, 64, 78
2, 250286, Control_c, 0, 64, 78
2, 250363, Control_c, 0, 64, 78
2, 250383, Control_c, 0, 64, 77
2, 250404, Control_c, 0, 64, 76
2, 250480, Control_c, 0, 64, 74
2, 250500, Control_c, 0, 64, 69
2, 250519, Control_c, 0, 64, 61
2, 250539, Control_c, 0, 64, 48
2, 250539, Note_on_c, 0, 57, 42
2, 250540, Note_on_c, 0, 60, 0
2, 250557, Control_c, 0, 64, 38
2, 250575, Note_on_c, 0, 77, 57
2, 250577, Control_c, 0, 64, 38
2, 250589, Note_on_c, 0, 51, 0
2, 250596, Control_c, 0, 64, 47
2, 250614, Control_c, 0, 64, 59
2, 250622, Note_on_c, 0, 80, 0
2, 250634, Control_c, 0, 64, 64
2, 250653, Control_c, 0, 64, 67
2, 250673, Control_c, 0, 64, 70
2, 250691, Control_c, 0, 64, 74
2, 250711, Control_c, 0, 64, 77
2, 250730, Control_c, 0, 64, 78
2, 250768, Control_c, 0, 64, 77
2, 250773, Note_on_c, 0, 78, 0
2, 250788, Control_c, 0, 64, 77
2, 250788, Control_c, 0, 67, 8
2, 250807, Control_c, 0, 64, 76
2, 250807, Control_c, 0, 67, 15
2, 250824, Control_c, 0, 64, 75
2, 250824, Control_c, 0, 67, 24
2, 250842, Control_c, 0, 64, 74
2, 250842, Control_c, 0, 67, 34
2, 250862, Control_c, 0, 67, 45
2, 250881, Control_c, 0, 64, 74
2, 250881, Control_c, 0, 67, 56
2, 250900, Control_c, 0, 64, 71
2, 250900, Control_c, 0, 67, 66
2, 250919, Control_c, 0, 64, 64
2, 250919, Control_c, 0, 67, 76
2, 250939, Control_c, 0, 64, 51
2, 250939, Control_c, 0, 67, 85
2, 250958, Control_c, 0, 64, 20
2, 250958, Control_c, 0, 67, 92
2, 250977, Control_c, 0, 64, 0
2, 250977, Control_c, 0, 67, 96
2, 250983, Note_on_c, 0, 61, 47
2, 250990, Note_on_c, 0, 57, 0
2, 250996, Control_c, 0, 64, 19
2, 250996, Control_c, 0, 67, 97
2, 251015, Control_c, 0, 64, 43
2, 251033, Note_on_c, 0, 58, 34
2, 251035, Control_c, 0, 64, 58
2, 251053, Control_c, 0, 64, 63
2, 251073, Control_c, 0, 64, 65
2, 251073, Control_c, 0, 67, 97
2, 251092, Control_c, 0, 64, 65
2, 251092, Control_c, 0, 67, 96
2, 251111, Control_c, 0, 64, 66
2, 251111, Control_c, 0, 67, 96
2, 251130, Control_c, 0, 67, 95
2, 251150, Control_c, 0, 64, 66
2, 251150, Control_c, 0, 67, 95
2, 251169, Control_c, 0, 67, 94
2, 251188, Control_c, 0, 67, 94
2, 251207, Control_c, 0, 67, 93
2, 251245, Control_c, 0, 67, 93
2, 251304, Control_c, 0, 64, 66
2, 251322, Control_c, 0, 64, 65
2, 251342, Control_c, 0, 64, 63
2, 251363, Control_c, 0, 64, 57
2, 251382, Control_c, 0, 64, 48
2, 251382, Control_c, 0, 67, 92
2, 251401, Control_c, 0, 64, 41
2, 251401, Control_c, 0, 67, 92
2, 251404, Note_on_c, 0, 54, 35
2, 251408, Note_on_c, 0, 70, 45
2, 251421, Control_c, 0, 64, 41
2, 251421, Control_c, 0, 67, 91
2, 251440, Control_c, 0, 64, 46
2, 251440, Control_c, 0, 67, 91
2, 251459, Control_c, 0, 64, 55
2, 251478, Control_c, 0, 64, 62
2, 251482, Note_on_c, 0, 58, 0
2, 251498, Control_c, 0, 64, 64
2, 251516, Control_c, 0, 64, 66
2, 251535, Control_c, 0, 64, 68
2, 251549, Note_on_c, 0, 75, 54
2, 251555, Control_c, 0, 64, 69
2, 251574, Control_c, 0, 64, 71
2, 251578, Note_on_c, 0, 77, 0
2, 251593, Control_c, 0, 64, 73
2, 251612, Control_c, 0, 64, 73
2, 251612, Control_c, 0, 67, 90
2, 251632, Control_c, 0, 64, 74
2, 251668, Note_on_c, 0, 70, 0
2, 251689, Control_c, 0, 64, 73
2, 251691, Note_on_c, 0, 54, 0
2, 251694, Note_on_c, 0, 75, 0
2, 251709, Control_c, 0, 64, 70
2, 251721, Note_on_c, 0, 53, 42
2, 251727, Control_c, 0, 64, 65
2, 251733, Note_on_c, 0, 77, 51
2, 251738, Note_on_c, 0, 69, 57
2, 251747, Control_c, 0, 64, 57
2, 251766, Control_c, 0, 64, 49
2, 251766, Control_c, 0, 67, 90
2, 251785, Control_c, 0, 64, 47
2, 251785, Control_c, 0, 67, 89
2, 251803, Control_c, 0, 64, 50
2, 251803, Control_c, 0, 67, 88
2, 251823, Control_c, 0, 64, 56
2, 251823, Control_c, 0, 67, 88
2, 251842, Control_c, 0, 64, 62
2, 251842, Control_c, 0, 67, 87
2, 251861, Control_c, 0, 64, 64
2, 251877, Note_on_c, 0, 77, 0
2, 251880, Control_c, 0, 64, 66
2, 251880, Control_c, 0, 67, 87
2, 251900, Control_c, 0, 64, 67
2, 251903, Note_on_c, 0, 78, 62
2, 251919, Control_c, 0, 64, 68
2, 251919, Control_c, 0, 67, 87
2, 251924, Note_on_c, 0, 69, 0
2, 251938, Control_c, 0, 64, 69
2, 251955, Note_on_c, 0, 61, 0
2, 251995, Control_c, 0, 67, 87
2, 252010, Note_on_c, 0, 78, 0
2, 252034, Control_c, 0, 64, 68
2, 252055, Note_on_c, 0, 53, 0
2, 252072, Control_c, 0, 67, 87
2, 252091, Control_c, 0, 67, 88
2, 252111, Control_c, 0, 67, 89
2, 252116, Note_on_c, 0, 54, 41
2, 252129, Control_c, 0, 64, 68
2, 252129, Control_c, 0, 67, 90
2, 252149, Control_c, 0, 64, 66
2, 252149, Control_c, 0, 67, 90
2, 252167, Note_on_c, 0, 70, 53
2, 252168, Control_c, 0, 64, 63
2, 252188, Control_c, 0, 64, 55
2, 252190, Note_on_c, 0, 75, 57
2, 252206, Control_c, 0, 64, 41
2, 252226, Control_c, 0, 64, 0
2, 252226, Control_c, 0, 67, 90
2, 252303, Control_c, 0, 64, 49
2, 252310, Note_on_c, 0, 75, 0
2, 252322, Control_c, 0, 64, 61
2, 252341, Control_c, 0, 64, 63
2, 252341, Control_c, 0, 67, 89
2, 252350, Note_on_c, 0, 77, 55
2, 252360, Control_c, 0, 64, 64
2, 252380, Control_c, 0, 64, 65
2, 252380, Control_c, 0, 67, 89
2, 252396, Note_on_c, 0, 77, 0
2, 252399, Control_c, 0, 67, 88
2, 252418, Control_c, 0, 67, 87
2, 252424, Note_on_c, 0, 75, 48
2, 252437, Control_c, 0, 67, 87
2, 252469, Note_on_c, 0, 75, 0
2, 252486, Note_on_c, 0, 77, 64
2, 252494, Control_c, 0, 64, 65
2, 252524, Note_on_c, 0, 77, 0
2, 252533, Control_c, 0, 67, 87
2, 252539, Note_on_c, 0, 75, 62
2, 252552, Control_c, 0, 64, 66
2, 252571, Control_c, 0, 64, 67
2, 252591, Control_c, 0, 64, 67
2, 252686, Control_c, 0, 64, 68
2, 252711, Note_on_c, 0, 77, 61
2, 252725, Control_c, 0, 64, 69
2, 252741, Control_c, 0, 64, 70
2, 252741, Control_c, 0, 67, 88
2, 252753, Note_on_c, 0, 75, 0
2, 252760, Control_c, 0, 64, 70
2, 252768, Note_on_c, 0, 54, 0
2, 252779, Control_c, 0, 67, 88
2, 252802, Note_on_c, 0, 70, 0
2, 252815, Note_on_c, 0, 77, 0
2, 252855, Control_c, 0, 64, 70
2, 252894, Control_c, 0, 64, 69
2, 252932, Control_c, 0, 64, 68
2, 252952, Control_c, 0, 64, 67
2, 252964, Note_on_c, 0, 53, 47
2, 252970, Control_c, 0, 64, 64
2, 252970, Note_on_c, 0, 77, 56
2, 252990, Control_c, 0, 64, 60
2, 252990, Control_c, 0, 67, 88
2, 253008, Note_on_c, 0, 69, 37
2, 253009, Control_c, 0, 64, 51
2, 253009, Control_c, 0, 67, 87
2, 253029, Control_c, 0, 64, 34
2, 253047, Control_c, 0, 64, 0
2, 253047, Control_c, 0, 67, 87
2, 253067, Control_c, 0, 67, 86
2, 253105, Control_c, 0, 67, 86
2, 253124, Control_c, 0, 64, 41
2, 253124, Control_c, 0, 67, 85
2, 253144, Control_c, 0, 64, 58
2, 253163, Control_c, 0, 64, 63
2, 253163, Control_c, 0, 67, 84
2, 253182, Control_c, 0, 64, 64
2, 253182, Control_c, 0, 67, 83
2, 253201, Control_c, 0, 64, 66
2, 253201, Control_c, 0, 67, 81
2, 253221, Control_c, 0, 64, 68
2, 253221, Control_c, 0, 67, 78
2, 253240, Control_c, 0, 64, 71
2, 253240, Control_c, 0, 67, 72
2, 253259, Control_c, 0, 64, 77
2, 253259, Control_c, 0, 67, 63
2, 253284, Control_c, 0, 64, 82
2, 253284, Control_c, 0, 67, 54
2, 253288, Note_on_c, 0, 69, 0
2, 253303, Control_c, 0, 64, 84
2, 253303, Control_c, 0, 67, 42
2, 253322, Control_c, 0, 67, 30
2, 253326, Note_on_c, 0, 77, 0
2, 253342, Control_c, 0, 67, 14
2, 253360, Control_c, 0, 64, 85
2, 253360, Control_c, 0, 67, 0
2, 253380, Control_c, 0, 64, 86
2, 253399, Control_c, 0, 64, 87
2, 253494, Control_c, 0, 64, 86
2, 253514, Control_c, 0, 64, 85
2, 253553, Control_c, 0, 64, 85
2, 253610, Control_c, 0, 64, 84
2, 253630, Control_c, 0, 64, 83
2, 253648, Control_c, 0, 64, 82
2, 253668, Control_c, 0, 64, 80
2, 253687, Control_c, 0, 64, 78
2, 253705, Control_c, 0, 64, 77
2, 253723, Control_c, 0, 64, 76
2, 253742, Note_on_c, 0, 82, 86
2, 253743, Control_c, 0, 64, 75
2, 253762, Control_c, 0, 64, 74
2, 253770, Note_on_c, 0, 70, 63
2, 253781, Control_c, 0, 64, 73
2, 253791, Note_on_c, 0, 53, 0
2, 253800, Control_c, 0, 64, 71
2, 253820, Control_c, 0, 64, 70
2, 253839, Control_c, 0, 64, 68
2, 253858, Control_c, 0, 64, 67
2, 253877, Control_c, 0, 64, 65
2, 253896, Control_c, 0, 64, 64
2, 253915, Control_c, 0, 64, 63
2, 253934, Control_c, 0, 64, 62
2, 253954, Control_c, 0, 64, 59
2, 253973, Control_c, 0, 64, 54
2, 253992, Control_c, 0, 64, 45
2, 254011, Control_c, 0, 64, 36
2, 254031, Control_c, 0, 64, 30
2, 254049, Control_c, 0, 64, 28
2, 254108, Control_c, 0, 64, 29
2, 254126, Control_c, 0, 64, 31
2, 254146, Control_c, 0, 64, 35
2, 254165, Control_c, 0, 64, 39
2, 254185, Control_c, 0, 64, 45
2, 254203, Control_c, 0, 64, 51
2, 254223, Control_c, 0, 64, 58
2, 254244, Control_c, 0, 64, 61
2, 254264, Control_c, 0, 64, 63
2, 254283, Control_c, 0, 64, 64
2, 254303, Control_c, 0, 64, 65
2, 254321, Control_c, 0, 64, 66
2, 254341, Control_c, 0, 64, 68
2, 254360, Control_c, 0, 64, 70
2, 254380, Control_c, 0, 64, 72
2, 254398, Control_c, 0, 64, 74
2, 254418, Control_c, 0, 64, 75
2, 254437, Control_c, 0, 64, 76
2, 254455, Control_c, 0, 64, 75
2, 254514, Control_c, 0, 64, 75
2, 254532, Control_c, 0, 64, 74
2, 254552, Control_c, 0, 64, 72
2, 254571, Control_c, 0, 64, 68
2, 254581, Note_on_c, 0, 54, 78
2, 254590, Control_c, 0, 64, 63
2, 254602, Note_on_c, 0, 75, 61
2, 254609, Control_c, 0, 64, 55
2, 254629, Control_c, 0, 64, 47
2, 254648, Control_c, 0, 64, 44
2, 254663, Control_c, 0, 64, 44
2, 254671, Note_on_c, 0, 82, 0
2, 254681, Control_c, 0, 64, 47
2, 254701, Control_c, 0, 64, 54
2, 254720, Control_c, 0, 64, 60
2, 254740, Control_c, 0, 64, 62
2, 254758, Control_c, 0, 64, 63
2, 254778, Control_c, 0, 64, 64
2, 254797, Control_c, 0, 64, 65
2, 254815, Control_c, 0, 64, 66
2, 254827, Note_on_c, 0, 70, 0
2, 254835, Control_c, 0, 64, 66
2, 254874, Control_c, 0, 64, 67
2, 254912, Control_c, 0, 64, 67
2, 254931, Control_c, 0, 64, 68
2, 254950, Control_c, 0, 64, 69
2, 254969, Control_c, 0, 64, 70
2, 254989, Control_c, 0, 64, 71
2, 255008, Control_c, 0, 64, 71
2, 255020, Note_on_c, 0, 83, 75
2, 255120, Note_on_c, 0, 75, 0
2, 255143, Control_c, 0, 64, 72
2, 255224, Note_on_c, 0, 54, 0
2, 255355, Control_c, 0, 64, 71
2, 255374, Control_c, 0, 64, 71
2, 255394, Control_c, 0, 64, 70
2, 255398, Note_on_c, 0, 59, 88
2, 255413, Control_c, 0, 64, 66
2, 255432, Control_c, 0, 64, 60
2, 255440, Note_on_c, 0, 82, 68
2, 255451, Control_c, 0, 64, 50
2, 255471, Control_c, 0, 64, 42
2, 255489, Control_c, 0, 64, 41
2, 255509, Control_c, 0, 64, 41
2, 255528, Control_c, 0, 64, 44
2, 255548, Control_c, 0, 64, 49
2, 255566, Control_c, 0, 64, 53
2, 255586, Control_c, 0, 64, 55
2, 255605, Control_c, 0, 64, 55
2, 255643, Control_c, 0, 64, 55
2, 255740, Control_c, 0, 64, 57
2, 255759, Control_c, 0, 64, 59
2, 255778, Control_c, 0, 64, 61
2, 255789, Note_on_c, 0, 80, 66
2, 255797, Control_c, 0, 64, 63
2, 255813, Note_on_c, 0, 77, 63
2, 255816, Control_c, 0, 64, 65
2, 255835, Control_c, 0, 64, 67
2, 255851, Note_on_c, 0, 83, 0
2, 255854, Control_c, 0, 64, 69
2, 255858, Note_on_c, 0, 82, 0
2, 255874, Control_c, 0, 64, 71
2, 255893, Control_c, 0, 64, 72
2, 255900, Note_on_c, 0, 80, 0
2, 255912, Control_c, 0, 64, 73
2, 255948, Note_on_c, 0, 77, 0
2, 255969, Control_c, 0, 64, 73
2, 256008, Control_c, 0, 64, 74
2, 256028, Control_c, 0, 64, 74
2, 256123, Control_c, 0, 64, 74
2, 256143, Control_c, 0, 64, 72
2, 256162, Control_c, 0, 64, 68
2, 256165, Note_on_c, 0, 79, 78
2, 256181, Control_c, 0, 64, 63
2, 256183, Note_on_c, 0, 75, 58
2, 256200, Control_c, 0, 64, 60
2, 256239, Control_c, 0, 64, 62
2, 256258, Control_c, 0, 64, 63
2, 256277, Control_c, 0, 64, 65
2, 256296, Control_c, 0, 64, 67
2, 256315, Control_c, 0, 64, 68
2, 256334, Control_c, 0, 64, 69
2, 256449, Control_c, 0, 64, 69
2, 256469, Control_c, 0, 64, 68
2, 256488, Control_c, 0, 64, 65
2, 256508, Control_c, 0, 64, 60
2, 256526, Control_c, 0, 64, 53
2, 256546, Control_c, 0, 64, 49
2, 256549, Note_on_c, 0, 61, 52
2, 256549, Note_on_c, 0, 80, 78
2, 256565, Control_c, 0, 64, 48
2, 256585, Control_c, 0, 64, 52
2, 256597, Note_on_c, 0, 59, 0
2, 256604, Control_c, 0, 64, 59
2, 256624, Control_c, 0, 64, 63
2, 256643, Control_c, 0, 64, 64
2, 256662, Control_c, 0, 64, 65
2, 256681, Control_c, 0, 64, 66
2, 256720, Control_c, 0, 64, 65
2, 256796, Control_c, 0, 64, 65
2, 256835, Control_c, 0, 64, 64
2, 256854, Control_c, 0, 64, 61
2, 256873, Control_c, 0, 64, 52
2, 256892, Control_c, 0, 64, 37
2, 256912, Control_c, 0, 64, 0
2, 256918, Note_on_c, 0, 82, 79
2, 256924, Note_on_c, 0, 59, 54
2, 256969, Control_c, 0, 64, 36
2, 256989, Control_c, 0, 64, 57
2, 256998, Note_on_c, 0, 61, 0
2, 257007, Control_c, 0, 64, 63
2, 257020, Note_on_c, 0, 75, 0
2, 257027, Control_c, 0, 64, 64
2, 257032, Note_on_c, 0, 80, 0
2, 257046, Control_c, 0, 64, 65
2, 257200, Control_c, 0, 64, 64
2, 257219, Control_c, 0, 64, 63
2, 257238, Control_c, 0, 64, 58
2, 257258, Control_c, 0, 64, 45
2, 257276, Control_c, 0, 64, 39
2, 257295, Control_c, 0, 64, 39
2, 257299, Note_on_c, 0, 59, 0
2, 257301, Note_on_c, 0, 73, 47
2, 257303, Note_on_c, 0, 58, 44
2, 257315, Control_c, 0, 64, 48
2, 257334, Control_c, 0, 64, 58
2, 257353, Control_c, 0, 64, 63
2, 257372, Control_c, 0, 64, 66
2, 257392, Control_c, 0, 64, 70
2, 257410, Control_c, 0, 64, 76
2, 257430, Control_c, 0, 64, 83
2, 257449, Control_c, 0, 64, 88
2, 257487, Control_c, 0, 64, 87
2, 257514, Note_on_c, 0, 73, 0
2, 257544, Control_c, 0, 64, 87
2, 257547, Note_on_c, 0, 79, 0
2, 257620, Control_c, 0, 64, 86
2, 257639, Control_c, 0, 64, 85
2, 257659, Control_c, 0, 64, 80
2, 257665, Note_on_c, 0, 82, 0
2, 257666, Note_on_c, 0, 75, 72
2, 257678, Control_c, 0, 64, 70
2, 257680, Note_on_c, 0, 56, 47
2, 257685, Note_on_c, 0, 72, 54
2, 257696, Control_c, 0, 64, 61
2, 257713, Note_on_c, 0, 58, 0
2, 257716, Control_c, 0, 64, 43
2, 257735, Control_c, 0, 64, 21
2, 257755, Control_c, 0, 64, 18
2, 257812, Control_c, 0, 64, 19
2, 257831, Control_c, 0, 64, 23
2, 257850, Control_c, 0, 64, 25
2, 257870, Control_c, 0, 64, 27
2, 257889, Control_c, 0, 64, 28
2, 257908, Control_c, 0, 64, 30
2, 257927, Control_c, 0, 64, 34
2, 257947, Control_c, 0, 64, 39
2, 257965, Control_c, 0, 64, 42
2, 257985, Control_c, 0, 64, 45
2, 258004, Control_c, 0, 64, 50
2, 258021, Note_on_c, 0, 56, 0
2, 258024, Control_c, 0, 64, 55
2, 258042, Control_c, 0, 64, 59
2, 258054, Note_on_c, 0, 55, 50
2, 258062, Control_c, 0, 64, 62
2, 258084, Control_c, 0, 64, 63
2, 258103, Control_c, 0, 64, 63
2, 258142, Control_c, 0, 64, 64
2, 258160, Control_c, 0, 64, 64
2, 258219, Control_c, 0, 64, 65
2, 258276, Control_c, 0, 64, 65
2, 258353, Control_c, 0, 64, 65
2, 258371, Control_c, 0, 64, 64
2, 258391, Control_c, 0, 64, 62
2, 258407, Note_on_c, 0, 55, 0
2, 258410, Control_c, 0, 64, 56
2, 258430, Control_c, 0, 64, 43
2, 258445, Note_on_c, 0, 80, 82
2, 258448, Control_c, 0, 64, 22
2, 258454, Note_on_c, 0, 56, 52
2, 258468, Control_c, 0, 64, 0
2, 258484, Note_on_c, 0, 72, 0
2, 258619, Control_c, 0, 64, 18
2, 258638, Control_c, 0, 64, 26
2, 258645, Note_on_c, 0, 75, 0
2, 258656, Control_c, 0, 64, 34
2, 258676, Control_c, 0, 64, 41
2, 258695, Control_c, 0, 64, 46
2, 258715, Control_c, 0, 64, 50
2, 258733, Control_c, 0, 64, 53
2, 258753, Control_c, 0, 64, 56
2, 258772, Control_c, 0, 64, 59
2, 258791, Control_c, 0, 64, 61
2, 258810, Control_c, 0, 64, 63
2, 258830, Control_c, 0, 64, 64
2, 258842, Note_on_c, 0, 58, 46
2, 258844, Note_on_c, 0, 73, 52
2, 258849, Control_c, 0, 64, 66
2, 258868, Control_c, 0, 64, 67
2, 258887, Control_c, 0, 64, 70
2, 258904, Note_on_c, 0, 56, 0
2, 258907, Control_c, 0, 64, 76
2, 258925, Control_c, 0, 64, 80
2, 258945, Control_c, 0, 64, 83
2, 258964, Control_c, 0, 64, 83
2, 259041, Control_c, 0, 64, 84
2, 259079, Control_c, 0, 64, 83
2, 259099, Control_c, 0, 64, 83
2, 259118, Control_c, 0, 64, 82
2, 259136, Control_c, 0, 64, 80
2, 259156, Control_c, 0, 64, 77
2, 259175, Control_c, 0, 64, 71
2, 259195, Control_c, 0, 64, 65
2, 259213, Control_c, 0, 64, 59
2, 259232, Note_on_c, 0, 60, 41
2, 259232, Note_on_c, 0, 75, 70
2, 259233, Control_c, 0, 64, 51
2, 259252, Control_c, 0, 64, 48
2, 259271, Control_c, 0, 64, 47
2, 259290, Note_on_c, 0, 58, 0
2, 259405, Control_c, 0, 64, 47
2, 259444, Control_c, 0, 64, 48
2, 259482, Control_c, 0, 64, 49
2, 259502, Control_c, 0, 64, 50
2, 259521, Control_c, 0, 64, 53
2, 259540, Control_c, 0, 64, 56
2, 259559, Control_c, 0, 64, 59
2, 259579, Control_c, 0, 64, 61
2, 259598, Control_c, 0, 64, 63
2, 259607, Note_on_c, 0, 78, 61
2, 259616, Control_c, 0, 64, 64
2, 259636, Control_c, 0, 64, 66
2, 259655, Control_c, 0, 64, 67
2, 259674, Note_on_c, 0, 73, 0
2, 259675, Control_c, 0, 64, 68
2, 259693, Control_c, 0, 64, 70
2, 259713, Control_c, 0, 64, 71
2, 259732, Control_c, 0, 64, 73
2, 259751, Control_c, 0, 64, 73
2, 259847, Control_c, 0, 64, 73
2, 259885, Control_c, 0, 64, 72
2, 259905, Control_c, 0, 64, 71
2, 259924, Control_c, 0, 64, 70
2, 259944, Control_c, 0, 64, 69
2, 259962, Control_c, 0, 64, 67
2, 259982, Control_c, 0, 64, 64
2, 259985, Note_on_c, 0, 60, 0
2, 260002, Note_on_c, 0, 61, 40
2, 260003, Control_c, 0, 64, 60
2, 260007, Note_on_c, 0, 77, 68
2, 260022, Control_c, 0, 64, 56
2, 260041, Control_c, 0, 64, 51
2, 260061, Control_c, 0, 64, 48
2, 260080, Control_c, 0, 64, 47
2, 260099, Control_c, 0, 64, 46
2, 260122, Note_on_c, 0, 75, 0
2, 260155, Note_on_c, 0, 80, 0
2, 260272, Control_c, 0, 64, 45
2, 260310, Control_c, 0, 64, 45
2, 260349, Control_c, 0, 64, 47
2, 260367, Control_c, 0, 64, 56
2, 260387, Control_c, 0, 64, 61
2, 260387, Control_c, 0, 67, 14
2, 260406, Control_c, 0, 64, 64
2, 260406, Control_c, 0, 67, 23
2, 260426, Control_c, 0, 64, 66
2, 260426, Control_c, 0, 67, 34
2, 260428, Note_on_c, 0, 59, 42
2, 260445, Control_c, 0, 64, 68
2, 260445, Control_c, 0, 67, 43
2, 260465, Control_c, 0, 64, 71
2, 260465, Control_c, 0, 67, 51
2, 260467, Note_on_c, 0, 61, 0
2, 260484, Control_c, 0, 64, 75
2, 260484, Control_c, 0, 67, 57
2, 260503, Control_c, 0, 64, 77
2, 260503, Control_c, 0, 67, 62
2, 260522, Control_c, 0, 67, 65
2, 260542, Control_c, 0, 64, 77
2, 260542, Control_c, 0, 67, 65
2, 260619, Control_c, 0, 64, 76
2, 260637, Control_c, 0, 64, 76
2, 260637, Control_c, 0, 67, 65
2, 260656, Control_c, 0, 64, 75
2, 260676, Control_c, 0, 64, 74
2, 260694, Control_c, 0, 64, 72
2, 260694, Control_c, 0, 67, 64
2, 260714, Control_c, 0, 64, 68
2, 260714, Control_c, 0, 67, 64
2, 260733, Control_c, 0, 64, 62
2, 260733, Control_c, 0, 67, 63
2, 260753, Control_c, 0, 64, 51
2, 260753, Control_c, 0, 67, 63
2, 260771, Control_c, 0, 64, 50
2, 260771, Control_c, 0, 67, 62
2, 260779, Note_on_c, 0, 78, 0
2, 260791, Control_c, 0, 64, 57
2, 260800, Note_on_c, 0, 59, 0
2, 260800, Note_on_c, 0, 73, 41
2, 260810, Control_c, 0, 64, 61
2, 260830, Control_c, 0, 64, 63
2, 260848, Control_c, 0, 64, 64
2, 260849, Note_on_c, 0, 58, 24
2, 260868, Control_c, 0, 64, 64
2, 260887, Control_c, 0, 64, 65
2, 260945, Control_c, 0, 64, 65
2, 260965, Control_c, 0, 64, 64
2, 260984, Control_c, 0, 64, 63
2, 261003, Control_c, 0, 64, 59
2, 261023, Control_c, 0, 64, 50
2, 261041, Control_c, 0, 64, 36
2, 261061, Control_c, 0, 64, 19
2, 261080, Control_c, 0, 64, 17
2, 261080, Control_c, 0, 67, 62
2, 261100, Control_c, 0, 64, 30
2, 261100, Control_c, 0, 67, 61
2, 261118, Control_c, 0, 64, 54
2, 261118, Control_c, 0, 67, 60
2, 261137, Control_c, 0, 64, 64
2, 261137, Control_c, 0, 67, 60
2, 261157, Control_c, 0, 64, 67
2, 261157, Control_c, 0, 67, 59
2, 261175, Control_c, 0, 64, 74
2, 261190, Note_on_c, 0, 56, 46
2, 261195, Control_c, 0, 64, 87
2, 261195, Control_c, 0, 67, 59
2, 261214, Control_c, 0, 64, 115
2, 261234, Control_c, 0, 64, 127
2, 261234, Control_c, 0, 67, 58
2, 261252, Control_c, 0, 67, 58
2, 261260, Note_on_c, 0, 77, 0
2, 261286, Note_on_c, 0, 58, 0
2, 261310, Control_c, 0, 67, 57
2, 261349, Control_c, 0, 67, 57
2, 261356, Note_on_c, 0, 56, 0
2, 261368, Control_c, 0, 64, 119
2, 261384, Control_c, 0, 64, 112
2, 261402, Control_c, 0, 64, 108
2, 261422, Control_c, 0, 64, 107
2, 261441, Control_c, 0, 64, 105
2, 261460, Control_c, 0, 64, 103
2, 261479, Control_c, 0, 64, 98
2, 261499, Control_c, 0, 64, 88
2, 261518, Control_c, 0, 64, 72
2, 261518, Control_c, 0, 67, 56
2, 261519, Note_on_c, 0, 55, 40
2, 261536, Control_c, 0, 64, 60
2, 261556, Control_c, 0, 64, 29
2, 261556, Control_c, 0, 67, 56
2, 261558, Note_on_c, 0, 75, 67
2, 261575, Control_c, 0, 64, 15
2, 261595, Control_c, 0, 64, 24
2, 261595, Control_c, 0, 67, 55
2, 261613, Control_c, 0, 64, 41
2, 261633, Control_c, 0, 64, 54
2, 261633, Control_c, 0, 67, 54
2, 261652, Control_c, 0, 64, 61
2, 261652, Control_c, 0, 67, 54
2, 261671, Control_c, 0, 64, 63
2, 261690, Control_c, 0, 64, 63
2, 261690, Control_c, 0, 67, 53
2, 261710, Control_c, 0, 64, 64
2, 261710, Control_c, 0, 67, 53
2, 261748, Control_c, 0, 67, 52
2, 261767, Control_c, 0, 67, 51
2, 261787, Control_c, 0, 64, 64
2, 261842, Note_on_c, 0, 55, 0
2, 261864, Control_c, 0, 64, 63
2, 261882, Control_c, 0, 64, 61
2, 261902, Control_c, 0, 64, 55
2, 261905, Note_on_c, 0, 51, 46
2, 261922, Control_c, 0, 64, 49
2, 261960, Control_c, 0, 64, 52
2, 261980, Control_c, 0, 64, 56
2, 261999, Control_c, 0, 64, 61
2, 262017, Control_c, 0, 64, 64
2, 262037, Control_c, 0, 64, 67
2, 262056, Control_c, 0, 64, 70
2, 262056, Control_c, 0, 67, 52
2, 262075, Control_c, 0, 64, 76
2, 262094, Control_c, 0, 64, 82
2, 262114, Control_c, 0, 64, 83
2, 262133, Control_c, 0, 64, 83
2, 262150, Note_on_c, 0, 73, 0
2, 262152, Control_c, 0, 64, 82
2, 262171, Control_c, 0, 64, 81
2, 262171, Control_c, 0, 67, 51
2, 262191, Control_c, 0, 64, 81
2, 262209, Control_c, 0, 64, 80
2, 262229, Control_c, 0, 64, 79
2, 262248, Control_c, 0, 64, 78
2, 262248, Control_c, 0, 67, 52
2, 262268, Control_c, 0, 64, 78
2, 262268, Control_c, 0, 67, 53
2, 262283, Note_on_c, 0, 56, 45
2, 262306, Control_c, 0, 64, 77
2, 262320, Note_on_c, 0, 72, 56
2, 262325, Control_c, 0, 64, 76
2, 262342, Control_c, 0, 64, 72
2, 262360, Control_c, 0, 64, 68
2, 262366, Note_on_c, 0, 51, 0
2, 262380, Control_c, 0, 64, 65
2, 262399, Control_c, 0, 64, 61
2, 262419, Control_c, 0, 64, 55
2, 262437, Control_c, 0, 64, 46
2, 262456, Control_c, 0, 64, 39
2, 262476, Control_c, 0, 64, 36
2, 262533, Control_c, 0, 64, 37
2, 262533, Control_c, 0, 67, 52
2, 262553, Control_c, 0, 64, 40
2, 262553, Control_c, 0, 67, 51
2, 262571, Control_c, 0, 64, 43
2, 262571, Control_c, 0, 67, 51
2, 262591, Control_c, 0, 64, 46
2, 262591, Control_c, 0, 67, 50
2, 262610, Control_c, 0, 64, 50
2, 262610, Control_c, 0, 67, 49
2, 262630, Control_c, 0, 64, 55
2, 262630, Control_c, 0, 67, 48
2, 262648, Control_c, 0, 64, 59
2, 262648, Control_c, 0, 67, 44
2, 262656, Note_on_c, 0, 75, 0
2, 262668, Control_c, 0, 64, 62
2, 262668, Control_c, 0, 67, 39
2, 262679, Note_on_c, 0, 58, 46
2, 262687, Control_c, 0, 64, 64
2, 262687, Control_c, 0, 67, 34
2, 262706, Control_c, 0, 64, 65
2, 262706, Control_c, 0, 67, 31
2, 262725, Control_c, 0, 64, 66
2, 262725, Control_c, 0, 67, 28
2, 262745, Control_c, 0, 64, 67
2, 262745, Control_c, 0, 67, 24
2, 262764, Control_c, 0, 64, 69
2, 262764, Control_c, 0, 67, 21
2, 262783, Control_c, 0, 64, 71
2, 262783, Control_c, 0, 67, 18
2, 262787, Note_on_c, 0, 56, 0
2, 262802, Control_c, 0, 64, 73
2, 262802, Control_c, 0, 67, 16
2, 262822, Control_c, 0, 64, 74
2, 262822, Control_c, 0, 67, 14
2, 262840, Control_c, 0, 67, 12
2, 262860, Control_c, 0, 67, 12
2, 262883, Control_c, 0, 67, 11
2, 262902, Control_c, 0, 67, 11
2, 262960, Control_c, 0, 67, 10
2, 262998, Control_c, 0, 64, 73
2, 262998, Control_c, 0, 67, 10
2, 263036, Control_c, 0, 64, 73
2, 263055, Control_c, 0, 64, 72
2, 263075, Control_c, 0, 64, 70
2, 263075, Control_c, 0, 67, 9
2, 263094, Control_c, 0, 64, 67
2, 263094, Note_on_c, 0, 80, 70
2, 263097, Note_on_c, 0, 56, 43
2, 263113, Control_c, 0, 64, 63
2, 263113, Control_c, 0, 67, 8
2, 263132, Control_c, 0, 64, 58
2, 263132, Control_c, 0, 67, 0
2, 263152, Control_c, 0, 64, 54
2, 263170, Control_c, 0, 64, 53
2, 263181, Note_on_c, 0, 58, 0
2, 263190, Control_c, 0, 64, 53
2, 263209, Control_c, 0, 64, 55
2, 263229, Control_c, 0, 64, 57
2, 263247, Control_c, 0, 64, 60
2, 263267, Control_c, 0, 64, 62
2, 263286, Control_c, 0, 64, 63
2, 263300, Control_c, 0, 64, 64
2, 263319, Control_c, 0, 64, 66
2, 263337, Control_c, 0, 64, 67
2, 263357, Control_c, 0, 64, 69
2, 263376, Control_c, 0, 64, 72
2, 263395, Control_c, 0, 64, 75
2, 263414, Control_c, 0, 64, 78
2, 263434, Control_c, 0, 64, 81
2, 263453, Control_c, 0, 64, 83
2, 263455, Note_on_c, 0, 54, 49
2, 263472, Control_c, 0, 64, 85
2, 263491, Control_c, 0, 64, 86
2, 263511, Control_c, 0, 64, 88
2, 263517, Note_on_c, 0, 72, 0
2, 263525, Note_on_c, 0, 56, 0
2, 263529, Control_c, 0, 64, 89
2, 263549, Control_c, 0, 64, 89
2, 263568, Control_c, 0, 64, 90
2, 263741, Control_c, 0, 64, 89
2, 263760, Control_c, 0, 64, 89
2, 263799, Control_c, 0, 64, 88
2, 263817, Control_c, 0, 64, 88
2, 263840, Control_c, 0, 64, 87
2, 263860, Control_c, 0, 64, 86
2, 263875, Note_on_c, 0, 53, 44
2, 263878, Control_c, 0, 64, 84
2, 263897, Control_c, 0, 64, 79
2, 263908, Note_on_c, 0, 68, 74
2, 263917, Control_c, 0, 64, 70
2, 263918, Note_on_c, 0, 54, 0
2, 263935, Control_c, 0, 64, 61
2, 263955, Control_c, 0, 64, 45
2, 263974, Control_c, 0, 64, 39
2, 263994, Control_c, 0, 64, 39
2, 264012, Control_c, 0, 64, 44
2, 264032, Control_c, 0, 64, 51
2, 264051, Control_c, 0, 64, 57
2, 264056, Note_on_c, 0, 80, 0
2, 264070, Control_c, 0, 64, 61
2, 264089, Control_c, 0, 64, 62
2, 264109, Control_c, 0, 64, 63
2, 264128, Control_c, 0, 64, 64
2, 264147, Control_c, 0, 64, 64
2, 264166, Control_c, 0, 64, 65
2, 264186, Control_c, 0, 64, 66
2, 264224, Control_c, 0, 64, 66
2, 264262, Control_c, 0, 64, 67
2, 264280, Control_c, 0, 64, 67
2, 264300, Control_c, 0, 64, 69
2, 264316, Note_on_c, 0, 82, 52
2, 264319, Control_c, 0, 64, 71
2, 264320, Note_on_c, 0, 53, 0
2, 264339, Control_c, 0, 64, 73
2, 264347, Note_on_c, 0, 54, 40
2, 264357, Control_c, 0, 64, 76
2, 264376, Control_c, 0, 64, 78
2, 264396, Control_c, 0, 64, 79
2, 264414, Control_c, 0, 64, 79
2, 264453, Control_c, 0, 64, 80
2, 264496, Note_on_c, 0, 82, 0
2, 264510, Note_on_c, 0, 54, 0
2, 264588, Control_c, 0, 64, 79
2, 264607, Control_c, 0, 64, 78
2, 264626, Control_c, 0, 64, 74
2, 264645, Control_c, 0, 64, 67
2, 264662, Note_on_c, 0, 53, 39
2, 264665, Control_c, 0, 64, 61
2, 264682, Note_on_c, 0, 73, 69
2, 264684, Control_c, 0, 64, 55
2, 264701, Note_on_c, 0, 80, 57
2, 264722, Control_c, 0, 64, 58
2, 264742, Control_c, 0, 64, 60
2, 264760, Control_c, 0, 64, 62
2, 264780, Control_c, 0, 64, 64
2, 264801, Control_c, 0, 64, 65
2, 264820, Control_c, 0, 64, 66
2, 264858, Control_c, 0, 64, 66
2, 264916, Control_c, 0, 64, 66
2, 264935, Control_c, 0, 64, 65
2, 264955, Control_c, 0, 64, 62
2, 264973, Control_c, 0, 64, 57
2, 264993, Control_c, 0, 64, 51
2, 265012, Control_c, 0, 64, 49
2, 265014, Note_on_c, 0, 53, 0
2, 265031, Control_c, 0, 64, 50
2, 265050, Control_c, 0, 64, 55
2, 265070, Control_c, 0, 64, 60
2, 265071, Note_on_c, 0, 78, 55
2, 265081, Note_on_c, 0, 51, 37
2, 265089, Control_c, 0, 64, 63
2, 265108, Control_c, 0, 64, 66
2, 265127, Control_c, 0, 64, 69
2, 265147, Control_c, 0, 64, 72
2, 265152, Note_on_c, 0, 80, 0
2, 265165, Control_c, 0, 64, 77
2, 265185, Control_c, 0, 64, 82
2, 265204, Control_c, 0, 64, 86
2, 265224, Control_c, 0, 64, 88
2, 265233, Note_on_c, 0, 78, 0
2, 265242, Control_c, 0, 64, 89
2, 265415, Control_c, 0, 64, 86
2, 265435, Control_c, 0, 64, 80
2, 265453, Control_c, 0, 64, 70
2, 265473, Control_c, 0, 64, 61
2, 265478, Note_on_c, 0, 49, 43
2, 265485, Note_on_c, 0, 51, 0
2, 265492, Control_c, 0, 64, 52
2, 265494, Note_on_c, 0, 77, 52
2, 265511, Control_c, 0, 64, 51
2, 265530, Control_c, 0, 64, 53
2, 265550, Control_c, 0, 64, 59
2, 265569, Control_c, 0, 64, 63
2, 265571, Note_on_c, 0, 73, 0
2, 265588, Control_c, 0, 64, 66
2, 265607, Control_c, 0, 64, 69
2, 265627, Control_c, 0, 64, 74
2, 265645, Control_c, 0, 64, 81
2, 265665, Control_c, 0, 64, 84
2, 265749, Note_on_c, 0, 68, 0
2, 265762, Control_c, 0, 64, 84
2, 265781, Control_c, 0, 64, 82
2, 265800, Control_c, 0, 64, 76
2, 265820, Control_c, 0, 64, 67
2, 265839, Control_c, 0, 64, 57
2, 265854, Note_on_c, 0, 75, 62
2, 265857, Control_c, 0, 64, 42
2, 265873, Note_on_c, 0, 59, 53
2, 265877, Control_c, 0, 64, 43
2, 265892, Note_on_c, 0, 78, 51
2, 265896, Control_c, 0, 64, 52
2, 265913, Note_on_c, 0, 49, 0
2, 265915, Control_c, 0, 64, 60
2, 265934, Control_c, 0, 64, 64
2, 265934, Note_on_c, 0, 77, 0
2, 265954, Control_c, 0, 64, 66
2, 265973, Control_c, 0, 64, 68
2, 265992, Control_c, 0, 64, 71
2, 266011, Control_c, 0, 64, 74
2, 266031, Control_c, 0, 64, 77
2, 266050, Control_c, 0, 64, 78
2, 266069, Control_c, 0, 64, 78
2, 266108, Control_c, 0, 64, 79
2, 266144, Note_on_c, 0, 78, 0
2, 266202, Control_c, 0, 64, 78
2, 266222, Control_c, 0, 64, 75
2, 266241, Control_c, 0, 64, 68
2, 266253, Note_on_c, 0, 73, 59
2, 266257, Note_on_c, 0, 58, 53
2, 266260, Control_c, 0, 64, 60
2, 266279, Control_c, 0, 64, 54
2, 266282, Note_on_c, 0, 80, 58
2, 266298, Control_c, 0, 64, 58
2, 266315, Note_on_c, 0, 75, 0
2, 266318, Control_c, 0, 64, 62
2, 266336, Control_c, 0, 64, 66
2, 266341, Note_on_c, 0, 59, 0
2, 266356, Control_c, 0, 64, 70
2, 266375, Control_c, 0, 64, 78
2, 266395, Control_c, 0, 64, 91
2, 266413, Control_c, 0, 64, 105
2, 266433, Control_c, 0, 64, 110
2, 266485, Note_on_c, 0, 73, 0
2, 266529, Control_c, 0, 64, 108
2, 266548, Control_c, 0, 64, 100
2, 266567, Control_c, 0, 64, 84
2, 266587, Control_c, 0, 64, 70
2, 266605, Control_c, 0, 64, 59
2, 266625, Control_c, 0, 64, 55
2, 266626, Note_on_c, 0, 71, 59
2, 266638, Note_on_c, 0, 56, 49
2, 266644, Control_c, 0, 64, 59
2, 266664, Control_c, 0, 64, 62
2, 266665, Note_on_c, 0, 58, 0
2, 266682, Control_c, 0, 64, 65
2, 266702, Control_c, 0, 64, 68
2, 266721, Control_c, 0, 64, 72
2, 266740, Control_c, 0, 64, 77
2, 266759, Control_c, 0, 64, 80
2, 266778, Control_c, 0, 64, 80
2, 266932, Control_c, 0, 64, 80
2, 266951, Control_c, 0, 64, 78
2, 266970, Control_c, 0, 64, 73
2, 266990, Control_c, 0, 64, 64
2, 266995, Note_on_c, 0, 56, 0
2, 267007, Note_on_c, 0, 54, 43
2, 267009, Control_c, 0, 64, 47
2, 267010, Note_on_c, 0, 70, 65
2, 267010, Note_on_c, 0, 73, 56
2, 267022, Note_on_c, 0, 71, 0
2, 267028, Control_c, 0, 64, 0
2, 267047, Control_c, 0, 64, 27
2, 267067, Control_c, 0, 64, 50
2, 267085, Control_c, 0, 64, 61
2, 267102, Note_on_c, 0, 80, 0
2, 267105, Control_c, 0, 64, 64
2, 267124, Control_c, 0, 64, 66
2, 267143, Control_c, 0, 64, 69
2, 267161, Control_c, 0, 64, 73
2, 267181, Control_c, 0, 64, 77
2, 267200, Control_c, 0, 64, 81
2, 267220, Control_c, 0, 64, 81
2, 267257, Control_c, 0, 64, 80
2, 267277, Control_c, 0, 64, 76
2, 267295, Control_c, 0, 64, 66
2, 267315, Control_c, 0, 64, 55
2, 267334, Control_c, 0, 64, 48
2, 267354, Control_c, 0, 64, 54
2, 267372, Control_c, 0, 64, 60
2, 267382, Note_on_c, 0, 56, 56
2, 267389, Note_on_c, 0, 71, 69
2, 267392, Control_c, 0, 64, 64
2, 267411, Control_c, 0, 64, 66
2, 267420, Note_on_c, 0, 54, 0
2, 267430, Control_c, 0, 64, 71
2, 267449, Control_c, 0, 64, 77
2, 267458, Note_on_c, 0, 73, 0
2, 267469, Control_c, 0, 64, 81
2, 267488, Control_c, 0, 64, 83
2, 267565, Control_c, 0, 64, 84
2, 267584, Control_c, 0, 64, 85
2, 267603, Control_c, 0, 64, 86
2, 267623, Control_c, 0, 64, 87
2, 267661, Control_c, 0, 64, 87
2, 267682, Control_c, 0, 64, 87
2, 267701, Control_c, 0, 64, 84
2, 267720, Control_c, 0, 64, 80
2, 267740, Control_c, 0, 64, 74
2, 267759, Control_c, 0, 64, 66
2, 267777, Control_c, 0, 64, 51
2, 267781, Note_on_c, 0, 54, 43
2, 267786, Note_on_c, 0, 73, 68
2, 267790, Note_on_c, 0, 56, 0
2, 267797, Control_c, 0, 64, 0
2, 267805, Note_on_c, 0, 78, 55
2, 267820, Note_on_c, 0, 70, 0
2, 268028, Control_c, 0, 64, 26
2, 268046, Control_c, 0, 64, 53
2, 268066, Control_c, 0, 64, 63
2, 268085, Control_c, 0, 64, 64
2, 268104, Control_c, 0, 64, 65
2, 268130, Note_on_c, 0, 54, 0
2, 268142, Control_c, 0, 64, 65
2, 268161, Control_c, 0, 64, 68
2, 268180, Control_c, 0, 64, 74
2, 268198, Note_on_c, 0, 52, 55
2, 268199, Control_c, 0, 64, 86
2, 268218, Control_c, 0, 64, 99
2, 268238, Control_c, 0, 64, 106
2, 268256, Control_c, 0, 64, 119
2, 268276, Control_c, 0, 64, 127
2, 268353, Control_c, 0, 64, 106
2, 268372, Control_c, 0, 64, 106
2, 268391, Control_c, 0, 64, 106
2, 268430, Control_c, 0, 64, 106
2, 268449, Control_c, 0, 64, 104
2, 268468, Control_c, 0, 64, 102
2, 268507, Control_c, 0, 64, 102
2, 268525, Control_c, 0, 64, 99
2, 268545, Control_c, 0, 64, 89
2, 268564, Control_c, 0, 64, 77
2, 268581, Note_on_c, 0, 52, 0
2, 268584, Control_c, 0, 64, 66
2, 268585, Note_on_c, 0, 51, 42
2, 268602, Control_c, 0, 64, 58
2, 268603, Note_on_c, 0, 66, 65
2, 268605, Note_on_c, 0, 78, 0
2, 268622, Control_c, 0, 64, 47
2, 268635, Note_on_c, 0, 71, 0
2, 268641, Control_c, 0, 64, 36
2, 268660, Control_c, 0, 64, 31
2, 268679, Control_c, 0, 64, 31
2, 268775, Control_c, 0, 64, 32
2, 268795, Control_c, 0, 64, 36
2, 268813, Control_c, 0, 64, 39
2, 268833, Control_c, 0, 64, 40
2, 268852, Control_c, 0, 64, 42
2, 268871, Control_c, 0, 64, 43
2, 268890, Control_c, 0, 64, 45
2, 268910, Control_c, 0, 64, 48
2, 268929, Control_c, 0, 64, 52
2, 268948, Control_c, 0, 64, 57
2, 268967, Control_c, 0, 64, 61
2, 268982, Note_on_c, 0, 49, 44
2, 268987, Control_c, 0, 64, 63
2, 268990, Note_on_c, 0, 51, 0
2, 269005, Control_c, 0, 64, 66
2, 269006, Note_on_c, 0, 76, 49
2, 269025, Control_c, 0, 64, 70
2, 269044, Control_c, 0, 64, 77
2, 269063, Control_c, 0, 64, 90
2, 269081, Control_c, 0, 64, 121
2, 269101, Control_c, 0, 64, 127
2, 269265, Note_on_c, 0, 49, 0
2, 269328, Note_on_c, 0, 76, 0
2, 269331, Control_c, 0, 64, 90
2, 269350, Control_c, 0, 64, 72
2, 269367, Note_on_c, 0, 66, 0
2, 269369, Control_c, 0, 64, 61
2, 269389, Control_c, 0, 64, 58
2, 269392, Note_on_c, 0, 47, 44
2, 269392, Note_on_c, 0, 71, 67
2, 269408, Control_c, 0, 64, 62
2, 269412, Note_on_c, 0, 75, 56
2, 269427, Control_c, 0, 64, 64
2, 269446, Control_c, 0, 64, 68
2, 269466, Control_c, 0, 64, 75
2, 269482, Note_on_c, 0, 73, 0
2, 269485, Control_c, 0, 64, 90
2, 269504, Control_c, 0, 64, 109
2, 269523, Control_c, 0, 64, 127
2, 269735, Control_c, 0, 64, 106
2, 269739, Note_on_c, 0, 47, 0
2, 269755, Control_c, 0, 64, 83
2, 269773, Control_c, 0, 64, 69
2, 269773, Note_on_c, 0, 44, 40
2, 269786, Note_on_c, 0, 80, 51
2, 269793, Control_c, 0, 64, 63
2, 269831, Control_c, 0, 64, 66
2, 269850, Control_c, 0, 64, 70
2, 269870, Control_c, 0, 64, 79
2, 269889, Control_c, 0, 64, 94
2, 269908, Control_c, 0, 64, 127
2, 269995, Note_on_c, 0, 71, 0
2, 270159, Control_c, 0, 64, 112
2, 270167, Note_on_c, 0, 46, 46
2, 270177, Control_c, 0, 64, 84
2, 270178, Note_on_c, 0, 44, 0
2, 270183, Note_on_c, 0, 73, 56
2, 270194, Control_c, 0, 64, 70
2, 270198, Note_on_c, 0, 80, 0
2, 270214, Control_c, 0, 64, 66
2, 270232, Control_c, 0, 64, 67
2, 270252, Control_c, 0, 64, 69
2, 270271, Control_c, 0, 64, 73
2, 270291, Control_c, 0, 64, 81
2, 270309, Control_c, 0, 64, 92
2, 270329, Control_c, 0, 64, 99
2, 270348, Control_c, 0, 64, 102
2, 270367, Control_c, 0, 64, 103
2, 270425, Control_c, 0, 64, 104
2, 270443, Control_c, 0, 64, 107
2, 270463, Control_c, 0, 64, 111
2, 270482, Control_c, 0, 64, 113
2, 270502, Control_c, 0, 64, 112
2, 270520, Control_c, 0, 64, 105
2, 270540, Control_c, 0, 64, 91
2, 270559, Control_c, 0, 64, 77
2, 270562, Note_on_c, 0, 75, 0
2, 270564, Note_on_c, 0, 70, 58
2, 270578, Control_c, 0, 64, 67
2, 270580, Note_on_c, 0, 42, 36
2, 270592, Note_on_c, 0, 46, 0
2, 270597, Control_c, 0, 64, 63
2, 270609, Note_on_c, 0, 78, 48
2, 270617, Control_c, 0, 64, 64
2, 270636, Control_c, 0, 64, 66
2, 270655, Control_c, 0, 64, 69
2, 270674, Control_c, 0, 64, 76
2, 270694, Control_c, 0, 64, 89
2, 270712, Control_c, 0, 64, 103
2, 270732, Control_c, 0, 64, 114
2, 270791, Note_on_c, 0, 70, 0
2, 270885, Control_c, 0, 64, 112
2, 270905, Control_c, 0, 64, 103
2, 270923, Control_c, 0, 64, 90
2, 270943, Control_c, 0, 64, 79
2, 270962, Control_c, 0, 64, 71
2, 270972, Note_on_c, 0, 42, 0
2, 270981, Control_c, 0, 64, 68
2, 270982, Note_on_c, 0, 49, 44
2, 270984, Note_on_c, 0, 68, 54
2, 270999, Control_c, 0, 64, 68
2, 271019, Control_c, 0, 64, 71
2, 271038, Control_c, 0, 64, 74
2, 271057, Control_c, 0, 64, 80
2, 271076, Control_c, 0, 64, 86
2, 271096, Control_c, 0, 64, 90
2, 271115, Control_c, 0, 64, 90
2, 271153, Control_c, 0, 64, 91
2, 271192, Control_c, 0, 64, 90
2, 271211, Control_c, 0, 64, 86
2, 271230, Control_c, 0, 64, 78
2, 271250, Control_c, 0, 64, 70
2, 271268, Control_c, 0, 64, 64
2, 271287, Control_c, 0, 64, 60
2, 271307, Control_c, 0, 64, 59
2, 271326, Control_c, 0, 64, 61
2, 271345, Control_c, 0, 64, 62
2, 271364, Control_c, 0, 64, 64
2, 271374, Note_on_c, 0, 77, 48
2, 271376, Note_on_c, 0, 37, 40
2, 271384, Control_c, 0, 64, 65
2, 271402, Control_c, 0, 64, 66
2, 271422, Control_c, 0, 64, 67
2, 271438, Note_on_c, 0, 49, 0
2, 271441, Control_c, 0, 64, 68
2, 271455, Note_on_c, 0, 78, 0
2, 271461, Control_c, 0, 64, 69
2, 271479, Control_c, 0, 64, 70
2, 271499, Control_c, 0, 64, 73
2, 271507, Note_on_c, 0, 68, 0
2, 271514, Control_c, 0, 64, 77
2, 271534, Control_c, 0, 64, 81
2, 271552, Control_c, 0, 64, 86
2, 271568, Note_on_c, 0, 73, 0
2, 271572, Control_c, 0, 64, 90
2, 271591, Control_c, 0, 64, 92
2, 271611, Control_c, 0, 64, 93
2, 271629, Control_c, 0, 64, 94
2, 271648, Control_c, 0, 64, 95
2, 271650, Note_on_c, 0, 77, 0
2, 271668, Control_c, 0, 64, 97
2, 271687, Control_c, 0, 64, 100
2, 271706, Control_c, 0, 64, 102
2, 271725, Control_c, 0, 64, 103
2, 271763, Control_c, 0, 64, 104
2, 271783, Control_c, 0, 64, 104
2, 271834, Note_on_c, 0, 42, 44
2, 271917, Control_c, 0, 64, 101
2, 271919, Note_on_c, 0, 78, 71
2, 271934, Control_c, 0, 64, 94
2, 271953, Control_c, 0, 64, 83
2, 271960, Note_on_c, 0, 66, 41
2, 271972, Control_c, 0, 64, 71
2, 271991, Control_c, 0, 64, 64
2, 272011, Control_c, 0, 64, 58
2, 272011, Note_on_c, 0, 37, 0
2, 272048, Control_c, 0, 64, 61
2, 272068, Control_c, 0, 64, 63
2, 272087, Control_c, 0, 64, 66
2, 272107, Control_c, 0, 64, 70
2, 272125, Control_c, 0, 64, 78
2, 272145, Control_c, 0, 64, 91
2, 272164, Control_c, 0, 64, 112
2, 272183, Control_c, 0, 64, 127
2, 272217, Note_on_c, 0, 66, 0
2, 272330, Note_on_c, 0, 42, 0
2, 272340, Note_on_c, 0, 44, 42
2, 272347, Note_on_c, 0, 78, 0
2, 272367, Note_on_c, 0, 65, 48
2, 272690, Control_c, 0, 64, 101
2, 272693, Note_on_c, 0, 65, 0
2, 272708, Control_c, 0, 64, 79
2, 272727, Control_c, 0, 64, 65
2, 272733, Note_on_c, 0, 73, 56
2, 272745, Note_on_c, 0, 44, 0
2, 272745, Note_on_c, 0, 46, 28
2, 272747, Control_c, 0, 64, 53
2, 272757, Note_on_c, 0, 66, 39
2, 272766, Control_c, 0, 64, 47
2, 272785, Control_c, 0, 64, 55
2, 272804, Control_c, 0, 64, 62
2, 272824, Control_c, 0, 64, 65
2, 272842, Control_c, 0, 64, 69
2, 272862, Control_c, 0, 64, 75
2, 272881, Control_c, 0, 64, 84
2, 272901, Control_c, 0, 64, 92
2, 272919, Control_c, 0, 64, 95
2, 272958, Control_c, 0, 64, 92
2, 272977, Control_c, 0, 64, 83
2, 272996, Control_c, 0, 64, 72
2, 273016, Control_c, 0, 64, 65
2, 273035, Control_c, 0, 64, 62
2, 273054, Control_c, 0, 64, 64
2, 273073, Control_c, 0, 64, 66
2, 273095, Control_c, 0, 64, 70
2, 273113, Note_on_c, 0, 44, 33
2, 273115, Control_c, 0, 64, 78
2, 273115, Note_on_c, 0, 46, 0
2, 273123, Note_on_c, 0, 68, 50
2, 273133, Control_c, 0, 64, 88
2, 273153, Control_c, 0, 64, 96
2, 273172, Control_c, 0, 64, 100
2, 273289, Note_on_c, 0, 66, 0
2, 273402, Control_c, 0, 64, 99
2, 273422, Control_c, 0, 64, 95
2, 273440, Control_c, 0, 64, 85
2, 273459, Control_c, 0, 64, 72
2, 273478, Control_c, 0, 64, 62
2, 273497, Control_c, 0, 64, 52
2, 273501, Note_on_c, 0, 44, 0
2, 273506, Note_on_c, 0, 70, 49
2, 273517, Control_c, 0, 64, 49
2, 273523, Note_on_c, 0, 42, 37
2, 273535, Control_c, 0, 64, 51
2, 273555, Control_c, 0, 64, 58
2, 273574, Control_c, 0, 64, 63
2, 273594, Control_c, 0, 64, 67
2, 273612, Control_c, 0, 64, 72
2, 273632, Control_c, 0, 64, 82
2, 273647, Note_on_c, 0, 68, 0
2, 273651, Control_c, 0, 64, 95
2, 273670, Control_c, 0, 64, 104
2, 273689, Control_c, 0, 64, 105
2, 273691, Note_on_c, 0, 70, 0
2, 273728, Control_c, 0, 64, 106
2, 273747, Control_c, 0, 64, 107
2, 273766, Control_c, 0, 64, 108
2, 273805, Control_c, 0, 64, 108
2, 273824, Control_c, 0, 64, 101
2, 273843, Control_c, 0, 64, 87
2, 273859, Control_c, 0, 64, 73
2, 273879, Control_c, 0, 64, 64
2, 273880, Note_on_c, 0, 42, 0
2, 273880, Note_on_c, 0, 73, 0
2, 273890, Note_on_c, 0, 54, 38
2, 273895, Note_on_c, 0, 71, 53
2, 273897, Control_c, 0, 64, 59
2, 273917, Control_c, 0, 64, 61
2, 273922, Note_on_c, 0, 68, 34
2, 273936, Control_c, 0, 64, 64
2, 273955, Control_c, 0, 64, 67
2, 273974, Control_c, 0, 64, 73
2, 273994, Control_c, 0, 64, 82
2, 274013, Control_c, 0, 64, 96
2, 274032, Control_c, 0, 64, 110
2, 274051, Control_c, 0, 64, 111
2, 274109, Control_c, 0, 64, 112
2, 274166, Control_c, 0, 64, 107
2, 274186, Control_c, 0, 64, 107
2, 274225, Control_c, 0, 64, 107
2, 274240, Note_on_c, 0, 70, 57
2, 274243, Control_c, 0, 64, 108
2, 274245, Note_on_c, 0, 53, 53
2, 274246, Note_on_c, 0, 73, 48
2, 274255, Note_on_c, 0, 54, 0
2, 274263, Control_c, 0, 64, 108
2, 274285, Note_on_c, 0, 71, 0
2, 274315, Note_on_c, 0, 73, 0
2, 274316, Note_on_c, 0, 68, 0
2, 274316, Note_on_c, 0, 70, 0
2, 274359, Control_c, 0, 64, 107
2, 274377, Control_c, 0, 64, 107
2, 274591, Control_c, 0, 64, 105
2, 274610, Control_c, 0, 64, 97
2, 274629, Note_on_c, 0, 53, 0
2, 274630, Control_c, 0, 64, 84
2, 274639, Note_on_c, 0, 51, 56
2, 274645, Note_on_c, 0, 75, 60
2, 274646, Note_on_c, 0, 72, 57
2, 274648, Control_c, 0, 64, 72
2, 274668, Control_c, 0, 64, 65
2, 274687, Control_c, 0, 64, 63
2, 274706, Control_c, 0, 64, 64
2, 274725, Control_c, 0, 64, 66
2, 274745, Control_c, 0, 64, 69
2, 274764, Control_c, 0, 64, 74
2, 274783, Control_c, 0, 64, 81
2, 274802, Control_c, 0, 64, 88
2, 274823, Control_c, 0, 64, 91
2, 274841, Control_c, 0, 64, 91
2, 274860, Control_c, 0, 64, 90
2, 274880, Control_c, 0, 64, 89
2, 274899, Control_c, 0, 64, 89
2, 274918, Control_c, 0, 64, 88
2, 274937, Control_c, 0, 64, 87
2, 274957, Control_c, 0, 64, 85
2, 274975, Control_c, 0, 64, 84
2, 274995, Control_c, 0, 64, 84
2, 275014, Control_c, 0, 64, 83
2, 275034, Control_c, 0, 64, 80
2, 275052, Control_c, 0, 64, 74
2, 275055, Note_on_c, 0, 49, 64
2, 275063, Note_on_c, 0, 77, 58
2, 275072, Control_c, 0, 64, 67
2, 275076, Note_on_c, 0, 73, 52
2, 275090, Note_on_c, 0, 72, 0
2, 275091, Control_c, 0, 64, 61
2, 275098, Note_on_c, 0, 51, 0
2, 275110, Control_c, 0, 64, 52
2, 275129, Control_c, 0, 64, 46
2, 275149, Note_on_c, 0, 75, 0
2, 275187, Control_c, 0, 64, 47
2, 275206, Control_c, 0, 64, 49
2, 275226, Control_c, 0, 64, 50
2, 275245, Control_c, 0, 64, 52
2, 275264, Control_c, 0, 64, 53
2, 275283, Control_c, 0, 64, 55
2, 275303, Control_c, 0, 64, 56
2, 275321, Control_c, 0, 64, 57
2, 275340, Control_c, 0, 64, 58
2, 275361, Control_c, 0, 64, 59
2, 275379, Control_c, 0, 64, 61
2, 275399, Control_c, 0, 64, 62
2, 275418, Control_c, 0, 64, 63
2, 275438, Control_c, 0, 64, 64
2, 275456, Control_c, 0, 64, 65
2, 275465, Note_on_c, 0, 75, 56
2, 275472, Note_on_c, 0, 71, 47
2, 275476, Control_c, 0, 64, 67
2, 275495, Control_c, 0, 64, 69
2, 275503, Note_on_c, 0, 73, 0
2, 275515, Control_c, 0, 64, 73
2, 275533, Control_c, 0, 64, 78
2, 275553, Control_c, 0, 64, 84
2, 275572, Control_c, 0, 64, 87
2, 275707, Control_c, 0, 64, 86
2, 275745, Control_c, 0, 64, 86
2, 275764, Control_c, 0, 64, 85
2, 275782, Control_c, 0, 64, 83
2, 275800, Control_c, 0, 64, 82
2, 275819, Control_c, 0, 64, 80
2, 275839, Control_c, 0, 64, 78
2, 275850, Note_on_c, 0, 54, 65
2, 275858, Control_c, 0, 64, 75
2, 275877, Control_c, 0, 64, 71
2, 275896, Control_c, 0, 64, 66
2, 275911, Note_on_c, 0, 77, 0
2, 275916, Control_c, 0, 64, 62
2, 275935, Control_c, 0, 64, 56
2, 275938, Note_on_c, 0, 73, 48
2, 275954, Control_c, 0, 64, 53
2, 275962, Note_on_c, 0, 71, 0
2, 275973, Control_c, 0, 64, 52
2, 275993, Control_c, 0, 64, 53
2, 276011, Control_c, 0, 64, 54
2, 276031, Control_c, 0, 64, 55
2, 276050, Control_c, 0, 64, 57
2, 276069, Note_on_c, 0, 75, 0
2, 276070, Control_c, 0, 64, 58
2, 276088, Control_c, 0, 64, 60
2, 276108, Control_c, 0, 64, 61
2, 276127, Control_c, 0, 64, 62
2, 276146, Control_c, 0, 64, 63
2, 276165, Control_c, 0, 64, 65
2, 276185, Control_c, 0, 64, 66
2, 276204, Control_c, 0, 64, 68
2, 276223, Control_c, 0, 64, 70
2, 276242, Control_c, 0, 64, 75
2, 276262, Control_c, 0, 64, 80
2, 276264, Note_on_c, 0, 70, 58
2, 276280, Control_c, 0, 64, 85
2, 276296, Note_on_c, 0, 73, 0
2, 276299, Control_c, 0, 64, 88
2, 276320, Control_c, 0, 64, 89
2, 276390, Note_on_c, 0, 70, 0
2, 276397, Control_c, 0, 64, 89
2, 276451, Note_on_c, 0, 49, 0
2, 276474, Control_c, 0, 64, 90
2, 276550, Control_c, 0, 64, 89
2, 276627, Control_c, 0, 64, 89
2, 276646, Control_c, 0, 64, 87
2, 276647, Note_on_c, 0, 80, 69
2, 276666, Control_c, 0, 64, 82
2, 276682, Note_on_c, 0, 71, 54
2, 276685, Control_c, 0, 64, 74
2, 276704, Control_c, 0, 64, 67
2, 276723, Control_c, 0, 64, 60
2, 276739, Control_c, 0, 64, 54
2, 276777, Control_c, 0, 64, 57
2, 276797, Control_c, 0, 64, 62
2, 276816, Control_c, 0, 64, 64
2, 276835, Control_c, 0, 64, 66
2, 276854, Control_c, 0, 64, 68
2, 276874, Control_c, 0, 64, 72
2, 276893, Control_c, 0, 64, 78
2, 276912, Control_c, 0, 64, 86
2, 276931, Control_c, 0, 64, 94
2, 276951, Control_c, 0, 64, 97
2, 276970, Control_c, 0, 64, 98
2, 277008, Control_c, 0, 64, 98
2, 277014, Note_on_c, 0, 80, 0
2, 277028, Control_c, 0, 64, 100
2, 277040, Note_on_c, 0, 71, 0
2, 277046, Control_c, 0, 64, 102
2, 277066, Control_c, 0, 64, 107
2, 277068, Note_on_c, 0, 70, 52
2, 277085, Control_c, 0, 64, 112
2, 277105, Control_c, 0, 64, 114
2, 277149, Note_on_c, 0, 70, 0
2, 277239, Control_c, 0, 64, 113
2, 277299, Control_c, 0, 64, 112
2, 277318, Control_c, 0, 64, 110
2, 277337, Control_c, 0, 64, 109
2, 277357, Control_c, 0, 64, 107
2, 277375, Control_c, 0, 64, 106
2, 277395, Control_c, 0, 64, 104
2, 277414, Control_c, 0, 64, 102
2, 277434, Control_c, 0, 64, 101
2, 277436, Note_on_c, 0, 54, 0
2, 277446, Note_on_c, 0, 53, 55
2, 277452, Control_c, 0, 64, 100
2, 277453, Note_on_c, 0, 73, 45
2, 277472, Control_c, 0, 64, 99
2, 277478, Note_on_c, 0, 68, 30
2, 277491, Control_c, 0, 64, 97
2, 277510, Control_c, 0, 64, 92
2, 277529, Control_c, 0, 64, 83
2, 277549, Control_c, 0, 64, 73
2, 277568, Control_c, 0, 64, 64
2, 277587, Control_c, 0, 64, 55
2, 277606, Control_c, 0, 64, 45
2, 277626, Control_c, 0, 64, 44
2, 277645, Control_c, 0, 64, 45
2, 277664, Control_c, 0, 64, 49
2, 277675, Note_on_c, 0, 68, 0
2, 277683, Control_c, 0, 64, 54
2, 277700, Control_c, 0, 64, 58
2, 277720, Control_c, 0, 64, 61
2, 277738, Control_c, 0, 64, 63
2, 277758, Control_c, 0, 64, 64
2, 277777, Control_c, 0, 64, 65
2, 277796, Control_c, 0, 64, 66
2, 277815, Control_c, 0, 64, 69
2, 277835, Control_c, 0, 64, 72
2, 277836, Note_on_c, 0, 71, 46
2, 277854, Control_c, 0, 64, 77
2, 277873, Control_c, 0, 64, 82
2, 277892, Control_c, 0, 64, 85
2, 277912, Control_c, 0, 64, 86
2, 277978, Note_on_c, 0, 71, 0
2, 278007, Control_c, 0, 64, 86
2, 278065, Control_c, 0, 64, 86
2, 278084, Control_c, 0, 64, 85
2, 278104, Control_c, 0, 64, 84
2, 278123, Control_c, 0, 64, 83
2, 278142, Control_c, 0, 64, 79
2, 278161, Control_c, 0, 64, 71
2, 278180, Control_c, 0, 64, 65
2, 278185, Note_on_c, 0, 53, 0
2, 278200, Control_c, 0, 64, 61
2, 278206, Note_on_c, 0, 73, 0
2, 278211, Note_on_c, 0, 54, 53
2, 278218, Control_c, 0, 64, 59
2, 278239, Control_c, 0, 64, 61
2, 278247, Note_on_c, 0, 70, 52
2, 278258, Control_c, 0, 64, 63
2, 278277, Control_c, 0, 64, 64
2, 278296, Control_c, 0, 64, 65
2, 278316, Control_c, 0, 64, 66
2, 278335, Control_c, 0, 64, 67
2, 278450, Control_c, 0, 64, 66
2, 278470, Control_c, 0, 64, 65
2, 278488, Control_c, 0, 64, 63
2, 278508, Control_c, 0, 64, 63
2, 278546, Control_c, 0, 64, 64
2, 278565, Control_c, 0, 64, 65
2, 278583, Note_on_c, 0, 53, 56
2, 278585, Control_c, 0, 64, 67
2, 278590, Note_on_c, 0, 54, 0
2, 278599, Note_on_c, 0, 75, 64
2, 278604, Control_c, 0, 64, 68
2, 278623, Control_c, 0, 64, 70
2, 278642, Control_c, 0, 64, 71
2, 278660, Control_c, 0, 64, 71
2, 278775, Control_c, 0, 64, 71
2, 278890, Control_c, 0, 64, 70
2, 278910, Control_c, 0, 64, 69
2, 278932, Control_c, 0, 64, 67
2, 278951, Control_c, 0, 64, 65
2, 278970, Control_c, 0, 64, 61
2, 278977, Note_on_c, 0, 51, 47
2, 278982, Note_on_c, 0, 53, 0
2, 278989, Control_c, 0, 64, 55
2, 278998, Note_on_c, 0, 77, 68
2, 279009, Control_c, 0, 64, 46
2, 279027, Control_c, 0, 64, 41
2, 279047, Control_c, 0, 64, 40
2, 279083, Note_on_c, 0, 75, 0
2, 279258, Control_c, 0, 64, 40
2, 279278, Control_c, 0, 64, 41
2, 279297, Control_c, 0, 64, 42
2, 279316, Control_c, 0, 64, 44
2, 279335, Control_c, 0, 64, 47
2, 279355, Control_c, 0, 64, 50
2, 279363, Note_on_c, 0, 51, 0
2, 279367, Note_on_c, 0, 50, 61
2, 279373, Control_c, 0, 64, 54
2, 279392, Control_c, 0, 64, 58
2, 279412, Control_c, 0, 64, 61
2, 279431, Control_c, 0, 64, 62
2, 279450, Control_c, 0, 64, 63
2, 279469, Control_c, 0, 64, 64
2, 279489, Control_c, 0, 64, 66
2, 279507, Control_c, 0, 64, 67
2, 279527, Control_c, 0, 64, 70
2, 279546, Control_c, 0, 64, 72
2, 279566, Control_c, 0, 64, 73
2, 279584, Control_c, 0, 64, 73
2, 279719, Control_c, 0, 64, 72
2, 279738, Control_c, 0, 64, 71
2, 279758, Control_c, 0, 64, 67
2, 279758, Note_on_c, 0, 50, 0
2, 279768, Note_on_c, 0, 51, 51
2, 279777, Control_c, 0, 64, 63
2, 279788, Note_on_c, 0, 78, 74
2, 279796, Control_c, 0, 64, 59
2, 279815, Control_c, 0, 64, 54
2, 279835, Control_c, 0, 64, 50
2, 279853, Control_c, 0, 64, 50
2, 279861, Note_on_c, 0, 77, 0
2, 279969, Control_c, 0, 64, 50
2, 279987, Control_c, 0, 64, 51
2, 280007, Control_c, 0, 64, 52
2, 280026, Control_c, 0, 64, 53
2, 280046, Control_c, 0, 64, 54
2, 280064, Control_c, 0, 64, 56
2, 280084, Control_c, 0, 64, 58
2, 280103, Control_c, 0, 64, 59
2, 280123, Control_c, 0, 64, 61
2, 280141, Control_c, 0, 64, 62
2, 280162, Control_c, 0, 64, 63
2, 280181, Control_c, 0, 64, 64
2, 280182, Note_on_c, 0, 72, 60
2, 280200, Control_c, 0, 64, 65
2, 280219, Control_c, 0, 64, 67
2, 280232, Note_on_c, 0, 70, 0
2, 280239, Control_c, 0, 64, 69
2, 280258, Control_c, 0, 64, 73
2, 280277, Control_c, 0, 64, 76
2, 280296, Control_c, 0, 64, 78
2, 280316, Control_c, 0, 64, 79
2, 280450, Control_c, 0, 64, 79
2, 280468, Control_c, 0, 64, 78
2, 280488, Control_c, 0, 64, 76
2, 280507, Control_c, 0, 64, 71
2, 280527, Control_c, 0, 64, 65
2, 280545, Control_c, 0, 64, 60
2, 280548, Note_on_c, 0, 46, 52
2, 280550, Note_on_c, 0, 51, 0
2, 280565, Control_c, 0, 64, 56
2, 280565, Note_on_c, 0, 73, 53
2, 280584, Control_c, 0, 64, 55
2, 280603, Control_c, 0, 64, 58
2, 280622, Control_c, 0, 64, 61
2, 280642, Control_c, 0, 64, 63
2, 280661, Control_c, 0, 64, 64
2, 280680, Control_c, 0, 64, 65
2, 280757, Control_c, 0, 64, 65
2, 280776, Control_c, 0, 64, 63
2, 280796, Control_c, 0, 64, 61
2, 280814, Control_c, 0, 64, 59
2, 280820, Note_on_c, 0, 72, 0
2, 280834, Control_c, 0, 64, 56
2, 280853, Control_c, 0, 64, 55
2, 280872, Control_c, 0, 64, 56
2, 280891, Control_c, 0, 64, 59
2, 280910, Control_c, 0, 64, 63
2, 280928, Note_on_c, 0, 48, 58
2, 280930, Control_c, 0, 64, 64
2, 280948, Control_c, 0, 64, 66
2, 280954, Note_on_c, 0, 78, 0
2, 280968, Control_c, 0, 64, 68
2, 280973, Note_on_c, 0, 75, 56
2, 280987, Control_c, 0, 64, 69
2, 281007, Control_c, 0, 64, 71
2, 281025, Control_c, 0, 64, 72
2, 281045, Control_c, 0, 64, 74
2, 281046, Note_on_c, 0, 46, 0
2, 281064, Control_c, 0, 64, 74
2, 281176, Control_c, 0, 64, 74
2, 281196, Control_c, 0, 64, 73
2, 281215, Control_c, 0, 64, 72
2, 281234, Control_c, 0, 64, 69
2, 281253, Control_c, 0, 64, 65
2, 281272, Control_c, 0, 64, 61
2, 281292, Control_c, 0, 64, 56
2, 281310, Control_c, 0, 64, 52
2, 281317, Note_on_c, 0, 48, 0
2, 281330, Control_c, 0, 64, 50
2, 281332, Note_on_c, 0, 49, 58
2, 281357, Note_on_c, 0, 68, 59
2, 281464, Control_c, 0, 64, 51
2, 281470, Note_on_c, 0, 75, 0
2, 281484, Control_c, 0, 64, 51
2, 281522, Control_c, 0, 64, 52
2, 281541, Control_c, 0, 64, 54
2, 281561, Control_c, 0, 64, 55
2, 281579, Control_c, 0, 64, 57
2, 281599, Control_c, 0, 64, 58
2, 281618, Control_c, 0, 64, 59
2, 281638, Control_c, 0, 64, 59
2, 281656, Control_c, 0, 64, 60
2, 281676, Control_c, 0, 64, 62
2, 281695, Control_c, 0, 64, 63
2, 281714, Control_c, 0, 64, 64
2, 281733, Control_c, 0, 64, 66
2, 281752, Control_c, 0, 64, 67
2, 281761, Note_on_c, 0, 77, 36
2, 281772, Control_c, 0, 64, 68
2, 281790, Control_c, 0, 64, 70
2, 281810, Control_c, 0, 64, 73
2, 281829, Control_c, 0, 64, 77
2, 281848, Control_c, 0, 64, 80
2, 281867, Control_c, 0, 64, 83
2, 281875, Note_on_c, 0, 73, 0
2, 281964, Control_c, 0, 64, 82
2, 281983, Control_c, 0, 64, 82
2, 282002, Control_c, 0, 64, 81
2, 282021, Control_c, 0, 64, 81
2, 282041, Control_c, 0, 64, 80
2, 282059, Control_c, 0, 64, 78
2, 282082, Control_c, 0, 64, 77
2, 282101, Control_c, 0, 64, 75
2, 282103, Note_on_c, 0, 42, 46
2, 282117, Control_c, 0, 64, 73
2, 282121, Note_on_c, 0, 70, 58
2, 282136, Control_c, 0, 64, 71
2, 282144, Note_on_c, 0, 75, 52
2, 282156, Control_c, 0, 64, 69
2, 282175, Control_c, 0, 64, 67
2, 282194, Control_c, 0, 64, 65
2, 282213, Control_c, 0, 64, 62
2, 282218, Note_on_c, 0, 49, 0
2, 282233, Control_c, 0, 64, 59
2, 282251, Control_c, 0, 64, 58
2, 282271, Control_c, 0, 64, 57
2, 282310, Control_c, 0, 64, 58
2, 282328, Control_c, 0, 64, 59
2, 282348, Control_c, 0, 64, 60
2, 282353, Note_on_c, 0, 77, 0
2, 282367, Control_c, 0, 64, 61
2, 282386, Control_c, 0, 64, 62
2, 282405, Control_c, 0, 64, 63
2, 282425, Control_c, 0, 64, 64
2, 282444, Control_c, 0, 64, 65
2, 282463, Control_c, 0, 64, 67
2, 282482, Control_c, 0, 64, 70
2, 282500, Control_c, 0, 64, 74
2, 282505, Note_on_c, 0, 73, 49
2, 282520, Control_c, 0, 64, 80
2, 282538, Control_c, 0, 64, 88
2, 282558, Control_c, 0, 64, 96
2, 282577, Control_c, 0, 64, 98
2, 282595, Note_on_c, 0, 73, 0
2, 282595, Note_on_c, 0, 75, 0
2, 282596, Control_c, 0, 64, 99
2, 282650, Note_on_c, 0, 68, 0
2, 282654, Control_c, 0, 64, 98
2, 282673, Control_c, 0, 64, 98
2, 282692, Control_c, 0, 64, 97
2, 282712, Control_c, 0, 64, 97
2, 282730, Control_c, 0, 64, 96
2, 282750, Control_c, 0, 64, 94
2, 282769, Control_c, 0, 64, 92
2, 282789, Control_c, 0, 64, 91
2, 282807, Control_c, 0, 64, 90
2, 282827, Control_c, 0, 64, 88
2, 282846, Control_c, 0, 64, 85
2, 282865, Control_c, 0, 64, 81
2, 282884, Control_c, 0, 64, 76
2, 282900, Note_on_c, 0, 44, 51
2, 282904, Control_c, 0, 64, 71
2, 282910, Note_on_c, 0, 72, 55
2, 282923, Control_c, 0, 64, 66
2, 282925, Note_on_c, 0, 42, 0
2, 282941, Control_c, 0, 64, 62
2, 282961, Control_c, 0, 64, 58
2, 282980, Control_c, 0, 64, 55
2, 283000, Control_c, 0, 64, 55
2, 283078, Control_c, 0, 64, 56
2, 283097, Control_c, 0, 64, 56
2, 283117, Control_c, 0, 64, 58
2, 283135, Control_c, 0, 64, 59
2, 283155, Control_c, 0, 64, 61
2, 283174, Control_c, 0, 64, 62
2, 283194, Control_c, 0, 64, 63
2, 283212, Control_c, 0, 64, 65
2, 283232, Control_c, 0, 64, 66
2, 283251, Control_c, 0, 64, 70
2, 283270, Control_c, 0, 64, 74
2, 283288, Note_on_c, 0, 70, 0
2, 283289, Control_c, 0, 64, 83
2, 283309, Control_c, 0, 64, 93
2, 283310, Note_on_c, 0, 68, 58
2, 283321, Note_on_c, 0, 72, 0
2, 283328, Control_c, 0, 64, 102
2, 283347, Control_c, 0, 64, 105
2, 283402, Note_on_c, 0, 68, 0
2, 283500, Control_c, 0, 64, 104
2, 283520, Control_c, 0, 64, 103
2, 283539, Control_c, 0, 64, 101
2, 283558, Control_c, 0, 64, 100
2, 283577, Control_c, 0, 64, 99
2, 283597, Control_c, 0, 64, 98
2, 283615, Control_c, 0, 64, 96
2, 283635, Control_c, 0, 64, 94
2, 283654, Control_c, 0, 64, 90
2, 283674, Control_c, 0, 64, 87
2, 283692, Control_c, 0, 64, 84
2, 283712, Control_c, 0, 64, 80
2, 283717, Note_on_c, 0, 46, 55
2, 283719, Note_on_c, 0, 74, 59
2, 283731, Control_c, 0, 64, 74
2, 283737, Note_on_c, 0, 66, 40
2, 283750, Control_c, 0, 64, 68
2, 283769, Control_c, 0, 64, 62
2, 283789, Control_c, 0, 64, 54
2, 283808, Control_c, 0, 64, 49
2, 283810, Note_on_c, 0, 44, 0
2, 283846, Control_c, 0, 64, 51
2, 283866, Control_c, 0, 64, 55
2, 283885, Control_c, 0, 64, 59
2, 283904, Control_c, 0, 64, 62
2, 283923, Control_c, 0, 64, 64
2, 283943, Control_c, 0, 64, 65
2, 283961, Control_c, 0, 64, 67
2, 283980, Control_c, 0, 64, 69
2, 284002, Control_c, 0, 64, 72
2, 284020, Control_c, 0, 64, 77
2, 284040, Control_c, 0, 64, 81
2, 284059, Control_c, 0, 64, 84
2, 284079, Control_c, 0, 64, 85
2, 284110, Note_on_c, 0, 65, 52
2, 284127, Note_on_c, 0, 66, 0
2, 284159, Note_on_c, 0, 65, 0
2, 284163, Note_on_c, 0, 74, 0
2, 284174, Control_c, 0, 64, 85
2, 284232, Control_c, 0, 64, 84
2, 284271, Control_c, 0, 64, 84
2, 284290, Control_c, 0, 64, 83
2, 284328, Control_c, 0, 64, 84
2, 284386, Control_c, 0, 64, 83
2, 284405, Control_c, 0, 64, 83
2, 284421, Control_c, 0, 64, 82
2, 284440, Control_c, 0, 64, 81
2, 284459, Control_c, 0, 64, 78
2, 284472, Note_on_c, 0, 46, 0
2, 284479, Control_c, 0, 64, 73
2, 284491, Note_on_c, 0, 75, 73
2, 284498, Control_c, 0, 64, 66
2, 284503, Note_on_c, 0, 47, 43
2, 284517, Control_c, 0, 64, 59
2, 284535, Note_on_c, 0, 63, 37
2, 284536, Control_c, 0, 64, 51
2, 284556, Control_c, 0, 64, 46
2, 284575, Control_c, 0, 64, 45
2, 284613, Control_c, 0, 64, 47
2, 284633, Control_c, 0, 64, 50
2, 284651, Control_c, 0, 64, 54
2, 284671, Control_c, 0, 64, 56
2, 284690, Control_c, 0, 64, 57
2, 284805, Control_c, 0, 64, 58
2, 284825, Control_c, 0, 64, 58
2, 284844, Control_c, 0, 64, 60
2, 284863, Control_c, 0, 64, 61
2, 284882, Control_c, 0, 64, 62
2, 284882, Note_on_c, 0, 66, 47
2, 284890, Note_on_c, 0, 47, 0
2, 284901, Control_c, 0, 64, 63
2, 284908, Note_on_c, 0, 46, 34
2, 284920, Control_c, 0, 64, 63
2, 284939, Control_c, 0, 64, 64
2, 284959, Control_c, 0, 64, 64
2, 284976, Note_on_c, 0, 63, 0
2, 284978, Control_c, 0, 64, 65
2, 285036, Control_c, 0, 64, 65
2, 285190, Control_c, 0, 64, 65
2, 285228, Control_c, 0, 64, 64
2, 285247, Control_c, 0, 64, 64
2, 285266, Control_c, 0, 64, 63
2, 285271, Note_on_c, 0, 44, 41
2, 285278, Note_on_c, 0, 46, 0
2, 285285, Control_c, 0, 64, 61
2, 285298, Note_on_c, 0, 71, 47
2, 285305, Control_c, 0, 64, 59
2, 285324, Control_c, 0, 64, 56
2, 285342, Control_c, 0, 64, 55
2, 285362, Control_c, 0, 64, 53
2, 285381, Control_c, 0, 64, 53
2, 285400, Control_c, 0, 64, 52
2, 285439, Control_c, 0, 64, 52
2, 285477, Control_c, 0, 64, 51
2, 285535, Control_c, 0, 64, 53
2, 285554, Control_c, 0, 64, 56
2, 285573, Control_c, 0, 64, 60
2, 285593, Control_c, 0, 64, 63
2, 285593, Control_c, 0, 67, 10
2, 285611, Control_c, 0, 64, 66
2, 285611, Control_c, 0, 67, 21
2, 285631, Control_c, 0, 64, 72
2, 285631, Control_c, 0, 67, 34
2, 285650, Control_c, 0, 64, 86
2, 285650, Control_c, 0, 67, 49
2, 285662, Note_on_c, 0, 42, 52
2, 285670, Control_c, 0, 64, 127
2, 285670, Control_c, 0, 67, 65
2, 285688, Control_c, 0, 67, 84
2, 285701, Note_on_c, 0, 75, 0
2, 285708, Control_c, 0, 67, 102
2, 285727, Control_c, 0, 67, 122
2, 285734, Note_on_c, 0, 44, 0
2, 285746, Control_c, 0, 67, 127
2, 285850, Note_on_c, 0, 66, 0
2, 285957, Control_c, 0, 64, 108
2, 285976, Control_c, 0, 64, 93
2, 285996, Control_c, 0, 64, 78
2, 286015, Control_c, 0, 64, 66
2, 286034, Control_c, 0, 64, 57
2, 286049, Note_on_c, 0, 42, 0
2, 286053, Control_c, 0, 64, 47
2, 286073, Control_c, 0, 64, 46
2, 286075, Note_on_c, 0, 40, 40
2, 286081, Note_on_c, 0, 73, 57
2, 286175, Note_on_c, 0, 71, 0
2, 286245, Control_c, 0, 64, 47
2, 286265, Control_c, 0, 64, 48
2, 286284, Control_c, 0, 64, 49
2, 286302, Control_c, 0, 64, 52
2, 286322, Control_c, 0, 64, 54
2, 286341, Control_c, 0, 64, 57
2, 286360, Control_c, 0, 64, 59
2, 286379, Control_c, 0, 64, 62
2, 286399, Control_c, 0, 64, 63
2, 286418, Control_c, 0, 64, 65
2, 286437, Control_c, 0, 64, 67
2, 286456, Control_c, 0, 64, 71
2, 286476, Control_c, 0, 64, 76
2, 286478, Note_on_c, 0, 70, 56
2, 286495, Control_c, 0, 64, 84
2, 286514, Control_c, 0, 64, 90
2, 286533, Control_c, 0, 64, 92
2, 286648, Control_c, 0, 64, 91
2, 286668, Control_c, 0, 64, 90
2, 286687, Control_c, 0, 64, 89
2, 286706, Control_c, 0, 64, 88
2, 286725, Control_c, 0, 64, 85
2, 286745, Control_c, 0, 64, 83
2, 286764, Control_c, 0, 64, 80
2, 286782, Control_c, 0, 64, 78
2, 286785, Note_on_c, 0, 40, 0
2, 286802, Control_c, 0, 64, 76
2, 286821, Control_c, 0, 64, 71
2, 286840, Control_c, 0, 64, 66
2, 286850, Note_on_c, 0, 68, 48
2, 286859, Control_c, 0, 64, 62
2, 286865, Note_on_c, 0, 39, 35
2, 286879, Control_c, 0, 64, 58
2, 286898, Control_c, 0, 64, 54
2, 286917, Control_c, 0, 64, 51
2, 286924, Note_on_c, 0, 70, 0
2, 286936, Control_c, 0, 64, 50
2, 286956, Control_c, 0, 64, 48
2, 287033, Control_c, 0, 64, 49
2, 287051, Control_c, 0, 64, 51
2, 287071, Control_c, 0, 64, 53
2, 287090, Control_c, 0, 64, 56
2, 287110, Control_c, 0, 64, 59
2, 287128, Control_c, 0, 64, 61
2, 287148, Control_c, 0, 64, 63
2, 287167, Control_c, 0, 64, 65
2, 287186, Control_c, 0, 64, 67
2, 287205, Control_c, 0, 64, 71
2, 287225, Control_c, 0, 64, 78
2, 287244, Control_c, 0, 64, 94
2, 287262, Control_c, 0, 64, 123
2, 287270, Note_on_c, 0, 67, 41
2, 287282, Control_c, 0, 64, 127
2, 287289, Note_on_c, 0, 68, 0
2, 287330, Note_on_c, 0, 39, 0
2, 287370, Note_on_c, 0, 73, 0
2, 287406, Note_on_c, 0, 67, 0
2, 287608, Control_c, 0, 64, 117
2, 287628, Control_c, 0, 64, 100
2, 287647, Control_c, 0, 64, 85
2, 287653, Note_on_c, 0, 44, 43
2, 287654, Note_on_c, 0, 68, 51
2, 287658, Note_on_c, 0, 71, 53
2, 287666, Control_c, 0, 64, 70
2, 287685, Control_c, 0, 64, 62
2, 287705, Control_c, 0, 64, 55
2, 287724, Control_c, 0, 64, 56
2, 287742, Control_c, 0, 64, 60
2, 287762, Control_c, 0, 64, 62
2, 287781, Control_c, 0, 64, 64
2, 287800, Control_c, 0, 64, 66
2, 287819, Control_c, 0, 64, 67
2, 287839, Control_c, 0, 64, 67
2, 287858, Control_c, 0, 64, 68
2, 287896, Control_c, 0, 64, 67
2, 287935, Control_c, 0, 64, 66
2, 287954, Control_c, 0, 64, 64
2, 287973, Control_c, 0, 64, 62
2, 287993, Control_c, 0, 64, 59
2, 288011, Control_c, 0, 64, 56
2, 288025, Note_on_c, 0, 46, 48
2, 288028, Note_on_c, 0, 73, 53
2, 288050, Control_c, 0, 64, 59
2, 288070, Control_c, 0, 64, 63
2, 288070, Control_c, 0, 67, 123
2, 288088, Control_c, 0, 64, 65
2, 288088, Control_c, 0, 67, 120
2, 288108, Control_c, 0, 64, 68
2, 288108, Control_c, 0, 67, 117
2, 288127, Control_c, 0, 64, 71
2, 288127, Control_c, 0, 67, 115
2, 288146, Control_c, 0, 64, 75
2, 288146, Control_c, 0, 67, 113
2, 288165, Control_c, 0, 64, 79
2, 288165, Control_c, 0, 67, 111
2, 288185, Control_c, 0, 64, 81
2, 288185, Control_c, 0, 67, 110
2, 288204, Control_c, 0, 67, 110
2, 288222, Control_c, 0, 67, 109
2, 288242, Control_c, 0, 64, 80
2, 288300, Control_c, 0, 64, 79
2, 288320, Control_c, 0, 64, 78
2, 288339, Control_c, 0, 64, 72
2, 288356, Note_on_c, 0, 46, 0
2, 288358, Control_c, 0, 64, 65
2, 288377, Control_c, 0, 64, 54
2, 288397, Control_c, 0, 64, 23
2, 288407, Note_on_c, 0, 47, 47
2, 288415, Control_c, 0, 64, 0
2, 288421, Note_on_c, 0, 75, 57
2, 288436, Note_on_c, 0, 44, 0
2, 288454, Control_c, 0, 64, 34
2, 288454, Control_c, 0, 67, 109
2, 288474, Control_c, 0, 64, 57
2, 288492, Control_c, 0, 64, 65
2, 288512, Control_c, 0, 64, 68
2, 288531, Control_c, 0, 64, 73
2, 288550, Control_c, 0, 64, 79
2, 288569, Control_c, 0, 64, 84
2, 288569, Control_c, 0, 67, 108
2, 288589, Control_c, 0, 64, 85
2, 288608, Control_c, 0, 64, 85
2, 288627, Control_c, 0, 64, 82
2, 288627, Control_c, 0, 67, 107
2, 288646, Control_c, 0, 64, 78
2, 288646, Control_c, 0, 67, 106
2, 288666, Control_c, 0, 64, 76
2, 288666, Control_c, 0, 67, 102
2, 288670, Note_on_c, 0, 75, 0
2, 288685, Control_c, 0, 64, 77
2, 288685, Control_c, 0, 67, 99
2, 288704, Control_c, 0, 64, 78
2, 288704, Control_c, 0, 67, 95
2, 288723, Control_c, 0, 64, 79
2, 288723, Control_c, 0, 67, 92
2, 288742, Control_c, 0, 64, 80
2, 288742, Control_c, 0, 67, 90
2, 288760, Note_on_c, 0, 49, 45
2, 288761, Control_c, 0, 64, 81
2, 288761, Control_c, 0, 67, 89
2, 288775, Note_on_c, 0, 47, 0
2, 288780, Control_c, 0, 67, 88
2, 288782, Note_on_c, 0, 76, 56
2, 288799, Control_c, 0, 67, 87
2, 288837, Control_c, 0, 64, 80
2, 288837, Control_c, 0, 67, 87
2, 288851, Note_on_c, 0, 73, 0
2, 288856, Control_c, 0, 64, 80
2, 288856, Control_c, 0, 67, 86
2, 288859, Note_on_c, 0, 68, 0
2, 288862, Note_on_c, 0, 71, 0
2, 288876, Control_c, 0, 67, 86
2, 288914, Control_c, 0, 64, 79
2, 288953, Control_c, 0, 64, 79
2, 288953, Control_c, 0, 67, 86
2, 288971, Control_c, 0, 67, 87
2, 288991, Control_c, 0, 67, 87
2, 289030, Control_c, 0, 64, 78
2, 289048, Control_c, 0, 64, 76
2, 289048, Control_c, 0, 67, 88
2, 289068, Control_c, 0, 64, 74
2, 289068, Control_c, 0, 67, 90
2, 289087, Control_c, 0, 64, 72
2, 289087, Control_c, 0, 67, 91
2, 289106, Control_c, 0, 64, 70
2, 289106, Control_c, 0, 67, 92
2, 289125, Control_c, 0, 64, 69
2, 289125, Control_c, 0, 67, 93
2, 289145, Control_c, 0, 64, 68
2, 289145, Control_c, 0, 67, 94
2, 289155, Note_on_c, 0, 51, 41
2, 289164, Control_c, 0, 64, 66
2, 289164, Control_c, 0, 67, 95
2, 289168, Note_on_c, 0, 70, 55
2, 289177, Note_on_c, 0, 49, 0
2, 289182, Control_c, 0, 64, 65
2, 289182, Control_c, 0, 67, 95
2, 289240, Control_c, 0, 64, 66
2, 289258, Control_c, 0, 64, 65
2, 289304, Note_on_c, 0, 76, 0
2, 289316, Control_c, 0, 64, 66
2, 289316, Control_c, 0, 67, 96
2, 289355, Control_c, 0, 64, 65
2, 289374, Control_c, 0, 64, 64
2, 289393, Control_c, 0, 64, 61
2, 289412, Control_c, 0, 64, 51
2, 289412, Control_c, 0, 67, 95
2, 289432, Control_c, 0, 64, 24
2, 289432, Control_c, 0, 67, 95
2, 289450, Control_c, 0, 64, 0
2, 289450, Control_c, 0, 67, 94
2, 289470, Control_c, 0, 67, 93
2, 289489, Control_c, 0, 67, 92
2, 289509, Control_c, 0, 67, 91
2, 289547, Control_c, 0, 67, 90
2, 289566, Control_c, 0, 67, 89
2, 289567, Note_on_c, 0, 71, 47
2, 289586, Control_c, 0, 64, 47
2, 289586, Control_c, 0, 67, 89
2, 289604, Control_c, 0, 64, 60
2, 289604, Control_c, 0, 67, 87
2, 289624, Control_c, 0, 64, 63
2, 289624, Control_c, 0, 67, 87
2, 289643, Control_c, 0, 64, 65
2, 289643, Control_c, 0, 67, 85
2, 289652, Note_on_c, 0, 70, 0
2, 289661, Control_c, 0, 64, 66
2, 289681, Control_c, 0, 64, 68
2, 289681, Control_c, 0, 67, 85
2, 289700, Control_c, 0, 64, 69
2, 289720, Control_c, 0, 64, 69
2, 289777, Control_c, 0, 64, 69
2, 289796, Control_c, 0, 64, 68
2, 289796, Control_c, 0, 67, 85
2, 289835, Control_c, 0, 64, 67
2, 289854, Control_c, 0, 64, 67
2, 289873, Control_c, 0, 64, 66
2, 289884, Note_on_c, 0, 51, 0
2, 289892, Control_c, 0, 64, 65
2, 289912, Control_c, 0, 64, 64
2, 289930, Control_c, 0, 64, 63
2, 289938, Note_on_c, 0, 67, 40
2, 289950, Control_c, 0, 64, 62
2, 289964, Note_on_c, 0, 73, 41
2, 289969, Control_c, 0, 64, 62
2, 289989, Control_c, 0, 64, 61
2, 290007, Control_c, 0, 64, 60
2, 290007, Control_c, 0, 67, 86
2, 290027, Control_c, 0, 64, 59
2, 290046, Control_c, 0, 64, 57
2, 290066, Control_c, 0, 64, 56
2, 290084, Control_c, 0, 64, 55
2, 290110, Note_on_c, 0, 71, 0
2, 290123, Control_c, 0, 64, 56
2, 290123, Control_c, 0, 67, 85
2, 290141, Control_c, 0, 64, 57
2, 290161, Control_c, 0, 64, 59
2, 290161, Control_c, 0, 67, 84
2, 290180, Control_c, 0, 64, 61
2, 290180, Control_c, 0, 67, 84
2, 290200, Control_c, 0, 64, 63
2, 290200, Control_c, 0, 67, 82
2, 290218, Control_c, 0, 64, 64
2, 290218, Control_c, 0, 67, 77
2, 290238, Control_c, 0, 64, 65
2, 290238, Control_c, 0, 67, 64
2, 290257, Control_c, 0, 64, 66
2, 290257, Control_c, 0, 67, 51
2, 290276, Control_c, 0, 64, 68
2, 290276, Control_c, 0, 67, 39
2, 290295, Control_c, 0, 64, 70
2, 290295, Control_c, 0, 67, 30
2, 290315, Control_c, 0, 64, 74
2, 290315, Control_c, 0, 67, 24
2, 290326, Note_on_c, 0, 51, 36
2, 290334, Control_c, 0, 64, 80
2, 290334, Control_c, 0, 67, 20
2, 290337, Note_on_c, 0, 75, 47
2, 290353, Control_c, 0, 64, 88
2, 290353, Control_c, 0, 67, 20
2, 290372, Control_c, 0, 64, 94
2, 290381, Note_on_c, 0, 51, 0
2, 290392, Control_c, 0, 64, 96
2, 290416, Note_on_c, 0, 75, 0
2, 290440, Note_on_c, 0, 73, 0
2, 290526, Control_c, 0, 64, 95
2, 290546, Control_c, 0, 64, 95
2, 290564, Control_c, 0, 64, 94
2, 290583, Control_c, 0, 64, 93
2, 290603, Control_c, 0, 64, 93
2, 290621, Control_c, 0, 64, 92
2, 290641, Control_c, 0, 64, 91
2, 290660, Control_c, 0, 64, 90
2, 290680, Control_c, 0, 64, 89
2, 290698, Control_c, 0, 64, 87
2, 290718, Control_c, 0, 64, 86
2, 290737, Control_c, 0, 64, 84
2, 290740, Note_on_c, 0, 67, 0
2, 290754, Note_on_c, 0, 56, 43
2, 290756, Control_c, 0, 64, 82
2, 290775, Control_c, 0, 64, 78
2, 290795, Control_c, 0, 64, 72
2, 290807, Note_on_c, 0, 68, 61
2, 290814, Control_c, 0, 64, 64
2, 290833, Control_c, 0, 64, 54
2, 290852, Control_c, 0, 64, 45
2, 290860, Note_on_c, 0, 71, 45
2, 290872, Control_c, 0, 64, 45
2, 290890, Control_c, 0, 64, 47
2, 290910, Control_c, 0, 64, 51
2, 290929, Control_c, 0, 64, 55
2, 290929, Control_c, 0, 67, 19
2, 290949, Control_c, 0, 64, 59
2, 290949, Control_c, 0, 67, 19
2, 290967, Control_c, 0, 64, 61
2, 290987, Control_c, 0, 64, 63
2, 290987, Control_c, 0, 67, 18
2, 291006, Control_c, 0, 64, 63
2, 291026, Control_c, 0, 64, 64
2, 291044, Control_c, 0, 64, 65
2, 291044, Control_c, 0, 67, 18
2, 291063, Control_c, 0, 64, 66
2, 291083, Control_c, 0, 64, 68
2, 291083, Control_c, 0, 67, 17
2, 291101, Control_c, 0, 64, 70
2, 291121, Control_c, 0, 64, 73
2, 291140, Control_c, 0, 64, 77
2, 291140, Control_c, 0, 67, 17
2, 291160, Control_c, 0, 64, 81
2, 291178, Control_c, 0, 64, 83
2, 291183, Note_on_c, 0, 58, 46
2, 291198, Control_c, 0, 64, 85
2, 291217, Control_c, 0, 64, 85
2, 291223, Note_on_c, 0, 70, 52
2, 291236, Control_c, 0, 64, 86
2, 291294, Control_c, 0, 67, 16
2, 291313, Control_c, 0, 67, 15
2, 291332, Control_c, 0, 67, 15
2, 291342, Note_on_c, 0, 58, 0
2, 291352, Control_c, 0, 67, 14
2, 291381, Note_on_c, 0, 56, 0
2, 291383, Note_on_c, 0, 68, 0
2, 291409, Control_c, 0, 64, 85
2, 291447, Control_c, 0, 67, 13
2, 291486, Control_c, 0, 64, 85
2, 291506, Control_c, 0, 64, 83
2, 291524, Control_c, 0, 64, 80
2, 291539, Note_on_c, 0, 71, 0
2, 291543, Control_c, 0, 64, 73
2, 291563, Control_c, 0, 64, 67
2, 291581, Control_c, 0, 64, 61
2, 291595, Note_on_c, 0, 63, 61
2, 291601, Control_c, 0, 64, 58
2, 291601, Control_c, 0, 67, 13
2, 291620, Control_c, 0, 64, 59
2, 291622, Note_on_c, 0, 68, 45
2, 291637, Note_on_c, 0, 59, 47
2, 291640, Control_c, 0, 64, 62
2, 291640, Control_c, 0, 67, 12
2, 291658, Control_c, 0, 64, 63
2, 291678, Control_c, 0, 64, 64
2, 291678, Control_c, 0, 67, 11
2, 291697, Control_c, 0, 64, 66
2, 291697, Control_c, 0, 67, 8
2, 291716, Control_c, 0, 64, 67
2, 291716, Control_c, 0, 67, 0
2, 291735, Control_c, 0, 64, 69
2, 291755, Control_c, 0, 64, 70
2, 291774, Control_c, 0, 64, 70
2, 291850, Control_c, 0, 64, 70
2, 291875, Note_on_c, 0, 70, 0
2, 291976, Note_on_c, 0, 66, 53
2, 291982, Note_on_c, 0, 56, 35
2, 292016, Note_on_c, 0, 59, 0
2, 292106, Note_on_c, 0, 68, 0
2, 292212, Control_c, 0, 64, 69
2, 292289, Control_c, 0, 64, 69
2, 292309, Control_c, 0, 64, 67
2, 292328, Control_c, 0, 64, 63
2, 292334, Note_on_c, 0, 63, 0
2, 292343, Note_on_c, 0, 56, 0
2, 292347, Control_c, 0, 64, 58
2, 292352, Note_on_c, 0, 58, 46
2, 292363, Note_on_c, 0, 65, 49
2, 292366, Control_c, 0, 64, 53
2, 292383, Control_c, 0, 64, 50
2, 292402, Control_c, 0, 64, 51
2, 292421, Control_c, 0, 64, 55
2, 292440, Control_c, 0, 64, 59
2, 292460, Control_c, 0, 64, 62
2, 292478, Control_c, 0, 64, 63
2, 292498, Control_c, 0, 64, 64
2, 292555, Control_c, 0, 64, 64
2, 292594, Control_c, 0, 64, 65
2, 292692, Control_c, 0, 64, 64
2, 292712, Control_c, 0, 64, 63
2, 292731, Control_c, 0, 64, 57
2, 292734, Note_on_c, 0, 66, 0
2, 292743, Note_on_c, 0, 62, 54
2, 292750, Control_c, 0, 64, 32
2, 292750, Note_on_c, 0, 58, 0
2, 292769, Control_c, 0, 64, 0
2, 292776, Note_on_c, 0, 56, 48
2, 292846, Control_c, 0, 64, 23
2, 292866, Control_c, 0, 64, 55
2, 292884, Control_c, 0, 64, 63
2, 292904, Control_c, 0, 64, 65
2, 292923, Control_c, 0, 64, 66
2, 292943, Control_c, 0, 64, 68
2, 292961, Control_c, 0, 64, 71
2, 292981, Control_c, 0, 64, 74
2, 293000, Control_c, 0, 64, 78
2, 293019, Control_c, 0, 64, 80
2, 293038, Control_c, 0, 64, 80
2, 293059, Control_c, 0, 64, 81
2, 293097, Control_c, 0, 64, 80
2, 293116, Control_c, 0, 64, 78
2, 293127, Note_on_c, 0, 63, 66
2, 293128, Note_on_c, 0, 66, 61
2, 293130, Note_on_c, 0, 54, 50
2, 293136, Control_c, 0, 64, 71
2, 293154, Control_c, 0, 64, 63
2, 293154, Note_on_c, 0, 62, 0
2, 293171, Note_on_c, 0, 65, 0
2, 293174, Control_c, 0, 64, 48
2, 293193, Control_c, 0, 64, 42
2, 293202, Note_on_c, 0, 56, 0
2, 293212, Control_c, 0, 64, 50
2, 293231, Control_c, 0, 64, 60
2, 293250, Control_c, 0, 64, 64
2, 293270, Control_c, 0, 64, 67
2, 293288, Control_c, 0, 64, 71
2, 293308, Control_c, 0, 64, 77
2, 293327, Control_c, 0, 64, 83
2, 293347, Control_c, 0, 64, 88
2, 293365, Control_c, 0, 64, 89
2, 293423, Control_c, 0, 64, 88
2, 293442, Control_c, 0, 64, 85
2, 293452, Note_on_c, 0, 54, 0
2, 293462, Control_c, 0, 64, 78
2, 293481, Control_c, 0, 64, 70
2, 293500, Control_c, 0, 64, 63
2, 293506, Note_on_c, 0, 68, 64
2, 293512, Note_on_c, 0, 65, 65
2, 293515, Note_on_c, 0, 53, 56
2, 293519, Control_c, 0, 64, 54
2, 293539, Control_c, 0, 64, 50
2, 293557, Control_c, 0, 64, 54
2, 293577, Control_c, 0, 64, 61
2, 293584, Note_on_c, 0, 63, 0
2, 293598, Control_c, 0, 64, 64
2, 293604, Note_on_c, 0, 66, 0
2, 293618, Control_c, 0, 64, 66
2, 293636, Control_c, 0, 64, 68
2, 293656, Control_c, 0, 64, 71
2, 293675, Control_c, 0, 64, 73
2, 293694, Control_c, 0, 64, 74
2, 293752, Control_c, 0, 64, 74
2, 293790, Note_on_c, 0, 68, 0
2, 293868, Note_on_c, 0, 53, 0
2, 293886, Control_c, 0, 64, 74
2, 293905, Control_c, 0, 64, 73
2, 293922, Note_on_c, 0, 51, 42
2, 293924, Control_c, 0, 64, 72
2, 293943, Note_on_c, 0, 66, 66
2, 293944, Control_c, 0, 64, 70
2, 293962, Control_c, 0, 64, 66
2, 293963, Note_on_c, 0, 70, 62
2, 293982, Control_c, 0, 64, 59
2, 294001, Control_c, 0, 64, 44
2, 294008, Note_on_c, 0, 65, 0
2, 294021, Control_c, 0, 64, 27
2, 294039, Control_c, 0, 64, 19
2, 294098, Control_c, 0, 64, 27
2, 294116, Control_c, 0, 64, 42
2, 294136, Control_c, 0, 64, 51
2, 294155, Control_c, 0, 64, 56
2, 294174, Control_c, 0, 64, 58
2, 294193, Control_c, 0, 64, 60
2, 294212, Control_c, 0, 64, 61
2, 294232, Control_c, 0, 64, 62
2, 294250, Control_c, 0, 64, 64
2, 294270, Control_c, 0, 64, 65
2, 294289, Control_c, 0, 64, 66
2, 294308, Control_c, 0, 64, 69
2, 294327, Control_c, 0, 64, 73
2, 294347, Control_c, 0, 64, 78
2, 294364, Note_on_c, 0, 65, 52
2, 294366, Control_c, 0, 64, 85
2, 294374, Note_on_c, 0, 70, 0
2, 294384, Note_on_c, 0, 66, 0
2, 294385, Control_c, 0, 64, 90
2, 294404, Control_c, 0, 64, 92
2, 294616, Control_c, 0, 64, 91
2, 294635, Control_c, 0, 64, 91
2, 294654, Control_c, 0, 64, 90
2, 294673, Control_c, 0, 64, 88
2, 294692, Control_c, 0, 64, 87
2, 294712, Control_c, 0, 64, 87
2, 294747, Note_on_c, 0, 63, 72
2, 294750, Control_c, 0, 64, 86
2, 294764, Note_on_c, 0, 56, 57
2, 294769, Control_c, 0, 64, 84
2, 294785, Note_on_c, 0, 72, 52
2, 294788, Control_c, 0, 64, 79
2, 294807, Control_c, 0, 64, 74
2, 294827, Control_c, 0, 64, 66
2, 294846, Control_c, 0, 64, 60
2, 294865, Control_c, 0, 64, 54
2, 294884, Control_c, 0, 64, 51
2, 294922, Control_c, 0, 64, 52
2, 294942, Control_c, 0, 64, 53
2, 294961, Control_c, 0, 64, 55
2, 294977, Control_c, 0, 64, 57
2, 294987, Note_on_c, 0, 51, 0
2, 294996, Control_c, 0, 64, 58
2, 295015, Control_c, 0, 64, 59
2, 295034, Control_c, 0, 64, 60
2, 295054, Control_c, 0, 64, 61
2, 295072, Control_c, 0, 64, 63
2, 295091, Control_c, 0, 64, 64
2, 295111, Control_c, 0, 64, 65
2, 295130, Control_c, 0, 64, 66
2, 295138, Note_on_c, 0, 74, 58
2, 295149, Control_c, 0, 64, 68
2, 295168, Control_c, 0, 64, 70
2, 295188, Control_c, 0, 64, 72
2, 295207, Control_c, 0, 64, 73
2, 295226, Control_c, 0, 64, 74
2, 295245, Control_c, 0, 64, 74
2, 295270, Note_on_c, 0, 72, 0
2, 295283, Control_c, 0, 64, 75
2, 295342, Control_c, 0, 64, 75
2, 295418, Control_c, 0, 64, 74
2, 295437, Control_c, 0, 64, 71
2, 295457, Control_c, 0, 64, 67
2, 295474, Note_on_c, 0, 56, 0
2, 295476, Control_c, 0, 64, 63
2, 295495, Control_c, 0, 64, 62
2, 295531, Note_on_c, 0, 70, 76
2, 295536, Control_c, 0, 64, 62
2, 295550, Note_on_c, 0, 75, 60
2, 295554, Control_c, 0, 64, 63
2, 295571, Note_on_c, 0, 74, 0
2, 295574, Control_c, 0, 64, 64
2, 295593, Control_c, 0, 64, 65
2, 295605, Note_on_c, 0, 63, 0
2, 295612, Control_c, 0, 64, 65
2, 295631, Control_c, 0, 64, 66
2, 295650, Control_c, 0, 64, 66
2, 295670, Control_c, 0, 64, 67
2, 295708, Control_c, 0, 64, 67
2, 295765, Control_c, 0, 64, 67
2, 295785, Control_c, 0, 64, 66
2, 295804, Control_c, 0, 64, 65
2, 295823, Control_c, 0, 64, 63
2, 295842, Control_c, 0, 64, 59
2, 295862, Control_c, 0, 64, 53
2, 295881, Control_c, 0, 64, 50
2, 295882, Note_on_c, 0, 55, 53
2, 295919, Control_c, 0, 64, 53
2, 295939, Control_c, 0, 64, 58
2, 295957, Control_c, 0, 64, 62
2, 295977, Control_c, 0, 64, 64
2, 295996, Control_c, 0, 64, 66
2, 296016, Control_c, 0, 64, 67
2, 296034, Control_c, 0, 64, 69
2, 296051, Note_on_c, 0, 55, 0
2, 296054, Control_c, 0, 64, 70
2, 296067, Note_on_c, 0, 53, 53
2, 296168, Control_c, 0, 64, 69
2, 296207, Control_c, 0, 64, 69
2, 296227, Control_c, 0, 64, 68
2, 296245, Control_c, 0, 64, 67
2, 296261, Note_on_c, 0, 53, 0
2, 296265, Control_c, 0, 64, 66
2, 296284, Control_c, 0, 64, 63
2, 296303, Control_c, 0, 64, 59
2, 296305, Note_on_c, 0, 63, 72
2, 296322, Control_c, 0, 64, 51
2, 296342, Control_c, 0, 64, 44
2, 296342, Note_on_c, 0, 55, 47
2, 296361, Control_c, 0, 64, 38
2, 296380, Control_c, 0, 64, 34
2, 296478, Control_c, 0, 64, 35
2, 296498, Control_c, 0, 64, 37
2, 296516, Control_c, 0, 64, 39
2, 296536, Control_c, 0, 64, 41
2, 296555, Control_c, 0, 64, 43
2, 296574, Control_c, 0, 64, 45
2, 296593, Control_c, 0, 64, 47
2, 296612, Control_c, 0, 64, 49
2, 296632, Control_c, 0, 64, 52
2, 296650, Control_c, 0, 64, 54
2, 296670, Control_c, 0, 64, 56
2, 296683, Note_on_c, 0, 70, 0
2, 296689, Control_c, 0, 64, 58
2, 296708, Control_c, 0, 64, 60
2, 296722, Note_on_c, 0, 73, 56
2, 296727, Control_c, 0, 64, 62
2, 296747, Control_c, 0, 64, 63
2, 296766, Control_c, 0, 64, 65
2, 296767, Note_on_c, 0, 75, 0
2, 296785, Control_c, 0, 64, 67
2, 296804, Control_c, 0, 64, 69
2, 296824, Control_c, 0, 64, 71
2, 296842, Control_c, 0, 64, 73
2, 296862, Control_c, 0, 64, 76
2, 296881, Control_c, 0, 64, 79
2, 296897, Control_c, 0, 64, 81
2, 296916, Control_c, 0, 64, 81
2, 296967, Note_on_c, 0, 55, 0
2, 296992, Control_c, 0, 64, 80
2, 297011, Control_c, 0, 64, 75
2, 297031, Control_c, 0, 64, 68
2, 297047, Note_on_c, 0, 56, 47
2, 297050, Control_c, 0, 64, 61
2, 297069, Control_c, 0, 64, 58
2, 297070, Note_on_c, 0, 72, 60
2, 297088, Control_c, 0, 64, 60
2, 297108, Control_c, 0, 64, 62
2, 297127, Control_c, 0, 64, 64
2, 297146, Control_c, 0, 64, 66
2, 297165, Control_c, 0, 64, 69
2, 297185, Control_c, 0, 64, 72
2, 297203, Control_c, 0, 64, 76
2, 297223, Control_c, 0, 64, 78
2, 297242, Control_c, 0, 64, 78
2, 297271, Note_on_c, 0, 63, 0
2, 297280, Control_c, 0, 64, 79
2, 297300, Control_c, 0, 64, 80
2, 297306, Note_on_c, 0, 73, 0
2, 297315, Note_on_c, 0, 65, 0
2, 297319, Control_c, 0, 64, 82
2, 297338, Control_c, 0, 64, 82
2, 297357, Control_c, 0, 64, 83
2, 297415, Control_c, 0, 64, 82
2, 297435, Control_c, 0, 64, 77
2, 297443, Note_on_c, 0, 54, 49
2, 297445, Note_on_c, 0, 65, 62
2, 297455, Control_c, 0, 64, 69
2, 297473, Control_c, 0, 64, 61
2, 297488, Note_on_c, 0, 74, 53
2, 297492, Control_c, 0, 64, 55
2, 297492, Note_on_c, 0, 56, 0
2, 297512, Control_c, 0, 64, 56
2, 297531, Control_c, 0, 64, 60
2, 297550, Control_c, 0, 64, 63
2, 297569, Control_c, 0, 64, 65
2, 297589, Control_c, 0, 64, 67
2, 297607, Control_c, 0, 64, 71
2, 297607, Note_on_c, 0, 72, 0
2, 297627, Control_c, 0, 64, 74
2, 297646, Control_c, 0, 64, 76
2, 297661, Note_on_c, 0, 65, 0
2, 297666, Control_c, 0, 64, 77
2, 297800, Note_on_c, 0, 53, 46
2, 297819, Control_c, 0, 64, 76
2, 297820, Note_on_c, 0, 54, 0
2, 297823, Note_on_c, 0, 66, 63
2, 297834, Note_on_c, 0, 75, 64
2, 297838, Control_c, 0, 64, 71
2, 297856, Control_c, 0, 64, 64
2, 297865, Note_on_c, 0, 74, 0
2, 297875, Control_c, 0, 64, 56
2, 297893, Control_c, 0, 64, 48
2, 297913, Control_c, 0, 64, 48
2, 297932, Control_c, 0, 64, 49
2, 297952, Control_c, 0, 64, 54
2, 297970, Control_c, 0, 64, 60
2, 297990, Control_c, 0, 64, 63
2, 298009, Control_c, 0, 64, 65
2, 298028, Control_c, 0, 64, 67
2, 298047, Control_c, 0, 64, 68
2, 298067, Control_c, 0, 64, 69
2, 298086, Control_c, 0, 64, 69
2, 298102, Note_on_c, 0, 53, 0
2, 298124, Control_c, 0, 64, 70
2, 298144, Control_c, 0, 64, 71
2, 298162, Control_c, 0, 64, 72
2, 298182, Control_c, 0, 64, 73
2, 298185, Note_on_c, 0, 51, 46
2, 298201, Control_c, 0, 64, 74
2, 298221, Control_c, 0, 64, 75
2, 298239, Control_c, 0, 64, 76
2, 298259, Control_c, 0, 64, 76
2, 298269, Note_on_c, 0, 66, 0
2, 298298, Control_c, 0, 64, 76
2, 298336, Control_c, 0, 64, 75
2, 298355, Control_c, 0, 64, 75
2, 298373, Control_c, 0, 64, 74
2, 298395, Control_c, 0, 64, 73
2, 298491, Control_c, 0, 64, 72
2, 298510, Control_c, 0, 64, 71
2, 298529, Control_c, 0, 64, 69
2, 298549, Control_c, 0, 64, 67
2, 298567, Control_c, 0, 64, 64
2, 298580, Note_on_c, 0, 68, 63
2, 298582, Note_on_c, 0, 53, 33
2, 298587, Control_c, 0, 64, 59
2, 298590, Note_on_c, 0, 51, 0
2, 298606, Control_c, 0, 64, 54
2, 298626, Control_c, 0, 64, 49
2, 298644, Control_c, 0, 64, 46
2, 298664, Control_c, 0, 64, 44
2, 298683, Control_c, 0, 64, 44
2, 298701, Note_on_c, 0, 75, 0
2, 298741, Control_c, 0, 64, 44
2, 298779, Control_c, 0, 64, 45
2, 298798, Control_c, 0, 64, 46
2, 298818, Control_c, 0, 64, 47
2, 298837, Control_c, 0, 64, 49
2, 298856, Control_c, 0, 64, 51
2, 298875, Control_c, 0, 64, 53
2, 298895, Control_c, 0, 64, 56
2, 298913, Control_c, 0, 64, 59
2, 298932, Control_c, 0, 64, 62
2, 298952, Control_c, 0, 64, 64
2, 298958, Note_on_c, 0, 53, 0
2, 298962, Note_on_c, 0, 54, 47
2, 298971, Control_c, 0, 64, 65
2, 298990, Control_c, 0, 64, 66
2, 299009, Control_c, 0, 64, 68
2, 299029, Control_c, 0, 64, 70
2, 299047, Control_c, 0, 64, 73
2, 299067, Control_c, 0, 64, 76
2, 299086, Control_c, 0, 64, 77
2, 299183, Control_c, 0, 64, 77
2, 299201, Control_c, 0, 64, 76
2, 299221, Control_c, 0, 64, 74
2, 299240, Control_c, 0, 64, 70
2, 299240, Control_c, 0, 67, 16
2, 299259, Control_c, 0, 64, 66
2, 299259, Control_c, 0, 67, 32
2, 299278, Control_c, 0, 64, 59
2, 299278, Control_c, 0, 67, 54
2, 299298, Control_c, 0, 64, 44
2, 299298, Control_c, 0, 67, 72
2, 299298, Note_on_c, 0, 54, 0
2, 299317, Control_c, 0, 64, 27
2, 299317, Control_c, 0, 67, 88
2, 299336, Control_c, 0, 67, 102
2, 299353, Note_on_c, 0, 56, 38
2, 299358, Control_c, 0, 64, 42
2, 299358, Control_c, 0, 67, 113
2, 299360, Note_on_c, 0, 74, 45
2, 299378, Control_c, 0, 64, 56
2, 299378, Control_c, 0, 67, 122
2, 299396, Control_c, 0, 64, 62
2, 299396, Control_c, 0, 67, 127
2, 299416, Control_c, 0, 64, 64
2, 299435, Control_c, 0, 64, 66
2, 299453, Control_c, 0, 64, 67
2, 299473, Control_c, 0, 64, 68
2, 299569, Control_c, 0, 64, 67
2, 299588, Control_c, 0, 64, 66
2, 299607, Control_c, 0, 64, 64
2, 299627, Control_c, 0, 64, 59
2, 299646, Control_c, 0, 64, 54
2, 299665, Control_c, 0, 64, 55
2, 299684, Control_c, 0, 64, 58
2, 299704, Control_c, 0, 64, 62
2, 299722, Control_c, 0, 64, 64
2, 299740, Note_on_c, 0, 58, 33
2, 299742, Control_c, 0, 64, 66
2, 299761, Control_c, 0, 64, 70
2, 299765, Note_on_c, 0, 56, 0
2, 299779, Control_c, 0, 64, 75
2, 299797, Control_c, 0, 64, 80
2, 299817, Control_c, 0, 64, 81
2, 299849, Note_on_c, 0, 68, 0
2, 299951, Control_c, 0, 64, 82
2, 299990, Control_c, 0, 64, 81
2, 300008, Control_c, 0, 64, 79
2, 300028, Control_c, 0, 64, 72
2, 300042, Note_on_c, 0, 58, 0
2, 300047, Control_c, 0, 64, 65
2, 300067, Control_c, 0, 64, 58
2, 300085, Control_c, 0, 64, 49
2, 300101, Note_on_c, 0, 51, 35
2, 300103, Note_on_c, 0, 75, 58
2, 300105, Control_c, 0, 64, 47
2, 300124, Control_c, 0, 64, 51
2, 300135, Note_on_c, 0, 74, 0
2, 300143, Control_c, 0, 64, 57
2, 300149, Note_on_c, 0, 66, 41
2, 300162, Control_c, 0, 64, 62
2, 300162, Control_c, 0, 67, 127
2, 300182, Control_c, 0, 64, 65
2, 300182, Control_c, 0, 67, 126
2, 300201, Control_c, 0, 64, 67
2, 300219, Note_on_c, 0, 51, 0
2, 300220, Control_c, 0, 64, 69
2, 300220, Control_c, 0, 67, 126
2, 300239, Control_c, 0, 64, 72
2, 300239, Control_c, 0, 67, 125
2, 300259, Control_c, 0, 64, 74
2, 300259, Control_c, 0, 67, 125
2, 300277, Control_c, 0, 64, 74
2, 300297, Control_c, 0, 67, 124
2, 300308, Note_on_c, 0, 63, 46
2, 300315, Control_c, 0, 67, 123
2, 300335, Control_c, 0, 67, 123
2, 300353, Control_c, 0, 67, 122
2, 300372, Control_c, 0, 67, 121
2, 300383, Note_on_c, 0, 63, 0
2, 300412, Note_on_c, 0, 66, 0
2, 300449, Note_on_c, 0, 61, 42
2, 300462, Note_on_c, 0, 68, 56
2, 300507, Control_c, 0, 64, 74
2, 300526, Control_c, 0, 64, 73
2, 300546, Control_c, 0, 64, 73
2, 300564, Control_c, 0, 64, 72
2, 300570, Note_on_c, 0, 61, 0
2, 300573, Note_on_c, 0, 68, 0
2, 300609, Note_on_c, 0, 59, 41
2, 300637, Note_on_c, 0, 75, 0
2, 300680, Control_c, 0, 64, 73
2, 300794, Control_c, 0, 64, 72
2, 300796, Note_on_c, 0, 59, 0
2, 300813, Control_c, 0, 64, 71
2, 300832, Control_c, 0, 64, 67
2, 300832, Control_c, 0, 67, 122
2, 300844, Note_on_c, 0, 58, 44
2, 300851, Control_c, 0, 64, 57
2, 300855, Note_on_c, 0, 74, 55
2, 300863, Note_on_c, 0, 70, 58
2, 300871, Control_c, 0, 64, 27
2, 300890, Control_c, 0, 64, 0
2, 300928, Control_c, 0, 64, 24
2, 300945, Note_on_c, 0, 70, 0
2, 300948, Control_c, 0, 64, 50
2, 300967, Control_c, 0, 64, 62
2, 300986, Control_c, 0, 64, 65
2, 300986, Control_c, 0, 67, 122
2, 301005, Control_c, 0, 64, 67
2, 301025, Control_c, 0, 64, 69
2, 301043, Control_c, 0, 64, 73
2, 301063, Control_c, 0, 64, 78
2, 301082, Control_c, 0, 64, 82
2, 301102, Control_c, 0, 64, 83
2, 301102, Control_c, 0, 67, 122
2, 301120, Control_c, 0, 64, 82
2, 301120, Control_c, 0, 67, 121
2, 301140, Control_c, 0, 64, 81
2, 301159, Control_c, 0, 67, 120
2, 301178, Control_c, 0, 64, 82
2, 301178, Control_c, 0, 67, 119
2, 301197, Control_c, 0, 67, 118
2, 301217, Control_c, 0, 67, 117
2, 301236, Control_c, 0, 64, 82
2, 301236, Control_c, 0, 67, 112
2, 301241, Note_on_c, 0, 75, 55
2, 301255, Control_c, 0, 67, 107
2, 301265, Note_on_c, 0, 72, 36
2, 301278, Control_c, 0, 67, 101
2, 301287, Note_on_c, 0, 74, 0
2, 301298, Control_c, 0, 67, 96
2, 301305, Note_on_c, 0, 75, 0
2, 301309, Note_on_c, 0, 72, 0
2, 301316, Control_c, 0, 64, 82
2, 301316, Control_c, 0, 67, 91
2, 301336, Control_c, 0, 67, 88
2, 301355, Control_c, 0, 64, 81
2, 301355, Control_c, 0, 67, 87
2, 301373, Control_c, 0, 64, 81
2, 301393, Control_c, 0, 64, 80
2, 301527, Control_c, 0, 67, 87
2, 301547, Control_c, 0, 67, 86
2, 301566, Control_c, 0, 64, 78
2, 301566, Control_c, 0, 67, 85
2, 301585, Control_c, 0, 64, 73
2, 301604, Control_c, 0, 64, 66
2, 301604, Control_c, 0, 67, 83
2, 301624, Control_c, 0, 64, 59
2, 301624, Control_c, 0, 67, 78
2, 301642, Control_c, 0, 64, 55
2, 301642, Control_c, 0, 67, 71
2, 301652, Note_on_c, 0, 77, 66
2, 301662, Control_c, 0, 64, 56
2, 301662, Control_c, 0, 67, 61
2, 301663, Note_on_c, 0, 74, 35
2, 301681, Control_c, 0, 64, 60
2, 301681, Control_c, 0, 67, 49
2, 301698, Control_c, 0, 64, 62
2, 301698, Control_c, 0, 67, 35
2, 301698, Note_on_c, 0, 58, 0
2, 301717, Control_c, 0, 64, 64
2, 301717, Control_c, 0, 67, 18
2, 301736, Control_c, 0, 64, 66
2, 301736, Control_c, 0, 67, 0
2, 301755, Control_c, 0, 64, 67
2, 301775, Control_c, 0, 64, 70
2, 301793, Control_c, 0, 64, 72
2, 301812, Control_c, 0, 64, 74
2, 301832, Control_c, 0, 64, 76
2, 301851, Control_c, 0, 64, 77
2, 301966, Control_c, 0, 64, 77
2, 301986, Control_c, 0, 64, 77
2, 302004, Control_c, 0, 64, 74
2, 302011, Note_on_c, 0, 58, 44
2, 302024, Control_c, 0, 64, 69
2, 302043, Control_c, 0, 64, 62
2, 302048, Note_on_c, 0, 54, 37
2, 302048, Note_on_c, 0, 80, 65
2, 302063, Control_c, 0, 64, 53
2, 302081, Control_c, 0, 64, 49
2, 302101, Control_c, 0, 64, 50
2, 302120, Control_c, 0, 64, 54
2, 302137, Note_on_c, 0, 77, 0
2, 302139, Control_c, 0, 64, 59
2, 302158, Control_c, 0, 64, 63
2, 302178, Control_c, 0, 64, 65
2, 302197, Control_c, 0, 64, 67
2, 302216, Control_c, 0, 64, 70
2, 302236, Control_c, 0, 64, 74
2, 302256, Control_c, 0, 64, 77
2, 302274, Control_c, 0, 64, 79
2, 302351, Control_c, 0, 64, 78
2, 302361, Note_on_c, 0, 58, 0
2, 302370, Control_c, 0, 64, 76
2, 302390, Control_c, 0, 64, 71
2, 302408, Control_c, 0, 64, 63
2, 302428, Control_c, 0, 64, 45
2, 302437, Note_on_c, 0, 56, 41
2, 302437, Note_on_c, 0, 60, 42
2, 302439, Note_on_c, 0, 78, 68
2, 302443, Note_on_c, 0, 54, 0
2, 302447, Control_c, 0, 64, 0
2, 302505, Control_c, 0, 64, 31
2, 302524, Control_c, 0, 64, 55
2, 302543, Control_c, 0, 64, 64
2, 302562, Control_c, 0, 64, 67
2, 302582, Control_c, 0, 64, 70
2, 302601, Control_c, 0, 64, 76
2, 302620, Control_c, 0, 64, 85
2, 302639, Control_c, 0, 64, 94
2, 302658, Control_c, 0, 64, 96
2, 302696, Control_c, 0, 64, 92
2, 302715, Control_c, 0, 64, 82
2, 302734, Control_c, 0, 64, 69
2, 302753, Control_c, 0, 64, 57
2, 302772, Control_c, 0, 64, 45
2, 302792, Control_c, 0, 64, 52
2, 302808, Note_on_c, 0, 60, 0
2, 302809, Note_on_c, 0, 62, 62
2, 302811, Control_c, 0, 64, 60
2, 302814, Note_on_c, 0, 58, 43
2, 302823, Note_on_c, 0, 77, 61
2, 302830, Control_c, 0, 64, 63
2, 302833, Note_on_c, 0, 74, 0
2, 302849, Control_c, 0, 64, 66
2, 302869, Control_c, 0, 64, 69
2, 302887, Control_c, 0, 64, 74
2, 302907, Control_c, 0, 64, 78
2, 302926, Control_c, 0, 64, 82
2, 302932, Note_on_c, 0, 56, 0
2, 302944, Note_on_c, 0, 62, 0
2, 302946, Control_c, 0, 64, 82
2, 302979, Note_on_c, 0, 58, 0
2, 302992, Note_on_c, 0, 80, 0
2, 303115, Note_on_c, 0, 78, 0
2, 303118, Control_c, 0, 64, 82
2, 303138, Control_c, 0, 64, 81
2, 303157, Control_c, 0, 64, 79
2, 303176, Control_c, 0, 64, 75
2, 303192, Note_on_c, 0, 63, 62
2, 303195, Control_c, 0, 64, 68
2, 303214, Control_c, 0, 64, 61
2, 303227, Note_on_c, 0, 59, 53
2, 303233, Control_c, 0, 64, 50
2, 303252, Control_c, 0, 64, 45
2, 303260, Note_on_c, 0, 75, 52
2, 303291, Control_c, 0, 64, 48
2, 303298, Note_on_c, 0, 77, 0
2, 303310, Control_c, 0, 64, 55
2, 303329, Control_c, 0, 64, 61
2, 303349, Control_c, 0, 64, 64
2, 303367, Control_c, 0, 64, 66
2, 303387, Control_c, 0, 64, 67
2, 303406, Control_c, 0, 64, 68
2, 303426, Control_c, 0, 64, 70
2, 303444, Control_c, 0, 64, 71
2, 303521, Control_c, 0, 64, 71
2, 303576, Note_on_c, 0, 59, 0
2, 303593, Note_on_c, 0, 58, 40
2, 303599, Note_on_c, 0, 75, 0
2, 303616, Control_c, 0, 64, 72
2, 303620, Note_on_c, 0, 73, 52
2, 303635, Control_c, 0, 64, 73
2, 303653, Control_c, 0, 64, 72
2, 303673, Control_c, 0, 64, 72
2, 303692, Control_c, 0, 64, 71
2, 303712, Control_c, 0, 64, 70
2, 303723, Note_on_c, 0, 58, 0
2, 303846, Control_c, 0, 64, 69
2, 303868, Control_c, 0, 64, 66
2, 303887, Control_c, 0, 64, 63
2, 303907, Control_c, 0, 64, 60
2, 303925, Control_c, 0, 64, 58
2, 303944, Control_c, 0, 64, 59
2, 303960, Note_on_c, 0, 56, 46
2, 303964, Control_c, 0, 64, 62
2, 303983, Control_c, 0, 64, 63
2, 303999, Note_on_c, 0, 73, 0
2, 304000, Note_on_c, 0, 71, 49
2, 304002, Control_c, 0, 64, 65
2, 304021, Control_c, 0, 64, 67
2, 304041, Control_c, 0, 64, 69
2, 304060, Control_c, 0, 64, 71
2, 304079, Control_c, 0, 64, 72
2, 304098, Control_c, 0, 64, 73
2, 304168, Note_on_c, 0, 63, 0
2, 304176, Control_c, 0, 64, 74
2, 304195, Control_c, 0, 64, 74
2, 304272, Control_c, 0, 64, 73
2, 304291, Control_c, 0, 64, 70
2, 304311, Control_c, 0, 64, 65
2, 304330, Control_c, 0, 64, 63
2, 304348, Note_on_c, 0, 71, 0
2, 304349, Control_c, 0, 64, 64
2, 304356, Note_on_c, 0, 65, 67
2, 304368, Control_c, 0, 64, 66
2, 304373, Note_on_c, 0, 70, 52
2, 304388, Control_c, 0, 64, 67
2, 304406, Control_c, 0, 64, 68
2, 304425, Control_c, 0, 64, 70
2, 304445, Control_c, 0, 64, 73
2, 304464, Control_c, 0, 64, 75
2, 304483, Control_c, 0, 64, 76
2, 304496, Note_on_c, 0, 65, 0
2, 304502, Control_c, 0, 64, 76
2, 304522, Control_c, 0, 64, 76
2, 304541, Note_on_c, 0, 71, 51
2, 304555, Note_on_c, 0, 70, 0
2, 304607, Note_on_c, 0, 56, 0
2, 304616, Control_c, 0, 64, 75
2, 304655, Control_c, 0, 64, 75
2, 304713, Control_c, 0, 64, 73
2, 304732, Control_c, 0, 64, 71
2, 304751, Control_c, 0, 64, 66
2, 304759, Note_on_c, 0, 66, 67
2, 304769, Note_on_c, 0, 71, 0
2, 304770, Control_c, 0, 64, 61
2, 304790, Control_c, 0, 64, 59
2, 304797, Note_on_c, 0, 63, 50
2, 304809, Control_c, 0, 64, 60
2, 304810, Note_on_c, 0, 70, 60
2, 304828, Control_c, 0, 64, 62
2, 304847, Control_c, 0, 64, 64
2, 304867, Control_c, 0, 64, 65
2, 304885, Control_c, 0, 64, 67
2, 304904, Control_c, 0, 64, 68
2, 304924, Control_c, 0, 64, 69
2, 304943, Control_c, 0, 64, 69
2, 304981, Control_c, 0, 64, 69
2, 305039, Control_c, 0, 64, 67
2, 305058, Control_c, 0, 64, 63
2, 305078, Control_c, 0, 64, 56
2, 305096, Control_c, 0, 64, 44
2, 305117, Control_c, 0, 64, 32
2, 305136, Control_c, 0, 64, 27
2, 305155, Control_c, 0, 64, 29
2, 305171, Note_on_c, 0, 70, 0
2, 305174, Control_c, 0, 64, 46
2, 305179, Note_on_c, 0, 72, 66
2, 305194, Control_c, 0, 64, 60
2, 305213, Control_c, 0, 64, 65
2, 305232, Control_c, 0, 64, 67
2, 305251, Control_c, 0, 64, 70
2, 305271, Control_c, 0, 64, 75
2, 305290, Control_c, 0, 64, 79
2, 305305, Note_on_c, 0, 63, 0
2, 305309, Control_c, 0, 64, 82
2, 305328, Control_c, 0, 64, 83
2, 305352, Note_on_c, 0, 66, 0
2, 305366, Control_c, 0, 64, 82
2, 305405, Control_c, 0, 64, 82
2, 305482, Control_c, 0, 64, 80
2, 305500, Control_c, 0, 64, 75
2, 305520, Control_c, 0, 64, 66
2, 305539, Control_c, 0, 64, 55
2, 305550, Note_on_c, 0, 65, 67
2, 305559, Control_c, 0, 64, 41
2, 305575, Note_on_c, 0, 74, 57
2, 305577, Control_c, 0, 64, 40
2, 305597, Control_c, 0, 64, 43
2, 305605, Note_on_c, 0, 58, 43
2, 305616, Control_c, 0, 64, 51
2, 305636, Control_c, 0, 64, 59
2, 305654, Control_c, 0, 64, 63
2, 305674, Control_c, 0, 64, 65
2, 305693, Control_c, 0, 64, 66
2, 305712, Control_c, 0, 64, 67
2, 305731, Control_c, 0, 64, 69
2, 305751, Control_c, 0, 64, 70
2, 305770, Control_c, 0, 64, 70
2, 305789, Control_c, 0, 64, 71
2, 305808, Control_c, 0, 64, 71
2, 305865, Control_c, 0, 64, 72
2, 305904, Control_c, 0, 64, 71
2, 305923, Control_c, 0, 64, 67
2, 305936, Note_on_c, 0, 75, 64
2, 305937, Note_on_c, 0, 63, 67
2, 305942, Control_c, 0, 64, 58
2, 305962, Control_c, 0, 64, 32
2, 305980, Control_c, 0, 64, 9
2, 306000, Control_c, 0, 64, 20
2, 306001, Note_on_c, 0, 72, 0
2, 306019, Control_c, 0, 64, 43
2, 306039, Control_c, 0, 64, 58
2, 306057, Control_c, 0, 64, 64
2, 306078, Control_c, 0, 64, 66
2, 306097, Control_c, 0, 64, 70
2, 306116, Control_c, 0, 64, 73
2, 306126, Note_on_c, 0, 65, 0
2, 306135, Control_c, 0, 64, 74
2, 306155, Control_c, 0, 64, 75
2, 306193, Control_c, 0, 64, 75
2, 306250, Control_c, 0, 64, 75
2, 306289, Control_c, 0, 64, 75
2, 306309, Control_c, 0, 64, 73
2, 306327, Control_c, 0, 64, 68
2, 306346, Control_c, 0, 64, 59
2, 306361, Note_on_c, 0, 62, 68
2, 306366, Control_c, 0, 64, 9
2, 306375, Note_on_c, 0, 77, 61
2, 306385, Control_c, 0, 64, 0
2, 306407, Note_on_c, 0, 63, 0
2, 306420, Note_on_c, 0, 74, 0
2, 306461, Control_c, 0, 64, 45
2, 306481, Control_c, 0, 64, 61
2, 306500, Control_c, 0, 64, 65
2, 306519, Note_on_c, 0, 75, 0
2, 306520, Control_c, 0, 64, 66
2, 306538, Control_c, 0, 64, 68
2, 306558, Control_c, 0, 64, 71
2, 306577, Control_c, 0, 64, 73
2, 306596, Control_c, 0, 64, 74
2, 306673, Control_c, 0, 64, 74
2, 306692, Control_c, 0, 64, 70
2, 306712, Control_c, 0, 64, 64
2, 306728, Note_on_c, 0, 77, 0
2, 306730, Control_c, 0, 64, 46
2, 306749, Note_on_c, 0, 63, 76
2, 306750, Control_c, 0, 64, 0
2, 306763, Note_on_c, 0, 60, 56
2, 306766, Note_on_c, 0, 70, 71
2, 306774, Note_on_c, 0, 62, 0
2, 306826, Control_c, 0, 64, 38
2, 306846, Control_c, 0, 64, 58
2, 306865, Control_c, 0, 64, 63
2, 306884, Control_c, 0, 64, 65
2, 306903, Control_c, 0, 64, 66
2, 306923, Control_c, 0, 64, 68
2, 306929, Note_on_c, 0, 58, 0
2, 306941, Control_c, 0, 64, 70
2, 306961, Control_c, 0, 64, 72
2, 306980, Control_c, 0, 64, 73
2, 307018, Control_c, 0, 64, 72
2, 307057, Control_c, 0, 64, 73
2, 307130, Note_on_c, 0, 65, 66
2, 307140, Note_on_c, 0, 62, 63
2, 307146, Note_on_c, 0, 63, 0
2, 307153, Control_c, 0, 64, 71
2, 307167, Note_on_c, 0, 82, 74
2, 307172, Control_c, 0, 64, 65
2, 307192, Control_c, 0, 64, 50
2, 307196, Note_on_c, 0, 60, 0
2, 307210, Control_c, 0, 64, 21
2, 307230, Control_c, 0, 64, 0
2, 307287, Control_c, 0, 64, 27
2, 307306, Control_c, 0, 64, 47
2, 307326, Control_c, 0, 64, 58
2, 307345, Control_c, 0, 64, 60
2, 307364, Control_c, 0, 64, 61
2, 307383, Control_c, 0, 64, 62
2, 307403, Control_c, 0, 64, 63
2, 307421, Control_c, 0, 64, 63
2, 307441, Control_c, 0, 64, 64
2, 307442, Note_on_c, 0, 70, 0
2, 307479, Control_c, 0, 64, 65
2, 307497, Control_c, 0, 64, 66
2, 307517, Control_c, 0, 64, 68
2, 307530, Note_on_c, 0, 80, 78
2, 307536, Control_c, 0, 64, 69
2, 307556, Control_c, 0, 64, 71
2, 307574, Control_c, 0, 64, 72
2, 307766, Control_c, 0, 64, 72
2, 307785, Control_c, 0, 64, 71
2, 307805, Control_c, 0, 64, 70
2, 307824, Control_c, 0, 64, 67
2, 307843, Control_c, 0, 64, 63
2, 307862, Control_c, 0, 64, 50
2, 307882, Control_c, 0, 64, 0
2, 307900, Note_on_c, 0, 63, 59
2, 307919, Note_on_c, 0, 65, 0
2, 307952, Note_on_c, 0, 62, 0
2, 307952, Note_on_c, 0, 78, 77
2, 307962, Control_c, 0, 64, 34
2, 307980, Control_c, 0, 64, 57
2, 307997, Note_on_c, 0, 82, 0
2, 308001, Control_c, 0, 64, 64
2, 308016, Note_on_c, 0, 80, 0
2, 308020, Control_c, 0, 64, 66
2, 308039, Control_c, 0, 64, 68
2, 308058, Control_c, 0, 64, 70
2, 308077, Control_c, 0, 64, 71
2, 308097, Control_c, 0, 64, 73
2, 308115, Control_c, 0, 64, 75
2, 308135, Control_c, 0, 64, 76
2, 308152, Note_on_c, 0, 63, 0
2, 308154, Control_c, 0, 64, 76
2, 308192, Control_c, 0, 64, 76
2, 308212, Control_c, 0, 64, 75
2, 308231, Control_c, 0, 64, 72
2, 308250, Control_c, 0, 64, 65
2, 308269, Control_c, 0, 64, 51
2, 308289, Control_c, 0, 64, 35
2, 308300, Note_on_c, 0, 63, 49
2, 308301, Note_on_c, 0, 59, 54
2, 308302, Note_on_c, 0, 80, 82
2, 308308, Control_c, 0, 64, 38
2, 308327, Control_c, 0, 64, 48
2, 308346, Control_c, 0, 64, 59
2, 308366, Control_c, 0, 64, 63
2, 308384, Control_c, 0, 64, 66
2, 308404, Control_c, 0, 64, 68
2, 308422, Control_c, 0, 64, 71
2, 308442, Control_c, 0, 64, 73
2, 308450, Note_on_c, 0, 62, 58
2, 308455, Note_on_c, 0, 59, 0
2, 308457, Note_on_c, 0, 63, 0
2, 308460, Control_c, 0, 64, 73
2, 308497, Note_on_c, 0, 62, 0
2, 308499, Control_c, 0, 64, 73
2, 308594, Control_c, 0, 64, 72
2, 308653, Control_c, 0, 64, 72
2, 308654, Note_on_c, 0, 63, 54
2, 308671, Control_c, 0, 64, 70
2, 308672, Note_on_c, 0, 54, 49
2, 308672, Note_on_c, 0, 82, 83
2, 308691, Control_c, 0, 64, 65
2, 308710, Control_c, 0, 64, 56
2, 308729, Control_c, 0, 64, 39
2, 308748, Control_c, 0, 64, 23
2, 308768, Control_c, 0, 64, 9
2, 308787, Control_c, 0, 64, 0
2, 308794, Note_on_c, 0, 78, 0
2, 308795, Note_on_c, 0, 80, 0
2, 308825, Control_c, 0, 64, 11
2, 308845, Control_c, 0, 64, 22
2, 308863, Control_c, 0, 64, 29
2, 308883, Control_c, 0, 64, 35
2, 308902, Control_c, 0, 64, 40
2, 308922, Control_c, 0, 64, 46
2, 308940, Control_c, 0, 64, 52
2, 308960, Control_c, 0, 64, 55
2, 308979, Control_c, 0, 64, 57
2, 308999, Control_c, 0, 64, 59
2, 309017, Control_c, 0, 64, 61
2, 309036, Control_c, 0, 64, 62
2, 309056, Control_c, 0, 64, 64
2, 309073, Note_on_c, 0, 56, 54
2, 309074, Control_c, 0, 64, 65
2, 309088, Note_on_c, 0, 83, 82
2, 309094, Control_c, 0, 64, 66
2, 309113, Control_c, 0, 64, 68
2, 309133, Control_c, 0, 64, 70
2, 309151, Control_c, 0, 64, 73
2, 309163, Note_on_c, 0, 82, 0
2, 309170, Note_on_c, 0, 63, 0
2, 309171, Control_c, 0, 64, 77
2, 309190, Control_c, 0, 64, 80
2, 309209, Control_c, 0, 64, 81
2, 309248, Control_c, 0, 64, 81
2, 309277, Note_on_c, 0, 54, 0
2, 309343, Control_c, 0, 64, 80
2, 309363, Control_c, 0, 64, 80
2, 309381, Control_c, 0, 64, 79
2, 309401, Control_c, 0, 64, 76
2, 309419, Control_c, 0, 64, 70
2, 309439, Control_c, 0, 64, 62
2, 309458, Control_c, 0, 64, 45
2, 309477, Control_c, 0, 64, 31
2, 309480, Note_on_c, 0, 58, 58
2, 309483, Note_on_c, 0, 56, 0
2, 309489, Note_on_c, 0, 77, 73
2, 309512, Note_on_c, 0, 83, 0
2, 309515, Control_c, 0, 64, 38
2, 309535, Control_c, 0, 64, 56
2, 309553, Control_c, 0, 64, 63
2, 309573, Control_c, 0, 64, 65
2, 309592, Control_c, 0, 64, 66
2, 309612, Control_c, 0, 64, 68
2, 309630, Control_c, 0, 64, 68
2, 309650, Control_c, 0, 64, 69
2, 309707, Control_c, 0, 64, 68
2, 309727, Control_c, 0, 64, 68
2, 309746, Control_c, 0, 64, 65
2, 309765, Control_c, 0, 64, 58
2, 309784, Control_c, 0, 64, 43
2, 309804, Control_c, 0, 64, 31
2, 309823, Control_c, 0, 64, 34
2, 309842, Control_c, 0, 64, 49
2, 309861, Control_c, 0, 64, 62
2, 309881, Control_c, 0, 64, 68
2, 309899, Control_c, 0, 64, 75
2, 309903, Note_on_c, 0, 61, 51
2, 309920, Control_c, 0, 64, 93
2, 309939, Control_c, 0, 64, 127
2, 310012, Note_on_c, 0, 61, 0
2, 310070, Note_on_c, 0, 58, 0
2, 310169, Control_c, 0, 64, 123
2, 310188, Control_c, 0, 64, 108
2, 310208, Control_c, 0, 64, 101
2, 310227, Control_c, 0, 64, 96
2, 310246, Control_c, 0, 64, 94
2, 310262, Note_on_c, 0, 51, 46
2, 310265, Control_c, 0, 64, 89
2, 310285, Control_c, 0, 64, 79
2, 310290, Note_on_c, 0, 79, 54
2, 310295, Note_on_c, 0, 59, 29
2, 310303, Control_c, 0, 64, 67
2, 310323, Control_c, 0, 64, 48
2, 310342, Control_c, 0, 64, 0
2, 310611, Control_c, 0, 64, 47
2, 310630, Control_c, 0, 64, 63
2, 310649, Control_c, 0, 64, 65
2, 310668, Control_c, 0, 64, 68
2, 310678, Note_on_c, 0, 58, 46
2, 310688, Control_c, 0, 64, 73
2, 310691, Note_on_c, 0, 59, 0
2, 310707, Control_c, 0, 64, 84
2, 310722, Note_on_c, 0, 51, 0
2, 310726, Control_c, 0, 64, 102
2, 310745, Control_c, 0, 64, 127
2, 310750, Note_on_c, 0, 58, 0
2, 311014, Control_c, 0, 64, 95
2, 311015, Note_on_c, 0, 77, 0
2, 311033, Control_c, 0, 64, 74
2, 311053, Control_c, 0, 64, 58
2, 311071, Control_c, 0, 64, 17
2, 311078, Note_on_c, 0, 56, 49
2, 311091, Control_c, 0, 64, 0
2, 311097, Note_on_c, 0, 80, 68
2, 311106, Note_on_c, 0, 59, 32
2, 311129, Control_c, 0, 64, 37
2, 311148, Control_c, 0, 64, 60
2, 311155, Note_on_c, 0, 79, 0
2, 311168, Control_c, 0, 64, 68
2, 311187, Control_c, 0, 64, 79
2, 311206, Control_c, 0, 64, 99
2, 311225, Control_c, 0, 64, 127
2, 311321, Control_c, 0, 64, 114
2, 311339, Control_c, 0, 64, 99
2, 311358, Control_c, 0, 64, 96
2, 311378, Control_c, 0, 64, 98
2, 311397, Control_c, 0, 64, 101
2, 311416, Control_c, 0, 64, 103
2, 311435, Control_c, 0, 64, 104
2, 311437, Note_on_c, 0, 59, 0
2, 311455, Control_c, 0, 64, 104
2, 311458, Note_on_c, 0, 58, 55
2, 311473, Control_c, 0, 64, 106
2, 311481, Note_on_c, 0, 78, 65
2, 311493, Control_c, 0, 64, 107
2, 311493, Note_on_c, 0, 56, 0
2, 311503, Note_on_c, 0, 63, 40
2, 311512, Control_c, 0, 64, 108
2, 311522, Note_on_c, 0, 58, 0
2, 311549, Note_on_c, 0, 63, 0
2, 311757, Note_on_c, 0, 80, 0
2, 311762, Control_c, 0, 64, 107
2, 311781, Control_c, 0, 64, 106
2, 311801, Control_c, 0, 64, 106
2, 311819, Control_c, 0, 64, 104
2, 311840, Control_c, 0, 64, 99
2, 311859, Control_c, 0, 64, 92
2, 311867, Note_on_c, 0, 59, 58
2, 311878, Control_c, 0, 64, 77
2, 311891, Note_on_c, 0, 68, 43
2, 311897, Control_c, 0, 64, 66
2, 311899, Note_on_c, 0, 77, 55
2, 311908, Note_on_c, 0, 78, 0
2, 311916, Control_c, 0, 64, 54
2, 311936, Control_c, 0, 64, 37
2, 311954, Control_c, 0, 64, 34
2, 311974, Control_c, 0, 64, 36
2, 311993, Control_c, 0, 64, 42
2, 312013, Control_c, 0, 64, 45
2, 312031, Control_c, 0, 64, 46
2, 312051, Control_c, 0, 64, 46
2, 312070, Control_c, 0, 64, 47
2, 312089, Control_c, 0, 64, 49
2, 312108, Control_c, 0, 64, 50
2, 312128, Control_c, 0, 64, 51
2, 312147, Control_c, 0, 64, 52
2, 312166, Control_c, 0, 64, 54
2, 312185, Control_c, 0, 64, 56
2, 312205, Control_c, 0, 64, 58
2, 312223, Control_c, 0, 64, 61
2, 312243, Control_c, 0, 64, 63
2, 312262, Control_c, 0, 64, 65
2, 312282, Control_c, 0, 64, 67
2, 312286, Note_on_c, 0, 75, 54
2, 312300, Control_c, 0, 64, 71
2, 312320, Control_c, 0, 64, 77
2, 312325, Note_on_c, 0, 77, 0
2, 312339, Control_c, 0, 64, 85
2, 312358, Control_c, 0, 64, 92
2, 312377, Control_c, 0, 64, 95
2, 312396, Control_c, 0, 64, 96
2, 312416, Control_c, 0, 64, 96
2, 312434, Control_c, 0, 64, 97
2, 312454, Control_c, 0, 64, 98
2, 312473, Control_c, 0, 64, 99
2, 312588, Control_c, 0, 64, 98
2, 312588, Note_on_c, 0, 68, 0
2, 312608, Control_c, 0, 64, 96
2, 312627, Control_c, 0, 64, 93
2, 312646, Control_c, 0, 64, 89
2, 312665, Control_c, 0, 64, 84
2, 312685, Control_c, 0, 64, 79
2, 312694, Note_on_c, 0, 58, 52
2, 312703, Control_c, 0, 64, 73
2, 312716, Note_on_c, 0, 74, 54
2, 312723, Control_c, 0, 64, 67
2, 312742, Control_c, 0, 64, 63
2, 312744, Note_on_c, 0, 59, 0
2, 312762, Control_c, 0, 64, 60
2, 312780, Control_c, 0, 64, 59
2, 312822, Control_c, 0, 64, 58
2, 312831, Note_on_c, 0, 75, 0
2, 312917, Control_c, 0, 64, 58
2, 312975, Control_c, 0, 64, 58
2, 313014, Control_c, 0, 64, 59
2, 313033, Control_c, 0, 64, 60
2, 313052, Control_c, 0, 64, 62
2, 313071, Control_c, 0, 64, 64
2, 313091, Control_c, 0, 64, 65
2, 313107, Note_on_c, 0, 66, 39
2, 313109, Control_c, 0, 64, 67
2, 313129, Control_c, 0, 64, 70
2, 313148, Control_c, 0, 64, 75
2, 313168, Control_c, 0, 64, 81
2, 313186, Control_c, 0, 64, 86
2, 313206, Control_c, 0, 64, 88
2, 313337, Control_c, 0, 64, 87
2, 313356, Control_c, 0, 64, 87
2, 313376, Control_c, 0, 64, 84
2, 313394, Control_c, 0, 64, 79
2, 313414, Control_c, 0, 64, 72
2, 313433, Control_c, 0, 64, 66
2, 313452, Note_on_c, 0, 66, 0
2, 313453, Control_c, 0, 64, 63
2, 313471, Control_c, 0, 64, 62
2, 313491, Control_c, 0, 64, 63
2, 313493, Note_on_c, 0, 65, 47
2, 313510, Control_c, 0, 64, 64
2, 313516, Note_on_c, 0, 75, 50
2, 313529, Control_c, 0, 64, 67
2, 313548, Control_c, 0, 64, 69
2, 313568, Control_c, 0, 64, 72
2, 313587, Control_c, 0, 64, 74
2, 313606, Control_c, 0, 64, 74
2, 313625, Control_c, 0, 64, 74
2, 313662, Note_on_c, 0, 74, 0
2, 313663, Control_c, 0, 64, 73
2, 313702, Control_c, 0, 64, 73
2, 313740, Control_c, 0, 64, 72
2, 313761, Control_c, 0, 64, 72
2, 313780, Control_c, 0, 64, 69
2, 313798, Control_c, 0, 64, 65
2, 313818, Control_c, 0, 64, 62
2, 313837, Control_c, 0, 64, 60
2, 313857, Control_c, 0, 64, 60
2, 313875, Control_c, 0, 64, 62
2, 313884, Note_on_c, 0, 63, 51
2, 313886, Note_on_c, 0, 65, 0
2, 313895, Control_c, 0, 64, 64
2, 313914, Control_c, 0, 64, 66
2, 313933, Control_c, 0, 64, 68
2, 313952, Control_c, 0, 64, 71
2, 313972, Control_c, 0, 64, 73
2, 313991, Control_c, 0, 64, 75
2, 314029, Control_c, 0, 64, 74
2, 314106, Control_c, 0, 64, 74
2, 314126, Control_c, 0, 64, 73
2, 314202, Control_c, 0, 64, 73
2, 314220, Control_c, 0, 64, 72
2, 314240, Control_c, 0, 64, 71
2, 314259, Control_c, 0, 64, 70
2, 314278, Control_c, 0, 64, 69
2, 314286, Note_on_c, 0, 63, 0
2, 314294, Note_on_c, 0, 65, 52
2, 314297, Control_c, 0, 64, 67
2, 314316, Control_c, 0, 64, 66
2, 314336, Control_c, 0, 64, 65
2, 314354, Control_c, 0, 64, 64
2, 314374, Control_c, 0, 64, 63
2, 314393, Control_c, 0, 64, 61
2, 314413, Control_c, 0, 64, 59
2, 314431, Control_c, 0, 64, 58
2, 314451, Control_c, 0, 64, 56
2, 314470, Control_c, 0, 64, 55
2, 314489, Control_c, 0, 64, 54
2, 314508, Control_c, 0, 64, 52
2, 314528, Control_c, 0, 64, 51
2, 314566, Control_c, 0, 64, 51
2, 314605, Control_c, 0, 64, 51
2, 314623, Control_c, 0, 64, 52
2, 314643, Control_c, 0, 64, 54
2, 314662, Control_c, 0, 64, 57
2, 314673, Note_on_c, 0, 73, 46
2, 314682, Control_c, 0, 64, 59
2, 314700, Control_c, 0, 64, 60
2, 314722, Control_c, 0, 64, 60
2, 314741, Control_c, 0, 64, 61
2, 314779, Control_c, 0, 64, 61
2, 314894, Control_c, 0, 64, 61
2, 314913, Control_c, 0, 64, 60
2, 314933, Control_c, 0, 64, 59
2, 314952, Control_c, 0, 64, 58
2, 314963, Note_on_c, 0, 75, 0
2, 314971, Control_c, 0, 64, 56
2, 314990, Control_c, 0, 64, 55
2, 315010, Control_c, 0, 64, 55
2, 315028, Control_c, 0, 64, 56
2, 315048, Control_c, 0, 64, 59
2, 315067, Control_c, 0, 64, 62
2, 315075, Note_on_c, 0, 73, 0
2, 315076, Note_on_c, 0, 67, 40
2, 315087, Control_c, 0, 64, 63
2, 315102, Note_on_c, 0, 71, 48
2, 315105, Control_c, 0, 64, 64
2, 315119, Note_on_c, 0, 65, 0
2, 315125, Control_c, 0, 64, 64
2, 315142, Control_c, 0, 64, 65
2, 315162, Control_c, 0, 64, 66
2, 315180, Control_c, 0, 64, 66
2, 315296, Control_c, 0, 64, 66
2, 315334, Control_c, 0, 64, 65
2, 315353, Control_c, 0, 64, 64
2, 315373, Control_c, 0, 64, 62
2, 315391, Control_c, 0, 64, 58
2, 315411, Control_c, 0, 64, 49
2, 315430, Control_c, 0, 64, 31
2, 315448, Note_on_c, 0, 70, 53
2, 315449, Control_c, 0, 64, 0
2, 315488, Control_c, 0, 64, 9
2, 315488, Control_c, 0, 67, 9
2, 315504, Note_on_c, 0, 71, 0
2, 315507, Control_c, 0, 64, 44
2, 315507, Control_c, 0, 67, 15
2, 315526, Control_c, 0, 64, 60
2, 315526, Control_c, 0, 67, 20
2, 315545, Control_c, 0, 64, 66
2, 315545, Control_c, 0, 67, 24
2, 315565, Control_c, 0, 64, 70
2, 315565, Control_c, 0, 67, 26
2, 315583, Control_c, 0, 64, 80
2, 315583, Control_c, 0, 67, 26
2, 315603, Control_c, 0, 64, 89
2, 315622, Control_c, 0, 64, 92
2, 315642, Control_c, 0, 67, 26
2, 315679, Control_c, 0, 67, 25
2, 315718, Control_c, 0, 64, 91
2, 315737, Control_c, 0, 64, 91
2, 315761, Note_on_c, 0, 70, 0
2, 315814, Control_c, 0, 64, 90
2, 315833, Control_c, 0, 64, 87
2, 315853, Control_c, 0, 64, 78
2, 315853, Note_on_c, 0, 71, 53
2, 315863, Note_on_c, 0, 68, 50
2, 315871, Control_c, 0, 64, 69
2, 315871, Control_c, 0, 67, 25
2, 315891, Control_c, 0, 64, 61
2, 315893, Note_on_c, 0, 67, 0
2, 315910, Control_c, 0, 64, 51
2, 315910, Control_c, 0, 67, 24
2, 315929, Control_c, 0, 64, 46
2, 315948, Control_c, 0, 64, 47
2, 315948, Control_c, 0, 67, 24
2, 315968, Control_c, 0, 64, 50
2, 315968, Control_c, 0, 67, 23
2, 315987, Control_c, 0, 64, 57
2, 315987, Control_c, 0, 67, 23
2, 316006, Control_c, 0, 64, 61
2, 316006, Control_c, 0, 67, 22
2, 316025, Control_c, 0, 64, 63
2, 316025, Control_c, 0, 67, 22
2, 316045, Control_c, 0, 64, 64
2, 316045, Control_c, 0, 67, 21
2, 316063, Control_c, 0, 64, 65
2, 316063, Control_c, 0, 67, 20
2, 316083, Control_c, 0, 64, 66
2, 316083, Control_c, 0, 67, 19
2, 316102, Control_c, 0, 67, 18
2, 316140, Control_c, 0, 67, 18
2, 316198, Control_c, 0, 64, 65
2, 316217, Control_c, 0, 64, 65
2, 316236, Control_c, 0, 64, 64
2, 316237, Note_on_c, 0, 58, 0
2, 316251, Note_on_c, 0, 70, 51
2, 316256, Control_c, 0, 67, 17
2, 316260, Note_on_c, 0, 68, 0
2, 316291, Note_on_c, 0, 66, 16
2, 316294, Control_c, 0, 64, 64
2, 316294, Control_c, 0, 67, 17
2, 316313, Control_c, 0, 64, 65
2, 316333, Control_c, 0, 64, 65
2, 316333, Control_c, 0, 67, 16
2, 316351, Control_c, 0, 64, 66
2, 316351, Control_c, 0, 67, 16
2, 316371, Control_c, 0, 64, 66
2, 316390, Control_c, 0, 67, 15
2, 316428, Control_c, 0, 64, 66
2, 316448, Control_c, 0, 67, 14
2, 316467, Control_c, 0, 67, 14
2, 316486, Control_c, 0, 67, 13
2, 316501, Note_on_c, 0, 71, 0
2, 316505, Control_c, 0, 64, 66
2, 316505, Control_c, 0, 67, 13
2, 316525, Control_c, 0, 64, 67
2, 316525, Control_c, 0, 67, 12
2, 316543, Control_c, 0, 64, 68
2, 316543, Control_c, 0, 67, 12
2, 316563, Control_c, 0, 64, 72
2, 316563, Control_c, 0, 67, 11
2, 316582, Control_c, 0, 64, 77
2, 316582, Control_c, 0, 67, 10
2, 316602, Control_c, 0, 64, 84
2, 316602, Control_c, 0, 67, 0
2, 316620, Control_c, 0, 64, 90
2, 316641, Control_c, 0, 64, 93
2, 316676, Note_on_c, 0, 68, 55
2, 316701, Note_on_c, 0, 66, 0
2, 316706, Note_on_c, 0, 65, 31
2, 316737, Control_c, 0, 64, 93
2, 316738, Note_on_c, 0, 70, 0
2, 316832, Control_c, 0, 64, 93
2, 316871, Control_c, 0, 64, 92
2, 316890, Control_c, 0, 64, 92
2, 316900, Note_on_c, 0, 68, 0
2, 316909, Control_c, 0, 64, 91
2, 316928, Note_on_c, 0, 68, 30
2, 316929, Control_c, 0, 64, 91
2, 316986, Control_c, 0, 64, 90
2, 317057, Note_on_c, 0, 65, 0
2, 317084, Note_on_c, 0, 63, 56
2, 317097, Control_c, 0, 64, 90
2, 317115, Control_c, 0, 64, 89
2, 317135, Control_c, 0, 64, 89
2, 317250, Control_c, 0, 64, 88
2, 317289, Control_c, 0, 64, 88
2, 317327, Control_c, 0, 64, 87
2, 317346, Control_c, 0, 64, 86
2, 317366, Control_c, 0, 64, 86
2, 317443, Control_c, 0, 64, 84
2, 317461, Control_c, 0, 64, 80
2, 317481, Control_c, 0, 64, 73
2, 317491, Note_on_c, 0, 46, 79
2, 317500, Control_c, 0, 64, 64
2, 317501, Note_on_c, 0, 62, 47
2, 317518, Control_c, 0, 64, 53
2, 317527, Note_on_c, 0, 63, 0
2, 317538, Control_c, 0, 64, 40
2, 317557, Control_c, 0, 64, 35
2, 317599, Control_c, 0, 64, 38
2, 317619, Control_c, 0, 64, 41
2, 317638, Control_c, 0, 64, 43
2, 317657, Control_c, 0, 64, 46
2, 317676, Control_c, 0, 64, 48
2, 317696, Control_c, 0, 64, 50
2, 317714, Control_c, 0, 64, 52
2, 317734, Control_c, 0, 64, 54
2, 317753, Control_c, 0, 64, 54
2, 317811, Control_c, 0, 64, 55
2, 317849, Control_c, 0, 64, 56
2, 317868, Control_c, 0, 64, 57
2, 317888, Control_c, 0, 64, 59
2, 317907, Control_c, 0, 64, 62
2, 317926, Control_c, 0, 64, 64
2, 317944, Note_on_c, 0, 66, 53
2, 317945, Control_c, 0, 64, 65
2, 317965, Control_c, 0, 64, 68
2, 317983, Control_c, 0, 64, 72
2, 317987, Note_on_c, 0, 46, 0
2, 318003, Control_c, 0, 64, 79
2, 318021, Control_c, 0, 64, 86
2, 318041, Control_c, 0, 64, 90
2, 318059, Control_c, 0, 64, 90
2, 318068, Note_on_c, 0, 62, 0
2, 318075, Note_on_c, 0, 65, 64
2, 318130, Note_on_c, 0, 68, 0
2, 318148, Note_on_c, 0, 66, 0
2, 318290, Control_c, 0, 64, 90
2, 318309, Control_c, 0, 64, 89
2, 318328, Control_c, 0, 64, 87
2, 318330, Note_on_c, 0, 39, 86
2, 318333, Note_on_c, 0, 65, 0
2, 318347, Control_c, 0, 64, 85
2, 318367, Control_c, 0, 64, 81
2, 318373, Note_on_c, 0, 66, 52
2, 318375, Note_on_c, 0, 63, 54
2, 318386, Control_c, 0, 64, 75
2, 318405, Control_c, 0, 64, 68
2, 318424, Control_c, 0, 64, 63
2, 318444, Control_c, 0, 64, 56
2, 318463, Control_c, 0, 64, 53
2, 318501, Control_c, 0, 64, 54
2, 318521, Control_c, 0, 64, 54
2, 318539, Control_c, 0, 64, 55
2, 318559, Control_c, 0, 64, 56
2, 318579, Control_c, 0, 64, 56
2, 318598, Control_c, 0, 64, 57
2, 318636, Control_c, 0, 64, 57
2, 318751, Control_c, 0, 64, 58
2, 318771, Control_c, 0, 64, 59
2, 318790, Control_c, 0, 64, 61
2, 318809, Control_c, 0, 64, 63
2, 318823, Note_on_c, 0, 65, 52
2, 318823, Note_on_c, 0, 68, 65
2, 318828, Control_c, 0, 64, 64
2, 318848, Control_c, 0, 64, 65
2, 318867, Control_c, 0, 64, 66
2, 318878, Note_on_c, 0, 66, 0
2, 318886, Control_c, 0, 64, 66
2, 318905, Control_c, 0, 64, 67
2, 318925, Control_c, 0, 64, 68
2, 318943, Control_c, 0, 64, 68
2, 318963, Note_on_c, 0, 63, 0
2, 318982, Control_c, 0, 64, 69
2, 319020, Control_c, 0, 64, 68
2, 319116, Control_c, 0, 64, 68
2, 319136, Control_c, 0, 64, 66
2, 319154, Control_c, 0, 64, 63
2, 319174, Control_c, 0, 64, 59
2, 319193, Control_c, 0, 64, 56
2, 319193, Note_on_c, 0, 70, 83
2, 319203, Note_on_c, 0, 68, 0
2, 319214, Note_on_c, 0, 66, 64
2, 319231, Control_c, 0, 64, 58
2, 319251, Control_c, 0, 64, 61
2, 319261, Note_on_c, 0, 65, 0
2, 319270, Control_c, 0, 64, 63
2, 319289, Control_c, 0, 64, 65
2, 319308, Control_c, 0, 64, 67
2, 319328, Control_c, 0, 64, 69
2, 319347, Control_c, 0, 64, 70
2, 319366, Control_c, 0, 64, 71
2, 319385, Control_c, 0, 64, 72
2, 319443, Control_c, 0, 64, 71
2, 319462, Control_c, 0, 64, 69
2, 319482, Control_c, 0, 64, 65
2, 319500, Control_c, 0, 64, 62
2, 319518, Control_c, 0, 64, 59
2, 319521, Note_on_c, 0, 39, 0
2, 319538, Control_c, 0, 64, 59
2, 319557, Control_c, 0, 64, 61
2, 319576, Control_c, 0, 64, 64
2, 319579, Note_on_c, 0, 38, 79
2, 319584, Note_on_c, 0, 65, 58
2, 319595, Control_c, 0, 64, 66
2, 319615, Control_c, 0, 64, 69
2, 319633, Control_c, 0, 64, 73
2, 319653, Control_c, 0, 64, 78
2, 319672, Control_c, 0, 64, 83
2, 319692, Control_c, 0, 64, 86
2, 319694, Note_on_c, 0, 66, 0
2, 319710, Control_c, 0, 64, 87
2, 319749, Control_c, 0, 64, 87
2, 319826, Control_c, 0, 64, 86
2, 319845, Control_c, 0, 64, 86
2, 319884, Control_c, 0, 64, 85
2, 319903, Control_c, 0, 64, 82
2, 319922, Control_c, 0, 64, 75
2, 319937, Note_on_c, 0, 38, 0
2, 319941, Control_c, 0, 64, 66
2, 319956, Note_on_c, 0, 39, 68
2, 319961, Control_c, 0, 64, 57
2, 319974, Note_on_c, 0, 63, 81
2, 319979, Control_c, 0, 64, 31
2, 319979, Note_on_c, 0, 66, 52
2, 319990, Note_on_c, 0, 65, 0
2, 319998, Control_c, 0, 64, 0
2, 320003, Note_on_c, 0, 70, 0
2, 320325, Control_c, 0, 64, 25
2, 320337, Note_on_c, 0, 41, 68
2, 320344, Control_c, 0, 64, 45
2, 320362, Note_on_c, 0, 68, 58
2, 320364, Control_c, 0, 64, 56
2, 320383, Control_c, 0, 64, 60
2, 320402, Control_c, 0, 64, 62
2, 320421, Control_c, 0, 64, 63
2, 320434, Note_on_c, 0, 39, 0
2, 320440, Control_c, 0, 64, 64
2, 320482, Control_c, 0, 64, 65
2, 320509, Note_on_c, 0, 66, 0
2, 320578, Control_c, 0, 64, 64
2, 320654, Control_c, 0, 64, 64
2, 320673, Control_c, 0, 64, 63
2, 320693, Control_c, 0, 64, 62
2, 320712, Control_c, 0, 64, 59
2, 320731, Control_c, 0, 64, 52
2, 320750, Control_c, 0, 64, 33
2, 320750, Note_on_c, 0, 70, 61
2, 320759, Note_on_c, 0, 42, 69
2, 320764, Note_on_c, 0, 68, 0
2, 320770, Control_c, 0, 64, 0
2, 320785, Note_on_c, 0, 41, 0
2, 320865, Control_c, 0, 64, 48
2, 320885, Control_c, 0, 64, 59
2, 320902, Control_c, 0, 64, 61
2, 320922, Control_c, 0, 64, 62
2, 320940, Control_c, 0, 64, 63
2, 320959, Control_c, 0, 64, 64
2, 320998, Control_c, 0, 64, 64
2, 321036, Control_c, 0, 64, 64
2, 321036, Note_on_c, 0, 63, 0
2, 321056, Control_c, 0, 64, 63
2, 321074, Control_c, 0, 64, 62
2, 321094, Control_c, 0, 64, 57
2, 321113, Control_c, 0, 64, 49
2, 321120, Note_on_c, 0, 41, 65
2, 321133, Control_c, 0, 64, 38
2, 321133, Note_on_c, 0, 62, 58
2, 321151, Control_c, 0, 64, 29
2, 321163, Note_on_c, 0, 68, 60
2, 321171, Control_c, 0, 64, 30
2, 321182, Note_on_c, 0, 42, 0
2, 321190, Control_c, 0, 64, 44
2, 321209, Control_c, 0, 64, 56
2, 321228, Control_c, 0, 64, 62
2, 321248, Control_c, 0, 64, 64
2, 321267, Control_c, 0, 64, 66
2, 321286, Control_c, 0, 64, 68
2, 321305, Control_c, 0, 64, 70
2, 321325, Control_c, 0, 64, 71
2, 321343, Control_c, 0, 64, 71
2, 321440, Control_c, 0, 64, 71
2, 321478, Control_c, 0, 64, 70
2, 321498, Control_c, 0, 64, 68
2, 321511, Note_on_c, 0, 41, 0
2, 321514, Note_on_c, 0, 66, 56
2, 321517, Control_c, 0, 64, 64
2, 321526, Note_on_c, 0, 39, 54
2, 321537, Control_c, 0, 64, 51
2, 321542, Note_on_c, 0, 63, 54
2, 321555, Control_c, 0, 64, 0
2, 321653, Note_on_c, 0, 70, 0
2, 321671, Control_c, 0, 64, 20
2, 321690, Control_c, 0, 64, 59
2, 321709, Control_c, 0, 64, 66
2, 321729, Control_c, 0, 64, 71
2, 321748, Control_c, 0, 64, 77
2, 321751, Note_on_c, 0, 63, 0
2, 321767, Control_c, 0, 64, 81
2, 321786, Control_c, 0, 64, 76
2, 321806, Control_c, 0, 64, 67
2, 321824, Control_c, 0, 64, 58
2, 321844, Control_c, 0, 64, 47
2, 321861, Control_c, 0, 64, 50
2, 321869, Note_on_c, 0, 62, 0
2, 321877, Note_on_c, 0, 68, 0
2, 321880, Control_c, 0, 64, 56
2, 321899, Control_c, 0, 64, 61
2, 321917, Note_on_c, 0, 65, 58
2, 321918, Control_c, 0, 64, 65
2, 321938, Control_c, 0, 64, 67
2, 321957, Control_c, 0, 64, 69
2, 321976, Control_c, 0, 64, 71
2, 321985, Note_on_c, 0, 66, 0
2, 321995, Control_c, 0, 64, 72
2, 322072, Note_on_c, 0, 63, 63
2, 322133, Control_c, 0, 64, 73
2, 322152, Control_c, 0, 64, 73
2, 322156, Note_on_c, 0, 65, 0
2, 322174, Note_on_c, 0, 63, 0
2, 322209, Control_c, 0, 64, 73
2, 322229, Control_c, 0, 64, 72
2, 322247, Control_c, 0, 64, 72
2, 322267, Control_c, 0, 64, 70
2, 322271, Note_on_c, 0, 46, 50
2, 322280, Note_on_c, 0, 66, 56
2, 322286, Control_c, 0, 64, 69
2, 322302, Note_on_c, 0, 62, 48
2, 322306, Control_c, 0, 64, 66
2, 322324, Control_c, 0, 64, 62
2, 322344, Control_c, 0, 64, 55
2, 322363, Control_c, 0, 64, 41
2, 322378, Note_on_c, 0, 39, 0
2, 322382, Control_c, 0, 64, 15
2, 322401, Control_c, 0, 64, 0
2, 322401, Control_c, 0, 67, 8
2, 322421, Control_c, 0, 67, 18
2, 322440, Control_c, 0, 67, 34
2, 322459, Control_c, 0, 67, 54
2, 322478, Control_c, 0, 67, 72
2, 322498, Control_c, 0, 67, 90
2, 322516, Control_c, 0, 67, 105
2, 322536, Control_c, 0, 67, 117
2, 322555, Control_c, 0, 67, 125
2, 322575, Control_c, 0, 67, 127
2, 322593, Control_c, 0, 64, 35
2, 322613, Control_c, 0, 64, 56
2, 322613, Control_c, 0, 67, 127
2, 322632, Control_c, 0, 64, 63
2, 322632, Control_c, 0, 67, 126
2, 322651, Control_c, 0, 64, 65
2, 322651, Control_c, 0, 67, 125
2, 322662, Note_on_c, 0, 62, 0
2, 322670, Control_c, 0, 64, 67
2, 322670, Control_c, 0, 67, 125
2, 322681, Note_on_c, 0, 68, 58
2, 322689, Control_c, 0, 64, 70
2, 322689, Control_c, 0, 67, 124
2, 322690, Note_on_c, 0, 65, 42
2, 322709, Control_c, 0, 64, 75
2, 322709, Control_c, 0, 67, 123
2, 322727, Control_c, 0, 64, 79
2, 322727, Control_c, 0, 67, 123
2, 322747, Control_c, 0, 64, 81
2, 322747, Control_c, 0, 67, 122
2, 322766, Control_c, 0, 64, 81
2, 322766, Control_c, 0, 67, 121
2, 322786, Control_c, 0, 67, 121
2, 322787, Note_on_c, 0, 66, 0
2, 322804, Control_c, 0, 67, 120
2, 322824, Control_c, 0, 67, 120
2, 322843, Control_c, 0, 64, 81
2, 322843, Control_c, 0, 67, 119
2, 322862, Control_c, 0, 67, 119
2, 322881, Control_c, 0, 64, 80
2, 322881, Control_c, 0, 67, 118
2, 322939, Control_c, 0, 64, 79
2, 322958, Control_c, 0, 64, 78
2, 322958, Control_c, 0, 67, 118
2, 322978, Control_c, 0, 64, 76
2, 322996, Control_c, 0, 64, 73
2, 322996, Control_c, 0, 67, 117
2, 323016, Control_c, 0, 64, 67
2, 323016, Control_c, 0, 67, 116
2, 323035, Control_c, 0, 64, 61
2, 323035, Control_c, 0, 67, 116
2, 323055, Control_c, 0, 64, 45
2, 323055, Control_c, 0, 67, 115
2, 323072, Note_on_c, 0, 39, 53
2, 323073, Control_c, 0, 64, 11
2, 323073, Control_c, 0, 67, 115
2, 323093, Control_c, 0, 64, 0
2, 323110, Note_on_c, 0, 63, 51
2, 323112, Control_c, 0, 67, 114
2, 323121, Note_on_c, 0, 65, 0
2, 323150, Control_c, 0, 67, 114
2, 323169, Control_c, 0, 64, 15
2, 323189, Control_c, 0, 64, 29
2, 323195, Note_on_c, 0, 46, 0
2, 323207, Control_c, 0, 64, 39
2, 323207, Control_c, 0, 67, 113
2, 323227, Control_c, 0, 64, 46
2, 323227, Control_c, 0, 67, 113
2, 323246, Control_c, 0, 64, 50
2, 323266, Control_c, 0, 64, 53
2, 323266, Control_c, 0, 67, 112
2, 323284, Control_c, 0, 64, 55
2, 323284, Control_c, 0, 67, 110
2, 323304, Control_c, 0, 64, 57
2, 323304, Control_c, 0, 67, 108
2, 323323, Control_c, 0, 64, 59
2, 323323, Control_c, 0, 67, 106
2, 323342, Control_c, 0, 64, 60
2, 323342, Control_c, 0, 67, 105
2, 323362, Control_c, 0, 64, 62
2, 323362, Control_c, 0, 67, 104
2, 323382, Control_c, 0, 64, 63
2, 323382, Control_c, 0, 67, 103
2, 323401, Control_c, 0, 64, 63
2, 323401, Control_c, 0, 67, 103
2, 323420, Control_c, 0, 64, 65
2, 323420, Control_c, 0, 67, 101
2, 323439, Control_c, 0, 64, 66
2, 323439, Control_c, 0, 67, 100
2, 323459, Control_c, 0, 64, 66
2, 323459, Control_c, 0, 67, 99
2, 323477, Control_c, 0, 64, 67
2, 323477, Control_c, 0, 67, 97
2, 323482, Note_on_c, 0, 66, 34
2, 323487, Note_on_c, 0, 68, 0
2, 323497, Control_c, 0, 64, 68
2, 323497, Control_c, 0, 67, 96
2, 323516, Control_c, 0, 64, 69
2, 323516, Control_c, 0, 67, 95
2, 323536, Control_c, 0, 64, 70
2, 323536, Control_c, 0, 67, 94
2, 323551, Note_on_c, 0, 63, 0
2, 323593, Control_c, 0, 64, 70
2, 323639, Note_on_c, 0, 65, 34
2, 323650, Control_c, 0, 67, 94
2, 323656, Note_on_c, 0, 66, 0
2, 323721, Note_on_c, 0, 65, 0
2, 323801, Control_c, 0, 64, 69
2, 323821, Control_c, 0, 64, 66
2, 323839, Control_c, 0, 64, 60
2, 323845, Note_on_c, 0, 70, 65
2, 323859, Control_c, 0, 64, 53
2, 323859, Control_c, 0, 67, 93
2, 323863, Note_on_c, 0, 67, 52
2, 323878, Control_c, 0, 64, 44
2, 323878, Control_c, 0, 67, 92
2, 323897, Control_c, 0, 64, 41
2, 323897, Control_c, 0, 67, 87
2, 323916, Control_c, 0, 64, 46
2, 323916, Control_c, 0, 67, 80
2, 323936, Control_c, 0, 64, 54
2, 323936, Control_c, 0, 67, 72
2, 323955, Control_c, 0, 64, 59
2, 323955, Control_c, 0, 67, 59
2, 323974, Control_c, 0, 64, 62
2, 323974, Control_c, 0, 67, 44
2, 323993, Control_c, 0, 64, 64
2, 323993, Control_c, 0, 67, 28
2, 324012, Control_c, 0, 64, 65
2, 324012, Control_c, 0, 67, 14
2, 324031, Control_c, 0, 64, 65
2, 324031, Control_c, 0, 67, 0
2, 324050, Control_c, 0, 64, 66
2, 324089, Control_c, 0, 64, 66
2, 324127, Control_c, 0, 64, 67
2, 324185, Control_c, 0, 64, 67
2, 324203, Note_on_c, 0, 41, 63
2, 324204, Control_c, 0, 64, 68
2, 324217, Note_on_c, 0, 39, 0
2, 324224, Control_c, 0, 64, 69
2, 324242, Control_c, 0, 64, 70
2, 324244, Note_on_c, 0, 68, 60
2, 324254, Note_on_c, 0, 70, 0
2, 324341, Control_c, 0, 64, 70
2, 324360, Control_c, 0, 64, 71
2, 324439, Note_on_c, 0, 41, 0
2, 324475, Control_c, 0, 64, 70
2, 324495, Control_c, 0, 64, 70
2, 324532, Control_c, 0, 64, 69
2, 324623, Note_on_c, 0, 43, 68
2, 324667, Control_c, 0, 64, 69
2, 324680, Note_on_c, 0, 70, 56
2, 324686, Control_c, 0, 64, 68
2, 324706, Control_c, 0, 64, 67
2, 324706, Note_on_c, 0, 67, 0
2, 324707, Note_on_c, 0, 63, 39
2, 324724, Control_c, 0, 64, 64
2, 324735, Note_on_c, 0, 68, 0
2, 324744, Control_c, 0, 64, 61
2, 324763, Control_c, 0, 64, 57
2, 324782, Control_c, 0, 64, 55
2, 324821, Control_c, 0, 64, 56
2, 324840, Control_c, 0, 64, 59
2, 324859, Control_c, 0, 64, 62
2, 324878, Control_c, 0, 64, 64
2, 324898, Control_c, 0, 64, 65
2, 324916, Control_c, 0, 64, 67
2, 324936, Control_c, 0, 64, 69
2, 324955, Control_c, 0, 64, 71
2, 324975, Control_c, 0, 64, 75
2, 324993, Control_c, 0, 64, 79
2, 325012, Control_c, 0, 64, 84
2, 325032, Control_c, 0, 64, 89
2, 325036, Note_on_c, 0, 61, 57
2, 325051, Control_c, 0, 64, 94
2, 325070, Control_c, 0, 64, 98
2, 325089, Control_c, 0, 64, 100
2, 325111, Note_on_c, 0, 43, 0
2, 325111, Note_on_c, 0, 70, 0
2, 325142, Note_on_c, 0, 63, 0
2, 325179, Note_on_c, 0, 61, 0
2, 325262, Control_c, 0, 64, 99
2, 325282, Control_c, 0, 64, 99
2, 325321, Control_c, 0, 64, 98
2, 325340, Control_c, 0, 64, 97
2, 325359, Control_c, 0, 64, 96
2, 325379, Control_c, 0, 64, 94
2, 325397, Control_c, 0, 64, 93
2, 325417, Control_c, 0, 64, 90
2, 325424, Note_on_c, 0, 44, 67
2, 325436, Control_c, 0, 64, 86
2, 325448, Note_on_c, 0, 63, 48
2, 325456, Control_c, 0, 64, 79
2, 325463, Note_on_c, 0, 59, 47
2, 325474, Control_c, 0, 64, 71
2, 325494, Control_c, 0, 64, 64
2, 325513, Control_c, 0, 64, 59
2, 325531, Control_c, 0, 64, 57
2, 325608, Control_c, 0, 64, 57
2, 325628, Control_c, 0, 64, 58
2, 325666, Control_c, 0, 64, 58
2, 325685, Control_c, 0, 64, 59
2, 325703, Control_c, 0, 64, 60
2, 325722, Control_c, 0, 64, 60
2, 325741, Control_c, 0, 64, 61
2, 325760, Control_c, 0, 64, 62
2, 325780, Control_c, 0, 64, 64
2, 325799, Control_c, 0, 64, 65
2, 325818, Control_c, 0, 64, 66
2, 325837, Control_c, 0, 64, 68
2, 325851, Note_on_c, 0, 61, 50
2, 325857, Control_c, 0, 64, 71
2, 325862, Note_on_c, 0, 64, 51
2, 325876, Control_c, 0, 64, 74
2, 325895, Control_c, 0, 64, 76
2, 325914, Control_c, 0, 64, 78
2, 325923, Note_on_c, 0, 63, 0
2, 325936, Note_on_c, 0, 59, 0
2, 326068, Control_c, 0, 64, 77
2, 326086, Control_c, 0, 64, 77
2, 326106, Control_c, 0, 64, 76
2, 326125, Control_c, 0, 64, 76
2, 326139, Note_on_c, 0, 61, 0
2, 326145, Control_c, 0, 64, 75
2, 326163, Control_c, 0, 64, 74
2, 326183, Control_c, 0, 64, 72
2, 326202, Control_c, 0, 64, 69
2, 326212, Note_on_c, 0, 44, 0
2, 326220, Note_on_c, 0, 46, 53
2, 326221, Control_c, 0, 64, 64
2, 326222, Note_on_c, 0, 63, 62
2, 326222, Note_on_c, 0, 67, 53
2, 326242, Control_c, 0, 64, 59
2, 326244, Note_on_c, 0, 64, 0
2, 326262, Control_c, 0, 64, 50
2, 326281, Control_c, 0, 64, 42
2, 326300, Control_c, 0, 64, 37
2, 326339, Control_c, 0, 64, 44
2, 326357, Control_c, 0, 64, 55
2, 326377, Control_c, 0, 64, 61
2, 326396, Control_c, 0, 64, 64
2, 326416, Control_c, 0, 64, 65
2, 326434, Control_c, 0, 64, 68
2, 326454, Control_c, 0, 64, 72
2, 326473, Control_c, 0, 64, 77
2, 326491, Control_c, 0, 64, 84
2, 326511, Control_c, 0, 64, 90
2, 326530, Control_c, 0, 64, 93
2, 326550, Control_c, 0, 64, 94
2, 326568, Control_c, 0, 64, 95
2, 326607, Control_c, 0, 64, 95
2, 326619, Note_on_c, 0, 64, 61
2, 326644, Note_on_c, 0, 67, 0
2, 326659, Note_on_c, 0, 63, 0
2, 326663, Note_on_c, 0, 64, 0
2, 326665, Note_on_c, 0, 46, 0
2, 326702, Control_c, 0, 64, 95
2, 326741, Control_c, 0, 64, 94
2, 326798, Control_c, 0, 64, 93
2, 326856, Control_c, 0, 64, 93
2, 326895, Control_c, 0, 64, 92
2, 326913, Control_c, 0, 64, 91
2, 326932, Control_c, 0, 64, 90
2, 326952, Control_c, 0, 64, 88
2, 326971, Control_c, 0, 64, 85
2, 326990, Control_c, 0, 64, 79
2, 326990, Note_on_c, 0, 47, 55
2, 327009, Control_c, 0, 64, 69
2, 327027, Note_on_c, 0, 63, 79
2, 327029, Control_c, 0, 64, 60
2, 327047, Control_c, 0, 64, 36
2, 327061, Note_on_c, 0, 68, 58
2, 327067, Control_c, 0, 64, 0
2, 327144, Control_c, 0, 64, 27
2, 327163, Control_c, 0, 64, 49
2, 327182, Control_c, 0, 64, 59
2, 327201, Control_c, 0, 64, 62
2, 327221, Control_c, 0, 64, 64
2, 327240, Control_c, 0, 64, 65
2, 327259, Control_c, 0, 64, 67
2, 327278, Control_c, 0, 64, 71
2, 327298, Control_c, 0, 64, 77
2, 327316, Control_c, 0, 64, 84
2, 327336, Control_c, 0, 64, 91
2, 327355, Control_c, 0, 64, 95
2, 327375, Control_c, 0, 64, 97
2, 327393, Control_c, 0, 64, 99
2, 327412, Control_c, 0, 64, 102
2, 327414, Note_on_c, 0, 63, 0
2, 327418, Note_on_c, 0, 68, 0
2, 327432, Control_c, 0, 64, 106
2, 327439, Note_on_c, 0, 49, 67
2, 327451, Control_c, 0, 64, 113
2, 327470, Control_c, 0, 64, 127
2, 327537, Note_on_c, 0, 47, 0
2, 327757, Control_c, 0, 64, 118
2, 327777, Control_c, 0, 64, 113
2, 327796, Control_c, 0, 64, 112
2, 327834, Control_c, 0, 64, 110
2, 327836, Note_on_c, 0, 49, 0
2, 327850, Note_on_c, 0, 56, 55
2, 327854, Control_c, 0, 64, 107
2, 327860, Note_on_c, 0, 47, 45
2, 327872, Control_c, 0, 64, 102
2, 327891, Control_c, 0, 64, 97
2, 327911, Control_c, 0, 64, 88
2, 327915, Note_on_c, 0, 80, 90
2, 327930, Control_c, 0, 64, 76
2, 327949, Control_c, 0, 64, 65
2, 327968, Control_c, 0, 64, 45
2, 327988, Control_c, 0, 64, 18
2, 328006, Control_c, 0, 64, 21
2, 328026, Control_c, 0, 64, 37
2, 328045, Control_c, 0, 64, 52
2, 328065, Control_c, 0, 64, 60
2, 328083, Control_c, 0, 64, 63
2, 328103, Control_c, 0, 64, 64
2, 328122, Control_c, 0, 64, 66
2, 328141, Control_c, 0, 64, 67
2, 328162, Control_c, 0, 64, 68
2, 328179, Control_c, 0, 64, 69
2, 328198, Control_c, 0, 64, 71
2, 328217, Control_c, 0, 64, 74
2, 328236, Control_c, 0, 64, 79
2, 328256, Control_c, 0, 64, 82
2, 328274, Control_c, 0, 64, 85
2, 328274, Note_on_c, 0, 46, 52
2, 328287, Note_on_c, 0, 47, 0
2, 328294, Control_c, 0, 64, 88
2, 328313, Control_c, 0, 64, 91
2, 328333, Control_c, 0, 64, 93
2, 328351, Control_c, 0, 64, 95
2, 328371, Control_c, 0, 64, 95
2, 328404, Note_on_c, 0, 46, 0
2, 328409, Control_c, 0, 64, 96
2, 328486, Control_c, 0, 64, 95
2, 328505, Control_c, 0, 64, 93
2, 328522, Control_c, 0, 64, 91
2, 328540, Control_c, 0, 64, 90
2, 328560, Control_c, 0, 64, 89
2, 328578, Control_c, 0, 64, 88
2, 328598, Control_c, 0, 64, 88
2, 328606, Note_on_c, 0, 56, 0
2, 328616, Control_c, 0, 64, 86
2, 328636, Control_c, 0, 64, 85
2, 328655, Control_c, 0, 64, 84
2, 328675, Control_c, 0, 64, 83
2, 328689, Note_on_c, 0, 44, 45
2, 328693, Control_c, 0, 64, 82
2, 328713, Control_c, 0, 64, 80
2, 328732, Control_c, 0, 64, 74
2, 328748, Note_on_c, 0, 75, 82
2, 328750, Control_c, 0, 64, 65
2, 328770, Control_c, 0, 64, 49
2, 328789, Control_c, 0, 64, 0
2, 328837, Note_on_c, 0, 80, 0
2, 329096, Control_c, 0, 64, 27
2, 329117, Control_c, 0, 64, 49
2, 329136, Control_c, 0, 64, 59
2, 329156, Control_c, 0, 64, 62
2, 329170, Note_on_c, 0, 55, 52
2, 329174, Control_c, 0, 64, 64
2, 329194, Control_c, 0, 64, 66
2, 329210, Note_on_c, 0, 46, 39
2, 329213, Control_c, 0, 64, 68
2, 329232, Control_c, 0, 64, 72
2, 329251, Control_c, 0, 64, 75
2, 329270, Control_c, 0, 64, 78
2, 329316, Note_on_c, 0, 55, 0
2, 329443, Control_c, 0, 64, 77
2, 329458, Note_on_c, 0, 44, 0
2, 329461, Note_on_c, 0, 46, 0
2, 329482, Control_c, 0, 64, 75
2, 329500, Control_c, 0, 64, 68
2, 329520, Control_c, 0, 64, 45
2, 329526, Note_on_c, 0, 56, 70
2, 329529, Note_on_c, 0, 47, 57
2, 329537, Control_c, 0, 64, 0
2, 329614, Control_c, 0, 64, 9
2, 329622, Note_on_c, 0, 47, 0
2, 329634, Control_c, 0, 64, 65
2, 329652, Control_c, 0, 64, 72
2, 329672, Control_c, 0, 64, 78
2, 329691, Control_c, 0, 64, 79
2, 329707, Note_on_c, 0, 56, 0
2, 329710, Control_c, 0, 64, 79
2, 329729, Control_c, 0, 64, 80
2, 329748, Control_c, 0, 64, 79
2, 329768, Control_c, 0, 64, 77
2, 329786, Control_c, 0, 64, 76
2, 329845, Control_c, 0, 64, 74
2, 329863, Control_c, 0, 64, 67
2, 329882, Note_on_c, 0, 58, 65
2, 329883, Control_c, 0, 64, 22
2, 329902, Control_c, 0, 64, 0
2, 329905, Note_on_c, 0, 73, 81
2, 329912, Note_on_c, 0, 52, 52
2, 329993, Note_on_c, 0, 75, 0
2, 329998, Control_c, 0, 64, 61
2, 330017, Control_c, 0, 64, 67
2, 330025, Note_on_c, 0, 52, 0
2, 330037, Control_c, 0, 64, 69
2, 330053, Note_on_c, 0, 49, 64
2, 330055, Control_c, 0, 64, 70
2, 330077, Control_c, 0, 64, 71
2, 330116, Control_c, 0, 64, 71
2, 330134, Control_c, 0, 64, 72
2, 330154, Control_c, 0, 64, 73
2, 330162, Note_on_c, 0, 58, 0
2, 330173, Control_c, 0, 64, 74
2, 330192, Control_c, 0, 64, 75
2, 330211, Control_c, 0, 64, 76
2, 330230, Control_c, 0, 64, 78
2, 330250, Control_c, 0, 64, 79
2, 330268, Control_c, 0, 64, 79
2, 330279, Note_on_c, 0, 49, 0
2, 330287, Note_on_c, 0, 59, 70
2, 330288, Control_c, 0, 64, 77
2, 330288, Note_on_c, 0, 56, 59
2, 330298, Note_on_c, 0, 75, 82
2, 330307, Control_c, 0, 64, 70
2, 330326, Control_c, 0, 64, 58
2, 330345, Control_c, 0, 64, 0
2, 330442, Control_c, 0, 64, 52
2, 330460, Control_c, 0, 64, 66
2, 330461, Note_on_c, 0, 73, 0
2, 330480, Control_c, 0, 64, 71
2, 330482, Note_on_c, 0, 59, 0
2, 330498, Control_c, 0, 64, 79
2, 330518, Control_c, 0, 64, 89
2, 330536, Control_c, 0, 64, 99
2, 330556, Control_c, 0, 64, 105
2, 330575, Control_c, 0, 64, 110
2, 330595, Control_c, 0, 64, 113
2, 330613, Control_c, 0, 64, 114
2, 330652, Control_c, 0, 64, 106
2, 330670, Control_c, 0, 64, 88
2, 330682, Note_on_c, 0, 58, 74
2, 330690, Control_c, 0, 64, 72
2, 330709, Control_c, 0, 64, 63
2, 330729, Control_c, 0, 64, 63
2, 330747, Control_c, 0, 64, 65
2, 330767, Control_c, 0, 64, 67
2, 330786, Control_c, 0, 64, 70
2, 330803, Note_on_c, 0, 56, 0
2, 330806, Control_c, 0, 64, 73
2, 330824, Control_c, 0, 64, 77
2, 330836, Note_on_c, 0, 58, 0
2, 330844, Control_c, 0, 64, 80
2, 330863, Control_c, 0, 64, 82
2, 330882, Control_c, 0, 64, 83
2, 330901, Control_c, 0, 64, 84
2, 330921, Control_c, 0, 64, 85
2, 330940, Control_c, 0, 64, 85
2, 330978, Control_c, 0, 64, 85
2, 330998, Control_c, 0, 64, 84
2, 331016, Control_c, 0, 64, 84
2, 331037, Control_c, 0, 64, 82
2, 331056, Control_c, 0, 64, 75
2, 331067, Note_on_c, 0, 56, 71
2, 331076, Control_c, 0, 64, 64
2, 331094, Control_c, 0, 64, 0
2, 331108, Note_on_c, 0, 47, 49
2, 331210, Control_c, 0, 64, 60
2, 331228, Control_c, 0, 64, 66
2, 331248, Control_c, 0, 64, 69
2, 331267, Control_c, 0, 64, 71
2, 331286, Control_c, 0, 64, 74
2, 331305, Control_c, 0, 64, 76
2, 331325, Control_c, 0, 64, 77
2, 331344, Control_c, 0, 64, 77
2, 331363, Control_c, 0, 64, 79
2, 331382, Control_c, 0, 64, 82
2, 331401, Note_on_c, 0, 47, 0
2, 331402, Control_c, 0, 64, 85
2, 331420, Control_c, 0, 64, 86
2, 331433, Note_on_c, 0, 49, 66
2, 331436, Note_on_c, 0, 77, 72
2, 331440, Control_c, 0, 64, 88
2, 331458, Control_c, 0, 64, 93
2, 331478, Control_c, 0, 64, 101
2, 331496, Control_c, 0, 64, 127
2, 331507, Note_on_c, 0, 56, 0
2, 331510, Note_on_c, 0, 49, 0
2, 331539, Note_on_c, 0, 75, 0
2, 331804, Control_c, 0, 64, 104
2, 331820, Note_on_c, 0, 63, 61
2, 331823, Control_c, 0, 64, 78
2, 331841, Note_on_c, 0, 51, 46
2, 331842, Control_c, 0, 64, 64
2, 331861, Control_c, 0, 64, 0
2, 331908, Note_on_c, 0, 78, 83
2, 331958, Control_c, 0, 64, 15
2, 331962, Note_on_c, 0, 77, 0
2, 331976, Control_c, 0, 64, 59
2, 331998, Control_c, 0, 64, 66
2, 332017, Control_c, 0, 64, 71
2, 332036, Control_c, 0, 64, 77
2, 332055, Control_c, 0, 64, 86
2, 332075, Control_c, 0, 64, 94
2, 332094, Control_c, 0, 64, 98
2, 332132, Control_c, 0, 64, 96
2, 332152, Control_c, 0, 64, 85
2, 332171, Control_c, 0, 64, 67
2, 332189, Control_c, 0, 64, 11
2, 332209, Control_c, 0, 64, 0
2, 332258, Note_on_c, 0, 50, 56
2, 332266, Control_c, 0, 64, 44
2, 332286, Control_c, 0, 64, 63
2, 332305, Control_c, 0, 64, 67
2, 332324, Control_c, 0, 64, 69
2, 332343, Control_c, 0, 64, 73
2, 332350, Note_on_c, 0, 63, 0
2, 332361, Note_on_c, 0, 51, 0
2, 332363, Control_c, 0, 64, 77
2, 332381, Control_c, 0, 64, 79
2, 332401, Control_c, 0, 64, 79
2, 332404, Note_on_c, 0, 50, 0
2, 332418, Control_c, 0, 64, 79
2, 332456, Control_c, 0, 64, 78
2, 332572, Control_c, 0, 64, 78
2, 332590, Control_c, 0, 64, 75
2, 332610, Control_c, 0, 64, 67
2, 332625, Note_on_c, 0, 58, 63
2, 332629, Control_c, 0, 64, 53
2, 332646, Note_on_c, 0, 51, 54
2, 332649, Control_c, 0, 64, 0
2, 332706, Control_c, 0, 64, 22
2, 332726, Control_c, 0, 64, 57
2, 332744, Control_c, 0, 64, 65
2, 332764, Control_c, 0, 64, 67
2, 332783, Control_c, 0, 64, 71
2, 332802, Control_c, 0, 64, 75
2, 332821, Control_c, 0, 64, 79
2, 332841, Control_c, 0, 64, 83
2, 332956, Control_c, 0, 64, 82
2, 332975, Control_c, 0, 64, 78
2, 332995, Control_c, 0, 64, 70
2, 333011, Note_on_c, 0, 51, 0
2, 333013, Control_c, 0, 64, 60
2, 333015, Note_on_c, 0, 53, 44
2, 333027, Note_on_c, 0, 77, 54
2, 333033, Control_c, 0, 64, 36
2, 333052, Control_c, 0, 64, 24
2, 333070, Control_c, 0, 64, 44
2, 333090, Control_c, 0, 64, 59
2, 333109, Control_c, 0, 64, 64
2, 333129, Control_c, 0, 64, 67
2, 333147, Control_c, 0, 64, 69
2, 333163, Note_on_c, 0, 78, 0
2, 333167, Control_c, 0, 64, 70
2, 333186, Control_c, 0, 64, 71
2, 333244, Control_c, 0, 64, 70
2, 333263, Control_c, 0, 64, 70
2, 333282, Control_c, 0, 64, 69
2, 333301, Control_c, 0, 64, 65
2, 333321, Control_c, 0, 64, 55
2, 333340, Control_c, 0, 64, 40
2, 333350, Note_on_c, 0, 53, 0
2, 333359, Control_c, 0, 64, 30
2, 333376, Control_c, 0, 64, 31
2, 333376, Note_on_c, 0, 54, 45
2, 333396, Control_c, 0, 64, 43
2, 333411, Note_on_c, 0, 75, 56
2, 333415, Control_c, 0, 64, 58
2, 333434, Control_c, 0, 64, 63
2, 333453, Control_c, 0, 64, 66
2, 333460, Note_on_c, 0, 77, 0
2, 333473, Control_c, 0, 64, 67
2, 333491, Control_c, 0, 64, 69
2, 333510, Control_c, 0, 64, 70
2, 333530, Control_c, 0, 64, 72
2, 333549, Control_c, 0, 64, 73
2, 333556, Note_on_c, 0, 58, 0
2, 333684, Control_c, 0, 64, 71
2, 333702, Control_c, 0, 64, 67
2, 333722, Control_c, 0, 64, 62
2, 333741, Control_c, 0, 64, 58
2, 333761, Control_c, 0, 64, 60
2, 333779, Control_c, 0, 64, 62
2, 333790, Note_on_c, 0, 59, 63
2, 333799, Control_c, 0, 64, 64
2, 333806, Note_on_c, 0, 56, 45
2, 333808, Note_on_c, 0, 54, 0
2, 333818, Control_c, 0, 64, 67
2, 333837, Control_c, 0, 64, 70
2, 333856, Control_c, 0, 64, 73
2, 333876, Control_c, 0, 64, 77
2, 333895, Control_c, 0, 64, 77
2, 333904, Note_on_c, 0, 56, 0
2, 333925, Note_on_c, 0, 59, 0
2, 334012, Control_c, 0, 64, 77
2, 334127, Control_c, 0, 64, 76
2, 334166, Control_c, 0, 64, 76
2, 334180, Note_on_c, 0, 61, 47
2, 334184, Control_c, 0, 64, 74
2, 334194, Note_on_c, 0, 53, 40
2, 334204, Control_c, 0, 64, 69
2, 334223, Control_c, 0, 64, 62
2, 334223, Note_on_c, 0, 82, 82
2, 334242, Control_c, 0, 64, 45
2, 334261, Control_c, 0, 64, 0
2, 334293, Note_on_c, 0, 75, 0
2, 334358, Control_c, 0, 64, 40
2, 334376, Control_c, 0, 64, 55
2, 334396, Control_c, 0, 64, 59
2, 334415, Control_c, 0, 64, 60
2, 334453, Control_c, 0, 64, 60
2, 334530, Control_c, 0, 64, 61
2, 334549, Control_c, 0, 64, 62
2, 334569, Control_c, 0, 64, 63
2, 334587, Control_c, 0, 64, 64
2, 334603, Note_on_c, 0, 55, 51
2, 334607, Control_c, 0, 64, 65
2, 334626, Control_c, 0, 64, 66
2, 334646, Control_c, 0, 64, 67
2, 334664, Control_c, 0, 64, 69
2, 334684, Control_c, 0, 64, 72
2, 334695, Note_on_c, 0, 82, 0
2, 334703, Control_c, 0, 64, 74
2, 334722, Control_c, 0, 64, 76
2, 334799, Control_c, 0, 64, 75
2, 334838, Control_c, 0, 64, 75
2, 334856, Control_c, 0, 64, 74
2, 334876, Control_c, 0, 64, 74
2, 334895, Control_c, 0, 64, 73
2, 334915, Control_c, 0, 64, 72
2, 334933, Control_c, 0, 64, 71
2, 334953, Control_c, 0, 64, 70
2, 334972, Control_c, 0, 64, 67
2, 334990, Control_c, 0, 64, 64
2, 334991, Note_on_c, 0, 55, 0
2, 334993, Note_on_c, 0, 61, 0
2, 335001, Note_on_c, 0, 56, 41
2, 335010, Control_c, 0, 64, 58
2, 335029, Control_c, 0, 64, 46
2, 335034, Note_on_c, 0, 75, 67
2, 335049, Control_c, 0, 64, 0
2, 335058, Note_on_c, 0, 53, 0
2, 335106, Control_c, 0, 64, 22
2, 335126, Control_c, 0, 64, 50
2, 335144, Control_c, 0, 64, 61
2, 335164, Control_c, 0, 64, 63
2, 335183, Control_c, 0, 64, 64
2, 335260, Control_c, 0, 64, 63
2, 335296, Control_c, 0, 64, 62
2, 335316, Control_c, 0, 64, 59
2, 335335, Control_c, 0, 64, 48
2, 335354, Control_c, 0, 64, 26
2, 335373, Control_c, 0, 64, 0
2, 335411, Control_c, 0, 64, 13
2, 335430, Control_c, 0, 64, 46
2, 335435, Note_on_c, 0, 73, 52
2, 335450, Control_c, 0, 64, 59
2, 335469, Control_c, 0, 64, 62
2, 335473, Note_on_c, 0, 58, 28
2, 335474, Note_on_c, 0, 56, 0
2, 335488, Control_c, 0, 64, 63
2, 335507, Control_c, 0, 64, 64
2, 335527, Control_c, 0, 64, 64
2, 335545, Control_c, 0, 64, 65
2, 335642, Control_c, 0, 67, 8
2, 335661, Control_c, 0, 64, 64
2, 335661, Control_c, 0, 67, 17
2, 335681, Control_c, 0, 67, 28
2, 335699, Control_c, 0, 64, 63
2, 335699, Control_c, 0, 67, 38
2, 335719, Control_c, 0, 64, 62
2, 335719, Control_c, 0, 67, 48
2, 335738, Control_c, 0, 64, 57
2, 335738, Control_c, 0, 67, 58
2, 335757, Control_c, 0, 64, 38
2, 335757, Control_c, 0, 67, 65
2, 335776, Control_c, 0, 64, 0
2, 335776, Control_c, 0, 67, 71
2, 335796, Control_c, 0, 67, 75
2, 335815, Control_c, 0, 67, 77
2, 335829, Note_on_c, 0, 71, 47
2, 335840, Note_on_c, 0, 56, 43
2, 335851, Note_on_c, 0, 73, 0
2, 335854, Control_c, 0, 64, 30
2, 335854, Control_c, 0, 67, 77
2, 335860, Note_on_c, 0, 58, 0
2, 335874, Control_c, 0, 64, 58
2, 335874, Control_c, 0, 67, 76
2, 335892, Control_c, 0, 64, 65
2, 335892, Control_c, 0, 67, 75
2, 335911, Control_c, 0, 64, 69
2, 335911, Control_c, 0, 67, 74
2, 335931, Control_c, 0, 64, 72
2, 335931, Control_c, 0, 67, 73
2, 335950, Control_c, 0, 64, 74
2, 335950, Control_c, 0, 67, 72
2, 335958, Note_on_c, 0, 75, 0
2, 335969, Control_c, 0, 67, 70
2, 335988, Control_c, 0, 67, 69
2, 336008, Control_c, 0, 67, 68
2, 336026, Control_c, 0, 67, 67
2, 336046, Control_c, 0, 67, 67
2, 336142, Control_c, 0, 67, 66
2, 336161, Control_c, 0, 64, 73
2, 336161, Control_c, 0, 67, 66
2, 336180, Control_c, 0, 64, 69
2, 336180, Control_c, 0, 67, 65
2, 336194, Note_on_c, 0, 56, 0
2, 336200, Control_c, 0, 64, 62
2, 336200, Control_c, 0, 67, 65
2, 336204, Note_on_c, 0, 71, 0
2, 336214, Note_on_c, 0, 54, 40
2, 336219, Control_c, 0, 64, 43
2, 336230, Note_on_c, 0, 75, 58
2, 336238, Control_c, 0, 64, 35
2, 336238, Control_c, 0, 67, 64
2, 336240, Note_on_c, 0, 70, 49
2, 336255, Control_c, 0, 64, 43
2, 336255, Control_c, 0, 67, 63
2, 336275, Control_c, 0, 64, 55
2, 336294, Control_c, 0, 64, 62
2, 336313, Control_c, 0, 64, 64
2, 336332, Control_c, 0, 64, 66
2, 336351, Control_c, 0, 64, 69
2, 336371, Control_c, 0, 64, 71
2, 336389, Control_c, 0, 64, 73
2, 336409, Control_c, 0, 64, 74
2, 336409, Control_c, 0, 67, 63
2, 336428, Control_c, 0, 64, 74
2, 336428, Control_c, 0, 67, 62
2, 336460, Note_on_c, 0, 70, 0
2, 336466, Control_c, 0, 67, 61
2, 336486, Control_c, 0, 64, 74
2, 336505, Control_c, 0, 64, 72
2, 336524, Control_c, 0, 64, 68
2, 336543, Control_c, 0, 64, 62
2, 336563, Control_c, 0, 64, 48
2, 336581, Control_c, 0, 64, 31
2, 336581, Control_c, 0, 67, 61
2, 336583, Note_on_c, 0, 74, 50
2, 336590, Note_on_c, 0, 68, 46
2, 336596, Note_on_c, 0, 54, 0
2, 336601, Control_c, 0, 67, 60
2, 336610, Note_on_c, 0, 53, 48
2, 336620, Control_c, 0, 64, 44
2, 336620, Control_c, 0, 67, 59
2, 336640, Control_c, 0, 64, 57
2, 336640, Control_c, 0, 67, 56
2, 336658, Control_c, 0, 64, 62
2, 336658, Control_c, 0, 67, 54
2, 336677, Note_on_c, 0, 75, 0
2, 336678, Control_c, 0, 64, 64
2, 336678, Control_c, 0, 67, 53
2, 336697, Control_c, 0, 64, 66
2, 336697, Control_c, 0, 67, 51
2, 336716, Control_c, 0, 64, 67
2, 336716, Control_c, 0, 67, 50
2, 336735, Control_c, 0, 64, 69
2, 336735, Control_c, 0, 67, 48
2, 336738, Note_on_c, 0, 68, 0
2, 336755, Control_c, 0, 64, 70
2, 336755, Control_c, 0, 67, 44
2, 336774, Control_c, 0, 64, 71
2, 336774, Control_c, 0, 67, 41
2, 336797, Control_c, 0, 64, 71
2, 336797, Control_c, 0, 67, 39
2, 336816, Control_c, 0, 64, 72
2, 336816, Control_c, 0, 67, 36
2, 336836, Control_c, 0, 64, 72
2, 336836, Control_c, 0, 67, 34
2, 336854, Control_c, 0, 67, 31
2, 336874, Control_c, 0, 67, 29
2, 336893, Control_c, 0, 67, 28
2, 336909, Note_on_c, 0, 53, 0
2, 336911, Control_c, 0, 64, 72
2, 336911, Control_c, 0, 67, 26
2, 336931, Control_c, 0, 64, 69
2, 336931, Control_c, 0, 67, 25
2, 336950, Control_c, 0, 64, 62
2, 336950, Control_c, 0, 67, 23
2, 336970, Control_c, 0, 64, 46
2, 336970, Control_c, 0, 67, 19
2, 336983, Note_on_c, 0, 51, 47
2, 336988, Control_c, 0, 64, 11
2, 336988, Control_c, 0, 67, 15
2, 336993, Note_on_c, 0, 66, 50
2, 336994, Note_on_c, 0, 75, 60
2, 337008, Control_c, 0, 64, 0
2, 337008, Control_c, 0, 67, 8
2, 337027, Control_c, 0, 64, 30
2, 337027, Control_c, 0, 67, 0
2, 337046, Control_c, 0, 64, 57
2, 337060, Note_on_c, 0, 74, 0
2, 337065, Control_c, 0, 64, 65
2, 337085, Control_c, 0, 64, 69
2, 337104, Control_c, 0, 64, 75
2, 337123, Control_c, 0, 64, 83
2, 337142, Control_c, 0, 64, 90
2, 337143, Note_on_c, 0, 66, 0
2, 337162, Control_c, 0, 64, 91
2, 337351, Control_c, 0, 64, 90
2, 337369, Note_on_c, 0, 51, 0
2, 337371, Control_c, 0, 64, 86
2, 337375, Note_on_c, 0, 77, 54
2, 337387, Note_on_c, 0, 50, 47
2, 337389, Note_on_c, 0, 68, 58
2, 337390, Control_c, 0, 64, 76
2, 337409, Control_c, 0, 64, 64
2, 337428, Control_c, 0, 64, 39
2, 337448, Control_c, 0, 64, 0
2, 337469, Note_on_c, 0, 75, 0
2, 337505, Control_c, 0, 64, 47
2, 337525, Control_c, 0, 64, 62
2, 337543, Control_c, 0, 64, 66
2, 337563, Control_c, 0, 64, 69
2, 337582, Control_c, 0, 64, 73
2, 337601, Control_c, 0, 64, 78
2, 337620, Control_c, 0, 64, 83
2, 337640, Control_c, 0, 64, 85
2, 337659, Control_c, 0, 64, 86
2, 337678, Control_c, 0, 64, 85
2, 337697, Control_c, 0, 64, 82
2, 337717, Control_c, 0, 64, 74
2, 337735, Control_c, 0, 64, 61
2, 337755, Control_c, 0, 64, 32
2, 337774, Control_c, 0, 64, 0
2, 337782, Note_on_c, 0, 74, 54
2, 337794, Control_c, 0, 64, 21
2, 337798, Note_on_c, 0, 59, 57
2, 337800, Note_on_c, 0, 65, 48
2, 337812, Control_c, 0, 64, 46
2, 337831, Control_c, 0, 64, 60
2, 337851, Control_c, 0, 64, 64
2, 337870, Control_c, 0, 64, 66
2, 337889, Control_c, 0, 64, 68
2, 337891, Note_on_c, 0, 68, 0
2, 337908, Control_c, 0, 64, 70
2, 337921, Note_on_c, 0, 65, 0
2, 337928, Control_c, 0, 64, 73
2, 337932, Note_on_c, 0, 74, 0
2, 337946, Control_c, 0, 64, 75
2, 337966, Control_c, 0, 64, 76
2, 338081, Control_c, 0, 64, 77
2, 338100, Control_c, 0, 64, 77
2, 338139, Control_c, 0, 64, 76
2, 338158, Control_c, 0, 64, 72
2, 338160, Note_on_c, 0, 77, 0
2, 338178, Control_c, 0, 64, 64
2, 338184, Note_on_c, 0, 75, 58
2, 338190, Note_on_c, 0, 58, 58
2, 338198, Control_c, 0, 64, 49
2, 338202, Note_on_c, 0, 66, 47
2, 338216, Control_c, 0, 64, 0
2, 338236, Control_c, 0, 64, 9
2, 338255, Control_c, 0, 64, 38
2, 338257, Note_on_c, 0, 59, 0
2, 338275, Control_c, 0, 64, 59
2, 338293, Control_c, 0, 64, 64
2, 338312, Control_c, 0, 64, 67
2, 338332, Control_c, 0, 64, 70
2, 338341, Note_on_c, 0, 50, 0
2, 338350, Control_c, 0, 64, 76
2, 338370, Control_c, 0, 64, 81
2, 338389, Control_c, 0, 64, 83
2, 338399, Note_on_c, 0, 66, 0
2, 338466, Control_c, 0, 64, 81
2, 338486, Control_c, 0, 64, 74
2, 338504, Control_c, 0, 64, 65
2, 338524, Control_c, 0, 64, 50
2, 338543, Control_c, 0, 64, 46
2, 338550, Note_on_c, 0, 77, 55
2, 338555, Note_on_c, 0, 68, 63
2, 338562, Control_c, 0, 64, 54
2, 338568, Note_on_c, 0, 56, 69
2, 338581, Control_c, 0, 64, 60
2, 338601, Control_c, 0, 64, 63
2, 338616, Note_on_c, 0, 75, 0
2, 338620, Control_c, 0, 64, 66
2, 338636, Note_on_c, 0, 68, 0
2, 338639, Control_c, 0, 64, 69
2, 338658, Control_c, 0, 64, 73
2, 338661, Note_on_c, 0, 58, 0
2, 338670, Note_on_c, 0, 77, 0
2, 338678, Control_c, 0, 64, 78
2, 338696, Control_c, 0, 64, 81
2, 338717, Control_c, 0, 64, 82
2, 338774, Control_c, 0, 64, 82
2, 338794, Control_c, 0, 64, 83
2, 338813, Control_c, 0, 64, 84
2, 338831, Control_c, 0, 64, 84
2, 338851, Control_c, 0, 64, 85
2, 338928, Control_c, 0, 64, 83
2, 338947, Control_c, 0, 64, 79
2, 338950, Note_on_c, 0, 78, 76
2, 338956, Note_on_c, 0, 54, 69
2, 338966, Control_c, 0, 64, 69
2, 338968, Note_on_c, 0, 70, 61
2, 338985, Control_c, 0, 64, 57
2, 339005, Control_c, 0, 64, 0
2, 339026, Note_on_c, 0, 56, 0
2, 339062, Control_c, 0, 64, 13
2, 339082, Control_c, 0, 64, 50
2, 339100, Control_c, 0, 64, 63
2, 339107, Note_on_c, 0, 70, 0
2, 339120, Control_c, 0, 64, 65
2, 339137, Control_c, 0, 64, 67
2, 339157, Control_c, 0, 64, 70
2, 339176, Control_c, 0, 64, 73
2, 339195, Control_c, 0, 64, 77
2, 339214, Control_c, 0, 64, 81
2, 339234, Control_c, 0, 64, 82
2, 339252, Control_c, 0, 64, 83
2, 339291, Control_c, 0, 64, 81
2, 339310, Control_c, 0, 64, 76
2, 339329, Control_c, 0, 64, 66
2, 339340, Note_on_c, 0, 53, 65
2, 339348, Control_c, 0, 64, 45
2, 339352, Note_on_c, 0, 80, 79
2, 339355, Note_on_c, 0, 68, 69
2, 339360, Note_on_c, 0, 54, 0
2, 339368, Control_c, 0, 64, 0
2, 339398, Note_on_c, 0, 78, 0
2, 339406, Control_c, 0, 64, 42
2, 339425, Control_c, 0, 64, 60
2, 339445, Control_c, 0, 64, 65
2, 339463, Control_c, 0, 64, 68
2, 339483, Control_c, 0, 64, 73
2, 339502, Control_c, 0, 64, 81
2, 339521, Control_c, 0, 64, 89
2, 339540, Control_c, 0, 64, 91
2, 339676, Control_c, 0, 64, 88
2, 339695, Control_c, 0, 64, 77
2, 339695, Note_on_c, 0, 53, 0
2, 339715, Control_c, 0, 64, 65
2, 339724, Note_on_c, 0, 51, 66
2, 339733, Control_c, 0, 64, 50
2, 339744, Note_on_c, 0, 82, 73
2, 339752, Control_c, 0, 64, 52
2, 339772, Control_c, 0, 64, 61
2, 339775, Note_on_c, 0, 80, 0
2, 339790, Control_c, 0, 64, 65
2, 339810, Control_c, 0, 64, 69
2, 339815, Note_on_c, 0, 82, 0
2, 339829, Control_c, 0, 64, 75
2, 339849, Control_c, 0, 64, 82
2, 339867, Control_c, 0, 64, 88
2, 339887, Control_c, 0, 64, 90
2, 339946, Note_on_c, 0, 68, 0
2, 340060, Control_c, 0, 64, 88
2, 340079, Control_c, 0, 64, 82
2, 340097, Control_c, 0, 64, 70
2, 340107, Note_on_c, 0, 49, 82
2, 340117, Control_c, 0, 64, 59
2, 340136, Control_c, 0, 64, 45
2, 340152, Note_on_c, 0, 51, 0
2, 340152, Note_on_c, 0, 66, 51
2, 340155, Control_c, 0, 64, 52
2, 340164, Note_on_c, 0, 70, 43
2, 340174, Control_c, 0, 64, 60
2, 340194, Control_c, 0, 64, 64
2, 340212, Control_c, 0, 64, 68
2, 340231, Control_c, 0, 64, 72
2, 340232, Note_on_c, 0, 70, 0
2, 340251, Control_c, 0, 64, 78
2, 340270, Control_c, 0, 64, 83
2, 340288, Note_on_c, 0, 66, 0
2, 340289, Control_c, 0, 64, 86
2, 340308, Control_c, 0, 64, 85
2, 340320, Note_on_c, 0, 65, 49
2, 340328, Control_c, 0, 64, 85
2, 340346, Control_c, 0, 64, 84
2, 340359, Note_on_c, 0, 65, 0
2, 340405, Control_c, 0, 64, 85
2, 340423, Control_c, 0, 64, 85
2, 340481, Control_c, 0, 64, 84
2, 340500, Control_c, 0, 64, 76
2, 340501, Note_on_c, 0, 47, 70
2, 340514, Note_on_c, 0, 49, 0
2, 340516, Note_on_c, 0, 75, 72
2, 340520, Control_c, 0, 64, 64
2, 340526, Note_on_c, 0, 66, 64
2, 340539, Control_c, 0, 64, 35
2, 340558, Control_c, 0, 64, 0
2, 340616, Control_c, 0, 64, 49
2, 340637, Control_c, 0, 64, 63
2, 340656, Control_c, 0, 64, 66
2, 340676, Control_c, 0, 64, 69
2, 340694, Control_c, 0, 64, 74
2, 340714, Control_c, 0, 64, 80
2, 340733, Control_c, 0, 64, 86
2, 340751, Control_c, 0, 64, 88
2, 340790, Control_c, 0, 64, 88
2, 340798, Note_on_c, 0, 66, 0
2, 340810, Control_c, 0, 64, 88
2, 340828, Control_c, 0, 64, 89
2, 340886, Control_c, 0, 64, 89
2, 340905, Control_c, 0, 64, 90
2, 340905, Note_on_c, 0, 77, 82
2, 340914, Note_on_c, 0, 68, 71
2, 340925, Control_c, 0, 64, 90
2, 340937, Note_on_c, 0, 47, 0
2, 340968, Note_on_c, 0, 75, 0
2, 340982, Control_c, 0, 64, 89
2, 341002, Control_c, 0, 64, 88
2, 341020, Control_c, 0, 64, 87
2, 341036, Note_on_c, 0, 68, 0
2, 341040, Control_c, 0, 64, 87
2, 341043, Note_on_c, 0, 77, 0
2, 341115, Control_c, 0, 64, 87
2, 341134, Control_c, 0, 64, 88
2, 341172, Control_c, 0, 64, 87
2, 341191, Control_c, 0, 64, 87
2, 341326, Control_c, 0, 64, 86
2, 341338, Note_on_c, 0, 46, 77
2, 341345, Control_c, 0, 64, 84
2, 341354, Note_on_c, 0, 74, 85
2, 341365, Control_c, 0, 64, 76
2, 341366, Note_on_c, 0, 70, 75
2, 341383, Control_c, 0, 64, 64
2, 341403, Control_c, 0, 64, 33
2, 341422, Control_c, 0, 64, 0
2, 341499, Control_c, 0, 64, 27
2, 341518, Control_c, 0, 64, 54
2, 341537, Control_c, 0, 64, 62
2, 341557, Control_c, 0, 64, 63
2, 341576, Control_c, 0, 64, 64
2, 341595, Control_c, 0, 64, 65
2, 341614, Control_c, 0, 64, 66
2, 341634, Control_c, 0, 64, 66
2, 341652, Control_c, 0, 64, 67
2, 341671, Control_c, 0, 64, 68
2, 341682, Note_on_c, 0, 46, 0
2, 341691, Control_c, 0, 64, 69
2, 341710, Control_c, 0, 64, 70
2, 341729, Control_c, 0, 64, 72
2, 341748, Control_c, 0, 64, 74
2, 341768, Control_c, 0, 64, 75
2, 342017, Control_c, 0, 64, 74
2, 342037, Control_c, 0, 64, 74
2, 342056, Control_c, 0, 64, 73
2, 342075, Control_c, 0, 64, 72
2, 342094, Control_c, 0, 64, 71
2, 342114, Control_c, 0, 64, 70
2, 342132, Control_c, 0, 64, 69
2, 342151, Control_c, 0, 64, 66
2, 342171, Control_c, 0, 64, 63
2, 342186, Note_on_c, 0, 58, 80
2, 342190, Control_c, 0, 64, 59
2, 342203, Note_on_c, 0, 51, 67
2, 342209, Control_c, 0, 64, 55
2, 342228, Control_c, 0, 64, 47
2, 342248, Control_c, 0, 64, 27
2, 342266, Control_c, 0, 64, 0
2, 342266, Note_on_c, 0, 74, 0
2, 342269, Note_on_c, 0, 70, 0
2, 342631, Control_c, 0, 64, 42
2, 342651, Control_c, 0, 64, 56
2, 342670, Control_c, 0, 64, 61
2, 342689, Control_c, 0, 64, 62
2, 342708, Control_c, 0, 64, 63
2, 342728, Control_c, 0, 64, 64
2, 342746, Control_c, 0, 64, 65
2, 342766, Control_c, 0, 64, 66
2, 342785, Control_c, 0, 64, 67
2, 342805, Control_c, 0, 64, 67
2, 342823, Control_c, 0, 64, 68
2, 342939, Control_c, 0, 64, 66
2, 342958, Control_c, 0, 64, 62
2, 342976, Control_c, 0, 64, 49
2, 342979, Note_on_c, 0, 70, 90
2, 342996, Control_c, 0, 64, 0
2, 343001, Note_on_c, 0, 63, 67
2, 343110, Control_c, 0, 64, 36
2, 343130, Control_c, 0, 64, 42
2, 343149, Control_c, 0, 64, 42
2, 343225, Control_c, 0, 64, 43
2, 343236, Note_on_c, 0, 58, 0
2, 343256, Note_on_c, 0, 51, 0
2, 343264, Control_c, 0, 64, 41
2, 343284, Control_c, 0, 64, 40
2, 343302, Control_c, 0, 64, 38
2, 343322, Control_c, 0, 64, 29
2, 343341, Control_c, 0, 64, 0
2, 343372, Note_on_c, 0, 52, 72
2, 343418, Control_c, 0, 64, 29
2, 343437, Control_c, 0, 64, 49
2, 343456, Control_c, 0, 64, 59
2, 343476, Control_c, 0, 64, 62
2, 343495, Control_c, 0, 64, 63
2, 343515, Control_c, 0, 64, 64
2, 343534, Control_c, 0, 64, 65
2, 343553, Control_c, 0, 64, 65
2, 343591, Control_c, 0, 64, 66
2, 343668, Control_c, 0, 64, 65
2, 343706, Control_c, 0, 64, 65
2, 343726, Control_c, 0, 64, 63
2, 343745, Control_c, 0, 64, 58
2, 343753, Note_on_c, 0, 51, 57
2, 343765, Control_c, 0, 64, 24
2, 343766, Note_on_c, 0, 75, 91
2, 343783, Control_c, 0, 64, 0
2, 343801, Note_on_c, 0, 52, 0
2, 343846, Note_on_c, 0, 70, 0
2, 343918, Control_c, 0, 64, 37
2, 343935, Control_c, 0, 64, 61
2, 343955, Control_c, 0, 64, 65
2, 343974, Control_c, 0, 64, 67
2, 343992, Control_c, 0, 64, 69
2, 344012, Control_c, 0, 64, 71
2, 344031, Control_c, 0, 64, 73
2, 344035, Note_on_c, 0, 63, 0
2, 344051, Control_c, 0, 64, 74
2, 344089, Control_c, 0, 64, 73
2, 344108, Control_c, 0, 64, 71
2, 344127, Control_c, 0, 64, 68
2, 344146, Control_c, 0, 64, 65
2, 344153, Note_on_c, 0, 49, 61
2, 344156, Note_on_c, 0, 64, 60
2, 344166, Control_c, 0, 64, 65
2, 344185, Control_c, 0, 64, 67
2, 344191, Note_on_c, 0, 51, 0
2, 344204, Control_c, 0, 64, 67
2, 344223, Control_c, 0, 64, 68
2, 344241, Note_on_c, 0, 64, 0
2, 344261, Control_c, 0, 64, 67
2, 344358, Control_c, 0, 64, 68
2, 344435, Control_c, 0, 64, 67
2, 344454, Control_c, 0, 64, 67
2, 344475, Control_c, 0, 64, 63
2, 344494, Control_c, 0, 64, 37
2, 344495, Note_on_c, 0, 49, 0
2, 344513, Control_c, 0, 64, 0
2, 344537, Note_on_c, 0, 47, 59
2, 344555, Note_on_c, 0, 63, 77
2, 344628, Control_c, 0, 64, 59
2, 344648, Control_c, 0, 64, 66
2, 344666, Control_c, 0, 64, 71
2, 344686, Control_c, 0, 64, 77
2, 344695, Note_on_c, 0, 75, 0
2, 344705, Control_c, 0, 64, 84
2, 344725, Control_c, 0, 64, 91
2, 344742, Note_on_c, 0, 47, 0
2, 344743, Control_c, 0, 64, 94
2, 344763, Control_c, 0, 64, 95
2, 344768, Note_on_c, 0, 63, 0
2, 344859, Control_c, 0, 64, 95
2, 344878, Control_c, 0, 64, 97
2, 344897, Control_c, 0, 64, 100
2, 344917, Control_c, 0, 64, 104
2, 344936, Control_c, 0, 64, 108
2, 344955, Control_c, 0, 64, 109
2, 344970, Note_on_c, 0, 76, 86
2, 344973, Note_on_c, 0, 61, 66
2, 344974, Control_c, 0, 64, 104
2, 344977, Note_on_c, 0, 49, 61
2, 344993, Control_c, 0, 64, 85
2, 345012, Control_c, 0, 64, 66
2, 345031, Control_c, 0, 64, 0
2, 345108, Control_c, 0, 64, 53
2, 345128, Control_c, 0, 64, 64
2, 345146, Control_c, 0, 64, 67
2, 345166, Control_c, 0, 64, 69
2, 345185, Control_c, 0, 64, 71
2, 345205, Control_c, 0, 64, 72
2, 345223, Control_c, 0, 64, 73
2, 345225, Note_on_c, 0, 61, 0
2, 345243, Control_c, 0, 64, 73
2, 345300, Control_c, 0, 64, 72
2, 345320, Control_c, 0, 64, 68
2, 345339, Control_c, 0, 64, 59
2, 345358, Control_c, 0, 64, 0
2, 345360, Note_on_c, 0, 75, 79
2, 345368, Note_on_c, 0, 59, 72
2, 345371, Note_on_c, 0, 51, 55
2, 345416, Note_on_c, 0, 49, 0
2, 345454, Control_c, 0, 64, 28
2, 345473, Control_c, 0, 64, 63
2, 345492, Control_c, 0, 64, 67
2, 345511, Control_c, 0, 64, 70
2, 345531, Control_c, 0, 64, 71
2, 345550, Control_c, 0, 64, 73
2, 345559, Note_on_c, 0, 59, 0
2, 345569, Control_c, 0, 64, 75
2, 345588, Control_c, 0, 64, 77
2, 345608, Control_c, 0, 64, 79
2, 345626, Control_c, 0, 64, 81
2, 345646, Control_c, 0, 64, 82
2, 345665, Control_c, 0, 64, 82
2, 345685, Control_c, 0, 64, 81
2, 345703, Control_c, 0, 64, 70
2, 345723, Control_c, 0, 64, 46
2, 345742, Control_c, 0, 64, 0
2, 345743, Note_on_c, 0, 61, 64
2, 345763, Note_on_c, 0, 73, 80
2, 345819, Control_c, 0, 64, 60
2, 345829, Note_on_c, 0, 61, 0
2, 345838, Control_c, 0, 64, 68
2, 345850, Note_on_c, 0, 76, 0
2, 345856, Control_c, 0, 64, 73
2, 345876, Control_c, 0, 64, 76
2, 345895, Control_c, 0, 64, 77
2, 345913, Note_on_c, 0, 51, 0
2, 345933, Control_c, 0, 64, 78
2, 345939, Note_on_c, 0, 75, 0
2, 345952, Control_c, 0, 64, 80
2, 345974, Note_on_c, 0, 73, 0
2, 345990, Control_c, 0, 64, 80
2, 346010, Control_c, 0, 64, 79
2, 346029, Control_c, 0, 64, 78
2, 346048, Control_c, 0, 64, 77
2, 346067, Control_c, 0, 64, 74
2, 346087, Control_c, 0, 64, 68
2, 346105, Control_c, 0, 64, 58
2, 346125, Control_c, 0, 64, 0
2, 346136, Note_on_c, 0, 44, 61
2, 346164, Note_on_c, 0, 71, 76
2, 346181, Note_on_c, 0, 63, 58
2, 346555, Note_on_c, 0, 73, 70
2, 346586, Control_c, 0, 64, 44
2, 346606, Control_c, 0, 64, 65
2, 346625, Control_c, 0, 64, 66
2, 346660, Note_on_c, 0, 44, 0
2, 346683, Control_c, 0, 64, 67
2, 346702, Control_c, 0, 64, 68
2, 346721, Control_c, 0, 64, 67
2, 346740, Control_c, 0, 64, 67
2, 346760, Control_c, 0, 64, 66
2, 346779, Control_c, 0, 64, 65
2, 346817, Control_c, 0, 64, 65
2, 346837, Control_c, 0, 64, 64
2, 346913, Control_c, 0, 64, 64
2, 346951, Control_c, 0, 64, 63
2, 346971, Control_c, 0, 64, 63
2, 346986, Note_on_c, 0, 56, 65
2, 346990, Control_c, 0, 64, 62
2, 346990, Note_on_c, 0, 75, 89
2, 346996, Note_on_c, 0, 47, 51
2, 347009, Control_c, 0, 64, 62
2, 347028, Control_c, 0, 64, 61
2, 347030, Note_on_c, 0, 71, 0
2, 347048, Control_c, 0, 64, 60
2, 347066, Control_c, 0, 64, 59
2, 347086, Control_c, 0, 64, 58
2, 347105, Control_c, 0, 64, 58
2, 347128, Note_on_c, 0, 73, 0
2, 347143, Control_c, 0, 64, 57
2, 347163, Control_c, 0, 64, 57
2, 347182, Control_c, 0, 64, 56
2, 347220, Control_c, 0, 64, 56
2, 347259, Control_c, 0, 64, 55
2, 347278, Control_c, 0, 64, 54
2, 347297, Control_c, 0, 64, 53
2, 347317, Control_c, 0, 64, 52
2, 347374, Control_c, 0, 64, 54
2, 347389, Note_on_c, 0, 54, 75
2, 347393, Control_c, 0, 64, 56
2, 347412, Control_c, 0, 64, 60
2, 347431, Control_c, 0, 64, 62
2, 347451, Control_c, 0, 64, 64
2, 347470, Control_c, 0, 64, 65
2, 347489, Control_c, 0, 64, 66
2, 347508, Control_c, 0, 64, 68
2, 347528, Control_c, 0, 64, 70
2, 347541, Note_on_c, 0, 56, 0
2, 347546, Control_c, 0, 64, 72
2, 347566, Control_c, 0, 64, 73
2, 347605, Control_c, 0, 64, 72
2, 347623, Control_c, 0, 64, 72
2, 347627, Note_on_c, 0, 54, 0
2, 347643, Control_c, 0, 64, 71
2, 347662, Control_c, 0, 64, 71
2, 347681, Control_c, 0, 64, 70
2, 347700, Control_c, 0, 64, 69
2, 347720, Control_c, 0, 64, 68
2, 347739, Control_c, 0, 64, 66
2, 347758, Control_c, 0, 64, 62
2, 347778, Control_c, 0, 64, 54
2, 347780, Note_on_c, 0, 47, 0
2, 347798, Control_c, 0, 64, 38
2, 347816, Control_c, 0, 64, 0
2, 347818, Note_on_c, 0, 53, 74
2, 347833, Note_on_c, 0, 49, 58
2, 347838, Note_on_c, 0, 68, 65
2, 347866, Note_on_c, 0, 75, 0
2, 348201, Control_c, 0, 64, 42
2, 348220, Control_c, 0, 64, 58
2, 348239, Control_c, 0, 64, 62
2, 348244, Note_on_c, 0, 70, 65
2, 348258, Control_c, 0, 64, 63
2, 348278, Control_c, 0, 64, 64
2, 348296, Control_c, 0, 64, 65
2, 348316, Control_c, 0, 64, 66
2, 348331, Note_on_c, 0, 53, 0
2, 348335, Control_c, 0, 64, 67
2, 348350, Note_on_c, 0, 49, 0
2, 348391, Note_on_c, 0, 71, 65
2, 348402, Note_on_c, 0, 63, 0
2, 348419, Note_on_c, 0, 70, 0
2, 348506, Note_on_c, 0, 68, 0
2, 348546, Control_c, 0, 64, 66
2, 348566, Control_c, 0, 64, 65
2, 348568, Note_on_c, 0, 42, 66
2, 348584, Control_c, 0, 64, 63
2, 348592, Note_on_c, 0, 70, 71
2, 348604, Control_c, 0, 64, 56
2, 348616, Note_on_c, 0, 61, 59
2, 348623, Control_c, 0, 64, 41
2, 348631, Note_on_c, 0, 71, 0
2, 348642, Control_c, 0, 64, 0
2, 349006, Control_c, 0, 64, 29
2, 349010, Note_on_c, 0, 71, 73
2, 349025, Control_c, 0, 64, 47
2, 349045, Control_c, 0, 64, 56
2, 349063, Control_c, 0, 64, 58
2, 349083, Control_c, 0, 64, 60
2, 349102, Control_c, 0, 64, 61
2, 349121, Control_c, 0, 64, 62
2, 349140, Control_c, 0, 64, 63
2, 349179, Control_c, 0, 64, 64
2, 349237, Control_c, 0, 64, 64
2, 349299, Note_on_c, 0, 70, 0
2, 349351, Control_c, 0, 64, 64
2, 349371, Control_c, 0, 64, 62
2, 349390, Control_c, 0, 64, 54
2, 349407, Note_on_c, 0, 54, 73
2, 349409, Control_c, 0, 64, 22
2, 349418, Note_on_c, 0, 73, 85
2, 349428, Control_c, 0, 64, 0
2, 349505, Control_c, 0, 64, 34
2, 349525, Control_c, 0, 64, 56
2, 349542, Note_on_c, 0, 71, 0
2, 349543, Control_c, 0, 64, 61
2, 349549, Note_on_c, 0, 42, 0
2, 349563, Control_c, 0, 64, 62
2, 349736, Control_c, 0, 64, 62
2, 349754, Control_c, 0, 64, 61
2, 349774, Control_c, 0, 64, 59
2, 349793, Control_c, 0, 64, 46
2, 349812, Control_c, 0, 64, 0
2, 349817, Note_on_c, 0, 41, 60
2, 349928, Control_c, 0, 64, 53
2, 349946, Control_c, 0, 64, 63
2, 349966, Control_c, 0, 64, 64
2, 350005, Control_c, 0, 64, 65
2, 350099, Note_on_c, 0, 41, 0
2, 350139, Control_c, 0, 64, 64
2, 350177, Control_c, 0, 64, 63
2, 350197, Control_c, 0, 64, 59
2, 350212, Note_on_c, 0, 42, 65
2, 350216, Control_c, 0, 64, 40
2, 350225, Note_on_c, 0, 66, 69
2, 350233, Control_c, 0, 64, 0
2, 350330, Control_c, 0, 64, 54
2, 350349, Control_c, 0, 64, 64
2, 350368, Control_c, 0, 64, 65
2, 350387, Control_c, 0, 64, 66
2, 350401, Note_on_c, 0, 54, 0
2, 350425, Control_c, 0, 64, 67
2, 350522, Control_c, 0, 64, 66
2, 350535, Note_on_c, 0, 42, 0
2, 350541, Control_c, 0, 64, 65
2, 350561, Control_c, 0, 64, 62
2, 350579, Control_c, 0, 64, 48
2, 350599, Control_c, 0, 64, 0
2, 350606, Note_on_c, 0, 44, 53
2, 350607, Note_on_c, 0, 53, 67
2, 350695, Control_c, 0, 64, 53
2, 350713, Control_c, 0, 64, 62
2, 350733, Control_c, 0, 64, 64
2, 350752, Control_c, 0, 64, 65
2, 350771, Control_c, 0, 64, 66
2, 350790, Control_c, 0, 64, 67
2, 350800, Note_on_c, 0, 53, 0
2, 350810, Control_c, 0, 64, 68
2, 350829, Control_c, 0, 64, 69
2, 350964, Control_c, 0, 64, 68
2, 350972, Note_on_c, 0, 73, 0
2, 350982, Control_c, 0, 64, 66
2, 351002, Control_c, 0, 64, 59
2, 351021, Control_c, 0, 64, 48
2, 351021, Note_on_c, 0, 54, 65
2, 351024, Note_on_c, 0, 66, 0
2, 351041, Control_c, 0, 64, 51
2, 351045, Note_on_c, 0, 46, 55
2, 351051, Note_on_c, 0, 61, 0
2, 351059, Control_c, 0, 64, 58
2, 351079, Control_c, 0, 64, 62
2, 351098, Control_c, 0, 64, 65
2, 351117, Control_c, 0, 64, 67
2, 351136, Control_c, 0, 64, 70
2, 351139, Note_on_c, 0, 44, 0
2, 351156, Control_c, 0, 64, 73
2, 351175, Control_c, 0, 64, 74
2, 351290, Control_c, 0, 64, 74
2, 351326, Note_on_c, 0, 54, 0
2, 351347, Control_c, 0, 64, 70
2, 351367, Control_c, 0, 64, 64
2, 351385, Control_c, 0, 64, 51
2, 351403, Note_on_c, 0, 56, 57
2, 351405, Control_c, 0, 64, 34
2, 351414, Note_on_c, 0, 65, 57
2, 351416, Note_on_c, 0, 44, 53
2, 351424, Control_c, 0, 64, 34
2, 351444, Control_c, 0, 64, 46
2, 351462, Control_c, 0, 64, 59
2, 351482, Control_c, 0, 64, 64
2, 351498, Note_on_c, 0, 46, 0
2, 351501, Control_c, 0, 64, 67
2, 351521, Control_c, 0, 64, 70
2, 351539, Control_c, 0, 64, 75
2, 351540, Note_on_c, 0, 56, 0
2, 351559, Control_c, 0, 64, 79
2, 351578, Control_c, 0, 64, 82
2, 351693, Control_c, 0, 64, 82
2, 351731, Control_c, 0, 64, 81
2, 351750, Control_c, 0, 64, 77
2, 351770, Control_c, 0, 64, 68
2, 351789, Control_c, 0, 64, 53
2, 351806, Note_on_c, 0, 42, 56
2, 351808, Control_c, 0, 64, 0
2, 351821, Note_on_c, 0, 44, 0
2, 351828, Note_on_c, 0, 58, 46
2, 351834, Note_on_c, 0, 66, 62
2, 351885, Control_c, 0, 64, 43
2, 351904, Control_c, 0, 64, 62
2, 351924, Control_c, 0, 64, 64
2, 351942, Control_c, 0, 64, 64
2, 351962, Control_c, 0, 64, 65
2, 351963, Note_on_c, 0, 58, 0
2, 351981, Control_c, 0, 64, 65
2, 352019, Control_c, 0, 64, 66
2, 352039, Control_c, 0, 64, 66
2, 352116, Control_c, 0, 64, 64
2, 352135, Control_c, 0, 64, 61
2, 352154, Control_c, 0, 64, 60
2, 352174, Control_c, 0, 64, 62
2, 352193, Control_c, 0, 64, 64
2, 352211, Note_on_c, 0, 68, 65
2, 352212, Control_c, 0, 64, 66
2, 352217, Note_on_c, 0, 56, 53
2, 352231, Control_c, 0, 64, 68
2, 352241, Note_on_c, 0, 52, 48
2, 352251, Control_c, 0, 64, 72
2, 352257, Note_on_c, 0, 42, 0
2, 352270, Control_c, 0, 64, 79
2, 352287, Note_on_c, 0, 66, 0
2, 352289, Control_c, 0, 64, 88
2, 352296, Note_on_c, 0, 56, 0
2, 352301, Note_on_c, 0, 52, 0
2, 352306, Note_on_c, 0, 65, 0
2, 352308, Control_c, 0, 64, 94
2, 352328, Control_c, 0, 64, 96
2, 352343, Note_on_c, 0, 68, 0
2, 352346, Control_c, 0, 64, 97
2, 352366, Control_c, 0, 64, 98
2, 352385, Control_c, 0, 64, 99
2, 352405, Control_c, 0, 64, 99
2, 352443, Control_c, 0, 64, 99
2, 352462, Control_c, 0, 64, 98
2, 352481, Control_c, 0, 64, 97
2, 352500, Control_c, 0, 64, 96
2, 352520, Control_c, 0, 64, 95
2, 352539, Control_c, 0, 64, 93
2, 352558, Control_c, 0, 64, 92
2, 352576, Control_c, 0, 64, 90
2, 352596, Control_c, 0, 64, 89
2, 352615, Control_c, 0, 64, 86
2, 352633, Control_c, 0, 64, 84
2, 352653, Control_c, 0, 64, 81
2, 352672, Control_c, 0, 64, 79
2, 352691, Control_c, 0, 64, 76
2, 352695, Note_on_c, 0, 54, 43
2, 352704, Note_on_c, 0, 51, 35
2, 352710, Control_c, 0, 64, 74
2, 352719, Note_on_c, 0, 70, 64
2, 352730, Control_c, 0, 64, 70
2, 352749, Control_c, 0, 64, 67
2, 352768, Control_c, 0, 64, 65
2, 352787, Control_c, 0, 64, 63
2, 352807, Control_c, 0, 64, 61
2, 352825, Control_c, 0, 64, 57
2, 352845, Control_c, 0, 64, 52
2, 352864, Control_c, 0, 64, 44
2, 352884, Control_c, 0, 64, 36
2, 352902, Control_c, 0, 64, 32
2, 352922, Control_c, 0, 64, 31
2, 352999, Control_c, 0, 64, 31
2, 353018, Control_c, 0, 64, 33
2, 353037, Control_c, 0, 64, 36
2, 353056, Control_c, 0, 64, 42
2, 353076, Control_c, 0, 64, 49
2, 353095, Control_c, 0, 64, 56
2, 353114, Control_c, 0, 64, 60
2, 353134, Control_c, 0, 64, 62
2, 353138, Note_on_c, 0, 68, 55
2, 353153, Control_c, 0, 64, 63
2, 353172, Control_c, 0, 64, 64
2, 353191, Control_c, 0, 64, 65
2, 353211, Control_c, 0, 64, 66
2, 353230, Control_c, 0, 64, 66
2, 353250, Note_on_c, 0, 70, 0
2, 353480, Control_c, 0, 64, 66
2, 353518, Control_c, 0, 64, 65
2, 353522, Note_on_c, 0, 66, 50
2, 353536, Control_c, 0, 64, 65
2, 353541, Note_on_c, 0, 59, 42
2, 353555, Control_c, 0, 64, 64
2, 353575, Control_c, 0, 64, 62
2, 353593, Control_c, 0, 64, 59
2, 353613, Control_c, 0, 64, 54
2, 353632, Control_c, 0, 64, 47
2, 353651, Control_c, 0, 64, 38
2, 353651, Note_on_c, 0, 68, 0
2, 353669, Note_on_c, 0, 54, 0
2, 353670, Control_c, 0, 64, 27
2, 353690, Control_c, 0, 64, 18
2, 353728, Control_c, 0, 64, 22
2, 353747, Control_c, 0, 64, 35
2, 353767, Control_c, 0, 64, 50
2, 353785, Control_c, 0, 64, 60
2, 353805, Control_c, 0, 64, 63
2, 353824, Control_c, 0, 64, 65
2, 353844, Control_c, 0, 64, 67
2, 353862, Control_c, 0, 64, 71
2, 353862, Note_on_c, 0, 68, 13
2, 353882, Control_c, 0, 64, 77
2, 353901, Control_c, 0, 64, 87
2, 353921, Control_c, 0, 64, 96
2, 353931, Note_on_c, 0, 58, 58
2, 353939, Control_c, 0, 64, 100
2, 353939, Note_on_c, 0, 68, 0
2, 353943, Note_on_c, 0, 59, 0
2, 353951, Note_on_c, 0, 66, 0
2, 353959, Control_c, 0, 64, 100
2, 354052, Note_on_c, 0, 58, 0
2, 354073, Control_c, 0, 64, 100
2, 354093, Control_c, 0, 64, 98
2, 354094, Note_on_c, 0, 51, 0
2, 354112, Control_c, 0, 64, 96
2, 354131, Control_c, 0, 64, 95
2, 354150, Control_c, 0, 64, 94
2, 354170, Control_c, 0, 64, 92
2, 354189, Control_c, 0, 64, 91
2, 354208, Control_c, 0, 64, 90
2, 354362, Control_c, 0, 64, 89
2, 354369, Note_on_c, 0, 56, 44
2, 354381, Control_c, 0, 64, 88
2, 354401, Control_c, 0, 64, 83
2, 354416, Note_on_c, 0, 76, 69
2, 354419, Control_c, 0, 64, 74
2, 354439, Control_c, 0, 64, 64
2, 354458, Control_c, 0, 64, 52
2, 354477, Control_c, 0, 64, 38
2, 354496, Control_c, 0, 64, 37
2, 354535, Control_c, 0, 64, 37
2, 354553, Control_c, 0, 64, 41
2, 354573, Control_c, 0, 64, 46
2, 354592, Control_c, 0, 64, 50
2, 354611, Control_c, 0, 64, 53
2, 354630, Control_c, 0, 64, 55
2, 354650, Control_c, 0, 64, 57
2, 354669, Control_c, 0, 64, 58
2, 354688, Control_c, 0, 64, 60
2, 354707, Control_c, 0, 64, 61
2, 354727, Control_c, 0, 64, 62
2, 354746, Control_c, 0, 64, 63
2, 354765, Control_c, 0, 64, 64
2, 354784, Control_c, 0, 64, 65
2, 354804, Control_c, 0, 64, 66
2, 354806, Note_on_c, 0, 49, 45
2, 354822, Control_c, 0, 64, 67
2, 354842, Control_c, 0, 64, 68
2, 354861, Control_c, 0, 64, 70
2, 354881, Control_c, 0, 64, 71
2, 354899, Control_c, 0, 64, 73
2, 354919, Control_c, 0, 64, 74
2, 355033, Control_c, 0, 64, 73
2, 355110, Control_c, 0, 64, 73
2, 355130, Control_c, 0, 64, 72
2, 355149, Control_c, 0, 64, 70
2, 355168, Control_c, 0, 64, 67
2, 355187, Control_c, 0, 64, 62
2, 355207, Control_c, 0, 64, 55
2, 355207, Note_on_c, 0, 73, 50
2, 355218, Note_on_c, 0, 47, 40
2, 355226, Control_c, 0, 64, 54
2, 355245, Control_c, 0, 64, 57
2, 355260, Note_on_c, 0, 49, 0
2, 355264, Control_c, 0, 64, 59
2, 355284, Control_c, 0, 64, 61
2, 355284, Control_c, 0, 67, 10
2, 355302, Control_c, 0, 64, 62
2, 355302, Control_c, 0, 67, 18
2, 355322, Control_c, 0, 64, 64
2, 355322, Control_c, 0, 67, 29
2, 355341, Control_c, 0, 64, 65
2, 355341, Control_c, 0, 67, 39
2, 355361, Control_c, 0, 64, 66
2, 355361, Control_c, 0, 67, 47
2, 355379, Control_c, 0, 67, 56
2, 355399, Control_c, 0, 67, 61
2, 355418, Control_c, 0, 67, 64
2, 355437, Control_c, 0, 64, 67
2, 355437, Control_c, 0, 67, 65
2, 355456, Control_c, 0, 64, 66
2, 355475, Control_c, 0, 64, 66
2, 355495, Control_c, 0, 64, 64
2, 355495, Control_c, 0, 67, 64
2, 355513, Control_c, 0, 64, 60
2, 355513, Control_c, 0, 67, 63
2, 355533, Control_c, 0, 64, 55
2, 355533, Control_c, 0, 67, 62
2, 355552, Control_c, 0, 64, 54
2, 355552, Control_c, 0, 67, 61
2, 355571, Control_c, 0, 64, 56
2, 355571, Control_c, 0, 67, 60
2, 355590, Control_c, 0, 64, 59
2, 355590, Control_c, 0, 67, 59
2, 355595, Note_on_c, 0, 47, 0
2, 355603, Note_on_c, 0, 46, 43
2, 355610, Control_c, 0, 64, 62
2, 355610, Control_c, 0, 67, 58
2, 355629, Control_c, 0, 64, 64
2, 355629, Control_c, 0, 67, 58
2, 355648, Control_c, 0, 64, 66
2, 355648, Control_c, 0, 67, 57
2, 355667, Control_c, 0, 64, 68
2, 355667, Control_c, 0, 67, 56
2, 355687, Control_c, 0, 64, 68
2, 355687, Control_c, 0, 67, 55
2, 355706, Control_c, 0, 64, 68
2, 355706, Control_c, 0, 67, 55
2, 355725, Control_c, 0, 67, 54
2, 355744, Control_c, 0, 67, 54
2, 355764, Control_c, 0, 67, 53
2, 355782, Control_c, 0, 67, 53
2, 355802, Control_c, 0, 64, 67
2, 355898, Control_c, 0, 64, 67
2, 355917, Control_c, 0, 64, 65
2, 355936, Control_c, 0, 64, 63
2, 355936, Control_c, 0, 67, 52
2, 355955, Control_c, 0, 64, 59
2, 355975, Control_c, 0, 64, 56
2, 355975, Control_c, 0, 67, 52
2, 355979, Note_on_c, 0, 46, 0
2, 355993, Control_c, 0, 64, 55
2, 356003, Note_on_c, 0, 47, 41
2, 356013, Control_c, 0, 64, 56
2, 356013, Control_c, 0, 67, 51
2, 356021, Note_on_c, 0, 66, 38
2, 356032, Control_c, 0, 64, 59
2, 356032, Control_c, 0, 67, 50
2, 356051, Control_c, 0, 64, 62
2, 356051, Control_c, 0, 67, 49
2, 356070, Control_c, 0, 64, 64
2, 356070, Control_c, 0, 67, 48
2, 356078, Note_on_c, 0, 56, 0
2, 356090, Control_c, 0, 64, 65
2, 356090, Control_c, 0, 67, 45
2, 356109, Control_c, 0, 64, 66
2, 356109, Control_c, 0, 67, 42
2, 356128, Control_c, 0, 64, 66
2, 356128, Control_c, 0, 67, 39
2, 356147, Control_c, 0, 64, 67
2, 356147, Control_c, 0, 67, 36
2, 356167, Control_c, 0, 64, 67
2, 356167, Control_c, 0, 67, 33
2, 356186, Control_c, 0, 64, 68
2, 356186, Control_c, 0, 67, 30
2, 356205, Control_c, 0, 67, 25
2, 356224, Control_c, 0, 67, 22
2, 356244, Control_c, 0, 67, 17
2, 356262, Control_c, 0, 64, 68
2, 356262, Control_c, 0, 67, 12
2, 356282, Control_c, 0, 64, 69
2, 356282, Control_c, 0, 67, 0
2, 356301, Control_c, 0, 64, 70
2, 356321, Control_c, 0, 64, 71
2, 356359, Control_c, 0, 64, 71
2, 356387, Note_on_c, 0, 76, 0
2, 356413, Control_c, 0, 64, 72
2, 356432, Control_c, 0, 64, 73
2, 356438, Note_on_c, 0, 74, 52
2, 356452, Control_c, 0, 64, 73
2, 356470, Control_c, 0, 64, 74
2, 356490, Control_c, 0, 64, 75
2, 356508, Note_on_c, 0, 73, 0
2, 356509, Control_c, 0, 64, 75
2, 356529, Control_c, 0, 64, 76
2, 356624, Control_c, 0, 64, 75
2, 356663, Control_c, 0, 64, 75
2, 356682, Control_c, 0, 64, 74
2, 356701, Control_c, 0, 64, 71
2, 356721, Control_c, 0, 64, 65
2, 356740, Control_c, 0, 64, 60
2, 356748, Note_on_c, 0, 47, 0
2, 356759, Control_c, 0, 64, 57
2, 356778, Control_c, 0, 64, 58
2, 356798, Control_c, 0, 64, 59
2, 356816, Control_c, 0, 64, 61
2, 356821, Note_on_c, 0, 75, 55
2, 356830, Note_on_c, 0, 71, 48
2, 356835, Control_c, 0, 64, 63
2, 356855, Control_c, 0, 64, 65
2, 356868, Note_on_c, 0, 59, 34
2, 356873, Note_on_c, 0, 74, 0
2, 356874, Control_c, 0, 64, 66
2, 356893, Control_c, 0, 64, 67
2, 356912, Control_c, 0, 64, 69
2, 356932, Control_c, 0, 64, 70
2, 356957, Control_c, 0, 64, 71
2, 356976, Control_c, 0, 64, 72
2, 357053, Control_c, 0, 64, 72
2, 357071, Control_c, 0, 64, 73
2, 357091, Control_c, 0, 64, 72
2, 357110, Control_c, 0, 64, 70
2, 357130, Control_c, 0, 64, 64
2, 357148, Control_c, 0, 64, 57
2, 357168, Control_c, 0, 64, 53
2, 357187, Control_c, 0, 64, 55
2, 357206, Control_c, 0, 64, 58
2, 357225, Control_c, 0, 64, 61
2, 357235, Note_on_c, 0, 58, 48
2, 357245, Control_c, 0, 64, 63
2, 357264, Control_c, 0, 64, 66
2, 357283, Control_c, 0, 64, 68
2, 357286, Note_on_c, 0, 59, 0
2, 357302, Control_c, 0, 64, 70
2, 357322, Control_c, 0, 64, 73
2, 357341, Control_c, 0, 64, 74
2, 357360, Control_c, 0, 64, 75
2, 357374, Note_on_c, 0, 66, 0
2, 357438, Note_on_c, 0, 71, 0
2, 357569, Control_c, 0, 64, 74
2, 357588, Control_c, 0, 64, 70
2, 357608, Control_c, 0, 64, 63
2, 357616, Note_on_c, 0, 58, 0
2, 357621, Note_on_c, 0, 56, 52
2, 357626, Control_c, 0, 64, 49
2, 357627, Note_on_c, 0, 71, 53
2, 357646, Control_c, 0, 64, 36
2, 357665, Control_c, 0, 64, 37
2, 357685, Control_c, 0, 64, 45
2, 357703, Control_c, 0, 64, 56
2, 357715, Note_on_c, 0, 75, 0
2, 357723, Control_c, 0, 64, 63
2, 357742, Control_c, 0, 64, 66
2, 357761, Control_c, 0, 64, 68
2, 357780, Control_c, 0, 64, 72
2, 357800, Control_c, 0, 64, 75
2, 357819, Control_c, 0, 64, 77
2, 357877, Control_c, 0, 64, 77
2, 357954, Control_c, 0, 64, 78
2, 357992, Control_c, 0, 64, 76
2, 358012, Control_c, 0, 64, 70
2, 358030, Control_c, 0, 64, 62
2, 358032, Note_on_c, 0, 56, 0
2, 358046, Note_on_c, 0, 58, 51
2, 358046, Note_on_c, 0, 78, 58
2, 358050, Control_c, 0, 64, 45
2, 358069, Control_c, 0, 64, 39
2, 358085, Note_on_c, 0, 70, 45
2, 358089, Control_c, 0, 64, 46
2, 358107, Control_c, 0, 64, 57
2, 358127, Control_c, 0, 64, 63
2, 358146, Control_c, 0, 64, 66
2, 358166, Control_c, 0, 64, 70
2, 358184, Control_c, 0, 64, 75
2, 358204, Control_c, 0, 64, 80
2, 358223, Control_c, 0, 64, 82
2, 358282, Note_on_c, 0, 70, 0
2, 358299, Note_on_c, 0, 78, 0
2, 358319, Control_c, 0, 64, 81
2, 358337, Control_c, 0, 64, 80
2, 358357, Control_c, 0, 64, 74
2, 358376, Control_c, 0, 64, 65
2, 358394, Control_c, 0, 64, 53
2, 358414, Control_c, 0, 64, 49
2, 358433, Control_c, 0, 64, 56
2, 358437, Note_on_c, 0, 59, 62
2, 358450, Note_on_c, 0, 77, 62
2, 358452, Control_c, 0, 64, 61
2, 358462, Note_on_c, 0, 68, 55
2, 358471, Control_c, 0, 64, 64
2, 358491, Control_c, 0, 64, 68
2, 358500, Note_on_c, 0, 58, 0
2, 358510, Control_c, 0, 64, 72
2, 358529, Control_c, 0, 64, 76
2, 358548, Control_c, 0, 64, 80
2, 358568, Control_c, 0, 64, 81
2, 358586, Control_c, 0, 64, 82
2, 358645, Control_c, 0, 64, 82
2, 358664, Note_on_c, 0, 68, 0
2, 358721, Control_c, 0, 64, 82
2, 358740, Control_c, 0, 64, 78
2, 358760, Control_c, 0, 64, 71
2, 358779, Control_c, 0, 64, 60
2, 358798, Control_c, 0, 64, 51
2, 358817, Control_c, 0, 64, 52
2, 358830, Note_on_c, 0, 56, 62
2, 358836, Control_c, 0, 64, 56
2, 358840, Note_on_c, 0, 75, 66
2, 358848, Note_on_c, 0, 59, 0
2, 358855, Note_on_c, 0, 66, 52
2, 358856, Control_c, 0, 64, 59
2, 358878, Control_c, 0, 64, 63
2, 358897, Control_c, 0, 64, 66
2, 358915, Control_c, 0, 64, 70
2, 358935, Control_c, 0, 64, 76
2, 358954, Control_c, 0, 64, 81
2, 358974, Control_c, 0, 64, 83
2, 358981, Note_on_c, 0, 66, 0
2, 358986, Note_on_c, 0, 56, 0
2, 359004, Note_on_c, 0, 71, 0
2, 359046, Note_on_c, 0, 75, 0
2, 359049, Note_on_c, 0, 77, 0
2, 359243, Control_c, 0, 64, 82
2, 359261, Control_c, 0, 64, 81
2, 359269, Note_on_c, 0, 65, 52
2, 359281, Control_c, 0, 64, 77
2, 359295, Note_on_c, 0, 74, 81
2, 359296, Control_c, 0, 64, 68
2, 359315, Control_c, 0, 64, 59
2, 359335, Control_c, 0, 64, 49
2, 359353, Control_c, 0, 64, 53
2, 359373, Control_c, 0, 64, 59
2, 359392, Control_c, 0, 64, 62
2, 359411, Control_c, 0, 64, 64
2, 359430, Control_c, 0, 64, 67
2, 359450, Control_c, 0, 64, 70
2, 359469, Control_c, 0, 64, 74
2, 359488, Control_c, 0, 64, 77
2, 359507, Control_c, 0, 64, 78
2, 359565, Control_c, 0, 64, 79
2, 359622, Control_c, 0, 64, 76
2, 359642, Control_c, 0, 64, 70
2, 359661, Control_c, 0, 64, 63
2, 359681, Control_c, 0, 64, 53
2, 359688, Note_on_c, 0, 63, 64
2, 359699, Control_c, 0, 64, 53
2, 359714, Note_on_c, 0, 77, 75
2, 359719, Control_c, 0, 64, 57
2, 359738, Control_c, 0, 64, 62
2, 359756, Control_c, 0, 64, 65
2, 359776, Control_c, 0, 64, 68
2, 359795, Control_c, 0, 64, 72
2, 359815, Control_c, 0, 64, 77
2, 359835, Control_c, 0, 64, 79
2, 359861, Note_on_c, 0, 65, 0
2, 359874, Control_c, 0, 64, 78
2, 359970, Control_c, 0, 64, 78
2, 360027, Control_c, 0, 64, 76
2, 360047, Control_c, 0, 64, 70
2, 360055, Note_on_c, 0, 62, 57
2, 360066, Control_c, 0, 64, 61
2, 360086, Control_c, 0, 64, 41
2, 360103, Note_on_c, 0, 82, 78
2, 360104, Control_c, 0, 64, 24
2, 360143, Control_c, 0, 64, 34
2, 360162, Control_c, 0, 64, 51
2, 360164, Note_on_c, 0, 63, 0
2, 360181, Control_c, 0, 64, 61
2, 360201, Control_c, 0, 64, 64
2, 360220, Control_c, 0, 64, 66
2, 360239, Control_c, 0, 64, 68
2, 360256, Control_c, 0, 64, 70
2, 360275, Control_c, 0, 64, 72
2, 360295, Control_c, 0, 64, 72
2, 360390, Control_c, 0, 64, 72
2, 360429, Control_c, 0, 64, 71
2, 360429, Control_c, 0, 67, 10
2, 360448, Control_c, 0, 64, 69
2, 360448, Control_c, 0, 67, 17
2, 360467, Control_c, 0, 64, 64
2, 360467, Control_c, 0, 67, 25
2, 360487, Control_c, 0, 64, 54
2, 360487, Control_c, 0, 67, 35
2, 360506, Control_c, 0, 64, 34
2, 360506, Control_c, 0, 67, 46
2, 360525, Control_c, 0, 64, 0
2, 360525, Control_c, 0, 67, 58
2, 360533, Note_on_c, 0, 65, 44
2, 360538, Note_on_c, 0, 56, 37
2, 360544, Control_c, 0, 67, 67
2, 360561, Note_on_c, 0, 62, 0
2, 360564, Control_c, 0, 67, 74
2, 360582, Control_c, 0, 64, 34
2, 360582, Control_c, 0, 67, 80
2, 360602, Control_c, 0, 64, 56
2, 360602, Control_c, 0, 67, 86
2, 360621, Control_c, 0, 64, 64
2, 360621, Control_c, 0, 67, 91
2, 360641, Control_c, 0, 64, 67
2, 360641, Control_c, 0, 67, 94
2, 360659, Control_c, 0, 64, 71
2, 360659, Control_c, 0, 67, 97
2, 360679, Control_c, 0, 64, 78
2, 360679, Control_c, 0, 67, 99
2, 360698, Control_c, 0, 64, 86
2, 360698, Control_c, 0, 67, 100
2, 360716, Control_c, 0, 64, 89
2, 360716, Control_c, 0, 67, 101
2, 360736, Control_c, 0, 64, 90
2, 360749, Note_on_c, 0, 65, 0
2, 360766, Note_on_c, 0, 56, 0
2, 360929, Control_c, 0, 64, 89
2, 360948, Control_c, 0, 64, 88
2, 360968, Control_c, 0, 64, 88
2, 360986, Control_c, 0, 64, 87
2, 361006, Control_c, 0, 64, 85
2, 361006, Control_c, 0, 67, 101
2, 361025, Control_c, 0, 64, 80
2, 361025, Control_c, 0, 67, 102
2, 361043, Note_on_c, 0, 58, 39
2, 361045, Control_c, 0, 64, 70
2, 361045, Control_c, 0, 67, 103
2, 361063, Control_c, 0, 64, 60
2, 361063, Control_c, 0, 67, 107
2, 361070, Note_on_c, 0, 54, 30
2, 361083, Control_c, 0, 64, 29
2, 361083, Control_c, 0, 67, 115
2, 361102, Control_c, 0, 64, 0
2, 361102, Control_c, 0, 67, 124
2, 361121, Control_c, 0, 67, 127
2, 361140, Control_c, 0, 64, 23
2, 361160, Control_c, 0, 64, 49
2, 361179, Control_c, 0, 64, 62
2, 361198, Control_c, 0, 64, 66
2, 361216, Control_c, 0, 64, 70
2, 361235, Control_c, 0, 64, 76
2, 361255, Control_c, 0, 64, 87
2, 361273, Control_c, 0, 64, 95
2, 361286, Note_on_c, 0, 58, 0
2, 361293, Control_c, 0, 64, 98
2, 361313, Note_on_c, 0, 54, 0
2, 361427, Control_c, 0, 64, 97
2, 361466, Control_c, 0, 64, 97
2, 361504, Control_c, 0, 64, 96
2, 361524, Control_c, 0, 64, 95
2, 361542, Control_c, 0, 64, 89
2, 361554, Note_on_c, 0, 68, 48
2, 361560, Note_on_c, 0, 56, 39
2, 361562, Control_c, 0, 64, 78
2, 361567, Note_on_c, 0, 83, 52
2, 361578, Note_on_c, 0, 82, 0
2, 361581, Control_c, 0, 64, 67
2, 361601, Control_c, 0, 64, 56
2, 361610, Note_on_c, 0, 74, 0
2, 361619, Control_c, 0, 64, 50
2, 361639, Control_c, 0, 64, 56
2, 361658, Control_c, 0, 64, 62
2, 361676, Control_c, 0, 64, 64
2, 361696, Control_c, 0, 64, 67
2, 361715, Control_c, 0, 64, 70
2, 361723, Note_on_c, 0, 68, 0
2, 361735, Control_c, 0, 64, 73
2, 361755, Control_c, 0, 64, 76
2, 361775, Control_c, 0, 64, 77
2, 361813, Control_c, 0, 64, 76
2, 361870, Control_c, 0, 64, 75
2, 361890, Control_c, 0, 64, 70
2, 361909, Control_c, 0, 64, 61
2, 361929, Control_c, 0, 64, 37
2, 361947, Control_c, 0, 64, 0
2, 361976, Note_on_c, 0, 66, 45
2, 361979, Note_on_c, 0, 56, 0
2, 361981, Note_on_c, 0, 82, 62
2, 361986, Control_c, 0, 64, 37
2, 361990, Note_on_c, 0, 58, 41
2, 362006, Control_c, 0, 64, 58
2, 362024, Control_c, 0, 64, 65
2, 362044, Control_c, 0, 64, 69
2, 362063, Control_c, 0, 64, 74
2, 362082, Control_c, 0, 64, 82
2, 362101, Control_c, 0, 64, 87
2, 362115, Note_on_c, 0, 83, 0
2, 362121, Control_c, 0, 64, 88
2, 362232, Control_c, 0, 64, 88
2, 362252, Control_c, 0, 64, 87
2, 362271, Control_c, 0, 64, 83
2, 362273, Note_on_c, 0, 66, 0
2, 362291, Control_c, 0, 64, 72
2, 362305, Note_on_c, 0, 77, 0
2, 362309, Control_c, 0, 64, 61
2, 362329, Control_c, 0, 64, 41
2, 362348, Control_c, 0, 64, 44
2, 362365, Note_on_c, 0, 80, 66
2, 362367, Control_c, 0, 64, 56
2, 362382, Note_on_c, 0, 65, 48
2, 362386, Control_c, 0, 64, 62
2, 362406, Control_c, 0, 64, 66
2, 362425, Control_c, 0, 64, 69
2, 362444, Control_c, 0, 64, 75
2, 362451, Note_on_c, 0, 65, 0
2, 362463, Control_c, 0, 64, 81
2, 362472, Note_on_c, 0, 58, 0
2, 362483, Control_c, 0, 64, 84
2, 362521, Control_c, 0, 64, 83
2, 362598, Control_c, 0, 64, 83
2, 362674, Control_c, 0, 64, 82
2, 362694, Control_c, 0, 64, 79
2, 362714, Control_c, 0, 64, 72
2, 362734, Control_c, 0, 64, 62
2, 362753, Control_c, 0, 64, 27
2, 362772, Control_c, 0, 64, 0
2, 362777, Note_on_c, 0, 78, 63
2, 362792, Note_on_c, 0, 82, 0
2, 362794, Note_on_c, 0, 63, 42
2, 362798, Note_on_c, 0, 51, 39
2, 362811, Control_c, 0, 64, 15
2, 362830, Control_c, 0, 64, 53
2, 362849, Control_c, 0, 64, 64
2, 362868, Control_c, 0, 64, 67
2, 362886, Note_on_c, 0, 80, 0
2, 362888, Control_c, 0, 64, 71
2, 362906, Control_c, 0, 64, 75
2, 362926, Control_c, 0, 64, 78
2, 362945, Control_c, 0, 64, 79
2, 362965, Control_c, 0, 64, 79
2, 363003, Control_c, 0, 64, 79
2, 363060, Control_c, 0, 64, 78
2, 363080, Control_c, 0, 64, 77
2, 363099, Control_c, 0, 64, 71
2, 363118, Control_c, 0, 64, 62
2, 363136, Control_c, 0, 64, 37
2, 363141, Note_on_c, 0, 51, 0
2, 363155, Control_c, 0, 64, 9
2, 363175, Control_c, 0, 64, 17
2, 363177, Note_on_c, 0, 53, 49
2, 363193, Control_c, 0, 64, 36
2, 363193, Note_on_c, 0, 80, 65
2, 363213, Control_c, 0, 64, 54
2, 363232, Control_c, 0, 64, 62
2, 363245, Note_on_c, 0, 78, 0
2, 363251, Control_c, 0, 64, 64
2, 363270, Control_c, 0, 64, 66
2, 363290, Control_c, 0, 64, 67
2, 363309, Control_c, 0, 64, 68
2, 363328, Control_c, 0, 64, 68
2, 363367, Control_c, 0, 64, 68
2, 363444, Control_c, 0, 64, 67
2, 363513, Note_on_c, 0, 63, 0
2, 363539, Control_c, 0, 64, 67
2, 363552, Note_on_c, 0, 55, 41
2, 363559, Control_c, 0, 64, 65
2, 363571, Note_on_c, 0, 53, 0
2, 363577, Note_on_c, 0, 82, 62
2, 363578, Control_c, 0, 64, 63
2, 363582, Note_on_c, 0, 80, 0
2, 363596, Control_c, 0, 64, 59
2, 363607, Note_on_c, 0, 75, 38
2, 363616, Control_c, 0, 64, 52
2, 363635, Control_c, 0, 64, 36
2, 363655, Control_c, 0, 64, 11
2, 363674, Control_c, 0, 64, 0
2, 363771, Control_c, 0, 64, 26
2, 363790, Control_c, 0, 64, 38
2, 363809, Control_c, 0, 64, 49
2, 363828, Control_c, 0, 64, 56
2, 363848, Control_c, 0, 64, 60
2, 363866, Control_c, 0, 64, 63
2, 363886, Control_c, 0, 64, 65
2, 363905, Control_c, 0, 64, 67
2, 363925, Control_c, 0, 64, 71
2, 363943, Control_c, 0, 64, 76
2, 363963, Control_c, 0, 64, 81
2, 363973, Note_on_c, 0, 73, 46
2, 363982, Control_c, 0, 64, 83
2, 364020, Control_c, 0, 64, 82
2, 364032, Note_on_c, 0, 75, 0
2, 364040, Control_c, 0, 64, 80
2, 364074, Note_on_c, 0, 73, 0
2, 364090, Note_on_c, 0, 82, 0
2, 364096, Control_c, 0, 64, 81
2, 364102, Note_on_c, 0, 55, 0
2, 364211, Control_c, 0, 64, 80
2, 364327, Control_c, 0, 64, 79
2, 364346, Control_c, 0, 64, 75
2, 364365, Control_c, 0, 64, 67
2, 364373, Note_on_c, 0, 56, 42
2, 364373, Note_on_c, 0, 75, 63
2, 364384, Control_c, 0, 64, 57
2, 364404, Control_c, 0, 64, 38
2, 364411, Note_on_c, 0, 71, 43
2, 364422, Control_c, 0, 64, 32
2, 364442, Control_c, 0, 64, 34
2, 364461, Control_c, 0, 64, 44
2, 364481, Control_c, 0, 64, 55
2, 364499, Control_c, 0, 64, 61
2, 364519, Control_c, 0, 64, 63
2, 364538, Control_c, 0, 64, 64
2, 364556, Control_c, 0, 64, 64
2, 364633, Control_c, 0, 64, 63
2, 364653, Control_c, 0, 64, 61
2, 364672, Control_c, 0, 64, 54
2, 364691, Control_c, 0, 64, 39
2, 364710, Control_c, 0, 64, 31
2, 364749, Control_c, 0, 64, 42
2, 364768, Control_c, 0, 64, 57
2, 364785, Note_on_c, 0, 54, 44
2, 364787, Control_c, 0, 64, 64
2, 364794, Note_on_c, 0, 56, 0
2, 364805, Note_on_c, 0, 70, 45
2, 364807, Control_c, 0, 64, 66
2, 364826, Control_c, 0, 64, 70
2, 364845, Control_c, 0, 64, 73
2, 364858, Note_on_c, 0, 71, 0
2, 364864, Control_c, 0, 64, 76
2, 364884, Control_c, 0, 64, 78
2, 364897, Note_on_c, 0, 70, 0
2, 364902, Control_c, 0, 64, 78
2, 364922, Control_c, 0, 64, 78
2, 364979, Control_c, 0, 64, 77
2, 364999, Control_c, 0, 64, 77
2, 365075, Control_c, 0, 64, 76
2, 365081, Note_on_c, 0, 54, 0
2, 365095, Control_c, 0, 64, 76
2, 365113, Control_c, 0, 64, 75
2, 365133, Control_c, 0, 64, 75
2, 365152, Control_c, 0, 64, 73
2, 365171, Control_c, 0, 64, 70
2, 365190, Control_c, 0, 64, 64
2, 365196, Note_on_c, 0, 53, 39
2, 365197, Note_on_c, 0, 80, 71
2, 365210, Control_c, 0, 64, 55
2, 365229, Control_c, 0, 64, 41
2, 365244, Note_on_c, 0, 68, 44
2, 365248, Control_c, 0, 64, 31
2, 365267, Control_c, 0, 64, 28
2, 365295, Note_on_c, 0, 75, 0
2, 365382, Control_c, 0, 64, 30
2, 365402, Control_c, 0, 64, 33
2, 365421, Control_c, 0, 64, 38
2, 365441, Control_c, 0, 64, 43
2, 365459, Control_c, 0, 64, 48
2, 365479, Control_c, 0, 64, 52
2, 365498, Control_c, 0, 64, 56
2, 365516, Control_c, 0, 64, 60
2, 365528, Note_on_c, 0, 53, 0
2, 365536, Control_c, 0, 64, 62
2, 365555, Control_c, 0, 64, 63
2, 365575, Control_c, 0, 64, 65
2, 365594, Control_c, 0, 64, 66
2, 365599, Note_on_c, 0, 68, 0
2, 365601, Note_on_c, 0, 51, 42
2, 365610, Note_on_c, 0, 71, 51
2, 365614, Control_c, 0, 64, 68
2, 365633, Control_c, 0, 64, 71
2, 365652, Control_c, 0, 64, 73
2, 365671, Control_c, 0, 64, 75
2, 365748, Control_c, 0, 64, 75
2, 365845, Control_c, 0, 64, 75
2, 365883, Control_c, 0, 64, 74
2, 365921, Control_c, 0, 64, 73
2, 365940, Control_c, 0, 64, 72
2, 365960, Control_c, 0, 64, 70
2, 365979, Control_c, 0, 64, 64
2, 365997, Control_c, 0, 64, 50
2, 366010, Note_on_c, 0, 51, 0
2, 366018, Control_c, 0, 64, 25
2, 366027, Note_on_c, 0, 70, 54
2, 366032, Note_on_c, 0, 50, 40
2, 366037, Control_c, 0, 64, 13
2, 366075, Control_c, 0, 64, 32
2, 366095, Control_c, 0, 64, 52
2, 366114, Control_c, 0, 64, 62
2, 366133, Control_c, 0, 64, 65
2, 366152, Control_c, 0, 64, 66
2, 366172, Control_c, 0, 64, 68
2, 366191, Control_c, 0, 64, 70
2, 366210, Control_c, 0, 64, 73
2, 366229, Control_c, 0, 64, 75
2, 366249, Control_c, 0, 64, 77
2, 366255, Note_on_c, 0, 80, 0
2, 366267, Control_c, 0, 64, 77
2, 366306, Control_c, 0, 64, 78
2, 366326, Control_c, 0, 64, 78
2, 366344, Control_c, 0, 64, 79
2, 366364, Control_c, 0, 64, 78
2, 366371, Note_on_c, 0, 50, 0
2, 366383, Control_c, 0, 64, 75
2, 366402, Control_c, 0, 64, 67
2, 366421, Control_c, 0, 64, 57
2, 366422, Note_on_c, 0, 78, 68
2, 366431, Note_on_c, 0, 51, 43
2, 366441, Control_c, 0, 64, 38
2, 366456, Note_on_c, 0, 75, 48
2, 366460, Control_c, 0, 64, 36
2, 366479, Control_c, 0, 64, 45
2, 366479, Note_on_c, 0, 71, 0
2, 366498, Control_c, 0, 64, 55
2, 366517, Control_c, 0, 64, 62
2, 366536, Control_c, 0, 64, 64
2, 366555, Control_c, 0, 64, 66
2, 366575, Control_c, 0, 64, 68
2, 366594, Control_c, 0, 64, 71
2, 366613, Control_c, 0, 64, 73
2, 366632, Control_c, 0, 64, 74
2, 366747, Control_c, 0, 64, 73
2, 366767, Control_c, 0, 64, 72
2, 366786, Control_c, 0, 64, 69
2, 366806, Control_c, 0, 64, 63
2, 366817, Note_on_c, 0, 51, 0
2, 366824, Control_c, 0, 64, 47
2, 366832, Note_on_c, 0, 46, 41
2, 366834, Note_on_c, 0, 77, 68
2, 366844, Control_c, 0, 64, 9
2, 366863, Control_c, 0, 64, 0
2, 366866, Note_on_c, 0, 75, 0
2, 367091, Control_c, 0, 64, 17
2, 367109, Control_c, 0, 64, 35
2, 367129, Control_c, 0, 64, 49
2, 367148, Control_c, 0, 64, 58
2, 367167, Control_c, 0, 64, 62
2, 367186, Control_c, 0, 64, 64
2, 367206, Control_c, 0, 64, 66
2, 367225, Control_c, 0, 64, 68
2, 367237, Note_on_c, 0, 73, 53
2, 367244, Control_c, 0, 64, 72
2, 367247, Note_on_c, 0, 58, 41
2, 367263, Control_c, 0, 64, 78
2, 367283, Control_c, 0, 64, 85
2, 367301, Control_c, 0, 64, 91
2, 367301, Note_on_c, 0, 46, 0
2, 367313, Note_on_c, 0, 78, 0
2, 367321, Control_c, 0, 64, 94
2, 367321, Note_on_c, 0, 77, 0
2, 367340, Control_c, 0, 64, 96
2, 367360, Control_c, 0, 64, 99
2, 367378, Control_c, 0, 64, 102
2, 367393, Note_on_c, 0, 58, 0
2, 367397, Control_c, 0, 64, 103
2, 367417, Control_c, 0, 64, 104
2, 367494, Control_c, 0, 64, 103
2, 367512, Control_c, 0, 64, 103
2, 367532, Control_c, 0, 64, 102
2, 367551, Control_c, 0, 64, 102
2, 367571, Control_c, 0, 64, 101
2, 367589, Control_c, 0, 64, 100
2, 367609, Control_c, 0, 64, 99
2, 367628, Control_c, 0, 64, 96
2, 367647, Control_c, 0, 64, 94
2, 367658, Note_on_c, 0, 59, 46
2, 367666, Control_c, 0, 64, 91
2, 367686, Control_c, 0, 64, 87
2, 367705, Control_c, 0, 64, 83
2, 367705, Note_on_c, 0, 75, 73
2, 367724, Control_c, 0, 64, 77
2, 367743, Control_c, 0, 64, 69
2, 367759, Note_on_c, 0, 70, 0
2, 367763, Control_c, 0, 64, 62
2, 367781, Control_c, 0, 64, 51
2, 367801, Control_c, 0, 64, 43
2, 367820, Control_c, 0, 64, 40
2, 367840, Control_c, 0, 64, 37
2, 367858, Control_c, 0, 64, 36
2, 367888, Note_on_c, 0, 73, 0
2, 367915, Control_c, 0, 64, 36
2, 367935, Control_c, 0, 64, 37
2, 367954, Control_c, 0, 64, 39
2, 367974, Control_c, 0, 64, 42
2, 367992, Control_c, 0, 64, 46
2, 368012, Control_c, 0, 64, 50
2, 368031, Control_c, 0, 64, 54
2, 368051, Control_c, 0, 64, 57
2, 368069, Control_c, 0, 64, 60
2, 368089, Control_c, 0, 64, 62
2, 368104, Note_on_c, 0, 71, 51
2, 368108, Control_c, 0, 64, 64
2, 368119, Note_on_c, 0, 51, 34
2, 368127, Control_c, 0, 64, 65
2, 368146, Control_c, 0, 64, 67
2, 368166, Control_c, 0, 64, 70
2, 368178, Note_on_c, 0, 59, 0
2, 368185, Control_c, 0, 64, 74
2, 368204, Control_c, 0, 64, 78
2, 368223, Control_c, 0, 64, 80
2, 368243, Control_c, 0, 64, 81
2, 368331, Note_on_c, 0, 75, 0
2, 368415, Control_c, 0, 64, 81
2, 368434, Control_c, 0, 64, 80
2, 368454, Control_c, 0, 64, 79
2, 368472, Control_c, 0, 64, 79
2, 368491, Note_on_c, 0, 53, 41
2, 368492, Control_c, 0, 64, 78
2, 368511, Control_c, 0, 64, 76
2, 368531, Control_c, 0, 64, 72
2, 368535, Note_on_c, 0, 73, 64
2, 368543, Note_on_c, 0, 51, 0
2, 368549, Control_c, 0, 64, 68
2, 368569, Control_c, 0, 64, 65
2, 368588, Control_c, 0, 64, 62
2, 368607, Control_c, 0, 64, 60
2, 368626, Control_c, 0, 64, 58
2, 368646, Control_c, 0, 64, 56
2, 368646, Note_on_c, 0, 71, 0
2, 368665, Control_c, 0, 64, 54
2, 368684, Control_c, 0, 64, 51
2, 368703, Control_c, 0, 64, 50
2, 368723, Control_c, 0, 64, 50
2, 368741, Control_c, 0, 64, 49
2, 368761, Control_c, 0, 64, 49
2, 368800, Control_c, 0, 64, 49
2, 368818, Control_c, 0, 64, 51
2, 368837, Control_c, 0, 64, 53
2, 368857, Control_c, 0, 64, 56
2, 368875, Control_c, 0, 64, 59
2, 368895, Control_c, 0, 64, 62
2, 368914, Control_c, 0, 64, 63
2, 368926, Note_on_c, 0, 70, 49
2, 368934, Control_c, 0, 64, 65
2, 368947, Note_on_c, 0, 55, 10
2, 368952, Control_c, 0, 64, 68
2, 368972, Control_c, 0, 64, 70
2, 368991, Control_c, 0, 64, 73
2, 369011, Control_c, 0, 64, 75
2, 369029, Control_c, 0, 64, 76
2, 369048, Note_on_c, 0, 70, 0
2, 369048, Note_on_c, 0, 73, 0
2, 369049, Control_c, 0, 64, 78
2, 369064, Note_on_c, 0, 53, 0
2, 369068, Control_c, 0, 64, 79
2, 369087, Control_c, 0, 64, 80
2, 369145, Control_c, 0, 64, 79
2, 369203, Control_c, 0, 64, 79
2, 369241, Control_c, 0, 64, 78
2, 369260, Control_c, 0, 64, 77
2, 369280, Control_c, 0, 64, 76
2, 369298, Control_c, 0, 64, 74
2, 369310, Note_on_c, 0, 71, 58
2, 369312, Note_on_c, 0, 56, 41
2, 369317, Control_c, 0, 64, 70
2, 369337, Control_c, 0, 64, 65
2, 369337, Note_on_c, 0, 55, 0
2, 369355, Control_c, 0, 64, 58
2, 369375, Control_c, 0, 64, 53
2, 369394, Control_c, 0, 64, 51
2, 369414, Control_c, 0, 64, 48
2, 369432, Control_c, 0, 64, 45
2, 369452, Control_c, 0, 64, 43
2, 369471, Control_c, 0, 64, 42
2, 369606, Control_c, 0, 64, 43
2, 369625, Control_c, 0, 64, 45
2, 369644, Control_c, 0, 64, 50
2, 369663, Control_c, 0, 64, 55
2, 369683, Control_c, 0, 64, 60
2, 369701, Control_c, 0, 64, 62
2, 369708, Note_on_c, 0, 53, 40
2, 369721, Control_c, 0, 64, 64
2, 369728, Note_on_c, 0, 68, 40
2, 369740, Control_c, 0, 64, 66
2, 369760, Control_c, 0, 64, 67
2, 369764, Note_on_c, 0, 56, 0
2, 369778, Control_c, 0, 64, 70
2, 369797, Control_c, 0, 64, 73
2, 369817, Control_c, 0, 64, 75
2, 369835, Control_c, 0, 64, 77
2, 369845, Note_on_c, 0, 71, 0
2, 369855, Control_c, 0, 64, 78
2, 369971, Control_c, 0, 64, 77
2, 369989, Control_c, 0, 64, 77
2, 370009, Control_c, 0, 64, 76
2, 370028, Control_c, 0, 64, 75
2, 370047, Control_c, 0, 64, 73
2, 370066, Control_c, 0, 64, 69
2, 370086, Control_c, 0, 64, 64
2, 370094, Note_on_c, 0, 53, 0
2, 370105, Control_c, 0, 64, 57
2, 370124, Control_c, 0, 64, 51
2, 370129, Note_on_c, 0, 70, 58
2, 370143, Control_c, 0, 64, 49
2, 370144, Note_on_c, 0, 50, 34
2, 370163, Control_c, 0, 64, 48
2, 370174, Note_on_c, 0, 68, 0
2, 370181, Control_c, 0, 64, 47
2, 370220, Control_c, 0, 64, 47
2, 370393, Control_c, 0, 64, 47
2, 370432, Control_c, 0, 64, 48
2, 370451, Control_c, 0, 64, 50
2, 370470, Control_c, 0, 64, 54
2, 370490, Control_c, 0, 64, 58
2, 370509, Control_c, 0, 64, 61
2, 370521, Note_on_c, 0, 66, 40
2, 370528, Control_c, 0, 64, 63
2, 370540, Note_on_c, 0, 51, 34
2, 370547, Control_c, 0, 64, 65
2, 370548, Note_on_c, 0, 50, 0
2, 370567, Control_c, 0, 64, 66
2, 370586, Control_c, 0, 64, 67
2, 370605, Control_c, 0, 64, 69
2, 370616, Note_on_c, 0, 51, 0
2, 370624, Control_c, 0, 64, 70
2, 370644, Control_c, 0, 64, 70
2, 370682, Control_c, 0, 64, 71
2, 370721, Control_c, 0, 64, 71
2, 370855, Control_c, 0, 64, 71
2, 370873, Control_c, 0, 64, 70
2, 370893, Control_c, 0, 64, 65
2, 370912, Control_c, 0, 64, 59
2, 370931, Control_c, 0, 64, 45
2, 370945, Note_on_c, 0, 48, 39
2, 370950, Control_c, 0, 64, 38
2, 370969, Note_on_c, 0, 68, 53
2, 370989, Control_c, 0, 64, 42
2, 371008, Control_c, 0, 64, 51
2, 371027, Control_c, 0, 64, 60
2, 371041, Note_on_c, 0, 66, 0
2, 371047, Control_c, 0, 64, 63
2, 371066, Control_c, 0, 64, 64
2, 371068, Note_on_c, 0, 70, 0
2, 371085, Control_c, 0, 64, 66
2, 371104, Control_c, 0, 64, 67
2, 371124, Control_c, 0, 64, 69
2, 371142, Control_c, 0, 64, 69
2, 371162, Control_c, 0, 64, 70
2, 371238, Control_c, 0, 64, 70
2, 371296, Control_c, 0, 64, 70
2, 371315, Control_c, 0, 64, 67
2, 371335, Control_c, 0, 64, 63
2, 371350, Note_on_c, 0, 48, 0
2, 371354, Control_c, 0, 64, 54
2, 371374, Control_c, 0, 64, 49
2, 371393, Control_c, 0, 64, 52
2, 371411, Note_on_c, 0, 50, 31
2, 371412, Control_c, 0, 64, 57
2, 371417, Note_on_c, 0, 65, 41
2, 371431, Control_c, 0, 64, 62
2, 371451, Control_c, 0, 64, 65
2, 371470, Control_c, 0, 64, 67
2, 371489, Control_c, 0, 64, 71
2, 371508, Control_c, 0, 64, 76
2, 371528, Control_c, 0, 64, 81
2, 371546, Control_c, 0, 64, 85
2, 371566, Control_c, 0, 64, 85
2, 371681, Control_c, 0, 64, 83
2, 371700, Control_c, 0, 64, 74
2, 371720, Control_c, 0, 64, 64
2, 371739, Control_c, 0, 64, 43
2, 371757, Control_c, 0, 64, 31
2, 371773, Note_on_c, 0, 50, 0
2, 371776, Control_c, 0, 64, 41
2, 371789, Note_on_c, 0, 51, 44
2, 371795, Control_c, 0, 64, 55
2, 371802, Note_on_c, 0, 66, 49
2, 371815, Control_c, 0, 64, 62
2, 371833, Control_c, 0, 64, 65
2, 371853, Control_c, 0, 64, 68
2, 371872, Control_c, 0, 64, 71
2, 371891, Control_c, 0, 64, 74
2, 371910, Control_c, 0, 64, 75
2, 371967, Note_on_c, 0, 65, 0
2, 372161, Control_c, 0, 64, 75
2, 372179, Control_c, 0, 64, 74
2, 372198, Control_c, 0, 64, 71
2, 372200, Note_on_c, 0, 39, 51
2, 372218, Control_c, 0, 64, 64
2, 372236, Control_c, 0, 64, 53
2, 372236, Note_on_c, 0, 63, 47
2, 372256, Control_c, 0, 64, 39
2, 372295, Control_c, 0, 64, 46
2, 372314, Control_c, 0, 64, 54
2, 372315, Note_on_c, 0, 68, 0
2, 372334, Control_c, 0, 64, 60
2, 372353, Control_c, 0, 64, 63
2, 372372, Control_c, 0, 64, 65
2, 372384, Note_on_c, 0, 51, 0
2, 372391, Control_c, 0, 64, 68
2, 372411, Control_c, 0, 64, 69
2, 372430, Control_c, 0, 64, 71
2, 372448, Note_on_c, 0, 63, 0
2, 372565, Control_c, 0, 64, 70
2, 372583, Note_on_c, 0, 66, 0
2, 372660, Control_c, 0, 64, 70
2, 372730, Note_on_c, 0, 46, 49
2, 372736, Control_c, 0, 64, 70
2, 372738, Note_on_c, 0, 65, 48
2, 372752, Note_on_c, 0, 62, 42
2, 372755, Control_c, 0, 64, 70
2, 372775, Control_c, 0, 64, 68
2, 372793, Control_c, 0, 64, 63
2, 372805, Note_on_c, 0, 39, 0
2, 372813, Control_c, 0, 64, 0
2, 372947, Control_c, 0, 64, 26
2, 372967, Control_c, 0, 64, 62
2, 372986, Control_c, 0, 64, 69
2, 372992, Note_on_c, 0, 62, 0
2, 373005, Control_c, 0, 64, 76
2, 373024, Control_c, 0, 64, 83
2, 373036, Note_on_c, 0, 65, 0
2, 373044, Control_c, 0, 64, 88
2, 373062, Control_c, 0, 64, 93
2, 373082, Control_c, 0, 64, 98
2, 373101, Control_c, 0, 64, 102
2, 373121, Control_c, 0, 64, 105
2, 373139, Control_c, 0, 64, 107
2, 373158, Control_c, 0, 64, 108
2, 373178, Control_c, 0, 64, 115
2, 373196, Control_c, 0, 64, 127
2, 373200, Note_on_c, 0, 65, 68
2, 373293, Control_c, 0, 64, 114
2, 373312, Control_c, 0, 64, 95
2, 373331, Control_c, 0, 64, 78
2, 373350, Control_c, 0, 64, 65
2, 373370, Control_c, 0, 64, 59
2, 373389, Control_c, 0, 64, 59
2, 373408, Control_c, 0, 64, 62
2, 373427, Control_c, 0, 64, 64
2, 373447, Control_c, 0, 64, 66
2, 373466, Control_c, 0, 64, 67
2, 373485, Control_c, 0, 64, 69
2, 373504, Control_c, 0, 64, 72
2, 373524, Control_c, 0, 64, 73
2, 373542, Control_c, 0, 64, 75
2, 373562, Control_c, 0, 64, 76
2, 373581, Control_c, 0, 64, 78
2, 373601, Control_c, 0, 64, 79
2, 373619, Control_c, 0, 64, 80
2, 373638, Control_c, 0, 64, 80
2, 373658, Control_c, 0, 64, 81
2, 373664, Note_on_c, 0, 70, 80
2, 373676, Control_c, 0, 64, 83
2, 373695, Control_c, 0, 64, 84
2, 373695, Control_c, 0, 67, 125
2, 373714, Control_c, 0, 64, 85
2, 373714, Control_c, 0, 67, 124
2, 373734, Control_c, 0, 64, 86
2, 373734, Control_c, 0, 67, 123
2, 373752, Control_c, 0, 67, 121
2, 373772, Control_c, 0, 64, 86
2, 373772, Control_c, 0, 67, 120
2, 373791, Control_c, 0, 64, 87
2, 373791, Control_c, 0, 67, 118
2, 373811, Control_c, 0, 64, 87
2, 373811, Control_c, 0, 67, 115
2, 373829, Control_c, 0, 64, 88
2, 373829, Control_c, 0, 67, 113
2, 373849, Control_c, 0, 67, 110
2, 373868, Control_c, 0, 64, 89
2, 373868, Control_c, 0, 67, 103
2, 373887, Control_c, 0, 67, 93
2, 373906, Control_c, 0, 64, 90
2, 373906, Control_c, 0, 67, 80
2, 373926, Control_c, 0, 64, 90
2, 373926, Control_c, 0, 67, 66
2, 373945, Control_c, 0, 64, 91
2, 373945, Control_c, 0, 67, 52
2, 373964, Control_c, 0, 64, 93
2, 373964, Control_c, 0, 67, 38
2, 373983, Control_c, 0, 64, 95
2, 373983, Control_c, 0, 67, 26
2, 374003, Control_c, 0, 64, 98
2, 374003, Control_c, 0, 67, 12
2, 374021, Control_c, 0, 64, 100
2, 374021, Control_c, 0, 67, 0
2, 374041, Control_c, 0, 64, 103
2, 374060, Control_c, 0, 64, 106
2, 374080, Control_c, 0, 64, 113
2, 374081, Note_on_c, 0, 72, 63
2, 374098, Control_c, 0, 64, 127
2, 374471, Note_on_c, 0, 58, 76
2, 374526, Note_on_c, 0, 74, 54
2, 374540, Control_c, 0, 64, 118
2, 374559, Control_c, 0, 64, 90
2, 374564, Note_on_c, 0, 72, 0
2, 374568, Note_on_c, 0, 70, 0
2, 374578, Control_c, 0, 64, 74
2, 374597, Control_c, 0, 64, 63
2, 374617, Control_c, 0, 64, 56
2, 374636, Control_c, 0, 64, 59
2, 374654, Control_c, 0, 64, 62
2, 374673, Control_c, 0, 64, 65
2, 374693, Control_c, 0, 64, 67
2, 374711, Control_c, 0, 64, 69
2, 374731, Control_c, 0, 64, 72
2, 374750, Control_c, 0, 64, 74
2, 374770, Control_c, 0, 64, 75
2, 374788, Control_c, 0, 64, 74
2, 374808, Control_c, 0, 64, 72
2, 374827, Control_c, 0, 64, 68
2, 374846, Control_c, 0, 64, 64
2, 374865, Control_c, 0, 64, 63
2, 374885, Control_c, 0, 64, 63
2, 374888, Note_on_c, 0, 71, 73
2, 374904, Control_c, 0, 64, 64
2, 374905, Note_on_c, 0, 75, 65
2, 374923, Control_c, 0, 64, 66
2, 374942, Control_c, 0, 64, 69
2, 374962, Control_c, 0, 64, 73
2, 374974, Note_on_c, 0, 74, 0
2, 374981, Control_c, 0, 64, 78
2, 374999, Control_c, 0, 64, 83
2, 375019, Control_c, 0, 64, 89
2, 375038, Control_c, 0, 64, 92
2, 375052, Note_on_c, 0, 65, 0
2, 375057, Control_c, 0, 64, 92
2, 375076, Control_c, 0, 64, 93
2, 375083, Note_on_c, 0, 75, 0
2, 375095, Note_on_c, 0, 71, 0
2, 375096, Control_c, 0, 64, 94
2, 375115, Control_c, 0, 64, 95
2, 375134, Control_c, 0, 64, 96
2, 375153, Control_c, 0, 64, 97
2, 375173, Control_c, 0, 64, 99
2, 375194, Control_c, 0, 64, 100
2, 375233, Control_c, 0, 64, 96
2, 375252, Control_c, 0, 64, 85
2, 375271, Control_c, 0, 64, 73
2, 375291, Control_c, 0, 64, 64
2, 375309, Note_on_c, 0, 77, 77
2, 375310, Control_c, 0, 64, 63
2, 375328, Note_on_c, 0, 70, 70
2, 375329, Control_c, 0, 64, 64
2, 375348, Control_c, 0, 64, 67
2, 375368, Control_c, 0, 64, 71
2, 375386, Control_c, 0, 64, 79
2, 375406, Control_c, 0, 64, 89
2, 375425, Control_c, 0, 64, 101
2, 375445, Control_c, 0, 64, 107
2, 375463, Control_c, 0, 64, 111
2, 375483, Control_c, 0, 64, 113
2, 375496, Note_on_c, 0, 46, 0
2, 375502, Control_c, 0, 64, 114
2, 375521, Control_c, 0, 64, 116
2, 375540, Control_c, 0, 64, 118
2, 375559, Control_c, 0, 64, 121
2, 375579, Control_c, 0, 64, 123
2, 375597, Control_c, 0, 64, 127
2, 375620, Note_on_c, 0, 58, 0
2, 375721, Note_on_c, 0, 68, 80
2, 375769, Note_on_c, 0, 70, 0
2, 375895, Note_on_c, 0, 68, 0
2, 376114, Control_c, 0, 64, 123
2, 376134, Control_c, 0, 64, 87
2, 376149, Note_on_c, 0, 66, 76
2, 376151, Note_on_c, 0, 63, 70
2, 376152, Control_c, 0, 64, 69
2, 376172, Control_c, 0, 64, 58
2, 376191, Control_c, 0, 64, 46
2, 376211, Control_c, 0, 64, 53
2, 376229, Control_c, 0, 64, 60
2, 376249, Control_c, 0, 64, 65
2, 376268, Control_c, 0, 64, 69
2, 376287, Control_c, 0, 64, 75
2, 376306, Control_c, 0, 64, 88
2, 376326, Control_c, 0, 64, 106
2, 376345, Control_c, 0, 64, 127
2, 376517, Control_c, 0, 64, 89
2, 376537, Control_c, 0, 64, 71
2, 376556, Control_c, 0, 64, 59
2, 376575, Control_c, 0, 64, 45
2, 376585, Note_on_c, 0, 68, 74
2, 376594, Control_c, 0, 64, 51
2, 376613, Note_on_c, 0, 75, 66
2, 376614, Control_c, 0, 64, 59
2, 376632, Control_c, 0, 64, 63
2, 376652, Control_c, 0, 64, 66
2, 376669, Note_on_c, 0, 66, 0
2, 376671, Control_c, 0, 64, 70
2, 376691, Control_c, 0, 64, 76
2, 376693, Note_on_c, 0, 77, 0
2, 376709, Control_c, 0, 64, 84
2, 376729, Control_c, 0, 64, 92
2, 376748, Control_c, 0, 64, 95
2, 376825, Control_c, 0, 64, 95
2, 376844, Control_c, 0, 64, 96
2, 376863, Control_c, 0, 64, 96
2, 376883, Control_c, 0, 64, 97
2, 376901, Control_c, 0, 64, 97
2, 376940, Control_c, 0, 64, 97
2, 376959, Control_c, 0, 64, 91
2, 376978, Control_c, 0, 64, 78
2, 376997, Control_c, 0, 64, 65
2, 377017, Control_c, 0, 64, 40
2, 377031, Note_on_c, 0, 70, 83
2, 377036, Control_c, 0, 64, 0
2, 377081, Note_on_c, 0, 73, 53
2, 377094, Control_c, 0, 64, 41
2, 377111, Note_on_c, 0, 75, 0
2, 377113, Control_c, 0, 64, 59
2, 377133, Control_c, 0, 64, 63
2, 377152, Control_c, 0, 64, 64
2, 377171, Control_c, 0, 64, 65
2, 377172, Note_on_c, 0, 68, 0
2, 377190, Control_c, 0, 64, 67
2, 377210, Control_c, 0, 64, 69
2, 377214, Note_on_c, 0, 73, 0
2, 377229, Control_c, 0, 64, 72
2, 377235, Note_on_c, 0, 71, 57
2, 377248, Control_c, 0, 64, 75
2, 377267, Control_c, 0, 64, 79
2, 377287, Control_c, 0, 64, 80
2, 377306, Control_c, 0, 64, 81
2, 377325, Control_c, 0, 64, 81
2, 377344, Control_c, 0, 64, 82
2, 377378, Note_on_c, 0, 73, 54
2, 377382, Control_c, 0, 64, 78
2, 377402, Control_c, 0, 64, 73
2, 377421, Control_c, 0, 64, 69
2, 377441, Control_c, 0, 64, 69
2, 377459, Control_c, 0, 64, 71
2, 377478, Control_c, 0, 64, 75
2, 377498, Control_c, 0, 64, 79
2, 377516, Control_c, 0, 64, 84
2, 377534, Control_c, 0, 64, 90
2, 377546, Note_on_c, 0, 73, 0
2, 377547, Note_on_c, 0, 79, 57
2, 377553, Control_c, 0, 64, 93
2, 377566, Note_on_c, 0, 71, 0
2, 377573, Control_c, 0, 64, 94
2, 377598, Note_on_c, 0, 79, 0
2, 377611, Control_c, 0, 64, 93
2, 377630, Control_c, 0, 64, 92
2, 377650, Control_c, 0, 64, 91
2, 377668, Control_c, 0, 64, 86
2, 377688, Control_c, 0, 64, 77
2, 377707, Control_c, 0, 64, 67
2, 377726, Control_c, 0, 64, 58
2, 377745, Control_c, 0, 64, 44
2, 377757, Note_on_c, 0, 80, 70
2, 377765, Control_c, 0, 64, 43
2, 377784, Control_c, 0, 64, 52
2, 377803, Control_c, 0, 64, 60
2, 377822, Control_c, 0, 64, 64
2, 377842, Control_c, 0, 64, 67
2, 377861, Control_c, 0, 64, 70
2, 377879, Control_c, 0, 64, 76
2, 377899, Control_c, 0, 64, 84
2, 377918, Control_c, 0, 64, 89
2, 377937, Control_c, 0, 64, 90
2, 377940, Note_on_c, 0, 82, 77
2, 377956, Control_c, 0, 64, 90
2, 378014, Control_c, 0, 64, 91
2, 378053, Control_c, 0, 64, 89
2, 378071, Control_c, 0, 64, 82
2, 378087, Control_c, 0, 64, 71
2, 378106, Control_c, 0, 64, 61
2, 378115, Note_on_c, 0, 83, 78
2, 378126, Control_c, 0, 64, 48
2, 378145, Control_c, 0, 64, 49
2, 378164, Control_c, 0, 64, 58
2, 378177, Note_on_c, 0, 82, 0
2, 378183, Control_c, 0, 64, 63
2, 378202, Note_on_c, 0, 80, 0
2, 378203, Control_c, 0, 64, 66
2, 378221, Control_c, 0, 64, 69
2, 378241, Control_c, 0, 64, 73
2, 378260, Control_c, 0, 64, 79
2, 378279, Control_c, 0, 64, 83
2, 378298, Control_c, 0, 64, 85
2, 378302, Note_on_c, 0, 63, 0
2, 378342, Note_on_c, 0, 70, 0
2, 378375, Control_c, 0, 64, 85
2, 378394, Control_c, 0, 64, 86
2, 378414, Control_c, 0, 64, 86
2, 378432, Control_c, 0, 64, 87
2, 378452, Control_c, 0, 64, 90
2, 378471, Control_c, 0, 64, 91
2, 378529, Control_c, 0, 64, 90
2, 378540, Note_on_c, 0, 64, 79
2, 378548, Control_c, 0, 64, 85
2, 378551, Note_on_c, 0, 68, 69
2, 378567, Control_c, 0, 64, 73
2, 378586, Control_c, 0, 64, 61
2, 378606, Control_c, 0, 64, 35
2, 378625, Control_c, 0, 64, 15
2, 378644, Control_c, 0, 64, 22
2, 378663, Control_c, 0, 64, 41
2, 378683, Control_c, 0, 64, 55
2, 378701, Control_c, 0, 64, 61
2, 378721, Control_c, 0, 64, 63
2, 378740, Control_c, 0, 64, 64
2, 378759, Control_c, 0, 64, 64
2, 378778, Control_c, 0, 64, 65
2, 378797, Control_c, 0, 64, 66
2, 378817, Control_c, 0, 64, 66
2, 378836, Control_c, 0, 64, 67
2, 378855, Control_c, 0, 64, 67
2, 378887, Note_on_c, 0, 83, 0
2, 378894, Control_c, 0, 64, 68
2, 378912, Control_c, 0, 64, 68
2, 378932, Control_c, 0, 64, 69
2, 378951, Control_c, 0, 64, 70
2, 378962, Note_on_c, 0, 82, 76
2, 378971, Control_c, 0, 64, 70
2, 378989, Control_c, 0, 64, 71
2, 379033, Control_c, 0, 64, 71
2, 379053, Control_c, 0, 64, 72
2, 379072, Control_c, 0, 64, 73
2, 379091, Control_c, 0, 64, 74
2, 379110, Control_c, 0, 64, 75
2, 379130, Control_c, 0, 64, 75
2, 379138, Note_on_c, 0, 80, 71
2, 379149, Control_c, 0, 64, 76
2, 379168, Control_c, 0, 64, 76
2, 379196, Note_on_c, 0, 82, 0
2, 379287, Note_on_c, 0, 68, 0
2, 379322, Control_c, 0, 64, 77
2, 379341, Control_c, 0, 64, 77
2, 379354, Note_on_c, 0, 64, 0
2, 379361, Control_c, 0, 64, 78
2, 379398, Control_c, 0, 64, 77
2, 379398, Note_on_c, 0, 63, 78
2, 379418, Control_c, 0, 64, 74
2, 379436, Control_c, 0, 64, 68
2, 379439, Note_on_c, 0, 82, 82
2, 379453, Note_on_c, 0, 80, 0
2, 379456, Control_c, 0, 64, 61
2, 379475, Control_c, 0, 64, 47
2, 379495, Control_c, 0, 64, 27
2, 379513, Control_c, 0, 64, 19
2, 379552, Control_c, 0, 64, 29
2, 379571, Control_c, 0, 64, 44
2, 379590, Control_c, 0, 64, 54
2, 379610, Control_c, 0, 64, 58
2, 379629, Control_c, 0, 64, 59
2, 379667, Control_c, 0, 64, 60
2, 379687, Control_c, 0, 64, 60
2, 379706, Control_c, 0, 64, 61
2, 379725, Control_c, 0, 64, 61
2, 379744, Control_c, 0, 64, 62
2, 379782, Control_c, 0, 64, 63
2, 379802, Control_c, 0, 64, 63
2, 379821, Control_c, 0, 64, 64
2, 379840, Control_c, 0, 64, 65
2, 379859, Control_c, 0, 64, 67
2, 379876, Note_on_c, 0, 75, 64
2, 379878, Control_c, 0, 64, 70
2, 379878, Note_on_c, 0, 67, 51
2, 379898, Control_c, 0, 64, 75
2, 379916, Control_c, 0, 64, 84
2, 379936, Control_c, 0, 64, 96
2, 379955, Control_c, 0, 64, 108
2, 379975, Control_c, 0, 64, 109
2, 379986, Note_on_c, 0, 63, 0
2, 380033, Control_c, 0, 64, 108
2, 380036, Note_on_c, 0, 67, 0
2, 380091, Control_c, 0, 64, 108
2, 380110, Control_c, 0, 64, 107
2, 380129, Control_c, 0, 64, 106
2, 380148, Control_c, 0, 64, 105
2, 380168, Control_c, 0, 64, 104
2, 380186, Control_c, 0, 64, 102
2, 380206, Control_c, 0, 64, 100
2, 380225, Control_c, 0, 64, 93
2, 380245, Control_c, 0, 64, 81
2, 380251, Note_on_c, 0, 61, 72
2, 380263, Control_c, 0, 64, 68
2, 380283, Control_c, 0, 64, 56
2, 380283, Note_on_c, 0, 77, 66
2, 380286, Note_on_c, 0, 65, 43
2, 380302, Control_c, 0, 64, 29
2, 380322, Control_c, 0, 64, 20
2, 380340, Control_c, 0, 64, 21
2, 380359, Control_c, 0, 64, 30
2, 380379, Control_c, 0, 64, 43
2, 380397, Control_c, 0, 64, 52
2, 380399, Note_on_c, 0, 82, 0
2, 380416, Control_c, 0, 64, 57
2, 380435, Control_c, 0, 64, 58
2, 380455, Control_c, 0, 64, 59
2, 380473, Control_c, 0, 64, 60
2, 380493, Control_c, 0, 64, 61
2, 380512, Control_c, 0, 64, 63
2, 380531, Control_c, 0, 64, 64
2, 380550, Control_c, 0, 64, 64
2, 380570, Control_c, 0, 64, 66
2, 380589, Control_c, 0, 64, 68
2, 380608, Control_c, 0, 64, 72
2, 380627, Control_c, 0, 64, 78
2, 380629, Note_on_c, 0, 64, 56
2, 380647, Control_c, 0, 64, 86
2, 380647, Note_on_c, 0, 79, 69
2, 380666, Control_c, 0, 64, 92
2, 380672, Note_on_c, 0, 75, 0
2, 380685, Control_c, 0, 64, 94
2, 380710, Note_on_c, 0, 77, 0
2, 380714, Note_on_c, 0, 64, 0
2, 380720, Note_on_c, 0, 61, 0
2, 380722, Note_on_c, 0, 65, 0
2, 380773, Note_on_c, 0, 79, 0
2, 380876, Control_c, 0, 64, 94
2, 380896, Control_c, 0, 64, 93
2, 380915, Control_c, 0, 64, 93
2, 380935, Control_c, 0, 64, 92
2, 380951, Control_c, 0, 64, 92
2, 380990, Control_c, 0, 64, 91
2, 381010, Control_c, 0, 64, 90
2, 381028, Control_c, 0, 64, 86
2, 381048, Control_c, 0, 64, 78
2, 381053, Note_on_c, 0, 59, 74
2, 381067, Control_c, 0, 64, 65
2, 381085, Note_on_c, 0, 80, 73
2, 381086, Control_c, 0, 64, 46
2, 381105, Control_c, 0, 64, 0
2, 381109, Note_on_c, 0, 63, 35
2, 381202, Control_c, 0, 64, 13
2, 381221, Control_c, 0, 64, 32
2, 381239, Control_c, 0, 64, 41
2, 381259, Control_c, 0, 64, 45
2, 381278, Control_c, 0, 64, 46
2, 381297, Control_c, 0, 64, 47
2, 381316, Control_c, 0, 64, 48
2, 381336, Control_c, 0, 64, 50
2, 381355, Control_c, 0, 64, 51
2, 381373, Control_c, 0, 64, 52
2, 381392, Control_c, 0, 64, 53
2, 381412, Control_c, 0, 64, 55
2, 381431, Control_c, 0, 64, 56
2, 381450, Control_c, 0, 64, 58
2, 381469, Control_c, 0, 64, 59
2, 381489, Control_c, 0, 64, 61
2, 381507, Control_c, 0, 64, 62
2, 381510, Note_on_c, 0, 71, 54
2, 381527, Control_c, 0, 64, 64
2, 381546, Control_c, 0, 64, 65
2, 381566, Control_c, 0, 64, 66
2, 381584, Control_c, 0, 64, 67
2, 381604, Control_c, 0, 64, 67
2, 381623, Control_c, 0, 64, 67
2, 381642, Control_c, 0, 64, 66
2, 381661, Control_c, 0, 64, 66
2, 381680, Control_c, 0, 64, 65
2, 381700, Control_c, 0, 64, 66
2, 381853, Control_c, 0, 64, 65
2, 381872, Control_c, 0, 64, 64
2, 381892, Control_c, 0, 64, 58
2, 381898, Note_on_c, 0, 61, 62
2, 381910, Note_on_c, 0, 63, 0
2, 381911, Control_c, 0, 64, 44
2, 381918, Note_on_c, 0, 70, 67
2, 381931, Control_c, 0, 64, 0
2, 381944, Note_on_c, 0, 71, 0
2, 382027, Control_c, 0, 64, 39
2, 382046, Control_c, 0, 64, 55
2, 382065, Control_c, 0, 64, 60
2, 382085, Control_c, 0, 64, 61
2, 382104, Control_c, 0, 64, 62
2, 382123, Control_c, 0, 64, 63
2, 382142, Control_c, 0, 64, 64
2, 382162, Control_c, 0, 64, 65
2, 382181, Control_c, 0, 64, 66
2, 382199, Control_c, 0, 64, 68
2, 382206, Note_on_c, 0, 70, 0
2, 382219, Control_c, 0, 64, 71
2, 382238, Control_c, 0, 64, 74
2, 382257, Control_c, 0, 64, 78
2, 382276, Control_c, 0, 64, 81
2, 382289, Note_on_c, 0, 68, 72
2, 382296, Control_c, 0, 64, 79
2, 382315, Control_c, 0, 64, 76
2, 382334, Control_c, 0, 64, 72
2, 382353, Control_c, 0, 64, 68
2, 382373, Control_c, 0, 64, 68
2, 382391, Control_c, 0, 64, 69
2, 382406, Note_on_c, 0, 80, 0
2, 382411, Control_c, 0, 64, 71
2, 382430, Control_c, 0, 64, 73
2, 382442, Note_on_c, 0, 68, 0
2, 382450, Control_c, 0, 64, 76
2, 382468, Control_c, 0, 64, 79
2, 382488, Control_c, 0, 64, 81
2, 382507, Control_c, 0, 64, 82
2, 382545, Control_c, 0, 64, 82
2, 382584, Control_c, 0, 64, 83
2, 382622, Control_c, 0, 64, 82
2, 382679, Control_c, 0, 64, 82
2, 382699, Control_c, 0, 64, 81
2, 382718, Control_c, 0, 64, 80
2, 382737, Control_c, 0, 64, 79
2, 382756, Control_c, 0, 64, 78
2, 382776, Control_c, 0, 64, 75
2, 382795, Control_c, 0, 64, 70
2, 382797, Note_on_c, 0, 63, 71
2, 382810, Note_on_c, 0, 67, 34
2, 382814, Control_c, 0, 64, 64
2, 382827, Note_on_c, 0, 82, 80
2, 382833, Control_c, 0, 64, 55
2, 382853, Control_c, 0, 64, 26
2, 382871, Control_c, 0, 64, 0
2, 383122, Control_c, 0, 64, 29
2, 383141, Control_c, 0, 64, 43
2, 383159, Control_c, 0, 64, 52
2, 383179, Control_c, 0, 64, 58
2, 383181, Note_on_c, 0, 63, 0
2, 383198, Control_c, 0, 64, 61
2, 383217, Control_c, 0, 64, 63
2, 383236, Control_c, 0, 64, 64
2, 383256, Control_c, 0, 64, 64
2, 383275, Control_c, 0, 64, 65
2, 383282, Note_on_c, 0, 63, 53
2, 383293, Control_c, 0, 64, 66
2, 383311, Note_on_c, 0, 59, 0
2, 383312, Control_c, 0, 64, 66
2, 383332, Control_c, 0, 64, 67
2, 383341, Note_on_c, 0, 67, 0
2, 383370, Control_c, 0, 64, 68
2, 383409, Control_c, 0, 64, 67
2, 383446, Note_on_c, 0, 61, 0
2, 383457, Note_on_c, 0, 65, 48
2, 383466, Control_c, 0, 64, 67
2, 383504, Control_c, 0, 64, 66
2, 383524, Control_c, 0, 64, 66
2, 383543, Control_c, 0, 64, 63
2, 383562, Control_c, 0, 64, 58
2, 383562, Note_on_c, 0, 65, 0
2, 383581, Control_c, 0, 64, 47
2, 383600, Control_c, 0, 64, 41
2, 383620, Control_c, 0, 64, 42
2, 383638, Control_c, 0, 64, 51
2, 383646, Note_on_c, 0, 82, 0
2, 383658, Control_c, 0, 64, 60
2, 383666, Note_on_c, 0, 67, 43
2, 383666, Note_on_c, 0, 75, 64
2, 383677, Control_c, 0, 64, 64
2, 383696, Control_c, 0, 64, 66
2, 383715, Control_c, 0, 64, 68
2, 383735, Control_c, 0, 64, 70
2, 383754, Control_c, 0, 64, 71
2, 383773, Control_c, 0, 64, 72
2, 383812, Control_c, 0, 64, 73
2, 383851, Control_c, 0, 64, 72
2, 383890, Control_c, 0, 64, 72
2, 383908, Control_c, 0, 64, 70
2, 383928, Control_c, 0, 64, 66
2, 383947, Control_c, 0, 64, 57
2, 383966, Control_c, 0, 64, 35
2, 383985, Control_c, 0, 64, 18
2, 384005, Control_c, 0, 64, 29
2, 384024, Control_c, 0, 64, 48
2, 384043, Control_c, 0, 64, 60
2, 384056, Note_on_c, 0, 68, 53
2, 384062, Control_c, 0, 64, 65
2, 384082, Control_c, 0, 64, 69
2, 384101, Control_c, 0, 64, 74
2, 384104, Note_on_c, 0, 67, 0
2, 384119, Control_c, 0, 64, 81
2, 384139, Control_c, 0, 64, 88
2, 384158, Control_c, 0, 64, 89
2, 384162, Note_on_c, 0, 63, 0
2, 384203, Note_on_c, 0, 68, 0
2, 384216, Control_c, 0, 64, 89
2, 384244, Note_on_c, 0, 70, 60
2, 384274, Control_c, 0, 64, 88
2, 384351, Control_c, 0, 64, 88
2, 384371, Control_c, 0, 64, 86
2, 384389, Control_c, 0, 64, 86
2, 384409, Control_c, 0, 64, 85
2, 384428, Control_c, 0, 64, 83
2, 384447, Control_c, 0, 64, 79
2, 384455, Note_on_c, 0, 56, 60
2, 384466, Control_c, 0, 64, 71
2, 384486, Control_c, 0, 64, 63
2, 384487, Note_on_c, 0, 71, 51
2, 384505, Control_c, 0, 64, 32
2, 384524, Control_c, 0, 64, 0
2, 384563, Control_c, 0, 64, 17
2, 384570, Note_on_c, 0, 70, 0
2, 384581, Control_c, 0, 64, 48
2, 384600, Control_c, 0, 64, 61
2, 384620, Control_c, 0, 64, 64
2, 384639, Control_c, 0, 64, 65
2, 384658, Control_c, 0, 64, 66
2, 384677, Control_c, 0, 64, 67
2, 384697, Control_c, 0, 64, 68
2, 384713, Note_on_c, 0, 71, 0
2, 384716, Control_c, 0, 64, 68
2, 384741, Note_on_c, 0, 75, 0
2, 384754, Control_c, 0, 64, 69
2, 384831, Control_c, 0, 64, 68
2, 384851, Control_c, 0, 64, 67
2, 384869, Control_c, 0, 64, 62
2, 384889, Control_c, 0, 64, 51
2, 384907, Note_on_c, 0, 71, 44
2, 384908, Control_c, 0, 64, 19
2, 384927, Control_c, 0, 64, 0
2, 384946, Control_c, 0, 64, 15
2, 384966, Control_c, 0, 64, 44
2, 384985, Control_c, 0, 64, 60
2, 385004, Control_c, 0, 64, 64
2, 385023, Control_c, 0, 64, 66
2, 385043, Control_c, 0, 64, 68
2, 385061, Control_c, 0, 64, 68
2, 385080, Control_c, 0, 64, 69
2, 385100, Control_c, 0, 64, 68
2, 385138, Control_c, 0, 64, 69
2, 385272, Control_c, 0, 64, 68
2, 385292, Control_c, 0, 64, 65
2, 385308, Note_on_c, 0, 73, 46
2, 385311, Control_c, 0, 64, 60
2, 385331, Control_c, 0, 64, 49
2, 385349, Control_c, 0, 64, 42
2, 385369, Control_c, 0, 64, 39
2, 385388, Control_c, 0, 64, 40
2, 385407, Control_c, 0, 64, 48
2, 385426, Control_c, 0, 64, 57
2, 385446, Control_c, 0, 64, 62
2, 385465, Control_c, 0, 64, 64
2, 385484, Control_c, 0, 64, 65
2, 385503, Control_c, 0, 64, 65
2, 385523, Control_c, 0, 64, 66
2, 385637, Control_c, 0, 64, 66
2, 385657, Control_c, 0, 64, 67
2, 385676, Control_c, 0, 64, 67
2, 385695, Control_c, 0, 64, 68
2, 385702, Note_on_c, 0, 75, 49
2, 385714, Control_c, 0, 64, 69
2, 385734, Control_c, 0, 64, 69
2, 385734, Note_on_c, 0, 70, 42
2, 385747, Note_on_c, 0, 71, 0
2, 385756, Control_c, 0, 64, 70
2, 385776, Control_c, 0, 64, 71
2, 385795, Control_c, 0, 64, 73
2, 385814, Control_c, 0, 64, 74
2, 385833, Control_c, 0, 64, 75
2, 385925, Note_on_c, 0, 73, 0
2, 386006, Control_c, 0, 64, 74
2, 386045, Control_c, 0, 64, 73
2, 386064, Control_c, 0, 64, 71
2, 386083, Control_c, 0, 64, 65
2, 386094, Note_on_c, 0, 70, 0
2, 386102, Control_c, 0, 64, 58
2, 386116, Note_on_c, 0, 61, 46
2, 386121, Control_c, 0, 64, 46
2, 386126, Note_on_c, 0, 76, 46
2, 386141, Control_c, 0, 64, 43
2, 386145, Note_on_c, 0, 68, 46
2, 386157, Note_on_c, 0, 75, 0
2, 386174, Control_c, 0, 64, 47
2, 386193, Control_c, 0, 64, 54
2, 386213, Control_c, 0, 64, 59
2, 386231, Control_c, 0, 64, 62
2, 386251, Control_c, 0, 64, 64
2, 386265, Note_on_c, 0, 56, 0
2, 386270, Control_c, 0, 64, 65
2, 386290, Control_c, 0, 64, 66
2, 386308, Control_c, 0, 64, 67
2, 386328, Control_c, 0, 64, 67
2, 386405, Control_c, 0, 64, 66
2, 386420, Note_on_c, 0, 68, 0
2, 386424, Control_c, 0, 64, 63
2, 386443, Control_c, 0, 64, 56
2, 386462, Control_c, 0, 64, 53
2, 386481, Control_c, 0, 64, 54
2, 386501, Control_c, 0, 64, 58
2, 386519, Control_c, 0, 64, 61
2, 386539, Control_c, 0, 64, 64
2, 386558, Control_c, 0, 64, 66
2, 386567, Note_on_c, 0, 67, 39
2, 386568, Note_on_c, 0, 75, 48
2, 386577, Control_c, 0, 64, 69
2, 386596, Control_c, 0, 64, 74
2, 386616, Control_c, 0, 64, 79
2, 386635, Control_c, 0, 64, 85
2, 386654, Control_c, 0, 64, 89
2, 386673, Control_c, 0, 64, 90
2, 386713, Control_c, 0, 64, 90
2, 386733, Control_c, 0, 64, 91
2, 386771, Control_c, 0, 64, 91
2, 386867, Control_c, 0, 64, 90
2, 386887, Control_c, 0, 64, 83
2, 386906, Control_c, 0, 64, 71
2, 386925, Control_c, 0, 64, 58
2, 386944, Control_c, 0, 64, 0
2, 386945, Note_on_c, 0, 73, 48
2, 386958, Note_on_c, 0, 68, 48
2, 387000, Note_on_c, 0, 76, 0
2, 387001, Control_c, 0, 64, 23
2, 387018, Note_on_c, 0, 67, 0
2, 387021, Control_c, 0, 64, 52
2, 387040, Control_c, 0, 64, 62
2, 387059, Control_c, 0, 64, 65
2, 387078, Control_c, 0, 64, 66
2, 387098, Control_c, 0, 64, 69
2, 387116, Control_c, 0, 64, 74
2, 387134, Control_c, 0, 64, 80
2, 387153, Control_c, 0, 64, 86
2, 387161, Note_on_c, 0, 68, 0
2, 387173, Control_c, 0, 64, 88
2, 387230, Control_c, 0, 64, 88
2, 387268, Control_c, 0, 64, 89
2, 387307, Control_c, 0, 64, 89
2, 387326, Control_c, 0, 64, 90
2, 387373, Note_on_c, 0, 70, 55
2, 387441, Control_c, 0, 64, 89
2, 387443, Note_on_c, 0, 73, 0
2, 387445, Note_on_c, 0, 75, 0
2, 387460, Note_on_c, 0, 70, 0
2, 387479, Control_c, 0, 64, 90
2, 387518, Control_c, 0, 64, 90
2, 387710, Control_c, 0, 64, 90
2, 387730, Control_c, 0, 64, 89
2, 387748, Control_c, 0, 64, 86
2, 387768, Control_c, 0, 64, 81
2, 387776, Note_on_c, 0, 63, 55
2, 387787, Control_c, 0, 64, 73
2, 387807, Control_c, 0, 64, 64
2, 387808, Note_on_c, 0, 80, 66
2, 387825, Control_c, 0, 64, 50
2, 387845, Control_c, 0, 64, 34
2, 387864, Control_c, 0, 64, 33
2, 387902, Control_c, 0, 64, 36
2, 387921, Control_c, 0, 64, 41
2, 387941, Control_c, 0, 64, 50
2, 387959, Control_c, 0, 64, 55
2, 387979, Control_c, 0, 64, 57
2, 387998, Control_c, 0, 64, 57
2, 388017, Control_c, 0, 64, 58
2, 388036, Control_c, 0, 64, 59
2, 388056, Control_c, 0, 64, 61
2, 388075, Control_c, 0, 64, 63
2, 388094, Control_c, 0, 64, 64
2, 388113, Control_c, 0, 64, 65
2, 388133, Control_c, 0, 64, 66
2, 388151, Control_c, 0, 64, 67
2, 388171, Control_c, 0, 64, 69
2, 388190, Control_c, 0, 64, 71
2, 388192, Note_on_c, 0, 65, 48
2, 388210, Control_c, 0, 64, 74
2, 388228, Control_c, 0, 64, 78
2, 388248, Control_c, 0, 64, 81
2, 388267, Control_c, 0, 64, 83
2, 388287, Control_c, 0, 64, 83
2, 388289, Note_on_c, 0, 65, 0
2, 388305, Control_c, 0, 64, 84
2, 388325, Control_c, 0, 64, 84
2, 388451, Note_on_c, 0, 61, 0
2, 388516, Control_c, 0, 64, 84
2, 388536, Control_c, 0, 64, 83
2, 388555, Control_c, 0, 64, 81
2, 388574, Control_c, 0, 64, 75
2, 388584, Note_on_c, 0, 59, 64
2, 388593, Control_c, 0, 64, 66
2, 388600, Note_on_c, 0, 67, 46
2, 388613, Control_c, 0, 64, 53
2, 388632, Control_c, 0, 64, 0
2, 388635, Note_on_c, 0, 75, 57
2, 388637, Note_on_c, 0, 63, 0
2, 388652, Note_on_c, 0, 80, 0
2, 388691, Control_c, 0, 64, 31
2, 388709, Control_c, 0, 64, 54
2, 388729, Control_c, 0, 64, 63
2, 388748, Control_c, 0, 64, 65
2, 388767, Control_c, 0, 64, 67
2, 388786, Control_c, 0, 64, 70
2, 388806, Control_c, 0, 64, 73
2, 388825, Control_c, 0, 64, 76
2, 388844, Control_c, 0, 64, 78
2, 388863, Control_c, 0, 64, 79
2, 388883, Control_c, 0, 64, 77
2, 388901, Control_c, 0, 64, 72
2, 388920, Control_c, 0, 64, 67
2, 388940, Control_c, 0, 64, 65
2, 388959, Control_c, 0, 64, 66
2, 388978, Control_c, 0, 64, 68
2, 388997, Control_c, 0, 64, 70
2, 389004, Note_on_c, 0, 68, 57
2, 389017, Control_c, 0, 64, 73
2, 389036, Control_c, 0, 64, 77
2, 389050, Note_on_c, 0, 67, 0
2, 389055, Control_c, 0, 64, 79
2, 389074, Control_c, 0, 64, 81
2, 389094, Control_c, 0, 64, 82
2, 389130, Note_on_c, 0, 68, 0
2, 389171, Note_on_c, 0, 59, 0
2, 389228, Control_c, 0, 67, 9
2, 389247, Control_c, 0, 67, 21
2, 389266, Control_c, 0, 64, 81
2, 389266, Control_c, 0, 67, 41
2, 389286, Control_c, 0, 64, 80
2, 389286, Control_c, 0, 67, 59
2, 389305, Control_c, 0, 64, 80
2, 389305, Control_c, 0, 67, 75
2, 389324, Control_c, 0, 64, 79
2, 389324, Control_c, 0, 67, 90
2, 389343, Control_c, 0, 67, 104
2, 389363, Control_c, 0, 64, 79
2, 389363, Control_c, 0, 67, 116
2, 389381, Control_c, 0, 64, 78
2, 389381, Control_c, 0, 67, 127
2, 389400, Control_c, 0, 64, 77
2, 389400, Control_c, 0, 67, 127
2, 389420, Control_c, 0, 64, 75
2, 389439, Control_c, 0, 64, 70
2, 389458, Control_c, 0, 64, 62
2, 389463, Note_on_c, 0, 70, 46
2, 389468, Note_on_c, 0, 58, 47
2, 389477, Control_c, 0, 64, 49
2, 389497, Control_c, 0, 64, 37
2, 389534, Note_on_c, 0, 75, 0
2, 389535, Control_c, 0, 64, 44
2, 389554, Control_c, 0, 64, 54
2, 389574, Control_c, 0, 64, 60
2, 389592, Control_c, 0, 64, 64
2, 389610, Note_on_c, 0, 71, 49
2, 389612, Control_c, 0, 64, 65
2, 389631, Control_c, 0, 64, 67
2, 389651, Control_c, 0, 64, 68
2, 389669, Control_c, 0, 64, 68
2, 389708, Control_c, 0, 64, 67
2, 389727, Control_c, 0, 64, 64
2, 389746, Control_c, 0, 64, 58
2, 389766, Control_c, 0, 64, 51
2, 389769, Note_on_c, 0, 70, 0
2, 389785, Control_c, 0, 64, 52
2, 389804, Control_c, 0, 64, 57
2, 389823, Control_c, 0, 64, 61
2, 389830, Note_on_c, 0, 73, 48
2, 389831, Note_on_c, 0, 71, 0
2, 389833, Note_on_c, 0, 77, 54
2, 389843, Control_c, 0, 64, 64
2, 389861, Control_c, 0, 64, 67
2, 389880, Control_c, 0, 64, 71
2, 389900, Control_c, 0, 64, 76
2, 389919, Control_c, 0, 64, 84
2, 389938, Control_c, 0, 64, 90
2, 389957, Control_c, 0, 64, 92
2, 390015, Note_on_c, 0, 73, 0
2, 390067, Note_on_c, 0, 77, 0
2, 390092, Control_c, 0, 64, 91
2, 390111, Control_c, 0, 64, 91
2, 390131, Control_c, 0, 64, 90
2, 390149, Control_c, 0, 64, 90
2, 390169, Control_c, 0, 64, 89
2, 390188, Control_c, 0, 64, 87
2, 390207, Control_c, 0, 64, 85
2, 390226, Control_c, 0, 64, 83
2, 390246, Control_c, 0, 64, 78
2, 390257, Note_on_c, 0, 79, 53
2, 390265, Control_c, 0, 64, 69
2, 390284, Control_c, 0, 64, 60
2, 390303, Control_c, 0, 64, 47
2, 390322, Control_c, 0, 64, 44
2, 390341, Control_c, 0, 64, 48
2, 390360, Control_c, 0, 64, 54
2, 390380, Control_c, 0, 64, 61
2, 390399, Control_c, 0, 64, 64
2, 390418, Control_c, 0, 64, 67
2, 390437, Control_c, 0, 64, 70
2, 390457, Control_c, 0, 64, 74
2, 390476, Control_c, 0, 64, 79
2, 390476, Control_c, 0, 67, 127
2, 390495, Control_c, 0, 64, 83
2, 390514, Control_c, 0, 64, 84
2, 390514, Control_c, 0, 67, 126
2, 390534, Control_c, 0, 67, 125
2, 390553, Control_c, 0, 67, 124
2, 390573, Control_c, 0, 67, 123
2, 390592, Control_c, 0, 64, 85
2, 390592, Control_c, 0, 67, 121
2, 390611, Control_c, 0, 67, 120
2, 390630, Control_c, 0, 67, 120
2, 390638, Note_on_c, 0, 71, 36
2, 390715, Note_on_c, 0, 58, 0
2, 390727, Control_c, 0, 67, 119
2, 390746, Control_c, 0, 64, 84
2, 390746, Control_c, 0, 67, 119
2, 390765, Control_c, 0, 67, 118
2, 390788, Note_on_c, 0, 71, 0
2, 390804, Control_c, 0, 64, 84
2, 390804, Control_c, 0, 67, 117
2, 390822, Control_c, 0, 67, 116
2, 390841, Note_on_c, 0, 70, 51
2, 390861, Control_c, 0, 64, 83
2, 390880, Control_c, 0, 67, 116
2, 390888, Note_on_c, 0, 70, 0
2, 390918, Control_c, 0, 64, 83
2, 390937, Note_on_c, 0, 79, 0
2, 390938, Control_c, 0, 64, 82
2, 390956, Control_c, 0, 64, 81
2, 390956, Control_c, 0, 67, 115
2, 390972, Control_c, 0, 64, 81
2, 390991, Control_c, 0, 64, 80
2, 391011, Control_c, 0, 64, 79
2, 391011, Control_c, 0, 67, 115
2, 391030, Control_c, 0, 64, 77
2, 391049, Control_c, 0, 64, 75
2, 391059, Note_on_c, 0, 56, 48
2, 391068, Control_c, 0, 64, 73
2, 391088, Control_c, 0, 64, 69
2, 391106, Control_c, 0, 64, 63
2, 391126, Control_c, 0, 64, 56
2, 391131, Note_on_c, 0, 80, 35
2, 391145, Control_c, 0, 64, 47
2, 391165, Control_c, 0, 64, 42
2, 391165, Control_c, 0, 67, 114
2, 391183, Control_c, 0, 64, 40
2, 391183, Control_c, 0, 67, 114
2, 391200, Note_on_c, 0, 71, 23
2, 391241, Control_c, 0, 64, 43
2, 391260, Control_c, 0, 64, 48
2, 391260, Control_c, 0, 67, 113
2, 391279, Control_c, 0, 64, 53
2, 391279, Control_c, 0, 67, 113
2, 391299, Control_c, 0, 64, 57
2, 391299, Control_c, 0, 67, 111
2, 391317, Control_c, 0, 64, 59
2, 391317, Control_c, 0, 67, 107
2, 391337, Control_c, 0, 64, 61
2, 391337, Control_c, 0, 67, 101
2, 391356, Control_c, 0, 64, 62
2, 391356, Control_c, 0, 67, 93
2, 391376, Control_c, 0, 64, 63
2, 391376, Control_c, 0, 67, 86
2, 391394, Control_c, 0, 64, 64
2, 391394, Control_c, 0, 67, 79
2, 391414, Control_c, 0, 64, 65
2, 391414, Control_c, 0, 67, 72
2, 391433, Control_c, 0, 64, 66
2, 391433, Control_c, 0, 67, 65
2, 391452, Control_c, 0, 64, 68
2, 391452, Control_c, 0, 67, 60
2, 391471, Control_c, 0, 64, 69
2, 391471, Control_c, 0, 67, 54
2, 391491, Control_c, 0, 64, 71
2, 391491, Control_c, 0, 67, 49
2, 391515, Control_c, 0, 64, 72
2, 391515, Control_c, 0, 67, 45
2, 391515, Note_on_c, 0, 82, 57
2, 391535, Control_c, 0, 64, 74
2, 391535, Control_c, 0, 67, 42
2, 391554, Control_c, 0, 64, 75
2, 391554, Control_c, 0, 67, 39
2, 391573, Control_c, 0, 64, 76
2, 391573, Control_c, 0, 67, 37
2, 391577, Note_on_c, 0, 80, 0
2, 391592, Control_c, 0, 64, 77
2, 391592, Control_c, 0, 67, 35
2, 391612, Control_c, 0, 67, 34
2, 391631, Control_c, 0, 64, 76
2, 391631, Control_c, 0, 67, 33
2, 391650, Control_c, 0, 67, 33
2, 391727, Control_c, 0, 64, 76
2, 391823, Control_c, 0, 64, 75
2, 391823, Control_c, 0, 67, 32
2, 391861, Control_c, 0, 64, 74
2, 391880, Control_c, 0, 64, 73
2, 391900, Control_c, 0, 64, 68
2, 391918, Control_c, 0, 64, 63
2, 391926, Note_on_c, 0, 61, 62
2, 391937, Control_c, 0, 64, 59
2, 391961, Note_on_c, 0, 80, 44
2, 391976, Control_c, 0, 64, 60
2, 391976, Control_c, 0, 67, 31
2, 391994, Control_c, 0, 64, 61
2, 391994, Control_c, 0, 67, 31
2, 392014, Control_c, 0, 64, 62
2, 392014, Control_c, 0, 67, 29
2, 392033, Control_c, 0, 64, 64
2, 392033, Control_c, 0, 67, 27
2, 392052, Control_c, 0, 64, 65
2, 392052, Control_c, 0, 67, 24
2, 392071, Control_c, 0, 64, 67
2, 392071, Control_c, 0, 67, 20
2, 392091, Control_c, 0, 64, 69
2, 392091, Control_c, 0, 67, 15
2, 392110, Control_c, 0, 64, 71
2, 392110, Control_c, 0, 67, 8
2, 392129, Control_c, 0, 64, 74
2, 392129, Control_c, 0, 67, 0
2, 392148, Control_c, 0, 64, 75
2, 392159, Note_on_c, 0, 56, 0
2, 392168, Control_c, 0, 64, 76
2, 392186, Control_c, 0, 64, 77
2, 392206, Control_c, 0, 64, 77
2, 392225, Control_c, 0, 64, 78
2, 392245, Control_c, 0, 64, 80
2, 392263, Control_c, 0, 64, 83
2, 392282, Control_c, 0, 64, 86
2, 392302, Control_c, 0, 64, 88
2, 392321, Control_c, 0, 64, 89
2, 392340, Control_c, 0, 64, 90
2, 392351, Note_on_c, 0, 71, 0
2, 392353, Note_on_c, 0, 78, 52
2, 392379, Control_c, 0, 64, 90
2, 392394, Note_on_c, 0, 82, 0
2, 392591, Control_c, 0, 64, 90
2, 392611, Control_c, 0, 64, 89
2, 392630, Control_c, 0, 64, 89
2, 392688, Control_c, 0, 64, 88
2, 392707, Control_c, 0, 64, 87
2, 392727, Control_c, 0, 64, 87
2, 392745, Control_c, 0, 64, 86
2, 392765, Control_c, 0, 64, 86
2, 392784, Control_c, 0, 64, 85
2, 392802, Control_c, 0, 64, 84
2, 392822, Control_c, 0, 64, 82
2, 392841, Control_c, 0, 64, 80
2, 392853, Note_on_c, 0, 68, 73
2, 392861, Control_c, 0, 64, 75
2, 392879, Control_c, 0, 64, 68
2, 392891, Note_on_c, 0, 77, 51
2, 392892, Note_on_c, 0, 80, 0
2, 392893, Control_c, 0, 64, 60
2, 392912, Control_c, 0, 64, 50
2, 392932, Control_c, 0, 64, 47
2, 392967, Note_on_c, 0, 78, 0
2, 392970, Control_c, 0, 64, 47
2, 392989, Control_c, 0, 64, 50
2, 393009, Control_c, 0, 64, 55
2, 393027, Control_c, 0, 64, 59
2, 393047, Control_c, 0, 64, 61
2, 393066, Control_c, 0, 64, 62
2, 393086, Control_c, 0, 64, 62
2, 393104, Control_c, 0, 64, 63
2, 393124, Control_c, 0, 64, 64
2, 393143, Control_c, 0, 64, 64
2, 393161, Control_c, 0, 64, 65
2, 393181, Control_c, 0, 64, 65
2, 393200, Control_c, 0, 64, 66
2, 393220, Control_c, 0, 64, 67
2, 393238, Control_c, 0, 64, 68
2, 393258, Control_c, 0, 64, 70
2, 393277, Control_c, 0, 64, 70
2, 393285, Note_on_c, 0, 61, 0
2, 393296, Control_c, 0, 64, 71
2, 393315, Control_c, 0, 64, 71
2, 393316, Note_on_c, 0, 78, 49
2, 393322, Note_on_c, 0, 63, 40
2, 393354, Control_c, 0, 64, 72
2, 393373, Control_c, 0, 64, 72
2, 393412, Control_c, 0, 64, 73
2, 393567, Control_c, 0, 64, 72
2, 393663, Control_c, 0, 64, 72
2, 393682, Control_c, 0, 64, 70
2, 393696, Note_on_c, 0, 61, 51
2, 393701, Control_c, 0, 64, 66
2, 393710, Note_on_c, 0, 80, 59
2, 393720, Control_c, 0, 64, 56
2, 393740, Control_c, 0, 64, 44
2, 393751, Note_on_c, 0, 63, 0
2, 393759, Control_c, 0, 64, 46
2, 393778, Control_c, 0, 64, 55
2, 393797, Control_c, 0, 64, 63
2, 393817, Control_c, 0, 64, 69
2, 393836, Control_c, 0, 64, 81
2, 393854, Control_c, 0, 64, 127
2, 394085, Control_c, 0, 64, 85
2, 394104, Control_c, 0, 64, 65
2, 394122, Control_c, 0, 64, 24
2, 394122, Note_on_c, 0, 59, 56
2, 394141, Note_on_c, 0, 61, 0
2, 394142, Control_c, 0, 64, 31
2, 394161, Control_c, 0, 64, 53
2, 394181, Control_c, 0, 64, 64
2, 394199, Control_c, 0, 64, 70
2, 394219, Control_c, 0, 64, 83
2, 394220, Note_on_c, 0, 77, 0
2, 394238, Control_c, 0, 64, 127
2, 394527, Control_c, 0, 64, 121
2, 394545, Control_c, 0, 64, 74
2, 394548, Note_on_c, 0, 58, 50
2, 394559, Note_on_c, 0, 73, 73
2, 394562, Note_on_c, 0, 59, 0
2, 394565, Control_c, 0, 64, 57
2, 394584, Control_c, 0, 64, 36
2, 394602, Control_c, 0, 64, 49
2, 394622, Control_c, 0, 64, 61
2, 394641, Control_c, 0, 64, 65
2, 394661, Control_c, 0, 64, 71
2, 394679, Control_c, 0, 64, 84
2, 394699, Control_c, 0, 64, 103
2, 394718, Control_c, 0, 64, 127
2, 394730, Note_on_c, 0, 78, 0
2, 394814, Control_c, 0, 64, 112
2, 394833, Control_c, 0, 64, 86
2, 394853, Control_c, 0, 64, 69
2, 394871, Control_c, 0, 64, 58
2, 394890, Note_on_c, 0, 80, 0
2, 394891, Control_c, 0, 64, 57
2, 394910, Control_c, 0, 64, 63
2, 394930, Control_c, 0, 64, 65
2, 394941, Note_on_c, 0, 58, 0
2, 394948, Control_c, 0, 64, 70
2, 394968, Control_c, 0, 64, 77
2, 394977, Note_on_c, 0, 59, 54
2, 394984, Note_on_c, 0, 78, 57
2, 394987, Control_c, 0, 64, 88
2, 395007, Control_c, 0, 64, 96
2, 395025, Control_c, 0, 64, 98
2, 395082, Control_c, 0, 64, 99
2, 395217, Control_c, 0, 64, 97
2, 395236, Control_c, 0, 64, 90
2, 395247, Note_on_c, 0, 68, 0
2, 395256, Control_c, 0, 64, 76
2, 395275, Control_c, 0, 64, 64
2, 395294, Control_c, 0, 64, 44
2, 395313, Control_c, 0, 64, 36
2, 395333, Control_c, 0, 64, 40
2, 395353, Control_c, 0, 64, 50
2, 395371, Note_on_c, 0, 61, 48
2, 395373, Control_c, 0, 64, 60
2, 395392, Control_c, 0, 64, 64
2, 395411, Control_c, 0, 64, 67
2, 395412, Note_on_c, 0, 77, 60
2, 395421, Note_on_c, 0, 59, 0
2, 395430, Control_c, 0, 64, 70
2, 395450, Control_c, 0, 64, 75
2, 395469, Control_c, 0, 64, 81
2, 395488, Control_c, 0, 64, 87
2, 395505, Note_on_c, 0, 78, 0
2, 395507, Control_c, 0, 64, 91
2, 395527, Control_c, 0, 64, 92
2, 395565, Control_c, 0, 64, 93
2, 395584, Control_c, 0, 64, 93
2, 395603, Control_c, 0, 64, 95
2, 395622, Control_c, 0, 64, 96
2, 395641, Control_c, 0, 64, 97
2, 395661, Control_c, 0, 64, 97
2, 395680, Control_c, 0, 64, 99
2, 395699, Control_c, 0, 64, 101
2, 395718, Control_c, 0, 64, 102
2, 395756, Control_c, 0, 64, 103
2, 395787, Note_on_c, 0, 61, 0
2, 395787, Note_on_c, 0, 78, 59
2, 395790, Control_c, 0, 64, 103
2, 395810, Control_c, 0, 64, 104
2, 395829, Control_c, 0, 64, 104
2, 395867, Control_c, 0, 64, 105
2, 395887, Control_c, 0, 64, 105
2, 395963, Note_on_c, 0, 80, 64
2, 396012, Note_on_c, 0, 77, 0
2, 396116, Control_c, 0, 64, 104
2, 396136, Control_c, 0, 64, 102
2, 396155, Control_c, 0, 64, 95
2, 396175, Control_c, 0, 64, 82
2, 396181, Note_on_c, 0, 82, 65
2, 396182, Note_on_c, 0, 54, 58
2, 396193, Control_c, 0, 64, 68
2, 396213, Control_c, 0, 64, 61
2, 396218, Note_on_c, 0, 80, 0
2, 396232, Control_c, 0, 64, 58
2, 396252, Control_c, 0, 64, 59
2, 396270, Control_c, 0, 64, 61
2, 396280, Note_on_c, 0, 78, 0
2, 396290, Control_c, 0, 64, 62
2, 396309, Control_c, 0, 64, 64
2, 396330, Control_c, 0, 64, 66
2, 396349, Control_c, 0, 64, 68
2, 396369, Control_c, 0, 64, 71
2, 396387, Control_c, 0, 64, 75
2, 396400, Note_on_c, 0, 80, 53
2, 396407, Control_c, 0, 64, 78
2, 396426, Control_c, 0, 64, 79
2, 396431, Note_on_c, 0, 82, 0
2, 396464, Control_c, 0, 64, 80
2, 396483, Control_c, 0, 64, 81
2, 396503, Control_c, 0, 64, 83
2, 396521, Control_c, 0, 64, 83
2, 396580, Control_c, 0, 64, 84
2, 396589, Note_on_c, 0, 82, 69
2, 396598, Control_c, 0, 64, 87
2, 396618, Control_c, 0, 64, 89
2, 396637, Control_c, 0, 64, 89
2, 396656, Note_on_c, 0, 80, 0
2, 396695, Control_c, 0, 64, 90
2, 396809, Control_c, 0, 64, 89
2, 396828, Control_c, 0, 64, 89
2, 396866, Control_c, 0, 64, 88
2, 396886, Control_c, 0, 64, 88
2, 396905, Control_c, 0, 64, 87
2, 396925, Control_c, 0, 64, 85
2, 396943, Control_c, 0, 64, 82
2, 396962, Control_c, 0, 64, 78
2, 396979, Note_on_c, 0, 59, 67
2, 396982, Control_c, 0, 64, 70
2, 396997, Note_on_c, 0, 75, 77
2, 397001, Control_c, 0, 64, 61
2, 397020, Control_c, 0, 64, 42
2, 397039, Control_c, 0, 64, 33
2, 397077, Control_c, 0, 64, 37
2, 397096, Note_on_c, 0, 82, 0
2, 397097, Control_c, 0, 64, 50
2, 397116, Control_c, 0, 64, 61
2, 397136, Control_c, 0, 64, 65
2, 397154, Control_c, 0, 64, 68
2, 397174, Control_c, 0, 64, 72
2, 397193, Control_c, 0, 64, 78
2, 397212, Control_c, 0, 64, 83
2, 397231, Control_c, 0, 64, 86
2, 397251, Control_c, 0, 64, 89
2, 397270, Control_c, 0, 64, 91
2, 397290, Control_c, 0, 64, 92
2, 397416, Note_on_c, 0, 80, 60
2, 397474, Note_on_c, 0, 54, 0
2, 397558, Control_c, 0, 64, 91
2, 397578, Control_c, 0, 64, 91
2, 397588, Note_on_c, 0, 78, 64
2, 397629, Note_on_c, 0, 80, 0
2, 397635, Control_c, 0, 64, 90
2, 397640, Note_on_c, 0, 73, 0
2, 397655, Control_c, 0, 64, 90
2, 397692, Note_on_c, 0, 78, 0
2, 397694, Control_c, 0, 64, 89
2, 397713, Control_c, 0, 64, 89
2, 397733, Control_c, 0, 64, 88
2, 397751, Control_c, 0, 64, 87
2, 397771, Control_c, 0, 64, 84
2, 397790, Control_c, 0, 64, 79
2, 397801, Note_on_c, 0, 75, 0
2, 397801, Note_on_c, 0, 75, 12
2, 397810, Control_c, 0, 64, 69
2, 397814, Note_on_c, 0, 73, 72
2, 397828, Control_c, 0, 64, 59
2, 397830, Note_on_c, 0, 77, 60
2, 397848, Control_c, 0, 64, 27
2, 397867, Control_c, 0, 64, 13
2, 397902, Note_on_c, 0, 75, 0
2, 397905, Control_c, 0, 64, 29
2, 397925, Control_c, 0, 64, 49
2, 397944, Control_c, 0, 64, 61
2, 397962, Control_c, 0, 64, 65
2, 397982, Control_c, 0, 64, 68
2, 398001, Control_c, 0, 64, 71
2, 398021, Control_c, 0, 64, 74
2, 398039, Control_c, 0, 64, 77
2, 398059, Control_c, 0, 64, 79
2, 398078, Control_c, 0, 64, 80
2, 398136, Control_c, 0, 64, 80
2, 398155, Control_c, 0, 64, 77
2, 398174, Control_c, 0, 64, 69
2, 398190, Note_on_c, 0, 58, 50
2, 398192, Note_on_c, 0, 78, 61
2, 398193, Control_c, 0, 64, 60
2, 398213, Control_c, 0, 64, 43
2, 398231, Control_c, 0, 64, 42
2, 398251, Control_c, 0, 64, 52
2, 398252, Note_on_c, 0, 59, 0
2, 398270, Control_c, 0, 64, 60
2, 398290, Control_c, 0, 64, 64
2, 398308, Control_c, 0, 64, 68
2, 398328, Control_c, 0, 64, 73
2, 398328, Note_on_c, 0, 77, 0
2, 398347, Control_c, 0, 64, 81
2, 398367, Control_c, 0, 64, 89
2, 398376, Note_on_c, 0, 73, 0
2, 398385, Control_c, 0, 64, 92
2, 398424, Control_c, 0, 64, 91
2, 398481, Control_c, 0, 64, 91
2, 398558, Control_c, 0, 64, 90
2, 398577, Control_c, 0, 64, 86
2, 398596, Control_c, 0, 64, 76
2, 398616, Control_c, 0, 64, 65
2, 398633, Note_on_c, 0, 71, 75
2, 398635, Control_c, 0, 64, 47
2, 398636, Note_on_c, 0, 56, 51
2, 398639, Note_on_c, 0, 58, 0
2, 398652, Control_c, 0, 64, 0
2, 398728, Control_c, 0, 64, 41
2, 398747, Control_c, 0, 64, 59
2, 398767, Control_c, 0, 64, 64
2, 398786, Control_c, 0, 64, 66
2, 398805, Control_c, 0, 64, 69
2, 398824, Control_c, 0, 64, 72
2, 398843, Control_c, 0, 64, 76
2, 398862, Control_c, 0, 64, 82
2, 398881, Control_c, 0, 64, 86
2, 398898, Note_on_c, 0, 78, 0
2, 398901, Control_c, 0, 64, 89
2, 398939, Control_c, 0, 64, 89
2, 398958, Control_c, 0, 64, 90
2, 398978, Control_c, 0, 64, 93
2, 398996, Control_c, 0, 64, 96
2, 399016, Control_c, 0, 64, 98
2, 399031, Note_on_c, 0, 77, 61
2, 399035, Control_c, 0, 64, 100
2, 399061, Note_on_c, 0, 56, 0
2, 399132, Control_c, 0, 64, 100
2, 399150, Control_c, 0, 64, 101
2, 399170, Control_c, 0, 64, 102
2, 399171, Note_on_c, 0, 71, 0
2, 399191, Control_c, 0, 64, 104
2, 399211, Control_c, 0, 64, 107
2, 399230, Control_c, 0, 64, 109
2, 399250, Control_c, 0, 64, 110
2, 399365, Control_c, 0, 64, 106
2, 399384, Control_c, 0, 64, 95
2, 399402, Control_c, 0, 64, 77
2, 399422, Control_c, 0, 64, 62
2, 399438, Note_on_c, 0, 70, 77
2, 399441, Control_c, 0, 64, 0
2, 399445, Note_on_c, 0, 54, 51
2, 399473, Note_on_c, 0, 78, 55
2, 399492, Note_on_c, 0, 77, 0
2, 399499, Control_c, 0, 64, 40
2, 399518, Control_c, 0, 64, 58
2, 399537, Control_c, 0, 64, 64
2, 399556, Control_c, 0, 64, 68
2, 399576, Control_c, 0, 64, 73
2, 399595, Control_c, 0, 64, 82
2, 399613, Control_c, 0, 64, 93
2, 399631, Control_c, 0, 64, 100
2, 399746, Control_c, 0, 64, 97
2, 399766, Control_c, 0, 64, 84
2, 399785, Control_c, 0, 64, 70
2, 399805, Control_c, 0, 64, 61
2, 399823, Control_c, 0, 64, 59
2, 399833, Note_on_c, 0, 52, 51
2, 399842, Control_c, 0, 64, 63
2, 399842, Note_on_c, 0, 73, 72
2, 399862, Control_c, 0, 64, 65
2, 399881, Control_c, 0, 64, 69
2, 399891, Note_on_c, 0, 54, 0
2, 399900, Control_c, 0, 64, 78
2, 399919, Control_c, 0, 64, 91
2, 399938, Note_on_c, 0, 52, 0
2, 399939, Control_c, 0, 64, 101
2, 399957, Control_c, 0, 64, 102
2, 399996, Control_c, 0, 64, 103
2, 400031, Note_on_c, 0, 78, 0
2, 400045, Note_on_c, 0, 70, 0
2, 400209, Control_c, 0, 64, 98
2, 400227, Control_c, 0, 64, 84
2, 400227, Note_on_c, 0, 51, 49
2, 400247, Control_c, 0, 64, 69
2, 400257, Note_on_c, 0, 71, 80
2, 400266, Control_c, 0, 64, 58
2, 400286, Control_c, 0, 64, 48
2, 400287, Note_on_c, 0, 78, 64
2, 400304, Control_c, 0, 64, 54
2, 400323, Control_c, 0, 64, 61
2, 400343, Control_c, 0, 64, 65
2, 400361, Control_c, 0, 64, 69
2, 400381, Control_c, 0, 64, 76
2, 400400, Control_c, 0, 64, 85
2, 400412, Note_on_c, 0, 73, 0
2, 400420, Control_c, 0, 64, 93
2, 400438, Control_c, 0, 64, 95
2, 400454, Note_on_c, 0, 49, 53
2, 400457, Note_on_c, 0, 51, 0
2, 400612, Control_c, 0, 64, 95
2, 400622, Note_on_c, 0, 51, 57
2, 400707, Control_c, 0, 64, 95
2, 400734, Note_on_c, 0, 49, 0
2, 400746, Control_c, 0, 64, 94
2, 400776, Note_on_c, 0, 51, 0
2, 400794, Note_on_c, 0, 52, 58
2, 400800, Note_on_c, 0, 71, 0
2, 400861, Control_c, 0, 64, 94
2, 400900, Control_c, 0, 64, 92
2, 400918, Control_c, 0, 64, 91
2, 400938, Control_c, 0, 64, 91
2, 400957, Control_c, 0, 64, 90
2, 400976, Control_c, 0, 64, 90
2, 400983, Note_on_c, 0, 52, 0
2, 400995, Control_c, 0, 64, 87
2, 401015, Control_c, 0, 64, 76
2, 401023, Note_on_c, 0, 46, 51
2, 401034, Control_c, 0, 64, 64
2, 401052, Note_on_c, 0, 73, 82
2, 401053, Control_c, 0, 64, 45
2, 401072, Control_c, 0, 64, 34
2, 401092, Control_c, 0, 64, 42
2, 401097, Note_on_c, 0, 78, 0
2, 401111, Control_c, 0, 64, 53
2, 401131, Control_c, 0, 64, 61
2, 401150, Control_c, 0, 64, 65
2, 401170, Control_c, 0, 64, 67
2, 401188, Control_c, 0, 64, 68
2, 401208, Control_c, 0, 64, 69
2, 401361, Control_c, 0, 64, 68
2, 401381, Control_c, 0, 64, 67
2, 401399, Control_c, 0, 64, 64
2, 401419, Control_c, 0, 64, 58
2, 401438, Control_c, 0, 64, 53
2, 401451, Note_on_c, 0, 42, 43
2, 401476, Control_c, 0, 64, 55
2, 401479, Note_on_c, 0, 80, 60
2, 401487, Note_on_c, 0, 46, 0
2, 401496, Control_c, 0, 64, 58
2, 401515, Control_c, 0, 64, 60
2, 401532, Control_c, 0, 64, 62
2, 401551, Control_c, 0, 64, 63
2, 401571, Control_c, 0, 64, 63
2, 401590, Control_c, 0, 64, 64
2, 401666, Control_c, 0, 64, 63
2, 401686, Control_c, 0, 64, 61
2, 401705, Control_c, 0, 64, 55
2, 401724, Control_c, 0, 64, 42
2, 401743, Control_c, 0, 64, 25
2, 401762, Control_c, 0, 64, 19
2, 401782, Control_c, 0, 64, 25
2, 401801, Control_c, 0, 64, 46
2, 401820, Control_c, 0, 64, 61
2, 401839, Control_c, 0, 64, 65
2, 401847, Note_on_c, 0, 44, 50
2, 401853, Note_on_c, 0, 78, 57
2, 401859, Control_c, 0, 64, 67
2, 401877, Control_c, 0, 64, 68
2, 401903, Note_on_c, 0, 42, 0
2, 401936, Control_c, 0, 64, 68
2, 401974, Control_c, 0, 64, 69
2, 401993, Control_c, 0, 64, 69
2, 402012, Control_c, 0, 64, 70
2, 402072, Control_c, 0, 64, 69
2, 402111, Control_c, 0, 64, 68
2, 402131, Control_c, 0, 64, 67
2, 402149, Control_c, 0, 64, 65
2, 402169, Control_c, 0, 64, 63
2, 402188, Control_c, 0, 64, 59
2, 402207, Control_c, 0, 64, 48
2, 402226, Control_c, 0, 64, 37
2, 402227, Note_on_c, 0, 46, 48
2, 402234, Note_on_c, 0, 76, 57
2, 402265, Control_c, 0, 64, 49
2, 402266, Note_on_c, 0, 44, 0
2, 402283, Control_c, 0, 64, 62
2, 402297, Note_on_c, 0, 80, 0
2, 402303, Control_c, 0, 64, 67
2, 402322, Control_c, 0, 64, 74
2, 402341, Control_c, 0, 64, 90
2, 402346, Note_on_c, 0, 73, 0
2, 402360, Control_c, 0, 64, 127
2, 402391, Note_on_c, 0, 78, 0
2, 402403, Note_on_c, 0, 76, 0
2, 402610, Control_c, 0, 64, 113
2, 402628, Control_c, 0, 64, 93
2, 402648, Control_c, 0, 64, 75
2, 402667, Control_c, 0, 64, 59
2, 402667, Note_on_c, 0, 75, 53
2, 402670, Note_on_c, 0, 47, 43
2, 402671, Note_on_c, 0, 66, 56
2, 402687, Control_c, 0, 64, 22
2, 402688, Note_on_c, 0, 46, 0
2, 402705, Control_c, 0, 64, 9
2, 402724, Control_c, 0, 64, 28
2, 402744, Control_c, 0, 64, 48
2, 402762, Control_c, 0, 64, 61
2, 402782, Control_c, 0, 64, 65
2, 402801, Control_c, 0, 64, 67
2, 402821, Control_c, 0, 64, 70
2, 402839, Control_c, 0, 64, 73
2, 402859, Control_c, 0, 64, 74
2, 402878, Control_c, 0, 64, 75
2, 402897, Control_c, 0, 64, 74
2, 402916, Control_c, 0, 64, 73
2, 402936, Control_c, 0, 64, 67
2, 402955, Control_c, 0, 64, 59
2, 402974, Control_c, 0, 64, 47
2, 402993, Control_c, 0, 64, 45
2, 403013, Control_c, 0, 64, 46
2, 403032, Control_c, 0, 64, 52
2, 403047, Note_on_c, 0, 47, 0
2, 403052, Control_c, 0, 64, 60
2, 403071, Control_c, 0, 64, 66
2, 403088, Note_on_c, 0, 49, 49
2, 403091, Control_c, 0, 64, 70
2, 403105, Note_on_c, 0, 76, 52
2, 403109, Control_c, 0, 64, 77
2, 403129, Control_c, 0, 64, 84
2, 403148, Control_c, 0, 64, 87
2, 403186, Control_c, 0, 64, 87
2, 403282, Control_c, 0, 64, 86
2, 403359, Control_c, 0, 64, 86
2, 403378, Control_c, 0, 64, 83
2, 403397, Control_c, 0, 64, 78
2, 403417, Control_c, 0, 64, 70
2, 403436, Control_c, 0, 64, 61
2, 403454, Control_c, 0, 64, 0
2, 403475, Note_on_c, 0, 51, 44
2, 403504, Note_on_c, 0, 78, 62
2, 403518, Note_on_c, 0, 49, 0
2, 403576, Note_on_c, 0, 76, 0
2, 403602, Note_on_c, 0, 75, 0
2, 403761, Control_c, 0, 64, 22
2, 403781, Control_c, 0, 64, 55
2, 403799, Control_c, 0, 64, 63
2, 403819, Control_c, 0, 64, 64
2, 403838, Control_c, 0, 64, 65
2, 403857, Control_c, 0, 64, 67
2, 403876, Control_c, 0, 64, 70
2, 403880, Note_on_c, 0, 52, 43
2, 403896, Control_c, 0, 64, 78
2, 403915, Control_c, 0, 64, 88
2, 403934, Control_c, 0, 64, 102
2, 403950, Note_on_c, 0, 51, 0
2, 403953, Control_c, 0, 64, 127
2, 404016, Note_on_c, 0, 52, 0
2, 404044, Note_on_c, 0, 54, 48
2, 404134, Note_on_c, 0, 54, 0
2, 404282, Control_c, 0, 64, 121
2, 404289, Note_on_c, 0, 71, 72
2, 404298, Note_on_c, 0, 56, 53
2, 404302, Control_c, 0, 64, 91
2, 404321, Control_c, 0, 64, 72
2, 404340, Control_c, 0, 64, 62
2, 404359, Control_c, 0, 64, 49
2, 404361, Note_on_c, 0, 66, 0
2, 404379, Control_c, 0, 64, 45
2, 404414, Control_c, 0, 64, 46
2, 404432, Control_c, 0, 64, 47
2, 404452, Control_c, 0, 64, 48
2, 404471, Control_c, 0, 64, 49
2, 404487, Note_on_c, 0, 78, 0
2, 404490, Control_c, 0, 64, 50
2, 404509, Control_c, 0, 64, 51
2, 404529, Control_c, 0, 64, 51
2, 404586, Control_c, 0, 64, 52
2, 404606, Control_c, 0, 64, 53
2, 404624, Control_c, 0, 64, 55
2, 404643, Control_c, 0, 64, 58
2, 404663, Control_c, 0, 64, 61
2, 404681, Control_c, 0, 64, 63
2, 404700, Note_on_c, 0, 58, 39
2, 404701, Control_c, 0, 64, 65
2, 404720, Control_c, 0, 64, 69
2, 404740, Control_c, 0, 64, 79
2, 404758, Control_c, 0, 64, 95
2, 404763, Note_on_c, 0, 56, 0
2, 404778, Control_c, 0, 64, 127
2, 404797, Control_c, 0, 67, 24
2, 404817, Control_c, 0, 67, 47
2, 404835, Control_c, 0, 67, 70
2, 404855, Control_c, 0, 67, 92
2, 404874, Control_c, 0, 67, 105
2, 404875, Note_on_c, 0, 58, 0
2, 404893, Control_c, 0, 67, 115
2, 404912, Control_c, 0, 67, 123
2, 404932, Control_c, 0, 67, 127
2, 404932, Note_on_c, 0, 59, 31
2, 404985, Note_on_c, 0, 59, 0
2, 405066, Control_c, 0, 67, 127
2, 405104, Control_c, 0, 64, 115
2, 405104, Control_c, 0, 67, 126
2, 405105, Note_on_c, 0, 49, 51
2, 405123, Control_c, 0, 64, 92
2, 405123, Control_c, 0, 67, 125
2, 405134, Note_on_c, 0, 76, 52
2, 405143, Control_c, 0, 64, 75
2, 405143, Control_c, 0, 67, 125
2, 405161, Control_c, 0, 64, 66
2, 405181, Control_c, 0, 64, 58
2, 405200, Control_c, 0, 64, 51
2, 405220, Control_c, 0, 64, 48
2, 405220, Control_c, 0, 67, 125
2, 405238, Control_c, 0, 64, 47
2, 405238, Control_c, 0, 67, 126
2, 405258, Control_c, 0, 64, 46
2, 405258, Control_c, 0, 67, 127
2, 405277, Control_c, 0, 64, 46
2, 405277, Control_c, 0, 67, 127
2, 405335, Control_c, 0, 64, 46
2, 405354, Control_c, 0, 64, 47
2, 405373, Control_c, 0, 64, 49
2, 405392, Control_c, 0, 64, 51
2, 405412, Control_c, 0, 64, 54
2, 405431, Control_c, 0, 64, 58
2, 405450, Control_c, 0, 64, 61
2, 405469, Control_c, 0, 64, 63
2, 405489, Control_c, 0, 64, 66
2, 405504, Note_on_c, 0, 51, 49
2, 405507, Control_c, 0, 64, 71
2, 405527, Control_c, 0, 64, 80
2, 405546, Control_c, 0, 64, 100
2, 405546, Control_c, 0, 67, 127
2, 405564, Note_on_c, 0, 49, 0
2, 405566, Control_c, 0, 64, 127
2, 405603, Control_c, 0, 67, 126
2, 405623, Control_c, 0, 67, 126
2, 405649, Note_on_c, 0, 51, 0
2, 405668, Note_on_c, 0, 52, 57
2, 405710, Note_on_c, 0, 52, 0
2, 405718, Control_c, 0, 67, 125
2, 405853, Control_c, 0, 64, 95
2, 405872, Control_c, 0, 64, 75
2, 405885, Note_on_c, 0, 42, 56
2, 405892, Control_c, 0, 64, 63
2, 405911, Control_c, 0, 64, 47
2, 405931, Control_c, 0, 64, 45
2, 405950, Control_c, 0, 64, 55
2, 405970, Control_c, 0, 64, 62
2, 405988, Control_c, 0, 64, 66
2, 406008, Control_c, 0, 64, 70
2, 406027, Control_c, 0, 64, 77
2, 406047, Control_c, 0, 64, 85
2, 406065, Control_c, 0, 64, 91
2, 406065, Control_c, 0, 67, 125
2, 406084, Control_c, 0, 64, 91
2, 406104, Control_c, 0, 64, 92
2, 406122, Control_c, 0, 67, 124
2, 406161, Control_c, 0, 64, 91
2, 406181, Control_c, 0, 64, 89
2, 406199, Control_c, 0, 64, 84
2, 406219, Control_c, 0, 64, 74
2, 406238, Control_c, 0, 64, 64
2, 406257, Control_c, 0, 64, 52
2, 406276, Control_c, 0, 64, 47
2, 406284, Note_on_c, 0, 54, 51
2, 406296, Control_c, 0, 64, 53
2, 406313, Note_on_c, 0, 75, 49
2, 406315, Control_c, 0, 64, 60
2, 406315, Note_on_c, 0, 71, 0
2, 406333, Control_c, 0, 64, 64
2, 406352, Control_c, 0, 64, 69
2, 406372, Control_c, 0, 64, 79
2, 406391, Control_c, 0, 64, 94
2, 406410, Control_c, 0, 64, 108
2, 406429, Control_c, 0, 64, 112
2, 406467, Control_c, 0, 64, 111
2, 406467, Control_c, 0, 67, 124
2, 406487, Control_c, 0, 64, 110
2, 406506, Control_c, 0, 64, 108
2, 406506, Control_c, 0, 67, 123
2, 406508, Note_on_c, 0, 42, 0
2, 406525, Control_c, 0, 64, 107
2, 406544, Control_c, 0, 64, 105
2, 406563, Control_c, 0, 64, 103
2, 406583, Control_c, 0, 64, 100
2, 406601, Control_c, 0, 64, 93
2, 406621, Control_c, 0, 64, 82
2, 406623, Note_on_c, 0, 75, 0
2, 406640, Control_c, 0, 64, 69
2, 406644, Note_on_c, 0, 76, 0
2, 406660, Control_c, 0, 64, 62
2, 406660, Control_c, 0, 67, 123
2, 406678, Control_c, 0, 64, 57
2, 406678, Control_c, 0, 67, 122
2, 406698, Control_c, 0, 64, 57
2, 406698, Control_c, 0, 67, 121
2, 406717, Control_c, 0, 64, 59
2, 406717, Control_c, 0, 67, 121
2, 406723, Note_on_c, 0, 70, 55
2, 406728, Note_on_c, 0, 73, 46
2, 406737, Control_c, 0, 64, 61
2, 406737, Control_c, 0, 67, 120
2, 406755, Control_c, 0, 64, 63
2, 406775, Control_c, 0, 64, 64
2, 406775, Control_c, 0, 67, 119
2, 406813, Control_c, 0, 67, 119
2, 406832, Control_c, 0, 64, 63
2, 406832, Control_c, 0, 67, 118
2, 406852, Control_c, 0, 64, 61
2, 406852, Control_c, 0, 67, 118
2, 406872, Control_c, 0, 64, 58
2, 406872, Control_c, 0, 67, 116
2, 406892, Control_c, 0, 64, 56
2, 406892, Control_c, 0, 67, 115
2, 406911, Control_c, 0, 67, 114
2, 406931, Control_c, 0, 64, 58
2, 406931, Control_c, 0, 67, 113
2, 406949, Control_c, 0, 64, 61
2, 406949, Control_c, 0, 67, 111
2, 406969, Control_c, 0, 64, 64
2, 406969, Control_c, 0, 67, 109
2, 406988, Control_c, 0, 64, 67
2, 406988, Control_c, 0, 67, 109
2, 407007, Control_c, 0, 64, 70
2, 407007, Control_c, 0, 67, 108
2, 407013, Note_on_c, 0, 54, 0
2, 407026, Control_c, 0, 64, 74
2, 407026, Control_c, 0, 67, 106
2, 407045, Control_c, 0, 64, 80
2, 407045, Control_c, 0, 67, 104
2, 407065, Control_c, 0, 64, 86
2, 407065, Control_c, 0, 67, 103
2, 407083, Control_c, 0, 64, 91
2, 407083, Control_c, 0, 67, 102
2, 407103, Control_c, 0, 64, 92
2, 407103, Control_c, 0, 67, 100
2, 407122, Control_c, 0, 67, 98
2, 407127, Note_on_c, 0, 55, 41
2, 407141, Control_c, 0, 67, 96
2, 407160, Control_c, 0, 67, 94
2, 407280, Note_on_c, 0, 70, 0
2, 407312, Control_c, 0, 64, 91
2, 407332, Control_c, 0, 64, 91
2, 407370, Control_c, 0, 64, 90
2, 407389, Control_c, 0, 64, 90
2, 407409, Control_c, 0, 67, 94
2, 407427, Control_c, 0, 64, 89
2, 407447, Control_c, 0, 64, 87
2, 407447, Control_c, 0, 67, 95
2, 407465, Note_on_c, 0, 73, 0
2, 407466, Control_c, 0, 64, 82
2, 407485, Control_c, 0, 64, 76
2, 407493, Note_on_c, 0, 55, 0
2, 407504, Control_c, 0, 64, 70
2, 407504, Control_c, 0, 67, 94
2, 407522, Note_on_c, 0, 56, 42
2, 407523, Control_c, 0, 64, 65
2, 407524, Note_on_c, 0, 71, 57
2, 407527, Note_on_c, 0, 68, 39
2, 407543, Control_c, 0, 64, 61
2, 407561, Control_c, 0, 64, 56
2, 407581, Control_c, 0, 64, 52
2, 407600, Control_c, 0, 64, 50
2, 407620, Control_c, 0, 64, 49
2, 407620, Control_c, 0, 67, 95
2, 407638, Control_c, 0, 64, 48
2, 407658, Control_c, 0, 64, 48
2, 407715, Control_c, 0, 67, 94
2, 407735, Control_c, 0, 67, 94
2, 407773, Control_c, 0, 64, 48
2, 407773, Control_c, 0, 67, 93
2, 407792, Control_c, 0, 64, 50
2, 407812, Control_c, 0, 64, 53
2, 407832, Control_c, 0, 64, 56
2, 407852, Control_c, 0, 64, 58
2, 407871, Control_c, 0, 64, 60
2, 407891, Control_c, 0, 64, 62
2, 407891, Control_c, 0, 67, 94
2, 407909, Control_c, 0, 64, 63
2, 407929, Control_c, 0, 64, 64
2, 407948, Control_c, 0, 64, 66
2, 407955, Note_on_c, 0, 55, 36
2, 407967, Control_c, 0, 64, 68
2, 407981, Note_on_c, 0, 56, 0
2, 407986, Control_c, 0, 64, 71
2, 408005, Control_c, 0, 64, 74
2, 408025, Control_c, 0, 64, 77
2, 408025, Control_c, 0, 67, 94
2, 408043, Control_c, 0, 64, 78
2, 408043, Control_c, 0, 67, 95
2, 408063, Control_c, 0, 67, 95
2, 408101, Control_c, 0, 64, 77
2, 408101, Control_c, 0, 67, 96
2, 408140, Control_c, 0, 64, 77
2, 408159, Control_c, 0, 64, 76
2, 408197, Control_c, 0, 64, 76
2, 408217, Control_c, 0, 64, 75
2, 408236, Control_c, 0, 64, 74
2, 408255, Control_c, 0, 64, 73
2, 408272, Control_c, 0, 64, 70
2, 408272, Control_c, 0, 67, 96
2, 408292, Control_c, 0, 64, 66
2, 408311, Control_c, 0, 64, 63
2, 408330, Control_c, 0, 64, 59
2, 408347, Note_on_c, 0, 56, 41
2, 408349, Control_c, 0, 64, 56
2, 408356, Note_on_c, 0, 55, 0
2, 408363, Note_on_c, 0, 76, 44
2, 408369, Control_c, 0, 64, 53
2, 408387, Control_c, 0, 64, 51
2, 408407, Control_c, 0, 64, 50
2, 408503, Control_c, 0, 64, 51
2, 408521, Control_c, 0, 67, 96
2, 408541, Control_c, 0, 64, 51
2, 408560, Control_c, 0, 64, 52
2, 408560, Control_c, 0, 67, 95
2, 408580, Control_c, 0, 64, 53
2, 408580, Control_c, 0, 67, 95
2, 408598, Control_c, 0, 64, 54
2, 408598, Control_c, 0, 67, 94
2, 408618, Control_c, 0, 64, 54
2, 408618, Control_c, 0, 67, 94
2, 408637, Control_c, 0, 64, 55
2, 408657, Control_c, 0, 64, 57
2, 408675, Control_c, 0, 64, 59
2, 408675, Control_c, 0, 67, 93
2, 408695, Control_c, 0, 64, 61
2, 408714, Control_c, 0, 64, 63
2, 408714, Control_c, 0, 67, 93
2, 408733, Control_c, 0, 64, 64
2, 408733, Control_c, 0, 67, 92
2, 408752, Control_c, 0, 64, 65
2, 408760, Note_on_c, 0, 58, 39
2, 408772, Control_c, 0, 64, 67
2, 408791, Control_c, 0, 64, 70
2, 408807, Note_on_c, 0, 68, 0
2, 408810, Control_c, 0, 64, 74
2, 408829, Control_c, 0, 64, 79
2, 408849, Control_c, 0, 64, 83
2, 408867, Control_c, 0, 64, 84
2, 408881, Note_on_c, 0, 56, 0
2, 408906, Control_c, 0, 64, 84
2, 408983, Control_c, 0, 64, 83
2, 409021, Control_c, 0, 64, 83
2, 409040, Control_c, 0, 64, 82
2, 409060, Control_c, 0, 64, 81
2, 409078, Control_c, 0, 64, 80
2, 409098, Control_c, 0, 64, 78
2, 409117, Control_c, 0, 64, 75
2, 409137, Control_c, 0, 64, 71
2, 409146, Note_on_c, 0, 59, 42
2, 409149, Note_on_c, 0, 58, 0
2, 409155, Control_c, 0, 64, 66
2, 409165, Note_on_c, 0, 66, 56
2, 409175, Control_c, 0, 64, 60
2, 409194, Control_c, 0, 64, 53
2, 409212, Control_c, 0, 64, 47
2, 409231, Control_c, 0, 64, 43
2, 409231, Control_c, 0, 67, 93
2, 409251, Control_c, 0, 64, 43
2, 409270, Control_c, 0, 64, 43
2, 409289, Control_c, 0, 64, 44
2, 409308, Control_c, 0, 64, 45
2, 409328, Control_c, 0, 64, 45
2, 409346, Control_c, 0, 64, 46
2, 409346, Control_c, 0, 67, 92
2, 409365, Control_c, 0, 64, 46
2, 409365, Control_c, 0, 67, 92
2, 409378, Note_on_c, 0, 71, 0
2, 409385, Control_c, 0, 64, 47
2, 409385, Control_c, 0, 67, 91
2, 409404, Control_c, 0, 64, 49
2, 409404, Control_c, 0, 67, 91
2, 409423, Control_c, 0, 64, 51
2, 409423, Control_c, 0, 67, 89
2, 409442, Control_c, 0, 64, 54
2, 409442, Control_c, 0, 67, 80
2, 409462, Control_c, 0, 64, 57
2, 409462, Control_c, 0, 67, 60
2, 409481, Control_c, 0, 64, 60
2, 409481, Control_c, 0, 67, 41
2, 409500, Control_c, 0, 64, 61
2, 409500, Control_c, 0, 67, 24
2, 409519, Control_c, 0, 64, 63
2, 409519, Control_c, 0, 67, 8
2, 409539, Control_c, 0, 64, 64
2, 409539, Control_c, 0, 67, 0
2, 409557, Control_c, 0, 64, 65
2, 409577, Control_c, 0, 64, 67
2, 409586, Note_on_c, 0, 76, 0
2, 409596, Control_c, 0, 64, 69
2, 409601, Note_on_c, 0, 58, 39
2, 409616, Control_c, 0, 64, 73
2, 409618, Note_on_c, 0, 74, 32
2, 409634, Control_c, 0, 64, 78
2, 409644, Note_on_c, 0, 59, 0
2, 409654, Control_c, 0, 64, 82
2, 409673, Control_c, 0, 64, 85
2, 409809, Control_c, 0, 64, 85
2, 409866, Control_c, 0, 64, 84
2, 409885, Control_c, 0, 64, 84
2, 409904, Control_c, 0, 64, 83
2, 409923, Control_c, 0, 64, 82
2, 409943, Control_c, 0, 64, 80
2, 409945, Note_on_c, 0, 66, 0
2, 409961, Control_c, 0, 64, 76
2, 409981, Control_c, 0, 64, 71
2, 409992, Note_on_c, 0, 56, 36
2, 409992, Note_on_c, 0, 71, 51
2, 410000, Control_c, 0, 64, 67
2, 410011, Note_on_c, 0, 75, 48
2, 410017, Note_on_c, 0, 58, 0
2, 410020, Control_c, 0, 64, 64
2, 410031, Note_on_c, 0, 74, 0
2, 410038, Control_c, 0, 64, 62
2, 410058, Control_c, 0, 64, 61
2, 410077, Control_c, 0, 64, 60
2, 410097, Control_c, 0, 64, 59
2, 410115, Control_c, 0, 64, 58
2, 410135, Control_c, 0, 64, 57
2, 410154, Control_c, 0, 64, 56
2, 410173, Control_c, 0, 64, 55
2, 410212, Control_c, 0, 64, 55
2, 410289, Control_c, 0, 64, 55
2, 410327, Control_c, 0, 64, 56
2, 410346, Control_c, 0, 64, 57
2, 410365, Control_c, 0, 64, 58
2, 410384, Control_c, 0, 64, 59
2, 410403, Control_c, 0, 64, 60
2, 410413, Note_on_c, 0, 54, 44
2, 410423, Control_c, 0, 64, 61
2, 410441, Control_c, 0, 64, 62
2, 410461, Control_c, 0, 64, 62
2, 410474, Note_on_c, 0, 56, 0
2, 410480, Control_c, 0, 64, 63
2, 410538, Control_c, 0, 64, 62
2, 410557, Control_c, 0, 64, 61
2, 410577, Control_c, 0, 64, 59
2, 410595, Control_c, 0, 64, 58
2, 410615, Control_c, 0, 64, 57
2, 410634, Control_c, 0, 64, 58
2, 410653, Control_c, 0, 64, 61
2, 410672, Control_c, 0, 64, 63
2, 410692, Control_c, 0, 64, 65
2, 410711, Control_c, 0, 64, 66
2, 410730, Control_c, 0, 64, 68
2, 410749, Control_c, 0, 64, 70
2, 410769, Control_c, 0, 64, 73
2, 410787, Control_c, 0, 64, 75
2, 410802, Note_on_c, 0, 53, 50
2, 410807, Control_c, 0, 64, 76
2, 410819, Note_on_c, 0, 54, 0
2, 410819, Note_on_c, 0, 71, 0
2, 410831, Note_on_c, 0, 75, 0
2, 411095, Control_c, 0, 64, 75
2, 411114, Control_c, 0, 64, 74
2, 411133, Control_c, 0, 64, 69
2, 411152, Control_c, 0, 64, 64
2, 411164, Note_on_c, 0, 54, 45
2, 411172, Control_c, 0, 64, 58
2, 411175, Note_on_c, 0, 75, 65
2, 411186, Note_on_c, 0, 53, 0
2, 411191, Control_c, 0, 64, 52
2, 411210, Control_c, 0, 64, 51
2, 411229, Control_c, 0, 64, 53
2, 411249, Control_c, 0, 64, 58
2, 411267, Control_c, 0, 64, 62
2, 411286, Control_c, 0, 64, 64
2, 411306, Control_c, 0, 64, 66
2, 411325, Control_c, 0, 64, 69
2, 411344, Control_c, 0, 64, 73
2, 411363, Control_c, 0, 64, 78
2, 411383, Control_c, 0, 64, 82
2, 411401, Control_c, 0, 64, 83
2, 411421, Control_c, 0, 64, 84
2, 411555, Control_c, 0, 64, 83
2, 411573, Note_on_c, 0, 54, 0
2, 411575, Control_c, 0, 64, 81
2, 411583, Note_on_c, 0, 73, 72
2, 411587, Note_on_c, 0, 53, 45
2, 411594, Control_c, 0, 64, 72
2, 411613, Control_c, 0, 64, 64
2, 411619, Note_on_c, 0, 80, 50
2, 411632, Control_c, 0, 64, 50
2, 411652, Control_c, 0, 64, 31
2, 411690, Control_c, 0, 64, 43
2, 411709, Control_c, 0, 64, 56
2, 411729, Control_c, 0, 64, 62
2, 411747, Control_c, 0, 64, 64
2, 411766, Control_c, 0, 64, 66
2, 411777, Note_on_c, 0, 75, 0
2, 411786, Control_c, 0, 64, 68
2, 411805, Control_c, 0, 64, 70
2, 411824, Control_c, 0, 64, 73
2, 411843, Control_c, 0, 64, 77
2, 411863, Control_c, 0, 64, 80
2, 411881, Control_c, 0, 64, 83
2, 411912, Note_on_c, 0, 53, 0
2, 411920, Control_c, 0, 64, 81
2, 411940, Control_c, 0, 64, 75
2, 411958, Control_c, 0, 64, 67
2, 411964, Note_on_c, 0, 51, 51
2, 411970, Note_on_c, 0, 71, 67
2, 411978, Control_c, 0, 64, 60
2, 411997, Control_c, 0, 64, 50
2, 412017, Control_c, 0, 64, 50
2, 412035, Control_c, 0, 64, 56
2, 412055, Control_c, 0, 64, 61
2, 412074, Control_c, 0, 64, 64
2, 412084, Note_on_c, 0, 73, 0
2, 412092, Control_c, 0, 64, 66
2, 412092, Note_on_c, 0, 80, 0
2, 412111, Control_c, 0, 64, 70
2, 412131, Control_c, 0, 64, 75
2, 412150, Control_c, 0, 64, 81
2, 412169, Control_c, 0, 64, 83
2, 412303, Control_c, 0, 64, 83
2, 412342, Control_c, 0, 64, 81
2, 412361, Control_c, 0, 64, 77
2, 412380, Control_c, 0, 64, 69
2, 412381, Note_on_c, 0, 70, 75
2, 412388, Note_on_c, 0, 50, 43
2, 412398, Note_on_c, 0, 51, 0
2, 412399, Control_c, 0, 64, 61
2, 412419, Control_c, 0, 64, 37
2, 412420, Note_on_c, 0, 71, 0
2, 412437, Control_c, 0, 64, 17
2, 412457, Control_c, 0, 64, 18
2, 412476, Control_c, 0, 64, 35
2, 412496, Control_c, 0, 64, 54
2, 412514, Control_c, 0, 64, 62
2, 412534, Control_c, 0, 64, 65
2, 412553, Control_c, 0, 64, 68
2, 412572, Control_c, 0, 64, 72
2, 412591, Control_c, 0, 64, 77
2, 412611, Control_c, 0, 64, 82
2, 412627, Note_on_c, 0, 50, 0
2, 412631, Control_c, 0, 64, 86
2, 412651, Control_c, 0, 64, 87
2, 412690, Control_c, 0, 64, 86
2, 412708, Control_c, 0, 64, 85
2, 412728, Control_c, 0, 64, 81
2, 412747, Control_c, 0, 64, 74
2, 412766, Control_c, 0, 64, 66
2, 412776, Note_on_c, 0, 71, 65
2, 412780, Note_on_c, 0, 62, 33
2, 412785, Control_c, 0, 64, 59
2, 412790, Note_on_c, 0, 80, 59
2, 412804, Control_c, 0, 64, 59
2, 412824, Control_c, 0, 64, 62
2, 412842, Control_c, 0, 64, 65
2, 412853, Note_on_c, 0, 70, 0
2, 412862, Control_c, 0, 64, 68
2, 412881, Control_c, 0, 64, 72
2, 412901, Control_c, 0, 64, 79
2, 412917, Note_on_c, 0, 62, 0
2, 412919, Control_c, 0, 64, 87
2, 412939, Control_c, 0, 64, 93
2, 412946, Note_on_c, 0, 63, 50
2, 412958, Control_c, 0, 64, 94
2, 412987, Note_on_c, 0, 80, 0
2, 413052, Control_c, 0, 64, 93
2, 413069, Control_c, 0, 64, 92
2, 413089, Control_c, 0, 64, 91
2, 413108, Control_c, 0, 64, 90
2, 413126, Control_c, 0, 64, 89
2, 413135, Note_on_c, 0, 63, 0
2, 413146, Control_c, 0, 64, 86
2, 413149, Note_on_c, 0, 73, 57
2, 413160, Note_on_c, 0, 64, 50
2, 413165, Control_c, 0, 64, 82
2, 413185, Control_c, 0, 64, 76
2, 413202, Note_on_c, 0, 79, 55
2, 413203, Control_c, 0, 64, 69
2, 413223, Control_c, 0, 64, 62
2, 413242, Control_c, 0, 64, 48
2, 413262, Control_c, 0, 64, 41
2, 413280, Control_c, 0, 64, 40
2, 413396, Control_c, 0, 64, 41
2, 413415, Control_c, 0, 64, 42
2, 413434, Control_c, 0, 64, 44
2, 413454, Control_c, 0, 64, 46
2, 413456, Note_on_c, 0, 64, 0
2, 413472, Control_c, 0, 64, 49
2, 413492, Control_c, 0, 64, 55
2, 413511, Control_c, 0, 64, 60
2, 413531, Control_c, 0, 64, 63
2, 413544, Note_on_c, 0, 58, 35
2, 413549, Control_c, 0, 64, 65
2, 413569, Control_c, 0, 64, 66
2, 413588, Control_c, 0, 64, 68
2, 413593, Note_on_c, 0, 78, 50
2, 413608, Note_on_c, 0, 79, 0
2, 413610, Control_c, 0, 64, 70
2, 413629, Control_c, 0, 64, 75
2, 413649, Control_c, 0, 64, 82
2, 413649, Note_on_c, 0, 71, 0
2, 413667, Control_c, 0, 64, 88
2, 413686, Control_c, 0, 64, 93
2, 413706, Control_c, 0, 64, 96
2, 413725, Control_c, 0, 64, 99
2, 413744, Control_c, 0, 64, 101
2, 413763, Control_c, 0, 64, 104
2, 413783, Control_c, 0, 64, 106
2, 413821, Control_c, 0, 67, 14
2, 413840, Control_c, 0, 67, 25
2, 413860, Control_c, 0, 67, 38
2, 413878, Control_c, 0, 67, 53
2, 413898, Control_c, 0, 64, 105
2, 413898, Control_c, 0, 67, 68
2, 413917, Control_c, 0, 64, 104
2, 413917, Control_c, 0, 67, 82
2, 413931, Note_on_c, 0, 59, 45
2, 413937, Control_c, 0, 64, 103
2, 413937, Control_c, 0, 67, 94
2, 413955, Control_c, 0, 64, 101
2, 413955, Control_c, 0, 67, 105
2, 413975, Control_c, 0, 64, 95
2, 413975, Control_c, 0, 67, 112
2, 413994, Control_c, 0, 64, 85
2, 413994, Control_c, 0, 67, 117
2, 414008, Note_on_c, 0, 58, 0
2, 414010, Control_c, 0, 64, 72
2, 414010, Control_c, 0, 67, 120
2, 414020, Note_on_c, 0, 68, 62
2, 414028, Control_c, 0, 64, 62
2, 414028, Control_c, 0, 67, 121
2, 414048, Control_c, 0, 64, 48
2, 414053, Note_on_c, 0, 73, 0
2, 414057, Note_on_c, 0, 78, 0
2, 414067, Control_c, 0, 64, 45
2, 414086, Control_c, 0, 64, 51
2, 414105, Control_c, 0, 64, 57
2, 414124, Control_c, 0, 64, 62
2, 414124, Control_c, 0, 67, 120
2, 414144, Control_c, 0, 64, 64
2, 414144, Control_c, 0, 67, 120
2, 414162, Control_c, 0, 64, 67
2, 414182, Control_c, 0, 64, 70
2, 414182, Control_c, 0, 67, 119
2, 414201, Control_c, 0, 64, 76
2, 414201, Control_c, 0, 67, 119
2, 414221, Control_c, 0, 64, 85
2, 414221, Control_c, 0, 67, 118
2, 414239, Control_c, 0, 64, 91
2, 414259, Control_c, 0, 64, 93
2, 414259, Control_c, 0, 67, 118
2, 414278, Control_c, 0, 67, 117
2, 414297, Control_c, 0, 67, 116
2, 414303, Note_on_c, 0, 59, 0
2, 414316, Control_c, 0, 67, 116
2, 414336, Control_c, 0, 67, 115
2, 414336, Note_on_c, 0, 60, 51
2, 414371, Note_on_c, 0, 78, 59
2, 414431, Control_c, 0, 67, 115
2, 414437, Note_on_c, 0, 61, 34
2, 414440, Note_on_c, 0, 60, 0
2, 414490, Control_c, 0, 64, 92
2, 414496, Note_on_c, 0, 59, 43
2, 414506, Note_on_c, 0, 61, 0
2, 414551, Control_c, 0, 64, 91
2, 414566, Note_on_c, 0, 59, 0
2, 414610, Control_c, 0, 64, 91
2, 414612, Note_on_c, 0, 60, 39
2, 414648, Control_c, 0, 64, 90
2, 414667, Control_c, 0, 64, 89
2, 414667, Control_c, 0, 67, 114
2, 414686, Control_c, 0, 64, 87
2, 414694, Note_on_c, 0, 60, 0
2, 414699, Note_on_c, 0, 61, 43
2, 414705, Control_c, 0, 64, 84
2, 414705, Control_c, 0, 67, 114
2, 414724, Control_c, 0, 64, 78
2, 414730, Note_on_c, 0, 73, 61
2, 414744, Control_c, 0, 64, 69
2, 414744, Control_c, 0, 67, 113
2, 414758, Note_on_c, 0, 77, 48
2, 414762, Control_c, 0, 64, 60
2, 414782, Control_c, 0, 64, 48
2, 414801, Control_c, 0, 64, 44
2, 414801, Control_c, 0, 67, 113
2, 414839, Control_c, 0, 64, 44
2, 414839, Control_c, 0, 67, 112
2, 414859, Control_c, 0, 64, 47
2, 414859, Control_c, 0, 67, 111
2, 414878, Control_c, 0, 64, 50
2, 414878, Control_c, 0, 67, 111
2, 414897, Control_c, 0, 64, 52
2, 414897, Control_c, 0, 67, 110
2, 414916, Control_c, 0, 64, 53
2, 414916, Control_c, 0, 67, 109
2, 414936, Control_c, 0, 64, 54
2, 414936, Control_c, 0, 67, 109
2, 414955, Control_c, 0, 64, 55
2, 414971, Control_c, 0, 64, 56
2, 414971, Control_c, 0, 67, 108
2, 414989, Control_c, 0, 64, 57
2, 414989, Control_c, 0, 67, 108
2, 415009, Control_c, 0, 64, 57
2, 415028, Control_c, 0, 64, 58
2, 415046, Control_c, 0, 64, 60
2, 415066, Control_c, 0, 64, 62
2, 415085, Control_c, 0, 64, 63
2, 415105, Control_c, 0, 64, 65
2, 415115, Note_on_c, 0, 76, 50
2, 415123, Control_c, 0, 64, 67
2, 415125, Note_on_c, 0, 58, 39
2, 415143, Control_c, 0, 64, 72
2, 415157, Note_on_c, 0, 61, 0
2, 415162, Control_c, 0, 64, 80
2, 415162, Control_c, 0, 67, 108
2, 415172, Note_on_c, 0, 77, 0
2, 415182, Control_c, 0, 64, 93
2, 415182, Control_c, 0, 67, 109
2, 415200, Control_c, 0, 64, 104
2, 415200, Control_c, 0, 67, 109
2, 415214, Note_on_c, 0, 78, 0
2, 415220, Control_c, 0, 64, 109
2, 415239, Control_c, 0, 64, 110
2, 415241, Note_on_c, 0, 76, 0
2, 415325, Note_on_c, 0, 73, 0
2, 415412, Control_c, 0, 64, 108
2, 415431, Control_c, 0, 64, 106
2, 415451, Control_c, 0, 64, 98
2, 415469, Control_c, 0, 64, 86
2, 415489, Control_c, 0, 64, 75
2, 415492, Note_on_c, 0, 55, 38
2, 415508, Control_c, 0, 64, 68
2, 415529, Control_c, 0, 64, 64
2, 415534, Note_on_c, 0, 58, 0
2, 415536, Note_on_c, 0, 75, 54
2, 415548, Control_c, 0, 64, 63
2, 415568, Control_c, 0, 64, 64
2, 415586, Control_c, 0, 64, 65
2, 415605, Control_c, 0, 64, 66
2, 415625, Control_c, 0, 64, 66
2, 415702, Control_c, 0, 64, 66
2, 415721, Control_c, 0, 64, 64
2, 415740, Control_c, 0, 64, 62
2, 415759, Control_c, 0, 64, 58
2, 415779, Control_c, 0, 64, 51
2, 415797, Control_c, 0, 64, 42
2, 415797, Control_c, 0, 67, 110
2, 415817, Control_c, 0, 64, 41
2, 415836, Control_c, 0, 64, 44
2, 415856, Control_c, 0, 64, 53
2, 415874, Control_c, 0, 64, 60
2, 415894, Control_c, 0, 64, 63
2, 415906, Note_on_c, 0, 55, 0
2, 415912, Note_on_c, 0, 56, 42
2, 415913, Control_c, 0, 64, 65
2, 415915, Note_on_c, 0, 71, 44
2, 415932, Control_c, 0, 64, 67
2, 415949, Note_on_c, 0, 68, 0
2, 415951, Control_c, 0, 64, 68
2, 415971, Control_c, 0, 64, 70
2, 415990, Control_c, 0, 64, 72
2, 416009, Control_c, 0, 64, 74
2, 416028, Control_c, 0, 64, 74
2, 416028, Control_c, 0, 67, 109
2, 416162, Control_c, 0, 67, 110
2, 416220, Control_c, 0, 64, 74
2, 416239, Control_c, 0, 64, 73
2, 416259, Control_c, 0, 64, 71
2, 416259, Control_c, 0, 67, 109
2, 416277, Control_c, 0, 64, 69
2, 416297, Control_c, 0, 64, 67
2, 416316, Control_c, 0, 64, 64
2, 416329, Note_on_c, 0, 73, 44
2, 416336, Control_c, 0, 64, 62
2, 416342, Note_on_c, 0, 71, 0
2, 416353, Note_on_c, 0, 70, 40
2, 416354, Control_c, 0, 64, 59
2, 416363, Note_on_c, 0, 75, 0
2, 416374, Control_c, 0, 64, 56
2, 416393, Control_c, 0, 64, 52
2, 416412, Control_c, 0, 64, 50
2, 416546, Control_c, 0, 67, 109
2, 416565, Control_c, 0, 64, 51
2, 416585, Control_c, 0, 64, 52
2, 416585, Control_c, 0, 67, 108
2, 416604, Control_c, 0, 64, 54
2, 416623, Control_c, 0, 64, 57
2, 416623, Control_c, 0, 67, 108
2, 416642, Control_c, 0, 64, 59
2, 416662, Control_c, 0, 64, 62
2, 416681, Control_c, 0, 64, 64
2, 416681, Note_on_c, 0, 56, 0
2, 416700, Control_c, 0, 64, 65
2, 416708, Note_on_c, 0, 55, 30
2, 416719, Control_c, 0, 64, 67
2, 416739, Control_c, 0, 64, 68
2, 416757, Control_c, 0, 64, 71
2, 416777, Control_c, 0, 64, 74
2, 416796, Control_c, 0, 64, 78
2, 416816, Control_c, 0, 64, 83
2, 416834, Control_c, 0, 64, 86
2, 416854, Control_c, 0, 64, 86
2, 416892, Control_c, 0, 64, 86
2, 416966, Note_on_c, 0, 70, 0
2, 416989, Control_c, 0, 64, 85
2, 417009, Control_c, 0, 64, 85
2, 417027, Control_c, 0, 64, 83
2, 417046, Control_c, 0, 64, 80
2, 417066, Control_c, 0, 64, 74
2, 417085, Control_c, 0, 64, 67
2, 417087, Note_on_c, 0, 55, 0
2, 417104, Control_c, 0, 64, 61
2, 417107, Note_on_c, 0, 56, 45
2, 417112, Note_on_c, 0, 71, 59
2, 417123, Control_c, 0, 64, 57
2, 417161, Control_c, 0, 64, 59
2, 417181, Control_c, 0, 64, 61
2, 417200, Control_c, 0, 64, 63
2, 417220, Control_c, 0, 64, 64
2, 417238, Control_c, 0, 64, 64
2, 417297, Control_c, 0, 67, 108
2, 417315, Control_c, 0, 64, 64
2, 417315, Control_c, 0, 67, 109
2, 417335, Control_c, 0, 67, 110
2, 417354, Control_c, 0, 64, 63
2, 417354, Control_c, 0, 67, 111
2, 417373, Control_c, 0, 64, 63
2, 417373, Control_c, 0, 67, 113
2, 417392, Control_c, 0, 64, 62
2, 417392, Control_c, 0, 67, 113
2, 417412, Control_c, 0, 64, 61
2, 417412, Control_c, 0, 67, 114
2, 417431, Control_c, 0, 64, 58
2, 417431, Control_c, 0, 67, 115
2, 417450, Control_c, 0, 64, 51
2, 417450, Control_c, 0, 67, 116
2, 417469, Control_c, 0, 64, 35
2, 417469, Control_c, 0, 67, 117
2, 417489, Control_c, 0, 64, 0
2, 417489, Control_c, 0, 67, 117
2, 417530, Note_on_c, 0, 54, 40
2, 417541, Note_on_c, 0, 63, 42
2, 417546, Control_c, 0, 64, 27
2, 417551, Note_on_c, 0, 56, 0
2, 417565, Control_c, 0, 64, 51
2, 417584, Control_c, 0, 64, 61
2, 417584, Control_c, 0, 67, 117
2, 417603, Control_c, 0, 64, 64
2, 417623, Control_c, 0, 64, 64
2, 417623, Control_c, 0, 67, 116
2, 417641, Control_c, 0, 64, 65
2, 417700, Control_c, 0, 67, 116
2, 417718, Control_c, 0, 67, 115
2, 417738, Control_c, 0, 67, 115
2, 417757, Control_c, 0, 67, 114
2, 417777, Control_c, 0, 64, 64
2, 417777, Control_c, 0, 67, 114
2, 417815, Control_c, 0, 64, 64
2, 417834, Control_c, 0, 64, 63
2, 417853, Control_c, 0, 64, 62
2, 417871, Control_c, 0, 64, 60
2, 417871, Control_c, 0, 67, 113
2, 417910, Control_c, 0, 67, 113
2, 417924, Note_on_c, 0, 68, 54
2, 417929, Control_c, 0, 64, 61
2, 417936, Note_on_c, 0, 54, 0
2, 417942, Note_on_c, 0, 52, 24
2, 417948, Control_c, 0, 64, 62
2, 417951, Note_on_c, 0, 73, 0
2, 417967, Control_c, 0, 64, 63
2, 417986, Control_c, 0, 64, 64
2, 418005, Control_c, 0, 64, 65
2, 418019, Note_on_c, 0, 71, 0
2, 418044, Control_c, 0, 64, 65
2, 418121, Control_c, 0, 64, 65
2, 418121, Control_c, 0, 67, 112
2, 418140, Control_c, 0, 67, 112
2, 418179, Control_c, 0, 64, 64
2, 418179, Control_c, 0, 67, 111
2, 418197, Control_c, 0, 64, 63
2, 418217, Control_c, 0, 64, 60
2, 418236, Control_c, 0, 64, 56
2, 418236, Control_c, 0, 67, 111
2, 418256, Control_c, 0, 64, 50
2, 418256, Control_c, 0, 67, 110
2, 418265, Note_on_c, 0, 52, 0
2, 418274, Control_c, 0, 64, 45
2, 418274, Control_c, 0, 67, 109
2, 418294, Control_c, 0, 64, 44
2, 418294, Control_c, 0, 67, 108
2, 418305, Note_on_c, 0, 51, 39
2, 418309, Note_on_c, 0, 71, 53
2, 418313, Control_c, 0, 64, 47
2, 418313, Control_c, 0, 67, 107
2, 418323, Note_on_c, 0, 63, 0
2, 418332, Control_c, 0, 64, 55
2, 418332, Control_c, 0, 67, 106
2, 418351, Control_c, 0, 64, 61
2, 418351, Control_c, 0, 67, 106
2, 418371, Control_c, 0, 64, 64
2, 418390, Control_c, 0, 64, 66
2, 418390, Control_c, 0, 67, 105
2, 418409, Control_c, 0, 64, 68
2, 418428, Control_c, 0, 64, 70
2, 418447, Control_c, 0, 64, 72
2, 418466, Control_c, 0, 64, 76
2, 418466, Control_c, 0, 67, 105
2, 418485, Control_c, 0, 64, 77
2, 418524, Control_c, 0, 67, 104
2, 418639, Control_c, 0, 64, 76
2, 418659, Control_c, 0, 64, 75
2, 418676, Note_on_c, 0, 51, 0
2, 418677, Control_c, 0, 64, 70
2, 418697, Control_c, 0, 64, 64
2, 418708, Note_on_c, 0, 49, 44
2, 418716, Control_c, 0, 64, 53
2, 418716, Control_c, 0, 67, 104
2, 418716, Note_on_c, 0, 70, 66
2, 418736, Control_c, 0, 64, 32
2, 418736, Control_c, 0, 67, 103
2, 418754, Control_c, 0, 64, 11
2, 418754, Control_c, 0, 67, 99
2, 418754, Note_on_c, 0, 68, 0
2, 418774, Control_c, 0, 64, 9
2, 418774, Control_c, 0, 67, 96
2, 418793, Control_c, 0, 64, 15
2, 418793, Control_c, 0, 67, 94
2, 418812, Control_c, 0, 64, 34
2, 418831, Control_c, 0, 64, 50
2, 418831, Control_c, 0, 67, 93
2, 418851, Control_c, 0, 64, 58
2, 418851, Control_c, 0, 67, 93
2, 418870, Control_c, 0, 64, 60
2, 418870, Control_c, 0, 67, 92
2, 418889, Control_c, 0, 67, 91
2, 418908, Control_c, 0, 64, 59
2, 418908, Control_c, 0, 67, 90
2, 418927, Control_c, 0, 64, 59
2, 418927, Control_c, 0, 67, 87
2, 418946, Control_c, 0, 67, 84
2, 418965, Control_c, 0, 64, 57
2, 418965, Control_c, 0, 67, 82
2, 418985, Control_c, 0, 64, 53
2, 418985, Control_c, 0, 67, 80
2, 419004, Control_c, 0, 64, 46
2, 419004, Control_c, 0, 67, 80
2, 419023, Control_c, 0, 64, 41
2, 419042, Control_c, 0, 64, 40
2, 419062, Control_c, 0, 64, 39
2, 419081, Control_c, 0, 67, 79
2, 419110, Note_on_c, 0, 50, 43
2, 419119, Control_c, 0, 64, 42
2, 419119, Control_c, 0, 67, 79
2, 419124, Note_on_c, 0, 49, 0
2, 419129, Note_on_c, 0, 68, 51
2, 419139, Control_c, 0, 64, 48
2, 419157, Control_c, 0, 64, 56
2, 419157, Control_c, 0, 67, 78
2, 419164, Note_on_c, 0, 71, 0
2, 419177, Control_c, 0, 64, 60
2, 419177, Control_c, 0, 67, 75
2, 419196, Control_c, 0, 64, 62
2, 419196, Control_c, 0, 67, 65
2, 419216, Control_c, 0, 64, 62
2, 419216, Control_c, 0, 67, 49
2, 419234, Control_c, 0, 64, 63
2, 419234, Control_c, 0, 67, 27
2, 419254, Control_c, 0, 64, 63
2, 419254, Control_c, 0, 67, 0
2, 419311, Control_c, 0, 64, 63
2, 419331, Control_c, 0, 64, 61
2, 419351, Control_c, 0, 64, 60
2, 419371, Control_c, 0, 64, 61
2, 419390, Control_c, 0, 64, 62
2, 419410, Control_c, 0, 64, 63
2, 419428, Control_c, 0, 64, 65
2, 419447, Control_c, 0, 64, 67
2, 419467, Control_c, 0, 64, 70
2, 419486, Control_c, 0, 64, 74
2, 419505, Control_c, 0, 64, 80
2, 419521, Note_on_c, 0, 50, 0
2, 419524, Control_c, 0, 64, 86
2, 419544, Control_c, 0, 64, 89
2, 419546, Note_on_c, 0, 51, 49
2, 419558, Note_on_c, 0, 66, 60
2, 419562, Control_c, 0, 64, 89
2, 419579, Note_on_c, 0, 70, 0
2, 419590, Note_on_c, 0, 68, 0
2, 419601, Control_c, 0, 64, 89
2, 419639, Control_c, 0, 64, 88
2, 419755, Control_c, 0, 64, 88
2, 419811, Control_c, 0, 64, 87
2, 419868, Control_c, 0, 64, 87
2, 419887, Control_c, 0, 64, 85
2, 419906, Control_c, 0, 64, 77
2, 419925, Control_c, 0, 64, 68
2, 419945, Control_c, 0, 64, 62
2, 419954, Note_on_c, 0, 51, 0
2, 419963, Note_on_c, 0, 78, 72
2, 419964, Control_c, 0, 64, 58
2, 419970, Note_on_c, 0, 46, 43
2, 419983, Control_c, 0, 64, 59
2, 420002, Control_c, 0, 64, 61
2, 420022, Control_c, 0, 64, 63
2, 420041, Control_c, 0, 64, 65
2, 420060, Control_c, 0, 64, 68
2, 420079, Control_c, 0, 64, 72
2, 420099, Control_c, 0, 64, 78
2, 420117, Control_c, 0, 64, 83
2, 420137, Control_c, 0, 64, 85
2, 420142, Note_on_c, 0, 78, 0
2, 420331, Note_on_c, 0, 66, 0
2, 420349, Control_c, 0, 64, 84
2, 420369, Control_c, 0, 64, 82
2, 420373, Note_on_c, 0, 46, 0
2, 420387, Control_c, 0, 64, 77
2, 420403, Note_on_c, 0, 47, 41
2, 420406, Control_c, 0, 64, 69
2, 420417, Note_on_c, 0, 68, 66
2, 420426, Control_c, 0, 64, 63
2, 420445, Control_c, 0, 64, 61
2, 420464, Control_c, 0, 64, 61
2, 420483, Control_c, 0, 64, 63
2, 420503, Control_c, 0, 64, 64
2, 420521, Control_c, 0, 64, 64
2, 420541, Control_c, 0, 64, 64
2, 420580, Control_c, 0, 64, 63
2, 420598, Control_c, 0, 64, 61
2, 420618, Control_c, 0, 64, 58
2, 420637, Control_c, 0, 64, 53
2, 420657, Control_c, 0, 64, 47
2, 420675, Control_c, 0, 64, 45
2, 420695, Control_c, 0, 64, 46
2, 420714, Control_c, 0, 64, 50
2, 420732, Control_c, 0, 64, 56
2, 420752, Control_c, 0, 64, 61
2, 420772, Control_c, 0, 64, 63
2, 420791, Control_c, 0, 64, 65
2, 420799, Note_on_c, 0, 48, 43
2, 420810, Control_c, 0, 64, 66
2, 420816, Note_on_c, 0, 66, 59
2, 420829, Control_c, 0, 64, 67
2, 420833, Note_on_c, 0, 47, 0
2, 420849, Control_c, 0, 64, 69
2, 420867, Control_c, 0, 64, 69
2, 420963, Control_c, 0, 64, 70
2, 421060, Control_c, 0, 64, 69
2, 421098, Control_c, 0, 64, 69
2, 421117, Control_c, 0, 64, 67
2, 421137, Control_c, 0, 64, 64
2, 421155, Control_c, 0, 64, 58
2, 421175, Control_c, 0, 64, 51
2, 421190, Note_on_c, 0, 48, 0
2, 421194, Control_c, 0, 64, 48
2, 421210, Note_on_c, 0, 66, 0
2, 421211, Note_on_c, 0, 49, 52
2, 421212, Note_on_c, 0, 64, 58
2, 421213, Control_c, 0, 64, 51
2, 421232, Control_c, 0, 64, 58
2, 421252, Control_c, 0, 64, 63
2, 421271, Control_c, 0, 64, 65
2, 421290, Control_c, 0, 64, 68
2, 421309, Control_c, 0, 64, 70
2, 421329, Control_c, 0, 64, 73
2, 421347, Control_c, 0, 64, 74
2, 421386, Control_c, 0, 64, 73
2, 421443, Control_c, 0, 64, 73
2, 421463, Control_c, 0, 64, 72
2, 421481, Control_c, 0, 64, 71
2, 421501, Control_c, 0, 64, 71
2, 421540, Control_c, 0, 64, 70
2, 421558, Control_c, 0, 64, 68
2, 421578, Control_c, 0, 64, 64
2, 421597, Control_c, 0, 64, 57
2, 421617, Control_c, 0, 64, 44
2, 421635, Control_c, 0, 64, 26
2, 421640, Note_on_c, 0, 44, 42
2, 421655, Control_c, 0, 64, 21
2, 421674, Control_c, 0, 64, 23
2, 421680, Note_on_c, 0, 63, 53
2, 421686, Note_on_c, 0, 49, 0
2, 421693, Control_c, 0, 64, 40
2, 421712, Control_c, 0, 64, 55
2, 421732, Control_c, 0, 64, 62
2, 421751, Control_c, 0, 64, 64
2, 421770, Control_c, 0, 64, 65
2, 421778, Note_on_c, 0, 64, 0
2, 421789, Control_c, 0, 64, 65
2, 422020, Control_c, 0, 64, 65
2, 422038, Control_c, 0, 64, 64
2, 422058, Control_c, 0, 64, 63
2, 422068, Note_on_c, 0, 46, 38
2, 422069, Note_on_c, 0, 44, 0
2, 422077, Control_c, 0, 64, 60
2, 422097, Control_c, 0, 64, 53
2, 422110, Note_on_c, 0, 62, 51
2, 422115, Control_c, 0, 64, 36
2, 422135, Control_c, 0, 64, 0
2, 422184, Note_on_c, 0, 63, 0
2, 422231, Control_c, 0, 64, 29
2, 422251, Control_c, 0, 64, 51
2, 422270, Control_c, 0, 64, 60
2, 422290, Control_c, 0, 64, 63
2, 422308, Control_c, 0, 64, 64
2, 422327, Control_c, 0, 64, 65
2, 422347, Control_c, 0, 64, 67
2, 422366, Control_c, 0, 64, 68
2, 422385, Control_c, 0, 64, 70
2, 422404, Control_c, 0, 64, 72
2, 422424, Control_c, 0, 64, 75
2, 422442, Control_c, 0, 64, 78
2, 422462, Control_c, 0, 64, 81
2, 422481, Control_c, 0, 64, 83
2, 422501, Control_c, 0, 64, 83
2, 422539, Control_c, 0, 64, 84
2, 422539, Note_on_c, 0, 66, 54
2, 422577, Control_c, 0, 64, 84
2, 422597, Note_on_c, 0, 68, 0
2, 422616, Note_on_c, 0, 62, 0
2, 422654, Control_c, 0, 64, 84
2, 422677, Note_on_c, 0, 65, 56
2, 422693, Control_c, 0, 64, 83
2, 422711, Note_on_c, 0, 66, 0
2, 422731, Control_c, 0, 64, 83
2, 422770, Control_c, 0, 64, 82
2, 422788, Control_c, 0, 64, 82
2, 422789, Note_on_c, 0, 65, 0
2, 422807, Control_c, 0, 64, 81
2, 422827, Control_c, 0, 64, 79
2, 422846, Control_c, 0, 64, 77
2, 422865, Control_c, 0, 64, 74
2, 422884, Control_c, 0, 64, 69
2, 422904, Control_c, 0, 64, 65
2, 422907, Note_on_c, 0, 63, 70
2, 422922, Control_c, 0, 64, 61
2, 422925, Note_on_c, 0, 66, 49
2, 422942, Control_c, 0, 64, 57
2, 422961, Control_c, 0, 64, 52
2, 422981, Control_c, 0, 64, 49
2, 422999, Control_c, 0, 64, 47
2, 423096, Control_c, 0, 64, 47
2, 423115, Control_c, 0, 64, 48
2, 423134, Control_c, 0, 64, 50
2, 423153, Control_c, 0, 64, 50
2, 423173, Control_c, 0, 64, 51
2, 423191, Control_c, 0, 64, 52
2, 423211, Control_c, 0, 64, 52
2, 423230, Control_c, 0, 64, 53
2, 423250, Control_c, 0, 64, 54
2, 423268, Control_c, 0, 64, 55
2, 423287, Control_c, 0, 64, 58
2, 423307, Control_c, 0, 64, 61
2, 423326, Control_c, 0, 64, 62
2, 423345, Control_c, 0, 64, 63
2, 423346, Note_on_c, 0, 68, 63
2, 423364, Control_c, 0, 64, 64
2, 423384, Control_c, 0, 64, 65
2, 423402, Control_c, 0, 64, 66
2, 423422, Control_c, 0, 64, 66
2, 423441, Control_c, 0, 64, 67
2, 423461, Control_c, 0, 64, 67
2, 423499, Control_c, 0, 64, 68
2, 423518, Control_c, 0, 64, 68
2, 423537, Control_c, 0, 64, 69
2, 423556, Control_c, 0, 64, 69
2, 423671, Control_c, 0, 64, 69
2, 423690, Control_c, 0, 64, 67
2, 423709, Control_c, 0, 64, 63
2, 423728, Control_c, 0, 64, 59
2, 423747, Control_c, 0, 64, 57
2, 423766, Control_c, 0, 64, 55
2, 423786, Control_c, 0, 64, 56
2, 423805, Control_c, 0, 64, 58
2, 423824, Control_c, 0, 64, 63
2, 423838, Note_on_c, 0, 70, 64
2, 423842, Note_on_c, 0, 66, 0
2, 423843, Control_c, 0, 64, 66
2, 423863, Control_c, 0, 64, 71
2, 423881, Control_c, 0, 64, 77
2, 423897, Note_on_c, 0, 68, 0
2, 423901, Control_c, 0, 64, 85
2, 423920, Control_c, 0, 64, 95
2, 423940, Control_c, 0, 64, 102
2, 423958, Control_c, 0, 64, 107
2, 423978, Control_c, 0, 64, 112
2, 423997, Control_c, 0, 64, 115
2, 424017, Control_c, 0, 64, 119
2, 424035, Control_c, 0, 64, 127
2, 424080, Note_on_c, 0, 63, 0
2, 424230, Control_c, 0, 64, 119
2, 424250, Control_c, 0, 64, 114
2, 424269, Control_c, 0, 64, 112
2, 424284, Note_on_c, 0, 53, 77
2, 424309, Note_on_c, 0, 70, 0
2, 424326, Control_c, 0, 64, 112
2, 424364, Control_c, 0, 64, 111
2, 424364, Note_on_c, 0, 62, 56
2, 424384, Control_c, 0, 64, 110
2, 424403, Control_c, 0, 64, 108
2, 424422, Control_c, 0, 64, 108
2, 424441, Control_c, 0, 64, 107
2, 424499, Control_c, 0, 64, 107
2, 424538, Control_c, 0, 64, 106
2, 424556, Control_c, 0, 64, 106
2, 424563, Note_on_c, 0, 60, 54
2, 424581, Note_on_c, 0, 62, 0
2, 424591, Control_c, 0, 64, 105
2, 424611, Control_c, 0, 64, 105
2, 424630, Control_c, 0, 64, 104
2, 424648, Control_c, 0, 64, 104
2, 424668, Control_c, 0, 64, 103
2, 424687, Control_c, 0, 64, 102
2, 424695, Note_on_c, 0, 60, 0
2, 424707, Control_c, 0, 64, 102
2, 424725, Control_c, 0, 64, 101
2, 424745, Control_c, 0, 64, 100
2, 424764, Control_c, 0, 64, 99
2, 424783, Control_c, 0, 64, 97
2, 424802, Control_c, 0, 64, 94
2, 424802, Note_on_c, 0, 58, 82
2, 424822, Control_c, 0, 64, 91
2, 424841, Control_c, 0, 64, 88
2, 424857, Note_on_c, 0, 53, 0
2, 424860, Control_c, 0, 64, 85
2, 424863, Note_on_c, 0, 62, 57
2, 424879, Control_c, 0, 64, 79
2, 424899, Control_c, 0, 64, 71
2, 424917, Control_c, 0, 64, 63
2, 424937, Control_c, 0, 64, 45
2, 424956, Control_c, 0, 64, 32
2, 424976, Control_c, 0, 64, 32
2, 424994, Control_c, 0, 64, 33
2, 425014, Control_c, 0, 64, 40
2, 425033, Control_c, 0, 64, 50
2, 425052, Control_c, 0, 64, 58
2, 425071, Control_c, 0, 64, 62
2, 425091, Control_c, 0, 64, 64
2, 425110, Control_c, 0, 64, 66
2, 425128, Control_c, 0, 64, 68
2, 425148, Control_c, 0, 64, 70
2, 425167, Control_c, 0, 64, 75
2, 425187, Control_c, 0, 64, 79
2, 425205, Control_c, 0, 64, 84
2, 425225, Control_c, 0, 64, 86
2, 425273, Note_on_c, 0, 65, 51
2, 425280, Note_on_c, 0, 62, 0
2, 425282, Control_c, 0, 64, 87
2, 425302, Control_c, 0, 64, 87
2, 425320, Note_on_c, 0, 65, 0
2, 425321, Control_c, 0, 64, 88
2, 425359, Control_c, 0, 64, 88
2, 425379, Control_c, 0, 64, 89
2, 425397, Control_c, 0, 64, 91
2, 425417, Control_c, 0, 64, 94
2, 425436, Control_c, 0, 64, 97
2, 425456, Control_c, 0, 64, 101
2, 425474, Control_c, 0, 64, 104
2, 425494, Control_c, 0, 64, 108
2, 425513, Control_c, 0, 64, 110
2, 425532, Control_c, 0, 64, 110
2, 425552, Control_c, 0, 64, 111
2, 425610, Control_c, 0, 64, 110
2, 425629, Control_c, 0, 64, 108
2, 425648, Control_c, 0, 64, 106
2, 425667, Control_c, 0, 64, 105
2, 425686, Control_c, 0, 64, 103
2, 425706, Control_c, 0, 64, 96
2, 425709, Note_on_c, 0, 77, 89
2, 425725, Control_c, 0, 64, 83
2, 425733, Note_on_c, 0, 70, 72
2, 425744, Control_c, 0, 64, 70
2, 425763, Control_c, 0, 64, 57
2, 425783, Control_c, 0, 64, 39
2, 425801, Control_c, 0, 64, 35
2, 425821, Control_c, 0, 64, 36
2, 425840, Control_c, 0, 64, 43
2, 425860, Control_c, 0, 64, 53
2, 425878, Control_c, 0, 64, 60
2, 425898, Control_c, 0, 64, 63
2, 425917, Control_c, 0, 64, 64
2, 425937, Control_c, 0, 64, 65
2, 425955, Control_c, 0, 64, 66
2, 425975, Control_c, 0, 64, 66
2, 426013, Control_c, 0, 64, 66
2, 426032, Control_c, 0, 64, 65
2, 426071, Control_c, 0, 64, 66
2, 426090, Control_c, 0, 64, 67
2, 426102, Note_on_c, 0, 46, 0
2, 426106, Note_on_c, 0, 58, 0
2, 426109, Control_c, 0, 64, 70
2, 426128, Control_c, 0, 64, 75
2, 426131, Note_on_c, 0, 59, 76
2, 426147, Control_c, 0, 64, 82
2, 426166, Control_c, 0, 64, 87
2, 426186, Control_c, 0, 64, 90
2, 426205, Control_c, 0, 64, 89
2, 426281, Control_c, 0, 64, 89
2, 426301, Control_c, 0, 64, 88
2, 426358, Control_c, 0, 64, 86
2, 426378, Control_c, 0, 64, 79
2, 426397, Control_c, 0, 64, 69
2, 426417, Control_c, 0, 64, 60
2, 426435, Control_c, 0, 64, 46
2, 426455, Control_c, 0, 64, 48
2, 426474, Control_c, 0, 64, 54
2, 426493, Control_c, 0, 64, 59
2, 426511, Control_c, 0, 64, 63
2, 426523, Note_on_c, 0, 58, 71
2, 426531, Control_c, 0, 64, 65
2, 426550, Control_c, 0, 64, 66
2, 426568, Control_c, 0, 64, 69
2, 426588, Control_c, 0, 64, 72
2, 426607, Control_c, 0, 64, 76
2, 426627, Control_c, 0, 64, 80
2, 426645, Control_c, 0, 64, 84
2, 426665, Control_c, 0, 64, 88
2, 426682, Note_on_c, 0, 59, 0
2, 426684, Control_c, 0, 64, 92
2, 426703, Control_c, 0, 64, 100
2, 426722, Control_c, 0, 64, 127
2, 426931, Note_on_c, 0, 56, 74
2, 426937, Note_on_c, 0, 71, 80
2, 426967, Note_on_c, 0, 58, 0
2, 426973, Note_on_c, 0, 77, 0
2, 426998, Note_on_c, 0, 70, 0
2, 427038, Note_on_c, 0, 71, 0
2, 427399, Note_on_c, 0, 56, 0
2, 427414, Note_on_c, 0, 54, 52
2, 427432, Control_c, 0, 64, 108
2, 427452, Control_c, 0, 64, 83
2, 427452, Note_on_c, 0, 82, 94
2, 427467, Note_on_c, 0, 70, 63
2, 427470, Control_c, 0, 64, 66
2, 427489, Control_c, 0, 64, 44
2, 427509, Control_c, 0, 64, 0
2, 427527, Control_c, 0, 64, 11
2, 427547, Control_c, 0, 64, 29
2, 427566, Control_c, 0, 64, 47
2, 427586, Control_c, 0, 64, 58
2, 427604, Control_c, 0, 64, 62
2, 427624, Control_c, 0, 64, 65
2, 427643, Control_c, 0, 64, 66
2, 427662, Control_c, 0, 64, 68
2, 427681, Control_c, 0, 64, 70
2, 427701, Control_c, 0, 64, 70
2, 427720, Control_c, 0, 64, 69
2, 427739, Control_c, 0, 64, 67
2, 427758, Control_c, 0, 64, 63
2, 427778, Control_c, 0, 64, 59
2, 427796, Control_c, 0, 64, 57
2, 427816, Control_c, 0, 64, 59
2, 427835, Control_c, 0, 64, 62
2, 427855, Control_c, 0, 64, 64
2, 427857, Note_on_c, 0, 56, 70
2, 427873, Control_c, 0, 64, 67
2, 427893, Control_c, 0, 64, 71
2, 427912, Control_c, 0, 64, 76
2, 427932, Control_c, 0, 64, 83
2, 427950, Control_c, 0, 64, 89
2, 427969, Control_c, 0, 64, 91
2, 427989, Control_c, 0, 64, 91
2, 428009, Control_c, 0, 64, 91
2, 428059, Note_on_c, 0, 54, 0
2, 428163, Control_c, 0, 64, 90
2, 428183, Control_c, 0, 64, 89
2, 428201, Control_c, 0, 64, 83
2, 428221, Control_c, 0, 64, 74
2, 428240, Control_c, 0, 64, 66
2, 428278, Control_c, 0, 64, 68
2, 428280, Note_on_c, 0, 58, 71
2, 428298, Control_c, 0, 64, 71
2, 428317, Control_c, 0, 64, 76
2, 428326, Note_on_c, 0, 82, 0
2, 428337, Control_c, 0, 64, 82
2, 428355, Control_c, 0, 64, 88
2, 428375, Control_c, 0, 64, 92
2, 428394, Control_c, 0, 64, 94
2, 428449, Control_c, 0, 64, 95
2, 428469, Control_c, 0, 64, 96
2, 428478, Note_on_c, 0, 56, 0
2, 428487, Control_c, 0, 64, 97
2, 428507, Control_c, 0, 64, 98
2, 428526, Control_c, 0, 64, 99
2, 428603, Control_c, 0, 64, 96
2, 428621, Note_on_c, 0, 70, 0
2, 428622, Control_c, 0, 64, 91
2, 428641, Control_c, 0, 64, 88
2, 428657, Note_on_c, 0, 68, 84
2, 428680, Control_c, 0, 64, 89
2, 428699, Control_c, 0, 64, 90
2, 428718, Control_c, 0, 64, 91
2, 428738, Control_c, 0, 64, 91
2, 428742, Note_on_c, 0, 58, 0
2, 428756, Control_c, 0, 64, 92
2, 428795, Control_c, 0, 64, 92
2, 428815, Control_c, 0, 64, 93
2, 429006, Control_c, 0, 64, 93
2, 429026, Control_c, 0, 64, 92
2, 429044, Control_c, 0, 64, 92
2, 429064, Control_c, 0, 64, 90
2, 429083, Control_c, 0, 64, 86
2, 429102, Control_c, 0, 64, 78
2, 429121, Control_c, 0, 64, 67
2, 429131, Note_on_c, 0, 51, 44
2, 429141, Control_c, 0, 64, 54
2, 429160, Control_c, 0, 64, 9
2, 429165, Note_on_c, 0, 66, 66
2, 429179, Control_c, 0, 64, 0
2, 429236, Control_c, 0, 64, 17
2, 429256, Control_c, 0, 64, 26
2, 429266, Note_on_c, 0, 68, 0
2, 429295, Control_c, 0, 64, 19
2, 429313, Control_c, 0, 64, 0
2, 429390, Control_c, 0, 64, 11
2, 429409, Control_c, 0, 64, 50
2, 429429, Control_c, 0, 64, 64
2, 429447, Control_c, 0, 64, 70
2, 429467, Control_c, 0, 64, 83
2, 429486, Control_c, 0, 64, 127
2, 429550, Note_on_c, 0, 53, 55
2, 429552, Note_on_c, 0, 66, 0
2, 429706, Note_on_c, 0, 54, 70
2, 429753, Note_on_c, 0, 53, 0
2, 429774, Note_on_c, 0, 51, 0
2, 429870, Control_c, 0, 64, 92
2, 429882, Note_on_c, 0, 56, 56
2, 429889, Control_c, 0, 64, 69
2, 429906, Note_on_c, 0, 54, 0
2, 429909, Control_c, 0, 64, 61
2, 429928, Control_c, 0, 64, 62
2, 429948, Control_c, 0, 64, 66
2, 429952, Note_on_c, 0, 83, 94
2, 429967, Control_c, 0, 64, 70
2, 429987, Control_c, 0, 64, 77
2, 430005, Control_c, 0, 64, 89
2, 430025, Control_c, 0, 64, 104
2, 430044, Control_c, 0, 64, 127
2, 430352, Control_c, 0, 64, 113
2, 430372, Control_c, 0, 64, 92
2, 430383, Note_on_c, 0, 68, 69
2, 430391, Control_c, 0, 64, 75
2, 430409, Control_c, 0, 64, 66
2, 430429, Control_c, 0, 64, 64
2, 430448, Control_c, 0, 64, 66
2, 430467, Control_c, 0, 64, 69
2, 430481, Note_on_c, 0, 83, 0
2, 430486, Control_c, 0, 64, 73
2, 430505, Note_on_c, 0, 68, 0
2, 430506, Control_c, 0, 64, 79
2, 430525, Control_c, 0, 64, 85
2, 430544, Control_c, 0, 64, 91
2, 430563, Control_c, 0, 64, 95
2, 430583, Control_c, 0, 64, 98
2, 430601, Control_c, 0, 64, 98
2, 430621, Control_c, 0, 64, 99
2, 430640, Control_c, 0, 64, 100
2, 430678, Control_c, 0, 64, 100
2, 430755, Control_c, 0, 64, 96
2, 430775, Control_c, 0, 64, 84
2, 430785, Note_on_c, 0, 82, 93
2, 430794, Control_c, 0, 64, 69
2, 430812, Note_on_c, 0, 70, 63
2, 430813, Control_c, 0, 64, 59
2, 430832, Control_c, 0, 64, 55
2, 430852, Control_c, 0, 64, 60
2, 430871, Control_c, 0, 64, 64
2, 430888, Control_c, 0, 64, 67
2, 430908, Control_c, 0, 64, 72
2, 430927, Control_c, 0, 64, 80
2, 430947, Control_c, 0, 64, 90
2, 430947, Note_on_c, 0, 56, 0
2, 430965, Control_c, 0, 64, 97
2, 430985, Control_c, 0, 64, 97
2, 431100, Control_c, 0, 64, 96
2, 431119, Control_c, 0, 64, 95
2, 431139, Control_c, 0, 64, 89
2, 431157, Control_c, 0, 64, 77
2, 431177, Control_c, 0, 64, 65
2, 431196, Control_c, 0, 64, 50
2, 431202, Note_on_c, 0, 54, 72
2, 431216, Control_c, 0, 64, 43
2, 431234, Control_c, 0, 64, 53
2, 431254, Control_c, 0, 64, 61
2, 431273, Control_c, 0, 64, 65
2, 431292, Control_c, 0, 64, 69
2, 431310, Control_c, 0, 64, 76
2, 431329, Control_c, 0, 64, 86
2, 431349, Control_c, 0, 64, 97
2, 431367, Control_c, 0, 64, 101
2, 431507, Note_on_c, 0, 54, 0
2, 431560, Control_c, 0, 64, 99
2, 431579, Control_c, 0, 64, 91
2, 431598, Control_c, 0, 64, 77
2, 431598, Note_on_c, 0, 53, 55
2, 431618, Control_c, 0, 64, 64
2, 431619, Note_on_c, 0, 80, 81
2, 431636, Control_c, 0, 64, 40
2, 431656, Control_c, 0, 64, 0
2, 431924, Control_c, 0, 64, 24
2, 431944, Control_c, 0, 64, 52
2, 431963, Control_c, 0, 64, 63
2, 431982, Control_c, 0, 64, 67
2, 432001, Control_c, 0, 64, 73
2, 432013, Note_on_c, 0, 62, 64
2, 432021, Control_c, 0, 64, 89
2, 432029, Note_on_c, 0, 53, 0
2, 432040, Control_c, 0, 64, 127
2, 432073, Note_on_c, 0, 70, 0
2, 432140, Note_on_c, 0, 62, 0
2, 432389, Control_c, 0, 64, 100
2, 432407, Control_c, 0, 64, 73
2, 432417, Note_on_c, 0, 63, 55
2, 432427, Control_c, 0, 64, 55
2, 432442, Note_on_c, 0, 78, 80
2, 432446, Control_c, 0, 64, 0
2, 432500, Note_on_c, 0, 80, 0
2, 432504, Control_c, 0, 64, 43
2, 432518, Note_on_c, 0, 82, 0
2, 432523, Control_c, 0, 64, 63
2, 432541, Control_c, 0, 64, 68
2, 432561, Control_c, 0, 64, 74
2, 432580, Control_c, 0, 64, 86
2, 432599, Control_c, 0, 64, 102
2, 432618, Control_c, 0, 64, 121
2, 432638, Control_c, 0, 64, 127
2, 432657, Control_c, 0, 64, 103
2, 432676, Control_c, 0, 64, 83
2, 432695, Control_c, 0, 64, 68
2, 432715, Control_c, 0, 64, 60
2, 432753, Control_c, 0, 64, 63
2, 432772, Control_c, 0, 64, 67
2, 432792, Control_c, 0, 64, 74
2, 432810, Control_c, 0, 64, 86
2, 432814, Note_on_c, 0, 65, 54
2, 432830, Control_c, 0, 64, 103
2, 432849, Control_c, 0, 64, 127
2, 432864, Note_on_c, 0, 63, 0
2, 432926, Control_c, 0, 64, 123
2, 432933, Note_on_c, 0, 65, 0
2, 432945, Control_c, 0, 64, 121
2, 432979, Note_on_c, 0, 66, 65
2, 432984, Control_c, 0, 64, 119
2, 433003, Control_c, 0, 64, 118
2, 433041, Control_c, 0, 64, 117
2, 433059, Note_on_c, 0, 66, 0
2, 433060, Control_c, 0, 64, 115
2, 433079, Control_c, 0, 64, 110
2, 433098, Control_c, 0, 64, 104
2, 433118, Control_c, 0, 64, 100
2, 433137, Control_c, 0, 64, 96
2, 433156, Control_c, 0, 64, 92
2, 433175, Control_c, 0, 64, 88
2, 433195, Control_c, 0, 64, 79
2, 433200, Note_on_c, 0, 68, 58
2, 433211, Note_on_c, 0, 80, 79
2, 433213, Control_c, 0, 64, 70
2, 433227, Note_on_c, 0, 65, 42
2, 433232, Control_c, 0, 64, 62
2, 433251, Control_c, 0, 64, 45
2, 433271, Control_c, 0, 64, 27
2, 433289, Control_c, 0, 64, 26
2, 433309, Control_c, 0, 64, 25
2, 433386, Control_c, 0, 64, 26
2, 433405, Control_c, 0, 64, 27
2, 433425, Control_c, 0, 64, 27
2, 433425, Note_on_c, 0, 78, 0
2, 433443, Control_c, 0, 64, 28
2, 433482, Control_c, 0, 64, 30
2, 433500, Control_c, 0, 64, 33
2, 433520, Control_c, 0, 64, 36
2, 433539, Control_c, 0, 64, 38
2, 433559, Control_c, 0, 64, 41
2, 433577, Control_c, 0, 64, 44
2, 433597, Control_c, 0, 64, 50
2, 433608, Note_on_c, 0, 63, 50
2, 433616, Control_c, 0, 64, 57
2, 433616, Note_on_c, 0, 65, 0
2, 433635, Control_c, 0, 64, 61
2, 433654, Control_c, 0, 64, 63
2, 433674, Control_c, 0, 64, 64
2, 433693, Control_c, 0, 64, 66
2, 433712, Control_c, 0, 64, 69
2, 433731, Control_c, 0, 64, 73
2, 433751, Control_c, 0, 64, 80
2, 433770, Control_c, 0, 64, 84
2, 433790, Control_c, 0, 64, 85
2, 433848, Note_on_c, 0, 68, 0
2, 433886, Control_c, 0, 64, 84
2, 433896, Note_on_c, 0, 63, 0
2, 433905, Control_c, 0, 64, 84
2, 433924, Control_c, 0, 64, 83
2, 433944, Control_c, 0, 64, 82
2, 433963, Control_c, 0, 64, 80
2, 433981, Control_c, 0, 64, 78
2, 434001, Control_c, 0, 64, 76
2, 434020, Control_c, 0, 64, 75
2, 434031, Note_on_c, 0, 62, 44
2, 434039, Control_c, 0, 64, 73
2, 434043, Note_on_c, 0, 82, 70
2, 434058, Control_c, 0, 64, 71
2, 434078, Control_c, 0, 64, 69
2, 434097, Control_c, 0, 64, 67
2, 434116, Control_c, 0, 64, 66
2, 434135, Control_c, 0, 64, 66
2, 434155, Control_c, 0, 64, 65
2, 434174, Control_c, 0, 64, 64
2, 434193, Control_c, 0, 64, 61
2, 434212, Control_c, 0, 64, 58
2, 434232, Control_c, 0, 64, 55
2, 434235, Note_on_c, 0, 80, 0
2, 434250, Control_c, 0, 64, 51
2, 434270, Control_c, 0, 64, 47
2, 434289, Control_c, 0, 64, 43
2, 434309, Control_c, 0, 64, 39
2, 434327, Control_c, 0, 64, 35
2, 434347, Control_c, 0, 64, 34
2, 434366, Control_c, 0, 64, 33
2, 434432, Note_on_c, 0, 66, 43
2, 434443, Control_c, 0, 64, 38
2, 434446, Note_on_c, 0, 62, 0
2, 434458, Note_on_c, 0, 63, 38
2, 434461, Control_c, 0, 64, 50
2, 434481, Control_c, 0, 64, 59
2, 434500, Control_c, 0, 64, 62
2, 434519, Control_c, 0, 64, 63
2, 434538, Control_c, 0, 64, 64
2, 434558, Control_c, 0, 64, 66
2, 434577, Control_c, 0, 64, 67
2, 434596, Control_c, 0, 64, 69
2, 434615, Control_c, 0, 64, 71
2, 434635, Control_c, 0, 64, 73
2, 434654, Control_c, 0, 64, 73
2, 434789, Control_c, 0, 64, 73
2, 434827, Control_c, 0, 64, 72
2, 434843, Note_on_c, 0, 63, 0
2, 434846, Control_c, 0, 64, 71
2, 434870, Note_on_c, 0, 66, 0
2, 434884, Control_c, 0, 64, 71
2, 434893, Note_on_c, 0, 65, 45
2, 434904, Control_c, 0, 64, 70
2, 435154, Control_c, 0, 67, 8
2, 435173, Control_c, 0, 64, 70
2, 435193, Control_c, 0, 64, 67
2, 435193, Control_c, 0, 67, 8
2, 435211, Control_c, 0, 64, 60
2, 435211, Control_c, 0, 67, 10
2, 435231, Control_c, 0, 64, 35
2, 435231, Control_c, 0, 67, 14
2, 435250, Control_c, 0, 64, 0
2, 435250, Control_c, 0, 67, 23
2, 435270, Control_c, 0, 67, 34
2, 435288, Control_c, 0, 67, 46
2, 435295, Note_on_c, 0, 61, 33
2, 435308, Control_c, 0, 64, 43
2, 435308, Control_c, 0, 67, 57
2, 435327, Control_c, 0, 64, 61
2, 435327, Control_c, 0, 67, 67
2, 435346, Control_c, 0, 64, 65
2, 435346, Control_c, 0, 67, 75
2, 435365, Control_c, 0, 64, 68
2, 435365, Control_c, 0, 67, 83
2, 435385, Control_c, 0, 64, 72
2, 435385, Control_c, 0, 67, 88
2, 435404, Control_c, 0, 64, 79
2, 435404, Control_c, 0, 67, 91
2, 435422, Control_c, 0, 64, 85
2, 435422, Control_c, 0, 67, 93
2, 435436, Note_on_c, 0, 65, 0
2, 435442, Control_c, 0, 64, 87
2, 435442, Control_c, 0, 67, 93
2, 435461, Control_c, 0, 64, 87
2, 435480, Control_c, 0, 64, 86
2, 435499, Control_c, 0, 64, 86
2, 435499, Control_c, 0, 67, 94
2, 435519, Control_c, 0, 64, 85
2, 435538, Control_c, 0, 64, 84
2, 435557, Control_c, 0, 64, 84
2, 435584, Note_on_c, 0, 61, 0
2, 435634, Control_c, 0, 64, 83
2, 435653, Control_c, 0, 64, 81
2, 435675, Control_c, 0, 64, 76
2, 435694, Control_c, 0, 64, 70
2, 435704, Note_on_c, 0, 75, 50
2, 435705, Note_on_c, 0, 67, 45
2, 435714, Control_c, 0, 64, 64
2, 435733, Control_c, 0, 64, 59
2, 435752, Control_c, 0, 64, 57
2, 435771, Control_c, 0, 64, 60
2, 435791, Control_c, 0, 64, 62
2, 435791, Control_c, 0, 67, 93
2, 435809, Control_c, 0, 64, 64
2, 435829, Control_c, 0, 64, 65
2, 435829, Control_c, 0, 67, 93
2, 435848, Control_c, 0, 64, 66
2, 435868, Control_c, 0, 64, 67
2, 435886, Control_c, 0, 64, 68
2, 435906, Control_c, 0, 64, 67
2, 435906, Control_c, 0, 67, 92
2, 435945, Control_c, 0, 67, 92
2, 436002, Control_c, 0, 64, 66
2, 436020, Control_c, 0, 64, 63
2, 436025, Note_on_c, 0, 67, 0
2, 436040, Control_c, 0, 64, 59
2, 436059, Control_c, 0, 64, 59
2, 436079, Control_c, 0, 64, 60
2, 436079, Control_c, 0, 67, 91
2, 436086, Note_on_c, 0, 63, 43
2, 436094, Control_c, 0, 64, 62
2, 436094, Control_c, 0, 67, 91
2, 436101, Note_on_c, 0, 58, 43
2, 436114, Control_c, 0, 64, 63
2, 436133, Control_c, 0, 64, 64
2, 436153, Control_c, 0, 64, 66
2, 436171, Control_c, 0, 64, 67
2, 436171, Control_c, 0, 67, 90
2, 436191, Control_c, 0, 64, 68
2, 436210, Control_c, 0, 64, 69
2, 436287, Control_c, 0, 64, 68
2, 436293, Note_on_c, 0, 63, 0
2, 436296, Note_on_c, 0, 64, 37
2, 436306, Control_c, 0, 64, 68
2, 436345, Control_c, 0, 64, 67
2, 436364, Control_c, 0, 64, 66
2, 436379, Note_on_c, 0, 64, 0
2, 436382, Control_c, 0, 64, 66
2, 436382, Control_c, 0, 67, 91
2, 436402, Control_c, 0, 64, 65
2, 436402, Control_c, 0, 67, 91
2, 436421, Control_c, 0, 64, 64
2, 436421, Control_c, 0, 67, 92
2, 436440, Control_c, 0, 64, 63
2, 436440, Control_c, 0, 67, 92
2, 436459, Control_c, 0, 64, 62
2, 436459, Control_c, 0, 67, 93
2, 436479, Control_c, 0, 64, 60
2, 436498, Control_c, 0, 64, 55
2, 436498, Control_c, 0, 67, 93
2, 436502, Note_on_c, 0, 63, 38
2, 436517, Control_c, 0, 64, 48
2, 436517, Control_c, 0, 67, 94
2, 436536, Control_c, 0, 64, 38
2, 436536, Control_c, 0, 67, 94
2, 436556, Control_c, 0, 64, 29
2, 436556, Control_c, 0, 67, 96
2, 436574, Control_c, 0, 64, 22
2, 436574, Control_c, 0, 67, 97
2, 436594, Control_c, 0, 64, 13
2, 436594, Control_c, 0, 67, 106
2, 436613, Control_c, 0, 64, 0
2, 436613, Control_c, 0, 67, 117
2, 436635, Control_c, 0, 67, 127
2, 436769, Control_c, 0, 64, 27
2, 436789, Control_c, 0, 64, 46
2, 436808, Control_c, 0, 64, 57
2, 436828, Control_c, 0, 64, 61
2, 436846, Control_c, 0, 64, 63
2, 436866, Control_c, 0, 64, 64
2, 436885, Control_c, 0, 64, 65
2, 436900, Note_on_c, 0, 61, 41
2, 436905, Control_c, 0, 64, 66
2, 436923, Control_c, 0, 64, 68
2, 436942, Control_c, 0, 64, 71
2, 436962, Control_c, 0, 64, 77
2, 436980, Control_c, 0, 64, 85
2, 436981, Note_on_c, 0, 63, 0
2, 436995, Note_on_c, 0, 82, 0
2, 437000, Control_c, 0, 64, 93
2, 437019, Control_c, 0, 64, 95
2, 437039, Control_c, 0, 64, 96
2, 437045, Note_on_c, 0, 75, 0
2, 437112, Control_c, 0, 64, 95
2, 437125, Note_on_c, 0, 58, 0
2, 437130, Control_c, 0, 64, 94
2, 437150, Control_c, 0, 64, 93
2, 437169, Control_c, 0, 64, 92
2, 437189, Control_c, 0, 64, 90
2, 437207, Control_c, 0, 64, 88
2, 437219, Note_on_c, 0, 61, 0
2, 437227, Control_c, 0, 64, 86
2, 437246, Control_c, 0, 64, 84
2, 437265, Control_c, 0, 64, 83
2, 437284, Control_c, 0, 64, 81
2, 437291, Note_on_c, 0, 63, 36
2, 437298, Note_on_c, 0, 59, 40
2, 437304, Control_c, 0, 64, 78
2, 437309, Note_on_c, 0, 80, 67
2, 437323, Control_c, 0, 64, 73
2, 437341, Control_c, 0, 64, 68
2, 437361, Control_c, 0, 64, 64
2, 437380, Control_c, 0, 64, 60
2, 437400, Control_c, 0, 64, 55
2, 437418, Control_c, 0, 64, 48
2, 437438, Control_c, 0, 64, 42
2, 437457, Control_c, 0, 64, 36
2, 437476, Control_c, 0, 64, 35
2, 437495, Control_c, 0, 64, 35
2, 437534, Control_c, 0, 64, 34
2, 437553, Control_c, 0, 64, 33
2, 437612, Control_c, 0, 67, 126
2, 437632, Control_c, 0, 64, 34
2, 437632, Control_c, 0, 67, 125
2, 437651, Control_c, 0, 64, 41
2, 437651, Control_c, 0, 67, 122
2, 437670, Control_c, 0, 64, 51
2, 437670, Control_c, 0, 67, 119
2, 437689, Control_c, 0, 64, 59
2, 437689, Control_c, 0, 67, 116
2, 437706, Note_on_c, 0, 59, 0
2, 437709, Control_c, 0, 64, 62
2, 437709, Control_c, 0, 67, 113
2, 437719, Note_on_c, 0, 64, 48
2, 437728, Control_c, 0, 64, 64
2, 437728, Control_c, 0, 67, 108
2, 437734, Note_on_c, 0, 61, 28
2, 437740, Note_on_c, 0, 63, 0
2, 437747, Control_c, 0, 64, 65
2, 437747, Control_c, 0, 67, 105
2, 437766, Control_c, 0, 64, 66
2, 437766, Control_c, 0, 67, 103
2, 437786, Control_c, 0, 64, 66
2, 437786, Control_c, 0, 67, 103
2, 437804, Control_c, 0, 64, 67
2, 437862, Control_c, 0, 67, 103
2, 437900, Control_c, 0, 64, 66
2, 437900, Control_c, 0, 67, 104
2, 437920, Control_c, 0, 67, 104
2, 437958, Control_c, 0, 67, 105
2, 437977, Control_c, 0, 67, 105
2, 437997, Control_c, 0, 64, 66
2, 437997, Control_c, 0, 67, 106
2, 438014, Control_c, 0, 64, 65
2, 438034, Control_c, 0, 64, 63
2, 438053, Control_c, 0, 64, 57
2, 438073, Control_c, 0, 64, 47
2, 438082, Note_on_c, 0, 61, 0
2, 438091, Control_c, 0, 64, 40
2, 438111, Control_c, 0, 64, 38
2, 438120, Note_on_c, 0, 63, 37
2, 438130, Control_c, 0, 64, 42
2, 438134, Note_on_c, 0, 59, 42
2, 438146, Note_on_c, 0, 64, 0
2, 438150, Control_c, 0, 64, 54
2, 438168, Control_c, 0, 64, 60
2, 438188, Control_c, 0, 64, 63
2, 438207, Control_c, 0, 64, 65
2, 438226, Control_c, 0, 64, 66
2, 438245, Control_c, 0, 64, 67
2, 438265, Control_c, 0, 64, 67
2, 438284, Control_c, 0, 64, 68
2, 438302, Control_c, 0, 64, 68
2, 438302, Control_c, 0, 67, 105
2, 438322, Control_c, 0, 64, 69
2, 438341, Control_c, 0, 64, 69
2, 438360, Control_c, 0, 64, 70
2, 438360, Control_c, 0, 67, 105
2, 438379, Control_c, 0, 64, 70
2, 438399, Control_c, 0, 64, 71
2, 438437, Control_c, 0, 64, 68
2, 438456, Control_c, 0, 64, 62
2, 438476, Control_c, 0, 64, 35
2, 438476, Control_c, 0, 67, 104
2, 438494, Control_c, 0, 64, 0
2, 438510, Note_on_c, 0, 61, 48
2, 438511, Note_on_c, 0, 63, 0
2, 438550, Note_on_c, 0, 58, 37
2, 438555, Control_c, 0, 64, 39
2, 438573, Control_c, 0, 64, 63
2, 438593, Control_c, 0, 64, 67
2, 438593, Control_c, 0, 67, 105
2, 438612, Control_c, 0, 64, 71
2, 438612, Control_c, 0, 67, 105
2, 438631, Control_c, 0, 64, 76
2, 438631, Control_c, 0, 67, 106
2, 438650, Control_c, 0, 64, 80
2, 438659, Note_on_c, 0, 61, 0
2, 438670, Control_c, 0, 64, 83
2, 438670, Note_on_c, 0, 59, 0
2, 438689, Control_c, 0, 64, 84
2, 438697, Note_on_c, 0, 58, 0
2, 438708, Control_c, 0, 67, 105
2, 438747, Control_c, 0, 64, 85
2, 438765, Control_c, 0, 64, 85
2, 438785, Control_c, 0, 64, 86
2, 438804, Control_c, 0, 64, 87
2, 438824, Control_c, 0, 67, 106
2, 438861, Control_c, 0, 67, 106
2, 438881, Control_c, 0, 64, 86
2, 438893, Note_on_c, 0, 59, 46
2, 438899, Control_c, 0, 64, 82
2, 438906, Note_on_c, 0, 56, 50
2, 438919, Control_c, 0, 64, 72
2, 438919, Control_c, 0, 67, 106
2, 438938, Control_c, 0, 64, 61
2, 438958, Control_c, 0, 64, 26
2, 438974, Control_c, 0, 64, 0
2, 438994, Control_c, 0, 67, 105
2, 439033, Control_c, 0, 64, 44
2, 439051, Control_c, 0, 64, 61
2, 439051, Control_c, 0, 67, 104
2, 439071, Control_c, 0, 64, 64
2, 439071, Control_c, 0, 67, 104
2, 439090, Control_c, 0, 64, 66
2, 439090, Control_c, 0, 67, 103
2, 439110, Control_c, 0, 64, 68
2, 439110, Control_c, 0, 67, 102
2, 439128, Control_c, 0, 64, 69
2, 439128, Control_c, 0, 67, 101
2, 439148, Control_c, 0, 67, 100
2, 439167, Control_c, 0, 67, 96
2, 439186, Control_c, 0, 67, 87
2, 439205, Control_c, 0, 67, 77
2, 439225, Control_c, 0, 67, 67
2, 439244, Control_c, 0, 64, 69
2, 439244, Control_c, 0, 67, 58
2, 439262, Control_c, 0, 64, 71
2, 439262, Control_c, 0, 67, 53
2, 439282, Control_c, 0, 64, 72
2, 439282, Control_c, 0, 67, 52
2, 439301, Control_c, 0, 64, 74
2, 439305, Note_on_c, 0, 61, 57
2, 439320, Control_c, 0, 64, 75
2, 439334, Note_on_c, 0, 54, 44
2, 439339, Control_c, 0, 64, 76
2, 439339, Control_c, 0, 67, 52
2, 439359, Control_c, 0, 64, 78
2, 439378, Control_c, 0, 64, 81
2, 439378, Control_c, 0, 67, 53
2, 439390, Note_on_c, 0, 59, 0
2, 439397, Control_c, 0, 64, 83
2, 439412, Note_on_c, 0, 56, 0
2, 439416, Control_c, 0, 64, 85
2, 439416, Control_c, 0, 67, 53
2, 439436, Control_c, 0, 64, 85
2, 439436, Control_c, 0, 67, 54
2, 439444, Note_on_c, 0, 54, 0
2, 439454, Control_c, 0, 67, 54
2, 439474, Control_c, 0, 67, 55
2, 439505, Note_on_c, 0, 61, 0
2, 439515, Control_c, 0, 67, 55
2, 439534, Control_c, 0, 67, 56
2, 439592, Control_c, 0, 64, 85
2, 439611, Control_c, 0, 64, 84
2, 439611, Control_c, 0, 67, 56
2, 439649, Control_c, 0, 64, 84
2, 439649, Control_c, 0, 67, 57
2, 439669, Control_c, 0, 64, 83
2, 439669, Control_c, 0, 67, 57
2, 439688, Control_c, 0, 64, 80
2, 439688, Control_c, 0, 67, 58
2, 439705, Note_on_c, 0, 78, 68
2, 439708, Control_c, 0, 64, 77
2, 439714, Note_on_c, 0, 63, 47
2, 439718, Note_on_c, 0, 52, 43
2, 439726, Control_c, 0, 64, 71
2, 439746, Control_c, 0, 64, 64
2, 439765, Control_c, 0, 64, 55
2, 439785, Control_c, 0, 64, 43
2, 439803, Control_c, 0, 64, 32
2, 439822, Control_c, 0, 64, 27
2, 439842, Control_c, 0, 64, 25
2, 439866, Note_on_c, 0, 80, 0
2, 439880, Control_c, 0, 64, 26
2, 439899, Control_c, 0, 64, 29
2, 439919, Control_c, 0, 64, 36
2, 439935, Control_c, 0, 64, 42
2, 439953, Control_c, 0, 64, 50
2, 439953, Control_c, 0, 67, 57
2, 439972, Control_c, 0, 64, 55
2, 439992, Control_c, 0, 64, 58
2, 440010, Control_c, 0, 64, 61
2, 440030, Control_c, 0, 64, 63
2, 440030, Control_c, 0, 67, 58
2, 440049, Control_c, 0, 64, 64
2, 440049, Control_c, 0, 67, 59
2, 440069, Control_c, 0, 64, 67
2, 440069, Control_c, 0, 67, 62
2, 440087, Control_c, 0, 64, 71
2, 440087, Control_c, 0, 67, 67
2, 440107, Control_c, 0, 64, 77
2, 440107, Control_c, 0, 67, 72
2, 440126, Control_c, 0, 64, 85
2, 440126, Control_c, 0, 67, 85
2, 440133, Note_on_c, 0, 51, 41
2, 440145, Control_c, 0, 64, 94
2, 440145, Control_c, 0, 67, 105
2, 440164, Control_c, 0, 64, 101
2, 440164, Control_c, 0, 67, 127
2, 440184, Control_c, 0, 64, 105
2, 440203, Control_c, 0, 64, 108
2, 440217, Note_on_c, 0, 63, 0
2, 440221, Control_c, 0, 64, 109
2, 440277, Note_on_c, 0, 51, 0
2, 440277, Note_on_c, 0, 52, 0
2, 440318, Control_c, 0, 64, 108
2, 440337, Control_c, 0, 64, 108
2, 440356, Control_c, 0, 64, 106
2, 440375, Control_c, 0, 64, 105
2, 440395, Control_c, 0, 64, 103
2, 440414, Control_c, 0, 64, 101
2, 440433, Control_c, 0, 64, 98
2, 440452, Control_c, 0, 64, 96
2, 440472, Control_c, 0, 64, 95
2, 440491, Control_c, 0, 64, 93
2, 440511, Control_c, 0, 64, 91
2, 440530, Control_c, 0, 64, 88
2, 440550, Control_c, 0, 64, 83
2, 440568, Control_c, 0, 64, 77
2, 440580, Note_on_c, 0, 56, 44
2, 440588, Control_c, 0, 64, 70
2, 440595, Note_on_c, 0, 49, 36
2, 440601, Note_on_c, 0, 76, 50
2, 440607, Control_c, 0, 64, 63
2, 440626, Control_c, 0, 64, 41
2, 440645, Control_c, 0, 64, 0
2, 440760, Control_c, 0, 64, 17
2, 440761, Note_on_c, 0, 78, 0
2, 440779, Control_c, 0, 64, 43
2, 440799, Control_c, 0, 64, 56
2, 440818, Control_c, 0, 64, 60
2, 440837, Control_c, 0, 64, 61
2, 440856, Control_c, 0, 64, 63
2, 440876, Control_c, 0, 64, 64
2, 440894, Control_c, 0, 64, 65
2, 440913, Control_c, 0, 64, 68
2, 440932, Control_c, 0, 64, 71
2, 440952, Control_c, 0, 64, 77
2, 440970, Control_c, 0, 64, 83
2, 440990, Control_c, 0, 64, 87
2, 441009, Control_c, 0, 64, 88
2, 441013, Note_on_c, 0, 49, 0
2, 441029, Control_c, 0, 64, 89
2, 441031, Note_on_c, 0, 61, 55
2, 441049, Note_on_c, 0, 56, 0
2, 441213, Note_on_c, 0, 59, 52
2, 441220, Control_c, 0, 64, 88
2, 441222, Note_on_c, 0, 61, 0
2, 441240, Control_c, 0, 64, 88
2, 441278, Control_c, 0, 64, 87
2, 441297, Control_c, 0, 64, 86
2, 441316, Control_c, 0, 64, 85
2, 441324, Note_on_c, 0, 59, 0
2, 441335, Control_c, 0, 64, 84
2, 441355, Control_c, 0, 64, 83
2, 441374, Control_c, 0, 64, 81
2, 441393, Control_c, 0, 64, 79
2, 441412, Control_c, 0, 64, 75
2, 441423, Note_on_c, 0, 61, 50
2, 441432, Control_c, 0, 64, 69
2, 441443, Note_on_c, 0, 58, 39
2, 441451, Control_c, 0, 64, 63
2, 441471, Control_c, 0, 64, 57
2, 441490, Control_c, 0, 64, 53
2, 441510, Control_c, 0, 64, 52
2, 441528, Control_c, 0, 64, 51
2, 441548, Control_c, 0, 64, 50
2, 441605, Control_c, 0, 64, 51
2, 441759, Control_c, 0, 64, 51
2, 441778, Control_c, 0, 64, 52
2, 441797, Control_c, 0, 64, 54
2, 441816, Control_c, 0, 64, 56
2, 441831, Note_on_c, 0, 56, 51
2, 441836, Control_c, 0, 64, 59
2, 441854, Control_c, 0, 64, 61
2, 441856, Note_on_c, 0, 58, 0
2, 441873, Control_c, 0, 64, 63
2, 441892, Control_c, 0, 64, 65
2, 441912, Control_c, 0, 64, 66
2, 441930, Control_c, 0, 64, 67
2, 441950, Control_c, 0, 64, 69
2, 441969, Control_c, 0, 64, 70
2, 441989, Control_c, 0, 64, 70
2, 442103, Control_c, 0, 64, 70
2, 442161, Control_c, 0, 64, 69
2, 442180, Control_c, 0, 64, 69
2, 442200, Control_c, 0, 64, 68
2, 442218, Control_c, 0, 64, 67
2, 442236, Note_on_c, 0, 56, 0
2, 442238, Control_c, 0, 64, 65
2, 442240, Note_on_c, 0, 75, 53
2, 442253, Note_on_c, 0, 55, 46
2, 442257, Control_c, 0, 64, 63
2, 442276, Control_c, 0, 64, 59
2, 442294, Note_on_c, 0, 61, 0
2, 442295, Control_c, 0, 64, 56
2, 442314, Note_on_c, 0, 76, 0
2, 442315, Control_c, 0, 64, 53
2, 442334, Control_c, 0, 64, 52
2, 442353, Control_c, 0, 64, 51
2, 442563, Control_c, 0, 64, 52
2, 442582, Control_c, 0, 64, 55
2, 442602, Control_c, 0, 64, 59
2, 442604, Note_on_c, 0, 55, 0
2, 442620, Control_c, 0, 64, 62
2, 442640, Control_c, 0, 64, 63
2, 442651, Note_on_c, 0, 59, 53
2, 442659, Control_c, 0, 64, 65
2, 442661, Note_on_c, 0, 56, 45
2, 442679, Control_c, 0, 64, 66
2, 442697, Control_c, 0, 64, 67
2, 442717, Control_c, 0, 64, 68
2, 442736, Control_c, 0, 64, 69
2, 442755, Control_c, 0, 64, 70
2, 442774, Control_c, 0, 64, 71
2, 442947, Control_c, 0, 64, 70
2, 443004, Control_c, 0, 64, 70
2, 443023, Control_c, 0, 64, 69
2, 443042, Control_c, 0, 64, 69
2, 443061, Control_c, 0, 64, 68
2, 443076, Note_on_c, 0, 58, 48
2, 443081, Control_c, 0, 64, 67
2, 443099, Control_c, 0, 64, 66
2, 443113, Note_on_c, 0, 56, 0
2, 443119, Control_c, 0, 64, 64
2, 443138, Control_c, 0, 64, 62
2, 443145, Note_on_c, 0, 59, 0
2, 443158, Control_c, 0, 64, 59
2, 443176, Control_c, 0, 64, 55
2, 443196, Control_c, 0, 64, 52
2, 443215, Control_c, 0, 64, 50
2, 443235, Control_c, 0, 64, 47
2, 443253, Control_c, 0, 64, 45
2, 443273, Control_c, 0, 64, 45
2, 443311, Control_c, 0, 64, 45
2, 443330, Control_c, 0, 64, 47
2, 443350, Control_c, 0, 64, 52
2, 443370, Control_c, 0, 64, 58
2, 443390, Control_c, 0, 64, 61
2, 443409, Control_c, 0, 64, 64
2, 443429, Control_c, 0, 64, 66
2, 443447, Control_c, 0, 64, 68
2, 443467, Control_c, 0, 64, 72
2, 443483, Note_on_c, 0, 54, 48
2, 443486, Control_c, 0, 64, 78
2, 443505, Control_c, 0, 64, 86
2, 443524, Control_c, 0, 64, 93
2, 443543, Control_c, 0, 64, 95
2, 443563, Control_c, 0, 64, 96
2, 443609, Note_on_c, 0, 58, 0
2, 443676, Note_on_c, 0, 54, 0
2, 443697, Control_c, 0, 64, 95
2, 443716, Control_c, 0, 64, 94
2, 443735, Control_c, 0, 64, 93
2, 443755, Control_c, 0, 64, 91
2, 443773, Control_c, 0, 64, 90
2, 443793, Control_c, 0, 64, 88
2, 443812, Control_c, 0, 64, 87
2, 443832, Control_c, 0, 64, 86
2, 443850, Control_c, 0, 64, 85
2, 443870, Control_c, 0, 64, 84
2, 443889, Control_c, 0, 64, 82
2, 443909, Control_c, 0, 64, 81
2, 443927, Control_c, 0, 64, 80
2, 443947, Control_c, 0, 64, 79
2, 443966, Control_c, 0, 64, 78
2, 443982, Note_on_c, 0, 56, 59
2, 443985, Control_c, 0, 64, 76
2, 444004, Control_c, 0, 64, 72
2, 444016, Note_on_c, 0, 53, 44
2, 444023, Control_c, 0, 64, 68
2, 444043, Control_c, 0, 64, 64
2, 444061, Control_c, 0, 64, 59
2, 444081, Control_c, 0, 64, 55
2, 444100, Control_c, 0, 64, 53
2, 444120, Control_c, 0, 64, 51
2, 444138, Control_c, 0, 64, 50
2, 444158, Control_c, 0, 64, 50
2, 444254, Control_c, 0, 64, 50
2, 444273, Control_c, 0, 64, 51
2, 444292, Control_c, 0, 64, 51
2, 444312, Control_c, 0, 64, 52
2, 444330, Control_c, 0, 64, 53
2, 444350, Control_c, 0, 64, 54
2, 444369, Control_c, 0, 64, 54
2, 444389, Control_c, 0, 64, 55
2, 444407, Control_c, 0, 64, 56
2, 444427, Control_c, 0, 64, 57
2, 444427, Control_c, 0, 67, 127
2, 444446, Control_c, 0, 64, 58
2, 444465, Control_c, 0, 64, 59
2, 444480, Note_on_c, 0, 71, 59
2, 444484, Control_c, 0, 64, 60
2, 444503, Control_c, 0, 64, 61
2, 444523, Control_c, 0, 64, 62
2, 444541, Control_c, 0, 64, 62
2, 444561, Control_c, 0, 64, 63
2, 444580, Control_c, 0, 64, 63
2, 444600, Control_c, 0, 64, 64
2, 444618, Control_c, 0, 67, 126
2, 444715, Control_c, 0, 67, 126
2, 444752, Control_c, 0, 67, 125
2, 444809, Control_c, 0, 64, 63
2, 444809, Control_c, 0, 67, 125
2, 444868, Control_c, 0, 64, 63
2, 444886, Control_c, 0, 64, 62
2, 444906, Control_c, 0, 64, 61
2, 444908, Note_on_c, 0, 68, 64
2, 444925, Control_c, 0, 64, 60
2, 444945, Control_c, 0, 64, 59
2, 444963, Control_c, 0, 64, 58
2, 444971, Note_on_c, 0, 71, 0
2, 444982, Control_c, 0, 64, 56
2, 445002, Control_c, 0, 64, 55
2, 445020, Control_c, 0, 64, 54
2, 445040, Control_c, 0, 64, 53
2, 445058, Note_on_c, 0, 75, 0
2, 445059, Control_c, 0, 64, 52
2, 445079, Control_c, 0, 67, 124
2, 445097, Control_c, 0, 64, 52
2, 445117, Control_c, 0, 64, 51
2, 445117, Control_c, 0, 67, 124
2, 445136, Control_c, 0, 67, 123
2, 445155, Control_c, 0, 67, 122
2, 445174, Control_c, 0, 64, 51
2, 445174, Control_c, 0, 67, 120
2, 445194, Control_c, 0, 67, 115
2, 445213, Control_c, 0, 64, 50
2, 445213, Control_c, 0, 67, 110
2, 445232, Control_c, 0, 67, 104
2, 445251, Control_c, 0, 67, 97
2, 445271, Control_c, 0, 67, 92
2, 445290, Control_c, 0, 64, 51
2, 445290, Control_c, 0, 67, 89
2, 445310, Control_c, 0, 64, 52
2, 445310, Control_c, 0, 67, 87
2, 445326, Note_on_c, 0, 58, 58
2, 445329, Control_c, 0, 64, 54
2, 445329, Control_c, 0, 67, 85
2, 445349, Control_c, 0, 64, 55
2, 445349, Control_c, 0, 67, 84
2, 445367, Control_c, 0, 64, 57
2, 445367, Control_c, 0, 67, 83
2, 445387, Control_c, 0, 64, 59
2, 445387, Control_c, 0, 67, 83
2, 445406, Control_c, 0, 64, 60
2, 445425, Control_c, 0, 64, 61
2, 445444, Control_c, 0, 64, 62
2, 445463, Control_c, 0, 64, 62
2, 445463, Control_c, 0, 67, 83
2, 445483, Control_c, 0, 64, 63
2, 445521, Control_c, 0, 64, 62
2, 445540, Control_c, 0, 64, 60
2, 445560, Control_c, 0, 64, 57
2, 445578, Control_c, 0, 64, 50
2, 445598, Control_c, 0, 64, 46
2, 445617, Control_c, 0, 64, 46
2, 445636, Control_c, 0, 64, 48
2, 445655, Control_c, 0, 64, 53
2, 445675, Control_c, 0, 64, 59
2, 445675, Control_c, 0, 67, 83
2, 445692, Control_c, 0, 64, 63
2, 445711, Control_c, 0, 64, 65
2, 445711, Control_c, 0, 67, 82
2, 445725, Note_on_c, 0, 58, 0
2, 445730, Control_c, 0, 64, 67
2, 445732, Note_on_c, 0, 59, 68
2, 445750, Control_c, 0, 64, 68
2, 445750, Control_c, 0, 67, 82
2, 445769, Control_c, 0, 64, 71
2, 445788, Control_c, 0, 64, 72
2, 445788, Control_c, 0, 67, 81
2, 445807, Control_c, 0, 64, 74
2, 445807, Control_c, 0, 67, 80
2, 445827, Control_c, 0, 64, 74
2, 445827, Control_c, 0, 67, 79
2, 445845, Control_c, 0, 67, 77
2, 445864, Control_c, 0, 64, 75
2, 445884, Control_c, 0, 64, 77
2, 445903, Control_c, 0, 64, 78
2, 445922, Control_c, 0, 64, 79
2, 445922, Control_c, 0, 67, 78
2, 445941, Control_c, 0, 67, 79
2, 445947, Note_on_c, 0, 53, 0
2, 445979, Control_c, 0, 67, 79
2, 445979, Note_on_c, 0, 68, 0
2, 445999, Control_c, 0, 67, 80
2, 446028, Note_on_c, 0, 56, 0
2, 446038, Control_c, 0, 64, 79
2, 446038, Control_c, 0, 67, 81
2, 446056, Control_c, 0, 67, 82
2, 446093, Note_on_c, 0, 59, 0
2, 446095, Control_c, 0, 64, 78
2, 446133, Control_c, 0, 64, 78
2, 446133, Control_c, 0, 67, 82
2, 446153, Control_c, 0, 64, 77
2, 446172, Control_c, 0, 64, 75
2, 446191, Control_c, 0, 64, 70
2, 446193, Note_on_c, 0, 58, 38
2, 446206, Note_on_c, 0, 54, 39
2, 446210, Control_c, 0, 64, 63
2, 446218, Note_on_c, 0, 70, 74
2, 446230, Control_c, 0, 64, 53
2, 446249, Control_c, 0, 64, 47
2, 446288, Control_c, 0, 64, 50
2, 446308, Control_c, 0, 64, 55
2, 446308, Control_c, 0, 67, 82
2, 446326, Control_c, 0, 64, 61
2, 446346, Control_c, 0, 64, 63
2, 446365, Control_c, 0, 64, 65
2, 446384, Control_c, 0, 64, 67
2, 446403, Control_c, 0, 64, 69
2, 446422, Control_c, 0, 64, 71
2, 446442, Control_c, 0, 64, 72
2, 446442, Control_c, 0, 67, 81
2, 446480, Control_c, 0, 67, 81
2, 446557, Control_c, 0, 64, 72
2, 446557, Control_c, 0, 67, 81
2, 446616, Note_on_c, 0, 58, 0
2, 446634, Control_c, 0, 64, 72
2, 446634, Control_c, 0, 67, 81
2, 446649, Control_c, 0, 64, 70
2, 446654, Note_on_c, 0, 56, 46
2, 446662, Note_on_c, 0, 54, 0
2, 446669, Control_c, 0, 64, 63
2, 446669, Control_c, 0, 67, 80
2, 446674, Note_on_c, 0, 53, 40
2, 446687, Control_c, 0, 64, 48
2, 446687, Control_c, 0, 67, 80
2, 446707, Control_c, 0, 64, 24
2, 446707, Control_c, 0, 67, 79
2, 446708, Note_on_c, 0, 71, 66
2, 446726, Control_c, 0, 64, 21
2, 446726, Control_c, 0, 67, 79
2, 446744, Control_c, 0, 64, 32
2, 446744, Control_c, 0, 67, 78
2, 446764, Control_c, 0, 64, 52
2, 446783, Control_c, 0, 64, 63
2, 446803, Control_c, 0, 64, 67
2, 446821, Control_c, 0, 64, 73
2, 446822, Note_on_c, 0, 70, 0
2, 446841, Control_c, 0, 64, 81
2, 446860, Control_c, 0, 64, 88
2, 446880, Control_c, 0, 64, 91
2, 446888, Note_on_c, 0, 56, 0
2, 446918, Control_c, 0, 64, 90
2, 446921, Note_on_c, 0, 53, 0
2, 446937, Control_c, 0, 64, 89
2, 446956, Control_c, 0, 64, 89
2, 446956, Control_c, 0, 67, 79
2, 446975, Control_c, 0, 64, 88
2, 446995, Control_c, 0, 64, 88
2, 447014, Control_c, 0, 64, 87
2, 447014, Control_c, 0, 67, 79
2, 447033, Control_c, 0, 64, 86
2, 447052, Control_c, 0, 64, 84
2, 447052, Control_c, 0, 67, 80
2, 447072, Control_c, 0, 64, 81
2, 447090, Control_c, 0, 64, 75
2, 447090, Control_c, 0, 67, 80
2, 447101, Note_on_c, 0, 54, 49
2, 447109, Note_on_c, 0, 51, 40
2, 447110, Control_c, 0, 64, 67
2, 447129, Control_c, 0, 64, 58
2, 447149, Control_c, 0, 64, 34
2, 447167, Control_c, 0, 64, 0
2, 447229, Control_c, 0, 64, 24
2, 447248, Control_c, 0, 64, 49
2, 447268, Control_c, 0, 64, 62
2, 447268, Control_c, 0, 67, 81
2, 447286, Control_c, 0, 64, 65
2, 447286, Control_c, 0, 67, 82
2, 447306, Control_c, 0, 64, 67
2, 447325, Control_c, 0, 64, 69
2, 447344, Control_c, 0, 64, 70
2, 447363, Control_c, 0, 64, 72
2, 447402, Control_c, 0, 67, 82
2, 447420, Control_c, 0, 64, 71
2, 447420, Control_c, 0, 67, 84
2, 447421, Note_on_c, 0, 51, 0
2, 447440, Control_c, 0, 67, 85
2, 447443, Note_on_c, 0, 54, 0
2, 447459, Control_c, 0, 64, 71
2, 447459, Control_c, 0, 67, 87
2, 447479, Control_c, 0, 67, 88
2, 447497, Control_c, 0, 64, 70
2, 447497, Control_c, 0, 67, 90
2, 447517, Control_c, 0, 64, 70
2, 447517, Control_c, 0, 67, 91
2, 447536, Control_c, 0, 64, 69
2, 447536, Control_c, 0, 67, 92
2, 447537, Note_on_c, 0, 53, 48
2, 447555, Control_c, 0, 64, 68
2, 447555, Control_c, 0, 67, 94
2, 447573, Note_on_c, 0, 50, 34
2, 447574, Control_c, 0, 64, 66
2, 447574, Control_c, 0, 67, 97
2, 447594, Control_c, 0, 64, 63
2, 447594, Control_c, 0, 67, 101
2, 447614, Control_c, 0, 64, 60
2, 447614, Control_c, 0, 67, 104
2, 447632, Control_c, 0, 64, 57
2, 447632, Control_c, 0, 67, 105
2, 447651, Control_c, 0, 64, 52
2, 447651, Control_c, 0, 67, 106
2, 447671, Control_c, 0, 64, 49
2, 447689, Control_c, 0, 64, 48
2, 447728, Control_c, 0, 64, 48
2, 447748, Control_c, 0, 64, 51
2, 447766, Control_c, 0, 64, 56
2, 447786, Control_c, 0, 64, 59
2, 447786, Control_c, 0, 67, 105
2, 447805, Control_c, 0, 64, 61
2, 447805, Control_c, 0, 67, 105
2, 447824, Control_c, 0, 64, 62
2, 447824, Control_c, 0, 67, 104
2, 447843, Control_c, 0, 64, 63
2, 447862, Control_c, 0, 64, 63
2, 447862, Control_c, 0, 67, 104
2, 447882, Control_c, 0, 67, 103
2, 447900, Control_c, 0, 67, 103
2, 447959, Control_c, 0, 67, 102
2, 447963, Note_on_c, 0, 68, 46
2, 447997, Control_c, 0, 67, 102
2, 448054, Control_c, 0, 67, 101
2, 448131, Control_c, 0, 64, 63
2, 448201, Note_on_c, 0, 71, 0
2, 448267, Control_c, 0, 64, 62
2, 448286, Control_c, 0, 64, 58
2, 448304, Control_c, 0, 64, 50
2, 448324, Control_c, 0, 64, 43
2, 448343, Control_c, 0, 64, 42
2, 448343, Control_c, 0, 67, 101
2, 448363, Control_c, 0, 64, 45
2, 448373, Note_on_c, 0, 65, 40
2, 448381, Control_c, 0, 64, 52
2, 448401, Control_c, 0, 64, 58
2, 448420, Control_c, 0, 64, 62
2, 448440, Control_c, 0, 64, 63
2, 448458, Control_c, 0, 64, 64
2, 448612, Control_c, 0, 64, 63
2, 448632, Control_c, 0, 64, 63
2, 448650, Control_c, 0, 64, 62
2, 448670, Control_c, 0, 64, 61
2, 448689, Control_c, 0, 64, 58
2, 448709, Control_c, 0, 64, 52
2, 448710, Note_on_c, 0, 68, 0
2, 448727, Control_c, 0, 64, 47
2, 448747, Control_c, 0, 64, 46
2, 448763, Note_on_c, 0, 53, 0
2, 448766, Control_c, 0, 64, 47
2, 448784, Control_c, 0, 64, 51
2, 448793, Note_on_c, 0, 54, 43
2, 448804, Control_c, 0, 64, 55
2, 448823, Control_c, 0, 64, 59
2, 448843, Control_c, 0, 64, 61
2, 448861, Control_c, 0, 64, 62
2, 448861, Control_c, 0, 67, 102
2, 448881, Control_c, 0, 67, 102
2, 448900, Control_c, 0, 67, 103
2, 448920, Control_c, 0, 67, 104
2, 448938, Control_c, 0, 67, 105
2, 448958, Control_c, 0, 64, 61
2, 448958, Control_c, 0, 67, 107
2, 448977, Control_c, 0, 64, 60
2, 448977, Control_c, 0, 67, 108
2, 448996, Control_c, 0, 64, 58
2, 448996, Control_c, 0, 67, 111
2, 449015, Control_c, 0, 64, 52
2, 449015, Control_c, 0, 67, 120
2, 449035, Control_c, 0, 64, 27
2, 449035, Control_c, 0, 67, 127
2, 449054, Control_c, 0, 64, 0
2, 449232, Note_on_c, 0, 56, 54
2, 449284, Control_c, 0, 67, 126
2, 449303, Control_c, 0, 64, 34
2, 449303, Control_c, 0, 67, 123
2, 449323, Control_c, 0, 64, 58
2, 449323, Control_c, 0, 67, 120
2, 449341, Control_c, 0, 64, 64
2, 449341, Control_c, 0, 67, 114
2, 449346, Note_on_c, 0, 54, 0
2, 449361, Control_c, 0, 64, 66
2, 449361, Control_c, 0, 67, 108
2, 449380, Control_c, 0, 64, 70
2, 449380, Control_c, 0, 67, 100
2, 449400, Control_c, 0, 64, 76
2, 449400, Control_c, 0, 67, 91
2, 449418, Control_c, 0, 64, 85
2, 449418, Control_c, 0, 67, 82
2, 449438, Control_c, 0, 64, 96
2, 449438, Control_c, 0, 67, 76
2, 449457, Control_c, 0, 64, 103
2, 449457, Control_c, 0, 67, 72
2, 449476, Control_c, 0, 64, 111
2, 449483, Note_on_c, 0, 50, 0
2, 449495, Control_c, 0, 64, 127
2, 449568, Note_on_c, 0, 56, 0
2, 449630, Control_c, 0, 64, 103
2, 449630, Control_c, 0, 67, 72
2, 449648, Note_on_c, 0, 51, 44
2, 449648, Note_on_c, 0, 54, 51
2, 449649, Control_c, 0, 64, 84
2, 449669, Control_c, 0, 64, 70
2, 449671, Note_on_c, 0, 66, 67
2, 449687, Control_c, 0, 64, 61
2, 449691, Note_on_c, 0, 65, 0
2, 449707, Control_c, 0, 64, 50
2, 449726, Control_c, 0, 64, 50
2, 449744, Control_c, 0, 64, 55
2, 449764, Control_c, 0, 64, 61
2, 449783, Control_c, 0, 64, 63
2, 449803, Control_c, 0, 64, 65
2, 449821, Control_c, 0, 64, 67
2, 449841, Control_c, 0, 64, 71
2, 449860, Control_c, 0, 64, 76
2, 449860, Control_c, 0, 67, 73
2, 449880, Control_c, 0, 64, 81
2, 449898, Control_c, 0, 64, 85
2, 449898, Control_c, 0, 67, 73
2, 449914, Note_on_c, 0, 51, 0
2, 449918, Control_c, 0, 64, 87
2, 449918, Control_c, 0, 67, 74
2, 449937, Control_c, 0, 67, 75
2, 449942, Note_on_c, 0, 54, 0
2, 449956, Control_c, 0, 67, 75
2, 449975, Control_c, 0, 67, 76
2, 449995, Control_c, 0, 67, 77
2, 450014, Control_c, 0, 64, 86
2, 450033, Control_c, 0, 67, 77
2, 450052, Control_c, 0, 64, 86
2, 450052, Control_c, 0, 67, 78
2, 450075, Control_c, 0, 67, 78
2, 450086, Note_on_c, 0, 53, 45
2, 450093, Control_c, 0, 64, 84
2, 450093, Control_c, 0, 67, 79
2, 450104, Note_on_c, 0, 50, 42
2, 450104, Note_on_c, 0, 68, 69
2, 450113, Control_c, 0, 64, 82
2, 450132, Control_c, 0, 64, 76
2, 450151, Control_c, 0, 64, 69
2, 450170, Control_c, 0, 64, 63
2, 450190, Control_c, 0, 64, 56
2, 450209, Control_c, 0, 64, 51
2, 450209, Control_c, 0, 67, 79
2, 450228, Control_c, 0, 64, 52
2, 450236, Note_on_c, 0, 66, 0
2, 450247, Control_c, 0, 64, 56
2, 450247, Control_c, 0, 67, 80
2, 450267, Control_c, 0, 64, 60
2, 450285, Control_c, 0, 64, 62
2, 450285, Control_c, 0, 67, 80
2, 450304, Control_c, 0, 64, 62
2, 450324, Control_c, 0, 67, 81
2, 450343, Control_c, 0, 64, 62
2, 450343, Control_c, 0, 67, 81
2, 450362, Control_c, 0, 64, 60
2, 450381, Control_c, 0, 64, 57
2, 450381, Control_c, 0, 67, 82
2, 450401, Control_c, 0, 64, 49
2, 450419, Control_c, 0, 64, 32
2, 450439, Control_c, 0, 64, 0
2, 450458, Control_c, 0, 67, 82
2, 450474, Note_on_c, 0, 50, 0
2, 450478, Control_c, 0, 67, 83
2, 450489, Note_on_c, 0, 51, 49
2, 450504, Note_on_c, 0, 48, 48
2, 450511, Control_c, 0, 67, 83
2, 450530, Control_c, 0, 64, 26
2, 450533, Note_on_c, 0, 53, 0
2, 450550, Control_c, 0, 64, 44
2, 450569, Control_c, 0, 64, 55
2, 450569, Control_c, 0, 67, 83
2, 450588, Control_c, 0, 64, 59
2, 450588, Control_c, 0, 67, 82
2, 450607, Control_c, 0, 64, 62
2, 450627, Control_c, 0, 64, 64
2, 450627, Control_c, 0, 67, 81
2, 450645, Control_c, 0, 64, 66
2, 450645, Control_c, 0, 67, 80
2, 450664, Control_c, 0, 64, 69
2, 450664, Control_c, 0, 67, 79
2, 450684, Control_c, 0, 64, 72
2, 450684, Control_c, 0, 67, 79
2, 450703, Control_c, 0, 64, 77
2, 450722, Control_c, 0, 64, 81
2, 450722, Control_c, 0, 67, 78
2, 450741, Control_c, 0, 64, 83
2, 450761, Control_c, 0, 64, 84
2, 450761, Control_c, 0, 67, 79
2, 450779, Control_c, 0, 64, 85
2, 450799, Control_c, 0, 64, 86
2, 450818, Control_c, 0, 64, 88
2, 450838, Control_c, 0, 64, 88
2, 450895, Control_c, 0, 67, 79
2, 450953, Control_c, 0, 64, 88
2, 450982, Note_on_c, 0, 48, 0
2, 450991, Control_c, 0, 64, 87
2, 451010, Control_c, 0, 64, 86
2, 451022, Note_on_c, 0, 50, 55
2, 451030, Control_c, 0, 64, 85
2, 451030, Control_c, 0, 67, 80
2, 451039, Note_on_c, 0, 51, 0
2, 451040, Note_on_c, 0, 46, 44
2, 451049, Control_c, 0, 64, 82
2, 451069, Control_c, 0, 64, 77
2, 451088, Control_c, 0, 64, 70
2, 451108, Control_c, 0, 64, 64
2, 451126, Control_c, 0, 64, 58
2, 451145, Control_c, 0, 64, 55
2, 451165, Control_c, 0, 64, 54
2, 451184, Control_c, 0, 64, 52
2, 451203, Control_c, 0, 64, 51
2, 451203, Control_c, 0, 67, 79
2, 451222, Control_c, 0, 64, 50
2, 451242, Control_c, 0, 64, 49
2, 451260, Control_c, 0, 67, 79
2, 451319, Control_c, 0, 64, 49
2, 451337, Control_c, 0, 64, 50
2, 451337, Control_c, 0, 67, 79
2, 451357, Control_c, 0, 64, 50
2, 451376, Control_c, 0, 64, 51
2, 451376, Control_c, 0, 67, 80
2, 451395, Control_c, 0, 64, 51
2, 451414, Control_c, 0, 67, 82
2, 451434, Control_c, 0, 64, 52
2, 451434, Control_c, 0, 67, 82
2, 451453, Control_c, 0, 64, 52
2, 451453, Control_c, 0, 67, 84
2, 451472, Control_c, 0, 64, 53
2, 451472, Control_c, 0, 67, 85
2, 451491, Control_c, 0, 64, 55
2, 451491, Control_c, 0, 67, 87
2, 451511, Control_c, 0, 64, 56
2, 451511, Control_c, 0, 67, 88
2, 451529, Control_c, 0, 64, 57
2, 451529, Control_c, 0, 67, 92
2, 451549, Control_c, 0, 67, 99
2, 451568, Control_c, 0, 67, 106
2, 451574, Note_on_c, 0, 65, 40
2, 451588, Control_c, 0, 67, 115
2, 451606, Control_c, 0, 67, 127
2, 451625, Control_c, 0, 64, 56
2, 451625, Control_c, 0, 67, 127
2, 451702, Control_c, 0, 64, 56
2, 451739, Note_on_c, 0, 68, 0
2, 451875, Control_c, 0, 64, 55
2, 451971, Note_on_c, 0, 62, 33
2, 452069, Control_c, 0, 64, 55
2, 452074, Note_on_c, 0, 65, 0
2, 452183, Control_c, 0, 64, 54
2, 452241, Control_c, 0, 64, 54
2, 452280, Control_c, 0, 64, 53
2, 452298, Control_c, 0, 64, 53
2, 452318, Control_c, 0, 64, 52
2, 452337, Control_c, 0, 64, 52
2, 452356, Control_c, 0, 64, 51
2, 452375, Control_c, 0, 64, 50
2, 452395, Control_c, 0, 64, 50
2, 452400, Note_on_c, 0, 51, 40
2, 452413, Control_c, 0, 64, 49
2, 452450, Note_on_c, 0, 50, 0
2, 452471, Control_c, 0, 64, 51
2, 452489, Control_c, 0, 64, 55
2, 452509, Control_c, 0, 64, 58
2, 452528, Control_c, 0, 64, 60
2, 452548, Control_c, 0, 64, 61
2, 452566, Control_c, 0, 64, 61
2, 452605, Control_c, 0, 64, 60
2, 452624, Control_c, 0, 64, 58
2, 452643, Control_c, 0, 64, 53
2, 452662, Control_c, 0, 64, 44
2, 452682, Control_c, 0, 64, 22
2, 452700, Control_c, 0, 64, 0
2, 452739, Control_c, 0, 64, 19
2, 452759, Control_c, 0, 64, 54
2, 452777, Control_c, 0, 64, 66
2, 452797, Control_c, 0, 64, 76
2, 452816, Control_c, 0, 64, 106
2, 452835, Control_c, 0, 64, 127
2, 452835, Note_on_c, 0, 53, 46
2, 452894, Note_on_c, 0, 62, 0
2, 452917, Note_on_c, 0, 51, 0
2, 452963, Note_on_c, 0, 46, 0
2, 453164, Control_c, 0, 64, 112
2, 453182, Control_c, 0, 64, 94
2, 453202, Control_c, 0, 64, 78
2, 453221, Control_c, 0, 64, 66
2, 453240, Control_c, 0, 64, 55
2, 453243, Note_on_c, 0, 53, 0
2, 453259, Control_c, 0, 64, 44
2, 453269, Note_on_c, 0, 44, 37
2, 453275, Note_on_c, 0, 62, 39
2, 453279, Control_c, 0, 64, 46
2, 453298, Control_c, 0, 64, 54
2, 453317, Control_c, 0, 64, 60
2, 453336, Control_c, 0, 64, 63
2, 453356, Control_c, 0, 64, 65
2, 453373, Control_c, 0, 64, 66
2, 453393, Control_c, 0, 64, 68
2, 453412, Control_c, 0, 64, 70
2, 453432, Control_c, 0, 64, 71
2, 453450, Control_c, 0, 64, 72
2, 453470, Control_c, 0, 64, 72
2, 453489, Control_c, 0, 64, 73
2, 453509, Control_c, 0, 64, 73
2, 453566, Control_c, 0, 64, 74
2, 453584, Control_c, 0, 64, 73
2, 453604, Control_c, 0, 64, 73
2, 453623, Control_c, 0, 64, 70
2, 453643, Control_c, 0, 64, 65
2, 453661, Control_c, 0, 64, 61
2, 453670, Note_on_c, 0, 44, 0
2, 453681, Control_c, 0, 64, 56
2, 453690, Note_on_c, 0, 42, 42
2, 453690, Note_on_c, 0, 63, 49
2, 453700, Note_on_c, 0, 54, 39
2, 453720, Control_c, 0, 64, 59
2, 453738, Control_c, 0, 64, 62
2, 453758, Control_c, 0, 64, 64
2, 453762, Note_on_c, 0, 62, 0
2, 453777, Control_c, 0, 64, 66
2, 453796, Control_c, 0, 64, 69
2, 453815, Control_c, 0, 64, 72
2, 453835, Control_c, 0, 64, 77
2, 453854, Control_c, 0, 64, 79
2, 453892, Control_c, 0, 64, 78
2, 453930, Note_on_c, 0, 54, 0
2, 453952, Control_c, 0, 64, 78
2, 454048, Control_c, 0, 64, 76
2, 454067, Control_c, 0, 64, 72
2, 454086, Control_c, 0, 64, 66
2, 454092, Note_on_c, 0, 42, 0
2, 454105, Control_c, 0, 64, 60
2, 454111, Note_on_c, 0, 65, 47
2, 454117, Note_on_c, 0, 56, 55
2, 454117, Note_on_c, 0, 63, 0
2, 454125, Control_c, 0, 64, 55
2, 454128, Note_on_c, 0, 41, 33
2, 454163, Control_c, 0, 64, 59
2, 454182, Control_c, 0, 64, 62
2, 454201, Control_c, 0, 64, 64
2, 454220, Control_c, 0, 64, 67
2, 454233, Note_on_c, 0, 56, 0
2, 454240, Control_c, 0, 64, 70
2, 454259, Control_c, 0, 64, 72
2, 454278, Control_c, 0, 64, 75
2, 454297, Control_c, 0, 64, 76
2, 454308, Note_on_c, 0, 65, 0
2, 454507, Note_on_c, 0, 41, 0
2, 454508, Control_c, 0, 64, 76
2, 454527, Control_c, 0, 64, 73
2, 454535, Note_on_c, 0, 39, 44
2, 454545, Control_c, 0, 64, 69
2, 454561, Note_on_c, 0, 66, 53
2, 454565, Control_c, 0, 64, 63
2, 454584, Control_c, 0, 64, 55
2, 454604, Control_c, 0, 64, 41
2, 454614, Note_on_c, 0, 58, 20
2, 454622, Control_c, 0, 64, 34
2, 454642, Control_c, 0, 64, 36
2, 454661, Control_c, 0, 64, 50
2, 454680, Control_c, 0, 64, 59
2, 454699, Control_c, 0, 64, 63
2, 454719, Control_c, 0, 64, 64
2, 454738, Control_c, 0, 64, 66
2, 454757, Control_c, 0, 64, 67
2, 454776, Control_c, 0, 64, 69
2, 454796, Control_c, 0, 64, 72
2, 454814, Control_c, 0, 64, 73
2, 454834, Control_c, 0, 64, 75
2, 454843, Note_on_c, 0, 58, 0
2, 454853, Control_c, 0, 64, 75
2, 454951, Control_c, 0, 64, 76
2, 454972, Note_on_c, 0, 58, 48
2, 454988, Note_on_c, 0, 49, 47
2, 454994, Note_on_c, 0, 67, 54
2, 455009, Control_c, 0, 64, 77
2, 455028, Control_c, 0, 64, 78
2, 455040, Note_on_c, 0, 39, 0
2, 455047, Control_c, 0, 64, 81
2, 455067, Control_c, 0, 64, 84
2, 455085, Control_c, 0, 64, 88
2, 455097, Note_on_c, 0, 66, 0
2, 455104, Control_c, 0, 64, 91
2, 455124, Control_c, 0, 64, 93
2, 455129, Note_on_c, 0, 67, 0
2, 455141, Note_on_c, 0, 58, 0
2, 455143, Control_c, 0, 64, 94
2, 455219, Control_c, 0, 64, 94
2, 455258, Control_c, 0, 64, 95
2, 455294, Control_c, 0, 64, 96
2, 455352, Control_c, 0, 64, 93
2, 455352, Control_c, 0, 67, 127
2, 455370, Control_c, 0, 64, 83
2, 455390, Control_c, 0, 64, 72
2, 455390, Control_c, 0, 67, 126
2, 455404, Note_on_c, 0, 68, 71
2, 455409, Control_c, 0, 64, 64
2, 455409, Control_c, 0, 67, 125
2, 455415, Note_on_c, 0, 47, 57
2, 455429, Control_c, 0, 64, 56
2, 455429, Control_c, 0, 67, 123
2, 455430, Note_on_c, 0, 59, 55
2, 455447, Control_c, 0, 64, 53
2, 455447, Control_c, 0, 67, 119
2, 455467, Control_c, 0, 64, 56
2, 455467, Control_c, 0, 67, 117
2, 455486, Control_c, 0, 64, 61
2, 455486, Control_c, 0, 67, 115
2, 455488, Note_on_c, 0, 49, 0
2, 455504, Control_c, 0, 64, 64
2, 455504, Control_c, 0, 67, 115
2, 455524, Control_c, 0, 64, 66
2, 455524, Control_c, 0, 67, 114
2, 455543, Control_c, 0, 64, 68
2, 455543, Control_c, 0, 67, 113
2, 455563, Control_c, 0, 64, 71
2, 455581, Control_c, 0, 64, 73
2, 455601, Control_c, 0, 64, 75
2, 455601, Control_c, 0, 67, 113
2, 455620, Control_c, 0, 64, 75
2, 455658, Control_c, 0, 64, 76
2, 455658, Control_c, 0, 67, 112
2, 455697, Control_c, 0, 64, 76
2, 455716, Control_c, 0, 64, 77
2, 455755, Control_c, 0, 64, 76
2, 455755, Control_c, 0, 67, 113
2, 455772, Note_on_c, 0, 59, 0
2, 455774, Control_c, 0, 64, 71
2, 455793, Control_c, 0, 64, 65
2, 455812, Control_c, 0, 64, 61
2, 455816, Note_on_c, 0, 46, 61
2, 455828, Note_on_c, 0, 70, 70
2, 455829, Control_c, 0, 64, 58
2, 455829, Control_c, 0, 67, 112
2, 455842, Note_on_c, 0, 61, 62
2, 455848, Control_c, 0, 64, 59
2, 455866, Note_on_c, 0, 47, 0
2, 455868, Control_c, 0, 64, 63
2, 455887, Control_c, 0, 64, 66
2, 455907, Control_c, 0, 64, 71
2, 455907, Control_c, 0, 67, 113
2, 455925, Control_c, 0, 64, 80
2, 455945, Control_c, 0, 64, 92
2, 455947, Note_on_c, 0, 68, 0
2, 455964, Control_c, 0, 64, 100
2, 455964, Control_c, 0, 67, 113
2, 455965, Note_on_c, 0, 61, 0
2, 455983, Control_c, 0, 64, 100
2, 456002, Control_c, 0, 64, 100
2, 456005, Note_on_c, 0, 70, 0
2, 456022, Control_c, 0, 64, 98
2, 456041, Control_c, 0, 64, 97
2, 456060, Control_c, 0, 64, 96
2, 456079, Control_c, 0, 64, 94
2, 456117, Control_c, 0, 67, 114
2, 456137, Control_c, 0, 64, 95
2, 456137, Control_c, 0, 67, 115
2, 456156, Control_c, 0, 64, 96
2, 456176, Control_c, 0, 64, 96
2, 456194, Control_c, 0, 64, 97
2, 456213, Control_c, 0, 64, 98
2, 456250, Control_c, 0, 64, 97
2, 456268, Control_c, 0, 64, 93
2, 456280, Note_on_c, 0, 71, 80
2, 456281, Note_on_c, 0, 44, 66
2, 456287, Control_c, 0, 64, 84
2, 456307, Control_c, 0, 64, 71
2, 456312, Note_on_c, 0, 63, 56
2, 456319, Note_on_c, 0, 46, 0
2, 456326, Control_c, 0, 64, 61
2, 456345, Control_c, 0, 64, 36
2, 456364, Control_c, 0, 64, 0
2, 456422, Control_c, 0, 67, 114
2, 456441, Control_c, 0, 67, 114
2, 456461, Control_c, 0, 64, 45
2, 456461, Control_c, 0, 67, 113
2, 456479, Control_c, 0, 64, 58
2, 456479, Control_c, 0, 67, 113
2, 456499, Control_c, 0, 64, 62
2, 456518, Control_c, 0, 64, 64
2, 456537, Control_c, 0, 64, 66
2, 456556, Control_c, 0, 64, 68
2, 456556, Control_c, 0, 67, 113
2, 456576, Control_c, 0, 64, 71
2, 456595, Control_c, 0, 64, 76
2, 456595, Control_c, 0, 67, 113
2, 456613, Control_c, 0, 64, 79
2, 456613, Note_on_c, 0, 63, 0
2, 456633, Control_c, 0, 64, 80
2, 456633, Control_c, 0, 67, 111
2, 456652, Control_c, 0, 64, 76
2, 456652, Control_c, 0, 67, 109
2, 456672, Control_c, 0, 64, 69
2, 456672, Control_c, 0, 67, 104
2, 456690, Control_c, 0, 64, 64
2, 456690, Control_c, 0, 67, 93
2, 456710, Control_c, 0, 64, 62
2, 456710, Control_c, 0, 67, 75
2, 456722, Note_on_c, 0, 72, 79
2, 456729, Control_c, 0, 64, 63
2, 456729, Control_c, 0, 67, 56
2, 456730, Note_on_c, 0, 63, 67
2, 456731, Note_on_c, 0, 54, 76
2, 456748, Control_c, 0, 64, 65
2, 456748, Control_c, 0, 67, 43
2, 456767, Control_c, 0, 64, 67
2, 456767, Control_c, 0, 67, 34
2, 456787, Control_c, 0, 64, 70
2, 456787, Control_c, 0, 67, 31
2, 456792, Note_on_c, 0, 71, 0
2, 456807, Control_c, 0, 64, 72
2, 456807, Control_c, 0, 67, 29
2, 456826, Control_c, 0, 64, 73
2, 456826, Control_c, 0, 67, 24
2, 456845, Control_c, 0, 67, 17
2, 456865, Control_c, 0, 67, 9
2, 456876, Note_on_c, 0, 63, 0
2, 456883, Control_c, 0, 64, 74
2, 456883, Control_c, 0, 67, 0
2, 456899, Note_on_c, 0, 72, 0
2, 457037, Control_c, 0, 64, 74
2, 457076, Control_c, 0, 64, 74
2, 457114, Control_c, 0, 64, 74
2, 457133, Control_c, 0, 64, 75
2, 457152, Control_c, 0, 64, 77
2, 457186, Note_on_c, 0, 53, 79
2, 457191, Control_c, 0, 64, 73
2, 457191, Note_on_c, 0, 54, 0
2, 457193, Note_on_c, 0, 74, 83
2, 457210, Control_c, 0, 64, 66
2, 457212, Note_on_c, 0, 65, 62
2, 457229, Control_c, 0, 64, 53
2, 457248, Control_c, 0, 64, 0
2, 457287, Control_c, 0, 64, 24
2, 457306, Control_c, 0, 64, 48
2, 457325, Control_c, 0, 64, 59
2, 457345, Control_c, 0, 64, 62
2, 457363, Control_c, 0, 64, 63
2, 457383, Control_c, 0, 64, 64
2, 457402, Control_c, 0, 64, 64
2, 457422, Control_c, 0, 64, 65
2, 457440, Control_c, 0, 64, 66
2, 457460, Control_c, 0, 64, 66
2, 457473, Note_on_c, 0, 65, 0
2, 457479, Control_c, 0, 64, 67
2, 457556, Control_c, 0, 64, 67
2, 457573, Note_on_c, 0, 44, 0
2, 457574, Control_c, 0, 64, 68
2, 457594, Control_c, 0, 64, 69
2, 457613, Control_c, 0, 64, 70
2, 457671, Control_c, 0, 64, 70
2, 457709, Control_c, 0, 64, 71
2, 457719, Note_on_c, 0, 51, 74
2, 457724, Note_on_c, 0, 75, 89
2, 457728, Control_c, 0, 64, 70
2, 457730, Note_on_c, 0, 66, 76
2, 457748, Control_c, 0, 64, 68
2, 457760, Note_on_c, 0, 74, 0
2, 457761, Note_on_c, 0, 53, 0
2, 457765, Control_c, 0, 64, 64
2, 457784, Control_c, 0, 64, 56
2, 457803, Control_c, 0, 64, 41
2, 457823, Control_c, 0, 64, 26
2, 457861, Control_c, 0, 64, 36
2, 457880, Control_c, 0, 64, 50
2, 457900, Control_c, 0, 64, 58
2, 457918, Control_c, 0, 64, 61
2, 457938, Control_c, 0, 64, 62
2, 457957, Control_c, 0, 64, 63
2, 457977, Control_c, 0, 64, 64
2, 457995, Control_c, 0, 64, 65
2, 458014, Control_c, 0, 64, 66
2, 458034, Control_c, 0, 64, 67
2, 458052, Control_c, 0, 64, 67
2, 458072, Control_c, 0, 64, 68
2, 458111, Control_c, 0, 64, 68
2, 458129, Control_c, 0, 64, 69
2, 458149, Control_c, 0, 64, 70
2, 458167, Control_c, 0, 64, 71
2, 458182, Note_on_c, 0, 66, 0
2, 458187, Control_c, 0, 64, 72
2, 458202, Note_on_c, 0, 75, 0
2, 458244, Control_c, 0, 64, 71
2, 458282, Control_c, 0, 64, 71
2, 458302, Control_c, 0, 64, 70
2, 458303, Note_on_c, 0, 58, 74
2, 458306, Note_on_c, 0, 75, 92
2, 458321, Control_c, 0, 64, 69
2, 458322, Note_on_c, 0, 65, 67
2, 458340, Control_c, 0, 64, 67
2, 458359, Control_c, 0, 64, 63
2, 458379, Control_c, 0, 64, 57
2, 458397, Control_c, 0, 64, 51
2, 458417, Control_c, 0, 64, 46
2, 458436, Control_c, 0, 64, 41
2, 458455, Control_c, 0, 64, 40
2, 458477, Note_on_c, 0, 51, 0
2, 458513, Control_c, 0, 64, 40
2, 458531, Control_c, 0, 64, 41
2, 458551, Control_c, 0, 64, 42
2, 458570, Control_c, 0, 64, 44
2, 458590, Control_c, 0, 64, 46
2, 458608, Control_c, 0, 64, 47
2, 458628, Control_c, 0, 64, 47
2, 458685, Control_c, 0, 64, 48
2, 458705, Control_c, 0, 64, 48
2, 458725, Control_c, 0, 64, 49
2, 458744, Control_c, 0, 64, 49
2, 458763, Control_c, 0, 64, 51
2, 458783, Control_c, 0, 64, 53
2, 458786, Note_on_c, 0, 71, 77
2, 458802, Control_c, 0, 64, 57
2, 458821, Control_c, 0, 64, 60
2, 458840, Control_c, 0, 64, 62
2, 458860, Control_c, 0, 64, 63
2, 458878, Control_c, 0, 64, 64
2, 458898, Control_c, 0, 64, 65
2, 458917, Control_c, 0, 64, 67
2, 458937, Control_c, 0, 64, 68
2, 458955, Control_c, 0, 64, 70
2, 458964, Note_on_c, 0, 75, 0
2, 458974, Control_c, 0, 64, 72
2, 458994, Control_c, 0, 64, 74
2, 459012, Control_c, 0, 64, 75
2, 459032, Control_c, 0, 64, 76
2, 459035, Note_on_c, 0, 71, 0
2, 459163, Control_c, 0, 64, 75
2, 459222, Control_c, 0, 64, 75
2, 459298, Control_c, 0, 64, 74
2, 459312, Note_on_c, 0, 46, 65
2, 459317, Control_c, 0, 64, 70
2, 459318, Note_on_c, 0, 74, 79
2, 459337, Control_c, 0, 64, 65
2, 459342, Note_on_c, 0, 70, 65
2, 459356, Control_c, 0, 64, 58
2, 459374, Control_c, 0, 64, 46
2, 459394, Control_c, 0, 64, 35
2, 459413, Control_c, 0, 64, 32
2, 459422, Note_on_c, 0, 58, 0
2, 459432, Control_c, 0, 64, 36
2, 459451, Control_c, 0, 64, 48
2, 459471, Control_c, 0, 64, 59
2, 459490, Control_c, 0, 64, 62
2, 459509, Control_c, 0, 64, 64
2, 459528, Control_c, 0, 64, 65
2, 459548, Control_c, 0, 64, 65
2, 459625, Control_c, 0, 64, 66
2, 459744, Control_c, 0, 64, 66
2, 459839, Control_c, 0, 64, 66
2, 459955, Control_c, 0, 64, 65
2, 459973, Control_c, 0, 64, 64
2, 459990, Control_c, 0, 64, 62
2, 459990, Note_on_c, 0, 68, 74
2, 460010, Control_c, 0, 64, 57
2, 460029, Control_c, 0, 64, 51
2, 460043, Note_on_c, 0, 65, 0
2, 460048, Control_c, 0, 64, 48
2, 460056, Note_on_c, 0, 70, 0
2, 460067, Control_c, 0, 64, 49
2, 460087, Control_c, 0, 64, 54
2, 460105, Control_c, 0, 64, 59
2, 460124, Control_c, 0, 64, 63
2, 460144, Control_c, 0, 64, 66
2, 460163, Control_c, 0, 64, 69
2, 460182, Control_c, 0, 64, 75
2, 460201, Control_c, 0, 64, 82
2, 460221, Control_c, 0, 64, 91
2, 460239, Control_c, 0, 64, 100
2, 460259, Control_c, 0, 64, 104
2, 460278, Control_c, 0, 64, 106
2, 460298, Control_c, 0, 64, 107
2, 460311, Note_on_c, 0, 46, 0
2, 460316, Control_c, 0, 64, 109
2, 460336, Control_c, 0, 64, 111
2, 460355, Control_c, 0, 64, 115
2, 460374, Control_c, 0, 64, 121
2, 460393, Control_c, 0, 64, 127
2, 460408, Note_on_c, 0, 68, 0
2, 460460, Note_on_c, 0, 74, 0
2, 460873, Control_c, 0, 64, 123
2, 460912, Control_c, 0, 64, 121
2, 461047, Control_c, 0, 64, 119
2, 461084, Control_c, 0, 64, 118
2, 461104, Control_c, 0, 64, 117
2, 461123, Control_c, 0, 64, 116
2, 461161, Control_c, 0, 64, 115
2, 461181, Control_c, 0, 64, 114
2, 461199, Control_c, 0, 64, 113
2, 461219, Control_c, 0, 64, 110
2, 461227, Note_on_c, 0, 75, 79
2, 461238, Control_c, 0, 64, 105
2, 461242, Note_on_c, 0, 39, 43
2, 461258, Control_c, 0, 64, 99
2, 461262, Note_on_c, 0, 67, 49
2, 461276, Control_c, 0, 64, 92
2, 461296, Control_c, 0, 64, 84
2, 461315, Control_c, 0, 64, 74
2, 461334, Control_c, 0, 64, 67
2, 461353, Control_c, 0, 64, 61
2, 461373, Control_c, 0, 64, 56
2, 461391, Control_c, 0, 64, 53
2, 461408, Control_c, 0, 64, 52
2, 461427, Control_c, 0, 64, 50
2, 461447, Control_c, 0, 64, 48
2, 461466, Control_c, 0, 64, 44
2, 461485, Control_c, 0, 64, 40
2, 461504, Control_c, 0, 64, 37
2, 461524, Control_c, 0, 64, 36
2, 461697, Control_c, 0, 64, 35
2, 461791, Control_c, 0, 64, 36
2, 461829, Control_c, 0, 64, 37
2, 461848, Control_c, 0, 64, 38
2, 461868, Control_c, 0, 64, 41
2, 461886, Control_c, 0, 64, 43
2, 461900, Control_c, 0, 64, 45
2, 461919, Control_c, 0, 64, 47
2, 461938, Control_c, 0, 64, 48
2, 461957, Control_c, 0, 64, 50
2, 461977, Control_c, 0, 64, 51
2, 461995, Control_c, 0, 64, 52
2, 462015, Control_c, 0, 64, 52
2, 462284, Control_c, 0, 64, 52
2, 462380, Control_c, 0, 64, 52
2, 462437, Control_c, 0, 64, 53
2, 462915, Control_c, 0, 64, 52
2, 463069, Control_c, 0, 64, 52
2, 463241, Control_c, 0, 64, 51
2, 463318, Control_c, 0, 64, 51
2, 463357, Control_c, 0, 64, 50
2, 463606, Control_c, 0, 64, 50
2, 463702, Control_c, 0, 64, 49
2, 463830, Note_on_c, 0, 67, 0
2, 463855, Control_c, 0, 64, 49
2, 464027, Control_c, 0, 64, 48
2, 464046, Note_on_c, 0, 39, 0
2, 464104, Control_c, 0, 64, 48
2, 464150, Note_on_c, 0, 75, 0
2, 464162, Control_c, 0, 64, 47
2, 464239, Control_c, 0, 64, 47
2, 464316, Control_c, 0, 64, 46
2, 464373, Control_c, 0, 64, 46
2, 464374, End_track
0, 0, End_of_file
