0, 0, Header, 1, 2, 480
1, 0, Start_track
1, 0, Tempo, 500000
1, 0, Time_signature, 4, 2, 24, 8
1, 1, End_track
2, 0, Start_track
2, 0, Program_c, 0, 0
2, 0, Control_c, 0, 64, 51
2, 0, Control_c, 0, 67, 0
2, 824, Control_c, 0, 64, 52
2, 980, Note_on_c, 0, 53, 44
2, 993, Note_on_c, 0, 77, 57
2, 1041, Note_on_c, 0, 53, 0
2, 1124, Note_on_c, 0, 77, 0
2, 1131, Note_on_c, 0, 72, 57
2, 1223, Note_on_c, 0, 57, 58
2, 1228, Note_on_c, 0, 72, 0
2, 1239, Note_on_c, 0, 69, 57
2, 1260, Note_on_c, 0, 57, 0
2, 1330, Note_on_c, 0, 69, 0
2, 1354, Note_on_c, 0, 67, 56
2, 1438, Control_c, 0, 64, 51
2, 1461, Note_on_c, 0, 67, 0
2, 1466, Note_on_c, 0, 60, 53
2, 1470, Note_on_c, 0, 69, 64
2, 1506, Note_on_c, 0, 60, 0
2, 1551, Note_on_c, 0, 69, 0
2, 1576, Note_on_c, 0, 72, 69
2, 1680, Note_on_c, 0, 72, 0
2, 1689, Note_on_c, 0, 57, 57
2, 1696, Note_on_c, 0, 65, 59
2, 1731, Note_on_c, 0, 57, 0
2, 1791, Note_on_c, 0, 69, 61
2, 1800, Note_on_c, 0, 65, 0
2, 1894, Note_on_c, 0, 69, 0
2, 1906, Note_on_c, 0, 72, 68
2, 1928, Note_on_c, 0, 53, 54
2, 1973, Note_on_c, 0, 53, 0
2, 1998, Note_on_c, 0, 72, 0
2, 2005, Note_on_c, 0, 75, 72
2, 2073, Note_on_c, 0, 75, 0
2, 2143, Note_on_c, 0, 74, 68
2, 2148, Note_on_c, 0, 57, 64
2, 2191, Note_on_c, 0, 57, 0
2, 2242, Note_on_c, 0, 74, 0
2, 2246, Note_on_c, 0, 72, 72
2, 2348, Note_on_c, 0, 72, 0
2, 2371, Note_on_c, 0, 74, 74
2, 2380, Note_on_c, 0, 58, 59
2, 2420, Note_on_c, 0, 58, 0
2, 2491, Note_on_c, 0, 70, 70
2, 2491, Note_on_c, 0, 74, 0
2, 2589, Note_on_c, 0, 70, 0
2, 2600, Note_on_c, 0, 65, 68
2, 2609, Note_on_c, 0, 62, 59
2, 2649, Note_on_c, 0, 62, 0
2, 2690, Control_c, 0, 64, 52
2, 2695, Note_on_c, 0, 65, 0
2, 2716, Note_on_c, 0, 64, 70
2, 2811, Note_on_c, 0, 58, 60
2, 2832, Note_on_c, 0, 64, 0
2, 2836, Note_on_c, 0, 65, 69
2, 2849, Note_on_c, 0, 58, 0
2, 2921, Note_on_c, 0, 65, 0
2, 2941, Note_on_c, 0, 70, 68
2, 3073, Note_on_c, 0, 62, 60
2, 3102, Note_on_c, 0, 41, 36
2, 3113, Note_on_c, 0, 70, 0
2, 3180, Note_on_c, 0, 65, 61
2, 3184, Note_on_c, 0, 62, 0
2, 3303, Note_on_c, 0, 69, 65
2, 3321, Note_on_c, 0, 65, 0
2, 3398, Note_on_c, 0, 69, 0
2, 3405, Note_on_c, 0, 72, 72
2, 3425, Note_on_c, 0, 41, 0
2, 3527, Note_on_c, 0, 70, 68
2, 3540, Note_on_c, 0, 72, 0
2, 3631, Control_c, 0, 64, 51
2, 3631, Note_on_c, 0, 69, 61
2, 3636, Note_on_c, 0, 70, 0
2, 3743, Note_on_c, 0, 69, 0
2, 3754, Note_on_c, 0, 53, 60
2, 3766, Note_on_c, 0, 70, 62
2, 3797, Note_on_c, 0, 53, 0
2, 3868, Note_on_c, 0, 67, 63
2, 3910, Note_on_c, 0, 70, 0
2, 3989, Note_on_c, 0, 67, 0
2, 3994, Note_on_c, 0, 64, 57
2, 3996, Note_on_c, 0, 55, 61
2, 4037, Note_on_c, 0, 55, 0
2, 4081, Note_on_c, 0, 64, 0
2, 4092, Note_on_c, 0, 62, 58
2, 4216, Note_on_c, 0, 58, 67
2, 4235, Note_on_c, 0, 64, 63
2, 4248, Note_on_c, 0, 62, 0
2, 4263, Note_on_c, 0, 58, 0
2, 4318, Note_on_c, 0, 64, 0
2, 4326, Note_on_c, 0, 67, 65
2, 4450, Note_on_c, 0, 67, 0
2, 4454, Note_on_c, 0, 55, 60
2, 4464, Note_on_c, 0, 60, 60
2, 4491, Note_on_c, 0, 55, 0
2, 4554, Note_on_c, 0, 60, 0
2, 4559, Note_on_c, 0, 64, 65
2, 4680, Note_on_c, 0, 52, 64
2, 4685, Note_on_c, 0, 67, 63
2, 4690, Note_on_c, 0, 64, 0
2, 4726, Note_on_c, 0, 52, 0
2, 4780, Note_on_c, 0, 70, 71
2, 4782, Note_on_c, 0, 67, 0
2, 4902, Note_on_c, 0, 48, 62
2, 4904, Note_on_c, 0, 69, 65
2, 4914, Control_c, 0, 64, 52
2, 4947, Note_on_c, 0, 70, 0
2, 4949, Note_on_c, 0, 48, 0
2, 5023, Note_on_c, 0, 67, 66
2, 5037, Note_on_c, 0, 69, 0
2, 5144, Note_on_c, 0, 53, 63
2, 5150, Note_on_c, 0, 67, 0
2, 5153, Note_on_c, 0, 69, 63
2, 5181, Note_on_c, 0, 53, 0
2, 5264, Note_on_c, 0, 67, 63
2, 5292, Note_on_c, 0, 69, 0
2, 5372, Note_on_c, 0, 65, 68
2, 5377, Note_on_c, 0, 67, 0
2, 5388, Note_on_c, 0, 57, 59
2, 5431, Note_on_c, 0, 57, 0
2, 5469, Note_on_c, 0, 65, 0
2, 5487, Note_on_c, 0, 64, 62
2, 5599, Note_on_c, 0, 53, 59
2, 5599, Note_on_c, 0, 64, 0
2, 5609, Note_on_c, 0, 65, 67
2, 5640, Note_on_c, 0, 53, 0
2, 5644, Control_c, 0, 64, 51
2, 5710, Note_on_c, 0, 65, 0
2, 5723, Note_on_c, 0, 69, 56
2, 5855, Note_on_c, 0, 41, 51
2, 5855, Note_on_c, 0, 60, 56
2, 5958, Note_on_c, 0, 69, 0
2, 5965, Note_on_c, 0, 64, 62
2, 5969, Note_on_c, 0, 60, 0
2, 6091, Note_on_c, 0, 65, 62
2, 6100, Note_on_c, 0, 64, 0
2, 6174, Note_on_c, 0, 65, 0
2, 6185, Note_on_c, 0, 69, 68
2, 6230, Note_on_c, 0, 41, 0
2, 6296, Note_on_c, 0, 67, 64
2, 6335, Note_on_c, 0, 69, 0
2, 6407, Note_on_c, 0, 65, 60
2, 6416, Note_on_c, 0, 67, 0
2, 6441, Note_on_c, 0, 65, 0
2, 6543, Note_on_c, 0, 53, 53
2, 6550, Note_on_c, 0, 69, 61
2, 6606, Note_on_c, 0, 69, 0
2, 6613, Note_on_c, 0, 71, 63
2, 6647, Note_on_c, 0, 53, 0
2, 6664, Note_on_c, 0, 50, 52
2, 6671, Note_on_c, 0, 71, 0
2, 6683, Note_on_c, 0, 72, 64
2, 6743, Note_on_c, 0, 72, 0
2, 6767, Note_on_c, 0, 71, 58
2, 6772, Note_on_c, 0, 50, 0
2, 6785, Note_on_c, 0, 47, 58
2, 6797, Control_c, 0, 64, 52
2, 6821, Note_on_c, 0, 71, 0
2, 6835, Note_on_c, 0, 72, 61
2, 6868, Note_on_c, 0, 47, 0
2, 6883, Note_on_c, 0, 72, 0
2, 6888, Note_on_c, 0, 45, 55
2, 6907, Note_on_c, 0, 71, 61
2, 6911, Control_c, 0, 64, 51
2, 6958, Note_on_c, 0, 71, 0
2, 6976, Note_on_c, 0, 72, 66
2, 6986, Control_c, 0, 64, 52
2, 6993, Note_on_c, 0, 45, 0
2, 7011, Note_on_c, 0, 47, 62
2, 7024, Note_on_c, 0, 72, 0
2, 7043, Note_on_c, 0, 71, 64
2, 7077, Note_on_c, 0, 47, 0
2, 7095, Note_on_c, 0, 71, 0
2, 7106, Note_on_c, 0, 72, 70
2, 7110, Note_on_c, 0, 50, 60
2, 7157, Note_on_c, 0, 72, 0
2, 7179, Note_on_c, 0, 71, 65
2, 7246, Note_on_c, 0, 71, 0
2, 7246, Note_on_c, 0, 72, 69
2, 7250, Note_on_c, 0, 50, 0
2, 7265, Note_on_c, 0, 43, 62
2, 7297, Note_on_c, 0, 72, 0
2, 7315, Control_c, 0, 64, 51
2, 7315, Note_on_c, 0, 71, 63
2, 7376, Note_on_c, 0, 72, 65
2, 7384, Note_on_c, 0, 71, 0
2, 7393, Note_on_c, 0, 47, 62
2, 7397, Note_on_c, 0, 43, 0
2, 7408, Control_c, 0, 64, 52
2, 7436, Note_on_c, 0, 72, 0
2, 7444, Note_on_c, 0, 71, 61
2, 7492, Note_on_c, 0, 47, 0
2, 7500, Note_on_c, 0, 50, 69
2, 7509, Note_on_c, 0, 72, 66
2, 7520, Note_on_c, 0, 71, 0
2, 7555, Note_on_c, 0, 72, 0
2, 7580, Note_on_c, 0, 71, 62
2, 7587, Note_on_c, 0, 50, 0
2, 7605, Note_on_c, 0, 53, 69
2, 7634, Note_on_c, 0, 72, 68
2, 7646, Note_on_c, 0, 71, 0
2, 7684, Note_on_c, 0, 72, 0
2, 7706, Note_on_c, 0, 71, 60
2, 7710, Note_on_c, 0, 52, 65
2, 7720, Note_on_c, 0, 53, 0
2, 7779, Note_on_c, 0, 71, 0
2, 7790, Note_on_c, 0, 52, 0
2, 7794, Note_on_c, 0, 69, 62
2, 7797, Note_on_c, 0, 50, 54
2, 7834, Note_on_c, 0, 50, 0
2, 7853, Note_on_c, 0, 71, 67
2, 7864, Note_on_c, 0, 69, 0
2, 7947, Note_on_c, 0, 50, 65
2, 7954, Note_on_c, 0, 71, 0
2, 7963, Note_on_c, 0, 72, 79
2, 8026, Note_on_c, 0, 50, 0
2, 8043, Note_on_c, 0, 52, 61
2, 8090, Note_on_c, 0, 72, 0
2, 8094, Note_on_c, 0, 67, 69
2, 8105, Note_on_c, 0, 52, 0
2, 8134, Note_on_c, 0, 53, 56
2, 8203, Note_on_c, 0, 67, 0
2, 8205, Note_on_c, 0, 64, 78
2, 8218, Note_on_c, 0, 52, 59
2, 8218, Note_on_c, 0, 53, 0
2, 8291, Note_on_c, 0, 52, 0
2, 8312, Note_on_c, 0, 53, 54
2, 8320, Note_on_c, 0, 64, 0
2, 8329, Note_on_c, 0, 62, 74
2, 8392, Control_c, 0, 64, 51
2, 8392, Note_on_c, 0, 52, 57
2, 8399, Note_on_c, 0, 53, 0
2, 8453, Note_on_c, 0, 62, 0
2, 8453, Note_on_c, 0, 64, 78
2, 8458, Note_on_c, 0, 52, 0
2, 8491, Note_on_c, 0, 53, 55
2, 8547, Note_on_c, 0, 64, 0
2, 8561, Note_on_c, 0, 52, 54
2, 8572, Note_on_c, 0, 53, 0
2, 8572, Note_on_c, 0, 67, 70
2, 8630, Note_on_c, 0, 52, 0
2, 8655, Note_on_c, 0, 53, 58
2, 8690, Note_on_c, 0, 67, 0
2, 8696, Note_on_c, 0, 60, 68
2, 8727, Note_on_c, 0, 52, 56
2, 8740, Note_on_c, 0, 53, 0
2, 8787, Note_on_c, 0, 52, 0
2, 8805, Note_on_c, 0, 60, 0
2, 8805, Note_on_c, 0, 64, 72
2, 8814, Note_on_c, 0, 53, 54
2, 8901, Note_on_c, 0, 52, 58
2, 8901, Note_on_c, 0, 53, 0
2, 8921, Note_on_c, 0, 67, 72
2, 8932, Note_on_c, 0, 64, 0
2, 8975, Note_on_c, 0, 53, 36
2, 9024, Note_on_c, 0, 67, 0
2, 9031, Note_on_c, 0, 52, 0
2, 9031, Note_on_c, 0, 70, 74
2, 9121, Note_on_c, 0, 50, 50
2, 9126, Note_on_c, 0, 70, 0
2, 9134, Note_on_c, 0, 69, 69
2, 9210, Note_on_c, 0, 53, 0
2, 9224, Note_on_c, 0, 52, 59
2, 9247, Note_on_c, 0, 50, 0
2, 9249, Note_on_c, 0, 67, 74
2, 9279, Note_on_c, 0, 69, 0
2, 9283, Note_on_c, 0, 67, 0
2, 9292, Control_c, 0, 64, 52
2, 9355, Note_on_c, 0, 52, 0
2, 9371, Note_on_c, 0, 55, 64
2, 9410, Note_on_c, 0, 74, 71
2, 9460, Note_on_c, 0, 73, 71
2, 9467, Note_on_c, 0, 74, 0
2, 9491, Note_on_c, 0, 55, 0
2, 9498, Note_on_c, 0, 52, 73
2, 9530, Note_on_c, 0, 71, 77
2, 9530, Note_on_c, 0, 73, 0
2, 9592, Note_on_c, 0, 73, 64
2, 9596, Note_on_c, 0, 71, 0
2, 9614, Note_on_c, 0, 52, 0
2, 9618, Note_on_c, 0, 49, 71
2, 9653, Note_on_c, 0, 73, 0
2, 9662, Note_on_c, 0, 74, 70
2, 9741, Note_on_c, 0, 73, 73
2, 9746, Note_on_c, 0, 74, 0
2, 9750, Note_on_c, 0, 47, 69
2, 9750, Note_on_c, 0, 49, 0
2, 9791, Note_on_c, 0, 73, 0
2, 9813, Note_on_c, 0, 74, 53
2, 9865, Note_on_c, 0, 49, 71
2, 9878, Note_on_c, 0, 47, 0
2, 9878, Note_on_c, 0, 73, 70
2, 9884, Note_on_c, 0, 74, 0
2, 9923, Note_on_c, 0, 73, 0
2, 9950, Note_on_c, 0, 74, 62
2, 9978, Note_on_c, 0, 49, 0
2, 9982, Control_c, 0, 64, 53
2, 9987, Note_on_c, 0, 52, 71
2, 10022, Note_on_c, 0, 73, 77
2, 10022, Note_on_c, 0, 74, 0
2, 10068, Note_on_c, 0, 73, 0
2, 10097, Note_on_c, 0, 74, 66
2, 10121, Note_on_c, 0, 52, 0
2, 10134, Note_on_c, 0, 45, 69
2, 10158, Note_on_c, 0, 73, 73
2, 10165, Note_on_c, 0, 74, 0
2, 10204, Note_on_c, 0, 73, 0
2, 10231, Note_on_c, 0, 74, 60
2, 10253, Note_on_c, 0, 49, 66
2, 10258, Note_on_c, 0, 45, 0
2, 10300, Note_on_c, 0, 73, 76
2, 10303, Note_on_c, 0, 74, 0
2, 10348, Note_on_c, 0, 73, 0
2, 10357, Note_on_c, 0, 52, 73
2, 10361, Note_on_c, 0, 49, 0
2, 10374, Note_on_c, 0, 74, 59
2, 10441, Note_on_c, 0, 73, 69
2, 10456, Note_on_c, 0, 52, 0
2, 10467, Note_on_c, 0, 55, 75
2, 10486, Note_on_c, 0, 73, 0
2, 10559, Note_on_c, 0, 73, 78
2, 10569, Note_on_c, 0, 74, 0
2, 10571, Note_on_c, 0, 53, 71
2, 10579, Note_on_c, 0, 55, 0
2, 10632, Note_on_c, 0, 73, 0
2, 10641, Note_on_c, 0, 71, 74
2, 10672, Note_on_c, 0, 53, 0
2, 10676, Note_on_c, 0, 52, 64
2, 10713, Note_on_c, 0, 52, 0
2, 10717, Note_on_c, 0, 73, 75
2, 10724, Note_on_c, 0, 71, 0
2, 10809, Note_on_c, 0, 52, 63
2, 10814, Note_on_c, 0, 73, 0
2, 10814, Note_on_c, 0, 74, 78
2, 10897, Note_on_c, 0, 53, 63
2, 10908, Note_on_c, 0, 52, 0
2, 10945, Note_on_c, 0, 69, 68
2, 10945, Note_on_c, 0, 74, 0
2, 10971, Note_on_c, 0, 53, 0
2, 10994, Note_on_c, 0, 55, 61
2, 11055, Note_on_c, 0, 65, 74
2, 11064, Note_on_c, 0, 69, 0
2, 11071, Note_on_c, 0, 53, 63
2, 11078, Note_on_c, 0, 55, 0
2, 11157, Note_on_c, 0, 53, 0
2, 11177, Note_on_c, 0, 65, 0
2, 11181, Note_on_c, 0, 55, 60
2, 11186, Note_on_c, 0, 64, 77
2, 11211, Control_c, 0, 64, 52
2, 11252, Note_on_c, 0, 53, 59
2, 11259, Note_on_c, 0, 55, 0
2, 11303, Note_on_c, 0, 65, 75
2, 11321, Note_on_c, 0, 64, 0
2, 11333, Note_on_c, 0, 53, 0
2, 11357, Note_on_c, 0, 55, 58
2, 11384, Control_c, 0, 64, 51
2, 11425, Note_on_c, 0, 53, 51
2, 11425, Note_on_c, 0, 65, 0
2, 11425, Note_on_c, 0, 69, 70
2, 11438, Note_on_c, 0, 55, 0
2, 11505, Note_on_c, 0, 53, 0
2, 11530, Note_on_c, 0, 55, 60
2, 11561, Note_on_c, 0, 62, 75
2, 11565, Note_on_c, 0, 69, 0
2, 11599, Note_on_c, 0, 53, 55
2, 11608, Note_on_c, 0, 55, 0
2, 11671, Note_on_c, 0, 62, 0
2, 11671, Note_on_c, 0, 65, 70
2, 11676, Note_on_c, 0, 53, 0
2, 11699, Note_on_c, 0, 55, 54
2, 11764, Note_on_c, 0, 53, 55
2, 11769, Note_on_c, 0, 55, 0
2, 11799, Note_on_c, 0, 69, 72
2, 11824, Note_on_c, 0, 65, 0
2, 11834, Note_on_c, 0, 53, 0
2, 11857, Note_on_c, 0, 55, 55
2, 11899, Note_on_c, 0, 69, 0
2, 11906, Note_on_c, 0, 72, 75
2, 11932, Note_on_c, 0, 53, 59
2, 11936, Note_on_c, 0, 55, 0
2, 12020, Note_on_c, 0, 53, 0
2, 12028, Note_on_c, 0, 55, 60
2, 12032, Note_on_c, 0, 70, 73
2, 12037, Note_on_c, 0, 72, 0
2, 12104, Note_on_c, 0, 52, 43
2, 12119, Note_on_c, 0, 55, 0
2, 12145, Note_on_c, 0, 70, 0
2, 12150, Note_on_c, 0, 69, 63
2, 12160, Note_on_c, 0, 53, 63
2, 12201, Note_on_c, 0, 52, 0
2, 12263, Note_on_c, 0, 69, 0
2, 12276, Note_on_c, 0, 55, 66
2, 12280, Note_on_c, 0, 70, 69
2, 12285, Note_on_c, 0, 53, 0
2, 12320, Note_on_c, 0, 55, 0
2, 12409, Note_on_c, 0, 67, 64
2, 12418, Note_on_c, 0, 70, 0
2, 12500, Control_c, 0, 64, 52
2, 12523, Note_on_c, 0, 64, 71
2, 12532, Note_on_c, 0, 67, 0
2, 12541, Note_on_c, 0, 58, 68
2, 12584, Note_on_c, 0, 58, 0
2, 12631, Note_on_c, 0, 64, 0
2, 12654, Note_on_c, 0, 62, 64
2, 12785, Note_on_c, 0, 55, 62
2, 12785, Note_on_c, 0, 64, 71
2, 12790, Note_on_c, 0, 62, 0
2, 12823, Note_on_c, 0, 55, 0
2, 12896, Note_on_c, 0, 64, 0
2, 12913, Note_on_c, 0, 67, 61
2, 13018, Note_on_c, 0, 67, 0
2, 13033, Note_on_c, 0, 52, 64
2, 13047, Note_on_c, 0, 60, 62
2, 13073, Note_on_c, 0, 52, 0
2, 13155, Note_on_c, 0, 64, 67
2, 13159, Note_on_c, 0, 60, 0
2, 13267, Note_on_c, 0, 48, 68
2, 13278, Note_on_c, 0, 67, 70
2, 13303, Note_on_c, 0, 64, 0
2, 13307, Note_on_c, 0, 48, 0
2, 13389, Note_on_c, 0, 67, 0
2, 13394, Note_on_c, 0, 70, 68
2, 13503, Note_on_c, 0, 52, 75
2, 13510, Note_on_c, 0, 69, 68
2, 13546, Note_on_c, 0, 52, 0
2, 13564, Note_on_c, 0, 70, 0
2, 13573, Control_c, 0, 64, 51
2, 13636, Note_on_c, 0, 67, 69
2, 13651, Note_on_c, 0, 69, 0
2, 13766, Note_on_c, 0, 53, 72
2, 13766, Note_on_c, 0, 67, 0
2, 13775, Note_on_c, 0, 69, 72
2, 13810, Note_on_c, 0, 53, 0
2, 13896, Note_on_c, 0, 65, 62
2, 13896, Note_on_c, 0, 69, 0
2, 14025, Note_on_c, 0, 65, 0
2, 14029, Note_on_c, 0, 57, 69
2, 14029, Note_on_c, 0, 62, 66
2, 14071, Note_on_c, 0, 57, 0
2, 14133, Note_on_c, 0, 62, 0
2, 14142, Note_on_c, 0, 61, 67
2, 14264, Note_on_c, 0, 53, 67
2, 14267, Note_on_c, 0, 61, 0
2, 14272, Note_on_c, 0, 62, 73
2, 14302, Note_on_c, 0, 53, 0
2, 14359, Note_on_c, 0, 62, 0
2, 14376, Note_on_c, 0, 65, 72
2, 14515, Note_on_c, 0, 50, 66
2, 14519, Note_on_c, 0, 65, 0
2, 14526, Note_on_c, 0, 58, 67
2, 14563, Note_on_c, 0, 50, 0
2, 14598, Note_on_c, 0, 58, 0
2, 14631, Note_on_c, 0, 62, 65
2, 14760, Note_on_c, 0, 62, 0
2, 14764, Note_on_c, 0, 46, 63
2, 14764, Note_on_c, 0, 65, 69
2, 14804, Note_on_c, 0, 46, 0
2, 14868, Note_on_c, 0, 65, 0
2, 14870, Note_on_c, 0, 69, 66
2, 15001, Note_on_c, 0, 67, 70
2, 15005, Note_on_c, 0, 50, 64
2, 15012, Note_on_c, 0, 69, 0
2, 15030, Control_c, 0, 64, 50
2, 15044, Note_on_c, 0, 50, 0
2, 15119, Note_on_c, 0, 65, 66
2, 15119, Note_on_c, 0, 67, 0
2, 15254, Note_on_c, 0, 65, 0
2, 15258, Note_on_c, 0, 52, 64
2, 15258, Note_on_c, 0, 67, 68
2, 15310, Note_on_c, 0, 52, 0
2, 15374, Note_on_c, 0, 64, 68
2, 15379, Control_c, 0, 64, 51
2, 15379, Note_on_c, 0, 67, 0
2, 15495, Note_on_c, 0, 61, 65
2, 15495, Note_on_c, 0, 64, 0
2, 15508, Note_on_c, 0, 55, 63
2, 15557, Note_on_c, 0, 55, 0
2, 15609, Note_on_c, 0, 61, 0
2, 15627, Note_on_c, 0, 59, 63
2, 15736, Note_on_c, 0, 52, 69
2, 15749, Note_on_c, 0, 61, 66
2, 15762, Note_on_c, 0, 59, 0
2, 15771, Note_on_c, 0, 52, 0
2, 15858, Note_on_c, 0, 61, 0
2, 15867, Note_on_c, 0, 64, 69
2, 15968, Note_on_c, 0, 64, 0
2, 15989, Note_on_c, 0, 49, 63
2, 16008, Note_on_c, 0, 57, 65
2, 16042, Note_on_c, 0, 49, 0
2, 16113, Note_on_c, 0, 61, 59
2, 16117, Note_on_c, 0, 57, 0
2, 16233, Note_on_c, 0, 61, 0
2, 16237, Note_on_c, 0, 45, 57
2, 16237, Note_on_c, 0, 64, 72
2, 16276, Note_on_c, 0, 45, 0
2, 16335, Note_on_c, 0, 64, 0
2, 16341, Note_on_c, 0, 67, 68
2, 16487, Note_on_c, 0, 49, 60
2, 16487, Note_on_c, 0, 65, 61
2, 16516, Note_on_c, 0, 67, 0
2, 16521, Note_on_c, 0, 49, 0
2, 16525, Control_c, 0, 64, 50
2, 16598, Note_on_c, 0, 64, 65
2, 16607, Note_on_c, 0, 65, 0
2, 16730, Note_on_c, 0, 64, 0
2, 16743, Note_on_c, 0, 50, 52
2, 16752, Note_on_c, 0, 65, 60
2, 16814, Note_on_c, 0, 65, 0
2, 16860, Note_on_c, 0, 50, 0
2, 16893, Note_on_c, 0, 45, 43
2, 16998, Note_on_c, 0, 45, 0
2, 17002, Note_on_c, 0, 69, 65
2, 17007, Note_on_c, 0, 41, 61
2, 17042, Note_on_c, 0, 69, 0
2, 17112, Note_on_c, 0, 41, 0
2, 17134, Note_on_c, 0, 40, 46
2, 17237, Note_on_c, 0, 40, 0
2, 17243, Note_on_c, 0, 41, 57
2, 17251, Note_on_c, 0, 74, 71
2, 17288, Note_on_c, 0, 74, 0
2, 17323, Note_on_c, 0, 41, 0
2, 17349, Note_on_c, 0, 45, 55
2, 17390, Control_c, 0, 64, 51
2, 17479, Note_on_c, 0, 45, 0
2, 17488, Note_on_c, 0, 69, 69
2, 17492, Note_on_c, 0, 38, 51
2, 17532, Note_on_c, 0, 69, 0
2, 17593, Note_on_c, 0, 38, 0
2, 17597, Note_on_c, 0, 41, 55
2, 17697, Note_on_c, 0, 41, 0
2, 17704, Note_on_c, 0, 45, 55
2, 17733, Note_on_c, 0, 65, 70
2, 17781, Note_on_c, 0, 65, 0
2, 17797, Note_on_c, 0, 45, 0
2, 17823, Note_on_c, 0, 48, 57
2, 17948, Note_on_c, 0, 48, 0
2, 17959, Note_on_c, 0, 46, 60
2, 17969, Note_on_c, 0, 62, 68
2, 18008, Note_on_c, 0, 62, 0
2, 18061, Note_on_c, 0, 46, 0
2, 18074, Note_on_c, 0, 45, 56
2, 18186, Note_on_c, 0, 45, 0
2, 18211, Note_on_c, 0, 50, 55
2, 18221, Note_on_c, 0, 67, 71
2, 18268, Note_on_c, 0, 67, 0
2, 18307, Note_on_c, 0, 50, 0
2, 18331, Note_on_c, 0, 46, 60
2, 18445, Note_on_c, 0, 46, 0
2, 18453, Note_on_c, 0, 43, 66
2, 18467, Note_on_c, 0, 70, 78
2, 18511, Note_on_c, 0, 70, 0
2, 18567, Note_on_c, 0, 42, 61
2, 18575, Note_on_c, 0, 43, 0
2, 18700, Note_on_c, 0, 43, 61
2, 18705, Note_on_c, 0, 42, 0
2, 18719, Note_on_c, 0, 74, 78
2, 18782, Note_on_c, 0, 74, 0
2, 18809, Note_on_c, 0, 43, 0
2, 18822, Note_on_c, 0, 46, 64
2, 18948, Note_on_c, 0, 46, 0
2, 18956, Note_on_c, 0, 38, 63
2, 18965, Note_on_c, 0, 70, 81
2, 19034, Note_on_c, 0, 70, 0
2, 19077, Note_on_c, 0, 38, 0
2, 19081, Note_on_c, 0, 43, 60
2, 19215, Note_on_c, 0, 67, 81
2, 19219, Note_on_c, 0, 46, 67
2, 19235, Note_on_c, 0, 43, 0
2, 19260, Note_on_c, 0, 67, 0
2, 19307, Note_on_c, 0, 46, 0
2, 19322, Note_on_c, 0, 50, 64
2, 19442, Note_on_c, 0, 50, 0
2, 19446, Note_on_c, 0, 49, 63
2, 19464, Note_on_c, 0, 62, 75
2, 19510, Note_on_c, 0, 62, 0
2, 19550, Note_on_c, 0, 47, 65
2, 19558, Note_on_c, 0, 49, 0
2, 19672, Note_on_c, 0, 47, 0
2, 19703, Note_on_c, 0, 49, 64
2, 19716, Note_on_c, 0, 67, 78
2, 19778, Note_on_c, 0, 67, 0
2, 19826, Note_on_c, 0, 49, 0
2, 19835, Note_on_c, 0, 46, 68
2, 19949, Note_on_c, 0, 44, 74
2, 19949, Note_on_c, 0, 46, 0
2, 19968, Note_on_c, 0, 73, 85
2, 20040, Note_on_c, 0, 73, 0
2, 20069, Note_on_c, 0, 42, 65
2, 20078, Note_on_c, 0, 44, 0
2, 20188, Note_on_c, 0, 43, 55
2, 20191, Note_on_c, 0, 42, 0
2, 20205, Note_on_c, 0, 76, 82
2, 20278, Note_on_c, 0, 76, 0
2, 20292, Control_c, 0, 64, 52
2, 20297, Note_on_c, 0, 43, 0
2, 20311, Note_on_c, 0, 46, 65
2, 20431, Note_on_c, 0, 46, 0
2, 20446, Note_on_c, 0, 73, 83
2, 20453, Note_on_c, 0, 38, 62
2, 20519, Control_c, 0, 64, 51
2, 20527, Note_on_c, 0, 73, 0
2, 20559, Note_on_c, 0, 38, 0
2, 20565, Note_on_c, 0, 43, 65
2, 20693, Control_c, 0, 64, 52
2, 20709, Note_on_c, 0, 67, 83
2, 20713, Note_on_c, 0, 43, 0
2, 20713, Note_on_c, 0, 49, 66
2, 20764, Note_on_c, 0, 67, 0
2, 20800, Note_on_c, 0, 49, 0
2, 20804, Note_on_c, 0, 52, 64
2, 20945, Note_on_c, 0, 50, 65
2, 20966, Note_on_c, 0, 64, 79
2, 20993, Note_on_c, 0, 52, 0
2, 20998, Note_on_c, 0, 52, 17
2, 21003, Note_on_c, 0, 64, 0
2, 21044, Note_on_c, 0, 52, 0
2, 21054, Note_on_c, 0, 50, 0
2, 21058, Note_on_c, 0, 49, 65
2, 21214, Note_on_c, 0, 49, 0
2, 21218, Note_on_c, 0, 50, 67
2, 21225, Note_on_c, 0, 74, 68
2, 21254, Note_on_c, 0, 50, 0
2, 21341, Note_on_c, 0, 74, 0
2, 21347, Note_on_c, 0, 69, 61
2, 21465, Note_on_c, 0, 65, 67
2, 21465, Note_on_c, 0, 69, 0
2, 21480, Note_on_c, 0, 53, 66
2, 21517, Note_on_c, 0, 53, 0
2, 21590, Note_on_c, 0, 64, 71
2, 21590, Note_on_c, 0, 65, 0
2, 21712, Note_on_c, 0, 65, 76
2, 21719, Note_on_c, 0, 57, 75
2, 21721, Note_on_c, 0, 64, 0
2, 21749, Control_c, 0, 64, 51
2, 21760, Note_on_c, 0, 57, 0
2, 21819, Note_on_c, 0, 65, 0
2, 21819, Note_on_c, 0, 69, 72
2, 21965, Note_on_c, 0, 53, 77
2, 21965, Note_on_c, 0, 62, 72
2, 21967, Note_on_c, 0, 69, 0
2, 22006, Note_on_c, 0, 53, 0
2, 22065, Note_on_c, 0, 65, 73
2, 22079, Note_on_c, 0, 62, 0
2, 22196, Note_on_c, 0, 69, 77
2, 22213, Note_on_c, 0, 50, 73
2, 22218, Note_on_c, 0, 65, 0
2, 22257, Note_on_c, 0, 50, 0
2, 22300, Note_on_c, 0, 69, 0
2, 22305, Note_on_c, 0, 72, 78
2, 22441, Note_on_c, 0, 53, 76
2, 22445, Note_on_c, 0, 70, 76
2, 22445, Note_on_c, 0, 72, 0
2, 22483, Note_on_c, 0, 53, 0
2, 22537, Note_on_c, 0, 70, 0
2, 22550, Note_on_c, 0, 69, 73
2, 22683, Note_on_c, 0, 69, 0
2, 22699, Note_on_c, 0, 77, 74
2, 22703, Note_on_c, 0, 38, 69
2, 22756, Note_on_c, 0, 38, 0
2, 22824, Note_on_c, 0, 74, 77
2, 22854, Note_on_c, 0, 77, 0
2, 22935, Note_on_c, 0, 41, 81
2, 22953, Note_on_c, 0, 74, 0
2, 22958, Note_on_c, 0, 70, 82
2, 22988, Note_on_c, 0, 41, 0
2, 23071, Note_on_c, 0, 69, 74
2, 23084, Note_on_c, 0, 70, 0
2, 23171, Control_c, 0, 64, 52
2, 23182, Note_on_c, 0, 46, 81
2, 23205, Note_on_c, 0, 70, 83
2, 23218, Note_on_c, 0, 69, 0
2, 23240, Note_on_c, 0, 46, 0
2, 23310, Note_on_c, 0, 70, 0
2, 23323, Note_on_c, 0, 74, 74
2, 23449, Note_on_c, 0, 50, 75
2, 23469, Note_on_c, 0, 65, 71
2, 23497, Control_c, 0, 64, 51
2, 23497, Note_on_c, 0, 74, 0
2, 23586, Note_on_c, 0, 70, 79
2, 23593, Control_c, 0, 64, 52
2, 23606, Note_on_c, 0, 65, 0
2, 23630, Control_c, 0, 64, 53
2, 23650, Control_c, 0, 64, 57
2, 23669, Control_c, 0, 64, 60
2, 23689, Control_c, 0, 64, 62
2, 23701, Note_on_c, 0, 70, 0
2, 23708, Control_c, 0, 64, 63
2, 23708, Note_on_c, 0, 74, 84
2, 23725, Control_c, 0, 64, 65
2, 23746, Control_c, 0, 64, 67
2, 23765, Control_c, 0, 64, 74
2, 23785, Control_c, 0, 64, 83
2, 23804, Control_c, 0, 64, 94
2, 23821, Note_on_c, 0, 77, 86
2, 23826, Control_c, 0, 64, 109
2, 23830, Note_on_c, 0, 74, 0
2, 23844, Control_c, 0, 64, 127
2, 23844, Note_on_c, 0, 50, 0
2, 23948, Note_on_c, 0, 76, 80
2, 23971, Note_on_c, 0, 77, 0
2, 23977, Control_c, 0, 64, 122
2, 23994, Control_c, 0, 64, 109
2, 24016, Control_c, 0, 64, 101
2, 24035, Control_c, 0, 64, 94
2, 24044, Note_on_c, 0, 74, 81
2, 24056, Control_c, 0, 64, 88
2, 24067, Note_on_c, 0, 76, 0
2, 24071, Control_c, 0, 64, 83
2, 24080, Note_on_c, 0, 74, 0
2, 24092, Control_c, 0, 64, 79
2, 24109, Control_c, 0, 64, 75
2, 24130, Control_c, 0, 64, 71
2, 24148, Control_c, 0, 64, 69
2, 24167, Control_c, 0, 64, 67
2, 24186, Control_c, 0, 64, 66
2, 24199, Note_on_c, 0, 62, 67
2, 24206, Control_c, 0, 64, 65
2, 24215, Note_on_c, 0, 81, 71
2, 24225, Control_c, 0, 64, 64
2, 24246, Control_c, 0, 64, 63
2, 24246, Note_on_c, 0, 80, 74
2, 24257, Note_on_c, 0, 81, 0
2, 24263, Control_c, 0, 64, 61
2, 24283, Control_c, 0, 64, 60
2, 24302, Control_c, 0, 64, 59
2, 24327, Control_c, 0, 64, 58
2, 24327, Note_on_c, 0, 80, 0
2, 24331, Note_on_c, 0, 59, 62
2, 24331, Note_on_c, 0, 62, 0
2, 24331, Note_on_c, 0, 78, 78
2, 24340, Control_c, 0, 64, 56
2, 24360, Control_c, 0, 64, 55
2, 24378, Control_c, 0, 64, 54
2, 24385, Note_on_c, 0, 80, 75
2, 24400, Note_on_c, 0, 78, 0
2, 24418, Control_c, 0, 64, 52
2, 24427, Note_on_c, 0, 59, 0
2, 24440, Control_c, 0, 64, 50
2, 24440, Note_on_c, 0, 56, 68
2, 24449, Note_on_c, 0, 80, 0
2, 24460, Control_c, 0, 64, 47
2, 24465, Note_on_c, 0, 81, 71
2, 24477, Control_c, 0, 64, 45
2, 24493, Control_c, 0, 64, 41
2, 24513, Control_c, 0, 64, 39
2, 24533, Note_on_c, 0, 56, 0
2, 24537, Control_c, 0, 64, 36
2, 24537, Note_on_c, 0, 54, 66
2, 24537, Note_on_c, 0, 80, 79
2, 24542, Note_on_c, 0, 81, 0
2, 24555, Control_c, 0, 64, 35
2, 24571, Control_c, 0, 64, 34
2, 24581, Note_on_c, 0, 80, 0
2, 24609, Control_c, 0, 64, 33
2, 24613, Note_on_c, 0, 81, 60
2, 24648, Note_on_c, 0, 56, 67
2, 24664, Note_on_c, 0, 80, 79
2, 24666, Note_on_c, 0, 81, 0
2, 24673, Note_on_c, 0, 54, 0
2, 24707, Note_on_c, 0, 80, 0
2, 24740, Note_on_c, 0, 56, 0
2, 24744, Note_on_c, 0, 81, 67
2, 24751, Note_on_c, 0, 59, 68
2, 24762, Control_c, 0, 64, 34
2, 24797, Note_on_c, 0, 81, 0
2, 24802, Control_c, 0, 64, 35
2, 24802, Note_on_c, 0, 80, 83
2, 24821, Control_c, 0, 64, 37
2, 24841, Control_c, 0, 64, 38
2, 24845, Note_on_c, 0, 80, 0
2, 24854, Note_on_c, 0, 59, 0
2, 24858, Control_c, 0, 64, 40
2, 24879, Control_c, 0, 64, 42
2, 24883, Note_on_c, 0, 81, 65
2, 24897, Note_on_c, 0, 52, 73
2, 24902, Control_c, 0, 64, 45
2, 24916, Control_c, 0, 64, 47
2, 24928, Note_on_c, 0, 81, 0
2, 24937, Note_on_c, 0, 80, 79
2, 24941, Control_c, 0, 64, 50
2, 24956, Control_c, 0, 64, 51
2, 24975, Control_c, 0, 64, 52
2, 24975, Note_on_c, 0, 80, 0
2, 24993, Control_c, 0, 64, 53
2, 25010, Note_on_c, 0, 81, 64
2, 25014, Control_c, 0, 64, 54
2, 25021, Note_on_c, 0, 52, 0
2, 25021, Note_on_c, 0, 56, 61
2, 25035, Control_c, 0, 64, 55
2, 25067, Note_on_c, 0, 80, 85
2, 25067, Note_on_c, 0, 81, 0
2, 25109, Control_c, 0, 64, 56
2, 25109, Note_on_c, 0, 80, 0
2, 25113, Note_on_c, 0, 59, 64
2, 25128, Control_c, 0, 64, 57
2, 25133, Note_on_c, 0, 56, 0
2, 25145, Note_on_c, 0, 81, 62
2, 25148, Control_c, 0, 64, 59
2, 25185, Control_c, 0, 64, 60
2, 25193, Note_on_c, 0, 59, 0
2, 25197, Note_on_c, 0, 80, 77
2, 25204, Control_c, 0, 64, 61
2, 25218, Note_on_c, 0, 62, 70
2, 25241, Note_on_c, 0, 80, 0
2, 25261, Control_c, 0, 64, 62
2, 25311, Note_on_c, 0, 62, 0
2, 25315, Note_on_c, 0, 61, 65
2, 25319, Control_c, 0, 64, 61
2, 25330, Note_on_c, 0, 80, 77
2, 25348, Note_on_c, 0, 81, 0
2, 25404, Note_on_c, 0, 61, 0
2, 25405, Note_on_c, 0, 80, 0
2, 25409, Note_on_c, 0, 59, 62
2, 25414, Note_on_c, 0, 78, 74
2, 25418, Control_c, 0, 64, 60
2, 25446, Note_on_c, 0, 59, 0
2, 25474, Control_c, 0, 64, 59
2, 25484, Note_on_c, 0, 80, 74
2, 25493, Control_c, 0, 64, 58
2, 25498, Note_on_c, 0, 78, 0
2, 25532, Control_c, 0, 64, 57
2, 25547, Note_on_c, 0, 59, 62
2, 25565, Note_on_c, 0, 80, 0
2, 25570, Control_c, 0, 64, 56
2, 25573, Note_on_c, 0, 81, 75
2, 25607, Control_c, 0, 64, 55
2, 25622, Note_on_c, 0, 59, 0
2, 25627, Note_on_c, 0, 61, 57
2, 25629, Control_c, 0, 64, 54
2, 25648, Control_c, 0, 64, 53
2, 25683, Control_c, 0, 64, 52
2, 25705, Control_c, 0, 64, 51
2, 25705, Note_on_c, 0, 81, 0
2, 25709, Note_on_c, 0, 76, 72
2, 25714, Note_on_c, 0, 61, 0
2, 25723, Control_c, 0, 64, 50
2, 25729, Note_on_c, 0, 62, 64
2, 25780, Control_c, 0, 64, 49
2, 25808, Note_on_c, 0, 73, 80
2, 25824, Control_c, 0, 64, 48
2, 25824, Note_on_c, 0, 61, 61
2, 25824, Note_on_c, 0, 62, 0
2, 25824, Note_on_c, 0, 76, 0
2, 25858, Control_c, 0, 64, 47
2, 25897, Note_on_c, 0, 61, 0
2, 25916, Control_c, 0, 64, 46
2, 25920, Note_on_c, 0, 62, 63
2, 25928, Note_on_c, 0, 73, 0
2, 25939, Control_c, 0, 64, 45
2, 25939, Note_on_c, 0, 71, 75
2, 25954, Control_c, 0, 64, 44
2, 26000, Note_on_c, 0, 61, 61
2, 26002, Note_on_c, 0, 62, 0
2, 26030, Control_c, 0, 64, 43
2, 26053, Note_on_c, 0, 73, 83
2, 26073, Note_on_c, 0, 61, 0
2, 26078, Note_on_c, 0, 71, 0
2, 26088, Note_on_c, 0, 62, 62
2, 26164, Note_on_c, 0, 61, 60
2, 26175, Note_on_c, 0, 62, 0
2, 26175, Note_on_c, 0, 76, 82
2, 26181, Note_on_c, 0, 73, 0
2, 26243, Note_on_c, 0, 61, 0
2, 26262, Note_on_c, 0, 62, 59
2, 26302, Note_on_c, 0, 76, 0
2, 26311, Note_on_c, 0, 69, 76
2, 26324, Note_on_c, 0, 61, 58
2, 26340, Note_on_c, 0, 62, 0
2, 26395, Note_on_c, 0, 61, 0
2, 26413, Note_on_c, 0, 73, 78
2, 26418, Note_on_c, 0, 62, 54
2, 26427, Note_on_c, 0, 69, 0
2, 26473, Note_on_c, 0, 61, 55
2, 26486, Note_on_c, 0, 62, 0
2, 26528, Note_on_c, 0, 76, 81
2, 26542, Note_on_c, 0, 61, 0
2, 26549, Note_on_c, 0, 73, 0
2, 26579, Note_on_c, 0, 62, 54
2, 26636, Note_on_c, 0, 61, 48
2, 26636, Note_on_c, 0, 62, 0
2, 26638, Note_on_c, 0, 79, 83
2, 26645, Note_on_c, 0, 76, 0
2, 26687, Note_on_c, 0, 61, 0
2, 26713, Note_on_c, 0, 62, 61
2, 26763, Note_on_c, 0, 78, 79
2, 26791, Note_on_c, 0, 79, 0
2, 26805, Note_on_c, 0, 62, 0
2, 26839, Note_on_c, 0, 61, 51
2, 26845, Note_on_c, 0, 59, 51
2, 26879, Note_on_c, 0, 76, 79
2, 26900, Note_on_c, 0, 59, 0
2, 26900, Note_on_c, 0, 78, 0
2, 26923, Note_on_c, 0, 76, 0
2, 26977, Note_on_c, 0, 61, 0
2, 26991, Note_on_c, 0, 60, 63
2, 27014, Note_on_c, 0, 76, 69
2, 27052, Note_on_c, 0, 78, 72
2, 27081, Note_on_c, 0, 76, 0
2, 27124, Note_on_c, 0, 60, 0
2, 27129, Note_on_c, 0, 78, 0
2, 27140, Note_on_c, 0, 57, 65
2, 27140, Note_on_c, 0, 79, 74
2, 27216, Note_on_c, 0, 79, 0
2, 27218, Note_on_c, 0, 78, 74
2, 27263, Note_on_c, 0, 57, 0
2, 27268, Note_on_c, 0, 54, 68
2, 27295, Note_on_c, 0, 78, 0
2, 27295, Note_on_c, 0, 79, 69
2, 27366, Note_on_c, 0, 78, 69
2, 27366, Note_on_c, 0, 79, 0
2, 27378, Note_on_c, 0, 54, 0
2, 27385, Note_on_c, 0, 52, 70
2, 27436, Note_on_c, 0, 78, 0
2, 27440, Note_on_c, 0, 79, 62
2, 27510, Note_on_c, 0, 54, 75
2, 27510, Note_on_c, 0, 78, 68
2, 27510, Note_on_c, 0, 79, 0
2, 27521, Note_on_c, 0, 52, 0
2, 27567, Note_on_c, 0, 78, 0
2, 27571, Note_on_c, 0, 79, 59
2, 27612, Note_on_c, 0, 54, 0
2, 27619, Note_on_c, 0, 57, 72
2, 27639, Note_on_c, 0, 78, 69
2, 27644, Note_on_c, 0, 79, 0
2, 27707, Note_on_c, 0, 78, 0
2, 27711, Note_on_c, 0, 79, 62
2, 27750, Note_on_c, 0, 57, 0
2, 27759, Note_on_c, 0, 50, 70
2, 27774, Note_on_c, 0, 78, 67
2, 27778, Note_on_c, 0, 79, 0
2, 27843, Note_on_c, 0, 78, 0
2, 27847, Note_on_c, 0, 79, 61
2, 27879, Note_on_c, 0, 54, 67
2, 27895, Note_on_c, 0, 50, 0
2, 27908, Note_on_c, 0, 78, 68
2, 27908, Note_on_c, 0, 79, 0
2, 27975, Note_on_c, 0, 78, 0
2, 27985, Note_on_c, 0, 79, 59
2, 28004, Note_on_c, 0, 57, 71
2, 28013, Note_on_c, 0, 54, 0
2, 28030, Note_on_c, 0, 78, 64
2, 28036, Note_on_c, 0, 79, 0
2, 28096, Note_on_c, 0, 78, 0
2, 28102, Note_on_c, 0, 57, 0
2, 28109, Note_on_c, 0, 79, 67
2, 28113, Note_on_c, 0, 60, 64
2, 28174, Note_on_c, 0, 78, 65
2, 28187, Note_on_c, 0, 79, 0
2, 28227, Note_on_c, 0, 60, 0
2, 28234, Note_on_c, 0, 59, 61
2, 28260, Note_on_c, 0, 78, 0
2, 28278, Note_on_c, 0, 76, 72
2, 28319, Note_on_c, 0, 59, 0
2, 28334, Note_on_c, 0, 57, 52
2, 28365, Note_on_c, 0, 57, 0
2, 28370, Note_on_c, 0, 78, 65
2, 28374, Note_on_c, 0, 76, 0
2, 28460, Note_on_c, 0, 79, 73
2, 28464, Note_on_c, 0, 57, 61
2, 28466, Note_on_c, 0, 78, 0
2, 28553, Note_on_c, 0, 59, 59
2, 28561, Note_on_c, 0, 57, 0
2, 28597, Note_on_c, 0, 79, 0
2, 28605, Note_on_c, 0, 74, 69
2, 28614, Note_on_c, 0, 59, 0
2, 28639, Note_on_c, 0, 60, 58
2, 28664, Control_c, 0, 64, 44
2, 28722, Note_on_c, 0, 74, 0
2, 28727, Note_on_c, 0, 59, 60
2, 28727, Note_on_c, 0, 60, 0
2, 28727, Note_on_c, 0, 71, 73
2, 28786, Note_on_c, 0, 59, 0
2, 28816, Note_on_c, 0, 60, 54
2, 28833, Note_on_c, 0, 71, 0
2, 28842, Note_on_c, 0, 69, 68
2, 28896, Note_on_c, 0, 59, 61
2, 28896, Note_on_c, 0, 60, 0
2, 28958, Note_on_c, 0, 59, 0
2, 28963, Note_on_c, 0, 71, 77
2, 28981, Note_on_c, 0, 69, 0
2, 28993, Note_on_c, 0, 60, 57
2, 29067, Note_on_c, 0, 60, 0
2, 29072, Note_on_c, 0, 59, 58
2, 29072, Note_on_c, 0, 71, 0
2, 29081, Note_on_c, 0, 74, 71
2, 29124, Note_on_c, 0, 59, 0
2, 29154, Note_on_c, 0, 60, 55
2, 29206, Note_on_c, 0, 74, 0
2, 29210, Note_on_c, 0, 67, 72
2, 29227, Note_on_c, 0, 59, 57
2, 29232, Note_on_c, 0, 60, 0
2, 29279, Note_on_c, 0, 59, 0
2, 29309, Note_on_c, 0, 60, 52
2, 29327, Note_on_c, 0, 67, 0
2, 29327, Note_on_c, 0, 71, 72
2, 29388, Note_on_c, 0, 59, 62
2, 29388, Note_on_c, 0, 60, 0
2, 29444, Note_on_c, 0, 59, 0
2, 29454, Note_on_c, 0, 74, 74
2, 29459, Note_on_c, 0, 71, 0
2, 29473, Note_on_c, 0, 60, 52
2, 29546, Note_on_c, 0, 59, 56
2, 29546, Note_on_c, 0, 60, 0
2, 29551, Note_on_c, 0, 74, 0
2, 29555, Note_on_c, 0, 77, 72
2, 29637, Note_on_c, 0, 59, 0
2, 29653, Note_on_c, 0, 60, 56
2, 29676, Note_on_c, 0, 75, 71
2, 29693, Note_on_c, 0, 77, 0
2, 29732, Note_on_c, 0, 57, 58
2, 29744, Note_on_c, 0, 60, 0
2, 29792, Note_on_c, 0, 74, 68
2, 29795, Note_on_c, 0, 75, 0
2, 29834, Note_on_c, 0, 57, 0
2, 29840, Note_on_c, 0, 59, 60
2, 29909, Note_on_c, 0, 74, 0
2, 29916, Note_on_c, 0, 60, 68
2, 29920, Note_on_c, 0, 59, 0
2, 29927, Note_on_c, 0, 75, 70
2, 29959, Note_on_c, 0, 60, 0
2, 30056, Note_on_c, 0, 72, 67
2, 30070, Note_on_c, 0, 75, 0
2, 30184, Note_on_c, 0, 69, 64
2, 30188, Note_on_c, 0, 72, 0
2, 30195, Note_on_c, 0, 63, 65
2, 30236, Note_on_c, 0, 63, 0
2, 30289, Note_on_c, 0, 69, 0
2, 30314, Note_on_c, 0, 67, 55
2, 30435, Note_on_c, 0, 60, 65
2, 30437, Note_on_c, 0, 69, 60
2, 30460, Note_on_c, 0, 67, 0
2, 30473, Note_on_c, 0, 60, 0
2, 30548, Note_on_c, 0, 69, 0
2, 30556, Note_on_c, 0, 72, 70
2, 30661, Note_on_c, 0, 72, 0
2, 30688, Note_on_c, 0, 57, 69
2, 30700, Note_on_c, 0, 65, 59
2, 30728, Note_on_c, 0, 57, 0
2, 30805, Note_on_c, 0, 69, 61
2, 30812, Note_on_c, 0, 65, 0
2, 30929, Note_on_c, 0, 72, 72
2, 30936, Note_on_c, 0, 53, 64
2, 30944, Note_on_c, 0, 69, 0
2, 30976, Note_on_c, 0, 53, 0
2, 31054, Note_on_c, 0, 72, 0
2, 31062, Note_on_c, 0, 75, 67
2, 31172, Note_on_c, 0, 74, 70
2, 31185, Note_on_c, 0, 57, 73
2, 31219, Note_on_c, 0, 75, 0
2, 31225, Note_on_c, 0, 57, 0
2, 31299, Note_on_c, 0, 72, 71
2, 31307, Note_on_c, 0, 74, 0
2, 31416, Note_on_c, 0, 72, 0
2, 31425, Note_on_c, 0, 58, 71
2, 31439, Note_on_c, 0, 74, 71
2, 31466, Note_on_c, 0, 58, 0
2, 31535, Note_on_c, 0, 70, 72
2, 31542, Note_on_c, 0, 74, 0
2, 31662, Note_on_c, 0, 70, 0
2, 31667, Note_on_c, 0, 67, 69
2, 31682, Note_on_c, 0, 62, 62
2, 31724, Note_on_c, 0, 62, 0
2, 31775, Note_on_c, 0, 67, 0
2, 31788, Note_on_c, 0, 66, 74
2, 31911, Note_on_c, 0, 67, 72
2, 31917, Note_on_c, 0, 58, 70
2, 31926, Note_on_c, 0, 66, 0
2, 31954, Note_on_c, 0, 58, 0
2, 32030, Note_on_c, 0, 67, 0
2, 32030, Note_on_c, 0, 70, 74
2, 32160, Note_on_c, 0, 55, 67
2, 32169, Note_on_c, 0, 63, 69
2, 32193, Note_on_c, 0, 70, 0
2, 32202, Note_on_c, 0, 55, 0
2, 32246, Note_on_c, 0, 63, 0
2, 32282, Note_on_c, 0, 67, 65
2, 32407, Note_on_c, 0, 70, 76
2, 32416, Note_on_c, 0, 51, 64
2, 32425, Note_on_c, 0, 67, 0
2, 32458, Note_on_c, 0, 51, 0
2, 32520, Note_on_c, 0, 74, 71
2, 32529, Note_on_c, 0, 70, 0
2, 32654, Note_on_c, 0, 72, 67
2, 32658, Note_on_c, 0, 55, 63
2, 32700, Note_on_c, 0, 74, 0
2, 32704, Note_on_c, 0, 55, 0
2, 32759, Note_on_c, 0, 70, 62
2, 32761, Note_on_c, 0, 72, 0
2, 32892, Note_on_c, 0, 70, 0
2, 32898, Note_on_c, 0, 57, 67
2, 32898, Note_on_c, 0, 72, 73
2, 32938, Note_on_c, 0, 57, 0
2, 33036, Note_on_c, 0, 69, 61
2, 33042, Note_on_c, 0, 72, 0
2, 33145, Note_on_c, 0, 66, 70
2, 33150, Note_on_c, 0, 69, 0
2, 33178, Note_on_c, 0, 60, 49
2, 33207, Note_on_c, 0, 60, 0
2, 33259, Note_on_c, 0, 66, 0
2, 33270, Note_on_c, 0, 64, 63
2, 33392, Note_on_c, 0, 57, 59
2, 33394, Note_on_c, 0, 66, 70
2, 33402, Note_on_c, 0, 64, 0
2, 33431, Note_on_c, 0, 57, 0
2, 33515, Note_on_c, 0, 66, 0
2, 33515, Note_on_c, 0, 69, 61
2, 33618, Note_on_c, 0, 54, 65
2, 33620, Note_on_c, 0, 69, 0
2, 33638, Note_on_c, 0, 62, 61
2, 33659, Note_on_c, 0, 54, 0
2, 33741, Note_on_c, 0, 62, 0
2, 33745, Note_on_c, 0, 66, 67
2, 33876, Note_on_c, 0, 69, 64
2, 33881, Note_on_c, 0, 50, 60
2, 33910, Note_on_c, 0, 66, 0
2, 33919, Note_on_c, 0, 50, 0
2, 33980, Note_on_c, 0, 69, 0
2, 33984, Note_on_c, 0, 72, 72
2, 34121, Note_on_c, 0, 54, 66
2, 34126, Note_on_c, 0, 70, 58
2, 34145, Note_on_c, 0, 72, 0
2, 34156, Note_on_c, 0, 54, 0
2, 34234, Note_on_c, 0, 69, 58
2, 34251, Note_on_c, 0, 70, 0
2, 34272, Note_on_c, 0, 69, 0
2, 34361, Note_on_c, 0, 55, 59
2, 34361, Note_on_c, 0, 69, 61
2, 34416, Note_on_c, 0, 70, 62
2, 34432, Note_on_c, 0, 69, 0
2, 34467, Note_on_c, 0, 55, 0
2, 34491, Note_on_c, 0, 50, 57
2, 34491, Note_on_c, 0, 70, 0
2, 34495, Note_on_c, 0, 72, 63
2, 34571, Note_on_c, 0, 70, 65
2, 34577, Note_on_c, 0, 72, 0
2, 34586, Note_on_c, 0, 50, 0
2, 34602, Note_on_c, 0, 46, 63
2, 34647, Note_on_c, 0, 70, 0
2, 34656, Note_on_c, 0, 72, 65
2, 34702, Note_on_c, 0, 46, 0
2, 34719, Note_on_c, 0, 45, 57
2, 34723, Note_on_c, 0, 70, 63
2, 34728, Note_on_c, 0, 72, 0
2, 34798, Note_on_c, 0, 70, 0
2, 34808, Note_on_c, 0, 72, 62
2, 34845, Note_on_c, 0, 45, 0
2, 34847, Note_on_c, 0, 46, 63
2, 34862, Note_on_c, 0, 70, 60
2, 34862, Note_on_c, 0, 72, 0
2, 34936, Note_on_c, 0, 70, 0
2, 34943, Note_on_c, 0, 46, 0
2, 34943, Note_on_c, 0, 72, 69
2, 34952, Note_on_c, 0, 50, 61
2, 35008, Note_on_c, 0, 70, 63
2, 35012, Note_on_c, 0, 72, 0
2, 35069, Note_on_c, 0, 50, 0
2, 35086, Note_on_c, 0, 70, 0
2, 35086, Note_on_c, 0, 72, 63
2, 35093, Note_on_c, 0, 43, 62
2, 35146, Note_on_c, 0, 70, 60
2, 35150, Note_on_c, 0, 72, 0
2, 35221, Note_on_c, 0, 46, 65
2, 35226, Note_on_c, 0, 70, 0
2, 35226, Note_on_c, 0, 72, 64
2, 35256, Note_on_c, 0, 43, 0
2, 35293, Note_on_c, 0, 72, 0
2, 35295, Note_on_c, 0, 70, 66
2, 35339, Note_on_c, 0, 50, 63
2, 35354, Note_on_c, 0, 46, 0
2, 35376, Note_on_c, 0, 70, 0
2, 35386, Note_on_c, 0, 72, 63
2, 35446, Note_on_c, 0, 70, 63
2, 35450, Note_on_c, 0, 72, 0
2, 35455, Note_on_c, 0, 50, 0
2, 35468, Note_on_c, 0, 53, 68
2, 35524, Note_on_c, 0, 70, 0
2, 35533, Note_on_c, 0, 72, 63
2, 35578, Note_on_c, 0, 52, 76
2, 35585, Note_on_c, 0, 53, 0
2, 35612, Note_on_c, 0, 70, 67
2, 35612, Note_on_c, 0, 72, 0
2, 35693, Note_on_c, 0, 50, 75
2, 35697, Note_on_c, 0, 70, 0
2, 35706, Note_on_c, 0, 52, 0
2, 35734, Note_on_c, 0, 72, 59
2, 35776, Note_on_c, 0, 64, 71
2, 35779, Note_on_c, 0, 50, 0
2, 35787, Note_on_c, 0, 72, 0
2, 35808, Note_on_c, 0, 48, 71
2, 35808, Note_on_c, 0, 70, 63
2, 35886, Note_on_c, 0, 70, 0
2, 35908, Note_on_c, 0, 72, 65
2, 35937, Note_on_c, 0, 48, 0
2, 35948, Note_on_c, 0, 43, 67
2, 35957, Note_on_c, 0, 72, 0
2, 35962, Note_on_c, 0, 70, 56
2, 36025, Note_on_c, 0, 70, 0
2, 36045, Note_on_c, 0, 43, 0
2, 36054, Note_on_c, 0, 40, 64
2, 36054, Note_on_c, 0, 72, 69
2, 36107, Note_on_c, 0, 72, 0
2, 36112, Note_on_c, 0, 70, 64
2, 36158, Note_on_c, 0, 40, 0
2, 36169, Note_on_c, 0, 38, 63
2, 36178, Note_on_c, 0, 70, 0
2, 36208, Note_on_c, 0, 72, 62
2, 36253, Note_on_c, 0, 70, 63
2, 36258, Note_on_c, 0, 72, 0
2, 36276, Note_on_c, 0, 40, 62
2, 36304, Note_on_c, 0, 38, 0
2, 36305, Control_c, 0, 64, 43
2, 36311, Note_on_c, 0, 70, 0
2, 36346, Note_on_c, 0, 72, 68
2, 36367, Note_on_c, 0, 40, 0
2, 36380, Note_on_c, 0, 43, 68
2, 36393, Note_on_c, 0, 72, 0
2, 36397, Note_on_c, 0, 70, 58
2, 36455, Note_on_c, 0, 70, 0
2, 36488, Note_on_c, 0, 72, 64
2, 36499, Note_on_c, 0, 43, 0
2, 36520, Note_on_c, 0, 36, 71
2, 36541, Note_on_c, 0, 72, 0
2, 36544, Note_on_c, 0, 70, 65
2, 36598, Note_on_c, 0, 70, 0
2, 36642, Note_on_c, 0, 36, 0
2, 36642, Note_on_c, 0, 72, 56
2, 36646, Note_on_c, 0, 43, 71
2, 36704, Note_on_c, 0, 70, 56
2, 36715, Note_on_c, 0, 43, 0
2, 36737, Note_on_c, 0, 48, 62
2, 36751, Note_on_c, 0, 70, 0
2, 36838, Note_on_c, 0, 48, 0
2, 36855, Note_on_c, 0, 52, 59
2, 36855, Note_on_c, 0, 70, 53
2, 36876, Control_c, 0, 64, 42
2, 36920, Note_on_c, 0, 72, 0
2, 36946, Note_on_c, 0, 70, 0
2, 36958, Note_on_c, 0, 50, 47
2, 36958, Note_on_c, 0, 69, 54
2, 36972, Note_on_c, 0, 52, 0
2, 36999, Note_on_c, 0, 64, 0
2, 37026, Note_on_c, 0, 70, 63
2, 37062, Note_on_c, 0, 69, 0
2, 37076, Note_on_c, 0, 48, 63
2, 37080, Note_on_c, 0, 50, 0
2, 37089, Note_on_c, 0, 70, 0
2, 37158, Note_on_c, 0, 69, 63
2, 37182, Note_on_c, 0, 48, 0
2, 37182, Note_on_c, 0, 63, 67
2, 37210, Note_on_c, 0, 53, 63
2, 37232, Note_on_c, 0, 63, 0
2, 37249, Note_on_c, 0, 65, 60
2, 37310, Note_on_c, 0, 53, 0
2, 37333, Note_on_c, 0, 65, 0
2, 37337, Note_on_c, 0, 48, 63
2, 37354, Note_on_c, 0, 63, 65
2, 37402, Note_on_c, 0, 63, 0
2, 37411, Note_on_c, 0, 65, 55
2, 37419, Note_on_c, 0, 48, 0
2, 37440, Note_on_c, 0, 45, 60
2, 37474, Note_on_c, 0, 65, 0
2, 37504, Note_on_c, 0, 63, 65
2, 37513, Control_c, 0, 64, 43
2, 37534, Note_on_c, 0, 45, 0
2, 37548, Note_on_c, 0, 63, 0
2, 37556, Note_on_c, 0, 43, 56
2, 37556, Note_on_c, 0, 65, 53
2, 37613, Note_on_c, 0, 65, 0
2, 37637, Note_on_c, 0, 63, 65
2, 37666, Note_on_c, 0, 45, 56
2, 37668, Note_on_c, 0, 43, 0
2, 37687, Note_on_c, 0, 63, 0
2, 37696, Note_on_c, 0, 65, 56
2, 37748, Note_on_c, 0, 45, 0
2, 37752, Note_on_c, 0, 65, 0
2, 37776, Note_on_c, 0, 63, 65
2, 37781, Note_on_c, 0, 48, 59
2, 37824, Note_on_c, 0, 63, 0
2, 37835, Note_on_c, 0, 65, 59
2, 37896, Note_on_c, 0, 48, 0
2, 37896, Note_on_c, 0, 65, 0
2, 37916, Note_on_c, 0, 63, 69
2, 37929, Note_on_c, 0, 41, 64
2, 37970, Note_on_c, 0, 63, 0
2, 37974, Note_on_c, 0, 65, 61
2, 38033, Note_on_c, 0, 65, 0
2, 38055, Note_on_c, 0, 41, 0
2, 38055, Note_on_c, 0, 48, 64
2, 38059, Note_on_c, 0, 63, 63
2, 38117, Note_on_c, 0, 63, 0
2, 38117, Note_on_c, 0, 65, 59
2, 38145, Note_on_c, 0, 48, 0
2, 38170, Note_on_c, 0, 65, 0
2, 38175, Note_on_c, 0, 53, 60
2, 38190, Note_on_c, 0, 63, 58
2, 38249, Note_on_c, 0, 65, 60
2, 38253, Note_on_c, 0, 63, 0
2, 38278, Control_c, 0, 64, 44
2, 38289, Note_on_c, 0, 53, 0
2, 38299, Note_on_c, 0, 57, 68
2, 38306, Note_on_c, 0, 65, 0
2, 38333, Note_on_c, 0, 63, 61
2, 38387, Note_on_c, 0, 65, 56
2, 38396, Note_on_c, 0, 63, 0
2, 38400, Note_on_c, 0, 57, 0
2, 38406, Note_on_c, 0, 55, 63
2, 38444, Note_on_c, 0, 65, 0
2, 38468, Note_on_c, 0, 63, 51
2, 38497, Note_on_c, 0, 63, 0
2, 38506, Note_on_c, 0, 53, 61
2, 38510, Note_on_c, 0, 55, 0
2, 38510, Note_on_c, 0, 62, 65
2, 38561, Note_on_c, 0, 53, 0
2, 38581, Note_on_c, 0, 69, 0
2, 38585, Note_on_c, 0, 63, 63
2, 38609, Note_on_c, 0, 62, 0
2, 38668, Note_on_c, 0, 63, 0
2, 38677, Note_on_c, 0, 57, 64
2, 38677, Note_on_c, 0, 62, 57
2, 38741, Note_on_c, 0, 57, 0
2, 38756, Note_on_c, 0, 58, 66
2, 38779, Control_c, 0, 64, 43
2, 38827, Note_on_c, 0, 58, 0
2, 38831, Note_on_c, 0, 69, 63
2, 38850, Note_on_c, 0, 62, 0
2, 38857, Note_on_c, 0, 60, 55
2, 38929, Note_on_c, 0, 65, 65
2, 38942, Note_on_c, 0, 60, 0
2, 38942, Note_on_c, 0, 69, 0
2, 38958, Note_on_c, 0, 58, 60
2, 39030, Note_on_c, 0, 58, 0
2, 39046, Note_on_c, 0, 64, 69
2, 39046, Note_on_c, 0, 65, 0
2, 39074, Note_on_c, 0, 60, 56
2, 39139, Note_on_c, 0, 60, 0
2, 39169, Note_on_c, 0, 58, 61
2, 39178, Note_on_c, 0, 65, 67
2, 39185, Note_on_c, 0, 64, 0
2, 39227, Note_on_c, 0, 58, 0
2, 39274, Note_on_c, 0, 60, 60
2, 39296, Note_on_c, 0, 69, 69
2, 39301, Note_on_c, 0, 65, 0
2, 39356, Note_on_c, 0, 60, 0
2, 39382, Note_on_c, 0, 58, 57
2, 39419, Note_on_c, 0, 62, 73
2, 39423, Note_on_c, 0, 69, 0
2, 39446, Note_on_c, 0, 58, 0
2, 39485, Note_on_c, 0, 60, 51
2, 39543, Note_on_c, 0, 62, 0
2, 39543, Note_on_c, 0, 65, 67
2, 39558, Note_on_c, 0, 60, 0
2, 39582, Note_on_c, 0, 58, 54
2, 39651, Note_on_c, 0, 58, 0
2, 39662, Note_on_c, 0, 69, 73
2, 39693, Note_on_c, 0, 60, 60
2, 39693, Note_on_c, 0, 65, 0
2, 39764, Note_on_c, 0, 60, 0
2, 39771, Note_on_c, 0, 72, 75
2, 39773, Note_on_c, 0, 69, 0
2, 39782, Note_on_c, 0, 58, 58
2, 39851, Note_on_c, 0, 58, 0
2, 39884, Note_on_c, 0, 60, 59
2, 39899, Note_on_c, 0, 70, 76
2, 39915, Note_on_c, 0, 72, 0
2, 39964, Note_on_c, 0, 60, 0
2, 39970, Note_on_c, 0, 58, 56
2, 40011, Note_on_c, 0, 69, 76
2, 40045, Note_on_c, 0, 70, 0
2, 40049, Note_on_c, 0, 58, 0
2, 40078, Note_on_c, 0, 60, 56
2, 40151, Note_on_c, 0, 69, 0
2, 40153, Note_on_c, 0, 67, 75
2, 40167, Note_on_c, 0, 60, 0
2, 40169, Note_on_c, 0, 58, 59
2, 40242, Note_on_c, 0, 58, 0
2, 40261, Note_on_c, 0, 60, 55
2, 40268, Note_on_c, 0, 74, 77
2, 40283, Note_on_c, 0, 67, 0
2, 40349, Note_on_c, 0, 60, 0
2, 40358, Note_on_c, 0, 58, 55
2, 40391, Note_on_c, 0, 70, 73
2, 40424, Note_on_c, 0, 58, 0
2, 40441, Note_on_c, 0, 74, 0
2, 40445, Note_on_c, 0, 60, 52
2, 40495, Note_on_c, 0, 69, 74
2, 40523, Note_on_c, 0, 70, 0
2, 40531, Note_on_c, 0, 58, 57
2, 40531, Note_on_c, 0, 60, 0
2, 40597, Note_on_c, 0, 58, 0
2, 40620, Note_on_c, 0, 60, 58
2, 40631, Note_on_c, 0, 70, 81
2, 40669, Note_on_c, 0, 69, 0
2, 40714, Note_on_c, 0, 58, 61
2, 40716, Note_on_c, 0, 60, 0
2, 40743, Note_on_c, 0, 74, 75
2, 40753, Note_on_c, 0, 70, 0
2, 40777, Note_on_c, 0, 58, 0
2, 40794, Note_on_c, 0, 60, 51
2, 40865, Note_on_c, 0, 67, 76
2, 40880, Note_on_c, 0, 58, 63
2, 40893, Note_on_c, 0, 60, 0
2, 40907, Note_on_c, 0, 74, 0
2, 40963, Note_on_c, 0, 58, 0
2, 40974, Note_on_c, 0, 60, 53
2, 40983, Note_on_c, 0, 70, 80
2, 41021, Note_on_c, 0, 67, 0
2, 41054, Note_on_c, 0, 58, 54
2, 41066, Note_on_c, 0, 60, 0
2, 41109, Note_on_c, 0, 74, 80
2, 41133, Note_on_c, 0, 58, 0
2, 41141, Note_on_c, 0, 70, 0
2, 41150, Note_on_c, 0, 60, 54
2, 41200, Control_c, 0, 64, 44
2, 41225, Note_on_c, 0, 77, 87
2, 41236, Note_on_c, 0, 58, 60
2, 41240, Note_on_c, 0, 74, 0
2, 41249, Note_on_c, 0, 60, 0
2, 41317, Note_on_c, 0, 58, 0
2, 41336, Note_on_c, 0, 60, 58
2, 41356, Note_on_c, 0, 76, 87
2, 41383, Note_on_c, 0, 77, 0
2, 41421, Note_on_c, 0, 58, 57
2, 41430, Note_on_c, 0, 60, 0
2, 41476, Note_on_c, 0, 74, 90
2, 41507, Note_on_c, 0, 58, 0
2, 41512, Note_on_c, 0, 76, 0
2, 41527, Note_on_c, 0, 60, 59
2, 41603, Note_on_c, 0, 58, 61
2, 41617, Note_on_c, 0, 60, 0
2, 41617, Note_on_c, 0, 76, 89
2, 41661, Note_on_c, 0, 74, 0
2, 41692, Note_on_c, 0, 58, 0
2, 41706, Note_on_c, 0, 60, 59
2, 41726, Note_on_c, 0, 79, 86
2, 41759, Note_on_c, 0, 76, 0
2, 41785, Note_on_c, 0, 58, 55
2, 41796, Note_on_c, 0, 60, 0
2, 41860, Note_on_c, 0, 76, 90
2, 41864, Note_on_c, 0, 58, 0
2, 41884, Note_on_c, 0, 60, 57
2, 41898, Note_on_c, 0, 79, 0
2, 41963, Note_on_c, 0, 58, 62
2, 41963, Note_on_c, 0, 74, 86
2, 41972, Note_on_c, 0, 60, 0
2, 41987, Note_on_c, 0, 76, 0
2, 42041, Note_on_c, 0, 58, 0
2, 42063, Note_on_c, 0, 60, 57
2, 42099, Note_on_c, 0, 76, 87
2, 42123, Note_on_c, 0, 58, 58
2, 42141, Note_on_c, 0, 74, 0
2, 42145, Note_on_c, 0, 60, 0
2, 42203, Note_on_c, 0, 79, 87
2, 42207, Note_on_c, 0, 58, 0
2, 42222, Note_on_c, 0, 60, 55
2, 42234, Note_on_c, 0, 76, 0
2, 42305, Note_on_c, 0, 58, 57
2, 42320, Note_on_c, 0, 60, 0
2, 42339, Note_on_c, 0, 72, 87
2, 42341, Note_on_c, 0, 79, 0
2, 42381, Note_on_c, 0, 58, 0
2, 42393, Note_on_c, 0, 60, 55
2, 42463, Note_on_c, 0, 76, 85
2, 42477, Note_on_c, 0, 58, 58
2, 42484, Note_on_c, 0, 72, 0
2, 42493, Note_on_c, 0, 60, 0
2, 42540, Note_on_c, 0, 58, 0
2, 42566, Note_on_c, 0, 60, 54
2, 42583, Note_on_c, 0, 79, 81
2, 42618, Note_on_c, 0, 76, 0
2, 42642, Note_on_c, 0, 58, 64
2, 42646, Note_on_c, 0, 60, 0
2, 42698, Note_on_c, 0, 82, 82
2, 42706, Note_on_c, 0, 79, 0
2, 42726, Note_on_c, 0, 58, 0
2, 42736, Note_on_c, 0, 60, 62
2, 42814, Note_on_c, 0, 81, 78
2, 42826, Note_on_c, 0, 60, 0
2, 42832, Note_on_c, 0, 58, 58
2, 42846, Note_on_c, 0, 82, 0
2, 42924, Note_on_c, 0, 79, 81
2, 42929, Note_on_c, 0, 57, 71
2, 42929, Note_on_c, 0, 58, 0
2, 42962, Note_on_c, 0, 81, 0
2, 42997, Note_on_c, 0, 57, 0
2, 43012, Note_on_c, 0, 58, 63
2, 43066, Note_on_c, 0, 58, 0
2, 43066, Note_on_c, 0, 84, 74
2, 43071, Note_on_c, 0, 57, 67
2, 43077, Note_on_c, 0, 79, 0
2, 43111, Note_on_c, 0, 57, 0
2, 43203, Note_on_c, 0, 81, 70
2, 43245, Note_on_c, 0, 84, 0
2, 43323, Note_on_c, 0, 60, 71
2, 43333, Note_on_c, 0, 77, 80
2, 43336, Note_on_c, 0, 81, 0
2, 43365, Note_on_c, 0, 60, 0
2, 43457, Note_on_c, 0, 76, 78
2, 43461, Note_on_c, 0, 77, 0
2, 43572, Note_on_c, 0, 57, 78
2, 43579, Note_on_c, 0, 77, 84
2, 43603, Note_on_c, 0, 76, 0
2, 43609, Note_on_c, 0, 57, 0
2, 43697, Note_on_c, 0, 77, 0
2, 43697, Note_on_c, 0, 81, 74
2, 43820, Note_on_c, 0, 53, 71
2, 43826, Note_on_c, 0, 74, 76
2, 43845, Note_on_c, 0, 81, 0
2, 43868, Note_on_c, 0, 53, 0
2, 43929, Note_on_c, 0, 77, 81
2, 43957, Note_on_c, 0, 74, 0
2, 44077, Note_on_c, 0, 81, 76
2, 44080, Note_on_c, 0, 50, 71
2, 44122, Note_on_c, 0, 77, 0
2, 44129, Note_on_c, 0, 50, 0
2, 44187, Note_on_c, 0, 84, 70
2, 44193, Note_on_c, 0, 81, 0
2, 44317, Note_on_c, 0, 53, 76
2, 44326, Note_on_c, 0, 82, 75
2, 44364, Note_on_c, 0, 53, 0
2, 44368, Note_on_c, 0, 84, 0
2, 44454, Note_on_c, 0, 81, 72
2, 44462, Note_on_c, 0, 82, 0
2, 44577, Note_on_c, 0, 55, 71
2, 44588, Note_on_c, 0, 82, 75
2, 44603, Note_on_c, 0, 81, 0
2, 44612, Note_on_c, 0, 55, 0
2, 44722, Note_on_c, 0, 79, 74
2, 44790, Note_on_c, 0, 82, 0
2, 44834, Note_on_c, 0, 76, 75
2, 44838, Note_on_c, 0, 58, 65
2, 44853, Note_on_c, 0, 79, 0
2, 44886, Note_on_c, 0, 58, 0
2, 44956, Note_on_c, 0, 76, 0
2, 44968, Note_on_c, 0, 74, 70
2, 45066, Note_on_c, 0, 55, 72
2, 45084, Note_on_c, 0, 76, 78
2, 45091, Note_on_c, 0, 74, 0
2, 45107, Note_on_c, 0, 55, 0
2, 45196, Note_on_c, 0, 76, 0
2, 45198, Note_on_c, 0, 79, 75
2, 45312, Note_on_c, 0, 52, 74
2, 45316, Note_on_c, 0, 79, 0
2, 45328, Note_on_c, 0, 72, 75
2, 45354, Note_on_c, 0, 52, 0
2, 45445, Note_on_c, 0, 76, 73
2, 45449, Note_on_c, 0, 72, 0
2, 45559, Note_on_c, 0, 48, 72
2, 45564, Note_on_c, 0, 79, 74
2, 45578, Note_on_c, 0, 76, 0
2, 45596, Note_on_c, 0, 48, 0
2, 45688, Note_on_c, 0, 82, 69
2, 45692, Note_on_c, 0, 79, 0
2, 45800, Note_on_c, 0, 52, 74
2, 45811, Note_on_c, 0, 81, 67
2, 45839, Note_on_c, 0, 52, 0
2, 45896, Note_on_c, 0, 82, 0
2, 45927, Note_on_c, 0, 81, 0
2, 45931, Note_on_c, 0, 79, 71
2, 46043, Note_on_c, 0, 53, 63
2, 46057, Note_on_c, 0, 79, 0
2, 46068, Note_on_c, 0, 81, 71
2, 46174, Note_on_c, 0, 48, 60
2, 46174, Note_on_c, 0, 53, 0
2, 46195, Note_on_c, 0, 77, 77
2, 46199, Note_on_c, 0, 81, 0
2, 46288, Note_on_c, 0, 48, 0
2, 46301, Note_on_c, 0, 45, 67
2, 46301, Note_on_c, 0, 77, 0
2, 46306, Note_on_c, 0, 72, 77
2, 46420, Note_on_c, 0, 45, 0
2, 46424, Note_on_c, 0, 43, 62
2, 46434, Note_on_c, 0, 70, 83
2, 46439, Note_on_c, 0, 72, 0
2, 46540, Note_on_c, 0, 45, 68
2, 46554, Note_on_c, 0, 43, 0
2, 46554, Note_on_c, 0, 72, 79
2, 46570, Note_on_c, 0, 70, 0
2, 46646, Note_on_c, 0, 45, 0
2, 46661, Note_on_c, 0, 48, 67
2, 46674, Note_on_c, 0, 77, 77
2, 46678, Note_on_c, 0, 72, 0
2, 46748, Control_c, 0, 64, 43
2, 46770, Note_on_c, 0, 48, 0
2, 46796, Note_on_c, 0, 41, 68
2, 46800, Note_on_c, 0, 69, 77
2, 46871, Note_on_c, 0, 77, 0
2, 46919, Note_on_c, 0, 72, 82
2, 46929, Note_on_c, 0, 45, 64
2, 46933, Note_on_c, 0, 69, 0
2, 46957, Note_on_c, 0, 41, 0
2, 47037, Note_on_c, 0, 45, 0
2, 47042, Note_on_c, 0, 48, 71
2, 47046, Note_on_c, 0, 75, 81
2, 47088, Note_on_c, 0, 72, 0
2, 47112, Control_c, 0, 64, 44
2, 47128, Note_on_c, 0, 48, 0
2, 47153, Note_on_c, 0, 51, 76
2, 47169, Note_on_c, 0, 79, 82
2, 47184, Note_on_c, 0, 75, 0
2, 47282, Note_on_c, 0, 51, 0
2, 47292, Note_on_c, 0, 50, 66
2, 47296, Note_on_c, 0, 77, 85
2, 47345, Note_on_c, 0, 79, 0
2, 47404, Note_on_c, 0, 48, 67
2, 47404, Note_on_c, 0, 75, 81
2, 47413, Note_on_c, 0, 50, 0
2, 47430, Note_on_c, 0, 77, 0
2, 47470, Note_on_c, 0, 75, 0
2, 47541, Note_on_c, 0, 48, 0
2, 47552, Note_on_c, 0, 53, 66
2, 47557, Note_on_c, 0, 75, 79
2, 47610, Note_on_c, 0, 75, 0
2, 47618, Note_on_c, 0, 74, 77
2, 47646, Note_on_c, 0, 53, 0
2, 47658, Note_on_c, 0, 50, 65
2, 47679, Note_on_c, 0, 75, 71
2, 47681, Note_on_c, 0, 74, 0
2, 47740, Note_on_c, 0, 75, 0
2, 47756, Note_on_c, 0, 74, 72
2, 47762, Note_on_c, 0, 50, 0
2, 47775, Note_on_c, 0, 46, 66
2, 47825, Note_on_c, 0, 74, 0
2, 47829, Note_on_c, 0, 75, 71
2, 47872, Note_on_c, 0, 75, 0
2, 47881, Note_on_c, 0, 46, 0
2, 47887, Note_on_c, 0, 74, 70
2, 47894, Note_on_c, 0, 45, 61
2, 47943, Note_on_c, 0, 75, 73
2, 47954, Note_on_c, 0, 74, 0
2, 47993, Note_on_c, 0, 75, 0
2, 47999, Note_on_c, 0, 45, 0
2, 47999, Note_on_c, 0, 46, 64
2, 48008, Note_on_c, 0, 74, 68
2, 48013, Control_c, 0, 64, 43
2, 48059, Note_on_c, 0, 75, 75
2, 48065, Note_on_c, 0, 74, 0
2, 48096, Note_on_c, 0, 46, 0
2, 48116, Note_on_c, 0, 50, 60
2, 48118, Note_on_c, 0, 74, 70
2, 48136, Note_on_c, 0, 75, 0
2, 48232, Note_on_c, 0, 50, 0
2, 48282, Note_on_c, 0, 41, 63
2, 48322, Control_c, 0, 64, 44
2, 48421, Note_on_c, 0, 46, 56
2, 48435, Note_on_c, 0, 41, 0
2, 48446, Note_on_c, 0, 72, 74
2, 48456, Control_c, 0, 64, 43
2, 48479, Note_on_c, 0, 74, 0
2, 48550, Note_on_c, 0, 70, 78
2, 48564, Note_on_c, 0, 50, 59
2, 48582, Note_on_c, 0, 46, 0
2, 48591, Note_on_c, 0, 72, 0
2, 48669, Note_on_c, 0, 69, 80
2, 48674, Note_on_c, 0, 50, 0
2, 48681, Note_on_c, 0, 70, 0
2, 48690, Note_on_c, 0, 53, 63
2, 48803, Note_on_c, 0, 67, 86
2, 48820, Note_on_c, 0, 52, 69
2, 48820, Note_on_c, 0, 53, 0
2, 48825, Note_on_c, 0, 69, 0
2, 48928, Note_on_c, 0, 65, 78
2, 48932, Note_on_c, 0, 67, 0
2, 48939, Note_on_c, 0, 50, 70
2, 48943, Note_on_c, 0, 52, 0
2, 48970, Note_on_c, 0, 65, 0
2, 49041, Note_on_c, 0, 50, 0
2, 49066, Note_on_c, 0, 52, 70
2, 49073, Note_on_c, 0, 70, 88
2, 49137, Note_on_c, 0, 70, 0
2, 49177, Note_on_c, 0, 52, 0
2, 49181, Note_on_c, 0, 48, 68
2, 49311, Note_on_c, 0, 46, 69
2, 49315, Note_on_c, 0, 48, 0
2, 49331, Note_on_c, 0, 79, 92
2, 49405, Note_on_c, 0, 79, 0
2, 49429, Note_on_c, 0, 46, 0
2, 49436, Note_on_c, 0, 45, 62
2, 49576, Note_on_c, 0, 45, 0
2, 49576, Note_on_c, 0, 46, 69
2, 49585, Note_on_c, 0, 76, 91
2, 49655, Note_on_c, 0, 76, 0
2, 49669, Note_on_c, 0, 46, 0
2, 49686, Note_on_c, 0, 52, 61
2, 49813, Note_on_c, 0, 52, 0
2, 49831, Note_on_c, 0, 43, 63
2, 49837, Note_on_c, 0, 72, 91
2, 49897, Note_on_c, 0, 72, 0
2, 49961, Note_on_c, 0, 46, 65
2, 49981, Note_on_c, 0, 43, 0
2, 50100, Note_on_c, 0, 70, 86
2, 50102, Note_on_c, 0, 52, 68
2, 50107, Note_on_c, 0, 46, 0
2, 50143, Note_on_c, 0, 70, 0
2, 50210, Note_on_c, 0, 52, 0
2, 50222, Note_on_c, 0, 55, 66
2, 50361, Note_on_c, 0, 53, 73
2, 50365, Note_on_c, 0, 55, 0
2, 50365, Note_on_c, 0, 79, 82
2, 50426, Note_on_c, 0, 79, 0
2, 50484, Note_on_c, 0, 52, 72
2, 50484, Note_on_c, 0, 53, 0
2, 50635, Note_on_c, 0, 52, 0
2, 50637, Note_on_c, 0, 53, 72
2, 50648, Note_on_c, 0, 69, 70
2, 50712, Note_on_c, 0, 53, 0
2, 50780, Note_on_c, 0, 67, 72
2, 50831, Note_on_c, 0, 69, 0
2, 50913, Note_on_c, 0, 65, 79
2, 50918, Note_on_c, 0, 45, 76
2, 50944, Note_on_c, 0, 67, 0
2, 50968, Note_on_c, 0, 45, 0
2, 51048, Note_on_c, 0, 64, 78
2, 51057, Note_on_c, 0, 65, 0
2, 51187, Note_on_c, 0, 65, 77
2, 51191, Note_on_c, 0, 50, 75
2, 51202, Note_on_c, 0, 64, 0
2, 51234, Note_on_c, 0, 50, 0
2, 51307, Note_on_c, 0, 65, 0
2, 51311, Note_on_c, 0, 69, 70
2, 51393, Control_c, 0, 64, 42
2, 51453, Control_c, 0, 64, 41
2, 51453, Note_on_c, 0, 45, 67
2, 51455, Note_on_c, 0, 69, 0
2, 51480, Note_on_c, 0, 62, 77
2, 51496, Note_on_c, 0, 46, 72
2, 51508, Control_c, 0, 64, 40
2, 51513, Note_on_c, 0, 45, 0
2, 51570, Note_on_c, 0, 46, 0
2, 51579, Note_on_c, 0, 48, 67
2, 51589, Note_on_c, 0, 65, 71
2, 51593, Note_on_c, 0, 62, 0
2, 51622, Control_c, 0, 64, 39
2, 51660, Note_on_c, 0, 46, 66
2, 51666, Note_on_c, 0, 48, 0
2, 51722, Note_on_c, 0, 65, 0
2, 51734, Note_on_c, 0, 62, 72
2, 51738, Note_on_c, 0, 46, 0
2, 51738, Note_on_c, 0, 48, 58
2, 51802, Note_on_c, 0, 46, 56
2, 51876, Note_on_c, 0, 58, 77
2, 51883, Note_on_c, 0, 45, 67
2, 51891, Note_on_c, 0, 46, 0
2, 51924, Note_on_c, 0, 48, 0
2, 51928, Note_on_c, 0, 62, 0
2, 51962, Note_on_c, 0, 46, 51
2, 51978, Note_on_c, 0, 45, 0
2, 52012, Note_on_c, 0, 48, 62
2, 52029, Note_on_c, 0, 46, 0
2, 52029, Note_on_c, 0, 55, 74
2, 52056, Note_on_c, 0, 58, 0
2, 52193, Note_on_c, 0, 64, 81
2, 52218, Control_c, 0, 64, 40
2, 52284, Note_on_c, 0, 55, 0
2, 52384, Note_on_c, 0, 41, 67
2, 52387, Note_on_c, 0, 48, 0
2, 52391, Note_on_c, 0, 65, 73
2, 52396, Note_on_c, 0, 64, 0
2, 52568, Note_on_c, 0, 58, 73
2, 52755, Note_on_c, 0, 57, 80
2, 52755, Note_on_c, 0, 58, 0
2, 52768, Note_on_c, 0, 65, 0
2, 52935, Note_on_c, 0, 55, 73
2, 52954, Note_on_c, 0, 57, 0
2, 53129, Note_on_c, 0, 57, 70
2, 53157, Note_on_c, 0, 55, 0
2, 53341, Note_on_c, 0, 57, 0
2, 53341, Note_on_c, 0, 60, 64
2, 53586, Note_on_c, 0, 53, 58
2, 53667, Note_on_c, 0, 60, 0
2, 53782, Note_on_c, 0, 41, 0
2, 53802, Note_on_c, 0, 48, 51
2, 54041, Note_on_c, 0, 45, 51
2, 54048, Note_on_c, 0, 48, 0
2, 54329, Note_on_c, 0, 48, 47
2, 54333, Note_on_c, 0, 45, 0
2, 54729, Note_on_c, 0, 41, 50
2, 54763, Note_on_c, 0, 53, 0
2, 54775, Note_on_c, 0, 48, 0
2, 55729, Note_on_c, 0, 41, 0
2, 56289, Control_c, 0, 64, 41
2, 57579,End_track
0, 0, End_of_file
