0, 0, Header, 1, 2, 480
1, 0, Start_track
1, 0, Tempo, 500000
1, 0, Time_signature, 4, 2, 24, 8
1, 1, End_track
2,0,Start_track
2,0, Note_on_c, 0, 60, 64
2,54, Note_on_c, 0, 60, 0
2,348, Note_on_c, 0, 62, 70
2,534, Control_c, 0, 64, 42
2,685, Note_on_c, 0, 60, 66
2,700, Note_on_c, 0, 62, 0
2,731, Note_on_c, 0, 60, 0
2,982, Note_on_c, 0, 58, 65
2,1034, Note_on_c, 0, 58, 0
2,1299, Note_on_c, 0, 60, 59
2,1401, Note_on_c, 0, 60, 0
2,1616, Note_on_c, 0, 52, 56
2,1739, Note_on_c, 0, 52, 0
2,1757, Note_on_c, 0, 53, 59
2,1917, Note_on_c, 0, 53, 0
2,1917, Note_on_c, 0, 55, 68
2,2030, Note_on_c, 0, 55, 0
2,2048, Note_on_c, 0, 57, 69
2,2099, Note_on_c, 0, 57, 0
2,2226, Note_on_c, 0, 58, 68
2,2284, Note_on_c, 0, 58, 0
2,2546, Note_on_c, 0, 60, 61
2,2673, Note_on_c, 0, 58, 66
2,2677, Note_on_c, 0, 60, 0
2,2819, Note_on_c, 0, 57, 73
2,2826, Note_on_c, 0, 58, 0
2,2946, Note_on_c, 0, 57, 0
2,2950, Note_on_c, 0, 55, 70
2,3020, Note_on_c, 0, 55, 0
2,3115, Note_on_c, 0, 57, 63
2,3241, Note_on_c, 0, 57, 0
2,3255, Note_on_c, 0, 55, 67
2,3399, Note_on_c, 0, 53, 69
2,3403, Note_on_c, 0, 55, 0
2,3527, Note_on_c, 0, 53, 0
2,3538, Note_on_c, 0, 55, 63
2,3655, Note_on_c, 0, 55, 0
2,3684, Note_on_c, 0, 65, 78
2,3689, Note_on_c, 0, 57, 65
2,3758, Note_on_c, 0, 65, 0
2,3795, Note_on_c, 0, 57, 0
2,3823, Note_on_c, 0, 58, 60
2,3966, Note_on_c, 0, 58, 0
2,3973, Note_on_c, 0, 60, 60
2,3989, Note_on_c, 0, 69, 78
2,4028, Control_c, 0, 64, 41
2,4102, Note_on_c, 0, 60, 0
2,4121, Note_on_c, 0, 58, 63
2,4264, Note_on_c, 0, 58, 0
2,4282, Note_on_c, 0, 57, 61
2,4282, Note_on_c, 0, 67, 78
2,4319, Note_on_c, 0, 69, 0
2,4370, Note_on_c, 0, 67, 0
2,4402, Note_on_c, 0, 57, 0
2,4409, Note_on_c, 0, 58, 65
2,4563, Note_on_c, 0, 65, 72
2,4568, Note_on_c, 0, 60, 61
2,4589, Note_on_c, 0, 58, 0
2,4633, Note_on_c, 0, 65, 0
2,4666, Note_on_c, 0, 60, 0
2,4699, Note_on_c, 0, 62, 62
2,4840, Note_on_c, 0, 62, 0
2,4861, Note_on_c, 0, 67, 76
2,4868, Note_on_c, 0, 64, 65
2,4917, Note_on_c, 0, 67, 0
2,4965, Note_on_c, 0, 64, 0
2,4998, Note_on_c, 0, 67, 59
2,5125, Note_on_c, 0, 67, 0
2,5143, Note_on_c, 0, 65, 63
2,5160, Note_on_c, 0, 59, 72
2,5288, Note_on_c, 0, 59, 0
2,5292, Note_on_c, 0, 60, 69
2,5292, Note_on_c, 0, 65, 0
2,5307, Note_on_c, 0, 64, 64
2,5436, Note_on_c, 0, 62, 80
2,5445, Note_on_c, 0, 64, 0
2,5481, Note_on_c, 0, 60, 0
2,5569, Note_on_c, 0, 64, 81
2,5573, Note_on_c, 0, 62, 0
2,5578, Note_on_c, 0, 60, 56
2,5606, Note_on_c, 0, 64, 0
2,5619, Note_on_c, 0, 60, 0
2,5711, Note_on_c, 0, 60, 69
2,5734, Note_on_c, 0, 65, 69
2,5775, Note_on_c, 0, 59, 73
2,5775, Note_on_c, 0, 60, 0
2,5784, Note_on_c, 0, 65, 0
2,5838, Note_on_c, 0, 59, 0
2,5860, Note_on_c, 0, 60, 52
2,5928, Note_on_c, 0, 59, 56
2,5938, Note_on_c, 0, 60, 0
2,6000, Note_on_c, 0, 67, 76
2,6004, Note_on_c, 0, 59, 0
2,6022, Note_on_c, 0, 60, 57
2,6104, Note_on_c, 0, 59, 62
2,6108, Note_on_c, 0, 60, 0
2,6145, Note_on_c, 0, 65, 70
2,6150, Note_on_c, 0, 67, 0
2,6161, Note_on_c, 0, 59, 0
2,6201, Note_on_c, 0, 60, 57
2,6275, Note_on_c, 0, 59, 59
2,6280, Note_on_c, 0, 64, 79
2,6280, Note_on_c, 0, 65, 0
2,6347, Note_on_c, 0, 59, 0
2,6380, Note_on_c, 0, 57, 56
2,6380, Note_on_c, 0, 60, 0
2,6380, Note_on_c, 0, 60, 22
2,6403, Note_on_c, 0, 62, 73
2,6445, Note_on_c, 0, 64, 0
2,6454, Note_on_c, 0, 60, 0
2,6468, Note_on_c, 0, 59, 66
2,6474, Note_on_c, 0, 62, 0
2,6496, Note_on_c, 0, 57, 0
2,6570, Note_on_c, 0, 59, 0
2,6579, Note_on_c, 0, 60, 71
2,6579, Note_on_c, 0, 64, 78
2,6621, Note_on_c, 0, 60, 0
2,6705, Note_on_c, 0, 62, 68
2,6712, Note_on_c, 0, 64, 0
2,6851, Note_on_c, 0, 58, 74
2,6855, Note_on_c, 0, 60, 70
2,6855, Note_on_c, 0, 62, 0
2,6919, Note_on_c, 0, 58, 0
2,6984, Note_on_c, 0, 62, 75
2,6989, Note_on_c, 0, 60, 0
2,7147, Note_on_c, 0, 64, 79
2,7149, Note_on_c, 0, 57, 77
2,7187, Note_on_c, 0, 57, 0
2,7226, Note_on_c, 0, 62, 0
2,7267, Note_on_c, 0, 65, 73
2,7293, Note_on_c, 0, 64, 0
2,7436, Note_on_c, 0, 67, 78
2,7441, Note_on_c, 0, 58, 66
2,7484, Note_on_c, 0, 65, 0
2,7524, Note_on_c, 0, 67, 0
2,7551, Note_on_c, 0, 57, 69
2,7558, Note_on_c, 0, 58, 0
2,7712, Note_on_c, 0, 55, 70
2,7724, Note_on_c, 0, 57, 0
2,7733, Note_on_c, 0, 65, 80
2,7806, Note_on_c, 0, 65, 0
2,7821, Note_on_c, 0, 55, 0
2,7844, Note_on_c, 0, 57, 67
2,8016, Note_on_c, 0, 48, 75
2,8016, Note_on_c, 0, 57, 0
2,8020, Note_on_c, 0, 58, 67
2,8024, Note_on_c, 0, 64, 73
2,8062, Note_on_c, 0, 48, 0
2,8147, Note_on_c, 0, 60, 68
2,8158, Note_on_c, 0, 58, 0
2,8162, Note_on_c, 0, 64, 0
2,8313, Note_on_c, 0, 60, 0
2,8327, Note_on_c, 0, 50, 77
2,8331, Note_on_c, 0, 65, 66
2,8338, Note_on_c, 0, 57, 65
2,8478, Note_on_c, 0, 64, 75
2,8485, Note_on_c, 0, 57, 0
2,8531, Note_on_c, 0, 65, 0
2,8558, Control_c, 0, 64, 40
2,8610, Note_on_c, 0, 64, 0
2,8626, Note_on_c, 0, 48, 74
2,8626, Note_on_c, 0, 62, 75
2,8638, Note_on_c, 0, 50, 0
2,8671, Note_on_c, 0, 48, 0
2,8749, Note_on_c, 0, 64, 79
2,8753, Note_on_c, 0, 62, 0
2,8901, Note_on_c, 0, 46, 74
2,8901, Note_on_c, 0, 65, 74
2,8908, Note_on_c, 0, 64, 0
2,8957, Note_on_c, 0, 46, 0
2,9020, Note_on_c, 0, 67, 76
2,9043, Note_on_c, 0, 65, 0
2,9082, Note_on_c, 0, 67, 0
2,9180, Note_on_c, 0, 48, 67
2,9184, Note_on_c, 0, 69, 77
2,9197, Note_on_c, 0, 64, 62
2,9229, Note_on_c, 0, 48, 0
2,9237, Note_on_c, 0, 64, 0
2,9239, Note_on_c, 0, 69, 0
2,9305, Note_on_c, 0, 72, 76
2,9452, Note_on_c, 0, 40, 65
2,9461, Note_on_c, 0, 72, 0
2,9464, Note_on_c, 0, 70, 73
2,9472, Note_on_c, 0, 67, 63
2,9584, Note_on_c, 0, 40, 0
2,9593, Note_on_c, 0, 41, 70
2,9593, Note_on_c, 0, 69, 74
2,9628, Note_on_c, 0, 67, 0
2,9628, Note_on_c, 0, 70, 0
2,9635, Note_on_c, 0, 69, 0
2,9733, Note_on_c, 0, 43, 74
2,9746, Note_on_c, 0, 41, 0
2,9751, Note_on_c, 0, 67, 81
2,9767, Note_on_c, 0, 60, 70
2,9825, Note_on_c, 0, 60, 0
2,9859, Note_on_c, 0, 43, 0
2,9868, Note_on_c, 0, 45, 66
2,9875, Note_on_c, 0, 65, 73
2,9893, Note_on_c, 0, 67, 0
2,9938, Note_on_c, 0, 65, 0
2,10030, Note_on_c, 0, 46, 72
2,10034, Note_on_c, 0, 45, 0
2,10034, Note_on_c, 0, 65, 75
2,10050, Note_on_c, 0, 60, 63
2,10071, Note_on_c, 0, 46, 0
2,10092, Note_on_c, 0, 64, 72
2,10103, Note_on_c, 0, 65, 0
2,10167, Note_on_c, 0, 64, 0
2,10184, Note_on_c, 0, 65, 58
2,10237, Note_on_c, 0, 64, 66
2,10244, Note_on_c, 0, 65, 0
2,10313, Note_on_c, 0, 60, 0
2,10317, Note_on_c, 0, 64, 0
2,10337, Note_on_c, 0, 48, 64
2,10342, Note_on_c, 0, 65, 62
2,10391, Note_on_c, 0, 64, 65
2,10400, Note_on_c, 0, 65, 0
2,10441, Note_on_c, 0, 48, 0
2,10448, Note_on_c, 0, 46, 64
2,10472, Note_on_c, 0, 64, 0
2,10487, Note_on_c, 0, 65, 61
2,10555, Note_on_c, 0, 64, 59
2,10555, Note_on_c, 0, 65, 0
2,10571, Note_on_c, 0, 46, 0
2,10573, Note_on_c, 0, 45, 63
2,10613, Note_on_c, 0, 64, 0
2,10641, Note_on_c, 0, 65, 34
2,10677, Note_on_c, 0, 45, 0
2,10677, Note_on_c, 0, 64, 44
2,10688, Note_on_c, 0, 65, 0
2,10713, Note_on_c, 0, 43, 59
2,10735, Note_on_c, 0, 64, 0
2,10749, Note_on_c, 0, 62, 65
2,10814, Note_on_c, 0, 64, 58
2,10827, Note_on_c, 0, 62, 0
2,10838, Note_on_c, 0, 43, 0
2,10869, Note_on_c, 0, 45, 49
2,10892, Note_on_c, 0, 65, 60
2,10905, Note_on_c, 0, 64, 0
2,10919, Note_on_c, 0, 60, 21
2,10959, Note_on_c, 0, 65, 0
2,10982, Note_on_c, 0, 45, 0
2,11003, Note_on_c, 0, 43, 52
2,11143, Note_on_c, 0, 43, 0
2,11161, Note_on_c, 0, 41, 56
2,11170, Note_on_c, 0, 69, 62
2,11298, Note_on_c, 0, 41, 0
2,11307, Note_on_c, 0, 43, 56
2,11386, Note_on_c, 0, 60, 0
2,11414, Note_on_c, 0, 43, 0
2,11456, Note_on_c, 0, 65, 61
2,11461, Note_on_c, 0, 45, 53
2,11538, Note_on_c, 0, 65, 0
2,11562, Note_on_c, 0, 45, 0
2,11585, Note_on_c, 0, 46, 57
2,11724, Note_on_c, 0, 46, 0
2,11742, Note_on_c, 0, 67, 69
2,11748, Note_on_c, 0, 64, 59
2,11753, Note_on_c, 0, 48, 50
2,11753, Note_on_c, 0, 69, 0
2,11807, Note_on_c, 0, 67, 0
2,11867, Note_on_c, 0, 48, 0
2,11890, Note_on_c, 0, 47, 54
2,12028, Note_on_c, 0, 47, 0
2,12053, Note_on_c, 0, 45, 52
2,12053, Note_on_c, 0, 72, 79
2,12169, Note_on_c, 0, 45, 0
2,12183, Note_on_c, 0, 47, 57
2,12205, Note_on_c, 0, 64, 0
2,12332, Note_on_c, 0, 47, 0
2,12336, Note_on_c, 0, 48, 59
2,12336, Note_on_c, 0, 69, 68
2,12403, Note_on_c, 0, 69, 0
2,12421, Note_on_c, 0, 48, 0
2,12444, Note_on_c, 0, 50, 57
2,12561, Note_on_c, 0, 50, 0
2,12607, Note_on_c, 0, 52, 64
2,12614, Note_on_c, 0, 71, 73
2,12618, Note_on_c, 0, 67, 65
2,12618, Note_on_c, 0, 72, 0
2,12674, Note_on_c, 0, 71, 0
2,12717, Note_on_c, 0, 52, 0
2,12750, Note_on_c, 0, 55, 59
2,12892, Note_on_c, 0, 55, 0
2,12914, Note_on_c, 0, 53, 62
2,12914, Note_on_c, 0, 76, 84
2,12998, Note_on_c, 0, 67, 0
2,13040, Note_on_c, 0, 53, 0
2,13043, Note_on_c, 0, 52, 64
2,13143, Note_on_c, 0, 52, 0
2,13175, Note_on_c, 0, 50, 61
2,13197, Note_on_c, 0, 72, 75
2,13287, Note_on_c, 0, 72, 0
2,13292, Note_on_c, 0, 50, 0
2,13304, Note_on_c, 0, 48, 58
2,13345, Note_on_c, 0, 48, 0
2,13469, Note_on_c, 0, 48, 50
2,13514, Note_on_c, 0, 74, 68
2,13525, Note_on_c, 0, 48, 0
2,13533, Note_on_c, 0, 47, 67
2,13587, Note_on_c, 0, 47, 0
2,13594, Note_on_c, 0, 76, 0
2,13633, Note_on_c, 0, 48, 54
2,13650, Note_on_c, 0, 72, 68
2,13684, Note_on_c, 0, 48, 0
2,13695, Note_on_c, 0, 47, 61
2,13754, Note_on_c, 0, 47, 0
2,13778, Note_on_c, 0, 71, 76
2,13787, Note_on_c, 0, 48, 65
2,13802, Note_on_c, 0, 72, 0
2,13827, Note_on_c, 0, 74, 0
2,13852, Note_on_c, 0, 47, 60
2,13856, Note_on_c, 0, 48, 0
2,13905, Note_on_c, 0, 69, 70
2,13909, Note_on_c, 0, 71, 0
2,13943, Note_on_c, 0, 47, 0
2,13948, Note_on_c, 0, 48, 57
2,13983, Note_on_c, 0, 69, 0
2,14026, Note_on_c, 0, 67, 80
2,14033, Note_on_c, 0, 45, 55
2,14112, Note_on_c, 0, 48, 0
2,14124, Note_on_c, 0, 47, 63
2,14149, Note_on_c, 0, 65, 72
2,14164, Note_on_c, 0, 45, 0
2,14169, Note_on_c, 0, 67, 0
2,14211, Note_on_c, 0, 65, 0
2,14266, Note_on_c, 0, 47, 0
2,14272, Note_on_c, 0, 48, 70
2,14301, Note_on_c, 0, 64, 78
2,14324, Note_on_c, 0, 48, 0
2,14404, Note_on_c, 0, 64, 0
2,14429, Note_on_c, 0, 74, 72
2,14547, Note_on_c, 0, 50, 72
2,14570, Note_on_c, 0, 72, 78
2,14617, Note_on_c, 0, 74, 0
2,14663, Note_on_c, 0, 50, 0
2,14680, Note_on_c, 0, 52, 73
2,14683, Note_on_c, 0, 70, 76
2,14733, Note_on_c, 0, 72, 0
2,14768, Note_on_c, 0, 70, 0
2,14805, Note_on_c, 0, 52, 0
2,14823, Note_on_c, 0, 53, 81
2,14850, Note_on_c, 0, 69, 72
2,14854, Note_on_c, 0, 72, 81
2,14870, Note_on_c, 0, 53, 0
2,14934, Control_c, 0, 64, 41
2,14965, Note_on_c, 0, 72, 0
2,14974, Note_on_c, 0, 67, 67
2,14974, Note_on_c, 0, 69, 0
2,15088, Note_on_c, 0, 67, 0
2,15146, Note_on_c, 0, 58, 83
2,15151, Note_on_c, 0, 65, 71
2,15151, Note_on_c, 0, 74, 75
2,15289, Note_on_c, 0, 64, 72
2,15301, Note_on_c, 0, 74, 0
2,15309, Note_on_c, 0, 65, 0
2,15333, Note_on_c, 0, 64, 0
2,15435, Note_on_c, 0, 72, 76
2,15438, Note_on_c, 0, 62, 75
2,15481, Note_on_c, 0, 62, 0
2,15534, Note_on_c, 0, 72, 0
2,15548, Note_on_c, 0, 64, 74
2,15592, Note_on_c, 0, 64, 0
2,15704, Note_on_c, 0, 65, 69
2,15708, Note_on_c, 0, 70, 73
2,15744, Note_on_c, 0, 65, 0
2,15751, Note_on_c, 0, 70, 0
2,15823, Note_on_c, 0, 67, 73
2,15869, Note_on_c, 0, 67, 0
2,15993, Note_on_c, 0, 69, 66
2,15999, Note_on_c, 0, 57, 63
2,16002, Note_on_c, 0, 72, 70
2,16044, Note_on_c, 0, 58, 0
2,16081, Note_on_c, 0, 69, 0
2,16081, Note_on_c, 0, 72, 0
2,16127, Note_on_c, 0, 57, 0
2,16146, Note_on_c, 0, 60, 56
2,16279, Note_on_c, 0, 64, 72
2,16282, Note_on_c, 0, 60, 0
2,16293, Note_on_c, 0, 58, 61
2,16387, Note_on_c, 0, 64, 0
2,16415, Note_on_c, 0, 65, 69
2,16424, Note_on_c, 0, 57, 71
2,16438, Note_on_c, 0, 58, 0
2,16524, Note_on_c, 0, 57, 0
2,16547, Note_on_c, 0, 55, 64
2,16563, Note_on_c, 0, 67, 75
2,16580, Note_on_c, 0, 65, 0
2,16675, Note_on_c, 0, 53, 66
2,16675, Note_on_c, 0, 55, 0
2,16681, Note_on_c, 0, 69, 73
2,16703, Note_on_c, 0, 67, 0
2,16719, Note_on_c, 0, 53, 0
2,16736, Note_on_c, 0, 69, 0
2,16820, Note_on_c, 0, 53, 62
2,16854, Note_on_c, 0, 70, 73
2,16875, Note_on_c, 0, 52, 64
2,16877, Note_on_c, 0, 53, 0
2,16942, Note_on_c, 0, 52, 0
2,16942, Note_on_c, 0, 70, 0
2,16964, Note_on_c, 0, 53, 56
2,17034, Note_on_c, 0, 52, 60
2,17044, Note_on_c, 0, 53, 0
2,17100, Note_on_c, 0, 52, 0
2,17131, Note_on_c, 0, 53, 52
2,17133, Note_on_c, 0, 72, 79
2,17185, Note_on_c, 0, 52, 57
2,17202, Note_on_c, 0, 53, 0
2,17265, Note_on_c, 0, 52, 0
2,17274, Note_on_c, 0, 70, 76
2,17274, Note_on_c, 0, 72, 0
2,17298, Note_on_c, 0, 53, 65
2,17360, Note_on_c, 0, 52, 53
2,17410, Note_on_c, 0, 69, 71
2,17422, Note_on_c, 0, 70, 0
2,17470, Note_on_c, 0, 52, 0
2,17474, Note_on_c, 0, 50, 56
2,17532, Note_on_c, 0, 67, 67
2,17550, Note_on_c, 0, 69, 0
2,17569, Note_on_c, 0, 53, 0
2,17574, Note_on_c, 0, 50, 0
2,17576, Note_on_c, 0, 52, 55
2,17591, Note_on_c, 0, 67, 0
2,17668, Note_on_c, 0, 52, 0
2,17683, Note_on_c, 0, 53, 57
2,17690, Note_on_c, 0, 69, 61
2,17821, Note_on_c, 0, 69, 0
2,17828, Note_on_c, 0, 67, 59
2,17939, Note_on_c, 0, 53, 0
2,17971, Note_on_c, 0, 67, 0
2,17976, Note_on_c, 0, 65, 64
2,18022, Control_c, 0, 64, 42
2,18084, Note_on_c, 0, 65, 0
2,18108, Note_on_c, 0, 67, 71
2,18248, Note_on_c, 0, 69, 74
2,18252, Note_on_c, 0, 67, 0
2,18257, Note_on_c, 0, 65, 78
2,18310, Note_on_c, 0, 65, 0
2,18372, Note_on_c, 0, 70, 76
2,18379, Note_on_c, 0, 69, 0
2,18470, Note_on_c, 0, 70, 0
2,18541, Note_on_c, 0, 69, 79
2,18547, Note_on_c, 0, 72, 79
2,18686, Note_on_c, 0, 70, 76
2,18717, Note_on_c, 0, 72, 0
2,18767, Note_on_c, 0, 69, 0
2,18842, Note_on_c, 0, 69, 66
2,18847, Note_on_c, 0, 67, 82
2,18852, Note_on_c, 0, 70, 0
2,18910, Note_on_c, 0, 67, 0
2,18977, Note_on_c, 0, 70, 75
2,18986, Note_on_c, 0, 69, 0
2,19113, Note_on_c, 0, 70, 0
2,19117, Note_on_c, 0, 72, 71
2,19128, Note_on_c, 0, 65, 76
2,19181, Note_on_c, 0, 65, 0
2,19222, Note_on_c, 0, 72, 0
2,19249, Note_on_c, 0, 74, 70
2,19326, Note_on_c, 0, 74, 0
2,19405, Note_on_c, 0, 76, 78
2,19414, Note_on_c, 0, 67, 71
2,19460, Note_on_c, 0, 67, 0
2,19465, Note_on_c, 0, 76, 0
2,19536, Note_on_c, 0, 79, 72
2,19636, Control_c, 0, 64, 41
2,19681, Note_on_c, 0, 59, 65
2,19698, Note_on_c, 0, 77, 75
2,19805, Note_on_c, 0, 79, 0
2,19820, Note_on_c, 0, 60, 68
2,19820, Note_on_c, 0, 76, 77
2,19824, Note_on_c, 0, 59, 0
2,19871, Note_on_c, 0, 77, 0
2,19946, Note_on_c, 0, 62, 77
2,19953, Note_on_c, 0, 74, 77
2,19964, Note_on_c, 0, 60, 0
2,19986, Note_on_c, 0, 76, 0
2,20074, Note_on_c, 0, 62, 0
2,20077, Note_on_c, 0, 72, 78
2,20081, Note_on_c, 0, 64, 76
2,20086, Note_on_c, 0, 74, 0
2,20140, Note_on_c, 0, 72, 0
2,20224, Note_on_c, 0, 72, 71
2,20232, Note_on_c, 0, 65, 73
2,20245, Note_on_c, 0, 64, 0
2,20272, Note_on_c, 0, 72, 0
2,20277, Note_on_c, 0, 65, 0
2,20277, Note_on_c, 0, 71, 71
2,20350, Note_on_c, 0, 71, 0
2,20370, Note_on_c, 0, 72, 74
2,20423, Note_on_c, 0, 72, 0
2,20438, Note_on_c, 0, 71, 68
2,20493, Note_on_c, 0, 71, 0
2,20510, Note_on_c, 0, 72, 66
2,20543, Note_on_c, 0, 67, 73
2,20569, Note_on_c, 0, 71, 68
2,20569, Note_on_c, 0, 72, 0
2,20626, Note_on_c, 0, 71, 0
2,20649, Note_on_c, 0, 72, 56
2,20666, Note_on_c, 0, 67, 0
2,20670, Note_on_c, 0, 65, 67
2,20690, Note_on_c, 0, 71, 66
2,20694, Note_on_c, 0, 72, 0
2,20743, Note_on_c, 0, 71, 0
2,20774, Note_on_c, 0, 72, 67
2,20789, Note_on_c, 0, 64, 76
2,20809, Note_on_c, 0, 65, 0
2,20817, Note_on_c, 0, 72, 0
2,20821, Note_on_c, 0, 71, 70
2,20892, Note_on_c, 0, 71, 0
2,20922, Note_on_c, 0, 64, 0
2,20927, Note_on_c, 0, 69, 60
2,20931, Note_on_c, 0, 62, 64
2,20976, Note_on_c, 0, 69, 0
2,20983, Note_on_c, 0, 71, 63
2,21078, Note_on_c, 0, 62, 0
2,21099, Note_on_c, 0, 64, 65
2,21099, Note_on_c, 0, 71, 0
2,21104, Note_on_c, 0, 72, 75
2,21210, Note_on_c, 0, 72, 0
2,21219, Note_on_c, 0, 64, 0
2,21231, Note_on_c, 0, 74, 69
2,21236, Note_on_c, 0, 62, 71
2,21362, Note_on_c, 0, 62, 0
2,21369, Note_on_c, 0, 60, 72
2,21373, Note_on_c, 0, 76, 72
2,21377, Note_on_c, 0, 74, 0
2,21494, Note_on_c, 0, 62, 82
2,21498, Note_on_c, 0, 77, 79
2,21508, Note_on_c, 0, 60, 0
2,21533, Note_on_c, 0, 76, 0
2,21578, Note_on_c, 0, 62, 0
2,21633, Note_on_c, 0, 64, 78
2,21636, Note_on_c, 0, 60, 77
2,21649, Note_on_c, 0, 79, 79
2,21656, Note_on_c, 0, 77, 0
2,21678, Note_on_c, 0, 64, 0
2,21687, Note_on_c, 0, 60, 0
2,21762, Note_on_c, 0, 79, 0
2,21773, Note_on_c, 0, 81, 72
2,21781, Note_on_c, 0, 60, 83
2,21865, Note_on_c, 0, 81, 0
2,21924, Note_on_c, 0, 65, 76
2,21933, Note_on_c, 0, 62, 79
2,21955, Note_on_c, 0, 70, 73
2,21968, Note_on_c, 0, 60, 0
2,22040, Note_on_c, 0, 70, 0
2,22078, Note_on_c, 0, 72, 72
2,22227, Note_on_c, 0, 60, 72
2,22234, Note_on_c, 0, 62, 0
2,22238, Note_on_c, 0, 74, 75
2,22284, Note_on_c, 0, 60, 0
2,22295, Note_on_c, 0, 72, 0
2,22373, Note_on_c, 0, 76, 75
2,22403, Note_on_c, 0, 74, 0
2,22433, Note_on_c, 0, 76, 0
2,22505, Note_on_c, 0, 58, 70
2,22507, Note_on_c, 0, 77, 74
2,22546, Note_on_c, 0, 58, 0
2,22603, Note_on_c, 0, 77, 0
2,22626, Note_on_c, 0, 79, 73
2,22691, Note_on_c, 0, 79, 0
2,22769, Note_on_c, 0, 60, 63
2,22773, Note_on_c, 0, 65, 0
2,22787, Note_on_c, 0, 81, 76
2,22819, Note_on_c, 0, 60, 0
2,22878, Note_on_c, 0, 81, 0
2,22914, Note_on_c, 0, 84, 63
2,23038, Note_on_c, 0, 52, 65
2,23047, Note_on_c, 0, 82, 69
2,23095, Note_on_c, 0, 84, 0
2,23132, Note_on_c, 0, 82, 0
2,23170, Note_on_c, 0, 52, 0
2,23170, Note_on_c, 0, 53, 69
2,23181, Note_on_c, 0, 81, 65
2,23220, Note_on_c, 0, 81, 0
2,23307, Note_on_c, 0, 55, 72
2,23319, Note_on_c, 0, 53, 0
2,23335, Note_on_c, 0, 72, 80
2,23344, Note_on_c, 0, 79, 76
2,23419, Note_on_c, 0, 55, 0
2,23419, Note_on_c, 0, 72, 0
2,23441, Note_on_c, 0, 57, 71
2,23458, Note_on_c, 0, 77, 81
2,23493, Note_on_c, 0, 79, 0
2,23511, Note_on_c, 0, 77, 0
2,23624, Note_on_c, 0, 57, 0
2,23632, Note_on_c, 0, 58, 68
2,23632, Note_on_c, 0, 74, 85
2,23641, Note_on_c, 0, 77, 76
2,23819, Note_on_c, 0, 77, 0
2,23860, Note_on_c, 0, 74, 0
2,23951, Note_on_c, 0, 58, 0
2,23951, Note_on_c, 0, 72, 75
2,23958, Note_on_c, 0, 60, 63
2,23958, Note_on_c, 0, 77, 71
2,23987, Note_on_c, 0, 76, 67
2,23997, Note_on_c, 0, 72, 0
2,24002, Note_on_c, 0, 77, 0
2,24024, Note_on_c, 0, 76, 0
2,24055, Note_on_c, 0, 60, 0
2,24064, Note_on_c, 0, 58, 63
2,24105, Note_on_c, 0, 76, 73
2,24172, Note_on_c, 0, 76, 0
2,24217, Note_on_c, 0, 58, 0
2,24217, Note_on_c, 0, 70, 76
2,24224, Note_on_c, 0, 57, 64
2,24341, Note_on_c, 0, 70, 0
2,24346, Note_on_c, 0, 57, 0
2,24363, Note_on_c, 0, 55, 57
2,24505, Note_on_c, 0, 72, 68
2,24505, Note_on_c, 0, 77, 70
2,24510, Note_on_c, 0, 57, 55
2,24514, Note_on_c, 0, 55, 0
2,24589, Control_c, 0, 64, 40
2,24605, Note_on_c, 0, 77, 0
2,24610, Note_on_c, 0, 72, 0
2,24647, Note_on_c, 0, 57, 0
2,24669, Note_on_c, 0, 60, 61
2,24797, Note_on_c, 0, 64, 76
2,24806, Note_on_c, 0, 60, 0
2,24815, Note_on_c, 0, 58, 61
2,24926, Note_on_c, 0, 64, 0
2,24935, Note_on_c, 0, 58, 0
2,24935, Note_on_c, 0, 65, 71
2,24939, Control_c, 0, 64, 39
2,24944, Note_on_c, 0, 57, 73
2,25046, Note_on_c, 0, 57, 0
2,25076, Note_on_c, 0, 67, 81
2,25083, Note_on_c, 0, 55, 65
2,25104, Note_on_c, 0, 65, 0
2,25205, Note_on_c, 0, 53, 70
2,25205, Note_on_c, 0, 69, 78
2,25212, Note_on_c, 0, 55, 0
2,25220, Note_on_c, 0, 67, 0
2,25246, Note_on_c, 0, 69, 0
2,25249, Note_on_c, 0, 53, 0
2,25363, Note_on_c, 0, 53, 66
2,25389, Note_on_c, 0, 79, 82
2,25398, Note_on_c, 0, 70, 73
2,25416, Note_on_c, 0, 52, 66
2,25427, Note_on_c, 0, 53, 0
2,25460, Note_on_c, 0, 70, 0
2,25489, Note_on_c, 0, 52, 0
2,25505, Note_on_c, 0, 53, 59
2,25586, Note_on_c, 0, 52, 56
2,25590, Note_on_c, 0, 53, 0
2,25662, Note_on_c, 0, 52, 0
2,25689, Note_on_c, 0, 53, 60
2,25691, Note_on_c, 0, 72, 75
2,25744, Note_on_c, 0, 52, 58
2,25765, Note_on_c, 0, 53, 0
2,25818, Note_on_c, 0, 70, 81
2,25818, Note_on_c, 0, 72, 0
2,25840, Note_on_c, 0, 52, 0
2,25856, Note_on_c, 0, 53, 60
2,25885, Note_on_c, 0, 70, 0
2,25941, Note_on_c, 0, 69, 74
2,25954, Note_on_c, 0, 79, 0
2,25998, Note_on_c, 0, 50, 57
2,26036, Note_on_c, 0, 53, 0
2,26041, Note_on_c, 0, 52, 63
2,26066, Note_on_c, 0, 50, 0
2,26077, Note_on_c, 0, 67, 74
2,26117, Note_on_c, 0, 69, 0
2,26126, Note_on_c, 0, 67, 0
2,26202, Note_on_c, 0, 53, 65
2,26213, Note_on_c, 0, 52, 0
2,26228, Note_on_c, 0, 69, 73
2,26261, Note_on_c, 0, 53, 0
2,26357, Note_on_c, 0, 79, 77
2,26510, Note_on_c, 0, 55, 73
2,26510, Note_on_c, 0, 77, 81
2,26553, Note_on_c, 0, 55, 0
2,26589, Note_on_c, 0, 79, 0
2,26634, Note_on_c, 0, 76, 76
2,26680, Note_on_c, 0, 77, 0
2,26710, Note_on_c, 0, 76, 0
2,26759, Control_c, 0, 64, 40
2,26790, Note_on_c, 0, 57, 67
2,26800, Note_on_c, 0, 74, 58
2,26810, Note_on_c, 0, 76, 72
2,26834, Note_on_c, 0, 57, 0
2,26924, Note_on_c, 0, 72, 81
2,26948, Note_on_c, 0, 76, 0
2,26969, Note_on_c, 0, 74, 0
2,27103, Note_on_c, 0, 77, 83
2,27110, Note_on_c, 0, 72, 0
2,27114, Note_on_c, 0, 50, 55
2,27353, Note_on_c, 0, 69, 0
2,27390, Note_on_c, 0, 70, 63
2,27501, Note_on_c, 0, 70, 0
2,27512, Note_on_c, 0, 69, 58
2,27634, Note_on_c, 0, 69, 0
2,27654, Note_on_c, 0, 67, 60
2,27678, Note_on_c, 0, 50, 0
2,27752, Note_on_c, 0, 77, 0
2,27785, Note_on_c, 0, 65, 58
2,27814, Note_on_c, 0, 67, 0
2,27825, Note_on_c, 0, 65, 0
2,27854, Control_c, 0, 64, 39
2,27930, Note_on_c, 0, 52, 62
2,27956, Note_on_c, 0, 67, 57
2,27983, Note_on_c, 0, 52, 0
2,28071, Note_on_c, 0, 77, 55
2,28219, Note_on_c, 0, 76, 65
2,28223, Note_on_c, 0, 53, 62
2,28265, Note_on_c, 0, 53, 0
2,28318, Note_on_c, 0, 77, 0
2,28330, Note_on_c, 0, 74, 64
2,28383, Note_on_c, 0, 76, 0
2,28390, Note_on_c, 0, 74, 0
2,28503, Note_on_c, 0, 55, 59
2,28512, Note_on_c, 0, 73, 73
2,28543, Note_on_c, 0, 55, 0
2,28625, Note_on_c, 0, 71, 66
2,28652, Note_on_c, 0, 73, 0
2,28809, Note_on_c, 0, 71, 0
2,28827, Note_on_c, 0, 49, 51
2,28827, Note_on_c, 0, 76, 68
2,28958, Note_on_c, 0, 67, 0
2,29122, Note_on_c, 0, 69, 56
2,29244, Note_on_c, 0, 69, 0
2,29249, Note_on_c, 0, 67, 64
2,29281, Note_on_c, 0, 76, 0
2,29392, Note_on_c, 0, 67, 0
2,29404, Note_on_c, 0, 65, 68
2,29407, Note_on_c, 0, 49, 0
2,29407, Note_on_c, 0, 61, 85
2,29482, Note_on_c, 0, 61, 0
2,29541, Note_on_c, 0, 64, 72
2,29545, Note_on_c, 0, 65, 0
2,29644, Note_on_c, 0, 64, 0
2,29705, Note_on_c, 0, 65, 68
2,29716, Note_on_c, 0, 62, 80
2,29821, Note_on_c, 0, 64, 73
2,29843, Note_on_c, 0, 65, 0
2,29885, Note_on_c, 0, 64, 0
2,29988, Note_on_c, 0, 60, 74
2,29988, Note_on_c, 0, 65, 67
2,29988, Note_on_c, 0, 69, 70
2,30007, Note_on_c, 0, 62, 0
2,30029, Note_on_c, 0, 60, 0
2,30099, Note_on_c, 0, 67, 70
2,30099, Note_on_c, 0, 69, 0
2,30104, Note_on_c, 0, 65, 0
2,30178, Note_on_c, 0, 67, 0
2,30254, Note_on_c, 0, 69, 69
2,30272, Note_on_c, 0, 58, 75
2,30277, Note_on_c, 0, 74, 64
2,30323, Note_on_c, 0, 58, 0
2,30327, Note_on_c, 0, 69, 0
2,30370, Note_on_c, 0, 67, 68
2,30545, Note_on_c, 0, 69, 69
2,30566, Note_on_c, 0, 57, 76
2,30566, Note_on_c, 0, 73, 68
2,30577, Note_on_c, 0, 67, 0
2,30617, Note_on_c, 0, 69, 0
2,30669, Note_on_c, 0, 74, 0
2,30703, Note_on_c, 0, 70, 76
2,30765, Note_on_c, 0, 73, 0
2,30832, Note_on_c, 0, 69, 82
2,30856, Note_on_c, 0, 70, 0
2,30889, Control_c, 0, 64, 40
2,30942, Note_on_c, 0, 69, 0
2,30950, Note_on_c, 0, 67, 80
2,30998, Note_on_c, 0, 67, 0
2,31111, Note_on_c, 0, 65, 68
2,31120, Note_on_c, 0, 81, 92
2,31157, Control_c, 0, 64, 41
2,31189, Note_on_c, 0, 81, 0
2,31242, Note_on_c, 0, 64, 73
2,31257, Note_on_c, 0, 65, 0
2,31418, Note_on_c, 0, 82, 92
2,31427, Note_on_c, 0, 62, 72
2,31431, Note_on_c, 0, 64, 0
2,31541, Note_on_c, 0, 62, 0
2,31545, Note_on_c, 0, 61, 64
2,31703, Note_on_c, 0, 62, 69
2,31715, Note_on_c, 0, 81, 81
2,31751, Note_on_c, 0, 61, 0
2,31760, Note_on_c, 0, 82, 0
2,31789, Note_on_c, 0, 81, 0
2,31809, Note_on_c, 0, 62, 0
2,31831, Note_on_c, 0, 65, 55
2,31969, Note_on_c, 0, 65, 0
2,31979, Note_on_c, 0, 64, 68
2,31984, Note_on_c, 0, 79, 85
2,32052, Note_on_c, 0, 79, 0
2,32077, Control_c, 0, 64, 40
2,32125, Note_on_c, 0, 62, 61
2,32125, Note_on_c, 0, 64, 0
2,32275, Note_on_c, 0, 61, 60
2,32289, Note_on_c, 0, 62, 0
2,32291, Note_on_c, 0, 81, 69
2,32422, Note_on_c, 0, 81, 0
2,32568, Note_on_c, 0, 73, 77
2,32572, Note_on_c, 0, 61, 0
2,32640, Note_on_c, 0, 73, 0
2,32695, Note_on_c, 0, 74, 75
2,32842, Note_on_c, 0, 69, 84
2,32849, Note_on_c, 0, 76, 85
2,32936, Note_on_c, 0, 69, 0
2,32973, Note_on_c, 0, 74, 0
2,32984, Note_on_c, 0, 77, 79
2,33013, Note_on_c, 0, 76, 0
2,33044, Note_on_c, 0, 77, 0
2,33148, Note_on_c, 0, 79, 85
2,33156, Note_on_c, 0, 70, 88
2,33385, Control_c, 0, 64, 41
2,33403, Note_on_c, 0, 70, 0
2,33457, Note_on_c, 0, 81, 70
2,33469, Note_on_c, 0, 69, 69
2,33473, Note_on_c, 0, 79, 0
2,33521, Note_on_c, 0, 69, 0
2,33597, Note_on_c, 0, 79, 73
2,33642, Note_on_c, 0, 81, 0
2,33709, Control_c, 0, 64, 40
2,33736, Note_on_c, 0, 67, 70
2,33739, Note_on_c, 0, 77, 78
2,33761, Note_on_c, 0, 79, 0
2,33779, Note_on_c, 0, 67, 0
2,33857, Note_on_c, 0, 76, 76
2,33865, Control_c, 0, 64, 39
2,33883, Note_on_c, 0, 77, 0
2,33912, Note_on_c, 0, 76, 0
2,34004, Note_on_c, 0, 69, 67
2,34013, Note_on_c, 0, 77, 79
2,34045, Note_on_c, 0, 69, 0
2,34058, Note_on_c, 0, 77, 0
2,34132, Note_on_c, 0, 81, 69
2,34280, Note_on_c, 0, 61, 67
2,34284, Note_on_c, 0, 79, 78
2,34361, Note_on_c, 0, 57, 0
2,34383, Note_on_c, 0, 81, 0
2,34410, Note_on_c, 0, 77, 83
2,34423, Note_on_c, 0, 62, 70
2,34449, Note_on_c, 0, 79, 0
2,34477, Control_c, 0, 64, 40
2,34486, Note_on_c, 0, 61, 0
2,34556, Note_on_c, 0, 62, 0
2,34562, Note_on_c, 0, 64, 80
2,34567, Note_on_c, 0, 76, 91
2,34572, Note_on_c, 0, 57, 62
2,34591, Note_on_c, 0, 77, 0
2,34679, Note_on_c, 0, 64, 0
2,34699, Note_on_c, 0, 65, 71
2,34699, Note_on_c, 0, 74, 85
2,34699, Note_on_c, 0, 76, 0
2,34749, Note_on_c, 0, 74, 0
2,34853, Note_on_c, 0, 65, 0
2,34878, Note_on_c, 0, 58, 73
2,34882, Note_on_c, 0, 73, 88
2,34886, Note_on_c, 0, 67, 76
2,34926, Note_on_c, 0, 57, 0
2,34975, Note_on_c, 0, 67, 0
2,35180, Note_on_c, 0, 69, 72
2,35189, Note_on_c, 0, 58, 0
2,35201, Note_on_c, 0, 57, 66
2,35246, Note_on_c, 0, 57, 0
2,35303, Note_on_c, 0, 67, 72
2,35310, Note_on_c, 0, 69, 0
2,35417, Note_on_c, 0, 67, 0
2,35457, Note_on_c, 0, 65, 61
2,35459, Note_on_c, 0, 55, 66
2,35501, Note_on_c, 0, 55, 0
2,35578, Note_on_c, 0, 65, 0
2,35587, Note_on_c, 0, 64, 67
2,35708, Note_on_c, 0, 64, 0
2,35721, Note_on_c, 0, 57, 64
2,35724, Control_c, 0, 64, 39
2,35724, Note_on_c, 0, 65, 69
2,35747, Note_on_c, 0, 73, 0
2,35888, Note_on_c, 0, 74, 74
2,35928, Note_on_c, 0, 65, 0
2,35954, Note_on_c, 0, 72, 72
2,35970, Note_on_c, 0, 57, 0
2,35974, Note_on_c, 0, 49, 57
2,36024, Note_on_c, 0, 74, 0
2,36028, Note_on_c, 0, 70, 73
2,36147, Note_on_c, 0, 50, 74
2,36152, Note_on_c, 0, 49, 0
2,36162, Note_on_c, 0, 69, 77
2,36230, Note_on_c, 0, 72, 0
2,36256, Note_on_c, 0, 70, 0
2,36285, Note_on_c, 0, 50, 0
2,36285, Note_on_c, 0, 52, 75
2,36289, Note_on_c, 0, 69, 0
2,36294, Note_on_c, 0, 67, 83
2,36361, Note_on_c, 0, 67, 0
2,36406, Note_on_c, 0, 65, 78
2,36415, Note_on_c, 0, 52, 0
2,36424, Note_on_c, 0, 53, 70
2,36580, Note_on_c, 0, 70, 85
2,36585, Note_on_c, 0, 53, 0
2,36589, Note_on_c, 0, 61, 75
2,36589, Note_on_c, 0, 65, 0
2,36595, Note_on_c, 0, 55, 59
2,36820, Note_on_c, 0, 65, 23
2,36867, Note_on_c, 0, 55, 0
2,36871, Note_on_c, 0, 69, 70
2,36879, Note_on_c, 0, 57, 62
2,36884, Note_on_c, 0, 65, 0
2,36888, Note_on_c, 0, 70, 0
2,36950, Note_on_c, 0, 69, 0
2,36988, Note_on_c, 0, 57, 0
2,37024, Note_on_c, 0, 55, 60
2,37158, Note_on_c, 0, 53, 67
2,37158, Note_on_c, 0, 55, 0
2,37162, Note_on_c, 0, 67, 69
2,37219, Note_on_c, 0, 61, 0
2,37231, Note_on_c, 0, 67, 0
2,37288, Note_on_c, 0, 53, 0
2,37291, Note_on_c, 0, 52, 62
2,37432, Note_on_c, 0, 53, 63
2,37441, Note_on_c, 0, 52, 0
2,37474, Note_on_c, 0, 69, 68
2,37610, Note_on_c, 0, 57, 59
2,37692, Note_on_c, 0, 57, 0
2,37745, Note_on_c, 0, 59, 66
2,37760, Control_c, 0, 64, 38
2,37838, Note_on_c, 0, 53, 0
2,37852, Note_on_c, 0, 55, 73
2,37856, Note_on_c, 0, 59, 0
2,37869, Note_on_c, 0, 61, 66
2,37954, Note_on_c, 0, 61, 0
2,37993, Note_on_c, 0, 53, 74
2,37993, Note_on_c, 0, 55, 0
2,38004, Note_on_c, 0, 62, 83
2,38045, Note_on_c, 0, 69, 0
2,38088, Note_on_c, 0, 62, 0
2,38126, Note_on_c, 0, 52, 73
2,38132, Note_on_c, 0, 53, 0
2,38137, Note_on_c, 0, 64, 87
2,38209, Note_on_c, 0, 64, 0
2,38265, Note_on_c, 0, 50, 71
2,38265, Note_on_c, 0, 52, 0
2,38277, Note_on_c, 0, 69, 79
2,38286, Note_on_c, 0, 65, 70
2,38407, Note_on_c, 0, 65, 0
2,38409, Note_on_c, 0, 70, 80
2,38413, Note_on_c, 0, 64, 74
2,38422, Note_on_c, 0, 50, 0
2,38424, Note_on_c, 0, 69, 0
2,38431, Note_on_c, 0, 55, 71
2,38449, Note_on_c, 0, 64, 0
2,38449, Note_on_c, 0, 70, 0
2,38594, Note_on_c, 0, 65, 78
2,38607, Note_on_c, 0, 55, 0
2,38623, Note_on_c, 0, 57, 74
2,38623, Note_on_c, 0, 61, 69
2,38647, Note_on_c, 0, 64, 78
2,38647, Note_on_c, 0, 65, 0
2,38704, Note_on_c, 0, 57, 0
2,38706, Note_on_c, 0, 64, 0
2,38721, Note_on_c, 0, 65, 59
2,38768, Note_on_c, 0, 64, 70
2,38802, Note_on_c, 0, 65, 0
2,38898, Note_on_c, 0, 45, 64
2,38927, Note_on_c, 0, 61, 0
2,38942, Note_on_c, 0, 45, 0
2,39022, Note_on_c, 0, 62, 74
2,39065, Note_on_c, 0, 64, 0
2,39096, Note_on_c, 0, 62, 0
2,39200, Note_on_c, 0, 38, 52
2,39214, Note_on_c, 0, 62, 51
2,39343, Note_on_c, 0, 62, 0
2,39343, Note_on_c, 0, 64, 55
2,39470, Note_on_c, 0, 64, 0
2,39479, Note_on_c, 0, 38, 0
2,39479, Note_on_c, 0, 65, 55
2,39539, Note_on_c, 0, 65, 0
2,39716, Note_on_c, 0, 69, 54
2,39734, Note_on_c, 0, 50, 56
2,39791, Note_on_c, 0, 50, 0
2,39840, Note_on_c, 0, 70, 56
2,39854, Note_on_c, 0, 69, 0
2,39966, Note_on_c, 0, 70, 0
2,39987, Note_on_c, 0, 72, 59
2,40009, Note_on_c, 0, 51, 61
2,40133, Note_on_c, 0, 70, 55
2,40143, Note_on_c, 0, 72, 0
2,40234, Note_on_c, 0, 70, 0
2,40264, Note_on_c, 0, 51, 0
2,40267, Note_on_c, 0, 50, 58
2,40280, Note_on_c, 0, 72, 65
2,40307, Note_on_c, 0, 50, 0
2,40375, Note_on_c, 0, 72, 0
2,40411, Note_on_c, 0, 74, 50
2,40556, Note_on_c, 0, 48, 64
2,40556, Note_on_c, 0, 74, 0
2,40567, Note_on_c, 0, 75, 61
2,40593, Note_on_c, 0, 48, 0
2,40683, Note_on_c, 0, 74, 70
2,40690, Note_on_c, 0, 75, 0
2,40716, Note_on_c, 0, 74, 0
2,40817, Note_on_c, 0, 50, 59
2,40858, Note_on_c, 0, 66, 64
2,40866, Note_on_c, 0, 50, 0
2,40970, Note_on_c, 0, 64, 71
2,41030, Note_on_c, 0, 66, 0
2,41091, Note_on_c, 0, 42, 62
2,41099, Note_on_c, 0, 64, 0
2,41112, Note_on_c, 0, 62, 64
2,41208, Note_on_c, 0, 42, 0
2,41229, Note_on_c, 0, 43, 61
2,41229, Note_on_c, 0, 62, 0
2,41233, Note_on_c, 0, 64, 72
2,41334, Note_on_c, 0, 64, 0
2,41366, Note_on_c, 0, 43, 0
2,41384, Note_on_c, 0, 45, 59
2,41387, Note_on_c, 0, 62, 60
2,41387, Note_on_c, 0, 66, 71
2,41447, Note_on_c, 0, 62, 0
2,41487, Note_on_c, 0, 45, 0
2,41510, Note_on_c, 0, 67, 73
2,41516, Note_on_c, 0, 46, 64
2,41530, Note_on_c, 0, 66, 0
2,41554, Note_on_c, 0, 46, 0
2,41686, Note_on_c, 0, 67, 0
2,41691, Note_on_c, 0, 63, 66
2,41695, Note_on_c, 0, 69, 63
2,41700, Note_on_c, 0, 48, 56
2,41805, Note_on_c, 0, 48, 0
2,41826, Note_on_c, 0, 46, 56
2,41893, Note_on_c, 0, 63, 0
2,41959, Note_on_c, 0, 46, 0
2,41985, Note_on_c, 0, 50, 57
2,41985, Note_on_c, 0, 62, 67
2,42030, Note_on_c, 0, 62, 0
2,42079, Note_on_c, 0, 50, 0
2,42106, Note_on_c, 0, 48, 53
2,42238, Note_on_c, 0, 48, 0
2,42262, Note_on_c, 0, 46, 56
2,42286, Note_on_c, 0, 60, 61
2,42328, Note_on_c, 0, 60, 0
2,42341, Note_on_c, 0, 46, 0
2,42379, Note_on_c, 0, 45, 54
2,42526, Note_on_c, 0, 69, 0
2,42551, Note_on_c, 0, 45, 0
2,42551, Note_on_c, 0, 46, 56
2,42563, Note_on_c, 0, 62, 58
2,42664, Note_on_c, 0, 46, 0
2,42691, Note_on_c, 0, 62, 0
2,42701, Note_on_c, 0, 67, 72
2,42831, Note_on_c, 0, 69, 70
2,42847, Note_on_c, 0, 54, 63
2,42851, Note_on_c, 0, 67, 0
2,42919, Note_on_c, 0, 54, 0
2,42967, Note_on_c, 0, 55, 64
2,42967, Note_on_c, 0, 70, 72
2,42988, Note_on_c, 0, 69, 0
2,43018, Control_c, 0, 64, 39
2,43040, Note_on_c, 0, 70, 0
2,43091, Note_on_c, 0, 72, 83
2,43117, Note_on_c, 0, 57, 65
2,43121, Note_on_c, 0, 55, 0
2,43230, Note_on_c, 0, 57, 0
2,43230, Note_on_c, 0, 58, 66
2,43230, Note_on_c, 0, 74, 75
2,43236, Note_on_c, 0, 72, 0
2,43378, Note_on_c, 0, 58, 0
2,43393, Note_on_c, 0, 60, 58
2,43393, Note_on_c, 0, 75, 81
2,43398, Note_on_c, 0, 54, 58
2,43417, Note_on_c, 0, 74, 0
2,43481, Note_on_c, 0, 60, 0
2,43537, Note_on_c, 0, 58, 59
2,43657, Note_on_c, 0, 58, 0
2,43680, Note_on_c, 0, 62, 57
2,43680, Note_on_c, 0, 74, 73
2,43731, Note_on_c, 0, 75, 0
2,43733, Note_on_c, 0, 54, 0
2,43748, Note_on_c, 0, 74, 0
2,43788, Note_on_c, 0, 62, 0
2,43813, Note_on_c, 0, 60, 55
2,43961, Note_on_c, 0, 58, 59
2,43963, Note_on_c, 0, 72, 79
2,43970, Note_on_c, 0, 60, 0
2,44028, Note_on_c, 0, 72, 0
2,44033, Note_on_c, 0, 58, 0
2,44070, Note_on_c, 0, 57, 59
2,44233, Note_on_c, 0, 58, 51
2,44246, Note_on_c, 0, 74, 74
2,44281, Note_on_c, 0, 55, 43
2,44288, Note_on_c, 0, 57, 0
2,44319, Note_on_c, 0, 74, 0
2,44368, Note_on_c, 0, 58, 0
2,44384, Note_on_c, 0, 62, 54
2,44511, Note_on_c, 0, 62, 0
2,44513, Note_on_c, 0, 66, 78
2,44522, Note_on_c, 0, 55, 0
2,44524, Note_on_c, 0, 60, 60
2,44615, Note_on_c, 0, 66, 0
2,44643, Note_on_c, 0, 60, 0
2,44648, Note_on_c, 0, 67, 76
2,44657, Note_on_c, 0, 58, 68
2,44762, Note_on_c, 0, 58, 0
2,44790, Note_on_c, 0, 57, 66
2,44802, Note_on_c, 0, 69, 78
2,44848, Note_on_c, 0, 67, 0
2,44910, Note_on_c, 0, 57, 0
2,44923, Note_on_c, 0, 70, 82
2,44932, Note_on_c, 0, 55, 63
2,44954, Note_on_c, 0, 69, 0
2,44992, Note_on_c, 0, 70, 0
2,45071, Note_on_c, 0, 55, 0
2,45085, Note_on_c, 0, 54, 60
2,45099, Note_on_c, 0, 51, 56
2,45099, Note_on_c, 0, 72, 77
2,45240, Note_on_c, 0, 70, 72
2,45256, Note_on_c, 0, 72, 0
2,45391, Note_on_c, 0, 74, 75
2,45408, Note_on_c, 0, 70, 0
2,45516, Note_on_c, 0, 74, 0
2,45521, Note_on_c, 0, 72, 81
2,45577, Note_on_c, 0, 54, 0
2,45581, Note_on_c, 0, 51, 0
2,45657, Note_on_c, 0, 70, 83
2,45718, Note_on_c, 0, 72, 0
2,45777, Note_on_c, 0, 69, 72
2,45811, Note_on_c, 0, 70, 0
2,45922, Note_on_c, 0, 50, 58
2,45922, Note_on_c, 0, 55, 66
2,45927, Note_on_c, 0, 70, 82
2,45942, Note_on_c, 0, 69, 0
2,45999, Note_on_c, 0, 70, 0
2,46037, Note_on_c, 0, 55, 0
2,46068, Note_on_c, 0, 57, 69
2,46070, Note_on_c, 0, 66, 80
2,46165, Note_on_c, 0, 66, 0
2,46180, Note_on_c, 0, 57, 0
2,46206, Note_on_c, 0, 58, 67
2,46210, Note_on_c, 0, 67, 84
2,46290, Note_on_c, 0, 50, 0
2,46336, Note_on_c, 0, 58, 0
2,46336, Note_on_c, 0, 60, 74
2,46344, Note_on_c, 0, 69, 81
2,46365, Note_on_c, 0, 67, 0
2,46392, Note_on_c, 0, 60, 0
2,46476, Note_on_c, 0, 70, 86
2,46482, Note_on_c, 0, 62, 77
2,46491, Note_on_c, 0, 69, 0
2,46587, Note_on_c, 0, 62, 0
2,46604, Note_on_c, 0, 57, 78
2,46608, Note_on_c, 0, 73, 88
2,46646, Note_on_c, 0, 57, 0
2,46653, Note_on_c, 0, 70, 0
2,46682, Note_on_c, 0, 73, 0
2,46743, Control_c, 0, 64, 40
2,46749, Note_on_c, 0, 58, 72
2,46758, Note_on_c, 0, 74, 83
2,46863, Note_on_c, 0, 58, 0
2,46885, Note_on_c, 0, 79, 83
2,46890, Note_on_c, 0, 48, 63
2,46905, Note_on_c, 0, 74, 0
2,46930, Note_on_c, 0, 79, 0
2,46951, Note_on_c, 0, 48, 0
2,47054, Note_on_c, 0, 72, 76
2,47074, Note_on_c, 0, 50, 64
2,47074, Note_on_c, 0, 55, 64
2,47096, Note_on_c, 0, 70, 75
2,47115, Note_on_c, 0, 55, 0
2,47147, Note_on_c, 0, 72, 0
2,47151, Note_on_c, 0, 50, 0
2,47151, Note_on_c, 0, 72, 63
2,47160, Note_on_c, 0, 70, 0
2,47218, Note_on_c, 0, 70, 68
2,47255, Note_on_c, 0, 72, 0
2,47335, Note_on_c, 0, 54, 62
2,47339, Note_on_c, 0, 50, 63
2,47353, Note_on_c, 0, 69, 74
2,47379, Note_on_c, 0, 50, 0
2,47379, Note_on_c, 0, 54, 0
2,47395, Note_on_c, 0, 70, 0
2,47435, Control_c, 0, 64, 39
2,47479, Note_on_c, 0, 69, 0
2,47492, Note_on_c, 0, 67, 70
2,47537, Note_on_c, 0, 67, 0
2,47629, Note_on_c, 0, 43, 50
2,47629, Note_on_c, 0, 55, 50
2,47638, Note_on_c, 0, 67, 70
2,47697, Note_on_c, 0, 43, 0
2,47776, Note_on_c, 0, 62, 56
2,47836, Note_on_c, 0, 62, 0
2,47841, Note_on_c, 0, 67, 0
2,47921, Note_on_c, 0, 70, 67
2,47928, Note_on_c, 0, 45, 44
2,47965, Note_on_c, 0, 45, 0
2,48059, Note_on_c, 0, 65, 55
2,48121, Note_on_c, 0, 65, 0
2,48190, Note_on_c, 0, 46, 53
2,48204, Note_on_c, 0, 64, 62
2,48234, Note_on_c, 0, 46, 0
2,48344, Note_on_c, 0, 62, 56
2,48344, Note_on_c, 0, 64, 0
2,48382, Note_on_c, 0, 62, 0
2,48441, Note_on_c, 0, 70, 0
2,48475, Note_on_c, 0, 48, 61
2,48482, Note_on_c, 0, 64, 70
2,48502, Note_on_c, 0, 55, 0
2,48519, Note_on_c, 0, 48, 0
2,48620, Note_on_c, 0, 67, 61
2,48678, Note_on_c, 0, 67, 0
2,48757, Note_on_c, 0, 72, 72
2,48768, Note_on_c, 0, 50, 60
2,48810, Note_on_c, 0, 50, 0
2,48880, Note_on_c, 0, 70, 66
2,48913, Note_on_c, 0, 72, 0
2,48999, Note_on_c, 0, 70, 0
2,49032, Note_on_c, 0, 69, 63
2,49034, Note_on_c, 0, 52, 72
2,49083, Note_on_c, 0, 52, 0
2,49153, Note_on_c, 0, 67, 67
2,49175, Note_on_c, 0, 69, 0
2,49211, Note_on_c, 0, 67, 0
2,49218, Note_on_c, 0, 64, 0
2,49311, Note_on_c, 0, 53, 76
2,49324, Note_on_c, 0, 69, 72
2,49355, Note_on_c, 0, 53, 0
2,49445, Note_on_c, 0, 60, 68
2,49495, Note_on_c, 0, 60, 0
2,49593, Note_on_c, 0, 65, 67
2,49600, Note_on_c, 0, 55, 74
2,49655, Note_on_c, 0, 55, 0
2,49685, Note_on_c, 0, 65, 0
2,49712, Note_on_c, 0, 63, 70
2,49873, Note_on_c, 0, 57, 76
2,49882, Note_on_c, 0, 62, 76
2,49911, Note_on_c, 0, 57, 0
2,50011, Note_on_c, 0, 60, 74
2,50011, Note_on_c, 0, 62, 0
2,50011, Note_on_c, 0, 63, 0
2,50053, Note_on_c, 0, 60, 0
2,50102, Note_on_c, 0, 69, 0
2,50162, Note_on_c, 0, 58, 78
2,50164, Note_on_c, 0, 62, 72
2,50298, Note_on_c, 0, 65, 63
2,50388, Note_on_c, 0, 65, 0
2,50448, Note_on_c, 0, 70, 78
2,50577, Note_on_c, 0, 69, 70
2,50584, Note_on_c, 0, 70, 0
2,50695, Note_on_c, 0, 62, 0
2,50712, Note_on_c, 0, 67, 72
2,50809, Note_on_c, 0, 69, 0
2,50824, Note_on_c, 0, 65, 73
2,50842, Note_on_c, 0, 67, 0
2,50884, Note_on_c, 0, 65, 0
2,50994, Note_on_c, 0, 64, 77
2,50998, Note_on_c, 0, 60, 66
2,51044, Note_on_c, 0, 60, 0
2,51064, Note_on_c, 0, 64, 0
2,51115, Note_on_c, 0, 55, 56
2,51121, Note_on_c, 0, 58, 0
2,51277, Note_on_c, 0, 65, 71
2,51281, Note_on_c, 0, 62, 75
2,51286, Note_on_c, 0, 60, 64
2,51288, Note_on_c, 0, 55, 0
2,51311, Note_on_c, 0, 62, 0
2,51336, Note_on_c, 0, 65, 0
2,51397, Note_on_c, 0, 58, 67
2,51405, Note_on_c, 0, 60, 0
2,51540, Note_on_c, 0, 67, 82
2,51544, Note_on_c, 0, 64, 75
2,51554, Note_on_c, 0, 57, 75
2,51563, Note_on_c, 0, 58, 0
2,51584, Note_on_c, 0, 64, 0
2,51605, Note_on_c, 0, 67, 0
2,51682, Note_on_c, 0, 57, 0
2,51690, Note_on_c, 0, 55, 70
2,51807, Note_on_c, 0, 55, 0
2,51818, Note_on_c, 0, 69, 81
2,51825, Note_on_c, 0, 65, 75
2,51836, Note_on_c, 0, 53, 76
2,51870, Note_on_c, 0, 65, 0
2,51898, Note_on_c, 0, 69, 0
2,51974, Note_on_c, 0, 48, 71
2,51996, Note_on_c, 0, 53, 0
2,52097, Note_on_c, 0, 48, 0
2,52102, Note_on_c, 0, 70, 86
2,52105, Note_on_c, 0, 67, 81
2,52119, Note_on_c, 0, 53, 82
2,52149, Note_on_c, 0, 67, 0
2,52183, Note_on_c, 0, 70, 0
2,52233, Note_on_c, 0, 51, 78
2,52249, Note_on_c, 0, 53, 0
2,52376, Note_on_c, 0, 50, 78
2,52381, Note_on_c, 0, 69, 74
2,52381, Note_on_c, 0, 72, 94
2,52391, Note_on_c, 0, 51, 0
2,52420, Note_on_c, 0, 69, 0
2,52448, Note_on_c, 0, 72, 0
2,52503, Note_on_c, 0, 48, 75
2,52505, Note_on_c, 0, 50, 0
2,52643, Note_on_c, 0, 46, 76
2,52649, Note_on_c, 0, 74, 90
2,52659, Note_on_c, 0, 48, 0
2,52659, Note_on_c, 0, 70, 87
2,52742, Note_on_c, 0, 74, 0
2,52750, Note_on_c, 0, 46, 0
2,52777, Note_on_c, 0, 48, 65
2,52932, Note_on_c, 0, 46, 74
2,52941, Note_on_c, 0, 76, 95
2,52945, Note_on_c, 0, 48, 0
2,53033, Note_on_c, 0, 76, 0
2,53051, Note_on_c, 0, 45, 71
2,53055, Note_on_c, 0, 46, 0
2,53174, Note_on_c, 0, 45, 0
2,53200, Note_on_c, 0, 43, 70
2,53221, Note_on_c, 0, 77, 94
2,53249, Note_on_c, 0, 70, 0
2,53303, Note_on_c, 0, 77, 0
2,53329, Note_on_c, 0, 43, 0
2,53334, Note_on_c, 0, 41, 73
2,53501, Note_on_c, 0, 40, 69
2,53505, Note_on_c, 0, 79, 86
2,53508, Note_on_c, 0, 41, 0
2,53619, Control_c, 0, 64, 38
2,53639, Note_on_c, 0, 67, 71
2,53674, Note_on_c, 0, 67, 0
2,53805, Note_on_c, 0, 72, 84
2,53930, Note_on_c, 0, 72, 0
2,53935, Note_on_c, 0, 70, 78
2,53981, Note_on_c, 0, 70, 0
2,54061, Note_on_c, 0, 69, 75
2,54175, Note_on_c, 0, 67, 77
2,54222, Note_on_c, 0, 69, 0
2,54225, Note_on_c, 0, 67, 0
2,54328, Note_on_c, 0, 40, 0
2,54328, Note_on_c, 0, 41, 78
2,54340, Note_on_c, 0, 69, 74
2,54347, Note_on_c, 0, 79, 0
2,54383, Note_on_c, 0, 41, 0
2,54466, Note_on_c, 0, 72, 73
2,54559, Note_on_c, 0, 72, 0
2,54606, Note_on_c, 0, 77, 79
2,54609, Note_on_c, 0, 43, 79
2,54659, Note_on_c, 0, 43, 0
2,54724, Note_on_c, 0, 75, 74
2,54776, Note_on_c, 0, 77, 0
2,54815, Note_on_c, 0, 75, 0
2,54864, Note_on_c, 0, 45, 76
2,54886, Note_on_c, 0, 74, 79
2,54912, Note_on_c, 0, 45, 0
2,54997, Note_on_c, 0, 72, 77
2,55012, Note_on_c, 0, 74, 0
2,55152, Note_on_c, 0, 46, 78
2,55158, Note_on_c, 0, 74, 81
2,55175, Note_on_c, 0, 72, 0
2,55304, Note_on_c, 0, 72, 82
2,55332, Note_on_c, 0, 74, 0
2,55429, Note_on_c, 0, 50, 75
2,55442, Note_on_c, 0, 75, 78
2,55451, Note_on_c, 0, 72, 0
2,55474, Note_on_c, 0, 50, 0
2,55494, Control_c, 0, 64, 39
2,55514, Note_on_c, 0, 75, 0
2,55566, Note_on_c, 0, 74, 76
2,55663, Note_on_c, 0, 69, 0
2,55716, Note_on_c, 0, 72, 87
2,55720, Note_on_c, 0, 55, 76
2,55746, Control_c, 0, 64, 40
2,55746, Note_on_c, 0, 74, 0
2,55761, Note_on_c, 0, 46, 0
2,55840, Note_on_c, 0, 70, 86
2,55869, Note_on_c, 0, 72, 0
2,55984, Note_on_c, 0, 55, 0
2,55993, Note_on_c, 0, 45, 59
2,56006, Note_on_c, 0, 72, 84
2,56041, Note_on_c, 0, 70, 0
2,56146, Note_on_c, 0, 53, 66
2,56220, Note_on_c, 0, 53, 0
2,56306, Note_on_c, 0, 58, 71
2,56306, Note_on_c, 0, 64, 80
2,56371, Note_on_c, 0, 58, 0
2,56373, Note_on_c, 0, 45, 0
2,56426, Note_on_c, 0, 57, 72
2,56426, Note_on_c, 0, 65, 77
2,56463, Note_on_c, 0, 64, 0
2,56463, Note_on_c, 0, 72, 0
2,56572, Note_on_c, 0, 55, 70
2,56574, Note_on_c, 0, 57, 0
2,56580, Note_on_c, 0, 67, 78
2,56638, Note_on_c, 0, 65, 0
2,56689, Note_on_c, 0, 53, 72
2,56695, Note_on_c, 0, 55, 0
2,56706, Note_on_c, 0, 69, 76
2,56729, Note_on_c, 0, 53, 0
2,56740, Note_on_c, 0, 67, 0
2,56774, Note_on_c, 0, 69, 0
2,56852, Note_on_c, 0, 55, 66
2,56858, Note_on_c, 0, 43, 70
2,56863, Note_on_c, 0, 70, 78
2,56896, Control_c, 0, 64, 39
2,56916, Note_on_c, 0, 55, 0
2,56998, Note_on_c, 0, 69, 70
2,56998, Note_on_c, 0, 70, 0
2,57126, Note_on_c, 0, 46, 68
2,57137, Note_on_c, 0, 72, 81
2,57142, Note_on_c, 0, 69, 0
2,57197, Note_on_c, 0, 43, 0
2,57253, Note_on_c, 0, 48, 68
2,57266, Note_on_c, 0, 70, 77
2,57276, Note_on_c, 0, 46, 0
2,57283, Note_on_c, 0, 72, 0
2,57404, Note_on_c, 0, 48, 0
2,57412, Note_on_c, 0, 50, 65
2,57422, Note_on_c, 0, 69, 73
2,57433, Note_on_c, 0, 70, 0
2,57492, Note_on_c, 0, 50, 0
2,57520, Note_on_c, 0, 52, 51
2,57544, Note_on_c, 0, 67, 68
2,57553, Note_on_c, 0, 69, 0
2,57558, Note_on_c, 0, 52, 0
2,57597, Note_on_c, 0, 67, 0
2,57684, Note_on_c, 0, 41, 60
2,57689, Note_on_c, 0, 53, 60
2,57689, Note_on_c, 0, 69, 68
2,57733, Note_on_c, 0, 41, 0
2,57810, Note_on_c, 0, 69, 0
2,57834, Note_on_c, 0, 67, 59
2,57882, Note_on_c, 0, 67, 0
2,57961, Note_on_c, 0, 43, 66
2,57975, Note_on_c, 0, 70, 74
2,58020, Note_on_c, 0, 43, 0
2,58105, Note_on_c, 0, 69, 69
2,58109, Note_on_c, 0, 70, 0
2,58155, Note_on_c, 0, 69, 0
2,58240, Note_on_c, 0, 45, 68
2,58240, Note_on_c, 0, 72, 88
2,58295, Note_on_c, 0, 45, 0
2,58354, Note_on_c, 0, 70, 87
2,58383, Note_on_c, 0, 72, 0
2,58434, Note_on_c, 0, 70, 0
2,58512, Note_on_c, 0, 46, 75
2,58515, Note_on_c, 0, 74, 86
2,58607, Note_on_c, 0, 46, 0
2,58633, Note_on_c, 0, 72, 84
2,58653, Note_on_c, 0, 74, 0
2,58706, Note_on_c, 0, 72, 0
2,58778, Note_on_c, 0, 48, 73
2,58782, Note_on_c, 0, 76, 94
2,58855, Note_on_c, 0, 48, 0
2,58855, Note_on_c, 0, 53, 0
2,58908, Note_on_c, 0, 74, 90
2,58951, Note_on_c, 0, 76, 0
2,58984, Note_on_c, 0, 74, 0
2,59066, Note_on_c, 0, 58, 77
2,59066, Note_on_c, 0, 77, 95
2,59080, Note_on_c, 0, 50, 65
2,59145, Note_on_c, 0, 50, 0
2,59155, Note_on_c, 0, 77, 0
2,59189, Note_on_c, 0, 76, 93
2,59259, Note_on_c, 0, 76, 0
2,59337, Note_on_c, 0, 52, 73
2,59362, Note_on_c, 0, 79, 91
2,59399, Note_on_c, 0, 52, 0
2,59442, Note_on_c, 0, 79, 0
2,59502, Note_on_c, 0, 69, 83
2,59552, Note_on_c, 0, 69, 0
2,59665, Note_on_c, 0, 48, 71
2,59677, Note_on_c, 0, 70, 87
2,59685, Note_on_c, 0, 64, 84
2,59709, Note_on_c, 0, 58, 0
2,59726, Note_on_c, 0, 64, 0
2,59765, Note_on_c, 0, 48, 0
2,59765, Note_on_c, 0, 70, 0
2,59840, Note_on_c, 0, 67, 90
2,59924, Note_on_c, 0, 67, 0
2,60042, Note_on_c, 0, 69, 89
2,60046, Note_on_c, 0, 53, 70
2,60065, Note_on_c, 0, 65, 70
2,60114, Note_on_c, 0, 53, 0
2,60392, Note_on_c, 0, 46, 74
2,60575, Note_on_c, 0, 70, 87
2,60645, Note_on_c, 0, 69, 0
2,60712, Note_on_c, 0, 65, 0
2,60714, Note_on_c, 0, 70, 0
2,60824, Note_on_c, 0, 48, 59
2,60843, Note_on_c, 0, 69, 74
2,60852, Note_on_c, 0, 64, 73
2,60870, Note_on_c, 0, 46, 0
2,60912, Note_on_c, 0, 67, 74
2,60917, Note_on_c, 0, 69, 0
2,60990, Note_on_c, 0, 67, 0
2,60999, Note_on_c, 0, 69, 65
2,61027, Control_c, 0, 64, 38
2,61042, Note_on_c, 0, 67, 70
2,61064, Note_on_c, 0, 69, 0
2,61130, Note_on_c, 0, 69, 68
2,61133, Note_on_c, 0, 64, 0
2,61133, Note_on_c, 0, 64, 18
2,61133, Note_on_c, 0, 67, 0
2,61181, Note_on_c, 0, 67, 71
2,61233, Note_on_c, 0, 69, 0
2,61262, Note_on_c, 0, 64, 0
2,61262, Note_on_c, 0, 64, 22
2,61366, Note_on_c, 0, 48, 0
2,61417, Note_on_c, 0, 36, 65
2,61650, Note_on_c, 0, 64, 0
2,61835, Note_on_c, 0, 65, 76
2,61885, Note_on_c, 0, 67, 0
2,62356, Note_on_c, 0, 65, 0
2,62506, Note_on_c, 0, 65, 78
2,62508, Note_on_c, 0, 41, 65
2,62556, Note_on_c, 0, 36, 0
2,64929, Note_on_c, 0, 41, 0
2,64955, Note_on_c, 0, 65, 0
2,65756, Control_c, 0, 64, 39
2,65757, End_track
0, 0, End_of_file
