0, 0, Header, 1, 2, 480
1, 0, Start_track
1, 0, Tempo, 500000
1, 0, Time_signature, 4, 2, 24, 8
1, 1, End_track
2, 0, Start_track
2, 0, Program_c, 0, 0
2, 0, Control_c, 0, 64, 51
2, 0, Control_c, 0, 67, 0
2, 824, Control_c, 0, 64, 52
2, 980, Note_on_c, 0, 53, 44
2, 993, Note_on_c, 0, 77, 57
2, 1041, Note_on_c, 0, 53, 0
2, 1124, Note_on_c, 0, 77, 0
2, 1131, Note_on_c, 0, 72, 57
2, 1223, Note_on_c, 0, 57, 58
2, 1228, Note_on_c, 0, 72, 0
2, 1239, Note_on_c, 0, 69, 57
2, 1260, Note_on_c, 0, 57, 0
2, 1330, Note_on_c, 0, 69, 0
2, 1354, Note_on_c, 0, 67, 56
2, 1438, Control_c, 0, 64, 51
2, 1461, Note_on_c, 0, 67, 0
2, 1466, Note_on_c, 0, 60, 53
2, 1470, Note_on_c, 0, 69, 64
2, 1506, Note_on_c, 0, 60, 0
2, 1551, Note_on_c, 0, 69, 0
2, 1576, Note_on_c, 0, 72, 69
2, 1680, Note_on_c, 0, 72, 0
2, 1689, Note_on_c, 0, 57, 57
2, 1696, Note_on_c, 0, 65, 59
2, 1731, Note_on_c, 0, 57, 0
2, 1791, Note_on_c, 0, 69, 61
2, 1800, Note_on_c, 0, 65, 0
2, 1894, Note_on_c, 0, 69, 0
2, 1906, Note_on_c, 0, 72, 68
2, 1928, Note_on_c, 0, 53, 54
2, 1973, Note_on_c, 0, 53, 0
2, 1998, Note_on_c, 0, 72, 0
2, 2005, Note_on_c, 0, 75, 72
2, 2073, Note_on_c, 0, 75, 0
2, 2143, Note_on_c, 0, 74, 68
2, 2148, Note_on_c, 0, 57, 64
2, 2191, Note_on_c, 0, 57, 0
2, 2242, Note_on_c, 0, 74, 0
2, 2246, Note_on_c, 0, 72, 72
2, 2348, Note_on_c, 0, 72, 0
2, 2371, Note_on_c, 0, 74, 74
2, 2380, Note_on_c, 0, 58, 59
2, 2420, Note_on_c, 0, 58, 0
2, 2491, Note_on_c, 0, 70, 70
2, 2491, Note_on_c, 0, 74, 0
2, 2589, Note_on_c, 0, 70, 0
2, 2600, Note_on_c, 0, 65, 68
2, 2609, Note_on_c, 0, 62, 59
2, 2649, Note_on_c, 0, 62, 0
2, 2690, Control_c, 0, 64, 52
2, 2695, Note_on_c, 0, 65, 0
2, 2716, Note_on_c, 0, 64, 70
2, 2811, Note_on_c, 0, 58, 60
2, 2832, Note_on_c, 0, 64, 0
2, 2836, Note_on_c, 0, 65, 69
2, 2849, Note_on_c, 0, 58, 0
2, 2921, Note_on_c, 0, 65, 0
2, 2941, Note_on_c, 0, 70, 68
2, 3073, Note_on_c, 0, 62, 60
2, 3102, Note_on_c, 0, 41, 36
2, 3113, Note_on_c, 0, 70, 0
2, 3180, Note_on_c, 0, 65, 61
2, 3184, Note_on_c, 0, 62, 0
2, 3303, Note_on_c, 0, 69, 65
2, 3321, Note_on_c, 0, 65, 0
2, 3398, Note_on_c, 0, 69, 0
2, 3405, Note_on_c, 0, 72, 72
2, 3425, Note_on_c, 0, 41, 0
2, 3527, Note_on_c, 0, 70, 68
2, 3540, Note_on_c, 0, 72, 0
2, 3631, Control_c, 0, 64, 51
2, 3631, Note_on_c, 0, 69, 61
2, 3636, Note_on_c, 0, 70, 0
2, 3743, Note_on_c, 0, 69, 0
2, 3754, Note_on_c, 0, 53, 60
2, 3766, Note_on_c, 0, 70, 62
2, 3797, Note_on_c, 0, 53, 0
2, 3868, Note_on_c, 0, 67, 63
2, 3910, Note_on_c, 0, 70, 0
2, 3989, Note_on_c, 0, 67, 0
2, 3994, Note_on_c, 0, 64, 57
2, 3996, Note_on_c, 0, 55, 61
2, 4037, Note_on_c, 0, 55, 0
2, 4081, Note_on_c, 0, 64, 0
2, 4092, Note_on_c, 0, 62, 58
2, 4216, Note_on_c, 0, 58, 67
2, 4235, Note_on_c, 0, 64, 63
2, 4248, Note_on_c, 0, 62, 0
2, 4263, Note_on_c, 0, 58, 0
2, 4318, Note_on_c, 0, 64, 0
2, 4326, Note_on_c, 0, 67, 65
2, 4450, Note_on_c, 0, 67, 0
2, 4454, Note_on_c, 0, 55, 60
2, 4464, Note_on_c, 0, 60, 60
2, 4491, Note_on_c, 0, 55, 0
2, 4554, Note_on_c, 0, 60, 0
2, 4559, Note_on_c, 0, 64, 65
2, 4680, Note_on_c, 0, 52, 64
2, 4685, Note_on_c, 0, 67, 63
2, 4690, Note_on_c, 0, 64, 0
2, 4726, Note_on_c, 0, 52, 0
2, 4780, Note_on_c, 0, 70, 71
2, 4782, Note_on_c, 0, 67, 0
2, 4902, Note_on_c, 0, 48, 62
2, 4904, Note_on_c, 0, 69, 65
2, 4914, Control_c, 0, 64, 52
2, 4947, Note_on_c, 0, 70, 0
2, 4949, Note_on_c, 0, 48, 0
2, 5023, Note_on_c, 0, 67, 66
2, 5037, Note_on_c, 0, 69, 0
2, 5144, Note_on_c, 0, 53, 63
2, 5150, Note_on_c, 0, 67, 0
2, 5153, Note_on_c, 0, 69, 63
2, 5181, Note_on_c, 0, 53, 0
2, 5264, Note_on_c, 0, 67, 63
2, 5292, Note_on_c, 0, 69, 0
2, 5372, Note_on_c, 0, 65, 68
2, 5377, Note_on_c, 0, 67, 0
2, 5388, Note_on_c, 0, 57, 59
2, 5431, Note_on_c, 0, 57, 0
2, 5469, Note_on_c, 0, 65, 0
2, 5487, Note_on_c, 0, 64, 62
2, 5599, Note_on_c, 0, 53, 59
2, 5599, Note_on_c, 0, 64, 0
2, 5609, Note_on_c, 0, 65, 67
2, 5640, Note_on_c, 0, 53, 0
2, 5644, Control_c, 0, 64, 51
2, 5710, Note_on_c, 0, 65, 0
2, 5723, Note_on_c, 0, 69, 56
2, 5855, Note_on_c, 0, 41, 51
2, 5855, Note_on_c, 0, 60, 56
2, 5958, Note_on_c, 0, 69, 0
2, 5965, Note_on_c, 0, 64, 62
2, 5969, Note_on_c, 0, 60, 0
2, 6091, Note_on_c, 0, 65, 62
2, 6100, Note_on_c, 0, 64, 0
2, 6174, Note_on_c, 0, 65, 0
2, 6185, Note_on_c, 0, 69, 68
2, 6230, Note_on_c, 0, 41, 0
2, 6296, Note_on_c, 0, 67, 64
2, 6335, Note_on_c, 0, 69, 0
2, 6407, Note_on_c, 0, 65, 60
2, 6416, Note_on_c, 0, 67, 0
2, 6441, Note_on_c, 0, 65, 0
2, 6543, Note_on_c, 0, 53, 53
2, 6550, Note_on_c, 0, 69, 61
2, 6606, Note_on_c, 0, 69, 0
2, 6613, Note_on_c, 0, 71, 63
2, 6647, Note_on_c, 0, 53, 0
2, 6664, Note_on_c, 0, 50, 52
2, 6671, Note_on_c, 0, 71, 0
2, 6683, Note_on_c, 0, 72, 64
2, 6743, Note_on_c, 0, 72, 0
2, 6767, Note_on_c, 0, 71, 58
2, 6772, Note_on_c, 0, 50, 0
2, 6785, Note_on_c, 0, 47, 58
2, 6797, Control_c, 0, 64, 52
2, 6821, Note_on_c, 0, 71, 0
2, 6835, Note_on_c, 0, 72, 61
2, 6868, Note_on_c, 0, 47, 0
2, 6883, Note_on_c, 0, 72, 0
2, 6888, Note_on_c, 0, 45, 55
2, 6907, Note_on_c, 0, 71, 61
2, 6911, Control_c, 0, 64, 51
2, 6958, Note_on_c, 0, 71, 0
2, 6976, Note_on_c, 0, 72, 66
2, 6986, Control_c, 0, 64, 52
2, 6993, Note_on_c, 0, 45, 0
2, 7011, Note_on_c, 0, 47, 62
2, 7024, Note_on_c, 0, 72, 0
2, 7043, Note_on_c, 0, 71, 64
2, 7077, Note_on_c, 0, 47, 0
2, 7095, Note_on_c, 0, 71, 0
2, 7106, Note_on_c, 0, 72, 70
2, 7110, Note_on_c, 0, 50, 60
2, 7157, Note_on_c, 0, 72, 0
2, 7179, Note_on_c, 0, 71, 65
2, 7246, Note_on_c, 0, 71, 0
2, 7246, Note_on_c, 0, 72, 69
2, 7250, Note_on_c, 0, 50, 0
2, 7265, Note_on_c, 0, 43, 62
2, 7297, Note_on_c, 0, 72, 0
2, 7315, Control_c, 0, 64, 51
2, 7315, Note_on_c, 0, 71, 63
2, 7376, Note_on_c, 0, 72, 65
2, 7384, Note_on_c, 0, 71, 0
2, 7393, Note_on_c, 0, 47, 62
2, 7397, Note_on_c, 0, 43, 0
2, 7408, Control_c, 0, 64, 52
2, 7436, Note_on_c, 0, 72, 0
2, 7444, Note_on_c, 0, 71, 61
2, 7492, Note_on_c, 0, 47, 0
2, 7500, Note_on_c, 0, 50, 69
2, 7509, Note_on_c, 0, 72, 66
2, 7520, Note_on_c, 0, 71, 0
2, 7555, Note_on_c, 0, 72, 0
2, 7580, Note_on_c, 0, 71, 62
2, 7587, Note_on_c, 0, 50, 0
2, 7605, Note_on_c, 0, 53, 69
2, 7634, Note_on_c, 0, 72, 68
2, 7646, Note_on_c, 0, 71, 0
2, 7684, Note_on_c, 0, 72, 0
2, 7706, Note_on_c, 0, 71, 60
2, 7710, Note_on_c, 0, 52, 65
2, 7720, Note_on_c, 0, 53, 0
2, 7779, Note_on_c, 0, 71, 0
2, 7790, Note_on_c, 0, 52, 0
2, 7794, Note_on_c, 0, 69, 62
2, 7797, Note_on_c, 0, 50, 54
2, 7834, Note_on_c, 0, 50, 0
2, 7853, Note_on_c, 0, 71, 67
2, 7864, Note_on_c, 0, 69, 0
2, 7947, Note_on_c, 0, 50, 65
2, 7954, Note_on_c, 0, 71, 0
2, 7963, Note_on_c, 0, 72, 79
2, 8026, Note_on_c, 0, 50, 0
2, 8043, Note_on_c, 0, 52, 61
2, 8090, Note_on_c, 0, 72, 0
2, 8094, Note_on_c, 0, 67, 69
2, 8105, Note_on_c, 0, 52, 0
2, 8134, Note_on_c, 0, 53, 56
2, 8203, Note_on_c, 0, 67, 0
2, 8205, Note_on_c, 0, 64, 78
2, 8218, Note_on_c, 0, 52, 59
2, 8218, Note_on_c, 0, 53, 0
2, 8291, Note_on_c, 0, 52, 0
2, 8312, Note_on_c, 0, 53, 54
2, 8320, Note_on_c, 0, 64, 0
2, 8329, Note_on_c, 0, 62, 74
2, 8392, Control_c, 0, 64, 51
2, 8392, Note_on_c, 0, 52, 57
2, 8399, Note_on_c, 0, 53, 0
2, 8453, Note_on_c, 0, 62, 0
2, 8453, Note_on_c, 0, 64, 78
2, 8458, Note_on_c, 0, 52, 0
2, 8491, Note_on_c, 0, 53, 55
2, 8547, Note_on_c, 0, 64, 0
2, 8561, Note_on_c, 0, 52, 54
2, 8572, Note_on_c, 0, 53, 0
2, 8572, Note_on_c, 0, 67, 70
2, 8630, Note_on_c, 0, 52, 0
2, 8655, Note_on_c, 0, 53, 58
2, 8690, Note_on_c, 0, 67, 0
2, 8696, Note_on_c, 0, 60, 68
2, 8727, Note_on_c, 0, 52, 56
2, 8740, Note_on_c, 0, 53, 0
2, 8787, Note_on_c, 0, 52, 0
2, 8805, Note_on_c, 0, 60, 0
2, 8805, Note_on_c, 0, 64, 72
2, 8814, Note_on_c, 0, 53, 54
2, 8901, Note_on_c, 0, 52, 58
2, 8901, Note_on_c, 0, 53, 0
2, 8921, Note_on_c, 0, 67, 72
2, 8932, Note_on_c, 0, 64, 0
2, 8975, Note_on_c, 0, 53, 36
2, 9024, Note_on_c, 0, 67, 0
2, 9031, Note_on_c, 0, 52, 0
2, 9031, Note_on_c, 0, 70, 74
2, 9121, Note_on_c, 0, 50, 50
2, 9126, Note_on_c, 0, 70, 0
2, 9134, Note_on_c, 0, 69, 69
2, 9210, Note_on_c, 0, 53, 0
2, 9224, Note_on_c, 0, 52, 59
2, 9247, Note_on_c, 0, 50, 0
2, 9249, Note_on_c, 0, 67, 74
2, 9279, Note_on_c, 0, 69, 0
2, 9283, Note_on_c, 0, 67, 0
2, 9292, Control_c, 0, 64, 52
2, 9355, Note_on_c, 0, 52, 0
2, 9371, Note_on_c, 0, 55, 64
2, 9410, Note_on_c, 0, 74, 71
2, 9460, Note_on_c, 0, 73, 71
2, 9467, Note_on_c, 0, 74, 0
2, 9491, Note_on_c, 0, 55, 0
2, 9498, Note_on_c, 0, 52, 73
2, 9530, Note_on_c, 0, 71, 77
2, 9530, Note_on_c, 0, 73, 0
2, 9592, Note_on_c, 0, 73, 64
2, 9596, Note_on_c, 0, 71, 0
2, 9614, Note_on_c, 0, 52, 0
2, 9618, Note_on_c, 0, 49, 71
2, 9653, Note_on_c, 0, 73, 0
2, 9662, Note_on_c, 0, 74, 70
2, 9741, Note_on_c, 0, 73, 73
2, 9746, Note_on_c, 0, 74, 0
2, 9750, Note_on_c, 0, 47, 69
2, 9750, Note_on_c, 0, 49, 0
2, 9791, Note_on_c, 0, 73, 0
2, 9813, Note_on_c, 0, 74, 53
2, 9865, Note_on_c, 0, 49, 71
2, 9878, Note_on_c, 0, 47, 0
2, 9878, Note_on_c, 0, 73, 70
2, 9884, Note_on_c, 0, 74, 0
2, 9923, Note_on_c, 0, 73, 0
2, 9950, Note_on_c, 0, 74, 62
2, 9978, Note_on_c, 0, 49, 0
2, 9982, Control_c, 0, 64, 53
2, 9987, Note_on_c, 0, 52, 71
2, 10022, Note_on_c, 0, 73, 77
2, 10022, Note_on_c, 0, 74, 0
2, 10068, Note_on_c, 0, 73, 0
2, 10097, Note_on_c, 0, 74, 66
2, 10121, Note_on_c, 0, 52, 0
2, 10134, Note_on_c, 0, 45, 69
2, 10158, Note_on_c, 0, 73, 73
2, 10165, Note_on_c, 0, 74, 0
2, 10204, Note_on_c, 0, 73, 0
2, 10231, Note_on_c, 0, 74, 60
2, 10253, Note_on_c, 0, 49, 66
2, 10258, Note_on_c, 0, 45, 0
2, 10300, Note_on_c, 0, 73, 76
2, 10303, Note_on_c, 0, 74, 0
2, 10348, Note_on_c, 0, 73, 0
2, 10357, Note_on_c, 0, 52, 73
2, 10361, Note_on_c, 0, 49, 0
2, 10374, Note_on_c, 0, 74, 59
2, 10441, Note_on_c, 0, 73, 69
2, 10456, Note_on_c, 0, 52, 0
2, 10467, Note_on_c, 0, 55, 75
2, 10486, Note_on_c, 0, 73, 0
2, 10559, Note_on_c, 0, 73, 78
2, 10569, Note_on_c, 0, 74, 0
2, 10571, Note_on_c, 0, 53, 71
2, 10579, Note_on_c, 0, 55, 0
2, 10632, Note_on_c, 0, 73, 0
2, 10641, Note_on_c, 0, 71, 74
2, 10672, Note_on_c, 0, 53, 0
2, 10676, Note_on_c, 0, 52, 64
2, 10713, Note_on_c, 0, 52, 0
2, 10717, Note_on_c, 0, 73, 75
2, 10724, Note_on_c, 0, 71, 0
2, 10809, Note_on_c, 0, 52, 63
2, 10814, Note_on_c, 0, 73, 0
2, 10814, Note_on_c, 0, 74, 78
2, 10897, Note_on_c, 0, 53, 63
2, 10908, Note_on_c, 0, 52, 0
2, 10945, Note_on_c, 0, 69, 68
2, 10945, Note_on_c, 0, 74, 0
2, 10971, Note_on_c, 0, 53, 0
2, 10994, Note_on_c, 0, 55, 61
2, 11055, Note_on_c, 0, 65, 74
2, 11064, Note_on_c, 0, 69, 0
2, 11071, Note_on_c, 0, 53, 63
2, 11078, Note_on_c, 0, 55, 0
2, 11157, Note_on_c, 0, 53, 0
2, 11177, Note_on_c, 0, 65, 0
2, 11181, Note_on_c, 0, 55, 60
2, 11186, Note_on_c, 0, 64, 77
2, 11211, Control_c, 0, 64, 52
2, 11252, Note_on_c, 0, 53, 59
2, 11259, Note_on_c, 0, 55, 0
2, 11303, Note_on_c, 0, 65, 75
2, 11321, Note_on_c, 0, 64, 0
2, 11333, Note_on_c, 0, 53, 0
2, 11357, Note_on_c, 0, 55, 58
2, 11384, Control_c, 0, 64, 51
2, 11425, Note_on_c, 0, 53, 51
2, 11425, Note_on_c, 0, 65, 0
2, 11425, Note_on_c, 0, 69, 70
2, 11438, Note_on_c, 0, 55, 0
2, 11505, Note_on_c, 0, 53, 0
2, 11530, Note_on_c, 0, 55, 60
2, 11561, Note_on_c, 0, 62, 75
2, 11565, Note_on_c, 0, 69, 0
2, 11599, Note_on_c, 0, 53, 55
2, 11608, Note_on_c, 0, 55, 0
2, 11671, Note_on_c, 0, 62, 0
2, 11671, Note_on_c, 0, 65, 70
2, 11676, Note_on_c, 0, 53, 0
2, 11699, Note_on_c, 0, 55, 54
2, 11764, Note_on_c, 0, 53, 55
2, 11769, Note_on_c, 0, 55, 0
2, 11799, Note_on_c, 0, 69, 72
2, 11824, Note_on_c, 0, 65, 0
2, 11834, Note_on_c, 0, 53, 0
2, 11857, Note_on_c, 0, 55, 55
2, 11899, Note_on_c, 0, 69, 0
2, 11906, Note_on_c, 0, 72, 75
2, 11932, Note_on_c, 0, 53, 59
2, 11936, Note_on_c, 0, 55, 0
2, 12020, Note_on_c, 0, 53, 0
2, 12028, Note_on_c, 0, 55, 60
2, 12032, Note_on_c, 0, 70, 73
2, 12037, Note_on_c, 0, 72, 0
2, 12104, Note_on_c, 0, 52, 43
2, 12119, Note_on_c, 0, 55, 0
2, 12145, Note_on_c, 0, 70, 0
2, 12150, Note_on_c, 0, 69, 63
2, 12160, Note_on_c, 0, 53, 63
2, 12201, Note_on_c, 0, 52, 0
2, 12263, Note_on_c, 0, 69, 0
2, 12276, Note_on_c, 0, 55, 66
2, 12280, Note_on_c, 0, 70, 69
2, 12285, Note_on_c, 0, 53, 0
2, 12320, Note_on_c, 0, 55, 0
2, 12409, Note_on_c, 0, 67, 64
2, 12418, Note_on_c, 0, 70, 0
2, 12500, Control_c, 0, 64, 52
2, 12523, Note_on_c, 0, 64, 71
2, 12532, Note_on_c, 0, 67, 0
2, 12541, Note_on_c, 0, 58, 68
2, 12584, Note_on_c, 0, 58, 0
2, 12631, Note_on_c, 0, 64, 0
2, 12654, Note_on_c, 0, 62, 64
2, 12785, Note_on_c, 0, 55, 62
2, 12785, Note_on_c, 0, 64, 71
2, 12790, Note_on_c, 0, 62, 0
2, 12823, Note_on_c, 0, 55, 0
2, 12896, Note_on_c, 0, 64, 0
2, 12913, Note_on_c, 0, 67, 61
2, 13018, Note_on_c, 0, 67, 0
2, 13033, Note_on_c, 0, 52, 64
2, 13047, Note_on_c, 0, 60, 62
2, 13073, Note_on_c, 0, 52, 0
2, 13155, Note_on_c, 0, 64, 67
2, 13159, Note_on_c, 0, 60, 0
2, 13267, Note_on_c, 0, 48, 68
2, 13278, Note_on_c, 0, 67, 70
2, 13303, Note_on_c, 0, 64, 0
2, 13307, Note_on_c, 0, 48, 0
2, 13389, Note_on_c, 0, 67, 0
2, 13394, Note_on_c, 0, 70, 68
2, 13503, Note_on_c, 0, 52, 75
2, 13510, Note_on_c, 0, 69, 68
2, 13546, Note_on_c, 0, 52, 0
2, 13564, Note_on_c, 0, 70, 0
2, 13573, Control_c, 0, 64, 51
2, 13636, Note_on_c, 0, 67, 69
2, 13651, Note_on_c, 0, 69, 0
2, 13766, Note_on_c, 0, 53, 72
2, 13766, Note_on_c, 0, 67, 0
2, 13775, Note_on_c, 0, 69, 72
2, 13810, Note_on_c, 0, 53, 0
2, 13896, Note_on_c, 0, 65, 62
2, 13896, Note_on_c, 0, 69, 0
2, 14025, Note_on_c, 0, 65, 0
2, 14029, Note_on_c, 0, 57, 69
2, 14029, Note_on_c, 0, 62, 66
2, 14071, Note_on_c, 0, 57, 0
2, 14133, Note_on_c, 0, 62, 0
2, 14142, Note_on_c, 0, 61, 67
2, 14264, Note_on_c, 0, 53, 67
2, 14267, Note_on_c, 0, 61, 0
2, 14272, Note_on_c, 0, 62, 73
2, 14302, Note_on_c, 0, 53, 0
2, 14359, Note_on_c, 0, 62, 0
2, 14376, Note_on_c, 0, 65, 72
2, 14515, Note_on_c, 0, 50, 66
2, 14519, Note_on_c, 0, 65, 0
2, 14526, Note_on_c, 0, 58, 67
2, 14563, Note_on_c, 0, 50, 0
2, 14598, Note_on_c, 0, 58, 0
2, 14631, Note_on_c, 0, 62, 65
2, 14760, Note_on_c, 0, 62, 0
2, 14764, Note_on_c, 0, 46, 63
2, 14764, Note_on_c, 0, 65, 69
2, 14804, Note_on_c, 0, 46, 0
2, 14868, Note_on_c, 0, 65, 0
2, 14870, Note_on_c, 0, 69, 66
2, 15001, Note_on_c, 0, 67, 70
2, 15005, Note_on_c, 0, 50, 64
2, 15012, Note_on_c, 0, 69, 0
2, 15030, Control_c, 0, 64, 50
2, 15044, Note_on_c, 0, 50, 0
2, 15119, Note_on_c, 0, 65, 66
2, 15119, Note_on_c, 0, 67, 0
2, 15254, Note_on_c, 0, 65, 0
2, 15258, Note_on_c, 0, 52, 64
2, 15258, Note_on_c, 0, 67, 68
2, 15310, Note_on_c, 0, 52, 0
2, 15374, Note_on_c, 0, 64, 68
2, 15379, Control_c, 0, 64, 51
2, 15379, Note_on_c, 0, 67, 0
2, 15495, Note_on_c, 0, 61, 65
2, 15495, Note_on_c, 0, 64, 0
2, 15508, Note_on_c, 0, 55, 63
2, 15557, Note_on_c, 0, 55, 0
2, 15609, Note_on_c, 0, 61, 0
2, 15627, Note_on_c, 0, 59, 63
2, 15736, Note_on_c, 0, 52, 69
2, 15749, Note_on_c, 0, 61, 66
2, 15762, Note_on_c, 0, 59, 0
2, 15771, Note_on_c, 0, 52, 0
2, 15858, Note_on_c, 0, 61, 0
2, 15867, Note_on_c, 0, 64, 69
2, 15968, Note_on_c, 0, 64, 0
2, 15989, Note_on_c, 0, 49, 63
2, 16008, Note_on_c, 0, 57, 65
2, 16042, Note_on_c, 0, 49, 0
2, 16113, Note_on_c, 0, 61, 59
2, 16117, Note_on_c, 0, 57, 0
2, 16233, Note_on_c, 0, 61, 0
2, 16237, Note_on_c, 0, 45, 57
2, 16237, Note_on_c, 0, 64, 72
2, 16276, Note_on_c, 0, 45, 0
2, 16335, Note_on_c, 0, 64, 0
2, 16341, Note_on_c, 0, 67, 68
2, 16487, Note_on_c, 0, 49, 60
2, 16487, Note_on_c, 0, 65, 61
2, 16516, Note_on_c, 0, 67, 0
2, 16521, Note_on_c, 0, 49, 0
2, 16525, Control_c, 0, 64, 50
2, 16598, Note_on_c, 0, 64, 65
2, 16607, Note_on_c, 0, 65, 0
2, 16730, Note_on_c, 0, 64, 0
2, 16743, Note_on_c, 0, 50, 52
2, 16752, Note_on_c, 0, 65, 60
2, 16814, Note_on_c, 0, 65, 0
2, 16860, Note_on_c, 0, 50, 0
2, 16893, Note_on_c, 0, 45, 43
2, 16998, Note_on_c, 0, 45, 0
2, 17002, Note_on_c, 0, 69, 65
2, 17007, Note_on_c, 0, 41, 61
2, 17042, Note_on_c, 0, 69, 0
2, 17112, Note_on_c, 0, 41, 0
2, 17134, Note_on_c, 0, 40, 46
2, 17237, Note_on_c, 0, 40, 0
2, 17243, Note_on_c, 0, 41, 57
2, 17251, Note_on_c, 0, 74, 71
2, 17288, Note_on_c, 0, 74, 0
2, 17323, Note_on_c, 0, 41, 0
2, 17349, Note_on_c, 0, 45, 55
2, 17390, Control_c, 0, 64, 51
2, 17479, Note_on_c, 0, 45, 0
2, 17488, Note_on_c, 0, 69, 69
2, 17492, Note_on_c, 0, 38, 51
2, 17532, Note_on_c, 0, 69, 0
2, 17593, Note_on_c, 0, 38, 0
2, 17597, Note_on_c, 0, 41, 55
2, 17697, Note_on_c, 0, 41, 0
2, 17704, Note_on_c, 0, 45, 55
2, 17733, Note_on_c, 0, 65, 70
2, 17781, Note_on_c, 0, 65, 0
2, 17797, Note_on_c, 0, 45, 0
2, 17823, Note_on_c, 0, 48, 57
2, 17948, Note_on_c, 0, 48, 0
2, 17959, Note_on_c, 0, 46, 60
2, 17969, Note_on_c, 0, 62, 68
2, 18008, Note_on_c, 0, 62, 0
2, 18061, Note_on_c, 0, 46, 0
2, 18074, Note_on_c, 0, 45, 56
2, 18186, Note_on_c, 0, 45, 0
2, 18211, Note_on_c, 0, 50, 55
2, 18221, Note_on_c, 0, 67, 71
2, 18268, Note_on_c, 0, 67, 0
2, 18307, Note_on_c, 0, 50, 0
2, 18331, Note_on_c, 0, 46, 60
2, 18445, Note_on_c, 0, 46, 0
2, 18453, Note_on_c, 0, 43, 66
2, 18467, Note_on_c, 0, 70, 78
2, 18511, Note_on_c, 0, 70, 0
2, 18567, Note_on_c, 0, 42, 61
2, 18575, Note_on_c, 0, 43, 0
2, 18700, Note_on_c, 0, 43, 61
2, 18705, Note_on_c, 0, 42, 0
2, 18719, Note_on_c, 0, 74, 78
2, 18782, Note_on_c, 0, 74, 0
2, 18809, Note_on_c, 0, 43, 0
2, 18822, Note_on_c, 0, 46, 64
2, 18948, Note_on_c, 0, 46, 0
2, 18956, Note_on_c, 0, 38, 63
2, 18965, Note_on_c, 0, 70, 81
2, 19034, Note_on_c, 0, 70, 0
2, 19077, Note_on_c, 0, 38, 0
2, 19081, Note_on_c, 0, 43, 60
2, 19215, Note_on_c, 0, 67, 81
2, 19219, Note_on_c, 0, 46, 67
2, 19235, Note_on_c, 0, 43, 0
2, 19260, Note_on_c, 0, 67, 0
2, 19307, Note_on_c, 0, 46, 0
2, 19322, Note_on_c, 0, 50, 64
2, 19442, Note_on_c, 0, 50, 0
2, 19446, Note_on_c, 0, 49, 63
2, 19464, Note_on_c, 0, 62, 75
2, 19510, Note_on_c, 0, 62, 0
2, 19550, Note_on_c, 0, 47, 65
2, 19558, Note_on_c, 0, 49, 0
2, 19672, Note_on_c, 0, 47, 0
2, 19703, Note_on_c, 0, 49, 64
2, 19716, Note_on_c, 0, 67, 78
2, 19778, Note_on_c, 0, 67, 0
2, 19826, Note_on_c, 0, 49, 0
2, 19835, Note_on_c, 0, 46, 68
2, 19949, Note_on_c, 0, 44, 74
2, 19949, Note_on_c, 0, 46, 0
2, 19968, Note_on_c, 0, 73, 85
2, 20040, Note_on_c, 0, 73, 0
2, 20069, Note_on_c, 0, 42, 65
2, 20078, Note_on_c, 0, 44, 0
2, 20188, Note_on_c, 0, 43, 55
2, 20191, Note_on_c, 0, 42, 0
2, 20205, Note_on_c, 0, 76, 82
2, 20278, Note_on_c, 0, 76, 0
2, 20292, Control_c, 0, 64, 52
2, 20297, Note_on_c, 0, 43, 0
2, 20311, Note_on_c, 0, 46, 65
2, 20431, Note_on_c, 0, 46, 0
2, 20446, Note_on_c, 0, 73, 83
2, 20453, Note_on_c, 0, 38, 62
2, 20519, Control_c, 0, 64, 51
2, 20527, Note_on_c, 0, 73, 0
2, 20559, Note_on_c, 0, 38, 0
2, 20565, Note_on_c, 0, 43, 65
2, 20693, Control_c, 0, 64, 52
2, 20709, Note_on_c, 0, 67, 83
2, 20713, Note_on_c, 0, 43, 0
2, 20713, Note_on_c, 0, 49, 66
2, 20764, Note_on_c, 0, 67, 0
2, 20800, Note_on_c, 0, 49, 0
2, 20804, Note_on_c, 0, 52, 64
2, 20945, Note_on_c, 0, 50, 65
2, 20966, Note_on_c, 0, 64, 79
2, 20993, Note_on_c, 0, 52, 0
2, 20998, Note_on_c, 0, 52, 17
2, 21003, Note_on_c, 0, 64, 0
2, 21044, Note_on_c, 0, 52, 0
2, 21054, Note_on_c, 0, 50, 0
2, 21058, Note_on_c, 0, 49, 65
2, 21214, Note_on_c, 0, 49, 0
2, 21218, Note_on_c, 0, 50, 67
2, 21225, Note_on_c, 0, 74, 68
2, 21254, Note_on_c, 0, 50, 0
2, 21341, Note_on_c, 0, 74, 0
2, 21347, Note_on_c, 0, 69, 61
2, 21465, Note_on_c, 0, 65, 67
2, 21465, Note_on_c, 0, 69, 0
2, 21480, Note_on_c, 0, 53, 66
2, 21517, Note_on_c, 0, 53, 0
2, 21590, Note_on_c, 0, 64, 71
2, 21590, Note_on_c, 0, 65, 0
2, 21712, Note_on_c, 0, 65, 76
2, 21719, Note_on_c, 0, 57, 75
2, 21721, Note_on_c, 0, 64, 0
2, 21749, Control_c, 0, 64, 51
2, 21760, Note_on_c, 0, 57, 0
2, 21819, Note_on_c, 0, 65, 0
2, 21819, Note_on_c, 0, 69, 72
2, 21965, Note_on_c, 0, 53, 77
2, 21965, Note_on_c, 0, 62, 72
2, 21967, Note_on_c, 0, 69, 0
2, 22006, Note_on_c, 0, 53, 0
2, 22065, Note_on_c, 0, 65, 73
2, 22079, Note_on_c, 0, 62, 0
2, 22196, Note_on_c, 0, 69, 77
2, 22213, Note_on_c, 0, 50, 73
2, 22218, Note_on_c, 0, 65, 0
2, 22257, Note_on_c, 0, 50, 0
2, 22300, Note_on_c, 0, 69, 0
2, 22305, Note_on_c, 0, 72, 78
2, 22441, Note_on_c, 0, 53, 76
2, 22445, Note_on_c, 0, 70, 76
2, 22445, Note_on_c, 0, 72, 0
2, 22483, Note_on_c, 0, 53, 0
2, 22537, Note_on_c, 0, 70, 0
2, 22550, Note_on_c, 0, 69, 73
2, 22683, Note_on_c, 0, 69, 0
2, 22699, Note_on_c, 0, 77, 74
2, 22703, Note_on_c, 0, 38, 69
2, 22756, Note_on_c, 0, 38, 0
2, 22824, Note_on_c, 0, 74, 77
2, 22854, Note_on_c, 0, 77, 0
2, 22935, Note_on_c, 0, 41, 81
2, 22953, Note_on_c, 0, 74, 0
2, 22958, Note_on_c, 0, 70, 82
2, 22988, Note_on_c, 0, 41, 0
2, 23071, Note_on_c, 0, 69, 74
2, 23084, Note_on_c, 0, 70, 0
2, 23171, Control_c, 0, 64, 52
2, 23182, Note_on_c, 0, 46, 81
2, 23205, Note_on_c, 0, 70, 83
2, 23218, Note_on_c, 0, 69, 0
2, 23240, Note_on_c, 0, 46, 0
2, 23310, Note_on_c, 0, 70, 0
2, 23323, Note_on_c, 0, 74, 74
2, 23449, Note_on_c, 0, 50, 75
2, 23469, Note_on_c, 0, 65, 71
2, 23497, Control_c, 0, 64, 51
2, 23497, Note_on_c, 0, 74, 0
2, 23586, Note_on_c, 0, 70, 79
2, 23593, Control_c, 0, 64, 52
2, 23606, Note_on_c, 0, 65, 0
2, 23630, Control_c, 0, 64, 53
2, 23650, Control_c, 0, 64, 57
2, 23669, Control_c, 0, 64, 60
2, 23689, Control_c, 0, 64, 62
2, 23701, Note_on_c, 0, 70, 0
2, 23708, Control_c, 0, 64, 63
2, 23708, Note_on_c, 0, 74, 84
2, 23725, Control_c, 0, 64, 65
2, 23746, Control_c, 0, 64, 67
2, 23765, Control_c, 0, 64, 74
2, 23785, Control_c, 0, 64, 83
2, 23804, Control_c, 0, 64, 94
2, 23821, Note_on_c, 0, 77, 86
2, 23826, Control_c, 0, 64, 109
2, 23830, Note_on_c, 0, 74, 0
2, 23844, Control_c, 0, 64, 127
2, 23844, Note_on_c, 0, 50, 0
2, 23948, Note_on_c, 0, 76, 80
2, 23971, Note_on_c, 0, 77, 0
2, 23977, Control_c, 0, 64, 122
2, 23994, Control_c, 0, 64, 109
2, 24016, Control_c, 0, 64, 101
2, 24035, Control_c, 0, 64, 94
2, 24044, Note_on_c, 0, 74, 81
2, 24056, Control_c, 0, 64, 88
2, 24067, Note_on_c, 0, 76, 0
2, 24071, Control_c, 0, 64, 83
2, 24080, Note_on_c, 0, 74, 0
2, 24092, Control_c, 0, 64, 79
2, 24109, Control_c, 0, 64, 75
2, 24130, Control_c, 0, 64, 71
2, 24148, Control_c, 0, 64, 69
2, 24167, Control_c, 0, 64, 67
2, 24186, Control_c, 0, 64, 66
2, 24199, Note_on_c, 0, 62, 67
2, 24206, Control_c, 0, 64, 65
2, 24215, Note_on_c, 0, 81, 71
2, 24225, Control_c, 0, 64, 64
2, 24246, Control_c, 0, 64, 63
2, 24246, Note_on_c, 0, 80, 74
2, 24257, Note_on_c, 0, 81, 0
2, 24263, Control_c, 0, 64, 61
2, 24283, Control_c, 0, 64, 60
2, 24302, Control_c, 0, 64, 59
2, 24327, Control_c, 0, 64, 58
2, 24327, Note_on_c, 0, 80, 0
2, 24331, Note_on_c, 0, 59, 62
2, 24331, Note_on_c, 0, 62, 0
2, 24331, Note_on_c, 0, 78, 78
2, 24340, Control_c, 0, 64, 56
2, 24360, Control_c, 0, 64, 55
2, 24378, Control_c, 0, 64, 54
2, 24385, Note_on_c, 0, 80, 75
2, 24400, Note_on_c, 0, 78, 0
2, 24418, Control_c, 0, 64, 52
2, 24427, Note_on_c, 0, 59, 0
2, 24440, Control_c, 0, 64, 50
2, 24440, Note_on_c, 0, 56, 68
2, 24449, Note_on_c, 0, 80, 0
2, 24460, Control_c, 0, 64, 47
2, 24465, Note_on_c, 0, 81, 71
2, 24477, Control_c, 0, 64, 45
2, 24493, Control_c, 0, 64, 41
2, 24513, Control_c, 0, 64, 39
2, 24533, Note_on_c, 0, 56, 0
2, 24537, Control_c, 0, 64, 36
2, 24537, Note_on_c, 0, 54, 66
2, 24537, Note_on_c, 0, 80, 79
2, 24542, Note_on_c, 0, 81, 0
2, 24555, Control_c, 0, 64, 35
2, 24571, Control_c, 0, 64, 34
2, 24581, Note_on_c, 0, 80, 0
2, 24609, Control_c, 0, 64, 33
2, 24613, Note_on_c, 0, 81, 60
2, 24648, Note_on_c, 0, 56, 67
2, 24664, Note_on_c, 0, 80, 79
2, 24666, Note_on_c, 0, 81, 0
2, 24673, Note_on_c, 0, 54, 0
2, 24707, Note_on_c, 0, 80, 0
2, 24740, Note_on_c, 0, 56, 0
2, 24744, Note_on_c, 0, 81, 67
2, 24751, Note_on_c, 0, 59, 68
2, 24762, Control_c, 0, 64, 34
2, 24797, Note_on_c, 0, 81, 0
2, 24802, Control_c, 0, 64, 35
2, 24802, Note_on_c, 0, 80, 83
2, 24821, Control_c, 0, 64, 37
2, 24841, Control_c, 0, 64, 38
2, 24845, Note_on_c, 0, 80, 0
2, 24854, Note_on_c, 0, 59, 0
2, 24858, Control_c, 0, 64, 40
2, 24879, Control_c, 0, 64, 42
2, 24883, Note_on_c, 0, 81, 65
2, 24897, Note_on_c, 0, 52, 73
2, 24902, Control_c, 0, 64, 45
2, 24916, Control_c, 0, 64, 47
2, 24928, Note_on_c, 0, 81, 0
2, 24937, Note_on_c, 0, 80, 79
2, 24941, Control_c, 0, 64, 50
2, 24956, Control_c, 0, 64, 51
2, 24975, Control_c, 0, 64, 52
2, 24975, Note_on_c, 0, 80, 0
2, 24993, Control_c, 0, 64, 53
2, 25010, Note_on_c, 0, 81, 64
2, 25014, Control_c, 0, 64, 54
2, 25021, Note_on_c, 0, 52, 0
2, 25021, Note_on_c, 0, 56, 61
2, 25035, Control_c, 0, 64, 55
2, 25067, Note_on_c, 0, 80, 85
2, 25067, Note_on_c, 0, 81, 0
2, 25109, Control_c, 0, 64, 56
2, 25109, Note_on_c, 0, 80, 0
2, 25113, Note_on_c, 0, 59, 64
2, 25128, Control_c, 0, 64, 57
2, 25133, Note_on_c, 0, 56, 0
2, 25145, Note_on_c, 0, 81, 62
2, 25148, Control_c, 0, 64, 59
2, 25185, Control_c, 0, 64, 60
2, 25193, Note_on_c, 0, 59, 0
2, 25197, Note_on_c, 0, 80, 77
2, 25204, Control_c, 0, 64, 61
2, 25218, Note_on_c, 0, 62, 70
2, 25241, Note_on_c, 0, 80, 0
2, 25261, Control_c, 0, 64, 62
2, 25311, Note_on_c, 0, 62, 0
2, 25315, Note_on_c, 0, 61, 65
2, 25319, Control_c, 0, 64, 61
2, 25330, Note_on_c, 0, 80, 77
2, 25348, Note_on_c, 0, 81, 0
2, 25404, Note_on_c, 0, 61, 0
2, 25405, Note_on_c, 0, 80, 0
2, 25409, Note_on_c, 0, 59, 62
2, 25414, Note_on_c, 0, 78, 74
2, 25418, Control_c, 0, 64, 60
2, 25446, Note_on_c, 0, 59, 0
2, 25474, Control_c, 0, 64, 59
2, 25484, Note_on_c, 0, 80, 74
2, 25493, Control_c, 0, 64, 58
2, 25498, Note_on_c, 0, 78, 0
2, 25532, Control_c, 0, 64, 57
2, 25547, Note_on_c, 0, 59, 62
2, 25565, Note_on_c, 0, 80, 0
2, 25570, Control_c, 0, 64, 56
2, 25573, Note_on_c, 0, 81, 75
2, 25607, Control_c, 0, 64, 55
2, 25622, Note_on_c, 0, 59, 0
2, 25627, Note_on_c, 0, 61, 57
2, 25629, Control_c, 0, 64, 54
2, 25648, Control_c, 0, 64, 53
2, 25683, Control_c, 0, 64, 52
2, 25705, Control_c, 0, 64, 51
2, 25705, Note_on_c, 0, 81, 0
2, 25709, Note_on_c, 0, 76, 72
2, 25714, Note_on_c, 0, 61, 0
2, 25723, Control_c, 0, 64, 50
2, 25729, Note_on_c, 0, 62, 64
2, 25780, Control_c, 0, 64, 49
2, 25808, Note_on_c, 0, 73, 80
2, 25824, Control_c, 0, 64, 48
2, 25824, Note_on_c, 0, 61, 61
2, 25824, Note_on_c, 0, 62, 0
2, 25824, Note_on_c, 0, 76, 0
2, 25858, Control_c, 0, 64, 47
2, 25897, Note_on_c, 0, 61, 0
2, 25916, Control_c, 0, 64, 46
2, 25920, Note_on_c, 0, 62, 63
2, 25928, Note_on_c, 0, 73, 0
2, 25939, Control_c, 0, 64, 45
2, 25939, Note_on_c, 0, 71, 75
2, 25954, Control_c, 0, 64, 44
2, 26000, Note_on_c, 0, 61, 61
2, 26002, Note_on_c, 0, 62, 0
2, 26030, Control_c, 0, 64, 43
2, 26053, Note_on_c, 0, 73, 83
2, 26073, Note_on_c, 0, 61, 0
2, 26078, Note_on_c, 0, 71, 0
2, 26088, Note_on_c, 0, 62, 62
2, 26164, Note_on_c, 0, 61, 60
2, 26175, Note_on_c, 0, 62, 0
2, 26175, Note_on_c, 0, 76, 82
2, 26181, Note_on_c, 0, 73, 0
2, 26243, Note_on_c, 0, 61, 0
2, 26262, Note_on_c, 0, 62, 59
2, 26302, Note_on_c, 0, 76, 0
2, 26311, Note_on_c, 0, 69, 76
2, 26324, Note_on_c, 0, 61, 58
2, 26340, Note_on_c, 0, 62, 0
2, 26395, Note_on_c, 0, 61, 0
2, 26413, Note_on_c, 0, 73, 78
2, 26418, Note_on_c, 0, 62, 54
2, 26427, Note_on_c, 0, 69, 0
2, 26473, Note_on_c, 0, 61, 55
2, 26486, Note_on_c, 0, 62, 0
2, 26528, Note_on_c, 0, 76, 81
2, 26542, Note_on_c, 0, 61, 0
2, 26549, Note_on_c, 0, 73, 0
2, 26579, Note_on_c, 0, 62, 54
2, 26636, Note_on_c, 0, 61, 48
2, 26636, Note_on_c, 0, 62, 0
2, 26638, Note_on_c, 0, 79, 83
2, 26645, Note_on_c, 0, 76, 0
2, 26687, Note_on_c, 0, 61, 0
2, 26713, Note_on_c, 0, 62, 61
2, 26763, Note_on_c, 0, 78, 79
2, 26791, Note_on_c, 0, 79, 0
2, 26805, Note_on_c, 0, 62, 0
2, 26839, Note_on_c, 0, 61, 51
2, 26845, Note_on_c, 0, 59, 51
2, 26879, Note_on_c, 0, 76, 79
2, 26900, Note_on_c, 0, 59, 0
2, 26900, Note_on_c, 0, 78, 0
2, 26923, Note_on_c, 0, 76, 0
2, 26977, Note_on_c, 0, 61, 0
2, 26991, Note_on_c, 0, 60, 63
2, 27014, Note_on_c, 0, 76, 69
2, 27052, Note_on_c, 0, 78, 72
2, 27081, Note_on_c, 0, 76, 0
2, 27124, Note_on_c, 0, 60, 0
2, 27129, Note_on_c, 0, 78, 0
2, 27140, Note_on_c, 0, 57, 65
2, 27140, Note_on_c, 0, 79, 74
2, 27216, Note_on_c, 0, 79, 0
2, 27218, Note_on_c, 0, 78, 74
2, 27263, Note_on_c, 0, 57, 0
2, 27268, Note_on_c, 0, 54, 68
2, 27295, Note_on_c, 0, 78, 0
2, 27295, Note_on_c, 0, 79, 69
2, 27366, Note_on_c, 0, 78, 69
2, 27366, Note_on_c, 0, 79, 0
2, 27378, Note_on_c, 0, 54, 0
2, 27385, Note_on_c, 0, 52, 70
2, 27436, Note_on_c, 0, 78, 0
2, 27440, Note_on_c, 0, 79, 62
2, 27510, Note_on_c, 0, 54, 75
2, 27510, Note_on_c, 0, 78, 68
2, 27510, Note_on_c, 0, 79, 0
2, 27521, Note_on_c, 0, 52, 0
2, 27567, Note_on_c, 0, 78, 0
2, 27571, Note_on_c, 0, 79, 59
2, 27612, Note_on_c, 0, 54, 0
2, 27619, Note_on_c, 0, 57, 72
2, 27639, Note_on_c, 0, 78, 69
2, 27644, Note_on_c, 0, 79, 0
2, 27707, Note_on_c, 0, 78, 0
2, 27711, Note_on_c, 0, 79, 62
2, 27750, Note_on_c, 0, 57, 0
2, 27759, Note_on_c, 0, 50, 70
2, 27774, Note_on_c, 0, 78, 67
2, 27778, Note_on_c, 0, 79, 0
2, 27843, Note_on_c, 0, 78, 0
2, 27847, Note_on_c, 0, 79, 61
2, 27879, Note_on_c, 0, 54, 67
2, 27895, Note_on_c, 0, 50, 0
2, 27908, Note_on_c, 0, 78, 68
2, 27908, Note_on_c, 0, 79, 0
2, 27975, Note_on_c, 0, 78, 0
2, 27985, Note_on_c, 0, 79, 59
2, 28004, Note_on_c, 0, 57, 71
2, 28013, Note_on_c, 0, 54, 0
2, 28030, Note_on_c, 0, 78, 64
2, 28036, Note_on_c, 0, 79, 0
2, 28096, Note_on_c, 0, 78, 0
2, 28102, Note_on_c, 0, 57, 0
2, 28109, Note_on_c, 0, 79, 67
2, 28113, Note_on_c, 0, 60, 64
2, 28174, Note_on_c, 0, 78, 65
2, 28187, Note_on_c, 0, 79, 0
2, 28227, Note_on_c, 0, 60, 0
2, 28234, Note_on_c, 0, 59, 61
2, 28260, Note_on_c, 0, 78, 0
2, 28278, Note_on_c, 0, 76, 72
2, 28319, Note_on_c, 0, 59, 0
2, 28334, Note_on_c, 0, 57, 52
2, 28365, Note_on_c, 0, 57, 0
2, 28370, Note_on_c, 0, 78, 65
2, 28374, Note_on_c, 0, 76, 0
2, 28460, Note_on_c, 0, 79, 73
2, 28464, Note_on_c, 0, 57, 61
2, 28466, Note_on_c, 0, 78, 0
2, 28553, Note_on_c, 0, 59, 59
2, 28561, Note_on_c, 0, 57, 0
2, 28597, Note_on_c, 0, 79, 0
2, 28605, Note_on_c, 0, 74, 69
2, 28614, Note_on_c, 0, 59, 0
2, 28639, Note_on_c, 0, 60, 58
2, 28664, Control_c, 0, 64, 44
2, 28722, Note_on_c, 0, 74, 0
2, 28727, Note_on_c, 0, 59, 60
2, 28727, Note_on_c, 0, 60, 0
2, 28727, Note_on_c, 0, 71, 73
2, 28786, Note_on_c, 0, 59, 0
2, 28816, Note_on_c, 0, 60, 54
2, 28833, Note_on_c, 0, 71, 0
2, 28842, Note_on_c, 0, 69, 68
2, 28896, Note_on_c, 0, 59, 61
2, 28896, Note_on_c, 0, 60, 0
2, 28958, Note_on_c, 0, 59, 0
2, 28963, Note_on_c, 0, 71, 77
2, 28981, Note_on_c, 0, 69, 0
2, 28993, Note_on_c, 0, 60, 57
2, 29067, Note_on_c, 0, 60, 0
2, 29072, Note_on_c, 0, 59, 58
2, 29072, Note_on_c, 0, 71, 0
2, 29081, Note_on_c, 0, 74, 71
2, 29124, Note_on_c, 0, 59, 0
2, 29154, Note_on_c, 0, 60, 55
2, 29206, Note_on_c, 0, 74, 0
2, 29210, Note_on_c, 0, 67, 72
2, 29227, Note_on_c, 0, 59, 57
2, 29232, Note_on_c, 0, 60, 0
2, 29279, Note_on_c, 0, 59, 0
2, 29309, Note_on_c, 0, 60, 52
2, 29327, Note_on_c, 0, 67, 0
2, 29327, Note_on_c, 0, 71, 72
2, 29388, Note_on_c, 0, 59, 62
2, 29388, Note_on_c, 0, 60, 0
2, 29444, Note_on_c, 0, 59, 0
2, 29454, Note_on_c, 0, 74, 74
2, 29459, Note_on_c, 0, 71, 0
2, 29473, Note_on_c, 0, 60, 52
2, 29546, Note_on_c, 0, 59, 56
2, 29546, Note_on_c, 0, 60, 0
2, 29551, Note_on_c, 0, 74, 0
2, 29555, Note_on_c, 0, 77, 72
2, 29637, Note_on_c, 0, 59, 0
2, 29653, Note_on_c, 0, 60, 56
2, 29676, Note_on_c, 0, 75, 71
2, 29693, Note_on_c, 0, 77, 0
2, 29732, Note_on_c, 0, 57, 58
2, 29744, Note_on_c, 0, 60, 0
2, 29792, Note_on_c, 0, 74, 68
2, 29795, Note_on_c, 0, 75, 0
2, 29834, Note_on_c, 0, 57, 0
2, 29840, Note_on_c, 0, 59, 60
2, 29909, Note_on_c, 0, 74, 0
2, 29916, Note_on_c, 0, 60, 68
2, 29920, Note_on_c, 0, 59, 0
2, 29927, Note_on_c, 0, 75, 70
2, 29959, Note_on_c, 0, 60, 0
2, 30056, Note_on_c, 0, 72, 67
2, 30070, Note_on_c, 0, 75, 0
2, 30184, Note_on_c, 0, 69, 64
2, 30188, Note_on_c, 0, 72, 0
2, 30195, Note_on_c, 0, 63, 65
2, 30236, Note_on_c, 0, 63, 0
2, 30289, Note_on_c, 0, 69, 0
2, 30314, Note_on_c, 0, 67, 55
2, 30435, Note_on_c, 0, 60, 65
2, 30437, Note_on_c, 0, 69, 60
2, 30460, Note_on_c, 0, 67, 0
2, 30473, Note_on_c, 0, 60, 0
2, 30548, Note_on_c, 0, 69, 0
2, 30556, Note_on_c, 0, 72, 70
2, 30661, Note_on_c, 0, 72, 0
2, 30688, Note_on_c, 0, 57, 69
2, 30700, Note_on_c, 0, 65, 59
2, 30728, Note_on_c, 0, 57, 0
2, 30805, Note_on_c, 0, 69, 61
2, 30812, Note_on_c, 0, 65, 0
2, 30929, Note_on_c, 0, 72, 72
2, 30936, Note_on_c, 0, 53, 64
2, 30944, Note_on_c, 0, 69, 0
2, 30976, Note_on_c, 0, 53, 0
2, 31054, Note_on_c, 0, 72, 0
2, 31062, Note_on_c, 0, 75, 67
2, 31172, Note_on_c, 0, 74, 70
2, 31185, Note_on_c, 0, 57, 73
2, 31219, Note_on_c, 0, 75, 0
2, 31225, Note_on_c, 0, 57, 0
2, 31299, Note_on_c, 0, 72, 71
2, 31307, Note_on_c, 0, 74, 0
2, 31416, Note_on_c, 0, 72, 0
2, 31425, Note_on_c, 0, 58, 71
2, 31439, Note_on_c, 0, 74, 71
2, 31466, Note_on_c, 0, 58, 0
2, 31535, Note_on_c, 0, 70, 72
2, 31542, Note_on_c, 0, 74, 0
2, 31662, Note_on_c, 0, 70, 0
2, 31667, Note_on_c, 0, 67, 69
2, 31682, Note_on_c, 0, 62, 62
2, 31724, Note_on_c, 0, 62, 0
2, 31775, Note_on_c, 0, 67, 0
2, 31788, Note_on_c, 0, 66, 74
2, 31911, Note_on_c, 0, 67, 72
2, 31917, Note_on_c, 0, 58, 70
2, 31926, Note_on_c, 0, 66, 0
2, 31954, Note_on_c, 0, 58, 0
2, 32030, Note_on_c, 0, 67, 0
2, 32030, Note_on_c, 0, 70, 74
2, 32160, Note_on_c, 0, 55, 67
2, 32169, Note_on_c, 0, 63, 69
2, 32193, Note_on_c, 0, 70, 0
2, 32202, Note_on_c, 0, 55, 0
2, 32246, Note_on_c, 0, 63, 0
2, 32282, Note_on_c, 0, 67, 65
2, 32407, Note_on_c, 0, 70, 76
2, 32416, Note_on_c, 0, 51, 64
2, 32425, Note_on_c, 0, 67, 0
2, 32458, Note_on_c, 0, 51, 0
2, 32520, Note_on_c, 0, 74, 71
2, 32529, Note_on_c, 0, 70, 0
2, 32654, Note_on_c, 0, 72, 67
2, 32658, Note_on_c, 0, 55, 63
2, 32700, Note_on_c, 0, 74, 0
2, 32704, Note_on_c, 0, 55, 0
2, 32759, Note_on_c, 0, 70, 62
2, 32761, Note_on_c, 0, 72, 0
2, 32892, Note_on_c, 0, 70, 0
2, 32898, Note_on_c, 0, 57, 67
2, 32898, Note_on_c, 0, 72, 73
2, 32938, Note_on_c, 0, 57, 0
2, 33036, Note_on_c, 0, 69, 61
2, 33042, Note_on_c, 0, 72, 0
2, 33145, Note_on_c, 0, 66, 70
2, 33150, Note_on_c, 0, 69, 0
2, 33178, Note_on_c, 0, 60, 49
2, 33207, Note_on_c, 0, 60, 0
2, 33259, Note_on_c, 0, 66, 0
2, 33270, Note_on_c, 0, 64, 63
2, 33392, Note_on_c, 0, 57, 59
2, 33394, Note_on_c, 0, 66, 70
2, 33402, Note_on_c, 0, 64, 0
2, 33431, Note_on_c, 0, 57, 0
2, 33515, Note_on_c, 0, 66, 0
2, 33515, Note_on_c, 0, 69, 61
2, 33618, Note_on_c, 0, 54, 65
2, 33620, Note_on_c, 0, 69, 0
2, 33638, Note_on_c, 0, 62, 61
2, 33659, Note_on_c, 0, 54, 0
2, 33741, Note_on_c, 0, 62, 0
2, 33745, Note_on_c, 0, 66, 67
2, 33876, Note_on_c, 0, 69, 64
2, 33881, Note_on_c, 0, 50, 60
2, 33910, Note_on_c, 0, 66, 0
2, 33919, Note_on_c, 0, 50, 0
2, 33980, Note_on_c, 0, 69, 0
2, 33984, Note_on_c, 0, 72, 72
2, 34121, Note_on_c, 0, 54, 66
2, 34126, Note_on_c, 0, 70, 58
2, 34145, Note_on_c, 0, 72, 0
2, 34156, Note_on_c, 0, 54, 0
2, 34234, Note_on_c, 0, 69, 58
2, 34251, Note_on_c, 0, 70, 0
2, 34272, Note_on_c, 0, 69, 0
2, 34361, Note_on_c, 0, 55, 59
2, 34361, Note_on_c, 0, 69, 61
2, 34416, Note_on_c, 0, 70, 62
2, 34432, Note_on_c, 0, 69, 0
2, 34467, Note_on_c, 0, 55, 0
2, 34491, Note_on_c, 0, 50, 57
2, 34491, Note_on_c, 0, 70, 0
2, 34495, Note_on_c, 0, 72, 63
2, 34571, Note_on_c, 0, 70, 65
2, 34577, Note_on_c, 0, 72, 0
2, 34586, Note_on_c, 0, 50, 0
2, 34602, Note_on_c, 0, 46, 63
2, 34647, Note_on_c, 0, 70, 0
2, 34656, Note_on_c, 0, 72, 65
2, 34702, Note_on_c, 0, 46, 0
2, 34719, Note_on_c, 0, 45, 57
2, 34723, Note_on_c, 0, 70, 63
2, 34728, Note_on_c, 0, 72, 0
2, 34798, Note_on_c, 0, 70, 0
2, 34808, Note_on_c, 0, 72, 62
2, 34845, Note_on_c, 0, 45, 0
2, 34847, Note_on_c, 0, 46, 63
2, 34862, Note_on_c, 0, 70, 60
2, 34862, Note_on_c, 0, 72, 0
2, 34936, Note_on_c, 0, 70, 0
2, 34943, Note_on_c, 0, 46, 0
2, 34943, Note_on_c, 0, 72, 69
2, 34952, Note_on_c, 0, 50, 61
2, 35008, Note_on_c, 0, 70, 63
2, 35012, Note_on_c, 0, 72, 0
2, 35069, Note_on_c, 0, 50, 0
2, 35086, Note_on_c, 0, 70, 0
2, 35086, Note_on_c, 0, 72, 63
2, 35093, Note_on_c, 0, 43, 62
2, 35146, Note_on_c, 0, 70, 60
2, 35150, Note_on_c, 0, 72, 0
2, 35221, Note_on_c, 0, 46, 65
2, 35226, Note_on_c, 0, 70, 0
2, 35226, Note_on_c, 0, 72, 64
2, 35256, Note_on_c, 0, 43, 0
2, 35293, Note_on_c, 0, 72, 0
2, 35295, Note_on_c, 0, 70, 66
2, 35339, Note_on_c, 0, 50, 63
2, 35354, Note_on_c, 0, 46, 0
2, 35376, Note_on_c, 0, 70, 0
2, 35386, Note_on_c, 0, 72, 63
2, 35446, Note_on_c, 0, 70, 63
2, 35450, Note_on_c, 0, 72, 0
2, 35455, Note_on_c, 0, 50, 0
2, 35468, Note_on_c, 0, 53, 68
2, 35524, Note_on_c, 0, 70, 0
2, 35533, Note_on_c, 0, 72, 63
2, 35578, Note_on_c, 0, 52, 76
2, 35585, Note_on_c, 0, 53, 0
2, 35612, Note_on_c, 0, 70, 67
2, 35612, Note_on_c, 0, 72, 0
2, 35693, Note_on_c, 0, 50, 75
2, 35697, Note_on_c, 0, 70, 0
2, 35706, Note_on_c, 0, 52, 0
2, 35734, Note_on_c, 0, 72, 59
2, 35776, Note_on_c, 0, 64, 71
2, 35779, Note_on_c, 0, 50, 0
2, 35787, Note_on_c, 0, 72, 0
2, 35808, Note_on_c, 0, 48, 71
2, 35808, Note_on_c, 0, 70, 63
2, 35886, Note_on_c, 0, 70, 0
2, 35908, Note_on_c, 0, 72, 65
2, 35937, Note_on_c, 0, 48, 0
2, 35948, Note_on_c, 0, 43, 67
2, 35957, Note_on_c, 0, 72, 0
2, 35962, Note_on_c, 0, 70, 56
2, 36025, Note_on_c, 0, 70, 0
2, 36045, Note_on_c, 0, 43, 0
2, 36054, Note_on_c, 0, 40, 64
2, 36054, Note_on_c, 0, 72, 69
2, 36107, Note_on_c, 0, 72, 0
2, 36112, Note_on_c, 0, 70, 64
2, 36158, Note_on_c, 0, 40, 0
2, 36169, Note_on_c, 0, 38, 63
2, 36178, Note_on_c, 0, 70, 0
2, 36208, Note_on_c, 0, 72, 62
2, 36253, Note_on_c, 0, 70, 63
2, 36258, Note_on_c, 0, 72, 0
2, 36276, Note_on_c, 0, 40, 62
2, 36304, Note_on_c, 0, 38, 0
2, 36305, Control_c, 0, 64, 43
2, 36311, Note_on_c, 0, 70, 0
2, 36346, Note_on_c, 0, 72, 68
2, 36367, Note_on_c, 0, 40, 0
2, 36380, Note_on_c, 0, 43, 68
2, 36393, Note_on_c, 0, 72, 0
2, 36397, Note_on_c, 0, 70, 58
2, 36455, Note_on_c, 0, 70, 0
2, 36488, Note_on_c, 0, 72, 64
2, 36499, Note_on_c, 0, 43, 0
2, 36520, Note_on_c, 0, 36, 71
2, 36541, Note_on_c, 0, 72, 0
2, 36544, Note_on_c, 0, 70, 65
2, 36598, Note_on_c, 0, 70, 0
2, 36642, Note_on_c, 0, 36, 0
2, 36642, Note_on_c, 0, 72, 56
2, 36646, Note_on_c, 0, 43, 71
2, 36704, Note_on_c, 0, 70, 56
2, 36715, Note_on_c, 0, 43, 0
2, 36737, Note_on_c, 0, 48, 62
2, 36751, Note_on_c, 0, 70, 0
2, 36838, Note_on_c, 0, 48, 0
2, 36855, Note_on_c, 0, 52, 59
2, 36855, Note_on_c, 0, 70, 53
2, 36876, Control_c, 0, 64, 42
2, 36920, Note_on_c, 0, 72, 0
2, 36946, Note_on_c, 0, 70, 0
2, 36958, Note_on_c, 0, 50, 47
2, 36958, Note_on_c, 0, 69, 54
2, 36972, Note_on_c, 0, 52, 0
2, 36999, Note_on_c, 0, 64, 0
2, 37026, Note_on_c, 0, 70, 63
2, 37062, Note_on_c, 0, 69, 0
2, 37076, Note_on_c, 0, 48, 63
2, 37080, Note_on_c, 0, 50, 0
2, 37089, Note_on_c, 0, 70, 0
2, 37158, Note_on_c, 0, 69, 63
2, 37182, Note_on_c, 0, 48, 0
2, 37182, Note_on_c, 0, 63, 67
2, 37210, Note_on_c, 0, 53, 63
2, 37232, Note_on_c, 0, 63, 0
2, 37249, Note_on_c, 0, 65, 60
2, 37310, Note_on_c, 0, 53, 0
2, 37333, Note_on_c, 0, 65, 0
2, 37337, Note_on_c, 0, 48, 63
2, 37354, Note_on_c, 0, 63, 65
2, 37402, Note_on_c, 0, 63, 0
2, 37411, Note_on_c, 0, 65, 55
2, 37419, Note_on_c, 0, 48, 0
2, 37440, Note_on_c, 0, 45, 60
2, 37474, Note_on_c, 0, 65, 0
2, 37504, Note_on_c, 0, 63, 65
2, 37513, Control_c, 0, 64, 43
2, 37534, Note_on_c, 0, 45, 0
2, 37548, Note_on_c, 0, 63, 0
2, 37556, Note_on_c, 0, 43, 56
2, 37556, Note_on_c, 0, 65, 53
2, 37613, Note_on_c, 0, 65, 0
2, 37637, Note_on_c, 0, 63, 65
2, 37666, Note_on_c, 0, 45, 56
2, 37668, Note_on_c, 0, 43, 0
2, 37687, Note_on_c, 0, 63, 0
2, 37696, Note_on_c, 0, 65, 56
2, 37748, Note_on_c, 0, 45, 0
2, 37752, Note_on_c, 0, 65, 0
2, 37776, Note_on_c, 0, 63, 65
2, 37781, Note_on_c, 0, 48, 59
2, 37824, Note_on_c, 0, 63, 0
2, 37835, Note_on_c, 0, 65, 59
2, 37896, Note_on_c, 0, 48, 0
2, 37896, Note_on_c, 0, 65, 0
2, 37916, Note_on_c, 0, 63, 69
2, 37929, Note_on_c, 0, 41, 64
2, 37970, Note_on_c, 0, 63, 0
2, 37974, Note_on_c, 0, 65, 61
2, 38033, Note_on_c, 0, 65, 0
2, 38055, Note_on_c, 0, 41, 0
2, 38055, Note_on_c, 0, 48, 64
2, 38059, Note_on_c, 0, 63, 63
2, 38117, Note_on_c, 0, 63, 0
2, 38117, Note_on_c, 0, 65, 59
2, 38145, Note_on_c, 0, 48, 0
2, 38170, Note_on_c, 0, 65, 0
2, 38175, Note_on_c, 0, 53, 60
2, 38190, Note_on_c, 0, 63, 58
2, 38249, Note_on_c, 0, 65, 60
2, 38253, Note_on_c, 0, 63, 0
2, 38278, Control_c, 0, 64, 44
2, 38289, Note_on_c, 0, 53, 0
2, 38299, Note_on_c, 0, 57, 68
2, 38306, Note_on_c, 0, 65, 0
2, 38333, Note_on_c, 0, 63, 61
2, 38387, Note_on_c, 0, 65, 56
2, 38396, Note_on_c, 0, 63, 0
2, 38400, Note_on_c, 0, 57, 0
2, 38406, Note_on_c, 0, 55, 63
2, 38444, Note_on_c, 0, 65, 0
2, 38468, Note_on_c, 0, 63, 51
2, 38497, Note_on_c, 0, 63, 0
2, 38506, Note_on_c, 0, 53, 61
2, 38510, Note_on_c, 0, 55, 0
2, 38510, Note_on_c, 0, 62, 65
2, 38561, Note_on_c, 0, 53, 0
2, 38581, Note_on_c, 0, 69, 0
2, 38585, Note_on_c, 0, 63, 63
2, 38609, Note_on_c, 0, 62, 0
2, 38668, Note_on_c, 0, 63, 0
2, 38677, Note_on_c, 0, 57, 64
2, 38677, Note_on_c, 0, 62, 57
2, 38741, Note_on_c, 0, 57, 0
2, 38756, Note_on_c, 0, 58, 66
2, 38779, Control_c, 0, 64, 43
2, 38827, Note_on_c, 0, 58, 0
2, 38831, Note_on_c, 0, 69, 63
2, 38850, Note_on_c, 0, 62, 0
2, 38857, Note_on_c, 0, 60, 55
2, 38929, Note_on_c, 0, 65, 65
2, 38942, Note_on_c, 0, 60, 0
2, 38942, Note_on_c, 0, 69, 0
2, 38958, Note_on_c, 0, 58, 60
2, 39030, Note_on_c, 0, 58, 0
2, 39046, Note_on_c, 0, 64, 69
2, 39046, Note_on_c, 0, 65, 0
2, 39074, Note_on_c, 0, 60, 56
2, 39139, Note_on_c, 0, 60, 0
2, 39169, Note_on_c, 0, 58, 61
2, 39178, Note_on_c, 0, 65, 67
2, 39185, Note_on_c, 0, 64, 0
2, 39227, Note_on_c, 0, 58, 0
2, 39274, Note_on_c, 0, 60, 60
2, 39296, Note_on_c, 0, 69, 69
2, 39301, Note_on_c, 0, 65, 0
2, 39356, Note_on_c, 0, 60, 0
2, 39382, Note_on_c, 0, 58, 57
2, 39419, Note_on_c, 0, 62, 73
2, 39423, Note_on_c, 0, 69, 0
2, 39446, Note_on_c, 0, 58, 0
2, 39485, Note_on_c, 0, 60, 51
2, 39543, Note_on_c, 0, 62, 0
2, 39543, Note_on_c, 0, 65, 67
2, 39558, Note_on_c, 0, 60, 0
2, 39582, Note_on_c, 0, 58, 54
2, 39651, Note_on_c, 0, 58, 0
2, 39662, Note_on_c, 0, 69, 73
2, 39693, Note_on_c, 0, 60, 60
2, 39693, Note_on_c, 0, 65, 0
2, 39764, Note_on_c, 0, 60, 0
2, 39771, Note_on_c, 0, 72, 75
2, 39773, Note_on_c, 0, 69, 0
2, 39782, Note_on_c, 0, 58, 58
2, 39851, Note_on_c, 0, 58, 0
2, 39884, Note_on_c, 0, 60, 59
2, 39899, Note_on_c, 0, 70, 76
2, 39915, Note_on_c, 0, 72, 0
2, 39964, Note_on_c, 0, 60, 0
2, 39970, Note_on_c, 0, 58, 56
2, 40011, Note_on_c, 0, 69, 76
2, 40045, Note_on_c, 0, 70, 0
2, 40049, Note_on_c, 0, 58, 0
2, 40078, Note_on_c, 0, 60, 56
2, 40151, Note_on_c, 0, 69, 0
2, 40153, Note_on_c, 0, 67, 75
2, 40167, Note_on_c, 0, 60, 0
2, 40169, Note_on_c, 0, 58, 59
2, 40242, Note_on_c, 0, 58, 0
2, 40261, Note_on_c, 0, 60, 55
2, 40268, Note_on_c, 0, 74, 77
2, 40283, Note_on_c, 0, 67, 0
2, 40349, Note_on_c, 0, 60, 0
2, 40358, Note_on_c, 0, 58, 55
2, 40391, Note_on_c, 0, 70, 73
2, 40424, Note_on_c, 0, 58, 0
2, 40441, Note_on_c, 0, 74, 0
2, 40445, Note_on_c, 0, 60, 52
2, 40495, Note_on_c, 0, 69, 74
2, 40523, Note_on_c, 0, 70, 0
2, 40531, Note_on_c, 0, 58, 57
2, 40531, Note_on_c, 0, 60, 0
2, 40597, Note_on_c, 0, 58, 0
2, 40620, Note_on_c, 0, 60, 58
2, 40631, Note_on_c, 0, 70, 81
2, 40669, Note_on_c, 0, 69, 0
2, 40714, Note_on_c, 0, 58, 61
2, 40716, Note_on_c, 0, 60, 0
2, 40743, Note_on_c, 0, 74, 75
2, 40753, Note_on_c, 0, 70, 0
2, 40777, Note_on_c, 0, 58, 0
2, 40794, Note_on_c, 0, 60, 51
2, 40865, Note_on_c, 0, 67, 76
2, 40880, Note_on_c, 0, 58, 63
2, 40893, Note_on_c, 0, 60, 0
2, 40907, Note_on_c, 0, 74, 0
2, 40963, Note_on_c, 0, 58, 0
2, 40974, Note_on_c, 0, 60, 53
2, 40983, Note_on_c, 0, 70, 80
2, 41021, Note_on_c, 0, 67, 0
2, 41054, Note_on_c, 0, 58, 54
2, 41066, Note_on_c, 0, 60, 0
2, 41109, Note_on_c, 0, 74, 80
2, 41133, Note_on_c, 0, 58, 0
2, 41141, Note_on_c, 0, 70, 0
2, 41150, Note_on_c, 0, 60, 54
2, 41200, Control_c, 0, 64, 44
2, 41225, Note_on_c, 0, 77, 87
2, 41236, Note_on_c, 0, 58, 60
2, 41240, Note_on_c, 0, 74, 0
2, 41249, Note_on_c, 0, 60, 0
2, 41317, Note_on_c, 0, 58, 0
2, 41336, Note_on_c, 0, 60, 58
2, 41356, Note_on_c, 0, 76, 87
2, 41383, Note_on_c, 0, 77, 0
2, 41421, Note_on_c, 0, 58, 57
2, 41430, Note_on_c, 0, 60, 0
2, 41476, Note_on_c, 0, 74, 90
2, 41507, Note_on_c, 0, 58, 0
2, 41512, Note_on_c, 0, 76, 0
2, 41527, Note_on_c, 0, 60, 59
2, 41603, Note_on_c, 0, 58, 61
2, 41617, Note_on_c, 0, 60, 0
2, 41617, Note_on_c, 0, 76, 89
2, 41661, Note_on_c, 0, 74, 0
2, 41692, Note_on_c, 0, 58, 0
2, 41706, Note_on_c, 0, 60, 59
2, 41726, Note_on_c, 0, 79, 86
2, 41759, Note_on_c, 0, 76, 0
2, 41785, Note_on_c, 0, 58, 55
2, 41796, Note_on_c, 0, 60, 0
2, 41860, Note_on_c, 0, 76, 90
2, 41864, Note_on_c, 0, 58, 0
2, 41884, Note_on_c, 0, 60, 57
2, 41898, Note_on_c, 0, 79, 0
2, 41963, Note_on_c, 0, 58, 62
2, 41963, Note_on_c, 0, 74, 86
2, 41972, Note_on_c, 0, 60, 0
2, 41987, Note_on_c, 0, 76, 0
2, 42041, Note_on_c, 0, 58, 0
2, 42063, Note_on_c, 0, 60, 57
2, 42099, Note_on_c, 0, 76, 87
2, 42123, Note_on_c, 0, 58, 58
2, 42141, Note_on_c, 0, 74, 0
2, 42145, Note_on_c, 0, 60, 0
2, 42203, Note_on_c, 0, 79, 87
2, 42207, Note_on_c, 0, 58, 0
2, 42222, Note_on_c, 0, 60, 55
2, 42234, Note_on_c, 0, 76, 0
2, 42305, Note_on_c, 0, 58, 57
2, 42320, Note_on_c, 0, 60, 0
2, 42339, Note_on_c, 0, 72, 87
2, 42341, Note_on_c, 0, 79, 0
2, 42381, Note_on_c, 0, 58, 0
2, 42393, Note_on_c, 0, 60, 55
2, 42463, Note_on_c, 0, 76, 85
2, 42477, Note_on_c, 0, 58, 58
2, 42484, Note_on_c, 0, 72, 0
2, 42493, Note_on_c, 0, 60, 0
2, 42540, Note_on_c, 0, 58, 0
2, 42566, Note_on_c, 0, 60, 54
2, 42583, Note_on_c, 0, 79, 81
2, 42618, Note_on_c, 0, 76, 0
2, 42642, Note_on_c, 0, 58, 64
2, 42646, Note_on_c, 0, 60, 0
2, 42698, Note_on_c, 0, 82, 82
2, 42706, Note_on_c, 0, 79, 0
2, 42726, Note_on_c, 0, 58, 0
2, 42736, Note_on_c, 0, 60, 62
2, 42814, Note_on_c, 0, 81, 78
2, 42826, Note_on_c, 0, 60, 0
2, 42832, Note_on_c, 0, 58, 58
2, 42846, Note_on_c, 0, 82, 0
2, 42924, Note_on_c, 0, 79, 81
2, 42929, Note_on_c, 0, 57, 71
2, 42929, Note_on_c, 0, 58, 0
2, 42962, Note_on_c, 0, 81, 0
2, 42997, Note_on_c, 0, 57, 0
2, 43012, Note_on_c, 0, 58, 63
2, 43066, Note_on_c, 0, 58, 0
2, 43066, Note_on_c, 0, 84, 74
2, 43071, Note_on_c, 0, 57, 67
2, 43077, Note_on_c, 0, 79, 0
2, 43111, Note_on_c, 0, 57, 0
2, 43203, Note_on_c, 0, 81, 70
2, 43245, Note_on_c, 0, 84, 0
2, 43323, Note_on_c, 0, 60, 71
2, 43333, Note_on_c, 0, 77, 80
2, 43336, Note_on_c, 0, 81, 0
2, 43365, Note_on_c, 0, 60, 0
2, 43457, Note_on_c, 0, 76, 78
2, 43461, Note_on_c, 0, 77, 0
2, 43572, Note_on_c, 0, 57, 78
2, 43579, Note_on_c, 0, 77, 84
2, 43603, Note_on_c, 0, 76, 0
2, 43609, Note_on_c, 0, 57, 0
2, 43697, Note_on_c, 0, 77, 0
2, 43697, Note_on_c, 0, 81, 74
2, 43820, Note_on_c, 0, 53, 71
2, 43826, Note_on_c, 0, 74, 76
2, 43845, Note_on_c, 0, 81, 0
2, 43868, Note_on_c, 0, 53, 0
2, 43929, Note_on_c, 0, 77, 81
2, 43957, Note_on_c, 0, 74, 0
2, 44077, Note_on_c, 0, 81, 76
2, 44080, Note_on_c, 0, 50, 71
2, 44122, Note_on_c, 0, 77, 0
2, 44129, Note_on_c, 0, 50, 0
2, 44187, Note_on_c, 0, 84, 70
2, 44193, Note_on_c, 0, 81, 0
2, 44317, Note_on_c, 0, 53, 76
2, 44326, Note_on_c, 0, 82, 75
2, 44364, Note_on_c, 0, 53, 0
2, 44368, Note_on_c, 0, 84, 0
2, 44454, Note_on_c, 0, 81, 72
2, 44462, Note_on_c, 0, 82, 0
2, 44577, Note_on_c, 0, 55, 71
2, 44588, Note_on_c, 0, 82, 75
2, 44603, Note_on_c, 0, 81, 0
2, 44612, Note_on_c, 0, 55, 0
2, 44722, Note_on_c, 0, 79, 74
2, 44790, Note_on_c, 0, 82, 0
2, 44834, Note_on_c, 0, 76, 75
2, 44838, Note_on_c, 0, 58, 65
2, 44853, Note_on_c, 0, 79, 0
2, 44886, Note_on_c, 0, 58, 0
2, 44956, Note_on_c, 0, 76, 0
2, 44968, Note_on_c, 0, 74, 70
2, 45066, Note_on_c, 0, 55, 72
2, 45084, Note_on_c, 0, 76, 78
2, 45091, Note_on_c, 0, 74, 0
2, 45107, Note_on_c, 0, 55, 0
2, 45196, Note_on_c, 0, 76, 0
2, 45198, Note_on_c, 0, 79, 75
2, 45312, Note_on_c, 0, 52, 74
2, 45316, Note_on_c, 0, 79, 0
2, 45328, Note_on_c, 0, 72, 75
2, 45354, Note_on_c, 0, 52, 0
2, 45445, Note_on_c, 0, 76, 73
2, 45449, Note_on_c, 0, 72, 0
2, 45559, Note_on_c, 0, 48, 72
2, 45564, Note_on_c, 0, 79, 74
2, 45578, Note_on_c, 0, 76, 0
2, 45596, Note_on_c, 0, 48, 0
2, 45688, Note_on_c, 0, 82, 69
2, 45692, Note_on_c, 0, 79, 0
2, 45800, Note_on_c, 0, 52, 74
2, 45811, Note_on_c, 0, 81, 67
2, 45839, Note_on_c, 0, 52, 0
2, 45896, Note_on_c, 0, 82, 0
2, 45927, Note_on_c, 0, 81, 0
2, 45931, Note_on_c, 0, 79, 71
2, 46043, Note_on_c, 0, 53, 63
2, 46057, Note_on_c, 0, 79, 0
2, 46068, Note_on_c, 0, 81, 71
2, 46174, Note_on_c, 0, 48, 60
2, 46174, Note_on_c, 0, 53, 0
2, 46195, Note_on_c, 0, 77, 77
2, 46199, Note_on_c, 0, 81, 0
2, 46288, Note_on_c, 0, 48, 0
2, 46301, Note_on_c, 0, 45, 67
2, 46301, Note_on_c, 0, 77, 0
2, 46306, Note_on_c, 0, 72, 77
2, 46420, Note_on_c, 0, 45, 0
2, 46424, Note_on_c, 0, 43, 62
2, 46434, Note_on_c, 0, 70, 83
2, 46439, Note_on_c, 0, 72, 0
2, 46540, Note_on_c, 0, 45, 68
2, 46554, Note_on_c, 0, 43, 0
2, 46554, Note_on_c, 0, 72, 79
2, 46570, Note_on_c, 0, 70, 0
2, 46646, Note_on_c, 0, 45, 0
2, 46661, Note_on_c, 0, 48, 67
2, 46674, Note_on_c, 0, 77, 77
2, 46678, Note_on_c, 0, 72, 0
2, 46748, Control_c, 0, 64, 43
2, 46770, Note_on_c, 0, 48, 0
2, 46796, Note_on_c, 0, 41, 68
2, 46800, Note_on_c, 0, 69, 77
2, 46871, Note_on_c, 0, 77, 0
2, 46919, Note_on_c, 0, 72, 82
2, 46929, Note_on_c, 0, 45, 64
2, 46933, Note_on_c, 0, 69, 0
2, 46957, Note_on_c, 0, 41, 0
2, 47037, Note_on_c, 0, 45, 0
2, 47042, Note_on_c, 0, 48, 71
2, 47046, Note_on_c, 0, 75, 81
2, 47088, Note_on_c, 0, 72, 0
2, 47112, Control_c, 0, 64, 44
2, 47128, Note_on_c, 0, 48, 0
2, 47153, Note_on_c, 0, 51, 76
2, 47169, Note_on_c, 0, 79, 82
2, 47184, Note_on_c, 0, 75, 0
2, 47282, Note_on_c, 0, 51, 0
2, 47292, Note_on_c, 0, 50, 66
2, 47296, Note_on_c, 0, 77, 85
2, 47345, Note_on_c, 0, 79, 0
2, 47404, Note_on_c, 0, 48, 67
2, 47404, Note_on_c, 0, 75, 81
2, 47413, Note_on_c, 0, 50, 0
2, 47430, Note_on_c, 0, 77, 0
2, 47470, Note_on_c, 0, 75, 0
2, 47541, Note_on_c, 0, 48, 0
2, 47552, Note_on_c, 0, 53, 66
2, 47557, Note_on_c, 0, 75, 79
2, 47610, Note_on_c, 0, 75, 0
2, 47618, Note_on_c, 0, 74, 77
2, 47646, Note_on_c, 0, 53, 0
2, 47658, Note_on_c, 0, 50, 65
2, 47679, Note_on_c, 0, 75, 71
2, 47681, Note_on_c, 0, 74, 0
2, 47740, Note_on_c, 0, 75, 0
2, 47756, Note_on_c, 0, 74, 72
2, 47762, Note_on_c, 0, 50, 0
2, 47775, Note_on_c, 0, 46, 66
2, 47825, Note_on_c, 0, 74, 0
2, 47829, Note_on_c, 0, 75, 71
2, 47872, Note_on_c, 0, 75, 0
2, 47881, Note_on_c, 0, 46, 0
2, 47887, Note_on_c, 0, 74, 70
2, 47894, Note_on_c, 0, 45, 61
2, 47943, Note_on_c, 0, 75, 73
2, 47954, Note_on_c, 0, 74, 0
2, 47993, Note_on_c, 0, 75, 0
2, 47999, Note_on_c, 0, 45, 0
2, 47999, Note_on_c, 0, 46, 64
2, 48008, Note_on_c, 0, 74, 68
2, 48013, Control_c, 0, 64, 43
2, 48059, Note_on_c, 0, 75, 75
2, 48065, Note_on_c, 0, 74, 0
2, 48096, Note_on_c, 0, 46, 0
2, 48116, Note_on_c, 0, 50, 60
2, 48118, Note_on_c, 0, 74, 70
2, 48136, Note_on_c, 0, 75, 0
2, 48232, Note_on_c, 0, 50, 0
2, 48282, Note_on_c, 0, 41, 63
2, 48322, Control_c, 0, 64, 44
2, 48421, Note_on_c, 0, 46, 56
2, 48435, Note_on_c, 0, 41, 0
2, 48446, Note_on_c, 0, 72, 74
2, 48456, Control_c, 0, 64, 43
2, 48479, Note_on_c, 0, 74, 0
2, 48550, Note_on_c, 0, 70, 78
2, 48564, Note_on_c, 0, 50, 59
2, 48582, Note_on_c, 0, 46, 0
2, 48591, Note_on_c, 0, 72, 0
2, 48669, Note_on_c, 0, 69, 80
2, 48674, Note_on_c, 0, 50, 0
2, 48681, Note_on_c, 0, 70, 0
2, 48690, Note_on_c, 0, 53, 63
2, 48803, Note_on_c, 0, 67, 86
2, 48820, Note_on_c, 0, 52, 69
2, 48820, Note_on_c, 0, 53, 0
2, 48825, Note_on_c, 0, 69, 0
2, 48928, Note_on_c, 0, 65, 78
2, 48932, Note_on_c, 0, 67, 0
2, 48939, Note_on_c, 0, 50, 70
2, 48943, Note_on_c, 0, 52, 0
2, 48970, Note_on_c, 0, 65, 0
2, 49041, Note_on_c, 0, 50, 0
2, 49066, Note_on_c, 0, 52, 70
2, 49073, Note_on_c, 0, 70, 88
2, 49137, Note_on_c, 0, 70, 0
2, 49177, Note_on_c, 0, 52, 0
2, 49181, Note_on_c, 0, 48, 68
2, 49311, Note_on_c, 0, 46, 69
2, 49315, Note_on_c, 0, 48, 0
2, 49331, Note_on_c, 0, 79, 92
2, 49405, Note_on_c, 0, 79, 0
2, 49429, Note_on_c, 0, 46, 0
2, 49436, Note_on_c, 0, 45, 62
2, 49576, Note_on_c, 0, 45, 0
2, 49576, Note_on_c, 0, 46, 69
2, 49585, Note_on_c, 0, 76, 91
2, 49655, Note_on_c, 0, 76, 0
2, 49669, Note_on_c, 0, 46, 0
2, 49686, Note_on_c, 0, 52, 61
2, 49813, Note_on_c, 0, 52, 0
2, 49831, Note_on_c, 0, 43, 63
2, 49837, Note_on_c, 0, 72, 91
2, 49897, Note_on_c, 0, 72, 0
2, 49961, Note_on_c, 0, 46, 65
2, 49981, Note_on_c, 0, 43, 0
2, 50100, Note_on_c, 0, 70, 86
2, 50102, Note_on_c, 0, 52, 68
2, 50107, Note_on_c, 0, 46, 0
2, 50143, Note_on_c, 0, 70, 0
2, 50210, Note_on_c, 0, 52, 0
2, 50222, Note_on_c, 0, 55, 66
2, 50361, Note_on_c, 0, 53, 73
2, 50365, Note_on_c, 0, 55, 0
2, 50365, Note_on_c, 0, 79, 82
2, 50426, Note_on_c, 0, 79, 0
2, 50484, Note_on_c, 0, 52, 72
2, 50484, Note_on_c, 0, 53, 0
2, 50635, Note_on_c, 0, 52, 0
2, 50637, Note_on_c, 0, 53, 72
2, 50648, Note_on_c, 0, 69, 70
2, 50712, Note_on_c, 0, 53, 0
2, 50780, Note_on_c, 0, 67, 72
2, 50831, Note_on_c, 0, 69, 0
2, 50913, Note_on_c, 0, 65, 79
2, 50918, Note_on_c, 0, 45, 76
2, 50944, Note_on_c, 0, 67, 0
2, 50968, Note_on_c, 0, 45, 0
2, 51048, Note_on_c, 0, 64, 78
2, 51057, Note_on_c, 0, 65, 0
2, 51187, Note_on_c, 0, 65, 77
2, 51191, Note_on_c, 0, 50, 75
2, 51202, Note_on_c, 0, 64, 0
2, 51234, Note_on_c, 0, 50, 0
2, 51307, Note_on_c, 0, 65, 0
2, 51311, Note_on_c, 0, 69, 70
2, 51393, Control_c, 0, 64, 42
2, 51453, Control_c, 0, 64, 41
2, 51453, Note_on_c, 0, 45, 67
2, 51455, Note_on_c, 0, 69, 0
2, 51480, Note_on_c, 0, 62, 77
2, 51496, Note_on_c, 0, 46, 72
2, 51508, Control_c, 0, 64, 40
2, 51513, Note_on_c, 0, 45, 0
2, 51570, Note_on_c, 0, 46, 0
2, 51579, Note_on_c, 0, 48, 67
2, 51589, Note_on_c, 0, 65, 71
2, 51593, Note_on_c, 0, 62, 0
2, 51622, Control_c, 0, 64, 39
2, 51660, Note_on_c, 0, 46, 66
2, 51666, Note_on_c, 0, 48, 0
2, 51722, Note_on_c, 0, 65, 0
2, 51734, Note_on_c, 0, 62, 72
2, 51738, Note_on_c, 0, 46, 0
2, 51738, Note_on_c, 0, 48, 58
2, 51802, Note_on_c, 0, 46, 56
2, 51876, Note_on_c, 0, 58, 77
2, 51883, Note_on_c, 0, 45, 67
2, 51891, Note_on_c, 0, 46, 0
2, 51924, Note_on_c, 0, 48, 0
2, 51928, Note_on_c, 0, 62, 0
2, 51962, Note_on_c, 0, 46, 51
2, 51978, Note_on_c, 0, 45, 0
2, 52012, Note_on_c, 0, 48, 62
2, 52029, Note_on_c, 0, 46, 0
2, 52029, Note_on_c, 0, 55, 74
2, 52056, Note_on_c, 0, 58, 0
2, 52193, Note_on_c, 0, 64, 81
2, 52218, Control_c, 0, 64, 40
2, 52284, Note_on_c, 0, 55, 0
2, 52384, Note_on_c, 0, 41, 67
2, 52387, Note_on_c, 0, 48, 0
2, 52391, Note_on_c, 0, 65, 73
2, 52396, Note_on_c, 0, 64, 0
2, 52568, Note_on_c, 0, 58, 73
2, 52755, Note_on_c, 0, 57, 80
2, 52755, Note_on_c, 0, 58, 0
2, 52768, Note_on_c, 0, 65, 0
2, 52935, Note_on_c, 0, 55, 73
2, 52954, Note_on_c, 0, 57, 0
2, 53129, Note_on_c, 0, 57, 70
2, 53157, Note_on_c, 0, 55, 0
2, 53341, Note_on_c, 0, 57, 0
2, 53341, Note_on_c, 0, 60, 64
2, 53586, Note_on_c, 0, 53, 58
2, 53667, Note_on_c, 0, 60, 0
2, 53782, Note_on_c, 0, 41, 0
2, 53802, Note_on_c, 0, 48, 51
2, 54041, Note_on_c, 0, 45, 51
2, 54048, Note_on_c, 0, 48, 0
2, 54329, Note_on_c, 0, 48, 47
2, 54333, Note_on_c, 0, 45, 0
2, 54729, Note_on_c, 0, 41, 50
2, 54763, Note_on_c, 0, 53, 0
2, 54775, Note_on_c, 0, 48, 0
2, 55729, Note_on_c, 0, 41, 0
2, 56289, Control_c, 0, 64, 41
2, 57579, Note_on_c, 0, 60, 64
2, 57633, Note_on_c, 0, 60, 0
2, 57927, Note_on_c, 0, 62, 70
2, 58113, Control_c, 0, 64, 42
2, 58264, Note_on_c, 0, 60, 66
2, 58279, Note_on_c, 0, 62, 0
2, 58310, Note_on_c, 0, 60, 0
2, 58561, Note_on_c, 0, 58, 65
2, 58613, Note_on_c, 0, 58, 0
2, 58878, Note_on_c, 0, 60, 59
2, 58980, Note_on_c, 0, 60, 0
2, 59195, Note_on_c, 0, 52, 56
2, 59318, Note_on_c, 0, 52, 0
2, 59336, Note_on_c, 0, 53, 59
2, 59496, Note_on_c, 0, 53, 0
2, 59496, Note_on_c, 0, 55, 68
2, 59609, Note_on_c, 0, 55, 0
2, 59627, Note_on_c, 0, 57, 69
2, 59678, Note_on_c, 0, 57, 0
2, 59805, Note_on_c, 0, 58, 68
2, 59863, Note_on_c, 0, 58, 0
2, 60125, Note_on_c, 0, 60, 61
2, 60252, Note_on_c, 0, 58, 66
2, 60256, Note_on_c, 0, 60, 0
2, 60398, Note_on_c, 0, 57, 73
2, 60405, Note_on_c, 0, 58, 0
2, 60525, Note_on_c, 0, 57, 0
2, 60529, Note_on_c, 0, 55, 70
2, 60599, Note_on_c, 0, 55, 0
2, 60694, Note_on_c, 0, 57, 63
2, 60820, Note_on_c, 0, 57, 0
2, 60834, Note_on_c, 0, 55, 67
2, 60978, Note_on_c, 0, 53, 69
2, 60982, Note_on_c, 0, 55, 0
2, 61106, Note_on_c, 0, 53, 0
2, 61117, Note_on_c, 0, 55, 63
2, 61234, Note_on_c, 0, 55, 0
2, 61263, Note_on_c, 0, 65, 78
2, 61268, Note_on_c, 0, 57, 65
2, 61337, Note_on_c, 0, 65, 0
2, 61374, Note_on_c, 0, 57, 0
2, 61402, Note_on_c, 0, 58, 60
2, 61545, Note_on_c, 0, 58, 0
2, 61552, Note_on_c, 0, 60, 60
2, 61568, Note_on_c, 0, 69, 78
2, 61607, Control_c, 0, 64, 41
2, 61681, Note_on_c, 0, 60, 0
2, 61700, Note_on_c, 0, 58, 63
2, 61843, Note_on_c, 0, 58, 0
2, 61861, Note_on_c, 0, 57, 61
2, 61861, Note_on_c, 0, 67, 78
2, 61898, Note_on_c, 0, 69, 0
2, 61949, Note_on_c, 0, 67, 0
2, 61981, Note_on_c, 0, 57, 0
2, 61988, Note_on_c, 0, 58, 65
2, 62142, Note_on_c, 0, 65, 72
2, 62147, Note_on_c, 0, 60, 61
2, 62168, Note_on_c, 0, 58, 0
2, 62212, Note_on_c, 0, 65, 0
2, 62245, Note_on_c, 0, 60, 0
2, 62278, Note_on_c, 0, 62, 62
2, 62419, Note_on_c, 0, 62, 0
2, 62440, Note_on_c, 0, 67, 76
2, 62447, Note_on_c, 0, 64, 65
2, 62496, Note_on_c, 0, 67, 0
2, 62544, Note_on_c, 0, 64, 0
2, 62577, Note_on_c, 0, 67, 59
2, 62704, Note_on_c, 0, 67, 0
2, 62722, Note_on_c, 0, 65, 63
2, 62739, Note_on_c, 0, 59, 72
2, 62867, Note_on_c, 0, 59, 0
2, 62871, Note_on_c, 0, 60, 69
2, 62871, Note_on_c, 0, 65, 0
2, 62886, Note_on_c, 0, 64, 64
2, 63015, Note_on_c, 0, 62, 80
2, 63024, Note_on_c, 0, 64, 0
2, 63060, Note_on_c, 0, 60, 0
2, 63148, Note_on_c, 0, 64, 81
2, 63152, Note_on_c, 0, 62, 0
2, 63157, Note_on_c, 0, 60, 56
2, 63185, Note_on_c, 0, 64, 0
2, 63198, Note_on_c, 0, 60, 0
2, 63290, Note_on_c, 0, 60, 69
2, 63313, Note_on_c, 0, 65, 69
2, 63354, Note_on_c, 0, 59, 73
2, 63354, Note_on_c, 0, 60, 0
2, 63363, Note_on_c, 0, 65, 0
2, 63417, Note_on_c, 0, 59, 0
2, 63439, Note_on_c, 0, 60, 52
2, 63507, Note_on_c, 0, 59, 56
2, 63517, Note_on_c, 0, 60, 0
2, 63579, Note_on_c, 0, 67, 76
2, 63583, Note_on_c, 0, 59, 0
2, 63601, Note_on_c, 0, 60, 57
2, 63683, Note_on_c, 0, 59, 62
2, 63687, Note_on_c, 0, 60, 0
2, 63724, Note_on_c, 0, 65, 70
2, 63729, Note_on_c, 0, 67, 0
2, 63740, Note_on_c, 0, 59, 0
2, 63780, Note_on_c, 0, 60, 57
2, 63854, Note_on_c, 0, 59, 59
2, 63859, Note_on_c, 0, 64, 79
2, 63859, Note_on_c, 0, 65, 0
2, 63926, Note_on_c, 0, 59, 0
2, 63959, Note_on_c, 0, 57, 56
2, 63959, Note_on_c, 0, 60, 0
2, 63959, Note_on_c, 0, 60, 22
2, 63982, Note_on_c, 0, 62, 73
2, 64024, Note_on_c, 0, 64, 0
2, 64033, Note_on_c, 0, 60, 0
2, 64047, Note_on_c, 0, 59, 66
2, 64053, Note_on_c, 0, 62, 0
2, 64075, Note_on_c, 0, 57, 0
2, 64149, Note_on_c, 0, 59, 0
2, 64158, Note_on_c, 0, 60, 71
2, 64158, Note_on_c, 0, 64, 78
2, 64200, Note_on_c, 0, 60, 0
2, 64284, Note_on_c, 0, 62, 68
2, 64291, Note_on_c, 0, 64, 0
2, 64430, Note_on_c, 0, 58, 74
2, 64434, Note_on_c, 0, 60, 70
2, 64434, Note_on_c, 0, 62, 0
2, 64498, Note_on_c, 0, 58, 0
2, 64563, Note_on_c, 0, 62, 75
2, 64568, Note_on_c, 0, 60, 0
2, 64726, Note_on_c, 0, 64, 79
2, 64728, Note_on_c, 0, 57, 77
2, 64766, Note_on_c, 0, 57, 0
2, 64805, Note_on_c, 0, 62, 0
2, 64846, Note_on_c, 0, 65, 73
2, 64872, Note_on_c, 0, 64, 0
2, 65015, Note_on_c, 0, 67, 78
2, 65020, Note_on_c, 0, 58, 66
2, 65063, Note_on_c, 0, 65, 0
2, 65103, Note_on_c, 0, 67, 0
2, 65130, Note_on_c, 0, 57, 69
2, 65137, Note_on_c, 0, 58, 0
2, 65291, Note_on_c, 0, 55, 70
2, 65303, Note_on_c, 0, 57, 0
2, 65312, Note_on_c, 0, 65, 80
2, 65385, Note_on_c, 0, 65, 0
2, 65400, Note_on_c, 0, 55, 0
2, 65423, Note_on_c, 0, 57, 67
2, 65595, Note_on_c, 0, 48, 75
2, 65595, Note_on_c, 0, 57, 0
2, 65599, Note_on_c, 0, 58, 67
2, 65603, Note_on_c, 0, 64, 73
2, 65641, Note_on_c, 0, 48, 0
2, 65726, Note_on_c, 0, 60, 68
2, 65737, Note_on_c, 0, 58, 0
2, 65741, Note_on_c, 0, 64, 0
2, 65892, Note_on_c, 0, 60, 0
2, 65906, Note_on_c, 0, 50, 77
2, 65910, Note_on_c, 0, 65, 66
2, 65917, Note_on_c, 0, 57, 65
2, 66057, Note_on_c, 0, 64, 75
2, 66064, Note_on_c, 0, 57, 0
2, 66110, Note_on_c, 0, 65, 0
2, 66137, Control_c, 0, 64, 40
2, 66189, Note_on_c, 0, 64, 0
2, 66205, Note_on_c, 0, 48, 74
2, 66205, Note_on_c, 0, 62, 75
2, 66217, Note_on_c, 0, 50, 0
2, 66250, Note_on_c, 0, 48, 0
2, 66328, Note_on_c, 0, 64, 79
2, 66332, Note_on_c, 0, 62, 0
2, 66480, Note_on_c, 0, 46, 74
2, 66480, Note_on_c, 0, 65, 74
2, 66487, Note_on_c, 0, 64, 0
2, 66536, Note_on_c, 0, 46, 0
2, 66599, Note_on_c, 0, 67, 76
2, 66622, Note_on_c, 0, 65, 0
2, 66661, Note_on_c, 0, 67, 0
2, 66759, Note_on_c, 0, 48, 67
2, 66763, Note_on_c, 0, 69, 77
2, 66776, Note_on_c, 0, 64, 62
2, 66808, Note_on_c, 0, 48, 0
2, 66816, Note_on_c, 0, 64, 0
2, 66818, Note_on_c, 0, 69, 0
2, 66884, Note_on_c, 0, 72, 76
2, 67031, Note_on_c, 0, 40, 65
2, 67040, Note_on_c, 0, 72, 0
2, 67043, Note_on_c, 0, 70, 73
2, 67051, Note_on_c, 0, 67, 63
2, 67163, Note_on_c, 0, 40, 0
2, 67172, Note_on_c, 0, 41, 70
2, 67172, Note_on_c, 0, 69, 74
2, 67207, Note_on_c, 0, 67, 0
2, 67207, Note_on_c, 0, 70, 0
2, 67214, Note_on_c, 0, 69, 0
2, 67312, Note_on_c, 0, 43, 74
2, 67325, Note_on_c, 0, 41, 0
2, 67330, Note_on_c, 0, 67, 81
2, 67346, Note_on_c, 0, 60, 70
2, 67404, Note_on_c, 0, 60, 0
2, 67438, Note_on_c, 0, 43, 0
2, 67447, Note_on_c, 0, 45, 66
2, 67454, Note_on_c, 0, 65, 73
2, 67472, Note_on_c, 0, 67, 0
2, 67517, Note_on_c, 0, 65, 0
2, 67609, Note_on_c, 0, 46, 72
2, 67613, Note_on_c, 0, 45, 0
2, 67613, Note_on_c, 0, 65, 75
2, 67629, Note_on_c, 0, 60, 63
2, 67650, Note_on_c, 0, 46, 0
2, 67671, Note_on_c, 0, 64, 72
2, 67682, Note_on_c, 0, 65, 0
2, 67746, Note_on_c, 0, 64, 0
2, 67763, Note_on_c, 0, 65, 58
2, 67816, Note_on_c, 0, 64, 66
2, 67823, Note_on_c, 0, 65, 0
2, 67892, Note_on_c, 0, 60, 0
2, 67896, Note_on_c, 0, 64, 0
2, 67916, Note_on_c, 0, 48, 64
2, 67921, Note_on_c, 0, 65, 62
2, 67970, Note_on_c, 0, 64, 65
2, 67979, Note_on_c, 0, 65, 0
2, 68020, Note_on_c, 0, 48, 0
2, 68027, Note_on_c, 0, 46, 64
2, 68051, Note_on_c, 0, 64, 0
2, 68066, Note_on_c, 0, 65, 61
2, 68134, Note_on_c, 0, 64, 59
2, 68134, Note_on_c, 0, 65, 0
2, 68150, Note_on_c, 0, 46, 0
2, 68152, Note_on_c, 0, 45, 63
2, 68192, Note_on_c, 0, 64, 0
2, 68220, Note_on_c, 0, 65, 34
2, 68256, Note_on_c, 0, 45, 0
2, 68256, Note_on_c, 0, 64, 44
2, 68267, Note_on_c, 0, 65, 0
2, 68292, Note_on_c, 0, 43, 59
2, 68314, Note_on_c, 0, 64, 0
2, 68328, Note_on_c, 0, 62, 65
2, 68393, Note_on_c, 0, 64, 58
2, 68406, Note_on_c, 0, 62, 0
2, 68417, Note_on_c, 0, 43, 0
2, 68448, Note_on_c, 0, 45, 49
2, 68471, Note_on_c, 0, 65, 60
2, 68484, Note_on_c, 0, 64, 0
2, 68498, Note_on_c, 0, 60, 21
2, 68538, Note_on_c, 0, 65, 0
2, 68561, Note_on_c, 0, 45, 0
2, 68582, Note_on_c, 0, 43, 52
2, 68722, Note_on_c, 0, 43, 0
2, 68740, Note_on_c, 0, 41, 56
2, 68749, Note_on_c, 0, 69, 62
2, 68877, Note_on_c, 0, 41, 0
2, 68886, Note_on_c, 0, 43, 56
2, 68965, Note_on_c, 0, 60, 0
2, 68993, Note_on_c, 0, 43, 0
2, 69035, Note_on_c, 0, 65, 61
2, 69040, Note_on_c, 0, 45, 53
2, 69117, Note_on_c, 0, 65, 0
2, 69141, Note_on_c, 0, 45, 0
2, 69164, Note_on_c, 0, 46, 57
2, 69303, Note_on_c, 0, 46, 0
2, 69321, Note_on_c, 0, 67, 69
2, 69327, Note_on_c, 0, 64, 59
2, 69332, Note_on_c, 0, 48, 50
2, 69332, Note_on_c, 0, 69, 0
2, 69386, Note_on_c, 0, 67, 0
2, 69446, Note_on_c, 0, 48, 0
2, 69469, Note_on_c, 0, 47, 54
2, 69607, Note_on_c, 0, 47, 0
2, 69632, Note_on_c, 0, 45, 52
2, 69632, Note_on_c, 0, 72, 79
2, 69748, Note_on_c, 0, 45, 0
2, 69762, Note_on_c, 0, 47, 57
2, 69784, Note_on_c, 0, 64, 0
2, 69911, Note_on_c, 0, 47, 0
2, 69915, Note_on_c, 0, 48, 59
2, 69915, Note_on_c, 0, 69, 68
2, 69982, Note_on_c, 0, 69, 0
2, 70000, Note_on_c, 0, 48, 0
2, 70023, Note_on_c, 0, 50, 57
2, 70140, Note_on_c, 0, 50, 0
2, 70186, Note_on_c, 0, 52, 64
2, 70193, Note_on_c, 0, 71, 73
2, 70197, Note_on_c, 0, 67, 65
2, 70197, Note_on_c, 0, 72, 0
2, 70253, Note_on_c, 0, 71, 0
2, 70296, Note_on_c, 0, 52, 0
2, 70329, Note_on_c, 0, 55, 59
2, 70471, Note_on_c, 0, 55, 0
2, 70493, Note_on_c, 0, 53, 62
2, 70493, Note_on_c, 0, 76, 84
2, 70577, Note_on_c, 0, 67, 0
2, 70619, Note_on_c, 0, 53, 0
2, 70622, Note_on_c, 0, 52, 64
2, 70722, Note_on_c, 0, 52, 0
2, 70754, Note_on_c, 0, 50, 61
2, 70776, Note_on_c, 0, 72, 75
2, 70866, Note_on_c, 0, 72, 0
2, 70871, Note_on_c, 0, 50, 0
2, 70883, Note_on_c, 0, 48, 58
2, 70924, Note_on_c, 0, 48, 0
2, 71048, Note_on_c, 0, 48, 50
2, 71093, Note_on_c, 0, 74, 68
2, 71104, Note_on_c, 0, 48, 0
2, 71112, Note_on_c, 0, 47, 67
2, 71166, Note_on_c, 0, 47, 0
2, 71173, Note_on_c, 0, 76, 0
2, 71212, Note_on_c, 0, 48, 54
2, 71229, Note_on_c, 0, 72, 68
2, 71263, Note_on_c, 0, 48, 0
2, 71274, Note_on_c, 0, 47, 61
2, 71333, Note_on_c, 0, 47, 0
2, 71357, Note_on_c, 0, 71, 76
2, 71366, Note_on_c, 0, 48, 65
2, 71381, Note_on_c, 0, 72, 0
2, 71406, Note_on_c, 0, 74, 0
2, 71431, Note_on_c, 0, 47, 60
2, 71435, Note_on_c, 0, 48, 0
2, 71484, Note_on_c, 0, 69, 70
2, 71488, Note_on_c, 0, 71, 0
2, 71522, Note_on_c, 0, 47, 0
2, 71527, Note_on_c, 0, 48, 57
2, 71562, Note_on_c, 0, 69, 0
2, 71605, Note_on_c, 0, 67, 80
2, 71612, Note_on_c, 0, 45, 55
2, 71691, Note_on_c, 0, 48, 0
2, 71703, Note_on_c, 0, 47, 63
2, 71728, Note_on_c, 0, 65, 72
2, 71743, Note_on_c, 0, 45, 0
2, 71748, Note_on_c, 0, 67, 0
2, 71790, Note_on_c, 0, 65, 0
2, 71845, Note_on_c, 0, 47, 0
2, 71851, Note_on_c, 0, 48, 70
2, 71880, Note_on_c, 0, 64, 78
2, 71903, Note_on_c, 0, 48, 0
2, 71983, Note_on_c, 0, 64, 0
2, 72008, Note_on_c, 0, 74, 72
2, 72126, Note_on_c, 0, 50, 72
2, 72149, Note_on_c, 0, 72, 78
2, 72196, Note_on_c, 0, 74, 0
2, 72242, Note_on_c, 0, 50, 0
2, 72259, Note_on_c, 0, 52, 73
2, 72262, Note_on_c, 0, 70, 76
2, 72312, Note_on_c, 0, 72, 0
2, 72347, Note_on_c, 0, 70, 0
2, 72384, Note_on_c, 0, 52, 0
2, 72402, Note_on_c, 0, 53, 81
2, 72429, Note_on_c, 0, 69, 72
2, 72433, Note_on_c, 0, 72, 81
2, 72449, Note_on_c, 0, 53, 0
2, 72513, Control_c, 0, 64, 41
2, 72544, Note_on_c, 0, 72, 0
2, 72553, Note_on_c, 0, 67, 67
2, 72553, Note_on_c, 0, 69, 0
2, 72667, Note_on_c, 0, 67, 0
2, 72725, Note_on_c, 0, 58, 83
2, 72730, Note_on_c, 0, 65, 71
2, 72730, Note_on_c, 0, 74, 75
2, 72868, Note_on_c, 0, 64, 72
2, 72880, Note_on_c, 0, 74, 0
2, 72888, Note_on_c, 0, 65, 0
2, 72912, Note_on_c, 0, 64, 0
2, 73014, Note_on_c, 0, 72, 76
2, 73017, Note_on_c, 0, 62, 75
2, 73060, Note_on_c, 0, 62, 0
2, 73113, Note_on_c, 0, 72, 0
2, 73127, Note_on_c, 0, 64, 74
2, 73171, Note_on_c, 0, 64, 0
2, 73283, Note_on_c, 0, 65, 69
2, 73287, Note_on_c, 0, 70, 73
2, 73323, Note_on_c, 0, 65, 0
2, 73330, Note_on_c, 0, 70, 0
2, 73402, Note_on_c, 0, 67, 73
2, 73448, Note_on_c, 0, 67, 0
2, 73572, Note_on_c, 0, 69, 66
2, 73578, Note_on_c, 0, 57, 63
2, 73581, Note_on_c, 0, 72, 70
2, 73623, Note_on_c, 0, 58, 0
2, 73660, Note_on_c, 0, 69, 0
2, 73660, Note_on_c, 0, 72, 0
2, 73706, Note_on_c, 0, 57, 0
2, 73725, Note_on_c, 0, 60, 56
2, 73858, Note_on_c, 0, 64, 72
2, 73861, Note_on_c, 0, 60, 0
2, 73872, Note_on_c, 0, 58, 61
2, 73966, Note_on_c, 0, 64, 0
2, 73994, Note_on_c, 0, 65, 69
2, 74003, Note_on_c, 0, 57, 71
2, 74017, Note_on_c, 0, 58, 0
2, 74103, Note_on_c, 0, 57, 0
2, 74126, Note_on_c, 0, 55, 64
2, 74142, Note_on_c, 0, 67, 75
2, 74159, Note_on_c, 0, 65, 0
2, 74254, Note_on_c, 0, 53, 66
2, 74254, Note_on_c, 0, 55, 0
2, 74260, Note_on_c, 0, 69, 73
2, 74282, Note_on_c, 0, 67, 0
2, 74298, Note_on_c, 0, 53, 0
2, 74315, Note_on_c, 0, 69, 0
2, 74399, Note_on_c, 0, 53, 62
2, 74433, Note_on_c, 0, 70, 73
2, 74454, Note_on_c, 0, 52, 64
2, 74456, Note_on_c, 0, 53, 0
2, 74521, Note_on_c, 0, 52, 0
2, 74521, Note_on_c, 0, 70, 0
2, 74543, Note_on_c, 0, 53, 56
2, 74613, Note_on_c, 0, 52, 60
2, 74623, Note_on_c, 0, 53, 0
2, 74679, Note_on_c, 0, 52, 0
2, 74710, Note_on_c, 0, 53, 52
2, 74712, Note_on_c, 0, 72, 79
2, 74764, Note_on_c, 0, 52, 57
2, 74781, Note_on_c, 0, 53, 0
2, 74844, Note_on_c, 0, 52, 0
2, 74853, Note_on_c, 0, 70, 76
2, 74853, Note_on_c, 0, 72, 0
2, 74877, Note_on_c, 0, 53, 65
2, 74939, Note_on_c, 0, 52, 53
2, 74989, Note_on_c, 0, 69, 71
2, 75001, Note_on_c, 0, 70, 0
2, 75049, Note_on_c, 0, 52, 0
2, 75053, Note_on_c, 0, 50, 56
2, 75111, Note_on_c, 0, 67, 67
2, 75129, Note_on_c, 0, 69, 0
2, 75148, Note_on_c, 0, 53, 0
2, 75153, Note_on_c, 0, 50, 0
2, 75155, Note_on_c, 0, 52, 55
2, 75170, Note_on_c, 0, 67, 0
2, 75247, Note_on_c, 0, 52, 0
2, 75262, Note_on_c, 0, 53, 57
2, 75269, Note_on_c, 0, 69, 61
2, 75400, Note_on_c, 0, 69, 0
2, 75407, Note_on_c, 0, 67, 59
2, 75518, Note_on_c, 0, 53, 0
2, 75550, Note_on_c, 0, 67, 0
2, 75555, Note_on_c, 0, 65, 64
2, 75601, Control_c, 0, 64, 42
2, 75663, Note_on_c, 0, 65, 0
2, 75687, Note_on_c, 0, 67, 71
2, 75827, Note_on_c, 0, 69, 74
2, 75831, Note_on_c, 0, 67, 0
2, 75836, Note_on_c, 0, 65, 78
2, 75889, Note_on_c, 0, 65, 0
2, 75951, Note_on_c, 0, 70, 76
2, 75958, Note_on_c, 0, 69, 0
2, 76049, Note_on_c, 0, 70, 0
2, 76120, Note_on_c, 0, 69, 79
2, 76126, Note_on_c, 0, 72, 79
2, 76265, Note_on_c, 0, 70, 76
2, 76296, Note_on_c, 0, 72, 0
2, 76346, Note_on_c, 0, 69, 0
2, 76421, Note_on_c, 0, 69, 66
2, 76426, Note_on_c, 0, 67, 82
2, 76431, Note_on_c, 0, 70, 0
2, 76489, Note_on_c, 0, 67, 0
2, 76556, Note_on_c, 0, 70, 75
2, 76565, Note_on_c, 0, 69, 0
2, 76692, Note_on_c, 0, 70, 0
2, 76696, Note_on_c, 0, 72, 71
2, 76707, Note_on_c, 0, 65, 76
2, 76760, Note_on_c, 0, 65, 0
2, 76801, Note_on_c, 0, 72, 0
2, 76828, Note_on_c, 0, 74, 70
2, 76905, Note_on_c, 0, 74, 0
2, 76984, Note_on_c, 0, 76, 78
2, 76993, Note_on_c, 0, 67, 71
2, 77039, Note_on_c, 0, 67, 0
2, 77044, Note_on_c, 0, 76, 0
2, 77115, Note_on_c, 0, 79, 72
2, 77215, Control_c, 0, 64, 41
2, 77260, Note_on_c, 0, 59, 65
2, 77277, Note_on_c, 0, 77, 75
2, 77384, Note_on_c, 0, 79, 0
2, 77399, Note_on_c, 0, 60, 68
2, 77399, Note_on_c, 0, 76, 77
2, 77403, Note_on_c, 0, 59, 0
2, 77450, Note_on_c, 0, 77, 0
2, 77525, Note_on_c, 0, 62, 77
2, 77532, Note_on_c, 0, 74, 77
2, 77543, Note_on_c, 0, 60, 0
2, 77565, Note_on_c, 0, 76, 0
2, 77653, Note_on_c, 0, 62, 0
2, 77656, Note_on_c, 0, 72, 78
2, 77660, Note_on_c, 0, 64, 76
2, 77665, Note_on_c, 0, 74, 0
2, 77719, Note_on_c, 0, 72, 0
2, 77803, Note_on_c, 0, 72, 71
2, 77811, Note_on_c, 0, 65, 73
2, 77824, Note_on_c, 0, 64, 0
2, 77851, Note_on_c, 0, 72, 0
2, 77856, Note_on_c, 0, 65, 0
2, 77856, Note_on_c, 0, 71, 71
2, 77929, Note_on_c, 0, 71, 0
2, 77949, Note_on_c, 0, 72, 74
2, 78002, Note_on_c, 0, 72, 0
2, 78017, Note_on_c, 0, 71, 68
2, 78072, Note_on_c, 0, 71, 0
2, 78089, Note_on_c, 0, 72, 66
2, 78122, Note_on_c, 0, 67, 73
2, 78148, Note_on_c, 0, 71, 68
2, 78148, Note_on_c, 0, 72, 0
2, 78205, Note_on_c, 0, 71, 0
2, 78228, Note_on_c, 0, 72, 56
2, 78245, Note_on_c, 0, 67, 0
2, 78249, Note_on_c, 0, 65, 67
2, 78269, Note_on_c, 0, 71, 66
2, 78273, Note_on_c, 0, 72, 0
2, 78322, Note_on_c, 0, 71, 0
2, 78353, Note_on_c, 0, 72, 67
2, 78368, Note_on_c, 0, 64, 76
2, 78388, Note_on_c, 0, 65, 0
2, 78396, Note_on_c, 0, 72, 0
2, 78400, Note_on_c, 0, 71, 70
2, 78471, Note_on_c, 0, 71, 0
2, 78501, Note_on_c, 0, 64, 0
2, 78506, Note_on_c, 0, 69, 60
2, 78510, Note_on_c, 0, 62, 64
2, 78555, Note_on_c, 0, 69, 0
2, 78562, Note_on_c, 0, 71, 63
2, 78657, Note_on_c, 0, 62, 0
2, 78678, Note_on_c, 0, 64, 65
2, 78678, Note_on_c, 0, 71, 0
2, 78683, Note_on_c, 0, 72, 75
2, 78789, Note_on_c, 0, 72, 0
2, 78798, Note_on_c, 0, 64, 0
2, 78810, Note_on_c, 0, 74, 69
2, 78815, Note_on_c, 0, 62, 71
2, 78941, Note_on_c, 0, 62, 0
2, 78948, Note_on_c, 0, 60, 72
2, 78952, Note_on_c, 0, 76, 72
2, 78956, Note_on_c, 0, 74, 0
2, 79073, Note_on_c, 0, 62, 82
2, 79077, Note_on_c, 0, 77, 79
2, 79087, Note_on_c, 0, 60, 0
2, 79112, Note_on_c, 0, 76, 0
2, 79157, Note_on_c, 0, 62, 0
2, 79212, Note_on_c, 0, 64, 78
2, 79215, Note_on_c, 0, 60, 77
2, 79228, Note_on_c, 0, 79, 79
2, 79235, Note_on_c, 0, 77, 0
2, 79257, Note_on_c, 0, 64, 0
2, 79266, Note_on_c, 0, 60, 0
2, 79341, Note_on_c, 0, 79, 0
2, 79352, Note_on_c, 0, 81, 72
2, 79360, Note_on_c, 0, 60, 83
2, 79444, Note_on_c, 0, 81, 0
2, 79503, Note_on_c, 0, 65, 76
2, 79512, Note_on_c, 0, 62, 79
2, 79534, Note_on_c, 0, 70, 73
2, 79547, Note_on_c, 0, 60, 0
2, 79619, Note_on_c, 0, 70, 0
2, 79657, Note_on_c, 0, 72, 72
2, 79806, Note_on_c, 0, 60, 72
2, 79813, Note_on_c, 0, 62, 0
2, 79817, Note_on_c, 0, 74, 75
2, 79863, Note_on_c, 0, 60, 0
2, 79874, Note_on_c, 0, 72, 0
2, 79952, Note_on_c, 0, 76, 75
2, 79982, Note_on_c, 0, 74, 0
2, 80012, Note_on_c, 0, 76, 0
2, 80084, Note_on_c, 0, 58, 70
2, 80086, Note_on_c, 0, 77, 74
2, 80125, Note_on_c, 0, 58, 0
2, 80182, Note_on_c, 0, 77, 0
2, 80205, Note_on_c, 0, 79, 73
2, 80270, Note_on_c, 0, 79, 0
2, 80348, Note_on_c, 0, 60, 63
2, 80352, Note_on_c, 0, 65, 0
2, 80366, Note_on_c, 0, 81, 76
2, 80398, Note_on_c, 0, 60, 0
2, 80457, Note_on_c, 0, 81, 0
2, 80493, Note_on_c, 0, 84, 63
2, 80617, Note_on_c, 0, 52, 65
2, 80626, Note_on_c, 0, 82, 69
2, 80674, Note_on_c, 0, 84, 0
2, 80711, Note_on_c, 0, 82, 0
2, 80749, Note_on_c, 0, 52, 0
2, 80749, Note_on_c, 0, 53, 69
2, 80760, Note_on_c, 0, 81, 65
2, 80799, Note_on_c, 0, 81, 0
2, 80886, Note_on_c, 0, 55, 72
2, 80898, Note_on_c, 0, 53, 0
2, 80914, Note_on_c, 0, 72, 80
2, 80923, Note_on_c, 0, 79, 76
2, 80998, Note_on_c, 0, 55, 0
2, 80998, Note_on_c, 0, 72, 0
2, 81020, Note_on_c, 0, 57, 71
2, 81037, Note_on_c, 0, 77, 81
2, 81072, Note_on_c, 0, 79, 0
2, 81090, Note_on_c, 0, 77, 0
2, 81203, Note_on_c, 0, 57, 0
2, 81211, Note_on_c, 0, 58, 68
2, 81211, Note_on_c, 0, 74, 85
2, 81220, Note_on_c, 0, 77, 76
2, 81398, Note_on_c, 0, 77, 0
2, 81439, Note_on_c, 0, 74, 0
2, 81530, Note_on_c, 0, 58, 0
2, 81530, Note_on_c, 0, 72, 75
2, 81537, Note_on_c, 0, 60, 63
2, 81537, Note_on_c, 0, 77, 71
2, 81566, Note_on_c, 0, 76, 67
2, 81576, Note_on_c, 0, 72, 0
2, 81581, Note_on_c, 0, 77, 0
2, 81603, Note_on_c, 0, 76, 0
2, 81634, Note_on_c, 0, 60, 0
2, 81643, Note_on_c, 0, 58, 63
2, 81684, Note_on_c, 0, 76, 73
2, 81751, Note_on_c, 0, 76, 0
2, 81796, Note_on_c, 0, 58, 0
2, 81796, Note_on_c, 0, 70, 76
2, 81803, Note_on_c, 0, 57, 64
2, 81920, Note_on_c, 0, 70, 0
2, 81925, Note_on_c, 0, 57, 0
2, 81942, Note_on_c, 0, 55, 57
2, 82084, Note_on_c, 0, 72, 68
2, 82084, Note_on_c, 0, 77, 70
2, 82089, Note_on_c, 0, 57, 55
2, 82093, Note_on_c, 0, 55, 0
2, 82168, Control_c, 0, 64, 40
2, 82184, Note_on_c, 0, 77, 0
2, 82189, Note_on_c, 0, 72, 0
2, 82226, Note_on_c, 0, 57, 0
2, 82248, Note_on_c, 0, 60, 61
2, 82376, Note_on_c, 0, 64, 76
2, 82385, Note_on_c, 0, 60, 0
2, 82394, Note_on_c, 0, 58, 61
2, 82505, Note_on_c, 0, 64, 0
2, 82514, Note_on_c, 0, 58, 0
2, 82514, Note_on_c, 0, 65, 71
2, 82518, Control_c, 0, 64, 39
2, 82523, Note_on_c, 0, 57, 73
2, 82625, Note_on_c, 0, 57, 0
2, 82655, Note_on_c, 0, 67, 81
2, 82662, Note_on_c, 0, 55, 65
2, 82683, Note_on_c, 0, 65, 0
2, 82784, Note_on_c, 0, 53, 70
2, 82784, Note_on_c, 0, 69, 78
2, 82791, Note_on_c, 0, 55, 0
2, 82799, Note_on_c, 0, 67, 0
2, 82825, Note_on_c, 0, 69, 0
2, 82828, Note_on_c, 0, 53, 0
2, 82942, Note_on_c, 0, 53, 66
2, 82968, Note_on_c, 0, 79, 82
2, 82977, Note_on_c, 0, 70, 73
2, 82995, Note_on_c, 0, 52, 66
2, 83006, Note_on_c, 0, 53, 0
2, 83039, Note_on_c, 0, 70, 0
2, 83068, Note_on_c, 0, 52, 0
2, 83084, Note_on_c, 0, 53, 59
2, 83165, Note_on_c, 0, 52, 56
2, 83169, Note_on_c, 0, 53, 0
2, 83241, Note_on_c, 0, 52, 0
2, 83268, Note_on_c, 0, 53, 60
2, 83270, Note_on_c, 0, 72, 75
2, 83323, Note_on_c, 0, 52, 58
2, 83344, Note_on_c, 0, 53, 0
2, 83397, Note_on_c, 0, 70, 81
2, 83397, Note_on_c, 0, 72, 0
2, 83419, Note_on_c, 0, 52, 0
2, 83435, Note_on_c, 0, 53, 60
2, 83464, Note_on_c, 0, 70, 0
2, 83520, Note_on_c, 0, 69, 74
2, 83533, Note_on_c, 0, 79, 0
2, 83577, Note_on_c, 0, 50, 57
2, 83615, Note_on_c, 0, 53, 0
2, 83620, Note_on_c, 0, 52, 63
2, 83645, Note_on_c, 0, 50, 0
2, 83656, Note_on_c, 0, 67, 74
2, 83696, Note_on_c, 0, 69, 0
2, 83705, Note_on_c, 0, 67, 0
2, 83781, Note_on_c, 0, 53, 65
2, 83792, Note_on_c, 0, 52, 0
2, 83807, Note_on_c, 0, 69, 73
2, 83840, Note_on_c, 0, 53, 0
2, 83936, Note_on_c, 0, 79, 77
2, 84089, Note_on_c, 0, 55, 73
2, 84089, Note_on_c, 0, 77, 81
2, 84132, Note_on_c, 0, 55, 0
2, 84168, Note_on_c, 0, 79, 0
2, 84213, Note_on_c, 0, 76, 76
2, 84259, Note_on_c, 0, 77, 0
2, 84289, Note_on_c, 0, 76, 0
2, 84338, Control_c, 0, 64, 40
2, 84369, Note_on_c, 0, 57, 67
2, 84379, Note_on_c, 0, 74, 58
2, 84389, Note_on_c, 0, 76, 72
2, 84413, Note_on_c, 0, 57, 0
2, 84503, Note_on_c, 0, 72, 81
2, 84527, Note_on_c, 0, 76, 0
2, 84548, Note_on_c, 0, 74, 0
2, 84682, Note_on_c, 0, 77, 83
2, 84689, Note_on_c, 0, 72, 0
2, 84693, Note_on_c, 0, 50, 55
2, 84932, Note_on_c, 0, 69, 0
2, 84969, Note_on_c, 0, 70, 63
2, 85080, Note_on_c, 0, 70, 0
2, 85091, Note_on_c, 0, 69, 58
2, 85213, Note_on_c, 0, 69, 0
2, 85233, Note_on_c, 0, 67, 60
2, 85257, Note_on_c, 0, 50, 0
2, 85331, Note_on_c, 0, 77, 0
2, 85364, Note_on_c, 0, 65, 58
2, 85393, Note_on_c, 0, 67, 0
2, 85404, Note_on_c, 0, 65, 0
2, 85433, Control_c, 0, 64, 39
2, 85509, Note_on_c, 0, 52, 62
2, 85535, Note_on_c, 0, 67, 57
2, 85562, Note_on_c, 0, 52, 0
2, 85650, Note_on_c, 0, 77, 55
2, 85798, Note_on_c, 0, 76, 65
2, 85802, Note_on_c, 0, 53, 62
2, 85844, Note_on_c, 0, 53, 0
2, 85897, Note_on_c, 0, 77, 0
2, 85909, Note_on_c, 0, 74, 64
2, 85962, Note_on_c, 0, 76, 0
2, 85969, Note_on_c, 0, 74, 0
2, 86082, Note_on_c, 0, 55, 59
2, 86091, Note_on_c, 0, 73, 73
2, 86122, Note_on_c, 0, 55, 0
2, 86204, Note_on_c, 0, 71, 66
2, 86231, Note_on_c, 0, 73, 0
2, 86388, Note_on_c, 0, 71, 0
2, 86406, Note_on_c, 0, 49, 51
2, 86406, Note_on_c, 0, 76, 68
2, 86537, Note_on_c, 0, 67, 0
2, 86701, Note_on_c, 0, 69, 56
2, 86823, Note_on_c, 0, 69, 0
2, 86828, Note_on_c, 0, 67, 64
2, 86860, Note_on_c, 0, 76, 0
2, 86971, Note_on_c, 0, 67, 0
2, 86983, Note_on_c, 0, 65, 68
2, 86986, Note_on_c, 0, 49, 0
2, 86986, Note_on_c, 0, 61, 85
2, 87061, Note_on_c, 0, 61, 0
2, 87120, Note_on_c, 0, 64, 72
2, 87124, Note_on_c, 0, 65, 0
2, 87223, Note_on_c, 0, 64, 0
2, 87284, Note_on_c, 0, 65, 68
2, 87295, Note_on_c, 0, 62, 80
2, 87400, Note_on_c, 0, 64, 73
2, 87422, Note_on_c, 0, 65, 0
2, 87464, Note_on_c, 0, 64, 0
2, 87567, Note_on_c, 0, 60, 74
2, 87567, Note_on_c, 0, 65, 67
2, 87567, Note_on_c, 0, 69, 70
2, 87586, Note_on_c, 0, 62, 0
2, 87608, Note_on_c, 0, 60, 0
2, 87678, Note_on_c, 0, 67, 70
2, 87678, Note_on_c, 0, 69, 0
2, 87683, Note_on_c, 0, 65, 0
2, 87757, Note_on_c, 0, 67, 0
2, 87833, Note_on_c, 0, 69, 69
2, 87851, Note_on_c, 0, 58, 75
2, 87856, Note_on_c, 0, 74, 64
2, 87902, Note_on_c, 0, 58, 0
2, 87906, Note_on_c, 0, 69, 0
2, 87949, Note_on_c, 0, 67, 68
2, 88124, Note_on_c, 0, 69, 69
2, 88145, Note_on_c, 0, 57, 76
2, 88145, Note_on_c, 0, 73, 68
2, 88156, Note_on_c, 0, 67, 0
2, 88196, Note_on_c, 0, 69, 0
2, 88248, Note_on_c, 0, 74, 0
2, 88282, Note_on_c, 0, 70, 76
2, 88344, Note_on_c, 0, 73, 0
2, 88411, Note_on_c, 0, 69, 82
2, 88435, Note_on_c, 0, 70, 0
2, 88468, Control_c, 0, 64, 40
2, 88521, Note_on_c, 0, 69, 0
2, 88529, Note_on_c, 0, 67, 80
2, 88577, Note_on_c, 0, 67, 0
2, 88690, Note_on_c, 0, 65, 68
2, 88699, Note_on_c, 0, 81, 92
2, 88736, Control_c, 0, 64, 41
2, 88768, Note_on_c, 0, 81, 0
2, 88821, Note_on_c, 0, 64, 73
2, 88836, Note_on_c, 0, 65, 0
2, 88997, Note_on_c, 0, 82, 92
2, 89006, Note_on_c, 0, 62, 72
2, 89010, Note_on_c, 0, 64, 0
2, 89120, Note_on_c, 0, 62, 0
2, 89124, Note_on_c, 0, 61, 64
2, 89282, Note_on_c, 0, 62, 69
2, 89294, Note_on_c, 0, 81, 81
2, 89330, Note_on_c, 0, 61, 0
2, 89339, Note_on_c, 0, 82, 0
2, 89368, Note_on_c, 0, 81, 0
2, 89388, Note_on_c, 0, 62, 0
2, 89410, Note_on_c, 0, 65, 55
2, 89548, Note_on_c, 0, 65, 0
2, 89558, Note_on_c, 0, 64, 68
2, 89563, Note_on_c, 0, 79, 85
2, 89631, Note_on_c, 0, 79, 0
2, 89656, Control_c, 0, 64, 40
2, 89704, Note_on_c, 0, 62, 61
2, 89704, Note_on_c, 0, 64, 0
2, 89854, Note_on_c, 0, 61, 60
2, 89868, Note_on_c, 0, 62, 0
2, 89870, Note_on_c, 0, 81, 69
2, 90001, Note_on_c, 0, 81, 0
2, 90147, Note_on_c, 0, 73, 77
2, 90151, Note_on_c, 0, 61, 0
2, 90219, Note_on_c, 0, 73, 0
2, 90274, Note_on_c, 0, 74, 75
2, 90421, Note_on_c, 0, 69, 84
2, 90428, Note_on_c, 0, 76, 85
2, 90515, Note_on_c, 0, 69, 0
2, 90552, Note_on_c, 0, 74, 0
2, 90563, Note_on_c, 0, 77, 79
2, 90592, Note_on_c, 0, 76, 0
2, 90623, Note_on_c, 0, 77, 0
2, 90727, Note_on_c, 0, 79, 85
2, 90735, Note_on_c, 0, 70, 88
2, 90964, Control_c, 0, 64, 41
2, 90982, Note_on_c, 0, 70, 0
2, 91036, Note_on_c, 0, 81, 70
2, 91048, Note_on_c, 0, 69, 69
2, 91052, Note_on_c, 0, 79, 0
2, 91100, Note_on_c, 0, 69, 0
2, 91176, Note_on_c, 0, 79, 73
2, 91221, Note_on_c, 0, 81, 0
2, 91288, Control_c, 0, 64, 40
2, 91315, Note_on_c, 0, 67, 70
2, 91318, Note_on_c, 0, 77, 78
2, 91340, Note_on_c, 0, 79, 0
2, 91358, Note_on_c, 0, 67, 0
2, 91436, Note_on_c, 0, 76, 76
2, 91444, Control_c, 0, 64, 39
2, 91462, Note_on_c, 0, 77, 0
2, 91491, Note_on_c, 0, 76, 0
2, 91583, Note_on_c, 0, 69, 67
2, 91592, Note_on_c, 0, 77, 79
2, 91624, Note_on_c, 0, 69, 0
2, 91637, Note_on_c, 0, 77, 0
2, 91711, Note_on_c, 0, 81, 69
2, 91859, Note_on_c, 0, 61, 67
2, 91863, Note_on_c, 0, 79, 78
2, 91940, Note_on_c, 0, 57, 0
2, 91962, Note_on_c, 0, 81, 0
2, 91989, Note_on_c, 0, 77, 83
2, 92002, Note_on_c, 0, 62, 70
2, 92028, Note_on_c, 0, 79, 0
2, 92056, Control_c, 0, 64, 40
2, 92065, Note_on_c, 0, 61, 0
2, 92135, Note_on_c, 0, 62, 0
2, 92141, Note_on_c, 0, 64, 80
2, 92146, Note_on_c, 0, 76, 91
2, 92151, Note_on_c, 0, 57, 62
2, 92170, Note_on_c, 0, 77, 0
2, 92258, Note_on_c, 0, 64, 0
2, 92278, Note_on_c, 0, 65, 71
2, 92278, Note_on_c, 0, 74, 85
2, 92278, Note_on_c, 0, 76, 0
2, 92328, Note_on_c, 0, 74, 0
2, 92432, Note_on_c, 0, 65, 0
2, 92457, Note_on_c, 0, 58, 73
2, 92461, Note_on_c, 0, 73, 88
2, 92465, Note_on_c, 0, 67, 76
2, 92505, Note_on_c, 0, 57, 0
2, 92554, Note_on_c, 0, 67, 0
2, 92759, Note_on_c, 0, 69, 72
2, 92768, Note_on_c, 0, 58, 0
2, 92780, Note_on_c, 0, 57, 66
2, 92825, Note_on_c, 0, 57, 0
2, 92882, Note_on_c, 0, 67, 72
2, 92889, Note_on_c, 0, 69, 0
2, 92996, Note_on_c, 0, 67, 0
2, 93036, Note_on_c, 0, 65, 61
2, 93038, Note_on_c, 0, 55, 66
2, 93080, Note_on_c, 0, 55, 0
2, 93157, Note_on_c, 0, 65, 0
2, 93166, Note_on_c, 0, 64, 67
2, 93287, Note_on_c, 0, 64, 0
2, 93300, Note_on_c, 0, 57, 64
2, 93303, Control_c, 0, 64, 39
2, 93303, Note_on_c, 0, 65, 69
2, 93326, Note_on_c, 0, 73, 0
2, 93467, Note_on_c, 0, 74, 74
2, 93507, Note_on_c, 0, 65, 0
2, 93533, Note_on_c, 0, 72, 72
2, 93549, Note_on_c, 0, 57, 0
2, 93553, Note_on_c, 0, 49, 57
2, 93603, Note_on_c, 0, 74, 0
2, 93607, Note_on_c, 0, 70, 73
2, 93726, Note_on_c, 0, 50, 74
2, 93731, Note_on_c, 0, 49, 0
2, 93741, Note_on_c, 0, 69, 77
2, 93809, Note_on_c, 0, 72, 0
2, 93835, Note_on_c, 0, 70, 0
2, 93864, Note_on_c, 0, 50, 0
2, 93864, Note_on_c, 0, 52, 75
2, 93868, Note_on_c, 0, 69, 0
2, 93873, Note_on_c, 0, 67, 83
2, 93940, Note_on_c, 0, 67, 0
2, 93985, Note_on_c, 0, 65, 78
2, 93994, Note_on_c, 0, 52, 0
2, 94003, Note_on_c, 0, 53, 70
2, 94159, Note_on_c, 0, 70, 85
2, 94164, Note_on_c, 0, 53, 0
2, 94168, Note_on_c, 0, 61, 75
2, 94168, Note_on_c, 0, 65, 0
2, 94174, Note_on_c, 0, 55, 59
2, 94399, Note_on_c, 0, 65, 23
2, 94446, Note_on_c, 0, 55, 0
2, 94450, Note_on_c, 0, 69, 70
2, 94458, Note_on_c, 0, 57, 62
2, 94463, Note_on_c, 0, 65, 0
2, 94467, Note_on_c, 0, 70, 0
2, 94529, Note_on_c, 0, 69, 0
2, 94567, Note_on_c, 0, 57, 0
2, 94603, Note_on_c, 0, 55, 60
2, 94737, Note_on_c, 0, 53, 67
2, 94737, Note_on_c, 0, 55, 0
2, 94741, Note_on_c, 0, 67, 69
2, 94798, Note_on_c, 0, 61, 0
2, 94810, Note_on_c, 0, 67, 0
2, 94867, Note_on_c, 0, 53, 0
2, 94870, Note_on_c, 0, 52, 62
2, 95011, Note_on_c, 0, 53, 63
2, 95020, Note_on_c, 0, 52, 0
2, 95053, Note_on_c, 0, 69, 68
2, 95189, Note_on_c, 0, 57, 59
2, 95271, Note_on_c, 0, 57, 0
2, 95324, Note_on_c, 0, 59, 66
2, 95339, Control_c, 0, 64, 38
2, 95417, Note_on_c, 0, 53, 0
2, 95431, Note_on_c, 0, 55, 73
2, 95435, Note_on_c, 0, 59, 0
2, 95448, Note_on_c, 0, 61, 66
2, 95533, Note_on_c, 0, 61, 0
2, 95572, Note_on_c, 0, 53, 74
2, 95572, Note_on_c, 0, 55, 0
2, 95583, Note_on_c, 0, 62, 83
2, 95624, Note_on_c, 0, 69, 0
2, 95667, Note_on_c, 0, 62, 0
2, 95705, Note_on_c, 0, 52, 73
2, 95711, Note_on_c, 0, 53, 0
2, 95716, Note_on_c, 0, 64, 87
2, 95788, Note_on_c, 0, 64, 0
2, 95844, Note_on_c, 0, 50, 71
2, 95844, Note_on_c, 0, 52, 0
2, 95856, Note_on_c, 0, 69, 79
2, 95865, Note_on_c, 0, 65, 70
2, 95986, Note_on_c, 0, 65, 0
2, 95988, Note_on_c, 0, 70, 80
2, 95992, Note_on_c, 0, 64, 74
2, 96001, Note_on_c, 0, 50, 0
2, 96003, Note_on_c, 0, 69, 0
2, 96010, Note_on_c, 0, 55, 71
2, 96028, Note_on_c, 0, 64, 0
2, 96028, Note_on_c, 0, 70, 0
2, 96173, Note_on_c, 0, 65, 78
2, 96186, Note_on_c, 0, 55, 0
2, 96202, Note_on_c, 0, 57, 74
2, 96202, Note_on_c, 0, 61, 69
2, 96226, Note_on_c, 0, 64, 78
2, 96226, Note_on_c, 0, 65, 0
2, 96283, Note_on_c, 0, 57, 0
2, 96285, Note_on_c, 0, 64, 0
2, 96300, Note_on_c, 0, 65, 59
2, 96347, Note_on_c, 0, 64, 70
2, 96381, Note_on_c, 0, 65, 0
2, 96477, Note_on_c, 0, 45, 64
2, 96506, Note_on_c, 0, 61, 0
2, 96521, Note_on_c, 0, 45, 0
2, 96601, Note_on_c, 0, 62, 74
2, 96644, Note_on_c, 0, 64, 0
2, 96675, Note_on_c, 0, 62, 0
2, 96779, Note_on_c, 0, 38, 52
2, 96793, Note_on_c, 0, 62, 51
2, 96922, Note_on_c, 0, 62, 0
2, 96922, Note_on_c, 0, 64, 55
2, 97049, Note_on_c, 0, 64, 0
2, 97058, Note_on_c, 0, 38, 0
2, 97058, Note_on_c, 0, 65, 55
2, 97118, Note_on_c, 0, 65, 0
2, 97295, Note_on_c, 0, 69, 54
2, 97313, Note_on_c, 0, 50, 56
2, 97370, Note_on_c, 0, 50, 0
2, 97419, Note_on_c, 0, 70, 56
2, 97433, Note_on_c, 0, 69, 0
2, 97545, Note_on_c, 0, 70, 0
2, 97566, Note_on_c, 0, 72, 59
2, 97588, Note_on_c, 0, 51, 61
2, 97712, Note_on_c, 0, 70, 55
2, 97722, Note_on_c, 0, 72, 0
2, 97813, Note_on_c, 0, 70, 0
2, 97843, Note_on_c, 0, 51, 0
2, 97846, Note_on_c, 0, 50, 58
2, 97859, Note_on_c, 0, 72, 65
2, 97886, Note_on_c, 0, 50, 0
2, 97954, Note_on_c, 0, 72, 0
2, 97990, Note_on_c, 0, 74, 50
2, 98135, Note_on_c, 0, 48, 64
2, 98135, Note_on_c, 0, 74, 0
2, 98146, Note_on_c, 0, 75, 61
2, 98172, Note_on_c, 0, 48, 0
2, 98262, Note_on_c, 0, 74, 70
2, 98269, Note_on_c, 0, 75, 0
2, 98295, Note_on_c, 0, 74, 0
2, 98396, Note_on_c, 0, 50, 59
2, 98437, Note_on_c, 0, 66, 64
2, 98445, Note_on_c, 0, 50, 0
2, 98549, Note_on_c, 0, 64, 71
2, 98609, Note_on_c, 0, 66, 0
2, 98670, Note_on_c, 0, 42, 62
2, 98678, Note_on_c, 0, 64, 0
2, 98691, Note_on_c, 0, 62, 64
2, 98787, Note_on_c, 0, 42, 0
2, 98808, Note_on_c, 0, 43, 61
2, 98808, Note_on_c, 0, 62, 0
2, 98812, Note_on_c, 0, 64, 72
2, 98913, Note_on_c, 0, 64, 0
2, 98945, Note_on_c, 0, 43, 0
2, 98963, Note_on_c, 0, 45, 59
2, 98966, Note_on_c, 0, 62, 60
2, 98966, Note_on_c, 0, 66, 71
2, 99026, Note_on_c, 0, 62, 0
2, 99066, Note_on_c, 0, 45, 0
2, 99089, Note_on_c, 0, 67, 73
2, 99095, Note_on_c, 0, 46, 64
2, 99109, Note_on_c, 0, 66, 0
2, 99133, Note_on_c, 0, 46, 0
2, 99265, Note_on_c, 0, 67, 0
2, 99270, Note_on_c, 0, 63, 66
2, 99274, Note_on_c, 0, 69, 63
2, 99279, Note_on_c, 0, 48, 56
2, 99384, Note_on_c, 0, 48, 0
2, 99405, Note_on_c, 0, 46, 56
2, 99472, Note_on_c, 0, 63, 0
2, 99538, Note_on_c, 0, 46, 0
2, 99564, Note_on_c, 0, 50, 57
2, 99564, Note_on_c, 0, 62, 67
2, 99609, Note_on_c, 0, 62, 0
2, 99658, Note_on_c, 0, 50, 0
2, 99685, Note_on_c, 0, 48, 53
2, 99817, Note_on_c, 0, 48, 0
2, 99841, Note_on_c, 0, 46, 56
2, 99865, Note_on_c, 0, 60, 61
2, 99907, Note_on_c, 0, 60, 0
2, 99920, Note_on_c, 0, 46, 0
2, 99958, Note_on_c, 0, 45, 54
2, 100105, Note_on_c, 0, 69, 0
2, 100130, Note_on_c, 0, 45, 0
2, 100130, Note_on_c, 0, 46, 56
2, 100142, Note_on_c, 0, 62, 58
2, 100243, Note_on_c, 0, 46, 0
2, 100270, Note_on_c, 0, 62, 0
2, 100280, Note_on_c, 0, 67, 72
2, 100410, Note_on_c, 0, 69, 70
2, 100426, Note_on_c, 0, 54, 63
2, 100430, Note_on_c, 0, 67, 0
2, 100498, Note_on_c, 0, 54, 0
2, 100546, Note_on_c, 0, 55, 64
2, 100546, Note_on_c, 0, 70, 72
2, 100567, Note_on_c, 0, 69, 0
2, 100597, Control_c, 0, 64, 39
2, 100619, Note_on_c, 0, 70, 0
2, 100670, Note_on_c, 0, 72, 83
2, 100696, Note_on_c, 0, 57, 65
2, 100700, Note_on_c, 0, 55, 0
2, 100809, Note_on_c, 0, 57, 0
2, 100809, Note_on_c, 0, 58, 66
2, 100809, Note_on_c, 0, 74, 75
2, 100815, Note_on_c, 0, 72, 0
2, 100957, Note_on_c, 0, 58, 0
2, 100972, Note_on_c, 0, 60, 58
2, 100972, Note_on_c, 0, 75, 81
2, 100977, Note_on_c, 0, 54, 58
2, 100996, Note_on_c, 0, 74, 0
2, 101060, Note_on_c, 0, 60, 0
2, 101116, Note_on_c, 0, 58, 59
2, 101236, Note_on_c, 0, 58, 0
2, 101259, Note_on_c, 0, 62, 57
2, 101259, Note_on_c, 0, 74, 73
2, 101310, Note_on_c, 0, 75, 0
2, 101312, Note_on_c, 0, 54, 0
2, 101327, Note_on_c, 0, 74, 0
2, 101367, Note_on_c, 0, 62, 0
2, 101392, Note_on_c, 0, 60, 55
2, 101540, Note_on_c, 0, 58, 59
2, 101542, Note_on_c, 0, 72, 79
2, 101549, Note_on_c, 0, 60, 0
2, 101607, Note_on_c, 0, 72, 0
2, 101612, Note_on_c, 0, 58, 0
2, 101649, Note_on_c, 0, 57, 59
2, 101812, Note_on_c, 0, 58, 51
2, 101825, Note_on_c, 0, 74, 74
2, 101860, Note_on_c, 0, 55, 43
2, 101867, Note_on_c, 0, 57, 0
2, 101898, Note_on_c, 0, 74, 0
2, 101947, Note_on_c, 0, 58, 0
2, 101963, Note_on_c, 0, 62, 54
2, 102090, Note_on_c, 0, 62, 0
2, 102092, Note_on_c, 0, 66, 78
2, 102101, Note_on_c, 0, 55, 0
2, 102103, Note_on_c, 0, 60, 60
2, 102194, Note_on_c, 0, 66, 0
2, 102222, Note_on_c, 0, 60, 0
2, 102227, Note_on_c, 0, 67, 76
2, 102236, Note_on_c, 0, 58, 68
2, 102341, Note_on_c, 0, 58, 0
2, 102369, Note_on_c, 0, 57, 66
2, 102381, Note_on_c, 0, 69, 78
2, 102427, Note_on_c, 0, 67, 0
2, 102489, Note_on_c, 0, 57, 0
2, 102502, Note_on_c, 0, 70, 82
2, 102511, Note_on_c, 0, 55, 63
2, 102533, Note_on_c, 0, 69, 0
2, 102571, Note_on_c, 0, 70, 0
2, 102650, Note_on_c, 0, 55, 0
2, 102664, Note_on_c, 0, 54, 60
2, 102678, Note_on_c, 0, 51, 56
2, 102678, Note_on_c, 0, 72, 77
2, 102819, Note_on_c, 0, 70, 72
2, 102835, Note_on_c, 0, 72, 0
2, 102970, Note_on_c, 0, 74, 75
2, 102987, Note_on_c, 0, 70, 0
2, 103095, Note_on_c, 0, 74, 0
2, 103100, Note_on_c, 0, 72, 81
2, 103156, Note_on_c, 0, 54, 0
2, 103160, Note_on_c, 0, 51, 0
2, 103236, Note_on_c, 0, 70, 83
2, 103297, Note_on_c, 0, 72, 0
2, 103356, Note_on_c, 0, 69, 72
2, 103390, Note_on_c, 0, 70, 0
2, 103501, Note_on_c, 0, 50, 58
2, 103501, Note_on_c, 0, 55, 66
2, 103506, Note_on_c, 0, 70, 82
2, 103521, Note_on_c, 0, 69, 0
2, 103578, Note_on_c, 0, 70, 0
2, 103616, Note_on_c, 0, 55, 0
2, 103647, Note_on_c, 0, 57, 69
2, 103649, Note_on_c, 0, 66, 80
2, 103744, Note_on_c, 0, 66, 0
2, 103759, Note_on_c, 0, 57, 0
2, 103785, Note_on_c, 0, 58, 67
2, 103789, Note_on_c, 0, 67, 84
2, 103869, Note_on_c, 0, 50, 0
2, 103915, Note_on_c, 0, 58, 0
2, 103915, Note_on_c, 0, 60, 74
2, 103923, Note_on_c, 0, 69, 81
2, 103944, Note_on_c, 0, 67, 0
2, 103971, Note_on_c, 0, 60, 0
2, 104055, Note_on_c, 0, 70, 86
2, 104061, Note_on_c, 0, 62, 77
2, 104070, Note_on_c, 0, 69, 0
2, 104166, Note_on_c, 0, 62, 0
2, 104183, Note_on_c, 0, 57, 78
2, 104187, Note_on_c, 0, 73, 88
2, 104225, Note_on_c, 0, 57, 0
2, 104232, Note_on_c, 0, 70, 0
2, 104261, Note_on_c, 0, 73, 0
2, 104322, Control_c, 0, 64, 40
2, 104328, Note_on_c, 0, 58, 72
2, 104337, Note_on_c, 0, 74, 83
2, 104442, Note_on_c, 0, 58, 0
2, 104464, Note_on_c, 0, 79, 83
2, 104469, Note_on_c, 0, 48, 63
2, 104484, Note_on_c, 0, 74, 0
2, 104509, Note_on_c, 0, 79, 0
2, 104530, Note_on_c, 0, 48, 0
2, 104633, Note_on_c, 0, 72, 76
2, 104653, Note_on_c, 0, 50, 64
2, 104653, Note_on_c, 0, 55, 64
2, 104675, Note_on_c, 0, 70, 75
2, 104694, Note_on_c, 0, 55, 0
2, 104726, Note_on_c, 0, 72, 0
2, 104730, Note_on_c, 0, 50, 0
2, 104730, Note_on_c, 0, 72, 63
2, 104739, Note_on_c, 0, 70, 0
2, 104797, Note_on_c, 0, 70, 68
2, 104834, Note_on_c, 0, 72, 0
2, 104914, Note_on_c, 0, 54, 62
2, 104918, Note_on_c, 0, 50, 63
2, 104932, Note_on_c, 0, 69, 74
2, 104958, Note_on_c, 0, 50, 0
2, 104958, Note_on_c, 0, 54, 0
2, 104974, Note_on_c, 0, 70, 0
2, 105014, Control_c, 0, 64, 39
2, 105058, Note_on_c, 0, 69, 0
2, 105071, Note_on_c, 0, 67, 70
2, 105116, Note_on_c, 0, 67, 0
2, 105208, Note_on_c, 0, 43, 50
2, 105208, Note_on_c, 0, 55, 50
2, 105217, Note_on_c, 0, 67, 70
2, 105276, Note_on_c, 0, 43, 0
2, 105355, Note_on_c, 0, 62, 56
2, 105415, Note_on_c, 0, 62, 0
2, 105420, Note_on_c, 0, 67, 0
2, 105500, Note_on_c, 0, 70, 67
2, 105507, Note_on_c, 0, 45, 44
2, 105544, Note_on_c, 0, 45, 0
2, 105638, Note_on_c, 0, 65, 55
2, 105700, Note_on_c, 0, 65, 0
2, 105769, Note_on_c, 0, 46, 53
2, 105783, Note_on_c, 0, 64, 62
2, 105813, Note_on_c, 0, 46, 0
2, 105923, Note_on_c, 0, 62, 56
2, 105923, Note_on_c, 0, 64, 0
2, 105961, Note_on_c, 0, 62, 0
2, 106020, Note_on_c, 0, 70, 0
2, 106054, Note_on_c, 0, 48, 61
2, 106061, Note_on_c, 0, 64, 70
2, 106081, Note_on_c, 0, 55, 0
2, 106098, Note_on_c, 0, 48, 0
2, 106199, Note_on_c, 0, 67, 61
2, 106257, Note_on_c, 0, 67, 0
2, 106336, Note_on_c, 0, 72, 72
2, 106347, Note_on_c, 0, 50, 60
2, 106389, Note_on_c, 0, 50, 0
2, 106459, Note_on_c, 0, 70, 66
2, 106492, Note_on_c, 0, 72, 0
2, 106578, Note_on_c, 0, 70, 0
2, 106611, Note_on_c, 0, 69, 63
2, 106613, Note_on_c, 0, 52, 72
2, 106662, Note_on_c, 0, 52, 0
2, 106732, Note_on_c, 0, 67, 67
2, 106754, Note_on_c, 0, 69, 0
2, 106790, Note_on_c, 0, 67, 0
2, 106797, Note_on_c, 0, 64, 0
2, 106890, Note_on_c, 0, 53, 76
2, 106903, Note_on_c, 0, 69, 72
2, 106934, Note_on_c, 0, 53, 0
2, 107024, Note_on_c, 0, 60, 68
2, 107074, Note_on_c, 0, 60, 0
2, 107172, Note_on_c, 0, 65, 67
2, 107179, Note_on_c, 0, 55, 74
2, 107234, Note_on_c, 0, 55, 0
2, 107264, Note_on_c, 0, 65, 0
2, 107291, Note_on_c, 0, 63, 70
2, 107452, Note_on_c, 0, 57, 76
2, 107461, Note_on_c, 0, 62, 76
2, 107490, Note_on_c, 0, 57, 0
2, 107590, Note_on_c, 0, 60, 74
2, 107590, Note_on_c, 0, 62, 0
2, 107590, Note_on_c, 0, 63, 0
2, 107632, Note_on_c, 0, 60, 0
2, 107681, Note_on_c, 0, 69, 0
2, 107741, Note_on_c, 0, 58, 78
2, 107743, Note_on_c, 0, 62, 72
2, 107877, Note_on_c, 0, 65, 63
2, 107967, Note_on_c, 0, 65, 0
2, 108027, Note_on_c, 0, 70, 78
2, 108156, Note_on_c, 0, 69, 70
2, 108163, Note_on_c, 0, 70, 0
2, 108274, Note_on_c, 0, 62, 0
2, 108291, Note_on_c, 0, 67, 72
2, 108388, Note_on_c, 0, 69, 0
2, 108403, Note_on_c, 0, 65, 73
2, 108421, Note_on_c, 0, 67, 0
2, 108463, Note_on_c, 0, 65, 0
2, 108573, Note_on_c, 0, 64, 77
2, 108577, Note_on_c, 0, 60, 66
2, 108623, Note_on_c, 0, 60, 0
2, 108643, Note_on_c, 0, 64, 0
2, 108694, Note_on_c, 0, 55, 56
2, 108700, Note_on_c, 0, 58, 0
2, 108856, Note_on_c, 0, 65, 71
2, 108860, Note_on_c, 0, 62, 75
2, 108865, Note_on_c, 0, 60, 64
2, 108867, Note_on_c, 0, 55, 0
2, 108890, Note_on_c, 0, 62, 0
2, 108915, Note_on_c, 0, 65, 0
2, 108976, Note_on_c, 0, 58, 67
2, 108984, Note_on_c, 0, 60, 0
2, 109119, Note_on_c, 0, 67, 82
2, 109123, Note_on_c, 0, 64, 75
2, 109133, Note_on_c, 0, 57, 75
2, 109142, Note_on_c, 0, 58, 0
2, 109163, Note_on_c, 0, 64, 0
2, 109184, Note_on_c, 0, 67, 0
2, 109261, Note_on_c, 0, 57, 0
2, 109269, Note_on_c, 0, 55, 70
2, 109386, Note_on_c, 0, 55, 0
2, 109397, Note_on_c, 0, 69, 81
2, 109404, Note_on_c, 0, 65, 75
2, 109415, Note_on_c, 0, 53, 76
2, 109449, Note_on_c, 0, 65, 0
2, 109477, Note_on_c, 0, 69, 0
2, 109553, Note_on_c, 0, 48, 71
2, 109575, Note_on_c, 0, 53, 0
2, 109676, Note_on_c, 0, 48, 0
2, 109681, Note_on_c, 0, 70, 86
2, 109684, Note_on_c, 0, 67, 81
2, 109698, Note_on_c, 0, 53, 82
2, 109728, Note_on_c, 0, 67, 0
2, 109762, Note_on_c, 0, 70, 0
2, 109812, Note_on_c, 0, 51, 78
2, 109828, Note_on_c, 0, 53, 0
2, 109955, Note_on_c, 0, 50, 78
2, 109960, Note_on_c, 0, 69, 74
2, 109960, Note_on_c, 0, 72, 94
2, 109970, Note_on_c, 0, 51, 0
2, 109999, Note_on_c, 0, 69, 0
2, 110027, Note_on_c, 0, 72, 0
2, 110082, Note_on_c, 0, 48, 75
2, 110084, Note_on_c, 0, 50, 0
2, 110222, Note_on_c, 0, 46, 76
2, 110228, Note_on_c, 0, 74, 90
2, 110238, Note_on_c, 0, 48, 0
2, 110238, Note_on_c, 0, 70, 87
2, 110321, Note_on_c, 0, 74, 0
2, 110329, Note_on_c, 0, 46, 0
2, 110356, Note_on_c, 0, 48, 65
2, 110511, Note_on_c, 0, 46, 74
2, 110520, Note_on_c, 0, 76, 95
2, 110524, Note_on_c, 0, 48, 0
2, 110612, Note_on_c, 0, 76, 0
2, 110630, Note_on_c, 0, 45, 71
2, 110634, Note_on_c, 0, 46, 0
2, 110753, Note_on_c, 0, 45, 0
2, 110779, Note_on_c, 0, 43, 70
2, 110800, Note_on_c, 0, 77, 94
2, 110828, Note_on_c, 0, 70, 0
2, 110882, Note_on_c, 0, 77, 0
2, 110908, Note_on_c, 0, 43, 0
2, 110913, Note_on_c, 0, 41, 73
2, 111080, Note_on_c, 0, 40, 69
2, 111084, Note_on_c, 0, 79, 86
2, 111087, Note_on_c, 0, 41, 0
2, 111198, Control_c, 0, 64, 38
2, 111218, Note_on_c, 0, 67, 71
2, 111253, Note_on_c, 0, 67, 0
2, 111384, Note_on_c, 0, 72, 84
2, 111509, Note_on_c, 0, 72, 0
2, 111514, Note_on_c, 0, 70, 78
2, 111560, Note_on_c, 0, 70, 0
2, 111640, Note_on_c, 0, 69, 75
2, 111754, Note_on_c, 0, 67, 77
2, 111801, Note_on_c, 0, 69, 0
2, 111804, Note_on_c, 0, 67, 0
2, 111907, Note_on_c, 0, 40, 0
2, 111907, Note_on_c, 0, 41, 78
2, 111919, Note_on_c, 0, 69, 74
2, 111926, Note_on_c, 0, 79, 0
2, 111962, Note_on_c, 0, 41, 0
2, 112045, Note_on_c, 0, 72, 73
2, 112138, Note_on_c, 0, 72, 0
2, 112185, Note_on_c, 0, 77, 79
2, 112188, Note_on_c, 0, 43, 79
2, 112238, Note_on_c, 0, 43, 0
2, 112303, Note_on_c, 0, 75, 74
2, 112355, Note_on_c, 0, 77, 0
2, 112394, Note_on_c, 0, 75, 0
2, 112443, Note_on_c, 0, 45, 76
2, 112465, Note_on_c, 0, 74, 79
2, 112491, Note_on_c, 0, 45, 0
2, 112576, Note_on_c, 0, 72, 77
2, 112591, Note_on_c, 0, 74, 0
2, 112731, Note_on_c, 0, 46, 78
2, 112737, Note_on_c, 0, 74, 81
2, 112754, Note_on_c, 0, 72, 0
2, 112883, Note_on_c, 0, 72, 82
2, 112911, Note_on_c, 0, 74, 0
2, 113008, Note_on_c, 0, 50, 75
2, 113021, Note_on_c, 0, 75, 78
2, 113030, Note_on_c, 0, 72, 0
2, 113053, Note_on_c, 0, 50, 0
2, 113073, Control_c, 0, 64, 39
2, 113093, Note_on_c, 0, 75, 0
2, 113145, Note_on_c, 0, 74, 76
2, 113242, Note_on_c, 0, 69, 0
2, 113295, Note_on_c, 0, 72, 87
2, 113299, Note_on_c, 0, 55, 76
2, 113325, Control_c, 0, 64, 40
2, 113325, Note_on_c, 0, 74, 0
2, 113340, Note_on_c, 0, 46, 0
2, 113419, Note_on_c, 0, 70, 86
2, 113448, Note_on_c, 0, 72, 0
2, 113563, Note_on_c, 0, 55, 0
2, 113572, Note_on_c, 0, 45, 59
2, 113585, Note_on_c, 0, 72, 84
2, 113620, Note_on_c, 0, 70, 0
2, 113725, Note_on_c, 0, 53, 66
2, 113799, Note_on_c, 0, 53, 0
2, 113885, Note_on_c, 0, 58, 71
2, 113885, Note_on_c, 0, 64, 80
2, 113950, Note_on_c, 0, 58, 0
2, 113952, Note_on_c, 0, 45, 0
2, 114005, Note_on_c, 0, 57, 72
2, 114005, Note_on_c, 0, 65, 77
2, 114042, Note_on_c, 0, 64, 0
2, 114042, Note_on_c, 0, 72, 0
2, 114151, Note_on_c, 0, 55, 70
2, 114153, Note_on_c, 0, 57, 0
2, 114159, Note_on_c, 0, 67, 78
2, 114217, Note_on_c, 0, 65, 0
2, 114268, Note_on_c, 0, 53, 72
2, 114274, Note_on_c, 0, 55, 0
2, 114285, Note_on_c, 0, 69, 76
2, 114308, Note_on_c, 0, 53, 0
2, 114319, Note_on_c, 0, 67, 0
2, 114353, Note_on_c, 0, 69, 0
2, 114431, Note_on_c, 0, 55, 66
2, 114437, Note_on_c, 0, 43, 70
2, 114442, Note_on_c, 0, 70, 78
2, 114475, Control_c, 0, 64, 39
2, 114495, Note_on_c, 0, 55, 0
2, 114577, Note_on_c, 0, 69, 70
2, 114577, Note_on_c, 0, 70, 0
2, 114705, Note_on_c, 0, 46, 68
2, 114716, Note_on_c, 0, 72, 81
2, 114721, Note_on_c, 0, 69, 0
2, 114776, Note_on_c, 0, 43, 0
2, 114832, Note_on_c, 0, 48, 68
2, 114845, Note_on_c, 0, 70, 77
2, 114855, Note_on_c, 0, 46, 0
2, 114862, Note_on_c, 0, 72, 0
2, 114983, Note_on_c, 0, 48, 0
2, 114991, Note_on_c, 0, 50, 65
2, 115001, Note_on_c, 0, 69, 73
2, 115012, Note_on_c, 0, 70, 0
2, 115071, Note_on_c, 0, 50, 0
2, 115099, Note_on_c, 0, 52, 51
2, 115123, Note_on_c, 0, 67, 68
2, 115132, Note_on_c, 0, 69, 0
2, 115137, Note_on_c, 0, 52, 0
2, 115176, Note_on_c, 0, 67, 0
2, 115263, Note_on_c, 0, 41, 60
2, 115268, Note_on_c, 0, 53, 60
2, 115268, Note_on_c, 0, 69, 68
2, 115312, Note_on_c, 0, 41, 0
2, 115389, Note_on_c, 0, 69, 0
2, 115413, Note_on_c, 0, 67, 59
2, 115461, Note_on_c, 0, 67, 0
2, 115540, Note_on_c, 0, 43, 66
2, 115554, Note_on_c, 0, 70, 74
2, 115599, Note_on_c, 0, 43, 0
2, 115684, Note_on_c, 0, 69, 69
2, 115688, Note_on_c, 0, 70, 0
2, 115734, Note_on_c, 0, 69, 0
2, 115819, Note_on_c, 0, 45, 68
2, 115819, Note_on_c, 0, 72, 88
2, 115874, Note_on_c, 0, 45, 0
2, 115933, Note_on_c, 0, 70, 87
2, 115962, Note_on_c, 0, 72, 0
2, 116013, Note_on_c, 0, 70, 0
2, 116091, Note_on_c, 0, 46, 75
2, 116094, Note_on_c, 0, 74, 86
2, 116186, Note_on_c, 0, 46, 0
2, 116212, Note_on_c, 0, 72, 84
2, 116232, Note_on_c, 0, 74, 0
2, 116285, Note_on_c, 0, 72, 0
2, 116357, Note_on_c, 0, 48, 73
2, 116361, Note_on_c, 0, 76, 94
2, 116434, Note_on_c, 0, 48, 0
2, 116434, Note_on_c, 0, 53, 0
2, 116487, Note_on_c, 0, 74, 90
2, 116530, Note_on_c, 0, 76, 0
2, 116563, Note_on_c, 0, 74, 0
2, 116645, Note_on_c, 0, 58, 77
2, 116645, Note_on_c, 0, 77, 95
2, 116659, Note_on_c, 0, 50, 65
2, 116724, Note_on_c, 0, 50, 0
2, 116734, Note_on_c, 0, 77, 0
2, 116768, Note_on_c, 0, 76, 93
2, 116838, Note_on_c, 0, 76, 0
2, 116916, Note_on_c, 0, 52, 73
2, 116941, Note_on_c, 0, 79, 91
2, 116978, Note_on_c, 0, 52, 0
2, 117021, Note_on_c, 0, 79, 0
2, 117081, Note_on_c, 0, 69, 83
2, 117131, Note_on_c, 0, 69, 0
2, 117244, Note_on_c, 0, 48, 71
2, 117256, Note_on_c, 0, 70, 87
2, 117264, Note_on_c, 0, 64, 84
2, 117288, Note_on_c, 0, 58, 0
2, 117305, Note_on_c, 0, 64, 0
2, 117344, Note_on_c, 0, 48, 0
2, 117344, Note_on_c, 0, 70, 0
2, 117419, Note_on_c, 0, 67, 90
2, 117503, Note_on_c, 0, 67, 0
2, 117621, Note_on_c, 0, 69, 89
2, 117625, Note_on_c, 0, 53, 70
2, 117644, Note_on_c, 0, 65, 70
2, 117693, Note_on_c, 0, 53, 0
2, 117971, Note_on_c, 0, 46, 74
2, 118154, Note_on_c, 0, 70, 87
2, 118224, Note_on_c, 0, 69, 0
2, 118291, Note_on_c, 0, 65, 0
2, 118293, Note_on_c, 0, 70, 0
2, 118403, Note_on_c, 0, 48, 59
2, 118422, Note_on_c, 0, 69, 74
2, 118431, Note_on_c, 0, 64, 73
2, 118449, Note_on_c, 0, 46, 0
2, 118491, Note_on_c, 0, 67, 74
2, 118496, Note_on_c, 0, 69, 0
2, 118569, Note_on_c, 0, 67, 0
2, 118578, Note_on_c, 0, 69, 65
2, 118606, Control_c, 0, 64, 38
2, 118621, Note_on_c, 0, 67, 70
2, 118643, Note_on_c, 0, 69, 0
2, 118709, Note_on_c, 0, 69, 68
2, 118712, Note_on_c, 0, 64, 0
2, 118712, Note_on_c, 0, 64, 18
2, 118712, Note_on_c, 0, 67, 0
2, 118760, Note_on_c, 0, 67, 71
2, 118812, Note_on_c, 0, 69, 0
2, 118841, Note_on_c, 0, 64, 0
2, 118841, Note_on_c, 0, 64, 22
2, 118945, Note_on_c, 0, 48, 0
2, 118996, Note_on_c, 0, 36, 65
2, 119229, Note_on_c, 0, 64, 0
2, 119414, Note_on_c, 0, 65, 76
2, 119464, Note_on_c, 0, 67, 0
2, 119935, Note_on_c, 0, 65, 0
2, 120085, Note_on_c, 0, 65, 78
2, 120087, Note_on_c, 0, 41, 65
2, 120135, Note_on_c, 0, 36, 0
2, 122508, Note_on_c, 0, 41, 0
2, 122534, Note_on_c, 0, 65, 0
2, 123335, Control_c, 0, 64, 39
2, 123336, End_track
0, 0, End_of_file
