0, 0, Header, 1, 2, 384
1, 0, Start_track
1, 0, Tempo, 500000
1, 0, Time_signature, 4, 2, 24, 8
1, 1, End_track
2,0,Start_track
2,0, Note_on_c, 0, 65, 62
2,35, Note_on_c, 0, 65, 0
2,127, Note_on_c, 0, 64, 53
2,161, Note_on_c, 0, 64, 0
2,240, Note_on_c, 0, 65, 62
2,285, Note_on_c, 0, 65, 0
2,396, Note_on_c, 0, 72, 85
2,429, Note_on_c, 0, 72, 0
2,783, Note_on_c, 0, 69, 69
2,817, Note_on_c, 0, 69, 0
2,902, Note_on_c, 0, 67, 68
2,954, Note_on_c, 0, 67, 0
2,1020, Note_on_c, 0, 69, 69
2,1065, Note_on_c, 0, 69, 0
2,1179, Note_on_c, 0, 74, 86
2,1217, Note_on_c, 0, 74, 0
2,1568, Note_on_c, 0, 72, 66
2,1594, Note_on_c, 0, 72, 0
2,1688, Note_on_c, 0, 74, 65
2,1729, Note_on_c, 0, 74, 0
2,1811, Note_on_c, 0, 76, 75
2,1851, Note_on_c, 0, 76, 0
2,1955, Note_on_c, 0, 77, 84
2,2053, Note_on_c, 0, 77, 0
2,2100, Note_on_c, 0, 76, 76
2,2142, Note_on_c, 0, 76, 0
2,2227, Note_on_c, 0, 74, 63
2,2254, Note_on_c, 0, 74, 0
2,2355, Note_on_c, 0, 72, 55
2,2386, Note_on_c, 0, 72, 0
2,2472, Note_on_c, 0, 74, 58
2,2505, Note_on_c, 0, 74, 0
2,2594, Note_on_c, 0, 70, 68
2,2639, Note_on_c, 0, 70, 0
2,2740, Note_on_c, 0, 69, 65
2,2776, Note_on_c, 0, 69, 0
2,2857, Note_on_c, 0, 67, 54
2,2896, Note_on_c, 0, 67, 0
2,2972, Note_on_c, 0, 65, 65
2,3004, Note_on_c, 0, 65, 0
2,3094, Note_on_c, 0, 60, 61
2,3101, Note_on_c, 0, 64, 52
2,3128, Note_on_c, 0, 60, 0
2,3128, Note_on_c, 0, 64, 0
2,3216, Note_on_c, 0, 58, 66
2,3254, Note_on_c, 0, 58, 0
2,3339, Note_on_c, 0, 70, 67
2,3350, Note_on_c, 0, 60, 62
2,3367, Note_on_c, 0, 70, 0
2,3384, Note_on_c, 0, 60, 0
2,3483, Note_on_c, 0, 65, 81
2,3488, Note_on_c, 0, 69, 74
2,3513, Note_on_c, 0, 65, 0
2,3515, Note_on_c, 0, 69, 0
2,3731, Note_on_c, 0, 74, 59
2,3769, Note_on_c, 0, 74, 0
2,3862, Note_on_c, 0, 67, 60
2,3863, Note_on_c, 0, 64, 73
2,3893, Note_on_c, 0, 64, 0
2,3893, Note_on_c, 0, 67, 0
2,3981, Note_on_c, 0, 62, 69
2,4027, Note_on_c, 0, 62, 0
2,4109, Note_on_c, 0, 64, 77
2,4111, Note_on_c, 0, 74, 70
2,4143, Note_on_c, 0, 74, 0
2,4146, Note_on_c, 0, 64, 0
2,4252, Note_on_c, 0, 69, 88
2,4259, Note_on_c, 0, 72, 85
2,4289, Note_on_c, 0, 69, 0
2,4296, Note_on_c, 0, 72, 0
2,4504, Note_on_c, 0, 77, 64
2,4532, Note_on_c, 0, 77, 0
2,4625, Note_on_c, 0, 67, 73
2,4626, Note_on_c, 0, 71, 69
2,4663, Note_on_c, 0, 71, 0
2,4671, Note_on_c, 0, 67, 0
2,4745, Note_on_c, 0, 69, 75
2,4791, Note_on_c, 0, 69, 0
2,4866, Note_on_c, 0, 77, 79
2,4868, Note_on_c, 0, 71, 79
2,4911, Note_on_c, 0, 71, 0
2,4920, Note_on_c, 0, 77, 0
2,4993, Note_on_c, 0, 72, 77
2,5009, Note_on_c, 0, 76, 83
2,5070, Note_on_c, 0, 72, 0
2,5078, Note_on_c, 0, 76, 0
2,5119, Note_on_c, 0, 71, 72
2,5130, Note_on_c, 0, 74, 69
2,5160, Note_on_c, 0, 71, 0
2,5169, Note_on_c, 0, 74, 0
2,5251, Note_on_c, 0, 69, 76
2,5252, Note_on_c, 0, 72, 75
2,5280, Note_on_c, 0, 69, 0
2,5287, Note_on_c, 0, 72, 0
2,5379, Note_on_c, 0, 67, 68
2,5388, Note_on_c, 0, 79, 62
2,5418, Note_on_c, 0, 67, 0
2,5421, Note_on_c, 0, 79, 0
2,5500, Note_on_c, 0, 69, 54
2,5522, Note_on_c, 0, 69, 0
2,5616, Note_on_c, 0, 71, 64
2,5626, Note_on_c, 0, 65, 59
2,5657, Note_on_c, 0, 65, 0
2,5666, Note_on_c, 0, 71, 0
2,5742, Note_on_c, 0, 72, 64
2,5753, Note_on_c, 0, 64, 64
2,5795, Note_on_c, 0, 64, 0
2,5883, Note_on_c, 0, 62, 64
2,5925, Note_on_c, 0, 62, 0
2,6005, Note_on_c, 0, 60, 64
2,6047, Note_on_c, 0, 60, 0
2,6135, Note_on_c, 0, 62, 65
2,6146, Note_on_c, 0, 72, 0
2,6175, Note_on_c, 0, 62, 0
2,6256, Note_on_c, 0, 64, 68
2,6262, Note_on_c, 0, 70, 65
2,6293, Note_on_c, 0, 64, 0
2,6296, Note_on_c, 0, 70, 0
2,6378, Note_on_c, 0, 66, 76
2,6382, Note_on_c, 0, 69, 73
2,6428, Note_on_c, 0, 69, 0
2,6432, Note_on_c, 0, 66, 0
2,6503, Note_on_c, 0, 67, 77
2,6510, Note_on_c, 0, 70, 74
2,6568, Note_on_c, 0, 70, 0
2,6648, Note_on_c, 0, 72, 66
2,6694, Note_on_c, 0, 72, 0
2,6767, Note_on_c, 0, 74, 70
2,6822, Note_on_c, 0, 74, 0
2,6909, Note_on_c, 0, 75, 86
2,6935, Note_on_c, 0, 67, 0
2,7030, Note_on_c, 0, 65, 66
2,7060, Note_on_c, 0, 65, 0
2,7149, Note_on_c, 0, 63, 73
2,7198, Note_on_c, 0, 63, 0
2,7284, Note_on_c, 0, 65, 78
2,7330, Note_on_c, 0, 75, 0
2,7332, Note_on_c, 0, 65, 0
2,7415, Note_on_c, 0, 67, 74
2,7429, Note_on_c, 0, 74, 65
2,7455, Note_on_c, 0, 67, 0
2,7459, Note_on_c, 0, 74, 0
2,7536, Note_on_c, 0, 69, 73
2,7549, Note_on_c, 0, 72, 71
2,7586, Note_on_c, 0, 69, 0
2,7586, Note_on_c, 0, 72, 0
2,7663, Note_on_c, 0, 70, 82
2,7679, Note_on_c, 0, 74, 76
2,7733, Note_on_c, 0, 74, 0
2,7800, Note_on_c, 0, 76, 77
2,7850, Note_on_c, 0, 76, 0
2,7922, Note_on_c, 0, 77, 83
2,7987, Note_on_c, 0, 77, 0
2,8048, Note_on_c, 0, 79, 91
2,8075, Note_on_c, 0, 70, 0
2,8188, Note_on_c, 0, 69, 73
2,8227, Note_on_c, 0, 69, 0
2,8310, Note_on_c, 0, 67, 75
2,8358, Note_on_c, 0, 67, 0
2,8434, Note_on_c, 0, 79, 0
2,8442, Note_on_c, 0, 69, 81
2,8487, Note_on_c, 0, 69, 0
2,8567, Note_on_c, 0, 71, 78
2,8574, Note_on_c, 0, 77, 79
2,8598, Note_on_c, 0, 71, 0
2,8623, Note_on_c, 0, 77, 0
2,8683, Note_on_c, 0, 76, 73
2,8692, Note_on_c, 0, 73, 78
2,8733, Note_on_c, 0, 73, 0
2,8740, Note_on_c, 0, 76, 0
2,8817, Note_on_c, 0, 77, 87
2,8818, Note_on_c, 0, 74, 85
2,8881, Note_on_c, 0, 77, 0
2,8947, Note_on_c, 0, 79, 81
2,9001, Note_on_c, 0, 79, 0
2,9072, Note_on_c, 0, 81, 89
2,9137, Note_on_c, 0, 81, 0
2,9209, Note_on_c, 0, 82, 92
2,9225, Note_on_c, 0, 74, 0
2,9338, Note_on_c, 0, 72, 71
2,9367, Note_on_c, 0, 72, 0
2,9449, Note_on_c, 0, 82, 0
2,9453, Note_on_c, 0, 70, 77
2,9498, Note_on_c, 0, 70, 0
2,9588, Note_on_c, 0, 72, 83
2,9640, Note_on_c, 0, 72, 0
2,9718, Note_on_c, 0, 74, 69
2,9724, Note_on_c, 0, 81, 68
2,9767, Note_on_c, 0, 81, 0
2,9771, Note_on_c, 0, 74, 0
2,9845, Note_on_c, 0, 79, 69
2,9852, Note_on_c, 0, 76, 67
2,9884, Note_on_c, 0, 76, 0
2,9892, Note_on_c, 0, 79, 0
2,9969, Note_on_c, 0, 77, 61
2,9969, Note_on_c, 0, 81, 70
2,9978, Note_on_c, 0, 53, 72
2,10017, Note_on_c, 0, 53, 0
2,10074, Note_on_c, 0, 81, 0
2,10093, Note_on_c, 0, 82, 69
2,10105, Note_on_c, 0, 52, 81
2,10144, Note_on_c, 0, 82, 0
2,10153, Note_on_c, 0, 52, 0
2,10227, Note_on_c, 0, 53, 83
2,10228, Note_on_c, 0, 81, 67
2,10273, Note_on_c, 0, 53, 0
2,10311, Note_on_c, 0, 81, 0
2,10356, Note_on_c, 0, 60, 90
2,10356, Note_on_c, 0, 77, 0
2,10362, Note_on_c, 0, 79, 80
2,10405, Note_on_c, 0, 60, 0
2,10495, Note_on_c, 0, 76, 59
2,10541, Note_on_c, 0, 76, 0
2,10618, Note_on_c, 0, 74, 66
2,10663, Note_on_c, 0, 74, 0
2,10731, Note_on_c, 0, 79, 0
2,10755, Note_on_c, 0, 57, 77
2,10760, Note_on_c, 0, 72, 70
2,10796, Note_on_c, 0, 57, 0
2,10875, Note_on_c, 0, 55, 81
2,10879, Note_on_c, 0, 84, 70
2,10924, Note_on_c, 0, 55, 0
2,10924, Note_on_c, 0, 84, 0
2,11000, Note_on_c, 0, 76, 69
2,11001, Note_on_c, 0, 57, 85
2,11050, Note_on_c, 0, 57, 0
2,11094, Note_on_c, 0, 76, 0
2,11128, Note_on_c, 0, 62, 94
2,11136, Note_on_c, 0, 77, 78
2,11155, Note_on_c, 0, 72, 0
2,11180, Note_on_c, 0, 62, 0
2,11182, Note_on_c, 0, 77, 0
2,11269, Note_on_c, 0, 69, 73
2,11322, Note_on_c, 0, 69, 0
2,11393, Note_on_c, 0, 70, 75
2,11518, Note_on_c, 0, 60, 78
2,11536, Note_on_c, 0, 76, 71
2,11549, Note_on_c, 0, 70, 0
2,11565, Note_on_c, 0, 60, 0
2,11592, Note_on_c, 0, 76, 0
2,11650, Note_on_c, 0, 62, 77
2,11656, Note_on_c, 0, 77, 68
2,11684, Note_on_c, 0, 62, 0
2,11701, Note_on_c, 0, 77, 0
2,11779, Note_on_c, 0, 64, 76
2,11780, Note_on_c, 0, 79, 72
2,11808, Note_on_c, 0, 79, 0
2,11829, Note_on_c, 0, 64, 0
2,11899, Note_on_c, 0, 65, 75
2,11917, Note_on_c, 0, 69, 57
2,11917, Note_on_c, 0, 72, 75
2,11936, Note_on_c, 0, 69, 0
2,11949, Note_on_c, 0, 72, 0
2,11951, Note_on_c, 0, 65, 0
2,12026, Note_on_c, 0, 64, 66
2,12061, Note_on_c, 0, 64, 0
2,12150, Note_on_c, 0, 62, 72
2,12154, Note_on_c, 0, 70, 68
2,12160, Note_on_c, 0, 77, 66
2,12182, Note_on_c, 0, 62, 0
2,12187, Note_on_c, 0, 77, 0
2,12197, Note_on_c, 0, 70, 0
2,12280, Note_on_c, 0, 60, 63
2,12281, Note_on_c, 0, 77, 73
2,12290, Note_on_c, 0, 69, 73
2,12312, Note_on_c, 0, 60, 0
2,12320, Note_on_c, 0, 77, 0
2,12321, Note_on_c, 0, 69, 0
2,12387, Note_on_c, 0, 62, 62
2,12416, Note_on_c, 0, 62, 0
2,12522, Note_on_c, 0, 76, 64
2,12526, Note_on_c, 0, 58, 63
2,12540, Note_on_c, 0, 67, 37
2,12560, Note_on_c, 0, 58, 0
2,12568, Note_on_c, 0, 67, 0
2,12575, Note_on_c, 0, 76, 0
2,12654, Note_on_c, 0, 77, 59
2,12658, Note_on_c, 0, 57, 60
2,12659, Note_on_c, 0, 72, 67
2,12700, Note_on_c, 0, 57, 0
2,12714, Note_on_c, 0, 72, 0
2,12779, Note_on_c, 0, 70, 66
2,12800, Note_on_c, 0, 55, 58
2,12832, Note_on_c, 0, 55, 0
2,12845, Note_on_c, 0, 70, 0
2,12901, Note_on_c, 0, 69, 64
2,12907, Note_on_c, 0, 53, 63
2,12934, Note_on_c, 0, 69, 0
2,12949, Note_on_c, 0, 53, 0
2,13036, Note_on_c, 0, 67, 66
2,13038, Note_on_c, 0, 58, 69
2,13100, Note_on_c, 0, 67, 0
2,13127, Note_on_c, 0, 77, 0
2,13159, Note_on_c, 0, 69, 66
2,13197, Note_on_c, 0, 69, 0
2,13281, Note_on_c, 0, 65, 67
2,13315, Note_on_c, 0, 65, 0
2,13409, Note_on_c, 0, 79, 73
2,13415, Note_on_c, 0, 64, 61
2,13418, Note_on_c, 0, 58, 0
2,13458, Note_on_c, 0, 64, 0
2,13471, Note_on_c, 0, 79, 0
2,13550, Note_on_c, 0, 77, 78
2,13553, Note_on_c, 0, 62, 73
2,13593, Note_on_c, 0, 62, 0
2,13609, Note_on_c, 0, 77, 0
2,13671, Note_on_c, 0, 76, 82
2,13672, Note_on_c, 0, 60, 73
2,13715, Note_on_c, 0, 60, 0
2,13723, Note_on_c, 0, 76, 0
2,13796, Note_on_c, 0, 74, 75
2,13816, Note_on_c, 0, 57, 63
2,13817, Note_on_c, 0, 66, 76
2,13843, Note_on_c, 0, 74, 0
2,13918, Note_on_c, 0, 75, 66
2,13958, Note_on_c, 0, 75, 0
2,13983, Note_on_c, 0, 66, 0
2,14034, Note_on_c, 0, 72, 65
2,14050, Note_on_c, 0, 57, 0
2,14062, Note_on_c, 0, 72, 0
2,14172, Note_on_c, 0, 70, 70
2,14185, Note_on_c, 0, 55, 69
2,14190, Note_on_c, 0, 67, 49
2,14222, Note_on_c, 0, 67, 0
2,14228, Note_on_c, 0, 55, 0
2,14229, Note_on_c, 0, 70, 0
2,14312, Note_on_c, 0, 69, 66
2,14314, Note_on_c, 0, 53, 67
2,14346, Note_on_c, 0, 53, 0
2,14349, Note_on_c, 0, 69, 0
2,14430, Note_on_c, 0, 67, 66
2,14435, Note_on_c, 0, 51, 66
2,14463, Note_on_c, 0, 67, 0
2,14476, Note_on_c, 0, 51, 0
2,14563, Note_on_c, 0, 65, 70
2,14564, Note_on_c, 0, 69, 73
2,14570, Note_on_c, 0, 50, 70
2,14604, Note_on_c, 0, 50, 0
2,14612, Note_on_c, 0, 69, 0
2,14687, Note_on_c, 0, 51, 69
2,14726, Note_on_c, 0, 51, 0
2,14819, Note_on_c, 0, 48, 77
2,14826, Note_on_c, 0, 74, 63
2,14860, Note_on_c, 0, 48, 0
2,14909, Note_on_c, 0, 74, 0
2,14959, Note_on_c, 0, 47, 76
2,14971, Note_on_c, 0, 67, 66
2,15004, Note_on_c, 0, 47, 0
2,15028, Note_on_c, 0, 67, 0
2,15090, Note_on_c, 0, 45, 66
2,15136, Note_on_c, 0, 45, 0
2,15223, Note_on_c, 0, 43, 70
2,15226, Note_on_c, 0, 74, 64
2,15251, Note_on_c, 0, 65, 0
2,15270, Note_on_c, 0, 43, 0
2,15279, Note_on_c, 0, 74, 0
2,15356, Note_on_c, 0, 48, 82
2,15359, Note_on_c, 0, 67, 63
2,15364, Note_on_c, 0, 64, 67
2,15390, Note_on_c, 0, 67, 0
2,15395, Note_on_c, 0, 48, 0
2,15481, Note_on_c, 0, 47, 82
2,15526, Note_on_c, 0, 47, 0
2,15607, Note_on_c, 0, 76, 72
2,15608, Note_on_c, 0, 48, 83
2,15610, Note_on_c, 0, 64, 0
2,15649, Note_on_c, 0, 48, 0
2,15719, Note_on_c, 0, 76, 0
2,15741, Note_on_c, 0, 53, 90
2,15756, Note_on_c, 0, 69, 81
2,15787, Note_on_c, 0, 53, 0
2,15881, Note_on_c, 0, 73, 62
2,15955, Note_on_c, 0, 73, 0
2,16009, Note_on_c, 0, 74, 66
2,16035, Note_on_c, 0, 69, 0
2,16065, Note_on_c, 0, 74, 0
2,16140, Note_on_c, 0, 52, 80
2,16147, Note_on_c, 0, 67, 74
2,16179, Note_on_c, 0, 52, 0
2,16264, Note_on_c, 0, 50, 79
2,16264, Note_on_c, 0, 71, 61
2,16306, Note_on_c, 0, 50, 0
2,16349, Note_on_c, 0, 71, 0
2,16392, Note_on_c, 0, 52, 87
2,16402, Note_on_c, 0, 72, 75
2,16421, Note_on_c, 0, 67, 0
2,16442, Note_on_c, 0, 52, 0
2,16478, Note_on_c, 0, 72, 0
2,16538, Note_on_c, 0, 57, 89
2,16545, Note_on_c, 0, 65, 80
2,16572, Note_on_c, 0, 57, 0
2,16667, Note_on_c, 0, 76, 71
2,16731, Note_on_c, 0, 76, 0
2,16793, Note_on_c, 0, 77, 73
2,16857, Note_on_c, 0, 77, 0
2,16925, Note_on_c, 0, 55, 75
2,16928, Note_on_c, 0, 71, 71
2,16968, Note_on_c, 0, 55, 0
2,17012, Note_on_c, 0, 71, 0
2,17044, Note_on_c, 0, 57, 79
2,17051, Note_on_c, 0, 72, 70
2,17096, Note_on_c, 0, 57, 0
2,17134, Note_on_c, 0, 72, 0
2,17175, Note_on_c, 0, 59, 78
2,17175, Note_on_c, 0, 74, 66
2,17218, Note_on_c, 0, 74, 0
2,17221, Note_on_c, 0, 59, 0
2,17251, Note_on_c, 0, 65, 0
2,17309, Note_on_c, 0, 60, 72
2,17316, Note_on_c, 0, 67, 74
2,17355, Note_on_c, 0, 60, 0
2,17361, Note_on_c, 0, 67, 0
2,17440, Note_on_c, 0, 64, 66
2,17449, Note_on_c, 0, 59, 56
2,17483, Note_on_c, 0, 59, 0
2,17484, Note_on_c, 0, 64, 0
2,17574, Note_on_c, 0, 57, 66
2,17577, Note_on_c, 0, 65, 62
2,17587, Note_on_c, 0, 72, 54
2,17602, Note_on_c, 0, 57, 0
2,17607, Note_on_c, 0, 65, 0
2,17607, Note_on_c, 0, 72, 0
2,17692, Note_on_c, 0, 55, 76
2,17700, Note_on_c, 0, 72, 67
2,17701, Note_on_c, 0, 64, 73
2,17729, Note_on_c, 0, 72, 0
2,17731, Note_on_c, 0, 64, 0
2,17734, Note_on_c, 0, 55, 0
2,17817, Note_on_c, 0, 57, 67
2,17849, Note_on_c, 0, 57, 0
2,17942, Note_on_c, 0, 53, 67
2,17945, Note_on_c, 0, 62, 63
2,17946, Note_on_c, 0, 71, 53
2,17975, Note_on_c, 0, 53, 0
2,17980, Note_on_c, 0, 62, 0
2,17988, Note_on_c, 0, 71, 0
2,18078, Note_on_c, 0, 72, 73
2,18081, Note_on_c, 0, 52, 64
2,18082, Note_on_c, 0, 60, 67
2,18118, Note_on_c, 0, 52, 0
2,18206, Note_on_c, 0, 53, 66
2,18243, Note_on_c, 0, 53, 0
2,18332, Note_on_c, 0, 50, 70
2,18342, Note_on_c, 0, 67, 65
2,18367, Note_on_c, 0, 50, 0
2,18380, Note_on_c, 0, 67, 0
2,18468, Note_on_c, 0, 48, 70
2,18468, Note_on_c, 0, 70, 82
2,18508, Note_on_c, 0, 72, 0
2,18515, Note_on_c, 0, 48, 0
2,18599, Note_on_c, 0, 50, 67
2,18642, Note_on_c, 0, 50, 0
2,18724, Note_on_c, 0, 67, 79
2,18727, Note_on_c, 0, 60, 0
2,18730, Note_on_c, 0, 52, 69
2,18747, Note_on_c, 0, 70, 0
2,18775, Note_on_c, 0, 52, 0
2,18871, Note_on_c, 0, 69, 84
2,18874, Note_on_c, 0, 53, 68
2,18926, Note_on_c, 0, 53, 0
2,18996, Note_on_c, 0, 55, 63
2,19035, Note_on_c, 0, 55, 0
2,19083, Note_on_c, 0, 67, 0
2,19134, Note_on_c, 0, 52, 72
2,19142, Note_on_c, 0, 60, 59
2,19174, Note_on_c, 0, 52, 0
2,19188, Note_on_c, 0, 60, 0
2,19267, Note_on_c, 0, 65, 81
2,19270, Note_on_c, 0, 50, 71
2,19297, Note_on_c, 0, 69, 0
2,19314, Note_on_c, 0, 50, 0
2,19392, Note_on_c, 0, 52, 69
2,19437, Note_on_c, 0, 52, 0
2,19526, Note_on_c, 0, 74, 72
2,19528, Note_on_c, 0, 53, 74
2,19572, Note_on_c, 0, 53, 0
2,19575, Note_on_c, 0, 74, 0
2,19665, Note_on_c, 0, 67, 81
2,19675, Note_on_c, 0, 55, 68
2,19703, Note_on_c, 0, 65, 0
2,19719, Note_on_c, 0, 55, 0
2,19786, Note_on_c, 0, 57, 58
2,19826, Note_on_c, 0, 57, 0
2,19927, Note_on_c, 0, 53, 65
2,19936, Note_on_c, 0, 59, 65
2,19966, Note_on_c, 0, 53, 0
2,19995, Note_on_c, 0, 59, 0
2,19997, Note_on_c, 0, 67, 0
2,20062, Note_on_c, 0, 52, 65
2,20068, Note_on_c, 0, 60, 63
2,20100, Note_on_c, 0, 52, 0
2,20116, Note_on_c, 0, 60, 0
2,20189, Note_on_c, 0, 62, 52
2,20193, Note_on_c, 0, 53, 60
2,20228, Note_on_c, 0, 62, 0
2,20232, Note_on_c, 0, 53, 0
2,20314, Note_on_c, 0, 55, 64
2,20314, Note_on_c, 0, 67, 59
2,20317, Note_on_c, 0, 64, 55
2,20343, Note_on_c, 0, 64, 0
2,20358, Note_on_c, 0, 67, 0
2,20362, Note_on_c, 0, 55, 0
2,20458, Note_on_c, 0, 65, 69
2,20462, Note_on_c, 0, 57, 52
2,20462, Note_on_c, 0, 72, 73
2,20501, Note_on_c, 0, 57, 0
2,20512, Note_on_c, 0, 65, 0
2,20585, Note_on_c, 0, 55, 68
2,20596, Note_on_c, 0, 67, 63
2,20637, Note_on_c, 0, 55, 0
2,20658, Note_on_c, 0, 67, 0
2,20716, Note_on_c, 0, 72, 0
2,20719, Note_on_c, 0, 69, 67
2,20721, Note_on_c, 0, 53, 64
2,20755, Note_on_c, 0, 53, 0
2,20776, Note_on_c, 0, 69, 0
2,20833, Note_on_c, 0, 55, 64
2,20841, Note_on_c, 0, 62, 71
2,20880, Note_on_c, 0, 55, 0
2,20892, Note_on_c, 0, 62, 0
2,20966, Note_on_c, 0, 72, 65
2,21008, Note_on_c, 0, 72, 0
2,21078, Note_on_c, 0, 43, 55
2,21090, Note_on_c, 0, 71, 60
2,21109, Note_on_c, 0, 43, 0
2,21137, Note_on_c, 0, 71, 0
2,21238, Note_on_c, 0, 72, 61
2,21239, Note_on_c, 0, 60, 57
2,21246, Note_on_c, 0, 64, 52
2,21279, Note_on_c, 0, 60, 0
2,21282, Note_on_c, 0, 64, 0
2,21366, Note_on_c, 0, 59, 54
2,21370, Note_on_c, 0, 67, 48
2,21383, Note_on_c, 0, 72, 0
2,21414, Note_on_c, 0, 59, 0
2,21425, Note_on_c, 0, 67, 0
2,21479, Note_on_c, 0, 57, 58
2,21485, Note_on_c, 0, 65, 59
2,21510, Note_on_c, 0, 57, 0
2,21530, Note_on_c, 0, 65, 0
2,21615, Note_on_c, 0, 64, 54
2,21623, Note_on_c, 0, 55, 55
2,21654, Note_on_c, 0, 64, 0
2,21658, Note_on_c, 0, 55, 0
2,21737, Note_on_c, 0, 57, 56
2,21741, Note_on_c, 0, 65, 58
2,21776, Note_on_c, 0, 57, 0
2,21778, Note_on_c, 0, 65, 0
2,21843, Note_on_c, 0, 53, 60
2,21848, Note_on_c, 0, 62, 69
2,21877, Note_on_c, 0, 62, 0
2,21883, Note_on_c, 0, 53, 0
2,21993, Note_on_c, 0, 79, 70
2,21994, Note_on_c, 0, 52, 69
2,22002, Note_on_c, 0, 60, 57
2,22027, Note_on_c, 0, 60, 0
2,22033, Note_on_c, 0, 52, 0
2,22043, Note_on_c, 0, 79, 0
2,22115, Note_on_c, 0, 77, 70
2,22121, Note_on_c, 0, 50, 65
2,22159, Note_on_c, 0, 50, 0
2,22170, Note_on_c, 0, 77, 0
2,22237, Note_on_c, 0, 48, 66
2,22237, Note_on_c, 0, 76, 71
2,22288, Note_on_c, 0, 76, 0
2,22290, Note_on_c, 0, 48, 0
2,22375, Note_on_c, 0, 53, 70
2,22377, Note_on_c, 0, 74, 68
2,22424, Note_on_c, 0, 74, 0
2,22491, Note_on_c, 0, 76, 62
2,22531, Note_on_c, 0, 76, 0
2,22613, Note_on_c, 0, 72, 61
2,22644, Note_on_c, 0, 72, 0
2,22752, Note_on_c, 0, 62, 58
2,22757, Note_on_c, 0, 71, 65
2,22793, Note_on_c, 0, 71, 0
2,22806, Note_on_c, 0, 62, 0
2,22870, Note_on_c, 0, 69, 67
2,22882, Note_on_c, 0, 60, 61
2,22898, Note_on_c, 0, 69, 0
2,22941, Note_on_c, 0, 60, 0
2,22993, Note_on_c, 0, 67, 60
2,23010, Note_on_c, 0, 59, 52
2,23033, Note_on_c, 0, 59, 0
2,23034, Note_on_c, 0, 67, 0
2,23046, Note_on_c, 0, 53, 0
2,23119, Note_on_c, 0, 73, 73
2,23127, Note_on_c, 0, 57, 71
2,23132, Note_on_c, 0, 52, 64
2,23142, Note_on_c, 0, 73, 0
2,23166, Note_on_c, 0, 52, 0
2,23167, Note_on_c, 0, 57, 0
2,23249, Note_on_c, 0, 58, 69
2,23302, Note_on_c, 0, 58, 0
2,23375, Note_on_c, 0, 55, 67
2,23408, Note_on_c, 0, 55, 0
2,23508, Note_on_c, 0, 81, 86
2,23521, Note_on_c, 0, 50, 66
2,23524, Note_on_c, 0, 53, 59
2,23558, Note_on_c, 0, 53, 0
2,23560, Note_on_c, 0, 52, 24
2,23561, Note_on_c, 0, 50, 0
2,23561, Note_on_c, 0, 52, 0
2,23564, Note_on_c, 0, 81, 0
2,23630, Note_on_c, 0, 79, 83
2,23644, Note_on_c, 0, 52, 59
2,23681, Note_on_c, 0, 79, 0
2,23685, Note_on_c, 0, 52, 0
2,23748, Note_on_c, 0, 77, 82
2,23753, Note_on_c, 0, 50, 74
2,23787, Note_on_c, 0, 50, 0
2,23801, Note_on_c, 0, 77, 0
2,23879, Note_on_c, 0, 76, 77
2,23888, Note_on_c, 0, 55, 64
2,23900, Note_on_c, 0, 46, 62
2,23931, Note_on_c, 0, 76, 0
2,24000, Note_on_c, 0, 77, 67
2,24034, Note_on_c, 0, 77, 0
2,24120, Note_on_c, 0, 74, 65
2,24160, Note_on_c, 0, 74, 0
2,24232, Note_on_c, 0, 46, 0
2,24257, Note_on_c, 0, 45, 60
2,24382, Note_on_c, 0, 71, 60
2,24450, Note_on_c, 0, 71, 0
2,24497, Note_on_c, 0, 69, 69
2,24540, Note_on_c, 0, 69, 0
2,24558, Note_on_c, 0, 55, 0
2,24633, Note_on_c, 0, 53, 65
2,24641, Note_on_c, 0, 74, 68
2,24669, Note_on_c, 0, 53, 0
2,24767, Note_on_c, 0, 52, 58
2,24799, Note_on_c, 0, 52, 0
2,24898, Note_on_c, 0, 50, 58
2,24941, Note_on_c, 0, 45, 0
2,24943, Note_on_c, 0, 50, 0
2,25026, Note_on_c, 0, 52, 71
2,25060, Note_on_c, 0, 74, 0
2,25063, Note_on_c, 0, 52, 0
2,25160, Note_on_c, 0, 72, 63
2,25164, Note_on_c, 0, 54, 65
2,25192, Note_on_c, 0, 72, 0
2,25196, Note_on_c, 0, 54, 0
2,25279, Note_on_c, 0, 56, 62
2,25282, Note_on_c, 0, 71, 72
2,25326, Note_on_c, 0, 56, 0
2,25342, Note_on_c, 0, 71, 0
2,25401, Note_on_c, 0, 72, 76
2,25406, Note_on_c, 0, 57, 71
2,25456, Note_on_c, 0, 57, 0
2,25534, Note_on_c, 0, 46, 72
2,25574, Note_on_c, 0, 46, 0
2,25667, Note_on_c, 0, 48, 65
2,25708, Note_on_c, 0, 48, 0
2,25801, Note_on_c, 0, 50, 68
2,25837, Note_on_c, 0, 72, 0
2,25845, Note_on_c, 0, 50, 0
2,25923, Note_on_c, 0, 70, 66
2,25928, Note_on_c, 0, 52, 70
2,25957, Note_on_c, 0, 52, 0
2,25964, Note_on_c, 0, 70, 0
2,26044, Note_on_c, 0, 69, 78
2,26051, Note_on_c, 0, 54, 69
2,26090, Note_on_c, 0, 54, 0
2,26096, Note_on_c, 0, 69, 0
2,26173, Note_on_c, 0, 55, 80
2,26178, Note_on_c, 0, 70, 88
2,26233, Note_on_c, 0, 55, 0
2,26302, Note_on_c, 0, 57, 70
2,26351, Note_on_c, 0, 57, 0
2,26442, Note_on_c, 0, 58, 79
2,26455, Note_on_c, 0, 53, 65
2,26480, Note_on_c, 0, 58, 0
2,26504, Note_on_c, 0, 53, 0
2,26589, Note_on_c, 0, 52, 72
2,26589, Note_on_c, 0, 60, 72
2,26608, Note_on_c, 0, 70, 0
2,26720, Note_on_c, 0, 72, 71
2,26760, Note_on_c, 0, 72, 0
2,26837, Note_on_c, 0, 70, 75
2,26888, Note_on_c, 0, 70, 0
2,26960, Note_on_c, 0, 52, 0
2,26970, Note_on_c, 0, 51, 67
2,26975, Note_on_c, 0, 69, 70
2,27019, Note_on_c, 0, 69, 0
2,27090, Note_on_c, 0, 70, 58
2,27124, Note_on_c, 0, 70, 0
2,27208, Note_on_c, 0, 67, 57
2,27246, Note_on_c, 0, 67, 0
2,27321, Note_on_c, 0, 51, 0
2,27344, Note_on_c, 0, 66, 69
2,27350, Note_on_c, 0, 50, 63
2,27377, Note_on_c, 0, 66, 0
2,27464, Note_on_c, 0, 64, 57
2,27502, Note_on_c, 0, 64, 0
2,27599, Note_on_c, 0, 62, 55
2,27604, Note_on_c, 0, 60, 0
2,27644, Note_on_c, 0, 62, 0
2,27714, Note_on_c, 0, 67, 71
2,27720, Note_on_c, 0, 58, 68
2,27760, Note_on_c, 0, 58, 0
2,27843, Note_on_c, 0, 57, 60
2,27881, Note_on_c, 0, 57, 0
2,27968, Note_on_c, 0, 55, 61
2,28010, Note_on_c, 0, 55, 0
2,28106, Note_on_c, 0, 57, 60
2,28123, Note_on_c, 0, 67, 0
2,28142, Note_on_c, 0, 57, 0
2,28234, Note_on_c, 0, 59, 52
2,28237, Note_on_c, 0, 65, 60
2,28256, Note_on_c, 0, 59, 0
2,28274, Note_on_c, 0, 65, 0
2,28347, Note_on_c, 0, 64, 50
2,28356, Note_on_c, 0, 61, 62
2,28387, Note_on_c, 0, 64, 0
2,28399, Note_on_c, 0, 61, 0
2,28414, Note_on_c, 0, 50, 0
2,28478, Note_on_c, 0, 65, 62
2,28487, Note_on_c, 0, 62, 51
2,28515, Note_on_c, 0, 65, 0
2,28519, Note_on_c, 0, 62, 0
2,28597, Note_on_c, 0, 67, 70
2,28598, Note_on_c, 0, 52, 60
2,28636, Note_on_c, 0, 52, 0
2,28640, Note_on_c, 0, 67, 0
2,28714, Note_on_c, 0, 69, 74
2,28725, Note_on_c, 0, 53, 65
2,28755, Note_on_c, 0, 69, 0
2,28761, Note_on_c, 0, 53, 0
2,28863, Note_on_c, 0, 55, 67
2,28867, Note_on_c, 0, 70, 72
2,28982, Note_on_c, 0, 55, 0
2,28992, Note_on_c, 0, 60, 61
2,29029, Note_on_c, 0, 60, 0
2,29117, Note_on_c, 0, 58, 76
2,29169, Note_on_c, 0, 58, 0
2,29214, Note_on_c, 0, 70, 0
2,29240, Note_on_c, 0, 52, 72
2,29243, Note_on_c, 0, 60, 76
2,29369, Note_on_c, 0, 69, 68
2,29371, Note_on_c, 0, 60, 0
2,29420, Note_on_c, 0, 69, 0
2,29447, Note_on_c, 0, 52, 0
2,29488, Note_on_c, 0, 67, 80
2,29536, Note_on_c, 0, 67, 0
2,29625, Note_on_c, 0, 69, 77
2,29627, Note_on_c, 0, 53, 73
2,29738, Note_on_c, 0, 62, 73
2,29777, Note_on_c, 0, 62, 0
2,29858, Note_on_c, 0, 64, 75
2,29902, Note_on_c, 0, 64, 0
2,29966, Note_on_c, 0, 69, 0
2,29983, Note_on_c, 0, 65, 87
2,30040, Note_on_c, 0, 53, 0
2,30126, Note_on_c, 0, 70, 77
2,30138, Note_on_c, 0, 55, 68
2,30178, Note_on_c, 0, 70, 0
2,30182, Note_on_c, 0, 55, 0
2,30254, Note_on_c, 0, 72, 77
2,30259, Note_on_c, 0, 57, 68
2,30313, Note_on_c, 0, 57, 0
2,30316, Note_on_c, 0, 72, 0
2,30378, Note_on_c, 0, 65, 0
2,30394, Note_on_c, 0, 74, 86
2,30395, Note_on_c, 0, 58, 81
2,30539, Note_on_c, 0, 64, 76
2,30543, Note_on_c, 0, 58, 0
2,30582, Note_on_c, 0, 64, 0
2,30665, Note_on_c, 0, 62, 79
2,30716, Note_on_c, 0, 62, 0
2,30792, Note_on_c, 0, 64, 80
2,30794, Note_on_c, 0, 55, 78
2,30799, Note_on_c, 0, 74, 0
2,30925, Note_on_c, 0, 72, 74
2,30976, Note_on_c, 0, 72, 0
2,30982, Note_on_c, 0, 55, 0
2,31038, Note_on_c, 0, 70, 78
2,31110, Note_on_c, 0, 70, 0
2,31170, Note_on_c, 0, 64, 0
2,31177, Note_on_c, 0, 57, 82
2,31183, Note_on_c, 0, 72, 87
2,31313, Note_on_c, 0, 65, 68
2,31355, Note_on_c, 0, 65, 0
2,31437, Note_on_c, 0, 67, 80
2,31489, Note_on_c, 0, 67, 0
2,31555, Note_on_c, 0, 72, 0
2,31572, Note_on_c, 0, 69, 89
2,31618, Note_on_c, 0, 57, 0
2,31710, Note_on_c, 0, 59, 76
2,31713, Note_on_c, 0, 74, 75
2,31753, Note_on_c, 0, 59, 0
2,31755, Note_on_c, 0, 74, 0
2,31827, Note_on_c, 0, 76, 84
2,31831, Note_on_c, 0, 60, 79
2,31884, Note_on_c, 0, 60, 0
2,31900, Note_on_c, 0, 76, 0
2,31955, Note_on_c, 0, 69, 0
2,31966, Note_on_c, 0, 77, 92
2,31970, Note_on_c, 0, 62, 82
2,32105, Note_on_c, 0, 67, 81
2,32153, Note_on_c, 0, 67, 0
2,32176, Note_on_c, 0, 62, 0
2,32226, Note_on_c, 0, 65, 84
2,32279, Note_on_c, 0, 65, 0
2,32356, Note_on_c, 0, 67, 85
2,32357, Note_on_c, 0, 59, 80
2,32368, Note_on_c, 0, 77, 0
2,32492, Note_on_c, 0, 76, 73
2,32548, Note_on_c, 0, 76, 0
2,32606, Note_on_c, 0, 74, 77
2,32616, Note_on_c, 0, 59, 0
2,32670, Note_on_c, 0, 74, 0
2,32743, Note_on_c, 0, 67, 0
2,32750, Note_on_c, 0, 60, 82
2,32751, Note_on_c, 0, 76, 90
2,32881, Note_on_c, 0, 69, 77
2,32927, Note_on_c, 0, 69, 0
2,33015, Note_on_c, 0, 71, 73
2,33055, Note_on_c, 0, 71, 0
2,33115, Note_on_c, 0, 76, 0
2,33139, Note_on_c, 0, 72, 81
2,33199, Note_on_c, 0, 60, 0
2,33257, Note_on_c, 0, 72, 0
2,33266, Note_on_c, 0, 77, 81
2,33281, Note_on_c, 0, 62, 76
2,33317, Note_on_c, 0, 77, 0
2,33325, Note_on_c, 0, 62, 0
2,33396, Note_on_c, 0, 79, 79
2,33401, Note_on_c, 0, 64, 72
2,33450, Note_on_c, 0, 64, 0
2,33455, Note_on_c, 0, 79, 0
2,33521, Note_on_c, 0, 81, 85
2,33524, Note_on_c, 0, 65, 73
2,33569, Note_on_c, 0, 65, 0
2,33573, Note_on_c, 0, 81, 0
2,33639, Note_on_c, 0, 64, 68
2,33647, Note_on_c, 0, 79, 75
2,33682, Note_on_c, 0, 64, 0
2,33700, Note_on_c, 0, 79, 0
2,33763, Note_on_c, 0, 77, 75
2,33764, Note_on_c, 0, 62, 68
2,33804, Note_on_c, 0, 62, 0
2,33816, Note_on_c, 0, 77, 0
2,33882, Note_on_c, 0, 60, 70
2,33886, Note_on_c, 0, 76, 75
2,33918, Note_on_c, 0, 60, 0
2,33931, Note_on_c, 0, 76, 0
2,34005, Note_on_c, 0, 77, 70
2,34006, Note_on_c, 0, 62, 65
2,34048, Note_on_c, 0, 62, 0
2,34053, Note_on_c, 0, 76, 71
2,34082, Note_on_c, 0, 77, 0
2,34103, Note_on_c, 0, 74, 68
2,34127, Note_on_c, 0, 58, 67
2,34137, Note_on_c, 0, 76, 0
2,34162, Note_on_c, 0, 58, 0
2,34162, Note_on_c, 0, 72, 65
2,34220, Note_on_c, 0, 74, 0
2,34233, Note_on_c, 0, 77, 83
2,34242, Note_on_c, 0, 57, 75
2,34247, Note_on_c, 0, 72, 0
2,34288, Note_on_c, 0, 57, 0
2,34371, Note_on_c, 0, 55, 62
2,34407, Note_on_c, 0, 55, 0
2,34504, Note_on_c, 0, 53, 66
2,34516, Note_on_c, 0, 74, 66
2,34542, Note_on_c, 0, 53, 0
2,34574, Note_on_c, 0, 74, 0
2,34633, Note_on_c, 0, 55, 70
2,34636, Note_on_c, 0, 71, 61
2,34667, Note_on_c, 0, 55, 0
2,34669, Note_on_c, 0, 71, 0
2,34764, Note_on_c, 0, 57, 60
2,34801, Note_on_c, 0, 57, 0
2,34887, Note_on_c, 0, 67, 64
2,34892, Note_on_c, 0, 59, 63
2,34923, Note_on_c, 0, 67, 0
2,34931, Note_on_c, 0, 59, 0
2,34951, Note_on_c, 0, 77, 0
2,35020, Note_on_c, 0, 75, 65
2,35025, Note_on_c, 0, 60, 54
2,35055, Note_on_c, 0, 75, 0
2,35060, Note_on_c, 0, 60, 0
2,35149, Note_on_c, 0, 59, 57
2,35149, Note_on_c, 0, 79, 70
2,35185, Note_on_c, 0, 59, 0
2,35194, Note_on_c, 0, 79, 0
2,35266, Note_on_c, 0, 78, 78
2,35271, Note_on_c, 0, 57, 63
2,35276, Note_on_c, 0, 72, 58
2,35300, Note_on_c, 0, 57, 0
2,35300, Note_on_c, 0, 72, 0
2,35339, Note_on_c, 0, 78, 0
2,35399, Note_on_c, 0, 55, 67
2,35405, Note_on_c, 0, 71, 65
2,35406, Note_on_c, 0, 79, 68
2,35443, Note_on_c, 0, 55, 0
2,35463, Note_on_c, 0, 71, 0
2,35532, Note_on_c, 0, 56, 60
2,35534, Note_on_c, 0, 72, 64
2,35575, Note_on_c, 0, 56, 0
2,35610, Note_on_c, 0, 72, 0
2,35652, Note_on_c, 0, 53, 65
2,35671, Note_on_c, 0, 74, 64
2,35682, Note_on_c, 0, 53, 0
2,35721, Note_on_c, 0, 74, 0
2,35786, Note_on_c, 0, 51, 71
2,35797, Note_on_c, 0, 72, 64
2,35835, Note_on_c, 0, 51, 0
2,35848, Note_on_c, 0, 72, 0
2,35920, Note_on_c, 0, 74, 61
2,35921, Note_on_c, 0, 50, 72
2,35967, Note_on_c, 0, 50, 0
2,36002, Note_on_c, 0, 74, 0
2,36012, Note_on_c, 0, 79, 0
2,36054, Note_on_c, 0, 48, 75
2,36054, Note_on_c, 0, 75, 76
2,36102, Note_on_c, 0, 75, 0
2,36106, Note_on_c, 0, 48, 0
2,36184, Note_on_c, 0, 50, 80
2,36189, Note_on_c, 0, 69, 78
2,36189, Note_on_c, 0, 78, 84
2,36237, Note_on_c, 0, 50, 0
2,36250, Note_on_c, 0, 78, 0
2,36314, Note_on_c, 0, 52, 78
2,36314, Note_on_c, 0, 79, 80
2,36356, Note_on_c, 0, 52, 0
2,36384, Note_on_c, 0, 79, 0
2,36444, Note_on_c, 0, 54, 78
2,36446, Note_on_c, 0, 81, 82
2,36476, Note_on_c, 0, 81, 0
2,36504, Note_on_c, 0, 54, 0
2,36580, Note_on_c, 0, 55, 71
2,36582, Note_on_c, 0, 70, 79
2,36620, Note_on_c, 0, 69, 0
2,36632, Note_on_c, 0, 55, 0
2,36652, Note_on_c, 0, 70, 0
2,36708, Note_on_c, 0, 53, 65
2,36712, Note_on_c, 0, 74, 69
2,36752, Note_on_c, 0, 53, 0
2,36764, Note_on_c, 0, 74, 0
2,36834, Note_on_c, 0, 51, 69
2,36835, Note_on_c, 0, 72, 75
2,36846, Note_on_c, 0, 67, 60
2,36865, Note_on_c, 0, 72, 0
2,36873, Note_on_c, 0, 51, 0
2,36962, Note_on_c, 0, 70, 70
2,36966, Note_on_c, 0, 50, 74
2,37007, Note_on_c, 0, 50, 0
2,37008, Note_on_c, 0, 67, 0
2,37027, Note_on_c, 0, 70, 0
2,37088, Note_on_c, 0, 72, 70
2,37091, Note_on_c, 0, 51, 64
2,37126, Note_on_c, 0, 72, 0
2,37137, Note_on_c, 0, 51, 0
2,37211, Note_on_c, 0, 69, 73
2,37213, Note_on_c, 0, 48, 68
2,37216, Note_on_c, 0, 66, 62
2,37245, Note_on_c, 0, 48, 0
2,37262, Note_on_c, 0, 66, 0
2,37284, Note_on_c, 0, 69, 0
2,37350, Note_on_c, 0, 46, 74
2,37354, Note_on_c, 0, 67, 72
2,37395, Note_on_c, 0, 46, 0
2,37483, Note_on_c, 0, 45, 71
2,37529, Note_on_c, 0, 45, 0
2,37623, Note_on_c, 0, 43, 73
2,37629, Note_on_c, 0, 75, 70
2,37669, Note_on_c, 0, 43, 0
2,37696, Note_on_c, 0, 75, 0
2,37755, Note_on_c, 0, 45, 82
2,37757, Note_on_c, 0, 73, 78
2,37807, Note_on_c, 0, 45, 0
2,37812, Note_on_c, 0, 73, 0
2,37886, Note_on_c, 0, 47, 78
2,37928, Note_on_c, 0, 47, 0
2,37985, Note_on_c, 0, 67, 0
2,38005, Note_on_c, 0, 49, 80
2,38026, Note_on_c, 0, 69, 76
2,38067, Note_on_c, 0, 49, 0
2,38093, Note_on_c, 0, 69, 0
2,38145, Note_on_c, 0, 50, 72
2,38158, Note_on_c, 0, 65, 76
2,38196, Note_on_c, 0, 50, 0
2,38219, Note_on_c, 0, 65, 0
2,38274, Note_on_c, 0, 69, 73
2,38278, Note_on_c, 0, 48, 69
2,38317, Note_on_c, 0, 48, 0
2,38342, Note_on_c, 0, 69, 0
2,38398, Note_on_c, 0, 46, 72
2,38402, Note_on_c, 0, 67, 66
2,38405, Note_on_c, 0, 74, 66
2,38433, Note_on_c, 0, 67, 0
2,38445, Note_on_c, 0, 46, 0
2,38475, Note_on_c, 0, 74, 0
2,38531, Note_on_c, 0, 45, 67
2,38535, Note_on_c, 0, 73, 69
2,38536, Note_on_c, 0, 69, 62
2,38574, Note_on_c, 0, 45, 0
2,38598, Note_on_c, 0, 73, 0
2,38655, Note_on_c, 0, 46, 70
2,38666, Note_on_c, 0, 74, 61
2,38694, Note_on_c, 0, 46, 0
2,38738, Note_on_c, 0, 74, 0
2,38793, Note_on_c, 0, 76, 64
2,38796, Note_on_c, 0, 43, 72
2,38835, Note_on_c, 0, 43, 0
2,38868, Note_on_c, 0, 76, 0
2,38925, Note_on_c, 0, 74, 63
2,38937, Note_on_c, 0, 41, 69
2,38938, Note_on_c, 0, 69, 0
2,38972, Note_on_c, 0, 41, 0
2,39000, Note_on_c, 0, 74, 0
2,39056, Note_on_c, 0, 40, 63
2,39058, Note_on_c, 0, 76, 60
2,39094, Note_on_c, 0, 40, 0
2,39115, Note_on_c, 0, 76, 0
2,39174, Note_on_c, 0, 77, 68
2,39176, Note_on_c, 0, 38, 64
2,39205, Note_on_c, 0, 38, 0
2,39209, Note_on_c, 0, 77, 0
2,39302, Note_on_c, 0, 70, 81
2,39317, Note_on_c, 0, 50, 78
2,39317, Note_on_c, 0, 53, 83
2,39354, Note_on_c, 0, 50, 0
2,39355, Note_on_c, 0, 53, 0
2,39445, Note_on_c, 0, 52, 83
2,39456, Note_on_c, 0, 70, 0
2,39495, Note_on_c, 0, 52, 0
2,39570, Note_on_c, 0, 53, 87
2,39628, Note_on_c, 0, 53, 0
2,39716, Note_on_c, 0, 60, 90
2,39720, Note_on_c, 0, 52, 87
2,39759, Note_on_c, 0, 52, 0
2,39760, Note_on_c, 0, 60, 0
2,39852, Note_on_c, 0, 76, 69
2,39915, Note_on_c, 0, 76, 0
2,39970, Note_on_c, 0, 79, 63
2,40030, Note_on_c, 0, 79, 0
2,40106, Note_on_c, 0, 51, 72
2,40106, Note_on_c, 0, 57, 79
2,40109, Note_on_c, 0, 72, 85
2,40149, Note_on_c, 0, 51, 0
2,40160, Note_on_c, 0, 57, 0
2,40238, Note_on_c, 0, 55, 83
2,40295, Note_on_c, 0, 55, 0
2,40328, Note_on_c, 0, 72, 0
2,40378, Note_on_c, 0, 57, 86
2,40428, Note_on_c, 0, 57, 0
2,40514, Note_on_c, 0, 62, 95
2,40519, Note_on_c, 0, 50, 87
2,40556, Note_on_c, 0, 50, 0
2,40559, Note_on_c, 0, 62, 0
2,40634, Note_on_c, 0, 70, 62
2,40689, Note_on_c, 0, 70, 0
2,40754, Note_on_c, 0, 69, 71
2,40778, Note_on_c, 0, 69, 0
2,40903, Note_on_c, 0, 52, 69
2,40907, Note_on_c, 0, 70, 72
2,40908, Note_on_c, 0, 60, 76
2,40956, Note_on_c, 0, 52, 0
2,40976, Note_on_c, 0, 60, 0
2,40998, Note_on_c, 0, 70, 0
2,41020, Note_on_c, 0, 53, 81
2,41030, Note_on_c, 0, 62, 82
2,41078, Note_on_c, 0, 53, 0
2,41095, Note_on_c, 0, 62, 0
2,41160, Note_on_c, 0, 64, 86
2,41163, Note_on_c, 0, 55, 74
2,41200, Note_on_c, 0, 55, 0
2,41212, Note_on_c, 0, 64, 0
2,41290, Note_on_c, 0, 65, 96
2,41296, Note_on_c, 0, 45, 76
2,41359, Note_on_c, 0, 65, 0
2,41372, Note_on_c, 0, 45, 0
2,41408, Note_on_c, 0, 64, 71
2,41448, Note_on_c, 0, 64, 0
2,41527, Note_on_c, 0, 46, 80
2,41534, Note_on_c, 0, 62, 72
2,41534, Note_on_c, 0, 70, 75
2,41577, Note_on_c, 0, 70, 0
2,41579, Note_on_c, 0, 62, 0
2,41583, Note_on_c, 0, 46, 0
2,41662, Note_on_c, 0, 48, 80
2,41671, Note_on_c, 0, 69, 77
2,41673, Note_on_c, 0, 60, 76
2,41698, Note_on_c, 0, 48, 0
2,41718, Note_on_c, 0, 60, 0
2,41727, Note_on_c, 0, 69, 0
2,41803, Note_on_c, 0, 62, 53
2,41847, Note_on_c, 0, 62, 0
2,41925, Note_on_c, 0, 49, 66
2,41927, Note_on_c, 0, 67, 64
2,41948, Note_on_c, 0, 58, 54
2,41955, Note_on_c, 0, 49, 0
2,41970, Note_on_c, 0, 58, 0
2,41973, Note_on_c, 0, 67, 0
2,42064, Note_on_c, 0, 65, 64
2,42066, Note_on_c, 0, 57, 60
2,42069, Note_on_c, 0, 50, 60
2,42108, Note_on_c, 0, 57, 0
2,42194, Note_on_c, 0, 55, 62
2,42232, Note_on_c, 0, 55, 0
2,42328, Note_on_c, 0, 53, 59
2,42383, Note_on_c, 0, 53, 0
2,42459, Note_on_c, 0, 58, 73
2,42566, Note_on_c, 0, 58, 0
2,42572, Note_on_c, 0, 50, 0
2,42596, Note_on_c, 0, 48, 62
2,42600, Note_on_c, 0, 63, 67
2,42618, Note_on_c, 0, 65, 0
2,42646, Note_on_c, 0, 63, 0
2,42651, Note_on_c, 0, 48, 0
2,42727, Note_on_c, 0, 62, 65
2,42729, Note_on_c, 0, 46, 48
2,42758, Note_on_c, 0, 46, 0
2,42760, Note_on_c, 0, 62, 0
2,42862, Note_on_c, 0, 60, 64
2,42864, Note_on_c, 0, 53, 64
2,42992, Note_on_c, 0, 57, 58
2,43032, Note_on_c, 0, 57, 0
2,43142, Note_on_c, 0, 55, 53
2,43200, Note_on_c, 0, 55, 0
2,43248, Note_on_c, 0, 57, 76
2,43382, Note_on_c, 0, 53, 0
2,43386, Note_on_c, 0, 60, 0
2,43396, Note_on_c, 0, 62, 65
2,43398, Note_on_c, 0, 57, 0
2,43443, Note_on_c, 0, 62, 0
2,43516, Note_on_c, 0, 63, 69
2,43518, Note_on_c, 0, 51, 67
2,43554, Note_on_c, 0, 51, 0
2,43588, Note_on_c, 0, 63, 0
2,43643, Note_on_c, 0, 65, 72
2,43648, Note_on_c, 0, 50, 70
2,43691, Note_on_c, 0, 50, 0
2,43759, Note_on_c, 0, 58, 74
2,43787, Note_on_c, 0, 58, 0
2,43873, Note_on_c, 0, 48, 73
2,43881, Note_on_c, 0, 60, 76
2,43909, Note_on_c, 0, 60, 0
2,43912, Note_on_c, 0, 48, 0
2,43958, Note_on_c, 0, 65, 0
2,44006, Note_on_c, 0, 62, 83
2,44014, Note_on_c, 0, 46, 82
2,44078, Note_on_c, 0, 46, 0
2,44130, Note_on_c, 0, 67, 73
2,44208, Note_on_c, 0, 67, 0
2,44267, Note_on_c, 0, 45, 78
2,44267, Note_on_c, 0, 69, 85
2,44302, Note_on_c, 0, 62, 0
2,44307, Note_on_c, 0, 45, 0
2,44320, Note_on_c, 0, 69, 0
2,44405, Note_on_c, 0, 70, 87
2,44414, Note_on_c, 0, 43, 83
2,44492, Note_on_c, 0, 43, 0
2,44529, Note_on_c, 0, 63, 64
2,44563, Note_on_c, 0, 63, 0
2,44662, Note_on_c, 0, 41, 82
2,44667, Note_on_c, 0, 65, 79
2,44700, Note_on_c, 0, 65, 0
2,44704, Note_on_c, 0, 41, 0
2,44750, Note_on_c, 0, 70, 0
2,44795, Note_on_c, 0, 67, 87
2,44802, Note_on_c, 0, 39, 81
2,44875, Note_on_c, 0, 39, 0
2,44934, Note_on_c, 0, 72, 74
2,44988, Note_on_c, 0, 72, 0
2,45059, Note_on_c, 0, 74, 86
2,45064, Note_on_c, 0, 38, 85
2,45117, Note_on_c, 0, 38, 0
2,45117, Note_on_c, 0, 74, 0
2,45144, Note_on_c, 0, 67, 0
2,45193, Note_on_c, 0, 75, 92
2,45205, Note_on_c, 0, 36, 82
2,45326, Note_on_c, 0, 69, 70
2,45380, Note_on_c, 0, 69, 0
2,45455, Note_on_c, 0, 70, 75
2,45526, Note_on_c, 0, 70, 0
2,45584, Note_on_c, 0, 72, 88
2,45718, Note_on_c, 0, 36, 0
2,45722, Note_on_c, 0, 38, 69
2,45767, Note_on_c, 0, 38, 0
2,45846, Note_on_c, 0, 70, 75
2,45849, Note_on_c, 0, 39, 72
2,45855, Note_on_c, 0, 72, 0
2,45889, Note_on_c, 0, 39, 0
2,45912, Note_on_c, 0, 75, 0
2,45921, Note_on_c, 0, 70, 0
2,45972, Note_on_c, 0, 69, 76
2,45984, Note_on_c, 0, 41, 85
2,46040, Note_on_c, 0, 69, 0
2,46115, Note_on_c, 0, 74, 75
2,46174, Note_on_c, 0, 74, 0
2,46237, Note_on_c, 0, 72, 87
2,46290, Note_on_c, 0, 72, 0
2,46362, Note_on_c, 0, 74, 83
2,46370, Note_on_c, 0, 70, 84
2,46483, Note_on_c, 0, 74, 0
2,46502, Note_on_c, 0, 75, 76
2,46551, Note_on_c, 0, 75, 0
2,46642, Note_on_c, 0, 74, 71
2,46704, Note_on_c, 0, 74, 0
2,46759, Note_on_c, 0, 70, 0
2,46766, Note_on_c, 0, 72, 86
2,46897, Note_on_c, 0, 69, 68
2,46950, Note_on_c, 0, 69, 0
2,47015, Note_on_c, 0, 67, 68
2,47053, Note_on_c, 0, 67, 0
2,47130, Note_on_c, 0, 72, 0
2,47147, Note_on_c, 0, 69, 84
2,47282, Note_on_c, 0, 72, 76
2,47343, Note_on_c, 0, 72, 0
2,47403, Note_on_c, 0, 77, 84
2,47453, Note_on_c, 0, 77, 0
2,47547, Note_on_c, 0, 70, 83
2,47577, Note_on_c, 0, 69, 0
2,47672, Note_on_c, 0, 67, 71
2,47726, Note_on_c, 0, 67, 0
2,47801, Note_on_c, 0, 65, 67
2,47838, Note_on_c, 0, 65, 0
2,47925, Note_on_c, 0, 70, 0
2,47933, Note_on_c, 0, 67, 76
2,48066, Note_on_c, 0, 70, 63
2,48123, Note_on_c, 0, 70, 0
2,48184, Note_on_c, 0, 75, 73
2,48239, Note_on_c, 0, 75, 0
2,48330, Note_on_c, 0, 69, 75
2,48370, Note_on_c, 0, 67, 0
2,48455, Note_on_c, 0, 65, 63
2,48498, Note_on_c, 0, 65, 0
2,48574, Note_on_c, 0, 64, 67
2,48611, Note_on_c, 0, 64, 0
2,48666, Note_on_c, 0, 69, 0
2,48704, Note_on_c, 0, 65, 73
2,48825, Note_on_c, 0, 69, 63
2,48889, Note_on_c, 0, 69, 0
2,48962, Note_on_c, 0, 74, 67
2,49002, Note_on_c, 0, 74, 0
2,49107, Note_on_c, 0, 67, 68
2,49164, Note_on_c, 0, 65, 0
2,49238, Note_on_c, 0, 63, 60
2,49307, Note_on_c, 0, 63, 0
2,49363, Note_on_c, 0, 62, 57
2,49403, Note_on_c, 0, 62, 0
2,49500, Note_on_c, 0, 63, 72
2,49508, Note_on_c, 0, 67, 0
2,49612, Note_on_c, 0, 41, 0
2,49631, Note_on_c, 0, 67, 62
2,49710, Note_on_c, 0, 67, 0
2,49755, Note_on_c, 0, 72, 64
2,49795, Note_on_c, 0, 72, 0
2,49797, Note_on_c, 0, 63, 0
2,49893, Note_on_c, 0, 65, 65
2,50020, Note_on_c, 0, 62, 59
2,50054, Note_on_c, 0, 62, 0
2,50156, Note_on_c, 0, 60, 56
2,50179, Note_on_c, 0, 60, 0
2,50233, Note_on_c, 0, 65, 0
2,50271, Note_on_c, 0, 62, 68
2,50277, Note_on_c, 0, 46, 68
2,50319, Note_on_c, 0, 62, 0
2,50327, Note_on_c, 0, 46, 0
2,50411, Note_on_c, 0, 45, 63
2,50457, Note_on_c, 0, 45, 0
2,50547, Note_on_c, 0, 70, 47
2,50548, Note_on_c, 0, 46, 46
2,50579, Note_on_c, 0, 46, 0
2,50604, Note_on_c, 0, 70, 0
2,50666, Note_on_c, 0, 60, 72
2,50668, Note_on_c, 0, 53, 67
2,50699, Note_on_c, 0, 60, 0
2,50701, Note_on_c, 0, 53, 0
2,50783, Note_on_c, 0, 67, 65
2,50836, Note_on_c, 0, 67, 0
2,50917, Note_on_c, 0, 69, 58
2,50960, Note_on_c, 0, 69, 0
2,51036, Note_on_c, 0, 65, 70
2,51037, Note_on_c, 0, 50, 64
2,51066, Note_on_c, 0, 65, 0
2,51077, Note_on_c, 0, 50, 0
2,51160, Note_on_c, 0, 48, 69
2,51208, Note_on_c, 0, 48, 0
2,51305, Note_on_c, 0, 50, 66
2,51306, Note_on_c, 0, 74, 63
2,51335, Note_on_c, 0, 74, 0
2,51348, Note_on_c, 0, 50, 0
2,51430, Note_on_c, 0, 70, 75
2,51451, Note_on_c, 0, 55, 40
2,51477, Note_on_c, 0, 70, 0
2,51482, Note_on_c, 0, 55, 0
2,51558, Note_on_c, 0, 62, 62
2,51597, Note_on_c, 0, 62, 0
2,51679, Note_on_c, 0, 63, 55
2,51699, Note_on_c, 0, 63, 0
2,51812, Note_on_c, 0, 53, 62
2,51818, Note_on_c, 0, 69, 52
2,51852, Note_on_c, 0, 69, 0
2,51856, Note_on_c, 0, 53, 0
2,51939, Note_on_c, 0, 70, 59
2,51951, Note_on_c, 0, 55, 57
2,51986, Note_on_c, 0, 55, 0
2,51987, Note_on_c, 0, 70, 0
2,52066, Note_on_c, 0, 57, 59
2,52067, Note_on_c, 0, 72, 50
2,52090, Note_on_c, 0, 72, 0
2,52095, Note_on_c, 0, 57, 0
2,52194, Note_on_c, 0, 58, 68
2,52194, Note_on_c, 0, 74, 67
2,52266, Note_on_c, 0, 58, 0
2,52305, Note_on_c, 0, 57, 67
2,52314, Note_on_c, 0, 72, 67
2,52334, Note_on_c, 0, 74, 0
2,52351, Note_on_c, 0, 57, 0
2,52361, Note_on_c, 0, 72, 0
2,52429, Note_on_c, 0, 55, 66
2,52442, Note_on_c, 0, 75, 67
2,52464, Note_on_c, 0, 55, 0
2,52478, Note_on_c, 0, 75, 0
2,52558, Note_on_c, 0, 74, 65
2,52566, Note_on_c, 0, 53, 65
2,52596, Note_on_c, 0, 74, 0
2,52600, Note_on_c, 0, 53, 0
2,52697, Note_on_c, 0, 75, 58
2,52699, Note_on_c, 0, 55, 57
2,52725, Note_on_c, 0, 55, 0
2,52743, Note_on_c, 0, 75, 0
2,52825, Note_on_c, 0, 51, 61
2,52829, Note_on_c, 0, 72, 59
2,52864, Note_on_c, 0, 51, 0
2,52866, Note_on_c, 0, 72, 0
2,52951, Note_on_c, 0, 50, 63
2,52973, Note_on_c, 0, 71, 45
2,52993, Note_on_c, 0, 50, 0
2,53015, Note_on_c, 0, 71, 0
2,53078, Note_on_c, 0, 48, 66
2,53121, Note_on_c, 0, 70, 44
2,53122, Note_on_c, 0, 48, 0
2,53200, Note_on_c, 0, 46, 75
2,53232, Note_on_c, 0, 46, 0
2,53334, Note_on_c, 0, 62, 65
2,53346, Note_on_c, 0, 58, 73
2,53387, Note_on_c, 0, 58, 0
2,53388, Note_on_c, 0, 62, 0
2,53475, Note_on_c, 0, 63, 64
2,53482, Note_on_c, 0, 60, 62
2,53517, Note_on_c, 0, 60, 0
2,53530, Note_on_c, 0, 63, 0
2,53605, Note_on_c, 0, 65, 68
2,53606, Note_on_c, 0, 62, 59
2,53646, Note_on_c, 0, 62, 0
2,53649, Note_on_c, 0, 65, 0
2,53724, Note_on_c, 0, 67, 71
2,53725, Note_on_c, 0, 63, 73
2,53793, Note_on_c, 0, 63, 0
2,53826, Note_on_c, 0, 67, 0
2,53846, Note_on_c, 0, 65, 56
2,53855, Note_on_c, 0, 62, 60
2,53886, Note_on_c, 0, 65, 0
2,53894, Note_on_c, 0, 62, 0
2,53909, Note_on_c, 0, 70, 0
2,53974, Note_on_c, 0, 60, 61
2,53976, Note_on_c, 0, 68, 65
2,54001, Note_on_c, 0, 60, 0
2,54029, Note_on_c, 0, 68, 0
2,54101, Note_on_c, 0, 58, 61
2,54107, Note_on_c, 0, 67, 57
2,54149, Note_on_c, 0, 58, 0
2,54159, Note_on_c, 0, 67, 0
2,54233, Note_on_c, 0, 68, 58
2,54234, Note_on_c, 0, 60, 57
2,54268, Note_on_c, 0, 60, 0
2,54281, Note_on_c, 0, 68, 0
2,54353, Note_on_c, 0, 56, 62
2,54357, Note_on_c, 0, 65, 59
2,54393, Note_on_c, 0, 56, 0
2,54402, Note_on_c, 0, 65, 0
2,54481, Note_on_c, 0, 55, 70
2,54483, Note_on_c, 0, 64, 68
2,54517, Note_on_c, 0, 55, 0
2,54530, Note_on_c, 0, 64, 0
2,54604, Note_on_c, 0, 65, 60
2,54655, Note_on_c, 0, 65, 0
2,54720, Note_on_c, 0, 53, 60
2,54731, Note_on_c, 0, 67, 51
2,54755, Note_on_c, 0, 53, 0
2,54768, Note_on_c, 0, 67, 0
2,54851, Note_on_c, 0, 60, 62
2,54853, Note_on_c, 0, 52, 69
2,54881, Note_on_c, 0, 52, 0
2,54903, Note_on_c, 0, 60, 0
2,54972, Note_on_c, 0, 67, 61
2,55019, Note_on_c, 0, 67, 0
2,55097, Note_on_c, 0, 48, 55
2,55101, Note_on_c, 0, 68, 74
2,55131, Note_on_c, 0, 48, 0
2,55150, Note_on_c, 0, 68, 0
2,55237, Note_on_c, 0, 68, 83
2,55238, Note_on_c, 0, 53, 67
2,55294, Note_on_c, 0, 53, 0
2,55363, Note_on_c, 0, 56, 57
2,55394, Note_on_c, 0, 56, 0
2,55483, Note_on_c, 0, 58, 72
2,55518, Note_on_c, 0, 58, 0
2,55592, Note_on_c, 0, 68, 0
2,55623, Note_on_c, 0, 50, 67
2,55631, Note_on_c, 0, 58, 70
2,55750, Note_on_c, 0, 65, 69
2,55801, Note_on_c, 0, 65, 0
2,55850, Note_on_c, 0, 58, 0
2,55878, Note_on_c, 0, 67, 73
2,55917, Note_on_c, 0, 67, 0
2,56014, Note_on_c, 0, 52, 63
2,56014, Note_on_c, 0, 67, 78
2,56047, Note_on_c, 0, 50, 0
2,56055, Note_on_c, 0, 52, 0
2,56130, Note_on_c, 0, 55, 63
2,56169, Note_on_c, 0, 55, 0
2,56261, Note_on_c, 0, 56, 60
2,56300, Note_on_c, 0, 56, 0
2,56364, Note_on_c, 0, 67, 0
2,56395, Note_on_c, 0, 56, 62
2,56398, Note_on_c, 0, 53, 65
2,56511, Note_on_c, 0, 53, 0
2,56526, Note_on_c, 0, 56, 0
2,56532, Note_on_c, 0, 64, 57
2,56572, Note_on_c, 0, 64, 0
2,56653, Note_on_c, 0, 65, 67
2,56694, Note_on_c, 0, 65, 0
2,56784, Note_on_c, 0, 49, 63
2,56793, Note_on_c, 0, 65, 72
2,56841, Note_on_c, 0, 49, 0
2,56922, Note_on_c, 0, 53, 60
2,56962, Note_on_c, 0, 53, 0
2,57037, Note_on_c, 0, 55, 54
2,57078, Note_on_c, 0, 55, 0
2,57157, Note_on_c, 0, 65, 0
2,57180, Note_on_c, 0, 55, 64
2,57196, Note_on_c, 0, 47, 61
2,57318, Note_on_c, 0, 62, 68
2,57360, Note_on_c, 0, 62, 0
2,57389, Note_on_c, 0, 47, 0
2,57418, Note_on_c, 0, 55, 0
2,57454, Note_on_c, 0, 64, 67
2,57492, Note_on_c, 0, 64, 0
2,57578, Note_on_c, 0, 64, 65
2,57588, Note_on_c, 0, 48, 62
2,57710, Note_on_c, 0, 59, 65
2,57753, Note_on_c, 0, 59, 0
2,57838, Note_on_c, 0, 60, 71
2,57948, Note_on_c, 0, 64, 0
2,57961, Note_on_c, 0, 68, 79
2,58098, Note_on_c, 0, 64, 58
2,58181, Note_on_c, 0, 60, 0
2,58217, Note_on_c, 0, 64, 0
2,58234, Note_on_c, 0, 65, 66
2,58332, Note_on_c, 0, 68, 0
2,58357, Note_on_c, 0, 65, 0
2,58361, Note_on_c, 0, 58, 71
2,58484, Note_on_c, 0, 67, 66
2,58521, Note_on_c, 0, 67, 0
2,58608, Note_on_c, 0, 65, 71
2,58665, Note_on_c, 0, 65, 0
2,58693, Note_on_c, 0, 58, 0
2,58737, Note_on_c, 0, 67, 77
2,58881, Note_on_c, 0, 52, 58
2,58916, Note_on_c, 0, 52, 0
2,58999, Note_on_c, 0, 55, 62
2,59041, Note_on_c, 0, 55, 0
2,59132, Note_on_c, 0, 56, 69
2,59135, Note_on_c, 0, 67, 0
2,59252, Note_on_c, 0, 65, 62
2,59285, Note_on_c, 0, 65, 0
2,59374, Note_on_c, 0, 64, 64
2,59412, Note_on_c, 0, 64, 0
2,59507, Note_on_c, 0, 65, 72
2,59566, Note_on_c, 0, 65, 0
2,59626, Note_on_c, 0, 56, 0
2,59647, Note_on_c, 0, 72, 74
2,59706, Note_on_c, 0, 72, 0
2,59767, Note_on_c, 0, 77, 78
2,59827, Note_on_c, 0, 77, 0
2,59908, Note_on_c, 0, 70, 87
2,60042, Note_on_c, 0, 55, 63
2,60082, Note_on_c, 0, 55, 0
2,60166, Note_on_c, 0, 53, 59
2,60197, Note_on_c, 0, 53, 0
2,60282, Note_on_c, 0, 52, 69
2,60325, Note_on_c, 0, 70, 0
2,60336, Note_on_c, 0, 52, 0
2,60422, Note_on_c, 0, 55, 66
2,60426, Note_on_c, 0, 76, 74
2,60478, Note_on_c, 0, 76, 0
2,60484, Note_on_c, 0, 55, 0
2,60550, Note_on_c, 0, 79, 80
2,60552, Note_on_c, 0, 58, 76
2,60600, Note_on_c, 0, 79, 0
2,60631, Note_on_c, 0, 58, 0
2,60687, Note_on_c, 0, 72, 90
2,60810, Note_on_c, 0, 56, 66
2,60858, Note_on_c, 0, 56, 0
2,60934, Note_on_c, 0, 55, 72
2,60974, Note_on_c, 0, 55, 0
2,61021, Note_on_c, 0, 72, 0
2,61061, Note_on_c, 0, 53, 76
2,61116, Note_on_c, 0, 53, 0
2,61188, Note_on_c, 0, 56, 78
2,61192, Note_on_c, 0, 77, 81
2,61237, Note_on_c, 0, 56, 0
2,61248, Note_on_c, 0, 77, 0
2,61314, Note_on_c, 0, 60, 83
2,61314, Note_on_c, 0, 80, 89
2,61370, Note_on_c, 0, 60, 0
2,61374, Note_on_c, 0, 80, 0
2,61446, Note_on_c, 0, 73, 89
2,61500, Note_on_c, 0, 73, 0
2,61575, Note_on_c, 0, 58, 76
2,61636, Note_on_c, 0, 58, 0
2,61693, Note_on_c, 0, 77, 87
2,61698, Note_on_c, 0, 56, 74
2,61753, Note_on_c, 0, 56, 0
2,61756, Note_on_c, 0, 77, 0
2,61826, Note_on_c, 0, 55, 74
2,61834, Note_on_c, 0, 82, 89
2,61895, Note_on_c, 0, 55, 0
2,61899, Note_on_c, 0, 82, 0
2,61948, Note_on_c, 0, 56, 67
2,61987, Note_on_c, 0, 56, 0
2,62067, Note_on_c, 0, 53, 72
2,62067, Note_on_c, 0, 73, 73
2,62112, Note_on_c, 0, 53, 0
2,62125, Note_on_c, 0, 73, 0
2,62150, Note_on_c, 0, 48, 0
2,62198, Note_on_c, 0, 52, 79
2,62204, Note_on_c, 0, 72, 77
2,62242, Note_on_c, 0, 52, 0
2,62274, Note_on_c, 0, 72, 0
2,62320, Note_on_c, 0, 50, 79
2,62369, Note_on_c, 0, 50, 0
2,62451, Note_on_c, 0, 82, 84
2,62459, Note_on_c, 0, 52, 83
2,62510, Note_on_c, 0, 52, 0
2,62524, Note_on_c, 0, 82, 0
2,62588, Note_on_c, 0, 80, 90
2,62596, Note_on_c, 0, 53, 83
2,62642, Note_on_c, 0, 53, 0
2,62667, Note_on_c, 0, 80, 0
2,62718, Note_on_c, 0, 55, 63
2,62770, Note_on_c, 0, 55, 0
2,62818, Note_on_c, 0, 56, 82
2,62831, Note_on_c, 0, 77, 86
2,62846, Note_on_c, 0, 56, 0
2,62893, Note_on_c, 0, 77, 0
2,62958, Note_on_c, 0, 71, 79
2,62965, Note_on_c, 0, 38, 84
2,63017, Note_on_c, 0, 71, 0
2,63096, Note_on_c, 0, 77, 76
2,63158, Note_on_c, 0, 77, 0
2,63228, Note_on_c, 0, 79, 87
2,63285, Note_on_c, 0, 79, 0
2,63328, Note_on_c, 0, 47, 84
2,63343, Note_on_c, 0, 80, 91
2,63416, Note_on_c, 0, 80, 0
2,63465, Note_on_c, 0, 79, 86
2,63524, Note_on_c, 0, 79, 0
2,63570, Note_on_c, 0, 47, 0
2,63588, Note_on_c, 0, 77, 87
2,63591, Note_on_c, 0, 38, 0
2,63638, Note_on_c, 0, 77, 0
2,63717, Note_on_c, 0, 36, 79
2,63717, Note_on_c, 0, 48, 87
2,63809, Note_on_c, 0, 36, 0
2,63837, Note_on_c, 0, 76, 77
2,63840, Note_on_c, 0, 48, 0
2,63885, Note_on_c, 0, 76, 0
2,63959, Note_on_c, 0, 50, 78
2,63959, Note_on_c, 0, 73, 86
2,64003, Note_on_c, 0, 50, 0
2,64023, Note_on_c, 0, 73, 0
2,64092, Note_on_c, 0, 52, 87
2,64221, Note_on_c, 0, 72, 77
2,64267, Note_on_c, 0, 72, 0
2,64321, Note_on_c, 0, 52, 0
2,64344, Note_on_c, 0, 48, 77
2,64344, Note_on_c, 0, 70, 89
2,64405, Note_on_c, 0, 70, 0
2,64487, Note_on_c, 0, 53, 81
2,64608, Note_on_c, 0, 68, 76
2,64653, Note_on_c, 0, 68, 0
2,64686, Note_on_c, 0, 53, 0
2,64723, Note_on_c, 0, 67, 85
2,64729, Note_on_c, 0, 55, 68
2,64762, Note_on_c, 0, 55, 0
2,64771, Note_on_c, 0, 67, 0
2,64853, Note_on_c, 0, 65, 81
2,64854, Note_on_c, 0, 56, 73
2,64905, Note_on_c, 0, 65, 0
2,64931, Note_on_c, 0, 56, 0
2,64979, Note_on_c, 0, 64, 78
2,64983, Note_on_c, 0, 60, 73
2,65033, Note_on_c, 0, 64, 0
2,65046, Note_on_c, 0, 60, 0
2,65091, Note_on_c, 0, 48, 0
2,65104, Note_on_c, 0, 65, 84
2,65109, Note_on_c, 0, 59, 71
2,65172, Note_on_c, 0, 59, 0
2,65185, Note_on_c, 0, 65, 0
2,65237, Note_on_c, 0, 60, 88
2,65238, Note_on_c, 0, 55, 81
2,65238, Note_on_c, 0, 72, 90
2,65250, Note_on_c, 0, 48, 70
2,65282, Note_on_c, 0, 60, 0
2,65293, Note_on_c, 0, 55, 0
2,65319, Note_on_c, 0, 48, 0
2,65332, Note_on_c, 0, 72, 0
2,65373, Note_on_c, 0, 62, 71
2,65432, Note_on_c, 0, 62, 0
2,65484, Note_on_c, 0, 64, 74
2,65536, Note_on_c, 0, 64, 0
2,65618, Note_on_c, 0, 48, 82
2,65618, Note_on_c, 0, 53, 87
2,65619, Note_on_c, 0, 63, 91
2,65620, Note_on_c, 0, 69, 85
2,65626, Note_on_c, 0, 60, 84
2,65659, Note_on_c, 0, 53, 0
2,65671, Note_on_c, 0, 60, 0
2,65691, Note_on_c, 0, 63, 0
2,65692, Note_on_c, 0, 48, 0
2,65705, Note_on_c, 0, 69, 0
2,65764, Note_on_c, 0, 67, 65
2,65814, Note_on_c, 0, 67, 0
2,65867, Note_on_c, 0, 69, 70
2,65905, Note_on_c, 0, 69, 0
2,66005, Control_c, 0, 64, 43
2,66010, Note_on_c, 0, 61, 79
2,66014, Note_on_c, 0, 73, 97
2,66015, Note_on_c, 0, 65, 76
2,66018, Control_c, 0, 64, 67
2,66020, Note_on_c, 0, 46, 89
2,66030, Note_on_c, 0, 70, 72
2,66034, Control_c, 0, 64, 73
2,66037, Note_on_c, 0, 61, 0
2,66040, Note_on_c, 0, 74, 79
2,66047, Note_on_c, 0, 65, 0
2,66049, Control_c, 0, 64, 77
2,66058, Note_on_c, 0, 70, 0
2,66072, Note_on_c, 0, 74, 0
2,66079, Control_c, 0, 64, 76
2,66091, Note_on_c, 0, 73, 0
2,66094, Control_c, 0, 64, 71
2,66108, Control_c, 0, 64, 58
2,66112, Note_on_c, 0, 46, 0
2,66124, Control_c, 0, 64, 0
2,66148, Note_on_c, 0, 49, 67
2,66219, Note_on_c, 0, 49, 0
2,66254, Note_on_c, 0, 53, 64
2,66346, Note_on_c, 0, 53, 0
2,66394, Note_on_c, 0, 58, 62
2,66407, Note_on_c, 0, 72, 72
2,66421, Note_on_c, 0, 58, 0
2,66455, Note_on_c, 0, 72, 0
2,66537, Note_on_c, 0, 74, 65
2,66540, Note_on_c, 0, 57, 63
2,66576, Note_on_c, 0, 57, 0
2,66576, Note_on_c, 0, 74, 0
2,66662, Note_on_c, 0, 55, 70
2,66663, Note_on_c, 0, 76, 67
2,66703, Note_on_c, 0, 55, 0
2,66705, Note_on_c, 0, 76, 0
2,66781, Note_on_c, 0, 77, 73
2,66784, Note_on_c, 0, 57, 69
2,66815, Note_on_c, 0, 57, 0
2,66845, Note_on_c, 0, 77, 0
2,66898, Note_on_c, 0, 76, 71
2,66928, Note_on_c, 0, 76, 0
2,67030, Note_on_c, 0, 58, 67
2,67031, Note_on_c, 0, 70, 73
2,67032, Note_on_c, 0, 74, 61
2,67062, Note_on_c, 0, 58, 0
2,67075, Note_on_c, 0, 74, 0
2,67076, Note_on_c, 0, 70, 0
2,67159, Note_on_c, 0, 60, 69
2,67159, Note_on_c, 0, 72, 72
2,67166, Note_on_c, 0, 69, 62
2,67197, Note_on_c, 0, 69, 0
2,67212, Note_on_c, 0, 60, 0
2,67215, Note_on_c, 0, 72, 0
2,67286, Note_on_c, 0, 74, 52
2,67318, Note_on_c, 0, 74, 0
2,67404, Note_on_c, 0, 48, 60
2,67405, Note_on_c, 0, 70, 69
2,67412, Note_on_c, 0, 67, 55
2,67439, Note_on_c, 0, 67, 0
2,67447, Note_on_c, 0, 70, 0
2,67450, Note_on_c, 0, 48, 0
2,67539, Note_on_c, 0, 69, 79
2,67541, Note_on_c, 0, 65, 66
2,67542, Note_on_c, 0, 53, 76
2,67568, Note_on_c, 0, 53, 0
2,67570, Note_on_c, 0, 65, 0
2,67594, Note_on_c, 0, 69, 0
2,67661, Note_on_c, 0, 65, 66
2,67713, Note_on_c, 0, 67, 69
2,67725, Note_on_c, 0, 65, 0
2,67762, Note_on_c, 0, 69, 75
2,67795, Note_on_c, 0, 67, 0
2,67815, Note_on_c, 0, 70, 72
2,67872, Note_on_c, 0, 69, 0
2,67874, Note_on_c, 0, 72, 95
2,67892, Note_on_c, 0, 41, 56
2,67903, Note_on_c, 0, 43, 49
2,67906, Note_on_c, 0, 70, 0
2,67921, Note_on_c, 0, 41, 0
2,67935, Note_on_c, 0, 43, 0
2,68019, Note_on_c, 0, 40, 78
2,68020, Note_on_c, 0, 69, 77
2,68072, Note_on_c, 0, 40, 0
2,68105, Note_on_c, 0, 69, 0
2,68152, Note_on_c, 0, 41, 84
2,68157, Note_on_c, 0, 63, 78
2,68192, Note_on_c, 0, 63, 0
2,68202, Note_on_c, 0, 41, 0
2,68280, Note_on_c, 0, 46, 93
2,68285, Note_on_c, 0, 63, 89
2,68314, Note_on_c, 0, 46, 0
2,68337, Note_on_c, 0, 63, 0
2,68356, Note_on_c, 0, 72, 0
2,68431, Note_on_c, 0, 62, 66
2,68482, Note_on_c, 0, 65, 68
2,68502, Note_on_c, 0, 62, 0
2,68513, Note_on_c, 0, 67, 64
2,68588, Note_on_c, 0, 69, 66
2,68611, Note_on_c, 0, 65, 0
2,68647, Note_on_c, 0, 43, 80
2,68651, Note_on_c, 0, 70, 90
2,68665, Note_on_c, 0, 67, 0
2,68681, Note_on_c, 0, 69, 0
2,68684, Note_on_c, 0, 43, 0
2,68794, Note_on_c, 0, 41, 86
2,68796, Note_on_c, 0, 62, 70
2,68840, Note_on_c, 0, 62, 0
2,68848, Note_on_c, 0, 41, 0
2,68926, Note_on_c, 0, 65, 77
2,68927, Note_on_c, 0, 43, 82
2,68980, Note_on_c, 0, 43, 0
2,68993, Note_on_c, 0, 65, 0
2,69056, Note_on_c, 0, 48, 86
2,69056, Note_on_c, 0, 65, 77
2,69093, Note_on_c, 0, 48, 0
2,69130, Note_on_c, 0, 65, 0
2,69197, Note_on_c, 0, 70, 0
2,69200, Note_on_c, 0, 64, 64
2,69258, Note_on_c, 0, 67, 79
2,69262, Note_on_c, 0, 64, 0
2,69321, Note_on_c, 0, 69, 73
2,69361, Note_on_c, 0, 67, 0
2,69373, Note_on_c, 0, 70, 72
2,69408, Note_on_c, 0, 69, 0
2,69411, Note_on_c, 0, 45, 78
2,69430, Note_on_c, 0, 72, 86
2,69449, Note_on_c, 0, 45, 0
2,69459, Note_on_c, 0, 70, 0
2,69560, Note_on_c, 0, 43, 77
2,69573, Note_on_c, 0, 64, 64
2,69609, Note_on_c, 0, 43, 0
2,69624, Note_on_c, 0, 64, 0
2,69688, Note_on_c, 0, 45, 88
2,69689, Note_on_c, 0, 67, 81
2,69735, Note_on_c, 0, 45, 0
2,69745, Note_on_c, 0, 67, 0
2,69819, Note_on_c, 0, 67, 88
2,69821, Note_on_c, 0, 50, 83
2,69872, Note_on_c, 0, 50, 0
2,69888, Note_on_c, 0, 67, 0
2,69936, Note_on_c, 0, 65, 70
2,69942, Note_on_c, 0, 72, 0
2,70004, Note_on_c, 0, 65, 0
2,70006, Note_on_c, 0, 69, 78
2,70064, Note_on_c, 0, 70, 76
2,70114, Note_on_c, 0, 69, 0
2,70137, Note_on_c, 0, 72, 66
2,70156, Note_on_c, 0, 70, 0
2,70178, Note_on_c, 0, 46, 81
2,70183, Note_on_c, 0, 72, 0
2,70187, Note_on_c, 0, 74, 77
2,70234, Note_on_c, 0, 46, 0
2,70257, Note_on_c, 0, 72, 69
2,70310, Note_on_c, 0, 74, 0
2,70316, Note_on_c, 0, 45, 76
2,70350, Note_on_c, 0, 71, 52
2,70359, Note_on_c, 0, 72, 0
2,70367, Note_on_c, 0, 45, 0
2,70373, Note_on_c, 0, 70, 30
2,70392, Note_on_c, 0, 69, 75
2,70394, Note_on_c, 0, 70, 0
2,70397, Note_on_c, 0, 71, 0
2,70428, Note_on_c, 0, 46, 79
2,70447, Note_on_c, 0, 69, 0
2,70452, Note_on_c, 0, 67, 78
2,70496, Note_on_c, 0, 46, 0
2,70515, Note_on_c, 0, 67, 0
2,70527, Note_on_c, 0, 65, 54
2,70555, Note_on_c, 0, 67, 44
2,70556, Note_on_c, 0, 65, 0
2,70558, Note_on_c, 0, 52, 80
2,70596, Control_c, 0, 64, 57
2,70597, Note_on_c, 0, 67, 0
2,70610, Control_c, 0, 64, 64
2,70613, Note_on_c, 0, 70, 77
2,70624, Note_on_c, 0, 52, 0
2,70625, Control_c, 0, 64, 68
2,70636, Note_on_c, 0, 70, 0
2,70641, Control_c, 0, 64, 71
2,70656, Control_c, 0, 64, 74
2,70672, Control_c, 0, 64, 75
2,70683, Note_on_c, 0, 72, 87
2,70701, Control_c, 0, 64, 74
2,70717, Control_c, 0, 64, 73
2,70732, Control_c, 0, 64, 69
2,70742, Note_on_c, 0, 72, 0
2,70745, Note_on_c, 0, 74, 73
2,70747, Control_c, 0, 64, 64
2,70762, Control_c, 0, 64, 27
2,70777, Control_c, 0, 64, 0
2,70786, Note_on_c, 0, 76, 70
2,70818, Note_on_c, 0, 74, 0
2,70822, Note_on_c, 0, 77, 71
2,70866, Note_on_c, 0, 76, 0
2,70891, Note_on_c, 0, 77, 0
2,70891, Note_on_c, 0, 79, 84
2,70894, Note_on_c, 0, 48, 82
2,70948, Note_on_c, 0, 48, 0
2,70961, Note_on_c, 0, 77, 68
2,70998, Note_on_c, 0, 79, 0
2,71000, Note_on_c, 0, 76, 75
2,71018, Note_on_c, 0, 50, 76
2,71057, Note_on_c, 0, 77, 0
2,71071, Note_on_c, 0, 50, 0
2,71081, Note_on_c, 0, 76, 0
2,71086, Note_on_c, 0, 74, 67
2,71125, Note_on_c, 0, 72, 76
2,71128, Note_on_c, 0, 74, 0
2,71144, Note_on_c, 0, 52, 76
2,71200, Note_on_c, 0, 70, 68
2,71200, Note_on_c, 0, 72, 0
2,71204, Note_on_c, 0, 52, 0
2,71250, Note_on_c, 0, 69, 76
2,71254, Note_on_c, 0, 53, 71
2,71254, Note_on_c, 0, 70, 0
2,71291, Note_on_c, 0, 69, 0
2,71297, Note_on_c, 0, 53, 0
2,71395, Note_on_c, 0, 72, 67
2,71398, Note_on_c, 0, 52, 54
2,71425, Note_on_c, 0, 52, 0
2,71453, Note_on_c, 0, 72, 0
2,71512, Note_on_c, 0, 50, 61
2,71516, Note_on_c, 0, 70, 76
2,71553, Note_on_c, 0, 50, 0
2,71612, Note_on_c, 0, 70, 0
2,71652, Note_on_c, 0, 72, 75
2,71654, Note_on_c, 0, 48, 56
2,71687, Note_on_c, 0, 48, 0
2,71774, Note_on_c, 0, 50, 61
2,71816, Note_on_c, 0, 50, 0
2,71922, Note_on_c, 0, 64, 64
2,71940, Note_on_c, 0, 46, 36
2,71941, Note_on_c, 0, 46, 0
2,71957, Note_on_c, 0, 64, 0
2,72052, Note_on_c, 0, 45, 62
2,72056, Note_on_c, 0, 65, 75
2,72092, Note_on_c, 0, 72, 0
2,72096, Note_on_c, 0, 45, 0
2,72120, Note_on_c, 0, 65, 0
2,72177, Note_on_c, 0, 46, 65
2,72220, Note_on_c, 0, 46, 0
2,72300, Note_on_c, 0, 74, 70
2,72301, Note_on_c, 0, 43, 65
2,72339, Note_on_c, 0, 43, 0
2,72357, Note_on_c, 0, 74, 0
2,72438, Note_on_c, 0, 75, 75
2,72442, Note_on_c, 0, 69, 65
2,72446, Note_on_c, 0, 41, 63
2,72490, Note_on_c, 0, 41, 0
2,72499, Note_on_c, 0, 69, 0
2,72579, Note_on_c, 0, 70, 73
2,72587, Note_on_c, 0, 43, 61
2,72638, Note_on_c, 0, 43, 0
2,72639, Note_on_c, 0, 75, 0
2,72704, Note_on_c, 0, 45, 66
2,72706, Note_on_c, 0, 72, 73
2,72780, Note_on_c, 0, 45, 0
2,72788, Note_on_c, 0, 70, 0
2,72850, Note_on_c, 0, 46, 75
2,72850, Note_on_c, 0, 74, 89
2,72883, Note_on_c, 0, 72, 0
2,72915, Note_on_c, 0, 46, 0
2,72972, Note_on_c, 0, 48, 62
2,73011, Note_on_c, 0, 48, 0
2,73110, Note_on_c, 0, 45, 75
2,73120, Note_on_c, 0, 65, 76
2,73151, Note_on_c, 0, 45, 0
2,73200, Note_on_c, 0, 65, 0
2,73248, Note_on_c, 0, 74, 0
2,73249, Note_on_c, 0, 43, 74
2,73265, Note_on_c, 0, 70, 52
2,73266, Note_on_c, 0, 69, 87
2,73296, Note_on_c, 0, 70, 0
2,73300, Note_on_c, 0, 43, 0
2,73351, Note_on_c, 0, 69, 0
2,73388, Note_on_c, 0, 45, 72
2,73495, Note_on_c, 0, 45, 0
2,73524, Note_on_c, 0, 79, 84
2,73536, Note_on_c, 0, 46, 71
2,73577, Note_on_c, 0, 46, 0
2,73636, Note_on_c, 0, 79, 0
2,73663, Note_on_c, 0, 76, 84
2,73670, Note_on_c, 0, 48, 77
2,73716, Note_on_c, 0, 48, 0
2,73800, Note_on_c, 0, 50, 51
2,73876, Note_on_c, 0, 50, 0
2,73923, Note_on_c, 0, 67, 82
2,73931, Note_on_c, 0, 46, 76
2,73971, Note_on_c, 0, 46, 0
2,73980, Note_on_c, 0, 67, 0
2,74055, Note_on_c, 0, 45, 75
2,74061, Note_on_c, 0, 72, 93
2,74071, Note_on_c, 0, 76, 0
2,74105, Note_on_c, 0, 45, 0
2,74191, Note_on_c, 0, 46, 73
2,74242, Note_on_c, 0, 46, 0
2,74319, Note_on_c, 0, 81, 90
2,74324, Note_on_c, 0, 48, 79
2,74341, Note_on_c, 0, 72, 0
2,74372, Note_on_c, 0, 48, 0
2,74379, Note_on_c, 0, 81, 0
2,74461, Note_on_c, 0, 50, 79
2,74463, Note_on_c, 0, 77, 77
2,74515, Note_on_c, 0, 50, 0
2,74518, Note_on_c, 0, 77, 0
2,74601, Note_on_c, 0, 69, 83
2,74605, Note_on_c, 0, 48, 80
2,74648, Note_on_c, 0, 48, 0
2,74656, Note_on_c, 0, 69, 0
2,74755, Note_on_c, 0, 74, 84
2,74762, Note_on_c, 0, 46, 81
2,74762, Note_on_c, 0, 70, 82
2,74801, Note_on_c, 0, 46, 0
2,74809, Note_on_c, 0, 74, 0
2,74810, Note_on_c, 0, 70, 0
2,74930, Note_on_c, 0, 48, 86
2,74930, Note_on_c, 0, 69, 90
2,74933, Note_on_c, 0, 65, 89
2,75106, Note_on_c, 0, 70, 91
2,75112, Note_on_c, 0, 65, 0
2,75117, Note_on_c, 0, 69, 0
2,75125, Note_on_c, 0, 48, 0
2,75165, Note_on_c, 0, 70, 0
2,75321, Note_on_c, 0, 64, 84
2,75321, Note_on_c, 0, 67, 93
2,75322, Note_on_c, 0, 36, 74
2,75367, Note_on_c, 0, 36, 0
2,75367, Note_on_c, 0, 64, 0
2,75369, Note_on_c, 0, 67, 0
2,75604, Note_on_c, 0, 65, 73
2,75608, Note_on_c, 0, 41, 73
2,75659, Note_on_c, 0, 64, 76
2,75660, Note_on_c, 0, 65, 0
2,75705, Note_on_c, 0, 65, 76
2,75731, Note_on_c, 0, 64, 0
2,76224, Control_c, 0, 64, 41
2,76239, Control_c, 0, 64, 53
2,76255, Control_c, 0, 64, 60
2,76270, Control_c, 0, 64, 63
2,76287, Control_c, 0, 64, 65
2,76302, Control_c, 0, 64, 67
2,76316, Control_c, 0, 64, 70
2,76323, Control_c, 0, 64, 73
2,76338, Control_c, 0, 64, 76
2,76353, Control_c, 0, 64, 78
2,76368, Control_c, 0, 64, 79
2,76399, Control_c, 0, 64, 80
2,76421, Note_on_c, 0, 65, 0
2,76441, Note_on_c, 0, 41, 0
2,76686, Control_c, 0, 64, 79
2,76702, Control_c, 0, 64, 78
2,76717, Control_c, 0, 64, 75
2,76727, Control_c, 0, 64, 67
2,76739, Control_c, 0, 64, 48
2,76753, Control_c, 0, 64, 0
2,76754, End_track
0, 0, End_of_file
