0, 0, Header, 1, 2, 384
1, 0, Start_track
1, 0, Tempo, 500000
1, 0, Time_signature, 4, 2, 24, 8
1, 1, End_track
2, 0, Start_track
2, 0, Title_t," ""WangA04-07.MID"""
2, 0, Program_c, 0, 0
2, 835, Note_on_c, 0, 41, 48
2, 985, Note_on_c, 0, 76, 54
2, 1124, Note_on_c, 0, 77, 67
2, 1157, Note_on_c, 0, 76, 0
2, 1260, Note_on_c, 0, 79, 70
2, 1286, Note_on_c, 0, 77, 0
2, 1405, Note_on_c, 0, 41, 0
2, 1423, Note_on_c, 0, 77, 68
2, 1434, Note_on_c, 0, 53, 57
2, 1453, Note_on_c, 0, 79, 0
2, 1558, Note_on_c, 0, 76, 70
2, 1640, Note_on_c, 0, 77, 0
2, 1698, Note_on_c, 0, 74, 69
2, 1710, Note_on_c, 0, 76, 0
2, 1828, Note_on_c, 0, 72, 68
2, 1829, Note_on_c, 0, 74, 0
2, 1959, Note_on_c, 0, 72, 0
2, 1973, Note_on_c, 0, 57, 54
2, 1973, Note_on_c, 0, 74, 65
2, 2115, Note_on_c, 0, 72, 64
2, 2189, Note_on_c, 0, 74, 0
2, 2261, Note_on_c, 0, 70, 67
2, 2277, Note_on_c, 0, 72, 0
2, 2388, Note_on_c, 0, 70, 0
2, 2393, Note_on_c, 0, 69, 67
2, 2518, Note_on_c, 0, 69, 0
2, 2527, Note_on_c, 0, 70, 67
2, 2548, Note_on_c, 0, 62, 47
2, 2649, Note_on_c, 0, 57, 0
2, 2670, Note_on_c, 0, 69, 59
2, 2810, Note_on_c, 0, 69, 0
2, 2827, Note_on_c, 0, 67, 56
2, 2976, Note_on_c, 0, 65, 56
2, 2980, Note_on_c, 0, 67, 0
2, 3094, Note_on_c, 0, 65, 0
2, 3124, Note_on_c, 0, 58, 47
2, 3127, Note_on_c, 0, 62, 0
2, 3128, Note_on_c, 0, 67, 52
2, 3283, Note_on_c, 0, 65, 50
2, 3390, Note_on_c, 0, 65, 0
2, 3408, Note_on_c, 0, 64, 54
2, 3539, Note_on_c, 0, 64, 0
2, 3560, Note_on_c, 0, 62, 51
2, 3673, Note_on_c, 0, 58, 0
2, 3706, Note_on_c, 0, 64, 40
2, 3720, Note_on_c, 0, 62, 0
2, 3723, Note_on_c, 0, 55, 36
2, 3849, Note_on_c, 0, 58, 51
2, 3884, Note_on_c, 0, 55, 0
2, 4003, Note_on_c, 0, 60, 61
2, 4011, Note_on_c, 0, 58, 0
2, 4017, Note_on_c, 0, 70, 0
2, 4132, Note_on_c, 0, 62, 66
2, 4140, Note_on_c, 0, 60, 0
2, 4182, Note_on_c, 0, 64, 0
2, 4229, Note_on_c, 0, 67, 0
2, 4276, Note_on_c, 0, 60, 69
2, 4286, Note_on_c, 0, 62, 0
2, 4366, Note_on_c, 0, 53, 0
2, 4408, Note_on_c, 0, 58, 69
2, 4424, Note_on_c, 0, 60, 0
2, 4561, Note_on_c, 0, 58, 0
2, 4562, Note_on_c, 0, 57, 74
2, 4696, Note_on_c, 0, 57, 0
2, 4701, Note_on_c, 0, 55, 69
2, 4840, Note_on_c, 0, 55, 0
2, 4850, Note_on_c, 0, 57, 64
2, 4853, Note_on_c, 0, 69, 79
2, 4869, Note_on_c, 0, 60, 55
2, 4869, Note_on_c, 0, 65, 55
2, 4982, Note_on_c, 0, 55, 64
2, 5127, Note_on_c, 0, 53, 65
2, 5138, Note_on_c, 0, 57, 0
2, 5153, Note_on_c, 0, 55, 0
2, 5191, Note_on_c, 0, 60, 0
2, 5274, Note_on_c, 0, 53, 0
2, 5275, Note_on_c, 0, 52, 69
2, 5405, Note_on_c, 0, 52, 0
2, 5425, Note_on_c, 0, 53, 67
2, 5430, Note_on_c, 0, 68, 72
2, 5443, Note_on_c, 0, 62, 54
2, 5486, Note_on_c, 0, 69, 0
2, 5569, Note_on_c, 0, 50, 61
2, 5717, Note_on_c, 0, 50, 0
2, 5731, Note_on_c, 0, 48, 62
2, 5775, Note_on_c, 0, 62, 0
2, 5785, Note_on_c, 0, 65, 0
2, 5870, Note_on_c, 0, 47, 60
2, 5872, Note_on_c, 0, 48, 0
2, 5900, Note_on_c, 0, 53, 0
2, 6029, Note_on_c, 0, 68, 0
2, 6033, Note_on_c, 0, 48, 59
2, 6039, Note_on_c, 0, 65, 59
2, 6041, Note_on_c, 0, 47, 0
2, 6057, Note_on_c, 0, 60, 37
2, 6179, Note_on_c, 0, 68, 69
2, 6181, Note_on_c, 0, 53, 62
2, 6181, Note_on_c, 0, 65, 0
2, 6298, Note_on_c, 0, 60, 0
2, 6303, Note_on_c, 0, 53, 0
2, 6319, Note_on_c, 0, 68, 0
2, 6327, Note_on_c, 0, 67, 60
2, 6328, Note_on_c, 0, 52, 62
2, 6457, Note_on_c, 0, 52, 0
2, 6460, Note_on_c, 0, 67, 0
2, 6468, Note_on_c, 0, 65, 62
2, 6473, Note_on_c, 0, 50, 53
2, 6607, Note_on_c, 0, 50, 0
2, 6609, Note_on_c, 0, 65, 0
2, 6609, Note_on_c, 0, 67, 62
2, 6624, Note_on_c, 0, 52, 50
2, 6779, Note_on_c, 0, 65, 44
2, 6914, Note_on_c, 0, 65, 0
2, 6916, Note_on_c, 0, 55, 43
2, 6930, Note_on_c, 0, 64, 52
2, 6990, Note_on_c, 0, 52, 0
2, 7045, Note_on_c, 0, 64, 0
2, 7071, Note_on_c, 0, 62, 49
2, 7205, Note_on_c, 0, 62, 0
2, 7218, Note_on_c, 0, 64, 50
2, 7220, Note_on_c, 0, 67, 0
2, 7223, Note_on_c, 0, 55, 0
2, 7239, Note_on_c, 0, 60, 46
2, 7252, Note_on_c, 0, 48, 0
2, 7367, Note_on_c, 0, 50, 49
2, 7473, Note_on_c, 0, 50, 0
2, 7504, Note_on_c, 0, 48, 56
2, 7510, Note_on_c, 0, 55, 48
2, 7615, Note_on_c, 0, 60, 0
2, 7640, Note_on_c, 0, 48, 0
2, 7654, Note_on_c, 0, 46, 62
2, 7662, Note_on_c, 0, 64, 0
2, 7774, Note_on_c, 0, 55, 0
2, 7784, Note_on_c, 0, 46, 0
2, 7801, Note_on_c, 0, 45, 59
2, 7956, Note_on_c, 0, 60, 49
2, 8082, Note_on_c, 0, 45, 0
2, 8097, Note_on_c, 0, 60, 0
2, 8100, Note_on_c, 0, 55, 45
2, 8109, Note_on_c, 0, 62, 56
2, 8240, Note_on_c, 0, 63, 67
2, 8257, Note_on_c, 0, 62, 0
2, 8379, Note_on_c, 0, 55, 0
2, 8394, Note_on_c, 0, 50, 51
2, 8396, Note_on_c, 0, 54, 54
2, 8397, Note_on_c, 0, 62, 70
2, 8397, Note_on_c, 0, 63, 0
2, 8536, Note_on_c, 0, 64, 64
2, 8671, Note_on_c, 0, 66, 71
2, 8684, Note_on_c, 0, 58, 62
2, 8699, Note_on_c, 0, 64, 0
2, 8812, Note_on_c, 0, 67, 73
2, 8831, Note_on_c, 0, 66, 0
2, 8916, Note_on_c, 0, 54, 0
2, 8968, Note_on_c, 0, 57, 62
2, 8968, Note_on_c, 0, 66, 73
2, 8979, Note_on_c, 0, 67, 0
2, 8981, Note_on_c, 0, 58, 0
2, 9115, Note_on_c, 0, 69, 70
2, 9205, Note_on_c, 0, 50, 0
2, 9264, Note_on_c, 0, 70, 75
2, 9323, Note_on_c, 0, 69, 0
2, 9411, Note_on_c, 0, 72, 75
2, 9488, Note_on_c, 0, 70, 0
2, 9554, Note_on_c, 0, 43, 57
2, 9665, Note_on_c, 0, 57, 0
2, 9691, Note_on_c, 0, 66, 0
2, 9713, Note_on_c, 0, 69, 60
2, 9854, Note_on_c, 0, 69, 0
2, 9860, Note_on_c, 0, 50, 49
2, 9871, Note_on_c, 0, 67, 57
2, 9927, Note_on_c, 0, 72, 0
2, 10008, Note_on_c, 0, 66, 63
2, 10034, Note_on_c, 0, 67, 0
2, 10157, Note_on_c, 0, 46, 55
2, 10157, Note_on_c, 0, 67, 65
2, 10163, Note_on_c, 0, 43, 0
2, 10166, Note_on_c, 0, 50, 0
2, 10219, Note_on_c, 0, 62, 0
2, 10282, Note_on_c, 0, 66, 0
2, 10299, Note_on_c, 0, 69, 63
2, 10320, Note_on_c, 0, 67, 0
2, 10431, Note_on_c, 0, 70, 61
2, 10441, Note_on_c, 0, 55, 50
2, 10450, Note_on_c, 0, 46, 0
2, 10461, Note_on_c, 0, 69, 0
2, 10575, Note_on_c, 0, 67, 52
2, 10680, Note_on_c, 0, 67, 0
2, 10732, Note_on_c, 0, 62, 50
2, 10733, Note_on_c, 0, 43, 42
2, 10734, Note_on_c, 0, 55, 0
2, 10854, Note_on_c, 0, 62, 0
2, 10877, Note_on_c, 0, 65, 45
2, 10988, Note_on_c, 0, 43, 0
2, 11019, Note_on_c, 0, 55, 47
2, 11053, Note_on_c, 0, 64, 43
2, 11116, Note_on_c, 0, 65, 0
2, 11164, Note_on_c, 0, 62, 48
2, 11174, Note_on_c, 0, 64, 0
2, 11308, Note_on_c, 0, 48, 46
2, 11317, Note_on_c, 0, 55, 0
2, 11320, Note_on_c, 0, 62, 0
2, 11327, Note_on_c, 0, 64, 53
2, 11469, Note_on_c, 0, 58, 57
2, 11612, Note_on_c, 0, 60, 56
2, 11626, Note_on_c, 0, 70, 0
2, 11718, Note_on_c, 0, 58, 0
2, 11733, Note_on_c, 0, 64, 0
2, 11737, Note_on_c, 0, 61, 68
2, 11759, Note_on_c, 0, 60, 0
2, 11795, Note_on_c, 0, 48, 0
2, 11902, Note_on_c, 0, 61, 0
2, 11905, Note_on_c, 0, 60, 56
2, 11913, Note_on_c, 0, 52, 56
2, 12053, Note_on_c, 0, 62, 60
2, 12208, Note_on_c, 0, 64, 64
2, 12209, Note_on_c, 0, 62, 0
2, 12335, Note_on_c, 0, 65, 74
2, 12349, Note_on_c, 0, 64, 0
2, 12477, Note_on_c, 0, 52, 0
2, 12479, Note_on_c, 0, 65, 0
2, 12486, Note_on_c, 0, 48, 59
2, 12491, Note_on_c, 0, 64, 74
2, 12633, Note_on_c, 0, 67, 70
2, 12770, Note_on_c, 0, 69, 70
2, 12807, Note_on_c, 0, 67, 0
2, 12912, Note_on_c, 0, 70, 71
2, 12950, Note_on_c, 0, 69, 0
2, 13027, Note_on_c, 0, 48, 0
2, 13073, Note_on_c, 0, 53, 53
2, 13137, Note_on_c, 0, 64, 0
2, 13229, Note_on_c, 0, 67, 48
2, 13376, Note_on_c, 0, 67, 0
2, 13387, Note_on_c, 0, 65, 48
2, 13409, Note_on_c, 0, 60, 0
2, 13532, Note_on_c, 0, 64, 48
2, 13535, Note_on_c, 0, 65, 0
2, 13687, Note_on_c, 0, 65, 52
2, 13689, Note_on_c, 0, 57, 43
2, 13828, Note_on_c, 0, 67, 52
2, 13833, Note_on_c, 0, 65, 0
2, 13864, Note_on_c, 0, 64, 0
2, 13919, Note_on_c, 0, 70, 0
2, 13982, Note_on_c, 0, 69, 54
2, 14031, Note_on_c, 0, 67, 0
2, 14136, Note_on_c, 0, 65, 49
2, 14278, Note_on_c, 0, 60, 54
2, 14370, Note_on_c, 0, 53, 0
2, 14389, Note_on_c, 0, 57, 0
2, 14416, Note_on_c, 0, 63, 55
2, 14418, Note_on_c, 0, 65, 0
2, 14420, Note_on_c, 0, 60, 0
2, 14573, Note_on_c, 0, 62, 56
2, 14625, Note_on_c, 0, 63, 0
2, 14667, Note_on_c, 0, 69, 0
2, 14683, Note_on_c, 0, 62, 0
2, 14704, Note_on_c, 0, 60, 57
2, 14849, Note_on_c, 0, 60, 0
2, 14858, Note_on_c, 0, 62, 55
2, 14861, Note_on_c, 0, 58, 57
2, 14993, Note_on_c, 0, 72, 59
2, 15134, Note_on_c, 0, 57, 59
2, 15139, Note_on_c, 0, 58, 0
2, 15149, Note_on_c, 0, 74, 65
2, 15181, Note_on_c, 0, 72, 0
2, 15203, Note_on_c, 0, 62, 0
2, 15299, Note_on_c, 0, 75, 70
2, 15328, Note_on_c, 0, 74, 0
2, 15444, Note_on_c, 0, 58, 65
2, 15449, Note_on_c, 0, 74, 75
2, 15471, Note_on_c, 0, 75, 0
2, 15489, Note_on_c, 0, 57, 0
2, 15578, Note_on_c, 0, 72, 74
2, 15596, Note_on_c, 0, 74, 0
2, 15729, Note_on_c, 0, 62, 56
2, 15730, Note_on_c, 0, 70, 65
2, 15734, Note_on_c, 0, 67, 59
2, 15796, Note_on_c, 0, 72, 0
2, 15834, Note_on_c, 0, 70, 0
2, 15850, Note_on_c, 0, 69, 66
2, 16012, Note_on_c, 0, 70, 70
2, 16022, Note_on_c, 0, 69, 0
2, 16077, Note_on_c, 0, 67, 0
2, 16168, Note_on_c, 0, 69, 65
2, 16314, Note_on_c, 0, 69, 0
2, 16319, Note_on_c, 0, 67, 69
2, 16460, Note_on_c, 0, 65, 69
2, 16460, Note_on_c, 0, 67, 0
2, 16612, Note_on_c, 0, 76, 80
2, 16616, Note_on_c, 0, 70, 0
2, 16619, Note_on_c, 0, 65, 0
2, 16621, Note_on_c, 0, 67, 68
2, 16623, Note_on_c, 0, 72, 59
2, 16629, Note_on_c, 0, 62, 0
2, 16633, Note_on_c, 0, 58, 0
2, 16770, Note_on_c, 0, 58, 67
2, 16916, Note_on_c, 0, 60, 73
2, 16926, Note_on_c, 0, 58, 0
2, 17039, Note_on_c, 0, 62, 72
2, 17043, Note_on_c, 0, 60, 0
2, 17178, Note_on_c, 0, 60, 69
2, 17186, Note_on_c, 0, 62, 0
2, 17303, Note_on_c, 0, 58, 65
2, 17305, Note_on_c, 0, 60, 0
2, 17444, Note_on_c, 0, 58, 0
2, 17454, Note_on_c, 0, 57, 65
2, 17525, Note_on_c, 0, 67, 0
2, 17526, Note_on_c, 0, 76, 0
2, 17577, Note_on_c, 0, 57, 0
2, 17596, Note_on_c, 0, 55, 62
2, 17740, Note_on_c, 0, 55, 0
2, 17748, Note_on_c, 0, 77, 68
2, 17760, Note_on_c, 0, 57, 58
2, 17761, Note_on_c, 0, 65, 55
2, 17891, Note_on_c, 0, 55, 53
2, 17896, Note_on_c, 0, 57, 0
2, 18023, Note_on_c, 0, 55, 0
2, 18029, Note_on_c, 0, 53, 59
2, 18091, Note_on_c, 0, 65, 0
2, 18161, Note_on_c, 0, 53, 0
2, 18174, Note_on_c, 0, 52, 61
2, 18186, Note_on_c, 0, 72, 0
2, 18323, Note_on_c, 0, 52, 0
2, 18332, Note_on_c, 0, 50, 55
2, 18381, Note_on_c, 0, 77, 0
2, 18498, Note_on_c, 0, 76, 60
2, 18640, Note_on_c, 0, 57, 59
2, 18645, Note_on_c, 0, 77, 70
2, 18662, Note_on_c, 0, 76, 0
2, 18781, Note_on_c, 0, 79, 71
2, 18812, Note_on_c, 0, 77, 0
2, 18928, Note_on_c, 0, 62, 63
2, 18929, Note_on_c, 0, 77, 78
2, 18933, Note_on_c, 0, 50, 0
2, 19060, Note_on_c, 0, 79, 0
2, 19075, Note_on_c, 0, 76, 76
2, 19111, Note_on_c, 0, 77, 0
2, 19213, Note_on_c, 0, 74, 76
2, 19233, Note_on_c, 0, 76, 0
2, 19235, Note_on_c, 0, 52, 60
2, 19356, Note_on_c, 0, 72, 75
2, 19359, Note_on_c, 0, 74, 0
2, 19504, Note_on_c, 0, 74, 71
2, 19505, Note_on_c, 0, 72, 0
2, 19511, Note_on_c, 0, 52, 0
2, 19512, Note_on_c, 0, 53, 56
2, 19637, Note_on_c, 0, 72, 71
2, 19660, Note_on_c, 0, 74, 0
2, 19779, Note_on_c, 0, 71, 72
2, 19790, Note_on_c, 0, 72, 0
2, 19793, Note_on_c, 0, 57, 0
2, 19923, Note_on_c, 0, 69, 73
2, 19928, Note_on_c, 0, 71, 0
2, 20081, Note_on_c, 0, 69, 0
2, 20083, Note_on_c, 0, 71, 69
2, 20101, Note_on_c, 0, 55, 43
2, 20229, Note_on_c, 0, 69, 60
2, 20376, Note_on_c, 0, 69, 0
2, 20382, Note_on_c, 0, 67, 57
2, 20504, Note_on_c, 0, 67, 0
2, 20531, Note_on_c, 0, 65, 54
2, 20655, Note_on_c, 0, 65, 0
2, 20671, Note_on_c, 0, 67, 60
2, 20814, Note_on_c, 0, 65, 58
2, 20881, Note_on_c, 0, 62, 0
2, 20944, Note_on_c, 0, 67, 0
2, 20953, Note_on_c, 0, 65, 0
2, 20960, Note_on_c, 0, 64, 57
2, 21083, Note_on_c, 0, 71, 0
2, 21086, Note_on_c, 0, 64, 0
2, 21090, Note_on_c, 0, 55, 0
2, 21091, Note_on_c, 0, 53, 0
2, 21094, Note_on_c, 0, 62, 69
2, 21246, Note_on_c, 0, 67, 52
2, 21249, Note_on_c, 0, 72, 58
2, 21251, Note_on_c, 0, 62, 0
2, 21255, Note_on_c, 0, 52, 50
2, 21255, Note_on_c, 0, 64, 45
2, 21411, Note_on_c, 0, 59, 55
2, 21544, Note_on_c, 0, 60, 69
2, 21563, Note_on_c, 0, 59, 0
2, 21664, Note_on_c, 0, 62, 70
2, 21675, Note_on_c, 0, 60, 0
2, 21739, Note_on_c, 0, 64, 0
2, 21757, Note_on_c, 0, 72, 0
2, 21796, Note_on_c, 0, 67, 0
2, 21802, Note_on_c, 0, 60, 72
2, 21825, Note_on_c, 0, 62, 0
2, 21841, Note_on_c, 0, 52, 0
2, 21934, Note_on_c, 0, 59, 69
2, 21958, Note_on_c, 0, 60, 0
2, 22076, Note_on_c, 0, 59, 0
2, 22078, Note_on_c, 0, 57, 74
2, 22223, Note_on_c, 0, 55, 72
2, 22223, Note_on_c, 0, 57, 0
2, 22370, Note_on_c, 0, 55, 0
2, 22375, Note_on_c, 0, 65, 74
2, 22377, Note_on_c, 0, 57, 62
2, 22511, Note_on_c, 0, 55, 64
2, 22667, Note_on_c, 0, 55, 0
2, 22669, Note_on_c, 0, 53, 67
2, 22672, Note_on_c, 0, 72, 76
2, 22801, Note_on_c, 0, 53, 0
2, 22807, Note_on_c, 0, 52, 68
2, 22966, Note_on_c, 0, 74, 79
2, 22968, Note_on_c, 0, 52, 0
2, 22974, Note_on_c, 0, 53, 70
2, 23032, Note_on_c, 0, 72, 0
2, 23114, Note_on_c, 0, 52, 66
2, 23131, Note_on_c, 0, 53, 0
2, 23264, Note_on_c, 0, 50, 67
2, 23268, Note_on_c, 0, 77, 85
2, 23273, Note_on_c, 0, 52, 0
2, 23344, Note_on_c, 0, 74, 0
2, 23393, Note_on_c, 0, 48, 68
2, 23396, Note_on_c, 0, 50, 0
2, 23568, Note_on_c, 0, 50, 68
2, 23570, Note_on_c, 0, 48, 0
2, 23571, Note_on_c, 0, 71, 80
2, 23580, Note_on_c, 0, 57, 0
2, 23592, Note_on_c, 0, 77, 0
2, 23706, Note_on_c, 0, 48, 67
2, 23771, Note_on_c, 0, 50, 0
2, 23853, Note_on_c, 0, 48, 0
2, 23858, Note_on_c, 0, 47, 66
2, 23869, Note_on_c, 0, 72, 75
2, 23892, Note_on_c, 0, 71, 0
2, 23986, Note_on_c, 0, 47, 0
2, 24000, Note_on_c, 0, 45, 62
2, 24154, Note_on_c, 0, 45, 0
2, 24161, Note_on_c, 0, 47, 58
2, 24166, Note_on_c, 0, 65, 0
2, 24168, Note_on_c, 0, 55, 53
2, 24176, Note_on_c, 0, 72, 0
2, 24177, Note_on_c, 0, 74, 68
2, 24335, Note_on_c, 0, 65, 56
2, 24460, Note_on_c, 0, 43, 51
2, 24478, Note_on_c, 0, 47, 0
2, 24486, Note_on_c, 0, 65, 0
2, 24489, Note_on_c, 0, 64, 65
2, 24567, Note_on_c, 0, 74, 0
2, 24612, Note_on_c, 0, 62, 65
2, 24640, Note_on_c, 0, 64, 0
2, 24767, Note_on_c, 0, 64, 70
2, 24778, Note_on_c, 0, 48, 57
2, 24785, Note_on_c, 0, 43, 0
2, 24785, Note_on_c, 0, 62, 0
2, 24906, Note_on_c, 0, 67, 72
2, 25042, Note_on_c, 0, 69, 76
2, 25049, Note_on_c, 0, 67, 0
2, 25057, Note_on_c, 0, 47, 64
2, 25111, Note_on_c, 0, 48, 0
2, 25138, Note_on_c, 0, 55, 0
2, 25178, Note_on_c, 0, 71, 75
2, 25192, Note_on_c, 0, 69, 0
2, 25348, Note_on_c, 0, 72, 78
2, 25350, Note_on_c, 0, 71, 0
2, 25351, Note_on_c, 0, 57, 60
2, 25354, Note_on_c, 0, 64, 0
2, 25363, Note_on_c, 0, 47, 0
2, 25364, Note_on_c, 0, 45, 55
2, 25507, Note_on_c, 0, 64, 62
2, 25592, Note_on_c, 0, 57, 0
2, 25642, Note_on_c, 0, 43, 60
2, 25644, Note_on_c, 0, 65, 72
2, 25654, Note_on_c, 0, 64, 0
2, 25692, Note_on_c, 0, 45, 0
2, 25779, Note_on_c, 0, 67, 72
2, 25815, Note_on_c, 0, 65, 0
2, 25929, Note_on_c, 0, 41, 63
2, 25929, Note_on_c, 0, 69, 67
2, 25940, Note_on_c, 0, 67, 0
2, 25956, Note_on_c, 0, 43, 0
2, 26070, Note_on_c, 0, 67, 68
2, 26102, Note_on_c, 0, 69, 0
2, 26219, Note_on_c, 0, 67, 0
2, 26220, Note_on_c, 0, 38, 52
2, 26222, Note_on_c, 0, 65, 63
2, 26232, Note_on_c, 0, 41, 0
2, 26358, Note_on_c, 0, 65, 0
2, 26370, Note_on_c, 0, 64, 58
2, 26403, Note_on_c, 0, 72, 0
2, 26483, Note_on_c, 0, 38, 0
2, 26514, Note_on_c, 0, 43, 52
2, 26517, Note_on_c, 0, 64, 0
2, 26520, Note_on_c, 0, 62, 61
2, 26667, Note_on_c, 0, 65, 61
2, 26710, Note_on_c, 0, 62, 0
2, 26827, Note_on_c, 0, 72, 77
2, 26833, Note_on_c, 0, 65, 0
2, 26838, Note_on_c, 0, 55, 55
2, 26978, Note_on_c, 0, 71, 72
2, 27009, Note_on_c, 0, 72, 0
2, 27144, Note_on_c, 0, 72, 73
2, 27150, Note_on_c, 0, 43, 0
2, 27153, Note_on_c, 0, 48, 53
2, 27165, Note_on_c, 0, 60, 60
2, 27185, Note_on_c, 0, 71, 0
2, 27321, Note_on_c, 0, 65, 60
2, 27338, Note_on_c, 0, 60, 0
2, 27462, Note_on_c, 0, 67, 64
2, 27574, Note_on_c, 0, 65, 0
2, 27611, Note_on_c, 0, 69, 60
2, 27621, Note_on_c, 0, 67, 0
2, 27755, Note_on_c, 0, 67, 57
2, 27780, Note_on_c, 0, 69, 0
2, 27902, Note_on_c, 0, 65, 56
2, 28017, Note_on_c, 0, 65, 0
2, 28042, Note_on_c, 0, 64, 52
2, 28174, Note_on_c, 0, 48, 0
2, 28180, Note_on_c, 0, 64, 0
2, 28196, Note_on_c, 0, 62, 55
2, 28214, Note_on_c, 0, 55, 0
2, 28329, Note_on_c, 0, 62, 0
2, 28347, Note_on_c, 0, 64, 53
2, 28485, Note_on_c, 0, 64, 0
2, 28488, Note_on_c, 0, 62, 45
2, 28611, Note_on_c, 0, 62, 0
2, 28628, Note_on_c, 0, 60, 50
2, 28676, Note_on_c, 0, 67, 0
2, 28694, Note_on_c, 0, 72, 0
2, 28764, Note_on_c, 0, 60, 0
2, 28770, Note_on_c, 0, 59, 56
2, 28914, Note_on_c, 0, 59, 0
2, 28928, Note_on_c, 0, 60, 48
2, 29088, Note_on_c, 0, 71, 47
2, 29203, Note_on_c, 0, 60, 0
2, 29217, Note_on_c, 0, 55, 47
2, 29241, Note_on_c, 0, 72, 60
2, 29255, Note_on_c, 0, 71, 0
2, 29379, Note_on_c, 0, 74, 57
2, 29382, Note_on_c, 0, 72, 0
2, 29510, Note_on_c, 0, 48, 48
2, 29515, Note_on_c, 0, 57, 56
2, 29523, Note_on_c, 0, 72, 66
2, 29529, Note_on_c, 0, 55, 0
2, 29565, Note_on_c, 0, 74, 0
2, 29659, Note_on_c, 0, 71, 67
2, 29691, Note_on_c, 0, 72, 0
2, 29802, Note_on_c, 0, 52, 62
2, 29804, Note_on_c, 0, 57, 0
2, 29809, Note_on_c, 0, 69, 68
2, 29828, Note_on_c, 0, 71, 0
2, 29945, Note_on_c, 0, 67, 71
2, 29950, Note_on_c, 0, 69, 0
2, 30087, Note_on_c, 0, 53, 65
2, 30096, Note_on_c, 0, 69, 71
2, 30104, Note_on_c, 0, 67, 0
2, 30109, Note_on_c, 0, 52, 0
2, 30238, Note_on_c, 0, 67, 67
2, 30247, Note_on_c, 0, 69, 0
2, 30378, Note_on_c, 0, 57, 63
2, 30388, Note_on_c, 0, 53, 0
2, 30392, Note_on_c, 0, 65, 67
2, 30397, Note_on_c, 0, 67, 0
2, 30525, Note_on_c, 0, 65, 0
2, 30530, Note_on_c, 0, 64, 59
2, 30682, Note_on_c, 0, 64, 0
2, 30692, Note_on_c, 0, 65, 62
2, 30696, Note_on_c, 0, 50, 58
2, 30739, Note_on_c, 0, 57, 0
2, 30834, Note_on_c, 0, 64, 50
2, 30981, Note_on_c, 0, 52, 58
2, 30984, Note_on_c, 0, 64, 0
2, 30996, Note_on_c, 0, 62, 53
2, 31007, Note_on_c, 0, 50, 0
2, 31110, Note_on_c, 0, 62, 0
2, 31132, Note_on_c, 0, 60, 51
2, 31262, Note_on_c, 0, 60, 0
2, 31269, Note_on_c, 0, 52, 0
2, 31273, Note_on_c, 0, 53, 54
2, 31281, Note_on_c, 0, 62, 54
2, 31424, Note_on_c, 0, 60, 49
2, 31564, Note_on_c, 0, 60, 0
2, 31577, Note_on_c, 0, 59, 52
2, 31717, Note_on_c, 0, 57, 54
2, 31720, Note_on_c, 0, 59, 0
2, 31855, Note_on_c, 0, 53, 0
2, 31870, Note_on_c, 0, 57, 0
2, 31876, Note_on_c, 0, 59, 50
2, 32038, Note_on_c, 0, 53, 48
2, 32186, Note_on_c, 0, 55, 60
2, 32205, Note_on_c, 0, 53, 0
2, 32335, Note_on_c, 0, 57, 66
2, 32341, Note_on_c, 0, 55, 0
2, 32459, Note_on_c, 0, 48, 0
2, 32475, Note_on_c, 0, 55, 65
2, 32498, Note_on_c, 0, 65, 0
2, 32520, Note_on_c, 0, 57, 0
2, 32617, Note_on_c, 0, 53, 66
2, 32625, Note_on_c, 0, 55, 0
2, 32760, Note_on_c, 0, 53, 0
2, 32769, Note_on_c, 0, 52, 71
2, 32897, Note_on_c, 0, 52, 0
2, 32902, Note_on_c, 0, 50, 69
2, 33047, Note_on_c, 0, 50, 0
2, 33047, Note_on_c, 0, 64, 75
2, 33054, Note_on_c, 0, 52, 64
2, 33062, Note_on_c, 0, 60, 56
2, 33073, Note_on_c, 0, 55, 51
2, 33115, Note_on_c, 0, 62, 0
2, 33172, Note_on_c, 0, 59, 0
2, 33196, Note_on_c, 0, 50, 62
2, 33347, Note_on_c, 0, 48, 71
2, 33352, Note_on_c, 0, 50, 0
2, 33386, Note_on_c, 0, 52, 0
2, 33402, Note_on_c, 0, 60, 0
2, 33439, Note_on_c, 0, 55, 0
2, 33485, Note_on_c, 0, 48, 0
2, 33494, Note_on_c, 0, 47, 70
2, 33638, Note_on_c, 0, 47, 0
2, 33650, Note_on_c, 0, 63, 79
2, 33655, Note_on_c, 0, 48, 69
2, 33669, Note_on_c, 0, 57, 55
2, 33672, Note_on_c, 0, 60, 57
2, 33715, Note_on_c, 0, 64, 0
2, 33800, Note_on_c, 0, 45, 62
2, 33944, Note_on_c, 0, 43, 64
2, 33945, Note_on_c, 0, 45, 0
2, 33995, Note_on_c, 0, 57, 0
2, 34011, Note_on_c, 0, 60, 0
2, 34081, Note_on_c, 0, 48, 0
2, 34089, Note_on_c, 0, 42, 69
2, 34108, Note_on_c, 0, 43, 0
2, 34235, Note_on_c, 0, 42, 0
2, 34237, Note_on_c, 0, 43, 61
2, 34255, Note_on_c, 0, 55, 56
2, 34255, Note_on_c, 0, 63, 0
2, 34257, Note_on_c, 0, 60, 66
2, 34386, Note_on_c, 0, 63, 71
2, 34403, Note_on_c, 0, 48, 65
2, 34411, Note_on_c, 0, 60, 0
2, 34534, Note_on_c, 0, 55, 0
2, 34535, Note_on_c, 0, 48, 0
2, 34539, Note_on_c, 0, 62, 68
2, 34539, Note_on_c, 0, 63, 0
2, 34545, Note_on_c, 0, 47, 69
2, 34676, Note_on_c, 0, 47, 0
2, 34678, Note_on_c, 0, 62, 0
2, 34681, Note_on_c, 0, 60, 67
2, 34687, Note_on_c, 0, 45, 59
2, 34835, Note_on_c, 0, 60, 0
2, 34837, Note_on_c, 0, 62, 67
2, 34840, Note_on_c, 0, 45, 0
2, 34844, Note_on_c, 0, 47, 62
2, 34984, Note_on_c, 0, 60, 49
2, 35127, Note_on_c, 0, 50, 52
2, 35131, Note_on_c, 0, 47, 0
2, 35135, Note_on_c, 0, 60, 0
2, 35144, Note_on_c, 0, 59, 55
2, 35268, Note_on_c, 0, 59, 0
2, 35290, Note_on_c, 0, 57, 47
2, 35436, Note_on_c, 0, 57, 0
2, 35441, Note_on_c, 0, 59, 54
2, 35453, Note_on_c, 0, 55, 50
2, 35467, Note_on_c, 0, 50, 0
2, 35473, Note_on_c, 0, 62, 0
2, 35492, Note_on_c, 0, 43, 0
2, 35604, Note_on_c, 0, 45, 52
2, 35717, Note_on_c, 0, 45, 0
2, 35742, Note_on_c, 0, 43, 58
2, 35742, Note_on_c, 0, 50, 53
2, 35861, Note_on_c, 0, 43, 0
2, 35871, Note_on_c, 0, 41, 61
2, 35904, Note_on_c, 0, 55, 0
2, 35998, Note_on_c, 0, 59, 0
2, 36013, Note_on_c, 0, 41, 0
2, 36038, Note_on_c, 0, 40, 53
2, 36087, Note_on_c, 0, 50, 0
2, 36197, Note_on_c, 0, 55, 47
2, 36321, Note_on_c, 0, 40, 0
2, 36336, Note_on_c, 0, 55, 0
2, 36344, Note_on_c, 0, 57, 58
2, 36350, Note_on_c, 0, 50, 52
2, 36475, Note_on_c, 0, 58, 65
2, 36484, Note_on_c, 0, 57, 0
2, 36615, Note_on_c, 0, 50, 0
2, 36625, Note_on_c, 0, 57, 67
2, 36628, Note_on_c, 0, 49, 62
2, 36628, Note_on_c, 0, 58, 0
2, 36633, Note_on_c, 0, 45, 56
2, 36768, Note_on_c, 0, 59, 68
2, 36910, Note_on_c, 0, 61, 72
2, 36918, Note_on_c, 0, 53, 67
2, 36935, Note_on_c, 0, 59, 0
2, 37053, Note_on_c, 0, 62, 74
2, 37072, Note_on_c, 0, 61, 0
2, 37188, Note_on_c, 0, 49, 0
2, 37204, Note_on_c, 0, 53, 0
2, 37207, Note_on_c, 0, 52, 72
2, 37212, Note_on_c, 0, 61, 74
2, 37222, Note_on_c, 0, 62, 0
2, 37353, Note_on_c, 0, 64, 74
2, 37405, Note_on_c, 0, 45, 0
2, 37516, Note_on_c, 0, 65, 78
2, 37553, Note_on_c, 0, 64, 0
2, 37662, Note_on_c, 0, 67, 81
2, 37739, Note_on_c, 0, 65, 0
2, 37797, Note_on_c, 0, 38, 60
2, 37843, Note_on_c, 0, 52, 0
2, 37925, Note_on_c, 0, 61, 0
2, 37959, Note_on_c, 0, 64, 64
2, 38103, Note_on_c, 0, 64, 0
2, 38104, Note_on_c, 0, 45, 55
2, 38108, Note_on_c, 0, 62, 59
2, 38245, Note_on_c, 0, 62, 0
2, 38250, Note_on_c, 0, 61, 57
2, 38384, Note_on_c, 0, 45, 0
2, 38391, Note_on_c, 0, 67, 0
2, 38395, Note_on_c, 0, 62, 61
2, 38406, Note_on_c, 0, 41, 57
2, 38419, Note_on_c, 0, 61, 0
2, 38465, Note_on_c, 0, 38, 0
2, 38541, Note_on_c, 0, 64, 61
2, 38621, Note_on_c, 0, 62, 0
2, 38685, Note_on_c, 0, 65, 64
2, 38707, Note_on_c, 0, 50, 53
2, 38728, Note_on_c, 0, 64, 0
2, 38774, Note_on_c, 0, 41, 0
2, 38812, Note_on_c, 0, 57, 0
2, 38842, Note_on_c, 0, 62, 53
2, 38958, Note_on_c, 0, 62, 0
2, 38979, Note_on_c, 0, 38, 47
2, 38982, Note_on_c, 0, 57, 46
2, 39010, Note_on_c, 0, 50, 0
2, 39112, Note_on_c, 0, 57, 0
2, 39134, Note_on_c, 0, 60, 54
2, 39259, Note_on_c, 0, 60, 0
2, 39267, Note_on_c, 0, 38, 0
2, 39282, Note_on_c, 0, 59, 50
2, 39289, Note_on_c, 0, 50, 48
2, 39413, Note_on_c, 0, 57, 53
2, 39414, Note_on_c, 0, 59, 0
2, 39577, Note_on_c, 0, 43, 45
2, 39588, Note_on_c, 0, 57, 0
2, 39589, Note_on_c, 0, 50, 0
2, 39589, Note_on_c, 0, 59, 49
2, 39717, Note_on_c, 0, 53, 54
2, 39878, Note_on_c, 0, 55, 64
2, 39968, Note_on_c, 0, 53, 0
2, 40012, Note_on_c, 0, 59, 0
2, 40025, Note_on_c, 0, 56, 68
2, 40034, Note_on_c, 0, 55, 0
2, 40048, Note_on_c, 0, 43, 0
2, 40170, Note_on_c, 0, 55, 59
2, 40170, Note_on_c, 0, 56, 0
2, 40184, Note_on_c, 0, 47, 56
2, 40286, Note_on_c, 0, 65, 0
2, 40319, Note_on_c, 0, 57, 60
2, 40462, Note_on_c, 0, 59, 67
2, 40466, Note_on_c, 0, 57, 0
2, 40603, Note_on_c, 0, 60, 71
2, 40628, Note_on_c, 0, 59, 0
2, 40749, Note_on_c, 0, 43, 59
2, 40752, Note_on_c, 0, 59, 72
2, 40752, Note_on_c, 0, 60, 0
2, 40756, Note_on_c, 0, 47, 0
2, 40886, Note_on_c, 0, 62, 64
2, 41033, Note_on_c, 0, 64, 69
2, 41078, Note_on_c, 0, 62, 0
2, 41171, Note_on_c, 0, 65, 69
2, 41216, Note_on_c, 0, 64, 0
2, 41315, Note_on_c, 0, 43, 0
2, 41339, Note_on_c, 0, 48, 57
2, 41477, Note_on_c, 0, 59, 0
2, 41481, Note_on_c, 0, 62, 54
2, 41622, Note_on_c, 0, 62, 0
2, 41638, Note_on_c, 0, 60, 56
2, 41766, Note_on_c, 0, 60, 0
2, 41768, Note_on_c, 0, 59, 53
2, 41912, Note_on_c, 0, 55, 0
2, 41928, Note_on_c, 0, 52, 46
2, 41931, Note_on_c, 0, 60, 46
2, 42061, Note_on_c, 0, 60, 0
2, 42062, Note_on_c, 0, 62, 58
2, 42066, Note_on_c, 0, 59, 0
2, 42136, Note_on_c, 0, 65, 0
2, 42211, Note_on_c, 0, 64, 53
2, 42237, Note_on_c, 0, 62, 0
2, 42360, Note_on_c, 0, 60, 52
2, 42501, Note_on_c, 0, 55, 47
2, 42599, Note_on_c, 0, 48, 0
2, 42626, Note_on_c, 0, 52, 0
2, 42636, Note_on_c, 0, 58, 57
2, 42655, Note_on_c, 0, 60, 0
2, 42657, Note_on_c, 0, 55, 0
2, 42782, Note_on_c, 0, 57, 53
2, 42827, Note_on_c, 0, 58, 0
2, 42905, Note_on_c, 0, 57, 0
2, 42920, Note_on_c, 0, 55, 62
2, 42945, Note_on_c, 0, 64, 0
2, 43076, Note_on_c, 0, 55, 0
2, 43089, Note_on_c, 0, 53, 60
2, 43090, Note_on_c, 0, 57, 55
2, 43238, Note_on_c, 0, 67, 61
2, 43364, Note_on_c, 0, 53, 0
2, 43377, Note_on_c, 0, 52, 67
2, 43387, Note_on_c, 0, 69, 72
2, 43417, Note_on_c, 0, 67, 0
2, 43421, Note_on_c, 0, 57, 0
2, 43520, Note_on_c, 0, 70, 73
2, 43538, Note_on_c, 0, 69, 0
2, 43671, Note_on_c, 0, 69, 73
2, 43672, Note_on_c, 0, 70, 0
2, 43677, Note_on_c, 0, 53, 69
2, 43704, Note_on_c, 0, 52, 0
2, 43822, Note_on_c, 0, 67, 70
2, 43866, Note_on_c, 0, 69, 0
2, 43969, Note_on_c, 0, 57, 58
2, 43971, Note_on_c, 0, 65, 70
2, 43972, Control_c, 0, 64, 52
2, 43983, Note_on_c, 0, 62, 53
2, 43988, Control_c, 0, 64, 65
2, 44000, Note_on_c, 0, 67, 0
2, 44003, Control_c, 0, 64, 70
2, 44019, Control_c, 0, 64, 76
2, 44034, Control_c, 0, 64, 80
2, 44043, Note_on_c, 0, 65, 0
2, 44050, Control_c, 0, 64, 81
2, 44066, Control_c, 0, 64, 81
2, 44118, Note_on_c, 0, 64, 71
2, 44127, Control_c, 0, 64, 81
2, 44142, Control_c, 0, 64, 80
2, 44157, Control_c, 0, 64, 78
2, 44172, Control_c, 0, 64, 75
2, 44188, Control_c, 0, 64, 69
2, 44203, Control_c, 0, 64, 61
2, 44219, Control_c, 0, 64, 0
2, 44252, Note_on_c, 0, 64, 0
2, 44252, Note_on_c, 0, 65, 74
2, 44309, Note_on_c, 0, 62, 0
2, 44405, Note_on_c, 0, 64, 63
2, 44533, Note_on_c, 0, 64, 0
2, 44546, Note_on_c, 0, 62, 65
2, 44663, Note_on_c, 0, 62, 0
2, 44677, Note_on_c, 0, 60, 66
2, 44807, Note_on_c, 0, 60, 0
2, 44818, Note_on_c, 0, 65, 0
2, 44823, Note_on_c, 0, 71, 69
2, 44828, Note_on_c, 0, 67, 59
2, 44830, Note_on_c, 0, 57, 0
2, 44830, Note_on_c, 0, 62, 70
2, 44839, Note_on_c, 0, 53, 0
2, 44989, Note_on_c, 0, 53, 66
2, 45131, Note_on_c, 0, 55, 70
2, 45173, Note_on_c, 0, 53, 0
2, 45269, Note_on_c, 0, 57, 71
2, 45273, Note_on_c, 0, 55, 0
2, 45412, Note_on_c, 0, 55, 65
2, 45415, Note_on_c, 0, 57, 0
2, 45544, Note_on_c, 0, 53, 70
2, 45557, Note_on_c, 0, 55, 0
2, 45682, Note_on_c, 0, 53, 0
2, 45696, Note_on_c, 0, 52, 74
2, 45761, Note_on_c, 0, 71, 0
2, 45765, Note_on_c, 0, 62, 0
2, 45816, Note_on_c, 0, 52, 0
2, 45827, Note_on_c, 0, 50, 67
2, 45990, Note_on_c, 0, 50, 0
2, 46000, Note_on_c, 0, 72, 77
2, 46002, Note_on_c, 0, 52, 65
2, 46013, Note_on_c, 0, 60, 62
2, 46141, Note_on_c, 0, 50, 62
2, 46168, Note_on_c, 0, 60, 0
2, 46222, Note_on_c, 0, 52, 0
2, 46238, Note_on_c, 0, 67, 0
2, 46247, Control_c, 0, 64, 39
2, 46262, Control_c, 0, 64, 54
2, 46277, Control_c, 0, 64, 61
2, 46282, Note_on_c, 0, 48, 68
2, 46282, Note_on_c, 0, 50, 0
2, 46292, Control_c, 0, 64, 63
2, 46307, Control_c, 0, 64, 64
2, 46322, Control_c, 0, 64, 66
2, 46338, Control_c, 0, 64, 67
2, 46353, Control_c, 0, 64, 67
2, 46357, Note_on_c, 0, 72, 0
2, 46368, Control_c, 0, 64, 68
2, 46383, Control_c, 0, 64, 69
2, 46395, Note_on_c, 0, 48, 0
2, 46398, Control_c, 0, 64, 70
2, 46409, Note_on_c, 0, 46, 65
2, 46475, Control_c, 0, 64, 69
2, 46490, Control_c, 0, 64, 69
2, 46506, Control_c, 0, 64, 66
2, 46521, Control_c, 0, 64, 63
2, 46537, Control_c, 0, 64, 51
2, 46551, Control_c, 0, 64, 23
2, 46553, Note_on_c, 0, 46, 0
2, 46566, Control_c, 0, 64, 0
2, 46569, Note_on_c, 0, 45, 64
2, 46582, Note_on_c, 0, 65, 70
2, 46733, Note_on_c, 0, 52, 67
2, 46735, Note_on_c, 0, 72, 72
2, 46871, Note_on_c, 0, 53, 72
2, 46873, Note_on_c, 0, 74, 71
2, 46892, Note_on_c, 0, 52, 0
2, 46906, Note_on_c, 0, 72, 0
2, 47005, Note_on_c, 0, 75, 78
2, 47007, Note_on_c, 0, 74, 0
2, 47010, Note_on_c, 0, 53, 0
2, 47013, Note_on_c, 0, 55, 73
2, 47117, Note_on_c, 0, 45, 0
2, 47150, Note_on_c, 0, 53, 73
2, 47156, Note_on_c, 0, 55, 0
2, 47160, Note_on_c, 0, 74, 74
2, 47162, Note_on_c, 0, 65, 0
2, 47250, Note_on_c, 0, 75, 0
2, 47281, Note_on_c, 0, 52, 69
2, 47282, Note_on_c, 0, 72, 71
2, 47288, Note_on_c, 0, 53, 0
2, 47298, Note_on_c, 0, 74, 0
2, 47427, Note_on_c, 0, 52, 0
2, 47437, Note_on_c, 0, 70, 69
2, 47438, Note_on_c, 0, 50, 69
2, 47445, Note_on_c, 0, 67, 59
2, 47532, Note_on_c, 0, 72, 0
2, 47569, Note_on_c, 0, 48, 71
2, 47569, Note_on_c, 0, 50, 0
2, 47578, Note_on_c, 0, 70, 0
2, 47591, Note_on_c, 0, 69, 75
2, 47698, Note_on_c, 0, 48, 0
2, 47715, Note_on_c, 0, 50, 68
2, 47730, Note_on_c, 0, 70, 78
2, 47743, Note_on_c, 0, 69, 0
2, 47797, Note_on_c, 0, 67, 0
2, 47837, Note_on_c, 0, 50, 0
2, 47850, Note_on_c, 0, 48, 68
2, 47861, Note_on_c, 0, 69, 75
2, 48001, Note_on_c, 0, 46, 70
2, 48006, Note_on_c, 0, 69, 0
2, 48012, Note_on_c, 0, 48, 0
2, 48014, Note_on_c, 0, 67, 74
2, 48133, Note_on_c, 0, 46, 0
2, 48142, Note_on_c, 0, 67, 0
2, 48148, Note_on_c, 0, 45, 64
2, 48153, Note_on_c, 0, 65, 70
2, 48303, Note_on_c, 0, 70, 0
2, 48308, Note_on_c, 0, 43, 65
2, 48309, Control_c, 0, 64, 51
2, 48311, Note_on_c, 0, 76, 85
2, 48314, Note_on_c, 0, 45, 0
2, 48317, Note_on_c, 0, 67, 78
2, 48319, Note_on_c, 0, 72, 67
2, 48320, Note_on_c, 0, 65, 0
2, 48324, Control_c, 0, 64, 63
2, 48340, Control_c, 0, 64, 66
2, 48354, Control_c, 0, 64, 69
2, 48357, Note_on_c, 0, 43, 0
2, 48370, Control_c, 0, 64, 73
2, 48385, Control_c, 0, 64, 76
2, 48400, Control_c, 0, 64, 77
2, 48416, Control_c, 0, 64, 78
2, 48468, Note_on_c, 0, 58, 66
2, 48538, Control_c, 0, 64, 76
2, 48553, Control_c, 0, 64, 74
2, 48568, Control_c, 0, 64, 70
2, 48583, Control_c, 0, 64, 64
2, 48598, Control_c, 0, 64, 44
2, 48611, Note_on_c, 0, 60, 74
2, 48614, Control_c, 0, 64, 0
2, 48621, Note_on_c, 0, 58, 0
2, 48749, Note_on_c, 0, 62, 70
2, 48756, Note_on_c, 0, 60, 0
2, 48906, Note_on_c, 0, 60, 68
2, 48911, Note_on_c, 0, 62, 0
2, 49045, Note_on_c, 0, 58, 68
2, 49053, Note_on_c, 0, 60, 0
2, 49193, Note_on_c, 0, 58, 0
2, 49197, Note_on_c, 0, 57, 67
2, 49277, Note_on_c, 0, 76, 0
2, 49281, Note_on_c, 0, 67, 0
2, 49311, Note_on_c, 0, 57, 0
2, 49323, Note_on_c, 0, 55, 64
2, 49467, Note_on_c, 0, 55, 0
2, 49473, Note_on_c, 0, 77, 84
2, 49479, Note_on_c, 0, 57, 62
2, 49494, Note_on_c, 0, 65, 57
2, 49608, Note_on_c, 0, 55, 61
2, 49715, Control_c, 0, 64, 32
2, 49719, Note_on_c, 0, 65, 0
2, 49731, Control_c, 0, 64, 45
2, 49746, Control_c, 0, 64, 52
2, 49766, Control_c, 0, 64, 56
2, 49769, Note_on_c, 0, 72, 0
2, 49770, Note_on_c, 0, 53, 72
2, 49783, Control_c, 0, 64, 58
2, 49786, Note_on_c, 0, 55, 0
2, 49798, Control_c, 0, 64, 60
2, 49813, Control_c, 0, 64, 61
2, 49829, Control_c, 0, 64, 62
2, 49835, Note_on_c, 0, 57, 0
2, 49843, Control_c, 0, 64, 63
2, 49859, Control_c, 0, 64, 64
2, 49874, Control_c, 0, 64, 64
2, 49879, Note_on_c, 0, 77, 0
2, 49889, Control_c, 0, 64, 65
2, 49905, Control_c, 0, 64, 65
2, 49906, Note_on_c, 0, 53, 0
2, 49911, Note_on_c, 0, 52, 74
2, 49995, Control_c, 0, 64, 65
2, 50026, Control_c, 0, 64, 63
2, 50040, Control_c, 0, 64, 61
2, 50044, Note_on_c, 0, 52, 0
2, 50047, Note_on_c, 0, 50, 71
2, 50056, Control_c, 0, 64, 55
2, 50071, Control_c, 0, 64, 46
2, 50086, Control_c, 0, 64, 34
2, 50102, Control_c, 0, 64, 0
2, 50210, Note_on_c, 0, 77, 77
2, 50215, Note_on_c, 0, 57, 69
2, 50357, Note_on_c, 0, 58, 73
2, 50364, Note_on_c, 0, 57, 0
2, 50367, Note_on_c, 0, 79, 79
2, 50390, Note_on_c, 0, 77, 0
2, 50504, Note_on_c, 0, 81, 89
2, 50509, Note_on_c, 0, 58, 0
2, 50510, Note_on_c, 0, 60, 74
2, 50536, Note_on_c, 0, 79, 0
2, 50652, Note_on_c, 0, 58, 75
2, 50655, Note_on_c, 0, 79, 82
2, 50676, Note_on_c, 0, 60, 0
2, 50685, Note_on_c, 0, 81, 0
2, 50696, Note_on_c, 0, 50, 0
2, 50796, Note_on_c, 0, 77, 78
2, 50797, Note_on_c, 0, 57, 67
2, 50817, Note_on_c, 0, 79, 0
2, 50841, Note_on_c, 0, 58, 0
2, 50926, Note_on_c, 0, 57, 0
2, 50935, Note_on_c, 0, 55, 66
2, 50947, Note_on_c, 0, 76, 76
2, 50972, Note_on_c, 0, 77, 0
2, 51064, Note_on_c, 0, 55, 0
2, 51069, Note_on_c, 0, 53, 67
2, 51076, Note_on_c, 0, 74, 71
2, 51077, Note_on_c, 0, 76, 0
2, 51207, Note_on_c, 0, 53, 0
2, 51210, Note_on_c, 0, 74, 0
2, 51215, Note_on_c, 0, 55, 63
2, 51223, Note_on_c, 0, 76, 68
2, 51376, Note_on_c, 0, 65, 60
2, 51382, Note_on_c, 0, 74, 68
2, 51399, Note_on_c, 0, 76, 0
2, 51522, Note_on_c, 0, 65, 0
2, 51524, Note_on_c, 0, 73, 74
2, 51526, Note_on_c, 0, 64, 68
2, 51531, Note_on_c, 0, 74, 0
2, 51651, Note_on_c, 0, 73, 0
2, 51664, Note_on_c, 0, 62, 66
2, 51664, Note_on_c, 0, 64, 0
2, 51664, Note_on_c, 0, 71, 67
2, 51800, Note_on_c, 0, 62, 0
2, 51813, Note_on_c, 0, 64, 64
2, 51813, Note_on_c, 0, 73, 72
2, 51817, Note_on_c, 0, 71, 0
2, 51951, Note_on_c, 0, 70, 61
2, 52093, Note_on_c, 0, 70, 0
2, 52101, Note_on_c, 0, 69, 62
2, 52242, Note_on_c, 0, 69, 0
2, 52253, Note_on_c, 0, 67, 62
2, 52386, Note_on_c, 0, 67, 0
2, 52398, Note_on_c, 0, 69, 62
2, 52553, Note_on_c, 0, 67, 57
2, 52603, Control_c, 0, 64, 31
2, 52619, Control_c, 0, 64, 45
2, 52633, Control_c, 0, 64, 52
2, 52648, Control_c, 0, 64, 59
2, 52664, Control_c, 0, 64, 62
2, 52678, Note_on_c, 0, 69, 0
2, 52679, Control_c, 0, 64, 65
2, 52695, Control_c, 0, 64, 67
2, 52697, Note_on_c, 0, 67, 0
2, 52702, Note_on_c, 0, 64, 0
2, 52702, Note_on_c, 0, 65, 62
2, 52709, Control_c, 0, 64, 69
2, 52724, Control_c, 0, 64, 72
2, 52740, Control_c, 0, 64, 74
2, 52741, Note_on_c, 0, 55, 0
2, 52755, Control_c, 0, 64, 76
2, 52767, Note_on_c, 0, 73, 0
2, 52770, Control_c, 0, 64, 76
2, 52786, Note_on_c, 0, 65, 0
2, 52825, Note_on_c, 0, 64, 64
2, 52877, Note_on_c, 0, 64, 0
2, 52976, Control_c, 0, 64, 76
2, 52987, Note_on_c, 0, 74, 67
2, 52990, Control_c, 0, 64, 74
2, 52993, Note_on_c, 0, 53, 58
2, 52994, Note_on_c, 0, 65, 66
2, 52995, Note_on_c, 0, 69, 63
2, 53005, Control_c, 0, 64, 70
2, 53021, Control_c, 0, 64, 64
2, 53036, Control_c, 0, 64, 48
2, 53051, Control_c, 0, 64, 0
2, 53147, Note_on_c, 0, 61, 56
2, 53299, Note_on_c, 0, 62, 65
2, 53312, Note_on_c, 0, 61, 0
2, 53430, Note_on_c, 0, 62, 0
2, 53442, Note_on_c, 0, 64, 64
2, 53460, Note_on_c, 0, 53, 0
2, 53464, Note_on_c, 0, 65, 0
2, 53469, Note_on_c, 0, 69, 0
2, 53522, Note_on_c, 0, 74, 0
2, 53581, Note_on_c, 0, 62, 68
2, 53582, Note_on_c, 0, 64, 0
2, 53712, Note_on_c, 0, 62, 0
2, 53716, Note_on_c, 0, 60, 64
2, 53831, Note_on_c, 0, 60, 0
2, 53858, Note_on_c, 0, 58, 60
2, 53883, Note_on_c, 0, 77, 74
2, 53889, Note_on_c, 0, 69, 61
2, 53998, Note_on_c, 0, 58, 0
2, 54004, Note_on_c, 0, 57, 59
2, 54115, Note_on_c, 0, 69, 0
2, 54160, Note_on_c, 0, 76, 75
2, 54162, Note_on_c, 0, 57, 0
2, 54164, Note_on_c, 0, 67, 64
2, 54173, Note_on_c, 0, 58, 68
2, 54202, Note_on_c, 0, 77, 0
2, 54311, Note_on_c, 0, 57, 62
2, 54357, Note_on_c, 0, 58, 0
2, 54445, Note_on_c, 0, 67, 0
2, 54447, Note_on_c, 0, 79, 88
2, 54451, Note_on_c, 0, 70, 69
2, 54458, Note_on_c, 0, 55, 67
2, 54464, Note_on_c, 0, 57, 0
2, 54473, Note_on_c, 0, 76, 0
2, 54599, Note_on_c, 0, 53, 70
2, 54599, Note_on_c, 0, 55, 0
2, 54603, Control_c, 0, 64, 42
2, 54619, Control_c, 0, 64, 51
2, 54634, Control_c, 0, 64, 55
2, 54648, Control_c, 0, 64, 57
2, 54664, Control_c, 0, 64, 59
2, 54679, Control_c, 0, 64, 60
2, 54695, Control_c, 0, 64, 62
2, 54699, Note_on_c, 0, 79, 0
2, 54711, Control_c, 0, 64, 62
2, 54741, Note_on_c, 0, 53, 0
2, 54756, Control_c, 0, 64, 62
2, 54760, Note_on_c, 0, 73, 79
2, 54765, Note_on_c, 0, 57, 67
2, 54771, Control_c, 0, 64, 59
2, 54772, Note_on_c, 0, 64, 66
2, 54776, Note_on_c, 0, 55, 63
2, 54787, Control_c, 0, 64, 24
2, 54802, Control_c, 0, 64, 0
2, 54806, Note_on_c, 0, 70, 0
2, 54877, Control_c, 0, 64, 34
2, 54892, Control_c, 0, 64, 64
2, 54908, Control_c, 0, 64, 69
2, 54916, Note_on_c, 0, 53, 69
2, 54922, Note_on_c, 0, 55, 0
2, 54923, Control_c, 0, 64, 73
2, 54926, Note_on_c, 0, 73, 0
2, 54939, Control_c, 0, 64, 75
2, 54953, Control_c, 0, 64, 76
2, 55011, Note_on_c, 0, 57, 0
2, 55044, Control_c, 0, 64, 75
2, 55047, Note_on_c, 0, 53, 0
2, 55047, Note_on_c, 0, 64, 0
2, 55050, Note_on_c, 0, 74, 75
2, 55060, Control_c, 0, 64, 71
2, 55060, Note_on_c, 0, 52, 69
2, 55060, Note_on_c, 0, 65, 74
2, 55075, Control_c, 0, 64, 64
2, 55090, Control_c, 0, 64, 33
2, 55106, Control_c, 0, 64, 0
2, 55189, Control_c, 0, 64, 18
2, 55203, Note_on_c, 0, 50, 69
2, 55204, Control_c, 0, 64, 50
2, 55220, Control_c, 0, 64, 51
2, 55240, Note_on_c, 0, 52, 0
2, 55249, Control_c, 0, 64, 51
2, 55265, Control_c, 0, 64, 50
2, 55280, Control_c, 0, 64, 49
2, 55296, Control_c, 0, 64, 47
2, 55311, Control_c, 0, 64, 23
2, 55326, Control_c, 0, 64, 0
2, 55326, Note_on_c, 0, 65, 0
2, 55346, Note_on_c, 0, 50, 0
2, 55349, Note_on_c, 0, 57, 75
2, 55358, Note_on_c, 0, 74, 0
2, 55433, Control_c, 0, 64, 46
2, 55447, Control_c, 0, 64, 56
2, 55463, Control_c, 0, 64, 62
2, 55478, Control_c, 0, 64, 64
2, 55478, Note_on_c, 0, 74, 68
2, 55485, Note_on_c, 0, 65, 64
2, 55492, Control_c, 0, 64, 66
2, 55508, Control_c, 0, 64, 68
2, 55524, Control_c, 0, 64, 70
2, 55533, Note_on_c, 0, 65, 0
2, 55540, Control_c, 0, 64, 72
2, 55555, Control_c, 0, 64, 73
2, 55569, Control_c, 0, 64, 74
2, 55585, Control_c, 0, 64, 74
2, 55630, Control_c, 0, 64, 73
2, 55635, Note_on_c, 0, 45, 65
2, 55643, Note_on_c, 0, 73, 80
2, 55645, Control_c, 0, 64, 69
2, 55660, Note_on_c, 0, 64, 61
2, 55661, Control_c, 0, 64, 59
2, 55675, Control_c, 0, 64, 0
2, 55699, Note_on_c, 0, 64, 0
2, 55706, Control_c, 0, 64, 54
2, 55720, Control_c, 0, 64, 65
2, 55736, Control_c, 0, 64, 70
2, 55751, Control_c, 0, 64, 74
2, 55766, Control_c, 0, 64, 76
2, 55766, Note_on_c, 0, 74, 0
2, 55782, Control_c, 0, 64, 77
2, 55791, Note_on_c, 0, 71, 80
2, 55796, Note_on_c, 0, 62, 72
2, 55800, Note_on_c, 0, 45, 0
2, 55836, Note_on_c, 0, 73, 0
2, 55839, Note_on_c, 0, 62, 0
2, 55947, Note_on_c, 0, 57, 0
2, 55956, Control_c, 0, 64, 76
2, 55961, Note_on_c, 0, 73, 79
2, 55971, Control_c, 0, 64, 75
2, 55978, Note_on_c, 0, 64, 67
2, 55978, Note_on_c, 0, 69, 67
2, 55987, Control_c, 0, 64, 71
2, 56002, Control_c, 0, 64, 65
2, 56003, Note_on_c, 0, 71, 0
2, 56017, Control_c, 0, 64, 53
2, 56032, Control_c, 0, 64, 0
2, 56103, Note_on_c, 0, 55, 51
2, 56248, Note_on_c, 0, 55, 0
2, 56259, Note_on_c, 0, 57, 63
2, 56393, Note_on_c, 0, 57, 0
2, 56405, Note_on_c, 0, 58, 68
2, 56530, Note_on_c, 0, 58, 0
2, 56551, Note_on_c, 0, 57, 60
2, 56680, Note_on_c, 0, 57, 0
2, 56683, Note_on_c, 0, 55, 62
2, 56726, Note_on_c, 0, 64, 0
2, 56802, Note_on_c, 0, 69, 0
2, 56827, Note_on_c, 0, 55, 0
2, 56839, Note_on_c, 0, 53, 62
2, 56949, Note_on_c, 0, 73, 0
2, 56978, Note_on_c, 0, 53, 0
2, 56986, Note_on_c, 0, 52, 60
2, 57145, Note_on_c, 0, 53, 52
2, 57154, Note_on_c, 0, 52, 0
2, 57258, Note_on_c, 0, 73, 53
2, 57413, Note_on_c, 0, 74, 58
2, 57458, Note_on_c, 0, 73, 0
2, 57558, Note_on_c, 0, 76, 65
2, 57573, Note_on_c, 0, 74, 0
2, 57705, Note_on_c, 0, 74, 65
2, 57707, Note_on_c, 0, 57, 55
2, 57723, Note_on_c, 0, 76, 0
2, 57850, Note_on_c, 0, 72, 73
2, 57879, Note_on_c, 0, 74, 0
2, 57994, Note_on_c, 0, 70, 71
2, 58029, Note_on_c, 0, 72, 0
2, 58129, Note_on_c, 0, 69, 67
2, 58130, Note_on_c, 0, 70, 0
2, 58270, Note_on_c, 0, 70, 71
2, 58280, Note_on_c, 0, 69, 0
2, 58291, Note_on_c, 0, 62, 58
2, 58389, Note_on_c, 0, 53, 0
2, 58407, Note_on_c, 0, 69, 72
2, 58477, Note_on_c, 0, 70, 0
2, 58546, Note_on_c, 0, 67, 75
2, 58550, Note_on_c, 0, 69, 0
2, 58682, Note_on_c, 0, 67, 0
2, 58687, Note_on_c, 0, 65, 69
2, 58826, Note_on_c, 0, 62, 0
2, 58842, Note_on_c, 0, 65, 0
2, 58843, Note_on_c, 0, 67, 74
2, 58848, Note_on_c, 0, 52, 52
2, 58884, Note_on_c, 0, 57, 0
2, 58995, Note_on_c, 0, 65, 60
2, 59131, Note_on_c, 0, 65, 0
2, 59149, Note_on_c, 0, 64, 58
2, 59276, Note_on_c, 0, 64, 0
2, 59295, Note_on_c, 0, 62, 52
2, 59422, Note_on_c, 0, 62, 0
2, 59431, Note_on_c, 0, 64, 55
2, 59566, Note_on_c, 0, 62, 54
2, 59705, Note_on_c, 0, 62, 0
2, 59714, Note_on_c, 0, 61, 53
2, 59860, Note_on_c, 0, 61, 0
2, 59865, Note_on_c, 0, 59, 55
2, 60005, Note_on_c, 0, 59, 0
2, 60016, Note_on_c, 0, 61, 52
2, 60162, Note_on_c, 0, 52, 0
2, 60173, Note_on_c, 0, 55, 48
2, 60306, Note_on_c, 0, 55, 0
2, 60315, Note_on_c, 0, 57, 65
2, 60448, Note_on_c, 0, 57, 0
2, 60450, Note_on_c, 0, 58, 76
2, 60582, Note_on_c, 0, 58, 0
2, 60589, Note_on_c, 0, 57, 68
2, 60695, Note_on_c, 0, 67, 0
2, 60721, Note_on_c, 0, 57, 0
2, 60722, Note_on_c, 0, 55, 69
2, 60874, Note_on_c, 0, 61, 0
2, 60881, Note_on_c, 0, 53, 72
2, 60887, Note_on_c, 0, 55, 0
2, 61016, Note_on_c, 0, 53, 0
2, 61025, Note_on_c, 0, 52, 70
2, 61157, Note_on_c, 0, 52, 0
2, 61169, Note_on_c, 0, 65, 70
2, 61171, Note_on_c, 0, 53, 69
2, 61181, Note_on_c, 0, 57, 57
2, 61181, Note_on_c, 0, 62, 65
2, 61311, Note_on_c, 0, 53, 0
2, 61318, Note_on_c, 0, 52, 62
2, 61324, Note_on_c, 0, 64, 0
2, 61467, Note_on_c, 0, 50, 69
2, 61471, Note_on_c, 0, 52, 0
2, 61601, Note_on_c, 0, 50, 0
2, 61617, Note_on_c, 0, 49, 66
2, 61758, Note_on_c, 0, 49, 0
2, 61771, Note_on_c, 0, 50, 68
2, 61896, Note_on_c, 0, 50, 0
2, 61901, Note_on_c, 0, 48, 66
2, 62068, Note_on_c, 0, 48, 0
2, 62069, Note_on_c, 0, 47, 67
2, 62187, Note_on_c, 0, 47, 0
2, 62199, Note_on_c, 0, 45, 61
2, 62210, Note_on_c, 0, 62, 0
2, 62362, Note_on_c, 0, 47, 62
2, 62375, Note_on_c, 0, 45, 0
2, 62457, Note_on_c, 0, 57, 0
2, 62494, Note_on_c, 0, 60, 54
2, 62642, Note_on_c, 0, 59, 58
2, 62653, Note_on_c, 0, 60, 0
2, 62787, Note_on_c, 0, 59, 0
2, 62789, Note_on_c, 0, 57, 61
2, 62939, Note_on_c, 0, 56, 65
2, 62968, Note_on_c, 0, 57, 0
2, 63060, Note_on_c, 0, 48, 59
2, 63166, Note_on_c, 0, 47, 0
2, 63200, Note_on_c, 0, 50, 64
2, 63202, Note_on_c, 0, 48, 0
2, 63222, Note_on_c, 0, 57, 67
2, 63227, Note_on_c, 0, 56, 0
2, 63349, Note_on_c, 0, 50, 0
2, 63354, Note_on_c, 0, 52, 63
2, 63493, Note_on_c, 0, 50, 63
2, 63493, Note_on_c, 0, 52, 0
2, 63513, Note_on_c, 0, 59, 62
2, 63521, Note_on_c, 0, 57, 0
2, 63639, Note_on_c, 0, 50, 0
2, 63646, Note_on_c, 0, 48, 60
2, 63798, Note_on_c, 0, 47, 58
2, 63813, Note_on_c, 0, 48, 0
2, 63862, Control_c, 0, 64, 37
2, 63877, Control_c, 0, 64, 51
2, 63892, Control_c, 0, 64, 58
2, 63908, Control_c, 0, 64, 63
2, 63923, Control_c, 0, 64, 66
2, 63930, Note_on_c, 0, 45, 59
2, 63937, Control_c, 0, 64, 69
2, 63953, Control_c, 0, 64, 72
2, 63961, Note_on_c, 0, 47, 0
2, 63968, Control_c, 0, 64, 75
2, 63975, Note_on_c, 0, 45, 0
2, 63984, Control_c, 0, 64, 76
2, 63999, Control_c, 0, 64, 77
2, 64014, Control_c, 0, 64, 78
2, 64075, Control_c, 0, 64, 77
2, 64084, Note_on_c, 0, 44, 61
2, 64090, Control_c, 0, 64, 75
2, 64106, Control_c, 0, 64, 72
2, 64121, Control_c, 0, 64, 68
2, 64129, Note_on_c, 0, 59, 0
2, 64136, Control_c, 0, 64, 61
2, 64140, Note_on_c, 0, 65, 0
2, 64151, Control_c, 0, 64, 50
2, 64166, Control_c, 0, 64, 46
2, 64182, Control_c, 0, 64, 46
2, 64212, Control_c, 0, 64, 45
2, 64220, Note_on_c, 0, 50, 56
2, 64227, Control_c, 0, 64, 42
2, 64242, Control_c, 0, 64, 39
2, 64257, Control_c, 0, 64, 38
2, 64273, Control_c, 0, 64, 37
2, 64318, Control_c, 0, 64, 36
2, 64366, Note_on_c, 0, 50, 0
2, 64379, Note_on_c, 0, 52, 63
2, 64529, Note_on_c, 0, 52, 0
2, 64529, Note_on_c, 0, 53, 59
2, 64555, Control_c, 0, 64, 36
2, 64585, Control_c, 0, 64, 35
2, 64615, Control_c, 0, 64, 34
2, 64646, Control_c, 0, 64, 34
2, 64658, Note_on_c, 0, 53, 0
2, 64663, Note_on_c, 0, 52, 63
2, 64676, Control_c, 0, 64, 33
2, 64691, Control_c, 0, 64, 32
2, 64789, Note_on_c, 0, 57, 56
2, 64813, Control_c, 0, 64, 32
2, 64829, Control_c, 0, 64, 31
2, 64874, Control_c, 0, 64, 30
2, 64929, Note_on_c, 0, 57, 0
2, 64936, Note_on_c, 0, 59, 60
2, 64950, Control_c, 0, 64, 29
2, 65080, Note_on_c, 0, 59, 0
2, 65081, Note_on_c, 0, 60, 65
2, 65086, Control_c, 0, 64, 29
2, 65124, Control_c, 0, 64, 28
2, 65200, Control_c, 0, 64, 27
2, 65234, Note_on_c, 0, 60, 0
2, 65245, Note_on_c, 0, 59, 66
2, 65246, Control_c, 0, 64, 25
2, 65260, Control_c, 0, 64, 24
2, 65276, Control_c, 0, 64, 23
2, 65322, Control_c, 0, 64, 21
2, 65353, Control_c, 0, 64, 20
2, 65368, Control_c, 0, 64, 18
2, 65375, Note_on_c, 0, 61, 67
2, 65399, Control_c, 0, 64, 17
2, 65429, Control_c, 0, 64, 15
2, 65440, Note_on_c, 0, 44, 0
2, 65444, Control_c, 0, 64, 10
2, 65459, Control_c, 0, 64, 0
2, 65514, Note_on_c, 0, 62, 70
2, 65522, Note_on_c, 0, 61, 0
2, 65667, Note_on_c, 0, 64, 66
2, 65681, Note_on_c, 0, 59, 0
2, 65700, Note_on_c, 0, 62, 0
2, 65823, Note_on_c, 0, 61, 71
2, 65823, Note_on_c, 0, 64, 0
2, 65826, Note_on_c, 0, 57, 62
2, 65832, Note_on_c, 0, 43, 54
2, 65966, Note_on_c, 0, 64, 69
2, 66095, Note_on_c, 0, 52, 0
2, 66121, Note_on_c, 0, 65, 73
2, 66152, Note_on_c, 0, 64, 0
2, 66183, Control_c, 0, 64, 34
2, 66197, Control_c, 0, 64, 61
2, 66212, Control_c, 0, 64, 64
2, 66228, Control_c, 0, 64, 67
2, 66243, Control_c, 0, 64, 70
2, 66245, Note_on_c, 0, 67, 78
2, 66258, Control_c, 0, 64, 73
2, 66273, Control_c, 0, 64, 76
2, 66284, Note_on_c, 0, 65, 0
2, 66288, Control_c, 0, 64, 78
2, 66293, Note_on_c, 0, 57, 0
2, 66304, Control_c, 0, 64, 79
2, 66318, Control_c, 0, 64, 80
2, 66324, Note_on_c, 0, 61, 0
2, 66328, Note_on_c, 0, 67, 0
2, 66397, Note_on_c, 0, 69, 82
2, 66409, Control_c, 0, 64, 79
2, 66425, Control_c, 0, 64, 78
2, 66440, Control_c, 0, 64, 75
2, 66455, Control_c, 0, 64, 71
2, 66470, Control_c, 0, 64, 65
2, 66485, Control_c, 0, 64, 49
2, 66500, Control_c, 0, 64, 15
2, 66516, Control_c, 0, 64, 0
2, 66535, Note_on_c, 0, 43, 0
2, 66546, Control_c, 0, 64, 10
2, 66548, Note_on_c, 0, 59, 60
2, 66553, Note_on_c, 0, 53, 55
2, 66576, Control_c, 0, 64, 0
2, 66660, Control_c, 0, 64, 10
2, 66685, Note_on_c, 0, 53, 0
2, 66689, Note_on_c, 0, 61, 65
2, 66690, Control_c, 0, 64, 13
2, 66695, Note_on_c, 0, 52, 60
2, 66766, Control_c, 0, 64, 15
2, 66797, Control_c, 0, 64, 17
2, 66805, Note_on_c, 0, 59, 0
2, 66824, Note_on_c, 0, 50, 54
2, 66826, Note_on_c, 0, 52, 0
2, 66827, Note_on_c, 0, 62, 62
2, 66842, Control_c, 0, 64, 18
2, 66843, Note_on_c, 0, 61, 0
2, 66857, Control_c, 0, 64, 20
2, 66873, Control_c, 0, 64, 23
2, 66887, Control_c, 0, 64, 24
2, 66903, Control_c, 0, 64, 25
2, 66918, Control_c, 0, 64, 26
2, 66932, Control_c, 0, 64, 29
2, 66948, Control_c, 0, 64, 32
2, 66963, Control_c, 0, 64, 35
2, 66975, Note_on_c, 0, 62, 0
2, 66978, Control_c, 0, 64, 39
2, 66978, Note_on_c, 0, 64, 59
2, 66980, Note_on_c, 0, 49, 58
2, 66991, Note_on_c, 0, 50, 0
2, 66995, Control_c, 0, 64, 42
2, 67010, Control_c, 0, 64, 47
2, 67026, Control_c, 0, 64, 50
2, 67040, Control_c, 0, 64, 54
2, 67055, Control_c, 0, 64, 58
2, 67071, Control_c, 0, 64, 60
2, 67087, Control_c, 0, 64, 63
2, 67102, Control_c, 0, 64, 64
2, 67117, Control_c, 0, 64, 65
2, 67132, Control_c, 0, 64, 67
2, 67142, Note_on_c, 0, 46, 59
2, 67147, Note_on_c, 0, 49, 0
2, 67148, Control_c, 0, 64, 68
2, 67162, Control_c, 0, 64, 69
2, 67177, Control_c, 0, 64, 70
2, 67193, Control_c, 0, 64, 70
2, 67212, Note_on_c, 0, 46, 0
2, 67280, Note_on_c, 0, 45, 61
2, 67284, Control_c, 0, 64, 70
2, 67299, Control_c, 0, 64, 69
2, 67315, Control_c, 0, 64, 67
2, 67330, Control_c, 0, 64, 64
2, 67346, Control_c, 0, 64, 61
2, 67360, Control_c, 0, 64, 58
2, 67375, Control_c, 0, 64, 56
2, 67391, Control_c, 0, 64, 55
2, 67401, Note_on_c, 0, 45, 0
2, 67406, Control_c, 0, 64, 53
2, 67428, Note_on_c, 0, 43, 60
2, 67429, Control_c, 0, 64, 50
2, 67434, Note_on_c, 0, 69, 0
2, 67444, Control_c, 0, 64, 46
2, 67458, Control_c, 0, 64, 41
2, 67474, Control_c, 0, 64, 37
2, 67489, Control_c, 0, 64, 36
2, 67505, Control_c, 0, 64, 35
2, 67519, Control_c, 0, 64, 34
2, 67534, Control_c, 0, 64, 31
2, 67550, Control_c, 0, 64, 29
2, 67565, Control_c, 0, 64, 27
2, 67585, Note_on_c, 0, 43, 0
2, 67592, Note_on_c, 0, 41, 58
2, 67708, Note_on_c, 0, 64, 0
2, 67732, Control_c, 0, 64, 28
2, 67736, Note_on_c, 0, 67, 53
2, 67748, Control_c, 0, 64, 29
2, 67763, Control_c, 0, 64, 29
2, 67777, Control_c, 0, 64, 31
2, 67793, Control_c, 0, 64, 33
2, 67809, Control_c, 0, 64, 39
2, 67825, Control_c, 0, 64, 47
2, 67840, Control_c, 0, 64, 54
2, 67855, Control_c, 0, 64, 60
2, 67871, Control_c, 0, 64, 63
2, 67874, Note_on_c, 0, 70, 68
2, 67878, Note_on_c, 0, 50, 52
2, 67885, Control_c, 0, 64, 65
2, 67900, Control_c, 0, 64, 66
2, 67916, Control_c, 0, 64, 68
2, 67930, Control_c, 0, 64, 69
2, 67946, Control_c, 0, 64, 70
2, 67961, Control_c, 0, 64, 70
2, 67961, Note_on_c, 0, 67, 0
2, 67992, Control_c, 0, 64, 71
2, 68013, Note_on_c, 0, 41, 0
2, 68024, Note_on_c, 0, 69, 74
2, 68055, Note_on_c, 0, 50, 0
2, 68068, Control_c, 0, 64, 70
2, 68097, Control_c, 0, 64, 70
2, 68113, Control_c, 0, 64, 69
2, 68128, Control_c, 0, 64, 67
2, 68144, Control_c, 0, 64, 64
2, 68158, Control_c, 0, 64, 57
2, 68165, Note_on_c, 0, 67, 75
2, 68166, Note_on_c, 0, 62, 64
2, 68168, Note_on_c, 0, 43, 56
2, 68168, Note_on_c, 0, 70, 0
2, 68170, Note_on_c, 0, 52, 59
2, 68173, Control_c, 0, 64, 49
2, 68197, Control_c, 0, 64, 45
2, 68212, Control_c, 0, 64, 44
2, 68213, Note_on_c, 0, 69, 0
2, 68227, Control_c, 0, 64, 43
2, 68242, Control_c, 0, 64, 42
2, 68257, Control_c, 0, 64, 40
2, 68273, Control_c, 0, 64, 39
2, 68294, Note_on_c, 0, 62, 0
2, 68312, Note_on_c, 0, 65, 73
2, 68393, Note_on_c, 0, 67, 0
2, 68394, Control_c, 0, 64, 39
2, 68425, Control_c, 0, 64, 40
2, 68447, Note_on_c, 0, 53, 63
2, 68449, Note_on_c, 0, 65, 0
2, 68453, Note_on_c, 0, 64, 68
2, 68470, Note_on_c, 0, 52, 0
2, 68516, Note_on_c, 0, 43, 0
2, 68585, Note_on_c, 0, 64, 0
2, 68592, Control_c, 0, 64, 39
2, 68598, Note_on_c, 0, 62, 70
2, 68653, Control_c, 0, 64, 39
2, 68729, Control_c, 0, 64, 38
2, 68729, Note_on_c, 0, 53, 0
2, 68745, Note_on_c, 0, 55, 54
2, 68745, Note_on_c, 0, 62, 0
2, 68747, Note_on_c, 0, 61, 69
2, 68749, Note_on_c, 0, 45, 46
2, 68774, Control_c, 0, 64, 38
2, 68820, Control_c, 0, 64, 37
2, 68850, Control_c, 0, 64, 37
2, 68866, Control_c, 0, 64, 36
2, 68881, Control_c, 0, 64, 36
2, 68883, Note_on_c, 0, 64, 62
2, 68896, Control_c, 0, 64, 34
2, 68912, Control_c, 0, 64, 34
2, 68926, Control_c, 0, 64, 33
2, 68965, Control_c, 0, 64, 32
2, 68980, Control_c, 0, 64, 32
2, 68993, Note_on_c, 0, 45, 0
2, 69010, Control_c, 0, 64, 31
2, 69036, Note_on_c, 0, 57, 59
2, 69042, Note_on_c, 0, 65, 66
2, 69063, Note_on_c, 0, 55, 0
2, 69071, Control_c, 0, 64, 30
2, 69128, Note_on_c, 0, 61, 0
2, 69132, Control_c, 0, 64, 29
2, 69162, Control_c, 0, 64, 29
2, 69173, Note_on_c, 0, 67, 67
2, 69177, Control_c, 0, 64, 28
2, 69195, Note_on_c, 0, 64, 0
2, 69207, Control_c, 0, 64, 27
2, 69223, Control_c, 0, 64, 26
2, 69238, Control_c, 0, 64, 25
2, 69253, Control_c, 0, 64, 24
2, 69269, Control_c, 0, 64, 23
2, 69283, Control_c, 0, 64, 21
2, 69284, Note_on_c, 0, 65, 0
2, 69298, Control_c, 0, 64, 20
2, 69314, Control_c, 0, 64, 18
2, 69314, Note_on_c, 0, 57, 0
2, 69318, Note_on_c, 0, 62, 60
2, 69329, Note_on_c, 0, 50, 47
2, 69330, Note_on_c, 0, 58, 57
2, 69338, Note_on_c, 0, 67, 0
2, 69345, Control_c, 0, 64, 17
2, 69375, Control_c, 0, 64, 15
2, 69405, Control_c, 0, 64, 13
2, 69436, Control_c, 0, 64, 10
2, 69467, Control_c, 0, 64, 0
2, 69471, Note_on_c, 0, 67, 59
2, 69603, Note_on_c, 0, 58, 0
2, 69616, Note_on_c, 0, 57, 54
2, 69616, Note_on_c, 0, 67, 0
2, 69638, Note_on_c, 0, 65, 56
2, 69740, Note_on_c, 0, 57, 0
2, 69763, Note_on_c, 0, 55, 51
2, 69777, Note_on_c, 0, 64, 52
2, 69808, Note_on_c, 0, 65, 0
2, 69918, Note_on_c, 0, 55, 0
2, 69919, Note_on_c, 0, 57, 49
2, 69924, Note_on_c, 0, 65, 59
2, 69927, Note_on_c, 0, 62, 0
2, 69934, Note_on_c, 0, 64, 0
2, 70071, Note_on_c, 0, 64, 55
2, 70221, Note_on_c, 0, 62, 56
2, 70232, Note_on_c, 0, 64, 0
2, 70351, Note_on_c, 0, 62, 0
2, 70358, Note_on_c, 0, 61, 53
2, 70528, Note_on_c, 0, 62, 52
2, 70540, Note_on_c, 0, 61, 0
2, 70641, Note_on_c, 0, 57, 0
2, 70686, Note_on_c, 0, 60, 45
2, 70760, Note_on_c, 0, 65, 0
2, 70811, Note_on_c, 0, 60, 0
2, 70819, Note_on_c, 0, 58, 56
2, 70977, Note_on_c, 0, 57, 59
2, 70990, Note_on_c, 0, 58, 0
2, 71007, Note_on_c, 0, 50, 0
2, 71115, Note_on_c, 0, 57, 0
2, 71117, Note_on_c, 0, 58, 64
2, 71257, Note_on_c, 0, 50, 57
2, 71268, Note_on_c, 0, 65, 60
2, 71310, Note_on_c, 0, 58, 0
2, 71341, Note_on_c, 0, 62, 0
2, 71410, Note_on_c, 0, 52, 59
2, 71411, Note_on_c, 0, 67, 69
2, 71437, Note_on_c, 0, 65, 0
2, 71445, Note_on_c, 0, 50, 0
2, 71558, Note_on_c, 0, 53, 64
2, 71562, Note_on_c, 0, 69, 73
2, 71565, Note_on_c, 0, 52, 0
2, 71587, Note_on_c, 0, 67, 0
2, 71691, Note_on_c, 0, 53, 0
2, 71695, Note_on_c, 0, 70, 76
2, 71707, Note_on_c, 0, 55, 63
2, 71715, Note_on_c, 0, 69, 0
2, 71844, Note_on_c, 0, 62, 57
2, 71991, Note_on_c, 0, 64, 61
2, 71992, Note_on_c, 0, 55, 0
2, 71993, Note_on_c, 0, 57, 47
2, 71994, Note_on_c, 0, 62, 0
2, 71996, Note_on_c, 0, 53, 49
2, 72140, Note_on_c, 0, 65, 56
2, 72159, Note_on_c, 0, 64, 0
2, 72274, Note_on_c, 0, 53, 0
2, 72285, Note_on_c, 0, 67, 62
2, 72289, Note_on_c, 0, 57, 0
2, 72291, Note_on_c, 0, 70, 0
2, 72300, Note_on_c, 0, 65, 0
2, 72301, Note_on_c, 0, 55, 53
2, 72430, Note_on_c, 0, 55, 0
2, 72444, Note_on_c, 0, 52, 38
2, 72480, Note_on_c, 0, 53, 29
2, 72520, Note_on_c, 0, 53, 0
2, 72579, Note_on_c, 0, 50, 56
2, 72581, Note_on_c, 0, 64, 56
2, 72623, Note_on_c, 0, 67, 0
2, 72630, Note_on_c, 0, 52, 0
2, 72709, Note_on_c, 0, 50, 0
2, 72713, Note_on_c, 0, 48, 59
2, 72856, Note_on_c, 0, 48, 0
2, 72883, Note_on_c, 0, 60, 57
2, 72890, Note_on_c, 0, 55, 49
2, 72906, Note_on_c, 0, 53, 37
2, 72927, Control_c, 0, 64, 34
2, 72933, Note_on_c, 0, 64, 0
2, 72943, Control_c, 0, 64, 52
2, 72958, Control_c, 0, 64, 61
2, 72972, Control_c, 0, 64, 65
2, 72988, Control_c, 0, 64, 67
2, 73003, Control_c, 0, 64, 70
2, 73018, Note_on_c, 0, 70, 63
2, 73019, Control_c, 0, 64, 72
2, 73034, Control_c, 0, 64, 75
2, 73049, Control_c, 0, 64, 76
2, 73064, Control_c, 0, 64, 77
2, 73069, Note_on_c, 0, 53, 0
2, 73075, Note_on_c, 0, 55, 0
2, 73094, Control_c, 0, 64, 77
2, 73179, Note_on_c, 0, 41, 58
2, 73181, Note_on_c, 0, 53, 57
2, 73186, Control_c, 0, 64, 77
2, 73190, Note_on_c, 0, 69, 62
2, 73201, Control_c, 0, 64, 75
2, 73216, Control_c, 0, 64, 73
2, 73226, Note_on_c, 0, 70, 0
2, 73231, Control_c, 0, 64, 69
2, 73246, Control_c, 0, 64, 64
2, 73261, Control_c, 0, 64, 51
2, 73276, Control_c, 0, 64, 39
2, 73282, Note_on_c, 0, 60, 0
2, 73291, Control_c, 0, 64, 39
2, 73307, Control_c, 0, 64, 40
2, 73317, Note_on_c, 0, 53, 0
2, 73327, Note_on_c, 0, 67, 65
2, 73330, Note_on_c, 0, 52, 62
2, 73332, Note_on_c, 0, 69, 0
2, 73337, Control_c, 0, 64, 39
2, 73352, Control_c, 0, 64, 38
2, 73367, Control_c, 0, 64, 35
2, 73368, Note_on_c, 0, 41, 0
2, 73383, Control_c, 0, 64, 34
2, 73413, Control_c, 0, 64, 33
2, 73443, Control_c, 0, 64, 32
2, 73451, Note_on_c, 0, 67, 0
2, 73457, Note_on_c, 0, 52, 0
2, 73459, Control_c, 0, 64, 31
2, 73459, Note_on_c, 0, 69, 71
2, 73463, Note_on_c, 0, 53, 67
2, 73489, Control_c, 0, 64, 30
2, 73505, Control_c, 0, 64, 29
2, 73536, Control_c, 0, 64, 29
2, 73551, Control_c, 0, 64, 28
2, 73589, Control_c, 0, 64, 27
2, 73621, Note_on_c, 0, 67, 55
2, 73649, Control_c, 0, 64, 26
2, 73694, Control_c, 0, 64, 25
2, 73756, Note_on_c, 0, 57, 49
2, 73770, Note_on_c, 0, 65, 56
2, 73781, Note_on_c, 0, 67, 0
2, 73801, Control_c, 0, 64, 24
2, 73900, Note_on_c, 0, 65, 0
2, 73909, Note_on_c, 0, 64, 55
2, 73939, Control_c, 0, 64, 25
2, 74023, Note_on_c, 0, 57, 0
2, 74061, Control_c, 0, 64, 24
2, 74065, Note_on_c, 0, 64, 0
2, 74065, Note_on_c, 0, 65, 59
2, 74091, Control_c, 0, 64, 23
2, 74106, Control_c, 0, 64, 21
2, 74137, Control_c, 0, 64, 20
2, 74152, Control_c, 0, 64, 18
2, 74182, Control_c, 0, 64, 17
2, 74195, Note_on_c, 0, 64, 56
2, 74197, Control_c, 0, 64, 15
2, 74212, Control_c, 0, 64, 13
2, 74242, Control_c, 0, 64, 10
2, 74318, Control_c, 0, 64, 0
2, 74347, Note_on_c, 0, 62, 64
2, 74355, Note_on_c, 0, 64, 0
2, 74452, Note_on_c, 0, 65, 0
2, 74482, Note_on_c, 0, 61, 62
2, 74507, Note_on_c, 0, 62, 0
2, 74533, Note_on_c, 0, 69, 0
2, 74630, Note_on_c, 0, 61, 0
2, 74637, Note_on_c, 0, 62, 69
2, 74656, Note_on_c, 0, 53, 0
2, 74780, Note_on_c, 0, 53, 59
2, 74784, Note_on_c, 0, 69, 73
2, 74918, Note_on_c, 0, 62, 0
2, 74920, Note_on_c, 0, 70, 77
2, 74926, Note_on_c, 0, 55, 62
2, 74974, Note_on_c, 0, 69, 0
2, 75058, Note_on_c, 0, 53, 0
2, 75066, Note_on_c, 0, 57, 66
2, 75070, Note_on_c, 0, 72, 81
2, 75111, Note_on_c, 0, 70, 0
2, 75218, Note_on_c, 0, 58, 69
2, 75224, Note_on_c, 0, 74, 81
2, 75225, Note_on_c, 0, 57, 0
2, 75235, Note_on_c, 0, 55, 0
2, 75257, Note_on_c, 0, 72, 0
2, 75362, Note_on_c, 0, 65, 68
2, 75506, Note_on_c, 0, 57, 49
2, 75506, Note_on_c, 0, 58, 0
2, 75507, Note_on_c, 0, 67, 64
2, 75513, Note_on_c, 0, 65, 0
2, 75520, Note_on_c, 0, 60, 49
2, 75643, Note_on_c, 0, 69, 62
2, 75682, Note_on_c, 0, 67, 0
2, 75763, Note_on_c, 0, 57, 0
2, 75780, Note_on_c, 0, 58, 56
2, 75798, Note_on_c, 0, 70, 60
2, 75820, Note_on_c, 0, 69, 0
2, 75826, Note_on_c, 0, 60, 0
2, 75938, Note_on_c, 0, 55, 54
2, 75940, Note_on_c, 0, 58, 0
2, 76086, Note_on_c, 0, 53, 61
2, 76095, Note_on_c, 0, 67, 60
2, 76135, Control_c, 0, 64, 17
2, 76150, Control_c, 0, 64, 29
2, 76165, Control_c, 0, 64, 38
2, 76165, Note_on_c, 0, 70, 0
2, 76180, Control_c, 0, 64, 45
2, 76196, Control_c, 0, 64, 50
2, 76210, Note_on_c, 0, 55, 0
2, 76211, Control_c, 0, 64, 56
2, 76212, Note_on_c, 0, 74, 0
2, 76217, Note_on_c, 0, 52, 61
2, 76226, Control_c, 0, 64, 59
2, 76241, Control_c, 0, 64, 61
2, 76252, Note_on_c, 0, 53, 0
2, 76256, Control_c, 0, 64, 63
2, 76272, Control_c, 0, 64, 64
2, 76287, Control_c, 0, 64, 65
2, 76301, Control_c, 0, 64, 66
2, 76317, Control_c, 0, 64, 67
2, 76332, Control_c, 0, 64, 68
2, 76345, Note_on_c, 0, 52, 0
2, 76348, Control_c, 0, 64, 69
2, 76379, Note_on_c, 0, 57, 60
2, 76379, Note_on_c, 0, 64, 64
2, 76387, Note_on_c, 0, 58, 58
2, 76393, Control_c, 0, 64, 68
2, 76408, Control_c, 0, 64, 66
2, 76424, Control_c, 0, 64, 64
2, 76453, Control_c, 0, 64, 65
2, 76469, Control_c, 0, 64, 66
2, 76480, Note_on_c, 0, 57, 0
2, 76483, Control_c, 0, 64, 67
2, 76498, Control_c, 0, 64, 69
2, 76514, Control_c, 0, 64, 70
2, 76514, Note_on_c, 0, 74, 72
2, 76523, Note_on_c, 0, 67, 0
2, 76527, Note_on_c, 0, 58, 0
2, 76529, Control_c, 0, 64, 72
2, 76545, Control_c, 0, 64, 72
2, 76560, Control_c, 0, 64, 73
2, 76575, Control_c, 0, 64, 73
2, 76621, Control_c, 0, 64, 73
2, 76643, Control_c, 0, 64, 72
2, 76658, Control_c, 0, 64, 70
2, 76667, Note_on_c, 0, 72, 74
2, 76668, Note_on_c, 0, 45, 64
2, 76669, Note_on_c, 0, 57, 62
2, 76674, Control_c, 0, 64, 66
2, 76689, Control_c, 0, 64, 60
2, 76704, Control_c, 0, 64, 44
2, 76719, Control_c, 0, 64, 36
2, 76734, Control_c, 0, 64, 36
2, 76750, Control_c, 0, 64, 38
2, 76752, Note_on_c, 0, 74, 0
2, 76758, Note_on_c, 0, 64, 0
2, 76765, Control_c, 0, 64, 39
2, 76780, Control_c, 0, 64, 40
2, 76787, Note_on_c, 0, 57, 0
2, 76796, Control_c, 0, 64, 42
2, 76806, Note_on_c, 0, 70, 71
2, 76810, Control_c, 0, 64, 43
2, 76813, Note_on_c, 0, 55, 62
2, 76826, Note_on_c, 0, 72, 0
2, 76827, Control_c, 0, 64, 46
2, 76842, Control_c, 0, 64, 48
2, 76857, Control_c, 0, 64, 51
2, 76872, Control_c, 0, 64, 53
2, 76887, Control_c, 0, 64, 54
2, 76918, Control_c, 0, 64, 53
2, 76933, Control_c, 0, 64, 53
2, 76934, Note_on_c, 0, 45, 0
2, 76956, Note_on_c, 0, 55, 0
2, 76960, Note_on_c, 0, 70, 0
2, 76963, Control_c, 0, 64, 52
2, 76964, Note_on_c, 0, 72, 57
2, 76965, Note_on_c, 0, 57, 62
2, 76978, Control_c, 0, 64, 51
2, 76994, Control_c, 0, 64, 49
2, 77009, Control_c, 0, 64, 48
2, 77025, Control_c, 0, 64, 47
2, 77040, Control_c, 0, 64, 45
2, 77055, Control_c, 0, 64, 44
2, 77070, Control_c, 0, 64, 44
2, 77085, Control_c, 0, 64, 43
2, 77099, Note_on_c, 0, 70, 62
2, 77100, Control_c, 0, 64, 43
2, 77116, Control_c, 0, 64, 42
2, 77146, Control_c, 0, 64, 42
2, 77161, Control_c, 0, 64, 41
2, 77192, Control_c, 0, 64, 41
2, 77237, Note_on_c, 0, 69, 60
2, 77239, Note_on_c, 0, 60, 57
2, 77395, Note_on_c, 0, 67, 59
2, 77395, Note_on_c, 0, 70, 0
2, 77409, Note_on_c, 0, 69, 0
2, 77493, Note_on_c, 0, 60, 0
2, 77503, Control_c, 0, 64, 41
2, 77544, Note_on_c, 0, 67, 0
2, 77553, Note_on_c, 0, 69, 59
2, 77679, Note_on_c, 0, 67, 58
2, 77762, Control_c, 0, 64, 42
2, 77829, Note_on_c, 0, 65, 68
2, 77831, Note_on_c, 0, 67, 0
2, 77853, Control_c, 0, 64, 42
2, 77865, Note_on_c, 0, 69, 0
2, 77948, Note_on_c, 0, 72, 0
2, 77972, Note_on_c, 0, 64, 68
2, 77983, Note_on_c, 0, 65, 0
2, 78100, Note_on_c, 0, 64, 0
2, 78110, Note_on_c, 0, 65, 73
2, 78112, Control_c, 0, 64, 42
2, 78116, Note_on_c, 0, 57, 0
2, 78157, Control_c, 0, 64, 41
2, 78195, Control_c, 0, 64, 41
2, 78226, Control_c, 0, 64, 40
2, 78241, Control_c, 0, 64, 40
2, 78255, Control_c, 0, 64, 39
2, 78263, Note_on_c, 0, 72, 82
2, 78265, Note_on_c, 0, 57, 67
2, 78271, Control_c, 0, 64, 39
2, 78286, Control_c, 0, 64, 38
2, 78290, Note_on_c, 0, 65, 0
2, 78301, Control_c, 0, 64, 37
2, 78317, Control_c, 0, 64, 36
2, 78331, Control_c, 0, 64, 34
2, 78347, Control_c, 0, 64, 34
2, 78362, Control_c, 0, 64, 32
2, 78376, Control_c, 0, 64, 31
2, 78392, Control_c, 0, 64, 29
2, 78405, Note_on_c, 0, 59, 69
2, 78406, Note_on_c, 0, 74, 84
2, 78407, Control_c, 0, 64, 29
2, 78423, Control_c, 0, 64, 27
2, 78438, Control_c, 0, 64, 24
2, 78439, Note_on_c, 0, 72, 0
2, 78454, Control_c, 0, 64, 18
2, 78470, Control_c, 0, 64, 0
2, 78543, Note_on_c, 0, 57, 0
2, 78552, Note_on_c, 0, 60, 73
2, 78560, Note_on_c, 0, 76, 85
2, 78590, Note_on_c, 0, 74, 0
2, 78650, Note_on_c, 0, 59, 0
2, 78692, Note_on_c, 0, 60, 0
2, 78694, Note_on_c, 0, 62, 74
2, 78705, Note_on_c, 0, 77, 90
2, 78727, Note_on_c, 0, 76, 0
2, 78856, Note_on_c, 0, 69, 67
2, 79009, Note_on_c, 0, 69, 0
2, 79012, Note_on_c, 0, 60, 58
2, 79012, Note_on_c, 0, 64, 62
2, 79012, Note_on_c, 0, 71, 69
2, 79019, Note_on_c, 0, 62, 0
2, 79162, Note_on_c, 0, 72, 69
2, 79170, Note_on_c, 0, 71, 0
2, 79297, Note_on_c, 0, 60, 0
2, 79306, Note_on_c, 0, 74, 63
2, 79315, Note_on_c, 0, 62, 68
2, 79337, Note_on_c, 0, 72, 0
2, 79346, Note_on_c, 0, 64, 0
2, 79445, Note_on_c, 0, 59, 62
2, 79470, Note_on_c, 0, 62, 0
2, 79583, Note_on_c, 0, 59, 0
2, 79589, Note_on_c, 0, 57, 63
2, 79600, Note_on_c, 0, 71, 62
2, 79617, Note_on_c, 0, 74, 0
2, 79633, Control_c, 0, 64, 10
2, 79648, Control_c, 0, 64, 25
2, 79663, Control_c, 0, 64, 32
2, 79678, Control_c, 0, 64, 37
2, 79693, Control_c, 0, 64, 43
2, 79716, Control_c, 0, 64, 51
2, 79717, Note_on_c, 0, 57, 0
2, 79721, Note_on_c, 0, 55, 66
2, 79723, Note_on_c, 0, 77, 0
2, 79731, Control_c, 0, 64, 57
2, 79746, Control_c, 0, 64, 61
2, 79761, Control_c, 0, 64, 63
2, 79776, Control_c, 0, 64, 65
2, 79792, Control_c, 0, 64, 66
2, 79807, Control_c, 0, 64, 67
2, 79823, Control_c, 0, 64, 68
2, 79838, Control_c, 0, 64, 69
2, 79852, Control_c, 0, 64, 70
2, 79868, Control_c, 0, 64, 70
2, 79871, Note_on_c, 0, 55, 0
2, 79880, Note_on_c, 0, 60, 65
2, 79880, Note_on_c, 0, 62, 64
2, 79882, Note_on_c, 0, 67, 69
2, 79883, Control_c, 0, 64, 71
2, 79898, Control_c, 0, 64, 71
2, 79929, Control_c, 0, 64, 72
2, 79989, Control_c, 0, 64, 72
2, 80002, Note_on_c, 0, 60, 0
2, 80015, Note_on_c, 0, 77, 84
2, 80028, Note_on_c, 0, 71, 0
2, 80051, Note_on_c, 0, 62, 0
2, 80143, Control_c, 0, 64, 72
2, 80158, Control_c, 0, 64, 71
2, 80164, Note_on_c, 0, 48, 67
2, 80164, Note_on_c, 0, 76, 86
2, 80167, Note_on_c, 0, 60, 63
2, 80172, Control_c, 0, 64, 69
2, 80188, Control_c, 0, 64, 67
2, 80203, Control_c, 0, 64, 63
2, 80217, Control_c, 0, 64, 56
2, 80226, Note_on_c, 0, 77, 0
2, 80233, Control_c, 0, 64, 50
2, 80243, Note_on_c, 0, 67, 0
2, 80248, Control_c, 0, 64, 47
2, 80264, Control_c, 0, 64, 46
2, 80279, Control_c, 0, 64, 45
2, 80293, Control_c, 0, 64, 43
2, 80297, Note_on_c, 0, 60, 0
2, 80307, Note_on_c, 0, 74, 77
2, 80309, Control_c, 0, 64, 40
2, 80311, Note_on_c, 0, 59, 66
2, 80324, Control_c, 0, 64, 35
2, 80339, Control_c, 0, 64, 30
2, 80345, Note_on_c, 0, 76, 0
2, 80355, Control_c, 0, 64, 27
2, 80370, Control_c, 0, 64, 25
2, 80385, Control_c, 0, 64, 24
2, 80400, Control_c, 0, 64, 23
2, 80415, Control_c, 0, 64, 21
2, 80431, Control_c, 0, 64, 17
2, 80445, Note_on_c, 0, 59, 0
2, 80446, Control_c, 0, 64, 10
2, 80448, Note_on_c, 0, 60, 67
2, 80449, Note_on_c, 0, 76, 85
2, 80457, Note_on_c, 0, 74, 0
2, 80461, Control_c, 0, 64, 0
2, 80603, Note_on_c, 0, 74, 62
2, 80751, Note_on_c, 0, 72, 68
2, 80880, Note_on_c, 0, 74, 0
2, 80885, Note_on_c, 0, 71, 62
2, 80912, Note_on_c, 0, 72, 0
2, 81033, Note_on_c, 0, 71, 0
2, 81039, Note_on_c, 0, 72, 69
2, 81176, Note_on_c, 0, 71, 56
2, 81313, Note_on_c, 0, 71, 0
2, 81327, Note_on_c, 0, 69, 57
2, 81460, Note_on_c, 0, 68, 50
2, 81469, Note_on_c, 0, 69, 0
2, 81523, Note_on_c, 0, 48, 0
2, 81620, Note_on_c, 0, 60, 0
2, 81630, Note_on_c, 0, 69, 62
2, 81669, Note_on_c, 0, 68, 0
2, 81773, Note_on_c, 0, 64, 65
2, 81914, Note_on_c, 0, 65, 75
2, 81923, Note_on_c, 0, 64, 0
2, 81984, Note_on_c, 0, 69, 0
2, 82036, Note_on_c, 0, 72, 0
2, 82056, Note_on_c, 0, 67, 78
2, 82063, Note_on_c, 0, 65, 0
2, 82221, Note_on_c, 0, 65, 77
2, 82231, Note_on_c, 0, 69, 67
2, 82231, Note_on_c, 0, 74, 65
2, 82233, Note_on_c, 0, 67, 0
2, 82235, Note_on_c, 0, 71, 68
2, 82279, Note_on_c, 0, 76, 0
2, 82357, Note_on_c, 0, 64, 70
2, 82375, Note_on_c, 0, 65, 0
2, 82497, Note_on_c, 0, 64, 0
2, 82500, Note_on_c, 0, 62, 76
2, 82641, Note_on_c, 0, 62, 0
2, 82648, Note_on_c, 0, 60, 73
2, 82798, Note_on_c, 0, 60, 0
2, 82803, Note_on_c, 0, 62, 67
2, 82939, Note_on_c, 0, 60, 64
2, 83030, Note_on_c, 0, 62, 0
2, 83081, Note_on_c, 0, 60, 0
2, 83083, Note_on_c, 0, 59, 69
2, 83211, Note_on_c, 0, 59, 0
2, 83221, Note_on_c, 0, 57, 61
2, 83350, Note_on_c, 0, 57, 0
2, 83365, Note_on_c, 0, 59, 56
2, 83366, Note_on_c, 0, 68, 64
2, 83369, Note_on_c, 0, 69, 0
2, 83411, Control_c, 0, 64, 10
2, 83496, Note_on_c, 0, 59, 0
2, 83501, Note_on_c, 0, 57, 60
2, 83645, Note_on_c, 0, 56, 62
2, 83650, Note_on_c, 0, 57, 0
2, 83776, Note_on_c, 0, 56, 0
2, 83785, Control_c, 0, 64, 0
2, 83788, Note_on_c, 0, 54, 59
2, 83943, Note_on_c, 0, 54, 0
2, 83952, Note_on_c, 0, 56, 57
2, 83953, Note_on_c, 0, 64, 51
2, 84082, Note_on_c, 0, 50, 59
2, 84087, Note_on_c, 0, 56, 0
2, 84240, Note_on_c, 0, 52, 71
2, 84249, Note_on_c, 0, 50, 0
2, 84383, Note_on_c, 0, 52, 0
2, 84394, Note_on_c, 0, 53, 71
2, 84478, Note_on_c, 0, 64, 0
2, 84531, Note_on_c, 0, 53, 0
2, 84536, Note_on_c, 0, 52, 68
2, 84620, Note_on_c, 0, 68, 0
2, 84668, Note_on_c, 0, 71, 0
2, 84669, Note_on_c, 0, 74, 0
2, 84677, Note_on_c, 0, 50, 61
2, 84680, Note_on_c, 0, 52, 0
2, 84801, Note_on_c, 0, 50, 0
2, 84816, Note_on_c, 0, 48, 65
2, 84956, Note_on_c, 0, 48, 0
2, 84961, Note_on_c, 0, 47, 65
2, 85106, Note_on_c, 0, 47, 0
2, 85117, Note_on_c, 0, 48, 61
2, 85271, Note_on_c, 0, 74, 55
2, 85423, Note_on_c, 0, 52, 55
2, 85429, Note_on_c, 0, 76, 70
2, 85438, Note_on_c, 0, 74, 0
2, 85566, Note_on_c, 0, 77, 73
2, 85589, Note_on_c, 0, 76, 0
2, 85714, Note_on_c, 0, 76, 74
2, 85718, Note_on_c, 0, 52, 0
2, 85720, Note_on_c, 0, 54, 63
2, 85752, Note_on_c, 0, 77, 0
2, 85864, Note_on_c, 0, 74, 70
2, 85891, Note_on_c, 0, 76, 0
2, 86011, Note_on_c, 0, 54, 0
2, 86012, Note_on_c, 0, 56, 61
2, 86013, Note_on_c, 0, 72, 77
2, 86025, Note_on_c, 0, 74, 0
2, 86146, Note_on_c, 0, 71, 74
2, 86151, Note_on_c, 0, 72, 0
2, 86285, Note_on_c, 0, 56, 0
2, 86288, Note_on_c, 0, 72, 76
2, 86296, Note_on_c, 0, 57, 69
2, 86298, Note_on_c, 0, 71, 0
2, 86438, Note_on_c, 0, 71, 72
2, 86467, Note_on_c, 0, 72, 0
2, 86576, Note_on_c, 0, 71, 0
2, 86577, Note_on_c, 0, 57, 0
2, 86586, Note_on_c, 0, 69, 69
2, 86589, Note_on_c, 0, 59, 64
2, 86718, Note_on_c, 0, 68, 69
2, 86756, Note_on_c, 0, 69, 0
2, 86869, Note_on_c, 0, 59, 0
2, 86870, Note_on_c, 0, 69, 75
2, 86876, Note_on_c, 0, 60, 65
2, 86877, Note_on_c, 0, 68, 0
2, 86992, Control_c, 0, 64, 43
2, 87006, Note_on_c, 0, 67, 62
2, 87007, Control_c, 0, 64, 57
2, 87021, Note_on_c, 0, 60, 0
2, 87023, Control_c, 0, 64, 62
2, 87038, Control_c, 0, 64, 64
2, 87053, Control_c, 0, 64, 66
2, 87069, Control_c, 0, 64, 67
2, 87084, Control_c, 0, 64, 69
2, 87099, Control_c, 0, 64, 70
2, 87114, Control_c, 0, 64, 72
2, 87129, Control_c, 0, 64, 72
2, 87145, Note_on_c, 0, 48, 0
2, 87159, Note_on_c, 0, 67, 0
2, 87160, Control_c, 0, 64, 71
2, 87163, Note_on_c, 0, 49, 59
2, 87163, Note_on_c, 0, 65, 62
2, 87169, Note_on_c, 0, 57, 45
2, 87175, Control_c, 0, 64, 69
2, 87191, Control_c, 0, 64, 64
2, 87205, Control_c, 0, 64, 41
2, 87220, Control_c, 0, 64, 0
2, 87251, Control_c, 0, 64, 49
2, 87267, Control_c, 0, 64, 62
2, 87282, Control_c, 0, 64, 65
2, 87297, Control_c, 0, 64, 68
2, 87311, Note_on_c, 0, 65, 0
2, 87312, Control_c, 0, 64, 70
2, 87318, Note_on_c, 0, 49, 0
2, 87320, Note_on_c, 0, 64, 62
2, 87327, Control_c, 0, 64, 72
2, 87343, Control_c, 0, 64, 74
2, 87358, Control_c, 0, 64, 75
2, 87372, Control_c, 0, 64, 76
2, 87395, Control_c, 0, 64, 76
2, 87441, Control_c, 0, 64, 76
2, 87456, Control_c, 0, 64, 73
2, 87459, Note_on_c, 0, 50, 73
2, 87469, Note_on_c, 0, 57, 0
2, 87472, Control_c, 0, 64, 69
2, 87473, Note_on_c, 0, 65, 73
2, 87478, Note_on_c, 0, 64, 0
2, 87487, Control_c, 0, 64, 62
2, 87503, Control_c, 0, 64, 28
2, 87518, Control_c, 0, 64, 0
2, 87615, Note_on_c, 0, 64, 66
2, 87619, Note_on_c, 0, 65, 0
2, 87729, Note_on_c, 0, 50, 0
2, 87739, Note_on_c, 0, 52, 67
2, 87747, Note_on_c, 0, 61, 65
2, 87757, Note_on_c, 0, 65, 71
2, 87783, Note_on_c, 0, 64, 0
2, 87853, Note_on_c, 0, 69, 0
2, 87896, Note_on_c, 0, 67, 74
2, 87928, Note_on_c, 0, 65, 0
2, 87985, Note_on_c, 0, 61, 0
2, 88040, Note_on_c, 0, 53, 61
2, 88045, Note_on_c, 0, 62, 64
2, 88058, Note_on_c, 0, 65, 72
2, 88070, Note_on_c, 0, 52, 0
2, 88079, Control_c, 0, 64, 24
2, 88090, Note_on_c, 0, 67, 0
2, 88094, Control_c, 0, 64, 40
2, 88110, Control_c, 0, 64, 50
2, 88125, Control_c, 0, 64, 56
2, 88139, Control_c, 0, 64, 60
2, 88163, Control_c, 0, 64, 62
2, 88163, Note_on_c, 0, 62, 0
2, 88177, Control_c, 0, 64, 63
2, 88193, Control_c, 0, 64, 64
2, 88205, Note_on_c, 0, 64, 67
2, 88205, Note_on_c, 0, 65, 0
2, 88208, Control_c, 0, 64, 65
2, 88224, Control_c, 0, 64, 66
2, 88239, Control_c, 0, 64, 66
2, 88254, Control_c, 0, 64, 67
2, 88330, Control_c, 0, 64, 66
2, 88341, Note_on_c, 0, 53, 0
2, 88341, Note_on_c, 0, 64, 0
2, 88343, Note_on_c, 0, 55, 60
2, 88343, Note_on_c, 0, 57, 55
2, 88346, Control_c, 0, 64, 65
2, 88347, Note_on_c, 0, 62, 72
2, 88361, Control_c, 0, 64, 62
2, 88376, Control_c, 0, 64, 47
2, 88392, Control_c, 0, 64, 10
2, 88407, Control_c, 0, 64, 0
2, 88437, Control_c, 0, 64, 17
2, 88452, Control_c, 0, 64, 34
2, 88466, Note_on_c, 0, 62, 0
2, 88468, Control_c, 0, 64, 38
2, 88478, Note_on_c, 0, 61, 64
2, 88498, Control_c, 0, 64, 41
2, 88513, Control_c, 0, 64, 50
2, 88528, Control_c, 0, 64, 58
2, 88528, Note_on_c, 0, 57, 0
2, 88544, Control_c, 0, 64, 63
2, 88559, Control_c, 0, 64, 65
2, 88573, Control_c, 0, 64, 68
2, 88589, Control_c, 0, 64, 70
2, 88592, Note_on_c, 0, 61, 0
2, 88604, Control_c, 0, 64, 73
2, 88615, Note_on_c, 0, 62, 72
2, 88619, Control_c, 0, 64, 75
2, 88635, Control_c, 0, 64, 76
2, 88637, Note_on_c, 0, 53, 68
2, 88646, Note_on_c, 0, 62, 0
2, 88649, Control_c, 0, 64, 77
2, 88766, Note_on_c, 0, 79, 76
2, 88797, Note_on_c, 0, 55, 0
2, 88847, Control_c, 0, 64, 76
2, 88863, Control_c, 0, 64, 75
2, 88878, Control_c, 0, 64, 73
2, 88893, Control_c, 0, 64, 71
2, 88903, Note_on_c, 0, 57, 70
2, 88908, Note_on_c, 0, 81, 82
2, 88909, Control_c, 0, 64, 67
2, 88911, Note_on_c, 0, 79, 0
2, 88930, Control_c, 0, 64, 61
2, 88946, Control_c, 0, 64, 49
2, 88961, Control_c, 0, 64, 37
2, 88976, Control_c, 0, 64, 34
2, 88991, Control_c, 0, 64, 36
2, 89021, Control_c, 0, 64, 34
2, 89037, Control_c, 0, 64, 31
2, 89052, Control_c, 0, 64, 28
2, 89052, Note_on_c, 0, 82, 85
2, 89056, Note_on_c, 0, 81, 0
2, 89068, Control_c, 0, 64, 27
2, 89083, Control_c, 0, 64, 26
2, 89129, Control_c, 0, 64, 25
2, 89188, Note_on_c, 0, 82, 0
2, 89190, Control_c, 0, 64, 26
2, 89200, Note_on_c, 0, 81, 83
2, 89206, Note_on_c, 0, 59, 71
2, 89214, Note_on_c, 0, 57, 0
2, 89267, Control_c, 0, 64, 27
2, 89296, Control_c, 0, 64, 28
2, 89312, Control_c, 0, 64, 29
2, 89331, Note_on_c, 0, 79, 80
2, 89358, Note_on_c, 0, 81, 0
2, 89388, Control_c, 0, 64, 29
2, 89464, Control_c, 0, 64, 30
2, 89476, Note_on_c, 0, 77, 83
2, 89488, Note_on_c, 0, 61, 70
2, 89498, Note_on_c, 0, 59, 0
2, 89511, Note_on_c, 0, 79, 0
2, 89555, Control_c, 0, 64, 31
2, 89609, Note_on_c, 0, 76, 77
2, 89630, Note_on_c, 0, 77, 0
2, 89660, Control_c, 0, 64, 32
2, 89759, Note_on_c, 0, 77, 73
2, 89768, Note_on_c, 0, 76, 0
2, 89772, Note_on_c, 0, 62, 66
2, 89775, Note_on_c, 0, 61, 0
2, 89790, Control_c, 0, 64, 32
2, 89897, Note_on_c, 0, 76, 67
2, 89931, Note_on_c, 0, 77, 0
2, 90042, Note_on_c, 0, 62, 0
2, 90043, Note_on_c, 0, 74, 55
2, 90043, Note_on_c, 0, 76, 0
2, 90050, Note_on_c, 0, 64, 56
2, 90080, Control_c, 0, 64, 36
2, 90094, Control_c, 0, 64, 42
2, 90110, Control_c, 0, 64, 49
2, 90125, Control_c, 0, 64, 55
2, 90140, Control_c, 0, 64, 60
2, 90156, Control_c, 0, 64, 63
2, 90171, Control_c, 0, 64, 65
2, 90184, Note_on_c, 0, 74, 0
2, 90187, Control_c, 0, 64, 67
2, 90193, Note_on_c, 0, 73, 68
2, 90202, Control_c, 0, 64, 69
2, 90216, Control_c, 0, 64, 72
2, 90232, Control_c, 0, 64, 73
2, 90247, Control_c, 0, 64, 75
2, 90261, Control_c, 0, 64, 75
2, 90299, Note_on_c, 0, 64, 0
2, 90335, Note_on_c, 0, 73, 0
2, 90336, Note_on_c, 0, 74, 65
2, 90339, Note_on_c, 0, 65, 68
2, 90361, Note_on_c, 0, 53, 0
2, 90383, Control_c, 0, 64, 75
2, 90398, Control_c, 0, 64, 74
2, 90413, Control_c, 0, 64, 74
2, 90429, Control_c, 0, 64, 73
2, 90444, Control_c, 0, 64, 71
2, 90467, Control_c, 0, 64, 69
2, 90482, Control_c, 0, 64, 67
2, 90483, Note_on_c, 0, 76, 74
2, 90488, Note_on_c, 0, 55, 60
2, 90494, Note_on_c, 0, 65, 0
2, 90494, Note_on_c, 0, 74, 0
2, 90497, Control_c, 0, 64, 63
2, 90513, Control_c, 0, 64, 60
2, 90528, Control_c, 0, 64, 58
2, 90543, Control_c, 0, 64, 58
2, 90558, Control_c, 0, 64, 57
2, 90573, Control_c, 0, 64, 57
2, 90588, Control_c, 0, 64, 55
2, 90603, Control_c, 0, 64, 52
2, 90618, Control_c, 0, 64, 50
2, 90627, Note_on_c, 0, 77, 78
2, 90632, Note_on_c, 0, 57, 67
2, 90634, Control_c, 0, 64, 48
2, 90638, Note_on_c, 0, 76, 0
2, 90648, Note_on_c, 0, 55, 0
2, 90649, Control_c, 0, 64, 47
2, 90664, Control_c, 0, 64, 46
2, 90679, Control_c, 0, 64, 45
2, 90694, Control_c, 0, 64, 43
2, 90710, Control_c, 0, 64, 42
2, 90725, Control_c, 0, 64, 41
2, 90741, Control_c, 0, 64, 40
2, 90757, Control_c, 0, 64, 38
2, 90764, Note_on_c, 0, 79, 81
2, 90765, Note_on_c, 0, 57, 0
2, 90770, Note_on_c, 0, 58, 74
2, 90771, Control_c, 0, 64, 37
2, 90776, Note_on_c, 0, 77, 0
2, 90787, Control_c, 0, 64, 35
2, 90802, Control_c, 0, 64, 33
2, 90816, Control_c, 0, 64, 32
2, 90832, Control_c, 0, 64, 31
2, 90847, Control_c, 0, 64, 30
2, 90863, Control_c, 0, 64, 29
2, 90894, Control_c, 0, 64, 29
2, 90909, Note_on_c, 0, 77, 78
2, 90919, Note_on_c, 0, 57, 67
2, 90924, Control_c, 0, 64, 28
2, 90938, Note_on_c, 0, 79, 0
2, 90939, Control_c, 0, 64, 27
2, 90940, Note_on_c, 0, 58, 0
2, 90955, Control_c, 0, 64, 26
2, 90970, Control_c, 0, 64, 25
2, 90985, Control_c, 0, 64, 24
2, 91051, Note_on_c, 0, 76, 78
2, 91053, Note_on_c, 0, 55, 66
2, 91060, Control_c, 0, 64, 23
2, 91063, Note_on_c, 0, 57, 0
2, 91067, Note_on_c, 0, 77, 0
2, 91076, Control_c, 0, 64, 21
2, 91091, Control_c, 0, 64, 20
2, 91107, Control_c, 0, 64, 18
2, 91137, Control_c, 0, 64, 17
2, 91189, Note_on_c, 0, 55, 0
2, 91190, Note_on_c, 0, 53, 72
2, 91191, Note_on_c, 0, 76, 0
2, 91193, Note_on_c, 0, 74, 69
2, 91213, Control_c, 0, 64, 15
2, 91327, Control_c, 0, 64, 13
2, 91339, Note_on_c, 0, 73, 65
2, 91343, Note_on_c, 0, 53, 0
2, 91346, Note_on_c, 0, 52, 62
2, 91361, Note_on_c, 0, 74, 0
2, 91469, Note_on_c, 0, 52, 0
2, 91483, Note_on_c, 0, 53, 59
2, 91487, Note_on_c, 0, 73, 0
2, 91489, Note_on_c, 0, 74, 63
2, 91539, Control_c, 0, 64, 10
2, 91612, Note_on_c, 0, 53, 0
2, 91617, Note_on_c, 0, 52, 58
2, 91624, Note_on_c, 0, 72, 67
2, 91638, Note_on_c, 0, 74, 0
2, 91661, Control_c, 0, 64, 13
2, 91747, Note_on_c, 0, 52, 0
2, 91756, Note_on_c, 0, 50, 62
2, 91767, Note_on_c, 0, 70, 68
2, 91770, Note_on_c, 0, 72, 0
2, 91798, Control_c, 0, 64, 10
2, 91858, Control_c, 0, 64, 13
2, 91875, Note_on_c, 0, 50, 0
2, 91898, Note_on_c, 0, 49, 59
2, 91901, Note_on_c, 0, 69, 67
2, 91906, Note_on_c, 0, 70, 0
2, 92055, Note_on_c, 0, 49, 0
2, 92063, Note_on_c, 0, 50, 52
2, 92063, Note_on_c, 0, 70, 66
2, 92085, Note_on_c, 0, 69, 0
2, 92110, Control_c, 0, 64, 15
2, 92210, Note_on_c, 0, 72, 64
2, 92338, Note_on_c, 0, 53, 62
2, 92350, Note_on_c, 0, 74, 63
2, 92378, Note_on_c, 0, 72, 0
2, 92391, Note_on_c, 0, 70, 0
2, 92399, Control_c, 0, 64, 17
2, 92486, Note_on_c, 0, 75, 69
2, 92505, Control_c, 0, 64, 18
2, 92519, Note_on_c, 0, 74, 0
2, 92535, Control_c, 0, 64, 20
2, 92580, Control_c, 0, 64, 21
2, 92611, Control_c, 0, 64, 23
2, 92627, Control_c, 0, 64, 24
2, 92632, Note_on_c, 0, 74, 71
2, 92633, Note_on_c, 0, 53, 0
2, 92642, Note_on_c, 0, 58, 63
2, 92671, Note_on_c, 0, 75, 0
2, 92672, Control_c, 0, 64, 25
2, 92749, Control_c, 0, 64, 26
2, 92783, Note_on_c, 0, 72, 71
2, 92796, Note_on_c, 0, 74, 0
2, 92861, Control_c, 0, 64, 25
2, 92917, Note_on_c, 0, 58, 0
2, 92925, Note_on_c, 0, 70, 66
2, 92928, Note_on_c, 0, 60, 53
2, 92945, Note_on_c, 0, 72, 0
2, 92969, Control_c, 0, 64, 24
2, 93058, Note_on_c, 0, 70, 0
2, 93061, Note_on_c, 0, 69, 64
2, 93135, Control_c, 0, 64, 23
2, 93185, Note_on_c, 0, 69, 0
2, 93197, Note_on_c, 0, 70, 62
2, 93212, Note_on_c, 0, 62, 57
2, 93219, Note_on_c, 0, 60, 0
2, 93326, Note_on_c, 0, 69, 55
2, 93333, Note_on_c, 0, 70, 0
2, 93476, Note_on_c, 0, 69, 0
2, 93483, Note_on_c, 0, 68, 61
2, 93485, Note_on_c, 0, 62, 0
2, 93495, Note_on_c, 0, 60, 43
2, 93622, Note_on_c, 0, 66, 53
2, 93632, Note_on_c, 0, 68, 0
2, 93739, Note_on_c, 0, 60, 0
2, 93787, Note_on_c, 0, 59, 48
2, 93794, Note_on_c, 0, 68, 56
2, 93799, Note_on_c, 0, 50, 0
2, 93804, Note_on_c, 0, 66, 0
2, 93927, Note_on_c, 0, 50, 45
2, 94073, Control_c, 0, 64, 21
2, 94074, Note_on_c, 0, 52, 60
2, 94091, Note_on_c, 0, 64, 61
2, 94092, Note_on_c, 0, 50, 0
2, 94098, Note_on_c, 0, 59, 0
2, 94121, Note_on_c, 0, 68, 0
2, 94179, Control_c, 0, 64, 20
2, 94222, Note_on_c, 0, 52, 0
2, 94224, Note_on_c, 0, 53, 65
2, 94338, Control_c, 0, 64, 18
2, 94385, Note_on_c, 0, 68, 79
2, 94392, Note_on_c, 0, 52, 68
2, 94404, Note_on_c, 0, 53, 0
2, 94535, Note_on_c, 0, 50, 69
2, 94551, Control_c, 0, 64, 17
2, 94556, Note_on_c, 0, 52, 0
2, 94656, Control_c, 0, 64, 15
2, 94675, Note_on_c, 0, 48, 73
2, 94677, Note_on_c, 0, 71, 81
2, 94678, Note_on_c, 0, 50, 0
2, 94702, Control_c, 0, 64, 13
2, 94718, Control_c, 0, 64, 10
2, 94763, Control_c, 0, 64, 0
2, 94818, Note_on_c, 0, 47, 66
2, 94837, Note_on_c, 0, 48, 0
2, 94963, Note_on_c, 0, 47, 0
2, 94969, Note_on_c, 0, 74, 79
2, 94980, Note_on_c, 0, 48, 68
2, 95133, Note_on_c, 0, 48, 0
2, 95136, Note_on_c, 0, 47, 56
2, 95284, Note_on_c, 0, 45, 68
2, 95286, Note_on_c, 0, 47, 0
2, 95425, Note_on_c, 0, 45, 0
2, 95429, Note_on_c, 0, 44, 71
2, 95576, Note_on_c, 0, 44, 0
2, 95582, Note_on_c, 0, 45, 74
2, 95601, Note_on_c, 0, 64, 0
2, 95609, Note_on_c, 0, 68, 0
2, 95633, Note_on_c, 0, 71, 0
2, 95726, Note_on_c, 0, 41, 71
2, 95817, Note_on_c, 0, 45, 0
2, 95872, Note_on_c, 0, 74, 0
2, 95880, Note_on_c, 0, 72, 80
2, 95887, Note_on_c, 0, 66, 80
2, 95891, Note_on_c, 0, 69, 62
2, 95897, Note_on_c, 0, 41, 0
2, 95901, Note_on_c, 0, 40, 70
2, 95980, Control_c, 0, 64, 37
2, 95996, Control_c, 0, 64, 52
2, 96011, Control_c, 0, 64, 60
2, 96018, Note_on_c, 0, 69, 0
2, 96026, Control_c, 0, 64, 64
2, 96028, Note_on_c, 0, 39, 66
2, 96035, Note_on_c, 0, 40, 0
2, 96041, Control_c, 0, 64, 67
2, 96055, Note_on_c, 0, 66, 0
2, 96056, Control_c, 0, 64, 70
2, 96072, Control_c, 0, 64, 73
2, 96087, Control_c, 0, 64, 75
2, 96102, Control_c, 0, 64, 76
2, 96118, Control_c, 0, 64, 77
2, 96174, Note_on_c, 0, 39, 0
2, 96178, Control_c, 0, 64, 77
2, 96179, Note_on_c, 0, 40, 69
2, 96194, Control_c, 0, 64, 75
2, 96194, Note_on_c, 0, 69, 72
2, 96202, Note_on_c, 0, 64, 69
2, 96203, Note_on_c, 0, 72, 0
2, 96209, Control_c, 0, 64, 73
2, 96224, Control_c, 0, 64, 71
2, 96239, Control_c, 0, 64, 66
2, 96254, Control_c, 0, 64, 60
2, 96269, Control_c, 0, 64, 53
2, 96284, Control_c, 0, 64, 52
2, 96298, Control_c, 0, 64, 53
2, 96329, Control_c, 0, 64, 52
2, 96344, Control_c, 0, 64, 51
2, 96344, Note_on_c, 0, 72, 78
2, 96347, Note_on_c, 0, 45, 67
2, 96359, Control_c, 0, 64, 51
2, 96366, Note_on_c, 0, 69, 0
2, 96420, Control_c, 0, 64, 51
2, 96487, Note_on_c, 0, 47, 73
2, 96489, Note_on_c, 0, 45, 0
2, 96492, Note_on_c, 0, 71, 80
2, 96497, Control_c, 0, 64, 52
2, 96528, Note_on_c, 0, 72, 0
2, 96589, Control_c, 0, 64, 52
2, 96626, Note_on_c, 0, 47, 0
2, 96631, Note_on_c, 0, 48, 71
2, 96632, Note_on_c, 0, 69, 79
2, 96662, Note_on_c, 0, 71, 0
2, 96687, Control_c, 0, 64, 52
2, 96776, Note_on_c, 0, 50, 71
2, 96782, Note_on_c, 0, 71, 83
2, 96788, Note_on_c, 0, 48, 0
2, 96800, Note_on_c, 0, 69, 0
2, 96809, Control_c, 0, 64, 51
2, 96924, Note_on_c, 0, 66, 70
2, 96931, Control_c, 0, 64, 51
2, 96940, Note_on_c, 0, 64, 0
2, 96976, Control_c, 0, 64, 50
2, 97062, Note_on_c, 0, 52, 68
2, 97065, Note_on_c, 0, 50, 0
2, 97068, Control_c, 0, 64, 50
2, 97071, Note_on_c, 0, 68, 76
2, 97098, Control_c, 0, 64, 49
2, 97111, Note_on_c, 0, 66, 0
2, 97128, Control_c, 0, 64, 51
2, 97144, Control_c, 0, 64, 54
2, 97159, Control_c, 0, 64, 58
2, 97174, Control_c, 0, 64, 61
2, 97175, Note_on_c, 0, 40, 0
2, 97187, Note_on_c, 0, 71, 0
2, 97189, Control_c, 0, 64, 63
2, 97204, Control_c, 0, 64, 65
2, 97218, Note_on_c, 0, 62, 68
2, 97219, Control_c, 0, 64, 68
2, 97235, Control_c, 0, 64, 70
2, 97250, Control_c, 0, 64, 72
2, 97265, Control_c, 0, 64, 73
2, 97280, Control_c, 0, 64, 74
2, 97296, Control_c, 0, 64, 75
2, 97380, Note_on_c, 0, 69, 82
2, 97387, Note_on_c, 0, 62, 0
2, 97390, Note_on_c, 0, 45, 64
2, 97396, Control_c, 0, 64, 74
2, 97410, Note_on_c, 0, 52, 0
2, 97411, Control_c, 0, 64, 72
2, 97421, Note_on_c, 0, 68, 0
2, 97427, Control_c, 0, 64, 70
2, 97441, Control_c, 0, 64, 66
2, 97456, Control_c, 0, 64, 60
2, 97472, Control_c, 0, 64, 51
2, 97487, Control_c, 0, 64, 47
2, 97501, Control_c, 0, 64, 48
2, 97523, Note_on_c, 0, 62, 67
2, 97548, Control_c, 0, 64, 48
2, 97562, Control_c, 0, 64, 47
2, 97577, Control_c, 0, 64, 47
2, 97593, Control_c, 0, 64, 46
2, 97608, Control_c, 0, 64, 46
2, 97624, Control_c, 0, 64, 45
2, 97638, Control_c, 0, 64, 44
2, 97656, Note_on_c, 0, 50, 56
2, 97671, Note_on_c, 0, 64, 67
2, 97685, Note_on_c, 0, 62, 0
2, 97699, Control_c, 0, 64, 44
2, 97714, Control_c, 0, 64, 43
2, 97729, Control_c, 0, 64, 42
2, 97745, Control_c, 0, 64, 41
2, 97760, Control_c, 0, 64, 40
2, 97774, Control_c, 0, 64, 40
2, 97790, Control_c, 0, 64, 39
2, 97805, Control_c, 0, 64, 38
2, 97808, Note_on_c, 0, 65, 71
2, 97820, Control_c, 0, 64, 37
2, 97835, Control_c, 0, 64, 37
2, 97844, Note_on_c, 0, 64, 0
2, 97850, Control_c, 0, 64, 36
2, 97866, Control_c, 0, 64, 34
2, 97881, Control_c, 0, 64, 32
2, 97896, Control_c, 0, 64, 29
2, 97911, Control_c, 0, 64, 29
2, 97926, Control_c, 0, 64, 28
2, 97949, Note_on_c, 0, 64, 78
2, 97956, Control_c, 0, 64, 27
2, 97961, Note_on_c, 0, 50, 0
2, 97962, Note_on_c, 0, 53, 63
2, 97971, Control_c, 0, 64, 25
2, 97987, Control_c, 0, 64, 23
2, 98002, Control_c, 0, 64, 18
2, 98017, Control_c, 0, 64, 13
2, 98033, Control_c, 0, 64, 0
2, 98099, Note_on_c, 0, 62, 74
2, 98123, Note_on_c, 0, 65, 0
2, 98172, Note_on_c, 0, 64, 0
2, 98239, Control_c, 0, 64, 34
2, 98253, Note_on_c, 0, 62, 0
2, 98254, Control_c, 0, 64, 55
2, 98254, Note_on_c, 0, 56, 60
2, 98254, Note_on_c, 0, 61, 75
2, 98259, Note_on_c, 0, 53, 0
2, 98269, Control_c, 0, 64, 61
2, 98284, Control_c, 0, 64, 64
2, 98299, Control_c, 0, 64, 67
2, 98315, Control_c, 0, 64, 71
2, 98316, Note_on_c, 0, 61, 0
2, 98330, Control_c, 0, 64, 75
2, 98331, Note_on_c, 0, 56, 0
2, 98345, Control_c, 0, 64, 78
2, 98360, Control_c, 0, 64, 80
2, 98375, Control_c, 0, 64, 81
2, 98391, Control_c, 0, 64, 81
2, 98402, Note_on_c, 0, 59, 70
2, 98462, Note_on_c, 0, 59, 0
2, 98572, Control_c, 0, 64, 81
2, 98574, Note_on_c, 0, 45, 0
2, 98585, Note_on_c, 0, 57, 63
2, 98588, Control_c, 0, 64, 79
2, 98590, Note_on_c, 0, 61, 69
2, 98597, Note_on_c, 0, 52, 62
2, 98602, Control_c, 0, 64, 77
2, 98617, Control_c, 0, 64, 73
2, 98633, Control_c, 0, 64, 69
2, 98648, Control_c, 0, 64, 63
2, 98652, Note_on_c, 0, 69, 0
2, 98664, Control_c, 0, 64, 50
2, 98678, Control_c, 0, 64, 23
2, 98693, Control_c, 0, 64, 17
2, 98709, Control_c, 0, 64, 23
2, 98748, Note_on_c, 0, 46, 59
2, 98754, Control_c, 0, 64, 21
2, 98769, Control_c, 0, 64, 20
2, 98800, Control_c, 0, 64, 18
2, 98865, Note_on_c, 0, 57, 0
2, 98911, Note_on_c, 0, 45, 59
2, 98929, Control_c, 0, 64, 17
2, 98954, Note_on_c, 0, 46, 0
2, 98961, Control_c, 0, 64, 15
2, 98982, Note_on_c, 0, 61, 0
2, 98991, Control_c, 0, 64, 13
2, 99013, Note_on_c, 0, 52, 0
2, 99059, Note_on_c, 0, 45, 0
2, 99062, Note_on_c, 0, 43, 62
2, 99067, Control_c, 0, 64, 10
2, 99082, Control_c, 0, 64, 0
2, 99214, Note_on_c, 0, 43, 0
2, 99226, Note_on_c, 0, 41, 60
2, 99390, Note_on_c, 0, 76, 45
2, 99527, Note_on_c, 0, 77, 58
2, 99646, Note_on_c, 0, 76, 0
2, 99660, Note_on_c, 0, 79, 64
2, 99700, Note_on_c, 0, 77, 0
2, 99805, Note_on_c, 0, 41, 0
2, 99821, Note_on_c, 0, 53, 56
2, 99822, Note_on_c, 0, 77, 76
2, 99852, Note_on_c, 0, 79, 0
2, 99954, Note_on_c, 0, 76, 70
2, 99982, Note_on_c, 0, 77, 0
2, 100104, Note_on_c, 0, 74, 71
2, 100126, Note_on_c, 0, 76, 0
2, 100244, Note_on_c, 0, 72, 71
2, 100264, Note_on_c, 0, 74, 0
2, 100379, Note_on_c, 0, 57, 53
2, 100392, Note_on_c, 0, 74, 58
2, 100393, Note_on_c, 0, 72, 0
2, 100525, Note_on_c, 0, 72, 71
2, 100567, Note_on_c, 0, 74, 0
2, 100673, Note_on_c, 0, 70, 70
2, 100674, Note_on_c, 0, 72, 0
2, 100811, Note_on_c, 0, 70, 0
2, 100818, Note_on_c, 0, 69, 62
2, 100960, Note_on_c, 0, 69, 0
2, 100966, Note_on_c, 0, 70, 65
2, 100971, Note_on_c, 0, 57, 0
2, 100983, Note_on_c, 0, 62, 52
2, 101094, Note_on_c, 0, 69, 60
2, 101261, Note_on_c, 0, 67, 59
2, 101275, Note_on_c, 0, 69, 0
2, 101415, Note_on_c, 0, 65, 56
2, 101416, Note_on_c, 0, 67, 0
2, 101527, Note_on_c, 0, 65, 0
2, 101531, Note_on_c, 0, 62, 0
2, 101543, Note_on_c, 0, 58, 51
2, 101567, Note_on_c, 0, 67, 57
2, 101714, Note_on_c, 0, 65, 58
2, 101825, Note_on_c, 0, 65, 0
2, 101833, Note_on_c, 0, 64, 57
2, 101967, Note_on_c, 0, 64, 0
2, 101996, Note_on_c, 0, 62, 55
2, 102105, Note_on_c, 0, 58, 0
2, 102131, Note_on_c, 0, 55, 45
2, 102132, Note_on_c, 0, 64, 48
2, 102139, Note_on_c, 0, 62, 0
2, 102267, Note_on_c, 0, 58, 51
2, 102293, Note_on_c, 0, 55, 0
2, 102419, Note_on_c, 0, 60, 61
2, 102428, Note_on_c, 0, 58, 0
2, 102559, Note_on_c, 0, 60, 0
2, 102559, Note_on_c, 0, 62, 62
2, 102607, Note_on_c, 0, 70, 0
2, 102714, Note_on_c, 0, 60, 68
2, 102727, Note_on_c, 0, 62, 0
2, 102826, Note_on_c, 0, 64, 0
2, 102857, Note_on_c, 0, 53, 0
2, 102857, Note_on_c, 0, 58, 67
2, 102872, Note_on_c, 0, 60, 0
2, 102927, Note_on_c, 0, 67, 0
2, 103004, Note_on_c, 0, 58, 0
2, 103007, Note_on_c, 0, 57, 64
2, 103138, Note_on_c, 0, 57, 0
2, 103144, Note_on_c, 0, 55, 64
2, 103282, Note_on_c, 0, 69, 76
2, 103284, Note_on_c, 0, 55, 0
2, 103295, Note_on_c, 0, 57, 54
2, 103298, Note_on_c, 0, 65, 60
2, 103302, Note_on_c, 0, 60, 52
2, 103438, Note_on_c, 0, 55, 67
2, 103548, Note_on_c, 0, 57, 0
2, 103595, Note_on_c, 0, 53, 67
2, 103600, Note_on_c, 0, 55, 0
2, 103654, Note_on_c, 0, 60, 0
2, 103734, Note_on_c, 0, 53, 0
2, 103741, Note_on_c, 0, 52, 72
2, 103873, Note_on_c, 0, 52, 0
2, 103888, Note_on_c, 0, 68, 78
2, 103889, Note_on_c, 0, 53, 70
2, 103914, Note_on_c, 0, 62, 45
2, 103946, Note_on_c, 0, 69, 0
2, 104035, Note_on_c, 0, 50, 63
2, 104183, Note_on_c, 0, 50, 0
2, 104189, Note_on_c, 0, 48, 65
2, 104214, Note_on_c, 0, 65, 0
2, 104232, Note_on_c, 0, 62, 0
2, 104346, Note_on_c, 0, 47, 70
2, 104352, Note_on_c, 0, 48, 0
2, 104373, Note_on_c, 0, 53, 0
2, 104487, Note_on_c, 0, 68, 0
2, 104491, Note_on_c, 0, 65, 64
2, 104493, Note_on_c, 0, 48, 62
2, 104500, Note_on_c, 0, 47, 0
2, 104508, Note_on_c, 0, 60, 47
2, 104636, Note_on_c, 0, 68, 68
2, 104643, Note_on_c, 0, 53, 63
2, 104665, Note_on_c, 0, 65, 0
2, 104771, Note_on_c, 0, 53, 0
2, 104779, Note_on_c, 0, 60, 0
2, 104783, Note_on_c, 0, 52, 65
2, 104786, Note_on_c, 0, 67, 70
2, 104806, Note_on_c, 0, 68, 0
2, 104918, Note_on_c, 0, 52, 0
2, 104924, Note_on_c, 0, 67, 0
2, 104930, Note_on_c, 0, 65, 66
2, 104931, Note_on_c, 0, 50, 58
2, 105077, Note_on_c, 0, 65, 0
2, 105080, Note_on_c, 0, 67, 67
2, 105085, Note_on_c, 0, 50, 0
2, 105095, Note_on_c, 0, 52, 57
2, 105235, Note_on_c, 0, 65, 52
2, 105370, Note_on_c, 0, 55, 51
2, 105372, Note_on_c, 0, 65, 0
2, 105385, Note_on_c, 0, 64, 53
2, 105433, Note_on_c, 0, 52, 0
2, 105504, Note_on_c, 0, 64, 0
2, 105528, Note_on_c, 0, 62, 50
2, 105669, Note_on_c, 0, 67, 0
2, 105675, Note_on_c, 0, 64, 57
2, 105676, Note_on_c, 0, 62, 0
2, 105691, Note_on_c, 0, 60, 51
2, 105718, Note_on_c, 0, 55, 0
2, 105740, Note_on_c, 0, 48, 0
2, 105828, Note_on_c, 0, 50, 50
2, 105951, Note_on_c, 0, 50, 0
2, 105976, Note_on_c, 0, 55, 46
2, 105981, Note_on_c, 0, 48, 53
2, 106102, Note_on_c, 0, 48, 0
2, 106106, Note_on_c, 0, 60, 0
2, 106115, Note_on_c, 0, 46, 57
2, 106198, Note_on_c, 0, 64, 0
2, 106244, Note_on_c, 0, 55, 0
2, 106258, Note_on_c, 0, 46, 0
2, 106273, Note_on_c, 0, 45, 52
2, 106422, Note_on_c, 0, 60, 47
2, 106539, Note_on_c, 0, 45, 0
2, 106551, Note_on_c, 0, 60, 0
2, 106557, Note_on_c, 0, 62, 56
2, 106574, Note_on_c, 0, 55, 48
2, 106692, Note_on_c, 0, 63, 63
2, 106711, Note_on_c, 0, 62, 0
2, 106832, Note_on_c, 0, 55, 0
2, 106850, Note_on_c, 0, 54, 54
2, 106850, Note_on_c, 0, 62, 66
2, 106851, Note_on_c, 0, 50, 51
2, 106862, Note_on_c, 0, 63, 0
2, 106984, Note_on_c, 0, 64, 66
2, 107125, Note_on_c, 0, 66, 75
2, 107131, Note_on_c, 0, 58, 64
2, 107140, Note_on_c, 0, 64, 0
2, 107272, Note_on_c, 0, 67, 73
2, 107278, Note_on_c, 0, 66, 0
2, 107320, Note_on_c, 0, 54, 0
2, 107415, Note_on_c, 0, 58, 0
2, 107421, Note_on_c, 0, 57, 59
2, 107427, Note_on_c, 0, 66, 78
2, 107437, Note_on_c, 0, 67, 0
2, 107563, Note_on_c, 0, 69, 72
2, 107619, Note_on_c, 0, 50, 0
2, 107708, Note_on_c, 0, 70, 74
2, 107762, Note_on_c, 0, 69, 0
2, 107853, Note_on_c, 0, 72, 81
2, 107902, Note_on_c, 0, 70, 0
2, 107986, Note_on_c, 0, 43, 55
2, 108060, Note_on_c, 0, 57, 0
2, 108139, Note_on_c, 0, 66, 0
2, 108153, Note_on_c, 0, 69, 59
2, 108269, Note_on_c, 0, 69, 0
2, 108281, Note_on_c, 0, 50, 49
2, 108290, Note_on_c, 0, 67, 56
2, 108357, Note_on_c, 0, 72, 0
2, 108428, Note_on_c, 0, 66, 59
2, 108458, Note_on_c, 0, 67, 0
2, 108586, Note_on_c, 0, 67, 63
2, 108592, Note_on_c, 0, 46, 55
2, 108593, Note_on_c, 0, 50, 0
2, 108671, Note_on_c, 0, 43, 0
2, 108729, Note_on_c, 0, 69, 64
2, 108748, Note_on_c, 0, 66, 0
2, 108758, Note_on_c, 0, 67, 0
2, 108810, Note_on_c, 0, 62, 0
2, 108868, Note_on_c, 0, 46, 0
2, 108874, Note_on_c, 0, 70, 61
2, 108895, Note_on_c, 0, 55, 50
2, 108914, Note_on_c, 0, 69, 0
2, 109025, Note_on_c, 0, 67, 57
2, 109164, Note_on_c, 0, 50, 55
2, 109170, Note_on_c, 0, 62, 61
2, 109185, Note_on_c, 0, 67, 0
2, 109189, Note_on_c, 0, 55, 0
2, 109304, Note_on_c, 0, 54, 64
2, 109367, Note_on_c, 0, 50, 0
2, 109439, Note_on_c, 0, 55, 74
2, 109480, Note_on_c, 0, 54, 0
2, 109584, Note_on_c, 0, 62, 0
2, 109588, Note_on_c, 0, 57, 72
2, 109593, Note_on_c, 0, 55, 0
2, 109671, Note_on_c, 0, 70, 0
2, 109745, Note_on_c, 0, 55, 58
2, 109748, Note_on_c, 0, 57, 0
2, 109748, Note_on_c, 0, 58, 70
2, 109893, Note_on_c, 0, 67, 70
2, 110027, Note_on_c, 0, 69, 73
2, 110039, Note_on_c, 0, 67, 0
2, 110162, Note_on_c, 0, 70, 77
2, 110201, Note_on_c, 0, 69, 0
2, 110308, Note_on_c, 0, 70, 0
2, 110311, Note_on_c, 0, 57, 67
2, 110323, Note_on_c, 0, 72, 81
2, 110342, Note_on_c, 0, 55, 0
2, 110352, Note_on_c, 0, 58, 0
2, 110455, Note_on_c, 0, 74, 69
2, 110522, Note_on_c, 0, 72, 0
2, 110598, Note_on_c, 0, 75, 74
2, 110603, Note_on_c, 0, 74, 0
2, 110744, Note_on_c, 0, 70, 68
2, 110861, Note_on_c, 0, 57, 0
2, 110889, Note_on_c, 0, 53, 64
2, 110889, Note_on_c, 0, 69, 73
2, 110890, Note_on_c, 0, 70, 0
2, 110934, Control_c, 0, 64, 23
2, 110949, Control_c, 0, 64, 53
2, 110964, Control_c, 0, 64, 60
2, 110979, Control_c, 0, 64, 64
2, 110983, Note_on_c, 0, 53, 0
2, 110995, Control_c, 0, 64, 66
2, 111010, Control_c, 0, 64, 68
2, 111024, Control_c, 0, 64, 71
2, 111029, Note_on_c, 0, 67, 77
2, 111040, Control_c, 0, 64, 74
2, 111055, Control_c, 0, 64, 76
2, 111071, Control_c, 0, 64, 76
2, 111086, Control_c, 0, 64, 77
2, 111173, Note_on_c, 0, 65, 78
2, 111173, Note_on_c, 0, 67, 0
2, 111215, Control_c, 0, 64, 76
2, 111231, Control_c, 0, 64, 76
2, 111246, Control_c, 0, 64, 75
2, 111261, Control_c, 0, 64, 73
2, 111277, Control_c, 0, 64, 70
2, 111292, Control_c, 0, 64, 65
2, 111307, Control_c, 0, 64, 57
2, 111317, Note_on_c, 0, 63, 68
2, 111319, Note_on_c, 0, 65, 0
2, 111322, Control_c, 0, 64, 42
2, 111337, Control_c, 0, 64, 30
2, 111346, Note_on_c, 0, 69, 0
2, 111353, Control_c, 0, 64, 29
2, 111368, Control_c, 0, 64, 30
2, 111398, Control_c, 0, 64, 29
2, 111413, Control_c, 0, 64, 29
2, 111450, Note_on_c, 0, 63, 0
2, 111455, Note_on_c, 0, 62, 70
2, 111458, Control_c, 0, 64, 28
2, 111466, Note_on_c, 0, 75, 0
2, 111576, Note_on_c, 0, 62, 0
2, 111591, Note_on_c, 0, 60, 68
2, 111729, Note_on_c, 0, 60, 0
2, 111732, Note_on_c, 0, 58, 68
2, 111808, Control_c, 0, 64, 29
2, 111864, Note_on_c, 0, 57, 64
2, 111869, Note_on_c, 0, 58, 0
2, 112022, Note_on_c, 0, 55, 58
2, 112027, Note_on_c, 0, 74, 66
2, 112041, Note_on_c, 0, 65, 57
2, 112042, Note_on_c, 0, 70, 66
2, 112066, Note_on_c, 0, 57, 0
2, 112146, Note_on_c, 0, 55, 0
2, 112149, Control_c, 0, 64, 29
2, 112162, Note_on_c, 0, 58, 60
2, 112255, Control_c, 0, 64, 30
2, 112270, Control_c, 0, 64, 34
2, 112279, Note_on_c, 0, 58, 0
2, 112286, Control_c, 0, 64, 40
2, 112300, Control_c, 0, 64, 46
2, 112305, Note_on_c, 0, 74, 0
2, 112306, Note_on_c, 0, 50, 68
2, 112306, Note_on_c, 0, 69, 73
2, 112306, Note_on_c, 0, 72, 77
2, 112315, Control_c, 0, 64, 53
2, 112331, Control_c, 0, 64, 58
2, 112341, Note_on_c, 0, 70, 0
2, 112346, Control_c, 0, 64, 62
2, 112362, Control_c, 0, 64, 64
2, 112376, Control_c, 0, 64, 64
2, 112391, Control_c, 0, 64, 65
2, 112403, Note_on_c, 0, 50, 0
2, 112407, Control_c, 0, 64, 67
2, 112414, Note_on_c, 0, 51, 67
2, 112422, Control_c, 0, 64, 69
2, 112438, Control_c, 0, 64, 72
2, 112452, Control_c, 0, 64, 73
2, 112467, Control_c, 0, 64, 74
2, 112483, Control_c, 0, 64, 75
2, 112497, Control_c, 0, 64, 76
2, 112500, Note_on_c, 0, 51, 0
2, 112514, Note_on_c, 0, 53, 57
2, 112582, Note_on_c, 0, 53, 0
2, 112605, Control_c, 0, 64, 75
2, 112611, Note_on_c, 0, 74, 73
2, 112613, Note_on_c, 0, 51, 68
2, 112620, Control_c, 0, 64, 74
2, 112620, Note_on_c, 0, 69, 0
2, 112628, Note_on_c, 0, 70, 66
2, 112635, Control_c, 0, 64, 72
2, 112650, Control_c, 0, 64, 69
2, 112662, Note_on_c, 0, 72, 0
2, 112665, Control_c, 0, 64, 65
2, 112681, Control_c, 0, 64, 61
2, 112695, Control_c, 0, 64, 60
2, 112710, Control_c, 0, 64, 63
2, 112733, Control_c, 0, 64, 65
2, 112734, Note_on_c, 0, 51, 0
2, 112748, Control_c, 0, 64, 66
2, 112749, Note_on_c, 0, 50, 59
2, 112764, Control_c, 0, 64, 69
2, 112779, Control_c, 0, 64, 70
2, 112794, Control_c, 0, 64, 72
2, 112810, Control_c, 0, 64, 73
2, 112824, Control_c, 0, 64, 73
2, 112840, Control_c, 0, 64, 74
2, 112864, Note_on_c, 0, 50, 0
2, 112883, Note_on_c, 0, 68, 74
2, 112888, Note_on_c, 0, 48, 63
2, 112892, Note_on_c, 0, 65, 0
2, 112916, Control_c, 0, 64, 73
2, 112932, Control_c, 0, 64, 72
2, 112947, Control_c, 0, 64, 68
2, 112963, Control_c, 0, 64, 64
2, 112977, Control_c, 0, 64, 55
2, 112977, Note_on_c, 0, 48, 0
2, 112979, Note_on_c, 0, 70, 0
2, 112992, Control_c, 0, 64, 42
2, 112992, Note_on_c, 0, 74, 0
2, 113002, Note_on_c, 0, 46, 61
2, 113008, Control_c, 0, 64, 34
2, 113023, Control_c, 0, 64, 34
2, 113039, Control_c, 0, 64, 31
2, 113054, Control_c, 0, 64, 26
2, 113069, Control_c, 0, 64, 17
2, 113085, Control_c, 0, 64, 0
2, 113154, Note_on_c, 0, 46, 0
2, 113169, Note_on_c, 0, 51, 69
2, 113296, Note_on_c, 0, 65, 70
2, 113323, Note_on_c, 0, 68, 0
2, 113451, Note_on_c, 0, 50, 65
2, 113451, Note_on_c, 0, 67, 79
2, 113471, Note_on_c, 0, 51, 0
2, 113535, Note_on_c, 0, 65, 0
2, 113599, Note_on_c, 0, 68, 74
2, 113627, Note_on_c, 0, 67, 0
2, 113747, Note_on_c, 0, 72, 70
2, 113759, Note_on_c, 0, 68, 0
2, 113762, Note_on_c, 0, 67, 70
2, 113765, Note_on_c, 0, 51, 59
2, 113779, Note_on_c, 0, 50, 0
2, 113879, Note_on_c, 0, 67, 0
2, 113897, Note_on_c, 0, 65, 60
2, 113991, Control_c, 0, 64, 10
2, 114006, Control_c, 0, 64, 15
2, 114018, Note_on_c, 0, 65, 0
2, 114021, Control_c, 0, 64, 17
2, 114037, Control_c, 0, 64, 18
2, 114047, Note_on_c, 0, 63, 56
2, 114052, Control_c, 0, 64, 21
2, 114066, Control_c, 0, 64, 24
2, 114082, Control_c, 0, 64, 25
2, 114097, Control_c, 0, 64, 26
2, 114175, Note_on_c, 0, 62, 64
2, 114178, Note_on_c, 0, 63, 0
2, 114234, Control_c, 0, 64, 27
2, 114246, Note_on_c, 0, 51, 0
2, 114249, Control_c, 0, 64, 28
2, 114272, Control_c, 0, 64, 32
2, 114287, Control_c, 0, 64, 44
2, 114302, Control_c, 0, 64, 53
2, 114318, Control_c, 0, 64, 60
2, 114322, Note_on_c, 0, 62, 0
2, 114322, Note_on_c, 0, 63, 68
2, 114332, Control_c, 0, 64, 64
2, 114347, Control_c, 0, 64, 66
2, 114363, Control_c, 0, 64, 68
2, 114378, Control_c, 0, 64, 71
2, 114393, Control_c, 0, 64, 73
2, 114401, Note_on_c, 0, 63, 0
2, 114408, Control_c, 0, 64, 74
2, 114423, Control_c, 0, 64, 75
2, 114436, Note_on_c, 0, 72, 0
2, 114454, Control_c, 0, 64, 76
2, 114467, Note_on_c, 0, 62, 55
2, 114561, Control_c, 0, 64, 75
2, 114573, Note_on_c, 0, 62, 0
2, 114576, Control_c, 0, 64, 75
2, 114592, Control_c, 0, 64, 72
2, 114601, Note_on_c, 0, 60, 61
2, 114607, Control_c, 0, 64, 67
2, 114607, Note_on_c, 0, 74, 67
2, 114621, Control_c, 0, 64, 57
2, 114637, Control_c, 0, 64, 0
2, 114683, Control_c, 0, 64, 34
2, 114698, Control_c, 0, 64, 57
2, 114714, Control_c, 0, 64, 64
2, 114729, Control_c, 0, 64, 67
2, 114743, Control_c, 0, 64, 71
2, 114746, Note_on_c, 0, 75, 76
2, 114753, Note_on_c, 0, 58, 71
2, 114755, Note_on_c, 0, 74, 0
2, 114759, Control_c, 0, 64, 75
2, 114763, Note_on_c, 0, 60, 0
2, 114774, Control_c, 0, 64, 78
2, 114789, Control_c, 0, 64, 79
2, 114792, Note_on_c, 0, 75, 0
2, 114798, Note_on_c, 0, 58, 0
2, 114805, Control_c, 0, 64, 80
2, 114908, Note_on_c, 0, 70, 80
2, 114920, Note_on_c, 0, 60, 64
2, 114930, Note_on_c, 0, 65, 60
2, 114941, Control_c, 0, 64, 78
2, 114956, Control_c, 0, 64, 76
2, 114971, Control_c, 0, 64, 72
2, 114986, Control_c, 0, 64, 67
2, 115002, Control_c, 0, 64, 57
2, 115017, Control_c, 0, 64, 25
2, 115040, Control_c, 0, 64, 0
2, 115053, Note_on_c, 0, 51, 63
2, 115209, Note_on_c, 0, 51, 0
2, 115210, Note_on_c, 0, 53, 72
2, 115213, Note_on_c, 0, 69, 81
2, 115248, Note_on_c, 0, 70, 0
2, 115343, Note_on_c, 0, 53, 0
2, 115344, Note_on_c, 0, 55, 60
2, 115499, Note_on_c, 0, 53, 63
2, 115506, Note_on_c, 0, 55, 0
2, 115638, Note_on_c, 0, 53, 0
2, 115646, Note_on_c, 0, 51, 62
2, 115769, Note_on_c, 0, 65, 0
2, 115770, Note_on_c, 0, 60, 0
2, 115776, Note_on_c, 0, 51, 0
2, 115789, Note_on_c, 0, 50, 65
2, 115926, Note_on_c, 0, 50, 0
2, 115936, Note_on_c, 0, 48, 60
2, 116068, Note_on_c, 0, 48, 0
2, 116082, Note_on_c, 0, 70, 63
2, 116091, Note_on_c, 0, 65, 52
2, 116097, Note_on_c, 0, 50, 50
2, 116103, Note_on_c, 0, 58, 49
2, 116104, Note_on_c, 0, 69, 0
2, 116216, Note_on_c, 0, 50, 0
2, 116223, Note_on_c, 0, 48, 55
2, 116348, Note_on_c, 0, 48, 0
2, 116362, Note_on_c, 0, 46, 59
2, 116384, Note_on_c, 0, 58, 0
2, 116487, Note_on_c, 0, 46, 0
2, 116505, Note_on_c, 0, 45, 57
2, 116520, Note_on_c, 0, 65, 0
2, 116539, Note_on_c, 0, 70, 0
2, 116657, Note_on_c, 0, 45, 0
2, 116677, Note_on_c, 0, 43, 60
2, 116802, Note_on_c, 0, 69, 59
2, 116957, Note_on_c, 0, 70, 68
2, 116962, Note_on_c, 0, 50, 54
2, 116972, Note_on_c, 0, 69, 0
2, 117091, Note_on_c, 0, 72, 72
2, 117119, Note_on_c, 0, 70, 0
2, 117237, Note_on_c, 0, 55, 59
2, 117242, Note_on_c, 0, 70, 74
2, 117268, Note_on_c, 0, 43, 0
2, 117268, Note_on_c, 0, 72, 0
2, 117394, Note_on_c, 0, 69, 75
2, 117428, Note_on_c, 0, 70, 0
2, 117547, Note_on_c, 0, 45, 62
2, 117547, Note_on_c, 0, 67, 72
2, 117552, Note_on_c, 0, 69, 0
2, 117681, Note_on_c, 0, 67, 0
2, 117682, Note_on_c, 0, 65, 70
2, 117833, Note_on_c, 0, 45, 0
2, 117837, Note_on_c, 0, 67, 72
2, 117840, Note_on_c, 0, 65, 0
2, 117844, Note_on_c, 0, 46, 57
2, 117978, Note_on_c, 0, 65, 67
2, 118128, Control_c, 0, 64, 39
2, 118132, Note_on_c, 0, 64, 65
2, 118143, Control_c, 0, 64, 55
2, 118159, Control_c, 0, 64, 61
2, 118170, Note_on_c, 0, 65, 0
2, 118171, Note_on_c, 0, 67, 0
2, 118174, Control_c, 0, 64, 63
2, 118188, Control_c, 0, 64, 65
2, 118204, Control_c, 0, 64, 67
2, 118219, Control_c, 0, 64, 68
2, 118235, Control_c, 0, 64, 70
2, 118250, Control_c, 0, 64, 71
2, 118263, Note_on_c, 0, 64, 0
2, 118264, Control_c, 0, 64, 73
2, 118272, Note_on_c, 0, 62, 66
2, 118280, Control_c, 0, 64, 74
2, 118295, Control_c, 0, 64, 74
2, 118401, Control_c, 0, 64, 73
2, 118414, Note_on_c, 0, 62, 0
2, 118416, Control_c, 0, 64, 71
2, 118427, Note_on_c, 0, 64, 68
2, 118432, Control_c, 0, 64, 68
2, 118447, Control_c, 0, 64, 63
2, 118461, Control_c, 0, 64, 55
2, 118477, Control_c, 0, 64, 45
2, 118492, Control_c, 0, 64, 39
2, 118507, Control_c, 0, 64, 39
2, 118554, Control_c, 0, 64, 38
2, 118575, Note_on_c, 0, 62, 55
2, 118660, Control_c, 0, 64, 39
2, 118691, Control_c, 0, 64, 39
2, 118706, Control_c, 0, 64, 40
2, 118709, Note_on_c, 0, 60, 55
2, 118730, Note_on_c, 0, 50, 0
2, 118856, Note_on_c, 0, 60, 0
2, 118858, Control_c, 0, 64, 40
2, 118862, Note_on_c, 0, 58, 57
2, 118896, Note_on_c, 0, 62, 0
2, 119006, Note_on_c, 0, 58, 0
2, 119013, Note_on_c, 0, 60, 54
2, 119063, Control_c, 0, 64, 41
2, 119094, Control_c, 0, 64, 42
2, 119108, Control_c, 0, 64, 43
2, 119124, Control_c, 0, 64, 44
2, 119139, Control_c, 0, 64, 45
2, 119152, Note_on_c, 0, 58, 52
2, 119155, Control_c, 0, 64, 47
2, 119155, Note_on_c, 0, 55, 0
2, 119170, Control_c, 0, 64, 50
2, 119184, Control_c, 0, 64, 54
2, 119200, Control_c, 0, 64, 57
2, 119215, Control_c, 0, 64, 60
2, 119229, Control_c, 0, 64, 62
2, 119245, Control_c, 0, 64, 64
2, 119260, Control_c, 0, 64, 65
2, 119276, Control_c, 0, 64, 67
2, 119289, Note_on_c, 0, 60, 0
2, 119291, Control_c, 0, 64, 69
2, 119295, Note_on_c, 0, 58, 0
2, 119299, Note_on_c, 0, 57, 56
2, 119305, Control_c, 0, 64, 70
2, 119321, Control_c, 0, 64, 72
2, 119336, Control_c, 0, 64, 74
2, 119352, Control_c, 0, 64, 75
2, 119367, Control_c, 0, 64, 76
2, 119382, Control_c, 0, 64, 76
2, 119410, Note_on_c, 0, 46, 0
2, 119428, Control_c, 0, 64, 77
2, 119438, Note_on_c, 0, 64, 0
2, 119439, Note_on_c, 0, 57, 0
2, 119442, Note_on_c, 0, 55, 61
2, 119475, Note_on_c, 0, 55, 0
2, 119520, Control_c, 0, 64, 77
2, 119580, Control_c, 0, 64, 77
2, 119607, Note_on_c, 0, 65, 64
2, 119611, Control_c, 0, 64, 76
2, 119611, Note_on_c, 0, 57, 52
2, 119615, Note_on_c, 0, 60, 48
2, 119623, Note_on_c, 0, 45, 48
2, 119626, Control_c, 0, 64, 74
2, 119649, Control_c, 0, 64, 72
2, 119664, Control_c, 0, 64, 69
2, 119679, Control_c, 0, 64, 65
2, 119694, Control_c, 0, 64, 59
2, 119709, Control_c, 0, 64, 56
2, 119725, Control_c, 0, 64, 55
2, 119755, Control_c, 0, 64, 54
2, 119766, Note_on_c, 0, 52, 55
2, 119770, Control_c, 0, 64, 52
2, 119785, Control_c, 0, 64, 49
2, 119801, Control_c, 0, 64, 46
2, 119816, Control_c, 0, 64, 44
2, 119832, Control_c, 0, 64, 43
2, 119847, Control_c, 0, 64, 43
2, 119862, Control_c, 0, 64, 42
2, 119877, Control_c, 0, 64, 40
2, 119892, Control_c, 0, 64, 38
2, 119907, Control_c, 0, 64, 37
2, 119912, Note_on_c, 0, 53, 64
2, 119925, Note_on_c, 0, 52, 0
2, 119938, Control_c, 0, 64, 37
2, 120028, Control_c, 0, 64, 36
2, 120037, Note_on_c, 0, 57, 0
2, 120044, Note_on_c, 0, 55, 70
2, 120054, Note_on_c, 0, 53, 0
2, 120195, Note_on_c, 0, 53, 70
2, 120210, Note_on_c, 0, 60, 0
2, 120218, Note_on_c, 0, 55, 0
2, 120264, Note_on_c, 0, 45, 0
2, 120301, Note_on_c, 0, 65, 0
2, 120341, Note_on_c, 0, 52, 74
2, 120362, Note_on_c, 0, 53, 0
2, 120364, Control_c, 0, 64, 36
2, 120378, Control_c, 0, 64, 35
2, 120394, Control_c, 0, 64, 34
2, 120478, Control_c, 0, 64, 34
2, 120493, Control_c, 0, 64, 33
2, 120496, Note_on_c, 0, 50, 77
2, 120497, Note_on_c, 0, 52, 0
2, 120508, Control_c, 0, 64, 32
2, 120523, Control_c, 0, 64, 29
2, 120538, Control_c, 0, 64, 27
2, 120554, Control_c, 0, 64, 24
2, 120569, Control_c, 0, 64, 20
2, 120584, Control_c, 0, 64, 15
2, 120599, Control_c, 0, 64, 0
2, 120626, Note_on_c, 0, 50, 0
2, 120628, Note_on_c, 0, 48, 75
2, 120776, Note_on_c, 0, 48, 0
2, 120786, Note_on_c, 0, 50, 62
2, 120795, Note_on_c, 0, 58, 70
2, 120923, Note_on_c, 0, 48, 56
2, 121063, Note_on_c, 0, 48, 0
2, 121069, Note_on_c, 0, 46, 68
2, 121076, Note_on_c, 0, 65, 77
2, 121213, Note_on_c, 0, 45, 62
2, 121213, Note_on_c, 0, 46, 0
2, 121370, Note_on_c, 0, 67, 82
2, 121374, Note_on_c, 0, 46, 71
2, 121377, Note_on_c, 0, 45, 0
2, 121409, Note_on_c, 0, 65, 0
2, 121525, Note_on_c, 0, 45, 61
2, 121546, Note_on_c, 0, 46, 0
2, 121655, Note_on_c, 0, 69, 77
2, 121667, Note_on_c, 0, 45, 0
2, 121668, Note_on_c, 0, 43, 65
2, 121690, Note_on_c, 0, 67, 0
2, 121806, Note_on_c, 0, 70, 79
2, 121814, Note_on_c, 0, 41, 67
2, 121818, Note_on_c, 0, 43, 0
2, 121843, Note_on_c, 0, 69, 0
2, 121972, Note_on_c, 0, 64, 64
2, 121975, Note_on_c, 0, 43, 63
2, 121983, Note_on_c, 0, 41, 0
2, 122006, Note_on_c, 0, 50, 0
2, 122009, Note_on_c, 0, 70, 0
2, 122121, Note_on_c, 0, 41, 63
2, 122185, Note_on_c, 0, 43, 0
2, 122263, Note_on_c, 0, 65, 76
2, 122273, Note_on_c, 0, 41, 0
2, 122281, Note_on_c, 0, 40, 65
2, 122324, Note_on_c, 0, 58, 0
2, 122369, Note_on_c, 0, 64, 0
2, 122422, Note_on_c, 0, 40, 0
2, 122430, Note_on_c, 0, 38, 62
2, 122593, Note_on_c, 0, 67, 78
2, 122601, Note_on_c, 0, 48, 54
2, 122602, Note_on_c, 0, 40, 55
2, 122608, Note_on_c, 0, 38, 0
2, 122623, Note_on_c, 0, 65, 0
2, 122680, Control_c, 0, 64, 34
2, 122697, Control_c, 0, 64, 45
2, 122719, Control_c, 0, 64, 53
2, 122734, Control_c, 0, 64, 59
2, 122747, Note_on_c, 0, 58, 59
2, 122749, Control_c, 0, 64, 62
2, 122765, Control_c, 0, 64, 64
2, 122779, Control_c, 0, 64, 66
2, 122794, Control_c, 0, 64, 68
2, 122810, Control_c, 0, 64, 70
2, 122825, Control_c, 0, 64, 72
2, 122841, Control_c, 0, 64, 74
2, 122856, Control_c, 0, 64, 76
2, 122863, Note_on_c, 0, 67, 0
2, 122871, Control_c, 0, 64, 76
2, 122887, Control_c, 0, 64, 77
2, 122897, Note_on_c, 0, 58, 0
2, 122915, Note_on_c, 0, 36, 55
2, 122920, Note_on_c, 0, 57, 61
2, 122940, Note_on_c, 0, 40, 0
2, 122992, Control_c, 0, 64, 76
2, 123053, Control_c, 0, 64, 76
2, 123064, Note_on_c, 0, 57, 0
2, 123065, Note_on_c, 0, 55, 66
2, 123084, Control_c, 0, 64, 75
2, 123098, Control_c, 0, 64, 75
2, 123113, Control_c, 0, 64, 74
2, 123129, Control_c, 0, 64, 74
2, 123143, Control_c, 0, 64, 73
2, 123159, Control_c, 0, 64, 71
2, 123174, Control_c, 0, 64, 68
2, 123189, Control_c, 0, 64, 64
2, 123205, Control_c, 0, 64, 54
2, 123214, Note_on_c, 0, 55, 0
2, 123220, Control_c, 0, 64, 18
2, 123220, Note_on_c, 0, 57, 71
2, 123223, Note_on_c, 0, 36, 0
2, 123228, Note_on_c, 0, 41, 59
2, 123234, Control_c, 0, 64, 0
2, 123359, Note_on_c, 0, 60, 72
2, 123520, Note_on_c, 0, 62, 77
2, 123527, Note_on_c, 0, 40, 64
2, 123537, Note_on_c, 0, 41, 0
2, 123580, Note_on_c, 0, 60, 0
2, 123673, Note_on_c, 0, 64, 74
2, 123721, Note_on_c, 0, 62, 0
2, 123837, Note_on_c, 0, 65, 79
2, 123846, Note_on_c, 0, 38, 57
2, 123846, Note_on_c, 0, 40, 0
2, 123850, Note_on_c, 0, 57, 0
2, 123873, Note_on_c, 0, 64, 0
2, 123877, Note_on_c, 0, 48, 0
2, 123978, Note_on_c, 0, 57, 59
2, 124124, Note_on_c, 0, 57, 0
2, 124134, Note_on_c, 0, 48, 53
2, 124135, Note_on_c, 0, 58, 61
2, 124289, Note_on_c, 0, 60, 59
2, 124300, Note_on_c, 0, 58, 0
2, 124453, Note_on_c, 0, 46, 57
2, 124455, Note_on_c, 0, 62, 61
2, 124461, Note_on_c, 0, 60, 0
2, 124468, Note_on_c, 0, 48, 0
2, 124599, Note_on_c, 0, 60, 57
2, 124618, Note_on_c, 0, 62, 0
2, 124753, Note_on_c, 0, 43, 53
2, 124758, Note_on_c, 0, 58, 63
2, 124769, Note_on_c, 0, 46, 0
2, 124771, Note_on_c, 0, 60, 0
2, 124918, Note_on_c, 0, 58, 0
2, 124922, Note_on_c, 0, 57, 57
2, 125046, Note_on_c, 0, 65, 0
2, 125098, Note_on_c, 0, 43, 0
2, 125101, Note_on_c, 0, 48, 48
2, 125103, Note_on_c, 0, 55, 58
2, 125130, Note_on_c, 0, 57, 0
2, 125168, Note_on_c, 0, 38, 0
2, 125265, Note_on_c, 0, 58, 64
2, 125441, Note_on_c, 0, 55, 0
2, 125443, Note_on_c, 0, 36, 49
2, 125447, Note_on_c, 0, 65, 71
2, 125466, Note_on_c, 0, 58, 0
2, 125637, Note_on_c, 0, 64, 66
2, 125673, Note_on_c, 0, 65, 0
2, 125840, Note_on_c, 0, 65, 74
2, 125843, Note_on_c, 0, 64, 0
2, 125850, Note_on_c, 0, 41, 56
2, 125853, Note_on_c, 0, 36, 0
2, 125865, Note_on_c, 0, 53, 55
2, 126034, Note_on_c, 0, 58, 51
2, 126163, Note_on_c, 0, 53, 0
2, 126196, Note_on_c, 0, 57, 56
2, 126201, Note_on_c, 0, 58, 0
2, 126354, Note_on_c, 0, 57, 0
2, 126367, Note_on_c, 0, 55, 51
2, 126557, Note_on_c, 0, 55, 0
2, 126566, Note_on_c, 0, 57, 59
2, 126753, Note_on_c, 0, 55, 47
2, 126986, Note_on_c, 0, 53, 52
2, 126988, Note_on_c, 0, 55, 0
2, 127266, Note_on_c, 0, 52, 44
2, 127266, Note_on_c, 0, 53, 0
2, 127609, Note_on_c, 0, 53, 47
2, 127676, Note_on_c, 0, 52, 0
2, 128876, Note_on_c, 0, 53, 0
2, 129102, Note_on_c, 0, 41, 0
2, 129110, Note_on_c, 0, 57, 0
2, 129118, Note_on_c, 0, 48, 0
2, 129141, Note_on_c, 0, 65, 0
2, 130766,End_track
0, 0, End_of_file
